0, 0, Header, 1, 4, 384
1, 0, Start_track
1, 0, Title_t, "L.v.Beethoven 1mov - Piano Sonata No.16 in G Major Op.31-1\000"
1, 0, Copyright_t, "Copyright(C) 1995-2009, Suzuki Software\000"
1, 0, Sequencer_specific, 9, 67, 123, 0, 88, 70, 48, 50, 0, 1
1, 0, Text_t, "XFhd:2000/06/25:JP:Classical::::L.v.Beethoven:::Kaoru Suzuki\000"
1, 0, Text_t, "XFln:JP:\203s\203A\203m\203\\\203i\203^\221æ16\224Ô\203g\222·\222²\215ì\225i31-1\201`\221æ1\212y\217Í:L.v.\203x\201[\203g\201[\203\224\203F\203\223:::\227é\202¿\202á\202ñ:\227é\202¿\202á\202ñ\000"
1, 0, Time_signature, 1, 2, 96, 8
1, 0, Sequencer_specific, 3, 0, 0, 65
1, 0, Sequencer_specific, 5, 0, 0, 119, 14, 0
1, 0, Tempo, 444444
1, 384, Time_signature, 2, 2, 96, 8
1, 42624, Tempo, 480000
1, 44160, Tempo, 444444
1, 45696, Tempo, 480000
1, 48768, Tempo, 500000
1, 49536, Tempo, 461538
1, 49920, Tempo, 444444
1, 75648, Tempo, 461538
1, 81792, Tempo, 480000
1, 82560, Tempo, 500000
1, 82944, Tempo, 521739
1, 83136, Tempo, 666666
1, 83328, Tempo, 500000
1, 86400, Tempo, 444444
1, 93312, Tempo, 461538
1, 94848, Tempo, 444444
1, 101760, Tempo, 468750
1, 103296, Tempo, 444444
1, 104832, Tempo, 468750
1, 107904, Tempo, 483870
1, 108864, Tempo, 444444
1, 117888, Tempo, 454545
1, 118656, Tempo, 472440
1, 119040, Tempo, 491803
1, 121728, Tempo, 444444
1, 128640, Tempo, 461538
1, 130176, Tempo, 444444
1, 131712, Tempo, 461538
1, 134784, Tempo, 480000
1, 135744, Tempo, 444444
1, 160128, Tempo, 454545
1, 160896, Tempo, 468750
1, 161280, Tempo, 483870
1, 161664, Tempo, 461538
1, 167808, Tempo, 472440
1, 168576, Tempo, 483870
1, 168960, Tempo, 500000
1, 169152, Tempo, 600000
1, 169344, Tempo, 500000
1, 172416, Tempo, 444444
1, 214656, Tempo, 461538
1, 215424, Tempo, 480000
1, 215808, Tempo, 500000
1, 216000, Tempo, 666666
1, 216192, Tempo, 461538
1, 234624, Tempo, 444444
1, 241536, Tempo, 461538
1, 243072, Tempo, 444444
1, 244608, Tempo, 461538
1, 246144, Tempo, 444444
1, 247680, Tempo, 461538
1, 250752, Tempo, 483870
1, 251520, Tempo, 461538
1, 251904, Tempo, 444444
1, 288384, Tempo, 454545
1, 289152, Tempo, 472440
1, 289536, Tempo, 483870
1, 289728, Tempo, 600000
1, 289920, Tempo, 472440
1, 296064, Tempo, 483870
1, 296832, Tempo, 500000
1, 297216, Tempo, 517241
1, 297408, Tempo, 600000
1, 297600, Tempo, 500000
1, 300672, Tempo, 444444
1, 314496, Tempo, 461538
1, 331392, Tempo, 483870
1, 335232, Tempo, 750000
1, 335232, End_track
2, 0, Start_track
2, 0, Title_t, "Right"
2, 0, Control_c, 0, 0, 0
2, 0, Program_c, 0, 0
2, 0, Control_c, 0, 7, 100
2, 0, Control_c, 0, 10, 70
2, 0, Control_c, 0, 91, 127
2, 0, Key_signature, 1, "major"
2, 288, Note_on_c, 0, 79, 80
2, 956, Note_off_c, 0, 79, 64
2, 960, Note_on_c, 0, 78, 80
2, 1052, Note_off_c, 0, 78, 100
2, 1056, Note_on_c, 0, 76, 80
2, 1148, Note_off_c, 0, 76, 100
2, 1152, Note_on_c, 0, 74, 80
2, 1244, Note_off_c, 0, 74, 100
2, 1248, Note_on_c, 0, 75, 80
2, 1340, Note_off_c, 0, 75, 100
2, 1344, Note_on_c, 0, 76, 80
2, 1436, Note_off_c, 0, 76, 100
2, 1440, Note_on_c, 0, 71, 80
2, 1532, Note_off_c, 0, 71, 100
2, 1536, Note_on_c, 0, 74, 80
2, 1628, Note_off_c, 0, 74, 100
2, 1632, Note_on_c, 0, 72, 80
2, 1724, Note_off_c, 0, 72, 100
2, 1728, Note_on_c, 0, 71, 80
2, 1820, Note_off_c, 0, 71, 100
2, 1824, Note_on_c, 0, 69, 80
2, 1916, Note_off_c, 0, 69, 100
2, 1920, Note_on_c, 0, 67, 80
2, 2300, Note_off_c, 0, 67, 100
2, 2592, Note_on_c, 0, 67, 80
2, 2592, Note_on_c, 0, 62, 80
2, 2592, Note_on_c, 0, 59, 80
2, 2972, Note_off_c, 0, 59, 64
2, 2972, Note_off_c, 0, 62, 64
2, 2972, Note_off_c, 0, 67, 64
2, 2976, Note_on_c, 0, 71, 80
2, 2976, Note_on_c, 0, 62, 80
2, 2976, Note_on_c, 0, 59, 80
2, 3356, Note_off_c, 0, 71, 100
2, 3356, Note_off_c, 0, 62, 100
2, 3356, Note_off_c, 0, 59, 100
2, 3360, Note_on_c, 0, 67, 80
2, 3360, Note_on_c, 0, 62, 80
2, 3360, Note_on_c, 0, 59, 80
2, 3644, Note_off_c, 0, 59, 64
2, 3644, Note_off_c, 0, 62, 64
2, 3644, Note_off_c, 0, 67, 64
2, 4128, Note_on_c, 0, 67, 80
2, 4128, Note_on_c, 0, 62, 80
2, 4128, Note_on_c, 0, 59, 80
2, 4508, Note_off_c, 0, 59, 64
2, 4508, Note_off_c, 0, 62, 64
2, 4508, Note_off_c, 0, 67, 64
2, 4512, Note_on_c, 0, 74, 80
2, 4512, Note_on_c, 0, 71, 80
2, 4512, Note_on_c, 0, 67, 80
2, 4512, Note_on_c, 0, 62, 80
2, 4892, Note_off_c, 0, 74, 100
2, 4892, Note_off_c, 0, 71, 100
2, 4892, Note_off_c, 0, 67, 100
2, 4892, Note_off_c, 0, 62, 100
2, 4896, Note_on_c, 0, 67, 80
2, 4896, Note_on_c, 0, 62, 80
2, 4896, Note_on_c, 0, 59, 80
2, 5180, Note_off_c, 0, 59, 64
2, 5180, Note_off_c, 0, 62, 64
2, 5180, Note_off_c, 0, 67, 64
2, 5664, Note_on_c, 0, 71, 110
2, 5664, Note_on_c, 0, 67, 110
2, 5664, Note_on_c, 0, 62, 110
2, 5664, Note_on_c, 0, 59, 110
2, 6044, Note_off_c, 0, 59, 64
2, 6044, Note_off_c, 0, 62, 64
2, 6044, Note_off_c, 0, 67, 64
2, 6044, Note_off_c, 0, 71, 64
2, 6048, Note_on_c, 0, 79, 110
2, 6048, Note_on_c, 0, 76, 110
2, 6048, Note_on_c, 0, 71, 110
2, 6048, Note_on_c, 0, 67, 110
2, 6428, Note_off_c, 0, 79, 100
2, 6428, Note_off_c, 0, 76, 100
2, 6428, Note_off_c, 0, 71, 100
2, 6428, Note_off_c, 0, 67, 100
2, 6432, Note_on_c, 0, 78, 110
2, 6432, Note_on_c, 0, 74, 110
2, 6432, Note_on_c, 0, 69, 110
2, 6432, Note_on_c, 0, 66, 110
2, 6716, Note_off_c, 0, 66, 64
2, 6716, Note_off_c, 0, 69, 64
2, 6716, Note_off_c, 0, 74, 64
2, 6716, Note_off_c, 0, 78, 64
2, 7296, Note_on_c, 0, 74, 80
2, 7296, Note_on_c, 0, 69, 80
2, 7296, Note_on_c, 0, 66, 80
2, 7484, Note_off_c, 0, 74, 100
2, 7484, Note_off_c, 0, 69, 100
2, 7484, Note_off_c, 0, 66, 100
2, 7680, Note_on_c, 0, 73, 80
2, 7680, Note_on_c, 0, 69, 80
2, 7680, Note_on_c, 0, 67, 80
2, 7680, Note_on_c, 0, 64, 80
2, 7868, Note_off_c, 0, 73, 100
2, 7868, Note_off_c, 0, 69, 100
2, 7868, Note_off_c, 0, 67, 100
2, 7868, Note_off_c, 0, 64, 100
2, 8064, Note_on_c, 0, 74, 80
2, 8064, Note_on_c, 0, 69, 80
2, 8064, Note_on_c, 0, 66, 80
2, 8064, Note_on_c, 0, 62, 80
2, 8252, Note_off_c, 0, 74, 100
2, 8252, Note_off_c, 0, 69, 100
2, 8252, Note_off_c, 0, 66, 100
2, 8252, Note_off_c, 0, 62, 100
2, 8736, Note_on_c, 0, 77, 110
2, 9404, Note_off_c, 0, 77, 64
2, 9408, Note_on_c, 0, 76, 110
2, 9500, Note_off_c, 0, 76, 100
2, 9504, Note_on_c, 0, 74, 110
2, 9596, Note_off_c, 0, 74, 100
2, 9600, Note_on_c, 0, 72, 110
2, 9692, Note_off_c, 0, 72, 100
2, 9696, Note_on_c, 0, 73, 110
2, 9788, Note_off_c, 0, 73, 100
2, 9792, Note_on_c, 0, 74, 110
2, 9884, Note_off_c, 0, 74, 100
2, 9888, Note_on_c, 0, 69, 110
2, 9980, Note_off_c, 0, 69, 100
2, 9984, Note_on_c, 0, 72, 110
2, 10076, Note_off_c, 0, 72, 100
2, 10080, Note_on_c, 0, 70, 110
2, 10172, Note_off_c, 0, 70, 100
2, 10176, Note_on_c, 0, 69, 110
2, 10268, Note_off_c, 0, 69, 100
2, 10272, Note_on_c, 0, 67, 110
2, 10364, Note_off_c, 0, 67, 100
2, 10368, Note_on_c, 0, 65, 110
2, 10748, Note_off_c, 0, 65, 100
2, 11040, Note_on_c, 0, 65, 80
2, 11040, Note_on_c, 0, 60, 80
2, 11040, Note_on_c, 0, 57, 80
2, 11420, Note_off_c, 0, 57, 64
2, 11420, Note_off_c, 0, 60, 64
2, 11420, Note_off_c, 0, 65, 64
2, 11424, Note_on_c, 0, 69, 80
2, 11424, Note_on_c, 0, 60, 80
2, 11424, Note_on_c, 0, 57, 80
2, 11804, Note_off_c, 0, 69, 100
2, 11804, Note_off_c, 0, 60, 100
2, 11804, Note_off_c, 0, 57, 100
2, 11808, Note_on_c, 0, 65, 80
2, 11808, Note_on_c, 0, 60, 80
2, 11808, Note_on_c, 0, 57, 80
2, 12092, Note_off_c, 0, 57, 64
2, 12092, Note_off_c, 0, 60, 64
2, 12092, Note_off_c, 0, 65, 64
2, 12576, Note_on_c, 0, 65, 80
2, 12576, Note_on_c, 0, 60, 80
2, 12576, Note_on_c, 0, 57, 80
2, 12956, Note_off_c, 0, 57, 64
2, 12956, Note_off_c, 0, 60, 64
2, 12956, Note_off_c, 0, 65, 64
2, 12960, Note_on_c, 0, 72, 80
2, 12960, Note_on_c, 0, 69, 80
2, 12960, Note_on_c, 0, 65, 80
2, 12960, Note_on_c, 0, 60, 80
2, 13340, Note_off_c, 0, 72, 100
2, 13340, Note_off_c, 0, 69, 100
2, 13340, Note_off_c, 0, 65, 100
2, 13340, Note_off_c, 0, 60, 100
2, 13344, Note_on_c, 0, 60, 80
2, 13344, Note_on_c, 0, 57, 80
2, 13344, Note_on_c, 0, 65, 80
2, 13628, Note_off_c, 0, 57, 64
2, 13628, Note_off_c, 0, 60, 64
2, 13628, Note_off_c, 0, 65, 64
2, 14112, Note_on_c, 0, 69, 110
2, 14112, Note_on_c, 0, 60, 110
2, 14112, Note_on_c, 0, 57, 110
2, 14112, Note_on_c, 0, 65, 110
2, 14492, Note_off_c, 0, 57, 64
2, 14492, Note_off_c, 0, 60, 64
2, 14492, Note_off_c, 0, 65, 64
2, 14492, Note_off_c, 0, 69, 64
2, 14496, Note_on_c, 0, 77, 110
2, 14496, Note_on_c, 0, 74, 110
2, 14496, Note_on_c, 0, 69, 110
2, 14496, Note_on_c, 0, 65, 110
2, 14876, Note_off_c, 0, 77, 100
2, 14876, Note_off_c, 0, 74, 100
2, 14876, Note_off_c, 0, 69, 100
2, 14876, Note_off_c, 0, 65, 100
2, 14880, Note_on_c, 0, 76, 110
2, 14880, Note_on_c, 0, 72, 110
2, 14880, Note_on_c, 0, 67, 110
2, 14880, Note_on_c, 0, 64, 110
2, 15164, Note_off_c, 0, 64, 64
2, 15164, Note_off_c, 0, 67, 64
2, 15164, Note_off_c, 0, 72, 64
2, 15164, Note_off_c, 0, 76, 64
2, 15744, Note_on_c, 0, 72, 80
2, 15744, Note_on_c, 0, 67, 80
2, 15744, Note_on_c, 0, 64, 80
2, 15932, Note_off_c, 0, 72, 100
2, 15932, Note_off_c, 0, 67, 100
2, 15932, Note_off_c, 0, 64, 100
2, 16128, Note_on_c, 0, 71, 80
2, 16128, Note_on_c, 0, 67, 80
2, 16128, Note_on_c, 0, 65, 80
2, 16128, Note_on_c, 0, 62, 80
2, 16316, Note_off_c, 0, 71, 100
2, 16316, Note_off_c, 0, 67, 100
2, 16316, Note_off_c, 0, 65, 100
2, 16316, Note_off_c, 0, 62, 100
2, 16512, Note_on_c, 0, 72, 80
2, 16512, Note_on_c, 0, 67, 80
2, 16512, Note_on_c, 0, 64, 80
2, 16512, Note_on_c, 0, 60, 80
2, 16700, Note_off_c, 0, 72, 100
2, 16700, Note_off_c, 0, 67, 100
2, 16700, Note_off_c, 0, 64, 100
2, 16700, Note_off_c, 0, 60, 100
2, 17184, Note_on_c, 0, 76, 110
2, 17184, Note_on_c, 0, 72, 110
2, 17184, Note_on_c, 0, 67, 110
2, 17184, Note_on_c, 0, 64, 110
2, 17564, Note_off_c, 0, 64, 64
2, 17564, Note_off_c, 0, 67, 64
2, 17564, Note_off_c, 0, 72, 64
2, 17564, Note_off_c, 0, 76, 64
2, 17568, Note_on_c, 0, 81, 110
2, 17568, Note_on_c, 0, 84, 110
2, 17568, Note_on_c, 0, 76, 110
2, 17568, Note_on_c, 0, 72, 110
2, 17948, Note_off_c, 0, 81, 100
2, 17948, Note_off_c, 0, 84, 100
2, 17948, Note_off_c, 0, 76, 100
2, 17948, Note_off_c, 0, 72, 100
2, 17952, Note_on_c, 0, 83, 110
2, 17952, Note_on_c, 0, 79, 110
2, 17952, Note_on_c, 0, 74, 110
2, 17952, Note_on_c, 0, 71, 110
2, 18236, Note_off_c, 0, 71, 64
2, 18236, Note_off_c, 0, 74, 64
2, 18236, Note_off_c, 0, 79, 64
2, 18236, Note_off_c, 0, 83, 64
2, 18816, Note_on_c, 0, 79, 80
2, 18816, Note_on_c, 0, 74, 80
2, 18816, Note_on_c, 0, 71, 80
2, 19004, Note_off_c, 0, 79, 100
2, 19004, Note_off_c, 0, 74, 100
2, 19004, Note_off_c, 0, 71, 100
2, 19200, Note_on_c, 0, 78, 80
2, 19200, Note_on_c, 0, 74, 80
2, 19200, Note_on_c, 0, 69, 80
2, 19388, Note_off_c, 0, 78, 100
2, 19388, Note_off_c, 0, 74, 100
2, 19388, Note_off_c, 0, 69, 100
2, 19584, Note_on_c, 0, 79, 80
2, 19584, Note_on_c, 0, 74, 80
2, 19584, Note_on_c, 0, 71, 80
2, 19772, Note_off_c, 0, 79, 100
2, 19772, Note_off_c, 0, 74, 100
2, 19772, Note_off_c, 0, 71, 100
2, 20352, Note_on_c, 0, 83, 80
2, 20352, Note_on_c, 0, 79, 80
2, 20352, Note_on_c, 0, 74, 80
2, 20352, Note_on_c, 0, 71, 80
2, 20540, Note_off_c, 0, 83, 100
2, 20540, Note_off_c, 0, 79, 100
2, 20540, Note_off_c, 0, 74, 100
2, 20540, Note_off_c, 0, 71, 100
2, 20736, Note_on_c, 0, 81, 80
2, 20736, Note_on_c, 0, 78, 80
2, 20736, Note_on_c, 0, 74, 80
2, 20736, Note_on_c, 0, 69, 80
2, 20924, Note_off_c, 0, 81, 100
2, 20924, Note_off_c, 0, 78, 100
2, 20924, Note_off_c, 0, 74, 100
2, 20924, Note_off_c, 0, 69, 100
2, 21120, Note_on_c, 0, 83, 80
2, 21120, Note_on_c, 0, 79, 80
2, 21120, Note_on_c, 0, 74, 80
2, 21120, Note_on_c, 0, 71, 80
2, 21308, Note_off_c, 0, 83, 100
2, 21308, Note_off_c, 0, 79, 100
2, 21308, Note_off_c, 0, 74, 100
2, 21308, Note_off_c, 0, 71, 100
2, 21888, Note_on_c, 0, 83, 80
2, 21888, Note_on_c, 0, 86, 80
2, 21888, Note_on_c, 0, 79, 80
2, 21888, Note_on_c, 0, 74, 80
2, 22172, Note_off_c, 0, 83, 100
2, 22172, Note_off_c, 0, 86, 100
2, 22172, Note_off_c, 0, 79, 100
2, 22172, Note_off_c, 0, 74, 100
2, 22272, Note_on_c, 0, 86, 80
2, 22272, Note_on_c, 0, 81, 80
2, 22272, Note_on_c, 0, 78, 80
2, 22272, Note_on_c, 0, 74, 80
2, 22556, Note_off_c, 0, 86, 100
2, 22556, Note_off_c, 0, 81, 100
2, 22556, Note_off_c, 0, 78, 100
2, 22556, Note_off_c, 0, 74, 100
2, 22656, Note_on_c, 0, 79, 80
2, 22748, Note_off_c, 0, 79, 100
2, 22752, Note_on_c, 0, 82, 80
2, 22844, Note_off_c, 0, 82, 100
2, 22848, Note_on_c, 0, 83, 81
2, 22940, Note_off_c, 0, 83, 100
2, 22944, Note_on_c, 0, 78, 82
2, 23036, Note_off_c, 0, 78, 100
2, 23040, Note_on_c, 0, 81, 83
2, 23132, Note_off_c, 0, 81, 100
2, 23136, Note_on_c, 0, 79, 84
2, 23228, Note_off_c, 0, 79, 100
2, 23232, Note_on_c, 0, 78, 85
2, 23324, Note_off_c, 0, 78, 100
2, 23328, Note_on_c, 0, 76, 86
2, 23420, Note_off_c, 0, 76, 100
2, 23424, Note_on_c, 0, 74, 87
2, 23516, Note_off_c, 0, 74, 100
2, 23520, Note_on_c, 0, 75, 88
2, 23612, Note_off_c, 0, 75, 100
2, 23616, Note_on_c, 0, 76, 89
2, 23708, Note_off_c, 0, 76, 100
2, 23712, Note_on_c, 0, 71, 90
2, 23804, Note_off_c, 0, 71, 100
2, 23808, Note_on_c, 0, 74, 91
2, 23900, Note_off_c, 0, 74, 100
2, 23904, Note_on_c, 0, 72, 92
2, 23996, Note_off_c, 0, 72, 100
2, 24000, Note_on_c, 0, 71, 93
2, 24092, Note_off_c, 0, 71, 100
2, 24096, Note_on_c, 0, 69, 94
2, 24188, Note_off_c, 0, 69, 100
2, 24192, Note_on_c, 0, 67, 95
2, 24284, Note_off_c, 0, 67, 100
2, 24288, Note_on_c, 0, 70, 96
2, 24380, Note_off_c, 0, 70, 100
2, 24384, Note_on_c, 0, 71, 97
2, 24476, Note_off_c, 0, 71, 100
2, 24480, Note_on_c, 0, 66, 98
2, 24572, Note_off_c, 0, 66, 100
2, 24576, Note_on_c, 0, 69, 99
2, 24668, Note_off_c, 0, 69, 100
2, 24672, Note_on_c, 0, 67, 100
2, 24764, Note_off_c, 0, 67, 100
2, 24768, Note_on_c, 0, 66, 101
2, 24860, Note_off_c, 0, 66, 100
2, 24864, Note_on_c, 0, 64, 102
2, 24956, Note_off_c, 0, 64, 100
2, 24960, Note_on_c, 0, 62, 103
2, 25052, Note_off_c, 0, 62, 100
2, 25056, Note_on_c, 0, 63, 104
2, 25148, Note_off_c, 0, 63, 100
2, 25152, Note_on_c, 0, 64, 105
2, 25244, Note_off_c, 0, 64, 100
2, 25248, Note_on_c, 0, 59, 106
2, 25340, Note_off_c, 0, 59, 100
2, 25344, Note_on_c, 0, 62, 107
2, 25436, Note_off_c, 0, 62, 100
2, 25440, Note_on_c, 0, 60, 108
2, 25532, Note_off_c, 0, 60, 100
2, 25536, Note_on_c, 0, 59, 108
2, 25628, Note_off_c, 0, 59, 100
2, 25632, Note_on_c, 0, 57, 109
2, 25724, Note_off_c, 0, 57, 100
2, 25728, Note_on_c, 0, 55, 110
2, 25820, Note_off_c, 0, 55, 100
2, 25824, Note_on_c, 0, 58, 110
2, 25916, Note_off_c, 0, 58, 100
2, 25920, Note_on_c, 0, 59, 110
2, 26012, Note_off_c, 0, 59, 100
2, 26016, Note_on_c, 0, 54, 110
2, 26108, Note_off_c, 0, 54, 100
2, 26112, Note_on_c, 0, 57, 110
2, 26204, Note_off_c, 0, 57, 100
2, 26208, Note_on_c, 0, 55, 110
2, 26300, Note_off_c, 0, 55, 100
2, 26304, Note_on_c, 0, 54, 110
2, 26396, Note_off_c, 0, 54, 100
2, 26400, Note_on_c, 0, 52, 110
2, 26492, Note_off_c, 0, 52, 100
2, 26496, Note_on_c, 0, 50, 110
2, 26588, Note_off_c, 0, 50, 100
2, 26592, Note_on_c, 0, 51, 110
2, 26684, Note_off_c, 0, 51, 100
2, 26688, Note_on_c, 0, 52, 110
2, 26780, Note_off_c, 0, 52, 100
2, 26784, Note_on_c, 0, 47, 110
2, 26876, Note_off_c, 0, 47, 100
2, 26880, Note_on_c, 0, 50, 110
2, 26972, Note_off_c, 0, 50, 100
2, 26976, Note_on_c, 0, 48, 110
2, 27068, Note_off_c, 0, 48, 100
2, 27072, Note_on_c, 0, 47, 110
2, 27164, Note_off_c, 0, 47, 100
2, 27168, Note_on_c, 0, 45, 110
2, 27260, Note_off_c, 0, 45, 100
2, 27264, Note_on_c, 0, 43, 110
2, 27356, Note_off_c, 0, 43, 100
2, 27360, Note_on_c, 0, 42, 110
2, 27452, Note_off_c, 0, 42, 100
2, 27456, Note_on_c, 0, 43, 110
2, 27548, Note_off_c, 0, 43, 100
2, 27552, Note_on_c, 0, 45, 110
2, 27644, Note_off_c, 0, 45, 100
2, 27648, Note_on_c, 0, 46, 110
2, 27740, Note_off_c, 0, 46, 100
2, 27744, Note_on_c, 0, 47, 110
2, 27836, Note_off_c, 0, 47, 100
2, 27840, Note_on_c, 0, 48, 110
2, 27932, Note_off_c, 0, 48, 100
2, 27936, Note_on_c, 0, 49, 110
2, 28028, Note_off_c, 0, 49, 100
2, 28032, Note_on_c, 0, 50, 110
2, 28124, Note_off_c, 0, 50, 100
2, 28128, Note_on_c, 0, 49, 110
2, 28220, Note_off_c, 0, 49, 100
2, 28224, Note_on_c, 0, 50, 110
2, 28316, Note_off_c, 0, 50, 100
2, 28320, Note_on_c, 0, 52, 110
2, 28412, Note_off_c, 0, 52, 100
2, 28416, Note_on_c, 0, 54, 110
2, 28508, Note_off_c, 0, 54, 100
2, 28512, Note_on_c, 0, 50, 110
2, 28604, Note_off_c, 0, 50, 100
2, 28608, Note_on_c, 0, 52, 110
2, 28700, Note_off_c, 0, 52, 100
2, 28704, Note_on_c, 0, 54, 110
2, 28796, Note_off_c, 0, 54, 100
2, 28800, Note_on_c, 0, 55, 110
2, 28892, Note_off_c, 0, 55, 100
2, 28896, Note_on_c, 0, 54, 110
2, 28988, Note_off_c, 0, 54, 100
2, 28992, Note_on_c, 0, 55, 110
2, 29084, Note_off_c, 0, 55, 100
2, 29088, Note_on_c, 0, 57, 110
2, 29180, Note_off_c, 0, 57, 100
2, 29184, Note_on_c, 0, 58, 110
2, 29276, Note_off_c, 0, 58, 100
2, 29280, Note_on_c, 0, 59, 110
2, 29372, Note_off_c, 0, 59, 100
2, 29376, Note_on_c, 0, 60, 110
2, 29468, Note_off_c, 0, 60, 100
2, 29472, Note_on_c, 0, 61, 110
2, 29564, Note_off_c, 0, 61, 100
2, 29568, Note_on_c, 0, 62, 110
2, 29660, Note_off_c, 0, 62, 100
2, 29664, Note_on_c, 0, 62, 110
2, 29756, Note_off_c, 0, 62, 100
2, 29760, Note_on_c, 0, 66, 110
2, 29852, Note_off_c, 0, 66, 100
2, 29856, Note_on_c, 0, 69, 110
2, 29948, Note_off_c, 0, 69, 100
2, 29952, Note_on_c, 0, 74, 110
2, 30044, Note_off_c, 0, 74, 100
2, 30048, Note_on_c, 0, 74, 110
2, 30140, Note_off_c, 0, 74, 100
2, 30144, Note_on_c, 0, 78, 110
2, 30236, Note_off_c, 0, 78, 100
2, 30240, Note_on_c, 0, 81, 110
2, 30332, Note_off_c, 0, 81, 100
2, 30336, Note_on_c, 0, 86, 110
2, 30428, Note_off_c, 0, 86, 100
2, 30432, Note_on_c, 0, 86, 110
2, 30524, Note_off_c, 0, 86, 100
2, 30528, Note_on_c, 0, 81, 110
2, 30620, Note_off_c, 0, 81, 100
2, 30624, Note_on_c, 0, 78, 110
2, 30716, Note_off_c, 0, 78, 100
2, 30720, Note_on_c, 0, 74, 110
2, 30812, Note_off_c, 0, 74, 100
2, 30816, Note_on_c, 0, 74, 110
2, 30908, Note_off_c, 0, 74, 100
2, 30912, Note_on_c, 0, 69, 110
2, 31004, Note_off_c, 0, 69, 100
2, 31008, Note_on_c, 0, 66, 110
2, 31100, Note_off_c, 0, 66, 100
2, 31104, Note_on_c, 0, 62, 110
2, 31196, Note_off_c, 0, 62, 100
2, 31200, Note_on_c, 0, 62, 110
2, 31292, Note_off_c, 0, 62, 100
2, 31296, Note_on_c, 0, 66, 110
2, 31388, Note_off_c, 0, 66, 100
2, 31392, Note_on_c, 0, 69, 110
2, 31484, Note_off_c, 0, 69, 100
2, 31488, Note_on_c, 0, 74, 110
2, 31580, Note_off_c, 0, 74, 100
2, 31584, Note_on_c, 0, 74, 110
2, 31676, Note_off_c, 0, 74, 100
2, 31680, Note_on_c, 0, 78, 110
2, 31772, Note_off_c, 0, 78, 100
2, 31776, Note_on_c, 0, 81, 110
2, 31868, Note_off_c, 0, 81, 100
2, 31872, Note_on_c, 0, 86, 110
2, 31964, Note_off_c, 0, 86, 100
2, 31968, Note_on_c, 0, 86, 110
2, 32060, Note_off_c, 0, 86, 100
2, 32064, Note_on_c, 0, 81, 110
2, 32156, Note_off_c, 0, 81, 100
2, 32160, Note_on_c, 0, 78, 110
2, 32252, Note_off_c, 0, 78, 100
2, 32256, Note_on_c, 0, 74, 110
2, 32348, Note_off_c, 0, 74, 100
2, 32352, Note_on_c, 0, 74, 110
2, 32444, Note_off_c, 0, 74, 100
2, 32448, Note_on_c, 0, 69, 110
2, 32540, Note_off_c, 0, 69, 100
2, 32544, Note_on_c, 0, 66, 110
2, 32636, Note_off_c, 0, 66, 100
2, 32640, Note_on_c, 0, 62, 110
2, 32732, Note_off_c, 0, 62, 100
2, 32736, Note_on_c, 0, 74, 110
2, 32828, Note_off_c, 0, 74, 100
2, 32832, Note_on_c, 0, 69, 110
2, 32924, Note_off_c, 0, 69, 100
2, 32928, Note_on_c, 0, 66, 110
2, 33020, Note_off_c, 0, 66, 100
2, 33024, Note_on_c, 0, 62, 110
2, 33116, Note_off_c, 0, 62, 100
2, 33120, Note_on_c, 0, 62, 110
2, 33212, Note_off_c, 0, 62, 100
2, 33216, Note_on_c, 0, 57, 110
2, 33308, Note_off_c, 0, 57, 100
2, 33312, Note_on_c, 0, 54, 110
2, 33404, Note_off_c, 0, 54, 100
2, 33408, Note_on_c, 0, 50, 110
2, 35516, Note_off_c, 0, 50, 64
2, 35616, Note_on_c, 0, 79, 110
2, 36284, Note_off_c, 0, 79, 64
2, 36288, Note_on_c, 0, 78, 110
2, 36380, Note_off_c, 0, 78, 100
2, 36384, Note_on_c, 0, 76, 110
2, 36476, Note_off_c, 0, 76, 100
2, 36480, Note_on_c, 0, 74, 110
2, 36572, Note_off_c, 0, 74, 100
2, 36576, Note_on_c, 0, 75, 110
2, 36668, Note_off_c, 0, 75, 100
2, 36672, Note_on_c, 0, 76, 110
2, 36764, Note_off_c, 0, 76, 100
2, 36768, Note_on_c, 0, 71, 110
2, 36860, Note_off_c, 0, 71, 100
2, 36864, Note_on_c, 0, 74, 110
2, 36956, Note_off_c, 0, 74, 100
2, 36960, Note_on_c, 0, 72, 110
2, 37052, Note_off_c, 0, 72, 100
2, 37056, Note_on_c, 0, 71, 110
2, 37148, Note_off_c, 0, 71, 100
2, 37152, Note_on_c, 0, 69, 110
2, 37244, Note_off_c, 0, 69, 100
2, 37248, Note_on_c, 0, 67, 110
2, 37628, Note_off_c, 0, 67, 100
2, 37920, Note_on_c, 0, 67, 80
2, 37920, Note_on_c, 0, 62, 80
2, 37920, Note_on_c, 0, 59, 80
2, 38300, Note_off_c, 0, 59, 64
2, 38300, Note_off_c, 0, 62, 64
2, 38300, Note_off_c, 0, 67, 64
2, 38304, Note_on_c, 0, 71, 80
2, 38304, Note_on_c, 0, 62, 80
2, 38304, Note_on_c, 0, 59, 80
2, 38684, Note_off_c, 0, 71, 100
2, 38684, Note_off_c, 0, 62, 100
2, 38684, Note_off_c, 0, 59, 100
2, 38688, Note_on_c, 0, 67, 80
2, 38688, Note_on_c, 0, 62, 80
2, 38688, Note_on_c, 0, 59, 80
2, 38972, Note_off_c, 0, 59, 64
2, 38972, Note_off_c, 0, 62, 64
2, 38972, Note_off_c, 0, 67, 64
2, 39456, Note_on_c, 0, 67, 80
2, 39456, Note_on_c, 0, 62, 80
2, 39456, Note_on_c, 0, 59, 80
2, 39836, Note_off_c, 0, 59, 64
2, 39836, Note_off_c, 0, 62, 64
2, 39836, Note_off_c, 0, 67, 64
2, 39840, Note_on_c, 0, 74, 80
2, 39840, Note_on_c, 0, 71, 80
2, 39840, Note_on_c, 0, 67, 80
2, 39840, Note_on_c, 0, 62, 80
2, 40220, Note_off_c, 0, 74, 100
2, 40220, Note_off_c, 0, 71, 100
2, 40220, Note_off_c, 0, 67, 100
2, 40220, Note_off_c, 0, 62, 100
2, 40224, Note_on_c, 0, 67, 80
2, 40224, Note_on_c, 0, 62, 80
2, 40224, Note_on_c, 0, 59, 80
2, 40508, Note_off_c, 0, 59, 64
2, 40508, Note_off_c, 0, 62, 64
2, 40508, Note_off_c, 0, 67, 64
2, 40992, Note_on_c, 0, 71, 110
2, 40992, Note_on_c, 0, 67, 110
2, 40992, Note_on_c, 0, 62, 110
2, 40992, Note_on_c, 0, 59, 110
2, 41372, Note_off_c, 0, 59, 64
2, 41372, Note_off_c, 0, 62, 64
2, 41372, Note_off_c, 0, 67, 64
2, 41372, Note_off_c, 0, 71, 64
2, 41376, Note_on_c, 0, 79, 110
2, 41376, Note_on_c, 0, 76, 110
2, 41376, Note_on_c, 0, 71, 110
2, 41376, Note_on_c, 0, 67, 110
2, 41756, Note_off_c, 0, 79, 100
2, 41756, Note_off_c, 0, 76, 100
2, 41756, Note_off_c, 0, 71, 100
2, 41756, Note_off_c, 0, 67, 100
2, 41760, Note_on_c, 0, 78, 110
2, 41760, Note_on_c, 0, 70, 110
2, 41760, Note_on_c, 0, 66, 110
2, 41760, Note_on_c, 0, 73, 110
2, 42044, Note_off_c, 0, 66, 64
2, 42044, Note_off_c, 0, 70, 64
2, 42044, Note_off_c, 0, 73, 64
2, 42044, Note_off_c, 0, 78, 64
2, 42624, Note_on_c, 0, 76, 80
2, 42624, Note_on_c, 0, 71, 80
2, 42812, Note_off_c, 0, 76, 100
2, 42812, Note_off_c, 0, 71, 100
2, 43008, Note_on_c, 0, 77, 80
2, 43008, Note_on_c, 0, 71, 80
2, 43196, Note_off_c, 0, 77, 100
2, 43196, Note_off_c, 0, 71, 100
2, 43392, Note_on_c, 0, 78, 80
2, 43392, Note_on_c, 0, 70, 80
2, 43580, Note_off_c, 0, 78, 100
2, 43580, Note_off_c, 0, 70, 100
2, 44064, Note_on_c, 0, 71, 110
2, 44064, Note_on_c, 0, 67, 110
2, 44064, Note_on_c, 0, 62, 110
2, 44064, Note_on_c, 0, 59, 110
2, 44444, Note_off_c, 0, 59, 64
2, 44444, Note_off_c, 0, 62, 64
2, 44444, Note_off_c, 0, 67, 64
2, 44444, Note_off_c, 0, 71, 64
2, 44448, Note_on_c, 0, 79, 110
2, 44448, Note_on_c, 0, 76, 110
2, 44448, Note_on_c, 0, 71, 110
2, 44448, Note_on_c, 0, 67, 110
2, 44828, Note_off_c, 0, 79, 100
2, 44828, Note_off_c, 0, 76, 100
2, 44828, Note_off_c, 0, 71, 100
2, 44828, Note_off_c, 0, 67, 100
2, 44832, Note_on_c, 0, 78, 110
2, 44832, Note_on_c, 0, 70, 110
2, 44832, Note_on_c, 0, 66, 110
2, 44832, Note_on_c, 0, 73, 110
2, 45116, Note_off_c, 0, 66, 64
2, 45116, Note_off_c, 0, 70, 64
2, 45116, Note_off_c, 0, 73, 64
2, 45116, Note_off_c, 0, 78, 64
2, 45696, Note_on_c, 0, 71, 80
2, 45696, Note_on_c, 0, 64, 80
2, 45884, Note_off_c, 0, 71, 100
2, 45884, Note_off_c, 0, 64, 100
2, 46080, Note_on_c, 0, 71, 80
2, 46080, Note_on_c, 0, 65, 80
2, 46268, Note_off_c, 0, 71, 100
2, 46268, Note_off_c, 0, 65, 100
2, 46464, Note_on_c, 0, 70, 80
2, 46464, Note_on_c, 0, 66, 80
2, 46652, Note_off_c, 0, 70, 100
2, 46652, Note_off_c, 0, 66, 100
2, 47232, Note_on_c, 0, 76, 80
2, 47232, Note_on_c, 0, 71, 80
2, 47420, Note_off_c, 0, 76, 100
2, 47420, Note_off_c, 0, 71, 100
2, 47616, Note_on_c, 0, 77, 80
2, 47616, Note_on_c, 0, 71, 80
2, 47804, Note_off_c, 0, 77, 100
2, 47804, Note_off_c, 0, 71, 100
2, 48000, Note_on_c, 0, 78, 80
2, 48000, Note_on_c, 0, 70, 80
2, 48188, Note_off_c, 0, 78, 100
2, 48188, Note_off_c, 0, 70, 100
2, 48768, Note_on_c, 0, 71, 80
2, 48768, Note_on_c, 0, 64, 80
2, 48768, Note_on_c, 0, 59, 80
2, 49052, Note_off_c, 0, 71, 100
2, 49052, Note_off_c, 0, 64, 100
2, 49052, Note_off_c, 0, 59, 100
2, 49152, Note_on_c, 0, 71, 80
2, 49152, Note_on_c, 0, 65, 80
2, 49152, Note_on_c, 0, 59, 80
2, 49436, Note_off_c, 0, 71, 100
2, 49436, Note_off_c, 0, 65, 100
2, 49436, Note_off_c, 0, 59, 100
2, 49536, Note_on_c, 0, 70, 80
2, 49536, Note_on_c, 0, 66, 80
2, 49536, Note_on_c, 0, 58, 80
2, 49628, Note_off_c, 0, 70, 100
2, 49628, Note_off_c, 0, 66, 100
2, 49628, Note_off_c, 0, 58, 100
2, 49632, Note_on_c, 0, 66, 81
2, 49724, Note_off_c, 0, 66, 100
2, 49728, Note_on_c, 0, 65, 82
2, 49820, Note_off_c, 0, 65, 100
2, 49824, Note_on_c, 0, 66, 83
2, 49916, Note_off_c, 0, 66, 100
2, 49920, Note_on_c, 0, 65, 85
2, 50012, Note_off_c, 0, 65, 100
2, 50016, Note_on_c, 0, 66, 86
2, 50108, Note_off_c, 0, 66, 100
2, 50112, Note_on_c, 0, 65, 87
2, 50204, Note_off_c, 0, 65, 100
2, 50208, Note_on_c, 0, 66, 89
2, 50300, Note_off_c, 0, 66, 100
2, 50304, Note_on_c, 0, 65, 90
2, 50396, Note_off_c, 0, 65, 100
2, 50400, Note_on_c, 0, 66, 91
2, 50492, Note_off_c, 0, 66, 100
2, 50496, Note_on_c, 0, 65, 93
2, 50588, Note_off_c, 0, 65, 100
2, 50592, Note_on_c, 0, 66, 94
2, 50684, Note_off_c, 0, 66, 100
2, 50688, Note_on_c, 0, 65, 95
2, 50780, Note_off_c, 0, 65, 100
2, 50784, Note_on_c, 0, 66, 97
2, 50876, Note_off_c, 0, 66, 100
2, 50880, Note_on_c, 0, 68, 98
2, 50972, Note_off_c, 0, 68, 100
2, 50976, Note_on_c, 0, 66, 99
2, 51068, Note_off_c, 0, 66, 100
2, 51072, Note_on_c, 0, 66, 80
2, 51260, Note_off_c, 0, 66, 100
2, 51264, Note_on_c, 0, 75, 80
2, 51644, Note_off_c, 0, 75, 100
2, 51648, Note_on_c, 0, 73, 80
2, 51836, Note_off_c, 0, 73, 100
2, 51840, Note_on_c, 0, 71, 80
2, 52028, Note_off_c, 0, 71, 100
2, 52032, Note_on_c, 0, 75, 80
2, 52412, Note_off_c, 0, 75, 100
2, 52416, Note_on_c, 0, 71, 80
2, 52604, Note_off_c, 0, 71, 100
2, 52608, Note_on_c, 0, 70, 80
2, 52796, Note_off_c, 0, 70, 100
2, 52800, Note_on_c, 0, 78, 80
2, 53180, Note_off_c, 0, 78, 100
2, 53184, Note_on_c, 0, 78, 80
2, 53564, Note_off_c, 0, 78, 64
2, 53568, Note_on_c, 0, 80, 80
2, 53660, Note_off_c, 0, 80, 100
2, 53664, Note_on_c, 0, 78, 80
2, 53756, Note_off_c, 0, 78, 100
2, 53760, Note_on_c, 0, 76, 80
2, 53852, Note_off_c, 0, 76, 100
2, 53856, Note_on_c, 0, 75, 80
2, 53948, Note_off_c, 0, 75, 100
2, 53952, Note_on_c, 0, 76, 80
2, 54044, Note_off_c, 0, 76, 100
2, 54048, Note_on_c, 0, 73, 80
2, 54140, Note_off_c, 0, 73, 100
2, 54144, Note_on_c, 0, 71, 80
2, 54332, Note_off_c, 0, 71, 100
2, 54336, Note_on_c, 0, 75, 80
2, 54716, Note_off_c, 0, 75, 100
2, 54720, Note_on_c, 0, 73, 80
2, 54908, Note_off_c, 0, 73, 100
2, 54912, Note_on_c, 0, 71, 80
2, 55100, Note_off_c, 0, 71, 100
2, 55104, Note_on_c, 0, 75, 80
2, 55484, Note_off_c, 0, 75, 100
2, 55488, Note_on_c, 0, 71, 80
2, 55676, Note_off_c, 0, 71, 100
2, 55680, Note_on_c, 0, 70, 80
2, 55868, Note_off_c, 0, 70, 100
2, 55872, Note_on_c, 0, 73, 80
2, 55964, Note_off_c, 0, 73, 100
2, 55968, Note_on_c, 0, 71, 80
2, 56060, Note_off_c, 0, 71, 100
2, 56064, Note_on_c, 0, 70, 80
2, 56156, Note_off_c, 0, 70, 100
2, 56160, Note_on_c, 0, 71, 80
2, 56252, Note_off_c, 0, 71, 100
2, 56256, Note_on_c, 0, 73, 80
2, 56348, Note_off_c, 0, 73, 100
2, 56352, Note_on_c, 0, 70, 80
2, 56444, Note_off_c, 0, 70, 100
2, 56448, Note_on_c, 0, 71, 80
2, 56636, Note_off_c, 0, 71, 100
2, 57216, Control_c, 0, 64, 127
2, 57216, Note_on_c, 0, 62, 100
2, 57216, Note_on_c, 0, 59, 100
2, 57308, Note_off_c, 0, 62, 100
2, 57308, Note_off_c, 0, 59, 100
2, 57312, Note_on_c, 0, 66, 100
2, 57404, Note_off_c, 0, 66, 100
2, 57408, Note_on_c, 0, 62, 100
2, 57408, Note_on_c, 0, 59, 100
2, 57500, Note_off_c, 0, 62, 100
2, 57500, Note_off_c, 0, 59, 100
2, 57504, Note_on_c, 0, 66, 100
2, 57592, Control_c, 0, 64, 0
2, 57596, Note_off_c, 0, 66, 100
2, 57600, Control_c, 0, 64, 127
2, 57600, Note_on_c, 0, 62, 100
2, 57600, Note_on_c, 0, 59, 100
2, 57692, Note_off_c, 0, 62, 100
2, 57692, Note_off_c, 0, 59, 100
2, 57696, Note_on_c, 0, 66, 100
2, 57788, Note_off_c, 0, 66, 100
2, 57792, Note_on_c, 0, 62, 100
2, 57792, Note_on_c, 0, 59, 100
2, 57884, Note_off_c, 0, 62, 100
2, 57884, Note_off_c, 0, 59, 100
2, 57888, Note_on_c, 0, 66, 100
2, 57976, Control_c, 0, 64, 0
2, 57980, Note_off_c, 0, 66, 100
2, 57984, Control_c, 0, 64, 127
2, 57984, Note_on_c, 0, 62, 100
2, 57984, Note_on_c, 0, 59, 100
2, 58076, Note_off_c, 0, 62, 100
2, 58076, Note_off_c, 0, 59, 100
2, 58080, Note_on_c, 0, 66, 100
2, 58172, Note_off_c, 0, 66, 100
2, 58176, Note_on_c, 0, 62, 100
2, 58176, Note_on_c, 0, 59, 100
2, 58268, Note_off_c, 0, 62, 100
2, 58268, Note_off_c, 0, 59, 100
2, 58272, Note_on_c, 0, 66, 100
2, 58360, Control_c, 0, 64, 0
2, 58364, Note_off_c, 0, 66, 100
2, 58368, Control_c, 0, 64, 127
2, 58368, Note_on_c, 0, 62, 100
2, 58368, Note_on_c, 0, 59, 100
2, 58460, Note_off_c, 0, 62, 100
2, 58460, Note_off_c, 0, 59, 100
2, 58464, Note_on_c, 0, 66, 100
2, 58556, Note_off_c, 0, 66, 100
2, 58560, Note_on_c, 0, 62, 100
2, 58560, Note_on_c, 0, 59, 100
2, 58652, Note_off_c, 0, 62, 100
2, 58652, Note_off_c, 0, 59, 100
2, 58656, Note_on_c, 0, 66, 100
2, 58744, Control_c, 0, 64, 0
2, 58748, Note_off_c, 0, 66, 100
2, 58752, Control_c, 0, 64, 127
2, 58752, Note_on_c, 0, 61, 100
2, 58752, Note_on_c, 0, 64, 100
2, 58844, Note_off_c, 0, 61, 100
2, 58844, Note_off_c, 0, 64, 100
2, 58848, Note_on_c, 0, 66, 100
2, 58940, Note_off_c, 0, 66, 100
2, 58944, Note_on_c, 0, 61, 100
2, 58944, Note_on_c, 0, 64, 100
2, 59036, Note_off_c, 0, 61, 100
2, 59036, Note_off_c, 0, 64, 100
2, 59040, Note_on_c, 0, 66, 100
2, 59128, Control_c, 0, 64, 0
2, 59132, Note_off_c, 0, 66, 100
2, 59136, Control_c, 0, 64, 127
2, 59136, Note_on_c, 0, 58, 100
2, 59136, Note_on_c, 0, 61, 100
2, 59228, Note_off_c, 0, 58, 100
2, 59228, Note_off_c, 0, 61, 100
2, 59232, Note_on_c, 0, 66, 100
2, 59324, Note_off_c, 0, 66, 100
2, 59328, Note_on_c, 0, 61, 100
2, 59328, Note_on_c, 0, 58, 100
2, 59420, Note_off_c, 0, 61, 100
2, 59420, Note_off_c, 0, 58, 100
2, 59424, Note_on_c, 0, 66, 100
2, 59512, Control_c, 0, 64, 0
2, 59516, Note_off_c, 0, 66, 100
2, 59520, Control_c, 0, 64, 127
2, 59520, Note_on_c, 0, 58, 100
2, 59520, Note_on_c, 0, 61, 100
2, 59612, Note_off_c, 0, 58, 100
2, 59612, Note_off_c, 0, 61, 100
2, 59616, Note_on_c, 0, 66, 100
2, 59708, Note_off_c, 0, 66, 100
2, 59712, Note_on_c, 0, 61, 100
2, 59712, Note_on_c, 0, 58, 100
2, 59804, Note_off_c, 0, 61, 100
2, 59804, Note_off_c, 0, 58, 100
2, 59808, Note_on_c, 0, 66, 100
2, 59896, Control_c, 0, 64, 0
2, 59900, Note_off_c, 0, 66, 100
2, 59904, Control_c, 0, 64, 127
2, 59904, Note_on_c, 0, 58, 100
2, 59904, Note_on_c, 0, 61, 100
2, 59996, Note_off_c, 0, 58, 100
2, 59996, Note_off_c, 0, 61, 100
2, 60000, Note_on_c, 0, 66, 100
2, 60092, Note_off_c, 0, 66, 100
2, 60096, Note_on_c, 0, 61, 100
2, 60096, Note_on_c, 0, 58, 100
2, 60188, Note_off_c, 0, 61, 100
2, 60188, Note_off_c, 0, 58, 100
2, 60192, Note_on_c, 0, 66, 100
2, 60280, Control_c, 0, 64, 0
2, 60284, Note_off_c, 0, 66, 100
2, 60288, Control_c, 0, 64, 127
2, 60288, Note_on_c, 0, 62, 100
2, 60288, Note_on_c, 0, 59, 100
2, 60380, Note_off_c, 0, 62, 100
2, 60380, Note_off_c, 0, 59, 100
2, 60384, Note_on_c, 0, 66, 100
2, 60476, Note_off_c, 0, 66, 100
2, 60480, Note_on_c, 0, 62, 100
2, 60480, Note_on_c, 0, 59, 100
2, 60572, Note_off_c, 0, 62, 100
2, 60572, Note_off_c, 0, 59, 100
2, 60576, Note_on_c, 0, 66, 100
2, 60664, Control_c, 0, 64, 0
2, 60668, Note_off_c, 0, 66, 100
2, 60672, Control_c, 0, 64, 127
2, 60672, Note_on_c, 0, 65, 100
2, 60672, Note_on_c, 0, 59, 100
2, 60764, Note_off_c, 0, 65, 100
2, 60764, Note_off_c, 0, 59, 100
2, 60768, Note_on_c, 0, 68, 100
2, 60860, Note_off_c, 0, 68, 100
2, 60864, Note_on_c, 0, 65, 100
2, 60864, Note_on_c, 0, 59, 100
2, 60956, Note_off_c, 0, 65, 100
2, 60956, Note_off_c, 0, 59, 100
2, 60960, Note_on_c, 0, 68, 100
2, 61048, Control_c, 0, 64, 0
2, 61052, Note_off_c, 0, 68, 100
2, 61056, Control_c, 0, 64, 127
2, 61056, Note_on_c, 0, 64, 100
2, 61056, Note_on_c, 0, 67, 100
2, 61148, Note_off_c, 0, 64, 100
2, 61148, Note_off_c, 0, 67, 100
2, 61152, Note_on_c, 0, 69, 100
2, 61244, Note_off_c, 0, 69, 100
2, 61248, Note_on_c, 0, 64, 100
2, 61248, Note_on_c, 0, 67, 100
2, 61340, Note_off_c, 0, 64, 100
2, 61340, Note_off_c, 0, 67, 100
2, 61344, Note_on_c, 0, 69, 100
2, 61432, Control_c, 0, 64, 0
2, 61436, Note_off_c, 0, 69, 100
2, 61440, Control_c, 0, 64, 127
2, 61440, Note_on_c, 0, 64, 100
2, 61440, Note_on_c, 0, 67, 100
2, 61532, Note_off_c, 0, 64, 100
2, 61532, Note_off_c, 0, 67, 100
2, 61536, Note_on_c, 0, 69, 100
2, 61628, Note_off_c, 0, 69, 100
2, 61632, Note_on_c, 0, 64, 100
2, 61632, Note_on_c, 0, 67, 100
2, 61724, Note_off_c, 0, 64, 100
2, 61724, Note_off_c, 0, 67, 100
2, 61728, Note_on_c, 0, 69, 100
2, 61816, Control_c, 0, 64, 0
2, 61820, Note_off_c, 0, 69, 100
2, 61824, Control_c, 0, 64, 127
2, 61824, Note_on_c, 0, 66, 100
2, 61824, Note_on_c, 0, 62, 100
2, 61916, Note_off_c, 0, 66, 100
2, 61916, Note_off_c, 0, 62, 100
2, 61920, Note_on_c, 0, 69, 100
2, 62012, Note_off_c, 0, 69, 100
2, 62016, Note_on_c, 0, 66, 100
2, 62016, Note_on_c, 0, 62, 100
2, 62108, Note_off_c, 0, 66, 100
2, 62108, Note_off_c, 0, 62, 100
2, 62112, Note_on_c, 0, 69, 100
2, 62200, Control_c, 0, 64, 0
2, 62204, Note_off_c, 0, 69, 100
2, 62208, Control_c, 0, 64, 127
2, 62208, Note_on_c, 0, 69, 100
2, 62208, Note_on_c, 0, 63, 100
2, 62300, Note_off_c, 0, 69, 100
2, 62300, Note_off_c, 0, 63, 100
2, 62304, Note_on_c, 0, 72, 100
2, 62396, Note_off_c, 0, 72, 100
2, 62400, Note_on_c, 0, 69, 100
2, 62400, Note_on_c, 0, 63, 100
2, 62492, Note_off_c, 0, 69, 100
2, 62492, Note_off_c, 0, 63, 100
2, 62496, Note_on_c, 0, 72, 100
2, 62584, Control_c, 0, 64, 0
2, 62588, Note_off_c, 0, 72, 100
2, 62592, Control_c, 0, 64, 127
2, 62592, Note_on_c, 0, 68, 100
2, 62592, Note_on_c, 0, 71, 100
2, 62684, Note_off_c, 0, 68, 100
2, 62684, Note_off_c, 0, 71, 100
2, 62688, Note_on_c, 0, 73, 100
2, 62780, Note_off_c, 0, 73, 100
2, 62784, Note_on_c, 0, 68, 100
2, 62784, Note_on_c, 0, 71, 100
2, 62876, Note_off_c, 0, 68, 100
2, 62876, Note_off_c, 0, 71, 100
2, 62880, Note_on_c, 0, 73, 100
2, 62968, Control_c, 0, 64, 0
2, 62972, Note_off_c, 0, 73, 100
2, 62976, Control_c, 0, 64, 127
2, 62976, Note_on_c, 0, 68, 100
2, 62976, Note_on_c, 0, 71, 100
2, 63068, Note_off_c, 0, 68, 100
2, 63068, Note_off_c, 0, 71, 100
2, 63072, Note_on_c, 0, 73, 100
2, 63164, Note_off_c, 0, 73, 100
2, 63168, Note_on_c, 0, 68, 100
2, 63168, Note_on_c, 0, 71, 100
2, 63260, Note_off_c, 0, 68, 100
2, 63260, Note_off_c, 0, 71, 100
2, 63264, Note_on_c, 0, 73, 100
2, 63352, Control_c, 0, 64, 0
2, 63356, Note_off_c, 0, 73, 100
2, 63360, Control_c, 0, 64, 127
2, 63360, Note_on_c, 0, 66, 100
2, 63360, Note_on_c, 0, 69, 100
2, 63452, Note_off_c, 0, 66, 100
2, 63452, Note_off_c, 0, 69, 100
2, 63456, Note_on_c, 0, 73, 100
2, 63548, Note_off_c, 0, 73, 100
2, 63552, Note_on_c, 0, 66, 100
2, 63552, Note_on_c, 0, 69, 100
2, 63644, Note_off_c, 0, 66, 100
2, 63644, Note_off_c, 0, 69, 100
2, 63648, Note_on_c, 0, 73, 100
2, 63736, Control_c, 0, 64, 0
2, 63740, Note_off_c, 0, 73, 100
2, 63744, Control_c, 0, 64, 127
2, 63744, Note_on_c, 0, 66, 100
2, 63744, Note_on_c, 0, 69, 100
2, 63836, Note_off_c, 0, 66, 100
2, 63836, Note_off_c, 0, 69, 100
2, 63840, Note_on_c, 0, 73, 100
2, 63932, Note_off_c, 0, 73, 100
2, 63936, Note_on_c, 0, 66, 100
2, 63936, Note_on_c, 0, 69, 100
2, 64028, Note_off_c, 0, 66, 100
2, 64028, Note_off_c, 0, 69, 100
2, 64032, Note_on_c, 0, 73, 100
2, 64120, Control_c, 0, 64, 0
2, 64124, Note_off_c, 0, 73, 100
2, 64128, Control_c, 0, 64, 127
2, 64128, Note_on_c, 0, 66, 100
2, 64220, Note_off_c, 0, 66, 100
2, 64224, Note_on_c, 0, 75, 100
2, 64316, Note_off_c, 0, 75, 100
2, 64320, Note_on_c, 0, 71, 100
2, 64412, Note_off_c, 0, 71, 100
2, 64416, Note_on_c, 0, 75, 100
2, 64504, Control_c, 0, 64, 0
2, 64508, Note_off_c, 0, 75, 100
2, 64512, Control_c, 0, 64, 127
2, 64512, Note_on_c, 0, 67, 100
2, 64604, Note_off_c, 0, 67, 100
2, 64608, Note_on_c, 0, 76, 100
2, 64700, Note_off_c, 0, 76, 100
2, 64704, Note_on_c, 0, 71, 100
2, 64796, Note_off_c, 0, 71, 100
2, 64800, Note_on_c, 0, 76, 100
2, 64888, Control_c, 0, 64, 0
2, 64892, Note_off_c, 0, 76, 100
2, 64896, Control_c, 0, 64, 127
2, 64896, Note_on_c, 0, 64, 100
2, 64988, Note_off_c, 0, 64, 100
2, 64992, Note_on_c, 0, 73, 100
2, 65084, Note_off_c, 0, 73, 100
2, 65088, Note_on_c, 0, 69, 100
2, 65180, Note_off_c, 0, 69, 100
2, 65184, Note_on_c, 0, 73, 100
2, 65272, Control_c, 0, 64, 0
2, 65276, Note_off_c, 0, 73, 100
2, 65280, Control_c, 0, 64, 127
2, 65280, Note_on_c, 0, 66, 100
2, 65372, Note_off_c, 0, 66, 100
2, 65376, Note_on_c, 0, 74, 100
2, 65468, Note_off_c, 0, 74, 100
2, 65472, Note_on_c, 0, 69, 100
2, 65564, Note_off_c, 0, 69, 100
2, 65568, Note_on_c, 0, 74, 100
2, 65656, Control_c, 0, 64, 0
2, 65660, Note_off_c, 0, 74, 100
2, 65664, Control_c, 0, 64, 127
2, 65664, Note_on_c, 0, 62, 100
2, 65756, Note_off_c, 0, 62, 100
2, 65760, Note_on_c, 0, 71, 100
2, 65852, Note_off_c, 0, 71, 100
2, 65856, Note_on_c, 0, 67, 100
2, 65948, Note_off_c, 0, 67, 100
2, 65952, Note_on_c, 0, 71, 100
2, 66040, Control_c, 0, 64, 0
2, 66044, Note_off_c, 0, 71, 100
2, 66048, Control_c, 0, 64, 127
2, 66048, Note_on_c, 0, 64, 100
2, 66140, Note_off_c, 0, 64, 100
2, 66144, Note_on_c, 0, 73, 100
2, 66236, Note_off_c, 0, 73, 100
2, 66240, Note_on_c, 0, 67, 100
2, 66332, Note_off_c, 0, 67, 100
2, 66336, Note_on_c, 0, 73, 100
2, 66424, Control_c, 0, 64, 0
2, 66428, Note_off_c, 0, 73, 100
2, 66432, Control_c, 0, 64, 127
2, 66432, Note_on_c, 0, 61, 100
2, 66524, Note_off_c, 0, 61, 100
2, 66528, Note_on_c, 0, 70, 100
2, 66620, Note_off_c, 0, 70, 100
2, 66624, Note_on_c, 0, 66, 100
2, 66716, Note_off_c, 0, 66, 100
2, 66720, Note_on_c, 0, 70, 100
2, 66808, Control_c, 0, 64, 0
2, 66812, Note_off_c, 0, 70, 100
2, 66816, Control_c, 0, 64, 127
2, 66816, Note_on_c, 0, 59, 100
2, 66908, Note_off_c, 0, 59, 100
2, 66912, Note_on_c, 0, 71, 100
2, 67004, Note_off_c, 0, 71, 100
2, 67008, Note_on_c, 0, 59, 100
2, 67100, Note_off_c, 0, 59, 100
2, 67104, Note_on_c, 0, 71, 100
2, 67192, Control_c, 0, 64, 0
2, 67196, Note_off_c, 0, 71, 100
2, 67200, Control_c, 0, 64, 127
2, 67200, Note_on_c, 0, 67, 100
2, 67292, Note_off_c, 0, 67, 100
2, 67296, Note_on_c, 0, 79, 100
2, 67388, Note_off_c, 0, 79, 100
2, 67392, Note_on_c, 0, 67, 100
2, 67484, Note_off_c, 0, 67, 100
2, 67488, Note_on_c, 0, 79, 100
2, 67576, Control_c, 0, 64, 0
2, 67580, Note_off_c, 0, 79, 100
2, 67584, Control_c, 0, 64, 127
2, 67584, Note_on_c, 0, 61, 100
2, 67676, Note_off_c, 0, 61, 100
2, 67680, Note_on_c, 0, 73, 100
2, 67772, Note_off_c, 0, 73, 100
2, 67776, Note_on_c, 0, 66, 100
2, 67868, Note_off_c, 0, 66, 100
2, 67872, Note_on_c, 0, 78, 100
2, 67960, Control_c, 0, 64, 0
2, 67964, Note_off_c, 0, 78, 100
2, 67968, Note_on_c, 0, 71, 100
2, 67968, Note_on_c, 0, 59, 100
2, 68156, Note_off_c, 0, 71, 100
2, 68156, Note_off_c, 0, 59, 100
2, 68160, Note_on_c, 0, 74, 80
2, 68540, Note_off_c, 0, 74, 100
2, 68544, Note_on_c, 0, 74, 80
2, 68732, Note_off_c, 0, 74, 100
2, 68736, Note_on_c, 0, 73, 80
2, 68924, Note_off_c, 0, 73, 100
2, 68928, Note_on_c, 0, 76, 80
2, 69020, Note_off_c, 0, 76, 100
2, 69024, Note_on_c, 0, 74, 80
2, 69116, Note_off_c, 0, 74, 100
2, 69120, Note_on_c, 0, 73, 80
2, 69212, Note_off_c, 0, 73, 100
2, 69216, Note_on_c, 0, 74, 80
2, 69308, Note_off_c, 0, 74, 100
2, 69312, Note_on_c, 0, 76, 80
2, 69404, Note_off_c, 0, 76, 100
2, 69408, Note_on_c, 0, 73, 80
2, 69500, Note_off_c, 0, 73, 100
2, 69504, Note_on_c, 0, 74, 80
2, 69692, Note_off_c, 0, 74, 100
2, 69696, Note_on_c, 0, 78, 80
2, 70076, Note_off_c, 0, 78, 100
2, 70080, Note_on_c, 0, 78, 80
2, 70268, Note_off_c, 0, 78, 100
2, 70272, Note_on_c, 0, 77, 80
2, 70460, Note_off_c, 0, 77, 100
2, 70464, Note_on_c, 0, 80, 80
2, 70556, Note_off_c, 0, 80, 100
2, 70560, Note_on_c, 0, 78, 80
2, 70652, Note_off_c, 0, 78, 100
2, 70656, Note_on_c, 0, 77, 80
2, 70748, Note_off_c, 0, 77, 100
2, 70752, Note_on_c, 0, 78, 80
2, 70844, Note_off_c, 0, 78, 100
2, 70848, Note_on_c, 0, 80, 80
2, 70940, Note_off_c, 0, 80, 100
2, 70944, Note_on_c, 0, 77, 80
2, 71036, Note_off_c, 0, 77, 100
2, 71040, Note_on_c, 0, 78, 80
2, 71228, Note_off_c, 0, 78, 100
2, 71232, Note_on_c, 0, 81, 80
2, 71612, Note_off_c, 0, 81, 100
2, 71616, Note_on_c, 0, 81, 80
2, 71804, Note_off_c, 0, 81, 100
2, 71808, Note_on_c, 0, 81, 80
2, 71904, Note_on_c, 0, 71, 81
2, 71996, Note_off_c, 0, 71, 100
2, 72000, Note_on_c, 0, 70, 82
2, 72092, Note_off_c, 0, 70, 100
2, 72096, Note_on_c, 0, 71, 83
2, 72188, Note_off_c, 0, 71, 100
2, 72192, Note_on_c, 0, 71, 84
2, 72284, Note_off_c, 0, 81, 100
2, 72288, Note_on_c, 0, 79, 86
2, 72380, Note_off_c, 0, 79, 100
2, 72384, Note_on_c, 0, 78, 87
2, 72476, Note_off_c, 0, 78, 100
2, 72480, Note_on_c, 0, 79, 88
2, 72572, Note_off_c, 0, 79, 100
2, 72576, Note_on_c, 0, 79, 89
2, 72668, Note_off_c, 0, 71, 64
2, 72672, Note_on_c, 0, 69, 91
2, 72764, Note_off_c, 0, 69, 100
2, 72768, Note_on_c, 0, 68, 92
2, 72860, Note_off_c, 0, 68, 100
2, 72864, Note_on_c, 0, 69, 93
2, 72956, Note_off_c, 0, 69, 100
2, 72960, Note_on_c, 0, 69, 94
2, 73052, Note_off_c, 0, 79, 100
2, 73056, Note_on_c, 0, 78, 96
2, 73148, Note_off_c, 0, 78, 100
2, 73152, Note_on_c, 0, 77, 97
2, 73244, Note_off_c, 0, 77, 100
2, 73248, Note_on_c, 0, 78, 98
2, 73340, Note_off_c, 0, 78, 100
2, 73344, Note_on_c, 0, 78, 99
2, 73436, Note_off_c, 0, 69, 64
2, 73440, Note_on_c, 0, 67, 101
2, 73532, Note_off_c, 0, 67, 100
2, 73536, Note_on_c, 0, 66, 102
2, 73628, Note_off_c, 0, 66, 100
2, 73632, Note_on_c, 0, 67, 103
2, 73724, Note_off_c, 0, 67, 100
2, 73728, Note_on_c, 0, 67, 104
2, 73820, Note_off_c, 0, 78, 100
2, 73824, Note_on_c, 0, 76, 106
2, 73916, Note_off_c, 0, 76, 100
2, 73920, Note_on_c, 0, 78, 107
2, 74012, Note_off_c, 0, 78, 100
2, 74016, Note_on_c, 0, 76, 108
2, 74108, Note_off_c, 0, 67, 100
2, 74112, Note_on_c, 0, 66, 110
2, 74204, Note_off_c, 0, 76, 64
2, 74208, Note_on_c, 0, 76, 110
2, 74300, Note_off_c, 0, 66, 100
2, 74300, Note_off_c, 0, 76, 100
2, 74304, Note_on_c, 0, 78, 110
2, 74396, Note_off_c, 0, 78, 100
2, 74400, Note_on_c, 0, 76, 110
2, 74492, Note_off_c, 0, 76, 100
2, 74496, Note_on_c, 0, 66, 110
2, 74588, Note_off_c, 0, 66, 100
2, 74592, Note_on_c, 0, 74, 110
2, 74684, Note_off_c, 0, 74, 100
2, 74688, Note_on_c, 0, 76, 110
2, 74780, Note_off_c, 0, 76, 100
2, 74784, Note_on_c, 0, 74, 110
2, 74876, Note_off_c, 0, 74, 100
2, 74880, Note_on_c, 0, 64, 110
2, 74880, Note_on_c, 0, 67, 110
2, 74972, Note_off_c, 0, 67, 100
2, 74976, Note_on_c, 0, 73, 110
2, 75068, Note_off_c, 0, 64, 100
2, 75068, Note_off_c, 0, 73, 100
2, 75072, Note_on_c, 0, 74, 110
2, 75164, Note_off_c, 0, 74, 100
2, 75168, Note_on_c, 0, 73, 110
2, 75260, Note_off_c, 0, 73, 100
2, 75264, Note_on_c, 0, 61, 110
2, 75264, Note_on_c, 0, 64, 110
2, 75356, Note_off_c, 0, 64, 100
2, 75360, Note_on_c, 0, 70, 110
2, 75452, Note_off_c, 0, 61, 100
2, 75452, Note_off_c, 0, 70, 100
2, 75456, Note_on_c, 0, 71, 110
2, 75548, Note_off_c, 0, 71, 100
2, 75552, Note_on_c, 0, 70, 110
2, 75644, Note_off_c, 0, 70, 100
2, 75648, Note_on_c, 0, 71, 110
2, 75840, Note_on_c, 0, 66, 80
2, 75840, Note_on_c, 0, 62, 80
2, 76028, Note_off_c, 0, 71, 100
2, 76028, Note_off_c, 0, 66, 100
2, 76028, Note_off_c, 0, 62, 100
2, 76032, Note_on_c, 0, 66, 80
2, 76032, Note_on_c, 0, 62, 80
2, 76220, Note_off_c, 0, 66, 100
2, 76220, Note_off_c, 0, 62, 100
2, 76224, Note_on_c, 0, 66, 80
2, 76224, Note_on_c, 0, 62, 80
2, 76224, Note_on_c, 0, 74, 80
2, 76412, Note_off_c, 0, 66, 100
2, 76412, Note_off_c, 0, 62, 100
2, 76412, Note_off_c, 0, 74, 100
2, 76416, Note_on_c, 0, 66, 80
2, 76416, Note_on_c, 0, 64, 80
2, 76416, Note_on_c, 0, 73, 80
2, 76604, Note_off_c, 0, 66, 100
2, 76604, Note_off_c, 0, 64, 100
2, 76608, Note_on_c, 0, 66, 80
2, 76608, Note_on_c, 0, 64, 80
2, 76796, Note_off_c, 0, 66, 100
2, 76796, Note_off_c, 0, 64, 100
2, 76800, Note_on_c, 0, 66, 80
2, 76800, Note_on_c, 0, 64, 80
2, 76988, Note_off_c, 0, 73, 100
2, 76988, Note_off_c, 0, 66, 100
2, 76988, Note_off_c, 0, 64, 100
2, 76992, Note_on_c, 0, 70, 80
2, 76992, Note_on_c, 0, 66, 80
2, 76992, Note_on_c, 0, 64, 80
2, 77180, Note_off_c, 0, 70, 100
2, 77180, Note_off_c, 0, 66, 100
2, 77180, Note_off_c, 0, 64, 100
2, 77184, Note_on_c, 0, 71, 80
2, 77376, Note_on_c, 0, 66, 80
2, 77376, Note_on_c, 0, 63, 80
2, 77564, Note_off_c, 0, 71, 100
2, 77564, Note_off_c, 0, 66, 100
2, 77564, Note_off_c, 0, 63, 100
2, 77568, Note_on_c, 0, 66, 80
2, 77568, Note_on_c, 0, 63, 80
2, 77756, Note_off_c, 0, 66, 100
2, 77756, Note_off_c, 0, 63, 100
2, 77760, Note_on_c, 0, 66, 80
2, 77760, Note_on_c, 0, 63, 80
2, 77760, Note_on_c, 0, 75, 80
2, 77948, Note_off_c, 0, 66, 100
2, 77948, Note_off_c, 0, 63, 100
2, 77948, Note_off_c, 0, 75, 100
2, 77952, Note_on_c, 0, 66, 80
2, 77952, Note_on_c, 0, 64, 80
2, 77952, Note_on_c, 0, 73, 80
2, 78140, Note_off_c, 0, 66, 100
2, 78140, Note_off_c, 0, 64, 100
2, 78144, Note_on_c, 0, 66, 77
2, 78144, Note_on_c, 0, 64, 77
2, 78332, Note_off_c, 0, 66, 100
2, 78332, Note_off_c, 0, 64, 100
2, 78336, Note_on_c, 0, 66, 74
2, 78336, Note_on_c, 0, 64, 74
2, 78524, Note_off_c, 0, 73, 100
2, 78524, Note_off_c, 0, 66, 100
2, 78524, Note_off_c, 0, 64, 100
2, 78528, Note_on_c, 0, 70, 71
2, 78528, Note_on_c, 0, 66, 71
2, 78528, Note_on_c, 0, 64, 71
2, 78716, Note_off_c, 0, 70, 100
2, 78716, Note_off_c, 0, 66, 100
2, 78716, Note_off_c, 0, 64, 100
2, 78720, Note_on_c, 0, 71, 70
2, 78912, Note_on_c, 0, 66, 70
2, 78912, Note_on_c, 0, 62, 70
2, 79100, Note_off_c, 0, 71, 100
2, 79100, Note_off_c, 0, 66, 100
2, 79100, Note_off_c, 0, 62, 100
2, 79104, Note_on_c, 0, 66, 70
2, 79104, Note_on_c, 0, 62, 70
2, 79292, Note_off_c, 0, 66, 100
2, 79292, Note_off_c, 0, 62, 100
2, 79296, Note_on_c, 0, 66, 70
2, 79296, Note_on_c, 0, 62, 70
2, 79296, Note_on_c, 0, 74, 70
2, 79484, Note_off_c, 0, 66, 100
2, 79484, Note_off_c, 0, 62, 100
2, 79484, Note_off_c, 0, 74, 100
2, 79488, Note_on_c, 0, 66, 70
2, 79488, Note_on_c, 0, 64, 70
2, 79488, Note_on_c, 0, 73, 70
2, 79676, Note_off_c, 0, 66, 100
2, 79676, Note_off_c, 0, 64, 100
2, 79680, Note_on_c, 0, 66, 70
2, 79680, Note_on_c, 0, 64, 70
2, 79868, Note_off_c, 0, 66, 100
2, 79868, Note_off_c, 0, 64, 100
2, 79872, Note_on_c, 0, 66, 70
2, 79872, Note_on_c, 0, 64, 70
2, 80060, Note_off_c, 0, 73, 100
2, 80060, Note_off_c, 0, 66, 100
2, 80060, Note_off_c, 0, 64, 100
2, 80064, Note_on_c, 0, 70, 70
2, 80064, Note_on_c, 0, 66, 70
2, 80064, Note_on_c, 0, 64, 70
2, 80252, Note_off_c, 0, 70, 100
2, 80252, Note_off_c, 0, 66, 100
2, 80252, Note_off_c, 0, 64, 100
2, 80256, Note_on_c, 0, 71, 70
2, 80256, Note_on_c, 0, 66, 70
2, 80256, Note_on_c, 0, 62, 70
2, 80444, Note_off_c, 0, 71, 100
2, 80444, Note_off_c, 0, 66, 100
2, 80444, Note_off_c, 0, 62, 100
2, 80448, Note_on_c, 0, 74, 71
2, 80448, Note_on_c, 0, 66, 71
2, 80448, Note_on_c, 0, 62, 71
2, 80636, Note_off_c, 0, 74, 100
2, 80636, Note_off_c, 0, 66, 100
2, 80636, Note_off_c, 0, 62, 100
2, 80640, Note_on_c, 0, 73, 72
2, 80640, Note_on_c, 0, 66, 72
2, 80640, Note_on_c, 0, 64, 72
2, 80828, Note_off_c, 0, 73, 100
2, 80828, Note_off_c, 0, 66, 100
2, 80828, Note_off_c, 0, 64, 100
2, 80832, Note_on_c, 0, 70, 73
2, 80832, Note_on_c, 0, 66, 73
2, 80832, Note_on_c, 0, 64, 73
2, 81020, Note_off_c, 0, 70, 100
2, 81020, Note_off_c, 0, 66, 100
2, 81020, Note_off_c, 0, 64, 100
2, 81024, Note_on_c, 0, 71, 75
2, 81024, Note_on_c, 0, 66, 75
2, 81024, Note_on_c, 0, 62, 75
2, 81212, Note_off_c, 0, 71, 100
2, 81212, Note_off_c, 0, 66, 100
2, 81212, Note_off_c, 0, 62, 100
2, 81216, Note_on_c, 0, 74, 76
2, 81216, Note_on_c, 0, 66, 76
2, 81216, Note_on_c, 0, 62, 76
2, 81404, Note_off_c, 0, 74, 100
2, 81404, Note_off_c, 0, 66, 100
2, 81404, Note_off_c, 0, 62, 100
2, 81408, Note_on_c, 0, 73, 77
2, 81408, Note_on_c, 0, 66, 77
2, 81408, Note_on_c, 0, 64, 77
2, 81596, Note_off_c, 0, 73, 100
2, 81596, Note_off_c, 0, 66, 100
2, 81596, Note_off_c, 0, 64, 100
2, 81600, Note_on_c, 0, 70, 79
2, 81600, Note_on_c, 0, 66, 79
2, 81600, Note_on_c, 0, 64, 79
2, 81788, Note_off_c, 0, 70, 100
2, 81788, Note_off_c, 0, 66, 100
2, 81788, Note_off_c, 0, 64, 100
2, 81792, Note_on_c, 0, 71, 80
2, 81792, Note_on_c, 0, 66, 80
2, 81792, Note_on_c, 0, 62, 80
2, 81980, Note_off_c, 0, 71, 100
2, 81980, Note_off_c, 0, 66, 100
2, 81980, Note_off_c, 0, 62, 100
2, 81984, Note_on_c, 0, 74, 81
2, 81984, Note_on_c, 0, 66, 81
2, 81984, Note_on_c, 0, 62, 81
2, 82172, Note_off_c, 0, 74, 100
2, 82172, Note_off_c, 0, 66, 100
2, 82172, Note_off_c, 0, 62, 100
2, 82176, Note_on_c, 0, 73, 83
2, 82176, Note_on_c, 0, 66, 83
2, 82176, Note_on_c, 0, 64, 83
2, 82364, Note_off_c, 0, 73, 100
2, 82364, Note_off_c, 0, 66, 100
2, 82364, Note_off_c, 0, 64, 100
2, 82368, Note_on_c, 0, 70, 84
2, 82368, Note_on_c, 0, 66, 84
2, 82368, Note_on_c, 0, 64, 84
2, 82556, Note_off_c, 0, 70, 100
2, 82556, Note_off_c, 0, 66, 100
2, 82556, Note_off_c, 0, 64, 100
2, 82560, Note_on_c, 0, 71, 85
2, 82560, Note_on_c, 0, 66, 85
2, 82560, Note_on_c, 0, 62, 85
2, 82748, Note_off_c, 0, 71, 100
2, 82748, Note_off_c, 0, 66, 100
2, 82748, Note_off_c, 0, 62, 100
2, 82752, Note_on_c, 0, 74, 87
2, 82752, Note_on_c, 0, 66, 87
2, 82752, Note_on_c, 0, 62, 87
2, 82940, Note_off_c, 0, 74, 100
2, 82940, Note_off_c, 0, 66, 100
2, 82940, Note_off_c, 0, 62, 100
2, 82944, Note_on_c, 0, 73, 88
2, 82944, Note_on_c, 0, 66, 88
2, 82944, Note_on_c, 0, 64, 88
2, 83132, Note_off_c, 0, 73, 100
2, 83132, Note_off_c, 0, 66, 100
2, 83132, Note_off_c, 0, 64, 100
2, 83136, Note_on_c, 0, 70, 89
2, 83136, Note_on_c, 0, 66, 89
2, 83136, Note_on_c, 0, 64, 89
2, 83324, Note_off_c, 0, 70, 100
2, 83324, Note_off_c, 0, 66, 100
2, 83324, Note_off_c, 0, 64, 100
2, 83328, Note_on_c, 0, 71, 80
2, 83328, Note_on_c, 0, 66, 80
2, 83328, Note_on_c, 0, 62, 80
2, 83708, Note_off_c, 0, 71, 100
2, 83708, Note_off_c, 0, 66, 100
2, 83708, Note_off_c, 0, 62, 100
2, 84000, Note_on_c, 0, 62, 80
2, 84000, Note_on_c, 0, 59, 80
2, 84000, Note_on_c, 0, 54, 80
2, 84476, Note_off_c, 0, 54, 64
2, 84476, Note_off_c, 0, 59, 64
2, 84476, Note_off_c, 0, 62, 64
2, 84768, Note_on_c, 0, 59, 80
2, 84768, Note_on_c, 0, 54, 80
2, 84768, Note_on_c, 0, 50, 80
2, 85244, Note_off_c, 0, 50, 64
2, 85244, Note_off_c, 0, 54, 64
2, 85244, Note_off_c, 0, 59, 64
2, 85632, Note_on_c, 0, 47, 80
2, 85820, Note_off_c, 0, 47, 100
2, 86016, Note_on_c, 0, 50, 80
2, 86204, Note_off_c, 0, 50, 100
2, 86304, Note_on_c, 0, 79, 110
2, 86972, Note_off_c, 0, 79, 64
2, 86976, Note_on_c, 0, 78, 110
2, 87068, Note_off_c, 0, 78, 100
2, 87072, Note_on_c, 0, 76, 110
2, 87164, Note_off_c, 0, 76, 100
2, 87168, Note_on_c, 0, 74, 110
2, 87260, Note_off_c, 0, 74, 100
2, 87264, Note_on_c, 0, 75, 110
2, 87356, Note_off_c, 0, 75, 100
2, 87360, Note_on_c, 0, 76, 110
2, 87452, Note_off_c, 0, 76, 100
2, 87456, Note_on_c, 0, 71, 110
2, 87548, Note_off_c, 0, 71, 100
2, 87552, Note_on_c, 0, 74, 110
2, 87644, Note_off_c, 0, 74, 100
2, 87648, Note_on_c, 0, 72, 110
2, 87740, Note_off_c, 0, 72, 100
2, 87744, Note_on_c, 0, 71, 110
2, 87836, Note_off_c, 0, 71, 100
2, 87840, Note_on_c, 0, 69, 110
2, 87932, Note_off_c, 0, 69, 100
2, 87936, Note_on_c, 0, 67, 110
2, 88316, Note_off_c, 0, 67, 100
2, 88608, Note_on_c, 0, 67, 80
2, 88608, Note_on_c, 0, 62, 80
2, 88608, Note_on_c, 0, 59, 80
2, 88988, Note_off_c, 0, 59, 64
2, 88988, Note_off_c, 0, 62, 64
2, 88988, Note_off_c, 0, 67, 64
2, 88992, Note_on_c, 0, 71, 80
2, 88992, Note_on_c, 0, 62, 80
2, 88992, Note_on_c, 0, 59, 80
2, 89372, Note_off_c, 0, 71, 100
2, 89372, Note_off_c, 0, 62, 100
2, 89372, Note_off_c, 0, 59, 100
2, 89376, Note_on_c, 0, 67, 80
2, 89376, Note_on_c, 0, 62, 80
2, 89376, Note_on_c, 0, 59, 80
2, 89660, Note_off_c, 0, 59, 64
2, 89660, Note_off_c, 0, 62, 64
2, 89660, Note_off_c, 0, 67, 64
2, 90144, Note_on_c, 0, 67, 80
2, 90144, Note_on_c, 0, 62, 80
2, 90144, Note_on_c, 0, 59, 80
2, 90524, Note_off_c, 0, 59, 64
2, 90524, Note_off_c, 0, 62, 64
2, 90524, Note_off_c, 0, 67, 64
2, 90528, Note_on_c, 0, 74, 80
2, 90528, Note_on_c, 0, 71, 80
2, 90528, Note_on_c, 0, 67, 80
2, 90528, Note_on_c, 0, 62, 80
2, 90908, Note_off_c, 0, 74, 100
2, 90908, Note_off_c, 0, 71, 100
2, 90908, Note_off_c, 0, 67, 100
2, 90908, Note_off_c, 0, 62, 100
2, 90912, Note_on_c, 0, 67, 80
2, 90912, Note_on_c, 0, 62, 80
2, 90912, Note_on_c, 0, 59, 80
2, 91196, Note_off_c, 0, 59, 64
2, 91196, Note_off_c, 0, 62, 64
2, 91196, Note_off_c, 0, 67, 64
2, 91680, Note_on_c, 0, 71, 110
2, 91680, Note_on_c, 0, 67, 110
2, 91680, Note_on_c, 0, 62, 110
2, 91680, Note_on_c, 0, 59, 110
2, 92060, Note_off_c, 0, 59, 64
2, 92060, Note_off_c, 0, 62, 64
2, 92060, Note_off_c, 0, 67, 64
2, 92060, Note_off_c, 0, 71, 64
2, 92064, Note_on_c, 0, 79, 110
2, 92064, Note_on_c, 0, 76, 110
2, 92064, Note_on_c, 0, 71, 110
2, 92064, Note_on_c, 0, 67, 110
2, 92444, Note_off_c, 0, 79, 100
2, 92444, Note_off_c, 0, 76, 100
2, 92444, Note_off_c, 0, 71, 100
2, 92444, Note_off_c, 0, 67, 100
2, 92448, Note_on_c, 0, 78, 110
2, 92448, Note_on_c, 0, 74, 110
2, 92448, Note_on_c, 0, 69, 110
2, 92448, Note_on_c, 0, 66, 110
2, 92732, Note_off_c, 0, 66, 64
2, 92732, Note_off_c, 0, 69, 64
2, 92732, Note_off_c, 0, 74, 64
2, 92732, Note_off_c, 0, 78, 64
2, 93312, Note_on_c, 0, 74, 80
2, 93312, Note_on_c, 0, 69, 80
2, 93312, Note_on_c, 0, 66, 80
2, 93500, Note_off_c, 0, 74, 100
2, 93500, Note_off_c, 0, 69, 100
2, 93500, Note_off_c, 0, 66, 100
2, 93696, Note_on_c, 0, 73, 80
2, 93696, Note_on_c, 0, 69, 80
2, 93696, Note_on_c, 0, 67, 80
2, 93696, Note_on_c, 0, 64, 80
2, 93884, Note_off_c, 0, 73, 100
2, 93884, Note_off_c, 0, 69, 100
2, 93884, Note_off_c, 0, 67, 100
2, 93884, Note_off_c, 0, 64, 100
2, 94080, Note_on_c, 0, 74, 80
2, 94080, Note_on_c, 0, 69, 80
2, 94080, Note_on_c, 0, 66, 80
2, 94080, Note_on_c, 0, 62, 80
2, 94268, Note_off_c, 0, 74, 100
2, 94268, Note_off_c, 0, 69, 100
2, 94268, Note_off_c, 0, 66, 100
2, 94268, Note_off_c, 0, 62, 100
2, 94752, Note_on_c, 0, 77, 110
2, 95420, Note_off_c, 0, 77, 64
2, 95424, Note_on_c, 0, 76, 110
2, 95516, Note_off_c, 0, 76, 100
2, 95520, Note_on_c, 0, 74, 110
2, 95612, Note_off_c, 0, 74, 100
2, 95616, Note_on_c, 0, 72, 110
2, 95708, Note_off_c, 0, 72, 100
2, 95712, Note_on_c, 0, 73, 110
2, 95804, Note_off_c, 0, 73, 100
2, 95808, Note_on_c, 0, 74, 110
2, 95900, Note_off_c, 0, 74, 100
2, 95904, Note_on_c, 0, 69, 110
2, 95996, Note_off_c, 0, 69, 100
2, 96000, Note_on_c, 0, 72, 110
2, 96092, Note_off_c, 0, 72, 100
2, 96096, Note_on_c, 0, 70, 110
2, 96188, Note_off_c, 0, 70, 100
2, 96192, Note_on_c, 0, 69, 110
2, 96284, Note_off_c, 0, 69, 100
2, 96288, Note_on_c, 0, 67, 110
2, 96380, Note_off_c, 0, 67, 100
2, 96384, Note_on_c, 0, 65, 110
2, 96764, Note_off_c, 0, 65, 100
2, 97056, Note_on_c, 0, 65, 80
2, 97056, Note_on_c, 0, 60, 80
2, 97056, Note_on_c, 0, 57, 80
2, 97436, Note_off_c, 0, 57, 64
2, 97436, Note_off_c, 0, 60, 64
2, 97436, Note_off_c, 0, 65, 64
2, 97440, Note_on_c, 0, 69, 80
2, 97440, Note_on_c, 0, 60, 80
2, 97440, Note_on_c, 0, 57, 80
2, 97820, Note_off_c, 0, 69, 100
2, 97820, Note_off_c, 0, 60, 100
2, 97820, Note_off_c, 0, 57, 100
2, 97824, Note_on_c, 0, 65, 80
2, 97824, Note_on_c, 0, 60, 80
2, 97824, Note_on_c, 0, 57, 80
2, 98108, Note_off_c, 0, 57, 64
2, 98108, Note_off_c, 0, 60, 64
2, 98108, Note_off_c, 0, 65, 64
2, 98592, Note_on_c, 0, 65, 80
2, 98592, Note_on_c, 0, 60, 80
2, 98592, Note_on_c, 0, 57, 80
2, 98972, Note_off_c, 0, 57, 64
2, 98972, Note_off_c, 0, 60, 64
2, 98972, Note_off_c, 0, 65, 64
2, 98976, Note_on_c, 0, 72, 80
2, 98976, Note_on_c, 0, 69, 80
2, 98976, Note_on_c, 0, 65, 80
2, 98976, Note_on_c, 0, 60, 80
2, 99356, Note_off_c, 0, 72, 100
2, 99356, Note_off_c, 0, 69, 100
2, 99356, Note_off_c, 0, 65, 100
2, 99356, Note_off_c, 0, 60, 100
2, 99360, Note_on_c, 0, 60, 80
2, 99360, Note_on_c, 0, 57, 80
2, 99360, Note_on_c, 0, 65, 80
2, 99644, Note_off_c, 0, 57, 64
2, 99644, Note_off_c, 0, 60, 64
2, 99644, Note_off_c, 0, 65, 64
2, 100128, Note_on_c, 0, 69, 110
2, 100128, Note_on_c, 0, 60, 110
2, 100128, Note_on_c, 0, 57, 110
2, 100128, Note_on_c, 0, 65, 110
2, 100508, Note_off_c, 0, 57, 64
2, 100508, Note_off_c, 0, 60, 64
2, 100508, Note_off_c, 0, 65, 64
2, 100508, Note_off_c, 0, 69, 64
2, 100512, Note_on_c, 0, 77, 110
2, 100512, Note_on_c, 0, 74, 110
2, 100512, Note_on_c, 0, 69, 110
2, 100512, Note_on_c, 0, 65, 110
2, 100892, Note_off_c, 0, 77, 100
2, 100892, Note_off_c, 0, 74, 100
2, 100892, Note_off_c, 0, 69, 100
2, 100892, Note_off_c, 0, 65, 100
2, 100896, Note_on_c, 0, 76, 110
2, 100896, Note_on_c, 0, 72, 110
2, 100896, Note_on_c, 0, 67, 110
2, 100896, Note_on_c, 0, 64, 110
2, 101180, Note_off_c, 0, 64, 64
2, 101180, Note_off_c, 0, 67, 64
2, 101180, Note_off_c, 0, 72, 64
2, 101180, Note_off_c, 0, 76, 64
2, 101760, Note_on_c, 0, 72, 80
2, 101760, Note_on_c, 0, 67, 80
2, 101760, Note_on_c, 0, 64, 80
2, 101948, Note_off_c, 0, 72, 100
2, 101948, Note_off_c, 0, 67, 100
2, 101948, Note_off_c, 0, 64, 100
2, 102144, Note_on_c, 0, 71, 80
2, 102144, Note_on_c, 0, 67, 80
2, 102144, Note_on_c, 0, 65, 80
2, 102144, Note_on_c, 0, 62, 80
2, 102332, Note_off_c, 0, 71, 100
2, 102332, Note_off_c, 0, 67, 100
2, 102332, Note_off_c, 0, 65, 100
2, 102332, Note_off_c, 0, 62, 100
2, 102528, Note_on_c, 0, 72, 80
2, 102528, Note_on_c, 0, 67, 80
2, 102528, Note_on_c, 0, 64, 80
2, 102528, Note_on_c, 0, 60, 80
2, 102716, Note_off_c, 0, 72, 100
2, 102716, Note_off_c, 0, 67, 100
2, 102716, Note_off_c, 0, 64, 100
2, 102716, Note_off_c, 0, 60, 100
2, 103200, Note_on_c, 0, 76, 80
2, 103200, Note_on_c, 0, 72, 80
2, 103200, Note_on_c, 0, 67, 80
2, 103200, Note_on_c, 0, 64, 80
2, 103580, Note_off_c, 0, 64, 64
2, 103580, Note_off_c, 0, 67, 64
2, 103580, Note_off_c, 0, 72, 64
2, 103580, Note_off_c, 0, 76, 64
2, 103584, Note_on_c, 0, 81, 80
2, 103584, Note_on_c, 0, 84, 80
2, 103584, Note_on_c, 0, 76, 80
2, 103584, Note_on_c, 0, 72, 80
2, 103964, Note_off_c, 0, 81, 100
2, 103964, Note_off_c, 0, 84, 100
2, 103964, Note_off_c, 0, 76, 100
2, 103964, Note_off_c, 0, 72, 100
2, 103968, Note_on_c, 0, 83, 80
2, 103968, Note_on_c, 0, 79, 80
2, 103968, Note_on_c, 0, 74, 80
2, 103968, Note_on_c, 0, 71, 80
2, 104252, Note_off_c, 0, 71, 64
2, 104252, Note_off_c, 0, 74, 64
2, 104252, Note_off_c, 0, 79, 64
2, 104252, Note_off_c, 0, 83, 64
2, 104832, Note_on_c, 0, 79, 80
2, 104832, Note_on_c, 0, 74, 80
2, 104832, Note_on_c, 0, 71, 80
2, 105020, Note_off_c, 0, 79, 100
2, 105020, Note_off_c, 0, 74, 100
2, 105020, Note_off_c, 0, 71, 100
2, 105216, Note_on_c, 0, 78, 80
2, 105216, Note_on_c, 0, 74, 80
2, 105216, Note_on_c, 0, 69, 80
2, 105404, Note_off_c, 0, 78, 100
2, 105404, Note_off_c, 0, 74, 100
2, 105404, Note_off_c, 0, 69, 100
2, 105600, Note_on_c, 0, 79, 80
2, 105600, Note_on_c, 0, 74, 80
2, 105600, Note_on_c, 0, 71, 80
2, 105788, Note_off_c, 0, 79, 100
2, 105788, Note_off_c, 0, 74, 100
2, 105788, Note_off_c, 0, 71, 100
2, 106368, Note_on_c, 0, 83, 80
2, 106368, Note_on_c, 0, 79, 80
2, 106368, Note_on_c, 0, 74, 80
2, 106368, Note_on_c, 0, 71, 80
2, 106556, Note_off_c, 0, 83, 100
2, 106556, Note_off_c, 0, 79, 100
2, 106556, Note_off_c, 0, 74, 100
2, 106556, Note_off_c, 0, 71, 100
2, 106752, Note_on_c, 0, 81, 80
2, 106752, Note_on_c, 0, 78, 80
2, 106752, Note_on_c, 0, 74, 80
2, 106752, Note_on_c, 0, 69, 80
2, 106940, Note_off_c, 0, 81, 100
2, 106940, Note_off_c, 0, 78, 100
2, 106940, Note_off_c, 0, 74, 100
2, 106940, Note_off_c, 0, 69, 100
2, 107136, Note_on_c, 0, 83, 80
2, 107136, Note_on_c, 0, 79, 80
2, 107136, Note_on_c, 0, 74, 80
2, 107136, Note_on_c, 0, 71, 80
2, 107324, Note_off_c, 0, 83, 100
2, 107324, Note_off_c, 0, 79, 100
2, 107324, Note_off_c, 0, 74, 100
2, 107324, Note_off_c, 0, 71, 100
2, 107904, Note_on_c, 0, 83, 80
2, 107904, Note_on_c, 0, 86, 80
2, 107904, Note_on_c, 0, 79, 80
2, 107904, Note_on_c, 0, 74, 80
2, 108188, Note_off_c, 0, 83, 100
2, 108188, Note_off_c, 0, 86, 100
2, 108188, Note_off_c, 0, 79, 100
2, 108188, Note_off_c, 0, 74, 100
2, 108288, Note_on_c, 0, 86, 80
2, 108288, Note_on_c, 0, 81, 80
2, 108288, Note_on_c, 0, 78, 80
2, 108288, Note_on_c, 0, 74, 80
2, 108572, Note_off_c, 0, 86, 100
2, 108572, Note_off_c, 0, 81, 100
2, 108572, Note_off_c, 0, 78, 100
2, 108572, Note_off_c, 0, 74, 100
2, 108672, Note_on_c, 0, 79, 80
2, 108764, Note_off_c, 0, 79, 100
2, 108768, Note_on_c, 0, 82, 80
2, 108860, Note_off_c, 0, 82, 100
2, 108864, Note_on_c, 0, 83, 81
2, 108956, Note_off_c, 0, 83, 100
2, 108960, Note_on_c, 0, 78, 82
2, 109052, Note_off_c, 0, 78, 100
2, 109056, Note_on_c, 0, 81, 83
2, 109148, Note_off_c, 0, 81, 100
2, 109152, Note_on_c, 0, 79, 84
2, 109244, Note_off_c, 0, 79, 100
2, 109248, Note_on_c, 0, 78, 85
2, 109340, Note_off_c, 0, 78, 100
2, 109344, Note_on_c, 0, 76, 86
2, 109436, Note_off_c, 0, 76, 100
2, 109440, Note_on_c, 0, 74, 87
2, 109532, Note_off_c, 0, 74, 100
2, 109536, Note_on_c, 0, 75, 88
2, 109628, Note_off_c, 0, 75, 100
2, 109632, Note_on_c, 0, 76, 89
2, 109724, Note_off_c, 0, 76, 100
2, 109728, Note_on_c, 0, 71, 90
2, 109820, Note_off_c, 0, 71, 100
2, 109824, Note_on_c, 0, 74, 91
2, 109916, Note_off_c, 0, 74, 100
2, 109920, Note_on_c, 0, 72, 92
2, 110012, Note_off_c, 0, 72, 100
2, 110016, Note_on_c, 0, 71, 93
2, 110108, Note_off_c, 0, 71, 100
2, 110112, Note_on_c, 0, 69, 94
2, 110204, Note_off_c, 0, 69, 100
2, 110208, Note_on_c, 0, 67, 95
2, 110300, Note_off_c, 0, 67, 100
2, 110304, Note_on_c, 0, 70, 96
2, 110396, Note_off_c, 0, 70, 100
2, 110400, Note_on_c, 0, 71, 97
2, 110492, Note_off_c, 0, 71, 100
2, 110496, Note_on_c, 0, 66, 98
2, 110588, Note_off_c, 0, 66, 100
2, 110592, Note_on_c, 0, 69, 99
2, 110684, Note_off_c, 0, 69, 100
2, 110688, Note_on_c, 0, 67, 100
2, 110780, Note_off_c, 0, 67, 100
2, 110784, Note_on_c, 0, 66, 101
2, 110876, Note_off_c, 0, 66, 100
2, 110880, Note_on_c, 0, 64, 102
2, 110972, Note_off_c, 0, 64, 100
2, 110976, Note_on_c, 0, 62, 103
2, 111068, Note_off_c, 0, 62, 100
2, 111072, Note_on_c, 0, 63, 104
2, 111164, Note_off_c, 0, 63, 100
2, 111168, Note_on_c, 0, 64, 105
2, 111260, Note_off_c, 0, 64, 100
2, 111264, Note_on_c, 0, 59, 106
2, 111356, Note_off_c, 0, 59, 100
2, 111360, Note_on_c, 0, 62, 107
2, 111452, Note_off_c, 0, 62, 100
2, 111456, Note_on_c, 0, 60, 108
2, 111548, Note_off_c, 0, 60, 100
2, 111552, Note_on_c, 0, 59, 108
2, 111644, Note_off_c, 0, 59, 100
2, 111648, Note_on_c, 0, 57, 109
2, 111740, Note_off_c, 0, 57, 100
2, 111744, Note_on_c, 0, 55, 110
2, 111836, Note_off_c, 0, 55, 100
2, 111840, Note_on_c, 0, 58, 110
2, 111932, Note_off_c, 0, 58, 100
2, 111936, Note_on_c, 0, 59, 110
2, 112028, Note_off_c, 0, 59, 100
2, 112032, Note_on_c, 0, 54, 110
2, 112124, Note_off_c, 0, 54, 100
2, 112128, Note_on_c, 0, 57, 110
2, 112220, Note_off_c, 0, 57, 100
2, 112224, Note_on_c, 0, 55, 110
2, 112316, Note_off_c, 0, 55, 100
2, 112320, Note_on_c, 0, 54, 110
2, 112412, Note_off_c, 0, 54, 100
2, 112416, Note_on_c, 0, 52, 110
2, 112508, Note_off_c, 0, 52, 100
2, 112512, Note_on_c, 0, 50, 110
2, 112604, Note_off_c, 0, 50, 100
2, 112608, Note_on_c, 0, 51, 110
2, 112700, Note_off_c, 0, 51, 100
2, 112704, Note_on_c, 0, 52, 110
2, 112796, Note_off_c, 0, 52, 100
2, 112800, Note_on_c, 0, 47, 110
2, 112892, Note_off_c, 0, 47, 100
2, 112896, Note_on_c, 0, 50, 110
2, 112988, Note_off_c, 0, 50, 100
2, 112992, Note_on_c, 0, 48, 110
2, 113084, Note_off_c, 0, 48, 100
2, 113088, Note_on_c, 0, 47, 110
2, 113180, Note_off_c, 0, 47, 100
2, 113184, Note_on_c, 0, 45, 110
2, 113276, Note_off_c, 0, 45, 100
2, 113280, Note_on_c, 0, 43, 110
2, 113372, Note_off_c, 0, 43, 100
2, 113376, Note_on_c, 0, 42, 110
2, 113468, Note_off_c, 0, 42, 100
2, 113472, Note_on_c, 0, 43, 110
2, 113564, Note_off_c, 0, 43, 100
2, 113568, Note_on_c, 0, 45, 110
2, 113660, Note_off_c, 0, 45, 100
2, 113664, Note_on_c, 0, 46, 110
2, 113756, Note_off_c, 0, 46, 100
2, 113760, Note_on_c, 0, 47, 110
2, 113852, Note_off_c, 0, 47, 100
2, 113856, Note_on_c, 0, 48, 110
2, 113948, Note_off_c, 0, 48, 100
2, 113952, Note_on_c, 0, 49, 110
2, 114044, Note_off_c, 0, 49, 100
2, 114048, Note_on_c, 0, 50, 110
2, 114140, Note_off_c, 0, 50, 100
2, 114144, Note_on_c, 0, 49, 110
2, 114236, Note_off_c, 0, 49, 100
2, 114240, Note_on_c, 0, 50, 110
2, 114332, Note_off_c, 0, 50, 100
2, 114336, Note_on_c, 0, 52, 110
2, 114428, Note_off_c, 0, 52, 100
2, 114432, Note_on_c, 0, 54, 110
2, 114524, Note_off_c, 0, 54, 100
2, 114528, Note_on_c, 0, 50, 110
2, 114620, Note_off_c, 0, 50, 100
2, 114624, Note_on_c, 0, 52, 110
2, 114716, Note_off_c, 0, 52, 100
2, 114720, Note_on_c, 0, 54, 110
2, 114812, Note_off_c, 0, 54, 100
2, 114816, Note_on_c, 0, 55, 110
2, 114908, Note_off_c, 0, 55, 100
2, 114912, Note_on_c, 0, 54, 110
2, 115004, Note_off_c, 0, 54, 100
2, 115008, Note_on_c, 0, 55, 110
2, 115100, Note_off_c, 0, 55, 100
2, 115104, Note_on_c, 0, 57, 110
2, 115196, Note_off_c, 0, 57, 100
2, 115200, Note_on_c, 0, 58, 110
2, 115292, Note_off_c, 0, 58, 100
2, 115296, Note_on_c, 0, 59, 110
2, 115388, Note_off_c, 0, 59, 100
2, 115392, Note_on_c, 0, 60, 110
2, 115484, Note_off_c, 0, 60, 100
2, 115488, Note_on_c, 0, 61, 110
2, 115580, Note_off_c, 0, 61, 100
2, 115584, Note_on_c, 0, 62, 110
2, 115676, Note_off_c, 0, 62, 100
2, 115680, Note_on_c, 0, 62, 110
2, 115772, Note_off_c, 0, 62, 100
2, 115776, Note_on_c, 0, 66, 110
2, 115868, Note_off_c, 0, 66, 100
2, 115872, Note_on_c, 0, 69, 110
2, 115964, Note_off_c, 0, 69, 100
2, 115968, Note_on_c, 0, 74, 110
2, 116060, Note_off_c, 0, 74, 100
2, 116064, Note_on_c, 0, 74, 110
2, 116156, Note_off_c, 0, 74, 100
2, 116160, Note_on_c, 0, 78, 110
2, 116252, Note_off_c, 0, 78, 100
2, 116256, Note_on_c, 0, 81, 110
2, 116348, Note_off_c, 0, 81, 100
2, 116352, Note_on_c, 0, 86, 110
2, 116444, Note_off_c, 0, 86, 100
2, 116448, Note_on_c, 0, 86, 110
2, 116540, Note_off_c, 0, 86, 100
2, 116544, Note_on_c, 0, 81, 110
2, 116636, Note_off_c, 0, 81, 100
2, 116640, Note_on_c, 0, 78, 110
2, 116732, Note_off_c, 0, 78, 100
2, 116736, Note_on_c, 0, 74, 110
2, 116828, Note_off_c, 0, 74, 100
2, 116832, Note_on_c, 0, 74, 110
2, 116924, Note_off_c, 0, 74, 100
2, 116928, Note_on_c, 0, 69, 110
2, 117020, Note_off_c, 0, 69, 100
2, 117024, Note_on_c, 0, 66, 110
2, 117116, Note_off_c, 0, 66, 100
2, 117120, Note_on_c, 0, 62, 110
2, 117212, Note_off_c, 0, 62, 100
2, 117216, Note_on_c, 0, 62, 110
2, 117308, Note_off_c, 0, 62, 100
2, 117312, Note_on_c, 0, 66, 110
2, 117404, Note_off_c, 0, 66, 100
2, 117408, Note_on_c, 0, 69, 110
2, 117500, Note_off_c, 0, 69, 100
2, 117504, Note_on_c, 0, 74, 110
2, 117596, Note_off_c, 0, 74, 100
2, 117600, Note_on_c, 0, 74, 110
2, 117692, Note_off_c, 0, 74, 100
2, 117696, Note_on_c, 0, 78, 110
2, 117788, Note_off_c, 0, 78, 100
2, 117792, Note_on_c, 0, 81, 110
2, 117884, Note_off_c, 0, 81, 100
2, 117888, Note_on_c, 0, 86, 110
2, 117980, Note_off_c, 0, 86, 100
2, 117984, Note_on_c, 0, 86, 110
2, 118076, Note_off_c, 0, 86, 100
2, 118080, Note_on_c, 0, 81, 110
2, 118172, Note_off_c, 0, 81, 100
2, 118176, Note_on_c, 0, 78, 110
2, 118268, Note_off_c, 0, 78, 100
2, 118272, Note_on_c, 0, 74, 110
2, 118364, Note_off_c, 0, 74, 100
2, 118368, Note_on_c, 0, 74, 110
2, 118460, Note_off_c, 0, 74, 100
2, 118464, Note_on_c, 0, 69, 110
2, 118556, Note_off_c, 0, 69, 100
2, 118560, Note_on_c, 0, 66, 110
2, 118652, Note_off_c, 0, 66, 100
2, 118656, Note_on_c, 0, 62, 110
2, 118748, Note_off_c, 0, 62, 100
2, 118752, Note_on_c, 0, 74, 110
2, 118844, Note_off_c, 0, 74, 100
2, 118848, Note_on_c, 0, 69, 110
2, 118940, Note_off_c, 0, 69, 100
2, 118944, Note_on_c, 0, 66, 110
2, 119036, Note_off_c, 0, 66, 100
2, 119040, Note_on_c, 0, 62, 110
2, 119132, Note_off_c, 0, 62, 100
2, 119136, Note_on_c, 0, 62, 110
2, 119228, Note_off_c, 0, 62, 100
2, 119232, Note_on_c, 0, 57, 110
2, 119324, Note_off_c, 0, 57, 100
2, 119328, Note_on_c, 0, 54, 110
2, 119420, Note_off_c, 0, 54, 100
2, 119424, Note_on_c, 0, 50, 110
2, 121532, Note_off_c, 0, 50, 64
2, 121632, Note_on_c, 0, 79, 110
2, 122300, Note_off_c, 0, 79, 64
2, 122304, Note_on_c, 0, 78, 110
2, 122396, Note_off_c, 0, 78, 100
2, 122400, Note_on_c, 0, 76, 110
2, 122492, Note_off_c, 0, 76, 100
2, 122496, Note_on_c, 0, 74, 110
2, 122588, Note_off_c, 0, 74, 100
2, 122592, Note_on_c, 0, 75, 110
2, 122684, Note_off_c, 0, 75, 100
2, 122688, Note_on_c, 0, 76, 110
2, 122780, Note_off_c, 0, 76, 100
2, 122784, Note_on_c, 0, 71, 110
2, 122876, Note_off_c, 0, 71, 100
2, 122880, Note_on_c, 0, 74, 110
2, 122972, Note_off_c, 0, 74, 100
2, 122976, Note_on_c, 0, 72, 110
2, 123068, Note_off_c, 0, 72, 100
2, 123072, Note_on_c, 0, 71, 110
2, 123164, Note_off_c, 0, 71, 100
2, 123168, Note_on_c, 0, 69, 110
2, 123260, Note_off_c, 0, 69, 100
2, 123264, Note_on_c, 0, 67, 110
2, 123644, Note_off_c, 0, 67, 100
2, 123936, Note_on_c, 0, 67, 80
2, 123936, Note_on_c, 0, 62, 80
2, 123936, Note_on_c, 0, 59, 80
2, 124316, Note_off_c, 0, 59, 64
2, 124316, Note_off_c, 0, 62, 64
2, 124316, Note_off_c, 0, 67, 64
2, 124320, Note_on_c, 0, 71, 80
2, 124320, Note_on_c, 0, 62, 80
2, 124320, Note_on_c, 0, 59, 80
2, 124700, Note_off_c, 0, 71, 100
2, 124700, Note_off_c, 0, 62, 100
2, 124700, Note_off_c, 0, 59, 100
2, 124704, Note_on_c, 0, 67, 80
2, 124704, Note_on_c, 0, 62, 80
2, 124704, Note_on_c, 0, 59, 80
2, 124988, Note_off_c, 0, 59, 64
2, 124988, Note_off_c, 0, 62, 64
2, 124988, Note_off_c, 0, 67, 64
2, 125472, Note_on_c, 0, 67, 80
2, 125472, Note_on_c, 0, 62, 80
2, 125472, Note_on_c, 0, 59, 80
2, 125852, Note_off_c, 0, 59, 64
2, 125852, Note_off_c, 0, 62, 64
2, 125852, Note_off_c, 0, 67, 64
2, 125856, Note_on_c, 0, 74, 80
2, 125856, Note_on_c, 0, 71, 80
2, 125856, Note_on_c, 0, 67, 80
2, 125856, Note_on_c, 0, 62, 80
2, 126236, Note_off_c, 0, 74, 100
2, 126236, Note_off_c, 0, 71, 100
2, 126236, Note_off_c, 0, 67, 100
2, 126236, Note_off_c, 0, 62, 100
2, 126240, Note_on_c, 0, 67, 80
2, 126240, Note_on_c, 0, 62, 80
2, 126240, Note_on_c, 0, 59, 80
2, 126524, Note_off_c, 0, 59, 64
2, 126524, Note_off_c, 0, 62, 64
2, 126524, Note_off_c, 0, 67, 64
2, 127008, Note_on_c, 0, 71, 110
2, 127008, Note_on_c, 0, 67, 110
2, 127008, Note_on_c, 0, 62, 110
2, 127008, Note_on_c, 0, 59, 110
2, 127388, Note_off_c, 0, 59, 64
2, 127388, Note_off_c, 0, 62, 64
2, 127388, Note_off_c, 0, 67, 64
2, 127388, Note_off_c, 0, 71, 64
2, 127392, Note_on_c, 0, 79, 110
2, 127392, Note_on_c, 0, 76, 110
2, 127392, Note_on_c, 0, 71, 110
2, 127392, Note_on_c, 0, 67, 110
2, 127772, Note_off_c, 0, 79, 100
2, 127772, Note_off_c, 0, 76, 100
2, 127772, Note_off_c, 0, 71, 100
2, 127772, Note_off_c, 0, 67, 100
2, 127776, Note_on_c, 0, 78, 110
2, 127776, Note_on_c, 0, 70, 110
2, 127776, Note_on_c, 0, 66, 110
2, 127776, Note_on_c, 0, 73, 110
2, 128060, Note_off_c, 0, 66, 64
2, 128060, Note_off_c, 0, 70, 64
2, 128060, Note_off_c, 0, 73, 64
2, 128060, Note_off_c, 0, 78, 64
2, 128640, Note_on_c, 0, 76, 80
2, 128640, Note_on_c, 0, 71, 80
2, 128828, Note_off_c, 0, 76, 100
2, 128828, Note_off_c, 0, 71, 100
2, 129024, Note_on_c, 0, 77, 80
2, 129024, Note_on_c, 0, 71, 80
2, 129212, Note_off_c, 0, 77, 100
2, 129212, Note_off_c, 0, 71, 100
2, 129408, Note_on_c, 0, 78, 80
2, 129408, Note_on_c, 0, 70, 80
2, 129596, Note_off_c, 0, 78, 100
2, 129596, Note_off_c, 0, 70, 100
2, 130080, Note_on_c, 0, 71, 110
2, 130080, Note_on_c, 0, 67, 110
2, 130080, Note_on_c, 0, 62, 110
2, 130080, Note_on_c, 0, 59, 110
2, 130460, Note_off_c, 0, 59, 64
2, 130460, Note_off_c, 0, 62, 64
2, 130460, Note_off_c, 0, 67, 64
2, 130460, Note_off_c, 0, 71, 64
2, 130464, Note_on_c, 0, 79, 110
2, 130464, Note_on_c, 0, 76, 110
2, 130464, Note_on_c, 0, 71, 110
2, 130464, Note_on_c, 0, 67, 110
2, 130844, Note_off_c, 0, 79, 100
2, 130844, Note_off_c, 0, 76, 100
2, 130844, Note_off_c, 0, 71, 100
2, 130844, Note_off_c, 0, 67, 100
2, 130848, Note_on_c, 0, 78, 110
2, 130848, Note_on_c, 0, 70, 110
2, 130848, Note_on_c, 0, 66, 110
2, 130848, Note_on_c, 0, 73, 110
2, 131132, Note_off_c, 0, 66, 64
2, 131132, Note_off_c, 0, 70, 64
2, 131132, Note_off_c, 0, 73, 64
2, 131132, Note_off_c, 0, 78, 64
2, 131712, Note_on_c, 0, 71, 80
2, 131712, Note_on_c, 0, 64, 80
2, 131900, Note_off_c, 0, 71, 100
2, 131900, Note_off_c, 0, 64, 100
2, 132096, Note_on_c, 0, 71, 80
2, 132096, Note_on_c, 0, 65, 80
2, 132284, Note_off_c, 0, 71, 100
2, 132284, Note_off_c, 0, 65, 100
2, 132480, Note_on_c, 0, 70, 80
2, 132480, Note_on_c, 0, 66, 80
2, 132668, Note_off_c, 0, 70, 100
2, 132668, Note_off_c, 0, 66, 100
2, 133248, Note_on_c, 0, 76, 80
2, 133248, Note_on_c, 0, 71, 80
2, 133436, Note_off_c, 0, 76, 100
2, 133436, Note_off_c, 0, 71, 100
2, 133632, Note_on_c, 0, 77, 80
2, 133632, Note_on_c, 0, 71, 80
2, 133820, Note_off_c, 0, 77, 100
2, 133820, Note_off_c, 0, 71, 100
2, 134016, Note_on_c, 0, 78, 80
2, 134016, Note_on_c, 0, 70, 80
2, 134204, Note_off_c, 0, 78, 100
2, 134204, Note_off_c, 0, 70, 100
2, 134784, Note_on_c, 0, 71, 80
2, 134784, Note_on_c, 0, 64, 80
2, 134784, Note_on_c, 0, 59, 80
2, 135068, Note_off_c, 0, 71, 100
2, 135068, Note_off_c, 0, 64, 100
2, 135068, Note_off_c, 0, 59, 100
2, 135168, Note_on_c, 0, 71, 80
2, 135168, Note_on_c, 0, 65, 80
2, 135168, Note_on_c, 0, 59, 80
2, 135452, Note_off_c, 0, 71, 100
2, 135452, Note_off_c, 0, 65, 100
2, 135452, Note_off_c, 0, 59, 100
2, 135552, Note_on_c, 0, 70, 80
2, 135552, Note_on_c, 0, 66, 80
2, 135552, Note_on_c, 0, 58, 80
2, 135644, Note_off_c, 0, 70, 100
2, 135644, Note_off_c, 0, 66, 100
2, 135644, Note_off_c, 0, 58, 100
2, 135648, Note_on_c, 0, 66, 81
2, 135740, Note_off_c, 0, 66, 100
2, 135744, Note_on_c, 0, 65, 82
2, 135836, Note_off_c, 0, 65, 100
2, 135840, Note_on_c, 0, 66, 83
2, 135932, Note_off_c, 0, 66, 100
2, 135936, Note_on_c, 0, 65, 85
2, 136028, Note_off_c, 0, 65, 100
2, 136032, Note_on_c, 0, 66, 86
2, 136124, Note_off_c, 0, 66, 100
2, 136128, Note_on_c, 0, 65, 87
2, 136220, Note_off_c, 0, 65, 100
2, 136224, Note_on_c, 0, 66, 89
2, 136316, Note_off_c, 0, 66, 100
2, 136320, Note_on_c, 0, 65, 90
2, 136412, Note_off_c, 0, 65, 100
2, 136416, Note_on_c, 0, 66, 91
2, 136508, Note_off_c, 0, 66, 100
2, 136512, Note_on_c, 0, 65, 93
2, 136604, Note_off_c, 0, 65, 100
2, 136608, Note_on_c, 0, 66, 94
2, 136700, Note_off_c, 0, 66, 100
2, 136704, Note_on_c, 0, 65, 95
2, 136796, Note_off_c, 0, 65, 100
2, 136800, Note_on_c, 0, 66, 97
2, 136892, Note_off_c, 0, 66, 100
2, 136896, Note_on_c, 0, 68, 98
2, 136988, Note_off_c, 0, 68, 100
2, 136992, Note_on_c, 0, 66, 99
2, 137084, Note_off_c, 0, 66, 100
2, 137088, Note_on_c, 0, 66, 80
2, 137276, Note_off_c, 0, 66, 100
2, 137280, Note_on_c, 0, 75, 80
2, 137660, Note_off_c, 0, 75, 100
2, 137664, Note_on_c, 0, 73, 80
2, 137852, Note_off_c, 0, 73, 100
2, 137856, Note_on_c, 0, 71, 80
2, 138044, Note_off_c, 0, 71, 100
2, 138048, Note_on_c, 0, 75, 80
2, 138428, Note_off_c, 0, 75, 100
2, 138432, Note_on_c, 0, 71, 80
2, 138620, Note_off_c, 0, 71, 100
2, 138624, Note_on_c, 0, 70, 80
2, 138812, Note_off_c, 0, 70, 100
2, 138816, Note_on_c, 0, 78, 80
2, 139196, Note_off_c, 0, 78, 100
2, 139200, Note_on_c, 0, 78, 80
2, 139580, Note_off_c, 0, 78, 64
2, 139584, Note_on_c, 0, 80, 80
2, 139676, Note_off_c, 0, 80, 100
2, 139680, Note_on_c, 0, 78, 80
2, 139772, Note_off_c, 0, 78, 100
2, 139776, Note_on_c, 0, 76, 80
2, 139868, Note_off_c, 0, 76, 100
2, 139872, Note_on_c, 0, 75, 80
2, 139964, Note_off_c, 0, 75, 100
2, 139968, Note_on_c, 0, 76, 80
2, 140060, Note_off_c, 0, 76, 100
2, 140064, Note_on_c, 0, 73, 80
2, 140156, Note_off_c, 0, 73, 100
2, 140160, Note_on_c, 0, 71, 80
2, 140348, Note_off_c, 0, 71, 100
2, 140352, Note_on_c, 0, 75, 80
2, 140732, Note_off_c, 0, 75, 100
2, 140736, Note_on_c, 0, 73, 80
2, 140924, Note_off_c, 0, 73, 100
2, 140928, Note_on_c, 0, 71, 80
2, 141116, Note_off_c, 0, 71, 100
2, 141120, Note_on_c, 0, 75, 80
2, 141500, Note_off_c, 0, 75, 100
2, 141504, Note_on_c, 0, 71, 80
2, 141692, Note_off_c, 0, 71, 100
2, 141696, Note_on_c, 0, 70, 80
2, 141884, Note_off_c, 0, 70, 100
2, 141888, Note_on_c, 0, 73, 80
2, 141980, Note_off_c, 0, 73, 100
2, 141984, Note_on_c, 0, 71, 80
2, 142076, Note_off_c, 0, 71, 100
2, 142080, Note_on_c, 0, 70, 80
2, 142172, Note_off_c, 0, 70, 100
2, 142176, Note_on_c, 0, 71, 80
2, 142268, Note_off_c, 0, 71, 100
2, 142272, Note_on_c, 0, 73, 80
2, 142364, Note_off_c, 0, 73, 100
2, 142368, Note_on_c, 0, 70, 80
2, 142460, Note_off_c, 0, 70, 100
2, 142464, Note_on_c, 0, 71, 80
2, 142652, Note_off_c, 0, 71, 100
2, 143232, Control_c, 0, 64, 127
2, 143232, Note_on_c, 0, 62, 100
2, 143232, Note_on_c, 0, 59, 100
2, 143324, Note_off_c, 0, 62, 100
2, 143324, Note_off_c, 0, 59, 100
2, 143328, Note_on_c, 0, 66, 100
2, 143420, Note_off_c, 0, 66, 100
2, 143424, Note_on_c, 0, 62, 100
2, 143424, Note_on_c, 0, 59, 100
2, 143516, Note_off_c, 0, 62, 100
2, 143516, Note_off_c, 0, 59, 100
2, 143520, Note_on_c, 0, 66, 100
2, 143608, Control_c, 0, 64, 0
2, 143612, Note_off_c, 0, 66, 100
2, 143616, Control_c, 0, 64, 127
2, 143616, Note_on_c, 0, 62, 100
2, 143616, Note_on_c, 0, 59, 100
2, 143708, Note_off_c, 0, 62, 100
2, 143708, Note_off_c, 0, 59, 100
2, 143712, Note_on_c, 0, 66, 100
2, 143804, Note_off_c, 0, 66, 100
2, 143808, Note_on_c, 0, 62, 100
2, 143808, Note_on_c, 0, 59, 100
2, 143900, Note_off_c, 0, 62, 100
2, 143900, Note_off_c, 0, 59, 100
2, 143904, Note_on_c, 0, 66, 100
2, 143992, Control_c, 0, 64, 0
2, 143996, Note_off_c, 0, 66, 100
2, 144000, Control_c, 0, 64, 127
2, 144000, Note_on_c, 0, 62, 100
2, 144000, Note_on_c, 0, 59, 100
2, 144092, Note_off_c, 0, 62, 100
2, 144092, Note_off_c, 0, 59, 100
2, 144096, Note_on_c, 0, 66, 100
2, 144188, Note_off_c, 0, 66, 100
2, 144192, Note_on_c, 0, 62, 100
2, 144192, Note_on_c, 0, 59, 100
2, 144284, Note_off_c, 0, 62, 100
2, 144284, Note_off_c, 0, 59, 100
2, 144288, Note_on_c, 0, 66, 100
2, 144376, Control_c, 0, 64, 0
2, 144380, Note_off_c, 0, 66, 100
2, 144384, Control_c, 0, 64, 127
2, 144384, Note_on_c, 0, 62, 100
2, 144384, Note_on_c, 0, 59, 100
2, 144476, Note_off_c, 0, 62, 100
2, 144476, Note_off_c, 0, 59, 100
2, 144480, Note_on_c, 0, 66, 100
2, 144572, Note_off_c, 0, 66, 100
2, 144576, Note_on_c, 0, 62, 100
2, 144576, Note_on_c, 0, 59, 100
2, 144668, Note_off_c, 0, 62, 100
2, 144668, Note_off_c, 0, 59, 100
2, 144672, Note_on_c, 0, 66, 100
2, 144760, Control_c, 0, 64, 0
2, 144764, Note_off_c, 0, 66, 100
2, 144768, Control_c, 0, 64, 127
2, 144768, Note_on_c, 0, 61, 100
2, 144768, Note_on_c, 0, 64, 100
2, 144860, Note_off_c, 0, 61, 100
2, 144860, Note_off_c, 0, 64, 100
2, 144864, Note_on_c, 0, 66, 100
2, 144956, Note_off_c, 0, 66, 100
2, 144960, Note_on_c, 0, 61, 100
2, 144960, Note_on_c, 0, 64, 100
2, 145052, Note_off_c, 0, 61, 100
2, 145052, Note_off_c, 0, 64, 100
2, 145056, Note_on_c, 0, 66, 100
2, 145144, Control_c, 0, 64, 0
2, 145148, Note_off_c, 0, 66, 100
2, 145152, Control_c, 0, 64, 127
2, 145152, Note_on_c, 0, 58, 100
2, 145152, Note_on_c, 0, 61, 100
2, 145244, Note_off_c, 0, 58, 100
2, 145244, Note_off_c, 0, 61, 100
2, 145248, Note_on_c, 0, 66, 100
2, 145340, Note_off_c, 0, 66, 100
2, 145344, Note_on_c, 0, 61, 100
2, 145344, Note_on_c, 0, 58, 100
2, 145436, Note_off_c, 0, 61, 100
2, 145436, Note_off_c, 0, 58, 100
2, 145440, Note_on_c, 0, 66, 100
2, 145528, Control_c, 0, 64, 0
2, 145532, Note_off_c, 0, 66, 100
2, 145536, Control_c, 0, 64, 127
2, 145536, Note_on_c, 0, 58, 100
2, 145536, Note_on_c, 0, 61, 100
2, 145628, Note_off_c, 0, 58, 100
2, 145628, Note_off_c, 0, 61, 100
2, 145632, Note_on_c, 0, 66, 100
2, 145724, Note_off_c, 0, 66, 100
2, 145728, Note_on_c, 0, 61, 100
2, 145728, Note_on_c, 0, 58, 100
2, 145820, Note_off_c, 0, 61, 100
2, 145820, Note_off_c, 0, 58, 100
2, 145824, Note_on_c, 0, 66, 100
2, 145912, Control_c, 0, 64, 0
2, 145916, Note_off_c, 0, 66, 100
2, 145920, Control_c, 0, 64, 127
2, 145920, Note_on_c, 0, 58, 100
2, 145920, Note_on_c, 0, 61, 100
2, 146012, Note_off_c, 0, 58, 100
2, 146012, Note_off_c, 0, 61, 100
2, 146016, Note_on_c, 0, 66, 100
2, 146108, Note_off_c, 0, 66, 100
2, 146112, Note_on_c, 0, 61, 100
2, 146112, Note_on_c, 0, 58, 100
2, 146204, Note_off_c, 0, 61, 100
2, 146204, Note_off_c, 0, 58, 100
2, 146208, Note_on_c, 0, 66, 100
2, 146296, Control_c, 0, 64, 0
2, 146300, Note_off_c, 0, 66, 100
2, 146304, Control_c, 0, 64, 127
2, 146304, Note_on_c, 0, 62, 100
2, 146304, Note_on_c, 0, 59, 100
2, 146396, Note_off_c, 0, 62, 100
2, 146396, Note_off_c, 0, 59, 100
2, 146400, Note_on_c, 0, 66, 100
2, 146492, Note_off_c, 0, 66, 100
2, 146496, Note_on_c, 0, 62, 100
2, 146496, Note_on_c, 0, 59, 100
2, 146588, Note_off_c, 0, 62, 100
2, 146588, Note_off_c, 0, 59, 100
2, 146592, Note_on_c, 0, 66, 100
2, 146680, Control_c, 0, 64, 0
2, 146684, Note_off_c, 0, 66, 100
2, 146688, Control_c, 0, 64, 127
2, 146688, Note_on_c, 0, 65, 100
2, 146688, Note_on_c, 0, 59, 100
2, 146780, Note_off_c, 0, 65, 100
2, 146780, Note_off_c, 0, 59, 100
2, 146784, Note_on_c, 0, 68, 100
2, 146876, Note_off_c, 0, 68, 100
2, 146880, Note_on_c, 0, 65, 100
2, 146880, Note_on_c, 0, 59, 100
2, 146972, Note_off_c, 0, 65, 100
2, 146972, Note_off_c, 0, 59, 100
2, 146976, Note_on_c, 0, 68, 100
2, 147064, Control_c, 0, 64, 0
2, 147068, Note_off_c, 0, 68, 100
2, 147072, Control_c, 0, 64, 127
2, 147072, Note_on_c, 0, 64, 100
2, 147072, Note_on_c, 0, 67, 100
2, 147164, Note_off_c, 0, 64, 100
2, 147164, Note_off_c, 0, 67, 100
2, 147168, Note_on_c, 0, 69, 100
2, 147260, Note_off_c, 0, 69, 100
2, 147264, Note_on_c, 0, 64, 100
2, 147264, Note_on_c, 0, 67, 100
2, 147356, Note_off_c, 0, 64, 100
2, 147356, Note_off_c, 0, 67, 100
2, 147360, Note_on_c, 0, 69, 100
2, 147448, Control_c, 0, 64, 0
2, 147452, Note_off_c, 0, 69, 100
2, 147456, Control_c, 0, 64, 127
2, 147456, Note_on_c, 0, 64, 100
2, 147456, Note_on_c, 0, 67, 100
2, 147548, Note_off_c, 0, 64, 100
2, 147548, Note_off_c, 0, 67, 100
2, 147552, Note_on_c, 0, 69, 100
2, 147644, Note_off_c, 0, 69, 100
2, 147648, Note_on_c, 0, 64, 100
2, 147648, Note_on_c, 0, 67, 100
2, 147740, Note_off_c, 0, 64, 100
2, 147740, Note_off_c, 0, 67, 100
2, 147744, Note_on_c, 0, 69, 100
2, 147832, Control_c, 0, 64, 0
2, 147836, Note_off_c, 0, 69, 100
2, 147840, Control_c, 0, 64, 127
2, 147840, Note_on_c, 0, 66, 100
2, 147840, Note_on_c, 0, 62, 100
2, 147932, Note_off_c, 0, 66, 100
2, 147932, Note_off_c, 0, 62, 100
2, 147936, Note_on_c, 0, 69, 100
2, 148028, Note_off_c, 0, 69, 100
2, 148032, Note_on_c, 0, 66, 100
2, 148032, Note_on_c, 0, 62, 100
2, 148124, Note_off_c, 0, 66, 100
2, 148124, Note_off_c, 0, 62, 100
2, 148128, Note_on_c, 0, 69, 100
2, 148216, Control_c, 0, 64, 0
2, 148220, Note_off_c, 0, 69, 100
2, 148224, Control_c, 0, 64, 127
2, 148224, Note_on_c, 0, 69, 100
2, 148224, Note_on_c, 0, 63, 100
2, 148316, Note_off_c, 0, 69, 100
2, 148316, Note_off_c, 0, 63, 100
2, 148320, Note_on_c, 0, 72, 100
2, 148412, Note_off_c, 0, 72, 100
2, 148416, Note_on_c, 0, 69, 100
2, 148416, Note_on_c, 0, 63, 100
2, 148508, Note_off_c, 0, 69, 100
2, 148508, Note_off_c, 0, 63, 100
2, 148512, Note_on_c, 0, 72, 100
2, 148600, Control_c, 0, 64, 0
2, 148604, Note_off_c, 0, 72, 100
2, 148608, Control_c, 0, 64, 127
2, 148608, Note_on_c, 0, 68, 100
2, 148608, Note_on_c, 0, 71, 100
2, 148700, Note_off_c, 0, 68, 100
2, 148700, Note_off_c, 0, 71, 100
2, 148704, Note_on_c, 0, 73, 100
2, 148796, Note_off_c, 0, 73, 100
2, 148800, Note_on_c, 0, 68, 100
2, 148800, Note_on_c, 0, 71, 100
2, 148892, Note_off_c, 0, 68, 100
2, 148892, Note_off_c, 0, 71, 100
2, 148896, Note_on_c, 0, 73, 100
2, 148984, Control_c, 0, 64, 0
2, 148988, Note_off_c, 0, 73, 100
2, 148992, Control_c, 0, 64, 127
2, 148992, Note_on_c, 0, 68, 100
2, 148992, Note_on_c, 0, 71, 100
2, 149084, Note_off_c, 0, 68, 100
2, 149084, Note_off_c, 0, 71, 100
2, 149088, Note_on_c, 0, 73, 100
2, 149180, Note_off_c, 0, 73, 100
2, 149184, Note_on_c, 0, 68, 100
2, 149184, Note_on_c, 0, 71, 100
2, 149276, Note_off_c, 0, 68, 100
2, 149276, Note_off_c, 0, 71, 100
2, 149280, Note_on_c, 0, 73, 100
2, 149368, Control_c, 0, 64, 0
2, 149372, Note_off_c, 0, 73, 100
2, 149376, Control_c, 0, 64, 127
2, 149376, Note_on_c, 0, 66, 100
2, 149376, Note_on_c, 0, 69, 100
2, 149468, Note_off_c, 0, 66, 100
2, 149468, Note_off_c, 0, 69, 100
2, 149472, Note_on_c, 0, 73, 100
2, 149564, Note_off_c, 0, 73, 100
2, 149568, Note_on_c, 0, 66, 100
2, 149568, Note_on_c, 0, 69, 100
2, 149660, Note_off_c, 0, 66, 100
2, 149660, Note_off_c, 0, 69, 100
2, 149664, Note_on_c, 0, 73, 100
2, 149752, Control_c, 0, 64, 0
2, 149756, Note_off_c, 0, 73, 100
2, 149760, Control_c, 0, 64, 127
2, 149760, Note_on_c, 0, 66, 100
2, 149760, Note_on_c, 0, 69, 100
2, 149852, Note_off_c, 0, 66, 100
2, 149852, Note_off_c, 0, 69, 100
2, 149856, Note_on_c, 0, 73, 100
2, 149948, Note_off_c, 0, 73, 100
2, 149952, Note_on_c, 0, 66, 100
2, 149952, Note_on_c, 0, 69, 100
2, 150044, Note_off_c, 0, 66, 100
2, 150044, Note_off_c, 0, 69, 100
2, 150048, Note_on_c, 0, 73, 100
2, 150136, Control_c, 0, 64, 0
2, 150140, Note_off_c, 0, 73, 100
2, 150144, Control_c, 0, 64, 127
2, 150144, Note_on_c, 0, 66, 100
2, 150236, Note_off_c, 0, 66, 100
2, 150240, Note_on_c, 0, 75, 100
2, 150332, Note_off_c, 0, 75, 100
2, 150336, Note_on_c, 0, 71, 100
2, 150428, Note_off_c, 0, 71, 100
2, 150432, Note_on_c, 0, 75, 100
2, 150520, Control_c, 0, 64, 0
2, 150524, Note_off_c, 0, 75, 100
2, 150528, Control_c, 0, 64, 127
2, 150528, Note_on_c, 0, 67, 100
2, 150620, Note_off_c, 0, 67, 100
2, 150624, Note_on_c, 0, 76, 100
2, 150716, Note_off_c, 0, 76, 100
2, 150720, Note_on_c, 0, 71, 100
2, 150812, Note_off_c, 0, 71, 100
2, 150816, Note_on_c, 0, 76, 100
2, 150904, Control_c, 0, 64, 0
2, 150908, Note_off_c, 0, 76, 100
2, 150912, Control_c, 0, 64, 127
2, 150912, Note_on_c, 0, 64, 100
2, 151004, Note_off_c, 0, 64, 100
2, 151008, Note_on_c, 0, 73, 100
2, 151100, Note_off_c, 0, 73, 100
2, 151104, Note_on_c, 0, 69, 100
2, 151196, Note_off_c, 0, 69, 100
2, 151200, Note_on_c, 0, 73, 100
2, 151288, Control_c, 0, 64, 0
2, 151292, Note_off_c, 0, 73, 100
2, 151296, Control_c, 0, 64, 127
2, 151296, Note_on_c, 0, 66, 100
2, 151388, Note_off_c, 0, 66, 100
2, 151392, Note_on_c, 0, 74, 100
2, 151484, Note_off_c, 0, 74, 100
2, 151488, Note_on_c, 0, 69, 100
2, 151580, Note_off_c, 0, 69, 100
2, 151584, Note_on_c, 0, 74, 100
2, 151672, Control_c, 0, 64, 0
2, 151676, Note_off_c, 0, 74, 100
2, 151680, Control_c, 0, 64, 127
2, 151680, Note_on_c, 0, 62, 100
2, 151772, Note_off_c, 0, 62, 100
2, 151776, Note_on_c, 0, 71, 100
2, 151868, Note_off_c, 0, 71, 100
2, 151872, Note_on_c, 0, 67, 100
2, 151964, Note_off_c, 0, 67, 100
2, 151968, Note_on_c, 0, 71, 100
2, 152056, Control_c, 0, 64, 0
2, 152060, Note_off_c, 0, 71, 100
2, 152064, Control_c, 0, 64, 127
2, 152064, Note_on_c, 0, 64, 100
2, 152156, Note_off_c, 0, 64, 100
2, 152160, Note_on_c, 0, 73, 100
2, 152252, Note_off_c, 0, 73, 100
2, 152256, Note_on_c, 0, 67, 100
2, 152348, Note_off_c, 0, 67, 100
2, 152352, Note_on_c, 0, 73, 100
2, 152440, Control_c, 0, 64, 0
2, 152444, Note_off_c, 0, 73, 100
2, 152448, Control_c, 0, 64, 127
2, 152448, Note_on_c, 0, 61, 100
2, 152540, Note_off_c, 0, 61, 100
2, 152544, Note_on_c, 0, 70, 100
2, 152636, Note_off_c, 0, 70, 100
2, 152640, Note_on_c, 0, 66, 100
2, 152732, Note_off_c, 0, 66, 100
2, 152736, Note_on_c, 0, 70, 100
2, 152824, Control_c, 0, 64, 0
2, 152828, Note_off_c, 0, 70, 100
2, 152832, Control_c, 0, 64, 127
2, 152832, Note_on_c, 0, 59, 100
2, 152924, Note_off_c, 0, 59, 100
2, 152928, Note_on_c, 0, 71, 100
2, 153020, Note_off_c, 0, 71, 100
2, 153024, Note_on_c, 0, 59, 100
2, 153116, Note_off_c, 0, 59, 100
2, 153120, Note_on_c, 0, 71, 100
2, 153208, Control_c, 0, 64, 0
2, 153212, Note_off_c, 0, 71, 100
2, 153216, Control_c, 0, 64, 127
2, 153216, Note_on_c, 0, 67, 100
2, 153308, Note_off_c, 0, 67, 100
2, 153312, Note_on_c, 0, 79, 100
2, 153404, Note_off_c, 0, 79, 100
2, 153408, Note_on_c, 0, 67, 100
2, 153500, Note_off_c, 0, 67, 100
2, 153504, Note_on_c, 0, 79, 100
2, 153592, Control_c, 0, 64, 0
2, 153596, Note_off_c, 0, 79, 100
2, 153600, Control_c, 0, 64, 127
2, 153600, Note_on_c, 0, 61, 100
2, 153692, Note_off_c, 0, 61, 100
2, 153696, Note_on_c, 0, 73, 100
2, 153788, Note_off_c, 0, 73, 100
2, 153792, Note_on_c, 0, 66, 100
2, 153884, Note_off_c, 0, 66, 100
2, 153888, Note_on_c, 0, 78, 100
2, 153976, Control_c, 0, 64, 0
2, 153980, Note_off_c, 0, 78, 100
2, 153984, Note_on_c, 0, 71, 100
2, 153984, Note_on_c, 0, 59, 100
2, 154172, Note_off_c, 0, 71, 100
2, 154172, Note_off_c, 0, 59, 100
2, 154176, Note_on_c, 0, 74, 80
2, 154556, Note_off_c, 0, 74, 100
2, 154560, Note_on_c, 0, 74, 80
2, 154748, Note_off_c, 0, 74, 100
2, 154752, Note_on_c, 0, 73, 80
2, 154940, Note_off_c, 0, 73, 100
2, 154944, Note_on_c, 0, 76, 80
2, 155036, Note_off_c, 0, 76, 100
2, 155040, Note_on_c, 0, 74, 80
2, 155132, Note_off_c, 0, 74, 100
2, 155136, Note_on_c, 0, 73, 80
2, 155228, Note_off_c, 0, 73, 100
2, 155232, Note_on_c, 0, 74, 80
2, 155324, Note_off_c, 0, 74, 100
2, 155328, Note_on_c, 0, 76, 80
2, 155420, Note_off_c, 0, 76, 100
2, 155424, Note_on_c, 0, 73, 80
2, 155516, Note_off_c, 0, 73, 100
2, 155520, Note_on_c, 0, 74, 80
2, 155708, Note_off_c, 0, 74, 100
2, 155712, Note_on_c, 0, 78, 80
2, 156092, Note_off_c, 0, 78, 100
2, 156096, Note_on_c, 0, 78, 80
2, 156284, Note_off_c, 0, 78, 100
2, 156288, Note_on_c, 0, 77, 80
2, 156476, Note_off_c, 0, 77, 100
2, 156480, Note_on_c, 0, 80, 80
2, 156572, Note_off_c, 0, 80, 100
2, 156576, Note_on_c, 0, 78, 80
2, 156668, Note_off_c, 0, 78, 100
2, 156672, Note_on_c, 0, 77, 80
2, 156764, Note_off_c, 0, 77, 100
2, 156768, Note_on_c, 0, 78, 80
2, 156860, Note_off_c, 0, 78, 100
2, 156864, Note_on_c, 0, 80, 80
2, 156956, Note_off_c, 0, 80, 100
2, 156960, Note_on_c, 0, 77, 80
2, 157052, Note_off_c, 0, 77, 100
2, 157056, Note_on_c, 0, 78, 80
2, 157244, Note_off_c, 0, 78, 100
2, 157248, Note_on_c, 0, 81, 80
2, 157628, Note_off_c, 0, 81, 100
2, 157632, Note_on_c, 0, 81, 80
2, 157820, Note_off_c, 0, 81, 100
2, 157824, Note_on_c, 0, 81, 80
2, 157920, Note_on_c, 0, 71, 81
2, 158012, Note_off_c, 0, 71, 100
2, 158016, Note_on_c, 0, 70, 82
2, 158108, Note_off_c, 0, 70, 100
2, 158112, Note_on_c, 0, 71, 83
2, 158204, Note_off_c, 0, 71, 100
2, 158208, Note_on_c, 0, 71, 84
2, 158300, Note_off_c, 0, 81, 100
2, 158304, Note_on_c, 0, 79, 86
2, 158396, Note_off_c, 0, 79, 100
2, 158400, Note_on_c, 0, 78, 87
2, 158492, Note_off_c, 0, 78, 100
2, 158496, Note_on_c, 0, 79, 88
2, 158588, Note_off_c, 0, 79, 100
2, 158592, Note_on_c, 0, 79, 89
2, 158684, Note_off_c, 0, 71, 64
2, 158688, Note_on_c, 0, 69, 91
2, 158780, Note_off_c, 0, 69, 100
2, 158784, Note_on_c, 0, 68, 92
2, 158876, Note_off_c, 0, 68, 100
2, 158880, Note_on_c, 0, 69, 93
2, 158972, Note_off_c, 0, 69, 100
2, 158976, Note_on_c, 0, 69, 94
2, 159068, Note_off_c, 0, 79, 100
2, 159072, Note_on_c, 0, 78, 96
2, 159164, Note_off_c, 0, 78, 100
2, 159168, Note_on_c, 0, 77, 97
2, 159260, Note_off_c, 0, 77, 100
2, 159264, Note_on_c, 0, 78, 98
2, 159356, Note_off_c, 0, 78, 100
2, 159360, Note_on_c, 0, 78, 99
2, 159452, Note_off_c, 0, 69, 64
2, 159456, Note_on_c, 0, 67, 101
2, 159548, Note_off_c, 0, 67, 100
2, 159552, Note_on_c, 0, 66, 102
2, 159644, Note_off_c, 0, 66, 100
2, 159648, Note_on_c, 0, 67, 103
2, 159740, Note_off_c, 0, 67, 100
2, 159744, Note_on_c, 0, 67, 104
2, 159836, Note_off_c, 0, 78, 100
2, 159840, Note_on_c, 0, 76, 106
2, 159932, Note_off_c, 0, 76, 100
2, 159936, Note_on_c, 0, 78, 107
2, 160028, Note_off_c, 0, 78, 100
2, 160032, Note_on_c, 0, 76, 110
2, 160124, Note_off_c, 0, 67, 100
2, 160128, Note_on_c, 0, 66, 110
2, 160220, Note_off_c, 0, 76, 64
2, 160224, Note_on_c, 0, 76, 110
2, 160316, Note_off_c, 0, 66, 100
2, 160316, Note_off_c, 0, 76, 100
2, 160320, Note_on_c, 0, 78, 110
2, 160412, Note_off_c, 0, 78, 100
2, 160416, Note_on_c, 0, 76, 110
2, 160508, Note_off_c, 0, 76, 100
2, 160512, Note_on_c, 0, 66, 110
2, 160604, Note_off_c, 0, 66, 100
2, 160608, Note_on_c, 0, 74, 110
2, 160700, Note_off_c, 0, 74, 100
2, 160704, Note_on_c, 0, 76, 110
2, 160796, Note_off_c, 0, 76, 100
2, 160800, Note_on_c, 0, 74, 110
2, 160892, Note_off_c, 0, 74, 100
2, 160896, Note_on_c, 0, 64, 110
2, 160896, Note_on_c, 0, 67, 110
2, 160988, Note_off_c, 0, 67, 100
2, 160992, Note_on_c, 0, 73, 110
2, 161084, Note_off_c, 0, 64, 100
2, 161084, Note_off_c, 0, 73, 100
2, 161088, Note_on_c, 0, 74, 110
2, 161180, Note_off_c, 0, 74, 100
2, 161184, Note_on_c, 0, 73, 110
2, 161276, Note_off_c, 0, 73, 100
2, 161280, Note_on_c, 0, 61, 110
2, 161280, Note_on_c, 0, 64, 110
2, 161372, Note_off_c, 0, 64, 100
2, 161376, Note_on_c, 0, 70, 110
2, 161468, Note_off_c, 0, 61, 100
2, 161468, Note_off_c, 0, 70, 100
2, 161472, Note_on_c, 0, 71, 110
2, 161564, Note_off_c, 0, 71, 100
2, 161568, Note_on_c, 0, 70, 110
2, 161660, Note_off_c, 0, 70, 100
2, 161664, Note_on_c, 0, 71, 110
2, 161856, Note_on_c, 0, 66, 80
2, 161856, Note_on_c, 0, 62, 80
2, 162044, Note_off_c, 0, 71, 100
2, 162044, Note_off_c, 0, 66, 100
2, 162044, Note_off_c, 0, 62, 100
2, 162048, Note_on_c, 0, 66, 80
2, 162048, Note_on_c, 0, 62, 80
2, 162236, Note_off_c, 0, 66, 100
2, 162236, Note_off_c, 0, 62, 100
2, 162240, Note_on_c, 0, 66, 80
2, 162240, Note_on_c, 0, 62, 80
2, 162240, Note_on_c, 0, 74, 80
2, 162428, Note_off_c, 0, 66, 100
2, 162428, Note_off_c, 0, 62, 100
2, 162428, Note_off_c, 0, 74, 100
2, 162432, Note_on_c, 0, 66, 80
2, 162432, Note_on_c, 0, 64, 80
2, 162432, Note_on_c, 0, 73, 80
2, 162620, Note_off_c, 0, 66, 100
2, 162620, Note_off_c, 0, 64, 100
2, 162624, Note_on_c, 0, 66, 80
2, 162624, Note_on_c, 0, 64, 80
2, 162812, Note_off_c, 0, 66, 100
2, 162812, Note_off_c, 0, 64, 100
2, 162816, Note_on_c, 0, 66, 80
2, 162816, Note_on_c, 0, 64, 80
2, 163004, Note_off_c, 0, 73, 100
2, 163004, Note_off_c, 0, 66, 100
2, 163004, Note_off_c, 0, 64, 100
2, 163008, Note_on_c, 0, 70, 80
2, 163008, Note_on_c, 0, 66, 80
2, 163008, Note_on_c, 0, 64, 80
2, 163196, Note_off_c, 0, 70, 100
2, 163196, Note_off_c, 0, 66, 100
2, 163196, Note_off_c, 0, 64, 100
2, 163200, Note_on_c, 0, 71, 80
2, 163392, Note_on_c, 0, 66, 80
2, 163392, Note_on_c, 0, 63, 80
2, 163580, Note_off_c, 0, 71, 100
2, 163580, Note_off_c, 0, 66, 100
2, 163580, Note_off_c, 0, 63, 100
2, 163584, Note_on_c, 0, 66, 80
2, 163584, Note_on_c, 0, 63, 80
2, 163772, Note_off_c, 0, 66, 100
2, 163772, Note_off_c, 0, 63, 100
2, 163776, Note_on_c, 0, 66, 80
2, 163776, Note_on_c, 0, 63, 80
2, 163776, Note_on_c, 0, 75, 80
2, 163964, Note_off_c, 0, 66, 100
2, 163964, Note_off_c, 0, 63, 100
2, 163964, Note_off_c, 0, 75, 100
2, 163968, Note_on_c, 0, 66, 80
2, 163968, Note_on_c, 0, 64, 80
2, 163968, Note_on_c, 0, 73, 80
2, 164156, Note_off_c, 0, 66, 100
2, 164156, Note_off_c, 0, 64, 100
2, 164160, Note_on_c, 0, 66, 77
2, 164160, Note_on_c, 0, 64, 77
2, 164348, Note_off_c, 0, 66, 100
2, 164348, Note_off_c, 0, 64, 100
2, 164352, Note_on_c, 0, 66, 74
2, 164352, Note_on_c, 0, 64, 74
2, 164540, Note_off_c, 0, 73, 100
2, 164540, Note_off_c, 0, 66, 100
2, 164540, Note_off_c, 0, 64, 100
2, 164544, Note_on_c, 0, 70, 71
2, 164544, Note_on_c, 0, 66, 71
2, 164544, Note_on_c, 0, 64, 71
2, 164732, Note_off_c, 0, 70, 100
2, 164732, Note_off_c, 0, 66, 100
2, 164732, Note_off_c, 0, 64, 100
2, 164736, Note_on_c, 0, 71, 70
2, 164928, Note_on_c, 0, 66, 70
2, 164928, Note_on_c, 0, 62, 70
2, 165116, Note_off_c, 0, 71, 100
2, 165116, Note_off_c, 0, 66, 100
2, 165116, Note_off_c, 0, 62, 100
2, 165120, Note_on_c, 0, 66, 70
2, 165120, Note_on_c, 0, 62, 70
2, 165308, Note_off_c, 0, 66, 100
2, 165308, Note_off_c, 0, 62, 100
2, 165312, Note_on_c, 0, 66, 70
2, 165312, Note_on_c, 0, 62, 70
2, 165312, Note_on_c, 0, 74, 70
2, 165500, Note_off_c, 0, 66, 100
2, 165500, Note_off_c, 0, 62, 100
2, 165500, Note_off_c, 0, 74, 100
2, 165504, Note_on_c, 0, 66, 70
2, 165504, Note_on_c, 0, 64, 70
2, 165504, Note_on_c, 0, 73, 70
2, 165692, Note_off_c, 0, 66, 100
2, 165692, Note_off_c, 0, 64, 100
2, 165696, Note_on_c, 0, 66, 70
2, 165696, Note_on_c, 0, 64, 70
2, 165884, Note_off_c, 0, 66, 100
2, 165884, Note_off_c, 0, 64, 100
2, 165888, Note_on_c, 0, 66, 70
2, 165888, Note_on_c, 0, 64, 70
2, 166076, Note_off_c, 0, 73, 100
2, 166076, Note_off_c, 0, 66, 100
2, 166076, Note_off_c, 0, 64, 100
2, 166080, Note_on_c, 0, 70, 70
2, 166080, Note_on_c, 0, 66, 70
2, 166080, Note_on_c, 0, 64, 70
2, 166268, Note_off_c, 0, 70, 100
2, 166268, Note_off_c, 0, 66, 100
2, 166268, Note_off_c, 0, 64, 100
2, 166272, Note_on_c, 0, 71, 70
2, 166272, Note_on_c, 0, 66, 70
2, 166272, Note_on_c, 0, 62, 70
2, 166460, Note_off_c, 0, 71, 100
2, 166460, Note_off_c, 0, 66, 100
2, 166460, Note_off_c, 0, 62, 100
2, 166464, Note_on_c, 0, 74, 71
2, 166464, Note_on_c, 0, 66, 71
2, 166464, Note_on_c, 0, 62, 71
2, 166652, Note_off_c, 0, 74, 100
2, 166652, Note_off_c, 0, 66, 100
2, 166652, Note_off_c, 0, 62, 100
2, 166656, Note_on_c, 0, 73, 72
2, 166656, Note_on_c, 0, 66, 72
2, 166656, Note_on_c, 0, 64, 72
2, 166844, Note_off_c, 0, 73, 100
2, 166844, Note_off_c, 0, 66, 100
2, 166844, Note_off_c, 0, 64, 100
2, 166848, Note_on_c, 0, 70, 73
2, 166848, Note_on_c, 0, 66, 73
2, 166848, Note_on_c, 0, 64, 73
2, 167036, Note_off_c, 0, 70, 100
2, 167036, Note_off_c, 0, 66, 100
2, 167036, Note_off_c, 0, 64, 100
2, 167040, Note_on_c, 0, 71, 75
2, 167040, Note_on_c, 0, 66, 75
2, 167040, Note_on_c, 0, 62, 75
2, 167228, Note_off_c, 0, 71, 100
2, 167228, Note_off_c, 0, 66, 100
2, 167228, Note_off_c, 0, 62, 100
2, 167232, Note_on_c, 0, 74, 76
2, 167232, Note_on_c, 0, 66, 76
2, 167232, Note_on_c, 0, 62, 76
2, 167420, Note_off_c, 0, 74, 100
2, 167420, Note_off_c, 0, 66, 100
2, 167420, Note_off_c, 0, 62, 100
2, 167424, Note_on_c, 0, 73, 77
2, 167424, Note_on_c, 0, 66, 77
2, 167424, Note_on_c, 0, 64, 77
2, 167612, Note_off_c, 0, 73, 100
2, 167612, Note_off_c, 0, 66, 100
2, 167612, Note_off_c, 0, 64, 100
2, 167616, Note_on_c, 0, 70, 79
2, 167616, Note_on_c, 0, 66, 79
2, 167616, Note_on_c, 0, 64, 79
2, 167804, Note_off_c, 0, 70, 100
2, 167804, Note_off_c, 0, 66, 100
2, 167804, Note_off_c, 0, 64, 100
2, 167808, Note_on_c, 0, 71, 80
2, 167808, Note_on_c, 0, 66, 80
2, 167808, Note_on_c, 0, 62, 80
2, 167996, Note_off_c, 0, 71, 100
2, 167996, Note_off_c, 0, 66, 100
2, 167996, Note_off_c, 0, 62, 100
2, 168000, Note_on_c, 0, 74, 81
2, 168000, Note_on_c, 0, 66, 81
2, 168000, Note_on_c, 0, 62, 81
2, 168188, Note_off_c, 0, 74, 100
2, 168188, Note_off_c, 0, 66, 100
2, 168188, Note_off_c, 0, 62, 100
2, 168192, Note_on_c, 0, 73, 83
2, 168192, Note_on_c, 0, 66, 83
2, 168192, Note_on_c, 0, 64, 83
2, 168380, Note_off_c, 0, 73, 100
2, 168380, Note_off_c, 0, 66, 100
2, 168380, Note_off_c, 0, 64, 100
2, 168384, Note_on_c, 0, 70, 84
2, 168384, Note_on_c, 0, 66, 84
2, 168384, Note_on_c, 0, 64, 84
2, 168572, Note_off_c, 0, 70, 100
2, 168572, Note_off_c, 0, 66, 100
2, 168572, Note_off_c, 0, 64, 100
2, 168576, Note_on_c, 0, 71, 85
2, 168576, Note_on_c, 0, 66, 85
2, 168576, Note_on_c, 0, 62, 85
2, 168764, Note_off_c, 0, 71, 100
2, 168764, Note_off_c, 0, 66, 100
2, 168764, Note_off_c, 0, 62, 100
2, 168768, Note_on_c, 0, 74, 87
2, 168768, Note_on_c, 0, 66, 87
2, 168768, Note_on_c, 0, 62, 87
2, 168956, Note_off_c, 0, 74, 100
2, 168956, Note_off_c, 0, 66, 100
2, 168956, Note_off_c, 0, 62, 100
2, 168960, Note_on_c, 0, 73, 88
2, 168960, Note_on_c, 0, 66, 88
2, 168960, Note_on_c, 0, 64, 88
2, 169148, Note_off_c, 0, 73, 100
2, 169148, Note_off_c, 0, 66, 100
2, 169148, Note_off_c, 0, 64, 100
2, 169152, Note_on_c, 0, 70, 89
2, 169152, Note_on_c, 0, 66, 89
2, 169152, Note_on_c, 0, 64, 89
2, 169340, Note_off_c, 0, 70, 100
2, 169340, Note_off_c, 0, 66, 100
2, 169340, Note_off_c, 0, 64, 100
2, 169344, Note_on_c, 0, 71, 80
2, 169344, Note_on_c, 0, 66, 80
2, 169344, Note_on_c, 0, 62, 80
2, 169724, Note_off_c, 0, 71, 100
2, 169724, Note_off_c, 0, 66, 100
2, 169724, Note_off_c, 0, 62, 100
2, 170016, Note_on_c, 0, 62, 80
2, 170016, Note_on_c, 0, 59, 80
2, 170016, Note_on_c, 0, 54, 80
2, 170492, Note_off_c, 0, 54, 64
2, 170492, Note_off_c, 0, 59, 64
2, 170492, Note_off_c, 0, 62, 64
2, 170784, Note_on_c, 0, 59, 80
2, 170784, Note_on_c, 0, 54, 80
2, 170784, Note_on_c, 0, 50, 80
2, 171260, Note_off_c, 0, 50, 64
2, 171260, Note_off_c, 0, 54, 64
2, 171260, Note_off_c, 0, 59, 64
2, 171648, Note_on_c, 0, 47, 80
2, 171836, Note_off_c, 0, 47, 100
2, 172032, Note_on_c, 0, 50, 80
2, 172220, Note_off_c, 0, 50, 100
2, 172320, Note_on_c, 0, 79, 110
2, 172988, Note_off_c, 0, 79, 64
2, 172992, Note_on_c, 0, 78, 110
2, 173084, Note_off_c, 0, 78, 100
2, 173088, Note_on_c, 0, 76, 110
2, 173180, Note_off_c, 0, 76, 100
2, 173184, Note_on_c, 0, 74, 110
2, 173276, Note_off_c, 0, 74, 100
2, 173280, Note_on_c, 0, 75, 110
2, 173372, Note_off_c, 0, 75, 100
2, 173376, Note_on_c, 0, 76, 110
2, 173468, Note_off_c, 0, 76, 100
2, 173472, Note_on_c, 0, 71, 110
2, 173564, Note_off_c, 0, 71, 100
2, 173568, Note_on_c, 0, 74, 110
2, 173660, Note_off_c, 0, 74, 100
2, 173664, Note_on_c, 0, 72, 110
2, 173756, Note_off_c, 0, 72, 100
2, 173760, Note_on_c, 0, 71, 110
2, 173852, Note_off_c, 0, 71, 100
2, 173856, Note_on_c, 0, 69, 110
2, 173948, Note_off_c, 0, 69, 100
2, 173952, Note_on_c, 0, 67, 110
2, 174332, Note_off_c, 0, 67, 100
2, 174624, Note_on_c, 0, 67, 80
2, 174624, Note_on_c, 0, 62, 80
2, 174624, Note_on_c, 0, 59, 80
2, 175004, Note_off_c, 0, 59, 64
2, 175004, Note_off_c, 0, 62, 64
2, 175004, Note_off_c, 0, 67, 64
2, 175008, Note_on_c, 0, 71, 80
2, 175008, Note_on_c, 0, 62, 80
2, 175008, Note_on_c, 0, 59, 80
2, 175388, Note_off_c, 0, 71, 100
2, 175388, Note_off_c, 0, 62, 100
2, 175388, Note_off_c, 0, 59, 100
2, 175392, Note_on_c, 0, 67, 80
2, 175392, Note_on_c, 0, 62, 80
2, 175392, Note_on_c, 0, 59, 80
2, 175676, Note_off_c, 0, 59, 64
2, 175676, Note_off_c, 0, 62, 64
2, 175676, Note_off_c, 0, 67, 64
2, 176160, Note_on_c, 0, 67, 80
2, 176160, Note_on_c, 0, 62, 80
2, 176160, Note_on_c, 0, 59, 80
2, 176540, Note_off_c, 0, 59, 64
2, 176540, Note_off_c, 0, 62, 64
2, 176540, Note_off_c, 0, 67, 64
2, 176544, Note_on_c, 0, 74, 80
2, 176544, Note_on_c, 0, 71, 80
2, 176544, Note_on_c, 0, 67, 80
2, 176544, Note_on_c, 0, 62, 80
2, 176924, Note_off_c, 0, 74, 100
2, 176924, Note_off_c, 0, 71, 100
2, 176924, Note_off_c, 0, 67, 100
2, 176924, Note_off_c, 0, 62, 100
2, 176928, Note_on_c, 0, 67, 80
2, 176928, Note_on_c, 0, 62, 80
2, 176928, Note_on_c, 0, 59, 80
2, 177212, Note_off_c, 0, 59, 64
2, 177212, Note_off_c, 0, 62, 64
2, 177212, Note_off_c, 0, 67, 64
2, 177696, Note_on_c, 0, 67, 110
2, 177696, Note_on_c, 0, 55, 110
2, 178076, Note_off_c, 0, 55, 64
2, 178076, Note_off_c, 0, 67, 64
2, 178080, Note_on_c, 0, 79, 110
2, 178080, Note_on_c, 0, 67, 110
2, 178460, Note_off_c, 0, 79, 100
2, 178460, Note_off_c, 0, 67, 100
2, 178464, Note_on_c, 0, 67, 110
2, 178464, Note_on_c, 0, 55, 110
2, 178844, Note_off_c, 0, 55, 64
2, 178844, Note_off_c, 0, 67, 64
2, 178848, Note_on_c, 0, 79, 110
2, 178848, Note_on_c, 0, 67, 110
2, 179228, Note_off_c, 0, 79, 100
2, 179228, Note_off_c, 0, 67, 100
2, 179232, Note_on_c, 0, 67, 110
2, 179232, Note_on_c, 0, 55, 110
2, 179612, Note_off_c, 0, 55, 64
2, 179612, Note_off_c, 0, 67, 64
2, 179616, Note_on_c, 0, 79, 110
2, 179616, Note_on_c, 0, 67, 110
2, 179996, Note_off_c, 0, 79, 100
2, 179996, Note_off_c, 0, 67, 100
2, 180000, Note_on_c, 0, 67, 110
2, 180000, Note_on_c, 0, 55, 110
2, 180284, Note_off_c, 0, 55, 64
2, 180284, Note_off_c, 0, 67, 64
2, 180768, Note_on_c, 0, 72, 80
2, 181148, Note_off_c, 0, 72, 64
2, 181152, Note_on_c, 0, 75, 80
2, 181532, Note_off_c, 0, 75, 100
2, 181536, Note_on_c, 0, 72, 80
2, 181820, Note_off_c, 0, 72, 64
2, 182304, Note_on_c, 0, 72, 80
2, 182684, Note_off_c, 0, 72, 64
2, 182688, Note_on_c, 0, 84, 80
2, 183068, Note_off_c, 0, 84, 100
2, 183072, Note_on_c, 0, 72, 80
2, 183356, Note_off_c, 0, 72, 64
2, 183840, Note_on_c, 0, 72, 110
2, 183840, Note_on_c, 0, 60, 110
2, 184220, Note_off_c, 0, 60, 64
2, 184220, Note_off_c, 0, 72, 64
2, 184224, Note_on_c, 0, 72, 110
2, 184224, Note_on_c, 0, 84, 110
2, 184604, Note_off_c, 0, 72, 100
2, 184604, Note_off_c, 0, 84, 100
2, 184608, Note_on_c, 0, 72, 110
2, 184608, Note_on_c, 0, 60, 110
2, 184988, Note_off_c, 0, 60, 64
2, 184988, Note_off_c, 0, 72, 64
2, 184992, Note_on_c, 0, 72, 110
2, 184992, Note_on_c, 0, 84, 110
2, 185372, Note_off_c, 0, 72, 100
2, 185372, Note_off_c, 0, 84, 100
2, 185376, Note_on_c, 0, 72, 110
2, 185376, Note_on_c, 0, 60, 110
2, 185756, Note_off_c, 0, 60, 64
2, 185756, Note_off_c, 0, 72, 64
2, 185760, Note_on_c, 0, 72, 110
2, 185760, Note_on_c, 0, 84, 110
2, 186140, Note_off_c, 0, 72, 100
2, 186140, Note_off_c, 0, 84, 100
2, 186144, Note_on_c, 0, 72, 110
2, 186144, Note_on_c, 0, 60, 110
2, 186524, Note_off_c, 0, 60, 64
2, 186524, Note_off_c, 0, 72, 64
2, 186528, Note_on_c, 0, 72, 110
2, 186528, Note_on_c, 0, 84, 110
2, 186908, Note_off_c, 0, 72, 100
2, 186908, Note_off_c, 0, 84, 100
2, 186912, Note_on_c, 0, 77, 110
2, 186912, Note_on_c, 0, 65, 110
2, 187292, Note_off_c, 0, 65, 64
2, 187292, Note_off_c, 0, 77, 64
2, 187296, Note_on_c, 0, 89, 110
2, 187296, Note_on_c, 0, 77, 110
2, 187676, Note_off_c, 0, 89, 100
2, 187676, Note_off_c, 0, 77, 100
2, 187680, Note_on_c, 0, 77, 110
2, 187680, Note_on_c, 0, 65, 110
2, 188060, Note_off_c, 0, 65, 64
2, 188060, Note_off_c, 0, 77, 64
2, 188064, Note_on_c, 0, 89, 110
2, 188064, Note_on_c, 0, 77, 110
2, 188444, Note_off_c, 0, 89, 100
2, 188444, Note_off_c, 0, 77, 100
2, 188448, Note_on_c, 0, 77, 110
2, 188448, Note_on_c, 0, 65, 110
2, 188828, Note_off_c, 0, 65, 64
2, 188828, Note_off_c, 0, 77, 64
2, 188832, Note_on_c, 0, 89, 110
2, 188832, Note_on_c, 0, 77, 110
2, 189212, Note_off_c, 0, 89, 100
2, 189212, Note_off_c, 0, 77, 100
2, 189216, Note_on_c, 0, 77, 110
2, 189216, Note_on_c, 0, 65, 110
2, 189312, Control_c, 0, 64, 127
2, 189312, Control_c, 0, 64, 127
2, 189404, Note_off_c, 0, 65, 64
2, 189404, Note_off_c, 0, 77, 64
2, 189408, Note_on_c, 0, 85, 110
2, 189500, Note_off_c, 0, 85, 100
2, 189504, Note_on_c, 0, 86, 110
2, 189596, Note_off_c, 0, 86, 100
2, 189600, Note_on_c, 0, 81, 110
2, 189688, Control_c, 0, 64, 0
2, 189688, Control_c, 0, 64, 0
2, 189692, Note_off_c, 0, 81, 100
2, 189696, Control_c, 0, 64, 127
2, 189696, Control_c, 0, 64, 127
2, 189696, Note_on_c, 0, 84, 110
2, 189788, Note_off_c, 0, 84, 100
2, 189792, Note_on_c, 0, 82, 110
2, 189884, Note_off_c, 0, 82, 100
2, 189888, Note_on_c, 0, 81, 110
2, 189980, Note_off_c, 0, 81, 100
2, 189984, Note_on_c, 0, 79, 110
2, 190072, Control_c, 0, 64, 0
2, 190072, Control_c, 0, 64, 0
2, 190076, Note_off_c, 0, 79, 100
2, 190080, Control_c, 0, 64, 127
2, 190080, Note_on_c, 0, 77, 110
2, 190172, Note_off_c, 0, 77, 100
2, 190176, Note_on_c, 0, 78, 110
2, 190268, Note_off_c, 0, 78, 100
2, 190272, Note_on_c, 0, 79, 110
2, 190364, Note_off_c, 0, 79, 100
2, 190368, Note_on_c, 0, 74, 110
2, 190456, Control_c, 0, 64, 0
2, 190460, Note_off_c, 0, 74, 100
2, 190464, Control_c, 0, 64, 127
2, 190464, Note_on_c, 0, 77, 110
2, 190556, Note_off_c, 0, 77, 100
2, 190560, Note_on_c, 0, 75, 110
2, 190652, Note_off_c, 0, 75, 100
2, 190656, Note_on_c, 0, 74, 110
2, 190748, Note_off_c, 0, 74, 100
2, 190752, Note_on_c, 0, 72, 110
2, 190840, Control_c, 0, 64, 0
2, 190844, Note_off_c, 0, 72, 100
2, 190848, Control_c, 0, 64, 127
2, 190848, Note_on_c, 0, 70, 110
2, 190940, Note_off_c, 0, 70, 100
2, 190944, Note_on_c, 0, 73, 110
2, 191036, Note_off_c, 0, 73, 100
2, 191040, Note_on_c, 0, 74, 110
2, 191132, Note_off_c, 0, 74, 100
2, 191136, Note_on_c, 0, 69, 110
2, 191224, Control_c, 0, 64, 0
2, 191228, Note_off_c, 0, 69, 100
2, 191232, Control_c, 0, 64, 127
2, 191232, Note_on_c, 0, 72, 110
2, 191324, Note_off_c, 0, 72, 100
2, 191328, Note_on_c, 0, 70, 110
2, 191420, Note_off_c, 0, 70, 100
2, 191424, Note_on_c, 0, 69, 110
2, 191516, Note_off_c, 0, 69, 100
2, 191520, Note_on_c, 0, 67, 110
2, 191608, Control_c, 0, 64, 0
2, 191612, Note_off_c, 0, 67, 100
2, 191616, Control_c, 0, 64, 127
2, 191616, Note_on_c, 0, 65, 110
2, 191708, Note_off_c, 0, 65, 100
2, 191712, Note_on_c, 0, 66, 110
2, 191804, Note_off_c, 0, 66, 100
2, 191808, Note_on_c, 0, 67, 110
2, 191900, Note_off_c, 0, 67, 100
2, 191904, Note_on_c, 0, 62, 110
2, 191992, Control_c, 0, 64, 0
2, 191996, Note_off_c, 0, 62, 100
2, 192000, Control_c, 0, 64, 127
2, 192000, Note_on_c, 0, 65, 110
2, 192092, Note_off_c, 0, 65, 100
2, 192096, Note_on_c, 0, 63, 110
2, 192188, Note_off_c, 0, 63, 100
2, 192192, Note_on_c, 0, 62, 110
2, 192284, Note_off_c, 0, 62, 100
2, 192288, Note_on_c, 0, 60, 110
2, 192376, Control_c, 0, 64, 0
2, 192380, Note_off_c, 0, 60, 100
2, 192384, Control_c, 0, 64, 127
2, 192384, Note_on_c, 0, 58, 110
2, 192476, Note_off_c, 0, 58, 100
2, 192480, Note_on_c, 0, 61, 110
2, 192572, Note_off_c, 0, 61, 100
2, 192576, Note_on_c, 0, 62, 110
2, 192668, Note_off_c, 0, 62, 100
2, 192672, Note_on_c, 0, 57, 110
2, 192760, Control_c, 0, 64, 0
2, 192764, Note_off_c, 0, 57, 100
2, 192768, Control_c, 0, 64, 127
2, 192768, Note_on_c, 0, 60, 110
2, 192860, Note_off_c, 0, 60, 100
2, 192864, Note_on_c, 0, 58, 110
2, 192956, Note_off_c, 0, 58, 100
2, 192960, Note_on_c, 0, 57, 110
2, 193052, Note_off_c, 0, 57, 100
2, 193056, Note_on_c, 0, 55, 110
2, 193144, Control_c, 0, 64, 0
2, 193148, Note_off_c, 0, 55, 100
2, 193152, Control_c, 0, 64, 127
2, 193152, Note_on_c, 0, 53, 110
2, 193244, Note_off_c, 0, 53, 100
2, 193248, Note_on_c, 0, 55, 110
2, 193340, Note_off_c, 0, 55, 100
2, 193344, Note_on_c, 0, 56, 110
2, 193436, Note_off_c, 0, 56, 100
2, 193440, Note_on_c, 0, 55, 110
2, 193528, Control_c, 0, 64, 0
2, 193532, Note_off_c, 0, 55, 100
2, 193536, Control_c, 0, 64, 127
2, 193536, Note_on_c, 0, 53, 110
2, 193628, Note_off_c, 0, 53, 100
2, 193632, Note_on_c, 0, 51, 110
2, 193724, Note_off_c, 0, 51, 100
2, 193728, Note_on_c, 0, 50, 110
2, 193820, Note_off_c, 0, 50, 100
2, 193824, Note_on_c, 0, 48, 110
2, 193912, Control_c, 0, 64, 0
2, 193916, Note_off_c, 0, 48, 100
2, 193920, Note_on_c, 0, 47, 110
2, 194108, Note_off_c, 0, 47, 100
2, 194304, Note_on_c, 0, 79, 110
2, 194688, Control_c, 0, 64, 127
2, 195064, Control_c, 0, 64, 0
2, 195068, Note_off_c, 0, 79, 64
2, 195072, Control_c, 0, 64, 127
2, 195072, Note_on_c, 0, 77, 110
2, 195120, Note_on_c, 0, 79, 110
2, 195164, Note_off_c, 0, 77, 100
2, 195168, Note_on_c, 0, 77, 110
2, 195212, Note_off_c, 0, 79, 100
2, 195216, Note_on_c, 0, 79, 110
2, 195260, Note_off_c, 0, 77, 100
2, 195264, Note_on_c, 0, 77, 110
2, 195308, Note_off_c, 0, 79, 100
2, 195312, Note_on_c, 0, 79, 110
2, 195356, Note_off_c, 0, 77, 100
2, 195360, Note_on_c, 0, 76, 110
2, 195404, Note_off_c, 0, 79, 100
2, 195408, Note_on_c, 0, 77, 110
2, 195448, Control_c, 0, 64, 0
2, 195452, Note_off_c, 0, 76, 100
2, 195452, Note_off_c, 0, 77, 100
2, 195456, Control_c, 0, 64, 127
2, 195456, Note_on_c, 0, 75, 110
2, 195548, Note_off_c, 0, 75, 100
2, 195552, Note_on_c, 0, 86, 110
2, 195644, Note_off_c, 0, 86, 100
2, 195648, Note_on_c, 0, 87, 110
2, 195740, Note_off_c, 0, 87, 100
2, 195744, Note_on_c, 0, 83, 110
2, 195832, Control_c, 0, 64, 0
2, 195836, Note_off_c, 0, 83, 100
2, 195840, Control_c, 0, 64, 127
2, 195840, Note_on_c, 0, 86, 110
2, 195932, Note_off_c, 0, 86, 100
2, 195936, Note_on_c, 0, 84, 110
2, 196028, Note_off_c, 0, 84, 100
2, 196032, Note_on_c, 0, 82, 110
2, 196124, Note_off_c, 0, 82, 100
2, 196128, Note_on_c, 0, 80, 110
2, 196216, Control_c, 0, 64, 0
2, 196220, Note_off_c, 0, 80, 100
2, 196224, Control_c, 0, 64, 127
2, 196224, Note_on_c, 0, 79, 110
2, 196316, Note_off_c, 0, 79, 100
2, 196320, Note_on_c, 0, 80, 110
2, 196412, Note_off_c, 0, 80, 100
2, 196416, Note_on_c, 0, 79, 110
2, 196508, Note_off_c, 0, 79, 100
2, 196512, Note_on_c, 0, 78, 110
2, 196600, Control_c, 0, 64, 0
2, 196604, Note_off_c, 0, 78, 100
2, 196608, Control_c, 0, 64, 127
2, 196608, Note_on_c, 0, 79, 110
2, 196700, Note_off_c, 0, 79, 100
2, 196704, Note_on_c, 0, 77, 110
2, 196796, Note_off_c, 0, 77, 100
2, 196800, Note_on_c, 0, 75, 110
2, 196892, Note_off_c, 0, 75, 100
2, 196896, Note_on_c, 0, 74, 110
2, 196984, Control_c, 0, 64, 0
2, 196988, Note_off_c, 0, 74, 100
2, 196992, Control_c, 0, 64, 127
2, 196992, Note_on_c, 0, 72, 110
2, 197084, Note_off_c, 0, 72, 100
2, 197088, Note_on_c, 0, 74, 110
2, 197180, Note_off_c, 0, 74, 100
2, 197184, Note_on_c, 0, 75, 110
2, 197276, Note_off_c, 0, 75, 100
2, 197280, Note_on_c, 0, 71, 110
2, 197368, Control_c, 0, 64, 0
2, 197372, Note_off_c, 0, 71, 100
2, 197376, Control_c, 0, 64, 127
2, 197376, Note_on_c, 0, 74, 110
2, 197468, Note_off_c, 0, 74, 100
2, 197472, Note_on_c, 0, 72, 110
2, 197564, Note_off_c, 0, 72, 100
2, 197568, Note_on_c, 0, 70, 110
2, 197660, Note_off_c, 0, 70, 100
2, 197664, Note_on_c, 0, 68, 110
2, 197752, Control_c, 0, 64, 0
2, 197756, Note_off_c, 0, 68, 100
2, 197760, Control_c, 0, 64, 127
2, 197760, Note_on_c, 0, 67, 110
2, 197852, Note_off_c, 0, 67, 100
2, 197856, Note_on_c, 0, 68, 110
2, 197948, Note_off_c, 0, 68, 100
2, 197952, Note_on_c, 0, 67, 110
2, 198044, Note_off_c, 0, 67, 100
2, 198048, Note_on_c, 0, 66, 110
2, 198136, Control_c, 0, 64, 0
2, 198140, Note_off_c, 0, 66, 100
2, 198144, Control_c, 0, 64, 127
2, 198144, Note_on_c, 0, 67, 110
2, 198236, Note_off_c, 0, 67, 100
2, 198240, Note_on_c, 0, 65, 110
2, 198332, Note_off_c, 0, 65, 100
2, 198336, Note_on_c, 0, 63, 110
2, 198428, Note_off_c, 0, 63, 100
2, 198432, Note_on_c, 0, 62, 110
2, 198520, Control_c, 0, 64, 0
2, 198524, Note_off_c, 0, 62, 100
2, 198528, Control_c, 0, 64, 127
2, 198528, Note_on_c, 0, 60, 110
2, 198620, Note_off_c, 0, 60, 100
2, 198624, Note_on_c, 0, 62, 110
2, 198716, Note_off_c, 0, 62, 100
2, 198720, Note_on_c, 0, 63, 110
2, 198812, Note_off_c, 0, 63, 100
2, 198816, Note_on_c, 0, 59, 110
2, 198904, Control_c, 0, 64, 0
2, 198908, Note_off_c, 0, 59, 100
2, 198912, Control_c, 0, 64, 127
2, 198912, Note_on_c, 0, 62, 110
2, 199004, Note_off_c, 0, 62, 100
2, 199008, Note_on_c, 0, 60, 110
2, 199100, Note_off_c, 0, 60, 100
2, 199104, Note_on_c, 0, 58, 110
2, 199196, Note_off_c, 0, 58, 100
2, 199200, Note_on_c, 0, 56, 110
2, 199288, Control_c, 0, 64, 0
2, 199292, Note_off_c, 0, 56, 100
2, 199296, Control_c, 0, 64, 127
2, 199296, Note_on_c, 0, 55, 110
2, 199388, Note_off_c, 0, 55, 100
2, 199392, Note_on_c, 0, 57, 110
2, 199484, Note_off_c, 0, 57, 100
2, 199488, Note_on_c, 0, 58, 110
2, 199580, Note_off_c, 0, 58, 100
2, 199584, Note_on_c, 0, 57, 110
2, 199672, Control_c, 0, 64, 0
2, 199676, Note_off_c, 0, 57, 100
2, 199680, Control_c, 0, 64, 127
2, 199680, Note_on_c, 0, 55, 110
2, 199772, Note_off_c, 0, 55, 100
2, 199776, Note_on_c, 0, 53, 110
2, 199868, Note_off_c, 0, 53, 100
2, 199872, Note_on_c, 0, 52, 110
2, 199964, Note_off_c, 0, 52, 100
2, 199968, Note_on_c, 0, 50, 110
2, 200056, Control_c, 0, 64, 0
2, 200060, Note_off_c, 0, 50, 100
2, 200064, Note_on_c, 0, 49, 110
2, 200252, Note_off_c, 0, 49, 100
2, 200448, Note_on_c, 0, 81, 110
2, 200832, Control_c, 0, 64, 127
2, 201208, Control_c, 0, 64, 0
2, 201212, Note_off_c, 0, 81, 64
2, 201216, Control_c, 0, 64, 127
2, 201216, Note_on_c, 0, 79, 110
2, 201264, Note_on_c, 0, 81, 110
2, 201308, Note_off_c, 0, 79, 100
2, 201312, Note_on_c, 0, 79, 110
2, 201356, Note_off_c, 0, 81, 100
2, 201360, Note_on_c, 0, 81, 110
2, 201404, Note_off_c, 0, 79, 100
2, 201408, Note_on_c, 0, 79, 110
2, 201452, Note_off_c, 0, 81, 100
2, 201456, Note_on_c, 0, 81, 110
2, 201500, Note_off_c, 0, 79, 100
2, 201504, Note_on_c, 0, 77, 110
2, 201548, Note_off_c, 0, 81, 100
2, 201552, Note_on_c, 0, 79, 110
2, 201592, Control_c, 0, 64, 0
2, 201596, Note_off_c, 0, 77, 100
2, 201596, Note_off_c, 0, 79, 100
2, 201600, Control_c, 0, 64, 127
2, 201600, Note_on_c, 0, 77, 110
2, 201692, Note_off_c, 0, 77, 100
2, 201696, Note_on_c, 0, 76, 110
2, 201788, Note_off_c, 0, 76, 100
2, 201792, Note_on_c, 0, 77, 110
2, 201884, Note_off_c, 0, 77, 100
2, 201888, Note_on_c, 0, 73, 110
2, 201976, Control_c, 0, 64, 0
2, 201980, Note_off_c, 0, 73, 100
2, 201984, Control_c, 0, 64, 127
2, 201984, Note_on_c, 0, 76, 110
2, 202076, Note_off_c, 0, 76, 100
2, 202080, Note_on_c, 0, 74, 110
2, 202172, Note_off_c, 0, 74, 100
2, 202176, Note_on_c, 0, 72, 110
2, 202268, Note_off_c, 0, 72, 100
2, 202272, Note_on_c, 0, 70, 110
2, 202360, Control_c, 0, 64, 0
2, 202364, Note_off_c, 0, 70, 100
2, 202368, Control_c, 0, 64, 127
2, 202368, Note_on_c, 0, 69, 110
2, 202460, Note_off_c, 0, 69, 100
2, 202464, Note_on_c, 0, 70, 110
2, 202556, Note_off_c, 0, 70, 100
2, 202560, Note_on_c, 0, 69, 110
2, 202652, Note_off_c, 0, 69, 100
2, 202656, Note_on_c, 0, 68, 110
2, 202744, Control_c, 0, 64, 0
2, 202748, Note_off_c, 0, 68, 100
2, 202752, Control_c, 0, 64, 127
2, 202752, Note_on_c, 0, 69, 110
2, 202844, Note_off_c, 0, 69, 100
2, 202848, Note_on_c, 0, 67, 110
2, 202940, Note_off_c, 0, 67, 100
2, 202944, Note_on_c, 0, 65, 110
2, 203036, Note_off_c, 0, 65, 100
2, 203040, Note_on_c, 0, 64, 110
2, 203128, Control_c, 0, 64, 0
2, 203132, Note_off_c, 0, 64, 100
2, 203136, Control_c, 0, 64, 127
2, 203136, Note_on_c, 0, 62, 110
2, 203228, Note_off_c, 0, 62, 100
2, 203232, Note_on_c, 0, 64, 110
2, 203324, Note_off_c, 0, 64, 100
2, 203328, Note_on_c, 0, 65, 110
2, 203420, Note_off_c, 0, 65, 100
2, 203424, Note_on_c, 0, 61, 110
2, 203512, Control_c, 0, 64, 0
2, 203516, Note_off_c, 0, 61, 100
2, 203520, Control_c, 0, 64, 127
2, 203520, Note_on_c, 0, 64, 110
2, 203612, Note_off_c, 0, 64, 100
2, 203616, Note_on_c, 0, 62, 110
2, 203708, Note_off_c, 0, 62, 100
2, 203712, Note_on_c, 0, 60, 110
2, 203804, Note_off_c, 0, 60, 100
2, 203808, Note_on_c, 0, 58, 110
2, 203896, Control_c, 0, 64, 0
2, 203900, Note_off_c, 0, 58, 100
2, 203904, Control_c, 0, 64, 127
2, 203904, Note_on_c, 0, 57, 110
2, 203996, Note_off_c, 0, 57, 100
2, 204000, Note_on_c, 0, 58, 110
2, 204092, Note_off_c, 0, 58, 100
2, 204096, Note_on_c, 0, 60, 110
2, 204188, Note_off_c, 0, 60, 100
2, 204192, Note_on_c, 0, 58, 110
2, 204280, Control_c, 0, 64, 0
2, 204284, Note_off_c, 0, 58, 100
2, 204288, Control_c, 0, 64, 127
2, 204288, Note_on_c, 0, 57, 110
2, 204380, Note_off_c, 0, 57, 100
2, 204384, Note_on_c, 0, 58, 110
2, 204476, Note_off_c, 0, 58, 100
2, 204480, Note_on_c, 0, 57, 110
2, 204572, Note_off_c, 0, 57, 100
2, 204576, Note_on_c, 0, 55, 110
2, 204664, Control_c, 0, 64, 0
2, 204668, Note_off_c, 0, 55, 100
2, 204672, Control_c, 0, 64, 127
2, 204672, Note_on_c, 0, 54, 110
2, 204764, Note_off_c, 0, 54, 100
2, 204768, Note_on_c, 0, 57, 110
2, 204860, Note_off_c, 0, 57, 100
2, 204864, Note_on_c, 0, 55, 110
2, 204956, Note_off_c, 0, 55, 100
2, 204960, Note_on_c, 0, 58, 110
2, 205048, Control_c, 0, 64, 0
2, 205052, Note_off_c, 0, 58, 100
2, 205056, Control_c, 0, 64, 127
2, 205056, Note_on_c, 0, 57, 110
2, 205148, Note_off_c, 0, 57, 100
2, 205152, Note_on_c, 0, 60, 110
2, 205244, Note_off_c, 0, 60, 100
2, 205248, Note_on_c, 0, 58, 110
2, 205340, Note_off_c, 0, 58, 100
2, 205344, Note_on_c, 0, 62, 110
2, 205432, Control_c, 0, 64, 0
2, 205436, Note_off_c, 0, 62, 100
2, 205440, Control_c, 0, 64, 127
2, 205440, Note_on_c, 0, 60, 110
2, 205532, Note_off_c, 0, 60, 100
2, 205536, Note_on_c, 0, 63, 110
2, 205628, Note_off_c, 0, 63, 100
2, 205632, Note_on_c, 0, 62, 110
2, 205724, Note_off_c, 0, 62, 100
2, 205728, Note_on_c, 0, 60, 110
2, 205816, Control_c, 0, 64, 0
2, 205820, Note_off_c, 0, 60, 100
2, 205824, Control_c, 0, 64, 127
2, 205824, Note_on_c, 0, 58, 110
2, 205916, Note_off_c, 0, 58, 100
2, 205920, Note_on_c, 0, 57, 110
2, 206012, Note_off_c, 0, 57, 100
2, 206016, Note_on_c, 0, 55, 110
2, 206108, Note_off_c, 0, 55, 100
2, 206112, Note_on_c, 0, 54, 110
2, 206200, Control_c, 0, 64, 0
2, 206204, Note_off_c, 0, 54, 100
2, 206208, Note_on_c, 0, 55, 110
2, 206300, Note_off_c, 0, 55, 100
2, 206304, Note_on_c, 0, 57, 110
2, 206396, Note_off_c, 0, 57, 100
2, 206400, Note_on_c, 0, 58, 110
2, 206492, Note_off_c, 0, 58, 100
2, 206496, Note_on_c, 0, 57, 110
2, 206588, Note_off_c, 0, 57, 100
2, 206592, Note_on_c, 0, 55, 110
2, 206684, Note_off_c, 0, 55, 100
2, 206688, Note_on_c, 0, 53, 110
2, 206780, Note_off_c, 0, 53, 100
2, 206784, Note_on_c, 0, 51, 110
2, 206876, Note_off_c, 0, 51, 100
2, 206880, Note_on_c, 0, 50, 110
2, 206972, Note_off_c, 0, 50, 100
2, 206976, Control_c, 0, 64, 127
2, 206976, Note_on_c, 0, 49, 110
2, 207068, Note_off_c, 0, 49, 100
2, 207072, Note_on_c, 0, 50, 110
2, 207164, Note_off_c, 0, 50, 100
2, 207168, Note_on_c, 0, 52, 110
2, 207260, Note_off_c, 0, 52, 100
2, 207264, Note_on_c, 0, 50, 110
2, 207352, Control_c, 0, 64, 0
2, 207356, Note_off_c, 0, 50, 100
2, 207360, Control_c, 0, 64, 127
2, 207360, Note_on_c, 0, 49, 110
2, 207452, Note_off_c, 0, 49, 100
2, 207456, Note_on_c, 0, 55, 110
2, 207548, Note_off_c, 0, 55, 100
2, 207552, Note_on_c, 0, 52, 110
2, 207644, Note_off_c, 0, 52, 100
2, 207648, Note_on_c, 0, 49, 110
2, 207736, Control_c, 0, 64, 0
2, 207740, Note_off_c, 0, 49, 100
2, 207744, Control_c, 0, 64, 127
2, 207744, Note_on_c, 0, 50, 110
2, 207836, Note_off_c, 0, 50, 100
2, 207840, Note_on_c, 0, 54, 110
2, 207932, Note_off_c, 0, 54, 100
2, 207936, Note_on_c, 0, 57, 110
2, 208028, Note_off_c, 0, 57, 100
2, 208032, Note_on_c, 0, 54, 110
2, 208120, Control_c, 0, 64, 0
2, 208124, Note_off_c, 0, 54, 100
2, 208128, Control_c, 0, 64, 127
2, 208128, Note_on_c, 0, 58, 120
2, 208220, Note_off_c, 0, 58, 100
2, 208224, Note_on_c, 0, 55, 110
2, 208316, Note_off_c, 0, 55, 100
2, 208320, Note_on_c, 0, 51, 110
2, 208412, Note_off_c, 0, 51, 100
2, 208416, Note_on_c, 0, 49, 110
2, 208504, Control_c, 0, 64, 0
2, 208508, Note_off_c, 0, 49, 100
2, 208512, Control_c, 0, 64, 127
2, 208512, Note_on_c, 0, 50, 110
2, 208604, Note_off_c, 0, 50, 100
2, 208608, Note_on_c, 0, 54, 110
2, 208700, Note_off_c, 0, 54, 100
2, 208704, Note_on_c, 0, 57, 110
2, 208796, Note_off_c, 0, 57, 100
2, 208800, Note_on_c, 0, 54, 110
2, 208888, Control_c, 0, 64, 0
2, 208892, Note_off_c, 0, 54, 100
2, 208896, Control_c, 0, 64, 127
2, 208896, Note_on_c, 0, 58, 120
2, 208988, Note_off_c, 0, 58, 100
2, 208992, Note_on_c, 0, 55, 110
2, 209084, Note_off_c, 0, 55, 100
2, 209088, Note_on_c, 0, 51, 110
2, 209180, Note_off_c, 0, 51, 100
2, 209184, Note_on_c, 0, 49, 110
2, 209272, Control_c, 0, 64, 0
2, 209276, Note_off_c, 0, 49, 100
2, 209280, Control_c, 0, 64, 127
2, 209280, Note_on_c, 0, 50, 110
2, 209372, Note_off_c, 0, 50, 100
2, 209376, Note_on_c, 0, 54, 110
2, 209468, Note_off_c, 0, 54, 100
2, 209472, Note_on_c, 0, 57, 110
2, 209564, Note_off_c, 0, 57, 100
2, 209568, Note_on_c, 0, 54, 110
2, 209656, Control_c, 0, 64, 0
2, 209660, Note_off_c, 0, 54, 100
2, 209664, Control_c, 0, 64, 127
2, 209664, Note_on_c, 0, 58, 120
2, 209756, Note_off_c, 0, 58, 100
2, 209760, Note_on_c, 0, 55, 110
2, 209852, Note_off_c, 0, 55, 100
2, 209856, Note_on_c, 0, 51, 110
2, 209948, Note_off_c, 0, 51, 100
2, 209952, Note_on_c, 0, 49, 110
2, 210040, Control_c, 0, 64, 0
2, 210044, Note_off_c, 0, 49, 100
2, 210048, Control_c, 0, 64, 127
2, 210048, Note_on_c, 0, 50, 110
2, 210140, Note_off_c, 0, 50, 100
2, 210144, Note_on_c, 0, 54, 110
2, 210236, Note_off_c, 0, 54, 100
2, 210240, Note_on_c, 0, 57, 110
2, 210332, Note_off_c, 0, 57, 100
2, 210336, Note_on_c, 0, 54, 110
2, 210424, Control_c, 0, 64, 0
2, 210428, Note_off_c, 0, 54, 100
2, 210432, Control_c, 0, 64, 127
2, 210432, Note_on_c, 0, 58, 120
2, 210524, Note_off_c, 0, 58, 100
2, 210528, Note_on_c, 0, 55, 110
2, 210620, Note_off_c, 0, 55, 100
2, 210624, Note_on_c, 0, 51, 110
2, 210716, Note_off_c, 0, 51, 100
2, 210720, Note_on_c, 0, 49, 110
2, 210808, Control_c, 0, 64, 0
2, 210812, Note_off_c, 0, 49, 100
2, 210816, Control_c, 0, 64, 127
2, 210816, Note_on_c, 0, 50, 110
2, 210908, Note_off_c, 0, 50, 100
2, 210912, Note_on_c, 0, 50, 110
2, 211004, Note_off_c, 0, 50, 100
2, 211008, Note_on_c, 0, 54, 110
2, 211100, Note_off_c, 0, 54, 100
2, 211104, Note_on_c, 0, 57, 110
2, 211192, Control_c, 0, 64, 0
2, 211196, Note_off_c, 0, 57, 100
2, 211200, Control_c, 0, 64, 127
2, 211200, Note_on_c, 0, 62, 110
2, 211292, Note_off_c, 0, 62, 100
2, 211296, Note_on_c, 0, 62, 110
2, 211388, Note_off_c, 0, 62, 100
2, 211392, Note_on_c, 0, 66, 110
2, 211484, Note_off_c, 0, 66, 100
2, 211488, Note_on_c, 0, 69, 110
2, 211576, Control_c, 0, 64, 0
2, 211580, Note_off_c, 0, 69, 100
2, 211584, Control_c, 0, 64, 127
2, 211584, Note_on_c, 0, 74, 110
2, 211676, Note_off_c, 0, 74, 100
2, 211680, Note_on_c, 0, 74, 110
2, 211772, Note_off_c, 0, 74, 100
2, 211776, Note_on_c, 0, 78, 110
2, 211868, Note_off_c, 0, 78, 100
2, 211872, Note_on_c, 0, 81, 110
2, 211960, Control_c, 0, 64, 0
2, 211964, Note_off_c, 0, 81, 100
2, 211968, Control_c, 0, 64, 127
2, 211968, Note_on_c, 0, 86, 110
2, 212060, Note_off_c, 0, 86, 100
2, 212064, Note_on_c, 0, 86, 110
2, 212156, Note_off_c, 0, 86, 100
2, 212160, Note_on_c, 0, 81, 110
2, 212252, Note_off_c, 0, 81, 100
2, 212256, Note_on_c, 0, 78, 110
2, 212344, Control_c, 0, 64, 0
2, 212348, Note_off_c, 0, 78, 100
2, 212352, Control_c, 0, 64, 127
2, 212352, Note_on_c, 0, 74, 110
2, 212444, Note_off_c, 0, 74, 100
2, 212448, Note_on_c, 0, 74, 110
2, 212540, Note_off_c, 0, 74, 100
2, 212544, Note_on_c, 0, 69, 110
2, 212636, Note_off_c, 0, 69, 100
2, 212640, Note_on_c, 0, 66, 110
2, 212728, Control_c, 0, 64, 0
2, 212732, Note_off_c, 0, 66, 100
2, 212736, Control_c, 0, 64, 127
2, 212736, Note_on_c, 0, 62, 110
2, 212828, Note_off_c, 0, 62, 100
2, 212832, Note_on_c, 0, 62, 110
2, 212924, Note_off_c, 0, 62, 100
2, 212928, Note_on_c, 0, 57, 110
2, 213020, Note_off_c, 0, 57, 100
2, 213024, Note_on_c, 0, 54, 110
2, 213112, Control_c, 0, 64, 0
2, 213116, Note_off_c, 0, 54, 100
2, 213120, Control_c, 0, 64, 127
2, 213120, Note_on_c, 0, 50, 110
2, 213212, Note_off_c, 0, 50, 100
2, 213216, Note_on_c, 0, 50, 110
2, 213308, Note_off_c, 0, 50, 100
2, 213312, Note_on_c, 0, 54, 110
2, 213404, Note_off_c, 0, 54, 100
2, 213408, Note_on_c, 0, 57, 110
2, 213496, Control_c, 0, 64, 0
2, 213500, Note_off_c, 0, 57, 100
2, 213504, Control_c, 0, 64, 127
2, 213504, Note_on_c, 0, 60, 110
2, 213596, Note_off_c, 0, 60, 100
2, 213600, Note_on_c, 0, 62, 110
2, 213692, Note_off_c, 0, 62, 100
2, 213696, Note_on_c, 0, 66, 110
2, 213788, Note_off_c, 0, 66, 100
2, 213792, Note_on_c, 0, 69, 110
2, 213880, Control_c, 0, 64, 0
2, 213884, Note_off_c, 0, 69, 100
2, 213888, Control_c, 0, 64, 127
2, 213888, Note_on_c, 0, 72, 110
2, 213980, Note_off_c, 0, 72, 100
2, 213984, Note_on_c, 0, 74, 110
2, 214076, Note_off_c, 0, 74, 100
2, 214080, Note_on_c, 0, 78, 110
2, 214172, Note_off_c, 0, 78, 100
2, 214176, Note_on_c, 0, 81, 110
2, 214264, Control_c, 0, 64, 0
2, 214268, Note_off_c, 0, 81, 100
2, 214272, Control_c, 0, 64, 127
2, 214272, Note_on_c, 0, 84, 110
2, 214364, Note_off_c, 0, 84, 100
2, 214368, Note_on_c, 0, 84, 110
2, 214460, Note_off_c, 0, 84, 100
2, 214464, Note_on_c, 0, 81, 110
2, 214556, Note_off_c, 0, 81, 100
2, 214560, Note_on_c, 0, 78, 110
2, 214648, Control_c, 0, 64, 0
2, 214652, Note_off_c, 0, 78, 100
2, 214656, Control_c, 0, 64, 127
2, 214656, Note_on_c, 0, 74, 110
2, 214748, Note_off_c, 0, 74, 100
2, 214752, Note_on_c, 0, 72, 110
2, 214844, Note_off_c, 0, 72, 100
2, 214848, Note_on_c, 0, 69, 110
2, 214940, Note_off_c, 0, 69, 100
2, 214944, Note_on_c, 0, 66, 110
2, 215032, Control_c, 0, 64, 0
2, 215036, Note_off_c, 0, 66, 100
2, 215040, Control_c, 0, 64, 127
2, 215040, Note_on_c, 0, 62, 110
2, 215132, Note_off_c, 0, 62, 100
2, 215136, Note_on_c, 0, 60, 110
2, 215228, Note_off_c, 0, 60, 100
2, 215232, Note_on_c, 0, 57, 110
2, 215324, Note_off_c, 0, 57, 100
2, 215328, Note_on_c, 0, 54, 110
2, 215416, Control_c, 0, 64, 0
2, 215420, Note_off_c, 0, 54, 100
2, 215424, Control_c, 0, 64, 127
2, 215424, Note_on_c, 0, 50, 110
2, 215516, Note_off_c, 0, 50, 100
2, 215520, Note_on_c, 0, 50, 110
2, 215612, Note_off_c, 0, 50, 100
2, 215616, Note_on_c, 0, 54, 110
2, 215708, Note_off_c, 0, 54, 100
2, 215712, Note_on_c, 0, 57, 110
2, 215800, Control_c, 0, 64, 0
2, 215804, Note_off_c, 0, 57, 100
2, 215808, Control_c, 0, 64, 127
2, 215808, Note_on_c, 0, 60, 110
2, 215900, Note_off_c, 0, 60, 100
2, 215904, Note_on_c, 0, 60, 110
2, 215996, Note_off_c, 0, 60, 100
2, 216000, Note_on_c, 0, 57, 110
2, 216092, Note_off_c, 0, 57, 100
2, 216096, Note_on_c, 0, 54, 110
2, 216184, Control_c, 0, 64, 0
2, 216188, Note_off_c, 0, 54, 100
2, 216192, Note_on_c, 0, 50, 110
2, 216476, Note_off_c, 0, 50, 100
2, 216480, Note_on_c, 0, 50, 80
2, 216860, Note_off_c, 0, 50, 100
2, 216864, Note_on_c, 0, 50, 80
2, 217244, Note_off_c, 0, 50, 64
2, 217248, Note_on_c, 0, 50, 80
2, 217628, Note_off_c, 0, 50, 100
2, 217632, Note_on_c, 0, 50, 80
2, 218012, Note_off_c, 0, 50, 64
2, 218016, Note_on_c, 0, 50, 80
2, 218396, Note_off_c, 0, 50, 100
2, 218400, Note_on_c, 0, 50, 80
2, 218780, Note_off_c, 0, 50, 64
2, 218784, Note_on_c, 0, 50, 80
2, 219164, Note_off_c, 0, 50, 100
2, 219168, Note_on_c, 0, 50, 80
2, 219548, Note_off_c, 0, 50, 64
2, 219552, Note_on_c, 0, 50, 80
2, 219932, Note_off_c, 0, 50, 100
2, 219936, Note_on_c, 0, 50, 80
2, 220316, Note_off_c, 0, 50, 64
2, 220320, Note_on_c, 0, 50, 80
2, 220700, Note_off_c, 0, 50, 100
2, 220704, Note_on_c, 0, 50, 80
2, 221084, Note_off_c, 0, 50, 64
2, 221088, Note_on_c, 0, 50, 80
2, 221468, Note_off_c, 0, 50, 100
2, 221472, Note_on_c, 0, 50, 80
2, 221852, Note_off_c, 0, 50, 64
2, 221856, Note_on_c, 0, 50, 80
2, 222236, Note_off_c, 0, 50, 100
2, 222240, Note_on_c, 0, 50, 80
2, 222620, Note_off_c, 0, 50, 64
2, 222624, Note_on_c, 0, 50, 80
2, 223004, Note_off_c, 0, 50, 100
2, 223008, Note_on_c, 0, 50, 80
2, 223388, Note_off_c, 0, 50, 64
2, 223392, Note_on_c, 0, 50, 80
2, 223772, Note_off_c, 0, 50, 100
2, 223776, Note_on_c, 0, 50, 80
2, 224156, Note_off_c, 0, 50, 64
2, 224160, Note_on_c, 0, 50, 80
2, 224540, Note_off_c, 0, 50, 100
2, 224544, Note_on_c, 0, 50, 80
2, 224924, Note_off_c, 0, 50, 64
2, 224928, Note_on_c, 0, 50, 80
2, 225308, Note_off_c, 0, 50, 100
2, 225312, Note_on_c, 0, 50, 80
2, 225788, Note_off_c, 0, 50, 64
2, 226080, Note_on_c, 0, 60, 80
2, 226080, Note_on_c, 0, 57, 80
2, 226080, Note_on_c, 0, 54, 80
2, 226080, Note_on_c, 0, 50, 80
2, 226556, Note_off_c, 0, 50, 64
2, 226556, Note_off_c, 0, 54, 64
2, 226556, Note_off_c, 0, 57, 64
2, 226556, Note_off_c, 0, 60, 64
2, 226848, Note_on_c, 0, 50, 80
2, 227324, Note_off_c, 0, 50, 64
2, 227616, Note_on_c, 0, 60, 80
2, 227616, Note_on_c, 0, 57, 80
2, 227616, Note_on_c, 0, 54, 80
2, 227616, Note_on_c, 0, 50, 80
2, 228092, Note_off_c, 0, 50, 64
2, 228092, Note_off_c, 0, 54, 64
2, 228092, Note_off_c, 0, 57, 64
2, 228092, Note_off_c, 0, 60, 64
2, 228384, Note_on_c, 0, 50, 80
2, 228860, Note_off_c, 0, 50, 64
2, 229152, Note_on_c, 0, 60, 80
2, 229152, Note_on_c, 0, 57, 80
2, 229152, Note_on_c, 0, 54, 80
2, 229152, Note_on_c, 0, 50, 80
2, 229628, Note_off_c, 0, 50, 64
2, 229628, Note_off_c, 0, 54, 64
2, 229628, Note_off_c, 0, 57, 64
2, 229628, Note_off_c, 0, 60, 64
2, 229920, Note_on_c, 0, 60, 80
2, 229920, Note_on_c, 0, 57, 80
2, 229920, Note_on_c, 0, 54, 80
2, 229920, Note_on_c, 0, 50, 80
2, 230396, Note_off_c, 0, 50, 64
2, 230396, Note_off_c, 0, 54, 64
2, 230396, Note_off_c, 0, 57, 64
2, 230396, Note_off_c, 0, 60, 64
2, 231456, Note_on_c, 0, 60, 70
2, 231456, Note_on_c, 0, 57, 70
2, 231456, Note_on_c, 0, 54, 70
2, 231456, Note_on_c, 0, 50, 70
2, 231932, Note_off_c, 0, 50, 64
2, 231932, Note_off_c, 0, 54, 64
2, 231932, Note_off_c, 0, 57, 64
2, 231932, Note_off_c, 0, 60, 64
2, 232992, Note_on_c, 0, 60, 70
2, 232992, Note_on_c, 0, 57, 70
2, 232992, Note_on_c, 0, 54, 70
2, 232992, Note_on_c, 0, 50, 70
2, 233468, Note_off_c, 0, 50, 64
2, 233468, Note_off_c, 0, 54, 64
2, 233468, Note_off_c, 0, 57, 64
2, 233468, Note_off_c, 0, 60, 64
2, 234528, Note_on_c, 0, 79, 120
2, 235196, Note_off_c, 0, 79, 64
2, 235200, Note_on_c, 0, 78, 120
2, 235292, Note_off_c, 0, 78, 100
2, 235296, Note_on_c, 0, 76, 120
2, 235388, Note_off_c, 0, 76, 100
2, 235392, Note_on_c, 0, 74, 120
2, 235484, Note_off_c, 0, 74, 100
2, 235488, Note_on_c, 0, 75, 120
2, 235580, Note_off_c, 0, 75, 100
2, 235584, Note_on_c, 0, 76, 120
2, 235676, Note_off_c, 0, 76, 100
2, 235680, Note_on_c, 0, 71, 120
2, 235772, Note_off_c, 0, 71, 100
2, 235776, Note_on_c, 0, 74, 120
2, 235868, Note_off_c, 0, 74, 100
2, 235872, Note_on_c, 0, 72, 120
2, 235964, Note_off_c, 0, 72, 100
2, 235968, Note_on_c, 0, 71, 120
2, 236060, Note_off_c, 0, 71, 100
2, 236064, Note_on_c, 0, 69, 120
2, 236156, Note_off_c, 0, 69, 100
2, 236160, Note_on_c, 0, 67, 120
2, 236540, Note_off_c, 0, 67, 100
2, 236832, Note_on_c, 0, 67, 80
2, 236832, Note_on_c, 0, 62, 80
2, 236832, Note_on_c, 0, 59, 80
2, 237212, Note_off_c, 0, 59, 64
2, 237212, Note_off_c, 0, 62, 64
2, 237212, Note_off_c, 0, 67, 64
2, 237216, Note_on_c, 0, 71, 80
2, 237216, Note_on_c, 0, 62, 80
2, 237216, Note_on_c, 0, 59, 80
2, 237596, Note_off_c, 0, 71, 100
2, 237596, Note_off_c, 0, 62, 100
2, 237596, Note_off_c, 0, 59, 100
2, 237600, Note_on_c, 0, 67, 80
2, 237600, Note_on_c, 0, 62, 80
2, 237600, Note_on_c, 0, 59, 80
2, 237884, Note_off_c, 0, 59, 64
2, 237884, Note_off_c, 0, 62, 64
2, 237884, Note_off_c, 0, 67, 64
2, 238368, Note_on_c, 0, 67, 80
2, 238368, Note_on_c, 0, 62, 80
2, 238368, Note_on_c, 0, 59, 80
2, 238748, Note_off_c, 0, 59, 64
2, 238748, Note_off_c, 0, 62, 64
2, 238748, Note_off_c, 0, 67, 64
2, 238752, Note_on_c, 0, 74, 80
2, 238752, Note_on_c, 0, 71, 80
2, 238752, Note_on_c, 0, 67, 80
2, 238752, Note_on_c, 0, 62, 80
2, 239132, Note_off_c, 0, 74, 100
2, 239132, Note_off_c, 0, 71, 100
2, 239132, Note_off_c, 0, 67, 100
2, 239132, Note_off_c, 0, 62, 100
2, 239136, Note_on_c, 0, 67, 80
2, 239136, Note_on_c, 0, 62, 80
2, 239136, Note_on_c, 0, 59, 80
2, 239420, Note_off_c, 0, 59, 64
2, 239420, Note_off_c, 0, 62, 64
2, 239420, Note_off_c, 0, 67, 64
2, 239904, Note_on_c, 0, 71, 110
2, 239904, Note_on_c, 0, 67, 110
2, 239904, Note_on_c, 0, 62, 110
2, 239904, Note_on_c, 0, 59, 110
2, 240280, Note_off_c, 0, 59, 64
2, 240280, Note_off_c, 0, 62, 64
2, 240280, Note_off_c, 0, 67, 64
2, 240280, Note_off_c, 0, 71, 64
2, 240288, Note_on_c, 0, 76, 110
2, 240288, Note_on_c, 0, 79, 110
2, 240288, Note_on_c, 0, 71, 110
2, 240288, Note_on_c, 0, 67, 110
2, 240668, Note_off_c, 0, 76, 100
2, 240668, Note_off_c, 0, 79, 100
2, 240668, Note_off_c, 0, 71, 100
2, 240668, Note_off_c, 0, 67, 100
2, 240672, Note_on_c, 0, 66, 110
2, 240672, Note_on_c, 0, 69, 110
2, 240672, Note_on_c, 0, 74, 110
2, 240672, Note_on_c, 0, 78, 110
2, 240952, Note_off_c, 0, 66, 64
2, 240952, Note_off_c, 0, 69, 64
2, 240952, Note_off_c, 0, 74, 64
2, 240952, Note_off_c, 0, 78, 64
2, 241536, Note_on_c, 0, 66, 80
2, 241536, Note_on_c, 0, 69, 80
2, 241536, Note_on_c, 0, 74, 80
2, 241724, Note_off_c, 0, 66, 64
2, 241724, Note_off_c, 0, 69, 64
2, 241724, Note_off_c, 0, 74, 64
2, 241920, Note_on_c, 0, 73, 80
2, 241920, Note_on_c, 0, 69, 80
2, 241920, Note_on_c, 0, 67, 80
2, 241920, Note_on_c, 0, 64, 80
2, 242108, Note_off_c, 0, 73, 100
2, 242108, Note_off_c, 0, 69, 100
2, 242108, Note_off_c, 0, 67, 100
2, 242108, Note_off_c, 0, 64, 100
2, 242304, Note_on_c, 0, 62, 80
2, 242304, Note_on_c, 0, 66, 80
2, 242304, Note_on_c, 0, 69, 80
2, 242304, Note_on_c, 0, 74, 80
2, 242492, Note_off_c, 0, 62, 64
2, 242492, Note_off_c, 0, 66, 64
2, 242492, Note_off_c, 0, 69, 64
2, 242492, Note_off_c, 0, 74, 64
2, 242976, Note_on_c, 0, 64, 110
2, 242976, Note_on_c, 0, 69, 110
2, 242976, Note_on_c, 0, 72, 110
2, 242976, Note_on_c, 0, 76, 110
2, 243352, Note_off_c, 0, 64, 64
2, 243352, Note_off_c, 0, 69, 64
2, 243352, Note_off_c, 0, 72, 64
2, 243352, Note_off_c, 0, 76, 64
2, 243360, Note_on_c, 0, 72, 110
2, 243360, Note_on_c, 0, 76, 110
2, 243360, Note_on_c, 0, 81, 110
2, 243360, Note_on_c, 0, 84, 110
2, 243736, Note_off_c, 0, 72, 100
2, 243736, Note_off_c, 0, 76, 100
2, 243736, Note_off_c, 0, 81, 100
2, 243736, Note_off_c, 0, 84, 100
2, 243744, Note_on_c, 0, 83, 110
2, 243744, Note_on_c, 0, 79, 110
2, 243744, Note_on_c, 0, 74, 110
2, 243744, Note_on_c, 0, 71, 110
2, 244028, Note_off_c, 0, 71, 64
2, 244028, Note_off_c, 0, 74, 64
2, 244028, Note_off_c, 0, 79, 64
2, 244028, Note_off_c, 0, 83, 64
2, 244608, Note_on_c, 0, 71, 80
2, 244608, Note_on_c, 0, 74, 80
2, 244608, Note_on_c, 0, 79, 80
2, 244796, Note_off_c, 0, 71, 64
2, 244796, Note_off_c, 0, 74, 64
2, 244796, Note_off_c, 0, 79, 64
2, 244992, Note_on_c, 0, 78, 80
2, 244992, Note_on_c, 0, 74, 80
2, 244992, Note_on_c, 0, 69, 80
2, 245180, Note_off_c, 0, 78, 100
2, 245180, Note_off_c, 0, 74, 100
2, 245180, Note_off_c, 0, 69, 100
2, 245376, Note_on_c, 0, 71, 80
2, 245376, Note_on_c, 0, 74, 80
2, 245376, Note_on_c, 0, 79, 80
2, 245564, Note_off_c, 0, 71, 64
2, 245564, Note_off_c, 0, 74, 64
2, 245564, Note_off_c, 0, 79, 64
2, 246048, Note_on_c, 0, 76, 110
2, 246048, Note_on_c, 0, 72, 110
2, 246048, Note_on_c, 0, 69, 110
2, 246428, Note_off_c, 0, 69, 64
2, 246428, Note_off_c, 0, 72, 64
2, 246428, Note_off_c, 0, 76, 64
2, 246432, Note_on_c, 0, 84, 110
2, 246432, Note_on_c, 0, 81, 110
2, 246432, Note_on_c, 0, 76, 110
2, 246432, Note_on_c, 0, 72, 110
2, 246812, Note_off_c, 0, 84, 100
2, 246812, Note_off_c, 0, 81, 100
2, 246812, Note_off_c, 0, 76, 100
2, 246812, Note_off_c, 0, 72, 100
2, 246816, Note_on_c, 0, 83, 110
2, 246816, Note_on_c, 0, 78, 110
2, 246816, Note_on_c, 0, 75, 110
2, 246816, Note_on_c, 0, 71, 110
2, 247196, Note_off_c, 0, 71, 64
2, 247196, Note_off_c, 0, 75, 64
2, 247196, Note_off_c, 0, 78, 64
2, 247196, Note_off_c, 0, 83, 64
2, 247680, Note_on_c, 0, 76, 80
2, 247680, Note_on_c, 0, 81, 80
2, 247868, Note_off_c, 0, 76, 64
2, 247868, Note_off_c, 0, 81, 64
2, 248064, Note_on_c, 0, 82, 80
2, 248064, Note_on_c, 0, 76, 80
2, 248252, Note_off_c, 0, 82, 100
2, 248252, Note_off_c, 0, 76, 100
2, 248448, Note_on_c, 0, 75, 80
2, 248448, Note_on_c, 0, 83, 80
2, 248636, Note_off_c, 0, 75, 64
2, 248636, Note_off_c, 0, 83, 64
2, 249216, Note_on_c, 0, 69, 80
2, 249216, Note_on_c, 0, 76, 80
2, 249404, Note_off_c, 0, 69, 64
2, 249404, Note_off_c, 0, 76, 64
2, 249600, Note_on_c, 0, 76, 80
2, 249600, Note_on_c, 0, 70, 80
2, 249788, Note_off_c, 0, 76, 100
2, 249788, Note_off_c, 0, 70, 100
2, 249984, Note_on_c, 0, 71, 80
2, 249984, Note_on_c, 0, 75, 80
2, 250172, Note_off_c, 0, 71, 64
2, 250172, Note_off_c, 0, 75, 64
2, 250752, Note_on_c, 0, 64, 80
2, 250752, Note_on_c, 0, 69, 80
2, 250752, Note_on_c, 0, 57, 80
2, 251036, Note_off_c, 0, 64, 64
2, 251036, Note_off_c, 0, 69, 64
2, 251036, Note_off_c, 0, 57, 64
2, 251136, Note_on_c, 0, 70, 80
2, 251136, Note_on_c, 0, 64, 80
2, 251136, Note_on_c, 0, 58, 80
2, 251420, Note_off_c, 0, 70, 100
2, 251420, Note_off_c, 0, 64, 100
2, 251420, Note_off_c, 0, 58, 100
2, 251520, Note_on_c, 0, 59, 80
2, 251520, Note_on_c, 0, 63, 80
2, 251520, Note_on_c, 0, 71, 80
2, 251708, Note_off_c, 0, 59, 64
2, 251708, Note_off_c, 0, 63, 64
2, 251708, Note_off_c, 0, 71, 64
2, 251712, Note_on_c, 0, 70, 81
2, 251804, Note_off_c, 0, 70, 100
2, 251808, Note_on_c, 0, 71, 82
2, 251900, Note_off_c, 0, 71, 100
2, 251904, Note_on_c, 0, 70, 83
2, 251996, Note_off_c, 0, 70, 100
2, 252000, Note_on_c, 0, 71, 84
2, 252092, Note_off_c, 0, 71, 100
2, 252096, Note_on_c, 0, 70, 85
2, 252188, Note_off_c, 0, 70, 100
2, 252192, Note_on_c, 0, 71, 86
2, 252284, Note_off_c, 0, 71, 100
2, 252288, Note_on_c, 0, 70, 87
2, 252380, Note_off_c, 0, 70, 64
2, 252384, Note_on_c, 0, 71, 88
2, 252476, Note_off_c, 0, 71, 100
2, 252480, Note_on_c, 0, 70, 89
2, 252572, Note_off_c, 0, 70, 100
2, 252576, Note_on_c, 0, 71, 90
2, 252668, Note_off_c, 0, 71, 100
2, 252672, Note_on_c, 0, 70, 91
2, 252764, Note_off_c, 0, 70, 100
2, 252768, Note_on_c, 0, 71, 92
2, 252860, Note_off_c, 0, 71, 100
2, 252864, Note_on_c, 0, 73, 93
2, 252956, Note_off_c, 0, 73, 100
2, 252960, Note_on_c, 0, 71, 94
2, 253052, Note_off_c, 0, 71, 100
2, 253056, Note_on_c, 0, 71, 80
2, 253244, Note_off_c, 0, 71, 64
2, 253248, Note_on_c, 0, 80, 80
2, 253628, Note_off_c, 0, 80, 100
2, 253632, Note_on_c, 0, 78, 80
2, 253820, Note_off_c, 0, 78, 100
2, 253824, Note_on_c, 0, 76, 80
2, 254012, Note_off_c, 0, 76, 64
2, 254016, Note_on_c, 0, 80, 80
2, 254396, Note_off_c, 0, 80, 100
2, 254400, Note_on_c, 0, 76, 80
2, 254588, Note_off_c, 0, 76, 100
2, 254592, Note_on_c, 0, 75, 80
2, 254780, Note_off_c, 0, 75, 64
2, 254784, Note_on_c, 0, 83, 80
2, 255164, Note_off_c, 0, 83, 100
2, 255168, Note_on_c, 0, 83, 80
2, 255548, Note_off_c, 0, 83, 64
2, 255552, Note_on_c, 0, 85, 80
2, 255644, Note_off_c, 0, 85, 100
2, 255648, Note_on_c, 0, 83, 80
2, 255740, Note_off_c, 0, 83, 100
2, 255744, Note_on_c, 0, 81, 80
2, 255836, Note_off_c, 0, 81, 100
2, 255840, Note_on_c, 0, 80, 80
2, 255932, Note_off_c, 0, 80, 100
2, 255936, Note_on_c, 0, 81, 80
2, 256028, Note_off_c, 0, 81, 100
2, 256032, Note_on_c, 0, 78, 80
2, 256124, Note_off_c, 0, 78, 100
2, 256128, Note_on_c, 0, 76, 80
2, 256316, Note_off_c, 0, 76, 64
2, 256320, Note_on_c, 0, 80, 80
2, 256700, Note_off_c, 0, 80, 100
2, 256704, Note_on_c, 0, 78, 80
2, 256892, Note_off_c, 0, 78, 100
2, 256896, Note_on_c, 0, 76, 80
2, 257084, Note_off_c, 0, 76, 64
2, 257088, Note_on_c, 0, 80, 80
2, 257468, Note_off_c, 0, 80, 100
2, 257472, Note_on_c, 0, 76, 80
2, 257660, Note_off_c, 0, 76, 100
2, 257664, Note_on_c, 0, 75, 80
2, 257852, Note_off_c, 0, 75, 64
2, 257856, Note_on_c, 0, 78, 80
2, 257948, Note_off_c, 0, 78, 100
2, 257952, Note_on_c, 0, 76, 80
2, 258044, Note_off_c, 0, 76, 100
2, 258048, Note_on_c, 0, 75, 80
2, 258140, Note_off_c, 0, 75, 100
2, 258144, Note_on_c, 0, 76, 80
2, 258236, Note_off_c, 0, 76, 100
2, 258240, Note_on_c, 0, 78, 80
2, 258332, Note_off_c, 0, 78, 100
2, 258336, Note_on_c, 0, 75, 80
2, 258428, Note_off_c, 0, 75, 100
2, 258432, Note_on_c, 0, 76, 80
2, 258620, Note_off_c, 0, 76, 64
2, 259200, Note_on_c, 0, 64, 100
2, 259200, Note_on_c, 0, 67, 100
2, 259200, Control_c, 0, 64, 127
2, 259292, Note_off_c, 0, 64, 64
2, 259292, Note_off_c, 0, 67, 64
2, 259296, Note_on_c, 0, 71, 100
2, 259388, Note_off_c, 0, 71, 100
2, 259392, Note_on_c, 0, 67, 100
2, 259392, Note_on_c, 0, 64, 100
2, 259484, Note_off_c, 0, 67, 100
2, 259484, Note_off_c, 0, 64, 100
2, 259488, Note_on_c, 0, 71, 100
2, 259576, Control_c, 0, 64, 0
2, 259580, Note_off_c, 0, 71, 100
2, 259584, Note_on_c, 0, 67, 100
2, 259584, Note_on_c, 0, 64, 100
2, 259584, Control_c, 0, 64, 127
2, 259676, Note_off_c, 0, 67, 100
2, 259676, Note_off_c, 0, 64, 100
2, 259680, Note_on_c, 0, 71, 100
2, 259772, Note_off_c, 0, 71, 100
2, 259776, Note_on_c, 0, 64, 100
2, 259776, Note_on_c, 0, 67, 100
2, 259868, Note_off_c, 0, 67, 100
2, 259872, Note_on_c, 0, 71, 100
2, 259960, Control_c, 0, 64, 0
2, 259964, Note_off_c, 0, 71, 100
2, 259968, Note_on_c, 0, 64, 100
2, 259968, Note_on_c, 0, 67, 100
2, 259968, Control_c, 0, 64, 127
2, 260060, Note_off_c, 0, 64, 64
2, 260060, Note_off_c, 0, 67, 64
2, 260064, Note_on_c, 0, 71, 100
2, 260156, Note_off_c, 0, 71, 100
2, 260160, Note_on_c, 0, 67, 100
2, 260160, Note_on_c, 0, 64, 100
2, 260252, Note_off_c, 0, 64, 100
2, 260252, Note_off_c, 0, 67, 100
2, 260252, Note_off_c, 0, 64, 100
2, 260256, Note_on_c, 0, 71, 100
2, 260344, Control_c, 0, 64, 0
2, 260348, Note_off_c, 0, 71, 100
2, 260352, Note_on_c, 0, 67, 100
2, 260352, Note_on_c, 0, 64, 100
2, 260352, Control_c, 0, 64, 127
2, 260444, Note_off_c, 0, 67, 100
2, 260444, Note_off_c, 0, 64, 100
2, 260448, Note_on_c, 0, 71, 100
2, 260540, Note_off_c, 0, 71, 100
2, 260544, Note_on_c, 0, 67, 100
2, 260544, Note_on_c, 0, 64, 100
2, 260636, Note_off_c, 0, 67, 100
2, 260636, Note_off_c, 0, 64, 100
2, 260640, Note_on_c, 0, 71, 100
2, 260728, Control_c, 0, 64, 0
2, 260732, Note_off_c, 0, 71, 100
2, 260736, Note_on_c, 0, 69, 100
2, 260736, Note_on_c, 0, 66, 100
2, 260736, Control_c, 0, 64, 127
2, 260828, Note_off_c, 0, 69, 64
2, 260828, Note_off_c, 0, 66, 64
2, 260832, Note_on_c, 0, 71, 100
2, 260924, Note_off_c, 0, 71, 100
2, 260928, Note_on_c, 0, 66, 100
2, 260928, Note_on_c, 0, 69, 100
2, 261020, Note_off_c, 0, 66, 100
2, 261020, Note_off_c, 0, 69, 100
2, 261024, Note_on_c, 0, 71, 100
2, 261112, Control_c, 0, 64, 0
2, 261116, Note_off_c, 0, 71, 100
2, 261120, Note_on_c, 0, 66, 100
2, 261120, Note_on_c, 0, 63, 100
2, 261120, Control_c, 0, 64, 127
2, 261212, Note_off_c, 0, 66, 100
2, 261212, Note_off_c, 0, 63, 100
2, 261216, Note_on_c, 0, 71, 100
2, 261308, Note_off_c, 0, 71, 100
2, 261312, Note_on_c, 0, 66, 100
2, 261312, Note_on_c, 0, 63, 100
2, 261404, Note_off_c, 0, 66, 100
2, 261404, Note_off_c, 0, 63, 100
2, 261408, Note_on_c, 0, 71, 100
2, 261496, Control_c, 0, 64, 0
2, 261500, Note_off_c, 0, 71, 100
2, 261504, Note_on_c, 0, 63, 100
2, 261504, Note_on_c, 0, 66, 100
2, 261504, Control_c, 0, 64, 127
2, 261596, Note_off_c, 0, 63, 64
2, 261596, Note_off_c, 0, 66, 64
2, 261600, Note_on_c, 0, 71, 100
2, 261692, Note_off_c, 0, 71, 100
2, 261696, Note_on_c, 0, 66, 100
2, 261696, Note_on_c, 0, 63, 100
2, 261788, Note_off_c, 0, 66, 100
2, 261788, Note_off_c, 0, 63, 100
2, 261792, Note_on_c, 0, 71, 100
2, 261880, Control_c, 0, 64, 0
2, 261884, Note_off_c, 0, 71, 100
2, 261888, Note_on_c, 0, 66, 100
2, 261888, Note_on_c, 0, 63, 100
2, 261888, Control_c, 0, 64, 127
2, 261980, Note_off_c, 0, 66, 100
2, 261980, Note_off_c, 0, 63, 100
2, 261984, Note_on_c, 0, 71, 100
2, 262076, Note_off_c, 0, 71, 100
2, 262080, Note_on_c, 0, 66, 100
2, 262080, Note_on_c, 0, 63, 100
2, 262172, Note_off_c, 0, 66, 100
2, 262172, Note_off_c, 0, 63, 100
2, 262176, Note_on_c, 0, 71, 100
2, 262264, Control_c, 0, 64, 0
2, 262268, Note_off_c, 0, 71, 100
2, 262272, Note_on_c, 0, 64, 100
2, 262272, Note_on_c, 0, 67, 100
2, 262272, Control_c, 0, 64, 127
2, 262364, Note_off_c, 0, 64, 64
2, 262364, Note_off_c, 0, 67, 64
2, 262368, Note_on_c, 0, 71, 100
2, 262460, Note_off_c, 0, 71, 100
2, 262464, Note_on_c, 0, 67, 101
2, 262464, Note_on_c, 0, 64, 101
2, 262556, Note_off_c, 0, 67, 100
2, 262556, Note_off_c, 0, 64, 100
2, 262560, Note_on_c, 0, 71, 101
2, 262648, Control_c, 0, 64, 0
2, 262652, Note_off_c, 0, 71, 100
2, 262656, Note_on_c, 0, 67, 102
2, 262656, Note_on_c, 0, 64, 102
2, 262656, Control_c, 0, 64, 127
2, 262748, Note_off_c, 0, 67, 100
2, 262748, Note_off_c, 0, 64, 100
2, 262752, Note_on_c, 0, 71, 102
2, 262844, Note_off_c, 0, 71, 100
2, 262848, Note_on_c, 0, 67, 103
2, 262848, Note_on_c, 0, 64, 103
2, 262940, Note_off_c, 0, 67, 100
2, 262940, Note_off_c, 0, 64, 100
2, 262944, Note_on_c, 0, 71, 103
2, 263032, Control_c, 0, 64, 0
2, 263036, Note_off_c, 0, 71, 100
2, 263040, Note_on_c, 0, 64, 104
2, 263040, Note_on_c, 0, 67, 104
2, 263040, Control_c, 0, 64, 127
2, 263132, Note_off_c, 0, 64, 64
2, 263132, Note_off_c, 0, 67, 64
2, 263136, Note_on_c, 0, 71, 104
2, 263228, Note_off_c, 0, 71, 100
2, 263232, Note_on_c, 0, 67, 105
2, 263232, Note_on_c, 0, 64, 105
2, 263324, Note_off_c, 0, 67, 100
2, 263324, Note_off_c, 0, 64, 100
2, 263328, Note_on_c, 0, 71, 105
2, 263416, Control_c, 0, 64, 0
2, 263420, Note_off_c, 0, 71, 100
2, 263424, Note_on_c, 0, 70, 106
2, 263424, Note_on_c, 0, 67, 106
2, 263424, Note_on_c, 0, 64, 106
2, 263424, Control_c, 0, 64, 127
2, 263516, Note_off_c, 0, 70, 100
2, 263516, Note_off_c, 0, 67, 100
2, 263516, Note_off_c, 0, 64, 100
2, 263520, Note_on_c, 0, 73, 106
2, 263612, Note_off_c, 0, 73, 100
2, 263616, Note_on_c, 0, 70, 107
2, 263616, Note_on_c, 0, 67, 107
2, 263616, Note_on_c, 0, 64, 107
2, 263708, Note_off_c, 0, 70, 100
2, 263708, Note_off_c, 0, 67, 100
2, 263708, Note_off_c, 0, 64, 100
2, 263712, Note_on_c, 0, 73, 107
2, 263800, Control_c, 0, 64, 0
2, 263804, Note_off_c, 0, 73, 100
2, 263808, Note_on_c, 0, 72, 108
2, 263808, Note_on_c, 0, 69, 108
2, 263808, Control_c, 0, 64, 127
2, 263900, Note_off_c, 0, 72, 64
2, 263900, Note_off_c, 0, 69, 64
2, 263904, Note_on_c, 0, 74, 108
2, 263996, Note_off_c, 0, 74, 100
2, 264000, Note_on_c, 0, 69, 109
2, 264000, Note_on_c, 0, 72, 109
2, 264092, Note_off_c, 0, 69, 100
2, 264092, Note_off_c, 0, 72, 100
2, 264096, Note_on_c, 0, 74, 109
2, 264184, Control_c, 0, 64, 0
2, 264188, Note_off_c, 0, 74, 100
2, 264192, Note_on_c, 0, 66, 110
2, 264192, Note_on_c, 0, 69, 110
2, 264192, Control_c, 0, 64, 127
2, 264284, Note_off_c, 0, 66, 100
2, 264284, Note_off_c, 0, 69, 100
2, 264288, Note_on_c, 0, 74, 110
2, 264380, Note_off_c, 0, 74, 100
2, 264384, Note_on_c, 0, 66, 110
2, 264384, Note_on_c, 0, 69, 110
2, 264476, Note_off_c, 0, 66, 100
2, 264476, Note_off_c, 0, 69, 100
2, 264480, Note_on_c, 0, 74, 110
2, 264568, Control_c, 0, 64, 0
2, 264572, Note_off_c, 0, 74, 100
2, 264576, Note_on_c, 0, 69, 110
2, 264576, Note_on_c, 0, 66, 110
2, 264576, Control_c, 0, 64, 127
2, 264668, Note_off_c, 0, 69, 64
2, 264668, Note_off_c, 0, 66, 64
2, 264672, Note_on_c, 0, 74, 110
2, 264764, Note_off_c, 0, 74, 100
2, 264768, Note_on_c, 0, 66, 110
2, 264768, Note_on_c, 0, 69, 110
2, 264860, Note_off_c, 0, 66, 100
2, 264860, Note_off_c, 0, 69, 100
2, 264864, Note_on_c, 0, 74, 110
2, 264952, Control_c, 0, 64, 0
2, 264956, Note_off_c, 0, 74, 100
2, 264960, Note_on_c, 0, 66, 110
2, 264960, Note_on_c, 0, 69, 110
2, 264960, Control_c, 0, 64, 127
2, 265052, Note_off_c, 0, 66, 100
2, 265052, Note_off_c, 0, 69, 100
2, 265056, Note_on_c, 0, 74, 110
2, 265148, Note_off_c, 0, 74, 100
2, 265152, Note_on_c, 0, 66, 110
2, 265152, Note_on_c, 0, 69, 110
2, 265244, Note_off_c, 0, 66, 100
2, 265244, Note_off_c, 0, 69, 100
2, 265248, Note_on_c, 0, 74, 110
2, 265336, Control_c, 0, 64, 0
2, 265340, Note_off_c, 0, 74, 100
2, 265344, Note_on_c, 0, 67, 110
2, 265344, Note_on_c, 0, 74, 110
2, 265532, Note_off_c, 0, 67, 64
2, 265532, Note_off_c, 0, 74, 64
2, 265536, Note_on_c, 0, 83, 80
2, 265916, Note_off_c, 0, 83, 100
2, 265920, Note_on_c, 0, 81, 80
2, 266108, Note_off_c, 0, 81, 100
2, 266112, Note_on_c, 0, 79, 80
2, 266300, Note_off_c, 0, 79, 64
2, 266304, Note_on_c, 0, 83, 80
2, 266684, Note_off_c, 0, 83, 100
2, 266688, Note_on_c, 0, 79, 80
2, 266876, Note_off_c, 0, 79, 100
2, 266880, Note_on_c, 0, 78, 80
2, 267068, Note_off_c, 0, 78, 64
2, 267072, Note_on_c, 0, 86, 80
2, 267452, Note_off_c, 0, 86, 100
2, 267456, Note_on_c, 0, 86, 80
2, 267836, Note_off_c, 0, 86, 64
2, 267840, Note_on_c, 0, 88, 80
2, 267932, Note_off_c, 0, 88, 100
2, 267936, Note_on_c, 0, 86, 80
2, 268028, Note_off_c, 0, 86, 100
2, 268032, Note_on_c, 0, 84, 80
2, 268124, Note_off_c, 0, 84, 100
2, 268128, Note_on_c, 0, 83, 80
2, 268220, Note_off_c, 0, 83, 100
2, 268224, Note_on_c, 0, 84, 80
2, 268316, Note_off_c, 0, 84, 100
2, 268320, Note_on_c, 0, 81, 80
2, 268412, Note_off_c, 0, 81, 100
2, 268416, Note_on_c, 0, 79, 80
2, 268604, Note_off_c, 0, 79, 64
2, 268608, Note_on_c, 0, 83, 80
2, 268988, Note_off_c, 0, 83, 100
2, 268992, Note_on_c, 0, 81, 80
2, 269180, Note_off_c, 0, 81, 100
2, 269184, Note_on_c, 0, 79, 80
2, 269372, Note_off_c, 0, 79, 64
2, 269376, Note_on_c, 0, 83, 80
2, 269756, Note_off_c, 0, 83, 100
2, 269760, Note_on_c, 0, 79, 80
2, 269948, Note_off_c, 0, 79, 100
2, 269952, Note_on_c, 0, 78, 80
2, 270140, Note_off_c, 0, 78, 64
2, 270144, Note_on_c, 0, 81, 80
2, 270236, Note_off_c, 0, 81, 100
2, 270240, Note_on_c, 0, 79, 80
2, 270332, Note_off_c, 0, 79, 100
2, 270336, Note_on_c, 0, 78, 80
2, 270428, Note_off_c, 0, 78, 100
2, 270432, Note_on_c, 0, 79, 80
2, 270524, Note_off_c, 0, 79, 100
2, 270528, Note_on_c, 0, 81, 80
2, 270620, Note_off_c, 0, 81, 100
2, 270624, Note_on_c, 0, 78, 80
2, 270716, Note_off_c, 0, 78, 100
2, 270720, Note_on_c, 0, 79, 80
2, 270908, Note_off_c, 0, 79, 64
2, 271488, Note_on_c, 0, 55, 100
2, 271488, Note_on_c, 0, 59, 100
2, 271488, Control_c, 0, 64, 127
2, 271580, Note_off_c, 0, 55, 64
2, 271580, Note_off_c, 0, 59, 64
2, 271584, Note_on_c, 0, 62, 100
2, 271676, Note_off_c, 0, 62, 100
2, 271680, Note_on_c, 0, 59, 100
2, 271680, Note_on_c, 0, 55, 100
2, 271772, Note_off_c, 0, 59, 100
2, 271772, Note_off_c, 0, 55, 100
2, 271776, Note_on_c, 0, 62, 100
2, 271864, Control_c, 0, 64, 0
2, 271868, Note_off_c, 0, 62, 100
2, 271872, Note_on_c, 0, 59, 100
2, 271872, Note_on_c, 0, 55, 100
2, 271872, Control_c, 0, 64, 127
2, 271964, Note_off_c, 0, 59, 100
2, 271964, Note_off_c, 0, 55, 100
2, 271968, Note_on_c, 0, 62, 100
2, 272060, Note_off_c, 0, 62, 100
2, 272064, Note_on_c, 0, 59, 100
2, 272064, Note_on_c, 0, 55, 100
2, 272156, Note_off_c, 0, 59, 100
2, 272156, Note_off_c, 0, 55, 100
2, 272160, Note_on_c, 0, 62, 100
2, 272248, Control_c, 0, 64, 0
2, 272252, Note_off_c, 0, 62, 100
2, 272256, Note_on_c, 0, 55, 100
2, 272256, Note_on_c, 0, 59, 100
2, 272256, Control_c, 0, 64, 127
2, 272348, Note_off_c, 0, 55, 64
2, 272348, Note_off_c, 0, 59, 64
2, 272352, Note_on_c, 0, 62, 100
2, 272444, Note_off_c, 0, 62, 100
2, 272448, Note_on_c, 0, 59, 100
2, 272448, Note_on_c, 0, 55, 100
2, 272540, Note_off_c, 0, 59, 100
2, 272540, Note_off_c, 0, 55, 100
2, 272544, Note_on_c, 0, 62, 100
2, 272632, Control_c, 0, 64, 0
2, 272636, Note_off_c, 0, 62, 100
2, 272640, Note_on_c, 0, 59, 100
2, 272640, Note_on_c, 0, 55, 100
2, 272640, Control_c, 0, 64, 127
2, 272732, Note_off_c, 0, 59, 100
2, 272732, Note_off_c, 0, 55, 100
2, 272732, Note_on_c, 0, 62, 100
2, 272824, Note_off_c, 0, 62, 100
2, 272828, Note_on_c, 0, 59, 100
2, 272828, Note_on_c, 0, 55, 100
2, 272920, Note_off_c, 0, 59, 100
2, 272920, Note_off_c, 0, 55, 100
2, 272924, Note_on_c, 0, 62, 100
2, 273016, Note_off_c, 0, 62, 100
2, 273016, Control_c, 0, 64, 0
2, 273024, Note_on_c, 0, 60, 100
2, 273024, Note_on_c, 0, 57, 100
2, 273024, Control_c, 0, 64, 127
2, 273116, Note_off_c, 0, 60, 64
2, 273116, Note_off_c, 0, 57, 64
2, 273120, Note_on_c, 0, 62, 100
2, 273212, Note_off_c, 0, 62, 100
2, 273216, Note_on_c, 0, 57, 100
2, 273216, Note_on_c, 0, 60, 100
2, 273308, Note_off_c, 0, 57, 100
2, 273308, Note_off_c, 0, 60, 100
2, 273312, Note_on_c, 0, 62, 100
2, 273400, Control_c, 0, 64, 0
2, 273404, Note_off_c, 0, 62, 100
2, 273408, Note_on_c, 0, 54, 100
2, 273408, Note_on_c, 0, 57, 100
2, 273408, Control_c, 0, 64, 127
2, 273500, Note_off_c, 0, 54, 100
2, 273500, Note_off_c, 0, 57, 100
2, 273504, Note_on_c, 0, 62, 100
2, 273596, Note_off_c, 0, 62, 100
2, 273600, Note_on_c, 0, 54, 100
2, 273600, Note_on_c, 0, 57, 100
2, 273692, Note_off_c, 0, 54, 100
2, 273692, Note_off_c, 0, 57, 100
2, 273696, Note_on_c, 0, 62, 100
2, 273784, Control_c, 0, 64, 0
2, 273788, Note_off_c, 0, 62, 100
2, 273792, Note_on_c, 0, 57, 100
2, 273792, Note_on_c, 0, 54, 100
2, 273792, Control_c, 0, 64, 127
2, 273884, Note_off_c, 0, 57, 64
2, 273884, Note_off_c, 0, 54, 64
2, 273888, Note_on_c, 0, 62, 100
2, 273980, Note_off_c, 0, 62, 100
2, 273984, Note_on_c, 0, 54, 100
2, 273984, Note_on_c, 0, 57, 100
2, 274076, Note_off_c, 0, 54, 100
2, 274076, Note_off_c, 0, 57, 100
2, 274080, Note_on_c, 0, 62, 100
2, 274168, Control_c, 0, 64, 0
2, 274172, Note_off_c, 0, 62, 100
2, 274176, Note_on_c, 0, 54, 100
2, 274176, Note_on_c, 0, 57, 100
2, 274176, Control_c, 0, 64, 127
2, 274268, Note_off_c, 0, 54, 100
2, 274268, Note_off_c, 0, 57, 100
2, 274272, Note_on_c, 0, 62, 100
2, 274364, Note_off_c, 0, 62, 100
2, 274368, Note_on_c, 0, 54, 100
2, 274368, Note_on_c, 0, 57, 100
2, 274460, Note_off_c, 0, 54, 100
2, 274460, Note_off_c, 0, 57, 100
2, 274464, Note_on_c, 0, 62, 100
2, 274552, Control_c, 0, 64, 0
2, 274556, Note_off_c, 0, 62, 100
2, 274560, Note_on_c, 0, 55, 100
2, 274560, Note_on_c, 0, 59, 100
2, 274560, Control_c, 0, 64, 127
2, 274652, Note_off_c, 0, 55, 64
2, 274652, Note_off_c, 0, 59, 64
2, 274656, Note_on_c, 0, 62, 100
2, 274748, Note_off_c, 0, 62, 100
2, 274752, Note_on_c, 0, 59, 100
2, 274752, Note_on_c, 0, 55, 100
2, 274844, Note_off_c, 0, 59, 100
2, 274844, Note_off_c, 0, 55, 100
2, 274848, Note_on_c, 0, 62, 100
2, 274936, Control_c, 0, 64, 0
2, 274940, Note_off_c, 0, 62, 100
2, 274944, Note_on_c, 0, 62, 100
2, 274944, Note_on_c, 0, 56, 100
2, 274944, Control_c, 0, 64, 127
2, 275036, Note_off_c, 0, 62, 100
2, 275036, Note_off_c, 0, 56, 100
2, 275040, Note_on_c, 0, 65, 100
2, 275132, Note_off_c, 0, 65, 100
2, 275136, Note_on_c, 0, 62, 100
2, 275136, Note_on_c, 0, 56, 100
2, 275228, Note_off_c, 0, 62, 100
2, 275228, Note_off_c, 0, 56, 100
2, 275232, Note_on_c, 0, 65, 100
2, 275320, Control_c, 0, 64, 0
2, 275324, Note_off_c, 0, 65, 100
2, 275328, Note_on_c, 0, 61, 100
2, 275328, Note_on_c, 0, 64, 100
2, 275328, Control_c, 0, 64, 127
2, 275420, Note_off_c, 0, 61, 64
2, 275420, Note_off_c, 0, 64, 64
2, 275424, Note_on_c, 0, 66, 100
2, 275516, Note_off_c, 0, 66, 100
2, 275520, Note_on_c, 0, 64, 100
2, 275520, Note_on_c, 0, 61, 100
2, 275612, Note_off_c, 0, 64, 100
2, 275612, Note_off_c, 0, 61, 100
2, 275616, Note_on_c, 0, 66, 100
2, 275704, Control_c, 0, 64, 0
2, 275708, Note_off_c, 0, 66, 100
2, 275712, Note_on_c, 0, 64, 100
2, 275712, Note_on_c, 0, 61, 100
2, 275712, Control_c, 0, 64, 127
2, 275804, Note_off_c, 0, 64, 100
2, 275804, Note_off_c, 0, 61, 100
2, 275808, Note_on_c, 0, 66, 100
2, 275900, Note_off_c, 0, 66, 100
2, 275904, Note_on_c, 0, 64, 100
2, 275904, Note_on_c, 0, 61, 100
2, 275996, Note_off_c, 0, 64, 100
2, 275996, Note_off_c, 0, 61, 100
2, 276000, Note_on_c, 0, 66, 100
2, 276088, Control_c, 0, 64, 0
2, 276092, Note_off_c, 0, 66, 100
2, 276096, Note_on_c, 0, 62, 100
2, 276096, Note_on_c, 0, 66, 100
2, 276096, Control_c, 0, 64, 127
2, 276188, Note_off_c, 0, 62, 64
2, 276188, Note_off_c, 0, 66, 64
2, 276192, Note_on_c, 0, 69, 100
2, 276284, Note_off_c, 0, 69, 100
2, 276288, Note_on_c, 0, 66, 100
2, 276288, Note_on_c, 0, 62, 100
2, 276380, Note_off_c, 0, 66, 100
2, 276380, Note_off_c, 0, 62, 100
2, 276384, Note_on_c, 0, 69, 100
2, 276472, Control_c, 0, 64, 0
2, 276476, Note_off_c, 0, 69, 100
2, 276480, Note_on_c, 0, 65, 100
2, 276480, Note_on_c, 0, 59, 100
2, 276480, Control_c, 0, 64, 127
2, 276572, Note_off_c, 0, 65, 100
2, 276572, Note_off_c, 0, 59, 100
2, 276576, Note_on_c, 0, 68, 100
2, 276668, Note_off_c, 0, 68, 100
2, 276672, Note_on_c, 0, 65, 100
2, 276672, Note_on_c, 0, 59, 100
2, 276764, Note_off_c, 0, 65, 100
2, 276764, Note_off_c, 0, 59, 100
2, 276768, Note_on_c, 0, 68, 100
2, 276856, Control_c, 0, 64, 0
2, 276860, Note_off_c, 0, 68, 100
2, 276864, Note_on_c, 0, 64, 100
2, 276864, Note_on_c, 0, 67, 100
2, 276864, Control_c, 0, 64, 127
2, 276956, Note_off_c, 0, 64, 64
2, 276956, Note_off_c, 0, 67, 64
2, 276960, Note_on_c, 0, 69, 100
2, 277052, Note_off_c, 0, 69, 100
2, 277056, Note_on_c, 0, 67, 100
2, 277056, Note_on_c, 0, 64, 100
2, 277148, Note_off_c, 0, 67, 100
2, 277148, Note_off_c, 0, 64, 100
2, 277152, Note_on_c, 0, 69, 100
2, 277240, Control_c, 0, 64, 0
2, 277244, Note_off_c, 0, 69, 100
2, 277248, Note_on_c, 0, 67, 100
2, 277248, Note_on_c, 0, 64, 100
2, 277248, Control_c, 0, 64, 127
2, 277340, Note_off_c, 0, 67, 100
2, 277340, Note_off_c, 0, 64, 100
2, 277344, Note_on_c, 0, 69, 100
2, 277436, Note_off_c, 0, 69, 100
2, 277440, Note_on_c, 0, 67, 100
2, 277440, Note_on_c, 0, 64, 100
2, 277532, Note_off_c, 0, 67, 100
2, 277532, Note_off_c, 0, 64, 100
2, 277536, Note_on_c, 0, 69, 100
2, 277624, Control_c, 0, 64, 0
2, 277628, Note_off_c, 0, 69, 100
2, 277632, Note_on_c, 0, 62, 100
2, 277632, Note_on_c, 0, 65, 100
2, 277632, Control_c, 0, 64, 127
2, 277724, Note_off_c, 0, 62, 64
2, 277724, Note_off_c, 0, 65, 64
2, 277728, Note_on_c, 0, 69, 100
2, 277820, Note_off_c, 0, 69, 100
2, 277824, Note_on_c, 0, 65, 100
2, 277824, Note_on_c, 0, 62, 100
2, 277916, Note_off_c, 0, 65, 100
2, 277916, Note_off_c, 0, 62, 100
2, 277920, Note_on_c, 0, 69, 100
2, 278008, Control_c, 0, 64, 0
2, 278012, Note_off_c, 0, 69, 100
2, 278016, Note_on_c, 0, 65, 100
2, 278016, Note_on_c, 0, 62, 100
2, 278016, Control_c, 0, 64, 127
2, 278108, Note_off_c, 0, 65, 100
2, 278108, Note_off_c, 0, 62, 100
2, 278112, Note_on_c, 0, 69, 100
2, 278204, Note_off_c, 0, 69, 100
2, 278208, Note_on_c, 0, 65, 100
2, 278208, Note_on_c, 0, 62, 100
2, 278300, Note_off_c, 0, 65, 100
2, 278300, Note_off_c, 0, 62, 100
2, 278304, Note_on_c, 0, 69, 100
2, 278392, Control_c, 0, 64, 0
2, 278396, Note_off_c, 0, 69, 100
2, 278400, Note_on_c, 0, 62, 100
2, 278400, Control_c, 0, 64, 127
2, 278492, Note_off_c, 0, 62, 64
2, 278496, Note_on_c, 0, 71, 100
2, 278588, Note_off_c, 0, 71, 100
2, 278592, Note_on_c, 0, 67, 100
2, 278684, Note_off_c, 0, 67, 100
2, 278688, Note_on_c, 0, 71, 100
2, 278776, Control_c, 0, 64, 0
2, 278780, Note_off_c, 0, 71, 100
2, 278784, Note_on_c, 0, 64, 100
2, 278784, Control_c, 0, 64, 127
2, 278876, Note_off_c, 0, 64, 100
2, 278880, Note_on_c, 0, 72, 100
2, 278972, Note_off_c, 0, 72, 100
2, 278976, Note_on_c, 0, 67, 100
2, 279068, Note_off_c, 0, 67, 100
2, 279072, Note_on_c, 0, 72, 100
2, 279160, Control_c, 0, 64, 0
2, 279164, Note_off_c, 0, 72, 100
2, 279168, Note_on_c, 0, 61, 100
2, 279168, Control_c, 0, 64, 127
2, 279260, Note_off_c, 0, 61, 64
2, 279264, Note_on_c, 0, 70, 100
2, 279356, Note_off_c, 0, 70, 100
2, 279360, Note_on_c, 0, 66, 100
2, 279452, Note_off_c, 0, 66, 100
2, 279456, Note_on_c, 0, 70, 100
2, 279544, Control_c, 0, 64, 0
2, 279548, Note_off_c, 0, 70, 100
2, 279552, Note_on_c, 0, 62, 100
2, 279552, Control_c, 0, 64, 127
2, 279644, Note_off_c, 0, 62, 100
2, 279648, Note_on_c, 0, 71, 100
2, 279740, Note_off_c, 0, 71, 100
2, 279744, Note_on_c, 0, 66, 100
2, 279836, Note_off_c, 0, 66, 100
2, 279840, Note_on_c, 0, 71, 100
2, 279928, Control_c, 0, 64, 0
2, 279932, Note_off_c, 0, 71, 100
2, 279936, Note_on_c, 0, 59, 100
2, 279936, Control_c, 0, 64, 127
2, 280028, Note_off_c, 0, 59, 64
2, 280032, Note_on_c, 0, 68, 100
2, 280124, Note_off_c, 0, 68, 100
2, 280128, Note_on_c, 0, 64, 100
2, 280220, Note_off_c, 0, 64, 100
2, 280224, Note_on_c, 0, 68, 100
2, 280312, Control_c, 0, 64, 0
2, 280316, Note_off_c, 0, 68, 100
2, 280320, Note_on_c, 0, 60, 100
2, 280320, Control_c, 0, 64, 127
2, 280412, Note_off_c, 0, 60, 100
2, 280416, Note_on_c, 0, 69, 100
2, 280508, Note_off_c, 0, 69, 100
2, 280512, Note_on_c, 0, 64, 100
2, 280604, Note_off_c, 0, 64, 100
2, 280608, Note_on_c, 0, 69, 100
2, 280696, Control_c, 0, 64, 0
2, 280700, Note_off_c, 0, 69, 100
2, 280704, Note_on_c, 0, 57, 100
2, 280704, Control_c, 0, 64, 127
2, 280796, Note_off_c, 0, 57, 64
2, 280800, Note_on_c, 0, 66, 100
2, 280892, Note_off_c, 0, 66, 100
2, 280896, Note_on_c, 0, 62, 100
2, 280988, Note_off_c, 0, 62, 100
2, 280992, Note_on_c, 0, 66, 100
2, 281080, Control_c, 0, 64, 0
2, 281084, Note_off_c, 0, 66, 100
2, 281088, Note_on_c, 0, 55, 100
2, 281088, Control_c, 0, 64, 127
2, 281180, Note_off_c, 0, 55, 100
2, 281184, Note_on_c, 0, 67, 100
2, 281276, Note_off_c, 0, 67, 100
2, 281280, Note_on_c, 0, 67, 100
2, 281372, Note_off_c, 0, 67, 100
2, 281376, Note_on_c, 0, 79, 100
2, 281464, Control_c, 0, 64, 0
2, 281468, Note_off_c, 0, 79, 100
2, 281472, Note_on_c, 0, 64, 100
2, 281472, Control_c, 0, 64, 127
2, 281564, Note_off_c, 0, 64, 64
2, 281568, Note_on_c, 0, 76, 100
2, 281660, Note_off_c, 0, 76, 100
2, 281664, Note_on_c, 0, 64, 100
2, 281756, Note_off_c, 0, 64, 100
2, 281760, Note_on_c, 0, 76, 100
2, 281848, Control_c, 0, 64, 0
2, 281852, Note_off_c, 0, 76, 100
2, 281856, Note_on_c, 0, 57, 100
2, 281856, Control_c, 0, 64, 127
2, 281948, Note_off_c, 0, 57, 100
2, 281952, Note_on_c, 0, 69, 100
2, 282044, Note_off_c, 0, 69, 100
2, 282048, Note_on_c, 0, 62, 100
2, 282140, Note_off_c, 0, 62, 100
2, 282144, Note_on_c, 0, 74, 100
2, 282232, Control_c, 0, 64, 0
2, 282236, Note_off_c, 0, 74, 100
2, 282240, Note_on_c, 0, 55, 100
2, 282240, Note_on_c, 0, 67, 100
2, 282240, Control_c, 0, 64, 127
2, 282428, Note_off_c, 0, 55, 64
2, 282428, Note_off_c, 0, 67, 64
2, 282432, Note_on_c, 0, 71, 80
2, 282616, Control_c, 0, 64, 0
2, 282624, Control_c, 0, 64, 127
2, 282812, Note_off_c, 0, 71, 100
2, 282816, Note_on_c, 0, 71, 80
2, 283000, Control_c, 0, 64, 0
2, 283004, Note_off_c, 0, 71, 100
2, 283008, Note_on_c, 0, 70, 80
2, 283196, Note_off_c, 0, 70, 64
2, 283200, Note_on_c, 0, 73, 80
2, 283292, Note_off_c, 0, 73, 100
2, 283296, Note_on_c, 0, 71, 80
2, 283388, Note_off_c, 0, 71, 100
2, 283392, Note_on_c, 0, 70, 80
2, 283484, Note_off_c, 0, 70, 100
2, 283488, Note_on_c, 0, 71, 80
2, 283580, Note_off_c, 0, 71, 100
2, 283584, Note_on_c, 0, 73, 80
2, 283676, Note_off_c, 0, 73, 100
2, 283680, Note_on_c, 0, 70, 80
2, 283772, Note_off_c, 0, 70, 100
2, 283776, Note_on_c, 0, 71, 80
2, 283964, Note_off_c, 0, 71, 64
2, 283968, Note_on_c, 0, 74, 80
2, 284348, Note_off_c, 0, 74, 100
2, 284352, Note_on_c, 0, 74, 80
2, 284540, Note_off_c, 0, 74, 100
2, 284544, Note_on_c, 0, 73, 80
2, 284732, Note_off_c, 0, 73, 64
2, 284736, Note_on_c, 0, 76, 80
2, 284828, Note_off_c, 0, 76, 100
2, 284832, Note_on_c, 0, 74, 80
2, 284924, Note_off_c, 0, 74, 100
2, 284928, Note_on_c, 0, 73, 80
2, 285020, Note_off_c, 0, 73, 100
2, 285024, Note_on_c, 0, 74, 80
2, 285116, Note_off_c, 0, 74, 100
2, 285120, Note_on_c, 0, 76, 80
2, 285212, Note_off_c, 0, 76, 100
2, 285216, Note_on_c, 0, 73, 80
2, 285308, Note_off_c, 0, 73, 100
2, 285312, Note_on_c, 0, 74, 80
2, 285500, Note_off_c, 0, 74, 64
2, 285504, Note_on_c, 0, 77, 80
2, 285884, Note_off_c, 0, 77, 100
2, 285888, Note_on_c, 0, 77, 80
2, 286076, Note_off_c, 0, 77, 100
2, 286080, Note_on_c, 0, 77, 80
2, 286176, Note_on_c, 0, 67, 81
2, 286268, Note_off_c, 0, 67, 100
2, 286272, Note_on_c, 0, 66, 82
2, 286364, Note_off_c, 0, 66, 100
2, 286368, Note_on_c, 0, 67, 83
2, 286460, Note_off_c, 0, 67, 100
2, 286464, Note_on_c, 0, 67, 84
2, 286556, Note_off_c, 0, 77, 64
2, 286560, Note_on_c, 0, 76, 86
2, 286652, Note_off_c, 0, 76, 100
2, 286656, Note_on_c, 0, 75, 87
2, 286748, Note_off_c, 0, 75, 100
2, 286752, Note_on_c, 0, 76, 88
2, 286844, Note_off_c, 0, 76, 100
2, 286848, Note_on_c, 0, 76, 89
2, 286940, Note_off_c, 0, 67, 64
2, 286944, Note_on_c, 0, 66, 91
2, 287036, Note_off_c, 0, 66, 100
2, 287040, Note_on_c, 0, 65, 92
2, 287132, Note_off_c, 0, 65, 100
2, 287136, Note_on_c, 0, 66, 93
2, 287228, Note_off_c, 0, 66, 100
2, 287232, Note_on_c, 0, 66, 94
2, 287324, Note_off_c, 0, 76, 64
2, 287328, Note_on_c, 0, 74, 96
2, 287420, Note_off_c, 0, 74, 100
2, 287424, Note_on_c, 0, 73, 97
2, 287516, Note_off_c, 0, 73, 100
2, 287520, Note_on_c, 0, 74, 98
2, 287612, Note_off_c, 0, 74, 100
2, 287616, Note_on_c, 0, 74, 99
2, 287708, Note_off_c, 0, 66, 64
2, 287712, Note_on_c, 0, 64, 101
2, 287804, Note_off_c, 0, 64, 100
2, 287808, Note_on_c, 0, 63, 102
2, 287900, Note_off_c, 0, 63, 100
2, 287904, Note_on_c, 0, 64, 103
2, 287996, Note_off_c, 0, 64, 100
2, 288000, Note_on_c, 0, 64, 104
2, 288092, Note_off_c, 0, 74, 64
2, 288096, Note_on_c, 0, 72, 106
2, 288188, Note_off_c, 0, 72, 100
2, 288192, Note_on_c, 0, 74, 107
2, 288284, Note_off_c, 0, 74, 100
2, 288288, Note_on_c, 0, 72, 108
2, 288380, Note_off_c, 0, 64, 100
2, 288384, Note_on_c, 0, 62, 110
2, 288476, Note_off_c, 0, 72, 64
2, 288480, Note_on_c, 0, 72, 110
2, 288572, Note_off_c, 0, 62, 64
2, 288572, Note_off_c, 0, 72, 100
2, 288576, Note_on_c, 0, 74, 110
2, 288668, Note_off_c, 0, 74, 100
2, 288672, Note_on_c, 0, 72, 110
2, 288764, Note_off_c, 0, 72, 100
2, 288768, Note_on_c, 0, 62, 110
2, 288860, Note_off_c, 0, 62, 100
2, 288864, Note_on_c, 0, 71, 110
2, 288956, Note_off_c, 0, 71, 100
2, 288960, Note_on_c, 0, 72, 110
2, 289052, Note_off_c, 0, 72, 100
2, 289056, Note_on_c, 0, 71, 110
2, 289148, Note_off_c, 0, 71, 100
2, 289152, Note_on_c, 0, 60, 110
2, 289152, Note_on_c, 0, 64, 110
2, 289244, Note_off_c, 0, 64, 64
2, 289248, Note_on_c, 0, 69, 110
2, 289340, Note_off_c, 0, 60, 64
2, 289340, Note_off_c, 0, 69, 100
2, 289344, Note_on_c, 0, 71, 110
2, 289436, Note_off_c, 0, 71, 100
2, 289440, Note_on_c, 0, 69, 110
2, 289532, Note_off_c, 0, 69, 100
2, 289536, Note_on_c, 0, 60, 110
2, 289536, Note_on_c, 0, 57, 110
2, 289628, Note_off_c, 0, 60, 100
2, 289632, Note_on_c, 0, 66, 110
2, 289724, Note_off_c, 0, 57, 100
2, 289724, Note_off_c, 0, 66, 100
2, 289728, Note_on_c, 0, 67, 110
2, 289820, Note_off_c, 0, 67, 100
2, 289824, Note_on_c, 0, 66, 110
2, 289916, Note_off_c, 0, 66, 100
2, 289920, Note_on_c, 0, 67, 80
2, 290112, Note_on_c, 0, 59, 80
2, 290112, Note_on_c, 0, 62, 80
2, 290300, Note_off_c, 0, 67, 64
2, 290300, Note_off_c, 0, 59, 100
2, 290300, Note_off_c, 0, 62, 100
2, 290304, Note_on_c, 0, 62, 80
2, 290304, Note_on_c, 0, 59, 80
2, 290492, Note_off_c, 0, 62, 100
2, 290492, Note_off_c, 0, 59, 100
2, 290496, Note_on_c, 0, 71, 80
2, 290496, Note_on_c, 0, 62, 80
2, 290496, Note_on_c, 0, 59, 80
2, 290684, Note_off_c, 0, 71, 100
2, 290684, Note_off_c, 0, 62, 100
2, 290684, Note_off_c, 0, 59, 100
2, 290688, Note_on_c, 0, 60, 80
2, 290688, Note_on_c, 0, 62, 80
2, 290688, Note_on_c, 0, 69, 80
2, 290876, Note_off_c, 0, 60, 64
2, 290876, Note_off_c, 0, 62, 64
2, 290880, Note_on_c, 0, 62, 80
2, 290880, Note_on_c, 0, 60, 80
2, 291068, Note_off_c, 0, 62, 100
2, 291068, Note_off_c, 0, 60, 100
2, 291072, Note_on_c, 0, 62, 80
2, 291072, Note_on_c, 0, 60, 80
2, 291260, Note_off_c, 0, 69, 64
2, 291260, Note_off_c, 0, 62, 100
2, 291260, Note_off_c, 0, 60, 100
2, 291264, Note_on_c, 0, 66, 80
2, 291264, Note_on_c, 0, 62, 80
2, 291264, Note_on_c, 0, 60, 80
2, 291452, Note_off_c, 0, 66, 100
2, 291452, Note_off_c, 0, 62, 100
2, 291452, Note_off_c, 0, 60, 100
2, 291456, Note_on_c, 0, 67, 80
2, 291648, Note_on_c, 0, 58, 80
2, 291648, Note_on_c, 0, 62, 80
2, 291836, Note_off_c, 0, 67, 64
2, 291836, Note_off_c, 0, 58, 100
2, 291836, Note_off_c, 0, 62, 100
2, 291840, Note_on_c, 0, 62, 80
2, 291840, Note_on_c, 0, 58, 80
2, 292028, Note_off_c, 0, 62, 100
2, 292028, Note_off_c, 0, 58, 100
2, 292032, Note_on_c, 0, 70, 80
2, 292032, Note_on_c, 0, 62, 80
2, 292032, Note_on_c, 0, 58, 80
2, 292220, Note_off_c, 0, 70, 100
2, 292220, Note_off_c, 0, 62, 100
2, 292220, Note_off_c, 0, 58, 100
2, 292224, Note_on_c, 0, 60, 80
2, 292224, Note_on_c, 0, 62, 80
2, 292224, Note_on_c, 0, 69, 80
2, 292412, Note_off_c, 0, 60, 64
2, 292412, Note_off_c, 0, 62, 64
2, 292416, Note_on_c, 0, 62, 77
2, 292416, Note_on_c, 0, 60, 77
2, 292604, Note_off_c, 0, 62, 100
2, 292604, Note_off_c, 0, 60, 100
2, 292608, Note_on_c, 0, 62, 74
2, 292608, Note_on_c, 0, 60, 74
2, 292796, Note_off_c, 0, 69, 64
2, 292796, Note_off_c, 0, 62, 100
2, 292796, Note_off_c, 0, 60, 100
2, 292800, Note_on_c, 0, 66, 71
2, 292800, Note_on_c, 0, 62, 71
2, 292800, Note_on_c, 0, 60, 71
2, 292988, Note_off_c, 0, 66, 100
2, 292988, Note_off_c, 0, 62, 100
2, 292988, Note_off_c, 0, 60, 100
2, 292992, Note_on_c, 0, 67, 70
2, 293184, Note_on_c, 0, 59, 70
2, 293184, Note_on_c, 0, 62, 70
2, 293372, Note_off_c, 0, 67, 64
2, 293372, Note_off_c, 0, 59, 100
2, 293372, Note_off_c, 0, 62, 100
2, 293376, Note_on_c, 0, 62, 70
2, 293376, Note_on_c, 0, 59, 70
2, 293564, Note_off_c, 0, 62, 100
2, 293564, Note_off_c, 0, 59, 100
2, 293568, Note_on_c, 0, 71, 70
2, 293568, Note_on_c, 0, 62, 70
2, 293568, Note_on_c, 0, 59, 70
2, 293756, Note_off_c, 0, 71, 100
2, 293756, Note_off_c, 0, 62, 100
2, 293756, Note_off_c, 0, 59, 100
2, 293760, Note_on_c, 0, 60, 70
2, 293760, Note_on_c, 0, 62, 70
2, 293760, Note_on_c, 0, 69, 70
2, 293948, Note_off_c, 0, 60, 64
2, 293948, Note_off_c, 0, 62, 64
2, 293952, Note_on_c, 0, 62, 70
2, 293952, Note_on_c, 0, 60, 70
2, 294140, Note_off_c, 0, 62, 100
2, 294140, Note_off_c, 0, 60, 100
2, 294144, Note_on_c, 0, 62, 70
2, 294144, Note_on_c, 0, 60, 70
2, 294332, Note_off_c, 0, 69, 64
2, 294332, Note_off_c, 0, 62, 100
2, 294332, Note_off_c, 0, 60, 100
2, 294336, Note_on_c, 0, 66, 70
2, 294336, Note_on_c, 0, 62, 70
2, 294336, Note_on_c, 0, 60, 70
2, 294524, Note_off_c, 0, 66, 100
2, 294524, Note_off_c, 0, 62, 100
2, 294524, Note_off_c, 0, 60, 100
2, 294528, Note_on_c, 0, 59, 70
2, 294528, Note_on_c, 0, 62, 70
2, 294528, Note_on_c, 0, 67, 70
2, 294716, Note_off_c, 0, 59, 64
2, 294716, Note_off_c, 0, 62, 64
2, 294716, Note_off_c, 0, 67, 64
2, 294720, Note_on_c, 0, 71, 71
2, 294720, Note_on_c, 0, 62, 71
2, 294720, Note_on_c, 0, 59, 71
2, 294908, Note_off_c, 0, 71, 100
2, 294908, Note_off_c, 0, 62, 100
2, 294908, Note_off_c, 0, 59, 100
2, 294912, Note_on_c, 0, 69, 72
2, 294912, Note_on_c, 0, 62, 72
2, 294912, Note_on_c, 0, 60, 72
2, 295100, Note_off_c, 0, 69, 100
2, 295100, Note_off_c, 0, 62, 100
2, 295100, Note_off_c, 0, 60, 100
2, 295104, Note_on_c, 0, 66, 73
2, 295104, Note_on_c, 0, 62, 73
2, 295104, Note_on_c, 0, 60, 73
2, 295292, Note_off_c, 0, 66, 100
2, 295292, Note_off_c, 0, 62, 100
2, 295292, Note_off_c, 0, 60, 100
2, 295296, Note_on_c, 0, 59, 75
2, 295296, Note_on_c, 0, 62, 75
2, 295296, Note_on_c, 0, 67, 75
2, 295484, Note_off_c, 0, 59, 64
2, 295484, Note_off_c, 0, 62, 64
2, 295484, Note_off_c, 0, 67, 64
2, 295488, Note_on_c, 0, 62, 76
2, 295488, Note_on_c, 0, 71, 76
2, 295488, Note_on_c, 0, 59, 76
2, 295676, Note_off_c, 0, 62, 100
2, 295676, Note_off_c, 0, 71, 100
2, 295676, Note_off_c, 0, 59, 100
2, 295680, Note_on_c, 0, 69, 77
2, 295680, Note_on_c, 0, 62, 77
2, 295680, Note_on_c, 0, 60, 77
2, 295868, Note_off_c, 0, 69, 100
2, 295868, Note_off_c, 0, 62, 100
2, 295868, Note_off_c, 0, 60, 100
2, 295872, Note_on_c, 0, 66, 79
2, 295872, Note_on_c, 0, 62, 79
2, 295872, Note_on_c, 0, 60, 79
2, 296060, Note_off_c, 0, 66, 100
2, 296060, Note_off_c, 0, 62, 100
2, 296060, Note_off_c, 0, 60, 100
2, 296064, Note_on_c, 0, 59, 80
2, 296064, Note_on_c, 0, 62, 80
2, 296064, Note_on_c, 0, 67, 80
2, 296252, Note_off_c, 0, 59, 64
2, 296252, Note_off_c, 0, 62, 64
2, 296252, Note_off_c, 0, 67, 64
2, 296256, Note_on_c, 0, 71, 81
2, 296256, Note_on_c, 0, 62, 81
2, 296256, Note_on_c, 0, 59, 81
2, 296444, Note_off_c, 0, 71, 100
2, 296444, Note_off_c, 0, 62, 100
2, 296444, Note_off_c, 0, 59, 100
2, 296448, Note_on_c, 0, 69, 83
2, 296448, Note_on_c, 0, 62, 83
2, 296448, Note_on_c, 0, 60, 83
2, 296636, Note_off_c, 0, 69, 100
2, 296636, Note_off_c, 0, 62, 100
2, 296636, Note_off_c, 0, 60, 100
2, 296640, Note_on_c, 0, 66, 84
2, 296640, Note_on_c, 0, 62, 84
2, 296640, Note_on_c, 0, 60, 84
2, 296828, Note_off_c, 0, 66, 100
2, 296828, Note_off_c, 0, 62, 100
2, 296828, Note_off_c, 0, 60, 100
2, 296832, Note_on_c, 0, 59, 85
2, 296832, Note_on_c, 0, 62, 85
2, 296832, Note_on_c, 0, 67, 85
2, 297020, Note_off_c, 0, 59, 64
2, 297020, Note_off_c, 0, 62, 64
2, 297020, Note_off_c, 0, 67, 64
2, 297024, Note_on_c, 0, 71, 87
2, 297024, Note_on_c, 0, 62, 87
2, 297024, Note_on_c, 0, 59, 87
2, 297212, Note_off_c, 0, 71, 100
2, 297212, Note_off_c, 0, 62, 100
2, 297212, Note_off_c, 0, 59, 100
2, 297216, Note_on_c, 0, 69, 88
2, 297216, Note_on_c, 0, 62, 88
2, 297216, Note_on_c, 0, 60, 88
2, 297404, Note_off_c, 0, 69, 100
2, 297404, Note_off_c, 0, 62, 100
2, 297404, Note_off_c, 0, 60, 100
2, 297408, Note_on_c, 0, 66, 89
2, 297408, Note_on_c, 0, 62, 89
2, 297408, Note_on_c, 0, 60, 89
2, 297596, Note_off_c, 0, 66, 100
2, 297596, Note_off_c, 0, 62, 100
2, 297596, Note_off_c, 0, 60, 100
2, 297600, Note_on_c, 0, 59, 80
2, 297600, Note_on_c, 0, 62, 80
2, 297600, Note_on_c, 0, 67, 80
2, 297980, Note_off_c, 0, 59, 64
2, 297980, Note_off_c, 0, 62, 64
2, 297980, Note_off_c, 0, 67, 64
2, 298272, Note_on_c, 0, 62, 80
2, 298272, Note_on_c, 0, 59, 80
2, 298272, Note_on_c, 0, 55, 80
2, 298748, Note_off_c, 0, 55, 64
2, 298748, Note_off_c, 0, 59, 64
2, 298748, Note_off_c, 0, 62, 64
2, 299040, Note_on_c, 0, 59, 80
2, 299040, Note_on_c, 0, 55, 80
2, 299040, Note_on_c, 0, 50, 80
2, 299516, Note_off_c, 0, 50, 64
2, 299516, Note_off_c, 0, 55, 64
2, 299516, Note_off_c, 0, 59, 64
2, 299904, Note_on_c, 0, 47, 80
2, 300092, Note_off_c, 0, 47, 64
2, 300288, Note_on_c, 0, 50, 80
2, 300476, Note_off_c, 0, 50, 100
2, 300576, Note_on_c, 0, 79, 120
2, 301244, Note_off_c, 0, 79, 64
2, 301248, Note_on_c, 0, 78, 120
2, 301340, Note_off_c, 0, 78, 100
2, 301344, Note_on_c, 0, 76, 120
2, 301436, Note_off_c, 0, 76, 100
2, 301440, Note_on_c, 0, 74, 120
2, 301440, Control_c, 0, 64, 127
2, 301532, Note_off_c, 0, 74, 64
2, 301536, Note_on_c, 0, 75, 120
2, 301628, Note_off_c, 0, 75, 100
2, 301632, Note_on_c, 0, 76, 120
2, 301724, Note_off_c, 0, 76, 100
2, 301728, Note_on_c, 0, 71, 120
2, 301816, Control_c, 0, 64, 0
2, 301820, Note_off_c, 0, 71, 100
2, 301824, Note_on_c, 0, 74, 120
2, 301824, Control_c, 0, 64, 127
2, 301916, Note_off_c, 0, 74, 100
2, 301920, Note_on_c, 0, 72, 120
2, 302012, Note_off_c, 0, 72, 100
2, 302016, Note_on_c, 0, 71, 120
2, 302108, Note_off_c, 0, 71, 100
2, 302112, Note_on_c, 0, 69, 120
2, 302200, Control_c, 0, 64, 0
2, 302204, Note_off_c, 0, 69, 100
2, 302208, Note_on_c, 0, 67, 120
2, 302208, Control_c, 0, 64, 127
2, 302300, Note_off_c, 0, 67, 64
2, 302304, Note_on_c, 0, 70, 120
2, 302396, Note_off_c, 0, 70, 100
2, 302400, Note_on_c, 0, 71, 120
2, 302492, Note_off_c, 0, 71, 100
2, 302496, Note_on_c, 0, 66, 120
2, 302584, Control_c, 0, 64, 0
2, 302588, Note_off_c, 0, 66, 100
2, 302592, Note_on_c, 0, 69, 120
2, 302592, Control_c, 0, 64, 127
2, 302684, Note_off_c, 0, 69, 100
2, 302688, Note_on_c, 0, 67, 120
2, 302780, Note_off_c, 0, 67, 100
2, 302784, Note_on_c, 0, 66, 120
2, 302876, Note_off_c, 0, 66, 100
2, 302880, Note_on_c, 0, 64, 120
2, 302968, Control_c, 0, 64, 0
2, 302972, Note_off_c, 0, 64, 100
2, 302976, Note_on_c, 0, 62, 120
2, 302976, Control_c, 0, 64, 127
2, 303068, Note_off_c, 0, 62, 64
2, 303072, Note_on_c, 0, 63, 120
2, 303164, Note_off_c, 0, 63, 100
2, 303168, Note_on_c, 0, 64, 120
2, 303260, Note_off_c, 0, 64, 100
2, 303264, Note_on_c, 0, 59, 120
2, 303352, Control_c, 0, 64, 0
2, 303356, Note_off_c, 0, 59, 100
2, 303360, Note_on_c, 0, 62, 120
2, 303360, Control_c, 0, 64, 127
2, 303452, Note_off_c, 0, 62, 100
2, 303456, Note_on_c, 0, 60, 120
2, 303548, Note_off_c, 0, 60, 100
2, 303552, Note_on_c, 0, 59, 120
2, 303644, Note_off_c, 0, 59, 100
2, 303648, Note_on_c, 0, 57, 120
2, 303736, Control_c, 0, 64, 0
2, 303740, Note_off_c, 0, 57, 100
2, 303744, Note_on_c, 0, 55, 120
2, 303744, Control_c, 0, 64, 127
2, 303836, Note_off_c, 0, 55, 64
2, 303840, Note_on_c, 0, 58, 120
2, 303932, Note_off_c, 0, 58, 100
2, 303936, Note_on_c, 0, 59, 120
2, 304028, Note_off_c, 0, 59, 100
2, 304032, Note_on_c, 0, 54, 120
2, 304120, Control_c, 0, 64, 0
2, 304124, Note_off_c, 0, 54, 100
2, 304128, Note_on_c, 0, 57, 120
2, 304128, Control_c, 0, 64, 127
2, 304220, Note_off_c, 0, 57, 100
2, 304224, Note_on_c, 0, 55, 120
2, 304316, Note_off_c, 0, 55, 100
2, 304320, Note_on_c, 0, 54, 120
2, 304412, Note_off_c, 0, 54, 100
2, 304416, Note_on_c, 0, 52, 120
2, 304504, Control_c, 0, 64, 0
2, 304508, Note_off_c, 0, 52, 100
2, 304512, Note_on_c, 0, 50, 120
2, 304512, Control_c, 0, 64, 127
2, 304604, Note_off_c, 0, 50, 64
2, 304608, Note_on_c, 0, 51, 120
2, 304700, Note_off_c, 0, 51, 100
2, 304704, Note_on_c, 0, 52, 120
2, 304796, Note_off_c, 0, 52, 100
2, 304800, Note_on_c, 0, 47, 120
2, 304888, Control_c, 0, 64, 0
2, 304892, Note_off_c, 0, 47, 100
2, 304896, Note_on_c, 0, 50, 120
2, 304896, Control_c, 0, 64, 127
2, 304988, Note_off_c, 0, 50, 100
2, 304992, Note_on_c, 0, 48, 120
2, 305084, Note_off_c, 0, 48, 100
2, 305088, Note_on_c, 0, 47, 120
2, 305180, Note_off_c, 0, 47, 100
2, 305184, Note_on_c, 0, 45, 120
2, 305272, Control_c, 0, 64, 0
2, 305276, Note_off_c, 0, 45, 100
2, 305280, Note_on_c, 0, 43, 120
2, 305280, Control_c, 0, 64, 127
2, 305372, Note_off_c, 0, 43, 64
2, 305376, Note_on_c, 0, 42, 120
2, 305468, Note_off_c, 0, 42, 100
2, 305472, Note_on_c, 0, 43, 120
2, 305564, Note_off_c, 0, 43, 100
2, 305568, Note_on_c, 0, 45, 120
2, 305656, Control_c, 0, 64, 0
2, 305660, Note_off_c, 0, 45, 100
2, 305664, Note_on_c, 0, 46, 120
2, 305664, Control_c, 0, 64, 127
2, 305756, Note_off_c, 0, 46, 100
2, 305760, Note_on_c, 0, 47, 120
2, 305852, Note_off_c, 0, 47, 100
2, 305856, Note_on_c, 0, 48, 120
2, 305948, Note_off_c, 0, 48, 100
2, 305952, Note_on_c, 0, 49, 120
2, 306040, Control_c, 0, 64, 0
2, 306044, Note_off_c, 0, 49, 100
2, 306048, Note_on_c, 0, 50, 120
2, 306048, Control_c, 0, 64, 127
2, 306140, Note_off_c, 0, 50, 64
2, 306144, Note_on_c, 0, 49, 120
2, 306236, Note_off_c, 0, 49, 100
2, 306240, Note_on_c, 0, 50, 120
2, 306332, Note_off_c, 0, 50, 100
2, 306336, Note_on_c, 0, 52, 120
2, 306424, Control_c, 0, 64, 0
2, 306428, Note_off_c, 0, 52, 100
2, 306432, Note_on_c, 0, 54, 120
2, 306432, Control_c, 0, 64, 127
2, 306524, Note_off_c, 0, 54, 100
2, 306528, Note_on_c, 0, 50, 120
2, 306620, Note_off_c, 0, 50, 100
2, 306624, Note_on_c, 0, 52, 120
2, 306716, Note_off_c, 0, 52, 100
2, 306720, Note_on_c, 0, 54, 120
2, 306808, Control_c, 0, 64, 0
2, 306812, Note_off_c, 0, 54, 100
2, 306816, Note_on_c, 0, 55, 120
2, 306816, Control_c, 0, 64, 127
2, 306908, Note_off_c, 0, 55, 64
2, 306912, Note_on_c, 0, 54, 120
2, 307004, Note_off_c, 0, 54, 100
2, 307008, Note_on_c, 0, 55, 120
2, 307100, Note_off_c, 0, 55, 100
2, 307104, Note_on_c, 0, 57, 120
2, 307192, Control_c, 0, 64, 0
2, 307196, Note_off_c, 0, 57, 100
2, 307200, Note_on_c, 0, 58, 120
2, 307200, Control_c, 0, 64, 127
2, 307292, Note_off_c, 0, 58, 100
2, 307296, Note_on_c, 0, 59, 120
2, 307388, Note_off_c, 0, 59, 100
2, 307392, Note_on_c, 0, 60, 120
2, 307484, Note_off_c, 0, 60, 100
2, 307488, Note_on_c, 0, 61, 120
2, 307576, Control_c, 0, 64, 0
2, 307580, Note_off_c, 0, 61, 100
2, 307584, Note_on_c, 0, 62, 120
2, 307584, Control_c, 0, 64, 127
2, 307676, Note_off_c, 0, 62, 64
2, 307680, Note_on_c, 0, 62, 120
2, 307772, Note_off_c, 0, 62, 100
2, 307776, Note_on_c, 0, 66, 120
2, 307868, Note_off_c, 0, 66, 100
2, 307872, Note_on_c, 0, 69, 120
2, 307960, Control_c, 0, 64, 0
2, 307964, Note_off_c, 0, 69, 100
2, 307968, Note_on_c, 0, 74, 120
2, 307968, Control_c, 0, 64, 127
2, 308060, Note_off_c, 0, 74, 100
2, 308064, Note_on_c, 0, 74, 120
2, 308156, Note_off_c, 0, 74, 100
2, 308160, Note_on_c, 0, 78, 120
2, 308252, Note_off_c, 0, 78, 100
2, 308256, Note_on_c, 0, 81, 120
2, 308344, Control_c, 0, 64, 0
2, 308348, Note_off_c, 0, 81, 100
2, 308352, Note_on_c, 0, 86, 120
2, 308352, Control_c, 0, 64, 127
2, 308444, Note_off_c, 0, 86, 64
2, 308448, Note_on_c, 0, 86, 120
2, 308540, Note_off_c, 0, 86, 100
2, 308544, Note_on_c, 0, 81, 120
2, 308636, Note_off_c, 0, 81, 100
2, 308640, Note_on_c, 0, 78, 120
2, 308728, Control_c, 0, 64, 0
2, 308732, Note_off_c, 0, 78, 100
2, 308736, Note_on_c, 0, 74, 120
2, 308736, Control_c, 0, 64, 127
2, 308828, Note_off_c, 0, 74, 100
2, 308832, Note_on_c, 0, 74, 120
2, 308924, Note_off_c, 0, 74, 100
2, 308928, Note_on_c, 0, 69, 120
2, 309020, Note_off_c, 0, 69, 100
2, 309024, Note_on_c, 0, 66, 120
2, 309112, Control_c, 0, 64, 0
2, 309116, Note_off_c, 0, 66, 100
2, 309120, Note_on_c, 0, 62, 120
2, 309120, Control_c, 0, 64, 127
2, 309212, Note_off_c, 0, 62, 64
2, 309216, Note_on_c, 0, 62, 120
2, 309308, Note_off_c, 0, 62, 100
2, 309312, Note_on_c, 0, 66, 120
2, 309404, Note_off_c, 0, 66, 100
2, 309408, Note_on_c, 0, 69, 120
2, 309496, Control_c, 0, 64, 0
2, 309500, Note_off_c, 0, 69, 100
2, 309504, Note_on_c, 0, 74, 120
2, 309504, Control_c, 0, 64, 127
2, 309596, Note_off_c, 0, 74, 100
2, 309600, Note_on_c, 0, 74, 120
2, 309692, Note_off_c, 0, 74, 100
2, 309696, Note_on_c, 0, 78, 120
2, 309788, Note_off_c, 0, 78, 100
2, 309792, Note_on_c, 0, 81, 120
2, 309880, Control_c, 0, 64, 0
2, 309884, Note_off_c, 0, 81, 100
2, 309888, Note_on_c, 0, 86, 120
2, 309888, Control_c, 0, 64, 127
2, 309980, Note_off_c, 0, 86, 64
2, 309984, Note_on_c, 0, 86, 120
2, 310076, Note_off_c, 0, 86, 100
2, 310080, Note_on_c, 0, 81, 120
2, 310172, Note_off_c, 0, 81, 100
2, 310176, Note_on_c, 0, 78, 120
2, 310264, Control_c, 0, 64, 0
2, 310268, Note_off_c, 0, 78, 100
2, 310272, Note_on_c, 0, 74, 120
2, 310272, Control_c, 0, 64, 127
2, 310364, Note_off_c, 0, 74, 100
2, 310368, Note_on_c, 0, 74, 120
2, 310460, Note_off_c, 0, 74, 100
2, 310464, Note_on_c, 0, 69, 120
2, 310556, Note_off_c, 0, 69, 100
2, 310560, Note_on_c, 0, 66, 120
2, 310648, Control_c, 0, 64, 0
2, 310652, Note_off_c, 0, 66, 100
2, 310656, Note_on_c, 0, 62, 120
2, 310656, Control_c, 0, 64, 127
2, 310748, Note_off_c, 0, 62, 64
2, 310752, Note_on_c, 0, 74, 120
2, 310844, Note_off_c, 0, 74, 100
2, 310848, Note_on_c, 0, 69, 120
2, 310940, Note_off_c, 0, 69, 100
2, 310944, Note_on_c, 0, 66, 120
2, 311032, Control_c, 0, 64, 0
2, 311036, Note_off_c, 0, 66, 100
2, 311040, Note_on_c, 0, 62, 120
2, 311040, Control_c, 0, 64, 127
2, 311132, Note_off_c, 0, 62, 100
2, 311136, Note_on_c, 0, 62, 120
2, 311228, Note_off_c, 0, 62, 100
2, 311232, Note_on_c, 0, 57, 120
2, 311324, Note_off_c, 0, 57, 100
2, 311328, Note_on_c, 0, 54, 120
2, 311416, Control_c, 0, 64, 0
2, 311420, Note_off_c, 0, 54, 100
2, 311424, Note_on_c, 0, 50, 120
2, 313532, Note_off_c, 0, 50, 64
2, 313632, Note_on_c, 0, 69, 80
2, 313632, Note_on_c, 0, 66, 80
2, 313632, Note_on_c, 0, 62, 80
2, 314492, Note_off_c, 0, 62, 64
2, 314492, Note_off_c, 0, 66, 64
2, 314492, Note_off_c, 0, 69, 64
2, 314496, Note_on_c, 0, 81, 70
2, 314684, Note_off_c, 0, 81, 64
2, 314880, Note_on_c, 0, 84, 70
2, 315068, Note_off_c, 0, 84, 100
2, 315264, Note_on_c, 0, 74, 70
2, 315452, Note_off_c, 0, 74, 64
2, 316704, Note_on_c, 0, 69, 80
2, 316704, Note_on_c, 0, 66, 80
2, 316704, Note_on_c, 0, 62, 80
2, 317372, Note_off_c, 0, 62, 64
2, 317372, Note_off_c, 0, 66, 64
2, 317372, Note_off_c, 0, 69, 64
2, 317376, Note_on_c, 0, 73, 80
2, 317440, Note_on_c, 0, 74, 80
2, 317460, Note_off_c, 0, 73, 100
2, 317504, Note_on_c, 0, 76, 80
2, 317532, Note_off_c, 0, 74, 100
2, 317564, Note_off_c, 0, 76, 100
2, 317568, Note_on_c, 0, 74, 80
2, 317756, Note_off_c, 0, 74, 64
2, 318240, Note_on_c, 0, 71, 80
2, 318240, Note_on_c, 0, 67, 80
2, 318240, Note_on_c, 0, 62, 80
2, 318240, Note_on_c, 0, 59, 80
2, 318908, Note_off_c, 0, 59, 64
2, 318908, Note_off_c, 0, 62, 64
2, 318908, Note_off_c, 0, 67, 64
2, 318908, Note_off_c, 0, 71, 64
2, 318912, Note_on_c, 0, 73, 80
2, 318976, Note_on_c, 0, 74, 80
2, 319008, Note_off_c, 0, 73, 100
2, 319040, Note_on_c, 0, 76, 80
2, 319080, Note_off_c, 0, 74, 100
2, 319100, Note_off_c, 0, 76, 100
2, 319104, Note_on_c, 0, 74, 80
2, 319292, Note_off_c, 0, 74, 64
2, 319776, Note_on_c, 0, 72, 80
2, 319776, Note_on_c, 0, 62, 80
2, 319776, Note_on_c, 0, 66, 80
2, 320540, Note_off_c, 0, 62, 64
2, 320540, Note_off_c, 0, 66, 64
2, 320540, Note_off_c, 0, 72, 64
2, 320544, Note_on_c, 0, 66, 80
2, 320544, Note_on_c, 0, 72, 80
2, 320544, Note_on_c, 0, 78, 80
2, 321308, Note_off_c, 0, 66, 64
2, 321308, Note_off_c, 0, 72, 64
2, 321308, Note_off_c, 0, 78, 64
2, 321312, Note_on_c, 0, 79, 80
2, 321312, Note_on_c, 0, 71, 80
2, 321312, Note_on_c, 0, 67, 80
2, 321596, Note_off_c, 0, 67, 64
2, 321596, Note_off_c, 0, 71, 64
2, 321596, Note_off_c, 0, 79, 64
2, 321792, Note_on_c, 0, 67, 80
2, 321792, Note_on_c, 0, 62, 80
2, 321792, Note_on_c, 0, 59, 80
2, 321980, Note_off_c, 0, 67, 100
2, 321980, Note_off_c, 0, 62, 100
2, 321980, Note_off_c, 0, 59, 100
2, 322848, Note_on_c, 0, 69, 80
2, 322848, Note_on_c, 0, 66, 80
2, 322848, Note_on_c, 0, 62, 80
2, 323516, Note_off_c, 0, 62, 64
2, 323516, Note_off_c, 0, 66, 64
2, 323516, Note_off_c, 0, 69, 64
2, 323520, Note_on_c, 0, 74, 80
2, 323584, Note_on_c, 0, 78, 80
2, 323608, Note_off_c, 0, 74, 100
2, 323648, Note_on_c, 0, 81, 80
2, 323676, Note_off_c, 0, 78, 100
2, 323708, Note_off_c, 0, 81, 100
2, 323712, Note_on_c, 0, 86, 80
2, 323900, Note_off_c, 0, 86, 64
2, 324384, Note_on_c, 0, 71, 80
2, 324384, Note_on_c, 0, 67, 80
2, 324384, Note_on_c, 0, 62, 80
2, 324384, Note_on_c, 0, 59, 80
2, 325052, Note_off_c, 0, 59, 64
2, 325052, Note_off_c, 0, 62, 64
2, 325052, Note_off_c, 0, 67, 64
2, 325052, Note_off_c, 0, 71, 64
2, 325056, Note_on_c, 0, 74, 80
2, 325120, Note_on_c, 0, 79, 80
2, 325136, Note_off_c, 0, 74, 100
2, 325184, Note_on_c, 0, 83, 80
2, 325204, Note_off_c, 0, 79, 100
2, 325248, Note_on_c, 0, 86, 80
2, 325268, Note_off_c, 0, 83, 64
2, 325436, Note_off_c, 0, 86, 64
2, 325920, Note_on_c, 0, 72, 80
2, 325920, Note_on_c, 0, 62, 80
2, 325920, Note_on_c, 0, 66, 80
2, 326684, Note_off_c, 0, 62, 64
2, 326684, Note_off_c, 0, 66, 64
2, 326684, Note_off_c, 0, 72, 64
2, 326688, Note_on_c, 0, 66, 80
2, 326688, Note_on_c, 0, 72, 80
2, 326688, Note_on_c, 0, 78, 80
2, 327452, Note_off_c, 0, 66, 64
2, 327452, Note_off_c, 0, 72, 64
2, 327452, Note_off_c, 0, 78, 64
2, 327456, Note_on_c, 0, 79, 80
2, 327456, Note_on_c, 0, 71, 80
2, 327456, Note_on_c, 0, 67, 80
2, 327740, Note_off_c, 0, 67, 64
2, 327740, Note_off_c, 0, 71, 64
2, 327740, Note_off_c, 0, 79, 64
2, 327936, Note_on_c, 0, 67, 80
2, 327936, Note_on_c, 0, 62, 80
2, 327936, Note_on_c, 0, 59, 80
2, 328124, Note_off_c, 0, 67, 100
2, 328124, Note_off_c, 0, 62, 100
2, 328124, Note_off_c, 0, 59, 100
2, 328992, Note_on_c, 0, 72, 80
2, 328992, Note_on_c, 0, 66, 80
2, 328992, Note_on_c, 0, 62, 80
2, 329756, Note_off_c, 0, 62, 64
2, 329756, Note_off_c, 0, 66, 64
2, 329756, Note_off_c, 0, 72, 64
2, 329760, Note_on_c, 0, 81, 80
2, 329760, Note_on_c, 0, 78, 80
2, 329760, Note_on_c, 0, 69, 80
2, 330524, Note_off_c, 0, 69, 64
2, 330524, Note_off_c, 0, 78, 64
2, 330524, Note_off_c, 0, 81, 64
2, 330528, Note_on_c, 0, 83, 80
2, 330528, Note_on_c, 0, 79, 80
2, 330528, Note_on_c, 0, 71, 80
2, 330812, Note_off_c, 0, 71, 64
2, 330812, Note_off_c, 0, 79, 64
2, 330812, Note_off_c, 0, 83, 64
2, 331008, Note_on_c, 0, 71, 80
2, 331008, Note_on_c, 0, 67, 80
2, 331008, Note_on_c, 0, 62, 80
2, 331008, Note_on_c, 0, 59, 80
2, 331196, Note_off_c, 0, 71, 100
2, 331196, Note_off_c, 0, 67, 100
2, 331196, Note_off_c, 0, 62, 100
2, 331196, Note_off_c, 0, 59, 100
2, 332064, Note_on_c, 0, 74, 120
2, 332064, Note_on_c, 0, 72, 120
2, 332064, Note_on_c, 0, 69, 120
2, 332064, Note_on_c, 0, 62, 120
2, 332828, Note_off_c, 0, 62, 64
2, 332828, Note_off_c, 0, 69, 64
2, 332828, Note_off_c, 0, 72, 64
2, 332828, Note_off_c, 0, 74, 64
2, 332832, Note_on_c, 0, 86, 120
2, 332832, Note_on_c, 0, 81, 120
2, 332832, Note_on_c, 0, 78, 120
2, 332832, Note_on_c, 0, 74, 120
2, 333596, Note_off_c, 0, 74, 64
2, 333596, Note_off_c, 0, 78, 64
2, 333596, Note_off_c, 0, 81, 64
2, 333596, Note_off_c, 0, 86, 64
2, 333600, Note_on_c, 0, 83, 120
2, 333600, Note_on_c, 0, 74, 120
2, 333600, Note_on_c, 0, 79, 120
2, 333600, Note_on_c, 0, 71, 120
2, 333884, Note_off_c, 0, 71, 64
2, 333884, Note_off_c, 0, 74, 64
2, 333884, Note_off_c, 0, 79, 64
2, 333884, Note_off_c, 0, 83, 64
2, 334080, Note_on_c, 0, 59, 120
2, 334268, Note_off_c, 0, 59, 100
2, 335232, Note_on_c, 0, 67, 80
2, 335232, Note_on_c, 0, 71, 80
2, 335232, Note_on_c, 0, 74, 80
2, 335232, Note_on_c, 0, 79, 80
2, 335420, Note_off_c, 0, 67, 64
2, 335420, Note_off_c, 0, 71, 64
2, 335420, Note_off_c, 0, 74, 64
2, 335420, Note_off_c, 0, 79, 64
2, 335616, Note_on_c, 0, 55, 80
2, 335616, Note_on_c, 0, 50, 80
2, 335616, Note_on_c, 0, 47, 80
2, 335996, Note_off_c, 0, 55, 100
2, 335996, Note_off_c, 0, 50, 100
2, 335996, Note_off_c, 0, 47, 100
2, 336384, Control_c, 0, 7, 0
2, 336768, Note_on_c, 0, 55, 1
2, 336956, Note_off_c, 0, 55, 100
2, 336956, End_track
3, 0, Start_track
3, 0, Title_t, "Left"
3, 0, Control_c, 1, 0, 0
3, 0, Program_c, 1, 0
3, 0, Control_c, 1, 7, 100
3, 0, Control_c, 1, 10, 59
3, 0, Control_c, 1, 91, 127
3, 0, Key_signature, 1, "major"
3, 384, Note_on_c, 1, 62, 80
3, 384, Note_on_c, 1, 59, 80
3, 384, Note_on_c, 1, 55, 80
3, 764, Note_off_c, 1, 62, 100
3, 764, Note_off_c, 1, 59, 100
3, 764, Note_off_c, 1, 55, 100
3, 2688, Note_on_c, 1, 55, 80
3, 2688, Note_on_c, 1, 43, 80
3, 2876, Note_off_c, 1, 55, 100
3, 2876, Note_off_c, 1, 43, 100
3, 3072, Note_on_c, 1, 55, 80
3, 3072, Note_on_c, 1, 43, 80
3, 3260, Note_off_c, 1, 55, 100
3, 3260, Note_off_c, 1, 43, 100
3, 3456, Note_on_c, 1, 55, 80
3, 3456, Note_on_c, 1, 43, 80
3, 3644, Note_off_c, 1, 55, 100
3, 3644, Note_off_c, 1, 43, 100
3, 4224, Note_on_c, 1, 55, 80
3, 4224, Note_on_c, 1, 43, 80
3, 4412, Note_off_c, 1, 55, 100
3, 4412, Note_off_c, 1, 43, 100
3, 4608, Note_on_c, 1, 55, 80
3, 4608, Note_on_c, 1, 43, 80
3, 4796, Note_off_c, 1, 55, 100
3, 4796, Note_off_c, 1, 43, 100
3, 4992, Note_on_c, 1, 55, 80
3, 4992, Note_on_c, 1, 43, 80
3, 5180, Note_off_c, 1, 55, 100
3, 5180, Note_off_c, 1, 43, 100
3, 5760, Note_on_c, 1, 55, 110
3, 5760, Note_on_c, 1, 43, 110
3, 5948, Note_off_c, 1, 55, 100
3, 5948, Note_off_c, 1, 43, 100
3, 6144, Note_on_c, 1, 52, 110
3, 6144, Note_on_c, 1, 40, 110
3, 6332, Note_off_c, 1, 52, 100
3, 6332, Note_off_c, 1, 40, 100
3, 6528, Note_on_c, 1, 57, 110
3, 6528, Note_on_c, 1, 45, 110
3, 6716, Note_off_c, 1, 57, 100
3, 6716, Note_off_c, 1, 45, 100
3, 7296, Note_on_c, 1, 57, 80
3, 7296, Note_on_c, 1, 45, 80
3, 7484, Note_off_c, 1, 57, 100
3, 7484, Note_off_c, 1, 45, 100
3, 7680, Note_on_c, 1, 45, 80
3, 7680, Note_on_c, 1, 33, 80
3, 7868, Note_off_c, 1, 45, 100
3, 7868, Note_off_c, 1, 33, 100
3, 8064, Note_on_c, 1, 50, 80
3, 8064, Note_on_c, 1, 38, 80
3, 8252, Note_off_c, 1, 50, 100
3, 8252, Note_off_c, 1, 38, 100
3, 8832, Note_on_c, 1, 65, 110
3, 9404, Note_off_c, 1, 65, 100
3, 9408, Note_on_c, 1, 64, 110
3, 9500, Note_off_c, 1, 64, 100
3, 9504, Note_on_c, 1, 62, 110
3, 9596, Note_off_c, 1, 62, 100
3, 9600, Note_on_c, 1, 60, 110
3, 9692, Note_off_c, 1, 60, 100
3, 9696, Note_on_c, 1, 61, 110
3, 9788, Note_off_c, 1, 61, 100
3, 9792, Note_on_c, 1, 62, 110
3, 9884, Note_off_c, 1, 62, 100
3, 9888, Note_on_c, 1, 57, 110
3, 9980, Note_off_c, 1, 57, 100
3, 9984, Note_on_c, 1, 60, 110
3, 10076, Note_off_c, 1, 60, 100
3, 10080, Note_on_c, 1, 58, 110
3, 10172, Note_off_c, 1, 58, 100
3, 10176, Note_on_c, 1, 57, 110
3, 10268, Note_off_c, 1, 57, 100
3, 10272, Note_on_c, 1, 55, 110
3, 10364, Note_off_c, 1, 55, 100
3, 10368, Note_on_c, 1, 53, 110
3, 10748, Note_off_c, 1, 53, 100
3, 11136, Note_on_c, 1, 53, 80
3, 11136, Note_on_c, 1, 41, 80
3, 11324, Note_off_c, 1, 53, 100
3, 11324, Note_off_c, 1, 41, 100
3, 11520, Note_on_c, 1, 53, 80
3, 11520, Note_on_c, 1, 41, 80
3, 11708, Note_off_c, 1, 53, 100
3, 11708, Note_off_c, 1, 41, 100
3, 11904, Note_on_c, 1, 53, 80
3, 11904, Note_on_c, 1, 41, 80
3, 12092, Note_off_c, 1, 53, 100
3, 12092, Note_off_c, 1, 41, 100
3, 12672, Note_on_c, 1, 53, 80
3, 12672, Note_on_c, 1, 41, 80
3, 12860, Note_off_c, 1, 53, 100
3, 12860, Note_off_c, 1, 41, 100
3, 13056, Note_on_c, 1, 53, 80
3, 13056, Note_on_c, 1, 41, 80
3, 13244, Note_off_c, 1, 53, 100
3, 13244, Note_off_c, 1, 41, 100
3, 13440, Note_on_c, 1, 53, 80
3, 13440, Note_on_c, 1, 41, 80
3, 13628, Note_off_c, 1, 53, 100
3, 13628, Note_off_c, 1, 41, 100
3, 14208, Note_on_c, 1, 53, 110
3, 14208, Note_on_c, 1, 41, 110
3, 14396, Note_off_c, 1, 53, 100
3, 14396, Note_off_c, 1, 41, 100
3, 14592, Note_on_c, 1, 50, 110
3, 14592, Note_on_c, 1, 38, 110
3, 14780, Note_off_c, 1, 50, 100
3, 14780, Note_off_c, 1, 38, 100
3, 14976, Note_on_c, 1, 55, 110
3, 14976, Note_on_c, 1, 43, 110
3, 15164, Note_off_c, 1, 55, 100
3, 15164, Note_off_c, 1, 43, 100
3, 15744, Note_on_c, 1, 55, 80
3, 15744, Note_on_c, 1, 43, 80
3, 15932, Note_off_c, 1, 55, 100
3, 15932, Note_off_c, 1, 43, 100
3, 16128, Note_on_c, 1, 43, 80
3, 16128, Note_on_c, 1, 31, 80
3, 16316, Note_off_c, 1, 43, 100
3, 16316, Note_off_c, 1, 31, 100
3, 16512, Note_on_c, 1, 48, 80
3, 16512, Note_on_c, 1, 36, 80
3, 16700, Note_off_c, 1, 48, 100
3, 16700, Note_off_c, 1, 36, 100
3, 17280, Note_on_c, 1, 60, 110
3, 17280, Note_on_c, 1, 48, 110
3, 17468, Note_off_c, 1, 60, 100
3, 17468, Note_off_c, 1, 48, 100
3, 17664, Note_on_c, 1, 57, 110
3, 17664, Note_on_c, 1, 45, 110
3, 17852, Note_off_c, 1, 57, 100
3, 17852, Note_off_c, 1, 45, 100
3, 18048, Note_on_c, 1, 62, 110
3, 18048, Note_on_c, 1, 50, 110
3, 18236, Note_off_c, 1, 62, 100
3, 18236, Note_off_c, 1, 50, 100
3, 18816, Note_on_c, 1, 62, 80
3, 18816, Note_on_c, 1, 50, 80
3, 19004, Note_off_c, 1, 62, 100
3, 19004, Note_off_c, 1, 50, 100
3, 19200, Note_on_c, 1, 50, 80
3, 19200, Note_on_c, 1, 38, 80
3, 19388, Note_off_c, 1, 50, 100
3, 19388, Note_off_c, 1, 38, 100
3, 19584, Note_on_c, 1, 55, 80
3, 19584, Note_on_c, 1, 43, 80
3, 19772, Note_off_c, 1, 55, 100
3, 19772, Note_off_c, 1, 43, 100
3, 20352, Note_on_c, 1, 62, 80
3, 20352, Note_on_c, 1, 50, 80
3, 20540, Note_off_c, 1, 62, 100
3, 20540, Note_off_c, 1, 50, 100
3, 20736, Note_on_c, 1, 50, 80
3, 20736, Note_on_c, 1, 38, 80
3, 20924, Note_off_c, 1, 50, 100
3, 20924, Note_off_c, 1, 38, 100
3, 21120, Note_on_c, 1, 55, 80
3, 21120, Note_on_c, 1, 43, 80
3, 21308, Note_off_c, 1, 55, 100
3, 21308, Note_off_c, 1, 43, 100
3, 21888, Note_on_c, 1, 62, 80
3, 21888, Note_on_c, 1, 50, 80
3, 22172, Note_off_c, 1, 62, 100
3, 22172, Note_off_c, 1, 50, 100
3, 22272, Note_on_c, 1, 50, 80
3, 22272, Note_on_c, 1, 38, 80
3, 22556, Note_off_c, 1, 50, 100
3, 22556, Note_off_c, 1, 38, 100
3, 22656, Note_on_c, 1, 55, 80
3, 22656, Note_on_c, 1, 43, 80
3, 22940, Note_off_c, 1, 55, 100
3, 22940, Note_off_c, 1, 43, 100
3, 23424, Note_on_c, 1, 62, 87
3, 23516, Note_off_c, 1, 62, 100
3, 23520, Note_on_c, 1, 63, 88
3, 23612, Note_off_c, 1, 63, 100
3, 23616, Note_on_c, 1, 64, 89
3, 23708, Note_off_c, 1, 64, 100
3, 23712, Note_on_c, 1, 59, 90
3, 23804, Note_off_c, 1, 59, 100
3, 23808, Note_on_c, 1, 62, 91
3, 23900, Note_off_c, 1, 62, 100
3, 23904, Note_on_c, 1, 60, 92
3, 23996, Note_off_c, 1, 60, 100
3, 24000, Note_on_c, 1, 59, 93
3, 24092, Note_off_c, 1, 59, 100
3, 24096, Note_on_c, 1, 57, 94
3, 24188, Note_off_c, 1, 57, 100
3, 24192, Note_on_c, 1, 55, 95
3, 24284, Note_off_c, 1, 55, 100
3, 24288, Note_on_c, 1, 58, 96
3, 24380, Note_off_c, 1, 58, 100
3, 24384, Note_on_c, 1, 59, 97
3, 24476, Note_off_c, 1, 59, 100
3, 24480, Note_on_c, 1, 54, 98
3, 24572, Note_off_c, 1, 54, 100
3, 24576, Note_on_c, 1, 57, 99
3, 24668, Note_off_c, 1, 57, 100
3, 24672, Note_on_c, 1, 55, 100
3, 24764, Note_off_c, 1, 55, 100
3, 24768, Note_on_c, 1, 54, 101
3, 24860, Note_off_c, 1, 54, 100
3, 24864, Note_on_c, 1, 52, 102
3, 24956, Note_off_c, 1, 52, 100
3, 24960, Note_on_c, 1, 50, 103
3, 25052, Note_off_c, 1, 50, 100
3, 25056, Note_on_c, 1, 51, 104
3, 25148, Note_off_c, 1, 51, 100
3, 25152, Note_on_c, 1, 52, 105
3, 25244, Note_off_c, 1, 52, 100
3, 25248, Note_on_c, 1, 47, 106
3, 25340, Note_off_c, 1, 47, 100
3, 25344, Note_on_c, 1, 50, 107
3, 25436, Note_off_c, 1, 50, 100
3, 25440, Note_on_c, 1, 48, 108
3, 25532, Note_off_c, 1, 48, 100
3, 25536, Note_on_c, 1, 47, 108
3, 25628, Note_off_c, 1, 47, 100
3, 25632, Note_on_c, 1, 45, 109
3, 25724, Note_off_c, 1, 45, 100
3, 25728, Note_on_c, 1, 43, 110
3, 25820, Note_off_c, 1, 43, 100
3, 25824, Note_on_c, 1, 46, 110
3, 25916, Note_off_c, 1, 46, 100
3, 25920, Note_on_c, 1, 47, 110
3, 26012, Note_off_c, 1, 47, 100
3, 26016, Note_on_c, 1, 42, 110
3, 26108, Note_off_c, 1, 42, 100
3, 26112, Note_on_c, 1, 45, 110
3, 26204, Note_off_c, 1, 45, 100
3, 26208, Note_on_c, 1, 43, 110
3, 26300, Note_off_c, 1, 43, 100
3, 26304, Note_on_c, 1, 42, 110
3, 26396, Note_off_c, 1, 42, 100
3, 26400, Note_on_c, 1, 40, 110
3, 26492, Note_off_c, 1, 40, 100
3, 26496, Note_on_c, 1, 38, 110
3, 26588, Note_off_c, 1, 38, 100
3, 26592, Note_on_c, 1, 39, 110
3, 26684, Note_off_c, 1, 39, 100
3, 26688, Note_on_c, 1, 40, 110
3, 26780, Note_off_c, 1, 40, 100
3, 26784, Note_on_c, 1, 35, 110
3, 26876, Note_off_c, 1, 35, 100
3, 26880, Note_on_c, 1, 38, 110
3, 26972, Note_off_c, 1, 38, 100
3, 26976, Note_on_c, 1, 36, 110
3, 27068, Note_off_c, 1, 36, 100
3, 27072, Note_on_c, 1, 35, 110
3, 27164, Note_off_c, 1, 35, 100
3, 27168, Note_on_c, 1, 33, 110
3, 27260, Note_off_c, 1, 33, 100
3, 27264, Note_on_c, 1, 31, 110
3, 27356, Note_off_c, 1, 31, 100
3, 27360, Note_on_c, 1, 30, 110
3, 27452, Note_off_c, 1, 30, 100
3, 27456, Note_on_c, 1, 31, 110
3, 27548, Note_off_c, 1, 31, 100
3, 27552, Note_on_c, 1, 33, 110
3, 27644, Note_off_c, 1, 33, 100
3, 27648, Note_on_c, 1, 34, 110
3, 27740, Note_off_c, 1, 34, 100
3, 27744, Note_on_c, 1, 35, 110
3, 27836, Note_off_c, 1, 35, 100
3, 27840, Note_on_c, 1, 36, 110
3, 27932, Note_off_c, 1, 36, 100
3, 27936, Note_on_c, 1, 37, 110
3, 28028, Note_off_c, 1, 37, 100
3, 28032, Note_on_c, 1, 38, 110
3, 28124, Note_off_c, 1, 38, 100
3, 28128, Note_on_c, 1, 37, 110
3, 28220, Note_off_c, 1, 37, 100
3, 28224, Note_on_c, 1, 38, 110
3, 28316, Note_off_c, 1, 38, 100
3, 28320, Note_on_c, 1, 40, 110
3, 28412, Note_off_c, 1, 40, 100
3, 28416, Note_on_c, 1, 42, 110
3, 28508, Note_off_c, 1, 42, 100
3, 28512, Note_on_c, 1, 38, 110
3, 28604, Note_off_c, 1, 38, 100
3, 28608, Note_on_c, 1, 40, 110
3, 28700, Note_off_c, 1, 40, 100
3, 28704, Note_on_c, 1, 42, 110
3, 28796, Note_off_c, 1, 42, 100
3, 28800, Note_on_c, 1, 43, 110
3, 28892, Note_off_c, 1, 43, 100
3, 28896, Note_on_c, 1, 42, 110
3, 28988, Note_off_c, 1, 42, 100
3, 28992, Note_on_c, 1, 43, 110
3, 29084, Note_off_c, 1, 43, 100
3, 29088, Note_on_c, 1, 45, 110
3, 29180, Note_off_c, 1, 45, 100
3, 29184, Note_on_c, 1, 46, 110
3, 29276, Note_off_c, 1, 46, 100
3, 29280, Note_on_c, 1, 47, 110
3, 29372, Note_off_c, 1, 47, 100
3, 29376, Note_on_c, 1, 48, 110
3, 29468, Note_off_c, 1, 48, 100
3, 29472, Note_on_c, 1, 49, 110
3, 29564, Note_off_c, 1, 49, 100
3, 29568, Note_on_c, 1, 50, 110
3, 29660, Note_off_c, 1, 50, 100
3, 29664, Note_on_c, 1, 50, 110
3, 29756, Note_off_c, 1, 50, 100
3, 29760, Note_on_c, 1, 54, 110
3, 29852, Note_off_c, 1, 54, 100
3, 29856, Note_on_c, 1, 57, 110
3, 29948, Note_off_c, 1, 57, 100
3, 29952, Note_on_c, 1, 62, 110
3, 30044, Note_off_c, 1, 62, 100
3, 30048, Note_on_c, 1, 62, 110
3, 30140, Note_off_c, 1, 62, 100
3, 30144, Note_on_c, 1, 66, 110
3, 30236, Note_off_c, 1, 66, 100
3, 30240, Note_on_c, 1, 69, 110
3, 30332, Note_off_c, 1, 69, 100
3, 30336, Note_on_c, 1, 74, 110
3, 30428, Note_off_c, 1, 74, 100
3, 30432, Note_on_c, 1, 74, 110
3, 30524, Note_off_c, 1, 74, 100
3, 30528, Note_on_c, 1, 69, 110
3, 30620, Note_off_c, 1, 69, 100
3, 30624, Note_on_c, 1, 66, 110
3, 30716, Note_off_c, 1, 66, 100
3, 30720, Note_on_c, 1, 62, 110
3, 30812, Note_off_c, 1, 62, 100
3, 30816, Note_on_c, 1, 62, 110
3, 30908, Note_off_c, 1, 62, 100
3, 30912, Note_on_c, 1, 57, 110
3, 31004, Note_off_c, 1, 57, 100
3, 31008, Note_on_c, 1, 54, 110
3, 31100, Note_off_c, 1, 54, 100
3, 31104, Note_on_c, 1, 50, 110
3, 31196, Note_off_c, 1, 50, 100
3, 31200, Note_on_c, 1, 50, 110
3, 31292, Note_off_c, 1, 50, 100
3, 31296, Note_on_c, 1, 54, 110
3, 31388, Note_off_c, 1, 54, 100
3, 31392, Note_on_c, 1, 57, 110
3, 31484, Note_off_c, 1, 57, 100
3, 31488, Note_on_c, 1, 62, 110
3, 31580, Note_off_c, 1, 62, 100
3, 31584, Note_on_c, 1, 62, 110
3, 31676, Note_off_c, 1, 62, 100
3, 31680, Note_on_c, 1, 66, 110
3, 31772, Note_off_c, 1, 66, 100
3, 31776, Note_on_c, 1, 69, 110
3, 31868, Note_off_c, 1, 69, 100
3, 31872, Note_on_c, 1, 74, 110
3, 31964, Note_off_c, 1, 74, 100
3, 31968, Note_on_c, 1, 74, 110
3, 32060, Note_off_c, 1, 74, 100
3, 32064, Note_on_c, 1, 69, 110
3, 32156, Note_off_c, 1, 69, 100
3, 32160, Note_on_c, 1, 66, 110
3, 32252, Note_off_c, 1, 66, 100
3, 32256, Note_on_c, 1, 62, 110
3, 32348, Note_off_c, 1, 62, 100
3, 32352, Note_on_c, 1, 62, 110
3, 32444, Note_off_c, 1, 62, 100
3, 32448, Note_on_c, 1, 57, 110
3, 32540, Note_off_c, 1, 57, 100
3, 32544, Note_on_c, 1, 54, 110
3, 32636, Note_off_c, 1, 54, 100
3, 32640, Note_on_c, 1, 50, 110
3, 32732, Note_off_c, 1, 50, 100
3, 32736, Note_on_c, 1, 62, 110
3, 32828, Note_off_c, 1, 62, 100
3, 32832, Note_on_c, 1, 57, 110
3, 32924, Note_off_c, 1, 57, 100
3, 32928, Note_on_c, 1, 54, 110
3, 33020, Note_off_c, 1, 54, 100
3, 33024, Note_on_c, 1, 50, 110
3, 33116, Note_off_c, 1, 50, 100
3, 33120, Note_on_c, 1, 50, 110
3, 33212, Note_off_c, 1, 50, 100
3, 33216, Note_on_c, 1, 45, 110
3, 33308, Note_off_c, 1, 45, 100
3, 33312, Note_on_c, 1, 42, 110
3, 33404, Note_off_c, 1, 42, 100
3, 33408, Note_on_c, 1, 38, 110
3, 35516, Note_off_c, 1, 38, 64
3, 35712, Note_on_c, 1, 62, 110
3, 35712, Note_on_c, 1, 59, 110
3, 35712, Note_on_c, 1, 55, 110
3, 36092, Note_off_c, 1, 62, 100
3, 36092, Note_off_c, 1, 59, 100
3, 36092, Note_off_c, 1, 55, 100
3, 38016, Note_on_c, 1, 55, 80
3, 38016, Note_on_c, 1, 43, 80
3, 38204, Note_off_c, 1, 55, 100
3, 38204, Note_off_c, 1, 43, 100
3, 38400, Note_on_c, 1, 55, 80
3, 38400, Note_on_c, 1, 43, 80
3, 38588, Note_off_c, 1, 55, 100
3, 38588, Note_off_c, 1, 43, 100
3, 38784, Note_on_c, 1, 55, 80
3, 38784, Note_on_c, 1, 43, 80
3, 38972, Note_off_c, 1, 55, 100
3, 38972, Note_off_c, 1, 43, 100
3, 39552, Note_on_c, 1, 55, 80
3, 39552, Note_on_c, 1, 43, 80
3, 39740, Note_off_c, 1, 55, 100
3, 39740, Note_off_c, 1, 43, 100
3, 39936, Note_on_c, 1, 55, 80
3, 39936, Note_on_c, 1, 43, 80
3, 40124, Note_off_c, 1, 55, 100
3, 40124, Note_off_c, 1, 43, 100
3, 40320, Note_on_c, 1, 55, 80
3, 40320, Note_on_c, 1, 43, 80
3, 40508, Note_off_c, 1, 55, 100
3, 40508, Note_off_c, 1, 43, 100
3, 41088, Note_on_c, 1, 55, 110
3, 41088, Note_on_c, 1, 43, 110
3, 41276, Note_off_c, 1, 55, 100
3, 41276, Note_off_c, 1, 43, 100
3, 41472, Note_on_c, 1, 52, 110
3, 41472, Note_on_c, 1, 40, 110
3, 41660, Note_off_c, 1, 52, 100
3, 41660, Note_off_c, 1, 40, 100
3, 41856, Note_on_c, 1, 54, 110
3, 41856, Note_on_c, 1, 42, 110
3, 42044, Note_off_c, 1, 54, 100
3, 42044, Note_off_c, 1, 42, 100
3, 42624, Note_on_c, 1, 67, 80
3, 42812, Note_off_c, 1, 67, 100
3, 43008, Note_on_c, 1, 67, 80
3, 43196, Note_off_c, 1, 67, 100
3, 43392, Note_on_c, 1, 66, 80
3, 43580, Note_off_c, 1, 66, 100
3, 44160, Note_on_c, 1, 55, 110
3, 44160, Note_on_c, 1, 43, 110
3, 44348, Note_off_c, 1, 55, 100
3, 44348, Note_off_c, 1, 43, 100
3, 44544, Note_on_c, 1, 52, 110
3, 44544, Note_on_c, 1, 40, 110
3, 44732, Note_off_c, 1, 52, 100
3, 44732, Note_off_c, 1, 40, 100
3, 44928, Note_on_c, 1, 54, 110
3, 44928, Note_on_c, 1, 42, 110
3, 45116, Note_off_c, 1, 54, 100
3, 45116, Note_off_c, 1, 42, 100
3, 45696, Note_on_c, 1, 55, 80
3, 45884, Note_off_c, 1, 55, 100
3, 46080, Note_on_c, 1, 55, 80
3, 46268, Note_off_c, 1, 55, 100
3, 46464, Note_on_c, 1, 54, 80
3, 46652, Note_off_c, 1, 54, 100
3, 47232, Note_on_c, 1, 67, 80
3, 47420, Note_off_c, 1, 67, 100
3, 47616, Note_on_c, 1, 67, 80
3, 47804, Note_off_c, 1, 67, 100
3, 48000, Note_on_c, 1, 66, 80
3, 48188, Note_off_c, 1, 66, 100
3, 48768, Note_on_c, 1, 43, 80
3, 48768, Note_on_c, 1, 31, 80
3, 49052, Note_off_c, 1, 43, 100
3, 49052, Note_off_c, 1, 31, 100
3, 49152, Note_on_c, 1, 43, 80
3, 49152, Note_on_c, 1, 31, 80
3, 49436, Note_off_c, 1, 43, 100
3, 49436, Note_off_c, 1, 31, 100
3, 49536, Note_on_c, 1, 42, 80
3, 49536, Note_on_c, 1, 30, 80
3, 49820, Note_off_c, 1, 42, 100
3, 49820, Note_off_c, 1, 30, 100
3, 51072, Note_on_c, 1, 47, 80
3, 51260, Note_off_c, 1, 47, 100
3, 51264, Note_on_c, 1, 63, 80
3, 51264, Note_on_c, 1, 59, 80
3, 51264, Note_on_c, 1, 54, 80
3, 51452, Note_off_c, 1, 63, 100
3, 51452, Note_off_c, 1, 59, 100
3, 51452, Note_off_c, 1, 54, 100
3, 51456, Note_on_c, 1, 63, 80
3, 51456, Note_on_c, 1, 59, 80
3, 51456, Note_on_c, 1, 54, 80
3, 51644, Note_off_c, 1, 63, 100
3, 51644, Note_off_c, 1, 59, 100
3, 51644, Note_off_c, 1, 54, 100
3, 51648, Note_on_c, 1, 63, 80
3, 51648, Note_on_c, 1, 59, 80
3, 51648, Note_on_c, 1, 54, 80
3, 51836, Note_off_c, 1, 63, 100
3, 51836, Note_off_c, 1, 59, 100
3, 51836, Note_off_c, 1, 54, 100
3, 51840, Note_on_c, 1, 47, 80
3, 52028, Note_off_c, 1, 47, 100
3, 52032, Note_on_c, 1, 63, 80
3, 52032, Note_on_c, 1, 59, 80
3, 52032, Note_on_c, 1, 54, 80
3, 52220, Note_off_c, 1, 63, 100
3, 52220, Note_off_c, 1, 59, 100
3, 52220, Note_off_c, 1, 54, 100
3, 52224, Note_on_c, 1, 63, 80
3, 52224, Note_on_c, 1, 59, 80
3, 52224, Note_on_c, 1, 54, 80
3, 52412, Note_off_c, 1, 63, 100
3, 52412, Note_off_c, 1, 59, 100
3, 52412, Note_off_c, 1, 54, 100
3, 52416, Note_on_c, 1, 63, 80
3, 52416, Note_on_c, 1, 59, 80
3, 52416, Note_on_c, 1, 54, 80
3, 52604, Note_off_c, 1, 63, 100
3, 52604, Note_off_c, 1, 59, 100
3, 52604, Note_off_c, 1, 54, 100
3, 52608, Note_on_c, 1, 42, 80
3, 52796, Note_off_c, 1, 42, 100
3, 52800, Note_on_c, 1, 64, 80
3, 52800, Note_on_c, 1, 61, 80
3, 52800, Note_on_c, 1, 54, 80
3, 52988, Note_off_c, 1, 64, 100
3, 52988, Note_off_c, 1, 61, 100
3, 52988, Note_off_c, 1, 54, 100
3, 52992, Note_on_c, 1, 64, 80
3, 52992, Note_on_c, 1, 61, 80
3, 52992, Note_on_c, 1, 54, 80
3, 53180, Note_off_c, 1, 64, 100
3, 53180, Note_off_c, 1, 61, 100
3, 53180, Note_off_c, 1, 54, 100
3, 53184, Note_on_c, 1, 64, 80
3, 53184, Note_on_c, 1, 61, 80
3, 53184, Note_on_c, 1, 54, 80
3, 53372, Note_off_c, 1, 64, 100
3, 53372, Note_off_c, 1, 61, 100
3, 53372, Note_off_c, 1, 54, 100
3, 53376, Note_on_c, 1, 46, 80
3, 53564, Note_off_c, 1, 46, 100
3, 53568, Note_on_c, 1, 64, 80
3, 53568, Note_on_c, 1, 61, 80
3, 53568, Note_on_c, 1, 54, 80
3, 53756, Note_off_c, 1, 64, 100
3, 53756, Note_off_c, 1, 61, 100
3, 53756, Note_off_c, 1, 54, 100
3, 53760, Note_on_c, 1, 42, 80
3, 53948, Note_off_c, 1, 42, 100
3, 53952, Note_on_c, 1, 64, 80
3, 53952, Note_on_c, 1, 61, 80
3, 53952, Note_on_c, 1, 54, 80
3, 54140, Note_off_c, 1, 64, 100
3, 54140, Note_off_c, 1, 61, 100
3, 54140, Note_off_c, 1, 54, 100
3, 54144, Note_on_c, 1, 47, 80
3, 54332, Note_off_c, 1, 47, 100
3, 54336, Note_on_c, 1, 63, 80
3, 54336, Note_on_c, 1, 59, 80
3, 54336, Note_on_c, 1, 54, 80
3, 54524, Note_off_c, 1, 63, 100
3, 54524, Note_off_c, 1, 59, 100
3, 54524, Note_off_c, 1, 54, 100
3, 54528, Note_on_c, 1, 63, 80
3, 54528, Note_on_c, 1, 59, 80
3, 54528, Note_on_c, 1, 54, 80
3, 54716, Note_off_c, 1, 63, 100
3, 54716, Note_off_c, 1, 59, 100
3, 54716, Note_off_c, 1, 54, 100
3, 54720, Note_on_c, 1, 63, 80
3, 54720, Note_on_c, 1, 59, 80
3, 54720, Note_on_c, 1, 54, 80
3, 54908, Note_off_c, 1, 63, 100
3, 54908, Note_off_c, 1, 59, 100
3, 54908, Note_off_c, 1, 54, 100
3, 54912, Note_on_c, 1, 47, 80
3, 55100, Note_off_c, 1, 47, 100
3, 55104, Note_on_c, 1, 63, 80
3, 55104, Note_on_c, 1, 59, 80
3, 55104, Note_on_c, 1, 54, 80
3, 55292, Note_off_c, 1, 63, 100
3, 55292, Note_off_c, 1, 59, 100
3, 55292, Note_off_c, 1, 54, 100
3, 55296, Note_on_c, 1, 63, 80
3, 55296, Note_on_c, 1, 59, 80
3, 55296, Note_on_c, 1, 54, 80
3, 55484, Note_off_c, 1, 63, 100
3, 55484, Note_off_c, 1, 59, 100
3, 55484, Note_off_c, 1, 54, 100
3, 55488, Note_on_c, 1, 63, 80
3, 55488, Note_on_c, 1, 59, 80
3, 55488, Note_on_c, 1, 54, 80
3, 55676, Note_off_c, 1, 63, 100
3, 55676, Note_off_c, 1, 59, 100
3, 55676, Note_off_c, 1, 54, 100
3, 55680, Note_on_c, 1, 42, 80
3, 55868, Note_off_c, 1, 42, 100
3, 55872, Note_on_c, 1, 64, 80
3, 55872, Note_on_c, 1, 61, 80
3, 55872, Note_on_c, 1, 54, 80
3, 56060, Note_off_c, 1, 64, 100
3, 56060, Note_off_c, 1, 61, 100
3, 56060, Note_off_c, 1, 54, 100
3, 56064, Note_on_c, 1, 64, 80
3, 56064, Note_on_c, 1, 61, 80
3, 56064, Note_on_c, 1, 54, 80
3, 56252, Note_off_c, 1, 64, 100
3, 56252, Note_off_c, 1, 61, 100
3, 56252, Note_off_c, 1, 54, 100
3, 56256, Note_on_c, 1, 64, 80
3, 56256, Note_on_c, 1, 61, 80
3, 56256, Note_on_c, 1, 54, 80
3, 56444, Note_off_c, 1, 64, 100
3, 56444, Note_off_c, 1, 61, 100
3, 56444, Note_off_c, 1, 54, 100
3, 56448, Note_on_c, 1, 47, 80
3, 56540, Note_off_c, 1, 47, 100
3, 56544, Note_on_c, 1, 59, 80
3, 56636, Note_off_c, 1, 59, 100
3, 56640, Note_on_c, 1, 57, 80
3, 56732, Note_off_c, 1, 57, 100
3, 56736, Note_on_c, 1, 55, 80
3, 56828, Note_off_c, 1, 55, 100
3, 56832, Note_on_c, 1, 54, 80
3, 56924, Note_off_c, 1, 54, 100
3, 56928, Note_on_c, 1, 52, 80
3, 57020, Note_off_c, 1, 52, 100
3, 57024, Note_on_c, 1, 50, 80
3, 57116, Note_off_c, 1, 50, 100
3, 57120, Note_on_c, 1, 49, 80
3, 57212, Note_off_c, 1, 49, 100
3, 57216, Note_on_c, 1, 47, 110
3, 57404, Note_off_c, 1, 47, 100
3, 57408, Note_on_c, 1, 50, 110
3, 57788, Note_off_c, 1, 50, 100
3, 57792, Note_on_c, 1, 49, 110
3, 57980, Note_off_c, 1, 49, 100
3, 57984, Note_on_c, 1, 47, 110
3, 58172, Note_off_c, 1, 47, 100
3, 58176, Note_on_c, 1, 50, 110
3, 58556, Note_off_c, 1, 50, 100
3, 58560, Note_on_c, 1, 47, 110
3, 58748, Note_off_c, 1, 47, 100
3, 58752, Note_on_c, 1, 46, 110
3, 58940, Note_off_c, 1, 46, 100
3, 58944, Note_on_c, 1, 54, 110
3, 59324, Note_off_c, 1, 54, 100
3, 59328, Note_on_c, 1, 54, 110
3, 59708, Note_off_c, 1, 54, 64
3, 59712, Note_on_c, 1, 55, 110
3, 59804, Note_off_c, 1, 55, 100
3, 59808, Note_on_c, 1, 54, 110
3, 59900, Note_off_c, 1, 54, 100
3, 59904, Note_on_c, 1, 52, 110
3, 59996, Note_off_c, 1, 52, 100
3, 60000, Note_on_c, 1, 50, 110
3, 60092, Note_off_c, 1, 50, 100
3, 60096, Note_on_c, 1, 52, 110
3, 60188, Note_off_c, 1, 52, 100
3, 60192, Note_on_c, 1, 49, 110
3, 60284, Note_off_c, 1, 49, 100
3, 60288, Note_on_c, 1, 47, 110
3, 60476, Note_off_c, 1, 47, 100
3, 60480, Note_on_c, 1, 50, 110
3, 60860, Note_off_c, 1, 50, 100
3, 60864, Note_on_c, 1, 50, 110
3, 61052, Note_off_c, 1, 50, 100
3, 61056, Note_on_c, 1, 49, 110
3, 61244, Note_off_c, 1, 49, 100
3, 61248, Note_on_c, 1, 52, 110
3, 61340, Note_off_c, 1, 52, 100
3, 61344, Note_on_c, 1, 50, 110
3, 61436, Note_off_c, 1, 50, 100
3, 61440, Note_on_c, 1, 49, 110
3, 61532, Note_off_c, 1, 49, 100
3, 61536, Note_on_c, 1, 50, 110
3, 61628, Note_off_c, 1, 50, 100
3, 61632, Note_on_c, 1, 52, 110
3, 61724, Note_off_c, 1, 52, 100
3, 61728, Note_on_c, 1, 49, 110
3, 61820, Note_off_c, 1, 49, 100
3, 61824, Note_on_c, 1, 50, 110
3, 62012, Note_off_c, 1, 50, 100
3, 62016, Note_on_c, 1, 54, 110
3, 62396, Note_off_c, 1, 54, 100
3, 62400, Note_on_c, 1, 54, 110
3, 62588, Note_off_c, 1, 54, 100
3, 62592, Note_on_c, 1, 53, 110
3, 62780, Note_off_c, 1, 53, 100
3, 62784, Note_on_c, 1, 56, 110
3, 62876, Note_off_c, 1, 56, 100
3, 62880, Note_on_c, 1, 54, 110
3, 62972, Note_off_c, 1, 54, 100
3, 62976, Note_on_c, 1, 53, 110
3, 63068, Note_off_c, 1, 53, 100
3, 63072, Note_on_c, 1, 54, 110
3, 63164, Note_off_c, 1, 54, 100
3, 63168, Note_on_c, 1, 56, 110
3, 63260, Note_off_c, 1, 56, 100
3, 63264, Note_on_c, 1, 53, 110
3, 63356, Note_off_c, 1, 53, 100
3, 63360, Note_on_c, 1, 54, 110
3, 63548, Note_off_c, 1, 54, 100
3, 63552, Note_on_c, 1, 57, 110
3, 63932, Note_off_c, 1, 57, 100
3, 63936, Note_on_c, 1, 57, 110
3, 64124, Note_off_c, 1, 57, 100
3, 64128, Note_on_c, 1, 57, 110
3, 64316, Note_off_c, 1, 57, 100
3, 64320, Note_on_c, 1, 47, 110
3, 64700, Note_off_c, 1, 47, 100
3, 64704, Note_on_c, 1, 55, 110
3, 64892, Note_off_c, 1, 55, 100
3, 64896, Note_on_c, 1, 55, 110
3, 65084, Note_off_c, 1, 55, 100
3, 65088, Note_on_c, 1, 45, 110
3, 65468, Note_off_c, 1, 45, 100
3, 65472, Note_on_c, 1, 54, 110
3, 65660, Note_off_c, 1, 54, 100
3, 65664, Note_on_c, 1, 54, 110
3, 65852, Note_off_c, 1, 54, 100
3, 65856, Note_on_c, 1, 43, 110
3, 66236, Note_off_c, 1, 43, 100
3, 66240, Note_on_c, 1, 52, 110
3, 66428, Note_off_c, 1, 52, 100
3, 66432, Note_on_c, 1, 52, 110
3, 66624, Note_on_c, 1, 42, 110
3, 66812, Note_off_c, 1, 42, 100
3, 66816, Note_on_c, 1, 43, 110
3, 67004, Note_off_c, 1, 52, 100
3, 67008, Note_on_c, 1, 50, 110
3, 67196, Note_off_c, 1, 43, 100
3, 67196, Note_off_c, 1, 50, 100
3, 67200, Note_on_c, 1, 50, 110
3, 67200, Note_on_c, 1, 40, 110
3, 67388, Note_off_c, 1, 50, 100
3, 67392, Note_on_c, 1, 49, 110
3, 67580, Note_off_c, 1, 40, 100
3, 67580, Note_off_c, 1, 49, 100
3, 67584, Note_on_c, 1, 47, 110
3, 67584, Note_on_c, 1, 42, 110
3, 67772, Note_off_c, 1, 47, 100
3, 67776, Note_on_c, 1, 46, 110
3, 67964, Note_off_c, 1, 42, 100
3, 67964, Note_off_c, 1, 46, 100
3, 67968, Note_on_c, 1, 47, 110
3, 67968, Note_on_c, 1, 35, 110
3, 68156, Note_off_c, 1, 47, 100
3, 68156, Note_off_c, 1, 35, 100
3, 68160, Note_on_c, 1, 59, 80
3, 68160, Note_on_c, 1, 62, 80
3, 68348, Note_off_c, 1, 59, 100
3, 68348, Note_off_c, 1, 62, 100
3, 68352, Note_on_c, 1, 59, 80
3, 68352, Note_on_c, 1, 62, 80
3, 68540, Note_off_c, 1, 59, 100
3, 68540, Note_off_c, 1, 62, 100
3, 68544, Note_on_c, 1, 59, 80
3, 68544, Note_on_c, 1, 62, 80
3, 68732, Note_off_c, 1, 59, 100
3, 68732, Note_off_c, 1, 62, 100
3, 68736, Note_on_c, 1, 45, 80
3, 68924, Note_off_c, 1, 45, 100
3, 68928, Note_on_c, 1, 57, 80
3, 68928, Note_on_c, 1, 61, 80
3, 68928, Note_on_c, 1, 64, 80
3, 69116, Note_off_c, 1, 57, 100
3, 69116, Note_off_c, 1, 61, 100
3, 69116, Note_off_c, 1, 64, 100
3, 69120, Note_on_c, 1, 64, 80
3, 69120, Note_on_c, 1, 61, 80
3, 69120, Note_on_c, 1, 57, 80
3, 69308, Note_off_c, 1, 64, 100
3, 69308, Note_off_c, 1, 61, 100
3, 69308, Note_off_c, 1, 57, 100
3, 69312, Note_on_c, 1, 64, 80
3, 69312, Note_on_c, 1, 61, 80
3, 69312, Note_on_c, 1, 57, 80
3, 69500, Note_off_c, 1, 64, 100
3, 69500, Note_off_c, 1, 61, 100
3, 69500, Note_off_c, 1, 57, 100
3, 69504, Note_on_c, 1, 50, 80
3, 69692, Note_off_c, 1, 50, 100
3, 69696, Note_on_c, 1, 62, 80
3, 69696, Note_on_c, 1, 66, 80
3, 69884, Note_off_c, 1, 62, 100
3, 69884, Note_off_c, 1, 66, 100
3, 69888, Note_on_c, 1, 66, 80
3, 69888, Note_on_c, 1, 62, 80
3, 70076, Note_off_c, 1, 66, 100
3, 70076, Note_off_c, 1, 62, 100
3, 70080, Note_on_c, 1, 66, 80
3, 70080, Note_on_c, 1, 62, 80
3, 70268, Note_off_c, 1, 66, 100
3, 70268, Note_off_c, 1, 62, 100
3, 70272, Note_on_c, 1, 49, 80
3, 70460, Note_off_c, 1, 49, 100
3, 70464, Note_on_c, 1, 65, 80
3, 70464, Note_on_c, 1, 68, 80
3, 70464, Note_on_c, 1, 61, 80
3, 70652, Note_off_c, 1, 65, 100
3, 70652, Note_off_c, 1, 68, 100
3, 70652, Note_off_c, 1, 61, 100
3, 70656, Note_on_c, 1, 68, 80
3, 70656, Note_on_c, 1, 65, 80
3, 70656, Note_on_c, 1, 61, 80
3, 70844, Note_off_c, 1, 68, 100
3, 70844, Note_off_c, 1, 65, 100
3, 70844, Note_off_c, 1, 61, 100
3, 70848, Note_on_c, 1, 68, 80
3, 70848, Note_on_c, 1, 65, 80
3, 70848, Note_on_c, 1, 61, 80
3, 71036, Note_off_c, 1, 68, 100
3, 71036, Note_off_c, 1, 65, 100
3, 71036, Note_off_c, 1, 61, 100
3, 71040, Note_on_c, 1, 54, 80
3, 71228, Note_off_c, 1, 54, 100
3, 71232, Note_on_c, 1, 66, 80
3, 71232, Note_on_c, 1, 69, 80
3, 71420, Note_off_c, 1, 66, 100
3, 71420, Note_off_c, 1, 69, 100
3, 71424, Note_on_c, 1, 69, 80
3, 71424, Note_on_c, 1, 66, 80
3, 71612, Note_off_c, 1, 69, 100
3, 71612, Note_off_c, 1, 66, 100
3, 71616, Note_on_c, 1, 69, 80
3, 71616, Note_on_c, 1, 66, 80
3, 71804, Note_off_c, 1, 69, 100
3, 71804, Note_off_c, 1, 66, 100
3, 71808, Note_on_c, 1, 51, 80
3, 71996, Note_off_c, 1, 51, 100
3, 72000, Note_on_c, 1, 63, 82
3, 72000, Note_on_c, 1, 66, 82
3, 72188, Note_off_c, 1, 63, 100
3, 72188, Note_off_c, 1, 66, 100
3, 72192, Note_on_c, 1, 52, 84
3, 72380, Note_off_c, 1, 52, 100
3, 72384, Note_on_c, 1, 64, 87
3, 72384, Note_on_c, 1, 67, 87
3, 72572, Note_off_c, 1, 64, 100
3, 72572, Note_off_c, 1, 67, 100
3, 72576, Note_on_c, 1, 49, 89
3, 72764, Note_off_c, 1, 49, 100
3, 72768, Note_on_c, 1, 61, 92
3, 72768, Note_on_c, 1, 64, 92
3, 72956, Note_off_c, 1, 61, 100
3, 72956, Note_off_c, 1, 64, 100
3, 72960, Note_on_c, 1, 50, 94
3, 73148, Note_off_c, 1, 50, 100
3, 73152, Note_on_c, 1, 62, 97
3, 73152, Note_on_c, 1, 66, 97
3, 73340, Note_off_c, 1, 62, 100
3, 73340, Note_off_c, 1, 66, 100
3, 73344, Note_on_c, 1, 47, 99
3, 73532, Note_off_c, 1, 47, 100
3, 73536, Note_on_c, 1, 59, 102
3, 73536, Note_on_c, 1, 62, 102
3, 73724, Note_off_c, 1, 59, 100
3, 73724, Note_off_c, 1, 62, 100
3, 73728, Note_on_c, 1, 49, 104
3, 73916, Note_off_c, 1, 49, 100
3, 73920, Note_on_c, 1, 61, 107
3, 73920, Note_on_c, 1, 64, 107
3, 74108, Note_off_c, 1, 61, 100
3, 74108, Note_off_c, 1, 64, 100
3, 74112, Note_on_c, 1, 46, 110
3, 74300, Note_off_c, 1, 46, 100
3, 74304, Note_on_c, 1, 58, 110
3, 74304, Note_on_c, 1, 61, 110
3, 74492, Note_off_c, 1, 58, 100
3, 74492, Note_off_c, 1, 61, 100
3, 74496, Note_on_c, 1, 47, 110
3, 74684, Note_off_c, 1, 47, 100
3, 74688, Note_on_c, 1, 59, 110
3, 74688, Note_on_c, 1, 62, 110
3, 74876, Note_off_c, 1, 59, 100
3, 74876, Note_off_c, 1, 62, 100
3, 74880, Note_on_c, 1, 40, 110
3, 75068, Note_off_c, 1, 40, 100
3, 75072, Note_on_c, 1, 52, 110
3, 75260, Note_off_c, 1, 52, 100
3, 75264, Note_on_c, 1, 42, 110
3, 75452, Note_off_c, 1, 42, 100
3, 75456, Note_on_c, 1, 54, 110
3, 75644, Note_off_c, 1, 54, 100
3, 75648, Note_on_c, 1, 47, 110
3, 75840, Note_on_c, 1, 54, 80
3, 76028, Note_off_c, 1, 47, 100
3, 76028, Note_off_c, 1, 54, 100
3, 76032, Note_on_c, 1, 54, 80
3, 76220, Note_off_c, 1, 54, 100
3, 76224, Note_on_c, 1, 54, 80
3, 76412, Note_off_c, 1, 54, 100
3, 76416, Note_on_c, 1, 54, 80
3, 76416, Note_on_c, 1, 42, 80
3, 76604, Note_off_c, 1, 54, 100
3, 76608, Note_on_c, 1, 54, 80
3, 76796, Note_off_c, 1, 54, 100
3, 76800, Note_on_c, 1, 54, 80
3, 76988, Note_off_c, 1, 54, 100
3, 76992, Note_on_c, 1, 54, 80
3, 77180, Note_off_c, 1, 42, 100
3, 77180, Note_off_c, 1, 54, 100
3, 77184, Note_on_c, 1, 47, 80
3, 77376, Note_on_c, 1, 54, 80
3, 77564, Note_off_c, 1, 47, 100
3, 77564, Note_off_c, 1, 54, 100
3, 77568, Note_on_c, 1, 54, 80
3, 77756, Note_off_c, 1, 54, 100
3, 77760, Note_on_c, 1, 54, 80
3, 77948, Note_off_c, 1, 54, 100
3, 77952, Note_on_c, 1, 54, 80
3, 77952, Note_on_c, 1, 42, 80
3, 78140, Note_off_c, 1, 54, 100
3, 78144, Note_on_c, 1, 54, 77
3, 78332, Note_off_c, 1, 54, 100
3, 78336, Note_on_c, 1, 54, 74
3, 78524, Note_off_c, 1, 54, 100
3, 78528, Note_on_c, 1, 54, 71
3, 78716, Note_off_c, 1, 42, 100
3, 78716, Note_off_c, 1, 54, 100
3, 78720, Note_on_c, 1, 47, 70
3, 78912, Note_on_c, 1, 54, 70
3, 79100, Note_off_c, 1, 47, 100
3, 79100, Note_off_c, 1, 54, 100
3, 79104, Note_on_c, 1, 54, 70
3, 79292, Note_off_c, 1, 54, 100
3, 79296, Note_on_c, 1, 54, 70
3, 79484, Note_off_c, 1, 54, 100
3, 79488, Note_on_c, 1, 54, 70
3, 79488, Note_on_c, 1, 42, 70
3, 79676, Note_off_c, 1, 54, 100
3, 79680, Note_on_c, 1, 54, 70
3, 79868, Note_off_c, 1, 54, 100
3, 79872, Note_on_c, 1, 54, 70
3, 80060, Note_off_c, 1, 54, 100
3, 80064, Note_on_c, 1, 54, 70
3, 80252, Note_off_c, 1, 42, 100
3, 80252, Note_off_c, 1, 54, 100
3, 80256, Note_on_c, 1, 54, 70
3, 80256, Note_on_c, 1, 47, 70
3, 80444, Note_off_c, 1, 54, 100
3, 80444, Note_off_c, 1, 47, 100
3, 80448, Note_on_c, 1, 54, 71
3, 80636, Note_off_c, 1, 54, 100
3, 80640, Note_on_c, 1, 54, 72
3, 80640, Note_on_c, 1, 42, 72
3, 80828, Note_off_c, 1, 54, 100
3, 80828, Note_off_c, 1, 42, 100
3, 80832, Note_on_c, 1, 54, 73
3, 81020, Note_off_c, 1, 54, 100
3, 81024, Note_on_c, 1, 54, 75
3, 81024, Note_on_c, 1, 47, 75
3, 81212, Note_off_c, 1, 54, 100
3, 81212, Note_off_c, 1, 47, 100
3, 81216, Note_on_c, 1, 54, 76
3, 81404, Note_off_c, 1, 54, 100
3, 81408, Note_on_c, 1, 54, 77
3, 81408, Note_on_c, 1, 42, 77
3, 81596, Note_off_c, 1, 54, 100
3, 81596, Note_off_c, 1, 42, 100
3, 81600, Note_on_c, 1, 54, 79
3, 81788, Note_off_c, 1, 54, 100
3, 81792, Note_on_c, 1, 54, 80
3, 81792, Note_on_c, 1, 47, 80
3, 81980, Note_off_c, 1, 54, 100
3, 81984, Note_on_c, 1, 54, 81
3, 82172, Note_off_c, 1, 47, 100
3, 82172, Note_off_c, 1, 54, 100
3, 82176, Note_on_c, 1, 54, 83
3, 82176, Note_on_c, 1, 42, 83
3, 82364, Note_off_c, 1, 54, 100
3, 82368, Note_on_c, 1, 54, 84
3, 82556, Note_off_c, 1, 42, 100
3, 82556, Note_off_c, 1, 54, 100
3, 82560, Note_on_c, 1, 54, 85
3, 82560, Note_on_c, 1, 47, 85
3, 82748, Note_off_c, 1, 54, 100
3, 82752, Note_on_c, 1, 54, 87
3, 82940, Note_off_c, 1, 47, 100
3, 82940, Note_off_c, 1, 54, 100
3, 82944, Note_on_c, 1, 54, 88
3, 82944, Note_on_c, 1, 42, 88
3, 83132, Note_off_c, 1, 54, 100
3, 83136, Note_on_c, 1, 54, 89
3, 83324, Note_off_c, 1, 42, 100
3, 83324, Note_off_c, 1, 54, 100
3, 83328, Note_on_c, 1, 54, 80
3, 83328, Note_on_c, 1, 47, 80
3, 83708, Note_off_c, 1, 54, 100
3, 83708, Note_off_c, 1, 47, 100
3, 84096, Note_on_c, 1, 47, 80
3, 84096, Note_on_c, 1, 35, 80
3, 84476, Note_off_c, 1, 47, 100
3, 84476, Note_off_c, 1, 35, 100
3, 84864, Note_on_c, 1, 47, 80
3, 84864, Note_on_c, 1, 35, 80
3, 85244, Note_off_c, 1, 47, 100
3, 85244, Note_off_c, 1, 35, 100
3, 85632, Note_on_c, 1, 35, 80
3, 85820, Note_off_c, 1, 35, 100
3, 86016, Note_on_c, 1, 38, 80
3, 86204, Note_off_c, 1, 38, 100
3, 86400, Note_on_c, 1, 43, 110
3, 86400, Note_on_c, 1, 31, 110
3, 86780, Note_off_c, 1, 43, 100
3, 86780, Note_off_c, 1, 31, 100
3, 88704, Note_on_c, 1, 55, 80
3, 88704, Note_on_c, 1, 43, 80
3, 88892, Note_off_c, 1, 55, 100
3, 88892, Note_off_c, 1, 43, 100
3, 89088, Note_on_c, 1, 55, 80
3, 89088, Note_on_c, 1, 43, 80
3, 89276, Note_off_c, 1, 55, 100
3, 89276, Note_off_c, 1, 43, 100
3, 89472, Note_on_c, 1, 55, 80
3, 89472, Note_on_c, 1, 43, 80
3, 89660, Note_off_c, 1, 55, 100
3, 89660, Note_off_c, 1, 43, 100
3, 90240, Note_on_c, 1, 55, 80
3, 90240, Note_on_c, 1, 43, 80
3, 90428, Note_off_c, 1, 55, 100
3, 90428, Note_off_c, 1, 43, 100
3, 90624, Note_on_c, 1, 55, 80
3, 90624, Note_on_c, 1, 43, 80
3, 90812, Note_off_c, 1, 55, 100
3, 90812, Note_off_c, 1, 43, 100
3, 91008, Note_on_c, 1, 55, 80
3, 91008, Note_on_c, 1, 43, 80
3, 91196, Note_off_c, 1, 55, 100
3, 91196, Note_off_c, 1, 43, 100
3, 91776, Note_on_c, 1, 55, 110
3, 91776, Note_on_c, 1, 43, 110
3, 91964, Note_off_c, 1, 55, 100
3, 91964, Note_off_c, 1, 43, 100
3, 92160, Note_on_c, 1, 52, 110
3, 92160, Note_on_c, 1, 40, 110
3, 92348, Note_off_c, 1, 52, 100
3, 92348, Note_off_c, 1, 40, 100
3, 92544, Note_on_c, 1, 57, 110
3, 92544, Note_on_c, 1, 45, 110
3, 92732, Note_off_c, 1, 57, 100
3, 92732, Note_off_c, 1, 45, 100
3, 93312, Note_on_c, 1, 57, 80
3, 93312, Note_on_c, 1, 45, 80
3, 93500, Note_off_c, 1, 57, 100
3, 93500, Note_off_c, 1, 45, 100
3, 93696, Note_on_c, 1, 45, 80
3, 93696, Note_on_c, 1, 33, 80
3, 93884, Note_off_c, 1, 45, 100
3, 93884, Note_off_c, 1, 33, 100
3, 94080, Note_on_c, 1, 50, 80
3, 94080, Note_on_c, 1, 38, 80
3, 94268, Note_off_c, 1, 50, 100
3, 94268, Note_off_c, 1, 38, 100
3, 94848, Note_on_c, 1, 65, 110
3, 95420, Note_off_c, 1, 65, 100
3, 95424, Note_on_c, 1, 64, 110
3, 95516, Note_off_c, 1, 64, 100
3, 95520, Note_on_c, 1, 62, 110
3, 95612, Note_off_c, 1, 62, 100
3, 95616, Note_on_c, 1, 60, 110
3, 95708, Note_off_c, 1, 60, 100
3, 95712, Note_on_c, 1, 61, 110
3, 95804, Note_off_c, 1, 61, 100
3, 95808, Note_on_c, 1, 62, 110
3, 95900, Note_off_c, 1, 62, 100
3, 95904, Note_on_c, 1, 57, 110
3, 95996, Note_off_c, 1, 57, 100
3, 96000, Note_on_c, 1, 60, 110
3, 96092, Note_off_c, 1, 60, 100
3, 96096, Note_on_c, 1, 58, 110
3, 96188, Note_off_c, 1, 58, 100
3, 96192, Note_on_c, 1, 57, 110
3, 96284, Note_off_c, 1, 57, 100
3, 96288, Note_on_c, 1, 55, 110
3, 96380, Note_off_c, 1, 55, 100
3, 96384, Note_on_c, 1, 53, 110
3, 96764, Note_off_c, 1, 53, 100
3, 97152, Note_on_c, 1, 53, 80
3, 97152, Note_on_c, 1, 41, 80
3, 97340, Note_off_c, 1, 53, 100
3, 97340, Note_off_c, 1, 41, 100
3, 97536, Note_on_c, 1, 53, 80
3, 97536, Note_on_c, 1, 41, 80
3, 97724, Note_off_c, 1, 53, 100
3, 97724, Note_off_c, 1, 41, 100
3, 97920, Note_on_c, 1, 53, 80
3, 97920, Note_on_c, 1, 41, 80
3, 98108, Note_off_c, 1, 53, 100
3, 98108, Note_off_c, 1, 41, 100
3, 98688, Note_on_c, 1, 53, 80
3, 98688, Note_on_c, 1, 41, 80
3, 98876, Note_off_c, 1, 53, 100
3, 98876, Note_off_c, 1, 41, 100
3, 99072, Note_on_c, 1, 53, 80
3, 99072, Note_on_c, 1, 41, 80
3, 99260, Note_off_c, 1, 53, 100
3, 99260, Note_off_c, 1, 41, 100
3, 99456, Note_on_c, 1, 53, 80
3, 99456, Note_on_c, 1, 41, 80
3, 99644, Note_off_c, 1, 53, 100
3, 99644, Note_off_c, 1, 41, 100
3, 100224, Note_on_c, 1, 53, 110
3, 100224, Note_on_c, 1, 41, 110
3, 100412, Note_off_c, 1, 53, 100
3, 100412, Note_off_c, 1, 41, 100
3, 100608, Note_on_c, 1, 50, 110
3, 100608, Note_on_c, 1, 38, 110
3, 100796, Note_off_c, 1, 50, 100
3, 100796, Note_off_c, 1, 38, 100
3, 100992, Note_on_c, 1, 55, 110
3, 100992, Note_on_c, 1, 43, 110
3, 101180, Note_off_c, 1, 55, 100
3, 101180, Note_off_c, 1, 43, 100
3, 101760, Note_on_c, 1, 55, 80
3, 101760, Note_on_c, 1, 43, 80
3, 101948, Note_off_c, 1, 55, 100
3, 101948, Note_off_c, 1, 43, 100
3, 102144, Note_on_c, 1, 43, 80
3, 102144, Note_on_c, 1, 31, 80
3, 102332, Note_off_c, 1, 43, 100
3, 102332, Note_off_c, 1, 31, 100
3, 102528, Note_on_c, 1, 48, 80
3, 102528, Note_on_c, 1, 36, 80
3, 102716, Note_off_c, 1, 48, 100
3, 102716, Note_off_c, 1, 36, 100
3, 103296, Note_on_c, 1, 60, 80
3, 103296, Note_on_c, 1, 48, 80
3, 103484, Note_off_c, 1, 60, 100
3, 103484, Note_off_c, 1, 48, 100
3, 103680, Note_on_c, 1, 57, 80
3, 103680, Note_on_c, 1, 45, 80
3, 103868, Note_off_c, 1, 57, 100
3, 103868, Note_off_c, 1, 45, 100
3, 104064, Note_on_c, 1, 62, 80
3, 104064, Note_on_c, 1, 50, 80
3, 104252, Note_off_c, 1, 62, 100
3, 104252, Note_off_c, 1, 50, 100
3, 104832, Note_on_c, 1, 62, 80
3, 104832, Note_on_c, 1, 50, 80
3, 105020, Note_off_c, 1, 62, 100
3, 105020, Note_off_c, 1, 50, 100
3, 105216, Note_on_c, 1, 50, 80
3, 105216, Note_on_c, 1, 38, 80
3, 105404, Note_off_c, 1, 50, 100
3, 105404, Note_off_c, 1, 38, 100
3, 105600, Note_on_c, 1, 55, 80
3, 105600, Note_on_c, 1, 43, 80
3, 105788, Note_off_c, 1, 55, 100
3, 105788, Note_off_c, 1, 43, 100
3, 106368, Note_on_c, 1, 62, 80
3, 106368, Note_on_c, 1, 50, 80
3, 106556, Note_off_c, 1, 62, 100
3, 106556, Note_off_c, 1, 50, 100
3, 106752, Note_on_c, 1, 50, 80
3, 106752, Note_on_c, 1, 38, 80
3, 106940, Note_off_c, 1, 50, 100
3, 106940, Note_off_c, 1, 38, 100
3, 107136, Note_on_c, 1, 55, 80
3, 107136, Note_on_c, 1, 43, 80
3, 107324, Note_off_c, 1, 55, 100
3, 107324, Note_off_c, 1, 43, 100
3, 107904, Note_on_c, 1, 62, 80
3, 107904, Note_on_c, 1, 50, 80
3, 108188, Note_off_c, 1, 62, 100
3, 108188, Note_off_c, 1, 50, 100
3, 108288, Note_on_c, 1, 50, 80
3, 108288, Note_on_c, 1, 38, 80
3, 108572, Note_off_c, 1, 50, 100
3, 108572, Note_off_c, 1, 38, 100
3, 108672, Note_on_c, 1, 55, 80
3, 108672, Note_on_c, 1, 43, 80
3, 108956, Note_off_c, 1, 55, 100
3, 108956, Note_off_c, 1, 43, 100
3, 109440, Note_on_c, 1, 62, 87
3, 109532, Note_off_c, 1, 62, 100
3, 109536, Note_on_c, 1, 63, 88
3, 109628, Note_off_c, 1, 63, 100
3, 109632, Note_on_c, 1, 64, 89
3, 109724, Note_off_c, 1, 64, 100
3, 109728, Note_on_c, 1, 59, 90
3, 109820, Note_off_c, 1, 59, 100
3, 109824, Note_on_c, 1, 62, 91
3, 109916, Note_off_c, 1, 62, 100
3, 109920, Note_on_c, 1, 60, 92
3, 110012, Note_off_c, 1, 60, 100
3, 110016, Note_on_c, 1, 59, 93
3, 110108, Note_off_c, 1, 59, 100
3, 110112, Note_on_c, 1, 57, 94
3, 110204, Note_off_c, 1, 57, 100
3, 110208, Note_on_c, 1, 55, 95
3, 110300, Note_off_c, 1, 55, 100
3, 110304, Note_on_c, 1, 58, 96
3, 110396, Note_off_c, 1, 58, 100
3, 110400, Note_on_c, 1, 59, 97
3, 110492, Note_off_c, 1, 59, 100
3, 110496, Note_on_c, 1, 54, 98
3, 110588, Note_off_c, 1, 54, 100
3, 110592, Note_on_c, 1, 57, 99
3, 110684, Note_off_c, 1, 57, 100
3, 110688, Note_on_c, 1, 55, 100
3, 110780, Note_off_c, 1, 55, 100
3, 110784, Note_on_c, 1, 54, 101
3, 110876, Note_off_c, 1, 54, 100
3, 110880, Note_on_c, 1, 52, 102
3, 110972, Note_off_c, 1, 52, 100
3, 110976, Note_on_c, 1, 50, 103
3, 111068, Note_off_c, 1, 50, 100
3, 111072, Note_on_c, 1, 51, 104
3, 111164, Note_off_c, 1, 51, 100
3, 111168, Note_on_c, 1, 52, 105
3, 111260, Note_off_c, 1, 52, 100
3, 111264, Note_on_c, 1, 47, 106
3, 111356, Note_off_c, 1, 47, 100
3, 111360, Note_on_c, 1, 50, 107
3, 111452, Note_off_c, 1, 50, 100
3, 111456, Note_on_c, 1, 48, 108
3, 111548, Note_off_c, 1, 48, 100
3, 111552, Note_on_c, 1, 47, 108
3, 111644, Note_off_c, 1, 47, 100
3, 111648, Note_on_c, 1, 45, 109
3, 111740, Note_off_c, 1, 45, 100
3, 111744, Note_on_c, 1, 43, 110
3, 111836, Note_off_c, 1, 43, 100
3, 111840, Note_on_c, 1, 46, 110
3, 111932, Note_off_c, 1, 46, 100
3, 111936, Note_on_c, 1, 47, 110
3, 112028, Note_off_c, 1, 47, 100
3, 112032, Note_on_c, 1, 42, 110
3, 112124, Note_off_c, 1, 42, 100
3, 112128, Note_on_c, 1, 45, 110
3, 112220, Note_off_c, 1, 45, 100
3, 112224, Note_on_c, 1, 43, 110
3, 112316, Note_off_c, 1, 43, 100
3, 112320, Note_on_c, 1, 42, 110
3, 112412, Note_off_c, 1, 42, 100
3, 112416, Note_on_c, 1, 40, 110
3, 112508, Note_off_c, 1, 40, 100
3, 112512, Note_on_c, 1, 38, 110
3, 112604, Note_off_c, 1, 38, 100
3, 112608, Note_on_c, 1, 39, 110
3, 112700, Note_off_c, 1, 39, 100
3, 112704, Note_on_c, 1, 40, 110
3, 112796, Note_off_c, 1, 40, 100
3, 112800, Note_on_c, 1, 35, 110
3, 112892, Note_off_c, 1, 35, 100
3, 112896, Note_on_c, 1, 38, 110
3, 112988, Note_off_c, 1, 38, 100
3, 112992, Note_on_c, 1, 36, 110
3, 113084, Note_off_c, 1, 36, 100
3, 113088, Note_on_c, 1, 35, 110
3, 113180, Note_off_c, 1, 35, 100
3, 113184, Note_on_c, 1, 33, 110
3, 113276, Note_off_c, 1, 33, 100
3, 113280, Note_on_c, 1, 31, 110
3, 113372, Note_off_c, 1, 31, 100
3, 113376, Note_on_c, 1, 30, 110
3, 113468, Note_off_c, 1, 30, 100
3, 113472, Note_on_c, 1, 31, 110
3, 113564, Note_off_c, 1, 31, 100
3, 113568, Note_on_c, 1, 33, 110
3, 113660, Note_off_c, 1, 33, 100
3, 113664, Note_on_c, 1, 34, 110
3, 113756, Note_off_c, 1, 34, 100
3, 113760, Note_on_c, 1, 35, 110
3, 113852, Note_off_c, 1, 35, 100
3, 113856, Note_on_c, 1, 36, 110
3, 113948, Note_off_c, 1, 36, 100
3, 113952, Note_on_c, 1, 37, 110
3, 114044, Note_off_c, 1, 37, 100
3, 114048, Note_on_c, 1, 38, 110
3, 114140, Note_off_c, 1, 38, 100
3, 114144, Note_on_c, 1, 37, 110
3, 114236, Note_off_c, 1, 37, 100
3, 114240, Note_on_c, 1, 38, 110
3, 114332, Note_off_c, 1, 38, 100
3, 114336, Note_on_c, 1, 40, 110
3, 114428, Note_off_c, 1, 40, 100
3, 114432, Note_on_c, 1, 42, 110
3, 114524, Note_off_c, 1, 42, 100
3, 114528, Note_on_c, 1, 38, 110
3, 114620, Note_off_c, 1, 38, 100
3, 114624, Note_on_c, 1, 40, 110
3, 114716, Note_off_c, 1, 40, 100
3, 114720, Note_on_c, 1, 42, 110
3, 114812, Note_off_c, 1, 42, 100
3, 114816, Note_on_c, 1, 43, 110
3, 114908, Note_off_c, 1, 43, 100
3, 114912, Note_on_c, 1, 42, 110
3, 115004, Note_off_c, 1, 42, 100
3, 115008, Note_on_c, 1, 43, 110
3, 115100, Note_off_c, 1, 43, 100
3, 115104, Note_on_c, 1, 45, 110
3, 115196, Note_off_c, 1, 45, 100
3, 115200, Note_on_c, 1, 46, 110
3, 115292, Note_off_c, 1, 46, 100
3, 115296, Note_on_c, 1, 47, 110
3, 115388, Note_off_c, 1, 47, 100
3, 115392, Note_on_c, 1, 48, 110
3, 115484, Note_off_c, 1, 48, 100
3, 115488, Note_on_c, 1, 49, 110
3, 115580, Note_off_c, 1, 49, 100
3, 115584, Note_on_c, 1, 50, 110
3, 115676, Note_off_c, 1, 50, 100
3, 115680, Note_on_c, 1, 50, 110
3, 115772, Note_off_c, 1, 50, 100
3, 115776, Note_on_c, 1, 54, 110
3, 115868, Note_off_c, 1, 54, 100
3, 115872, Note_on_c, 1, 57, 110
3, 115964, Note_off_c, 1, 57, 100
3, 115968, Note_on_c, 1, 62, 110
3, 116060, Note_off_c, 1, 62, 100
3, 116064, Note_on_c, 1, 62, 110
3, 116156, Note_off_c, 1, 62, 100
3, 116160, Note_on_c, 1, 66, 110
3, 116252, Note_off_c, 1, 66, 100
3, 116256, Note_on_c, 1, 69, 110
3, 116348, Note_off_c, 1, 69, 100
3, 116352, Note_on_c, 1, 74, 110
3, 116444, Note_off_c, 1, 74, 100
3, 116448, Note_on_c, 1, 74, 110
3, 116540, Note_off_c, 1, 74, 100
3, 116544, Note_on_c, 1, 69, 110
3, 116636, Note_off_c, 1, 69, 100
3, 116640, Note_on_c, 1, 66, 110
3, 116732, Note_off_c, 1, 66, 100
3, 116736, Note_on_c, 1, 62, 110
3, 116828, Note_off_c, 1, 62, 100
3, 116832, Note_on_c, 1, 62, 110
3, 116924, Note_off_c, 1, 62, 100
3, 116928, Note_on_c, 1, 57, 110
3, 117020, Note_off_c, 1, 57, 100
3, 117024, Note_on_c, 1, 54, 110
3, 117116, Note_off_c, 1, 54, 100
3, 117120, Note_on_c, 1, 50, 110
3, 117212, Note_off_c, 1, 50, 100
3, 117216, Note_on_c, 1, 50, 110
3, 117308, Note_off_c, 1, 50, 100
3, 117312, Note_on_c, 1, 54, 110
3, 117404, Note_off_c, 1, 54, 100
3, 117408, Note_on_c, 1, 57, 110
3, 117500, Note_off_c, 1, 57, 100
3, 117504, Note_on_c, 1, 62, 110
3, 117596, Note_off_c, 1, 62, 100
3, 117600, Note_on_c, 1, 62, 110
3, 117692, Note_off_c, 1, 62, 100
3, 117696, Note_on_c, 1, 66, 110
3, 117788, Note_off_c, 1, 66, 100
3, 117792, Note_on_c, 1, 69, 110
3, 117884, Note_off_c, 1, 69, 100
3, 117888, Note_on_c, 1, 74, 110
3, 117980, Note_off_c, 1, 74, 100
3, 117984, Note_on_c, 1, 74, 110
3, 118076, Note_off_c, 1, 74, 100
3, 118080, Note_on_c, 1, 69, 110
3, 118172, Note_off_c, 1, 69, 100
3, 118176, Note_on_c, 1, 66, 110
3, 118268, Note_off_c, 1, 66, 100
3, 118272, Note_on_c, 1, 62, 110
3, 118364, Note_off_c, 1, 62, 100
3, 118368, Note_on_c, 1, 62, 110
3, 118460, Note_off_c, 1, 62, 100
3, 118464, Note_on_c, 1, 57, 110
3, 118556, Note_off_c, 1, 57, 100
3, 118560, Note_on_c, 1, 54, 110
3, 118652, Note_off_c, 1, 54, 100
3, 118656, Note_on_c, 1, 50, 110
3, 118748, Note_off_c, 1, 50, 100
3, 118752, Note_on_c, 1, 62, 110
3, 118844, Note_off_c, 1, 62, 100
3, 118848, Note_on_c, 1, 57, 110
3, 118940, Note_off_c, 1, 57, 100
3, 118944, Note_on_c, 1, 54, 110
3, 119036, Note_off_c, 1, 54, 100
3, 119040, Note_on_c, 1, 50, 110
3, 119132, Note_off_c, 1, 50, 100
3, 119136, Note_on_c, 1, 50, 110
3, 119228, Note_off_c, 1, 50, 100
3, 119232, Note_on_c, 1, 45, 110
3, 119324, Note_off_c, 1, 45, 100
3, 119328, Note_on_c, 1, 42, 110
3, 119420, Note_off_c, 1, 42, 100
3, 119424, Note_on_c, 1, 38, 110
3, 121532, Note_off_c, 1, 38, 64
3, 121728, Note_on_c, 1, 62, 110
3, 121728, Note_on_c, 1, 59, 110
3, 121728, Note_on_c, 1, 55, 110
3, 122108, Note_off_c, 1, 62, 100
3, 122108, Note_off_c, 1, 59, 100
3, 122108, Note_off_c, 1, 55, 100
3, 124032, Note_on_c, 1, 55, 80
3, 124032, Note_on_c, 1, 43, 80
3, 124220, Note_off_c, 1, 55, 100
3, 124220, Note_off_c, 1, 43, 100
3, 124416, Note_on_c, 1, 55, 80
3, 124416, Note_on_c, 1, 43, 80
3, 124604, Note_off_c, 1, 55, 100
3, 124604, Note_off_c, 1, 43, 100
3, 124800, Note_on_c, 1, 55, 80
3, 124800, Note_on_c, 1, 43, 80
3, 124988, Note_off_c, 1, 55, 100
3, 124988, Note_off_c, 1, 43, 100
3, 125568, Note_on_c, 1, 55, 80
3, 125568, Note_on_c, 1, 43, 80
3, 125756, Note_off_c, 1, 55, 100
3, 125756, Note_off_c, 1, 43, 100
3, 125952, Note_on_c, 1, 55, 80
3, 125952, Note_on_c, 1, 43, 80
3, 126140, Note_off_c, 1, 55, 100
3, 126140, Note_off_c, 1, 43, 100
3, 126336, Note_on_c, 1, 55, 80
3, 126336, Note_on_c, 1, 43, 80
3, 126524, Note_off_c, 1, 55, 100
3, 126524, Note_off_c, 1, 43, 100
3, 127104, Note_on_c, 1, 55, 110
3, 127104, Note_on_c, 1, 43, 110
3, 127292, Note_off_c, 1, 55, 100
3, 127292, Note_off_c, 1, 43, 100
3, 127488, Note_on_c, 1, 52, 110
3, 127488, Note_on_c, 1, 40, 110
3, 127676, Note_off_c, 1, 52, 100
3, 127676, Note_off_c, 1, 40, 100
3, 127872, Note_on_c, 1, 54, 110
3, 127872, Note_on_c, 1, 42, 110
3, 128060, Note_off_c, 1, 54, 100
3, 128060, Note_off_c, 1, 42, 100
3, 128640, Note_on_c, 1, 67, 80
3, 128828, Note_off_c, 1, 67, 100
3, 129024, Note_on_c, 1, 67, 80
3, 129212, Note_off_c, 1, 67, 100
3, 129408, Note_on_c, 1, 66, 80
3, 129596, Note_off_c, 1, 66, 100
3, 130176, Note_on_c, 1, 55, 110
3, 130176, Note_on_c, 1, 43, 110
3, 130364, Note_off_c, 1, 55, 100
3, 130364, Note_off_c, 1, 43, 100
3, 130560, Note_on_c, 1, 52, 110
3, 130560, Note_on_c, 1, 40, 110
3, 130748, Note_off_c, 1, 52, 100
3, 130748, Note_off_c, 1, 40, 100
3, 130944, Note_on_c, 1, 54, 110
3, 130944, Note_on_c, 1, 42, 110
3, 131132, Note_off_c, 1, 54, 100
3, 131132, Note_off_c, 1, 42, 100
3, 131712, Note_on_c, 1, 55, 80
3, 131900, Note_off_c, 1, 55, 100
3, 132096, Note_on_c, 1, 55, 80
3, 132284, Note_off_c, 1, 55, 100
3, 132480, Note_on_c, 1, 54, 80
3, 132668, Note_off_c, 1, 54, 100
3, 133248, Note_on_c, 1, 67, 80
3, 133436, Note_off_c, 1, 67, 100
3, 133632, Note_on_c, 1, 67, 80
3, 133820, Note_off_c, 1, 67, 100
3, 134016, Note_on_c, 1, 66, 80
3, 134204, Note_off_c, 1, 66, 100
3, 134784, Note_on_c, 1, 43, 80
3, 134784, Note_on_c, 1, 31, 80
3, 135068, Note_off_c, 1, 43, 100
3, 135068, Note_off_c, 1, 31, 100
3, 135168, Note_on_c, 1, 43, 80
3, 135168, Note_on_c, 1, 31, 80
3, 135452, Note_off_c, 1, 43, 100
3, 135452, Note_off_c, 1, 31, 100
3, 135552, Note_on_c, 1, 42, 80
3, 135552, Note_on_c, 1, 30, 80
3, 135836, Note_off_c, 1, 42, 100
3, 135836, Note_off_c, 1, 30, 100
3, 137088, Note_on_c, 1, 47, 80
3, 137276, Note_off_c, 1, 47, 100
3, 137280, Note_on_c, 1, 63, 80
3, 137280, Note_on_c, 1, 59, 80
3, 137280, Note_on_c, 1, 54, 80
3, 137468, Note_off_c, 1, 63, 100
3, 137468, Note_off_c, 1, 59, 100
3, 137468, Note_off_c, 1, 54, 100
3, 137472, Note_on_c, 1, 63, 80
3, 137472, Note_on_c, 1, 59, 80
3, 137472, Note_on_c, 1, 54, 80
3, 137660, Note_off_c, 1, 63, 100
3, 137660, Note_off_c, 1, 59, 100
3, 137660, Note_off_c, 1, 54, 100
3, 137664, Note_on_c, 1, 63, 80
3, 137664, Note_on_c, 1, 59, 80
3, 137664, Note_on_c, 1, 54, 80
3, 137852, Note_off_c, 1, 63, 100
3, 137852, Note_off_c, 1, 59, 100
3, 137852, Note_off_c, 1, 54, 100
3, 137856, Note_on_c, 1, 47, 80
3, 138044, Note_off_c, 1, 47, 100
3, 138048, Note_on_c, 1, 63, 80
3, 138048, Note_on_c, 1, 59, 80
3, 138048, Note_on_c, 1, 54, 80
3, 138236, Note_off_c, 1, 63, 100
3, 138236, Note_off_c, 1, 59, 100
3, 138236, Note_off_c, 1, 54, 100
3, 138240, Note_on_c, 1, 63, 80
3, 138240, Note_on_c, 1, 59, 80
3, 138240, Note_on_c, 1, 54, 80
3, 138428, Note_off_c, 1, 63, 100
3, 138428, Note_off_c, 1, 59, 100
3, 138428, Note_off_c, 1, 54, 100
3, 138432, Note_on_c, 1, 63, 80
3, 138432, Note_on_c, 1, 59, 80
3, 138432, Note_on_c, 1, 54, 80
3, 138620, Note_off_c, 1, 63, 100
3, 138620, Note_off_c, 1, 59, 100
3, 138620, Note_off_c, 1, 54, 100
3, 138624, Note_on_c, 1, 42, 80
3, 138812, Note_off_c, 1, 42, 100
3, 138816, Note_on_c, 1, 64, 80
3, 138816, Note_on_c, 1, 61, 80
3, 138816, Note_on_c, 1, 54, 80
3, 139004, Note_off_c, 1, 64, 100
3, 139004, Note_off_c, 1, 61, 100
3, 139004, Note_off_c, 1, 54, 100
3, 139008, Note_on_c, 1, 64, 80
3, 139008, Note_on_c, 1, 61, 80
3, 139008, Note_on_c, 1, 54, 80
3, 139196, Note_off_c, 1, 64, 100
3, 139196, Note_off_c, 1, 61, 100
3, 139196, Note_off_c, 1, 54, 100
3, 139200, Note_on_c, 1, 64, 80
3, 139200, Note_on_c, 1, 61, 80
3, 139200, Note_on_c, 1, 54, 80
3, 139388, Note_off_c, 1, 64, 100
3, 139388, Note_off_c, 1, 61, 100
3, 139388, Note_off_c, 1, 54, 100
3, 139392, Note_on_c, 1, 46, 80
3, 139580, Note_off_c, 1, 46, 100
3, 139584, Note_on_c, 1, 64, 80
3, 139584, Note_on_c, 1, 61, 80
3, 139584, Note_on_c, 1, 54, 80
3, 139772, Note_off_c, 1, 64, 100
3, 139772, Note_off_c, 1, 61, 100
3, 139772, Note_off_c, 1, 54, 100
3, 139776, Note_on_c, 1, 42, 80
3, 139964, Note_off_c, 1, 42, 100
3, 139968, Note_on_c, 1, 64, 80
3, 139968, Note_on_c, 1, 61, 80
3, 139968, Note_on_c, 1, 54, 80
3, 140156, Note_off_c, 1, 64, 100
3, 140156, Note_off_c, 1, 61, 100
3, 140156, Note_off_c, 1, 54, 100
3, 140160, Note_on_c, 1, 47, 80
3, 140348, Note_off_c, 1, 47, 100
3, 140352, Note_on_c, 1, 63, 80
3, 140352, Note_on_c, 1, 59, 80
3, 140352, Note_on_c, 1, 54, 80
3, 140540, Note_off_c, 1, 63, 100
3, 140540, Note_off_c, 1, 59, 100
3, 140540, Note_off_c, 1, 54, 100
3, 140544, Note_on_c, 1, 63, 80
3, 140544, Note_on_c, 1, 59, 80
3, 140544, Note_on_c, 1, 54, 80
3, 140732, Note_off_c, 1, 63, 100
3, 140732, Note_off_c, 1, 59, 100
3, 140732, Note_off_c, 1, 54, 100
3, 140736, Note_on_c, 1, 63, 80
3, 140736, Note_on_c, 1, 59, 80
3, 140736, Note_on_c, 1, 54, 80
3, 140924, Note_off_c, 1, 63, 100
3, 140924, Note_off_c, 1, 59, 100
3, 140924, Note_off_c, 1, 54, 100
3, 140928, Note_on_c, 1, 47, 80
3, 141116, Note_off_c, 1, 47, 100
3, 141120, Note_on_c, 1, 63, 80
3, 141120, Note_on_c, 1, 59, 80
3, 141120, Note_on_c, 1, 54, 80
3, 141308, Note_off_c, 1, 63, 100
3, 141308, Note_off_c, 1, 59, 100
3, 141308, Note_off_c, 1, 54, 100
3, 141312, Note_on_c, 1, 63, 80
3, 141312, Note_on_c, 1, 59, 80
3, 141312, Note_on_c, 1, 54, 80
3, 141500, Note_off_c, 1, 63, 100
3, 141500, Note_off_c, 1, 59, 100
3, 141500, Note_off_c, 1, 54, 100
3, 141504, Note_on_c, 1, 63, 80
3, 141504, Note_on_c, 1, 59, 80
3, 141504, Note_on_c, 1, 54, 80
3, 141692, Note_off_c, 1, 63, 100
3, 141692, Note_off_c, 1, 59, 100
3, 141692, Note_off_c, 1, 54, 100
3, 141696, Note_on_c, 1, 42, 80
3, 141884, Note_off_c, 1, 42, 100
3, 141888, Note_on_c, 1, 64, 80
3, 141888, Note_on_c, 1, 61, 80
3, 141888, Note_on_c, 1, 54, 80
3, 142076, Note_off_c, 1, 64, 100
3, 142076, Note_off_c, 1, 61, 100
3, 142076, Note_off_c, 1, 54, 100
3, 142080, Note_on_c, 1, 64, 80
3, 142080, Note_on_c, 1, 61, 80
3, 142080, Note_on_c, 1, 54, 80
3, 142268, Note_off_c, 1, 64, 100
3, 142268, Note_off_c, 1, 61, 100
3, 142268, Note_off_c, 1, 54, 100
3, 142272, Note_on_c, 1, 64, 80
3, 142272, Note_on_c, 1, 61, 80
3, 142272, Note_on_c, 1, 54, 80
3, 142460, Note_off_c, 1, 64, 100
3, 142460, Note_off_c, 1, 61, 100
3, 142460, Note_off_c, 1, 54, 100
3, 142464, Note_on_c, 1, 47, 80
3, 142556, Note_off_c, 1, 47, 100
3, 142560, Note_on_c, 1, 59, 80
3, 142652, Note_off_c, 1, 59, 100
3, 142656, Note_on_c, 1, 57, 80
3, 142748, Note_off_c, 1, 57, 100
3, 142752, Note_on_c, 1, 55, 80
3, 142844, Note_off_c, 1, 55, 100
3, 142848, Note_on_c, 1, 54, 80
3, 142940, Note_off_c, 1, 54, 100
3, 142944, Note_on_c, 1, 52, 80
3, 143036, Note_off_c, 1, 52, 100
3, 143040, Note_on_c, 1, 50, 80
3, 143132, Note_off_c, 1, 50, 100
3, 143136, Note_on_c, 1, 49, 80
3, 143228, Note_off_c, 1, 49, 100
3, 143232, Note_on_c, 1, 47, 110
3, 143420, Note_off_c, 1, 47, 100
3, 143424, Note_on_c, 1, 50, 110
3, 143804, Note_off_c, 1, 50, 100
3, 143808, Note_on_c, 1, 49, 110
3, 143996, Note_off_c, 1, 49, 100
3, 144000, Note_on_c, 1, 47, 110
3, 144188, Note_off_c, 1, 47, 100
3, 144192, Note_on_c, 1, 50, 110
3, 144572, Note_off_c, 1, 50, 100
3, 144576, Note_on_c, 1, 47, 110
3, 144764, Note_off_c, 1, 47, 100
3, 144768, Note_on_c, 1, 46, 110
3, 144956, Note_off_c, 1, 46, 100
3, 144960, Note_on_c, 1, 54, 110
3, 145340, Note_off_c, 1, 54, 100
3, 145344, Note_on_c, 1, 54, 110
3, 145724, Note_off_c, 1, 54, 64
3, 145728, Note_on_c, 1, 55, 110
3, 145820, Note_off_c, 1, 55, 100
3, 145824, Note_on_c, 1, 54, 110
3, 145916, Note_off_c, 1, 54, 100
3, 145920, Note_on_c, 1, 52, 110
3, 146012, Note_off_c, 1, 52, 100
3, 146016, Note_on_c, 1, 50, 110
3, 146108, Note_off_c, 1, 50, 100
3, 146112, Note_on_c, 1, 52, 110
3, 146204, Note_off_c, 1, 52, 100
3, 146208, Note_on_c, 1, 49, 110
3, 146300, Note_off_c, 1, 49, 100
3, 146304, Note_on_c, 1, 47, 110
3, 146492, Note_off_c, 1, 47, 100
3, 146496, Note_on_c, 1, 50, 110
3, 146876, Note_off_c, 1, 50, 100
3, 146880, Note_on_c, 1, 50, 110
3, 147068, Note_off_c, 1, 50, 100
3, 147072, Note_on_c, 1, 49, 110
3, 147260, Note_off_c, 1, 49, 100
3, 147264, Note_on_c, 1, 52, 110
3, 147356, Note_off_c, 1, 52, 100
3, 147360, Note_on_c, 1, 50, 110
3, 147452, Note_off_c, 1, 50, 100
3, 147456, Note_on_c, 1, 49, 110
3, 147548, Note_off_c, 1, 49, 100
3, 147552, Note_on_c, 1, 50, 110
3, 147644, Note_off_c, 1, 50, 100
3, 147648, Note_on_c, 1, 52, 110
3, 147740, Note_off_c, 1, 52, 100
3, 147744, Note_on_c, 1, 49, 110
3, 147836, Note_off_c, 1, 49, 100
3, 147840, Note_on_c, 1, 50, 110
3, 148028, Note_off_c, 1, 50, 100
3, 148032, Note_on_c, 1, 54, 110
3, 148412, Note_off_c, 1, 54, 100
3, 148416, Note_on_c, 1, 54, 110
3, 148604, Note_off_c, 1, 54, 100
3, 148608, Note_on_c, 1, 53, 110
3, 148796, Note_off_c, 1, 53, 100
3, 148800, Note_on_c, 1, 56, 110
3, 148892, Note_off_c, 1, 56, 100
3, 148896, Note_on_c, 1, 54, 110
3, 148988, Note_off_c, 1, 54, 100
3, 148992, Note_on_c, 1, 53, 110
3, 149084, Note_off_c, 1, 53, 100
3, 149088, Note_on_c, 1, 54, 110
3, 149180, Note_off_c, 1, 54, 100
3, 149184, Note_on_c, 1, 56, 110
3, 149276, Note_off_c, 1, 56, 100
3, 149280, Note_on_c, 1, 53, 110
3, 149372, Note_off_c, 1, 53, 100
3, 149376, Note_on_c, 1, 54, 110
3, 149564, Note_off_c, 1, 54, 100
3, 149568, Note_on_c, 1, 57, 110
3, 149948, Note_off_c, 1, 57, 100
3, 149952, Note_on_c, 1, 57, 110
3, 150140, Note_off_c, 1, 57, 100
3, 150144, Note_on_c, 1, 57, 110
3, 150332, Note_off_c, 1, 57, 100
3, 150336, Note_on_c, 1, 47, 110
3, 150716, Note_off_c, 1, 47, 100
3, 150720, Note_on_c, 1, 55, 110
3, 150908, Note_off_c, 1, 55, 100
3, 150912, Note_on_c, 1, 55, 110
3, 151100, Note_off_c, 1, 55, 100
3, 151104, Note_on_c, 1, 45, 110
3, 151484, Note_off_c, 1, 45, 100
3, 151488, Note_on_c, 1, 54, 110
3, 151676, Note_off_c, 1, 54, 100
3, 151680, Note_on_c, 1, 54, 110
3, 151868, Note_off_c, 1, 54, 100
3, 151872, Note_on_c, 1, 43, 110
3, 152252, Note_off_c, 1, 43, 100
3, 152256, Note_on_c, 1, 52, 110
3, 152444, Note_off_c, 1, 52, 100
3, 152448, Note_on_c, 1, 52, 110
3, 152640, Note_on_c, 1, 42, 110
3, 152828, Note_off_c, 1, 42, 100
3, 152832, Note_on_c, 1, 43, 110
3, 153020, Note_off_c, 1, 52, 100
3, 153024, Note_on_c, 1, 50, 110
3, 153212, Note_off_c, 1, 43, 100
3, 153212, Note_off_c, 1, 50, 100
3, 153216, Note_on_c, 1, 50, 110
3, 153216, Note_on_c, 1, 40, 110
3, 153404, Note_off_c, 1, 50, 100
3, 153408, Note_on_c, 1, 49, 110
3, 153596, Note_off_c, 1, 40, 100
3, 153596, Note_off_c, 1, 49, 100
3, 153600, Note_on_c, 1, 47, 110
3, 153600, Note_on_c, 1, 42, 110
3, 153788, Note_off_c, 1, 47, 100
3, 153792, Note_on_c, 1, 46, 110
3, 153980, Note_off_c, 1, 42, 100
3, 153980, Note_off_c, 1, 46, 100
3, 153984, Note_on_c, 1, 47, 110
3, 153984, Note_on_c, 1, 35, 110
3, 154172, Note_off_c, 1, 47, 100
3, 154172, Note_off_c, 1, 35, 100
3, 154176, Note_on_c, 1, 59, 80
3, 154176, Note_on_c, 1, 62, 80
3, 154364, Note_off_c, 1, 59, 100
3, 154364, Note_off_c, 1, 62, 100
3, 154368, Note_on_c, 1, 59, 80
3, 154368, Note_on_c, 1, 62, 80
3, 154556, Note_off_c, 1, 59, 100
3, 154556, Note_off_c, 1, 62, 100
3, 154560, Note_on_c, 1, 59, 80
3, 154560, Note_on_c, 1, 62, 80
3, 154748, Note_off_c, 1, 59, 100
3, 154748, Note_off_c, 1, 62, 100
3, 154752, Note_on_c, 1, 45, 80
3, 154940, Note_off_c, 1, 45, 100
3, 154944, Note_on_c, 1, 57, 80
3, 154944, Note_on_c, 1, 61, 80
3, 154944, Note_on_c, 1, 64, 80
3, 155132, Note_off_c, 1, 57, 100
3, 155132, Note_off_c, 1, 61, 100
3, 155132, Note_off_c, 1, 64, 100
3, 155136, Note_on_c, 1, 64, 80
3, 155136, Note_on_c, 1, 61, 80
3, 155136, Note_on_c, 1, 57, 80
3, 155324, Note_off_c, 1, 64, 100
3, 155324, Note_off_c, 1, 61, 100
3, 155324, Note_off_c, 1, 57, 100
3, 155328, Note_on_c, 1, 64, 80
3, 155328, Note_on_c, 1, 61, 80
3, 155328, Note_on_c, 1, 57, 80
3, 155516, Note_off_c, 1, 64, 100
3, 155516, Note_off_c, 1, 61, 100
3, 155516, Note_off_c, 1, 57, 100
3, 155520, Note_on_c, 1, 50, 80
3, 155708, Note_off_c, 1, 50, 100
3, 155712, Note_on_c, 1, 62, 80
3, 155712, Note_on_c, 1, 66, 80
3, 155900, Note_off_c, 1, 62, 100
3, 155900, Note_off_c, 1, 66, 100
3, 155904, Note_on_c, 1, 66, 80
3, 155904, Note_on_c, 1, 62, 80
3, 156092, Note_off_c, 1, 66, 100
3, 156092, Note_off_c, 1, 62, 100
3, 156096, Note_on_c, 1, 66, 80
3, 156096, Note_on_c, 1, 62, 80
3, 156284, Note_off_c, 1, 66, 100
3, 156284, Note_off_c, 1, 62, 100
3, 156288, Note_on_c, 1, 49, 80
3, 156476, Note_off_c, 1, 49, 100
3, 156480, Note_on_c, 1, 65, 80
3, 156480, Note_on_c, 1, 68, 80
3, 156480, Note_on_c, 1, 61, 80
3, 156668, Note_off_c, 1, 65, 100
3, 156668, Note_off_c, 1, 68, 100
3, 156668, Note_off_c, 1, 61, 100
3, 156672, Note_on_c, 1, 68, 80
3, 156672, Note_on_c, 1, 65, 80
3, 156672, Note_on_c, 1, 61, 80
3, 156860, Note_off_c, 1, 68, 100
3, 156860, Note_off_c, 1, 65, 100
3, 156860, Note_off_c, 1, 61, 100
3, 156864, Note_on_c, 1, 68, 80
3, 156864, Note_on_c, 1, 65, 80
3, 156864, Note_on_c, 1, 61, 80
3, 157052, Note_off_c, 1, 68, 100
3, 157052, Note_off_c, 1, 65, 100
3, 157052, Note_off_c, 1, 61, 100
3, 157056, Note_on_c, 1, 54, 80
3, 157244, Note_off_c, 1, 54, 100
3, 157248, Note_on_c, 1, 66, 80
3, 157248, Note_on_c, 1, 69, 80
3, 157436, Note_off_c, 1, 66, 100
3, 157436, Note_off_c, 1, 69, 100
3, 157440, Note_on_c, 1, 69, 80
3, 157440, Note_on_c, 1, 66, 80
3, 157628, Note_off_c, 1, 69, 100
3, 157628, Note_off_c, 1, 66, 100
3, 157632, Note_on_c, 1, 69, 80
3, 157632, Note_on_c, 1, 66, 80
3, 157820, Note_off_c, 1, 69, 100
3, 157820, Note_off_c, 1, 66, 100
3, 157824, Note_on_c, 1, 51, 80
3, 158012, Note_off_c, 1, 51, 100
3, 158016, Note_on_c, 1, 63, 82
3, 158016, Note_on_c, 1, 66, 82
3, 158204, Note_off_c, 1, 63, 100
3, 158204, Note_off_c, 1, 66, 100
3, 158208, Note_on_c, 1, 52, 84
3, 158396, Note_off_c, 1, 52, 100
3, 158400, Note_on_c, 1, 64, 87
3, 158400, Note_on_c, 1, 67, 87
3, 158588, Note_off_c, 1, 64, 100
3, 158588, Note_off_c, 1, 67, 100
3, 158592, Note_on_c, 1, 49, 89
3, 158780, Note_off_c, 1, 49, 100
3, 158784, Note_on_c, 1, 61, 92
3, 158784, Note_on_c, 1, 64, 92
3, 158972, Note_off_c, 1, 61, 100
3, 158972, Note_off_c, 1, 64, 100
3, 158976, Note_on_c, 1, 50, 94
3, 159164, Note_off_c, 1, 50, 100
3, 159168, Note_on_c, 1, 62, 97
3, 159168, Note_on_c, 1, 66, 97
3, 159356, Note_off_c, 1, 62, 100
3, 159356, Note_off_c, 1, 66, 100
3, 159360, Note_on_c, 1, 47, 99
3, 159548, Note_off_c, 1, 47, 100
3, 159552, Note_on_c, 1, 59, 102
3, 159552, Note_on_c, 1, 62, 102
3, 159740, Note_off_c, 1, 59, 100
3, 159740, Note_off_c, 1, 62, 100
3, 159744, Note_on_c, 1, 49, 104
3, 159932, Note_off_c, 1, 49, 100
3, 159936, Note_on_c, 1, 61, 107
3, 159936, Note_on_c, 1, 64, 107
3, 160124, Note_off_c, 1, 61, 100
3, 160124, Note_off_c, 1, 64, 100
3, 160128, Note_on_c, 1, 46, 110
3, 160316, Note_off_c, 1, 46, 100
3, 160320, Note_on_c, 1, 58, 110
3, 160320, Note_on_c, 1, 61, 110
3, 160508, Note_off_c, 1, 58, 100
3, 160508, Note_off_c, 1, 61, 100
3, 160512, Note_on_c, 1, 47, 110
3, 160700, Note_off_c, 1, 47, 100
3, 160704, Note_on_c, 1, 59, 110
3, 160704, Note_on_c, 1, 62, 110
3, 160892, Note_off_c, 1, 59, 100
3, 160892, Note_off_c, 1, 62, 100
3, 160896, Note_on_c, 1, 40, 110
3, 161084, Note_off_c, 1, 40, 100
3, 161088, Note_on_c, 1, 52, 110
3, 161276, Note_off_c, 1, 52, 100
3, 161280, Note_on_c, 1, 42, 110
3, 161468, Note_off_c, 1, 42, 100
3, 161472, Note_on_c, 1, 54, 110
3, 161660, Note_off_c, 1, 54, 100
3, 161664, Note_on_c, 1, 47, 110
3, 161856, Note_on_c, 1, 54, 80
3, 162044, Note_off_c, 1, 47, 100
3, 162044, Note_off_c, 1, 54, 100
3, 162048, Note_on_c, 1, 54, 80
3, 162236, Note_off_c, 1, 54, 100
3, 162240, Note_on_c, 1, 54, 80
3, 162428, Note_off_c, 1, 54, 100
3, 162432, Note_on_c, 1, 54, 80
3, 162432, Note_on_c, 1, 42, 80
3, 162620, Note_off_c, 1, 54, 100
3, 162624, Note_on_c, 1, 54, 80
3, 162812, Note_off_c, 1, 54, 100
3, 162816, Note_on_c, 1, 54, 80
3, 163004, Note_off_c, 1, 54, 100
3, 163008, Note_on_c, 1, 54, 80
3, 163196, Note_off_c, 1, 42, 100
3, 163196, Note_off_c, 1, 54, 100
3, 163200, Note_on_c, 1, 47, 80
3, 163392, Note_on_c, 1, 54, 80
3, 163580, Note_off_c, 1, 47, 100
3, 163580, Note_off_c, 1, 54, 100
3, 163584, Note_on_c, 1, 54, 80
3, 163772, Note_off_c, 1, 54, 100
3, 163776, Note_on_c, 1, 54, 80
3, 163964, Note_off_c, 1, 54, 100
3, 163968, Note_on_c, 1, 54, 80
3, 163968, Note_on_c, 1, 42, 80
3, 164156, Note_off_c, 1, 54, 100
3, 164160, Note_on_c, 1, 54, 77
3, 164348, Note_off_c, 1, 54, 100
3, 164352, Note_on_c, 1, 54, 74
3, 164540, Note_off_c, 1, 54, 100
3, 164544, Note_on_c, 1, 54, 71
3, 164732, Note_off_c, 1, 42, 100
3, 164732, Note_off_c, 1, 54, 100
3, 164736, Note_on_c, 1, 47, 70
3, 164928, Note_on_c, 1, 54, 70
3, 165116, Note_off_c, 1, 47, 100
3, 165116, Note_off_c, 1, 54, 100
3, 165120, Note_on_c, 1, 54, 70
3, 165308, Note_off_c, 1, 54, 100
3, 165312, Note_on_c, 1, 54, 70
3, 165500, Note_off_c, 1, 54, 100
3, 165504, Note_on_c, 1, 54, 70
3, 165504, Note_on_c, 1, 42, 70
3, 165692, Note_off_c, 1, 54, 100
3, 165696, Note_on_c, 1, 54, 70
3, 165884, Note_off_c, 1, 54, 100
3, 165888, Note_on_c, 1, 54, 70
3, 166076, Note_off_c, 1, 54, 100
3, 166080, Note_on_c, 1, 54, 70
3, 166268, Note_off_c, 1, 42, 100
3, 166268, Note_off_c, 1, 54, 100
3, 166272, Note_on_c, 1, 54, 70
3, 166272, Note_on_c, 1, 47, 70
3, 166460, Note_off_c, 1, 54, 100
3, 166460, Note_off_c, 1, 47, 100
3, 166464, Note_on_c, 1, 54, 71
3, 166652, Note_off_c, 1, 54, 100
3, 166656, Note_on_c, 1, 54, 72
3, 166656, Note_on_c, 1, 42, 72
3, 166844, Note_off_c, 1, 54, 100
3, 166844, Note_off_c, 1, 42, 100
3, 166848, Note_on_c, 1, 54, 73
3, 167036, Note_off_c, 1, 54, 100
3, 167040, Note_on_c, 1, 54, 75
3, 167040, Note_on_c, 1, 47, 75
3, 167228, Note_off_c, 1, 54, 100
3, 167228, Note_off_c, 1, 47, 100
3, 167232, Note_on_c, 1, 54, 76
3, 167420, Note_off_c, 1, 54, 100
3, 167424, Note_on_c, 1, 54, 77
3, 167424, Note_on_c, 1, 42, 77
3, 167612, Note_off_c, 1, 54, 100
3, 167612, Note_off_c, 1, 42, 100
3, 167616, Note_on_c, 1, 54, 79
3, 167804, Note_off_c, 1, 54, 100
3, 167808, Note_on_c, 1, 54, 80
3, 167808, Note_on_c, 1, 47, 80
3, 167996, Note_off_c, 1, 54, 100
3, 168000, Note_on_c, 1, 54, 81
3, 168188, Note_off_c, 1, 47, 100
3, 168188, Note_off_c, 1, 54, 100
3, 168192, Note_on_c, 1, 54, 83
3, 168192, Note_on_c, 1, 42, 83
3, 168380, Note_off_c, 1, 54, 100
3, 168384, Note_on_c, 1, 54, 84
3, 168572, Note_off_c, 1, 42, 100
3, 168572, Note_off_c, 1, 54, 100
3, 168576, Note_on_c, 1, 54, 85
3, 168576, Note_on_c, 1, 47, 85
3, 168764, Note_off_c, 1, 54, 100
3, 168768, Note_on_c, 1, 54, 87
3, 168956, Note_off_c, 1, 47, 100
3, 168956, Note_off_c, 1, 54, 100
3, 168960, Note_on_c, 1, 54, 88
3, 168960, Note_on_c, 1, 42, 88
3, 169148, Note_off_c, 1, 54, 100
3, 169152, Note_on_c, 1, 54, 89
3, 169340, Note_off_c, 1, 42, 100
3, 169340, Note_off_c, 1, 54, 100
3, 169344, Note_on_c, 1, 54, 80
3, 169344, Note_on_c, 1, 47, 80
3, 169724, Note_off_c, 1, 54, 100
3, 169724, Note_off_c, 1, 47, 100
3, 170112, Note_on_c, 1, 47, 80
3, 170112, Note_on_c, 1, 35, 80
3, 170492, Note_off_c, 1, 47, 100
3, 170492, Note_off_c, 1, 35, 100
3, 170880, Note_on_c, 1, 47, 80
3, 170880, Note_on_c, 1, 35, 80
3, 171260, Note_off_c, 1, 47, 100
3, 171260, Note_off_c, 1, 35, 100
3, 171648, Note_on_c, 1, 35, 80
3, 171836, Note_off_c, 1, 35, 100
3, 172032, Note_on_c, 1, 38, 80
3, 172220, Note_off_c, 1, 38, 100
3, 172416, Note_on_c, 1, 43, 110
3, 172416, Note_on_c, 1, 31, 110
3, 172796, Note_off_c, 1, 43, 100
3, 172796, Note_off_c, 1, 31, 100
3, 174720, Note_on_c, 1, 55, 80
3, 174720, Note_on_c, 1, 43, 80
3, 174908, Note_off_c, 1, 55, 100
3, 174908, Note_off_c, 1, 43, 100
3, 175104, Note_on_c, 1, 55, 80
3, 175104, Note_on_c, 1, 43, 80
3, 175292, Note_off_c, 1, 55, 100
3, 175292, Note_off_c, 1, 43, 100
3, 175488, Note_on_c, 1, 55, 80
3, 175488, Note_on_c, 1, 43, 80
3, 175676, Note_off_c, 1, 55, 100
3, 175676, Note_off_c, 1, 43, 100
3, 176256, Note_on_c, 1, 55, 80
3, 176256, Note_on_c, 1, 43, 80
3, 176444, Note_off_c, 1, 55, 100
3, 176444, Note_off_c, 1, 43, 100
3, 176640, Note_on_c, 1, 55, 80
3, 176640, Note_on_c, 1, 43, 80
3, 176828, Note_off_c, 1, 55, 100
3, 176828, Note_off_c, 1, 43, 100
3, 177024, Note_on_c, 1, 55, 80
3, 177024, Note_on_c, 1, 43, 80
3, 177212, Note_off_c, 1, 55, 100
3, 177212, Note_off_c, 1, 43, 100
3, 177792, Note_on_c, 1, 53, 110
3, 177792, Note_on_c, 1, 41, 110
3, 177980, Note_off_c, 1, 53, 100
3, 177980, Note_off_c, 1, 41, 100
3, 178176, Note_on_c, 1, 62, 110
3, 178176, Note_on_c, 1, 59, 110
3, 178176, Note_on_c, 1, 53, 110
3, 178364, Note_off_c, 1, 62, 100
3, 178364, Note_off_c, 1, 59, 100
3, 178364, Note_off_c, 1, 53, 100
3, 178560, Note_on_c, 1, 51, 110
3, 178560, Note_on_c, 1, 39, 110
3, 178748, Note_off_c, 1, 51, 100
3, 178748, Note_off_c, 1, 39, 100
3, 178944, Note_on_c, 1, 60, 110
3, 178944, Note_on_c, 1, 55, 110
3, 178944, Note_on_c, 1, 51, 110
3, 179132, Note_off_c, 1, 60, 100
3, 179132, Note_off_c, 1, 55, 100
3, 179132, Note_off_c, 1, 51, 100
3, 179328, Note_on_c, 1, 50, 110
3, 179328, Note_on_c, 1, 38, 110
3, 179516, Note_off_c, 1, 50, 100
3, 179516, Note_off_c, 1, 38, 100
3, 179712, Note_on_c, 1, 59, 110
3, 179712, Note_on_c, 1, 53, 110
3, 179712, Note_on_c, 1, 50, 110
3, 179900, Note_off_c, 1, 59, 100
3, 179900, Note_off_c, 1, 53, 100
3, 179900, Note_off_c, 1, 50, 100
3, 180096, Note_on_c, 1, 48, 110
3, 180096, Note_on_c, 1, 43, 110
3, 180096, Note_on_c, 1, 39, 110
3, 180096, Note_on_c, 1, 36, 110
3, 180284, Note_off_c, 1, 48, 100
3, 180284, Note_off_c, 1, 43, 100
3, 180284, Note_off_c, 1, 39, 100
3, 180284, Note_off_c, 1, 36, 100
3, 180864, Note_on_c, 1, 67, 80
3, 180864, Note_on_c, 1, 63, 80
3, 180864, Note_on_c, 1, 60, 80
3, 181052, Note_off_c, 1, 67, 100
3, 181052, Note_off_c, 1, 63, 100
3, 181052, Note_off_c, 1, 60, 100
3, 181248, Note_on_c, 1, 67, 80
3, 181248, Note_on_c, 1, 63, 80
3, 181248, Note_on_c, 1, 60, 80
3, 181436, Note_off_c, 1, 67, 100
3, 181436, Note_off_c, 1, 63, 100
3, 181436, Note_off_c, 1, 60, 100
3, 181632, Note_on_c, 1, 67, 80
3, 181632, Note_on_c, 1, 63, 80
3, 181632, Note_on_c, 1, 60, 80
3, 181820, Note_off_c, 1, 67, 100
3, 181820, Note_off_c, 1, 63, 100
3, 181820, Note_off_c, 1, 60, 100
3, 182400, Note_on_c, 1, 67, 80
3, 182400, Note_on_c, 1, 63, 80
3, 182400, Note_on_c, 1, 60, 80
3, 182588, Note_off_c, 1, 67, 100
3, 182588, Note_off_c, 1, 63, 100
3, 182588, Note_off_c, 1, 60, 100
3, 182784, Note_on_c, 1, 67, 80
3, 182784, Note_on_c, 1, 63, 80
3, 182784, Note_on_c, 1, 60, 80
3, 182972, Note_off_c, 1, 67, 100
3, 182972, Note_off_c, 1, 63, 100
3, 182972, Note_off_c, 1, 60, 100
3, 183168, Note_on_c, 1, 67, 80
3, 183168, Note_on_c, 1, 63, 80
3, 183168, Note_on_c, 1, 60, 80
3, 183356, Note_off_c, 1, 67, 100
3, 183356, Note_off_c, 1, 63, 100
3, 183356, Note_off_c, 1, 60, 100
3, 183936, Note_on_c, 1, 58, 110
3, 183936, Note_on_c, 1, 46, 110
3, 184124, Note_off_c, 1, 58, 100
3, 184124, Note_off_c, 1, 46, 100
3, 184320, Note_on_c, 1, 67, 110
3, 184320, Note_on_c, 1, 64, 110
3, 184320, Note_on_c, 1, 58, 110
3, 184508, Note_off_c, 1, 67, 100
3, 184508, Note_off_c, 1, 64, 100
3, 184508, Note_off_c, 1, 58, 100
3, 184704, Note_on_c, 1, 57, 110
3, 184704, Note_on_c, 1, 45, 110
3, 184892, Note_off_c, 1, 57, 100
3, 184892, Note_off_c, 1, 45, 100
3, 185088, Note_on_c, 1, 65, 110
3, 185088, Note_on_c, 1, 60, 110
3, 185088, Note_on_c, 1, 57, 110
3, 185276, Note_off_c, 1, 65, 100
3, 185276, Note_off_c, 1, 60, 100
3, 185276, Note_off_c, 1, 57, 100
3, 185472, Note_on_c, 1, 55, 110
3, 185472, Note_on_c, 1, 43, 110
3, 185660, Note_off_c, 1, 55, 100
3, 185660, Note_off_c, 1, 43, 100
3, 185856, Note_on_c, 1, 64, 110
3, 185856, Note_on_c, 1, 58, 110
3, 185856, Note_on_c, 1, 55, 110
3, 186044, Note_off_c, 1, 64, 100
3, 186044, Note_off_c, 1, 58, 100
3, 186044, Note_off_c, 1, 55, 100
3, 186240, Note_on_c, 1, 53, 110
3, 186240, Note_on_c, 1, 41, 110
3, 186428, Note_off_c, 1, 53, 100
3, 186428, Note_off_c, 1, 41, 100
3, 186624, Note_on_c, 1, 60, 110
3, 186624, Note_on_c, 1, 57, 110
3, 186624, Note_on_c, 1, 53, 110
3, 186812, Note_off_c, 1, 60, 100
3, 186812, Note_off_c, 1, 57, 100
3, 186812, Note_off_c, 1, 53, 100
3, 187008, Note_on_c, 1, 63, 110
3, 187008, Note_on_c, 1, 51, 110
3, 187196, Note_off_c, 1, 63, 100
3, 187196, Note_off_c, 1, 51, 100
3, 187392, Note_on_c, 1, 72, 110
3, 187392, Note_on_c, 1, 69, 110
3, 187392, Note_on_c, 1, 63, 110
3, 187580, Note_off_c, 1, 72, 100
3, 187580, Note_off_c, 1, 69, 100
3, 187580, Note_off_c, 1, 63, 100
3, 187776, Note_on_c, 1, 62, 110
3, 187776, Note_on_c, 1, 50, 110
3, 187964, Note_off_c, 1, 62, 100
3, 187964, Note_off_c, 1, 50, 100
3, 188160, Note_on_c, 1, 70, 110
3, 188160, Note_on_c, 1, 65, 110
3, 188160, Note_on_c, 1, 62, 110
3, 188348, Note_off_c, 1, 70, 100
3, 188348, Note_off_c, 1, 65, 100
3, 188348, Note_off_c, 1, 62, 100
3, 188544, Note_on_c, 1, 60, 110
3, 188544, Note_on_c, 1, 48, 110
3, 188732, Note_off_c, 1, 60, 100
3, 188732, Note_off_c, 1, 48, 100
3, 188928, Note_on_c, 1, 69, 110
3, 188928, Note_on_c, 1, 63, 110
3, 188928, Note_on_c, 1, 60, 110
3, 189116, Note_off_c, 1, 69, 100
3, 189116, Note_off_c, 1, 63, 100
3, 189116, Note_off_c, 1, 60, 100
3, 189312, Note_on_c, 1, 58, 110
3, 189312, Note_on_c, 1, 53, 110
3, 189312, Note_on_c, 1, 50, 110
3, 189312, Note_on_c, 1, 46, 110
3, 189500, Note_off_c, 1, 58, 100
3, 189500, Note_off_c, 1, 53, 100
3, 189500, Note_off_c, 1, 50, 100
3, 189500, Note_off_c, 1, 46, 100
3, 190848, Control_c, 1, 64, 127
3, 190848, Note_on_c, 1, 58, 110
3, 190940, Note_off_c, 1, 58, 100
3, 190944, Note_on_c, 1, 61, 110
3, 191036, Note_off_c, 1, 61, 100
3, 191040, Note_on_c, 1, 62, 110
3, 191132, Note_off_c, 1, 62, 100
3, 191136, Note_on_c, 1, 57, 110
3, 191224, Control_c, 1, 64, 0
3, 191228, Note_off_c, 1, 57, 100
3, 191232, Control_c, 1, 64, 127
3, 191232, Note_on_c, 1, 60, 110
3, 191324, Note_off_c, 1, 60, 100
3, 191328, Note_on_c, 1, 58, 110
3, 191420, Note_off_c, 1, 58, 100
3, 191424, Note_on_c, 1, 57, 110
3, 191516, Note_off_c, 1, 57, 100
3, 191520, Note_on_c, 1, 55, 110
3, 191608, Control_c, 1, 64, 0
3, 191612, Note_off_c, 1, 55, 100
3, 191616, Control_c, 1, 64, 127
3, 191616, Note_on_c, 1, 53, 110
3, 191708, Note_off_c, 1, 53, 100
3, 191712, Note_on_c, 1, 54, 110
3, 191804, Note_off_c, 1, 54, 100
3, 191808, Note_on_c, 1, 55, 110
3, 191900, Note_off_c, 1, 55, 100
3, 191904, Note_on_c, 1, 50, 110
3, 191992, Control_c, 1, 64, 0
3, 191996, Note_off_c, 1, 50, 100
3, 192000, Control_c, 1, 64, 127
3, 192000, Note_on_c, 1, 53, 110
3, 192092, Note_off_c, 1, 53, 100
3, 192096, Note_on_c, 1, 51, 110
3, 192188, Note_off_c, 1, 51, 100
3, 192192, Note_on_c, 1, 50, 110
3, 192284, Note_off_c, 1, 50, 100
3, 192288, Note_on_c, 1, 48, 110
3, 192376, Control_c, 1, 64, 0
3, 192380, Note_off_c, 1, 48, 100
3, 192384, Control_c, 1, 64, 127
3, 192384, Note_on_c, 1, 46, 110
3, 192476, Note_off_c, 1, 46, 100
3, 192480, Note_on_c, 1, 49, 110
3, 192572, Note_off_c, 1, 49, 100
3, 192576, Note_on_c, 1, 50, 110
3, 192668, Note_off_c, 1, 50, 100
3, 192672, Note_on_c, 1, 45, 110
3, 192760, Control_c, 1, 64, 0
3, 192764, Note_off_c, 1, 45, 100
3, 192768, Control_c, 1, 64, 127
3, 192768, Note_on_c, 1, 48, 110
3, 192860, Note_off_c, 1, 48, 100
3, 192864, Note_on_c, 1, 46, 110
3, 192956, Note_off_c, 1, 46, 100
3, 192960, Note_on_c, 1, 45, 110
3, 193052, Note_off_c, 1, 45, 100
3, 193056, Note_on_c, 1, 43, 110
3, 193144, Control_c, 1, 64, 0
3, 193148, Note_off_c, 1, 43, 100
3, 193152, Control_c, 1, 64, 127
3, 193152, Note_on_c, 1, 41, 110
3, 193244, Note_off_c, 1, 41, 100
3, 193248, Note_on_c, 1, 43, 110
3, 193340, Note_off_c, 1, 43, 100
3, 193344, Note_on_c, 1, 44, 110
3, 193436, Note_off_c, 1, 44, 100
3, 193440, Note_on_c, 1, 43, 110
3, 193528, Control_c, 1, 64, 0
3, 193532, Note_off_c, 1, 43, 100
3, 193536, Control_c, 1, 64, 127
3, 193536, Note_on_c, 1, 41, 110
3, 193628, Note_off_c, 1, 41, 100
3, 193632, Note_on_c, 1, 39, 110
3, 193724, Note_off_c, 1, 39, 100
3, 193728, Note_on_c, 1, 38, 110
3, 193820, Note_off_c, 1, 38, 100
3, 193824, Note_on_c, 1, 36, 110
3, 193912, Control_c, 1, 64, 0
3, 193916, Note_off_c, 1, 36, 100
3, 193920, Control_c, 1, 64, 127
3, 193920, Note_on_c, 1, 35, 110
3, 194012, Note_off_c, 1, 35, 100
3, 194016, Note_on_c, 1, 38, 110
3, 194108, Note_off_c, 1, 38, 100
3, 194112, Note_on_c, 1, 36, 110
3, 194204, Note_off_c, 1, 36, 100
3, 194208, Note_on_c, 1, 39, 110
3, 194296, Control_c, 1, 64, 0
3, 194300, Note_off_c, 1, 39, 100
3, 194304, Control_c, 1, 64, 127
3, 194304, Note_on_c, 1, 38, 110
3, 194396, Note_off_c, 1, 38, 100
3, 194400, Note_on_c, 1, 42, 110
3, 194492, Note_off_c, 1, 42, 100
3, 194496, Note_on_c, 1, 39, 110
3, 194588, Note_off_c, 1, 39, 100
3, 194592, Note_on_c, 1, 43, 110
3, 194680, Control_c, 1, 64, 0
3, 194684, Note_off_c, 1, 43, 100
3, 194688, Control_c, 1, 64, 127
3, 194688, Note_on_c, 1, 41, 110
3, 194780, Note_off_c, 1, 41, 100
3, 194784, Note_on_c, 1, 44, 110
3, 194876, Note_off_c, 1, 44, 100
3, 194880, Note_on_c, 1, 43, 110
3, 194972, Note_off_c, 1, 43, 100
3, 194976, Note_on_c, 1, 41, 110
3, 195064, Control_c, 1, 64, 0
3, 195068, Note_off_c, 1, 41, 100
3, 195072, Control_c, 1, 64, 127
3, 195072, Note_on_c, 1, 39, 110
3, 195164, Note_off_c, 1, 39, 100
3, 195168, Note_on_c, 1, 38, 110
3, 195260, Note_off_c, 1, 38, 100
3, 195264, Note_on_c, 1, 36, 110
3, 195356, Note_off_c, 1, 36, 100
3, 195360, Note_on_c, 1, 35, 110
3, 195448, Control_c, 1, 64, 0
3, 195452, Note_off_c, 1, 35, 100
3, 195456, Note_on_c, 1, 36, 110
3, 195644, Note_off_c, 1, 36, 100
3, 196992, Control_c, 1, 64, 127
3, 196992, Note_on_c, 1, 60, 110
3, 197084, Note_off_c, 1, 60, 100
3, 197088, Note_on_c, 1, 62, 110
3, 197180, Note_off_c, 1, 62, 100
3, 197184, Note_on_c, 1, 63, 110
3, 197276, Note_off_c, 1, 63, 100
3, 197280, Note_on_c, 1, 59, 110
3, 197368, Control_c, 1, 64, 0
3, 197372, Note_off_c, 1, 59, 100
3, 197376, Control_c, 1, 64, 127
3, 197376, Note_on_c, 1, 62, 110
3, 197468, Note_off_c, 1, 62, 100
3, 197472, Note_on_c, 1, 60, 110
3, 197564, Note_off_c, 1, 60, 100
3, 197568, Note_on_c, 1, 58, 110
3, 197660, Note_off_c, 1, 58, 100
3, 197664, Note_on_c, 1, 56, 110
3, 197752, Control_c, 1, 64, 0
3, 197756, Note_off_c, 1, 56, 100
3, 197760, Control_c, 1, 64, 127
3, 197760, Note_on_c, 1, 55, 110
3, 197852, Note_off_c, 1, 55, 100
3, 197856, Note_on_c, 1, 56, 110
3, 197948, Note_off_c, 1, 56, 100
3, 197952, Note_on_c, 1, 55, 110
3, 198044, Note_off_c, 1, 55, 100
3, 198048, Note_on_c, 1, 54, 110
3, 198136, Control_c, 1, 64, 0
3, 198140, Note_off_c, 1, 54, 100
3, 198144, Control_c, 1, 64, 127
3, 198144, Note_on_c, 1, 55, 110
3, 198236, Note_off_c, 1, 55, 100
3, 198240, Note_on_c, 1, 53, 110
3, 198332, Note_off_c, 1, 53, 100
3, 198336, Note_on_c, 1, 51, 110
3, 198428, Note_off_c, 1, 51, 100
3, 198432, Note_on_c, 1, 50, 110
3, 198520, Control_c, 1, 64, 0
3, 198524, Note_off_c, 1, 50, 100
3, 198528, Control_c, 1, 64, 127
3, 198528, Note_on_c, 1, 48, 110
3, 198620, Note_off_c, 1, 48, 100
3, 198624, Note_on_c, 1, 50, 110
3, 198716, Note_off_c, 1, 50, 100
3, 198720, Note_on_c, 1, 51, 110
3, 198812, Note_off_c, 1, 51, 100
3, 198816, Note_on_c, 1, 47, 110
3, 198904, Control_c, 1, 64, 0
3, 198908, Note_off_c, 1, 47, 100
3, 198912, Control_c, 1, 64, 127
3, 198912, Note_on_c, 1, 50, 110
3, 199004, Note_off_c, 1, 50, 100
3, 199008, Note_on_c, 1, 48, 110
3, 199100, Note_off_c, 1, 48, 100
3, 199104, Note_on_c, 1, 46, 110
3, 199196, Note_off_c, 1, 46, 100
3, 199200, Note_on_c, 1, 44, 110
3, 199288, Control_c, 1, 64, 0
3, 199292, Note_off_c, 1, 44, 100
3, 199296, Control_c, 1, 64, 127
3, 199296, Note_on_c, 1, 43, 110
3, 199388, Note_off_c, 1, 43, 100
3, 199392, Note_on_c, 1, 45, 110
3, 199484, Note_off_c, 1, 45, 100
3, 199488, Note_on_c, 1, 46, 110
3, 199580, Note_off_c, 1, 46, 100
3, 199584, Note_on_c, 1, 45, 110
3, 199672, Control_c, 1, 64, 0
3, 199676, Note_off_c, 1, 45, 100
3, 199680, Control_c, 1, 64, 127
3, 199680, Note_on_c, 1, 43, 110
3, 199772, Note_off_c, 1, 43, 100
3, 199776, Note_on_c, 1, 41, 110
3, 199868, Note_off_c, 1, 41, 100
3, 199872, Note_on_c, 1, 40, 110
3, 199964, Note_off_c, 1, 40, 100
3, 199968, Note_on_c, 1, 38, 110
3, 200056, Control_c, 1, 64, 0
3, 200060, Note_off_c, 1, 38, 100
3, 200064, Control_c, 1, 64, 127
3, 200064, Note_on_c, 1, 37, 110
3, 200156, Note_off_c, 1, 37, 100
3, 200160, Note_on_c, 1, 40, 110
3, 200252, Note_off_c, 1, 40, 100
3, 200256, Note_on_c, 1, 38, 110
3, 200348, Note_off_c, 1, 38, 100
3, 200352, Note_on_c, 1, 41, 110
3, 200440, Control_c, 1, 64, 0
3, 200444, Note_off_c, 1, 41, 100
3, 200448, Control_c, 1, 64, 127
3, 200448, Note_on_c, 1, 40, 110
3, 200540, Note_off_c, 1, 40, 100
3, 200544, Note_on_c, 1, 43, 110
3, 200636, Note_off_c, 1, 43, 100
3, 200640, Note_on_c, 1, 41, 110
3, 200732, Note_off_c, 1, 41, 100
3, 200736, Note_on_c, 1, 45, 110
3, 200824, Control_c, 1, 64, 0
3, 200828, Note_off_c, 1, 45, 100
3, 200832, Control_c, 1, 64, 127
3, 200832, Note_on_c, 1, 43, 110
3, 200924, Note_off_c, 1, 43, 100
3, 200928, Note_on_c, 1, 46, 110
3, 201020, Note_off_c, 1, 46, 100
3, 201024, Note_on_c, 1, 45, 110
3, 201116, Note_off_c, 1, 45, 100
3, 201120, Note_on_c, 1, 43, 110
3, 201208, Control_c, 1, 64, 0
3, 201212, Note_off_c, 1, 43, 100
3, 201216, Control_c, 1, 64, 127
3, 201216, Note_on_c, 1, 41, 110
3, 201308, Note_off_c, 1, 41, 100
3, 201312, Note_on_c, 1, 40, 110
3, 201404, Note_off_c, 1, 40, 100
3, 201408, Note_on_c, 1, 38, 110
3, 201500, Note_off_c, 1, 38, 100
3, 201504, Note_on_c, 1, 37, 110
3, 201592, Control_c, 1, 64, 0
3, 201596, Note_off_c, 1, 37, 100
3, 201600, Note_on_c, 1, 38, 110
3, 201788, Note_off_c, 1, 38, 100
3, 203136, Control_c, 1, 64, 127
3, 203136, Note_on_c, 1, 50, 110
3, 203228, Note_off_c, 1, 50, 100
3, 203232, Note_on_c, 1, 52, 110
3, 203324, Note_off_c, 1, 52, 100
3, 203328, Note_on_c, 1, 53, 110
3, 203420, Note_off_c, 1, 53, 100
3, 203424, Note_on_c, 1, 49, 110
3, 203512, Control_c, 1, 64, 0
3, 203516, Note_off_c, 1, 49, 100
3, 203520, Control_c, 1, 64, 127
3, 203520, Note_on_c, 1, 52, 110
3, 203612, Note_off_c, 1, 52, 100
3, 203616, Note_on_c, 1, 50, 110
3, 203708, Note_off_c, 1, 50, 100
3, 203712, Note_on_c, 1, 48, 110
3, 203804, Note_off_c, 1, 48, 100
3, 203808, Note_on_c, 1, 46, 110
3, 203896, Control_c, 1, 64, 0
3, 203900, Note_off_c, 1, 46, 100
3, 203904, Control_c, 1, 64, 127
3, 203904, Note_on_c, 1, 45, 110
3, 203996, Note_off_c, 1, 45, 100
3, 204000, Note_on_c, 1, 46, 110
3, 204092, Note_off_c, 1, 46, 100
3, 204096, Note_on_c, 1, 48, 110
3, 204188, Note_off_c, 1, 48, 100
3, 204192, Note_on_c, 1, 46, 110
3, 204280, Control_c, 1, 64, 0
3, 204284, Note_off_c, 1, 46, 100
3, 204288, Control_c, 1, 64, 127
3, 204288, Note_on_c, 1, 45, 110
3, 204380, Note_off_c, 1, 45, 100
3, 204384, Note_on_c, 1, 46, 110
3, 204476, Note_off_c, 1, 46, 100
3, 204480, Note_on_c, 1, 45, 110
3, 204572, Note_off_c, 1, 45, 100
3, 204576, Note_on_c, 1, 43, 110
3, 204664, Control_c, 1, 64, 0
3, 204668, Note_off_c, 1, 43, 100
3, 204672, Control_c, 1, 64, 127
3, 204672, Note_on_c, 1, 42, 110
3, 204764, Note_off_c, 1, 42, 100
3, 204768, Note_on_c, 1, 45, 110
3, 204860, Note_off_c, 1, 45, 100
3, 204864, Note_on_c, 1, 43, 110
3, 204956, Note_off_c, 1, 43, 100
3, 204960, Note_on_c, 1, 46, 110
3, 205048, Control_c, 1, 64, 0
3, 205052, Note_off_c, 1, 46, 100
3, 205056, Control_c, 1, 64, 127
3, 205056, Note_on_c, 1, 45, 110
3, 205148, Note_off_c, 1, 45, 100
3, 205152, Note_on_c, 1, 48, 110
3, 205244, Note_off_c, 1, 48, 100
3, 205248, Note_on_c, 1, 46, 110
3, 205340, Note_off_c, 1, 46, 100
3, 205344, Note_on_c, 1, 50, 110
3, 205432, Control_c, 1, 64, 0
3, 205436, Note_off_c, 1, 50, 100
3, 205440, Control_c, 1, 64, 127
3, 205440, Note_on_c, 1, 48, 110
3, 205532, Note_off_c, 1, 48, 100
3, 205536, Note_on_c, 1, 51, 110
3, 205628, Note_off_c, 1, 51, 100
3, 205632, Note_on_c, 1, 50, 110
3, 205724, Note_off_c, 1, 50, 100
3, 205728, Note_on_c, 1, 48, 110
3, 205816, Control_c, 1, 64, 0
3, 205820, Note_off_c, 1, 48, 100
3, 205824, Control_c, 1, 64, 127
3, 205824, Note_on_c, 1, 46, 110
3, 205916, Note_off_c, 1, 46, 100
3, 205920, Note_on_c, 1, 45, 110
3, 206012, Note_off_c, 1, 45, 100
3, 206016, Note_on_c, 1, 43, 110
3, 206108, Note_off_c, 1, 43, 100
3, 206112, Note_on_c, 1, 42, 110
3, 206200, Control_c, 1, 64, 0
3, 206204, Note_off_c, 1, 42, 100
3, 206208, Control_c, 1, 64, 127
3, 206208, Note_on_c, 1, 43, 110
3, 206300, Note_off_c, 1, 43, 100
3, 206304, Note_on_c, 1, 45, 110
3, 206396, Note_off_c, 1, 45, 100
3, 206400, Note_on_c, 1, 46, 110
3, 206492, Note_off_c, 1, 46, 100
3, 206496, Note_on_c, 1, 45, 110
3, 206584, Control_c, 1, 64, 0
3, 206588, Note_off_c, 1, 45, 100
3, 206592, Control_c, 1, 64, 127
3, 206592, Note_on_c, 1, 43, 110
3, 206684, Note_off_c, 1, 43, 100
3, 206688, Note_on_c, 1, 41, 110
3, 206780, Note_off_c, 1, 41, 100
3, 206784, Note_on_c, 1, 39, 110
3, 206876, Note_off_c, 1, 39, 100
3, 206880, Note_on_c, 1, 38, 110
3, 206968, Control_c, 1, 64, 0
3, 206972, Note_off_c, 1, 38, 100
3, 206976, Control_c, 1, 64, 127
3, 206976, Note_on_c, 1, 37, 110
3, 207068, Note_off_c, 1, 37, 100
3, 207072, Note_on_c, 1, 38, 110
3, 207164, Note_off_c, 1, 38, 100
3, 207168, Note_on_c, 1, 40, 110
3, 207260, Note_off_c, 1, 40, 100
3, 207264, Note_on_c, 1, 38, 110
3, 207352, Control_c, 1, 64, 0
3, 207356, Note_off_c, 1, 38, 100
3, 207360, Control_c, 1, 64, 127
3, 207360, Note_on_c, 1, 37, 110
3, 207452, Note_off_c, 1, 37, 100
3, 207456, Note_on_c, 1, 43, 110
3, 207548, Note_off_c, 1, 43, 100
3, 207552, Note_on_c, 1, 40, 110
3, 207644, Note_off_c, 1, 40, 100
3, 207648, Note_on_c, 1, 37, 110
3, 207736, Control_c, 1, 64, 0
3, 207740, Note_off_c, 1, 37, 100
3, 207744, Control_c, 1, 64, 127
3, 207744, Note_on_c, 1, 38, 110
3, 207836, Note_off_c, 1, 38, 100
3, 207840, Note_on_c, 1, 42, 110
3, 207932, Note_off_c, 1, 42, 100
3, 207936, Note_on_c, 1, 45, 110
3, 208028, Note_off_c, 1, 45, 100
3, 208032, Note_on_c, 1, 42, 110
3, 208120, Control_c, 1, 64, 0
3, 208124, Note_off_c, 1, 42, 100
3, 208128, Control_c, 1, 64, 127
3, 208128, Note_on_c, 1, 46, 110
3, 208220, Note_off_c, 1, 46, 100
3, 208224, Note_on_c, 1, 43, 110
3, 208316, Note_off_c, 1, 43, 100
3, 208320, Note_on_c, 1, 39, 110
3, 208412, Note_off_c, 1, 39, 100
3, 208416, Note_on_c, 1, 37, 110
3, 208504, Control_c, 1, 64, 0
3, 208508, Note_off_c, 1, 37, 100
3, 208512, Control_c, 1, 64, 127
3, 208512, Note_on_c, 1, 38, 110
3, 208604, Note_off_c, 1, 38, 100
3, 208608, Note_on_c, 1, 42, 110
3, 208700, Note_off_c, 1, 42, 100
3, 208704, Note_on_c, 1, 45, 110
3, 208796, Note_off_c, 1, 45, 100
3, 208800, Note_on_c, 1, 42, 110
3, 208888, Control_c, 1, 64, 0
3, 208892, Note_off_c, 1, 42, 100
3, 208896, Control_c, 1, 64, 127
3, 208896, Note_on_c, 1, 46, 110
3, 208988, Note_off_c, 1, 46, 100
3, 208992, Note_on_c, 1, 43, 110
3, 209084, Note_off_c, 1, 43, 100
3, 209088, Note_on_c, 1, 39, 110
3, 209180, Note_off_c, 1, 39, 100
3, 209184, Note_on_c, 1, 37, 110
3, 209272, Control_c, 1, 64, 0
3, 209276, Note_off_c, 1, 37, 100
3, 209280, Control_c, 1, 64, 127
3, 209280, Note_on_c, 1, 38, 110
3, 209372, Note_off_c, 1, 38, 100
3, 209376, Note_on_c, 1, 42, 110
3, 209468, Note_off_c, 1, 42, 100
3, 209472, Note_on_c, 1, 45, 110
3, 209564, Note_off_c, 1, 45, 100
3, 209568, Note_on_c, 1, 42, 110
3, 209656, Control_c, 1, 64, 0
3, 209660, Note_off_c, 1, 42, 100
3, 209664, Control_c, 1, 64, 127
3, 209664, Note_on_c, 1, 46, 110
3, 209756, Note_off_c, 1, 46, 100
3, 209760, Note_on_c, 1, 43, 110
3, 209852, Note_off_c, 1, 43, 100
3, 209856, Note_on_c, 1, 39, 110
3, 209948, Note_off_c, 1, 39, 100
3, 209952, Note_on_c, 1, 37, 110
3, 210040, Control_c, 1, 64, 0
3, 210044, Note_off_c, 1, 37, 100
3, 210048, Control_c, 1, 64, 127
3, 210048, Note_on_c, 1, 38, 110
3, 210140, Note_off_c, 1, 38, 100
3, 210144, Note_on_c, 1, 42, 110
3, 210236, Note_off_c, 1, 42, 100
3, 210240, Note_on_c, 1, 45, 110
3, 210332, Note_off_c, 1, 45, 100
3, 210336, Note_on_c, 1, 42, 110
3, 210424, Control_c, 1, 64, 0
3, 210428, Note_off_c, 1, 42, 100
3, 210432, Control_c, 1, 64, 127
3, 210432, Note_on_c, 1, 46, 110
3, 210524, Note_off_c, 1, 46, 100
3, 210528, Note_on_c, 1, 43, 110
3, 210620, Note_off_c, 1, 43, 100
3, 210624, Note_on_c, 1, 39, 110
3, 210716, Note_off_c, 1, 39, 100
3, 210720, Note_on_c, 1, 37, 110
3, 210808, Control_c, 1, 64, 0
3, 210812, Note_off_c, 1, 37, 100
3, 210816, Control_c, 1, 64, 127
3, 210816, Note_on_c, 1, 38, 110
3, 210908, Note_off_c, 1, 38, 100
3, 210912, Note_on_c, 1, 38, 110
3, 211004, Note_off_c, 1, 38, 100
3, 211008, Note_on_c, 1, 42, 110
3, 211100, Note_off_c, 1, 42, 100
3, 211104, Note_on_c, 1, 45, 110
3, 211192, Control_c, 1, 64, 0
3, 211196, Note_off_c, 1, 45, 100
3, 211200, Control_c, 1, 64, 127
3, 211200, Note_on_c, 1, 50, 110
3, 211292, Note_off_c, 1, 50, 100
3, 211296, Note_on_c, 1, 50, 110
3, 211388, Note_off_c, 1, 50, 100
3, 211392, Note_on_c, 1, 54, 110
3, 211484, Note_off_c, 1, 54, 100
3, 211488, Note_on_c, 1, 57, 110
3, 211576, Control_c, 1, 64, 0
3, 211580, Note_off_c, 1, 57, 100
3, 211584, Control_c, 1, 64, 127
3, 211584, Note_on_c, 1, 62, 110
3, 211676, Note_off_c, 1, 62, 100
3, 211680, Note_on_c, 1, 62, 110
3, 211772, Note_off_c, 1, 62, 100
3, 211776, Note_on_c, 1, 66, 110
3, 211868, Note_off_c, 1, 66, 100
3, 211872, Note_on_c, 1, 69, 110
3, 211960, Control_c, 1, 64, 0
3, 211964, Note_off_c, 1, 69, 100
3, 211968, Control_c, 1, 64, 127
3, 211968, Note_on_c, 1, 74, 110
3, 212060, Note_off_c, 1, 74, 100
3, 212064, Note_on_c, 1, 74, 110
3, 212156, Note_off_c, 1, 74, 100
3, 212160, Note_on_c, 1, 69, 110
3, 212252, Note_off_c, 1, 69, 100
3, 212256, Note_on_c, 1, 66, 110
3, 212344, Control_c, 1, 64, 0
3, 212348, Note_off_c, 1, 66, 100
3, 212352, Note_on_c, 1, 62, 110
3, 212444, Note_off_c, 1, 62, 100
3, 212448, Note_on_c, 1, 62, 110
3, 212540, Note_off_c, 1, 62, 100
3, 212544, Note_on_c, 1, 57, 110
3, 212636, Note_off_c, 1, 57, 100
3, 212640, Note_on_c, 1, 54, 110
3, 212732, Note_off_c, 1, 54, 100
3, 212736, Note_on_c, 1, 50, 110
3, 212828, Note_off_c, 1, 50, 100
3, 212832, Note_on_c, 1, 50, 110
3, 212924, Note_off_c, 1, 50, 100
3, 212928, Note_on_c, 1, 45, 110
3, 213020, Note_off_c, 1, 45, 100
3, 213024, Note_on_c, 1, 42, 110
3, 213116, Note_off_c, 1, 42, 100
3, 213120, Control_c, 1, 64, 127
3, 213120, Note_on_c, 1, 38, 110
3, 213212, Note_off_c, 1, 38, 100
3, 213216, Note_on_c, 1, 38, 110
3, 213308, Note_off_c, 1, 38, 100
3, 213312, Note_on_c, 1, 42, 110
3, 213404, Note_off_c, 1, 42, 100
3, 213408, Note_on_c, 1, 45, 110
3, 213496, Control_c, 1, 64, 0
3, 213500, Note_off_c, 1, 45, 100
3, 213504, Control_c, 1, 64, 127
3, 213504, Note_on_c, 1, 48, 110
3, 213596, Note_off_c, 1, 48, 100
3, 213600, Note_on_c, 1, 50, 110
3, 213692, Note_off_c, 1, 50, 100
3, 213696, Note_on_c, 1, 54, 110
3, 213788, Note_off_c, 1, 54, 100
3, 213792, Note_on_c, 1, 57, 110
3, 213880, Control_c, 1, 64, 0
3, 213884, Note_off_c, 1, 57, 100
3, 213888, Control_c, 1, 64, 127
3, 213888, Note_on_c, 1, 60, 110
3, 213980, Note_off_c, 1, 60, 100
3, 213984, Note_on_c, 1, 62, 110
3, 214076, Note_off_c, 1, 62, 100
3, 214080, Note_on_c, 1, 66, 110
3, 214172, Note_off_c, 1, 66, 100
3, 214176, Note_on_c, 1, 69, 110
3, 214264, Control_c, 1, 64, 0
3, 214268, Note_off_c, 1, 69, 100
3, 214272, Control_c, 1, 64, 127
3, 214272, Note_on_c, 1, 72, 110
3, 214364, Note_off_c, 1, 72, 100
3, 214368, Note_on_c, 1, 72, 110
3, 214460, Note_off_c, 1, 72, 100
3, 214464, Note_on_c, 1, 69, 110
3, 214556, Note_off_c, 1, 69, 100
3, 214560, Note_on_c, 1, 66, 110
3, 214648, Control_c, 1, 64, 0
3, 214652, Note_off_c, 1, 66, 100
3, 214656, Control_c, 1, 64, 127
3, 214656, Note_on_c, 1, 62, 110
3, 214748, Note_off_c, 1, 62, 100
3, 214752, Note_on_c, 1, 60, 110
3, 214844, Note_off_c, 1, 60, 100
3, 214848, Note_on_c, 1, 57, 110
3, 214940, Note_off_c, 1, 57, 100
3, 214944, Note_on_c, 1, 54, 110
3, 215032, Control_c, 1, 64, 0
3, 215036, Note_off_c, 1, 54, 100
3, 215040, Control_c, 1, 64, 127
3, 215040, Note_on_c, 1, 50, 110
3, 215132, Note_off_c, 1, 50, 100
3, 215136, Note_on_c, 1, 48, 110
3, 215228, Note_off_c, 1, 48, 100
3, 215232, Note_on_c, 1, 45, 110
3, 215324, Note_off_c, 1, 45, 100
3, 215328, Note_on_c, 1, 42, 110
3, 215416, Control_c, 1, 64, 0
3, 215420, Note_off_c, 1, 42, 100
3, 215424, Control_c, 1, 64, 127
3, 215424, Note_on_c, 1, 38, 110
3, 215516, Note_off_c, 1, 38, 100
3, 215520, Note_on_c, 1, 38, 110
3, 215612, Note_off_c, 1, 38, 100
3, 215616, Note_on_c, 1, 42, 110
3, 215708, Note_off_c, 1, 42, 100
3, 215712, Note_on_c, 1, 45, 110
3, 215800, Control_c, 1, 64, 0
3, 215804, Note_off_c, 1, 45, 100
3, 215808, Control_c, 1, 64, 127
3, 215808, Note_on_c, 1, 48, 110
3, 215900, Note_off_c, 1, 48, 100
3, 215904, Note_on_c, 1, 48, 110
3, 215996, Note_off_c, 1, 48, 100
3, 216000, Note_on_c, 1, 45, 110
3, 216092, Note_off_c, 1, 45, 100
3, 216096, Note_on_c, 1, 42, 110
3, 216184, Control_c, 1, 64, 0
3, 216188, Note_off_c, 1, 42, 100
3, 216192, Note_on_c, 1, 38, 110
3, 216572, Note_off_c, 1, 38, 100
3, 216576, Note_on_c, 1, 54, 80
3, 216956, Note_off_c, 1, 54, 100
3, 216960, Note_on_c, 1, 57, 80
3, 217340, Note_off_c, 1, 57, 100
3, 217344, Note_on_c, 1, 60, 80
3, 217724, Note_off_c, 1, 60, 100
3, 217728, Note_on_c, 1, 66, 80
3, 218108, Note_off_c, 1, 66, 100
3, 218112, Note_on_c, 1, 69, 80
3, 218492, Note_off_c, 1, 69, 100
3, 218496, Note_on_c, 1, 72, 80
3, 218876, Note_off_c, 1, 72, 100
3, 218880, Note_on_c, 1, 78, 80
3, 219260, Note_off_c, 1, 78, 100
3, 219264, Note_on_c, 1, 38, 110
3, 219644, Note_off_c, 1, 38, 100
3, 219648, Note_on_c, 1, 57, 80
3, 219648, Note_on_c, 1, 54, 80
3, 220028, Note_off_c, 1, 57, 100
3, 220028, Note_off_c, 1, 54, 100
3, 220032, Note_on_c, 1, 60, 80
3, 220032, Note_on_c, 1, 57, 80
3, 220412, Note_off_c, 1, 60, 100
3, 220412, Note_off_c, 1, 57, 100
3, 220416, Note_on_c, 1, 60, 80
3, 220416, Note_on_c, 1, 66, 80
3, 220796, Note_off_c, 1, 60, 100
3, 220796, Note_off_c, 1, 66, 100
3, 220800, Note_on_c, 1, 66, 80
3, 220800, Note_on_c, 1, 69, 80
3, 221180, Note_off_c, 1, 66, 100
3, 221180, Note_off_c, 1, 69, 100
3, 221184, Note_on_c, 1, 72, 80
3, 221184, Note_on_c, 1, 69, 80
3, 221564, Note_off_c, 1, 72, 100
3, 221564, Note_off_c, 1, 69, 100
3, 221568, Note_on_c, 1, 78, 80
3, 221568, Note_on_c, 1, 72, 80
3, 221948, Note_off_c, 1, 78, 100
3, 221948, Note_off_c, 1, 72, 100
3, 221952, Note_on_c, 1, 81, 80
3, 221952, Note_on_c, 1, 78, 80
3, 222332, Note_off_c, 1, 81, 100
3, 222332, Note_off_c, 1, 78, 100
3, 222336, Note_on_c, 1, 38, 110
3, 222716, Note_off_c, 1, 38, 100
3, 222720, Note_on_c, 1, 60, 80
3, 222720, Note_on_c, 1, 57, 80
3, 223100, Note_off_c, 1, 60, 100
3, 223100, Note_off_c, 1, 57, 100
3, 223104, Note_on_c, 1, 66, 80
3, 223104, Note_on_c, 1, 60, 80
3, 223484, Note_off_c, 1, 66, 100
3, 223484, Note_off_c, 1, 60, 100
3, 223488, Note_on_c, 1, 69, 80
3, 223488, Note_on_c, 1, 66, 80
3, 223868, Note_off_c, 1, 69, 100
3, 223868, Note_off_c, 1, 66, 100
3, 223872, Note_on_c, 1, 72, 80
3, 223872, Note_on_c, 1, 69, 80
3, 224252, Note_off_c, 1, 72, 100
3, 224252, Note_off_c, 1, 69, 100
3, 224256, Note_on_c, 1, 78, 80
3, 224256, Note_on_c, 1, 72, 80
3, 224636, Note_off_c, 1, 78, 100
3, 224636, Note_off_c, 1, 72, 100
3, 224640, Note_on_c, 1, 81, 80
3, 224640, Note_on_c, 1, 78, 80
3, 225020, Note_off_c, 1, 81, 100
3, 225020, Note_off_c, 1, 78, 100
3, 225024, Note_on_c, 1, 84, 80
3, 225024, Note_on_c, 1, 81, 80
3, 225404, Note_off_c, 1, 84, 100
3, 225404, Note_off_c, 1, 81, 100
3, 225408, Note_on_c, 1, 87, 80
3, 225408, Note_on_c, 1, 84, 80
3, 225788, Note_off_c, 1, 87, 100
3, 225788, Note_off_c, 1, 84, 100
3, 226176, Note_on_c, 1, 38, 80
3, 226556, Note_off_c, 1, 38, 100
3, 226944, Note_on_c, 1, 87, 80
3, 226944, Note_on_c, 1, 84, 80
3, 227324, Note_off_c, 1, 87, 100
3, 227324, Note_off_c, 1, 84, 100
3, 227712, Note_on_c, 1, 38, 80
3, 228092, Note_off_c, 1, 38, 100
3, 228480, Note_on_c, 1, 84, 80
3, 228480, Note_on_c, 1, 87, 80
3, 228860, Note_off_c, 1, 84, 100
3, 228860, Note_off_c, 1, 87, 100
3, 229248, Note_on_c, 1, 38, 80
3, 229628, Note_off_c, 1, 38, 100
3, 230016, Note_on_c, 1, 38, 80
3, 230396, Note_off_c, 1, 38, 100
3, 231552, Note_on_c, 1, 51, 70
3, 231932, Note_off_c, 1, 51, 100
3, 233088, Note_on_c, 1, 38, 70
3, 233468, Note_off_c, 1, 38, 100
3, 234624, Note_on_c, 1, 43, 120
3, 234624, Note_on_c, 1, 31, 120
3, 235004, Note_off_c, 1, 43, 100
3, 235004, Note_off_c, 1, 31, 100
3, 236928, Note_on_c, 1, 55, 80
3, 236928, Note_on_c, 1, 43, 80
3, 237116, Note_off_c, 1, 55, 100
3, 237116, Note_off_c, 1, 43, 100
3, 237312, Note_on_c, 1, 55, 80
3, 237312, Note_on_c, 1, 43, 80
3, 237500, Note_off_c, 1, 55, 100
3, 237500, Note_off_c, 1, 43, 100
3, 237696, Note_on_c, 1, 55, 80
3, 237696, Note_on_c, 1, 43, 80
3, 237884, Note_off_c, 1, 55, 100
3, 237884, Note_off_c, 1, 43, 100
3, 238464, Note_on_c, 1, 55, 80
3, 238464, Note_on_c, 1, 43, 80
3, 238652, Note_off_c, 1, 55, 100
3, 238652, Note_off_c, 1, 43, 100
3, 238848, Note_on_c, 1, 55, 80
3, 238848, Note_on_c, 1, 43, 80
3, 239036, Note_off_c, 1, 55, 100
3, 239036, Note_off_c, 1, 43, 100
3, 239232, Note_on_c, 1, 55, 80
3, 239232, Note_on_c, 1, 43, 80
3, 239420, Note_off_c, 1, 55, 100
3, 239420, Note_off_c, 1, 43, 100
3, 240000, Note_on_c, 1, 55, 110
3, 240000, Note_on_c, 1, 43, 110
3, 240188, Note_off_c, 1, 55, 100
3, 240188, Note_off_c, 1, 43, 100
3, 240384, Note_on_c, 1, 52, 110
3, 240384, Note_on_c, 1, 40, 110
3, 240572, Note_off_c, 1, 52, 100
3, 240572, Note_off_c, 1, 40, 100
3, 240768, Note_on_c, 1, 57, 110
3, 240768, Note_on_c, 1, 45, 110
3, 240956, Note_off_c, 1, 57, 100
3, 240956, Note_off_c, 1, 45, 100
3, 241536, Note_on_c, 1, 57, 80
3, 241536, Note_on_c, 1, 45, 80
3, 241724, Note_off_c, 1, 57, 100
3, 241724, Note_off_c, 1, 45, 100
3, 241920, Note_on_c, 1, 45, 80
3, 241920, Note_on_c, 1, 33, 80
3, 242108, Note_off_c, 1, 45, 100
3, 242108, Note_off_c, 1, 33, 100
3, 242304, Note_on_c, 1, 50, 80
3, 242304, Note_on_c, 1, 38, 80
3, 242492, Note_off_c, 1, 50, 100
3, 242492, Note_off_c, 1, 38, 100
3, 243072, Note_on_c, 1, 60, 110
3, 243072, Note_on_c, 1, 48, 110
3, 243260, Note_off_c, 1, 60, 100
3, 243260, Note_off_c, 1, 48, 100
3, 243456, Note_on_c, 1, 57, 110
3, 243456, Note_on_c, 1, 45, 110
3, 243644, Note_off_c, 1, 57, 100
3, 243644, Note_off_c, 1, 45, 100
3, 243840, Note_on_c, 1, 62, 110
3, 243840, Note_on_c, 1, 50, 110
3, 244028, Note_off_c, 1, 62, 100
3, 244028, Note_off_c, 1, 50, 100
3, 244608, Note_on_c, 1, 62, 80
3, 244608, Note_on_c, 1, 50, 80
3, 244796, Note_off_c, 1, 62, 100
3, 244796, Note_off_c, 1, 50, 100
3, 244992, Note_on_c, 1, 50, 80
3, 244992, Note_on_c, 1, 38, 80
3, 245180, Note_off_c, 1, 50, 100
3, 245180, Note_off_c, 1, 38, 100
3, 245376, Note_on_c, 1, 55, 80
3, 245376, Note_on_c, 1, 43, 80
3, 245564, Note_off_c, 1, 55, 100
3, 245564, Note_off_c, 1, 43, 100
3, 246144, Note_on_c, 1, 60, 110
3, 246144, Note_on_c, 1, 48, 110
3, 246332, Note_off_c, 1, 60, 100
3, 246332, Note_off_c, 1, 48, 100
3, 246528, Note_on_c, 1, 57, 110
3, 246528, Note_on_c, 1, 45, 110
3, 246716, Note_off_c, 1, 57, 100
3, 246716, Note_off_c, 1, 45, 100
3, 246912, Note_on_c, 1, 59, 110
3, 246912, Note_on_c, 1, 47, 110
3, 247100, Note_off_c, 1, 59, 100
3, 247100, Note_off_c, 1, 47, 100
3, 247680, Note_on_c, 1, 72, 80
3, 247868, Note_off_c, 1, 72, 100
3, 248064, Note_on_c, 1, 72, 80
3, 248252, Note_off_c, 1, 72, 100
3, 248448, Note_on_c, 1, 71, 80
3, 248636, Note_off_c, 1, 71, 100
3, 249216, Note_on_c, 1, 60, 80
3, 249404, Note_off_c, 1, 60, 100
3, 249600, Note_on_c, 1, 60, 80
3, 249788, Note_off_c, 1, 60, 100
3, 249984, Note_on_c, 1, 59, 80
3, 250172, Note_off_c, 1, 59, 100
3, 250752, Note_on_c, 1, 48, 80
3, 250752, Note_on_c, 1, 36, 80
3, 250940, Note_off_c, 1, 48, 100
3, 250940, Note_off_c, 1, 36, 100
3, 251136, Note_on_c, 1, 48, 80
3, 251136, Note_on_c, 1, 36, 80
3, 251324, Note_off_c, 1, 48, 100
3, 251324, Note_off_c, 1, 36, 100
3, 251520, Note_on_c, 1, 47, 80
3, 251520, Note_on_c, 1, 35, 80
3, 251708, Note_off_c, 1, 47, 100
3, 251708, Note_off_c, 1, 35, 100
3, 253056, Note_on_c, 1, 52, 80
3, 253244, Note_off_c, 1, 52, 100
3, 253248, Note_on_c, 1, 59, 80
3, 253248, Note_on_c, 1, 64, 80
3, 253248, Note_on_c, 1, 68, 80
3, 253436, Note_off_c, 1, 59, 100
3, 253436, Note_off_c, 1, 64, 100
3, 253436, Note_off_c, 1, 68, 100
3, 253440, Note_on_c, 1, 68, 80
3, 253440, Note_on_c, 1, 64, 80
3, 253440, Note_on_c, 1, 59, 80
3, 253628, Note_off_c, 1, 68, 100
3, 253628, Note_off_c, 1, 64, 100
3, 253628, Note_off_c, 1, 59, 100
3, 253632, Note_on_c, 1, 68, 80
3, 253632, Note_on_c, 1, 64, 80
3, 253632, Note_on_c, 1, 59, 80
3, 253820, Note_off_c, 1, 68, 100
3, 253820, Note_off_c, 1, 64, 100
3, 253820, Note_off_c, 1, 59, 100
3, 253824, Note_on_c, 1, 52, 80
3, 254012, Note_off_c, 1, 52, 100
3, 254016, Note_on_c, 1, 59, 80
3, 254016, Note_on_c, 1, 64, 80
3, 254016, Note_on_c, 1, 68, 80
3, 254204, Note_off_c, 1, 59, 100
3, 254204, Note_off_c, 1, 64, 100
3, 254204, Note_off_c, 1, 68, 100
3, 254208, Note_on_c, 1, 68, 80
3, 254208, Note_on_c, 1, 64, 80
3, 254208, Note_on_c, 1, 59, 80
3, 254396, Note_off_c, 1, 68, 100
3, 254396, Note_off_c, 1, 64, 100
3, 254396, Note_off_c, 1, 59, 100
3, 254400, Note_on_c, 1, 68, 80
3, 254400, Note_on_c, 1, 64, 80
3, 254400, Note_on_c, 1, 59, 80
3, 254588, Note_off_c, 1, 68, 100
3, 254588, Note_off_c, 1, 64, 100
3, 254588, Note_off_c, 1, 59, 100
3, 254592, Note_on_c, 1, 47, 80
3, 254780, Note_off_c, 1, 47, 100
3, 254784, Note_on_c, 1, 59, 80
3, 254784, Note_on_c, 1, 66, 80
3, 254784, Note_on_c, 1, 69, 80
3, 254972, Note_off_c, 1, 59, 100
3, 254972, Note_off_c, 1, 66, 100
3, 254972, Note_off_c, 1, 69, 100
3, 254976, Note_on_c, 1, 59, 80
3, 254976, Note_on_c, 1, 66, 80
3, 254976, Note_on_c, 1, 69, 80
3, 255164, Note_off_c, 1, 59, 100
3, 255164, Note_off_c, 1, 66, 100
3, 255164, Note_off_c, 1, 69, 100
3, 255168, Note_on_c, 1, 59, 80
3, 255168, Note_on_c, 1, 66, 80
3, 255168, Note_on_c, 1, 69, 80
3, 255356, Note_off_c, 1, 59, 100
3, 255356, Note_off_c, 1, 66, 100
3, 255356, Note_off_c, 1, 69, 100
3, 255360, Note_on_c, 1, 51, 80
3, 255548, Note_off_c, 1, 51, 100
3, 255552, Note_on_c, 1, 59, 80
3, 255552, Note_on_c, 1, 66, 80
3, 255552, Note_on_c, 1, 69, 80
3, 255740, Note_off_c, 1, 59, 100
3, 255740, Note_off_c, 1, 66, 100
3, 255740, Note_off_c, 1, 69, 100
3, 255744, Note_on_c, 1, 47, 80
3, 255932, Note_off_c, 1, 47, 100
3, 255936, Note_on_c, 1, 59, 80
3, 255936, Note_on_c, 1, 66, 80
3, 255936, Note_on_c, 1, 69, 80
3, 256124, Note_off_c, 1, 59, 100
3, 256124, Note_off_c, 1, 66, 100
3, 256124, Note_off_c, 1, 69, 100
3, 256128, Note_on_c, 1, 52, 80
3, 256316, Note_off_c, 1, 52, 100
3, 256320, Note_on_c, 1, 59, 80
3, 256320, Note_on_c, 1, 64, 80
3, 256320, Note_on_c, 1, 68, 80
3, 256508, Note_off_c, 1, 59, 100
3, 256508, Note_off_c, 1, 64, 100
3, 256508, Note_off_c, 1, 68, 100
3, 256512, Note_on_c, 1, 68, 80
3, 256512, Note_on_c, 1, 64, 80
3, 256512, Note_on_c, 1, 59, 80
3, 256700, Note_off_c, 1, 68, 100
3, 256700, Note_off_c, 1, 64, 100
3, 256700, Note_off_c, 1, 59, 100
3, 256704, Note_on_c, 1, 68, 80
3, 256704, Note_on_c, 1, 64, 80
3, 256704, Note_on_c, 1, 59, 80
3, 256892, Note_off_c, 1, 68, 100
3, 256892, Note_off_c, 1, 64, 100
3, 256892, Note_off_c, 1, 59, 100
3, 256896, Note_on_c, 1, 52, 80
3, 257084, Note_off_c, 1, 52, 100
3, 257088, Note_on_c, 1, 59, 80
3, 257088, Note_on_c, 1, 64, 80
3, 257088, Note_on_c, 1, 68, 80
3, 257276, Note_off_c, 1, 59, 100
3, 257276, Note_off_c, 1, 64, 100
3, 257276, Note_off_c, 1, 68, 100
3, 257280, Note_on_c, 1, 68, 80
3, 257280, Note_on_c, 1, 64, 80
3, 257280, Note_on_c, 1, 59, 80
3, 257468, Note_off_c, 1, 68, 100
3, 257468, Note_off_c, 1, 64, 100
3, 257468, Note_off_c, 1, 59, 100
3, 257472, Note_on_c, 1, 68, 80
3, 257472, Note_on_c, 1, 64, 80
3, 257472, Note_on_c, 1, 59, 80
3, 257660, Note_off_c, 1, 68, 100
3, 257660, Note_off_c, 1, 64, 100
3, 257660, Note_off_c, 1, 59, 100
3, 257664, Note_on_c, 1, 47, 80
3, 257852, Note_off_c, 1, 47, 100
3, 257856, Note_on_c, 1, 59, 80
3, 257856, Note_on_c, 1, 66, 80
3, 257856, Note_on_c, 1, 69, 80
3, 258044, Note_off_c, 1, 59, 100
3, 258044, Note_off_c, 1, 66, 100
3, 258044, Note_off_c, 1, 69, 100
3, 258048, Note_on_c, 1, 59, 80
3, 258048, Note_on_c, 1, 66, 80
3, 258048, Note_on_c, 1, 69, 80
3, 258236, Note_off_c, 1, 59, 100
3, 258236, Note_off_c, 1, 66, 100
3, 258236, Note_off_c, 1, 69, 100
3, 258240, Note_on_c, 1, 59, 80
3, 258240, Note_on_c, 1, 66, 80
3, 258240, Note_on_c, 1, 69, 80
3, 258428, Note_off_c, 1, 59, 100
3, 258428, Note_off_c, 1, 66, 100
3, 258428, Note_off_c, 1, 69, 100
3, 258432, Note_on_c, 1, 52, 80
3, 258524, Note_off_c, 1, 52, 100
3, 258528, Note_on_c, 1, 64, 80
3, 258620, Note_off_c, 1, 64, 100
3, 258624, Note_on_c, 1, 62, 80
3, 258716, Note_off_c, 1, 62, 100
3, 258720, Note_on_c, 1, 60, 80
3, 258812, Note_off_c, 1, 60, 100
3, 258816, Note_on_c, 1, 59, 80
3, 258908, Note_off_c, 1, 59, 100
3, 258912, Note_on_c, 1, 57, 80
3, 259004, Note_off_c, 1, 57, 100
3, 259008, Note_on_c, 1, 55, 80
3, 259100, Note_off_c, 1, 55, 100
3, 259104, Note_on_c, 1, 54, 80
3, 259196, Note_off_c, 1, 54, 100
3, 259200, Note_on_c, 1, 52, 110
3, 259388, Note_off_c, 1, 52, 100
3, 259392, Note_on_c, 1, 55, 110
3, 259772, Note_off_c, 1, 55, 100
3, 259776, Note_on_c, 1, 54, 110
3, 259964, Note_off_c, 1, 54, 100
3, 259968, Note_on_c, 1, 52, 110
3, 260156, Note_off_c, 1, 52, 100
3, 260160, Note_on_c, 1, 55, 110
3, 260540, Note_off_c, 1, 55, 100
3, 260544, Note_on_c, 1, 52, 110
3, 260732, Note_off_c, 1, 52, 100
3, 260736, Note_on_c, 1, 51, 110
3, 260924, Note_off_c, 1, 51, 100
3, 260928, Note_on_c, 1, 59, 110
3, 261308, Note_off_c, 1, 59, 100
3, 261312, Note_on_c, 1, 59, 110
3, 261692, Note_off_c, 1, 59, 64
3, 261696, Note_on_c, 1, 60, 110
3, 261788, Note_off_c, 1, 60, 100
3, 261792, Note_on_c, 1, 59, 110
3, 261884, Note_off_c, 1, 59, 100
3, 261888, Note_on_c, 1, 57, 110
3, 261980, Note_off_c, 1, 57, 100
3, 261984, Note_on_c, 1, 55, 110
3, 262076, Note_off_c, 1, 55, 100
3, 262080, Note_on_c, 1, 57, 110
3, 262172, Note_off_c, 1, 57, 100
3, 262176, Note_on_c, 1, 54, 110
3, 262268, Note_off_c, 1, 54, 100
3, 262272, Note_on_c, 1, 52, 110
3, 262460, Note_off_c, 1, 52, 100
3, 262464, Note_on_c, 1, 55, 111
3, 262844, Note_off_c, 1, 55, 100
3, 262848, Note_on_c, 1, 54, 113
3, 263036, Note_off_c, 1, 54, 100
3, 263040, Note_on_c, 1, 52, 114
3, 263228, Note_off_c, 1, 52, 100
3, 263232, Note_on_c, 1, 55, 115
3, 263612, Note_off_c, 1, 55, 100
3, 263616, Note_on_c, 1, 55, 117
3, 263804, Note_off_c, 1, 55, 100
3, 263808, Note_on_c, 1, 54, 118
3, 263900, Note_off_c, 1, 54, 100
3, 263904, Note_on_c, 1, 57, 118
3, 263996, Note_off_c, 1, 57, 100
3, 264000, Note_on_c, 1, 55, 119
3, 264092, Note_off_c, 1, 55, 100
3, 264096, Note_on_c, 1, 59, 120
3, 264188, Note_off_c, 1, 59, 100
3, 264192, Note_on_c, 1, 57, 120
3, 264284, Note_off_c, 1, 57, 100
3, 264288, Note_on_c, 1, 60, 120
3, 264380, Note_off_c, 1, 60, 100
3, 264384, Note_on_c, 1, 59, 120
3, 264476, Note_off_c, 1, 59, 100
3, 264480, Note_on_c, 1, 62, 120
3, 264572, Note_off_c, 1, 62, 100
3, 264576, Note_on_c, 1, 60, 120
3, 264668, Note_off_c, 1, 60, 100
3, 264672, Note_on_c, 1, 59, 120
3, 264764, Note_off_c, 1, 59, 100
3, 264768, Note_on_c, 1, 57, 120
3, 264860, Note_off_c, 1, 57, 100
3, 264864, Note_on_c, 1, 55, 120
3, 264956, Note_off_c, 1, 55, 100
3, 264960, Note_on_c, 1, 54, 120
3, 265052, Note_off_c, 1, 54, 100
3, 265056, Note_on_c, 1, 52, 120
3, 265148, Note_off_c, 1, 52, 100
3, 265152, Note_on_c, 1, 50, 120
3, 265244, Note_off_c, 1, 50, 100
3, 265248, Note_on_c, 1, 48, 120
3, 265340, Note_off_c, 1, 48, 100
3, 265344, Note_on_c, 1, 47, 120
3, 265532, Note_off_c, 1, 47, 100
3, 265536, Note_on_c, 1, 62, 80
3, 265536, Note_on_c, 1, 59, 80
3, 265536, Note_on_c, 1, 55, 80
3, 265724, Note_off_c, 1, 62, 100
3, 265724, Note_off_c, 1, 59, 100
3, 265724, Note_off_c, 1, 55, 100
3, 265728, Note_on_c, 1, 43, 80
3, 265916, Note_off_c, 1, 43, 100
3, 265920, Note_on_c, 1, 62, 80
3, 265920, Note_on_c, 1, 59, 80
3, 265920, Note_on_c, 1, 55, 80
3, 266108, Note_off_c, 1, 62, 100
3, 266108, Note_off_c, 1, 59, 100
3, 266108, Note_off_c, 1, 55, 100
3, 266112, Note_on_c, 1, 43, 80
3, 266300, Note_off_c, 1, 43, 100
3, 266304, Note_on_c, 1, 62, 80
3, 266304, Note_on_c, 1, 59, 80
3, 266304, Note_on_c, 1, 55, 80
3, 266492, Note_off_c, 1, 62, 100
3, 266492, Note_off_c, 1, 59, 100
3, 266492, Note_off_c, 1, 55, 100
3, 266496, Note_on_c, 1, 62, 80
3, 266496, Note_on_c, 1, 59, 80
3, 266496, Note_on_c, 1, 55, 80
3, 266684, Note_off_c, 1, 62, 100
3, 266684, Note_off_c, 1, 59, 100
3, 266684, Note_off_c, 1, 55, 100
3, 266688, Note_on_c, 1, 62, 80
3, 266688, Note_on_c, 1, 59, 80
3, 266688, Note_on_c, 1, 55, 80
3, 266876, Note_off_c, 1, 62, 100
3, 266876, Note_off_c, 1, 59, 100
3, 266876, Note_off_c, 1, 55, 100
3, 266880, Note_on_c, 1, 50, 80
3, 267068, Note_off_c, 1, 50, 100
3, 267072, Note_on_c, 1, 57, 80
3, 267072, Note_on_c, 1, 60, 80
3, 267072, Note_on_c, 1, 62, 80
3, 267260, Note_off_c, 1, 57, 100
3, 267260, Note_off_c, 1, 60, 100
3, 267260, Note_off_c, 1, 62, 100
3, 267264, Note_on_c, 1, 57, 80
3, 267264, Note_on_c, 1, 60, 80
3, 267264, Note_on_c, 1, 62, 80
3, 267452, Note_off_c, 1, 57, 100
3, 267452, Note_off_c, 1, 60, 100
3, 267452, Note_off_c, 1, 62, 100
3, 267456, Note_on_c, 1, 57, 80
3, 267456, Note_on_c, 1, 60, 80
3, 267456, Note_on_c, 1, 62, 80
3, 267644, Note_off_c, 1, 57, 100
3, 267644, Note_off_c, 1, 60, 100
3, 267644, Note_off_c, 1, 62, 100
3, 267648, Note_on_c, 1, 54, 80
3, 267836, Note_off_c, 1, 54, 100
3, 267840, Note_on_c, 1, 57, 80
3, 267840, Note_on_c, 1, 60, 80
3, 267840, Note_on_c, 1, 62, 80
3, 268028, Note_off_c, 1, 57, 100
3, 268028, Note_off_c, 1, 60, 100
3, 268028, Note_off_c, 1, 62, 100
3, 268032, Note_on_c, 1, 50, 80
3, 268220, Note_off_c, 1, 50, 100
3, 268224, Note_on_c, 1, 57, 80
3, 268224, Note_on_c, 1, 60, 80
3, 268224, Note_on_c, 1, 62, 80
3, 268412, Note_off_c, 1, 57, 100
3, 268412, Note_off_c, 1, 60, 100
3, 268412, Note_off_c, 1, 62, 100
3, 268416, Note_on_c, 1, 55, 80
3, 268604, Note_off_c, 1, 55, 100
3, 268608, Note_on_c, 1, 62, 80
3, 268608, Note_on_c, 1, 59, 80
3, 268796, Note_off_c, 1, 62, 100
3, 268796, Note_off_c, 1, 59, 100
3, 268800, Note_on_c, 1, 43, 80
3, 268988, Note_off_c, 1, 43, 100
3, 268992, Note_on_c, 1, 55, 80
3, 268992, Note_on_c, 1, 59, 80
3, 268992, Note_on_c, 1, 62, 80
3, 269180, Note_off_c, 1, 55, 100
3, 269180, Note_off_c, 1, 59, 100
3, 269180, Note_off_c, 1, 62, 100
3, 269184, Note_on_c, 1, 43, 80
3, 269372, Note_off_c, 1, 43, 100
3, 269376, Note_on_c, 1, 55, 80
3, 269376, Note_on_c, 1, 59, 80
3, 269376, Note_on_c, 1, 62, 80
3, 269564, Note_off_c, 1, 55, 100
3, 269564, Note_off_c, 1, 59, 100
3, 269564, Note_off_c, 1, 62, 100
3, 269568, Note_on_c, 1, 55, 80
3, 269568, Note_on_c, 1, 59, 80
3, 269568, Note_on_c, 1, 62, 80
3, 269756, Note_off_c, 1, 55, 100
3, 269756, Note_off_c, 1, 59, 100
3, 269756, Note_off_c, 1, 62, 100
3, 269760, Note_on_c, 1, 55, 80
3, 269760, Note_on_c, 1, 59, 80
3, 269760, Note_on_c, 1, 62, 80
3, 269948, Note_off_c, 1, 55, 100
3, 269948, Note_off_c, 1, 59, 100
3, 269948, Note_off_c, 1, 62, 100
3, 269952, Note_on_c, 1, 50, 80
3, 270140, Note_off_c, 1, 50, 100
3, 270144, Note_on_c, 1, 57, 80
3, 270144, Note_on_c, 1, 60, 80
3, 270144, Note_on_c, 1, 62, 80
3, 270332, Note_off_c, 1, 57, 100
3, 270332, Note_off_c, 1, 60, 100
3, 270332, Note_off_c, 1, 62, 100
3, 270336, Note_on_c, 1, 57, 80
3, 270336, Note_on_c, 1, 60, 80
3, 270336, Note_on_c, 1, 62, 80
3, 270524, Note_off_c, 1, 57, 100
3, 270524, Note_off_c, 1, 60, 100
3, 270524, Note_off_c, 1, 62, 100
3, 270528, Note_on_c, 1, 57, 80
3, 270528, Note_on_c, 1, 60, 80
3, 270528, Note_on_c, 1, 62, 80
3, 270716, Note_off_c, 1, 57, 100
3, 270716, Note_off_c, 1, 60, 100
3, 270716, Note_off_c, 1, 62, 100
3, 270720, Note_on_c, 1, 42, 80
3, 270812, Note_off_c, 1, 42, 100
3, 270816, Note_on_c, 1, 55, 80
3, 270908, Note_off_c, 1, 55, 100
3, 270912, Note_on_c, 1, 54, 80
3, 271004, Note_off_c, 1, 54, 100
3, 271008, Note_on_c, 1, 52, 80
3, 271100, Note_off_c, 1, 52, 100
3, 271104, Note_on_c, 1, 50, 80
3, 271196, Note_off_c, 1, 50, 100
3, 271200, Note_on_c, 1, 48, 80
3, 271292, Note_off_c, 1, 48, 100
3, 271296, Note_on_c, 1, 47, 80
3, 271388, Note_off_c, 1, 47, 100
3, 271392, Note_on_c, 1, 45, 80
3, 271484, Note_off_c, 1, 45, 100
3, 271488, Note_on_c, 1, 43, 110
3, 271676, Note_off_c, 1, 43, 100
3, 271680, Note_on_c, 1, 47, 110
3, 272060, Note_off_c, 1, 47, 100
3, 272064, Note_on_c, 1, 45, 110
3, 272252, Note_off_c, 1, 45, 100
3, 272256, Note_on_c, 1, 43, 110
3, 272444, Note_off_c, 1, 43, 100
3, 272448, Note_on_c, 1, 47, 110
3, 272828, Note_off_c, 1, 47, 100
3, 272832, Note_on_c, 1, 43, 110
3, 273020, Note_off_c, 1, 43, 100
3, 273024, Note_on_c, 1, 42, 110
3, 273212, Note_off_c, 1, 42, 100
3, 273216, Note_on_c, 1, 50, 110
3, 273596, Note_off_c, 1, 50, 100
3, 273600, Note_on_c, 1, 50, 110
3, 273980, Note_off_c, 1, 50, 64
3, 273984, Note_on_c, 1, 52, 110
3, 274076, Note_off_c, 1, 52, 100
3, 274080, Note_on_c, 1, 50, 110
3, 274172, Note_off_c, 1, 50, 100
3, 274176, Note_on_c, 1, 48, 110
3, 274268, Note_off_c, 1, 48, 100
3, 274272, Note_on_c, 1, 47, 110
3, 274364, Note_off_c, 1, 47, 100
3, 274368, Note_on_c, 1, 48, 110
3, 274460, Note_off_c, 1, 48, 100
3, 274464, Note_on_c, 1, 45, 110
3, 274556, Note_off_c, 1, 45, 100
3, 274560, Note_on_c, 1, 43, 110
3, 274748, Note_off_c, 1, 43, 100
3, 274752, Note_on_c, 1, 47, 110
3, 275132, Note_off_c, 1, 47, 100
3, 275136, Note_on_c, 1, 47, 110
3, 275324, Note_off_c, 1, 47, 100
3, 275328, Note_on_c, 1, 46, 110
3, 275516, Note_off_c, 1, 46, 100
3, 275520, Note_on_c, 1, 49, 110
3, 275612, Note_off_c, 1, 49, 100
3, 275616, Note_on_c, 1, 47, 110
3, 275708, Note_off_c, 1, 47, 100
3, 275712, Note_on_c, 1, 46, 110
3, 275804, Note_off_c, 1, 46, 100
3, 275808, Note_on_c, 1, 47, 110
3, 275900, Note_off_c, 1, 47, 100
3, 275904, Note_on_c, 1, 49, 110
3, 275996, Note_off_c, 1, 49, 100
3, 276000, Note_on_c, 1, 46, 110
3, 276092, Note_off_c, 1, 46, 100
3, 276096, Note_on_c, 1, 47, 110
3, 276284, Note_off_c, 1, 47, 100
3, 276288, Note_on_c, 1, 50, 110
3, 276668, Note_off_c, 1, 50, 100
3, 276672, Note_on_c, 1, 50, 110
3, 276860, Note_off_c, 1, 50, 100
3, 276864, Note_on_c, 1, 49, 110
3, 277052, Note_off_c, 1, 49, 100
3, 277056, Note_on_c, 1, 52, 110
3, 277148, Note_off_c, 1, 52, 100
3, 277152, Note_on_c, 1, 50, 110
3, 277244, Note_off_c, 1, 50, 100
3, 277248, Note_on_c, 1, 49, 110
3, 277340, Note_off_c, 1, 49, 100
3, 277344, Note_on_c, 1, 50, 110
3, 277436, Note_off_c, 1, 50, 100
3, 277440, Note_on_c, 1, 52, 110
3, 277532, Note_off_c, 1, 52, 100
3, 277536, Note_on_c, 1, 49, 110
3, 277628, Note_off_c, 1, 49, 100
3, 277632, Note_on_c, 1, 50, 110
3, 277820, Note_off_c, 1, 50, 100
3, 277824, Note_on_c, 1, 53, 110
3, 278204, Note_off_c, 1, 53, 100
3, 278208, Note_on_c, 1, 53, 110
3, 278396, Note_off_c, 1, 53, 100
3, 278400, Note_on_c, 1, 53, 110
3, 278588, Note_off_c, 1, 53, 100
3, 278592, Note_on_c, 1, 43, 110
3, 278972, Note_off_c, 1, 43, 100
3, 278976, Note_on_c, 1, 52, 110
3, 279164, Note_off_c, 1, 52, 100
3, 279168, Note_on_c, 1, 52, 110
3, 279356, Note_off_c, 1, 52, 100
3, 279360, Note_on_c, 1, 42, 110
3, 279740, Note_off_c, 1, 42, 100
3, 279744, Note_on_c, 1, 50, 110
3, 279932, Note_off_c, 1, 50, 100
3, 279936, Note_on_c, 1, 50, 110
3, 280124, Note_off_c, 1, 50, 100
3, 280128, Note_on_c, 1, 40, 110
3, 280508, Note_off_c, 1, 40, 100
3, 280512, Note_on_c, 1, 48, 110
3, 280700, Note_off_c, 1, 48, 100
3, 280704, Note_on_c, 1, 48, 110
3, 280896, Note_on_c, 1, 38, 110
3, 281084, Note_off_c, 1, 38, 100
3, 281088, Note_on_c, 1, 40, 110
3, 281276, Note_off_c, 1, 48, 100
3, 281280, Note_on_c, 1, 47, 110
3, 281468, Note_off_c, 1, 40, 100
3, 281468, Note_off_c, 1, 47, 100
3, 281472, Note_on_c, 1, 36, 110
3, 281472, Note_on_c, 1, 47, 110
3, 281660, Note_off_c, 1, 47, 100
3, 281664, Note_on_c, 1, 45, 110
3, 281852, Note_off_c, 1, 36, 100
3, 281852, Note_off_c, 1, 45, 100
3, 281856, Note_on_c, 1, 38, 110
3, 281856, Note_on_c, 1, 43, 110
3, 282044, Note_off_c, 1, 43, 100
3, 282048, Note_on_c, 1, 42, 110
3, 282236, Note_off_c, 1, 38, 100
3, 282236, Note_off_c, 1, 42, 100
3, 282240, Note_on_c, 1, 43, 110
3, 282240, Note_on_c, 1, 31, 110
3, 282428, Note_off_c, 1, 43, 100
3, 282428, Note_off_c, 1, 31, 100
3, 282432, Note_on_c, 1, 55, 80
3, 282432, Note_on_c, 1, 59, 80
3, 282620, Note_off_c, 1, 55, 100
3, 282620, Note_off_c, 1, 59, 100
3, 282624, Note_on_c, 1, 59, 80
3, 282624, Note_on_c, 1, 55, 80
3, 282812, Note_off_c, 1, 59, 100
3, 282812, Note_off_c, 1, 55, 100
3, 282816, Note_on_c, 1, 59, 80
3, 282816, Note_on_c, 1, 55, 80
3, 283004, Note_off_c, 1, 59, 100
3, 283004, Note_off_c, 1, 55, 100
3, 283008, Note_on_c, 1, 42, 80
3, 283196, Note_off_c, 1, 42, 100
3, 283200, Note_on_c, 1, 61, 80
3, 283200, Note_on_c, 1, 58, 80
3, 283200, Note_on_c, 1, 54, 80
3, 283388, Note_off_c, 1, 61, 100
3, 283388, Note_off_c, 1, 58, 100
3, 283388, Note_off_c, 1, 54, 100
3, 283392, Note_on_c, 1, 61, 80
3, 283392, Note_on_c, 1, 58, 80
3, 283392, Note_on_c, 1, 54, 80
3, 283580, Note_off_c, 1, 61, 100
3, 283580, Note_off_c, 1, 58, 100
3, 283580, Note_off_c, 1, 54, 100
3, 283584, Note_on_c, 1, 61, 80
3, 283584, Note_on_c, 1, 58, 80
3, 283584, Note_on_c, 1, 54, 80
3, 283772, Note_off_c, 1, 61, 100
3, 283772, Note_off_c, 1, 58, 100
3, 283772, Note_off_c, 1, 54, 100
3, 283776, Note_on_c, 1, 47, 80
3, 283964, Note_off_c, 1, 47, 100
3, 283968, Note_on_c, 1, 59, 80
3, 283968, Note_on_c, 1, 62, 80
3, 284156, Note_off_c, 1, 59, 100
3, 284156, Note_off_c, 1, 62, 100
3, 284160, Note_on_c, 1, 59, 80
3, 284160, Note_on_c, 1, 62, 80
3, 284348, Note_off_c, 1, 59, 100
3, 284348, Note_off_c, 1, 62, 100
3, 284352, Note_on_c, 1, 59, 80
3, 284352, Note_on_c, 1, 62, 80
3, 284540, Note_off_c, 1, 59, 100
3, 284540, Note_off_c, 1, 62, 100
3, 284544, Note_on_c, 1, 45, 80
3, 284732, Note_off_c, 1, 45, 100
3, 284736, Note_on_c, 1, 57, 80
3, 284736, Note_on_c, 1, 61, 80
3, 284736, Note_on_c, 1, 64, 80
3, 284924, Note_off_c, 1, 57, 100
3, 284924, Note_off_c, 1, 61, 100
3, 284924, Note_off_c, 1, 64, 100
3, 284928, Note_on_c, 1, 57, 80
3, 284928, Note_on_c, 1, 61, 80
3, 284928, Note_on_c, 1, 64, 80
3, 285116, Note_off_c, 1, 57, 100
3, 285116, Note_off_c, 1, 61, 100
3, 285116, Note_off_c, 1, 64, 100
3, 285120, Note_on_c, 1, 57, 80
3, 285120, Note_on_c, 1, 61, 80
3, 285120, Note_on_c, 1, 64, 80
3, 285308, Note_off_c, 1, 57, 100
3, 285308, Note_off_c, 1, 61, 100
3, 285308, Note_off_c, 1, 64, 100
3, 285312, Note_on_c, 1, 50, 80
3, 285500, Note_off_c, 1, 50, 100
3, 285504, Note_on_c, 1, 62, 80
3, 285504, Note_on_c, 1, 65, 80
3, 285692, Note_off_c, 1, 62, 100
3, 285692, Note_off_c, 1, 65, 100
3, 285696, Note_on_c, 1, 62, 80
3, 285696, Note_on_c, 1, 65, 80
3, 285884, Note_off_c, 1, 62, 100
3, 285884, Note_off_c, 1, 65, 100
3, 285888, Note_on_c, 1, 62, 80
3, 285888, Note_on_c, 1, 65, 80
3, 286076, Note_off_c, 1, 62, 100
3, 286076, Note_off_c, 1, 65, 100
3, 286080, Note_on_c, 1, 47, 80
3, 286268, Note_off_c, 1, 47, 100
3, 286272, Note_on_c, 1, 59, 82
3, 286272, Note_on_c, 1, 62, 82
3, 286460, Note_off_c, 1, 59, 100
3, 286460, Note_off_c, 1, 62, 100
3, 286464, Note_on_c, 1, 48, 85
3, 286652, Note_off_c, 1, 48, 100
3, 286656, Note_on_c, 1, 60, 87
3, 286656, Note_on_c, 1, 64, 87
3, 286844, Note_off_c, 1, 60, 100
3, 286844, Note_off_c, 1, 64, 100
3, 286848, Note_on_c, 1, 46, 90
3, 287036, Note_off_c, 1, 46, 100
3, 287040, Note_on_c, 1, 58, 92
3, 287040, Note_on_c, 1, 61, 92
3, 287228, Note_off_c, 1, 58, 100
3, 287228, Note_off_c, 1, 61, 100
3, 287232, Note_on_c, 1, 47, 95
3, 287420, Note_off_c, 1, 47, 100
3, 287424, Note_on_c, 1, 59, 97
3, 287424, Note_on_c, 1, 62, 97
3, 287612, Note_off_c, 1, 59, 100
3, 287612, Note_off_c, 1, 62, 100
3, 287616, Note_on_c, 1, 44, 99
3, 287804, Note_off_c, 1, 44, 100
3, 287808, Note_on_c, 1, 56, 102
3, 287808, Note_on_c, 1, 59, 102
3, 287996, Note_off_c, 1, 56, 100
3, 287996, Note_off_c, 1, 59, 100
3, 288000, Note_on_c, 1, 45, 104
3, 288188, Note_off_c, 1, 45, 100
3, 288192, Note_on_c, 1, 57, 107
3, 288192, Note_on_c, 1, 60, 107
3, 288380, Note_off_c, 1, 57, 100
3, 288380, Note_off_c, 1, 60, 100
3, 288384, Note_on_c, 1, 42, 110
3, 288572, Note_off_c, 1, 42, 100
3, 288576, Note_on_c, 1, 54, 110
3, 288576, Note_on_c, 1, 57, 110
3, 288764, Note_off_c, 1, 54, 100
3, 288764, Note_off_c, 1, 57, 100
3, 288768, Note_on_c, 1, 43, 110
3, 288956, Note_off_c, 1, 43, 100
3, 288960, Note_on_c, 1, 55, 110
3, 288960, Note_on_c, 1, 59, 110
3, 289148, Note_off_c, 1, 55, 100
3, 289148, Note_off_c, 1, 59, 100
3, 289152, Note_on_c, 1, 36, 110
3, 289340, Note_off_c, 1, 36, 100
3, 289344, Note_on_c, 1, 48, 110
3, 289532, Note_off_c, 1, 48, 100
3, 289536, Note_on_c, 1, 38, 110
3, 289724, Note_off_c, 1, 38, 100
3, 289728, Note_on_c, 1, 50, 110
3, 289916, Note_off_c, 1, 50, 100
3, 289920, Note_on_c, 1, 43, 80
3, 290112, Note_on_c, 1, 50, 80
3, 290300, Note_off_c, 1, 43, 100
3, 290300, Note_off_c, 1, 50, 100
3, 290304, Note_on_c, 1, 50, 80
3, 290492, Note_off_c, 1, 50, 100
3, 290496, Note_on_c, 1, 50, 80
3, 290684, Note_off_c, 1, 50, 100
3, 290688, Note_on_c, 1, 50, 80
3, 290688, Note_on_c, 1, 38, 80
3, 290876, Note_off_c, 1, 50, 100
3, 290880, Note_on_c, 1, 50, 80
3, 291068, Note_off_c, 1, 50, 100
3, 291072, Note_on_c, 1, 50, 80
3, 291260, Note_off_c, 1, 50, 100
3, 291264, Note_on_c, 1, 50, 80
3, 291452, Note_off_c, 1, 38, 100
3, 291452, Note_off_c, 1, 50, 100
3, 291456, Note_on_c, 1, 43, 80
3, 291648, Note_on_c, 1, 50, 80
3, 291836, Note_off_c, 1, 43, 100
3, 291836, Note_off_c, 1, 50, 100
3, 291840, Note_on_c, 1, 50, 80
3, 292028, Note_off_c, 1, 50, 100
3, 292032, Note_on_c, 1, 50, 80
3, 292220, Note_off_c, 1, 50, 100
3, 292224, Note_on_c, 1, 50, 80
3, 292224, Note_on_c, 1, 38, 80
3, 292412, Note_off_c, 1, 50, 100
3, 292416, Note_on_c, 1, 50, 77
3, 292604, Note_off_c, 1, 50, 100
3, 292608, Note_on_c, 1, 50, 74
3, 292796, Note_off_c, 1, 50, 100
3, 292800, Note_on_c, 1, 50, 71
3, 292988, Note_off_c, 1, 38, 100
3, 292988, Note_off_c, 1, 50, 100
3, 292992, Note_on_c, 1, 43, 70
3, 293184, Note_on_c, 1, 50, 70
3, 293372, Note_off_c, 1, 43, 100
3, 293372, Note_off_c, 1, 50, 100
3, 293376, Note_on_c, 1, 50, 70
3, 293564, Note_off_c, 1, 50, 100
3, 293568, Note_on_c, 1, 50, 70
3, 293756, Note_off_c, 1, 50, 100
3, 293760, Note_on_c, 1, 50, 70
3, 293760, Note_on_c, 1, 38, 70
3, 293948, Note_off_c, 1, 50, 100
3, 293952, Note_on_c, 1, 50, 70
3, 294140, Note_off_c, 1, 50, 100
3, 294144, Note_on_c, 1, 50, 70
3, 294332, Note_off_c, 1, 50, 100
3, 294336, Note_on_c, 1, 50, 70
3, 294524, Note_off_c, 1, 38, 100
3, 294524, Note_off_c, 1, 50, 100
3, 294528, Note_on_c, 1, 50, 70
3, 294528, Note_on_c, 1, 43, 70
3, 294716, Note_off_c, 1, 50, 100
3, 294716, Note_off_c, 1, 43, 100
3, 294720, Note_on_c, 1, 50, 71
3, 294908, Note_off_c, 1, 50, 100
3, 294912, Note_on_c, 1, 50, 72
3, 294912, Note_on_c, 1, 38, 72
3, 295100, Note_off_c, 1, 50, 100
3, 295100, Note_off_c, 1, 38, 100
3, 295104, Note_on_c, 1, 50, 74
3, 295292, Note_off_c, 1, 50, 100
3, 295296, Note_on_c, 1, 50, 75
3, 295296, Note_on_c, 1, 43, 75
3, 295484, Note_off_c, 1, 50, 100
3, 295484, Note_off_c, 1, 43, 100
3, 295488, Note_on_c, 1, 50, 76
3, 295676, Note_off_c, 1, 50, 100
3, 295680, Note_on_c, 1, 50, 78
3, 295680, Note_on_c, 1, 38, 78
3, 295868, Note_off_c, 1, 50, 100
3, 295868, Note_off_c, 1, 38, 100
3, 295872, Note_on_c, 1, 50, 79
3, 296060, Note_off_c, 1, 50, 100
3, 296064, Note_on_c, 1, 50, 80
3, 296064, Note_on_c, 1, 43, 80
3, 296252, Note_off_c, 1, 50, 100
3, 296256, Note_on_c, 1, 50, 81
3, 296444, Note_off_c, 1, 43, 100
3, 296444, Note_off_c, 1, 50, 100
3, 296448, Note_on_c, 1, 50, 83
3, 296448, Note_on_c, 1, 38, 83
3, 296636, Note_off_c, 1, 50, 100
3, 296640, Note_on_c, 1, 50, 84
3, 296828, Note_off_c, 1, 38, 100
3, 296828, Note_off_c, 1, 50, 100
3, 296832, Note_on_c, 1, 50, 85
3, 296832, Note_on_c, 1, 43, 85
3, 297020, Note_off_c, 1, 50, 100
3, 297024, Note_on_c, 1, 50, 87
3, 297212, Note_off_c, 1, 43, 100
3, 297212, Note_off_c, 1, 50, 100
3, 297216, Note_on_c, 1, 50, 88
3, 297216, Note_on_c, 1, 38, 88
3, 297404, Note_off_c, 1, 50, 100
3, 297408, Note_on_c, 1, 50, 89
3, 297596, Note_off_c, 1, 38, 100
3, 297596, Note_off_c, 1, 50, 100
3, 297600, Note_on_c, 1, 50, 80
3, 297600, Note_on_c, 1, 43, 80
3, 297980, Note_off_c, 1, 50, 100
3, 297980, Note_off_c, 1, 43, 100
3, 298368, Note_on_c, 1, 43, 80
3, 298368, Note_on_c, 1, 31, 80
3, 298748, Note_off_c, 1, 43, 100
3, 298748, Note_off_c, 1, 31, 100
3, 299136, Note_on_c, 1, 43, 80
3, 299136, Note_on_c, 1, 31, 80
3, 299516, Note_off_c, 1, 43, 100
3, 299516, Note_off_c, 1, 31, 100
3, 299904, Note_on_c, 1, 35, 80
3, 300092, Note_off_c, 1, 35, 100
3, 300288, Note_on_c, 1, 38, 80
3, 300476, Note_off_c, 1, 38, 100
3, 300672, Note_on_c, 1, 43, 120
3, 300672, Note_on_c, 1, 31, 120
3, 301052, Note_off_c, 1, 43, 100
3, 301052, Note_off_c, 1, 31, 100
3, 302208, Control_c, 1, 64, 127
3, 302208, Note_on_c, 1, 55, 120
3, 302300, Note_off_c, 1, 55, 100
3, 302304, Note_on_c, 1, 58, 120
3, 302396, Note_off_c, 1, 58, 100
3, 302400, Note_on_c, 1, 59, 120
3, 302492, Note_off_c, 1, 59, 100
3, 302496, Note_on_c, 1, 54, 120
3, 302584, Control_c, 1, 64, 0
3, 302588, Note_off_c, 1, 54, 100
3, 302592, Control_c, 1, 64, 127
3, 302592, Note_on_c, 1, 57, 120
3, 302684, Note_off_c, 1, 57, 100
3, 302688, Note_on_c, 1, 55, 120
3, 302780, Note_off_c, 1, 55, 100
3, 302784, Note_on_c, 1, 54, 120
3, 302876, Note_off_c, 1, 54, 100
3, 302880, Note_on_c, 1, 52, 120
3, 302968, Control_c, 1, 64, 0
3, 302972, Note_off_c, 1, 52, 100
3, 302976, Control_c, 1, 64, 127
3, 302976, Note_on_c, 1, 50, 120
3, 303068, Note_off_c, 1, 50, 100
3, 303072, Note_on_c, 1, 51, 120
3, 303164, Note_off_c, 1, 51, 100
3, 303168, Note_on_c, 1, 52, 120
3, 303260, Note_off_c, 1, 52, 100
3, 303264, Note_on_c, 1, 47, 120
3, 303352, Control_c, 1, 64, 0
3, 303356, Note_off_c, 1, 47, 100
3, 303360, Control_c, 1, 64, 127
3, 303360, Note_on_c, 1, 50, 120
3, 303452, Note_off_c, 1, 50, 100
3, 303456, Note_on_c, 1, 48, 120
3, 303548, Note_off_c, 1, 48, 100
3, 303552, Note_on_c, 1, 47, 120
3, 303644, Note_off_c, 1, 47, 100
3, 303648, Note_on_c, 1, 45, 120
3, 303736, Control_c, 1, 64, 0
3, 303740, Note_off_c, 1, 45, 100
3, 303744, Control_c, 1, 64, 127
3, 303744, Note_on_c, 1, 43, 120
3, 303836, Note_off_c, 1, 43, 100
3, 303840, Note_on_c, 1, 46, 120
3, 303932, Note_off_c, 1, 46, 100
3, 303936, Note_on_c, 1, 47, 120
3, 304028, Note_off_c, 1, 47, 100
3, 304032, Note_on_c, 1, 42, 120
3, 304120, Control_c, 1, 64, 0
3, 304124, Note_off_c, 1, 42, 100
3, 304128, Control_c, 1, 64, 127
3, 304128, Note_on_c, 1, 45, 120
3, 304220, Note_off_c, 1, 45, 100
3, 304224, Note_on_c, 1, 43, 120
3, 304316, Note_off_c, 1, 43, 100
3, 304320, Note_on_c, 1, 42, 120
3, 304412, Note_off_c, 1, 42, 100
3, 304416, Note_on_c, 1, 40, 120
3, 304504, Control_c, 1, 64, 0
3, 304508, Note_off_c, 1, 40, 100
3, 304512, Control_c, 1, 64, 127
3, 304512, Note_on_c, 1, 38, 120
3, 304604, Note_off_c, 1, 38, 100
3, 304608, Note_on_c, 1, 39, 120
3, 304700, Note_off_c, 1, 39, 100
3, 304704, Note_on_c, 1, 40, 120
3, 304796, Note_off_c, 1, 40, 100
3, 304800, Note_on_c, 1, 35, 120
3, 304888, Control_c, 1, 64, 0
3, 304892, Note_off_c, 1, 35, 100
3, 304896, Control_c, 1, 64, 127
3, 304896, Note_on_c, 1, 38, 120
3, 304988, Note_off_c, 1, 38, 100
3, 304992, Note_on_c, 1, 36, 120
3, 305084, Note_off_c, 1, 36, 100
3, 305088, Note_on_c, 1, 35, 120
3, 305180, Note_off_c, 1, 35, 100
3, 305184, Note_on_c, 1, 33, 120
3, 305272, Control_c, 1, 64, 0
3, 305276, Note_off_c, 1, 33, 100
3, 305280, Control_c, 1, 64, 127
3, 305280, Note_on_c, 1, 31, 120
3, 305372, Note_off_c, 1, 31, 100
3, 305376, Note_on_c, 1, 30, 120
3, 305468, Note_off_c, 1, 30, 100
3, 305472, Note_on_c, 1, 31, 120
3, 305564, Note_off_c, 1, 31, 100
3, 305568, Note_on_c, 1, 33, 120
3, 305656, Control_c, 1, 64, 0
3, 305660, Note_off_c, 1, 33, 100
3, 305664, Control_c, 1, 64, 127
3, 305664, Note_on_c, 1, 34, 120
3, 305756, Note_off_c, 1, 34, 100
3, 305760, Note_on_c, 1, 35, 120
3, 305852, Note_off_c, 1, 35, 100
3, 305856, Note_on_c, 1, 36, 120
3, 305948, Note_off_c, 1, 36, 100
3, 305952, Note_on_c, 1, 37, 120
3, 306040, Control_c, 1, 64, 0
3, 306044, Note_off_c, 1, 37, 100
3, 306048, Control_c, 1, 64, 127
3, 306048, Note_on_c, 1, 38, 120
3, 306140, Note_off_c, 1, 38, 100
3, 306144, Note_on_c, 1, 37, 120
3, 306236, Note_off_c, 1, 37, 100
3, 306240, Note_on_c, 1, 38, 120
3, 306332, Note_off_c, 1, 38, 100
3, 306336, Note_on_c, 1, 40, 120
3, 306424, Control_c, 1, 64, 0
3, 306428, Note_off_c, 1, 40, 100
3, 306432, Control_c, 1, 64, 127
3, 306432, Note_on_c, 1, 42, 120
3, 306524, Note_off_c, 1, 42, 100
3, 306528, Note_on_c, 1, 38, 120
3, 306620, Note_off_c, 1, 38, 100
3, 306624, Note_on_c, 1, 40, 120
3, 306716, Note_off_c, 1, 40, 100
3, 306720, Note_on_c, 1, 42, 120
3, 306808, Control_c, 1, 64, 0
3, 306812, Note_off_c, 1, 42, 100
3, 306816, Control_c, 1, 64, 127
3, 306816, Note_on_c, 1, 43, 120
3, 306908, Note_off_c, 1, 43, 100
3, 306912, Note_on_c, 1, 42, 120
3, 307004, Note_off_c, 1, 42, 100
3, 307008, Note_on_c, 1, 43, 120
3, 307100, Note_off_c, 1, 43, 100
3, 307104, Note_on_c, 1, 45, 120
3, 307192, Control_c, 1, 64, 0
3, 307196, Note_off_c, 1, 45, 100
3, 307200, Control_c, 1, 64, 127
3, 307200, Note_on_c, 1, 46, 120
3, 307292, Note_off_c, 1, 46, 100
3, 307296, Note_on_c, 1, 47, 120
3, 307388, Note_off_c, 1, 47, 100
3, 307392, Note_on_c, 1, 48, 120
3, 307484, Note_off_c, 1, 48, 100
3, 307488, Note_on_c, 1, 49, 120
3, 307576, Control_c, 1, 64, 0
3, 307580, Note_off_c, 1, 49, 100
3, 307584, Control_c, 1, 64, 127
3, 307584, Note_on_c, 1, 50, 120
3, 307676, Note_off_c, 1, 50, 100
3, 307680, Note_on_c, 1, 50, 120
3, 307772, Note_off_c, 1, 50, 100
3, 307776, Note_on_c, 1, 54, 120
3, 307868, Note_off_c, 1, 54, 100
3, 307872, Note_on_c, 1, 57, 120
3, 307960, Control_c, 1, 64, 0
3, 307964, Note_off_c, 1, 57, 100
3, 307968, Control_c, 1, 64, 127
3, 307968, Note_on_c, 1, 62, 120
3, 308060, Note_off_c, 1, 62, 100
3, 308064, Note_on_c, 1, 62, 120
3, 308156, Note_off_c, 1, 62, 100
3, 308160, Note_on_c, 1, 66, 120
3, 308252, Note_off_c, 1, 66, 100
3, 308256, Note_on_c, 1, 69, 120
3, 308344, Control_c, 1, 64, 0
3, 308348, Note_off_c, 1, 69, 100
3, 308352, Control_c, 1, 64, 127
3, 308352, Note_on_c, 1, 74, 120
3, 308444, Note_off_c, 1, 74, 100
3, 308448, Note_on_c, 1, 74, 120
3, 308540, Note_off_c, 1, 74, 100
3, 308544, Note_on_c, 1, 69, 120
3, 308636, Note_off_c, 1, 69, 100
3, 308640, Note_on_c, 1, 66, 120
3, 308728, Control_c, 1, 64, 0
3, 308732, Note_off_c, 1, 66, 100
3, 308736, Control_c, 1, 64, 127
3, 308736, Note_on_c, 1, 62, 120
3, 308828, Note_off_c, 1, 62, 100
3, 308832, Note_on_c, 1, 62, 120
3, 308924, Note_off_c, 1, 62, 100
3, 308928, Note_on_c, 1, 57, 120
3, 309020, Note_off_c, 1, 57, 100
3, 309024, Note_on_c, 1, 54, 120
3, 309112, Control_c, 1, 64, 0
3, 309116, Note_off_c, 1, 54, 100
3, 309120, Control_c, 1, 64, 127
3, 309120, Note_on_c, 1, 50, 120
3, 309212, Note_off_c, 1, 50, 100
3, 309216, Note_on_c, 1, 50, 120
3, 309308, Note_off_c, 1, 50, 100
3, 309312, Note_on_c, 1, 54, 120
3, 309404, Note_off_c, 1, 54, 100
3, 309408, Note_on_c, 1, 57, 120
3, 309496, Control_c, 1, 64, 0
3, 309500, Note_off_c, 1, 57, 100
3, 309504, Control_c, 1, 64, 127
3, 309504, Note_on_c, 1, 62, 120
3, 309596, Note_off_c, 1, 62, 100
3, 309600, Note_on_c, 1, 62, 120
3, 309692, Note_off_c, 1, 62, 100
3, 309696, Note_on_c, 1, 66, 120
3, 309788, Note_off_c, 1, 66, 100
3, 309792, Note_on_c, 1, 69, 120
3, 309880, Control_c, 1, 64, 0
3, 309884, Note_off_c, 1, 69, 100
3, 309888, Control_c, 1, 64, 127
3, 309888, Note_on_c, 1, 74, 120
3, 309980, Note_off_c, 1, 74, 100
3, 309984, Note_on_c, 1, 74, 120
3, 310076, Note_off_c, 1, 74, 100
3, 310080, Note_on_c, 1, 69, 120
3, 310172, Note_off_c, 1, 69, 100
3, 310176, Note_on_c, 1, 66, 120
3, 310264, Control_c, 1, 64, 0
3, 310268, Note_off_c, 1, 66, 100
3, 310272, Control_c, 1, 64, 127
3, 310272, Note_on_c, 1, 62, 120
3, 310364, Note_off_c, 1, 62, 100
3, 310368, Note_on_c, 1, 62, 120
3, 310460, Note_off_c, 1, 62, 100
3, 310464, Note_on_c, 1, 57, 120
3, 310556, Note_off_c, 1, 57, 100
3, 310560, Note_on_c, 1, 54, 120
3, 310648, Control_c, 1, 64, 0
3, 310652, Note_off_c, 1, 54, 100
3, 310656, Control_c, 1, 64, 127
3, 310656, Note_on_c, 1, 50, 120
3, 310748, Note_off_c, 1, 50, 100
3, 310752, Note_on_c, 1, 62, 120
3, 310844, Note_off_c, 1, 62, 100
3, 310848, Note_on_c, 1, 57, 120
3, 310940, Note_off_c, 1, 57, 100
3, 310944, Note_on_c, 1, 54, 120
3, 311032, Control_c, 1, 64, 0
3, 311036, Note_off_c, 1, 54, 100
3, 311040, Control_c, 1, 64, 127
3, 311040, Note_on_c, 1, 50, 120
3, 311132, Note_off_c, 1, 50, 100
3, 311136, Note_on_c, 1, 50, 120
3, 311228, Note_off_c, 1, 50, 100
3, 311232, Note_on_c, 1, 45, 120
3, 311324, Note_off_c, 1, 45, 100
3, 311328, Note_on_c, 1, 42, 120
3, 311416, Control_c, 1, 64, 0
3, 311420, Note_off_c, 1, 42, 100
3, 311424, Note_on_c, 1, 38, 120
3, 313532, Note_off_c, 1, 38, 64
3, 313728, Note_on_c, 1, 60, 80
3, 313728, Note_on_c, 1, 57, 80
3, 313728, Note_on_c, 1, 50, 80
3, 314492, Note_off_c, 1, 60, 100
3, 314492, Note_off_c, 1, 57, 100
3, 314492, Note_off_c, 1, 50, 100
3, 314496, Note_on_c, 1, 48, 70
3, 314684, Note_off_c, 1, 48, 100
3, 314880, Note_on_c, 1, 52, 70
3, 315068, Note_off_c, 1, 52, 100
3, 315264, Note_on_c, 1, 42, 70
3, 315452, Note_off_c, 1, 42, 100
3, 316800, Note_on_c, 1, 57, 80
3, 316800, Note_on_c, 1, 50, 80
3, 316800, Note_on_c, 1, 60, 80
3, 317564, Note_off_c, 1, 57, 100
3, 317564, Note_off_c, 1, 50, 100
3, 317564, Note_off_c, 1, 60, 100
3, 318336, Note_on_c, 1, 55, 80
3, 318336, Note_on_c, 1, 50, 80
3, 318336, Note_on_c, 1, 47, 80
3, 318336, Note_on_c, 1, 43, 80
3, 319100, Note_off_c, 1, 55, 100
3, 319100, Note_off_c, 1, 50, 100
3, 319100, Note_off_c, 1, 47, 100
3, 319100, Note_off_c, 1, 43, 100
3, 319872, Note_on_c, 1, 60, 80
3, 319872, Note_on_c, 1, 57, 80
3, 319872, Note_on_c, 1, 50, 80
3, 320060, Note_off_c, 1, 60, 100
3, 320060, Note_off_c, 1, 57, 100
3, 320060, Note_off_c, 1, 50, 100
3, 320640, Note_on_c, 1, 50, 80
3, 320640, Note_on_c, 1, 38, 80
3, 320828, Note_off_c, 1, 50, 100
3, 320828, Note_off_c, 1, 38, 100
3, 321408, Note_on_c, 1, 55, 80
3, 321408, Note_on_c, 1, 43, 80
3, 321596, Note_off_c, 1, 55, 100
3, 321596, Note_off_c, 1, 43, 100
3, 321792, Note_on_c, 1, 55, 80
3, 321792, Note_on_c, 1, 43, 80
3, 321980, Note_off_c, 1, 55, 100
3, 321980, Note_off_c, 1, 43, 100
3, 322944, Note_on_c, 1, 57, 80
3, 322944, Note_on_c, 1, 50, 80
3, 322944, Note_on_c, 1, 60, 80
3, 323708, Note_off_c, 1, 57, 100
3, 323708, Note_off_c, 1, 50, 100
3, 323708, Note_off_c, 1, 60, 100
3, 324480, Note_on_c, 1, 55, 80
3, 324480, Note_on_c, 1, 50, 80
3, 324480, Note_on_c, 1, 47, 80
3, 324480, Note_on_c, 1, 43, 80
3, 325244, Note_off_c, 1, 55, 100
3, 325244, Note_off_c, 1, 50, 100
3, 325244, Note_off_c, 1, 47, 100
3, 325244, Note_off_c, 1, 43, 100
3, 326016, Note_on_c, 1, 60, 80
3, 326016, Note_on_c, 1, 57, 80
3, 326016, Note_on_c, 1, 50, 80
3, 326204, Note_off_c, 1, 60, 100
3, 326204, Note_off_c, 1, 57, 100
3, 326204, Note_off_c, 1, 50, 100
3, 326784, Note_on_c, 1, 50, 80
3, 326784, Note_on_c, 1, 38, 80
3, 326972, Note_off_c, 1, 50, 100
3, 326972, Note_off_c, 1, 38, 100
3, 327552, Note_on_c, 1, 55, 80
3, 327552, Note_on_c, 1, 43, 80
3, 327740, Note_off_c, 1, 55, 100
3, 327740, Note_off_c, 1, 43, 100
3, 327936, Note_on_c, 1, 55, 80
3, 327936, Note_on_c, 1, 43, 80
3, 328124, Note_off_c, 1, 55, 100
3, 328124, Note_off_c, 1, 43, 100
3, 329088, Note_on_c, 1, 60, 80
3, 329088, Note_on_c, 1, 57, 80
3, 329088, Note_on_c, 1, 50, 80
3, 329276, Note_off_c, 1, 60, 100
3, 329276, Note_off_c, 1, 57, 100
3, 329276, Note_off_c, 1, 50, 100
3, 329856, Note_on_c, 1, 50, 80
3, 329856, Note_on_c, 1, 38, 80
3, 330044, Note_off_c, 1, 50, 100
3, 330044, Note_off_c, 1, 38, 100
3, 330624, Note_on_c, 1, 55, 80
3, 330624, Note_on_c, 1, 43, 80
3, 330812, Note_off_c, 1, 55, 100
3, 330812, Note_off_c, 1, 43, 100
3, 331008, Note_on_c, 1, 55, 80
3, 331008, Note_on_c, 1, 43, 80
3, 331196, Note_off_c, 1, 55, 100
3, 331196, Note_off_c, 1, 43, 100
3, 332160, Note_on_c, 1, 60, 120
3, 332160, Note_on_c, 1, 57, 120
3, 332160, Note_on_c, 1, 50, 120
3, 332348, Note_off_c, 1, 60, 100
3, 332348, Note_off_c, 1, 57, 100
3, 332348, Note_off_c, 1, 50, 100
3, 332928, Note_on_c, 1, 50, 120
3, 332928, Note_on_c, 1, 38, 120
3, 333116, Note_off_c, 1, 50, 100
3, 333116, Note_off_c, 1, 38, 100
3, 333696, Note_on_c, 1, 55, 120
3, 333696, Note_on_c, 1, 43, 120
3, 333884, Note_off_c, 1, 55, 100
3, 333884, Note_off_c, 1, 43, 100
3, 334080, Note_on_c, 1, 55, 120
3, 334080, Note_on_c, 1, 43, 120
3, 334268, Note_off_c, 1, 55, 100
3, 334268, Note_off_c, 1, 43, 100
3, 335232, Note_on_c, 1, 43, 80
3, 335232, Note_on_c, 1, 31, 80
3, 335420, Note_off_c, 1, 43, 100
3, 335420, Note_off_c, 1, 31, 100
3, 335616, Note_on_c, 1, 43, 80
3, 335616, Note_on_c, 1, 31, 80
3, 335996, Note_off_c, 1, 43, 100
3, 335996, Note_off_c, 1, 31, 100
3, 335996, End_track
4, 0, Start_track
4, 0, Control_c, 0, 0, 0
4, 0, Program_c, 0, 0
4, 0, Control_c, 0, 7, 100
4, 0, Control_c, 0, 10, 70
4, 0, Control_c, 0, 91, 127
4, 0, Key_signature, 1, "major"
4, 0, Control_c, 0, 64, 127
4, 376, Control_c, 0, 64, 0
4, 384, Control_c, 0, 64, 127
4, 760, Control_c, 0, 64, 0
4, 760, End_track
0, 0, End_of_file
