0, 0, Header, 1, 3, 384
1, 0, Start_track
1, 0, Title_t, "L.v.Beethoven 2mov - Piano Sonata No.16 in G Major Op.31-1\000"
1, 0, Copyright_t, "Copyright(C) 1995-2009, Suzuki Software\000"
1, 0, Sequencer_specific, 9, 67, 123, 0, 88, 70, 48, 50, 0, 1
1, 0, Text_t, "XFhd:2000/06/25:JP:Classical::::L.v.Beethoven:::Kaoru Suzuki\000"
1, 0, Text_t, "XFln:JP:\203s\203A\203m\203\\\203i\203^\221æ16\224Ô\203g\222·\222²\215ì\225i31-1\201`\221æ2\212y\217Í:L.v.\203x\201[\203g\201[\203\224\203F\203\223:::\227é\202¿\202á\202ñ:\227é\202¿\202á\202ñ\000"
1, 0, Time_signature, 3, 3, 96, 8
1, 0, Sequencer_specific, 3, 0, 0, 65
1, 0, Sequencer_specific, 5, 0, 0, 119, 14, 0
1, 0, Tempo, 895522
1, 12672, Tempo, 909090
1, 13248, Tempo, 937500
1, 13632, Tempo, 1000000
1, 13824, Tempo, 895522
1, 20160, Tempo, 923076
1, 20544, Tempo, 960000
1, 20736, Tempo, 895522
1, 25920, Tempo, 923076
1, 26304, Tempo, 967741
1, 26496, Tempo, 909090
1, 27072, Tempo, 923076
1, 27648, Tempo, 937500
1, 27840, Tempo, 952380
1, 28032, Tempo, 1000000
1, 28224, Tempo, 937500
1, 30528, Tempo, 967741
1, 30912, Tempo, 1016949
1, 31680, Tempo, 937500
1, 42048, Tempo, 1000000
1, 42624, Tempo, 1052631
1, 43008, Tempo, 1200000
1, 43200, Tempo, 1714285
1, 43392, Tempo, 1200000
1, 43584, Tempo, 937500
1, 46080, Time_signature, 1, 3, 96, 8
1, 46080, Tempo, 1000000
1, 46272, Time_signature, 3, 3, 96, 8
1, 46272, Tempo, 895522
1, 57792, Tempo, 967741
1, 58944, Tempo, 1000000
1, 59520, Tempo, 1052631
1, 59904, Tempo, 1333333
1, 60096, Tempo, 1200000
1, 60192, Tempo, 1090909
1, 60288, Tempo, 1000000
1, 60384, Tempo, 923076
1, 60480, Tempo, 882352
1, 70464, Tempo, 833333
1, 97536, Tempo, 857142
1, 98688, Tempo, 882352
1, 99264, Tempo, 909090
1, 99648, Tempo, 967741
1, 100032, Tempo, 923076
1, 111360, Tempo, 952380
1, 111552, Tempo, 1000000
1, 111744, Tempo, 1090909
1, 111936, Tempo, 857142
1, 124800, Tempo, 952380
1, 125184, Tempo, 882352
1, 125376, Tempo, 909090
1, 125568, Tempo, 937500
1, 125760, Tempo, 857142
1, 137280, Tempo, 875912
1, 137856, Tempo, 895522
1, 138048, Tempo, 923076
1, 138240, Tempo, 1000000
1, 138528, Tempo, 895522
1, 154080, Tempo, 937500
1, 154368, Tempo, 923076
1, 154656, Tempo, 967741
1, 154752, Tempo, 1000000
1, 154944, Tempo, 1090909
1, 155136, Tempo, 895522
1, 159552, Tempo, 952380
1, 159744, Time_signature, 1, 3, 96, 8
1, 159744, Tempo, 1090909
1, 159936, Time_signature, 3, 3, 96, 8
1, 160032, Tempo, 895522
1, 180480, Tempo, 967741
1, 180768, Tempo, 923076
1, 182208, Tempo, 952380
1, 182400, Tempo, 923076
1, 188736, Tempo, 952380
1, 188928, Tempo, 1000000
1, 189120, Tempo, 1090909
1, 189408, Tempo, 923076
1, 201408, Tempo, 967741
1, 205536, Tempo, 991735
1, 206112, Tempo, 1025641
1, 206400, Tempo, 1090909
1, 206592, Tempo, 1000000
1, 207744, Tempo, 1061946
1, 208320, Tempo, 1333333
1, 208320, End_track
2, 0, Start_track
2, 0, Title_t, "Right"
2, 0, Control_c, 0, 0, 0
2, 0, Program_c, 0, 0
2, 0, Control_c, 0, 7, 100
2, 0, Control_c, 0, 10, 75
2, 0, Control_c, 0, 91, 127
2, 0, Key_signature, 0, "major"
2, 0, Note_on_c, 0, 72, 80
2, 48, Note_on_c, 0, 74, 80
2, 92, Note_off_c, 0, 72, 100
2, 96, Note_on_c, 0, 72, 80
2, 140, Note_off_c, 0, 74, 100
2, 144, Note_on_c, 0, 74, 80
2, 188, Note_off_c, 0, 72, 100
2, 192, Note_on_c, 0, 72, 80
2, 236, Note_off_c, 0, 74, 100
2, 240, Note_on_c, 0, 74, 80
2, 284, Note_off_c, 0, 72, 100
2, 288, Note_on_c, 0, 72, 80
2, 332, Note_off_c, 0, 74, 100
2, 336, Note_on_c, 0, 74, 80
2, 380, Note_off_c, 0, 72, 100
2, 384, Note_on_c, 0, 72, 80
2, 428, Note_off_c, 0, 74, 100
2, 432, Note_on_c, 0, 74, 80
2, 476, Note_off_c, 0, 72, 100
2, 480, Note_on_c, 0, 72, 80
2, 524, Note_off_c, 0, 74, 100
2, 528, Note_on_c, 0, 74, 80
2, 572, Note_off_c, 0, 72, 100
2, 576, Note_on_c, 0, 72, 80
2, 620, Note_off_c, 0, 74, 100
2, 624, Note_on_c, 0, 74, 80
2, 668, Note_off_c, 0, 72, 100
2, 672, Note_on_c, 0, 72, 80
2, 716, Note_off_c, 0, 74, 100
2, 720, Note_on_c, 0, 74, 80
2, 764, Note_off_c, 0, 72, 100
2, 768, Note_on_c, 0, 72, 80
2, 812, Note_off_c, 0, 74, 100
2, 816, Note_on_c, 0, 74, 80
2, 860, Note_off_c, 0, 72, 100
2, 864, Note_on_c, 0, 72, 80
2, 908, Note_off_c, 0, 74, 100
2, 912, Note_on_c, 0, 74, 80
2, 956, Note_off_c, 0, 72, 100
2, 960, Note_on_c, 0, 72, 80
2, 1004, Note_off_c, 0, 74, 100
2, 1008, Note_on_c, 0, 74, 80
2, 1052, Note_off_c, 0, 72, 100
2, 1056, Note_on_c, 0, 71, 80
2, 1100, Note_off_c, 0, 74, 100
2, 1104, Note_on_c, 0, 72, 80
2, 1148, Note_off_c, 0, 71, 100
2, 1148, Note_off_c, 0, 72, 100
2, 1152, Note_on_c, 0, 76, 80
2, 1676, Note_off_c, 0, 76, 100
2, 1680, Note_on_c, 0, 72, 80
2, 1724, Note_off_c, 0, 72, 100
2, 1728, Note_on_c, 0, 67, 80
2, 2684, Note_off_c, 0, 67, 100
2, 2688, Note_on_c, 0, 66, 80
2, 2780, Note_off_c, 0, 66, 100
2, 2784, Note_on_c, 0, 67, 80
2, 2876, Note_off_c, 0, 67, 100
2, 2880, Note_on_c, 0, 68, 80
2, 2972, Note_off_c, 0, 68, 100
2, 2976, Note_on_c, 0, 69, 80
2, 3068, Note_off_c, 0, 69, 100
2, 3072, Note_on_c, 0, 70, 80
2, 3164, Note_off_c, 0, 70, 100
2, 3168, Note_on_c, 0, 71, 80
2, 3260, Note_off_c, 0, 71, 100
2, 3264, Note_on_c, 0, 72, 80
2, 3356, Note_off_c, 0, 72, 100
2, 3360, Note_on_c, 0, 73, 80
2, 3452, Note_off_c, 0, 73, 100
2, 3456, Note_on_c, 0, 74, 80
2, 3504, Note_on_c, 0, 76, 80
2, 3548, Note_off_c, 0, 74, 100
2, 3552, Note_on_c, 0, 74, 80
2, 3596, Note_off_c, 0, 76, 100
2, 3600, Note_on_c, 0, 76, 80
2, 3644, Note_off_c, 0, 74, 100
2, 3648, Note_on_c, 0, 74, 80
2, 3692, Note_off_c, 0, 76, 100
2, 3696, Note_on_c, 0, 76, 80
2, 3740, Note_off_c, 0, 74, 100
2, 3744, Note_on_c, 0, 74, 80
2, 3788, Note_off_c, 0, 76, 100
2, 3792, Note_on_c, 0, 76, 80
2, 3836, Note_off_c, 0, 74, 100
2, 3840, Note_on_c, 0, 74, 80
2, 3884, Note_off_c, 0, 76, 100
2, 3888, Note_on_c, 0, 76, 80
2, 3932, Note_off_c, 0, 74, 100
2, 3936, Note_on_c, 0, 74, 80
2, 3980, Note_off_c, 0, 76, 100
2, 3984, Note_on_c, 0, 76, 80
2, 4028, Note_off_c, 0, 74, 100
2, 4032, Note_on_c, 0, 74, 80
2, 4076, Note_off_c, 0, 76, 100
2, 4080, Note_on_c, 0, 76, 80
2, 4124, Note_off_c, 0, 74, 100
2, 4128, Note_on_c, 0, 74, 80
2, 4172, Note_off_c, 0, 76, 100
2, 4176, Note_on_c, 0, 76, 80
2, 4220, Note_off_c, 0, 74, 100
2, 4224, Note_on_c, 0, 74, 80
2, 4268, Note_off_c, 0, 76, 100
2, 4272, Note_on_c, 0, 76, 80
2, 4316, Note_off_c, 0, 74, 100
2, 4320, Note_on_c, 0, 74, 80
2, 4364, Note_off_c, 0, 76, 100
2, 4368, Note_on_c, 0, 76, 80
2, 4412, Note_off_c, 0, 74, 100
2, 4416, Note_on_c, 0, 74, 80
2, 4460, Note_off_c, 0, 76, 100
2, 4464, Note_on_c, 0, 76, 80
2, 4508, Note_off_c, 0, 74, 100
2, 4512, Note_on_c, 0, 73, 80
2, 4556, Note_off_c, 0, 76, 100
2, 4560, Note_on_c, 0, 74, 80
2, 4604, Note_off_c, 0, 73, 100
2, 4604, Note_off_c, 0, 74, 100
2, 4608, Note_on_c, 0, 77, 80
2, 5132, Note_off_c, 0, 77, 100
2, 5136, Note_on_c, 0, 74, 80
2, 5180, Note_off_c, 0, 74, 100
2, 5184, Note_on_c, 0, 67, 80
2, 6140, Note_off_c, 0, 67, 100
2, 6144, Note_on_c, 0, 67, 80
2, 6236, Note_off_c, 0, 67, 100
2, 6240, Note_on_c, 0, 69, 80
2, 6332, Note_off_c, 0, 69, 100
2, 6336, Note_on_c, 0, 70, 80
2, 6428, Note_off_c, 0, 70, 100
2, 6432, Note_on_c, 0, 71, 80
2, 6524, Note_off_c, 0, 71, 100
2, 6528, Note_on_c, 0, 72, 80
2, 6620, Note_off_c, 0, 72, 100
2, 6624, Note_on_c, 0, 73, 80
2, 6716, Note_off_c, 0, 73, 100
2, 6720, Note_on_c, 0, 74, 80
2, 6812, Note_off_c, 0, 74, 100
2, 6816, Note_on_c, 0, 75, 80
2, 6908, Note_off_c, 0, 75, 100
2, 6912, Note_on_c, 0, 64, 80
2, 6956, Note_off_c, 0, 64, 100
2, 6958, Note_on_c, 0, 76, 80
2, 7482, Note_off_c, 0, 76, 100
2, 7488, Note_on_c, 0, 65, 80
2, 7532, Note_off_c, 0, 65, 100
2, 7534, Note_on_c, 0, 77, 80
2, 8058, Note_off_c, 0, 77, 100
2, 8064, Note_on_c, 0, 67, 80
2, 8108, Note_off_c, 0, 67, 100
2, 8110, Note_on_c, 0, 79, 80
2, 8634, Note_off_c, 0, 79, 100
2, 8640, Note_on_c, 0, 80, 80
2, 8828, Note_off_c, 0, 80, 100
2, 8832, Note_on_c, 0, 81, 101
2, 9404, Note_off_c, 0, 81, 100
2, 9408, Note_on_c, 0, 81, 80
2, 9980, Note_off_c, 0, 81, 100
2, 9984, Note_on_c, 0, 79, 80
2, 10006, Note_on_c, 0, 77, 80
2, 10024, Note_off_c, 0, 79, 100
2, 10076, Note_off_c, 0, 77, 100
2, 10080, Note_on_c, 0, 76, 80
2, 10172, Note_off_c, 0, 76, 100
2, 10176, Note_on_c, 0, 77, 80
2, 10268, Note_off_c, 0, 77, 100
2, 10272, Note_on_c, 0, 74, 80
2, 10364, Note_off_c, 0, 74, 100
2, 10368, Note_on_c, 0, 72, 80
2, 10556, Note_off_c, 0, 72, 100
2, 10560, Note_on_c, 0, 74, 80
2, 10580, Note_off_c, 0, 74, 100
2, 10582, Note_on_c, 0, 72, 80
2, 10698, Note_off_c, 0, 72, 100
2, 10704, Note_on_c, 0, 71, 80
2, 10748, Note_off_c, 0, 71, 100
2, 10752, Note_on_c, 0, 72, 80
2, 10892, Note_off_c, 0, 72, 100
2, 10896, Note_on_c, 0, 76, 80
2, 10940, Note_off_c, 0, 76, 100
2, 10944, Note_on_c, 0, 67, 80
2, 11564, Note_off_c, 0, 67, 100
2, 11568, Note_on_c, 0, 69, 80
2, 11612, Note_off_c, 0, 69, 100
2, 11616, Note_on_c, 0, 67, 80
2, 11660, Note_off_c, 0, 67, 100
2, 11664, Note_on_c, 0, 66, 80
2, 11708, Note_off_c, 0, 66, 100
2, 11712, Note_on_c, 0, 67, 80
2, 11740, Note_off_c, 0, 67, 100
2, 11744, Note_on_c, 0, 69, 80
2, 11772, Note_off_c, 0, 69, 100
2, 11776, Note_on_c, 0, 71, 80
2, 11804, Note_off_c, 0, 71, 100
2, 11808, Note_on_c, 0, 72, 80
2, 11836, Note_off_c, 0, 72, 100
2, 11840, Note_on_c, 0, 74, 80
2, 11868, Note_off_c, 0, 74, 100
2, 11872, Note_on_c, 0, 76, 80
2, 11900, Note_off_c, 0, 76, 100
2, 11904, Note_on_c, 0, 77, 80
2, 11996, Note_off_c, 0, 77, 100
2, 12048, Note_on_c, 0, 71, 80
2, 12092, Note_off_c, 0, 71, 100
2, 12096, Note_on_c, 0, 74, 80
2, 12096, Note_on_c, 0, 65, 80
2, 12668, Note_off_c, 0, 74, 100
2, 12668, Note_off_c, 0, 65, 100
2, 12672, Note_on_c, 0, 72, 80
2, 12672, Note_on_c, 0, 64, 80
2, 12860, Note_off_c, 0, 72, 100
2, 12860, Note_off_c, 0, 64, 100
2, 12864, Note_on_c, 0, 67, 80
2, 13052, Note_off_c, 0, 67, 100
2, 13056, Note_on_c, 0, 66, 80
2, 13244, Note_off_c, 0, 66, 100
2, 13248, Note_on_c, 0, 65, 80
2, 13436, Note_off_c, 0, 65, 100
2, 13440, Note_on_c, 0, 64, 80
2, 13628, Note_off_c, 0, 64, 100
2, 13632, Note_on_c, 0, 62, 80
2, 13820, Note_off_c, 0, 62, 100
2, 13824, Note_on_c, 0, 60, 80
2, 14012, Note_off_c, 0, 60, 100
2, 14016, Note_on_c, 0, 64, 80
2, 14016, Note_on_c, 0, 60, 80
2, 14016, Note_on_c, 0, 55, 80
2, 14204, Note_off_c, 0, 64, 100
2, 14204, Note_off_c, 0, 60, 100
2, 14204, Note_off_c, 0, 55, 100
2, 14208, Note_on_c, 0, 64, 80
2, 14208, Note_on_c, 0, 60, 80
2, 14208, Note_on_c, 0, 55, 80
2, 14396, Note_off_c, 0, 64, 100
2, 14396, Note_off_c, 0, 60, 100
2, 14396, Note_off_c, 0, 55, 100
2, 14400, Note_on_c, 0, 64, 80
2, 14400, Note_on_c, 0, 60, 80
2, 14400, Note_on_c, 0, 55, 80
2, 14588, Note_off_c, 0, 64, 100
2, 14588, Note_off_c, 0, 60, 100
2, 14588, Note_off_c, 0, 55, 100
2, 14592, Note_on_c, 0, 64, 80
2, 14592, Note_on_c, 0, 60, 80
2, 14592, Note_on_c, 0, 55, 80
2, 14780, Note_off_c, 0, 64, 100
2, 14780, Note_off_c, 0, 60, 100
2, 14780, Note_off_c, 0, 55, 100
2, 14784, Note_on_c, 0, 64, 80
2, 14784, Note_on_c, 0, 60, 80
2, 14784, Note_on_c, 0, 55, 80
2, 14972, Note_off_c, 0, 64, 100
2, 14972, Note_off_c, 0, 60, 100
2, 14972, Note_off_c, 0, 55, 100
2, 14976, Note_on_c, 0, 64, 80
2, 14976, Note_on_c, 0, 60, 80
2, 14976, Note_on_c, 0, 55, 80
2, 15164, Note_off_c, 0, 64, 100
2, 15164, Note_off_c, 0, 60, 100
2, 15164, Note_off_c, 0, 55, 100
2, 15168, Note_on_c, 0, 64, 80
2, 15168, Note_on_c, 0, 60, 80
2, 15168, Note_on_c, 0, 55, 80
2, 15356, Note_off_c, 0, 64, 100
2, 15356, Note_off_c, 0, 60, 100
2, 15356, Note_off_c, 0, 55, 100
2, 15360, Note_on_c, 0, 64, 80
2, 15360, Note_on_c, 0, 60, 80
2, 15360, Note_on_c, 0, 55, 80
2, 15548, Note_off_c, 0, 64, 100
2, 15548, Note_off_c, 0, 60, 100
2, 15548, Note_off_c, 0, 55, 100
2, 15600, Note_on_c, 0, 60, 80
2, 15648, Note_on_c, 0, 64, 80
2, 15662, Note_off_c, 0, 60, 100
2, 15696, Note_on_c, 0, 62, 80
2, 15718, Note_off_c, 0, 64, 100
2, 15744, Note_on_c, 0, 65, 80
2, 15766, Note_off_c, 0, 62, 100
2, 15792, Note_on_c, 0, 64, 80
2, 15808, Note_off_c, 0, 65, 100
2, 15840, Note_on_c, 0, 67, 80
2, 15858, Note_off_c, 0, 64, 100
2, 15888, Note_on_c, 0, 65, 80
2, 15914, Note_off_c, 0, 67, 100
2, 15936, Note_on_c, 0, 69, 80
2, 15962, Note_off_c, 0, 65, 100
2, 15984, Note_on_c, 0, 67, 80
2, 16014, Note_off_c, 0, 69, 100
2, 16032, Note_on_c, 0, 71, 80
2, 16062, Note_off_c, 0, 67, 100
2, 16080, Note_on_c, 0, 69, 80
2, 16112, Note_off_c, 0, 71, 100
2, 16128, Note_on_c, 0, 72, 80
2, 16146, Note_off_c, 0, 69, 100
2, 16176, Note_on_c, 0, 71, 80
2, 16206, Note_off_c, 0, 72, 100
2, 16224, Note_on_c, 0, 74, 80
2, 16250, Note_off_c, 0, 71, 100
2, 16272, Note_on_c, 0, 72, 80
2, 16292, Note_off_c, 0, 74, 100
2, 16320, Note_on_c, 0, 76, 80
2, 16336, Note_off_c, 0, 72, 100
2, 16352, Note_on_c, 0, 74, 80
2, 16360, Note_off_c, 0, 76, 100
2, 16384, Note_on_c, 0, 77, 80
2, 16396, Note_off_c, 0, 74, 100
2, 16416, Note_on_c, 0, 76, 80
2, 16426, Note_off_c, 0, 77, 100
2, 16448, Note_on_c, 0, 79, 80
2, 16458, Note_off_c, 0, 76, 100
2, 16480, Note_on_c, 0, 77, 80
2, 16488, Note_off_c, 0, 79, 100
2, 16512, Note_on_c, 0, 81, 80
2, 16524, Note_off_c, 0, 77, 100
2, 16544, Note_on_c, 0, 79, 80
2, 16556, Note_off_c, 0, 81, 100
2, 16576, Note_on_c, 0, 83, 80
2, 16586, Note_off_c, 0, 79, 100
2, 16608, Note_on_c, 0, 81, 80
2, 16618, Note_off_c, 0, 83, 100
2, 16640, Note_on_c, 0, 84, 80
2, 16652, Note_off_c, 0, 81, 100
2, 16672, Note_on_c, 0, 83, 80
2, 16684, Note_off_c, 0, 84, 100
2, 16704, Note_on_c, 0, 86, 80
2, 16714, Note_off_c, 0, 83, 100
2, 16736, Note_on_c, 0, 84, 80
2, 16746, Note_off_c, 0, 86, 100
2, 16768, Note_on_c, 0, 88, 80
2, 16780, Note_off_c, 0, 84, 100
2, 16800, Note_on_c, 0, 86, 80
2, 16810, Note_off_c, 0, 88, 100
2, 16832, Note_on_c, 0, 84, 80
2, 16844, Note_off_c, 0, 86, 100
2, 16864, Note_on_c, 0, 83, 80
2, 16878, Note_off_c, 0, 84, 100
2, 16896, Note_on_c, 0, 81, 80
2, 16906, Note_off_c, 0, 83, 100
2, 16928, Note_on_c, 0, 79, 80
2, 16942, Note_off_c, 0, 81, 100
2, 16960, Note_on_c, 0, 77, 80
2, 16972, Note_off_c, 0, 79, 100
2, 16992, Note_on_c, 0, 76, 80
2, 17006, Note_off_c, 0, 77, 100
2, 17024, Note_on_c, 0, 74, 80
2, 17036, Note_off_c, 0, 76, 100
2, 17056, Note_on_c, 0, 72, 80
2, 17068, Note_off_c, 0, 74, 100
2, 17088, Note_on_c, 0, 71, 80
2, 17100, Note_off_c, 0, 72, 100
2, 17116, Note_on_c, 0, 69, 80
2, 17130, Note_off_c, 0, 71, 100
2, 17146, Note_on_c, 0, 67, 80
2, 17158, Note_off_c, 0, 69, 100
2, 17174, Note_on_c, 0, 65, 80
2, 17192, Note_off_c, 0, 67, 100
2, 17204, Note_on_c, 0, 64, 80
2, 17220, Note_off_c, 0, 65, 100
2, 17236, Note_on_c, 0, 62, 80
2, 17248, Note_off_c, 0, 64, 100
2, 17250, Note_on_c, 0, 60, 80
2, 17278, Note_off_c, 0, 60, 100
2, 17280, Note_off_c, 0, 62, 100
2, 17280, Note_on_c, 0, 59, 80
2, 17468, Note_off_c, 0, 59, 100
2, 17472, Note_on_c, 0, 65, 80
2, 17472, Note_on_c, 0, 59, 80
2, 17472, Note_on_c, 0, 55, 80
2, 17660, Note_off_c, 0, 65, 100
2, 17660, Note_off_c, 0, 59, 100
2, 17660, Note_off_c, 0, 55, 100
2, 17664, Note_on_c, 0, 65, 80
2, 17664, Note_on_c, 0, 59, 80
2, 17664, Note_on_c, 0, 55, 80
2, 17852, Note_off_c, 0, 65, 100
2, 17852, Note_off_c, 0, 59, 100
2, 17852, Note_off_c, 0, 55, 100
2, 17856, Note_on_c, 0, 65, 80
2, 17856, Note_on_c, 0, 59, 80
2, 17856, Note_on_c, 0, 55, 80
2, 18044, Note_off_c, 0, 65, 100
2, 18044, Note_off_c, 0, 59, 100
2, 18044, Note_off_c, 0, 55, 100
2, 18048, Note_on_c, 0, 65, 80
2, 18048, Note_on_c, 0, 59, 80
2, 18048, Note_on_c, 0, 55, 80
2, 18236, Note_off_c, 0, 65, 100
2, 18236, Note_off_c, 0, 59, 100
2, 18236, Note_off_c, 0, 55, 100
2, 18240, Note_on_c, 0, 65, 80
2, 18240, Note_on_c, 0, 59, 80
2, 18240, Note_on_c, 0, 55, 80
2, 18428, Note_off_c, 0, 65, 100
2, 18428, Note_off_c, 0, 59, 100
2, 18428, Note_off_c, 0, 55, 100
2, 18432, Note_on_c, 0, 65, 80
2, 18432, Note_on_c, 0, 59, 80
2, 18432, Note_on_c, 0, 55, 80
2, 18620, Note_off_c, 0, 65, 100
2, 18620, Note_off_c, 0, 59, 100
2, 18620, Note_off_c, 0, 55, 100
2, 18624, Note_on_c, 0, 65, 80
2, 18624, Note_on_c, 0, 59, 80
2, 18624, Note_on_c, 0, 55, 80
2, 18812, Note_off_c, 0, 65, 100
2, 18812, Note_off_c, 0, 59, 100
2, 18812, Note_off_c, 0, 55, 100
2, 18816, Note_on_c, 0, 65, 80
2, 18816, Note_on_c, 0, 59, 80
2, 18816, Note_on_c, 0, 55, 80
2, 19004, Note_off_c, 0, 65, 100
2, 19004, Note_off_c, 0, 59, 100
2, 19004, Note_off_c, 0, 55, 100
2, 19056, Note_on_c, 0, 59, 80
2, 19104, Note_on_c, 0, 62, 80
2, 19126, Note_off_c, 0, 59, 100
2, 19152, Note_on_c, 0, 60, 80
2, 19174, Note_off_c, 0, 62, 100
2, 19200, Note_on_c, 0, 64, 80
2, 19222, Note_off_c, 0, 60, 100
2, 19248, Note_on_c, 0, 62, 80
2, 19266, Note_off_c, 0, 64, 100
2, 19296, Note_on_c, 0, 65, 80
2, 19316, Note_off_c, 0, 62, 100
2, 19344, Note_on_c, 0, 64, 80
2, 19364, Note_off_c, 0, 65, 100
2, 19392, Note_on_c, 0, 67, 80
2, 19408, Note_off_c, 0, 64, 100
2, 19440, Note_on_c, 0, 65, 80
2, 19458, Note_off_c, 0, 67, 100
2, 19488, Note_on_c, 0, 69, 80
2, 19512, Note_off_c, 0, 65, 100
2, 19536, Note_on_c, 0, 67, 80
2, 19556, Note_off_c, 0, 69, 100
2, 19584, Note_on_c, 0, 71, 80
2, 19606, Note_off_c, 0, 67, 100
2, 19632, Note_on_c, 0, 69, 80
2, 19654, Note_off_c, 0, 71, 100
2, 19680, Note_on_c, 0, 72, 80
2, 19704, Note_off_c, 0, 69, 100
2, 19728, Note_on_c, 0, 71, 80
2, 19754, Note_off_c, 0, 72, 100
2, 19776, Note_on_c, 0, 74, 80
2, 19802, Note_off_c, 0, 71, 100
2, 19808, Note_on_c, 0, 72, 80
2, 19820, Note_off_c, 0, 74, 100
2, 19840, Note_on_c, 0, 76, 80
2, 19854, Note_off_c, 0, 72, 100
2, 19872, Note_on_c, 0, 74, 80
2, 19894, Note_off_c, 0, 76, 100
2, 19904, Note_on_c, 0, 77, 80
2, 19920, Note_off_c, 0, 74, 100
2, 19936, Note_on_c, 0, 76, 80
2, 19950, Note_off_c, 0, 77, 100
2, 19968, Note_on_c, 0, 79, 80
2, 19984, Note_off_c, 0, 76, 100
2, 20000, Note_on_c, 0, 77, 80
2, 20018, Note_off_c, 0, 79, 100
2, 20032, Note_on_c, 0, 81, 80
2, 20048, Note_off_c, 0, 77, 100
2, 20064, Note_on_c, 0, 79, 80
2, 20076, Note_off_c, 0, 81, 100
2, 20096, Note_on_c, 0, 83, 80
2, 20112, Note_off_c, 0, 79, 100
2, 20128, Note_on_c, 0, 81, 80
2, 20140, Note_off_c, 0, 83, 100
2, 20160, Note_on_c, 0, 84, 80
2, 20176, Note_off_c, 0, 81, 100
2, 20192, Note_on_c, 0, 83, 80
2, 20206, Note_off_c, 0, 84, 100
2, 20224, Note_on_c, 0, 86, 80
2, 20236, Note_off_c, 0, 83, 100
2, 20256, Note_on_c, 0, 84, 80
2, 20268, Note_off_c, 0, 86, 100
2, 20288, Note_on_c, 0, 88, 80
2, 20302, Note_off_c, 0, 84, 100
2, 20320, Note_on_c, 0, 86, 80
2, 20332, Note_off_c, 0, 88, 100
2, 20352, Note_on_c, 0, 89, 80
2, 20364, Note_off_c, 0, 86, 100
2, 20376, Note_on_c, 0, 88, 80
2, 20384, Note_off_c, 0, 89, 100
2, 20400, Note_on_c, 0, 86, 80
2, 20408, Note_off_c, 0, 88, 100
2, 20424, Note_on_c, 0, 84, 80
2, 20432, Note_off_c, 0, 86, 100
2, 20448, Note_on_c, 0, 83, 80
2, 20456, Note_off_c, 0, 84, 100
2, 20472, Note_on_c, 0, 81, 80
2, 20478, Note_off_c, 0, 83, 100
2, 20496, Note_on_c, 0, 79, 80
2, 20508, Note_off_c, 0, 81, 100
2, 20520, Note_on_c, 0, 83, 80
2, 20528, Note_off_c, 0, 79, 100
2, 20544, Note_on_c, 0, 86, 80
2, 20550, Note_off_c, 0, 83, 100
2, 20568, Note_on_c, 0, 84, 80
2, 20574, Note_off_c, 0, 86, 100
2, 20592, Note_on_c, 0, 83, 80
2, 20596, Note_off_c, 0, 84, 100
2, 20616, Note_on_c, 0, 81, 80
2, 20626, Note_off_c, 0, 83, 100
2, 20640, Note_on_c, 0, 79, 80
2, 20650, Note_off_c, 0, 81, 100
2, 20664, Note_on_c, 0, 77, 80
2, 20674, Note_off_c, 0, 79, 100
2, 20688, Note_on_c, 0, 76, 80
2, 20696, Note_off_c, 0, 77, 100
2, 20712, Note_on_c, 0, 74, 80
2, 20720, Note_off_c, 0, 76, 100
2, 20732, Note_off_c, 0, 74, 100
2, 20736, Note_on_c, 0, 75, 80
2, 20924, Note_off_c, 0, 75, 100
2, 20928, Note_on_c, 0, 76, 80
2, 21308, Note_off_c, 0, 76, 100
2, 21312, Note_on_c, 0, 72, 80
2, 21356, Note_off_c, 0, 72, 100
2, 21358, Note_on_c, 0, 84, 80
2, 21930, Note_off_c, 0, 84, 100
2, 21984, Note_on_c, 0, 83, 80
2, 22076, Note_off_c, 0, 83, 100
2, 22080, Note_on_c, 0, 81, 80
2, 22172, Note_off_c, 0, 81, 100
2, 22176, Note_on_c, 0, 79, 80
2, 22268, Note_off_c, 0, 79, 100
2, 22272, Note_on_c, 0, 78, 80
2, 22364, Note_off_c, 0, 78, 100
2, 22368, Note_on_c, 0, 76, 80
2, 22460, Note_off_c, 0, 76, 100
2, 22464, Note_on_c, 0, 76, 80
2, 22652, Note_off_c, 0, 76, 100
2, 22656, Note_on_c, 0, 74, 80
2, 23132, Note_off_c, 0, 74, 100
2, 23136, Note_on_c, 0, 73, 80
2, 23228, Note_off_c, 0, 73, 100
2, 23232, Note_on_c, 0, 74, 80
2, 23324, Note_off_c, 0, 74, 100
2, 23328, Note_on_c, 0, 73, 80
2, 23420, Note_off_c, 0, 73, 100
2, 23424, Note_on_c, 0, 74, 80
2, 23516, Note_off_c, 0, 74, 100
2, 23520, Note_on_c, 0, 73, 80
2, 23612, Note_off_c, 0, 73, 100
2, 23616, Note_on_c, 0, 74, 80
2, 23708, Note_off_c, 0, 74, 100
2, 23712, Note_on_c, 0, 73, 80
2, 23804, Note_off_c, 0, 73, 100
2, 23808, Note_on_c, 0, 74, 80
2, 23900, Note_off_c, 0, 74, 100
2, 23904, Note_on_c, 0, 76, 80
2, 23996, Note_off_c, 0, 76, 100
2, 24000, Note_on_c, 0, 78, 80
2, 24092, Note_off_c, 0, 78, 100
2, 24096, Note_on_c, 0, 79, 80
2, 24188, Note_off_c, 0, 79, 100
2, 24192, Note_on_c, 0, 69, 80
2, 24284, Note_off_c, 0, 69, 100
2, 24288, Note_on_c, 0, 68, 80
2, 24380, Note_off_c, 0, 68, 100
2, 24384, Note_on_c, 0, 69, 80
2, 24476, Note_off_c, 0, 69, 100
2, 24480, Note_on_c, 0, 71, 80
2, 24572, Note_off_c, 0, 71, 100
2, 24576, Note_on_c, 0, 72, 80
2, 24636, Note_off_c, 0, 72, 100
2, 24640, Note_on_c, 0, 74, 80
2, 24700, Note_off_c, 0, 74, 100
2, 24704, Note_on_c, 0, 76, 80
2, 24764, Note_off_c, 0, 76, 100
2, 24768, Note_on_c, 0, 76, 80
2, 24956, Note_off_c, 0, 76, 100
2, 24960, Note_on_c, 0, 62, 80
2, 25436, Note_off_c, 0, 62, 100
2, 25440, Note_on_c, 0, 64, 80
2, 25484, Note_off_c, 0, 64, 100
2, 25488, Note_on_c, 0, 62, 80
2, 25532, Note_off_c, 0, 62, 100
2, 25536, Note_on_c, 0, 61, 80
2, 25628, Note_off_c, 0, 61, 100
2, 25632, Note_on_c, 0, 62, 80
2, 25724, Note_off_c, 0, 62, 100
2, 25728, Note_on_c, 0, 64, 80
2, 25820, Note_off_c, 0, 64, 100
2, 25824, Note_on_c, 0, 66, 80
2, 25916, Note_off_c, 0, 66, 100
2, 25920, Note_on_c, 0, 66, 80
2, 25964, Note_off_c, 0, 66, 100
2, 25966, Note_on_c, 0, 69, 80
2, 26490, Note_off_c, 0, 69, 100
2, 26496, Note_on_c, 0, 67, 80
2, 26684, Note_off_c, 0, 67, 100
2, 26688, Note_on_c, 0, 67, 80
2, 26876, Note_off_c, 0, 67, 100
2, 26880, Note_on_c, 0, 67, 80
2, 27068, Note_off_c, 0, 67, 100
2, 27072, Note_on_c, 0, 67, 80
2, 27260, Note_off_c, 0, 67, 100
2, 27264, Note_on_c, 0, 66, 80
2, 27452, Note_off_c, 0, 66, 100
2, 27456, Note_on_c, 0, 67, 80
2, 27644, Note_off_c, 0, 67, 100
2, 27648, Note_on_c, 0, 67, 80
2, 27836, Note_off_c, 0, 67, 100
2, 27840, Note_on_c, 0, 66, 80
2, 28028, Note_off_c, 0, 66, 100
2, 28032, Note_on_c, 0, 67, 80
2, 28220, Note_off_c, 0, 67, 100
2, 28224, Note_on_c, 0, 67, 80
2, 28412, Note_off_c, 0, 67, 100
2, 28416, Note_on_c, 0, 66, 80
2, 28604, Note_off_c, 0, 66, 100
2, 28608, Note_on_c, 0, 67, 80
2, 28796, Note_off_c, 0, 67, 100
2, 28800, Note_on_c, 0, 67, 80
2, 28988, Note_off_c, 0, 67, 100
2, 28992, Note_on_c, 0, 66, 80
2, 29180, Note_off_c, 0, 66, 100
2, 29184, Note_on_c, 0, 67, 80
2, 29184, Note_on_c, 0, 70, 80
2, 29184, Note_on_c, 0, 73, 80
2, 29372, Note_off_c, 0, 67, 100
2, 29372, Note_off_c, 0, 70, 100
2, 29372, Note_off_c, 0, 73, 100
2, 29376, Note_on_c, 0, 73, 80
2, 29376, Note_on_c, 0, 70, 80
2, 29376, Note_on_c, 0, 67, 80
2, 29564, Note_off_c, 0, 67, 100
2, 29568, Note_on_c, 0, 66, 80
2, 29756, Note_off_c, 0, 66, 100
2, 29760, Note_on_c, 0, 67, 80
2, 29948, Note_off_c, 0, 67, 100
2, 29952, Note_on_c, 0, 67, 80
2, 30140, Note_off_c, 0, 70, 100
2, 30140, Note_off_c, 0, 73, 100
2, 30140, Note_off_c, 0, 67, 100
2, 30144, Note_on_c, 0, 66, 80
2, 30332, Note_off_c, 0, 66, 100
2, 30336, Note_on_c, 0, 67, 80
2, 30336, Note_on_c, 0, 70, 80
2, 30336, Note_on_c, 0, 73, 80
2, 30524, Note_off_c, 0, 67, 100
2, 30524, Note_off_c, 0, 70, 100
2, 30524, Note_off_c, 0, 73, 100
2, 30528, Note_on_c, 0, 73, 80
2, 30528, Note_on_c, 0, 70, 80
2, 30528, Note_on_c, 0, 67, 80
2, 30716, Note_off_c, 0, 73, 100
2, 30716, Note_off_c, 0, 70, 100
2, 30716, Note_off_c, 0, 67, 100
2, 30720, Note_on_c, 0, 74, 80
2, 30720, Note_on_c, 0, 69, 80
2, 30908, Note_off_c, 0, 74, 100
2, 30908, Note_off_c, 0, 69, 100
2, 30912, Note_on_c, 0, 76, 80
2, 30912, Note_on_c, 0, 69, 80
2, 31100, Note_off_c, 0, 76, 100
2, 31100, Note_off_c, 0, 69, 100
2, 31104, Note_on_c, 0, 76, 80
2, 31104, Note_on_c, 0, 69, 80
2, 31676, Note_off_c, 0, 76, 100
2, 31680, Note_on_c, 0, 77, 80
2, 31868, Note_off_c, 0, 69, 100
2, 31868, Note_off_c, 0, 77, 100
2, 31872, Note_on_c, 0, 65, 70
2, 32060, Note_off_c, 0, 65, 100
2, 32064, Note_on_c, 0, 65, 70
2, 32252, Note_off_c, 0, 65, 100
2, 32256, Note_on_c, 0, 65, 71
2, 32444, Note_off_c, 0, 65, 100
2, 32448, Note_on_c, 0, 64, 72
2, 32636, Note_off_c, 0, 64, 100
2, 32640, Note_on_c, 0, 65, 73
2, 32828, Note_off_c, 0, 65, 100
2, 32832, Note_on_c, 0, 65, 73
2, 33020, Note_off_c, 0, 65, 100
2, 33024, Note_on_c, 0, 64, 74
2, 33212, Note_off_c, 0, 64, 100
2, 33216, Note_on_c, 0, 65, 75
2, 33404, Note_off_c, 0, 65, 100
2, 33408, Note_on_c, 0, 65, 76
2, 33596, Note_off_c, 0, 65, 100
2, 33600, Note_on_c, 0, 64, 76
2, 33788, Note_off_c, 0, 64, 100
2, 33792, Note_on_c, 0, 65, 77
2, 33980, Note_off_c, 0, 65, 100
2, 33984, Note_on_c, 0, 65, 78
2, 34172, Note_off_c, 0, 65, 100
2, 34176, Note_on_c, 0, 64, 79
2, 34364, Note_off_c, 0, 64, 100
2, 34368, Note_on_c, 0, 65, 79
2, 34368, Note_on_c, 0, 71, 79
2, 34368, Note_on_c, 0, 68, 79
2, 34556, Note_off_c, 0, 65, 100
2, 34556, Note_off_c, 0, 71, 100
2, 34556, Note_off_c, 0, 68, 100
2, 34560, Note_on_c, 0, 71, 80
2, 34560, Note_on_c, 0, 68, 80
2, 34560, Note_on_c, 0, 65, 80
2, 34748, Note_off_c, 0, 65, 100
2, 34752, Note_on_c, 0, 64, 80
2, 34940, Note_off_c, 0, 64, 100
2, 34944, Note_on_c, 0, 65, 80
2, 35132, Note_off_c, 0, 65, 100
2, 35136, Note_on_c, 0, 65, 80
2, 35324, Note_off_c, 0, 65, 100
2, 35328, Note_on_c, 0, 64, 80
2, 35516, Note_off_c, 0, 68, 100
2, 35516, Note_off_c, 0, 71, 100
2, 35516, Note_off_c, 0, 64, 100
2, 35520, Note_on_c, 0, 65, 80
2, 35520, Note_on_c, 0, 68, 80
2, 35520, Note_on_c, 0, 71, 80
2, 35708, Note_off_c, 0, 65, 100
2, 35708, Note_off_c, 0, 68, 100
2, 35708, Note_off_c, 0, 71, 100
2, 35712, Note_on_c, 0, 65, 80
2, 35712, Note_on_c, 0, 68, 80
2, 35712, Note_on_c, 0, 71, 80
2, 35900, Note_off_c, 0, 65, 100
2, 35900, Note_off_c, 0, 68, 100
2, 35900, Note_off_c, 0, 71, 100
2, 35904, Note_on_c, 0, 72, 80
2, 35904, Note_on_c, 0, 67, 80
2, 36092, Note_off_c, 0, 72, 100
2, 36092, Note_off_c, 0, 67, 100
2, 36096, Note_on_c, 0, 67, 80
2, 36096, Note_on_c, 0, 74, 80
2, 36284, Note_off_c, 0, 67, 100
2, 36284, Note_off_c, 0, 74, 100
2, 36288, Note_on_c, 0, 76, 80
2, 36288, Note_on_c, 0, 67, 80
2, 36476, Note_off_c, 0, 67, 100
2, 36480, Note_on_c, 0, 67, 80
2, 36668, Note_off_c, 0, 67, 100
2, 36672, Note_on_c, 0, 68, 80
2, 36860, Note_off_c, 0, 76, 100
2, 36860, Note_off_c, 0, 68, 100
2, 36864, Note_on_c, 0, 74, 80
2, 37056, Note_on_c, 0, 68, 80
2, 37244, Note_off_c, 0, 68, 100
2, 37248, Note_on_c, 0, 69, 80
2, 37436, Note_off_c, 0, 74, 100
2, 37436, Note_off_c, 0, 69, 100
2, 37440, Note_on_c, 0, 72, 80
2, 37632, Note_on_c, 0, 69, 80
2, 37820, Note_off_c, 0, 69, 100
2, 37824, Note_on_c, 0, 62, 80
2, 38012, Note_off_c, 0, 72, 100
2, 38012, Note_off_c, 0, 62, 100
2, 38016, Note_on_c, 0, 71, 80
2, 38016, Note_on_c, 0, 62, 80
2, 38396, Note_off_c, 0, 71, 100
2, 38396, Note_off_c, 0, 62, 100
2, 38592, Note_on_c, 0, 67, 80
2, 38784, Note_on_c, 0, 69, 80
2, 38972, Note_off_c, 0, 67, 100
2, 38972, Note_off_c, 0, 69, 100
2, 38976, Note_on_c, 0, 71, 80
2, 38976, Note_on_c, 0, 65, 80
2, 39164, Note_off_c, 0, 71, 100
2, 39164, Note_off_c, 0, 65, 100
2, 39168, Note_on_c, 0, 72, 80
2, 39168, Note_on_c, 0, 64, 80
2, 39356, Note_off_c, 0, 64, 100
2, 39360, Note_on_c, 0, 62, 80
2, 39548, Note_off_c, 0, 72, 100
2, 39548, Note_off_c, 0, 62, 100
2, 39552, Note_on_c, 0, 60, 80
2, 39552, Note_on_c, 0, 66, 80
2, 39740, Note_off_c, 0, 60, 100
2, 39740, Note_off_c, 0, 66, 100
2, 39744, Note_on_c, 0, 59, 80
2, 39744, Note_on_c, 0, 69, 80
2, 39932, Note_off_c, 0, 69, 100
2, 39936, Note_on_c, 0, 67, 80
2, 40124, Note_off_c, 0, 59, 100
2, 40124, Note_off_c, 0, 67, 100
2, 40320, Note_on_c, 0, 67, 80
2, 40320, Note_on_c, 0, 71, 80
2, 40508, Note_off_c, 0, 71, 100
2, 40512, Note_on_c, 0, 69, 80
2, 40700, Note_off_c, 0, 67, 100
2, 40700, Note_off_c, 0, 69, 100
2, 40704, Note_on_c, 0, 71, 80
2, 40704, Note_on_c, 0, 65, 80
2, 40728, Note_on_c, 0, 72, 80
2, 40748, Note_off_c, 0, 71, 100
2, 40752, Note_on_c, 0, 71, 80
2, 40772, Note_off_c, 0, 72, 100
2, 40776, Note_on_c, 0, 72, 80
2, 40796, Note_off_c, 0, 71, 100
2, 40800, Note_on_c, 0, 71, 80
2, 40820, Note_off_c, 0, 72, 100
2, 40824, Note_on_c, 0, 72, 80
2, 40844, Note_off_c, 0, 71, 100
2, 40848, Note_on_c, 0, 69, 80
2, 40868, Note_off_c, 0, 72, 100
2, 40872, Note_on_c, 0, 71, 80
2, 40892, Note_off_c, 0, 65, 100
2, 40892, Note_off_c, 0, 69, 100
2, 40892, Note_off_c, 0, 71, 100
2, 40896, Note_on_c, 0, 74, 80
2, 40896, Note_on_c, 0, 64, 80
2, 41084, Note_off_c, 0, 74, 100
2, 41084, Note_off_c, 0, 64, 100
2, 41088, Note_on_c, 0, 72, 80
2, 41088, Note_on_c, 0, 62, 80
2, 41276, Note_off_c, 0, 72, 100
2, 41276, Note_off_c, 0, 62, 100
2, 41280, Note_on_c, 0, 66, 80
2, 41280, Note_on_c, 0, 60, 80
2, 41468, Note_off_c, 0, 66, 100
2, 41468, Note_off_c, 0, 60, 100
2, 41472, Note_on_c, 0, 67, 80
2, 41472, Note_on_c, 0, 59, 80
2, 41660, Note_off_c, 0, 67, 100
2, 41660, Note_off_c, 0, 59, 100
2, 41760, Note_on_c, 0, 74, 80
2, 41760, Note_on_c, 0, 65, 80
2, 41852, Note_off_c, 0, 74, 100
2, 41852, Note_off_c, 0, 65, 100
2, 41856, Note_on_c, 0, 72, 80
2, 41856, Note_on_c, 0, 64, 80
2, 41948, Note_off_c, 0, 72, 100
2, 41948, Note_off_c, 0, 64, 100
2, 41952, Note_on_c, 0, 66, 80
2, 41952, Note_on_c, 0, 60, 80
2, 42044, Note_off_c, 0, 66, 100
2, 42044, Note_off_c, 0, 60, 100
2, 42048, Note_on_c, 0, 67, 80
2, 42048, Note_on_c, 0, 59, 80
2, 42236, Note_off_c, 0, 67, 100
2, 42236, Note_off_c, 0, 59, 100
2, 42336, Note_on_c, 0, 74, 80
2, 42336, Note_on_c, 0, 65, 80
2, 42428, Note_off_c, 0, 74, 100
2, 42428, Note_off_c, 0, 65, 100
2, 42432, Note_on_c, 0, 72, 80
2, 42432, Note_on_c, 0, 64, 80
2, 42524, Note_off_c, 0, 72, 100
2, 42524, Note_off_c, 0, 64, 100
2, 42528, Note_on_c, 0, 66, 80
2, 42528, Note_on_c, 0, 60, 80
2, 42620, Note_off_c, 0, 66, 100
2, 42620, Note_off_c, 0, 60, 100
2, 42624, Note_on_c, 0, 67, 80
2, 42624, Note_on_c, 0, 59, 80
2, 42812, Note_off_c, 0, 67, 100
2, 42812, Note_off_c, 0, 59, 100
2, 42912, Note_on_c, 0, 74, 80
2, 42912, Note_on_c, 0, 65, 80
2, 43004, Note_off_c, 0, 74, 100
2, 43004, Note_off_c, 0, 65, 100
2, 43008, Note_on_c, 0, 72, 80
2, 43008, Note_on_c, 0, 64, 80
2, 43100, Note_off_c, 0, 72, 100
2, 43100, Note_off_c, 0, 64, 100
2, 43104, Note_on_c, 0, 66, 80
2, 43104, Note_on_c, 0, 60, 80
2, 43196, Note_off_c, 0, 66, 100
2, 43196, Note_off_c, 0, 60, 100
2, 43200, Note_on_c, 0, 67, 80
2, 43200, Note_on_c, 0, 59, 80
2, 43248, Note_on_c, 0, 69, 80
2, 43292, Note_off_c, 0, 67, 100
2, 43296, Note_on_c, 0, 67, 80
2, 43340, Note_off_c, 0, 69, 100
2, 43344, Note_on_c, 0, 69, 80
2, 43388, Note_off_c, 0, 67, 100
2, 43392, Note_on_c, 0, 67, 80
2, 43436, Note_off_c, 0, 69, 100
2, 43440, Note_on_c, 0, 69, 80
2, 43484, Note_off_c, 0, 67, 100
2, 43488, Note_on_c, 0, 67, 80
2, 43532, Note_off_c, 0, 69, 100
2, 43536, Note_on_c, 0, 69, 80
2, 43580, Note_off_c, 0, 67, 100
2, 43584, Note_on_c, 0, 67, 80
2, 43628, Note_off_c, 0, 69, 100
2, 43632, Note_on_c, 0, 69, 80
2, 43676, Note_off_c, 0, 67, 100
2, 43680, Note_on_c, 0, 67, 80
2, 43724, Note_off_c, 0, 69, 100
2, 43728, Note_on_c, 0, 69, 80
2, 43772, Note_off_c, 0, 59, 100
2, 43772, Note_off_c, 0, 67, 100
2, 43776, Note_on_c, 0, 67, 80
2, 43820, Note_off_c, 0, 69, 100
2, 43824, Note_on_c, 0, 69, 80
2, 43868, Note_off_c, 0, 67, 100
2, 43872, Note_on_c, 0, 67, 80
2, 43916, Note_off_c, 0, 69, 100
2, 43920, Note_on_c, 0, 69, 80
2, 43964, Note_off_c, 0, 67, 100
2, 43968, Note_on_c, 0, 67, 80
2, 44012, Note_off_c, 0, 69, 100
2, 44016, Note_on_c, 0, 69, 80
2, 44060, Note_off_c, 0, 67, 100
2, 44064, Note_on_c, 0, 67, 80
2, 44108, Note_off_c, 0, 69, 100
2, 44112, Note_on_c, 0, 69, 80
2, 44156, Note_off_c, 0, 67, 100
2, 44160, Note_on_c, 0, 67, 80
2, 44204, Note_off_c, 0, 69, 100
2, 44208, Note_on_c, 0, 69, 80
2, 44252, Note_off_c, 0, 67, 100
2, 44256, Note_on_c, 0, 67, 80
2, 44300, Note_off_c, 0, 69, 100
2, 44304, Note_on_c, 0, 69, 80
2, 44348, Note_off_c, 0, 67, 100
2, 44376, Note_on_c, 0, 67, 80
2, 44396, Note_off_c, 0, 69, 100
2, 44400, Note_on_c, 0, 66, 80
2, 44420, Note_off_c, 0, 67, 100
2, 44424, Note_on_c, 0, 67, 80
2, 44444, Note_off_c, 0, 66, 100
2, 44448, Note_on_c, 0, 62, 80
2, 44468, Note_off_c, 0, 67, 100
2, 44472, Note_on_c, 0, 64, 80
2, 44492, Note_off_c, 0, 62, 100
2, 44496, Note_on_c, 0, 66, 80
2, 44516, Note_off_c, 0, 64, 100
2, 44520, Note_on_c, 0, 67, 80
2, 44540, Note_off_c, 0, 66, 100
2, 44544, Note_on_c, 0, 69, 80
2, 44564, Note_off_c, 0, 67, 100
2, 44568, Note_on_c, 0, 71, 80
2, 44588, Note_off_c, 0, 69, 100
2, 44592, Note_on_c, 0, 69, 80
2, 44612, Note_off_c, 0, 71, 100
2, 44616, Note_on_c, 0, 67, 80
2, 44636, Note_off_c, 0, 69, 100
2, 44640, Note_on_c, 0, 69, 80
2, 44660, Note_off_c, 0, 67, 100
2, 44664, Note_on_c, 0, 71, 80
2, 44684, Note_off_c, 0, 69, 100
2, 44688, Note_on_c, 0, 72, 80
2, 44708, Note_off_c, 0, 71, 100
2, 44712, Note_on_c, 0, 74, 80
2, 44732, Note_off_c, 0, 72, 100
2, 44736, Note_on_c, 0, 72, 80
2, 44756, Note_off_c, 0, 74, 100
2, 44760, Note_on_c, 0, 71, 80
2, 44780, Note_off_c, 0, 72, 100
2, 44784, Note_on_c, 0, 72, 80
2, 44804, Note_off_c, 0, 71, 100
2, 44808, Note_on_c, 0, 74, 80
2, 44828, Note_off_c, 0, 72, 100
2, 44832, Note_on_c, 0, 76, 80
2, 44852, Note_off_c, 0, 74, 100
2, 44856, Note_on_c, 0, 78, 80
2, 44876, Note_off_c, 0, 76, 100
2, 44880, Note_on_c, 0, 79, 80
2, 44900, Note_off_c, 0, 78, 100
2, 44904, Note_on_c, 0, 78, 80
2, 44924, Note_off_c, 0, 79, 100
2, 44928, Note_on_c, 0, 76, 80
2, 44948, Note_off_c, 0, 78, 100
2, 44952, Note_on_c, 0, 74, 80
2, 44976, Note_on_c, 0, 76, 80
2, 45000, Note_on_c, 0, 77, 80
2, 45020, Note_off_c, 0, 76, 100
2, 45024, Note_on_c, 0, 79, 80
2, 45044, Note_off_c, 0, 74, 100
2, 45048, Note_on_c, 0, 81, 80
2, 45068, Note_off_c, 0, 76, 100
2, 45072, Note_on_c, 0, 83, 80
2, 45092, Note_off_c, 0, 77, 100
2, 45096, Note_on_c, 0, 81, 80
2, 45116, Note_off_c, 0, 79, 100
2, 45120, Note_on_c, 0, 79, 80
2, 45140, Note_off_c, 0, 81, 100
2, 45144, Note_on_c, 0, 81, 80
2, 45164, Note_off_c, 0, 83, 100
2, 45168, Note_on_c, 0, 83, 80
2, 45188, Note_off_c, 0, 81, 100
2, 45192, Note_on_c, 0, 84, 80
2, 45212, Note_off_c, 0, 79, 100
2, 45216, Note_on_c, 0, 86, 80
2, 45236, Note_off_c, 0, 81, 100
2, 45240, Note_on_c, 0, 88, 80
2, 45260, Note_off_c, 0, 83, 100
2, 45264, Note_on_c, 0, 89, 80
2, 45284, Note_off_c, 0, 84, 100
2, 45288, Note_on_c, 0, 88, 80
2, 45308, Note_off_c, 0, 86, 100
2, 45312, Note_on_c, 0, 86, 80
2, 45332, Note_off_c, 0, 88, 100
2, 45336, Note_on_c, 0, 85, 80
2, 45356, Note_off_c, 0, 89, 100
2, 45360, Note_on_c, 0, 88, 80
2, 45380, Note_off_c, 0, 88, 100
2, 45384, Note_on_c, 0, 86, 80
2, 45404, Note_off_c, 0, 86, 100
2, 45408, Note_on_c, 0, 84, 80
2, 45428, Note_off_c, 0, 85, 100
2, 45432, Note_on_c, 0, 83, 80
2, 45452, Note_off_c, 0, 88, 100
2, 45456, Note_on_c, 0, 81, 80
2, 45476, Note_off_c, 0, 86, 100
2, 45480, Note_on_c, 0, 84, 80
2, 45500, Note_off_c, 0, 84, 100
2, 45504, Note_on_c, 0, 83, 80
2, 45524, Note_off_c, 0, 83, 100
2, 45528, Note_on_c, 0, 86, 80
2, 45548, Note_off_c, 0, 81, 100
2, 45552, Note_on_c, 0, 84, 80
2, 45572, Note_off_c, 0, 84, 100
2, 45576, Note_on_c, 0, 83, 80
2, 45596, Note_off_c, 0, 83, 100
2, 45600, Note_on_c, 0, 81, 80
2, 45620, Note_off_c, 0, 86, 100
2, 45624, Note_on_c, 0, 79, 80
2, 45644, Note_off_c, 0, 84, 100
2, 45648, Note_on_c, 0, 80, 80
2, 45668, Note_off_c, 0, 83, 100
2, 45692, Note_off_c, 0, 81, 100
2, 45696, Note_on_c, 0, 83, 80
2, 45716, Note_off_c, 0, 79, 100
2, 45740, Note_off_c, 0, 80, 100
2, 45792, Note_on_c, 0, 81, 80
2, 45852, Note_off_c, 0, 83, 100
2, 45888, Note_on_c, 0, 79, 80
2, 45946, Note_off_c, 0, 81, 100
2, 45984, Note_on_c, 0, 77, 80
2, 46032, Note_off_c, 0, 79, 100
2, 46080, Note_on_c, 0, 76, 80
2, 46128, Note_off_c, 0, 77, 100
2, 46176, Note_on_c, 0, 74, 80
2, 46222, Note_off_c, 0, 76, 100
2, 46268, Note_off_c, 0, 74, 100
2, 46272, Note_on_c, 0, 72, 80
2, 46320, Note_on_c, 0, 74, 80
2, 46364, Note_off_c, 0, 72, 100
2, 46368, Note_on_c, 0, 72, 80
2, 46412, Note_off_c, 0, 74, 100
2, 46416, Note_on_c, 0, 74, 80
2, 46460, Note_off_c, 0, 72, 100
2, 46464, Note_on_c, 0, 72, 80
2, 46508, Note_off_c, 0, 74, 100
2, 46512, Note_on_c, 0, 74, 80
2, 46556, Note_off_c, 0, 72, 100
2, 46560, Note_on_c, 0, 72, 80
2, 46604, Note_off_c, 0, 74, 100
2, 46608, Note_on_c, 0, 74, 80
2, 46652, Note_off_c, 0, 72, 100
2, 46656, Note_on_c, 0, 72, 80
2, 46700, Note_off_c, 0, 74, 100
2, 46704, Note_on_c, 0, 74, 80
2, 46748, Note_off_c, 0, 72, 100
2, 46752, Note_on_c, 0, 72, 80
2, 46796, Note_off_c, 0, 74, 100
2, 46800, Note_on_c, 0, 74, 80
2, 46844, Note_off_c, 0, 72, 100
2, 46848, Note_on_c, 0, 72, 80
2, 46892, Note_off_c, 0, 74, 100
2, 46896, Note_on_c, 0, 74, 80
2, 46940, Note_off_c, 0, 72, 100
2, 46944, Note_on_c, 0, 72, 80
2, 46988, Note_off_c, 0, 74, 100
2, 46992, Note_on_c, 0, 74, 80
2, 47036, Note_off_c, 0, 72, 100
2, 47040, Note_on_c, 0, 72, 80
2, 47084, Note_off_c, 0, 74, 100
2, 47088, Note_on_c, 0, 74, 80
2, 47132, Note_off_c, 0, 72, 100
2, 47136, Note_on_c, 0, 72, 80
2, 47180, Note_off_c, 0, 74, 100
2, 47184, Note_on_c, 0, 74, 80
2, 47228, Note_off_c, 0, 72, 100
2, 47232, Note_on_c, 0, 72, 80
2, 47276, Note_off_c, 0, 74, 100
2, 47280, Note_on_c, 0, 74, 80
2, 47324, Note_off_c, 0, 72, 100
2, 47328, Note_on_c, 0, 71, 80
2, 47372, Note_off_c, 0, 74, 100
2, 47376, Note_on_c, 0, 72, 80
2, 47420, Note_off_c, 0, 71, 100
2, 47420, Note_off_c, 0, 72, 100
2, 47424, Note_on_c, 0, 76, 80
2, 47948, Note_off_c, 0, 76, 100
2, 47952, Note_on_c, 0, 72, 80
2, 47996, Note_off_c, 0, 72, 100
2, 48000, Note_on_c, 0, 67, 80
2, 48956, Note_off_c, 0, 67, 100
2, 48960, Note_on_c, 0, 66, 80
2, 49052, Note_off_c, 0, 66, 100
2, 49056, Note_on_c, 0, 67, 80
2, 49148, Note_off_c, 0, 67, 100
2, 49152, Note_on_c, 0, 68, 80
2, 49244, Note_off_c, 0, 68, 100
2, 49248, Note_on_c, 0, 69, 80
2, 49340, Note_off_c, 0, 69, 100
2, 49344, Note_on_c, 0, 70, 80
2, 49436, Note_off_c, 0, 70, 100
2, 49440, Note_on_c, 0, 71, 80
2, 49532, Note_off_c, 0, 71, 100
2, 49536, Note_on_c, 0, 72, 80
2, 49628, Note_off_c, 0, 72, 100
2, 49632, Note_on_c, 0, 73, 80
2, 49724, Note_off_c, 0, 73, 100
2, 49728, Note_on_c, 0, 74, 80
2, 49776, Note_on_c, 0, 76, 80
2, 49820, Note_off_c, 0, 74, 100
2, 49824, Note_on_c, 0, 74, 80
2, 49868, Note_off_c, 0, 76, 100
2, 49872, Note_on_c, 0, 76, 80
2, 49916, Note_off_c, 0, 74, 100
2, 49920, Note_on_c, 0, 74, 80
2, 49964, Note_off_c, 0, 76, 100
2, 49968, Note_on_c, 0, 76, 80
2, 50012, Note_off_c, 0, 74, 100
2, 50016, Note_on_c, 0, 74, 80
2, 50060, Note_off_c, 0, 76, 100
2, 50064, Note_on_c, 0, 76, 80
2, 50108, Note_off_c, 0, 74, 100
2, 50112, Note_on_c, 0, 74, 80
2, 50156, Note_off_c, 0, 76, 100
2, 50160, Note_on_c, 0, 76, 80
2, 50204, Note_off_c, 0, 74, 100
2, 50208, Note_on_c, 0, 74, 80
2, 50252, Note_off_c, 0, 76, 100
2, 50256, Note_on_c, 0, 76, 80
2, 50300, Note_off_c, 0, 74, 100
2, 50304, Note_on_c, 0, 74, 80
2, 50348, Note_off_c, 0, 76, 100
2, 50352, Note_on_c, 0, 76, 80
2, 50396, Note_off_c, 0, 74, 100
2, 50400, Note_on_c, 0, 74, 80
2, 50444, Note_off_c, 0, 76, 100
2, 50448, Note_on_c, 0, 76, 80
2, 50492, Note_off_c, 0, 74, 100
2, 50496, Note_on_c, 0, 74, 80
2, 50540, Note_off_c, 0, 76, 100
2, 50544, Note_on_c, 0, 76, 80
2, 50588, Note_off_c, 0, 74, 100
2, 50592, Note_on_c, 0, 74, 80
2, 50636, Note_off_c, 0, 76, 100
2, 50640, Note_on_c, 0, 76, 80
2, 50684, Note_off_c, 0, 74, 100
2, 50688, Note_on_c, 0, 74, 80
2, 50732, Note_off_c, 0, 76, 100
2, 50736, Note_on_c, 0, 76, 80
2, 50780, Note_off_c, 0, 74, 100
2, 50784, Note_on_c, 0, 73, 80
2, 50828, Note_off_c, 0, 76, 100
2, 50832, Note_on_c, 0, 74, 80
2, 50876, Note_off_c, 0, 73, 100
2, 50876, Note_off_c, 0, 74, 100
2, 50880, Note_on_c, 0, 79, 80
2, 51332, Note_off_c, 0, 79, 100
2, 51336, Note_on_c, 0, 77, 80
2, 51360, Note_on_c, 0, 76, 80
2, 51374, Note_off_c, 0, 77, 100
2, 51384, Note_on_c, 0, 74, 80
2, 51400, Note_off_c, 0, 76, 100
2, 51408, Note_on_c, 0, 72, 80
2, 51422, Note_off_c, 0, 74, 100
2, 51432, Note_on_c, 0, 71, 80
2, 51448, Note_off_c, 0, 72, 100
2, 51452, Note_off_c, 0, 71, 100
2, 51456, Note_on_c, 0, 69, 80
2, 51644, Note_off_c, 0, 69, 100
2, 51648, Note_on_c, 0, 67, 80
2, 52412, Note_off_c, 0, 67, 100
2, 52416, Note_on_c, 0, 67, 80
2, 52508, Note_off_c, 0, 67, 100
2, 52512, Note_on_c, 0, 69, 80
2, 52604, Note_off_c, 0, 69, 100
2, 52608, Note_on_c, 0, 70, 80
2, 52700, Note_off_c, 0, 70, 100
2, 52704, Note_on_c, 0, 71, 80
2, 52796, Note_off_c, 0, 71, 100
2, 52800, Note_on_c, 0, 72, 80
2, 52892, Note_off_c, 0, 72, 100
2, 52896, Note_on_c, 0, 73, 80
2, 52988, Note_off_c, 0, 73, 100
2, 52992, Note_on_c, 0, 74, 80
2, 53084, Note_off_c, 0, 74, 100
2, 53088, Note_on_c, 0, 75, 80
2, 53180, Note_off_c, 0, 75, 100
2, 53184, Note_on_c, 0, 76, 80
2, 53222, Note_on_c, 0, 77, 80
2, 53260, Note_on_c, 0, 76, 80
2, 53264, Note_off_c, 0, 76, 100
2, 53298, Note_on_c, 0, 75, 80
2, 53302, Note_off_c, 0, 77, 100
2, 53336, Note_on_c, 0, 76, 80
2, 53340, Note_off_c, 0, 76, 100
2, 53376, Note_on_c, 0, 84, 80
2, 53378, Note_off_c, 0, 75, 100
2, 53428, Note_off_c, 0, 76, 100
2, 53564, Note_off_c, 0, 84, 100
2, 53760, Note_on_c, 0, 77, 80
2, 53798, Note_on_c, 0, 79, 80
2, 53836, Note_on_c, 0, 77, 80
2, 53840, Note_off_c, 0, 77, 100
2, 53874, Note_on_c, 0, 76, 80
2, 53878, Note_off_c, 0, 79, 100
2, 53912, Note_on_c, 0, 79, 80
2, 53916, Note_off_c, 0, 77, 100
2, 53952, Note_on_c, 0, 84, 80
2, 53954, Note_off_c, 0, 76, 100
2, 54004, Note_off_c, 0, 79, 100
2, 54140, Note_off_c, 0, 84, 100
2, 54336, Note_on_c, 0, 79, 80
2, 54374, Note_on_c, 0, 81, 80
2, 54412, Note_on_c, 0, 79, 80
2, 54416, Note_off_c, 0, 79, 100
2, 54450, Note_on_c, 0, 78, 80
2, 54454, Note_off_c, 0, 81, 100
2, 54488, Note_on_c, 0, 79, 80
2, 54492, Note_off_c, 0, 79, 100
2, 54528, Note_on_c, 0, 84, 80
2, 54530, Note_off_c, 0, 78, 100
2, 54580, Note_off_c, 0, 79, 100
2, 54716, Note_off_c, 0, 84, 100
2, 54912, Note_on_c, 0, 80, 80
2, 55100, Note_off_c, 0, 80, 100
2, 55104, Note_on_c, 0, 81, 84
2, 55676, Note_off_c, 0, 81, 100
2, 55680, Note_on_c, 0, 81, 99
2, 56252, Note_off_c, 0, 81, 100
2, 56256, Note_on_c, 0, 79, 80
2, 56276, Note_off_c, 0, 79, 100
2, 56278, Note_on_c, 0, 77, 80
2, 56348, Note_off_c, 0, 77, 100
2, 56352, Note_on_c, 0, 76, 80
2, 56444, Note_off_c, 0, 76, 100
2, 56448, Note_on_c, 0, 77, 80
2, 56540, Note_off_c, 0, 77, 100
2, 56544, Note_on_c, 0, 74, 80
2, 56636, Note_off_c, 0, 74, 100
2, 56640, Note_on_c, 0, 72, 80
2, 56684, Note_off_c, 0, 72, 100
2, 56688, Note_on_c, 0, 74, 80
2, 56732, Note_off_c, 0, 74, 100
2, 56736, Note_on_c, 0, 72, 80
2, 56780, Note_off_c, 0, 72, 100
2, 56784, Note_on_c, 0, 71, 80
2, 56828, Note_off_c, 0, 71, 100
2, 56832, Note_on_c, 0, 72, 81
2, 56876, Note_off_c, 0, 72, 100
2, 56928, Note_on_c, 0, 74, 84
2, 56972, Note_off_c, 0, 74, 100
2, 57024, Note_on_c, 0, 76, 87
2, 57068, Note_off_c, 0, 76, 100
2, 57120, Note_on_c, 0, 77, 91
2, 57164, Note_off_c, 0, 77, 100
2, 57216, Note_on_c, 0, 79, 94
2, 57260, Note_off_c, 0, 79, 100
2, 57312, Note_on_c, 0, 81, 97
2, 57356, Note_off_c, 0, 81, 100
2, 57408, Note_on_c, 0, 83, 100
2, 57452, Note_off_c, 0, 83, 100
2, 57504, Note_on_c, 0, 84, 103
2, 57548, Note_off_c, 0, 84, 100
2, 57600, Note_on_c, 0, 86, 106
2, 57644, Note_off_c, 0, 86, 100
2, 57696, Note_on_c, 0, 88, 110
2, 57740, Note_off_c, 0, 88, 100
2, 57792, Note_on_c, 0, 86, 113
2, 57816, Note_on_c, 0, 88, 114
2, 57830, Note_off_c, 0, 86, 100
2, 57840, Note_on_c, 0, 89, 114
2, 57852, Note_off_c, 0, 88, 100
2, 58028, Note_off_c, 0, 89, 100
2, 58176, Note_on_c, 0, 71, 80
2, 58364, Note_off_c, 0, 71, 100
2, 58368, Note_on_c, 0, 74, 80
2, 58368, Note_on_c, 0, 65, 80
2, 58940, Note_off_c, 0, 74, 100
2, 58940, Note_off_c, 0, 65, 100
2, 58944, Note_on_c, 0, 72, 80
2, 58944, Note_on_c, 0, 64, 80
2, 59132, Note_off_c, 0, 72, 100
2, 59132, Note_off_c, 0, 64, 100
2, 59136, Note_on_c, 0, 67, 80
2, 59324, Note_off_c, 0, 67, 100
2, 59328, Note_on_c, 0, 63, 80
2, 59516, Note_off_c, 0, 63, 100
2, 59520, Note_on_c, 0, 60, 80
2, 59708, Note_off_c, 0, 60, 100
2, 59712, Note_on_c, 0, 55, 80
2, 59900, Note_off_c, 0, 55, 100
2, 59904, Note_on_c, 0, 51, 80
2, 60092, Note_off_c, 0, 51, 100
2, 60096, Note_on_c, 0, 48, 70
2, 60476, Note_off_c, 0, 48, 100
2, 61824, Note_on_c, 0, 75, 70
2, 61824, Note_on_c, 0, 63, 70
2, 62396, Note_off_c, 0, 75, 100
2, 62396, Note_off_c, 0, 63, 100
2, 62400, Note_on_c, 0, 72, 70
2, 62400, Note_on_c, 0, 60, 70
2, 62972, Note_off_c, 0, 72, 100
2, 62972, Note_off_c, 0, 60, 100
2, 62976, Note_on_c, 0, 68, 70
2, 62976, Note_on_c, 0, 56, 70
2, 63548, Note_off_c, 0, 68, 100
2, 63548, Note_off_c, 0, 56, 100
2, 63552, Note_on_c, 0, 65, 70
2, 63552, Note_on_c, 0, 53, 70
2, 65084, Note_off_c, 0, 53, 100
2, 65084, Note_off_c, 0, 65, 100
2, 65088, Note_on_c, 0, 65, 70
2, 65180, Note_off_c, 0, 65, 100
2, 65184, Note_on_c, 0, 77, 70
2, 65276, Note_off_c, 0, 77, 100
2, 65280, Note_on_c, 0, 77, 70
2, 65280, Note_on_c, 0, 65, 70
2, 65756, Note_off_c, 0, 77, 100
2, 65756, Note_off_c, 0, 65, 100
2, 65760, Note_on_c, 0, 75, 81
2, 65760, Note_on_c, 0, 63, 81
2, 65852, Note_off_c, 0, 75, 100
2, 65852, Note_off_c, 0, 63, 100
2, 65856, Note_on_c, 0, 75, 84
2, 65856, Note_on_c, 0, 63, 84
2, 66044, Note_off_c, 0, 75, 100
2, 66044, Note_off_c, 0, 63, 100
2, 66048, Note_on_c, 0, 73, 88
2, 66048, Note_on_c, 0, 61, 88
2, 66332, Note_off_c, 0, 73, 100
2, 66332, Note_off_c, 0, 61, 100
2, 66336, Note_on_c, 0, 72, 95
2, 66336, Note_on_c, 0, 60, 95
2, 66428, Note_off_c, 0, 72, 100
2, 66428, Note_off_c, 0, 60, 100
2, 66432, Note_on_c, 0, 72, 98
2, 66432, Note_on_c, 0, 60, 98
2, 66620, Note_off_c, 0, 72, 100
2, 66620, Note_off_c, 0, 60, 100
2, 66624, Note_on_c, 0, 70, 102
2, 66624, Note_on_c, 0, 58, 102
2, 66908, Note_off_c, 0, 70, 100
2, 66908, Note_off_c, 0, 58, 100
2, 66912, Note_on_c, 0, 68, 109
2, 66912, Note_on_c, 0, 56, 109
2, 67004, Note_off_c, 0, 68, 100
2, 67004, Note_off_c, 0, 56, 100
2, 67008, Note_on_c, 0, 67, 110
2, 67008, Note_on_c, 0, 55, 110
2, 67580, Note_off_c, 0, 67, 100
2, 67580, Note_off_c, 0, 55, 100
2, 67584, Note_on_c, 0, 73, 110
2, 67584, Note_on_c, 0, 67, 110
2, 67584, Note_on_c, 0, 61, 110
2, 68156, Note_off_c, 0, 73, 100
2, 68156, Note_off_c, 0, 67, 100
2, 68156, Note_off_c, 0, 61, 100
2, 68160, Note_on_c, 0, 72, 110
2, 68160, Note_on_c, 0, 68, 110
2, 68160, Note_on_c, 0, 60, 110
2, 68732, Note_off_c, 0, 72, 100
2, 68732, Note_off_c, 0, 68, 100
2, 68732, Note_off_c, 0, 60, 100
2, 68736, Note_on_c, 0, 70, 110
2, 68736, Note_on_c, 0, 61, 110
2, 68736, Note_on_c, 0, 58, 110
2, 69308, Note_off_c, 0, 70, 100
2, 69308, Note_off_c, 0, 61, 100
2, 69308, Note_off_c, 0, 58, 100
2, 69312, Note_on_c, 0, 68, 103
2, 69312, Note_on_c, 0, 60, 103
2, 69312, Note_on_c, 0, 56, 103
2, 69884, Note_off_c, 0, 68, 100
2, 69884, Note_off_c, 0, 60, 100
2, 69884, Note_off_c, 0, 56, 100
2, 69888, Note_on_c, 0, 63, 96
2, 69888, Note_on_c, 0, 61, 96
2, 69888, Note_on_c, 0, 58, 96
2, 69888, Note_on_c, 0, 55, 96
2, 70460, Note_off_c, 0, 63, 100
2, 70460, Note_off_c, 0, 61, 100
2, 70460, Note_off_c, 0, 58, 100
2, 70460, Note_off_c, 0, 55, 100
2, 70464, Note_on_c, 0, 63, 110
2, 70464, Note_on_c, 0, 60, 110
2, 70464, Note_on_c, 0, 56, 110
2, 70556, Note_off_c, 0, 63, 100
2, 70556, Note_off_c, 0, 60, 100
2, 70556, Note_off_c, 0, 56, 100
2, 70560, Note_on_c, 0, 63, 80
2, 70560, Note_on_c, 0, 60, 80
2, 70652, Note_off_c, 0, 63, 100
2, 70652, Note_off_c, 0, 60, 100
2, 70656, Note_on_c, 0, 63, 80
2, 70656, Note_on_c, 0, 60, 80
2, 70748, Note_off_c, 0, 63, 100
2, 70748, Note_off_c, 0, 60, 100
2, 70752, Note_on_c, 0, 63, 80
2, 70752, Note_on_c, 0, 60, 80
2, 70844, Note_off_c, 0, 63, 100
2, 70844, Note_off_c, 0, 60, 100
2, 70848, Note_on_c, 0, 63, 80
2, 70848, Note_on_c, 0, 60, 80
2, 70940, Note_off_c, 0, 63, 100
2, 70940, Note_off_c, 0, 60, 100
2, 70944, Note_on_c, 0, 63, 80
2, 70944, Note_on_c, 0, 60, 80
2, 71036, Note_off_c, 0, 63, 100
2, 71036, Note_off_c, 0, 60, 100
2, 71040, Note_on_c, 0, 63, 80
2, 71040, Note_on_c, 0, 60, 80
2, 71132, Note_off_c, 0, 63, 100
2, 71132, Note_off_c, 0, 60, 100
2, 71136, Note_on_c, 0, 63, 80
2, 71136, Note_on_c, 0, 60, 80
2, 71228, Note_off_c, 0, 63, 100
2, 71228, Note_off_c, 0, 60, 100
2, 71232, Note_on_c, 0, 63, 80
2, 71232, Note_on_c, 0, 60, 80
2, 71324, Note_off_c, 0, 63, 100
2, 71324, Note_off_c, 0, 60, 100
2, 71328, Note_on_c, 0, 63, 80
2, 71328, Note_on_c, 0, 60, 80
2, 71420, Note_off_c, 0, 63, 100
2, 71420, Note_off_c, 0, 60, 100
2, 71424, Note_on_c, 0, 63, 80
2, 71424, Note_on_c, 0, 60, 80
2, 71516, Note_off_c, 0, 63, 100
2, 71516, Note_off_c, 0, 60, 100
2, 71520, Note_on_c, 0, 63, 80
2, 71520, Note_on_c, 0, 60, 80
2, 71612, Note_off_c, 0, 63, 100
2, 71612, Note_off_c, 0, 60, 100
2, 71616, Note_on_c, 0, 63, 80
2, 71616, Note_on_c, 0, 60, 80
2, 71708, Note_off_c, 0, 63, 100
2, 71708, Note_off_c, 0, 60, 100
2, 71712, Note_on_c, 0, 63, 80
2, 71712, Note_on_c, 0, 60, 80
2, 71804, Note_off_c, 0, 63, 100
2, 71804, Note_off_c, 0, 60, 100
2, 71808, Note_on_c, 0, 63, 80
2, 71808, Note_on_c, 0, 60, 80
2, 71900, Note_off_c, 0, 63, 100
2, 71900, Note_off_c, 0, 60, 100
2, 71904, Note_on_c, 0, 63, 80
2, 71904, Note_on_c, 0, 60, 80
2, 71996, Note_off_c, 0, 63, 100
2, 71996, Note_off_c, 0, 60, 100
2, 72000, Note_on_c, 0, 63, 80
2, 72000, Note_on_c, 0, 60, 80
2, 72092, Note_off_c, 0, 63, 100
2, 72092, Note_off_c, 0, 60, 100
2, 72096, Note_on_c, 0, 63, 80
2, 72096, Note_on_c, 0, 60, 80
2, 72188, Note_off_c, 0, 63, 100
2, 72188, Note_off_c, 0, 60, 100
2, 72192, Note_on_c, 0, 84, 80
2, 72212, Note_off_c, 0, 84, 100
2, 72216, Note_on_c, 0, 85, 80
2, 72236, Note_off_c, 0, 85, 100
2, 72240, Note_on_c, 0, 87, 80
2, 72284, Note_off_c, 0, 87, 100
2, 72288, Note_on_c, 0, 85, 80
2, 72332, Note_off_c, 0, 85, 100
2, 72384, Note_on_c, 0, 84, 80
2, 72428, Note_off_c, 0, 84, 100
2, 72480, Note_on_c, 0, 82, 80
2, 72524, Note_off_c, 0, 82, 100
2, 72576, Note_on_c, 0, 80, 80
2, 72620, Note_off_c, 0, 80, 100
2, 72672, Note_on_c, 0, 79, 80
2, 72716, Note_off_c, 0, 79, 100
2, 72768, Note_on_c, 0, 77, 80
2, 72812, Note_off_c, 0, 77, 100
2, 72864, Note_on_c, 0, 75, 80
2, 72908, Note_off_c, 0, 75, 100
2, 72960, Note_on_c, 0, 73, 80
2, 73004, Note_off_c, 0, 73, 100
2, 73056, Note_on_c, 0, 72, 80
2, 73100, Note_off_c, 0, 72, 100
2, 73152, Note_on_c, 0, 70, 80
2, 73196, Note_off_c, 0, 70, 100
2, 73248, Note_on_c, 0, 68, 80
2, 73292, Note_off_c, 0, 68, 100
2, 73344, Note_on_c, 0, 67, 80
2, 73388, Note_off_c, 0, 67, 100
2, 73440, Note_on_c, 0, 68, 80
2, 73484, Note_off_c, 0, 68, 100
2, 73536, Note_on_c, 0, 70, 80
2, 73580, Note_off_c, 0, 70, 100
2, 73632, Note_on_c, 0, 68, 80
2, 73676, Note_off_c, 0, 68, 100
2, 73728, Note_on_c, 0, 72, 80
2, 73772, Note_off_c, 0, 72, 100
2, 73824, Note_on_c, 0, 68, 80
2, 73868, Note_off_c, 0, 68, 100
2, 73920, Note_on_c, 0, 67, 110
2, 74012, Note_off_c, 0, 67, 100
2, 74016, Note_on_c, 0, 63, 80
2, 74016, Note_on_c, 0, 61, 80
2, 74016, Note_on_c, 0, 58, 80
2, 74108, Note_off_c, 0, 63, 100
2, 74108, Note_off_c, 0, 61, 100
2, 74108, Note_off_c, 0, 58, 100
2, 74112, Note_on_c, 0, 63, 80
2, 74112, Note_on_c, 0, 61, 80
2, 74112, Note_on_c, 0, 58, 80
2, 74204, Note_off_c, 0, 63, 100
2, 74204, Note_off_c, 0, 61, 100
2, 74204, Note_off_c, 0, 58, 100
2, 74208, Note_on_c, 0, 63, 80
2, 74208, Note_on_c, 0, 61, 80
2, 74208, Note_on_c, 0, 58, 80
2, 74300, Note_off_c, 0, 63, 100
2, 74300, Note_off_c, 0, 61, 100
2, 74300, Note_off_c, 0, 58, 100
2, 74304, Note_on_c, 0, 63, 80
2, 74304, Note_on_c, 0, 61, 80
2, 74304, Note_on_c, 0, 58, 80
2, 74396, Note_off_c, 0, 63, 100
2, 74396, Note_off_c, 0, 61, 100
2, 74396, Note_off_c, 0, 58, 100
2, 74400, Note_on_c, 0, 61, 80
2, 74400, Note_on_c, 0, 63, 80
2, 74400, Note_on_c, 0, 58, 80
2, 74492, Note_off_c, 0, 61, 100
2, 74492, Note_off_c, 0, 63, 100
2, 74492, Note_off_c, 0, 58, 100
2, 74496, Note_on_c, 0, 63, 80
2, 74496, Note_on_c, 0, 61, 80
2, 74496, Note_on_c, 0, 58, 80
2, 74588, Note_off_c, 0, 63, 100
2, 74588, Note_off_c, 0, 61, 100
2, 74588, Note_off_c, 0, 58, 100
2, 74592, Note_on_c, 0, 63, 80
2, 74592, Note_on_c, 0, 61, 80
2, 74592, Note_on_c, 0, 58, 80
2, 74684, Note_off_c, 0, 63, 100
2, 74684, Note_off_c, 0, 61, 100
2, 74684, Note_off_c, 0, 58, 100
2, 74688, Note_on_c, 0, 63, 80
2, 74688, Note_on_c, 0, 61, 80
2, 74688, Note_on_c, 0, 58, 80
2, 74780, Note_off_c, 0, 63, 100
2, 74780, Note_off_c, 0, 61, 100
2, 74780, Note_off_c, 0, 58, 100
2, 74784, Note_on_c, 0, 63, 80
2, 74784, Note_on_c, 0, 61, 80
2, 74784, Note_on_c, 0, 58, 80
2, 74876, Note_off_c, 0, 63, 100
2, 74876, Note_off_c, 0, 61, 100
2, 74876, Note_off_c, 0, 58, 100
2, 74880, Note_on_c, 0, 63, 80
2, 74880, Note_on_c, 0, 61, 80
2, 74880, Note_on_c, 0, 58, 80
2, 74972, Note_off_c, 0, 63, 100
2, 74972, Note_off_c, 0, 61, 100
2, 74972, Note_off_c, 0, 58, 100
2, 74976, Note_on_c, 0, 63, 80
2, 74976, Note_on_c, 0, 61, 80
2, 74976, Note_on_c, 0, 58, 80
2, 75068, Note_off_c, 0, 63, 100
2, 75068, Note_off_c, 0, 61, 100
2, 75068, Note_off_c, 0, 58, 100
2, 75072, Note_on_c, 0, 63, 80
2, 75072, Note_on_c, 0, 61, 80
2, 75072, Note_on_c, 0, 58, 80
2, 75164, Note_off_c, 0, 63, 100
2, 75164, Note_off_c, 0, 61, 100
2, 75164, Note_off_c, 0, 58, 100
2, 75168, Note_on_c, 0, 63, 80
2, 75168, Note_on_c, 0, 61, 80
2, 75168, Note_on_c, 0, 58, 80
2, 75260, Note_off_c, 0, 63, 100
2, 75260, Note_off_c, 0, 61, 100
2, 75260, Note_off_c, 0, 58, 100
2, 75264, Note_on_c, 0, 63, 80
2, 75264, Note_on_c, 0, 61, 80
2, 75264, Note_on_c, 0, 58, 80
2, 75356, Note_off_c, 0, 63, 100
2, 75356, Note_off_c, 0, 61, 100
2, 75356, Note_off_c, 0, 58, 100
2, 75360, Note_on_c, 0, 63, 80
2, 75360, Note_on_c, 0, 61, 80
2, 75360, Note_on_c, 0, 58, 80
2, 75452, Note_off_c, 0, 63, 100
2, 75452, Note_off_c, 0, 61, 100
2, 75452, Note_off_c, 0, 58, 100
2, 75456, Note_on_c, 0, 63, 80
2, 75456, Note_on_c, 0, 61, 80
2, 75456, Note_on_c, 0, 58, 80
2, 75548, Note_off_c, 0, 63, 100
2, 75548, Note_off_c, 0, 61, 100
2, 75548, Note_off_c, 0, 58, 100
2, 75552, Note_on_c, 0, 63, 80
2, 75552, Note_on_c, 0, 61, 80
2, 75552, Note_on_c, 0, 58, 80
2, 75644, Note_off_c, 0, 63, 100
2, 75644, Note_off_c, 0, 61, 100
2, 75644, Note_off_c, 0, 58, 100
2, 75648, Note_on_c, 0, 63, 80
2, 75648, Note_on_c, 0, 61, 80
2, 75740, Note_off_c, 0, 63, 100
2, 75740, Note_off_c, 0, 61, 100
2, 75744, Note_on_c, 0, 63, 80
2, 75744, Note_on_c, 0, 61, 80
2, 75836, Note_off_c, 0, 63, 100
2, 75836, Note_off_c, 0, 61, 100
2, 75840, Note_on_c, 0, 63, 80
2, 75840, Note_on_c, 0, 61, 80
2, 75932, Note_off_c, 0, 63, 100
2, 75932, Note_off_c, 0, 61, 100
2, 75936, Note_on_c, 0, 63, 80
2, 75936, Note_on_c, 0, 61, 80
2, 76028, Note_off_c, 0, 63, 100
2, 76028, Note_off_c, 0, 61, 100
2, 76032, Note_on_c, 0, 63, 80
2, 76032, Note_on_c, 0, 61, 80
2, 76124, Note_off_c, 0, 63, 100
2, 76124, Note_off_c, 0, 61, 100
2, 76128, Note_on_c, 0, 63, 80
2, 76128, Note_on_c, 0, 61, 80
2, 76220, Note_off_c, 0, 63, 100
2, 76220, Note_off_c, 0, 61, 100
2, 76224, Note_on_c, 0, 63, 80
2, 76224, Note_on_c, 0, 61, 80
2, 76316, Note_off_c, 0, 63, 100
2, 76316, Note_off_c, 0, 61, 100
2, 76320, Note_on_c, 0, 63, 80
2, 76320, Note_on_c, 0, 61, 80
2, 76412, Note_off_c, 0, 63, 100
2, 76412, Note_off_c, 0, 61, 100
2, 76416, Note_on_c, 0, 63, 80
2, 76416, Note_on_c, 0, 61, 80
2, 76508, Note_off_c, 0, 63, 100
2, 76508, Note_off_c, 0, 61, 100
2, 76512, Note_on_c, 0, 63, 80
2, 76512, Note_on_c, 0, 61, 80
2, 76604, Note_off_c, 0, 63, 100
2, 76604, Note_off_c, 0, 61, 100
2, 76608, Note_on_c, 0, 63, 80
2, 76608, Note_on_c, 0, 61, 80
2, 76700, Note_off_c, 0, 63, 100
2, 76700, Note_off_c, 0, 61, 100
2, 76704, Note_on_c, 0, 63, 80
2, 76704, Note_on_c, 0, 61, 80
2, 76796, Note_off_c, 0, 63, 100
2, 76796, Note_off_c, 0, 61, 100
2, 76800, Note_on_c, 0, 63, 80
2, 76800, Note_on_c, 0, 61, 80
2, 76800, Note_on_c, 0, 58, 80
2, 76892, Note_off_c, 0, 63, 100
2, 76892, Note_off_c, 0, 61, 100
2, 76892, Note_off_c, 0, 58, 100
2, 76896, Note_on_c, 0, 63, 80
2, 76896, Note_on_c, 0, 61, 80
2, 76896, Note_on_c, 0, 58, 80
2, 76988, Note_off_c, 0, 63, 100
2, 76988, Note_off_c, 0, 61, 100
2, 76988, Note_off_c, 0, 58, 100
2, 76992, Note_on_c, 0, 63, 80
2, 76992, Note_on_c, 0, 61, 80
2, 76992, Note_on_c, 0, 58, 80
2, 77084, Note_off_c, 0, 63, 100
2, 77084, Note_off_c, 0, 61, 100
2, 77084, Note_off_c, 0, 58, 100
2, 77088, Note_on_c, 0, 63, 80
2, 77088, Note_on_c, 0, 61, 80
2, 77088, Note_on_c, 0, 58, 80
2, 77180, Note_off_c, 0, 63, 100
2, 77180, Note_off_c, 0, 61, 100
2, 77180, Note_off_c, 0, 58, 100
2, 77184, Note_on_c, 0, 63, 80
2, 77184, Note_on_c, 0, 61, 80
2, 77184, Note_on_c, 0, 58, 80
2, 77276, Note_off_c, 0, 63, 100
2, 77276, Note_off_c, 0, 61, 100
2, 77276, Note_off_c, 0, 58, 100
2, 77280, Note_on_c, 0, 63, 80
2, 77280, Note_on_c, 0, 61, 80
2, 77280, Note_on_c, 0, 58, 80
2, 77372, Note_off_c, 0, 63, 100
2, 77372, Note_off_c, 0, 61, 100
2, 77372, Note_off_c, 0, 58, 100
2, 77376, Note_on_c, 0, 63, 110
2, 77376, Note_on_c, 0, 60, 110
2, 77468, Note_off_c, 0, 63, 100
2, 77468, Note_off_c, 0, 60, 100
2, 77472, Note_on_c, 0, 63, 80
2, 77472, Note_on_c, 0, 60, 80
2, 77564, Note_off_c, 0, 63, 100
2, 77564, Note_off_c, 0, 60, 100
2, 77568, Note_on_c, 0, 63, 80
2, 77568, Note_on_c, 0, 60, 80
2, 77660, Note_off_c, 0, 63, 100
2, 77660, Note_off_c, 0, 60, 100
2, 77664, Note_on_c, 0, 63, 80
2, 77664, Note_on_c, 0, 60, 80
2, 77756, Note_off_c, 0, 63, 100
2, 77756, Note_off_c, 0, 60, 100
2, 77760, Note_on_c, 0, 63, 80
2, 77760, Note_on_c, 0, 60, 80
2, 77852, Note_off_c, 0, 63, 100
2, 77852, Note_off_c, 0, 60, 100
2, 77856, Note_on_c, 0, 63, 80
2, 77856, Note_on_c, 0, 60, 80
2, 77948, Note_off_c, 0, 63, 100
2, 77948, Note_off_c, 0, 60, 100
2, 77952, Note_on_c, 0, 63, 80
2, 77952, Note_on_c, 0, 60, 80
2, 78044, Note_off_c, 0, 63, 100
2, 78044, Note_off_c, 0, 60, 100
2, 78048, Note_on_c, 0, 63, 80
2, 78048, Note_on_c, 0, 60, 80
2, 78140, Note_off_c, 0, 63, 100
2, 78140, Note_off_c, 0, 60, 100
2, 78144, Note_on_c, 0, 63, 80
2, 78144, Note_on_c, 0, 60, 80
2, 78236, Note_off_c, 0, 63, 100
2, 78236, Note_off_c, 0, 60, 100
2, 78240, Note_on_c, 0, 63, 80
2, 78240, Note_on_c, 0, 60, 80
2, 78332, Note_off_c, 0, 63, 100
2, 78332, Note_off_c, 0, 60, 100
2, 78336, Note_on_c, 0, 63, 80
2, 78336, Note_on_c, 0, 60, 80
2, 78428, Note_off_c, 0, 63, 100
2, 78428, Note_off_c, 0, 60, 100
2, 78432, Note_on_c, 0, 63, 80
2, 78432, Note_on_c, 0, 60, 80
2, 78524, Note_off_c, 0, 63, 100
2, 78524, Note_off_c, 0, 60, 100
2, 78528, Note_on_c, 0, 64, 80
2, 78528, Note_on_c, 0, 60, 80
2, 78620, Note_off_c, 0, 64, 100
2, 78620, Note_off_c, 0, 60, 100
2, 78624, Note_on_c, 0, 64, 80
2, 78624, Note_on_c, 0, 60, 80
2, 78716, Note_off_c, 0, 64, 100
2, 78716, Note_off_c, 0, 60, 100
2, 78720, Note_on_c, 0, 64, 80
2, 78720, Note_on_c, 0, 60, 80
2, 78812, Note_off_c, 0, 64, 100
2, 78812, Note_off_c, 0, 60, 100
2, 78816, Note_on_c, 0, 64, 80
2, 78816, Note_on_c, 0, 60, 80
2, 78908, Note_off_c, 0, 64, 100
2, 78908, Note_off_c, 0, 60, 100
2, 78912, Note_on_c, 0, 64, 80
2, 78912, Note_on_c, 0, 60, 80
2, 79004, Note_off_c, 0, 64, 100
2, 79004, Note_off_c, 0, 60, 100
2, 79008, Note_on_c, 0, 64, 80
2, 79008, Note_on_c, 0, 60, 80
2, 79100, Note_off_c, 0, 64, 100
2, 79100, Note_off_c, 0, 60, 100
2, 79104, Note_on_c, 0, 80, 80
2, 79104, Note_on_c, 0, 82, 80
2, 79124, Note_off_c, 0, 80, 100
2, 79124, Note_off_c, 0, 82, 100
2, 79152, Note_on_c, 0, 84, 80
2, 79196, Note_off_c, 0, 84, 100
2, 79200, Note_on_c, 0, 82, 80
2, 79244, Note_off_c, 0, 82, 100
2, 79296, Note_on_c, 0, 80, 80
2, 79340, Note_off_c, 0, 80, 100
2, 79392, Note_on_c, 0, 79, 80
2, 79436, Note_off_c, 0, 79, 100
2, 79488, Note_on_c, 0, 77, 80
2, 79532, Note_off_c, 0, 77, 100
2, 79584, Note_on_c, 0, 75, 80
2, 79628, Note_off_c, 0, 75, 100
2, 79680, Note_on_c, 0, 73, 80
2, 79724, Note_off_c, 0, 73, 100
2, 79776, Note_on_c, 0, 72, 80
2, 79820, Note_off_c, 0, 72, 100
2, 79872, Note_on_c, 0, 70, 80
2, 79916, Note_off_c, 0, 70, 100
2, 79968, Note_on_c, 0, 68, 80
2, 80012, Note_off_c, 0, 68, 100
2, 80064, Note_on_c, 0, 67, 80
2, 80108, Note_off_c, 0, 67, 100
2, 80160, Note_on_c, 0, 65, 80
2, 80204, Note_off_c, 0, 65, 100
2, 80256, Note_on_c, 0, 64, 80
2, 80300, Note_off_c, 0, 64, 100
2, 80352, Note_on_c, 0, 65, 80
2, 80396, Note_off_c, 0, 65, 100
2, 80448, Note_on_c, 0, 67, 80
2, 80492, Note_off_c, 0, 67, 100
2, 80544, Note_on_c, 0, 65, 80
2, 80588, Note_off_c, 0, 65, 100
2, 80640, Note_on_c, 0, 68, 80
2, 80684, Note_off_c, 0, 68, 100
2, 80736, Note_on_c, 0, 65, 80
2, 80780, Note_off_c, 0, 65, 100
2, 80832, Note_on_c, 0, 64, 110
2, 80924, Note_off_c, 0, 64, 100
2, 80928, Note_on_c, 0, 60, 80
2, 80928, Note_on_c, 0, 58, 80
2, 80928, Note_on_c, 0, 55, 80
2, 81020, Note_off_c, 0, 60, 100
2, 81020, Note_off_c, 0, 58, 100
2, 81020, Note_off_c, 0, 55, 100
2, 81024, Note_on_c, 0, 60, 80
2, 81024, Note_on_c, 0, 58, 80
2, 81024, Note_on_c, 0, 55, 80
2, 81116, Note_off_c, 0, 60, 100
2, 81116, Note_off_c, 0, 58, 100
2, 81116, Note_off_c, 0, 55, 100
2, 81120, Note_on_c, 0, 60, 80
2, 81120, Note_on_c, 0, 58, 80
2, 81120, Note_on_c, 0, 55, 80
2, 81212, Note_off_c, 0, 60, 100
2, 81212, Note_off_c, 0, 58, 100
2, 81212, Note_off_c, 0, 55, 100
2, 81216, Note_on_c, 0, 60, 80
2, 81216, Note_on_c, 0, 58, 80
2, 81216, Note_on_c, 0, 55, 80
2, 81308, Note_off_c, 0, 60, 100
2, 81308, Note_off_c, 0, 58, 100
2, 81308, Note_off_c, 0, 55, 100
2, 81312, Note_on_c, 0, 60, 80
2, 81312, Note_on_c, 0, 58, 80
2, 81312, Note_on_c, 0, 55, 80
2, 81404, Note_off_c, 0, 60, 100
2, 81404, Note_off_c, 0, 58, 100
2, 81404, Note_off_c, 0, 55, 100
2, 81408, Note_on_c, 0, 60, 80
2, 81408, Note_on_c, 0, 58, 80
2, 81408, Note_on_c, 0, 55, 80
2, 81500, Note_off_c, 0, 60, 100
2, 81500, Note_off_c, 0, 58, 100
2, 81500, Note_off_c, 0, 55, 100
2, 81504, Note_on_c, 0, 60, 80
2, 81504, Note_on_c, 0, 58, 80
2, 81504, Note_on_c, 0, 55, 80
2, 81596, Note_off_c, 0, 60, 100
2, 81596, Note_off_c, 0, 58, 100
2, 81596, Note_off_c, 0, 55, 100
2, 81600, Note_on_c, 0, 60, 80
2, 81600, Note_on_c, 0, 58, 80
2, 81600, Note_on_c, 0, 55, 80
2, 81692, Note_off_c, 0, 60, 100
2, 81692, Note_off_c, 0, 58, 100
2, 81692, Note_off_c, 0, 55, 100
2, 81696, Note_on_c, 0, 60, 80
2, 81696, Note_on_c, 0, 58, 80
2, 81696, Note_on_c, 0, 55, 80
2, 81788, Note_off_c, 0, 60, 100
2, 81788, Note_off_c, 0, 58, 100
2, 81788, Note_off_c, 0, 55, 100
2, 81792, Note_on_c, 0, 60, 80
2, 81792, Note_on_c, 0, 58, 80
2, 81792, Note_on_c, 0, 55, 80
2, 81884, Note_off_c, 0, 60, 100
2, 81884, Note_off_c, 0, 58, 100
2, 81884, Note_off_c, 0, 55, 100
2, 81888, Note_on_c, 0, 60, 80
2, 81888, Note_on_c, 0, 58, 80
2, 81888, Note_on_c, 0, 55, 80
2, 81980, Note_off_c, 0, 60, 100
2, 81980, Note_off_c, 0, 58, 100
2, 81980, Note_off_c, 0, 55, 100
2, 81984, Note_on_c, 0, 60, 80
2, 81984, Note_on_c, 0, 58, 80
2, 81984, Note_on_c, 0, 55, 80
2, 82076, Note_off_c, 0, 60, 100
2, 82076, Note_off_c, 0, 58, 100
2, 82076, Note_off_c, 0, 55, 100
2, 82080, Note_on_c, 0, 60, 80
2, 82080, Note_on_c, 0, 58, 80
2, 82080, Note_on_c, 0, 55, 80
2, 82172, Note_off_c, 0, 60, 100
2, 82172, Note_off_c, 0, 58, 100
2, 82172, Note_off_c, 0, 55, 100
2, 82176, Note_on_c, 0, 60, 80
2, 82176, Note_on_c, 0, 58, 80
2, 82176, Note_on_c, 0, 55, 80
2, 82268, Note_off_c, 0, 60, 100
2, 82268, Note_off_c, 0, 58, 100
2, 82268, Note_off_c, 0, 55, 100
2, 82272, Note_on_c, 0, 60, 80
2, 82272, Note_on_c, 0, 58, 80
2, 82272, Note_on_c, 0, 55, 80
2, 82364, Note_off_c, 0, 60, 100
2, 82364, Note_off_c, 0, 58, 100
2, 82364, Note_off_c, 0, 55, 100
2, 82368, Note_on_c, 0, 60, 80
2, 82368, Note_on_c, 0, 58, 80
2, 82368, Note_on_c, 0, 55, 80
2, 82460, Note_off_c, 0, 60, 100
2, 82460, Note_off_c, 0, 58, 100
2, 82460, Note_off_c, 0, 55, 100
2, 82464, Note_on_c, 0, 60, 80
2, 82464, Note_on_c, 0, 58, 80
2, 82464, Note_on_c, 0, 55, 80
2, 82556, Note_off_c, 0, 60, 100
2, 82556, Note_off_c, 0, 58, 100
2, 82556, Note_off_c, 0, 55, 100
2, 82560, Note_on_c, 0, 60, 80
2, 82560, Note_on_c, 0, 58, 80
2, 82652, Note_off_c, 0, 60, 100
2, 82652, Note_off_c, 0, 58, 100
2, 82656, Note_on_c, 0, 60, 80
2, 82656, Note_on_c, 0, 58, 80
2, 82748, Note_off_c, 0, 60, 100
2, 82748, Note_off_c, 0, 58, 100
2, 82752, Note_on_c, 0, 60, 80
2, 82752, Note_on_c, 0, 58, 80
2, 82844, Note_off_c, 0, 60, 100
2, 82844, Note_off_c, 0, 58, 100
2, 82848, Note_on_c, 0, 60, 80
2, 82848, Note_on_c, 0, 58, 80
2, 82940, Note_off_c, 0, 60, 100
2, 82940, Note_off_c, 0, 58, 100
2, 82944, Note_on_c, 0, 60, 80
2, 82944, Note_on_c, 0, 58, 80
2, 83036, Note_off_c, 0, 60, 100
2, 83036, Note_off_c, 0, 58, 100
2, 83040, Note_on_c, 0, 60, 80
2, 83040, Note_on_c, 0, 58, 80
2, 83132, Note_off_c, 0, 60, 100
2, 83132, Note_off_c, 0, 58, 100
2, 83136, Note_on_c, 0, 60, 80
2, 83136, Note_on_c, 0, 58, 80
2, 83228, Note_off_c, 0, 60, 100
2, 83228, Note_off_c, 0, 58, 100
2, 83232, Note_on_c, 0, 60, 80
2, 83232, Note_on_c, 0, 58, 80
2, 83324, Note_off_c, 0, 60, 100
2, 83324, Note_off_c, 0, 58, 100
2, 83328, Note_on_c, 0, 60, 80
2, 83328, Note_on_c, 0, 58, 80
2, 83420, Note_off_c, 0, 60, 100
2, 83420, Note_off_c, 0, 58, 100
2, 83424, Note_on_c, 0, 60, 80
2, 83424, Note_on_c, 0, 58, 80
2, 83516, Note_off_c, 0, 60, 100
2, 83516, Note_off_c, 0, 58, 100
2, 83520, Note_on_c, 0, 60, 80
2, 83520, Note_on_c, 0, 58, 80
2, 83612, Note_off_c, 0, 60, 100
2, 83612, Note_off_c, 0, 58, 100
2, 83616, Note_on_c, 0, 60, 80
2, 83616, Note_on_c, 0, 58, 80
2, 83708, Note_off_c, 0, 60, 100
2, 83708, Note_off_c, 0, 58, 100
2, 83712, Note_on_c, 0, 60, 80
2, 83712, Note_on_c, 0, 58, 80
2, 83712, Note_on_c, 0, 55, 80
2, 83804, Note_off_c, 0, 60, 100
2, 83804, Note_off_c, 0, 58, 100
2, 83804, Note_off_c, 0, 55, 100
2, 83808, Note_on_c, 0, 60, 80
2, 83808, Note_on_c, 0, 58, 80
2, 83808, Note_on_c, 0, 55, 80
2, 83900, Note_off_c, 0, 60, 100
2, 83900, Note_off_c, 0, 58, 100
2, 83900, Note_off_c, 0, 55, 100
2, 83904, Note_on_c, 0, 60, 80
2, 83904, Note_on_c, 0, 58, 80
2, 83904, Note_on_c, 0, 55, 80
2, 83996, Note_off_c, 0, 60, 100
2, 83996, Note_off_c, 0, 58, 100
2, 83996, Note_off_c, 0, 55, 100
2, 84000, Note_on_c, 0, 60, 80
2, 84000, Note_on_c, 0, 58, 80
2, 84000, Note_on_c, 0, 55, 80
2, 84092, Note_off_c, 0, 60, 100
2, 84092, Note_off_c, 0, 58, 100
2, 84092, Note_off_c, 0, 55, 100
2, 84096, Note_on_c, 0, 60, 80
2, 84096, Note_on_c, 0, 58, 80
2, 84096, Note_on_c, 0, 55, 80
2, 84188, Note_off_c, 0, 60, 100
2, 84188, Note_off_c, 0, 58, 100
2, 84188, Note_off_c, 0, 55, 100
2, 84192, Note_on_c, 0, 60, 80
2, 84192, Note_on_c, 0, 58, 80
2, 84192, Note_on_c, 0, 55, 80
2, 84284, Note_off_c, 0, 60, 100
2, 84284, Note_off_c, 0, 58, 100
2, 84284, Note_off_c, 0, 55, 100
2, 84288, Note_on_c, 0, 60, 80
2, 84288, Note_on_c, 0, 56, 80
2, 84380, Note_off_c, 0, 60, 100
2, 84380, Note_off_c, 0, 56, 100
2, 84384, Note_on_c, 0, 61, 80
2, 84384, Note_on_c, 0, 56, 80
2, 84476, Note_off_c, 0, 61, 100
2, 84476, Note_off_c, 0, 56, 100
2, 84480, Note_on_c, 0, 61, 80
2, 84480, Note_on_c, 0, 56, 80
2, 84572, Note_off_c, 0, 61, 100
2, 84572, Note_off_c, 0, 56, 100
2, 84576, Note_on_c, 0, 61, 80
2, 84576, Note_on_c, 0, 56, 80
2, 84668, Note_off_c, 0, 61, 100
2, 84668, Note_off_c, 0, 56, 100
2, 84672, Note_on_c, 0, 61, 80
2, 84672, Note_on_c, 0, 56, 80
2, 84764, Note_off_c, 0, 61, 100
2, 84764, Note_off_c, 0, 56, 100
2, 84768, Note_on_c, 0, 61, 80
2, 84768, Note_on_c, 0, 56, 80
2, 84860, Note_off_c, 0, 61, 100
2, 84860, Note_off_c, 0, 56, 100
2, 84864, Note_on_c, 0, 80, 80
2, 84956, Note_off_c, 0, 80, 100
2, 84960, Note_on_c, 0, 77, 80
2, 85052, Note_off_c, 0, 77, 100
2, 85056, Note_on_c, 0, 73, 80
2, 85148, Note_off_c, 0, 73, 100
2, 85152, Note_on_c, 0, 73, 80
2, 85244, Note_off_c, 0, 73, 100
2, 85248, Note_on_c, 0, 73, 80
2, 85340, Note_off_c, 0, 73, 100
2, 85344, Note_on_c, 0, 73, 80
2, 85436, Note_off_c, 0, 73, 100
2, 85440, Note_on_c, 0, 60, 80
2, 85440, Note_on_c, 0, 55, 80
2, 85532, Note_off_c, 0, 60, 100
2, 85532, Note_off_c, 0, 55, 100
2, 85536, Note_on_c, 0, 60, 80
2, 85536, Note_on_c, 0, 55, 80
2, 85628, Note_off_c, 0, 60, 100
2, 85628, Note_off_c, 0, 55, 100
2, 85632, Note_on_c, 0, 60, 80
2, 85632, Note_on_c, 0, 55, 80
2, 85724, Note_off_c, 0, 60, 100
2, 85724, Note_off_c, 0, 55, 100
2, 85728, Note_on_c, 0, 60, 80
2, 85728, Note_on_c, 0, 55, 80
2, 85820, Note_off_c, 0, 60, 100
2, 85820, Note_off_c, 0, 55, 100
2, 85824, Note_on_c, 0, 60, 80
2, 85824, Note_on_c, 0, 55, 80
2, 85916, Note_off_c, 0, 60, 100
2, 85916, Note_off_c, 0, 55, 100
2, 85920, Note_on_c, 0, 60, 80
2, 85920, Note_on_c, 0, 55, 80
2, 86012, Note_off_c, 0, 60, 100
2, 86012, Note_off_c, 0, 55, 100
2, 86016, Note_on_c, 0, 59, 80
2, 86016, Note_on_c, 0, 53, 80
2, 86108, Note_off_c, 0, 59, 100
2, 86108, Note_off_c, 0, 53, 100
2, 86112, Note_on_c, 0, 59, 80
2, 86112, Note_on_c, 0, 53, 80
2, 86204, Note_off_c, 0, 59, 100
2, 86204, Note_off_c, 0, 53, 100
2, 86208, Note_on_c, 0, 59, 80
2, 86208, Note_on_c, 0, 53, 80
2, 86300, Note_off_c, 0, 59, 100
2, 86300, Note_off_c, 0, 53, 100
2, 86304, Note_on_c, 0, 59, 80
2, 86304, Note_on_c, 0, 53, 80
2, 86396, Note_off_c, 0, 59, 100
2, 86396, Note_off_c, 0, 53, 100
2, 86400, Note_on_c, 0, 59, 80
2, 86400, Note_on_c, 0, 53, 80
2, 86492, Note_off_c, 0, 59, 100
2, 86492, Note_off_c, 0, 53, 100
2, 86496, Note_on_c, 0, 59, 80
2, 86496, Note_on_c, 0, 53, 80
2, 86588, Note_off_c, 0, 59, 100
2, 86588, Note_off_c, 0, 53, 100
2, 86592, Note_on_c, 0, 77, 80
2, 86684, Note_off_c, 0, 77, 100
2, 86688, Note_on_c, 0, 74, 80
2, 86780, Note_off_c, 0, 74, 100
2, 86784, Note_on_c, 0, 71, 80
2, 86876, Note_off_c, 0, 71, 100
2, 86880, Note_on_c, 0, 71, 80
2, 86972, Note_off_c, 0, 71, 100
2, 86976, Note_on_c, 0, 71, 80
2, 87068, Note_off_c, 0, 71, 100
2, 87072, Note_on_c, 0, 71, 80
2, 87164, Note_off_c, 0, 71, 100
2, 87168, Note_on_c, 0, 56, 80
2, 87168, Note_on_c, 0, 51, 80
2, 87260, Note_off_c, 0, 56, 100
2, 87260, Note_off_c, 0, 51, 100
2, 87264, Note_on_c, 0, 56, 80
2, 87264, Note_on_c, 0, 51, 80
2, 87356, Note_off_c, 0, 56, 100
2, 87356, Note_off_c, 0, 51, 100
2, 87360, Note_on_c, 0, 56, 80
2, 87360, Note_on_c, 0, 51, 80
2, 87452, Note_off_c, 0, 56, 100
2, 87452, Note_off_c, 0, 51, 100
2, 87456, Note_on_c, 0, 56, 80
2, 87456, Note_on_c, 0, 51, 80
2, 87548, Note_off_c, 0, 56, 100
2, 87548, Note_off_c, 0, 51, 100
2, 87552, Note_on_c, 0, 56, 80
2, 87552, Note_on_c, 0, 51, 80
2, 87644, Note_off_c, 0, 56, 100
2, 87644, Note_off_c, 0, 51, 100
2, 87648, Note_on_c, 0, 56, 80
2, 87648, Note_on_c, 0, 51, 80
2, 87740, Note_off_c, 0, 56, 100
2, 87740, Note_off_c, 0, 51, 100
2, 87744, Note_on_c, 0, 55, 80
2, 87744, Note_on_c, 0, 50, 80
2, 87836, Note_off_c, 0, 55, 100
2, 87836, Note_off_c, 0, 50, 100
2, 87840, Note_on_c, 0, 55, 80
2, 87840, Note_on_c, 0, 50, 80
2, 87932, Note_off_c, 0, 55, 100
2, 87932, Note_off_c, 0, 50, 100
2, 87936, Note_on_c, 0, 55, 80
2, 87936, Note_on_c, 0, 50, 80
2, 88028, Note_off_c, 0, 55, 100
2, 88028, Note_off_c, 0, 50, 100
2, 88032, Note_on_c, 0, 55, 80
2, 88032, Note_on_c, 0, 50, 80
2, 88124, Note_off_c, 0, 55, 100
2, 88124, Note_off_c, 0, 50, 100
2, 88128, Note_on_c, 0, 55, 80
2, 88128, Note_on_c, 0, 50, 80
2, 88220, Note_off_c, 0, 55, 100
2, 88220, Note_off_c, 0, 50, 100
2, 88224, Note_on_c, 0, 55, 80
2, 88224, Note_on_c, 0, 50, 80
2, 88316, Note_off_c, 0, 55, 100
2, 88316, Note_off_c, 0, 50, 100
2, 88320, Note_on_c, 0, 86, 80
2, 88412, Note_off_c, 0, 86, 100
2, 88416, Note_on_c, 0, 83, 80
2, 88508, Note_off_c, 0, 83, 100
2, 88512, Note_on_c, 0, 77, 80
2, 88604, Note_off_c, 0, 77, 100
2, 88608, Note_on_c, 0, 77, 80
2, 88700, Note_off_c, 0, 77, 100
2, 88704, Note_on_c, 0, 77, 80
2, 88796, Note_off_c, 0, 77, 100
2, 88800, Note_on_c, 0, 77, 80
2, 88892, Note_off_c, 0, 77, 100
2, 88896, Note_on_c, 0, 84, 80
2, 88988, Note_off_c, 0, 84, 100
2, 88992, Note_on_c, 0, 79, 80
2, 89084, Note_off_c, 0, 79, 100
2, 89088, Note_on_c, 0, 75, 80
2, 89180, Note_off_c, 0, 75, 100
2, 89184, Note_on_c, 0, 75, 80
2, 89276, Note_off_c, 0, 75, 100
2, 89280, Note_on_c, 0, 75, 80
2, 89372, Note_off_c, 0, 75, 100
2, 89376, Note_on_c, 0, 75, 80
2, 89468, Note_off_c, 0, 75, 100
2, 89472, Note_on_c, 0, 80, 80
2, 89564, Note_off_c, 0, 80, 100
2, 89568, Note_on_c, 0, 77, 81
2, 89660, Note_off_c, 0, 77, 100
2, 89664, Note_on_c, 0, 73, 83
2, 89664, Note_on_c, 0, 68, 83
2, 89664, Note_on_c, 0, 65, 83
2, 89756, Note_off_c, 0, 73, 100
2, 89756, Note_off_c, 0, 68, 100
2, 89756, Note_off_c, 0, 65, 100
2, 89760, Note_on_c, 0, 73, 85
2, 89760, Note_on_c, 0, 68, 85
2, 89760, Note_on_c, 0, 65, 85
2, 89852, Note_off_c, 0, 73, 100
2, 89852, Note_off_c, 0, 68, 100
2, 89852, Note_off_c, 0, 65, 100
2, 89856, Note_on_c, 0, 73, 86
2, 89856, Note_on_c, 0, 68, 86
2, 89856, Note_on_c, 0, 65, 86
2, 89948, Note_off_c, 0, 73, 100
2, 89948, Note_off_c, 0, 68, 100
2, 89948, Note_off_c, 0, 65, 100
2, 89952, Note_on_c, 0, 73, 88
2, 89952, Note_on_c, 0, 68, 88
2, 89952, Note_on_c, 0, 65, 88
2, 90044, Note_off_c, 0, 73, 100
2, 90044, Note_off_c, 0, 68, 100
2, 90044, Note_off_c, 0, 65, 100
2, 90048, Note_on_c, 0, 80, 90
2, 90140, Note_off_c, 0, 80, 100
2, 90144, Note_on_c, 0, 77, 92
2, 90236, Note_off_c, 0, 77, 100
2, 90240, Note_on_c, 0, 73, 93
2, 90240, Note_on_c, 0, 68, 93
2, 90240, Note_on_c, 0, 65, 93
2, 90332, Note_off_c, 0, 73, 100
2, 90332, Note_off_c, 0, 68, 100
2, 90332, Note_off_c, 0, 65, 100
2, 90336, Note_on_c, 0, 73, 95
2, 90336, Note_on_c, 0, 68, 95
2, 90336, Note_on_c, 0, 65, 95
2, 90428, Note_off_c, 0, 73, 100
2, 90428, Note_off_c, 0, 68, 100
2, 90428, Note_off_c, 0, 65, 100
2, 90432, Note_on_c, 0, 73, 97
2, 90432, Note_on_c, 0, 68, 97
2, 90432, Note_on_c, 0, 65, 97
2, 90524, Note_off_c, 0, 73, 100
2, 90524, Note_off_c, 0, 68, 100
2, 90524, Note_off_c, 0, 65, 100
2, 90528, Note_on_c, 0, 73, 98
2, 90528, Note_on_c, 0, 68, 98
2, 90528, Note_on_c, 0, 65, 98
2, 90620, Note_off_c, 0, 73, 100
2, 90620, Note_off_c, 0, 68, 100
2, 90620, Note_off_c, 0, 65, 100
2, 90624, Note_on_c, 0, 81, 100
2, 90716, Note_off_c, 0, 81, 100
2, 90720, Note_on_c, 0, 75, 102
2, 90812, Note_off_c, 0, 75, 100
2, 90816, Note_on_c, 0, 72, 104
2, 90816, Note_on_c, 0, 69, 104
2, 90816, Note_on_c, 0, 63, 104
2, 90908, Note_off_c, 0, 72, 100
2, 90908, Note_off_c, 0, 69, 100
2, 90908, Note_off_c, 0, 63, 100
2, 90912, Note_on_c, 0, 72, 105
2, 90912, Note_on_c, 0, 69, 105
2, 90912, Note_on_c, 0, 63, 105
2, 91004, Note_off_c, 0, 72, 100
2, 91004, Note_off_c, 0, 69, 100
2, 91004, Note_off_c, 0, 63, 100
2, 91008, Note_on_c, 0, 72, 107
2, 91008, Note_on_c, 0, 69, 107
2, 91008, Note_on_c, 0, 63, 107
2, 91100, Note_off_c, 0, 72, 100
2, 91100, Note_off_c, 0, 69, 100
2, 91100, Note_off_c, 0, 63, 100
2, 91104, Note_on_c, 0, 72, 109
2, 91104, Note_on_c, 0, 69, 109
2, 91104, Note_on_c, 0, 63, 109
2, 91196, Note_off_c, 0, 72, 100
2, 91196, Note_off_c, 0, 69, 100
2, 91196, Note_off_c, 0, 63, 100
2, 91200, Note_on_c, 0, 71, 110
2, 91200, Note_on_c, 0, 67, 110
2, 91200, Note_on_c, 0, 62, 110
2, 91580, Note_off_c, 0, 71, 100
2, 91580, Note_off_c, 0, 67, 100
2, 91580, Note_off_c, 0, 62, 100
2, 91776, Note_on_c, 0, 77, 80
2, 91968, Note_on_c, 0, 74, 80
2, 92156, Note_off_c, 0, 74, 100
2, 92160, Note_on_c, 0, 71, 80
2, 92348, Note_off_c, 0, 71, 100
2, 92352, Note_on_c, 0, 72, 80
2, 92540, Note_off_c, 0, 77, 100
2, 92544, Note_on_c, 0, 75, 80
2, 92732, Note_off_c, 0, 72, 100
2, 92736, Note_on_c, 0, 69, 80
2, 92924, Note_off_c, 0, 75, 100
2, 92924, Note_off_c, 0, 69, 100
2, 92928, Note_on_c, 0, 71, 80
2, 92928, Note_on_c, 0, 74, 80
2, 93308, Note_off_c, 0, 71, 100
2, 93308, Note_off_c, 0, 74, 100
2, 93504, Note_on_c, 0, 77, 80
2, 93696, Note_on_c, 0, 74, 80
2, 93884, Note_off_c, 0, 74, 100
2, 93888, Note_on_c, 0, 71, 80
2, 94076, Note_off_c, 0, 71, 100
2, 94080, Note_on_c, 0, 72, 80
2, 94268, Note_off_c, 0, 77, 100
2, 94272, Note_on_c, 0, 75, 80
2, 94460, Note_off_c, 0, 72, 100
2, 94464, Note_on_c, 0, 69, 80
2, 94652, Note_off_c, 0, 75, 100
2, 94656, Note_on_c, 0, 74, 80
2, 94844, Note_off_c, 0, 69, 100
2, 94848, Note_on_c, 0, 71, 80
2, 95036, Note_off_c, 0, 71, 100
2, 95040, Note_on_c, 0, 68, 80
2, 95228, Note_off_c, 0, 74, 100
2, 95232, Note_on_c, 0, 73, 80
2, 95420, Note_off_c, 0, 68, 100
2, 95424, Note_on_c, 0, 70, 80
2, 95612, Note_off_c, 0, 70, 100
2, 95616, Note_on_c, 0, 67, 80
2, 95804, Note_off_c, 0, 73, 100
2, 95808, Note_on_c, 0, 72, 80
2, 95996, Note_off_c, 0, 67, 100
2, 96000, Note_on_c, 0, 69, 80
2, 96188, Note_off_c, 0, 69, 100
2, 96192, Note_on_c, 0, 66, 80
2, 96380, Note_off_c, 0, 72, 100
2, 96384, Note_on_c, 0, 71, 80
2, 96572, Note_off_c, 0, 66, 100
2, 96576, Note_on_c, 0, 68, 80
2, 96764, Note_off_c, 0, 68, 100
2, 96768, Note_on_c, 0, 65, 80
2, 96956, Note_off_c, 0, 71, 100
2, 96956, Note_off_c, 0, 65, 100
2, 97152, Note_on_c, 0, 71, 78
2, 97152, Note_on_c, 0, 67, 78
2, 97340, Note_off_c, 0, 67, 100
2, 97344, Note_on_c, 0, 65, 77
2, 97532, Note_off_c, 0, 71, 100
2, 97532, Note_off_c, 0, 65, 100
2, 97728, Note_on_c, 0, 72, 75
2, 97728, Note_on_c, 0, 67, 75
2, 97916, Note_off_c, 0, 67, 100
2, 97920, Note_on_c, 0, 63, 74
2, 98108, Note_off_c, 0, 72, 100
2, 98108, Note_off_c, 0, 63, 100
2, 98304, Note_on_c, 0, 66, 72
2, 98304, Note_on_c, 0, 63, 72
2, 98304, Note_on_c, 0, 60, 72
2, 98492, Note_off_c, 0, 60, 100
2, 98496, Note_on_c, 0, 57, 71
2, 98684, Note_off_c, 0, 66, 100
2, 98684, Note_off_c, 0, 63, 100
2, 98684, Note_off_c, 0, 57, 100
2, 98880, Note_on_c, 0, 60, 69
2, 98880, Note_on_c, 0, 57, 69
2, 98880, Note_on_c, 0, 54, 69
2, 99068, Note_off_c, 0, 54, 100
2, 99072, Note_on_c, 0, 51, 68
2, 99260, Note_off_c, 0, 60, 100
2, 99260, Note_off_c, 0, 57, 100
2, 99260, Note_off_c, 0, 51, 100
2, 99456, Note_on_c, 0, 53, 66
2, 99456, Note_on_c, 0, 51, 66
2, 99456, Note_on_c, 0, 48, 66
2, 99644, Note_off_c, 0, 48, 100
2, 99648, Note_on_c, 0, 45, 66
2, 99836, Note_off_c, 0, 53, 100
2, 99836, Note_off_c, 0, 51, 100
2, 99836, Note_off_c, 0, 45, 100
2, 99840, Note_on_c, 0, 55, 65
2, 99840, Note_on_c, 0, 50, 65
2, 99840, Note_on_c, 0, 47, 65
2, 100220, Note_off_c, 0, 55, 100
2, 100220, Note_off_c, 0, 50, 100
2, 100220, Note_off_c, 0, 47, 100
2, 100704, Note_on_c, 0, 55, 65
2, 100704, Note_on_c, 0, 47, 65
2, 100796, Note_off_c, 0, 55, 100
2, 100796, Note_off_c, 0, 47, 100
2, 100800, Note_on_c, 0, 57, 65
2, 100800, Note_on_c, 0, 48, 65
2, 100892, Note_off_c, 0, 57, 100
2, 100892, Note_off_c, 0, 48, 100
2, 100896, Note_on_c, 0, 59, 65
2, 100896, Note_on_c, 0, 50, 65
2, 100988, Note_off_c, 0, 59, 100
2, 100988, Note_off_c, 0, 50, 100
2, 100992, Note_on_c, 0, 60, 80
2, 100992, Note_on_c, 0, 51, 80
2, 101564, Note_off_c, 0, 60, 100
2, 101564, Note_off_c, 0, 51, 100
2, 101568, Note_on_c, 0, 59, 65
2, 101568, Note_on_c, 0, 50, 65
2, 101948, Note_off_c, 0, 59, 100
2, 101948, Note_off_c, 0, 50, 100
2, 102432, Note_on_c, 0, 59, 65
2, 102432, Note_on_c, 0, 55, 65
2, 102524, Note_off_c, 0, 59, 100
2, 102524, Note_off_c, 0, 55, 100
2, 102528, Note_on_c, 0, 60, 65
2, 102528, Note_on_c, 0, 57, 65
2, 102620, Note_off_c, 0, 60, 100
2, 102620, Note_off_c, 0, 57, 100
2, 102624, Note_on_c, 0, 62, 65
2, 102624, Note_on_c, 0, 59, 65
2, 102716, Note_off_c, 0, 62, 100
2, 102716, Note_off_c, 0, 59, 100
2, 102720, Note_on_c, 0, 63, 80
2, 102720, Note_on_c, 0, 60, 80
2, 103292, Note_off_c, 0, 63, 100
2, 103292, Note_off_c, 0, 60, 100
2, 103296, Note_on_c, 0, 62, 65
2, 103296, Note_on_c, 0, 59, 65
2, 103676, Note_off_c, 0, 62, 100
2, 103676, Note_off_c, 0, 59, 100
2, 104160, Note_on_c, 0, 67, 65
2, 104160, Note_on_c, 0, 59, 65
2, 104252, Note_off_c, 0, 67, 100
2, 104252, Note_off_c, 0, 59, 100
2, 104256, Note_on_c, 0, 69, 65
2, 104256, Note_on_c, 0, 60, 65
2, 104348, Note_off_c, 0, 69, 100
2, 104348, Note_off_c, 0, 60, 100
2, 104352, Note_on_c, 0, 71, 65
2, 104352, Note_on_c, 0, 62, 65
2, 104444, Note_off_c, 0, 71, 100
2, 104444, Note_off_c, 0, 62, 100
2, 104448, Note_on_c, 0, 72, 80
2, 104448, Note_on_c, 0, 63, 80
2, 105020, Note_off_c, 0, 72, 100
2, 105020, Note_off_c, 0, 63, 100
2, 105024, Note_on_c, 0, 71, 65
2, 105024, Note_on_c, 0, 62, 65
2, 105596, Note_off_c, 0, 71, 100
2, 105596, Note_off_c, 0, 62, 100
2, 105600, Note_on_c, 0, 75, 65
2, 105600, Note_on_c, 0, 72, 65
2, 105984, Note_on_c, 0, 66, 65
2, 106172, Note_off_c, 0, 75, 100
2, 106172, Note_off_c, 0, 72, 100
2, 106172, Note_off_c, 0, 66, 100
2, 106176, Note_on_c, 0, 74, 65
2, 106176, Note_on_c, 0, 71, 65
2, 106176, Note_on_c, 0, 67, 65
2, 106748, Note_off_c, 0, 74, 100
2, 106748, Note_off_c, 0, 71, 100
2, 106748, Note_off_c, 0, 67, 100
2, 106752, Note_on_c, 0, 75, 65
2, 106752, Note_on_c, 0, 72, 65
2, 107136, Note_on_c, 0, 66, 65
2, 107324, Note_off_c, 0, 75, 100
2, 107324, Note_off_c, 0, 72, 100
2, 107324, Note_off_c, 0, 66, 100
2, 107328, Note_on_c, 0, 74, 65
2, 107328, Note_on_c, 0, 71, 65
2, 107328, Note_on_c, 0, 67, 65
2, 107900, Note_off_c, 0, 74, 100
2, 107900, Note_off_c, 0, 71, 100
2, 107900, Note_off_c, 0, 67, 100
2, 107904, Note_on_c, 0, 81, 65
2, 107904, Note_on_c, 0, 75, 65
2, 107904, Note_on_c, 0, 72, 65
2, 108288, Note_on_c, 0, 66, 65
2, 108476, Note_off_c, 0, 81, 100
2, 108476, Note_off_c, 0, 75, 100
2, 108476, Note_off_c, 0, 72, 100
2, 108476, Note_off_c, 0, 66, 100
2, 108480, Note_on_c, 0, 79, 65
2, 108480, Note_on_c, 0, 74, 65
2, 108480, Note_on_c, 0, 71, 65
2, 108480, Note_on_c, 0, 67, 65
2, 108860, Note_off_c, 0, 67, 100
2, 109052, Note_off_c, 0, 79, 100
2, 109052, Note_off_c, 0, 74, 100
2, 109052, Note_off_c, 0, 71, 100
2, 109056, Note_on_c, 0, 77, 65
2, 109056, Note_on_c, 0, 72, 65
2, 109056, Note_on_c, 0, 69, 65
2, 109628, Note_off_c, 0, 77, 100
2, 109628, Note_off_c, 0, 72, 100
2, 109628, Note_off_c, 0, 69, 100
2, 109632, Note_on_c, 0, 76, 65
2, 109632, Note_on_c, 0, 71, 65
2, 109632, Note_on_c, 0, 67, 65
2, 110204, Note_off_c, 0, 76, 100
2, 110204, Note_off_c, 0, 71, 100
2, 110204, Note_off_c, 0, 67, 100
2, 110208, Note_on_c, 0, 74, 65
2, 110208, Note_on_c, 0, 69, 65
2, 110208, Note_on_c, 0, 65, 65
2, 110780, Note_off_c, 0, 74, 100
2, 110780, Note_off_c, 0, 69, 100
2, 110780, Note_off_c, 0, 65, 100
2, 110784, Note_on_c, 0, 72, 73
2, 110784, Note_on_c, 0, 67, 73
2, 110784, Note_on_c, 0, 64, 73
2, 111356, Note_off_c, 0, 72, 100
2, 111356, Note_off_c, 0, 67, 100
2, 111356, Note_off_c, 0, 64, 100
2, 111360, Note_on_c, 0, 71, 82
2, 111360, Note_on_c, 0, 65, 82
2, 111452, Note_off_c, 0, 71, 100
2, 111452, Note_off_c, 0, 65, 100
2, 111456, Note_on_c, 0, 73, 84
2, 111456, Note_on_c, 0, 67, 84
2, 111548, Note_off_c, 0, 73, 100
2, 111548, Note_off_c, 0, 67, 100
2, 111552, Note_on_c, 0, 74, 85
2, 111552, Note_on_c, 0, 69, 85
2, 111644, Note_off_c, 0, 74, 100
2, 111644, Note_off_c, 0, 69, 100
2, 111648, Note_on_c, 0, 76, 87
2, 111648, Note_on_c, 0, 67, 87
2, 111740, Note_off_c, 0, 76, 100
2, 111740, Note_off_c, 0, 67, 100
2, 111744, Note_on_c, 0, 77, 88
2, 111744, Note_on_c, 0, 65, 88
2, 111836, Note_off_c, 0, 77, 100
2, 111836, Note_off_c, 0, 65, 100
2, 111840, Note_on_c, 0, 71, 89
2, 111840, Note_on_c, 0, 65, 89
2, 111932, Note_off_c, 0, 71, 100
2, 111932, Note_off_c, 0, 65, 100
2, 111936, Note_on_c, 0, 72, 80
2, 111984, Note_on_c, 0, 74, 80
2, 112028, Note_off_c, 0, 72, 100
2, 112032, Note_on_c, 0, 72, 80
2, 112076, Note_off_c, 0, 74, 100
2, 112080, Note_on_c, 0, 74, 80
2, 112124, Note_off_c, 0, 72, 100
2, 112128, Note_on_c, 0, 72, 80
2, 112172, Note_off_c, 0, 74, 100
2, 112176, Note_on_c, 0, 74, 80
2, 112220, Note_off_c, 0, 72, 100
2, 112224, Note_on_c, 0, 72, 80
2, 112268, Note_off_c, 0, 74, 100
2, 112272, Note_on_c, 0, 74, 80
2, 112316, Note_off_c, 0, 72, 100
2, 112320, Note_on_c, 0, 72, 80
2, 112364, Note_off_c, 0, 74, 100
2, 112368, Note_on_c, 0, 74, 80
2, 112412, Note_off_c, 0, 72, 100
2, 112416, Note_on_c, 0, 72, 80
2, 112460, Note_off_c, 0, 74, 100
2, 112464, Note_on_c, 0, 74, 80
2, 112508, Note_off_c, 0, 72, 100
2, 112512, Note_on_c, 0, 72, 80
2, 112556, Note_off_c, 0, 74, 100
2, 112560, Note_on_c, 0, 74, 80
2, 112604, Note_off_c, 0, 72, 100
2, 112608, Note_on_c, 0, 72, 80
2, 112652, Note_off_c, 0, 74, 100
2, 112656, Note_on_c, 0, 74, 80
2, 112700, Note_off_c, 0, 72, 100
2, 112704, Note_on_c, 0, 72, 80
2, 112748, Note_off_c, 0, 74, 100
2, 112752, Note_on_c, 0, 74, 80
2, 112796, Note_off_c, 0, 72, 100
2, 112800, Note_on_c, 0, 72, 80
2, 112844, Note_off_c, 0, 74, 100
2, 112848, Note_on_c, 0, 74, 80
2, 112892, Note_off_c, 0, 72, 100
2, 112896, Note_on_c, 0, 72, 80
2, 112940, Note_off_c, 0, 74, 100
2, 112944, Note_on_c, 0, 74, 80
2, 112988, Note_off_c, 0, 72, 100
2, 112992, Note_on_c, 0, 71, 80
2, 113036, Note_off_c, 0, 74, 100
2, 113040, Note_on_c, 0, 72, 80
2, 113084, Note_off_c, 0, 71, 100
2, 113084, Note_off_c, 0, 72, 100
2, 113088, Note_on_c, 0, 76, 80
2, 113612, Note_off_c, 0, 76, 100
2, 113616, Note_on_c, 0, 72, 80
2, 113660, Note_off_c, 0, 72, 100
2, 113664, Note_on_c, 0, 67, 80
2, 114620, Note_off_c, 0, 67, 100
2, 114624, Note_on_c, 0, 66, 80
2, 114716, Note_off_c, 0, 66, 100
2, 114720, Note_on_c, 0, 67, 80
2, 114812, Note_off_c, 0, 67, 100
2, 114816, Note_on_c, 0, 68, 80
2, 114908, Note_off_c, 0, 68, 100
2, 114912, Note_on_c, 0, 69, 80
2, 115004, Note_off_c, 0, 69, 100
2, 115008, Note_on_c, 0, 70, 80
2, 115100, Note_off_c, 0, 70, 100
2, 115104, Note_on_c, 0, 71, 80
2, 115196, Note_off_c, 0, 71, 100
2, 115200, Note_on_c, 0, 72, 80
2, 115292, Note_off_c, 0, 72, 100
2, 115296, Note_on_c, 0, 73, 80
2, 115388, Note_off_c, 0, 73, 100
2, 115392, Note_on_c, 0, 74, 80
2, 115440, Note_on_c, 0, 76, 80
2, 115484, Note_off_c, 0, 74, 100
2, 115488, Note_on_c, 0, 74, 80
2, 115532, Note_off_c, 0, 76, 100
2, 115536, Note_on_c, 0, 76, 80
2, 115580, Note_off_c, 0, 74, 100
2, 115584, Note_on_c, 0, 74, 80
2, 115628, Note_off_c, 0, 76, 100
2, 115632, Note_on_c, 0, 76, 80
2, 115676, Note_off_c, 0, 74, 100
2, 115680, Note_on_c, 0, 74, 80
2, 115724, Note_off_c, 0, 76, 100
2, 115728, Note_on_c, 0, 76, 80
2, 115772, Note_off_c, 0, 74, 100
2, 115776, Note_on_c, 0, 74, 80
2, 115820, Note_off_c, 0, 76, 100
2, 115824, Note_on_c, 0, 76, 80
2, 115868, Note_off_c, 0, 74, 100
2, 115872, Note_on_c, 0, 74, 80
2, 115916, Note_off_c, 0, 76, 100
2, 115920, Note_on_c, 0, 76, 80
2, 115964, Note_off_c, 0, 74, 100
2, 115968, Note_on_c, 0, 74, 80
2, 116012, Note_off_c, 0, 76, 100
2, 116016, Note_on_c, 0, 76, 80
2, 116060, Note_off_c, 0, 74, 100
2, 116064, Note_on_c, 0, 74, 80
2, 116108, Note_off_c, 0, 76, 100
2, 116112, Note_on_c, 0, 76, 80
2, 116156, Note_off_c, 0, 74, 100
2, 116160, Note_on_c, 0, 74, 80
2, 116204, Note_off_c, 0, 76, 100
2, 116208, Note_on_c, 0, 76, 80
2, 116252, Note_off_c, 0, 74, 100
2, 116256, Note_on_c, 0, 74, 80
2, 116300, Note_off_c, 0, 76, 100
2, 116304, Note_on_c, 0, 76, 80
2, 116348, Note_off_c, 0, 74, 100
2, 116352, Note_on_c, 0, 74, 80
2, 116396, Note_off_c, 0, 76, 100
2, 116400, Note_on_c, 0, 76, 80
2, 116444, Note_off_c, 0, 74, 100
2, 116448, Note_on_c, 0, 73, 80
2, 116492, Note_off_c, 0, 76, 100
2, 116496, Note_on_c, 0, 74, 80
2, 116540, Note_off_c, 0, 73, 100
2, 116540, Note_off_c, 0, 74, 100
2, 116544, Note_on_c, 0, 77, 80
2, 117068, Note_off_c, 0, 77, 100
2, 117072, Note_on_c, 0, 74, 80
2, 117116, Note_off_c, 0, 74, 100
2, 117120, Note_on_c, 0, 67, 80
2, 118076, Note_off_c, 0, 67, 100
2, 118080, Note_on_c, 0, 67, 80
2, 118172, Note_off_c, 0, 67, 100
2, 118176, Note_on_c, 0, 69, 80
2, 118268, Note_off_c, 0, 69, 100
2, 118272, Note_on_c, 0, 70, 80
2, 118364, Note_off_c, 0, 70, 100
2, 118368, Note_on_c, 0, 71, 80
2, 118460, Note_off_c, 0, 71, 100
2, 118464, Note_on_c, 0, 72, 80
2, 118556, Note_off_c, 0, 72, 100
2, 118560, Note_on_c, 0, 73, 80
2, 118652, Note_off_c, 0, 73, 100
2, 118656, Note_on_c, 0, 74, 80
2, 118748, Note_off_c, 0, 74, 100
2, 118752, Note_on_c, 0, 75, 80
2, 118844, Note_off_c, 0, 75, 100
2, 118848, Note_on_c, 0, 64, 80
2, 118892, Note_off_c, 0, 64, 100
2, 118894, Note_on_c, 0, 76, 80
2, 119418, Note_off_c, 0, 76, 100
2, 119424, Note_on_c, 0, 65, 80
2, 119468, Note_off_c, 0, 65, 100
2, 119470, Note_on_c, 0, 77, 80
2, 119994, Note_off_c, 0, 77, 100
2, 120000, Note_on_c, 0, 67, 80
2, 120044, Note_off_c, 0, 67, 100
2, 120046, Note_on_c, 0, 79, 80
2, 120570, Note_off_c, 0, 79, 100
2, 120576, Note_on_c, 0, 80, 80
2, 120764, Note_off_c, 0, 80, 100
2, 120768, Note_on_c, 0, 81, 84
2, 121340, Note_off_c, 0, 81, 100
2, 121344, Note_on_c, 0, 81, 99
2, 121916, Note_off_c, 0, 81, 100
2, 121920, Note_on_c, 0, 79, 80
2, 121942, Note_on_c, 0, 77, 80
2, 121960, Note_off_c, 0, 79, 100
2, 122012, Note_off_c, 0, 77, 100
2, 122016, Note_on_c, 0, 76, 80
2, 122108, Note_off_c, 0, 76, 100
2, 122112, Note_on_c, 0, 77, 80
2, 122204, Note_off_c, 0, 77, 100
2, 122208, Note_on_c, 0, 74, 80
2, 122300, Note_off_c, 0, 74, 100
2, 122304, Note_on_c, 0, 72, 80
2, 122492, Note_off_c, 0, 72, 100
2, 122496, Note_on_c, 0, 74, 80
2, 122516, Note_off_c, 0, 74, 100
2, 122518, Note_on_c, 0, 72, 80
2, 122634, Note_off_c, 0, 72, 100
2, 122640, Note_on_c, 0, 71, 80
2, 122684, Note_off_c, 0, 71, 100
2, 122688, Note_on_c, 0, 72, 80
2, 122828, Note_off_c, 0, 72, 100
2, 122832, Note_on_c, 0, 76, 80
2, 122876, Note_off_c, 0, 76, 100
2, 122880, Note_on_c, 0, 67, 80
2, 123500, Note_off_c, 0, 67, 100
2, 123504, Note_on_c, 0, 69, 80
2, 123548, Note_off_c, 0, 69, 100
2, 123552, Note_on_c, 0, 67, 80
2, 123596, Note_off_c, 0, 67, 100
2, 123600, Note_on_c, 0, 66, 80
2, 123644, Note_off_c, 0, 66, 100
2, 123648, Note_on_c, 0, 67, 80
2, 123676, Note_off_c, 0, 67, 100
2, 123680, Note_on_c, 0, 69, 80
2, 123708, Note_off_c, 0, 69, 100
2, 123712, Note_on_c, 0, 71, 80
2, 123740, Note_off_c, 0, 71, 100
2, 123744, Note_on_c, 0, 72, 80
2, 123772, Note_off_c, 0, 72, 100
2, 123776, Note_on_c, 0, 74, 80
2, 123804, Note_off_c, 0, 74, 100
2, 123808, Note_on_c, 0, 76, 80
2, 123836, Note_off_c, 0, 76, 100
2, 123840, Note_on_c, 0, 77, 80
2, 123932, Note_off_c, 0, 77, 100
2, 123984, Note_on_c, 0, 71, 80
2, 124028, Note_off_c, 0, 71, 100
2, 124032, Note_on_c, 0, 74, 80
2, 124032, Note_on_c, 0, 65, 80
2, 124604, Note_off_c, 0, 74, 100
2, 124604, Note_off_c, 0, 65, 100
2, 124608, Note_on_c, 0, 72, 80
2, 124608, Note_on_c, 0, 64, 80
2, 124700, Note_off_c, 0, 72, 100
2, 124700, Note_off_c, 0, 64, 100
2, 124704, Note_on_c, 0, 67, 80
2, 124796, Note_off_c, 0, 67, 100
2, 124800, Note_on_c, 0, 66, 80
2, 124892, Note_off_c, 0, 66, 100
2, 124896, Note_on_c, 0, 67, 80
2, 124988, Note_off_c, 0, 67, 100
2, 124992, Note_on_c, 0, 69, 80
2, 125084, Note_off_c, 0, 69, 100
2, 125088, Note_on_c, 0, 67, 80
2, 125180, Note_off_c, 0, 67, 100
2, 125184, Note_on_c, 0, 65, 80
2, 125276, Note_off_c, 0, 65, 100
2, 125280, Note_on_c, 0, 64, 80
2, 125372, Note_off_c, 0, 64, 100
2, 125376, Note_on_c, 0, 67, 80
2, 125468, Note_off_c, 0, 67, 100
2, 125472, Note_on_c, 0, 65, 80
2, 125564, Note_off_c, 0, 65, 100
2, 125568, Note_on_c, 0, 64, 80
2, 125660, Note_off_c, 0, 64, 100
2, 125664, Note_on_c, 0, 62, 80
2, 125756, Note_off_c, 0, 62, 100
2, 125760, Note_on_c, 0, 60, 80
2, 125852, Note_off_c, 0, 60, 100
2, 125856, Note_on_c, 0, 60, 80
2, 125856, Note_on_c, 0, 55, 80
2, 125948, Note_off_c, 0, 60, 100
2, 125948, Note_off_c, 0, 55, 100
2, 125952, Note_on_c, 0, 64, 80
2, 125952, Note_on_c, 0, 60, 80
2, 126044, Note_off_c, 0, 64, 100
2, 126044, Note_off_c, 0, 60, 100
2, 126048, Note_on_c, 0, 60, 80
2, 126048, Note_on_c, 0, 55, 80
2, 126140, Note_off_c, 0, 60, 100
2, 126140, Note_off_c, 0, 55, 100
2, 126144, Note_on_c, 0, 64, 80
2, 126144, Note_on_c, 0, 60, 80
2, 126236, Note_off_c, 0, 64, 100
2, 126236, Note_off_c, 0, 60, 100
2, 126240, Note_on_c, 0, 60, 80
2, 126240, Note_on_c, 0, 55, 80
2, 126332, Note_off_c, 0, 60, 100
2, 126332, Note_off_c, 0, 55, 100
2, 126336, Note_on_c, 0, 64, 80
2, 126336, Note_on_c, 0, 60, 80
2, 126428, Note_off_c, 0, 64, 100
2, 126428, Note_off_c, 0, 60, 100
2, 126432, Note_on_c, 0, 60, 80
2, 126432, Note_on_c, 0, 55, 80
2, 126524, Note_off_c, 0, 60, 100
2, 126524, Note_off_c, 0, 55, 100
2, 126528, Note_on_c, 0, 64, 80
2, 126528, Note_on_c, 0, 60, 80
2, 126620, Note_off_c, 0, 64, 100
2, 126620, Note_off_c, 0, 60, 100
2, 126624, Note_on_c, 0, 60, 80
2, 126624, Note_on_c, 0, 55, 80
2, 126716, Note_off_c, 0, 60, 100
2, 126716, Note_off_c, 0, 55, 100
2, 126720, Note_on_c, 0, 64, 80
2, 126720, Note_on_c, 0, 60, 80
2, 126812, Note_off_c, 0, 64, 100
2, 126812, Note_off_c, 0, 60, 100
2, 126816, Note_on_c, 0, 60, 80
2, 126816, Note_on_c, 0, 55, 80
2, 126908, Note_off_c, 0, 60, 100
2, 126908, Note_off_c, 0, 55, 100
2, 126912, Note_on_c, 0, 64, 80
2, 126912, Note_on_c, 0, 60, 80
2, 127004, Note_off_c, 0, 64, 100
2, 127004, Note_off_c, 0, 60, 100
2, 127008, Note_on_c, 0, 60, 80
2, 127008, Note_on_c, 0, 55, 80
2, 127100, Note_off_c, 0, 60, 100
2, 127100, Note_off_c, 0, 55, 100
2, 127104, Note_on_c, 0, 64, 80
2, 127104, Note_on_c, 0, 60, 80
2, 127196, Note_off_c, 0, 64, 100
2, 127196, Note_off_c, 0, 60, 100
2, 127200, Note_on_c, 0, 60, 80
2, 127200, Note_on_c, 0, 55, 80
2, 127292, Note_off_c, 0, 60, 100
2, 127292, Note_off_c, 0, 55, 100
2, 127296, Note_on_c, 0, 64, 80
2, 127296, Note_on_c, 0, 60, 80
2, 127388, Note_off_c, 0, 64, 100
2, 127388, Note_off_c, 0, 60, 100
2, 127392, Note_on_c, 0, 60, 80
2, 127392, Note_on_c, 0, 55, 80
2, 127484, Note_off_c, 0, 60, 100
2, 127484, Note_off_c, 0, 55, 100
2, 127536, Note_on_c, 0, 71, 80
2, 127584, Note_on_c, 0, 74, 80
2, 127628, Note_off_c, 0, 71, 100
2, 127632, Note_on_c, 0, 72, 80
2, 127676, Note_off_c, 0, 74, 100
2, 127680, Note_on_c, 0, 76, 80
2, 127724, Note_off_c, 0, 72, 100
2, 127728, Note_on_c, 0, 74, 80
2, 127772, Note_off_c, 0, 76, 100
2, 127776, Note_on_c, 0, 77, 80
2, 127820, Note_off_c, 0, 74, 100
2, 127824, Note_on_c, 0, 76, 80
2, 127868, Note_off_c, 0, 77, 100
2, 127872, Note_on_c, 0, 79, 80
2, 127916, Note_off_c, 0, 76, 100
2, 127920, Note_on_c, 0, 77, 80
2, 127964, Note_off_c, 0, 79, 100
2, 127968, Note_on_c, 0, 81, 80
2, 128012, Note_off_c, 0, 77, 100
2, 128016, Note_on_c, 0, 79, 80
2, 128060, Note_off_c, 0, 81, 100
2, 128064, Note_on_c, 0, 83, 80
2, 128108, Note_off_c, 0, 79, 100
2, 128112, Note_on_c, 0, 81, 80
2, 128156, Note_off_c, 0, 83, 100
2, 128160, Note_on_c, 0, 84, 80
2, 128204, Note_off_c, 0, 81, 100
2, 128208, Note_on_c, 0, 83, 80
2, 128252, Note_off_c, 0, 84, 100
2, 128256, Note_on_c, 0, 86, 80
2, 128300, Note_off_c, 0, 83, 100
2, 128304, Note_on_c, 0, 84, 80
2, 128348, Note_off_c, 0, 86, 100
2, 128352, Note_on_c, 0, 88, 80
2, 128396, Note_off_c, 0, 84, 100
2, 128400, Note_on_c, 0, 86, 80
2, 128444, Note_off_c, 0, 88, 100
2, 128448, Note_on_c, 0, 84, 80
2, 128492, Note_off_c, 0, 86, 100
2, 128496, Note_on_c, 0, 83, 80
2, 128540, Note_off_c, 0, 84, 100
2, 128544, Note_on_c, 0, 81, 80
2, 128588, Note_off_c, 0, 83, 100
2, 128592, Note_on_c, 0, 79, 80
2, 128636, Note_off_c, 0, 81, 100
2, 128640, Note_on_c, 0, 78, 80
2, 128684, Note_off_c, 0, 79, 100
2, 128688, Note_on_c, 0, 79, 80
2, 128732, Note_off_c, 0, 78, 100
2, 128736, Note_on_c, 0, 81, 80
2, 128780, Note_off_c, 0, 79, 100
2, 128784, Note_on_c, 0, 79, 80
2, 128828, Note_off_c, 0, 81, 100
2, 128832, Note_on_c, 0, 77, 80
2, 128876, Note_off_c, 0, 79, 100
2, 128880, Note_on_c, 0, 76, 80
2, 128924, Note_off_c, 0, 77, 100
2, 128928, Note_on_c, 0, 74, 80
2, 128972, Note_off_c, 0, 76, 100
2, 128976, Note_on_c, 0, 72, 80
2, 129020, Note_off_c, 0, 74, 100
2, 129024, Note_on_c, 0, 71, 80
2, 129068, Note_off_c, 0, 72, 100
2, 129072, Note_on_c, 0, 72, 80
2, 129116, Note_off_c, 0, 71, 100
2, 129120, Note_on_c, 0, 76, 80
2, 129164, Note_off_c, 0, 72, 100
2, 129168, Note_on_c, 0, 72, 80
2, 129212, Note_off_c, 0, 76, 100
2, 129216, Note_on_c, 0, 71, 80
2, 129260, Note_off_c, 0, 72, 100
2, 129308, Note_off_c, 0, 71, 100
2, 129312, Note_on_c, 0, 59, 80
2, 129312, Note_on_c, 0, 55, 80
2, 129404, Note_off_c, 0, 59, 100
2, 129404, Note_off_c, 0, 55, 100
2, 129408, Note_on_c, 0, 59, 80
2, 129408, Note_on_c, 0, 65, 80
2, 129500, Note_off_c, 0, 59, 100
2, 129500, Note_off_c, 0, 65, 100
2, 129504, Note_on_c, 0, 59, 80
2, 129504, Note_on_c, 0, 55, 80
2, 129596, Note_off_c, 0, 59, 100
2, 129596, Note_off_c, 0, 55, 100
2, 129600, Note_on_c, 0, 59, 80
2, 129600, Note_on_c, 0, 65, 80
2, 129692, Note_off_c, 0, 59, 100
2, 129692, Note_off_c, 0, 65, 100
2, 129696, Note_on_c, 0, 59, 80
2, 129696, Note_on_c, 0, 55, 80
2, 129788, Note_off_c, 0, 59, 100
2, 129788, Note_off_c, 0, 55, 100
2, 129792, Note_on_c, 0, 59, 80
2, 129792, Note_on_c, 0, 65, 80
2, 129884, Note_off_c, 0, 59, 100
2, 129884, Note_off_c, 0, 65, 100
2, 129888, Note_on_c, 0, 59, 80
2, 129888, Note_on_c, 0, 55, 80
2, 129980, Note_off_c, 0, 59, 100
2, 129980, Note_off_c, 0, 55, 100
2, 129984, Note_on_c, 0, 59, 80
2, 129984, Note_on_c, 0, 65, 80
2, 130076, Note_off_c, 0, 59, 100
2, 130076, Note_off_c, 0, 65, 100
2, 130080, Note_on_c, 0, 59, 80
2, 130080, Note_on_c, 0, 55, 80
2, 130172, Note_off_c, 0, 59, 100
2, 130172, Note_off_c, 0, 55, 100
2, 130176, Note_on_c, 0, 59, 80
2, 130176, Note_on_c, 0, 65, 80
2, 130268, Note_off_c, 0, 59, 100
2, 130268, Note_off_c, 0, 65, 100
2, 130272, Note_on_c, 0, 59, 80
2, 130272, Note_on_c, 0, 55, 80
2, 130364, Note_off_c, 0, 59, 100
2, 130364, Note_off_c, 0, 55, 100
2, 130368, Note_on_c, 0, 59, 80
2, 130368, Note_on_c, 0, 65, 80
2, 130460, Note_off_c, 0, 59, 100
2, 130460, Note_off_c, 0, 65, 100
2, 130464, Note_on_c, 0, 59, 80
2, 130464, Note_on_c, 0, 55, 80
2, 130556, Note_off_c, 0, 59, 100
2, 130556, Note_off_c, 0, 55, 100
2, 130560, Note_on_c, 0, 59, 80
2, 130560, Note_on_c, 0, 65, 80
2, 130652, Note_off_c, 0, 59, 100
2, 130652, Note_off_c, 0, 65, 100
2, 130656, Note_on_c, 0, 59, 80
2, 130656, Note_on_c, 0, 55, 80
2, 130748, Note_off_c, 0, 59, 100
2, 130748, Note_off_c, 0, 55, 100
2, 130752, Note_on_c, 0, 59, 80
2, 130752, Note_on_c, 0, 65, 80
2, 130844, Note_off_c, 0, 59, 100
2, 130844, Note_off_c, 0, 65, 100
2, 130848, Note_on_c, 0, 59, 80
2, 130848, Note_on_c, 0, 55, 80
2, 130940, Note_off_c, 0, 59, 100
2, 130940, Note_off_c, 0, 55, 100
2, 130992, Note_on_c, 0, 71, 80
2, 131040, Note_on_c, 0, 74, 80
2, 131084, Note_off_c, 0, 71, 100
2, 131088, Note_on_c, 0, 72, 80
2, 131132, Note_off_c, 0, 74, 100
2, 131136, Note_on_c, 0, 76, 80
2, 131180, Note_off_c, 0, 72, 100
2, 131184, Note_on_c, 0, 74, 80
2, 131228, Note_off_c, 0, 76, 100
2, 131232, Note_on_c, 0, 77, 80
2, 131276, Note_off_c, 0, 74, 100
2, 131280, Note_on_c, 0, 76, 80
2, 131324, Note_off_c, 0, 77, 100
2, 131328, Note_on_c, 0, 79, 80
2, 131372, Note_off_c, 0, 76, 100
2, 131376, Note_on_c, 0, 77, 80
2, 131420, Note_off_c, 0, 79, 100
2, 131424, Note_on_c, 0, 81, 80
2, 131468, Note_off_c, 0, 77, 100
2, 131472, Note_on_c, 0, 79, 80
2, 131516, Note_off_c, 0, 81, 100
2, 131520, Note_on_c, 0, 83, 80
2, 131564, Note_off_c, 0, 79, 100
2, 131568, Note_on_c, 0, 81, 80
2, 131612, Note_off_c, 0, 83, 100
2, 131616, Note_on_c, 0, 84, 80
2, 131660, Note_off_c, 0, 81, 100
2, 131664, Note_on_c, 0, 83, 80
2, 131708, Note_off_c, 0, 84, 100
2, 131712, Note_on_c, 0, 86, 80
2, 131756, Note_off_c, 0, 83, 100
2, 131760, Note_on_c, 0, 85, 80
2, 131804, Note_off_c, 0, 86, 100
2, 131808, Note_on_c, 0, 88, 80
2, 131852, Note_off_c, 0, 85, 100
2, 131856, Note_on_c, 0, 86, 80
2, 131900, Note_off_c, 0, 88, 100
2, 131904, Note_on_c, 0, 89, 80
2, 131948, Note_off_c, 0, 86, 100
2, 131952, Note_on_c, 0, 88, 80
2, 131996, Note_off_c, 0, 89, 100
2, 132000, Note_on_c, 0, 86, 80
2, 132044, Note_off_c, 0, 88, 100
2, 132048, Note_on_c, 0, 84, 80
2, 132092, Note_off_c, 0, 86, 100
2, 132096, Note_on_c, 0, 83, 80
2, 132140, Note_off_c, 0, 84, 100
2, 132144, Note_on_c, 0, 84, 80
2, 132188, Note_off_c, 0, 83, 100
2, 132192, Note_on_c, 0, 85, 80
2, 132236, Note_off_c, 0, 84, 100
2, 132240, Note_on_c, 0, 86, 80
2, 132284, Note_off_c, 0, 85, 100
2, 132288, Note_on_c, 0, 84, 80
2, 132332, Note_off_c, 0, 86, 100
2, 132336, Note_on_c, 0, 83, 80
2, 132380, Note_off_c, 0, 84, 100
2, 132384, Note_on_c, 0, 81, 80
2, 132428, Note_off_c, 0, 83, 100
2, 132432, Note_on_c, 0, 79, 80
2, 132476, Note_off_c, 0, 81, 100
2, 132480, Note_on_c, 0, 78, 80
2, 132524, Note_off_c, 0, 79, 100
2, 132528, Note_on_c, 0, 79, 80
2, 132572, Note_off_c, 0, 78, 100
2, 132576, Note_on_c, 0, 81, 80
2, 132620, Note_off_c, 0, 79, 100
2, 132624, Note_on_c, 0, 77, 80
2, 132668, Note_off_c, 0, 81, 100
2, 132672, Note_on_c, 0, 75, 80
2, 132716, Note_off_c, 0, 77, 100
2, 132860, Note_off_c, 0, 75, 100
2, 132864, Note_on_c, 0, 76, 80
2, 133244, Note_off_c, 0, 76, 100
2, 133248, Note_on_c, 0, 76, 80
2, 133294, Note_off_c, 0, 76, 100
2, 133296, Note_on_c, 0, 84, 80
2, 133918, Note_off_c, 0, 84, 100
2, 133920, Note_on_c, 0, 83, 80
2, 134012, Note_off_c, 0, 83, 100
2, 134016, Note_on_c, 0, 81, 80
2, 134108, Note_off_c, 0, 81, 100
2, 134112, Note_on_c, 0, 79, 80
2, 134204, Note_off_c, 0, 79, 100
2, 134208, Note_on_c, 0, 78, 80
2, 134300, Note_off_c, 0, 78, 100
2, 134304, Note_on_c, 0, 76, 80
2, 134396, Note_off_c, 0, 76, 100
2, 134400, Note_on_c, 0, 76, 80
2, 134588, Note_off_c, 0, 76, 100
2, 134592, Note_on_c, 0, 74, 80
2, 135068, Note_off_c, 0, 74, 100
2, 135072, Note_on_c, 0, 74, 80
2, 135260, Note_off_c, 0, 74, 100
2, 135264, Note_on_c, 0, 74, 80
2, 135452, Note_off_c, 0, 74, 100
2, 135456, Note_on_c, 0, 74, 80
2, 135548, Note_off_c, 0, 74, 100
2, 135552, Note_on_c, 0, 74, 80
2, 135612, Note_off_c, 0, 74, 100
2, 135616, Note_on_c, 0, 73, 80
2, 135676, Note_off_c, 0, 73, 100
2, 135680, Note_on_c, 0, 74, 80
2, 135740, Note_off_c, 0, 74, 100
2, 135744, Note_on_c, 0, 75, 80
2, 135804, Note_off_c, 0, 75, 100
2, 135808, Note_on_c, 0, 76, 80
2, 135868, Note_off_c, 0, 76, 100
2, 135872, Note_on_c, 0, 77, 80
2, 135932, Note_off_c, 0, 77, 100
2, 135936, Note_on_c, 0, 78, 80
2, 136028, Note_off_c, 0, 78, 100
2, 136032, Note_on_c, 0, 79, 80
2, 136124, Note_off_c, 0, 79, 100
2, 136128, Note_on_c, 0, 69, 80
2, 136192, Note_on_c, 0, 68, 80
2, 136208, Note_off_c, 0, 69, 100
2, 136256, Note_on_c, 0, 69, 80
2, 136274, Note_off_c, 0, 68, 100
2, 136320, Note_on_c, 0, 70, 80
2, 136342, Note_off_c, 0, 69, 100
2, 136368, Note_on_c, 0, 71, 80
2, 136384, Note_off_c, 0, 70, 100
2, 136416, Note_on_c, 0, 72, 80
2, 136428, Note_off_c, 0, 71, 100
2, 136464, Note_on_c, 0, 73, 80
2, 136474, Note_off_c, 0, 72, 100
2, 136512, Note_on_c, 0, 74, 80
2, 136522, Note_off_c, 0, 73, 100
2, 136576, Note_on_c, 0, 75, 80
2, 136596, Note_off_c, 0, 74, 100
2, 136640, Note_on_c, 0, 76, 80
2, 136660, Note_off_c, 0, 75, 100
2, 136704, Note_on_c, 0, 76, 80
2, 136720, Note_off_c, 0, 76, 100
2, 136892, Note_off_c, 0, 76, 100
2, 136896, Note_on_c, 0, 62, 80
2, 137372, Note_off_c, 0, 62, 100
2, 137376, Note_on_c, 0, 64, 80
2, 137408, Note_on_c, 0, 62, 80
2, 137418, Note_off_c, 0, 64, 100
2, 137440, Note_on_c, 0, 61, 80
2, 137454, Note_off_c, 0, 62, 100
2, 137472, Note_on_c, 0, 62, 80
2, 137486, Note_off_c, 0, 61, 100
2, 137504, Note_on_c, 0, 64, 80
2, 137514, Note_off_c, 0, 62, 100
2, 137536, Note_on_c, 0, 66, 80
2, 137544, Note_off_c, 0, 64, 100
2, 137568, Note_on_c, 0, 67, 80
2, 137578, Note_off_c, 0, 66, 100
2, 137600, Note_on_c, 0, 69, 80
2, 137614, Note_off_c, 0, 67, 100
2, 137632, Note_on_c, 0, 71, 80
2, 137646, Note_off_c, 0, 69, 100
2, 137664, Note_on_c, 0, 72, 80
2, 137680, Note_off_c, 0, 71, 100
2, 137756, Note_off_c, 0, 72, 100
2, 137808, Note_on_c, 0, 66, 80
2, 137852, Note_off_c, 0, 66, 100
2, 137856, Note_on_c, 0, 69, 80
2, 137856, Note_on_c, 0, 60, 80
2, 138428, Note_off_c, 0, 69, 100
2, 138428, Note_off_c, 0, 60, 100
2, 138432, Note_on_c, 0, 67, 80
2, 138432, Note_on_c, 0, 59, 80
2, 138620, Note_off_c, 0, 67, 100
2, 138620, Note_off_c, 0, 59, 100
2, 138624, Note_on_c, 0, 67, 80
2, 138812, Note_off_c, 0, 67, 100
2, 138816, Note_on_c, 0, 67, 80
2, 139004, Note_off_c, 0, 67, 100
2, 139008, Note_on_c, 0, 67, 80
2, 139196, Note_off_c, 0, 67, 100
2, 139200, Note_on_c, 0, 66, 80
2, 139388, Note_off_c, 0, 66, 100
2, 139392, Note_on_c, 0, 67, 80
2, 139580, Note_off_c, 0, 67, 100
2, 139584, Note_on_c, 0, 67, 80
2, 139772, Note_off_c, 0, 67, 100
2, 139776, Note_on_c, 0, 66, 80
2, 139964, Note_off_c, 0, 66, 100
2, 139968, Note_on_c, 0, 67, 80
2, 140060, Note_off_c, 0, 67, 100
2, 140064, Note_on_c, 0, 67, 80
2, 140156, Note_off_c, 0, 67, 100
2, 140256, Note_on_c, 0, 67, 80
2, 140348, Note_off_c, 0, 67, 100
2, 140448, Note_on_c, 0, 66, 80
2, 140540, Note_off_c, 0, 66, 100
2, 140640, Note_on_c, 0, 67, 80
2, 140732, Note_off_c, 0, 67, 100
2, 140832, Note_on_c, 0, 67, 80
2, 140924, Note_off_c, 0, 67, 100
2, 141024, Note_on_c, 0, 66, 80
2, 141116, Note_off_c, 0, 66, 100
2, 141216, Note_on_c, 0, 73, 80
2, 141216, Note_on_c, 0, 70, 80
2, 141216, Note_on_c, 0, 67, 80
2, 141308, Note_off_c, 0, 73, 100
2, 141308, Note_off_c, 0, 70, 100
2, 141308, Note_off_c, 0, 67, 100
2, 141312, Note_on_c, 0, 73, 80
2, 141312, Note_on_c, 0, 70, 80
2, 141408, Note_on_c, 0, 67, 80
2, 141500, Note_off_c, 0, 67, 100
2, 141600, Note_on_c, 0, 66, 80
2, 141692, Note_off_c, 0, 66, 100
2, 141792, Note_on_c, 0, 67, 80
2, 141884, Note_off_c, 0, 67, 100
2, 141984, Note_on_c, 0, 67, 80
2, 142076, Note_off_c, 0, 67, 100
2, 142176, Note_on_c, 0, 66, 80
2, 142268, Note_off_c, 0, 66, 100
2, 142364, Note_off_c, 0, 70, 100
2, 142364, Note_off_c, 0, 73, 100
2, 142368, Note_on_c, 0, 73, 80
2, 142368, Note_on_c, 0, 70, 80
2, 142368, Note_on_c, 0, 67, 80
2, 142460, Note_off_c, 0, 73, 100
2, 142460, Note_off_c, 0, 70, 100
2, 142460, Note_off_c, 0, 67, 100
2, 142560, Note_on_c, 0, 73, 80
2, 142560, Note_on_c, 0, 70, 80
2, 142560, Note_on_c, 0, 67, 80
2, 142652, Note_off_c, 0, 73, 100
2, 142652, Note_off_c, 0, 70, 100
2, 142652, Note_off_c, 0, 67, 100
2, 142752, Note_on_c, 0, 74, 80
2, 142752, Note_on_c, 0, 69, 80
2, 142844, Note_off_c, 0, 74, 100
2, 142844, Note_off_c, 0, 69, 100
2, 142944, Note_on_c, 0, 76, 80
2, 142944, Note_on_c, 0, 69, 80
2, 143036, Note_off_c, 0, 76, 100
2, 143036, Note_off_c, 0, 69, 100
2, 143040, Note_on_c, 0, 76, 80
2, 143040, Note_on_c, 0, 69, 80
2, 143612, Note_off_c, 0, 76, 100
2, 143616, Note_on_c, 0, 77, 80
2, 143804, Note_off_c, 0, 69, 100
2, 143804, Note_off_c, 0, 77, 100
2, 143808, Note_on_c, 0, 65, 80
2, 143996, Note_off_c, 0, 65, 100
2, 144000, Note_on_c, 0, 65, 80
2, 144188, Note_off_c, 0, 65, 100
2, 144192, Note_on_c, 0, 65, 80
2, 144380, Note_off_c, 0, 65, 100
2, 144384, Note_on_c, 0, 64, 80
2, 144572, Note_off_c, 0, 64, 100
2, 144576, Note_on_c, 0, 65, 80
2, 144764, Note_off_c, 0, 65, 100
2, 144768, Note_on_c, 0, 65, 80
2, 144956, Note_off_c, 0, 65, 100
2, 144960, Note_on_c, 0, 64, 80
2, 145148, Note_off_c, 0, 64, 100
2, 145152, Note_on_c, 0, 65, 80
2, 145244, Note_off_c, 0, 65, 100
2, 145248, Note_on_c, 0, 65, 80
2, 145340, Note_off_c, 0, 65, 100
2, 145440, Note_on_c, 0, 65, 80
2, 145532, Note_off_c, 0, 65, 100
2, 145632, Note_on_c, 0, 64, 80
2, 145724, Note_off_c, 0, 64, 100
2, 145824, Note_on_c, 0, 65, 80
2, 145916, Note_off_c, 0, 65, 100
2, 146016, Note_on_c, 0, 65, 80
2, 146108, Note_off_c, 0, 65, 100
2, 146208, Note_on_c, 0, 64, 80
2, 146300, Note_off_c, 0, 64, 100
2, 146400, Note_on_c, 0, 65, 80
2, 146400, Note_on_c, 0, 68, 80
2, 146400, Note_on_c, 0, 71, 80
2, 146492, Note_off_c, 0, 65, 100
2, 146492, Note_off_c, 0, 68, 100
2, 146492, Note_off_c, 0, 71, 100
2, 146496, Note_on_c, 0, 71, 80
2, 146496, Note_on_c, 0, 68, 80
2, 146592, Note_on_c, 0, 65, 80
2, 146684, Note_off_c, 0, 65, 100
2, 146784, Note_on_c, 0, 64, 80
2, 146876, Note_off_c, 0, 64, 100
2, 146976, Note_on_c, 0, 65, 80
2, 147068, Note_off_c, 0, 65, 100
2, 147168, Note_on_c, 0, 65, 80
2, 147260, Note_off_c, 0, 65, 100
2, 147360, Note_on_c, 0, 64, 80
2, 147452, Note_off_c, 0, 64, 100
2, 147548, Note_off_c, 0, 68, 100
2, 147548, Note_off_c, 0, 71, 100
2, 147552, Note_on_c, 0, 71, 80
2, 147552, Note_on_c, 0, 68, 80
2, 147552, Note_on_c, 0, 65, 80
2, 147644, Note_off_c, 0, 71, 100
2, 147644, Note_off_c, 0, 68, 100
2, 147644, Note_off_c, 0, 65, 100
2, 147744, Note_on_c, 0, 71, 80
2, 147744, Note_on_c, 0, 68, 80
2, 147744, Note_on_c, 0, 65, 80
2, 147836, Note_off_c, 0, 71, 100
2, 147836, Note_off_c, 0, 68, 100
2, 147836, Note_off_c, 0, 65, 100
2, 147936, Note_on_c, 0, 72, 80
2, 147936, Note_on_c, 0, 67, 80
2, 148028, Note_off_c, 0, 72, 100
2, 148028, Note_off_c, 0, 67, 100
2, 148128, Note_on_c, 0, 74, 80
2, 148128, Note_on_c, 0, 67, 80
2, 148220, Note_off_c, 0, 74, 100
2, 148220, Note_off_c, 0, 67, 100
2, 148224, Note_on_c, 0, 76, 80
2, 148224, Note_on_c, 0, 67, 80
2, 148316, Note_off_c, 0, 67, 100
2, 148320, Note_on_c, 0, 66, 80
2, 148412, Note_off_c, 0, 66, 100
2, 148416, Note_on_c, 0, 66, 80
2, 148508, Note_off_c, 0, 66, 100
2, 148512, Note_on_c, 0, 67, 80
2, 148604, Note_off_c, 0, 67, 100
2, 148608, Note_on_c, 0, 67, 80
2, 148700, Note_off_c, 0, 67, 100
2, 148704, Note_on_c, 0, 68, 80
2, 148796, Note_off_c, 0, 76, 100
2, 148796, Note_off_c, 0, 68, 100
2, 148800, Note_on_c, 0, 74, 80
2, 148896, Note_on_c, 0, 68, 80
2, 148988, Note_off_c, 0, 68, 100
2, 148992, Note_on_c, 0, 68, 80
2, 149084, Note_off_c, 0, 68, 100
2, 149088, Note_on_c, 0, 69, 80
2, 149180, Note_off_c, 0, 69, 100
2, 149184, Note_on_c, 0, 71, 80
2, 149276, Note_off_c, 0, 71, 100
2, 149280, Note_on_c, 0, 69, 80
2, 149372, Note_off_c, 0, 74, 100
2, 149372, Note_off_c, 0, 69, 100
2, 149376, Note_on_c, 0, 72, 80
2, 149472, Note_on_c, 0, 69, 80
2, 149564, Note_off_c, 0, 69, 100
2, 149568, Note_on_c, 0, 69, 80
2, 149660, Note_off_c, 0, 69, 100
2, 149664, Note_on_c, 0, 62, 80
2, 149756, Note_off_c, 0, 62, 100
2, 149760, Note_on_c, 0, 69, 80
2, 149852, Note_off_c, 0, 69, 100
2, 149856, Note_on_c, 0, 62, 80
2, 149948, Note_off_c, 0, 72, 100
2, 149948, Note_off_c, 0, 62, 100
2, 149952, Note_on_c, 0, 71, 80
2, 149952, Note_on_c, 0, 62, 80
2, 150044, Note_off_c, 0, 62, 100
2, 150048, Note_on_c, 0, 67, 80
2, 150236, Note_off_c, 0, 67, 100
2, 150240, Note_on_c, 0, 67, 80
2, 150332, Note_off_c, 0, 71, 100
2, 150428, Note_off_c, 0, 67, 100
2, 150432, Note_on_c, 0, 67, 80
2, 150620, Note_off_c, 0, 67, 100
2, 150624, Note_on_c, 0, 67, 80
2, 150720, Note_on_c, 0, 69, 80
2, 150812, Note_off_c, 0, 67, 100
2, 150816, Note_on_c, 0, 67, 80
2, 150908, Note_off_c, 0, 69, 100
2, 150912, Note_on_c, 0, 71, 80
2, 151004, Note_off_c, 0, 67, 100
2, 151008, Note_on_c, 0, 65, 80
2, 151100, Note_off_c, 0, 71, 100
2, 151104, Note_on_c, 0, 72, 80
2, 151196, Note_off_c, 0, 65, 100
2, 151200, Note_on_c, 0, 64, 80
2, 151388, Note_off_c, 0, 64, 100
2, 151392, Note_on_c, 0, 62, 80
2, 151484, Note_off_c, 0, 72, 100
2, 151488, Note_on_c, 0, 66, 80
2, 151580, Note_off_c, 0, 62, 100
2, 151584, Note_on_c, 0, 60, 80
2, 151676, Note_off_c, 0, 66, 100
2, 151676, Note_off_c, 0, 60, 100
2, 151680, Note_on_c, 0, 69, 80
2, 151680, Note_on_c, 0, 59, 80
2, 151772, Note_off_c, 0, 59, 100
2, 151776, Note_on_c, 0, 62, 80
2, 151868, Note_off_c, 0, 69, 100
2, 151868, Note_off_c, 0, 62, 100
2, 151872, Note_on_c, 0, 59, 80
2, 151872, Note_on_c, 0, 67, 80
2, 151964, Note_off_c, 0, 59, 100
2, 151964, Note_off_c, 0, 67, 100
2, 151968, Note_on_c, 0, 67, 80
2, 152156, Note_off_c, 0, 67, 100
2, 152160, Note_on_c, 0, 67, 80
2, 152256, Note_on_c, 0, 71, 80
2, 152348, Note_off_c, 0, 67, 100
2, 152352, Note_on_c, 0, 67, 80
2, 152444, Note_off_c, 0, 71, 100
2, 152448, Note_on_c, 0, 69, 80
2, 152540, Note_off_c, 0, 67, 100
2, 152544, Note_on_c, 0, 67, 80
2, 152636, Note_off_c, 0, 69, 100
2, 152640, Note_on_c, 0, 71, 80
2, 152732, Note_off_c, 0, 67, 100
2, 152736, Note_on_c, 0, 65, 80
2, 152828, Note_off_c, 0, 71, 100
2, 152832, Note_on_c, 0, 74, 80
2, 152924, Note_off_c, 0, 65, 100
2, 152928, Note_on_c, 0, 64, 80
2, 153020, Note_off_c, 0, 74, 100
2, 153024, Note_on_c, 0, 72, 80
2, 153116, Note_off_c, 0, 64, 100
2, 153120, Note_on_c, 0, 62, 80
2, 153212, Note_off_c, 0, 72, 100
2, 153216, Note_on_c, 0, 66, 80
2, 153308, Note_off_c, 0, 62, 100
2, 153312, Note_on_c, 0, 60, 80
2, 153404, Note_off_c, 0, 66, 100
2, 153404, Note_off_c, 0, 60, 100
2, 153408, Note_on_c, 0, 59, 80
2, 153408, Note_on_c, 0, 67, 80
2, 153596, Note_off_c, 0, 59, 100
2, 153596, Note_off_c, 0, 67, 100
2, 153600, Note_on_c, 0, 65, 80
2, 153696, Note_on_c, 0, 74, 80
2, 153788, Note_off_c, 0, 65, 100
2, 153788, Note_off_c, 0, 74, 100
2, 153792, Note_on_c, 0, 64, 80
2, 153792, Note_on_c, 0, 72, 80
2, 153884, Note_off_c, 0, 64, 100
2, 153884, Note_off_c, 0, 72, 100
2, 153888, Note_on_c, 0, 60, 80
2, 153888, Note_on_c, 0, 66, 80
2, 153980, Note_off_c, 0, 60, 100
2, 153980, Note_off_c, 0, 66, 100
2, 153984, Note_on_c, 0, 59, 80
2, 153984, Note_on_c, 0, 67, 80
2, 154172, Note_off_c, 0, 59, 100
2, 154172, Note_off_c, 0, 67, 100
2, 154176, Note_on_c, 0, 65, 80
2, 154272, Note_on_c, 0, 74, 80
2, 154364, Note_off_c, 0, 65, 100
2, 154364, Note_off_c, 0, 74, 100
2, 154368, Note_on_c, 0, 64, 80
2, 154368, Note_on_c, 0, 72, 80
2, 154460, Note_off_c, 0, 64, 100
2, 154460, Note_off_c, 0, 72, 100
2, 154464, Note_on_c, 0, 60, 80
2, 154464, Note_on_c, 0, 66, 80
2, 154556, Note_off_c, 0, 60, 100
2, 154556, Note_off_c, 0, 66, 100
2, 154560, Note_on_c, 0, 59, 80
2, 154560, Note_on_c, 0, 67, 80
2, 154748, Note_off_c, 0, 59, 100
2, 154748, Note_off_c, 0, 67, 100
2, 154752, Note_on_c, 0, 65, 80
2, 154848, Note_on_c, 0, 74, 80
2, 154940, Note_off_c, 0, 65, 100
2, 154940, Note_off_c, 0, 74, 100
2, 154944, Note_on_c, 0, 64, 80
2, 154944, Note_on_c, 0, 72, 80
2, 155036, Note_off_c, 0, 64, 100
2, 155036, Note_off_c, 0, 72, 100
2, 155040, Note_on_c, 0, 60, 80
2, 155040, Note_on_c, 0, 66, 80
2, 155132, Note_off_c, 0, 60, 100
2, 155132, Note_off_c, 0, 66, 100
2, 155136, Note_on_c, 0, 67, 80
2, 155136, Note_on_c, 0, 59, 80
2, 155184, Note_on_c, 0, 69, 80
2, 155228, Note_off_c, 0, 67, 100
2, 155232, Note_on_c, 0, 67, 80
2, 155276, Note_off_c, 0, 69, 100
2, 155280, Note_on_c, 0, 69, 80
2, 155324, Note_off_c, 0, 67, 100
2, 155328, Note_on_c, 0, 67, 80
2, 155372, Note_off_c, 0, 69, 100
2, 155376, Note_on_c, 0, 69, 80
2, 155420, Note_off_c, 0, 67, 100
2, 155424, Note_on_c, 0, 67, 80
2, 155468, Note_off_c, 0, 69, 100
2, 155472, Note_on_c, 0, 69, 80
2, 155516, Note_off_c, 0, 67, 100
2, 155520, Note_on_c, 0, 67, 80
2, 155564, Note_off_c, 0, 69, 100
2, 155568, Note_on_c, 0, 69, 80
2, 155612, Note_off_c, 0, 67, 100
2, 155616, Note_on_c, 0, 67, 80
2, 155660, Note_off_c, 0, 69, 100
2, 155664, Note_on_c, 0, 69, 80
2, 155708, Note_off_c, 0, 67, 100
2, 155712, Note_on_c, 0, 67, 80
2, 155756, Note_off_c, 0, 69, 100
2, 155760, Note_on_c, 0, 69, 80
2, 155804, Note_off_c, 0, 67, 100
2, 155808, Note_on_c, 0, 67, 80
2, 155852, Note_off_c, 0, 69, 100
2, 155856, Note_on_c, 0, 69, 80
2, 155900, Note_off_c, 0, 67, 100
2, 155904, Note_on_c, 0, 67, 80
2, 155948, Note_off_c, 0, 69, 100
2, 155952, Note_on_c, 0, 69, 80
2, 155996, Note_off_c, 0, 67, 100
2, 156000, Note_on_c, 0, 67, 80
2, 156044, Note_off_c, 0, 69, 100
2, 156048, Note_on_c, 0, 69, 80
2, 156092, Note_off_c, 0, 67, 100
2, 156096, Note_on_c, 0, 67, 80
2, 156140, Note_off_c, 0, 69, 100
2, 156144, Note_on_c, 0, 69, 80
2, 156188, Note_off_c, 0, 67, 100
2, 156192, Note_on_c, 0, 67, 80
2, 156236, Note_off_c, 0, 69, 100
2, 156240, Note_on_c, 0, 69, 80
2, 156284, Note_off_c, 0, 59, 100
2, 156284, Note_off_c, 0, 67, 100
2, 156288, Note_on_c, 0, 67, 80
2, 156316, Note_on_c, 0, 66, 80
2, 156332, Note_off_c, 0, 69, 100
2, 156332, Note_off_c, 0, 67, 100
2, 156342, Note_on_c, 0, 67, 80
2, 156360, Note_off_c, 0, 66, 100
2, 156384, Note_on_c, 0, 62, 80
2, 156386, Note_off_c, 0, 67, 100
2, 156408, Note_on_c, 0, 64, 80
2, 156428, Note_off_c, 0, 62, 100
2, 156432, Note_on_c, 0, 66, 80
2, 156452, Note_off_c, 0, 64, 100
2, 156456, Note_on_c, 0, 67, 80
2, 156476, Note_off_c, 0, 66, 100
2, 156480, Note_on_c, 0, 69, 80
2, 156500, Note_off_c, 0, 67, 100
2, 156504, Note_on_c, 0, 67, 80
2, 156524, Note_off_c, 0, 69, 100
2, 156528, Note_on_c, 0, 66, 80
2, 156548, Note_off_c, 0, 67, 100
2, 156552, Note_on_c, 0, 67, 80
2, 156572, Note_off_c, 0, 66, 100
2, 156576, Note_on_c, 0, 69, 80
2, 156596, Note_off_c, 0, 67, 100
2, 156600, Note_on_c, 0, 71, 80
2, 156620, Note_off_c, 0, 69, 100
2, 156624, Note_on_c, 0, 72, 80
2, 156644, Note_off_c, 0, 71, 100
2, 156648, Note_on_c, 0, 71, 80
2, 156668, Note_off_c, 0, 72, 100
2, 156672, Note_on_c, 0, 69, 80
2, 156692, Note_off_c, 0, 71, 100
2, 156696, Note_on_c, 0, 71, 80
2, 156716, Note_off_c, 0, 69, 100
2, 156720, Note_on_c, 0, 72, 80
2, 156740, Note_off_c, 0, 71, 100
2, 156744, Note_on_c, 0, 74, 80
2, 156764, Note_off_c, 0, 72, 100
2, 156768, Note_on_c, 0, 76, 80
2, 156788, Note_off_c, 0, 74, 100
2, 156792, Note_on_c, 0, 74, 80
2, 156812, Note_off_c, 0, 76, 100
2, 156816, Note_on_c, 0, 73, 80
2, 156836, Note_off_c, 0, 74, 100
2, 156840, Note_on_c, 0, 74, 80
2, 156860, Note_off_c, 0, 73, 100
2, 156864, Note_on_c, 0, 76, 80
2, 156884, Note_off_c, 0, 74, 100
2, 156888, Note_on_c, 0, 78, 80
2, 156912, Note_on_c, 0, 79, 80
2, 156936, Note_on_c, 0, 81, 80
2, 156956, Note_off_c, 0, 76, 100
2, 156960, Note_on_c, 0, 79, 80
2, 156980, Note_off_c, 0, 78, 100
2, 156984, Note_on_c, 0, 78, 80
2, 157004, Note_off_c, 0, 79, 100
2, 157008, Note_on_c, 0, 79, 80
2, 157028, Note_off_c, 0, 81, 100
2, 157032, Note_on_c, 0, 81, 80
2, 157052, Note_off_c, 0, 79, 100
2, 157056, Note_on_c, 0, 83, 80
2, 157076, Note_off_c, 0, 78, 100
2, 157080, Note_on_c, 0, 84, 80
2, 157100, Note_off_c, 0, 79, 100
2, 157104, Note_on_c, 0, 83, 80
2, 157124, Note_off_c, 0, 81, 100
2, 157128, Note_on_c, 0, 81, 80
2, 157148, Note_off_c, 0, 83, 100
2, 157152, Note_on_c, 0, 83, 80
2, 157172, Note_off_c, 0, 84, 100
2, 157176, Note_on_c, 0, 84, 80
2, 157196, Note_off_c, 0, 83, 100
2, 157200, Note_on_c, 0, 86, 80
2, 157220, Note_off_c, 0, 81, 100
2, 157224, Note_on_c, 0, 84, 80
2, 157244, Note_off_c, 0, 83, 100
2, 157248, Note_on_c, 0, 83, 80
2, 157268, Note_off_c, 0, 84, 100
2, 157272, Note_on_c, 0, 81, 80
2, 157292, Note_off_c, 0, 86, 100
2, 157296, Note_on_c, 0, 79, 80
2, 157316, Note_off_c, 0, 84, 100
2, 157320, Note_on_c, 0, 81, 80
2, 157340, Note_off_c, 0, 83, 100
2, 157344, Note_on_c, 0, 79, 80
2, 157364, Note_off_c, 0, 81, 100
2, 157368, Note_on_c, 0, 78, 80
2, 157388, Note_off_c, 0, 79, 100
2, 157392, Note_on_c, 0, 79, 80
2, 157412, Note_off_c, 0, 81, 100
2, 157416, Note_on_c, 0, 81, 80
2, 157436, Note_off_c, 0, 79, 100
2, 157440, Note_on_c, 0, 83, 80
2, 157460, Note_off_c, 0, 78, 100
2, 157464, Note_on_c, 0, 84, 80
2, 157484, Note_off_c, 0, 79, 100
2, 157488, Note_on_c, 0, 83, 80
2, 157488, Note_on_c, 0, 81, 80
2, 157508, Note_off_c, 0, 81, 100
2, 157532, Note_off_c, 0, 83, 100
2, 157536, Note_on_c, 0, 83, 80
2, 157556, Note_off_c, 0, 84, 100
2, 157560, Note_on_c, 0, 84, 80
2, 157580, Note_off_c, 0, 83, 100
2, 157580, Note_off_c, 0, 81, 100
2, 157584, Note_on_c, 0, 86, 80
2, 157608, Note_on_c, 0, 84, 80
2, 157628, Note_off_c, 0, 83, 100
2, 157632, Note_on_c, 0, 83, 80
2, 157652, Note_off_c, 0, 84, 100
2, 157656, Note_on_c, 0, 81, 80
2, 157676, Note_off_c, 0, 86, 100
2, 157680, Note_on_c, 0, 79, 80
2, 157700, Note_off_c, 0, 84, 100
2, 157704, Note_on_c, 0, 81, 80
2, 157724, Note_off_c, 0, 83, 100
2, 157728, Note_on_c, 0, 79, 80
2, 157748, Note_off_c, 0, 81, 100
2, 157752, Note_on_c, 0, 78, 80
2, 157772, Note_off_c, 0, 79, 100
2, 157776, Note_on_c, 0, 79, 80
2, 157796, Note_off_c, 0, 81, 100
2, 157800, Note_on_c, 0, 81, 80
2, 157820, Note_off_c, 0, 79, 100
2, 157824, Note_on_c, 0, 83, 80
2, 157844, Note_off_c, 0, 78, 100
2, 157848, Note_on_c, 0, 85, 80
2, 157868, Note_off_c, 0, 79, 100
2, 157872, Note_on_c, 0, 83, 80
2, 157892, Note_off_c, 0, 81, 100
2, 157896, Note_on_c, 0, 81, 80
2, 157916, Note_off_c, 0, 83, 100
2, 157920, Note_on_c, 0, 83, 80
2, 157940, Note_off_c, 0, 85, 100
2, 157944, Note_on_c, 0, 85, 80
2, 157964, Note_off_c, 0, 83, 100
2, 157968, Note_on_c, 0, 86, 80
2, 157988, Note_off_c, 0, 81, 100
2, 157992, Note_on_c, 0, 88, 80
2, 158012, Note_off_c, 0, 83, 100
2, 158016, Note_on_c, 0, 86, 80
2, 158036, Note_off_c, 0, 85, 100
2, 158040, Note_on_c, 0, 85, 80
2, 158060, Note_off_c, 0, 86, 100
2, 158064, Note_on_c, 0, 86, 80
2, 158084, Note_off_c, 0, 88, 100
2, 158088, Note_on_c, 0, 88, 80
2, 158108, Note_off_c, 0, 86, 100
2, 158112, Note_on_c, 0, 89, 80
2, 158132, Note_off_c, 0, 85, 100
2, 158136, Note_on_c, 0, 88, 80
2, 158156, Note_off_c, 0, 86, 100
2, 158160, Note_on_c, 0, 86, 80
2, 158180, Note_off_c, 0, 88, 100
2, 158184, Note_on_c, 0, 84, 80
2, 158204, Note_off_c, 0, 89, 100
2, 158208, Note_on_c, 0, 83, 80
2, 158228, Note_off_c, 0, 88, 100
2, 158232, Note_on_c, 0, 84, 80
2, 158252, Note_off_c, 0, 86, 100
2, 158256, Note_on_c, 0, 83, 80
2, 158276, Note_off_c, 0, 84, 100
2, 158280, Note_on_c, 0, 81, 80
2, 158300, Note_off_c, 0, 83, 100
2, 158304, Note_on_c, 0, 83, 80
2, 158324, Note_off_c, 0, 84, 100
2, 158328, Note_on_c, 0, 84, 80
2, 158348, Note_off_c, 0, 83, 100
2, 158352, Note_on_c, 0, 86, 80
2, 158372, Note_off_c, 0, 81, 100
2, 158376, Note_on_c, 0, 88, 80
2, 158396, Note_off_c, 0, 83, 100
2, 158400, Note_on_c, 0, 86, 80
2, 158420, Note_off_c, 0, 84, 100
2, 158424, Note_on_c, 0, 85, 80
2, 158444, Note_off_c, 0, 86, 100
2, 158448, Note_on_c, 0, 86, 80
2, 158468, Note_off_c, 0, 88, 100
2, 158472, Note_on_c, 0, 88, 80
2, 158492, Note_off_c, 0, 86, 100
2, 158496, Note_on_c, 0, 89, 80
2, 158516, Note_off_c, 0, 85, 100
2, 158520, Note_on_c, 0, 88, 80
2, 158540, Note_off_c, 0, 86, 100
2, 158544, Note_on_c, 0, 86, 80
2, 158564, Note_off_c, 0, 88, 100
2, 158568, Note_on_c, 0, 84, 80
2, 158588, Note_off_c, 0, 89, 100
2, 158592, Note_on_c, 0, 83, 80
2, 158612, Note_off_c, 0, 88, 100
2, 158616, Note_on_c, 0, 84, 80
2, 158636, Note_off_c, 0, 86, 100
2, 158640, Note_on_c, 0, 85, 80
2, 158660, Note_off_c, 0, 84, 100
2, 158664, Note_on_c, 0, 86, 80
2, 158684, Note_off_c, 0, 83, 100
2, 158688, Note_on_c, 0, 77, 80
2, 158708, Note_off_c, 0, 84, 100
2, 158712, Note_on_c, 0, 79, 80
2, 158732, Note_off_c, 0, 85, 100
2, 158736, Note_on_c, 0, 80, 80
2, 158756, Note_off_c, 0, 86, 100
2, 158760, Note_on_c, 0, 81, 80
2, 158780, Note_off_c, 0, 77, 100
2, 158784, Note_on_c, 0, 74, 80
2, 158804, Note_off_c, 0, 79, 100
2, 158808, Note_on_c, 0, 75, 80
2, 158828, Note_off_c, 0, 80, 100
2, 158832, Note_on_c, 0, 76, 80
2, 158852, Note_off_c, 0, 81, 100
2, 158856, Note_on_c, 0, 77, 80
2, 158876, Note_off_c, 0, 74, 100
2, 158880, Note_on_c, 0, 71, 80
2, 158900, Note_off_c, 0, 75, 100
2, 158904, Note_on_c, 0, 72, 80
2, 158924, Note_off_c, 0, 76, 100
2, 158928, Note_on_c, 0, 73, 80
2, 158948, Note_off_c, 0, 77, 100
2, 158952, Note_on_c, 0, 74, 80
2, 158972, Note_off_c, 0, 71, 100
2, 158976, Note_on_c, 0, 67, 80
2, 158996, Note_off_c, 0, 72, 100
2, 159000, Note_on_c, 0, 68, 80
2, 159020, Note_off_c, 0, 73, 100
2, 159024, Note_on_c, 0, 69, 80
2, 159044, Note_off_c, 0, 74, 100
2, 159048, Note_on_c, 0, 70, 80
2, 159068, Note_off_c, 0, 67, 100
2, 159072, Note_on_c, 0, 71, 80
2, 159092, Note_off_c, 0, 68, 100
2, 159096, Note_on_c, 0, 72, 80
2, 159116, Note_off_c, 0, 69, 100
2, 159120, Note_on_c, 0, 73, 80
2, 159140, Note_off_c, 0, 70, 100
2, 159144, Note_on_c, 0, 74, 80
2, 159164, Note_off_c, 0, 71, 100
2, 159168, Note_on_c, 0, 75, 80
2, 159188, Note_off_c, 0, 73, 100
2, 159192, Note_on_c, 0, 76, 80
2, 159212, Note_off_c, 0, 72, 100
2, 159216, Note_on_c, 0, 77, 80
2, 159236, Note_off_c, 0, 74, 100
2, 159240, Note_on_c, 0, 78, 80
2, 159260, Note_off_c, 0, 75, 100
2, 159264, Note_on_c, 0, 79, 80
2, 159284, Note_off_c, 0, 76, 100
2, 159308, Note_off_c, 0, 77, 100
2, 159312, Note_on_c, 0, 80, 80
2, 159332, Note_off_c, 0, 78, 100
2, 159356, Note_off_c, 0, 79, 100
2, 159360, Note_on_c, 0, 83, 80
2, 159404, Note_off_c, 0, 80, 100
2, 159456, Note_on_c, 0, 81, 80
2, 159510, Note_off_c, 0, 83, 100
2, 159552, Note_on_c, 0, 79, 80
2, 159600, Note_off_c, 0, 81, 100
2, 159648, Note_on_c, 0, 77, 80
2, 159704, Note_off_c, 0, 79, 100
2, 159744, Note_on_c, 0, 76, 80
2, 159798, Note_off_c, 0, 77, 100
2, 159840, Note_on_c, 0, 74, 80
2, 159884, Note_off_c, 0, 76, 100
2, 159932, Note_off_c, 0, 74, 100
2, 159936, Note_on_c, 0, 72, 80
2, 159984, Note_on_c, 0, 74, 80
2, 160028, Note_off_c, 0, 72, 100
2, 160032, Note_on_c, 0, 72, 80
2, 160076, Note_off_c, 0, 74, 100
2, 160080, Note_on_c, 0, 74, 80
2, 160124, Note_off_c, 0, 72, 100
2, 160128, Note_on_c, 0, 72, 80
2, 160172, Note_off_c, 0, 74, 100
2, 160176, Note_on_c, 0, 74, 80
2, 160220, Note_off_c, 0, 72, 100
2, 160224, Note_on_c, 0, 72, 80
2, 160268, Note_off_c, 0, 74, 100
2, 160272, Note_on_c, 0, 74, 80
2, 160316, Note_off_c, 0, 72, 100
2, 160320, Note_on_c, 0, 72, 80
2, 160364, Note_off_c, 0, 74, 100
2, 160368, Note_on_c, 0, 74, 80
2, 160412, Note_off_c, 0, 72, 100
2, 160416, Note_on_c, 0, 72, 80
2, 160460, Note_off_c, 0, 74, 100
2, 160464, Note_on_c, 0, 74, 80
2, 160508, Note_off_c, 0, 72, 100
2, 160512, Note_on_c, 0, 72, 80
2, 160556, Note_off_c, 0, 74, 100
2, 160560, Note_on_c, 0, 74, 80
2, 160604, Note_off_c, 0, 72, 100
2, 160608, Note_on_c, 0, 72, 80
2, 160652, Note_off_c, 0, 74, 100
2, 160656, Note_on_c, 0, 74, 80
2, 160700, Note_off_c, 0, 72, 100
2, 160704, Note_on_c, 0, 72, 80
2, 160748, Note_off_c, 0, 74, 100
2, 160752, Note_on_c, 0, 74, 80
2, 160796, Note_off_c, 0, 72, 100
2, 160800, Note_on_c, 0, 72, 80
2, 160844, Note_off_c, 0, 74, 100
2, 160848, Note_on_c, 0, 74, 80
2, 160892, Note_off_c, 0, 72, 100
2, 160896, Note_on_c, 0, 72, 80
2, 160940, Note_off_c, 0, 74, 100
2, 160944, Note_on_c, 0, 74, 80
2, 160988, Note_off_c, 0, 72, 100
2, 160992, Note_on_c, 0, 71, 80
2, 161036, Note_off_c, 0, 74, 100
2, 161040, Note_on_c, 0, 72, 80
2, 161084, Note_off_c, 0, 71, 100
2, 161084, Note_off_c, 0, 72, 100
2, 161088, Note_on_c, 0, 76, 80
2, 161612, Note_off_c, 0, 76, 100
2, 161616, Note_on_c, 0, 72, 80
2, 161660, Note_off_c, 0, 72, 100
2, 161664, Note_on_c, 0, 67, 80
2, 162620, Note_off_c, 0, 67, 100
2, 162624, Note_on_c, 0, 66, 80
2, 162716, Note_off_c, 0, 66, 100
2, 162720, Note_on_c, 0, 67, 80
2, 162812, Note_off_c, 0, 67, 100
2, 162816, Note_on_c, 0, 68, 80
2, 162908, Note_off_c, 0, 68, 100
2, 162912, Note_on_c, 0, 69, 80
2, 163004, Note_off_c, 0, 69, 100
2, 163008, Note_on_c, 0, 70, 80
2, 163100, Note_off_c, 0, 70, 100
2, 163104, Note_on_c, 0, 71, 80
2, 163196, Note_off_c, 0, 71, 100
2, 163200, Note_on_c, 0, 72, 80
2, 163292, Note_off_c, 0, 72, 100
2, 163296, Note_on_c, 0, 73, 80
2, 163388, Note_off_c, 0, 73, 100
2, 163392, Note_on_c, 0, 74, 80
2, 163440, Note_on_c, 0, 76, 80
2, 163484, Note_off_c, 0, 74, 100
2, 163488, Note_on_c, 0, 74, 80
2, 163532, Note_off_c, 0, 76, 100
2, 163536, Note_on_c, 0, 76, 80
2, 163580, Note_off_c, 0, 74, 100
2, 163584, Note_on_c, 0, 74, 80
2, 163628, Note_off_c, 0, 76, 100
2, 163632, Note_on_c, 0, 76, 80
2, 163676, Note_off_c, 0, 74, 100
2, 163680, Note_on_c, 0, 74, 80
2, 163724, Note_off_c, 0, 76, 100
2, 163728, Note_on_c, 0, 76, 80
2, 163772, Note_off_c, 0, 74, 100
2, 163776, Note_on_c, 0, 74, 80
2, 163820, Note_off_c, 0, 76, 100
2, 163824, Note_on_c, 0, 76, 80
2, 163868, Note_off_c, 0, 74, 100
2, 163872, Note_on_c, 0, 74, 80
2, 163916, Note_off_c, 0, 76, 100
2, 163920, Note_on_c, 0, 76, 80
2, 163964, Note_off_c, 0, 74, 100
2, 163968, Note_on_c, 0, 74, 80
2, 164012, Note_off_c, 0, 76, 100
2, 164016, Note_on_c, 0, 76, 80
2, 164060, Note_off_c, 0, 74, 100
2, 164064, Note_on_c, 0, 74, 80
2, 164108, Note_off_c, 0, 76, 100
2, 164112, Note_on_c, 0, 76, 80
2, 164156, Note_off_c, 0, 74, 100
2, 164160, Note_on_c, 0, 74, 80
2, 164204, Note_off_c, 0, 76, 100
2, 164208, Note_on_c, 0, 76, 80
2, 164252, Note_off_c, 0, 74, 100
2, 164256, Note_on_c, 0, 74, 80
2, 164300, Note_off_c, 0, 76, 100
2, 164304, Note_on_c, 0, 76, 80
2, 164348, Note_off_c, 0, 74, 100
2, 164352, Note_on_c, 0, 74, 80
2, 164396, Note_off_c, 0, 76, 100
2, 164400, Note_on_c, 0, 76, 80
2, 164444, Note_off_c, 0, 74, 100
2, 164448, Note_on_c, 0, 73, 80
2, 164448, Note_on_c, 0, 76, 80
2, 164492, Note_off_c, 0, 76, 100
2, 164492, Note_off_c, 0, 76, 100
2, 164496, Note_on_c, 0, 74, 80
2, 164540, Note_off_c, 0, 73, 100
2, 164540, Note_off_c, 0, 74, 100
2, 164544, Note_on_c, 0, 79, 80
2, 164996, Note_off_c, 0, 79, 100
2, 165000, Note_on_c, 0, 77, 80
2, 165024, Note_on_c, 0, 76, 80
2, 165044, Note_off_c, 0, 77, 100
2, 165048, Note_on_c, 0, 74, 80
2, 165068, Note_off_c, 0, 76, 100
2, 165072, Note_on_c, 0, 72, 80
2, 165092, Note_off_c, 0, 74, 100
2, 165096, Note_on_c, 0, 71, 80
2, 165116, Note_off_c, 0, 72, 100
2, 165116, Note_off_c, 0, 71, 100
2, 165120, Note_on_c, 0, 69, 80
2, 165308, Note_off_c, 0, 69, 100
2, 165312, Note_on_c, 0, 67, 80
2, 166076, Note_off_c, 0, 67, 100
2, 166080, Note_on_c, 0, 67, 80
2, 166172, Note_off_c, 0, 67, 100
2, 166176, Note_on_c, 0, 69, 80
2, 166268, Note_off_c, 0, 69, 100
2, 166272, Note_on_c, 0, 70, 80
2, 166364, Note_off_c, 0, 70, 100
2, 166368, Note_on_c, 0, 71, 80
2, 166460, Note_off_c, 0, 71, 100
2, 166464, Note_on_c, 0, 72, 80
2, 166556, Note_off_c, 0, 72, 100
2, 166560, Note_on_c, 0, 73, 80
2, 166652, Note_off_c, 0, 73, 100
2, 166656, Note_on_c, 0, 74, 80
2, 166748, Note_off_c, 0, 74, 100
2, 166752, Note_on_c, 0, 75, 80
2, 166844, Note_off_c, 0, 75, 100
2, 166848, Note_on_c, 0, 76, 80
2, 166902, Note_on_c, 0, 77, 80
2, 166940, Note_off_c, 0, 76, 100
2, 166952, Note_on_c, 0, 76, 80
2, 166994, Note_off_c, 0, 77, 100
2, 167002, Note_on_c, 0, 75, 80
2, 167044, Note_off_c, 0, 76, 100
2, 167052, Note_on_c, 0, 76, 80
2, 167094, Note_off_c, 0, 75, 100
2, 167102, Note_on_c, 0, 72, 80
2, 167144, Note_off_c, 0, 76, 100
2, 167154, Note_on_c, 0, 71, 80
2, 167194, Note_off_c, 0, 72, 100
2, 167204, Note_on_c, 0, 72, 80
2, 167246, Note_off_c, 0, 71, 100
2, 167256, Note_on_c, 0, 84, 80
2, 167296, Note_off_c, 0, 72, 100
2, 167308, Note_on_c, 0, 83, 80
2, 167348, Note_off_c, 0, 84, 100
2, 167364, Note_on_c, 0, 84, 80
2, 167400, Note_off_c, 0, 83, 100
2, 167424, Note_on_c, 0, 77, 80
2, 167456, Note_off_c, 0, 84, 100
2, 167478, Note_on_c, 0, 79, 80
2, 167516, Note_off_c, 0, 77, 100
2, 167528, Note_on_c, 0, 77, 80
2, 167570, Note_off_c, 0, 79, 100
2, 167578, Note_on_c, 0, 76, 80
2, 167620, Note_off_c, 0, 77, 100
2, 167628, Note_on_c, 0, 77, 80
2, 167670, Note_off_c, 0, 76, 100
2, 167678, Note_on_c, 0, 72, 80
2, 167720, Note_off_c, 0, 77, 100
2, 167730, Note_on_c, 0, 71, 80
2, 167770, Note_off_c, 0, 72, 100
2, 167780, Note_on_c, 0, 72, 80
2, 167822, Note_off_c, 0, 71, 100
2, 167832, Note_on_c, 0, 84, 80
2, 167872, Note_off_c, 0, 72, 100
2, 167882, Note_on_c, 0, 83, 80
2, 167924, Note_off_c, 0, 84, 100
2, 167942, Note_on_c, 0, 84, 80
2, 167974, Note_off_c, 0, 83, 100
2, 168000, Note_on_c, 0, 79, 80
2, 168034, Note_off_c, 0, 84, 100
2, 168054, Note_on_c, 0, 81, 80
2, 168092, Note_off_c, 0, 79, 100
2, 168104, Note_on_c, 0, 79, 80
2, 168146, Note_off_c, 0, 81, 100
2, 168154, Note_on_c, 0, 78, 80
2, 168196, Note_off_c, 0, 79, 100
2, 168204, Note_on_c, 0, 79, 80
2, 168246, Note_off_c, 0, 78, 100
2, 168254, Note_on_c, 0, 72, 80
2, 168296, Note_off_c, 0, 79, 100
2, 168306, Note_on_c, 0, 71, 80
2, 168346, Note_off_c, 0, 72, 100
2, 168356, Note_on_c, 0, 72, 80
2, 168398, Note_off_c, 0, 71, 100
2, 168408, Note_on_c, 0, 84, 80
2, 168448, Note_off_c, 0, 72, 100
2, 168460, Note_on_c, 0, 83, 80
2, 168500, Note_off_c, 0, 84, 100
2, 168516, Note_on_c, 0, 84, 80
2, 168552, Note_off_c, 0, 83, 100
2, 168576, Note_on_c, 0, 80, 80
2, 168608, Note_off_c, 0, 84, 100
2, 168668, Note_off_c, 0, 80, 100
2, 168672, Note_on_c, 0, 81, 82
2, 168860, Note_off_c, 0, 81, 100
2, 168864, Note_on_c, 0, 81, 87
2, 169052, Note_off_c, 0, 81, 100
2, 169056, Note_on_c, 0, 81, 92
2, 169244, Note_off_c, 0, 81, 100
2, 169248, Note_on_c, 0, 81, 97
2, 169436, Note_off_c, 0, 81, 100
2, 169440, Note_on_c, 0, 81, 102
2, 169628, Note_off_c, 0, 81, 100
2, 169632, Note_on_c, 0, 81, 107
2, 169820, Note_off_c, 0, 81, 100
2, 169824, Note_on_c, 0, 76, 80
2, 169916, Note_off_c, 0, 76, 100
2, 169920, Note_on_c, 0, 79, 80
2, 169940, Note_off_c, 0, 79, 100
2, 169944, Note_on_c, 0, 77, 80
2, 170008, Note_off_c, 0, 77, 100
2, 170016, Note_on_c, 0, 76, 80
2, 170108, Note_off_c, 0, 76, 100
2, 170112, Note_on_c, 0, 77, 80
2, 170204, Note_off_c, 0, 77, 100
2, 170208, Note_on_c, 0, 74, 80
2, 170300, Note_off_c, 0, 74, 100
2, 170304, Note_on_c, 0, 72, 80
2, 170348, Note_off_c, 0, 72, 100
2, 170352, Note_on_c, 0, 74, 80
2, 170396, Note_off_c, 0, 74, 100
2, 170400, Note_on_c, 0, 72, 80
2, 170444, Note_off_c, 0, 72, 100
2, 170448, Note_on_c, 0, 71, 80
2, 170492, Note_off_c, 0, 71, 100
2, 170544, Note_on_c, 0, 72, 82
2, 170588, Note_off_c, 0, 72, 100
2, 170640, Note_on_c, 0, 74, 85
2, 170684, Note_off_c, 0, 74, 100
2, 170736, Note_on_c, 0, 76, 88
2, 170780, Note_off_c, 0, 76, 100
2, 170832, Note_on_c, 0, 77, 90
2, 170876, Note_off_c, 0, 77, 100
2, 170928, Note_on_c, 0, 79, 93
2, 170972, Note_off_c, 0, 79, 100
2, 171024, Note_on_c, 0, 81, 96
2, 171068, Note_off_c, 0, 81, 100
2, 171120, Note_on_c, 0, 83, 99
2, 171164, Note_off_c, 0, 83, 100
2, 171216, Note_on_c, 0, 84, 101
2, 171260, Note_off_c, 0, 84, 100
2, 171312, Note_on_c, 0, 86, 104
2, 171356, Note_off_c, 0, 86, 100
2, 171408, Note_on_c, 0, 88, 107
2, 171452, Note_off_c, 0, 88, 100
2, 171456, Note_on_c, 0, 86, 108
2, 171480, Note_on_c, 0, 88, 109
2, 171500, Note_off_c, 0, 86, 100
2, 171504, Note_on_c, 0, 89, 109
2, 171524, Note_off_c, 0, 88, 100
2, 171644, Note_off_c, 0, 89, 100
2, 171840, Note_on_c, 0, 71, 110
2, 172028, Note_off_c, 0, 71, 100
2, 172032, Note_on_c, 0, 72, 110
2, 172032, Note_on_c, 0, 64, 110
2, 172220, Note_off_c, 0, 72, 100
2, 172220, Note_off_c, 0, 64, 100
2, 172224, Note_on_c, 0, 67, 80
2, 172412, Note_off_c, 0, 67, 100
2, 172416, Note_on_c, 0, 65, 80
2, 172604, Note_off_c, 0, 65, 100
2, 172608, Note_on_c, 0, 64, 80
2, 172796, Note_off_c, 0, 64, 100
2, 172800, Note_on_c, 0, 62, 80
2, 172988, Note_off_c, 0, 62, 100
2, 172992, Note_on_c, 0, 60, 80
2, 173180, Note_off_c, 0, 60, 100
2, 173184, Note_on_c, 0, 59, 80
2, 173276, Note_off_c, 0, 59, 100
2, 173280, Note_on_c, 0, 60, 80
2, 173372, Note_off_c, 0, 60, 100
2, 173376, Note_on_c, 0, 59, 80
2, 173468, Note_off_c, 0, 59, 100
2, 173472, Note_on_c, 0, 60, 80
2, 173564, Note_off_c, 0, 60, 100
2, 173568, Note_on_c, 0, 62, 80
2, 173660, Note_off_c, 0, 62, 100
2, 173664, Note_on_c, 0, 60, 80
2, 173756, Note_off_c, 0, 60, 100
2, 173760, Note_on_c, 0, 60, 80
2, 173808, Note_on_c, 0, 62, 80
2, 173852, Note_off_c, 0, 60, 100
2, 173856, Note_on_c, 0, 60, 80
2, 173900, Note_off_c, 0, 62, 100
2, 173904, Note_on_c, 0, 62, 80
2, 173948, Note_off_c, 0, 60, 100
2, 173952, Note_on_c, 0, 60, 80
2, 173996, Note_off_c, 0, 62, 100
2, 174000, Note_on_c, 0, 62, 80
2, 174044, Note_off_c, 0, 60, 100
2, 174048, Note_on_c, 0, 60, 80
2, 174092, Note_off_c, 0, 62, 100
2, 174096, Note_on_c, 0, 62, 80
2, 174140, Note_off_c, 0, 60, 100
2, 174144, Note_on_c, 0, 60, 80
2, 174188, Note_off_c, 0, 62, 100
2, 174192, Note_on_c, 0, 62, 80
2, 174236, Note_off_c, 0, 60, 100
2, 174240, Note_on_c, 0, 60, 80
2, 174284, Note_off_c, 0, 62, 100
2, 174288, Note_on_c, 0, 62, 80
2, 174332, Note_off_c, 0, 60, 100
2, 174336, Note_on_c, 0, 60, 80
2, 174336, Note_on_c, 0, 66, 80
2, 174380, Note_off_c, 0, 62, 100
2, 174384, Note_on_c, 0, 62, 80
2, 174428, Note_off_c, 0, 60, 100
2, 174432, Note_on_c, 0, 60, 80
2, 174476, Note_off_c, 0, 62, 100
2, 174480, Note_on_c, 0, 62, 80
2, 174524, Note_off_c, 0, 60, 100
2, 174528, Note_on_c, 0, 60, 80
2, 174572, Note_off_c, 0, 62, 100
2, 174576, Note_on_c, 0, 62, 80
2, 174620, Note_off_c, 0, 60, 100
2, 174624, Note_on_c, 0, 60, 80
2, 174668, Note_off_c, 0, 62, 100
2, 174672, Note_on_c, 0, 62, 80
2, 174716, Note_off_c, 0, 60, 100
2, 174720, Note_on_c, 0, 60, 80
2, 174764, Note_off_c, 0, 62, 100
2, 174768, Note_on_c, 0, 62, 80
2, 174812, Note_off_c, 0, 60, 100
2, 174816, Note_on_c, 0, 60, 80
2, 174860, Note_off_c, 0, 62, 100
2, 174864, Note_on_c, 0, 62, 80
2, 174908, Note_off_c, 0, 66, 100
2, 174908, Note_off_c, 0, 60, 100
2, 174912, Note_on_c, 0, 59, 80
2, 174912, Note_on_c, 0, 65, 80
2, 174956, Note_off_c, 0, 62, 100
2, 174960, Note_on_c, 0, 67, 80
2, 175004, Note_off_c, 0, 65, 100
2, 175008, Note_on_c, 0, 65, 80
2, 175052, Note_off_c, 0, 67, 100
2, 175056, Note_on_c, 0, 67, 80
2, 175100, Note_off_c, 0, 65, 100
2, 175104, Note_on_c, 0, 65, 80
2, 175148, Note_off_c, 0, 67, 100
2, 175152, Note_on_c, 0, 67, 80
2, 175196, Note_off_c, 0, 65, 100
2, 175200, Note_on_c, 0, 65, 80
2, 175244, Note_off_c, 0, 67, 100
2, 175248, Note_on_c, 0, 67, 80
2, 175292, Note_off_c, 0, 65, 100
2, 175296, Note_on_c, 0, 65, 80
2, 175340, Note_off_c, 0, 67, 100
2, 175344, Note_on_c, 0, 67, 80
2, 175388, Note_off_c, 0, 65, 100
2, 175392, Note_on_c, 0, 65, 80
2, 175436, Note_off_c, 0, 67, 100
2, 175440, Note_on_c, 0, 67, 80
2, 175484, Note_off_c, 0, 59, 100
2, 175484, Note_off_c, 0, 65, 100
2, 175488, Note_on_c, 0, 58, 80
2, 175532, Note_off_c, 0, 67, 100
2, 175536, Note_on_c, 0, 60, 80
2, 175580, Note_off_c, 0, 58, 100
2, 175584, Note_on_c, 0, 58, 80
2, 175628, Note_off_c, 0, 60, 100
2, 175632, Note_on_c, 0, 60, 80
2, 175676, Note_off_c, 0, 58, 100
2, 175680, Note_on_c, 0, 58, 80
2, 175724, Note_off_c, 0, 60, 100
2, 175728, Note_on_c, 0, 60, 80
2, 175772, Note_off_c, 0, 58, 100
2, 175776, Note_on_c, 0, 58, 80
2, 175820, Note_off_c, 0, 60, 100
2, 175824, Note_on_c, 0, 60, 80
2, 175868, Note_off_c, 0, 58, 100
2, 175872, Note_on_c, 0, 58, 80
2, 175916, Note_off_c, 0, 60, 100
2, 175920, Note_on_c, 0, 60, 80
2, 175964, Note_off_c, 0, 58, 100
2, 175968, Note_on_c, 0, 58, 80
2, 176012, Note_off_c, 0, 60, 100
2, 176016, Note_on_c, 0, 60, 80
2, 176060, Note_off_c, 0, 58, 100
2, 176064, Note_on_c, 0, 58, 80
2, 176064, Note_on_c, 0, 64, 80
2, 176108, Note_off_c, 0, 60, 100
2, 176112, Note_on_c, 0, 60, 80
2, 176156, Note_off_c, 0, 58, 100
2, 176160, Note_on_c, 0, 58, 80
2, 176204, Note_off_c, 0, 60, 100
2, 176208, Note_on_c, 0, 60, 80
2, 176252, Note_off_c, 0, 58, 100
2, 176256, Note_on_c, 0, 58, 80
2, 176300, Note_off_c, 0, 60, 100
2, 176304, Note_on_c, 0, 60, 80
2, 176348, Note_off_c, 0, 58, 100
2, 176352, Note_on_c, 0, 58, 80
2, 176396, Note_off_c, 0, 60, 100
2, 176400, Note_on_c, 0, 60, 80
2, 176444, Note_off_c, 0, 58, 100
2, 176448, Note_on_c, 0, 58, 80
2, 176492, Note_off_c, 0, 60, 100
2, 176496, Note_on_c, 0, 60, 80
2, 176540, Note_off_c, 0, 58, 100
2, 176544, Note_on_c, 0, 58, 80
2, 176588, Note_off_c, 0, 60, 100
2, 176592, Note_on_c, 0, 60, 80
2, 176636, Note_off_c, 0, 64, 100
2, 176636, Note_off_c, 0, 58, 100
2, 176640, Note_on_c, 0, 57, 80
2, 176640, Note_on_c, 0, 65, 80
2, 176684, Note_off_c, 0, 60, 100
2, 176688, Note_on_c, 0, 67, 80
2, 176732, Note_off_c, 0, 65, 100
2, 176736, Note_on_c, 0, 65, 80
2, 176780, Note_off_c, 0, 67, 100
2, 176784, Note_on_c, 0, 67, 80
2, 176828, Note_off_c, 0, 65, 100
2, 176832, Note_on_c, 0, 65, 80
2, 176876, Note_off_c, 0, 67, 100
2, 176880, Note_on_c, 0, 67, 80
2, 176924, Note_off_c, 0, 65, 100
2, 176928, Note_on_c, 0, 65, 80
2, 176972, Note_off_c, 0, 67, 100
2, 176976, Note_on_c, 0, 67, 80
2, 177020, Note_off_c, 0, 65, 100
2, 177024, Note_on_c, 0, 65, 80
2, 177068, Note_off_c, 0, 67, 100
2, 177072, Note_on_c, 0, 67, 80
2, 177116, Note_off_c, 0, 65, 100
2, 177120, Note_on_c, 0, 65, 80
2, 177164, Note_off_c, 0, 67, 100
2, 177168, Note_on_c, 0, 67, 80
2, 177212, Note_off_c, 0, 57, 100
2, 177212, Note_off_c, 0, 65, 100
2, 177216, Note_on_c, 0, 69, 82
2, 177216, Note_on_c, 0, 65, 82
2, 177240, Note_on_c, 0, 71, 83
2, 177260, Note_off_c, 0, 67, 100
2, 177260, Note_off_c, 0, 69, 100
2, 177264, Note_on_c, 0, 69, 84
2, 177284, Note_off_c, 0, 71, 100
2, 177288, Note_on_c, 0, 71, 85
2, 177308, Note_off_c, 0, 69, 100
2, 177312, Note_on_c, 0, 69, 86
2, 177332, Note_off_c, 0, 71, 100
2, 177336, Note_on_c, 0, 71, 88
2, 177356, Note_off_c, 0, 69, 100
2, 177360, Note_on_c, 0, 68, 89
2, 177380, Note_off_c, 0, 71, 100
2, 177384, Note_on_c, 0, 69, 90
2, 177404, Note_off_c, 0, 65, 100
2, 177404, Note_off_c, 0, 68, 100
2, 177408, Note_on_c, 0, 69, 91
2, 177408, Note_on_c, 0, 72, 91
2, 177428, Note_off_c, 0, 69, 100
2, 177432, Note_on_c, 0, 74, 92
2, 177452, Note_off_c, 0, 72, 100
2, 177456, Note_on_c, 0, 72, 93
2, 177476, Note_off_c, 0, 74, 100
2, 177480, Note_on_c, 0, 74, 94
2, 177500, Note_off_c, 0, 72, 100
2, 177504, Note_on_c, 0, 72, 96
2, 177524, Note_off_c, 0, 74, 100
2, 177528, Note_on_c, 0, 74, 97
2, 177548, Note_off_c, 0, 72, 100
2, 177552, Note_on_c, 0, 71, 98
2, 177572, Note_off_c, 0, 74, 100
2, 177576, Note_on_c, 0, 72, 99
2, 177596, Note_off_c, 0, 69, 100
2, 177596, Note_off_c, 0, 71, 100
2, 177600, Note_on_c, 0, 72, 100
2, 177600, Note_on_c, 0, 77, 100
2, 177620, Note_off_c, 0, 72, 100
2, 177624, Note_on_c, 0, 79, 101
2, 177644, Note_off_c, 0, 77, 100
2, 177648, Note_on_c, 0, 77, 103
2, 177668, Note_off_c, 0, 79, 100
2, 177672, Note_on_c, 0, 79, 104
2, 177692, Note_off_c, 0, 77, 100
2, 177696, Note_on_c, 0, 77, 105
2, 177716, Note_off_c, 0, 79, 100
2, 177720, Note_on_c, 0, 79, 106
2, 177740, Note_off_c, 0, 77, 100
2, 177744, Note_on_c, 0, 76, 107
2, 177764, Note_off_c, 0, 79, 100
2, 177768, Note_on_c, 0, 77, 108
2, 177788, Note_off_c, 0, 72, 100
2, 177788, Note_off_c, 0, 76, 100
2, 177792, Note_on_c, 0, 77, 109
2, 177792, Note_on_c, 0, 81, 109
2, 177812, Note_off_c, 0, 77, 100
2, 177980, Note_off_c, 0, 77, 100
2, 177980, Note_off_c, 0, 81, 100
2, 177984, Note_on_c, 0, 84, 110
2, 177984, Note_on_c, 0, 81, 110
2, 178556, Note_off_c, 0, 81, 100
2, 178556, Note_off_c, 0, 84, 100
2, 178560, Note_on_c, 0, 83, 80
2, 178560, Note_on_c, 0, 79, 80
2, 178652, Note_off_c, 0, 83, 100
2, 178652, Note_off_c, 0, 79, 100
2, 178656, Note_on_c, 0, 81, 80
2, 178656, Note_on_c, 0, 77, 80
2, 178748, Note_off_c, 0, 81, 100
2, 178748, Note_off_c, 0, 77, 100
2, 178752, Note_on_c, 0, 79, 80
2, 178752, Note_on_c, 0, 76, 80
2, 178844, Note_off_c, 0, 79, 100
2, 178844, Note_off_c, 0, 76, 100
2, 178848, Note_on_c, 0, 74, 80
2, 178848, Note_on_c, 0, 77, 80
2, 178940, Note_off_c, 0, 74, 100
2, 178940, Note_off_c, 0, 77, 100
2, 178944, Note_on_c, 0, 76, 80
2, 178944, Note_on_c, 0, 72, 80
2, 179036, Note_off_c, 0, 76, 100
2, 179036, Note_off_c, 0, 72, 100
2, 179040, Note_on_c, 0, 75, 80
2, 179040, Note_on_c, 0, 71, 80
2, 179132, Note_off_c, 0, 75, 100
2, 179132, Note_off_c, 0, 71, 100
2, 179136, Note_on_c, 0, 76, 80
2, 179136, Note_on_c, 0, 72, 80
2, 179228, Note_off_c, 0, 76, 100
2, 179228, Note_off_c, 0, 72, 100
2, 179232, Note_on_c, 0, 78, 80
2, 179232, Note_on_c, 0, 75, 80
2, 179324, Note_off_c, 0, 78, 100
2, 179324, Note_off_c, 0, 75, 100
2, 179328, Note_on_c, 0, 79, 80
2, 179328, Note_on_c, 0, 76, 80
2, 179420, Note_off_c, 0, 79, 100
2, 179420, Note_off_c, 0, 76, 100
2, 179424, Note_on_c, 0, 76, 80
2, 179424, Note_on_c, 0, 72, 80
2, 179516, Note_off_c, 0, 76, 100
2, 179516, Note_off_c, 0, 72, 100
2, 179616, Note_on_c, 0, 75, 80
2, 179616, Note_on_c, 0, 71, 80
2, 179708, Note_off_c, 0, 75, 100
2, 179708, Note_off_c, 0, 71, 100
2, 179712, Note_on_c, 0, 76, 80
2, 179712, Note_on_c, 0, 72, 80
2, 179804, Note_off_c, 0, 76, 100
2, 179804, Note_off_c, 0, 72, 100
2, 179808, Note_on_c, 0, 78, 80
2, 179808, Note_on_c, 0, 75, 80
2, 179900, Note_off_c, 0, 78, 100
2, 179900, Note_off_c, 0, 75, 100
2, 179904, Note_on_c, 0, 79, 80
2, 179904, Note_on_c, 0, 76, 80
2, 179996, Note_off_c, 0, 79, 100
2, 179996, Note_off_c, 0, 76, 100
2, 180000, Note_on_c, 0, 76, 80
2, 180000, Note_on_c, 0, 72, 80
2, 180092, Note_off_c, 0, 76, 100
2, 180092, Note_off_c, 0, 72, 100
2, 180192, Note_on_c, 0, 73, 80
2, 180192, Note_on_c, 0, 70, 80
2, 180284, Note_off_c, 0, 73, 100
2, 180284, Note_off_c, 0, 70, 100
2, 180288, Note_on_c, 0, 74, 80
2, 180288, Note_on_c, 0, 71, 80
2, 180380, Note_off_c, 0, 74, 100
2, 180380, Note_off_c, 0, 71, 100
2, 180384, Note_on_c, 0, 76, 80
2, 180384, Note_on_c, 0, 72, 80
2, 180476, Note_off_c, 0, 76, 100
2, 180476, Note_off_c, 0, 72, 100
2, 180480, Note_on_c, 0, 77, 80
2, 180480, Note_on_c, 0, 74, 80
2, 180572, Note_off_c, 0, 77, 100
2, 180572, Note_off_c, 0, 74, 100
2, 180576, Note_on_c, 0, 74, 80
2, 180576, Note_on_c, 0, 71, 80
2, 180668, Note_off_c, 0, 74, 100
2, 180668, Note_off_c, 0, 71, 100
2, 180672, Note_on_c, 0, 72, 80
2, 180860, Note_off_c, 0, 72, 100
2, 182592, Note_on_c, 0, 66, 80
2, 182780, Note_off_c, 0, 66, 100
2, 182784, Note_on_c, 0, 69, 80
2, 182972, Note_off_c, 0, 69, 100
2, 182976, Note_on_c, 0, 74, 80
2, 183164, Note_off_c, 0, 74, 100
2, 183168, Note_on_c, 0, 78, 80
2, 183356, Note_off_c, 0, 78, 100
2, 183360, Note_on_c, 0, 81, 80
2, 183548, Note_off_c, 0, 81, 100
2, 183552, Note_on_c, 0, 79, 80
2, 183552, Note_on_c, 0, 86, 80
2, 183600, Note_on_c, 0, 88, 80
2, 183644, Note_off_c, 0, 86, 100
2, 183648, Note_on_c, 0, 86, 80
2, 183692, Note_off_c, 0, 88, 100
2, 183696, Note_on_c, 0, 88, 80
2, 183740, Note_off_c, 0, 86, 100
2, 183744, Note_on_c, 0, 86, 80
2, 183788, Note_off_c, 0, 88, 100
2, 183792, Note_on_c, 0, 88, 80
2, 183836, Note_off_c, 0, 86, 100
2, 183840, Note_on_c, 0, 86, 80
2, 183884, Note_off_c, 0, 88, 100
2, 183888, Note_on_c, 0, 88, 80
2, 183932, Note_off_c, 0, 86, 100
2, 183936, Note_on_c, 0, 86, 80
2, 183980, Note_off_c, 0, 88, 100
2, 183984, Note_on_c, 0, 88, 80
2, 184028, Note_off_c, 0, 86, 100
2, 184032, Note_on_c, 0, 85, 80
2, 184076, Note_off_c, 0, 88, 100
2, 184080, Note_on_c, 0, 86, 80
2, 184124, Note_off_c, 0, 79, 100
2, 184124, Note_off_c, 0, 85, 100
2, 184172, Note_off_c, 0, 86, 100
2, 184320, Note_on_c, 0, 64, 80
2, 184508, Note_off_c, 0, 64, 100
2, 184512, Note_on_c, 0, 67, 80
2, 184700, Note_off_c, 0, 67, 100
2, 184704, Note_on_c, 0, 72, 80
2, 184892, Note_off_c, 0, 72, 100
2, 184896, Note_on_c, 0, 76, 80
2, 185084, Note_off_c, 0, 76, 100
2, 185088, Note_on_c, 0, 79, 80
2, 185276, Note_off_c, 0, 79, 100
2, 185280, Note_on_c, 0, 77, 80
2, 185280, Note_on_c, 0, 84, 80
2, 185328, Note_on_c, 0, 86, 80
2, 185372, Note_off_c, 0, 84, 100
2, 185376, Note_on_c, 0, 84, 80
2, 185420, Note_off_c, 0, 86, 100
2, 185424, Note_on_c, 0, 86, 80
2, 185468, Note_off_c, 0, 84, 100
2, 185472, Note_on_c, 0, 84, 80
2, 185516, Note_off_c, 0, 86, 100
2, 185520, Note_on_c, 0, 86, 80
2, 185564, Note_off_c, 0, 84, 100
2, 185568, Note_on_c, 0, 84, 80
2, 185612, Note_off_c, 0, 86, 100
2, 185616, Note_on_c, 0, 86, 80
2, 185660, Note_off_c, 0, 84, 100
2, 185664, Note_on_c, 0, 84, 80
2, 185708, Note_off_c, 0, 86, 100
2, 185712, Note_on_c, 0, 86, 80
2, 185756, Note_off_c, 0, 84, 100
2, 185760, Note_on_c, 0, 83, 80
2, 185804, Note_off_c, 0, 86, 100
2, 185808, Note_on_c, 0, 84, 80
2, 185852, Note_off_c, 0, 77, 100
2, 185852, Note_off_c, 0, 83, 100
2, 185856, Note_on_c, 0, 81, 81
2, 185856, Note_on_c, 0, 84, 81
2, 185900, Note_off_c, 0, 84, 100
2, 185948, Note_off_c, 0, 81, 100
2, 185948, Note_off_c, 0, 84, 100
2, 185952, Note_on_c, 0, 81, 83
2, 185952, Note_on_c, 0, 89, 83
2, 186140, Note_off_c, 0, 81, 100
2, 186140, Note_off_c, 0, 89, 100
2, 186144, Note_on_c, 0, 81, 88
2, 186144, Note_on_c, 0, 89, 88
2, 186332, Note_off_c, 0, 81, 100
2, 186332, Note_off_c, 0, 89, 100
2, 186336, Note_on_c, 0, 81, 93
2, 186336, Note_on_c, 0, 89, 93
2, 186524, Note_off_c, 0, 81, 100
2, 186524, Note_off_c, 0, 89, 100
2, 186528, Note_on_c, 0, 81, 97
2, 186528, Note_on_c, 0, 89, 97
2, 186716, Note_off_c, 0, 81, 100
2, 186716, Note_off_c, 0, 89, 100
2, 186720, Note_on_c, 0, 81, 102
2, 186720, Note_on_c, 0, 89, 102
2, 186908, Note_off_c, 0, 81, 100
2, 186908, Note_off_c, 0, 89, 100
2, 186912, Note_on_c, 0, 81, 107
2, 186912, Note_on_c, 0, 89, 107
2, 187100, Note_off_c, 0, 81, 100
2, 187100, Note_off_c, 0, 89, 100
2, 187104, Note_on_c, 0, 81, 110
2, 187104, Note_on_c, 0, 89, 110
2, 187292, Note_off_c, 0, 81, 100
2, 187292, Note_off_c, 0, 89, 100
2, 187296, Note_on_c, 0, 88, 110
2, 187296, Note_on_c, 0, 79, 110
2, 187484, Note_off_c, 0, 88, 100
2, 187484, Note_off_c, 0, 79, 100
2, 187488, Note_on_c, 0, 86, 110
2, 187488, Note_on_c, 0, 77, 110
2, 187580, Note_off_c, 0, 86, 100
2, 187580, Note_off_c, 0, 77, 100
2, 187584, Note_on_c, 0, 84, 110
2, 187584, Note_on_c, 0, 76, 110
2, 187676, Note_off_c, 0, 84, 100
2, 187676, Note_off_c, 0, 76, 100
2, 187680, Note_on_c, 0, 78, 110
2, 187680, Note_on_c, 0, 75, 110
2, 187772, Note_off_c, 0, 78, 100
2, 187772, Note_off_c, 0, 75, 100
2, 187776, Note_on_c, 0, 79, 110
2, 187776, Note_on_c, 0, 76, 110
2, 187868, Note_off_c, 0, 79, 100
2, 187868, Note_off_c, 0, 76, 100
2, 187872, Note_on_c, 0, 75, 110
2, 187872, Note_on_c, 0, 66, 110
2, 187964, Note_off_c, 0, 75, 100
2, 187964, Note_off_c, 0, 66, 100
2, 187968, Note_on_c, 0, 76, 110
2, 187968, Note_on_c, 0, 67, 110
2, 188060, Note_off_c, 0, 76, 100
2, 188060, Note_off_c, 0, 67, 100
2, 188064, Note_on_c, 0, 72, 110
2, 188064, Note_on_c, 0, 64, 110
2, 188156, Note_off_c, 0, 72, 100
2, 188156, Note_off_c, 0, 64, 100
2, 188256, Note_on_c, 0, 63, 108
2, 188256, Note_on_c, 0, 66, 108
2, 188348, Note_off_c, 0, 63, 100
2, 188348, Note_off_c, 0, 66, 100
2, 188352, Note_on_c, 0, 64, 105
2, 188352, Note_on_c, 0, 67, 105
2, 188444, Note_off_c, 0, 64, 100
2, 188444, Note_off_c, 0, 67, 100
2, 188448, Note_on_c, 0, 54, 102
2, 188448, Note_on_c, 0, 63, 102
2, 188540, Note_off_c, 0, 54, 100
2, 188540, Note_off_c, 0, 63, 100
2, 188544, Note_on_c, 0, 64, 100
2, 188544, Note_on_c, 0, 55, 100
2, 188636, Note_off_c, 0, 64, 100
2, 188636, Note_off_c, 0, 55, 100
2, 188640, Note_on_c, 0, 60, 97
2, 188640, Note_on_c, 0, 52, 97
2, 188732, Note_off_c, 0, 60, 100
2, 188732, Note_off_c, 0, 52, 100
2, 188832, Note_on_c, 0, 64, 91
2, 188832, Note_on_c, 0, 61, 91
2, 188924, Note_off_c, 0, 64, 100
2, 188924, Note_off_c, 0, 61, 100
2, 188928, Note_on_c, 0, 65, 89
2, 188928, Note_on_c, 0, 62, 89
2, 189020, Note_off_c, 0, 65, 100
2, 189020, Note_off_c, 0, 62, 100
2, 189024, Note_on_c, 0, 61, 86
2, 189024, Note_on_c, 0, 52, 86
2, 189116, Note_off_c, 0, 61, 100
2, 189116, Note_off_c, 0, 52, 100
2, 189120, Note_on_c, 0, 62, 83
2, 189120, Note_on_c, 0, 53, 83
2, 189212, Note_off_c, 0, 62, 100
2, 189212, Note_off_c, 0, 53, 100
2, 189216, Note_on_c, 0, 59, 81
2, 189216, Note_on_c, 0, 50, 81
2, 189308, Note_off_c, 0, 59, 100
2, 189308, Note_off_c, 0, 50, 100
2, 189312, Note_on_c, 0, 60, 80
2, 189312, Note_on_c, 0, 52, 80
2, 189404, Note_off_c, 0, 60, 100
2, 189404, Note_off_c, 0, 52, 100
2, 189408, Note_on_c, 0, 55, 80
2, 189500, Note_off_c, 0, 55, 100
2, 189504, Note_on_c, 0, 52, 80
2, 189596, Note_off_c, 0, 52, 100
2, 189600, Note_on_c, 0, 55, 80
2, 189692, Note_off_c, 0, 55, 100
2, 189696, Note_on_c, 0, 52, 80
2, 189788, Note_off_c, 0, 52, 100
2, 189792, Note_on_c, 0, 55, 80
2, 189884, Note_off_c, 0, 55, 100
2, 189888, Note_on_c, 0, 52, 80
2, 189980, Note_off_c, 0, 52, 100
2, 189984, Note_on_c, 0, 55, 80
2, 190076, Note_off_c, 0, 55, 100
2, 190080, Note_on_c, 0, 52, 80
2, 190172, Note_off_c, 0, 52, 100
2, 190176, Note_on_c, 0, 55, 80
2, 190268, Note_off_c, 0, 55, 100
2, 190272, Note_on_c, 0, 52, 80
2, 190364, Note_off_c, 0, 52, 100
2, 190368, Note_on_c, 0, 55, 80
2, 190460, Note_off_c, 0, 55, 100
2, 190464, Note_on_c, 0, 52, 80
2, 190556, Note_off_c, 0, 52, 100
2, 190560, Note_on_c, 0, 55, 80
2, 190652, Note_off_c, 0, 55, 100
2, 190656, Note_on_c, 0, 52, 80
2, 190748, Note_off_c, 0, 52, 100
2, 190752, Note_on_c, 0, 55, 80
2, 190844, Note_off_c, 0, 55, 100
2, 190848, Note_on_c, 0, 52, 80
2, 190940, Note_off_c, 0, 52, 100
2, 190944, Note_on_c, 0, 55, 80
2, 191036, Note_off_c, 0, 55, 100
2, 191040, Note_on_c, 0, 59, 80
2, 191040, Note_on_c, 0, 53, 80
2, 191132, Note_off_c, 0, 53, 100
2, 191136, Note_on_c, 0, 55, 80
2, 191228, Note_off_c, 0, 59, 100
2, 191228, Note_off_c, 0, 55, 100
2, 191232, Note_on_c, 0, 62, 80
2, 191232, Note_on_c, 0, 53, 80
2, 191324, Note_off_c, 0, 53, 100
2, 191328, Note_on_c, 0, 55, 80
2, 191420, Note_off_c, 0, 62, 100
2, 191420, Note_off_c, 0, 55, 100
2, 191424, Note_on_c, 0, 65, 80
2, 191424, Note_on_c, 0, 53, 80
2, 191516, Note_off_c, 0, 53, 100
2, 191520, Note_on_c, 0, 55, 80
2, 191612, Note_off_c, 0, 55, 100
2, 191616, Note_on_c, 0, 53, 80
2, 191708, Note_off_c, 0, 53, 100
2, 191712, Note_on_c, 0, 55, 80
2, 191804, Note_off_c, 0, 65, 100
2, 191804, Note_off_c, 0, 55, 100
2, 191808, Note_on_c, 0, 64, 80
2, 191808, Note_on_c, 0, 53, 80
2, 191900, Note_off_c, 0, 53, 100
2, 191904, Note_on_c, 0, 55, 80
2, 191996, Note_off_c, 0, 64, 100
2, 191996, Note_off_c, 0, 55, 100
2, 192000, Note_on_c, 0, 62, 80
2, 192000, Note_on_c, 0, 53, 80
2, 192092, Note_off_c, 0, 53, 100
2, 192096, Note_on_c, 0, 55, 80
2, 192188, Note_off_c, 0, 62, 100
2, 192188, Note_off_c, 0, 55, 100
2, 192192, Note_on_c, 0, 60, 80
2, 192192, Note_on_c, 0, 53, 80
2, 192284, Note_off_c, 0, 53, 100
2, 192288, Note_on_c, 0, 55, 80
2, 192380, Note_off_c, 0, 60, 100
2, 192380, Note_off_c, 0, 55, 100
2, 192384, Note_on_c, 0, 59, 80
2, 192384, Note_on_c, 0, 53, 80
2, 192476, Note_off_c, 0, 53, 100
2, 192480, Note_on_c, 0, 55, 80
2, 192572, Note_off_c, 0, 59, 100
2, 192572, Note_off_c, 0, 55, 100
2, 192576, Note_on_c, 0, 62, 80
2, 192576, Note_on_c, 0, 53, 80
2, 192668, Note_off_c, 0, 53, 100
2, 192672, Note_on_c, 0, 55, 80
2, 192764, Note_off_c, 0, 62, 100
2, 192764, Note_off_c, 0, 55, 100
2, 192768, Note_on_c, 0, 60, 80
2, 192768, Note_on_c, 0, 52, 80
2, 192860, Note_off_c, 0, 60, 100
2, 192860, Note_off_c, 0, 52, 100
2, 192864, Note_on_c, 0, 55, 80
2, 192956, Note_off_c, 0, 55, 100
2, 192960, Note_on_c, 0, 52, 80
2, 193052, Note_off_c, 0, 52, 100
2, 193056, Note_on_c, 0, 55, 80
2, 193148, Note_off_c, 0, 55, 100
2, 193152, Note_on_c, 0, 52, 80
2, 193244, Note_off_c, 0, 52, 100
2, 193248, Note_on_c, 0, 55, 80
2, 193340, Note_off_c, 0, 55, 100
2, 193344, Note_on_c, 0, 52, 80
2, 193436, Note_off_c, 0, 52, 100
2, 193440, Note_on_c, 0, 55, 80
2, 193532, Note_off_c, 0, 55, 100
2, 193536, Note_on_c, 0, 52, 80
2, 193628, Note_off_c, 0, 52, 100
2, 193632, Note_on_c, 0, 55, 80
2, 193724, Note_off_c, 0, 55, 100
2, 193728, Note_on_c, 0, 52, 80
2, 193820, Note_off_c, 0, 52, 100
2, 193824, Note_on_c, 0, 55, 80
2, 193916, Note_off_c, 0, 55, 100
2, 193920, Note_on_c, 0, 52, 80
2, 194012, Note_off_c, 0, 52, 100
2, 194016, Note_on_c, 0, 55, 80
2, 194108, Note_off_c, 0, 55, 100
2, 194112, Note_on_c, 0, 52, 80
2, 194204, Note_off_c, 0, 52, 100
2, 194208, Note_on_c, 0, 55, 80
2, 194300, Note_off_c, 0, 55, 100
2, 194304, Note_on_c, 0, 52, 80
2, 194396, Note_off_c, 0, 52, 100
2, 194400, Note_on_c, 0, 55, 80
2, 194492, Note_off_c, 0, 55, 100
2, 194496, Note_on_c, 0, 53, 80
2, 194496, Note_on_c, 0, 59, 80
2, 194588, Note_off_c, 0, 53, 100
2, 194592, Note_on_c, 0, 55, 80
2, 194684, Note_off_c, 0, 59, 100
2, 194684, Note_off_c, 0, 55, 100
2, 194688, Note_on_c, 0, 53, 80
2, 194688, Note_on_c, 0, 62, 80
2, 194780, Note_off_c, 0, 53, 100
2, 194784, Note_on_c, 0, 55, 80
2, 194876, Note_off_c, 0, 62, 100
2, 194876, Note_off_c, 0, 55, 100
2, 194880, Note_on_c, 0, 53, 80
2, 194880, Note_on_c, 0, 65, 80
2, 194972, Note_off_c, 0, 53, 100
2, 194976, Note_on_c, 0, 55, 80
2, 195068, Note_off_c, 0, 55, 100
2, 195072, Note_on_c, 0, 53, 80
2, 195164, Note_off_c, 0, 53, 100
2, 195168, Note_on_c, 0, 55, 80
2, 195260, Note_off_c, 0, 65, 100
2, 195260, Note_off_c, 0, 55, 100
2, 195264, Note_on_c, 0, 53, 80
2, 195264, Note_on_c, 0, 64, 80
2, 195356, Note_off_c, 0, 53, 100
2, 195360, Note_on_c, 0, 55, 80
2, 195452, Note_off_c, 0, 64, 100
2, 195452, Note_off_c, 0, 55, 100
2, 195456, Note_on_c, 0, 53, 80
2, 195456, Note_on_c, 0, 62, 80
2, 195548, Note_off_c, 0, 53, 100
2, 195552, Note_on_c, 0, 55, 80
2, 195644, Note_off_c, 0, 62, 100
2, 195644, Note_off_c, 0, 55, 100
2, 195648, Note_on_c, 0, 53, 80
2, 195648, Note_on_c, 0, 60, 80
2, 195740, Note_off_c, 0, 53, 100
2, 195744, Note_on_c, 0, 55, 80
2, 195836, Note_off_c, 0, 60, 100
2, 195836, Note_off_c, 0, 55, 100
2, 195840, Note_on_c, 0, 53, 80
2, 195840, Note_on_c, 0, 59, 80
2, 195932, Note_off_c, 0, 53, 100
2, 195936, Note_on_c, 0, 55, 80
2, 196028, Note_off_c, 0, 59, 100
2, 196028, Note_off_c, 0, 55, 100
2, 196032, Note_on_c, 0, 53, 80
2, 196032, Note_on_c, 0, 62, 80
2, 196124, Note_off_c, 0, 53, 100
2, 196128, Note_on_c, 0, 55, 80
2, 196220, Note_off_c, 0, 62, 100
2, 196220, Note_off_c, 0, 55, 100
2, 196224, Note_on_c, 0, 60, 80
2, 196224, Note_on_c, 0, 52, 80
2, 196316, Note_off_c, 0, 60, 100
2, 196316, Note_off_c, 0, 52, 100
2, 196320, Note_on_c, 0, 55, 80
2, 196412, Note_off_c, 0, 55, 100
2, 196416, Note_on_c, 0, 52, 80
2, 196508, Note_off_c, 0, 52, 100
2, 196512, Note_on_c, 0, 55, 80
2, 196604, Note_off_c, 0, 55, 100
2, 196608, Note_on_c, 0, 52, 80
2, 196700, Note_off_c, 0, 52, 100
2, 196704, Note_on_c, 0, 55, 80
2, 196796, Note_off_c, 0, 55, 100
2, 196800, Note_on_c, 0, 53, 80
2, 196800, Note_on_c, 0, 59, 80
2, 196892, Note_off_c, 0, 53, 100
2, 196896, Note_on_c, 0, 55, 80
2, 196988, Note_off_c, 0, 59, 100
2, 196988, Note_off_c, 0, 55, 100
2, 196992, Note_on_c, 0, 53, 80
2, 196992, Note_on_c, 0, 65, 80
2, 197084, Note_off_c, 0, 53, 100
2, 197088, Note_on_c, 0, 55, 80
2, 197180, Note_off_c, 0, 55, 100
2, 197184, Note_on_c, 0, 53, 80
2, 197276, Note_off_c, 0, 53, 100
2, 197280, Note_on_c, 0, 55, 80
2, 197372, Note_off_c, 0, 55, 100
2, 197376, Note_on_c, 0, 53, 80
2, 197468, Note_off_c, 0, 53, 100
2, 197472, Note_on_c, 0, 55, 80
2, 197564, Note_off_c, 0, 65, 100
2, 197564, Note_off_c, 0, 55, 100
2, 197568, Note_on_c, 0, 53, 80
2, 197568, Note_on_c, 0, 62, 80
2, 197660, Note_off_c, 0, 53, 100
2, 197664, Note_on_c, 0, 55, 80
2, 197756, Note_off_c, 0, 62, 100
2, 197756, Note_off_c, 0, 55, 100
2, 197760, Note_on_c, 0, 53, 80
2, 197760, Note_on_c, 0, 59, 80
2, 197852, Note_off_c, 0, 53, 100
2, 197856, Note_on_c, 0, 55, 80
2, 197948, Note_off_c, 0, 59, 100
2, 197948, Note_off_c, 0, 55, 100
2, 197952, Note_on_c, 0, 60, 80
2, 197952, Note_on_c, 0, 52, 80
2, 198044, Note_off_c, 0, 60, 100
2, 198044, Note_off_c, 0, 52, 100
2, 198048, Note_on_c, 0, 55, 80
2, 198140, Note_off_c, 0, 55, 100
2, 198144, Note_on_c, 0, 52, 80
2, 198236, Note_off_c, 0, 52, 100
2, 198240, Note_on_c, 0, 55, 80
2, 198332, Note_off_c, 0, 55, 100
2, 198336, Note_on_c, 0, 52, 80
2, 198428, Note_off_c, 0, 52, 100
2, 198432, Note_on_c, 0, 55, 80
2, 198524, Note_off_c, 0, 55, 100
2, 198528, Note_on_c, 0, 53, 80
2, 198528, Note_on_c, 0, 59, 80
2, 198620, Note_off_c, 0, 53, 100
2, 198624, Note_on_c, 0, 55, 80
2, 198716, Note_off_c, 0, 59, 100
2, 198716, Note_off_c, 0, 55, 100
2, 198720, Note_on_c, 0, 53, 80
2, 198720, Note_on_c, 0, 65, 80
2, 198812, Note_off_c, 0, 53, 100
2, 198816, Note_on_c, 0, 55, 80
2, 198908, Note_off_c, 0, 55, 100
2, 198912, Note_on_c, 0, 53, 80
2, 199004, Note_off_c, 0, 53, 100
2, 199008, Note_on_c, 0, 55, 80
2, 199100, Note_off_c, 0, 55, 100
2, 199104, Note_on_c, 0, 53, 80
2, 199196, Note_off_c, 0, 53, 100
2, 199200, Note_on_c, 0, 55, 80
2, 199292, Note_off_c, 0, 65, 100
2, 199292, Note_off_c, 0, 55, 100
2, 199296, Note_on_c, 0, 53, 80
2, 199296, Note_on_c, 0, 64, 80
2, 199388, Note_off_c, 0, 53, 100
2, 199388, Note_off_c, 0, 64, 100
2, 199392, Note_on_c, 0, 55, 80
2, 199392, Note_on_c, 0, 62, 80
2, 199484, Note_off_c, 0, 55, 100
2, 199484, Note_off_c, 0, 62, 100
2, 199488, Note_on_c, 0, 53, 80
2, 199488, Note_on_c, 0, 60, 80
2, 199580, Note_off_c, 0, 53, 100
2, 199580, Note_off_c, 0, 60, 100
2, 199584, Note_on_c, 0, 55, 80
2, 199584, Note_on_c, 0, 59, 80
2, 199676, Note_off_c, 0, 55, 100
2, 199676, Note_off_c, 0, 59, 100
2, 199680, Note_on_c, 0, 62, 80
2, 199776, Note_on_c, 0, 53, 80
2, 199964, Note_off_c, 0, 53, 100
2, 199968, Note_on_c, 0, 53, 80
2, 200156, Note_off_c, 0, 53, 100
2, 200160, Note_on_c, 0, 53, 80
2, 200348, Note_off_c, 0, 53, 100
2, 200352, Note_on_c, 0, 53, 80
2, 200540, Note_off_c, 0, 53, 100
2, 200544, Note_on_c, 0, 53, 80
2, 200732, Note_off_c, 0, 53, 100
2, 200736, Note_on_c, 0, 53, 80
2, 200828, Note_off_c, 0, 62, 100
2, 200924, Note_off_c, 0, 53, 100
2, 200928, Note_on_c, 0, 53, 80
2, 201024, Note_on_c, 0, 62, 80
2, 201116, Note_off_c, 0, 53, 100
2, 201120, Note_on_c, 0, 53, 80
2, 201212, Note_off_c, 0, 62, 100
2, 201216, Note_on_c, 0, 62, 80
2, 201308, Note_off_c, 0, 53, 100
2, 201312, Note_on_c, 0, 53, 80
2, 201404, Note_off_c, 0, 62, 100
2, 201408, Note_on_c, 0, 62, 80
2, 201500, Note_off_c, 0, 53, 100
2, 201504, Note_on_c, 0, 53, 80
2, 201692, Note_off_c, 0, 53, 100
2, 201696, Note_on_c, 0, 53, 80
2, 201884, Note_off_c, 0, 53, 100
2, 201888, Note_on_c, 0, 53, 80
2, 201980, Note_off_c, 0, 62, 100
2, 201980, Note_off_c, 0, 53, 100
2, 201984, Note_on_c, 0, 60, 80
2, 201984, Note_on_c, 0, 52, 80
2, 202364, Note_off_c, 0, 60, 100
2, 202364, Note_off_c, 0, 52, 100
2, 203136, Note_on_c, 0, 65, 80
2, 203136, Note_on_c, 0, 62, 80
2, 203232, Note_on_c, 0, 55, 80
2, 203420, Note_off_c, 0, 55, 100
2, 203424, Note_on_c, 0, 55, 80
2, 203612, Note_off_c, 0, 55, 100
2, 203616, Note_on_c, 0, 55, 80
2, 203708, Note_off_c, 0, 65, 100
2, 203708, Note_off_c, 0, 62, 100
2, 203712, Note_on_c, 0, 64, 80
2, 203712, Note_on_c, 0, 60, 80
2, 204092, Note_off_c, 0, 55, 100
2, 204092, Note_off_c, 0, 64, 100
2, 204092, Note_off_c, 0, 60, 100
2, 204864, Note_on_c, 0, 69, 80
2, 204864, Note_on_c, 0, 65, 80
2, 204960, Note_on_c, 0, 55, 80
2, 205148, Note_off_c, 0, 55, 100
2, 205152, Note_on_c, 0, 55, 82
2, 205340, Note_off_c, 0, 55, 100
2, 205344, Note_on_c, 0, 55, 84
2, 205436, Note_off_c, 0, 69, 100
2, 205436, Note_off_c, 0, 65, 100
2, 205440, Note_on_c, 0, 67, 85
2, 205440, Note_on_c, 0, 64, 85
2, 205532, Note_off_c, 0, 55, 100
2, 205536, Note_on_c, 0, 55, 86
2, 205724, Note_off_c, 0, 55, 100
2, 205728, Note_on_c, 0, 55, 87
2, 205916, Note_off_c, 0, 55, 100
2, 205920, Note_on_c, 0, 55, 89
2, 206012, Note_off_c, 0, 67, 100
2, 206012, Note_off_c, 0, 64, 100
2, 206016, Note_on_c, 0, 65, 90
2, 206016, Note_on_c, 0, 59, 90
2, 206108, Note_off_c, 0, 55, 100
2, 206112, Note_on_c, 0, 55, 91
2, 206300, Note_off_c, 0, 55, 100
2, 206304, Note_on_c, 0, 55, 93
2, 206492, Note_off_c, 0, 55, 100
2, 206496, Note_on_c, 0, 55, 94
2, 206588, Note_off_c, 0, 65, 100
2, 206588, Note_off_c, 0, 59, 100
2, 206588, Note_off_c, 0, 55, 100
2, 206592, Note_on_c, 0, 65, 95
2, 206592, Note_on_c, 0, 59, 95
2, 206592, Note_on_c, 0, 55, 95
2, 207164, Note_off_c, 0, 65, 100
2, 207164, Note_off_c, 0, 59, 100
2, 207168, Note_on_c, 0, 64, 80
2, 207168, Note_on_c, 0, 60, 80
2, 207260, Note_off_c, 0, 55, 100
2, 207260, Note_off_c, 0, 64, 100
2, 207260, Note_off_c, 0, 60, 100
2, 207264, Note_on_c, 0, 59, 80
2, 207356, Note_off_c, 0, 59, 100
2, 207360, Note_on_c, 0, 60, 80
2, 207452, Note_off_c, 0, 60, 100
2, 207456, Note_on_c, 0, 63, 80
2, 207548, Note_off_c, 0, 63, 100
2, 207552, Note_on_c, 0, 64, 80
2, 207644, Note_off_c, 0, 64, 100
2, 207648, Note_on_c, 0, 66, 80
2, 207740, Note_off_c, 0, 66, 100
2, 207744, Note_on_c, 0, 67, 80
2, 207836, Note_off_c, 0, 67, 100
2, 207840, Note_on_c, 0, 71, 80
2, 207932, Note_off_c, 0, 71, 100
2, 207936, Note_on_c, 0, 72, 80
2, 208028, Note_off_c, 0, 72, 100
2, 208032, Note_on_c, 0, 75, 80
2, 208124, Note_off_c, 0, 75, 100
2, 208128, Note_on_c, 0, 76, 80
2, 208220, Note_off_c, 0, 76, 100
2, 208224, Note_on_c, 0, 79, 80
2, 208316, Note_off_c, 0, 79, 100
2, 208320, Note_on_c, 0, 83, 70
2, 208320, Note_on_c, 0, 77, 70
2, 208892, Note_off_c, 0, 83, 100
2, 208892, Note_off_c, 0, 77, 100
2, 208896, Note_on_c, 0, 84, 70
2, 208896, Note_on_c, 0, 76, 70
2, 209468, Note_off_c, 0, 84, 100
2, 209468, Note_off_c, 0, 76, 100
2, 209664, Control_c, 0, 7, 0
2, 210048, Note_on_c, 0, 72, 1
2, 210428, Note_off_c, 0, 72, 100
2, 210428, End_track
3, 0, Start_track
3, 0, Title_t, "Left"
3, 0, Control_c, 1, 0, 0
3, 0, Program_c, 1, 0
3, 0, Control_c, 1, 7, 100
3, 0, Control_c, 1, 10, 59
3, 0, Control_c, 1, 91, 127
3, 0, Key_signature, 0, "major"
3, 0, Note_on_c, 1, 48, 80
3, 0, Note_on_c, 1, 52, 80
3, 188, Note_off_c, 1, 52, 100
3, 192, Note_on_c, 1, 55, 80
3, 380, Note_off_c, 1, 55, 100
3, 384, Note_on_c, 1, 60, 80
3, 572, Note_off_c, 1, 48, 100
3, 572, Note_off_c, 1, 60, 100
3, 576, Note_on_c, 1, 52, 80
3, 764, Note_off_c, 1, 52, 100
3, 768, Note_on_c, 1, 55, 80
3, 956, Note_off_c, 1, 55, 100
3, 960, Note_on_c, 1, 60, 80
3, 1148, Note_off_c, 1, 60, 100
3, 1152, Note_on_c, 1, 52, 80
3, 1340, Note_off_c, 1, 52, 100
3, 1344, Note_on_c, 1, 55, 80
3, 1532, Note_off_c, 1, 55, 100
3, 1536, Note_on_c, 1, 60, 80
3, 1724, Note_off_c, 1, 60, 100
3, 1728, Note_on_c, 1, 48, 80
3, 1728, Note_on_c, 1, 52, 80
3, 1916, Note_off_c, 1, 52, 100
3, 1920, Note_on_c, 1, 55, 80
3, 2108, Note_off_c, 1, 55, 100
3, 2112, Note_on_c, 1, 60, 80
3, 2300, Note_off_c, 1, 48, 100
3, 2300, Note_off_c, 1, 60, 100
3, 2304, Note_on_c, 1, 52, 80
3, 2492, Note_off_c, 1, 52, 100
3, 2496, Note_on_c, 1, 55, 80
3, 2684, Note_off_c, 1, 55, 100
3, 2688, Note_on_c, 1, 60, 80
3, 2876, Note_off_c, 1, 60, 100
3, 2880, Note_on_c, 1, 52, 80
3, 3068, Note_off_c, 1, 52, 100
3, 3072, Note_on_c, 1, 55, 80
3, 3260, Note_off_c, 1, 55, 100
3, 3264, Note_on_c, 1, 60, 80
3, 3452, Note_off_c, 1, 60, 100
3, 3456, Note_on_c, 1, 47, 80
3, 3456, Note_on_c, 1, 53, 80
3, 3644, Note_off_c, 1, 53, 100
3, 3648, Note_on_c, 1, 55, 80
3, 3836, Note_off_c, 1, 55, 100
3, 3840, Note_on_c, 1, 62, 80
3, 4028, Note_off_c, 1, 47, 100
3, 4028, Note_off_c, 1, 62, 100
3, 4032, Note_on_c, 1, 53, 80
3, 4220, Note_off_c, 1, 53, 100
3, 4224, Note_on_c, 1, 55, 80
3, 4412, Note_off_c, 1, 55, 100
3, 4416, Note_on_c, 1, 62, 80
3, 4604, Note_off_c, 1, 62, 100
3, 4608, Note_on_c, 1, 53, 80
3, 4796, Note_off_c, 1, 53, 100
3, 4800, Note_on_c, 1, 55, 80
3, 4988, Note_off_c, 1, 55, 100
3, 4992, Note_on_c, 1, 62, 80
3, 5180, Note_off_c, 1, 62, 100
3, 5184, Note_on_c, 1, 53, 80
3, 5184, Note_on_c, 1, 47, 80
3, 5372, Note_off_c, 1, 53, 100
3, 5376, Note_on_c, 1, 55, 80
3, 5564, Note_off_c, 1, 55, 100
3, 5568, Note_on_c, 1, 62, 80
3, 5756, Note_off_c, 1, 47, 100
3, 5756, Note_off_c, 1, 62, 100
3, 5760, Note_on_c, 1, 53, 80
3, 5948, Note_off_c, 1, 53, 100
3, 5952, Note_on_c, 1, 55, 80
3, 6140, Note_off_c, 1, 55, 100
3, 6144, Note_on_c, 1, 62, 80
3, 6332, Note_off_c, 1, 62, 100
3, 6336, Note_on_c, 1, 53, 80
3, 6336, Note_on_c, 1, 43, 80
3, 6524, Note_off_c, 1, 53, 100
3, 6528, Note_on_c, 1, 55, 80
3, 6716, Note_off_c, 1, 43, 100
3, 6716, Note_off_c, 1, 55, 100
3, 6720, Note_on_c, 1, 59, 80
3, 6908, Note_off_c, 1, 59, 100
3, 6912, Note_on_c, 1, 52, 80
3, 6912, Note_on_c, 1, 48, 80
3, 7100, Note_off_c, 1, 52, 100
3, 7100, Note_off_c, 1, 48, 100
3, 7104, Note_on_c, 1, 55, 80
3, 7292, Note_off_c, 1, 55, 100
3, 7296, Note_on_c, 1, 60, 80
3, 7484, Note_off_c, 1, 60, 100
3, 7488, Note_on_c, 1, 45, 80
3, 7676, Note_off_c, 1, 45, 100
3, 7680, Note_on_c, 1, 57, 80
3, 7868, Note_off_c, 1, 57, 100
3, 7872, Note_on_c, 1, 60, 80
3, 8060, Note_off_c, 1, 60, 100
3, 8064, Note_on_c, 1, 40, 80
3, 8252, Note_off_c, 1, 40, 100
3, 8256, Note_on_c, 1, 52, 80
3, 8256, Note_on_c, 1, 55, 80
3, 8444, Note_off_c, 1, 52, 100
3, 8444, Note_off_c, 1, 55, 100
3, 8448, Note_on_c, 1, 55, 80
3, 8448, Note_on_c, 1, 60, 80
3, 8636, Note_off_c, 1, 55, 100
3, 8636, Note_off_c, 1, 60, 100
3, 8640, Note_on_c, 1, 41, 80
3, 8828, Note_off_c, 1, 41, 100
3, 8832, Note_on_c, 1, 57, 80
3, 8832, Note_on_c, 1, 53, 80
3, 9020, Note_off_c, 1, 57, 100
3, 9020, Note_off_c, 1, 53, 100
3, 9024, Note_on_c, 1, 57, 80
3, 9024, Note_on_c, 1, 60, 80
3, 9212, Note_off_c, 1, 57, 100
3, 9212, Note_off_c, 1, 60, 100
3, 9216, Note_on_c, 1, 41, 80
3, 9404, Note_off_c, 1, 41, 100
3, 9408, Note_on_c, 1, 53, 80
3, 9408, Note_on_c, 1, 57, 80
3, 9596, Note_off_c, 1, 53, 100
3, 9596, Note_off_c, 1, 57, 100
3, 9600, Note_on_c, 1, 57, 80
3, 9600, Note_on_c, 1, 61, 80
3, 9788, Note_off_c, 1, 57, 100
3, 9788, Note_off_c, 1, 61, 100
3, 9792, Note_on_c, 1, 41, 80
3, 9980, Note_off_c, 1, 41, 100
3, 9984, Note_on_c, 1, 53, 80
3, 9984, Note_on_c, 1, 57, 80
3, 10172, Note_off_c, 1, 53, 100
3, 10172, Note_off_c, 1, 57, 100
3, 10176, Note_on_c, 1, 57, 80
3, 10176, Note_on_c, 1, 62, 80
3, 10364, Note_off_c, 1, 57, 100
3, 10364, Note_off_c, 1, 62, 100
3, 10368, Note_on_c, 1, 43, 80
3, 10556, Note_off_c, 1, 43, 100
3, 10560, Note_on_c, 1, 55, 80
3, 10560, Note_on_c, 1, 60, 80
3, 10748, Note_off_c, 1, 55, 100
3, 10748, Note_off_c, 1, 60, 100
3, 10752, Note_on_c, 1, 60, 80
3, 10752, Note_on_c, 1, 64, 80
3, 10940, Note_off_c, 1, 60, 100
3, 10940, Note_off_c, 1, 64, 100
3, 10944, Note_on_c, 1, 43, 80
3, 11132, Note_off_c, 1, 43, 100
3, 11136, Note_on_c, 1, 55, 80
3, 11136, Note_on_c, 1, 60, 80
3, 11324, Note_off_c, 1, 55, 100
3, 11324, Note_off_c, 1, 60, 100
3, 11328, Note_on_c, 1, 60, 80
3, 11328, Note_on_c, 1, 64, 80
3, 11516, Note_off_c, 1, 60, 100
3, 11516, Note_off_c, 1, 64, 100
3, 11520, Note_on_c, 1, 43, 80
3, 11708, Note_off_c, 1, 43, 100
3, 11712, Note_on_c, 1, 55, 80
3, 11712, Note_on_c, 1, 62, 80
3, 11900, Note_off_c, 1, 55, 100
3, 11900, Note_off_c, 1, 62, 100
3, 11904, Note_on_c, 1, 62, 80
3, 11904, Note_on_c, 1, 65, 80
3, 12092, Note_off_c, 1, 62, 100
3, 12092, Note_off_c, 1, 65, 100
3, 12096, Note_on_c, 1, 48, 80
3, 12284, Note_off_c, 1, 48, 100
3, 12288, Note_on_c, 1, 55, 80
3, 12476, Note_off_c, 1, 55, 100
3, 12480, Note_on_c, 1, 59, 80
3, 12668, Note_off_c, 1, 59, 100
3, 12672, Note_on_c, 1, 60, 80
3, 12672, Note_on_c, 1, 48, 80
3, 12860, Note_off_c, 1, 60, 100
3, 12860, Note_off_c, 1, 48, 100
3, 12864, Note_on_c, 1, 55, 80
3, 13052, Note_off_c, 1, 55, 100
3, 13056, Note_on_c, 1, 54, 80
3, 13244, Note_off_c, 1, 54, 100
3, 13248, Note_on_c, 1, 53, 80
3, 13436, Note_off_c, 1, 53, 100
3, 13440, Note_on_c, 1, 52, 80
3, 13628, Note_off_c, 1, 52, 100
3, 13632, Note_on_c, 1, 50, 80
3, 13820, Note_off_c, 1, 50, 100
3, 13824, Note_on_c, 1, 36, 80
3, 13872, Note_on_c, 1, 48, 80
3, 13916, Note_off_c, 1, 36, 100
3, 13920, Note_on_c, 1, 50, 80
3, 13964, Note_off_c, 1, 48, 100
3, 13968, Note_on_c, 1, 48, 80
3, 14012, Note_off_c, 1, 50, 100
3, 14016, Note_on_c, 1, 50, 80
3, 14060, Note_off_c, 1, 48, 100
3, 14064, Note_on_c, 1, 48, 80
3, 14108, Note_off_c, 1, 50, 100
3, 14112, Note_on_c, 1, 50, 80
3, 14156, Note_off_c, 1, 48, 100
3, 14160, Note_on_c, 1, 48, 80
3, 14204, Note_off_c, 1, 50, 100
3, 14208, Note_on_c, 1, 50, 80
3, 14252, Note_off_c, 1, 48, 100
3, 14256, Note_on_c, 1, 48, 80
3, 14300, Note_off_c, 1, 50, 100
3, 14304, Note_on_c, 1, 50, 80
3, 14348, Note_off_c, 1, 48, 100
3, 14352, Note_on_c, 1, 48, 80
3, 14396, Note_off_c, 1, 50, 100
3, 14400, Note_on_c, 1, 50, 80
3, 14444, Note_off_c, 1, 48, 100
3, 14448, Note_on_c, 1, 48, 80
3, 14492, Note_off_c, 1, 50, 100
3, 14496, Note_on_c, 1, 50, 80
3, 14540, Note_off_c, 1, 48, 100
3, 14544, Note_on_c, 1, 48, 80
3, 14588, Note_off_c, 1, 50, 100
3, 14592, Note_on_c, 1, 50, 80
3, 14636, Note_off_c, 1, 48, 100
3, 14640, Note_on_c, 1, 48, 80
3, 14684, Note_off_c, 1, 50, 100
3, 14688, Note_on_c, 1, 50, 80
3, 14732, Note_off_c, 1, 48, 100
3, 14736, Note_on_c, 1, 48, 80
3, 14780, Note_off_c, 1, 50, 100
3, 14784, Note_on_c, 1, 50, 80
3, 14828, Note_off_c, 1, 48, 100
3, 14832, Note_on_c, 1, 48, 80
3, 14876, Note_off_c, 1, 50, 100
3, 14880, Note_on_c, 1, 47, 80
3, 14924, Note_off_c, 1, 48, 100
3, 14928, Note_on_c, 1, 48, 80
3, 14972, Note_off_c, 1, 47, 100
3, 14972, Note_off_c, 1, 48, 100
3, 14976, Note_on_c, 1, 52, 80
3, 15500, Note_off_c, 1, 52, 100
3, 15504, Note_on_c, 1, 48, 80
3, 15548, Note_off_c, 1, 48, 100
3, 15552, Note_on_c, 1, 43, 80
3, 15740, Note_off_c, 1, 43, 100
3, 15744, Note_on_c, 1, 55, 80
3, 15936, Note_on_c, 1, 60, 80
3, 15936, Note_on_c, 1, 64, 80
3, 16124, Note_off_c, 1, 60, 100
3, 16124, Note_off_c, 1, 64, 100
3, 16128, Note_on_c, 1, 60, 80
3, 16128, Note_on_c, 1, 64, 80
3, 16316, Note_off_c, 1, 60, 100
3, 16316, Note_off_c, 1, 64, 100
3, 16320, Note_on_c, 1, 60, 80
3, 16320, Note_on_c, 1, 64, 80
3, 16508, Note_off_c, 1, 60, 100
3, 16508, Note_off_c, 1, 64, 100
3, 16512, Note_on_c, 1, 60, 80
3, 16512, Note_on_c, 1, 64, 80
3, 16700, Note_off_c, 1, 60, 100
3, 16700, Note_off_c, 1, 64, 100
3, 16704, Note_on_c, 1, 60, 80
3, 16704, Note_on_c, 1, 64, 80
3, 16892, Note_off_c, 1, 60, 100
3, 16892, Note_off_c, 1, 64, 100
3, 16896, Note_on_c, 1, 60, 80
3, 16896, Note_on_c, 1, 64, 80
3, 17084, Note_off_c, 1, 60, 100
3, 17084, Note_off_c, 1, 64, 100
3, 17088, Note_on_c, 1, 60, 80
3, 17088, Note_on_c, 1, 64, 80
3, 17276, Note_off_c, 1, 55, 100
3, 17276, Note_off_c, 1, 60, 100
3, 17276, Note_off_c, 1, 64, 100
3, 17280, Note_on_c, 1, 43, 80
3, 17328, Note_on_c, 1, 50, 80
3, 17372, Note_off_c, 1, 43, 100
3, 17376, Note_on_c, 1, 52, 80
3, 17420, Note_off_c, 1, 50, 100
3, 17424, Note_on_c, 1, 50, 80
3, 17468, Note_off_c, 1, 52, 100
3, 17472, Note_on_c, 1, 52, 80
3, 17516, Note_off_c, 1, 50, 100
3, 17520, Note_on_c, 1, 50, 80
3, 17564, Note_off_c, 1, 52, 100
3, 17568, Note_on_c, 1, 52, 80
3, 17612, Note_off_c, 1, 50, 100
3, 17616, Note_on_c, 1, 50, 80
3, 17660, Note_off_c, 1, 52, 100
3, 17664, Note_on_c, 1, 52, 80
3, 17708, Note_off_c, 1, 50, 100
3, 17712, Note_on_c, 1, 50, 80
3, 17756, Note_off_c, 1, 52, 100
3, 17760, Note_on_c, 1, 52, 80
3, 17804, Note_off_c, 1, 50, 100
3, 17808, Note_on_c, 1, 50, 80
3, 17852, Note_off_c, 1, 52, 100
3, 17856, Note_on_c, 1, 52, 80
3, 17900, Note_off_c, 1, 50, 100
3, 17904, Note_on_c, 1, 50, 80
3, 17948, Note_off_c, 1, 52, 100
3, 17952, Note_on_c, 1, 52, 80
3, 17996, Note_off_c, 1, 50, 100
3, 18000, Note_on_c, 1, 50, 80
3, 18044, Note_off_c, 1, 52, 100
3, 18048, Note_on_c, 1, 52, 80
3, 18092, Note_off_c, 1, 50, 100
3, 18096, Note_on_c, 1, 50, 80
3, 18140, Note_off_c, 1, 52, 100
3, 18144, Note_on_c, 1, 52, 80
3, 18188, Note_off_c, 1, 50, 100
3, 18192, Note_on_c, 1, 50, 80
3, 18236, Note_off_c, 1, 52, 100
3, 18240, Note_on_c, 1, 52, 80
3, 18284, Note_off_c, 1, 50, 100
3, 18288, Note_on_c, 1, 50, 80
3, 18332, Note_off_c, 1, 52, 100
3, 18336, Note_on_c, 1, 49, 80
3, 18380, Note_off_c, 1, 50, 100
3, 18384, Note_on_c, 1, 50, 80
3, 18428, Note_off_c, 1, 49, 100
3, 18428, Note_off_c, 1, 50, 100
3, 18432, Note_on_c, 1, 53, 80
3, 18956, Note_off_c, 1, 53, 100
3, 18960, Note_on_c, 1, 50, 80
3, 19004, Note_off_c, 1, 50, 100
3, 19008, Note_on_c, 1, 43, 80
3, 19196, Note_off_c, 1, 43, 100
3, 19200, Note_on_c, 1, 55, 80
3, 19392, Note_on_c, 1, 62, 80
3, 19580, Note_off_c, 1, 62, 100
3, 19584, Note_on_c, 1, 62, 80
3, 19584, Note_on_c, 1, 65, 80
3, 19772, Note_off_c, 1, 62, 100
3, 19772, Note_off_c, 1, 65, 100
3, 19776, Note_on_c, 1, 62, 80
3, 19776, Note_on_c, 1, 65, 80
3, 19964, Note_off_c, 1, 62, 100
3, 19964, Note_off_c, 1, 65, 100
3, 19968, Note_on_c, 1, 62, 80
3, 19968, Note_on_c, 1, 65, 80
3, 20156, Note_off_c, 1, 62, 100
3, 20156, Note_off_c, 1, 65, 100
3, 20160, Note_on_c, 1, 62, 80
3, 20160, Note_on_c, 1, 65, 80
3, 20348, Note_off_c, 1, 62, 100
3, 20348, Note_off_c, 1, 65, 100
3, 20352, Note_on_c, 1, 62, 80
3, 20352, Note_on_c, 1, 65, 80
3, 20540, Note_off_c, 1, 62, 100
3, 20540, Note_off_c, 1, 65, 100
3, 20544, Note_on_c, 1, 62, 80
3, 20544, Note_on_c, 1, 65, 80
3, 20732, Note_off_c, 1, 55, 100
3, 20732, Note_off_c, 1, 62, 100
3, 20732, Note_off_c, 1, 65, 100
3, 20736, Note_on_c, 1, 48, 80
3, 20924, Note_off_c, 1, 48, 100
3, 20928, Note_on_c, 1, 55, 80
3, 20928, Note_on_c, 1, 60, 80
3, 21116, Note_off_c, 1, 55, 100
3, 21116, Note_off_c, 1, 60, 100
3, 21120, Note_on_c, 1, 60, 80
3, 21120, Note_on_c, 1, 64, 80
3, 21308, Note_off_c, 1, 60, 100
3, 21308, Note_off_c, 1, 64, 100
3, 21312, Note_on_c, 1, 45, 80
3, 21500, Note_off_c, 1, 45, 100
3, 21504, Note_on_c, 1, 57, 80
3, 21504, Note_on_c, 1, 60, 80
3, 21692, Note_off_c, 1, 57, 100
3, 21692, Note_off_c, 1, 60, 100
3, 21696, Note_on_c, 1, 60, 80
3, 21696, Note_on_c, 1, 64, 80
3, 21884, Note_off_c, 1, 60, 100
3, 21884, Note_off_c, 1, 64, 100
3, 21888, Note_on_c, 1, 43, 80
3, 22076, Note_off_c, 1, 43, 100
3, 22080, Note_on_c, 1, 55, 80
3, 22080, Note_on_c, 1, 60, 80
3, 22268, Note_off_c, 1, 55, 100
3, 22268, Note_off_c, 1, 60, 100
3, 22272, Note_on_c, 1, 60, 80
3, 22272, Note_on_c, 1, 64, 80
3, 22460, Note_off_c, 1, 60, 100
3, 22460, Note_off_c, 1, 64, 100
3, 22464, Note_on_c, 1, 42, 80
3, 22652, Note_off_c, 1, 42, 100
3, 22656, Note_on_c, 1, 57, 80
3, 22656, Note_on_c, 1, 60, 80
3, 22844, Note_off_c, 1, 57, 100
3, 22844, Note_off_c, 1, 60, 100
3, 22848, Note_on_c, 1, 60, 80
3, 22848, Note_on_c, 1, 62, 80
3, 23036, Note_off_c, 1, 60, 100
3, 23036, Note_off_c, 1, 62, 100
3, 23040, Note_on_c, 1, 42, 80
3, 23228, Note_off_c, 1, 42, 100
3, 23232, Note_on_c, 1, 57, 80
3, 23232, Note_on_c, 1, 60, 80
3, 23420, Note_off_c, 1, 57, 100
3, 23420, Note_off_c, 1, 60, 100
3, 23424, Note_on_c, 1, 60, 80
3, 23424, Note_on_c, 1, 62, 80
3, 23612, Note_off_c, 1, 60, 100
3, 23612, Note_off_c, 1, 62, 100
3, 23616, Note_on_c, 1, 43, 80
3, 23804, Note_off_c, 1, 43, 100
3, 23808, Note_on_c, 1, 55, 80
3, 23808, Note_on_c, 1, 59, 80
3, 23996, Note_off_c, 1, 55, 100
3, 23996, Note_off_c, 1, 59, 100
3, 24000, Note_on_c, 1, 59, 80
3, 24000, Note_on_c, 1, 62, 80
3, 24188, Note_off_c, 1, 59, 100
3, 24188, Note_off_c, 1, 62, 100
3, 24192, Note_on_c, 1, 36, 80
3, 24380, Note_off_c, 1, 36, 100
3, 24384, Note_on_c, 1, 48, 80
3, 24384, Note_on_c, 1, 52, 80
3, 24572, Note_off_c, 1, 48, 100
3, 24572, Note_off_c, 1, 52, 100
3, 24576, Note_on_c, 1, 52, 80
3, 24576, Note_on_c, 1, 57, 80
3, 24764, Note_off_c, 1, 52, 100
3, 24764, Note_off_c, 1, 57, 100
3, 24768, Note_on_c, 1, 38, 80
3, 24956, Note_off_c, 1, 38, 100
3, 24960, Note_on_c, 1, 50, 80
3, 24960, Note_on_c, 1, 55, 80
3, 25148, Note_off_c, 1, 50, 100
3, 25148, Note_off_c, 1, 55, 100
3, 25152, Note_on_c, 1, 55, 80
3, 25152, Note_on_c, 1, 59, 80
3, 25340, Note_off_c, 1, 55, 100
3, 25340, Note_off_c, 1, 59, 100
3, 25344, Note_on_c, 1, 38, 80
3, 25532, Note_off_c, 1, 38, 100
3, 25536, Note_on_c, 1, 50, 80
3, 25536, Note_on_c, 1, 57, 80
3, 25724, Note_off_c, 1, 50, 100
3, 25724, Note_off_c, 1, 57, 100
3, 25728, Note_on_c, 1, 57, 80
3, 25728, Note_on_c, 1, 60, 80
3, 25916, Note_off_c, 1, 57, 100
3, 25916, Note_off_c, 1, 60, 100
3, 25920, Note_on_c, 1, 43, 80
3, 26108, Note_off_c, 1, 43, 100
3, 26112, Note_on_c, 1, 55, 80
3, 26112, Note_on_c, 1, 60, 80
3, 26300, Note_off_c, 1, 55, 100
3, 26300, Note_off_c, 1, 60, 100
3, 26304, Note_on_c, 1, 60, 80
3, 26304, Note_on_c, 1, 62, 80
3, 26492, Note_off_c, 1, 60, 100
3, 26492, Note_off_c, 1, 62, 100
3, 26496, Note_on_c, 1, 55, 80
3, 26496, Note_on_c, 1, 59, 80
3, 26684, Note_off_c, 1, 55, 100
3, 26684, Note_off_c, 1, 59, 100
3, 28032, Note_on_c, 1, 63, 80
3, 28220, Note_off_c, 1, 63, 100
3, 28224, Note_on_c, 1, 63, 80
3, 28412, Note_off_c, 1, 63, 100
3, 28416, Note_on_c, 1, 62, 80
3, 28604, Note_off_c, 1, 62, 100
3, 28608, Note_on_c, 1, 63, 80
3, 28796, Note_off_c, 1, 63, 100
3, 28800, Note_on_c, 1, 63, 80
3, 28988, Note_off_c, 1, 63, 100
3, 28992, Note_on_c, 1, 62, 80
3, 29180, Note_off_c, 1, 62, 100
3, 29184, Note_on_c, 1, 63, 80
3, 29372, Note_off_c, 1, 63, 100
3, 29376, Note_on_c, 1, 57, 80
3, 29376, Note_on_c, 1, 64, 80
3, 29564, Note_off_c, 1, 64, 100
3, 29568, Note_on_c, 1, 63, 80
3, 29756, Note_off_c, 1, 63, 100
3, 29760, Note_on_c, 1, 64, 80
3, 29948, Note_off_c, 1, 64, 100
3, 29952, Note_on_c, 1, 64, 80
3, 30140, Note_off_c, 1, 64, 100
3, 30144, Note_on_c, 1, 63, 80
3, 30332, Note_off_c, 1, 63, 100
3, 30336, Note_on_c, 1, 64, 80
3, 30524, Note_off_c, 1, 57, 100
3, 30524, Note_off_c, 1, 64, 100
3, 30528, Note_on_c, 1, 57, 80
3, 30528, Note_on_c, 1, 64, 80
3, 30716, Note_off_c, 1, 64, 100
3, 30720, Note_on_c, 1, 65, 80
3, 30908, Note_off_c, 1, 65, 100
3, 30912, Note_on_c, 1, 61, 80
3, 31100, Note_off_c, 1, 57, 100
3, 31100, Note_off_c, 1, 61, 100
3, 31104, Note_on_c, 1, 61, 80
3, 31104, Note_on_c, 1, 50, 80
3, 31676, Note_off_c, 1, 61, 100
3, 31680, Note_on_c, 1, 62, 80
3, 31868, Note_off_c, 1, 50, 100
3, 31868, Note_off_c, 1, 62, 100
3, 33216, Note_on_c, 1, 61, 75
3, 33404, Note_off_c, 1, 61, 100
3, 33408, Note_on_c, 1, 61, 76
3, 33596, Note_off_c, 1, 61, 100
3, 33600, Note_on_c, 1, 60, 76
3, 33788, Note_off_c, 1, 60, 100
3, 33792, Note_on_c, 1, 61, 77
3, 33980, Note_off_c, 1, 61, 100
3, 33984, Note_on_c, 1, 61, 78
3, 34172, Note_off_c, 1, 61, 100
3, 34176, Note_on_c, 1, 60, 79
3, 34364, Note_off_c, 1, 60, 100
3, 34368, Note_on_c, 1, 61, 79
3, 34556, Note_off_c, 1, 61, 100
3, 34560, Note_on_c, 1, 55, 80
3, 34560, Note_on_c, 1, 62, 80
3, 34748, Note_off_c, 1, 62, 100
3, 34752, Note_on_c, 1, 61, 80
3, 34940, Note_off_c, 1, 61, 100
3, 34944, Note_on_c, 1, 62, 80
3, 35132, Note_off_c, 1, 62, 100
3, 35136, Note_on_c, 1, 62, 80
3, 35324, Note_off_c, 1, 62, 100
3, 35328, Note_on_c, 1, 61, 80
3, 35516, Note_off_c, 1, 61, 100
3, 35520, Note_on_c, 1, 62, 80
3, 35708, Note_off_c, 1, 55, 100
3, 35708, Note_off_c, 1, 62, 100
3, 35712, Note_on_c, 1, 55, 80
3, 35712, Note_on_c, 1, 62, 80
3, 35900, Note_off_c, 1, 62, 100
3, 35904, Note_on_c, 1, 64, 80
3, 36092, Note_off_c, 1, 64, 100
3, 36096, Note_on_c, 1, 59, 80
3, 36284, Note_off_c, 1, 55, 100
3, 36284, Note_off_c, 1, 59, 100
3, 36288, Note_on_c, 1, 60, 80
3, 36860, Note_off_c, 1, 60, 100
3, 36864, Note_on_c, 1, 53, 80
3, 37436, Note_off_c, 1, 53, 100
3, 37440, Note_on_c, 1, 54, 80
3, 38012, Note_off_c, 1, 54, 100
3, 38016, Note_on_c, 1, 43, 80
3, 38208, Note_on_c, 1, 55, 80
3, 38396, Note_off_c, 1, 55, 100
3, 38400, Note_on_c, 1, 55, 80
3, 38588, Note_off_c, 1, 55, 100
3, 38592, Note_on_c, 1, 55, 80
3, 38780, Note_off_c, 1, 55, 100
3, 38784, Note_on_c, 1, 55, 80
3, 38972, Note_off_c, 1, 55, 100
3, 38976, Note_on_c, 1, 55, 80
3, 39164, Note_off_c, 1, 55, 100
3, 39168, Note_on_c, 1, 55, 80
3, 39356, Note_off_c, 1, 55, 100
3, 39360, Note_on_c, 1, 55, 80
3, 39548, Note_off_c, 1, 55, 100
3, 39552, Note_on_c, 1, 55, 80
3, 39740, Note_off_c, 1, 43, 100
3, 39740, Note_off_c, 1, 55, 100
3, 39744, Note_on_c, 1, 43, 80
3, 39936, Note_on_c, 1, 55, 80
3, 40124, Note_off_c, 1, 55, 100
3, 40128, Note_on_c, 1, 55, 80
3, 40316, Note_off_c, 1, 55, 100
3, 40320, Note_on_c, 1, 55, 80
3, 40508, Note_off_c, 1, 55, 100
3, 40512, Note_on_c, 1, 55, 80
3, 40700, Note_off_c, 1, 55, 100
3, 40704, Note_on_c, 1, 55, 80
3, 40892, Note_off_c, 1, 55, 100
3, 40896, Note_on_c, 1, 55, 80
3, 41084, Note_off_c, 1, 55, 100
3, 41088, Note_on_c, 1, 55, 80
3, 41276, Note_off_c, 1, 55, 100
3, 41280, Note_on_c, 1, 55, 80
3, 41468, Note_off_c, 1, 43, 100
3, 41468, Note_off_c, 1, 55, 100
3, 41472, Note_on_c, 1, 43, 80
3, 41664, Note_on_c, 1, 55, 80
3, 41760, Note_on_c, 1, 47, 80
3, 41852, Note_off_c, 1, 47, 100
3, 41856, Note_on_c, 1, 48, 80
3, 41948, Note_off_c, 1, 48, 100
3, 41952, Note_on_c, 1, 51, 80
3, 42044, Note_off_c, 1, 43, 100
3, 42044, Note_off_c, 1, 51, 100
3, 42048, Note_on_c, 1, 43, 80
3, 42048, Note_on_c, 1, 50, 80
3, 42236, Note_off_c, 1, 55, 100
3, 42236, Note_off_c, 1, 50, 100
3, 42240, Note_on_c, 1, 55, 80
3, 42336, Note_on_c, 1, 47, 80
3, 42428, Note_off_c, 1, 47, 100
3, 42432, Note_on_c, 1, 48, 80
3, 42524, Note_off_c, 1, 48, 100
3, 42528, Note_on_c, 1, 45, 80
3, 42620, Note_off_c, 1, 43, 100
3, 42620, Note_off_c, 1, 45, 100
3, 42624, Note_on_c, 1, 43, 80
3, 42812, Note_off_c, 1, 55, 100
3, 42816, Note_on_c, 1, 55, 80
3, 42912, Note_on_c, 1, 47, 80
3, 43004, Note_off_c, 1, 47, 100
3, 43008, Note_on_c, 1, 48, 80
3, 43100, Note_off_c, 1, 48, 100
3, 43104, Note_on_c, 1, 51, 80
3, 43196, Note_off_c, 1, 43, 100
3, 43196, Note_off_c, 1, 55, 100
3, 43196, Note_off_c, 1, 51, 100
3, 43200, Note_on_c, 1, 55, 80
3, 43200, Note_on_c, 1, 50, 80
3, 43200, Note_on_c, 1, 43, 80
3, 43772, Note_off_c, 1, 55, 100
3, 43772, Note_off_c, 1, 50, 100
3, 43772, Note_off_c, 1, 43, 100
3, 46272, Note_on_c, 1, 48, 80
3, 46272, Note_on_c, 1, 52, 80
3, 46460, Note_off_c, 1, 52, 100
3, 46464, Note_on_c, 1, 55, 80
3, 46652, Note_off_c, 1, 55, 100
3, 46656, Note_on_c, 1, 60, 80
3, 46844, Note_off_c, 1, 48, 100
3, 46844, Note_off_c, 1, 60, 100
3, 46848, Note_on_c, 1, 52, 80
3, 47036, Note_off_c, 1, 52, 100
3, 47040, Note_on_c, 1, 55, 80
3, 47228, Note_off_c, 1, 55, 100
3, 47232, Note_on_c, 1, 60, 80
3, 47420, Note_off_c, 1, 60, 100
3, 47424, Note_on_c, 1, 52, 80
3, 47612, Note_off_c, 1, 52, 100
3, 47616, Note_on_c, 1, 55, 80
3, 47804, Note_off_c, 1, 55, 100
3, 47808, Note_on_c, 1, 60, 80
3, 47996, Note_off_c, 1, 60, 100
3, 48000, Note_on_c, 1, 48, 80
3, 48000, Note_on_c, 1, 52, 80
3, 48188, Note_off_c, 1, 52, 100
3, 48192, Note_on_c, 1, 55, 80
3, 48380, Note_off_c, 1, 55, 100
3, 48384, Note_on_c, 1, 60, 80
3, 48572, Note_off_c, 1, 48, 100
3, 48572, Note_off_c, 1, 60, 100
3, 48576, Note_on_c, 1, 52, 80
3, 48764, Note_off_c, 1, 52, 100
3, 48768, Note_on_c, 1, 55, 80
3, 48956, Note_off_c, 1, 55, 100
3, 48960, Note_on_c, 1, 60, 80
3, 49148, Note_off_c, 1, 60, 100
3, 49152, Note_on_c, 1, 52, 80
3, 49340, Note_off_c, 1, 52, 100
3, 49344, Note_on_c, 1, 55, 80
3, 49532, Note_off_c, 1, 55, 100
3, 49536, Note_on_c, 1, 60, 80
3, 49724, Note_off_c, 1, 60, 100
3, 49728, Note_on_c, 1, 47, 80
3, 49728, Note_on_c, 1, 53, 80
3, 49916, Note_off_c, 1, 53, 100
3, 49920, Note_on_c, 1, 55, 80
3, 50108, Note_off_c, 1, 55, 100
3, 50112, Note_on_c, 1, 62, 80
3, 50300, Note_off_c, 1, 47, 100
3, 50300, Note_off_c, 1, 62, 100
3, 50304, Note_on_c, 1, 53, 80
3, 50492, Note_off_c, 1, 53, 100
3, 50496, Note_on_c, 1, 55, 80
3, 50684, Note_off_c, 1, 55, 100
3, 50688, Note_on_c, 1, 62, 80
3, 50876, Note_off_c, 1, 62, 100
3, 50880, Note_on_c, 1, 53, 80
3, 51068, Note_off_c, 1, 53, 100
3, 51072, Note_on_c, 1, 55, 80
3, 51260, Note_off_c, 1, 55, 100
3, 51264, Note_on_c, 1, 62, 80
3, 51452, Note_off_c, 1, 62, 100
3, 51456, Note_on_c, 1, 47, 80
3, 51456, Note_on_c, 1, 53, 80
3, 51644, Note_off_c, 1, 53, 100
3, 51648, Note_on_c, 1, 55, 80
3, 51836, Note_off_c, 1, 55, 100
3, 51840, Note_on_c, 1, 62, 80
3, 52028, Note_off_c, 1, 47, 100
3, 52028, Note_off_c, 1, 62, 100
3, 52032, Note_on_c, 1, 53, 80
3, 52220, Note_off_c, 1, 53, 100
3, 52224, Note_on_c, 1, 55, 80
3, 52412, Note_off_c, 1, 55, 100
3, 52416, Note_on_c, 1, 62, 80
3, 52604, Note_off_c, 1, 62, 100
3, 52608, Note_on_c, 1, 43, 80
3, 52608, Note_on_c, 1, 53, 80
3, 52796, Note_off_c, 1, 53, 100
3, 52800, Note_on_c, 1, 55, 80
3, 52988, Note_off_c, 1, 55, 100
3, 52992, Note_on_c, 1, 59, 80
3, 53180, Note_off_c, 1, 43, 100
3, 53180, Note_off_c, 1, 59, 100
3, 53184, Note_on_c, 1, 52, 80
3, 53184, Note_on_c, 1, 48, 80
3, 53372, Note_off_c, 1, 52, 100
3, 53372, Note_off_c, 1, 48, 100
3, 53376, Note_on_c, 1, 55, 80
3, 53564, Note_off_c, 1, 55, 100
3, 53568, Note_on_c, 1, 60, 80
3, 53756, Note_off_c, 1, 60, 100
3, 53760, Note_on_c, 1, 45, 80
3, 53948, Note_off_c, 1, 45, 100
3, 53952, Note_on_c, 1, 57, 80
3, 54140, Note_off_c, 1, 57, 100
3, 54144, Note_on_c, 1, 60, 80
3, 54332, Note_off_c, 1, 60, 100
3, 54336, Note_on_c, 1, 40, 80
3, 54524, Note_off_c, 1, 40, 100
3, 54528, Note_on_c, 1, 52, 80
3, 54528, Note_on_c, 1, 55, 80
3, 54716, Note_off_c, 1, 52, 100
3, 54716, Note_off_c, 1, 55, 100
3, 54720, Note_on_c, 1, 55, 80
3, 54720, Note_on_c, 1, 60, 80
3, 54908, Note_off_c, 1, 55, 100
3, 54908, Note_off_c, 1, 60, 100
3, 54912, Note_on_c, 1, 41, 80
3, 55100, Note_off_c, 1, 41, 100
3, 55104, Note_on_c, 1, 53, 80
3, 55104, Note_on_c, 1, 57, 80
3, 55292, Note_off_c, 1, 53, 100
3, 55292, Note_off_c, 1, 57, 100
3, 55296, Note_on_c, 1, 57, 80
3, 55296, Note_on_c, 1, 60, 80
3, 55484, Note_off_c, 1, 57, 100
3, 55484, Note_off_c, 1, 60, 100
3, 55488, Note_on_c, 1, 41, 80
3, 55676, Note_off_c, 1, 41, 100
3, 55680, Note_on_c, 1, 53, 80
3, 55680, Note_on_c, 1, 57, 80
3, 55868, Note_off_c, 1, 53, 100
3, 55868, Note_off_c, 1, 57, 100
3, 55872, Note_on_c, 1, 57, 80
3, 55872, Note_on_c, 1, 61, 80
3, 56060, Note_off_c, 1, 57, 100
3, 56060, Note_off_c, 1, 61, 100
3, 56064, Note_on_c, 1, 41, 80
3, 56252, Note_off_c, 1, 41, 100
3, 56256, Note_on_c, 1, 53, 80
3, 56256, Note_on_c, 1, 57, 80
3, 56444, Note_off_c, 1, 53, 100
3, 56444, Note_off_c, 1, 57, 100
3, 56448, Note_on_c, 1, 57, 80
3, 56448, Note_on_c, 1, 62, 80
3, 56636, Note_off_c, 1, 57, 100
3, 56636, Note_off_c, 1, 62, 100
3, 56640, Note_on_c, 1, 43, 80
3, 56828, Note_off_c, 1, 43, 100
3, 56832, Note_on_c, 1, 55, 80
3, 56832, Note_on_c, 1, 60, 80
3, 57020, Note_off_c, 1, 55, 100
3, 57020, Note_off_c, 1, 60, 100
3, 57024, Note_on_c, 1, 60, 80
3, 57024, Note_on_c, 1, 64, 80
3, 57212, Note_off_c, 1, 60, 100
3, 57212, Note_off_c, 1, 64, 100
3, 57216, Note_on_c, 1, 43, 80
3, 57404, Note_off_c, 1, 43, 100
3, 57408, Note_on_c, 1, 55, 80
3, 57408, Note_on_c, 1, 60, 80
3, 57596, Note_off_c, 1, 55, 100
3, 57596, Note_off_c, 1, 60, 100
3, 57600, Note_on_c, 1, 60, 80
3, 57600, Note_on_c, 1, 64, 80
3, 57788, Note_off_c, 1, 60, 100
3, 57788, Note_off_c, 1, 64, 100
3, 57792, Note_on_c, 1, 43, 80
3, 57980, Note_off_c, 1, 43, 100
3, 57984, Note_on_c, 1, 55, 80
3, 57984, Note_on_c, 1, 62, 80
3, 58172, Note_off_c, 1, 55, 100
3, 58172, Note_off_c, 1, 62, 100
3, 58176, Note_on_c, 1, 62, 80
3, 58176, Note_on_c, 1, 65, 80
3, 58364, Note_off_c, 1, 62, 100
3, 58364, Note_off_c, 1, 65, 100
3, 58368, Note_on_c, 1, 48, 80
3, 58556, Note_off_c, 1, 48, 100
3, 58560, Note_on_c, 1, 55, 80
3, 58748, Note_off_c, 1, 55, 100
3, 58752, Note_on_c, 1, 59, 80
3, 58940, Note_off_c, 1, 59, 100
3, 58944, Note_on_c, 1, 60, 80
3, 58944, Note_on_c, 1, 48, 80
3, 59132, Note_off_c, 1, 60, 100
3, 59132, Note_off_c, 1, 48, 100
3, 59136, Note_on_c, 1, 55, 80
3, 59324, Note_off_c, 1, 55, 100
3, 59328, Note_on_c, 1, 51, 80
3, 59516, Note_off_c, 1, 51, 100
3, 59520, Note_on_c, 1, 48, 80
3, 59708, Note_off_c, 1, 48, 100
3, 59712, Note_on_c, 1, 43, 80
3, 59900, Note_off_c, 1, 43, 100
3, 59904, Note_on_c, 1, 39, 80
3, 60092, Note_off_c, 1, 39, 100
3, 60096, Note_on_c, 1, 36, 70
3, 60188, Note_off_c, 1, 36, 100
3, 60192, Note_on_c, 1, 39, 70
3, 60284, Note_off_c, 1, 39, 100
3, 60288, Note_on_c, 1, 43, 70
3, 60380, Note_off_c, 1, 43, 100
3, 60384, Note_on_c, 1, 43, 70
3, 60476, Note_off_c, 1, 43, 100
3, 60480, Note_on_c, 1, 43, 70
3, 60572, Note_off_c, 1, 43, 100
3, 60576, Note_on_c, 1, 43, 70
3, 60668, Note_off_c, 1, 43, 100
3, 60672, Note_on_c, 1, 36, 70
3, 60764, Note_off_c, 1, 36, 100
3, 60768, Note_on_c, 1, 39, 70
3, 60860, Note_off_c, 1, 39, 100
3, 60864, Note_on_c, 1, 43, 70
3, 60956, Note_off_c, 1, 43, 100
3, 60960, Note_on_c, 1, 43, 70
3, 61052, Note_off_c, 1, 43, 100
3, 61056, Note_on_c, 1, 43, 70
3, 61148, Note_off_c, 1, 43, 100
3, 61152, Note_on_c, 1, 43, 70
3, 61244, Note_off_c, 1, 43, 100
3, 61248, Note_on_c, 1, 36, 70
3, 61340, Note_off_c, 1, 36, 100
3, 61344, Note_on_c, 1, 39, 70
3, 61436, Note_off_c, 1, 39, 100
3, 61440, Note_on_c, 1, 43, 70
3, 61532, Note_off_c, 1, 43, 100
3, 61536, Note_on_c, 1, 43, 70
3, 61628, Note_off_c, 1, 43, 100
3, 61632, Note_on_c, 1, 43, 70
3, 61724, Note_off_c, 1, 43, 100
3, 61728, Note_on_c, 1, 43, 70
3, 61820, Note_off_c, 1, 43, 100
3, 61824, Note_on_c, 1, 36, 70
3, 61916, Note_off_c, 1, 36, 100
3, 61920, Note_on_c, 1, 39, 70
3, 62012, Note_off_c, 1, 39, 100
3, 62016, Note_on_c, 1, 44, 70
3, 62108, Note_off_c, 1, 44, 100
3, 62112, Note_on_c, 1, 44, 70
3, 62204, Note_off_c, 1, 44, 100
3, 62208, Note_on_c, 1, 44, 70
3, 62300, Note_off_c, 1, 44, 100
3, 62304, Note_on_c, 1, 44, 70
3, 62396, Note_off_c, 1, 44, 100
3, 62400, Note_on_c, 1, 36, 70
3, 62492, Note_off_c, 1, 36, 100
3, 62496, Note_on_c, 1, 39, 70
3, 62588, Note_off_c, 1, 39, 100
3, 62592, Note_on_c, 1, 44, 70
3, 62684, Note_off_c, 1, 44, 100
3, 62688, Note_on_c, 1, 44, 70
3, 62780, Note_off_c, 1, 44, 100
3, 62784, Note_on_c, 1, 44, 70
3, 62876, Note_off_c, 1, 44, 100
3, 62880, Note_on_c, 1, 44, 70
3, 62972, Note_off_c, 1, 44, 100
3, 62976, Note_on_c, 1, 36, 70
3, 63068, Note_off_c, 1, 36, 100
3, 63072, Note_on_c, 1, 39, 70
3, 63164, Note_off_c, 1, 39, 100
3, 63168, Note_on_c, 1, 44, 70
3, 63260, Note_off_c, 1, 44, 100
3, 63264, Note_on_c, 1, 44, 70
3, 63356, Note_off_c, 1, 44, 100
3, 63360, Note_on_c, 1, 44, 70
3, 63452, Note_off_c, 1, 44, 100
3, 63456, Note_on_c, 1, 44, 70
3, 63548, Note_off_c, 1, 44, 100
3, 63552, Note_on_c, 1, 37, 70
3, 63644, Note_off_c, 1, 37, 100
3, 63648, Note_on_c, 1, 41, 70
3, 63740, Note_off_c, 1, 41, 100
3, 63744, Note_on_c, 1, 44, 70
3, 63836, Note_off_c, 1, 44, 100
3, 63840, Note_on_c, 1, 44, 70
3, 63932, Note_off_c, 1, 44, 100
3, 63936, Note_on_c, 1, 44, 70
3, 64028, Note_off_c, 1, 44, 100
3, 64032, Note_on_c, 1, 44, 70
3, 64124, Note_off_c, 1, 44, 100
3, 64128, Note_on_c, 1, 37, 70
3, 64220, Note_off_c, 1, 37, 100
3, 64224, Note_on_c, 1, 41, 70
3, 64316, Note_off_c, 1, 41, 100
3, 64320, Note_on_c, 1, 44, 70
3, 64412, Note_off_c, 1, 44, 100
3, 64416, Note_on_c, 1, 44, 70
3, 64508, Note_off_c, 1, 44, 100
3, 64512, Note_on_c, 1, 44, 70
3, 64604, Note_off_c, 1, 44, 100
3, 64608, Note_on_c, 1, 44, 70
3, 64700, Note_off_c, 1, 44, 100
3, 64704, Note_on_c, 1, 37, 70
3, 64796, Note_off_c, 1, 37, 100
3, 64800, Note_on_c, 1, 41, 70
3, 64892, Note_off_c, 1, 41, 100
3, 64896, Note_on_c, 1, 45, 70
3, 64988, Note_off_c, 1, 45, 100
3, 64992, Note_on_c, 1, 45, 70
3, 65084, Note_off_c, 1, 45, 100
3, 65088, Note_on_c, 1, 45, 70
3, 65180, Note_off_c, 1, 45, 100
3, 65184, Note_on_c, 1, 45, 70
3, 65276, Note_off_c, 1, 45, 100
3, 65280, Note_on_c, 1, 37, 70
3, 65372, Note_off_c, 1, 37, 100
3, 65376, Note_on_c, 1, 41, 72
3, 65468, Note_off_c, 1, 41, 100
3, 65472, Note_on_c, 1, 46, 74
3, 65564, Note_off_c, 1, 46, 100
3, 65568, Note_on_c, 1, 46, 77
3, 65660, Note_off_c, 1, 46, 100
3, 65664, Note_on_c, 1, 46, 79
3, 65756, Note_off_c, 1, 46, 100
3, 65760, Note_on_c, 1, 46, 81
3, 65852, Note_off_c, 1, 46, 100
3, 65856, Note_on_c, 1, 37, 84
3, 65948, Note_off_c, 1, 37, 100
3, 65952, Note_on_c, 1, 41, 86
3, 66044, Note_off_c, 1, 41, 100
3, 66048, Note_on_c, 1, 46, 88
3, 66140, Note_off_c, 1, 46, 100
3, 66144, Note_on_c, 1, 46, 91
3, 66236, Note_off_c, 1, 46, 100
3, 66240, Note_on_c, 1, 46, 93
3, 66332, Note_off_c, 1, 46, 100
3, 66336, Note_on_c, 1, 46, 95
3, 66428, Note_off_c, 1, 46, 100
3, 66432, Note_on_c, 1, 38, 98
3, 66524, Note_off_c, 1, 38, 100
3, 66528, Note_on_c, 1, 41, 100
3, 66620, Note_off_c, 1, 41, 100
3, 66624, Note_on_c, 1, 46, 102
3, 66716, Note_off_c, 1, 46, 100
3, 66720, Note_on_c, 1, 46, 105
3, 66812, Note_off_c, 1, 46, 100
3, 66816, Note_on_c, 1, 46, 107
3, 66908, Note_off_c, 1, 46, 100
3, 66912, Note_on_c, 1, 46, 109
3, 67004, Note_off_c, 1, 46, 100
3, 67008, Note_on_c, 1, 39, 110
3, 67100, Note_off_c, 1, 39, 100
3, 67104, Note_on_c, 1, 46, 110
3, 67196, Note_off_c, 1, 46, 100
3, 67200, Note_on_c, 1, 49, 110
3, 67292, Note_off_c, 1, 49, 100
3, 67296, Note_on_c, 1, 49, 110
3, 67388, Note_off_c, 1, 49, 100
3, 67392, Note_on_c, 1, 49, 110
3, 67484, Note_off_c, 1, 49, 100
3, 67488, Note_on_c, 1, 49, 110
3, 67580, Note_off_c, 1, 49, 100
3, 67584, Note_on_c, 1, 40, 110
3, 67676, Note_off_c, 1, 40, 100
3, 67680, Note_on_c, 1, 46, 110
3, 67772, Note_off_c, 1, 46, 100
3, 67776, Note_on_c, 1, 52, 110
3, 67868, Note_off_c, 1, 52, 100
3, 67872, Note_on_c, 1, 52, 110
3, 67964, Note_off_c, 1, 52, 100
3, 67968, Note_on_c, 1, 52, 110
3, 68060, Note_off_c, 1, 52, 100
3, 68064, Note_on_c, 1, 52, 110
3, 68156, Note_off_c, 1, 52, 100
3, 68160, Note_on_c, 1, 41, 110
3, 68252, Note_off_c, 1, 41, 100
3, 68256, Note_on_c, 1, 44, 110
3, 68348, Note_off_c, 1, 44, 100
3, 68352, Note_on_c, 1, 53, 110
3, 68444, Note_off_c, 1, 53, 100
3, 68448, Note_on_c, 1, 53, 110
3, 68540, Note_off_c, 1, 53, 100
3, 68544, Note_on_c, 1, 53, 110
3, 68636, Note_off_c, 1, 53, 100
3, 68640, Note_on_c, 1, 53, 110
3, 68732, Note_off_c, 1, 53, 100
3, 68736, Note_on_c, 1, 37, 110
3, 68828, Note_off_c, 1, 37, 100
3, 68832, Note_on_c, 1, 49, 109
3, 68924, Note_off_c, 1, 49, 100
3, 68928, Note_on_c, 1, 53, 108
3, 69020, Note_off_c, 1, 53, 100
3, 69024, Note_on_c, 1, 53, 107
3, 69116, Note_off_c, 1, 53, 100
3, 69120, Note_on_c, 1, 53, 106
3, 69212, Note_off_c, 1, 53, 100
3, 69216, Note_on_c, 1, 53, 105
3, 69308, Note_off_c, 1, 53, 100
3, 69312, Note_on_c, 1, 39, 103
3, 69404, Note_off_c, 1, 39, 100
3, 69408, Note_on_c, 1, 48, 102
3, 69500, Note_off_c, 1, 48, 100
3, 69504, Note_on_c, 1, 51, 101
3, 69596, Note_off_c, 1, 51, 100
3, 69600, Note_on_c, 1, 51, 100
3, 69692, Note_off_c, 1, 51, 100
3, 69696, Note_on_c, 1, 51, 99
3, 69788, Note_off_c, 1, 51, 100
3, 69792, Note_on_c, 1, 51, 98
3, 69884, Note_off_c, 1, 51, 100
3, 69888, Note_on_c, 1, 39, 96
3, 69980, Note_off_c, 1, 39, 100
3, 69984, Note_on_c, 1, 46, 95
3, 70076, Note_off_c, 1, 46, 100
3, 70080, Note_on_c, 1, 49, 94
3, 70172, Note_off_c, 1, 49, 100
3, 70176, Note_on_c, 1, 49, 93
3, 70268, Note_off_c, 1, 49, 100
3, 70272, Note_on_c, 1, 49, 92
3, 70364, Note_off_c, 1, 49, 100
3, 70368, Note_on_c, 1, 49, 91
3, 70460, Note_off_c, 1, 49, 100
3, 70464, Note_on_c, 1, 44, 110
3, 70464, Note_on_c, 1, 32, 110
3, 70556, Note_off_c, 1, 44, 100
3, 70556, Note_off_c, 1, 32, 100
3, 70560, Note_on_c, 1, 56, 80
3, 70652, Note_off_c, 1, 56, 100
3, 70656, Note_on_c, 1, 56, 80
3, 70748, Note_off_c, 1, 56, 100
3, 70752, Note_on_c, 1, 56, 80
3, 70844, Note_off_c, 1, 56, 100
3, 70848, Note_on_c, 1, 56, 80
3, 70940, Note_off_c, 1, 56, 100
3, 70944, Note_on_c, 1, 56, 80
3, 71036, Note_off_c, 1, 56, 100
3, 71040, Note_on_c, 1, 56, 80
3, 71132, Note_off_c, 1, 56, 100
3, 71136, Note_on_c, 1, 56, 80
3, 71228, Note_off_c, 1, 56, 100
3, 71232, Note_on_c, 1, 56, 80
3, 71324, Note_off_c, 1, 56, 100
3, 71328, Note_on_c, 1, 56, 80
3, 71420, Note_off_c, 1, 56, 100
3, 71424, Note_on_c, 1, 56, 80
3, 71516, Note_off_c, 1, 56, 100
3, 71520, Note_on_c, 1, 56, 80
3, 71612, Note_off_c, 1, 56, 100
3, 71616, Note_on_c, 1, 56, 80
3, 71708, Note_off_c, 1, 56, 100
3, 71712, Note_on_c, 1, 56, 80
3, 71804, Note_off_c, 1, 56, 100
3, 71808, Note_on_c, 1, 56, 80
3, 71900, Note_off_c, 1, 56, 100
3, 71904, Note_on_c, 1, 56, 80
3, 71996, Note_off_c, 1, 56, 100
3, 72000, Note_on_c, 1, 56, 80
3, 72092, Note_off_c, 1, 56, 100
3, 72096, Note_on_c, 1, 56, 80
3, 72188, Note_off_c, 1, 56, 100
3, 72192, Note_on_c, 1, 63, 80
3, 72192, Note_on_c, 1, 60, 80
3, 72192, Note_on_c, 1, 56, 80
3, 72284, Note_off_c, 1, 63, 100
3, 72284, Note_off_c, 1, 60, 100
3, 72284, Note_off_c, 1, 56, 100
3, 72288, Note_on_c, 1, 63, 80
3, 72288, Note_on_c, 1, 60, 80
3, 72288, Note_on_c, 1, 56, 80
3, 72380, Note_off_c, 1, 63, 100
3, 72380, Note_off_c, 1, 60, 100
3, 72380, Note_off_c, 1, 56, 100
3, 72384, Note_on_c, 1, 63, 80
3, 72384, Note_on_c, 1, 60, 80
3, 72384, Note_on_c, 1, 56, 80
3, 72476, Note_off_c, 1, 63, 100
3, 72476, Note_off_c, 1, 60, 100
3, 72476, Note_off_c, 1, 56, 100
3, 72480, Note_on_c, 1, 63, 80
3, 72480, Note_on_c, 1, 60, 80
3, 72480, Note_on_c, 1, 56, 80
3, 72572, Note_off_c, 1, 63, 100
3, 72572, Note_off_c, 1, 60, 100
3, 72572, Note_off_c, 1, 56, 100
3, 72576, Note_on_c, 1, 63, 80
3, 72576, Note_on_c, 1, 60, 80
3, 72576, Note_on_c, 1, 56, 80
3, 72668, Note_off_c, 1, 63, 100
3, 72668, Note_off_c, 1, 60, 100
3, 72668, Note_off_c, 1, 56, 100
3, 72672, Note_on_c, 1, 63, 80
3, 72672, Note_on_c, 1, 60, 80
3, 72672, Note_on_c, 1, 56, 80
3, 72764, Note_off_c, 1, 63, 100
3, 72764, Note_off_c, 1, 60, 100
3, 72764, Note_off_c, 1, 56, 100
3, 72768, Note_on_c, 1, 63, 80
3, 72768, Note_on_c, 1, 60, 80
3, 72768, Note_on_c, 1, 56, 80
3, 72860, Note_off_c, 1, 63, 100
3, 72860, Note_off_c, 1, 60, 100
3, 72860, Note_off_c, 1, 56, 100
3, 72864, Note_on_c, 1, 63, 80
3, 72864, Note_on_c, 1, 60, 80
3, 72864, Note_on_c, 1, 56, 80
3, 72956, Note_off_c, 1, 63, 100
3, 72956, Note_off_c, 1, 60, 100
3, 72956, Note_off_c, 1, 56, 100
3, 72960, Note_on_c, 1, 63, 80
3, 72960, Note_on_c, 1, 60, 80
3, 72960, Note_on_c, 1, 56, 80
3, 73052, Note_off_c, 1, 63, 100
3, 73052, Note_off_c, 1, 60, 100
3, 73052, Note_off_c, 1, 56, 100
3, 73056, Note_on_c, 1, 63, 80
3, 73056, Note_on_c, 1, 60, 80
3, 73056, Note_on_c, 1, 56, 80
3, 73148, Note_off_c, 1, 63, 100
3, 73148, Note_off_c, 1, 60, 100
3, 73148, Note_off_c, 1, 56, 100
3, 73152, Note_on_c, 1, 63, 80
3, 73152, Note_on_c, 1, 60, 80
3, 73152, Note_on_c, 1, 56, 80
3, 73244, Note_off_c, 1, 63, 100
3, 73244, Note_off_c, 1, 60, 100
3, 73244, Note_off_c, 1, 56, 100
3, 73248, Note_on_c, 1, 63, 80
3, 73248, Note_on_c, 1, 60, 80
3, 73248, Note_on_c, 1, 56, 80
3, 73340, Note_off_c, 1, 63, 100
3, 73340, Note_off_c, 1, 60, 100
3, 73340, Note_off_c, 1, 56, 100
3, 73344, Note_on_c, 1, 63, 80
3, 73344, Note_on_c, 1, 60, 80
3, 73344, Note_on_c, 1, 56, 80
3, 73436, Note_off_c, 1, 63, 100
3, 73436, Note_off_c, 1, 60, 100
3, 73436, Note_off_c, 1, 56, 100
3, 73440, Note_on_c, 1, 63, 80
3, 73440, Note_on_c, 1, 60, 80
3, 73440, Note_on_c, 1, 56, 80
3, 73532, Note_off_c, 1, 63, 100
3, 73532, Note_off_c, 1, 60, 100
3, 73532, Note_off_c, 1, 56, 100
3, 73536, Note_on_c, 1, 63, 80
3, 73536, Note_on_c, 1, 60, 80
3, 73536, Note_on_c, 1, 56, 80
3, 73628, Note_off_c, 1, 63, 100
3, 73628, Note_off_c, 1, 60, 100
3, 73628, Note_off_c, 1, 56, 100
3, 73632, Note_on_c, 1, 63, 80
3, 73632, Note_on_c, 1, 60, 80
3, 73632, Note_on_c, 1, 56, 80
3, 73724, Note_off_c, 1, 63, 100
3, 73724, Note_off_c, 1, 60, 100
3, 73724, Note_off_c, 1, 56, 100
3, 73728, Note_on_c, 1, 63, 80
3, 73728, Note_on_c, 1, 60, 80
3, 73728, Note_on_c, 1, 56, 80
3, 73820, Note_off_c, 1, 63, 100
3, 73820, Note_off_c, 1, 60, 100
3, 73820, Note_off_c, 1, 56, 100
3, 73824, Note_on_c, 1, 63, 80
3, 73824, Note_on_c, 1, 60, 80
3, 73824, Note_on_c, 1, 56, 80
3, 73916, Note_off_c, 1, 63, 100
3, 73916, Note_off_c, 1, 60, 100
3, 73916, Note_off_c, 1, 56, 100
3, 73920, Note_on_c, 1, 63, 80
3, 73920, Note_on_c, 1, 61, 80
3, 73920, Note_on_c, 1, 58, 80
3, 74012, Note_off_c, 1, 63, 100
3, 74012, Note_off_c, 1, 61, 100
3, 74012, Note_off_c, 1, 58, 100
3, 75648, Note_on_c, 1, 55, 80
3, 75668, Note_off_c, 1, 55, 100
3, 75672, Note_on_c, 1, 56, 80
3, 75692, Note_off_c, 1, 56, 100
3, 75696, Note_on_c, 1, 58, 80
3, 75740, Note_off_c, 1, 58, 100
3, 75744, Note_on_c, 1, 56, 80
3, 75788, Note_off_c, 1, 56, 100
3, 75840, Note_on_c, 1, 55, 80
3, 75884, Note_off_c, 1, 55, 100
3, 75936, Note_on_c, 1, 53, 80
3, 75980, Note_off_c, 1, 53, 100
3, 76032, Note_on_c, 1, 51, 80
3, 76076, Note_off_c, 1, 51, 100
3, 76128, Note_on_c, 1, 49, 80
3, 76172, Note_off_c, 1, 49, 100
3, 76224, Note_on_c, 1, 48, 80
3, 76268, Note_off_c, 1, 48, 100
3, 76320, Note_on_c, 1, 46, 80
3, 76364, Note_off_c, 1, 46, 100
3, 76416, Note_on_c, 1, 44, 80
3, 76460, Note_off_c, 1, 44, 100
3, 76512, Note_on_c, 1, 43, 80
3, 76556, Note_off_c, 1, 43, 100
3, 76608, Note_on_c, 1, 41, 80
3, 76652, Note_off_c, 1, 41, 100
3, 76704, Note_on_c, 1, 39, 80
3, 76748, Note_off_c, 1, 39, 100
3, 76800, Note_on_c, 1, 38, 80
3, 76844, Note_off_c, 1, 38, 100
3, 76896, Note_on_c, 1, 39, 80
3, 76940, Note_off_c, 1, 39, 100
3, 76992, Note_on_c, 1, 41, 80
3, 77036, Note_off_c, 1, 41, 100
3, 77088, Note_on_c, 1, 39, 80
3, 77132, Note_off_c, 1, 39, 100
3, 77184, Note_on_c, 1, 43, 80
3, 77228, Note_off_c, 1, 43, 100
3, 77280, Note_on_c, 1, 39, 80
3, 77324, Note_off_c, 1, 39, 100
3, 77376, Note_on_c, 1, 44, 110
3, 77376, Note_on_c, 1, 32, 110
3, 77468, Note_off_c, 1, 44, 100
3, 77468, Note_off_c, 1, 32, 100
3, 77472, Note_on_c, 1, 56, 80
3, 77564, Note_off_c, 1, 56, 100
3, 77568, Note_on_c, 1, 56, 80
3, 77660, Note_off_c, 1, 56, 100
3, 77664, Note_on_c, 1, 56, 80
3, 77756, Note_off_c, 1, 56, 100
3, 77760, Note_on_c, 1, 56, 80
3, 77852, Note_off_c, 1, 56, 100
3, 77856, Note_on_c, 1, 56, 80
3, 77948, Note_off_c, 1, 56, 100
3, 77952, Note_on_c, 1, 56, 80
3, 78044, Note_off_c, 1, 56, 100
3, 78048, Note_on_c, 1, 56, 80
3, 78140, Note_off_c, 1, 56, 100
3, 78144, Note_on_c, 1, 56, 80
3, 78236, Note_off_c, 1, 56, 100
3, 78240, Note_on_c, 1, 56, 80
3, 78332, Note_off_c, 1, 56, 100
3, 78336, Note_on_c, 1, 56, 80
3, 78428, Note_off_c, 1, 56, 100
3, 78432, Note_on_c, 1, 56, 80
3, 78524, Note_off_c, 1, 56, 100
3, 78528, Note_on_c, 1, 56, 80
3, 78620, Note_off_c, 1, 56, 100
3, 78624, Note_on_c, 1, 56, 80
3, 78716, Note_off_c, 1, 56, 100
3, 78720, Note_on_c, 1, 56, 80
3, 78812, Note_off_c, 1, 56, 100
3, 78816, Note_on_c, 1, 56, 80
3, 78908, Note_off_c, 1, 56, 100
3, 78912, Note_on_c, 1, 56, 80
3, 79004, Note_off_c, 1, 56, 100
3, 79008, Note_on_c, 1, 56, 80
3, 79100, Note_off_c, 1, 56, 100
3, 79104, Note_on_c, 1, 60, 80
3, 79104, Note_on_c, 1, 56, 80
3, 79104, Note_on_c, 1, 53, 80
3, 79196, Note_off_c, 1, 60, 100
3, 79196, Note_off_c, 1, 56, 100
3, 79196, Note_off_c, 1, 53, 100
3, 79200, Note_on_c, 1, 60, 80
3, 79200, Note_on_c, 1, 56, 80
3, 79200, Note_on_c, 1, 53, 80
3, 79292, Note_off_c, 1, 60, 100
3, 79292, Note_off_c, 1, 56, 100
3, 79292, Note_off_c, 1, 53, 100
3, 79296, Note_on_c, 1, 60, 80
3, 79296, Note_on_c, 1, 56, 80
3, 79296, Note_on_c, 1, 53, 80
3, 79388, Note_off_c, 1, 60, 100
3, 79388, Note_off_c, 1, 56, 100
3, 79388, Note_off_c, 1, 53, 100
3, 79392, Note_on_c, 1, 60, 80
3, 79392, Note_on_c, 1, 56, 80
3, 79392, Note_on_c, 1, 53, 80
3, 79484, Note_off_c, 1, 60, 100
3, 79484, Note_off_c, 1, 56, 100
3, 79484, Note_off_c, 1, 53, 100
3, 79488, Note_on_c, 1, 60, 80
3, 79488, Note_on_c, 1, 56, 80
3, 79488, Note_on_c, 1, 53, 80
3, 79580, Note_off_c, 1, 60, 100
3, 79580, Note_off_c, 1, 56, 100
3, 79580, Note_off_c, 1, 53, 100
3, 79584, Note_on_c, 1, 60, 80
3, 79584, Note_on_c, 1, 56, 80
3, 79584, Note_on_c, 1, 53, 80
3, 79676, Note_off_c, 1, 60, 100
3, 79676, Note_off_c, 1, 56, 100
3, 79676, Note_off_c, 1, 53, 100
3, 79680, Note_on_c, 1, 60, 80
3, 79680, Note_on_c, 1, 56, 80
3, 79680, Note_on_c, 1, 53, 80
3, 79772, Note_off_c, 1, 60, 100
3, 79772, Note_off_c, 1, 56, 100
3, 79772, Note_off_c, 1, 53, 100
3, 79776, Note_on_c, 1, 60, 80
3, 79776, Note_on_c, 1, 56, 80
3, 79776, Note_on_c, 1, 53, 80
3, 79868, Note_off_c, 1, 60, 100
3, 79868, Note_off_c, 1, 56, 100
3, 79868, Note_off_c, 1, 53, 100
3, 79872, Note_on_c, 1, 60, 80
3, 79872, Note_on_c, 1, 56, 80
3, 79872, Note_on_c, 1, 53, 80
3, 79964, Note_off_c, 1, 60, 100
3, 79964, Note_off_c, 1, 56, 100
3, 79964, Note_off_c, 1, 53, 100
3, 79968, Note_on_c, 1, 60, 80
3, 79968, Note_on_c, 1, 56, 80
3, 79968, Note_on_c, 1, 53, 80
3, 80060, Note_off_c, 1, 60, 100
3, 80060, Note_off_c, 1, 56, 100
3, 80060, Note_off_c, 1, 53, 100
3, 80064, Note_on_c, 1, 60, 80
3, 80064, Note_on_c, 1, 56, 80
3, 80064, Note_on_c, 1, 53, 80
3, 80156, Note_off_c, 1, 60, 100
3, 80156, Note_off_c, 1, 56, 100
3, 80156, Note_off_c, 1, 53, 100
3, 80160, Note_on_c, 1, 60, 80
3, 80160, Note_on_c, 1, 56, 80
3, 80160, Note_on_c, 1, 53, 80
3, 80252, Note_off_c, 1, 60, 100
3, 80252, Note_off_c, 1, 56, 100
3, 80252, Note_off_c, 1, 53, 100
3, 80256, Note_on_c, 1, 60, 80
3, 80256, Note_on_c, 1, 56, 80
3, 80256, Note_on_c, 1, 53, 80
3, 80348, Note_off_c, 1, 60, 100
3, 80348, Note_off_c, 1, 56, 100
3, 80348, Note_off_c, 1, 53, 100
3, 80352, Note_on_c, 1, 60, 80
3, 80352, Note_on_c, 1, 56, 80
3, 80352, Note_on_c, 1, 53, 80
3, 80444, Note_off_c, 1, 60, 100
3, 80444, Note_off_c, 1, 56, 100
3, 80444, Note_off_c, 1, 53, 100
3, 80448, Note_on_c, 1, 60, 80
3, 80448, Note_on_c, 1, 56, 80
3, 80448, Note_on_c, 1, 53, 80
3, 80540, Note_off_c, 1, 60, 100
3, 80540, Note_off_c, 1, 56, 100
3, 80540, Note_off_c, 1, 53, 100
3, 80544, Note_on_c, 1, 60, 80
3, 80544, Note_on_c, 1, 56, 80
3, 80544, Note_on_c, 1, 53, 80
3, 80636, Note_off_c, 1, 60, 100
3, 80636, Note_off_c, 1, 56, 100
3, 80636, Note_off_c, 1, 53, 100
3, 80640, Note_on_c, 1, 60, 80
3, 80640, Note_on_c, 1, 56, 80
3, 80640, Note_on_c, 1, 53, 80
3, 80732, Note_off_c, 1, 60, 100
3, 80732, Note_off_c, 1, 56, 100
3, 80732, Note_off_c, 1, 53, 100
3, 80736, Note_on_c, 1, 60, 80
3, 80736, Note_on_c, 1, 56, 80
3, 80736, Note_on_c, 1, 53, 80
3, 80828, Note_off_c, 1, 60, 100
3, 80828, Note_off_c, 1, 56, 100
3, 80828, Note_off_c, 1, 53, 100
3, 80832, Note_on_c, 1, 60, 80
3, 80832, Note_on_c, 1, 58, 80
3, 80832, Note_on_c, 1, 55, 80
3, 80924, Note_off_c, 1, 60, 100
3, 80924, Note_off_c, 1, 58, 100
3, 80924, Note_off_c, 1, 55, 100
3, 82560, Note_on_c, 1, 52, 80
3, 82560, Note_on_c, 1, 53, 80
3, 82580, Note_off_c, 1, 52, 100
3, 82580, Note_off_c, 1, 53, 100
3, 82608, Note_on_c, 1, 55, 80
3, 82652, Note_off_c, 1, 55, 100
3, 82656, Note_on_c, 1, 53, 80
3, 82700, Note_off_c, 1, 53, 100
3, 82752, Note_on_c, 1, 52, 80
3, 82796, Note_off_c, 1, 52, 100
3, 82848, Note_on_c, 1, 49, 80
3, 82892, Note_off_c, 1, 49, 100
3, 82944, Note_on_c, 1, 48, 80
3, 82988, Note_off_c, 1, 48, 100
3, 83040, Note_on_c, 1, 46, 80
3, 83084, Note_off_c, 1, 46, 100
3, 83136, Note_on_c, 1, 44, 80
3, 83180, Note_off_c, 1, 44, 100
3, 83232, Note_on_c, 1, 43, 80
3, 83276, Note_off_c, 1, 43, 100
3, 83328, Note_on_c, 1, 41, 80
3, 83372, Note_off_c, 1, 41, 100
3, 83424, Note_on_c, 1, 40, 80
3, 83468, Note_off_c, 1, 40, 100
3, 83520, Note_on_c, 1, 37, 80
3, 83564, Note_off_c, 1, 37, 100
3, 83616, Note_on_c, 1, 36, 80
3, 83660, Note_off_c, 1, 36, 100
3, 83712, Note_on_c, 1, 35, 80
3, 83756, Note_off_c, 1, 35, 100
3, 83808, Note_on_c, 1, 36, 80
3, 83852, Note_off_c, 1, 36, 100
3, 83904, Note_on_c, 1, 37, 80
3, 83948, Note_off_c, 1, 37, 100
3, 84000, Note_on_c, 1, 36, 80
3, 84044, Note_off_c, 1, 36, 100
3, 84096, Note_on_c, 1, 40, 80
3, 84140, Note_off_c, 1, 40, 100
3, 84192, Note_on_c, 1, 36, 80
3, 84236, Note_off_c, 1, 36, 100
3, 84288, Note_on_c, 1, 53, 80
3, 84288, Note_on_c, 1, 41, 80
3, 84380, Note_off_c, 1, 53, 100
3, 84380, Note_off_c, 1, 41, 100
3, 84384, Note_on_c, 1, 53, 80
3, 84476, Note_off_c, 1, 53, 100
3, 84480, Note_on_c, 1, 53, 80
3, 84572, Note_off_c, 1, 53, 100
3, 84576, Note_on_c, 1, 53, 80
3, 84668, Note_off_c, 1, 53, 100
3, 84672, Note_on_c, 1, 53, 80
3, 84764, Note_off_c, 1, 53, 100
3, 84768, Note_on_c, 1, 53, 80
3, 84860, Note_off_c, 1, 53, 100
3, 84864, Note_on_c, 1, 61, 80
3, 84864, Note_on_c, 1, 53, 80
3, 84864, Note_on_c, 1, 56, 80
3, 84956, Note_off_c, 1, 61, 100
3, 84956, Note_off_c, 1, 53, 100
3, 84956, Note_off_c, 1, 56, 100
3, 84960, Note_on_c, 1, 61, 80
3, 84960, Note_on_c, 1, 56, 80
3, 84960, Note_on_c, 1, 53, 80
3, 85052, Note_off_c, 1, 61, 100
3, 85052, Note_off_c, 1, 56, 100
3, 85052, Note_off_c, 1, 53, 100
3, 85056, Note_on_c, 1, 61, 80
3, 85056, Note_on_c, 1, 53, 80
3, 85056, Note_on_c, 1, 56, 80
3, 85148, Note_off_c, 1, 61, 100
3, 85148, Note_off_c, 1, 53, 100
3, 85148, Note_off_c, 1, 56, 100
3, 85152, Note_on_c, 1, 61, 80
3, 85152, Note_on_c, 1, 56, 80
3, 85152, Note_on_c, 1, 53, 80
3, 85244, Note_off_c, 1, 61, 100
3, 85244, Note_off_c, 1, 56, 100
3, 85244, Note_off_c, 1, 53, 100
3, 85248, Note_on_c, 1, 61, 80
3, 85248, Note_on_c, 1, 53, 80
3, 85248, Note_on_c, 1, 56, 80
3, 85340, Note_off_c, 1, 61, 100
3, 85340, Note_off_c, 1, 53, 100
3, 85340, Note_off_c, 1, 56, 100
3, 85344, Note_on_c, 1, 61, 80
3, 85344, Note_on_c, 1, 56, 80
3, 85344, Note_on_c, 1, 53, 80
3, 85436, Note_off_c, 1, 61, 100
3, 85436, Note_off_c, 1, 56, 100
3, 85436, Note_off_c, 1, 53, 100
3, 85440, Note_on_c, 1, 51, 80
3, 85532, Note_off_c, 1, 51, 100
3, 85536, Note_on_c, 1, 51, 80
3, 85628, Note_off_c, 1, 51, 100
3, 85632, Note_on_c, 1, 51, 80
3, 85724, Note_off_c, 1, 51, 100
3, 85728, Note_on_c, 1, 51, 80
3, 85820, Note_off_c, 1, 51, 100
3, 85824, Note_on_c, 1, 51, 80
3, 85916, Note_off_c, 1, 51, 100
3, 85920, Note_on_c, 1, 51, 80
3, 86012, Note_off_c, 1, 51, 100
3, 86016, Note_on_c, 1, 50, 80
3, 86016, Note_on_c, 1, 38, 80
3, 86108, Note_off_c, 1, 50, 100
3, 86108, Note_off_c, 1, 38, 100
3, 86112, Note_on_c, 1, 50, 80
3, 86204, Note_off_c, 1, 50, 100
3, 86208, Note_on_c, 1, 50, 80
3, 86300, Note_off_c, 1, 50, 100
3, 86304, Note_on_c, 1, 50, 80
3, 86396, Note_off_c, 1, 50, 100
3, 86400, Note_on_c, 1, 50, 80
3, 86492, Note_off_c, 1, 50, 100
3, 86496, Note_on_c, 1, 50, 80
3, 86588, Note_off_c, 1, 50, 100
3, 86592, Note_on_c, 1, 53, 80
3, 86592, Note_on_c, 1, 50, 80
3, 86592, Note_on_c, 1, 59, 80
3, 86684, Note_off_c, 1, 53, 100
3, 86684, Note_off_c, 1, 50, 100
3, 86684, Note_off_c, 1, 59, 100
3, 86688, Note_on_c, 1, 59, 80
3, 86688, Note_on_c, 1, 53, 80
3, 86688, Note_on_c, 1, 50, 80
3, 86780, Note_off_c, 1, 59, 100
3, 86780, Note_off_c, 1, 53, 100
3, 86780, Note_off_c, 1, 50, 100
3, 86784, Note_on_c, 1, 53, 80
3, 86784, Note_on_c, 1, 50, 80
3, 86784, Note_on_c, 1, 59, 80
3, 86876, Note_off_c, 1, 53, 100
3, 86876, Note_off_c, 1, 50, 100
3, 86876, Note_off_c, 1, 59, 100
3, 86880, Note_on_c, 1, 59, 80
3, 86880, Note_on_c, 1, 53, 80
3, 86880, Note_on_c, 1, 50, 80
3, 86972, Note_off_c, 1, 59, 100
3, 86972, Note_off_c, 1, 53, 100
3, 86972, Note_off_c, 1, 50, 100
3, 86976, Note_on_c, 1, 53, 80
3, 86976, Note_on_c, 1, 50, 80
3, 86976, Note_on_c, 1, 59, 80
3, 87068, Note_off_c, 1, 53, 100
3, 87068, Note_off_c, 1, 50, 100
3, 87068, Note_off_c, 1, 59, 100
3, 87072, Note_on_c, 1, 59, 80
3, 87072, Note_on_c, 1, 53, 80
3, 87072, Note_on_c, 1, 50, 80
3, 87164, Note_off_c, 1, 59, 100
3, 87164, Note_off_c, 1, 53, 100
3, 87164, Note_off_c, 1, 50, 100
3, 87168, Note_on_c, 1, 48, 80
3, 87260, Note_off_c, 1, 48, 100
3, 87264, Note_on_c, 1, 48, 80
3, 87356, Note_off_c, 1, 48, 100
3, 87360, Note_on_c, 1, 48, 80
3, 87452, Note_off_c, 1, 48, 100
3, 87456, Note_on_c, 1, 48, 80
3, 87548, Note_off_c, 1, 48, 100
3, 87552, Note_on_c, 1, 48, 80
3, 87644, Note_off_c, 1, 48, 100
3, 87648, Note_on_c, 1, 48, 80
3, 87740, Note_off_c, 1, 48, 100
3, 87744, Note_on_c, 1, 47, 80
3, 87744, Note_on_c, 1, 35, 80
3, 87836, Note_off_c, 1, 47, 100
3, 87836, Note_off_c, 1, 35, 100
3, 87840, Note_on_c, 1, 47, 80
3, 87932, Note_off_c, 1, 47, 100
3, 87936, Note_on_c, 1, 47, 80
3, 88028, Note_off_c, 1, 47, 100
3, 88032, Note_on_c, 1, 47, 80
3, 88124, Note_off_c, 1, 47, 100
3, 88128, Note_on_c, 1, 47, 80
3, 88220, Note_off_c, 1, 47, 100
3, 88224, Note_on_c, 1, 47, 80
3, 88316, Note_off_c, 1, 47, 100
3, 88320, Note_on_c, 1, 55, 80
3, 88320, Note_on_c, 1, 50, 80
3, 88320, Note_on_c, 1, 47, 80
3, 88412, Note_off_c, 1, 55, 100
3, 88412, Note_off_c, 1, 50, 100
3, 88412, Note_off_c, 1, 47, 100
3, 88416, Note_on_c, 1, 55, 80
3, 88416, Note_on_c, 1, 50, 80
3, 88416, Note_on_c, 1, 47, 80
3, 88508, Note_off_c, 1, 55, 100
3, 88508, Note_off_c, 1, 50, 100
3, 88508, Note_off_c, 1, 47, 100
3, 88512, Note_on_c, 1, 55, 80
3, 88512, Note_on_c, 1, 50, 80
3, 88512, Note_on_c, 1, 47, 80
3, 88604, Note_off_c, 1, 55, 100
3, 88604, Note_off_c, 1, 50, 100
3, 88604, Note_off_c, 1, 47, 100
3, 88608, Note_on_c, 1, 55, 80
3, 88608, Note_on_c, 1, 50, 80
3, 88608, Note_on_c, 1, 47, 80
3, 88700, Note_off_c, 1, 55, 100
3, 88700, Note_off_c, 1, 50, 100
3, 88700, Note_off_c, 1, 47, 100
3, 88704, Note_on_c, 1, 55, 80
3, 88704, Note_on_c, 1, 50, 80
3, 88704, Note_on_c, 1, 47, 80
3, 88796, Note_off_c, 1, 55, 100
3, 88796, Note_off_c, 1, 50, 100
3, 88796, Note_off_c, 1, 47, 100
3, 88800, Note_on_c, 1, 55, 80
3, 88800, Note_on_c, 1, 50, 80
3, 88800, Note_on_c, 1, 47, 80
3, 88892, Note_off_c, 1, 55, 100
3, 88892, Note_off_c, 1, 50, 100
3, 88892, Note_off_c, 1, 47, 100
3, 88896, Note_on_c, 1, 55, 80
3, 88896, Note_on_c, 1, 51, 80
3, 88896, Note_on_c, 1, 48, 80
3, 88988, Note_off_c, 1, 55, 100
3, 88988, Note_off_c, 1, 51, 100
3, 88988, Note_off_c, 1, 48, 100
3, 88992, Note_on_c, 1, 55, 80
3, 88992, Note_on_c, 1, 51, 80
3, 88992, Note_on_c, 1, 48, 80
3, 89084, Note_off_c, 1, 55, 100
3, 89084, Note_off_c, 1, 51, 100
3, 89084, Note_off_c, 1, 48, 100
3, 89088, Note_on_c, 1, 55, 80
3, 89088, Note_on_c, 1, 51, 80
3, 89088, Note_on_c, 1, 48, 80
3, 89180, Note_off_c, 1, 55, 100
3, 89180, Note_off_c, 1, 51, 100
3, 89180, Note_off_c, 1, 48, 100
3, 89184, Note_on_c, 1, 55, 80
3, 89184, Note_on_c, 1, 51, 80
3, 89184, Note_on_c, 1, 48, 80
3, 89276, Note_off_c, 1, 55, 100
3, 89276, Note_off_c, 1, 51, 100
3, 89276, Note_off_c, 1, 48, 100
3, 89280, Note_on_c, 1, 55, 80
3, 89280, Note_on_c, 1, 51, 80
3, 89280, Note_on_c, 1, 48, 80
3, 89372, Note_off_c, 1, 55, 100
3, 89372, Note_off_c, 1, 51, 100
3, 89372, Note_off_c, 1, 48, 100
3, 89376, Note_on_c, 1, 55, 80
3, 89376, Note_on_c, 1, 51, 80
3, 89376, Note_on_c, 1, 48, 80
3, 89468, Note_off_c, 1, 55, 100
3, 89468, Note_off_c, 1, 51, 100
3, 89468, Note_off_c, 1, 48, 100
3, 89472, Note_on_c, 1, 41, 80
3, 89564, Note_off_c, 1, 41, 100
3, 89568, Note_on_c, 1, 53, 81
3, 89568, Note_on_c, 1, 56, 81
3, 89568, Note_on_c, 1, 61, 81
3, 89660, Note_off_c, 1, 53, 100
3, 89660, Note_off_c, 1, 56, 100
3, 89660, Note_off_c, 1, 61, 100
3, 89664, Note_on_c, 1, 61, 83
3, 89664, Note_on_c, 1, 56, 83
3, 89664, Note_on_c, 1, 53, 83
3, 89756, Note_off_c, 1, 61, 100
3, 89756, Note_off_c, 1, 56, 100
3, 89756, Note_off_c, 1, 53, 100
3, 89760, Note_on_c, 1, 61, 85
3, 89760, Note_on_c, 1, 56, 85
3, 89760, Note_on_c, 1, 53, 85
3, 89852, Note_off_c, 1, 61, 100
3, 89852, Note_off_c, 1, 56, 100
3, 89852, Note_off_c, 1, 53, 100
3, 89856, Note_on_c, 1, 61, 86
3, 89856, Note_on_c, 1, 56, 86
3, 89856, Note_on_c, 1, 53, 86
3, 89948, Note_off_c, 1, 61, 100
3, 89948, Note_off_c, 1, 56, 100
3, 89948, Note_off_c, 1, 53, 100
3, 89952, Note_on_c, 1, 61, 88
3, 89952, Note_on_c, 1, 56, 88
3, 89952, Note_on_c, 1, 53, 88
3, 90044, Note_off_c, 1, 61, 100
3, 90044, Note_off_c, 1, 56, 100
3, 90044, Note_off_c, 1, 53, 100
3, 90048, Note_on_c, 1, 41, 90
3, 90140, Note_off_c, 1, 41, 100
3, 90144, Note_on_c, 1, 53, 92
3, 90144, Note_on_c, 1, 56, 92
3, 90144, Note_on_c, 1, 61, 92
3, 90236, Note_off_c, 1, 53, 100
3, 90236, Note_off_c, 1, 56, 100
3, 90236, Note_off_c, 1, 61, 100
3, 90240, Note_on_c, 1, 61, 93
3, 90240, Note_on_c, 1, 56, 93
3, 90240, Note_on_c, 1, 53, 93
3, 90332, Note_off_c, 1, 61, 100
3, 90332, Note_off_c, 1, 56, 100
3, 90332, Note_off_c, 1, 53, 100
3, 90336, Note_on_c, 1, 61, 95
3, 90336, Note_on_c, 1, 56, 95
3, 90336, Note_on_c, 1, 53, 95
3, 90428, Note_off_c, 1, 61, 100
3, 90428, Note_off_c, 1, 56, 100
3, 90428, Note_off_c, 1, 53, 100
3, 90432, Note_on_c, 1, 61, 97
3, 90432, Note_on_c, 1, 56, 97
3, 90432, Note_on_c, 1, 53, 97
3, 90524, Note_off_c, 1, 61, 100
3, 90524, Note_off_c, 1, 56, 100
3, 90524, Note_off_c, 1, 53, 100
3, 90528, Note_on_c, 1, 61, 98
3, 90528, Note_on_c, 1, 56, 98
3, 90528, Note_on_c, 1, 53, 98
3, 90620, Note_off_c, 1, 61, 100
3, 90620, Note_off_c, 1, 56, 100
3, 90620, Note_off_c, 1, 53, 100
3, 90624, Note_on_c, 1, 42, 100
3, 90716, Note_off_c, 1, 42, 100
3, 90720, Note_on_c, 1, 60, 102
3, 90720, Note_on_c, 1, 57, 102
3, 90720, Note_on_c, 1, 54, 102
3, 90812, Note_off_c, 1, 60, 100
3, 90812, Note_off_c, 1, 57, 100
3, 90812, Note_off_c, 1, 54, 100
3, 90816, Note_on_c, 1, 60, 104
3, 90816, Note_on_c, 1, 57, 104
3, 90816, Note_on_c, 1, 54, 104
3, 90908, Note_off_c, 1, 60, 100
3, 90908, Note_off_c, 1, 57, 100
3, 90908, Note_off_c, 1, 54, 100
3, 90912, Note_on_c, 1, 60, 105
3, 90912, Note_on_c, 1, 57, 105
3, 90912, Note_on_c, 1, 54, 105
3, 91004, Note_off_c, 1, 60, 100
3, 91004, Note_off_c, 1, 57, 100
3, 91004, Note_off_c, 1, 54, 100
3, 91008, Note_on_c, 1, 60, 107
3, 91008, Note_on_c, 1, 57, 107
3, 91008, Note_on_c, 1, 54, 107
3, 91100, Note_off_c, 1, 60, 100
3, 91100, Note_off_c, 1, 57, 100
3, 91100, Note_off_c, 1, 54, 100
3, 91104, Note_on_c, 1, 60, 109
3, 91104, Note_on_c, 1, 57, 109
3, 91104, Note_on_c, 1, 54, 109
3, 91196, Note_off_c, 1, 60, 100
3, 91196, Note_off_c, 1, 57, 100
3, 91196, Note_off_c, 1, 54, 100
3, 91200, Note_on_c, 1, 43, 110
3, 91292, Note_off_c, 1, 43, 100
3, 91296, Note_on_c, 1, 47, 80
3, 91388, Note_off_c, 1, 47, 100
3, 91392, Note_on_c, 1, 50, 80
3, 91484, Note_off_c, 1, 50, 100
3, 91488, Note_on_c, 1, 55, 80
3, 91580, Note_off_c, 1, 55, 100
3, 91584, Note_on_c, 1, 59, 80
3, 91676, Note_off_c, 1, 59, 100
3, 91680, Note_on_c, 1, 62, 80
3, 91772, Note_off_c, 1, 62, 100
3, 91776, Note_on_c, 1, 67, 80
3, 91964, Note_off_c, 1, 67, 100
3, 91968, Note_on_c, 1, 66, 80
3, 92156, Note_off_c, 1, 66, 100
3, 92160, Note_on_c, 1, 67, 80
3, 92348, Note_off_c, 1, 67, 100
3, 92352, Note_on_c, 1, 68, 80
3, 92732, Note_off_c, 1, 68, 100
3, 92736, Note_on_c, 1, 66, 80
3, 92924, Note_off_c, 1, 66, 100
3, 92928, Note_on_c, 1, 43, 80
3, 93020, Note_off_c, 1, 43, 100
3, 93024, Note_on_c, 1, 47, 80
3, 93116, Note_off_c, 1, 47, 100
3, 93120, Note_on_c, 1, 50, 80
3, 93212, Note_off_c, 1, 50, 100
3, 93216, Note_on_c, 1, 55, 80
3, 93308, Note_off_c, 1, 55, 100
3, 93312, Note_on_c, 1, 59, 80
3, 93404, Note_off_c, 1, 59, 100
3, 93408, Note_on_c, 1, 62, 80
3, 93500, Note_off_c, 1, 62, 100
3, 93504, Note_on_c, 1, 67, 80
3, 93692, Note_off_c, 1, 67, 100
3, 93696, Note_on_c, 1, 66, 80
3, 93884, Note_off_c, 1, 66, 100
3, 93888, Note_on_c, 1, 67, 80
3, 94076, Note_off_c, 1, 67, 100
3, 94080, Note_on_c, 1, 68, 80
3, 94460, Note_off_c, 1, 68, 100
3, 94464, Note_on_c, 1, 66, 80
3, 94656, Note_on_c, 1, 55, 80
3, 94848, Note_on_c, 1, 65, 80
3, 95036, Note_off_c, 1, 66, 100
3, 95228, Note_off_c, 1, 55, 100
3, 95232, Note_on_c, 1, 55, 80
3, 95420, Note_off_c, 1, 65, 100
3, 95424, Note_on_c, 1, 64, 80
3, 95804, Note_off_c, 1, 55, 100
3, 95808, Note_on_c, 1, 55, 80
3, 95996, Note_off_c, 1, 64, 100
3, 96192, Note_on_c, 1, 63, 80
3, 96380, Note_off_c, 1, 55, 100
3, 96380, Note_off_c, 1, 63, 100
3, 96384, Note_on_c, 1, 62, 80
3, 96384, Note_on_c, 1, 55, 80
3, 96764, Note_off_c, 1, 62, 100
3, 96764, Note_off_c, 1, 55, 100
3, 96960, Note_on_c, 1, 62, 79
3, 96960, Note_on_c, 1, 55, 79
3, 97340, Note_off_c, 1, 62, 100
3, 97340, Note_off_c, 1, 55, 100
3, 97536, Note_on_c, 1, 60, 76
3, 97536, Note_on_c, 1, 55, 76
3, 97916, Note_off_c, 1, 60, 100
3, 97916, Note_off_c, 1, 55, 100
3, 98112, Note_on_c, 1, 55, 73
3, 98112, Note_on_c, 1, 43, 73
3, 98492, Note_off_c, 1, 55, 100
3, 98492, Note_off_c, 1, 43, 100
3, 98688, Note_on_c, 1, 43, 70
3, 98688, Note_on_c, 1, 31, 70
3, 99068, Note_off_c, 1, 43, 100
3, 99068, Note_off_c, 1, 31, 100
3, 99264, Note_on_c, 1, 43, 67
3, 99264, Note_on_c, 1, 31, 67
3, 99644, Note_off_c, 1, 43, 100
3, 99644, Note_off_c, 1, 31, 100
3, 99840, Note_on_c, 1, 31, 65
3, 99840, Note_on_c, 1, 43, 65
3, 100028, Note_off_c, 1, 43, 100
3, 100032, Note_on_c, 1, 43, 65
3, 100220, Note_off_c, 1, 31, 100
3, 100220, Note_off_c, 1, 43, 100
3, 100224, Note_on_c, 1, 43, 65
3, 100412, Note_off_c, 1, 43, 100
3, 100416, Note_on_c, 1, 43, 65
3, 100604, Note_off_c, 1, 43, 100
3, 100608, Note_on_c, 1, 43, 65
3, 100796, Note_off_c, 1, 43, 100
3, 100800, Note_on_c, 1, 43, 65
3, 100988, Note_off_c, 1, 43, 100
3, 100992, Note_on_c, 1, 43, 65
3, 101180, Note_off_c, 1, 43, 100
3, 101184, Note_on_c, 1, 43, 65
3, 101372, Note_off_c, 1, 43, 100
3, 101376, Note_on_c, 1, 43, 65
3, 101376, Note_on_c, 1, 30, 65
3, 101564, Note_off_c, 1, 43, 100
3, 101564, Note_off_c, 1, 30, 100
3, 101568, Note_on_c, 1, 31, 65
3, 101568, Note_on_c, 1, 43, 65
3, 101756, Note_off_c, 1, 43, 100
3, 101760, Note_on_c, 1, 43, 65
3, 101948, Note_off_c, 1, 31, 100
3, 101948, Note_off_c, 1, 43, 100
3, 101952, Note_on_c, 1, 43, 65
3, 102140, Note_off_c, 1, 43, 100
3, 102144, Note_on_c, 1, 43, 65
3, 102332, Note_off_c, 1, 43, 100
3, 102336, Note_on_c, 1, 43, 65
3, 102524, Note_off_c, 1, 43, 100
3, 102528, Note_on_c, 1, 43, 65
3, 102716, Note_off_c, 1, 43, 100
3, 102720, Note_on_c, 1, 43, 65
3, 102908, Note_off_c, 1, 43, 100
3, 102912, Note_on_c, 1, 43, 65
3, 103100, Note_off_c, 1, 43, 100
3, 103104, Note_on_c, 1, 43, 65
3, 103104, Note_on_c, 1, 30, 65
3, 103292, Note_off_c, 1, 43, 100
3, 103292, Note_off_c, 1, 30, 100
3, 103296, Note_on_c, 1, 31, 65
3, 103296, Note_on_c, 1, 43, 65
3, 103484, Note_off_c, 1, 43, 100
3, 103488, Note_on_c, 1, 43, 65
3, 103676, Note_off_c, 1, 31, 100
3, 103676, Note_off_c, 1, 43, 100
3, 103680, Note_on_c, 1, 43, 65
3, 103868, Note_off_c, 1, 43, 100
3, 103872, Note_on_c, 1, 43, 65
3, 104060, Note_off_c, 1, 43, 100
3, 104064, Note_on_c, 1, 43, 65
3, 104252, Note_off_c, 1, 43, 100
3, 104256, Note_on_c, 1, 43, 65
3, 104444, Note_off_c, 1, 43, 100
3, 104448, Note_on_c, 1, 43, 65
3, 104636, Note_off_c, 1, 43, 100
3, 104640, Note_on_c, 1, 43, 65
3, 104828, Note_off_c, 1, 43, 100
3, 104832, Note_on_c, 1, 43, 65
3, 104832, Note_on_c, 1, 54, 65
3, 105020, Note_off_c, 1, 43, 100
3, 105020, Note_off_c, 1, 54, 100
3, 105024, Note_on_c, 1, 55, 65
3, 105024, Note_on_c, 1, 43, 65
3, 105212, Note_off_c, 1, 43, 100
3, 105216, Note_on_c, 1, 55, 65
3, 105404, Note_off_c, 1, 55, 100
3, 105404, Note_off_c, 1, 55, 100
3, 105408, Note_on_c, 1, 55, 65
3, 105596, Note_off_c, 1, 55, 100
3, 105600, Note_on_c, 1, 55, 65
3, 105788, Note_off_c, 1, 55, 100
3, 105792, Note_on_c, 1, 55, 65
3, 105980, Note_off_c, 1, 55, 100
3, 105984, Note_on_c, 1, 55, 65
3, 106172, Note_off_c, 1, 55, 100
3, 106176, Note_on_c, 1, 55, 65
3, 106364, Note_off_c, 1, 55, 100
3, 106368, Note_on_c, 1, 55, 65
3, 106556, Note_off_c, 1, 55, 100
3, 106560, Note_on_c, 1, 55, 65
3, 106748, Note_off_c, 1, 55, 100
3, 106752, Note_on_c, 1, 55, 65
3, 106940, Note_off_c, 1, 55, 100
3, 106944, Note_on_c, 1, 55, 65
3, 107132, Note_off_c, 1, 55, 100
3, 107136, Note_on_c, 1, 55, 65
3, 107324, Note_off_c, 1, 55, 100
3, 107328, Note_on_c, 1, 55, 65
3, 107516, Note_off_c, 1, 55, 100
3, 107520, Note_on_c, 1, 55, 65
3, 107708, Note_off_c, 1, 55, 100
3, 107712, Note_on_c, 1, 55, 65
3, 107900, Note_off_c, 1, 55, 100
3, 107904, Note_on_c, 1, 55, 65
3, 108092, Note_off_c, 1, 55, 100
3, 108096, Note_on_c, 1, 55, 65
3, 108284, Note_off_c, 1, 55, 100
3, 108288, Note_on_c, 1, 55, 65
3, 108476, Note_off_c, 1, 55, 100
3, 108480, Note_on_c, 1, 55, 65
3, 108668, Note_off_c, 1, 55, 100
3, 108672, Note_on_c, 1, 55, 65
3, 108860, Note_off_c, 1, 55, 100
3, 108864, Note_on_c, 1, 55, 65
3, 109052, Note_off_c, 1, 55, 100
3, 109056, Note_on_c, 1, 55, 65
3, 109244, Note_off_c, 1, 55, 100
3, 109248, Note_on_c, 1, 43, 65
3, 109436, Note_off_c, 1, 43, 100
3, 109440, Note_on_c, 1, 43, 65
3, 109628, Note_off_c, 1, 43, 100
3, 109632, Note_on_c, 1, 43, 65
3, 109820, Note_off_c, 1, 43, 100
3, 109824, Note_on_c, 1, 43, 65
3, 110012, Note_off_c, 1, 43, 100
3, 110016, Note_on_c, 1, 43, 65
3, 110204, Note_off_c, 1, 43, 100
3, 110208, Note_on_c, 1, 43, 65
3, 110400, Note_on_c, 1, 45, 67
3, 110492, Note_off_c, 1, 45, 100
3, 110496, Note_on_c, 1, 47, 69
3, 110588, Note_off_c, 1, 47, 100
3, 110592, Note_on_c, 1, 48, 70
3, 110684, Note_off_c, 1, 48, 100
3, 110688, Note_on_c, 1, 50, 72
3, 110780, Note_off_c, 1, 50, 100
3, 110784, Note_on_c, 1, 52, 73
3, 110876, Note_off_c, 1, 52, 100
3, 110880, Note_on_c, 1, 53, 75
3, 110972, Note_off_c, 1, 53, 100
3, 110976, Note_on_c, 1, 55, 76
3, 111068, Note_off_c, 1, 55, 100
3, 111072, Note_on_c, 1, 57, 78
3, 111164, Note_off_c, 1, 43, 100
3, 111164, Note_off_c, 1, 57, 100
3, 111168, Note_on_c, 1, 59, 79
3, 111260, Note_off_c, 1, 59, 100
3, 111264, Note_on_c, 1, 60, 81
3, 111356, Note_off_c, 1, 60, 100
3, 111360, Note_on_c, 1, 55, 82
3, 111360, Note_on_c, 1, 62, 82
3, 111452, Note_off_c, 1, 62, 100
3, 111456, Note_on_c, 1, 64, 84
3, 111548, Note_off_c, 1, 64, 100
3, 111552, Note_on_c, 1, 65, 85
3, 111644, Note_off_c, 1, 65, 100
3, 111648, Note_on_c, 1, 61, 87
3, 111740, Note_off_c, 1, 61, 100
3, 111744, Note_on_c, 1, 62, 88
3, 111836, Note_off_c, 1, 62, 100
3, 111840, Note_on_c, 1, 62, 89
3, 111932, Note_off_c, 1, 55, 100
3, 111932, Note_off_c, 1, 62, 100
3, 111936, Note_on_c, 1, 48, 70
3, 111936, Note_on_c, 1, 52, 70
3, 112028, Note_off_c, 1, 48, 100
3, 112028, Note_off_c, 1, 52, 100
3, 112032, Note_on_c, 1, 55, 70
3, 112032, Note_on_c, 1, 52, 70
3, 112124, Note_off_c, 1, 55, 100
3, 112124, Note_off_c, 1, 52, 100
3, 112128, Note_on_c, 1, 60, 70
3, 112128, Note_on_c, 1, 55, 70
3, 112220, Note_off_c, 1, 60, 100
3, 112220, Note_off_c, 1, 55, 100
3, 112224, Note_on_c, 1, 55, 70
3, 112224, Note_on_c, 1, 52, 70
3, 112316, Note_off_c, 1, 55, 100
3, 112316, Note_off_c, 1, 52, 100
3, 112320, Note_on_c, 1, 52, 70
3, 112320, Note_on_c, 1, 48, 70
3, 112412, Note_off_c, 1, 52, 100
3, 112412, Note_off_c, 1, 48, 100
3, 112416, Note_on_c, 1, 55, 70
3, 112416, Note_on_c, 1, 52, 70
3, 112508, Note_off_c, 1, 55, 100
3, 112508, Note_off_c, 1, 52, 100
3, 112512, Note_on_c, 1, 48, 70
3, 112512, Note_on_c, 1, 52, 70
3, 112604, Note_off_c, 1, 48, 100
3, 112604, Note_off_c, 1, 52, 100
3, 112608, Note_on_c, 1, 55, 70
3, 112608, Note_on_c, 1, 52, 70
3, 112700, Note_off_c, 1, 55, 100
3, 112700, Note_off_c, 1, 52, 100
3, 112704, Note_on_c, 1, 60, 70
3, 112704, Note_on_c, 1, 55, 70
3, 112796, Note_off_c, 1, 60, 100
3, 112796, Note_off_c, 1, 55, 100
3, 112800, Note_on_c, 1, 55, 70
3, 112800, Note_on_c, 1, 52, 70
3, 112892, Note_off_c, 1, 55, 100
3, 112892, Note_off_c, 1, 52, 100
3, 112896, Note_on_c, 1, 52, 70
3, 112896, Note_on_c, 1, 48, 70
3, 112988, Note_off_c, 1, 52, 100
3, 112988, Note_off_c, 1, 48, 100
3, 112992, Note_on_c, 1, 55, 70
3, 112992, Note_on_c, 1, 52, 70
3, 113084, Note_off_c, 1, 55, 100
3, 113084, Note_off_c, 1, 52, 100
3, 113088, Note_on_c, 1, 48, 70
3, 113088, Note_on_c, 1, 52, 70
3, 113180, Note_off_c, 1, 48, 100
3, 113180, Note_off_c, 1, 52, 100
3, 113184, Note_on_c, 1, 55, 70
3, 113184, Note_on_c, 1, 52, 70
3, 113276, Note_off_c, 1, 55, 100
3, 113276, Note_off_c, 1, 52, 100
3, 113280, Note_on_c, 1, 60, 70
3, 113280, Note_on_c, 1, 55, 70
3, 113372, Note_off_c, 1, 60, 100
3, 113372, Note_off_c, 1, 55, 100
3, 113376, Note_on_c, 1, 55, 70
3, 113376, Note_on_c, 1, 52, 70
3, 113468, Note_off_c, 1, 55, 100
3, 113468, Note_off_c, 1, 52, 100
3, 113472, Note_on_c, 1, 52, 70
3, 113472, Note_on_c, 1, 48, 70
3, 113564, Note_off_c, 1, 52, 100
3, 113564, Note_off_c, 1, 48, 100
3, 113568, Note_on_c, 1, 55, 70
3, 113568, Note_on_c, 1, 52, 70
3, 113660, Note_off_c, 1, 55, 100
3, 113660, Note_off_c, 1, 52, 100
3, 113664, Note_on_c, 1, 48, 70
3, 113664, Note_on_c, 1, 52, 70
3, 113756, Note_off_c, 1, 48, 100
3, 113756, Note_off_c, 1, 52, 100
3, 113760, Note_on_c, 1, 55, 70
3, 113760, Note_on_c, 1, 52, 70
3, 113852, Note_off_c, 1, 55, 100
3, 113852, Note_off_c, 1, 52, 100
3, 113856, Note_on_c, 1, 60, 70
3, 113856, Note_on_c, 1, 55, 70
3, 113948, Note_off_c, 1, 60, 100
3, 113948, Note_off_c, 1, 55, 100
3, 113952, Note_on_c, 1, 55, 70
3, 113952, Note_on_c, 1, 52, 70
3, 114044, Note_off_c, 1, 55, 100
3, 114044, Note_off_c, 1, 52, 100
3, 114048, Note_on_c, 1, 52, 70
3, 114048, Note_on_c, 1, 48, 70
3, 114140, Note_off_c, 1, 52, 100
3, 114140, Note_off_c, 1, 48, 100
3, 114144, Note_on_c, 1, 55, 70
3, 114144, Note_on_c, 1, 52, 70
3, 114236, Note_off_c, 1, 55, 100
3, 114236, Note_off_c, 1, 52, 100
3, 114240, Note_on_c, 1, 48, 70
3, 114240, Note_on_c, 1, 52, 70
3, 114332, Note_off_c, 1, 48, 100
3, 114332, Note_off_c, 1, 52, 100
3, 114336, Note_on_c, 1, 55, 70
3, 114336, Note_on_c, 1, 52, 70
3, 114428, Note_off_c, 1, 55, 100
3, 114428, Note_off_c, 1, 52, 100
3, 114432, Note_on_c, 1, 60, 70
3, 114432, Note_on_c, 1, 55, 70
3, 114524, Note_off_c, 1, 60, 100
3, 114524, Note_off_c, 1, 55, 100
3, 114528, Note_on_c, 1, 55, 70
3, 114528, Note_on_c, 1, 52, 70
3, 114620, Note_off_c, 1, 55, 100
3, 114620, Note_off_c, 1, 52, 100
3, 114624, Note_on_c, 1, 52, 70
3, 114624, Note_on_c, 1, 48, 70
3, 114716, Note_off_c, 1, 52, 100
3, 114716, Note_off_c, 1, 48, 100
3, 114720, Note_on_c, 1, 55, 70
3, 114720, Note_on_c, 1, 52, 70
3, 114812, Note_off_c, 1, 55, 100
3, 114812, Note_off_c, 1, 52, 100
3, 114816, Note_on_c, 1, 48, 70
3, 114816, Note_on_c, 1, 52, 70
3, 114908, Note_off_c, 1, 48, 100
3, 114908, Note_off_c, 1, 52, 100
3, 114912, Note_on_c, 1, 55, 70
3, 114912, Note_on_c, 1, 52, 70
3, 115004, Note_off_c, 1, 55, 100
3, 115004, Note_off_c, 1, 52, 100
3, 115008, Note_on_c, 1, 60, 70
3, 115008, Note_on_c, 1, 55, 70
3, 115100, Note_off_c, 1, 60, 100
3, 115100, Note_off_c, 1, 55, 100
3, 115104, Note_on_c, 1, 55, 70
3, 115104, Note_on_c, 1, 52, 70
3, 115196, Note_off_c, 1, 55, 100
3, 115196, Note_off_c, 1, 52, 100
3, 115200, Note_on_c, 1, 52, 70
3, 115200, Note_on_c, 1, 48, 70
3, 115292, Note_off_c, 1, 52, 100
3, 115292, Note_off_c, 1, 48, 100
3, 115296, Note_on_c, 1, 55, 70
3, 115296, Note_on_c, 1, 52, 70
3, 115388, Note_off_c, 1, 55, 100
3, 115388, Note_off_c, 1, 52, 100
3, 115392, Note_on_c, 1, 53, 70
3, 115392, Note_on_c, 1, 47, 70
3, 115484, Note_off_c, 1, 53, 100
3, 115484, Note_off_c, 1, 47, 100
3, 115488, Note_on_c, 1, 55, 70
3, 115488, Note_on_c, 1, 53, 70
3, 115580, Note_off_c, 1, 55, 100
3, 115580, Note_off_c, 1, 53, 100
3, 115584, Note_on_c, 1, 55, 70
3, 115584, Note_on_c, 1, 62, 70
3, 115676, Note_off_c, 1, 55, 100
3, 115676, Note_off_c, 1, 62, 100
3, 115680, Note_on_c, 1, 55, 70
3, 115680, Note_on_c, 1, 53, 70
3, 115772, Note_off_c, 1, 55, 100
3, 115772, Note_off_c, 1, 53, 100
3, 115776, Note_on_c, 1, 53, 70
3, 115776, Note_on_c, 1, 47, 70
3, 115868, Note_off_c, 1, 53, 100
3, 115868, Note_off_c, 1, 47, 100
3, 115872, Note_on_c, 1, 55, 70
3, 115872, Note_on_c, 1, 53, 70
3, 115964, Note_off_c, 1, 55, 100
3, 115964, Note_off_c, 1, 53, 100
3, 115968, Note_on_c, 1, 53, 70
3, 115968, Note_on_c, 1, 47, 70
3, 116060, Note_off_c, 1, 53, 100
3, 116060, Note_off_c, 1, 47, 100
3, 116064, Note_on_c, 1, 55, 70
3, 116064, Note_on_c, 1, 53, 70
3, 116156, Note_off_c, 1, 55, 100
3, 116156, Note_off_c, 1, 53, 100
3, 116160, Note_on_c, 1, 55, 70
3, 116160, Note_on_c, 1, 62, 70
3, 116252, Note_off_c, 1, 55, 100
3, 116252, Note_off_c, 1, 62, 100
3, 116256, Note_on_c, 1, 55, 70
3, 116256, Note_on_c, 1, 53, 70
3, 116348, Note_off_c, 1, 55, 100
3, 116348, Note_off_c, 1, 53, 100
3, 116352, Note_on_c, 1, 53, 70
3, 116352, Note_on_c, 1, 47, 70
3, 116444, Note_off_c, 1, 53, 100
3, 116444, Note_off_c, 1, 47, 100
3, 116448, Note_on_c, 1, 55, 70
3, 116448, Note_on_c, 1, 53, 70
3, 116540, Note_off_c, 1, 55, 100
3, 116540, Note_off_c, 1, 53, 100
3, 116544, Note_on_c, 1, 53, 70
3, 116544, Note_on_c, 1, 47, 70
3, 116636, Note_off_c, 1, 53, 100
3, 116636, Note_off_c, 1, 47, 100
3, 116640, Note_on_c, 1, 55, 70
3, 116640, Note_on_c, 1, 53, 70
3, 116732, Note_off_c, 1, 55, 100
3, 116732, Note_off_c, 1, 53, 100
3, 116736, Note_on_c, 1, 55, 70
3, 116736, Note_on_c, 1, 62, 70
3, 116828, Note_off_c, 1, 55, 100
3, 116828, Note_off_c, 1, 62, 100
3, 116832, Note_on_c, 1, 55, 70
3, 116832, Note_on_c, 1, 53, 70
3, 116924, Note_off_c, 1, 55, 100
3, 116924, Note_off_c, 1, 53, 100
3, 116928, Note_on_c, 1, 53, 70
3, 116928, Note_on_c, 1, 47, 70
3, 117020, Note_off_c, 1, 53, 100
3, 117020, Note_off_c, 1, 47, 100
3, 117024, Note_on_c, 1, 55, 70
3, 117024, Note_on_c, 1, 53, 70
3, 117116, Note_off_c, 1, 55, 100
3, 117116, Note_off_c, 1, 53, 100
3, 117120, Note_on_c, 1, 53, 70
3, 117120, Note_on_c, 1, 47, 70
3, 117212, Note_off_c, 1, 53, 100
3, 117212, Note_off_c, 1, 47, 100
3, 117216, Note_on_c, 1, 55, 70
3, 117216, Note_on_c, 1, 53, 70
3, 117308, Note_off_c, 1, 55, 100
3, 117308, Note_off_c, 1, 53, 100
3, 117312, Note_on_c, 1, 55, 70
3, 117312, Note_on_c, 1, 62, 70
3, 117404, Note_off_c, 1, 55, 100
3, 117404, Note_off_c, 1, 62, 100
3, 117408, Note_on_c, 1, 55, 70
3, 117408, Note_on_c, 1, 53, 70
3, 117500, Note_off_c, 1, 55, 100
3, 117500, Note_off_c, 1, 53, 100
3, 117504, Note_on_c, 1, 53, 70
3, 117504, Note_on_c, 1, 47, 70
3, 117596, Note_off_c, 1, 53, 100
3, 117596, Note_off_c, 1, 47, 100
3, 117600, Note_on_c, 1, 55, 70
3, 117600, Note_on_c, 1, 53, 70
3, 117692, Note_off_c, 1, 55, 100
3, 117692, Note_off_c, 1, 53, 100
3, 117696, Note_on_c, 1, 53, 70
3, 117696, Note_on_c, 1, 47, 70
3, 117788, Note_off_c, 1, 53, 100
3, 117788, Note_off_c, 1, 47, 100
3, 117792, Note_on_c, 1, 55, 70
3, 117792, Note_on_c, 1, 53, 70
3, 117884, Note_off_c, 1, 55, 100
3, 117884, Note_off_c, 1, 53, 100
3, 117888, Note_on_c, 1, 55, 70
3, 117888, Note_on_c, 1, 62, 70
3, 117980, Note_off_c, 1, 55, 100
3, 117980, Note_off_c, 1, 62, 100
3, 117984, Note_on_c, 1, 55, 70
3, 117984, Note_on_c, 1, 53, 70
3, 118076, Note_off_c, 1, 55, 100
3, 118076, Note_off_c, 1, 53, 100
3, 118080, Note_on_c, 1, 53, 70
3, 118080, Note_on_c, 1, 47, 70
3, 118172, Note_off_c, 1, 53, 100
3, 118172, Note_off_c, 1, 47, 100
3, 118176, Note_on_c, 1, 55, 70
3, 118176, Note_on_c, 1, 53, 70
3, 118268, Note_off_c, 1, 55, 100
3, 118268, Note_off_c, 1, 53, 100
3, 118272, Note_on_c, 1, 53, 70
3, 118272, Note_on_c, 1, 43, 70
3, 118364, Note_off_c, 1, 53, 100
3, 118364, Note_off_c, 1, 43, 100
3, 118368, Note_on_c, 1, 55, 70
3, 118368, Note_on_c, 1, 53, 70
3, 118460, Note_off_c, 1, 55, 100
3, 118460, Note_off_c, 1, 53, 100
3, 118464, Note_on_c, 1, 55, 70
3, 118464, Note_on_c, 1, 59, 70
3, 118556, Note_off_c, 1, 55, 100
3, 118556, Note_off_c, 1, 59, 100
3, 118560, Note_on_c, 1, 55, 70
3, 118560, Note_on_c, 1, 53, 70
3, 118652, Note_off_c, 1, 55, 100
3, 118652, Note_off_c, 1, 53, 100
3, 118656, Note_on_c, 1, 53, 70
3, 118656, Note_on_c, 1, 43, 70
3, 118748, Note_off_c, 1, 53, 100
3, 118748, Note_off_c, 1, 43, 100
3, 118752, Note_on_c, 1, 55, 70
3, 118752, Note_on_c, 1, 53, 70
3, 118844, Note_off_c, 1, 55, 100
3, 118844, Note_off_c, 1, 53, 100
3, 118848, Note_on_c, 1, 48, 80
3, 118940, Note_off_c, 1, 48, 100
3, 118944, Note_on_c, 1, 55, 80
3, 119036, Note_off_c, 1, 55, 100
3, 119040, Note_on_c, 1, 60, 80
3, 119132, Note_off_c, 1, 60, 100
3, 119136, Note_on_c, 1, 55, 80
3, 119228, Note_off_c, 1, 55, 100
3, 119232, Note_on_c, 1, 52, 80
3, 119324, Note_off_c, 1, 52, 100
3, 119328, Note_on_c, 1, 48, 80
3, 119420, Note_off_c, 1, 48, 100
3, 119424, Note_on_c, 1, 45, 80
3, 119516, Note_off_c, 1, 45, 100
3, 119520, Note_on_c, 1, 57, 80
3, 119612, Note_off_c, 1, 57, 100
3, 119616, Note_on_c, 1, 60, 80
3, 119708, Note_off_c, 1, 60, 100
3, 119712, Note_on_c, 1, 57, 80
3, 119804, Note_off_c, 1, 57, 100
3, 119808, Note_on_c, 1, 53, 80
3, 119900, Note_off_c, 1, 53, 100
3, 119904, Note_on_c, 1, 48, 80
3, 119996, Note_off_c, 1, 48, 100
3, 120000, Note_on_c, 1, 40, 80
3, 120092, Note_off_c, 1, 40, 100
3, 120096, Note_on_c, 1, 55, 80
3, 120188, Note_off_c, 1, 55, 100
3, 120192, Note_on_c, 1, 60, 80
3, 120284, Note_off_c, 1, 60, 100
3, 120288, Note_on_c, 1, 55, 80
3, 120380, Note_off_c, 1, 55, 100
3, 120384, Note_on_c, 1, 52, 80
3, 120476, Note_off_c, 1, 52, 100
3, 120480, Note_on_c, 1, 48, 80
3, 120572, Note_off_c, 1, 48, 100
3, 120576, Note_on_c, 1, 41, 80
3, 120668, Note_off_c, 1, 41, 100
3, 120672, Note_on_c, 1, 53, 80
3, 120672, Note_on_c, 1, 57, 80
3, 120764, Note_off_c, 1, 53, 100
3, 120764, Note_off_c, 1, 57, 100
3, 120768, Note_on_c, 1, 57, 80
3, 120768, Note_on_c, 1, 60, 80
3, 120860, Note_off_c, 1, 57, 100
3, 120860, Note_off_c, 1, 60, 100
3, 120864, Note_on_c, 1, 53, 80
3, 120864, Note_on_c, 1, 57, 80
3, 120956, Note_off_c, 1, 53, 100
3, 120956, Note_off_c, 1, 57, 100
3, 120960, Note_on_c, 1, 60, 80
3, 120960, Note_on_c, 1, 57, 80
3, 121052, Note_off_c, 1, 60, 100
3, 121052, Note_off_c, 1, 57, 100
3, 121056, Note_on_c, 1, 57, 80
3, 121056, Note_on_c, 1, 53, 80
3, 121148, Note_off_c, 1, 57, 100
3, 121148, Note_off_c, 1, 53, 100
3, 121152, Note_on_c, 1, 41, 80
3, 121244, Note_off_c, 1, 41, 100
3, 121248, Note_on_c, 1, 53, 80
3, 121248, Note_on_c, 1, 57, 80
3, 121340, Note_off_c, 1, 53, 100
3, 121340, Note_off_c, 1, 57, 100
3, 121344, Note_on_c, 1, 57, 80
3, 121344, Note_on_c, 1, 61, 80
3, 121436, Note_off_c, 1, 57, 100
3, 121436, Note_off_c, 1, 61, 100
3, 121440, Note_on_c, 1, 53, 80
3, 121440, Note_on_c, 1, 57, 80
3, 121532, Note_off_c, 1, 53, 100
3, 121532, Note_off_c, 1, 57, 100
3, 121536, Note_on_c, 1, 61, 80
3, 121536, Note_on_c, 1, 57, 80
3, 121628, Note_off_c, 1, 61, 100
3, 121628, Note_off_c, 1, 57, 100
3, 121632, Note_on_c, 1, 57, 80
3, 121632, Note_on_c, 1, 53, 80
3, 121724, Note_off_c, 1, 57, 100
3, 121724, Note_off_c, 1, 53, 100
3, 121728, Note_on_c, 1, 41, 80
3, 121820, Note_off_c, 1, 41, 100
3, 121824, Note_on_c, 1, 53, 80
3, 121824, Note_on_c, 1, 57, 80
3, 121916, Note_off_c, 1, 53, 100
3, 121916, Note_off_c, 1, 57, 100
3, 121920, Note_on_c, 1, 57, 80
3, 121920, Note_on_c, 1, 62, 80
3, 122012, Note_off_c, 1, 57, 100
3, 122012, Note_off_c, 1, 62, 100
3, 122016, Note_on_c, 1, 53, 80
3, 122016, Note_on_c, 1, 57, 80
3, 122108, Note_off_c, 1, 53, 100
3, 122108, Note_off_c, 1, 57, 100
3, 122112, Note_on_c, 1, 57, 80
3, 122112, Note_on_c, 1, 62, 80
3, 122204, Note_off_c, 1, 57, 100
3, 122204, Note_off_c, 1, 62, 100
3, 122208, Note_on_c, 1, 57, 80
3, 122208, Note_on_c, 1, 53, 80
3, 122300, Note_off_c, 1, 57, 100
3, 122300, Note_off_c, 1, 53, 100
3, 122304, Note_on_c, 1, 43, 80
3, 122396, Note_off_c, 1, 43, 100
3, 122400, Note_on_c, 1, 55, 80
3, 122400, Note_on_c, 1, 60, 80
3, 122492, Note_off_c, 1, 55, 100
3, 122492, Note_off_c, 1, 60, 100
3, 122496, Note_on_c, 1, 60, 80
3, 122496, Note_on_c, 1, 64, 80
3, 122588, Note_off_c, 1, 60, 100
3, 122588, Note_off_c, 1, 64, 100
3, 122592, Note_on_c, 1, 55, 80
3, 122592, Note_on_c, 1, 60, 80
3, 122684, Note_off_c, 1, 55, 100
3, 122684, Note_off_c, 1, 60, 100
3, 122688, Note_on_c, 1, 60, 80
3, 122688, Note_on_c, 1, 64, 80
3, 122780, Note_off_c, 1, 60, 100
3, 122780, Note_off_c, 1, 64, 100
3, 122784, Note_on_c, 1, 55, 80
3, 122784, Note_on_c, 1, 60, 80
3, 122876, Note_off_c, 1, 55, 100
3, 122876, Note_off_c, 1, 60, 100
3, 122880, Note_on_c, 1, 43, 80
3, 122972, Note_off_c, 1, 43, 100
3, 122976, Note_on_c, 1, 55, 80
3, 122976, Note_on_c, 1, 60, 80
3, 123068, Note_off_c, 1, 55, 100
3, 123068, Note_off_c, 1, 60, 100
3, 123072, Note_on_c, 1, 60, 80
3, 123072, Note_on_c, 1, 64, 80
3, 123164, Note_off_c, 1, 60, 100
3, 123164, Note_off_c, 1, 64, 100
3, 123168, Note_on_c, 1, 55, 80
3, 123168, Note_on_c, 1, 60, 80
3, 123260, Note_off_c, 1, 55, 100
3, 123260, Note_off_c, 1, 60, 100
3, 123264, Note_on_c, 1, 60, 80
3, 123264, Note_on_c, 1, 64, 80
3, 123356, Note_off_c, 1, 60, 100
3, 123356, Note_off_c, 1, 64, 100
3, 123360, Note_on_c, 1, 55, 80
3, 123360, Note_on_c, 1, 60, 80
3, 123452, Note_off_c, 1, 55, 100
3, 123452, Note_off_c, 1, 60, 100
3, 123456, Note_on_c, 1, 43, 80
3, 123548, Note_off_c, 1, 43, 100
3, 123552, Note_on_c, 1, 55, 80
3, 123552, Note_on_c, 1, 62, 80
3, 123644, Note_off_c, 1, 55, 100
3, 123644, Note_off_c, 1, 62, 100
3, 123648, Note_on_c, 1, 62, 80
3, 123648, Note_on_c, 1, 65, 80
3, 123740, Note_off_c, 1, 62, 100
3, 123740, Note_off_c, 1, 65, 100
3, 123744, Note_on_c, 1, 55, 80
3, 123744, Note_on_c, 1, 62, 80
3, 123836, Note_off_c, 1, 55, 100
3, 123836, Note_off_c, 1, 62, 100
3, 123840, Note_on_c, 1, 62, 80
3, 123840, Note_on_c, 1, 65, 80
3, 123932, Note_off_c, 1, 62, 100
3, 123932, Note_off_c, 1, 65, 100
3, 123936, Note_on_c, 1, 55, 80
3, 123936, Note_on_c, 1, 62, 80
3, 124028, Note_off_c, 1, 55, 100
3, 124028, Note_off_c, 1, 62, 100
3, 124032, Note_on_c, 1, 48, 80
3, 124124, Note_off_c, 1, 48, 100
3, 124128, Note_on_c, 1, 55, 80
3, 124220, Note_off_c, 1, 55, 100
3, 124224, Note_on_c, 1, 59, 80
3, 124316, Note_off_c, 1, 59, 100
3, 124320, Note_on_c, 1, 55, 80
3, 124412, Note_off_c, 1, 55, 100
3, 124416, Note_on_c, 1, 59, 80
3, 124508, Note_off_c, 1, 59, 100
3, 124512, Note_on_c, 1, 55, 80
3, 124604, Note_off_c, 1, 55, 100
3, 124608, Note_on_c, 1, 60, 80
3, 124608, Note_on_c, 1, 48, 80
3, 124700, Note_off_c, 1, 60, 100
3, 124700, Note_off_c, 1, 48, 100
3, 124704, Note_on_c, 1, 55, 80
3, 124796, Note_off_c, 1, 55, 100
3, 124800, Note_on_c, 1, 54, 80
3, 124892, Note_off_c, 1, 54, 100
3, 124896, Note_on_c, 1, 55, 80
3, 124988, Note_off_c, 1, 55, 100
3, 124992, Note_on_c, 1, 57, 80
3, 125084, Note_off_c, 1, 57, 100
3, 125088, Note_on_c, 1, 55, 80
3, 125180, Note_off_c, 1, 55, 100
3, 125184, Note_on_c, 1, 53, 80
3, 125276, Note_off_c, 1, 53, 100
3, 125280, Note_on_c, 1, 52, 80
3, 125372, Note_off_c, 1, 52, 100
3, 125376, Note_on_c, 1, 55, 80
3, 125468, Note_off_c, 1, 55, 100
3, 125472, Note_on_c, 1, 53, 80
3, 125564, Note_off_c, 1, 53, 100
3, 125568, Note_on_c, 1, 52, 80
3, 125660, Note_off_c, 1, 52, 100
3, 125664, Note_on_c, 1, 50, 80
3, 125756, Note_off_c, 1, 50, 100
3, 125760, Note_on_c, 1, 36, 80
3, 125808, Note_on_c, 1, 48, 80
3, 125852, Note_off_c, 1, 36, 100
3, 125856, Note_on_c, 1, 50, 80
3, 125900, Note_off_c, 1, 48, 100
3, 125904, Note_on_c, 1, 48, 80
3, 125948, Note_off_c, 1, 50, 100
3, 125952, Note_on_c, 1, 50, 80
3, 125996, Note_off_c, 1, 48, 100
3, 126000, Note_on_c, 1, 48, 80
3, 126044, Note_off_c, 1, 50, 100
3, 126048, Note_on_c, 1, 50, 80
3, 126092, Note_off_c, 1, 48, 100
3, 126096, Note_on_c, 1, 48, 80
3, 126140, Note_off_c, 1, 50, 100
3, 126144, Note_on_c, 1, 50, 80
3, 126188, Note_off_c, 1, 48, 100
3, 126192, Note_on_c, 1, 48, 80
3, 126236, Note_off_c, 1, 50, 100
3, 126240, Note_on_c, 1, 50, 80
3, 126284, Note_off_c, 1, 48, 100
3, 126288, Note_on_c, 1, 48, 80
3, 126332, Note_off_c, 1, 50, 100
3, 126336, Note_on_c, 1, 50, 80
3, 126380, Note_off_c, 1, 48, 100
3, 126384, Note_on_c, 1, 48, 80
3, 126428, Note_off_c, 1, 50, 100
3, 126432, Note_on_c, 1, 50, 80
3, 126476, Note_off_c, 1, 48, 100
3, 126480, Note_on_c, 1, 48, 80
3, 126524, Note_off_c, 1, 50, 100
3, 126528, Note_on_c, 1, 50, 80
3, 126572, Note_off_c, 1, 48, 100
3, 126576, Note_on_c, 1, 48, 80
3, 126620, Note_off_c, 1, 50, 100
3, 126624, Note_on_c, 1, 50, 80
3, 126668, Note_off_c, 1, 48, 100
3, 126672, Note_on_c, 1, 48, 80
3, 126716, Note_off_c, 1, 50, 100
3, 126720, Note_on_c, 1, 50, 80
3, 126764, Note_off_c, 1, 48, 100
3, 126768, Note_on_c, 1, 48, 80
3, 126812, Note_off_c, 1, 50, 100
3, 126816, Note_on_c, 1, 47, 80
3, 126860, Note_off_c, 1, 48, 100
3, 126864, Note_on_c, 1, 48, 80
3, 126908, Note_off_c, 1, 47, 100
3, 126908, Note_off_c, 1, 48, 100
3, 126912, Note_on_c, 1, 52, 80
3, 127436, Note_off_c, 1, 52, 100
3, 127440, Note_on_c, 1, 48, 80
3, 127484, Note_off_c, 1, 48, 100
3, 127488, Note_on_c, 1, 43, 80
3, 127580, Note_off_c, 1, 43, 100
3, 127584, Note_on_c, 1, 60, 80
3, 127584, Note_on_c, 1, 55, 80
3, 127676, Note_off_c, 1, 60, 100
3, 127676, Note_off_c, 1, 55, 100
3, 127680, Note_on_c, 1, 60, 80
3, 127680, Note_on_c, 1, 64, 80
3, 127772, Note_off_c, 1, 60, 100
3, 127772, Note_off_c, 1, 64, 100
3, 127776, Note_on_c, 1, 60, 80
3, 127776, Note_on_c, 1, 55, 80
3, 127868, Note_off_c, 1, 60, 100
3, 127868, Note_off_c, 1, 55, 100
3, 127872, Note_on_c, 1, 60, 80
3, 127872, Note_on_c, 1, 64, 80
3, 127964, Note_off_c, 1, 60, 100
3, 127964, Note_off_c, 1, 64, 100
3, 127968, Note_on_c, 1, 60, 80
3, 127968, Note_on_c, 1, 55, 80
3, 128060, Note_off_c, 1, 60, 100
3, 128060, Note_off_c, 1, 55, 100
3, 128064, Note_on_c, 1, 60, 80
3, 128064, Note_on_c, 1, 64, 80
3, 128156, Note_off_c, 1, 60, 100
3, 128156, Note_off_c, 1, 64, 100
3, 128160, Note_on_c, 1, 60, 80
3, 128160, Note_on_c, 1, 55, 80
3, 128252, Note_off_c, 1, 60, 100
3, 128252, Note_off_c, 1, 55, 100
3, 128256, Note_on_c, 1, 60, 80
3, 128256, Note_on_c, 1, 64, 80
3, 128348, Note_off_c, 1, 60, 100
3, 128348, Note_off_c, 1, 64, 100
3, 128352, Note_on_c, 1, 60, 80
3, 128352, Note_on_c, 1, 55, 80
3, 128444, Note_off_c, 1, 60, 100
3, 128444, Note_off_c, 1, 55, 100
3, 128448, Note_on_c, 1, 60, 80
3, 128448, Note_on_c, 1, 64, 80
3, 128540, Note_off_c, 1, 60, 100
3, 128540, Note_off_c, 1, 64, 100
3, 128544, Note_on_c, 1, 60, 80
3, 128544, Note_on_c, 1, 55, 80
3, 128636, Note_off_c, 1, 60, 100
3, 128636, Note_off_c, 1, 55, 100
3, 128640, Note_on_c, 1, 60, 80
3, 128640, Note_on_c, 1, 64, 80
3, 128732, Note_off_c, 1, 60, 100
3, 128732, Note_off_c, 1, 64, 100
3, 128736, Note_on_c, 1, 60, 80
3, 128736, Note_on_c, 1, 55, 80
3, 128828, Note_off_c, 1, 60, 100
3, 128828, Note_off_c, 1, 55, 100
3, 128832, Note_on_c, 1, 60, 80
3, 128832, Note_on_c, 1, 64, 80
3, 128924, Note_off_c, 1, 60, 100
3, 128924, Note_off_c, 1, 64, 100
3, 128928, Note_on_c, 1, 60, 80
3, 128928, Note_on_c, 1, 55, 80
3, 129020, Note_off_c, 1, 60, 100
3, 129020, Note_off_c, 1, 55, 100
3, 129024, Note_on_c, 1, 60, 80
3, 129024, Note_on_c, 1, 64, 80
3, 129116, Note_off_c, 1, 60, 100
3, 129116, Note_off_c, 1, 64, 100
3, 129120, Note_on_c, 1, 60, 80
3, 129120, Note_on_c, 1, 55, 80
3, 129212, Note_off_c, 1, 60, 100
3, 129212, Note_off_c, 1, 55, 100
3, 129216, Note_on_c, 1, 43, 80
3, 129264, Note_on_c, 1, 50, 80
3, 129308, Note_off_c, 1, 43, 100
3, 129312, Note_on_c, 1, 52, 80
3, 129356, Note_off_c, 1, 50, 100
3, 129360, Note_on_c, 1, 50, 80
3, 129404, Note_off_c, 1, 52, 100
3, 129408, Note_on_c, 1, 52, 80
3, 129452, Note_off_c, 1, 50, 100
3, 129456, Note_on_c, 1, 50, 80
3, 129500, Note_off_c, 1, 52, 100
3, 129504, Note_on_c, 1, 52, 80
3, 129548, Note_off_c, 1, 50, 100
3, 129552, Note_on_c, 1, 50, 80
3, 129596, Note_off_c, 1, 52, 100
3, 129600, Note_on_c, 1, 52, 80
3, 129644, Note_off_c, 1, 50, 100
3, 129648, Note_on_c, 1, 50, 80
3, 129692, Note_off_c, 1, 52, 100
3, 129696, Note_on_c, 1, 52, 80
3, 129740, Note_off_c, 1, 50, 100
3, 129744, Note_on_c, 1, 50, 80
3, 129788, Note_off_c, 1, 52, 100
3, 129792, Note_on_c, 1, 52, 80
3, 129836, Note_off_c, 1, 50, 100
3, 129840, Note_on_c, 1, 50, 80
3, 129884, Note_off_c, 1, 52, 100
3, 129888, Note_on_c, 1, 52, 80
3, 129932, Note_off_c, 1, 50, 100
3, 129936, Note_on_c, 1, 50, 80
3, 129980, Note_off_c, 1, 52, 100
3, 129984, Note_on_c, 1, 52, 80
3, 130028, Note_off_c, 1, 50, 100
3, 130032, Note_on_c, 1, 50, 80
3, 130076, Note_off_c, 1, 52, 100
3, 130080, Note_on_c, 1, 52, 80
3, 130124, Note_off_c, 1, 50, 100
3, 130128, Note_on_c, 1, 50, 80
3, 130172, Note_off_c, 1, 52, 100
3, 130176, Note_on_c, 1, 52, 80
3, 130220, Note_off_c, 1, 50, 100
3, 130224, Note_on_c, 1, 50, 80
3, 130268, Note_off_c, 1, 52, 100
3, 130272, Note_on_c, 1, 49, 80
3, 130316, Note_off_c, 1, 50, 100
3, 130320, Note_on_c, 1, 50, 80
3, 130364, Note_off_c, 1, 49, 100
3, 130364, Note_off_c, 1, 50, 100
3, 130368, Note_on_c, 1, 53, 80
3, 130892, Note_off_c, 1, 53, 100
3, 130896, Note_on_c, 1, 50, 80
3, 130940, Note_off_c, 1, 50, 100
3, 130944, Note_on_c, 1, 43, 70
3, 131036, Note_off_c, 1, 43, 100
3, 131040, Note_on_c, 1, 55, 70
3, 131040, Note_on_c, 1, 62, 70
3, 131132, Note_off_c, 1, 55, 100
3, 131132, Note_off_c, 1, 62, 100
3, 131136, Note_on_c, 1, 62, 70
3, 131136, Note_on_c, 1, 65, 70
3, 131228, Note_off_c, 1, 62, 100
3, 131228, Note_off_c, 1, 65, 100
3, 131232, Note_on_c, 1, 62, 70
3, 131232, Note_on_c, 1, 55, 70
3, 131324, Note_off_c, 1, 62, 100
3, 131324, Note_off_c, 1, 55, 100
3, 131328, Note_on_c, 1, 62, 70
3, 131328, Note_on_c, 1, 65, 70
3, 131420, Note_off_c, 1, 62, 100
3, 131420, Note_off_c, 1, 65, 100
3, 131424, Note_on_c, 1, 62, 70
3, 131424, Note_on_c, 1, 55, 70
3, 131516, Note_off_c, 1, 62, 100
3, 131516, Note_off_c, 1, 55, 100
3, 131520, Note_on_c, 1, 62, 70
3, 131520, Note_on_c, 1, 65, 70
3, 131612, Note_off_c, 1, 62, 100
3, 131612, Note_off_c, 1, 65, 100
3, 131616, Note_on_c, 1, 62, 70
3, 131616, Note_on_c, 1, 55, 70
3, 131708, Note_off_c, 1, 62, 100
3, 131708, Note_off_c, 1, 55, 100
3, 131712, Note_on_c, 1, 62, 70
3, 131712, Note_on_c, 1, 65, 70
3, 131804, Note_off_c, 1, 62, 100
3, 131804, Note_off_c, 1, 65, 100
3, 131808, Note_on_c, 1, 62, 70
3, 131808, Note_on_c, 1, 55, 70
3, 131900, Note_off_c, 1, 62, 100
3, 131900, Note_off_c, 1, 55, 100
3, 131904, Note_on_c, 1, 62, 70
3, 131904, Note_on_c, 1, 65, 70
3, 131996, Note_off_c, 1, 62, 100
3, 131996, Note_off_c, 1, 65, 100
3, 132000, Note_on_c, 1, 62, 70
3, 132000, Note_on_c, 1, 55, 70
3, 132092, Note_off_c, 1, 62, 100
3, 132092, Note_off_c, 1, 55, 100
3, 132096, Note_on_c, 1, 62, 70
3, 132096, Note_on_c, 1, 65, 70
3, 132188, Note_off_c, 1, 62, 100
3, 132188, Note_off_c, 1, 65, 100
3, 132192, Note_on_c, 1, 62, 70
3, 132192, Note_on_c, 1, 55, 70
3, 132284, Note_off_c, 1, 62, 100
3, 132284, Note_off_c, 1, 55, 100
3, 132288, Note_on_c, 1, 62, 70
3, 132288, Note_on_c, 1, 65, 70
3, 132380, Note_off_c, 1, 62, 100
3, 132380, Note_off_c, 1, 65, 100
3, 132384, Note_on_c, 1, 62, 70
3, 132384, Note_on_c, 1, 55, 70
3, 132476, Note_off_c, 1, 62, 100
3, 132476, Note_off_c, 1, 55, 100
3, 132480, Note_on_c, 1, 62, 70
3, 132480, Note_on_c, 1, 59, 70
3, 132572, Note_off_c, 1, 62, 100
3, 132572, Note_off_c, 1, 59, 100
3, 132576, Note_on_c, 1, 55, 70
3, 132576, Note_on_c, 1, 59, 70
3, 132668, Note_off_c, 1, 55, 100
3, 132668, Note_off_c, 1, 59, 100
3, 132672, Note_on_c, 1, 48, 70
3, 132764, Note_off_c, 1, 48, 100
3, 132768, Note_on_c, 1, 55, 70
3, 132768, Note_on_c, 1, 60, 70
3, 132860, Note_off_c, 1, 55, 100
3, 132860, Note_off_c, 1, 60, 100
3, 132864, Note_on_c, 1, 60, 70
3, 132864, Note_on_c, 1, 64, 70
3, 132956, Note_off_c, 1, 60, 100
3, 132956, Note_off_c, 1, 64, 100
3, 132960, Note_on_c, 1, 55, 70
3, 132960, Note_on_c, 1, 60, 70
3, 133052, Note_off_c, 1, 55, 100
3, 133052, Note_off_c, 1, 60, 100
3, 133056, Note_on_c, 1, 64, 70
3, 133056, Note_on_c, 1, 60, 70
3, 133148, Note_off_c, 1, 64, 100
3, 133148, Note_off_c, 1, 60, 100
3, 133152, Note_on_c, 1, 60, 70
3, 133152, Note_on_c, 1, 55, 70
3, 133244, Note_off_c, 1, 60, 100
3, 133244, Note_off_c, 1, 55, 100
3, 133248, Note_on_c, 1, 45, 70
3, 133340, Note_off_c, 1, 45, 100
3, 133344, Note_on_c, 1, 60, 70
3, 133344, Note_on_c, 1, 57, 70
3, 133436, Note_off_c, 1, 60, 100
3, 133436, Note_off_c, 1, 57, 100
3, 133440, Note_on_c, 1, 60, 70
3, 133440, Note_on_c, 1, 64, 70
3, 133532, Note_off_c, 1, 60, 100
3, 133532, Note_off_c, 1, 64, 100
3, 133536, Note_on_c, 1, 60, 70
3, 133536, Note_on_c, 1, 57, 70
3, 133628, Note_off_c, 1, 60, 100
3, 133628, Note_off_c, 1, 57, 100
3, 133632, Note_on_c, 1, 64, 70
3, 133632, Note_on_c, 1, 60, 70
3, 133724, Note_off_c, 1, 64, 100
3, 133724, Note_off_c, 1, 60, 100
3, 133728, Note_on_c, 1, 60, 70
3, 133728, Note_on_c, 1, 57, 70
3, 133820, Note_off_c, 1, 60, 100
3, 133820, Note_off_c, 1, 57, 100
3, 133824, Note_on_c, 1, 43, 70
3, 133916, Note_off_c, 1, 43, 100
3, 133920, Note_on_c, 1, 55, 70
3, 133920, Note_on_c, 1, 60, 70
3, 134012, Note_off_c, 1, 55, 100
3, 134012, Note_off_c, 1, 60, 100
3, 134016, Note_on_c, 1, 60, 70
3, 134016, Note_on_c, 1, 64, 70
3, 134108, Note_off_c, 1, 60, 100
3, 134108, Note_off_c, 1, 64, 100
3, 134112, Note_on_c, 1, 55, 70
3, 134112, Note_on_c, 1, 60, 70
3, 134204, Note_off_c, 1, 55, 100
3, 134204, Note_off_c, 1, 60, 100
3, 134208, Note_on_c, 1, 64, 70
3, 134208, Note_on_c, 1, 60, 70
3, 134300, Note_off_c, 1, 64, 100
3, 134300, Note_off_c, 1, 60, 100
3, 134304, Note_on_c, 1, 60, 70
3, 134304, Note_on_c, 1, 55, 70
3, 134396, Note_off_c, 1, 60, 100
3, 134396, Note_off_c, 1, 55, 100
3, 134400, Note_on_c, 1, 42, 70
3, 134492, Note_off_c, 1, 42, 100
3, 134496, Note_on_c, 1, 57, 70
3, 134496, Note_on_c, 1, 60, 70
3, 134588, Note_off_c, 1, 57, 100
3, 134588, Note_off_c, 1, 60, 100
3, 134592, Note_on_c, 1, 60, 70
3, 134592, Note_on_c, 1, 62, 70
3, 134684, Note_off_c, 1, 60, 100
3, 134684, Note_off_c, 1, 62, 100
3, 134688, Note_on_c, 1, 60, 70
3, 134688, Note_on_c, 1, 57, 70
3, 134780, Note_off_c, 1, 60, 100
3, 134780, Note_off_c, 1, 57, 100
3, 134784, Note_on_c, 1, 60, 70
3, 134784, Note_on_c, 1, 62, 70
3, 134876, Note_off_c, 1, 60, 100
3, 134876, Note_off_c, 1, 62, 100
3, 134880, Note_on_c, 1, 60, 70
3, 134880, Note_on_c, 1, 57, 70
3, 134972, Note_off_c, 1, 60, 100
3, 134972, Note_off_c, 1, 57, 100
3, 134976, Note_on_c, 1, 42, 70
3, 135068, Note_off_c, 1, 42, 100
3, 135072, Note_on_c, 1, 57, 70
3, 135072, Note_on_c, 1, 60, 70
3, 135164, Note_off_c, 1, 57, 100
3, 135164, Note_off_c, 1, 60, 100
3, 135168, Note_on_c, 1, 60, 70
3, 135168, Note_on_c, 1, 62, 70
3, 135260, Note_off_c, 1, 60, 100
3, 135260, Note_off_c, 1, 62, 100
3, 135264, Note_on_c, 1, 60, 70
3, 135264, Note_on_c, 1, 57, 70
3, 135356, Note_off_c, 1, 60, 100
3, 135356, Note_off_c, 1, 57, 100
3, 135360, Note_on_c, 1, 60, 70
3, 135360, Note_on_c, 1, 62, 70
3, 135452, Note_off_c, 1, 60, 100
3, 135452, Note_off_c, 1, 62, 100
3, 135456, Note_on_c, 1, 60, 70
3, 135456, Note_on_c, 1, 57, 70
3, 135548, Note_off_c, 1, 60, 100
3, 135548, Note_off_c, 1, 57, 100
3, 135552, Note_on_c, 1, 43, 70
3, 135644, Note_off_c, 1, 43, 100
3, 135648, Note_on_c, 1, 55, 70
3, 135648, Note_on_c, 1, 59, 70
3, 135740, Note_off_c, 1, 55, 100
3, 135740, Note_off_c, 1, 59, 100
3, 135744, Note_on_c, 1, 59, 70
3, 135744, Note_on_c, 1, 62, 70
3, 135836, Note_off_c, 1, 59, 100
3, 135836, Note_off_c, 1, 62, 100
3, 135840, Note_on_c, 1, 55, 70
3, 135840, Note_on_c, 1, 59, 70
3, 135932, Note_off_c, 1, 55, 100
3, 135932, Note_off_c, 1, 59, 100
3, 135936, Note_on_c, 1, 59, 70
3, 135936, Note_on_c, 1, 62, 70
3, 136028, Note_off_c, 1, 59, 100
3, 136028, Note_off_c, 1, 62, 100
3, 136032, Note_on_c, 1, 55, 70
3, 136032, Note_on_c, 1, 59, 70
3, 136124, Note_off_c, 1, 55, 100
3, 136124, Note_off_c, 1, 59, 100
3, 136128, Note_on_c, 1, 36, 70
3, 136220, Note_off_c, 1, 36, 100
3, 136224, Note_on_c, 1, 48, 70
3, 136224, Note_on_c, 1, 52, 70
3, 136316, Note_off_c, 1, 48, 100
3, 136316, Note_off_c, 1, 52, 100
3, 136320, Note_on_c, 1, 57, 70
3, 136320, Note_on_c, 1, 52, 70
3, 136412, Note_off_c, 1, 57, 100
3, 136412, Note_off_c, 1, 52, 100
3, 136416, Note_on_c, 1, 52, 70
3, 136416, Note_on_c, 1, 48, 70
3, 136508, Note_off_c, 1, 52, 100
3, 136508, Note_off_c, 1, 48, 100
3, 136512, Note_on_c, 1, 57, 70
3, 136512, Note_on_c, 1, 52, 70
3, 136604, Note_off_c, 1, 57, 100
3, 136604, Note_off_c, 1, 52, 100
3, 136608, Note_on_c, 1, 52, 70
3, 136608, Note_on_c, 1, 48, 70
3, 136700, Note_off_c, 1, 52, 100
3, 136700, Note_off_c, 1, 48, 100
3, 136704, Note_on_c, 1, 38, 70
3, 136796, Note_off_c, 1, 38, 100
3, 136800, Note_on_c, 1, 55, 70
3, 136800, Note_on_c, 1, 50, 70
3, 136892, Note_off_c, 1, 55, 100
3, 136892, Note_off_c, 1, 50, 100
3, 136896, Note_on_c, 1, 59, 70
3, 136896, Note_on_c, 1, 55, 70
3, 136988, Note_off_c, 1, 59, 100
3, 136988, Note_off_c, 1, 55, 100
3, 136992, Note_on_c, 1, 55, 70
3, 136992, Note_on_c, 1, 50, 70
3, 137084, Note_off_c, 1, 55, 100
3, 137084, Note_off_c, 1, 50, 100
3, 137088, Note_on_c, 1, 59, 70
3, 137088, Note_on_c, 1, 55, 70
3, 137180, Note_off_c, 1, 59, 100
3, 137180, Note_off_c, 1, 55, 100
3, 137184, Note_on_c, 1, 55, 70
3, 137184, Note_on_c, 1, 50, 70
3, 137276, Note_off_c, 1, 55, 100
3, 137276, Note_off_c, 1, 50, 100
3, 137280, Note_on_c, 1, 38, 70
3, 137372, Note_off_c, 1, 38, 100
3, 137376, Note_on_c, 1, 57, 70
3, 137376, Note_on_c, 1, 50, 70
3, 137468, Note_off_c, 1, 57, 100
3, 137468, Note_off_c, 1, 50, 100
3, 137472, Note_on_c, 1, 57, 70
3, 137472, Note_on_c, 1, 60, 70
3, 137564, Note_off_c, 1, 57, 100
3, 137564, Note_off_c, 1, 60, 100
3, 137568, Note_on_c, 1, 57, 70
3, 137568, Note_on_c, 1, 50, 70
3, 137660, Note_off_c, 1, 57, 100
3, 137660, Note_off_c, 1, 50, 100
3, 137664, Note_on_c, 1, 60, 70
3, 137664, Note_on_c, 1, 57, 70
3, 137756, Note_off_c, 1, 60, 100
3, 137756, Note_off_c, 1, 57, 100
3, 137760, Note_on_c, 1, 57, 70
3, 137760, Note_on_c, 1, 50, 70
3, 137852, Note_off_c, 1, 57, 100
3, 137852, Note_off_c, 1, 50, 100
3, 137856, Note_on_c, 1, 43, 80
3, 137948, Note_off_c, 1, 43, 100
3, 137952, Note_on_c, 1, 50, 80
3, 138044, Note_off_c, 1, 50, 100
3, 138048, Note_on_c, 1, 54, 80
3, 138140, Note_off_c, 1, 54, 100
3, 138144, Note_on_c, 1, 50, 80
3, 138236, Note_off_c, 1, 50, 100
3, 138240, Note_on_c, 1, 54, 80
3, 138332, Note_off_c, 1, 54, 100
3, 138336, Note_on_c, 1, 50, 80
3, 138428, Note_off_c, 1, 50, 100
3, 138432, Note_on_c, 1, 55, 80
3, 138432, Note_on_c, 1, 43, 80
3, 138620, Note_off_c, 1, 55, 100
3, 138620, Note_off_c, 1, 43, 100
3, 139968, Note_on_c, 1, 63, 80
3, 140156, Note_off_c, 1, 63, 100
3, 140160, Note_on_c, 1, 63, 80
3, 140348, Note_off_c, 1, 63, 100
3, 140352, Note_on_c, 1, 62, 80
3, 140540, Note_off_c, 1, 62, 100
3, 140544, Note_on_c, 1, 63, 80
3, 140732, Note_off_c, 1, 63, 100
3, 140736, Note_on_c, 1, 63, 80
3, 140924, Note_off_c, 1, 63, 100
3, 140928, Note_on_c, 1, 62, 80
3, 141116, Note_off_c, 1, 62, 100
3, 141120, Note_on_c, 1, 63, 80
3, 141308, Note_off_c, 1, 63, 100
3, 141312, Note_on_c, 1, 64, 80
3, 141312, Note_on_c, 1, 57, 80
3, 141500, Note_off_c, 1, 64, 100
3, 141504, Note_on_c, 1, 63, 80
3, 141692, Note_off_c, 1, 63, 100
3, 141696, Note_on_c, 1, 64, 80
3, 141884, Note_off_c, 1, 64, 100
3, 141888, Note_on_c, 1, 64, 80
3, 142076, Note_off_c, 1, 64, 100
3, 142080, Note_on_c, 1, 63, 80
3, 142268, Note_off_c, 1, 63, 100
3, 142272, Note_on_c, 1, 64, 80
3, 142460, Note_off_c, 1, 57, 100
3, 142460, Note_off_c, 1, 64, 100
3, 142464, Note_on_c, 1, 64, 80
3, 142464, Note_on_c, 1, 57, 80
3, 142652, Note_off_c, 1, 64, 100
3, 142656, Note_on_c, 1, 65, 80
3, 142844, Note_off_c, 1, 65, 100
3, 142848, Note_on_c, 1, 61, 80
3, 143036, Note_off_c, 1, 57, 100
3, 143036, Note_off_c, 1, 61, 100
3, 143040, Note_on_c, 1, 61, 80
3, 143040, Note_on_c, 1, 50, 80
3, 143612, Note_off_c, 1, 61, 100
3, 143616, Note_on_c, 1, 62, 80
3, 143804, Note_off_c, 1, 50, 100
3, 143804, Note_off_c, 1, 62, 100
3, 145152, Note_on_c, 1, 61, 80
3, 145340, Note_off_c, 1, 61, 100
3, 145344, Note_on_c, 1, 61, 80
3, 145532, Note_off_c, 1, 61, 100
3, 145536, Note_on_c, 1, 60, 80
3, 145724, Note_off_c, 1, 60, 100
3, 145728, Note_on_c, 1, 61, 80
3, 145916, Note_off_c, 1, 61, 100
3, 145920, Note_on_c, 1, 61, 80
3, 146108, Note_off_c, 1, 61, 100
3, 146112, Note_on_c, 1, 60, 80
3, 146300, Note_off_c, 1, 60, 100
3, 146304, Note_on_c, 1, 61, 80
3, 146492, Note_off_c, 1, 61, 100
3, 146496, Note_on_c, 1, 55, 80
3, 146496, Note_on_c, 1, 62, 80
3, 146684, Note_off_c, 1, 62, 100
3, 146688, Note_on_c, 1, 61, 80
3, 146876, Note_off_c, 1, 61, 100
3, 146880, Note_on_c, 1, 62, 80
3, 147068, Note_off_c, 1, 62, 100
3, 147072, Note_on_c, 1, 62, 80
3, 147260, Note_off_c, 1, 62, 100
3, 147264, Note_on_c, 1, 61, 80
3, 147452, Note_off_c, 1, 61, 100
3, 147456, Note_on_c, 1, 62, 80
3, 147644, Note_off_c, 1, 55, 100
3, 147644, Note_off_c, 1, 62, 100
3, 147648, Note_on_c, 1, 55, 80
3, 147648, Note_on_c, 1, 62, 80
3, 147836, Note_off_c, 1, 62, 100
3, 147840, Note_on_c, 1, 64, 80
3, 148028, Note_off_c, 1, 64, 100
3, 148032, Note_on_c, 1, 59, 80
3, 148220, Note_off_c, 1, 55, 100
3, 148220, Note_off_c, 1, 59, 100
3, 148224, Note_on_c, 1, 60, 80
3, 148796, Note_off_c, 1, 60, 100
3, 148800, Note_on_c, 1, 53, 80
3, 149372, Note_off_c, 1, 53, 100
3, 149376, Note_on_c, 1, 54, 80
3, 149948, Note_off_c, 1, 54, 100
3, 149952, Note_on_c, 1, 43, 80
3, 150144, Note_on_c, 1, 55, 80
3, 150332, Note_off_c, 1, 55, 100
3, 150336, Note_on_c, 1, 55, 80
3, 150524, Note_off_c, 1, 55, 100
3, 150528, Note_on_c, 1, 55, 80
3, 150716, Note_off_c, 1, 55, 100
3, 150720, Note_on_c, 1, 55, 80
3, 150908, Note_off_c, 1, 55, 100
3, 150912, Note_on_c, 1, 55, 80
3, 151100, Note_off_c, 1, 55, 100
3, 151104, Note_on_c, 1, 55, 80
3, 151292, Note_off_c, 1, 55, 100
3, 151296, Note_on_c, 1, 55, 80
3, 151484, Note_off_c, 1, 55, 100
3, 151488, Note_on_c, 1, 55, 80
3, 151676, Note_off_c, 1, 43, 100
3, 151676, Note_off_c, 1, 55, 100
3, 151680, Note_on_c, 1, 43, 80
3, 151872, Note_on_c, 1, 55, 80
3, 152060, Note_off_c, 1, 55, 100
3, 152064, Note_on_c, 1, 55, 80
3, 152252, Note_off_c, 1, 55, 100
3, 152256, Note_on_c, 1, 55, 80
3, 152444, Note_off_c, 1, 55, 100
3, 152448, Note_on_c, 1, 55, 80
3, 152636, Note_off_c, 1, 55, 100
3, 152640, Note_on_c, 1, 55, 80
3, 152828, Note_off_c, 1, 55, 100
3, 152832, Note_on_c, 1, 55, 80
3, 153020, Note_off_c, 1, 55, 100
3, 153024, Note_on_c, 1, 55, 80
3, 153212, Note_off_c, 1, 55, 100
3, 153216, Note_on_c, 1, 55, 80
3, 153404, Note_off_c, 1, 43, 100
3, 153404, Note_off_c, 1, 55, 100
3, 153408, Note_on_c, 1, 43, 80
3, 153504, Note_on_c, 1, 55, 80
3, 153696, Note_on_c, 1, 47, 80
3, 153788, Note_off_c, 1, 47, 100
3, 153792, Note_on_c, 1, 48, 80
3, 153884, Note_off_c, 1, 48, 100
3, 153888, Note_on_c, 1, 51, 80
3, 153980, Note_off_c, 1, 43, 100
3, 153980, Note_off_c, 1, 55, 100
3, 153980, Note_off_c, 1, 51, 100
3, 153984, Note_on_c, 1, 50, 80
3, 153984, Note_on_c, 1, 43, 80
3, 154076, Note_off_c, 1, 43, 100
3, 154080, Note_on_c, 1, 55, 80
3, 154172, Note_off_c, 1, 50, 100
3, 154272, Note_on_c, 1, 47, 80
3, 154364, Note_off_c, 1, 47, 100
3, 154368, Note_on_c, 1, 48, 80
3, 154460, Note_off_c, 1, 48, 100
3, 154464, Note_on_c, 1, 45, 80
3, 154556, Note_off_c, 1, 55, 100
3, 154556, Note_off_c, 1, 45, 100
3, 154560, Note_on_c, 1, 43, 80
3, 154656, Note_on_c, 1, 55, 80
3, 154848, Note_on_c, 1, 47, 80
3, 154940, Note_off_c, 1, 47, 100
3, 154944, Note_on_c, 1, 48, 80
3, 155036, Note_off_c, 1, 48, 100
3, 155040, Note_on_c, 1, 51, 80
3, 155132, Note_off_c, 1, 43, 100
3, 155132, Note_off_c, 1, 55, 100
3, 155132, Note_off_c, 1, 51, 100
3, 155136, Note_on_c, 1, 55, 80
3, 155136, Note_on_c, 1, 50, 80
3, 155136, Note_on_c, 1, 43, 80
3, 156284, Note_off_c, 1, 43, 100
3, 156284, Note_off_c, 1, 50, 100
3, 156284, Note_off_c, 1, 55, 100
3, 159936, Note_on_c, 1, 48, 70
3, 159936, Note_on_c, 1, 52, 70
3, 160028, Note_off_c, 1, 48, 100
3, 160028, Note_off_c, 1, 52, 100
3, 160032, Note_on_c, 1, 55, 70
3, 160032, Note_on_c, 1, 52, 70
3, 160124, Note_off_c, 1, 55, 100
3, 160124, Note_off_c, 1, 52, 100
3, 160128, Note_on_c, 1, 60, 70
3, 160128, Note_on_c, 1, 55, 70
3, 160220, Note_off_c, 1, 60, 100
3, 160220, Note_off_c, 1, 55, 100
3, 160224, Note_on_c, 1, 55, 70
3, 160224, Note_on_c, 1, 52, 70
3, 160316, Note_off_c, 1, 55, 100
3, 160316, Note_off_c, 1, 52, 100
3, 160320, Note_on_c, 1, 52, 70
3, 160320, Note_on_c, 1, 48, 70
3, 160412, Note_off_c, 1, 52, 100
3, 160412, Note_off_c, 1, 48, 100
3, 160416, Note_on_c, 1, 55, 70
3, 160416, Note_on_c, 1, 52, 70
3, 160508, Note_off_c, 1, 55, 100
3, 160508, Note_off_c, 1, 52, 100
3, 160512, Note_on_c, 1, 48, 70
3, 160512, Note_on_c, 1, 52, 70
3, 160604, Note_off_c, 1, 48, 100
3, 160604, Note_off_c, 1, 52, 100
3, 160608, Note_on_c, 1, 55, 70
3, 160608, Note_on_c, 1, 52, 70
3, 160700, Note_off_c, 1, 55, 100
3, 160700, Note_off_c, 1, 52, 100
3, 160704, Note_on_c, 1, 60, 70
3, 160704, Note_on_c, 1, 55, 70
3, 160796, Note_off_c, 1, 60, 100
3, 160796, Note_off_c, 1, 55, 100
3, 160800, Note_on_c, 1, 55, 70
3, 160800, Note_on_c, 1, 52, 70
3, 160892, Note_off_c, 1, 55, 100
3, 160892, Note_off_c, 1, 52, 100
3, 160896, Note_on_c, 1, 52, 70
3, 160896, Note_on_c, 1, 48, 70
3, 160988, Note_off_c, 1, 52, 100
3, 160988, Note_off_c, 1, 48, 100
3, 160992, Note_on_c, 1, 55, 70
3, 160992, Note_on_c, 1, 52, 70
3, 161084, Note_off_c, 1, 55, 100
3, 161084, Note_off_c, 1, 52, 100
3, 161088, Note_on_c, 1, 48, 70
3, 161088, Note_on_c, 1, 52, 70
3, 161180, Note_off_c, 1, 48, 100
3, 161180, Note_off_c, 1, 52, 100
3, 161184, Note_on_c, 1, 55, 70
3, 161184, Note_on_c, 1, 52, 70
3, 161276, Note_off_c, 1, 55, 100
3, 161276, Note_off_c, 1, 52, 100
3, 161280, Note_on_c, 1, 60, 70
3, 161280, Note_on_c, 1, 55, 70
3, 161372, Note_off_c, 1, 60, 100
3, 161372, Note_off_c, 1, 55, 100
3, 161376, Note_on_c, 1, 55, 70
3, 161376, Note_on_c, 1, 52, 70
3, 161468, Note_off_c, 1, 55, 100
3, 161468, Note_off_c, 1, 52, 100
3, 161472, Note_on_c, 1, 52, 70
3, 161472, Note_on_c, 1, 48, 70
3, 161564, Note_off_c, 1, 52, 100
3, 161564, Note_off_c, 1, 48, 100
3, 161568, Note_on_c, 1, 55, 70
3, 161568, Note_on_c, 1, 52, 70
3, 161660, Note_off_c, 1, 55, 100
3, 161660, Note_off_c, 1, 52, 100
3, 161664, Note_on_c, 1, 48, 70
3, 161664, Note_on_c, 1, 52, 70
3, 161756, Note_off_c, 1, 48, 100
3, 161756, Note_off_c, 1, 52, 100
3, 161760, Note_on_c, 1, 55, 70
3, 161760, Note_on_c, 1, 52, 70
3, 161852, Note_off_c, 1, 55, 100
3, 161852, Note_off_c, 1, 52, 100
3, 161856, Note_on_c, 1, 60, 70
3, 161856, Note_on_c, 1, 55, 70
3, 161948, Note_off_c, 1, 60, 100
3, 161948, Note_off_c, 1, 55, 100
3, 161952, Note_on_c, 1, 55, 70
3, 161952, Note_on_c, 1, 52, 70
3, 162044, Note_off_c, 1, 55, 100
3, 162044, Note_off_c, 1, 52, 100
3, 162048, Note_on_c, 1, 52, 70
3, 162048, Note_on_c, 1, 48, 70
3, 162140, Note_off_c, 1, 52, 100
3, 162140, Note_off_c, 1, 48, 100
3, 162144, Note_on_c, 1, 55, 70
3, 162144, Note_on_c, 1, 52, 70
3, 162236, Note_off_c, 1, 55, 100
3, 162236, Note_off_c, 1, 52, 100
3, 162240, Note_on_c, 1, 48, 70
3, 162240, Note_on_c, 1, 52, 70
3, 162332, Note_off_c, 1, 48, 100
3, 162332, Note_off_c, 1, 52, 100
3, 162336, Note_on_c, 1, 55, 70
3, 162336, Note_on_c, 1, 52, 70
3, 162428, Note_off_c, 1, 55, 100
3, 162428, Note_off_c, 1, 52, 100
3, 162432, Note_on_c, 1, 60, 70
3, 162432, Note_on_c, 1, 55, 70
3, 162524, Note_off_c, 1, 60, 100
3, 162524, Note_off_c, 1, 55, 100
3, 162528, Note_on_c, 1, 55, 70
3, 162528, Note_on_c, 1, 52, 70
3, 162620, Note_off_c, 1, 55, 100
3, 162620, Note_off_c, 1, 52, 100
3, 162624, Note_on_c, 1, 52, 70
3, 162624, Note_on_c, 1, 48, 70
3, 162716, Note_off_c, 1, 52, 100
3, 162716, Note_off_c, 1, 48, 100
3, 162720, Note_on_c, 1, 55, 70
3, 162720, Note_on_c, 1, 52, 70
3, 162812, Note_off_c, 1, 55, 100
3, 162812, Note_off_c, 1, 52, 100
3, 162816, Note_on_c, 1, 48, 70
3, 162816, Note_on_c, 1, 52, 70
3, 162908, Note_off_c, 1, 48, 100
3, 162908, Note_off_c, 1, 52, 100
3, 162912, Note_on_c, 1, 55, 70
3, 162912, Note_on_c, 1, 52, 70
3, 163004, Note_off_c, 1, 55, 100
3, 163004, Note_off_c, 1, 52, 100
3, 163008, Note_on_c, 1, 60, 70
3, 163008, Note_on_c, 1, 55, 70
3, 163100, Note_off_c, 1, 60, 100
3, 163100, Note_off_c, 1, 55, 100
3, 163104, Note_on_c, 1, 55, 70
3, 163104, Note_on_c, 1, 52, 70
3, 163196, Note_off_c, 1, 55, 100
3, 163196, Note_off_c, 1, 52, 100
3, 163200, Note_on_c, 1, 52, 70
3, 163200, Note_on_c, 1, 48, 70
3, 163292, Note_off_c, 1, 52, 100
3, 163292, Note_off_c, 1, 48, 100
3, 163296, Note_on_c, 1, 55, 70
3, 163296, Note_on_c, 1, 52, 70
3, 163388, Note_off_c, 1, 55, 100
3, 163388, Note_off_c, 1, 52, 100
3, 163392, Note_on_c, 1, 53, 70
3, 163392, Note_on_c, 1, 47, 70
3, 163484, Note_off_c, 1, 53, 100
3, 163484, Note_off_c, 1, 47, 100
3, 163488, Note_on_c, 1, 55, 70
3, 163488, Note_on_c, 1, 53, 70
3, 163580, Note_off_c, 1, 55, 100
3, 163580, Note_off_c, 1, 53, 100
3, 163584, Note_on_c, 1, 55, 70
3, 163584, Note_on_c, 1, 62, 70
3, 163676, Note_off_c, 1, 55, 100
3, 163676, Note_off_c, 1, 62, 100
3, 163680, Note_on_c, 1, 55, 70
3, 163680, Note_on_c, 1, 53, 70
3, 163772, Note_off_c, 1, 55, 100
3, 163772, Note_off_c, 1, 53, 100
3, 163776, Note_on_c, 1, 53, 70
3, 163776, Note_on_c, 1, 47, 70
3, 163868, Note_off_c, 1, 53, 100
3, 163868, Note_off_c, 1, 47, 100
3, 163872, Note_on_c, 1, 55, 70
3, 163872, Note_on_c, 1, 53, 70
3, 163964, Note_off_c, 1, 55, 100
3, 163964, Note_off_c, 1, 53, 100
3, 163968, Note_on_c, 1, 53, 70
3, 163968, Note_on_c, 1, 47, 70
3, 164060, Note_off_c, 1, 53, 100
3, 164060, Note_off_c, 1, 47, 100
3, 164064, Note_on_c, 1, 55, 70
3, 164064, Note_on_c, 1, 53, 70
3, 164156, Note_off_c, 1, 55, 100
3, 164156, Note_off_c, 1, 53, 100
3, 164160, Note_on_c, 1, 55, 70
3, 164160, Note_on_c, 1, 62, 70
3, 164252, Note_off_c, 1, 55, 100
3, 164252, Note_off_c, 1, 62, 100
3, 164256, Note_on_c, 1, 55, 70
3, 164256, Note_on_c, 1, 53, 70
3, 164348, Note_off_c, 1, 55, 100
3, 164348, Note_off_c, 1, 53, 100
3, 164352, Note_on_c, 1, 53, 70
3, 164352, Note_on_c, 1, 47, 70
3, 164444, Note_off_c, 1, 53, 100
3, 164444, Note_off_c, 1, 47, 100
3, 164448, Note_on_c, 1, 55, 70
3, 164448, Note_on_c, 1, 53, 70
3, 164540, Note_off_c, 1, 55, 100
3, 164540, Note_off_c, 1, 53, 100
3, 164544, Note_on_c, 1, 53, 70
3, 164544, Note_on_c, 1, 47, 70
3, 164636, Note_off_c, 1, 53, 100
3, 164636, Note_off_c, 1, 47, 100
3, 164640, Note_on_c, 1, 55, 70
3, 164640, Note_on_c, 1, 53, 70
3, 164732, Note_off_c, 1, 55, 100
3, 164732, Note_off_c, 1, 53, 100
3, 164736, Note_on_c, 1, 55, 70
3, 164736, Note_on_c, 1, 62, 70
3, 164828, Note_off_c, 1, 55, 100
3, 164828, Note_off_c, 1, 62, 100
3, 164832, Note_on_c, 1, 55, 70
3, 164832, Note_on_c, 1, 53, 70
3, 164924, Note_off_c, 1, 55, 100
3, 164924, Note_off_c, 1, 53, 100
3, 164928, Note_on_c, 1, 53, 70
3, 164928, Note_on_c, 1, 47, 70
3, 165020, Note_off_c, 1, 53, 100
3, 165020, Note_off_c, 1, 47, 100
3, 165024, Note_on_c, 1, 55, 70
3, 165024, Note_on_c, 1, 53, 70
3, 165116, Note_off_c, 1, 55, 100
3, 165116, Note_off_c, 1, 53, 100
3, 165120, Note_on_c, 1, 53, 70
3, 165120, Note_on_c, 1, 47, 70
3, 165212, Note_off_c, 1, 53, 100
3, 165212, Note_off_c, 1, 47, 100
3, 165216, Note_on_c, 1, 55, 70
3, 165216, Note_on_c, 1, 53, 70
3, 165308, Note_off_c, 1, 55, 100
3, 165308, Note_off_c, 1, 53, 100
3, 165312, Note_on_c, 1, 55, 70
3, 165312, Note_on_c, 1, 62, 70
3, 165404, Note_off_c, 1, 55, 100
3, 165404, Note_off_c, 1, 62, 100
3, 165408, Note_on_c, 1, 55, 70
3, 165408, Note_on_c, 1, 53, 70
3, 165500, Note_off_c, 1, 55, 100
3, 165500, Note_off_c, 1, 53, 100
3, 165504, Note_on_c, 1, 53, 70
3, 165504, Note_on_c, 1, 47, 70
3, 165596, Note_off_c, 1, 53, 100
3, 165596, Note_off_c, 1, 47, 100
3, 165600, Note_on_c, 1, 55, 70
3, 165600, Note_on_c, 1, 53, 70
3, 165692, Note_off_c, 1, 55, 100
3, 165692, Note_off_c, 1, 53, 100
3, 165696, Note_on_c, 1, 53, 70
3, 165696, Note_on_c, 1, 47, 70
3, 165788, Note_off_c, 1, 53, 100
3, 165788, Note_off_c, 1, 47, 100
3, 165792, Note_on_c, 1, 55, 70
3, 165792, Note_on_c, 1, 53, 70
3, 165884, Note_off_c, 1, 55, 100
3, 165884, Note_off_c, 1, 53, 100
3, 165888, Note_on_c, 1, 55, 70
3, 165888, Note_on_c, 1, 62, 70
3, 165980, Note_off_c, 1, 55, 100
3, 165980, Note_off_c, 1, 62, 100
3, 165984, Note_on_c, 1, 55, 70
3, 165984, Note_on_c, 1, 53, 70
3, 166076, Note_off_c, 1, 55, 100
3, 166076, Note_off_c, 1, 53, 100
3, 166080, Note_on_c, 1, 53, 70
3, 166080, Note_on_c, 1, 47, 70
3, 166172, Note_off_c, 1, 53, 100
3, 166172, Note_off_c, 1, 47, 100
3, 166176, Note_on_c, 1, 55, 70
3, 166176, Note_on_c, 1, 53, 70
3, 166268, Note_off_c, 1, 55, 100
3, 166268, Note_off_c, 1, 53, 100
3, 166272, Note_on_c, 1, 53, 70
3, 166272, Note_on_c, 1, 43, 70
3, 166364, Note_off_c, 1, 53, 100
3, 166364, Note_off_c, 1, 43, 100
3, 166368, Note_on_c, 1, 55, 70
3, 166368, Note_on_c, 1, 53, 70
3, 166460, Note_off_c, 1, 55, 100
3, 166460, Note_off_c, 1, 53, 100
3, 166464, Note_on_c, 1, 55, 70
3, 166464, Note_on_c, 1, 59, 70
3, 166556, Note_off_c, 1, 55, 100
3, 166556, Note_off_c, 1, 59, 100
3, 166560, Note_on_c, 1, 55, 70
3, 166560, Note_on_c, 1, 53, 70
3, 166652, Note_off_c, 1, 55, 100
3, 166652, Note_off_c, 1, 53, 100
3, 166656, Note_on_c, 1, 53, 70
3, 166656, Note_on_c, 1, 43, 70
3, 166748, Note_off_c, 1, 53, 100
3, 166748, Note_off_c, 1, 43, 100
3, 166752, Note_on_c, 1, 55, 70
3, 166752, Note_on_c, 1, 53, 70
3, 166844, Note_off_c, 1, 55, 100
3, 166844, Note_off_c, 1, 53, 100
3, 166848, Note_on_c, 1, 52, 70
3, 166848, Note_on_c, 1, 48, 70
3, 166940, Note_off_c, 1, 52, 100
3, 166940, Note_off_c, 1, 48, 100
3, 166944, Note_on_c, 1, 55, 70
3, 167036, Note_off_c, 1, 55, 100
3, 167040, Note_on_c, 1, 60, 70
3, 167132, Note_off_c, 1, 60, 100
3, 167136, Note_on_c, 1, 55, 70
3, 167228, Note_off_c, 1, 55, 100
3, 167232, Note_on_c, 1, 52, 70
3, 167324, Note_off_c, 1, 52, 100
3, 167328, Note_on_c, 1, 48, 70
3, 167420, Note_off_c, 1, 48, 100
3, 167424, Note_on_c, 1, 45, 70
3, 167516, Note_off_c, 1, 45, 100
3, 167520, Note_on_c, 1, 57, 70
3, 167612, Note_off_c, 1, 57, 100
3, 167616, Note_on_c, 1, 60, 70
3, 167708, Note_off_c, 1, 60, 100
3, 167712, Note_on_c, 1, 57, 70
3, 167804, Note_off_c, 1, 57, 100
3, 167808, Note_on_c, 1, 53, 70
3, 167900, Note_off_c, 1, 53, 100
3, 167904, Note_on_c, 1, 48, 70
3, 167996, Note_off_c, 1, 48, 100
3, 168000, Note_on_c, 1, 40, 70
3, 168092, Note_off_c, 1, 40, 100
3, 168096, Note_on_c, 1, 55, 70
3, 168188, Note_off_c, 1, 55, 100
3, 168192, Note_on_c, 1, 60, 70
3, 168284, Note_off_c, 1, 60, 100
3, 168288, Note_on_c, 1, 55, 70
3, 168380, Note_off_c, 1, 55, 100
3, 168384, Note_on_c, 1, 52, 70
3, 168476, Note_off_c, 1, 52, 100
3, 168480, Note_on_c, 1, 48, 70
3, 168572, Note_off_c, 1, 48, 100
3, 168576, Note_on_c, 1, 41, 70
3, 168668, Note_off_c, 1, 41, 100
3, 168672, Note_on_c, 1, 53, 70
3, 168672, Note_on_c, 1, 57, 70
3, 168764, Note_off_c, 1, 53, 100
3, 168764, Note_off_c, 1, 57, 100
3, 168768, Note_on_c, 1, 57, 70
3, 168768, Note_on_c, 1, 60, 70
3, 168860, Note_off_c, 1, 57, 100
3, 168860, Note_off_c, 1, 60, 100
3, 168864, Note_on_c, 1, 57, 70
3, 168864, Note_on_c, 1, 53, 70
3, 168956, Note_off_c, 1, 57, 100
3, 168956, Note_off_c, 1, 53, 100
3, 168960, Note_on_c, 1, 57, 70
3, 168960, Note_on_c, 1, 60, 70
3, 169052, Note_off_c, 1, 57, 100
3, 169052, Note_off_c, 1, 60, 100
3, 169056, Note_on_c, 1, 53, 70
3, 169056, Note_on_c, 1, 57, 70
3, 169148, Note_off_c, 1, 53, 100
3, 169148, Note_off_c, 1, 57, 100
3, 169152, Note_on_c, 1, 41, 70
3, 169244, Note_off_c, 1, 41, 100
3, 169248, Note_on_c, 1, 53, 70
3, 169248, Note_on_c, 1, 57, 70
3, 169340, Note_off_c, 1, 53, 100
3, 169340, Note_off_c, 1, 57, 100
3, 169344, Note_on_c, 1, 57, 70
3, 169344, Note_on_c, 1, 61, 70
3, 169436, Note_off_c, 1, 57, 100
3, 169436, Note_off_c, 1, 61, 100
3, 169440, Note_on_c, 1, 57, 70
3, 169440, Note_on_c, 1, 53, 70
3, 169532, Note_off_c, 1, 57, 100
3, 169532, Note_off_c, 1, 53, 100
3, 169536, Note_on_c, 1, 57, 70
3, 169536, Note_on_c, 1, 61, 70
3, 169628, Note_off_c, 1, 57, 100
3, 169628, Note_off_c, 1, 61, 100
3, 169632, Note_on_c, 1, 53, 70
3, 169632, Note_on_c, 1, 57, 70
3, 169724, Note_off_c, 1, 53, 100
3, 169724, Note_off_c, 1, 57, 100
3, 169728, Note_on_c, 1, 41, 70
3, 169820, Note_off_c, 1, 41, 100
3, 169824, Note_on_c, 1, 53, 70
3, 169824, Note_on_c, 1, 57, 70
3, 169916, Note_off_c, 1, 53, 100
3, 169916, Note_off_c, 1, 57, 100
3, 169920, Note_on_c, 1, 57, 70
3, 169920, Note_on_c, 1, 62, 70
3, 170012, Note_off_c, 1, 57, 100
3, 170012, Note_off_c, 1, 62, 100
3, 170016, Note_on_c, 1, 57, 70
3, 170016, Note_on_c, 1, 53, 70
3, 170108, Note_off_c, 1, 57, 100
3, 170108, Note_off_c, 1, 53, 100
3, 170112, Note_on_c, 1, 57, 70
3, 170112, Note_on_c, 1, 62, 70
3, 170204, Note_off_c, 1, 57, 100
3, 170204, Note_off_c, 1, 62, 100
3, 170208, Note_on_c, 1, 53, 70
3, 170208, Note_on_c, 1, 57, 70
3, 170300, Note_off_c, 1, 53, 100
3, 170300, Note_off_c, 1, 57, 100
3, 170304, Note_on_c, 1, 43, 70
3, 170396, Note_off_c, 1, 43, 100
3, 170400, Note_on_c, 1, 55, 70
3, 170400, Note_on_c, 1, 60, 70
3, 170492, Note_off_c, 1, 55, 100
3, 170492, Note_off_c, 1, 60, 100
3, 170496, Note_on_c, 1, 60, 70
3, 170496, Note_on_c, 1, 64, 70
3, 170588, Note_off_c, 1, 60, 100
3, 170588, Note_off_c, 1, 64, 100
3, 170592, Note_on_c, 1, 55, 70
3, 170592, Note_on_c, 1, 60, 70
3, 170684, Note_off_c, 1, 55, 100
3, 170684, Note_off_c, 1, 60, 100
3, 170688, Note_on_c, 1, 60, 70
3, 170688, Note_on_c, 1, 64, 70
3, 170780, Note_off_c, 1, 60, 100
3, 170780, Note_off_c, 1, 64, 100
3, 170784, Note_on_c, 1, 55, 70
3, 170784, Note_on_c, 1, 60, 70
3, 170876, Note_off_c, 1, 55, 100
3, 170876, Note_off_c, 1, 60, 100
3, 170880, Note_on_c, 1, 60, 70
3, 170880, Note_on_c, 1, 64, 70
3, 170972, Note_off_c, 1, 60, 100
3, 170972, Note_off_c, 1, 64, 100
3, 170976, Note_on_c, 1, 55, 70
3, 170976, Note_on_c, 1, 60, 70
3, 171068, Note_off_c, 1, 55, 100
3, 171068, Note_off_c, 1, 60, 100
3, 171072, Note_on_c, 1, 60, 70
3, 171072, Note_on_c, 1, 64, 70
3, 171164, Note_off_c, 1, 60, 100
3, 171164, Note_off_c, 1, 64, 100
3, 171168, Note_on_c, 1, 55, 70
3, 171168, Note_on_c, 1, 60, 70
3, 171260, Note_off_c, 1, 55, 100
3, 171260, Note_off_c, 1, 60, 100
3, 171264, Note_on_c, 1, 60, 70
3, 171264, Note_on_c, 1, 64, 70
3, 171356, Note_off_c, 1, 60, 100
3, 171356, Note_off_c, 1, 64, 100
3, 171360, Note_on_c, 1, 55, 70
3, 171360, Note_on_c, 1, 60, 70
3, 171452, Note_off_c, 1, 55, 100
3, 171452, Note_off_c, 1, 60, 100
3, 171456, Note_on_c, 1, 43, 70
3, 171548, Note_off_c, 1, 43, 100
3, 171552, Note_on_c, 1, 55, 70
3, 171552, Note_on_c, 1, 62, 70
3, 171644, Note_off_c, 1, 55, 100
3, 171644, Note_off_c, 1, 62, 100
3, 171648, Note_on_c, 1, 62, 70
3, 171648, Note_on_c, 1, 65, 70
3, 171740, Note_off_c, 1, 62, 100
3, 171740, Note_off_c, 1, 65, 100
3, 171744, Note_on_c, 1, 55, 70
3, 171744, Note_on_c, 1, 62, 70
3, 171836, Note_off_c, 1, 55, 100
3, 171836, Note_off_c, 1, 62, 100
3, 171840, Note_on_c, 1, 65, 70
3, 171840, Note_on_c, 1, 62, 70
3, 171932, Note_off_c, 1, 65, 100
3, 171932, Note_off_c, 1, 62, 100
3, 171936, Note_on_c, 1, 62, 70
3, 171936, Note_on_c, 1, 55, 70
3, 172028, Note_off_c, 1, 62, 100
3, 172028, Note_off_c, 1, 55, 100
3, 172032, Note_on_c, 1, 60, 70
3, 172032, Note_on_c, 1, 48, 70
3, 172220, Note_off_c, 1, 60, 100
3, 172220, Note_off_c, 1, 48, 100
3, 173760, Note_on_c, 1, 38, 80
3, 173948, Note_off_c, 1, 38, 100
3, 173952, Note_on_c, 1, 50, 80
3, 174140, Note_off_c, 1, 50, 100
3, 174144, Note_on_c, 1, 57, 80
3, 174332, Note_off_c, 1, 57, 100
3, 174336, Note_on_c, 1, 38, 80
3, 174524, Note_off_c, 1, 38, 100
3, 174528, Note_on_c, 1, 50, 80
3, 174716, Note_off_c, 1, 50, 100
3, 174720, Note_on_c, 1, 57, 80
3, 174908, Note_off_c, 1, 57, 100
3, 174912, Note_on_c, 1, 43, 80
3, 175100, Note_off_c, 1, 43, 100
3, 175104, Note_on_c, 1, 50, 80
3, 175292, Note_off_c, 1, 50, 100
3, 175296, Note_on_c, 1, 55, 80
3, 175484, Note_off_c, 1, 55, 100
3, 175488, Note_on_c, 1, 36, 80
3, 175676, Note_off_c, 1, 36, 100
3, 175680, Note_on_c, 1, 48, 80
3, 175868, Note_off_c, 1, 48, 100
3, 175872, Note_on_c, 1, 55, 80
3, 176060, Note_off_c, 1, 55, 100
3, 176064, Note_on_c, 1, 36, 80
3, 176252, Note_off_c, 1, 36, 100
3, 176256, Note_on_c, 1, 48, 80
3, 176444, Note_off_c, 1, 48, 100
3, 176448, Note_on_c, 1, 55, 80
3, 176636, Note_off_c, 1, 55, 100
3, 176640, Note_on_c, 1, 41, 80
3, 176828, Note_off_c, 1, 41, 100
3, 176832, Note_on_c, 1, 48, 80
3, 177020, Note_off_c, 1, 48, 100
3, 177024, Note_on_c, 1, 53, 80
3, 177212, Note_off_c, 1, 53, 100
3, 177216, Note_on_c, 1, 41, 80
3, 177404, Note_off_c, 1, 41, 100
3, 177408, Note_on_c, 1, 53, 80
3, 177408, Note_on_c, 1, 57, 80
3, 177596, Note_off_c, 1, 53, 100
3, 177596, Note_off_c, 1, 57, 100
3, 177600, Note_on_c, 1, 57, 80
3, 177600, Note_on_c, 1, 60, 80
3, 177788, Note_off_c, 1, 57, 100
3, 177788, Note_off_c, 1, 60, 100
3, 177792, Note_on_c, 1, 41, 80
3, 177980, Note_off_c, 1, 41, 100
3, 177984, Note_on_c, 1, 53, 80
3, 177984, Note_on_c, 1, 57, 80
3, 178172, Note_off_c, 1, 53, 100
3, 178172, Note_off_c, 1, 57, 100
3, 178176, Note_on_c, 1, 57, 80
3, 178176, Note_on_c, 1, 60, 80
3, 178364, Note_off_c, 1, 57, 100
3, 178364, Note_off_c, 1, 60, 100
3, 178368, Note_on_c, 1, 41, 80
3, 178556, Note_off_c, 1, 41, 100
3, 178560, Note_on_c, 1, 53, 80
3, 178560, Note_on_c, 1, 57, 80
3, 178748, Note_off_c, 1, 53, 100
3, 178748, Note_off_c, 1, 57, 100
3, 178752, Note_on_c, 1, 57, 80
3, 178752, Note_on_c, 1, 62, 80
3, 178940, Note_off_c, 1, 57, 100
3, 178940, Note_off_c, 1, 62, 100
3, 178944, Note_on_c, 1, 43, 80
3, 179132, Note_off_c, 1, 43, 100
3, 179136, Note_on_c, 1, 55, 80
3, 179136, Note_on_c, 1, 60, 80
3, 179324, Note_off_c, 1, 55, 100
3, 179324, Note_off_c, 1, 60, 100
3, 179328, Note_on_c, 1, 60, 80
3, 179328, Note_on_c, 1, 64, 80
3, 179516, Note_off_c, 1, 60, 100
3, 179516, Note_off_c, 1, 64, 100
3, 179520, Note_on_c, 1, 43, 80
3, 179708, Note_off_c, 1, 43, 100
3, 179712, Note_on_c, 1, 55, 80
3, 179712, Note_on_c, 1, 60, 80
3, 179900, Note_off_c, 1, 55, 100
3, 179900, Note_off_c, 1, 60, 100
3, 179904, Note_on_c, 1, 60, 80
3, 179904, Note_on_c, 1, 64, 80
3, 180092, Note_off_c, 1, 60, 100
3, 180092, Note_off_c, 1, 64, 100
3, 180096, Note_on_c, 1, 43, 80
3, 180284, Note_off_c, 1, 43, 100
3, 180288, Note_on_c, 1, 55, 80
3, 180288, Note_on_c, 1, 62, 80
3, 180476, Note_off_c, 1, 55, 100
3, 180476, Note_off_c, 1, 62, 100
3, 180480, Note_on_c, 1, 62, 80
3, 180480, Note_on_c, 1, 65, 80
3, 180668, Note_off_c, 1, 62, 100
3, 180668, Note_off_c, 1, 65, 100
3, 180672, Note_on_c, 1, 48, 80
3, 180672, Note_on_c, 1, 36, 80
3, 180860, Note_off_c, 1, 48, 100
3, 180860, Note_off_c, 1, 36, 100
3, 180864, Note_on_c, 1, 55, 80
3, 181052, Note_off_c, 1, 55, 100
3, 181056, Note_on_c, 1, 53, 80
3, 181244, Note_off_c, 1, 53, 100
3, 181248, Note_on_c, 1, 52, 80
3, 181436, Note_off_c, 1, 52, 100
3, 181440, Note_on_c, 1, 50, 80
3, 181628, Note_off_c, 1, 50, 100
3, 181632, Note_on_c, 1, 48, 80
3, 181820, Note_off_c, 1, 48, 100
3, 181824, Note_on_c, 1, 47, 80
3, 181916, Note_off_c, 1, 47, 100
3, 181920, Note_on_c, 1, 48, 80
3, 182012, Note_off_c, 1, 48, 100
3, 182016, Note_on_c, 1, 47, 80
3, 182108, Note_off_c, 1, 47, 100
3, 182112, Note_on_c, 1, 48, 80
3, 182204, Note_off_c, 1, 48, 100
3, 182208, Note_on_c, 1, 50, 80
3, 182300, Note_off_c, 1, 50, 100
3, 182304, Note_on_c, 1, 48, 80
3, 182396, Note_off_c, 1, 48, 100
3, 182400, Note_on_c, 1, 48, 80
3, 182448, Note_on_c, 1, 50, 80
3, 182492, Note_off_c, 1, 48, 100
3, 182496, Note_on_c, 1, 48, 80
3, 182540, Note_off_c, 1, 50, 100
3, 182544, Note_on_c, 1, 50, 80
3, 182588, Note_off_c, 1, 48, 100
3, 182592, Note_on_c, 1, 48, 80
3, 182636, Note_off_c, 1, 50, 100
3, 182640, Note_on_c, 1, 50, 80
3, 182684, Note_off_c, 1, 48, 100
3, 182688, Note_on_c, 1, 48, 80
3, 182732, Note_off_c, 1, 50, 100
3, 182736, Note_on_c, 1, 50, 80
3, 182780, Note_off_c, 1, 48, 100
3, 182784, Note_on_c, 1, 48, 80
3, 182828, Note_off_c, 1, 50, 100
3, 182832, Note_on_c, 1, 50, 80
3, 182876, Note_off_c, 1, 48, 100
3, 182880, Note_on_c, 1, 48, 80
3, 182924, Note_off_c, 1, 50, 100
3, 182928, Note_on_c, 1, 50, 80
3, 182972, Note_off_c, 1, 48, 100
3, 182976, Note_on_c, 1, 48, 80
3, 183020, Note_off_c, 1, 50, 100
3, 183024, Note_on_c, 1, 50, 80
3, 183068, Note_off_c, 1, 48, 100
3, 183072, Note_on_c, 1, 48, 80
3, 183116, Note_off_c, 1, 50, 100
3, 183120, Note_on_c, 1, 50, 80
3, 183164, Note_off_c, 1, 48, 100
3, 183168, Note_on_c, 1, 48, 80
3, 183212, Note_off_c, 1, 50, 100
3, 183216, Note_on_c, 1, 50, 80
3, 183260, Note_off_c, 1, 48, 100
3, 183264, Note_on_c, 1, 48, 80
3, 183308, Note_off_c, 1, 50, 100
3, 183312, Note_on_c, 1, 50, 80
3, 183356, Note_off_c, 1, 48, 100
3, 183360, Note_on_c, 1, 48, 80
3, 183404, Note_off_c, 1, 50, 100
3, 183408, Note_on_c, 1, 50, 80
3, 183452, Note_off_c, 1, 48, 100
3, 183456, Note_on_c, 1, 48, 80
3, 183500, Note_off_c, 1, 50, 100
3, 183504, Note_on_c, 1, 50, 80
3, 183548, Note_off_c, 1, 48, 100
3, 183552, Note_on_c, 1, 47, 80
3, 183596, Note_off_c, 1, 50, 100
3, 184124, Note_off_c, 1, 47, 100
3, 184128, Note_on_c, 1, 46, 80
3, 184176, Note_on_c, 1, 48, 80
3, 184220, Note_off_c, 1, 46, 100
3, 184224, Note_on_c, 1, 46, 80
3, 184268, Note_off_c, 1, 48, 100
3, 184272, Note_on_c, 1, 48, 80
3, 184316, Note_off_c, 1, 46, 100
3, 184320, Note_on_c, 1, 46, 80
3, 184364, Note_off_c, 1, 48, 100
3, 184368, Note_on_c, 1, 48, 80
3, 184412, Note_off_c, 1, 46, 100
3, 184416, Note_on_c, 1, 46, 80
3, 184460, Note_off_c, 1, 48, 100
3, 184464, Note_on_c, 1, 48, 80
3, 184508, Note_off_c, 1, 46, 100
3, 184512, Note_on_c, 1, 46, 80
3, 184556, Note_off_c, 1, 48, 100
3, 184560, Note_on_c, 1, 48, 80
3, 184604, Note_off_c, 1, 46, 100
3, 184608, Note_on_c, 1, 46, 80
3, 184652, Note_off_c, 1, 48, 100
3, 184656, Note_on_c, 1, 48, 80
3, 184700, Note_off_c, 1, 46, 100
3, 184704, Note_on_c, 1, 46, 80
3, 184748, Note_off_c, 1, 48, 100
3, 184752, Note_on_c, 1, 48, 80
3, 184796, Note_off_c, 1, 46, 100
3, 184800, Note_on_c, 1, 46, 80
3, 184844, Note_off_c, 1, 48, 100
3, 184848, Note_on_c, 1, 48, 80
3, 184892, Note_off_c, 1, 46, 100
3, 184896, Note_on_c, 1, 46, 80
3, 184940, Note_off_c, 1, 48, 100
3, 184944, Note_on_c, 1, 48, 80
3, 184988, Note_off_c, 1, 46, 100
3, 184992, Note_on_c, 1, 46, 80
3, 185036, Note_off_c, 1, 48, 100
3, 185040, Note_on_c, 1, 48, 80
3, 185084, Note_off_c, 1, 46, 100
3, 185088, Note_on_c, 1, 46, 80
3, 185132, Note_off_c, 1, 48, 100
3, 185136, Note_on_c, 1, 48, 80
3, 185180, Note_off_c, 1, 46, 100
3, 185184, Note_on_c, 1, 46, 80
3, 185228, Note_off_c, 1, 48, 100
3, 185232, Note_on_c, 1, 48, 80
3, 185276, Note_off_c, 1, 46, 100
3, 185280, Note_on_c, 1, 45, 80
3, 185324, Note_off_c, 1, 48, 100
3, 185852, Note_off_c, 1, 45, 100
3, 185856, Note_on_c, 1, 41, 81
3, 186048, Note_on_c, 1, 45, 85
3, 186236, Note_off_c, 1, 45, 100
3, 186240, Note_on_c, 1, 48, 90
3, 186428, Note_off_c, 1, 41, 100
3, 186428, Note_off_c, 1, 48, 100
3, 186432, Note_on_c, 1, 53, 95
3, 186624, Note_on_c, 1, 57, 100
3, 186812, Note_off_c, 1, 57, 100
3, 186816, Note_on_c, 1, 61, 105
3, 187004, Note_off_c, 1, 61, 100
3, 187008, Note_on_c, 1, 62, 110
3, 187196, Note_off_c, 1, 62, 100
3, 187200, Note_on_c, 1, 64, 110
3, 187388, Note_off_c, 1, 64, 100
3, 187392, Note_on_c, 1, 65, 110
3, 187580, Note_off_c, 1, 53, 100
3, 187580, Note_off_c, 1, 65, 100
3, 187584, Note_on_c, 1, 67, 110
3, 187584, Note_on_c, 1, 55, 110
3, 187964, Note_off_c, 1, 67, 100
3, 187964, Note_off_c, 1, 55, 100
3, 188160, Note_on_c, 1, 55, 110
3, 188160, Note_on_c, 1, 43, 110
3, 188540, Note_off_c, 1, 55, 100
3, 188540, Note_off_c, 1, 43, 100
3, 188736, Note_on_c, 1, 43, 94
3, 188736, Note_on_c, 1, 31, 94
3, 189116, Note_off_c, 1, 43, 100
3, 189116, Note_off_c, 1, 31, 100
3, 189312, Note_on_c, 1, 36, 80
3, 189360, Note_on_c, 1, 38, 80
3, 189404, Note_off_c, 1, 36, 100
3, 189408, Note_on_c, 1, 36, 80
3, 189452, Note_off_c, 1, 38, 100
3, 189456, Note_on_c, 1, 38, 80
3, 189500, Note_off_c, 1, 36, 100
3, 189504, Note_on_c, 1, 36, 80
3, 189548, Note_off_c, 1, 38, 100
3, 189552, Note_on_c, 1, 38, 80
3, 189596, Note_off_c, 1, 36, 100
3, 189600, Note_on_c, 1, 36, 80
3, 189644, Note_off_c, 1, 38, 100
3, 189648, Note_on_c, 1, 38, 80
3, 189692, Note_off_c, 1, 36, 100
3, 189696, Note_on_c, 1, 36, 80
3, 189740, Note_off_c, 1, 38, 100
3, 189744, Note_on_c, 1, 38, 80
3, 189788, Note_off_c, 1, 36, 100
3, 189792, Note_on_c, 1, 36, 80
3, 189836, Note_off_c, 1, 38, 100
3, 189840, Note_on_c, 1, 38, 80
3, 189884, Note_off_c, 1, 36, 100
3, 189888, Note_on_c, 1, 36, 80
3, 189932, Note_off_c, 1, 38, 100
3, 189936, Note_on_c, 1, 38, 80
3, 189980, Note_off_c, 1, 36, 100
3, 189984, Note_on_c, 1, 36, 80
3, 190028, Note_off_c, 1, 38, 100
3, 190032, Note_on_c, 1, 38, 80
3, 190076, Note_off_c, 1, 36, 100
3, 190080, Note_on_c, 1, 36, 80
3, 190124, Note_off_c, 1, 38, 100
3, 190128, Note_on_c, 1, 38, 80
3, 190172, Note_off_c, 1, 36, 100
3, 190176, Note_on_c, 1, 36, 80
3, 190220, Note_off_c, 1, 38, 100
3, 190224, Note_on_c, 1, 38, 80
3, 190268, Note_off_c, 1, 36, 100
3, 190272, Note_on_c, 1, 36, 80
3, 190316, Note_off_c, 1, 38, 100
3, 190320, Note_on_c, 1, 38, 80
3, 190364, Note_off_c, 1, 36, 100
3, 190368, Note_on_c, 1, 35, 80
3, 190412, Note_off_c, 1, 38, 100
3, 190416, Note_on_c, 1, 36, 80
3, 190460, Note_off_c, 1, 35, 100
3, 190464, Note_on_c, 1, 40, 80
3, 190508, Note_off_c, 1, 36, 100
3, 190988, Note_off_c, 1, 40, 100
3, 190992, Note_on_c, 1, 36, 80
3, 191036, Note_off_c, 1, 36, 100
3, 191040, Note_on_c, 1, 31, 80
3, 192764, Note_off_c, 1, 31, 100
3, 192768, Note_on_c, 1, 36, 80
3, 192816, Note_on_c, 1, 38, 80
3, 192860, Note_off_c, 1, 36, 100
3, 192864, Note_on_c, 1, 36, 80
3, 192908, Note_off_c, 1, 38, 100
3, 192912, Note_on_c, 1, 38, 80
3, 192956, Note_off_c, 1, 36, 100
3, 192960, Note_on_c, 1, 36, 80
3, 193004, Note_off_c, 1, 38, 100
3, 193008, Note_on_c, 1, 38, 80
3, 193052, Note_off_c, 1, 36, 100
3, 193056, Note_on_c, 1, 36, 80
3, 193100, Note_off_c, 1, 38, 100
3, 193104, Note_on_c, 1, 38, 80
3, 193148, Note_off_c, 1, 36, 100
3, 193152, Note_on_c, 1, 36, 80
3, 193196, Note_off_c, 1, 38, 100
3, 193200, Note_on_c, 1, 38, 80
3, 193244, Note_off_c, 1, 36, 100
3, 193248, Note_on_c, 1, 35, 80
3, 193292, Note_off_c, 1, 38, 100
3, 193296, Note_on_c, 1, 36, 80
3, 193340, Note_off_c, 1, 35, 100
3, 193344, Note_on_c, 1, 40, 80
3, 193388, Note_off_c, 1, 36, 100
3, 193392, Note_on_c, 1, 41, 80
3, 193436, Note_off_c, 1, 40, 100
3, 193440, Note_on_c, 1, 40, 80
3, 193484, Note_off_c, 1, 41, 100
3, 193488, Note_on_c, 1, 41, 80
3, 193532, Note_off_c, 1, 40, 100
3, 193536, Note_on_c, 1, 40, 80
3, 193580, Note_off_c, 1, 41, 100
3, 193584, Note_on_c, 1, 41, 80
3, 193628, Note_off_c, 1, 40, 100
3, 193632, Note_on_c, 1, 40, 80
3, 193676, Note_off_c, 1, 41, 100
3, 193680, Note_on_c, 1, 41, 80
3, 193724, Note_off_c, 1, 40, 100
3, 193728, Note_on_c, 1, 40, 80
3, 193772, Note_off_c, 1, 41, 100
3, 193776, Note_on_c, 1, 41, 80
3, 193820, Note_off_c, 1, 40, 100
3, 193824, Note_on_c, 1, 38, 80
3, 193868, Note_off_c, 1, 41, 100
3, 193872, Note_on_c, 1, 40, 80
3, 193916, Note_off_c, 1, 38, 100
3, 193920, Note_on_c, 1, 43, 80
3, 193964, Note_off_c, 1, 40, 100
3, 194348, Note_off_c, 1, 43, 100
3, 194352, Note_on_c, 1, 41, 80
3, 194376, Note_on_c, 1, 40, 80
3, 194396, Note_off_c, 1, 41, 100
3, 194400, Note_on_c, 1, 38, 80
3, 194420, Note_off_c, 1, 40, 100
3, 194424, Note_on_c, 1, 36, 80
3, 194444, Note_off_c, 1, 38, 100
3, 194448, Note_on_c, 1, 35, 80
3, 194468, Note_off_c, 1, 36, 100
3, 194472, Note_on_c, 1, 33, 80
3, 194492, Note_off_c, 1, 35, 100
3, 194496, Note_on_c, 1, 32, 80
3, 194516, Note_off_c, 1, 33, 100
3, 194684, Note_off_c, 1, 32, 100
3, 194688, Note_on_c, 1, 31, 80
3, 195068, Note_off_c, 1, 31, 100
3, 195072, Note_on_c, 1, 31, 80
3, 196220, Note_off_c, 1, 31, 100
3, 196224, Note_on_c, 1, 36, 80
3, 196412, Note_off_c, 1, 36, 100
3, 196416, Note_on_c, 1, 43, 80
3, 196652, Note_off_c, 1, 43, 100
3, 196656, Note_on_c, 1, 41, 80
3, 196680, Note_on_c, 1, 40, 80
3, 196700, Note_off_c, 1, 41, 100
3, 196704, Note_on_c, 1, 38, 80
3, 196724, Note_off_c, 1, 40, 100
3, 196728, Note_on_c, 1, 36, 80
3, 196748, Note_off_c, 1, 38, 100
3, 196752, Note_on_c, 1, 35, 80
3, 196772, Note_off_c, 1, 36, 100
3, 196776, Note_on_c, 1, 33, 80
3, 196796, Note_off_c, 1, 35, 100
3, 196800, Note_on_c, 1, 32, 80
3, 196820, Note_off_c, 1, 33, 100
3, 196988, Note_off_c, 1, 32, 100
3, 196992, Note_on_c, 1, 31, 80
3, 197948, Note_off_c, 1, 31, 100
3, 197952, Note_on_c, 1, 36, 80
3, 198140, Note_off_c, 1, 36, 100
3, 198144, Note_on_c, 1, 43, 80
3, 198380, Note_off_c, 1, 43, 100
3, 198384, Note_on_c, 1, 41, 80
3, 198408, Note_on_c, 1, 40, 80
3, 198428, Note_off_c, 1, 41, 100
3, 198432, Note_on_c, 1, 38, 80
3, 198452, Note_off_c, 1, 40, 100
3, 198456, Note_on_c, 1, 36, 80
3, 198476, Note_off_c, 1, 38, 100
3, 198480, Note_on_c, 1, 35, 80
3, 198500, Note_off_c, 1, 36, 100
3, 198504, Note_on_c, 1, 33, 80
3, 198524, Note_off_c, 1, 35, 100
3, 198528, Note_on_c, 1, 32, 80
3, 198548, Note_off_c, 1, 33, 100
3, 198716, Note_off_c, 1, 32, 100
3, 198720, Note_on_c, 1, 31, 80
3, 199676, Note_off_c, 1, 31, 100
3, 199680, Note_on_c, 1, 36, 80
3, 199872, Note_on_c, 1, 43, 80
3, 200060, Note_off_c, 1, 43, 100
3, 200064, Note_on_c, 1, 44, 80
3, 200252, Note_off_c, 1, 44, 100
3, 200256, Note_on_c, 1, 45, 80
3, 200444, Note_off_c, 1, 45, 100
3, 200448, Note_on_c, 1, 44, 80
3, 200636, Note_off_c, 1, 44, 100
3, 200640, Note_on_c, 1, 45, 80
3, 200828, Note_off_c, 1, 45, 100
3, 200832, Note_on_c, 1, 46, 80
3, 201020, Note_off_c, 1, 46, 100
3, 201024, Note_on_c, 1, 45, 80
3, 201212, Note_off_c, 1, 45, 100
3, 201216, Note_on_c, 1, 46, 80
3, 201404, Note_off_c, 1, 36, 100
3, 201404, Note_off_c, 1, 46, 100
3, 201408, Note_on_c, 1, 36, 80
3, 201408, Note_on_c, 1, 47, 80
3, 201596, Note_off_c, 1, 47, 100
3, 201600, Note_on_c, 1, 43, 80
3, 201788, Note_off_c, 1, 43, 100
3, 201792, Note_on_c, 1, 45, 80
3, 201884, Note_off_c, 1, 45, 100
3, 201888, Note_on_c, 1, 47, 80
3, 201980, Note_off_c, 1, 47, 100
3, 201984, Note_on_c, 1, 48, 80
3, 202364, Note_off_c, 1, 36, 100
3, 202364, Note_off_c, 1, 48, 100
3, 203136, Note_on_c, 1, 36, 80
3, 203136, Note_on_c, 1, 47, 80
3, 203324, Note_off_c, 1, 47, 100
3, 203328, Note_on_c, 1, 43, 80
3, 203516, Note_off_c, 1, 43, 100
3, 203520, Note_on_c, 1, 45, 80
3, 203612, Note_off_c, 1, 45, 100
3, 203616, Note_on_c, 1, 47, 80
3, 203708, Note_off_c, 1, 47, 100
3, 203712, Note_on_c, 1, 48, 80
3, 204092, Note_off_c, 1, 36, 100
3, 204092, Note_off_c, 1, 48, 100
3, 204864, Note_on_c, 1, 36, 80
3, 204864, Note_on_c, 1, 47, 80
3, 205052, Note_off_c, 1, 47, 100
3, 205056, Note_on_c, 1, 43, 81
3, 205244, Note_off_c, 1, 43, 100
3, 205248, Note_on_c, 1, 45, 83
3, 205340, Note_off_c, 1, 45, 100
3, 205344, Note_on_c, 1, 47, 84
3, 205436, Note_off_c, 1, 47, 100
3, 205440, Note_on_c, 1, 48, 85
3, 205628, Note_off_c, 1, 48, 100
3, 205632, Note_on_c, 1, 43, 86
3, 205820, Note_off_c, 1, 43, 100
3, 205824, Note_on_c, 1, 47, 88
3, 205916, Note_off_c, 1, 47, 100
3, 205920, Note_on_c, 1, 48, 89
3, 206012, Note_off_c, 1, 48, 100
3, 206016, Note_on_c, 1, 50, 90
3, 206204, Note_off_c, 1, 50, 100
3, 206208, Note_on_c, 1, 43, 92
3, 206396, Note_off_c, 1, 43, 100
3, 206400, Note_on_c, 1, 49, 93
3, 206492, Note_off_c, 1, 49, 100
3, 206496, Note_on_c, 1, 50, 94
3, 206588, Note_off_c, 1, 36, 100
3, 206588, Note_off_c, 1, 50, 100
3, 206592, Note_on_c, 1, 50, 95
3, 206592, Note_on_c, 1, 36, 95
3, 207164, Note_off_c, 1, 50, 100
3, 207168, Note_on_c, 1, 53, 80
3, 207548, Note_off_c, 1, 36, 100
3, 207548, Note_off_c, 1, 53, 100
3, 208320, Note_on_c, 1, 74, 70
3, 208320, Note_on_c, 1, 67, 70
3, 208892, Note_off_c, 1, 74, 100
3, 208892, Note_off_c, 1, 67, 100
3, 208896, Note_on_c, 1, 72, 70
3, 208896, Note_on_c, 1, 60, 70
3, 209468, Note_off_c, 1, 72, 100
3, 209468, Note_off_c, 1, 60, 100
3, 209468, End_track
0, 0, End_of_file
