0, 0, Header, 1, 3, 384
1, 0, Start_track
1, 0, Title_t, "L.v.Beethoven 1mov - Piano Sonata No.17 in D minor Op.31-2\000"
1, 0, Copyright_t, "Copyright(C) 1995-2009, Suzuki Software\000"
1, 0, Sequencer_specific, 9, 67, 123, 0, 88, 70, 48, 50, 0, 1
1, 0, Text_t, "XFhd:2000/07/07:JP:Classical::::L.v.Beethoven:::Kaoru Suzuki\000"
1, 0, Text_t, "XFln:JP:\203s\203A\203m\203\\\203i\203^\221æ17\224Ô\203j\222Z\222²\215ì\225i31-2\201`\221æ1\212y\217Í:L.v.\203x\201[\203g\201[\203\224\203F\203\223:::\227é\202¿\202á\202ñ:\227é\202¿\202á\202ñ\000"
1, 0, Time_signature, 4, 2, 96, 8
1, 0, Sequencer_specific, 3, 0, 0, 65
1, 0, Sequencer_specific, 5, 0, 0, 119, 14, 0
1, 0, Tempo, 1000000
1, 2688, Tempo, 250000
1, 6912, Tempo, 300000
1, 7296, Tempo, 375000
1, 7680, Tempo, 1500000
1, 9216, Tempo, 1000000
1, 11904, Tempo, 250000
1, 23040, Tempo, 260869
1, 23808, Tempo, 272727
1, 24960, Tempo, 250000
1, 29184, Tempo, 272727
1, 29952, Tempo, 300000
1, 30336, Tempo, 375000
1, 30912, Tempo, 250000
1, 60672, Tempo, 260869
1, 61056, Tempo, 272727
1, 61824, Tempo, 250000
1, 112512, Tempo, 272727
1, 113280, Tempo, 300000
1, 114048, Tempo, 256410
1, 130560, Tempo, 265486
1, 131328, Tempo, 272727
1, 131712, Tempo, 300000
1, 132096, Tempo, 272727
1, 133632, Tempo, 285714
1, 134400, Tempo, 315789
1, 141312, Tempo, 1000000
1, 144000, Tempo, 250000
1, 148224, Tempo, 272727
1, 148608, Tempo, 300000
1, 148992, Tempo, 1500000
1, 150528, Tempo, 1000000
1, 153216, Tempo, 250000
1, 158208, Tempo, 260869
1, 158976, Tempo, 272727
1, 159360, Tempo, 300000
1, 160128, Tempo, 250000
1, 164352, Tempo, 260869
1, 165120, Tempo, 272727
1, 165504, Tempo, 300000
1, 165888, Tempo, 272727
1, 166272, Tempo, 250000
1, 170496, Tempo, 260869
1, 171264, Tempo, 272727
1, 171648, Tempo, 300000
1, 172416, Tempo, 250000
1, 201984, Tempo, 260869
1, 202368, Tempo, 272727
1, 202944, Tempo, 250000
1, 223872, Tempo, 272727
1, 225024, Tempo, 250000
1, 271872, Tempo, 260869
1, 272640, Tempo, 272727
1, 273024, Tempo, 300000
1, 282624, Tempo, 1000000
1, 291840, Tempo, 250000
1, 324096, Tempo, 260869
1, 324864, Tempo, 272727
1, 325248, Tempo, 300000
1, 326016, Tempo, 256410
1, 342528, Tempo, 260869
1, 343296, Tempo, 272727
1, 343680, Tempo, 300000
1, 345216, Tempo, 260869
1, 356352, Tempo, 272727
1, 357888, Tempo, 300000
1, 358656, Tempo, 375000
1, 359424, Tempo, 1000000
1, 368256, Tempo, 250000
1, 371712, Tempo, 260869
1, 372480, Tempo, 300000
1, 372864, Tempo, 375000
1, 373248, Tempo, 1500000
1, 374784, Tempo, 1000000
1, 381696, Tempo, 1071428
1, 382080, Tempo, 1153846
1, 382272, Tempo, 1500000
1, 384000, Tempo, 300000
1, 400896, Tempo, 272727
1, 401664, Tempo, 289855
1, 402048, Tempo, 327868
1, 402816, Tempo, 250000
1, 453120, Tempo, 260869
1, 453888, Tempo, 272727
1, 454272, Tempo, 300000
1, 455040, Tempo, 254237
1, 470016, Tempo, 260869
1, 471552, Tempo, 277777
1, 472320, Tempo, 319148
1, 472704, Tempo, 375000
1, 473088, Tempo, 300000
1, 474624, Tempo, 315789
1, 475392, Tempo, 375000
1, 476160, Tempo, 333333
1, 476544, Tempo, 300000
1, 482304, Tempo, 272727
1, 483840, Tempo, 300000
1, 484608, Tempo, 333333
1, 484992, Tempo, 375000
1, 485376, Tempo, 333333
1, 486912, Tempo, 400000
1, 486912, End_track
2, 0, Start_track
2, 0, Title_t, "Right"
2, 0, Control_c, 0, 0, 0
2, 0, Program_c, 0, 0
2, 0, Control_c, 0, 7, 100
2, 0, Control_c, 0, 10, 73
2, 0, Control_c, 0, 91, 127
2, 0, Key_signature, -1, "minor"
2, 0, Control_c, 0, 64, 127
2, 768, Note_on_c, 0, 61, 70
2, 1152, Note_on_c, 0, 64, 70
2, 1536, Note_on_c, 0, 69, 70
2, 2680, Control_c, 0, 64, 0
2, 2684, Note_off_c, 0, 61, 100
2, 2684, Note_off_c, 0, 64, 100
2, 2684, Note_off_c, 0, 69, 100
2, 2688, Note_on_c, 0, 69, 80
2, 2876, Note_off_c, 0, 69, 100
2, 2880, Note_on_c, 0, 67, 80
2, 3068, Note_off_c, 0, 67, 100
2, 3072, Note_on_c, 0, 67, 80
2, 3260, Note_off_c, 0, 67, 100
2, 3264, Note_on_c, 0, 65, 80
2, 3452, Note_off_c, 0, 65, 100
2, 3456, Note_on_c, 0, 65, 80
2, 3644, Note_off_c, 0, 65, 100
2, 3648, Note_on_c, 0, 64, 80
2, 3836, Note_off_c, 0, 64, 100
2, 3840, Note_on_c, 0, 64, 80
2, 4028, Note_off_c, 0, 64, 100
2, 4032, Note_on_c, 0, 62, 80
2, 4220, Note_off_c, 0, 62, 100
2, 4224, Note_on_c, 0, 69, 80
2, 4412, Note_off_c, 0, 69, 100
2, 4416, Note_on_c, 0, 67, 80
2, 4604, Note_off_c, 0, 67, 100
2, 4608, Note_on_c, 0, 67, 80
2, 4796, Note_off_c, 0, 67, 100
2, 4800, Note_on_c, 0, 65, 80
2, 4988, Note_off_c, 0, 65, 100
2, 4992, Note_on_c, 0, 65, 80
2, 5180, Note_off_c, 0, 65, 100
2, 5184, Note_on_c, 0, 64, 80
2, 5372, Note_off_c, 0, 64, 100
2, 5376, Note_on_c, 0, 64, 80
2, 5564, Note_off_c, 0, 64, 100
2, 5568, Note_on_c, 0, 62, 80
2, 5756, Note_off_c, 0, 62, 100
2, 5760, Note_on_c, 0, 74, 80
2, 5948, Note_off_c, 0, 74, 100
2, 5952, Note_on_c, 0, 72, 83
2, 6140, Note_off_c, 0, 72, 100
2, 6144, Note_on_c, 0, 72, 86
2, 6332, Note_off_c, 0, 72, 100
2, 6336, Note_on_c, 0, 70, 89
2, 6524, Note_off_c, 0, 70, 100
2, 6528, Note_on_c, 0, 70, 92
2, 6716, Note_off_c, 0, 70, 100
2, 6720, Note_on_c, 0, 69, 95
2, 6908, Note_off_c, 0, 69, 100
2, 6912, Note_on_c, 0, 69, 98
2, 7100, Note_off_c, 0, 69, 100
2, 7104, Note_on_c, 0, 67, 101
2, 7292, Note_off_c, 0, 67, 100
2, 7296, Note_on_c, 0, 67, 104
2, 7484, Note_off_c, 0, 67, 100
2, 7488, Note_on_c, 0, 68, 107
2, 7676, Note_off_c, 0, 68, 100
2, 7680, Note_on_c, 0, 68, 110
2, 7680, Note_on_c, 0, 65, 110
2, 8060, Note_off_c, 0, 68, 100
2, 8064, Note_on_c, 0, 69, 80
2, 8112, Note_on_c, 0, 68, 80
2, 8156, Note_off_c, 0, 69, 100
2, 8160, Note_on_c, 0, 66, 80
2, 8204, Note_off_c, 0, 68, 100
2, 8208, Note_on_c, 0, 68, 80
2, 8252, Note_off_c, 0, 66, 100
2, 8256, Note_on_c, 0, 71, 80
2, 8300, Note_off_c, 0, 68, 100
2, 8348, Note_off_c, 0, 71, 100
2, 8352, Note_on_c, 0, 69, 80
2, 8444, Note_off_c, 0, 65, 100
2, 8444, Note_off_c, 0, 69, 100
2, 8448, Note_on_c, 0, 69, 80
2, 8448, Note_on_c, 0, 64, 80
2, 9212, Note_off_c, 0, 69, 100
2, 9212, Note_off_c, 0, 64, 100
2, 9216, Control_c, 0, 64, 127
2, 9984, Note_on_c, 0, 64, 70
2, 10368, Note_on_c, 0, 67, 70
2, 10752, Note_on_c, 0, 72, 70
2, 11516, Note_off_c, 0, 67, 100
2, 11896, Control_c, 0, 64, 0
2, 11900, Note_off_c, 0, 64, 100
2, 11900, Note_off_c, 0, 72, 100
2, 11904, Note_on_c, 0, 72, 80
2, 12092, Note_off_c, 0, 72, 100
2, 12096, Note_on_c, 0, 70, 80
2, 12284, Note_off_c, 0, 70, 100
2, 12288, Note_on_c, 0, 70, 81
2, 12476, Note_off_c, 0, 70, 100
2, 12480, Note_on_c, 0, 68, 82
2, 12668, Note_off_c, 0, 68, 100
2, 12672, Note_on_c, 0, 68, 83
2, 12860, Note_off_c, 0, 68, 100
2, 12864, Note_on_c, 0, 69, 84
2, 13052, Note_off_c, 0, 69, 100
2, 13056, Note_on_c, 0, 69, 85
2, 13244, Note_off_c, 0, 69, 100
2, 13248, Note_on_c, 0, 74, 86
2, 13436, Note_off_c, 0, 74, 100
2, 13440, Note_on_c, 0, 74, 87
2, 13628, Note_off_c, 0, 74, 100
2, 13632, Note_on_c, 0, 72, 88
2, 13820, Note_off_c, 0, 72, 100
2, 13824, Note_on_c, 0, 72, 89
2, 14012, Note_off_c, 0, 72, 100
2, 14016, Note_on_c, 0, 69, 90
2, 14204, Note_off_c, 0, 69, 100
2, 14208, Note_on_c, 0, 69, 91
2, 14396, Note_off_c, 0, 69, 100
2, 14400, Note_on_c, 0, 70, 92
2, 14588, Note_off_c, 0, 70, 100
2, 14592, Note_on_c, 0, 70, 93
2, 14780, Note_off_c, 0, 70, 100
2, 14784, Note_on_c, 0, 75, 94
2, 14972, Note_off_c, 0, 75, 100
2, 14976, Note_on_c, 0, 75, 95
2, 15164, Note_off_c, 0, 75, 100
2, 15168, Note_on_c, 0, 74, 95
2, 15356, Note_off_c, 0, 74, 100
2, 15360, Note_on_c, 0, 74, 96
2, 15548, Note_off_c, 0, 74, 100
2, 15552, Note_on_c, 0, 73, 97
2, 15740, Note_off_c, 0, 73, 100
2, 15744, Note_on_c, 0, 73, 98
2, 15932, Note_off_c, 0, 73, 100
2, 15936, Note_on_c, 0, 82, 99
2, 16124, Note_off_c, 0, 82, 100
2, 16128, Note_on_c, 0, 82, 100
2, 16316, Note_off_c, 0, 82, 100
2, 16320, Note_on_c, 0, 76, 101
2, 16508, Note_off_c, 0, 76, 100
2, 16512, Note_on_c, 0, 76, 102
2, 16700, Note_off_c, 0, 76, 100
2, 16704, Note_on_c, 0, 85, 103
2, 16892, Note_off_c, 0, 85, 100
2, 16896, Note_on_c, 0, 85, 104
2, 17084, Note_off_c, 0, 85, 100
2, 17088, Note_on_c, 0, 77, 105
2, 17276, Note_off_c, 0, 77, 100
2, 17280, Note_on_c, 0, 77, 106
2, 17468, Note_off_c, 0, 77, 100
2, 17472, Note_on_c, 0, 86, 107
2, 17660, Note_off_c, 0, 86, 100
2, 17664, Note_on_c, 0, 86, 108
2, 17852, Note_off_c, 0, 86, 100
2, 17856, Note_on_c, 0, 77, 109
2, 18044, Note_off_c, 0, 77, 100
2, 18048, Note_on_c, 0, 77, 110
2, 18236, Note_off_c, 0, 77, 100
2, 18240, Note_on_c, 0, 89, 110
2, 18428, Note_off_c, 0, 89, 100
2, 18432, Note_on_c, 0, 89, 110
2, 18620, Note_off_c, 0, 89, 100
2, 18624, Note_on_c, 0, 85, 110
2, 18812, Note_off_c, 0, 85, 100
2, 18816, Note_on_c, 0, 85, 110
2, 19004, Note_off_c, 0, 85, 100
2, 19008, Note_on_c, 0, 86, 110
2, 19196, Note_off_c, 0, 86, 100
2, 19200, Note_on_c, 0, 86, 110
2, 19388, Note_off_c, 0, 86, 100
2, 19392, Note_on_c, 0, 80, 110
2, 19580, Note_off_c, 0, 80, 100
2, 19584, Note_on_c, 0, 80, 110
2, 19772, Note_off_c, 0, 80, 100
2, 19776, Note_on_c, 0, 81, 110
2, 19964, Note_off_c, 0, 81, 100
2, 19968, Note_on_c, 0, 81, 110
2, 20156, Note_off_c, 0, 81, 100
2, 20160, Note_on_c, 0, 76, 110
2, 20348, Note_off_c, 0, 76, 100
2, 20352, Note_on_c, 0, 76, 110
2, 20540, Note_off_c, 0, 76, 100
2, 20544, Note_on_c, 0, 77, 110
2, 20732, Note_off_c, 0, 77, 100
2, 20736, Note_on_c, 0, 77, 110
2, 20924, Note_off_c, 0, 77, 100
2, 20928, Note_on_c, 0, 73, 110
2, 21116, Note_off_c, 0, 73, 100
2, 21120, Note_on_c, 0, 73, 110
2, 21308, Note_off_c, 0, 73, 100
2, 21312, Note_on_c, 0, 74, 110
2, 21500, Note_off_c, 0, 74, 100
2, 21504, Note_on_c, 0, 74, 110
2, 21692, Note_off_c, 0, 74, 100
2, 21696, Note_on_c, 0, 68, 110
2, 21884, Note_off_c, 0, 68, 100
2, 21888, Note_on_c, 0, 68, 110
2, 22076, Note_off_c, 0, 68, 100
2, 22080, Note_on_c, 0, 69, 110
2, 22268, Note_off_c, 0, 69, 100
2, 22272, Note_on_c, 0, 69, 110
2, 22460, Note_off_c, 0, 69, 100
2, 22464, Note_on_c, 0, 64, 110
2, 22652, Note_off_c, 0, 64, 100
2, 22656, Note_on_c, 0, 64, 110
2, 22844, Note_off_c, 0, 64, 100
2, 22848, Note_on_c, 0, 65, 110
2, 23036, Note_off_c, 0, 65, 100
2, 23040, Note_on_c, 0, 65, 110
2, 23228, Note_off_c, 0, 65, 100
2, 23232, Note_on_c, 0, 61, 110
2, 23420, Note_off_c, 0, 61, 100
2, 23424, Note_on_c, 0, 61, 110
2, 23612, Note_off_c, 0, 61, 100
2, 23616, Note_on_c, 0, 62, 110
2, 23804, Note_off_c, 0, 62, 100
2, 23808, Note_on_c, 0, 62, 110
2, 23996, Note_off_c, 0, 62, 100
2, 24000, Note_on_c, 0, 58, 110
2, 24188, Note_off_c, 0, 58, 100
2, 24192, Note_on_c, 0, 58, 110
2, 24380, Note_off_c, 0, 58, 100
2, 24384, Note_on_c, 0, 57, 110
2, 24572, Note_off_c, 0, 57, 100
2, 24576, Note_on_c, 0, 57, 110
2, 24764, Note_off_c, 0, 57, 100
2, 24768, Note_on_c, 0, 61, 110
2, 24956, Note_off_c, 0, 61, 100
2, 24960, Note_on_c, 0, 61, 110
2, 25148, Note_off_c, 0, 61, 100
2, 25152, Note_on_c, 0, 62, 110
2, 25340, Note_off_c, 0, 62, 100
2, 25344, Note_on_c, 0, 62, 110
2, 25532, Note_off_c, 0, 62, 100
2, 25536, Note_on_c, 0, 58, 110
2, 25724, Note_off_c, 0, 58, 100
2, 25728, Note_on_c, 0, 58, 110
2, 25916, Note_off_c, 0, 58, 100
2, 25920, Note_on_c, 0, 57, 110
2, 26108, Note_off_c, 0, 57, 100
2, 26112, Note_on_c, 0, 57, 110
2, 26300, Note_off_c, 0, 57, 100
2, 26304, Note_on_c, 0, 61, 110
2, 26492, Note_off_c, 0, 61, 100
2, 26496, Note_on_c, 0, 61, 110
2, 26684, Note_off_c, 0, 61, 100
2, 26688, Note_on_c, 0, 62, 110
2, 26876, Note_off_c, 0, 62, 100
2, 26880, Note_on_c, 0, 62, 110
2, 27068, Note_off_c, 0, 62, 100
2, 27072, Note_on_c, 0, 58, 110
2, 27260, Note_off_c, 0, 58, 100
2, 27264, Note_on_c, 0, 58, 110
2, 27452, Note_off_c, 0, 58, 100
2, 27456, Note_on_c, 0, 57, 110
2, 27644, Note_off_c, 0, 57, 100
2, 27648, Note_on_c, 0, 57, 110
2, 27836, Note_off_c, 0, 57, 100
2, 27840, Note_on_c, 0, 58, 110
2, 28028, Note_off_c, 0, 58, 100
2, 28032, Note_on_c, 0, 59, 110
2, 28220, Note_off_c, 0, 59, 100
2, 28224, Note_on_c, 0, 60, 110
2, 28412, Note_off_c, 0, 60, 100
2, 28416, Note_on_c, 0, 61, 110
2, 28604, Note_off_c, 0, 61, 100
2, 28608, Note_on_c, 0, 62, 110
2, 28796, Note_off_c, 0, 62, 100
2, 28800, Note_on_c, 0, 63, 110
2, 28988, Note_off_c, 0, 63, 100
2, 28992, Note_on_c, 0, 64, 110
2, 29180, Note_off_c, 0, 64, 100
2, 29184, Note_on_c, 0, 65, 110
2, 29372, Note_off_c, 0, 65, 100
2, 29376, Note_on_c, 0, 66, 110
2, 29564, Note_off_c, 0, 66, 100
2, 29568, Note_on_c, 0, 67, 110
2, 29756, Note_off_c, 0, 67, 100
2, 29760, Note_on_c, 0, 68, 110
2, 29948, Note_off_c, 0, 68, 100
2, 29952, Note_on_c, 0, 69, 110
2, 30140, Note_off_c, 0, 69, 100
2, 30144, Note_on_c, 0, 70, 110
2, 30332, Note_off_c, 0, 70, 100
2, 30336, Note_on_c, 0, 61, 110
2, 30524, Note_off_c, 0, 61, 100
2, 30528, Note_on_c, 0, 69, 110
2, 30716, Note_off_c, 0, 69, 100
2, 30720, Control_c, 0, 64, 127
2, 30720, Note_on_c, 0, 62, 110
2, 30848, Note_on_c, 0, 57, 110
2, 30908, Note_off_c, 0, 62, 100
2, 30976, Note_on_c, 0, 53, 110
2, 31044, Note_off_c, 0, 57, 100
2, 31104, Note_on_c, 0, 57, 110
2, 31200, Note_off_c, 0, 53, 100
2, 31232, Note_on_c, 0, 53, 110
2, 31320, Note_off_c, 0, 57, 100
2, 31360, Note_on_c, 0, 57, 110
2, 31424, Note_off_c, 0, 53, 100
2, 31488, Note_on_c, 0, 53, 110
2, 31576, Note_off_c, 0, 57, 100
2, 31616, Note_on_c, 0, 57, 110
2, 31700, Note_off_c, 0, 53, 100
2, 31744, Note_on_c, 0, 53, 110
2, 31824, Note_off_c, 0, 57, 100
2, 31872, Note_on_c, 0, 57, 110
2, 31952, Note_off_c, 0, 53, 100
2, 32000, Note_on_c, 0, 53, 110
2, 32072, Note_off_c, 0, 57, 100
2, 32128, Note_on_c, 0, 57, 110
2, 32192, Note_off_c, 0, 53, 100
2, 32248, Control_c, 0, 64, 0
2, 32256, Control_c, 0, 64, 127
2, 32256, Note_on_c, 0, 53, 110
2, 32332, Note_off_c, 0, 57, 100
2, 32384, Note_on_c, 0, 57, 107
2, 32464, Note_off_c, 0, 53, 100
2, 32512, Note_on_c, 0, 53, 103
2, 32592, Note_off_c, 0, 57, 100
2, 32640, Note_on_c, 0, 57, 99
2, 32716, Note_off_c, 0, 53, 100
2, 32768, Note_on_c, 0, 53, 96
2, 32848, Note_off_c, 0, 57, 100
2, 32896, Note_on_c, 0, 57, 92
2, 32976, Note_off_c, 0, 53, 100
2, 33024, Note_on_c, 0, 53, 88
2, 33108, Note_off_c, 0, 57, 100
2, 33152, Note_on_c, 0, 57, 84
2, 33232, Note_off_c, 0, 53, 100
2, 33280, Note_on_c, 0, 53, 81
2, 33336, Note_off_c, 0, 57, 100
2, 33408, Note_on_c, 0, 57, 80
2, 33408, Note_on_c, 0, 69, 93
2, 33484, Note_off_c, 0, 53, 100
2, 33536, Note_on_c, 0, 53, 80
2, 33616, Note_off_c, 0, 57, 100
2, 33664, Note_on_c, 0, 57, 80
2, 33716, Note_off_c, 0, 53, 100
2, 33784, Control_c, 0, 64, 0
2, 33788, Note_off_c, 0, 69, 100
2, 33792, Control_c, 0, 64, 127
2, 33792, Note_on_c, 0, 53, 80
2, 33792, Note_on_c, 0, 68, 100
2, 33856, Note_off_c, 0, 57, 100
2, 33920, Note_on_c, 0, 57, 80
2, 34000, Note_off_c, 0, 53, 100
2, 34048, Note_on_c, 0, 53, 80
2, 34124, Note_off_c, 0, 57, 100
2, 34172, Note_off_c, 0, 68, 100
2, 34176, Note_on_c, 0, 57, 80
2, 34176, Note_on_c, 0, 69, 105
2, 34244, Note_off_c, 0, 53, 100
2, 34304, Note_on_c, 0, 53, 80
2, 34396, Note_off_c, 0, 57, 100
2, 34432, Note_on_c, 0, 57, 80
2, 34504, Note_off_c, 0, 53, 100
2, 34556, Note_off_c, 0, 69, 100
2, 34560, Note_on_c, 0, 53, 80
2, 34560, Note_on_c, 0, 70, 101
2, 34628, Note_off_c, 0, 57, 100
2, 34688, Note_on_c, 0, 57, 80
2, 34760, Note_off_c, 0, 53, 100
2, 34816, Note_on_c, 0, 53, 80
2, 34896, Note_off_c, 0, 57, 100
2, 34940, Note_off_c, 0, 70, 100
2, 34944, Note_on_c, 0, 57, 80
2, 34944, Note_on_c, 0, 69, 100
2, 35000, Note_off_c, 0, 53, 100
2, 35072, Note_on_c, 0, 53, 80
2, 35144, Note_off_c, 0, 57, 100
2, 35200, Note_on_c, 0, 57, 80
2, 35316, Note_off_c, 0, 53, 100
2, 35320, Control_c, 0, 64, 0
2, 35324, Note_off_c, 0, 69, 100
2, 35328, Control_c, 0, 64, 127
2, 35328, Note_on_c, 0, 53, 80
2, 35328, Note_on_c, 0, 69, 102
2, 35396, Note_off_c, 0, 57, 100
2, 35456, Note_on_c, 0, 57, 80
2, 35524, Note_off_c, 0, 53, 100
2, 35584, Note_on_c, 0, 53, 80
2, 35648, Note_off_c, 0, 57, 100
2, 35712, Note_on_c, 0, 57, 80
2, 35768, Note_off_c, 0, 53, 100
2, 35840, Note_on_c, 0, 53, 80
2, 35928, Note_off_c, 0, 57, 100
2, 35968, Note_on_c, 0, 57, 80
2, 36048, Note_off_c, 0, 53, 100
2, 36092, Note_off_c, 0, 69, 100
2, 36096, Note_on_c, 0, 53, 80
2, 36096, Note_on_c, 0, 69, 101
2, 36164, Note_off_c, 0, 57, 100
2, 36224, Note_on_c, 0, 57, 80
2, 36296, Note_off_c, 0, 53, 100
2, 36352, Note_on_c, 0, 53, 80
2, 36420, Note_off_c, 0, 57, 100
2, 36480, Note_on_c, 0, 57, 80
2, 36544, Note_off_c, 0, 53, 100
2, 36608, Note_on_c, 0, 53, 80
2, 36696, Note_off_c, 0, 57, 100
2, 36736, Note_on_c, 0, 57, 80
2, 36824, Note_off_c, 0, 53, 100
2, 36856, Control_c, 0, 64, 0
2, 36860, Note_off_c, 0, 69, 100
2, 36860, Note_off_c, 0, 57, 100
2, 36864, Control_c, 0, 64, 127
2, 36864, Note_on_c, 0, 69, 110
2, 36992, Note_on_c, 0, 61, 110
2, 37076, Note_off_c, 0, 69, 100
2, 37120, Note_on_c, 0, 55, 110
2, 37232, Note_off_c, 0, 61, 100
2, 37248, Note_on_c, 0, 61, 110
2, 37356, Note_off_c, 0, 55, 100
2, 37376, Note_on_c, 0, 55, 110
2, 37480, Note_off_c, 0, 61, 100
2, 37504, Note_on_c, 0, 61, 110
2, 37616, Note_off_c, 0, 55, 100
2, 37632, Note_on_c, 0, 55, 110
2, 37744, Note_off_c, 0, 61, 100
2, 37760, Note_on_c, 0, 61, 110
2, 37872, Note_off_c, 0, 55, 100
2, 37888, Note_on_c, 0, 55, 110
2, 38000, Note_off_c, 0, 61, 100
2, 38016, Note_on_c, 0, 61, 110
2, 38108, Note_off_c, 0, 55, 100
2, 38144, Note_on_c, 0, 55, 110
2, 38260, Note_off_c, 0, 61, 100
2, 38272, Note_on_c, 0, 61, 110
2, 38372, Note_off_c, 0, 55, 100
2, 38392, Control_c, 0, 64, 0
2, 38400, Control_c, 0, 64, 127
2, 38400, Note_on_c, 0, 55, 107
2, 38516, Note_off_c, 0, 61, 100
2, 38528, Note_on_c, 0, 61, 104
2, 38640, Note_off_c, 0, 55, 100
2, 38656, Note_on_c, 0, 55, 101
2, 38768, Note_off_c, 0, 61, 100
2, 38784, Note_on_c, 0, 61, 97
2, 38876, Note_off_c, 0, 55, 100
2, 38912, Note_on_c, 0, 55, 94
2, 39028, Note_off_c, 0, 61, 100
2, 39040, Note_on_c, 0, 61, 91
2, 39140, Note_off_c, 0, 55, 100
2, 39168, Note_on_c, 0, 55, 87
2, 39284, Note_off_c, 0, 61, 100
2, 39296, Note_on_c, 0, 61, 84
2, 39408, Note_off_c, 0, 55, 100
2, 39424, Note_on_c, 0, 55, 81
2, 39536, Note_off_c, 0, 61, 100
2, 39552, Note_on_c, 0, 61, 80
2, 39552, Note_on_c, 0, 69, 100
2, 39644, Note_off_c, 0, 55, 100
2, 39680, Note_on_c, 0, 55, 80
2, 39796, Note_off_c, 0, 61, 100
2, 39808, Note_on_c, 0, 61, 80
2, 39908, Note_off_c, 0, 55, 100
2, 39928, Control_c, 0, 64, 0
2, 39932, Note_off_c, 0, 69, 100
2, 39936, Control_c, 0, 64, 127
2, 39936, Note_on_c, 0, 55, 80
2, 39936, Note_on_c, 0, 68, 102
2, 40052, Note_off_c, 0, 61, 100
2, 40064, Note_on_c, 0, 61, 80
2, 40176, Note_off_c, 0, 55, 100
2, 40192, Note_on_c, 0, 55, 80
2, 40304, Note_off_c, 0, 61, 100
2, 40316, Note_off_c, 0, 68, 100
2, 40320, Note_on_c, 0, 61, 80
2, 40320, Note_on_c, 0, 69, 103
2, 40412, Note_off_c, 0, 55, 100
2, 40448, Note_on_c, 0, 55, 80
2, 40564, Note_off_c, 0, 61, 100
2, 40576, Note_on_c, 0, 61, 80
2, 40676, Note_off_c, 0, 55, 100
2, 40700, Note_off_c, 0, 69, 100
2, 40704, Note_on_c, 0, 55, 80
2, 40704, Note_on_c, 0, 70, 103
2, 40820, Note_off_c, 0, 61, 100
2, 40832, Note_on_c, 0, 61, 80
2, 40944, Note_off_c, 0, 55, 100
2, 40960, Note_on_c, 0, 55, 80
2, 41072, Note_off_c, 0, 61, 100
2, 41084, Note_off_c, 0, 70, 100
2, 41088, Note_on_c, 0, 61, 80
2, 41088, Note_on_c, 0, 69, 103
2, 41180, Note_off_c, 0, 55, 100
2, 41216, Note_on_c, 0, 55, 80
2, 41332, Note_off_c, 0, 61, 100
2, 41344, Note_on_c, 0, 61, 80
2, 41444, Note_off_c, 0, 55, 100
2, 41464, Control_c, 0, 64, 0
2, 41468, Note_off_c, 0, 69, 100
2, 41472, Control_c, 0, 64, 127
2, 41472, Note_on_c, 0, 55, 80
2, 41472, Note_on_c, 0, 69, 103
2, 41588, Note_off_c, 0, 61, 100
2, 41600, Note_on_c, 0, 61, 80
2, 41712, Note_off_c, 0, 55, 100
2, 41728, Note_on_c, 0, 55, 80
2, 41840, Note_off_c, 0, 61, 100
2, 41856, Note_on_c, 0, 61, 80
2, 41948, Note_off_c, 0, 55, 100
2, 41984, Note_on_c, 0, 55, 80
2, 42100, Note_off_c, 0, 61, 100
2, 42112, Note_on_c, 0, 61, 80
2, 42212, Note_off_c, 0, 55, 100
2, 42236, Note_off_c, 0, 69, 100
2, 42240, Note_on_c, 0, 55, 80
2, 42240, Note_on_c, 0, 69, 100
2, 42356, Note_off_c, 0, 61, 100
2, 42368, Note_on_c, 0, 61, 80
2, 42480, Note_off_c, 0, 55, 100
2, 42496, Note_on_c, 0, 55, 80
2, 42608, Note_off_c, 0, 61, 100
2, 42624, Note_on_c, 0, 61, 80
2, 42716, Note_off_c, 0, 55, 100
2, 42752, Note_on_c, 0, 55, 80
2, 42868, Note_off_c, 0, 61, 100
2, 42880, Note_on_c, 0, 61, 80
2, 42980, Note_off_c, 0, 55, 100
2, 43000, Control_c, 0, 64, 0
2, 43004, Note_off_c, 0, 69, 100
2, 43004, Note_off_c, 0, 61, 100
2, 43008, Control_c, 0, 64, 127
2, 43008, Note_on_c, 0, 69, 110
2, 43136, Note_on_c, 0, 62, 110
2, 43252, Note_off_c, 0, 69, 100
2, 43264, Note_on_c, 0, 57, 110
2, 43372, Note_off_c, 0, 62, 100
2, 43392, Note_on_c, 0, 62, 110
2, 43508, Note_off_c, 0, 57, 100
2, 43520, Note_on_c, 0, 57, 110
2, 43624, Note_off_c, 0, 62, 100
2, 43648, Note_on_c, 0, 62, 110
2, 43728, Note_off_c, 0, 57, 100
2, 43776, Note_on_c, 0, 57, 110
2, 43864, Note_off_c, 0, 62, 100
2, 43904, Note_on_c, 0, 62, 110
2, 44020, Note_off_c, 0, 57, 100
2, 44032, Note_on_c, 0, 57, 110
2, 44140, Note_off_c, 0, 62, 100
2, 44160, Note_on_c, 0, 62, 110
2, 44276, Note_off_c, 0, 57, 100
2, 44288, Note_on_c, 0, 57, 110
2, 44392, Note_off_c, 0, 62, 100
2, 44416, Note_on_c, 0, 62, 110
2, 44496, Note_off_c, 0, 57, 100
2, 44536, Control_c, 0, 64, 0
2, 44544, Control_c, 0, 64, 127
2, 44544, Note_on_c, 0, 57, 110
2, 44632, Note_off_c, 0, 62, 100
2, 44672, Note_on_c, 0, 62, 110
2, 44788, Note_off_c, 0, 57, 100
2, 44800, Note_on_c, 0, 57, 110
2, 44908, Note_off_c, 0, 62, 100
2, 44928, Note_on_c, 0, 62, 110
2, 45044, Note_off_c, 0, 57, 100
2, 45056, Note_on_c, 0, 57, 110
2, 45160, Note_off_c, 0, 62, 100
2, 45184, Note_on_c, 0, 62, 110
2, 45264, Note_off_c, 0, 57, 100
2, 45312, Note_on_c, 0, 57, 110
2, 45312, Note_on_c, 0, 74, 122
2, 45400, Note_off_c, 0, 62, 100
2, 45440, Note_on_c, 0, 62, 110
2, 45556, Note_off_c, 0, 57, 100
2, 45568, Note_on_c, 0, 57, 110
2, 45676, Note_off_c, 0, 62, 100
2, 45692, Note_off_c, 0, 74, 100
2, 45696, Note_on_c, 0, 62, 110
2, 45812, Note_off_c, 0, 57, 100
2, 45824, Note_on_c, 0, 57, 110
2, 45928, Note_off_c, 0, 62, 100
2, 45952, Note_on_c, 0, 62, 110
2, 46032, Note_off_c, 0, 57, 100
2, 46072, Control_c, 0, 64, 0
2, 46076, Note_off_c, 0, 62, 100
2, 46080, Control_c, 0, 64, 127
2, 46080, Note_on_c, 0, 64, 110
2, 46208, Note_on_c, 0, 59, 110
2, 46284, Note_off_c, 0, 64, 100
2, 46336, Note_on_c, 0, 64, 110
2, 46420, Note_off_c, 0, 59, 100
2, 46464, Note_on_c, 0, 59, 110
2, 46556, Note_off_c, 0, 64, 100
2, 46592, Note_on_c, 0, 64, 110
2, 46688, Note_off_c, 0, 59, 100
2, 46720, Note_on_c, 0, 59, 110
2, 46800, Note_off_c, 0, 64, 100
2, 46848, Note_on_c, 0, 64, 110
2, 46900, Note_off_c, 0, 59, 100
2, 46976, Note_on_c, 0, 59, 110
2, 47052, Note_off_c, 0, 64, 100
2, 47104, Note_on_c, 0, 64, 110
2, 47188, Note_off_c, 0, 59, 100
2, 47232, Note_on_c, 0, 59, 110
2, 47324, Note_off_c, 0, 64, 100
2, 47360, Note_on_c, 0, 64, 110
2, 47456, Note_off_c, 0, 59, 100
2, 47488, Note_on_c, 0, 59, 110
2, 47568, Note_off_c, 0, 64, 100
2, 47608, Control_c, 0, 64, 0
2, 47616, Note_on_c, 0, 64, 110
2, 47668, Note_off_c, 0, 59, 100
2, 47744, Note_on_c, 0, 59, 110
2, 47820, Note_off_c, 0, 64, 100
2, 47872, Note_on_c, 0, 64, 110
2, 47956, Note_off_c, 0, 59, 100
2, 48000, Note_on_c, 0, 59, 110
2, 48092, Note_off_c, 0, 64, 100
2, 48128, Note_on_c, 0, 64, 110
2, 48224, Note_off_c, 0, 59, 100
2, 48256, Note_on_c, 0, 59, 110
2, 48336, Note_off_c, 0, 64, 100
2, 48384, Note_on_c, 0, 64, 110
2, 48384, Note_on_c, 0, 76, 120
2, 48436, Note_off_c, 0, 59, 100
2, 48512, Note_on_c, 0, 59, 110
2, 48588, Note_off_c, 0, 64, 100
2, 48640, Note_on_c, 0, 64, 110
2, 48724, Note_off_c, 0, 59, 100
2, 48764, Note_off_c, 0, 76, 100
2, 48768, Note_on_c, 0, 59, 110
2, 48860, Note_off_c, 0, 64, 100
2, 48896, Note_on_c, 0, 64, 110
2, 48992, Note_off_c, 0, 59, 100
2, 49024, Note_on_c, 0, 59, 110
2, 49104, Note_off_c, 0, 64, 100
2, 49148, Note_off_c, 0, 59, 100
2, 49152, Control_c, 0, 64, 127
2, 49152, Note_on_c, 0, 65, 110
2, 49280, Note_on_c, 0, 60, 110
2, 49364, Note_off_c, 0, 65, 100
2, 49408, Note_on_c, 0, 65, 110
2, 49488, Note_off_c, 0, 60, 100
2, 49536, Note_on_c, 0, 60, 110
2, 49632, Note_off_c, 0, 65, 100
2, 49664, Note_on_c, 0, 65, 110
2, 49776, Note_off_c, 0, 60, 100
2, 49792, Note_on_c, 0, 60, 110
2, 49884, Note_off_c, 0, 65, 100
2, 49920, Note_on_c, 0, 65, 110
2, 50024, Note_off_c, 0, 60, 100
2, 50048, Note_on_c, 0, 60, 110
2, 50132, Note_off_c, 0, 65, 100
2, 50176, Note_on_c, 0, 65, 110
2, 50256, Note_off_c, 0, 60, 100
2, 50304, Note_on_c, 0, 60, 110
2, 50400, Note_off_c, 0, 65, 100
2, 50432, Note_on_c, 0, 65, 110
2, 50544, Note_off_c, 0, 60, 100
2, 50560, Note_on_c, 0, 60, 110
2, 50652, Note_off_c, 0, 65, 100
2, 50680, Control_c, 0, 64, 0
2, 50688, Control_c, 0, 64, 127
2, 50688, Note_on_c, 0, 65, 110
2, 50792, Note_off_c, 0, 60, 100
2, 50816, Note_on_c, 0, 60, 110
2, 50900, Note_off_c, 0, 65, 100
2, 50944, Note_on_c, 0, 65, 110
2, 51024, Note_off_c, 0, 60, 100
2, 51072, Note_on_c, 0, 60, 110
2, 51168, Note_off_c, 0, 65, 100
2, 51200, Note_on_c, 0, 65, 110
2, 51312, Note_off_c, 0, 60, 100
2, 51328, Note_on_c, 0, 60, 110
2, 51420, Note_off_c, 0, 65, 100
2, 51456, Note_on_c, 0, 65, 110
2, 51456, Note_on_c, 0, 77, 121
2, 51560, Note_off_c, 0, 60, 100
2, 51584, Note_on_c, 0, 60, 110
2, 51668, Note_off_c, 0, 65, 100
2, 51712, Note_on_c, 0, 65, 110
2, 51792, Note_off_c, 0, 60, 100
2, 51836, Note_off_c, 0, 77, 100
2, 51840, Note_on_c, 0, 60, 110
2, 51936, Note_off_c, 0, 65, 100
2, 51968, Note_on_c, 0, 65, 110
2, 52080, Note_off_c, 0, 60, 100
2, 52096, Note_on_c, 0, 60, 110
2, 52188, Note_off_c, 0, 65, 100
2, 52216, Control_c, 0, 64, 0
2, 52220, Note_off_c, 0, 60, 100
2, 52224, Control_c, 0, 64, 127
2, 52224, Note_on_c, 0, 68, 110
2, 52352, Note_on_c, 0, 62, 110
2, 52448, Note_off_c, 0, 68, 100
2, 52480, Note_on_c, 0, 68, 110
2, 52576, Note_off_c, 0, 62, 100
2, 52608, Note_on_c, 0, 62, 110
2, 52684, Note_off_c, 0, 68, 100
2, 52736, Note_on_c, 0, 68, 110
2, 52828, Note_off_c, 0, 62, 100
2, 52864, Note_on_c, 0, 62, 110
2, 52960, Note_off_c, 0, 68, 100
2, 52992, Note_on_c, 0, 68, 110
2, 53080, Note_off_c, 0, 62, 100
2, 53120, Note_on_c, 0, 62, 110
2, 53216, Note_off_c, 0, 68, 100
2, 53248, Note_on_c, 0, 68, 110
2, 53344, Note_off_c, 0, 62, 100
2, 53376, Note_on_c, 0, 62, 110
2, 53452, Note_off_c, 0, 68, 100
2, 53504, Note_on_c, 0, 68, 110
2, 53596, Note_off_c, 0, 62, 100
2, 53632, Note_on_c, 0, 62, 110
2, 53728, Note_off_c, 0, 68, 100
2, 53752, Control_c, 0, 64, 0
2, 53760, Control_c, 0, 64, 127
2, 53760, Note_on_c, 0, 68, 110
2, 53848, Note_off_c, 0, 62, 100
2, 53888, Note_on_c, 0, 62, 110
2, 53984, Note_off_c, 0, 68, 100
2, 54016, Note_on_c, 0, 68, 110
2, 54112, Note_off_c, 0, 62, 100
2, 54144, Note_on_c, 0, 62, 110
2, 54220, Note_off_c, 0, 68, 100
2, 54272, Note_on_c, 0, 68, 110
2, 54364, Note_off_c, 0, 62, 100
2, 54400, Note_on_c, 0, 62, 110
2, 54496, Note_off_c, 0, 68, 100
2, 54528, Note_on_c, 0, 68, 110
2, 54528, Note_on_c, 0, 80, 120
2, 54616, Note_off_c, 0, 62, 100
2, 54656, Note_on_c, 0, 62, 110
2, 54752, Note_off_c, 0, 68, 100
2, 54784, Note_on_c, 0, 68, 110
2, 54880, Note_off_c, 0, 62, 100
2, 54908, Note_off_c, 0, 80, 100
2, 54912, Note_on_c, 0, 62, 110
2, 54988, Note_off_c, 0, 68, 100
2, 55040, Note_on_c, 0, 68, 110
2, 55132, Note_off_c, 0, 62, 100
2, 55168, Note_on_c, 0, 62, 110
2, 55264, Note_off_c, 0, 68, 100
2, 55288, Control_c, 0, 64, 0
2, 55292, Note_off_c, 0, 62, 100
2, 55296, Control_c, 0, 64, 127
2, 55296, Note_on_c, 0, 69, 110
2, 55424, Note_on_c, 0, 64, 110
2, 55512, Note_off_c, 0, 69, 100
2, 55552, Note_on_c, 0, 69, 110
2, 55664, Note_off_c, 0, 64, 100
2, 55680, Note_on_c, 0, 64, 110
2, 55788, Note_off_c, 0, 69, 100
2, 55808, Note_on_c, 0, 69, 110
2, 55916, Note_off_c, 0, 64, 100
2, 55936, Note_on_c, 0, 64, 110
2, 56052, Note_off_c, 0, 69, 100
2, 56064, Note_on_c, 0, 69, 110
2, 56156, Note_off_c, 0, 64, 100
2, 56192, Note_on_c, 0, 64, 110
2, 56280, Note_off_c, 0, 69, 100
2, 56320, Note_on_c, 0, 69, 110
2, 56432, Note_off_c, 0, 64, 100
2, 56448, Note_on_c, 0, 64, 110
2, 56556, Note_off_c, 0, 69, 100
2, 56576, Note_on_c, 0, 69, 110
2, 56684, Note_off_c, 0, 64, 100
2, 56704, Note_on_c, 0, 64, 110
2, 56820, Note_off_c, 0, 69, 100
2, 56824, Control_c, 0, 64, 0
2, 56828, Note_off_c, 0, 64, 100
2, 56832, Control_c, 0, 64, 127
2, 56832, Note_on_c, 0, 69, 110
2, 56960, Note_on_c, 0, 72, 110
2, 57036, Note_off_c, 0, 69, 100
2, 57088, Note_on_c, 0, 69, 110
2, 57168, Note_off_c, 0, 72, 100
2, 57216, Note_on_c, 0, 72, 110
2, 57296, Note_off_c, 0, 69, 100
2, 57344, Note_on_c, 0, 69, 110
2, 57436, Note_off_c, 0, 72, 100
2, 57472, Note_on_c, 0, 72, 110
2, 57560, Note_off_c, 0, 69, 100
2, 57600, Note_on_c, 0, 69, 110
2, 57600, Note_on_c, 0, 81, 120
2, 57680, Note_off_c, 0, 72, 100
2, 57728, Note_on_c, 0, 72, 110
2, 57804, Note_off_c, 0, 69, 100
2, 57856, Note_on_c, 0, 69, 110
2, 57936, Note_off_c, 0, 72, 100
2, 57980, Note_off_c, 0, 81, 100
2, 57984, Note_on_c, 0, 72, 110
2, 58064, Note_off_c, 0, 69, 100
2, 58112, Note_on_c, 0, 69, 110
2, 58204, Note_off_c, 0, 72, 100
2, 58240, Note_on_c, 0, 72, 110
2, 58328, Note_off_c, 0, 69, 100
2, 58360, Control_c, 0, 64, 0
2, 58364, Note_off_c, 0, 72, 100
2, 58368, Control_c, 0, 64, 127
2, 58368, Note_on_c, 0, 69, 110
2, 58496, Note_on_c, 0, 72, 110
2, 58572, Note_off_c, 0, 69, 100
2, 58624, Note_on_c, 0, 69, 110
2, 58704, Note_off_c, 0, 72, 100
2, 58752, Note_on_c, 0, 72, 110
2, 58832, Note_off_c, 0, 69, 100
2, 58880, Note_on_c, 0, 69, 110
2, 58972, Note_off_c, 0, 72, 100
2, 59008, Note_on_c, 0, 72, 110
2, 59096, Note_off_c, 0, 69, 100
2, 59136, Note_on_c, 0, 69, 110
2, 59136, Note_on_c, 0, 81, 122
2, 59216, Note_off_c, 0, 72, 100
2, 59264, Note_on_c, 0, 72, 110
2, 59340, Note_off_c, 0, 69, 100
2, 59392, Note_on_c, 0, 69, 110
2, 59472, Note_off_c, 0, 72, 100
2, 59516, Note_off_c, 0, 81, 100
2, 59520, Note_on_c, 0, 72, 110
2, 59600, Note_off_c, 0, 69, 100
2, 59648, Note_on_c, 0, 69, 110
2, 59740, Note_off_c, 0, 72, 100
2, 59776, Note_on_c, 0, 72, 110
2, 59864, Note_off_c, 0, 69, 100
2, 59896, Control_c, 0, 64, 0
2, 59900, Note_off_c, 0, 72, 100
2, 59904, Control_c, 0, 64, 127
2, 59904, Note_on_c, 0, 69, 110
2, 60032, Note_on_c, 0, 72, 110
2, 60108, Note_off_c, 0, 69, 100
2, 60160, Note_on_c, 0, 69, 110
2, 60240, Note_off_c, 0, 72, 100
2, 60288, Note_on_c, 0, 72, 110
2, 60368, Note_off_c, 0, 69, 100
2, 60416, Note_on_c, 0, 69, 110
2, 60508, Note_off_c, 0, 72, 100
2, 60544, Note_on_c, 0, 72, 110
2, 60632, Note_off_c, 0, 69, 100
2, 60672, Note_on_c, 0, 69, 110
2, 60672, Note_on_c, 0, 81, 120
2, 60752, Note_off_c, 0, 72, 100
2, 60800, Note_on_c, 0, 72, 110
2, 60876, Note_off_c, 0, 69, 100
2, 60928, Note_on_c, 0, 69, 110
2, 61008, Note_off_c, 0, 72, 100
2, 61052, Note_off_c, 0, 81, 100
2, 61056, Note_on_c, 0, 72, 110
2, 61136, Note_off_c, 0, 69, 100
2, 61184, Note_on_c, 0, 69, 110
2, 61276, Note_off_c, 0, 72, 100
2, 61312, Note_on_c, 0, 72, 110
2, 61400, Note_off_c, 0, 69, 100
2, 61432, Control_c, 0, 64, 0
2, 61436, Note_off_c, 0, 72, 100
2, 61440, Note_on_c, 0, 80, 110
2, 61440, Note_on_c, 0, 71, 110
2, 61440, Note_on_c, 0, 68, 110
2, 61820, Note_off_c, 0, 80, 100
2, 61820, Note_off_c, 0, 71, 100
2, 61820, Note_off_c, 0, 68, 100
2, 62592, Note_on_c, 0, 83, 80
2, 62780, Note_off_c, 0, 83, 100
2, 62784, Note_on_c, 0, 80, 80
2, 62972, Note_off_c, 0, 80, 100
2, 62976, Note_on_c, 0, 76, 80
2, 63164, Note_off_c, 0, 76, 100
2, 63168, Note_on_c, 0, 77, 80
2, 63356, Note_off_c, 0, 77, 100
2, 63360, Note_on_c, 0, 77, 80
2, 63548, Note_off_c, 0, 77, 100
2, 63552, Note_on_c, 0, 74, 80
2, 63740, Note_off_c, 0, 74, 100
2, 64128, Note_on_c, 0, 83, 80
2, 64316, Note_off_c, 0, 83, 100
2, 64320, Note_on_c, 0, 80, 80
2, 64508, Note_off_c, 0, 80, 100
2, 64512, Note_on_c, 0, 76, 80
2, 64700, Note_off_c, 0, 76, 100
2, 64704, Note_on_c, 0, 77, 80
2, 64892, Note_off_c, 0, 77, 100
2, 64896, Note_on_c, 0, 77, 80
2, 65084, Note_off_c, 0, 77, 100
2, 65088, Note_on_c, 0, 74, 80
2, 65276, Note_off_c, 0, 74, 100
2, 65664, Note_on_c, 0, 83, 80
2, 65852, Note_off_c, 0, 83, 100
2, 65856, Note_on_c, 0, 80, 80
2, 66044, Note_off_c, 0, 80, 100
2, 66048, Note_on_c, 0, 76, 80
2, 66236, Note_off_c, 0, 76, 100
2, 66240, Note_on_c, 0, 77, 80
2, 66428, Note_off_c, 0, 77, 100
2, 66432, Note_on_c, 0, 77, 80
2, 66620, Note_off_c, 0, 77, 100
2, 66624, Note_on_c, 0, 74, 80
2, 66812, Note_off_c, 0, 74, 100
2, 66816, Note_on_c, 0, 74, 80
2, 67004, Note_off_c, 0, 74, 100
2, 67008, Note_on_c, 0, 72, 80
2, 67196, Note_off_c, 0, 72, 100
2, 67200, Note_on_c, 0, 72, 80
2, 67388, Note_off_c, 0, 72, 100
2, 67392, Note_on_c, 0, 71, 80
2, 67580, Note_off_c, 0, 71, 100
2, 67584, Note_on_c, 0, 71, 80
2, 67772, Note_off_c, 0, 71, 100
2, 67776, Note_on_c, 0, 72, 80
2, 67964, Note_off_c, 0, 72, 100
2, 67968, Note_on_c, 0, 69, 80
2, 68348, Note_off_c, 0, 69, 100
2, 68736, Note_on_c, 0, 84, 80
2, 68924, Note_off_c, 0, 84, 100
2, 68928, Note_on_c, 0, 81, 80
2, 69116, Note_off_c, 0, 81, 100
2, 69120, Note_on_c, 0, 75, 80
2, 69308, Note_off_c, 0, 75, 100
2, 69312, Note_on_c, 0, 76, 80
2, 69500, Note_off_c, 0, 76, 100
2, 69504, Note_on_c, 0, 76, 80
2, 69692, Note_off_c, 0, 76, 100
2, 69696, Note_on_c, 0, 72, 80
2, 69884, Note_off_c, 0, 72, 100
2, 70272, Note_on_c, 0, 84, 80
2, 70460, Note_off_c, 0, 84, 100
2, 70464, Note_on_c, 0, 81, 80
2, 70652, Note_off_c, 0, 81, 100
2, 70656, Note_on_c, 0, 75, 80
2, 70844, Note_off_c, 0, 75, 100
2, 70848, Note_on_c, 0, 76, 80
2, 71036, Note_off_c, 0, 76, 100
2, 71040, Note_on_c, 0, 76, 80
2, 71228, Note_off_c, 0, 76, 100
2, 71232, Note_on_c, 0, 72, 80
2, 71420, Note_off_c, 0, 72, 100
2, 71808, Note_on_c, 0, 84, 80
2, 71996, Note_off_c, 0, 84, 100
2, 72000, Note_on_c, 0, 81, 80
2, 72188, Note_off_c, 0, 81, 100
2, 72192, Note_on_c, 0, 75, 80
2, 72380, Note_off_c, 0, 75, 100
2, 72384, Note_on_c, 0, 76, 80
2, 72572, Note_off_c, 0, 76, 100
2, 72576, Note_on_c, 0, 76, 80
2, 72764, Note_off_c, 0, 76, 100
2, 72768, Note_on_c, 0, 72, 80
2, 72956, Note_off_c, 0, 72, 100
2, 72960, Note_on_c, 0, 72, 80
2, 73148, Note_off_c, 0, 72, 100
2, 73152, Note_on_c, 0, 71, 80
2, 73340, Note_off_c, 0, 71, 100
2, 73344, Note_on_c, 0, 71, 80
2, 73532, Note_off_c, 0, 71, 100
2, 73536, Note_on_c, 0, 69, 80
2, 73724, Note_off_c, 0, 69, 100
2, 73728, Note_on_c, 0, 69, 80
2, 73916, Note_off_c, 0, 69, 100
2, 73920, Note_on_c, 0, 68, 80
2, 74108, Note_off_c, 0, 68, 100
2, 74112, Note_on_c, 0, 71, 80
2, 74492, Note_off_c, 0, 71, 100
2, 74880, Note_on_c, 0, 89, 90
2, 75068, Note_off_c, 0, 89, 100
2, 75072, Note_on_c, 0, 86, 91
2, 75260, Note_off_c, 0, 86, 100
2, 75264, Note_on_c, 0, 85, 93
2, 75452, Note_off_c, 0, 85, 100
2, 75456, Note_on_c, 0, 86, 95
2, 75644, Note_off_c, 0, 86, 100
2, 75648, Note_on_c, 0, 83, 97
2, 76028, Note_off_c, 0, 83, 100
2, 76416, Note_on_c, 0, 89, 104
2, 76604, Note_off_c, 0, 89, 100
2, 76608, Note_on_c, 0, 86, 105
2, 76796, Note_off_c, 0, 86, 100
2, 76800, Note_on_c, 0, 85, 107
2, 76988, Note_off_c, 0, 85, 100
2, 76992, Note_on_c, 0, 86, 109
2, 77180, Note_off_c, 0, 86, 100
2, 77184, Note_on_c, 0, 83, 111
2, 77564, Note_off_c, 0, 83, 100
2, 77952, Note_on_c, 0, 89, 118
2, 78140, Note_off_c, 0, 89, 100
2, 78144, Note_on_c, 0, 86, 119
2, 78332, Note_off_c, 0, 86, 100
2, 78336, Note_on_c, 0, 83, 120
2, 78524, Note_off_c, 0, 83, 100
2, 78528, Note_on_c, 0, 86, 120
2, 78716, Note_off_c, 0, 86, 100
2, 78720, Note_on_c, 0, 80, 120
2, 78908, Note_off_c, 0, 80, 100
2, 78912, Note_on_c, 0, 83, 120
2, 79100, Note_off_c, 0, 83, 100
2, 79104, Note_on_c, 0, 77, 120
2, 79292, Note_off_c, 0, 77, 100
2, 79296, Note_on_c, 0, 80, 120
2, 79484, Note_off_c, 0, 80, 100
2, 79488, Note_on_c, 0, 74, 120
2, 79676, Note_off_c, 0, 74, 100
2, 79680, Note_on_c, 0, 77, 120
2, 79868, Note_off_c, 0, 77, 100
2, 79872, Note_on_c, 0, 71, 120
2, 80060, Note_off_c, 0, 71, 100
2, 80064, Note_on_c, 0, 74, 120
2, 80252, Note_off_c, 0, 74, 100
2, 80256, Note_on_c, 0, 68, 120
2, 80444, Note_off_c, 0, 68, 100
2, 80448, Note_on_c, 0, 71, 120
2, 80636, Note_off_c, 0, 71, 100
2, 80640, Note_on_c, 0, 65, 120
2, 80828, Note_off_c, 0, 65, 100
2, 80832, Note_on_c, 0, 68, 120
2, 81020, Note_off_c, 0, 68, 100
2, 81024, Note_on_c, 0, 62, 120
2, 81212, Note_off_c, 0, 62, 100
2, 81216, Note_on_c, 0, 65, 120
2, 81404, Note_off_c, 0, 65, 100
2, 81408, Note_on_c, 0, 59, 120
2, 81596, Note_off_c, 0, 59, 100
2, 81600, Note_on_c, 0, 62, 120
2, 81788, Note_off_c, 0, 62, 100
2, 81792, Note_on_c, 0, 56, 120
2, 81980, Note_off_c, 0, 56, 100
2, 81984, Note_on_c, 0, 59, 120
2, 82172, Note_off_c, 0, 59, 100
2, 82176, Note_on_c, 0, 50, 120
2, 82364, Note_off_c, 0, 50, 100
2, 82368, Note_on_c, 0, 59, 120
2, 82556, Note_off_c, 0, 59, 100
2, 82560, Note_on_c, 0, 56, 120
2, 82748, Note_off_c, 0, 56, 100
2, 82752, Note_on_c, 0, 50, 120
2, 82940, Note_off_c, 0, 50, 100
2, 82944, Note_on_c, 0, 48, 110
2, 83324, Note_off_c, 0, 48, 100
2, 83328, Note_on_c, 0, 52, 110
2, 83328, Note_on_c, 0, 48, 110
2, 83328, Note_on_c, 0, 57, 110
2, 83708, Note_off_c, 0, 52, 100
2, 83708, Note_off_c, 0, 48, 100
2, 83708, Note_off_c, 0, 57, 100
2, 83712, Note_on_c, 0, 58, 110
2, 83712, Note_on_c, 0, 53, 110
2, 83712, Note_on_c, 0, 50, 110
2, 85244, Note_off_c, 0, 58, 100
2, 85248, Note_on_c, 0, 57, 110
2, 85628, Note_off_c, 0, 57, 100
2, 85632, Note_on_c, 0, 56, 110
2, 86012, Note_off_c, 0, 50, 100
2, 86012, Note_off_c, 0, 53, 100
2, 86012, Note_off_c, 0, 56, 100
2, 86016, Note_on_c, 0, 57, 110
2, 86016, Note_on_c, 0, 52, 110
2, 86016, Note_on_c, 0, 48, 110
2, 86396, Note_off_c, 0, 57, 100
2, 86396, Note_off_c, 0, 52, 100
2, 86396, Note_off_c, 0, 48, 100
2, 86400, Note_on_c, 0, 64, 110
2, 86400, Note_on_c, 0, 60, 110
2, 86400, Note_on_c, 0, 69, 110
2, 86780, Note_off_c, 0, 64, 100
2, 86780, Note_off_c, 0, 60, 100
2, 86780, Note_off_c, 0, 69, 100
2, 86784, Note_on_c, 0, 70, 110
2, 86784, Note_on_c, 0, 65, 110
2, 86784, Note_on_c, 0, 62, 110
2, 88316, Note_off_c, 0, 70, 100
2, 88320, Note_on_c, 0, 69, 110
2, 88700, Note_off_c, 0, 69, 100
2, 88704, Note_on_c, 0, 68, 110
2, 89084, Note_off_c, 0, 62, 100
2, 89084, Note_off_c, 0, 65, 100
2, 89084, Note_off_c, 0, 68, 100
2, 89088, Note_on_c, 0, 69, 110
2, 89088, Note_on_c, 0, 64, 110
2, 89088, Note_on_c, 0, 60, 110
2, 89468, Note_off_c, 0, 69, 100
2, 89468, Note_off_c, 0, 64, 100
2, 89468, Note_off_c, 0, 60, 100
2, 89472, Note_on_c, 0, 81, 110
2, 89472, Note_on_c, 0, 69, 110
2, 89852, Note_off_c, 0, 81, 100
2, 89852, Note_off_c, 0, 69, 100
2, 89856, Note_on_c, 0, 82, 110
2, 89856, Note_on_c, 0, 70, 110
2, 91004, Note_off_c, 0, 70, 100
2, 91004, Note_off_c, 0, 82, 100
2, 91008, Note_on_c, 0, 83, 110
2, 91008, Note_on_c, 0, 71, 110
2, 91388, Note_off_c, 0, 83, 100
2, 91388, Note_off_c, 0, 71, 100
2, 91392, Note_on_c, 0, 84, 110
2, 91392, Note_on_c, 0, 72, 110
2, 92540, Note_off_c, 0, 72, 100
2, 92540, Note_off_c, 0, 84, 100
2, 92544, Note_on_c, 0, 85, 110
2, 92544, Note_on_c, 0, 73, 110
2, 92924, Note_off_c, 0, 85, 100
2, 92924, Note_off_c, 0, 73, 100
2, 92928, Note_on_c, 0, 86, 101
2, 92928, Note_on_c, 0, 74, 101
2, 93308, Note_off_c, 0, 86, 100
2, 93308, Note_off_c, 0, 74, 100
2, 93312, Note_on_c, 0, 88, 91
2, 93312, Note_on_c, 0, 76, 91
2, 93692, Note_off_c, 0, 88, 100
2, 93692, Note_off_c, 0, 76, 100
2, 93696, Note_on_c, 0, 89, 81
2, 93696, Note_on_c, 0, 77, 81
2, 94076, Note_off_c, 0, 89, 100
2, 94076, Note_off_c, 0, 77, 100
2, 94080, Note_on_c, 0, 77, 80
2, 94080, Note_on_c, 0, 65, 80
2, 94844, Note_off_c, 0, 77, 100
2, 94844, Note_off_c, 0, 65, 100
2, 94848, Note_on_c, 0, 76, 80
2, 94848, Note_on_c, 0, 64, 80
2, 95228, Note_off_c, 0, 76, 100
2, 95228, Note_off_c, 0, 64, 100
2, 95232, Note_on_c, 0, 69, 110
2, 95612, Note_off_c, 0, 69, 100
2, 96384, Note_on_c, 0, 64, 110
2, 96384, Note_on_c, 0, 61, 110
2, 96764, Note_off_c, 0, 64, 100
2, 96764, Note_off_c, 0, 61, 100
2, 96768, Note_on_c, 0, 65, 110
2, 96768, Note_on_c, 0, 62, 110
2, 97148, Note_off_c, 0, 65, 100
2, 97148, Note_off_c, 0, 62, 100
2, 97152, Note_on_c, 0, 74, 110
2, 97152, Note_on_c, 0, 65, 110
2, 97916, Note_off_c, 0, 74, 100
2, 97916, Note_off_c, 0, 65, 100
2, 97920, Note_on_c, 0, 74, 110
2, 97920, Note_on_c, 0, 65, 110
2, 98300, Note_off_c, 0, 74, 100
2, 98300, Note_off_c, 0, 65, 100
2, 98304, Note_on_c, 0, 73, 110
2, 98304, Note_on_c, 0, 64, 110
2, 98684, Note_off_c, 0, 73, 100
2, 98684, Note_off_c, 0, 64, 100
2, 99456, Note_on_c, 0, 64, 110
2, 99456, Note_on_c, 0, 61, 110
2, 99836, Note_off_c, 0, 64, 100
2, 99836, Note_off_c, 0, 61, 100
2, 99840, Note_on_c, 0, 65, 110
2, 99840, Note_on_c, 0, 62, 110
2, 100220, Note_off_c, 0, 65, 100
2, 100220, Note_off_c, 0, 62, 100
2, 100224, Note_on_c, 0, 77, 110
2, 100224, Note_on_c, 0, 74, 110
2, 100988, Note_off_c, 0, 77, 100
2, 100988, Note_off_c, 0, 74, 100
2, 100992, Note_on_c, 0, 77, 110
2, 100992, Note_on_c, 0, 74, 110
2, 101372, Note_off_c, 0, 77, 100
2, 101372, Note_off_c, 0, 74, 100
2, 101376, Note_on_c, 0, 76, 110
2, 101376, Note_on_c, 0, 73, 110
2, 101756, Note_off_c, 0, 76, 100
2, 101756, Note_off_c, 0, 73, 100
2, 102528, Note_on_c, 0, 64, 110
2, 102528, Note_on_c, 0, 61, 110
2, 102908, Note_off_c, 0, 64, 100
2, 102908, Note_off_c, 0, 61, 100
2, 102912, Note_on_c, 0, 65, 110
2, 102912, Note_on_c, 0, 62, 110
2, 103292, Note_off_c, 0, 65, 100
2, 103292, Note_off_c, 0, 62, 100
2, 103296, Note_on_c, 0, 77, 110
2, 103296, Note_on_c, 0, 74, 110
2, 104060, Note_off_c, 0, 77, 100
2, 104060, Note_off_c, 0, 74, 100
2, 104064, Note_on_c, 0, 89, 110
2, 104064, Note_on_c, 0, 86, 110
2, 104828, Note_off_c, 0, 86, 100
2, 104828, Note_off_c, 0, 89, 100
2, 105600, Note_on_c, 0, 77, 80
2, 105600, Note_on_c, 0, 74, 80
2, 105980, Note_off_c, 0, 77, 100
2, 105980, Note_off_c, 0, 74, 100
2, 105984, Note_on_c, 0, 76, 80
2, 105984, Note_on_c, 0, 72, 80
2, 106364, Note_off_c, 0, 76, 100
2, 106364, Note_off_c, 0, 72, 100
2, 107136, Note_on_c, 0, 88, 80
2, 107136, Note_on_c, 0, 84, 80
2, 107516, Note_off_c, 0, 88, 100
2, 107516, Note_off_c, 0, 84, 100
2, 107520, Note_on_c, 0, 86, 80
2, 107520, Note_on_c, 0, 83, 80
2, 107900, Note_off_c, 0, 86, 100
2, 107900, Note_off_c, 0, 83, 100
2, 108672, Note_on_c, 0, 74, 80
2, 108672, Note_on_c, 0, 71, 80
2, 109052, Note_off_c, 0, 74, 100
2, 109052, Note_off_c, 0, 71, 100
2, 109056, Note_on_c, 0, 72, 80
2, 109056, Note_on_c, 0, 69, 80
2, 109436, Note_off_c, 0, 72, 100
2, 109436, Note_off_c, 0, 69, 100
2, 110208, Note_on_c, 0, 81, 80
2, 110208, Note_on_c, 0, 84, 80
2, 110588, Note_off_c, 0, 84, 100
2, 110592, Note_on_c, 0, 83, 85
2, 110972, Note_off_c, 0, 81, 100
2, 110972, Note_off_c, 0, 83, 100
2, 111744, Note_on_c, 0, 71, 103
2, 111744, Note_on_c, 0, 69, 103
2, 112124, Note_off_c, 0, 69, 100
2, 112128, Note_on_c, 0, 68, 109
2, 112508, Note_off_c, 0, 71, 100
2, 112508, Note_off_c, 0, 68, 100
2, 113280, Note_on_c, 0, 80, 98
2, 113280, Note_on_c, 0, 71, 98
2, 113660, Note_off_c, 0, 80, 100
2, 113660, Note_off_c, 0, 71, 100
2, 113664, Note_on_c, 0, 81, 80
2, 113852, Note_off_c, 0, 81, 100
2, 113856, Note_on_c, 0, 76, 80
2, 114044, Note_off_c, 0, 76, 100
2, 114048, Note_on_c, 0, 72, 80
2, 114236, Note_off_c, 0, 72, 100
2, 114240, Note_on_c, 0, 84, 80
2, 114428, Note_off_c, 0, 84, 100
2, 114432, Note_on_c, 0, 83, 80
2, 114620, Note_off_c, 0, 83, 100
2, 114624, Note_on_c, 0, 80, 80
2, 114812, Note_off_c, 0, 80, 100
2, 114816, Note_on_c, 0, 76, 80
2, 115004, Note_off_c, 0, 76, 100
2, 115008, Note_on_c, 0, 86, 80
2, 115196, Note_off_c, 0, 86, 100
2, 115200, Note_on_c, 0, 84, 80
2, 115388, Note_off_c, 0, 84, 100
2, 115392, Note_on_c, 0, 81, 80
2, 115580, Note_off_c, 0, 81, 100
2, 115584, Note_on_c, 0, 76, 80
2, 115772, Note_off_c, 0, 76, 100
2, 115776, Note_on_c, 0, 88, 80
2, 115964, Note_off_c, 0, 88, 100
2, 115968, Note_on_c, 0, 87, 80
2, 116156, Note_off_c, 0, 87, 100
2, 116160, Note_on_c, 0, 88, 80
2, 116348, Note_off_c, 0, 88, 100
2, 116352, Note_on_c, 0, 87, 80
2, 116540, Note_off_c, 0, 87, 100
2, 116544, Note_on_c, 0, 88, 80
2, 116732, Note_off_c, 0, 88, 100
2, 116736, Note_on_c, 0, 88, 80
2, 116736, Note_on_c, 0, 76, 80
2, 116736, Note_on_c, 0, 84, 80
2, 117500, Note_off_c, 0, 88, 100
2, 117500, Note_off_c, 0, 76, 100
2, 117500, Note_off_c, 0, 84, 100
2, 117504, Note_on_c, 0, 83, 80
2, 117504, Note_on_c, 0, 74, 80
2, 117504, Note_on_c, 0, 86, 80
2, 118268, Note_off_c, 0, 83, 100
2, 118268, Note_off_c, 0, 74, 100
2, 118268, Note_off_c, 0, 86, 100
2, 118272, Note_on_c, 0, 84, 80
2, 118272, Note_on_c, 0, 81, 80
2, 118272, Note_on_c, 0, 72, 80
2, 119036, Note_off_c, 0, 84, 100
2, 119036, Note_off_c, 0, 81, 100
2, 119036, Note_off_c, 0, 72, 100
2, 119040, Note_on_c, 0, 83, 80
2, 119040, Note_on_c, 0, 80, 80
2, 119040, Note_on_c, 0, 71, 80
2, 119804, Note_off_c, 0, 83, 100
2, 119804, Note_off_c, 0, 80, 100
2, 119804, Note_off_c, 0, 71, 100
2, 119808, Note_on_c, 0, 81, 80
2, 119996, Note_off_c, 0, 81, 100
2, 120000, Note_on_c, 0, 76, 80
2, 120188, Note_off_c, 0, 76, 100
2, 120192, Note_on_c, 0, 72, 80
2, 120380, Note_off_c, 0, 72, 100
2, 120384, Note_on_c, 0, 84, 80
2, 120572, Note_off_c, 0, 84, 100
2, 120576, Note_on_c, 0, 83, 80
2, 120764, Note_off_c, 0, 83, 100
2, 120768, Note_on_c, 0, 80, 80
2, 120956, Note_off_c, 0, 80, 100
2, 120960, Note_on_c, 0, 76, 80
2, 121148, Note_off_c, 0, 76, 100
2, 121152, Note_on_c, 0, 86, 80
2, 121340, Note_off_c, 0, 86, 100
2, 121344, Note_on_c, 0, 84, 80
2, 121532, Note_off_c, 0, 84, 100
2, 121536, Note_on_c, 0, 81, 80
2, 121724, Note_off_c, 0, 81, 100
2, 121728, Note_on_c, 0, 76, 80
2, 121916, Note_off_c, 0, 76, 100
2, 121920, Note_on_c, 0, 88, 80
2, 122108, Note_off_c, 0, 88, 100
2, 122112, Note_on_c, 0, 87, 80
2, 122300, Note_off_c, 0, 87, 100
2, 122304, Note_on_c, 0, 88, 80
2, 122492, Note_off_c, 0, 88, 100
2, 122496, Note_on_c, 0, 87, 80
2, 122684, Note_off_c, 0, 87, 100
2, 122688, Note_on_c, 0, 88, 80
2, 122876, Note_off_c, 0, 88, 100
2, 122880, Note_on_c, 0, 76, 80
2, 123264, Note_on_c, 0, 84, 80
2, 123264, Note_on_c, 0, 88, 80
2, 124028, Note_off_c, 0, 76, 100
2, 124028, Note_off_c, 0, 84, 100
2, 124028, Note_off_c, 0, 88, 100
2, 124032, Note_on_c, 0, 74, 80
2, 124032, Note_on_c, 0, 83, 80
2, 124032, Note_on_c, 0, 86, 80
2, 124796, Note_off_c, 0, 74, 100
2, 124796, Note_off_c, 0, 83, 100
2, 124796, Note_off_c, 0, 86, 100
2, 124800, Note_on_c, 0, 84, 80
2, 124800, Note_on_c, 0, 81, 80
2, 124800, Note_on_c, 0, 72, 80
2, 125564, Note_off_c, 0, 84, 100
2, 125564, Note_off_c, 0, 81, 100
2, 125564, Note_off_c, 0, 72, 100
2, 125568, Note_on_c, 0, 83, 80
2, 125568, Note_on_c, 0, 80, 80
2, 125568, Note_on_c, 0, 71, 80
2, 125948, Note_off_c, 0, 83, 100
2, 125948, Note_off_c, 0, 80, 100
2, 125948, Note_off_c, 0, 71, 100
2, 125952, Note_on_c, 0, 81, 80
2, 126140, Note_off_c, 0, 81, 100
2, 126144, Note_on_c, 0, 76, 80
2, 126332, Note_off_c, 0, 76, 100
2, 126336, Note_on_c, 0, 72, 80
2, 126524, Note_off_c, 0, 72, 100
2, 126528, Note_on_c, 0, 84, 80
2, 126716, Note_off_c, 0, 84, 100
2, 126720, Note_on_c, 0, 83, 80
2, 126908, Note_off_c, 0, 83, 100
2, 126912, Note_on_c, 0, 80, 80
2, 127100, Note_off_c, 0, 80, 100
2, 127104, Note_on_c, 0, 76, 80
2, 127292, Note_off_c, 0, 76, 100
2, 127296, Note_on_c, 0, 86, 80
2, 127484, Note_off_c, 0, 86, 100
2, 127488, Note_on_c, 0, 84, 80
2, 127676, Note_off_c, 0, 84, 100
2, 127680, Note_on_c, 0, 81, 80
2, 127868, Note_off_c, 0, 81, 100
2, 127872, Note_on_c, 0, 76, 80
2, 128060, Note_off_c, 0, 76, 100
2, 128064, Note_on_c, 0, 88, 80
2, 128252, Note_off_c, 0, 88, 100
2, 128256, Note_on_c, 0, 87, 80
2, 128444, Note_off_c, 0, 87, 100
2, 128448, Note_on_c, 0, 88, 80
2, 128636, Note_off_c, 0, 88, 100
2, 128640, Note_on_c, 0, 87, 80
2, 128828, Note_off_c, 0, 87, 100
2, 128832, Note_on_c, 0, 88, 80
2, 129020, Note_off_c, 0, 88, 100
2, 129024, Note_on_c, 0, 84, 80
2, 129212, Note_off_c, 0, 84, 100
2, 129216, Note_on_c, 0, 81, 80
2, 129404, Note_off_c, 0, 81, 100
2, 129408, Note_on_c, 0, 76, 80
2, 129596, Note_off_c, 0, 76, 100
2, 129600, Note_on_c, 0, 88, 80
2, 129788, Note_off_c, 0, 88, 100
2, 129792, Note_on_c, 0, 87, 80
2, 129980, Note_off_c, 0, 87, 100
2, 129984, Note_on_c, 0, 88, 80
2, 130172, Note_off_c, 0, 88, 100
2, 130176, Note_on_c, 0, 87, 80
2, 130364, Note_off_c, 0, 87, 100
2, 130368, Note_on_c, 0, 88, 80
2, 130556, Note_off_c, 0, 88, 100
2, 130560, Note_on_c, 0, 84, 80
2, 130748, Note_off_c, 0, 84, 100
2, 130752, Note_on_c, 0, 81, 80
2, 130940, Note_off_c, 0, 81, 100
2, 130944, Note_on_c, 0, 76, 80
2, 131132, Note_off_c, 0, 76, 100
2, 131136, Note_on_c, 0, 88, 80
2, 131324, Note_off_c, 0, 88, 100
2, 131328, Note_on_c, 0, 87, 80
2, 131516, Note_off_c, 0, 87, 100
2, 131520, Note_on_c, 0, 88, 80
2, 131708, Note_off_c, 0, 88, 100
2, 131712, Note_on_c, 0, 87, 80
2, 131900, Note_off_c, 0, 87, 100
2, 131904, Note_on_c, 0, 88, 80
2, 132092, Note_off_c, 0, 88, 100
2, 132096, Note_on_c, 0, 81, 80
2, 132476, Note_off_c, 0, 81, 100
2, 132864, Note_on_c, 0, 57, 80
2, 133628, Note_off_c, 0, 57, 100
2, 133632, Note_on_c, 0, 57, 80
2, 134396, Note_off_c, 0, 57, 100
2, 134400, Note_on_c, 0, 57, 80
2, 135164, Note_off_c, 0, 57, 100
2, 135168, Note_on_c, 0, 57, 80
2, 138236, Note_off_c, 0, 57, 100
2, 138240, Note_on_c, 0, 55, 80
2, 139004, Note_off_c, 0, 55, 100
2, 139008, Note_on_c, 0, 53, 80
2, 139772, Note_off_c, 0, 53, 100
2, 139776, Note_on_c, 0, 52, 80
2, 140540, Note_off_c, 0, 52, 100
2, 140544, Note_on_c, 0, 53, 80
2, 140924, Note_off_c, 0, 53, 100
2, 140928, Note_on_c, 0, 50, 80
2, 141308, Note_off_c, 0, 50, 100
2, 141312, Control_c, 0, 64, 127
2, 142080, Note_on_c, 0, 61, 70
2, 142464, Note_on_c, 0, 64, 70
2, 142848, Note_on_c, 0, 69, 70
2, 143992, Control_c, 0, 64, 0
2, 143996, Note_off_c, 0, 61, 64
2, 143996, Note_off_c, 0, 64, 64
2, 143996, Note_off_c, 0, 69, 100
2, 144000, Note_on_c, 0, 69, 80
2, 144188, Note_off_c, 0, 69, 100
2, 144192, Note_on_c, 0, 67, 80
2, 144380, Note_off_c, 0, 67, 100
2, 144384, Note_on_c, 0, 67, 80
2, 144572, Note_off_c, 0, 67, 100
2, 144576, Note_on_c, 0, 65, 80
2, 144764, Note_off_c, 0, 65, 100
2, 144768, Note_on_c, 0, 65, 80
2, 144956, Note_off_c, 0, 65, 100
2, 144960, Note_on_c, 0, 64, 80
2, 145148, Note_off_c, 0, 64, 100
2, 145152, Note_on_c, 0, 64, 80
2, 145340, Note_off_c, 0, 64, 100
2, 145344, Note_on_c, 0, 62, 80
2, 145532, Note_off_c, 0, 62, 100
2, 145536, Note_on_c, 0, 69, 80
2, 145724, Note_off_c, 0, 69, 100
2, 145728, Note_on_c, 0, 67, 80
2, 145916, Note_off_c, 0, 67, 100
2, 145920, Note_on_c, 0, 67, 80
2, 146108, Note_off_c, 0, 67, 100
2, 146112, Note_on_c, 0, 65, 80
2, 146300, Note_off_c, 0, 65, 100
2, 146304, Note_on_c, 0, 65, 80
2, 146492, Note_off_c, 0, 65, 100
2, 146496, Note_on_c, 0, 64, 80
2, 146684, Note_off_c, 0, 64, 100
2, 146688, Note_on_c, 0, 64, 80
2, 146876, Note_off_c, 0, 64, 100
2, 146880, Note_on_c, 0, 62, 80
2, 147068, Note_off_c, 0, 62, 100
2, 147072, Note_on_c, 0, 74, 80
2, 147260, Note_off_c, 0, 74, 100
2, 147264, Note_on_c, 0, 72, 83
2, 147452, Note_off_c, 0, 72, 100
2, 147456, Note_on_c, 0, 72, 86
2, 147644, Note_off_c, 0, 72, 100
2, 147648, Note_on_c, 0, 70, 89
2, 147836, Note_off_c, 0, 70, 100
2, 147840, Note_on_c, 0, 70, 92
2, 148028, Note_off_c, 0, 70, 100
2, 148032, Note_on_c, 0, 69, 95
2, 148220, Note_off_c, 0, 69, 100
2, 148224, Note_on_c, 0, 69, 98
2, 148412, Note_off_c, 0, 69, 100
2, 148416, Note_on_c, 0, 67, 101
2, 148604, Note_off_c, 0, 67, 100
2, 148608, Note_on_c, 0, 67, 104
2, 148796, Note_off_c, 0, 67, 100
2, 148800, Note_on_c, 0, 68, 107
2, 148988, Note_off_c, 0, 68, 100
2, 148992, Note_on_c, 0, 68, 110
2, 148992, Note_on_c, 0, 65, 110
2, 149372, Note_off_c, 0, 68, 100
2, 149376, Note_on_c, 0, 69, 80
2, 149424, Note_on_c, 0, 68, 80
2, 149468, Note_off_c, 0, 69, 100
2, 149472, Note_on_c, 0, 66, 80
2, 149516, Note_off_c, 0, 68, 100
2, 149520, Note_on_c, 0, 68, 80
2, 149564, Note_off_c, 0, 66, 100
2, 149568, Note_on_c, 0, 71, 80
2, 149612, Note_off_c, 0, 68, 100
2, 149660, Note_off_c, 0, 71, 100
2, 149664, Note_on_c, 0, 69, 80
2, 149756, Note_off_c, 0, 65, 100
2, 149756, Note_off_c, 0, 69, 100
2, 149760, Note_on_c, 0, 69, 80
2, 149760, Note_on_c, 0, 64, 80
2, 150524, Note_off_c, 0, 69, 100
2, 150524, Note_off_c, 0, 64, 100
2, 150528, Control_c, 0, 64, 127
2, 151296, Note_on_c, 0, 64, 70
2, 151680, Note_on_c, 0, 67, 70
2, 152064, Note_on_c, 0, 72, 70
2, 152828, Note_off_c, 0, 67, 64
2, 153208, Control_c, 0, 64, 0
2, 153212, Note_off_c, 0, 64, 64
2, 153212, Note_off_c, 0, 72, 100
2, 153216, Note_on_c, 0, 72, 80
2, 153404, Note_off_c, 0, 72, 100
2, 153408, Note_on_c, 0, 70, 80
2, 153596, Note_off_c, 0, 70, 100
2, 153600, Note_on_c, 0, 70, 81
2, 153788, Note_off_c, 0, 70, 100
2, 153792, Note_on_c, 0, 68, 82
2, 153980, Note_off_c, 0, 68, 100
2, 153984, Note_on_c, 0, 68, 83
2, 154172, Note_off_c, 0, 68, 100
2, 154176, Note_on_c, 0, 69, 84
2, 154364, Note_off_c, 0, 69, 100
2, 154368, Note_on_c, 0, 69, 85
2, 154556, Note_off_c, 0, 69, 100
2, 154560, Note_on_c, 0, 74, 86
2, 154748, Note_off_c, 0, 74, 100
2, 154752, Note_on_c, 0, 74, 87
2, 154940, Note_off_c, 0, 74, 100
2, 154944, Note_on_c, 0, 72, 88
2, 155132, Note_off_c, 0, 72, 100
2, 155136, Note_on_c, 0, 72, 89
2, 155324, Note_off_c, 0, 72, 100
2, 155328, Note_on_c, 0, 69, 90
2, 155516, Note_off_c, 0, 69, 100
2, 155520, Note_on_c, 0, 69, 91
2, 155708, Note_off_c, 0, 69, 100
2, 155712, Note_on_c, 0, 70, 92
2, 155900, Note_off_c, 0, 70, 100
2, 155904, Note_on_c, 0, 70, 93
2, 156092, Note_off_c, 0, 70, 100
2, 156096, Note_on_c, 0, 75, 94
2, 156284, Note_off_c, 0, 75, 100
2, 156288, Note_on_c, 0, 75, 95
2, 156476, Note_off_c, 0, 75, 100
2, 156480, Note_on_c, 0, 74, 95
2, 156668, Note_off_c, 0, 74, 100
2, 156672, Note_on_c, 0, 74, 96
2, 156860, Note_off_c, 0, 74, 100
2, 156864, Note_on_c, 0, 73, 97
2, 157052, Note_off_c, 0, 73, 100
2, 157056, Note_on_c, 0, 73, 98
2, 157244, Note_off_c, 0, 73, 100
2, 157248, Note_on_c, 0, 82, 99
2, 157436, Note_off_c, 0, 82, 100
2, 157440, Note_on_c, 0, 82, 100
2, 157628, Note_off_c, 0, 82, 100
2, 157632, Note_on_c, 0, 76, 101
2, 157820, Note_off_c, 0, 76, 100
2, 157824, Note_on_c, 0, 76, 102
2, 158012, Note_off_c, 0, 76, 100
2, 158016, Note_on_c, 0, 85, 103
2, 158204, Note_off_c, 0, 85, 100
2, 158208, Note_on_c, 0, 85, 104
2, 158396, Note_off_c, 0, 85, 100
2, 158400, Note_on_c, 0, 77, 105
2, 158588, Note_off_c, 0, 77, 100
2, 158592, Note_on_c, 0, 77, 106
2, 158780, Note_off_c, 0, 77, 100
2, 158784, Note_on_c, 0, 86, 107
2, 158972, Note_off_c, 0, 86, 100
2, 158976, Note_on_c, 0, 86, 108
2, 159164, Note_off_c, 0, 86, 100
2, 159168, Note_on_c, 0, 77, 109
2, 159356, Note_off_c, 0, 77, 100
2, 159360, Note_on_c, 0, 77, 110
2, 159548, Note_off_c, 0, 77, 100
2, 159552, Note_on_c, 0, 89, 110
2, 159740, Note_off_c, 0, 89, 100
2, 159744, Note_on_c, 0, 89, 110
2, 159932, Note_off_c, 0, 89, 100
2, 159936, Note_on_c, 0, 85, 110
2, 160124, Note_off_c, 0, 85, 100
2, 160128, Note_on_c, 0, 85, 110
2, 160316, Note_off_c, 0, 85, 100
2, 160320, Note_on_c, 0, 86, 110
2, 160508, Note_off_c, 0, 86, 100
2, 160512, Note_on_c, 0, 86, 110
2, 160700, Note_off_c, 0, 86, 100
2, 160704, Note_on_c, 0, 80, 110
2, 160892, Note_off_c, 0, 80, 100
2, 160896, Note_on_c, 0, 80, 110
2, 161084, Note_off_c, 0, 80, 100
2, 161088, Note_on_c, 0, 81, 110
2, 161276, Note_off_c, 0, 81, 100
2, 161280, Note_on_c, 0, 81, 110
2, 161468, Note_off_c, 0, 81, 100
2, 161472, Note_on_c, 0, 76, 110
2, 161660, Note_off_c, 0, 76, 100
2, 161664, Note_on_c, 0, 76, 110
2, 161852, Note_off_c, 0, 76, 100
2, 161856, Note_on_c, 0, 77, 110
2, 162044, Note_off_c, 0, 77, 100
2, 162048, Note_on_c, 0, 77, 110
2, 162236, Note_off_c, 0, 77, 100
2, 162240, Note_on_c, 0, 73, 110
2, 162428, Note_off_c, 0, 73, 100
2, 162432, Note_on_c, 0, 73, 110
2, 162620, Note_off_c, 0, 73, 100
2, 162624, Note_on_c, 0, 74, 110
2, 162812, Note_off_c, 0, 74, 100
2, 162816, Note_on_c, 0, 74, 110
2, 163004, Note_off_c, 0, 74, 100
2, 163008, Note_on_c, 0, 68, 110
2, 163196, Note_off_c, 0, 68, 100
2, 163200, Note_on_c, 0, 68, 110
2, 163388, Note_off_c, 0, 68, 100
2, 163392, Note_on_c, 0, 69, 110
2, 163580, Note_off_c, 0, 69, 100
2, 163584, Note_on_c, 0, 69, 110
2, 163772, Note_off_c, 0, 69, 100
2, 163776, Note_on_c, 0, 64, 110
2, 163964, Note_off_c, 0, 64, 100
2, 163968, Note_on_c, 0, 64, 110
2, 164156, Note_off_c, 0, 64, 100
2, 164160, Note_on_c, 0, 65, 110
2, 164348, Note_off_c, 0, 65, 100
2, 164352, Note_on_c, 0, 65, 110
2, 164540, Note_off_c, 0, 65, 100
2, 164544, Note_on_c, 0, 61, 110
2, 164732, Note_off_c, 0, 61, 100
2, 164736, Note_on_c, 0, 61, 110
2, 164924, Note_off_c, 0, 61, 100
2, 164928, Note_on_c, 0, 62, 110
2, 165116, Note_off_c, 0, 62, 100
2, 165120, Note_on_c, 0, 62, 110
2, 165308, Note_off_c, 0, 62, 100
2, 165312, Note_on_c, 0, 58, 110
2, 165500, Note_off_c, 0, 58, 100
2, 165504, Note_on_c, 0, 58, 110
2, 165692, Note_off_c, 0, 58, 100
2, 165696, Note_on_c, 0, 57, 110
2, 165884, Note_off_c, 0, 57, 100
2, 165888, Note_on_c, 0, 57, 110
2, 166076, Note_off_c, 0, 57, 100
2, 166080, Note_on_c, 0, 61, 110
2, 166268, Note_off_c, 0, 61, 100
2, 166272, Note_on_c, 0, 61, 110
2, 166460, Note_off_c, 0, 61, 100
2, 166464, Note_on_c, 0, 62, 110
2, 166652, Note_off_c, 0, 62, 100
2, 166656, Note_on_c, 0, 62, 110
2, 166844, Note_off_c, 0, 62, 100
2, 166848, Note_on_c, 0, 58, 110
2, 167036, Note_off_c, 0, 58, 100
2, 167040, Note_on_c, 0, 58, 110
2, 167228, Note_off_c, 0, 58, 100
2, 167232, Note_on_c, 0, 57, 110
2, 167420, Note_off_c, 0, 57, 100
2, 167424, Note_on_c, 0, 57, 110
2, 167612, Note_off_c, 0, 57, 100
2, 167616, Note_on_c, 0, 61, 110
2, 167804, Note_off_c, 0, 61, 100
2, 167808, Note_on_c, 0, 61, 110
2, 167996, Note_off_c, 0, 61, 100
2, 168000, Note_on_c, 0, 62, 110
2, 168188, Note_off_c, 0, 62, 100
2, 168192, Note_on_c, 0, 62, 110
2, 168380, Note_off_c, 0, 62, 100
2, 168384, Note_on_c, 0, 58, 110
2, 168572, Note_off_c, 0, 58, 100
2, 168576, Note_on_c, 0, 58, 110
2, 168764, Note_off_c, 0, 58, 100
2, 168768, Note_on_c, 0, 57, 110
2, 168956, Note_off_c, 0, 57, 100
2, 168960, Note_on_c, 0, 57, 110
2, 169148, Note_off_c, 0, 57, 100
2, 169152, Note_on_c, 0, 58, 110
2, 169340, Note_off_c, 0, 58, 100
2, 169344, Note_on_c, 0, 59, 110
2, 169532, Note_off_c, 0, 59, 100
2, 169536, Note_on_c, 0, 60, 110
2, 169724, Note_off_c, 0, 60, 100
2, 169728, Note_on_c, 0, 61, 110
2, 169916, Note_off_c, 0, 61, 100
2, 169920, Note_on_c, 0, 62, 110
2, 170108, Note_off_c, 0, 62, 100
2, 170112, Note_on_c, 0, 63, 110
2, 170300, Note_off_c, 0, 63, 100
2, 170304, Note_on_c, 0, 64, 110
2, 170492, Note_off_c, 0, 64, 100
2, 170496, Note_on_c, 0, 65, 110
2, 170684, Note_off_c, 0, 65, 100
2, 170688, Note_on_c, 0, 66, 110
2, 170876, Note_off_c, 0, 66, 100
2, 170880, Note_on_c, 0, 67, 110
2, 171068, Note_off_c, 0, 67, 100
2, 171072, Note_on_c, 0, 68, 110
2, 171260, Note_off_c, 0, 68, 100
2, 171264, Note_on_c, 0, 69, 110
2, 171452, Note_off_c, 0, 69, 100
2, 171456, Note_on_c, 0, 70, 110
2, 171644, Note_off_c, 0, 70, 100
2, 171648, Note_on_c, 0, 61, 110
2, 171836, Note_off_c, 0, 61, 100
2, 171840, Note_on_c, 0, 69, 110
2, 172028, Note_off_c, 0, 69, 100
2, 172032, Control_c, 0, 64, 127
2, 172032, Note_on_c, 0, 62, 110
2, 172160, Note_on_c, 0, 57, 110
2, 172220, Note_off_c, 0, 62, 100
2, 172288, Note_on_c, 0, 53, 110
2, 172356, Note_off_c, 0, 57, 100
2, 172416, Note_on_c, 0, 57, 110
2, 172512, Note_off_c, 0, 53, 100
2, 172544, Note_on_c, 0, 53, 110
2, 172632, Note_off_c, 0, 57, 100
2, 172672, Note_on_c, 0, 57, 110
2, 172736, Note_off_c, 0, 53, 100
2, 172800, Note_on_c, 0, 53, 110
2, 172888, Note_off_c, 0, 57, 100
2, 172928, Note_on_c, 0, 57, 110
2, 173012, Note_off_c, 0, 53, 100
2, 173056, Note_on_c, 0, 53, 110
2, 173136, Note_off_c, 0, 57, 100
2, 173184, Note_on_c, 0, 57, 110
2, 173264, Note_off_c, 0, 53, 100
2, 173312, Note_on_c, 0, 53, 110
2, 173384, Note_off_c, 0, 57, 100
2, 173440, Note_on_c, 0, 57, 110
2, 173504, Note_off_c, 0, 53, 100
2, 173560, Control_c, 0, 64, 0
2, 173568, Control_c, 0, 64, 127
2, 173568, Note_on_c, 0, 53, 110
2, 173644, Note_off_c, 0, 57, 64
2, 173696, Note_on_c, 0, 57, 107
2, 173776, Note_off_c, 0, 53, 100
2, 173824, Note_on_c, 0, 53, 103
2, 173904, Note_off_c, 0, 57, 100
2, 173952, Note_on_c, 0, 57, 99
2, 174028, Note_off_c, 0, 53, 100
2, 174080, Note_on_c, 0, 53, 96
2, 174160, Note_off_c, 0, 57, 100
2, 174208, Note_on_c, 0, 57, 92
2, 174288, Note_off_c, 0, 53, 100
2, 174336, Note_on_c, 0, 53, 88
2, 174420, Note_off_c, 0, 57, 100
2, 174464, Note_on_c, 0, 57, 84
2, 174544, Note_off_c, 0, 53, 100
2, 174592, Note_on_c, 0, 53, 81
2, 174648, Note_off_c, 0, 57, 100
2, 174720, Note_on_c, 0, 57, 80
2, 174720, Note_on_c, 0, 69, 93
2, 174796, Note_off_c, 0, 53, 100
2, 174848, Note_on_c, 0, 53, 80
2, 174928, Note_off_c, 0, 57, 100
2, 174976, Note_on_c, 0, 57, 80
2, 175028, Note_off_c, 0, 53, 100
2, 175096, Control_c, 0, 64, 0
2, 175100, Note_off_c, 0, 69, 100
2, 175104, Control_c, 0, 64, 127
2, 175104, Note_on_c, 0, 53, 80
2, 175104, Note_on_c, 0, 68, 100
2, 175168, Note_off_c, 0, 57, 64
2, 175232, Note_on_c, 0, 57, 80
2, 175312, Note_off_c, 0, 53, 100
2, 175360, Note_on_c, 0, 53, 80
2, 175436, Note_off_c, 0, 57, 100
2, 175484, Note_off_c, 0, 68, 100
2, 175488, Note_on_c, 0, 57, 80
2, 175488, Note_on_c, 0, 69, 105
2, 175556, Note_off_c, 0, 53, 100
2, 175616, Note_on_c, 0, 53, 80
2, 175708, Note_off_c, 0, 57, 100
2, 175744, Note_on_c, 0, 57, 80
2, 175816, Note_off_c, 0, 53, 100
2, 175868, Note_off_c, 0, 69, 100
2, 175872, Note_on_c, 0, 53, 80
2, 175872, Note_on_c, 0, 70, 101
2, 175940, Note_off_c, 0, 57, 100
2, 176000, Note_on_c, 0, 57, 80
2, 176072, Note_off_c, 0, 53, 100
2, 176128, Note_on_c, 0, 53, 80
2, 176208, Note_off_c, 0, 57, 100
2, 176252, Note_off_c, 0, 70, 100
2, 176256, Note_on_c, 0, 57, 80
2, 176256, Note_on_c, 0, 69, 100
2, 176312, Note_off_c, 0, 53, 100
2, 176384, Note_on_c, 0, 53, 80
2, 176456, Note_off_c, 0, 57, 100
2, 176512, Note_on_c, 0, 57, 80
2, 176628, Note_off_c, 0, 53, 100
2, 176632, Control_c, 0, 64, 0
2, 176636, Note_off_c, 0, 69, 100
2, 176640, Control_c, 0, 64, 127
2, 176640, Note_on_c, 0, 53, 80
2, 176640, Note_on_c, 0, 69, 102
2, 176708, Note_off_c, 0, 57, 64
2, 176768, Note_on_c, 0, 57, 80
2, 176836, Note_off_c, 0, 53, 100
2, 176896, Note_on_c, 0, 53, 80
2, 176960, Note_off_c, 0, 57, 100
2, 177024, Note_on_c, 0, 57, 80
2, 177080, Note_off_c, 0, 53, 100
2, 177152, Note_on_c, 0, 53, 80
2, 177240, Note_off_c, 0, 57, 100
2, 177280, Note_on_c, 0, 57, 80
2, 177360, Note_off_c, 0, 53, 100
2, 177404, Note_off_c, 0, 69, 100
2, 177408, Note_on_c, 0, 53, 80
2, 177408, Note_on_c, 0, 69, 101
2, 177476, Note_off_c, 0, 57, 100
2, 177536, Note_on_c, 0, 57, 80
2, 177608, Note_off_c, 0, 53, 100
2, 177664, Note_on_c, 0, 53, 80
2, 177732, Note_off_c, 0, 57, 100
2, 177792, Note_on_c, 0, 57, 80
2, 177856, Note_off_c, 0, 53, 100
2, 177920, Note_on_c, 0, 53, 80
2, 178008, Note_off_c, 0, 57, 100
2, 178048, Note_on_c, 0, 57, 80
2, 178136, Note_off_c, 0, 53, 100
2, 178168, Control_c, 0, 64, 0
2, 178172, Note_off_c, 0, 69, 100
2, 178172, Note_off_c, 0, 57, 100
2, 178176, Control_c, 0, 64, 127
2, 178176, Note_on_c, 0, 69, 110
2, 178304, Note_on_c, 0, 61, 110
2, 178388, Note_off_c, 0, 69, 100
2, 178432, Note_on_c, 0, 55, 110
2, 178544, Note_off_c, 0, 61, 100
2, 178560, Note_on_c, 0, 61, 110
2, 178668, Note_off_c, 0, 55, 100
2, 178688, Note_on_c, 0, 55, 110
2, 178792, Note_off_c, 0, 61, 100
2, 178816, Note_on_c, 0, 61, 110
2, 178928, Note_off_c, 0, 55, 100
2, 178944, Note_on_c, 0, 55, 110
2, 179056, Note_off_c, 0, 61, 100
2, 179072, Note_on_c, 0, 61, 110
2, 179184, Note_off_c, 0, 55, 100
2, 179200, Note_on_c, 0, 55, 110
2, 179312, Note_off_c, 0, 61, 100
2, 179328, Note_on_c, 0, 61, 110
2, 179420, Note_off_c, 0, 55, 100
2, 179456, Note_on_c, 0, 55, 110
2, 179572, Note_off_c, 0, 61, 100
2, 179584, Note_on_c, 0, 61, 110
2, 179684, Note_off_c, 0, 55, 100
2, 179704, Control_c, 0, 64, 0
2, 179712, Control_c, 0, 64, 127
2, 179712, Note_on_c, 0, 55, 107
2, 179828, Note_off_c, 0, 61, 64
2, 179840, Note_on_c, 0, 61, 104
2, 179952, Note_off_c, 0, 55, 100
2, 179968, Note_on_c, 0, 55, 101
2, 180080, Note_off_c, 0, 61, 100
2, 180096, Note_on_c, 0, 61, 97
2, 180188, Note_off_c, 0, 55, 100
2, 180224, Note_on_c, 0, 55, 94
2, 180340, Note_off_c, 0, 61, 100
2, 180352, Note_on_c, 0, 61, 91
2, 180452, Note_off_c, 0, 55, 100
2, 180480, Note_on_c, 0, 55, 87
2, 180596, Note_off_c, 0, 61, 100
2, 180608, Note_on_c, 0, 61, 84
2, 180720, Note_off_c, 0, 55, 100
2, 180736, Note_on_c, 0, 55, 81
2, 180848, Note_off_c, 0, 61, 100
2, 180864, Note_on_c, 0, 61, 80
2, 180864, Note_on_c, 0, 69, 100
2, 180956, Note_off_c, 0, 55, 100
2, 180992, Note_on_c, 0, 55, 80
2, 181108, Note_off_c, 0, 61, 100
2, 181120, Note_on_c, 0, 61, 80
2, 181220, Note_off_c, 0, 55, 100
2, 181240, Control_c, 0, 64, 0
2, 181244, Note_off_c, 0, 69, 100
2, 181248, Control_c, 0, 64, 127
2, 181248, Note_on_c, 0, 55, 80
2, 181248, Note_on_c, 0, 68, 102
2, 181364, Note_off_c, 0, 61, 64
2, 181376, Note_on_c, 0, 61, 80
2, 181488, Note_off_c, 0, 55, 100
2, 181504, Note_on_c, 0, 55, 80
2, 181616, Note_off_c, 0, 61, 100
2, 181628, Note_off_c, 0, 68, 100
2, 181632, Note_on_c, 0, 61, 80
2, 181632, Note_on_c, 0, 69, 103
2, 181724, Note_off_c, 0, 55, 100
2, 181760, Note_on_c, 0, 55, 80
2, 181876, Note_off_c, 0, 61, 100
2, 181888, Note_on_c, 0, 61, 80
2, 181988, Note_off_c, 0, 55, 100
2, 182012, Note_off_c, 0, 69, 100
2, 182016, Note_on_c, 0, 55, 80
2, 182016, Note_on_c, 0, 70, 103
2, 182132, Note_off_c, 0, 61, 100
2, 182144, Note_on_c, 0, 61, 80
2, 182256, Note_off_c, 0, 55, 100
2, 182272, Note_on_c, 0, 55, 80
2, 182384, Note_off_c, 0, 61, 100
2, 182396, Note_off_c, 0, 70, 100
2, 182400, Note_on_c, 0, 61, 80
2, 182400, Note_on_c, 0, 69, 103
2, 182492, Note_off_c, 0, 55, 100
2, 182528, Note_on_c, 0, 55, 80
2, 182644, Note_off_c, 0, 61, 100
2, 182656, Note_on_c, 0, 61, 80
2, 182756, Note_off_c, 0, 55, 100
2, 182776, Control_c, 0, 64, 0
2, 182780, Note_off_c, 0, 69, 100
2, 182784, Control_c, 0, 64, 127
2, 182784, Note_on_c, 0, 55, 80
2, 182784, Note_on_c, 0, 69, 103
2, 182900, Note_off_c, 0, 61, 64
2, 182912, Note_on_c, 0, 61, 80
2, 183024, Note_off_c, 0, 55, 100
2, 183040, Note_on_c, 0, 55, 80
2, 183152, Note_off_c, 0, 61, 100
2, 183168, Note_on_c, 0, 61, 80
2, 183260, Note_off_c, 0, 55, 100
2, 183296, Note_on_c, 0, 55, 80
2, 183412, Note_off_c, 0, 61, 100
2, 183424, Note_on_c, 0, 61, 80
2, 183524, Note_off_c, 0, 55, 100
2, 183548, Note_off_c, 0, 69, 100
2, 183552, Note_on_c, 0, 55, 80
2, 183552, Note_on_c, 0, 69, 100
2, 183668, Note_off_c, 0, 61, 100
2, 183680, Note_on_c, 0, 61, 80
2, 183792, Note_off_c, 0, 55, 100
2, 183808, Note_on_c, 0, 55, 80
2, 183920, Note_off_c, 0, 61, 100
2, 183936, Note_on_c, 0, 61, 80
2, 184028, Note_off_c, 0, 55, 100
2, 184064, Note_on_c, 0, 55, 80
2, 184180, Note_off_c, 0, 61, 100
2, 184192, Note_on_c, 0, 61, 80
2, 184292, Note_off_c, 0, 55, 100
2, 184312, Control_c, 0, 64, 0
2, 184316, Note_off_c, 0, 69, 100
2, 184316, Note_off_c, 0, 61, 100
2, 184320, Control_c, 0, 64, 127
2, 184320, Note_on_c, 0, 69, 110
2, 184448, Note_on_c, 0, 62, 110
2, 184564, Note_off_c, 0, 69, 100
2, 184576, Note_on_c, 0, 57, 110
2, 184684, Note_off_c, 0, 62, 100
2, 184704, Note_on_c, 0, 62, 110
2, 184820, Note_off_c, 0, 57, 100
2, 184832, Note_on_c, 0, 57, 110
2, 184936, Note_off_c, 0, 62, 100
2, 184960, Note_on_c, 0, 62, 110
2, 185040, Note_off_c, 0, 57, 100
2, 185088, Note_on_c, 0, 57, 110
2, 185176, Note_off_c, 0, 62, 100
2, 185216, Note_on_c, 0, 62, 110
2, 185332, Note_off_c, 0, 57, 100
2, 185344, Note_on_c, 0, 57, 110
2, 185452, Note_off_c, 0, 62, 100
2, 185472, Note_on_c, 0, 62, 110
2, 185588, Note_off_c, 0, 57, 100
2, 185600, Note_on_c, 0, 57, 110
2, 185704, Note_off_c, 0, 62, 100
2, 185728, Note_on_c, 0, 62, 110
2, 185808, Note_off_c, 0, 57, 100
2, 185848, Control_c, 0, 64, 0
2, 185856, Control_c, 0, 64, 127
2, 185856, Note_on_c, 0, 57, 110
2, 185944, Note_off_c, 0, 62, 64
2, 185984, Note_on_c, 0, 62, 110
2, 186100, Note_off_c, 0, 57, 100
2, 186112, Note_on_c, 0, 57, 110
2, 186220, Note_off_c, 0, 62, 100
2, 186240, Note_on_c, 0, 62, 110
2, 186356, Note_off_c, 0, 57, 100
2, 186368, Note_on_c, 0, 57, 110
2, 186472, Note_off_c, 0, 62, 100
2, 186496, Note_on_c, 0, 62, 110
2, 186576, Note_off_c, 0, 57, 100
2, 186624, Note_on_c, 0, 57, 110
2, 186624, Note_on_c, 0, 74, 122
2, 186712, Note_off_c, 0, 62, 100
2, 186752, Note_on_c, 0, 62, 110
2, 186868, Note_off_c, 0, 57, 100
2, 186880, Note_on_c, 0, 57, 110
2, 186988, Note_off_c, 0, 62, 100
2, 187004, Note_off_c, 0, 74, 100
2, 187008, Note_on_c, 0, 62, 110
2, 187124, Note_off_c, 0, 57, 100
2, 187136, Note_on_c, 0, 57, 110
2, 187240, Note_off_c, 0, 62, 100
2, 187264, Note_on_c, 0, 62, 110
2, 187344, Note_off_c, 0, 57, 100
2, 187384, Control_c, 0, 64, 0
2, 187388, Note_off_c, 0, 62, 100
2, 187392, Control_c, 0, 64, 127
2, 187392, Note_on_c, 0, 64, 110
2, 187520, Note_on_c, 0, 59, 110
2, 187596, Note_off_c, 0, 64, 100
2, 187648, Note_on_c, 0, 64, 110
2, 187732, Note_off_c, 0, 59, 100
2, 187776, Note_on_c, 0, 59, 110
2, 187868, Note_off_c, 0, 64, 100
2, 187904, Note_on_c, 0, 64, 110
2, 188000, Note_off_c, 0, 59, 100
2, 188032, Note_on_c, 0, 59, 110
2, 188112, Note_off_c, 0, 64, 100
2, 188160, Note_on_c, 0, 64, 110
2, 188212, Note_off_c, 0, 59, 100
2, 188288, Note_on_c, 0, 59, 110
2, 188364, Note_off_c, 0, 64, 100
2, 188416, Note_on_c, 0, 64, 110
2, 188500, Note_off_c, 0, 59, 100
2, 188544, Note_on_c, 0, 59, 110
2, 188636, Note_off_c, 0, 64, 100
2, 188672, Note_on_c, 0, 64, 110
2, 188768, Note_off_c, 0, 59, 100
2, 188800, Note_on_c, 0, 59, 110
2, 188880, Note_off_c, 0, 64, 100
2, 188920, Control_c, 0, 64, 0
2, 188928, Note_on_c, 0, 64, 110
2, 188980, Note_off_c, 0, 59, 64
2, 189056, Note_on_c, 0, 59, 110
2, 189132, Note_off_c, 0, 64, 100
2, 189184, Note_on_c, 0, 64, 110
2, 189268, Note_off_c, 0, 59, 100
2, 189312, Note_on_c, 0, 59, 110
2, 189404, Note_off_c, 0, 64, 100
2, 189440, Note_on_c, 0, 64, 110
2, 189536, Note_off_c, 0, 59, 100
2, 189568, Note_on_c, 0, 59, 110
2, 189648, Note_off_c, 0, 64, 100
2, 189696, Note_on_c, 0, 64, 110
2, 189696, Note_on_c, 0, 76, 120
2, 189748, Note_off_c, 0, 59, 100
2, 189824, Note_on_c, 0, 59, 110
2, 189900, Note_off_c, 0, 64, 100
2, 189952, Note_on_c, 0, 64, 110
2, 190036, Note_off_c, 0, 59, 100
2, 190076, Note_off_c, 0, 76, 100
2, 190080, Note_on_c, 0, 59, 110
2, 190172, Note_off_c, 0, 64, 100
2, 190208, Note_on_c, 0, 64, 110
2, 190304, Note_off_c, 0, 59, 100
2, 190336, Note_on_c, 0, 59, 110
2, 190416, Note_off_c, 0, 64, 100
2, 190460, Note_off_c, 0, 59, 100
2, 190464, Control_c, 0, 64, 127
2, 190464, Note_on_c, 0, 65, 110
2, 190592, Note_on_c, 0, 60, 110
2, 190676, Note_off_c, 0, 65, 100
2, 190720, Note_on_c, 0, 65, 110
2, 190800, Note_off_c, 0, 60, 100
2, 190848, Note_on_c, 0, 60, 110
2, 190944, Note_off_c, 0, 65, 100
2, 190976, Note_on_c, 0, 65, 110
2, 191088, Note_off_c, 0, 60, 100
2, 191104, Note_on_c, 0, 60, 110
2, 191196, Note_off_c, 0, 65, 100
2, 191232, Note_on_c, 0, 65, 110
2, 191336, Note_off_c, 0, 60, 100
2, 191360, Note_on_c, 0, 60, 110
2, 191444, Note_off_c, 0, 65, 100
2, 191488, Note_on_c, 0, 65, 110
2, 191568, Note_off_c, 0, 60, 100
2, 191616, Note_on_c, 0, 60, 110
2, 191712, Note_off_c, 0, 65, 100
2, 191744, Note_on_c, 0, 65, 110
2, 191856, Note_off_c, 0, 60, 100
2, 191872, Note_on_c, 0, 60, 110
2, 191964, Note_off_c, 0, 65, 100
2, 191992, Control_c, 0, 64, 0
2, 192000, Control_c, 0, 64, 127
2, 192000, Note_on_c, 0, 65, 110
2, 192104, Note_off_c, 0, 60, 64
2, 192128, Note_on_c, 0, 60, 110
2, 192212, Note_off_c, 0, 65, 100
2, 192256, Note_on_c, 0, 65, 110
2, 192336, Note_off_c, 0, 60, 100
2, 192384, Note_on_c, 0, 60, 110
2, 192480, Note_off_c, 0, 65, 100
2, 192512, Note_on_c, 0, 65, 110
2, 192624, Note_off_c, 0, 60, 100
2, 192640, Note_on_c, 0, 60, 110
2, 192732, Note_off_c, 0, 65, 100
2, 192768, Note_on_c, 0, 65, 110
2, 192768, Note_on_c, 0, 77, 121
2, 192872, Note_off_c, 0, 60, 100
2, 192896, Note_on_c, 0, 60, 110
2, 192980, Note_off_c, 0, 65, 100
2, 193024, Note_on_c, 0, 65, 110
2, 193104, Note_off_c, 0, 60, 100
2, 193148, Note_off_c, 0, 77, 100
2, 193152, Note_on_c, 0, 60, 110
2, 193248, Note_off_c, 0, 65, 100
2, 193280, Note_on_c, 0, 65, 110
2, 193392, Note_off_c, 0, 60, 100
2, 193408, Note_on_c, 0, 60, 110
2, 193500, Note_off_c, 0, 65, 100
2, 193528, Control_c, 0, 64, 0
2, 193532, Note_off_c, 0, 60, 100
2, 193536, Control_c, 0, 64, 127
2, 193536, Note_on_c, 0, 68, 110
2, 193664, Note_on_c, 0, 62, 110
2, 193760, Note_off_c, 0, 68, 100
2, 193792, Note_on_c, 0, 68, 110
2, 193888, Note_off_c, 0, 62, 100
2, 193920, Note_on_c, 0, 62, 110
2, 193996, Note_off_c, 0, 68, 100
2, 194048, Note_on_c, 0, 68, 110
2, 194140, Note_off_c, 0, 62, 100
2, 194176, Note_on_c, 0, 62, 110
2, 194272, Note_off_c, 0, 68, 100
2, 194304, Note_on_c, 0, 68, 110
2, 194392, Note_off_c, 0, 62, 100
2, 194432, Note_on_c, 0, 62, 110
2, 194528, Note_off_c, 0, 68, 100
2, 194560, Note_on_c, 0, 68, 110
2, 194656, Note_off_c, 0, 62, 100
2, 194688, Note_on_c, 0, 62, 110
2, 194764, Note_off_c, 0, 68, 100
2, 194816, Note_on_c, 0, 68, 110
2, 194908, Note_off_c, 0, 62, 100
2, 194944, Note_on_c, 0, 62, 110
2, 195040, Note_off_c, 0, 68, 100
2, 195064, Control_c, 0, 64, 0
2, 195072, Control_c, 0, 64, 127
2, 195072, Note_on_c, 0, 68, 110
2, 195160, Note_off_c, 0, 62, 64
2, 195200, Note_on_c, 0, 62, 110
2, 195296, Note_off_c, 0, 68, 100
2, 195328, Note_on_c, 0, 68, 110
2, 195424, Note_off_c, 0, 62, 100
2, 195456, Note_on_c, 0, 62, 110
2, 195532, Note_off_c, 0, 68, 100
2, 195584, Note_on_c, 0, 68, 110
2, 195676, Note_off_c, 0, 62, 100
2, 195712, Note_on_c, 0, 62, 110
2, 195808, Note_off_c, 0, 68, 100
2, 195840, Note_on_c, 0, 68, 110
2, 195840, Note_on_c, 0, 80, 120
2, 195928, Note_off_c, 0, 62, 100
2, 195968, Note_on_c, 0, 62, 110
2, 196064, Note_off_c, 0, 68, 100
2, 196096, Note_on_c, 0, 68, 110
2, 196192, Note_off_c, 0, 62, 100
2, 196220, Note_off_c, 0, 80, 100
2, 196224, Note_on_c, 0, 62, 110
2, 196300, Note_off_c, 0, 68, 100
2, 196352, Note_on_c, 0, 68, 110
2, 196444, Note_off_c, 0, 62, 100
2, 196480, Note_on_c, 0, 62, 110
2, 196576, Note_off_c, 0, 68, 100
2, 196600, Control_c, 0, 64, 0
2, 196604, Note_off_c, 0, 62, 100
2, 196608, Control_c, 0, 64, 127
2, 196608, Note_on_c, 0, 69, 110
2, 196736, Note_on_c, 0, 64, 110
2, 196824, Note_off_c, 0, 69, 100
2, 196864, Note_on_c, 0, 69, 110
2, 196976, Note_off_c, 0, 64, 100
2, 196992, Note_on_c, 0, 64, 110
2, 197100, Note_off_c, 0, 69, 100
2, 197120, Note_on_c, 0, 69, 110
2, 197228, Note_off_c, 0, 64, 100
2, 197248, Note_on_c, 0, 64, 110
2, 197364, Note_off_c, 0, 69, 100
2, 197376, Note_on_c, 0, 69, 110
2, 197468, Note_off_c, 0, 64, 100
2, 197504, Note_on_c, 0, 64, 110
2, 197592, Note_off_c, 0, 69, 100
2, 197632, Note_on_c, 0, 69, 110
2, 197744, Note_off_c, 0, 64, 100
2, 197760, Note_on_c, 0, 64, 110
2, 197868, Note_off_c, 0, 69, 100
2, 197888, Note_on_c, 0, 69, 110
2, 197996, Note_off_c, 0, 64, 100
2, 198016, Note_on_c, 0, 64, 110
2, 198132, Note_off_c, 0, 69, 100
2, 198136, Control_c, 0, 64, 0
2, 198140, Note_off_c, 0, 64, 100
2, 198144, Control_c, 0, 64, 127
2, 198144, Note_on_c, 0, 69, 110
2, 198272, Note_on_c, 0, 72, 110
2, 198348, Note_off_c, 0, 69, 100
2, 198400, Note_on_c, 0, 69, 110
2, 198480, Note_off_c, 0, 72, 100
2, 198528, Note_on_c, 0, 72, 110
2, 198608, Note_off_c, 0, 69, 100
2, 198656, Note_on_c, 0, 69, 110
2, 198748, Note_off_c, 0, 72, 100
2, 198784, Note_on_c, 0, 72, 110
2, 198872, Note_off_c, 0, 69, 100
2, 198912, Note_on_c, 0, 69, 110
2, 198912, Note_on_c, 0, 81, 120
2, 198992, Note_off_c, 0, 72, 100
2, 199040, Note_on_c, 0, 72, 110
2, 199116, Note_off_c, 0, 69, 100
2, 199168, Note_on_c, 0, 69, 110
2, 199248, Note_off_c, 0, 72, 100
2, 199292, Note_off_c, 0, 81, 100
2, 199296, Note_on_c, 0, 72, 110
2, 199376, Note_off_c, 0, 69, 100
2, 199424, Note_on_c, 0, 69, 110
2, 199516, Note_off_c, 0, 72, 100
2, 199552, Note_on_c, 0, 72, 110
2, 199640, Note_off_c, 0, 69, 100
2, 199672, Control_c, 0, 64, 0
2, 199676, Note_off_c, 0, 72, 100
2, 199680, Control_c, 0, 64, 127
2, 199680, Note_on_c, 0, 69, 110
2, 199808, Note_on_c, 0, 72, 110
2, 199884, Note_off_c, 0, 69, 100
2, 199936, Note_on_c, 0, 69, 110
2, 200016, Note_off_c, 0, 72, 100
2, 200064, Note_on_c, 0, 72, 110
2, 200144, Note_off_c, 0, 69, 100
2, 200192, Note_on_c, 0, 69, 110
2, 200284, Note_off_c, 0, 72, 100
2, 200320, Note_on_c, 0, 72, 110
2, 200408, Note_off_c, 0, 69, 100
2, 200448, Note_on_c, 0, 69, 110
2, 200448, Note_on_c, 0, 81, 122
2, 200528, Note_off_c, 0, 72, 100
2, 200576, Note_on_c, 0, 72, 110
2, 200652, Note_off_c, 0, 69, 100
2, 200704, Note_on_c, 0, 69, 110
2, 200784, Note_off_c, 0, 72, 100
2, 200828, Note_off_c, 0, 81, 100
2, 200832, Note_on_c, 0, 72, 110
2, 200912, Note_off_c, 0, 69, 100
2, 200960, Note_on_c, 0, 69, 110
2, 201052, Note_off_c, 0, 72, 100
2, 201088, Note_on_c, 0, 72, 110
2, 201176, Note_off_c, 0, 69, 100
2, 201208, Control_c, 0, 64, 0
2, 201212, Note_off_c, 0, 72, 100
2, 201216, Control_c, 0, 64, 127
2, 201216, Note_on_c, 0, 69, 110
2, 201344, Note_on_c, 0, 72, 110
2, 201420, Note_off_c, 0, 69, 100
2, 201472, Note_on_c, 0, 69, 110
2, 201552, Note_off_c, 0, 72, 100
2, 201600, Note_on_c, 0, 72, 110
2, 201680, Note_off_c, 0, 69, 100
2, 201728, Note_on_c, 0, 69, 110
2, 201820, Note_off_c, 0, 72, 100
2, 201856, Note_on_c, 0, 72, 110
2, 201944, Note_off_c, 0, 69, 100
2, 201984, Note_on_c, 0, 69, 110
2, 201984, Note_on_c, 0, 81, 120
2, 202064, Note_off_c, 0, 72, 100
2, 202112, Note_on_c, 0, 72, 110
2, 202188, Note_off_c, 0, 69, 100
2, 202240, Note_on_c, 0, 69, 110
2, 202320, Note_off_c, 0, 72, 100
2, 202364, Note_off_c, 0, 81, 100
2, 202368, Note_on_c, 0, 72, 110
2, 202448, Note_off_c, 0, 69, 100
2, 202496, Note_on_c, 0, 69, 110
2, 202588, Note_off_c, 0, 72, 100
2, 202624, Note_on_c, 0, 72, 110
2, 202712, Note_off_c, 0, 69, 100
2, 202744, Control_c, 0, 64, 0
2, 202748, Note_off_c, 0, 72, 100
2, 202752, Note_on_c, 0, 80, 110
2, 202752, Note_on_c, 0, 71, 110
2, 202752, Note_on_c, 0, 68, 110
2, 203132, Note_off_c, 0, 80, 100
2, 203132, Note_off_c, 0, 71, 100
2, 203132, Note_off_c, 0, 68, 100
2, 203904, Note_on_c, 0, 83, 80
2, 204092, Note_off_c, 0, 83, 100
2, 204096, Note_on_c, 0, 80, 80
2, 204284, Note_off_c, 0, 80, 100
2, 204288, Note_on_c, 0, 76, 80
2, 204476, Note_off_c, 0, 76, 100
2, 204480, Note_on_c, 0, 77, 80
2, 204668, Note_off_c, 0, 77, 100
2, 204672, Note_on_c, 0, 77, 80
2, 204860, Note_off_c, 0, 77, 100
2, 204864, Note_on_c, 0, 74, 80
2, 205052, Note_off_c, 0, 74, 100
2, 205440, Note_on_c, 0, 83, 80
2, 205628, Note_off_c, 0, 83, 100
2, 205632, Note_on_c, 0, 80, 80
2, 205820, Note_off_c, 0, 80, 100
2, 205824, Note_on_c, 0, 76, 80
2, 206012, Note_off_c, 0, 76, 100
2, 206016, Note_on_c, 0, 77, 80
2, 206204, Note_off_c, 0, 77, 100
2, 206208, Note_on_c, 0, 77, 80
2, 206396, Note_off_c, 0, 77, 100
2, 206400, Note_on_c, 0, 74, 80
2, 206588, Note_off_c, 0, 74, 100
2, 206976, Note_on_c, 0, 83, 80
2, 207164, Note_off_c, 0, 83, 100
2, 207168, Note_on_c, 0, 80, 80
2, 207356, Note_off_c, 0, 80, 100
2, 207360, Note_on_c, 0, 76, 80
2, 207548, Note_off_c, 0, 76, 100
2, 207552, Note_on_c, 0, 77, 80
2, 207740, Note_off_c, 0, 77, 100
2, 207744, Note_on_c, 0, 77, 80
2, 207932, Note_off_c, 0, 77, 100
2, 207936, Note_on_c, 0, 74, 80
2, 208124, Note_off_c, 0, 74, 100
2, 208128, Note_on_c, 0, 74, 80
2, 208316, Note_off_c, 0, 74, 100
2, 208320, Note_on_c, 0, 72, 80
2, 208508, Note_off_c, 0, 72, 100
2, 208512, Note_on_c, 0, 72, 80
2, 208700, Note_off_c, 0, 72, 100
2, 208704, Note_on_c, 0, 71, 80
2, 208892, Note_off_c, 0, 71, 100
2, 208896, Note_on_c, 0, 71, 80
2, 209084, Note_off_c, 0, 71, 100
2, 209088, Note_on_c, 0, 72, 80
2, 209276, Note_off_c, 0, 72, 100
2, 209280, Note_on_c, 0, 69, 80
2, 209660, Note_off_c, 0, 69, 100
2, 210048, Note_on_c, 0, 84, 80
2, 210236, Note_off_c, 0, 84, 100
2, 210240, Note_on_c, 0, 81, 80
2, 210428, Note_off_c, 0, 81, 100
2, 210432, Note_on_c, 0, 75, 80
2, 210620, Note_off_c, 0, 75, 100
2, 210624, Note_on_c, 0, 76, 80
2, 210812, Note_off_c, 0, 76, 100
2, 210816, Note_on_c, 0, 76, 80
2, 211004, Note_off_c, 0, 76, 100
2, 211008, Note_on_c, 0, 72, 80
2, 211196, Note_off_c, 0, 72, 100
2, 211584, Note_on_c, 0, 84, 80
2, 211772, Note_off_c, 0, 84, 100
2, 211776, Note_on_c, 0, 81, 80
2, 211964, Note_off_c, 0, 81, 100
2, 211968, Note_on_c, 0, 75, 80
2, 212156, Note_off_c, 0, 75, 100
2, 212160, Note_on_c, 0, 76, 80
2, 212348, Note_off_c, 0, 76, 100
2, 212352, Note_on_c, 0, 76, 80
2, 212540, Note_off_c, 0, 76, 100
2, 212544, Note_on_c, 0, 72, 80
2, 212732, Note_off_c, 0, 72, 100
2, 213120, Note_on_c, 0, 84, 80
2, 213308, Note_off_c, 0, 84, 100
2, 213312, Note_on_c, 0, 81, 80
2, 213500, Note_off_c, 0, 81, 100
2, 213504, Note_on_c, 0, 75, 80
2, 213692, Note_off_c, 0, 75, 100
2, 213696, Note_on_c, 0, 76, 80
2, 213884, Note_off_c, 0, 76, 100
2, 213888, Note_on_c, 0, 76, 80
2, 214076, Note_off_c, 0, 76, 100
2, 214080, Note_on_c, 0, 72, 80
2, 214268, Note_off_c, 0, 72, 100
2, 214272, Note_on_c, 0, 72, 80
2, 214460, Note_off_c, 0, 72, 100
2, 214464, Note_on_c, 0, 71, 80
2, 214652, Note_off_c, 0, 71, 100
2, 214656, Note_on_c, 0, 71, 80
2, 214844, Note_off_c, 0, 71, 100
2, 214848, Note_on_c, 0, 69, 80
2, 215036, Note_off_c, 0, 69, 100
2, 215040, Note_on_c, 0, 69, 80
2, 215228, Note_off_c, 0, 69, 100
2, 215232, Note_on_c, 0, 68, 80
2, 215420, Note_off_c, 0, 68, 100
2, 215424, Note_on_c, 0, 71, 80
2, 215804, Note_off_c, 0, 71, 100
2, 216192, Note_on_c, 0, 89, 90
2, 216380, Note_off_c, 0, 89, 100
2, 216384, Note_on_c, 0, 86, 91
2, 216572, Note_off_c, 0, 86, 100
2, 216576, Note_on_c, 0, 85, 93
2, 216764, Note_off_c, 0, 85, 100
2, 216768, Note_on_c, 0, 86, 95
2, 216956, Note_off_c, 0, 86, 100
2, 216960, Note_on_c, 0, 83, 97
2, 217340, Note_off_c, 0, 83, 100
2, 217728, Note_on_c, 0, 89, 104
2, 217916, Note_off_c, 0, 89, 100
2, 217920, Note_on_c, 0, 86, 105
2, 218108, Note_off_c, 0, 86, 100
2, 218112, Note_on_c, 0, 85, 107
2, 218300, Note_off_c, 0, 85, 100
2, 218304, Note_on_c, 0, 86, 109
2, 218492, Note_off_c, 0, 86, 100
2, 218496, Note_on_c, 0, 83, 111
2, 218876, Note_off_c, 0, 83, 100
2, 219264, Note_on_c, 0, 89, 118
2, 219452, Note_off_c, 0, 89, 100
2, 219456, Note_on_c, 0, 86, 119
2, 219644, Note_off_c, 0, 86, 100
2, 219648, Note_on_c, 0, 83, 120
2, 219836, Note_off_c, 0, 83, 100
2, 219840, Note_on_c, 0, 86, 120
2, 220028, Note_off_c, 0, 86, 100
2, 220032, Note_on_c, 0, 80, 120
2, 220220, Note_off_c, 0, 80, 100
2, 220224, Note_on_c, 0, 83, 120
2, 220412, Note_off_c, 0, 83, 100
2, 220416, Note_on_c, 0, 77, 120
2, 220604, Note_off_c, 0, 77, 100
2, 220608, Note_on_c, 0, 80, 120
2, 220796, Note_off_c, 0, 80, 100
2, 220800, Note_on_c, 0, 74, 120
2, 220988, Note_off_c, 0, 74, 100
2, 220992, Note_on_c, 0, 77, 120
2, 221180, Note_off_c, 0, 77, 100
2, 221184, Note_on_c, 0, 71, 120
2, 221372, Note_off_c, 0, 71, 100
2, 221376, Note_on_c, 0, 74, 120
2, 221564, Note_off_c, 0, 74, 100
2, 221568, Note_on_c, 0, 68, 120
2, 221756, Note_off_c, 0, 68, 100
2, 221760, Note_on_c, 0, 71, 120
2, 221948, Note_off_c, 0, 71, 100
2, 221952, Note_on_c, 0, 65, 120
2, 222140, Note_off_c, 0, 65, 100
2, 222144, Note_on_c, 0, 68, 120
2, 222332, Note_off_c, 0, 68, 100
2, 222336, Note_on_c, 0, 62, 120
2, 222524, Note_off_c, 0, 62, 100
2, 222528, Note_on_c, 0, 65, 120
2, 222716, Note_off_c, 0, 65, 100
2, 222720, Note_on_c, 0, 59, 120
2, 222908, Note_off_c, 0, 59, 100
2, 222912, Note_on_c, 0, 62, 120
2, 223100, Note_off_c, 0, 62, 100
2, 223104, Note_on_c, 0, 56, 120
2, 223292, Note_off_c, 0, 56, 100
2, 223296, Note_on_c, 0, 59, 120
2, 223484, Note_off_c, 0, 59, 100
2, 223488, Note_on_c, 0, 50, 120
2, 223676, Note_off_c, 0, 50, 100
2, 223680, Note_on_c, 0, 59, 120
2, 223868, Note_off_c, 0, 59, 100
2, 223872, Note_on_c, 0, 56, 120
2, 224060, Note_off_c, 0, 56, 100
2, 224064, Note_on_c, 0, 50, 120
2, 224252, Note_off_c, 0, 50, 100
2, 224256, Note_on_c, 0, 48, 110
2, 224636, Note_off_c, 0, 48, 100
2, 224640, Note_on_c, 0, 52, 110
2, 224640, Note_on_c, 0, 48, 110
2, 224640, Note_on_c, 0, 57, 110
2, 225020, Note_off_c, 0, 52, 100
2, 225020, Note_off_c, 0, 48, 100
2, 225020, Note_off_c, 0, 57, 100
2, 225024, Note_on_c, 0, 58, 110
2, 225024, Note_on_c, 0, 53, 110
2, 225024, Note_on_c, 0, 50, 110
2, 226556, Note_off_c, 0, 58, 64
2, 226560, Note_on_c, 0, 57, 110
2, 226940, Note_off_c, 0, 57, 100
2, 226944, Note_on_c, 0, 56, 110
2, 227324, Note_off_c, 0, 50, 64
2, 227324, Note_off_c, 0, 53, 64
2, 227324, Note_off_c, 0, 56, 100
2, 227328, Note_on_c, 0, 57, 110
2, 227328, Note_on_c, 0, 52, 110
2, 227328, Note_on_c, 0, 48, 110
2, 227708, Note_off_c, 0, 57, 100
2, 227708, Note_off_c, 0, 52, 100
2, 227708, Note_off_c, 0, 48, 100
2, 227712, Note_on_c, 0, 64, 110
2, 227712, Note_on_c, 0, 60, 110
2, 227712, Note_on_c, 0, 69, 110
2, 228092, Note_off_c, 0, 64, 100
2, 228092, Note_off_c, 0, 60, 100
2, 228092, Note_off_c, 0, 69, 100
2, 228096, Note_on_c, 0, 70, 110
2, 228096, Note_on_c, 0, 65, 110
2, 228096, Note_on_c, 0, 62, 110
2, 229628, Note_off_c, 0, 70, 64
2, 229632, Note_on_c, 0, 69, 110
2, 230012, Note_off_c, 0, 69, 100
2, 230016, Note_on_c, 0, 68, 110
2, 230396, Note_off_c, 0, 62, 64
2, 230396, Note_off_c, 0, 65, 64
2, 230396, Note_off_c, 0, 68, 100
2, 230400, Note_on_c, 0, 69, 110
2, 230400, Note_on_c, 0, 64, 110
2, 230400, Note_on_c, 0, 60, 110
2, 230780, Note_off_c, 0, 69, 100
2, 230780, Note_off_c, 0, 64, 100
2, 230780, Note_off_c, 0, 60, 100
2, 230784, Note_on_c, 0, 81, 110
2, 230784, Note_on_c, 0, 69, 110
2, 231164, Note_off_c, 0, 81, 100
2, 231164, Note_off_c, 0, 69, 100
2, 231168, Note_on_c, 0, 82, 110
2, 231168, Note_on_c, 0, 70, 110
2, 232316, Note_off_c, 0, 70, 64
2, 232316, Note_off_c, 0, 82, 64
2, 232320, Note_on_c, 0, 83, 110
2, 232320, Note_on_c, 0, 71, 110
2, 232700, Note_off_c, 0, 83, 100
2, 232700, Note_off_c, 0, 71, 100
2, 232704, Note_on_c, 0, 84, 110
2, 232704, Note_on_c, 0, 72, 110
2, 233852, Note_off_c, 0, 72, 64
2, 233852, Note_off_c, 0, 84, 64
2, 233856, Note_on_c, 0, 85, 110
2, 233856, Note_on_c, 0, 73, 110
2, 234236, Note_off_c, 0, 85, 100
2, 234236, Note_off_c, 0, 73, 100
2, 234240, Note_on_c, 0, 86, 101
2, 234240, Note_on_c, 0, 74, 101
2, 234620, Note_off_c, 0, 86, 100
2, 234620, Note_off_c, 0, 74, 100
2, 234624, Note_on_c, 0, 88, 91
2, 234624, Note_on_c, 0, 76, 91
2, 235004, Note_off_c, 0, 88, 100
2, 235004, Note_off_c, 0, 76, 100
2, 235008, Note_on_c, 0, 89, 81
2, 235008, Note_on_c, 0, 77, 81
2, 235388, Note_off_c, 0, 89, 100
2, 235388, Note_off_c, 0, 77, 100
2, 235392, Note_on_c, 0, 77, 80
2, 235392, Note_on_c, 0, 65, 80
2, 236156, Note_off_c, 0, 77, 100
2, 236156, Note_off_c, 0, 65, 100
2, 236160, Note_on_c, 0, 76, 80
2, 236160, Note_on_c, 0, 64, 80
2, 236540, Note_off_c, 0, 76, 100
2, 236540, Note_off_c, 0, 64, 100
2, 236544, Note_on_c, 0, 69, 110
2, 236924, Note_off_c, 0, 69, 100
2, 237696, Note_on_c, 0, 64, 110
2, 237696, Note_on_c, 0, 61, 110
2, 238076, Note_off_c, 0, 64, 100
2, 238076, Note_off_c, 0, 61, 100
2, 238080, Note_on_c, 0, 65, 110
2, 238080, Note_on_c, 0, 62, 110
2, 238460, Note_off_c, 0, 65, 100
2, 238460, Note_off_c, 0, 62, 100
2, 238464, Note_on_c, 0, 74, 110
2, 238464, Note_on_c, 0, 65, 110
2, 239228, Note_off_c, 0, 74, 100
2, 239228, Note_off_c, 0, 65, 100
2, 239232, Note_on_c, 0, 74, 110
2, 239232, Note_on_c, 0, 65, 110
2, 239612, Note_off_c, 0, 74, 100
2, 239612, Note_off_c, 0, 65, 100
2, 239616, Note_on_c, 0, 73, 110
2, 239616, Note_on_c, 0, 64, 110
2, 239996, Note_off_c, 0, 73, 100
2, 239996, Note_off_c, 0, 64, 100
2, 240768, Note_on_c, 0, 64, 110
2, 240768, Note_on_c, 0, 61, 110
2, 241148, Note_off_c, 0, 64, 100
2, 241148, Note_off_c, 0, 61, 100
2, 241152, Note_on_c, 0, 65, 110
2, 241152, Note_on_c, 0, 62, 110
2, 241532, Note_off_c, 0, 65, 100
2, 241532, Note_off_c, 0, 62, 100
2, 241536, Note_on_c, 0, 77, 110
2, 241536, Note_on_c, 0, 74, 110
2, 242300, Note_off_c, 0, 77, 100
2, 242300, Note_off_c, 0, 74, 100
2, 242304, Note_on_c, 0, 77, 110
2, 242304, Note_on_c, 0, 74, 110
2, 242684, Note_off_c, 0, 77, 100
2, 242684, Note_off_c, 0, 74, 100
2, 242688, Note_on_c, 0, 76, 110
2, 242688, Note_on_c, 0, 73, 110
2, 243068, Note_off_c, 0, 76, 100
2, 243068, Note_off_c, 0, 73, 100
2, 243840, Note_on_c, 0, 64, 110
2, 243840, Note_on_c, 0, 61, 110
2, 244220, Note_off_c, 0, 64, 100
2, 244220, Note_off_c, 0, 61, 100
2, 244224, Note_on_c, 0, 65, 110
2, 244224, Note_on_c, 0, 62, 110
2, 244604, Note_off_c, 0, 65, 100
2, 244604, Note_off_c, 0, 62, 100
2, 244608, Note_on_c, 0, 77, 110
2, 244608, Note_on_c, 0, 74, 110
2, 245372, Note_off_c, 0, 77, 100
2, 245372, Note_off_c, 0, 74, 100
2, 245376, Note_on_c, 0, 89, 110
2, 245376, Note_on_c, 0, 86, 110
2, 246140, Note_off_c, 0, 86, 64
2, 246140, Note_off_c, 0, 89, 64
2, 246912, Note_on_c, 0, 77, 80
2, 246912, Note_on_c, 0, 74, 80
2, 247292, Note_off_c, 0, 77, 100
2, 247292, Note_off_c, 0, 74, 100
2, 247296, Note_on_c, 0, 76, 80
2, 247296, Note_on_c, 0, 72, 80
2, 247676, Note_off_c, 0, 76, 100
2, 247676, Note_off_c, 0, 72, 100
2, 248448, Note_on_c, 0, 88, 80
2, 248448, Note_on_c, 0, 84, 80
2, 248828, Note_off_c, 0, 88, 100
2, 248828, Note_off_c, 0, 84, 100
2, 248832, Note_on_c, 0, 86, 80
2, 248832, Note_on_c, 0, 83, 80
2, 249212, Note_off_c, 0, 86, 100
2, 249212, Note_off_c, 0, 83, 100
2, 249984, Note_on_c, 0, 74, 80
2, 249984, Note_on_c, 0, 71, 80
2, 250364, Note_off_c, 0, 74, 100
2, 250364, Note_off_c, 0, 71, 100
2, 250368, Note_on_c, 0, 72, 80
2, 250368, Note_on_c, 0, 69, 80
2, 250748, Note_off_c, 0, 72, 100
2, 250748, Note_off_c, 0, 69, 100
2, 251520, Note_on_c, 0, 81, 80
2, 251520, Note_on_c, 0, 84, 80
2, 251900, Note_off_c, 0, 84, 100
2, 251904, Note_on_c, 0, 83, 85
2, 252284, Note_off_c, 0, 81, 64
2, 252284, Note_off_c, 0, 83, 100
2, 253056, Note_on_c, 0, 71, 103
2, 253056, Note_on_c, 0, 69, 103
2, 253436, Note_off_c, 0, 69, 100
2, 253440, Note_on_c, 0, 68, 109
2, 253820, Note_off_c, 0, 71, 64
2, 253820, Note_off_c, 0, 68, 100
2, 254592, Note_on_c, 0, 80, 98
2, 254592, Note_on_c, 0, 71, 98
2, 254972, Note_off_c, 0, 80, 100
2, 254972, Note_off_c, 0, 71, 100
2, 254976, Note_on_c, 0, 81, 80
2, 255164, Note_off_c, 0, 81, 100
2, 255168, Note_on_c, 0, 76, 80
2, 255356, Note_off_c, 0, 76, 100
2, 255360, Note_on_c, 0, 72, 80
2, 255548, Note_off_c, 0, 72, 100
2, 255552, Note_on_c, 0, 84, 80
2, 255740, Note_off_c, 0, 84, 100
2, 255744, Note_on_c, 0, 83, 80
2, 255932, Note_off_c, 0, 83, 100
2, 255936, Note_on_c, 0, 80, 80
2, 256124, Note_off_c, 0, 80, 100
2, 256128, Note_on_c, 0, 76, 80
2, 256316, Note_off_c, 0, 76, 100
2, 256320, Note_on_c, 0, 86, 80
2, 256508, Note_off_c, 0, 86, 100
2, 256512, Note_on_c, 0, 84, 80
2, 256700, Note_off_c, 0, 84, 100
2, 256704, Note_on_c, 0, 81, 80
2, 256892, Note_off_c, 0, 81, 100
2, 256896, Note_on_c, 0, 76, 80
2, 257084, Note_off_c, 0, 76, 100
2, 257088, Note_on_c, 0, 88, 80
2, 257276, Note_off_c, 0, 88, 100
2, 257280, Note_on_c, 0, 87, 80
2, 257468, Note_off_c, 0, 87, 100
2, 257472, Note_on_c, 0, 88, 80
2, 257660, Note_off_c, 0, 88, 100
2, 257664, Note_on_c, 0, 87, 80
2, 257852, Note_off_c, 0, 87, 100
2, 257856, Note_on_c, 0, 88, 80
2, 258044, Note_off_c, 0, 88, 100
2, 258048, Note_on_c, 0, 88, 80
2, 258048, Note_on_c, 0, 76, 80
2, 258048, Note_on_c, 0, 84, 80
2, 258812, Note_off_c, 0, 88, 100
2, 258812, Note_off_c, 0, 76, 100
2, 258812, Note_off_c, 0, 84, 100
2, 258816, Note_on_c, 0, 83, 80
2, 258816, Note_on_c, 0, 74, 80
2, 258816, Note_on_c, 0, 86, 80
2, 259580, Note_off_c, 0, 83, 100
2, 259580, Note_off_c, 0, 74, 100
2, 259580, Note_off_c, 0, 86, 100
2, 259584, Note_on_c, 0, 84, 80
2, 259584, Note_on_c, 0, 81, 80
2, 259584, Note_on_c, 0, 72, 80
2, 260348, Note_off_c, 0, 84, 100
2, 260348, Note_off_c, 0, 81, 100
2, 260348, Note_off_c, 0, 72, 100
2, 260352, Note_on_c, 0, 83, 80
2, 260352, Note_on_c, 0, 80, 80
2, 260352, Note_on_c, 0, 71, 80
2, 261116, Note_off_c, 0, 83, 100
2, 261116, Note_off_c, 0, 80, 100
2, 261116, Note_off_c, 0, 71, 100
2, 261120, Note_on_c, 0, 81, 80
2, 261308, Note_off_c, 0, 81, 100
2, 261312, Note_on_c, 0, 76, 80
2, 261500, Note_off_c, 0, 76, 100
2, 261504, Note_on_c, 0, 72, 80
2, 261692, Note_off_c, 0, 72, 100
2, 261696, Note_on_c, 0, 84, 80
2, 261884, Note_off_c, 0, 84, 100
2, 261888, Note_on_c, 0, 83, 80
2, 262076, Note_off_c, 0, 83, 100
2, 262080, Note_on_c, 0, 80, 80
2, 262268, Note_off_c, 0, 80, 100
2, 262272, Note_on_c, 0, 76, 80
2, 262460, Note_off_c, 0, 76, 100
2, 262464, Note_on_c, 0, 86, 80
2, 262652, Note_off_c, 0, 86, 100
2, 262656, Note_on_c, 0, 84, 80
2, 262844, Note_off_c, 0, 84, 100
2, 262848, Note_on_c, 0, 81, 80
2, 263036, Note_off_c, 0, 81, 100
2, 263040, Note_on_c, 0, 76, 80
2, 263228, Note_off_c, 0, 76, 100
2, 263232, Note_on_c, 0, 88, 80
2, 263420, Note_off_c, 0, 88, 100
2, 263424, Note_on_c, 0, 87, 80
2, 263612, Note_off_c, 0, 87, 100
2, 263616, Note_on_c, 0, 88, 80
2, 263804, Note_off_c, 0, 88, 100
2, 263808, Note_on_c, 0, 87, 80
2, 263996, Note_off_c, 0, 87, 100
2, 264000, Note_on_c, 0, 88, 80
2, 264188, Note_off_c, 0, 88, 100
2, 264192, Note_on_c, 0, 76, 80
2, 264576, Note_on_c, 0, 84, 80
2, 264576, Note_on_c, 0, 88, 80
2, 265340, Note_off_c, 0, 76, 100
2, 265340, Note_off_c, 0, 84, 100
2, 265340, Note_off_c, 0, 88, 100
2, 265344, Note_on_c, 0, 74, 80
2, 265344, Note_on_c, 0, 83, 80
2, 265344, Note_on_c, 0, 86, 80
2, 266108, Note_off_c, 0, 74, 64
2, 266108, Note_off_c, 0, 83, 64
2, 266108, Note_off_c, 0, 86, 64
2, 266112, Note_on_c, 0, 84, 80
2, 266112, Note_on_c, 0, 81, 80
2, 266112, Note_on_c, 0, 72, 80
2, 266876, Note_off_c, 0, 84, 100
2, 266876, Note_off_c, 0, 81, 100
2, 266876, Note_off_c, 0, 72, 100
2, 266880, Note_on_c, 0, 83, 80
2, 266880, Note_on_c, 0, 80, 80
2, 266880, Note_on_c, 0, 71, 80
2, 267260, Note_off_c, 0, 83, 100
2, 267260, Note_off_c, 0, 80, 100
2, 267260, Note_off_c, 0, 71, 100
2, 267264, Note_on_c, 0, 81, 80
2, 267452, Note_off_c, 0, 81, 100
2, 267456, Note_on_c, 0, 76, 80
2, 267644, Note_off_c, 0, 76, 100
2, 267648, Note_on_c, 0, 72, 80
2, 267836, Note_off_c, 0, 72, 100
2, 267840, Note_on_c, 0, 84, 80
2, 268028, Note_off_c, 0, 84, 100
2, 268032, Note_on_c, 0, 83, 80
2, 268220, Note_off_c, 0, 83, 100
2, 268224, Note_on_c, 0, 80, 80
2, 268412, Note_off_c, 0, 80, 100
2, 268416, Note_on_c, 0, 76, 80
2, 268604, Note_off_c, 0, 76, 100
2, 268608, Note_on_c, 0, 86, 80
2, 268796, Note_off_c, 0, 86, 100
2, 268800, Note_on_c, 0, 84, 80
2, 268988, Note_off_c, 0, 84, 100
2, 268992, Note_on_c, 0, 81, 80
2, 269180, Note_off_c, 0, 81, 100
2, 269184, Note_on_c, 0, 76, 80
2, 269372, Note_off_c, 0, 76, 100
2, 269376, Note_on_c, 0, 88, 80
2, 269564, Note_off_c, 0, 88, 100
2, 269568, Note_on_c, 0, 87, 80
2, 269756, Note_off_c, 0, 87, 100
2, 269760, Note_on_c, 0, 88, 80
2, 269948, Note_off_c, 0, 88, 100
2, 269952, Note_on_c, 0, 87, 80
2, 270140, Note_off_c, 0, 87, 100
2, 270144, Note_on_c, 0, 88, 80
2, 270332, Note_off_c, 0, 88, 100
2, 270336, Note_on_c, 0, 84, 80
2, 270524, Note_off_c, 0, 84, 100
2, 270528, Note_on_c, 0, 81, 80
2, 270716, Note_off_c, 0, 81, 100
2, 270720, Note_on_c, 0, 76, 80
2, 270908, Note_off_c, 0, 76, 100
2, 270912, Note_on_c, 0, 88, 80
2, 271100, Note_off_c, 0, 88, 100
2, 271104, Note_on_c, 0, 87, 80
2, 271292, Note_off_c, 0, 87, 100
2, 271296, Note_on_c, 0, 88, 80
2, 271484, Note_off_c, 0, 88, 100
2, 271488, Note_on_c, 0, 87, 80
2, 271676, Note_off_c, 0, 87, 100
2, 271680, Note_on_c, 0, 88, 80
2, 271868, Note_off_c, 0, 88, 100
2, 271872, Note_on_c, 0, 84, 80
2, 272060, Note_off_c, 0, 84, 100
2, 272064, Note_on_c, 0, 81, 80
2, 272252, Note_off_c, 0, 81, 100
2, 272256, Note_on_c, 0, 76, 80
2, 272444, Note_off_c, 0, 76, 100
2, 272448, Note_on_c, 0, 88, 80
2, 272636, Note_off_c, 0, 88, 100
2, 272640, Note_on_c, 0, 87, 80
2, 272828, Note_off_c, 0, 87, 100
2, 272832, Note_on_c, 0, 88, 80
2, 273020, Note_off_c, 0, 88, 100
2, 273024, Note_on_c, 0, 87, 80
2, 273212, Note_off_c, 0, 87, 100
2, 273216, Note_on_c, 0, 88, 80
2, 273404, Note_off_c, 0, 88, 100
2, 273408, Note_on_c, 0, 81, 80
2, 273788, Note_off_c, 0, 81, 100
2, 274176, Note_on_c, 0, 57, 80
2, 274940, Note_off_c, 0, 57, 100
2, 274944, Note_on_c, 0, 57, 80
2, 275708, Note_off_c, 0, 57, 100
2, 275712, Note_on_c, 0, 57, 80
2, 276476, Note_off_c, 0, 57, 100
2, 276480, Note_on_c, 0, 57, 80
2, 279548, Note_off_c, 0, 57, 100
2, 279552, Note_on_c, 0, 55, 80
2, 282620, Note_off_c, 0, 55, 100
2, 282624, Control_c, 0, 64, 127
2, 282816, Note_on_c, 0, 62, 70
2, 283392, Note_on_c, 0, 66, 70
2, 283772, Note_off_c, 0, 62, 100
2, 283776, Note_on_c, 0, 69, 70
2, 284160, Note_on_c, 0, 74, 70
2, 284540, Note_off_c, 0, 66, 100
2, 285304, Control_c, 0, 64, 0
2, 285308, Note_off_c, 0, 69, 100
2, 285308, Note_off_c, 0, 74, 100
2, 285696, Control_c, 0, 64, 127
2, 285936, Note_on_c, 0, 66, 70
2, 286464, Note_on_c, 0, 69, 70
2, 286848, Note_on_c, 0, 75, 70
2, 287232, Note_on_c, 0, 78, 70
2, 288376, Control_c, 0, 64, 0
2, 288380, Note_off_c, 0, 66, 100
2, 288380, Note_off_c, 0, 69, 100
2, 288380, Note_off_c, 0, 75, 100
2, 288380, Note_off_c, 0, 78, 100
2, 288768, Control_c, 0, 64, 127
2, 288960, Note_on_c, 0, 70, 70
2, 289536, Note_on_c, 0, 73, 70
2, 289920, Note_on_c, 0, 78, 70
2, 290304, Note_on_c, 0, 82, 70
2, 291832, Control_c, 0, 64, 0
2, 291836, Note_off_c, 0, 70, 100
2, 291836, Note_off_c, 0, 73, 100
2, 291836, Note_off_c, 0, 78, 100
2, 291836, Note_off_c, 0, 82, 100
2, 291840, Control_c, 0, 64, 127
2, 291840, Note_on_c, 0, 57, 100
2, 291840, Note_on_c, 0, 54, 100
2, 291968, Note_on_c, 0, 61, 100
2, 292040, Note_off_c, 0, 57, 100
2, 292040, Note_off_c, 0, 54, 100
2, 292096, Note_on_c, 0, 57, 100
2, 292096, Note_on_c, 0, 54, 100
2, 292184, Note_off_c, 0, 61, 100
2, 292224, Note_on_c, 0, 61, 100
2, 292308, Note_off_c, 0, 57, 100
2, 292312, Note_off_c, 0, 54, 100
2, 292352, Note_on_c, 0, 57, 100
2, 292352, Note_on_c, 0, 54, 100
2, 292456, Note_off_c, 0, 61, 100
2, 292480, Note_on_c, 0, 61, 100
2, 292572, Note_off_c, 0, 57, 100
2, 292580, Note_off_c, 0, 54, 100
2, 292608, Note_on_c, 0, 57, 100
2, 292608, Note_on_c, 0, 54, 100
2, 292704, Note_off_c, 0, 61, 100
2, 292736, Note_on_c, 0, 61, 100
2, 292808, Note_off_c, 0, 57, 100
2, 292808, Note_off_c, 0, 54, 100
2, 292864, Note_on_c, 0, 57, 100
2, 292864, Note_on_c, 0, 54, 100
2, 292952, Note_off_c, 0, 61, 100
2, 292992, Note_on_c, 0, 61, 100
2, 293076, Note_off_c, 0, 57, 100
2, 293080, Note_off_c, 0, 54, 100
2, 293120, Note_on_c, 0, 57, 100
2, 293120, Note_on_c, 0, 54, 100
2, 293224, Note_off_c, 0, 61, 100
2, 293248, Note_on_c, 0, 61, 100
2, 293340, Note_off_c, 0, 57, 100
2, 293348, Note_off_c, 0, 54, 100
2, 293368, Control_c, 0, 64, 0
2, 293376, Control_c, 0, 64, 127
2, 293376, Note_on_c, 0, 57, 98
2, 293376, Note_on_c, 0, 54, 98
2, 293472, Note_off_c, 0, 61, 100
2, 293504, Note_on_c, 0, 61, 96
2, 293576, Note_off_c, 0, 57, 100
2, 293576, Note_off_c, 0, 54, 100
2, 293632, Note_on_c, 0, 57, 93
2, 293632, Note_on_c, 0, 54, 93
2, 293720, Note_off_c, 0, 61, 100
2, 293760, Note_on_c, 0, 61, 91
2, 293844, Note_off_c, 0, 57, 100
2, 293848, Note_off_c, 0, 54, 100
2, 293888, Note_on_c, 0, 57, 88
2, 293888, Note_on_c, 0, 54, 88
2, 293992, Note_off_c, 0, 61, 100
2, 294016, Note_on_c, 0, 61, 86
2, 294108, Note_off_c, 0, 57, 100
2, 294116, Note_off_c, 0, 54, 100
2, 294144, Note_on_c, 0, 57, 83
2, 294144, Note_on_c, 0, 54, 83
2, 294240, Note_off_c, 0, 61, 100
2, 294272, Note_on_c, 0, 61, 80
2, 294344, Note_off_c, 0, 57, 100
2, 294344, Note_off_c, 0, 54, 100
2, 294400, Note_on_c, 0, 57, 80
2, 294400, Note_on_c, 0, 54, 80
2, 294488, Note_off_c, 0, 61, 100
2, 294528, Note_on_c, 0, 61, 80
2, 294612, Note_off_c, 0, 57, 100
2, 294616, Note_off_c, 0, 54, 100
2, 294656, Note_on_c, 0, 57, 80
2, 294656, Note_on_c, 0, 54, 80
2, 294760, Note_off_c, 0, 61, 100
2, 294784, Note_on_c, 0, 61, 80
2, 294876, Note_off_c, 0, 57, 100
2, 294884, Note_off_c, 0, 54, 100
2, 294904, Control_c, 0, 64, 0
2, 294912, Control_c, 0, 64, 127
2, 294912, Note_on_c, 0, 57, 80
2, 294912, Note_on_c, 0, 54, 80
2, 295008, Note_off_c, 0, 61, 100
2, 295040, Note_on_c, 0, 61, 80
2, 295112, Note_off_c, 0, 57, 100
2, 295112, Note_off_c, 0, 54, 100
2, 295168, Note_on_c, 0, 57, 80
2, 295168, Note_on_c, 0, 54, 80
2, 295256, Note_off_c, 0, 61, 100
2, 295296, Note_on_c, 0, 61, 80
2, 295380, Note_off_c, 0, 57, 100
2, 295384, Note_off_c, 0, 54, 100
2, 295424, Note_on_c, 0, 57, 80
2, 295424, Note_on_c, 0, 54, 80
2, 295528, Note_off_c, 0, 61, 100
2, 295552, Note_on_c, 0, 61, 80
2, 295644, Note_off_c, 0, 57, 100
2, 295652, Note_off_c, 0, 54, 100
2, 295680, Note_on_c, 0, 57, 80
2, 295680, Note_on_c, 0, 54, 80
2, 295776, Note_off_c, 0, 61, 100
2, 295808, Note_on_c, 0, 61, 80
2, 295880, Note_off_c, 0, 57, 100
2, 295880, Note_off_c, 0, 54, 100
2, 295936, Note_on_c, 0, 57, 80
2, 295936, Note_on_c, 0, 54, 80
2, 296024, Note_off_c, 0, 61, 100
2, 296064, Note_on_c, 0, 61, 80
2, 296148, Note_off_c, 0, 57, 100
2, 296152, Note_off_c, 0, 54, 100
2, 296192, Note_on_c, 0, 57, 80
2, 296192, Note_on_c, 0, 54, 80
2, 296296, Note_off_c, 0, 61, 100
2, 296320, Note_on_c, 0, 61, 80
2, 296412, Note_off_c, 0, 57, 100
2, 296420, Note_off_c, 0, 54, 100
2, 296440, Control_c, 0, 64, 0
2, 296448, Control_c, 0, 64, 127
2, 296448, Note_on_c, 0, 57, 80
2, 296448, Note_on_c, 0, 54, 80
2, 296544, Note_off_c, 0, 61, 100
2, 296576, Note_on_c, 0, 61, 80
2, 296648, Note_off_c, 0, 57, 100
2, 296648, Note_off_c, 0, 54, 100
2, 296704, Note_on_c, 0, 57, 80
2, 296704, Note_on_c, 0, 54, 80
2, 296792, Note_off_c, 0, 61, 100
2, 296832, Note_on_c, 0, 61, 80
2, 296916, Note_off_c, 0, 57, 100
2, 296920, Note_off_c, 0, 54, 100
2, 296960, Note_on_c, 0, 57, 80
2, 296960, Note_on_c, 0, 54, 80
2, 297064, Note_off_c, 0, 61, 100
2, 297088, Note_on_c, 0, 61, 80
2, 297180, Note_off_c, 0, 57, 100
2, 297188, Note_off_c, 0, 54, 100
2, 297216, Note_on_c, 0, 57, 80
2, 297216, Note_on_c, 0, 54, 80
2, 297312, Note_off_c, 0, 61, 100
2, 297344, Note_on_c, 0, 61, 80
2, 297416, Note_off_c, 0, 57, 100
2, 297416, Note_off_c, 0, 54, 100
2, 297472, Note_on_c, 0, 57, 80
2, 297472, Note_on_c, 0, 54, 80
2, 297560, Note_off_c, 0, 61, 100
2, 297600, Note_on_c, 0, 61, 80
2, 297684, Note_off_c, 0, 57, 100
2, 297688, Note_off_c, 0, 54, 100
2, 297728, Note_on_c, 0, 57, 80
2, 297728, Note_on_c, 0, 54, 80
2, 297832, Note_off_c, 0, 61, 100
2, 297856, Note_on_c, 0, 61, 80
2, 297948, Note_off_c, 0, 57, 100
2, 297956, Note_off_c, 0, 54, 100
2, 297976, Control_c, 0, 64, 0
2, 297980, Note_off_c, 0, 61, 100
2, 297984, Control_c, 0, 64, 127
2, 297984, Note_on_c, 0, 59, 100
2, 297984, Note_on_c, 0, 53, 100
2, 298112, Note_on_c, 0, 61, 100
2, 298192, Note_off_c, 0, 53, 100
2, 298196, Note_off_c, 0, 59, 100
2, 298240, Note_on_c, 0, 59, 100
2, 298240, Note_on_c, 0, 53, 100
2, 298340, Note_off_c, 0, 61, 100
2, 298368, Note_on_c, 0, 61, 100
2, 298456, Note_off_c, 0, 59, 100
2, 298476, Note_off_c, 0, 53, 100
2, 298496, Note_on_c, 0, 59, 100
2, 298496, Note_on_c, 0, 53, 100
2, 298604, Note_off_c, 0, 61, 100
2, 298624, Note_on_c, 0, 61, 100
2, 298696, Note_off_c, 0, 53, 100
2, 298720, Note_off_c, 0, 59, 100
2, 298752, Note_on_c, 0, 59, 100
2, 298752, Note_on_c, 0, 53, 100
2, 298832, Note_off_c, 0, 61, 100
2, 298880, Note_on_c, 0, 61, 100
2, 298960, Note_off_c, 0, 53, 100
2, 298964, Note_off_c, 0, 59, 100
2, 299008, Note_on_c, 0, 59, 100
2, 299008, Note_on_c, 0, 53, 100
2, 299108, Note_off_c, 0, 61, 100
2, 299136, Note_on_c, 0, 61, 100
2, 299224, Note_off_c, 0, 59, 100
2, 299244, Note_off_c, 0, 53, 100
2, 299264, Note_on_c, 0, 59, 100
2, 299264, Note_on_c, 0, 53, 100
2, 299372, Note_off_c, 0, 61, 100
2, 299392, Note_on_c, 0, 61, 100
2, 299464, Note_off_c, 0, 53, 100
2, 299488, Note_off_c, 0, 59, 100
2, 299512, Control_c, 0, 64, 0
2, 299520, Control_c, 0, 64, 127
2, 299520, Note_on_c, 0, 59, 100
2, 299520, Note_on_c, 0, 53, 100
2, 299600, Note_off_c, 0, 61, 100
2, 299648, Note_on_c, 0, 61, 97
2, 299728, Note_off_c, 0, 53, 100
2, 299732, Note_off_c, 0, 59, 100
2, 299776, Note_on_c, 0, 59, 93
2, 299776, Note_on_c, 0, 53, 93
2, 299876, Note_off_c, 0, 61, 100
2, 299904, Note_on_c, 0, 61, 89
2, 299992, Note_off_c, 0, 59, 100
2, 300012, Note_off_c, 0, 53, 100
2, 300032, Note_on_c, 0, 59, 85
2, 300032, Note_on_c, 0, 53, 85
2, 300140, Note_off_c, 0, 61, 100
2, 300160, Note_on_c, 0, 61, 81
2, 300232, Note_off_c, 0, 53, 100
2, 300256, Note_off_c, 0, 59, 100
2, 300288, Note_on_c, 0, 59, 80
2, 300288, Note_on_c, 0, 53, 80
2, 300368, Note_off_c, 0, 61, 100
2, 300416, Note_on_c, 0, 61, 80
2, 300496, Note_off_c, 0, 53, 100
2, 300500, Note_off_c, 0, 59, 100
2, 300544, Note_on_c, 0, 59, 80
2, 300544, Note_on_c, 0, 53, 80
2, 300644, Note_off_c, 0, 61, 100
2, 300672, Note_on_c, 0, 61, 80
2, 300760, Note_off_c, 0, 59, 100
2, 300780, Note_off_c, 0, 53, 100
2, 300800, Note_on_c, 0, 59, 80
2, 300800, Note_on_c, 0, 53, 80
2, 300908, Note_off_c, 0, 61, 100
2, 300928, Note_on_c, 0, 61, 80
2, 301000, Note_off_c, 0, 53, 100
2, 301024, Note_off_c, 0, 59, 100
2, 301048, Control_c, 0, 64, 0
2, 301056, Control_c, 0, 64, 127
2, 301056, Note_on_c, 0, 59, 80
2, 301056, Note_on_c, 0, 53, 80
2, 301136, Note_off_c, 0, 61, 100
2, 301184, Note_on_c, 0, 61, 80
2, 301264, Note_off_c, 0, 53, 100
2, 301268, Note_off_c, 0, 59, 100
2, 301312, Note_on_c, 0, 59, 80
2, 301312, Note_on_c, 0, 53, 80
2, 301412, Note_off_c, 0, 61, 100
2, 301440, Note_on_c, 0, 61, 80
2, 301528, Note_off_c, 0, 59, 100
2, 301548, Note_off_c, 0, 53, 100
2, 301568, Note_on_c, 0, 59, 80
2, 301568, Note_on_c, 0, 53, 80
2, 301676, Note_off_c, 0, 61, 100
2, 301696, Note_on_c, 0, 61, 80
2, 301768, Note_off_c, 0, 53, 100
2, 301792, Note_off_c, 0, 59, 100
2, 301824, Note_on_c, 0, 59, 80
2, 301824, Note_on_c, 0, 53, 80
2, 301904, Note_off_c, 0, 61, 100
2, 301952, Note_on_c, 0, 61, 80
2, 302032, Note_off_c, 0, 53, 100
2, 302036, Note_off_c, 0, 59, 100
2, 302080, Note_on_c, 0, 59, 80
2, 302080, Note_on_c, 0, 53, 80
2, 302180, Note_off_c, 0, 61, 100
2, 302208, Note_on_c, 0, 61, 80
2, 302296, Note_off_c, 0, 59, 100
2, 302316, Note_off_c, 0, 53, 100
2, 302336, Note_on_c, 0, 59, 80
2, 302336, Note_on_c, 0, 53, 80
2, 302444, Note_off_c, 0, 61, 100
2, 302464, Note_on_c, 0, 61, 80
2, 302536, Note_off_c, 0, 53, 100
2, 302560, Note_off_c, 0, 59, 100
2, 302584, Control_c, 0, 64, 0
2, 302592, Control_c, 0, 64, 127
2, 302592, Note_on_c, 0, 59, 80
2, 302592, Note_on_c, 0, 53, 80
2, 302672, Note_off_c, 0, 61, 100
2, 302720, Note_on_c, 0, 61, 80
2, 302800, Note_off_c, 0, 53, 100
2, 302804, Note_off_c, 0, 59, 100
2, 302848, Note_on_c, 0, 59, 80
2, 302848, Note_on_c, 0, 53, 80
2, 302948, Note_off_c, 0, 61, 100
2, 302976, Note_on_c, 0, 61, 80
2, 303064, Note_off_c, 0, 59, 100
2, 303084, Note_off_c, 0, 53, 100
2, 303104, Note_on_c, 0, 59, 80
2, 303104, Note_on_c, 0, 53, 80
2, 303212, Note_off_c, 0, 61, 100
2, 303232, Note_on_c, 0, 61, 80
2, 303304, Note_off_c, 0, 53, 100
2, 303328, Note_off_c, 0, 59, 100
2, 303360, Note_on_c, 0, 59, 80
2, 303360, Note_on_c, 0, 53, 80
2, 303440, Note_off_c, 0, 61, 100
2, 303488, Note_on_c, 0, 61, 80
2, 303568, Note_off_c, 0, 53, 100
2, 303572, Note_off_c, 0, 59, 100
2, 303616, Note_on_c, 0, 59, 80
2, 303616, Note_on_c, 0, 53, 80
2, 303716, Note_off_c, 0, 61, 100
2, 303744, Note_on_c, 0, 61, 80
2, 303832, Note_off_c, 0, 59, 100
2, 303852, Note_off_c, 0, 53, 100
2, 303872, Note_on_c, 0, 59, 80
2, 303872, Note_on_c, 0, 53, 80
2, 303980, Note_off_c, 0, 61, 100
2, 304000, Note_on_c, 0, 61, 80
2, 304072, Note_off_c, 0, 53, 100
2, 304096, Note_off_c, 0, 59, 100
2, 304120, Control_c, 0, 64, 0
2, 304124, Note_off_c, 0, 61, 100
2, 304128, Control_c, 0, 64, 127
2, 304128, Note_on_c, 0, 54, 100
2, 304256, Note_on_c, 0, 57, 100
2, 304256, Note_on_c, 0, 61, 100
2, 304332, Note_off_c, 0, 54, 100
2, 304384, Note_on_c, 0, 54, 100
2, 304480, Note_off_c, 0, 57, 100
2, 304500, Note_off_c, 0, 61, 100
2, 304512, Note_on_c, 0, 57, 100
2, 304512, Note_on_c, 0, 61, 100
2, 304592, Note_off_c, 0, 54, 100
2, 304640, Note_on_c, 0, 54, 100
2, 304712, Note_off_c, 0, 57, 100
2, 304736, Note_off_c, 0, 61, 100
2, 304768, Note_on_c, 0, 57, 100
2, 304768, Note_on_c, 0, 61, 100
2, 304864, Note_off_c, 0, 54, 100
2, 304896, Note_on_c, 0, 54, 100
2, 304984, Note_off_c, 0, 61, 100
2, 304992, Note_off_c, 0, 57, 100
2, 305024, Note_on_c, 0, 57, 100
2, 305024, Note_on_c, 0, 61, 100
2, 305100, Note_off_c, 0, 54, 100
2, 305152, Note_on_c, 0, 54, 100
2, 305248, Note_off_c, 0, 57, 100
2, 305268, Note_off_c, 0, 61, 100
2, 305280, Note_on_c, 0, 57, 100
2, 305280, Note_on_c, 0, 61, 100
2, 305360, Note_off_c, 0, 54, 100
2, 305408, Note_on_c, 0, 54, 100
2, 305480, Note_off_c, 0, 57, 100
2, 305504, Note_off_c, 0, 61, 100
2, 305536, Note_on_c, 0, 57, 100
2, 305536, Note_on_c, 0, 61, 100
2, 305632, Note_off_c, 0, 54, 100
2, 305656, Control_c, 0, 64, 0
2, 305664, Control_c, 0, 64, 127
2, 305664, Note_on_c, 0, 54, 100
2, 305752, Note_off_c, 0, 61, 100
2, 305760, Note_off_c, 0, 57, 100
2, 305792, Note_on_c, 0, 57, 100
2, 305792, Note_on_c, 0, 61, 100
2, 305868, Note_off_c, 0, 54, 100
2, 305920, Note_on_c, 0, 54, 100
2, 306016, Note_off_c, 0, 57, 100
2, 306036, Note_off_c, 0, 61, 100
2, 306048, Note_on_c, 0, 57, 100
2, 306048, Note_on_c, 0, 61, 100
2, 306128, Note_off_c, 0, 54, 100
2, 306176, Note_on_c, 0, 54, 100
2, 306248, Note_off_c, 0, 57, 100
2, 306272, Note_off_c, 0, 61, 100
2, 306304, Note_on_c, 0, 57, 100
2, 306304, Note_on_c, 0, 61, 100
2, 306400, Note_off_c, 0, 54, 100
2, 306432, Note_on_c, 0, 54, 100
2, 306520, Note_off_c, 0, 61, 100
2, 306528, Note_off_c, 0, 57, 100
2, 306560, Note_on_c, 0, 57, 100
2, 306560, Note_on_c, 0, 61, 100
2, 306636, Note_off_c, 0, 54, 100
2, 306688, Note_on_c, 0, 54, 100
2, 306784, Note_off_c, 0, 57, 100
2, 306804, Note_off_c, 0, 61, 100
2, 306816, Note_on_c, 0, 57, 100
2, 306816, Note_on_c, 0, 61, 100
2, 306896, Note_off_c, 0, 54, 100
2, 306944, Note_on_c, 0, 54, 100
2, 307016, Note_off_c, 0, 57, 100
2, 307040, Note_off_c, 0, 61, 100
2, 307072, Note_on_c, 0, 61, 100
2, 307072, Note_on_c, 0, 57, 100
2, 307168, Note_off_c, 0, 54, 100
2, 307192, Control_c, 0, 64, 0
2, 307196, Note_off_c, 0, 61, 100
2, 307196, Note_off_c, 0, 57, 100
2, 307200, Control_c, 0, 64, 127
2, 307200, Note_on_c, 0, 54, 100
2, 307328, Note_on_c, 0, 59, 100
2, 307328, Note_on_c, 0, 62, 100
2, 307444, Note_off_c, 0, 54, 100
2, 307456, Note_on_c, 0, 54, 100
2, 307532, Note_off_c, 0, 59, 100
2, 307556, Note_off_c, 0, 62, 100
2, 307584, Note_on_c, 0, 59, 100
2, 307584, Note_on_c, 0, 62, 100
2, 307688, Note_off_c, 0, 54, 100
2, 307712, Note_on_c, 0, 54, 100
2, 307784, Note_off_c, 0, 59, 100
2, 307796, Note_off_c, 0, 62, 100
2, 307840, Note_on_c, 0, 59, 100
2, 307840, Note_on_c, 0, 62, 100
2, 307944, Note_off_c, 0, 54, 100
2, 307968, Note_on_c, 0, 54, 100
2, 308048, Note_off_c, 0, 62, 100
2, 308052, Note_off_c, 0, 59, 100
2, 308096, Note_on_c, 0, 59, 100
2, 308096, Note_on_c, 0, 62, 100
2, 308212, Note_off_c, 0, 54, 100
2, 308224, Note_on_c, 0, 54, 100
2, 308300, Note_off_c, 0, 59, 100
2, 308324, Note_off_c, 0, 62, 100
2, 308352, Note_on_c, 0, 59, 100
2, 308352, Note_on_c, 0, 62, 100
2, 308456, Note_off_c, 0, 54, 100
2, 308480, Note_on_c, 0, 54, 100
2, 308552, Note_off_c, 0, 59, 100
2, 308564, Note_off_c, 0, 62, 100
2, 308608, Note_on_c, 0, 59, 100
2, 308608, Note_on_c, 0, 62, 100
2, 308712, Note_off_c, 0, 54, 100
2, 308728, Control_c, 0, 64, 0
2, 308736, Control_c, 0, 64, 127
2, 308736, Note_on_c, 0, 54, 100
2, 308816, Note_off_c, 0, 62, 100
2, 308820, Note_off_c, 0, 59, 100
2, 308864, Note_on_c, 0, 59, 100
2, 308864, Note_on_c, 0, 62, 100
2, 308980, Note_off_c, 0, 54, 100
2, 308992, Note_on_c, 0, 54, 100
2, 309068, Note_off_c, 0, 59, 100
2, 309092, Note_off_c, 0, 62, 100
2, 309120, Note_on_c, 0, 59, 100
2, 309120, Note_on_c, 0, 62, 100
2, 309224, Note_off_c, 0, 54, 100
2, 309248, Note_on_c, 0, 54, 100
2, 309320, Note_off_c, 0, 59, 100
2, 309332, Note_off_c, 0, 62, 100
2, 309376, Note_on_c, 0, 59, 100
2, 309376, Note_on_c, 0, 62, 100
2, 309480, Note_off_c, 0, 54, 100
2, 309504, Note_on_c, 0, 54, 100
2, 309584, Note_off_c, 0, 62, 100
2, 309588, Note_off_c, 0, 59, 100
2, 309632, Note_on_c, 0, 59, 100
2, 309632, Note_on_c, 0, 62, 100
2, 309748, Note_off_c, 0, 54, 100
2, 309760, Note_on_c, 0, 54, 100
2, 309836, Note_off_c, 0, 59, 100
2, 309860, Note_off_c, 0, 62, 100
2, 309888, Note_on_c, 0, 59, 100
2, 309888, Note_on_c, 0, 62, 100
2, 309992, Note_off_c, 0, 54, 100
2, 310016, Note_on_c, 0, 54, 100
2, 310088, Note_off_c, 0, 59, 100
2, 310100, Note_off_c, 0, 62, 100
2, 310144, Note_on_c, 0, 62, 100
2, 310144, Note_on_c, 0, 59, 100
2, 310248, Note_off_c, 0, 54, 100
2, 310264, Control_c, 0, 64, 0
2, 310268, Note_off_c, 0, 62, 100
2, 310268, Note_off_c, 0, 59, 100
2, 310272, Control_c, 0, 64, 127
2, 310272, Note_on_c, 0, 55, 100
2, 310400, Note_on_c, 0, 59, 100
2, 310400, Note_on_c, 0, 62, 100
2, 310496, Note_off_c, 0, 55, 100
2, 310528, Note_on_c, 0, 55, 100
2, 310600, Note_off_c, 0, 62, 100
2, 310612, Note_off_c, 0, 59, 100
2, 310656, Note_on_c, 0, 59, 100
2, 310656, Note_on_c, 0, 62, 100
2, 310732, Note_off_c, 0, 55, 100
2, 310784, Note_on_c, 0, 55, 100
2, 310872, Note_off_c, 0, 59, 100
2, 310888, Note_off_c, 0, 62, 100
2, 310912, Note_on_c, 0, 59, 100
2, 310912, Note_on_c, 0, 62, 100
2, 311004, Note_off_c, 0, 55, 100
2, 311040, Note_on_c, 0, 55, 100
2, 311132, Note_off_c, 0, 59, 100
2, 311132, Note_off_c, 0, 62, 100
2, 311168, Note_on_c, 0, 59, 100
2, 311168, Note_on_c, 0, 62, 100
2, 311264, Note_off_c, 0, 55, 100
2, 311296, Note_on_c, 0, 55, 100
2, 311368, Note_off_c, 0, 62, 100
2, 311380, Note_off_c, 0, 59, 100
2, 311424, Note_on_c, 0, 59, 100
2, 311424, Note_on_c, 0, 62, 100
2, 311500, Note_off_c, 0, 55, 100
2, 311552, Note_on_c, 0, 55, 100
2, 311640, Note_off_c, 0, 59, 100
2, 311656, Note_off_c, 0, 62, 100
2, 311680, Note_on_c, 0, 59, 100
2, 311680, Note_on_c, 0, 62, 100
2, 311772, Note_off_c, 0, 55, 100
2, 311800, Control_c, 0, 64, 0
2, 311808, Control_c, 0, 64, 127
2, 311808, Note_on_c, 0, 55, 100
2, 311900, Note_off_c, 0, 59, 100
2, 311900, Note_off_c, 0, 62, 100
2, 311936, Note_on_c, 0, 59, 100
2, 311936, Note_on_c, 0, 62, 100
2, 312032, Note_off_c, 0, 55, 100
2, 312064, Note_on_c, 0, 55, 100
2, 312136, Note_off_c, 0, 62, 100
2, 312148, Note_off_c, 0, 59, 100
2, 312192, Note_on_c, 0, 59, 100
2, 312192, Note_on_c, 0, 62, 100
2, 312268, Note_off_c, 0, 55, 100
2, 312320, Note_on_c, 0, 55, 100
2, 312408, Note_off_c, 0, 59, 100
2, 312424, Note_off_c, 0, 62, 100
2, 312448, Note_on_c, 0, 59, 100
2, 312448, Note_on_c, 0, 62, 100
2, 312540, Note_off_c, 0, 55, 100
2, 312576, Note_on_c, 0, 55, 100
2, 312668, Note_off_c, 0, 59, 100
2, 312668, Note_off_c, 0, 62, 100
2, 312704, Note_on_c, 0, 59, 100
2, 312704, Note_on_c, 0, 62, 100
2, 312800, Note_off_c, 0, 55, 100
2, 312832, Note_on_c, 0, 55, 100
2, 312904, Note_off_c, 0, 62, 100
2, 312916, Note_off_c, 0, 59, 100
2, 312960, Note_on_c, 0, 59, 100
2, 312960, Note_on_c, 0, 62, 100
2, 313036, Note_off_c, 0, 55, 100
2, 313088, Note_on_c, 0, 55, 100
2, 313176, Note_off_c, 0, 59, 100
2, 313192, Note_off_c, 0, 62, 100
2, 313216, Note_on_c, 0, 59, 100
2, 313216, Note_on_c, 0, 62, 100
2, 313308, Note_off_c, 0, 55, 100
2, 313336, Control_c, 0, 64, 0
2, 313340, Note_off_c, 0, 59, 100
2, 313340, Note_off_c, 0, 62, 100
2, 313344, Control_c, 0, 64, 127
2, 313344, Note_on_c, 0, 55, 100
2, 313472, Note_on_c, 0, 60, 100
2, 313472, Note_on_c, 0, 64, 100
2, 313556, Note_off_c, 0, 55, 100
2, 313600, Note_on_c, 0, 55, 100
2, 313696, Note_off_c, 0, 64, 100
2, 313716, Note_off_c, 0, 60, 100
2, 313728, Note_on_c, 0, 60, 100
2, 313728, Note_on_c, 0, 64, 100
2, 313812, Note_off_c, 0, 55, 100
2, 313856, Note_on_c, 0, 55, 100
2, 313932, Note_off_c, 0, 64, 100
2, 313948, Note_off_c, 0, 60, 100
2, 313984, Note_on_c, 0, 60, 100
2, 313984, Note_on_c, 0, 64, 100
2, 314096, Note_off_c, 0, 55, 100
2, 314112, Note_on_c, 0, 55, 100
2, 314192, Note_off_c, 0, 60, 100
2, 314200, Note_off_c, 0, 64, 100
2, 314240, Note_on_c, 0, 60, 100
2, 314240, Note_on_c, 0, 64, 100
2, 314324, Note_off_c, 0, 55, 100
2, 314368, Note_on_c, 0, 55, 100
2, 314464, Note_off_c, 0, 64, 100
2, 314484, Note_off_c, 0, 60, 100
2, 314496, Note_on_c, 0, 60, 100
2, 314496, Note_on_c, 0, 64, 100
2, 314580, Note_off_c, 0, 55, 100
2, 314624, Note_on_c, 0, 55, 100
2, 314700, Note_off_c, 0, 64, 100
2, 314716, Note_off_c, 0, 60, 100
2, 314752, Note_on_c, 0, 60, 100
2, 314752, Note_on_c, 0, 64, 100
2, 314864, Note_off_c, 0, 55, 100
2, 314872, Control_c, 0, 64, 0
2, 314880, Control_c, 0, 64, 127
2, 314880, Note_on_c, 0, 55, 100
2, 314960, Note_off_c, 0, 60, 100
2, 314968, Note_off_c, 0, 64, 100
2, 315008, Note_on_c, 0, 60, 100
2, 315008, Note_on_c, 0, 64, 100
2, 315092, Note_off_c, 0, 55, 100
2, 315136, Note_on_c, 0, 55, 100
2, 315232, Note_off_c, 0, 64, 100
2, 315252, Note_off_c, 0, 60, 100
2, 315264, Note_on_c, 0, 60, 100
2, 315264, Note_on_c, 0, 64, 100
2, 315348, Note_off_c, 0, 55, 100
2, 315392, Note_on_c, 0, 55, 100
2, 315468, Note_off_c, 0, 64, 100
2, 315484, Note_off_c, 0, 60, 100
2, 315520, Note_on_c, 0, 60, 100
2, 315520, Note_on_c, 0, 64, 100
2, 315632, Note_off_c, 0, 55, 100
2, 315648, Note_on_c, 0, 55, 100
2, 315728, Note_off_c, 0, 60, 100
2, 315736, Note_off_c, 0, 64, 100
2, 315776, Note_on_c, 0, 60, 100
2, 315776, Note_on_c, 0, 64, 100
2, 315860, Note_off_c, 0, 55, 100
2, 315904, Note_on_c, 0, 55, 100
2, 316000, Note_off_c, 0, 64, 100
2, 316020, Note_off_c, 0, 60, 100
2, 316032, Note_on_c, 0, 60, 100
2, 316032, Note_on_c, 0, 64, 100
2, 316116, Note_off_c, 0, 55, 100
2, 316160, Note_on_c, 0, 55, 100
2, 316236, Note_off_c, 0, 64, 100
2, 316252, Note_off_c, 0, 60, 100
2, 316288, Note_on_c, 0, 64, 100
2, 316288, Note_on_c, 0, 60, 100
2, 316400, Note_off_c, 0, 55, 100
2, 316408, Control_c, 0, 64, 0
2, 316412, Note_off_c, 0, 64, 100
2, 316412, Note_off_c, 0, 60, 100
2, 316416, Control_c, 0, 64, 127
2, 316416, Note_on_c, 0, 57, 100
2, 316544, Note_on_c, 0, 61, 100
2, 316544, Note_on_c, 0, 64, 100
2, 316636, Note_off_c, 0, 57, 100
2, 316672, Note_on_c, 0, 57, 100
2, 316764, Note_off_c, 0, 61, 100
2, 316780, Note_off_c, 0, 64, 100
2, 316800, Note_on_c, 0, 61, 100
2, 316800, Note_on_c, 0, 64, 100
2, 316900, Note_off_c, 0, 57, 100
2, 316928, Note_on_c, 0, 57, 100
2, 317024, Note_off_c, 0, 64, 100
2, 317028, Note_off_c, 0, 61, 100
2, 317056, Note_on_c, 0, 61, 100
2, 317056, Note_on_c, 0, 64, 100
2, 317168, Note_off_c, 0, 57, 100
2, 317184, Note_on_c, 0, 57, 100
2, 317284, Note_off_c, 0, 64, 100
2, 317300, Note_off_c, 0, 61, 100
2, 317312, Note_on_c, 0, 61, 100
2, 317312, Note_on_c, 0, 64, 100
2, 317404, Note_off_c, 0, 57, 100
2, 317440, Note_on_c, 0, 57, 100
2, 317532, Note_off_c, 0, 61, 100
2, 317548, Note_off_c, 0, 64, 100
2, 317568, Note_on_c, 0, 61, 100
2, 317568, Note_on_c, 0, 64, 100
2, 317668, Note_off_c, 0, 57, 100
2, 317696, Note_on_c, 0, 57, 100
2, 317792, Note_off_c, 0, 64, 100
2, 317796, Note_off_c, 0, 61, 100
2, 317824, Note_on_c, 0, 61, 100
2, 317824, Note_on_c, 0, 64, 100
2, 317936, Note_off_c, 0, 57, 100
2, 317944, Control_c, 0, 64, 0
2, 317952, Control_c, 0, 64, 127
2, 317952, Note_on_c, 0, 57, 100
2, 318052, Note_off_c, 0, 64, 100
2, 318068, Note_off_c, 0, 61, 100
2, 318080, Note_on_c, 0, 61, 100
2, 318080, Note_on_c, 0, 64, 100
2, 318172, Note_off_c, 0, 57, 100
2, 318208, Note_on_c, 0, 57, 100
2, 318300, Note_off_c, 0, 61, 100
2, 318316, Note_off_c, 0, 64, 100
2, 318336, Note_on_c, 0, 61, 100
2, 318336, Note_on_c, 0, 64, 100
2, 318436, Note_off_c, 0, 57, 100
2, 318464, Note_on_c, 0, 57, 100
2, 318560, Note_off_c, 0, 64, 100
2, 318564, Note_off_c, 0, 61, 100
2, 318592, Note_on_c, 0, 61, 100
2, 318592, Note_on_c, 0, 64, 100
2, 318704, Note_off_c, 0, 57, 100
2, 318720, Note_on_c, 0, 57, 100
2, 318820, Note_off_c, 0, 64, 100
2, 318836, Note_off_c, 0, 61, 100
2, 318848, Note_on_c, 0, 61, 100
2, 318848, Note_on_c, 0, 64, 100
2, 318940, Note_off_c, 0, 57, 100
2, 318976, Note_on_c, 0, 57, 100
2, 319068, Note_off_c, 0, 61, 100
2, 319084, Note_off_c, 0, 64, 100
2, 319104, Note_on_c, 0, 61, 100
2, 319104, Note_on_c, 0, 64, 100
2, 319204, Note_off_c, 0, 57, 100
2, 319232, Note_on_c, 0, 57, 100
2, 319328, Note_off_c, 0, 64, 100
2, 319332, Note_off_c, 0, 61, 100
2, 319360, Note_on_c, 0, 64, 100
2, 319360, Note_on_c, 0, 61, 100
2, 319472, Note_off_c, 0, 57, 100
2, 319480, Control_c, 0, 64, 0
2, 319484, Note_off_c, 0, 64, 100
2, 319484, Note_off_c, 0, 61, 100
2, 319488, Control_c, 0, 64, 127
2, 319488, Note_on_c, 0, 57, 100
2, 319616, Note_on_c, 0, 62, 100
2, 319616, Note_on_c, 0, 65, 100
2, 319700, Note_off_c, 0, 57, 100
2, 319744, Note_on_c, 0, 57, 100
2, 319820, Note_off_c, 0, 65, 100
2, 319828, Note_off_c, 0, 62, 100
2, 319872, Note_on_c, 0, 62, 100
2, 319872, Note_on_c, 0, 65, 100
2, 319964, Note_off_c, 0, 57, 100
2, 320000, Note_on_c, 0, 57, 100
2, 320080, Note_off_c, 0, 65, 100
2, 320092, Note_off_c, 0, 62, 100
2, 320128, Note_on_c, 0, 62, 100
2, 320128, Note_on_c, 0, 65, 100
2, 320220, Note_off_c, 0, 57, 100
2, 320256, Note_on_c, 0, 57, 100
2, 320340, Note_off_c, 0, 62, 100
2, 320360, Note_off_c, 0, 65, 100
2, 320384, Note_on_c, 0, 62, 100
2, 320384, Note_on_c, 0, 65, 100
2, 320468, Note_off_c, 0, 57, 100
2, 320512, Note_on_c, 0, 57, 100
2, 320588, Note_off_c, 0, 65, 100
2, 320596, Note_off_c, 0, 62, 100
2, 320640, Note_on_c, 0, 62, 100
2, 320640, Note_on_c, 0, 65, 100
2, 320732, Note_off_c, 0, 57, 100
2, 320768, Note_on_c, 0, 57, 100
2, 320848, Note_off_c, 0, 65, 100
2, 320860, Note_off_c, 0, 62, 100
2, 320896, Note_on_c, 0, 62, 100
2, 320896, Note_on_c, 0, 65, 100
2, 320988, Note_off_c, 0, 57, 100
2, 321016, Control_c, 0, 64, 0
2, 321024, Control_c, 0, 64, 127
2, 321024, Note_on_c, 0, 57, 100
2, 321108, Note_off_c, 0, 62, 100
2, 321128, Note_off_c, 0, 65, 100
2, 321152, Note_on_c, 0, 62, 100
2, 321152, Note_on_c, 0, 65, 100
2, 321236, Note_off_c, 0, 57, 100
2, 321280, Note_on_c, 0, 57, 100
2, 321356, Note_off_c, 0, 65, 100
2, 321364, Note_off_c, 0, 62, 100
2, 321408, Note_on_c, 0, 62, 100
2, 321408, Note_on_c, 0, 65, 100
2, 321500, Note_off_c, 0, 57, 100
2, 321536, Note_on_c, 0, 57, 100
2, 321616, Note_off_c, 0, 65, 100
2, 321628, Note_off_c, 0, 62, 100
2, 321664, Note_on_c, 0, 62, 100
2, 321664, Note_on_c, 0, 65, 100
2, 321756, Note_off_c, 0, 57, 100
2, 321792, Note_on_c, 0, 57, 100
2, 321876, Note_off_c, 0, 62, 100
2, 321896, Note_off_c, 0, 65, 100
2, 321920, Note_on_c, 0, 62, 100
2, 321920, Note_on_c, 0, 65, 100
2, 322004, Note_off_c, 0, 57, 100
2, 322048, Note_on_c, 0, 57, 100
2, 322124, Note_off_c, 0, 65, 100
2, 322132, Note_off_c, 0, 62, 100
2, 322176, Note_on_c, 0, 62, 100
2, 322176, Note_on_c, 0, 65, 100
2, 322268, Note_off_c, 0, 57, 100
2, 322304, Note_on_c, 0, 57, 100
2, 322384, Note_off_c, 0, 65, 100
2, 322396, Note_off_c, 0, 62, 100
2, 322432, Note_on_c, 0, 65, 100
2, 322432, Note_on_c, 0, 62, 100
2, 322524, Note_off_c, 0, 57, 100
2, 322552, Control_c, 0, 64, 0
2, 322556, Note_off_c, 0, 65, 100
2, 322556, Note_off_c, 0, 62, 100
2, 322560, Control_c, 0, 64, 127
2, 323328, Note_on_c, 0, 80, 120
2, 323328, Note_on_c, 0, 68, 120
2, 323708, Note_off_c, 0, 80, 100
2, 323708, Note_off_c, 0, 68, 100
2, 324088, Control_c, 0, 64, 0
2, 324096, Control_c, 0, 64, 127
2, 324864, Note_on_c, 0, 86, 120
2, 324864, Note_on_c, 0, 74, 120
2, 325244, Note_off_c, 0, 86, 100
2, 325244, Note_off_c, 0, 74, 100
2, 325624, Control_c, 0, 64, 0
2, 325632, Control_c, 0, 64, 127
2, 325632, Note_on_c, 0, 85, 110
2, 325632, Note_on_c, 0, 73, 110
2, 325820, Note_off_c, 0, 85, 100
2, 325820, Note_off_c, 0, 73, 100
2, 325824, Note_on_c, 0, 69, 110
2, 326012, Note_off_c, 0, 69, 100
2, 326016, Note_on_c, 0, 68, 110
2, 326204, Note_off_c, 0, 68, 100
2, 326208, Note_on_c, 0, 69, 110
2, 326396, Note_off_c, 0, 69, 100
2, 326400, Note_on_c, 0, 68, 110
2, 326588, Note_off_c, 0, 68, 100
2, 326592, Note_on_c, 0, 69, 110
2, 326780, Note_off_c, 0, 69, 100
2, 326784, Note_on_c, 0, 68, 110
2, 326972, Note_off_c, 0, 68, 100
2, 326976, Note_on_c, 0, 69, 110
2, 327160, Control_c, 0, 64, 0
2, 327164, Note_off_c, 0, 69, 100
2, 327168, Control_c, 0, 64, 127
2, 327168, Note_on_c, 0, 68, 110
2, 327356, Note_off_c, 0, 68, 100
2, 327360, Note_on_c, 0, 69, 110
2, 327548, Note_off_c, 0, 69, 100
2, 327552, Note_on_c, 0, 76, 110
2, 327552, Note_on_c, 0, 73, 110
2, 327740, Note_off_c, 0, 76, 100
2, 327740, Note_off_c, 0, 73, 100
2, 327744, Note_on_c, 0, 69, 110
2, 327928, Control_c, 0, 64, 0
2, 327932, Note_off_c, 0, 69, 100
2, 327936, Control_c, 0, 64, 127
2, 327936, Note_on_c, 0, 77, 110
2, 327936, Note_on_c, 0, 74, 110
2, 328124, Note_off_c, 0, 77, 100
2, 328124, Note_off_c, 0, 74, 100
2, 328128, Note_on_c, 0, 69, 110
2, 328316, Note_off_c, 0, 69, 100
2, 328320, Note_on_c, 0, 74, 110
2, 328320, Note_on_c, 0, 71, 110
2, 328508, Note_off_c, 0, 74, 100
2, 328508, Note_off_c, 0, 71, 100
2, 328512, Note_on_c, 0, 69, 110
2, 328696, Control_c, 0, 64, 0
2, 328700, Note_off_c, 0, 69, 100
2, 328704, Control_c, 0, 64, 127
2, 328704, Note_on_c, 0, 76, 110
2, 328704, Note_on_c, 0, 73, 110
2, 328892, Note_off_c, 0, 76, 100
2, 328892, Note_off_c, 0, 73, 100
2, 328896, Note_on_c, 0, 69, 110
2, 329084, Note_off_c, 0, 69, 100
2, 329088, Note_on_c, 0, 76, 110
2, 329088, Note_on_c, 0, 73, 110
2, 329276, Note_off_c, 0, 76, 100
2, 329276, Note_off_c, 0, 73, 100
2, 329280, Note_on_c, 0, 69, 110
2, 329464, Control_c, 0, 64, 0
2, 329468, Note_off_c, 0, 69, 100
2, 329472, Control_c, 0, 64, 127
2, 329472, Note_on_c, 0, 77, 110
2, 329472, Note_on_c, 0, 74, 110
2, 329660, Note_off_c, 0, 77, 100
2, 329660, Note_off_c, 0, 74, 100
2, 329664, Note_on_c, 0, 69, 110
2, 329852, Note_off_c, 0, 69, 100
2, 329856, Note_on_c, 0, 74, 110
2, 329856, Note_on_c, 0, 71, 110
2, 330044, Note_off_c, 0, 74, 100
2, 330044, Note_off_c, 0, 71, 100
2, 330048, Note_on_c, 0, 69, 110
2, 330232, Control_c, 0, 64, 0
2, 330236, Note_off_c, 0, 69, 100
2, 330240, Control_c, 0, 64, 127
2, 330240, Note_on_c, 0, 76, 110
2, 330240, Note_on_c, 0, 73, 110
2, 330428, Note_off_c, 0, 76, 100
2, 330428, Note_off_c, 0, 73, 100
2, 330432, Note_on_c, 0, 69, 110
2, 330620, Note_off_c, 0, 69, 100
2, 330624, Note_on_c, 0, 76, 110
2, 330624, Note_on_c, 0, 73, 110
2, 330812, Note_off_c, 0, 76, 100
2, 330812, Note_off_c, 0, 73, 100
2, 330816, Note_on_c, 0, 69, 110
2, 331000, Control_c, 0, 64, 0
2, 331004, Note_off_c, 0, 69, 100
2, 331008, Control_c, 0, 64, 127
2, 331008, Note_on_c, 0, 77, 110
2, 331008, Note_on_c, 0, 74, 110
2, 331196, Note_off_c, 0, 77, 100
2, 331196, Note_off_c, 0, 74, 100
2, 331200, Note_on_c, 0, 69, 110
2, 331388, Note_off_c, 0, 69, 100
2, 331392, Note_on_c, 0, 74, 110
2, 331392, Note_on_c, 0, 71, 110
2, 331580, Note_off_c, 0, 74, 100
2, 331580, Note_off_c, 0, 71, 100
2, 331584, Note_on_c, 0, 69, 110
2, 331768, Control_c, 0, 64, 0
2, 331772, Note_off_c, 0, 69, 100
2, 331776, Control_c, 0, 64, 127
2, 331776, Note_on_c, 0, 73, 110
2, 331776, Note_on_c, 0, 76, 110
2, 331964, Note_off_c, 0, 73, 100
2, 331964, Note_off_c, 0, 76, 100
2, 331968, Note_on_c, 0, 69, 110
2, 332156, Note_off_c, 0, 69, 100
2, 332160, Note_on_c, 0, 68, 110
2, 332348, Note_off_c, 0, 68, 100
2, 332352, Note_on_c, 0, 69, 110
2, 332536, Control_c, 0, 64, 0
2, 332540, Note_off_c, 0, 69, 100
2, 332544, Control_c, 0, 64, 127
2, 332544, Note_on_c, 0, 68, 110
2, 332732, Note_off_c, 0, 68, 100
2, 332736, Note_on_c, 0, 69, 110
2, 332924, Note_off_c, 0, 69, 100
2, 332928, Note_on_c, 0, 68, 110
2, 333116, Note_off_c, 0, 68, 100
2, 333120, Note_on_c, 0, 69, 110
2, 333304, Control_c, 0, 64, 0
2, 333308, Note_off_c, 0, 69, 100
2, 333312, Control_c, 0, 64, 127
2, 333312, Note_on_c, 0, 68, 110
2, 333500, Note_off_c, 0, 68, 100
2, 333504, Note_on_c, 0, 69, 110
2, 333692, Note_off_c, 0, 69, 100
2, 333696, Note_on_c, 0, 64, 110
2, 333696, Note_on_c, 0, 61, 110
2, 333884, Note_off_c, 0, 64, 100
2, 333884, Note_off_c, 0, 61, 100
2, 333888, Note_on_c, 0, 69, 110
2, 334072, Control_c, 0, 64, 0
2, 334076, Note_off_c, 0, 69, 100
2, 334080, Control_c, 0, 64, 127
2, 334080, Note_on_c, 0, 65, 110
2, 334080, Note_on_c, 0, 62, 110
2, 334268, Note_off_c, 0, 65, 100
2, 334268, Note_off_c, 0, 62, 100
2, 334272, Note_on_c, 0, 69, 110
2, 334460, Note_off_c, 0, 69, 100
2, 334464, Note_on_c, 0, 62, 110
2, 334464, Note_on_c, 0, 59, 110
2, 334652, Note_off_c, 0, 62, 100
2, 334652, Note_off_c, 0, 59, 100
2, 334656, Note_on_c, 0, 69, 110
2, 334840, Control_c, 0, 64, 0
2, 334844, Note_off_c, 0, 69, 100
2, 334848, Control_c, 0, 64, 127
2, 334848, Note_on_c, 0, 64, 110
2, 334848, Note_on_c, 0, 61, 110
2, 335036, Note_off_c, 0, 64, 100
2, 335036, Note_off_c, 0, 61, 100
2, 335040, Note_on_c, 0, 69, 110
2, 335228, Note_off_c, 0, 69, 100
2, 335232, Note_on_c, 0, 64, 110
2, 335232, Note_on_c, 0, 61, 110
2, 335420, Note_off_c, 0, 64, 100
2, 335420, Note_off_c, 0, 61, 100
2, 335424, Note_on_c, 0, 69, 110
2, 335608, Control_c, 0, 64, 0
2, 335612, Note_off_c, 0, 69, 100
2, 335616, Control_c, 0, 64, 127
2, 335616, Note_on_c, 0, 65, 110
2, 335616, Note_on_c, 0, 62, 110
2, 335804, Note_off_c, 0, 65, 100
2, 335804, Note_off_c, 0, 62, 100
2, 335808, Note_on_c, 0, 69, 110
2, 335996, Note_off_c, 0, 69, 100
2, 336000, Note_on_c, 0, 62, 110
2, 336000, Note_on_c, 0, 59, 110
2, 336188, Note_off_c, 0, 62, 100
2, 336188, Note_off_c, 0, 59, 100
2, 336192, Note_on_c, 0, 69, 110
2, 336376, Control_c, 0, 64, 0
2, 336380, Note_off_c, 0, 69, 100
2, 336384, Control_c, 0, 64, 127
2, 336384, Note_on_c, 0, 64, 110
2, 336384, Note_on_c, 0, 61, 110
2, 336572, Note_off_c, 0, 64, 100
2, 336572, Note_off_c, 0, 61, 100
2, 336576, Note_on_c, 0, 69, 110
2, 336764, Note_off_c, 0, 69, 100
2, 336768, Note_on_c, 0, 64, 110
2, 336768, Note_on_c, 0, 61, 110
2, 336956, Note_off_c, 0, 64, 100
2, 336956, Note_off_c, 0, 61, 100
2, 336960, Note_on_c, 0, 69, 110
2, 337144, Control_c, 0, 64, 0
2, 337148, Note_off_c, 0, 69, 100
2, 337152, Control_c, 0, 64, 127
2, 337152, Note_on_c, 0, 65, 110
2, 337152, Note_on_c, 0, 62, 110
2, 337340, Note_off_c, 0, 65, 100
2, 337340, Note_off_c, 0, 62, 100
2, 337344, Note_on_c, 0, 69, 110
2, 337532, Note_off_c, 0, 69, 100
2, 337536, Note_on_c, 0, 62, 110
2, 337536, Note_on_c, 0, 59, 110
2, 337724, Note_off_c, 0, 62, 100
2, 337724, Note_off_c, 0, 59, 100
2, 337728, Note_on_c, 0, 69, 110
2, 337912, Control_c, 0, 64, 0
2, 337916, Note_off_c, 0, 69, 100
2, 337920, Control_c, 0, 64, 127
2, 337920, Note_on_c, 0, 61, 110
2, 337920, Note_on_c, 0, 64, 110
2, 338108, Note_off_c, 0, 61, 100
2, 338108, Note_off_c, 0, 64, 100
2, 338112, Note_on_c, 0, 57, 110
2, 338300, Note_off_c, 0, 57, 100
2, 338304, Note_on_c, 0, 56, 110
2, 338492, Note_off_c, 0, 56, 100
2, 338496, Note_on_c, 0, 57, 110
2, 338680, Control_c, 0, 64, 0
2, 338684, Note_off_c, 0, 57, 100
2, 338688, Control_c, 0, 64, 127
2, 338688, Note_on_c, 0, 56, 110
2, 338876, Note_off_c, 0, 56, 100
2, 338880, Note_on_c, 0, 57, 110
2, 339068, Note_off_c, 0, 57, 100
2, 339072, Note_on_c, 0, 56, 110
2, 339260, Note_off_c, 0, 56, 100
2, 339264, Note_on_c, 0, 57, 110
2, 339448, Control_c, 0, 64, 0
2, 339452, Note_off_c, 0, 57, 100
2, 339456, Control_c, 0, 64, 127
2, 339456, Note_on_c, 0, 56, 110
2, 339644, Note_off_c, 0, 56, 100
2, 339648, Note_on_c, 0, 57, 110
2, 339836, Note_off_c, 0, 57, 100
2, 339840, Note_on_c, 0, 64, 110
2, 339840, Note_on_c, 0, 61, 110
2, 340028, Note_off_c, 0, 64, 100
2, 340028, Note_off_c, 0, 61, 100
2, 340032, Note_on_c, 0, 57, 110
2, 340216, Control_c, 0, 64, 0
2, 340220, Note_off_c, 0, 57, 100
2, 340224, Control_c, 0, 64, 127
2, 340224, Note_on_c, 0, 65, 110
2, 340224, Note_on_c, 0, 62, 110
2, 340412, Note_off_c, 0, 65, 100
2, 340412, Note_off_c, 0, 62, 100
2, 340416, Note_on_c, 0, 57, 110
2, 340604, Note_off_c, 0, 57, 100
2, 340608, Note_on_c, 0, 62, 110
2, 340608, Note_on_c, 0, 59, 110
2, 340796, Note_off_c, 0, 62, 100
2, 340796, Note_off_c, 0, 59, 100
2, 340800, Note_on_c, 0, 57, 110
2, 340984, Control_c, 0, 64, 0
2, 340988, Note_off_c, 0, 57, 100
2, 340992, Control_c, 0, 64, 127
2, 340992, Note_on_c, 0, 64, 110
2, 340992, Note_on_c, 0, 61, 110
2, 341180, Note_off_c, 0, 64, 100
2, 341180, Note_off_c, 0, 61, 100
2, 341184, Note_on_c, 0, 57, 110
2, 341372, Note_off_c, 0, 57, 100
2, 341376, Note_on_c, 0, 64, 110
2, 341376, Note_on_c, 0, 61, 110
2, 341564, Note_off_c, 0, 64, 100
2, 341564, Note_off_c, 0, 61, 100
2, 341568, Note_on_c, 0, 57, 110
2, 341752, Control_c, 0, 64, 0
2, 341756, Note_off_c, 0, 57, 100
2, 341760, Control_c, 0, 64, 127
2, 341760, Note_on_c, 0, 65, 110
2, 341760, Note_on_c, 0, 62, 110
2, 341948, Note_off_c, 0, 65, 100
2, 341948, Note_off_c, 0, 62, 100
2, 341952, Note_on_c, 0, 57, 110
2, 342140, Note_off_c, 0, 57, 100
2, 342144, Note_on_c, 0, 62, 110
2, 342144, Note_on_c, 0, 59, 110
2, 342332, Note_off_c, 0, 62, 100
2, 342332, Note_off_c, 0, 59, 100
2, 342336, Note_on_c, 0, 57, 110
2, 342520, Control_c, 0, 64, 0
2, 342524, Note_off_c, 0, 57, 100
2, 342528, Control_c, 0, 64, 127
2, 342528, Note_on_c, 0, 64, 110
2, 342528, Note_on_c, 0, 61, 110
2, 342716, Note_off_c, 0, 64, 100
2, 342716, Note_off_c, 0, 61, 100
2, 342720, Note_on_c, 0, 57, 110
2, 342908, Note_off_c, 0, 57, 100
2, 342912, Note_on_c, 0, 64, 110
2, 342912, Note_on_c, 0, 61, 110
2, 343100, Note_off_c, 0, 64, 100
2, 343100, Note_off_c, 0, 61, 100
2, 343104, Note_on_c, 0, 57, 110
2, 343288, Control_c, 0, 64, 0
2, 343292, Note_off_c, 0, 57, 100
2, 343296, Control_c, 0, 64, 127
2, 343296, Note_on_c, 0, 65, 110
2, 343296, Note_on_c, 0, 62, 110
2, 343484, Note_off_c, 0, 65, 100
2, 343484, Note_off_c, 0, 62, 100
2, 343488, Note_on_c, 0, 57, 110
2, 343676, Note_off_c, 0, 57, 100
2, 343680, Note_on_c, 0, 62, 110
2, 343680, Note_on_c, 0, 59, 110
2, 343868, Note_off_c, 0, 62, 100
2, 343868, Note_off_c, 0, 59, 100
2, 343872, Note_on_c, 0, 57, 110
2, 344056, Control_c, 0, 64, 0
2, 344060, Note_off_c, 0, 57, 100
2, 344064, Note_on_c, 0, 64, 110
2, 344064, Note_on_c, 0, 61, 110
2, 344064, Note_on_c, 0, 57, 110
2, 345596, Note_off_c, 0, 64, 100
2, 345596, Note_off_c, 0, 61, 100
2, 345596, Note_off_c, 0, 57, 100
2, 345600, Note_on_c, 0, 62, 100
2, 345600, Note_on_c, 0, 57, 100
2, 345600, Note_on_c, 0, 53, 100
2, 347132, Note_off_c, 0, 62, 100
2, 347132, Note_off_c, 0, 57, 100
2, 347132, Note_off_c, 0, 53, 100
2, 347136, Note_on_c, 0, 61, 90
2, 347136, Note_on_c, 0, 57, 90
2, 347136, Note_on_c, 0, 52, 90
2, 348668, Note_off_c, 0, 61, 100
2, 348668, Note_off_c, 0, 57, 100
2, 348668, Note_off_c, 0, 52, 100
2, 348672, Note_on_c, 0, 58, 80
2, 348672, Note_on_c, 0, 53, 80
2, 348672, Note_on_c, 0, 50, 80
2, 350204, Note_off_c, 0, 58, 100
2, 350204, Note_off_c, 0, 53, 100
2, 350204, Note_off_c, 0, 50, 100
2, 350208, Note_on_c, 0, 48, 80
2, 350400, Note_on_c, 0, 52, 80
2, 350592, Note_on_c, 0, 57, 80
2, 350780, Note_off_c, 0, 48, 100
2, 350972, Note_off_c, 0, 52, 100
2, 353276, Note_off_c, 0, 57, 100
2, 353280, Note_on_c, 0, 58, 80
2, 354428, Note_off_c, 0, 58, 100
2, 354432, Note_on_c, 0, 57, 80
2, 354812, Note_off_c, 0, 57, 100
2, 354816, Note_on_c, 0, 55, 80
2, 355196, Note_off_c, 0, 55, 100
2, 355200, Note_on_c, 0, 53, 80
2, 355580, Note_off_c, 0, 53, 100
2, 355584, Note_on_c, 0, 51, 80
2, 355964, Note_off_c, 0, 51, 100
2, 355968, Note_on_c, 0, 50, 80
2, 356348, Note_off_c, 0, 50, 100
2, 356352, Note_on_c, 0, 49, 80
2, 356732, Note_off_c, 0, 49, 100
2, 356736, Note_on_c, 0, 55, 80
2, 357116, Note_off_c, 0, 55, 100
2, 357120, Note_on_c, 0, 58, 80
2, 357500, Note_off_c, 0, 58, 100
2, 357504, Note_on_c, 0, 57, 80
2, 357884, Note_off_c, 0, 57, 100
2, 357888, Note_on_c, 0, 55, 80
2, 358268, Note_off_c, 0, 55, 100
2, 358272, Note_on_c, 0, 53, 80
2, 358652, Note_off_c, 0, 53, 100
2, 358656, Note_on_c, 0, 51, 80
2, 359036, Note_off_c, 0, 51, 100
2, 359040, Note_on_c, 0, 50, 80
2, 359420, Note_off_c, 0, 50, 100
2, 359424, Control_c, 0, 64, 127
2, 360192, Note_on_c, 0, 61, 70
2, 360576, Note_on_c, 0, 64, 70
2, 360960, Note_on_c, 0, 69, 70
2, 361920, Note_on_c, 0, 69, 70
2, 362108, Note_off_c, 0, 61, 100
2, 362108, Note_off_c, 0, 64, 100
2, 362108, Note_off_c, 0, 69, 100
2, 362108, Note_off_c, 0, 69, 100
2, 362112, Note_on_c, 0, 69, 70
2, 362300, Note_off_c, 0, 69, 100
2, 362304, Note_on_c, 0, 70, 70
2, 362488, Control_c, 0, 64, 0
2, 362492, Note_off_c, 0, 70, 100
2, 362496, Note_on_c, 0, 69, 70
2, 362880, Note_on_c, 0, 67, 70
2, 363260, Note_off_c, 0, 69, 100
2, 363600, Note_on_c, 0, 67, 70
2, 363644, Note_off_c, 0, 67, 100
2, 363644, Note_off_c, 0, 67, 100
2, 363648, Note_on_c, 0, 76, 70
2, 363984, Note_on_c, 0, 74, 70
2, 364028, Note_off_c, 0, 76, 100
2, 364028, Note_off_c, 0, 74, 100
2, 364032, Note_on_c, 0, 74, 70
2, 364416, Note_on_c, 0, 73, 70
2, 364796, Note_off_c, 0, 74, 100
2, 365180, Note_off_c, 0, 73, 100
2, 365184, Note_on_c, 0, 76, 70
2, 365568, Note_on_c, 0, 76, 70
2, 365948, Note_off_c, 0, 76, 100
2, 366144, Note_on_c, 0, 67, 70
2, 366332, Note_off_c, 0, 76, 100
2, 366336, Note_on_c, 0, 70, 70
2, 366524, Note_off_c, 0, 67, 100
2, 366912, Note_on_c, 0, 69, 70
2, 367100, Note_off_c, 0, 70, 100
2, 367104, Note_on_c, 0, 67, 70
2, 367292, Note_off_c, 0, 69, 100
2, 367488, Note_on_c, 0, 65, 70
2, 367868, Note_off_c, 0, 67, 100
2, 367868, Note_off_c, 0, 65, 100
2, 368256, Note_on_c, 0, 69, 80
2, 368444, Note_off_c, 0, 69, 100
2, 368448, Note_on_c, 0, 67, 80
2, 368636, Note_off_c, 0, 67, 100
2, 368640, Note_on_c, 0, 67, 80
2, 368828, Note_off_c, 0, 67, 100
2, 368832, Note_on_c, 0, 65, 80
2, 369020, Note_off_c, 0, 65, 100
2, 369024, Note_on_c, 0, 65, 80
2, 369212, Note_off_c, 0, 65, 100
2, 369216, Note_on_c, 0, 64, 80
2, 369404, Note_off_c, 0, 64, 100
2, 369408, Note_on_c, 0, 64, 80
2, 369596, Note_off_c, 0, 64, 100
2, 369600, Note_on_c, 0, 62, 80
2, 369788, Note_off_c, 0, 62, 100
2, 369792, Note_on_c, 0, 69, 80
2, 369980, Note_off_c, 0, 69, 100
2, 369984, Note_on_c, 0, 67, 80
2, 370172, Note_off_c, 0, 67, 100
2, 370176, Note_on_c, 0, 67, 80
2, 370364, Note_off_c, 0, 67, 100
2, 370368, Note_on_c, 0, 65, 80
2, 370556, Note_off_c, 0, 65, 100
2, 370560, Note_on_c, 0, 65, 80
2, 370748, Note_off_c, 0, 65, 100
2, 370752, Note_on_c, 0, 64, 80
2, 370940, Note_off_c, 0, 64, 100
2, 370944, Note_on_c, 0, 64, 80
2, 371132, Note_off_c, 0, 64, 100
2, 371136, Note_on_c, 0, 62, 80
2, 371324, Note_off_c, 0, 62, 100
2, 371328, Note_on_c, 0, 74, 80
2, 371516, Note_off_c, 0, 74, 100
2, 371520, Note_on_c, 0, 72, 83
2, 371708, Note_off_c, 0, 72, 100
2, 371712, Note_on_c, 0, 72, 86
2, 371900, Note_off_c, 0, 72, 100
2, 371904, Note_on_c, 0, 70, 89
2, 372092, Note_off_c, 0, 70, 100
2, 372096, Note_on_c, 0, 70, 92
2, 372284, Note_off_c, 0, 70, 100
2, 372288, Note_on_c, 0, 69, 95
2, 372476, Note_off_c, 0, 69, 100
2, 372480, Note_on_c, 0, 69, 98
2, 372668, Note_off_c, 0, 69, 100
2, 372672, Note_on_c, 0, 67, 101
2, 372860, Note_off_c, 0, 67, 100
2, 372864, Note_on_c, 0, 67, 104
2, 373052, Note_off_c, 0, 67, 100
2, 373056, Note_on_c, 0, 68, 107
2, 373244, Note_off_c, 0, 68, 100
2, 373248, Note_on_c, 0, 68, 110
2, 373248, Note_on_c, 0, 65, 110
2, 373628, Note_off_c, 0, 68, 100
2, 373632, Note_on_c, 0, 69, 80
2, 373680, Note_on_c, 0, 68, 80
2, 373724, Note_off_c, 0, 69, 100
2, 373728, Note_on_c, 0, 66, 80
2, 373772, Note_off_c, 0, 68, 100
2, 373776, Note_on_c, 0, 68, 80
2, 373820, Note_off_c, 0, 66, 100
2, 373824, Note_on_c, 0, 71, 80
2, 373868, Note_off_c, 0, 68, 100
2, 373916, Note_off_c, 0, 71, 100
2, 373920, Note_on_c, 0, 69, 80
2, 374012, Note_off_c, 0, 65, 100
2, 374012, Note_off_c, 0, 69, 100
2, 374016, Note_on_c, 0, 69, 80
2, 374016, Note_on_c, 0, 64, 80
2, 374780, Note_off_c, 0, 69, 100
2, 374780, Note_off_c, 0, 64, 100
2, 374784, Control_c, 0, 64, 127
2, 375552, Note_on_c, 0, 64, 70
2, 375936, Note_on_c, 0, 67, 70
2, 376320, Note_on_c, 0, 72, 70
2, 377848, Control_c, 0, 64, 0
2, 377852, Note_off_c, 0, 64, 100
2, 377852, Note_off_c, 0, 67, 100
2, 377852, Note_off_c, 0, 72, 100
2, 377856, Note_on_c, 0, 73, 70
2, 378624, Note_on_c, 0, 61, 70
2, 379004, Note_off_c, 0, 73, 100
2, 379288, Note_on_c, 0, 61, 70
2, 379388, Note_off_c, 0, 61, 100
2, 379392, Note_on_c, 0, 60, 70
2, 379668, Note_off_c, 0, 61, 100
2, 379776, Note_on_c, 0, 58, 70
2, 380156, Note_off_c, 0, 60, 100
2, 380352, Note_on_c, 0, 67, 70
2, 380540, Note_off_c, 0, 58, 100
2, 380544, Note_on_c, 0, 67, 70
2, 380732, Note_off_c, 0, 67, 100
2, 380736, Note_on_c, 0, 68, 70
2, 380924, Note_off_c, 0, 67, 100
2, 380928, Note_on_c, 0, 70, 70
2, 381116, Note_off_c, 0, 68, 100
2, 381504, Note_on_c, 0, 70, 70
2, 381692, Note_off_c, 0, 70, 100
2, 381696, Note_on_c, 0, 73, 70
2, 381884, Note_off_c, 0, 70, 100
2, 382080, Note_on_c, 0, 72, 70
2, 382272, Note_on_c, 0, 67, 70
2, 382460, Note_off_c, 0, 73, 100
2, 382460, Note_off_c, 0, 72, 100
2, 382464, Note_on_c, 0, 68, 70
2, 382652, Note_off_c, 0, 67, 100
2, 383996, Note_off_c, 0, 68, 100
2, 384000, Note_on_c, 0, 68, 70
2, 384000, Note_on_c, 0, 61, 70
2, 384000, Note_on_c, 0, 56, 70
2, 384380, Note_off_c, 0, 68, 100
2, 384380, Note_off_c, 0, 61, 100
2, 384380, Note_off_c, 0, 56, 100
2, 384768, Note_on_c, 0, 68, 70
2, 384768, Note_on_c, 0, 61, 70
2, 384768, Note_on_c, 0, 56, 70
2, 385148, Note_off_c, 0, 68, 100
2, 385148, Note_off_c, 0, 61, 100
2, 385148, Note_off_c, 0, 56, 100
2, 385536, Note_on_c, 0, 68, 70
2, 385536, Note_on_c, 0, 61, 70
2, 385536, Note_on_c, 0, 56, 70
2, 385916, Note_off_c, 0, 68, 100
2, 385916, Note_off_c, 0, 61, 100
2, 385916, Note_off_c, 0, 56, 100
2, 386304, Note_on_c, 0, 68, 70
2, 386304, Note_on_c, 0, 61, 70
2, 386304, Note_on_c, 0, 56, 70
2, 386684, Note_off_c, 0, 68, 100
2, 386684, Note_off_c, 0, 61, 100
2, 386684, Note_off_c, 0, 56, 100
2, 387072, Control_c, 0, 64, 127
2, 387072, Note_on_c, 0, 69, 80
2, 387200, Note_on_c, 0, 66, 81
2, 387300, Note_off_c, 0, 69, 100
2, 387328, Note_on_c, 0, 61, 82
2, 387428, Note_off_c, 0, 66, 100
2, 387456, Note_on_c, 0, 57, 84
2, 387540, Note_off_c, 0, 61, 100
2, 387584, Note_on_c, 0, 54, 85
2, 387664, Note_off_c, 0, 57, 100
2, 387712, Note_on_c, 0, 49, 87
2, 387824, Note_off_c, 0, 54, 100
2, 387840, Note_on_c, 0, 57, 88
2, 387936, Note_off_c, 0, 49, 100
2, 387968, Note_on_c, 0, 54, 89
2, 388064, Note_off_c, 0, 57, 100
2, 388096, Note_on_c, 0, 49, 91
2, 388204, Note_off_c, 0, 54, 100
2, 388328, Note_off_c, 0, 49, 100
2, 388608, Note_on_c, 0, 69, 97
2, 388736, Note_on_c, 0, 66, 98
2, 388848, Note_off_c, 0, 69, 100
2, 388864, Note_on_c, 0, 61, 99
2, 388968, Note_off_c, 0, 66, 100
2, 388992, Note_on_c, 0, 57, 101
2, 389080, Note_off_c, 0, 61, 100
2, 389120, Note_on_c, 0, 61, 102
2, 389232, Note_off_c, 0, 57, 100
2, 389248, Note_on_c, 0, 66, 104
2, 389352, Note_off_c, 0, 61, 100
2, 389376, Note_on_c, 0, 69, 105
2, 389500, Note_off_c, 0, 66, 100
2, 389504, Note_on_c, 0, 73, 107
2, 389612, Note_off_c, 0, 69, 100
2, 389632, Note_on_c, 0, 78, 108
2, 389728, Note_off_c, 0, 73, 100
2, 389760, Note_on_c, 0, 81, 109
2, 389856, Note_on_c, 0, 78, 100
2, 389864, Note_off_c, 0, 78, 100
2, 389932, Note_off_c, 0, 81, 100
2, 389952, Note_on_c, 0, 73, 97
2, 390024, Note_off_c, 0, 78, 100
2, 390048, Note_on_c, 0, 69, 94
2, 390128, Note_off_c, 0, 73, 100
2, 390136, Control_c, 0, 64, 0
2, 390140, Note_off_c, 0, 69, 100
2, 390144, Note_on_c, 0, 69, 80
2, 390144, Note_on_c, 0, 62, 80
2, 390144, Note_on_c, 0, 57, 80
2, 390524, Note_off_c, 0, 69, 100
2, 390524, Note_off_c, 0, 62, 100
2, 390524, Note_off_c, 0, 57, 100
2, 390912, Note_on_c, 0, 69, 80
2, 390912, Note_on_c, 0, 62, 80
2, 390912, Note_on_c, 0, 57, 80
2, 391292, Note_off_c, 0, 69, 100
2, 391292, Note_off_c, 0, 62, 100
2, 391292, Note_off_c, 0, 57, 100
2, 391680, Note_on_c, 0, 69, 80
2, 391680, Note_on_c, 0, 62, 80
2, 391680, Note_on_c, 0, 57, 80
2, 392060, Note_off_c, 0, 69, 100
2, 392060, Note_off_c, 0, 62, 100
2, 392060, Note_off_c, 0, 57, 100
2, 392448, Note_on_c, 0, 69, 80
2, 392448, Note_on_c, 0, 62, 80
2, 392448, Note_on_c, 0, 57, 80
2, 392828, Note_off_c, 0, 69, 100
2, 392828, Note_off_c, 0, 62, 100
2, 392828, Note_off_c, 0, 57, 100
2, 393216, Control_c, 0, 64, 127
2, 393216, Note_on_c, 0, 70, 80
2, 393344, Note_on_c, 0, 67, 81
2, 393436, Note_off_c, 0, 70, 100
2, 393472, Note_on_c, 0, 62, 83
2, 393592, Note_off_c, 0, 67, 100
2, 393700, Note_off_c, 0, 62, 100
2, 394752, Note_on_c, 0, 70, 100
2, 394880, Note_on_c, 0, 67, 101
2, 394996, Note_off_c, 0, 70, 100
2, 395008, Note_on_c, 0, 62, 103
2, 395120, Note_off_c, 0, 67, 100
2, 395136, Note_on_c, 0, 58, 105
2, 395248, Note_off_c, 0, 62, 100
2, 395264, Note_on_c, 0, 62, 106
2, 395380, Note_off_c, 0, 58, 100
2, 395392, Note_on_c, 0, 67, 108
2, 395508, Note_off_c, 0, 62, 100
2, 395520, Note_on_c, 0, 70, 110
2, 395628, Note_off_c, 0, 67, 100
2, 395648, Note_on_c, 0, 74, 111
2, 395764, Note_off_c, 0, 70, 100
2, 395776, Note_on_c, 0, 79, 113
2, 395880, Note_off_c, 0, 74, 100
2, 395904, Note_on_c, 0, 82, 115
2, 396000, Note_on_c, 0, 79, 116
2, 396008, Note_off_c, 0, 79, 100
2, 396068, Note_off_c, 0, 82, 100
2, 396096, Note_on_c, 0, 74, 117
2, 396188, Note_off_c, 0, 79, 100
2, 396192, Note_on_c, 0, 70, 118
2, 396264, Note_off_c, 0, 74, 100
2, 396280, Control_c, 0, 64, 0
2, 396284, Note_off_c, 0, 70, 100
2, 396288, Note_on_c, 0, 76, 120
2, 396288, Note_on_c, 0, 73, 120
2, 396288, Note_on_c, 0, 70, 120
2, 396288, Note_on_c, 0, 67, 120
2, 396668, Note_off_c, 0, 76, 100
2, 396668, Note_off_c, 0, 73, 100
2, 396668, Note_off_c, 0, 70, 100
2, 396668, Note_off_c, 0, 67, 100
2, 397056, Note_on_c, 0, 76, 120
2, 397056, Note_on_c, 0, 73, 120
2, 397056, Note_on_c, 0, 70, 120
2, 397056, Note_on_c, 0, 67, 120
2, 397436, Note_off_c, 0, 76, 100
2, 397436, Note_off_c, 0, 73, 100
2, 397436, Note_off_c, 0, 70, 100
2, 397436, Note_off_c, 0, 67, 100
2, 397824, Note_on_c, 0, 76, 120
2, 397824, Note_on_c, 0, 73, 120
2, 397824, Note_on_c, 0, 70, 120
2, 397824, Note_on_c, 0, 67, 120
2, 398204, Note_off_c, 0, 76, 100
2, 398204, Note_off_c, 0, 73, 100
2, 398204, Note_off_c, 0, 70, 100
2, 398204, Note_off_c, 0, 67, 100
2, 398592, Note_on_c, 0, 76, 120
2, 398592, Note_on_c, 0, 73, 120
2, 398592, Note_on_c, 0, 70, 120
2, 398592, Note_on_c, 0, 67, 120
2, 399164, Note_off_c, 0, 76, 100
2, 399164, Note_off_c, 0, 73, 100
2, 399164, Note_off_c, 0, 70, 100
2, 399164, Note_off_c, 0, 67, 100
2, 399360, Control_c, 0, 64, 127
2, 399360, Note_on_c, 0, 77, 120
2, 399488, Note_on_c, 0, 74, 120
2, 399564, Note_off_c, 0, 77, 100
2, 399616, Note_on_c, 0, 71, 120
2, 399712, Note_off_c, 0, 74, 100
2, 399744, Note_on_c, 0, 68, 120
2, 399860, Note_off_c, 0, 71, 100
2, 399872, Note_on_c, 0, 65, 120
2, 399960, Note_off_c, 0, 68, 100
2, 400000, Note_on_c, 0, 74, 120
2, 400072, Note_off_c, 0, 65, 100
2, 400128, Note_on_c, 0, 71, 120
2, 400216, Note_off_c, 0, 74, 100
2, 400256, Note_on_c, 0, 68, 120
2, 400344, Note_off_c, 0, 71, 100
2, 400384, Note_on_c, 0, 65, 120
2, 400476, Note_off_c, 0, 68, 100
2, 400512, Note_on_c, 0, 62, 120
2, 400588, Note_off_c, 0, 65, 100
2, 400640, Note_on_c, 0, 65, 120
2, 400748, Note_off_c, 0, 62, 100
2, 400768, Note_on_c, 0, 68, 120
2, 400856, Note_off_c, 0, 65, 100
2, 400896, Note_on_c, 0, 71, 120
2, 401012, Note_off_c, 0, 68, 100
2, 401024, Note_on_c, 0, 74, 120
2, 401132, Note_off_c, 0, 71, 100
2, 401152, Note_on_c, 0, 77, 120
2, 401244, Note_off_c, 0, 74, 100
2, 401280, Note_on_c, 0, 80, 120
2, 401392, Note_off_c, 0, 77, 100
2, 401408, Note_on_c, 0, 83, 120
2, 401500, Note_off_c, 0, 80, 100
2, 401536, Note_on_c, 0, 86, 120
2, 401628, Note_off_c, 0, 83, 100
2, 401664, Note_on_c, 0, 89, 120
2, 401784, Note_off_c, 0, 86, 100
2, 402048, Note_on_c, 0, 86, 120
2, 402424, Control_c, 0, 64, 0
2, 402428, Note_off_c, 0, 89, 100
2, 402428, Note_off_c, 0, 86, 100
2, 402432, Note_on_c, 0, 85, 120
2, 402812, Note_off_c, 0, 85, 100
2, 403584, Note_on_c, 0, 88, 80
2, 403772, Note_off_c, 0, 88, 100
2, 403776, Note_on_c, 0, 85, 80
2, 403964, Note_off_c, 0, 85, 100
2, 403968, Note_on_c, 0, 81, 80
2, 404156, Note_off_c, 0, 81, 100
2, 404160, Note_on_c, 0, 82, 80
2, 404348, Note_off_c, 0, 82, 100
2, 404352, Note_on_c, 0, 82, 80
2, 404540, Note_off_c, 0, 82, 100
2, 404544, Note_on_c, 0, 79, 80
2, 404732, Note_off_c, 0, 79, 100
2, 405120, Note_on_c, 0, 88, 80
2, 405308, Note_off_c, 0, 88, 100
2, 405312, Note_on_c, 0, 85, 80
2, 405500, Note_off_c, 0, 85, 100
2, 405504, Note_on_c, 0, 81, 80
2, 405692, Note_off_c, 0, 81, 100
2, 405696, Note_on_c, 0, 82, 80
2, 405884, Note_off_c, 0, 82, 100
2, 405888, Note_on_c, 0, 82, 80
2, 406076, Note_off_c, 0, 82, 100
2, 406080, Note_on_c, 0, 79, 80
2, 406268, Note_off_c, 0, 79, 100
2, 406656, Note_on_c, 0, 88, 80
2, 406844, Note_off_c, 0, 88, 100
2, 406848, Note_on_c, 0, 85, 80
2, 407036, Note_off_c, 0, 85, 100
2, 407040, Note_on_c, 0, 81, 80
2, 407228, Note_off_c, 0, 81, 100
2, 407232, Note_on_c, 0, 82, 80
2, 407420, Note_off_c, 0, 82, 100
2, 407424, Note_on_c, 0, 82, 80
2, 407612, Note_off_c, 0, 82, 100
2, 407616, Note_on_c, 0, 79, 80
2, 407804, Note_off_c, 0, 79, 100
2, 407808, Note_on_c, 0, 79, 80
2, 407996, Note_off_c, 0, 79, 100
2, 408000, Note_on_c, 0, 77, 80
2, 408188, Note_off_c, 0, 77, 100
2, 408192, Note_on_c, 0, 77, 80
2, 408380, Note_off_c, 0, 77, 100
2, 408384, Note_on_c, 0, 76, 80
2, 408572, Note_off_c, 0, 76, 100
2, 408576, Note_on_c, 0, 76, 80
2, 408764, Note_off_c, 0, 76, 100
2, 408768, Note_on_c, 0, 77, 80
2, 408956, Note_off_c, 0, 77, 100
2, 408960, Note_on_c, 0, 74, 80
2, 409340, Note_off_c, 0, 74, 100
2, 409728, Note_on_c, 0, 89, 80
2, 409916, Note_off_c, 0, 89, 100
2, 409920, Note_on_c, 0, 86, 80
2, 410108, Note_off_c, 0, 86, 100
2, 410112, Note_on_c, 0, 80, 80
2, 410300, Note_off_c, 0, 80, 100
2, 410304, Note_on_c, 0, 81, 80
2, 410492, Note_off_c, 0, 81, 100
2, 410496, Note_on_c, 0, 81, 80
2, 410684, Note_off_c, 0, 81, 100
2, 410688, Note_on_c, 0, 77, 80
2, 410876, Note_off_c, 0, 77, 100
2, 411264, Note_on_c, 0, 89, 80
2, 411452, Note_off_c, 0, 89, 100
2, 411456, Note_on_c, 0, 86, 80
2, 411644, Note_off_c, 0, 86, 100
2, 411648, Note_on_c, 0, 80, 80
2, 411836, Note_off_c, 0, 80, 100
2, 411840, Note_on_c, 0, 81, 80
2, 412028, Note_off_c, 0, 81, 100
2, 412032, Note_on_c, 0, 81, 80
2, 412220, Note_off_c, 0, 81, 100
2, 412224, Note_on_c, 0, 77, 80
2, 412412, Note_off_c, 0, 77, 100
2, 412800, Note_on_c, 0, 89, 80
2, 412988, Note_off_c, 0, 89, 100
2, 412992, Note_on_c, 0, 86, 80
2, 413180, Note_off_c, 0, 86, 100
2, 413184, Note_on_c, 0, 80, 80
2, 413372, Note_off_c, 0, 80, 100
2, 413376, Note_on_c, 0, 81, 80
2, 413564, Note_off_c, 0, 81, 100
2, 413568, Note_on_c, 0, 81, 80
2, 413756, Note_off_c, 0, 81, 100
2, 413760, Note_on_c, 0, 77, 80
2, 413948, Note_off_c, 0, 77, 100
2, 413952, Note_on_c, 0, 77, 80
2, 414140, Note_off_c, 0, 77, 100
2, 414144, Note_on_c, 0, 76, 80
2, 414332, Note_off_c, 0, 76, 100
2, 414336, Note_on_c, 0, 76, 80
2, 414524, Note_off_c, 0, 76, 100
2, 414528, Note_on_c, 0, 74, 80
2, 414716, Note_off_c, 0, 74, 100
2, 414720, Note_on_c, 0, 74, 80
2, 414908, Note_off_c, 0, 74, 100
2, 414912, Note_on_c, 0, 73, 80
2, 415100, Note_off_c, 0, 73, 100
2, 415104, Note_on_c, 0, 76, 80
2, 415484, Note_off_c, 0, 76, 100
2, 415872, Note_on_c, 0, 82, 80
2, 416060, Note_off_c, 0, 82, 100
2, 416064, Note_on_c, 0, 79, 81
2, 416252, Note_off_c, 0, 79, 100
2, 416256, Note_on_c, 0, 75, 83
2, 416444, Note_off_c, 0, 75, 100
2, 416448, Note_on_c, 0, 76, 85
2, 416636, Note_off_c, 0, 76, 100
2, 416640, Note_on_c, 0, 73, 87
2, 417020, Note_off_c, 0, 73, 100
2, 417408, Note_on_c, 0, 82, 94
2, 417596, Note_off_c, 0, 82, 100
2, 417600, Note_on_c, 0, 79, 95
2, 417788, Note_off_c, 0, 79, 100
2, 417792, Note_on_c, 0, 75, 97
2, 417980, Note_off_c, 0, 75, 100
2, 417984, Note_on_c, 0, 76, 99
2, 418172, Note_off_c, 0, 76, 100
2, 418176, Note_on_c, 0, 73, 101
2, 418556, Note_off_c, 0, 73, 100
2, 418944, Note_on_c, 0, 82, 108
2, 419132, Note_off_c, 0, 82, 100
2, 419136, Note_on_c, 0, 79, 109
2, 419324, Note_off_c, 0, 79, 100
2, 419328, Note_on_c, 0, 76, 110
2, 419516, Note_off_c, 0, 76, 100
2, 419520, Note_on_c, 0, 79, 110
2, 419708, Note_off_c, 0, 79, 100
2, 419712, Note_on_c, 0, 73, 110
2, 419900, Note_off_c, 0, 73, 100
2, 419904, Note_on_c, 0, 76, 110
2, 420092, Note_off_c, 0, 76, 100
2, 420096, Note_on_c, 0, 70, 110
2, 420284, Note_off_c, 0, 70, 100
2, 420288, Note_on_c, 0, 73, 110
2, 420476, Note_off_c, 0, 73, 100
2, 420480, Note_on_c, 0, 67, 110
2, 420668, Note_off_c, 0, 67, 100
2, 420672, Note_on_c, 0, 70, 110
2, 420860, Note_off_c, 0, 70, 100
2, 420864, Note_on_c, 0, 64, 110
2, 421052, Note_off_c, 0, 64, 100
2, 421056, Note_on_c, 0, 67, 110
2, 421244, Note_off_c, 0, 67, 100
2, 421248, Note_on_c, 0, 61, 110
2, 421436, Note_off_c, 0, 61, 100
2, 421440, Note_on_c, 0, 64, 110
2, 421628, Note_off_c, 0, 64, 100
2, 421632, Note_on_c, 0, 58, 110
2, 421820, Note_off_c, 0, 58, 100
2, 421824, Note_on_c, 0, 61, 110
2, 422012, Note_off_c, 0, 61, 100
2, 422016, Note_on_c, 0, 55, 110
2, 422204, Note_off_c, 0, 55, 100
2, 422208, Note_on_c, 0, 58, 110
2, 422396, Note_off_c, 0, 58, 100
2, 422400, Note_on_c, 0, 52, 110
2, 422588, Note_off_c, 0, 52, 100
2, 422592, Note_on_c, 0, 55, 110
2, 422780, Note_off_c, 0, 55, 100
2, 422784, Note_on_c, 0, 49, 110
2, 422972, Note_off_c, 0, 49, 100
2, 422976, Note_on_c, 0, 52, 110
2, 423164, Note_off_c, 0, 52, 100
2, 423168, Note_on_c, 0, 43, 110
2, 423356, Note_off_c, 0, 43, 100
2, 423360, Note_on_c, 0, 52, 110
2, 423548, Note_off_c, 0, 52, 100
2, 423552, Note_on_c, 0, 49, 110
2, 423740, Note_off_c, 0, 49, 100
2, 423744, Note_on_c, 0, 43, 110
2, 423932, Note_off_c, 0, 43, 100
2, 423936, Note_on_c, 0, 41, 110
2, 424316, Note_off_c, 0, 41, 100
2, 424320, Note_on_c, 0, 62, 110
2, 424320, Note_on_c, 0, 57, 110
2, 424320, Note_on_c, 0, 53, 110
2, 424700, Note_off_c, 0, 62, 100
2, 424700, Note_off_c, 0, 57, 100
2, 424700, Note_off_c, 0, 53, 100
2, 424704, Note_on_c, 0, 63, 110
2, 424704, Note_on_c, 0, 58, 110
2, 424704, Note_on_c, 0, 55, 110
2, 426236, Note_off_c, 0, 63, 100
2, 426240, Note_on_c, 0, 62, 110
2, 426620, Note_off_c, 0, 62, 100
2, 426624, Note_on_c, 0, 61, 110
2, 427004, Note_off_c, 0, 55, 100
2, 427004, Note_off_c, 0, 58, 100
2, 427004, Note_off_c, 0, 61, 100
2, 427008, Note_on_c, 0, 62, 110
2, 427008, Note_on_c, 0, 57, 110
2, 427008, Note_on_c, 0, 53, 110
2, 427388, Note_off_c, 0, 62, 100
2, 427388, Note_off_c, 0, 57, 100
2, 427388, Note_off_c, 0, 53, 100
2, 427392, Note_on_c, 0, 74, 110
2, 427392, Note_on_c, 0, 69, 110
2, 427392, Note_on_c, 0, 65, 110
2, 427772, Note_off_c, 0, 74, 100
2, 427772, Note_off_c, 0, 69, 100
2, 427772, Note_off_c, 0, 65, 100
2, 427776, Note_on_c, 0, 75, 110
2, 427776, Note_on_c, 0, 70, 110
2, 427776, Note_on_c, 0, 67, 110
2, 429308, Note_off_c, 0, 75, 100
2, 429312, Note_on_c, 0, 74, 110
2, 429692, Note_off_c, 0, 74, 100
2, 429696, Note_on_c, 0, 73, 110
2, 430076, Note_off_c, 0, 67, 100
2, 430076, Note_off_c, 0, 70, 100
2, 430076, Note_off_c, 0, 73, 100
2, 430080, Note_on_c, 0, 74, 110
2, 430080, Note_on_c, 0, 69, 110
2, 430080, Note_on_c, 0, 65, 110
2, 430460, Note_off_c, 0, 74, 100
2, 430460, Note_off_c, 0, 69, 100
2, 430460, Note_off_c, 0, 65, 100
2, 430464, Note_on_c, 0, 86, 110
2, 430464, Note_on_c, 0, 74, 110
2, 430844, Note_off_c, 0, 86, 100
2, 430844, Note_off_c, 0, 74, 100
2, 430848, Note_on_c, 0, 75, 110
2, 430848, Note_on_c, 0, 86, 110
2, 431996, Note_off_c, 0, 75, 100
2, 431996, Note_off_c, 0, 86, 100
2, 432000, Note_on_c, 0, 76, 110
2, 432000, Note_on_c, 0, 86, 110
2, 432380, Note_off_c, 0, 76, 100
2, 432380, Note_off_c, 0, 86, 100
2, 432384, Note_on_c, 0, 77, 110
2, 432384, Note_on_c, 0, 86, 110
2, 433532, Note_off_c, 0, 77, 100
2, 433532, Note_off_c, 0, 86, 100
2, 433536, Note_on_c, 0, 78, 110
2, 433536, Note_on_c, 0, 86, 110
2, 433916, Note_off_c, 0, 78, 100
2, 433920, Note_on_c, 0, 79, 110
2, 434300, Note_off_c, 0, 86, 100
2, 434300, Note_off_c, 0, 79, 100
2, 434304, Note_on_c, 0, 81, 110
2, 434304, Note_on_c, 0, 86, 110
2, 434684, Note_off_c, 0, 81, 100
2, 434688, Note_on_c, 0, 82, 110
2, 435068, Note_off_c, 0, 86, 100
2, 435068, Note_off_c, 0, 82, 100
2, 435072, Note_on_c, 0, 82, 96
2, 435072, Note_on_c, 0, 70, 96
2, 435836, Note_off_c, 0, 82, 100
2, 435836, Note_off_c, 0, 70, 100
2, 435840, Note_on_c, 0, 81, 80
2, 435840, Note_on_c, 0, 69, 80
2, 436220, Note_off_c, 0, 81, 100
2, 436220, Note_off_c, 0, 69, 100
2, 436224, Note_on_c, 0, 74, 110
2, 436604, Note_off_c, 0, 74, 100
2, 437376, Note_on_c, 0, 57, 110
2, 437376, Note_on_c, 0, 54, 110
2, 437756, Note_off_c, 0, 57, 100
2, 437756, Note_off_c, 0, 54, 100
2, 437760, Note_on_c, 0, 58, 110
2, 437760, Note_on_c, 0, 55, 110
2, 438140, Note_off_c, 0, 58, 100
2, 438140, Note_off_c, 0, 55, 100
2, 438144, Note_on_c, 0, 67, 110
2, 438144, Note_on_c, 0, 58, 110
2, 438908, Note_off_c, 0, 67, 100
2, 438908, Note_off_c, 0, 58, 100
2, 438912, Note_on_c, 0, 67, 110
2, 438912, Note_on_c, 0, 58, 110
2, 439292, Note_off_c, 0, 67, 100
2, 439292, Note_off_c, 0, 58, 100
2, 439296, Note_on_c, 0, 66, 110
2, 439296, Note_on_c, 0, 57, 110
2, 439676, Note_off_c, 0, 66, 100
2, 439676, Note_off_c, 0, 57, 100
2, 440448, Note_on_c, 0, 57, 110
2, 440448, Note_on_c, 0, 54, 110
2, 440828, Note_off_c, 0, 57, 100
2, 440828, Note_off_c, 0, 54, 100
2, 440832, Note_on_c, 0, 58, 110
2, 440832, Note_on_c, 0, 55, 110
2, 441212, Note_off_c, 0, 58, 100
2, 441212, Note_off_c, 0, 55, 100
2, 441216, Note_on_c, 0, 70, 110
2, 441216, Note_on_c, 0, 67, 110
2, 441980, Note_off_c, 0, 70, 100
2, 441980, Note_off_c, 0, 67, 100
2, 441984, Note_on_c, 0, 70, 110
2, 441984, Note_on_c, 0, 67, 110
2, 442364, Note_off_c, 0, 70, 100
2, 442364, Note_off_c, 0, 67, 100
2, 442368, Note_on_c, 0, 69, 110
2, 442368, Note_on_c, 0, 66, 110
2, 442748, Note_off_c, 0, 69, 100
2, 442748, Note_off_c, 0, 66, 100
2, 443520, Note_on_c, 0, 57, 110
2, 443520, Note_on_c, 0, 54, 110
2, 443900, Note_off_c, 0, 57, 100
2, 443900, Note_off_c, 0, 54, 100
2, 443904, Note_on_c, 0, 58, 110
2, 443904, Note_on_c, 0, 55, 110
2, 444284, Note_off_c, 0, 58, 100
2, 444284, Note_off_c, 0, 55, 100
2, 444288, Note_on_c, 0, 70, 110
2, 444288, Note_on_c, 0, 67, 110
2, 445052, Note_off_c, 0, 70, 100
2, 445052, Note_off_c, 0, 67, 100
2, 445056, Note_on_c, 0, 82, 110
2, 445056, Note_on_c, 0, 79, 110
2, 445820, Note_off_c, 0, 79, 100
2, 445820, Note_off_c, 0, 82, 100
2, 446592, Note_on_c, 0, 70, 80
2, 446592, Note_on_c, 0, 67, 80
2, 446972, Note_off_c, 0, 70, 100
2, 446972, Note_off_c, 0, 67, 100
2, 446976, Note_on_c, 0, 69, 80
2, 446976, Note_on_c, 0, 65, 80
2, 447356, Note_off_c, 0, 69, 100
2, 447356, Note_off_c, 0, 65, 100
2, 448128, Note_on_c, 0, 81, 80
2, 448128, Note_on_c, 0, 77, 80
2, 448508, Note_off_c, 0, 81, 100
2, 448508, Note_off_c, 0, 77, 100
2, 448512, Note_on_c, 0, 79, 80
2, 448512, Note_on_c, 0, 76, 80
2, 448892, Note_off_c, 0, 79, 100
2, 448892, Note_off_c, 0, 76, 100
2, 449664, Note_on_c, 0, 67, 80
2, 449664, Note_on_c, 0, 64, 80
2, 450044, Note_off_c, 0, 67, 100
2, 450044, Note_off_c, 0, 64, 100
2, 450048, Note_on_c, 0, 65, 80
2, 450048, Note_on_c, 0, 62, 80
2, 450428, Note_off_c, 0, 65, 100
2, 450428, Note_off_c, 0, 62, 100
2, 451200, Note_on_c, 0, 77, 80
2, 451200, Note_on_c, 0, 74, 80
2, 451580, Note_off_c, 0, 77, 100
2, 451584, Note_on_c, 0, 76, 88
2, 451964, Note_off_c, 0, 74, 100
2, 451964, Note_off_c, 0, 76, 100
2, 452736, Note_on_c, 0, 76, 120
2, 452736, Note_on_c, 0, 86, 120
2, 453116, Note_off_c, 0, 86, 100
2, 453120, Note_on_c, 0, 85, 120
2, 453500, Note_off_c, 0, 76, 100
2, 453500, Note_off_c, 0, 85, 100
2, 454272, Note_on_c, 0, 73, 93
2, 454272, Note_on_c, 0, 64, 93
2, 454652, Note_off_c, 0, 73, 100
2, 454652, Note_off_c, 0, 64, 100
2, 454656, Note_on_c, 0, 74, 80
2, 454844, Note_off_c, 0, 74, 100
2, 454848, Note_on_c, 0, 69, 80
2, 455036, Note_off_c, 0, 69, 100
2, 455040, Note_on_c, 0, 65, 80
2, 455228, Note_off_c, 0, 65, 100
2, 455232, Note_on_c, 0, 77, 80
2, 455420, Note_off_c, 0, 77, 100
2, 455424, Note_on_c, 0, 76, 80
2, 455612, Note_off_c, 0, 76, 100
2, 455616, Note_on_c, 0, 73, 80
2, 455804, Note_off_c, 0, 73, 100
2, 455808, Note_on_c, 0, 69, 80
2, 455996, Note_off_c, 0, 69, 100
2, 456000, Note_on_c, 0, 79, 80
2, 456188, Note_off_c, 0, 79, 100
2, 456192, Note_on_c, 0, 77, 80
2, 456380, Note_off_c, 0, 77, 100
2, 456384, Note_on_c, 0, 74, 80
2, 456572, Note_off_c, 0, 74, 100
2, 456576, Note_on_c, 0, 69, 80
2, 456764, Note_off_c, 0, 69, 100
2, 456768, Note_on_c, 0, 81, 80
2, 456956, Note_off_c, 0, 81, 100
2, 456960, Note_on_c, 0, 80, 80
2, 457148, Note_off_c, 0, 80, 100
2, 457152, Note_on_c, 0, 81, 80
2, 457340, Note_off_c, 0, 81, 100
2, 457344, Note_on_c, 0, 80, 80
2, 457532, Note_off_c, 0, 80, 100
2, 457536, Note_on_c, 0, 81, 80
2, 457724, Note_off_c, 0, 81, 100
2, 457728, Note_on_c, 0, 81, 80
2, 457728, Note_on_c, 0, 77, 80
2, 457728, Note_on_c, 0, 69, 80
2, 458492, Note_off_c, 0, 81, 100
2, 458492, Note_off_c, 0, 77, 100
2, 458492, Note_off_c, 0, 69, 100
2, 458496, Note_on_c, 0, 79, 80
2, 458496, Note_on_c, 0, 76, 80
2, 458496, Note_on_c, 0, 67, 80
2, 459260, Note_off_c, 0, 79, 100
2, 459260, Note_off_c, 0, 76, 100
2, 459260, Note_off_c, 0, 67, 100
2, 459264, Note_on_c, 0, 77, 80
2, 459264, Note_on_c, 0, 74, 80
2, 459264, Note_on_c, 0, 65, 80
2, 460028, Note_off_c, 0, 77, 100
2, 460028, Note_off_c, 0, 74, 100
2, 460028, Note_off_c, 0, 65, 100
2, 460032, Note_on_c, 0, 76, 80
2, 460032, Note_on_c, 0, 73, 80
2, 460032, Note_on_c, 0, 64, 80
2, 460796, Note_off_c, 0, 76, 100
2, 460796, Note_off_c, 0, 73, 100
2, 460796, Note_off_c, 0, 64, 100
2, 460800, Note_on_c, 0, 74, 80
2, 460988, Note_off_c, 0, 74, 100
2, 460992, Note_on_c, 0, 69, 80
2, 461180, Note_off_c, 0, 69, 100
2, 461184, Note_on_c, 0, 65, 80
2, 461372, Note_off_c, 0, 65, 100
2, 461376, Note_on_c, 0, 77, 80
2, 461564, Note_off_c, 0, 77, 100
2, 461568, Note_on_c, 0, 76, 80
2, 461756, Note_off_c, 0, 76, 100
2, 461760, Note_on_c, 0, 73, 80
2, 461948, Note_off_c, 0, 73, 100
2, 461952, Note_on_c, 0, 69, 80
2, 462140, Note_off_c, 0, 69, 100
2, 462144, Note_on_c, 0, 79, 80
2, 462332, Note_off_c, 0, 79, 100
2, 462336, Note_on_c, 0, 77, 80
2, 462524, Note_off_c, 0, 77, 100
2, 462528, Note_on_c, 0, 74, 80
2, 462716, Note_off_c, 0, 74, 100
2, 462720, Note_on_c, 0, 69, 80
2, 462908, Note_off_c, 0, 69, 100
2, 462912, Note_on_c, 0, 81, 80
2, 463100, Note_off_c, 0, 81, 100
2, 463104, Note_on_c, 0, 80, 80
2, 463292, Note_off_c, 0, 80, 100
2, 463296, Note_on_c, 0, 81, 80
2, 463484, Note_off_c, 0, 81, 100
2, 463488, Note_on_c, 0, 80, 80
2, 463676, Note_off_c, 0, 80, 100
2, 463680, Note_on_c, 0, 81, 80
2, 463868, Note_off_c, 0, 81, 100
2, 463872, Note_on_c, 0, 69, 80
2, 464256, Note_on_c, 0, 81, 80
2, 464256, Note_on_c, 0, 77, 80
2, 465020, Note_off_c, 0, 69, 100
2, 465020, Note_off_c, 0, 81, 100
2, 465020, Note_off_c, 0, 77, 100
2, 465024, Note_on_c, 0, 79, 80
2, 465024, Note_on_c, 0, 76, 80
2, 465024, Note_on_c, 0, 67, 80
2, 465788, Note_off_c, 0, 67, 100
2, 465788, Note_off_c, 0, 76, 100
2, 465788, Note_off_c, 0, 79, 100
2, 465792, Note_on_c, 0, 77, 80
2, 465792, Note_on_c, 0, 74, 80
2, 465792, Note_on_c, 0, 65, 80
2, 466556, Note_off_c, 0, 77, 100
2, 466556, Note_off_c, 0, 74, 100
2, 466556, Note_off_c, 0, 65, 100
2, 466560, Note_on_c, 0, 76, 80
2, 466560, Note_on_c, 0, 73, 80
2, 466560, Note_on_c, 0, 64, 80
2, 466940, Note_off_c, 0, 76, 100
2, 466940, Note_off_c, 0, 73, 100
2, 466940, Note_off_c, 0, 64, 100
2, 466944, Note_on_c, 0, 74, 80
2, 467132, Note_off_c, 0, 74, 100
2, 467136, Note_on_c, 0, 69, 80
2, 467324, Note_off_c, 0, 69, 100
2, 467328, Note_on_c, 0, 65, 80
2, 467516, Note_off_c, 0, 65, 100
2, 467520, Note_on_c, 0, 77, 80
2, 467708, Note_off_c, 0, 77, 100
2, 467712, Note_on_c, 0, 76, 80
2, 467900, Note_off_c, 0, 76, 100
2, 467904, Note_on_c, 0, 73, 80
2, 468092, Note_off_c, 0, 73, 100
2, 468096, Note_on_c, 0, 69, 80
2, 468284, Note_off_c, 0, 69, 100
2, 468288, Note_on_c, 0, 79, 80
2, 468476, Note_off_c, 0, 79, 100
2, 468480, Note_on_c, 0, 77, 80
2, 468668, Note_off_c, 0, 77, 100
2, 468672, Note_on_c, 0, 74, 80
2, 468860, Note_off_c, 0, 74, 100
2, 468864, Note_on_c, 0, 69, 80
2, 469052, Note_off_c, 0, 69, 100
2, 469056, Note_on_c, 0, 81, 80
2, 469244, Note_off_c, 0, 81, 100
2, 469248, Note_on_c, 0, 80, 80
2, 469436, Note_off_c, 0, 80, 100
2, 469440, Note_on_c, 0, 81, 80
2, 469628, Note_off_c, 0, 81, 100
2, 469632, Note_on_c, 0, 80, 80
2, 469820, Note_off_c, 0, 80, 100
2, 469824, Note_on_c, 0, 81, 80
2, 470012, Note_off_c, 0, 81, 100
2, 470016, Note_on_c, 0, 77, 80
2, 470204, Note_off_c, 0, 77, 100
2, 470208, Note_on_c, 0, 74, 80
2, 470396, Note_off_c, 0, 74, 100
2, 470400, Note_on_c, 0, 69, 80
2, 470588, Note_off_c, 0, 69, 100
2, 470592, Note_on_c, 0, 81, 80
2, 470780, Note_off_c, 0, 81, 100
2, 470784, Note_on_c, 0, 80, 80
2, 470972, Note_off_c, 0, 80, 100
2, 470976, Note_on_c, 0, 81, 80
2, 471164, Note_off_c, 0, 81, 100
2, 471168, Note_on_c, 0, 80, 80
2, 471356, Note_off_c, 0, 80, 100
2, 471360, Note_on_c, 0, 81, 80
2, 471548, Note_off_c, 0, 81, 100
2, 471552, Note_on_c, 0, 77, 80
2, 471740, Note_off_c, 0, 77, 100
2, 471744, Note_on_c, 0, 74, 80
2, 471932, Note_off_c, 0, 74, 100
2, 471936, Note_on_c, 0, 69, 80
2, 472124, Note_off_c, 0, 69, 100
2, 472128, Note_on_c, 0, 81, 80
2, 472316, Note_off_c, 0, 81, 100
2, 472320, Note_on_c, 0, 80, 80
2, 472508, Note_off_c, 0, 80, 100
2, 472512, Note_on_c, 0, 81, 80
2, 472700, Note_off_c, 0, 81, 100
2, 472704, Note_on_c, 0, 80, 80
2, 472892, Note_off_c, 0, 80, 100
2, 472896, Note_on_c, 0, 81, 80
2, 473084, Note_off_c, 0, 81, 100
2, 473088, Note_on_c, 0, 74, 80
2, 473468, Note_off_c, 0, 74, 100
2, 473856, Note_on_c, 0, 62, 80
2, 474620, Note_off_c, 0, 62, 100
2, 474624, Note_on_c, 0, 62, 94
2, 475388, Note_off_c, 0, 62, 100
2, 475392, Note_on_c, 0, 62, 109
2, 476156, Note_off_c, 0, 62, 100
2, 476160, Control_c, 0, 64, 127
2, 476160, Note_on_c, 0, 62, 70
2, 476160, Note_on_c, 0, 57, 70
2, 476160, Note_on_c, 0, 53, 70
2, 485368, Control_c, 0, 64, 0
2, 486908, Note_off_c, 0, 53, 100
2, 486908, Note_off_c, 0, 57, 100
2, 486908, Note_off_c, 0, 62, 100
2, 486912, Note_on_c, 0, 77, 70
2, 486912, Note_on_c, 0, 74, 70
2, 486912, Note_on_c, 0, 69, 70
2, 486912, Note_on_c, 0, 65, 70
2, 488444, Note_off_c, 0, 77, 100
2, 488444, Note_off_c, 0, 74, 100
2, 488444, Note_off_c, 0, 69, 100
2, 488444, Note_off_c, 0, 65, 100
2, 488448, Note_on_c, 0, 74, 70
2, 488448, Note_on_c, 0, 69, 70
2, 488448, Note_on_c, 0, 65, 70
2, 488448, Note_on_c, 0, 62, 70
2, 491516, Note_off_c, 0, 62, 100
2, 491516, Note_off_c, 0, 65, 100
2, 491516, Note_off_c, 0, 69, 100
2, 491516, Note_off_c, 0, 74, 100
2, 492288, Control_c, 0, 7, 0
2, 493056, Note_on_c, 0, 62, 1
2, 493436, Note_off_c, 0, 62, 100
2, 493436, End_track
3, 0, Start_track
3, 0, Title_t, "Left"
3, 0, Control_c, 1, 0, 0
3, 0, Program_c, 1, 0
3, 0, Control_c, 1, 7, 100
3, 0, Control_c, 1, 10, 55
3, 0, Control_c, 1, 91, 127
3, 0, Key_signature, -1, "minor"
3, 0, Control_c, 1, 64, 127
3, 0, Note_on_c, 1, 37, 70
3, 24, Note_on_c, 1, 40, 70
3, 48, Note_on_c, 1, 45, 70
3, 72, Note_on_c, 1, 49, 70
3, 96, Note_on_c, 1, 52, 70
3, 120, Note_on_c, 1, 57, 70
3, 764, Note_off_c, 1, 49, 100
3, 764, Note_off_c, 1, 52, 100
3, 764, Note_off_c, 1, 57, 100
3, 2680, Control_c, 1, 64, 0
3, 2684, Note_off_c, 1, 37, 100
3, 2684, Note_off_c, 1, 40, 100
3, 2684, Note_off_c, 1, 45, 100
3, 2688, Note_on_c, 1, 57, 80
3, 2688, Note_on_c, 1, 49, 80
3, 3068, Note_off_c, 1, 57, 100
3, 3068, Note_off_c, 1, 49, 100
3, 3072, Note_on_c, 1, 57, 80
3, 3072, Note_on_c, 1, 50, 80
3, 3452, Note_off_c, 1, 57, 100
3, 3452, Note_off_c, 1, 50, 100
3, 3456, Note_on_c, 1, 57, 80
3, 3456, Note_on_c, 1, 52, 80
3, 3836, Note_off_c, 1, 57, 100
3, 3836, Note_off_c, 1, 52, 100
3, 3840, Note_on_c, 1, 57, 80
3, 3840, Note_on_c, 1, 53, 80
3, 4220, Note_off_c, 1, 57, 100
3, 4220, Note_off_c, 1, 53, 100
3, 4224, Note_on_c, 1, 57, 80
3, 4224, Note_on_c, 1, 49, 80
3, 4604, Note_off_c, 1, 57, 100
3, 4604, Note_off_c, 1, 49, 100
3, 4608, Note_on_c, 1, 57, 80
3, 4608, Note_on_c, 1, 50, 80
3, 4988, Note_off_c, 1, 57, 100
3, 4988, Note_off_c, 1, 50, 100
3, 4992, Note_on_c, 1, 57, 80
3, 4992, Note_on_c, 1, 52, 80
3, 5372, Note_off_c, 1, 57, 100
3, 5372, Note_off_c, 1, 52, 100
3, 5376, Note_on_c, 1, 57, 80
3, 5376, Note_on_c, 1, 53, 80
3, 5756, Note_off_c, 1, 57, 100
3, 5756, Note_off_c, 1, 53, 100
3, 5760, Note_on_c, 1, 62, 80
3, 5760, Note_on_c, 1, 54, 80
3, 6140, Note_off_c, 1, 62, 100
3, 6140, Note_off_c, 1, 54, 100
3, 6144, Note_on_c, 1, 62, 86
3, 6144, Note_on_c, 1, 55, 86
3, 6524, Note_off_c, 1, 62, 100
3, 6524, Note_off_c, 1, 55, 100
3, 6528, Note_on_c, 1, 62, 92
3, 6528, Note_on_c, 1, 57, 92
3, 6908, Note_off_c, 1, 62, 100
3, 6908, Note_off_c, 1, 57, 100
3, 6912, Note_on_c, 1, 62, 98
3, 6912, Note_on_c, 1, 58, 98
3, 7292, Note_off_c, 1, 62, 100
3, 7292, Note_off_c, 1, 58, 100
3, 7296, Note_on_c, 1, 62, 104
3, 7296, Note_on_c, 1, 58, 104
3, 7676, Note_off_c, 1, 62, 100
3, 7676, Note_off_c, 1, 58, 100
3, 7680, Note_on_c, 1, 62, 110
3, 7680, Note_on_c, 1, 57, 110
3, 8444, Note_off_c, 1, 62, 100
3, 8444, Note_off_c, 1, 57, 100
3, 8448, Note_on_c, 1, 61, 80
3, 8448, Note_on_c, 1, 57, 80
3, 9212, Note_off_c, 1, 61, 100
3, 9212, Note_off_c, 1, 57, 100
3, 9216, Control_c, 1, 64, 127
3, 9216, Note_on_c, 1, 40, 70
3, 9240, Note_on_c, 1, 43, 70
3, 9264, Note_on_c, 1, 48, 70
3, 9288, Note_on_c, 1, 52, 70
3, 9312, Note_on_c, 1, 55, 70
3, 9336, Note_on_c, 1, 60, 70
3, 9980, Note_off_c, 1, 52, 100
3, 9980, Note_off_c, 1, 55, 100
3, 9980, Note_off_c, 1, 60, 100
3, 11896, Control_c, 1, 64, 0
3, 11900, Note_off_c, 1, 40, 100
3, 11900, Note_off_c, 1, 43, 100
3, 11900, Note_off_c, 1, 48, 100
3, 11904, Note_on_c, 1, 60, 80
3, 11904, Note_on_c, 1, 52, 80
3, 12284, Note_off_c, 1, 60, 100
3, 12284, Note_off_c, 1, 52, 100
3, 12288, Note_on_c, 1, 60, 81
3, 12288, Note_on_c, 1, 53, 81
3, 12668, Note_off_c, 1, 60, 100
3, 12668, Note_off_c, 1, 53, 100
3, 13440, Note_on_c, 1, 62, 87
3, 13440, Note_on_c, 1, 54, 87
3, 13820, Note_off_c, 1, 62, 100
3, 13820, Note_off_c, 1, 54, 100
3, 13824, Note_on_c, 1, 62, 89
3, 13824, Note_on_c, 1, 55, 89
3, 14204, Note_off_c, 1, 62, 100
3, 14204, Note_off_c, 1, 55, 100
3, 14976, Note_on_c, 1, 63, 95
3, 14976, Note_on_c, 1, 58, 95
3, 14976, Note_on_c, 1, 55, 95
3, 15356, Note_off_c, 1, 63, 100
3, 15356, Note_off_c, 1, 58, 100
3, 15356, Note_off_c, 1, 55, 100
3, 15744, Note_on_c, 1, 64, 98
3, 15744, Note_on_c, 1, 61, 98
3, 15744, Note_on_c, 1, 58, 98
3, 15744, Note_on_c, 1, 55, 98
3, 16124, Note_off_c, 1, 64, 100
3, 16124, Note_off_c, 1, 61, 100
3, 16124, Note_off_c, 1, 58, 100
3, 16124, Note_off_c, 1, 55, 100
3, 16512, Note_on_c, 1, 64, 102
3, 16512, Note_on_c, 1, 61, 102
3, 16512, Note_on_c, 1, 58, 102
3, 16512, Note_on_c, 1, 55, 102
3, 16892, Note_off_c, 1, 64, 100
3, 16892, Note_off_c, 1, 61, 100
3, 16892, Note_off_c, 1, 58, 100
3, 16892, Note_off_c, 1, 55, 100
3, 17280, Note_on_c, 1, 65, 106
3, 17280, Note_on_c, 1, 62, 106
3, 17280, Note_on_c, 1, 59, 106
3, 17280, Note_on_c, 1, 56, 106
3, 17660, Note_off_c, 1, 65, 100
3, 17660, Note_off_c, 1, 62, 100
3, 17660, Note_off_c, 1, 59, 100
3, 17660, Note_off_c, 1, 56, 100
3, 18048, Note_on_c, 1, 65, 110
3, 18048, Note_on_c, 1, 62, 110
3, 18048, Note_on_c, 1, 59, 110
3, 18048, Note_on_c, 1, 56, 110
3, 18428, Note_off_c, 1, 65, 100
3, 18428, Note_off_c, 1, 62, 100
3, 18428, Note_off_c, 1, 59, 100
3, 18428, Note_off_c, 1, 56, 100
3, 18432, Note_on_c, 1, 65, 110
3, 18432, Note_on_c, 1, 62, 110
3, 18432, Note_on_c, 1, 57, 110
3, 18812, Note_off_c, 1, 65, 100
3, 18812, Note_off_c, 1, 62, 100
3, 18812, Note_off_c, 1, 57, 100
3, 24192, Note_on_c, 1, 46, 110
3, 24380, Note_off_c, 1, 46, 100
3, 24384, Note_on_c, 1, 45, 110
3, 24572, Note_off_c, 1, 45, 100
3, 24576, Note_on_c, 1, 45, 110
3, 24764, Note_off_c, 1, 45, 100
3, 24768, Note_on_c, 1, 49, 110
3, 24956, Note_off_c, 1, 49, 100
3, 24960, Note_on_c, 1, 49, 110
3, 25148, Note_off_c, 1, 49, 100
3, 25152, Note_on_c, 1, 50, 110
3, 25340, Note_off_c, 1, 50, 100
3, 25344, Note_on_c, 1, 50, 110
3, 25532, Note_off_c, 1, 50, 100
3, 25536, Note_on_c, 1, 46, 110
3, 25724, Note_off_c, 1, 46, 100
3, 25728, Note_on_c, 1, 46, 110
3, 25916, Note_off_c, 1, 46, 100
3, 25920, Note_on_c, 1, 45, 110
3, 26108, Note_off_c, 1, 45, 100
3, 26112, Note_on_c, 1, 45, 110
3, 26300, Note_off_c, 1, 45, 100
3, 26304, Note_on_c, 1, 49, 110
3, 26492, Note_off_c, 1, 49, 100
3, 26496, Note_on_c, 1, 49, 110
3, 26684, Note_off_c, 1, 49, 100
3, 26688, Note_on_c, 1, 50, 110
3, 26876, Note_off_c, 1, 50, 100
3, 26880, Note_on_c, 1, 50, 110
3, 27068, Note_off_c, 1, 50, 100
3, 27072, Note_on_c, 1, 46, 110
3, 27260, Note_off_c, 1, 46, 100
3, 27264, Note_on_c, 1, 46, 110
3, 27452, Note_off_c, 1, 46, 100
3, 27456, Note_on_c, 1, 45, 110
3, 27644, Note_off_c, 1, 45, 100
3, 27648, Note_on_c, 1, 46, 110
3, 28032, Note_on_c, 1, 53, 110
3, 28032, Note_on_c, 1, 50, 110
3, 29180, Note_off_c, 1, 46, 100
3, 29180, Note_off_c, 1, 53, 100
3, 29180, Note_off_c, 1, 50, 100
3, 29184, Note_on_c, 1, 53, 110
3, 29184, Note_on_c, 1, 50, 110
3, 29184, Note_on_c, 1, 45, 110
3, 29564, Note_off_c, 1, 53, 100
3, 29564, Note_off_c, 1, 50, 100
3, 29564, Note_off_c, 1, 45, 100
3, 29568, Note_on_c, 1, 53, 110
3, 29568, Note_on_c, 1, 50, 110
3, 29568, Note_on_c, 1, 45, 110
3, 29948, Note_off_c, 1, 53, 100
3, 29948, Note_off_c, 1, 50, 100
3, 29948, Note_off_c, 1, 45, 100
3, 29952, Note_on_c, 1, 55, 110
3, 29952, Note_on_c, 1, 52, 110
3, 29952, Note_on_c, 1, 45, 110
3, 30332, Note_off_c, 1, 55, 100
3, 30332, Note_off_c, 1, 52, 100
3, 30332, Note_off_c, 1, 45, 100
3, 30336, Note_on_c, 1, 55, 110
3, 30336, Note_on_c, 1, 52, 110
3, 30336, Note_on_c, 1, 45, 110
3, 30716, Note_off_c, 1, 55, 100
3, 30716, Note_off_c, 1, 52, 100
3, 30716, Note_off_c, 1, 45, 100
3, 30720, Control_c, 1, 64, 127
3, 30720, Note_on_c, 1, 38, 110
3, 31484, Note_off_c, 1, 38, 100
3, 31488, Note_on_c, 1, 41, 110
3, 31868, Note_off_c, 1, 41, 100
3, 31872, Note_on_c, 1, 45, 110
3, 32248, Control_c, 1, 64, 0
3, 32252, Note_off_c, 1, 45, 100
3, 32256, Note_on_c, 1, 50, 110
3, 36860, Note_off_c, 1, 50, 100
3, 36864, Control_c, 1, 64, 127
3, 36864, Note_on_c, 1, 40, 110
3, 37628, Note_off_c, 1, 40, 100
3, 37632, Note_on_c, 1, 43, 110
3, 38012, Note_off_c, 1, 43, 100
3, 38016, Note_on_c, 1, 49, 110
3, 38392, Control_c, 1, 64, 0
3, 38396, Note_off_c, 1, 49, 100
3, 38400, Note_on_c, 1, 52, 107
3, 43004, Note_off_c, 1, 52, 100
3, 43008, Control_c, 1, 64, 127
3, 43008, Note_on_c, 1, 41, 110
3, 43772, Note_off_c, 1, 41, 100
3, 43776, Note_on_c, 1, 45, 110
3, 44156, Note_off_c, 1, 45, 100
3, 44160, Note_on_c, 1, 50, 110
3, 44536, Control_c, 1, 64, 0
3, 44540, Note_off_c, 1, 50, 100
3, 44544, Note_on_c, 1, 53, 110
3, 46076, Note_off_c, 1, 53, 100
3, 46080, Control_c, 1, 64, 127
3, 46080, Note_on_c, 1, 44, 110
3, 46844, Note_off_c, 1, 44, 100
3, 46848, Note_on_c, 1, 47, 110
3, 47228, Note_off_c, 1, 47, 100
3, 47232, Note_on_c, 1, 52, 110
3, 47608, Control_c, 1, 64, 0
3, 47612, Note_off_c, 1, 52, 100
3, 47616, Note_on_c, 1, 56, 110
3, 49148, Note_off_c, 1, 56, 100
3, 49152, Control_c, 1, 64, 127
3, 49152, Note_on_c, 1, 45, 110
3, 49916, Note_off_c, 1, 45, 100
3, 49920, Note_on_c, 1, 48, 110
3, 50300, Note_off_c, 1, 48, 100
3, 50304, Note_on_c, 1, 53, 110
3, 50680, Control_c, 1, 64, 0
3, 50684, Note_off_c, 1, 53, 100
3, 50688, Note_on_c, 1, 57, 110
3, 52220, Note_off_c, 1, 57, 100
3, 52224, Control_c, 1, 64, 127
3, 52224, Note_on_c, 1, 47, 110
3, 52988, Note_off_c, 1, 47, 100
3, 52992, Note_on_c, 1, 50, 110
3, 53372, Note_off_c, 1, 50, 100
3, 53376, Note_on_c, 1, 56, 110
3, 53752, Control_c, 1, 64, 0
3, 53756, Note_off_c, 1, 56, 100
3, 53760, Note_on_c, 1, 59, 110
3, 55292, Note_off_c, 1, 59, 100
3, 55296, Control_c, 1, 64, 127
3, 55296, Note_on_c, 1, 48, 110
3, 56060, Note_off_c, 1, 48, 100
3, 56064, Note_on_c, 1, 57, 110
3, 56444, Note_off_c, 1, 57, 100
3, 56448, Note_on_c, 1, 60, 110
3, 56824, Control_c, 1, 64, 0
3, 56828, Note_off_c, 1, 60, 100
3, 56832, Note_on_c, 1, 66, 110
3, 56832, Note_on_c, 1, 63, 110
3, 58364, Note_off_c, 1, 66, 100
3, 58364, Note_off_c, 1, 63, 100
3, 58368, Note_on_c, 1, 66, 110
3, 58368, Note_on_c, 1, 63, 110
3, 59900, Note_off_c, 1, 66, 100
3, 59900, Note_off_c, 1, 63, 100
3, 59904, Note_on_c, 1, 66, 110
3, 59904, Note_on_c, 1, 63, 110
3, 61436, Note_off_c, 1, 66, 100
3, 61436, Note_off_c, 1, 63, 100
3, 61440, Note_on_c, 1, 52, 110
3, 61628, Note_off_c, 1, 52, 100
3, 61632, Note_on_c, 1, 64, 80
3, 61820, Note_off_c, 1, 64, 100
3, 61824, Note_on_c, 1, 62, 80
3, 61824, Note_on_c, 1, 59, 80
3, 62012, Note_off_c, 1, 62, 100
3, 62012, Note_off_c, 1, 59, 100
3, 62016, Note_on_c, 1, 64, 80
3, 62204, Note_off_c, 1, 64, 100
3, 62208, Note_on_c, 1, 65, 80
3, 62396, Note_off_c, 1, 65, 100
3, 62400, Note_on_c, 1, 64, 80
3, 62588, Note_off_c, 1, 64, 100
3, 62592, Note_on_c, 1, 62, 80
3, 62592, Note_on_c, 1, 59, 80
3, 62780, Note_off_c, 1, 62, 100
3, 62780, Note_off_c, 1, 59, 100
3, 62784, Note_on_c, 1, 64, 80
3, 62972, Note_off_c, 1, 64, 100
3, 62976, Note_on_c, 1, 52, 80
3, 63164, Note_off_c, 1, 52, 100
3, 63168, Note_on_c, 1, 64, 80
3, 63356, Note_off_c, 1, 64, 100
3, 63360, Note_on_c, 1, 62, 80
3, 63360, Note_on_c, 1, 59, 80
3, 63548, Note_off_c, 1, 62, 100
3, 63548, Note_off_c, 1, 59, 100
3, 63552, Note_on_c, 1, 64, 80
3, 63740, Note_off_c, 1, 64, 100
3, 63744, Note_on_c, 1, 65, 80
3, 63932, Note_off_c, 1, 65, 100
3, 63936, Note_on_c, 1, 64, 80
3, 64124, Note_off_c, 1, 64, 100
3, 64128, Note_on_c, 1, 62, 80
3, 64128, Note_on_c, 1, 59, 80
3, 64316, Note_off_c, 1, 62, 100
3, 64316, Note_off_c, 1, 59, 100
3, 64320, Note_on_c, 1, 64, 80
3, 64508, Note_off_c, 1, 64, 100
3, 64512, Note_on_c, 1, 52, 80
3, 64700, Note_off_c, 1, 52, 100
3, 64704, Note_on_c, 1, 64, 80
3, 64892, Note_off_c, 1, 64, 100
3, 64896, Note_on_c, 1, 62, 80
3, 64896, Note_on_c, 1, 59, 80
3, 65084, Note_off_c, 1, 62, 100
3, 65084, Note_off_c, 1, 59, 100
3, 65088, Note_on_c, 1, 64, 80
3, 65276, Note_off_c, 1, 64, 100
3, 65280, Note_on_c, 1, 65, 80
3, 65468, Note_off_c, 1, 65, 100
3, 65472, Note_on_c, 1, 64, 80
3, 65660, Note_off_c, 1, 64, 100
3, 65664, Note_on_c, 1, 62, 80
3, 65664, Note_on_c, 1, 59, 80
3, 65852, Note_off_c, 1, 62, 100
3, 65852, Note_off_c, 1, 59, 100
3, 65856, Note_on_c, 1, 64, 80
3, 66044, Note_off_c, 1, 64, 100
3, 66048, Note_on_c, 1, 52, 80
3, 66236, Note_off_c, 1, 52, 100
3, 66240, Note_on_c, 1, 64, 80
3, 66428, Note_off_c, 1, 64, 100
3, 66432, Note_on_c, 1, 62, 80
3, 66432, Note_on_c, 1, 59, 80
3, 66620, Note_off_c, 1, 62, 100
3, 66620, Note_off_c, 1, 59, 100
3, 66624, Note_on_c, 1, 64, 80
3, 66812, Note_off_c, 1, 64, 100
3, 66816, Note_on_c, 1, 52, 80
3, 67004, Note_off_c, 1, 52, 100
3, 67008, Note_on_c, 1, 64, 80
3, 67196, Note_off_c, 1, 64, 100
3, 67200, Note_on_c, 1, 59, 80
3, 67200, Note_on_c, 1, 56, 80
3, 67388, Note_off_c, 1, 59, 100
3, 67388, Note_off_c, 1, 56, 100
3, 67392, Note_on_c, 1, 64, 80
3, 67580, Note_off_c, 1, 64, 100
3, 67584, Note_on_c, 1, 52, 80
3, 67772, Note_off_c, 1, 52, 100
3, 67776, Note_on_c, 1, 64, 80
3, 67964, Note_off_c, 1, 64, 100
3, 67968, Note_on_c, 1, 60, 80
3, 67968, Note_on_c, 1, 57, 80
3, 68156, Note_off_c, 1, 60, 100
3, 68156, Note_off_c, 1, 57, 100
3, 68160, Note_on_c, 1, 64, 80
3, 68348, Note_off_c, 1, 64, 100
3, 68352, Note_on_c, 1, 65, 80
3, 68540, Note_off_c, 1, 65, 100
3, 68544, Note_on_c, 1, 64, 80
3, 68732, Note_off_c, 1, 64, 100
3, 68736, Note_on_c, 1, 60, 80
3, 68736, Note_on_c, 1, 57, 80
3, 68924, Note_off_c, 1, 60, 100
3, 68924, Note_off_c, 1, 57, 100
3, 68928, Note_on_c, 1, 64, 80
3, 69116, Note_off_c, 1, 64, 100
3, 69120, Note_on_c, 1, 52, 80
3, 69308, Note_off_c, 1, 52, 100
3, 69312, Note_on_c, 1, 64, 80
3, 69500, Note_off_c, 1, 64, 100
3, 69504, Note_on_c, 1, 60, 80
3, 69504, Note_on_c, 1, 57, 80
3, 69692, Note_off_c, 1, 60, 100
3, 69692, Note_off_c, 1, 57, 100
3, 69696, Note_on_c, 1, 64, 80
3, 69884, Note_off_c, 1, 64, 100
3, 69888, Note_on_c, 1, 65, 80
3, 70076, Note_off_c, 1, 65, 100
3, 70080, Note_on_c, 1, 64, 80
3, 70268, Note_off_c, 1, 64, 100
3, 70272, Note_on_c, 1, 60, 80
3, 70272, Note_on_c, 1, 57, 80
3, 70460, Note_off_c, 1, 60, 100
3, 70460, Note_off_c, 1, 57, 100
3, 70464, Note_on_c, 1, 64, 80
3, 70652, Note_off_c, 1, 64, 100
3, 70656, Note_on_c, 1, 52, 80
3, 70844, Note_off_c, 1, 52, 100
3, 70848, Note_on_c, 1, 64, 80
3, 71036, Note_off_c, 1, 64, 100
3, 71040, Note_on_c, 1, 60, 80
3, 71040, Note_on_c, 1, 57, 80
3, 71228, Note_off_c, 1, 60, 100
3, 71228, Note_off_c, 1, 57, 100
3, 71232, Note_on_c, 1, 64, 80
3, 71420, Note_off_c, 1, 64, 100
3, 71424, Note_on_c, 1, 65, 80
3, 71612, Note_off_c, 1, 65, 100
3, 71616, Note_on_c, 1, 64, 80
3, 71804, Note_off_c, 1, 64, 100
3, 71808, Note_on_c, 1, 60, 80
3, 71808, Note_on_c, 1, 57, 80
3, 71996, Note_off_c, 1, 60, 100
3, 71996, Note_off_c, 1, 57, 100
3, 72000, Note_on_c, 1, 64, 80
3, 72188, Note_off_c, 1, 64, 100
3, 72192, Note_on_c, 1, 52, 80
3, 72380, Note_off_c, 1, 52, 100
3, 72384, Note_on_c, 1, 64, 80
3, 72572, Note_off_c, 1, 64, 100
3, 72576, Note_on_c, 1, 60, 80
3, 72576, Note_on_c, 1, 57, 80
3, 72764, Note_off_c, 1, 60, 100
3, 72764, Note_off_c, 1, 57, 100
3, 72768, Note_on_c, 1, 64, 80
3, 72956, Note_off_c, 1, 64, 100
3, 72960, Note_on_c, 1, 52, 80
3, 73148, Note_off_c, 1, 52, 100
3, 73152, Note_on_c, 1, 64, 80
3, 73340, Note_off_c, 1, 64, 100
3, 73344, Note_on_c, 1, 60, 80
3, 73344, Note_on_c, 1, 57, 80
3, 73532, Note_off_c, 1, 60, 100
3, 73532, Note_off_c, 1, 57, 100
3, 73536, Note_on_c, 1, 64, 80
3, 73724, Note_off_c, 1, 64, 100
3, 73728, Note_on_c, 1, 52, 80
3, 73916, Note_off_c, 1, 52, 100
3, 73920, Note_on_c, 1, 64, 80
3, 74108, Note_off_c, 1, 64, 100
3, 74112, Note_on_c, 1, 62, 80
3, 74112, Note_on_c, 1, 59, 80
3, 74300, Note_off_c, 1, 62, 100
3, 74300, Note_off_c, 1, 59, 100
3, 74304, Note_on_c, 1, 64, 80
3, 74492, Note_off_c, 1, 64, 100
3, 74496, Note_on_c, 1, 65, 80
3, 74684, Note_off_c, 1, 65, 100
3, 74688, Note_on_c, 1, 64, 80
3, 74876, Note_off_c, 1, 64, 100
3, 74880, Note_on_c, 1, 62, 80
3, 74880, Note_on_c, 1, 59, 80
3, 75068, Note_off_c, 1, 62, 100
3, 75068, Note_off_c, 1, 59, 100
3, 75072, Note_on_c, 1, 64, 81
3, 75260, Note_off_c, 1, 64, 100
3, 75264, Note_on_c, 1, 52, 83
3, 75452, Note_off_c, 1, 52, 100
3, 75456, Note_on_c, 1, 64, 85
3, 75644, Note_off_c, 1, 64, 100
3, 75648, Note_on_c, 1, 62, 87
3, 75648, Note_on_c, 1, 59, 87
3, 75836, Note_off_c, 1, 62, 100
3, 75836, Note_off_c, 1, 59, 100
3, 75840, Note_on_c, 1, 64, 88
3, 76028, Note_off_c, 1, 64, 100
3, 76032, Note_on_c, 1, 65, 90
3, 76220, Note_off_c, 1, 65, 100
3, 76224, Note_on_c, 1, 64, 92
3, 76412, Note_off_c, 1, 64, 100
3, 76416, Note_on_c, 1, 62, 94
3, 76416, Note_on_c, 1, 59, 94
3, 76604, Note_off_c, 1, 62, 100
3, 76604, Note_off_c, 1, 59, 100
3, 76608, Note_on_c, 1, 64, 95
3, 76796, Note_off_c, 1, 64, 100
3, 76800, Note_on_c, 1, 52, 97
3, 76988, Note_off_c, 1, 52, 100
3, 76992, Note_on_c, 1, 64, 99
3, 77180, Note_off_c, 1, 64, 100
3, 77184, Note_on_c, 1, 62, 101
3, 77184, Note_on_c, 1, 59, 101
3, 77372, Note_off_c, 1, 62, 100
3, 77372, Note_off_c, 1, 59, 100
3, 77376, Note_on_c, 1, 64, 102
3, 77564, Note_off_c, 1, 64, 100
3, 77568, Note_on_c, 1, 65, 104
3, 77756, Note_off_c, 1, 65, 100
3, 77760, Note_on_c, 1, 64, 106
3, 77948, Note_off_c, 1, 64, 100
3, 77952, Note_on_c, 1, 62, 108
3, 77952, Note_on_c, 1, 59, 108
3, 78140, Note_off_c, 1, 62, 100
3, 78140, Note_off_c, 1, 59, 100
3, 78144, Note_on_c, 1, 64, 109
3, 78332, Note_off_c, 1, 64, 100
3, 78336, Note_on_c, 1, 62, 110
3, 78336, Note_on_c, 1, 59, 110
3, 78336, Note_on_c, 1, 52, 110
3, 78716, Note_off_c, 1, 62, 100
3, 78716, Note_off_c, 1, 59, 100
3, 78716, Note_off_c, 1, 52, 100
3, 81792, Note_on_c, 1, 44, 110
3, 81980, Note_off_c, 1, 44, 100
3, 81984, Note_on_c, 1, 47, 110
3, 82172, Note_off_c, 1, 47, 100
3, 82176, Note_on_c, 1, 38, 110
3, 82364, Note_off_c, 1, 38, 100
3, 82368, Note_on_c, 1, 47, 110
3, 82556, Note_off_c, 1, 47, 100
3, 82560, Note_on_c, 1, 44, 110
3, 82748, Note_off_c, 1, 44, 100
3, 82752, Note_on_c, 1, 38, 110
3, 82940, Note_off_c, 1, 38, 100
3, 82944, Note_on_c, 1, 36, 110
3, 83324, Note_off_c, 1, 36, 100
3, 83328, Note_on_c, 1, 45, 110
3, 83328, Note_on_c, 1, 40, 110
3, 83328, Note_on_c, 1, 36, 110
3, 83708, Note_off_c, 1, 45, 100
3, 83708, Note_off_c, 1, 40, 100
3, 83708, Note_off_c, 1, 36, 100
3, 83712, Note_on_c, 1, 41, 110
3, 83712, Note_on_c, 1, 38, 110
3, 83712, Note_on_c, 1, 46, 110
3, 85244, Note_off_c, 1, 46, 100
3, 85248, Note_on_c, 1, 45, 110
3, 85628, Note_off_c, 1, 45, 100
3, 85632, Note_on_c, 1, 44, 110
3, 86012, Note_off_c, 1, 38, 100
3, 86012, Note_off_c, 1, 41, 100
3, 86012, Note_off_c, 1, 44, 100
3, 86016, Note_on_c, 1, 45, 110
3, 86016, Note_on_c, 1, 40, 110
3, 86016, Note_on_c, 1, 36, 110
3, 86396, Note_off_c, 1, 45, 100
3, 86396, Note_off_c, 1, 40, 100
3, 86396, Note_off_c, 1, 36, 100
3, 86400, Note_on_c, 1, 57, 110
3, 86400, Note_on_c, 1, 52, 110
3, 86400, Note_on_c, 1, 48, 110
3, 86780, Note_off_c, 1, 57, 100
3, 86780, Note_off_c, 1, 52, 100
3, 86780, Note_off_c, 1, 48, 100
3, 86784, Note_on_c, 1, 53, 110
3, 86784, Note_on_c, 1, 50, 110
3, 86784, Note_on_c, 1, 58, 110
3, 88316, Note_off_c, 1, 58, 100
3, 88320, Note_on_c, 1, 57, 110
3, 88700, Note_off_c, 1, 57, 100
3, 88704, Note_on_c, 1, 56, 110
3, 89084, Note_off_c, 1, 50, 100
3, 89084, Note_off_c, 1, 53, 100
3, 89084, Note_off_c, 1, 56, 100
3, 89088, Note_on_c, 1, 57, 110
3, 89088, Note_on_c, 1, 52, 110
3, 89088, Note_on_c, 1, 48, 110
3, 89468, Note_off_c, 1, 57, 100
3, 89468, Note_off_c, 1, 52, 100
3, 89468, Note_off_c, 1, 48, 100
3, 89472, Note_on_c, 1, 60, 110
3, 89472, Note_on_c, 1, 64, 110
3, 89852, Note_off_c, 1, 60, 100
3, 89852, Note_off_c, 1, 64, 100
3, 89856, Note_on_c, 1, 65, 110
3, 89856, Note_on_c, 1, 62, 110
3, 91004, Note_off_c, 1, 62, 100
3, 91004, Note_off_c, 1, 65, 100
3, 91008, Note_on_c, 1, 66, 110
3, 91008, Note_on_c, 1, 63, 110
3, 91388, Note_off_c, 1, 66, 100
3, 91388, Note_off_c, 1, 63, 100
3, 91392, Note_on_c, 1, 69, 110
3, 91392, Note_on_c, 1, 64, 110
3, 92540, Note_off_c, 1, 64, 100
3, 92540, Note_off_c, 1, 69, 100
3, 92544, Note_on_c, 1, 64, 110
3, 92544, Note_on_c, 1, 69, 110
3, 92924, Note_off_c, 1, 64, 100
3, 92928, Note_on_c, 1, 65, 101
3, 93308, Note_off_c, 1, 65, 100
3, 93312, Note_on_c, 1, 61, 91
3, 93692, Note_off_c, 1, 61, 100
3, 93696, Note_on_c, 1, 62, 81
3, 94076, Note_off_c, 1, 69, 100
3, 94076, Note_off_c, 1, 62, 100
3, 94080, Note_on_c, 1, 62, 80
3, 94080, Note_on_c, 1, 58, 80
3, 94080, Note_on_c, 1, 50, 80
3, 94460, Note_off_c, 1, 62, 100
3, 94460, Note_off_c, 1, 58, 100
3, 94460, Note_off_c, 1, 50, 100
3, 94464, Note_on_c, 1, 60, 80
3, 94464, Note_on_c, 1, 57, 80
3, 94464, Note_on_c, 1, 52, 80
3, 94844, Note_off_c, 1, 60, 100
3, 94844, Note_off_c, 1, 57, 100
3, 94848, Note_on_c, 1, 59, 80
3, 94848, Note_on_c, 1, 56, 80
3, 95228, Note_off_c, 1, 52, 100
3, 95228, Note_off_c, 1, 59, 100
3, 95228, Note_off_c, 1, 56, 100
3, 95232, Note_on_c, 1, 57, 110
3, 95232, Note_on_c, 1, 45, 110
3, 95612, Note_off_c, 1, 57, 100
3, 95612, Note_off_c, 1, 45, 100
3, 95616, Note_on_c, 1, 33, 110
3, 95996, Note_off_c, 1, 33, 100
3, 96000, Note_on_c, 1, 34, 110
3, 97532, Note_off_c, 1, 34, 100
3, 97536, Note_on_c, 1, 33, 110
3, 97916, Note_off_c, 1, 33, 100
3, 97920, Note_on_c, 1, 32, 110
3, 98300, Note_off_c, 1, 32, 100
3, 98304, Note_on_c, 1, 33, 110
3, 98684, Note_off_c, 1, 33, 100
3, 98688, Note_on_c, 1, 33, 110
3, 99068, Note_off_c, 1, 33, 100
3, 99072, Note_on_c, 1, 34, 110
3, 100604, Note_off_c, 1, 34, 100
3, 100608, Note_on_c, 1, 33, 110
3, 100988, Note_off_c, 1, 33, 100
3, 100992, Note_on_c, 1, 32, 110
3, 101372, Note_off_c, 1, 32, 100
3, 101376, Note_on_c, 1, 33, 110
3, 101756, Note_off_c, 1, 33, 100
3, 101760, Note_on_c, 1, 33, 110
3, 102140, Note_off_c, 1, 33, 100
3, 102144, Note_on_c, 1, 34, 110
3, 103676, Note_off_c, 1, 34, 100
3, 103680, Note_on_c, 1, 33, 110
3, 104060, Note_off_c, 1, 33, 100
3, 104064, Note_on_c, 1, 32, 110
3, 104444, Note_off_c, 1, 32, 100
3, 104448, Note_on_c, 1, 31, 80
3, 104636, Note_off_c, 1, 31, 100
3, 104640, Note_on_c, 1, 30, 80
3, 104828, Note_off_c, 1, 30, 100
3, 104832, Note_on_c, 1, 31, 80
3, 105020, Note_off_c, 1, 31, 100
3, 105024, Note_on_c, 1, 33, 80
3, 105212, Note_off_c, 1, 33, 100
3, 105216, Note_on_c, 1, 35, 80
3, 105404, Note_off_c, 1, 35, 100
3, 105408, Note_on_c, 1, 31, 80
3, 105596, Note_off_c, 1, 31, 100
3, 105600, Note_on_c, 1, 33, 80
3, 105788, Note_off_c, 1, 33, 100
3, 105792, Note_on_c, 1, 35, 80
3, 105980, Note_off_c, 1, 35, 100
3, 105984, Note_on_c, 1, 36, 80
3, 106172, Note_off_c, 1, 36, 100
3, 106176, Note_on_c, 1, 35, 80
3, 106364, Note_off_c, 1, 35, 100
3, 106368, Note_on_c, 1, 36, 80
3, 106556, Note_off_c, 1, 36, 100
3, 106560, Note_on_c, 1, 38, 80
3, 106748, Note_off_c, 1, 38, 100
3, 106752, Note_on_c, 1, 40, 80
3, 106940, Note_off_c, 1, 40, 100
3, 106944, Note_on_c, 1, 39, 80
3, 107132, Note_off_c, 1, 39, 100
3, 107136, Note_on_c, 1, 40, 80
3, 107324, Note_off_c, 1, 40, 100
3, 107328, Note_on_c, 1, 39, 80
3, 107516, Note_off_c, 1, 39, 100
3, 107520, Note_on_c, 1, 40, 80
3, 107708, Note_off_c, 1, 40, 100
3, 107712, Note_on_c, 1, 39, 80
3, 107900, Note_off_c, 1, 39, 100
3, 107904, Note_on_c, 1, 40, 80
3, 108092, Note_off_c, 1, 40, 100
3, 108096, Note_on_c, 1, 42, 80
3, 108284, Note_off_c, 1, 42, 100
3, 108288, Note_on_c, 1, 44, 80
3, 108476, Note_off_c, 1, 44, 100
3, 108480, Note_on_c, 1, 40, 80
3, 108668, Note_off_c, 1, 40, 100
3, 108672, Note_on_c, 1, 42, 80
3, 108860, Note_off_c, 1, 42, 100
3, 108864, Note_on_c, 1, 44, 80
3, 109052, Note_off_c, 1, 44, 100
3, 109056, Note_on_c, 1, 45, 80
3, 109244, Note_off_c, 1, 45, 100
3, 109248, Note_on_c, 1, 44, 80
3, 109436, Note_off_c, 1, 44, 100
3, 109440, Note_on_c, 1, 45, 80
3, 109628, Note_off_c, 1, 45, 100
3, 109632, Note_on_c, 1, 47, 80
3, 109820, Note_off_c, 1, 47, 100
3, 109824, Note_on_c, 1, 48, 80
3, 110012, Note_off_c, 1, 48, 100
3, 110016, Note_on_c, 1, 45, 81
3, 110204, Note_off_c, 1, 45, 100
3, 110208, Note_on_c, 1, 47, 82
3, 110396, Note_off_c, 1, 47, 100
3, 110400, Note_on_c, 1, 48, 83
3, 110588, Note_off_c, 1, 48, 100
3, 110592, Note_on_c, 1, 50, 84
3, 110780, Note_off_c, 1, 50, 100
3, 110784, Note_on_c, 1, 49, 85
3, 110972, Note_off_c, 1, 49, 100
3, 110976, Note_on_c, 1, 50, 86
3, 111164, Note_off_c, 1, 50, 100
3, 111168, Note_on_c, 1, 52, 87
3, 111356, Note_off_c, 1, 52, 100
3, 111360, Note_on_c, 1, 53, 88
3, 111548, Note_off_c, 1, 53, 100
3, 111552, Note_on_c, 1, 50, 89
3, 111740, Note_off_c, 1, 50, 100
3, 111744, Note_on_c, 1, 52, 90
3, 111932, Note_off_c, 1, 52, 100
3, 111936, Note_on_c, 1, 53, 91
3, 112124, Note_off_c, 1, 53, 100
3, 112128, Note_on_c, 1, 52, 92
3, 112316, Note_off_c, 1, 52, 100
3, 112320, Note_on_c, 1, 63, 93
3, 112508, Note_off_c, 1, 63, 100
3, 112512, Note_on_c, 1, 64, 94
3, 112700, Note_off_c, 1, 64, 100
3, 112704, Note_on_c, 1, 63, 95
3, 112892, Note_off_c, 1, 63, 100
3, 112896, Note_on_c, 1, 64, 96
3, 113084, Note_off_c, 1, 64, 100
3, 113088, Note_on_c, 1, 63, 97
3, 113276, Note_off_c, 1, 63, 100
3, 113280, Note_on_c, 1, 64, 98
3, 113468, Note_off_c, 1, 64, 100
3, 113472, Note_on_c, 1, 52, 99
3, 113660, Note_off_c, 1, 52, 100
3, 113664, Note_on_c, 1, 52, 80
3, 113664, Note_on_c, 1, 64, 80
3, 113664, Note_on_c, 1, 60, 80
3, 114428, Note_off_c, 1, 64, 100
3, 114428, Note_off_c, 1, 60, 100
3, 114432, Note_on_c, 1, 62, 80
3, 114432, Note_on_c, 1, 59, 80
3, 115196, Note_off_c, 1, 62, 100
3, 115196, Note_off_c, 1, 59, 100
3, 115200, Note_on_c, 1, 60, 80
3, 115200, Note_on_c, 1, 57, 80
3, 115964, Note_off_c, 1, 60, 100
3, 115964, Note_off_c, 1, 57, 100
3, 115968, Note_on_c, 1, 59, 80
3, 115968, Note_on_c, 1, 56, 80
3, 116732, Note_off_c, 1, 52, 100
3, 116732, Note_off_c, 1, 59, 100
3, 116732, Note_off_c, 1, 56, 100
3, 116736, Note_on_c, 1, 57, 80
3, 116924, Note_off_c, 1, 57, 100
3, 116928, Note_on_c, 1, 52, 80
3, 117116, Note_off_c, 1, 52, 100
3, 117120, Note_on_c, 1, 48, 80
3, 117308, Note_off_c, 1, 48, 100
3, 117312, Note_on_c, 1, 60, 80
3, 117500, Note_off_c, 1, 60, 100
3, 117504, Note_on_c, 1, 59, 80
3, 117692, Note_off_c, 1, 59, 100
3, 117696, Note_on_c, 1, 56, 80
3, 117884, Note_off_c, 1, 56, 100
3, 117888, Note_on_c, 1, 52, 80
3, 118076, Note_off_c, 1, 52, 100
3, 118080, Note_on_c, 1, 62, 80
3, 118268, Note_off_c, 1, 62, 100
3, 118272, Note_on_c, 1, 60, 80
3, 118460, Note_off_c, 1, 60, 100
3, 118464, Note_on_c, 1, 57, 80
3, 118652, Note_off_c, 1, 57, 100
3, 118656, Note_on_c, 1, 52, 80
3, 118844, Note_off_c, 1, 52, 100
3, 118848, Note_on_c, 1, 64, 80
3, 119036, Note_off_c, 1, 64, 100
3, 119040, Note_on_c, 1, 63, 80
3, 119228, Note_off_c, 1, 63, 100
3, 119232, Note_on_c, 1, 64, 80
3, 119420, Note_off_c, 1, 64, 100
3, 119424, Note_on_c, 1, 63, 80
3, 119612, Note_off_c, 1, 63, 100
3, 119616, Note_on_c, 1, 64, 80
3, 119804, Note_off_c, 1, 64, 100
3, 119808, Note_on_c, 1, 52, 80
3, 120192, Note_on_c, 1, 64, 80
3, 120192, Note_on_c, 1, 60, 80
3, 120572, Note_off_c, 1, 52, 100
3, 120576, Note_on_c, 1, 52, 80
3, 120956, Note_off_c, 1, 64, 100
3, 120956, Note_off_c, 1, 60, 100
3, 120960, Note_on_c, 1, 59, 80
3, 120960, Note_on_c, 1, 62, 80
3, 121340, Note_off_c, 1, 52, 100
3, 121344, Note_on_c, 1, 52, 80
3, 121724, Note_off_c, 1, 59, 100
3, 121724, Note_off_c, 1, 62, 100
3, 121728, Note_on_c, 1, 60, 80
3, 121728, Note_on_c, 1, 57, 80
3, 122108, Note_off_c, 1, 52, 100
3, 122112, Note_on_c, 1, 52, 80
3, 122492, Note_off_c, 1, 60, 100
3, 122492, Note_off_c, 1, 57, 100
3, 122496, Note_on_c, 1, 59, 80
3, 122496, Note_on_c, 1, 56, 80
3, 122876, Note_off_c, 1, 52, 100
3, 122876, Note_off_c, 1, 59, 100
3, 122876, Note_off_c, 1, 56, 100
3, 122880, Note_on_c, 1, 57, 80
3, 123068, Note_off_c, 1, 57, 100
3, 123072, Note_on_c, 1, 52, 80
3, 123260, Note_off_c, 1, 52, 100
3, 123264, Note_on_c, 1, 48, 80
3, 123452, Note_off_c, 1, 48, 100
3, 123456, Note_on_c, 1, 60, 80
3, 123644, Note_off_c, 1, 60, 100
3, 123648, Note_on_c, 1, 59, 80
3, 123836, Note_off_c, 1, 59, 100
3, 123840, Note_on_c, 1, 56, 80
3, 124028, Note_off_c, 1, 56, 100
3, 124032, Note_on_c, 1, 52, 80
3, 124220, Note_off_c, 1, 52, 100
3, 124224, Note_on_c, 1, 62, 80
3, 124412, Note_off_c, 1, 62, 100
3, 124416, Note_on_c, 1, 60, 80
3, 124604, Note_off_c, 1, 60, 100
3, 124608, Note_on_c, 1, 57, 80
3, 124796, Note_off_c, 1, 57, 100
3, 124800, Note_on_c, 1, 52, 80
3, 124988, Note_off_c, 1, 52, 100
3, 124992, Note_on_c, 1, 64, 80
3, 125180, Note_off_c, 1, 64, 100
3, 125184, Note_on_c, 1, 63, 80
3, 125372, Note_off_c, 1, 63, 100
3, 125376, Note_on_c, 1, 64, 80
3, 125564, Note_off_c, 1, 64, 100
3, 125568, Note_on_c, 1, 63, 80
3, 125756, Note_off_c, 1, 63, 100
3, 125760, Note_on_c, 1, 64, 80
3, 125948, Note_off_c, 1, 64, 100
3, 125952, Note_on_c, 1, 52, 80
3, 126336, Note_on_c, 1, 64, 80
3, 126336, Note_on_c, 1, 60, 80
3, 126716, Note_off_c, 1, 52, 100
3, 126720, Note_on_c, 1, 52, 80
3, 127100, Note_off_c, 1, 64, 100
3, 127100, Note_off_c, 1, 60, 100
3, 127104, Note_on_c, 1, 59, 80
3, 127104, Note_on_c, 1, 62, 80
3, 127484, Note_off_c, 1, 52, 100
3, 127488, Note_on_c, 1, 52, 80
3, 127868, Note_off_c, 1, 59, 100
3, 127868, Note_off_c, 1, 62, 100
3, 127872, Note_on_c, 1, 60, 80
3, 127872, Note_on_c, 1, 57, 80
3, 128252, Note_off_c, 1, 52, 100
3, 128256, Note_on_c, 1, 52, 80
3, 128636, Note_off_c, 1, 60, 100
3, 128636, Note_off_c, 1, 57, 100
3, 128640, Note_on_c, 1, 59, 80
3, 128640, Note_on_c, 1, 56, 80
3, 129020, Note_off_c, 1, 52, 100
3, 129020, Note_off_c, 1, 59, 100
3, 129020, Note_off_c, 1, 56, 100
3, 129024, Note_on_c, 1, 45, 80
3, 129408, Note_on_c, 1, 57, 80
3, 129788, Note_off_c, 1, 45, 100
3, 129788, Note_off_c, 1, 57, 100
3, 129792, Note_on_c, 1, 52, 80
3, 130176, Note_on_c, 1, 59, 80
3, 130176, Note_on_c, 1, 56, 80
3, 130556, Note_off_c, 1, 52, 100
3, 130556, Note_off_c, 1, 59, 100
3, 130556, Note_off_c, 1, 56, 100
3, 130560, Note_on_c, 1, 57, 80
3, 130944, Note_on_c, 1, 60, 80
3, 131324, Note_off_c, 1, 57, 100
3, 131324, Note_off_c, 1, 60, 100
3, 131328, Note_on_c, 1, 52, 80
3, 131712, Note_on_c, 1, 59, 80
3, 131712, Note_on_c, 1, 56, 80
3, 132092, Note_off_c, 1, 52, 100
3, 132092, Note_off_c, 1, 59, 100
3, 132092, Note_off_c, 1, 56, 100
3, 132096, Note_on_c, 1, 57, 80
3, 132096, Note_on_c, 1, 45, 80
3, 132476, Note_off_c, 1, 57, 100
3, 132476, Note_off_c, 1, 45, 100
3, 132864, Note_on_c, 1, 45, 80
3, 132864, Note_on_c, 1, 33, 80
3, 133628, Note_off_c, 1, 45, 100
3, 133628, Note_off_c, 1, 33, 100
3, 133632, Note_on_c, 1, 45, 80
3, 133632, Note_on_c, 1, 33, 80
3, 134396, Note_off_c, 1, 45, 100
3, 134396, Note_off_c, 1, 33, 100
3, 134400, Note_on_c, 1, 45, 80
3, 134400, Note_on_c, 1, 33, 80
3, 135164, Note_off_c, 1, 45, 100
3, 135164, Note_off_c, 1, 33, 100
3, 135168, Note_on_c, 1, 45, 80
3, 135168, Note_on_c, 1, 33, 80
3, 138236, Note_off_c, 1, 33, 100
3, 138236, Note_off_c, 1, 45, 100
3, 138240, Note_on_c, 1, 43, 80
3, 138240, Note_on_c, 1, 31, 80
3, 139004, Note_off_c, 1, 43, 100
3, 139004, Note_off_c, 1, 31, 100
3, 139008, Note_on_c, 1, 41, 80
3, 139008, Note_on_c, 1, 29, 80
3, 139772, Note_off_c, 1, 41, 100
3, 139772, Note_off_c, 1, 29, 100
3, 139776, Note_on_c, 1, 40, 80
3, 139776, Note_on_c, 1, 28, 80
3, 140540, Note_off_c, 1, 40, 100
3, 140540, Note_off_c, 1, 28, 100
3, 140544, Note_on_c, 1, 41, 80
3, 140924, Note_off_c, 1, 41, 100
3, 140928, Note_on_c, 1, 38, 80
3, 141308, Note_off_c, 1, 38, 100
3, 141312, Control_c, 1, 64, 127
3, 141312, Note_on_c, 1, 37, 70
3, 141336, Note_on_c, 1, 40, 70
3, 141360, Note_on_c, 1, 45, 70
3, 141384, Note_on_c, 1, 49, 70
3, 141408, Note_on_c, 1, 52, 70
3, 141432, Note_on_c, 1, 57, 70
3, 142076, Note_off_c, 1, 49, 100
3, 142076, Note_off_c, 1, 52, 100
3, 142076, Note_off_c, 1, 57, 100
3, 143992, Control_c, 1, 64, 0
3, 143996, Note_off_c, 1, 37, 64
3, 143996, Note_off_c, 1, 40, 64
3, 143996, Note_off_c, 1, 45, 64
3, 144000, Note_on_c, 1, 57, 80
3, 144000, Note_on_c, 1, 49, 80
3, 144380, Note_off_c, 1, 57, 100
3, 144380, Note_off_c, 1, 49, 100
3, 144384, Note_on_c, 1, 57, 80
3, 144384, Note_on_c, 1, 50, 80
3, 144764, Note_off_c, 1, 57, 100
3, 144764, Note_off_c, 1, 50, 100
3, 144768, Note_on_c, 1, 57, 80
3, 144768, Note_on_c, 1, 52, 80
3, 145148, Note_off_c, 1, 57, 100
3, 145148, Note_off_c, 1, 52, 100
3, 145152, Note_on_c, 1, 57, 80
3, 145152, Note_on_c, 1, 53, 80
3, 145532, Note_off_c, 1, 57, 100
3, 145532, Note_off_c, 1, 53, 100
3, 145536, Note_on_c, 1, 57, 80
3, 145536, Note_on_c, 1, 49, 80
3, 145916, Note_off_c, 1, 57, 100
3, 145916, Note_off_c, 1, 49, 100
3, 145920, Note_on_c, 1, 57, 80
3, 145920, Note_on_c, 1, 50, 80
3, 146300, Note_off_c, 1, 57, 100
3, 146300, Note_off_c, 1, 50, 100
3, 146304, Note_on_c, 1, 57, 80
3, 146304, Note_on_c, 1, 52, 80
3, 146684, Note_off_c, 1, 57, 100
3, 146684, Note_off_c, 1, 52, 100
3, 146688, Note_on_c, 1, 57, 80
3, 146688, Note_on_c, 1, 53, 80
3, 147068, Note_off_c, 1, 57, 100
3, 147068, Note_off_c, 1, 53, 100
3, 147072, Note_on_c, 1, 62, 80
3, 147072, Note_on_c, 1, 54, 80
3, 147452, Note_off_c, 1, 62, 100
3, 147452, Note_off_c, 1, 54, 100
3, 147456, Note_on_c, 1, 62, 86
3, 147456, Note_on_c, 1, 55, 86
3, 147836, Note_off_c, 1, 62, 100
3, 147836, Note_off_c, 1, 55, 100
3, 147840, Note_on_c, 1, 62, 92
3, 147840, Note_on_c, 1, 57, 92
3, 148220, Note_off_c, 1, 62, 100
3, 148220, Note_off_c, 1, 57, 100
3, 148224, Note_on_c, 1, 62, 98
3, 148224, Note_on_c, 1, 58, 98
3, 148604, Note_off_c, 1, 62, 100
3, 148604, Note_off_c, 1, 58, 100
3, 148608, Note_on_c, 1, 62, 104
3, 148608, Note_on_c, 1, 58, 104
3, 148988, Note_off_c, 1, 62, 100
3, 148988, Note_off_c, 1, 58, 100
3, 148992, Note_on_c, 1, 62, 110
3, 148992, Note_on_c, 1, 57, 110
3, 149756, Note_off_c, 1, 62, 100
3, 149756, Note_off_c, 1, 57, 100
3, 149760, Note_on_c, 1, 61, 80
3, 149760, Note_on_c, 1, 57, 80
3, 150524, Note_off_c, 1, 61, 100
3, 150524, Note_off_c, 1, 57, 100
3, 150528, Control_c, 1, 64, 127
3, 150528, Note_on_c, 1, 40, 70
3, 150552, Note_on_c, 1, 43, 70
3, 150576, Note_on_c, 1, 48, 70
3, 150600, Note_on_c, 1, 52, 70
3, 150624, Note_on_c, 1, 55, 70
3, 150648, Note_on_c, 1, 60, 70
3, 151292, Note_off_c, 1, 52, 100
3, 151292, Note_off_c, 1, 55, 100
3, 151292, Note_off_c, 1, 60, 100
3, 153208, Control_c, 1, 64, 0
3, 153212, Note_off_c, 1, 40, 64
3, 153212, Note_off_c, 1, 43, 64
3, 153212, Note_off_c, 1, 48, 64
3, 153216, Note_on_c, 1, 60, 80
3, 153216, Note_on_c, 1, 52, 80
3, 153596, Note_off_c, 1, 60, 100
3, 153596, Note_off_c, 1, 52, 100
3, 153600, Note_on_c, 1, 60, 81
3, 153600, Note_on_c, 1, 53, 81
3, 153980, Note_off_c, 1, 60, 100
3, 153980, Note_off_c, 1, 53, 100
3, 154752, Note_on_c, 1, 62, 87
3, 154752, Note_on_c, 1, 54, 87
3, 155132, Note_off_c, 1, 62, 100
3, 155132, Note_off_c, 1, 54, 100
3, 155136, Note_on_c, 1, 62, 89
3, 155136, Note_on_c, 1, 55, 89
3, 155516, Note_off_c, 1, 62, 100
3, 155516, Note_off_c, 1, 55, 100
3, 156288, Note_on_c, 1, 63, 95
3, 156288, Note_on_c, 1, 58, 95
3, 156288, Note_on_c, 1, 55, 95
3, 156668, Note_off_c, 1, 63, 100
3, 156668, Note_off_c, 1, 58, 100
3, 156668, Note_off_c, 1, 55, 100
3, 157056, Note_on_c, 1, 64, 98
3, 157056, Note_on_c, 1, 61, 98
3, 157056, Note_on_c, 1, 58, 98
3, 157056, Note_on_c, 1, 55, 98
3, 157436, Note_off_c, 1, 64, 100
3, 157436, Note_off_c, 1, 61, 100
3, 157436, Note_off_c, 1, 58, 100
3, 157436, Note_off_c, 1, 55, 100
3, 157824, Note_on_c, 1, 64, 102
3, 157824, Note_on_c, 1, 61, 102
3, 157824, Note_on_c, 1, 58, 102
3, 157824, Note_on_c, 1, 55, 102
3, 158204, Note_off_c, 1, 64, 100
3, 158204, Note_off_c, 1, 61, 100
3, 158204, Note_off_c, 1, 58, 100
3, 158204, Note_off_c, 1, 55, 100
3, 158592, Note_on_c, 1, 65, 106
3, 158592, Note_on_c, 1, 62, 106
3, 158592, Note_on_c, 1, 59, 106
3, 158592, Note_on_c, 1, 56, 106
3, 158972, Note_off_c, 1, 65, 100
3, 158972, Note_off_c, 1, 62, 100
3, 158972, Note_off_c, 1, 59, 100
3, 158972, Note_off_c, 1, 56, 100
3, 159360, Note_on_c, 1, 65, 110
3, 159360, Note_on_c, 1, 62, 110
3, 159360, Note_on_c, 1, 59, 110
3, 159360, Note_on_c, 1, 56, 110
3, 159740, Note_off_c, 1, 65, 100
3, 159740, Note_off_c, 1, 62, 100
3, 159740, Note_off_c, 1, 59, 100
3, 159740, Note_off_c, 1, 56, 100
3, 159744, Note_on_c, 1, 65, 110
3, 159744, Note_on_c, 1, 62, 110
3, 159744, Note_on_c, 1, 57, 110
3, 160124, Note_off_c, 1, 65, 100
3, 160124, Note_off_c, 1, 62, 100
3, 160124, Note_off_c, 1, 57, 100
3, 165504, Note_on_c, 1, 46, 110
3, 165692, Note_off_c, 1, 46, 100
3, 165696, Note_on_c, 1, 45, 110
3, 165884, Note_off_c, 1, 45, 100
3, 165888, Note_on_c, 1, 45, 110
3, 166076, Note_off_c, 1, 45, 100
3, 166080, Note_on_c, 1, 49, 110
3, 166268, Note_off_c, 1, 49, 100
3, 166272, Note_on_c, 1, 49, 110
3, 166460, Note_off_c, 1, 49, 100
3, 166464, Note_on_c, 1, 50, 110
3, 166652, Note_off_c, 1, 50, 100
3, 166656, Note_on_c, 1, 50, 110
3, 166844, Note_off_c, 1, 50, 100
3, 166848, Note_on_c, 1, 46, 110
3, 167036, Note_off_c, 1, 46, 100
3, 167040, Note_on_c, 1, 46, 110
3, 167228, Note_off_c, 1, 46, 100
3, 167232, Note_on_c, 1, 45, 110
3, 167420, Note_off_c, 1, 45, 100
3, 167424, Note_on_c, 1, 45, 110
3, 167612, Note_off_c, 1, 45, 100
3, 167616, Note_on_c, 1, 49, 110
3, 167804, Note_off_c, 1, 49, 100
3, 167808, Note_on_c, 1, 49, 110
3, 167996, Note_off_c, 1, 49, 100
3, 168000, Note_on_c, 1, 50, 110
3, 168188, Note_off_c, 1, 50, 100
3, 168192, Note_on_c, 1, 50, 110
3, 168380, Note_off_c, 1, 50, 100
3, 168384, Note_on_c, 1, 46, 110
3, 168572, Note_off_c, 1, 46, 100
3, 168576, Note_on_c, 1, 46, 110
3, 168764, Note_off_c, 1, 46, 100
3, 168768, Note_on_c, 1, 45, 110
3, 168956, Note_off_c, 1, 45, 100
3, 168960, Note_on_c, 1, 46, 110
3, 169344, Note_on_c, 1, 53, 110
3, 169344, Note_on_c, 1, 50, 110
3, 170492, Note_off_c, 1, 46, 100
3, 170492, Note_off_c, 1, 53, 100
3, 170492, Note_off_c, 1, 50, 100
3, 170496, Note_on_c, 1, 53, 110
3, 170496, Note_on_c, 1, 50, 110
3, 170496, Note_on_c, 1, 45, 110
3, 170876, Note_off_c, 1, 53, 100
3, 170876, Note_off_c, 1, 50, 100
3, 170876, Note_off_c, 1, 45, 100
3, 170880, Note_on_c, 1, 53, 110
3, 170880, Note_on_c, 1, 50, 110
3, 170880, Note_on_c, 1, 45, 110
3, 171260, Note_off_c, 1, 53, 100
3, 171260, Note_off_c, 1, 50, 100
3, 171260, Note_off_c, 1, 45, 100
3, 171264, Note_on_c, 1, 55, 110
3, 171264, Note_on_c, 1, 52, 110
3, 171264, Note_on_c, 1, 45, 110
3, 171644, Note_off_c, 1, 55, 100
3, 171644, Note_off_c, 1, 52, 100
3, 171644, Note_off_c, 1, 45, 100
3, 171648, Note_on_c, 1, 55, 110
3, 171648, Note_on_c, 1, 52, 110
3, 171648, Note_on_c, 1, 45, 110
3, 172028, Note_off_c, 1, 55, 100
3, 172028, Note_off_c, 1, 52, 100
3, 172028, Note_off_c, 1, 45, 100
3, 172032, Control_c, 1, 64, 127
3, 172032, Note_on_c, 1, 38, 110
3, 172796, Note_off_c, 1, 38, 100
3, 172800, Note_on_c, 1, 41, 110
3, 173180, Note_off_c, 1, 41, 100
3, 173184, Note_on_c, 1, 45, 110
3, 173560, Control_c, 1, 64, 0
3, 173564, Note_off_c, 1, 45, 100
3, 173568, Note_on_c, 1, 50, 110
3, 178172, Note_off_c, 1, 50, 64
3, 178176, Control_c, 1, 64, 127
3, 178176, Note_on_c, 1, 40, 110
3, 178940, Note_off_c, 1, 40, 100
3, 178944, Note_on_c, 1, 43, 110
3, 179324, Note_off_c, 1, 43, 100
3, 179328, Note_on_c, 1, 49, 110
3, 179704, Control_c, 1, 64, 0
3, 179708, Note_off_c, 1, 49, 100
3, 179712, Note_on_c, 1, 52, 107
3, 184316, Note_off_c, 1, 52, 64
3, 184320, Control_c, 1, 64, 127
3, 184320, Note_on_c, 1, 41, 110
3, 185084, Note_off_c, 1, 41, 100
3, 185088, Note_on_c, 1, 45, 110
3, 185468, Note_off_c, 1, 45, 100
3, 185472, Note_on_c, 1, 50, 110
3, 185848, Control_c, 1, 64, 0
3, 185852, Note_off_c, 1, 50, 100
3, 185856, Note_on_c, 1, 53, 110
3, 187388, Note_off_c, 1, 53, 100
3, 187392, Control_c, 1, 64, 127
3, 187392, Note_on_c, 1, 44, 110
3, 188156, Note_off_c, 1, 44, 100
3, 188160, Note_on_c, 1, 47, 110
3, 188540, Note_off_c, 1, 47, 100
3, 188544, Note_on_c, 1, 52, 110
3, 188920, Control_c, 1, 64, 0
3, 188924, Note_off_c, 1, 52, 100
3, 188928, Note_on_c, 1, 56, 110
3, 190460, Note_off_c, 1, 56, 100
3, 190464, Control_c, 1, 64, 127
3, 190464, Note_on_c, 1, 45, 110
3, 191228, Note_off_c, 1, 45, 100
3, 191232, Note_on_c, 1, 48, 110
3, 191612, Note_off_c, 1, 48, 100
3, 191616, Note_on_c, 1, 53, 110
3, 191992, Control_c, 1, 64, 0
3, 191996, Note_off_c, 1, 53, 100
3, 192000, Note_on_c, 1, 57, 110
3, 193532, Note_off_c, 1, 57, 100
3, 193536, Control_c, 1, 64, 127
3, 193536, Note_on_c, 1, 47, 110
3, 194300, Note_off_c, 1, 47, 100
3, 194304, Note_on_c, 1, 50, 110
3, 194684, Note_off_c, 1, 50, 100
3, 194688, Note_on_c, 1, 56, 110
3, 195064, Control_c, 1, 64, 0
3, 195068, Note_off_c, 1, 56, 100
3, 195072, Note_on_c, 1, 59, 110
3, 196604, Note_off_c, 1, 59, 100
3, 196608, Control_c, 1, 64, 127
3, 196608, Note_on_c, 1, 48, 110
3, 197372, Note_off_c, 1, 48, 100
3, 197376, Note_on_c, 1, 57, 110
3, 197756, Note_off_c, 1, 57, 100
3, 197760, Note_on_c, 1, 60, 110
3, 198136, Control_c, 1, 64, 0
3, 198140, Note_off_c, 1, 60, 100
3, 198144, Note_on_c, 1, 66, 110
3, 198144, Note_on_c, 1, 63, 110
3, 199676, Note_off_c, 1, 66, 100
3, 199676, Note_off_c, 1, 63, 100
3, 199680, Note_on_c, 1, 66, 110
3, 199680, Note_on_c, 1, 63, 110
3, 201212, Note_off_c, 1, 66, 100
3, 201212, Note_off_c, 1, 63, 100
3, 201216, Note_on_c, 1, 66, 110
3, 201216, Note_on_c, 1, 63, 110
3, 202748, Note_off_c, 1, 66, 100
3, 202748, Note_off_c, 1, 63, 100
3, 202752, Note_on_c, 1, 52, 110
3, 202940, Note_off_c, 1, 52, 100
3, 202944, Note_on_c, 1, 64, 80
3, 203132, Note_off_c, 1, 64, 100
3, 203136, Note_on_c, 1, 62, 80
3, 203136, Note_on_c, 1, 59, 80
3, 203324, Note_off_c, 1, 62, 100
3, 203324, Note_off_c, 1, 59, 100
3, 203328, Note_on_c, 1, 64, 80
3, 203516, Note_off_c, 1, 64, 100
3, 203520, Note_on_c, 1, 65, 80
3, 203708, Note_off_c, 1, 65, 100
3, 203712, Note_on_c, 1, 64, 80
3, 203900, Note_off_c, 1, 64, 100
3, 203904, Note_on_c, 1, 62, 80
3, 203904, Note_on_c, 1, 59, 80
3, 204092, Note_off_c, 1, 62, 100
3, 204092, Note_off_c, 1, 59, 100
3, 204096, Note_on_c, 1, 64, 80
3, 204284, Note_off_c, 1, 64, 100
3, 204288, Note_on_c, 1, 52, 80
3, 204476, Note_off_c, 1, 52, 100
3, 204480, Note_on_c, 1, 64, 80
3, 204668, Note_off_c, 1, 64, 100
3, 204672, Note_on_c, 1, 62, 80
3, 204672, Note_on_c, 1, 59, 80
3, 204860, Note_off_c, 1, 62, 100
3, 204860, Note_off_c, 1, 59, 100
3, 204864, Note_on_c, 1, 64, 80
3, 205052, Note_off_c, 1, 64, 100
3, 205056, Note_on_c, 1, 65, 80
3, 205244, Note_off_c, 1, 65, 100
3, 205248, Note_on_c, 1, 64, 80
3, 205436, Note_off_c, 1, 64, 100
3, 205440, Note_on_c, 1, 62, 80
3, 205440, Note_on_c, 1, 59, 80
3, 205628, Note_off_c, 1, 62, 100
3, 205628, Note_off_c, 1, 59, 100
3, 205632, Note_on_c, 1, 64, 80
3, 205820, Note_off_c, 1, 64, 100
3, 205824, Note_on_c, 1, 52, 80
3, 206012, Note_off_c, 1, 52, 100
3, 206016, Note_on_c, 1, 64, 80
3, 206204, Note_off_c, 1, 64, 100
3, 206208, Note_on_c, 1, 62, 80
3, 206208, Note_on_c, 1, 59, 80
3, 206396, Note_off_c, 1, 62, 100
3, 206396, Note_off_c, 1, 59, 100
3, 206400, Note_on_c, 1, 64, 80
3, 206588, Note_off_c, 1, 64, 100
3, 206592, Note_on_c, 1, 65, 80
3, 206780, Note_off_c, 1, 65, 100
3, 206784, Note_on_c, 1, 64, 80
3, 206972, Note_off_c, 1, 64, 100
3, 206976, Note_on_c, 1, 62, 80
3, 206976, Note_on_c, 1, 59, 80
3, 207164, Note_off_c, 1, 62, 100
3, 207164, Note_off_c, 1, 59, 100
3, 207168, Note_on_c, 1, 64, 80
3, 207356, Note_off_c, 1, 64, 100
3, 207360, Note_on_c, 1, 52, 80
3, 207548, Note_off_c, 1, 52, 100
3, 207552, Note_on_c, 1, 64, 80
3, 207740, Note_off_c, 1, 64, 100
3, 207744, Note_on_c, 1, 62, 80
3, 207744, Note_on_c, 1, 59, 80
3, 207932, Note_off_c, 1, 62, 100
3, 207932, Note_off_c, 1, 59, 100
3, 207936, Note_on_c, 1, 64, 80
3, 208124, Note_off_c, 1, 64, 100
3, 208128, Note_on_c, 1, 52, 80
3, 208316, Note_off_c, 1, 52, 100
3, 208320, Note_on_c, 1, 64, 80
3, 208508, Note_off_c, 1, 64, 100
3, 208512, Note_on_c, 1, 59, 80
3, 208512, Note_on_c, 1, 56, 80
3, 208700, Note_off_c, 1, 59, 100
3, 208700, Note_off_c, 1, 56, 100
3, 208704, Note_on_c, 1, 64, 80
3, 208892, Note_off_c, 1, 64, 100
3, 208896, Note_on_c, 1, 52, 80
3, 209084, Note_off_c, 1, 52, 100
3, 209088, Note_on_c, 1, 64, 80
3, 209276, Note_off_c, 1, 64, 100
3, 209280, Note_on_c, 1, 60, 80
3, 209280, Note_on_c, 1, 57, 80
3, 209468, Note_off_c, 1, 60, 100
3, 209468, Note_off_c, 1, 57, 100
3, 209472, Note_on_c, 1, 64, 80
3, 209660, Note_off_c, 1, 64, 100
3, 209664, Note_on_c, 1, 65, 80
3, 209852, Note_off_c, 1, 65, 100
3, 209856, Note_on_c, 1, 64, 80
3, 210044, Note_off_c, 1, 64, 100
3, 210048, Note_on_c, 1, 60, 80
3, 210048, Note_on_c, 1, 57, 80
3, 210236, Note_off_c, 1, 60, 100
3, 210236, Note_off_c, 1, 57, 100
3, 210240, Note_on_c, 1, 64, 80
3, 210428, Note_off_c, 1, 64, 100
3, 210432, Note_on_c, 1, 52, 80
3, 210620, Note_off_c, 1, 52, 100
3, 210624, Note_on_c, 1, 64, 80
3, 210812, Note_off_c, 1, 64, 100
3, 210816, Note_on_c, 1, 60, 80
3, 210816, Note_on_c, 1, 57, 80
3, 211004, Note_off_c, 1, 60, 100
3, 211004, Note_off_c, 1, 57, 100
3, 211008, Note_on_c, 1, 64, 80
3, 211196, Note_off_c, 1, 64, 100
3, 211200, Note_on_c, 1, 65, 80
3, 211388, Note_off_c, 1, 65, 100
3, 211392, Note_on_c, 1, 64, 80
3, 211580, Note_off_c, 1, 64, 100
3, 211584, Note_on_c, 1, 60, 80
3, 211584, Note_on_c, 1, 57, 80
3, 211772, Note_off_c, 1, 60, 100
3, 211772, Note_off_c, 1, 57, 100
3, 211776, Note_on_c, 1, 64, 80
3, 211964, Note_off_c, 1, 64, 100
3, 211968, Note_on_c, 1, 52, 80
3, 212156, Note_off_c, 1, 52, 100
3, 212160, Note_on_c, 1, 64, 80
3, 212348, Note_off_c, 1, 64, 100
3, 212352, Note_on_c, 1, 60, 80
3, 212352, Note_on_c, 1, 57, 80
3, 212540, Note_off_c, 1, 60, 100
3, 212540, Note_off_c, 1, 57, 100
3, 212544, Note_on_c, 1, 64, 80
3, 212732, Note_off_c, 1, 64, 100
3, 212736, Note_on_c, 1, 65, 80
3, 212924, Note_off_c, 1, 65, 100
3, 212928, Note_on_c, 1, 64, 80
3, 213116, Note_off_c, 1, 64, 100
3, 213120, Note_on_c, 1, 60, 80
3, 213120, Note_on_c, 1, 57, 80
3, 213308, Note_off_c, 1, 60, 100
3, 213308, Note_off_c, 1, 57, 100
3, 213312, Note_on_c, 1, 64, 80
3, 213500, Note_off_c, 1, 64, 100
3, 213504, Note_on_c, 1, 52, 80
3, 213692, Note_off_c, 1, 52, 100
3, 213696, Note_on_c, 1, 64, 80
3, 213884, Note_off_c, 1, 64, 100
3, 213888, Note_on_c, 1, 60, 80
3, 213888, Note_on_c, 1, 57, 80
3, 214076, Note_off_c, 1, 60, 100
3, 214076, Note_off_c, 1, 57, 100
3, 214080, Note_on_c, 1, 64, 80
3, 214268, Note_off_c, 1, 64, 100
3, 214272, Note_on_c, 1, 52, 80
3, 214460, Note_off_c, 1, 52, 100
3, 214464, Note_on_c, 1, 64, 80
3, 214652, Note_off_c, 1, 64, 100
3, 214656, Note_on_c, 1, 60, 80
3, 214656, Note_on_c, 1, 57, 80
3, 214844, Note_off_c, 1, 60, 100
3, 214844, Note_off_c, 1, 57, 100
3, 214848, Note_on_c, 1, 64, 80
3, 215036, Note_off_c, 1, 64, 100
3, 215040, Note_on_c, 1, 52, 80
3, 215228, Note_off_c, 1, 52, 100
3, 215232, Note_on_c, 1, 64, 80
3, 215420, Note_off_c, 1, 64, 100
3, 215424, Note_on_c, 1, 62, 80
3, 215424, Note_on_c, 1, 59, 80
3, 215612, Note_off_c, 1, 62, 100
3, 215612, Note_off_c, 1, 59, 100
3, 215616, Note_on_c, 1, 64, 80
3, 215804, Note_off_c, 1, 64, 100
3, 215808, Note_on_c, 1, 65, 80
3, 215996, Note_off_c, 1, 65, 100
3, 216000, Note_on_c, 1, 64, 80
3, 216188, Note_off_c, 1, 64, 100
3, 216192, Note_on_c, 1, 62, 80
3, 216192, Note_on_c, 1, 59, 80
3, 216380, Note_off_c, 1, 62, 100
3, 216380, Note_off_c, 1, 59, 100
3, 216384, Note_on_c, 1, 64, 81
3, 216572, Note_off_c, 1, 64, 100
3, 216576, Note_on_c, 1, 52, 83
3, 216764, Note_off_c, 1, 52, 100
3, 216768, Note_on_c, 1, 64, 85
3, 216956, Note_off_c, 1, 64, 100
3, 216960, Note_on_c, 1, 62, 87
3, 216960, Note_on_c, 1, 59, 87
3, 217148, Note_off_c, 1, 62, 100
3, 217148, Note_off_c, 1, 59, 100
3, 217152, Note_on_c, 1, 64, 88
3, 217340, Note_off_c, 1, 64, 100
3, 217344, Note_on_c, 1, 65, 90
3, 217532, Note_off_c, 1, 65, 100
3, 217536, Note_on_c, 1, 64, 92
3, 217724, Note_off_c, 1, 64, 100
3, 217728, Note_on_c, 1, 62, 94
3, 217728, Note_on_c, 1, 59, 94
3, 217916, Note_off_c, 1, 62, 100
3, 217916, Note_off_c, 1, 59, 100
3, 217920, Note_on_c, 1, 64, 95
3, 218108, Note_off_c, 1, 64, 100
3, 218112, Note_on_c, 1, 52, 97
3, 218300, Note_off_c, 1, 52, 100
3, 218304, Note_on_c, 1, 64, 99
3, 218492, Note_off_c, 1, 64, 100
3, 218496, Note_on_c, 1, 62, 101
3, 218496, Note_on_c, 1, 59, 101
3, 218684, Note_off_c, 1, 62, 100
3, 218684, Note_off_c, 1, 59, 100
3, 218688, Note_on_c, 1, 64, 102
3, 218876, Note_off_c, 1, 64, 100
3, 218880, Note_on_c, 1, 65, 104
3, 219068, Note_off_c, 1, 65, 100
3, 219072, Note_on_c, 1, 64, 106
3, 219260, Note_off_c, 1, 64, 100
3, 219264, Note_on_c, 1, 62, 108
3, 219264, Note_on_c, 1, 59, 108
3, 219452, Note_off_c, 1, 62, 100
3, 219452, Note_off_c, 1, 59, 100
3, 219456, Note_on_c, 1, 64, 109
3, 219644, Note_off_c, 1, 64, 100
3, 219648, Note_on_c, 1, 62, 110
3, 219648, Note_on_c, 1, 59, 110
3, 219648, Note_on_c, 1, 52, 110
3, 220028, Note_off_c, 1, 62, 100
3, 220028, Note_off_c, 1, 59, 100
3, 220028, Note_off_c, 1, 52, 100
3, 223104, Note_on_c, 1, 44, 110
3, 223292, Note_off_c, 1, 44, 100
3, 223296, Note_on_c, 1, 47, 110
3, 223484, Note_off_c, 1, 47, 100
3, 223488, Note_on_c, 1, 38, 110
3, 223676, Note_off_c, 1, 38, 100
3, 223680, Note_on_c, 1, 47, 110
3, 223868, Note_off_c, 1, 47, 100
3, 223872, Note_on_c, 1, 44, 110
3, 224060, Note_off_c, 1, 44, 100
3, 224064, Note_on_c, 1, 38, 110
3, 224252, Note_off_c, 1, 38, 100
3, 224256, Note_on_c, 1, 36, 110
3, 224636, Note_off_c, 1, 36, 100
3, 224640, Note_on_c, 1, 45, 110
3, 224640, Note_on_c, 1, 40, 110
3, 224640, Note_on_c, 1, 36, 110
3, 225020, Note_off_c, 1, 45, 100
3, 225020, Note_off_c, 1, 40, 100
3, 225020, Note_off_c, 1, 36, 100
3, 225024, Note_on_c, 1, 41, 110
3, 225024, Note_on_c, 1, 38, 110
3, 225024, Note_on_c, 1, 46, 110
3, 226556, Note_off_c, 1, 46, 64
3, 226560, Note_on_c, 1, 45, 110
3, 226940, Note_off_c, 1, 45, 100
3, 226944, Note_on_c, 1, 44, 110
3, 227324, Note_off_c, 1, 38, 64
3, 227324, Note_off_c, 1, 41, 64
3, 227324, Note_off_c, 1, 44, 100
3, 227328, Note_on_c, 1, 45, 110
3, 227328, Note_on_c, 1, 40, 110
3, 227328, Note_on_c, 1, 36, 110
3, 227708, Note_off_c, 1, 45, 100
3, 227708, Note_off_c, 1, 40, 100
3, 227708, Note_off_c, 1, 36, 100
3, 227712, Note_on_c, 1, 57, 110
3, 227712, Note_on_c, 1, 52, 110
3, 227712, Note_on_c, 1, 48, 110
3, 228092, Note_off_c, 1, 57, 100
3, 228092, Note_off_c, 1, 52, 100
3, 228092, Note_off_c, 1, 48, 100
3, 228096, Note_on_c, 1, 53, 110
3, 228096, Note_on_c, 1, 50, 110
3, 228096, Note_on_c, 1, 58, 110
3, 229628, Note_off_c, 1, 58, 64
3, 229632, Note_on_c, 1, 57, 110
3, 230012, Note_off_c, 1, 57, 100
3, 230016, Note_on_c, 1, 56, 110
3, 230396, Note_off_c, 1, 50, 64
3, 230396, Note_off_c, 1, 53, 64
3, 230396, Note_off_c, 1, 56, 100
3, 230400, Note_on_c, 1, 57, 110
3, 230400, Note_on_c, 1, 52, 110
3, 230400, Note_on_c, 1, 48, 110
3, 230780, Note_off_c, 1, 57, 100
3, 230780, Note_off_c, 1, 52, 100
3, 230780, Note_off_c, 1, 48, 100
3, 230784, Note_on_c, 1, 60, 110
3, 230784, Note_on_c, 1, 64, 110
3, 231164, Note_off_c, 1, 60, 100
3, 231164, Note_off_c, 1, 64, 100
3, 231168, Note_on_c, 1, 65, 110
3, 231168, Note_on_c, 1, 62, 110
3, 232316, Note_off_c, 1, 62, 64
3, 232316, Note_off_c, 1, 65, 64
3, 232320, Note_on_c, 1, 66, 110
3, 232320, Note_on_c, 1, 63, 110
3, 232700, Note_off_c, 1, 66, 100
3, 232700, Note_off_c, 1, 63, 100
3, 232704, Note_on_c, 1, 69, 110
3, 232704, Note_on_c, 1, 64, 110
3, 233852, Note_off_c, 1, 64, 64
3, 233852, Note_off_c, 1, 69, 64
3, 233856, Note_on_c, 1, 64, 110
3, 233856, Note_on_c, 1, 69, 110
3, 234236, Note_off_c, 1, 64, 100
3, 234240, Note_on_c, 1, 65, 101
3, 234620, Note_off_c, 1, 65, 100
3, 234624, Note_on_c, 1, 61, 91
3, 235004, Note_off_c, 1, 61, 100
3, 235008, Note_on_c, 1, 62, 81
3, 235388, Note_off_c, 1, 69, 64
3, 235388, Note_off_c, 1, 62, 100
3, 235392, Note_on_c, 1, 62, 80
3, 235392, Note_on_c, 1, 58, 80
3, 235392, Note_on_c, 1, 50, 80
3, 235772, Note_off_c, 1, 62, 100
3, 235772, Note_off_c, 1, 58, 100
3, 235772, Note_off_c, 1, 50, 100
3, 235776, Note_on_c, 1, 60, 80
3, 235776, Note_on_c, 1, 57, 80
3, 235776, Note_on_c, 1, 52, 80
3, 236156, Note_off_c, 1, 60, 100
3, 236156, Note_off_c, 1, 57, 100
3, 236160, Note_on_c, 1, 59, 80
3, 236160, Note_on_c, 1, 56, 80
3, 236540, Note_off_c, 1, 52, 100
3, 236540, Note_off_c, 1, 59, 100
3, 236540, Note_off_c, 1, 56, 100
3, 236544, Note_on_c, 1, 57, 110
3, 236544, Note_on_c, 1, 45, 110
3, 236924, Note_off_c, 1, 57, 100
3, 236924, Note_off_c, 1, 45, 100
3, 236928, Note_on_c, 1, 33, 110
3, 237308, Note_off_c, 1, 33, 100
3, 237312, Note_on_c, 1, 34, 110
3, 238844, Note_off_c, 1, 34, 64
3, 238848, Note_on_c, 1, 33, 110
3, 239228, Note_off_c, 1, 33, 100
3, 239232, Note_on_c, 1, 32, 110
3, 239612, Note_off_c, 1, 32, 100
3, 239616, Note_on_c, 1, 33, 110
3, 239996, Note_off_c, 1, 33, 100
3, 240000, Note_on_c, 1, 33, 110
3, 240380, Note_off_c, 1, 33, 100
3, 240384, Note_on_c, 1, 34, 110
3, 241916, Note_off_c, 1, 34, 64
3, 241920, Note_on_c, 1, 33, 110
3, 242300, Note_off_c, 1, 33, 100
3, 242304, Note_on_c, 1, 32, 110
3, 242684, Note_off_c, 1, 32, 100
3, 242688, Note_on_c, 1, 33, 110
3, 243068, Note_off_c, 1, 33, 100
3, 243072, Note_on_c, 1, 33, 110
3, 243452, Note_off_c, 1, 33, 100
3, 243456, Note_on_c, 1, 34, 110
3, 244988, Note_off_c, 1, 34, 64
3, 244992, Note_on_c, 1, 33, 110
3, 245372, Note_off_c, 1, 33, 100
3, 245376, Note_on_c, 1, 32, 110
3, 245756, Note_off_c, 1, 32, 100
3, 245760, Note_on_c, 1, 31, 80
3, 245948, Note_off_c, 1, 31, 100
3, 245952, Note_on_c, 1, 30, 80
3, 246140, Note_off_c, 1, 30, 100
3, 246144, Note_on_c, 1, 31, 80
3, 246332, Note_off_c, 1, 31, 100
3, 246336, Note_on_c, 1, 33, 80
3, 246524, Note_off_c, 1, 33, 100
3, 246528, Note_on_c, 1, 35, 80
3, 246716, Note_off_c, 1, 35, 100
3, 246720, Note_on_c, 1, 31, 80
3, 246908, Note_off_c, 1, 31, 100
3, 246912, Note_on_c, 1, 33, 80
3, 247100, Note_off_c, 1, 33, 100
3, 247104, Note_on_c, 1, 35, 80
3, 247292, Note_off_c, 1, 35, 100
3, 247296, Note_on_c, 1, 36, 80
3, 247484, Note_off_c, 1, 36, 100
3, 247488, Note_on_c, 1, 35, 80
3, 247676, Note_off_c, 1, 35, 100
3, 247680, Note_on_c, 1, 36, 80
3, 247868, Note_off_c, 1, 36, 100
3, 247872, Note_on_c, 1, 38, 80
3, 248060, Note_off_c, 1, 38, 100
3, 248064, Note_on_c, 1, 40, 80
3, 248252, Note_off_c, 1, 40, 100
3, 248256, Note_on_c, 1, 39, 80
3, 248444, Note_off_c, 1, 39, 100
3, 248448, Note_on_c, 1, 40, 80
3, 248636, Note_off_c, 1, 40, 100
3, 248640, Note_on_c, 1, 39, 80
3, 248828, Note_off_c, 1, 39, 100
3, 248832, Note_on_c, 1, 40, 80
3, 249020, Note_off_c, 1, 40, 100
3, 249024, Note_on_c, 1, 39, 80
3, 249212, Note_off_c, 1, 39, 100
3, 249216, Note_on_c, 1, 40, 80
3, 249404, Note_off_c, 1, 40, 100
3, 249408, Note_on_c, 1, 42, 80
3, 249596, Note_off_c, 1, 42, 100
3, 249600, Note_on_c, 1, 44, 80
3, 249788, Note_off_c, 1, 44, 100
3, 249792, Note_on_c, 1, 40, 80
3, 249980, Note_off_c, 1, 40, 100
3, 249984, Note_on_c, 1, 42, 80
3, 250172, Note_off_c, 1, 42, 100
3, 250176, Note_on_c, 1, 44, 80
3, 250364, Note_off_c, 1, 44, 100
3, 250368, Note_on_c, 1, 45, 80
3, 250556, Note_off_c, 1, 45, 100
3, 250560, Note_on_c, 1, 44, 80
3, 250748, Note_off_c, 1, 44, 100
3, 250752, Note_on_c, 1, 45, 80
3, 250940, Note_off_c, 1, 45, 100
3, 250944, Note_on_c, 1, 47, 80
3, 251132, Note_off_c, 1, 47, 100
3, 251136, Note_on_c, 1, 48, 80
3, 251324, Note_off_c, 1, 48, 100
3, 251328, Note_on_c, 1, 45, 81
3, 251516, Note_off_c, 1, 45, 100
3, 251520, Note_on_c, 1, 47, 82
3, 251708, Note_off_c, 1, 47, 100
3, 251712, Note_on_c, 1, 48, 83
3, 251900, Note_off_c, 1, 48, 100
3, 251904, Note_on_c, 1, 50, 84
3, 252092, Note_off_c, 1, 50, 100
3, 252096, Note_on_c, 1, 49, 85
3, 252284, Note_off_c, 1, 49, 100
3, 252288, Note_on_c, 1, 50, 86
3, 252476, Note_off_c, 1, 50, 100
3, 252480, Note_on_c, 1, 52, 87
3, 252668, Note_off_c, 1, 52, 100
3, 252672, Note_on_c, 1, 53, 88
3, 252860, Note_off_c, 1, 53, 100
3, 252864, Note_on_c, 1, 50, 89
3, 253052, Note_off_c, 1, 50, 100
3, 253056, Note_on_c, 1, 52, 90
3, 253244, Note_off_c, 1, 52, 100
3, 253248, Note_on_c, 1, 53, 91
3, 253436, Note_off_c, 1, 53, 100
3, 253440, Note_on_c, 1, 52, 92
3, 253628, Note_off_c, 1, 52, 100
3, 253632, Note_on_c, 1, 63, 93
3, 253820, Note_off_c, 1, 63, 100
3, 253824, Note_on_c, 1, 64, 94
3, 254012, Note_off_c, 1, 64, 100
3, 254016, Note_on_c, 1, 63, 95
3, 254204, Note_off_c, 1, 63, 100
3, 254208, Note_on_c, 1, 64, 96
3, 254396, Note_off_c, 1, 64, 100
3, 254400, Note_on_c, 1, 63, 97
3, 254588, Note_off_c, 1, 63, 100
3, 254592, Note_on_c, 1, 64, 98
3, 254780, Note_off_c, 1, 64, 100
3, 254784, Note_on_c, 1, 52, 99
3, 254972, Note_off_c, 1, 52, 100
3, 254976, Note_on_c, 1, 52, 80
3, 254976, Note_on_c, 1, 64, 80
3, 254976, Note_on_c, 1, 60, 80
3, 255740, Note_off_c, 1, 64, 100
3, 255740, Note_off_c, 1, 60, 100
3, 255744, Note_on_c, 1, 62, 80
3, 255744, Note_on_c, 1, 59, 80
3, 256508, Note_off_c, 1, 62, 100
3, 256508, Note_off_c, 1, 59, 100
3, 256512, Note_on_c, 1, 60, 80
3, 256512, Note_on_c, 1, 57, 80
3, 257276, Note_off_c, 1, 60, 100
3, 257276, Note_off_c, 1, 57, 100
3, 257280, Note_on_c, 1, 59, 80
3, 257280, Note_on_c, 1, 56, 80
3, 258044, Note_off_c, 1, 52, 64
3, 258044, Note_off_c, 1, 59, 100
3, 258044, Note_off_c, 1, 56, 100
3, 258048, Note_on_c, 1, 57, 80
3, 258236, Note_off_c, 1, 57, 100
3, 258240, Note_on_c, 1, 52, 80
3, 258428, Note_off_c, 1, 52, 100
3, 258432, Note_on_c, 1, 48, 80
3, 258620, Note_off_c, 1, 48, 100
3, 258624, Note_on_c, 1, 60, 80
3, 258812, Note_off_c, 1, 60, 100
3, 258816, Note_on_c, 1, 59, 80
3, 259004, Note_off_c, 1, 59, 100
3, 259008, Note_on_c, 1, 56, 80
3, 259196, Note_off_c, 1, 56, 100
3, 259200, Note_on_c, 1, 52, 80
3, 259388, Note_off_c, 1, 52, 100
3, 259392, Note_on_c, 1, 62, 80
3, 259580, Note_off_c, 1, 62, 100
3, 259584, Note_on_c, 1, 60, 80
3, 259772, Note_off_c, 1, 60, 100
3, 259776, Note_on_c, 1, 57, 80
3, 259964, Note_off_c, 1, 57, 100
3, 259968, Note_on_c, 1, 52, 80
3, 260156, Note_off_c, 1, 52, 100
3, 260160, Note_on_c, 1, 64, 80
3, 260348, Note_off_c, 1, 64, 100
3, 260352, Note_on_c, 1, 63, 80
3, 260540, Note_off_c, 1, 63, 100
3, 260544, Note_on_c, 1, 64, 80
3, 260732, Note_off_c, 1, 64, 100
3, 260736, Note_on_c, 1, 63, 80
3, 260924, Note_off_c, 1, 63, 100
3, 260928, Note_on_c, 1, 64, 80
3, 261116, Note_off_c, 1, 64, 100
3, 261120, Note_on_c, 1, 52, 80
3, 261504, Note_on_c, 1, 64, 80
3, 261504, Note_on_c, 1, 60, 80
3, 261884, Note_off_c, 1, 52, 100
3, 261888, Note_on_c, 1, 52, 80
3, 262268, Note_off_c, 1, 64, 100
3, 262268, Note_off_c, 1, 60, 100
3, 262272, Note_on_c, 1, 59, 80
3, 262272, Note_on_c, 1, 62, 80
3, 262652, Note_off_c, 1, 52, 100
3, 262656, Note_on_c, 1, 52, 80
3, 263036, Note_off_c, 1, 59, 64
3, 263036, Note_off_c, 1, 62, 64
3, 263040, Note_on_c, 1, 60, 80
3, 263040, Note_on_c, 1, 57, 80
3, 263420, Note_off_c, 1, 52, 100
3, 263424, Note_on_c, 1, 52, 80
3, 263804, Note_off_c, 1, 60, 100
3, 263804, Note_off_c, 1, 57, 100
3, 263808, Note_on_c, 1, 59, 80
3, 263808, Note_on_c, 1, 56, 80
3, 264188, Note_off_c, 1, 52, 100
3, 264188, Note_off_c, 1, 59, 100
3, 264188, Note_off_c, 1, 56, 100
3, 264192, Note_on_c, 1, 57, 80
3, 264380, Note_off_c, 1, 57, 100
3, 264384, Note_on_c, 1, 52, 80
3, 264572, Note_off_c, 1, 52, 100
3, 264576, Note_on_c, 1, 48, 80
3, 264764, Note_off_c, 1, 48, 100
3, 264768, Note_on_c, 1, 60, 80
3, 264956, Note_off_c, 1, 60, 100
3, 264960, Note_on_c, 1, 59, 80
3, 265148, Note_off_c, 1, 59, 100
3, 265152, Note_on_c, 1, 56, 80
3, 265340, Note_off_c, 1, 56, 100
3, 265344, Note_on_c, 1, 52, 80
3, 265532, Note_off_c, 1, 52, 100
3, 265536, Note_on_c, 1, 62, 80
3, 265724, Note_off_c, 1, 62, 100
3, 265728, Note_on_c, 1, 60, 80
3, 265916, Note_off_c, 1, 60, 100
3, 265920, Note_on_c, 1, 57, 80
3, 266108, Note_off_c, 1, 57, 100
3, 266112, Note_on_c, 1, 52, 80
3, 266300, Note_off_c, 1, 52, 100
3, 266304, Note_on_c, 1, 64, 80
3, 266492, Note_off_c, 1, 64, 100
3, 266496, Note_on_c, 1, 63, 80
3, 266684, Note_off_c, 1, 63, 100
3, 266688, Note_on_c, 1, 64, 80
3, 266876, Note_off_c, 1, 64, 100
3, 266880, Note_on_c, 1, 63, 80
3, 267068, Note_off_c, 1, 63, 100
3, 267072, Note_on_c, 1, 64, 80
3, 267260, Note_off_c, 1, 64, 100
3, 267264, Note_on_c, 1, 52, 80
3, 267648, Note_on_c, 1, 64, 80
3, 267648, Note_on_c, 1, 60, 80
3, 268028, Note_off_c, 1, 52, 100
3, 268032, Note_on_c, 1, 52, 80
3, 268412, Note_off_c, 1, 64, 100
3, 268412, Note_off_c, 1, 60, 100
3, 268416, Note_on_c, 1, 59, 80
3, 268416, Note_on_c, 1, 62, 80
3, 268796, Note_off_c, 1, 52, 100
3, 268800, Note_on_c, 1, 52, 80
3, 269180, Note_off_c, 1, 59, 64
3, 269180, Note_off_c, 1, 62, 64
3, 269184, Note_on_c, 1, 60, 80
3, 269184, Note_on_c, 1, 57, 80
3, 269564, Note_off_c, 1, 52, 100
3, 269568, Note_on_c, 1, 52, 80
3, 269948, Note_off_c, 1, 60, 100
3, 269948, Note_off_c, 1, 57, 100
3, 269952, Note_on_c, 1, 59, 80
3, 269952, Note_on_c, 1, 56, 80
3, 270332, Note_off_c, 1, 52, 100
3, 270332, Note_off_c, 1, 59, 100
3, 270332, Note_off_c, 1, 56, 100
3, 270336, Note_on_c, 1, 45, 80
3, 270720, Note_on_c, 1, 57, 80
3, 271100, Note_off_c, 1, 45, 100
3, 271100, Note_off_c, 1, 57, 100
3, 271104, Note_on_c, 1, 52, 80
3, 271488, Note_on_c, 1, 59, 80
3, 271488, Note_on_c, 1, 56, 80
3, 271868, Note_off_c, 1, 52, 100
3, 271868, Note_off_c, 1, 59, 100
3, 271868, Note_off_c, 1, 56, 100
3, 271872, Note_on_c, 1, 57, 80
3, 272256, Note_on_c, 1, 60, 80
3, 272636, Note_off_c, 1, 57, 100
3, 272636, Note_off_c, 1, 60, 100
3, 272640, Note_on_c, 1, 52, 80
3, 273024, Note_on_c, 1, 59, 80
3, 273024, Note_on_c, 1, 56, 80
3, 273404, Note_off_c, 1, 52, 100
3, 273404, Note_off_c, 1, 59, 100
3, 273404, Note_off_c, 1, 56, 100
3, 273408, Note_on_c, 1, 57, 80
3, 273408, Note_on_c, 1, 45, 80
3, 273788, Note_off_c, 1, 57, 100
3, 273788, Note_off_c, 1, 45, 100
3, 274176, Note_on_c, 1, 45, 80
3, 274176, Note_on_c, 1, 33, 80
3, 274940, Note_off_c, 1, 45, 100
3, 274940, Note_off_c, 1, 33, 100
3, 274944, Note_on_c, 1, 45, 80
3, 274944, Note_on_c, 1, 33, 80
3, 275708, Note_off_c, 1, 45, 100
3, 275708, Note_off_c, 1, 33, 100
3, 275712, Note_on_c, 1, 45, 80
3, 275712, Note_on_c, 1, 33, 80
3, 276476, Note_off_c, 1, 45, 100
3, 276476, Note_off_c, 1, 33, 100
3, 276480, Note_on_c, 1, 45, 80
3, 276480, Note_on_c, 1, 33, 80
3, 279548, Note_off_c, 1, 33, 100
3, 279548, Note_off_c, 1, 45, 100
3, 279552, Note_on_c, 1, 43, 80
3, 279552, Note_on_c, 1, 31, 80
3, 282620, Note_off_c, 1, 31, 100
3, 282620, Note_off_c, 1, 43, 100
3, 282624, Control_c, 1, 64, 127
3, 282624, Note_on_c, 1, 30, 70
3, 282648, Note_on_c, 1, 33, 70
3, 282672, Note_on_c, 1, 38, 70
3, 282696, Note_on_c, 1, 42, 70
3, 282720, Note_on_c, 1, 45, 70
3, 282744, Note_off_c, 1, 38, 100
3, 282744, Note_on_c, 1, 50, 70
3, 282764, Note_off_c, 1, 42, 100
3, 282768, Note_on_c, 1, 54, 70
3, 282784, Note_off_c, 1, 45, 100
3, 282792, Note_on_c, 1, 57, 70
3, 282816, Note_off_c, 1, 50, 100
3, 282836, Note_off_c, 1, 54, 100
3, 283772, Note_off_c, 1, 57, 100
3, 285304, Control_c, 1, 64, 0
3, 285308, Note_off_c, 1, 30, 100
3, 285308, Note_off_c, 1, 33, 100
3, 285696, Control_c, 1, 64, 127
3, 285696, Note_on_c, 1, 36, 70
3, 285720, Note_on_c, 1, 39, 70
3, 285744, Note_on_c, 1, 42, 70
3, 285768, Note_on_c, 1, 45, 70
3, 285792, Note_on_c, 1, 48, 70
3, 285796, Note_off_c, 1, 42, 100
3, 285816, Note_on_c, 1, 51, 70
3, 285828, Note_off_c, 1, 45, 100
3, 285840, Note_on_c, 1, 54, 70
3, 285856, Note_off_c, 1, 48, 100
3, 285864, Note_on_c, 1, 57, 70
3, 285876, Note_off_c, 1, 51, 100
3, 285888, Note_on_c, 1, 60, 70
3, 285900, Note_off_c, 1, 54, 100
3, 285912, Note_on_c, 1, 63, 70
3, 285928, Note_off_c, 1, 57, 100
3, 285952, Note_off_c, 1, 60, 100
3, 286348, Note_off_c, 1, 63, 100
3, 288376, Control_c, 1, 64, 0
3, 288380, Note_off_c, 1, 36, 100
3, 288380, Note_off_c, 1, 39, 100
3, 288768, Control_c, 1, 64, 127
3, 288768, Note_on_c, 1, 37, 70
3, 288792, Note_on_c, 1, 42, 70
3, 288816, Note_on_c, 1, 46, 70
3, 288840, Note_on_c, 1, 49, 70
3, 288864, Note_on_c, 1, 54, 70
3, 288868, Note_off_c, 1, 46, 100
3, 288888, Note_on_c, 1, 58, 70
3, 288892, Note_off_c, 1, 49, 100
3, 288912, Note_on_c, 1, 61, 70
3, 288924, Note_off_c, 1, 54, 100
3, 288936, Note_on_c, 1, 66, 70
3, 288948, Note_off_c, 1, 58, 100
3, 288968, Note_off_c, 1, 61, 100
3, 289340, Note_off_c, 1, 66, 100
3, 291832, Control_c, 1, 64, 0
3, 291836, Note_off_c, 1, 37, 100
3, 291836, Note_off_c, 1, 42, 100
3, 291840, Control_c, 1, 64, 127
3, 291840, Note_on_c, 1, 30, 120
3, 292604, Note_off_c, 1, 30, 100
3, 292608, Note_on_c, 1, 33, 120
3, 292988, Note_off_c, 1, 33, 100
3, 292992, Note_on_c, 1, 37, 120
3, 293368, Control_c, 1, 64, 0
3, 293372, Note_off_c, 1, 37, 100
3, 293376, Control_c, 1, 64, 127
3, 293376, Note_on_c, 1, 42, 120
3, 294140, Note_off_c, 1, 42, 100
3, 294528, Note_on_c, 1, 73, 110
3, 294904, Control_c, 1, 64, 0
3, 294908, Note_off_c, 1, 73, 100
3, 294912, Control_c, 1, 64, 127
3, 294912, Note_on_c, 1, 72, 110
3, 295292, Note_off_c, 1, 72, 100
3, 295296, Note_on_c, 1, 73, 110
3, 295676, Note_off_c, 1, 73, 100
3, 295680, Note_on_c, 1, 74, 110
3, 296060, Note_off_c, 1, 74, 100
3, 296064, Note_on_c, 1, 73, 110
3, 296440, Control_c, 1, 64, 0
3, 296444, Note_off_c, 1, 73, 100
3, 296448, Control_c, 1, 64, 127
3, 296448, Note_on_c, 1, 73, 110
3, 297212, Note_off_c, 1, 73, 100
3, 297216, Note_on_c, 1, 73, 110
3, 297976, Control_c, 1, 64, 0
3, 297980, Note_off_c, 1, 73, 100
3, 297984, Control_c, 1, 64, 127
3, 297984, Note_on_c, 1, 32, 120
3, 298748, Note_off_c, 1, 32, 100
3, 298752, Note_on_c, 1, 35, 120
3, 299132, Note_off_c, 1, 35, 100
3, 299136, Note_on_c, 1, 41, 120
3, 299512, Control_c, 1, 64, 0
3, 299516, Note_off_c, 1, 41, 100
3, 299520, Control_c, 1, 64, 127
3, 299520, Note_on_c, 1, 44, 120
3, 300284, Note_off_c, 1, 44, 100
3, 300672, Note_on_c, 1, 73, 110
3, 301048, Control_c, 1, 64, 0
3, 301052, Note_off_c, 1, 73, 100
3, 301056, Control_c, 1, 64, 127
3, 301056, Note_on_c, 1, 72, 110
3, 301436, Note_off_c, 1, 72, 100
3, 301440, Note_on_c, 1, 73, 110
3, 301820, Note_off_c, 1, 73, 100
3, 301824, Note_on_c, 1, 74, 110
3, 302204, Note_off_c, 1, 74, 100
3, 302208, Note_on_c, 1, 73, 110
3, 302584, Control_c, 1, 64, 0
3, 302588, Note_off_c, 1, 73, 100
3, 302592, Control_c, 1, 64, 127
3, 302592, Note_on_c, 1, 73, 110
3, 303356, Note_off_c, 1, 73, 100
3, 303360, Note_on_c, 1, 73, 110
3, 304120, Control_c, 1, 64, 0
3, 304124, Note_off_c, 1, 73, 100
3, 304128, Control_c, 1, 64, 127
3, 304128, Note_on_c, 1, 33, 120
3, 304892, Note_off_c, 1, 33, 100
3, 304896, Note_on_c, 1, 37, 120
3, 305276, Note_off_c, 1, 37, 100
3, 305280, Note_on_c, 1, 42, 120
3, 305656, Control_c, 1, 64, 0
3, 305660, Note_off_c, 1, 42, 100
3, 305664, Control_c, 1, 64, 127
3, 305664, Note_on_c, 1, 45, 120
3, 306044, Note_off_c, 1, 45, 100
3, 306432, Note_on_c, 1, 78, 110
3, 306812, Note_off_c, 1, 78, 100
3, 307192, Control_c, 1, 64, 0
3, 307200, Control_c, 1, 64, 127
3, 307200, Note_on_c, 1, 35, 120
3, 307964, Note_off_c, 1, 35, 100
3, 307968, Note_on_c, 1, 38, 120
3, 308348, Note_off_c, 1, 38, 100
3, 308352, Note_on_c, 1, 42, 120
3, 308728, Control_c, 1, 64, 0
3, 308732, Note_off_c, 1, 42, 100
3, 308736, Control_c, 1, 64, 127
3, 308736, Note_on_c, 1, 47, 120
3, 309116, Note_off_c, 1, 47, 100
3, 309504, Note_on_c, 1, 78, 120
3, 309884, Note_off_c, 1, 78, 100
3, 310264, Control_c, 1, 64, 0
3, 310272, Control_c, 1, 64, 127
3, 310272, Note_on_c, 1, 35, 120
3, 311036, Note_off_c, 1, 35, 100
3, 311040, Note_on_c, 1, 38, 120
3, 311420, Note_off_c, 1, 38, 100
3, 311424, Note_on_c, 1, 43, 120
3, 311800, Control_c, 1, 64, 0
3, 311804, Note_off_c, 1, 43, 100
3, 311808, Control_c, 1, 64, 127
3, 311808, Note_on_c, 1, 47, 120
3, 312572, Note_off_c, 1, 47, 100
3, 312576, Note_on_c, 1, 79, 120
3, 312956, Note_off_c, 1, 79, 100
3, 313336, Control_c, 1, 64, 0
3, 313344, Control_c, 1, 64, 127
3, 313344, Note_on_c, 1, 36, 120
3, 314108, Note_off_c, 1, 36, 100
3, 314112, Note_on_c, 1, 40, 120
3, 314492, Note_off_c, 1, 40, 100
3, 314496, Note_on_c, 1, 43, 120
3, 314872, Control_c, 1, 64, 0
3, 314876, Note_off_c, 1, 43, 100
3, 314880, Control_c, 1, 64, 127
3, 314880, Note_on_c, 1, 48, 120
3, 315644, Note_off_c, 1, 48, 100
3, 315648, Note_on_c, 1, 79, 120
3, 316028, Note_off_c, 1, 79, 100
3, 316408, Control_c, 1, 64, 0
3, 316416, Control_c, 1, 64, 127
3, 316416, Note_on_c, 1, 37, 120
3, 317180, Note_off_c, 1, 37, 100
3, 317184, Note_on_c, 1, 40, 120
3, 317564, Note_off_c, 1, 40, 100
3, 317568, Note_on_c, 1, 45, 120
3, 317944, Control_c, 1, 64, 0
3, 317948, Note_off_c, 1, 45, 100
3, 317952, Control_c, 1, 64, 127
3, 317952, Note_on_c, 1, 49, 120
3, 318716, Note_off_c, 1, 49, 100
3, 318720, Note_on_c, 1, 81, 120
3, 319100, Note_off_c, 1, 81, 100
3, 319480, Control_c, 1, 64, 0
3, 319488, Control_c, 1, 64, 127
3, 319488, Note_on_c, 1, 38, 120
3, 320252, Note_off_c, 1, 38, 100
3, 320256, Note_on_c, 1, 41, 120
3, 320636, Note_off_c, 1, 41, 100
3, 320640, Note_on_c, 1, 45, 120
3, 321016, Control_c, 1, 64, 0
3, 321020, Note_off_c, 1, 45, 100
3, 321024, Control_c, 1, 64, 127
3, 321024, Note_on_c, 1, 50, 120
3, 321788, Note_off_c, 1, 50, 100
3, 321792, Note_on_c, 1, 81, 120
3, 322172, Note_off_c, 1, 81, 100
3, 322552, Control_c, 1, 64, 0
3, 322560, Control_c, 1, 64, 127
3, 322560, Note_on_c, 1, 46, 110
3, 322688, Note_on_c, 1, 62, 110
3, 322764, Note_off_c, 1, 46, 100
3, 322816, Note_on_c, 1, 59, 110
3, 322908, Note_off_c, 1, 62, 100
3, 322944, Note_on_c, 1, 62, 110
3, 323060, Note_off_c, 1, 59, 100
3, 323072, Note_on_c, 1, 59, 110
3, 323168, Note_off_c, 1, 62, 100
3, 323200, Note_on_c, 1, 62, 110
3, 323300, Note_off_c, 1, 59, 100
3, 323328, Note_on_c, 1, 59, 110
3, 323416, Note_off_c, 1, 62, 100
3, 323456, Note_on_c, 1, 62, 110
3, 323532, Note_off_c, 1, 59, 100
3, 323584, Note_on_c, 1, 59, 110
3, 323676, Note_off_c, 1, 62, 100
3, 323712, Note_on_c, 1, 62, 110
3, 323828, Note_off_c, 1, 59, 100
3, 323840, Note_on_c, 1, 59, 110
3, 323936, Note_off_c, 1, 62, 100
3, 323968, Note_on_c, 1, 62, 110
3, 324068, Note_off_c, 1, 59, 100
3, 324088, Control_c, 1, 64, 0
3, 324096, Control_c, 1, 64, 127
3, 324096, Note_on_c, 1, 46, 110
3, 324184, Note_off_c, 1, 62, 100
3, 324224, Note_on_c, 1, 62, 110
3, 324300, Note_off_c, 1, 46, 100
3, 324352, Note_on_c, 1, 58, 110
3, 324444, Note_off_c, 1, 62, 100
3, 324480, Note_on_c, 1, 62, 110
3, 324596, Note_off_c, 1, 58, 100
3, 324608, Note_on_c, 1, 58, 110
3, 324704, Note_off_c, 1, 62, 100
3, 324736, Note_on_c, 1, 62, 110
3, 324836, Note_off_c, 1, 58, 100
3, 324864, Note_on_c, 1, 58, 110
3, 324952, Note_off_c, 1, 62, 100
3, 324992, Note_on_c, 1, 62, 110
3, 325068, Note_off_c, 1, 58, 100
3, 325120, Note_on_c, 1, 58, 110
3, 325212, Note_off_c, 1, 62, 100
3, 325248, Note_on_c, 1, 62, 110
3, 325364, Note_off_c, 1, 58, 100
3, 325376, Note_on_c, 1, 58, 110
3, 325472, Note_off_c, 1, 62, 100
3, 325504, Note_on_c, 1, 62, 110
3, 325604, Note_off_c, 1, 58, 100
3, 325624, Control_c, 1, 64, 0
3, 325628, Note_off_c, 1, 62, 100
3, 325632, Control_c, 1, 64, 127
3, 325632, Note_on_c, 1, 45, 110
3, 325820, Note_off_c, 1, 45, 100
3, 325824, Note_on_c, 1, 57, 110
3, 326012, Note_off_c, 1, 57, 100
3, 326016, Note_on_c, 1, 56, 110
3, 326204, Note_off_c, 1, 56, 100
3, 326208, Note_on_c, 1, 57, 110
3, 326396, Note_off_c, 1, 57, 100
3, 326400, Note_on_c, 1, 56, 110
3, 326588, Note_off_c, 1, 56, 100
3, 326592, Note_on_c, 1, 57, 110
3, 326780, Note_off_c, 1, 57, 100
3, 326784, Note_on_c, 1, 56, 110
3, 326972, Note_off_c, 1, 56, 100
3, 326976, Note_on_c, 1, 57, 110
3, 327160, Control_c, 1, 64, 0
3, 327164, Note_off_c, 1, 57, 100
3, 327168, Control_c, 1, 64, 127
3, 327168, Note_on_c, 1, 56, 110
3, 327356, Note_off_c, 1, 56, 100
3, 327360, Note_on_c, 1, 57, 110
3, 327548, Note_off_c, 1, 57, 100
3, 327552, Note_on_c, 1, 64, 110
3, 327552, Note_on_c, 1, 61, 110
3, 327740, Note_off_c, 1, 64, 100
3, 327740, Note_off_c, 1, 61, 100
3, 327744, Note_on_c, 1, 57, 110
3, 327928, Control_c, 1, 64, 0
3, 327932, Note_off_c, 1, 57, 100
3, 327936, Control_c, 1, 64, 127
3, 327936, Note_on_c, 1, 65, 110
3, 327936, Note_on_c, 1, 62, 110
3, 328124, Note_off_c, 1, 65, 100
3, 328124, Note_off_c, 1, 62, 100
3, 328128, Note_on_c, 1, 57, 110
3, 328316, Note_off_c, 1, 57, 100
3, 328320, Note_on_c, 1, 62, 110
3, 328320, Note_on_c, 1, 59, 110
3, 328508, Note_off_c, 1, 62, 100
3, 328508, Note_off_c, 1, 59, 100
3, 328512, Note_on_c, 1, 57, 110
3, 328696, Control_c, 1, 64, 0
3, 328700, Note_off_c, 1, 57, 100
3, 328704, Control_c, 1, 64, 127
3, 328704, Note_on_c, 1, 64, 110
3, 328704, Note_on_c, 1, 61, 110
3, 328892, Note_off_c, 1, 64, 100
3, 328892, Note_off_c, 1, 61, 100
3, 328896, Note_on_c, 1, 57, 110
3, 329084, Note_off_c, 1, 57, 100
3, 329088, Note_on_c, 1, 64, 110
3, 329088, Note_on_c, 1, 61, 110
3, 329276, Note_off_c, 1, 64, 100
3, 329276, Note_off_c, 1, 61, 100
3, 329280, Note_on_c, 1, 57, 110
3, 329464, Control_c, 1, 64, 0
3, 329468, Note_off_c, 1, 57, 100
3, 329472, Control_c, 1, 64, 127
3, 329472, Note_on_c, 1, 65, 110
3, 329472, Note_on_c, 1, 62, 110
3, 329660, Note_off_c, 1, 65, 100
3, 329660, Note_off_c, 1, 62, 100
3, 329664, Note_on_c, 1, 57, 110
3, 329852, Note_off_c, 1, 57, 100
3, 329856, Note_on_c, 1, 62, 110
3, 329856, Note_on_c, 1, 59, 110
3, 330044, Note_off_c, 1, 62, 100
3, 330044, Note_off_c, 1, 59, 100
3, 330048, Note_on_c, 1, 57, 110
3, 330232, Control_c, 1, 64, 0
3, 330236, Note_off_c, 1, 57, 100
3, 330240, Control_c, 1, 64, 127
3, 330240, Note_on_c, 1, 64, 110
3, 330240, Note_on_c, 1, 61, 110
3, 330428, Note_off_c, 1, 64, 100
3, 330428, Note_off_c, 1, 61, 100
3, 330432, Note_on_c, 1, 57, 110
3, 330620, Note_off_c, 1, 57, 100
3, 330624, Note_on_c, 1, 64, 110
3, 330624, Note_on_c, 1, 61, 110
3, 330812, Note_off_c, 1, 64, 100
3, 330812, Note_off_c, 1, 61, 100
3, 330816, Note_on_c, 1, 57, 110
3, 331000, Control_c, 1, 64, 0
3, 331004, Note_off_c, 1, 57, 100
3, 331008, Control_c, 1, 64, 127
3, 331008, Note_on_c, 1, 65, 110
3, 331008, Note_on_c, 1, 62, 110
3, 331196, Note_off_c, 1, 65, 100
3, 331196, Note_off_c, 1, 62, 100
3, 331200, Note_on_c, 1, 57, 110
3, 331388, Note_off_c, 1, 57, 100
3, 331392, Note_on_c, 1, 62, 110
3, 331392, Note_on_c, 1, 59, 110
3, 331580, Note_off_c, 1, 62, 100
3, 331580, Note_off_c, 1, 59, 100
3, 331584, Note_on_c, 1, 57, 110
3, 331768, Control_c, 1, 64, 0
3, 331772, Note_off_c, 1, 57, 100
3, 331776, Control_c, 1, 64, 127
3, 331776, Note_on_c, 1, 61, 110
3, 331776, Note_on_c, 1, 64, 110
3, 331964, Note_off_c, 1, 61, 100
3, 331964, Note_off_c, 1, 64, 100
3, 331968, Note_on_c, 1, 57, 110
3, 332156, Note_off_c, 1, 57, 100
3, 332160, Note_on_c, 1, 56, 110
3, 332348, Note_off_c, 1, 56, 100
3, 332352, Note_on_c, 1, 57, 110
3, 332536, Control_c, 1, 64, 0
3, 332540, Note_off_c, 1, 57, 100
3, 332544, Control_c, 1, 64, 127
3, 332544, Note_on_c, 1, 56, 110
3, 332732, Note_off_c, 1, 56, 100
3, 332736, Note_on_c, 1, 57, 110
3, 332924, Note_off_c, 1, 57, 100
3, 332928, Note_on_c, 1, 56, 110
3, 333116, Note_off_c, 1, 56, 100
3, 333120, Note_on_c, 1, 57, 110
3, 333304, Control_c, 1, 64, 0
3, 333308, Note_off_c, 1, 57, 100
3, 333312, Control_c, 1, 64, 127
3, 333312, Note_on_c, 1, 56, 110
3, 333500, Note_off_c, 1, 56, 100
3, 333504, Note_on_c, 1, 57, 110
3, 333692, Note_off_c, 1, 57, 100
3, 333696, Note_on_c, 1, 52, 110
3, 333696, Note_on_c, 1, 49, 110
3, 333884, Note_off_c, 1, 52, 100
3, 333884, Note_off_c, 1, 49, 100
3, 333888, Note_on_c, 1, 57, 110
3, 334072, Control_c, 1, 64, 0
3, 334076, Note_off_c, 1, 57, 100
3, 334080, Control_c, 1, 64, 127
3, 334080, Note_on_c, 1, 53, 110
3, 334080, Note_on_c, 1, 50, 110
3, 334268, Note_off_c, 1, 53, 100
3, 334268, Note_off_c, 1, 50, 100
3, 334272, Note_on_c, 1, 57, 110
3, 334460, Note_off_c, 1, 57, 100
3, 334464, Note_on_c, 1, 50, 110
3, 334464, Note_on_c, 1, 47, 110
3, 334652, Note_off_c, 1, 50, 100
3, 334652, Note_off_c, 1, 47, 100
3, 334656, Note_on_c, 1, 57, 110
3, 334840, Control_c, 1, 64, 0
3, 334844, Note_off_c, 1, 57, 100
3, 334848, Control_c, 1, 64, 127
3, 334848, Note_on_c, 1, 52, 110
3, 334848, Note_on_c, 1, 49, 110
3, 335036, Note_off_c, 1, 52, 100
3, 335036, Note_off_c, 1, 49, 100
3, 335040, Note_on_c, 1, 57, 110
3, 335228, Note_off_c, 1, 57, 100
3, 335232, Note_on_c, 1, 52, 110
3, 335232, Note_on_c, 1, 49, 110
3, 335420, Note_off_c, 1, 52, 100
3, 335420, Note_off_c, 1, 49, 100
3, 335424, Note_on_c, 1, 57, 110
3, 335608, Control_c, 1, 64, 0
3, 335612, Note_off_c, 1, 57, 100
3, 335616, Control_c, 1, 64, 127
3, 335616, Note_on_c, 1, 53, 110
3, 335616, Note_on_c, 1, 50, 110
3, 335804, Note_off_c, 1, 53, 100
3, 335804, Note_off_c, 1, 50, 100
3, 335808, Note_on_c, 1, 57, 110
3, 335996, Note_off_c, 1, 57, 100
3, 336000, Note_on_c, 1, 50, 110
3, 336000, Note_on_c, 1, 47, 110
3, 336188, Note_off_c, 1, 50, 100
3, 336188, Note_off_c, 1, 47, 100
3, 336192, Note_on_c, 1, 57, 110
3, 336376, Control_c, 1, 64, 0
3, 336380, Note_off_c, 1, 57, 100
3, 336384, Control_c, 1, 64, 127
3, 336384, Note_on_c, 1, 52, 110
3, 336384, Note_on_c, 1, 49, 110
3, 336572, Note_off_c, 1, 52, 100
3, 336572, Note_off_c, 1, 49, 100
3, 336576, Note_on_c, 1, 57, 110
3, 336764, Note_off_c, 1, 57, 100
3, 336768, Note_on_c, 1, 52, 110
3, 336768, Note_on_c, 1, 49, 110
3, 336956, Note_off_c, 1, 52, 100
3, 336956, Note_off_c, 1, 49, 100
3, 336960, Note_on_c, 1, 57, 110
3, 337144, Control_c, 1, 64, 0
3, 337148, Note_off_c, 1, 57, 100
3, 337152, Control_c, 1, 64, 127
3, 337152, Note_on_c, 1, 53, 110
3, 337152, Note_on_c, 1, 50, 110
3, 337340, Note_off_c, 1, 53, 100
3, 337340, Note_off_c, 1, 50, 100
3, 337344, Note_on_c, 1, 57, 110
3, 337532, Note_off_c, 1, 57, 100
3, 337536, Note_on_c, 1, 50, 110
3, 337536, Note_on_c, 1, 47, 110
3, 337724, Note_off_c, 1, 50, 100
3, 337724, Note_off_c, 1, 47, 100
3, 337728, Note_on_c, 1, 57, 110
3, 337912, Control_c, 1, 64, 0
3, 337916, Note_off_c, 1, 57, 100
3, 337920, Control_c, 1, 64, 127
3, 337920, Note_on_c, 1, 52, 110
3, 337920, Note_on_c, 1, 49, 110
3, 338108, Note_off_c, 1, 52, 100
3, 338108, Note_off_c, 1, 49, 100
3, 338112, Note_on_c, 1, 45, 110
3, 338300, Note_off_c, 1, 45, 100
3, 338304, Note_on_c, 1, 44, 110
3, 338492, Note_off_c, 1, 44, 100
3, 338496, Note_on_c, 1, 45, 110
3, 338680, Control_c, 1, 64, 0
3, 338684, Note_off_c, 1, 45, 100
3, 338688, Control_c, 1, 64, 127
3, 338688, Note_on_c, 1, 44, 110
3, 338876, Note_off_c, 1, 44, 100
3, 338880, Note_on_c, 1, 45, 110
3, 339068, Note_off_c, 1, 45, 100
3, 339072, Note_on_c, 1, 44, 110
3, 339260, Note_off_c, 1, 44, 100
3, 339264, Note_on_c, 1, 45, 110
3, 339448, Control_c, 1, 64, 0
3, 339452, Note_off_c, 1, 45, 100
3, 339456, Control_c, 1, 64, 127
3, 339456, Note_on_c, 1, 44, 110
3, 339644, Note_off_c, 1, 44, 100
3, 339648, Note_on_c, 1, 45, 110
3, 339836, Note_off_c, 1, 45, 100
3, 339840, Note_on_c, 1, 52, 110
3, 339840, Note_on_c, 1, 49, 110
3, 340028, Note_off_c, 1, 52, 100
3, 340028, Note_off_c, 1, 49, 100
3, 340032, Note_on_c, 1, 45, 110
3, 340216, Control_c, 1, 64, 0
3, 340220, Note_off_c, 1, 45, 100
3, 340224, Control_c, 1, 64, 127
3, 340224, Note_on_c, 1, 53, 110
3, 340224, Note_on_c, 1, 50, 110
3, 340412, Note_off_c, 1, 53, 100
3, 340412, Note_off_c, 1, 50, 100
3, 340416, Note_on_c, 1, 45, 110
3, 340604, Note_off_c, 1, 45, 100
3, 340608, Note_on_c, 1, 50, 110
3, 340608, Note_on_c, 1, 47, 110
3, 340796, Note_off_c, 1, 50, 100
3, 340796, Note_off_c, 1, 47, 100
3, 340800, Note_on_c, 1, 45, 110
3, 340984, Control_c, 1, 64, 0
3, 340988, Note_off_c, 1, 45, 100
3, 340992, Control_c, 1, 64, 127
3, 340992, Note_on_c, 1, 52, 110
3, 340992, Note_on_c, 1, 49, 110
3, 341180, Note_off_c, 1, 52, 100
3, 341180, Note_off_c, 1, 49, 100
3, 341184, Note_on_c, 1, 45, 110
3, 341372, Note_off_c, 1, 45, 100
3, 341376, Note_on_c, 1, 52, 110
3, 341376, Note_on_c, 1, 49, 110
3, 341564, Note_off_c, 1, 52, 100
3, 341564, Note_off_c, 1, 49, 100
3, 341568, Note_on_c, 1, 45, 110
3, 341752, Control_c, 1, 64, 0
3, 341756, Note_off_c, 1, 45, 100
3, 341760, Control_c, 1, 64, 127
3, 341760, Note_on_c, 1, 53, 110
3, 341760, Note_on_c, 1, 50, 110
3, 341948, Note_off_c, 1, 53, 100
3, 341948, Note_off_c, 1, 50, 100
3, 341952, Note_on_c, 1, 45, 110
3, 342140, Note_off_c, 1, 45, 100
3, 342144, Note_on_c, 1, 50, 110
3, 342144, Note_on_c, 1, 47, 110
3, 342332, Note_off_c, 1, 50, 100
3, 342332, Note_off_c, 1, 47, 100
3, 342336, Note_on_c, 1, 45, 110
3, 342520, Control_c, 1, 64, 0
3, 342524, Note_off_c, 1, 45, 100
3, 342528, Control_c, 1, 64, 127
3, 342528, Note_on_c, 1, 52, 110
3, 342528, Note_on_c, 1, 49, 110
3, 342716, Note_off_c, 1, 52, 100
3, 342716, Note_off_c, 1, 49, 100
3, 342720, Note_on_c, 1, 45, 110
3, 342908, Note_off_c, 1, 45, 100
3, 342912, Note_on_c, 1, 52, 110
3, 342912, Note_on_c, 1, 49, 110
3, 343100, Note_off_c, 1, 52, 100
3, 343100, Note_off_c, 1, 49, 100
3, 343104, Note_on_c, 1, 45, 110
3, 343288, Control_c, 1, 64, 0
3, 343292, Note_off_c, 1, 45, 100
3, 343296, Control_c, 1, 64, 127
3, 343296, Note_on_c, 1, 53, 110
3, 343296, Note_on_c, 1, 50, 110
3, 343484, Note_off_c, 1, 53, 100
3, 343484, Note_off_c, 1, 50, 100
3, 343488, Note_on_c, 1, 45, 110
3, 343676, Note_off_c, 1, 45, 100
3, 343680, Note_on_c, 1, 50, 110
3, 343680, Note_on_c, 1, 47, 110
3, 343868, Note_off_c, 1, 50, 100
3, 343868, Note_off_c, 1, 47, 100
3, 343872, Note_on_c, 1, 45, 110
3, 344056, Control_c, 1, 64, 0
3, 344060, Note_off_c, 1, 45, 100
3, 344064, Note_on_c, 1, 52, 110
3, 344064, Note_on_c, 1, 49, 110
3, 344064, Note_on_c, 1, 45, 110
3, 345596, Note_off_c, 1, 52, 100
3, 345596, Note_off_c, 1, 49, 100
3, 345596, Note_off_c, 1, 45, 100
3, 345600, Note_on_c, 1, 45, 100
3, 345600, Note_on_c, 1, 33, 100
3, 347132, Note_off_c, 1, 45, 100
3, 347132, Note_off_c, 1, 33, 100
3, 347136, Note_on_c, 1, 45, 90
3, 347136, Note_on_c, 1, 33, 90
3, 348668, Note_off_c, 1, 45, 100
3, 348668, Note_off_c, 1, 33, 100
3, 348672, Note_on_c, 1, 45, 80
3, 348672, Note_on_c, 1, 33, 80
3, 350204, Note_off_c, 1, 45, 100
3, 350204, Note_off_c, 1, 33, 100
3, 350592, Note_on_c, 1, 45, 80
3, 350592, Note_on_c, 1, 33, 80
3, 353276, Note_off_c, 1, 33, 100
3, 353276, Note_off_c, 1, 45, 100
3, 353280, Note_on_c, 1, 46, 80
3, 354428, Note_off_c, 1, 46, 100
3, 354432, Note_on_c, 1, 45, 80
3, 354812, Note_off_c, 1, 45, 100
3, 354816, Note_on_c, 1, 43, 80
3, 355196, Note_off_c, 1, 43, 100
3, 355200, Note_on_c, 1, 41, 80
3, 355580, Note_off_c, 1, 41, 100
3, 355584, Note_on_c, 1, 39, 80
3, 355964, Note_off_c, 1, 39, 100
3, 355968, Note_on_c, 1, 38, 80
3, 356348, Note_off_c, 1, 38, 100
3, 356352, Note_on_c, 1, 37, 80
3, 356732, Note_off_c, 1, 37, 100
3, 356736, Note_on_c, 1, 43, 80
3, 357116, Note_off_c, 1, 43, 100
3, 357120, Note_on_c, 1, 46, 80
3, 357500, Note_off_c, 1, 46, 100
3, 357504, Note_on_c, 1, 45, 80
3, 357884, Note_off_c, 1, 45, 100
3, 357888, Note_on_c, 1, 43, 80
3, 358268, Note_off_c, 1, 43, 100
3, 358272, Note_on_c, 1, 41, 80
3, 358652, Note_off_c, 1, 41, 100
3, 358656, Note_on_c, 1, 39, 80
3, 359036, Note_off_c, 1, 39, 100
3, 359040, Note_on_c, 1, 38, 80
3, 359420, Note_off_c, 1, 38, 100
3, 359424, Control_c, 1, 64, 127
3, 359424, Note_on_c, 1, 37, 70
3, 359448, Note_on_c, 1, 40, 70
3, 359472, Note_on_c, 1, 45, 70
3, 359496, Note_on_c, 1, 49, 70
3, 359520, Note_on_c, 1, 52, 70
3, 359544, Note_on_c, 1, 57, 70
3, 360188, Note_off_c, 1, 49, 100
3, 360188, Note_off_c, 1, 52, 100
3, 360188, Note_off_c, 1, 57, 100
3, 362108, Note_off_c, 1, 37, 100
3, 362108, Note_off_c, 1, 40, 100
3, 362108, Note_off_c, 1, 45, 100
3, 362488, Control_c, 1, 64, 0
3, 368256, Note_on_c, 1, 57, 80
3, 368256, Note_on_c, 1, 49, 80
3, 368636, Note_off_c, 1, 57, 100
3, 368636, Note_off_c, 1, 49, 100
3, 368640, Note_on_c, 1, 57, 80
3, 368640, Note_on_c, 1, 50, 80
3, 369020, Note_off_c, 1, 57, 100
3, 369020, Note_off_c, 1, 50, 100
3, 369024, Note_on_c, 1, 57, 80
3, 369024, Note_on_c, 1, 52, 80
3, 369404, Note_off_c, 1, 57, 100
3, 369404, Note_off_c, 1, 52, 100
3, 369408, Note_on_c, 1, 57, 80
3, 369408, Note_on_c, 1, 53, 80
3, 369788, Note_off_c, 1, 57, 100
3, 369788, Note_off_c, 1, 53, 100
3, 369792, Note_on_c, 1, 57, 80
3, 369792, Note_on_c, 1, 49, 80
3, 370172, Note_off_c, 1, 57, 100
3, 370172, Note_off_c, 1, 49, 100
3, 370176, Note_on_c, 1, 57, 80
3, 370176, Note_on_c, 1, 50, 80
3, 370556, Note_off_c, 1, 57, 100
3, 370556, Note_off_c, 1, 50, 100
3, 370560, Note_on_c, 1, 57, 80
3, 370560, Note_on_c, 1, 52, 80
3, 370940, Note_off_c, 1, 57, 100
3, 370940, Note_off_c, 1, 52, 100
3, 370944, Note_on_c, 1, 57, 80
3, 370944, Note_on_c, 1, 53, 80
3, 371324, Note_off_c, 1, 57, 100
3, 371324, Note_off_c, 1, 53, 100
3, 371328, Note_on_c, 1, 62, 80
3, 371328, Note_on_c, 1, 54, 80
3, 371708, Note_off_c, 1, 62, 100
3, 371708, Note_off_c, 1, 54, 100
3, 371712, Note_on_c, 1, 62, 86
3, 371712, Note_on_c, 1, 55, 86
3, 372092, Note_off_c, 1, 62, 100
3, 372092, Note_off_c, 1, 55, 100
3, 372096, Note_on_c, 1, 62, 92
3, 372096, Note_on_c, 1, 57, 92
3, 372476, Note_off_c, 1, 62, 100
3, 372476, Note_off_c, 1, 57, 100
3, 372480, Note_on_c, 1, 62, 98
3, 372480, Note_on_c, 1, 58, 98
3, 372860, Note_off_c, 1, 62, 100
3, 372860, Note_off_c, 1, 58, 100
3, 372864, Note_on_c, 1, 62, 104
3, 372864, Note_on_c, 1, 58, 104
3, 373244, Note_off_c, 1, 62, 100
3, 373244, Note_off_c, 1, 58, 100
3, 373248, Note_on_c, 1, 62, 110
3, 373248, Note_on_c, 1, 57, 110
3, 374012, Note_off_c, 1, 62, 100
3, 374012, Note_off_c, 1, 57, 100
3, 374016, Note_on_c, 1, 61, 80
3, 374016, Note_on_c, 1, 57, 80
3, 374780, Note_off_c, 1, 61, 100
3, 374780, Note_off_c, 1, 57, 100
3, 374784, Control_c, 1, 64, 127
3, 374784, Note_on_c, 1, 40, 70
3, 374808, Note_on_c, 1, 43, 70
3, 374832, Note_on_c, 1, 48, 70
3, 374856, Note_on_c, 1, 52, 70
3, 374880, Note_on_c, 1, 55, 70
3, 374904, Note_on_c, 1, 60, 70
3, 375548, Note_off_c, 1, 52, 100
3, 375548, Note_off_c, 1, 55, 100
3, 375548, Note_off_c, 1, 60, 100
3, 377848, Control_c, 1, 64, 0
3, 377852, Note_off_c, 1, 40, 100
3, 377852, Note_off_c, 1, 43, 100
3, 377852, Note_off_c, 1, 48, 100
3, 384000, Note_on_c, 1, 41, 70
3, 384000, Note_on_c, 1, 37, 70
3, 384000, Note_on_c, 1, 29, 70
3, 384380, Note_off_c, 1, 41, 100
3, 384380, Note_off_c, 1, 37, 100
3, 384380, Note_off_c, 1, 29, 100
3, 384768, Note_on_c, 1, 41, 70
3, 384768, Note_on_c, 1, 37, 70
3, 384768, Note_on_c, 1, 29, 70
3, 385148, Note_off_c, 1, 41, 100
3, 385148, Note_off_c, 1, 37, 100
3, 385148, Note_off_c, 1, 29, 100
3, 385536, Note_on_c, 1, 41, 70
3, 385536, Note_on_c, 1, 37, 70
3, 385536, Note_on_c, 1, 29, 70
3, 385916, Note_off_c, 1, 41, 100
3, 385916, Note_off_c, 1, 37, 100
3, 385916, Note_off_c, 1, 29, 100
3, 386304, Note_on_c, 1, 41, 70
3, 386304, Note_on_c, 1, 37, 70
3, 386304, Note_on_c, 1, 29, 70
3, 386684, Note_off_c, 1, 41, 100
3, 386684, Note_off_c, 1, 37, 100
3, 386684, Note_off_c, 1, 29, 100
3, 387072, Control_c, 1, 64, 127
3, 387072, Note_on_c, 1, 42, 80
3, 387072, Note_on_c, 1, 37, 80
3, 387072, Note_on_c, 1, 30, 80
3, 387452, Note_off_c, 1, 42, 100
3, 387452, Note_off_c, 1, 37, 100
3, 387452, Note_off_c, 1, 30, 100
3, 388224, Note_on_c, 1, 45, 92
3, 388288, Note_on_c, 1, 49, 93
3, 388324, Note_off_c, 1, 45, 100
3, 388352, Note_on_c, 1, 54, 94
3, 388412, Note_off_c, 1, 49, 100
3, 388416, Note_on_c, 1, 57, 94
3, 388468, Note_off_c, 1, 54, 100
3, 388480, Note_on_c, 1, 61, 95
3, 388540, Note_off_c, 1, 57, 100
3, 388544, Note_on_c, 1, 66, 96
3, 388604, Note_off_c, 1, 61, 100
3, 388668, Note_off_c, 1, 66, 100
3, 390136, Control_c, 1, 64, 0
3, 390144, Note_on_c, 1, 54, 80
3, 390144, Note_on_c, 1, 50, 80
3, 390144, Note_on_c, 1, 42, 80
3, 390524, Note_off_c, 1, 54, 100
3, 390524, Note_off_c, 1, 50, 100
3, 390524, Note_off_c, 1, 42, 100
3, 390912, Note_on_c, 1, 54, 80
3, 390912, Note_on_c, 1, 50, 80
3, 390912, Note_on_c, 1, 42, 80
3, 391292, Note_off_c, 1, 54, 100
3, 391292, Note_off_c, 1, 50, 100
3, 391292, Note_off_c, 1, 42, 100
3, 391680, Note_on_c, 1, 54, 80
3, 391680, Note_on_c, 1, 50, 80
3, 391680, Note_on_c, 1, 42, 80
3, 392060, Note_off_c, 1, 54, 100
3, 392060, Note_off_c, 1, 50, 100
3, 392060, Note_off_c, 1, 42, 100
3, 392448, Note_on_c, 1, 54, 80
3, 392448, Note_on_c, 1, 50, 80
3, 392448, Note_on_c, 1, 42, 80
3, 392828, Note_off_c, 1, 54, 100
3, 392828, Note_off_c, 1, 50, 100
3, 392828, Note_off_c, 1, 42, 100
3, 393216, Control_c, 1, 64, 127
3, 393216, Note_on_c, 1, 55, 80
3, 393216, Note_on_c, 1, 50, 80
3, 393216, Note_on_c, 1, 43, 80
3, 393596, Note_off_c, 1, 55, 100
3, 393596, Note_off_c, 1, 50, 100
3, 393596, Note_off_c, 1, 43, 100
3, 393600, Note_on_c, 1, 58, 85
3, 393728, Note_on_c, 1, 55, 86
3, 393844, Note_off_c, 1, 58, 100
3, 393856, Note_on_c, 1, 50, 88
3, 393948, Note_off_c, 1, 55, 100
3, 393984, Note_on_c, 1, 58, 90
3, 394092, Note_off_c, 1, 50, 100
3, 394112, Note_on_c, 1, 55, 91
3, 394208, Note_off_c, 1, 58, 100
3, 394240, Note_on_c, 1, 50, 93
3, 394364, Note_off_c, 1, 55, 100
3, 394368, Note_on_c, 1, 46, 95
3, 394432, Note_on_c, 1, 50, 95
3, 394464, Note_off_c, 1, 50, 100
3, 394492, Note_off_c, 1, 46, 100
3, 394496, Note_on_c, 1, 55, 96
3, 394544, Note_off_c, 1, 50, 100
3, 394560, Note_on_c, 1, 58, 97
3, 394616, Note_off_c, 1, 55, 100
3, 394624, Note_on_c, 1, 62, 98
3, 394684, Note_off_c, 1, 58, 100
3, 394688, Note_on_c, 1, 67, 99
3, 394748, Note_off_c, 1, 62, 100
3, 394812, Note_off_c, 1, 67, 100
3, 396280, Control_c, 1, 64, 0
3, 396288, Note_on_c, 1, 64, 120
3, 396288, Note_on_c, 1, 61, 120
3, 396288, Note_on_c, 1, 58, 120
3, 396288, Note_on_c, 1, 55, 120
3, 396668, Note_off_c, 1, 64, 100
3, 396668, Note_off_c, 1, 61, 100
3, 396668, Note_off_c, 1, 58, 100
3, 396668, Note_off_c, 1, 55, 100
3, 397056, Note_on_c, 1, 64, 120
3, 397056, Note_on_c, 1, 61, 120
3, 397056, Note_on_c, 1, 58, 120
3, 397056, Note_on_c, 1, 55, 120
3, 397436, Note_off_c, 1, 64, 100
3, 397436, Note_off_c, 1, 61, 100
3, 397436, Note_off_c, 1, 58, 100
3, 397436, Note_off_c, 1, 55, 100
3, 397824, Note_on_c, 1, 64, 120
3, 397824, Note_on_c, 1, 61, 120
3, 397824, Note_on_c, 1, 58, 120
3, 397824, Note_on_c, 1, 55, 120
3, 398204, Note_off_c, 1, 64, 100
3, 398204, Note_off_c, 1, 61, 100
3, 398204, Note_off_c, 1, 58, 100
3, 398204, Note_off_c, 1, 55, 100
3, 398592, Note_on_c, 1, 64, 120
3, 398592, Note_on_c, 1, 61, 120
3, 398592, Note_on_c, 1, 58, 120
3, 398592, Note_on_c, 1, 55, 120
3, 399164, Note_off_c, 1, 64, 100
3, 399164, Note_off_c, 1, 61, 100
3, 399164, Note_off_c, 1, 58, 100
3, 399164, Note_off_c, 1, 55, 100
3, 399360, Control_c, 1, 64, 127
3, 399360, Note_on_c, 1, 65, 120
3, 399360, Note_on_c, 1, 62, 120
3, 399360, Note_on_c, 1, 59, 120
3, 399360, Note_on_c, 1, 56, 120
3, 399740, Note_off_c, 1, 65, 100
3, 399740, Note_off_c, 1, 62, 100
3, 399740, Note_off_c, 1, 59, 100
3, 399740, Note_off_c, 1, 56, 100
3, 402424, Control_c, 1, 64, 0
3, 402432, Note_on_c, 1, 57, 96
3, 402620, Note_off_c, 1, 57, 100
3, 402624, Note_on_c, 1, 69, 80
3, 402812, Note_off_c, 1, 69, 100
3, 402816, Note_on_c, 1, 67, 80
3, 402816, Note_on_c, 1, 64, 80
3, 403004, Note_off_c, 1, 67, 100
3, 403004, Note_off_c, 1, 64, 100
3, 403008, Note_on_c, 1, 69, 80
3, 403196, Note_off_c, 1, 69, 100
3, 403200, Note_on_c, 1, 70, 80
3, 403388, Note_off_c, 1, 70, 100
3, 403392, Note_on_c, 1, 69, 80
3, 403580, Note_off_c, 1, 69, 100
3, 403584, Note_on_c, 1, 67, 80
3, 403584, Note_on_c, 1, 64, 80
3, 403772, Note_off_c, 1, 67, 100
3, 403772, Note_off_c, 1, 64, 100
3, 403776, Note_on_c, 1, 69, 80
3, 403964, Note_off_c, 1, 69, 100
3, 403968, Note_on_c, 1, 57, 80
3, 404156, Note_off_c, 1, 57, 100
3, 404160, Note_on_c, 1, 69, 80
3, 404348, Note_off_c, 1, 69, 100
3, 404352, Note_on_c, 1, 67, 80
3, 404352, Note_on_c, 1, 64, 80
3, 404540, Note_off_c, 1, 67, 100
3, 404540, Note_off_c, 1, 64, 100
3, 404544, Note_on_c, 1, 69, 80
3, 404732, Note_off_c, 1, 69, 100
3, 404736, Note_on_c, 1, 70, 80
3, 404924, Note_off_c, 1, 70, 100
3, 404928, Note_on_c, 1, 69, 80
3, 405116, Note_off_c, 1, 69, 100
3, 405120, Note_on_c, 1, 67, 80
3, 405120, Note_on_c, 1, 64, 80
3, 405308, Note_off_c, 1, 67, 100
3, 405308, Note_off_c, 1, 64, 100
3, 405312, Note_on_c, 1, 69, 80
3, 405500, Note_off_c, 1, 69, 100
3, 405504, Note_on_c, 1, 57, 80
3, 405692, Note_off_c, 1, 57, 100
3, 405696, Note_on_c, 1, 69, 80
3, 405884, Note_off_c, 1, 69, 100
3, 405888, Note_on_c, 1, 67, 80
3, 405888, Note_on_c, 1, 64, 80
3, 406076, Note_off_c, 1, 67, 100
3, 406076, Note_off_c, 1, 64, 100
3, 406080, Note_on_c, 1, 69, 80
3, 406268, Note_off_c, 1, 69, 100
3, 406272, Note_on_c, 1, 70, 80
3, 406460, Note_off_c, 1, 70, 100
3, 406464, Note_on_c, 1, 69, 80
3, 406652, Note_off_c, 1, 69, 100
3, 406656, Note_on_c, 1, 67, 80
3, 406656, Note_on_c, 1, 64, 80
3, 406844, Note_off_c, 1, 67, 100
3, 406844, Note_off_c, 1, 64, 100
3, 406848, Note_on_c, 1, 69, 80
3, 407036, Note_off_c, 1, 69, 100
3, 407040, Note_on_c, 1, 57, 80
3, 407228, Note_off_c, 1, 57, 100
3, 407232, Note_on_c, 1, 69, 80
3, 407420, Note_off_c, 1, 69, 100
3, 407424, Note_on_c, 1, 67, 80
3, 407424, Note_on_c, 1, 64, 80
3, 407612, Note_off_c, 1, 67, 100
3, 407612, Note_off_c, 1, 64, 100
3, 407616, Note_on_c, 1, 69, 80
3, 407804, Note_off_c, 1, 69, 100
3, 407808, Note_on_c, 1, 57, 80
3, 407996, Note_off_c, 1, 57, 100
3, 408000, Note_on_c, 1, 69, 80
3, 408188, Note_off_c, 1, 69, 100
3, 408192, Note_on_c, 1, 64, 80
3, 408192, Note_on_c, 1, 61, 80
3, 408380, Note_off_c, 1, 64, 100
3, 408380, Note_off_c, 1, 61, 100
3, 408384, Note_on_c, 1, 69, 80
3, 408572, Note_off_c, 1, 69, 100
3, 408576, Note_on_c, 1, 57, 80
3, 408764, Note_off_c, 1, 57, 100
3, 408768, Note_on_c, 1, 69, 80
3, 408956, Note_off_c, 1, 69, 100
3, 408960, Note_on_c, 1, 65, 80
3, 408960, Note_on_c, 1, 62, 80
3, 409148, Note_off_c, 1, 65, 100
3, 409148, Note_off_c, 1, 62, 100
3, 409152, Note_on_c, 1, 69, 80
3, 409340, Note_off_c, 1, 69, 100
3, 409344, Note_on_c, 1, 70, 80
3, 409532, Note_off_c, 1, 70, 100
3, 409536, Note_on_c, 1, 69, 80
3, 409724, Note_off_c, 1, 69, 100
3, 409728, Note_on_c, 1, 65, 80
3, 409728, Note_on_c, 1, 62, 80
3, 409916, Note_off_c, 1, 65, 100
3, 409916, Note_off_c, 1, 62, 100
3, 409920, Note_on_c, 1, 69, 80
3, 410108, Note_off_c, 1, 69, 100
3, 410112, Note_on_c, 1, 57, 80
3, 410300, Note_off_c, 1, 57, 100
3, 410304, Note_on_c, 1, 69, 80
3, 410492, Note_off_c, 1, 69, 100
3, 410496, Note_on_c, 1, 65, 80
3, 410496, Note_on_c, 1, 62, 80
3, 410684, Note_off_c, 1, 65, 100
3, 410684, Note_off_c, 1, 62, 100
3, 410688, Note_on_c, 1, 69, 80
3, 410876, Note_off_c, 1, 69, 100
3, 410880, Note_on_c, 1, 70, 80
3, 411068, Note_off_c, 1, 70, 100
3, 411072, Note_on_c, 1, 69, 80
3, 411260, Note_off_c, 1, 69, 100
3, 411264, Note_on_c, 1, 65, 80
3, 411264, Note_on_c, 1, 62, 80
3, 411452, Note_off_c, 1, 65, 100
3, 411452, Note_off_c, 1, 62, 100
3, 411456, Note_on_c, 1, 69, 80
3, 411644, Note_off_c, 1, 69, 100
3, 411648, Note_on_c, 1, 57, 80
3, 411836, Note_off_c, 1, 57, 100
3, 411840, Note_on_c, 1, 69, 80
3, 412028, Note_off_c, 1, 69, 100
3, 412032, Note_on_c, 1, 65, 80
3, 412032, Note_on_c, 1, 62, 80
3, 412220, Note_off_c, 1, 65, 100
3, 412220, Note_off_c, 1, 62, 100
3, 412224, Note_on_c, 1, 69, 80
3, 412412, Note_off_c, 1, 69, 100
3, 412416, Note_on_c, 1, 70, 80
3, 412604, Note_off_c, 1, 70, 100
3, 412608, Note_on_c, 1, 69, 80
3, 412796, Note_off_c, 1, 69, 100
3, 412800, Note_on_c, 1, 65, 80
3, 412800, Note_on_c, 1, 62, 80
3, 412988, Note_off_c, 1, 65, 100
3, 412988, Note_off_c, 1, 62, 100
3, 412992, Note_on_c, 1, 69, 80
3, 413180, Note_off_c, 1, 69, 100
3, 413184, Note_on_c, 1, 57, 80
3, 413372, Note_off_c, 1, 57, 100
3, 413376, Note_on_c, 1, 69, 80
3, 413564, Note_off_c, 1, 69, 100
3, 413568, Note_on_c, 1, 65, 80
3, 413568, Note_on_c, 1, 62, 80
3, 413756, Note_off_c, 1, 65, 100
3, 413756, Note_off_c, 1, 62, 100
3, 413760, Note_on_c, 1, 69, 80
3, 413948, Note_off_c, 1, 69, 100
3, 413952, Note_on_c, 1, 57, 80
3, 414140, Note_off_c, 1, 57, 100
3, 414144, Note_on_c, 1, 69, 80
3, 414332, Note_off_c, 1, 69, 100
3, 414336, Note_on_c, 1, 65, 80
3, 414336, Note_on_c, 1, 62, 80
3, 414524, Note_off_c, 1, 65, 100
3, 414524, Note_off_c, 1, 62, 100
3, 414528, Note_on_c, 1, 69, 80
3, 414716, Note_off_c, 1, 69, 100
3, 414720, Note_on_c, 1, 57, 80
3, 414908, Note_off_c, 1, 57, 100
3, 414912, Note_on_c, 1, 69, 80
3, 415100, Note_off_c, 1, 69, 100
3, 415104, Note_on_c, 1, 67, 80
3, 415104, Note_on_c, 1, 64, 80
3, 415292, Note_off_c, 1, 67, 100
3, 415292, Note_off_c, 1, 64, 100
3, 415296, Note_on_c, 1, 69, 80
3, 415484, Note_off_c, 1, 69, 100
3, 415488, Note_on_c, 1, 70, 80
3, 415676, Note_off_c, 1, 70, 100
3, 415680, Note_on_c, 1, 69, 80
3, 415868, Note_off_c, 1, 69, 100
3, 415872, Note_on_c, 1, 67, 80
3, 415872, Note_on_c, 1, 64, 80
3, 416060, Note_off_c, 1, 67, 100
3, 416060, Note_off_c, 1, 64, 100
3, 416064, Note_on_c, 1, 69, 81
3, 416252, Note_off_c, 1, 69, 100
3, 416256, Note_on_c, 1, 57, 83
3, 416444, Note_off_c, 1, 57, 100
3, 416448, Note_on_c, 1, 69, 85
3, 416636, Note_off_c, 1, 69, 100
3, 416640, Note_on_c, 1, 67, 87
3, 416640, Note_on_c, 1, 64, 87
3, 416828, Note_off_c, 1, 67, 100
3, 416828, Note_off_c, 1, 64, 100
3, 416832, Note_on_c, 1, 69, 88
3, 417020, Note_off_c, 1, 69, 100
3, 417024, Note_on_c, 1, 70, 90
3, 417212, Note_off_c, 1, 70, 100
3, 417216, Note_on_c, 1, 69, 92
3, 417404, Note_off_c, 1, 69, 100
3, 417408, Note_on_c, 1, 67, 94
3, 417408, Note_on_c, 1, 64, 94
3, 417596, Note_off_c, 1, 67, 100
3, 417596, Note_off_c, 1, 64, 100
3, 417600, Note_on_c, 1, 69, 95
3, 417788, Note_off_c, 1, 69, 100
3, 417792, Note_on_c, 1, 57, 97
3, 417980, Note_off_c, 1, 57, 100
3, 417984, Note_on_c, 1, 69, 99
3, 418172, Note_off_c, 1, 69, 100
3, 418176, Note_on_c, 1, 67, 101
3, 418176, Note_on_c, 1, 64, 101
3, 418364, Note_off_c, 1, 67, 100
3, 418364, Note_off_c, 1, 64, 100
3, 418368, Note_on_c, 1, 69, 102
3, 418556, Note_off_c, 1, 69, 100
3, 418560, Note_on_c, 1, 70, 104
3, 418748, Note_off_c, 1, 70, 100
3, 418752, Note_on_c, 1, 69, 106
3, 418940, Note_off_c, 1, 69, 100
3, 418944, Note_on_c, 1, 67, 108
3, 418944, Note_on_c, 1, 64, 108
3, 419132, Note_off_c, 1, 67, 100
3, 419132, Note_off_c, 1, 64, 100
3, 419136, Note_on_c, 1, 69, 109
3, 419324, Note_off_c, 1, 69, 100
3, 419328, Note_on_c, 1, 67, 110
3, 419328, Note_on_c, 1, 64, 110
3, 419328, Note_on_c, 1, 57, 110
3, 419708, Note_off_c, 1, 67, 100
3, 419708, Note_off_c, 1, 64, 100
3, 419708, Note_off_c, 1, 57, 100
3, 422784, Note_on_c, 1, 37, 110
3, 422972, Note_off_c, 1, 37, 100
3, 422976, Note_on_c, 1, 40, 110
3, 423164, Note_off_c, 1, 40, 100
3, 423168, Note_on_c, 1, 31, 110
3, 423356, Note_off_c, 1, 31, 100
3, 423360, Note_on_c, 1, 40, 110
3, 423548, Note_off_c, 1, 40, 100
3, 423552, Note_on_c, 1, 37, 110
3, 423740, Note_off_c, 1, 37, 100
3, 423744, Note_on_c, 1, 31, 110
3, 423932, Note_off_c, 1, 31, 100
3, 423936, Note_on_c, 1, 29, 110
3, 424316, Note_off_c, 1, 29, 100
3, 424320, Note_on_c, 1, 50, 110
3, 424320, Note_on_c, 1, 45, 110
3, 424320, Note_on_c, 1, 41, 110
3, 424700, Note_off_c, 1, 50, 100
3, 424700, Note_off_c, 1, 45, 100
3, 424700, Note_off_c, 1, 41, 100
3, 424704, Note_on_c, 1, 51, 110
3, 424704, Note_on_c, 1, 46, 110
3, 424704, Note_on_c, 1, 43, 110
3, 426236, Note_off_c, 1, 51, 100
3, 426240, Note_on_c, 1, 50, 110
3, 426620, Note_off_c, 1, 50, 100
3, 426624, Note_on_c, 1, 49, 110
3, 427004, Note_off_c, 1, 43, 100
3, 427004, Note_off_c, 1, 46, 100
3, 427004, Note_off_c, 1, 49, 100
3, 427008, Note_on_c, 1, 50, 110
3, 427008, Note_on_c, 1, 45, 110
3, 427008, Note_on_c, 1, 41, 110
3, 427388, Note_off_c, 1, 50, 100
3, 427388, Note_off_c, 1, 45, 100
3, 427388, Note_off_c, 1, 41, 100
3, 427392, Note_on_c, 1, 62, 110
3, 427392, Note_on_c, 1, 57, 110
3, 427392, Note_on_c, 1, 53, 110
3, 427772, Note_off_c, 1, 62, 100
3, 427772, Note_off_c, 1, 57, 100
3, 427772, Note_off_c, 1, 53, 100
3, 427776, Note_on_c, 1, 63, 110
3, 427776, Note_on_c, 1, 58, 110
3, 427776, Note_on_c, 1, 55, 110
3, 429308, Note_off_c, 1, 63, 100
3, 429312, Note_on_c, 1, 62, 110
3, 429692, Note_off_c, 1, 62, 100
3, 429696, Note_on_c, 1, 61, 110
3, 430076, Note_off_c, 1, 55, 100
3, 430076, Note_off_c, 1, 58, 100
3, 430076, Note_off_c, 1, 61, 100
3, 430080, Note_on_c, 1, 62, 110
3, 430080, Note_on_c, 1, 57, 110
3, 430080, Note_on_c, 1, 53, 110
3, 430460, Note_off_c, 1, 62, 100
3, 430460, Note_off_c, 1, 57, 100
3, 430460, Note_off_c, 1, 53, 100
3, 430464, Note_on_c, 1, 69, 110
3, 430464, Note_on_c, 1, 65, 110
3, 430844, Note_off_c, 1, 69, 100
3, 430844, Note_off_c, 1, 65, 100
3, 430848, Note_on_c, 1, 70, 110
3, 430848, Note_on_c, 1, 67, 110
3, 431996, Note_off_c, 1, 67, 100
3, 431996, Note_off_c, 1, 70, 100
3, 432000, Note_on_c, 1, 71, 110
3, 432000, Note_on_c, 1, 68, 110
3, 432380, Note_off_c, 1, 71, 100
3, 432380, Note_off_c, 1, 68, 100
3, 432384, Note_on_c, 1, 72, 110
3, 432384, Note_on_c, 1, 69, 110
3, 433532, Note_off_c, 1, 69, 100
3, 433532, Note_off_c, 1, 72, 100
3, 433536, Note_on_c, 1, 72, 110
3, 433536, Note_on_c, 1, 69, 110
3, 433916, Note_off_c, 1, 72, 100
3, 433916, Note_off_c, 1, 69, 100
3, 433920, Note_on_c, 1, 74, 110
3, 433920, Note_on_c, 1, 70, 110
3, 434300, Note_off_c, 1, 74, 100
3, 434300, Note_off_c, 1, 70, 100
3, 434304, Note_on_c, 1, 72, 110
3, 434304, Note_on_c, 1, 66, 110
3, 434684, Note_off_c, 1, 72, 100
3, 434684, Note_off_c, 1, 66, 100
3, 434688, Note_on_c, 1, 70, 110
3, 434688, Note_on_c, 1, 67, 110
3, 435068, Note_off_c, 1, 70, 100
3, 435068, Note_off_c, 1, 67, 100
3, 435072, Note_on_c, 1, 67, 96
3, 435072, Note_on_c, 1, 63, 96
3, 435072, Note_on_c, 1, 55, 96
3, 435452, Note_off_c, 1, 67, 100
3, 435452, Note_off_c, 1, 63, 100
3, 435452, Note_off_c, 1, 55, 100
3, 435456, Note_on_c, 1, 65, 81
3, 435456, Note_on_c, 1, 62, 81
3, 435456, Note_on_c, 1, 57, 81
3, 435836, Note_off_c, 1, 65, 100
3, 435836, Note_off_c, 1, 62, 100
3, 435840, Note_on_c, 1, 64, 80
3, 435840, Note_on_c, 1, 61, 80
3, 436220, Note_off_c, 1, 57, 100
3, 436220, Note_off_c, 1, 64, 100
3, 436220, Note_off_c, 1, 61, 100
3, 436224, Note_on_c, 1, 62, 110
3, 436224, Note_on_c, 1, 50, 110
3, 436604, Note_off_c, 1, 62, 100
3, 436604, Note_off_c, 1, 50, 100
3, 436608, Note_on_c, 1, 38, 110
3, 436988, Note_off_c, 1, 38, 100
3, 436992, Note_on_c, 1, 39, 110
3, 438524, Note_off_c, 1, 39, 100
3, 438528, Note_on_c, 1, 38, 110
3, 438908, Note_off_c, 1, 38, 100
3, 438912, Note_on_c, 1, 37, 110
3, 439292, Note_off_c, 1, 37, 100
3, 439296, Note_on_c, 1, 38, 110
3, 439676, Note_off_c, 1, 38, 100
3, 439680, Note_on_c, 1, 38, 110
3, 440060, Note_off_c, 1, 38, 100
3, 440064, Note_on_c, 1, 39, 110
3, 441596, Note_off_c, 1, 39, 100
3, 441600, Note_on_c, 1, 38, 110
3, 441980, Note_off_c, 1, 38, 100
3, 441984, Note_on_c, 1, 37, 110
3, 442364, Note_off_c, 1, 37, 100
3, 442368, Note_on_c, 1, 38, 110
3, 442748, Note_off_c, 1, 38, 100
3, 442752, Note_on_c, 1, 38, 110
3, 443132, Note_off_c, 1, 38, 100
3, 443136, Note_on_c, 1, 39, 110
3, 444668, Note_off_c, 1, 39, 100
3, 444672, Note_on_c, 1, 38, 110
3, 445052, Note_off_c, 1, 38, 100
3, 445056, Note_on_c, 1, 37, 80
3, 445436, Note_off_c, 1, 37, 100
3, 445440, Note_on_c, 1, 36, 80
3, 445628, Note_off_c, 1, 36, 100
3, 445632, Note_on_c, 1, 35, 80
3, 445820, Note_off_c, 1, 35, 100
3, 445824, Note_on_c, 1, 36, 80
3, 446012, Note_off_c, 1, 36, 100
3, 446016, Note_on_c, 1, 38, 80
3, 446204, Note_off_c, 1, 38, 100
3, 446208, Note_on_c, 1, 40, 80
3, 446396, Note_off_c, 1, 40, 100
3, 446400, Note_on_c, 1, 36, 80
3, 446588, Note_off_c, 1, 36, 100
3, 446592, Note_on_c, 1, 38, 80
3, 446780, Note_off_c, 1, 38, 100
3, 446784, Note_on_c, 1, 40, 80
3, 446972, Note_off_c, 1, 40, 100
3, 446976, Note_on_c, 1, 41, 80
3, 447164, Note_off_c, 1, 41, 100
3, 447168, Note_on_c, 1, 40, 80
3, 447356, Note_off_c, 1, 40, 100
3, 447360, Note_on_c, 1, 41, 80
3, 447548, Note_off_c, 1, 41, 100
3, 447552, Note_on_c, 1, 43, 80
3, 447740, Note_off_c, 1, 43, 100
3, 447744, Note_on_c, 1, 45, 80
3, 447932, Note_off_c, 1, 45, 100
3, 447936, Note_on_c, 1, 44, 80
3, 448124, Note_off_c, 1, 44, 100
3, 448128, Note_on_c, 1, 45, 80
3, 448316, Note_off_c, 1, 45, 100
3, 448320, Note_on_c, 1, 44, 80
3, 448508, Note_off_c, 1, 44, 100
3, 448512, Note_on_c, 1, 45, 80
3, 448700, Note_off_c, 1, 45, 100
3, 448704, Note_on_c, 1, 44, 80
3, 448892, Note_off_c, 1, 44, 100
3, 448896, Note_on_c, 1, 45, 80
3, 449084, Note_off_c, 1, 45, 100
3, 449088, Note_on_c, 1, 47, 80
3, 449276, Note_off_c, 1, 47, 100
3, 449280, Note_on_c, 1, 49, 80
3, 449468, Note_off_c, 1, 49, 100
3, 449472, Note_on_c, 1, 45, 80
3, 449660, Note_off_c, 1, 45, 100
3, 449664, Note_on_c, 1, 47, 80
3, 449852, Note_off_c, 1, 47, 100
3, 449856, Note_on_c, 1, 49, 80
3, 450044, Note_off_c, 1, 49, 100
3, 450048, Note_on_c, 1, 50, 80
3, 450236, Note_off_c, 1, 50, 100
3, 450240, Note_on_c, 1, 49, 80
3, 450428, Note_off_c, 1, 49, 100
3, 450432, Note_on_c, 1, 50, 80
3, 450620, Note_off_c, 1, 50, 100
3, 450624, Note_on_c, 1, 52, 80
3, 450812, Note_off_c, 1, 52, 100
3, 450816, Note_on_c, 1, 53, 80
3, 451004, Note_off_c, 1, 53, 100
3, 451008, Note_on_c, 1, 50, 80
3, 451196, Note_off_c, 1, 50, 100
3, 451200, Note_on_c, 1, 52, 80
3, 451388, Note_off_c, 1, 52, 100
3, 451392, Note_on_c, 1, 53, 84
3, 451580, Note_off_c, 1, 53, 100
3, 451584, Note_on_c, 1, 55, 88
3, 451772, Note_off_c, 1, 55, 100
3, 451776, Note_on_c, 1, 54, 92
3, 451964, Note_off_c, 1, 54, 100
3, 451968, Note_on_c, 1, 55, 97
3, 452156, Note_off_c, 1, 55, 100
3, 452160, Note_on_c, 1, 57, 101
3, 452348, Note_off_c, 1, 57, 100
3, 452352, Note_on_c, 1, 58, 105
3, 452540, Note_off_c, 1, 58, 100
3, 452544, Note_on_c, 1, 55, 109
3, 452732, Note_off_c, 1, 55, 100
3, 452736, Note_on_c, 1, 57, 110
3, 452924, Note_off_c, 1, 57, 100
3, 452928, Note_on_c, 1, 58, 108
3, 453116, Note_off_c, 1, 58, 100
3, 453120, Note_on_c, 1, 57, 106
3, 453308, Note_off_c, 1, 57, 100
3, 453312, Note_on_c, 1, 56, 104
3, 453500, Note_off_c, 1, 56, 100
3, 453504, Note_on_c, 1, 57, 102
3, 453692, Note_off_c, 1, 57, 100
3, 453696, Note_on_c, 1, 56, 99
3, 453884, Note_off_c, 1, 56, 100
3, 453888, Note_on_c, 1, 57, 97
3, 454076, Note_off_c, 1, 57, 100
3, 454080, Note_on_c, 1, 56, 95
3, 454268, Note_off_c, 1, 56, 100
3, 454272, Note_on_c, 1, 57, 93
3, 454460, Note_off_c, 1, 57, 100
3, 454464, Note_on_c, 1, 45, 91
3, 454652, Note_off_c, 1, 45, 100
3, 454656, Note_on_c, 1, 45, 80
3, 454656, Note_on_c, 1, 57, 80
3, 454656, Note_on_c, 1, 53, 80
3, 455420, Note_off_c, 1, 57, 100
3, 455420, Note_off_c, 1, 53, 100
3, 455424, Note_on_c, 1, 55, 80
3, 455424, Note_on_c, 1, 52, 80
3, 456188, Note_off_c, 1, 55, 100
3, 456188, Note_off_c, 1, 52, 100
3, 456192, Note_on_c, 1, 53, 80
3, 456192, Note_on_c, 1, 50, 80
3, 456956, Note_off_c, 1, 53, 100
3, 456956, Note_off_c, 1, 50, 100
3, 456960, Note_on_c, 1, 52, 80
3, 456960, Note_on_c, 1, 49, 80
3, 457724, Note_off_c, 1, 45, 100
3, 457724, Note_off_c, 1, 52, 100
3, 457724, Note_off_c, 1, 49, 100
3, 457728, Note_on_c, 1, 50, 80
3, 457916, Note_off_c, 1, 50, 100
3, 457920, Note_on_c, 1, 45, 80
3, 458108, Note_off_c, 1, 45, 100
3, 458112, Note_on_c, 1, 41, 80
3, 458300, Note_off_c, 1, 41, 100
3, 458304, Note_on_c, 1, 53, 80
3, 458492, Note_off_c, 1, 53, 100
3, 458496, Note_on_c, 1, 52, 80
3, 458684, Note_off_c, 1, 52, 100
3, 458688, Note_on_c, 1, 49, 80
3, 458876, Note_off_c, 1, 49, 100
3, 458880, Note_on_c, 1, 45, 80
3, 459068, Note_off_c, 1, 45, 100
3, 459072, Note_on_c, 1, 55, 80
3, 459260, Note_off_c, 1, 55, 100
3, 459264, Note_on_c, 1, 53, 80
3, 459452, Note_off_c, 1, 53, 100
3, 459456, Note_on_c, 1, 50, 80
3, 459644, Note_off_c, 1, 50, 100
3, 459648, Note_on_c, 1, 45, 80
3, 459836, Note_off_c, 1, 45, 100
3, 459840, Note_on_c, 1, 57, 80
3, 460028, Note_off_c, 1, 57, 100
3, 460032, Note_on_c, 1, 56, 80
3, 460220, Note_off_c, 1, 56, 100
3, 460224, Note_on_c, 1, 57, 80
3, 460412, Note_off_c, 1, 57, 100
3, 460416, Note_on_c, 1, 56, 80
3, 460604, Note_off_c, 1, 56, 100
3, 460608, Note_on_c, 1, 57, 80
3, 460796, Note_off_c, 1, 57, 100
3, 460800, Note_on_c, 1, 45, 80
3, 461184, Note_on_c, 1, 57, 80
3, 461184, Note_on_c, 1, 53, 80
3, 461564, Note_off_c, 1, 45, 100
3, 461568, Note_on_c, 1, 45, 80
3, 461948, Note_off_c, 1, 57, 100
3, 461948, Note_off_c, 1, 53, 100
3, 461952, Note_on_c, 1, 55, 80
3, 461952, Note_on_c, 1, 52, 80
3, 462332, Note_off_c, 1, 45, 100
3, 462336, Note_on_c, 1, 45, 80
3, 462716, Note_off_c, 1, 52, 100
3, 462716, Note_off_c, 1, 55, 100
3, 462720, Note_on_c, 1, 53, 80
3, 462720, Note_on_c, 1, 50, 80
3, 463100, Note_off_c, 1, 45, 100
3, 463104, Note_on_c, 1, 45, 80
3, 463484, Note_off_c, 1, 53, 100
3, 463484, Note_off_c, 1, 50, 100
3, 463488, Note_on_c, 1, 52, 80
3, 463488, Note_on_c, 1, 49, 80
3, 463868, Note_off_c, 1, 45, 100
3, 463868, Note_off_c, 1, 52, 100
3, 463868, Note_off_c, 1, 49, 100
3, 463872, Note_on_c, 1, 50, 80
3, 464060, Note_off_c, 1, 50, 100
3, 464064, Note_on_c, 1, 45, 80
3, 464252, Note_off_c, 1, 45, 100
3, 464256, Note_on_c, 1, 41, 80
3, 464444, Note_off_c, 1, 41, 100
3, 464448, Note_on_c, 1, 53, 80
3, 464636, Note_off_c, 1, 53, 100
3, 464640, Note_on_c, 1, 52, 80
3, 464828, Note_off_c, 1, 52, 100
3, 464832, Note_on_c, 1, 49, 80
3, 465020, Note_off_c, 1, 49, 100
3, 465024, Note_on_c, 1, 45, 80
3, 465212, Note_off_c, 1, 45, 100
3, 465216, Note_on_c, 1, 55, 80
3, 465404, Note_off_c, 1, 55, 100
3, 465408, Note_on_c, 1, 53, 80
3, 465596, Note_off_c, 1, 53, 100
3, 465600, Note_on_c, 1, 50, 80
3, 465788, Note_off_c, 1, 50, 100
3, 465792, Note_on_c, 1, 45, 80
3, 465980, Note_off_c, 1, 45, 100
3, 465984, Note_on_c, 1, 57, 80
3, 466172, Note_off_c, 1, 57, 100
3, 466176, Note_on_c, 1, 56, 80
3, 466364, Note_off_c, 1, 56, 100
3, 466368, Note_on_c, 1, 57, 80
3, 466556, Note_off_c, 1, 57, 100
3, 466560, Note_on_c, 1, 56, 80
3, 466748, Note_off_c, 1, 56, 100
3, 466752, Note_on_c, 1, 57, 80
3, 466940, Note_off_c, 1, 57, 100
3, 466944, Note_on_c, 1, 45, 80
3, 467328, Note_on_c, 1, 57, 80
3, 467328, Note_on_c, 1, 53, 80
3, 467708, Note_off_c, 1, 45, 100
3, 467712, Note_on_c, 1, 45, 80
3, 468092, Note_off_c, 1, 57, 100
3, 468092, Note_off_c, 1, 53, 100
3, 468096, Note_on_c, 1, 55, 80
3, 468096, Note_on_c, 1, 52, 80
3, 468476, Note_off_c, 1, 45, 100
3, 468480, Note_on_c, 1, 45, 80
3, 468860, Note_off_c, 1, 52, 100
3, 468860, Note_off_c, 1, 55, 100
3, 468864, Note_on_c, 1, 53, 80
3, 468864, Note_on_c, 1, 50, 80
3, 469244, Note_off_c, 1, 45, 100
3, 469248, Note_on_c, 1, 45, 80
3, 469628, Note_off_c, 1, 53, 100
3, 469628, Note_off_c, 1, 50, 100
3, 469632, Note_on_c, 1, 52, 80
3, 469632, Note_on_c, 1, 49, 80
3, 470012, Note_off_c, 1, 45, 100
3, 470012, Note_off_c, 1, 52, 100
3, 470012, Note_off_c, 1, 49, 100
3, 470016, Note_on_c, 1, 38, 80
3, 470400, Note_on_c, 1, 50, 80
3, 470780, Note_off_c, 1, 38, 100
3, 470780, Note_off_c, 1, 50, 100
3, 470784, Note_on_c, 1, 45, 80
3, 471168, Note_on_c, 1, 52, 80
3, 471168, Note_on_c, 1, 49, 80
3, 471548, Note_off_c, 1, 45, 100
3, 471548, Note_off_c, 1, 52, 100
3, 471548, Note_off_c, 1, 49, 100
3, 471552, Note_on_c, 1, 50, 80
3, 471936, Note_on_c, 1, 53, 80
3, 472316, Note_off_c, 1, 50, 100
3, 472316, Note_off_c, 1, 53, 100
3, 472320, Note_on_c, 1, 45, 80
3, 472704, Note_on_c, 1, 52, 80
3, 472704, Note_on_c, 1, 49, 80
3, 473084, Note_off_c, 1, 45, 100
3, 473084, Note_off_c, 1, 52, 100
3, 473084, Note_off_c, 1, 49, 100
3, 473088, Note_on_c, 1, 50, 80
3, 473088, Note_on_c, 1, 38, 80
3, 473468, Note_off_c, 1, 50, 100
3, 473468, Note_off_c, 1, 38, 100
3, 473856, Note_on_c, 1, 50, 80
3, 473856, Note_on_c, 1, 38, 80
3, 474620, Note_off_c, 1, 50, 100
3, 474620, Note_off_c, 1, 38, 100
3, 474624, Note_on_c, 1, 50, 94
3, 474624, Note_on_c, 1, 38, 94
3, 475388, Note_off_c, 1, 50, 100
3, 475388, Note_off_c, 1, 38, 100
3, 475392, Note_on_c, 1, 50, 109
3, 475392, Note_on_c, 1, 38, 109
3, 476156, Note_off_c, 1, 50, 100
3, 476156, Note_off_c, 1, 38, 100
3, 476160, Control_c, 1, 64, 127
3, 476160, Note_on_c, 1, 38, 70
3, 476352, Note_on_c, 1, 33, 70
3, 476544, Note_on_c, 1, 29, 70
3, 476732, Note_off_c, 1, 38, 100
3, 476736, Note_on_c, 1, 41, 70
3, 476924, Note_off_c, 1, 33, 100
3, 476928, Note_on_c, 1, 38, 70
3, 477116, Note_off_c, 1, 29, 100
3, 477120, Note_on_c, 1, 33, 70
3, 477308, Note_off_c, 1, 41, 100
3, 477312, Note_on_c, 1, 45, 70
3, 477500, Note_off_c, 1, 38, 100
3, 477504, Note_on_c, 1, 41, 70
3, 477692, Note_off_c, 1, 33, 100
3, 477696, Note_on_c, 1, 38, 70
3, 477884, Note_off_c, 1, 45, 100
3, 477888, Note_on_c, 1, 33, 70
3, 478076, Note_off_c, 1, 41, 100
3, 478080, Note_on_c, 1, 29, 70
3, 478268, Note_off_c, 1, 38, 100
3, 478272, Note_on_c, 1, 41, 70
3, 478460, Note_off_c, 1, 33, 100
3, 478464, Note_on_c, 1, 38, 70
3, 478652, Note_off_c, 1, 29, 100
3, 478656, Note_on_c, 1, 33, 70
3, 478844, Note_off_c, 1, 41, 100
3, 478848, Note_on_c, 1, 45, 70
3, 479036, Note_off_c, 1, 38, 100
3, 479040, Note_on_c, 1, 41, 70
3, 479228, Note_off_c, 1, 33, 100
3, 479232, Note_on_c, 1, 38, 70
3, 479420, Note_off_c, 1, 45, 100
3, 479424, Note_on_c, 1, 33, 70
3, 479612, Note_off_c, 1, 41, 100
3, 479616, Note_on_c, 1, 29, 70
3, 479804, Note_off_c, 1, 38, 100
3, 479808, Note_on_c, 1, 41, 70
3, 479996, Note_off_c, 1, 33, 100
3, 480000, Note_on_c, 1, 38, 70
3, 480188, Note_off_c, 1, 29, 100
3, 480192, Note_on_c, 1, 33, 70
3, 480380, Note_off_c, 1, 41, 100
3, 480384, Note_on_c, 1, 45, 70
3, 480572, Note_off_c, 1, 38, 100
3, 480576, Note_on_c, 1, 41, 70
3, 480764, Note_off_c, 1, 33, 100
3, 480768, Note_on_c, 1, 38, 70
3, 480956, Note_off_c, 1, 45, 100
3, 480960, Note_on_c, 1, 33, 70
3, 481148, Note_off_c, 1, 41, 100
3, 481152, Note_on_c, 1, 29, 70
3, 481340, Note_off_c, 1, 38, 100
3, 481344, Note_on_c, 1, 41, 70
3, 481532, Note_off_c, 1, 33, 100
3, 481536, Note_on_c, 1, 38, 70
3, 481724, Note_off_c, 1, 29, 100
3, 481728, Note_on_c, 1, 33, 70
3, 481916, Note_off_c, 1, 41, 100
3, 481920, Note_on_c, 1, 45, 70
3, 482108, Note_off_c, 1, 38, 100
3, 482112, Note_on_c, 1, 41, 70
3, 482300, Note_off_c, 1, 33, 100
3, 482304, Note_on_c, 1, 38, 70
3, 482492, Note_off_c, 1, 45, 100
3, 482496, Note_on_c, 1, 33, 70
3, 482684, Note_off_c, 1, 41, 100
3, 482688, Note_on_c, 1, 45, 70
3, 482876, Note_off_c, 1, 38, 100
3, 482880, Note_on_c, 1, 41, 70
3, 483068, Note_off_c, 1, 33, 100
3, 483072, Note_on_c, 1, 38, 70
3, 483260, Note_off_c, 1, 45, 100
3, 483264, Note_on_c, 1, 33, 70
3, 483452, Note_off_c, 1, 41, 100
3, 483456, Note_on_c, 1, 45, 70
3, 483644, Note_off_c, 1, 38, 100
3, 483648, Note_on_c, 1, 41, 70
3, 483836, Note_off_c, 1, 33, 100
3, 483840, Note_on_c, 1, 38, 70
3, 484028, Note_off_c, 1, 45, 100
3, 484032, Note_on_c, 1, 33, 70
3, 484220, Note_off_c, 1, 41, 100
3, 484224, Note_on_c, 1, 45, 70
3, 484412, Note_off_c, 1, 38, 100
3, 484416, Note_on_c, 1, 41, 70
3, 484604, Note_off_c, 1, 33, 100
3, 484608, Note_on_c, 1, 38, 70
3, 484796, Note_off_c, 1, 45, 100
3, 484800, Note_on_c, 1, 33, 70
3, 484988, Note_off_c, 1, 41, 100
3, 484992, Note_on_c, 1, 45, 70
3, 485180, Note_off_c, 1, 38, 100
3, 485184, Note_on_c, 1, 41, 70
3, 485368, Control_c, 1, 64, 0
3, 485372, Note_off_c, 1, 33, 100
3, 485372, Note_off_c, 1, 45, 100
3, 485372, Note_off_c, 1, 41, 100
3, 485376, Note_on_c, 1, 38, 70
3, 486908, Note_off_c, 1, 38, 100
3, 486912, Note_on_c, 1, 50, 70
3, 486912, Note_on_c, 1, 45, 70
3, 486912, Note_on_c, 1, 38, 70
3, 488444, Note_off_c, 1, 50, 100
3, 488444, Note_off_c, 1, 45, 100
3, 488444, Note_off_c, 1, 38, 100
3, 488448, Note_on_c, 1, 50, 70
3, 488448, Note_on_c, 1, 45, 70
3, 488448, Note_on_c, 1, 38, 70
3, 491516, Note_off_c, 1, 38, 100
3, 491516, Note_off_c, 1, 45, 100
3, 491516, Note_off_c, 1, 50, 100
3, 491516, End_track
0, 0, End_of_file
