0, 0, Header, 1, 3, 384
1, 0, Start_track
1, 0, Title_t, "L.v.Beethoven 3mov - Piano Sonata No.17 in D minor Op.31-2\000"
1, 0, Copyright_t, "Copyright(C) 1995-2009, Suzuki Software\000"
1, 0, Sequencer_specific, 9, 67, 123, 0, 88, 70, 48, 50, 0, 1
1, 0, Text_t, "XFhd:2000/07/14:JP:Classical::::L.v.Beethoven:::Kaoru Suzuki\000"
1, 0, Text_t, "XFln:JP:\203s\203A\203m\203\\\203i\203^\221æ17\224Ô\203j\222Z\222²\215ì\225i31-2\201`\221æ3\212y\217Í:L.v.\203x\201[\203g\201[\203\224\203F\203\223:::\227é\202¿\202á\202ñ:\227é\202¿\202á\202ñ\000"
1, 0, Time_signature, 3, 3, 96, 8
1, 0, Sequencer_specific, 3, 0, 0, 65
1, 0, Sequencer_specific, 5, 0, 0, 119, 14, 0
1, 0, Tempo, 666666
1, 576, Tempo, 645161
1, 17856, Tempo, 631578
1, 36288, Tempo, 685714
1, 36960, Tempo, 652173
1, 37056, Tempo, 631578
1, 52416, Tempo, 645161
1, 71712, Tempo, 625000
1, 90336, Tempo, 689655
1, 91104, Tempo, 652173
1, 91392, Tempo, 631578
1, 106560, Tempo, 645161
1, 111168, Tempo, 625000
1, 113472, Tempo, 648648
1, 115776, Tempo, 625000
1, 168384, Tempo, 645161
1, 168576, Tempo, 705882
1, 168864, Tempo, 666666
1, 169056, Tempo, 631578
1, 176640, Tempo, 645161
1, 177024, Tempo, 666666
1, 177984, Tempo, 645161
1, 195840, Tempo, 625000
1, 209472, Tempo, 652173
1, 209856, Tempo, 685714
1, 210528, Tempo, 631578
1, 237888, Tempo, 645161
1, 254592, Tempo, 652173
1, 254976, Tempo, 659340
1, 255360, Tempo, 666666
1, 255744, Tempo, 645161
1, 256320, Tempo, 631578
1, 283392, Tempo, 648648
1, 283584, Tempo, 701754
1, 283776, Tempo, 740740
1, 283872, Tempo, 1000000
1, 283872, End_track
2, 0, Start_track
2, 0, Title_t, "Right"
2, 0, Control_c, 0, 0, 0
2, 0, Program_c, 0, 0
2, 0, Control_c, 0, 7, 100
2, 0, Control_c, 0, 10, 72
2, 0, Control_c, 0, 91, 0
2, 0, Key_signature, -1, "major"
2, 288, Note_on_c, 0, 69, 80
2, 384, Note_on_c, 0, 77, 80
2, 476, Note_off_c, 0, 69, 100
2, 480, Note_on_c, 0, 76, 80
2, 572, Note_off_c, 0, 77, 100
2, 576, Note_on_c, 0, 74, 80
2, 668, Note_off_c, 0, 76, 100
2, 764, Note_off_c, 0, 74, 100
2, 864, Note_on_c, 0, 69, 80
2, 960, Note_on_c, 0, 77, 80
2, 1052, Note_off_c, 0, 69, 100
2, 1056, Note_on_c, 0, 76, 80
2, 1148, Note_off_c, 0, 77, 100
2, 1152, Note_on_c, 0, 74, 80
2, 1244, Note_off_c, 0, 76, 100
2, 1340, Note_off_c, 0, 74, 100
2, 1440, Note_on_c, 0, 69, 80
2, 1536, Note_on_c, 0, 77, 80
2, 1628, Note_off_c, 0, 69, 100
2, 1632, Note_on_c, 0, 76, 80
2, 1724, Note_off_c, 0, 77, 100
2, 1728, Note_on_c, 0, 74, 80
2, 1820, Note_off_c, 0, 76, 100
2, 1916, Note_off_c, 0, 74, 100
2, 2016, Note_on_c, 0, 69, 80
2, 2112, Note_on_c, 0, 77, 80
2, 2204, Note_off_c, 0, 69, 100
2, 2208, Note_on_c, 0, 74, 80
2, 2300, Note_off_c, 0, 77, 100
2, 2304, Note_on_c, 0, 76, 80
2, 2396, Note_off_c, 0, 74, 100
2, 2492, Note_off_c, 0, 76, 100
2, 2592, Note_on_c, 0, 69, 80
2, 2688, Note_on_c, 0, 79, 80
2, 2780, Note_off_c, 0, 69, 100
2, 2784, Note_on_c, 0, 77, 80
2, 2876, Note_off_c, 0, 79, 100
2, 2880, Note_on_c, 0, 76, 80
2, 2972, Note_off_c, 0, 77, 100
2, 3068, Note_off_c, 0, 76, 100
2, 3168, Note_on_c, 0, 69, 80
2, 3264, Note_on_c, 0, 79, 80
2, 3356, Note_off_c, 0, 69, 100
2, 3360, Note_on_c, 0, 77, 80
2, 3452, Note_off_c, 0, 79, 100
2, 3456, Note_on_c, 0, 76, 80
2, 3548, Note_off_c, 0, 77, 100
2, 3644, Note_off_c, 0, 76, 100
2, 3744, Note_on_c, 0, 69, 80
2, 3840, Note_on_c, 0, 79, 80
2, 3932, Note_off_c, 0, 69, 100
2, 3936, Note_on_c, 0, 77, 80
2, 4028, Note_off_c, 0, 79, 100
2, 4032, Note_on_c, 0, 76, 80
2, 4124, Note_off_c, 0, 77, 100
2, 4220, Note_off_c, 0, 76, 100
2, 4320, Note_on_c, 0, 69, 80
2, 4416, Note_on_c, 0, 79, 80
2, 4508, Note_off_c, 0, 69, 100
2, 4512, Note_on_c, 0, 76, 80
2, 4604, Note_off_c, 0, 79, 100
2, 4608, Note_on_c, 0, 77, 80
2, 4700, Note_off_c, 0, 76, 100
2, 4796, Note_off_c, 0, 77, 100
2, 4896, Note_on_c, 0, 74, 83
2, 4992, Note_on_c, 0, 81, 84
2, 5084, Note_off_c, 0, 74, 100
2, 5088, Note_on_c, 0, 86, 85
2, 5180, Note_off_c, 0, 81, 100
2, 5184, Note_on_c, 0, 82, 86
2, 5276, Note_off_c, 0, 86, 100
2, 5372, Note_off_c, 0, 82, 100
2, 5472, Note_on_c, 0, 70, 89
2, 5568, Note_on_c, 0, 74, 91
2, 5660, Note_off_c, 0, 70, 100
2, 5664, Note_on_c, 0, 82, 92
2, 5756, Note_off_c, 0, 74, 100
2, 5760, Note_on_c, 0, 79, 93
2, 5852, Note_off_c, 0, 82, 100
2, 5948, Note_off_c, 0, 79, 100
2, 6048, Note_on_c, 0, 67, 96
2, 6144, Note_on_c, 0, 70, 97
2, 6236, Note_off_c, 0, 67, 100
2, 6240, Note_on_c, 0, 79, 98
2, 6332, Note_off_c, 0, 70, 100
2, 6336, Note_on_c, 0, 76, 100
2, 6428, Note_off_c, 0, 79, 100
2, 6524, Note_off_c, 0, 76, 100
2, 6624, Note_on_c, 0, 64, 96
2, 6720, Note_on_c, 0, 69, 94
2, 6812, Note_off_c, 0, 64, 100
2, 6816, Note_on_c, 0, 76, 92
2, 6908, Note_off_c, 0, 69, 100
2, 6912, Note_on_c, 0, 77, 91
2, 7004, Note_off_c, 0, 76, 100
2, 7100, Note_off_c, 0, 77, 100
2, 7200, Note_on_c, 0, 65, 86
2, 7296, Note_on_c, 0, 69, 84
2, 7388, Note_off_c, 0, 65, 100
2, 7392, Note_on_c, 0, 77, 82
2, 7484, Note_off_c, 0, 69, 100
2, 7488, Note_on_c, 0, 74, 80
2, 7580, Note_off_c, 0, 77, 100
2, 7676, Note_off_c, 0, 74, 100
2, 7776, Note_on_c, 0, 62, 87
2, 7872, Note_on_c, 0, 69, 89
2, 7964, Note_off_c, 0, 62, 100
2, 7968, Note_on_c, 0, 74, 92
2, 8060, Note_off_c, 0, 69, 100
2, 8064, Note_on_c, 0, 73, 94
2, 8156, Note_off_c, 0, 74, 100
2, 8252, Note_off_c, 0, 73, 100
2, 8352, Note_on_c, 0, 61, 102
2, 8448, Note_on_c, 0, 69, 104
2, 8540, Note_off_c, 0, 61, 100
2, 8544, Note_on_c, 0, 73, 107
2, 8636, Note_off_c, 0, 69, 100
2, 8640, Note_on_c, 0, 74, 110
2, 8732, Note_off_c, 0, 73, 100
2, 8828, Note_off_c, 0, 74, 100
2, 9024, Note_on_c, 0, 65, 110
2, 9120, Note_on_c, 0, 69, 110
2, 9212, Note_off_c, 0, 65, 100
2, 9216, Note_on_c, 0, 74, 110
2, 9308, Note_off_c, 0, 69, 100
2, 9312, Note_on_c, 0, 77, 110
2, 9404, Note_off_c, 0, 74, 100
2, 9408, Note_on_c, 0, 81, 110
2, 9500, Note_off_c, 0, 77, 100
2, 9504, Note_on_c, 0, 77, 110
2, 9596, Note_off_c, 0, 81, 100
2, 9600, Note_on_c, 0, 86, 110
2, 9692, Note_off_c, 0, 77, 100
2, 9696, Note_on_c, 0, 81, 110
2, 9788, Note_off_c, 0, 86, 100
2, 9792, Note_on_c, 0, 82, 86
2, 9884, Note_off_c, 0, 81, 100
2, 9980, Note_off_c, 0, 82, 100
2, 10080, Note_on_c, 0, 70, 89
2, 10176, Note_on_c, 0, 74, 91
2, 10268, Note_off_c, 0, 70, 100
2, 10272, Note_on_c, 0, 82, 92
2, 10364, Note_off_c, 0, 74, 100
2, 10368, Note_on_c, 0, 79, 93
2, 10460, Note_off_c, 0, 82, 100
2, 10556, Note_off_c, 0, 79, 100
2, 10656, Note_on_c, 0, 67, 96
2, 10752, Note_on_c, 0, 70, 97
2, 10844, Note_off_c, 0, 67, 100
2, 10848, Note_on_c, 0, 79, 98
2, 10940, Note_off_c, 0, 70, 100
2, 10944, Note_on_c, 0, 76, 100
2, 11036, Note_off_c, 0, 79, 100
2, 11132, Note_off_c, 0, 76, 100
2, 11232, Note_on_c, 0, 64, 96
2, 11328, Note_on_c, 0, 69, 94
2, 11420, Note_off_c, 0, 64, 100
2, 11424, Note_on_c, 0, 76, 92
2, 11516, Note_off_c, 0, 69, 100
2, 11520, Note_on_c, 0, 77, 91
2, 11612, Note_off_c, 0, 76, 100
2, 11708, Note_off_c, 0, 77, 100
2, 11808, Note_on_c, 0, 65, 86
2, 11904, Note_on_c, 0, 69, 84
2, 11996, Note_off_c, 0, 65, 100
2, 12000, Note_on_c, 0, 77, 82
2, 12092, Note_off_c, 0, 69, 100
2, 12096, Note_on_c, 0, 74, 80
2, 12188, Note_off_c, 0, 77, 100
2, 12284, Note_off_c, 0, 74, 100
2, 12384, Note_on_c, 0, 62, 87
2, 12480, Note_on_c, 0, 69, 89
2, 12572, Note_off_c, 0, 62, 100
2, 12576, Note_on_c, 0, 74, 92
2, 12668, Note_off_c, 0, 69, 100
2, 12672, Note_on_c, 0, 73, 94
2, 12764, Note_off_c, 0, 74, 100
2, 12860, Note_off_c, 0, 73, 100
2, 12960, Note_on_c, 0, 61, 102
2, 13056, Note_on_c, 0, 69, 104
2, 13148, Note_off_c, 0, 61, 100
2, 13152, Note_on_c, 0, 73, 107
2, 13244, Note_off_c, 0, 69, 100
2, 13248, Note_on_c, 0, 74, 110
2, 13340, Note_off_c, 0, 73, 100
2, 13392, Note_on_c, 0, 69, 108
2, 13436, Note_off_c, 0, 74, 100
2, 13440, Note_on_c, 0, 81, 107
2, 13484, Note_off_c, 0, 69, 100
2, 13820, Note_off_c, 0, 81, 100
2, 13824, Note_on_c, 0, 80, 101
2, 13920, Note_on_c, 0, 79, 99
2, 13964, Note_off_c, 0, 80, 100
2, 14016, Note_on_c, 0, 78, 97
2, 14060, Note_off_c, 0, 79, 100
2, 14112, Note_on_c, 0, 77, 96
2, 14156, Note_off_c, 0, 78, 100
2, 14208, Note_on_c, 0, 76, 94
2, 14252, Note_off_c, 0, 77, 100
2, 14304, Note_on_c, 0, 75, 92
2, 14348, Note_off_c, 0, 76, 100
2, 14400, Note_on_c, 0, 74, 80
2, 14444, Note_off_c, 0, 75, 100
2, 14588, Note_off_c, 0, 74, 100
2, 14688, Note_on_c, 0, 62, 87
2, 14784, Note_on_c, 0, 69, 89
2, 14876, Note_off_c, 0, 62, 100
2, 14880, Note_on_c, 0, 74, 92
2, 14972, Note_off_c, 0, 69, 100
2, 14976, Note_on_c, 0, 73, 94
2, 15068, Note_off_c, 0, 74, 100
2, 15164, Note_off_c, 0, 73, 100
2, 15264, Note_on_c, 0, 61, 102
2, 15360, Note_on_c, 0, 69, 104
2, 15452, Note_off_c, 0, 61, 100
2, 15456, Note_on_c, 0, 73, 107
2, 15548, Note_off_c, 0, 69, 100
2, 15552, Note_on_c, 0, 74, 110
2, 15644, Note_off_c, 0, 73, 100
2, 15696, Note_on_c, 0, 74, 110
2, 15740, Note_off_c, 0, 74, 100
2, 15744, Note_on_c, 0, 86, 110
2, 15788, Note_off_c, 0, 74, 100
2, 16124, Note_off_c, 0, 86, 100
2, 16128, Note_on_c, 0, 85, 110
2, 16224, Note_on_c, 0, 84, 107
2, 16268, Note_off_c, 0, 85, 100
2, 16320, Note_on_c, 0, 83, 104
2, 16364, Note_off_c, 0, 84, 100
2, 16416, Note_on_c, 0, 82, 101
2, 16460, Note_off_c, 0, 83, 100
2, 16512, Note_on_c, 0, 81, 97
2, 16556, Note_off_c, 0, 82, 100
2, 16608, Note_on_c, 0, 80, 94
2, 16652, Note_off_c, 0, 81, 100
2, 16704, Note_on_c, 0, 81, 80
2, 16748, Note_off_c, 0, 80, 100
2, 16892, Note_off_c, 0, 81, 100
2, 16992, Note_on_c, 0, 62, 91
2, 17088, Note_on_c, 0, 69, 94
2, 17180, Note_off_c, 0, 62, 100
2, 17184, Note_on_c, 0, 74, 98
2, 17276, Note_off_c, 0, 69, 100
2, 17280, Note_on_c, 0, 73, 102
2, 17372, Note_off_c, 0, 74, 100
2, 17468, Note_off_c, 0, 73, 100
2, 17568, Note_on_c, 0, 73, 110
2, 17664, Note_on_c, 0, 81, 110
2, 17756, Note_off_c, 0, 73, 100
2, 17760, Note_on_c, 0, 85, 110
2, 17852, Note_off_c, 0, 81, 100
2, 17856, Note_on_c, 0, 86, 110
2, 17948, Note_off_c, 0, 85, 100
2, 17952, Note_on_c, 0, 50, 110
2, 18044, Note_off_c, 0, 86, 100
2, 18048, Note_on_c, 0, 53, 110
2, 18140, Note_off_c, 0, 50, 100
2, 18144, Note_on_c, 0, 57, 110
2, 18236, Note_off_c, 0, 53, 100
2, 18240, Note_on_c, 0, 62, 110
2, 18332, Note_off_c, 0, 57, 100
2, 18428, Note_off_c, 0, 62, 100
2, 18528, Note_on_c, 0, 50, 110
2, 18624, Note_on_c, 0, 53, 110
2, 18716, Note_off_c, 0, 50, 100
2, 18720, Note_on_c, 0, 57, 110
2, 18812, Note_off_c, 0, 53, 100
2, 18816, Note_on_c, 0, 62, 110
2, 18908, Note_off_c, 0, 57, 100
2, 19004, Note_off_c, 0, 62, 100
2, 19104, Note_on_c, 0, 50, 110
2, 19200, Note_on_c, 0, 53, 110
2, 19292, Note_off_c, 0, 50, 100
2, 19296, Note_on_c, 0, 57, 110
2, 19388, Note_off_c, 0, 53, 100
2, 19392, Note_on_c, 0, 62, 110
2, 19484, Note_off_c, 0, 57, 100
2, 19580, Note_off_c, 0, 62, 100
2, 19584, Note_on_c, 0, 50, 110
2, 19680, Note_on_c, 0, 53, 110
2, 19772, Note_off_c, 0, 50, 100
2, 19776, Note_on_c, 0, 59, 110
2, 19868, Note_off_c, 0, 53, 100
2, 19872, Note_on_c, 0, 62, 110
2, 19964, Note_off_c, 0, 59, 100
2, 19968, Note_on_c, 0, 65, 110
2, 20060, Note_off_c, 0, 62, 100
2, 20064, Note_on_c, 0, 71, 110
2, 20156, Note_off_c, 0, 65, 100
2, 20160, Note_on_c, 0, 60, 110
2, 20252, Note_off_c, 0, 71, 100
2, 20256, Note_on_c, 0, 72, 110
2, 20348, Note_off_c, 0, 60, 100
2, 20352, Note_on_c, 0, 64, 110
2, 20444, Note_off_c, 0, 72, 100
2, 20448, Note_on_c, 0, 76, 110
2, 20540, Note_off_c, 0, 64, 100
2, 20544, Note_on_c, 0, 67, 110
2, 20636, Note_off_c, 0, 76, 100
2, 20640, Note_on_c, 0, 79, 110
2, 20732, Note_off_c, 0, 67, 100
2, 20736, Note_on_c, 0, 72, 110
2, 20828, Note_off_c, 0, 79, 100
2, 20832, Note_on_c, 0, 84, 110
2, 20924, Note_off_c, 0, 72, 100
2, 20928, Note_on_c, 0, 76, 110
2, 21020, Note_off_c, 0, 84, 100
2, 21024, Note_on_c, 0, 88, 110
2, 21116, Note_off_c, 0, 76, 100
2, 21120, Note_on_c, 0, 72, 110
2, 21212, Note_off_c, 0, 88, 100
2, 21216, Note_on_c, 0, 84, 110
2, 21308, Note_off_c, 0, 72, 100
2, 21312, Note_on_c, 0, 67, 110
2, 21404, Note_off_c, 0, 84, 100
2, 21408, Note_on_c, 0, 79, 110
2, 21500, Note_off_c, 0, 67, 100
2, 21504, Note_on_c, 0, 64, 110
2, 21596, Note_off_c, 0, 79, 100
2, 21600, Note_on_c, 0, 76, 110
2, 21692, Note_off_c, 0, 64, 100
2, 21696, Note_on_c, 0, 67, 110
2, 21788, Note_off_c, 0, 76, 100
2, 21792, Note_on_c, 0, 79, 110
2, 21884, Note_off_c, 0, 67, 100
2, 21888, Note_on_c, 0, 64, 110
2, 21980, Note_off_c, 0, 79, 100
2, 21984, Note_on_c, 0, 76, 110
2, 22076, Note_off_c, 0, 64, 100
2, 22080, Note_on_c, 0, 60, 110
2, 22172, Note_off_c, 0, 76, 100
2, 22176, Note_on_c, 0, 72, 110
2, 22268, Note_off_c, 0, 60, 100
2, 22364, Note_off_c, 0, 72, 100
2, 22560, Note_on_c, 0, 48, 110
2, 22656, Note_on_c, 0, 52, 110
2, 22748, Note_off_c, 0, 48, 100
2, 22752, Note_on_c, 0, 55, 110
2, 22844, Note_off_c, 0, 52, 100
2, 22848, Note_on_c, 0, 60, 110
2, 22940, Note_off_c, 0, 55, 100
2, 23036, Note_off_c, 0, 60, 100
2, 23136, Note_on_c, 0, 48, 110
2, 23232, Note_on_c, 0, 52, 110
2, 23324, Note_off_c, 0, 48, 100
2, 23328, Note_on_c, 0, 55, 110
2, 23420, Note_off_c, 0, 52, 100
2, 23424, Note_on_c, 0, 60, 110
2, 23516, Note_off_c, 0, 55, 100
2, 23612, Note_off_c, 0, 60, 100
2, 23712, Note_on_c, 0, 48, 110
2, 23808, Note_on_c, 0, 52, 110
2, 23900, Note_off_c, 0, 48, 100
2, 23904, Note_on_c, 0, 55, 110
2, 23996, Note_off_c, 0, 52, 100
2, 24000, Note_on_c, 0, 60, 110
2, 24092, Note_off_c, 0, 55, 100
2, 24188, Note_off_c, 0, 60, 100
2, 24192, Note_on_c, 0, 50, 110
2, 24192, Note_on_c, 0, 57, 110
2, 24288, Note_on_c, 0, 62, 110
2, 24380, Note_off_c, 0, 50, 100
2, 24380, Note_off_c, 0, 57, 100
2, 24384, Note_on_c, 0, 50, 110
2, 24384, Note_on_c, 0, 57, 110
2, 24476, Note_off_c, 0, 62, 100
2, 24480, Note_on_c, 0, 62, 110
2, 24572, Note_off_c, 0, 50, 100
2, 24572, Note_off_c, 0, 57, 100
2, 24576, Note_on_c, 0, 57, 110
2, 24576, Note_on_c, 0, 51, 110
2, 24668, Note_off_c, 0, 62, 100
2, 24672, Note_on_c, 0, 63, 110
2, 24764, Note_off_c, 0, 57, 100
2, 24764, Note_off_c, 0, 51, 100
2, 24768, Note_on_c, 0, 52, 110
2, 24768, Note_on_c, 0, 56, 110
2, 24768, Note_on_c, 0, 64, 110
2, 24860, Note_off_c, 0, 63, 100
2, 24956, Note_off_c, 0, 52, 100
2, 24956, Note_off_c, 0, 56, 100
2, 24956, Note_off_c, 0, 64, 100
2, 24960, Note_on_c, 0, 77, 110
2, 25008, Note_on_c, 0, 79, 110
2, 25052, Note_off_c, 0, 77, 100
2, 25056, Note_on_c, 0, 77, 110
2, 25100, Note_off_c, 0, 79, 100
2, 25152, Note_on_c, 0, 76, 110
2, 25196, Note_off_c, 0, 77, 100
2, 25340, Note_off_c, 0, 76, 100
2, 25344, Note_on_c, 0, 77, 110
2, 25392, Note_on_c, 0, 79, 110
2, 25436, Note_off_c, 0, 77, 100
2, 25440, Note_on_c, 0, 77, 110
2, 25484, Note_off_c, 0, 79, 100
2, 25536, Note_on_c, 0, 76, 110
2, 25580, Note_off_c, 0, 77, 100
2, 25724, Note_off_c, 0, 76, 100
2, 25728, Note_on_c, 0, 77, 110
2, 25776, Note_on_c, 0, 79, 110
2, 25820, Note_off_c, 0, 77, 100
2, 25824, Note_on_c, 0, 77, 110
2, 25868, Note_off_c, 0, 79, 100
2, 25920, Note_on_c, 0, 76, 110
2, 25964, Note_off_c, 0, 77, 100
2, 26108, Note_off_c, 0, 76, 100
2, 26112, Note_on_c, 0, 77, 110
2, 26160, Note_on_c, 0, 79, 110
2, 26204, Note_off_c, 0, 77, 100
2, 26208, Note_on_c, 0, 77, 110
2, 26252, Note_off_c, 0, 79, 100
2, 26304, Note_on_c, 0, 76, 110
2, 26348, Note_off_c, 0, 77, 100
2, 26492, Note_off_c, 0, 76, 100
2, 26496, Note_on_c, 0, 77, 110
2, 26544, Note_on_c, 0, 79, 110
2, 26588, Note_off_c, 0, 77, 100
2, 26592, Note_on_c, 0, 77, 110
2, 26636, Note_off_c, 0, 79, 100
2, 26688, Note_on_c, 0, 76, 110
2, 26732, Note_off_c, 0, 77, 100
2, 26876, Note_off_c, 0, 76, 100
2, 26880, Note_on_c, 0, 77, 110
2, 26928, Note_on_c, 0, 79, 110
2, 26972, Note_off_c, 0, 77, 100
2, 26976, Note_on_c, 0, 77, 110
2, 27020, Note_off_c, 0, 79, 100
2, 27072, Note_on_c, 0, 76, 110
2, 27116, Note_off_c, 0, 77, 100
2, 27260, Note_off_c, 0, 76, 100
2, 27264, Note_on_c, 0, 77, 110
2, 27836, Note_off_c, 0, 77, 100
2, 27840, Note_on_c, 0, 76, 97
2, 28028, Note_off_c, 0, 76, 100
2, 28032, Note_on_c, 0, 74, 94
2, 28220, Note_off_c, 0, 74, 100
2, 28224, Note_on_c, 0, 72, 80
2, 28272, Note_on_c, 0, 74, 80
2, 28316, Note_off_c, 0, 72, 100
2, 28320, Note_on_c, 0, 72, 80
2, 28364, Note_off_c, 0, 74, 100
2, 28416, Note_on_c, 0, 71, 80
2, 28460, Note_off_c, 0, 72, 100
2, 28604, Note_off_c, 0, 71, 100
2, 28608, Note_on_c, 0, 69, 80
2, 28796, Note_off_c, 0, 69, 100
2, 28800, Note_on_c, 0, 68, 80
2, 28988, Note_off_c, 0, 68, 100
2, 28992, Note_on_c, 0, 69, 80
2, 29180, Note_off_c, 0, 69, 100
2, 29184, Note_on_c, 0, 71, 80
2, 29372, Note_off_c, 0, 71, 100
2, 29376, Note_on_c, 0, 69, 80
2, 29564, Note_off_c, 0, 69, 100
2, 29568, Note_on_c, 0, 77, 110
2, 29664, Note_on_c, 0, 89, 110
2, 29756, Note_off_c, 0, 77, 100
2, 29760, Note_on_c, 0, 76, 110
2, 29852, Note_off_c, 0, 89, 100
2, 29856, Note_on_c, 0, 88, 110
2, 29948, Note_off_c, 0, 76, 100
2, 29952, Note_on_c, 0, 77, 110
2, 30044, Note_off_c, 0, 88, 100
2, 30048, Note_on_c, 0, 89, 110
2, 30140, Note_off_c, 0, 77, 100
2, 30144, Note_on_c, 0, 76, 110
2, 30236, Note_off_c, 0, 89, 100
2, 30240, Note_on_c, 0, 88, 110
2, 30332, Note_off_c, 0, 76, 100
2, 30336, Note_on_c, 0, 77, 110
2, 30428, Note_off_c, 0, 88, 100
2, 30432, Note_on_c, 0, 89, 110
2, 30524, Note_off_c, 0, 77, 100
2, 30528, Note_on_c, 0, 76, 110
2, 30620, Note_off_c, 0, 89, 100
2, 30624, Note_on_c, 0, 88, 110
2, 30716, Note_off_c, 0, 76, 100
2, 30720, Note_on_c, 0, 77, 110
2, 30812, Note_off_c, 0, 88, 100
2, 30816, Note_on_c, 0, 89, 110
2, 30908, Note_off_c, 0, 77, 100
2, 30912, Note_on_c, 0, 76, 110
2, 31004, Note_off_c, 0, 89, 100
2, 31008, Note_on_c, 0, 88, 110
2, 31100, Note_off_c, 0, 76, 100
2, 31104, Note_on_c, 0, 77, 110
2, 31196, Note_off_c, 0, 88, 100
2, 31200, Note_on_c, 0, 89, 110
2, 31292, Note_off_c, 0, 77, 100
2, 31296, Note_on_c, 0, 76, 110
2, 31388, Note_off_c, 0, 89, 100
2, 31392, Note_on_c, 0, 88, 110
2, 31484, Note_off_c, 0, 76, 100
2, 31488, Note_on_c, 0, 77, 110
2, 31580, Note_off_c, 0, 88, 100
2, 31584, Note_on_c, 0, 89, 110
2, 31676, Note_off_c, 0, 77, 100
2, 31680, Note_on_c, 0, 88, 110
2, 31680, Note_on_c, 0, 76, 110
2, 31772, Note_off_c, 0, 89, 100
2, 31868, Note_off_c, 0, 88, 100
2, 31868, Note_off_c, 0, 76, 100
2, 31872, Note_on_c, 0, 89, 110
2, 31872, Note_on_c, 0, 77, 110
2, 32444, Note_off_c, 0, 77, 100
2, 32444, Note_off_c, 0, 89, 100
2, 32448, Note_on_c, 0, 88, 95
2, 32448, Note_on_c, 0, 76, 95
2, 32636, Note_off_c, 0, 88, 100
2, 32636, Note_off_c, 0, 76, 100
2, 32640, Note_on_c, 0, 86, 93
2, 32640, Note_on_c, 0, 74, 93
2, 32828, Note_off_c, 0, 86, 100
2, 32828, Note_off_c, 0, 74, 100
2, 32832, Note_on_c, 0, 84, 80
2, 32832, Note_on_c, 0, 72, 80
2, 33020, Note_off_c, 0, 84, 100
2, 33020, Note_off_c, 0, 72, 100
2, 33024, Note_on_c, 0, 83, 80
2, 33024, Note_on_c, 0, 71, 80
2, 33212, Note_off_c, 0, 83, 100
2, 33212, Note_off_c, 0, 71, 100
2, 33216, Note_on_c, 0, 81, 80
2, 33216, Note_on_c, 0, 69, 80
2, 33404, Note_off_c, 0, 81, 100
2, 33404, Note_off_c, 0, 69, 100
2, 33408, Note_on_c, 0, 80, 80
2, 33408, Note_on_c, 0, 68, 80
2, 33596, Note_off_c, 0, 80, 100
2, 33596, Note_off_c, 0, 68, 100
2, 33600, Note_on_c, 0, 81, 80
2, 33600, Note_on_c, 0, 69, 80
2, 33788, Note_off_c, 0, 81, 100
2, 33788, Note_off_c, 0, 69, 100
2, 33792, Note_on_c, 0, 83, 80
2, 33792, Note_on_c, 0, 71, 80
2, 33980, Note_off_c, 0, 83, 100
2, 33980, Note_off_c, 0, 71, 100
2, 33984, Note_on_c, 0, 81, 80
2, 33984, Note_on_c, 0, 69, 80
2, 34172, Note_off_c, 0, 81, 100
2, 34172, Note_off_c, 0, 69, 100
2, 34176, Note_on_c, 0, 77, 80
2, 34176, Note_on_c, 0, 89, 80
2, 34364, Note_off_c, 0, 77, 100
2, 34364, Note_off_c, 0, 89, 100
2, 34368, Note_on_c, 0, 77, 82
2, 34368, Note_on_c, 0, 89, 82
2, 34556, Note_off_c, 0, 77, 100
2, 34556, Note_off_c, 0, 89, 100
2, 34560, Note_on_c, 0, 89, 85
2, 34560, Note_on_c, 0, 77, 85
2, 34748, Note_off_c, 0, 89, 100
2, 34748, Note_off_c, 0, 77, 100
2, 34752, Note_on_c, 0, 88, 88
2, 34752, Note_on_c, 0, 76, 88
2, 34940, Note_off_c, 0, 88, 100
2, 34940, Note_off_c, 0, 76, 100
2, 34944, Note_on_c, 0, 86, 90
2, 34944, Note_on_c, 0, 74, 90
2, 35132, Note_off_c, 0, 86, 100
2, 35132, Note_off_c, 0, 74, 100
2, 35136, Note_on_c, 0, 84, 93
2, 35136, Note_on_c, 0, 72, 93
2, 35324, Note_off_c, 0, 84, 100
2, 35324, Note_off_c, 0, 72, 100
2, 35328, Note_on_c, 0, 83, 96
2, 35328, Note_on_c, 0, 71, 96
2, 35516, Note_off_c, 0, 83, 100
2, 35516, Note_off_c, 0, 71, 100
2, 35520, Note_on_c, 0, 81, 99
2, 35520, Note_on_c, 0, 69, 99
2, 35708, Note_off_c, 0, 81, 100
2, 35708, Note_off_c, 0, 69, 100
2, 35712, Note_on_c, 0, 80, 101
2, 35712, Note_on_c, 0, 68, 101
2, 35900, Note_off_c, 0, 80, 100
2, 35900, Note_off_c, 0, 68, 100
2, 35904, Note_on_c, 0, 81, 104
2, 35904, Note_on_c, 0, 69, 104
2, 36092, Note_off_c, 0, 81, 100
2, 36092, Note_off_c, 0, 69, 100
2, 36096, Note_on_c, 0, 83, 107
2, 36096, Note_on_c, 0, 71, 107
2, 36284, Note_off_c, 0, 83, 100
2, 36284, Note_off_c, 0, 71, 100
2, 36288, Note_on_c, 0, 81, 110
2, 36288, Note_on_c, 0, 69, 110
2, 36476, Note_off_c, 0, 81, 100
2, 36476, Note_off_c, 0, 69, 100
2, 36480, Note_on_c, 0, 77, 110
2, 36480, Note_on_c, 0, 89, 110
2, 36668, Note_off_c, 0, 77, 100
2, 36668, Note_off_c, 0, 89, 100
2, 36672, Note_on_c, 0, 77, 110
2, 36672, Note_on_c, 0, 89, 110
2, 36860, Note_off_c, 0, 77, 100
2, 36860, Note_off_c, 0, 89, 100
2, 36864, Note_on_c, 0, 89, 110
2, 36864, Note_on_c, 0, 77, 110
2, 37052, Note_off_c, 0, 89, 100
2, 37052, Note_off_c, 0, 77, 100
2, 37056, Note_on_c, 0, 88, 110
2, 37056, Note_on_c, 0, 76, 110
2, 37244, Note_off_c, 0, 88, 100
2, 37244, Note_off_c, 0, 76, 100
2, 37248, Note_on_c, 0, 86, 110
2, 37248, Note_on_c, 0, 74, 110
2, 37436, Note_off_c, 0, 86, 100
2, 37436, Note_off_c, 0, 74, 100
2, 37440, Note_on_c, 0, 84, 110
2, 37440, Note_on_c, 0, 72, 110
2, 37628, Note_off_c, 0, 84, 100
2, 37628, Note_off_c, 0, 72, 100
2, 37632, Note_on_c, 0, 83, 110
2, 37632, Note_on_c, 0, 71, 110
2, 37820, Note_off_c, 0, 83, 100
2, 37820, Note_off_c, 0, 71, 100
2, 37824, Note_on_c, 0, 81, 110
2, 37824, Note_on_c, 0, 69, 110
2, 38012, Note_off_c, 0, 81, 100
2, 38012, Note_off_c, 0, 69, 100
2, 38016, Note_on_c, 0, 80, 110
2, 38016, Note_on_c, 0, 68, 110
2, 38204, Note_off_c, 0, 80, 100
2, 38204, Note_off_c, 0, 68, 100
2, 38208, Note_on_c, 0, 81, 110
2, 38208, Note_on_c, 0, 69, 110
2, 38396, Note_off_c, 0, 81, 100
2, 38396, Note_off_c, 0, 69, 100
2, 38400, Note_on_c, 0, 83, 110
2, 38400, Note_on_c, 0, 71, 110
2, 38588, Note_off_c, 0, 83, 100
2, 38588, Note_off_c, 0, 71, 100
2, 38592, Note_on_c, 0, 81, 80
2, 38592, Note_on_c, 0, 69, 80
2, 38780, Note_off_c, 0, 81, 100
2, 38780, Note_off_c, 0, 69, 100
2, 38976, Note_on_c, 0, 69, 80
2, 39072, Note_on_c, 0, 81, 80
2, 39164, Note_off_c, 0, 69, 100
2, 39168, Note_on_c, 0, 72, 80
2, 39260, Note_off_c, 0, 81, 100
2, 39356, Note_off_c, 0, 72, 100
2, 39552, Note_on_c, 0, 72, 80
2, 39648, Note_on_c, 0, 84, 80
2, 39740, Note_off_c, 0, 72, 100
2, 39744, Note_on_c, 0, 76, 80
2, 39836, Note_off_c, 0, 84, 100
2, 39932, Note_off_c, 0, 76, 100
2, 40128, Note_on_c, 0, 76, 80
2, 40224, Note_on_c, 0, 88, 80
2, 40316, Note_off_c, 0, 76, 100
2, 40320, Note_on_c, 0, 72, 80
2, 40412, Note_off_c, 0, 88, 100
2, 40508, Note_off_c, 0, 72, 100
2, 40704, Note_on_c, 0, 72, 80
2, 40800, Note_on_c, 0, 84, 80
2, 40892, Note_off_c, 0, 72, 100
2, 40896, Note_on_c, 0, 69, 80
2, 40988, Note_off_c, 0, 84, 100
2, 41088, Note_on_c, 0, 81, 83
2, 41660, Note_off_c, 0, 69, 100
2, 41660, Note_off_c, 0, 81, 100
2, 41664, Note_on_c, 0, 71, 93
2, 41664, Note_on_c, 0, 83, 93
2, 41852, Note_off_c, 0, 71, 100
2, 41852, Note_off_c, 0, 83, 100
2, 41856, Note_on_c, 0, 68, 96
2, 41856, Note_on_c, 0, 80, 96
2, 42044, Note_off_c, 0, 68, 100
2, 42044, Note_off_c, 0, 80, 100
2, 42048, Note_on_c, 0, 81, 99
2, 42048, Note_on_c, 0, 69, 99
2, 42236, Note_off_c, 0, 81, 100
2, 42236, Note_off_c, 0, 69, 100
2, 42336, Note_on_c, 0, 69, 80
2, 42432, Note_on_c, 0, 81, 80
2, 42524, Note_off_c, 0, 69, 100
2, 42528, Note_on_c, 0, 69, 80
2, 42620, Note_off_c, 0, 81, 100
2, 42624, Note_on_c, 0, 72, 80
2, 42716, Note_off_c, 0, 69, 100
2, 42812, Note_off_c, 0, 72, 100
2, 42912, Note_on_c, 0, 72, 80
2, 43008, Note_on_c, 0, 84, 80
2, 43100, Note_off_c, 0, 72, 100
2, 43104, Note_on_c, 0, 72, 80
2, 43196, Note_off_c, 0, 84, 100
2, 43200, Note_on_c, 0, 76, 80
2, 43292, Note_off_c, 0, 72, 100
2, 43388, Note_off_c, 0, 76, 100
2, 43488, Note_on_c, 0, 76, 80
2, 43584, Note_on_c, 0, 88, 80
2, 43676, Note_off_c, 0, 76, 100
2, 43680, Note_on_c, 0, 76, 80
2, 43772, Note_off_c, 0, 88, 100
2, 43776, Note_on_c, 0, 72, 80
2, 43868, Note_off_c, 0, 76, 100
2, 43964, Note_off_c, 0, 72, 100
2, 44064, Note_on_c, 0, 72, 80
2, 44160, Note_on_c, 0, 84, 80
2, 44252, Note_off_c, 0, 72, 100
2, 44256, Note_on_c, 0, 72, 80
2, 44348, Note_off_c, 0, 84, 100
2, 44352, Note_on_c, 0, 69, 90
2, 44444, Note_off_c, 0, 72, 100
2, 44544, Note_on_c, 0, 81, 92
2, 45116, Note_off_c, 0, 69, 100
2, 45116, Note_off_c, 0, 81, 100
2, 45120, Note_on_c, 0, 71, 93
2, 45120, Note_on_c, 0, 83, 93
2, 45308, Note_off_c, 0, 71, 100
2, 45308, Note_off_c, 0, 83, 100
2, 45312, Note_on_c, 0, 68, 96
2, 45312, Note_on_c, 0, 80, 96
2, 45500, Note_off_c, 0, 68, 100
2, 45500, Note_off_c, 0, 80, 100
2, 45504, Note_on_c, 0, 69, 100
2, 45504, Note_on_c, 0, 81, 100
2, 45692, Note_off_c, 0, 69, 100
2, 45692, Note_off_c, 0, 81, 100
2, 45696, Note_on_c, 0, 71, 103
2, 45696, Note_on_c, 0, 83, 103
2, 45884, Note_off_c, 0, 71, 100
2, 45884, Note_off_c, 0, 83, 100
2, 45888, Note_on_c, 0, 73, 106
2, 45888, Note_on_c, 0, 85, 106
2, 46076, Note_off_c, 0, 73, 100
2, 46076, Note_off_c, 0, 85, 100
2, 46080, Note_on_c, 0, 74, 110
2, 46080, Note_on_c, 0, 86, 110
2, 46268, Note_off_c, 0, 74, 100
2, 46268, Note_off_c, 0, 86, 100
2, 46272, Note_on_c, 0, 72, 107
2, 46272, Note_on_c, 0, 84, 107
2, 46460, Note_off_c, 0, 72, 100
2, 46460, Note_off_c, 0, 84, 100
2, 46464, Note_on_c, 0, 71, 104
2, 46464, Note_on_c, 0, 83, 104
2, 46652, Note_off_c, 0, 71, 100
2, 46652, Note_off_c, 0, 83, 100
2, 46656, Note_on_c, 0, 72, 101
2, 46656, Note_on_c, 0, 84, 101
2, 46844, Note_off_c, 0, 72, 100
2, 46844, Note_off_c, 0, 84, 100
2, 46848, Note_on_c, 0, 68, 100
2, 46848, Note_on_c, 0, 80, 100
2, 47036, Note_off_c, 0, 68, 100
2, 47036, Note_off_c, 0, 80, 100
2, 47040, Note_on_c, 0, 69, 100
2, 47040, Note_on_c, 0, 81, 100
2, 47228, Note_off_c, 0, 69, 100
2, 47228, Note_off_c, 0, 81, 100
2, 47232, Note_on_c, 0, 71, 100
2, 47232, Note_on_c, 0, 83, 100
2, 47420, Note_off_c, 0, 71, 100
2, 47420, Note_off_c, 0, 83, 100
2, 47424, Note_on_c, 0, 66, 100
2, 47424, Note_on_c, 0, 78, 100
2, 47612, Note_off_c, 0, 66, 100
2, 47612, Note_off_c, 0, 78, 100
2, 47616, Note_on_c, 0, 68, 100
2, 47616, Note_on_c, 0, 80, 100
2, 47804, Note_off_c, 0, 68, 100
2, 47804, Note_off_c, 0, 80, 100
2, 47808, Note_on_c, 0, 69, 100
2, 47904, Note_on_c, 0, 81, 101
2, 47996, Note_off_c, 0, 69, 100
2, 48000, Note_on_c, 0, 71, 103
2, 48092, Note_off_c, 0, 81, 100
2, 48096, Note_on_c, 0, 83, 104
2, 48188, Note_off_c, 0, 71, 100
2, 48192, Note_on_c, 0, 73, 106
2, 48284, Note_off_c, 0, 83, 100
2, 48288, Note_on_c, 0, 85, 108
2, 48380, Note_off_c, 0, 73, 100
2, 48384, Note_on_c, 0, 74, 109
2, 48476, Note_off_c, 0, 85, 100
2, 48480, Note_on_c, 0, 86, 109
2, 48572, Note_off_c, 0, 74, 100
2, 48576, Note_on_c, 0, 72, 107
2, 48668, Note_off_c, 0, 86, 100
2, 48672, Note_on_c, 0, 84, 106
2, 48764, Note_off_c, 0, 72, 100
2, 48768, Note_on_c, 0, 71, 104
2, 48860, Note_off_c, 0, 84, 100
2, 48864, Note_on_c, 0, 83, 102
2, 48956, Note_off_c, 0, 71, 100
2, 48960, Note_on_c, 0, 72, 101
2, 49052, Note_off_c, 0, 83, 100
2, 49056, Note_on_c, 0, 84, 100
2, 49148, Note_off_c, 0, 72, 100
2, 49152, Note_on_c, 0, 68, 100
2, 49244, Note_off_c, 0, 84, 100
2, 49248, Note_on_c, 0, 80, 100
2, 49340, Note_off_c, 0, 68, 100
2, 49344, Note_on_c, 0, 69, 100
2, 49436, Note_off_c, 0, 80, 100
2, 49440, Note_on_c, 0, 81, 100
2, 49532, Note_off_c, 0, 69, 100
2, 49536, Note_on_c, 0, 71, 100
2, 49628, Note_off_c, 0, 81, 100
2, 49632, Note_on_c, 0, 83, 100
2, 49724, Note_off_c, 0, 71, 100
2, 49728, Note_on_c, 0, 66, 100
2, 49820, Note_off_c, 0, 83, 100
2, 49824, Note_on_c, 0, 78, 100
2, 49916, Note_off_c, 0, 66, 100
2, 49920, Note_on_c, 0, 68, 100
2, 50012, Note_off_c, 0, 78, 100
2, 50016, Note_on_c, 0, 80, 100
2, 50108, Note_off_c, 0, 68, 100
2, 50112, Note_on_c, 0, 69, 112
2, 50204, Note_off_c, 0, 80, 100
2, 50208, Note_on_c, 0, 81, 100
2, 50300, Note_off_c, 0, 69, 100
2, 50304, Note_on_c, 0, 68, 100
2, 50396, Note_off_c, 0, 81, 100
2, 50400, Note_on_c, 0, 69, 100
2, 50492, Note_off_c, 0, 68, 100
2, 50496, Note_on_c, 0, 81, 100
2, 50588, Note_off_c, 0, 69, 100
2, 50592, Note_on_c, 0, 69, 100
2, 50684, Note_off_c, 0, 81, 100
2, 50688, Note_on_c, 0, 68, 120
2, 50780, Note_off_c, 0, 69, 100
2, 50784, Note_on_c, 0, 69, 100
2, 50876, Note_off_c, 0, 68, 100
2, 50880, Note_on_c, 0, 81, 100
2, 50972, Note_off_c, 0, 69, 100
2, 50976, Note_on_c, 0, 69, 100
2, 51068, Note_off_c, 0, 81, 100
2, 51072, Note_on_c, 0, 68, 100
2, 51164, Note_off_c, 0, 69, 100
2, 51168, Note_on_c, 0, 69, 100
2, 51260, Note_off_c, 0, 68, 100
2, 51264, Note_on_c, 0, 81, 112
2, 51356, Note_off_c, 0, 69, 100
2, 51360, Note_on_c, 0, 69, 100
2, 51452, Note_off_c, 0, 81, 100
2, 51456, Note_on_c, 0, 68, 100
2, 51548, Note_off_c, 0, 69, 100
2, 51552, Note_on_c, 0, 69, 100
2, 51644, Note_off_c, 0, 68, 100
2, 51648, Note_on_c, 0, 81, 100
2, 51740, Note_off_c, 0, 69, 100
2, 51744, Note_on_c, 0, 69, 100
2, 51836, Note_off_c, 0, 81, 100
2, 51840, Note_on_c, 0, 68, 120
2, 51932, Note_off_c, 0, 69, 100
2, 51936, Note_on_c, 0, 69, 100
2, 52028, Note_off_c, 0, 68, 100
2, 52032, Note_on_c, 0, 81, 100
2, 52124, Note_off_c, 0, 69, 100
2, 52128, Note_on_c, 0, 69, 100
2, 52220, Note_off_c, 0, 81, 100
2, 52224, Note_on_c, 0, 68, 100
2, 52316, Note_off_c, 0, 69, 100
2, 52320, Note_on_c, 0, 69, 100
2, 52412, Note_off_c, 0, 68, 100
2, 52416, Note_on_c, 0, 70, 100
2, 52508, Note_off_c, 0, 69, 100
2, 52512, Note_on_c, 0, 69, 80
2, 52604, Note_off_c, 0, 70, 100
2, 52608, Note_on_c, 0, 70, 80
2, 52700, Note_off_c, 0, 69, 100
2, 52704, Note_on_c, 0, 69, 80
2, 52796, Note_off_c, 0, 70, 100
2, 52800, Note_on_c, 0, 70, 80
2, 52892, Note_off_c, 0, 69, 100
2, 52896, Note_on_c, 0, 69, 80
2, 52988, Note_off_c, 0, 70, 100
2, 52992, Note_on_c, 0, 70, 80
2, 53084, Note_off_c, 0, 69, 100
2, 53088, Note_on_c, 0, 69, 80
2, 53180, Note_off_c, 0, 70, 100
2, 53184, Note_on_c, 0, 70, 80
2, 53276, Note_off_c, 0, 69, 100
2, 53280, Note_on_c, 0, 69, 80
2, 53372, Note_off_c, 0, 70, 100
2, 53376, Note_on_c, 0, 70, 80
2, 53468, Note_off_c, 0, 69, 100
2, 53472, Note_on_c, 0, 69, 80
2, 53564, Note_off_c, 0, 70, 100
2, 53568, Note_on_c, 0, 70, 80
2, 53660, Note_off_c, 0, 69, 100
2, 53664, Note_on_c, 0, 69, 80
2, 53756, Note_off_c, 0, 70, 100
2, 53760, Note_on_c, 0, 70, 80
2, 53852, Note_off_c, 0, 69, 100
2, 53856, Note_on_c, 0, 69, 80
2, 53948, Note_off_c, 0, 70, 100
2, 53952, Note_on_c, 0, 73, 80
2, 54044, Note_off_c, 0, 69, 100
2, 54048, Note_on_c, 0, 69, 80
2, 54140, Note_off_c, 0, 73, 100
2, 54144, Note_on_c, 0, 74, 80
2, 54236, Note_off_c, 0, 69, 100
2, 54240, Note_on_c, 0, 69, 80
2, 54332, Note_off_c, 0, 74, 100
2, 54336, Note_on_c, 0, 76, 80
2, 54428, Note_off_c, 0, 69, 100
2, 54432, Note_on_c, 0, 69, 80
2, 54524, Note_off_c, 0, 76, 100
2, 54528, Note_on_c, 0, 77, 80
2, 54620, Note_off_c, 0, 69, 100
2, 54624, Note_on_c, 0, 76, 80
2, 54716, Note_off_c, 0, 77, 100
2, 54720, Note_on_c, 0, 74, 80
2, 54812, Note_off_c, 0, 76, 100
2, 54908, Note_off_c, 0, 74, 100
2, 55008, Note_on_c, 0, 69, 80
2, 55104, Note_on_c, 0, 77, 80
2, 55196, Note_off_c, 0, 69, 100
2, 55200, Note_on_c, 0, 76, 80
2, 55292, Note_off_c, 0, 77, 100
2, 55296, Note_on_c, 0, 74, 80
2, 55388, Note_off_c, 0, 76, 100
2, 55484, Note_off_c, 0, 74, 100
2, 55584, Note_on_c, 0, 69, 80
2, 55680, Note_on_c, 0, 77, 80
2, 55772, Note_off_c, 0, 69, 100
2, 55776, Note_on_c, 0, 76, 80
2, 55868, Note_off_c, 0, 77, 100
2, 55872, Note_on_c, 0, 74, 80
2, 55964, Note_off_c, 0, 76, 100
2, 56060, Note_off_c, 0, 74, 100
2, 56160, Note_on_c, 0, 69, 80
2, 56256, Note_on_c, 0, 77, 80
2, 56348, Note_off_c, 0, 69, 100
2, 56352, Note_on_c, 0, 74, 80
2, 56444, Note_off_c, 0, 77, 100
2, 56448, Note_on_c, 0, 76, 80
2, 56540, Note_off_c, 0, 74, 100
2, 56636, Note_off_c, 0, 76, 100
2, 56736, Note_on_c, 0, 69, 80
2, 56832, Note_on_c, 0, 79, 80
2, 56924, Note_off_c, 0, 69, 100
2, 56928, Note_on_c, 0, 77, 80
2, 57020, Note_off_c, 0, 79, 100
2, 57024, Note_on_c, 0, 76, 80
2, 57116, Note_off_c, 0, 77, 100
2, 57212, Note_off_c, 0, 76, 100
2, 57312, Note_on_c, 0, 69, 80
2, 57408, Note_on_c, 0, 79, 80
2, 57500, Note_off_c, 0, 69, 100
2, 57504, Note_on_c, 0, 77, 80
2, 57596, Note_off_c, 0, 79, 100
2, 57600, Note_on_c, 0, 76, 80
2, 57692, Note_off_c, 0, 77, 100
2, 57788, Note_off_c, 0, 76, 100
2, 57888, Note_on_c, 0, 69, 80
2, 57984, Note_on_c, 0, 79, 80
2, 58076, Note_off_c, 0, 69, 100
2, 58080, Note_on_c, 0, 77, 80
2, 58172, Note_off_c, 0, 79, 100
2, 58176, Note_on_c, 0, 76, 80
2, 58268, Note_off_c, 0, 77, 100
2, 58364, Note_off_c, 0, 76, 100
2, 58464, Note_on_c, 0, 69, 80
2, 58560, Note_on_c, 0, 79, 80
2, 58652, Note_off_c, 0, 69, 100
2, 58656, Note_on_c, 0, 76, 80
2, 58748, Note_off_c, 0, 79, 100
2, 58752, Note_on_c, 0, 77, 80
2, 58844, Note_off_c, 0, 76, 100
2, 58940, Note_off_c, 0, 77, 100
2, 59040, Note_on_c, 0, 74, 83
2, 59136, Note_on_c, 0, 81, 84
2, 59228, Note_off_c, 0, 74, 100
2, 59232, Note_on_c, 0, 86, 85
2, 59324, Note_off_c, 0, 81, 100
2, 59328, Note_on_c, 0, 82, 86
2, 59420, Note_off_c, 0, 86, 100
2, 59516, Note_off_c, 0, 82, 100
2, 59616, Note_on_c, 0, 70, 89
2, 59712, Note_on_c, 0, 74, 91
2, 59804, Note_off_c, 0, 70, 100
2, 59808, Note_on_c, 0, 82, 92
2, 59900, Note_off_c, 0, 74, 100
2, 59904, Note_on_c, 0, 79, 93
2, 59996, Note_off_c, 0, 82, 100
2, 60092, Note_off_c, 0, 79, 100
2, 60192, Note_on_c, 0, 67, 96
2, 60288, Note_on_c, 0, 70, 97
2, 60380, Note_off_c, 0, 67, 100
2, 60384, Note_on_c, 0, 79, 98
2, 60476, Note_off_c, 0, 70, 100
2, 60480, Note_on_c, 0, 76, 100
2, 60572, Note_off_c, 0, 79, 100
2, 60668, Note_off_c, 0, 76, 100
2, 60768, Note_on_c, 0, 64, 96
2, 60864, Note_on_c, 0, 69, 94
2, 60956, Note_off_c, 0, 64, 100
2, 60960, Note_on_c, 0, 76, 92
2, 61052, Note_off_c, 0, 69, 100
2, 61056, Note_on_c, 0, 77, 91
2, 61148, Note_off_c, 0, 76, 100
2, 61244, Note_off_c, 0, 77, 100
2, 61344, Note_on_c, 0, 65, 86
2, 61440, Note_on_c, 0, 69, 84
2, 61532, Note_off_c, 0, 65, 100
2, 61536, Note_on_c, 0, 77, 82
2, 61628, Note_off_c, 0, 69, 100
2, 61632, Note_on_c, 0, 74, 80
2, 61724, Note_off_c, 0, 77, 100
2, 61820, Note_off_c, 0, 74, 100
2, 61920, Note_on_c, 0, 62, 87
2, 62016, Note_on_c, 0, 69, 89
2, 62108, Note_off_c, 0, 62, 100
2, 62112, Note_on_c, 0, 74, 92
2, 62204, Note_off_c, 0, 69, 100
2, 62208, Note_on_c, 0, 73, 94
2, 62300, Note_off_c, 0, 74, 100
2, 62396, Note_off_c, 0, 73, 100
2, 62496, Note_on_c, 0, 61, 102
2, 62592, Note_on_c, 0, 69, 104
2, 62684, Note_off_c, 0, 61, 100
2, 62688, Note_on_c, 0, 73, 107
2, 62780, Note_off_c, 0, 69, 100
2, 62784, Note_on_c, 0, 74, 110
2, 62876, Note_off_c, 0, 73, 100
2, 62972, Note_off_c, 0, 74, 100
2, 63168, Note_on_c, 0, 65, 110
2, 63264, Note_on_c, 0, 69, 110
2, 63356, Note_off_c, 0, 65, 100
2, 63360, Note_on_c, 0, 74, 110
2, 63452, Note_off_c, 0, 69, 100
2, 63456, Note_on_c, 0, 77, 110
2, 63548, Note_off_c, 0, 74, 100
2, 63552, Note_on_c, 0, 81, 110
2, 63644, Note_off_c, 0, 77, 100
2, 63648, Note_on_c, 0, 77, 110
2, 63740, Note_off_c, 0, 81, 100
2, 63744, Note_on_c, 0, 86, 110
2, 63836, Note_off_c, 0, 77, 100
2, 63840, Note_on_c, 0, 81, 110
2, 63932, Note_off_c, 0, 86, 100
2, 63936, Note_on_c, 0, 82, 86
2, 64028, Note_off_c, 0, 81, 100
2, 64124, Note_off_c, 0, 82, 100
2, 64224, Note_on_c, 0, 70, 89
2, 64320, Note_on_c, 0, 74, 91
2, 64412, Note_off_c, 0, 70, 100
2, 64416, Note_on_c, 0, 82, 92
2, 64508, Note_off_c, 0, 74, 100
2, 64512, Note_on_c, 0, 79, 93
2, 64604, Note_off_c, 0, 82, 100
2, 64700, Note_off_c, 0, 79, 100
2, 64800, Note_on_c, 0, 67, 96
2, 64896, Note_on_c, 0, 70, 97
2, 64988, Note_off_c, 0, 67, 100
2, 64992, Note_on_c, 0, 79, 98
2, 65084, Note_off_c, 0, 70, 100
2, 65088, Note_on_c, 0, 76, 100
2, 65180, Note_off_c, 0, 79, 100
2, 65276, Note_off_c, 0, 76, 100
2, 65376, Note_on_c, 0, 64, 96
2, 65472, Note_on_c, 0, 69, 94
2, 65564, Note_off_c, 0, 64, 100
2, 65568, Note_on_c, 0, 76, 92
2, 65660, Note_off_c, 0, 69, 100
2, 65664, Note_on_c, 0, 77, 91
2, 65756, Note_off_c, 0, 76, 100
2, 65852, Note_off_c, 0, 77, 100
2, 65952, Note_on_c, 0, 65, 86
2, 66048, Note_on_c, 0, 69, 84
2, 66140, Note_off_c, 0, 65, 100
2, 66144, Note_on_c, 0, 77, 82
2, 66236, Note_off_c, 0, 69, 100
2, 66240, Note_on_c, 0, 74, 80
2, 66332, Note_off_c, 0, 77, 100
2, 66428, Note_off_c, 0, 74, 100
2, 66528, Note_on_c, 0, 62, 87
2, 66624, Note_on_c, 0, 69, 89
2, 66716, Note_off_c, 0, 62, 100
2, 66720, Note_on_c, 0, 74, 92
2, 66812, Note_off_c, 0, 69, 100
2, 66816, Note_on_c, 0, 73, 94
2, 66908, Note_off_c, 0, 74, 100
2, 67004, Note_off_c, 0, 73, 100
2, 67104, Note_on_c, 0, 61, 102
2, 67200, Note_on_c, 0, 69, 104
2, 67292, Note_off_c, 0, 61, 100
2, 67296, Note_on_c, 0, 73, 107
2, 67388, Note_off_c, 0, 69, 100
2, 67392, Note_on_c, 0, 74, 110
2, 67484, Note_off_c, 0, 73, 100
2, 67536, Note_on_c, 0, 69, 108
2, 67580, Note_off_c, 0, 74, 100
2, 67584, Note_on_c, 0, 81, 107
2, 67628, Note_off_c, 0, 69, 100
2, 67964, Note_off_c, 0, 81, 100
2, 67968, Note_on_c, 0, 80, 101
2, 68064, Note_on_c, 0, 79, 99
2, 68108, Note_off_c, 0, 80, 100
2, 68160, Note_on_c, 0, 78, 97
2, 68204, Note_off_c, 0, 79, 100
2, 68256, Note_on_c, 0, 77, 96
2, 68300, Note_off_c, 0, 78, 100
2, 68352, Note_on_c, 0, 76, 94
2, 68396, Note_off_c, 0, 77, 100
2, 68448, Note_on_c, 0, 75, 92
2, 68492, Note_off_c, 0, 76, 100
2, 68544, Note_on_c, 0, 74, 80
2, 68588, Note_off_c, 0, 75, 100
2, 68732, Note_off_c, 0, 74, 100
2, 68832, Note_on_c, 0, 62, 87
2, 68928, Note_on_c, 0, 69, 89
2, 69020, Note_off_c, 0, 62, 100
2, 69024, Note_on_c, 0, 74, 92
2, 69116, Note_off_c, 0, 69, 100
2, 69120, Note_on_c, 0, 73, 94
2, 69212, Note_off_c, 0, 74, 100
2, 69308, Note_off_c, 0, 73, 100
2, 69408, Note_on_c, 0, 61, 102
2, 69504, Note_on_c, 0, 69, 104
2, 69596, Note_off_c, 0, 61, 100
2, 69600, Note_on_c, 0, 73, 107
2, 69692, Note_off_c, 0, 69, 100
2, 69696, Note_on_c, 0, 74, 110
2, 69788, Note_off_c, 0, 73, 100
2, 69840, Note_on_c, 0, 74, 110
2, 69884, Note_off_c, 0, 74, 100
2, 69888, Note_on_c, 0, 86, 110
2, 69932, Note_off_c, 0, 74, 100
2, 70268, Note_off_c, 0, 86, 100
2, 70272, Note_on_c, 0, 85, 110
2, 70368, Note_on_c, 0, 84, 107
2, 70412, Note_off_c, 0, 85, 100
2, 70464, Note_on_c, 0, 83, 104
2, 70508, Note_off_c, 0, 84, 100
2, 70560, Note_on_c, 0, 82, 101
2, 70604, Note_off_c, 0, 83, 100
2, 70656, Note_on_c, 0, 81, 97
2, 70700, Note_off_c, 0, 82, 100
2, 70752, Note_on_c, 0, 80, 94
2, 70796, Note_off_c, 0, 81, 100
2, 70848, Note_on_c, 0, 81, 80
2, 70892, Note_off_c, 0, 80, 100
2, 71036, Note_off_c, 0, 81, 100
2, 71136, Note_on_c, 0, 62, 91
2, 71232, Note_on_c, 0, 69, 94
2, 71324, Note_off_c, 0, 62, 100
2, 71328, Note_on_c, 0, 74, 98
2, 71420, Note_off_c, 0, 69, 100
2, 71424, Note_on_c, 0, 73, 102
2, 71516, Note_off_c, 0, 74, 100
2, 71612, Note_off_c, 0, 73, 100
2, 71712, Note_on_c, 0, 73, 110
2, 71808, Note_on_c, 0, 81, 110
2, 71900, Note_off_c, 0, 73, 100
2, 71904, Note_on_c, 0, 85, 110
2, 71996, Note_off_c, 0, 81, 100
2, 72000, Note_on_c, 0, 86, 110
2, 72092, Note_off_c, 0, 85, 100
2, 72096, Note_on_c, 0, 50, 110
2, 72188, Note_off_c, 0, 86, 100
2, 72192, Note_on_c, 0, 53, 110
2, 72284, Note_off_c, 0, 50, 100
2, 72288, Note_on_c, 0, 57, 110
2, 72380, Note_off_c, 0, 53, 100
2, 72384, Note_on_c, 0, 62, 110
2, 72476, Note_off_c, 0, 57, 100
2, 72572, Note_off_c, 0, 62, 100
2, 72672, Note_on_c, 0, 50, 110
2, 72768, Note_on_c, 0, 53, 110
2, 72860, Note_off_c, 0, 50, 100
2, 72864, Note_on_c, 0, 57, 110
2, 72956, Note_off_c, 0, 53, 100
2, 72960, Note_on_c, 0, 62, 110
2, 73052, Note_off_c, 0, 57, 100
2, 73148, Note_off_c, 0, 62, 100
2, 73248, Note_on_c, 0, 50, 110
2, 73344, Note_on_c, 0, 53, 110
2, 73436, Note_off_c, 0, 50, 100
2, 73440, Note_on_c, 0, 57, 110
2, 73532, Note_off_c, 0, 53, 100
2, 73536, Note_on_c, 0, 62, 110
2, 73628, Note_off_c, 0, 57, 100
2, 73724, Note_off_c, 0, 62, 100
2, 73728, Note_on_c, 0, 50, 110
2, 73824, Note_on_c, 0, 53, 110
2, 73916, Note_off_c, 0, 50, 100
2, 73920, Note_on_c, 0, 59, 110
2, 74012, Note_off_c, 0, 53, 100
2, 74016, Note_on_c, 0, 62, 110
2, 74108, Note_off_c, 0, 59, 100
2, 74112, Note_on_c, 0, 65, 110
2, 74204, Note_off_c, 0, 62, 100
2, 74208, Note_on_c, 0, 71, 110
2, 74300, Note_off_c, 0, 65, 100
2, 74304, Note_on_c, 0, 60, 110
2, 74396, Note_off_c, 0, 71, 100
2, 74400, Note_on_c, 0, 72, 110
2, 74492, Note_off_c, 0, 60, 100
2, 74496, Note_on_c, 0, 64, 110
2, 74588, Note_off_c, 0, 72, 100
2, 74592, Note_on_c, 0, 76, 110
2, 74684, Note_off_c, 0, 64, 100
2, 74688, Note_on_c, 0, 67, 110
2, 74780, Note_off_c, 0, 76, 100
2, 74784, Note_on_c, 0, 79, 110
2, 74876, Note_off_c, 0, 67, 100
2, 74880, Note_on_c, 0, 72, 110
2, 74972, Note_off_c, 0, 79, 100
2, 74976, Note_on_c, 0, 84, 110
2, 75068, Note_off_c, 0, 72, 100
2, 75072, Note_on_c, 0, 76, 110
2, 75164, Note_off_c, 0, 84, 100
2, 75168, Note_on_c, 0, 88, 110
2, 75260, Note_off_c, 0, 76, 100
2, 75264, Note_on_c, 0, 72, 110
2, 75356, Note_off_c, 0, 88, 100
2, 75360, Note_on_c, 0, 84, 110
2, 75452, Note_off_c, 0, 72, 100
2, 75456, Note_on_c, 0, 67, 110
2, 75548, Note_off_c, 0, 84, 100
2, 75552, Note_on_c, 0, 79, 110
2, 75644, Note_off_c, 0, 67, 100
2, 75648, Note_on_c, 0, 64, 110
2, 75740, Note_off_c, 0, 79, 100
2, 75744, Note_on_c, 0, 76, 110
2, 75836, Note_off_c, 0, 64, 100
2, 75840, Note_on_c, 0, 67, 110
2, 75932, Note_off_c, 0, 76, 100
2, 75936, Note_on_c, 0, 79, 110
2, 76028, Note_off_c, 0, 67, 100
2, 76032, Note_on_c, 0, 64, 110
2, 76124, Note_off_c, 0, 79, 100
2, 76128, Note_on_c, 0, 76, 110
2, 76220, Note_off_c, 0, 64, 100
2, 76224, Note_on_c, 0, 60, 110
2, 76316, Note_off_c, 0, 76, 100
2, 76320, Note_on_c, 0, 72, 110
2, 76412, Note_off_c, 0, 60, 100
2, 76508, Note_off_c, 0, 72, 100
2, 76704, Note_on_c, 0, 48, 110
2, 76800, Note_on_c, 0, 52, 110
2, 76892, Note_off_c, 0, 48, 100
2, 76896, Note_on_c, 0, 55, 110
2, 76988, Note_off_c, 0, 52, 100
2, 76992, Note_on_c, 0, 60, 110
2, 77084, Note_off_c, 0, 55, 100
2, 77180, Note_off_c, 0, 60, 100
2, 77280, Note_on_c, 0, 48, 110
2, 77376, Note_on_c, 0, 52, 110
2, 77468, Note_off_c, 0, 48, 100
2, 77472, Note_on_c, 0, 55, 110
2, 77564, Note_off_c, 0, 52, 100
2, 77568, Note_on_c, 0, 60, 110
2, 77660, Note_off_c, 0, 55, 100
2, 77756, Note_off_c, 0, 60, 100
2, 77856, Note_on_c, 0, 48, 110
2, 77952, Note_on_c, 0, 52, 110
2, 78044, Note_off_c, 0, 48, 100
2, 78048, Note_on_c, 0, 55, 110
2, 78140, Note_off_c, 0, 52, 100
2, 78144, Note_on_c, 0, 60, 110
2, 78236, Note_off_c, 0, 55, 100
2, 78332, Note_off_c, 0, 60, 100
2, 78336, Note_on_c, 0, 50, 110
2, 78336, Note_on_c, 0, 57, 110
2, 78432, Note_on_c, 0, 62, 110
2, 78524, Note_off_c, 0, 50, 100
2, 78524, Note_off_c, 0, 57, 100
2, 78528, Note_on_c, 0, 50, 110
2, 78528, Note_on_c, 0, 57, 110
2, 78620, Note_off_c, 0, 62, 100
2, 78624, Note_on_c, 0, 62, 110
2, 78716, Note_off_c, 0, 50, 100
2, 78716, Note_off_c, 0, 57, 100
2, 78720, Note_on_c, 0, 57, 110
2, 78720, Note_on_c, 0, 51, 110
2, 78812, Note_off_c, 0, 62, 100
2, 78816, Note_on_c, 0, 63, 110
2, 78908, Note_off_c, 0, 57, 100
2, 78908, Note_off_c, 0, 51, 100
2, 78912, Note_on_c, 0, 52, 110
2, 78912, Note_on_c, 0, 56, 110
2, 78912, Note_on_c, 0, 64, 110
2, 79004, Note_off_c, 0, 63, 100
2, 79100, Note_off_c, 0, 52, 100
2, 79100, Note_off_c, 0, 56, 100
2, 79100, Note_off_c, 0, 64, 100
2, 79104, Note_on_c, 0, 77, 110
2, 79152, Note_on_c, 0, 79, 110
2, 79196, Note_off_c, 0, 77, 100
2, 79200, Note_on_c, 0, 77, 110
2, 79244, Note_off_c, 0, 79, 100
2, 79296, Note_on_c, 0, 76, 110
2, 79340, Note_off_c, 0, 77, 100
2, 79484, Note_off_c, 0, 76, 100
2, 79488, Note_on_c, 0, 77, 110
2, 79536, Note_on_c, 0, 79, 110
2, 79580, Note_off_c, 0, 77, 100
2, 79584, Note_on_c, 0, 77, 110
2, 79628, Note_off_c, 0, 79, 100
2, 79680, Note_on_c, 0, 76, 110
2, 79724, Note_off_c, 0, 77, 100
2, 79868, Note_off_c, 0, 76, 100
2, 79872, Note_on_c, 0, 77, 110
2, 79920, Note_on_c, 0, 79, 110
2, 79964, Note_off_c, 0, 77, 100
2, 79968, Note_on_c, 0, 77, 110
2, 80012, Note_off_c, 0, 79, 100
2, 80064, Note_on_c, 0, 76, 110
2, 80108, Note_off_c, 0, 77, 100
2, 80252, Note_off_c, 0, 76, 100
2, 80256, Note_on_c, 0, 77, 110
2, 80304, Note_on_c, 0, 79, 110
2, 80348, Note_off_c, 0, 77, 100
2, 80352, Note_on_c, 0, 77, 110
2, 80396, Note_off_c, 0, 79, 100
2, 80448, Note_on_c, 0, 76, 110
2, 80492, Note_off_c, 0, 77, 100
2, 80636, Note_off_c, 0, 76, 100
2, 80640, Note_on_c, 0, 77, 110
2, 80688, Note_on_c, 0, 79, 110
2, 80732, Note_off_c, 0, 77, 100
2, 80736, Note_on_c, 0, 77, 110
2, 80780, Note_off_c, 0, 79, 100
2, 80832, Note_on_c, 0, 76, 110
2, 80876, Note_off_c, 0, 77, 100
2, 81020, Note_off_c, 0, 76, 100
2, 81024, Note_on_c, 0, 77, 110
2, 81072, Note_on_c, 0, 79, 110
2, 81116, Note_off_c, 0, 77, 100
2, 81120, Note_on_c, 0, 77, 110
2, 81164, Note_off_c, 0, 79, 100
2, 81216, Note_on_c, 0, 76, 110
2, 81260, Note_off_c, 0, 77, 100
2, 81404, Note_off_c, 0, 76, 100
2, 81408, Note_on_c, 0, 77, 110
2, 81980, Note_off_c, 0, 77, 100
2, 81984, Note_on_c, 0, 76, 97
2, 82172, Note_off_c, 0, 76, 100
2, 82176, Note_on_c, 0, 74, 94
2, 82364, Note_off_c, 0, 74, 100
2, 82368, Note_on_c, 0, 72, 80
2, 82416, Note_on_c, 0, 74, 80
2, 82460, Note_off_c, 0, 72, 100
2, 82464, Note_on_c, 0, 72, 80
2, 82508, Note_off_c, 0, 74, 100
2, 82560, Note_on_c, 0, 71, 80
2, 82604, Note_off_c, 0, 72, 100
2, 82748, Note_off_c, 0, 71, 100
2, 82752, Note_on_c, 0, 69, 80
2, 82940, Note_off_c, 0, 69, 100
2, 82944, Note_on_c, 0, 68, 80
2, 83132, Note_off_c, 0, 68, 100
2, 83136, Note_on_c, 0, 69, 80
2, 83324, Note_off_c, 0, 69, 100
2, 83328, Note_on_c, 0, 71, 80
2, 83516, Note_off_c, 0, 71, 100
2, 83520, Note_on_c, 0, 69, 80
2, 83708, Note_off_c, 0, 69, 100
2, 83712, Note_on_c, 0, 77, 110
2, 83808, Note_on_c, 0, 89, 110
2, 83900, Note_off_c, 0, 77, 100
2, 83904, Note_on_c, 0, 76, 110
2, 83996, Note_off_c, 0, 89, 100
2, 84000, Note_on_c, 0, 88, 110
2, 84092, Note_off_c, 0, 76, 100
2, 84096, Note_on_c, 0, 77, 110
2, 84188, Note_off_c, 0, 88, 100
2, 84192, Note_on_c, 0, 89, 110
2, 84284, Note_off_c, 0, 77, 100
2, 84288, Note_on_c, 0, 76, 110
2, 84380, Note_off_c, 0, 89, 100
2, 84384, Note_on_c, 0, 88, 110
2, 84476, Note_off_c, 0, 76, 100
2, 84480, Note_on_c, 0, 77, 110
2, 84572, Note_off_c, 0, 88, 100
2, 84576, Note_on_c, 0, 89, 110
2, 84668, Note_off_c, 0, 77, 100
2, 84672, Note_on_c, 0, 76, 110
2, 84764, Note_off_c, 0, 89, 100
2, 84768, Note_on_c, 0, 88, 110
2, 84860, Note_off_c, 0, 76, 100
2, 84864, Note_on_c, 0, 77, 110
2, 84956, Note_off_c, 0, 88, 100
2, 84960, Note_on_c, 0, 89, 110
2, 85052, Note_off_c, 0, 77, 100
2, 85056, Note_on_c, 0, 76, 110
2, 85148, Note_off_c, 0, 89, 100
2, 85152, Note_on_c, 0, 88, 110
2, 85244, Note_off_c, 0, 76, 100
2, 85248, Note_on_c, 0, 77, 110
2, 85340, Note_off_c, 0, 88, 100
2, 85344, Note_on_c, 0, 89, 110
2, 85436, Note_off_c, 0, 77, 100
2, 85440, Note_on_c, 0, 76, 110
2, 85532, Note_off_c, 0, 89, 100
2, 85536, Note_on_c, 0, 88, 110
2, 85628, Note_off_c, 0, 76, 100
2, 85632, Note_on_c, 0, 77, 110
2, 85724, Note_off_c, 0, 88, 100
2, 85728, Note_on_c, 0, 89, 110
2, 85820, Note_off_c, 0, 77, 100
2, 85824, Note_on_c, 0, 88, 110
2, 85824, Note_on_c, 0, 76, 110
2, 85916, Note_off_c, 0, 89, 100
2, 86012, Note_off_c, 0, 88, 100
2, 86012, Note_off_c, 0, 76, 100
2, 86016, Note_on_c, 0, 89, 110
2, 86016, Note_on_c, 0, 77, 110
2, 86588, Note_off_c, 0, 77, 100
2, 86588, Note_off_c, 0, 89, 100
2, 86592, Note_on_c, 0, 88, 95
2, 86592, Note_on_c, 0, 76, 95
2, 86780, Note_off_c, 0, 88, 100
2, 86780, Note_off_c, 0, 76, 100
2, 86784, Note_on_c, 0, 86, 93
2, 86784, Note_on_c, 0, 74, 93
2, 86972, Note_off_c, 0, 86, 100
2, 86972, Note_off_c, 0, 74, 100
2, 86976, Note_on_c, 0, 84, 80
2, 86976, Note_on_c, 0, 72, 80
2, 87164, Note_off_c, 0, 84, 100
2, 87164, Note_off_c, 0, 72, 100
2, 87168, Note_on_c, 0, 83, 80
2, 87168, Note_on_c, 0, 71, 80
2, 87356, Note_off_c, 0, 83, 100
2, 87356, Note_off_c, 0, 71, 100
2, 87360, Note_on_c, 0, 81, 80
2, 87360, Note_on_c, 0, 69, 80
2, 87548, Note_off_c, 0, 81, 100
2, 87548, Note_off_c, 0, 69, 100
2, 87552, Note_on_c, 0, 80, 80
2, 87552, Note_on_c, 0, 68, 80
2, 87740, Note_off_c, 0, 80, 100
2, 87740, Note_off_c, 0, 68, 100
2, 87744, Note_on_c, 0, 81, 80
2, 87744, Note_on_c, 0, 69, 80
2, 87932, Note_off_c, 0, 81, 100
2, 87932, Note_off_c, 0, 69, 100
2, 87936, Note_on_c, 0, 83, 80
2, 87936, Note_on_c, 0, 71, 80
2, 88124, Note_off_c, 0, 83, 100
2, 88124, Note_off_c, 0, 71, 100
2, 88128, Note_on_c, 0, 81, 80
2, 88128, Note_on_c, 0, 69, 80
2, 88316, Note_off_c, 0, 81, 100
2, 88316, Note_off_c, 0, 69, 100
2, 88320, Note_on_c, 0, 77, 80
2, 88320, Note_on_c, 0, 89, 80
2, 88508, Note_off_c, 0, 77, 100
2, 88508, Note_off_c, 0, 89, 100
2, 88512, Note_on_c, 0, 77, 82
2, 88512, Note_on_c, 0, 89, 82
2, 88700, Note_off_c, 0, 77, 100
2, 88700, Note_off_c, 0, 89, 100
2, 88704, Note_on_c, 0, 89, 85
2, 88704, Note_on_c, 0, 77, 85
2, 88892, Note_off_c, 0, 89, 100
2, 88892, Note_off_c, 0, 77, 100
2, 88896, Note_on_c, 0, 88, 88
2, 88896, Note_on_c, 0, 76, 88
2, 89084, Note_off_c, 0, 88, 100
2, 89084, Note_off_c, 0, 76, 100
2, 89088, Note_on_c, 0, 86, 90
2, 89088, Note_on_c, 0, 74, 90
2, 89276, Note_off_c, 0, 86, 100
2, 89276, Note_off_c, 0, 74, 100
2, 89280, Note_on_c, 0, 84, 93
2, 89280, Note_on_c, 0, 72, 93
2, 89468, Note_off_c, 0, 84, 100
2, 89468, Note_off_c, 0, 72, 100
2, 89472, Note_on_c, 0, 83, 96
2, 89472, Note_on_c, 0, 71, 96
2, 89660, Note_off_c, 0, 83, 100
2, 89660, Note_off_c, 0, 71, 100
2, 89664, Note_on_c, 0, 81, 99
2, 89664, Note_on_c, 0, 69, 99
2, 89852, Note_off_c, 0, 81, 100
2, 89852, Note_off_c, 0, 69, 100
2, 89856, Note_on_c, 0, 80, 101
2, 89856, Note_on_c, 0, 68, 101
2, 90044, Note_off_c, 0, 80, 100
2, 90044, Note_off_c, 0, 68, 100
2, 90048, Note_on_c, 0, 81, 104
2, 90048, Note_on_c, 0, 69, 104
2, 90236, Note_off_c, 0, 81, 100
2, 90236, Note_off_c, 0, 69, 100
2, 90240, Note_on_c, 0, 83, 107
2, 90240, Note_on_c, 0, 71, 107
2, 90428, Note_off_c, 0, 83, 100
2, 90428, Note_off_c, 0, 71, 100
2, 90432, Note_on_c, 0, 81, 110
2, 90432, Note_on_c, 0, 69, 110
2, 90620, Note_off_c, 0, 81, 100
2, 90620, Note_off_c, 0, 69, 100
2, 90624, Note_on_c, 0, 77, 110
2, 90624, Note_on_c, 0, 89, 110
2, 90812, Note_off_c, 0, 77, 100
2, 90812, Note_off_c, 0, 89, 100
2, 90816, Note_on_c, 0, 77, 110
2, 90816, Note_on_c, 0, 89, 110
2, 91004, Note_off_c, 0, 77, 100
2, 91004, Note_off_c, 0, 89, 100
2, 91008, Note_on_c, 0, 89, 110
2, 91008, Note_on_c, 0, 77, 110
2, 91196, Note_off_c, 0, 89, 100
2, 91196, Note_off_c, 0, 77, 100
2, 91200, Note_on_c, 0, 88, 110
2, 91200, Note_on_c, 0, 76, 110
2, 91388, Note_off_c, 0, 88, 100
2, 91388, Note_off_c, 0, 76, 100
2, 91392, Note_on_c, 0, 86, 110
2, 91392, Note_on_c, 0, 74, 110
2, 91580, Note_off_c, 0, 86, 100
2, 91580, Note_off_c, 0, 74, 100
2, 91584, Note_on_c, 0, 84, 110
2, 91584, Note_on_c, 0, 72, 110
2, 91772, Note_off_c, 0, 84, 100
2, 91772, Note_off_c, 0, 72, 100
2, 91776, Note_on_c, 0, 83, 110
2, 91776, Note_on_c, 0, 71, 110
2, 91964, Note_off_c, 0, 83, 100
2, 91964, Note_off_c, 0, 71, 100
2, 91968, Note_on_c, 0, 81, 110
2, 91968, Note_on_c, 0, 69, 110
2, 92156, Note_off_c, 0, 81, 100
2, 92156, Note_off_c, 0, 69, 100
2, 92160, Note_on_c, 0, 80, 110
2, 92160, Note_on_c, 0, 68, 110
2, 92348, Note_off_c, 0, 80, 100
2, 92348, Note_off_c, 0, 68, 100
2, 92352, Note_on_c, 0, 81, 110
2, 92352, Note_on_c, 0, 69, 110
2, 92540, Note_off_c, 0, 81, 100
2, 92540, Note_off_c, 0, 69, 100
2, 92544, Note_on_c, 0, 83, 110
2, 92544, Note_on_c, 0, 71, 110
2, 92732, Note_off_c, 0, 83, 100
2, 92732, Note_off_c, 0, 71, 100
2, 92736, Note_on_c, 0, 81, 80
2, 92736, Note_on_c, 0, 69, 80
2, 92924, Note_off_c, 0, 81, 100
2, 92924, Note_off_c, 0, 69, 100
2, 93120, Note_on_c, 0, 69, 80
2, 93216, Note_on_c, 0, 81, 80
2, 93308, Note_off_c, 0, 69, 100
2, 93312, Note_on_c, 0, 72, 80
2, 93404, Note_off_c, 0, 81, 100
2, 93500, Note_off_c, 0, 72, 100
2, 93696, Note_on_c, 0, 72, 80
2, 93792, Note_on_c, 0, 84, 80
2, 93884, Note_off_c, 0, 72, 100
2, 93888, Note_on_c, 0, 76, 80
2, 93980, Note_off_c, 0, 84, 100
2, 94076, Note_off_c, 0, 76, 100
2, 94272, Note_on_c, 0, 76, 80
2, 94368, Note_on_c, 0, 88, 80
2, 94460, Note_off_c, 0, 76, 100
2, 94464, Note_on_c, 0, 72, 80
2, 94556, Note_off_c, 0, 88, 100
2, 94652, Note_off_c, 0, 72, 100
2, 94848, Note_on_c, 0, 72, 80
2, 94944, Note_on_c, 0, 84, 80
2, 95036, Note_off_c, 0, 72, 100
2, 95040, Note_on_c, 0, 69, 80
2, 95132, Note_off_c, 0, 84, 100
2, 95232, Note_on_c, 0, 81, 83
2, 95804, Note_off_c, 0, 69, 100
2, 95804, Note_off_c, 0, 81, 100
2, 95808, Note_on_c, 0, 71, 93
2, 95808, Note_on_c, 0, 83, 93
2, 95996, Note_off_c, 0, 71, 100
2, 95996, Note_off_c, 0, 83, 100
2, 96000, Note_on_c, 0, 68, 96
2, 96000, Note_on_c, 0, 80, 96
2, 96188, Note_off_c, 0, 68, 100
2, 96188, Note_off_c, 0, 80, 100
2, 96192, Note_on_c, 0, 81, 99
2, 96192, Note_on_c, 0, 69, 99
2, 96380, Note_off_c, 0, 81, 100
2, 96380, Note_off_c, 0, 69, 100
2, 96480, Note_on_c, 0, 69, 80
2, 96576, Note_on_c, 0, 81, 80
2, 96668, Note_off_c, 0, 69, 100
2, 96672, Note_on_c, 0, 69, 80
2, 96764, Note_off_c, 0, 81, 100
2, 96768, Note_on_c, 0, 72, 80
2, 96860, Note_off_c, 0, 69, 100
2, 96956, Note_off_c, 0, 72, 100
2, 97056, Note_on_c, 0, 72, 80
2, 97152, Note_on_c, 0, 84, 80
2, 97244, Note_off_c, 0, 72, 100
2, 97248, Note_on_c, 0, 72, 80
2, 97340, Note_off_c, 0, 84, 100
2, 97344, Note_on_c, 0, 76, 80
2, 97436, Note_off_c, 0, 72, 100
2, 97532, Note_off_c, 0, 76, 100
2, 97632, Note_on_c, 0, 76, 80
2, 97728, Note_on_c, 0, 88, 80
2, 97820, Note_off_c, 0, 76, 100
2, 97824, Note_on_c, 0, 76, 80
2, 97916, Note_off_c, 0, 88, 100
2, 97920, Note_on_c, 0, 72, 80
2, 98012, Note_off_c, 0, 76, 100
2, 98108, Note_off_c, 0, 72, 100
2, 98208, Note_on_c, 0, 72, 80
2, 98304, Note_on_c, 0, 84, 80
2, 98396, Note_off_c, 0, 72, 100
2, 98400, Note_on_c, 0, 72, 80
2, 98492, Note_off_c, 0, 84, 100
2, 98496, Note_on_c, 0, 69, 90
2, 98588, Note_off_c, 0, 72, 100
2, 98688, Note_on_c, 0, 81, 92
2, 99260, Note_off_c, 0, 69, 100
2, 99260, Note_off_c, 0, 81, 100
2, 99264, Note_on_c, 0, 71, 93
2, 99264, Note_on_c, 0, 83, 93
2, 99452, Note_off_c, 0, 71, 100
2, 99452, Note_off_c, 0, 83, 100
2, 99456, Note_on_c, 0, 68, 96
2, 99456, Note_on_c, 0, 80, 96
2, 99644, Note_off_c, 0, 68, 100
2, 99644, Note_off_c, 0, 80, 100
2, 99648, Note_on_c, 0, 69, 100
2, 99648, Note_on_c, 0, 81, 100
2, 99836, Note_off_c, 0, 69, 100
2, 99836, Note_off_c, 0, 81, 100
2, 99840, Note_on_c, 0, 71, 103
2, 99840, Note_on_c, 0, 83, 103
2, 100028, Note_off_c, 0, 71, 100
2, 100028, Note_off_c, 0, 83, 100
2, 100032, Note_on_c, 0, 73, 106
2, 100032, Note_on_c, 0, 85, 106
2, 100220, Note_off_c, 0, 73, 100
2, 100220, Note_off_c, 0, 85, 100
2, 100224, Note_on_c, 0, 74, 110
2, 100224, Note_on_c, 0, 86, 110
2, 100412, Note_off_c, 0, 74, 100
2, 100412, Note_off_c, 0, 86, 100
2, 100416, Note_on_c, 0, 72, 107
2, 100416, Note_on_c, 0, 84, 107
2, 100604, Note_off_c, 0, 72, 100
2, 100604, Note_off_c, 0, 84, 100
2, 100608, Note_on_c, 0, 71, 104
2, 100608, Note_on_c, 0, 83, 104
2, 100796, Note_off_c, 0, 71, 100
2, 100796, Note_off_c, 0, 83, 100
2, 100800, Note_on_c, 0, 72, 101
2, 100800, Note_on_c, 0, 84, 101
2, 100988, Note_off_c, 0, 72, 100
2, 100988, Note_off_c, 0, 84, 100
2, 100992, Note_on_c, 0, 68, 100
2, 100992, Note_on_c, 0, 80, 100
2, 101180, Note_off_c, 0, 68, 100
2, 101180, Note_off_c, 0, 80, 100
2, 101184, Note_on_c, 0, 69, 100
2, 101184, Note_on_c, 0, 81, 100
2, 101372, Note_off_c, 0, 69, 100
2, 101372, Note_off_c, 0, 81, 100
2, 101376, Note_on_c, 0, 71, 100
2, 101376, Note_on_c, 0, 83, 100
2, 101564, Note_off_c, 0, 71, 100
2, 101564, Note_off_c, 0, 83, 100
2, 101568, Note_on_c, 0, 66, 100
2, 101568, Note_on_c, 0, 78, 100
2, 101756, Note_off_c, 0, 66, 100
2, 101756, Note_off_c, 0, 78, 100
2, 101760, Note_on_c, 0, 68, 100
2, 101760, Note_on_c, 0, 80, 100
2, 101948, Note_off_c, 0, 68, 100
2, 101948, Note_off_c, 0, 80, 100
2, 101952, Note_on_c, 0, 69, 100
2, 102048, Note_on_c, 0, 81, 101
2, 102140, Note_off_c, 0, 69, 100
2, 102144, Note_on_c, 0, 71, 103
2, 102236, Note_off_c, 0, 81, 100
2, 102240, Note_on_c, 0, 83, 104
2, 102332, Note_off_c, 0, 71, 100
2, 102336, Note_on_c, 0, 73, 106
2, 102428, Note_off_c, 0, 83, 100
2, 102432, Note_on_c, 0, 85, 108
2, 102524, Note_off_c, 0, 73, 100
2, 102528, Note_on_c, 0, 74, 109
2, 102620, Note_off_c, 0, 85, 100
2, 102624, Note_on_c, 0, 86, 109
2, 102716, Note_off_c, 0, 74, 100
2, 102720, Note_on_c, 0, 72, 107
2, 102812, Note_off_c, 0, 86, 100
2, 102816, Note_on_c, 0, 84, 106
2, 102908, Note_off_c, 0, 72, 100
2, 102912, Note_on_c, 0, 71, 104
2, 103004, Note_off_c, 0, 84, 100
2, 103008, Note_on_c, 0, 83, 102
2, 103100, Note_off_c, 0, 71, 100
2, 103104, Note_on_c, 0, 72, 101
2, 103196, Note_off_c, 0, 83, 100
2, 103200, Note_on_c, 0, 84, 100
2, 103292, Note_off_c, 0, 72, 100
2, 103296, Note_on_c, 0, 68, 100
2, 103388, Note_off_c, 0, 84, 100
2, 103392, Note_on_c, 0, 80, 100
2, 103484, Note_off_c, 0, 68, 100
2, 103488, Note_on_c, 0, 69, 100
2, 103580, Note_off_c, 0, 80, 100
2, 103584, Note_on_c, 0, 81, 100
2, 103676, Note_off_c, 0, 69, 100
2, 103680, Note_on_c, 0, 71, 100
2, 103772, Note_off_c, 0, 81, 100
2, 103776, Note_on_c, 0, 83, 100
2, 103868, Note_off_c, 0, 71, 100
2, 103872, Note_on_c, 0, 66, 100
2, 103964, Note_off_c, 0, 83, 100
2, 103968, Note_on_c, 0, 78, 100
2, 104060, Note_off_c, 0, 66, 100
2, 104064, Note_on_c, 0, 68, 100
2, 104156, Note_off_c, 0, 78, 100
2, 104160, Note_on_c, 0, 80, 100
2, 104252, Note_off_c, 0, 68, 100
2, 104256, Note_on_c, 0, 69, 112
2, 104348, Note_off_c, 0, 80, 100
2, 104352, Note_on_c, 0, 81, 100
2, 104444, Note_off_c, 0, 69, 100
2, 104448, Note_on_c, 0, 68, 100
2, 104540, Note_off_c, 0, 81, 100
2, 104544, Note_on_c, 0, 69, 100
2, 104636, Note_off_c, 0, 68, 100
2, 104640, Note_on_c, 0, 81, 100
2, 104732, Note_off_c, 0, 69, 100
2, 104736, Note_on_c, 0, 69, 100
2, 104828, Note_off_c, 0, 81, 100
2, 104832, Note_on_c, 0, 68, 120
2, 104924, Note_off_c, 0, 69, 100
2, 104928, Note_on_c, 0, 69, 100
2, 105020, Note_off_c, 0, 68, 100
2, 105024, Note_on_c, 0, 81, 100
2, 105116, Note_off_c, 0, 69, 100
2, 105120, Note_on_c, 0, 69, 100
2, 105212, Note_off_c, 0, 81, 100
2, 105216, Note_on_c, 0, 68, 100
2, 105308, Note_off_c, 0, 69, 100
2, 105312, Note_on_c, 0, 69, 100
2, 105404, Note_off_c, 0, 68, 100
2, 105408, Note_on_c, 0, 81, 112
2, 105500, Note_off_c, 0, 69, 100
2, 105504, Note_on_c, 0, 69, 100
2, 105596, Note_off_c, 0, 81, 100
2, 105600, Note_on_c, 0, 68, 100
2, 105692, Note_off_c, 0, 69, 100
2, 105696, Note_on_c, 0, 69, 100
2, 105788, Note_off_c, 0, 68, 100
2, 105792, Note_on_c, 0, 81, 100
2, 105884, Note_off_c, 0, 69, 100
2, 105888, Note_on_c, 0, 69, 100
2, 105980, Note_off_c, 0, 81, 100
2, 105984, Note_on_c, 0, 68, 120
2, 106076, Note_off_c, 0, 69, 100
2, 106080, Note_on_c, 0, 69, 100
2, 106172, Note_off_c, 0, 68, 100
2, 106176, Note_on_c, 0, 81, 100
2, 106268, Note_off_c, 0, 69, 100
2, 106272, Note_on_c, 0, 69, 100
2, 106364, Note_off_c, 0, 81, 100
2, 106368, Note_on_c, 0, 68, 100
2, 106460, Note_off_c, 0, 69, 100
2, 106464, Note_on_c, 0, 69, 100
2, 106556, Note_off_c, 0, 68, 100
2, 106560, Note_on_c, 0, 70, 100
2, 106652, Note_off_c, 0, 69, 100
2, 106656, Note_on_c, 0, 69, 80
2, 106748, Note_off_c, 0, 70, 100
2, 106752, Note_on_c, 0, 70, 80
2, 106844, Note_off_c, 0, 69, 100
2, 106848, Note_on_c, 0, 69, 80
2, 106940, Note_off_c, 0, 70, 100
2, 106944, Note_on_c, 0, 70, 80
2, 107036, Note_off_c, 0, 69, 100
2, 107040, Note_on_c, 0, 69, 80
2, 107132, Note_off_c, 0, 70, 100
2, 107136, Note_on_c, 0, 70, 80
2, 107228, Note_off_c, 0, 69, 100
2, 107232, Note_on_c, 0, 69, 80
2, 107324, Note_off_c, 0, 70, 100
2, 107328, Note_on_c, 0, 70, 80
2, 107420, Note_off_c, 0, 69, 100
2, 107424, Note_on_c, 0, 69, 80
2, 107516, Note_off_c, 0, 70, 100
2, 107520, Note_on_c, 0, 70, 80
2, 107612, Note_off_c, 0, 69, 100
2, 107616, Note_on_c, 0, 69, 80
2, 107708, Note_off_c, 0, 70, 100
2, 107712, Note_on_c, 0, 70, 80
2, 107804, Note_off_c, 0, 69, 100
2, 107808, Note_on_c, 0, 69, 80
2, 107900, Note_off_c, 0, 70, 100
2, 107904, Note_on_c, 0, 70, 80
2, 107996, Note_off_c, 0, 69, 100
2, 108000, Note_on_c, 0, 69, 80
2, 108092, Note_off_c, 0, 70, 100
2, 108096, Note_on_c, 0, 73, 80
2, 108188, Note_off_c, 0, 69, 100
2, 108192, Note_on_c, 0, 69, 80
2, 108284, Note_off_c, 0, 73, 100
2, 108288, Note_on_c, 0, 74, 80
2, 108380, Note_off_c, 0, 69, 100
2, 108384, Note_on_c, 0, 69, 80
2, 108476, Note_off_c, 0, 74, 100
2, 108480, Note_on_c, 0, 76, 80
2, 108572, Note_off_c, 0, 69, 100
2, 108576, Note_on_c, 0, 69, 80
2, 108668, Note_off_c, 0, 76, 100
2, 108672, Note_on_c, 0, 77, 80
2, 108764, Note_off_c, 0, 69, 100
2, 108768, Note_on_c, 0, 76, 80
2, 108860, Note_off_c, 0, 77, 100
2, 108864, Note_on_c, 0, 75, 80
2, 108956, Note_off_c, 0, 76, 100
2, 109052, Note_off_c, 0, 75, 100
2, 109152, Note_on_c, 0, 75, 80
2, 109248, Note_on_c, 0, 81, 80
2, 109340, Note_off_c, 0, 75, 100
2, 109344, Note_on_c, 0, 82, 80
2, 109436, Note_off_c, 0, 81, 100
2, 109440, Note_on_c, 0, 84, 80
2, 109532, Note_off_c, 0, 82, 100
2, 109628, Note_off_c, 0, 84, 100
2, 109728, Note_on_c, 0, 75, 80
2, 109824, Note_on_c, 0, 81, 80
2, 109916, Note_off_c, 0, 75, 100
2, 109920, Note_on_c, 0, 82, 80
2, 110012, Note_off_c, 0, 81, 100
2, 110016, Note_on_c, 0, 84, 80
2, 110108, Note_off_c, 0, 82, 100
2, 110204, Note_off_c, 0, 84, 100
2, 110304, Note_on_c, 0, 75, 80
2, 110400, Note_on_c, 0, 81, 80
2, 110492, Note_off_c, 0, 75, 100
2, 110496, Note_on_c, 0, 82, 80
2, 110588, Note_off_c, 0, 81, 100
2, 110592, Note_on_c, 0, 84, 80
2, 110684, Note_off_c, 0, 82, 100
2, 110780, Note_off_c, 0, 84, 100
2, 110880, Note_on_c, 0, 75, 80
2, 110976, Note_on_c, 0, 84, 80
2, 111068, Note_off_c, 0, 75, 100
2, 111072, Note_on_c, 0, 81, 80
2, 111164, Note_off_c, 0, 84, 100
2, 111168, Control_c, 0, 64, 127
2, 111168, Note_on_c, 0, 82, 110
2, 111260, Note_off_c, 0, 81, 100
2, 111358, Note_off_c, 0, 82, 100
2, 111456, Note_on_c, 0, 46, 110
2, 111552, Note_on_c, 0, 50, 110
2, 111646, Note_off_c, 0, 46, 100
2, 111648, Note_on_c, 0, 55, 110
2, 111740, Note_off_c, 0, 55, 100
2, 111740, Control_c, 0, 64, 0
2, 111742, Note_off_c, 0, 50, 100
2, 111744, Control_c, 0, 64, 127
2, 111744, Note_on_c, 0, 58, 110
2, 111932, Note_off_c, 0, 58, 100
2, 112032, Note_on_c, 0, 58, 110
2, 112128, Note_on_c, 0, 62, 110
2, 112220, Note_off_c, 0, 58, 100
2, 112224, Note_on_c, 0, 67, 110
2, 112316, Note_off_c, 0, 62, 100
2, 112316, Note_off_c, 0, 67, 100
2, 112316, Control_c, 0, 64, 0
2, 112320, Control_c, 0, 64, 127
2, 112320, Note_on_c, 0, 70, 110
2, 112508, Note_off_c, 0, 70, 100
2, 112608, Note_on_c, 0, 70, 110
2, 112704, Note_on_c, 0, 74, 110
2, 112796, Note_off_c, 0, 70, 100
2, 112800, Note_on_c, 0, 79, 110
2, 112892, Note_off_c, 0, 74, 100
2, 112892, Control_c, 0, 64, 0
2, 112896, Note_on_c, 0, 82, 110
2, 112988, Note_off_c, 0, 79, 100
2, 113084, Note_off_c, 0, 82, 100
2, 113184, Note_on_c, 0, 77, 110
2, 113280, Note_on_c, 0, 83, 110
2, 113372, Note_off_c, 0, 77, 100
2, 113376, Note_on_c, 0, 84, 110
2, 113468, Note_off_c, 0, 83, 100
2, 113472, Note_on_c, 0, 86, 80
2, 113564, Note_off_c, 0, 84, 100
2, 113660, Note_off_c, 0, 86, 100
2, 113760, Note_on_c, 0, 77, 80
2, 113856, Note_on_c, 0, 83, 80
2, 113948, Note_off_c, 0, 77, 100
2, 113952, Note_on_c, 0, 84, 80
2, 114044, Note_off_c, 0, 83, 100
2, 114048, Note_on_c, 0, 86, 80
2, 114140, Note_off_c, 0, 84, 100
2, 114236, Note_off_c, 0, 86, 100
2, 114336, Note_on_c, 0, 77, 80
2, 114432, Note_on_c, 0, 83, 80
2, 114524, Note_off_c, 0, 77, 100
2, 114528, Note_on_c, 0, 84, 80
2, 114620, Note_off_c, 0, 83, 100
2, 114624, Note_on_c, 0, 86, 80
2, 114716, Note_off_c, 0, 84, 100
2, 114812, Note_off_c, 0, 86, 100
2, 114912, Note_on_c, 0, 77, 80
2, 115008, Note_on_c, 0, 83, 80
2, 115100, Note_off_c, 0, 77, 100
2, 115104, Note_on_c, 0, 84, 80
2, 115196, Note_off_c, 0, 83, 100
2, 115200, Note_on_c, 0, 86, 80
2, 115292, Note_off_c, 0, 84, 100
2, 115388, Note_off_c, 0, 86, 100
2, 115488, Note_on_c, 0, 77, 80
2, 115584, Note_on_c, 0, 86, 80
2, 115676, Note_off_c, 0, 77, 100
2, 115680, Note_on_c, 0, 83, 80
2, 115772, Note_off_c, 0, 86, 100
2, 115776, Note_on_c, 0, 84, 110
2, 115776, Control_c, 0, 64, 127
2, 115868, Note_off_c, 0, 83, 100
2, 115964, Note_off_c, 0, 84, 100
2, 116064, Note_on_c, 0, 48, 110
2, 116160, Note_on_c, 0, 52, 110
2, 116252, Note_off_c, 0, 48, 100
2, 116256, Note_on_c, 0, 57, 110
2, 116348, Note_off_c, 0, 52, 100
2, 116348, Note_off_c, 0, 57, 100
2, 116348, Control_c, 0, 64, 0
2, 116352, Control_c, 0, 64, 127
2, 116352, Note_on_c, 0, 60, 110
2, 116540, Note_off_c, 0, 60, 100
2, 116640, Note_on_c, 0, 60, 110
2, 116736, Note_on_c, 0, 64, 110
2, 116828, Note_off_c, 0, 60, 100
2, 116832, Note_on_c, 0, 69, 110
2, 116924, Note_off_c, 0, 64, 100
2, 116924, Note_off_c, 0, 69, 100
2, 116924, Control_c, 0, 64, 0
2, 116928, Control_c, 0, 64, 127
2, 116928, Note_on_c, 0, 72, 110
2, 117116, Note_off_c, 0, 72, 100
2, 117216, Note_on_c, 0, 72, 110
2, 117312, Note_on_c, 0, 76, 110
2, 117404, Note_off_c, 0, 72, 100
2, 117408, Note_on_c, 0, 81, 110
2, 117500, Note_off_c, 0, 76, 100
2, 117504, Note_on_c, 0, 84, 110
2, 117596, Note_off_c, 0, 81, 100
2, 117692, Note_off_c, 0, 84, 100
2, 117692, Control_c, 0, 64, 0
2, 118176, Note_on_c, 0, 58, 100
2, 118272, Note_on_c, 0, 64, 100
2, 118364, Note_off_c, 0, 58, 100
2, 118368, Note_on_c, 0, 67, 100
2, 118460, Note_off_c, 0, 64, 100
2, 118464, Note_on_c, 0, 70, 100
2, 118556, Note_off_c, 0, 67, 100
2, 118652, Note_off_c, 0, 70, 100
2, 118752, Note_on_c, 0, 61, 100
2, 118848, Note_on_c, 0, 67, 100
2, 118940, Note_off_c, 0, 61, 100
2, 118944, Note_on_c, 0, 70, 100
2, 119036, Note_off_c, 0, 67, 100
2, 119040, Note_on_c, 0, 73, 100
2, 119132, Note_off_c, 0, 70, 100
2, 119228, Note_off_c, 0, 73, 100
2, 119328, Note_on_c, 0, 70, 100
2, 119424, Note_on_c, 0, 73, 100
2, 119516, Note_off_c, 0, 70, 100
2, 119520, Note_on_c, 0, 76, 100
2, 119612, Note_off_c, 0, 73, 100
2, 119616, Note_on_c, 0, 79, 100
2, 119708, Note_off_c, 0, 76, 100
2, 119804, Note_off_c, 0, 79, 100
2, 119904, Note_on_c, 0, 76, 100
2, 120000, Note_on_c, 0, 82, 100
2, 120092, Note_off_c, 0, 76, 100
2, 120096, Note_on_c, 0, 81, 100
2, 120188, Note_off_c, 0, 82, 100
2, 120284, Note_off_c, 0, 81, 100
2, 120480, Note_on_c, 0, 62, 100
2, 120576, Note_on_c, 0, 65, 100
2, 120668, Note_off_c, 0, 62, 100
2, 120672, Note_on_c, 0, 69, 100
2, 120764, Note_off_c, 0, 65, 100
2, 120768, Note_on_c, 0, 74, 100
2, 120860, Note_off_c, 0, 69, 100
2, 120956, Note_off_c, 0, 74, 100
2, 121056, Note_on_c, 0, 65, 100
2, 121152, Note_on_c, 0, 69, 100
2, 121244, Note_off_c, 0, 65, 100
2, 121248, Note_on_c, 0, 74, 100
2, 121340, Note_off_c, 0, 69, 100
2, 121344, Note_on_c, 0, 77, 100
2, 121436, Note_off_c, 0, 74, 100
2, 121532, Note_off_c, 0, 77, 100
2, 121632, Note_on_c, 0, 69, 100
2, 121728, Note_on_c, 0, 74, 100
2, 121820, Note_off_c, 0, 69, 100
2, 121824, Note_on_c, 0, 77, 100
2, 121916, Note_off_c, 0, 74, 100
2, 121920, Note_on_c, 0, 81, 100
2, 122012, Note_off_c, 0, 77, 100
2, 122108, Note_off_c, 0, 81, 100
2, 122400, Note_on_c, 0, 80, 100
2, 122496, Note_on_c, 0, 74, 100
2, 122588, Note_off_c, 0, 80, 100
2, 122592, Note_on_c, 0, 75, 100
2, 122684, Note_off_c, 0, 74, 100
2, 122688, Note_on_c, 0, 77, 100
2, 122780, Note_off_c, 0, 75, 100
2, 122876, Note_off_c, 0, 77, 100
2, 122976, Note_on_c, 0, 77, 100
2, 123072, Note_on_c, 0, 71, 100
2, 123164, Note_off_c, 0, 77, 100
2, 123168, Note_on_c, 0, 72, 100
2, 123260, Note_off_c, 0, 71, 100
2, 123264, Note_on_c, 0, 74, 100
2, 123356, Note_off_c, 0, 72, 100
2, 123452, Note_off_c, 0, 74, 100
2, 123552, Note_on_c, 0, 74, 100
2, 123648, Note_on_c, 0, 65, 100
2, 123740, Note_off_c, 0, 74, 100
2, 123744, Note_on_c, 0, 67, 100
2, 123836, Note_off_c, 0, 65, 100
2, 123840, Note_on_c, 0, 68, 100
2, 123932, Note_off_c, 0, 67, 100
2, 124028, Note_off_c, 0, 68, 100
2, 124128, Note_on_c, 0, 68, 100
2, 124224, Note_on_c, 0, 62, 100
2, 124316, Note_off_c, 0, 68, 100
2, 124320, Note_on_c, 0, 63, 100
2, 124412, Note_off_c, 0, 62, 100
2, 124416, Note_on_c, 0, 65, 100
2, 124508, Note_off_c, 0, 63, 100
2, 124604, Note_off_c, 0, 65, 100
2, 124704, Note_on_c, 0, 79, 100
2, 124800, Note_on_c, 0, 72, 100
2, 124892, Note_off_c, 0, 79, 100
2, 124896, Note_on_c, 0, 74, 100
2, 124988, Note_off_c, 0, 72, 100
2, 124992, Note_on_c, 0, 75, 100
2, 125084, Note_off_c, 0, 74, 100
2, 125180, Note_off_c, 0, 75, 100
2, 125280, Note_on_c, 0, 75, 100
2, 125376, Note_on_c, 0, 67, 100
2, 125468, Note_off_c, 0, 75, 100
2, 125472, Note_on_c, 0, 71, 100
2, 125564, Note_off_c, 0, 67, 100
2, 125568, Note_on_c, 0, 72, 100
2, 125660, Note_off_c, 0, 71, 100
2, 125756, Note_off_c, 0, 72, 100
2, 125856, Note_on_c, 0, 72, 100
2, 125952, Note_on_c, 0, 63, 100
2, 126044, Note_off_c, 0, 72, 100
2, 126048, Note_on_c, 0, 65, 100
2, 126140, Note_off_c, 0, 63, 100
2, 126144, Note_on_c, 0, 67, 100
2, 126236, Note_off_c, 0, 65, 100
2, 126332, Note_off_c, 0, 67, 100
2, 126432, Note_on_c, 0, 67, 100
2, 126528, Note_on_c, 0, 60, 100
2, 126620, Note_off_c, 0, 67, 100
2, 126624, Note_on_c, 0, 62, 100
2, 126716, Note_off_c, 0, 60, 100
2, 126720, Note_on_c, 0, 63, 100
2, 126812, Note_off_c, 0, 62, 100
2, 126816, Note_on_c, 0, 60, 100
2, 126908, Note_off_c, 0, 63, 100
2, 126912, Note_on_c, 0, 55, 100
2, 127004, Note_off_c, 0, 60, 100
2, 127100, Note_off_c, 0, 55, 100
2, 127392, Note_on_c, 0, 54, 100
2, 127488, Note_on_c, 0, 60, 100
2, 127580, Note_off_c, 0, 54, 100
2, 127584, Note_on_c, 0, 63, 100
2, 127676, Note_off_c, 0, 60, 100
2, 127680, Note_on_c, 0, 66, 100
2, 127772, Note_off_c, 0, 63, 100
2, 127868, Note_off_c, 0, 66, 100
2, 127968, Note_on_c, 0, 57, 100
2, 128064, Note_on_c, 0, 63, 100
2, 128156, Note_off_c, 0, 57, 100
2, 128160, Note_on_c, 0, 66, 100
2, 128252, Note_off_c, 0, 63, 100
2, 128256, Note_on_c, 0, 69, 100
2, 128348, Note_off_c, 0, 66, 100
2, 128444, Note_off_c, 0, 69, 100
2, 128544, Note_on_c, 0, 66, 100
2, 128640, Note_on_c, 0, 69, 100
2, 128732, Note_off_c, 0, 66, 100
2, 128736, Note_on_c, 0, 70, 100
2, 128828, Note_off_c, 0, 69, 100
2, 128832, Note_on_c, 0, 75, 100
2, 128924, Note_off_c, 0, 70, 100
2, 129020, Note_off_c, 0, 75, 100
2, 129120, Note_on_c, 0, 72, 100
2, 129216, Note_on_c, 0, 78, 100
2, 129308, Note_off_c, 0, 72, 100
2, 129312, Note_on_c, 0, 77, 100
2, 129404, Note_off_c, 0, 78, 100
2, 129500, Note_off_c, 0, 77, 100
2, 129696, Note_on_c, 0, 61, 100
2, 129792, Note_on_c, 0, 65, 100
2, 129884, Note_off_c, 0, 61, 100
2, 129888, Note_on_c, 0, 70, 100
2, 129980, Note_off_c, 0, 65, 100
2, 129984, Note_on_c, 0, 73, 100
2, 130076, Note_off_c, 0, 70, 100
2, 130172, Note_off_c, 0, 73, 100
2, 130272, Note_on_c, 0, 65, 100
2, 130368, Note_on_c, 0, 70, 100
2, 130460, Note_off_c, 0, 65, 100
2, 130464, Note_on_c, 0, 73, 100
2, 130556, Note_off_c, 0, 70, 100
2, 130560, Note_on_c, 0, 77, 100
2, 130652, Note_off_c, 0, 73, 100
2, 130748, Note_off_c, 0, 77, 100
2, 130848, Note_on_c, 0, 70, 100
2, 130944, Note_on_c, 0, 73, 100
2, 131036, Note_off_c, 0, 70, 100
2, 131040, Note_on_c, 0, 77, 100
2, 131132, Note_off_c, 0, 73, 100
2, 131136, Note_on_c, 0, 82, 100
2, 131228, Note_off_c, 0, 77, 100
2, 131324, Note_off_c, 0, 82, 100
2, 131616, Note_on_c, 0, 89, 100
2, 131712, Note_on_c, 0, 82, 100
2, 131804, Note_off_c, 0, 89, 100
2, 131808, Note_on_c, 0, 84, 100
2, 131900, Note_off_c, 0, 82, 100
2, 131904, Note_on_c, 0, 85, 100
2, 131996, Note_off_c, 0, 84, 100
2, 132092, Note_off_c, 0, 85, 100
2, 132192, Note_on_c, 0, 85, 100
2, 132288, Note_on_c, 0, 78, 100
2, 132380, Note_off_c, 0, 85, 100
2, 132384, Note_on_c, 0, 80, 100
2, 132476, Note_off_c, 0, 78, 100
2, 132480, Note_on_c, 0, 82, 100
2, 132572, Note_off_c, 0, 80, 100
2, 132668, Note_off_c, 0, 82, 100
2, 132768, Note_on_c, 0, 82, 100
2, 132864, Note_on_c, 0, 73, 100
2, 132956, Note_off_c, 0, 82, 100
2, 132960, Note_on_c, 0, 77, 100
2, 133052, Note_off_c, 0, 73, 100
2, 133056, Note_on_c, 0, 78, 100
2, 133148, Note_off_c, 0, 77, 100
2, 133244, Note_off_c, 0, 78, 100
2, 133344, Note_on_c, 0, 78, 100
2, 133440, Note_on_c, 0, 70, 100
2, 133532, Note_off_c, 0, 78, 100
2, 133536, Note_on_c, 0, 72, 100
2, 133628, Note_off_c, 0, 70, 100
2, 133632, Note_on_c, 0, 73, 100
2, 133724, Note_off_c, 0, 72, 100
2, 133820, Note_off_c, 0, 73, 100
2, 133920, Note_on_c, 0, 89, 100
2, 134016, Note_on_c, 0, 82, 100
2, 134108, Note_off_c, 0, 89, 100
2, 134112, Note_on_c, 0, 84, 100
2, 134204, Note_off_c, 0, 82, 100
2, 134208, Note_on_c, 0, 85, 100
2, 134300, Note_off_c, 0, 84, 100
2, 134396, Note_off_c, 0, 85, 100
2, 134496, Note_on_c, 0, 85, 100
2, 134592, Note_on_c, 0, 77, 100
2, 134684, Note_off_c, 0, 85, 100
2, 134688, Note_on_c, 0, 81, 100
2, 134780, Note_off_c, 0, 77, 100
2, 134784, Note_on_c, 0, 82, 100
2, 134876, Note_off_c, 0, 81, 100
2, 134972, Note_off_c, 0, 82, 100
2, 135072, Note_on_c, 0, 82, 100
2, 135168, Note_on_c, 0, 73, 100
2, 135260, Note_off_c, 0, 82, 100
2, 135264, Note_on_c, 0, 75, 100
2, 135356, Note_off_c, 0, 73, 100
2, 135360, Note_on_c, 0, 77, 100
2, 135452, Note_off_c, 0, 75, 100
2, 135548, Note_off_c, 0, 77, 100
2, 135648, Note_on_c, 0, 77, 100
2, 135744, Note_on_c, 0, 70, 100
2, 135836, Note_off_c, 0, 77, 100
2, 135840, Note_on_c, 0, 72, 100
2, 135932, Note_off_c, 0, 70, 100
2, 135936, Note_on_c, 0, 73, 100
2, 136028, Note_off_c, 0, 72, 100
2, 136124, Note_off_c, 0, 73, 100
2, 136224, Note_on_c, 0, 85, 100
2, 136320, Note_on_c, 0, 82, 100
2, 136412, Note_off_c, 0, 85, 100
2, 136416, Note_on_c, 0, 84, 100
2, 136508, Note_off_c, 0, 82, 100
2, 136512, Note_on_c, 0, 85, 100
2, 136604, Note_off_c, 0, 84, 100
2, 136700, Note_off_c, 0, 85, 100
2, 136800, Note_on_c, 0, 73, 100
2, 136896, Note_on_c, 0, 70, 100
2, 136988, Note_off_c, 0, 73, 100
2, 136992, Note_on_c, 0, 72, 100
2, 137084, Note_off_c, 0, 70, 100
2, 137088, Note_on_c, 0, 73, 100
2, 137180, Note_off_c, 0, 72, 100
2, 137276, Note_off_c, 0, 73, 100
2, 137376, Note_on_c, 0, 85, 100
2, 137472, Note_on_c, 0, 82, 100
2, 137564, Note_off_c, 0, 85, 100
2, 137568, Note_on_c, 0, 84, 100
2, 137660, Note_off_c, 0, 82, 100
2, 137664, Note_on_c, 0, 85, 100
2, 137756, Note_off_c, 0, 84, 100
2, 137852, Note_off_c, 0, 85, 100
2, 137952, Note_on_c, 0, 73, 100
2, 138048, Note_on_c, 0, 70, 100
2, 138140, Note_off_c, 0, 73, 100
2, 138144, Note_on_c, 0, 72, 100
2, 138236, Note_off_c, 0, 70, 100
2, 138240, Note_on_c, 0, 73, 100
2, 138332, Note_off_c, 0, 72, 100
2, 138428, Note_off_c, 0, 73, 100
2, 138528, Note_on_c, 0, 84, 100
2, 138624, Note_on_c, 0, 80, 100
2, 138716, Note_off_c, 0, 84, 100
2, 138720, Note_on_c, 0, 82, 100
2, 138812, Note_off_c, 0, 80, 100
2, 138816, Note_on_c, 0, 84, 100
2, 138908, Note_off_c, 0, 82, 100
2, 139004, Note_off_c, 0, 84, 100
2, 139104, Note_on_c, 0, 72, 103
2, 139200, Note_on_c, 0, 68, 104
2, 139292, Note_off_c, 0, 72, 100
2, 139296, Note_on_c, 0, 70, 106
2, 139388, Note_off_c, 0, 68, 100
2, 139392, Note_on_c, 0, 72, 107
2, 139484, Note_off_c, 0, 70, 100
2, 139580, Note_off_c, 0, 72, 100
2, 139680, Note_on_c, 0, 87, 120
2, 139776, Note_on_c, 0, 84, 120
2, 139868, Note_off_c, 0, 87, 100
2, 139872, Note_on_c, 0, 85, 120
2, 139964, Note_off_c, 0, 84, 100
2, 139968, Note_on_c, 0, 87, 120
2, 140060, Note_off_c, 0, 85, 100
2, 140156, Note_off_c, 0, 87, 100
2, 140256, Note_on_c, 0, 75, 120
2, 140352, Note_on_c, 0, 72, 120
2, 140444, Note_off_c, 0, 75, 100
2, 140448, Note_on_c, 0, 73, 120
2, 140540, Note_off_c, 0, 72, 100
2, 140544, Note_on_c, 0, 75, 120
2, 140636, Note_off_c, 0, 73, 100
2, 140732, Note_off_c, 0, 75, 100
2, 140832, Note_on_c, 0, 65, 80
2, 140928, Note_on_c, 0, 73, 80
2, 141020, Note_off_c, 0, 65, 100
2, 141024, Note_on_c, 0, 72, 80
2, 141116, Note_off_c, 0, 73, 100
2, 141120, Note_on_c, 0, 70, 80
2, 141212, Note_off_c, 0, 72, 100
2, 141308, Note_off_c, 0, 70, 100
2, 141408, Note_on_c, 0, 65, 80
2, 141504, Note_on_c, 0, 73, 80
2, 141596, Note_off_c, 0, 65, 100
2, 141600, Note_on_c, 0, 72, 80
2, 141692, Note_off_c, 0, 73, 100
2, 141696, Note_on_c, 0, 70, 80
2, 141788, Note_off_c, 0, 72, 100
2, 141884, Note_off_c, 0, 70, 100
2, 141984, Note_on_c, 0, 65, 80
2, 142080, Note_on_c, 0, 73, 80
2, 142172, Note_off_c, 0, 65, 100
2, 142176, Note_on_c, 0, 72, 80
2, 142268, Note_off_c, 0, 73, 100
2, 142272, Note_on_c, 0, 70, 80
2, 142364, Note_off_c, 0, 72, 100
2, 142460, Note_off_c, 0, 70, 100
2, 142560, Note_on_c, 0, 65, 80
2, 142656, Note_on_c, 0, 73, 80
2, 142748, Note_off_c, 0, 65, 100
2, 142752, Note_on_c, 0, 70, 80
2, 142844, Note_off_c, 0, 73, 100
2, 142848, Note_on_c, 0, 72, 80
2, 142940, Note_off_c, 0, 70, 100
2, 143036, Note_off_c, 0, 72, 100
2, 143136, Note_on_c, 0, 65, 80
2, 143232, Note_on_c, 0, 75, 80
2, 143324, Note_off_c, 0, 65, 100
2, 143328, Note_on_c, 0, 73, 80
2, 143420, Note_off_c, 0, 75, 100
2, 143424, Note_on_c, 0, 72, 80
2, 143516, Note_off_c, 0, 73, 100
2, 143612, Note_off_c, 0, 72, 100
2, 143712, Note_on_c, 0, 65, 80
2, 143808, Note_on_c, 0, 75, 80
2, 143900, Note_off_c, 0, 65, 100
2, 143904, Note_on_c, 0, 73, 80
2, 143996, Note_off_c, 0, 75, 100
2, 144000, Note_on_c, 0, 72, 80
2, 144092, Note_off_c, 0, 73, 100
2, 144188, Note_off_c, 0, 72, 100
2, 144288, Note_on_c, 0, 65, 80
2, 144384, Note_on_c, 0, 75, 80
2, 144476, Note_off_c, 0, 65, 100
2, 144480, Note_on_c, 0, 73, 80
2, 144572, Note_off_c, 0, 75, 100
2, 144576, Note_on_c, 0, 72, 80
2, 144668, Note_off_c, 0, 73, 100
2, 144764, Note_off_c, 0, 72, 100
2, 144864, Note_on_c, 0, 65, 80
2, 144960, Note_on_c, 0, 75, 80
2, 145052, Note_off_c, 0, 65, 100
2, 145056, Note_on_c, 0, 72, 80
2, 145148, Note_off_c, 0, 75, 100
2, 145152, Note_on_c, 0, 73, 80
2, 145244, Note_off_c, 0, 72, 100
2, 145340, Note_off_c, 0, 73, 100
2, 145440, Note_on_c, 0, 65, 80
2, 145536, Note_on_c, 0, 73, 80
2, 145628, Note_off_c, 0, 65, 100
2, 145632, Note_on_c, 0, 77, 80
2, 145724, Note_off_c, 0, 73, 100
2, 145820, Note_off_c, 0, 77, 100
2, 146016, Note_on_c, 0, 65, 81
2, 146112, Note_on_c, 0, 73, 81
2, 146204, Note_off_c, 0, 65, 100
2, 146208, Note_on_c, 0, 77, 82
2, 146300, Note_off_c, 0, 73, 100
2, 146396, Note_off_c, 0, 77, 100
2, 146592, Note_on_c, 0, 65, 83
2, 146688, Note_on_c, 0, 73, 84
2, 146780, Note_off_c, 0, 65, 100
2, 146784, Note_on_c, 0, 77, 84
2, 146876, Note_off_c, 0, 73, 100
2, 146972, Note_off_c, 0, 77, 100
2, 147168, Note_on_c, 0, 66, 86
2, 147264, Note_on_c, 0, 73, 86
2, 147356, Note_off_c, 0, 66, 100
2, 147360, Note_on_c, 0, 78, 87
2, 147452, Note_off_c, 0, 73, 100
2, 147548, Note_off_c, 0, 78, 100
2, 147744, Note_on_c, 0, 66, 88
2, 147840, Note_on_c, 0, 73, 89
2, 147932, Note_off_c, 0, 66, 100
2, 147936, Note_on_c, 0, 78, 89
2, 148028, Note_off_c, 0, 73, 100
2, 148124, Note_off_c, 0, 78, 100
2, 148320, Note_on_c, 0, 67, 91
2, 148416, Note_on_c, 0, 73, 91
2, 148508, Note_off_c, 0, 67, 100
2, 148512, Note_on_c, 0, 79, 92
2, 148604, Note_off_c, 0, 73, 100
2, 148700, Note_off_c, 0, 79, 100
2, 148896, Note_on_c, 0, 67, 93
2, 148992, Note_on_c, 0, 73, 94
2, 149084, Note_off_c, 0, 67, 100
2, 149088, Note_on_c, 0, 79, 94
2, 149180, Note_off_c, 0, 73, 100
2, 149276, Note_off_c, 0, 79, 100
2, 149472, Note_on_c, 0, 68, 96
2, 149568, Note_on_c, 0, 74, 96
2, 149660, Note_off_c, 0, 68, 100
2, 149664, Note_on_c, 0, 80, 97
2, 149756, Note_off_c, 0, 74, 100
2, 149852, Note_off_c, 0, 80, 100
2, 150048, Note_on_c, 0, 68, 98
2, 150144, Note_on_c, 0, 74, 99
2, 150236, Note_off_c, 0, 68, 100
2, 150240, Note_on_c, 0, 80, 99
2, 150332, Note_off_c, 0, 74, 100
2, 150428, Note_off_c, 0, 80, 100
2, 150624, Note_on_c, 0, 68, 101
2, 150720, Note_on_c, 0, 74, 101
2, 150812, Note_off_c, 0, 68, 100
2, 150816, Note_on_c, 0, 80, 102
2, 150908, Note_off_c, 0, 74, 100
2, 151004, Note_off_c, 0, 80, 100
2, 151200, Note_on_c, 0, 68, 103
2, 151296, Note_on_c, 0, 74, 104
2, 151388, Note_off_c, 0, 68, 100
2, 151392, Note_on_c, 0, 80, 104
2, 151484, Note_off_c, 0, 74, 100
2, 151488, Note_on_c, 0, 81, 110
2, 151580, Note_off_c, 0, 80, 100
2, 151676, Note_off_c, 0, 81, 100
2, 151776, Note_on_c, 0, 69, 110
2, 151872, Note_on_c, 0, 76, 110
2, 151872, Note_on_c, 0, 81, 121
2, 151964, Note_off_c, 0, 69, 100
2, 151968, Note_on_c, 0, 73, 110
2, 152060, Note_off_c, 0, 76, 100
2, 152060, Note_off_c, 0, 81, 100
2, 152064, Note_on_c, 0, 77, 110
2, 152064, Note_on_c, 0, 80, 110
2, 152156, Note_off_c, 0, 73, 100
2, 152252, Note_off_c, 0, 77, 100
2, 152252, Note_off_c, 0, 80, 100
2, 152352, Note_on_c, 0, 69, 110
2, 152448, Note_on_c, 0, 77, 110
2, 152448, Note_on_c, 0, 80, 122
2, 152540, Note_off_c, 0, 69, 100
2, 152544, Note_on_c, 0, 74, 110
2, 152636, Note_off_c, 0, 77, 100
2, 152636, Note_off_c, 0, 80, 100
2, 152640, Note_on_c, 0, 76, 110
2, 152640, Note_on_c, 0, 81, 110
2, 152732, Note_off_c, 0, 74, 100
2, 152828, Note_off_c, 0, 76, 100
2, 152828, Note_off_c, 0, 81, 100
2, 152928, Note_on_c, 0, 69, 110
2, 153024, Note_on_c, 0, 76, 110
2, 153024, Note_on_c, 0, 81, 122
2, 153116, Note_off_c, 0, 69, 100
2, 153120, Note_on_c, 0, 73, 110
2, 153212, Note_off_c, 0, 76, 100
2, 153212, Note_off_c, 0, 81, 100
2, 153216, Note_on_c, 0, 77, 110
2, 153216, Note_on_c, 0, 80, 110
2, 153308, Note_off_c, 0, 73, 100
2, 153404, Note_off_c, 0, 77, 100
2, 153404, Note_off_c, 0, 80, 100
2, 153504, Note_on_c, 0, 69, 110
2, 153600, Note_on_c, 0, 77, 110
2, 153600, Note_on_c, 0, 80, 123
2, 153692, Note_off_c, 0, 69, 100
2, 153696, Note_on_c, 0, 74, 110
2, 153788, Note_off_c, 0, 77, 100
2, 153788, Note_off_c, 0, 80, 100
2, 153792, Note_on_c, 0, 81, 100
2, 153792, Note_on_c, 0, 76, 100
2, 153792, Note_on_c, 0, 73, 100
2, 153884, Note_off_c, 0, 74, 100
2, 153980, Note_off_c, 0, 81, 100
2, 153980, Note_off_c, 0, 76, 100
2, 153980, Note_off_c, 0, 73, 100
2, 154080, Note_on_c, 0, 73, 80
2, 154176, Note_on_c, 0, 76, 80
2, 154268, Note_off_c, 0, 73, 100
2, 154272, Note_on_c, 0, 79, 80
2, 154364, Note_off_c, 0, 76, 100
2, 154368, Note_on_c, 0, 70, 80
2, 154460, Note_off_c, 0, 79, 100
2, 154556, Note_off_c, 0, 70, 100
2, 154656, Note_on_c, 0, 70, 80
2, 154752, Note_on_c, 0, 73, 80
2, 154844, Note_off_c, 0, 70, 100
2, 154848, Note_on_c, 0, 76, 80
2, 154940, Note_off_c, 0, 73, 100
2, 154944, Note_on_c, 0, 67, 92
2, 155036, Note_off_c, 0, 76, 100
2, 155132, Note_off_c, 0, 67, 100
2, 155232, Note_on_c, 0, 70, 80
2, 155328, Note_on_c, 0, 69, 80
2, 155420, Note_off_c, 0, 70, 100
2, 155424, Note_on_c, 0, 67, 80
2, 155516, Note_off_c, 0, 69, 100
2, 155520, Note_on_c, 0, 65, 80
2, 155612, Note_off_c, 0, 67, 100
2, 155708, Note_off_c, 0, 65, 100
2, 155808, Note_on_c, 0, 65, 80
2, 155904, Note_on_c, 0, 64, 80
2, 155996, Note_off_c, 0, 65, 100
2, 156000, Note_on_c, 0, 62, 80
2, 156092, Note_off_c, 0, 64, 100
2, 156096, Note_on_c, 0, 61, 80
2, 156188, Note_off_c, 0, 62, 100
2, 156284, Note_off_c, 0, 61, 100
2, 156384, Note_on_c, 0, 73, 80
2, 156480, Note_on_c, 0, 76, 80
2, 156572, Note_off_c, 0, 73, 100
2, 156576, Note_on_c, 0, 79, 80
2, 156668, Note_off_c, 0, 76, 100
2, 156672, Note_on_c, 0, 70, 80
2, 156764, Note_off_c, 0, 79, 100
2, 156860, Note_off_c, 0, 70, 100
2, 156960, Note_on_c, 0, 70, 80
2, 157056, Note_on_c, 0, 73, 80
2, 157148, Note_off_c, 0, 70, 100
2, 157152, Note_on_c, 0, 76, 80
2, 157244, Note_off_c, 0, 73, 100
2, 157248, Note_on_c, 0, 67, 94
2, 157340, Note_off_c, 0, 76, 100
2, 157436, Note_off_c, 0, 67, 100
2, 157536, Note_on_c, 0, 70, 80
2, 157632, Note_on_c, 0, 69, 80
2, 157724, Note_off_c, 0, 70, 100
2, 157728, Note_on_c, 0, 67, 80
2, 157820, Note_off_c, 0, 69, 100
2, 157824, Note_on_c, 0, 65, 80
2, 157916, Note_off_c, 0, 67, 100
2, 158012, Note_off_c, 0, 65, 100
2, 158112, Note_on_c, 0, 65, 80
2, 158208, Note_on_c, 0, 64, 80
2, 158300, Note_off_c, 0, 65, 100
2, 158304, Note_on_c, 0, 62, 80
2, 158396, Note_off_c, 0, 64, 100
2, 158400, Note_on_c, 0, 78, 80
2, 158492, Note_off_c, 0, 62, 100
2, 158588, Note_off_c, 0, 78, 100
2, 158688, Note_on_c, 0, 78, 80
2, 158784, Note_on_c, 0, 81, 80
2, 158876, Note_off_c, 0, 78, 100
2, 158880, Note_on_c, 0, 84, 80
2, 158972, Note_off_c, 0, 81, 100
2, 158976, Note_on_c, 0, 75, 80
2, 159068, Note_off_c, 0, 84, 100
2, 159164, Note_off_c, 0, 75, 100
2, 159264, Note_on_c, 0, 75, 80
2, 159360, Note_on_c, 0, 78, 80
2, 159452, Note_off_c, 0, 75, 100
2, 159456, Note_on_c, 0, 81, 80
2, 159548, Note_off_c, 0, 78, 100
2, 159552, Note_on_c, 0, 72, 96
2, 159644, Note_off_c, 0, 81, 100
2, 159740, Note_off_c, 0, 72, 100
2, 159840, Note_on_c, 0, 75, 80
2, 159936, Note_on_c, 0, 74, 80
2, 160028, Note_off_c, 0, 75, 100
2, 160032, Note_on_c, 0, 72, 80
2, 160124, Note_off_c, 0, 74, 100
2, 160128, Note_on_c, 0, 70, 80
2, 160220, Note_off_c, 0, 72, 100
2, 160316, Note_off_c, 0, 70, 100
2, 160416, Note_on_c, 0, 70, 80
2, 160512, Note_on_c, 0, 69, 80
2, 160604, Note_off_c, 0, 70, 100
2, 160608, Note_on_c, 0, 67, 80
2, 160700, Note_off_c, 0, 69, 100
2, 160704, Note_on_c, 0, 66, 80
2, 160796, Note_off_c, 0, 67, 100
2, 160892, Note_off_c, 0, 66, 100
2, 160992, Note_on_c, 0, 78, 80
2, 161088, Note_on_c, 0, 81, 80
2, 161180, Note_off_c, 0, 78, 100
2, 161184, Note_on_c, 0, 84, 80
2, 161276, Note_off_c, 0, 81, 100
2, 161280, Note_on_c, 0, 75, 80
2, 161372, Note_off_c, 0, 84, 100
2, 161468, Note_off_c, 0, 75, 100
2, 161568, Note_on_c, 0, 75, 80
2, 161664, Note_on_c, 0, 78, 80
2, 161756, Note_off_c, 0, 75, 100
2, 161760, Note_on_c, 0, 81, 80
2, 161852, Note_off_c, 0, 78, 100
2, 161856, Note_on_c, 0, 72, 96
2, 161948, Note_off_c, 0, 81, 100
2, 162044, Note_off_c, 0, 72, 100
2, 162144, Note_on_c, 0, 75, 80
2, 162240, Note_on_c, 0, 74, 80
2, 162332, Note_off_c, 0, 75, 100
2, 162336, Note_on_c, 0, 72, 80
2, 162428, Note_off_c, 0, 74, 100
2, 162432, Note_on_c, 0, 70, 80
2, 162524, Note_off_c, 0, 72, 100
2, 162620, Note_off_c, 0, 70, 100
2, 162720, Note_on_c, 0, 70, 80
2, 162816, Note_on_c, 0, 69, 80
2, 162908, Note_off_c, 0, 70, 100
2, 162912, Note_on_c, 0, 67, 80
2, 163004, Note_off_c, 0, 69, 100
2, 163008, Note_on_c, 0, 82, 80
2, 163100, Note_off_c, 0, 67, 100
2, 163196, Note_off_c, 0, 82, 100
2, 163296, Note_on_c, 0, 82, 80
2, 163392, Note_on_c, 0, 81, 80
2, 163484, Note_off_c, 0, 82, 100
2, 163488, Note_on_c, 0, 79, 80
2, 163580, Note_off_c, 0, 81, 100
2, 163584, Note_on_c, 0, 77, 80
2, 163676, Note_off_c, 0, 79, 100
2, 163772, Note_off_c, 0, 77, 100
2, 163872, Note_on_c, 0, 77, 80
2, 163968, Note_on_c, 0, 76, 80
2, 164060, Note_off_c, 0, 77, 100
2, 164064, Note_on_c, 0, 74, 80
2, 164156, Note_off_c, 0, 76, 100
2, 164160, Note_on_c, 0, 75, 91
2, 164252, Note_off_c, 0, 74, 100
2, 164348, Note_off_c, 0, 75, 100
2, 164448, Note_on_c, 0, 75, 80
2, 164544, Note_on_c, 0, 74, 80
2, 164636, Note_off_c, 0, 75, 100
2, 164640, Note_on_c, 0, 72, 80
2, 164732, Note_off_c, 0, 74, 100
2, 164736, Note_on_c, 0, 70, 80
2, 164828, Note_off_c, 0, 72, 100
2, 164924, Note_off_c, 0, 70, 100
2, 165024, Note_on_c, 0, 70, 80
2, 165120, Note_on_c, 0, 69, 80
2, 165212, Note_off_c, 0, 70, 100
2, 165216, Note_on_c, 0, 67, 80
2, 165308, Note_off_c, 0, 69, 100
2, 165312, Note_on_c, 0, 82, 80
2, 165404, Note_off_c, 0, 67, 100
2, 165500, Note_off_c, 0, 82, 100
2, 165600, Note_on_c, 0, 82, 82
2, 165696, Note_on_c, 0, 81, 83
2, 165788, Note_off_c, 0, 82, 100
2, 165792, Note_on_c, 0, 79, 84
2, 165884, Note_off_c, 0, 81, 100
2, 165888, Note_on_c, 0, 77, 84
2, 165980, Note_off_c, 0, 79, 100
2, 166076, Note_off_c, 0, 77, 100
2, 166176, Note_on_c, 0, 77, 87
2, 166272, Note_on_c, 0, 76, 88
2, 166364, Note_off_c, 0, 77, 100
2, 166368, Note_on_c, 0, 74, 89
2, 166460, Note_off_c, 0, 76, 100
2, 166464, Note_on_c, 0, 82, 103
2, 166556, Note_off_c, 0, 74, 100
2, 166652, Note_off_c, 0, 82, 100
2, 166752, Note_on_c, 0, 82, 92
2, 166848, Note_on_c, 0, 81, 93
2, 166940, Note_off_c, 0, 82, 100
2, 166944, Note_on_c, 0, 79, 94
2, 167036, Note_off_c, 0, 81, 100
2, 167040, Note_on_c, 0, 77, 94
2, 167132, Note_off_c, 0, 79, 100
2, 167228, Note_off_c, 0, 77, 100
2, 167328, Note_on_c, 0, 77, 97
2, 167424, Note_on_c, 0, 76, 98
2, 167516, Note_off_c, 0, 77, 100
2, 167520, Note_on_c, 0, 74, 99
2, 167612, Note_off_c, 0, 76, 100
2, 167616, Note_on_c, 0, 82, 114
2, 167708, Note_off_c, 0, 74, 100
2, 167804, Note_off_c, 0, 82, 100
2, 167904, Note_on_c, 0, 82, 102
2, 168000, Note_on_c, 0, 81, 103
2, 168092, Note_off_c, 0, 82, 100
2, 168096, Note_on_c, 0, 79, 104
2, 168188, Note_off_c, 0, 81, 100
2, 168192, Note_on_c, 0, 77, 104
2, 168284, Note_off_c, 0, 79, 100
2, 168380, Note_off_c, 0, 77, 100
2, 168480, Note_on_c, 0, 77, 107
2, 168576, Note_on_c, 0, 76, 108
2, 168668, Note_off_c, 0, 77, 100
2, 168672, Note_on_c, 0, 74, 109
2, 168764, Note_off_c, 0, 76, 100
2, 168768, Note_on_c, 0, 82, 110
2, 168860, Note_off_c, 0, 74, 100
2, 168864, Note_on_c, 0, 79, 110
2, 168956, Note_off_c, 0, 82, 100
2, 168960, Note_on_c, 0, 78, 110
2, 169052, Note_off_c, 0, 79, 100
2, 169056, Note_on_c, 0, 79, 109
2, 169148, Note_off_c, 0, 78, 100
2, 169152, Note_on_c, 0, 82, 109
2, 169244, Note_off_c, 0, 79, 100
2, 169248, Note_on_c, 0, 79, 108
2, 169340, Note_off_c, 0, 82, 100
2, 169344, Note_on_c, 0, 78, 108
2, 169436, Note_off_c, 0, 79, 100
2, 169440, Note_on_c, 0, 79, 108
2, 169532, Note_off_c, 0, 78, 100
2, 169536, Note_on_c, 0, 82, 107
2, 169628, Note_off_c, 0, 79, 100
2, 169632, Note_on_c, 0, 79, 107
2, 169724, Note_off_c, 0, 82, 100
2, 169728, Note_on_c, 0, 78, 106
2, 169820, Note_off_c, 0, 79, 100
2, 169824, Note_on_c, 0, 79, 106
2, 169916, Note_off_c, 0, 78, 100
2, 169920, Note_on_c, 0, 75, 118
2, 170012, Note_off_c, 0, 79, 100
2, 170016, Note_on_c, 0, 76, 105
2, 170108, Note_off_c, 0, 75, 100
2, 170112, Note_on_c, 0, 79, 105
2, 170204, Note_off_c, 0, 76, 100
2, 170208, Note_on_c, 0, 76, 104
2, 170300, Note_off_c, 0, 79, 100
2, 170304, Note_on_c, 0, 75, 104
2, 170396, Note_off_c, 0, 76, 100
2, 170400, Note_on_c, 0, 76, 103
2, 170492, Note_off_c, 0, 75, 100
2, 170496, Note_on_c, 0, 79, 103
2, 170588, Note_off_c, 0, 76, 100
2, 170592, Note_on_c, 0, 76, 103
2, 170684, Note_off_c, 0, 79, 100
2, 170688, Note_on_c, 0, 75, 102
2, 170780, Note_off_c, 0, 76, 100
2, 170784, Note_on_c, 0, 76, 102
2, 170876, Note_off_c, 0, 75, 100
2, 170880, Note_on_c, 0, 79, 101
2, 170972, Note_off_c, 0, 76, 100
2, 170976, Note_on_c, 0, 76, 101
2, 171068, Note_off_c, 0, 79, 100
2, 171072, Note_on_c, 0, 72, 114
2, 171164, Note_off_c, 0, 76, 100
2, 171168, Note_on_c, 0, 73, 100
2, 171260, Note_off_c, 0, 72, 100
2, 171264, Note_on_c, 0, 76, 100
2, 171356, Note_off_c, 0, 73, 100
2, 171360, Note_on_c, 0, 73, 99
2, 171452, Note_off_c, 0, 76, 100
2, 171456, Note_on_c, 0, 72, 99
2, 171548, Note_off_c, 0, 73, 100
2, 171552, Note_on_c, 0, 73, 98
2, 171644, Note_off_c, 0, 72, 100
2, 171648, Note_on_c, 0, 76, 98
2, 171740, Note_off_c, 0, 73, 100
2, 171744, Note_on_c, 0, 73, 98
2, 171836, Note_off_c, 0, 76, 100
2, 171840, Note_on_c, 0, 72, 97
2, 171932, Note_off_c, 0, 73, 100
2, 171936, Note_on_c, 0, 73, 97
2, 172028, Note_off_c, 0, 72, 100
2, 172032, Note_on_c, 0, 76, 96
2, 172124, Note_off_c, 0, 73, 100
2, 172128, Note_on_c, 0, 73, 96
2, 172220, Note_off_c, 0, 76, 100
2, 172224, Note_on_c, 0, 69, 110
2, 172316, Note_off_c, 0, 73, 100
2, 172320, Note_on_c, 0, 70, 95
2, 172412, Note_off_c, 0, 69, 100
2, 172416, Note_on_c, 0, 73, 95
2, 172508, Note_off_c, 0, 70, 100
2, 172512, Note_on_c, 0, 70, 94
2, 172604, Note_off_c, 0, 73, 100
2, 172608, Note_on_c, 0, 69, 94
2, 172700, Note_off_c, 0, 70, 100
2, 172704, Note_on_c, 0, 70, 93
2, 172796, Note_off_c, 0, 69, 100
2, 172800, Note_on_c, 0, 73, 93
2, 172892, Note_off_c, 0, 70, 100
2, 172896, Note_on_c, 0, 70, 93
2, 172988, Note_off_c, 0, 73, 100
2, 172992, Note_on_c, 0, 69, 92
2, 173084, Note_off_c, 0, 70, 100
2, 173088, Note_on_c, 0, 70, 92
2, 173180, Note_off_c, 0, 69, 100
2, 173184, Note_on_c, 0, 73, 91
2, 173276, Note_off_c, 0, 70, 100
2, 173280, Note_on_c, 0, 70, 91
2, 173372, Note_off_c, 0, 73, 100
2, 173376, Note_on_c, 0, 66, 104
2, 173468, Note_off_c, 0, 70, 100
2, 173472, Note_on_c, 0, 67, 90
2, 173564, Note_off_c, 0, 66, 100
2, 173568, Note_on_c, 0, 70, 90
2, 173660, Note_off_c, 0, 67, 100
2, 173664, Note_on_c, 0, 67, 89
2, 173756, Note_off_c, 0, 70, 100
2, 173760, Note_on_c, 0, 66, 89
2, 173852, Note_off_c, 0, 67, 100
2, 173856, Note_on_c, 0, 67, 88
2, 173948, Note_off_c, 0, 66, 100
2, 173952, Note_on_c, 0, 70, 88
2, 174044, Note_off_c, 0, 67, 100
2, 174048, Note_on_c, 0, 67, 88
2, 174140, Note_off_c, 0, 70, 100
2, 174144, Note_on_c, 0, 66, 87
2, 174236, Note_off_c, 0, 67, 100
2, 174240, Note_on_c, 0, 67, 87
2, 174332, Note_off_c, 0, 66, 100
2, 174336, Note_on_c, 0, 70, 86
2, 174428, Note_off_c, 0, 67, 100
2, 174432, Note_on_c, 0, 67, 86
2, 174524, Note_off_c, 0, 70, 100
2, 174528, Note_on_c, 0, 66, 86
2, 174620, Note_off_c, 0, 67, 100
2, 174624, Note_on_c, 0, 67, 85
2, 174716, Note_off_c, 0, 66, 100
2, 174720, Note_on_c, 0, 70, 85
2, 174812, Note_off_c, 0, 67, 100
2, 174816, Note_on_c, 0, 67, 84
2, 174908, Note_off_c, 0, 70, 100
2, 174912, Note_on_c, 0, 66, 84
2, 175004, Note_off_c, 0, 67, 100
2, 175008, Note_on_c, 0, 67, 83
2, 175100, Note_off_c, 0, 66, 100
2, 175104, Note_off_c, 0, 67, 100
2, 175104, Note_on_c, 0, 70, 83
2, 175200, Note_on_c, 0, 67, 83
2, 175292, Note_off_c, 0, 70, 100
2, 175296, Note_on_c, 0, 66, 82
2, 175388, Note_off_c, 0, 67, 100
2, 175392, Note_on_c, 0, 67, 82
2, 175484, Note_off_c, 0, 66, 100
2, 175488, Note_on_c, 0, 70, 81
2, 175580, Note_off_c, 0, 67, 100
2, 175584, Note_on_c, 0, 67, 81
2, 175676, Note_off_c, 0, 70, 100
2, 175680, Note_on_c, 0, 66, 80
2, 175772, Note_off_c, 0, 67, 100
2, 175776, Note_on_c, 0, 67, 80
2, 175868, Note_off_c, 0, 66, 100
2, 175872, Note_on_c, 0, 70, 80
2, 175964, Note_off_c, 0, 67, 100
2, 175968, Note_on_c, 0, 67, 80
2, 176060, Note_off_c, 0, 70, 100
2, 176064, Note_on_c, 0, 66, 80
2, 176156, Note_off_c, 0, 67, 100
2, 176160, Note_on_c, 0, 67, 80
2, 176252, Note_off_c, 0, 66, 100
2, 176256, Note_on_c, 0, 70, 80
2, 176348, Note_off_c, 0, 67, 100
2, 176352, Note_on_c, 0, 73, 79
2, 176444, Note_off_c, 0, 70, 100
2, 176448, Note_on_c, 0, 70, 77
2, 176540, Note_off_c, 0, 73, 100
2, 176544, Note_on_c, 0, 67, 76
2, 176636, Note_off_c, 0, 70, 100
2, 176640, Note_on_c, 0, 66, 74
2, 176732, Note_off_c, 0, 67, 100
2, 176736, Note_on_c, 0, 67, 72
2, 176828, Note_off_c, 0, 66, 100
2, 176832, Note_on_c, 0, 70, 70
2, 176924, Note_off_c, 0, 67, 100
2, 176928, Note_on_c, 0, 73, 70
2, 177020, Note_off_c, 0, 70, 100
2, 177024, Note_on_c, 0, 76, 70
2, 177116, Note_off_c, 0, 73, 100
2, 177120, Note_on_c, 0, 67, 70
2, 177212, Note_off_c, 0, 76, 100
2, 177216, Note_on_c, 0, 66, 70
2, 177308, Note_off_c, 0, 67, 100
2, 177312, Note_on_c, 0, 67, 70
2, 177404, Note_off_c, 0, 66, 100
2, 177408, Note_on_c, 0, 70, 70
2, 177500, Note_off_c, 0, 67, 100
2, 177504, Note_on_c, 0, 73, 70
2, 177596, Note_off_c, 0, 70, 100
2, 177600, Note_on_c, 0, 76, 70
2, 177692, Note_off_c, 0, 73, 100
2, 177696, Note_on_c, 0, 69, 73
2, 177788, Note_off_c, 0, 76, 100
2, 177792, Note_on_c, 0, 77, 76
2, 177884, Note_off_c, 0, 69, 100
2, 177888, Note_on_c, 0, 76, 77
2, 177980, Note_off_c, 0, 77, 100
2, 177984, Note_on_c, 0, 74, 80
2, 178076, Note_off_c, 0, 76, 100
2, 178172, Note_off_c, 0, 74, 100
2, 178272, Note_on_c, 0, 69, 80
2, 178368, Note_on_c, 0, 77, 80
2, 178460, Note_off_c, 0, 69, 100
2, 178464, Note_on_c, 0, 76, 80
2, 178556, Note_off_c, 0, 77, 100
2, 178560, Note_on_c, 0, 74, 80
2, 178652, Note_off_c, 0, 76, 100
2, 178748, Note_off_c, 0, 74, 100
2, 178848, Note_on_c, 0, 69, 80
2, 178944, Note_on_c, 0, 77, 80
2, 179036, Note_off_c, 0, 69, 100
2, 179040, Note_on_c, 0, 76, 80
2, 179132, Note_off_c, 0, 77, 100
2, 179136, Note_on_c, 0, 74, 80
2, 179228, Note_off_c, 0, 76, 100
2, 179324, Note_off_c, 0, 74, 100
2, 179424, Note_on_c, 0, 69, 80
2, 179520, Note_on_c, 0, 77, 80
2, 179612, Note_off_c, 0, 69, 100
2, 179616, Note_on_c, 0, 74, 80
2, 179708, Note_off_c, 0, 77, 100
2, 179712, Note_on_c, 0, 76, 80
2, 179804, Note_off_c, 0, 74, 100
2, 179900, Note_off_c, 0, 76, 100
2, 180000, Note_on_c, 0, 69, 80
2, 180096, Note_on_c, 0, 79, 80
2, 180188, Note_off_c, 0, 69, 100
2, 180192, Note_on_c, 0, 77, 80
2, 180284, Note_off_c, 0, 79, 100
2, 180288, Note_on_c, 0, 76, 80
2, 180380, Note_off_c, 0, 77, 100
2, 180476, Note_off_c, 0, 76, 100
2, 180576, Note_on_c, 0, 69, 80
2, 180672, Note_on_c, 0, 79, 80
2, 180764, Note_off_c, 0, 69, 100
2, 180768, Note_on_c, 0, 77, 80
2, 180860, Note_off_c, 0, 79, 100
2, 180864, Note_on_c, 0, 76, 80
2, 180956, Note_off_c, 0, 77, 100
2, 181052, Note_off_c, 0, 76, 100
2, 181152, Note_on_c, 0, 69, 80
2, 181248, Note_on_c, 0, 79, 80
2, 181340, Note_off_c, 0, 69, 100
2, 181344, Note_on_c, 0, 77, 80
2, 181436, Note_off_c, 0, 79, 100
2, 181440, Note_on_c, 0, 76, 80
2, 181532, Note_off_c, 0, 77, 100
2, 181628, Note_off_c, 0, 76, 100
2, 181728, Note_on_c, 0, 69, 80
2, 181824, Note_on_c, 0, 79, 80
2, 181916, Note_off_c, 0, 69, 100
2, 181920, Note_on_c, 0, 76, 80
2, 182012, Note_off_c, 0, 79, 100
2, 182016, Note_on_c, 0, 77, 80
2, 182108, Note_off_c, 0, 76, 100
2, 182204, Note_off_c, 0, 77, 100
2, 182304, Note_on_c, 0, 74, 83
2, 182400, Note_on_c, 0, 81, 84
2, 182492, Note_off_c, 0, 74, 100
2, 182496, Note_on_c, 0, 86, 85
2, 182588, Note_off_c, 0, 81, 100
2, 182592, Note_on_c, 0, 82, 86
2, 182684, Note_off_c, 0, 86, 100
2, 182780, Note_off_c, 0, 82, 100
2, 182880, Note_on_c, 0, 70, 89
2, 182976, Note_on_c, 0, 74, 91
2, 183068, Note_off_c, 0, 70, 100
2, 183072, Note_on_c, 0, 82, 92
2, 183164, Note_off_c, 0, 74, 100
2, 183168, Note_on_c, 0, 79, 93
2, 183260, Note_off_c, 0, 82, 100
2, 183356, Note_off_c, 0, 79, 100
2, 183456, Note_on_c, 0, 67, 96
2, 183552, Note_on_c, 0, 70, 97
2, 183644, Note_off_c, 0, 67, 100
2, 183648, Note_on_c, 0, 79, 98
2, 183740, Note_off_c, 0, 70, 100
2, 183744, Note_on_c, 0, 76, 100
2, 183836, Note_off_c, 0, 79, 100
2, 183932, Note_off_c, 0, 76, 100
2, 184032, Note_on_c, 0, 64, 96
2, 184128, Note_on_c, 0, 69, 94
2, 184220, Note_off_c, 0, 64, 100
2, 184224, Note_on_c, 0, 76, 92
2, 184316, Note_off_c, 0, 69, 100
2, 184320, Note_on_c, 0, 77, 91
2, 184412, Note_off_c, 0, 76, 100
2, 184508, Note_off_c, 0, 77, 100
2, 184608, Note_on_c, 0, 65, 86
2, 184704, Note_on_c, 0, 69, 84
2, 184796, Note_off_c, 0, 65, 100
2, 184800, Note_on_c, 0, 77, 82
2, 184892, Note_off_c, 0, 69, 100
2, 184896, Note_on_c, 0, 74, 80
2, 184988, Note_off_c, 0, 77, 100
2, 185084, Note_off_c, 0, 74, 100
2, 185184, Note_on_c, 0, 62, 87
2, 185280, Note_on_c, 0, 69, 89
2, 185372, Note_off_c, 0, 62, 100
2, 185376, Note_on_c, 0, 74, 92
2, 185468, Note_off_c, 0, 69, 100
2, 185472, Note_on_c, 0, 73, 94
2, 185564, Note_off_c, 0, 74, 100
2, 185660, Note_off_c, 0, 73, 100
2, 185760, Note_on_c, 0, 61, 102
2, 185856, Note_on_c, 0, 69, 104
2, 185948, Note_off_c, 0, 61, 100
2, 185952, Note_on_c, 0, 73, 107
2, 186044, Note_off_c, 0, 69, 100
2, 186048, Note_on_c, 0, 74, 110
2, 186140, Note_off_c, 0, 73, 100
2, 186236, Note_off_c, 0, 74, 100
2, 186432, Note_on_c, 0, 65, 110
2, 186528, Note_on_c, 0, 69, 110
2, 186620, Note_off_c, 0, 65, 100
2, 186624, Note_on_c, 0, 74, 110
2, 186716, Note_off_c, 0, 69, 100
2, 186720, Note_on_c, 0, 77, 110
2, 186812, Note_off_c, 0, 74, 100
2, 186816, Note_on_c, 0, 81, 110
2, 186908, Note_off_c, 0, 77, 100
2, 186912, Note_on_c, 0, 77, 110
2, 187004, Note_off_c, 0, 81, 100
2, 187008, Note_on_c, 0, 86, 110
2, 187100, Note_off_c, 0, 77, 100
2, 187104, Note_on_c, 0, 81, 110
2, 187196, Note_off_c, 0, 86, 100
2, 187200, Note_on_c, 0, 82, 86
2, 187292, Note_off_c, 0, 81, 100
2, 187388, Note_off_c, 0, 82, 100
2, 187488, Note_on_c, 0, 70, 89
2, 187584, Note_on_c, 0, 74, 91
2, 187676, Note_off_c, 0, 70, 100
2, 187680, Note_on_c, 0, 82, 92
2, 187772, Note_off_c, 0, 74, 100
2, 187776, Note_on_c, 0, 79, 93
2, 187868, Note_off_c, 0, 82, 100
2, 187964, Note_off_c, 0, 79, 100
2, 188064, Note_on_c, 0, 67, 96
2, 188160, Note_on_c, 0, 70, 97
2, 188252, Note_off_c, 0, 67, 100
2, 188256, Note_on_c, 0, 79, 98
2, 188348, Note_off_c, 0, 70, 100
2, 188352, Note_on_c, 0, 75, 100
2, 188444, Note_off_c, 0, 79, 100
2, 188540, Note_off_c, 0, 75, 100
2, 188640, Note_on_c, 0, 63, 96
2, 188736, Note_on_c, 0, 67, 94
2, 188828, Note_off_c, 0, 63, 100
2, 188832, Note_on_c, 0, 75, 92
2, 188924, Note_off_c, 0, 67, 100
2, 188928, Note_on_c, 0, 72, 91
2, 189020, Note_off_c, 0, 75, 100
2, 189116, Note_off_c, 0, 72, 100
2, 189216, Note_on_c, 0, 60, 86
2, 189312, Note_on_c, 0, 65, 84
2, 189404, Note_off_c, 0, 60, 100
2, 189408, Note_on_c, 0, 72, 82
2, 189500, Note_off_c, 0, 65, 100
2, 189504, Note_on_c, 0, 74, 80
2, 189596, Note_off_c, 0, 72, 100
2, 189692, Note_off_c, 0, 74, 100
2, 189792, Note_on_c, 0, 62, 84
2, 189888, Note_on_c, 0, 65, 85
2, 189980, Note_off_c, 0, 62, 100
2, 189984, Note_on_c, 0, 74, 87
2, 190076, Note_off_c, 0, 65, 100
2, 190080, Note_on_c, 0, 75, 88
2, 190172, Note_off_c, 0, 74, 100
2, 190268, Note_off_c, 0, 75, 100
2, 190368, Note_on_c, 0, 63, 92
2, 190464, Note_on_c, 0, 67, 94
2, 190556, Note_off_c, 0, 63, 100
2, 190560, Note_on_c, 0, 75, 95
2, 190652, Note_off_c, 0, 67, 100
2, 190656, Note_on_c, 0, 72, 97
2, 190748, Note_off_c, 0, 75, 100
2, 190844, Note_off_c, 0, 72, 100
2, 190944, Note_on_c, 0, 60, 110
2, 191040, Note_on_c, 0, 69, 110
2, 191132, Note_off_c, 0, 60, 100
2, 191136, Note_on_c, 0, 72, 110
2, 191228, Note_off_c, 0, 69, 100
2, 191232, Note_on_c, 0, 77, 110
2, 191324, Note_off_c, 0, 72, 100
2, 191420, Note_off_c, 0, 77, 100
2, 191520, Note_on_c, 0, 65, 98
2, 191616, Note_on_c, 0, 70, 94
2, 191708, Note_off_c, 0, 65, 100
2, 191712, Note_on_c, 0, 77, 90
2, 191804, Note_off_c, 0, 70, 100
2, 191808, Note_on_c, 0, 74, 86
2, 191900, Note_off_c, 0, 77, 100
2, 191996, Note_off_c, 0, 74, 100
2, 192096, Note_on_c, 0, 62, 83
2, 192192, Note_on_c, 0, 70, 85
2, 192284, Note_off_c, 0, 62, 100
2, 192288, Note_on_c, 0, 74, 87
2, 192380, Note_off_c, 0, 70, 100
2, 192384, Note_on_c, 0, 75, 88
2, 192476, Note_off_c, 0, 74, 100
2, 192572, Note_off_c, 0, 75, 100
2, 192672, Note_on_c, 0, 63, 94
2, 192768, Note_on_c, 0, 67, 95
2, 192860, Note_off_c, 0, 63, 100
2, 192864, Note_on_c, 0, 75, 97
2, 192956, Note_off_c, 0, 67, 100
2, 192960, Note_on_c, 0, 72, 99
2, 193052, Note_off_c, 0, 75, 100
2, 193148, Note_off_c, 0, 72, 100
2, 193248, Note_on_c, 0, 60, 104
2, 193344, Note_on_c, 0, 69, 106
2, 193436, Note_off_c, 0, 60, 100
2, 193440, Note_on_c, 0, 72, 108
2, 193532, Note_off_c, 0, 69, 100
2, 193536, Note_on_c, 0, 70, 110
2, 193628, Note_off_c, 0, 72, 100
2, 193724, Note_off_c, 0, 70, 100
2, 194208, Note_on_c, 0, 46, 110
2, 194304, Note_on_c, 0, 49, 110
2, 194396, Note_off_c, 0, 46, 100
2, 194400, Note_on_c, 0, 53, 110
2, 194492, Note_off_c, 0, 49, 100
2, 194496, Note_on_c, 0, 58, 110
2, 194588, Note_off_c, 0, 53, 100
2, 194684, Note_off_c, 0, 58, 100
2, 194784, Note_on_c, 0, 46, 110
2, 194880, Note_on_c, 0, 49, 110
2, 194972, Note_off_c, 0, 46, 100
2, 194976, Note_on_c, 0, 53, 110
2, 195068, Note_off_c, 0, 49, 100
2, 195072, Note_on_c, 0, 58, 110
2, 195164, Note_off_c, 0, 53, 100
2, 195260, Note_off_c, 0, 58, 100
2, 195360, Note_on_c, 0, 46, 110
2, 195456, Note_on_c, 0, 49, 110
2, 195548, Note_off_c, 0, 46, 100
2, 195552, Note_on_c, 0, 53, 110
2, 195644, Note_off_c, 0, 49, 100
2, 195648, Note_on_c, 0, 58, 110
2, 195740, Note_off_c, 0, 53, 100
2, 195836, Note_off_c, 0, 58, 100
2, 195840, Note_on_c, 0, 43, 120
2, 195936, Note_on_c, 0, 46, 110
2, 196028, Note_off_c, 0, 43, 100
2, 196032, Note_on_c, 0, 52, 110
2, 196124, Note_off_c, 0, 46, 100
2, 196128, Note_on_c, 0, 55, 110
2, 196220, Note_off_c, 0, 52, 100
2, 196224, Note_on_c, 0, 58, 110
2, 196316, Note_off_c, 0, 55, 100
2, 196320, Note_on_c, 0, 64, 110
2, 196412, Note_off_c, 0, 58, 100
2, 196416, Note_on_c, 0, 53, 110
2, 196508, Note_off_c, 0, 64, 100
2, 196512, Note_on_c, 0, 65, 110
2, 196604, Note_off_c, 0, 53, 100
2, 196608, Note_on_c, 0, 56, 110
2, 196700, Note_off_c, 0, 65, 100
2, 196704, Note_on_c, 0, 68, 110
2, 196796, Note_off_c, 0, 56, 100
2, 196800, Note_on_c, 0, 60, 110
2, 196892, Note_off_c, 0, 68, 100
2, 196896, Note_on_c, 0, 72, 110
2, 196988, Note_off_c, 0, 60, 100
2, 196992, Note_on_c, 0, 65, 110
2, 197084, Note_off_c, 0, 72, 100
2, 197088, Note_on_c, 0, 77, 110
2, 197180, Note_off_c, 0, 65, 100
2, 197184, Note_on_c, 0, 68, 110
2, 197276, Note_off_c, 0, 77, 100
2, 197280, Note_on_c, 0, 80, 110
2, 197372, Note_off_c, 0, 68, 100
2, 197376, Note_on_c, 0, 65, 110
2, 197468, Note_off_c, 0, 80, 100
2, 197472, Note_on_c, 0, 77, 110
2, 197564, Note_off_c, 0, 65, 100
2, 197568, Note_on_c, 0, 60, 110
2, 197660, Note_off_c, 0, 77, 100
2, 197664, Note_on_c, 0, 72, 110
2, 197756, Note_off_c, 0, 60, 100
2, 197760, Note_on_c, 0, 56, 110
2, 197852, Note_off_c, 0, 72, 100
2, 197856, Note_on_c, 0, 68, 110
2, 197948, Note_off_c, 0, 56, 100
2, 197952, Note_on_c, 0, 60, 110
2, 198044, Note_off_c, 0, 68, 100
2, 198048, Note_on_c, 0, 72, 110
2, 198140, Note_off_c, 0, 60, 100
2, 198144, Note_on_c, 0, 56, 110
2, 198236, Note_off_c, 0, 72, 100
2, 198240, Note_on_c, 0, 68, 110
2, 198332, Note_off_c, 0, 56, 100
2, 198336, Note_on_c, 0, 53, 110
2, 198428, Note_off_c, 0, 68, 100
2, 198432, Note_on_c, 0, 65, 110
2, 198524, Note_off_c, 0, 53, 100
2, 198620, Note_off_c, 0, 65, 100
2, 198816, Note_on_c, 0, 53, 110
2, 198912, Note_on_c, 0, 56, 110
2, 199004, Note_off_c, 0, 53, 100
2, 199008, Note_on_c, 0, 60, 110
2, 199100, Note_off_c, 0, 56, 100
2, 199104, Note_on_c, 0, 65, 110
2, 199196, Note_off_c, 0, 60, 100
2, 199292, Note_off_c, 0, 65, 100
2, 199392, Note_on_c, 0, 53, 110
2, 199488, Note_on_c, 0, 56, 110
2, 199580, Note_off_c, 0, 53, 100
2, 199584, Note_on_c, 0, 60, 110
2, 199676, Note_off_c, 0, 56, 100
2, 199680, Note_on_c, 0, 65, 110
2, 199772, Note_off_c, 0, 60, 100
2, 199868, Note_off_c, 0, 65, 100
2, 199968, Note_on_c, 0, 53, 110
2, 200064, Note_on_c, 0, 56, 110
2, 200156, Note_off_c, 0, 53, 100
2, 200160, Note_on_c, 0, 60, 110
2, 200252, Note_off_c, 0, 56, 100
2, 200256, Note_on_c, 0, 65, 110
2, 200348, Note_off_c, 0, 60, 100
2, 200444, Note_off_c, 0, 65, 100
2, 200448, Note_on_c, 0, 50, 120
2, 200544, Note_on_c, 0, 53, 110
2, 200636, Note_off_c, 0, 50, 100
2, 200640, Note_on_c, 0, 59, 110
2, 200732, Note_off_c, 0, 53, 100
2, 200736, Note_on_c, 0, 62, 110
2, 200828, Note_off_c, 0, 59, 100
2, 200832, Note_on_c, 0, 65, 110
2, 200924, Note_off_c, 0, 62, 100
2, 200928, Note_on_c, 0, 71, 110
2, 201020, Note_off_c, 0, 65, 100
2, 201024, Note_on_c, 0, 60, 110
2, 201116, Note_off_c, 0, 71, 100
2, 201120, Note_on_c, 0, 72, 110
2, 201212, Note_off_c, 0, 60, 100
2, 201216, Note_on_c, 0, 63, 110
2, 201308, Note_off_c, 0, 72, 100
2, 201312, Note_on_c, 0, 75, 110
2, 201404, Note_off_c, 0, 63, 100
2, 201408, Note_on_c, 0, 67, 110
2, 201500, Note_off_c, 0, 75, 100
2, 201504, Note_on_c, 0, 79, 110
2, 201596, Note_off_c, 0, 67, 100
2, 201600, Note_on_c, 0, 72, 110
2, 201692, Note_off_c, 0, 79, 100
2, 201696, Note_on_c, 0, 84, 110
2, 201788, Note_off_c, 0, 72, 100
2, 201792, Note_on_c, 0, 75, 110
2, 201884, Note_off_c, 0, 84, 100
2, 201888, Note_on_c, 0, 87, 110
2, 201980, Note_off_c, 0, 75, 100
2, 201984, Note_on_c, 0, 72, 110
2, 202076, Note_off_c, 0, 87, 100
2, 202080, Note_on_c, 0, 84, 110
2, 202172, Note_off_c, 0, 72, 100
2, 202176, Note_on_c, 0, 67, 110
2, 202268, Note_off_c, 0, 84, 100
2, 202272, Note_on_c, 0, 79, 110
2, 202364, Note_off_c, 0, 67, 100
2, 202368, Note_on_c, 0, 63, 110
2, 202460, Note_off_c, 0, 79, 100
2, 202464, Note_on_c, 0, 75, 110
2, 202556, Note_off_c, 0, 63, 100
2, 202560, Note_on_c, 0, 67, 110
2, 202652, Note_off_c, 0, 75, 100
2, 202656, Note_on_c, 0, 79, 110
2, 202748, Note_off_c, 0, 67, 100
2, 202752, Note_on_c, 0, 63, 110
2, 202844, Note_off_c, 0, 79, 100
2, 202848, Note_on_c, 0, 75, 110
2, 202940, Note_off_c, 0, 63, 100
2, 202944, Note_on_c, 0, 60, 110
2, 203036, Note_off_c, 0, 75, 100
2, 203040, Note_on_c, 0, 72, 110
2, 203132, Note_off_c, 0, 60, 100
2, 203228, Note_off_c, 0, 72, 100
2, 203424, Note_on_c, 0, 48, 110
2, 203520, Note_on_c, 0, 51, 110
2, 203612, Note_off_c, 0, 48, 100
2, 203616, Note_on_c, 0, 55, 110
2, 203708, Note_off_c, 0, 51, 100
2, 203712, Note_on_c, 0, 60, 110
2, 203804, Note_off_c, 0, 55, 100
2, 203900, Note_off_c, 0, 60, 100
2, 204000, Note_on_c, 0, 48, 110
2, 204096, Note_on_c, 0, 51, 110
2, 204188, Note_off_c, 0, 48, 100
2, 204192, Note_on_c, 0, 55, 110
2, 204284, Note_off_c, 0, 51, 100
2, 204288, Note_on_c, 0, 60, 110
2, 204380, Note_off_c, 0, 55, 100
2, 204476, Note_off_c, 0, 60, 100
2, 204576, Note_on_c, 0, 48, 110
2, 204672, Note_on_c, 0, 51, 110
2, 204764, Note_off_c, 0, 48, 100
2, 204768, Note_on_c, 0, 55, 110
2, 204860, Note_off_c, 0, 51, 100
2, 204864, Note_on_c, 0, 60, 110
2, 204956, Note_off_c, 0, 55, 100
2, 205052, Note_off_c, 0, 60, 100
2, 205056, Note_on_c, 0, 45, 120
2, 205152, Note_on_c, 0, 48, 110
2, 205244, Note_off_c, 0, 45, 100
2, 205248, Note_on_c, 0, 54, 110
2, 205340, Note_off_c, 0, 48, 100
2, 205344, Note_on_c, 0, 57, 110
2, 205436, Note_off_c, 0, 54, 100
2, 205440, Note_on_c, 0, 60, 110
2, 205532, Note_off_c, 0, 57, 100
2, 205536, Note_on_c, 0, 66, 110
2, 205628, Note_off_c, 0, 60, 100
2, 205632, Note_on_c, 0, 55, 110
2, 205724, Note_off_c, 0, 66, 100
2, 205728, Note_on_c, 0, 67, 110
2, 205820, Note_off_c, 0, 55, 100
2, 205824, Note_on_c, 0, 58, 110
2, 205916, Note_off_c, 0, 67, 100
2, 205920, Note_on_c, 0, 70, 110
2, 206012, Note_off_c, 0, 58, 100
2, 206016, Note_on_c, 0, 62, 110
2, 206108, Note_off_c, 0, 70, 100
2, 206112, Note_on_c, 0, 74, 110
2, 206204, Note_off_c, 0, 62, 100
2, 206208, Note_on_c, 0, 67, 110
2, 206300, Note_off_c, 0, 74, 100
2, 206304, Note_on_c, 0, 79, 110
2, 206396, Note_off_c, 0, 67, 100
2, 206400, Note_on_c, 0, 70, 110
2, 206492, Note_off_c, 0, 79, 100
2, 206496, Note_on_c, 0, 82, 110
2, 206588, Note_off_c, 0, 70, 100
2, 206592, Note_on_c, 0, 67, 110
2, 206684, Note_off_c, 0, 82, 100
2, 206688, Note_on_c, 0, 79, 110
2, 206780, Note_off_c, 0, 67, 100
2, 206784, Note_on_c, 0, 62, 110
2, 206876, Note_off_c, 0, 79, 100
2, 206880, Note_on_c, 0, 74, 110
2, 206972, Note_off_c, 0, 62, 100
2, 206976, Note_on_c, 0, 58, 110
2, 207068, Note_off_c, 0, 74, 100
2, 207072, Note_on_c, 0, 70, 110
2, 207164, Note_off_c, 0, 58, 100
2, 207168, Note_on_c, 0, 62, 110
2, 207260, Note_off_c, 0, 70, 100
2, 207264, Note_on_c, 0, 74, 110
2, 207356, Note_off_c, 0, 62, 100
2, 207360, Note_on_c, 0, 58, 110
2, 207452, Note_off_c, 0, 74, 100
2, 207456, Note_on_c, 0, 70, 110
2, 207548, Note_off_c, 0, 58, 100
2, 207552, Note_on_c, 0, 55, 110
2, 207644, Note_off_c, 0, 70, 100
2, 207648, Note_on_c, 0, 67, 110
2, 207740, Note_off_c, 0, 55, 100
2, 207836, Note_off_c, 0, 67, 100
2, 208032, Note_on_c, 0, 50, 110
2, 208128, Note_on_c, 0, 55, 110
2, 208220, Note_off_c, 0, 50, 100
2, 208224, Note_on_c, 0, 58, 110
2, 208316, Note_off_c, 0, 55, 100
2, 208320, Note_on_c, 0, 62, 110
2, 208412, Note_off_c, 0, 58, 100
2, 208508, Note_off_c, 0, 62, 100
2, 208608, Note_on_c, 0, 50, 110
2, 208704, Note_on_c, 0, 55, 110
2, 208796, Note_off_c, 0, 50, 100
2, 208800, Note_on_c, 0, 58, 110
2, 208892, Note_off_c, 0, 55, 100
2, 208896, Note_on_c, 0, 62, 110
2, 208988, Note_off_c, 0, 58, 100
2, 209084, Note_off_c, 0, 62, 100
2, 209184, Note_on_c, 0, 50, 110
2, 209280, Note_on_c, 0, 55, 110
2, 209372, Note_off_c, 0, 50, 100
2, 209376, Note_on_c, 0, 58, 110
2, 209468, Note_off_c, 0, 55, 100
2, 209472, Note_on_c, 0, 62, 110
2, 209564, Note_off_c, 0, 58, 100
2, 209660, Note_off_c, 0, 62, 100
2, 209664, Note_on_c, 0, 50, 120
2, 209664, Note_on_c, 0, 56, 120
2, 209760, Note_on_c, 0, 62, 110
2, 209852, Note_off_c, 0, 50, 100
2, 209852, Note_off_c, 0, 56, 100
2, 209856, Note_on_c, 0, 50, 110
2, 209856, Note_on_c, 0, 56, 110
2, 209948, Note_off_c, 0, 62, 100
2, 209952, Note_on_c, 0, 62, 110
2, 210044, Note_off_c, 0, 50, 100
2, 210044, Note_off_c, 0, 56, 100
2, 210048, Note_on_c, 0, 50, 110
2, 210048, Note_on_c, 0, 56, 110
2, 210140, Note_off_c, 0, 62, 100
2, 210144, Note_on_c, 0, 62, 110
2, 210236, Note_off_c, 0, 50, 100
2, 210236, Note_off_c, 0, 56, 100
2, 210240, Note_on_c, 0, 52, 110
2, 210240, Note_on_c, 0, 57, 110
2, 210240, Note_on_c, 0, 61, 110
2, 210332, Note_off_c, 0, 62, 100
2, 210428, Note_off_c, 0, 52, 100
2, 210428, Note_off_c, 0, 57, 100
2, 210428, Note_off_c, 0, 61, 100
2, 210432, Note_on_c, 0, 70, 110
2, 210480, Note_on_c, 0, 72, 110
2, 210524, Note_off_c, 0, 70, 100
2, 210528, Note_on_c, 0, 70, 110
2, 210572, Note_off_c, 0, 72, 100
2, 210624, Note_on_c, 0, 69, 110
2, 210668, Note_off_c, 0, 70, 100
2, 210812, Note_off_c, 0, 69, 100
2, 210816, Note_on_c, 0, 70, 110
2, 210864, Note_on_c, 0, 72, 110
2, 210908, Note_off_c, 0, 70, 100
2, 210912, Note_on_c, 0, 70, 110
2, 210956, Note_off_c, 0, 72, 100
2, 211008, Note_on_c, 0, 69, 110
2, 211052, Note_off_c, 0, 70, 100
2, 211196, Note_off_c, 0, 69, 100
2, 211200, Note_on_c, 0, 70, 110
2, 211248, Note_on_c, 0, 72, 110
2, 211292, Note_off_c, 0, 70, 100
2, 211296, Note_on_c, 0, 70, 110
2, 211340, Note_off_c, 0, 72, 100
2, 211392, Note_on_c, 0, 69, 110
2, 211436, Note_off_c, 0, 70, 100
2, 211580, Note_off_c, 0, 69, 100
2, 211584, Note_on_c, 0, 70, 110
2, 211632, Note_on_c, 0, 72, 110
2, 211676, Note_off_c, 0, 70, 100
2, 211680, Note_on_c, 0, 70, 110
2, 211724, Note_off_c, 0, 72, 100
2, 211776, Note_on_c, 0, 69, 110
2, 211820, Note_off_c, 0, 70, 100
2, 211964, Note_off_c, 0, 69, 100
2, 211968, Note_on_c, 0, 70, 110
2, 212016, Note_on_c, 0, 72, 110
2, 212060, Note_off_c, 0, 70, 100
2, 212064, Note_on_c, 0, 70, 110
2, 212108, Note_off_c, 0, 72, 100
2, 212160, Note_on_c, 0, 69, 110
2, 212204, Note_off_c, 0, 70, 100
2, 212348, Note_off_c, 0, 69, 100
2, 212352, Note_on_c, 0, 70, 110
2, 212400, Note_on_c, 0, 72, 110
2, 212444, Note_off_c, 0, 70, 100
2, 212448, Note_on_c, 0, 70, 110
2, 212492, Note_off_c, 0, 72, 100
2, 212544, Note_on_c, 0, 69, 110
2, 212588, Note_off_c, 0, 70, 100
2, 212732, Note_off_c, 0, 69, 100
2, 212736, Note_on_c, 0, 70, 110
2, 213308, Note_off_c, 0, 70, 100
2, 213312, Note_on_c, 0, 69, 103
2, 213500, Note_off_c, 0, 69, 100
2, 213504, Note_on_c, 0, 67, 97
2, 213692, Note_off_c, 0, 67, 100
2, 213696, Note_on_c, 0, 65, 80
2, 213744, Note_on_c, 0, 67, 80
2, 213788, Note_off_c, 0, 65, 100
2, 213792, Note_on_c, 0, 65, 80
2, 213836, Note_off_c, 0, 67, 100
2, 213888, Note_on_c, 0, 64, 80
2, 213932, Note_off_c, 0, 65, 100
2, 214076, Note_off_c, 0, 64, 100
2, 214080, Note_on_c, 0, 62, 80
2, 214268, Note_off_c, 0, 62, 100
2, 214272, Note_on_c, 0, 61, 80
2, 214460, Note_off_c, 0, 61, 100
2, 214464, Note_on_c, 0, 62, 80
2, 214652, Note_off_c, 0, 62, 100
2, 214656, Note_on_c, 0, 64, 80
2, 214844, Note_off_c, 0, 64, 100
2, 214848, Note_on_c, 0, 62, 80
2, 215036, Note_off_c, 0, 62, 100
2, 215040, Note_on_c, 0, 70, 110
2, 215136, Note_on_c, 0, 82, 110
2, 215228, Note_off_c, 0, 70, 100
2, 215232, Note_on_c, 0, 69, 110
2, 215324, Note_off_c, 0, 82, 100
2, 215328, Note_on_c, 0, 81, 110
2, 215420, Note_off_c, 0, 69, 100
2, 215424, Note_on_c, 0, 70, 110
2, 215516, Note_off_c, 0, 81, 100
2, 215520, Note_on_c, 0, 82, 110
2, 215612, Note_off_c, 0, 70, 100
2, 215616, Note_on_c, 0, 69, 110
2, 215708, Note_off_c, 0, 82, 100
2, 215712, Note_on_c, 0, 81, 110
2, 215804, Note_off_c, 0, 69, 100
2, 215808, Note_on_c, 0, 70, 110
2, 215900, Note_off_c, 0, 81, 100
2, 215904, Note_on_c, 0, 82, 110
2, 215996, Note_off_c, 0, 70, 100
2, 216000, Note_on_c, 0, 69, 110
2, 216092, Note_off_c, 0, 82, 100
2, 216096, Note_on_c, 0, 81, 110
2, 216188, Note_off_c, 0, 69, 100
2, 216192, Note_on_c, 0, 70, 110
2, 216284, Note_off_c, 0, 81, 100
2, 216288, Note_on_c, 0, 82, 110
2, 216380, Note_off_c, 0, 70, 100
2, 216384, Note_on_c, 0, 69, 110
2, 216476, Note_off_c, 0, 82, 100
2, 216480, Note_on_c, 0, 81, 110
2, 216572, Note_off_c, 0, 69, 100
2, 216576, Note_on_c, 0, 70, 110
2, 216668, Note_off_c, 0, 81, 100
2, 216672, Note_on_c, 0, 82, 110
2, 216764, Note_off_c, 0, 70, 100
2, 216768, Note_on_c, 0, 69, 110
2, 216860, Note_off_c, 0, 82, 100
2, 216864, Note_on_c, 0, 81, 110
2, 216956, Note_off_c, 0, 69, 100
2, 216960, Note_on_c, 0, 70, 110
2, 217052, Note_off_c, 0, 81, 100
2, 217056, Note_on_c, 0, 82, 110
2, 217148, Note_off_c, 0, 70, 100
2, 217152, Note_on_c, 0, 81, 110
2, 217152, Note_on_c, 0, 69, 110
2, 217244, Note_off_c, 0, 82, 100
2, 217340, Note_off_c, 0, 81, 100
2, 217340, Note_off_c, 0, 69, 100
2, 217344, Note_on_c, 0, 82, 110
2, 217344, Note_on_c, 0, 70, 110
2, 217916, Note_off_c, 0, 70, 100
2, 217916, Note_off_c, 0, 82, 100
2, 217920, Note_on_c, 0, 81, 102
2, 217920, Note_on_c, 0, 69, 102
2, 218108, Note_off_c, 0, 81, 100
2, 218108, Note_off_c, 0, 69, 100
2, 218112, Note_on_c, 0, 79, 94
2, 218112, Note_on_c, 0, 67, 94
2, 218300, Note_off_c, 0, 79, 100
2, 218300, Note_off_c, 0, 67, 100
2, 218304, Note_on_c, 0, 77, 80
2, 218304, Note_on_c, 0, 65, 80
2, 218492, Note_off_c, 0, 77, 100
2, 218492, Note_off_c, 0, 65, 100
2, 218496, Note_on_c, 0, 76, 80
2, 218496, Note_on_c, 0, 64, 80
2, 218684, Note_off_c, 0, 76, 100
2, 218684, Note_off_c, 0, 64, 100
2, 218688, Note_on_c, 0, 74, 80
2, 218688, Note_on_c, 0, 62, 80
2, 218876, Note_off_c, 0, 74, 100
2, 218876, Note_off_c, 0, 62, 100
2, 218880, Note_on_c, 0, 73, 80
2, 218880, Note_on_c, 0, 61, 80
2, 219068, Note_off_c, 0, 73, 100
2, 219068, Note_off_c, 0, 61, 100
2, 219072, Note_on_c, 0, 74, 80
2, 219072, Note_on_c, 0, 62, 80
2, 219260, Note_off_c, 0, 74, 100
2, 219260, Note_off_c, 0, 62, 100
2, 219264, Note_on_c, 0, 76, 80
2, 219264, Note_on_c, 0, 64, 80
2, 219452, Note_off_c, 0, 76, 100
2, 219452, Note_off_c, 0, 64, 100
2, 219456, Note_on_c, 0, 62, 80
2, 219456, Note_on_c, 0, 74, 80
2, 219644, Note_off_c, 0, 62, 100
2, 219644, Note_off_c, 0, 74, 100
2, 219648, Note_on_c, 0, 82, 82
2, 219648, Note_on_c, 0, 70, 82
2, 219836, Note_off_c, 0, 82, 100
2, 219836, Note_off_c, 0, 70, 100
2, 219840, Note_on_c, 0, 82, 84
2, 219840, Note_on_c, 0, 70, 84
2, 220028, Note_off_c, 0, 82, 100
2, 220028, Note_off_c, 0, 70, 100
2, 220032, Note_on_c, 0, 82, 87
2, 220032, Note_on_c, 0, 70, 87
2, 220220, Note_off_c, 0, 82, 100
2, 220220, Note_off_c, 0, 70, 100
2, 220224, Note_on_c, 0, 81, 89
2, 220224, Note_on_c, 0, 69, 89
2, 220412, Note_off_c, 0, 81, 100
2, 220412, Note_off_c, 0, 69, 100
2, 220416, Note_on_c, 0, 79, 91
2, 220416, Note_on_c, 0, 67, 91
2, 220604, Note_off_c, 0, 79, 100
2, 220604, Note_off_c, 0, 67, 100
2, 220608, Note_on_c, 0, 77, 94
2, 220608, Note_on_c, 0, 65, 94
2, 220796, Note_off_c, 0, 77, 100
2, 220796, Note_off_c, 0, 65, 100
2, 220800, Note_on_c, 0, 76, 96
2, 220800, Note_on_c, 0, 64, 96
2, 220988, Note_off_c, 0, 76, 100
2, 220988, Note_off_c, 0, 64, 100
2, 220992, Note_on_c, 0, 74, 99
2, 220992, Note_on_c, 0, 62, 99
2, 221180, Note_off_c, 0, 74, 100
2, 221180, Note_off_c, 0, 62, 100
2, 221184, Note_on_c, 0, 73, 101
2, 221184, Note_on_c, 0, 61, 101
2, 221372, Note_off_c, 0, 73, 100
2, 221372, Note_off_c, 0, 61, 100
2, 221376, Note_on_c, 0, 74, 103
2, 221376, Note_on_c, 0, 62, 103
2, 221564, Note_off_c, 0, 74, 100
2, 221564, Note_off_c, 0, 62, 100
2, 221568, Note_on_c, 0, 76, 106
2, 221568, Note_on_c, 0, 64, 106
2, 221756, Note_off_c, 0, 76, 100
2, 221756, Note_off_c, 0, 64, 100
2, 221760, Note_on_c, 0, 62, 108
2, 221760, Note_on_c, 0, 74, 108
2, 221948, Note_off_c, 0, 62, 100
2, 221948, Note_off_c, 0, 74, 100
2, 221952, Note_on_c, 0, 82, 110
2, 221952, Note_on_c, 0, 70, 110
2, 222140, Note_off_c, 0, 82, 100
2, 222140, Note_off_c, 0, 70, 100
2, 222144, Note_on_c, 0, 82, 110
2, 222144, Note_on_c, 0, 70, 110
2, 222332, Note_off_c, 0, 82, 100
2, 222332, Note_off_c, 0, 70, 100
2, 222336, Note_on_c, 0, 82, 110
2, 222336, Note_on_c, 0, 70, 110
2, 222524, Note_off_c, 0, 82, 100
2, 222524, Note_off_c, 0, 70, 100
2, 222528, Note_on_c, 0, 81, 110
2, 222528, Note_on_c, 0, 69, 110
2, 222716, Note_off_c, 0, 81, 100
2, 222716, Note_off_c, 0, 69, 100
2, 222720, Note_on_c, 0, 79, 110
2, 222720, Note_on_c, 0, 67, 110
2, 222908, Note_off_c, 0, 79, 100
2, 222908, Note_off_c, 0, 67, 100
2, 222912, Note_on_c, 0, 77, 110
2, 222912, Note_on_c, 0, 65, 110
2, 223100, Note_off_c, 0, 77, 100
2, 223100, Note_off_c, 0, 65, 100
2, 223104, Note_on_c, 0, 76, 110
2, 223104, Note_on_c, 0, 64, 110
2, 223292, Note_off_c, 0, 76, 100
2, 223292, Note_off_c, 0, 64, 100
2, 223296, Note_on_c, 0, 74, 110
2, 223296, Note_on_c, 0, 62, 110
2, 223484, Note_off_c, 0, 74, 100
2, 223484, Note_off_c, 0, 62, 100
2, 223488, Note_on_c, 0, 73, 110
2, 223488, Note_on_c, 0, 61, 110
2, 223676, Note_off_c, 0, 73, 100
2, 223676, Note_off_c, 0, 61, 100
2, 223680, Note_on_c, 0, 74, 110
2, 223680, Note_on_c, 0, 62, 110
2, 223868, Note_off_c, 0, 74, 100
2, 223868, Note_off_c, 0, 62, 100
2, 223872, Note_on_c, 0, 76, 110
2, 223872, Note_on_c, 0, 64, 110
2, 224060, Note_off_c, 0, 76, 100
2, 224060, Note_off_c, 0, 64, 100
2, 224064, Note_on_c, 0, 62, 105
2, 224064, Note_on_c, 0, 74, 105
2, 224252, Note_off_c, 0, 62, 100
2, 224252, Note_off_c, 0, 74, 100
2, 224448, Note_on_c, 0, 62, 80
2, 224544, Note_on_c, 0, 74, 80
2, 224636, Note_off_c, 0, 62, 100
2, 224640, Note_on_c, 0, 65, 80
2, 224732, Note_off_c, 0, 74, 100
2, 224828, Note_off_c, 0, 65, 100
2, 225024, Note_on_c, 0, 65, 80
2, 225120, Note_on_c, 0, 77, 80
2, 225212, Note_off_c, 0, 65, 100
2, 225216, Note_on_c, 0, 69, 80
2, 225308, Note_off_c, 0, 77, 100
2, 225404, Note_off_c, 0, 69, 100
2, 225600, Note_on_c, 0, 69, 80
2, 225696, Note_on_c, 0, 81, 80
2, 225788, Note_off_c, 0, 69, 100
2, 225792, Note_on_c, 0, 65, 80
2, 225884, Note_off_c, 0, 81, 100
2, 225980, Note_off_c, 0, 65, 100
2, 226176, Note_on_c, 0, 65, 80
2, 226272, Note_on_c, 0, 77, 80
2, 226364, Note_off_c, 0, 65, 100
2, 226368, Note_on_c, 0, 62, 80
2, 226460, Note_off_c, 0, 77, 100
2, 226560, Note_on_c, 0, 74, 83
2, 227132, Note_off_c, 0, 62, 100
2, 227132, Note_off_c, 0, 74, 100
2, 227136, Note_on_c, 0, 64, 93
2, 227136, Note_on_c, 0, 76, 93
2, 227324, Note_off_c, 0, 64, 100
2, 227324, Note_off_c, 0, 76, 100
2, 227328, Note_on_c, 0, 61, 96
2, 227328, Note_on_c, 0, 73, 96
2, 227516, Note_off_c, 0, 61, 100
2, 227516, Note_off_c, 0, 73, 100
2, 227520, Note_on_c, 0, 62, 99
2, 227520, Note_on_c, 0, 74, 99
2, 227708, Note_off_c, 0, 62, 100
2, 227708, Note_off_c, 0, 74, 100
2, 227808, Note_on_c, 0, 62, 80
2, 227904, Note_on_c, 0, 74, 80
2, 227996, Note_off_c, 0, 62, 100
2, 228000, Note_on_c, 0, 62, 80
2, 228092, Note_off_c, 0, 74, 100
2, 228096, Note_on_c, 0, 65, 80
2, 228188, Note_off_c, 0, 62, 100
2, 228284, Note_off_c, 0, 65, 100
2, 228384, Note_on_c, 0, 65, 80
2, 228480, Note_on_c, 0, 77, 80
2, 228572, Note_off_c, 0, 65, 100
2, 228576, Note_on_c, 0, 65, 80
2, 228668, Note_off_c, 0, 77, 100
2, 228672, Note_on_c, 0, 69, 80
2, 228764, Note_off_c, 0, 65, 100
2, 228860, Note_off_c, 0, 69, 100
2, 228960, Note_on_c, 0, 69, 80
2, 229056, Note_on_c, 0, 81, 80
2, 229148, Note_off_c, 0, 69, 100
2, 229152, Note_on_c, 0, 69, 80
2, 229244, Note_off_c, 0, 81, 100
2, 229248, Note_on_c, 0, 65, 80
2, 229340, Note_off_c, 0, 69, 100
2, 229436, Note_off_c, 0, 65, 100
2, 229536, Note_on_c, 0, 65, 80
2, 229632, Note_on_c, 0, 77, 80
2, 229724, Note_off_c, 0, 65, 100
2, 229728, Note_on_c, 0, 65, 80
2, 229820, Note_off_c, 0, 77, 100
2, 229824, Note_on_c, 0, 62, 80
2, 229916, Note_off_c, 0, 65, 100
2, 230016, Note_on_c, 0, 74, 83
2, 230588, Note_off_c, 0, 62, 100
2, 230588, Note_off_c, 0, 74, 100
2, 230592, Note_on_c, 0, 64, 93
2, 230592, Note_on_c, 0, 76, 93
2, 230780, Note_off_c, 0, 64, 100
2, 230780, Note_off_c, 0, 76, 100
2, 230784, Note_on_c, 0, 61, 96
2, 230784, Note_on_c, 0, 73, 96
2, 230972, Note_off_c, 0, 61, 100
2, 230972, Note_off_c, 0, 73, 100
2, 230976, Note_on_c, 0, 62, 80
2, 230976, Note_on_c, 0, 74, 80
2, 231164, Note_off_c, 0, 62, 100
2, 231164, Note_off_c, 0, 74, 100
2, 231168, Note_on_c, 0, 76, 86
2, 231356, Note_off_c, 0, 76, 100
2, 231360, Note_on_c, 0, 78, 93
2, 231548, Note_off_c, 0, 78, 100
2, 231552, Note_on_c, 0, 79, 99
2, 231740, Note_off_c, 0, 79, 100
2, 231744, Note_on_c, 0, 86, 100
2, 231744, Note_on_c, 0, 77, 100
2, 231932, Note_off_c, 0, 86, 100
2, 231932, Note_off_c, 0, 77, 100
2, 231936, Note_on_c, 0, 86, 100
2, 231936, Note_on_c, 0, 76, 100
2, 232124, Note_off_c, 0, 86, 100
2, 232124, Note_off_c, 0, 76, 100
2, 232128, Note_on_c, 0, 86, 100
2, 232128, Note_on_c, 0, 77, 100
2, 232316, Note_off_c, 0, 86, 100
2, 232316, Note_off_c, 0, 77, 100
2, 232320, Note_on_c, 0, 85, 100
2, 232320, Note_on_c, 0, 73, 100
2, 232508, Note_off_c, 0, 85, 100
2, 232508, Note_off_c, 0, 73, 100
2, 232512, Note_on_c, 0, 86, 100
2, 232512, Note_on_c, 0, 74, 100
2, 232700, Note_off_c, 0, 86, 100
2, 232700, Note_off_c, 0, 74, 100
2, 232704, Note_on_c, 0, 88, 100
2, 232704, Note_on_c, 0, 76, 100
2, 232892, Note_off_c, 0, 88, 100
2, 232892, Note_off_c, 0, 76, 100
2, 232896, Note_on_c, 0, 83, 100
2, 232896, Note_on_c, 0, 71, 100
2, 233084, Note_off_c, 0, 83, 100
2, 233084, Note_off_c, 0, 71, 100
2, 233088, Note_on_c, 0, 85, 100
2, 233088, Note_on_c, 0, 73, 100
2, 233276, Note_off_c, 0, 85, 100
2, 233276, Note_off_c, 0, 73, 100
2, 233280, Note_on_c, 0, 74, 90
2, 233376, Note_on_c, 0, 86, 91
2, 233468, Note_off_c, 0, 74, 100
2, 233472, Note_on_c, 0, 76, 93
2, 233564, Note_off_c, 0, 86, 100
2, 233568, Note_on_c, 0, 86, 94
2, 233660, Note_off_c, 0, 76, 100
2, 233664, Note_on_c, 0, 78, 96
2, 233756, Note_off_c, 0, 86, 100
2, 233760, Note_on_c, 0, 86, 98
2, 233852, Note_off_c, 0, 78, 100
2, 233856, Note_on_c, 0, 79, 99
2, 233948, Note_off_c, 0, 86, 100
2, 233952, Note_on_c, 0, 86, 100
2, 234044, Note_off_c, 0, 79, 100
2, 234048, Note_on_c, 0, 77, 100
2, 234140, Note_off_c, 0, 86, 100
2, 234144, Note_on_c, 0, 86, 100
2, 234236, Note_off_c, 0, 77, 100
2, 234240, Note_on_c, 0, 76, 100
2, 234332, Note_off_c, 0, 86, 100
2, 234336, Note_on_c, 0, 86, 100
2, 234428, Note_off_c, 0, 76, 100
2, 234432, Note_on_c, 0, 77, 100
2, 234524, Note_off_c, 0, 86, 100
2, 234528, Note_on_c, 0, 86, 100
2, 234620, Note_off_c, 0, 77, 100
2, 234624, Note_on_c, 0, 73, 100
2, 234716, Note_off_c, 0, 86, 100
2, 234720, Note_on_c, 0, 85, 100
2, 234812, Note_off_c, 0, 73, 100
2, 234816, Note_on_c, 0, 74, 100
2, 234908, Note_off_c, 0, 85, 100
2, 234912, Note_on_c, 0, 86, 100
2, 235004, Note_off_c, 0, 74, 100
2, 235008, Note_on_c, 0, 76, 100
2, 235100, Note_off_c, 0, 86, 100
2, 235104, Note_on_c, 0, 88, 100
2, 235196, Note_off_c, 0, 76, 100
2, 235200, Note_on_c, 0, 71, 100
2, 235292, Note_off_c, 0, 88, 100
2, 235296, Note_on_c, 0, 83, 100
2, 235388, Note_off_c, 0, 71, 100
2, 235392, Note_on_c, 0, 73, 100
2, 235484, Note_off_c, 0, 83, 100
2, 235488, Note_on_c, 0, 85, 100
2, 235580, Note_off_c, 0, 73, 100
2, 235584, Note_on_c, 0, 74, 120
2, 235676, Note_off_c, 0, 85, 100
2, 235680, Note_on_c, 0, 86, 100
2, 235772, Note_off_c, 0, 74, 100
2, 235776, Note_on_c, 0, 73, 100
2, 235868, Note_off_c, 0, 86, 100
2, 235872, Note_on_c, 0, 74, 100
2, 235964, Note_off_c, 0, 73, 100
2, 235968, Note_on_c, 0, 74, 100
2, 236060, Note_off_c, 0, 74, 100
2, 236064, Note_on_c, 0, 86, 100
2, 236156, Note_off_c, 0, 74, 100
2, 236160, Note_on_c, 0, 73, 120
2, 236252, Note_off_c, 0, 86, 100
2, 236256, Note_on_c, 0, 74, 100
2, 236348, Note_off_c, 0, 73, 100
2, 236352, Note_on_c, 0, 74, 100
2, 236444, Note_off_c, 0, 74, 100
2, 236448, Note_on_c, 0, 86, 100
2, 236540, Note_off_c, 0, 74, 100
2, 236544, Note_on_c, 0, 73, 100
2, 236636, Note_off_c, 0, 86, 100
2, 236640, Note_on_c, 0, 74, 100
2, 236732, Note_off_c, 0, 73, 100
2, 236736, Note_on_c, 0, 74, 120
2, 236828, Note_off_c, 0, 74, 100
2, 236832, Note_on_c, 0, 86, 100
2, 236924, Note_off_c, 0, 74, 100
2, 236928, Note_on_c, 0, 73, 100
2, 237020, Note_off_c, 0, 86, 100
2, 237024, Note_on_c, 0, 74, 100
2, 237116, Note_off_c, 0, 73, 100
2, 237120, Note_on_c, 0, 74, 100
2, 237212, Note_off_c, 0, 74, 100
2, 237216, Note_on_c, 0, 86, 100
2, 237308, Note_off_c, 0, 74, 100
2, 237312, Note_on_c, 0, 73, 120
2, 237404, Note_off_c, 0, 86, 100
2, 237408, Note_on_c, 0, 74, 100
2, 237500, Note_off_c, 0, 73, 100
2, 237504, Note_on_c, 0, 74, 100
2, 237596, Note_off_c, 0, 74, 100
2, 237600, Note_on_c, 0, 86, 100
2, 237692, Note_off_c, 0, 74, 100
2, 237696, Note_on_c, 0, 73, 100
2, 237788, Note_off_c, 0, 86, 100
2, 237792, Note_on_c, 0, 74, 100
2, 237884, Note_off_c, 0, 73, 100
2, 237888, Note_on_c, 0, 75, 90
2, 237980, Note_off_c, 0, 74, 100
2, 237984, Note_on_c, 0, 74, 89
2, 238076, Note_off_c, 0, 75, 100
2, 238080, Note_on_c, 0, 75, 87
2, 238172, Note_off_c, 0, 74, 100
2, 238176, Note_on_c, 0, 74, 86
2, 238268, Note_off_c, 0, 75, 100
2, 238272, Note_on_c, 0, 75, 84
2, 238364, Note_off_c, 0, 74, 100
2, 238368, Note_on_c, 0, 74, 82
2, 238460, Note_off_c, 0, 75, 100
2, 238464, Note_on_c, 0, 75, 80
2, 238556, Note_off_c, 0, 74, 100
2, 238560, Note_on_c, 0, 74, 80
2, 238652, Note_off_c, 0, 75, 100
2, 238656, Note_on_c, 0, 75, 80
2, 238748, Note_off_c, 0, 74, 100
2, 238752, Note_on_c, 0, 74, 80
2, 238844, Note_off_c, 0, 75, 100
2, 238848, Note_on_c, 0, 75, 80
2, 238940, Note_off_c, 0, 74, 100
2, 238944, Note_on_c, 0, 74, 80
2, 239036, Note_off_c, 0, 75, 100
2, 239040, Note_on_c, 0, 75, 80
2, 239132, Note_off_c, 0, 74, 100
2, 239136, Note_on_c, 0, 74, 80
2, 239228, Note_off_c, 0, 75, 100
2, 239232, Note_on_c, 0, 75, 80
2, 239324, Note_off_c, 0, 74, 100
2, 239328, Note_on_c, 0, 74, 80
2, 239420, Note_off_c, 0, 75, 100
2, 239424, Note_on_c, 0, 75, 80
2, 239516, Note_off_c, 0, 74, 100
2, 239520, Note_on_c, 0, 74, 80
2, 239612, Note_off_c, 0, 75, 100
2, 239616, Note_on_c, 0, 75, 80
2, 239708, Note_off_c, 0, 74, 100
2, 239712, Note_on_c, 0, 74, 80
2, 239804, Note_off_c, 0, 75, 100
2, 239808, Note_on_c, 0, 75, 80
2, 239900, Note_off_c, 0, 74, 100
2, 239900, Note_off_c, 0, 75, 100
2, 239904, Note_on_c, 0, 75, 80
2, 240000, Note_on_c, 0, 81, 80
2, 240092, Note_off_c, 0, 75, 100
2, 240096, Note_on_c, 0, 82, 80
2, 240188, Note_off_c, 0, 81, 100
2, 240192, Note_on_c, 0, 84, 80
2, 240284, Note_off_c, 0, 82, 100
2, 240380, Note_off_c, 0, 84, 100
2, 240480, Note_on_c, 0, 75, 80
2, 240576, Note_on_c, 0, 81, 80
2, 240668, Note_off_c, 0, 75, 100
2, 240672, Note_on_c, 0, 82, 80
2, 240764, Note_off_c, 0, 81, 100
2, 240768, Note_on_c, 0, 84, 80
2, 240860, Note_off_c, 0, 82, 100
2, 240956, Note_off_c, 0, 84, 100
2, 241056, Note_on_c, 0, 75, 80
2, 241152, Note_on_c, 0, 81, 80
2, 241244, Note_off_c, 0, 75, 100
2, 241248, Note_on_c, 0, 82, 80
2, 241340, Note_off_c, 0, 81, 100
2, 241344, Note_on_c, 0, 84, 80
2, 241436, Note_off_c, 0, 82, 100
2, 241532, Note_off_c, 0, 84, 100
2, 241632, Note_on_c, 0, 75, 80
2, 241728, Note_on_c, 0, 81, 80
2, 241820, Note_off_c, 0, 75, 100
2, 241824, Note_on_c, 0, 82, 80
2, 241916, Note_off_c, 0, 81, 100
2, 241920, Note_on_c, 0, 84, 80
2, 242012, Note_off_c, 0, 82, 100
2, 242108, Note_off_c, 0, 84, 100
2, 242208, Note_on_c, 0, 75, 80
2, 242304, Note_on_c, 0, 84, 80
2, 242396, Note_off_c, 0, 75, 100
2, 242400, Note_on_c, 0, 81, 80
2, 242492, Note_off_c, 0, 84, 100
2, 242496, Note_on_c, 0, 82, 80
2, 242588, Note_off_c, 0, 81, 100
2, 242684, Note_off_c, 0, 82, 100
2, 242784, Note_on_c, 0, 67, 82
2, 242880, Note_on_c, 0, 70, 83
2, 242972, Note_off_c, 0, 67, 100
2, 242976, Note_on_c, 0, 74, 84
2, 243068, Note_off_c, 0, 70, 100
2, 243164, Note_off_c, 0, 74, 100
2, 243360, Note_on_c, 0, 67, 87
2, 243456, Note_on_c, 0, 70, 88
2, 243548, Note_off_c, 0, 67, 100
2, 243552, Note_on_c, 0, 73, 89
2, 243644, Note_off_c, 0, 70, 100
2, 243740, Note_off_c, 0, 73, 100
2, 243936, Note_on_c, 0, 67, 92
2, 244032, Note_on_c, 0, 70, 93
2, 244124, Note_off_c, 0, 67, 100
2, 244128, Note_on_c, 0, 74, 94
2, 244220, Note_off_c, 0, 70, 100
2, 244316, Note_off_c, 0, 74, 100
2, 244512, Note_on_c, 0, 67, 97
2, 244608, Note_on_c, 0, 70, 98
2, 244700, Note_off_c, 0, 67, 100
2, 244704, Note_on_c, 0, 76, 99
2, 244796, Note_off_c, 0, 70, 100
2, 244892, Note_off_c, 0, 76, 100
2, 245088, Note_on_c, 0, 77, 80
2, 245184, Note_on_c, 0, 83, 80
2, 245276, Note_off_c, 0, 77, 100
2, 245280, Note_on_c, 0, 85, 80
2, 245372, Note_off_c, 0, 83, 100
2, 245376, Note_on_c, 0, 86, 80
2, 245468, Note_off_c, 0, 85, 100
2, 245564, Note_off_c, 0, 86, 100
2, 245664, Note_on_c, 0, 77, 80
2, 245760, Note_on_c, 0, 83, 80
2, 245852, Note_off_c, 0, 77, 100
2, 245856, Note_on_c, 0, 85, 80
2, 245948, Note_off_c, 0, 83, 100
2, 245952, Note_on_c, 0, 86, 80
2, 246044, Note_off_c, 0, 85, 100
2, 246140, Note_off_c, 0, 86, 100
2, 246240, Note_on_c, 0, 77, 80
2, 246336, Note_on_c, 0, 83, 80
2, 246428, Note_off_c, 0, 77, 100
2, 246432, Note_on_c, 0, 85, 80
2, 246524, Note_off_c, 0, 83, 100
2, 246528, Note_on_c, 0, 86, 80
2, 246620, Note_off_c, 0, 85, 100
2, 246716, Note_off_c, 0, 86, 100
2, 246816, Note_on_c, 0, 77, 80
2, 246912, Note_on_c, 0, 86, 80
2, 247004, Note_off_c, 0, 77, 100
2, 247008, Note_on_c, 0, 83, 80
2, 247100, Note_off_c, 0, 86, 100
2, 247104, Note_on_c, 0, 85, 80
2, 247196, Note_off_c, 0, 83, 100
2, 247292, Note_off_c, 0, 85, 100
2, 247392, Note_on_c, 0, 69, 82
2, 247488, Note_on_c, 0, 73, 83
2, 247580, Note_off_c, 0, 69, 100
2, 247584, Note_on_c, 0, 76, 84
2, 247676, Note_off_c, 0, 73, 100
2, 247772, Note_off_c, 0, 76, 100
2, 247968, Note_on_c, 0, 69, 87
2, 248064, Note_on_c, 0, 73, 88
2, 248156, Note_off_c, 0, 69, 100
2, 248160, Note_on_c, 0, 75, 89
2, 248252, Note_off_c, 0, 73, 100
2, 248348, Note_off_c, 0, 75, 100
2, 248544, Note_on_c, 0, 69, 92
2, 248640, Note_on_c, 0, 73, 93
2, 248732, Note_off_c, 0, 69, 100
2, 248736, Note_on_c, 0, 76, 94
2, 248828, Note_off_c, 0, 73, 100
2, 248924, Note_off_c, 0, 76, 100
2, 249120, Note_on_c, 0, 69, 97
2, 249216, Note_on_c, 0, 73, 98
2, 249308, Note_off_c, 0, 69, 100
2, 249312, Note_on_c, 0, 78, 99
2, 249404, Note_off_c, 0, 73, 100
2, 249500, Note_off_c, 0, 78, 100
2, 249696, Note_on_c, 0, 69, 98
2, 249792, Note_on_c, 0, 73, 97
2, 249884, Note_off_c, 0, 69, 100
2, 249888, Note_on_c, 0, 79, 96
2, 249980, Note_off_c, 0, 73, 100
2, 250076, Note_off_c, 0, 79, 100
2, 250272, Note_on_c, 0, 69, 93
2, 250368, Note_on_c, 0, 73, 92
2, 250460, Note_off_c, 0, 69, 100
2, 250464, Note_on_c, 0, 78, 91
2, 250556, Note_off_c, 0, 73, 100
2, 250652, Note_off_c, 0, 78, 100
2, 250848, Note_on_c, 0, 69, 88
2, 250944, Note_on_c, 0, 73, 87
2, 251036, Note_off_c, 0, 69, 100
2, 251040, Note_on_c, 0, 79, 86
2, 251132, Note_off_c, 0, 73, 100
2, 251228, Note_off_c, 0, 79, 100
2, 251424, Note_on_c, 0, 69, 83
2, 251520, Note_on_c, 0, 73, 82
2, 251612, Note_off_c, 0, 69, 100
2, 251616, Note_on_c, 0, 77, 81
2, 251708, Note_off_c, 0, 73, 100
2, 251804, Note_off_c, 0, 77, 100
2, 252000, Note_on_c, 0, 69, 80
2, 252096, Note_on_c, 0, 73, 80
2, 252188, Note_off_c, 0, 69, 100
2, 252192, Note_on_c, 0, 76, 81
2, 252284, Note_off_c, 0, 73, 100
2, 252380, Note_off_c, 0, 76, 100
2, 252576, Note_on_c, 0, 69, 85
2, 252672, Note_on_c, 0, 73, 86
2, 252764, Note_off_c, 0, 69, 100
2, 252768, Note_on_c, 0, 75, 87
2, 252860, Note_off_c, 0, 73, 100
2, 252956, Note_off_c, 0, 75, 100
2, 253152, Note_on_c, 0, 69, 91
2, 253248, Note_on_c, 0, 73, 92
2, 253340, Note_off_c, 0, 69, 100
2, 253344, Note_on_c, 0, 76, 93
2, 253436, Note_off_c, 0, 73, 100
2, 253532, Note_off_c, 0, 76, 100
2, 253728, Note_on_c, 0, 69, 97
2, 253824, Note_on_c, 0, 73, 98
2, 253916, Note_off_c, 0, 69, 100
2, 253920, Note_on_c, 0, 78, 99
2, 254012, Note_off_c, 0, 73, 100
2, 254108, Note_off_c, 0, 78, 100
2, 254304, Note_on_c, 0, 69, 96
2, 254400, Note_on_c, 0, 73, 94
2, 254492, Note_off_c, 0, 69, 100
2, 254496, Note_on_c, 0, 79, 92
2, 254588, Note_off_c, 0, 73, 100
2, 254684, Note_off_c, 0, 79, 100
2, 254880, Note_on_c, 0, 69, 86
2, 254976, Note_on_c, 0, 73, 84
2, 255068, Note_off_c, 0, 69, 100
2, 255072, Note_on_c, 0, 79, 82
2, 255164, Note_off_c, 0, 73, 100
2, 255260, Note_off_c, 0, 79, 100
2, 255456, Note_on_c, 0, 69, 76
2, 255552, Note_on_c, 0, 73, 74
2, 255644, Note_off_c, 0, 69, 100
2, 255648, Note_on_c, 0, 79, 72
2, 255740, Note_off_c, 0, 73, 100
2, 255836, Note_off_c, 0, 79, 100
2, 256032, Note_on_c, 0, 69, 120
2, 256128, Note_on_c, 0, 81, 127
2, 256128, Note_on_c, 0, 77, 120
2, 256220, Note_off_c, 0, 69, 100
2, 256224, Note_on_c, 0, 76, 120
2, 256316, Note_off_c, 0, 77, 100
2, 256320, Note_on_c, 0, 74, 120
2, 256412, Note_off_c, 0, 76, 100
2, 256508, Note_off_c, 0, 81, 100
2, 256508, Note_off_c, 0, 74, 100
2, 256608, Note_on_c, 0, 69, 120
2, 256704, Note_on_c, 0, 81, 127
2, 256704, Note_on_c, 0, 77, 120
2, 256796, Note_off_c, 0, 69, 100
2, 256800, Note_on_c, 0, 76, 120
2, 256892, Note_off_c, 0, 77, 100
2, 256896, Note_on_c, 0, 74, 120
2, 256988, Note_off_c, 0, 76, 100
2, 257084, Note_off_c, 0, 81, 100
2, 257084, Note_off_c, 0, 74, 100
2, 257184, Note_on_c, 0, 69, 120
2, 257280, Note_on_c, 0, 81, 127
2, 257280, Note_on_c, 0, 77, 120
2, 257372, Note_off_c, 0, 69, 100
2, 257376, Note_on_c, 0, 76, 120
2, 257468, Note_off_c, 0, 77, 100
2, 257472, Note_on_c, 0, 74, 120
2, 257564, Note_off_c, 0, 76, 100
2, 257660, Note_off_c, 0, 81, 100
2, 257660, Note_off_c, 0, 74, 100
2, 257760, Note_on_c, 0, 69, 120
2, 257856, Note_on_c, 0, 81, 127
2, 257856, Note_on_c, 0, 77, 120
2, 257948, Note_off_c, 0, 69, 100
2, 257952, Note_on_c, 0, 74, 120
2, 258044, Note_off_c, 0, 77, 100
2, 258048, Note_on_c, 0, 76, 120
2, 258140, Note_off_c, 0, 74, 100
2, 258236, Note_off_c, 0, 81, 100
2, 258236, Note_off_c, 0, 76, 100
2, 258336, Note_on_c, 0, 69, 120
2, 258432, Note_on_c, 0, 81, 127
2, 258432, Note_on_c, 0, 79, 120
2, 258524, Note_off_c, 0, 69, 100
2, 258528, Note_on_c, 0, 77, 120
2, 258620, Note_off_c, 0, 79, 100
2, 258624, Note_on_c, 0, 76, 120
2, 258716, Note_off_c, 0, 77, 100
2, 258812, Note_off_c, 0, 81, 100
2, 258812, Note_off_c, 0, 76, 100
2, 258912, Note_on_c, 0, 69, 120
2, 259008, Note_on_c, 0, 81, 127
2, 259008, Note_on_c, 0, 79, 120
2, 259100, Note_off_c, 0, 69, 100
2, 259104, Note_on_c, 0, 77, 120
2, 259196, Note_off_c, 0, 79, 100
2, 259200, Note_on_c, 0, 76, 120
2, 259292, Note_off_c, 0, 77, 100
2, 259388, Note_off_c, 0, 81, 100
2, 259388, Note_off_c, 0, 76, 100
2, 259488, Note_on_c, 0, 69, 120
2, 259584, Note_on_c, 0, 81, 127
2, 259584, Note_on_c, 0, 79, 120
2, 259676, Note_off_c, 0, 69, 100
2, 259680, Note_on_c, 0, 77, 120
2, 259772, Note_off_c, 0, 79, 100
2, 259776, Note_on_c, 0, 76, 120
2, 259868, Note_off_c, 0, 77, 100
2, 259964, Note_off_c, 0, 81, 100
2, 259964, Note_off_c, 0, 76, 100
2, 260064, Note_on_c, 0, 69, 120
2, 260160, Note_on_c, 0, 81, 127
2, 260160, Note_on_c, 0, 79, 120
2, 260252, Note_off_c, 0, 69, 100
2, 260256, Note_on_c, 0, 76, 120
2, 260348, Note_off_c, 0, 79, 100
2, 260352, Note_on_c, 0, 77, 110
2, 260444, Note_off_c, 0, 76, 100
2, 260540, Note_off_c, 0, 81, 100
2, 260540, Note_off_c, 0, 77, 100
2, 260640, Note_on_c, 0, 74, 88
2, 260736, Note_on_c, 0, 81, 88
2, 260828, Note_off_c, 0, 74, 100
2, 260832, Note_on_c, 0, 86, 88
2, 260924, Note_off_c, 0, 81, 100
2, 260928, Note_on_c, 0, 82, 86
2, 261020, Note_off_c, 0, 86, 100
2, 261116, Note_off_c, 0, 82, 100
2, 261216, Note_on_c, 0, 70, 89
2, 261312, Note_on_c, 0, 74, 91
2, 261404, Note_off_c, 0, 70, 100
2, 261408, Note_on_c, 0, 82, 92
2, 261500, Note_off_c, 0, 74, 100
2, 261504, Note_on_c, 0, 79, 93
2, 261596, Note_off_c, 0, 82, 100
2, 261692, Note_off_c, 0, 79, 100
2, 261792, Note_on_c, 0, 67, 96
2, 261888, Note_on_c, 0, 70, 97
2, 261980, Note_off_c, 0, 67, 100
2, 261984, Note_on_c, 0, 79, 98
2, 262076, Note_off_c, 0, 70, 100
2, 262080, Note_on_c, 0, 76, 100
2, 262172, Note_off_c, 0, 79, 100
2, 262268, Note_off_c, 0, 76, 100
2, 262368, Note_on_c, 0, 64, 96
2, 262464, Note_on_c, 0, 69, 94
2, 262556, Note_off_c, 0, 64, 100
2, 262560, Note_on_c, 0, 76, 92
2, 262652, Note_off_c, 0, 69, 100
2, 262656, Note_on_c, 0, 77, 91
2, 262748, Note_off_c, 0, 76, 100
2, 262844, Note_off_c, 0, 77, 100
2, 262944, Note_on_c, 0, 65, 86
2, 263040, Note_on_c, 0, 69, 84
2, 263132, Note_off_c, 0, 65, 100
2, 263136, Note_on_c, 0, 77, 82
2, 263228, Note_off_c, 0, 69, 100
2, 263232, Note_on_c, 0, 74, 80
2, 263324, Note_off_c, 0, 77, 100
2, 263420, Note_off_c, 0, 74, 100
2, 263520, Note_on_c, 0, 62, 87
2, 263616, Note_on_c, 0, 69, 89
2, 263708, Note_off_c, 0, 62, 100
2, 263712, Note_on_c, 0, 74, 92
2, 263804, Note_off_c, 0, 69, 100
2, 263808, Note_on_c, 0, 73, 94
2, 263900, Note_off_c, 0, 74, 100
2, 263996, Note_off_c, 0, 73, 100
2, 264096, Note_on_c, 0, 61, 102
2, 264192, Note_on_c, 0, 69, 104
2, 264284, Note_off_c, 0, 61, 100
2, 264288, Note_on_c, 0, 73, 107
2, 264380, Note_off_c, 0, 69, 100
2, 264384, Note_on_c, 0, 74, 110
2, 264476, Note_off_c, 0, 73, 100
2, 264572, Note_off_c, 0, 74, 100
2, 264768, Note_on_c, 0, 65, 110
2, 264864, Note_on_c, 0, 69, 110
2, 264956, Note_off_c, 0, 65, 100
2, 264960, Note_on_c, 0, 74, 110
2, 265052, Note_off_c, 0, 69, 100
2, 265056, Note_on_c, 0, 77, 110
2, 265148, Note_off_c, 0, 74, 100
2, 265152, Note_on_c, 0, 81, 110
2, 265244, Note_off_c, 0, 77, 100
2, 265248, Note_on_c, 0, 77, 110
2, 265340, Note_off_c, 0, 81, 100
2, 265344, Note_on_c, 0, 86, 110
2, 265436, Note_off_c, 0, 77, 100
2, 265440, Note_on_c, 0, 81, 110
2, 265532, Note_off_c, 0, 86, 100
2, 265536, Note_on_c, 0, 82, 86
2, 265628, Note_off_c, 0, 81, 100
2, 265724, Note_off_c, 0, 82, 100
2, 265824, Note_on_c, 0, 70, 89
2, 265920, Note_on_c, 0, 74, 91
2, 266012, Note_off_c, 0, 70, 100
2, 266016, Note_on_c, 0, 82, 92
2, 266108, Note_off_c, 0, 74, 100
2, 266112, Note_on_c, 0, 79, 93
2, 266204, Note_off_c, 0, 82, 100
2, 266300, Note_off_c, 0, 79, 100
2, 266400, Note_on_c, 0, 67, 96
2, 266496, Note_on_c, 0, 70, 97
2, 266588, Note_off_c, 0, 67, 100
2, 266592, Note_on_c, 0, 79, 98
2, 266684, Note_off_c, 0, 70, 100
2, 266688, Note_on_c, 0, 76, 100
2, 266780, Note_off_c, 0, 79, 100
2, 266876, Note_off_c, 0, 76, 100
2, 266976, Note_on_c, 0, 64, 96
2, 267072, Note_on_c, 0, 69, 94
2, 267164, Note_off_c, 0, 64, 100
2, 267168, Note_on_c, 0, 76, 92
2, 267260, Note_off_c, 0, 69, 100
2, 267264, Note_on_c, 0, 77, 91
2, 267356, Note_off_c, 0, 76, 100
2, 267452, Note_off_c, 0, 77, 100
2, 267552, Note_on_c, 0, 65, 86
2, 267648, Note_on_c, 0, 69, 84
2, 267740, Note_off_c, 0, 65, 100
2, 267744, Note_on_c, 0, 77, 82
2, 267836, Note_off_c, 0, 69, 100
2, 267840, Note_on_c, 0, 74, 80
2, 267932, Note_off_c, 0, 77, 100
2, 268028, Note_off_c, 0, 74, 100
2, 268128, Note_on_c, 0, 62, 87
2, 268224, Note_on_c, 0, 69, 89
2, 268316, Note_off_c, 0, 62, 100
2, 268320, Note_on_c, 0, 74, 92
2, 268412, Note_off_c, 0, 69, 100
2, 268416, Note_on_c, 0, 73, 94
2, 268508, Note_off_c, 0, 74, 100
2, 268604, Note_off_c, 0, 73, 100
2, 268704, Note_on_c, 0, 61, 102
2, 268800, Note_on_c, 0, 69, 104
2, 268892, Note_off_c, 0, 61, 100
2, 268896, Note_on_c, 0, 73, 107
2, 268988, Note_off_c, 0, 69, 100
2, 268992, Note_on_c, 0, 74, 110
2, 269084, Note_off_c, 0, 73, 100
2, 269136, Note_on_c, 0, 69, 108
2, 269180, Note_off_c, 0, 74, 100
2, 269184, Note_on_c, 0, 81, 107
2, 269228, Note_off_c, 0, 69, 100
2, 269564, Note_off_c, 0, 81, 100
2, 269568, Note_on_c, 0, 80, 101
2, 269664, Note_on_c, 0, 79, 99
2, 269708, Note_off_c, 0, 80, 100
2, 269760, Note_on_c, 0, 78, 97
2, 269804, Note_off_c, 0, 79, 100
2, 269856, Note_on_c, 0, 77, 96
2, 269900, Note_off_c, 0, 78, 100
2, 269952, Note_on_c, 0, 76, 94
2, 269996, Note_off_c, 0, 77, 100
2, 270048, Note_on_c, 0, 75, 92
2, 270092, Note_off_c, 0, 76, 100
2, 270144, Note_on_c, 0, 74, 80
2, 270188, Note_off_c, 0, 75, 100
2, 270332, Note_off_c, 0, 74, 100
2, 270432, Note_on_c, 0, 62, 87
2, 270528, Note_on_c, 0, 69, 89
2, 270620, Note_off_c, 0, 62, 100
2, 270624, Note_on_c, 0, 74, 92
2, 270716, Note_off_c, 0, 69, 100
2, 270720, Note_on_c, 0, 73, 94
2, 270812, Note_off_c, 0, 74, 100
2, 270908, Note_off_c, 0, 73, 100
2, 271008, Note_on_c, 0, 61, 102
2, 271104, Note_on_c, 0, 69, 104
2, 271196, Note_off_c, 0, 61, 100
2, 271200, Note_on_c, 0, 73, 107
2, 271292, Note_off_c, 0, 69, 100
2, 271296, Note_on_c, 0, 74, 110
2, 271388, Note_off_c, 0, 73, 100
2, 271440, Note_on_c, 0, 74, 110
2, 271484, Note_off_c, 0, 74, 100
2, 271488, Note_on_c, 0, 86, 110
2, 271532, Note_off_c, 0, 74, 100
2, 271868, Note_off_c, 0, 86, 100
2, 271872, Note_on_c, 0, 85, 110
2, 271968, Note_on_c, 0, 84, 107
2, 272012, Note_off_c, 0, 85, 100
2, 272064, Note_on_c, 0, 83, 104
2, 272108, Note_off_c, 0, 84, 100
2, 272160, Note_on_c, 0, 82, 101
2, 272204, Note_off_c, 0, 83, 100
2, 272256, Note_on_c, 0, 81, 97
2, 272300, Note_off_c, 0, 82, 100
2, 272352, Note_on_c, 0, 80, 94
2, 272396, Note_off_c, 0, 81, 100
2, 272448, Note_on_c, 0, 81, 80
2, 272492, Note_off_c, 0, 80, 100
2, 272636, Note_off_c, 0, 81, 100
2, 272736, Note_on_c, 0, 62, 87
2, 272832, Note_on_c, 0, 69, 90
2, 272924, Note_off_c, 0, 62, 100
2, 272928, Note_on_c, 0, 74, 94
2, 273020, Note_off_c, 0, 69, 100
2, 273024, Note_on_c, 0, 73, 98
2, 273116, Note_off_c, 0, 74, 100
2, 273212, Note_off_c, 0, 73, 100
2, 273312, Note_on_c, 0, 61, 109
2, 273408, Note_on_c, 0, 69, 112
2, 273500, Note_off_c, 0, 61, 100
2, 273504, Note_on_c, 0, 73, 116
2, 273596, Note_off_c, 0, 69, 100
2, 273600, Note_on_c, 0, 74, 119
2, 273692, Note_off_c, 0, 73, 100
2, 273740, Note_off_c, 0, 74, 100
2, 273744, Note_on_c, 0, 74, 120
2, 273792, Note_on_c, 0, 89, 120
2, 273836, Note_off_c, 0, 74, 100
2, 274272, Note_on_c, 0, 88, 120
2, 274364, Note_off_c, 0, 89, 100
2, 274368, Note_on_c, 0, 87, 120
2, 274460, Note_off_c, 0, 88, 100
2, 274464, Note_on_c, 0, 86, 120
2, 274556, Note_off_c, 0, 87, 100
2, 274560, Note_on_c, 0, 85, 120
2, 274652, Note_off_c, 0, 86, 100
2, 274656, Note_on_c, 0, 84, 120
2, 274748, Note_off_c, 0, 85, 100
2, 274752, Note_on_c, 0, 83, 120
2, 274816, Note_on_c, 0, 82, 120
2, 274844, Note_off_c, 0, 84, 100
2, 274876, Note_off_c, 0, 83, 100
2, 274880, Note_on_c, 0, 81, 120
2, 274940, Note_off_c, 0, 82, 100
2, 274944, Note_on_c, 0, 80, 120
2, 275004, Note_off_c, 0, 81, 100
2, 275008, Note_on_c, 0, 79, 120
2, 275068, Note_off_c, 0, 80, 100
2, 275072, Note_on_c, 0, 78, 120
2, 275132, Note_off_c, 0, 79, 100
2, 275136, Note_on_c, 0, 77, 120
2, 275184, Note_on_c, 0, 76, 120
2, 275196, Note_off_c, 0, 78, 100
2, 275228, Note_off_c, 0, 77, 100
2, 275232, Note_on_c, 0, 75, 120
2, 275276, Note_off_c, 0, 76, 100
2, 275280, Note_on_c, 0, 74, 120
2, 275324, Note_off_c, 0, 75, 100
2, 275328, Note_on_c, 0, 81, 120
2, 275372, Note_off_c, 0, 74, 100
2, 275516, Note_off_c, 0, 81, 100
2, 275712, Note_on_c, 0, 69, 120
2, 275900, Note_off_c, 0, 69, 100
2, 275904, Note_on_c, 0, 74, 80
2, 276092, Note_off_c, 0, 74, 100
2, 276192, Note_on_c, 0, 69, 80
2, 276288, Note_on_c, 0, 77, 80
2, 276380, Note_off_c, 0, 69, 100
2, 276384, Note_on_c, 0, 74, 80
2, 276476, Note_off_c, 0, 77, 100
2, 276480, Note_on_c, 0, 73, 80
2, 276572, Note_off_c, 0, 74, 100
2, 276668, Note_off_c, 0, 73, 100
2, 276768, Note_on_c, 0, 69, 80
2, 276864, Note_on_c, 0, 76, 80
2, 276956, Note_off_c, 0, 69, 100
2, 276960, Note_on_c, 0, 73, 80
2, 277052, Note_off_c, 0, 76, 100
2, 277056, Note_on_c, 0, 74, 80
2, 277148, Note_off_c, 0, 73, 100
2, 277244, Note_off_c, 0, 74, 100
2, 277344, Note_on_c, 0, 81, 80
2, 277440, Note_on_c, 0, 89, 80
2, 277532, Note_off_c, 0, 81, 100
2, 277536, Note_on_c, 0, 86, 80
2, 277628, Note_off_c, 0, 89, 100
2, 277632, Note_on_c, 0, 85, 80
2, 277724, Note_off_c, 0, 86, 100
2, 277820, Note_off_c, 0, 85, 100
2, 277920, Note_on_c, 0, 81, 80
2, 278016, Note_on_c, 0, 88, 80
2, 278108, Note_off_c, 0, 81, 100
2, 278112, Note_on_c, 0, 85, 80
2, 278204, Note_off_c, 0, 88, 100
2, 278208, Note_on_c, 0, 86, 80
2, 278300, Note_off_c, 0, 85, 100
2, 278396, Note_off_c, 0, 86, 100
2, 278496, Note_on_c, 0, 69, 80
2, 278592, Note_on_c, 0, 77, 80
2, 278684, Note_off_c, 0, 69, 100
2, 278688, Note_on_c, 0, 74, 80
2, 278780, Note_off_c, 0, 77, 100
2, 278784, Note_on_c, 0, 73, 80
2, 278876, Note_off_c, 0, 74, 100
2, 278972, Note_off_c, 0, 73, 100
2, 279072, Note_on_c, 0, 69, 80
2, 279168, Note_on_c, 0, 76, 80
2, 279260, Note_off_c, 0, 69, 100
2, 279264, Note_on_c, 0, 73, 80
2, 279356, Note_off_c, 0, 76, 100
2, 279360, Note_on_c, 0, 74, 80
2, 279452, Note_off_c, 0, 73, 100
2, 279548, Note_off_c, 0, 74, 100
2, 279648, Note_on_c, 0, 81, 80
2, 279744, Note_on_c, 0, 89, 80
2, 279836, Note_off_c, 0, 81, 100
2, 279840, Note_on_c, 0, 86, 80
2, 279932, Note_off_c, 0, 89, 100
2, 279936, Note_on_c, 0, 85, 80
2, 280028, Note_off_c, 0, 86, 100
2, 280124, Note_off_c, 0, 85, 100
2, 280224, Note_on_c, 0, 81, 80
2, 280320, Note_on_c, 0, 88, 80
2, 280412, Note_off_c, 0, 81, 100
2, 280416, Note_on_c, 0, 85, 80
2, 280508, Note_off_c, 0, 88, 100
2, 280604, Note_off_c, 0, 85, 100
2, 280800, Note_on_c, 0, 89, 80
2, 280896, Note_on_c, 0, 81, 81
2, 280988, Note_off_c, 0, 89, 100
2, 280992, Note_on_c, 0, 86, 83
2, 281084, Note_off_c, 0, 81, 100
2, 281088, Note_on_c, 0, 77, 85
2, 281180, Note_off_c, 0, 86, 100
2, 281276, Note_off_c, 0, 77, 100
2, 281376, Note_on_c, 0, 86, 90
2, 281472, Note_on_c, 0, 77, 92
2, 281564, Note_off_c, 0, 86, 100
2, 281568, Note_on_c, 0, 81, 94
2, 281660, Note_off_c, 0, 77, 100
2, 281664, Note_on_c, 0, 74, 95
2, 281756, Note_off_c, 0, 81, 100
2, 281852, Note_off_c, 0, 74, 100
2, 281952, Note_on_c, 0, 81, 101
2, 282048, Note_on_c, 0, 74, 102
2, 282140, Note_off_c, 0, 81, 100
2, 282144, Note_on_c, 0, 77, 104
2, 282236, Note_off_c, 0, 74, 100
2, 282240, Note_on_c, 0, 69, 107
2, 282332, Note_off_c, 0, 77, 100
2, 282428, Note_off_c, 0, 69, 100
2, 282528, Note_on_c, 0, 77, 107
2, 282624, Note_on_c, 0, 69, 103
2, 282716, Note_off_c, 0, 77, 100
2, 282720, Note_on_c, 0, 74, 100
2, 282812, Note_off_c, 0, 69, 100
2, 282816, Note_on_c, 0, 65, 80
2, 282908, Note_off_c, 0, 74, 100
2, 282912, Note_on_c, 0, 74, 80
2, 283004, Note_off_c, 0, 65, 100
2, 283008, Note_on_c, 0, 69, 79
2, 283100, Note_off_c, 0, 74, 100
2, 283104, Note_on_c, 0, 65, 78
2, 283196, Note_off_c, 0, 69, 100
2, 283200, Note_on_c, 0, 62, 77
2, 283292, Note_off_c, 0, 65, 100
2, 283296, Note_on_c, 0, 57, 76
2, 283388, Note_off_c, 0, 62, 100
2, 283392, Note_on_c, 0, 53, 76
2, 283484, Note_off_c, 0, 57, 100
2, 283488, Note_on_c, 0, 62, 75
2, 283580, Note_off_c, 0, 53, 100
2, 283584, Note_on_c, 0, 57, 74
2, 283676, Note_off_c, 0, 62, 100
2, 283680, Note_on_c, 0, 53, 73
2, 283772, Note_off_c, 0, 57, 100
2, 283776, Note_on_c, 0, 50, 72
2, 283868, Note_off_c, 0, 53, 100
2, 283964, Note_off_c, 0, 50, 100
2, 284736, Control_c, 0, 7, 0
2, 284928, Note_on_c, 0, 62, 1
2, 285116, Note_off_c, 0, 62, 100
2, 285116, End_track
3, 0, Start_track
3, 0, Title_t, "Left"
3, 0, Control_c, 1, 0, 0
3, 0, Program_c, 1, 0
3, 0, Control_c, 1, 7, 100
3, 0, Control_c, 1, 10, 59
3, 0, Control_c, 1, 91, 127
3, 0, Key_signature, -1, "major"
3, 576, Note_on_c, 1, 50, 80
3, 672, Note_on_c, 1, 57, 80
3, 764, Note_off_c, 1, 50, 100
3, 768, Note_on_c, 1, 62, 80
3, 864, Note_on_c, 1, 65, 80
3, 956, Note_off_c, 1, 62, 100
3, 1052, Note_off_c, 1, 65, 100
3, 1148, Note_off_c, 1, 57, 100
3, 1152, Note_on_c, 1, 50, 80
3, 1248, Note_on_c, 1, 57, 80
3, 1340, Note_off_c, 1, 50, 100
3, 1344, Note_on_c, 1, 62, 80
3, 1440, Note_on_c, 1, 65, 80
3, 1532, Note_off_c, 1, 62, 100
3, 1628, Note_off_c, 1, 65, 100
3, 1724, Note_off_c, 1, 57, 100
3, 1728, Note_on_c, 1, 50, 80
3, 1824, Note_on_c, 1, 57, 80
3, 1916, Note_off_c, 1, 50, 100
3, 1920, Note_on_c, 1, 62, 80
3, 2016, Note_on_c, 1, 65, 80
3, 2108, Note_off_c, 1, 62, 100
3, 2204, Note_off_c, 1, 65, 100
3, 2300, Note_off_c, 1, 57, 100
3, 2304, Note_on_c, 1, 45, 80
3, 2400, Note_on_c, 1, 57, 80
3, 2492, Note_off_c, 1, 45, 100
3, 2496, Note_on_c, 1, 61, 80
3, 2592, Note_on_c, 1, 64, 80
3, 2684, Note_off_c, 1, 61, 100
3, 2780, Note_off_c, 1, 64, 100
3, 2876, Note_off_c, 1, 57, 100
3, 2880, Note_on_c, 1, 45, 80
3, 2976, Note_on_c, 1, 57, 80
3, 3068, Note_off_c, 1, 45, 100
3, 3072, Note_on_c, 1, 61, 80
3, 3168, Note_on_c, 1, 64, 80
3, 3260, Note_off_c, 1, 61, 100
3, 3356, Note_off_c, 1, 64, 100
3, 3452, Note_off_c, 1, 57, 100
3, 3456, Note_on_c, 1, 45, 80
3, 3552, Note_on_c, 1, 57, 80
3, 3644, Note_off_c, 1, 45, 100
3, 3648, Note_on_c, 1, 61, 80
3, 3744, Note_on_c, 1, 64, 80
3, 3836, Note_off_c, 1, 61, 100
3, 3932, Note_off_c, 1, 64, 100
3, 4028, Note_off_c, 1, 57, 100
3, 4032, Note_on_c, 1, 45, 80
3, 4128, Note_on_c, 1, 57, 80
3, 4220, Note_off_c, 1, 45, 100
3, 4224, Note_on_c, 1, 61, 80
3, 4320, Note_on_c, 1, 64, 80
3, 4412, Note_off_c, 1, 61, 100
3, 4508, Note_off_c, 1, 64, 100
3, 4604, Note_off_c, 1, 57, 100
3, 4608, Note_on_c, 1, 50, 80
3, 4704, Note_on_c, 1, 57, 81
3, 4796, Note_off_c, 1, 50, 100
3, 4800, Note_on_c, 1, 62, 82
3, 4896, Note_on_c, 1, 65, 83
3, 4988, Note_off_c, 1, 62, 100
3, 5084, Note_off_c, 1, 65, 100
3, 5180, Note_off_c, 1, 57, 100
3, 5184, Note_on_c, 1, 55, 86
3, 5280, Note_on_c, 1, 62, 87
3, 5376, Note_on_c, 1, 67, 88
3, 5756, Note_off_c, 1, 55, 100
3, 5756, Note_off_c, 1, 62, 100
3, 5756, Note_off_c, 1, 67, 100
3, 5760, Note_on_c, 1, 51, 93
3, 5856, Note_on_c, 1, 58, 94
3, 5952, Note_on_c, 1, 63, 95
3, 6332, Note_off_c, 1, 51, 100
3, 6332, Note_off_c, 1, 58, 100
3, 6332, Note_off_c, 1, 63, 100
3, 6336, Note_on_c, 1, 49, 100
3, 6432, Note_on_c, 1, 57, 99
3, 6528, Note_on_c, 1, 61, 97
3, 6908, Note_off_c, 1, 49, 100
3, 6908, Note_off_c, 1, 57, 100
3, 6908, Note_off_c, 1, 61, 100
3, 6912, Note_on_c, 1, 50, 91
3, 7008, Note_on_c, 1, 57, 89
3, 7104, Note_on_c, 1, 62, 87
3, 7484, Note_off_c, 1, 50, 100
3, 7484, Note_off_c, 1, 57, 100
3, 7484, Note_off_c, 1, 62, 100
3, 7488, Note_on_c, 1, 45, 80
3, 7584, Note_on_c, 1, 53, 82
3, 7680, Note_on_c, 1, 57, 84
3, 8060, Note_off_c, 1, 45, 100
3, 8060, Note_off_c, 1, 53, 100
3, 8060, Note_off_c, 1, 57, 100
3, 8064, Note_on_c, 1, 45, 94
3, 8160, Note_on_c, 1, 52, 97
3, 8256, Note_on_c, 1, 55, 99
3, 8352, Note_on_c, 1, 57, 102
3, 8636, Note_off_c, 1, 45, 100
3, 8636, Note_off_c, 1, 52, 100
3, 8636, Note_off_c, 1, 55, 100
3, 8636, Note_off_c, 1, 57, 100
3, 8640, Note_on_c, 1, 38, 110
3, 8736, Note_on_c, 1, 50, 110
3, 8828, Note_off_c, 1, 38, 100
3, 8832, Note_on_c, 1, 53, 110
3, 8924, Note_off_c, 1, 50, 100
3, 8928, Note_on_c, 1, 57, 110
3, 9020, Note_off_c, 1, 53, 100
3, 9024, Note_on_c, 1, 62, 110
3, 9116, Note_off_c, 1, 57, 100
3, 9212, Note_off_c, 1, 62, 100
3, 9792, Note_on_c, 1, 55, 86
3, 9888, Note_on_c, 1, 62, 87
3, 9984, Note_on_c, 1, 67, 88
3, 10364, Note_off_c, 1, 55, 100
3, 10364, Note_off_c, 1, 62, 100
3, 10364, Note_off_c, 1, 67, 100
3, 10368, Note_on_c, 1, 51, 93
3, 10464, Note_on_c, 1, 58, 94
3, 10560, Note_on_c, 1, 63, 95
3, 10940, Note_off_c, 1, 51, 100
3, 10940, Note_off_c, 1, 58, 100
3, 10940, Note_off_c, 1, 63, 100
3, 10944, Note_on_c, 1, 49, 100
3, 11040, Note_on_c, 1, 57, 99
3, 11136, Note_on_c, 1, 61, 97
3, 11516, Note_off_c, 1, 49, 100
3, 11516, Note_off_c, 1, 57, 100
3, 11516, Note_off_c, 1, 61, 100
3, 11520, Note_on_c, 1, 50, 91
3, 11616, Note_on_c, 1, 57, 89
3, 11712, Note_on_c, 1, 62, 87
3, 12092, Note_off_c, 1, 50, 100
3, 12092, Note_off_c, 1, 57, 100
3, 12092, Note_off_c, 1, 62, 100
3, 12096, Note_on_c, 1, 45, 80
3, 12192, Note_on_c, 1, 53, 82
3, 12288, Note_on_c, 1, 57, 84
3, 12668, Note_off_c, 1, 45, 100
3, 12668, Note_off_c, 1, 53, 100
3, 12668, Note_off_c, 1, 57, 100
3, 12672, Note_on_c, 1, 45, 94
3, 12768, Note_on_c, 1, 52, 97
3, 12864, Note_on_c, 1, 55, 99
3, 12960, Note_on_c, 1, 57, 102
3, 13244, Note_off_c, 1, 45, 100
3, 13244, Note_off_c, 1, 52, 100
3, 13244, Note_off_c, 1, 55, 100
3, 13244, Note_off_c, 1, 57, 100
3, 13248, Note_on_c, 1, 38, 110
3, 13344, Note_on_c, 1, 53, 109
3, 13436, Note_off_c, 1, 38, 100
3, 13440, Note_on_c, 1, 57, 107
3, 13532, Note_off_c, 1, 53, 100
3, 13536, Note_on_c, 1, 62, 106
3, 13628, Note_off_c, 1, 57, 100
3, 13724, Note_off_c, 1, 62, 100
3, 14400, Note_on_c, 1, 45, 80
3, 14496, Note_on_c, 1, 53, 82
3, 14592, Note_on_c, 1, 57, 84
3, 14972, Note_off_c, 1, 45, 100
3, 14972, Note_off_c, 1, 53, 100
3, 14972, Note_off_c, 1, 57, 100
3, 14976, Note_on_c, 1, 45, 94
3, 15072, Note_on_c, 1, 52, 97
3, 15168, Note_on_c, 1, 55, 99
3, 15264, Note_on_c, 1, 57, 102
3, 15548, Note_off_c, 1, 45, 100
3, 15548, Note_off_c, 1, 52, 100
3, 15548, Note_off_c, 1, 55, 100
3, 15548, Note_off_c, 1, 57, 100
3, 15552, Note_on_c, 1, 38, 110
3, 15648, Note_on_c, 1, 53, 110
3, 15740, Note_off_c, 1, 38, 100
3, 15744, Note_on_c, 1, 57, 110
3, 15836, Note_off_c, 1, 53, 100
3, 15840, Note_on_c, 1, 62, 110
3, 15932, Note_off_c, 1, 57, 100
3, 16028, Note_off_c, 1, 62, 100
3, 16704, Note_on_c, 1, 45, 80
3, 16800, Note_on_c, 1, 53, 83
3, 16896, Note_on_c, 1, 57, 87
3, 17276, Note_off_c, 1, 45, 100
3, 17276, Note_off_c, 1, 53, 100
3, 17276, Note_off_c, 1, 57, 100
3, 17280, Note_on_c, 1, 45, 102
3, 17376, Note_on_c, 1, 52, 106
3, 17468, Note_off_c, 1, 45, 100
3, 17472, Note_on_c, 1, 55, 109
3, 17564, Note_off_c, 1, 52, 100
3, 17568, Note_on_c, 1, 33, 110
3, 17660, Note_off_c, 1, 55, 100
3, 17664, Note_on_c, 1, 41, 110
3, 17756, Note_off_c, 1, 33, 100
3, 17760, Note_on_c, 1, 40, 110
3, 17852, Note_off_c, 1, 41, 100
3, 17856, Note_on_c, 1, 38, 110
3, 17948, Note_off_c, 1, 40, 100
3, 18044, Note_off_c, 1, 38, 100
3, 18144, Note_on_c, 1, 33, 110
3, 18240, Note_on_c, 1, 41, 110
3, 18332, Note_off_c, 1, 33, 100
3, 18336, Note_on_c, 1, 40, 110
3, 18428, Note_off_c, 1, 41, 100
3, 18432, Note_on_c, 1, 38, 110
3, 18524, Note_off_c, 1, 40, 100
3, 18620, Note_off_c, 1, 38, 100
3, 18720, Note_on_c, 1, 33, 110
3, 18816, Note_on_c, 1, 41, 110
3, 18908, Note_off_c, 1, 33, 100
3, 18912, Note_on_c, 1, 40, 110
3, 19004, Note_off_c, 1, 41, 100
3, 19008, Note_on_c, 1, 38, 110
3, 19100, Note_off_c, 1, 40, 100
3, 19196, Note_off_c, 1, 38, 100
3, 19296, Note_on_c, 1, 33, 110
3, 19392, Note_on_c, 1, 41, 110
3, 19484, Note_off_c, 1, 33, 100
3, 19488, Note_on_c, 1, 38, 110
3, 19580, Note_off_c, 1, 41, 100
3, 19584, Note_on_c, 1, 43, 110
3, 19584, Note_on_c, 1, 31, 110
3, 19676, Note_off_c, 1, 38, 100
3, 20156, Note_off_c, 1, 43, 100
3, 20156, Note_off_c, 1, 31, 100
3, 20160, Note_on_c, 1, 36, 110
3, 20160, Note_on_c, 1, 48, 110
3, 20352, Note_on_c, 1, 52, 110
3, 20540, Note_off_c, 1, 36, 100
3, 20540, Note_off_c, 1, 48, 100
3, 20540, Note_off_c, 1, 52, 100
3, 20544, Note_on_c, 1, 55, 110
3, 20732, Note_off_c, 1, 55, 100
3, 20736, Note_on_c, 1, 60, 110
3, 20924, Note_off_c, 1, 60, 100
3, 20928, Note_on_c, 1, 64, 110
3, 21116, Note_off_c, 1, 64, 100
3, 21120, Note_on_c, 1, 60, 110
3, 21308, Note_off_c, 1, 60, 100
3, 21312, Note_on_c, 1, 55, 110
3, 21500, Note_off_c, 1, 55, 100
3, 21504, Note_on_c, 1, 52, 110
3, 21692, Note_off_c, 1, 52, 100
3, 21696, Note_on_c, 1, 55, 110
3, 21884, Note_off_c, 1, 55, 100
3, 21888, Note_on_c, 1, 52, 110
3, 22076, Note_off_c, 1, 52, 100
3, 22080, Note_on_c, 1, 48, 110
3, 22176, Note_on_c, 1, 31, 110
3, 22268, Note_off_c, 1, 48, 100
3, 22272, Note_on_c, 1, 40, 110
3, 22364, Note_off_c, 1, 31, 100
3, 22368, Note_on_c, 1, 38, 110
3, 22460, Note_off_c, 1, 40, 100
3, 22464, Note_on_c, 1, 36, 110
3, 22556, Note_off_c, 1, 38, 100
3, 22652, Note_off_c, 1, 36, 100
3, 22752, Note_on_c, 1, 31, 110
3, 22848, Note_on_c, 1, 40, 110
3, 22940, Note_off_c, 1, 31, 100
3, 22944, Note_on_c, 1, 38, 110
3, 23036, Note_off_c, 1, 40, 100
3, 23040, Note_on_c, 1, 36, 110
3, 23132, Note_off_c, 1, 38, 100
3, 23228, Note_off_c, 1, 36, 100
3, 23328, Note_on_c, 1, 31, 110
3, 23424, Note_on_c, 1, 40, 110
3, 23516, Note_off_c, 1, 31, 100
3, 23520, Note_on_c, 1, 38, 110
3, 23612, Note_off_c, 1, 40, 100
3, 23616, Note_on_c, 1, 36, 110
3, 23708, Note_off_c, 1, 38, 100
3, 23804, Note_off_c, 1, 36, 100
3, 23904, Note_on_c, 1, 31, 110
3, 24000, Note_on_c, 1, 40, 110
3, 24092, Note_off_c, 1, 31, 100
3, 24096, Note_on_c, 1, 36, 110
3, 24188, Note_off_c, 1, 40, 100
3, 24192, Note_on_c, 1, 29, 110
3, 24192, Note_on_c, 1, 41, 110
3, 24284, Note_off_c, 1, 36, 100
3, 24764, Note_off_c, 1, 29, 100
3, 24764, Note_off_c, 1, 41, 100
3, 24768, Note_on_c, 1, 28, 110
3, 24768, Note_on_c, 1, 40, 110
3, 24956, Note_off_c, 1, 28, 100
3, 24956, Note_off_c, 1, 40, 100
3, 24960, Note_on_c, 1, 62, 110
3, 24960, Note_on_c, 1, 59, 110
3, 25056, Note_on_c, 1, 64, 110
3, 25148, Note_off_c, 1, 62, 100
3, 25148, Note_off_c, 1, 59, 100
3, 25152, Note_on_c, 1, 56, 110
3, 25244, Note_off_c, 1, 64, 100
3, 25248, Note_on_c, 1, 64, 110
3, 25340, Note_off_c, 1, 56, 100
3, 25344, Note_on_c, 1, 62, 110
3, 25344, Note_on_c, 1, 59, 110
3, 25436, Note_off_c, 1, 64, 100
3, 25440, Note_on_c, 1, 64, 110
3, 25532, Note_off_c, 1, 62, 100
3, 25532, Note_off_c, 1, 59, 100
3, 25536, Note_on_c, 1, 56, 110
3, 25628, Note_off_c, 1, 64, 100
3, 25632, Note_on_c, 1, 64, 110
3, 25724, Note_off_c, 1, 56, 100
3, 25728, Note_on_c, 1, 62, 110
3, 25728, Note_on_c, 1, 59, 110
3, 25820, Note_off_c, 1, 64, 100
3, 25824, Note_on_c, 1, 64, 110
3, 25916, Note_off_c, 1, 62, 100
3, 25916, Note_off_c, 1, 59, 100
3, 25920, Note_on_c, 1, 56, 110
3, 26012, Note_off_c, 1, 64, 100
3, 26016, Note_on_c, 1, 64, 110
3, 26108, Note_off_c, 1, 56, 100
3, 26112, Note_on_c, 1, 62, 110
3, 26112, Note_on_c, 1, 59, 110
3, 26204, Note_off_c, 1, 64, 100
3, 26208, Note_on_c, 1, 64, 110
3, 26300, Note_off_c, 1, 62, 100
3, 26300, Note_off_c, 1, 59, 100
3, 26304, Note_on_c, 1, 56, 110
3, 26396, Note_off_c, 1, 64, 100
3, 26400, Note_on_c, 1, 64, 110
3, 26492, Note_off_c, 1, 56, 100
3, 26496, Note_on_c, 1, 62, 110
3, 26496, Note_on_c, 1, 59, 110
3, 26588, Note_off_c, 1, 64, 100
3, 26592, Note_on_c, 1, 64, 110
3, 26684, Note_off_c, 1, 62, 100
3, 26684, Note_off_c, 1, 59, 100
3, 26688, Note_on_c, 1, 56, 110
3, 26780, Note_off_c, 1, 64, 100
3, 26784, Note_on_c, 1, 64, 110
3, 26876, Note_off_c, 1, 56, 100
3, 26880, Note_on_c, 1, 62, 110
3, 26880, Note_on_c, 1, 59, 110
3, 26972, Note_off_c, 1, 64, 100
3, 26976, Note_on_c, 1, 64, 110
3, 27068, Note_off_c, 1, 62, 100
3, 27068, Note_off_c, 1, 59, 100
3, 27072, Note_on_c, 1, 56, 110
3, 27164, Note_off_c, 1, 64, 100
3, 27168, Note_on_c, 1, 64, 110
3, 27260, Note_off_c, 1, 56, 100
3, 27264, Note_on_c, 1, 62, 110
3, 27264, Note_on_c, 1, 59, 110
3, 27356, Note_off_c, 1, 64, 100
3, 27360, Note_on_c, 1, 64, 110
3, 27452, Note_off_c, 1, 62, 100
3, 27452, Note_off_c, 1, 59, 100
3, 27456, Note_on_c, 1, 56, 110
3, 27548, Note_off_c, 1, 64, 100
3, 27552, Note_on_c, 1, 64, 110
3, 27644, Note_off_c, 1, 56, 100
3, 27648, Note_on_c, 1, 62, 100
3, 27648, Note_on_c, 1, 59, 100
3, 27740, Note_off_c, 1, 64, 100
3, 27744, Note_on_c, 1, 64, 99
3, 27836, Note_off_c, 1, 62, 100
3, 27836, Note_off_c, 1, 59, 100
3, 27840, Note_on_c, 1, 56, 97
3, 27932, Note_off_c, 1, 64, 100
3, 27936, Note_on_c, 1, 64, 96
3, 28028, Note_off_c, 1, 56, 100
3, 28032, Note_on_c, 1, 59, 94
3, 28032, Note_on_c, 1, 62, 94
3, 28124, Note_off_c, 1, 64, 100
3, 28128, Note_on_c, 1, 64, 92
3, 28220, Note_off_c, 1, 59, 100
3, 28220, Note_off_c, 1, 62, 100
3, 28224, Note_on_c, 1, 57, 80
3, 28316, Note_off_c, 1, 64, 100
3, 28320, Note_on_c, 1, 64, 80
3, 28412, Note_off_c, 1, 57, 100
3, 28416, Note_on_c, 1, 60, 80
3, 28508, Note_off_c, 1, 64, 100
3, 28512, Note_on_c, 1, 64, 80
3, 28604, Note_off_c, 1, 60, 100
3, 28608, Note_on_c, 1, 57, 80
3, 28700, Note_off_c, 1, 64, 100
3, 28704, Note_on_c, 1, 64, 80
3, 28796, Note_off_c, 1, 57, 100
3, 28800, Note_on_c, 1, 52, 80
3, 28892, Note_off_c, 1, 64, 100
3, 28896, Note_on_c, 1, 62, 80
3, 28988, Note_off_c, 1, 52, 100
3, 28992, Note_on_c, 1, 59, 80
3, 29084, Note_off_c, 1, 62, 100
3, 29088, Note_on_c, 1, 62, 80
3, 29180, Note_off_c, 1, 59, 100
3, 29184, Note_on_c, 1, 52, 80
3, 29276, Note_off_c, 1, 62, 100
3, 29280, Note_on_c, 1, 62, 80
3, 29372, Note_off_c, 1, 52, 100
3, 29376, Note_on_c, 1, 60, 80
3, 29376, Note_on_c, 1, 57, 80
3, 29468, Note_off_c, 1, 62, 100
3, 29472, Note_on_c, 1, 64, 80
3, 29564, Note_off_c, 1, 60, 100
3, 29564, Note_off_c, 1, 57, 100
3, 29568, Note_on_c, 1, 62, 110
3, 29568, Note_on_c, 1, 59, 110
3, 29660, Note_off_c, 1, 64, 100
3, 29664, Note_on_c, 1, 64, 110
3, 29756, Note_off_c, 1, 62, 100
3, 29756, Note_off_c, 1, 59, 100
3, 29760, Note_on_c, 1, 56, 110
3, 29852, Note_off_c, 1, 64, 100
3, 29856, Note_on_c, 1, 64, 110
3, 29948, Note_off_c, 1, 56, 100
3, 29952, Note_on_c, 1, 62, 110
3, 29952, Note_on_c, 1, 59, 110
3, 30044, Note_off_c, 1, 64, 100
3, 30048, Note_on_c, 1, 64, 110
3, 30140, Note_off_c, 1, 62, 100
3, 30140, Note_off_c, 1, 59, 100
3, 30144, Note_on_c, 1, 56, 110
3, 30236, Note_off_c, 1, 64, 100
3, 30240, Note_on_c, 1, 64, 110
3, 30332, Note_off_c, 1, 56, 100
3, 30336, Note_on_c, 1, 62, 110
3, 30336, Note_on_c, 1, 59, 110
3, 30428, Note_off_c, 1, 64, 100
3, 30432, Note_on_c, 1, 64, 110
3, 30524, Note_off_c, 1, 62, 100
3, 30524, Note_off_c, 1, 59, 100
3, 30528, Note_on_c, 1, 56, 110
3, 30620, Note_off_c, 1, 64, 100
3, 30624, Note_on_c, 1, 64, 110
3, 30716, Note_off_c, 1, 56, 100
3, 30720, Note_on_c, 1, 62, 110
3, 30720, Note_on_c, 1, 59, 110
3, 30812, Note_off_c, 1, 64, 100
3, 30816, Note_on_c, 1, 64, 110
3, 30908, Note_off_c, 1, 62, 100
3, 30908, Note_off_c, 1, 59, 100
3, 30912, Note_on_c, 1, 56, 110
3, 31004, Note_off_c, 1, 64, 100
3, 31008, Note_on_c, 1, 64, 110
3, 31100, Note_off_c, 1, 56, 100
3, 31104, Note_on_c, 1, 62, 110
3, 31104, Note_on_c, 1, 59, 110
3, 31196, Note_off_c, 1, 64, 100
3, 31200, Note_on_c, 1, 64, 110
3, 31292, Note_off_c, 1, 62, 100
3, 31292, Note_off_c, 1, 59, 100
3, 31296, Note_on_c, 1, 56, 110
3, 31388, Note_off_c, 1, 64, 100
3, 31392, Note_on_c, 1, 64, 110
3, 31484, Note_off_c, 1, 56, 100
3, 31488, Note_on_c, 1, 62, 110
3, 31488, Note_on_c, 1, 59, 110
3, 31580, Note_off_c, 1, 64, 100
3, 31584, Note_on_c, 1, 64, 110
3, 31676, Note_off_c, 1, 62, 100
3, 31676, Note_off_c, 1, 59, 100
3, 31680, Note_on_c, 1, 56, 110
3, 31772, Note_off_c, 1, 64, 100
3, 31776, Note_on_c, 1, 64, 110
3, 31868, Note_off_c, 1, 56, 100
3, 31872, Note_on_c, 1, 62, 110
3, 31872, Note_on_c, 1, 59, 110
3, 31964, Note_off_c, 1, 64, 100
3, 31968, Note_on_c, 1, 64, 100
3, 32060, Note_off_c, 1, 62, 100
3, 32060, Note_off_c, 1, 59, 100
3, 32064, Note_on_c, 1, 56, 99
3, 32156, Note_off_c, 1, 64, 100
3, 32160, Note_on_c, 1, 64, 98
3, 32252, Note_off_c, 1, 56, 100
3, 32256, Note_on_c, 1, 62, 97
3, 32256, Note_on_c, 1, 59, 97
3, 32348, Note_off_c, 1, 64, 100
3, 32352, Note_on_c, 1, 64, 96
3, 32444, Note_off_c, 1, 62, 100
3, 32444, Note_off_c, 1, 59, 100
3, 32448, Note_on_c, 1, 56, 95
3, 32540, Note_off_c, 1, 64, 100
3, 32544, Note_on_c, 1, 64, 94
3, 32636, Note_off_c, 1, 56, 100
3, 32640, Note_on_c, 1, 59, 93
3, 32640, Note_on_c, 1, 62, 93
3, 32732, Note_off_c, 1, 64, 100
3, 32736, Note_on_c, 1, 64, 92
3, 32828, Note_off_c, 1, 59, 100
3, 32828, Note_off_c, 1, 62, 100
3, 32832, Note_on_c, 1, 57, 80
3, 32924, Note_off_c, 1, 64, 100
3, 32928, Note_on_c, 1, 64, 80
3, 33020, Note_off_c, 1, 57, 100
3, 33024, Note_on_c, 1, 60, 80
3, 33116, Note_off_c, 1, 64, 100
3, 33120, Note_on_c, 1, 64, 80
3, 33212, Note_off_c, 1, 60, 100
3, 33216, Note_on_c, 1, 57, 80
3, 33308, Note_off_c, 1, 64, 100
3, 33312, Note_on_c, 1, 64, 80
3, 33404, Note_off_c, 1, 57, 100
3, 33408, Note_on_c, 1, 52, 80
3, 33500, Note_off_c, 1, 64, 100
3, 33504, Note_on_c, 1, 62, 80
3, 33596, Note_off_c, 1, 52, 100
3, 33600, Note_on_c, 1, 59, 80
3, 33692, Note_off_c, 1, 62, 100
3, 33696, Note_on_c, 1, 62, 80
3, 33788, Note_off_c, 1, 59, 100
3, 33792, Note_on_c, 1, 52, 80
3, 33884, Note_off_c, 1, 62, 100
3, 33888, Note_on_c, 1, 62, 80
3, 33980, Note_off_c, 1, 52, 100
3, 33984, Note_on_c, 1, 53, 80
3, 34076, Note_off_c, 1, 62, 100
3, 34080, Note_on_c, 1, 60, 80
3, 34172, Note_off_c, 1, 53, 100
3, 34176, Note_on_c, 1, 57, 80
3, 34268, Note_off_c, 1, 60, 100
3, 34272, Note_on_c, 1, 60, 81
3, 34364, Note_off_c, 1, 57, 100
3, 34368, Note_on_c, 1, 53, 82
3, 34460, Note_off_c, 1, 60, 100
3, 34464, Note_on_c, 1, 60, 84
3, 34556, Note_off_c, 1, 53, 100
3, 34560, Note_on_c, 1, 50, 85
3, 34652, Note_off_c, 1, 60, 100
3, 34656, Note_on_c, 1, 58, 86
3, 34748, Note_off_c, 1, 50, 100
3, 34752, Note_on_c, 1, 53, 88
3, 34844, Note_off_c, 1, 58, 100
3, 34848, Note_on_c, 1, 58, 89
3, 34940, Note_off_c, 1, 53, 100
3, 34944, Note_on_c, 1, 50, 90
3, 35036, Note_off_c, 1, 58, 100
3, 35040, Note_on_c, 1, 58, 92
3, 35132, Note_off_c, 1, 50, 100
3, 35136, Note_on_c, 1, 52, 93
3, 35228, Note_off_c, 1, 58, 100
3, 35232, Note_on_c, 1, 60, 94
3, 35324, Note_off_c, 1, 52, 100
3, 35328, Note_on_c, 1, 57, 96
3, 35420, Note_off_c, 1, 60, 100
3, 35424, Note_on_c, 1, 60, 97
3, 35516, Note_off_c, 1, 57, 100
3, 35520, Note_on_c, 1, 52, 99
3, 35612, Note_off_c, 1, 60, 100
3, 35616, Note_on_c, 1, 60, 100
3, 35708, Note_off_c, 1, 52, 100
3, 35712, Note_on_c, 1, 50, 101
3, 35804, Note_off_c, 1, 60, 100
3, 35808, Note_on_c, 1, 59, 103
3, 35900, Note_off_c, 1, 50, 100
3, 35904, Note_on_c, 1, 52, 104
3, 35996, Note_off_c, 1, 59, 100
3, 36000, Note_on_c, 1, 59, 105
3, 36092, Note_off_c, 1, 52, 100
3, 36096, Note_on_c, 1, 50, 107
3, 36188, Note_off_c, 1, 59, 100
3, 36192, Note_on_c, 1, 59, 108
3, 36284, Note_off_c, 1, 50, 100
3, 36288, Note_on_c, 1, 48, 110
3, 36380, Note_off_c, 1, 59, 100
3, 36384, Note_on_c, 1, 57, 110
3, 36476, Note_off_c, 1, 48, 100
3, 36480, Note_on_c, 1, 47, 110
3, 36572, Note_off_c, 1, 57, 100
3, 36576, Note_on_c, 1, 57, 110
3, 36668, Note_off_c, 1, 47, 100
3, 36672, Note_on_c, 1, 48, 110
3, 36764, Note_off_c, 1, 57, 100
3, 36768, Note_on_c, 1, 57, 110
3, 36860, Note_off_c, 1, 48, 100
3, 36864, Note_on_c, 1, 50, 110
3, 36956, Note_off_c, 1, 57, 100
3, 36960, Note_on_c, 1, 59, 110
3, 36960, Note_on_c, 1, 57, 110
3, 37052, Note_off_c, 1, 50, 100
3, 37056, Note_on_c, 1, 48, 110
3, 37148, Note_off_c, 1, 59, 100
3, 37148, Note_off_c, 1, 57, 100
3, 37152, Note_on_c, 1, 59, 110
3, 37152, Note_on_c, 1, 57, 110
3, 37244, Note_off_c, 1, 48, 100
3, 37248, Note_on_c, 1, 50, 110
3, 37340, Note_off_c, 1, 59, 100
3, 37340, Note_off_c, 1, 57, 100
3, 37344, Note_on_c, 1, 59, 110
3, 37344, Note_on_c, 1, 57, 110
3, 37436, Note_off_c, 1, 50, 100
3, 37440, Note_on_c, 1, 52, 110
3, 37532, Note_off_c, 1, 57, 100
3, 37532, Note_off_c, 1, 59, 100
3, 37536, Note_on_c, 1, 60, 110
3, 37536, Note_on_c, 1, 57, 110
3, 37628, Note_off_c, 1, 52, 100
3, 37632, Note_on_c, 1, 51, 110
3, 37724, Note_off_c, 1, 60, 100
3, 37724, Note_off_c, 1, 57, 100
3, 37728, Note_on_c, 1, 60, 110
3, 37728, Note_on_c, 1, 57, 110
3, 37820, Note_off_c, 1, 51, 100
3, 37824, Note_on_c, 1, 52, 110
3, 37916, Note_off_c, 1, 60, 100
3, 37916, Note_off_c, 1, 57, 100
3, 37920, Note_on_c, 1, 60, 110
3, 37920, Note_on_c, 1, 57, 110
3, 38012, Note_off_c, 1, 52, 100
3, 38016, Note_on_c, 1, 52, 110
3, 38108, Note_off_c, 1, 57, 100
3, 38108, Note_off_c, 1, 60, 100
3, 38112, Note_on_c, 1, 62, 110
3, 38112, Note_on_c, 1, 59, 110
3, 38204, Note_off_c, 1, 52, 100
3, 38208, Note_on_c, 1, 52, 110
3, 38300, Note_off_c, 1, 62, 100
3, 38300, Note_off_c, 1, 59, 100
3, 38304, Note_on_c, 1, 60, 110
3, 38304, Note_on_c, 1, 57, 110
3, 38396, Note_off_c, 1, 52, 100
3, 38400, Note_on_c, 1, 52, 110
3, 38492, Note_off_c, 1, 60, 100
3, 38492, Note_off_c, 1, 57, 100
3, 38496, Note_on_c, 1, 59, 110
3, 38496, Note_on_c, 1, 56, 110
3, 38588, Note_off_c, 1, 52, 100
3, 38592, Note_on_c, 1, 45, 80
3, 38684, Note_off_c, 1, 56, 100
3, 38684, Note_off_c, 1, 59, 100
3, 38688, Note_on_c, 1, 60, 80
3, 38780, Note_off_c, 1, 45, 100
3, 38784, Note_on_c, 1, 57, 80
3, 38876, Note_off_c, 1, 60, 100
3, 38880, Note_on_c, 1, 60, 80
3, 38972, Note_off_c, 1, 57, 100
3, 38976, Note_on_c, 1, 52, 80
3, 39068, Note_off_c, 1, 60, 100
3, 39072, Note_on_c, 1, 60, 80
3, 39164, Note_off_c, 1, 52, 100
3, 39168, Note_on_c, 1, 45, 80
3, 39260, Note_off_c, 1, 60, 100
3, 39264, Note_on_c, 1, 60, 80
3, 39356, Note_off_c, 1, 45, 100
3, 39360, Note_on_c, 1, 57, 80
3, 39452, Note_off_c, 1, 60, 100
3, 39456, Note_on_c, 1, 60, 80
3, 39548, Note_off_c, 1, 57, 100
3, 39552, Note_on_c, 1, 52, 80
3, 39644, Note_off_c, 1, 60, 100
3, 39648, Note_on_c, 1, 60, 80
3, 39740, Note_off_c, 1, 52, 100
3, 39744, Note_on_c, 1, 45, 80
3, 39836, Note_off_c, 1, 60, 100
3, 39840, Note_on_c, 1, 60, 80
3, 39932, Note_off_c, 1, 45, 100
3, 39936, Note_on_c, 1, 57, 80
3, 40028, Note_off_c, 1, 60, 100
3, 40032, Note_on_c, 1, 60, 80
3, 40124, Note_off_c, 1, 57, 100
3, 40128, Note_on_c, 1, 52, 80
3, 40220, Note_off_c, 1, 60, 100
3, 40224, Note_on_c, 1, 60, 80
3, 40316, Note_off_c, 1, 52, 100
3, 40320, Note_on_c, 1, 45, 80
3, 40412, Note_off_c, 1, 60, 100
3, 40416, Note_on_c, 1, 60, 80
3, 40508, Note_off_c, 1, 45, 100
3, 40512, Note_on_c, 1, 57, 80
3, 40604, Note_off_c, 1, 60, 100
3, 40608, Note_on_c, 1, 60, 80
3, 40700, Note_off_c, 1, 57, 100
3, 40704, Note_on_c, 1, 52, 80
3, 40796, Note_off_c, 1, 60, 100
3, 40800, Note_on_c, 1, 60, 80
3, 40892, Note_off_c, 1, 52, 100
3, 40896, Note_on_c, 1, 45, 80
3, 40988, Note_off_c, 1, 60, 100
3, 40992, Note_on_c, 1, 60, 81
3, 41084, Note_off_c, 1, 45, 100
3, 41088, Note_on_c, 1, 57, 83
3, 41180, Note_off_c, 1, 60, 100
3, 41184, Note_on_c, 1, 60, 84
3, 41276, Note_off_c, 1, 57, 100
3, 41280, Note_on_c, 1, 52, 86
3, 41372, Note_off_c, 1, 60, 100
3, 41376, Note_on_c, 1, 60, 88
3, 41468, Note_off_c, 1, 52, 100
3, 41472, Note_on_c, 1, 40, 89
3, 41564, Note_off_c, 1, 60, 100
3, 41568, Note_on_c, 1, 62, 91
3, 41660, Note_off_c, 1, 40, 100
3, 41664, Note_on_c, 1, 59, 93
3, 41756, Note_off_c, 1, 62, 100
3, 41760, Note_on_c, 1, 62, 94
3, 41852, Note_off_c, 1, 59, 100
3, 41856, Note_on_c, 1, 52, 96
3, 41948, Note_off_c, 1, 62, 100
3, 41952, Note_on_c, 1, 62, 98
3, 42044, Note_off_c, 1, 52, 100
3, 42048, Note_on_c, 1, 45, 100
3, 42140, Note_off_c, 1, 62, 100
3, 42144, Note_on_c, 1, 60, 80
3, 42236, Note_off_c, 1, 45, 100
3, 42240, Note_on_c, 1, 57, 80
3, 42332, Note_off_c, 1, 60, 100
3, 42336, Note_on_c, 1, 60, 80
3, 42428, Note_off_c, 1, 57, 100
3, 42432, Note_on_c, 1, 52, 80
3, 42524, Note_off_c, 1, 60, 100
3, 42528, Note_on_c, 1, 60, 80
3, 42620, Note_off_c, 1, 52, 100
3, 42624, Note_on_c, 1, 45, 80
3, 42716, Note_off_c, 1, 60, 100
3, 42720, Note_on_c, 1, 60, 80
3, 42812, Note_off_c, 1, 45, 100
3, 42816, Note_on_c, 1, 57, 80
3, 42908, Note_off_c, 1, 60, 100
3, 42912, Note_on_c, 1, 60, 80
3, 43004, Note_off_c, 1, 57, 100
3, 43008, Note_on_c, 1, 52, 80
3, 43100, Note_off_c, 1, 60, 100
3, 43104, Note_on_c, 1, 60, 80
3, 43196, Note_off_c, 1, 52, 100
3, 43200, Note_on_c, 1, 45, 80
3, 43292, Note_off_c, 1, 60, 100
3, 43296, Note_on_c, 1, 60, 80
3, 43388, Note_off_c, 1, 45, 100
3, 43392, Note_on_c, 1, 57, 80
3, 43484, Note_off_c, 1, 60, 100
3, 43488, Note_on_c, 1, 60, 80
3, 43580, Note_off_c, 1, 57, 100
3, 43584, Note_on_c, 1, 52, 80
3, 43676, Note_off_c, 1, 60, 100
3, 43680, Note_on_c, 1, 60, 80
3, 43772, Note_off_c, 1, 52, 100
3, 43776, Note_on_c, 1, 45, 80
3, 43868, Note_off_c, 1, 60, 100
3, 43872, Note_on_c, 1, 60, 80
3, 43964, Note_off_c, 1, 45, 100
3, 43968, Note_on_c, 1, 57, 80
3, 44060, Note_off_c, 1, 60, 100
3, 44064, Note_on_c, 1, 60, 80
3, 44156, Note_off_c, 1, 57, 100
3, 44160, Note_on_c, 1, 52, 80
3, 44252, Note_off_c, 1, 60, 100
3, 44256, Note_on_c, 1, 60, 80
3, 44348, Note_off_c, 1, 52, 100
3, 44352, Note_on_c, 1, 45, 80
3, 44444, Note_off_c, 1, 60, 100
3, 44448, Note_on_c, 1, 60, 81
3, 44540, Note_off_c, 1, 45, 100
3, 44544, Note_on_c, 1, 57, 83
3, 44636, Note_off_c, 1, 60, 100
3, 44640, Note_on_c, 1, 60, 84
3, 44732, Note_off_c, 1, 57, 100
3, 44736, Note_on_c, 1, 52, 86
3, 44828, Note_off_c, 1, 60, 100
3, 44832, Note_on_c, 1, 60, 88
3, 44924, Note_off_c, 1, 52, 100
3, 44928, Note_on_c, 1, 40, 89
3, 45020, Note_off_c, 1, 60, 100
3, 45024, Note_on_c, 1, 62, 91
3, 45116, Note_off_c, 1, 40, 100
3, 45120, Note_on_c, 1, 59, 93
3, 45212, Note_off_c, 1, 62, 100
3, 45216, Note_on_c, 1, 62, 94
3, 45308, Note_off_c, 1, 59, 100
3, 45312, Note_on_c, 1, 52, 96
3, 45404, Note_off_c, 1, 62, 100
3, 45408, Note_on_c, 1, 62, 98
3, 45500, Note_off_c, 1, 52, 100
3, 45504, Note_on_c, 1, 45, 100
3, 45596, Note_off_c, 1, 62, 100
3, 45600, Note_on_c, 1, 57, 101
3, 45692, Note_off_c, 1, 45, 100
3, 45696, Note_on_c, 1, 56, 103
3, 45788, Note_off_c, 1, 57, 100
3, 45792, Note_on_c, 1, 57, 104
3, 45884, Note_off_c, 1, 56, 100
3, 45888, Note_on_c, 1, 55, 106
3, 45980, Note_off_c, 1, 57, 100
3, 45984, Note_on_c, 1, 57, 108
3, 46076, Note_off_c, 1, 55, 100
3, 46080, Note_on_c, 1, 53, 110
3, 46172, Note_off_c, 1, 57, 100
3, 46176, Note_on_c, 1, 57, 109
3, 46268, Note_off_c, 1, 53, 100
3, 46272, Note_on_c, 1, 52, 107
3, 46364, Note_off_c, 1, 57, 100
3, 46368, Note_on_c, 1, 57, 106
3, 46460, Note_off_c, 1, 52, 100
3, 46464, Note_on_c, 1, 51, 104
3, 46556, Note_off_c, 1, 57, 100
3, 46560, Note_on_c, 1, 57, 102
3, 46652, Note_off_c, 1, 51, 100
3, 46656, Note_on_c, 1, 52, 101
3, 46748, Note_off_c, 1, 57, 100
3, 46752, Note_on_c, 1, 57, 100
3, 46844, Note_off_c, 1, 52, 100
3, 46848, Note_on_c, 1, 59, 100
3, 46940, Note_off_c, 1, 57, 100
3, 46944, Note_on_c, 1, 52, 100
3, 47036, Note_off_c, 1, 59, 100
3, 47040, Note_on_c, 1, 60, 100
3, 47132, Note_off_c, 1, 52, 100
3, 47136, Note_on_c, 1, 52, 100
3, 47228, Note_off_c, 1, 60, 100
3, 47232, Note_on_c, 1, 62, 100
3, 47324, Note_off_c, 1, 52, 100
3, 47328, Note_on_c, 1, 52, 100
3, 47420, Note_off_c, 1, 62, 100
3, 47424, Note_on_c, 1, 60, 100
3, 47516, Note_off_c, 1, 52, 100
3, 47520, Note_on_c, 1, 52, 100
3, 47612, Note_off_c, 1, 60, 100
3, 47616, Note_on_c, 1, 59, 100
3, 47708, Note_off_c, 1, 52, 100
3, 47712, Note_on_c, 1, 52, 100
3, 47804, Note_off_c, 1, 59, 100
3, 47808, Note_on_c, 1, 45, 100
3, 47900, Note_off_c, 1, 52, 100
3, 47904, Note_on_c, 1, 57, 101
3, 47996, Note_off_c, 1, 45, 100
3, 48000, Note_on_c, 1, 56, 103
3, 48092, Note_off_c, 1, 57, 100
3, 48096, Note_on_c, 1, 57, 104
3, 48188, Note_off_c, 1, 56, 100
3, 48192, Note_on_c, 1, 55, 106
3, 48284, Note_off_c, 1, 57, 100
3, 48288, Note_on_c, 1, 57, 108
3, 48380, Note_off_c, 1, 55, 100
3, 48384, Note_on_c, 1, 53, 109
3, 48476, Note_off_c, 1, 57, 100
3, 48480, Note_on_c, 1, 57, 109
3, 48572, Note_off_c, 1, 53, 100
3, 48576, Note_on_c, 1, 52, 107
3, 48668, Note_off_c, 1, 57, 100
3, 48672, Note_on_c, 1, 57, 106
3, 48764, Note_off_c, 1, 52, 100
3, 48768, Note_on_c, 1, 51, 104
3, 48860, Note_off_c, 1, 57, 100
3, 48864, Note_on_c, 1, 57, 102
3, 48956, Note_off_c, 1, 51, 100
3, 48960, Note_on_c, 1, 52, 101
3, 49052, Note_off_c, 1, 57, 100
3, 49056, Note_on_c, 1, 57, 100
3, 49148, Note_off_c, 1, 52, 100
3, 49152, Note_on_c, 1, 59, 100
3, 49244, Note_off_c, 1, 57, 100
3, 49248, Note_on_c, 1, 52, 100
3, 49340, Note_off_c, 1, 59, 100
3, 49344, Note_on_c, 1, 60, 100
3, 49436, Note_off_c, 1, 52, 100
3, 49440, Note_on_c, 1, 52, 100
3, 49532, Note_off_c, 1, 60, 100
3, 49536, Note_on_c, 1, 62, 100
3, 49628, Note_off_c, 1, 52, 100
3, 49632, Note_on_c, 1, 52, 100
3, 49724, Note_off_c, 1, 62, 100
3, 49728, Note_on_c, 1, 60, 100
3, 49820, Note_off_c, 1, 52, 100
3, 49824, Note_on_c, 1, 52, 100
3, 49916, Note_off_c, 1, 60, 100
3, 49920, Note_on_c, 1, 59, 100
3, 50012, Note_off_c, 1, 52, 100
3, 50016, Note_on_c, 1, 52, 100
3, 50108, Note_off_c, 1, 59, 100
3, 50112, Note_on_c, 1, 45, 112
3, 50204, Note_off_c, 1, 52, 100
3, 50208, Note_on_c, 1, 57, 100
3, 50300, Note_off_c, 1, 45, 100
3, 50304, Note_on_c, 1, 56, 100
3, 50396, Note_off_c, 1, 57, 100
3, 50400, Note_on_c, 1, 57, 100
3, 50492, Note_off_c, 1, 56, 100
3, 50496, Note_on_c, 1, 45, 100
3, 50588, Note_off_c, 1, 57, 100
3, 50592, Note_on_c, 1, 57, 100
3, 50684, Note_off_c, 1, 45, 100
3, 50688, Note_on_c, 1, 56, 120
3, 50780, Note_off_c, 1, 57, 100
3, 50784, Note_on_c, 1, 57, 100
3, 50876, Note_off_c, 1, 56, 100
3, 50880, Note_on_c, 1, 45, 100
3, 50972, Note_off_c, 1, 57, 100
3, 50976, Note_on_c, 1, 57, 100
3, 51068, Note_off_c, 1, 45, 100
3, 51072, Note_on_c, 1, 56, 100
3, 51164, Note_off_c, 1, 57, 100
3, 51168, Note_on_c, 1, 57, 100
3, 51260, Note_off_c, 1, 56, 100
3, 51264, Note_on_c, 1, 45, 112
3, 51356, Note_off_c, 1, 57, 100
3, 51360, Note_on_c, 1, 57, 100
3, 51452, Note_off_c, 1, 45, 100
3, 51456, Note_on_c, 1, 56, 100
3, 51548, Note_off_c, 1, 57, 100
3, 51552, Note_on_c, 1, 57, 100
3, 51644, Note_off_c, 1, 56, 100
3, 51648, Note_on_c, 1, 45, 100
3, 51740, Note_off_c, 1, 57, 100
3, 51744, Note_on_c, 1, 57, 100
3, 51836, Note_off_c, 1, 45, 100
3, 51840, Note_on_c, 1, 56, 120
3, 51932, Note_off_c, 1, 57, 100
3, 51936, Note_on_c, 1, 57, 100
3, 52028, Note_off_c, 1, 56, 100
3, 52032, Note_on_c, 1, 45, 100
3, 52124, Note_off_c, 1, 57, 100
3, 52128, Note_on_c, 1, 57, 100
3, 52220, Note_off_c, 1, 45, 100
3, 52224, Note_on_c, 1, 56, 100
3, 52316, Note_off_c, 1, 57, 100
3, 52320, Note_on_c, 1, 57, 100
3, 52412, Note_off_c, 1, 56, 100
3, 52416, Note_on_c, 1, 67, 100
3, 52416, Note_on_c, 1, 64, 100
3, 52416, Note_on_c, 1, 61, 100
3, 52508, Note_off_c, 1, 57, 100
3, 52604, Note_off_c, 1, 67, 100
3, 52604, Note_off_c, 1, 64, 100
3, 52604, Note_off_c, 1, 61, 100
3, 54720, Note_on_c, 1, 50, 80
3, 54816, Note_on_c, 1, 57, 80
3, 54908, Note_off_c, 1, 50, 100
3, 54912, Note_on_c, 1, 62, 80
3, 55008, Note_on_c, 1, 65, 80
3, 55100, Note_off_c, 1, 62, 100
3, 55196, Note_off_c, 1, 65, 100
3, 55292, Note_off_c, 1, 57, 100
3, 55296, Note_on_c, 1, 50, 80
3, 55392, Note_on_c, 1, 57, 80
3, 55484, Note_off_c, 1, 50, 100
3, 55488, Note_on_c, 1, 62, 80
3, 55584, Note_on_c, 1, 65, 80
3, 55676, Note_off_c, 1, 62, 100
3, 55772, Note_off_c, 1, 65, 100
3, 55868, Note_off_c, 1, 57, 100
3, 55872, Note_on_c, 1, 50, 80
3, 55968, Note_on_c, 1, 57, 80
3, 56060, Note_off_c, 1, 50, 100
3, 56064, Note_on_c, 1, 62, 80
3, 56160, Note_on_c, 1, 65, 80
3, 56252, Note_off_c, 1, 62, 100
3, 56348, Note_off_c, 1, 65, 100
3, 56444, Note_off_c, 1, 57, 100
3, 56448, Note_on_c, 1, 45, 80
3, 56544, Note_on_c, 1, 57, 80
3, 56636, Note_off_c, 1, 45, 100
3, 56640, Note_on_c, 1, 61, 80
3, 56736, Note_on_c, 1, 64, 80
3, 56828, Note_off_c, 1, 61, 100
3, 56924, Note_off_c, 1, 64, 100
3, 57020, Note_off_c, 1, 57, 100
3, 57024, Note_on_c, 1, 45, 80
3, 57120, Note_on_c, 1, 57, 80
3, 57212, Note_off_c, 1, 45, 100
3, 57216, Note_on_c, 1, 61, 80
3, 57312, Note_on_c, 1, 64, 80
3, 57404, Note_off_c, 1, 61, 100
3, 57500, Note_off_c, 1, 64, 100
3, 57596, Note_off_c, 1, 57, 100
3, 57600, Note_on_c, 1, 45, 80
3, 57696, Note_on_c, 1, 57, 80
3, 57788, Note_off_c, 1, 45, 100
3, 57792, Note_on_c, 1, 61, 80
3, 57888, Note_on_c, 1, 64, 80
3, 57980, Note_off_c, 1, 61, 100
3, 58076, Note_off_c, 1, 64, 100
3, 58172, Note_off_c, 1, 57, 100
3, 58176, Note_on_c, 1, 45, 80
3, 58272, Note_on_c, 1, 57, 80
3, 58364, Note_off_c, 1, 45, 100
3, 58368, Note_on_c, 1, 61, 80
3, 58464, Note_on_c, 1, 64, 80
3, 58556, Note_off_c, 1, 61, 100
3, 58652, Note_off_c, 1, 64, 100
3, 58748, Note_off_c, 1, 57, 100
3, 58752, Note_on_c, 1, 50, 80
3, 58848, Note_on_c, 1, 57, 81
3, 58940, Note_off_c, 1, 50, 100
3, 58944, Note_on_c, 1, 62, 82
3, 59040, Note_on_c, 1, 65, 83
3, 59132, Note_off_c, 1, 62, 100
3, 59228, Note_off_c, 1, 65, 100
3, 59324, Note_off_c, 1, 57, 100
3, 59328, Note_on_c, 1, 55, 86
3, 59424, Note_on_c, 1, 62, 87
3, 59520, Note_on_c, 1, 67, 88
3, 59900, Note_off_c, 1, 55, 100
3, 59900, Note_off_c, 1, 62, 100
3, 59900, Note_off_c, 1, 67, 100
3, 59904, Note_on_c, 1, 51, 93
3, 60000, Note_on_c, 1, 58, 94
3, 60096, Note_on_c, 1, 63, 95
3, 60476, Note_off_c, 1, 51, 100
3, 60476, Note_off_c, 1, 58, 100
3, 60476, Note_off_c, 1, 63, 100
3, 60480, Note_on_c, 1, 49, 100
3, 60576, Note_on_c, 1, 57, 99
3, 60672, Note_on_c, 1, 61, 97
3, 61052, Note_off_c, 1, 49, 100
3, 61052, Note_off_c, 1, 57, 100
3, 61052, Note_off_c, 1, 61, 100
3, 61056, Note_on_c, 1, 50, 91
3, 61152, Note_on_c, 1, 57, 89
3, 61248, Note_on_c, 1, 62, 87
3, 61628, Note_off_c, 1, 50, 100
3, 61628, Note_off_c, 1, 57, 100
3, 61628, Note_off_c, 1, 62, 100
3, 61632, Note_on_c, 1, 45, 80
3, 61728, Note_on_c, 1, 53, 82
3, 61824, Note_on_c, 1, 57, 84
3, 62204, Note_off_c, 1, 45, 100
3, 62204, Note_off_c, 1, 53, 100
3, 62204, Note_off_c, 1, 57, 100
3, 62208, Note_on_c, 1, 45, 94
3, 62304, Note_on_c, 1, 52, 97
3, 62400, Note_on_c, 1, 55, 99
3, 62496, Note_on_c, 1, 57, 102
3, 62780, Note_off_c, 1, 45, 100
3, 62780, Note_off_c, 1, 52, 100
3, 62780, Note_off_c, 1, 55, 100
3, 62780, Note_off_c, 1, 57, 100
3, 62784, Note_on_c, 1, 38, 110
3, 62880, Note_on_c, 1, 50, 110
3, 62972, Note_off_c, 1, 38, 100
3, 62976, Note_on_c, 1, 53, 110
3, 63068, Note_off_c, 1, 50, 100
3, 63072, Note_on_c, 1, 57, 110
3, 63164, Note_off_c, 1, 53, 100
3, 63168, Note_on_c, 1, 62, 110
3, 63260, Note_off_c, 1, 57, 100
3, 63356, Note_off_c, 1, 62, 100
3, 63936, Note_on_c, 1, 55, 86
3, 64032, Note_on_c, 1, 62, 87
3, 64128, Note_on_c, 1, 67, 88
3, 64508, Note_off_c, 1, 55, 100
3, 64508, Note_off_c, 1, 62, 100
3, 64508, Note_off_c, 1, 67, 100
3, 64512, Note_on_c, 1, 51, 93
3, 64608, Note_on_c, 1, 58, 94
3, 64704, Note_on_c, 1, 63, 95
3, 65084, Note_off_c, 1, 51, 100
3, 65084, Note_off_c, 1, 58, 100
3, 65084, Note_off_c, 1, 63, 100
3, 65088, Note_on_c, 1, 49, 100
3, 65184, Note_on_c, 1, 57, 99
3, 65280, Note_on_c, 1, 61, 97
3, 65660, Note_off_c, 1, 49, 100
3, 65660, Note_off_c, 1, 57, 100
3, 65660, Note_off_c, 1, 61, 100
3, 65664, Note_on_c, 1, 50, 91
3, 65760, Note_on_c, 1, 57, 89
3, 65856, Note_on_c, 1, 62, 87
3, 66236, Note_off_c, 1, 50, 100
3, 66236, Note_off_c, 1, 57, 100
3, 66236, Note_off_c, 1, 62, 100
3, 66240, Note_on_c, 1, 45, 80
3, 66336, Note_on_c, 1, 53, 82
3, 66432, Note_on_c, 1, 57, 84
3, 66812, Note_off_c, 1, 45, 100
3, 66812, Note_off_c, 1, 53, 100
3, 66812, Note_off_c, 1, 57, 100
3, 66816, Note_on_c, 1, 45, 94
3, 66912, Note_on_c, 1, 52, 97
3, 67008, Note_on_c, 1, 55, 99
3, 67104, Note_on_c, 1, 57, 102
3, 67388, Note_off_c, 1, 45, 100
3, 67388, Note_off_c, 1, 52, 100
3, 67388, Note_off_c, 1, 55, 100
3, 67388, Note_off_c, 1, 57, 100
3, 67392, Note_on_c, 1, 38, 110
3, 67488, Note_on_c, 1, 53, 109
3, 67580, Note_off_c, 1, 38, 100
3, 67584, Note_on_c, 1, 57, 107
3, 67676, Note_off_c, 1, 53, 100
3, 67680, Note_on_c, 1, 62, 106
3, 67772, Note_off_c, 1, 57, 100
3, 67868, Note_off_c, 1, 62, 100
3, 68544, Note_on_c, 1, 45, 80
3, 68640, Note_on_c, 1, 53, 82
3, 68736, Note_on_c, 1, 57, 84
3, 69116, Note_off_c, 1, 45, 100
3, 69116, Note_off_c, 1, 53, 100
3, 69116, Note_off_c, 1, 57, 100
3, 69120, Note_on_c, 1, 45, 94
3, 69216, Note_on_c, 1, 52, 97
3, 69312, Note_on_c, 1, 55, 99
3, 69408, Note_on_c, 1, 57, 102
3, 69692, Note_off_c, 1, 45, 100
3, 69692, Note_off_c, 1, 52, 100
3, 69692, Note_off_c, 1, 55, 100
3, 69692, Note_off_c, 1, 57, 100
3, 69696, Note_on_c, 1, 38, 110
3, 69792, Note_on_c, 1, 53, 110
3, 69884, Note_off_c, 1, 38, 100
3, 69888, Note_on_c, 1, 57, 110
3, 69980, Note_off_c, 1, 53, 100
3, 69984, Note_on_c, 1, 62, 110
3, 70076, Note_off_c, 1, 57, 100
3, 70172, Note_off_c, 1, 62, 100
3, 70848, Note_on_c, 1, 45, 80
3, 70944, Note_on_c, 1, 53, 83
3, 71040, Note_on_c, 1, 57, 87
3, 71420, Note_off_c, 1, 45, 100
3, 71420, Note_off_c, 1, 53, 100
3, 71420, Note_off_c, 1, 57, 100
3, 71424, Note_on_c, 1, 45, 102
3, 71520, Note_on_c, 1, 52, 106
3, 71612, Note_off_c, 1, 45, 100
3, 71616, Note_on_c, 1, 55, 109
3, 71708, Note_off_c, 1, 52, 100
3, 71712, Note_on_c, 1, 33, 110
3, 71804, Note_off_c, 1, 55, 100
3, 71808, Note_on_c, 1, 41, 110
3, 71900, Note_off_c, 1, 33, 100
3, 71904, Note_on_c, 1, 40, 110
3, 71996, Note_off_c, 1, 41, 100
3, 72000, Note_on_c, 1, 38, 110
3, 72092, Note_off_c, 1, 40, 100
3, 72188, Note_off_c, 1, 38, 100
3, 72288, Note_on_c, 1, 33, 110
3, 72384, Note_on_c, 1, 41, 110
3, 72476, Note_off_c, 1, 33, 100
3, 72480, Note_on_c, 1, 40, 110
3, 72572, Note_off_c, 1, 41, 100
3, 72576, Note_on_c, 1, 38, 110
3, 72668, Note_off_c, 1, 40, 100
3, 72764, Note_off_c, 1, 38, 100
3, 72864, Note_on_c, 1, 33, 110
3, 72960, Note_on_c, 1, 41, 110
3, 73052, Note_off_c, 1, 33, 100
3, 73056, Note_on_c, 1, 40, 110
3, 73148, Note_off_c, 1, 41, 100
3, 73152, Note_on_c, 1, 38, 110
3, 73244, Note_off_c, 1, 40, 100
3, 73340, Note_off_c, 1, 38, 100
3, 73440, Note_on_c, 1, 33, 110
3, 73536, Note_on_c, 1, 41, 110
3, 73628, Note_off_c, 1, 33, 100
3, 73632, Note_on_c, 1, 38, 110
3, 73724, Note_off_c, 1, 41, 100
3, 73728, Note_on_c, 1, 43, 110
3, 73728, Note_on_c, 1, 31, 110
3, 73820, Note_off_c, 1, 38, 100
3, 74300, Note_off_c, 1, 43, 100
3, 74300, Note_off_c, 1, 31, 100
3, 74304, Note_on_c, 1, 36, 110
3, 74304, Note_on_c, 1, 48, 110
3, 74496, Note_on_c, 1, 52, 110
3, 74684, Note_off_c, 1, 36, 100
3, 74684, Note_off_c, 1, 48, 100
3, 74684, Note_off_c, 1, 52, 100
3, 74688, Note_on_c, 1, 55, 110
3, 74876, Note_off_c, 1, 55, 100
3, 74880, Note_on_c, 1, 60, 110
3, 75068, Note_off_c, 1, 60, 100
3, 75072, Note_on_c, 1, 64, 110
3, 75260, Note_off_c, 1, 64, 100
3, 75264, Note_on_c, 1, 60, 110
3, 75452, Note_off_c, 1, 60, 100
3, 75456, Note_on_c, 1, 55, 110
3, 75644, Note_off_c, 1, 55, 100
3, 75648, Note_on_c, 1, 52, 110
3, 75836, Note_off_c, 1, 52, 100
3, 75840, Note_on_c, 1, 55, 110
3, 76028, Note_off_c, 1, 55, 100
3, 76032, Note_on_c, 1, 52, 110
3, 76220, Note_off_c, 1, 52, 100
3, 76224, Note_on_c, 1, 48, 110
3, 76320, Note_on_c, 1, 31, 110
3, 76412, Note_off_c, 1, 48, 100
3, 76416, Note_on_c, 1, 40, 110
3, 76508, Note_off_c, 1, 31, 100
3, 76512, Note_on_c, 1, 38, 110
3, 76604, Note_off_c, 1, 40, 100
3, 76608, Note_on_c, 1, 36, 110
3, 76700, Note_off_c, 1, 38, 100
3, 76796, Note_off_c, 1, 36, 100
3, 76896, Note_on_c, 1, 31, 110
3, 76992, Note_on_c, 1, 40, 110
3, 77084, Note_off_c, 1, 31, 100
3, 77088, Note_on_c, 1, 38, 110
3, 77180, Note_off_c, 1, 40, 100
3, 77184, Note_on_c, 1, 36, 110
3, 77276, Note_off_c, 1, 38, 100
3, 77372, Note_off_c, 1, 36, 100
3, 77472, Note_on_c, 1, 31, 110
3, 77568, Note_on_c, 1, 40, 110
3, 77660, Note_off_c, 1, 31, 100
3, 77664, Note_on_c, 1, 38, 110
3, 77756, Note_off_c, 1, 40, 100
3, 77760, Note_on_c, 1, 36, 110
3, 77852, Note_off_c, 1, 38, 100
3, 77948, Note_off_c, 1, 36, 100
3, 78048, Note_on_c, 1, 31, 110
3, 78144, Note_on_c, 1, 40, 110
3, 78236, Note_off_c, 1, 31, 100
3, 78240, Note_on_c, 1, 36, 110
3, 78332, Note_off_c, 1, 40, 100
3, 78336, Note_on_c, 1, 29, 110
3, 78336, Note_on_c, 1, 41, 110
3, 78428, Note_off_c, 1, 36, 100
3, 78908, Note_off_c, 1, 29, 100
3, 78908, Note_off_c, 1, 41, 100
3, 78912, Note_on_c, 1, 28, 110
3, 78912, Note_on_c, 1, 40, 110
3, 79100, Note_off_c, 1, 28, 100
3, 79100, Note_off_c, 1, 40, 100
3, 79104, Note_on_c, 1, 62, 110
3, 79104, Note_on_c, 1, 59, 110
3, 79200, Note_on_c, 1, 64, 110
3, 79292, Note_off_c, 1, 62, 100
3, 79292, Note_off_c, 1, 59, 100
3, 79296, Note_on_c, 1, 56, 110
3, 79388, Note_off_c, 1, 64, 100
3, 79392, Note_on_c, 1, 64, 110
3, 79484, Note_off_c, 1, 56, 100
3, 79488, Note_on_c, 1, 62, 110
3, 79488, Note_on_c, 1, 59, 110
3, 79580, Note_off_c, 1, 64, 100
3, 79584, Note_on_c, 1, 64, 110
3, 79676, Note_off_c, 1, 62, 100
3, 79676, Note_off_c, 1, 59, 100
3, 79680, Note_on_c, 1, 56, 110
3, 79772, Note_off_c, 1, 64, 100
3, 79776, Note_on_c, 1, 64, 110
3, 79868, Note_off_c, 1, 56, 100
3, 79872, Note_on_c, 1, 62, 110
3, 79872, Note_on_c, 1, 59, 110
3, 79964, Note_off_c, 1, 64, 100
3, 79968, Note_on_c, 1, 64, 110
3, 80060, Note_off_c, 1, 62, 100
3, 80060, Note_off_c, 1, 59, 100
3, 80064, Note_on_c, 1, 56, 110
3, 80156, Note_off_c, 1, 64, 100
3, 80160, Note_on_c, 1, 64, 110
3, 80252, Note_off_c, 1, 56, 100
3, 80256, Note_on_c, 1, 62, 110
3, 80256, Note_on_c, 1, 59, 110
3, 80348, Note_off_c, 1, 64, 100
3, 80352, Note_on_c, 1, 64, 110
3, 80444, Note_off_c, 1, 62, 100
3, 80444, Note_off_c, 1, 59, 100
3, 80448, Note_on_c, 1, 56, 110
3, 80540, Note_off_c, 1, 64, 100
3, 80544, Note_on_c, 1, 64, 110
3, 80636, Note_off_c, 1, 56, 100
3, 80640, Note_on_c, 1, 62, 110
3, 80640, Note_on_c, 1, 59, 110
3, 80732, Note_off_c, 1, 64, 100
3, 80736, Note_on_c, 1, 64, 110
3, 80828, Note_off_c, 1, 62, 100
3, 80828, Note_off_c, 1, 59, 100
3, 80832, Note_on_c, 1, 56, 110
3, 80924, Note_off_c, 1, 64, 100
3, 80928, Note_on_c, 1, 64, 110
3, 81020, Note_off_c, 1, 56, 100
3, 81024, Note_on_c, 1, 62, 110
3, 81024, Note_on_c, 1, 59, 110
3, 81116, Note_off_c, 1, 64, 100
3, 81120, Note_on_c, 1, 64, 110
3, 81212, Note_off_c, 1, 62, 100
3, 81212, Note_off_c, 1, 59, 100
3, 81216, Note_on_c, 1, 56, 110
3, 81308, Note_off_c, 1, 64, 100
3, 81312, Note_on_c, 1, 64, 110
3, 81404, Note_off_c, 1, 56, 100
3, 81408, Note_on_c, 1, 62, 110
3, 81408, Note_on_c, 1, 59, 110
3, 81500, Note_off_c, 1, 64, 100
3, 81504, Note_on_c, 1, 64, 110
3, 81596, Note_off_c, 1, 62, 100
3, 81596, Note_off_c, 1, 59, 100
3, 81600, Note_on_c, 1, 56, 110
3, 81692, Note_off_c, 1, 64, 100
3, 81696, Note_on_c, 1, 64, 110
3, 81788, Note_off_c, 1, 56, 100
3, 81792, Note_on_c, 1, 62, 100
3, 81792, Note_on_c, 1, 59, 100
3, 81884, Note_off_c, 1, 64, 100
3, 81888, Note_on_c, 1, 64, 99
3, 81980, Note_off_c, 1, 62, 100
3, 81980, Note_off_c, 1, 59, 100
3, 81984, Note_on_c, 1, 56, 97
3, 82076, Note_off_c, 1, 64, 100
3, 82080, Note_on_c, 1, 64, 96
3, 82172, Note_off_c, 1, 56, 100
3, 82176, Note_on_c, 1, 59, 94
3, 82176, Note_on_c, 1, 62, 94
3, 82268, Note_off_c, 1, 64, 100
3, 82272, Note_on_c, 1, 64, 92
3, 82364, Note_off_c, 1, 59, 100
3, 82364, Note_off_c, 1, 62, 100
3, 82368, Note_on_c, 1, 57, 80
3, 82460, Note_off_c, 1, 64, 100
3, 82464, Note_on_c, 1, 64, 80
3, 82556, Note_off_c, 1, 57, 100
3, 82560, Note_on_c, 1, 60, 80
3, 82652, Note_off_c, 1, 64, 100
3, 82656, Note_on_c, 1, 64, 80
3, 82748, Note_off_c, 1, 60, 100
3, 82752, Note_on_c, 1, 57, 80
3, 82844, Note_off_c, 1, 64, 100
3, 82848, Note_on_c, 1, 64, 80
3, 82940, Note_off_c, 1, 57, 100
3, 82944, Note_on_c, 1, 52, 80
3, 83036, Note_off_c, 1, 64, 100
3, 83040, Note_on_c, 1, 62, 80
3, 83132, Note_off_c, 1, 52, 100
3, 83136, Note_on_c, 1, 59, 80
3, 83228, Note_off_c, 1, 62, 100
3, 83232, Note_on_c, 1, 62, 80
3, 83324, Note_off_c, 1, 59, 100
3, 83328, Note_on_c, 1, 52, 80
3, 83420, Note_off_c, 1, 62, 100
3, 83424, Note_on_c, 1, 62, 80
3, 83516, Note_off_c, 1, 52, 100
3, 83520, Note_on_c, 1, 60, 80
3, 83520, Note_on_c, 1, 57, 80
3, 83612, Note_off_c, 1, 62, 100
3, 83616, Note_on_c, 1, 64, 80
3, 83708, Note_off_c, 1, 60, 100
3, 83708, Note_off_c, 1, 57, 100
3, 83712, Note_on_c, 1, 62, 110
3, 83712, Note_on_c, 1, 59, 110
3, 83804, Note_off_c, 1, 64, 100
3, 83808, Note_on_c, 1, 64, 110
3, 83900, Note_off_c, 1, 62, 100
3, 83900, Note_off_c, 1, 59, 100
3, 83904, Note_on_c, 1, 56, 110
3, 83996, Note_off_c, 1, 64, 100
3, 84000, Note_on_c, 1, 64, 110
3, 84092, Note_off_c, 1, 56, 100
3, 84096, Note_on_c, 1, 62, 110
3, 84096, Note_on_c, 1, 59, 110
3, 84188, Note_off_c, 1, 64, 100
3, 84192, Note_on_c, 1, 64, 110
3, 84284, Note_off_c, 1, 62, 100
3, 84284, Note_off_c, 1, 59, 100
3, 84288, Note_on_c, 1, 56, 110
3, 84380, Note_off_c, 1, 64, 100
3, 84384, Note_on_c, 1, 64, 110
3, 84476, Note_off_c, 1, 56, 100
3, 84480, Note_on_c, 1, 62, 110
3, 84480, Note_on_c, 1, 59, 110
3, 84572, Note_off_c, 1, 64, 100
3, 84576, Note_on_c, 1, 64, 110
3, 84668, Note_off_c, 1, 62, 100
3, 84668, Note_off_c, 1, 59, 100
3, 84672, Note_on_c, 1, 56, 110
3, 84764, Note_off_c, 1, 64, 100
3, 84768, Note_on_c, 1, 64, 110
3, 84860, Note_off_c, 1, 56, 100
3, 84864, Note_on_c, 1, 62, 110
3, 84864, Note_on_c, 1, 59, 110
3, 84956, Note_off_c, 1, 64, 100
3, 84960, Note_on_c, 1, 64, 110
3, 85052, Note_off_c, 1, 62, 100
3, 85052, Note_off_c, 1, 59, 100
3, 85056, Note_on_c, 1, 56, 110
3, 85148, Note_off_c, 1, 64, 100
3, 85152, Note_on_c, 1, 64, 110
3, 85244, Note_off_c, 1, 56, 100
3, 85248, Note_on_c, 1, 62, 110
3, 85248, Note_on_c, 1, 59, 110
3, 85340, Note_off_c, 1, 64, 100
3, 85344, Note_on_c, 1, 64, 110
3, 85436, Note_off_c, 1, 62, 100
3, 85436, Note_off_c, 1, 59, 100
3, 85440, Note_on_c, 1, 56, 110
3, 85532, Note_off_c, 1, 64, 100
3, 85536, Note_on_c, 1, 64, 110
3, 85628, Note_off_c, 1, 56, 100
3, 85632, Note_on_c, 1, 62, 110
3, 85632, Note_on_c, 1, 59, 110
3, 85724, Note_off_c, 1, 64, 100
3, 85728, Note_on_c, 1, 64, 110
3, 85820, Note_off_c, 1, 62, 100
3, 85820, Note_off_c, 1, 59, 100
3, 85824, Note_on_c, 1, 56, 110
3, 85916, Note_off_c, 1, 64, 100
3, 85920, Note_on_c, 1, 64, 110
3, 86012, Note_off_c, 1, 56, 100
3, 86016, Note_on_c, 1, 62, 110
3, 86016, Note_on_c, 1, 59, 110
3, 86108, Note_off_c, 1, 64, 100
3, 86112, Note_on_c, 1, 64, 100
3, 86204, Note_off_c, 1, 62, 100
3, 86204, Note_off_c, 1, 59, 100
3, 86208, Note_on_c, 1, 56, 99
3, 86300, Note_off_c, 1, 64, 100
3, 86304, Note_on_c, 1, 64, 98
3, 86396, Note_off_c, 1, 56, 100
3, 86400, Note_on_c, 1, 62, 97
3, 86400, Note_on_c, 1, 59, 97
3, 86492, Note_off_c, 1, 64, 100
3, 86496, Note_on_c, 1, 64, 96
3, 86588, Note_off_c, 1, 62, 100
3, 86588, Note_off_c, 1, 59, 100
3, 86592, Note_on_c, 1, 56, 95
3, 86684, Note_off_c, 1, 64, 100
3, 86688, Note_on_c, 1, 64, 94
3, 86780, Note_off_c, 1, 56, 100
3, 86784, Note_on_c, 1, 59, 93
3, 86784, Note_on_c, 1, 62, 93
3, 86876, Note_off_c, 1, 64, 100
3, 86880, Note_on_c, 1, 64, 92
3, 86972, Note_off_c, 1, 59, 100
3, 86972, Note_off_c, 1, 62, 100
3, 86976, Note_on_c, 1, 57, 80
3, 87068, Note_off_c, 1, 64, 100
3, 87072, Note_on_c, 1, 64, 80
3, 87164, Note_off_c, 1, 57, 100
3, 87168, Note_on_c, 1, 60, 80
3, 87260, Note_off_c, 1, 64, 100
3, 87264, Note_on_c, 1, 64, 80
3, 87356, Note_off_c, 1, 60, 100
3, 87360, Note_on_c, 1, 57, 80
3, 87452, Note_off_c, 1, 64, 100
3, 87456, Note_on_c, 1, 64, 80
3, 87548, Note_off_c, 1, 57, 100
3, 87552, Note_on_c, 1, 52, 80
3, 87644, Note_off_c, 1, 64, 100
3, 87648, Note_on_c, 1, 62, 80
3, 87740, Note_off_c, 1, 52, 100
3, 87744, Note_on_c, 1, 59, 80
3, 87836, Note_off_c, 1, 62, 100
3, 87840, Note_on_c, 1, 62, 80
3, 87932, Note_off_c, 1, 59, 100
3, 87936, Note_on_c, 1, 52, 80
3, 88028, Note_off_c, 1, 62, 100
3, 88032, Note_on_c, 1, 62, 80
3, 88124, Note_off_c, 1, 52, 100
3, 88128, Note_on_c, 1, 53, 80
3, 88220, Note_off_c, 1, 62, 100
3, 88224, Note_on_c, 1, 60, 80
3, 88316, Note_off_c, 1, 53, 100
3, 88320, Note_on_c, 1, 57, 80
3, 88412, Note_off_c, 1, 60, 100
3, 88416, Note_on_c, 1, 60, 81
3, 88508, Note_off_c, 1, 57, 100
3, 88512, Note_on_c, 1, 53, 82
3, 88604, Note_off_c, 1, 60, 100
3, 88608, Note_on_c, 1, 60, 84
3, 88700, Note_off_c, 1, 53, 100
3, 88704, Note_on_c, 1, 50, 85
3, 88796, Note_off_c, 1, 60, 100
3, 88800, Note_on_c, 1, 58, 86
3, 88892, Note_off_c, 1, 50, 100
3, 88896, Note_on_c, 1, 53, 88
3, 88988, Note_off_c, 1, 58, 100
3, 88992, Note_on_c, 1, 58, 89
3, 89084, Note_off_c, 1, 53, 100
3, 89088, Note_on_c, 1, 50, 90
3, 89180, Note_off_c, 1, 58, 100
3, 89184, Note_on_c, 1, 58, 92
3, 89276, Note_off_c, 1, 50, 100
3, 89280, Note_on_c, 1, 52, 93
3, 89372, Note_off_c, 1, 58, 100
3, 89376, Note_on_c, 1, 60, 94
3, 89468, Note_off_c, 1, 52, 100
3, 89472, Note_on_c, 1, 57, 96
3, 89564, Note_off_c, 1, 60, 100
3, 89568, Note_on_c, 1, 60, 97
3, 89660, Note_off_c, 1, 57, 100
3, 89664, Note_on_c, 1, 52, 99
3, 89756, Note_off_c, 1, 60, 100
3, 89760, Note_on_c, 1, 60, 100
3, 89852, Note_off_c, 1, 52, 100
3, 89856, Note_on_c, 1, 50, 101
3, 89948, Note_off_c, 1, 60, 100
3, 89952, Note_on_c, 1, 59, 103
3, 90044, Note_off_c, 1, 50, 100
3, 90048, Note_on_c, 1, 52, 104
3, 90140, Note_off_c, 1, 59, 100
3, 90144, Note_on_c, 1, 59, 105
3, 90236, Note_off_c, 1, 52, 100
3, 90240, Note_on_c, 1, 50, 107
3, 90332, Note_off_c, 1, 59, 100
3, 90336, Note_on_c, 1, 59, 108
3, 90428, Note_off_c, 1, 50, 100
3, 90432, Note_on_c, 1, 48, 110
3, 90524, Note_off_c, 1, 59, 100
3, 90528, Note_on_c, 1, 57, 110
3, 90620, Note_off_c, 1, 48, 100
3, 90624, Note_on_c, 1, 47, 110
3, 90716, Note_off_c, 1, 57, 100
3, 90720, Note_on_c, 1, 57, 110
3, 90812, Note_off_c, 1, 47, 100
3, 90816, Note_on_c, 1, 48, 110
3, 90908, Note_off_c, 1, 57, 100
3, 90912, Note_on_c, 1, 57, 110
3, 91004, Note_off_c, 1, 48, 100
3, 91008, Note_on_c, 1, 50, 110
3, 91100, Note_off_c, 1, 57, 100
3, 91104, Note_on_c, 1, 59, 110
3, 91104, Note_on_c, 1, 57, 110
3, 91196, Note_off_c, 1, 50, 100
3, 91200, Note_on_c, 1, 48, 110
3, 91292, Note_off_c, 1, 59, 100
3, 91292, Note_off_c, 1, 57, 100
3, 91296, Note_on_c, 1, 59, 110
3, 91296, Note_on_c, 1, 57, 110
3, 91388, Note_off_c, 1, 48, 100
3, 91392, Note_on_c, 1, 50, 110
3, 91484, Note_off_c, 1, 59, 100
3, 91484, Note_off_c, 1, 57, 100
3, 91488, Note_on_c, 1, 59, 110
3, 91488, Note_on_c, 1, 57, 110
3, 91580, Note_off_c, 1, 50, 100
3, 91584, Note_on_c, 1, 52, 110
3, 91676, Note_off_c, 1, 57, 100
3, 91676, Note_off_c, 1, 59, 100
3, 91680, Note_on_c, 1, 60, 110
3, 91680, Note_on_c, 1, 57, 110
3, 91772, Note_off_c, 1, 52, 100
3, 91776, Note_on_c, 1, 51, 110
3, 91868, Note_off_c, 1, 60, 100
3, 91868, Note_off_c, 1, 57, 100
3, 91872, Note_on_c, 1, 60, 110
3, 91872, Note_on_c, 1, 57, 110
3, 91964, Note_off_c, 1, 51, 100
3, 91968, Note_on_c, 1, 52, 110
3, 92060, Note_off_c, 1, 60, 100
3, 92060, Note_off_c, 1, 57, 100
3, 92064, Note_on_c, 1, 60, 110
3, 92064, Note_on_c, 1, 57, 110
3, 92156, Note_off_c, 1, 52, 100
3, 92160, Note_on_c, 1, 52, 110
3, 92252, Note_off_c, 1, 57, 100
3, 92252, Note_off_c, 1, 60, 100
3, 92256, Note_on_c, 1, 62, 110
3, 92256, Note_on_c, 1, 59, 110
3, 92348, Note_off_c, 1, 52, 100
3, 92352, Note_on_c, 1, 52, 110
3, 92444, Note_off_c, 1, 62, 100
3, 92444, Note_off_c, 1, 59, 100
3, 92448, Note_on_c, 1, 60, 110
3, 92448, Note_on_c, 1, 57, 110
3, 92540, Note_off_c, 1, 52, 100
3, 92544, Note_on_c, 1, 52, 110
3, 92636, Note_off_c, 1, 60, 100
3, 92636, Note_off_c, 1, 57, 100
3, 92640, Note_on_c, 1, 59, 110
3, 92640, Note_on_c, 1, 56, 110
3, 92732, Note_off_c, 1, 52, 100
3, 92736, Note_on_c, 1, 45, 80
3, 92828, Note_off_c, 1, 56, 100
3, 92828, Note_off_c, 1, 59, 100
3, 92832, Note_on_c, 1, 60, 80
3, 92924, Note_off_c, 1, 45, 100
3, 92928, Note_on_c, 1, 57, 80
3, 93020, Note_off_c, 1, 60, 100
3, 93024, Note_on_c, 1, 60, 80
3, 93116, Note_off_c, 1, 57, 100
3, 93120, Note_on_c, 1, 52, 80
3, 93212, Note_off_c, 1, 60, 100
3, 93216, Note_on_c, 1, 60, 80
3, 93308, Note_off_c, 1, 52, 100
3, 93312, Note_on_c, 1, 45, 80
3, 93404, Note_off_c, 1, 60, 100
3, 93408, Note_on_c, 1, 60, 80
3, 93500, Note_off_c, 1, 45, 100
3, 93504, Note_on_c, 1, 57, 80
3, 93596, Note_off_c, 1, 60, 100
3, 93600, Note_on_c, 1, 60, 80
3, 93692, Note_off_c, 1, 57, 100
3, 93696, Note_on_c, 1, 52, 80
3, 93788, Note_off_c, 1, 60, 100
3, 93792, Note_on_c, 1, 60, 80
3, 93884, Note_off_c, 1, 52, 100
3, 93888, Note_on_c, 1, 45, 80
3, 93980, Note_off_c, 1, 60, 100
3, 93984, Note_on_c, 1, 60, 80
3, 94076, Note_off_c, 1, 45, 100
3, 94080, Note_on_c, 1, 57, 80
3, 94172, Note_off_c, 1, 60, 100
3, 94176, Note_on_c, 1, 60, 80
3, 94268, Note_off_c, 1, 57, 100
3, 94272, Note_on_c, 1, 52, 80
3, 94364, Note_off_c, 1, 60, 100
3, 94368, Note_on_c, 1, 60, 80
3, 94460, Note_off_c, 1, 52, 100
3, 94464, Note_on_c, 1, 45, 80
3, 94556, Note_off_c, 1, 60, 100
3, 94560, Note_on_c, 1, 60, 80
3, 94652, Note_off_c, 1, 45, 100
3, 94656, Note_on_c, 1, 57, 80
3, 94748, Note_off_c, 1, 60, 100
3, 94752, Note_on_c, 1, 60, 80
3, 94844, Note_off_c, 1, 57, 100
3, 94848, Note_on_c, 1, 52, 80
3, 94940, Note_off_c, 1, 60, 100
3, 94944, Note_on_c, 1, 60, 80
3, 95036, Note_off_c, 1, 52, 100
3, 95040, Note_on_c, 1, 45, 80
3, 95132, Note_off_c, 1, 60, 100
3, 95136, Note_on_c, 1, 60, 81
3, 95228, Note_off_c, 1, 45, 100
3, 95232, Note_on_c, 1, 57, 83
3, 95324, Note_off_c, 1, 60, 100
3, 95328, Note_on_c, 1, 60, 84
3, 95420, Note_off_c, 1, 57, 100
3, 95424, Note_on_c, 1, 52, 86
3, 95516, Note_off_c, 1, 60, 100
3, 95520, Note_on_c, 1, 60, 88
3, 95612, Note_off_c, 1, 52, 100
3, 95616, Note_on_c, 1, 40, 89
3, 95708, Note_off_c, 1, 60, 100
3, 95712, Note_on_c, 1, 62, 91
3, 95804, Note_off_c, 1, 40, 100
3, 95808, Note_on_c, 1, 59, 93
3, 95900, Note_off_c, 1, 62, 100
3, 95904, Note_on_c, 1, 62, 94
3, 95996, Note_off_c, 1, 59, 100
3, 96000, Note_on_c, 1, 52, 96
3, 96092, Note_off_c, 1, 62, 100
3, 96096, Note_on_c, 1, 62, 98
3, 96188, Note_off_c, 1, 52, 100
3, 96192, Note_on_c, 1, 45, 100
3, 96284, Note_off_c, 1, 62, 100
3, 96288, Note_on_c, 1, 60, 80
3, 96380, Note_off_c, 1, 45, 100
3, 96384, Note_on_c, 1, 57, 80
3, 96476, Note_off_c, 1, 60, 100
3, 96480, Note_on_c, 1, 60, 80
3, 96572, Note_off_c, 1, 57, 100
3, 96576, Note_on_c, 1, 52, 80
3, 96668, Note_off_c, 1, 60, 100
3, 96672, Note_on_c, 1, 60, 80
3, 96764, Note_off_c, 1, 52, 100
3, 96768, Note_on_c, 1, 45, 80
3, 96860, Note_off_c, 1, 60, 100
3, 96864, Note_on_c, 1, 60, 80
3, 96956, Note_off_c, 1, 45, 100
3, 96960, Note_on_c, 1, 57, 80
3, 97052, Note_off_c, 1, 60, 100
3, 97056, Note_on_c, 1, 60, 80
3, 97148, Note_off_c, 1, 57, 100
3, 97152, Note_on_c, 1, 52, 80
3, 97244, Note_off_c, 1, 60, 100
3, 97248, Note_on_c, 1, 60, 80
3, 97340, Note_off_c, 1, 52, 100
3, 97344, Note_on_c, 1, 45, 80
3, 97436, Note_off_c, 1, 60, 100
3, 97440, Note_on_c, 1, 60, 80
3, 97532, Note_off_c, 1, 45, 100
3, 97536, Note_on_c, 1, 57, 80
3, 97628, Note_off_c, 1, 60, 100
3, 97632, Note_on_c, 1, 60, 80
3, 97724, Note_off_c, 1, 57, 100
3, 97728, Note_on_c, 1, 52, 80
3, 97820, Note_off_c, 1, 60, 100
3, 97824, Note_on_c, 1, 60, 80
3, 97916, Note_off_c, 1, 52, 100
3, 97920, Note_on_c, 1, 45, 80
3, 98012, Note_off_c, 1, 60, 100
3, 98016, Note_on_c, 1, 60, 80
3, 98108, Note_off_c, 1, 45, 100
3, 98112, Note_on_c, 1, 57, 80
3, 98204, Note_off_c, 1, 60, 100
3, 98208, Note_on_c, 1, 60, 80
3, 98300, Note_off_c, 1, 57, 100
3, 98304, Note_on_c, 1, 52, 80
3, 98396, Note_off_c, 1, 60, 100
3, 98400, Note_on_c, 1, 60, 80
3, 98492, Note_off_c, 1, 52, 100
3, 98496, Note_on_c, 1, 45, 80
3, 98588, Note_off_c, 1, 60, 100
3, 98592, Note_on_c, 1, 60, 81
3, 98684, Note_off_c, 1, 45, 100
3, 98688, Note_on_c, 1, 57, 83
3, 98780, Note_off_c, 1, 60, 100
3, 98784, Note_on_c, 1, 60, 84
3, 98876, Note_off_c, 1, 57, 100
3, 98880, Note_on_c, 1, 52, 86
3, 98972, Note_off_c, 1, 60, 100
3, 98976, Note_on_c, 1, 60, 88
3, 99068, Note_off_c, 1, 52, 100
3, 99072, Note_on_c, 1, 40, 89
3, 99164, Note_off_c, 1, 60, 100
3, 99168, Note_on_c, 1, 62, 91
3, 99260, Note_off_c, 1, 40, 100
3, 99264, Note_on_c, 1, 59, 93
3, 99356, Note_off_c, 1, 62, 100
3, 99360, Note_on_c, 1, 62, 94
3, 99452, Note_off_c, 1, 59, 100
3, 99456, Note_on_c, 1, 52, 96
3, 99548, Note_off_c, 1, 62, 100
3, 99552, Note_on_c, 1, 62, 98
3, 99644, Note_off_c, 1, 52, 100
3, 99648, Note_on_c, 1, 45, 100
3, 99740, Note_off_c, 1, 62, 100
3, 99744, Note_on_c, 1, 57, 101
3, 99836, Note_off_c, 1, 45, 100
3, 99840, Note_on_c, 1, 56, 103
3, 99932, Note_off_c, 1, 57, 100
3, 99936, Note_on_c, 1, 57, 104
3, 100028, Note_off_c, 1, 56, 100
3, 100032, Note_on_c, 1, 55, 106
3, 100124, Note_off_c, 1, 57, 100
3, 100128, Note_on_c, 1, 57, 108
3, 100220, Note_off_c, 1, 55, 100
3, 100224, Note_on_c, 1, 53, 110
3, 100316, Note_off_c, 1, 57, 100
3, 100320, Note_on_c, 1, 57, 109
3, 100412, Note_off_c, 1, 53, 100
3, 100416, Note_on_c, 1, 52, 107
3, 100508, Note_off_c, 1, 57, 100
3, 100512, Note_on_c, 1, 57, 106
3, 100604, Note_off_c, 1, 52, 100
3, 100608, Note_on_c, 1, 51, 104
3, 100700, Note_off_c, 1, 57, 100
3, 100704, Note_on_c, 1, 57, 102
3, 100796, Note_off_c, 1, 51, 100
3, 100800, Note_on_c, 1, 52, 101
3, 100892, Note_off_c, 1, 57, 100
3, 100896, Note_on_c, 1, 57, 100
3, 100988, Note_off_c, 1, 52, 100
3, 100992, Note_on_c, 1, 59, 100
3, 101084, Note_off_c, 1, 57, 100
3, 101088, Note_on_c, 1, 52, 100
3, 101180, Note_off_c, 1, 59, 100
3, 101184, Note_on_c, 1, 60, 100
3, 101276, Note_off_c, 1, 52, 100
3, 101280, Note_on_c, 1, 52, 100
3, 101372, Note_off_c, 1, 60, 100
3, 101376, Note_on_c, 1, 62, 100
3, 101468, Note_off_c, 1, 52, 100
3, 101472, Note_on_c, 1, 52, 100
3, 101564, Note_off_c, 1, 62, 100
3, 101568, Note_on_c, 1, 60, 100
3, 101660, Note_off_c, 1, 52, 100
3, 101664, Note_on_c, 1, 52, 100
3, 101756, Note_off_c, 1, 60, 100
3, 101760, Note_on_c, 1, 59, 100
3, 101852, Note_off_c, 1, 52, 100
3, 101856, Note_on_c, 1, 52, 100
3, 101948, Note_off_c, 1, 59, 100
3, 101952, Note_on_c, 1, 45, 100
3, 102044, Note_off_c, 1, 52, 100
3, 102048, Note_on_c, 1, 57, 101
3, 102140, Note_off_c, 1, 45, 100
3, 102144, Note_on_c, 1, 56, 103
3, 102236, Note_off_c, 1, 57, 100
3, 102240, Note_on_c, 1, 57, 104
3, 102332, Note_off_c, 1, 56, 100
3, 102336, Note_on_c, 1, 55, 106
3, 102428, Note_off_c, 1, 57, 100
3, 102432, Note_on_c, 1, 57, 108
3, 102524, Note_off_c, 1, 55, 100
3, 102528, Note_on_c, 1, 53, 109
3, 102620, Note_off_c, 1, 57, 100
3, 102624, Note_on_c, 1, 57, 109
3, 102716, Note_off_c, 1, 53, 100
3, 102720, Note_on_c, 1, 52, 107
3, 102812, Note_off_c, 1, 57, 100
3, 102816, Note_on_c, 1, 57, 106
3, 102908, Note_off_c, 1, 52, 100
3, 102912, Note_on_c, 1, 51, 104
3, 103004, Note_off_c, 1, 57, 100
3, 103008, Note_on_c, 1, 57, 102
3, 103100, Note_off_c, 1, 51, 100
3, 103104, Note_on_c, 1, 52, 101
3, 103196, Note_off_c, 1, 57, 100
3, 103200, Note_on_c, 1, 57, 100
3, 103292, Note_off_c, 1, 52, 100
3, 103296, Note_on_c, 1, 59, 100
3, 103388, Note_off_c, 1, 57, 100
3, 103392, Note_on_c, 1, 52, 100
3, 103484, Note_off_c, 1, 59, 100
3, 103488, Note_on_c, 1, 60, 100
3, 103580, Note_off_c, 1, 52, 100
3, 103584, Note_on_c, 1, 52, 100
3, 103676, Note_off_c, 1, 60, 100
3, 103680, Note_on_c, 1, 62, 100
3, 103772, Note_off_c, 1, 52, 100
3, 103776, Note_on_c, 1, 52, 100
3, 103868, Note_off_c, 1, 62, 100
3, 103872, Note_on_c, 1, 60, 100
3, 103964, Note_off_c, 1, 52, 100
3, 103968, Note_on_c, 1, 52, 100
3, 104060, Note_off_c, 1, 60, 100
3, 104064, Note_on_c, 1, 59, 100
3, 104156, Note_off_c, 1, 52, 100
3, 104160, Note_on_c, 1, 52, 100
3, 104252, Note_off_c, 1, 59, 100
3, 104256, Note_on_c, 1, 45, 112
3, 104348, Note_off_c, 1, 52, 100
3, 104352, Note_on_c, 1, 57, 100
3, 104444, Note_off_c, 1, 45, 100
3, 104448, Note_on_c, 1, 56, 100
3, 104540, Note_off_c, 1, 57, 100
3, 104544, Note_on_c, 1, 57, 100
3, 104636, Note_off_c, 1, 56, 100
3, 104640, Note_on_c, 1, 45, 100
3, 104732, Note_off_c, 1, 57, 100
3, 104736, Note_on_c, 1, 57, 100
3, 104828, Note_off_c, 1, 45, 100
3, 104832, Note_on_c, 1, 56, 120
3, 104924, Note_off_c, 1, 57, 100
3, 104928, Note_on_c, 1, 57, 100
3, 105020, Note_off_c, 1, 56, 100
3, 105024, Note_on_c, 1, 45, 100
3, 105116, Note_off_c, 1, 57, 100
3, 105120, Note_on_c, 1, 57, 100
3, 105212, Note_off_c, 1, 45, 100
3, 105216, Note_on_c, 1, 56, 100
3, 105308, Note_off_c, 1, 57, 100
3, 105312, Note_on_c, 1, 57, 100
3, 105404, Note_off_c, 1, 56, 100
3, 105408, Note_on_c, 1, 45, 112
3, 105500, Note_off_c, 1, 57, 100
3, 105504, Note_on_c, 1, 57, 100
3, 105596, Note_off_c, 1, 45, 100
3, 105600, Note_on_c, 1, 56, 100
3, 105692, Note_off_c, 1, 57, 100
3, 105696, Note_on_c, 1, 57, 100
3, 105788, Note_off_c, 1, 56, 100
3, 105792, Note_on_c, 1, 45, 100
3, 105884, Note_off_c, 1, 57, 100
3, 105888, Note_on_c, 1, 57, 100
3, 105980, Note_off_c, 1, 45, 100
3, 105984, Note_on_c, 1, 56, 120
3, 106076, Note_off_c, 1, 57, 100
3, 106080, Note_on_c, 1, 57, 100
3, 106172, Note_off_c, 1, 56, 100
3, 106176, Note_on_c, 1, 45, 100
3, 106268, Note_off_c, 1, 57, 100
3, 106272, Note_on_c, 1, 57, 100
3, 106364, Note_off_c, 1, 45, 100
3, 106368, Note_on_c, 1, 56, 100
3, 106460, Note_off_c, 1, 57, 100
3, 106464, Note_on_c, 1, 57, 100
3, 106556, Note_off_c, 1, 56, 100
3, 106560, Note_on_c, 1, 67, 100
3, 106560, Note_on_c, 1, 64, 100
3, 106560, Note_on_c, 1, 61, 100
3, 106652, Note_off_c, 1, 57, 100
3, 106748, Note_off_c, 1, 67, 100
3, 106748, Note_off_c, 1, 64, 100
3, 106748, Note_off_c, 1, 61, 100
3, 108864, Note_on_c, 1, 66, 80
3, 108960, Note_on_c, 1, 69, 80
3, 109056, Note_on_c, 1, 72, 80
3, 109244, Note_off_c, 1, 69, 100
3, 109244, Note_off_c, 1, 72, 100
3, 109436, Note_off_c, 1, 66, 100
3, 109440, Note_on_c, 1, 66, 80
3, 109536, Note_on_c, 1, 69, 80
3, 109632, Note_on_c, 1, 72, 80
3, 109820, Note_off_c, 1, 69, 100
3, 109820, Note_off_c, 1, 72, 100
3, 110012, Note_off_c, 1, 66, 100
3, 110016, Note_on_c, 1, 66, 80
3, 110112, Note_on_c, 1, 69, 80
3, 110208, Note_on_c, 1, 72, 80
3, 110396, Note_off_c, 1, 69, 100
3, 110396, Note_off_c, 1, 72, 100
3, 110588, Note_off_c, 1, 66, 100
3, 110592, Note_on_c, 1, 66, 80
3, 110688, Note_on_c, 1, 69, 80
3, 110784, Note_on_c, 1, 72, 80
3, 110972, Note_off_c, 1, 69, 100
3, 110972, Note_off_c, 1, 72, 100
3, 111164, Note_off_c, 1, 66, 100
3, 111168, Control_c, 1, 64, 127
3, 111168, Note_on_c, 1, 31, 110
3, 111264, Note_on_c, 1, 34, 110
3, 111360, Note_on_c, 1, 38, 110
3, 111456, Note_on_c, 1, 43, 110
3, 111548, Note_off_c, 1, 31, 100
3, 111644, Note_off_c, 1, 34, 100
3, 111740, Note_off_c, 1, 38, 100
3, 111740, Note_off_c, 1, 43, 100
3, 111740, Control_c, 1, 64, 0
3, 111744, Control_c, 1, 64, 127
3, 111744, Note_on_c, 1, 43, 110
3, 111840, Note_on_c, 1, 46, 110
3, 111936, Note_on_c, 1, 50, 110
3, 112032, Note_on_c, 1, 55, 110
3, 112124, Note_off_c, 1, 43, 100
3, 112220, Note_off_c, 1, 46, 100
3, 112316, Note_off_c, 1, 50, 100
3, 112316, Note_off_c, 1, 55, 100
3, 112316, Control_c, 1, 64, 0
3, 112320, Control_c, 1, 64, 127
3, 112320, Note_on_c, 1, 55, 110
3, 112416, Note_on_c, 1, 58, 110
3, 112512, Note_on_c, 1, 62, 110
3, 112608, Note_on_c, 1, 67, 110
3, 112700, Note_off_c, 1, 55, 100
3, 112796, Note_off_c, 1, 58, 100
3, 112892, Note_off_c, 1, 62, 100
3, 112892, Note_off_c, 1, 67, 100
3, 112892, Control_c, 1, 64, 0
3, 112896, Note_on_c, 1, 67, 110
3, 112992, Note_on_c, 1, 70, 110
3, 113084, Note_off_c, 1, 67, 100
3, 113088, Note_on_c, 1, 74, 110
3, 113180, Note_off_c, 1, 70, 100
3, 113184, Note_on_c, 1, 72, 110
3, 113276, Note_off_c, 1, 74, 100
3, 113280, Note_on_c, 1, 70, 110
3, 113372, Note_off_c, 1, 72, 100
3, 113376, Note_on_c, 1, 69, 110
3, 113468, Note_off_c, 1, 70, 100
3, 113472, Note_on_c, 1, 68, 80
3, 113564, Note_off_c, 1, 69, 100
3, 113568, Note_on_c, 1, 71, 80
3, 113664, Note_on_c, 1, 74, 80
3, 113756, Note_off_c, 1, 71, 100
3, 113852, Note_off_c, 1, 74, 100
3, 114044, Note_off_c, 1, 68, 100
3, 114048, Note_on_c, 1, 68, 80
3, 114144, Note_on_c, 1, 71, 80
3, 114240, Note_on_c, 1, 74, 80
3, 114332, Note_off_c, 1, 71, 100
3, 114428, Note_off_c, 1, 74, 100
3, 114620, Note_off_c, 1, 68, 100
3, 114624, Note_on_c, 1, 68, 80
3, 114720, Note_on_c, 1, 71, 80
3, 114816, Note_on_c, 1, 74, 80
3, 114908, Note_off_c, 1, 71, 100
3, 115004, Note_off_c, 1, 74, 100
3, 115196, Note_off_c, 1, 68, 100
3, 115200, Note_on_c, 1, 68, 80
3, 115296, Note_on_c, 1, 71, 80
3, 115392, Note_on_c, 1, 74, 80
3, 115484, Note_off_c, 1, 71, 100
3, 115580, Note_off_c, 1, 74, 100
3, 115772, Note_off_c, 1, 68, 100
3, 115776, Control_c, 1, 64, 127
3, 115776, Note_on_c, 1, 33, 110
3, 115872, Note_on_c, 1, 36, 110
3, 115968, Note_on_c, 1, 40, 110
3, 116064, Note_on_c, 1, 45, 110
3, 116156, Note_off_c, 1, 33, 100
3, 116252, Note_off_c, 1, 36, 100
3, 116348, Note_off_c, 1, 40, 100
3, 116348, Note_off_c, 1, 45, 100
3, 116348, Control_c, 1, 64, 0
3, 116352, Control_c, 1, 64, 127
3, 116352, Note_on_c, 1, 45, 110
3, 116448, Note_on_c, 1, 48, 110
3, 116544, Note_on_c, 1, 52, 110
3, 116640, Note_on_c, 1, 57, 110
3, 116732, Note_off_c, 1, 45, 100
3, 116828, Note_off_c, 1, 48, 100
3, 116924, Note_off_c, 1, 52, 100
3, 116924, Note_off_c, 1, 57, 100
3, 116924, Control_c, 1, 64, 0
3, 116928, Control_c, 1, 64, 127
3, 116928, Note_on_c, 1, 57, 110
3, 117024, Note_on_c, 1, 60, 110
3, 117120, Note_on_c, 1, 64, 110
3, 117216, Note_on_c, 1, 69, 110
3, 117308, Note_off_c, 1, 57, 100
3, 117404, Note_off_c, 1, 60, 100
3, 117500, Note_off_c, 1, 64, 100
3, 117500, Note_off_c, 1, 69, 100
3, 117600, Note_on_c, 1, 45, 110
3, 117692, Control_c, 1, 64, 0
3, 117696, Note_on_c, 1, 46, 110
3, 117788, Note_off_c, 1, 45, 100
3, 117792, Note_on_c, 1, 43, 110
3, 117884, Note_off_c, 1, 46, 100
3, 117888, Note_on_c, 1, 52, 110
3, 117980, Note_off_c, 1, 43, 100
3, 117984, Note_on_c, 1, 50, 110
3, 118076, Note_off_c, 1, 52, 100
3, 118080, Note_on_c, 1, 49, 100
3, 118172, Note_off_c, 1, 50, 100
3, 118268, Note_off_c, 1, 49, 100
3, 118368, Note_on_c, 1, 49, 100
3, 118464, Note_on_c, 1, 55, 100
3, 118556, Note_off_c, 1, 49, 100
3, 118560, Note_on_c, 1, 53, 100
3, 118652, Note_off_c, 1, 55, 100
3, 118656, Note_on_c, 1, 52, 100
3, 118748, Note_off_c, 1, 53, 100
3, 118844, Note_off_c, 1, 52, 100
3, 118944, Note_on_c, 1, 52, 100
3, 119040, Note_on_c, 1, 58, 100
3, 119132, Note_off_c, 1, 52, 100
3, 119136, Note_on_c, 1, 57, 100
3, 119228, Note_off_c, 1, 58, 100
3, 119232, Note_on_c, 1, 55, 100
3, 119324, Note_off_c, 1, 57, 100
3, 119420, Note_off_c, 1, 55, 100
3, 119520, Note_on_c, 1, 55, 100
3, 119616, Note_on_c, 1, 64, 100
3, 119708, Note_off_c, 1, 55, 100
3, 119712, Note_on_c, 1, 62, 100
3, 119804, Note_off_c, 1, 64, 100
3, 119808, Note_on_c, 1, 61, 100
3, 119900, Note_off_c, 1, 62, 100
3, 119996, Note_off_c, 1, 61, 100
3, 120096, Note_on_c, 1, 41, 100
3, 120192, Note_on_c, 1, 45, 100
3, 120284, Note_off_c, 1, 41, 100
3, 120288, Note_on_c, 1, 43, 100
3, 120380, Note_off_c, 1, 45, 100
3, 120384, Note_on_c, 1, 41, 100
3, 120476, Note_off_c, 1, 43, 100
3, 120572, Note_off_c, 1, 41, 100
3, 120672, Note_on_c, 1, 41, 100
3, 120768, Note_on_c, 1, 53, 100
3, 120860, Note_off_c, 1, 41, 100
3, 120864, Note_on_c, 1, 52, 100
3, 120956, Note_off_c, 1, 53, 100
3, 120960, Note_on_c, 1, 50, 100
3, 121052, Note_off_c, 1, 52, 100
3, 121148, Note_off_c, 1, 50, 100
3, 121248, Note_on_c, 1, 50, 100
3, 121344, Note_on_c, 1, 57, 100
3, 121436, Note_off_c, 1, 50, 100
3, 121440, Note_on_c, 1, 55, 100
3, 121532, Note_off_c, 1, 57, 100
3, 121536, Note_on_c, 1, 53, 100
3, 121628, Note_off_c, 1, 55, 100
3, 121724, Note_off_c, 1, 53, 100
3, 121824, Note_on_c, 1, 53, 100
3, 121920, Note_on_c, 1, 65, 100
3, 122012, Note_off_c, 1, 53, 100
3, 122016, Note_on_c, 1, 64, 100
3, 122108, Note_off_c, 1, 65, 100
3, 122112, Note_on_c, 1, 62, 100
3, 122204, Note_off_c, 1, 64, 100
3, 122208, Note_on_c, 1, 65, 100
3, 122300, Note_off_c, 1, 62, 100
3, 122304, Note_on_c, 1, 68, 100
3, 122396, Note_off_c, 1, 65, 100
3, 122492, Note_off_c, 1, 68, 100
3, 122784, Note_on_c, 1, 38, 100
3, 122880, Note_on_c, 1, 41, 100
3, 122972, Note_off_c, 1, 38, 100
3, 122976, Note_on_c, 1, 44, 100
3, 123068, Note_off_c, 1, 41, 100
3, 123072, Note_on_c, 1, 47, 100
3, 123164, Note_off_c, 1, 44, 100
3, 123260, Note_off_c, 1, 47, 100
3, 123360, Note_on_c, 1, 41, 100
3, 123456, Note_on_c, 1, 44, 100
3, 123548, Note_off_c, 1, 41, 100
3, 123552, Note_on_c, 1, 47, 100
3, 123644, Note_off_c, 1, 44, 100
3, 123648, Note_on_c, 1, 50, 100
3, 123740, Note_off_c, 1, 47, 100
3, 123836, Note_off_c, 1, 50, 100
3, 123936, Note_on_c, 1, 47, 100
3, 124032, Note_on_c, 1, 50, 100
3, 124124, Note_off_c, 1, 47, 100
3, 124128, Note_on_c, 1, 53, 100
3, 124220, Note_off_c, 1, 50, 100
3, 124224, Note_on_c, 1, 56, 100
3, 124316, Note_off_c, 1, 53, 100
3, 124412, Note_off_c, 1, 56, 100
3, 124512, Note_on_c, 1, 56, 100
3, 124608, Note_on_c, 1, 55, 100
3, 124700, Note_off_c, 1, 56, 100
3, 124704, Note_on_c, 1, 53, 100
3, 124796, Note_off_c, 1, 55, 100
3, 124800, Note_on_c, 1, 51, 100
3, 124892, Note_off_c, 1, 53, 100
3, 124896, Note_on_c, 1, 50, 100
3, 124988, Note_off_c, 1, 51, 100
3, 124992, Note_on_c, 1, 48, 100
3, 125084, Note_off_c, 1, 50, 100
3, 125088, Note_on_c, 1, 39, 100
3, 125180, Note_off_c, 1, 48, 100
3, 125184, Note_on_c, 1, 43, 100
3, 125276, Note_off_c, 1, 39, 100
3, 125280, Note_on_c, 1, 48, 100
3, 125372, Note_off_c, 1, 43, 100
3, 125468, Note_off_c, 1, 48, 100
3, 125664, Note_on_c, 1, 43, 100
3, 125760, Note_on_c, 1, 48, 100
3, 125852, Note_off_c, 1, 43, 100
3, 125856, Note_on_c, 1, 51, 100
3, 125948, Note_off_c, 1, 48, 100
3, 126044, Note_off_c, 1, 51, 100
3, 126240, Note_on_c, 1, 48, 100
3, 126336, Note_on_c, 1, 51, 100
3, 126428, Note_off_c, 1, 48, 100
3, 126432, Note_on_c, 1, 55, 100
3, 126524, Note_off_c, 1, 51, 100
3, 126620, Note_off_c, 1, 55, 100
3, 127008, Note_on_c, 1, 36, 100
3, 127104, Note_on_c, 1, 48, 100
3, 127196, Note_off_c, 1, 36, 100
3, 127200, Note_on_c, 1, 46, 100
3, 127292, Note_off_c, 1, 48, 100
3, 127296, Note_on_c, 1, 45, 100
3, 127388, Note_off_c, 1, 46, 100
3, 127484, Note_off_c, 1, 45, 100
3, 127584, Note_on_c, 1, 45, 100
3, 127680, Note_on_c, 1, 51, 100
3, 127772, Note_off_c, 1, 45, 100
3, 127776, Note_on_c, 1, 49, 100
3, 127868, Note_off_c, 1, 51, 100
3, 127872, Note_on_c, 1, 48, 100
3, 127964, Note_off_c, 1, 49, 100
3, 128060, Note_off_c, 1, 48, 100
3, 128160, Note_on_c, 1, 48, 100
3, 128256, Note_on_c, 1, 54, 100
3, 128348, Note_off_c, 1, 48, 100
3, 128352, Note_on_c, 1, 53, 100
3, 128444, Note_off_c, 1, 54, 100
3, 128448, Note_on_c, 1, 51, 100
3, 128540, Note_off_c, 1, 53, 100
3, 128636, Note_off_c, 1, 51, 100
3, 128736, Note_on_c, 1, 51, 100
3, 128832, Note_on_c, 1, 60, 100
3, 128924, Note_off_c, 1, 51, 100
3, 128928, Note_on_c, 1, 58, 100
3, 129020, Note_off_c, 1, 60, 100
3, 129024, Note_on_c, 1, 57, 100
3, 129116, Note_off_c, 1, 58, 100
3, 129212, Note_off_c, 1, 57, 100
3, 129312, Note_on_c, 1, 37, 100
3, 129408, Note_on_c, 1, 49, 100
3, 129500, Note_off_c, 1, 37, 100
3, 129504, Note_on_c, 1, 48, 100
3, 129596, Note_off_c, 1, 49, 100
3, 129600, Note_on_c, 1, 46, 100
3, 129692, Note_off_c, 1, 48, 100
3, 129788, Note_off_c, 1, 46, 100
3, 129888, Note_on_c, 1, 46, 100
3, 129984, Note_on_c, 1, 53, 100
3, 130076, Note_off_c, 1, 46, 100
3, 130080, Note_on_c, 1, 51, 100
3, 130172, Note_off_c, 1, 53, 100
3, 130176, Note_on_c, 1, 49, 100
3, 130268, Note_off_c, 1, 51, 100
3, 130364, Note_off_c, 1, 49, 100
3, 130464, Note_on_c, 1, 49, 100
3, 130560, Note_on_c, 1, 61, 100
3, 130652, Note_off_c, 1, 49, 100
3, 130656, Note_on_c, 1, 60, 100
3, 130748, Note_off_c, 1, 61, 100
3, 130752, Note_on_c, 1, 58, 100
3, 130844, Note_off_c, 1, 60, 100
3, 130940, Note_off_c, 1, 58, 100
3, 131040, Note_on_c, 1, 58, 100
3, 131136, Note_on_c, 1, 65, 100
3, 131228, Note_off_c, 1, 58, 100
3, 131232, Note_on_c, 1, 63, 100
3, 131324, Note_off_c, 1, 65, 100
3, 131328, Note_on_c, 1, 61, 100
3, 131420, Note_off_c, 1, 63, 100
3, 131424, Note_on_c, 1, 65, 100
3, 131516, Note_off_c, 1, 61, 100
3, 131520, Note_on_c, 1, 70, 100
3, 131612, Note_off_c, 1, 65, 100
3, 131708, Note_off_c, 1, 70, 100
3, 132000, Note_on_c, 1, 39, 100
3, 132096, Note_on_c, 1, 42, 100
3, 132188, Note_off_c, 1, 39, 100
3, 132192, Note_on_c, 1, 46, 100
3, 132284, Note_off_c, 1, 42, 100
3, 132380, Note_off_c, 1, 46, 100
3, 132576, Note_on_c, 1, 42, 100
3, 132672, Note_on_c, 1, 46, 100
3, 132764, Note_off_c, 1, 42, 100
3, 132768, Note_on_c, 1, 51, 100
3, 132860, Note_off_c, 1, 46, 100
3, 132956, Note_off_c, 1, 51, 100
3, 133152, Note_on_c, 1, 46, 100
3, 133248, Note_on_c, 1, 51, 100
3, 133340, Note_off_c, 1, 46, 100
3, 133344, Note_on_c, 1, 54, 100
3, 133436, Note_off_c, 1, 51, 100
3, 133532, Note_off_c, 1, 54, 100
3, 133728, Note_on_c, 1, 51, 100
3, 133824, Note_on_c, 1, 54, 100
3, 133916, Note_off_c, 1, 51, 100
3, 133920, Note_on_c, 1, 58, 100
3, 134012, Note_off_c, 1, 54, 100
3, 134108, Note_off_c, 1, 58, 100
3, 134304, Note_on_c, 1, 41, 100
3, 134400, Note_on_c, 1, 46, 100
3, 134492, Note_off_c, 1, 41, 100
3, 134496, Note_on_c, 1, 49, 100
3, 134588, Note_off_c, 1, 46, 100
3, 134684, Note_off_c, 1, 49, 100
3, 134880, Note_on_c, 1, 46, 100
3, 134976, Note_on_c, 1, 49, 100
3, 135068, Note_off_c, 1, 46, 100
3, 135072, Note_on_c, 1, 53, 100
3, 135164, Note_off_c, 1, 49, 100
3, 135260, Note_off_c, 1, 53, 100
3, 135456, Note_on_c, 1, 49, 100
3, 135552, Note_on_c, 1, 53, 100
3, 135644, Note_off_c, 1, 49, 100
3, 135648, Note_on_c, 1, 58, 100
3, 135740, Note_off_c, 1, 53, 100
3, 135836, Note_off_c, 1, 58, 100
3, 136032, Note_on_c, 1, 53, 100
3, 136128, Note_on_c, 1, 58, 100
3, 136220, Note_off_c, 1, 53, 100
3, 136224, Note_on_c, 1, 61, 100
3, 136316, Note_off_c, 1, 58, 100
3, 136412, Note_off_c, 1, 61, 100
3, 136608, Note_on_c, 1, 42, 100
3, 136704, Note_on_c, 1, 46, 100
3, 136796, Note_off_c, 1, 42, 100
3, 136800, Note_on_c, 1, 49, 100
3, 136892, Note_off_c, 1, 46, 100
3, 136988, Note_off_c, 1, 49, 100
3, 137184, Note_on_c, 1, 54, 100
3, 137280, Note_on_c, 1, 58, 100
3, 137372, Note_off_c, 1, 54, 100
3, 137376, Note_on_c, 1, 61, 100
3, 137468, Note_off_c, 1, 58, 100
3, 137564, Note_off_c, 1, 61, 100
3, 137760, Note_on_c, 1, 43, 100
3, 137856, Note_on_c, 1, 46, 100
3, 137948, Note_off_c, 1, 43, 100
3, 137952, Note_on_c, 1, 49, 100
3, 138044, Note_off_c, 1, 46, 100
3, 138140, Note_off_c, 1, 49, 100
3, 138336, Note_on_c, 1, 55, 100
3, 138432, Note_on_c, 1, 58, 100
3, 138524, Note_off_c, 1, 55, 100
3, 138528, Note_on_c, 1, 63, 100
3, 138620, Note_off_c, 1, 58, 100
3, 138716, Note_off_c, 1, 63, 100
3, 138912, Note_on_c, 1, 44, 101
3, 139008, Note_on_c, 1, 48, 102
3, 139100, Note_off_c, 1, 44, 100
3, 139104, Note_on_c, 1, 51, 103
3, 139196, Note_off_c, 1, 48, 100
3, 139292, Note_off_c, 1, 51, 100
3, 139488, Note_on_c, 1, 57, 108
3, 139584, Note_on_c, 1, 60, 109
3, 139676, Note_off_c, 1, 57, 100
3, 139680, Note_on_c, 1, 63, 120
3, 139772, Note_off_c, 1, 60, 100
3, 139868, Note_off_c, 1, 63, 100
3, 140064, Note_on_c, 1, 45, 120
3, 140160, Note_on_c, 1, 48, 120
3, 140252, Note_off_c, 1, 45, 100
3, 140256, Note_on_c, 1, 53, 120
3, 140348, Note_off_c, 1, 48, 100
3, 140444, Note_off_c, 1, 53, 100
3, 140640, Note_on_c, 1, 57, 107
3, 140736, Note_on_c, 1, 60, 97
3, 140828, Note_off_c, 1, 57, 100
3, 140924, Note_off_c, 1, 60, 100
3, 141120, Note_on_c, 1, 46, 80
3, 141216, Note_on_c, 1, 53, 80
3, 141308, Note_off_c, 1, 46, 100
3, 141312, Note_on_c, 1, 58, 80
3, 141408, Note_on_c, 1, 61, 80
3, 141500, Note_off_c, 1, 58, 100
3, 141596, Note_off_c, 1, 61, 100
3, 141692, Note_off_c, 1, 53, 100
3, 141696, Note_on_c, 1, 46, 80
3, 141792, Note_on_c, 1, 53, 80
3, 141884, Note_off_c, 1, 46, 100
3, 141888, Note_on_c, 1, 58, 80
3, 141984, Note_on_c, 1, 61, 80
3, 142076, Note_off_c, 1, 58, 100
3, 142172, Note_off_c, 1, 61, 100
3, 142268, Note_off_c, 1, 53, 100
3, 142272, Note_on_c, 1, 46, 80
3, 142368, Note_on_c, 1, 53, 80
3, 142460, Note_off_c, 1, 46, 100
3, 142464, Note_on_c, 1, 58, 80
3, 142560, Note_on_c, 1, 61, 80
3, 142652, Note_off_c, 1, 58, 100
3, 142748, Note_off_c, 1, 61, 100
3, 142844, Note_off_c, 1, 53, 100
3, 142848, Note_on_c, 1, 41, 80
3, 142944, Note_on_c, 1, 53, 80
3, 143036, Note_off_c, 1, 41, 100
3, 143040, Note_on_c, 1, 57, 80
3, 143136, Note_on_c, 1, 60, 80
3, 143228, Note_off_c, 1, 57, 100
3, 143324, Note_off_c, 1, 60, 100
3, 143420, Note_off_c, 1, 53, 100
3, 143424, Note_on_c, 1, 41, 80
3, 143520, Note_on_c, 1, 53, 80
3, 143612, Note_off_c, 1, 41, 100
3, 143616, Note_on_c, 1, 57, 80
3, 143712, Note_on_c, 1, 60, 80
3, 143804, Note_off_c, 1, 57, 100
3, 143900, Note_off_c, 1, 60, 100
3, 143996, Note_off_c, 1, 53, 100
3, 144000, Note_on_c, 1, 41, 80
3, 144096, Note_on_c, 1, 53, 80
3, 144188, Note_off_c, 1, 41, 100
3, 144192, Note_on_c, 1, 57, 80
3, 144288, Note_on_c, 1, 60, 80
3, 144380, Note_off_c, 1, 57, 100
3, 144476, Note_off_c, 1, 60, 100
3, 144572, Note_off_c, 1, 53, 100
3, 144576, Note_on_c, 1, 41, 80
3, 144672, Note_on_c, 1, 53, 80
3, 144764, Note_off_c, 1, 41, 100
3, 144768, Note_on_c, 1, 57, 80
3, 144864, Note_on_c, 1, 60, 80
3, 144956, Note_off_c, 1, 57, 100
3, 145052, Note_off_c, 1, 60, 100
3, 145148, Note_off_c, 1, 53, 100
3, 145152, Note_on_c, 1, 46, 80
3, 145248, Note_on_c, 1, 53, 80
3, 145340, Note_off_c, 1, 46, 100
3, 145344, Note_on_c, 1, 58, 80
3, 145440, Note_on_c, 1, 61, 80
3, 145532, Note_off_c, 1, 58, 100
3, 145628, Note_off_c, 1, 61, 100
3, 145724, Note_off_c, 1, 53, 100
3, 145728, Note_on_c, 1, 46, 80
3, 145824, Note_on_c, 1, 53, 80
3, 145916, Note_off_c, 1, 46, 100
3, 145920, Note_on_c, 1, 58, 80
3, 146016, Note_on_c, 1, 61, 81
3, 146108, Note_off_c, 1, 58, 100
3, 146204, Note_off_c, 1, 61, 100
3, 146300, Note_off_c, 1, 53, 100
3, 146304, Note_on_c, 1, 46, 82
3, 146400, Note_on_c, 1, 53, 82
3, 146492, Note_off_c, 1, 46, 100
3, 146496, Note_on_c, 1, 58, 83
3, 146592, Note_on_c, 1, 61, 83
3, 146684, Note_off_c, 1, 58, 100
3, 146780, Note_off_c, 1, 61, 100
3, 146876, Note_off_c, 1, 53, 100
3, 146880, Note_on_c, 1, 46, 84
3, 146976, Note_on_c, 1, 54, 85
3, 147068, Note_off_c, 1, 46, 100
3, 147072, Note_on_c, 1, 58, 85
3, 147168, Note_on_c, 1, 61, 86
3, 147260, Note_off_c, 1, 54, 100
3, 147260, Note_off_c, 1, 58, 100
3, 147356, Note_off_c, 1, 61, 100
3, 147456, Note_on_c, 1, 46, 87
3, 147552, Note_on_c, 1, 54, 87
3, 147644, Note_off_c, 1, 46, 100
3, 147648, Note_on_c, 1, 58, 88
3, 147744, Note_on_c, 1, 61, 88
3, 147836, Note_off_c, 1, 54, 100
3, 147836, Note_off_c, 1, 58, 100
3, 147932, Note_off_c, 1, 61, 100
3, 148032, Note_on_c, 1, 46, 89
3, 148128, Note_on_c, 1, 55, 90
3, 148220, Note_off_c, 1, 46, 100
3, 148224, Note_on_c, 1, 61, 90
3, 148320, Note_on_c, 1, 64, 91
3, 148412, Note_off_c, 1, 55, 100
3, 148412, Note_off_c, 1, 61, 100
3, 148508, Note_off_c, 1, 64, 100
3, 148608, Note_on_c, 1, 46, 92
3, 148704, Note_on_c, 1, 55, 92
3, 148796, Note_off_c, 1, 46, 100
3, 148800, Note_on_c, 1, 61, 93
3, 148896, Note_on_c, 1, 64, 93
3, 148988, Note_off_c, 1, 55, 100
3, 148988, Note_off_c, 1, 61, 100
3, 149084, Note_off_c, 1, 64, 100
3, 149184, Note_on_c, 1, 46, 94
3, 149280, Note_on_c, 1, 56, 95
3, 149372, Note_off_c, 1, 46, 100
3, 149376, Note_on_c, 1, 62, 95
3, 149472, Note_on_c, 1, 65, 96
3, 149564, Note_off_c, 1, 62, 100
3, 149660, Note_off_c, 1, 65, 100
3, 149756, Note_off_c, 1, 56, 100
3, 149760, Note_on_c, 1, 46, 97
3, 149856, Note_on_c, 1, 56, 97
3, 149948, Note_off_c, 1, 46, 100
3, 149952, Note_on_c, 1, 62, 98
3, 150048, Note_on_c, 1, 65, 98
3, 150140, Note_off_c, 1, 62, 100
3, 150236, Note_off_c, 1, 65, 100
3, 150332, Note_off_c, 1, 56, 100
3, 150336, Note_on_c, 1, 46, 99
3, 150432, Note_on_c, 1, 56, 100
3, 150524, Note_off_c, 1, 46, 100
3, 150528, Note_on_c, 1, 62, 100
3, 150624, Note_on_c, 1, 65, 101
3, 150716, Note_off_c, 1, 62, 100
3, 150812, Note_off_c, 1, 65, 100
3, 150908, Note_off_c, 1, 56, 100
3, 150912, Note_on_c, 1, 46, 102
3, 151008, Note_on_c, 1, 56, 102
3, 151100, Note_off_c, 1, 46, 100
3, 151104, Note_on_c, 1, 62, 103
3, 151200, Note_on_c, 1, 65, 103
3, 151292, Note_off_c, 1, 62, 100
3, 151388, Note_off_c, 1, 65, 100
3, 151484, Note_off_c, 1, 56, 100
3, 151488, Note_on_c, 1, 45, 110
3, 151584, Note_on_c, 1, 57, 110
3, 151676, Note_off_c, 1, 45, 100
3, 151680, Note_on_c, 1, 61, 110
3, 151776, Note_on_c, 1, 64, 110
3, 151868, Note_off_c, 1, 57, 100
3, 151868, Note_off_c, 1, 61, 100
3, 151964, Note_off_c, 1, 64, 100
3, 152064, Note_on_c, 1, 50, 110
3, 152160, Note_on_c, 1, 57, 110
3, 152252, Note_off_c, 1, 50, 100
3, 152256, Note_on_c, 1, 62, 110
3, 152352, Note_on_c, 1, 65, 110
3, 152444, Note_off_c, 1, 57, 100
3, 152444, Note_off_c, 1, 62, 100
3, 152540, Note_off_c, 1, 65, 100
3, 152640, Note_on_c, 1, 45, 110
3, 152736, Note_on_c, 1, 57, 110
3, 152828, Note_off_c, 1, 45, 100
3, 152832, Note_on_c, 1, 61, 110
3, 152928, Note_on_c, 1, 64, 110
3, 153020, Note_off_c, 1, 57, 100
3, 153020, Note_off_c, 1, 61, 100
3, 153116, Note_off_c, 1, 64, 100
3, 153216, Note_on_c, 1, 50, 110
3, 153312, Note_on_c, 1, 57, 110
3, 153404, Note_off_c, 1, 50, 100
3, 153408, Note_on_c, 1, 62, 110
3, 153504, Note_on_c, 1, 65, 110
3, 153596, Note_off_c, 1, 57, 100
3, 153596, Note_off_c, 1, 62, 100
3, 153692, Note_off_c, 1, 65, 100
3, 153792, Note_on_c, 1, 45, 100
3, 153888, Note_on_c, 1, 57, 96
3, 153980, Note_off_c, 1, 45, 100
3, 153984, Note_on_c, 1, 61, 91
3, 154080, Note_on_c, 1, 64, 80
3, 154172, Note_off_c, 1, 61, 100
3, 154364, Note_off_c, 1, 57, 100
3, 154364, Note_off_c, 1, 64, 100
3, 154368, Note_on_c, 1, 55, 80
3, 154464, Note_on_c, 1, 57, 80
3, 154560, Note_on_c, 1, 64, 80
3, 154748, Note_off_c, 1, 57, 100
3, 154940, Note_off_c, 1, 55, 100
3, 154940, Note_off_c, 1, 64, 100
3, 154944, Note_on_c, 1, 49, 80
3, 155040, Note_on_c, 1, 52, 80
3, 155136, Note_on_c, 1, 57, 80
3, 155324, Note_off_c, 1, 52, 100
3, 155516, Note_off_c, 1, 49, 100
3, 155516, Note_off_c, 1, 57, 100
3, 155520, Note_on_c, 1, 50, 80
3, 155616, Note_on_c, 1, 53, 80
3, 155712, Note_on_c, 1, 57, 80
3, 155900, Note_off_c, 1, 53, 100
3, 156092, Note_off_c, 1, 50, 100
3, 156092, Note_off_c, 1, 57, 100
3, 156096, Note_on_c, 1, 45, 80
3, 156192, Note_on_c, 1, 57, 80
3, 156284, Note_off_c, 1, 45, 100
3, 156288, Note_on_c, 1, 61, 80
3, 156384, Note_on_c, 1, 64, 80
3, 156476, Note_off_c, 1, 61, 100
3, 156668, Note_off_c, 1, 57, 100
3, 156668, Note_off_c, 1, 64, 100
3, 156672, Note_on_c, 1, 55, 80
3, 156768, Note_on_c, 1, 57, 80
3, 156864, Note_on_c, 1, 64, 80
3, 157052, Note_off_c, 1, 57, 100
3, 157244, Note_off_c, 1, 55, 100
3, 157244, Note_off_c, 1, 64, 100
3, 157248, Note_on_c, 1, 49, 80
3, 157344, Note_on_c, 1, 52, 80
3, 157440, Note_on_c, 1, 57, 80
3, 157628, Note_off_c, 1, 52, 100
3, 157820, Note_off_c, 1, 49, 100
3, 157820, Note_off_c, 1, 57, 100
3, 157824, Note_on_c, 1, 50, 80
3, 157920, Note_on_c, 1, 53, 80
3, 158016, Note_on_c, 1, 57, 80
3, 158204, Note_off_c, 1, 53, 100
3, 158396, Note_off_c, 1, 50, 100
3, 158396, Note_off_c, 1, 57, 100
3, 158400, Note_on_c, 1, 50, 80
3, 158496, Note_on_c, 1, 62, 80
3, 158588, Note_off_c, 1, 50, 100
3, 158592, Note_on_c, 1, 66, 80
3, 158688, Note_on_c, 1, 69, 80
3, 158972, Note_off_c, 1, 62, 100
3, 158972, Note_off_c, 1, 66, 100
3, 158972, Note_off_c, 1, 69, 100
3, 158976, Note_on_c, 1, 60, 80
3, 159072, Note_on_c, 1, 62, 80
3, 159168, Note_on_c, 1, 69, 80
3, 159356, Note_off_c, 1, 62, 100
3, 159548, Note_off_c, 1, 60, 100
3, 159548, Note_off_c, 1, 69, 100
3, 159552, Note_on_c, 1, 54, 80
3, 159648, Note_on_c, 1, 57, 80
3, 159744, Note_on_c, 1, 63, 80
3, 159932, Note_off_c, 1, 57, 100
3, 160124, Note_off_c, 1, 54, 100
3, 160124, Note_off_c, 1, 63, 100
3, 160128, Note_on_c, 1, 55, 80
3, 160224, Note_on_c, 1, 58, 80
3, 160320, Note_on_c, 1, 62, 80
3, 160508, Note_off_c, 1, 58, 100
3, 160700, Note_off_c, 1, 55, 100
3, 160700, Note_off_c, 1, 62, 100
3, 160704, Note_on_c, 1, 50, 80
3, 160800, Note_on_c, 1, 62, 80
3, 160892, Note_off_c, 1, 50, 100
3, 160896, Note_on_c, 1, 66, 80
3, 160992, Note_on_c, 1, 69, 80
3, 161276, Note_off_c, 1, 62, 100
3, 161276, Note_off_c, 1, 66, 100
3, 161276, Note_off_c, 1, 69, 100
3, 161280, Note_on_c, 1, 60, 80
3, 161376, Note_on_c, 1, 62, 80
3, 161472, Note_on_c, 1, 69, 80
3, 161852, Note_off_c, 1, 60, 100
3, 161852, Note_off_c, 1, 62, 100
3, 161852, Note_off_c, 1, 69, 100
3, 161856, Note_on_c, 1, 54, 80
3, 161952, Note_on_c, 1, 57, 80
3, 162048, Note_on_c, 1, 63, 80
3, 162428, Note_off_c, 1, 54, 100
3, 162428, Note_off_c, 1, 57, 100
3, 162428, Note_off_c, 1, 63, 100
3, 162432, Note_on_c, 1, 55, 80
3, 162528, Note_on_c, 1, 58, 80
3, 162624, Note_on_c, 1, 62, 80
3, 163004, Note_off_c, 1, 55, 100
3, 163004, Note_off_c, 1, 58, 100
3, 163004, Note_off_c, 1, 62, 100
3, 163008, Note_on_c, 1, 49, 80
3, 163104, Note_on_c, 1, 52, 80
3, 163200, Note_on_c, 1, 57, 80
3, 163580, Note_off_c, 1, 49, 100
3, 163580, Note_off_c, 1, 52, 100
3, 163580, Note_off_c, 1, 57, 100
3, 163584, Note_on_c, 1, 50, 80
3, 163680, Note_on_c, 1, 53, 80
3, 163776, Note_on_c, 1, 57, 80
3, 164156, Note_off_c, 1, 50, 100
3, 164156, Note_off_c, 1, 53, 100
3, 164156, Note_off_c, 1, 57, 100
3, 164160, Note_on_c, 1, 54, 80
3, 164256, Note_on_c, 1, 57, 80
3, 164352, Note_on_c, 1, 63, 80
3, 164732, Note_off_c, 1, 54, 100
3, 164732, Note_off_c, 1, 57, 100
3, 164732, Note_off_c, 1, 63, 100
3, 164736, Note_on_c, 1, 55, 80
3, 164832, Note_on_c, 1, 58, 80
3, 164928, Note_on_c, 1, 62, 80
3, 165308, Note_off_c, 1, 55, 100
3, 165308, Note_off_c, 1, 58, 100
3, 165308, Note_off_c, 1, 62, 100
3, 165312, Note_on_c, 1, 49, 80
3, 165408, Note_on_c, 1, 52, 80
3, 165504, Note_on_c, 1, 57, 81
3, 165884, Note_off_c, 1, 49, 100
3, 165884, Note_off_c, 1, 52, 100
3, 165884, Note_off_c, 1, 57, 100
3, 165888, Note_on_c, 1, 50, 84
3, 165984, Note_on_c, 1, 53, 85
3, 166080, Note_on_c, 1, 57, 86
3, 166460, Note_off_c, 1, 50, 100
3, 166460, Note_off_c, 1, 53, 100
3, 166460, Note_off_c, 1, 57, 100
3, 166464, Note_on_c, 1, 49, 89
3, 166560, Note_on_c, 1, 52, 90
3, 166656, Note_on_c, 1, 57, 91
3, 167036, Note_off_c, 1, 49, 100
3, 167036, Note_off_c, 1, 52, 100
3, 167036, Note_off_c, 1, 57, 100
3, 167040, Note_on_c, 1, 50, 94
3, 167136, Note_on_c, 1, 53, 95
3, 167232, Note_on_c, 1, 57, 96
3, 167612, Note_off_c, 1, 50, 100
3, 167612, Note_off_c, 1, 53, 100
3, 167612, Note_off_c, 1, 57, 100
3, 167616, Note_on_c, 1, 49, 99
3, 167712, Note_on_c, 1, 52, 100
3, 167808, Note_on_c, 1, 57, 101
3, 168188, Note_off_c, 1, 49, 100
3, 168188, Note_off_c, 1, 52, 100
3, 168188, Note_off_c, 1, 57, 100
3, 168192, Note_on_c, 1, 50, 104
3, 168288, Note_on_c, 1, 53, 105
3, 168384, Note_on_c, 1, 57, 106
3, 168764, Note_off_c, 1, 50, 100
3, 168764, Note_off_c, 1, 53, 100
3, 168764, Note_off_c, 1, 57, 100
3, 168768, Note_on_c, 1, 45, 110
3, 168768, Note_on_c, 1, 49, 110
3, 168768, Note_on_c, 1, 52, 110
3, 168768, Note_on_c, 1, 55, 110
3, 168956, Note_off_c, 1, 45, 100
3, 168956, Note_off_c, 1, 49, 100
3, 168956, Note_off_c, 1, 52, 100
3, 168956, Note_off_c, 1, 55, 100
3, 177984, Note_on_c, 1, 50, 80
3, 178080, Note_on_c, 1, 57, 80
3, 178172, Note_off_c, 1, 50, 100
3, 178176, Note_on_c, 1, 62, 80
3, 178272, Note_on_c, 1, 65, 80
3, 178364, Note_off_c, 1, 62, 100
3, 178460, Note_off_c, 1, 65, 100
3, 178556, Note_off_c, 1, 57, 100
3, 178560, Note_on_c, 1, 50, 80
3, 178656, Note_on_c, 1, 57, 80
3, 178748, Note_off_c, 1, 50, 100
3, 178752, Note_on_c, 1, 62, 80
3, 178848, Note_on_c, 1, 65, 80
3, 178940, Note_off_c, 1, 62, 100
3, 179036, Note_off_c, 1, 65, 100
3, 179132, Note_off_c, 1, 57, 100
3, 179136, Note_on_c, 1, 50, 80
3, 179232, Note_on_c, 1, 57, 80
3, 179324, Note_off_c, 1, 50, 100
3, 179328, Note_on_c, 1, 62, 80
3, 179424, Note_on_c, 1, 65, 80
3, 179516, Note_off_c, 1, 62, 100
3, 179612, Note_off_c, 1, 65, 100
3, 179708, Note_off_c, 1, 57, 100
3, 179712, Note_on_c, 1, 45, 80
3, 179808, Note_on_c, 1, 57, 80
3, 179900, Note_off_c, 1, 45, 100
3, 179904, Note_on_c, 1, 61, 80
3, 180000, Note_on_c, 1, 64, 80
3, 180092, Note_off_c, 1, 61, 100
3, 180188, Note_off_c, 1, 64, 100
3, 180284, Note_off_c, 1, 57, 100
3, 180288, Note_on_c, 1, 45, 80
3, 180384, Note_on_c, 1, 57, 80
3, 180476, Note_off_c, 1, 45, 100
3, 180480, Note_on_c, 1, 61, 80
3, 180576, Note_on_c, 1, 64, 80
3, 180668, Note_off_c, 1, 61, 100
3, 180764, Note_off_c, 1, 64, 100
3, 180860, Note_off_c, 1, 57, 100
3, 180864, Note_on_c, 1, 45, 80
3, 180960, Note_on_c, 1, 57, 80
3, 181052, Note_off_c, 1, 45, 100
3, 181056, Note_on_c, 1, 61, 80
3, 181152, Note_on_c, 1, 64, 80
3, 181244, Note_off_c, 1, 61, 100
3, 181340, Note_off_c, 1, 64, 100
3, 181436, Note_off_c, 1, 57, 100
3, 181440, Note_on_c, 1, 45, 80
3, 181536, Note_on_c, 1, 57, 80
3, 181628, Note_off_c, 1, 45, 100
3, 181632, Note_on_c, 1, 61, 80
3, 181728, Note_on_c, 1, 64, 80
3, 181820, Note_off_c, 1, 61, 100
3, 181916, Note_off_c, 1, 64, 100
3, 182012, Note_off_c, 1, 57, 100
3, 182016, Note_on_c, 1, 50, 80
3, 182112, Note_on_c, 1, 57, 81
3, 182204, Note_off_c, 1, 50, 100
3, 182208, Note_on_c, 1, 62, 82
3, 182304, Note_on_c, 1, 65, 83
3, 182396, Note_off_c, 1, 62, 100
3, 182492, Note_off_c, 1, 65, 100
3, 182588, Note_off_c, 1, 57, 100
3, 182592, Note_on_c, 1, 55, 86
3, 182688, Note_on_c, 1, 62, 87
3, 182784, Note_on_c, 1, 67, 88
3, 183164, Note_off_c, 1, 55, 100
3, 183164, Note_off_c, 1, 62, 100
3, 183164, Note_off_c, 1, 67, 100
3, 183168, Note_on_c, 1, 51, 93
3, 183264, Note_on_c, 1, 58, 94
3, 183360, Note_on_c, 1, 63, 95
3, 183740, Note_off_c, 1, 51, 100
3, 183740, Note_off_c, 1, 58, 100
3, 183740, Note_off_c, 1, 63, 100
3, 183744, Note_on_c, 1, 49, 100
3, 183840, Note_on_c, 1, 57, 99
3, 183936, Note_on_c, 1, 61, 97
3, 184316, Note_off_c, 1, 49, 100
3, 184316, Note_off_c, 1, 57, 100
3, 184316, Note_off_c, 1, 61, 100
3, 184320, Note_on_c, 1, 50, 91
3, 184416, Note_on_c, 1, 57, 89
3, 184512, Note_on_c, 1, 62, 87
3, 184892, Note_off_c, 1, 50, 100
3, 184892, Note_off_c, 1, 57, 100
3, 184892, Note_off_c, 1, 62, 100
3, 184896, Note_on_c, 1, 45, 80
3, 184992, Note_on_c, 1, 53, 82
3, 185088, Note_on_c, 1, 57, 84
3, 185468, Note_off_c, 1, 45, 100
3, 185468, Note_off_c, 1, 53, 100
3, 185468, Note_off_c, 1, 57, 100
3, 185472, Note_on_c, 1, 45, 94
3, 185568, Note_on_c, 1, 52, 97
3, 185664, Note_on_c, 1, 55, 99
3, 185760, Note_on_c, 1, 57, 102
3, 186044, Note_off_c, 1, 45, 100
3, 186044, Note_off_c, 1, 52, 100
3, 186044, Note_off_c, 1, 55, 100
3, 186044, Note_off_c, 1, 57, 100
3, 186048, Note_on_c, 1, 38, 110
3, 186144, Note_on_c, 1, 50, 110
3, 186236, Note_off_c, 1, 38, 100
3, 186240, Note_on_c, 1, 53, 110
3, 186332, Note_off_c, 1, 50, 100
3, 186336, Note_on_c, 1, 57, 110
3, 186428, Note_off_c, 1, 53, 100
3, 186432, Note_on_c, 1, 62, 110
3, 186524, Note_off_c, 1, 57, 100
3, 186620, Note_off_c, 1, 62, 100
3, 187200, Note_on_c, 1, 55, 86
3, 187296, Note_on_c, 1, 62, 87
3, 187392, Note_on_c, 1, 67, 88
3, 187772, Note_off_c, 1, 55, 100
3, 187772, Note_off_c, 1, 62, 100
3, 187772, Note_off_c, 1, 67, 100
3, 187776, Note_on_c, 1, 51, 93
3, 187872, Note_on_c, 1, 58, 94
3, 187968, Note_on_c, 1, 63, 95
3, 188348, Note_off_c, 1, 51, 100
3, 188348, Note_off_c, 1, 58, 100
3, 188348, Note_off_c, 1, 63, 100
3, 188352, Note_on_c, 1, 48, 100
3, 188448, Note_on_c, 1, 55, 99
3, 188544, Note_on_c, 1, 60, 97
3, 188924, Note_off_c, 1, 48, 100
3, 188924, Note_off_c, 1, 55, 100
3, 188924, Note_off_c, 1, 60, 100
3, 188928, Note_on_c, 1, 45, 91
3, 189024, Note_on_c, 1, 53, 89
3, 189120, Note_on_c, 1, 57, 87
3, 189500, Note_off_c, 1, 45, 100
3, 189500, Note_off_c, 1, 53, 100
3, 189500, Note_off_c, 1, 57, 100
3, 189504, Note_on_c, 1, 46, 80
3, 189600, Note_on_c, 1, 53, 81
3, 189696, Note_on_c, 1, 58, 82
3, 190076, Note_off_c, 1, 46, 100
3, 190076, Note_off_c, 1, 53, 100
3, 190076, Note_off_c, 1, 58, 100
3, 190080, Note_on_c, 1, 39, 88
3, 190176, Note_on_c, 1, 48, 89
3, 190272, Note_on_c, 1, 51, 91
3, 190652, Note_off_c, 1, 39, 100
3, 190652, Note_off_c, 1, 48, 100
3, 190652, Note_off_c, 1, 51, 100
3, 190656, Note_on_c, 1, 41, 97
3, 190752, Note_on_c, 1, 48, 98
3, 190848, Note_on_c, 1, 53, 99
3, 191228, Note_off_c, 1, 41, 100
3, 191228, Note_off_c, 1, 48, 100
3, 191228, Note_off_c, 1, 53, 100
3, 191232, Note_on_c, 1, 38, 110
3, 191328, Note_on_c, 1, 46, 106
3, 191424, Note_on_c, 1, 50, 102
3, 191804, Note_off_c, 1, 38, 100
3, 191804, Note_off_c, 1, 46, 100
3, 191804, Note_off_c, 1, 50, 100
3, 191808, Note_on_c, 1, 43, 86
3, 191904, Note_on_c, 1, 46, 80
3, 192000, Note_on_c, 1, 55, 81
3, 192380, Note_off_c, 1, 43, 100
3, 192380, Note_off_c, 1, 46, 100
3, 192380, Note_off_c, 1, 55, 100
3, 192384, Note_on_c, 1, 39, 88
3, 192480, Note_on_c, 1, 48, 90
3, 192576, Note_on_c, 1, 51, 92
3, 192956, Note_off_c, 1, 39, 100
3, 192956, Note_off_c, 1, 48, 100
3, 192956, Note_off_c, 1, 51, 100
3, 192960, Note_on_c, 1, 41, 99
3, 193056, Note_on_c, 1, 48, 101
3, 193152, Note_on_c, 1, 53, 102
3, 193532, Note_off_c, 1, 41, 100
3, 193532, Note_off_c, 1, 48, 100
3, 193532, Note_off_c, 1, 53, 100
3, 193536, Note_on_c, 1, 34, 110
3, 193632, Note_on_c, 1, 41, 110
3, 193724, Note_off_c, 1, 34, 100
3, 193728, Note_on_c, 1, 46, 110
3, 193820, Note_off_c, 1, 41, 100
3, 193824, Note_on_c, 1, 29, 110
3, 193916, Note_off_c, 1, 46, 100
3, 193920, Note_on_c, 1, 37, 110
3, 194012, Note_off_c, 1, 29, 100
3, 194016, Note_on_c, 1, 36, 110
3, 194108, Note_off_c, 1, 37, 100
3, 194112, Note_on_c, 1, 34, 110
3, 194204, Note_off_c, 1, 36, 100
3, 194300, Note_off_c, 1, 34, 100
3, 194400, Note_on_c, 1, 29, 110
3, 194496, Note_on_c, 1, 37, 110
3, 194588, Note_off_c, 1, 29, 100
3, 194592, Note_on_c, 1, 36, 110
3, 194684, Note_off_c, 1, 37, 100
3, 194688, Note_on_c, 1, 34, 110
3, 194780, Note_off_c, 1, 36, 100
3, 194876, Note_off_c, 1, 34, 100
3, 194976, Note_on_c, 1, 29, 110
3, 195072, Note_on_c, 1, 37, 110
3, 195164, Note_off_c, 1, 29, 100
3, 195168, Note_on_c, 1, 36, 110
3, 195260, Note_off_c, 1, 37, 100
3, 195264, Note_on_c, 1, 34, 110
3, 195356, Note_off_c, 1, 36, 100
3, 195452, Note_off_c, 1, 34, 100
3, 195552, Note_on_c, 1, 29, 110
3, 195648, Note_on_c, 1, 37, 110
3, 195740, Note_off_c, 1, 29, 100
3, 195744, Note_on_c, 1, 34, 110
3, 195836, Note_off_c, 1, 37, 100
3, 195840, Note_on_c, 1, 24, 121
3, 195840, Note_on_c, 1, 36, 120
3, 195932, Note_off_c, 1, 34, 100
3, 196412, Note_off_c, 1, 24, 100
3, 196412, Note_off_c, 1, 36, 100
3, 196416, Note_on_c, 1, 29, 110
3, 196416, Note_on_c, 1, 41, 110
3, 196604, Note_off_c, 1, 29, 100
3, 196604, Note_off_c, 1, 41, 100
3, 196608, Note_on_c, 1, 44, 110
3, 196796, Note_off_c, 1, 44, 100
3, 196800, Note_on_c, 1, 48, 110
3, 196988, Note_off_c, 1, 48, 100
3, 196992, Note_on_c, 1, 53, 110
3, 197180, Note_off_c, 1, 53, 100
3, 197184, Note_on_c, 1, 56, 110
3, 197372, Note_off_c, 1, 56, 100
3, 197376, Note_on_c, 1, 53, 110
3, 197564, Note_off_c, 1, 53, 100
3, 197568, Note_on_c, 1, 48, 110
3, 197756, Note_off_c, 1, 48, 100
3, 197760, Note_on_c, 1, 44, 110
3, 197948, Note_off_c, 1, 44, 100
3, 197952, Note_on_c, 1, 48, 110
3, 198140, Note_off_c, 1, 48, 100
3, 198144, Note_on_c, 1, 44, 110
3, 198332, Note_off_c, 1, 44, 100
3, 198336, Note_on_c, 1, 41, 110
3, 198432, Note_on_c, 1, 36, 110
3, 198524, Note_off_c, 1, 41, 100
3, 198528, Note_on_c, 1, 44, 110
3, 198620, Note_off_c, 1, 36, 100
3, 198624, Note_on_c, 1, 43, 110
3, 198716, Note_off_c, 1, 44, 100
3, 198720, Note_on_c, 1, 41, 110
3, 198812, Note_off_c, 1, 43, 100
3, 198908, Note_off_c, 1, 41, 100
3, 199008, Note_on_c, 1, 36, 110
3, 199104, Note_on_c, 1, 44, 110
3, 199196, Note_off_c, 1, 36, 100
3, 199200, Note_on_c, 1, 43, 110
3, 199292, Note_off_c, 1, 44, 100
3, 199296, Note_on_c, 1, 41, 110
3, 199388, Note_off_c, 1, 43, 100
3, 199484, Note_off_c, 1, 41, 100
3, 199584, Note_on_c, 1, 36, 110
3, 199680, Note_on_c, 1, 44, 110
3, 199772, Note_off_c, 1, 36, 100
3, 199776, Note_on_c, 1, 43, 110
3, 199868, Note_off_c, 1, 44, 100
3, 199872, Note_on_c, 1, 41, 110
3, 199964, Note_off_c, 1, 43, 100
3, 200060, Note_off_c, 1, 41, 100
3, 200160, Note_on_c, 1, 36, 110
3, 200256, Note_on_c, 1, 44, 110
3, 200348, Note_off_c, 1, 36, 100
3, 200352, Note_on_c, 1, 41, 110
3, 200444, Note_off_c, 1, 44, 100
3, 200448, Note_on_c, 1, 31, 120
3, 200448, Note_on_c, 1, 43, 122
3, 200540, Note_off_c, 1, 41, 100
3, 201020, Note_off_c, 1, 31, 100
3, 201020, Note_off_c, 1, 43, 100
3, 201024, Note_on_c, 1, 48, 110
3, 201024, Note_on_c, 1, 36, 110
3, 201212, Note_off_c, 1, 48, 100
3, 201212, Note_off_c, 1, 36, 100
3, 201216, Note_on_c, 1, 51, 110
3, 201404, Note_off_c, 1, 51, 100
3, 201408, Note_on_c, 1, 55, 110
3, 201596, Note_off_c, 1, 55, 100
3, 201600, Note_on_c, 1, 60, 110
3, 201788, Note_off_c, 1, 60, 100
3, 201792, Note_on_c, 1, 63, 110
3, 201980, Note_off_c, 1, 63, 100
3, 201984, Note_on_c, 1, 60, 110
3, 202172, Note_off_c, 1, 60, 100
3, 202176, Note_on_c, 1, 55, 110
3, 202364, Note_off_c, 1, 55, 100
3, 202368, Note_on_c, 1, 51, 110
3, 202556, Note_off_c, 1, 51, 100
3, 202560, Note_on_c, 1, 55, 110
3, 202748, Note_off_c, 1, 55, 100
3, 202752, Note_on_c, 1, 51, 110
3, 202940, Note_off_c, 1, 51, 100
3, 202944, Note_on_c, 1, 48, 110
3, 203040, Note_on_c, 1, 31, 110
3, 203132, Note_off_c, 1, 48, 100
3, 203136, Note_on_c, 1, 39, 110
3, 203228, Note_off_c, 1, 31, 100
3, 203232, Note_on_c, 1, 38, 110
3, 203324, Note_off_c, 1, 39, 100
3, 203328, Note_on_c, 1, 36, 110
3, 203420, Note_off_c, 1, 38, 100
3, 203516, Note_off_c, 1, 36, 100
3, 203616, Note_on_c, 1, 31, 110
3, 203712, Note_on_c, 1, 39, 110
3, 203804, Note_off_c, 1, 31, 100
3, 203808, Note_on_c, 1, 38, 110
3, 203900, Note_off_c, 1, 39, 100
3, 203904, Note_on_c, 1, 36, 110
3, 203996, Note_off_c, 1, 38, 100
3, 204092, Note_off_c, 1, 36, 100
3, 204192, Note_on_c, 1, 31, 110
3, 204288, Note_on_c, 1, 39, 110
3, 204380, Note_off_c, 1, 31, 100
3, 204384, Note_on_c, 1, 38, 110
3, 204476, Note_off_c, 1, 39, 100
3, 204480, Note_on_c, 1, 36, 110
3, 204572, Note_off_c, 1, 38, 100
3, 204668, Note_off_c, 1, 36, 100
3, 204768, Note_on_c, 1, 31, 110
3, 204864, Note_on_c, 1, 39, 110
3, 204956, Note_off_c, 1, 31, 100
3, 204960, Note_on_c, 1, 36, 110
3, 205052, Note_off_c, 1, 39, 100
3, 205056, Note_on_c, 1, 26, 123
3, 205056, Note_on_c, 1, 38, 121
3, 205148, Note_off_c, 1, 36, 100
3, 205628, Note_off_c, 1, 26, 100
3, 205628, Note_off_c, 1, 38, 100
3, 205632, Note_on_c, 1, 31, 110
3, 205632, Note_on_c, 1, 43, 110
3, 205820, Note_off_c, 1, 31, 100
3, 205820, Note_off_c, 1, 43, 100
3, 205824, Note_on_c, 1, 46, 110
3, 206012, Note_off_c, 1, 46, 100
3, 206016, Note_on_c, 1, 50, 110
3, 206204, Note_off_c, 1, 50, 100
3, 206208, Note_on_c, 1, 55, 110
3, 206396, Note_off_c, 1, 55, 100
3, 206400, Note_on_c, 1, 58, 110
3, 206588, Note_off_c, 1, 58, 100
3, 206592, Note_on_c, 1, 55, 110
3, 206780, Note_off_c, 1, 55, 100
3, 206784, Note_on_c, 1, 50, 110
3, 206972, Note_off_c, 1, 50, 100
3, 206976, Note_on_c, 1, 46, 110
3, 207164, Note_off_c, 1, 46, 100
3, 207168, Note_on_c, 1, 50, 110
3, 207356, Note_off_c, 1, 50, 100
3, 207360, Note_on_c, 1, 46, 110
3, 207548, Note_off_c, 1, 46, 100
3, 207552, Note_on_c, 1, 43, 110
3, 207648, Note_on_c, 1, 38, 110
3, 207740, Note_off_c, 1, 43, 100
3, 207744, Note_on_c, 1, 46, 110
3, 207836, Note_off_c, 1, 38, 100
3, 207840, Note_on_c, 1, 45, 110
3, 207932, Note_off_c, 1, 46, 100
3, 207936, Note_on_c, 1, 43, 110
3, 208028, Note_off_c, 1, 45, 100
3, 208124, Note_off_c, 1, 43, 100
3, 208224, Note_on_c, 1, 38, 110
3, 208320, Note_on_c, 1, 46, 110
3, 208412, Note_off_c, 1, 38, 100
3, 208416, Note_on_c, 1, 45, 110
3, 208508, Note_off_c, 1, 46, 100
3, 208512, Note_on_c, 1, 43, 110
3, 208604, Note_off_c, 1, 45, 100
3, 208700, Note_off_c, 1, 43, 100
3, 208800, Note_on_c, 1, 38, 110
3, 208896, Note_on_c, 1, 46, 110
3, 208988, Note_off_c, 1, 38, 100
3, 208992, Note_on_c, 1, 45, 110
3, 209084, Note_off_c, 1, 46, 100
3, 209088, Note_on_c, 1, 43, 110
3, 209180, Note_off_c, 1, 45, 100
3, 209276, Note_off_c, 1, 43, 100
3, 209376, Note_on_c, 1, 38, 110
3, 209472, Note_on_c, 1, 46, 110
3, 209564, Note_off_c, 1, 38, 100
3, 209568, Note_on_c, 1, 43, 110
3, 209660, Note_off_c, 1, 46, 100
3, 209664, Note_on_c, 1, 34, 120
3, 209664, Note_on_c, 1, 46, 120
3, 209756, Note_off_c, 1, 43, 100
3, 210236, Note_off_c, 1, 34, 100
3, 210236, Note_off_c, 1, 46, 100
3, 210240, Note_on_c, 1, 33, 110
3, 210240, Note_on_c, 1, 45, 110
3, 210428, Note_off_c, 1, 33, 100
3, 210428, Note_off_c, 1, 45, 100
3, 210432, Note_on_c, 1, 52, 110
3, 210432, Note_on_c, 1, 55, 110
3, 210528, Note_on_c, 1, 57, 110
3, 210620, Note_off_c, 1, 52, 100
3, 210620, Note_off_c, 1, 55, 100
3, 210624, Note_on_c, 1, 49, 110
3, 210716, Note_off_c, 1, 57, 100
3, 210720, Note_on_c, 1, 57, 110
3, 210812, Note_off_c, 1, 49, 100
3, 210816, Note_on_c, 1, 52, 110
3, 210816, Note_on_c, 1, 55, 110
3, 210908, Note_off_c, 1, 57, 100
3, 210912, Note_on_c, 1, 57, 110
3, 211004, Note_off_c, 1, 52, 100
3, 211004, Note_off_c, 1, 55, 100
3, 211008, Note_on_c, 1, 49, 110
3, 211100, Note_off_c, 1, 57, 100
3, 211104, Note_on_c, 1, 57, 110
3, 211196, Note_off_c, 1, 49, 100
3, 211200, Note_on_c, 1, 52, 110
3, 211200, Note_on_c, 1, 55, 110
3, 211292, Note_off_c, 1, 57, 100
3, 211296, Note_on_c, 1, 57, 110
3, 211388, Note_off_c, 1, 52, 100
3, 211388, Note_off_c, 1, 55, 100
3, 211392, Note_on_c, 1, 49, 110
3, 211484, Note_off_c, 1, 57, 100
3, 211488, Note_on_c, 1, 57, 110
3, 211580, Note_off_c, 1, 49, 100
3, 211584, Note_on_c, 1, 52, 110
3, 211584, Note_on_c, 1, 55, 110
3, 211676, Note_off_c, 1, 57, 100
3, 211680, Note_on_c, 1, 57, 110
3, 211772, Note_off_c, 1, 52, 100
3, 211772, Note_off_c, 1, 55, 100
3, 211776, Note_on_c, 1, 49, 110
3, 211868, Note_off_c, 1, 57, 100
3, 211872, Note_on_c, 1, 57, 110
3, 211964, Note_off_c, 1, 49, 100
3, 211968, Note_on_c, 1, 52, 110
3, 211968, Note_on_c, 1, 55, 110
3, 212060, Note_off_c, 1, 57, 100
3, 212064, Note_on_c, 1, 57, 110
3, 212156, Note_off_c, 1, 52, 100
3, 212156, Note_off_c, 1, 55, 100
3, 212160, Note_on_c, 1, 49, 110
3, 212252, Note_off_c, 1, 57, 100
3, 212256, Note_on_c, 1, 57, 110
3, 212348, Note_off_c, 1, 49, 100
3, 212352, Note_on_c, 1, 52, 110
3, 212352, Note_on_c, 1, 55, 110
3, 212444, Note_off_c, 1, 57, 100
3, 212448, Note_on_c, 1, 57, 110
3, 212540, Note_off_c, 1, 52, 100
3, 212540, Note_off_c, 1, 55, 100
3, 212544, Note_on_c, 1, 49, 110
3, 212636, Note_off_c, 1, 57, 100
3, 212640, Note_on_c, 1, 57, 110
3, 212732, Note_off_c, 1, 49, 100
3, 212736, Note_on_c, 1, 52, 110
3, 212736, Note_on_c, 1, 55, 110
3, 212828, Note_off_c, 1, 57, 100
3, 212832, Note_on_c, 1, 57, 110
3, 212924, Note_off_c, 1, 52, 100
3, 212924, Note_off_c, 1, 55, 100
3, 212928, Note_on_c, 1, 49, 110
3, 213020, Note_off_c, 1, 57, 100
3, 213024, Note_on_c, 1, 57, 110
3, 213116, Note_off_c, 1, 49, 100
3, 213120, Note_on_c, 1, 52, 110
3, 213120, Note_on_c, 1, 55, 110
3, 213212, Note_off_c, 1, 57, 100
3, 213216, Note_on_c, 1, 57, 105
3, 213308, Note_off_c, 1, 52, 100
3, 213308, Note_off_c, 1, 55, 100
3, 213312, Note_on_c, 1, 49, 103
3, 213404, Note_off_c, 1, 57, 100
3, 213408, Note_on_c, 1, 57, 100
3, 213500, Note_off_c, 1, 49, 100
3, 213504, Note_on_c, 1, 52, 93
3, 213504, Note_on_c, 1, 55, 93
3, 213596, Note_off_c, 1, 57, 100
3, 213600, Note_on_c, 1, 57, 89
3, 213692, Note_off_c, 1, 52, 100
3, 213692, Note_off_c, 1, 55, 100
3, 213696, Note_on_c, 1, 50, 80
3, 213788, Note_off_c, 1, 57, 100
3, 213792, Note_on_c, 1, 57, 80
3, 213884, Note_off_c, 1, 50, 100
3, 213888, Note_on_c, 1, 53, 80
3, 213980, Note_off_c, 1, 57, 100
3, 213984, Note_on_c, 1, 57, 80
3, 214076, Note_off_c, 1, 53, 100
3, 214080, Note_on_c, 1, 50, 80
3, 214172, Note_off_c, 1, 57, 100
3, 214176, Note_on_c, 1, 57, 80
3, 214268, Note_off_c, 1, 50, 100
3, 214272, Note_on_c, 1, 45, 80
3, 214364, Note_off_c, 1, 57, 100
3, 214368, Note_on_c, 1, 55, 80
3, 214460, Note_off_c, 1, 45, 100
3, 214464, Note_on_c, 1, 52, 80
3, 214556, Note_off_c, 1, 55, 100
3, 214560, Note_on_c, 1, 55, 80
3, 214652, Note_off_c, 1, 52, 100
3, 214656, Note_on_c, 1, 45, 80
3, 214748, Note_off_c, 1, 55, 100
3, 214752, Note_on_c, 1, 55, 80
3, 214844, Note_off_c, 1, 45, 100
3, 214848, Note_on_c, 1, 50, 80
3, 214848, Note_on_c, 1, 53, 80
3, 214940, Note_off_c, 1, 55, 100
3, 214944, Note_on_c, 1, 57, 80
3, 215036, Note_off_c, 1, 50, 100
3, 215036, Note_off_c, 1, 53, 100
3, 215040, Note_on_c, 1, 52, 110
3, 215040, Note_on_c, 1, 55, 110
3, 215132, Note_off_c, 1, 57, 100
3, 215136, Note_on_c, 1, 57, 110
3, 215228, Note_off_c, 1, 52, 100
3, 215228, Note_off_c, 1, 55, 100
3, 215232, Note_on_c, 1, 49, 110
3, 215324, Note_off_c, 1, 57, 100
3, 215328, Note_on_c, 1, 57, 110
3, 215420, Note_off_c, 1, 49, 100
3, 215424, Note_on_c, 1, 52, 110
3, 215424, Note_on_c, 1, 55, 110
3, 215516, Note_off_c, 1, 57, 100
3, 215520, Note_on_c, 1, 57, 110
3, 215612, Note_off_c, 1, 52, 100
3, 215612, Note_off_c, 1, 55, 100
3, 215616, Note_on_c, 1, 49, 110
3, 215708, Note_off_c, 1, 57, 100
3, 215712, Note_on_c, 1, 57, 110
3, 215804, Note_off_c, 1, 49, 100
3, 215808, Note_on_c, 1, 52, 110
3, 215808, Note_on_c, 1, 55, 110
3, 215900, Note_off_c, 1, 57, 100
3, 215904, Note_on_c, 1, 57, 110
3, 215996, Note_off_c, 1, 52, 100
3, 215996, Note_off_c, 1, 55, 100
3, 216000, Note_on_c, 1, 49, 110
3, 216092, Note_off_c, 1, 57, 100
3, 216096, Note_on_c, 1, 57, 110
3, 216188, Note_off_c, 1, 49, 100
3, 216192, Note_on_c, 1, 52, 110
3, 216192, Note_on_c, 1, 55, 110
3, 216284, Note_off_c, 1, 57, 100
3, 216288, Note_on_c, 1, 57, 110
3, 216380, Note_off_c, 1, 52, 100
3, 216380, Note_off_c, 1, 55, 100
3, 216384, Note_on_c, 1, 49, 110
3, 216476, Note_off_c, 1, 57, 100
3, 216480, Note_on_c, 1, 57, 110
3, 216572, Note_off_c, 1, 49, 100
3, 216576, Note_on_c, 1, 52, 110
3, 216576, Note_on_c, 1, 55, 110
3, 216668, Note_off_c, 1, 57, 100
3, 216672, Note_on_c, 1, 57, 110
3, 216764, Note_off_c, 1, 52, 100
3, 216764, Note_off_c, 1, 55, 100
3, 216768, Note_on_c, 1, 49, 110
3, 216860, Note_off_c, 1, 57, 100
3, 216864, Note_on_c, 1, 57, 110
3, 216956, Note_off_c, 1, 49, 100
3, 216960, Note_on_c, 1, 52, 110
3, 216960, Note_on_c, 1, 55, 110
3, 217052, Note_off_c, 1, 57, 100
3, 217056, Note_on_c, 1, 57, 110
3, 217148, Note_off_c, 1, 52, 100
3, 217148, Note_off_c, 1, 55, 100
3, 217152, Note_on_c, 1, 49, 110
3, 217244, Note_off_c, 1, 57, 100
3, 217248, Note_on_c, 1, 57, 110
3, 217340, Note_off_c, 1, 49, 100
3, 217344, Note_on_c, 1, 52, 110
3, 217344, Note_on_c, 1, 55, 110
3, 217436, Note_off_c, 1, 57, 100
3, 217440, Note_on_c, 1, 57, 110
3, 217532, Note_off_c, 1, 52, 100
3, 217532, Note_off_c, 1, 55, 100
3, 217536, Note_on_c, 1, 49, 110
3, 217628, Note_off_c, 1, 57, 100
3, 217632, Note_on_c, 1, 57, 110
3, 217724, Note_off_c, 1, 49, 100
3, 217728, Note_on_c, 1, 52, 110
3, 217728, Note_on_c, 1, 55, 110
3, 217820, Note_off_c, 1, 57, 100
3, 217824, Note_on_c, 1, 57, 105
3, 217916, Note_off_c, 1, 52, 100
3, 217916, Note_off_c, 1, 55, 100
3, 217920, Note_on_c, 1, 49, 102
3, 218012, Note_off_c, 1, 57, 100
3, 218016, Note_on_c, 1, 57, 98
3, 218108, Note_off_c, 1, 49, 100
3, 218112, Note_on_c, 1, 52, 94
3, 218112, Note_on_c, 1, 55, 94
3, 218204, Note_off_c, 1, 57, 100
3, 218208, Note_on_c, 1, 57, 90
3, 218300, Note_off_c, 1, 52, 100
3, 218300, Note_off_c, 1, 55, 100
3, 218304, Note_on_c, 1, 50, 80
3, 218396, Note_off_c, 1, 57, 100
3, 218400, Note_on_c, 1, 57, 80
3, 218492, Note_off_c, 1, 50, 100
3, 218496, Note_on_c, 1, 53, 80
3, 218588, Note_off_c, 1, 57, 100
3, 218592, Note_on_c, 1, 57, 80
3, 218684, Note_off_c, 1, 53, 100
3, 218688, Note_on_c, 1, 50, 80
3, 218780, Note_off_c, 1, 57, 100
3, 218784, Note_on_c, 1, 57, 80
3, 218876, Note_off_c, 1, 50, 100
3, 218880, Note_on_c, 1, 45, 80
3, 218972, Note_off_c, 1, 57, 100
3, 218976, Note_on_c, 1, 55, 80
3, 219068, Note_off_c, 1, 45, 100
3, 219072, Note_on_c, 1, 52, 80
3, 219164, Note_off_c, 1, 55, 100
3, 219168, Note_on_c, 1, 55, 80
3, 219260, Note_off_c, 1, 52, 100
3, 219264, Note_on_c, 1, 45, 80
3, 219356, Note_off_c, 1, 55, 100
3, 219360, Note_on_c, 1, 55, 80
3, 219452, Note_off_c, 1, 45, 100
3, 219456, Note_on_c, 1, 46, 80
3, 219548, Note_off_c, 1, 55, 100
3, 219552, Note_on_c, 1, 53, 81
3, 219644, Note_off_c, 1, 46, 100
3, 219648, Note_on_c, 1, 50, 82
3, 219740, Note_off_c, 1, 53, 100
3, 219744, Note_on_c, 1, 53, 83
3, 219836, Note_off_c, 1, 50, 100
3, 219840, Note_on_c, 1, 46, 84
3, 219932, Note_off_c, 1, 53, 100
3, 219936, Note_on_c, 1, 53, 85
3, 220028, Note_off_c, 1, 46, 100
3, 220032, Note_on_c, 1, 43, 87
3, 220124, Note_off_c, 1, 53, 100
3, 220128, Note_on_c, 1, 51, 88
3, 220220, Note_off_c, 1, 43, 100
3, 220224, Note_on_c, 1, 46, 89
3, 220316, Note_off_c, 1, 51, 100
3, 220320, Note_on_c, 1, 51, 90
3, 220412, Note_off_c, 1, 46, 100
3, 220416, Note_on_c, 1, 43, 91
3, 220508, Note_off_c, 1, 51, 100
3, 220512, Note_on_c, 1, 51, 93
3, 220604, Note_off_c, 1, 43, 100
3, 220608, Note_on_c, 1, 45, 94
3, 220700, Note_off_c, 1, 51, 100
3, 220704, Note_on_c, 1, 53, 95
3, 220796, Note_off_c, 1, 45, 100
3, 220800, Note_on_c, 1, 50, 96
3, 220892, Note_off_c, 1, 53, 100
3, 220896, Note_on_c, 1, 53, 97
3, 220988, Note_off_c, 1, 50, 100
3, 220992, Note_on_c, 1, 45, 99
3, 221084, Note_off_c, 1, 53, 100
3, 221088, Note_on_c, 1, 53, 100
3, 221180, Note_off_c, 1, 45, 100
3, 221184, Note_on_c, 1, 43, 101
3, 221276, Note_off_c, 1, 53, 100
3, 221280, Note_on_c, 1, 52, 102
3, 221372, Note_off_c, 1, 43, 100
3, 221376, Note_on_c, 1, 45, 103
3, 221468, Note_off_c, 1, 52, 100
3, 221472, Note_on_c, 1, 52, 105
3, 221564, Note_off_c, 1, 45, 100
3, 221568, Note_on_c, 1, 43, 106
3, 221660, Note_off_c, 1, 52, 100
3, 221664, Note_on_c, 1, 52, 107
3, 221756, Note_off_c, 1, 43, 100
3, 221760, Note_on_c, 1, 41, 108
3, 221852, Note_off_c, 1, 52, 100
3, 221856, Note_on_c, 1, 50, 109
3, 221948, Note_off_c, 1, 41, 100
3, 221952, Note_on_c, 1, 40, 110
3, 222044, Note_off_c, 1, 50, 100
3, 222048, Note_on_c, 1, 50, 110
3, 222140, Note_off_c, 1, 40, 100
3, 222144, Note_on_c, 1, 41, 110
3, 222236, Note_off_c, 1, 50, 100
3, 222240, Note_on_c, 1, 50, 110
3, 222332, Note_off_c, 1, 41, 100
3, 222336, Note_on_c, 1, 43, 110
3, 222428, Note_off_c, 1, 50, 100
3, 222432, Note_on_c, 1, 52, 110
3, 222432, Note_on_c, 1, 50, 110
3, 222524, Note_off_c, 1, 43, 100
3, 222528, Note_on_c, 1, 41, 110
3, 222620, Note_off_c, 1, 52, 100
3, 222620, Note_off_c, 1, 50, 100
3, 222624, Note_on_c, 1, 52, 110
3, 222624, Note_on_c, 1, 50, 110
3, 222716, Note_off_c, 1, 41, 100
3, 222720, Note_on_c, 1, 43, 110
3, 222812, Note_off_c, 1, 52, 100
3, 222812, Note_off_c, 1, 50, 100
3, 222816, Note_on_c, 1, 52, 110
3, 222816, Note_on_c, 1, 50, 110
3, 222908, Note_off_c, 1, 43, 100
3, 222912, Note_on_c, 1, 45, 110
3, 223004, Note_off_c, 1, 50, 100
3, 223004, Note_off_c, 1, 52, 100
3, 223008, Note_on_c, 1, 53, 110
3, 223008, Note_on_c, 1, 50, 110
3, 223100, Note_off_c, 1, 45, 100
3, 223104, Note_on_c, 1, 44, 110
3, 223196, Note_off_c, 1, 53, 100
3, 223196, Note_off_c, 1, 50, 100
3, 223200, Note_on_c, 1, 53, 110
3, 223200, Note_on_c, 1, 50, 110
3, 223292, Note_off_c, 1, 44, 100
3, 223296, Note_on_c, 1, 45, 110
3, 223388, Note_off_c, 1, 53, 100
3, 223388, Note_off_c, 1, 50, 100
3, 223392, Note_on_c, 1, 53, 110
3, 223392, Note_on_c, 1, 50, 110
3, 223484, Note_off_c, 1, 45, 100
3, 223488, Note_on_c, 1, 45, 110
3, 223580, Note_off_c, 1, 50, 100
3, 223580, Note_off_c, 1, 53, 100
3, 223584, Note_on_c, 1, 52, 110
3, 223584, Note_on_c, 1, 55, 110
3, 223676, Note_off_c, 1, 45, 100
3, 223680, Note_on_c, 1, 45, 110
3, 223772, Note_off_c, 1, 52, 100
3, 223772, Note_off_c, 1, 55, 100
3, 223776, Note_on_c, 1, 50, 110
3, 223776, Note_on_c, 1, 53, 110
3, 223868, Note_off_c, 1, 45, 100
3, 223872, Note_on_c, 1, 45, 110
3, 223964, Note_off_c, 1, 50, 100
3, 223964, Note_off_c, 1, 53, 100
3, 223968, Note_on_c, 1, 49, 110
3, 223968, Note_on_c, 1, 52, 110
3, 224060, Note_off_c, 1, 45, 100
3, 224064, Note_on_c, 1, 38, 105
3, 224156, Note_off_c, 1, 49, 100
3, 224156, Note_off_c, 1, 52, 100
3, 224160, Note_on_c, 1, 53, 99
3, 224252, Note_off_c, 1, 38, 100
3, 224256, Note_on_c, 1, 50, 92
3, 224348, Note_off_c, 1, 53, 100
3, 224352, Note_on_c, 1, 53, 86
3, 224444, Note_off_c, 1, 50, 100
3, 224448, Note_on_c, 1, 45, 80
3, 224540, Note_off_c, 1, 53, 100
3, 224544, Note_on_c, 1, 53, 80
3, 224636, Note_off_c, 1, 45, 100
3, 224640, Note_off_c, 1, 53, 100
3, 224640, Note_on_c, 1, 38, 80
3, 224736, Note_on_c, 1, 53, 80
3, 224828, Note_off_c, 1, 38, 100
3, 224832, Note_on_c, 1, 50, 80
3, 224924, Note_off_c, 1, 53, 100
3, 224928, Note_on_c, 1, 53, 80
3, 225020, Note_off_c, 1, 50, 100
3, 225024, Note_on_c, 1, 45, 80
3, 225116, Note_off_c, 1, 53, 100
3, 225120, Note_on_c, 1, 53, 80
3, 225212, Note_off_c, 1, 45, 100
3, 225216, Note_off_c, 1, 53, 100
3, 225216, Note_on_c, 1, 38, 80
3, 225312, Note_on_c, 1, 53, 80
3, 225404, Note_off_c, 1, 38, 100
3, 225408, Note_on_c, 1, 50, 80
3, 225500, Note_off_c, 1, 53, 100
3, 225504, Note_on_c, 1, 53, 80
3, 225596, Note_off_c, 1, 50, 100
3, 225600, Note_on_c, 1, 45, 80
3, 225692, Note_off_c, 1, 53, 100
3, 225696, Note_on_c, 1, 53, 80
3, 225788, Note_off_c, 1, 45, 100
3, 225792, Note_off_c, 1, 53, 100
3, 225792, Note_on_c, 1, 38, 80
3, 225888, Note_on_c, 1, 53, 80
3, 225980, Note_off_c, 1, 38, 100
3, 225984, Note_on_c, 1, 50, 80
3, 226076, Note_off_c, 1, 53, 100
3, 226080, Note_on_c, 1, 53, 80
3, 226172, Note_off_c, 1, 50, 100
3, 226176, Note_on_c, 1, 45, 80
3, 226268, Note_off_c, 1, 53, 100
3, 226272, Note_on_c, 1, 53, 80
3, 226364, Note_off_c, 1, 45, 100
3, 226368, Note_off_c, 1, 53, 100
3, 226368, Note_on_c, 1, 33, 80
3, 226464, Note_on_c, 1, 53, 81
3, 226556, Note_off_c, 1, 33, 100
3, 226560, Note_on_c, 1, 50, 83
3, 226652, Note_off_c, 1, 53, 100
3, 226656, Note_on_c, 1, 53, 84
3, 226748, Note_off_c, 1, 50, 100
3, 226752, Note_on_c, 1, 45, 86
3, 226844, Note_off_c, 1, 53, 100
3, 226848, Note_on_c, 1, 53, 88
3, 226940, Note_off_c, 1, 45, 100
3, 226944, Note_off_c, 1, 53, 100
3, 226944, Note_on_c, 1, 33, 89
3, 227040, Note_on_c, 1, 55, 91
3, 227132, Note_off_c, 1, 33, 100
3, 227136, Note_on_c, 1, 52, 93
3, 227228, Note_off_c, 1, 55, 100
3, 227232, Note_on_c, 1, 55, 94
3, 227324, Note_off_c, 1, 52, 100
3, 227328, Note_on_c, 1, 45, 96
3, 227420, Note_off_c, 1, 55, 100
3, 227424, Note_on_c, 1, 55, 98
3, 227516, Note_off_c, 1, 45, 100
3, 227520, Note_on_c, 1, 38, 99
3, 227612, Note_off_c, 1, 55, 100
3, 227616, Note_on_c, 1, 53, 99
3, 227708, Note_off_c, 1, 38, 100
3, 227712, Note_on_c, 1, 50, 92
3, 227804, Note_off_c, 1, 53, 100
3, 227808, Note_on_c, 1, 53, 80
3, 227900, Note_off_c, 1, 50, 100
3, 227904, Note_on_c, 1, 45, 80
3, 227996, Note_off_c, 1, 53, 100
3, 228000, Note_on_c, 1, 53, 80
3, 228092, Note_off_c, 1, 45, 100
3, 228096, Note_off_c, 1, 53, 100
3, 228096, Note_on_c, 1, 38, 80
3, 228192, Note_on_c, 1, 53, 80
3, 228284, Note_off_c, 1, 38, 100
3, 228288, Note_on_c, 1, 50, 80
3, 228380, Note_off_c, 1, 53, 100
3, 228384, Note_on_c, 1, 53, 80
3, 228476, Note_off_c, 1, 50, 100
3, 228480, Note_on_c, 1, 45, 80
3, 228572, Note_off_c, 1, 53, 100
3, 228576, Note_on_c, 1, 53, 80
3, 228668, Note_off_c, 1, 45, 100
3, 228672, Note_off_c, 1, 53, 100
3, 228672, Note_on_c, 1, 38, 80
3, 228768, Note_on_c, 1, 53, 80
3, 228860, Note_off_c, 1, 38, 100
3, 228864, Note_on_c, 1, 50, 80
3, 228956, Note_off_c, 1, 53, 100
3, 228960, Note_on_c, 1, 53, 80
3, 229052, Note_off_c, 1, 50, 100
3, 229056, Note_on_c, 1, 45, 80
3, 229148, Note_off_c, 1, 53, 100
3, 229152, Note_on_c, 1, 53, 80
3, 229244, Note_off_c, 1, 45, 100
3, 229248, Note_off_c, 1, 53, 100
3, 229248, Note_on_c, 1, 38, 80
3, 229344, Note_on_c, 1, 53, 80
3, 229436, Note_off_c, 1, 38, 100
3, 229440, Note_on_c, 1, 50, 80
3, 229532, Note_off_c, 1, 53, 100
3, 229536, Note_on_c, 1, 53, 80
3, 229628, Note_off_c, 1, 50, 100
3, 229632, Note_on_c, 1, 45, 80
3, 229724, Note_off_c, 1, 53, 100
3, 229728, Note_on_c, 1, 53, 80
3, 229820, Note_off_c, 1, 45, 100
3, 229824, Note_off_c, 1, 53, 100
3, 229824, Note_on_c, 1, 33, 80
3, 229920, Note_on_c, 1, 53, 81
3, 230012, Note_off_c, 1, 33, 100
3, 230016, Note_on_c, 1, 50, 83
3, 230108, Note_off_c, 1, 53, 100
3, 230112, Note_on_c, 1, 53, 84
3, 230204, Note_off_c, 1, 50, 100
3, 230208, Note_on_c, 1, 45, 86
3, 230300, Note_off_c, 1, 53, 100
3, 230304, Note_on_c, 1, 53, 88
3, 230396, Note_off_c, 1, 45, 100
3, 230400, Note_off_c, 1, 53, 100
3, 230400, Note_on_c, 1, 33, 89
3, 230496, Note_on_c, 1, 55, 91
3, 230588, Note_off_c, 1, 33, 100
3, 230592, Note_on_c, 1, 52, 93
3, 230684, Note_off_c, 1, 55, 100
3, 230688, Note_on_c, 1, 55, 94
3, 230780, Note_off_c, 1, 52, 100
3, 230784, Note_on_c, 1, 45, 96
3, 230876, Note_off_c, 1, 55, 100
3, 230880, Note_on_c, 1, 55, 98
3, 230972, Note_off_c, 1, 45, 100
3, 230976, Note_on_c, 1, 50, 80
3, 231068, Note_off_c, 1, 55, 100
3, 231072, Note_on_c, 1, 62, 83
3, 231164, Note_off_c, 1, 50, 100
3, 231168, Note_on_c, 1, 61, 86
3, 231260, Note_off_c, 1, 62, 100
3, 231264, Note_on_c, 1, 62, 89
3, 231356, Note_off_c, 1, 61, 100
3, 231360, Note_on_c, 1, 60, 93
3, 231452, Note_off_c, 1, 62, 100
3, 231456, Note_on_c, 1, 62, 96
3, 231548, Note_off_c, 1, 60, 100
3, 231552, Note_on_c, 1, 58, 99
3, 231644, Note_off_c, 1, 62, 100
3, 231648, Note_on_c, 1, 62, 100
3, 231740, Note_off_c, 1, 58, 100
3, 231744, Note_on_c, 1, 57, 100
3, 231836, Note_off_c, 1, 62, 100
3, 231840, Note_on_c, 1, 62, 100
3, 231932, Note_off_c, 1, 57, 100
3, 231936, Note_on_c, 1, 56, 100
3, 232028, Note_off_c, 1, 62, 100
3, 232032, Note_on_c, 1, 62, 100
3, 232124, Note_off_c, 1, 56, 100
3, 232128, Note_on_c, 1, 57, 100
3, 232220, Note_off_c, 1, 62, 100
3, 232224, Note_on_c, 1, 62, 100
3, 232316, Note_off_c, 1, 57, 100
3, 232320, Note_on_c, 1, 64, 100
3, 232412, Note_off_c, 1, 62, 100
3, 232416, Note_on_c, 1, 57, 100
3, 232508, Note_off_c, 1, 64, 100
3, 232512, Note_on_c, 1, 65, 100
3, 232604, Note_off_c, 1, 57, 100
3, 232608, Note_on_c, 1, 57, 100
3, 232700, Note_off_c, 1, 65, 100
3, 232704, Note_on_c, 1, 67, 100
3, 232796, Note_off_c, 1, 57, 100
3, 232800, Note_on_c, 1, 57, 100
3, 232892, Note_off_c, 1, 67, 100
3, 232896, Note_on_c, 1, 65, 100
3, 232988, Note_off_c, 1, 57, 100
3, 232992, Note_on_c, 1, 57, 100
3, 233084, Note_off_c, 1, 65, 100
3, 233088, Note_on_c, 1, 64, 100
3, 233180, Note_off_c, 1, 57, 100
3, 233184, Note_on_c, 1, 57, 100
3, 233276, Note_off_c, 1, 64, 100
3, 233280, Note_on_c, 1, 50, 90
3, 233372, Note_off_c, 1, 57, 100
3, 233376, Note_on_c, 1, 62, 91
3, 233468, Note_off_c, 1, 50, 100
3, 233472, Note_on_c, 1, 61, 93
3, 233564, Note_off_c, 1, 62, 100
3, 233568, Note_on_c, 1, 62, 94
3, 233660, Note_off_c, 1, 61, 100
3, 233664, Note_on_c, 1, 60, 96
3, 233756, Note_off_c, 1, 62, 100
3, 233760, Note_on_c, 1, 62, 98
3, 233852, Note_off_c, 1, 60, 100
3, 233856, Note_on_c, 1, 58, 99
3, 233948, Note_off_c, 1, 62, 100
3, 233952, Note_on_c, 1, 62, 100
3, 234044, Note_off_c, 1, 58, 100
3, 234048, Note_on_c, 1, 57, 100
3, 234140, Note_off_c, 1, 62, 100
3, 234144, Note_on_c, 1, 62, 100
3, 234236, Note_off_c, 1, 57, 100
3, 234240, Note_on_c, 1, 56, 100
3, 234332, Note_off_c, 1, 62, 100
3, 234336, Note_on_c, 1, 62, 100
3, 234428, Note_off_c, 1, 56, 100
3, 234432, Note_on_c, 1, 57, 100
3, 234524, Note_off_c, 1, 62, 100
3, 234528, Note_on_c, 1, 62, 100
3, 234620, Note_off_c, 1, 57, 100
3, 234624, Note_on_c, 1, 64, 100
3, 234716, Note_off_c, 1, 62, 100
3, 234720, Note_on_c, 1, 57, 100
3, 234812, Note_off_c, 1, 64, 100
3, 234816, Note_on_c, 1, 65, 100
3, 234908, Note_off_c, 1, 57, 100
3, 234912, Note_on_c, 1, 57, 100
3, 235004, Note_off_c, 1, 65, 100
3, 235008, Note_on_c, 1, 67, 100
3, 235100, Note_off_c, 1, 57, 100
3, 235104, Note_on_c, 1, 57, 100
3, 235196, Note_off_c, 1, 67, 100
3, 235200, Note_on_c, 1, 65, 100
3, 235292, Note_off_c, 1, 57, 100
3, 235296, Note_on_c, 1, 57, 100
3, 235388, Note_off_c, 1, 65, 100
3, 235392, Note_on_c, 1, 64, 100
3, 235484, Note_off_c, 1, 57, 100
3, 235488, Note_on_c, 1, 57, 100
3, 235580, Note_off_c, 1, 64, 100
3, 235584, Note_on_c, 1, 50, 120
3, 235676, Note_off_c, 1, 57, 100
3, 235680, Note_on_c, 1, 62, 100
3, 235772, Note_off_c, 1, 50, 100
3, 235776, Note_on_c, 1, 61, 100
3, 235868, Note_off_c, 1, 62, 100
3, 235872, Note_on_c, 1, 62, 100
3, 235964, Note_off_c, 1, 61, 100
3, 235968, Note_on_c, 1, 50, 100
3, 236060, Note_off_c, 1, 62, 100
3, 236064, Note_on_c, 1, 62, 100
3, 236156, Note_off_c, 1, 50, 100
3, 236160, Note_on_c, 1, 61, 120
3, 236252, Note_off_c, 1, 62, 100
3, 236256, Note_on_c, 1, 62, 100
3, 236348, Note_off_c, 1, 61, 100
3, 236352, Note_on_c, 1, 50, 100
3, 236444, Note_off_c, 1, 62, 100
3, 236448, Note_on_c, 1, 62, 100
3, 236540, Note_off_c, 1, 50, 100
3, 236544, Note_on_c, 1, 61, 100
3, 236636, Note_off_c, 1, 62, 100
3, 236640, Note_on_c, 1, 62, 100
3, 236732, Note_off_c, 1, 61, 100
3, 236736, Note_on_c, 1, 50, 120
3, 236828, Note_off_c, 1, 62, 100
3, 236832, Note_on_c, 1, 62, 100
3, 236924, Note_off_c, 1, 50, 100
3, 236928, Note_on_c, 1, 61, 100
3, 237020, Note_off_c, 1, 62, 100
3, 237024, Note_on_c, 1, 62, 100
3, 237116, Note_off_c, 1, 61, 100
3, 237120, Note_on_c, 1, 50, 100
3, 237212, Note_off_c, 1, 62, 100
3, 237216, Note_on_c, 1, 62, 100
3, 237308, Note_off_c, 1, 50, 100
3, 237312, Note_on_c, 1, 61, 120
3, 237404, Note_off_c, 1, 62, 100
3, 237408, Note_on_c, 1, 62, 100
3, 237500, Note_off_c, 1, 61, 100
3, 237504, Note_on_c, 1, 50, 100
3, 237596, Note_off_c, 1, 62, 100
3, 237600, Note_on_c, 1, 62, 100
3, 237692, Note_off_c, 1, 50, 100
3, 237696, Note_on_c, 1, 61, 100
3, 237788, Note_off_c, 1, 62, 100
3, 237792, Note_on_c, 1, 62, 100
3, 237884, Note_off_c, 1, 61, 100
3, 237888, Note_on_c, 1, 72, 90
3, 237888, Note_on_c, 1, 69, 90
3, 237888, Note_on_c, 1, 66, 90
3, 237980, Note_off_c, 1, 62, 100
3, 238076, Note_off_c, 1, 72, 100
3, 238076, Note_off_c, 1, 69, 100
3, 238076, Note_off_c, 1, 66, 100
3, 240192, Note_on_c, 1, 66, 80
3, 240288, Note_on_c, 1, 69, 80
3, 240384, Note_on_c, 1, 72, 80
3, 240476, Note_off_c, 1, 69, 100
3, 240572, Note_off_c, 1, 72, 100
3, 240764, Note_off_c, 1, 66, 100
3, 240768, Note_on_c, 1, 66, 80
3, 240864, Note_on_c, 1, 69, 80
3, 240960, Note_on_c, 1, 72, 80
3, 241052, Note_off_c, 1, 69, 100
3, 241148, Note_off_c, 1, 72, 100
3, 241340, Note_off_c, 1, 66, 100
3, 241344, Note_on_c, 1, 66, 80
3, 241440, Note_on_c, 1, 69, 80
3, 241536, Note_on_c, 1, 72, 80
3, 241628, Note_off_c, 1, 69, 100
3, 241724, Note_off_c, 1, 72, 100
3, 241916, Note_off_c, 1, 66, 100
3, 241920, Note_on_c, 1, 66, 80
3, 242016, Note_on_c, 1, 69, 80
3, 242112, Note_on_c, 1, 72, 80
3, 242204, Note_off_c, 1, 69, 100
3, 242300, Note_off_c, 1, 72, 100
3, 242492, Note_off_c, 1, 66, 100
3, 242496, Note_on_c, 1, 55, 80
3, 242592, Note_on_c, 1, 58, 80
3, 242688, Note_on_c, 1, 62, 81
3, 243068, Note_off_c, 1, 55, 100
3, 243068, Note_off_c, 1, 58, 100
3, 243068, Note_off_c, 1, 62, 100
3, 243072, Note_on_c, 1, 55, 84
3, 243168, Note_on_c, 1, 58, 85
3, 243264, Note_on_c, 1, 61, 86
3, 243644, Note_off_c, 1, 55, 100
3, 243644, Note_off_c, 1, 58, 100
3, 243644, Note_off_c, 1, 61, 100
3, 243648, Note_on_c, 1, 55, 89
3, 243744, Note_on_c, 1, 58, 90
3, 243840, Note_on_c, 1, 62, 91
3, 244220, Note_off_c, 1, 55, 100
3, 244220, Note_off_c, 1, 58, 100
3, 244220, Note_off_c, 1, 62, 100
3, 244224, Note_on_c, 1, 55, 94
3, 244320, Note_on_c, 1, 61, 95
3, 244416, Note_on_c, 1, 64, 96
3, 244796, Note_off_c, 1, 55, 100
3, 244796, Note_off_c, 1, 61, 100
3, 244796, Note_off_c, 1, 64, 100
3, 244800, Note_on_c, 1, 68, 100
3, 244896, Note_on_c, 1, 71, 91
3, 244992, Note_on_c, 1, 74, 81
3, 245084, Note_off_c, 1, 71, 100
3, 245180, Note_off_c, 1, 74, 100
3, 245372, Note_off_c, 1, 68, 100
3, 245376, Note_on_c, 1, 68, 80
3, 245472, Note_on_c, 1, 71, 80
3, 245568, Note_on_c, 1, 74, 80
3, 245660, Note_off_c, 1, 71, 100
3, 245756, Note_off_c, 1, 74, 100
3, 245948, Note_off_c, 1, 68, 100
3, 245952, Note_on_c, 1, 68, 80
3, 246048, Note_on_c, 1, 71, 80
3, 246144, Note_on_c, 1, 74, 80
3, 246236, Note_off_c, 1, 71, 100
3, 246332, Note_off_c, 1, 74, 100
3, 246524, Note_off_c, 1, 68, 100
3, 246528, Note_on_c, 1, 68, 80
3, 246624, Note_on_c, 1, 71, 80
3, 246720, Note_on_c, 1, 74, 80
3, 246812, Note_off_c, 1, 71, 100
3, 246908, Note_off_c, 1, 74, 100
3, 247100, Note_off_c, 1, 68, 100
3, 247104, Note_on_c, 1, 57, 80
3, 247200, Note_on_c, 1, 61, 80
3, 247296, Note_on_c, 1, 64, 81
3, 247676, Note_off_c, 1, 57, 100
3, 247676, Note_off_c, 1, 61, 100
3, 247676, Note_off_c, 1, 64, 100
3, 247680, Note_on_c, 1, 57, 84
3, 247776, Note_on_c, 1, 61, 85
3, 247872, Note_on_c, 1, 63, 86
3, 248252, Note_off_c, 1, 57, 100
3, 248252, Note_off_c, 1, 61, 100
3, 248252, Note_off_c, 1, 63, 100
3, 248256, Note_on_c, 1, 57, 89
3, 248352, Note_on_c, 1, 61, 90
3, 248448, Note_on_c, 1, 64, 91
3, 248828, Note_off_c, 1, 57, 100
3, 248828, Note_off_c, 1, 61, 100
3, 248828, Note_off_c, 1, 64, 100
3, 248832, Note_on_c, 1, 57, 94
3, 248928, Note_on_c, 1, 61, 95
3, 249024, Note_on_c, 1, 66, 96
3, 249404, Note_off_c, 1, 57, 100
3, 249404, Note_off_c, 1, 61, 100
3, 249404, Note_off_c, 1, 66, 100
3, 249408, Note_on_c, 1, 57, 100
3, 249504, Note_on_c, 1, 61, 100
3, 249600, Note_on_c, 1, 67, 99
3, 249980, Note_off_c, 1, 57, 100
3, 249980, Note_off_c, 1, 61, 100
3, 249980, Note_off_c, 1, 67, 100
3, 249984, Note_on_c, 1, 57, 96
3, 250080, Note_on_c, 1, 61, 95
3, 250176, Note_on_c, 1, 66, 94
3, 250556, Note_off_c, 1, 57, 100
3, 250556, Note_off_c, 1, 61, 100
3, 250556, Note_off_c, 1, 66, 100
3, 250560, Note_on_c, 1, 57, 91
3, 250656, Note_on_c, 1, 61, 90
3, 250752, Note_on_c, 1, 67, 89
3, 251132, Note_off_c, 1, 57, 100
3, 251132, Note_off_c, 1, 61, 100
3, 251132, Note_off_c, 1, 67, 100
3, 251136, Note_on_c, 1, 57, 86
3, 251232, Note_on_c, 1, 61, 85
3, 251328, Note_on_c, 1, 65, 84
3, 251708, Note_off_c, 1, 57, 100
3, 251708, Note_off_c, 1, 61, 100
3, 251708, Note_off_c, 1, 65, 100
3, 251712, Note_on_c, 1, 57, 80
3, 251808, Note_on_c, 1, 61, 80
3, 251904, Note_on_c, 1, 64, 80
3, 252284, Note_off_c, 1, 57, 100
3, 252284, Note_off_c, 1, 61, 100
3, 252284, Note_off_c, 1, 64, 100
3, 252288, Note_on_c, 1, 57, 82
3, 252384, Note_on_c, 1, 61, 83
3, 252480, Note_on_c, 1, 63, 84
3, 252860, Note_off_c, 1, 57, 100
3, 252860, Note_off_c, 1, 61, 100
3, 252860, Note_off_c, 1, 63, 100
3, 252864, Note_on_c, 1, 57, 88
3, 252960, Note_on_c, 1, 61, 89
3, 253056, Note_on_c, 1, 64, 90
3, 253436, Note_off_c, 1, 57, 100
3, 253436, Note_off_c, 1, 61, 100
3, 253436, Note_off_c, 1, 64, 100
3, 253440, Note_on_c, 1, 57, 94
3, 253536, Note_on_c, 1, 61, 95
3, 253632, Note_on_c, 1, 66, 96
3, 254012, Note_off_c, 1, 57, 100
3, 254012, Note_off_c, 1, 61, 100
3, 254012, Note_off_c, 1, 66, 100
3, 254016, Note_on_c, 1, 57, 100
3, 254112, Note_on_c, 1, 61, 99
3, 254208, Note_on_c, 1, 67, 97
3, 254588, Note_off_c, 1, 57, 100
3, 254588, Note_off_c, 1, 61, 100
3, 254588, Note_off_c, 1, 67, 100
3, 254592, Note_on_c, 1, 57, 91
3, 254688, Note_on_c, 1, 61, 89
3, 254784, Note_on_c, 1, 67, 87
3, 255164, Note_off_c, 1, 57, 100
3, 255164, Note_off_c, 1, 61, 100
3, 255164, Note_off_c, 1, 67, 100
3, 255168, Note_on_c, 1, 57, 81
3, 255264, Note_on_c, 1, 61, 79
3, 255360, Note_on_c, 1, 67, 77
3, 255740, Note_off_c, 1, 57, 100
3, 255740, Note_off_c, 1, 61, 100
3, 255740, Note_off_c, 1, 67, 100
3, 255744, Note_on_c, 1, 57, 80
3, 255840, Note_on_c, 1, 61, 80
3, 255936, Note_on_c, 1, 64, 80
3, 256028, Note_off_c, 1, 61, 100
3, 256124, Note_off_c, 1, 64, 100
3, 256316, Note_off_c, 1, 57, 100
3, 256320, Note_on_c, 1, 53, 120
3, 256416, Note_on_c, 1, 57, 120
3, 256508, Note_off_c, 1, 53, 100
3, 256512, Note_on_c, 1, 62, 120
3, 256608, Note_on_c, 1, 65, 120
3, 256700, Note_off_c, 1, 62, 100
3, 256796, Note_off_c, 1, 65, 100
3, 256892, Note_off_c, 1, 57, 100
3, 256896, Note_on_c, 1, 53, 120
3, 256992, Note_on_c, 1, 57, 120
3, 257084, Note_off_c, 1, 53, 100
3, 257088, Note_on_c, 1, 62, 120
3, 257184, Note_on_c, 1, 65, 120
3, 257276, Note_off_c, 1, 62, 100
3, 257372, Note_off_c, 1, 65, 100
3, 257468, Note_off_c, 1, 57, 100
3, 257472, Note_on_c, 1, 53, 120
3, 257568, Note_on_c, 1, 57, 120
3, 257660, Note_off_c, 1, 53, 100
3, 257664, Note_on_c, 1, 62, 120
3, 257760, Note_on_c, 1, 65, 120
3, 257852, Note_off_c, 1, 62, 100
3, 257948, Note_off_c, 1, 65, 100
3, 258044, Note_off_c, 1, 57, 100
3, 258048, Note_on_c, 1, 45, 120
3, 258144, Note_on_c, 1, 57, 120
3, 258236, Note_off_c, 1, 45, 100
3, 258240, Note_on_c, 1, 61, 120
3, 258336, Note_on_c, 1, 64, 120
3, 258428, Note_off_c, 1, 61, 100
3, 258524, Note_off_c, 1, 64, 100
3, 258620, Note_off_c, 1, 57, 100
3, 258624, Note_on_c, 1, 45, 120
3, 258720, Note_on_c, 1, 57, 120
3, 258812, Note_off_c, 1, 45, 100
3, 258816, Note_on_c, 1, 61, 120
3, 258912, Note_on_c, 1, 64, 120
3, 259004, Note_off_c, 1, 61, 100
3, 259100, Note_off_c, 1, 64, 100
3, 259196, Note_off_c, 1, 57, 100
3, 259200, Note_on_c, 1, 45, 120
3, 259296, Note_on_c, 1, 57, 120
3, 259388, Note_off_c, 1, 45, 100
3, 259392, Note_on_c, 1, 61, 120
3, 259488, Note_on_c, 1, 64, 120
3, 259580, Note_off_c, 1, 61, 100
3, 259676, Note_off_c, 1, 64, 100
3, 259772, Note_off_c, 1, 57, 100
3, 259776, Note_on_c, 1, 45, 120
3, 259872, Note_on_c, 1, 57, 120
3, 259964, Note_off_c, 1, 45, 100
3, 259968, Note_on_c, 1, 61, 120
3, 260064, Note_on_c, 1, 64, 120
3, 260156, Note_off_c, 1, 61, 100
3, 260252, Note_off_c, 1, 64, 100
3, 260348, Note_off_c, 1, 57, 100
3, 260352, Note_on_c, 1, 50, 110
3, 260448, Note_on_c, 1, 57, 104
3, 260540, Note_off_c, 1, 50, 100
3, 260544, Note_on_c, 1, 62, 97
3, 260640, Note_on_c, 1, 65, 88
3, 260732, Note_off_c, 1, 62, 100
3, 260828, Note_off_c, 1, 65, 100
3, 260924, Note_off_c, 1, 57, 100
3, 260928, Note_on_c, 1, 55, 88
3, 261024, Note_on_c, 1, 62, 87
3, 261120, Note_on_c, 1, 67, 88
3, 261500, Note_off_c, 1, 55, 100
3, 261500, Note_off_c, 1, 62, 100
3, 261500, Note_off_c, 1, 67, 100
3, 261504, Note_on_c, 1, 51, 93
3, 261600, Note_on_c, 1, 58, 94
3, 261696, Note_on_c, 1, 63, 95
3, 262076, Note_off_c, 1, 51, 100
3, 262076, Note_off_c, 1, 58, 100
3, 262076, Note_off_c, 1, 63, 100
3, 262080, Note_on_c, 1, 49, 100
3, 262176, Note_on_c, 1, 57, 99
3, 262272, Note_on_c, 1, 61, 97
3, 262652, Note_off_c, 1, 49, 100
3, 262652, Note_off_c, 1, 57, 100
3, 262652, Note_off_c, 1, 61, 100
3, 262656, Note_on_c, 1, 50, 91
3, 262752, Note_on_c, 1, 57, 89
3, 262848, Note_on_c, 1, 62, 87
3, 263228, Note_off_c, 1, 50, 100
3, 263228, Note_off_c, 1, 57, 100
3, 263228, Note_off_c, 1, 62, 100
3, 263232, Note_on_c, 1, 45, 80
3, 263328, Note_on_c, 1, 53, 82
3, 263424, Note_on_c, 1, 57, 84
3, 263804, Note_off_c, 1, 45, 100
3, 263804, Note_off_c, 1, 53, 100
3, 263804, Note_off_c, 1, 57, 100
3, 263808, Note_on_c, 1, 45, 94
3, 263904, Note_on_c, 1, 52, 97
3, 264000, Note_on_c, 1, 55, 99
3, 264096, Note_on_c, 1, 57, 102
3, 264380, Note_off_c, 1, 45, 100
3, 264380, Note_off_c, 1, 52, 100
3, 264380, Note_off_c, 1, 55, 100
3, 264380, Note_off_c, 1, 57, 100
3, 264384, Note_on_c, 1, 38, 110
3, 264480, Note_on_c, 1, 50, 110
3, 264572, Note_off_c, 1, 38, 100
3, 264576, Note_on_c, 1, 53, 110
3, 264668, Note_off_c, 1, 50, 100
3, 264672, Note_on_c, 1, 57, 110
3, 264764, Note_off_c, 1, 53, 100
3, 264768, Note_on_c, 1, 62, 110
3, 264860, Note_off_c, 1, 57, 100
3, 264956, Note_off_c, 1, 62, 100
3, 265536, Note_on_c, 1, 55, 86
3, 265632, Note_on_c, 1, 62, 87
3, 265728, Note_on_c, 1, 67, 88
3, 266108, Note_off_c, 1, 55, 100
3, 266108, Note_off_c, 1, 62, 100
3, 266108, Note_off_c, 1, 67, 100
3, 266112, Note_on_c, 1, 51, 93
3, 266208, Note_on_c, 1, 58, 94
3, 266304, Note_on_c, 1, 63, 95
3, 266684, Note_off_c, 1, 51, 100
3, 266684, Note_off_c, 1, 58, 100
3, 266684, Note_off_c, 1, 63, 100
3, 266688, Note_on_c, 1, 49, 100
3, 266784, Note_on_c, 1, 57, 99
3, 266880, Note_on_c, 1, 61, 97
3, 267260, Note_off_c, 1, 49, 100
3, 267260, Note_off_c, 1, 57, 100
3, 267260, Note_off_c, 1, 61, 100
3, 267264, Note_on_c, 1, 50, 91
3, 267360, Note_on_c, 1, 57, 89
3, 267456, Note_on_c, 1, 62, 87
3, 267836, Note_off_c, 1, 50, 100
3, 267836, Note_off_c, 1, 57, 100
3, 267836, Note_off_c, 1, 62, 100
3, 267840, Note_on_c, 1, 45, 80
3, 267936, Note_on_c, 1, 53, 82
3, 268032, Note_on_c, 1, 57, 84
3, 268412, Note_off_c, 1, 45, 100
3, 268412, Note_off_c, 1, 53, 100
3, 268412, Note_off_c, 1, 57, 100
3, 268416, Note_on_c, 1, 45, 94
3, 268512, Note_on_c, 1, 52, 97
3, 268608, Note_on_c, 1, 55, 99
3, 268704, Note_on_c, 1, 57, 102
3, 268988, Note_off_c, 1, 45, 100
3, 268988, Note_off_c, 1, 52, 100
3, 268988, Note_off_c, 1, 55, 100
3, 268988, Note_off_c, 1, 57, 100
3, 268992, Note_on_c, 1, 38, 110
3, 269088, Note_on_c, 1, 53, 109
3, 269180, Note_off_c, 1, 38, 100
3, 269184, Note_on_c, 1, 57, 107
3, 269276, Note_off_c, 1, 53, 100
3, 269280, Note_on_c, 1, 62, 106
3, 269372, Note_off_c, 1, 57, 100
3, 269468, Note_off_c, 1, 62, 100
3, 270144, Note_on_c, 1, 45, 80
3, 270240, Note_on_c, 1, 53, 82
3, 270336, Note_on_c, 1, 57, 84
3, 270716, Note_off_c, 1, 45, 100
3, 270716, Note_off_c, 1, 53, 100
3, 270716, Note_off_c, 1, 57, 100
3, 270720, Note_on_c, 1, 45, 94
3, 270816, Note_on_c, 1, 52, 97
3, 270912, Note_on_c, 1, 55, 99
3, 271008, Note_on_c, 1, 57, 102
3, 271292, Note_off_c, 1, 45, 100
3, 271292, Note_off_c, 1, 52, 100
3, 271292, Note_off_c, 1, 55, 100
3, 271292, Note_off_c, 1, 57, 100
3, 271296, Note_on_c, 1, 38, 110
3, 271392, Note_on_c, 1, 53, 110
3, 271484, Note_off_c, 1, 38, 100
3, 271488, Note_on_c, 1, 57, 110
3, 271580, Note_off_c, 1, 53, 100
3, 271584, Note_on_c, 1, 62, 110
3, 271676, Note_off_c, 1, 57, 100
3, 271772, Note_off_c, 1, 62, 100
3, 272448, Note_on_c, 1, 45, 80
3, 272544, Note_on_c, 1, 53, 80
3, 272640, Note_on_c, 1, 57, 83
3, 273020, Note_off_c, 1, 45, 100
3, 273020, Note_off_c, 1, 53, 100
3, 273020, Note_off_c, 1, 57, 100
3, 273024, Note_on_c, 1, 45, 98
3, 273120, Note_on_c, 1, 52, 101
3, 273216, Note_on_c, 1, 55, 105
3, 273312, Note_on_c, 1, 57, 109
3, 273404, Note_off_c, 1, 52, 100
3, 273596, Note_off_c, 1, 45, 100
3, 273596, Note_off_c, 1, 55, 100
3, 273596, Note_off_c, 1, 57, 100
3, 273600, Note_on_c, 1, 50, 119
3, 273788, Note_off_c, 1, 50, 100
3, 273792, Note_on_c, 1, 77, 120
3, 274272, Note_on_c, 1, 76, 120
3, 274364, Note_off_c, 1, 77, 100
3, 274368, Note_on_c, 1, 75, 120
3, 274460, Note_off_c, 1, 76, 100
3, 274464, Note_on_c, 1, 74, 120
3, 274556, Note_off_c, 1, 75, 100
3, 274560, Note_on_c, 1, 73, 120
3, 274652, Note_off_c, 1, 74, 100
3, 274656, Note_on_c, 1, 72, 120
3, 274748, Note_off_c, 1, 73, 100
3, 274752, Note_on_c, 1, 71, 120
3, 274816, Note_on_c, 1, 70, 120
3, 274844, Note_off_c, 1, 72, 100
3, 274876, Note_off_c, 1, 71, 100
3, 274880, Note_on_c, 1, 69, 120
3, 274940, Note_off_c, 1, 70, 100
3, 274944, Note_on_c, 1, 68, 120
3, 275004, Note_off_c, 1, 69, 100
3, 275008, Note_on_c, 1, 67, 120
3, 275068, Note_off_c, 1, 68, 100
3, 275072, Note_on_c, 1, 66, 120
3, 275132, Note_off_c, 1, 67, 100
3, 275136, Note_on_c, 1, 65, 120
3, 275184, Note_on_c, 1, 64, 120
3, 275196, Note_off_c, 1, 66, 100
3, 275228, Note_off_c, 1, 65, 100
3, 275232, Note_on_c, 1, 63, 120
3, 275276, Note_off_c, 1, 64, 100
3, 275280, Note_on_c, 1, 62, 120
3, 275324, Note_off_c, 1, 63, 100
3, 275328, Note_on_c, 1, 69, 120
3, 275372, Note_off_c, 1, 62, 100
3, 275516, Note_off_c, 1, 69, 100
3, 275712, Note_on_c, 1, 57, 120
3, 275900, Note_off_c, 1, 57, 100
3, 275904, Note_on_c, 1, 50, 80
3, 276000, Note_on_c, 1, 57, 80
3, 276092, Note_off_c, 1, 50, 100
3, 276096, Note_on_c, 1, 62, 80
3, 276192, Note_on_c, 1, 65, 80
3, 276284, Note_off_c, 1, 62, 100
3, 276380, Note_off_c, 1, 65, 100
3, 276476, Note_off_c, 1, 57, 100
3, 276480, Note_on_c, 1, 45, 80
3, 276576, Note_on_c, 1, 57, 80
3, 276668, Note_off_c, 1, 45, 100
3, 276672, Note_on_c, 1, 61, 80
3, 276768, Note_on_c, 1, 64, 80
3, 276860, Note_off_c, 1, 61, 100
3, 276956, Note_off_c, 1, 64, 100
3, 277052, Note_off_c, 1, 57, 100
3, 277056, Note_on_c, 1, 50, 80
3, 277152, Note_on_c, 1, 57, 80
3, 277244, Note_off_c, 1, 50, 100
3, 277248, Note_on_c, 1, 62, 80
3, 277344, Note_on_c, 1, 65, 80
3, 277436, Note_off_c, 1, 62, 100
3, 277532, Note_off_c, 1, 65, 100
3, 277628, Note_off_c, 1, 57, 100
3, 277632, Note_on_c, 1, 45, 80
3, 277728, Note_on_c, 1, 57, 80
3, 277820, Note_off_c, 1, 45, 100
3, 277824, Note_on_c, 1, 61, 80
3, 277920, Note_on_c, 1, 64, 80
3, 278012, Note_off_c, 1, 61, 100
3, 278108, Note_off_c, 1, 64, 100
3, 278204, Note_off_c, 1, 57, 100
3, 278208, Note_on_c, 1, 50, 80
3, 278304, Note_on_c, 1, 57, 80
3, 278396, Note_off_c, 1, 50, 100
3, 278400, Note_on_c, 1, 62, 80
3, 278496, Note_on_c, 1, 65, 80
3, 278588, Note_off_c, 1, 62, 100
3, 278684, Note_off_c, 1, 65, 100
3, 278780, Note_off_c, 1, 57, 100
3, 278784, Note_on_c, 1, 45, 80
3, 278880, Note_on_c, 1, 57, 80
3, 278972, Note_off_c, 1, 45, 100
3, 278976, Note_on_c, 1, 61, 80
3, 279072, Note_on_c, 1, 64, 80
3, 279164, Note_off_c, 1, 61, 100
3, 279260, Note_off_c, 1, 64, 100
3, 279356, Note_off_c, 1, 57, 100
3, 279360, Note_on_c, 1, 50, 80
3, 279456, Note_on_c, 1, 57, 80
3, 279548, Note_off_c, 1, 50, 100
3, 279552, Note_on_c, 1, 62, 80
3, 279648, Note_on_c, 1, 65, 80
3, 279740, Note_off_c, 1, 62, 100
3, 279836, Note_off_c, 1, 65, 100
3, 279932, Note_off_c, 1, 57, 100
3, 279936, Note_on_c, 1, 45, 80
3, 280032, Note_on_c, 1, 57, 80
3, 280124, Note_off_c, 1, 45, 100
3, 280128, Note_on_c, 1, 61, 80
3, 280224, Note_on_c, 1, 64, 80
3, 280316, Note_off_c, 1, 61, 100
3, 280412, Note_off_c, 1, 64, 100
3, 280508, Note_off_c, 1, 57, 100
3, 280512, Note_on_c, 1, 50, 80
3, 280608, Note_on_c, 1, 57, 80
3, 280700, Note_off_c, 1, 50, 100
3, 280704, Note_on_c, 1, 62, 80
3, 280800, Note_on_c, 1, 65, 80
3, 280892, Note_off_c, 1, 62, 100
3, 280988, Note_off_c, 1, 65, 100
3, 281084, Note_off_c, 1, 57, 100
3, 281088, Note_on_c, 1, 50, 85
3, 281184, Note_on_c, 1, 57, 87
3, 281276, Note_off_c, 1, 50, 100
3, 281280, Note_on_c, 1, 62, 88
3, 281376, Note_on_c, 1, 65, 90
3, 281468, Note_off_c, 1, 62, 100
3, 281564, Note_off_c, 1, 65, 100
3, 281660, Note_off_c, 1, 57, 100
3, 281664, Note_on_c, 1, 50, 95
3, 281760, Note_on_c, 1, 57, 97
3, 281852, Note_off_c, 1, 50, 100
3, 281856, Note_on_c, 1, 62, 99
3, 281952, Note_on_c, 1, 65, 101
3, 282044, Note_off_c, 1, 62, 100
3, 282140, Note_off_c, 1, 65, 100
3, 282236, Note_off_c, 1, 57, 100
3, 282240, Note_on_c, 1, 50, 106
3, 282336, Note_on_c, 1, 57, 108
3, 282428, Note_off_c, 1, 50, 100
3, 282432, Note_on_c, 1, 62, 109
3, 282528, Note_on_c, 1, 65, 105
3, 282620, Note_off_c, 1, 62, 100
3, 282716, Note_off_c, 1, 65, 100
3, 282812, Note_off_c, 1, 57, 100
3, 282816, Note_on_c, 1, 50, 80
3, 283004, Note_off_c, 1, 50, 100
3, 283840, Note_on_c, 1, 45, 72
3, 283904, Note_on_c, 1, 41, 71
3, 283964, Note_off_c, 1, 45, 100
3, 283968, Note_on_c, 1, 38, 71
3, 284028, Note_off_c, 1, 41, 100
3, 284540, Note_off_c, 1, 38, 100
3, 284540, End_track
0, 0, End_of_file
