0, 0, Header, 1, 3, 384
1, 0, Start_track
1, 0, Title_t, "L.v.Beethoven 2mov - Piano Sonata No.17 in D minor Op.31-2\000"
1, 0, Copyright_t, "Copyright(C) 1995-2009, Suzuki Software\000"
1, 0, Sequencer_specific, 9, 67, 123, 0, 88, 70, 48, 50, 0, 1
1, 0, Text_t, "XFhd:2000/07/10:JP:Classical::::L.v.Beethoven:::Kaoru Suzuki\000"
1, 0, Text_t, "XFln:JP:\203s\203A\203m\203\\\203i\203^\221æ17\224Ô\203j\222Z\222²\215ì\225i31-2\201`\221æ2\212y\217Í:L.v.\203x\201[\203g\201[\203\224\203F\203\223:::\227é\202¿\202á\202ñ:\227é\202¿\202á\202ñ\000"
1, 0, Time_signature, 3, 2, 96, 8
1, 0, Sequencer_specific, 3, 0, 0, 65
1, 0, Sequencer_specific, 5, 0, 0, 119, 14, 0
1, 0, Tempo, 1200000
1, 7296, Tempo, 1276595
1, 7680, Tempo, 1333333
1, 7872, Tempo, 1500000
1, 8832, Tempo, 1276595
1, 9216, Tempo, 1200000
1, 32640, Tempo, 1276595
1, 33024, Tempo, 1363636
1, 33216, Tempo, 1500000
1, 34752, Tempo, 1200000
1, 55680, Tempo, 1276595
1, 56064, Tempo, 1363636
1, 56256, Tempo, 1500000
1, 57408, Tempo, 1333333
1, 57792, Tempo, 1200000
1, 81024, Tempo, 1276595
1, 81408, Tempo, 1363636
1, 81600, Tempo, 1500000
1, 82560, Tempo, 1395348
1, 83136, Tempo, 1200000
1, 100608, Tempo, 1276595
1, 100992, Tempo, 1333333
1, 101184, Tempo, 1500000
1, 101568, Tempo, 1395348
1, 106176, Tempo, 1304347
1, 116352, Tempo, 1333333
1, 116360, Tempo, 1714285
1, 117504, Tempo, 2000000
1, 117888, Tempo, 1333333
1, 118272, Tempo, 2000000
1, 118272, End_track
2, 0, Start_track
2, 0, Title_t, "Right"
2, 0, Control_c, 0, 0, 0
2, 0, Program_c, 0, 0
2, 0, Control_c, 0, 7, 100
2, 0, Control_c, 0, 10, 73
2, 0, Control_c, 0, 91, 127
2, 0, Key_signature, -2, "major"
2, 72, Note_on_c, 0, 50, 80
2, 96, Note_on_c, 0, 53, 80
2, 120, Note_on_c, 0, 58, 80
2, 1148, Note_off_c, 0, 50, 100
2, 1148, Note_off_c, 0, 53, 100
2, 1148, Note_off_c, 0, 58, 100
2, 1152, Note_on_c, 0, 74, 80
2, 1488, Note_on_c, 0, 75, 80
2, 1532, Note_off_c, 0, 74, 100
2, 1532, Note_off_c, 0, 75, 100
2, 1536, Note_on_c, 0, 77, 80
2, 1916, Note_off_c, 0, 77, 100
2, 1920, Note_on_c, 0, 53, 80
2, 1920, Note_on_c, 0, 50, 80
2, 1920, Note_on_c, 0, 58, 80
2, 2300, Note_off_c, 0, 53, 100
2, 2300, Note_off_c, 0, 50, 100
2, 2300, Note_off_c, 0, 58, 100
2, 2304, Note_on_c, 0, 57, 80
2, 2304, Note_on_c, 0, 53, 80
2, 2304, Note_on_c, 0, 51, 80
2, 3452, Note_off_c, 0, 57, 100
2, 3452, Note_off_c, 0, 53, 100
2, 3452, Note_off_c, 0, 51, 100
2, 3456, Note_on_c, 0, 81, 80
2, 3792, Note_on_c, 0, 82, 80
2, 3836, Note_off_c, 0, 81, 100
2, 3836, Note_off_c, 0, 82, 100
2, 3840, Note_on_c, 0, 84, 80
2, 4220, Note_off_c, 0, 84, 100
2, 4224, Note_on_c, 0, 63, 80
2, 4224, Note_on_c, 0, 60, 80
2, 4604, Note_off_c, 0, 63, 100
2, 4604, Note_off_c, 0, 60, 100
2, 4608, Note_on_c, 0, 62, 80
2, 4608, Note_on_c, 0, 58, 80
2, 5520, Note_on_c, 0, 62, 80
2, 5544, Note_on_c, 0, 65, 80
2, 5560, Note_off_c, 0, 62, 100
2, 5568, Note_on_c, 0, 63, 80
2, 5588, Note_off_c, 0, 65, 100
2, 5592, Note_on_c, 0, 62, 80
2, 5608, Note_off_c, 0, 63, 100
2, 5616, Note_on_c, 0, 63, 80
2, 5636, Note_off_c, 0, 62, 100
2, 5640, Note_on_c, 0, 65, 80
2, 5656, Note_off_c, 0, 63, 100
2, 5664, Note_on_c, 0, 67, 80
2, 5680, Note_off_c, 0, 65, 100
2, 5688, Note_on_c, 0, 69, 80
2, 5704, Note_off_c, 0, 67, 100
2, 5712, Note_on_c, 0, 70, 80
2, 5728, Note_off_c, 0, 69, 100
2, 5736, Note_on_c, 0, 72, 80
2, 5752, Note_off_c, 0, 70, 100
2, 5756, Note_off_c, 0, 58, 100
2, 5756, Note_off_c, 0, 62, 100
2, 5756, Note_off_c, 0, 72, 100
2, 5760, Note_on_c, 0, 74, 80
2, 6096, Note_on_c, 0, 75, 80
2, 6140, Note_off_c, 0, 74, 100
2, 6140, Note_off_c, 0, 75, 100
2, 6144, Note_on_c, 0, 77, 80
2, 6524, Note_off_c, 0, 77, 100
2, 6528, Note_on_c, 0, 77, 100
2, 6528, Note_on_c, 0, 68, 100
2, 6908, Note_off_c, 0, 77, 100
2, 6908, Note_off_c, 0, 68, 100
2, 6912, Note_on_c, 0, 77, 80
2, 6912, Note_on_c, 0, 67, 80
2, 7292, Note_off_c, 0, 77, 100
2, 7296, Note_on_c, 0, 75, 80
2, 7484, Note_off_c, 0, 67, 100
2, 7484, Note_off_c, 0, 75, 100
2, 7488, Note_on_c, 0, 74, 80
2, 7488, Note_on_c, 0, 70, 80
2, 7676, Note_off_c, 0, 74, 100
2, 7676, Note_off_c, 0, 70, 100
2, 7680, Note_on_c, 0, 72, 80
2, 7680, Note_on_c, 0, 70, 80
2, 7868, Note_off_c, 0, 72, 100
2, 7868, Note_off_c, 0, 70, 100
2, 7872, Note_on_c, 0, 72, 80
2, 7872, Note_on_c, 0, 70, 80
2, 8060, Note_off_c, 0, 72, 100
2, 8060, Note_off_c, 0, 70, 100
2, 8064, Note_on_c, 0, 72, 80
2, 8064, Note_on_c, 0, 70, 80
2, 8088, Note_on_c, 0, 74, 80
2, 8100, Note_off_c, 0, 72, 100
2, 8112, Note_on_c, 0, 72, 80
2, 8128, Note_off_c, 0, 74, 100
2, 8136, Note_on_c, 0, 74, 80
2, 8148, Note_off_c, 0, 72, 100
2, 8160, Note_on_c, 0, 72, 80
2, 8172, Note_off_c, 0, 74, 100
2, 8184, Note_on_c, 0, 74, 80
2, 8196, Note_off_c, 0, 72, 100
2, 8208, Note_on_c, 0, 71, 80
2, 8216, Note_off_c, 0, 74, 100
2, 8232, Note_on_c, 0, 72, 80
2, 8248, Note_off_c, 0, 71, 100
2, 8252, Note_off_c, 0, 72, 100
2, 8256, Note_on_c, 0, 74, 80
2, 8348, Note_off_c, 0, 74, 100
2, 8352, Note_on_c, 0, 72, 80
2, 8444, Note_off_c, 0, 70, 100
2, 8444, Note_off_c, 0, 72, 100
2, 8448, Note_on_c, 0, 72, 80
2, 8448, Note_on_c, 0, 69, 80
2, 8636, Note_off_c, 0, 72, 100
2, 8636, Note_off_c, 0, 69, 100
2, 8928, Note_on_c, 0, 53, 80
2, 9020, Note_off_c, 0, 53, 100
2, 9024, Note_on_c, 0, 55, 80
2, 9024, Note_on_c, 0, 51, 80
2, 9116, Note_off_c, 0, 55, 100
2, 9116, Note_off_c, 0, 51, 100
2, 9120, Note_on_c, 0, 57, 80
2, 9120, Note_on_c, 0, 48, 80
2, 9212, Note_off_c, 0, 57, 100
2, 9212, Note_off_c, 0, 48, 100
2, 9216, Note_on_c, 0, 58, 80
2, 9216, Note_on_c, 0, 50, 80
2, 9216, Note_on_c, 0, 46, 80
2, 9552, Note_on_c, 0, 51, 80
2, 9552, Note_on_c, 0, 48, 80
2, 9596, Note_off_c, 0, 50, 100
2, 9596, Note_off_c, 0, 46, 100
2, 9596, Note_off_c, 0, 51, 100
2, 9596, Note_off_c, 0, 48, 100
2, 9600, Note_on_c, 0, 53, 80
2, 9600, Note_on_c, 0, 50, 80
2, 9980, Note_off_c, 0, 53, 100
2, 9980, Note_off_c, 0, 50, 100
2, 9984, Note_on_c, 0, 53, 80
2, 9984, Note_on_c, 0, 50, 80
2, 10364, Note_off_c, 0, 58, 100
2, 10364, Note_off_c, 0, 53, 100
2, 10364, Note_off_c, 0, 50, 100
2, 10368, Note_on_c, 0, 74, 80
2, 10604, Note_off_c, 0, 74, 100
2, 10608, Note_on_c, 0, 75, 80
2, 10624, Note_on_c, 0, 74, 80
2, 10632, Note_off_c, 0, 75, 100
2, 10640, Note_on_c, 0, 72, 80
2, 10648, Note_off_c, 0, 74, 100
2, 10656, Note_on_c, 0, 74, 80
2, 10664, Note_off_c, 0, 72, 100
2, 10704, Note_on_c, 0, 75, 80
2, 10732, Note_off_c, 0, 74, 100
2, 10748, Note_off_c, 0, 75, 100
2, 10752, Note_on_c, 0, 77, 80
2, 11132, Note_off_c, 0, 77, 100
2, 11136, Note_on_c, 0, 58, 80
2, 11136, Note_on_c, 0, 53, 80
2, 11136, Note_on_c, 0, 50, 80
2, 11516, Note_off_c, 0, 58, 100
2, 11516, Note_off_c, 0, 53, 100
2, 11516, Note_off_c, 0, 50, 100
2, 11520, Note_on_c, 0, 57, 80
2, 11520, Note_on_c, 0, 51, 80
2, 11520, Note_on_c, 0, 48, 80
2, 11852, Note_off_c, 0, 51, 100
2, 11852, Note_off_c, 0, 48, 100
2, 11856, Note_on_c, 0, 53, 80
2, 11856, Note_on_c, 0, 50, 80
2, 11900, Note_off_c, 0, 53, 100
2, 11900, Note_off_c, 0, 50, 100
2, 11904, Note_on_c, 0, 54, 80
2, 11904, Note_on_c, 0, 51, 80
2, 12284, Note_off_c, 0, 54, 100
2, 12284, Note_off_c, 0, 51, 100
2, 12288, Note_on_c, 0, 54, 80
2, 12288, Note_on_c, 0, 51, 80
2, 12668, Note_off_c, 0, 57, 100
2, 12668, Note_off_c, 0, 54, 100
2, 12668, Note_off_c, 0, 51, 100
2, 12672, Note_on_c, 0, 84, 80
2, 12908, Note_off_c, 0, 84, 100
2, 12912, Note_on_c, 0, 86, 80
2, 12928, Note_on_c, 0, 84, 80
2, 12936, Note_off_c, 0, 86, 100
2, 12944, Note_on_c, 0, 83, 80
2, 12952, Note_off_c, 0, 84, 100
2, 12960, Note_on_c, 0, 84, 80
2, 12968, Note_off_c, 0, 83, 100
2, 13008, Note_on_c, 0, 86, 80
2, 13032, Note_off_c, 0, 84, 100
2, 13052, Note_off_c, 0, 86, 100
2, 13056, Note_on_c, 0, 87, 80
2, 13436, Note_off_c, 0, 87, 100
2, 13440, Note_on_c, 0, 66, 80
2, 13440, Note_on_c, 0, 63, 80
2, 13820, Note_off_c, 0, 66, 100
2, 13820, Note_off_c, 0, 63, 100
2, 13824, Note_on_c, 0, 65, 80
2, 13824, Note_on_c, 0, 63, 80
2, 14012, Note_off_c, 0, 63, 100
2, 14588, Note_off_c, 0, 65, 100
2, 14976, Note_on_c, 0, 84, 80
2, 15212, Note_off_c, 0, 84, 100
2, 15216, Note_on_c, 0, 86, 80
2, 15232, Note_on_c, 0, 84, 80
2, 15240, Note_off_c, 0, 86, 100
2, 15248, Note_on_c, 0, 83, 80
2, 15256, Note_off_c, 0, 84, 100
2, 15264, Note_on_c, 0, 84, 80
2, 15272, Note_off_c, 0, 83, 100
2, 15312, Note_on_c, 0, 86, 80
2, 15336, Note_off_c, 0, 84, 100
2, 15356, Note_off_c, 0, 86, 100
2, 15360, Note_on_c, 0, 87, 80
2, 15740, Note_off_c, 0, 87, 100
2, 15744, Note_on_c, 0, 75, 80
2, 15744, Note_on_c, 0, 69, 80
2, 16124, Note_off_c, 0, 75, 100
2, 16124, Note_off_c, 0, 69, 100
2, 16128, Note_on_c, 0, 74, 80
2, 16128, Note_on_c, 0, 70, 80
2, 16316, Note_off_c, 0, 74, 100
2, 16316, Note_off_c, 0, 70, 100
2, 16512, Note_on_c, 0, 79, 110
2, 16896, Note_on_c, 0, 73, 101
2, 16896, Note_on_c, 0, 70, 101
2, 16896, Note_on_c, 0, 67, 101
2, 17084, Note_off_c, 0, 73, 100
2, 17084, Note_off_c, 0, 70, 100
2, 17084, Note_off_c, 0, 67, 100
2, 17276, Note_off_c, 0, 79, 100
2, 17280, Note_on_c, 0, 77, 80
2, 17664, Note_on_c, 0, 74, 80
2, 17664, Note_on_c, 0, 70, 80
2, 17664, Note_on_c, 0, 65, 80
2, 17852, Note_off_c, 0, 74, 100
2, 17852, Note_off_c, 0, 70, 100
2, 17852, Note_off_c, 0, 65, 100
2, 18044, Note_off_c, 0, 77, 100
2, 18048, Note_on_c, 0, 69, 80
2, 18048, Note_on_c, 0, 63, 80
2, 18048, Note_on_c, 0, 60, 80
2, 18236, Note_off_c, 0, 69, 100
2, 18236, Note_off_c, 0, 63, 100
2, 18236, Note_off_c, 0, 60, 100
2, 18432, Note_on_c, 0, 70, 80
2, 18432, Note_on_c, 0, 62, 80
2, 18432, Note_on_c, 0, 58, 80
2, 18620, Note_off_c, 0, 70, 100
2, 18620, Note_off_c, 0, 62, 100
2, 18620, Note_off_c, 0, 58, 100
2, 19584, Note_on_c, 0, 63, 80
2, 19584, Note_on_c, 0, 58, 80
2, 19584, Note_on_c, 0, 55, 80
2, 19964, Note_off_c, 0, 63, 100
2, 19964, Note_off_c, 0, 58, 100
2, 19964, Note_off_c, 0, 55, 100
2, 19968, Note_on_c, 0, 62, 80
2, 19968, Note_on_c, 0, 58, 80
2, 19968, Note_on_c, 0, 53, 80
2, 20348, Note_off_c, 0, 62, 100
2, 20348, Note_off_c, 0, 58, 100
2, 20348, Note_off_c, 0, 53, 100
2, 20352, Note_on_c, 0, 61, 80
2, 20352, Note_on_c, 0, 58, 80
2, 20352, Note_on_c, 0, 52, 80
2, 20732, Note_off_c, 0, 61, 100
2, 20732, Note_off_c, 0, 58, 100
2, 20732, Note_off_c, 0, 52, 100
2, 20736, Note_on_c, 0, 61, 80
2, 20736, Note_on_c, 0, 58, 80
2, 20736, Note_on_c, 0, 52, 80
2, 21116, Note_off_c, 0, 61, 100
2, 21116, Note_off_c, 0, 58, 100
2, 21116, Note_off_c, 0, 52, 100
2, 21120, Note_on_c, 0, 62, 80
2, 21120, Note_on_c, 0, 58, 80
2, 21120, Note_on_c, 0, 53, 80
2, 21308, Note_off_c, 0, 62, 100
2, 21308, Note_off_c, 0, 58, 100
2, 21308, Note_off_c, 0, 53, 100
2, 21888, Note_on_c, 0, 55, 80
2, 21888, Note_on_c, 0, 51, 80
2, 21888, Note_on_c, 0, 60, 80
2, 22124, Note_off_c, 0, 60, 100
2, 22128, Note_on_c, 0, 62, 80
2, 22176, Note_on_c, 0, 60, 80
2, 22200, Note_off_c, 0, 62, 100
2, 22224, Note_on_c, 0, 59, 80
2, 22248, Note_off_c, 0, 60, 100
2, 22272, Note_on_c, 0, 60, 80
2, 22296, Note_off_c, 0, 59, 100
2, 22460, Note_off_c, 0, 60, 100
2, 22464, Note_on_c, 0, 63, 80
2, 22652, Note_off_c, 0, 55, 100
2, 22652, Note_off_c, 0, 51, 100
2, 22652, Note_off_c, 0, 63, 100
2, 22656, Note_on_c, 0, 60, 80
2, 22656, Note_on_c, 0, 54, 80
2, 22656, Note_on_c, 0, 51, 80
2, 22844, Note_off_c, 0, 60, 100
2, 22848, Note_on_c, 0, 57, 80
2, 23036, Note_off_c, 0, 54, 100
2, 23036, Note_off_c, 0, 51, 100
2, 23036, Note_off_c, 0, 57, 100
2, 23040, Note_on_c, 0, 60, 80
2, 23040, Note_on_c, 0, 57, 80
2, 23040, Note_on_c, 0, 54, 80
2, 23040, Note_on_c, 0, 51, 80
2, 23420, Note_off_c, 0, 60, 100
2, 23420, Note_off_c, 0, 57, 100
2, 23420, Note_off_c, 0, 54, 100
2, 23420, Note_off_c, 0, 51, 100
2, 23424, Note_on_c, 0, 58, 80
2, 23424, Note_on_c, 0, 53, 80
2, 23424, Note_on_c, 0, 50, 80
2, 23612, Note_off_c, 0, 58, 100
2, 23612, Note_off_c, 0, 53, 100
2, 23612, Note_off_c, 0, 50, 100
2, 24192, Note_on_c, 0, 70, 80
2, 24192, Note_on_c, 0, 62, 80
2, 24572, Note_off_c, 0, 70, 100
2, 24572, Note_off_c, 0, 62, 100
2, 24576, Note_on_c, 0, 67, 95
2, 24576, Note_on_c, 0, 62, 95
2, 24576, Note_on_c, 0, 58, 95
2, 24956, Note_off_c, 0, 67, 100
2, 24956, Note_off_c, 0, 62, 100
2, 24956, Note_off_c, 0, 58, 100
2, 24960, Note_on_c, 0, 65, 110
2, 24960, Note_on_c, 0, 62, 110
2, 24960, Note_on_c, 0, 57, 110
2, 25340, Note_off_c, 0, 65, 100
2, 25340, Note_off_c, 0, 62, 100
2, 25340, Note_off_c, 0, 57, 100
2, 25344, Note_on_c, 0, 64, 80
2, 25344, Note_on_c, 0, 60, 80
2, 25344, Note_on_c, 0, 55, 80
2, 25916, Note_off_c, 0, 64, 100
2, 25916, Note_off_c, 0, 60, 100
2, 25916, Note_off_c, 0, 55, 100
2, 25920, Note_on_c, 0, 64, 80
2, 25920, Note_on_c, 0, 60, 80
2, 25920, Note_on_c, 0, 55, 80
2, 26108, Note_off_c, 0, 64, 100
2, 26108, Note_off_c, 0, 60, 100
2, 26108, Note_off_c, 0, 55, 100
2, 26112, Note_on_c, 0, 65, 80
2, 26112, Note_on_c, 0, 60, 80
2, 26112, Note_on_c, 0, 57, 80
2, 26300, Note_off_c, 0, 65, 100
2, 26300, Note_off_c, 0, 60, 100
2, 26300, Note_off_c, 0, 57, 100
2, 26304, Note_on_c, 0, 67, 80
2, 26304, Note_on_c, 0, 60, 80
2, 26304, Note_on_c, 0, 58, 80
2, 26492, Note_off_c, 0, 67, 100
2, 26492, Note_off_c, 0, 60, 100
2, 26492, Note_off_c, 0, 58, 100
2, 26496, Note_on_c, 0, 67, 80
2, 26496, Note_on_c, 0, 60, 80
2, 26496, Note_on_c, 0, 58, 80
2, 26780, Note_off_c, 0, 67, 100
2, 26780, Note_off_c, 0, 60, 100
2, 26780, Note_off_c, 0, 58, 100
2, 26784, Note_on_c, 0, 64, 80
2, 26784, Note_on_c, 0, 60, 80
2, 26784, Note_on_c, 0, 56, 80
2, 26876, Note_off_c, 0, 64, 100
2, 26876, Note_off_c, 0, 60, 100
2, 26876, Note_off_c, 0, 56, 100
2, 26880, Note_on_c, 0, 65, 80
2, 26880, Note_on_c, 0, 60, 80
2, 26880, Note_on_c, 0, 57, 80
2, 27068, Note_off_c, 0, 65, 100
2, 27068, Note_off_c, 0, 60, 100
2, 27068, Note_off_c, 0, 57, 100
2, 27072, Note_on_c, 0, 65, 80
2, 27072, Note_on_c, 0, 60, 80
2, 27072, Note_on_c, 0, 57, 80
2, 27260, Note_off_c, 0, 65, 100
2, 27260, Note_off_c, 0, 60, 100
2, 27260, Note_off_c, 0, 57, 100
2, 27264, Note_on_c, 0, 67, 80
2, 27264, Note_on_c, 0, 60, 80
2, 27264, Note_on_c, 0, 64, 80
2, 27452, Note_off_c, 0, 67, 100
2, 27452, Note_off_c, 0, 60, 100
2, 27452, Note_off_c, 0, 64, 100
2, 27456, Note_on_c, 0, 69, 82
2, 27456, Note_on_c, 0, 65, 82
2, 27456, Note_on_c, 0, 60, 82
2, 27644, Note_off_c, 0, 69, 100
2, 27644, Note_off_c, 0, 65, 100
2, 27644, Note_off_c, 0, 60, 100
2, 27648, Note_on_c, 0, 69, 85
2, 27648, Note_on_c, 0, 65, 85
2, 27648, Note_on_c, 0, 60, 85
2, 27932, Note_off_c, 0, 69, 100
2, 27932, Note_off_c, 0, 65, 100
2, 27936, Note_on_c, 0, 66, 89
2, 27936, Note_on_c, 0, 63, 89
2, 28028, Note_off_c, 0, 60, 100
2, 28028, Note_off_c, 0, 66, 100
2, 28028, Note_off_c, 0, 63, 100
2, 28032, Note_on_c, 0, 67, 90
2, 28032, Note_on_c, 0, 64, 90
2, 28220, Note_off_c, 0, 67, 100
2, 28220, Note_off_c, 0, 64, 100
2, 28224, Note_on_c, 0, 67, 92
2, 28224, Note_on_c, 0, 64, 92
2, 28224, Note_on_c, 0, 60, 92
2, 28412, Note_off_c, 0, 67, 100
2, 28412, Note_off_c, 0, 64, 100
2, 28412, Note_off_c, 0, 60, 100
2, 28416, Note_on_c, 0, 69, 95
2, 28416, Note_on_c, 0, 65, 95
2, 28416, Note_on_c, 0, 60, 95
2, 28604, Note_off_c, 0, 69, 100
2, 28604, Note_off_c, 0, 65, 100
2, 28604, Note_off_c, 0, 60, 100
2, 28608, Note_on_c, 0, 70, 98
2, 28608, Note_on_c, 0, 67, 98
2, 28608, Note_on_c, 0, 60, 98
2, 28796, Note_off_c, 0, 70, 100
2, 28796, Note_off_c, 0, 67, 100
2, 28796, Note_off_c, 0, 60, 100
2, 28800, Note_on_c, 0, 70, 100
2, 28800, Note_on_c, 0, 67, 100
2, 28800, Note_on_c, 0, 60, 100
2, 29084, Note_off_c, 0, 70, 100
2, 29084, Note_off_c, 0, 67, 100
2, 29088, Note_on_c, 0, 68, 104
2, 29088, Note_on_c, 0, 64, 104
2, 29180, Note_off_c, 0, 68, 100
2, 29180, Note_off_c, 0, 64, 100
2, 29184, Note_on_c, 0, 69, 105
2, 29184, Note_on_c, 0, 65, 105
2, 29372, Note_off_c, 0, 60, 100
2, 29372, Note_off_c, 0, 69, 100
2, 29372, Note_off_c, 0, 65, 100
2, 29376, Note_on_c, 0, 69, 108
2, 29376, Note_on_c, 0, 65, 108
2, 29376, Note_on_c, 0, 60, 108
2, 29564, Note_off_c, 0, 69, 100
2, 29564, Note_off_c, 0, 65, 100
2, 29564, Note_off_c, 0, 60, 100
2, 29568, Note_on_c, 0, 71, 111
2, 29568, Note_on_c, 0, 68, 111
2, 29568, Note_on_c, 0, 65, 111
2, 29568, Note_on_c, 0, 62, 111
2, 29756, Note_off_c, 0, 71, 100
2, 29756, Note_off_c, 0, 68, 100
2, 29756, Note_off_c, 0, 65, 100
2, 29756, Note_off_c, 0, 62, 100
2, 29760, Note_on_c, 0, 71, 96
2, 29760, Note_on_c, 0, 68, 96
2, 29760, Note_on_c, 0, 65, 96
2, 29760, Note_on_c, 0, 62, 96
2, 29948, Note_off_c, 0, 71, 100
2, 29948, Note_off_c, 0, 68, 100
2, 29948, Note_off_c, 0, 65, 100
2, 29948, Note_off_c, 0, 62, 100
2, 29952, Note_on_c, 0, 72, 80
2, 29952, Note_on_c, 0, 67, 80
2, 29952, Note_on_c, 0, 64, 80
2, 30140, Note_off_c, 0, 72, 100
2, 30140, Note_off_c, 0, 67, 100
2, 30140, Note_off_c, 0, 64, 100
2, 30144, Note_on_c, 0, 67, 80
2, 30144, Note_on_c, 0, 64, 80
2, 30144, Note_on_c, 0, 60, 80
2, 30524, Note_off_c, 0, 67, 100
2, 30524, Note_off_c, 0, 64, 100
2, 30524, Note_off_c, 0, 60, 100
2, 30528, Note_on_c, 0, 67, 80
2, 30528, Note_on_c, 0, 64, 80
2, 30528, Note_on_c, 0, 60, 80
2, 30716, Note_off_c, 0, 67, 100
2, 30716, Note_off_c, 0, 64, 100
2, 30716, Note_off_c, 0, 60, 100
2, 30720, Note_on_c, 0, 71, 80
2, 30720, Note_on_c, 0, 65, 80
2, 30720, Note_on_c, 0, 62, 80
2, 30908, Note_off_c, 0, 71, 100
2, 30908, Note_off_c, 0, 65, 100
2, 30908, Note_off_c, 0, 62, 100
2, 30912, Note_on_c, 0, 67, 80
2, 30912, Note_on_c, 0, 65, 80
2, 30912, Note_on_c, 0, 62, 80
2, 31100, Note_off_c, 0, 67, 100
2, 31100, Note_off_c, 0, 65, 100
2, 31100, Note_off_c, 0, 62, 100
2, 31104, Note_on_c, 0, 72, 80
2, 31104, Note_on_c, 0, 67, 80
2, 31104, Note_on_c, 0, 64, 80
2, 31292, Note_off_c, 0, 72, 100
2, 31292, Note_off_c, 0, 67, 100
2, 31292, Note_off_c, 0, 64, 100
2, 31296, Note_on_c, 0, 67, 80
2, 31296, Note_on_c, 0, 64, 80
2, 31296, Note_on_c, 0, 60, 80
2, 31676, Note_off_c, 0, 67, 100
2, 31676, Note_off_c, 0, 64, 100
2, 31676, Note_off_c, 0, 60, 100
2, 31680, Note_on_c, 0, 67, 80
2, 31680, Note_on_c, 0, 64, 80
2, 31680, Note_on_c, 0, 60, 80
2, 31868, Note_off_c, 0, 67, 100
2, 31868, Note_off_c, 0, 64, 100
2, 31868, Note_off_c, 0, 60, 100
2, 31872, Note_on_c, 0, 71, 80
2, 31872, Note_on_c, 0, 65, 80
2, 31872, Note_on_c, 0, 62, 80
2, 32060, Note_off_c, 0, 71, 100
2, 32060, Note_off_c, 0, 65, 100
2, 32060, Note_off_c, 0, 62, 100
2, 32064, Note_on_c, 0, 67, 80
2, 32064, Note_on_c, 0, 65, 80
2, 32064, Note_on_c, 0, 62, 80
2, 32252, Note_off_c, 0, 67, 100
2, 32252, Note_off_c, 0, 65, 100
2, 32252, Note_off_c, 0, 62, 100
2, 32256, Note_on_c, 0, 72, 80
2, 32256, Note_on_c, 0, 67, 80
2, 32256, Note_on_c, 0, 64, 80
2, 32444, Note_off_c, 0, 72, 100
2, 32444, Note_off_c, 0, 67, 100
2, 32444, Note_off_c, 0, 64, 100
2, 32448, Note_on_c, 0, 67, 80
2, 32448, Note_on_c, 0, 64, 80
2, 32448, Note_on_c, 0, 60, 80
2, 32828, Note_off_c, 0, 67, 100
2, 32828, Note_off_c, 0, 64, 100
2, 32828, Note_off_c, 0, 60, 100
2, 32832, Note_on_c, 0, 64, 80
2, 32832, Note_on_c, 0, 60, 80
2, 32832, Note_on_c, 0, 55, 80
2, 33212, Note_off_c, 0, 64, 100
2, 33212, Note_off_c, 0, 60, 100
2, 33212, Note_off_c, 0, 55, 100
2, 33216, Note_on_c, 0, 60, 80
2, 33216, Note_on_c, 0, 55, 80
2, 33216, Note_on_c, 0, 52, 80
2, 33596, Note_off_c, 0, 52, 100
2, 33596, Note_off_c, 0, 55, 100
2, 33596, Note_off_c, 0, 60, 100
2, 34272, Note_on_c, 0, 62, 80
2, 34316, Note_off_c, 0, 62, 100
2, 34320, Note_on_c, 0, 64, 80
2, 34364, Note_off_c, 0, 64, 100
2, 34368, Note_on_c, 0, 65, 80
2, 34412, Note_off_c, 0, 65, 100
2, 34416, Note_on_c, 0, 67, 80
2, 34460, Note_off_c, 0, 67, 100
2, 34464, Note_on_c, 0, 69, 80
2, 34508, Note_off_c, 0, 69, 100
2, 34512, Note_on_c, 0, 70, 80
2, 34556, Note_off_c, 0, 70, 100
2, 34560, Note_on_c, 0, 72, 80
2, 34944, Note_on_c, 0, 65, 80
2, 35280, Note_on_c, 0, 69, 80
2, 35324, Note_off_c, 0, 72, 100
2, 35324, Note_off_c, 0, 65, 100
2, 35324, Note_off_c, 0, 69, 100
2, 35328, Note_on_c, 0, 65, 80
2, 35328, Note_on_c, 0, 77, 80
2, 35664, Note_on_c, 0, 74, 80
2, 35708, Note_off_c, 0, 65, 100
2, 35708, Note_off_c, 0, 77, 100
2, 35708, Note_off_c, 0, 74, 100
2, 35712, Note_on_c, 0, 72, 80
2, 36096, Note_on_c, 0, 65, 80
2, 36432, Note_on_c, 0, 69, 80
2, 36476, Note_off_c, 0, 72, 100
2, 36476, Note_off_c, 0, 65, 100
2, 36476, Note_off_c, 0, 69, 100
2, 36480, Note_on_c, 0, 65, 80
2, 36480, Note_on_c, 0, 70, 80
2, 36668, Note_off_c, 0, 65, 100
2, 36672, Note_on_c, 0, 62, 80
2, 36816, Note_on_c, 0, 67, 80
2, 36860, Note_off_c, 0, 70, 100
2, 36860, Note_off_c, 0, 62, 100
2, 36860, Note_off_c, 0, 67, 100
2, 36864, Note_on_c, 0, 65, 80
2, 37056, Note_on_c, 0, 57, 80
2, 37244, Note_off_c, 0, 57, 100
2, 37248, Note_on_c, 0, 60, 80
2, 37628, Note_off_c, 0, 65, 100
2, 37628, Note_off_c, 0, 60, 100
2, 37632, Note_on_c, 0, 60, 80
2, 37632, Note_on_c, 0, 69, 80
2, 37724, Note_off_c, 0, 69, 100
2, 37728, Note_on_c, 0, 67, 80
2, 37820, Note_off_c, 0, 67, 100
2, 37824, Note_on_c, 0, 65, 80
2, 37916, Note_off_c, 0, 65, 100
2, 37920, Note_on_c, 0, 67, 80
2, 38012, Note_off_c, 0, 60, 100
2, 38012, Note_off_c, 0, 67, 100
2, 38016, Note_on_c, 0, 60, 80
2, 38016, Note_on_c, 0, 67, 80
2, 38352, Note_on_c, 0, 68, 80
2, 38396, Note_off_c, 0, 67, 100
2, 38396, Note_off_c, 0, 68, 100
2, 38400, Note_on_c, 0, 69, 80
2, 38588, Note_off_c, 0, 60, 100
2, 38588, Note_off_c, 0, 69, 100
2, 38832, Note_on_c, 0, 60, 80
2, 38876, Note_off_c, 0, 60, 100
2, 38880, Note_on_c, 0, 62, 80
2, 38924, Note_off_c, 0, 62, 100
2, 38928, Note_on_c, 0, 64, 80
2, 38972, Note_off_c, 0, 64, 100
2, 38976, Note_on_c, 0, 65, 80
2, 39020, Note_off_c, 0, 65, 100
2, 39024, Note_on_c, 0, 67, 80
2, 39068, Note_off_c, 0, 67, 100
2, 39072, Note_on_c, 0, 69, 80
2, 39116, Note_off_c, 0, 69, 100
2, 39120, Note_on_c, 0, 70, 80
2, 39164, Note_off_c, 0, 70, 100
2, 39168, Note_on_c, 0, 72, 80
2, 39504, Note_on_c, 0, 64, 80
2, 39548, Note_off_c, 0, 64, 100
2, 39552, Note_on_c, 0, 65, 80
2, 39888, Note_on_c, 0, 69, 80
2, 39932, Note_off_c, 0, 72, 100
2, 39932, Note_off_c, 0, 65, 100
2, 39932, Note_off_c, 0, 69, 100
2, 39936, Note_on_c, 0, 65, 80
2, 39936, Note_on_c, 0, 77, 80
2, 40272, Note_on_c, 0, 74, 80
2, 40316, Note_off_c, 0, 65, 100
2, 40316, Note_off_c, 0, 77, 100
2, 40316, Note_off_c, 0, 74, 100
2, 40320, Note_on_c, 0, 72, 80
2, 40656, Note_on_c, 0, 64, 80
2, 40700, Note_off_c, 0, 64, 100
2, 40704, Note_on_c, 0, 65, 80
2, 41040, Note_on_c, 0, 69, 80
2, 41084, Note_off_c, 0, 72, 100
2, 41084, Note_off_c, 0, 65, 100
2, 41084, Note_off_c, 0, 69, 100
2, 41088, Note_on_c, 0, 65, 80
2, 41088, Note_on_c, 0, 70, 80
2, 41276, Note_off_c, 0, 65, 100
2, 41280, Note_on_c, 0, 62, 80
2, 41424, Note_on_c, 0, 67, 80
2, 41468, Note_off_c, 0, 70, 100
2, 41468, Note_off_c, 0, 62, 100
2, 41468, Note_off_c, 0, 67, 100
2, 41472, Note_on_c, 0, 65, 80
2, 41472, Note_on_c, 0, 57, 80
2, 41660, Note_off_c, 0, 57, 100
2, 41664, Note_on_c, 0, 57, 80
2, 41664, Note_on_c, 0, 53, 80
2, 41852, Note_off_c, 0, 57, 100
2, 41852, Note_off_c, 0, 53, 100
2, 41856, Note_on_c, 0, 60, 80
2, 41856, Note_on_c, 0, 57, 80
2, 42044, Note_off_c, 0, 60, 100
2, 42044, Note_off_c, 0, 57, 100
2, 42048, Note_on_c, 0, 57, 80
2, 42048, Note_on_c, 0, 53, 80
2, 42236, Note_off_c, 0, 65, 100
2, 42236, Note_off_c, 0, 57, 100
2, 42236, Note_off_c, 0, 53, 100
2, 42240, Note_on_c, 0, 60, 80
2, 42240, Note_on_c, 0, 55, 80
2, 42240, Note_on_c, 0, 52, 80
2, 42428, Note_off_c, 0, 55, 100
2, 42428, Note_off_c, 0, 52, 100
2, 42432, Note_on_c, 0, 52, 80
2, 42432, Note_on_c, 0, 48, 80
2, 42620, Note_off_c, 0, 60, 100
2, 42620, Note_off_c, 0, 52, 100
2, 42620, Note_off_c, 0, 48, 100
2, 42624, Note_on_c, 0, 57, 80
2, 42624, Note_on_c, 0, 53, 80
2, 42624, Note_on_c, 0, 48, 80
2, 42812, Note_off_c, 0, 57, 100
2, 42812, Note_off_c, 0, 53, 100
2, 42812, Note_off_c, 0, 48, 100
2, 43584, Note_on_c, 0, 65, 80
2, 43772, Note_off_c, 0, 65, 100
2, 43776, Note_on_c, 0, 65, 80
2, 44156, Note_off_c, 0, 65, 100
2, 44160, Note_on_c, 0, 66, 80
2, 44160, Note_on_c, 0, 63, 80
2, 44160, Note_on_c, 0, 60, 80
2, 44160, Note_on_c, 0, 57, 80
2, 44732, Note_off_c, 0, 66, 100
2, 44736, Note_on_c, 0, 66, 80
2, 44924, Note_off_c, 0, 63, 100
2, 44924, Note_off_c, 0, 60, 100
2, 44924, Note_off_c, 0, 57, 100
2, 44924, Note_off_c, 0, 66, 100
2, 44928, Note_on_c, 0, 66, 80
2, 45308, Note_off_c, 0, 66, 100
2, 45312, Note_on_c, 0, 69, 80
2, 45312, Note_on_c, 0, 66, 80
2, 45312, Note_on_c, 0, 63, 80
2, 45312, Note_on_c, 0, 60, 80
2, 45884, Note_off_c, 0, 69, 100
2, 45888, Note_on_c, 0, 69, 80
2, 46076, Note_off_c, 0, 66, 100
2, 46076, Note_off_c, 0, 63, 100
2, 46076, Note_off_c, 0, 60, 100
2, 46076, Note_off_c, 0, 69, 100
2, 46080, Note_on_c, 0, 69, 80
2, 46460, Note_off_c, 0, 69, 100
2, 46464, Note_on_c, 0, 72, 80
2, 46464, Note_on_c, 0, 69, 80
2, 46464, Note_on_c, 0, 66, 80
2, 46464, Note_on_c, 0, 63, 80
2, 47036, Note_off_c, 0, 72, 100
2, 47040, Note_on_c, 0, 72, 80
2, 47228, Note_off_c, 0, 69, 100
2, 47228, Note_off_c, 0, 66, 100
2, 47228, Note_off_c, 0, 63, 100
2, 47228, Note_off_c, 0, 72, 100
2, 47232, Note_on_c, 0, 72, 80
2, 47420, Note_off_c, 0, 72, 100
2, 47424, Note_on_c, 0, 75, 80
2, 47708, Note_off_c, 0, 75, 100
2, 47712, Note_on_c, 0, 74, 80
2, 47756, Note_off_c, 0, 74, 100
2, 47760, Note_on_c, 0, 72, 80
2, 47804, Note_off_c, 0, 72, 100
2, 47808, Note_on_c, 0, 70, 80
2, 47852, Note_off_c, 0, 70, 100
2, 47856, Note_on_c, 0, 69, 80
2, 47900, Note_off_c, 0, 69, 100
2, 47904, Note_on_c, 0, 67, 80
2, 47948, Note_off_c, 0, 67, 100
2, 47952, Note_on_c, 0, 65, 80
2, 47996, Note_off_c, 0, 65, 100
2, 48000, Note_on_c, 0, 64, 80
2, 48044, Note_off_c, 0, 64, 100
2, 48048, Note_on_c, 0, 63, 80
2, 48092, Note_off_c, 0, 63, 100
2, 48096, Note_on_c, 0, 62, 80
2, 48140, Note_off_c, 0, 62, 100
2, 48144, Note_on_c, 0, 60, 80
2, 48188, Note_off_c, 0, 60, 100
2, 48192, Note_on_c, 0, 58, 80
2, 48236, Note_off_c, 0, 58, 100
2, 48240, Note_on_c, 0, 57, 80
2, 48284, Note_off_c, 0, 57, 100
2, 48288, Note_on_c, 0, 63, 80
2, 48332, Note_off_c, 0, 63, 100
2, 48336, Note_on_c, 0, 57, 80
2, 48380, Note_off_c, 0, 57, 100
2, 48384, Note_on_c, 0, 58, 80
2, 48384, Note_on_c, 0, 50, 80
2, 48720, Note_on_c, 0, 51, 80
2, 48764, Note_off_c, 0, 51, 100
2, 48768, Note_on_c, 0, 53, 80
2, 49148, Note_off_c, 0, 53, 100
2, 49152, Note_on_c, 0, 53, 80
2, 49532, Note_off_c, 0, 58, 100
2, 49532, Note_off_c, 0, 50, 100
2, 49532, Note_off_c, 0, 53, 100
2, 49536, Note_on_c, 0, 74, 80
2, 49772, Note_off_c, 0, 74, 100
2, 49776, Note_on_c, 0, 75, 80
2, 49792, Note_on_c, 0, 74, 80
2, 49800, Note_off_c, 0, 75, 100
2, 49808, Note_on_c, 0, 72, 80
2, 49816, Note_off_c, 0, 74, 100
2, 49824, Note_on_c, 0, 74, 80
2, 49832, Note_off_c, 0, 72, 100
2, 49872, Note_on_c, 0, 75, 80
2, 49900, Note_off_c, 0, 74, 100
2, 49916, Note_off_c, 0, 75, 100
2, 49920, Note_on_c, 0, 77, 80
2, 50300, Note_off_c, 0, 77, 100
2, 50304, Note_on_c, 0, 58, 80
2, 50304, Note_on_c, 0, 50, 80
2, 50684, Note_off_c, 0, 58, 100
2, 50684, Note_off_c, 0, 50, 100
2, 50688, Note_on_c, 0, 57, 80
2, 50688, Note_on_c, 0, 51, 80
2, 51024, Note_on_c, 0, 53, 80
2, 51068, Note_off_c, 0, 53, 100
2, 51072, Note_on_c, 0, 54, 80
2, 51452, Note_off_c, 0, 54, 100
2, 51456, Note_on_c, 0, 54, 80
2, 51836, Note_off_c, 0, 57, 100
2, 51836, Note_off_c, 0, 51, 100
2, 51836, Note_off_c, 0, 54, 100
2, 51840, Note_on_c, 0, 81, 80
2, 52076, Note_off_c, 0, 81, 100
2, 52080, Note_on_c, 0, 82, 80
2, 52092, Note_off_c, 0, 82, 100
2, 52096, Note_on_c, 0, 81, 80
2, 52108, Note_off_c, 0, 81, 100
2, 52112, Note_on_c, 0, 79, 80
2, 52124, Note_off_c, 0, 79, 100
2, 52128, Note_on_c, 0, 81, 80
2, 52172, Note_off_c, 0, 81, 100
2, 52176, Note_on_c, 0, 82, 80
2, 52220, Note_off_c, 0, 82, 100
2, 52224, Note_on_c, 0, 84, 80
2, 52604, Note_off_c, 0, 84, 100
2, 52608, Note_on_c, 0, 63, 80
2, 52608, Note_on_c, 0, 60, 80
2, 52608, Note_on_c, 0, 53, 80
2, 52988, Note_off_c, 0, 63, 100
2, 52988, Note_off_c, 0, 60, 100
2, 52988, Note_off_c, 0, 53, 100
2, 52992, Note_on_c, 0, 62, 80
2, 52992, Note_on_c, 0, 53, 80
2, 52992, Note_on_c, 0, 56, 80
2, 53328, Note_on_c, 0, 58, 80
2, 53372, Note_off_c, 0, 56, 100
2, 53372, Note_off_c, 0, 58, 100
2, 53376, Note_on_c, 0, 59, 80
2, 53756, Note_off_c, 0, 59, 100
2, 53760, Note_on_c, 0, 59, 80
2, 54140, Note_off_c, 0, 62, 100
2, 54140, Note_off_c, 0, 53, 100
2, 54140, Note_off_c, 0, 59, 100
2, 54144, Note_on_c, 0, 74, 80
2, 54380, Note_off_c, 0, 74, 100
2, 54384, Note_on_c, 0, 75, 80
2, 54400, Note_on_c, 0, 74, 80
2, 54408, Note_off_c, 0, 75, 100
2, 54416, Note_on_c, 0, 72, 80
2, 54424, Note_off_c, 0, 74, 100
2, 54432, Note_on_c, 0, 74, 80
2, 54440, Note_off_c, 0, 72, 100
2, 54480, Note_on_c, 0, 75, 80
2, 54508, Note_off_c, 0, 74, 100
2, 54524, Note_off_c, 0, 75, 100
2, 54528, Note_on_c, 0, 77, 80
2, 54908, Note_off_c, 0, 77, 100
2, 54912, Note_on_c, 0, 77, 80
2, 54912, Note_on_c, 0, 68, 80
2, 55292, Note_off_c, 0, 77, 100
2, 55292, Note_off_c, 0, 68, 100
2, 55296, Note_on_c, 0, 77, 80
2, 55296, Note_on_c, 0, 67, 80
2, 55676, Note_off_c, 0, 77, 100
2, 55680, Note_on_c, 0, 75, 80
2, 55868, Note_off_c, 0, 67, 100
2, 55868, Note_off_c, 0, 75, 100
2, 55872, Note_on_c, 0, 74, 80
2, 55872, Note_on_c, 0, 70, 80
2, 56060, Note_off_c, 0, 74, 100
2, 56060, Note_off_c, 0, 70, 100
2, 56064, Note_on_c, 0, 72, 80
2, 56064, Note_on_c, 0, 70, 80
2, 56252, Note_off_c, 0, 72, 100
2, 56252, Note_off_c, 0, 70, 100
2, 56256, Note_on_c, 0, 72, 80
2, 56256, Note_on_c, 0, 70, 80
2, 56444, Note_off_c, 0, 72, 100
2, 56444, Note_off_c, 0, 70, 100
2, 56448, Note_on_c, 0, 72, 80
2, 56448, Note_on_c, 0, 70, 80
2, 56472, Note_on_c, 0, 74, 80
2, 56484, Note_off_c, 0, 72, 100
2, 56496, Note_on_c, 0, 72, 80
2, 56512, Note_off_c, 0, 74, 100
2, 56520, Note_on_c, 0, 74, 80
2, 56532, Note_off_c, 0, 72, 100
2, 56544, Note_on_c, 0, 72, 80
2, 56556, Note_off_c, 0, 74, 100
2, 56568, Note_on_c, 0, 74, 80
2, 56580, Note_off_c, 0, 72, 100
2, 56592, Note_on_c, 0, 71, 80
2, 56600, Note_off_c, 0, 74, 100
2, 56616, Note_on_c, 0, 72, 80
2, 56632, Note_off_c, 0, 71, 100
2, 56636, Note_off_c, 0, 72, 100
2, 56640, Note_on_c, 0, 74, 80
2, 56732, Note_off_c, 0, 74, 100
2, 56736, Note_on_c, 0, 72, 80
2, 56828, Note_off_c, 0, 70, 100
2, 56828, Note_off_c, 0, 72, 100
2, 56832, Note_on_c, 0, 72, 80
2, 56832, Note_on_c, 0, 69, 80
2, 57020, Note_off_c, 0, 72, 100
2, 57020, Note_off_c, 0, 69, 100
2, 57264, Note_on_c, 0, 53, 80
2, 57308, Note_off_c, 0, 53, 100
2, 57312, Note_on_c, 0, 55, 80
2, 57356, Note_off_c, 0, 55, 100
2, 57360, Note_on_c, 0, 53, 80
2, 57404, Note_off_c, 0, 53, 100
2, 57408, Note_on_c, 0, 52, 80
2, 57452, Note_off_c, 0, 52, 100
2, 57456, Note_on_c, 0, 53, 80
2, 57500, Note_off_c, 0, 53, 100
2, 57504, Note_on_c, 0, 55, 80
2, 57504, Note_on_c, 0, 51, 80
2, 57548, Note_off_c, 0, 55, 100
2, 57548, Note_off_c, 0, 51, 100
2, 57552, Note_on_c, 0, 57, 80
2, 57552, Note_on_c, 0, 48, 80
2, 57596, Note_off_c, 0, 57, 100
2, 57596, Note_off_c, 0, 48, 100
2, 57600, Note_on_c, 0, 58, 80
2, 57600, Note_on_c, 0, 50, 80
2, 57600, Note_on_c, 0, 46, 80
2, 57936, Note_on_c, 0, 51, 80
2, 57936, Note_on_c, 0, 48, 80
2, 57980, Note_off_c, 0, 50, 100
2, 57980, Note_off_c, 0, 46, 100
2, 57980, Note_off_c, 0, 51, 100
2, 57980, Note_off_c, 0, 48, 100
2, 57984, Note_on_c, 0, 53, 80
2, 57984, Note_on_c, 0, 50, 80
2, 58364, Note_off_c, 0, 53, 100
2, 58364, Note_off_c, 0, 50, 100
2, 58368, Note_on_c, 0, 53, 80
2, 58368, Note_on_c, 0, 50, 80
2, 58748, Note_off_c, 0, 58, 100
2, 58748, Note_off_c, 0, 53, 100
2, 58748, Note_off_c, 0, 50, 100
2, 58752, Note_on_c, 0, 74, 80
2, 58988, Note_off_c, 0, 74, 100
2, 58992, Note_on_c, 0, 75, 80
2, 59008, Note_on_c, 0, 74, 80
2, 59016, Note_off_c, 0, 75, 100
2, 59024, Note_on_c, 0, 72, 80
2, 59032, Note_off_c, 0, 74, 100
2, 59040, Note_on_c, 0, 74, 80
2, 59048, Note_off_c, 0, 72, 100
2, 59088, Note_on_c, 0, 75, 80
2, 59116, Note_off_c, 0, 74, 100
2, 59132, Note_off_c, 0, 75, 100
2, 59136, Note_on_c, 0, 77, 80
2, 59516, Note_off_c, 0, 77, 100
2, 59520, Note_on_c, 0, 58, 80
2, 59900, Note_off_c, 0, 58, 100
2, 59904, Note_on_c, 0, 57, 80
2, 59904, Note_on_c, 0, 51, 80
2, 59904, Note_on_c, 0, 48, 80
2, 60240, Note_on_c, 0, 53, 80
2, 60240, Note_on_c, 0, 50, 80
2, 60284, Note_off_c, 0, 51, 100
2, 60284, Note_off_c, 0, 48, 100
2, 60284, Note_off_c, 0, 53, 100
2, 60284, Note_off_c, 0, 50, 100
2, 60288, Note_on_c, 0, 54, 80
2, 60288, Note_on_c, 0, 51, 80
2, 60668, Note_off_c, 0, 54, 100
2, 60668, Note_off_c, 0, 51, 100
2, 60672, Note_on_c, 0, 54, 80
2, 60672, Note_on_c, 0, 51, 80
2, 61052, Note_off_c, 0, 57, 100
2, 61052, Note_off_c, 0, 54, 100
2, 61052, Note_off_c, 0, 51, 100
2, 61056, Note_on_c, 0, 84, 80
2, 61292, Note_off_c, 0, 84, 100
2, 61296, Note_on_c, 0, 86, 80
2, 61312, Note_on_c, 0, 84, 80
2, 61320, Note_off_c, 0, 86, 100
2, 61328, Note_on_c, 0, 83, 80
2, 61336, Note_off_c, 0, 84, 100
2, 61344, Note_on_c, 0, 84, 80
2, 61352, Note_off_c, 0, 83, 100
2, 61392, Note_on_c, 0, 86, 80
2, 61416, Note_off_c, 0, 84, 100
2, 61436, Note_off_c, 0, 86, 100
2, 61440, Note_on_c, 0, 87, 80
2, 61820, Note_off_c, 0, 87, 100
2, 61824, Note_on_c, 0, 66, 100
2, 61824, Note_on_c, 0, 63, 100
2, 61824, Note_on_c, 0, 60, 100
2, 62204, Note_off_c, 0, 66, 100
2, 62204, Note_off_c, 0, 63, 100
2, 62204, Note_off_c, 0, 60, 100
2, 62208, Note_on_c, 0, 65, 80
2, 62208, Note_on_c, 0, 63, 80
2, 62208, Note_on_c, 0, 60, 80
2, 62396, Note_off_c, 0, 63, 100
2, 62396, Note_off_c, 0, 60, 100
2, 62400, Note_on_c, 0, 57, 80
2, 62400, Note_on_c, 0, 60, 80
2, 62540, Note_off_c, 0, 57, 100
2, 62540, Note_off_c, 0, 60, 100
2, 62544, Note_on_c, 0, 62, 80
2, 62544, Note_on_c, 0, 59, 80
2, 62588, Note_off_c, 0, 62, 100
2, 62588, Note_off_c, 0, 59, 100
2, 62592, Note_on_c, 0, 63, 80
2, 62592, Note_on_c, 0, 60, 80
2, 62972, Note_off_c, 0, 63, 100
2, 62972, Note_off_c, 0, 60, 100
2, 62976, Note_on_c, 0, 63, 80
2, 62976, Note_on_c, 0, 60, 80
2, 63164, Note_off_c, 0, 65, 100
2, 63164, Note_off_c, 0, 63, 100
2, 63164, Note_off_c, 0, 60, 100
2, 63264, Note_on_c, 0, 84, 80
2, 63356, Note_off_c, 0, 84, 100
2, 63360, Note_on_c, 0, 84, 80
2, 63596, Note_off_c, 0, 84, 100
2, 63600, Note_on_c, 0, 86, 80
2, 63616, Note_on_c, 0, 84, 80
2, 63624, Note_off_c, 0, 86, 100
2, 63632, Note_on_c, 0, 83, 80
2, 63640, Note_off_c, 0, 84, 100
2, 63648, Note_on_c, 0, 84, 80
2, 63656, Note_off_c, 0, 83, 100
2, 63696, Note_on_c, 0, 86, 80
2, 63720, Note_off_c, 0, 84, 100
2, 63740, Note_off_c, 0, 86, 100
2, 63744, Note_on_c, 0, 87, 80
2, 64124, Note_off_c, 0, 87, 100
2, 64128, Note_on_c, 0, 75, 80
2, 64128, Note_on_c, 0, 72, 80
2, 64128, Note_on_c, 0, 69, 80
2, 64508, Note_off_c, 0, 75, 100
2, 64508, Note_off_c, 0, 72, 100
2, 64508, Note_off_c, 0, 69, 100
2, 64512, Note_on_c, 0, 74, 100
2, 64512, Note_on_c, 0, 70, 100
2, 64700, Note_off_c, 0, 74, 100
2, 64700, Note_off_c, 0, 70, 100
2, 64896, Note_on_c, 0, 79, 100
2, 65280, Note_on_c, 0, 73, 100
2, 65280, Note_on_c, 0, 70, 100
2, 65280, Note_on_c, 0, 67, 100
2, 65468, Note_off_c, 0, 73, 100
2, 65468, Note_off_c, 0, 70, 100
2, 65468, Note_off_c, 0, 67, 100
2, 65660, Note_off_c, 0, 79, 100
2, 65664, Note_on_c, 0, 77, 100
2, 66048, Note_on_c, 0, 74, 100
2, 66048, Note_on_c, 0, 70, 100
2, 66048, Note_on_c, 0, 65, 100
2, 66236, Note_off_c, 0, 74, 100
2, 66236, Note_off_c, 0, 70, 100
2, 66236, Note_off_c, 0, 65, 100
2, 66428, Note_off_c, 0, 77, 100
2, 66432, Note_on_c, 0, 69, 100
2, 66432, Note_on_c, 0, 65, 100
2, 66432, Note_on_c, 0, 63, 100
2, 66432, Note_on_c, 0, 60, 100
2, 66620, Note_off_c, 0, 69, 100
2, 66620, Note_off_c, 0, 65, 100
2, 66620, Note_off_c, 0, 63, 100
2, 66620, Note_off_c, 0, 60, 100
2, 66816, Note_on_c, 0, 70, 100
2, 66816, Note_on_c, 0, 65, 100
2, 66816, Note_on_c, 0, 62, 100
2, 66816, Note_on_c, 0, 58, 100
2, 67004, Note_off_c, 0, 70, 100
2, 67004, Note_off_c, 0, 65, 100
2, 67004, Note_off_c, 0, 62, 100
2, 67004, Note_off_c, 0, 58, 100
2, 67968, Note_on_c, 0, 65, 80
2, 67968, Note_on_c, 0, 58, 80
2, 67968, Note_on_c, 0, 56, 80
2, 68348, Note_off_c, 0, 65, 100
2, 68348, Note_off_c, 0, 58, 100
2, 68348, Note_off_c, 0, 56, 100
2, 68352, Note_on_c, 0, 63, 80
2, 68352, Note_on_c, 0, 58, 80
2, 68352, Note_on_c, 0, 55, 80
2, 68732, Note_off_c, 0, 63, 100
2, 68732, Note_off_c, 0, 58, 100
2, 68732, Note_off_c, 0, 55, 100
2, 68736, Note_on_c, 0, 62, 80
2, 68736, Note_on_c, 0, 58, 80
2, 68736, Note_on_c, 0, 54, 80
2, 69116, Note_off_c, 0, 62, 100
2, 69116, Note_off_c, 0, 58, 100
2, 69116, Note_off_c, 0, 54, 100
2, 69120, Note_on_c, 0, 62, 80
2, 69120, Note_on_c, 0, 58, 80
2, 69120, Note_on_c, 0, 54, 80
2, 69500, Note_off_c, 0, 62, 100
2, 69500, Note_off_c, 0, 58, 100
2, 69500, Note_off_c, 0, 54, 100
2, 69504, Note_on_c, 0, 63, 80
2, 69504, Note_on_c, 0, 58, 80
2, 69504, Note_on_c, 0, 55, 80
2, 69692, Note_off_c, 0, 63, 100
2, 69692, Note_off_c, 0, 58, 100
2, 69692, Note_off_c, 0, 55, 100
2, 70272, Note_on_c, 0, 68, 80
2, 70272, Note_on_c, 0, 65, 80
2, 70272, Note_on_c, 0, 58, 80
2, 70652, Note_off_c, 0, 68, 100
2, 70652, Note_off_c, 0, 65, 100
2, 70652, Note_off_c, 0, 58, 100
2, 70656, Note_on_c, 0, 67, 80
2, 70656, Note_on_c, 0, 63, 80
2, 70656, Note_on_c, 0, 58, 80
2, 71036, Note_off_c, 0, 67, 100
2, 71036, Note_off_c, 0, 63, 100
2, 71036, Note_off_c, 0, 58, 100
2, 71040, Note_on_c, 0, 66, 80
2, 71040, Note_on_c, 0, 62, 80
2, 71040, Note_on_c, 0, 58, 80
2, 71420, Note_off_c, 0, 66, 100
2, 71420, Note_off_c, 0, 62, 100
2, 71420, Note_off_c, 0, 58, 100
2, 71424, Note_on_c, 0, 66, 80
2, 71424, Note_on_c, 0, 62, 80
2, 71424, Note_on_c, 0, 58, 80
2, 71804, Note_off_c, 0, 66, 100
2, 71804, Note_off_c, 0, 62, 100
2, 71808, Note_on_c, 0, 63, 80
2, 71808, Note_on_c, 0, 67, 80
2, 72380, Note_off_c, 0, 58, 100
2, 72380, Note_off_c, 0, 63, 100
2, 72380, Note_off_c, 0, 67, 100
2, 72384, Note_on_c, 0, 67, 80
2, 72572, Note_off_c, 0, 67, 100
2, 72576, Note_on_c, 0, 75, 80
2, 72576, Note_on_c, 0, 67, 80
2, 72956, Note_off_c, 0, 75, 100
2, 72956, Note_off_c, 0, 67, 100
2, 72960, Note_on_c, 0, 72, 80
2, 72960, Note_on_c, 0, 67, 80
2, 72960, Note_on_c, 0, 63, 80
2, 73340, Note_off_c, 0, 72, 100
2, 73340, Note_off_c, 0, 67, 100
2, 73340, Note_off_c, 0, 63, 100
2, 73344, Note_on_c, 0, 70, 80
2, 73344, Note_on_c, 0, 67, 80
2, 73344, Note_on_c, 0, 62, 80
2, 73724, Note_off_c, 0, 70, 100
2, 73724, Note_off_c, 0, 67, 100
2, 73724, Note_off_c, 0, 62, 100
2, 73728, Note_on_c, 0, 69, 80
2, 73728, Note_on_c, 0, 65, 80
2, 73728, Note_on_c, 0, 60, 80
2, 74300, Note_off_c, 0, 69, 100
2, 74300, Note_off_c, 0, 65, 100
2, 74300, Note_off_c, 0, 60, 100
2, 74304, Note_on_c, 0, 69, 80
2, 74304, Note_on_c, 0, 65, 80
2, 74304, Note_on_c, 0, 60, 80
2, 74492, Note_off_c, 0, 69, 100
2, 74492, Note_off_c, 0, 65, 100
2, 74492, Note_off_c, 0, 60, 100
2, 74496, Note_on_c, 0, 70, 80
2, 74496, Note_on_c, 0, 65, 80
2, 74496, Note_on_c, 0, 62, 80
2, 74684, Note_off_c, 0, 70, 100
2, 74684, Note_off_c, 0, 65, 100
2, 74684, Note_off_c, 0, 62, 100
2, 74688, Note_on_c, 0, 72, 80
2, 74688, Note_on_c, 0, 65, 80
2, 74688, Note_on_c, 0, 63, 80
2, 74876, Note_off_c, 0, 72, 100
2, 74876, Note_off_c, 0, 65, 100
2, 74876, Note_off_c, 0, 63, 100
2, 74880, Note_on_c, 0, 65, 80
2, 74880, Note_on_c, 0, 72, 80
2, 74880, Note_on_c, 0, 63, 80
2, 75164, Note_off_c, 0, 72, 100
2, 75164, Note_off_c, 0, 63, 100
2, 75168, Note_on_c, 0, 69, 80
2, 75168, Note_on_c, 0, 61, 80
2, 75260, Note_off_c, 0, 65, 100
2, 75260, Note_off_c, 0, 69, 100
2, 75260, Note_off_c, 0, 61, 100
2, 75264, Note_on_c, 0, 70, 80
2, 75264, Note_on_c, 0, 62, 80
2, 75452, Note_off_c, 0, 70, 100
2, 75452, Note_off_c, 0, 62, 100
2, 75456, Note_on_c, 0, 70, 80
2, 75456, Note_on_c, 0, 65, 80
2, 75456, Note_on_c, 0, 62, 80
2, 75644, Note_off_c, 0, 70, 100
2, 75644, Note_off_c, 0, 65, 100
2, 75644, Note_off_c, 0, 62, 100
2, 75648, Note_on_c, 0, 72, 82
2, 75648, Note_on_c, 0, 69, 82
2, 75648, Note_on_c, 0, 65, 82
2, 75836, Note_off_c, 0, 72, 100
2, 75836, Note_off_c, 0, 69, 100
2, 75836, Note_off_c, 0, 65, 100
2, 75840, Note_on_c, 0, 74, 84
2, 75840, Note_on_c, 0, 70, 84
2, 75840, Note_on_c, 0, 65, 84
2, 76028, Note_off_c, 0, 74, 100
2, 76028, Note_off_c, 0, 70, 100
2, 76028, Note_off_c, 0, 65, 100
2, 76032, Note_on_c, 0, 65, 87
2, 76032, Note_on_c, 0, 74, 87
2, 76032, Note_on_c, 0, 70, 87
2, 76316, Note_off_c, 0, 74, 100
2, 76316, Note_off_c, 0, 70, 100
2, 76320, Note_on_c, 0, 71, 90
2, 76320, Note_on_c, 0, 68, 90
2, 76412, Note_off_c, 0, 71, 100
2, 76412, Note_off_c, 0, 68, 100
2, 76416, Note_on_c, 0, 72, 91
2, 76416, Note_on_c, 0, 69, 91
2, 76604, Note_off_c, 0, 65, 100
2, 76604, Note_off_c, 0, 72, 100
2, 76604, Note_off_c, 0, 69, 100
2, 76608, Note_on_c, 0, 72, 94
2, 76608, Note_on_c, 0, 69, 94
2, 76608, Note_on_c, 0, 65, 94
2, 76796, Note_off_c, 0, 72, 100
2, 76796, Note_off_c, 0, 69, 100
2, 76796, Note_off_c, 0, 65, 100
2, 76800, Note_on_c, 0, 74, 96
2, 76800, Note_on_c, 0, 70, 96
2, 76800, Note_on_c, 0, 65, 96
2, 76988, Note_off_c, 0, 74, 100
2, 76988, Note_off_c, 0, 70, 100
2, 76988, Note_off_c, 0, 65, 100
2, 76992, Note_on_c, 0, 75, 99
2, 76992, Note_on_c, 0, 72, 99
2, 76992, Note_on_c, 0, 65, 99
2, 77180, Note_off_c, 0, 75, 100
2, 77180, Note_off_c, 0, 72, 100
2, 77180, Note_off_c, 0, 65, 100
2, 77184, Note_on_c, 0, 65, 101
2, 77184, Note_on_c, 0, 75, 101
2, 77184, Note_on_c, 0, 72, 101
2, 77468, Note_off_c, 0, 75, 100
2, 77468, Note_off_c, 0, 72, 100
2, 77472, Note_on_c, 0, 73, 104
2, 77472, Note_on_c, 0, 69, 104
2, 77564, Note_off_c, 0, 73, 100
2, 77564, Note_off_c, 0, 69, 100
2, 77568, Note_on_c, 0, 74, 106
2, 77568, Note_on_c, 0, 70, 106
2, 77756, Note_off_c, 0, 65, 100
2, 77756, Note_off_c, 0, 74, 100
2, 77756, Note_off_c, 0, 70, 100
2, 77760, Note_on_c, 0, 74, 108
2, 77760, Note_on_c, 0, 70, 108
2, 77760, Note_on_c, 0, 65, 108
2, 77948, Note_off_c, 0, 74, 100
2, 77948, Note_off_c, 0, 70, 100
2, 77948, Note_off_c, 0, 65, 100
2, 77952, Note_on_c, 0, 76, 110
2, 77952, Note_on_c, 0, 73, 110
2, 77952, Note_on_c, 0, 70, 110
2, 77952, Note_on_c, 0, 67, 110
2, 78140, Note_off_c, 0, 76, 100
2, 78140, Note_off_c, 0, 73, 100
2, 78140, Note_off_c, 0, 70, 100
2, 78140, Note_off_c, 0, 67, 100
2, 78144, Note_on_c, 0, 76, 111
2, 78144, Note_on_c, 0, 73, 111
2, 78144, Note_on_c, 0, 70, 111
2, 78144, Note_on_c, 0, 67, 111
2, 78332, Note_off_c, 0, 76, 100
2, 78332, Note_off_c, 0, 73, 100
2, 78332, Note_off_c, 0, 70, 100
2, 78332, Note_off_c, 0, 67, 100
2, 78336, Note_on_c, 0, 77, 80
2, 78336, Note_on_c, 0, 72, 80
2, 78336, Note_on_c, 0, 69, 80
2, 78524, Note_off_c, 0, 77, 100
2, 78524, Note_off_c, 0, 72, 100
2, 78524, Note_off_c, 0, 69, 100
2, 78528, Note_on_c, 0, 72, 80
2, 78528, Note_on_c, 0, 69, 80
2, 78528, Note_on_c, 0, 65, 80
2, 78908, Note_off_c, 0, 72, 100
2, 78908, Note_off_c, 0, 69, 100
2, 78908, Note_off_c, 0, 65, 100
2, 78912, Note_on_c, 0, 72, 80
2, 78912, Note_on_c, 0, 69, 80
2, 78912, Note_on_c, 0, 65, 80
2, 79100, Note_off_c, 0, 72, 100
2, 79100, Note_off_c, 0, 69, 100
2, 79100, Note_off_c, 0, 65, 100
2, 79104, Note_on_c, 0, 76, 80
2, 79104, Note_on_c, 0, 70, 80
2, 79104, Note_on_c, 0, 67, 80
2, 79292, Note_off_c, 0, 76, 100
2, 79292, Note_off_c, 0, 70, 100
2, 79292, Note_off_c, 0, 67, 100
2, 79296, Note_on_c, 0, 72, 80
2, 79296, Note_on_c, 0, 70, 80
2, 79296, Note_on_c, 0, 67, 80
2, 79484, Note_off_c, 0, 72, 100
2, 79484, Note_off_c, 0, 70, 100
2, 79484, Note_off_c, 0, 67, 100
2, 79488, Note_on_c, 0, 77, 80
2, 79488, Note_on_c, 0, 72, 80
2, 79488, Note_on_c, 0, 69, 80
2, 79676, Note_off_c, 0, 77, 100
2, 79676, Note_off_c, 0, 72, 100
2, 79676, Note_off_c, 0, 69, 100
2, 79680, Note_on_c, 0, 72, 80
2, 79680, Note_on_c, 0, 69, 80
2, 79680, Note_on_c, 0, 65, 80
2, 80060, Note_off_c, 0, 72, 100
2, 80060, Note_off_c, 0, 69, 100
2, 80060, Note_off_c, 0, 65, 100
2, 80064, Note_on_c, 0, 72, 80
2, 80064, Note_on_c, 0, 69, 80
2, 80064, Note_on_c, 0, 65, 80
2, 80252, Note_off_c, 0, 72, 100
2, 80252, Note_off_c, 0, 69, 100
2, 80252, Note_off_c, 0, 65, 100
2, 80256, Note_on_c, 0, 76, 80
2, 80256, Note_on_c, 0, 70, 80
2, 80256, Note_on_c, 0, 67, 80
2, 80444, Note_off_c, 0, 76, 100
2, 80444, Note_off_c, 0, 70, 100
2, 80444, Note_off_c, 0, 67, 100
2, 80448, Note_on_c, 0, 72, 80
2, 80448, Note_on_c, 0, 70, 80
2, 80448, Note_on_c, 0, 67, 80
2, 80636, Note_off_c, 0, 72, 100
2, 80636, Note_off_c, 0, 70, 100
2, 80636, Note_off_c, 0, 67, 100
2, 80640, Note_on_c, 0, 77, 80
2, 80640, Note_on_c, 0, 72, 80
2, 80640, Note_on_c, 0, 69, 80
2, 80828, Note_off_c, 0, 77, 100
2, 80828, Note_off_c, 0, 72, 100
2, 80828, Note_off_c, 0, 69, 100
2, 80832, Note_on_c, 0, 72, 80
2, 80832, Note_on_c, 0, 69, 80
2, 80832, Note_on_c, 0, 65, 80
2, 81212, Note_off_c, 0, 72, 100
2, 81212, Note_off_c, 0, 69, 100
2, 81212, Note_off_c, 0, 65, 100
2, 81216, Note_on_c, 0, 69, 80
2, 81216, Note_on_c, 0, 65, 80
2, 81216, Note_on_c, 0, 60, 80
2, 81596, Note_off_c, 0, 69, 100
2, 81596, Note_off_c, 0, 65, 100
2, 81596, Note_off_c, 0, 60, 100
2, 81600, Note_on_c, 0, 65, 80
2, 81600, Note_on_c, 0, 60, 80
2, 81600, Note_on_c, 0, 57, 80
2, 81980, Note_off_c, 0, 57, 100
2, 81980, Note_off_c, 0, 60, 100
2, 81980, Note_off_c, 0, 65, 100
2, 82656, Note_on_c, 0, 67, 80
2, 82700, Note_off_c, 0, 67, 100
2, 82704, Note_on_c, 0, 69, 80
2, 82748, Note_off_c, 0, 69, 100
2, 82752, Note_on_c, 0, 70, 80
2, 82796, Note_off_c, 0, 70, 100
2, 82800, Note_on_c, 0, 72, 80
2, 82844, Note_off_c, 0, 72, 100
2, 82848, Note_on_c, 0, 74, 80
2, 82892, Note_off_c, 0, 74, 100
2, 82896, Note_on_c, 0, 75, 80
2, 82940, Note_off_c, 0, 75, 100
2, 82944, Note_on_c, 0, 77, 80
2, 83328, Note_on_c, 0, 70, 80
2, 83664, Note_on_c, 0, 74, 80
2, 83708, Note_off_c, 0, 77, 100
2, 83708, Note_off_c, 0, 70, 100
2, 83708, Note_off_c, 0, 74, 100
2, 83712, Note_on_c, 0, 70, 80
2, 83712, Note_on_c, 0, 82, 80
2, 84048, Note_on_c, 0, 79, 80
2, 84092, Note_off_c, 0, 70, 100
2, 84092, Note_off_c, 0, 82, 100
2, 84092, Note_off_c, 0, 79, 100
2, 84096, Note_on_c, 0, 77, 80
2, 84480, Note_on_c, 0, 70, 80
2, 84816, Note_on_c, 0, 74, 80
2, 84860, Note_off_c, 0, 77, 100
2, 84860, Note_off_c, 0, 70, 100
2, 84860, Note_off_c, 0, 74, 100
2, 84864, Note_on_c, 0, 75, 80
2, 84864, Note_on_c, 0, 70, 80
2, 85052, Note_off_c, 0, 70, 100
2, 85056, Note_on_c, 0, 67, 80
2, 85200, Note_on_c, 0, 72, 80
2, 85244, Note_off_c, 0, 75, 100
2, 85244, Note_off_c, 0, 67, 100
2, 85244, Note_off_c, 0, 72, 100
2, 85248, Note_on_c, 0, 70, 80
2, 85440, Note_on_c, 0, 62, 80
2, 85628, Note_off_c, 0, 62, 100
2, 85632, Note_on_c, 0, 65, 80
2, 86012, Note_off_c, 0, 70, 100
2, 86012, Note_off_c, 0, 65, 100
2, 86016, Note_on_c, 0, 65, 80
2, 86016, Note_on_c, 0, 74, 80
2, 86108, Note_off_c, 0, 74, 100
2, 86112, Note_on_c, 0, 72, 80
2, 86204, Note_off_c, 0, 72, 100
2, 86208, Note_on_c, 0, 70, 80
2, 86300, Note_off_c, 0, 70, 100
2, 86304, Note_on_c, 0, 72, 80
2, 86396, Note_off_c, 0, 65, 100
2, 86396, Note_off_c, 0, 72, 100
2, 86400, Note_on_c, 0, 72, 80
2, 86400, Note_on_c, 0, 65, 80
2, 86736, Note_on_c, 0, 73, 80
2, 86780, Note_off_c, 0, 72, 100
2, 86780, Note_off_c, 0, 73, 100
2, 86784, Note_on_c, 0, 74, 80
2, 86972, Note_off_c, 0, 65, 100
2, 86972, Note_off_c, 0, 74, 100
2, 87216, Note_on_c, 0, 65, 80
2, 87260, Note_off_c, 0, 65, 100
2, 87264, Note_on_c, 0, 67, 80
2, 87308, Note_off_c, 0, 67, 100
2, 87312, Note_on_c, 0, 69, 80
2, 87356, Note_off_c, 0, 69, 100
2, 87360, Note_on_c, 0, 70, 80
2, 87404, Note_off_c, 0, 70, 100
2, 87408, Note_on_c, 0, 72, 80
2, 87452, Note_off_c, 0, 72, 100
2, 87456, Note_on_c, 0, 74, 80
2, 87500, Note_off_c, 0, 74, 100
2, 87504, Note_on_c, 0, 75, 80
2, 87548, Note_off_c, 0, 75, 100
2, 87552, Note_on_c, 0, 77, 80
2, 87840, Note_on_c, 0, 69, 80
2, 87932, Note_off_c, 0, 69, 100
2, 87936, Note_on_c, 0, 70, 80
2, 88272, Note_on_c, 0, 74, 80
2, 88316, Note_off_c, 0, 77, 100
2, 88316, Note_off_c, 0, 70, 100
2, 88316, Note_off_c, 0, 74, 100
2, 88320, Note_on_c, 0, 70, 80
2, 88320, Note_on_c, 0, 82, 80
2, 88656, Note_on_c, 0, 79, 80
2, 88700, Note_off_c, 0, 70, 100
2, 88700, Note_off_c, 0, 82, 100
2, 88700, Note_off_c, 0, 79, 100
2, 88704, Note_on_c, 0, 77, 80
2, 88992, Note_on_c, 0, 69, 80
2, 89084, Note_off_c, 0, 69, 100
2, 89088, Note_on_c, 0, 70, 80
2, 89424, Note_on_c, 0, 74, 80
2, 89468, Note_off_c, 0, 77, 100
2, 89468, Note_off_c, 0, 70, 100
2, 89468, Note_off_c, 0, 74, 100
2, 89472, Note_on_c, 0, 70, 80
2, 89472, Note_on_c, 0, 77, 80
2, 89564, Note_off_c, 0, 77, 100
2, 89568, Note_on_c, 0, 75, 80
2, 89660, Note_off_c, 0, 70, 100
2, 89664, Note_on_c, 0, 67, 80
2, 89756, Note_off_c, 0, 75, 100
2, 89760, Note_on_c, 0, 72, 80
2, 89852, Note_off_c, 0, 67, 100
2, 89852, Note_off_c, 0, 72, 100
2, 89856, Note_on_c, 0, 70, 80
2, 89856, Note_on_c, 0, 62, 80
2, 90044, Note_off_c, 0, 62, 100
2, 90048, Note_on_c, 0, 62, 80
2, 90048, Note_on_c, 0, 58, 80
2, 90236, Note_off_c, 0, 62, 100
2, 90236, Note_off_c, 0, 58, 100
2, 90240, Note_on_c, 0, 65, 80
2, 90240, Note_on_c, 0, 62, 80
2, 90428, Note_off_c, 0, 65, 100
2, 90428, Note_off_c, 0, 62, 100
2, 90432, Note_on_c, 0, 62, 80
2, 90432, Note_on_c, 0, 58, 80
2, 90620, Note_off_c, 0, 70, 100
2, 90620, Note_off_c, 0, 62, 100
2, 90620, Note_off_c, 0, 58, 100
2, 90624, Note_on_c, 0, 65, 80
2, 90624, Note_on_c, 0, 60, 80
2, 90624, Note_on_c, 0, 57, 80
2, 90812, Note_off_c, 0, 60, 100
2, 90812, Note_off_c, 0, 57, 100
2, 90816, Note_on_c, 0, 57, 80
2, 90816, Note_on_c, 0, 53, 80
2, 91004, Note_off_c, 0, 65, 100
2, 91004, Note_off_c, 0, 57, 100
2, 91004, Note_off_c, 0, 53, 100
2, 91008, Note_on_c, 0, 62, 80
2, 91008, Note_on_c, 0, 58, 80
2, 91008, Note_on_c, 0, 53, 80
2, 91196, Note_off_c, 0, 62, 100
2, 91196, Note_off_c, 0, 58, 100
2, 91196, Note_off_c, 0, 53, 100
2, 91968, Note_on_c, 0, 58, 80
2, 92156, Note_off_c, 0, 58, 100
2, 92160, Note_on_c, 0, 58, 80
2, 92540, Note_off_c, 0, 58, 100
2, 92544, Note_on_c, 0, 59, 83
2, 92544, Note_on_c, 0, 56, 83
2, 92544, Note_on_c, 0, 53, 83
2, 92544, Note_on_c, 0, 50, 83
2, 93116, Note_off_c, 0, 59, 100
2, 93120, Note_on_c, 0, 59, 88
2, 93308, Note_off_c, 0, 56, 100
2, 93308, Note_off_c, 0, 53, 100
2, 93308, Note_off_c, 0, 50, 100
2, 93308, Note_off_c, 0, 59, 100
2, 93312, Note_on_c, 0, 59, 90
2, 93692, Note_off_c, 0, 59, 100
2, 93696, Note_on_c, 0, 62, 94
2, 93696, Note_on_c, 0, 59, 94
2, 93696, Note_on_c, 0, 56, 94
2, 93696, Note_on_c, 0, 53, 94
2, 94268, Note_off_c, 0, 62, 100
2, 94272, Note_on_c, 0, 62, 99
2, 94460, Note_off_c, 0, 59, 100
2, 94460, Note_off_c, 0, 56, 100
2, 94460, Note_off_c, 0, 53, 100
2, 94460, Note_off_c, 0, 62, 100
2, 94464, Note_on_c, 0, 62, 101
2, 94844, Note_off_c, 0, 62, 100
2, 94848, Note_on_c, 0, 65, 104
2, 94848, Note_on_c, 0, 62, 104
2, 94848, Note_on_c, 0, 59, 104
2, 94848, Note_on_c, 0, 56, 104
2, 95228, Note_off_c, 0, 65, 100
2, 95228, Note_off_c, 0, 62, 100
2, 95228, Note_off_c, 0, 59, 100
2, 95228, Note_off_c, 0, 56, 100
2, 95232, Note_on_c, 0, 68, 108
2, 95232, Note_on_c, 0, 65, 108
2, 95232, Note_on_c, 0, 62, 108
2, 95232, Note_on_c, 0, 59, 108
2, 95612, Note_off_c, 0, 68, 100
2, 95612, Note_off_c, 0, 65, 100
2, 95612, Note_off_c, 0, 62, 100
2, 95612, Note_off_c, 0, 59, 100
2, 95616, Note_on_c, 0, 71, 110
2, 96000, Note_on_c, 0, 68, 102
2, 96000, Note_on_c, 0, 65, 102
2, 96000, Note_on_c, 0, 62, 102
2, 96380, Note_off_c, 0, 71, 100
2, 96380, Note_off_c, 0, 68, 100
2, 96380, Note_off_c, 0, 65, 100
2, 96380, Note_off_c, 0, 62, 100
2, 96384, Note_on_c, 0, 65, 94
2, 96384, Note_on_c, 0, 62, 94
2, 96384, Note_on_c, 0, 70, 94
2, 96572, Note_off_c, 0, 70, 100
2, 96576, Note_on_c, 0, 68, 91
2, 96764, Note_off_c, 0, 65, 100
2, 96764, Note_off_c, 0, 62, 100
2, 96764, Note_off_c, 0, 68, 100
2, 96768, Note_on_c, 0, 66, 80
2, 97148, Note_off_c, 0, 66, 100
2, 97152, Note_on_c, 0, 67, 83
2, 97152, Note_on_c, 0, 63, 83
2, 97152, Note_on_c, 0, 58, 83
2, 97724, Note_off_c, 0, 67, 100
2, 97728, Note_on_c, 0, 70, 89
2, 97916, Note_off_c, 0, 63, 100
2, 97916, Note_off_c, 0, 58, 100
2, 97916, Note_off_c, 0, 70, 100
2, 97920, Note_on_c, 0, 75, 90
2, 98304, Note_on_c, 0, 66, 94
2, 98304, Note_on_c, 0, 63, 94
2, 98304, Note_on_c, 0, 69, 94
2, 98684, Note_off_c, 0, 75, 100
2, 98688, Note_on_c, 0, 72, 98
2, 98876, Note_off_c, 0, 69, 100
2, 98876, Note_off_c, 0, 72, 100
2, 98880, Note_on_c, 0, 69, 100
2, 99068, Note_off_c, 0, 66, 100
2, 99068, Note_off_c, 0, 63, 100
2, 99068, Note_off_c, 0, 69, 100
2, 99072, Note_on_c, 0, 72, 101
2, 99452, Note_off_c, 0, 72, 100
2, 99456, Note_on_c, 0, 70, 105
2, 99456, Note_on_c, 0, 65, 105
2, 99456, Note_on_c, 0, 62, 105
2, 99836, Note_off_c, 0, 65, 100
2, 99836, Note_off_c, 0, 62, 100
2, 99840, Note_on_c, 0, 68, 109
2, 99840, Note_on_c, 0, 65, 109
2, 100028, Note_off_c, 0, 70, 100
2, 100032, Note_on_c, 0, 74, 110
2, 100220, Note_off_c, 0, 68, 100
2, 100220, Note_off_c, 0, 65, 100
2, 100220, Note_off_c, 0, 74, 100
2, 100224, Note_on_c, 0, 77, 111
2, 100412, Note_off_c, 0, 77, 100
2, 100416, Note_on_c, 0, 75, 109
2, 100608, Note_on_c, 0, 70, 106
2, 100608, Note_on_c, 0, 67, 106
2, 100796, Note_off_c, 0, 70, 100
2, 100796, Note_off_c, 0, 67, 100
2, 100800, Note_on_c, 0, 69, 104
2, 100800, Note_on_c, 0, 66, 104
2, 100988, Note_off_c, 0, 75, 100
2, 100992, Note_on_c, 0, 72, 101
2, 100992, Note_on_c, 0, 63, 101
2, 101180, Note_off_c, 0, 69, 100
2, 101180, Note_off_c, 0, 66, 100
2, 101180, Note_off_c, 0, 72, 100
2, 101180, Note_off_c, 0, 63, 100
2, 101184, Note_on_c, 0, 69, 98
2, 101184, Note_on_c, 0, 66, 98
2, 101184, Note_on_c, 0, 63, 98
2, 101184, Note_on_c, 0, 60, 98
2, 101372, Note_off_c, 0, 69, 100
2, 101372, Note_off_c, 0, 66, 100
2, 101372, Note_off_c, 0, 63, 100
2, 101372, Note_off_c, 0, 60, 100
2, 101376, Note_on_c, 0, 70, 96
2, 101376, Note_on_c, 0, 65, 96
2, 101376, Note_on_c, 0, 62, 96
2, 101564, Note_off_c, 0, 70, 100
2, 101564, Note_off_c, 0, 65, 100
2, 101564, Note_off_c, 0, 62, 100
2, 102192, Note_on_c, 0, 65, 80
2, 102236, Note_off_c, 0, 65, 100
2, 102240, Note_on_c, 0, 64, 80
2, 102284, Note_off_c, 0, 64, 100
2, 102288, Note_on_c, 0, 65, 80
2, 102332, Note_off_c, 0, 65, 100
2, 102336, Note_on_c, 0, 67, 80
2, 102380, Note_off_c, 0, 67, 100
2, 102384, Note_on_c, 0, 69, 80
2, 102428, Note_off_c, 0, 69, 100
2, 102432, Note_on_c, 0, 70, 80
2, 102476, Note_off_c, 0, 70, 100
2, 102480, Note_on_c, 0, 72, 80
2, 102524, Note_off_c, 0, 72, 100
2, 102528, Note_on_c, 0, 65, 80
2, 102528, Note_on_c, 0, 74, 80
2, 102528, Note_on_c, 0, 70, 80
2, 102864, Note_on_c, 0, 75, 80
2, 102864, Note_on_c, 0, 72, 80
2, 102908, Note_off_c, 0, 74, 100
2, 102908, Note_off_c, 0, 70, 100
2, 102908, Note_off_c, 0, 75, 100
2, 102908, Note_off_c, 0, 72, 100
2, 102912, Note_on_c, 0, 77, 80
2, 102912, Note_on_c, 0, 74, 80
2, 103292, Note_off_c, 0, 65, 100
2, 103292, Note_off_c, 0, 77, 100
2, 103292, Note_off_c, 0, 74, 100
2, 103296, Note_on_c, 0, 75, 80
2, 103296, Note_on_c, 0, 72, 80
2, 103296, Note_on_c, 0, 65, 80
2, 103676, Note_off_c, 0, 75, 100
2, 103676, Note_off_c, 0, 72, 100
2, 103676, Note_off_c, 0, 65, 100
2, 103680, Note_on_c, 0, 74, 80
2, 103680, Note_on_c, 0, 70, 80
2, 103680, Note_on_c, 0, 65, 80
2, 103868, Note_off_c, 0, 74, 100
2, 103868, Note_off_c, 0, 70, 100
2, 103868, Note_off_c, 0, 65, 100
2, 105984, Note_on_c, 0, 84, 110
2, 106220, Note_off_c, 0, 84, 100
2, 106224, Note_on_c, 0, 86, 110
2, 106240, Note_on_c, 0, 84, 110
2, 106248, Note_off_c, 0, 86, 100
2, 106256, Note_on_c, 0, 83, 110
2, 106264, Note_off_c, 0, 84, 100
2, 106272, Note_on_c, 0, 84, 110
2, 106280, Note_off_c, 0, 83, 100
2, 106320, Note_on_c, 0, 86, 110
2, 106344, Note_off_c, 0, 84, 100
2, 106364, Note_off_c, 0, 86, 100
2, 106368, Note_on_c, 0, 87, 110
2, 106748, Note_off_c, 0, 87, 100
2, 106752, Note_on_c, 0, 66, 110
2, 107132, Note_off_c, 0, 66, 100
2, 107136, Note_on_c, 0, 65, 110
2, 107952, Note_on_c, 0, 67, 110
2, 107976, Note_on_c, 0, 65, 110
2, 107992, Note_off_c, 0, 67, 100
2, 108000, Note_on_c, 0, 64, 110
2, 108020, Note_off_c, 0, 65, 100
2, 108024, Note_on_c, 0, 65, 110
2, 108036, Note_off_c, 0, 64, 100
2, 108048, Note_on_c, 0, 67, 110
2, 108060, Note_off_c, 0, 65, 100
2, 108072, Note_on_c, 0, 69, 110
2, 108084, Note_off_c, 0, 67, 100
2, 108096, Note_on_c, 0, 70, 110
2, 108116, Note_off_c, 0, 69, 100
2, 108120, Note_on_c, 0, 72, 110
2, 108124, Note_off_c, 0, 70, 100
2, 108144, Note_on_c, 0, 74, 110
2, 108152, Note_off_c, 0, 72, 100
2, 108168, Note_on_c, 0, 75, 110
2, 108180, Note_off_c, 0, 74, 100
2, 108192, Note_on_c, 0, 77, 110
2, 108212, Note_off_c, 0, 75, 100
2, 108216, Note_on_c, 0, 79, 110
2, 108228, Note_off_c, 0, 77, 100
2, 108240, Note_on_c, 0, 81, 110
2, 108244, Note_off_c, 0, 79, 100
2, 108264, Note_on_c, 0, 82, 110
2, 108272, Note_off_c, 0, 81, 100
2, 108284, Note_off_c, 0, 65, 100
2, 108284, Note_off_c, 0, 82, 100
2, 108288, Note_on_c, 0, 84, 110
2, 108524, Note_off_c, 0, 84, 100
2, 108528, Note_on_c, 0, 86, 110
2, 108544, Note_on_c, 0, 84, 110
2, 108552, Note_off_c, 0, 86, 100
2, 108560, Note_on_c, 0, 83, 110
2, 108568, Note_off_c, 0, 84, 100
2, 108576, Note_on_c, 0, 84, 110
2, 108584, Note_off_c, 0, 83, 100
2, 108624, Note_on_c, 0, 86, 110
2, 108648, Note_off_c, 0, 84, 100
2, 108668, Note_off_c, 0, 86, 100
2, 108672, Note_on_c, 0, 87, 110
2, 109052, Note_off_c, 0, 87, 100
2, 109056, Note_on_c, 0, 75, 110
2, 109056, Note_on_c, 0, 72, 110
2, 109056, Note_on_c, 0, 69, 110
2, 109436, Note_off_c, 0, 75, 100
2, 109436, Note_off_c, 0, 72, 100
2, 109436, Note_off_c, 0, 69, 100
2, 109440, Note_on_c, 0, 74, 110
2, 109440, Note_on_c, 0, 70, 110
2, 109628, Note_off_c, 0, 74, 100
2, 109628, Note_off_c, 0, 70, 100
2, 109824, Note_on_c, 0, 79, 110
2, 110208, Note_on_c, 0, 73, 110
2, 110208, Note_on_c, 0, 70, 110
2, 110208, Note_on_c, 0, 67, 110
2, 110396, Note_off_c, 0, 73, 100
2, 110396, Note_off_c, 0, 70, 100
2, 110396, Note_off_c, 0, 67, 100
2, 110588, Note_off_c, 0, 79, 100
2, 110592, Note_on_c, 0, 77, 80
2, 110976, Note_on_c, 0, 74, 80
2, 110976, Note_on_c, 0, 70, 80
2, 110976, Note_on_c, 0, 65, 80
2, 111164, Note_off_c, 0, 74, 100
2, 111164, Note_off_c, 0, 70, 100
2, 111164, Note_off_c, 0, 65, 100
2, 111356, Note_off_c, 0, 77, 100
2, 111360, Note_on_c, 0, 69, 80
2, 111360, Note_on_c, 0, 63, 80
2, 111360, Note_on_c, 0, 60, 80
2, 111548, Note_off_c, 0, 69, 100
2, 111548, Note_off_c, 0, 63, 100
2, 111548, Note_off_c, 0, 60, 100
2, 111744, Note_on_c, 0, 70, 80
2, 111744, Note_on_c, 0, 62, 80
2, 111744, Note_on_c, 0, 58, 80
2, 111932, Note_off_c, 0, 70, 100
2, 111932, Note_off_c, 0, 62, 100
2, 111932, Note_off_c, 0, 58, 100
2, 111936, Note_on_c, 0, 77, 80
2, 111936, Note_on_c, 0, 65, 80
2, 112124, Note_off_c, 0, 77, 100
2, 112124, Note_off_c, 0, 65, 100
2, 112128, Note_on_c, 0, 74, 80
2, 112128, Note_on_c, 0, 62, 80
2, 112316, Note_off_c, 0, 74, 100
2, 112316, Note_off_c, 0, 62, 100
2, 112320, Note_on_c, 0, 71, 80
2, 112320, Note_on_c, 0, 59, 80
2, 112508, Note_off_c, 0, 71, 100
2, 112508, Note_off_c, 0, 59, 100
2, 112512, Note_on_c, 0, 70, 80
2, 112512, Note_on_c, 0, 58, 80
2, 112700, Note_off_c, 0, 70, 100
2, 112700, Note_off_c, 0, 58, 100
2, 112704, Note_on_c, 0, 68, 80
2, 112704, Note_on_c, 0, 56, 80
2, 112892, Note_off_c, 0, 68, 100
2, 112892, Note_off_c, 0, 56, 100
2, 112896, Note_on_c, 0, 67, 80
2, 112896, Note_on_c, 0, 55, 80
2, 113084, Note_off_c, 0, 67, 100
2, 113084, Note_off_c, 0, 55, 100
2, 113088, Note_on_c, 0, 70, 80
2, 113088, Note_on_c, 0, 58, 80
2, 113276, Note_off_c, 0, 70, 100
2, 113276, Note_off_c, 0, 58, 100
2, 113280, Note_on_c, 0, 63, 80
2, 113280, Note_on_c, 0, 51, 80
2, 113468, Note_off_c, 0, 63, 100
2, 113468, Note_off_c, 0, 51, 100
2, 113472, Note_on_c, 0, 67, 80
2, 113472, Note_on_c, 0, 55, 80
2, 113660, Note_off_c, 0, 67, 100
2, 113660, Note_off_c, 0, 55, 100
2, 113664, Note_on_c, 0, 60, 80
2, 113664, Note_on_c, 0, 48, 80
2, 113852, Note_off_c, 0, 60, 100
2, 113852, Note_off_c, 0, 48, 100
2, 113856, Note_on_c, 0, 65, 80
2, 113856, Note_on_c, 0, 53, 80
2, 113948, Note_off_c, 0, 65, 100
2, 113948, Note_off_c, 0, 53, 100
2, 113952, Note_on_c, 0, 63, 80
2, 113952, Note_on_c, 0, 51, 80
2, 114044, Note_off_c, 0, 63, 100
2, 114044, Note_off_c, 0, 51, 100
2, 114048, Note_on_c, 0, 62, 80
2, 114048, Note_on_c, 0, 50, 80
2, 114236, Note_off_c, 0, 62, 100
2, 114236, Note_off_c, 0, 50, 100
2, 114624, Note_on_c, 0, 74, 80
2, 115004, Note_off_c, 0, 74, 100
2, 115008, Note_on_c, 0, 74, 83
2, 115032, Note_on_c, 0, 75, 83
2, 115040, Note_off_c, 0, 74, 100
2, 115056, Note_on_c, 0, 74, 84
2, 115076, Note_off_c, 0, 75, 100
2, 115080, Note_on_c, 0, 75, 84
2, 115096, Note_off_c, 0, 74, 100
2, 115104, Note_on_c, 0, 74, 84
2, 115120, Note_off_c, 0, 75, 100
2, 115128, Note_on_c, 0, 75, 84
2, 115144, Note_off_c, 0, 74, 100
2, 115152, Note_on_c, 0, 72, 85
2, 115164, Note_off_c, 0, 75, 100
2, 115176, Note_on_c, 0, 74, 85
2, 115184, Note_off_c, 0, 72, 100
2, 115196, Note_off_c, 0, 74, 100
2, 115200, Note_on_c, 0, 77, 85
2, 115388, Note_off_c, 0, 77, 100
2, 115392, Note_on_c, 0, 75, 87
2, 115580, Note_off_c, 0, 75, 100
2, 115776, Note_on_c, 0, 75, 90
2, 116156, Note_off_c, 0, 75, 100
2, 116160, Note_on_c, 0, 69, 94
2, 116184, Note_on_c, 0, 70, 94
2, 116200, Note_off_c, 0, 69, 100
2, 116208, Note_on_c, 0, 69, 95
2, 116220, Note_off_c, 0, 70, 100
2, 116232, Note_on_c, 0, 70, 95
2, 116244, Note_off_c, 0, 69, 100
2, 116256, Note_on_c, 0, 69, 95
2, 116272, Note_off_c, 0, 70, 100
2, 116280, Note_on_c, 0, 70, 95
2, 116292, Note_off_c, 0, 69, 100
2, 116304, Note_on_c, 0, 67, 95
2, 116320, Note_off_c, 0, 70, 100
2, 116328, Note_on_c, 0, 69, 96
2, 116348, Note_off_c, 0, 67, 100
2, 116348, Note_off_c, 0, 69, 100
2, 116352, Note_on_c, 0, 70, 96
2, 116540, Note_off_c, 0, 70, 100
2, 116640, Note_on_c, 0, 69, 99
2, 116732, Note_off_c, 0, 69, 100
2, 116736, Note_on_c, 0, 70, 100
2, 116924, Note_off_c, 0, 70, 100
2, 117024, Note_on_c, 0, 69, 102
2, 117024, Note_on_c, 0, 72, 102
2, 117116, Note_off_c, 0, 69, 100
2, 117116, Note_off_c, 0, 72, 100
2, 117120, Note_on_c, 0, 74, 103
2, 117120, Note_on_c, 0, 70, 103
2, 117308, Note_off_c, 0, 74, 100
2, 117308, Note_off_c, 0, 70, 100
2, 117408, Note_on_c, 0, 81, 106
2, 117408, Note_on_c, 0, 72, 106
2, 117500, Note_off_c, 0, 81, 100
2, 117500, Note_off_c, 0, 72, 100
2, 117504, Note_on_c, 0, 82, 107
2, 117504, Note_on_c, 0, 74, 107
2, 117692, Note_off_c, 0, 82, 100
2, 117692, Note_off_c, 0, 74, 100
2, 117696, Note_on_c, 0, 86, 109
2, 117836, Note_off_c, 0, 86, 100
2, 117840, Note_on_c, 0, 84, 110
2, 117884, Note_off_c, 0, 84, 100
2, 117888, Note_on_c, 0, 84, 110
2, 118268, Note_off_c, 0, 84, 100
2, 118272, Note_on_c, 0, 82, 80
2, 118460, Note_off_c, 0, 82, 100
2, 118460, End_track
3, 0, Start_track
3, 0, Title_t, "Left"
3, 0, Control_c, 1, 0, 0
3, 0, Program_c, 1, 0
3, 0, Control_c, 1, 7, 100
3, 0, Control_c, 1, 10, 56
3, 0, Control_c, 1, 91, 127
3, 0, Key_signature, -2, "major"
3, 0, Note_on_c, 1, 34, 80
3, 24, Note_on_c, 1, 41, 80
3, 48, Note_on_c, 1, 46, 80
3, 1148, Note_off_c, 1, 34, 100
3, 1148, Note_off_c, 1, 41, 100
3, 1148, Note_off_c, 1, 46, 100
3, 1920, Note_on_c, 1, 46, 80
3, 1920, Note_on_c, 1, 41, 80
3, 1920, Note_on_c, 1, 34, 80
3, 2300, Note_off_c, 1, 46, 100
3, 2300, Note_off_c, 1, 41, 100
3, 2300, Note_off_c, 1, 34, 100
3, 2304, Note_on_c, 1, 48, 80
3, 2304, Note_on_c, 1, 41, 80
3, 2304, Note_on_c, 1, 36, 80
3, 3452, Note_off_c, 1, 48, 100
3, 3452, Note_off_c, 1, 41, 100
3, 3452, Note_off_c, 1, 36, 100
3, 4224, Note_on_c, 1, 53, 80
3, 4224, Note_on_c, 1, 45, 80
3, 4604, Note_off_c, 1, 53, 100
3, 4604, Note_off_c, 1, 45, 100
3, 4608, Note_on_c, 1, 53, 80
3, 4608, Note_on_c, 1, 46, 80
3, 5756, Note_off_c, 1, 53, 100
3, 5756, Note_off_c, 1, 46, 100
3, 6528, Note_on_c, 1, 59, 100
3, 6528, Note_on_c, 1, 50, 100
3, 6908, Note_off_c, 1, 59, 100
3, 6908, Note_off_c, 1, 50, 100
3, 6912, Note_on_c, 1, 59, 80
3, 6912, Note_on_c, 1, 51, 80
3, 7292, Note_off_c, 1, 59, 100
3, 7296, Note_on_c, 1, 60, 80
3, 7484, Note_off_c, 1, 51, 100
3, 7484, Note_off_c, 1, 60, 100
3, 7488, Note_on_c, 1, 62, 80
3, 7488, Note_on_c, 1, 53, 80
3, 7676, Note_off_c, 1, 62, 100
3, 7676, Note_off_c, 1, 53, 100
3, 7680, Note_on_c, 1, 63, 80
3, 7680, Note_on_c, 1, 55, 80
3, 7868, Note_off_c, 1, 63, 100
3, 7868, Note_off_c, 1, 55, 100
3, 7872, Note_on_c, 1, 64, 80
3, 7872, Note_on_c, 1, 55, 80
3, 8060, Note_off_c, 1, 64, 100
3, 8060, Note_off_c, 1, 55, 100
3, 8064, Note_on_c, 1, 64, 80
3, 8064, Note_on_c, 1, 53, 80
3, 8444, Note_off_c, 1, 64, 100
3, 8448, Note_on_c, 1, 65, 80
3, 8636, Note_off_c, 1, 53, 100
3, 8636, Note_off_c, 1, 65, 100
3, 9216, Note_on_c, 1, 34, 80
3, 10364, Note_off_c, 1, 34, 100
3, 10368, Note_on_c, 1, 53, 80
3, 10368, Note_on_c, 1, 50, 80
3, 10368, Note_on_c, 1, 46, 80
3, 11132, Note_off_c, 1, 53, 100
3, 11132, Note_off_c, 1, 50, 100
3, 11132, Note_off_c, 1, 46, 100
3, 11136, Note_on_c, 1, 46, 80
3, 11136, Note_on_c, 1, 34, 80
3, 11516, Note_off_c, 1, 46, 100
3, 11516, Note_off_c, 1, 34, 100
3, 11520, Note_on_c, 1, 41, 80
3, 11520, Note_on_c, 1, 29, 80
3, 12668, Note_off_c, 1, 41, 100
3, 12668, Note_off_c, 1, 29, 100
3, 12672, Note_on_c, 1, 54, 80
3, 12672, Note_on_c, 1, 51, 80
3, 12672, Note_on_c, 1, 41, 80
3, 13052, Note_off_c, 1, 54, 100
3, 13052, Note_off_c, 1, 51, 100
3, 13052, Note_off_c, 1, 41, 100
3, 13440, Note_on_c, 1, 60, 80
3, 13440, Note_on_c, 1, 58, 80
3, 13820, Note_off_c, 1, 60, 100
3, 13820, Note_off_c, 1, 58, 100
3, 13824, Note_on_c, 1, 60, 80
3, 13824, Note_on_c, 1, 57, 80
3, 14160, Note_on_c, 1, 62, 80
3, 14160, Note_on_c, 1, 58, 80
3, 14204, Note_off_c, 1, 60, 100
3, 14204, Note_off_c, 1, 57, 100
3, 14204, Note_off_c, 1, 62, 100
3, 14204, Note_off_c, 1, 58, 100
3, 14208, Note_on_c, 1, 63, 80
3, 14208, Note_on_c, 1, 60, 80
3, 14588, Note_off_c, 1, 63, 100
3, 14588, Note_off_c, 1, 60, 100
3, 14592, Note_on_c, 1, 63, 80
3, 14592, Note_on_c, 1, 60, 80
3, 14972, Note_off_c, 1, 63, 100
3, 14976, Note_on_c, 1, 63, 80
3, 14976, Note_on_c, 1, 53, 80
3, 14976, Note_on_c, 1, 60, 80
3, 14980, Note_off_c, 1, 60, 100
3, 15356, Note_off_c, 1, 60, 100
3, 15360, Note_on_c, 1, 57, 80
3, 15740, Note_off_c, 1, 63, 100
3, 15740, Note_off_c, 1, 53, 100
3, 15740, Note_off_c, 1, 57, 100
3, 15744, Note_on_c, 1, 63, 80
3, 15744, Note_on_c, 1, 60, 80
3, 15744, Note_on_c, 1, 53, 80
3, 16124, Note_off_c, 1, 63, 100
3, 16124, Note_off_c, 1, 60, 100
3, 16124, Note_off_c, 1, 53, 100
3, 16128, Note_on_c, 1, 62, 80
3, 16128, Note_on_c, 1, 58, 80
3, 16128, Note_on_c, 1, 55, 80
3, 16316, Note_off_c, 1, 62, 100
3, 16316, Note_off_c, 1, 58, 100
3, 16316, Note_off_c, 1, 55, 100
3, 16896, Note_on_c, 1, 61, 101
3, 16896, Note_on_c, 1, 58, 101
3, 16896, Note_on_c, 1, 52, 101
3, 17084, Note_off_c, 1, 61, 100
3, 17084, Note_off_c, 1, 58, 100
3, 17084, Note_off_c, 1, 52, 100
3, 17664, Note_on_c, 1, 62, 80
3, 17664, Note_on_c, 1, 58, 80
3, 17664, Note_on_c, 1, 53, 80
3, 17852, Note_off_c, 1, 62, 100
3, 17852, Note_off_c, 1, 58, 100
3, 17852, Note_off_c, 1, 53, 100
3, 18048, Note_on_c, 1, 53, 80
3, 18048, Note_on_c, 1, 41, 80
3, 18236, Note_off_c, 1, 53, 100
3, 18236, Note_off_c, 1, 41, 100
3, 18432, Note_on_c, 1, 46, 80
3, 18432, Note_on_c, 1, 34, 80
3, 18620, Note_off_c, 1, 46, 100
3, 18620, Note_off_c, 1, 34, 100
3, 18720, Note_on_c, 1, 46, 80
3, 18752, Note_on_c, 1, 34, 80
3, 18764, Note_off_c, 1, 46, 100
3, 18784, Note_on_c, 1, 46, 80
3, 18804, Note_off_c, 1, 34, 100
3, 18816, Note_on_c, 1, 34, 80
3, 18828, Note_off_c, 1, 46, 100
3, 19004, Note_off_c, 1, 34, 100
3, 19104, Note_on_c, 1, 46, 80
3, 19136, Note_on_c, 1, 34, 80
3, 19148, Note_off_c, 1, 46, 100
3, 19168, Note_on_c, 1, 46, 80
3, 19180, Note_off_c, 1, 34, 100
3, 19200, Note_on_c, 1, 34, 80
3, 19212, Note_off_c, 1, 46, 100
3, 19388, Note_off_c, 1, 34, 100
3, 19488, Note_on_c, 1, 46, 80
3, 19520, Note_on_c, 1, 34, 80
3, 19532, Note_off_c, 1, 46, 100
3, 19552, Note_on_c, 1, 46, 80
3, 19568, Note_off_c, 1, 34, 100
3, 19584, Note_on_c, 1, 34, 80
3, 19600, Note_off_c, 1, 46, 100
3, 19772, Note_off_c, 1, 34, 100
3, 21024, Note_on_c, 1, 46, 80
3, 21056, Note_on_c, 1, 34, 80
3, 21068, Note_off_c, 1, 46, 100
3, 21088, Note_on_c, 1, 46, 80
3, 21108, Note_off_c, 1, 34, 100
3, 21120, Note_on_c, 1, 34, 80
3, 21132, Note_off_c, 1, 46, 100
3, 21308, Note_off_c, 1, 34, 100
3, 21408, Note_on_c, 1, 46, 80
3, 21440, Note_on_c, 1, 34, 80
3, 21452, Note_off_c, 1, 46, 100
3, 21472, Note_on_c, 1, 46, 80
3, 21484, Note_off_c, 1, 34, 100
3, 21504, Note_on_c, 1, 34, 80
3, 21516, Note_off_c, 1, 46, 100
3, 21692, Note_off_c, 1, 34, 100
3, 21792, Note_on_c, 1, 46, 80
3, 21824, Note_on_c, 1, 34, 80
3, 21836, Note_off_c, 1, 46, 100
3, 21856, Note_on_c, 1, 46, 80
3, 21872, Note_off_c, 1, 34, 100
3, 21888, Note_off_c, 1, 46, 100
3, 21888, Note_on_c, 1, 34, 80
3, 22076, Note_off_c, 1, 34, 100
3, 23328, Note_on_c, 1, 46, 80
3, 23360, Note_on_c, 1, 34, 80
3, 23372, Note_off_c, 1, 46, 100
3, 23392, Note_on_c, 1, 46, 80
3, 23412, Note_off_c, 1, 34, 100
3, 23424, Note_on_c, 1, 34, 80
3, 23436, Note_off_c, 1, 46, 100
3, 23612, Note_off_c, 1, 34, 100
3, 23712, Note_on_c, 1, 46, 80
3, 23744, Note_on_c, 1, 34, 80
3, 23756, Note_off_c, 1, 46, 100
3, 23776, Note_on_c, 1, 46, 80
3, 23788, Note_off_c, 1, 34, 100
3, 23808, Note_on_c, 1, 34, 80
3, 23820, Note_off_c, 1, 46, 100
3, 23996, Note_off_c, 1, 34, 100
3, 24096, Note_on_c, 1, 46, 80
3, 24128, Note_on_c, 1, 34, 80
3, 24140, Note_off_c, 1, 46, 100
3, 24160, Note_on_c, 1, 46, 80
3, 24176, Note_off_c, 1, 34, 100
3, 24192, Note_off_c, 1, 46, 100
3, 24192, Note_on_c, 1, 34, 80
3, 24380, Note_off_c, 1, 34, 100
3, 25632, Note_on_c, 1, 48, 80
3, 25660, Note_off_c, 1, 48, 100
3, 25664, Note_on_c, 1, 36, 80
3, 25692, Note_off_c, 1, 36, 100
3, 25696, Note_on_c, 1, 48, 80
3, 25724, Note_off_c, 1, 48, 100
3, 25728, Note_on_c, 1, 36, 80
3, 25916, Note_off_c, 1, 36, 100
3, 26016, Note_on_c, 1, 84, 80
3, 26044, Note_off_c, 1, 84, 100
3, 26048, Note_on_c, 1, 72, 80
3, 26076, Note_off_c, 1, 72, 100
3, 26080, Note_on_c, 1, 84, 80
3, 26108, Note_off_c, 1, 84, 100
3, 26112, Note_on_c, 1, 72, 80
3, 26300, Note_off_c, 1, 72, 100
3, 26784, Note_on_c, 1, 48, 80
3, 26812, Note_off_c, 1, 48, 100
3, 26816, Note_on_c, 1, 36, 80
3, 26844, Note_off_c, 1, 36, 100
3, 26848, Note_on_c, 1, 48, 80
3, 26876, Note_off_c, 1, 48, 100
3, 26880, Note_on_c, 1, 36, 80
3, 27068, Note_off_c, 1, 36, 100
3, 27168, Note_on_c, 1, 84, 80
3, 27196, Note_off_c, 1, 84, 100
3, 27200, Note_on_c, 1, 72, 80
3, 27228, Note_off_c, 1, 72, 100
3, 27232, Note_on_c, 1, 84, 80
3, 27260, Note_off_c, 1, 84, 100
3, 27264, Note_on_c, 1, 72, 80
3, 27452, Note_off_c, 1, 72, 100
3, 27936, Note_on_c, 1, 48, 89
3, 27964, Note_off_c, 1, 48, 100
3, 27968, Note_on_c, 1, 36, 89
3, 27996, Note_off_c, 1, 36, 100
3, 28000, Note_on_c, 1, 48, 89
3, 28028, Note_off_c, 1, 48, 100
3, 28032, Note_on_c, 1, 36, 90
3, 28220, Note_off_c, 1, 36, 100
3, 28320, Note_on_c, 1, 84, 94
3, 28348, Note_off_c, 1, 84, 100
3, 28352, Note_on_c, 1, 72, 94
3, 28380, Note_off_c, 1, 72, 100
3, 28384, Note_on_c, 1, 84, 95
3, 28412, Note_off_c, 1, 84, 100
3, 28416, Note_on_c, 1, 72, 95
3, 28604, Note_off_c, 1, 72, 100
3, 29088, Note_on_c, 1, 48, 104
3, 29116, Note_off_c, 1, 48, 100
3, 29120, Note_on_c, 1, 36, 104
3, 29148, Note_off_c, 1, 36, 100
3, 29152, Note_on_c, 1, 48, 105
3, 29180, Note_off_c, 1, 48, 100
3, 29184, Note_on_c, 1, 36, 105
3, 29372, Note_off_c, 1, 36, 100
3, 29472, Note_on_c, 1, 84, 109
3, 29500, Note_off_c, 1, 84, 100
3, 29504, Note_on_c, 1, 72, 110
3, 29532, Note_off_c, 1, 72, 100
3, 29536, Note_on_c, 1, 84, 110
3, 29564, Note_off_c, 1, 84, 100
3, 29568, Note_on_c, 1, 72, 111
3, 29756, Note_off_c, 1, 72, 100
3, 29856, Note_on_c, 1, 84, 80
3, 29884, Note_off_c, 1, 84, 100
3, 29888, Note_on_c, 1, 72, 80
3, 29916, Note_off_c, 1, 72, 100
3, 29920, Note_on_c, 1, 84, 80
3, 29948, Note_off_c, 1, 84, 100
3, 30240, Note_on_c, 1, 48, 80
3, 30284, Note_off_c, 1, 48, 100
3, 30288, Note_on_c, 1, 36, 80
3, 30332, Note_off_c, 1, 36, 100
3, 30336, Note_on_c, 1, 48, 80
3, 30524, Note_off_c, 1, 48, 100
3, 30624, Note_on_c, 1, 84, 80
3, 30668, Note_off_c, 1, 84, 100
3, 30672, Note_on_c, 1, 72, 80
3, 30716, Note_off_c, 1, 72, 100
3, 30720, Note_on_c, 1, 84, 80
3, 30908, Note_off_c, 1, 84, 100
3, 31392, Note_on_c, 1, 48, 80
3, 31436, Note_off_c, 1, 48, 100
3, 31440, Note_on_c, 1, 36, 80
3, 31484, Note_off_c, 1, 36, 100
3, 31488, Note_on_c, 1, 48, 80
3, 31676, Note_off_c, 1, 48, 100
3, 31776, Note_on_c, 1, 84, 80
3, 31820, Note_off_c, 1, 84, 100
3, 31824, Note_on_c, 1, 72, 80
3, 31868, Note_off_c, 1, 72, 100
3, 31872, Note_on_c, 1, 84, 80
3, 32060, Note_off_c, 1, 84, 100
3, 32544, Note_on_c, 1, 48, 80
3, 32588, Note_off_c, 1, 48, 100
3, 32592, Note_on_c, 1, 36, 80
3, 32636, Note_off_c, 1, 36, 100
3, 32640, Note_on_c, 1, 48, 80
3, 32828, Note_off_c, 1, 48, 100
3, 32928, Note_on_c, 1, 48, 80
3, 32972, Note_off_c, 1, 48, 100
3, 32976, Note_on_c, 1, 36, 80
3, 33020, Note_off_c, 1, 36, 100
3, 33024, Note_on_c, 1, 48, 80
3, 33212, Note_off_c, 1, 48, 100
3, 33312, Note_on_c, 1, 48, 80
3, 33356, Note_off_c, 1, 48, 100
3, 33360, Note_on_c, 1, 36, 80
3, 33404, Note_off_c, 1, 36, 100
3, 33408, Note_on_c, 1, 48, 80
3, 33596, Note_off_c, 1, 48, 100
3, 33600, Note_on_c, 1, 60, 80
3, 33788, Note_off_c, 1, 60, 100
3, 33792, Note_on_c, 1, 59, 80
3, 33980, Note_off_c, 1, 59, 100
3, 33984, Note_on_c, 1, 60, 80
3, 33984, Note_on_c, 1, 58, 80
3, 34172, Note_off_c, 1, 58, 100
3, 34176, Note_on_c, 1, 57, 80
3, 34364, Note_off_c, 1, 60, 100
3, 34364, Note_off_c, 1, 57, 100
3, 34368, Note_on_c, 1, 58, 80
3, 34368, Note_on_c, 1, 55, 80
3, 34556, Note_off_c, 1, 58, 100
3, 34556, Note_off_c, 1, 55, 100
3, 34560, Note_on_c, 1, 41, 80
3, 34748, Note_off_c, 1, 41, 100
3, 34752, Note_on_c, 1, 53, 80
3, 34940, Note_off_c, 1, 53, 100
3, 34944, Note_on_c, 1, 57, 80
3, 34944, Note_on_c, 1, 60, 80
3, 35132, Note_off_c, 1, 57, 100
3, 35132, Note_off_c, 1, 60, 100
3, 35136, Note_on_c, 1, 53, 80
3, 35324, Note_off_c, 1, 53, 100
3, 35328, Note_on_c, 1, 62, 80
3, 35328, Note_on_c, 1, 58, 80
3, 35516, Note_off_c, 1, 62, 100
3, 35516, Note_off_c, 1, 58, 100
3, 35520, Note_on_c, 1, 53, 80
3, 35708, Note_off_c, 1, 53, 100
3, 35712, Note_on_c, 1, 60, 80
3, 35712, Note_on_c, 1, 57, 80
3, 35900, Note_off_c, 1, 60, 100
3, 35900, Note_off_c, 1, 57, 100
3, 35904, Note_on_c, 1, 53, 80
3, 36092, Note_off_c, 1, 53, 100
3, 36096, Note_on_c, 1, 60, 80
3, 36096, Note_on_c, 1, 57, 80
3, 36284, Note_off_c, 1, 60, 100
3, 36284, Note_off_c, 1, 57, 100
3, 36288, Note_on_c, 1, 53, 80
3, 36476, Note_off_c, 1, 53, 100
3, 36480, Note_on_c, 1, 50, 80
3, 36668, Note_off_c, 1, 50, 100
3, 36672, Note_on_c, 1, 46, 80
3, 36860, Note_off_c, 1, 46, 100
3, 36864, Note_on_c, 1, 36, 80
3, 37052, Note_off_c, 1, 36, 100
3, 37056, Note_on_c, 1, 48, 80
3, 37244, Note_off_c, 1, 48, 100
3, 37248, Note_on_c, 1, 53, 80
3, 37248, Note_on_c, 1, 57, 80
3, 37436, Note_off_c, 1, 53, 100
3, 37436, Note_off_c, 1, 57, 100
3, 37440, Note_on_c, 1, 48, 80
3, 37628, Note_off_c, 1, 48, 100
3, 37632, Note_on_c, 1, 52, 80
3, 37632, Note_on_c, 1, 55, 80
3, 37820, Note_off_c, 1, 52, 100
3, 37820, Note_off_c, 1, 55, 100
3, 37824, Note_on_c, 1, 48, 80
3, 38012, Note_off_c, 1, 48, 100
3, 38016, Note_on_c, 1, 52, 80
3, 38204, Note_off_c, 1, 52, 100
3, 38208, Note_on_c, 1, 48, 80
3, 38396, Note_off_c, 1, 48, 100
3, 38400, Note_on_c, 1, 53, 80
3, 38588, Note_off_c, 1, 53, 100
3, 38592, Note_on_c, 1, 45, 80
3, 38780, Note_off_c, 1, 45, 100
3, 38784, Note_on_c, 1, 46, 80
3, 38972, Note_off_c, 1, 46, 100
3, 38976, Note_on_c, 1, 43, 80
3, 39164, Note_off_c, 1, 43, 100
3, 39168, Note_on_c, 1, 41, 80
3, 39356, Note_off_c, 1, 41, 100
3, 39360, Note_on_c, 1, 53, 80
3, 39548, Note_off_c, 1, 53, 100
3, 39552, Note_on_c, 1, 57, 80
3, 39552, Note_on_c, 1, 60, 80
3, 39740, Note_off_c, 1, 57, 100
3, 39740, Note_off_c, 1, 60, 100
3, 39744, Note_on_c, 1, 53, 80
3, 39932, Note_off_c, 1, 53, 100
3, 39936, Note_on_c, 1, 62, 80
3, 39936, Note_on_c, 1, 58, 80
3, 40124, Note_off_c, 1, 62, 100
3, 40124, Note_off_c, 1, 58, 100
3, 40128, Note_on_c, 1, 53, 80
3, 40316, Note_off_c, 1, 53, 100
3, 40320, Note_on_c, 1, 60, 80
3, 40320, Note_on_c, 1, 57, 80
3, 40508, Note_off_c, 1, 60, 100
3, 40508, Note_off_c, 1, 57, 100
3, 40512, Note_on_c, 1, 53, 80
3, 40700, Note_off_c, 1, 53, 100
3, 40704, Note_on_c, 1, 60, 80
3, 40704, Note_on_c, 1, 57, 80
3, 40892, Note_off_c, 1, 60, 100
3, 40892, Note_off_c, 1, 57, 100
3, 40896, Note_on_c, 1, 53, 80
3, 41084, Note_off_c, 1, 53, 100
3, 41088, Note_on_c, 1, 50, 80
3, 41276, Note_off_c, 1, 50, 100
3, 41280, Note_on_c, 1, 46, 80
3, 41468, Note_off_c, 1, 46, 100
3, 41472, Note_on_c, 1, 48, 80
3, 42236, Note_off_c, 1, 48, 100
3, 42240, Note_on_c, 1, 36, 80
3, 42620, Note_off_c, 1, 36, 100
3, 42624, Note_on_c, 1, 41, 80
3, 42624, Note_on_c, 1, 29, 80
3, 42812, Note_off_c, 1, 41, 100
3, 42812, Note_off_c, 1, 29, 100
3, 42912, Note_on_c, 1, 41, 80
3, 42944, Note_on_c, 1, 29, 80
3, 42956, Note_off_c, 1, 41, 100
3, 42976, Note_on_c, 1, 41, 80
3, 42988, Note_off_c, 1, 29, 100
3, 43008, Note_on_c, 1, 29, 80
3, 43020, Note_off_c, 1, 41, 100
3, 43196, Note_off_c, 1, 29, 100
3, 43296, Note_on_c, 1, 41, 80
3, 43328, Note_on_c, 1, 29, 80
3, 43340, Note_off_c, 1, 41, 100
3, 43360, Note_on_c, 1, 41, 80
3, 43372, Note_off_c, 1, 29, 100
3, 43392, Note_on_c, 1, 29, 80
3, 43404, Note_off_c, 1, 41, 100
3, 43580, Note_off_c, 1, 29, 100
3, 44064, Note_on_c, 1, 41, 80
3, 44096, Note_on_c, 1, 29, 80
3, 44108, Note_off_c, 1, 41, 100
3, 44128, Note_on_c, 1, 41, 80
3, 44140, Note_off_c, 1, 29, 100
3, 44160, Note_on_c, 1, 29, 80
3, 44172, Note_off_c, 1, 41, 100
3, 44348, Note_off_c, 1, 29, 100
3, 44448, Note_on_c, 1, 41, 80
3, 44480, Note_on_c, 1, 29, 80
3, 44492, Note_off_c, 1, 41, 100
3, 44512, Note_on_c, 1, 41, 80
3, 44524, Note_off_c, 1, 29, 100
3, 44544, Note_on_c, 1, 29, 80
3, 44556, Note_off_c, 1, 41, 100
3, 44732, Note_off_c, 1, 29, 100
3, 45216, Note_on_c, 1, 41, 80
3, 45248, Note_on_c, 1, 29, 80
3, 45260, Note_off_c, 1, 41, 100
3, 45280, Note_on_c, 1, 41, 80
3, 45292, Note_off_c, 1, 29, 100
3, 45312, Note_on_c, 1, 29, 80
3, 45324, Note_off_c, 1, 41, 100
3, 45500, Note_off_c, 1, 29, 100
3, 45600, Note_on_c, 1, 41, 80
3, 45632, Note_on_c, 1, 29, 80
3, 45644, Note_off_c, 1, 41, 100
3, 45664, Note_on_c, 1, 41, 80
3, 45676, Note_off_c, 1, 29, 100
3, 45696, Note_on_c, 1, 29, 80
3, 45708, Note_off_c, 1, 41, 100
3, 45884, Note_off_c, 1, 29, 100
3, 46368, Note_on_c, 1, 41, 80
3, 46400, Note_on_c, 1, 29, 80
3, 46412, Note_off_c, 1, 41, 100
3, 46432, Note_on_c, 1, 41, 80
3, 46444, Note_off_c, 1, 29, 100
3, 46464, Note_on_c, 1, 29, 80
3, 46476, Note_off_c, 1, 41, 100
3, 46652, Note_off_c, 1, 29, 100
3, 46752, Note_on_c, 1, 41, 80
3, 46784, Note_on_c, 1, 29, 80
3, 46796, Note_off_c, 1, 41, 100
3, 46816, Note_on_c, 1, 41, 80
3, 46828, Note_off_c, 1, 29, 100
3, 46848, Note_on_c, 1, 29, 80
3, 46860, Note_off_c, 1, 41, 100
3, 47036, Note_off_c, 1, 29, 100
3, 47520, Note_on_c, 1, 60, 80
3, 47520, Note_on_c, 1, 57, 80
3, 47548, Note_off_c, 1, 60, 100
3, 47548, Note_off_c, 1, 57, 100
3, 47552, Note_on_c, 1, 53, 80
3, 47580, Note_off_c, 1, 53, 100
3, 47584, Note_on_c, 1, 60, 80
3, 47584, Note_on_c, 1, 57, 80
3, 47612, Note_off_c, 1, 60, 100
3, 47612, Note_off_c, 1, 57, 100
3, 47616, Note_on_c, 1, 53, 80
3, 47804, Note_off_c, 1, 53, 100
3, 48384, Note_on_c, 1, 46, 80
3, 48384, Note_on_c, 1, 34, 80
3, 49532, Note_off_c, 1, 46, 100
3, 49532, Note_off_c, 1, 34, 100
3, 49536, Note_on_c, 1, 53, 80
3, 49536, Note_on_c, 1, 50, 80
3, 49536, Note_on_c, 1, 46, 80
3, 50300, Note_off_c, 1, 53, 100
3, 50300, Note_off_c, 1, 50, 100
3, 50300, Note_off_c, 1, 46, 100
3, 50304, Note_on_c, 1, 46, 80
3, 50304, Note_on_c, 1, 34, 80
3, 50684, Note_off_c, 1, 46, 100
3, 50684, Note_off_c, 1, 34, 100
3, 50688, Note_on_c, 1, 48, 80
3, 50688, Note_on_c, 1, 41, 80
3, 50688, Note_on_c, 1, 36, 80
3, 51836, Note_off_c, 1, 48, 100
3, 51836, Note_off_c, 1, 41, 100
3, 51836, Note_off_c, 1, 36, 100
3, 51840, Note_on_c, 1, 63, 80
3, 51840, Note_on_c, 1, 60, 80
3, 51840, Note_on_c, 1, 54, 80
3, 52220, Note_off_c, 1, 54, 100
3, 52224, Note_on_c, 1, 53, 80
3, 52604, Note_off_c, 1, 63, 100
3, 52604, Note_off_c, 1, 60, 100
3, 52604, Note_off_c, 1, 53, 100
3, 52608, Note_on_c, 1, 45, 80
3, 52988, Note_off_c, 1, 45, 100
3, 52992, Note_on_c, 1, 46, 80
3, 52992, Note_on_c, 1, 34, 80
3, 54140, Note_off_c, 1, 46, 100
3, 54140, Note_off_c, 1, 34, 100
3, 54144, Note_on_c, 1, 68, 80
3, 54144, Note_on_c, 1, 65, 80
3, 54144, Note_on_c, 1, 59, 80
3, 54524, Note_off_c, 1, 59, 100
3, 54528, Note_on_c, 1, 58, 80
3, 54908, Note_off_c, 1, 68, 100
3, 54908, Note_off_c, 1, 65, 100
3, 54908, Note_off_c, 1, 58, 100
3, 54912, Note_on_c, 1, 58, 80
3, 54912, Note_on_c, 1, 50, 80
3, 55292, Note_off_c, 1, 58, 100
3, 55292, Note_off_c, 1, 50, 100
3, 55296, Note_on_c, 1, 51, 80
3, 55296, Note_on_c, 1, 58, 80
3, 55484, Note_off_c, 1, 58, 100
3, 55488, Note_on_c, 1, 59, 80
3, 55676, Note_off_c, 1, 59, 100
3, 55680, Note_on_c, 1, 60, 80
3, 55868, Note_off_c, 1, 51, 100
3, 55868, Note_off_c, 1, 60, 100
3, 55872, Note_on_c, 1, 62, 80
3, 55872, Note_on_c, 1, 53, 80
3, 56060, Note_off_c, 1, 62, 100
3, 56060, Note_off_c, 1, 53, 100
3, 56064, Note_on_c, 1, 63, 80
3, 56064, Note_on_c, 1, 55, 80
3, 56252, Note_off_c, 1, 63, 100
3, 56252, Note_off_c, 1, 55, 100
3, 56256, Note_on_c, 1, 64, 80
3, 56256, Note_on_c, 1, 55, 80
3, 56444, Note_off_c, 1, 64, 100
3, 56444, Note_off_c, 1, 55, 100
3, 56448, Note_on_c, 1, 64, 80
3, 56448, Note_on_c, 1, 53, 80
3, 56828, Note_off_c, 1, 64, 100
3, 56832, Note_on_c, 1, 65, 80
3, 57020, Note_off_c, 1, 53, 100
3, 57020, Note_off_c, 1, 65, 100
3, 57600, Note_on_c, 1, 34, 80
3, 57788, Note_off_c, 1, 34, 100
3, 58032, Note_on_c, 1, 82, 80
3, 58080, Note_on_c, 1, 86, 80
3, 58100, Note_off_c, 1, 82, 100
3, 58128, Note_on_c, 1, 82, 80
3, 58144, Note_off_c, 1, 86, 100
3, 58176, Note_on_c, 1, 77, 80
3, 58196, Note_off_c, 1, 82, 100
3, 58224, Note_on_c, 1, 82, 80
3, 58244, Note_off_c, 1, 77, 100
3, 58272, Note_on_c, 1, 74, 80
3, 58296, Note_off_c, 1, 82, 100
3, 58320, Note_on_c, 1, 77, 80
3, 58340, Note_off_c, 1, 74, 100
3, 58368, Note_on_c, 1, 70, 80
3, 58388, Note_off_c, 1, 77, 100
3, 58416, Note_on_c, 1, 74, 80
3, 58432, Note_off_c, 1, 70, 100
3, 58464, Note_on_c, 1, 65, 80
3, 58488, Note_off_c, 1, 74, 100
3, 58512, Note_on_c, 1, 70, 80
3, 58528, Note_off_c, 1, 65, 100
3, 58560, Note_on_c, 1, 62, 80
3, 58576, Note_off_c, 1, 70, 100
3, 58608, Note_on_c, 1, 65, 80
3, 58632, Note_off_c, 1, 62, 100
3, 58656, Note_on_c, 1, 58, 80
3, 58680, Note_off_c, 1, 65, 100
3, 58704, Note_on_c, 1, 62, 80
3, 58728, Note_off_c, 1, 58, 100
3, 58748, Note_off_c, 1, 62, 100
3, 58752, Note_on_c, 1, 53, 80
3, 58800, Note_on_c, 1, 58, 80
3, 58828, Note_off_c, 1, 53, 100
3, 58848, Note_on_c, 1, 50, 80
3, 58884, Note_off_c, 1, 58, 100
3, 58896, Note_on_c, 1, 53, 80
3, 58924, Note_off_c, 1, 50, 100
3, 58944, Note_on_c, 1, 46, 80
3, 58968, Note_off_c, 1, 53, 100
3, 58992, Note_on_c, 1, 50, 80
3, 59012, Note_off_c, 1, 46, 100
3, 59040, Note_on_c, 1, 41, 80
3, 59060, Note_off_c, 1, 50, 100
3, 59088, Note_on_c, 1, 46, 80
3, 59108, Note_off_c, 1, 41, 100
3, 59136, Note_on_c, 1, 38, 80
3, 59156, Note_off_c, 1, 46, 100
3, 59184, Note_on_c, 1, 34, 80
3, 59200, Note_off_c, 1, 38, 100
3, 59232, Note_on_c, 1, 38, 80
3, 59256, Note_off_c, 1, 34, 100
3, 59280, Note_on_c, 1, 41, 80
3, 59308, Note_off_c, 1, 38, 100
3, 59328, Note_on_c, 1, 46, 80
3, 59348, Note_off_c, 1, 41, 100
3, 59376, Note_on_c, 1, 38, 80
3, 59404, Note_off_c, 1, 46, 100
3, 59424, Note_on_c, 1, 41, 80
3, 59448, Note_off_c, 1, 38, 100
3, 59472, Note_on_c, 1, 46, 80
3, 59496, Note_off_c, 1, 41, 100
3, 59520, Note_on_c, 1, 50, 80
3, 59548, Note_off_c, 1, 46, 100
3, 59568, Note_on_c, 1, 46, 80
3, 59600, Note_off_c, 1, 50, 100
3, 59616, Note_on_c, 1, 41, 80
3, 59652, Note_off_c, 1, 46, 100
3, 59664, Note_on_c, 1, 38, 80
3, 59692, Note_off_c, 1, 41, 100
3, 59712, Note_on_c, 1, 46, 80
3, 59736, Note_off_c, 1, 38, 100
3, 59760, Note_on_c, 1, 41, 80
3, 59792, Note_off_c, 1, 46, 100
3, 59808, Note_on_c, 1, 38, 80
3, 59832, Note_off_c, 1, 41, 100
3, 59856, Note_on_c, 1, 34, 80
3, 59888, Note_off_c, 1, 38, 100
3, 59900, Note_off_c, 1, 34, 100
3, 59904, Note_on_c, 1, 29, 80
3, 60092, Note_off_c, 1, 29, 100
3, 60336, Note_on_c, 1, 84, 80
3, 60384, Note_on_c, 1, 87, 80
3, 60420, Note_off_c, 1, 84, 100
3, 60432, Note_on_c, 1, 84, 80
3, 60456, Note_off_c, 1, 87, 100
3, 60480, Note_on_c, 1, 81, 80
3, 60504, Note_off_c, 1, 84, 100
3, 60528, Note_on_c, 1, 84, 80
3, 60556, Note_off_c, 1, 81, 100
3, 60576, Note_on_c, 1, 78, 80
3, 60596, Note_off_c, 1, 84, 100
3, 60624, Note_on_c, 1, 81, 80
3, 60644, Note_off_c, 1, 78, 100
3, 60672, Note_on_c, 1, 75, 80
3, 60692, Note_off_c, 1, 81, 100
3, 60720, Note_on_c, 1, 78, 80
3, 60740, Note_off_c, 1, 75, 100
3, 60768, Note_on_c, 1, 72, 80
3, 60792, Note_off_c, 1, 78, 100
3, 60816, Note_on_c, 1, 75, 80
3, 60840, Note_off_c, 1, 72, 100
3, 60864, Note_on_c, 1, 69, 80
3, 60888, Note_off_c, 1, 75, 100
3, 60912, Note_on_c, 1, 72, 80
3, 60940, Note_off_c, 1, 69, 100
3, 60960, Note_on_c, 1, 66, 80
3, 60988, Note_off_c, 1, 72, 100
3, 61008, Note_on_c, 1, 69, 80
3, 61036, Note_off_c, 1, 66, 100
3, 61056, Note_on_c, 1, 63, 80
3, 61088, Note_off_c, 1, 69, 100
3, 61104, Note_on_c, 1, 66, 80
3, 61128, Note_off_c, 1, 63, 100
3, 61152, Note_on_c, 1, 60, 80
3, 61176, Note_off_c, 1, 66, 100
3, 61200, Note_on_c, 1, 63, 80
3, 61224, Note_off_c, 1, 60, 100
3, 61248, Note_on_c, 1, 57, 80
3, 61264, Note_off_c, 1, 63, 100
3, 61296, Note_on_c, 1, 60, 80
3, 61328, Note_off_c, 1, 57, 100
3, 61344, Note_on_c, 1, 54, 80
3, 61368, Note_off_c, 1, 60, 100
3, 61392, Note_on_c, 1, 57, 80
3, 61416, Note_off_c, 1, 54, 100
3, 61440, Note_on_c, 1, 48, 80
3, 61476, Note_off_c, 1, 57, 100
3, 61488, Note_on_c, 1, 54, 80
3, 61520, Note_off_c, 1, 48, 100
3, 61536, Note_on_c, 1, 51, 80
3, 61564, Note_off_c, 1, 54, 100
3, 61584, Note_on_c, 1, 57, 80
3, 61608, Note_off_c, 1, 51, 100
3, 61632, Note_on_c, 1, 54, 80
3, 61656, Note_off_c, 1, 57, 100
3, 61680, Note_on_c, 1, 60, 80
3, 61708, Note_off_c, 1, 54, 100
3, 61728, Note_on_c, 1, 57, 80
3, 61756, Note_off_c, 1, 60, 100
3, 61776, Note_on_c, 1, 54, 80
3, 61804, Note_off_c, 1, 57, 100
3, 61852, Note_off_c, 1, 54, 100
3, 61872, Note_on_c, 1, 51, 80
3, 61920, Note_on_c, 1, 46, 80
3, 61948, Note_off_c, 1, 51, 100
3, 61968, Note_on_c, 1, 54, 80
3, 62000, Note_off_c, 1, 46, 100
3, 62016, Note_on_c, 1, 51, 80
3, 62044, Note_off_c, 1, 54, 100
3, 62064, Note_on_c, 1, 58, 80
3, 62096, Note_off_c, 1, 51, 100
3, 62112, Note_on_c, 1, 54, 80
3, 62140, Note_off_c, 1, 58, 100
3, 62160, Note_on_c, 1, 51, 80
3, 62180, Note_off_c, 1, 54, 100
3, 62204, Note_off_c, 1, 51, 100
3, 62208, Note_on_c, 1, 45, 80
3, 62396, Note_off_c, 1, 45, 100
3, 62640, Note_on_c, 1, 84, 80
3, 62688, Note_on_c, 1, 87, 80
3, 62724, Note_off_c, 1, 84, 100
3, 62736, Note_on_c, 1, 84, 80
3, 62764, Note_off_c, 1, 87, 100
3, 62784, Note_on_c, 1, 81, 80
3, 62820, Note_off_c, 1, 84, 100
3, 62832, Note_on_c, 1, 84, 80
3, 62852, Note_off_c, 1, 81, 100
3, 62880, Note_on_c, 1, 75, 80
3, 62916, Note_off_c, 1, 84, 100
3, 62928, Note_on_c, 1, 81, 80
3, 62952, Note_off_c, 1, 75, 100
3, 62976, Note_on_c, 1, 72, 80
3, 63000, Note_off_c, 1, 81, 100
3, 63024, Note_on_c, 1, 75, 80
3, 63060, Note_off_c, 1, 72, 100
3, 63072, Note_on_c, 1, 69, 80
3, 63100, Note_off_c, 1, 75, 100
3, 63120, Note_on_c, 1, 72, 80
3, 63144, Note_off_c, 1, 69, 100
3, 63168, Note_on_c, 1, 63, 80
3, 63196, Note_off_c, 1, 72, 100
3, 63216, Note_on_c, 1, 69, 80
3, 63244, Note_off_c, 1, 63, 100
3, 63264, Note_on_c, 1, 60, 80
3, 63292, Note_off_c, 1, 69, 100
3, 63312, Note_on_c, 1, 63, 80
3, 63336, Note_off_c, 1, 60, 100
3, 63360, Note_on_c, 1, 57, 80
3, 63396, Note_off_c, 1, 63, 100
3, 63408, Note_on_c, 1, 60, 80
3, 63436, Note_off_c, 1, 57, 100
3, 63456, Note_on_c, 1, 51, 80
3, 63488, Note_off_c, 1, 60, 100
3, 63504, Note_on_c, 1, 57, 80
3, 63528, Note_off_c, 1, 51, 100
3, 63552, Note_on_c, 1, 48, 80
3, 63576, Note_off_c, 1, 57, 100
3, 63600, Note_on_c, 1, 51, 80
3, 63632, Note_off_c, 1, 48, 100
3, 63648, Note_on_c, 1, 45, 80
3, 63676, Note_off_c, 1, 51, 100
3, 63696, Note_on_c, 1, 48, 80
3, 63716, Note_off_c, 1, 45, 100
3, 63744, Note_on_c, 1, 41, 80
3, 63772, Note_off_c, 1, 48, 100
3, 63792, Note_on_c, 1, 45, 80
3, 63828, Note_off_c, 1, 41, 100
3, 63840, Note_on_c, 1, 36, 80
3, 63860, Note_off_c, 1, 45, 100
3, 63888, Note_on_c, 1, 41, 80
3, 63908, Note_off_c, 1, 36, 100
3, 63936, Note_on_c, 1, 33, 80
3, 63952, Note_off_c, 1, 41, 100
3, 63984, Note_on_c, 1, 36, 80
3, 63996, Note_off_c, 1, 33, 100
3, 64032, Note_on_c, 1, 29, 80
3, 64052, Note_off_c, 1, 36, 100
3, 64080, Note_on_c, 1, 33, 80
3, 64100, Note_off_c, 1, 29, 100
3, 64148, Note_off_c, 1, 33, 100
3, 64176, Note_on_c, 1, 30, 80
3, 64224, Note_on_c, 1, 33, 80
3, 64256, Note_off_c, 1, 30, 100
3, 64272, Note_on_c, 1, 36, 80
3, 64300, Note_off_c, 1, 33, 100
3, 64320, Note_on_c, 1, 42, 80
3, 64352, Note_off_c, 1, 36, 100
3, 64368, Note_on_c, 1, 45, 80
3, 64396, Note_off_c, 1, 42, 100
3, 64416, Note_on_c, 1, 48, 80
3, 64444, Note_off_c, 1, 45, 100
3, 64464, Note_on_c, 1, 54, 100
3, 64484, Note_off_c, 1, 48, 100
3, 64536, Note_off_c, 1, 54, 100
3, 64560, Note_on_c, 1, 31, 100
3, 64608, Note_on_c, 1, 34, 100
3, 64640, Note_off_c, 1, 31, 100
3, 64656, Note_on_c, 1, 38, 100
3, 64692, Note_off_c, 1, 34, 100
3, 64704, Note_on_c, 1, 43, 100
3, 64732, Note_off_c, 1, 38, 100
3, 64752, Note_on_c, 1, 46, 100
3, 64780, Note_off_c, 1, 43, 100
3, 64800, Note_on_c, 1, 50, 100
3, 64824, Note_off_c, 1, 46, 100
3, 64848, Note_on_c, 1, 55, 100
3, 64868, Note_off_c, 1, 50, 100
3, 64920, Note_off_c, 1, 55, 100
3, 64944, Note_on_c, 1, 40, 100
3, 64992, Note_on_c, 1, 43, 100
3, 65016, Note_off_c, 1, 40, 100
3, 65040, Note_on_c, 1, 46, 100
3, 65064, Note_off_c, 1, 43, 100
3, 65088, Note_on_c, 1, 52, 100
3, 65112, Note_off_c, 1, 46, 100
3, 65136, Note_on_c, 1, 55, 100
3, 65176, Note_off_c, 1, 52, 100
3, 65184, Note_on_c, 1, 58, 100
3, 65216, Note_off_c, 1, 55, 100
3, 65232, Note_on_c, 1, 57, 100
3, 65256, Note_off_c, 1, 58, 100
3, 65280, Note_on_c, 1, 61, 100
3, 65304, Note_off_c, 1, 57, 100
3, 65328, Note_on_c, 1, 58, 100
3, 65356, Note_off_c, 1, 61, 100
3, 65376, Note_on_c, 1, 55, 100
3, 65412, Note_off_c, 1, 58, 100
3, 65424, Note_on_c, 1, 52, 100
3, 65452, Note_off_c, 1, 55, 100
3, 65472, Note_on_c, 1, 49, 100
3, 65496, Note_off_c, 1, 52, 100
3, 65520, Note_on_c, 1, 46, 100
3, 65548, Note_off_c, 1, 49, 100
3, 65568, Note_on_c, 1, 43, 100
3, 65596, Note_off_c, 1, 46, 100
3, 65616, Note_on_c, 1, 40, 100
3, 65640, Note_off_c, 1, 43, 100
3, 65700, Note_off_c, 1, 40, 100
3, 65712, Note_on_c, 1, 41, 100
3, 65760, Note_on_c, 1, 46, 100
3, 65784, Note_off_c, 1, 41, 100
3, 65808, Note_on_c, 1, 50, 100
3, 65832, Note_off_c, 1, 46, 100
3, 65856, Note_on_c, 1, 53, 100
3, 65888, Note_off_c, 1, 50, 100
3, 65904, Note_on_c, 1, 50, 100
3, 65932, Note_off_c, 1, 53, 100
3, 65952, Note_on_c, 1, 46, 100
3, 65972, Note_off_c, 1, 50, 100
3, 66000, Note_on_c, 1, 41, 100
3, 66028, Note_off_c, 1, 46, 100
3, 66048, Note_on_c, 1, 41, 100
3, 66076, Note_off_c, 1, 41, 100
3, 66096, Note_on_c, 1, 41, 100
3, 66096, Note_on_c, 1, 46, 100
3, 66120, Note_off_c, 1, 41, 100
3, 66144, Note_on_c, 1, 50, 100
3, 66168, Note_off_c, 1, 41, 100
3, 66168, Note_off_c, 1, 46, 100
3, 66192, Note_on_c, 1, 53, 100
3, 66224, Note_off_c, 1, 50, 100
3, 66240, Note_on_c, 1, 50, 100
3, 66268, Note_off_c, 1, 53, 100
3, 66288, Note_on_c, 1, 46, 100
3, 66308, Note_off_c, 1, 50, 100
3, 66336, Note_on_c, 1, 41, 100
3, 66364, Note_off_c, 1, 46, 100
3, 66412, Note_off_c, 1, 41, 100
3, 66432, Note_on_c, 1, 51, 100
3, 66480, Note_on_c, 1, 48, 100
3, 66504, Note_off_c, 1, 51, 100
3, 66528, Note_on_c, 1, 45, 100
3, 66552, Note_off_c, 1, 48, 100
3, 66576, Note_on_c, 1, 41, 100
3, 66600, Note_off_c, 1, 45, 100
3, 66624, Note_on_c, 1, 39, 100
3, 66648, Note_off_c, 1, 41, 100
3, 66672, Note_on_c, 1, 36, 100
3, 66696, Note_off_c, 1, 39, 100
3, 66720, Note_on_c, 1, 33, 100
3, 66740, Note_off_c, 1, 36, 100
3, 66768, Note_on_c, 1, 29, 100
3, 66792, Note_off_c, 1, 33, 100
3, 66812, Note_off_c, 1, 29, 100
3, 66816, Note_on_c, 1, 34, 100
3, 67004, Note_off_c, 1, 34, 100
3, 67104, Note_on_c, 1, 46, 80
3, 67136, Note_on_c, 1, 34, 80
3, 67148, Note_off_c, 1, 46, 100
3, 67168, Note_on_c, 1, 46, 80
3, 67188, Note_off_c, 1, 34, 100
3, 67200, Note_on_c, 1, 34, 80
3, 67212, Note_off_c, 1, 46, 100
3, 67388, Note_off_c, 1, 34, 100
3, 67488, Note_on_c, 1, 46, 80
3, 67520, Note_on_c, 1, 34, 80
3, 67532, Note_off_c, 1, 46, 100
3, 67552, Note_on_c, 1, 46, 80
3, 67564, Note_off_c, 1, 34, 100
3, 67584, Note_on_c, 1, 34, 80
3, 67596, Note_off_c, 1, 46, 100
3, 67772, Note_off_c, 1, 34, 100
3, 67872, Note_on_c, 1, 46, 80
3, 67904, Note_on_c, 1, 34, 80
3, 67916, Note_off_c, 1, 46, 100
3, 67936, Note_on_c, 1, 46, 80
3, 67952, Note_off_c, 1, 34, 100
3, 67968, Note_on_c, 1, 34, 80
3, 67984, Note_off_c, 1, 46, 100
3, 68156, Note_off_c, 1, 34, 100
3, 69408, Note_on_c, 1, 46, 80
3, 69440, Note_on_c, 1, 34, 80
3, 69452, Note_off_c, 1, 46, 100
3, 69472, Note_on_c, 1, 46, 80
3, 69492, Note_off_c, 1, 34, 100
3, 69504, Note_on_c, 1, 34, 80
3, 69516, Note_off_c, 1, 46, 100
3, 69692, Note_off_c, 1, 34, 100
3, 69792, Note_on_c, 1, 46, 80
3, 69824, Note_on_c, 1, 34, 80
3, 69836, Note_off_c, 1, 46, 100
3, 69856, Note_on_c, 1, 46, 80
3, 69868, Note_off_c, 1, 34, 100
3, 69888, Note_on_c, 1, 34, 80
3, 69900, Note_off_c, 1, 46, 100
3, 70076, Note_off_c, 1, 34, 100
3, 70176, Note_on_c, 1, 46, 80
3, 70208, Note_on_c, 1, 34, 80
3, 70220, Note_off_c, 1, 46, 100
3, 70240, Note_on_c, 1, 46, 80
3, 70256, Note_off_c, 1, 34, 100
3, 70272, Note_on_c, 1, 34, 80
3, 70288, Note_off_c, 1, 46, 100
3, 70460, Note_off_c, 1, 34, 100
3, 71712, Note_on_c, 1, 51, 80
3, 71744, Note_on_c, 1, 39, 80
3, 71760, Note_off_c, 1, 51, 100
3, 71776, Note_on_c, 1, 51, 80
3, 71788, Note_off_c, 1, 39, 100
3, 71808, Note_on_c, 1, 39, 80
3, 71824, Note_off_c, 1, 51, 100
3, 71996, Note_off_c, 1, 39, 100
3, 72096, Note_on_c, 1, 51, 80
3, 72128, Note_on_c, 1, 39, 80
3, 72144, Note_off_c, 1, 51, 100
3, 72160, Note_on_c, 1, 51, 80
3, 72172, Note_off_c, 1, 39, 100
3, 72192, Note_on_c, 1, 39, 80
3, 72208, Note_off_c, 1, 51, 100
3, 72380, Note_off_c, 1, 39, 100
3, 72480, Note_on_c, 1, 51, 80
3, 72512, Note_on_c, 1, 39, 80
3, 72528, Note_off_c, 1, 51, 100
3, 72544, Note_on_c, 1, 51, 80
3, 72556, Note_off_c, 1, 39, 100
3, 72576, Note_on_c, 1, 39, 80
3, 72592, Note_off_c, 1, 51, 100
3, 72764, Note_off_c, 1, 39, 100
3, 74016, Note_on_c, 1, 53, 80
3, 74048, Note_on_c, 1, 41, 80
3, 74064, Note_off_c, 1, 53, 100
3, 74080, Note_on_c, 1, 53, 80
3, 74096, Note_off_c, 1, 41, 100
3, 74112, Note_on_c, 1, 41, 80
3, 74128, Note_off_c, 1, 53, 100
3, 74300, Note_off_c, 1, 41, 100
3, 74400, Note_on_c, 1, 89, 80
3, 74432, Note_on_c, 1, 77, 80
3, 74448, Note_off_c, 1, 89, 100
3, 74464, Note_on_c, 1, 89, 80
3, 74480, Note_off_c, 1, 77, 100
3, 74496, Note_on_c, 1, 77, 80
3, 74512, Note_off_c, 1, 89, 100
3, 74684, Note_off_c, 1, 77, 100
3, 75168, Note_on_c, 1, 53, 80
3, 75200, Note_on_c, 1, 41, 80
3, 75216, Note_off_c, 1, 53, 100
3, 75232, Note_on_c, 1, 53, 80
3, 75248, Note_off_c, 1, 41, 100
3, 75264, Note_on_c, 1, 41, 80
3, 75280, Note_off_c, 1, 53, 100
3, 75452, Note_off_c, 1, 41, 100
3, 75552, Note_on_c, 1, 89, 81
3, 75584, Note_on_c, 1, 77, 81
3, 75600, Note_off_c, 1, 89, 100
3, 75616, Note_on_c, 1, 89, 81
3, 75632, Note_off_c, 1, 77, 100
3, 75648, Note_on_c, 1, 77, 82
3, 75664, Note_off_c, 1, 89, 100
3, 75836, Note_off_c, 1, 77, 100
3, 76320, Note_on_c, 1, 53, 90
3, 76352, Note_on_c, 1, 41, 91
3, 76368, Note_off_c, 1, 53, 100
3, 76384, Note_on_c, 1, 53, 91
3, 76400, Note_off_c, 1, 41, 100
3, 76416, Note_on_c, 1, 41, 91
3, 76432, Note_off_c, 1, 53, 100
3, 76604, Note_off_c, 1, 41, 100
3, 76704, Note_on_c, 1, 89, 95
3, 76736, Note_on_c, 1, 77, 95
3, 76752, Note_off_c, 1, 89, 100
3, 76768, Note_on_c, 1, 89, 96
3, 76784, Note_off_c, 1, 77, 100
3, 76800, Note_on_c, 1, 77, 96
3, 76816, Note_off_c, 1, 89, 100
3, 76988, Note_off_c, 1, 77, 100
3, 77472, Note_on_c, 1, 53, 104
3, 77504, Note_on_c, 1, 41, 105
3, 77520, Note_off_c, 1, 53, 100
3, 77536, Note_on_c, 1, 53, 105
3, 77552, Note_off_c, 1, 41, 100
3, 77568, Note_on_c, 1, 41, 106
3, 77584, Note_off_c, 1, 53, 100
3, 77756, Note_off_c, 1, 41, 100
3, 77856, Note_on_c, 1, 89, 109
3, 77888, Note_on_c, 1, 77, 110
3, 77904, Note_off_c, 1, 89, 100
3, 77920, Note_on_c, 1, 89, 110
3, 77936, Note_off_c, 1, 77, 100
3, 77952, Note_on_c, 1, 77, 110
3, 77968, Note_off_c, 1, 89, 100
3, 78140, Note_off_c, 1, 77, 100
3, 78240, Note_on_c, 1, 89, 102
3, 78272, Note_on_c, 1, 77, 99
3, 78288, Note_off_c, 1, 89, 100
3, 78304, Note_on_c, 1, 89, 96
3, 78320, Note_off_c, 1, 77, 100
3, 78332, Note_off_c, 1, 89, 100
3, 78624, Note_on_c, 1, 53, 80
3, 78668, Note_off_c, 1, 53, 100
3, 78672, Note_on_c, 1, 41, 80
3, 78716, Note_off_c, 1, 41, 100
3, 78720, Note_on_c, 1, 53, 80
3, 78908, Note_off_c, 1, 53, 100
3, 79008, Note_on_c, 1, 89, 80
3, 79052, Note_off_c, 1, 89, 100
3, 79056, Note_on_c, 1, 77, 80
3, 79100, Note_off_c, 1, 77, 100
3, 79104, Note_on_c, 1, 89, 80
3, 79292, Note_off_c, 1, 89, 100
3, 79776, Note_on_c, 1, 53, 80
3, 79820, Note_off_c, 1, 53, 100
3, 79824, Note_on_c, 1, 41, 80
3, 79868, Note_off_c, 1, 41, 100
3, 79872, Note_on_c, 1, 53, 80
3, 80060, Note_off_c, 1, 53, 100
3, 80160, Note_on_c, 1, 89, 80
3, 80204, Note_off_c, 1, 89, 100
3, 80208, Note_on_c, 1, 77, 80
3, 80252, Note_off_c, 1, 77, 100
3, 80256, Note_on_c, 1, 89, 80
3, 80444, Note_off_c, 1, 89, 100
3, 80928, Note_on_c, 1, 53, 80
3, 80972, Note_off_c, 1, 53, 100
3, 80976, Note_on_c, 1, 41, 80
3, 81020, Note_off_c, 1, 41, 100
3, 81024, Note_on_c, 1, 53, 80
3, 81212, Note_off_c, 1, 53, 100
3, 81312, Note_on_c, 1, 53, 80
3, 81356, Note_off_c, 1, 53, 100
3, 81360, Note_on_c, 1, 41, 80
3, 81404, Note_off_c, 1, 41, 100
3, 81408, Note_on_c, 1, 53, 80
3, 81596, Note_off_c, 1, 53, 100
3, 81696, Note_on_c, 1, 53, 80
3, 81740, Note_off_c, 1, 53, 100
3, 81744, Note_on_c, 1, 41, 80
3, 81788, Note_off_c, 1, 41, 100
3, 81792, Note_on_c, 1, 53, 80
3, 81980, Note_off_c, 1, 53, 100
3, 81984, Note_on_c, 1, 65, 80
3, 82172, Note_off_c, 1, 65, 100
3, 82176, Note_on_c, 1, 64, 80
3, 82364, Note_off_c, 1, 64, 100
3, 82368, Note_on_c, 1, 63, 80
3, 82368, Note_on_c, 1, 65, 80
3, 82556, Note_off_c, 1, 63, 100
3, 82560, Note_on_c, 1, 62, 80
3, 82748, Note_off_c, 1, 65, 100
3, 82748, Note_off_c, 1, 62, 100
3, 82752, Note_on_c, 1, 60, 80
3, 82752, Note_on_c, 1, 63, 80
3, 82940, Note_off_c, 1, 60, 100
3, 82940, Note_off_c, 1, 63, 100
3, 82944, Note_on_c, 1, 46, 80
3, 83132, Note_off_c, 1, 46, 100
3, 83136, Note_on_c, 1, 58, 80
3, 83324, Note_off_c, 1, 58, 100
3, 83328, Note_on_c, 1, 62, 80
3, 83328, Note_on_c, 1, 65, 80
3, 83516, Note_off_c, 1, 62, 100
3, 83516, Note_off_c, 1, 65, 100
3, 83520, Note_on_c, 1, 58, 80
3, 83708, Note_off_c, 1, 58, 100
3, 83712, Note_on_c, 1, 63, 80
3, 83712, Note_on_c, 1, 67, 80
3, 83900, Note_off_c, 1, 63, 100
3, 83900, Note_off_c, 1, 67, 100
3, 83904, Note_on_c, 1, 58, 80
3, 84092, Note_off_c, 1, 58, 100
3, 84096, Note_on_c, 1, 62, 80
3, 84096, Note_on_c, 1, 65, 80
3, 84284, Note_off_c, 1, 62, 100
3, 84284, Note_off_c, 1, 65, 100
3, 84288, Note_on_c, 1, 58, 80
3, 84476, Note_off_c, 1, 58, 100
3, 84480, Note_on_c, 1, 62, 80
3, 84480, Note_on_c, 1, 65, 80
3, 84668, Note_off_c, 1, 62, 100
3, 84668, Note_off_c, 1, 65, 100
3, 84672, Note_on_c, 1, 58, 80
3, 84860, Note_off_c, 1, 58, 100
3, 84864, Note_on_c, 1, 55, 80
3, 85052, Note_off_c, 1, 55, 100
3, 85056, Note_on_c, 1, 51, 80
3, 85244, Note_off_c, 1, 51, 100
3, 85248, Note_on_c, 1, 41, 80
3, 85436, Note_off_c, 1, 41, 100
3, 85440, Note_on_c, 1, 53, 80
3, 85628, Note_off_c, 1, 53, 100
3, 85632, Note_on_c, 1, 58, 80
3, 85632, Note_on_c, 1, 62, 80
3, 85820, Note_off_c, 1, 58, 100
3, 85820, Note_off_c, 1, 62, 100
3, 85824, Note_on_c, 1, 53, 80
3, 86012, Note_off_c, 1, 53, 100
3, 86016, Note_on_c, 1, 57, 80
3, 86016, Note_on_c, 1, 60, 80
3, 86204, Note_off_c, 1, 57, 100
3, 86204, Note_off_c, 1, 60, 100
3, 86208, Note_on_c, 1, 53, 80
3, 86396, Note_off_c, 1, 53, 100
3, 86400, Note_on_c, 1, 46, 80
3, 86400, Note_on_c, 1, 57, 80
3, 86588, Note_off_c, 1, 57, 100
3, 86592, Note_on_c, 1, 53, 80
3, 86780, Note_off_c, 1, 53, 100
3, 86784, Note_on_c, 1, 58, 80
3, 86972, Note_off_c, 1, 46, 100
3, 86972, Note_off_c, 1, 58, 100
3, 86976, Note_on_c, 1, 50, 80
3, 87164, Note_off_c, 1, 50, 100
3, 87168, Note_on_c, 1, 51, 80
3, 87356, Note_off_c, 1, 51, 100
3, 87360, Note_on_c, 1, 48, 80
3, 87548, Note_off_c, 1, 48, 100
3, 87552, Note_on_c, 1, 46, 80
3, 87740, Note_off_c, 1, 46, 100
3, 87744, Note_on_c, 1, 58, 80
3, 87932, Note_off_c, 1, 58, 100
3, 87936, Note_on_c, 1, 62, 80
3, 87936, Note_on_c, 1, 65, 80
3, 88124, Note_off_c, 1, 62, 100
3, 88124, Note_off_c, 1, 65, 100
3, 88128, Note_on_c, 1, 58, 80
3, 88316, Note_off_c, 1, 58, 100
3, 88320, Note_on_c, 1, 63, 80
3, 88320, Note_on_c, 1, 67, 80
3, 88508, Note_off_c, 1, 63, 100
3, 88508, Note_off_c, 1, 67, 100
3, 88512, Note_on_c, 1, 58, 80
3, 88700, Note_off_c, 1, 58, 100
3, 88704, Note_on_c, 1, 62, 80
3, 88704, Note_on_c, 1, 65, 80
3, 88892, Note_off_c, 1, 62, 100
3, 88892, Note_off_c, 1, 65, 100
3, 88896, Note_on_c, 1, 58, 80
3, 89084, Note_off_c, 1, 58, 100
3, 89088, Note_on_c, 1, 62, 80
3, 89088, Note_on_c, 1, 65, 80
3, 89276, Note_off_c, 1, 62, 100
3, 89276, Note_off_c, 1, 65, 100
3, 89280, Note_on_c, 1, 58, 80
3, 89468, Note_off_c, 1, 58, 100
3, 89472, Note_on_c, 1, 55, 80
3, 89660, Note_off_c, 1, 55, 100
3, 89664, Note_on_c, 1, 51, 80
3, 89852, Note_off_c, 1, 51, 100
3, 89856, Note_on_c, 1, 53, 80
3, 90620, Note_off_c, 1, 53, 100
3, 90624, Note_on_c, 1, 41, 80
3, 90624, Note_on_c, 1, 29, 80
3, 91004, Note_off_c, 1, 41, 100
3, 91004, Note_off_c, 1, 29, 100
3, 91008, Note_on_c, 1, 34, 80
3, 91196, Note_off_c, 1, 34, 100
3, 91296, Note_on_c, 1, 46, 80
3, 91328, Note_on_c, 1, 34, 80
3, 91340, Note_off_c, 1, 46, 100
3, 91360, Note_on_c, 1, 46, 80
3, 91380, Note_off_c, 1, 34, 100
3, 91392, Note_on_c, 1, 34, 80
3, 91404, Note_off_c, 1, 46, 100
3, 91580, Note_off_c, 1, 34, 100
3, 91680, Note_on_c, 1, 46, 80
3, 91712, Note_on_c, 1, 34, 80
3, 91724, Note_off_c, 1, 46, 100
3, 91744, Note_on_c, 1, 46, 80
3, 91756, Note_off_c, 1, 34, 100
3, 91776, Note_on_c, 1, 34, 80
3, 91788, Note_off_c, 1, 46, 100
3, 91964, Note_off_c, 1, 34, 100
3, 92448, Note_on_c, 1, 46, 82
3, 92480, Note_on_c, 1, 34, 82
3, 92492, Note_off_c, 1, 46, 100
3, 92512, Note_on_c, 1, 46, 83
3, 92532, Note_off_c, 1, 34, 100
3, 92544, Note_on_c, 1, 34, 83
3, 92556, Note_off_c, 1, 46, 100
3, 92732, Note_off_c, 1, 34, 100
3, 92832, Note_on_c, 1, 46, 86
3, 92864, Note_on_c, 1, 34, 86
3, 92876, Note_off_c, 1, 46, 100
3, 92896, Note_on_c, 1, 46, 86
3, 92908, Note_off_c, 1, 34, 100
3, 92928, Note_on_c, 1, 34, 87
3, 92940, Note_off_c, 1, 46, 100
3, 93116, Note_off_c, 1, 34, 100
3, 93600, Note_on_c, 1, 46, 93
3, 93632, Note_on_c, 1, 34, 93
3, 93644, Note_off_c, 1, 46, 100
3, 93664, Note_on_c, 1, 46, 93
3, 93684, Note_off_c, 1, 34, 100
3, 93696, Note_on_c, 1, 34, 94
3, 93708, Note_off_c, 1, 46, 100
3, 93884, Note_off_c, 1, 34, 100
3, 93984, Note_on_c, 1, 46, 96
3, 94016, Note_on_c, 1, 34, 96
3, 94028, Note_off_c, 1, 46, 100
3, 94048, Note_on_c, 1, 46, 97
3, 94060, Note_off_c, 1, 34, 100
3, 94080, Note_on_c, 1, 34, 97
3, 94092, Note_off_c, 1, 46, 100
3, 94268, Note_off_c, 1, 34, 100
3, 94752, Note_on_c, 1, 46, 103
3, 94784, Note_on_c, 1, 34, 103
3, 94796, Note_off_c, 1, 46, 100
3, 94816, Note_on_c, 1, 46, 104
3, 94836, Note_off_c, 1, 34, 100
3, 94848, Note_on_c, 1, 34, 104
3, 94860, Note_off_c, 1, 46, 100
3, 95036, Note_off_c, 1, 34, 100
3, 95136, Note_on_c, 1, 46, 107
3, 95168, Note_on_c, 1, 34, 107
3, 95180, Note_off_c, 1, 46, 100
3, 95200, Note_on_c, 1, 46, 107
3, 95212, Note_off_c, 1, 34, 100
3, 95232, Note_on_c, 1, 34, 108
3, 95244, Note_off_c, 1, 46, 100
3, 95420, Note_off_c, 1, 34, 100
3, 95520, Note_on_c, 1, 46, 110
3, 95552, Note_on_c, 1, 34, 110
3, 95564, Note_off_c, 1, 46, 100
3, 95584, Note_on_c, 1, 46, 110
3, 95604, Note_off_c, 1, 34, 100
3, 95616, Note_on_c, 1, 34, 110
3, 95628, Note_off_c, 1, 46, 100
3, 95804, Note_off_c, 1, 34, 100
3, 95904, Note_on_c, 1, 56, 104
3, 95936, Note_on_c, 1, 46, 103
3, 95948, Note_off_c, 1, 56, 100
3, 95968, Note_on_c, 1, 56, 103
3, 95988, Note_off_c, 1, 46, 100
3, 96000, Note_on_c, 1, 46, 102
3, 96012, Note_off_c, 1, 56, 100
3, 96188, Note_off_c, 1, 46, 100
3, 96288, Note_on_c, 1, 56, 96
3, 96320, Note_on_c, 1, 46, 96
3, 96332, Note_off_c, 1, 56, 100
3, 96352, Note_on_c, 1, 56, 95
3, 96364, Note_off_c, 1, 46, 100
3, 96384, Note_on_c, 1, 46, 94
3, 96396, Note_off_c, 1, 56, 100
3, 96572, Note_off_c, 1, 46, 100
3, 97056, Note_on_c, 1, 46, 82
3, 97088, Note_on_c, 1, 34, 83
3, 97100, Note_off_c, 1, 46, 100
3, 97120, Note_on_c, 1, 46, 83
3, 97140, Note_off_c, 1, 34, 100
3, 97152, Note_on_c, 1, 34, 83
3, 97164, Note_off_c, 1, 46, 100
3, 97340, Note_off_c, 1, 34, 100
3, 97440, Note_on_c, 1, 46, 86
3, 97472, Note_on_c, 1, 34, 86
3, 97484, Note_off_c, 1, 46, 100
3, 97504, Note_on_c, 1, 46, 86
3, 97516, Note_off_c, 1, 34, 100
3, 97536, Note_on_c, 1, 34, 87
3, 97548, Note_off_c, 1, 46, 100
3, 97724, Note_off_c, 1, 34, 100
3, 98208, Note_on_c, 1, 58, 93
3, 98240, Note_on_c, 1, 46, 93
3, 98252, Note_off_c, 1, 58, 100
3, 98272, Note_on_c, 1, 58, 94
3, 98292, Note_off_c, 1, 46, 100
3, 98304, Note_on_c, 1, 46, 94
3, 98316, Note_off_c, 1, 58, 100
3, 98492, Note_off_c, 1, 46, 100
3, 98592, Note_on_c, 1, 58, 97
3, 98624, Note_on_c, 1, 46, 97
3, 98636, Note_off_c, 1, 58, 100
3, 98656, Note_on_c, 1, 58, 97
3, 98668, Note_off_c, 1, 46, 100
3, 98688, Note_on_c, 1, 46, 98
3, 98700, Note_off_c, 1, 58, 100
3, 98876, Note_off_c, 1, 46, 100
3, 99360, Note_on_c, 1, 46, 104
3, 99392, Note_on_c, 1, 34, 104
3, 99404, Note_off_c, 1, 46, 100
3, 99424, Note_on_c, 1, 46, 105
3, 99444, Note_off_c, 1, 34, 100
3, 99456, Note_on_c, 1, 34, 105
3, 99468, Note_off_c, 1, 46, 100
3, 99644, Note_off_c, 1, 34, 100
3, 99744, Note_on_c, 1, 46, 108
3, 99776, Note_on_c, 1, 34, 108
3, 99788, Note_off_c, 1, 46, 100
3, 99808, Note_on_c, 1, 46, 108
3, 99820, Note_off_c, 1, 34, 100
3, 99840, Note_on_c, 1, 34, 109
3, 99852, Note_off_c, 1, 46, 100
3, 100028, Note_off_c, 1, 34, 100
3, 100512, Note_on_c, 1, 58, 108
3, 100544, Note_on_c, 1, 46, 107
3, 100556, Note_off_c, 1, 58, 100
3, 100576, Note_on_c, 1, 58, 107
3, 100596, Note_off_c, 1, 46, 100
3, 100608, Note_on_c, 1, 46, 106
3, 100620, Note_off_c, 1, 58, 100
3, 100796, Note_off_c, 1, 46, 100
3, 100896, Note_on_c, 1, 58, 102
3, 100928, Note_on_c, 1, 46, 102
3, 100940, Note_off_c, 1, 58, 100
3, 100960, Note_on_c, 1, 58, 101
3, 100972, Note_off_c, 1, 46, 100
3, 100992, Note_on_c, 1, 46, 101
3, 101004, Note_off_c, 1, 58, 100
3, 101180, Note_off_c, 1, 46, 100
3, 101280, Note_on_c, 1, 58, 97
3, 101312, Note_on_c, 1, 46, 97
3, 101324, Note_off_c, 1, 58, 100
3, 101344, Note_on_c, 1, 58, 96
3, 101364, Note_off_c, 1, 46, 100
3, 101372, Note_off_c, 1, 58, 100
3, 101376, Note_on_c, 1, 46, 96
3, 101376, Note_on_c, 1, 50, 96
3, 101712, Note_on_c, 1, 48, 91
3, 101712, Note_on_c, 1, 51, 91
3, 101756, Note_off_c, 1, 50, 100
3, 101756, Note_off_c, 1, 48, 100
3, 101756, Note_off_c, 1, 51, 100
3, 101760, Note_on_c, 1, 53, 91
3, 101760, Note_on_c, 1, 50, 91
3, 102140, Note_off_c, 1, 53, 100
3, 102140, Note_off_c, 1, 50, 100
3, 102144, Note_on_c, 1, 51, 80
3, 102144, Note_on_c, 1, 48, 80
3, 102524, Note_off_c, 1, 46, 100
3, 102524, Note_off_c, 1, 51, 100
3, 102524, Note_off_c, 1, 48, 100
3, 102528, Note_on_c, 1, 50, 80
3, 102528, Note_on_c, 1, 46, 80
3, 102716, Note_off_c, 1, 50, 100
3, 102716, Note_off_c, 1, 46, 100
3, 103344, Note_on_c, 1, 53, 80
3, 103388, Note_off_c, 1, 53, 100
3, 103392, Note_on_c, 1, 52, 80
3, 103436, Note_off_c, 1, 52, 100
3, 103440, Note_on_c, 1, 53, 80
3, 103484, Note_off_c, 1, 53, 100
3, 103488, Note_on_c, 1, 55, 80
3, 103532, Note_off_c, 1, 55, 100
3, 103536, Note_on_c, 1, 57, 80
3, 103580, Note_off_c, 1, 57, 100
3, 103584, Note_on_c, 1, 58, 80
3, 103628, Note_off_c, 1, 58, 100
3, 103632, Note_on_c, 1, 60, 80
3, 103676, Note_off_c, 1, 60, 100
3, 103680, Note_on_c, 1, 62, 80
3, 103680, Note_on_c, 1, 58, 80
3, 104016, Note_on_c, 1, 63, 80
3, 104016, Note_on_c, 1, 60, 80
3, 104060, Note_off_c, 1, 62, 100
3, 104060, Note_off_c, 1, 58, 100
3, 104060, Note_off_c, 1, 63, 100
3, 104060, Note_off_c, 1, 60, 100
3, 104064, Note_on_c, 1, 65, 80
3, 104064, Note_on_c, 1, 62, 80
3, 104444, Note_off_c, 1, 65, 100
3, 104444, Note_off_c, 1, 62, 100
3, 104448, Note_on_c, 1, 34, 80
3, 104828, Note_off_c, 1, 34, 100
3, 104832, Note_on_c, 1, 33, 80
3, 105980, Note_off_c, 1, 33, 100
3, 106752, Note_on_c, 1, 58, 110
3, 106752, Note_on_c, 1, 63, 110
3, 106752, Note_on_c, 1, 60, 110
3, 107132, Note_off_c, 1, 58, 100
3, 107136, Note_on_c, 1, 57, 110
3, 108284, Note_off_c, 1, 60, 100
3, 108284, Note_off_c, 1, 63, 100
3, 108284, Note_off_c, 1, 57, 100
3, 109056, Note_on_c, 1, 63, 110
3, 109056, Note_on_c, 1, 60, 110
3, 109056, Note_on_c, 1, 54, 110
3, 109436, Note_off_c, 1, 63, 100
3, 109436, Note_off_c, 1, 60, 100
3, 109436, Note_off_c, 1, 54, 100
3, 109440, Note_on_c, 1, 62, 110
3, 109440, Note_on_c, 1, 58, 110
3, 109440, Note_on_c, 1, 55, 110
3, 109628, Note_off_c, 1, 62, 100
3, 109628, Note_off_c, 1, 58, 100
3, 109628, Note_off_c, 1, 55, 100
3, 110016, Note_on_c, 1, 61, 110
3, 110016, Note_on_c, 1, 58, 110
3, 110016, Note_on_c, 1, 52, 110
3, 110204, Note_off_c, 1, 61, 100
3, 110204, Note_off_c, 1, 58, 100
3, 110204, Note_off_c, 1, 52, 100
3, 110784, Note_on_c, 1, 62, 80
3, 110784, Note_on_c, 1, 58, 80
3, 110784, Note_on_c, 1, 53, 80
3, 110972, Note_off_c, 1, 62, 100
3, 110972, Note_off_c, 1, 58, 100
3, 110972, Note_off_c, 1, 53, 100
3, 111168, Note_on_c, 1, 41, 80
3, 111168, Note_on_c, 1, 29, 80
3, 111356, Note_off_c, 1, 41, 100
3, 111356, Note_off_c, 1, 29, 100
3, 111552, Note_on_c, 1, 53, 80
3, 111552, Note_on_c, 1, 41, 80
3, 111740, Note_off_c, 1, 53, 100
3, 111740, Note_off_c, 1, 41, 100
3, 111744, Note_on_c, 1, 46, 80
3, 111744, Note_on_c, 1, 34, 80
3, 112892, Note_off_c, 1, 46, 100
3, 112892, Note_off_c, 1, 34, 100
3, 112896, Note_on_c, 1, 46, 80
3, 112896, Note_on_c, 1, 34, 80
3, 114044, Note_off_c, 1, 46, 100
3, 114044, Note_off_c, 1, 34, 100
3, 114048, Note_on_c, 1, 46, 80
3, 114240, Note_on_c, 1, 65, 80
3, 114428, Note_off_c, 1, 65, 100
3, 114432, Note_on_c, 1, 62, 80
3, 114620, Note_off_c, 1, 62, 100
3, 114624, Note_on_c, 1, 59, 80
3, 114812, Note_off_c, 1, 59, 100
3, 114816, Note_on_c, 1, 58, 80
3, 115004, Note_off_c, 1, 58, 100
3, 115008, Note_on_c, 1, 56, 81
3, 115196, Note_off_c, 1, 46, 100
3, 115196, Note_off_c, 1, 56, 100
3, 115200, Note_on_c, 1, 55, 82
3, 115200, Note_on_c, 1, 46, 82
3, 115388, Note_off_c, 1, 55, 100
3, 115392, Note_on_c, 1, 58, 84
3, 115580, Note_off_c, 1, 58, 100
3, 115584, Note_on_c, 1, 51, 85
3, 115772, Note_off_c, 1, 51, 100
3, 115776, Note_on_c, 1, 55, 87
3, 115964, Note_off_c, 1, 55, 100
3, 115968, Note_on_c, 1, 48, 88
3, 116156, Note_off_c, 1, 48, 100
3, 116160, Note_on_c, 1, 53, 89
3, 116252, Note_off_c, 1, 53, 100
3, 116256, Note_on_c, 1, 51, 90
3, 116348, Note_off_c, 1, 46, 100
3, 116348, Note_off_c, 1, 51, 100
3, 116352, Note_on_c, 1, 46, 91
3, 116352, Note_on_c, 1, 50, 91
3, 116540, Note_off_c, 1, 50, 100
3, 116544, Note_on_c, 1, 53, 92
3, 116636, Note_off_c, 1, 53, 100
3, 116640, Note_on_c, 1, 51, 93
3, 116732, Note_off_c, 1, 46, 100
3, 116732, Note_off_c, 1, 51, 100
3, 116736, Note_on_c, 1, 46, 94
3, 116736, Note_on_c, 1, 50, 94
3, 116924, Note_off_c, 1, 50, 100
3, 116928, Note_on_c, 1, 53, 95
3, 117020, Note_off_c, 1, 53, 100
3, 117024, Note_on_c, 1, 51, 96
3, 117116, Note_off_c, 1, 46, 100
3, 117116, Note_off_c, 1, 51, 100
3, 117120, Note_on_c, 1, 46, 97
3, 117120, Note_on_c, 1, 50, 97
3, 117308, Note_off_c, 1, 50, 100
3, 117312, Note_on_c, 1, 53, 98
3, 117404, Note_off_c, 1, 53, 100
3, 117408, Note_on_c, 1, 51, 99
3, 117500, Note_off_c, 1, 46, 100
3, 117500, Note_off_c, 1, 51, 100
3, 117504, Note_on_c, 1, 50, 99
3, 117504, Note_on_c, 1, 46, 99
3, 117692, Note_off_c, 1, 50, 100
3, 117692, Note_off_c, 1, 46, 100
3, 118464, Note_on_c, 1, 34, 80
3, 118652, Note_off_c, 1, 34, 100
3, 118652, End_track
0, 0, End_of_file
