0, 0, Header, 1, 3, 384
1, 0, Start_track
1, 0, Title_t, "L.v.Beethoven 1mov - Piano Sonata No.18 in Eb Major Op.31-3\000"
1, 0, Copyright_t, "Copyright(C) 1995-2009, Suzuki Software\000"
1, 0, Sequencer_specific, 9, 67, 123, 0, 88, 70, 48, 50, 0, 1
1, 0, Text_t, "XFhd:2000/07/16:JP:Classical::::L.v.Beethoven:::Kaoru Suzuki\000"
1, 0, Text_t, "XFln:JP:\203s\203A\203m\203\\\203i\203^\221æ18\224Ô\225Ï\203z\222·\222²\215ì\225i31-3\201`\221æ1\212y\217Í:L.v.\203x\201[\203g\201[\203\224\203F\203\223:::\227é\202¿\202á\202ñ:\227é\202¿\202á\202ñ\000"
1, 0, Time_signature, 3, 2, 96, 8
1, 0, Sequencer_specific, 3, 0, 0, 65
1, 0, Sequencer_specific, 5, 0, 0, 119, 14, 0
1, 0, Tempo, 666666
1, 2304, Tempo, 600000
1, 4608, Tempo, 666666
1, 5376, Tempo, 800000
1, 5760, Tempo, 1000000
1, 6912, Tempo, 500000
1, 14976, Tempo, 545454
1, 15744, Tempo, 600000
1, 17280, Tempo, 461538
1, 18432, Tempo, 428571
1, 36096, Tempo, 521739
1, 36672, Tempo, 666666
1, 37056, Tempo, 428571
1, 93696, Tempo, 461538
1, 94080, Tempo, 500000
1, 94272, Tempo, 600000
1, 94464, Tempo, 500000
1, 100608, Tempo, 571428
1, 103680, Tempo, 600000
1, 105984, Tempo, 666666
1, 106752, Tempo, 800000
1, 107136, Tempo, 1000000
1, 108288, Tempo, 500000
1, 116352, Tempo, 545454
1, 117120, Tempo, 600000
1, 118656, Tempo, 461538
1, 119808, Tempo, 428571
1, 137472, Tempo, 521739
1, 138048, Tempo, 666666
1, 138432, Tempo, 428571
1, 195072, Tempo, 461538
1, 195456, Tempo, 500000
1, 195648, Tempo, 600000
1, 198144, Tempo, 461538
1, 201984, Tempo, 571428
1, 206208, Tempo, 600000
1, 208512, Tempo, 631578
1, 211200, Tempo, 428571
1, 256896, Tempo, 461538
1, 257280, Tempo, 500000
1, 257664, Tempo, 545454
1, 257856, Tempo, 600000
1, 258048, Tempo, 545454
1, 263040, Tempo, 666666
1, 263424, Tempo, 800000
1, 263808, Tempo, 722891
1, 264960, Tempo, 535714
1, 273408, Tempo, 600000
1, 273792, Tempo, 750000
1, 275328, Tempo, 500000
1, 276480, Tempo, 428571
1, 293760, Tempo, 461538
1, 294528, Tempo, 500000
1, 295296, Tempo, 600000
1, 296064, Tempo, 428571
1, 346368, Tempo, 500000
1, 349056, Tempo, 444444
1, 350976, Tempo, 521739
1, 362496, Tempo, 500000
1, 365952, Tempo, 600000
1, 366336, Tempo, 545454
1, 367872, Tempo, 631578
1, 368256, Tempo, 705882
1, 369792, Tempo, 461538
1, 378240, Tempo, 521739
1, 378624, Tempo, 600000
1, 380160, Tempo, 461538
1, 390528, Tempo, 480000
1, 390912, Tempo, 600000
1, 391296, Tempo, 666666
1, 391296, End_track
2, 0, Start_track
2, 0, Title_t, "Right"
2, 0, Control_c, 0, 0, 0
2, 0, Program_c, 0, 0
2, 0, Control_c, 0, 7, 100
2, 0, Control_c, 0, 10, 74
2, 0, Control_c, 0, 91, 127
2, 0, Key_signature, -3, "major"
2, 0, Note_on_c, 0, 72, 80
2, 0, Note_on_c, 0, 63, 80
2, 0, Note_on_c, 0, 60, 80
2, 284, Note_off_c, 0, 72, 100
2, 288, Note_on_c, 0, 65, 80
2, 380, Note_off_c, 0, 65, 100
2, 384, Note_on_c, 0, 65, 80
2, 764, Note_off_c, 0, 63, 100
2, 764, Note_off_c, 0, 60, 100
2, 764, Note_off_c, 0, 65, 100
2, 1152, Note_on_c, 0, 72, 80
2, 1152, Note_on_c, 0, 63, 80
2, 1152, Note_on_c, 0, 60, 80
2, 1436, Note_off_c, 0, 72, 100
2, 1440, Note_on_c, 0, 65, 80
2, 1532, Note_off_c, 0, 65, 100
2, 1536, Note_on_c, 0, 65, 80
2, 1916, Note_off_c, 0, 63, 100
2, 1916, Note_off_c, 0, 60, 100
2, 1916, Note_off_c, 0, 65, 100
2, 2304, Note_on_c, 0, 65, 80
2, 2304, Note_on_c, 0, 63, 80
2, 2304, Note_on_c, 0, 60, 80
2, 2684, Note_off_c, 0, 65, 100
2, 2684, Note_off_c, 0, 63, 100
2, 2684, Note_off_c, 0, 60, 100
2, 2688, Note_on_c, 0, 65, 83
2, 2688, Note_on_c, 0, 63, 83
2, 2688, Note_on_c, 0, 60, 83
2, 3068, Note_off_c, 0, 65, 100
2, 3068, Note_off_c, 0, 63, 100
2, 3068, Note_off_c, 0, 60, 100
2, 3072, Note_on_c, 0, 65, 86
2, 3072, Note_on_c, 0, 63, 86
2, 3072, Note_on_c, 0, 60, 86
2, 3452, Note_off_c, 0, 65, 100
2, 3452, Note_off_c, 0, 63, 100
2, 3452, Note_off_c, 0, 60, 100
2, 3456, Note_on_c, 0, 66, 89
2, 3456, Note_on_c, 0, 63, 89
2, 3456, Note_on_c, 0, 60, 89
2, 4604, Note_off_c, 0, 66, 100
2, 4604, Note_off_c, 0, 63, 100
2, 4604, Note_off_c, 0, 60, 100
2, 4608, Note_on_c, 0, 66, 99
2, 4608, Note_on_c, 0, 63, 99
2, 4608, Note_on_c, 0, 60, 99
2, 4988, Note_off_c, 0, 66, 100
2, 4988, Note_off_c, 0, 63, 100
2, 4988, Note_off_c, 0, 60, 100
2, 4992, Note_on_c, 0, 66, 103
2, 4992, Note_on_c, 0, 63, 103
2, 4992, Note_on_c, 0, 60, 103
2, 5372, Note_off_c, 0, 66, 100
2, 5372, Note_off_c, 0, 63, 100
2, 5372, Note_off_c, 0, 60, 100
2, 5376, Note_on_c, 0, 66, 106
2, 5376, Note_on_c, 0, 63, 106
2, 5376, Note_on_c, 0, 60, 106
2, 5756, Note_off_c, 0, 66, 100
2, 5756, Note_off_c, 0, 63, 100
2, 5756, Note_off_c, 0, 60, 100
2, 5760, Note_on_c, 0, 67, 109
2, 5760, Note_on_c, 0, 63, 109
2, 5760, Note_on_c, 0, 58, 109
2, 6908, Note_off_c, 0, 67, 100
2, 6908, Note_off_c, 0, 63, 100
2, 6908, Note_off_c, 0, 58, 100
2, 6912, Note_on_c, 0, 62, 80
2, 6912, Note_on_c, 0, 56, 80
2, 6912, Note_on_c, 0, 67, 80
2, 7100, Note_off_c, 0, 67, 100
2, 7104, Note_on_c, 0, 65, 80
2, 7292, Note_off_c, 0, 62, 100
2, 7292, Note_off_c, 0, 56, 100
2, 7292, Note_off_c, 0, 65, 100
2, 7296, Note_on_c, 0, 62, 80
2, 7296, Note_on_c, 0, 56, 80
2, 7296, Note_on_c, 0, 65, 80
2, 7388, Note_off_c, 0, 65, 100
2, 7392, Note_on_c, 0, 67, 80
2, 7484, Note_off_c, 0, 67, 100
2, 7488, Note_on_c, 0, 65, 80
2, 7580, Note_off_c, 0, 65, 100
2, 7584, Note_on_c, 0, 64, 80
2, 7676, Note_off_c, 0, 62, 100
2, 7676, Note_off_c, 0, 56, 100
2, 7676, Note_off_c, 0, 64, 100
2, 7680, Note_on_c, 0, 62, 80
2, 7680, Note_on_c, 0, 56, 80
2, 7680, Note_on_c, 0, 65, 80
2, 7868, Note_off_c, 0, 65, 100
2, 7872, Note_on_c, 0, 67, 80
2, 8060, Note_off_c, 0, 62, 100
2, 8060, Note_off_c, 0, 56, 100
2, 8060, Note_off_c, 0, 67, 100
2, 8064, Note_on_c, 0, 63, 80
2, 8064, Note_on_c, 0, 55, 80
2, 8156, Note_off_c, 0, 63, 100
2, 8156, Note_off_c, 0, 55, 100
2, 8160, Note_on_c, 0, 65, 80
2, 8252, Note_off_c, 0, 65, 100
2, 8256, Note_on_c, 0, 63, 80
2, 8348, Note_off_c, 0, 63, 100
2, 8352, Note_on_c, 0, 62, 80
2, 8444, Note_off_c, 0, 62, 100
2, 8448, Note_on_c, 0, 63, 80
2, 8572, Note_off_c, 0, 63, 100
2, 8576, Note_on_c, 0, 65, 80
2, 8700, Note_off_c, 0, 65, 100
2, 8704, Note_on_c, 0, 67, 80
2, 8828, Note_off_c, 0, 67, 100
2, 8832, Note_on_c, 0, 68, 80
2, 8956, Note_off_c, 0, 68, 100
2, 8960, Note_on_c, 0, 70, 80
2, 9084, Note_off_c, 0, 70, 100
2, 9088, Note_on_c, 0, 72, 80
2, 9212, Note_off_c, 0, 72, 100
2, 9216, Note_on_c, 0, 74, 80
2, 9340, Note_off_c, 0, 74, 100
2, 9344, Note_on_c, 0, 75, 80
2, 9468, Note_off_c, 0, 75, 100
2, 9472, Note_on_c, 0, 77, 80
2, 9596, Note_off_c, 0, 77, 100
2, 9600, Note_on_c, 0, 78, 80
2, 9724, Note_off_c, 0, 78, 100
2, 9728, Note_on_c, 0, 79, 80
2, 9852, Note_off_c, 0, 79, 100
2, 9856, Note_on_c, 0, 80, 80
2, 9980, Note_off_c, 0, 80, 100
2, 9984, Note_on_c, 0, 81, 80
2, 10108, Note_off_c, 0, 81, 100
2, 10112, Note_on_c, 0, 82, 80
2, 10236, Note_off_c, 0, 82, 100
2, 10240, Note_on_c, 0, 83, 80
2, 10364, Note_off_c, 0, 83, 100
2, 10368, Note_on_c, 0, 84, 80
2, 10652, Note_off_c, 0, 84, 100
2, 10656, Note_on_c, 0, 77, 80
2, 10748, Note_off_c, 0, 77, 100
2, 10752, Note_on_c, 0, 77, 80
2, 11516, Note_off_c, 0, 77, 100
2, 11520, Note_on_c, 0, 71, 80
2, 11564, Note_off_c, 0, 71, 100
2, 11564, Note_on_c, 0, 72, 80
2, 11800, Note_off_c, 0, 72, 100
2, 11808, Note_on_c, 0, 65, 80
2, 11900, Note_off_c, 0, 65, 100
2, 11904, Note_on_c, 0, 65, 80
2, 12668, Note_off_c, 0, 65, 100
2, 12672, Note_on_c, 0, 53, 80
2, 12672, Note_on_c, 0, 51, 80
2, 12672, Note_on_c, 0, 48, 80
2, 13052, Note_off_c, 0, 53, 100
2, 13052, Note_off_c, 0, 51, 100
2, 13052, Note_off_c, 0, 48, 100
2, 13056, Note_on_c, 0, 53, 83
2, 13056, Note_on_c, 0, 51, 83
2, 13056, Note_on_c, 0, 48, 83
2, 13436, Note_off_c, 0, 53, 100
2, 13436, Note_off_c, 0, 51, 100
2, 13436, Note_off_c, 0, 48, 100
2, 13440, Note_on_c, 0, 53, 86
2, 13440, Note_on_c, 0, 51, 86
2, 13440, Note_on_c, 0, 48, 86
2, 13820, Note_off_c, 0, 53, 100
2, 13820, Note_off_c, 0, 51, 100
2, 13820, Note_off_c, 0, 48, 100
2, 13824, Note_on_c, 0, 54, 90
2, 13824, Note_on_c, 0, 51, 90
2, 13824, Note_on_c, 0, 48, 90
2, 14972, Note_off_c, 0, 54, 100
2, 14972, Note_off_c, 0, 51, 100
2, 14972, Note_off_c, 0, 48, 100
2, 14976, Note_on_c, 0, 78, 100
2, 14976, Note_on_c, 0, 75, 100
2, 14976, Note_on_c, 0, 72, 100
2, 15356, Note_off_c, 0, 78, 100
2, 15356, Note_off_c, 0, 75, 100
2, 15356, Note_off_c, 0, 72, 100
2, 15360, Note_on_c, 0, 78, 104
2, 15360, Note_on_c, 0, 75, 104
2, 15360, Note_on_c, 0, 72, 104
2, 15740, Note_off_c, 0, 78, 100
2, 15740, Note_off_c, 0, 75, 100
2, 15740, Note_off_c, 0, 72, 100
2, 15744, Note_on_c, 0, 78, 107
2, 15744, Note_on_c, 0, 75, 107
2, 15744, Note_on_c, 0, 72, 107
2, 16124, Note_off_c, 0, 78, 100
2, 16124, Note_off_c, 0, 75, 100
2, 16124, Note_off_c, 0, 72, 100
2, 16128, Note_on_c, 0, 79, 110
2, 16128, Note_on_c, 0, 75, 110
2, 17276, Note_off_c, 0, 79, 100
2, 17276, Note_off_c, 0, 75, 100
2, 17280, Note_on_c, 0, 62, 80
2, 17280, Note_on_c, 0, 56, 80
2, 17280, Note_on_c, 0, 67, 80
2, 17468, Note_off_c, 0, 67, 100
2, 17472, Note_on_c, 0, 65, 80
2, 17660, Note_off_c, 0, 62, 100
2, 17660, Note_off_c, 0, 56, 100
2, 17660, Note_off_c, 0, 65, 100
2, 17664, Note_on_c, 0, 62, 80
2, 17664, Note_on_c, 0, 56, 80
2, 17664, Note_on_c, 0, 65, 80
2, 17756, Note_off_c, 0, 65, 100
2, 17760, Note_on_c, 0, 67, 80
2, 17852, Note_off_c, 0, 67, 100
2, 17856, Note_on_c, 0, 65, 80
2, 17948, Note_off_c, 0, 65, 100
2, 17952, Note_on_c, 0, 64, 80
2, 18044, Note_off_c, 0, 62, 100
2, 18044, Note_off_c, 0, 56, 100
2, 18044, Note_off_c, 0, 64, 100
2, 18048, Note_on_c, 0, 62, 80
2, 18048, Note_on_c, 0, 56, 80
2, 18048, Note_on_c, 0, 65, 80
2, 18236, Note_off_c, 0, 65, 100
2, 18240, Note_on_c, 0, 67, 80
2, 18428, Note_off_c, 0, 62, 100
2, 18428, Note_off_c, 0, 56, 100
2, 18428, Note_off_c, 0, 67, 100
2, 18432, Note_on_c, 0, 63, 80
2, 18432, Note_on_c, 0, 55, 80
2, 18812, Note_off_c, 0, 63, 100
2, 18812, Note_off_c, 0, 55, 100
2, 19584, Note_on_c, 0, 86, 80
2, 19628, Note_off_c, 0, 86, 100
2, 19632, Note_on_c, 0, 87, 80
2, 19868, Note_off_c, 0, 87, 100
2, 19872, Note_on_c, 0, 80, 80
2, 19964, Note_off_c, 0, 80, 100
2, 19968, Note_on_c, 0, 80, 80
2, 20348, Note_off_c, 0, 80, 100
2, 20736, Note_on_c, 0, 74, 80
2, 20780, Note_off_c, 0, 74, 100
2, 20784, Note_on_c, 0, 75, 80
2, 21020, Note_off_c, 0, 75, 100
2, 21024, Note_on_c, 0, 67, 80
2, 21116, Note_off_c, 0, 67, 100
2, 21120, Note_on_c, 0, 67, 80
2, 21500, Note_off_c, 0, 67, 100
2, 21888, Note_on_c, 0, 75, 80
2, 21980, Note_off_c, 0, 75, 100
2, 21984, Note_on_c, 0, 65, 80
2, 22076, Note_off_c, 0, 65, 100
2, 22272, Note_on_c, 0, 75, 80
2, 22364, Note_off_c, 0, 75, 100
2, 22368, Note_on_c, 0, 65, 80
2, 22460, Note_off_c, 0, 65, 100
2, 22656, Note_on_c, 0, 74, 80
2, 22748, Note_off_c, 0, 74, 100
2, 22752, Note_on_c, 0, 65, 80
2, 22844, Note_off_c, 0, 65, 100
2, 23040, Note_on_c, 0, 75, 80
2, 23132, Note_off_c, 0, 75, 100
2, 23136, Note_on_c, 0, 63, 80
2, 23228, Note_off_c, 0, 63, 100
2, 24192, Note_on_c, 0, 87, 80
2, 24240, Note_on_c, 0, 89, 80
2, 24264, Note_off_c, 0, 87, 100
2, 24288, Note_on_c, 0, 87, 80
2, 24320, Note_off_c, 0, 89, 100
2, 24336, Note_on_c, 0, 89, 80
2, 24376, Note_off_c, 0, 87, 100
2, 24384, Note_on_c, 0, 87, 80
2, 24408, Note_off_c, 0, 89, 100
2, 24432, Note_on_c, 0, 89, 80
2, 24464, Note_off_c, 0, 87, 100
2, 24480, Note_on_c, 0, 86, 80
2, 24508, Note_off_c, 0, 89, 100
2, 24528, Note_on_c, 0, 87, 80
2, 24552, Note_off_c, 0, 86, 100
2, 24572, Note_off_c, 0, 87, 100
2, 24576, Note_on_c, 0, 80, 80
2, 24956, Note_off_c, 0, 80, 100
2, 25344, Note_on_c, 0, 75, 80
2, 25392, Note_on_c, 0, 77, 80
2, 25416, Note_off_c, 0, 75, 100
2, 25440, Note_on_c, 0, 75, 80
2, 25472, Note_off_c, 0, 77, 100
2, 25488, Note_on_c, 0, 77, 80
2, 25528, Note_off_c, 0, 75, 100
2, 25536, Note_on_c, 0, 75, 80
2, 25560, Note_off_c, 0, 77, 100
2, 25584, Note_on_c, 0, 77, 80
2, 25616, Note_off_c, 0, 75, 100
2, 25632, Note_on_c, 0, 74, 80
2, 25660, Note_off_c, 0, 77, 100
2, 25680, Note_on_c, 0, 75, 80
2, 25704, Note_off_c, 0, 74, 100
2, 25724, Note_off_c, 0, 75, 100
2, 25728, Note_on_c, 0, 67, 80
2, 26108, Note_off_c, 0, 67, 100
2, 26496, Note_on_c, 0, 75, 80
2, 26588, Note_off_c, 0, 75, 100
2, 26592, Note_on_c, 0, 65, 80
2, 26684, Note_off_c, 0, 65, 100
2, 26880, Note_on_c, 0, 75, 80
2, 26972, Note_off_c, 0, 75, 100
2, 26976, Note_on_c, 0, 65, 80
2, 27068, Note_off_c, 0, 65, 100
2, 27264, Note_on_c, 0, 74, 80
2, 27356, Note_off_c, 0, 74, 100
2, 27360, Note_on_c, 0, 65, 80
2, 27452, Note_off_c, 0, 65, 100
2, 27648, Note_on_c, 0, 63, 80
2, 27740, Note_off_c, 0, 63, 100
2, 27744, Note_on_c, 0, 65, 80
2, 27836, Note_off_c, 0, 65, 100
2, 27840, Note_on_c, 0, 63, 80
2, 27932, Note_off_c, 0, 63, 100
2, 27936, Note_on_c, 0, 62, 80
2, 28028, Note_off_c, 0, 62, 100
2, 28032, Note_on_c, 0, 63, 80
2, 28124, Note_off_c, 0, 63, 100
2, 28128, Note_on_c, 0, 65, 80
2, 28220, Note_off_c, 0, 65, 100
2, 28224, Note_on_c, 0, 67, 80
2, 28316, Note_off_c, 0, 67, 100
2, 28320, Note_on_c, 0, 68, 80
2, 28412, Note_off_c, 0, 68, 100
2, 28416, Note_on_c, 0, 70, 80
2, 28604, Note_off_c, 0, 70, 100
2, 28608, Note_on_c, 0, 67, 80
2, 28796, Note_off_c, 0, 67, 100
2, 28800, Note_on_c, 0, 65, 80
2, 28988, Note_off_c, 0, 65, 100
2, 28992, Note_on_c, 0, 68, 80
2, 29180, Note_off_c, 0, 68, 100
2, 29184, Note_on_c, 0, 62, 80
2, 29372, Note_off_c, 0, 62, 100
2, 29376, Note_on_c, 0, 65, 80
2, 29564, Note_off_c, 0, 65, 100
2, 29568, Note_on_c, 0, 58, 80
2, 29756, Note_off_c, 0, 58, 100
2, 29760, Note_on_c, 0, 62, 80
2, 29948, Note_off_c, 0, 62, 100
2, 29952, Note_on_c, 0, 63, 80
2, 30044, Note_off_c, 0, 63, 100
2, 30048, Note_on_c, 0, 65, 80
2, 30140, Note_off_c, 0, 65, 100
2, 30144, Note_on_c, 0, 63, 80
2, 30236, Note_off_c, 0, 63, 100
2, 30240, Note_on_c, 0, 62, 80
2, 30332, Note_off_c, 0, 62, 100
2, 30336, Note_on_c, 0, 63, 80
2, 30428, Note_off_c, 0, 63, 100
2, 30432, Note_on_c, 0, 65, 80
2, 30524, Note_off_c, 0, 65, 100
2, 30528, Note_on_c, 0, 67, 80
2, 30620, Note_off_c, 0, 67, 100
2, 30624, Note_on_c, 0, 68, 80
2, 30716, Note_off_c, 0, 68, 100
2, 30720, Note_on_c, 0, 72, 80
2, 30812, Note_off_c, 0, 72, 100
2, 30816, Note_on_c, 0, 70, 80
2, 30908, Note_off_c, 0, 70, 100
2, 30912, Note_on_c, 0, 68, 80
2, 31004, Note_off_c, 0, 68, 100
2, 31008, Note_on_c, 0, 67, 80
2, 31100, Note_off_c, 0, 67, 100
2, 31104, Note_on_c, 0, 65, 80
2, 31292, Note_off_c, 0, 65, 100
2, 31296, Note_on_c, 0, 68, 80
2, 31484, Note_off_c, 0, 68, 100
2, 31488, Note_on_c, 0, 62, 80
2, 31676, Note_off_c, 0, 62, 100
2, 31680, Note_on_c, 0, 65, 80
2, 31868, Note_off_c, 0, 65, 100
2, 31872, Note_on_c, 0, 58, 80
2, 32060, Note_off_c, 0, 58, 100
2, 32064, Note_on_c, 0, 62, 80
2, 32252, Note_off_c, 0, 62, 100
2, 32256, Note_on_c, 0, 63, 80
2, 32444, Note_off_c, 0, 63, 100
2, 32448, Note_on_c, 0, 67, 80
2, 32636, Note_off_c, 0, 67, 100
2, 32640, Note_on_c, 0, 60, 80
2, 32828, Note_off_c, 0, 60, 100
2, 32832, Note_on_c, 0, 63, 80
2, 33020, Note_off_c, 0, 63, 100
2, 33024, Note_on_c, 0, 57, 80
2, 33212, Note_off_c, 0, 57, 100
2, 33216, Note_on_c, 0, 60, 80
2, 33404, Note_off_c, 0, 60, 100
2, 33408, Note_on_c, 0, 53, 80
2, 33596, Note_off_c, 0, 53, 100
2, 33600, Note_on_c, 0, 57, 80
2, 33788, Note_off_c, 0, 57, 100
2, 33792, Note_on_c, 0, 60, 80
2, 33980, Note_off_c, 0, 60, 100
2, 33984, Note_on_c, 0, 64, 80
2, 34172, Note_off_c, 0, 64, 100
2, 34176, Note_on_c, 0, 65, 80
2, 34364, Note_off_c, 0, 65, 100
2, 34368, Note_on_c, 0, 57, 80
2, 34556, Note_off_c, 0, 57, 100
2, 34560, Note_on_c, 0, 58, 80
2, 34748, Note_off_c, 0, 58, 100
2, 34752, Note_on_c, 0, 62, 80
2, 34940, Note_off_c, 0, 62, 100
2, 34944, Note_on_c, 0, 65, 80
2, 35132, Note_off_c, 0, 65, 100
2, 35136, Note_on_c, 0, 69, 80
2, 35324, Note_off_c, 0, 69, 100
2, 35328, Note_on_c, 0, 70, 80
2, 35516, Note_off_c, 0, 70, 100
2, 35520, Note_on_c, 0, 69, 80
2, 35708, Note_off_c, 0, 69, 100
2, 35712, Note_on_c, 0, 70, 80
2, 35900, Note_off_c, 0, 70, 100
2, 35904, Note_on_c, 0, 69, 80
2, 36092, Note_off_c, 0, 69, 100
2, 36096, Note_on_c, 0, 70, 80
2, 36284, Note_off_c, 0, 70, 100
2, 36288, Note_on_c, 0, 69, 80
2, 36476, Note_off_c, 0, 69, 100
2, 36480, Note_on_c, 0, 70, 80
2, 36668, Note_off_c, 0, 70, 100
2, 36672, Note_on_c, 0, 70, 80
2, 36860, Note_off_c, 0, 70, 100
2, 36864, Note_on_c, 0, 71, 80
2, 36864, Note_on_c, 0, 63, 80
2, 36864, Note_on_c, 0, 59, 80
2, 37148, Note_off_c, 0, 71, 100
2, 37152, Note_on_c, 0, 65, 80
2, 37244, Note_off_c, 0, 65, 100
2, 37248, Note_on_c, 0, 65, 80
2, 37820, Note_off_c, 0, 65, 100
2, 38012, Note_off_c, 0, 63, 100
2, 38012, Note_off_c, 0, 59, 100
2, 38016, Note_on_c, 0, 71, 80
2, 38016, Note_on_c, 0, 63, 80
2, 38016, Note_on_c, 0, 59, 80
2, 38300, Note_off_c, 0, 71, 100
2, 38304, Note_on_c, 0, 65, 80
2, 38396, Note_off_c, 0, 65, 100
2, 38400, Note_on_c, 0, 65, 80
2, 38972, Note_off_c, 0, 65, 100
2, 39164, Note_off_c, 0, 63, 100
2, 39164, Note_off_c, 0, 59, 100
2, 39168, Note_on_c, 0, 65, 80
2, 39168, Note_on_c, 0, 63, 80
2, 39548, Note_off_c, 0, 65, 100
2, 39548, Note_off_c, 0, 63, 100
2, 39552, Note_on_c, 0, 65, 80
2, 39552, Note_on_c, 0, 63, 80
2, 39932, Note_off_c, 0, 65, 100
2, 39932, Note_off_c, 0, 63, 100
2, 39936, Note_on_c, 0, 66, 80
2, 39936, Note_on_c, 0, 63, 80
2, 40316, Note_off_c, 0, 66, 100
2, 40316, Note_off_c, 0, 63, 100
2, 40320, Note_on_c, 0, 63, 80
2, 40320, Note_on_c, 0, 68, 80
2, 41084, Note_off_c, 0, 63, 100
2, 41088, Note_on_c, 0, 62, 80
2, 41468, Note_off_c, 0, 68, 100
2, 41468, Note_off_c, 0, 62, 100
2, 41472, Note_on_c, 0, 77, 80
2, 41472, Note_on_c, 0, 75, 80
2, 41852, Note_off_c, 0, 77, 100
2, 41852, Note_off_c, 0, 75, 100
2, 41856, Note_on_c, 0, 77, 80
2, 41856, Note_on_c, 0, 75, 80
2, 42236, Note_off_c, 0, 77, 100
2, 42236, Note_off_c, 0, 75, 100
2, 42240, Note_on_c, 0, 78, 80
2, 42240, Note_on_c, 0, 75, 80
2, 42620, Note_off_c, 0, 78, 100
2, 42620, Note_off_c, 0, 75, 100
2, 42624, Note_on_c, 0, 75, 80
2, 42624, Note_on_c, 0, 80, 80
2, 43388, Note_off_c, 0, 75, 100
2, 43392, Note_on_c, 0, 74, 80
2, 43772, Note_off_c, 0, 80, 100
2, 43772, Note_off_c, 0, 74, 100
2, 43776, Note_on_c, 0, 67, 80
2, 43776, Note_on_c, 0, 65, 80
2, 44156, Note_off_c, 0, 67, 100
2, 44156, Note_off_c, 0, 65, 100
2, 44160, Note_on_c, 0, 67, 80
2, 44160, Note_on_c, 0, 65, 80
2, 44540, Note_off_c, 0, 67, 100
2, 44540, Note_off_c, 0, 65, 100
2, 44544, Note_on_c, 0, 68, 80
2, 44544, Note_on_c, 0, 65, 80
2, 44924, Note_off_c, 0, 68, 100
2, 44924, Note_off_c, 0, 65, 100
2, 44928, Note_on_c, 0, 65, 80
2, 44928, Note_on_c, 0, 70, 80
2, 45692, Note_off_c, 0, 65, 100
2, 45696, Note_on_c, 0, 64, 80
2, 46076, Note_off_c, 0, 70, 100
2, 46076, Note_off_c, 0, 64, 100
2, 46080, Note_on_c, 0, 79, 80
2, 46080, Note_on_c, 0, 77, 80
2, 46460, Note_off_c, 0, 79, 100
2, 46460, Note_off_c, 0, 77, 100
2, 46464, Note_on_c, 0, 79, 80
2, 46464, Note_on_c, 0, 77, 80
2, 46844, Note_off_c, 0, 79, 100
2, 46844, Note_off_c, 0, 77, 100
2, 46848, Note_on_c, 0, 80, 80
2, 46848, Note_on_c, 0, 77, 80
2, 47228, Note_off_c, 0, 80, 100
2, 47228, Note_off_c, 0, 77, 100
2, 47232, Note_on_c, 0, 77, 80
2, 47232, Note_on_c, 0, 82, 80
2, 47996, Note_off_c, 0, 77, 100
2, 48000, Note_on_c, 0, 76, 80
2, 48380, Note_off_c, 0, 82, 100
2, 48380, Note_off_c, 0, 76, 100
2, 48384, Note_on_c, 0, 85, 80
2, 48764, Note_off_c, 0, 85, 100
2, 48768, Note_on_c, 0, 76, 80
2, 49148, Note_off_c, 0, 76, 100
2, 49536, Note_on_c, 0, 89, 80
2, 49916, Note_off_c, 0, 89, 100
2, 49920, Note_on_c, 0, 77, 80
2, 50300, Note_off_c, 0, 77, 100
2, 51648, Note_on_c, 0, 77, 80
2, 51836, Note_off_c, 0, 77, 100
2, 51840, Note_on_c, 0, 82, 80
2, 52412, Note_off_c, 0, 82, 100
2, 52416, Note_on_c, 0, 81, 80
2, 52508, Note_off_c, 0, 81, 100
2, 52512, Note_on_c, 0, 82, 80
2, 52604, Note_off_c, 0, 82, 100
2, 52608, Note_on_c, 0, 84, 80
2, 52796, Note_off_c, 0, 84, 100
2, 52800, Note_on_c, 0, 82, 80
2, 52988, Note_off_c, 0, 82, 100
2, 52992, Note_on_c, 0, 77, 80
2, 53564, Note_off_c, 0, 77, 100
2, 53568, Note_on_c, 0, 79, 80
2, 53660, Note_off_c, 0, 79, 100
2, 53664, Note_on_c, 0, 77, 80
2, 53756, Note_off_c, 0, 77, 100
2, 53760, Note_on_c, 0, 75, 80
2, 53948, Note_off_c, 0, 75, 100
2, 53952, Note_on_c, 0, 74, 80
2, 54140, Note_off_c, 0, 74, 100
2, 54144, Note_on_c, 0, 78, 80
2, 54236, Note_off_c, 0, 78, 100
2, 54240, Note_on_c, 0, 79, 80
2, 54332, Note_off_c, 0, 79, 100
2, 54528, Note_on_c, 0, 78, 80
2, 54620, Note_off_c, 0, 78, 100
2, 54624, Note_on_c, 0, 79, 80
2, 54716, Note_off_c, 0, 79, 100
2, 54912, Note_on_c, 0, 74, 80
2, 55004, Note_off_c, 0, 74, 100
2, 55008, Note_on_c, 0, 75, 80
2, 55100, Note_off_c, 0, 75, 100
2, 55296, Note_on_c, 0, 71, 80
2, 55388, Note_off_c, 0, 71, 100
2, 55392, Note_on_c, 0, 72, 80
2, 55484, Note_off_c, 0, 72, 100
2, 56256, Note_on_c, 0, 84, 80
2, 56444, Note_off_c, 0, 84, 100
2, 56448, Note_on_c, 0, 87, 80
2, 57020, Note_off_c, 0, 87, 100
2, 57024, Note_on_c, 0, 89, 80
2, 57116, Note_off_c, 0, 89, 100
2, 57120, Note_on_c, 0, 87, 80
2, 57212, Note_off_c, 0, 87, 100
2, 57216, Note_on_c, 0, 86, 80
2, 57404, Note_off_c, 0, 86, 100
2, 57408, Note_on_c, 0, 84, 80
2, 57596, Note_off_c, 0, 84, 100
2, 57600, Note_on_c, 0, 82, 80
2, 57788, Note_off_c, 0, 82, 100
2, 57792, Note_on_c, 0, 81, 80
2, 57980, Note_off_c, 0, 81, 100
2, 57984, Note_on_c, 0, 79, 80
2, 58172, Note_off_c, 0, 79, 100
2, 58176, Note_on_c, 0, 77, 80
2, 58364, Note_off_c, 0, 77, 100
2, 58368, Note_on_c, 0, 75, 80
2, 58556, Note_off_c, 0, 75, 100
2, 58560, Note_on_c, 0, 72, 80
2, 58748, Note_off_c, 0, 72, 100
2, 58752, Note_on_c, 0, 70, 80
2, 58940, Note_off_c, 0, 70, 100
2, 58944, Note_on_c, 0, 74, 80
2, 59132, Note_off_c, 0, 74, 100
2, 59136, Note_on_c, 0, 67, 80
2, 59324, Note_off_c, 0, 67, 100
2, 59328, Note_on_c, 0, 75, 80
2, 59516, Note_off_c, 0, 75, 100
2, 59520, Note_on_c, 0, 69, 80
2, 59708, Note_off_c, 0, 69, 100
2, 59712, Note_on_c, 0, 72, 80
2, 59900, Note_off_c, 0, 72, 100
2, 59904, Note_on_c, 0, 70, 80
2, 59996, Note_off_c, 0, 70, 100
2, 60000, Note_on_c, 0, 62, 80
2, 60092, Note_off_c, 0, 62, 100
2, 60096, Note_on_c, 0, 65, 80
2, 60188, Note_off_c, 0, 65, 100
2, 60192, Note_on_c, 0, 63, 80
2, 60284, Note_off_c, 0, 63, 100
2, 60288, Note_on_c, 0, 62, 80
2, 60352, Note_off_c, 0, 62, 100
2, 60356, Note_on_c, 0, 63, 80
2, 60420, Note_off_c, 0, 63, 100
2, 60464, Note_on_c, 0, 65, 80
2, 60528, Note_off_c, 0, 65, 100
2, 60536, Note_on_c, 0, 67, 80
2, 60596, Note_on_c, 0, 69, 80
2, 60600, Note_off_c, 0, 67, 100
2, 60660, Note_off_c, 0, 69, 100
2, 60672, Note_on_c, 0, 70, 80
2, 60732, Note_off_c, 0, 70, 100
2, 60732, Note_on_c, 0, 69, 80
2, 60792, Note_off_c, 0, 69, 100
2, 60800, Note_on_c, 0, 72, 80
2, 60860, Note_off_c, 0, 72, 100
2, 60864, Note_on_c, 0, 70, 80
2, 60924, Note_off_c, 0, 70, 100
2, 60928, Note_on_c, 0, 74, 80
2, 60988, Note_off_c, 0, 74, 100
2, 60992, Note_on_c, 0, 72, 80
2, 61052, Note_off_c, 0, 72, 100
2, 61056, Note_on_c, 0, 70, 80
2, 61116, Note_off_c, 0, 70, 100
2, 61120, Note_on_c, 0, 69, 80
2, 61180, Note_off_c, 0, 69, 100
2, 61184, Note_on_c, 0, 67, 80
2, 61244, Note_off_c, 0, 67, 100
2, 61248, Note_on_c, 0, 65, 80
2, 61308, Note_off_c, 0, 65, 100
2, 61312, Note_on_c, 0, 67, 80
2, 61372, Note_off_c, 0, 67, 100
2, 61376, Note_on_c, 0, 63, 80
2, 61436, Note_off_c, 0, 63, 100
2, 61440, Note_on_c, 0, 62, 80
2, 61500, Note_off_c, 0, 62, 100
2, 61504, Note_on_c, 0, 65, 80
2, 61564, Note_off_c, 0, 65, 100
2, 61568, Note_on_c, 0, 63, 80
2, 61628, Note_off_c, 0, 63, 100
2, 61632, Note_on_c, 0, 65, 80
2, 61692, Note_off_c, 0, 65, 100
2, 61696, Note_on_c, 0, 67, 80
2, 61756, Note_off_c, 0, 67, 100
2, 61760, Note_on_c, 0, 69, 80
2, 61820, Note_off_c, 0, 69, 100
2, 61824, Note_on_c, 0, 70, 80
2, 61916, Note_off_c, 0, 70, 100
2, 61920, Note_on_c, 0, 69, 80
2, 62012, Note_off_c, 0, 69, 100
2, 62016, Note_on_c, 0, 67, 80
2, 62108, Note_off_c, 0, 67, 100
2, 62112, Note_on_c, 0, 65, 80
2, 62204, Note_off_c, 0, 65, 100
2, 62208, Note_on_c, 0, 67, 80
2, 62300, Note_off_c, 0, 67, 100
2, 62304, Note_on_c, 0, 69, 80
2, 62396, Note_off_c, 0, 69, 100
2, 62400, Note_on_c, 0, 70, 80
2, 62492, Note_off_c, 0, 70, 100
2, 62496, Note_on_c, 0, 72, 80
2, 62588, Note_off_c, 0, 72, 100
2, 62592, Note_on_c, 0, 74, 80
2, 62684, Note_off_c, 0, 74, 100
2, 62688, Note_on_c, 0, 72, 80
2, 62780, Note_off_c, 0, 72, 100
2, 62784, Note_on_c, 0, 70, 80
2, 62876, Note_off_c, 0, 70, 100
2, 62880, Note_on_c, 0, 69, 80
2, 62972, Note_off_c, 0, 69, 100
2, 62976, Note_on_c, 0, 70, 80
2, 63068, Note_off_c, 0, 70, 100
2, 63072, Note_on_c, 0, 72, 80
2, 63164, Note_off_c, 0, 72, 100
2, 63168, Note_on_c, 0, 74, 80
2, 63260, Note_off_c, 0, 74, 100
2, 63264, Note_on_c, 0, 75, 80
2, 63356, Note_off_c, 0, 75, 100
2, 63360, Note_on_c, 0, 79, 80
2, 63452, Note_off_c, 0, 79, 100
2, 63456, Note_on_c, 0, 77, 80
2, 63548, Note_off_c, 0, 77, 100
2, 63552, Note_on_c, 0, 75, 80
2, 63644, Note_off_c, 0, 75, 100
2, 63648, Note_on_c, 0, 74, 80
2, 63740, Note_off_c, 0, 74, 100
2, 63744, Note_on_c, 0, 77, 80
2, 63868, Note_off_c, 0, 77, 100
2, 63872, Note_on_c, 0, 75, 80
2, 63996, Note_off_c, 0, 75, 100
2, 64000, Note_on_c, 0, 74, 80
2, 64124, Note_off_c, 0, 74, 100
2, 64128, Note_on_c, 0, 75, 80
2, 64220, Note_off_c, 0, 75, 100
2, 64224, Note_on_c, 0, 77, 80
2, 64316, Note_off_c, 0, 77, 100
2, 64320, Note_on_c, 0, 79, 80
2, 64412, Note_off_c, 0, 79, 100
2, 64416, Note_on_c, 0, 81, 80
2, 64508, Note_off_c, 0, 81, 100
2, 64512, Note_on_c, 0, 82, 80
2, 65084, Note_off_c, 0, 82, 100
2, 65088, Note_on_c, 0, 81, 80
2, 65180, Note_off_c, 0, 81, 100
2, 65184, Note_on_c, 0, 82, 80
2, 65276, Note_off_c, 0, 82, 100
2, 65280, Note_on_c, 0, 81, 80
2, 65372, Note_off_c, 0, 81, 100
2, 65376, Note_on_c, 0, 82, 80
2, 65468, Note_off_c, 0, 82, 100
2, 65472, Note_on_c, 0, 84, 80
2, 65564, Note_off_c, 0, 84, 100
2, 65568, Note_on_c, 0, 82, 80
2, 65660, Note_off_c, 0, 82, 100
2, 65664, Note_on_c, 0, 77, 80
2, 66236, Note_off_c, 0, 77, 100
2, 66240, Note_on_c, 0, 76, 80
2, 66332, Note_off_c, 0, 76, 100
2, 66336, Note_on_c, 0, 77, 80
2, 66428, Note_off_c, 0, 77, 100
2, 66432, Note_on_c, 0, 79, 80
2, 66524, Note_off_c, 0, 79, 100
2, 66528, Note_on_c, 0, 77, 80
2, 66620, Note_off_c, 0, 77, 100
2, 66624, Note_on_c, 0, 75, 80
2, 66716, Note_off_c, 0, 75, 100
2, 66720, Note_on_c, 0, 74, 80
2, 66812, Note_off_c, 0, 74, 100
2, 66816, Note_on_c, 0, 78, 80
2, 66908, Note_off_c, 0, 78, 100
2, 66912, Note_on_c, 0, 79, 80
2, 67004, Note_off_c, 0, 79, 100
2, 67008, Note_on_c, 0, 78, 80
2, 67100, Note_off_c, 0, 78, 100
2, 67104, Note_on_c, 0, 79, 80
2, 67196, Note_off_c, 0, 79, 100
2, 67200, Note_on_c, 0, 78, 80
2, 67292, Note_off_c, 0, 78, 100
2, 67296, Note_on_c, 0, 79, 80
2, 67388, Note_off_c, 0, 79, 100
2, 67392, Note_on_c, 0, 78, 80
2, 67484, Note_off_c, 0, 78, 100
2, 67488, Note_on_c, 0, 79, 80
2, 67580, Note_off_c, 0, 79, 100
2, 67584, Note_on_c, 0, 74, 80
2, 67676, Note_off_c, 0, 74, 100
2, 67680, Note_on_c, 0, 75, 80
2, 67772, Note_off_c, 0, 75, 100
2, 67776, Note_on_c, 0, 74, 80
2, 67868, Note_off_c, 0, 74, 100
2, 67872, Note_on_c, 0, 75, 80
2, 67964, Note_off_c, 0, 75, 100
2, 67968, Note_on_c, 0, 71, 80
2, 68060, Note_off_c, 0, 71, 100
2, 68064, Note_on_c, 0, 72, 80
2, 68156, Note_off_c, 0, 72, 100
2, 68160, Note_on_c, 0, 71, 80
2, 68252, Note_off_c, 0, 71, 100
2, 68256, Note_on_c, 0, 72, 80
2, 68348, Note_off_c, 0, 72, 100
2, 68928, Note_on_c, 0, 84, 80
2, 69116, Note_off_c, 0, 84, 100
2, 69120, Note_on_c, 0, 87, 80
2, 69692, Note_off_c, 0, 87, 100
2, 69696, Note_on_c, 0, 86, 80
2, 69788, Note_off_c, 0, 86, 100
2, 69792, Note_on_c, 0, 87, 80
2, 69884, Note_off_c, 0, 87, 100
2, 69888, Note_on_c, 0, 89, 80
2, 69980, Note_off_c, 0, 89, 100
2, 69984, Note_on_c, 0, 87, 80
2, 70076, Note_off_c, 0, 87, 100
2, 70080, Note_on_c, 0, 86, 80
2, 70172, Note_off_c, 0, 86, 100
2, 70176, Note_on_c, 0, 84, 80
2, 70268, Note_off_c, 0, 84, 100
2, 70272, Note_on_c, 0, 82, 80
2, 70364, Note_off_c, 0, 82, 100
2, 70368, Note_on_c, 0, 81, 80
2, 70460, Note_off_c, 0, 81, 100
2, 70464, Note_on_c, 0, 86, 80
2, 70556, Note_off_c, 0, 86, 100
2, 70560, Note_on_c, 0, 84, 80
2, 70652, Note_off_c, 0, 84, 100
2, 70656, Note_on_c, 0, 82, 80
2, 70748, Note_off_c, 0, 82, 100
2, 70752, Note_on_c, 0, 81, 80
2, 70844, Note_off_c, 0, 81, 100
2, 70848, Note_on_c, 0, 79, 80
2, 70940, Note_off_c, 0, 79, 100
2, 70944, Note_on_c, 0, 77, 80
2, 71036, Note_off_c, 0, 77, 100
2, 71040, Note_on_c, 0, 75, 80
2, 71132, Note_off_c, 0, 75, 100
2, 71136, Note_on_c, 0, 74, 80
2, 71228, Note_off_c, 0, 74, 100
2, 71232, Note_on_c, 0, 75, 80
2, 71324, Note_off_c, 0, 75, 100
2, 71328, Note_on_c, 0, 72, 80
2, 71516, Note_off_c, 0, 72, 100
2, 71520, Note_on_c, 0, 70, 80
2, 71612, Note_off_c, 0, 70, 100
2, 71616, Note_on_c, 0, 74, 80
2, 71900, Note_off_c, 0, 74, 100
2, 71904, Note_on_c, 0, 67, 80
2, 71996, Note_off_c, 0, 67, 100
2, 72000, Note_on_c, 0, 75, 80
2, 72284, Note_off_c, 0, 75, 100
2, 72288, Note_on_c, 0, 69, 80
2, 72380, Note_off_c, 0, 69, 100
2, 72384, Note_on_c, 0, 72, 80
2, 72572, Note_off_c, 0, 72, 100
2, 72576, Note_on_c, 0, 70, 80
2, 72764, Note_off_c, 0, 70, 100
2, 72960, Note_on_c, 0, 55, 80
2, 73052, Note_off_c, 0, 55, 100
2, 73056, Note_on_c, 0, 57, 80
2, 73148, Note_off_c, 0, 57, 100
2, 73152, Note_on_c, 0, 58, 80
2, 73244, Note_off_c, 0, 58, 100
2, 73248, Note_on_c, 0, 60, 80
2, 73340, Note_off_c, 0, 60, 100
2, 73344, Note_on_c, 0, 62, 80
2, 73436, Note_off_c, 0, 62, 100
2, 73440, Note_on_c, 0, 63, 80
2, 73532, Note_off_c, 0, 63, 100
2, 73536, Note_on_c, 0, 65, 80
2, 73628, Note_off_c, 0, 65, 100
2, 73632, Note_on_c, 0, 67, 80
2, 73724, Note_off_c, 0, 67, 100
2, 73728, Note_on_c, 0, 65, 80
2, 74492, Note_off_c, 0, 65, 100
2, 74496, Note_on_c, 0, 63, 80
2, 74544, Note_on_c, 0, 65, 80
2, 74568, Note_off_c, 0, 63, 100
2, 74592, Note_on_c, 0, 63, 80
2, 74620, Note_off_c, 0, 65, 100
2, 74640, Note_on_c, 0, 65, 80
2, 74672, Note_off_c, 0, 63, 100
2, 74688, Note_on_c, 0, 63, 80
2, 74716, Note_off_c, 0, 65, 100
2, 74736, Note_on_c, 0, 65, 80
2, 74772, Note_off_c, 0, 63, 100
2, 74784, Note_on_c, 0, 62, 80
2, 74820, Note_off_c, 0, 65, 100
2, 74832, Note_on_c, 0, 63, 80
2, 74860, Note_off_c, 0, 62, 100
2, 74876, Note_off_c, 0, 63, 100
2, 74880, Note_on_c, 0, 62, 80
2, 74972, Note_off_c, 0, 62, 100
2, 75264, Note_on_c, 0, 67, 80
2, 75356, Note_off_c, 0, 67, 100
2, 75360, Note_on_c, 0, 69, 80
2, 75452, Note_off_c, 0, 69, 100
2, 75456, Note_on_c, 0, 70, 80
2, 75548, Note_off_c, 0, 70, 100
2, 75552, Note_on_c, 0, 72, 80
2, 75644, Note_off_c, 0, 72, 100
2, 75648, Note_on_c, 0, 74, 80
2, 75740, Note_off_c, 0, 74, 100
2, 75744, Note_on_c, 0, 75, 80
2, 75836, Note_off_c, 0, 75, 100
2, 75840, Note_on_c, 0, 77, 80
2, 75932, Note_off_c, 0, 77, 100
2, 75936, Note_on_c, 0, 79, 80
2, 76028, Note_off_c, 0, 79, 100
2, 76032, Note_on_c, 0, 77, 80
2, 76796, Note_off_c, 0, 77, 100
2, 76800, Note_on_c, 0, 75, 80
2, 76848, Note_on_c, 0, 77, 80
2, 76872, Note_off_c, 0, 75, 100
2, 76896, Note_on_c, 0, 75, 80
2, 76924, Note_off_c, 0, 77, 100
2, 76944, Note_on_c, 0, 77, 80
2, 76976, Note_off_c, 0, 75, 100
2, 76992, Note_on_c, 0, 75, 80
2, 77020, Note_off_c, 0, 77, 100
2, 77040, Note_on_c, 0, 77, 80
2, 77076, Note_off_c, 0, 75, 100
2, 77088, Note_on_c, 0, 74, 80
2, 77124, Note_off_c, 0, 77, 100
2, 77136, Note_on_c, 0, 75, 80
2, 77164, Note_off_c, 0, 74, 100
2, 77180, Note_off_c, 0, 75, 100
2, 77184, Note_on_c, 0, 74, 80
2, 77564, Note_off_c, 0, 74, 100
2, 77568, Note_on_c, 0, 72, 80
2, 77616, Note_on_c, 0, 74, 80
2, 77660, Note_off_c, 0, 72, 100
2, 77664, Note_on_c, 0, 72, 80
2, 77708, Note_off_c, 0, 74, 100
2, 77712, Note_on_c, 0, 74, 80
2, 77756, Note_off_c, 0, 72, 100
2, 77760, Note_on_c, 0, 72, 80
2, 77804, Note_off_c, 0, 74, 100
2, 77808, Note_on_c, 0, 74, 81
2, 77852, Note_off_c, 0, 72, 100
2, 77856, Note_on_c, 0, 71, 81
2, 77900, Note_off_c, 0, 74, 100
2, 77904, Note_on_c, 0, 72, 81
2, 77948, Note_off_c, 0, 71, 100
2, 77952, Note_on_c, 0, 70, 81
2, 77996, Note_off_c, 0, 72, 100
2, 78332, Note_off_c, 0, 70, 100
2, 78336, Note_on_c, 0, 68, 83
2, 78384, Note_on_c, 0, 70, 84
2, 78428, Note_off_c, 0, 68, 100
2, 78432, Note_on_c, 0, 68, 84
2, 78476, Note_off_c, 0, 70, 100
2, 78480, Note_on_c, 0, 70, 84
2, 78524, Note_off_c, 0, 68, 100
2, 78528, Note_on_c, 0, 68, 84
2, 78572, Note_off_c, 0, 70, 100
2, 78576, Note_on_c, 0, 70, 85
2, 78620, Note_off_c, 0, 68, 100
2, 78624, Note_on_c, 0, 67, 85
2, 78668, Note_off_c, 0, 70, 100
2, 78672, Note_on_c, 0, 68, 85
2, 78716, Note_off_c, 0, 67, 100
2, 78720, Note_on_c, 0, 67, 85
2, 78764, Note_off_c, 0, 68, 100
2, 79100, Note_off_c, 0, 67, 100
2, 79104, Note_on_c, 0, 65, 87
2, 79148, Note_off_c, 0, 65, 100
2, 79152, Note_on_c, 0, 67, 88
2, 79196, Note_off_c, 0, 67, 100
2, 79200, Note_on_c, 0, 65, 88
2, 79244, Note_off_c, 0, 65, 100
2, 79248, Note_on_c, 0, 67, 88
2, 79292, Note_off_c, 0, 67, 100
2, 79296, Note_on_c, 0, 65, 88
2, 79340, Note_off_c, 0, 65, 100
2, 79344, Note_on_c, 0, 67, 89
2, 79388, Note_off_c, 0, 67, 100
2, 79392, Note_on_c, 0, 64, 89
2, 79436, Note_off_c, 0, 64, 100
2, 79440, Note_on_c, 0, 65, 89
2, 79484, Note_off_c, 0, 65, 100
2, 79488, Note_on_c, 0, 64, 89
2, 79868, Note_off_c, 0, 64, 100
2, 79872, Note_on_c, 0, 63, 91
2, 79920, Note_on_c, 0, 65, 91
2, 79964, Note_off_c, 0, 63, 100
2, 79968, Note_on_c, 0, 63, 92
2, 80012, Note_off_c, 0, 65, 100
2, 80016, Note_on_c, 0, 65, 92
2, 80060, Note_off_c, 0, 63, 100
2, 80064, Note_on_c, 0, 63, 92
2, 80108, Note_off_c, 0, 65, 100
2, 80112, Note_on_c, 0, 65, 92
2, 80156, Note_off_c, 0, 63, 100
2, 80160, Note_on_c, 0, 62, 93
2, 80204, Note_off_c, 0, 65, 100
2, 80208, Note_on_c, 0, 63, 93
2, 80252, Note_off_c, 0, 62, 100
2, 80256, Note_on_c, 0, 62, 93
2, 80300, Note_off_c, 0, 63, 100
2, 80636, Note_off_c, 0, 62, 100
2, 80640, Note_on_c, 0, 63, 95
2, 80688, Note_on_c, 0, 65, 95
2, 80732, Note_off_c, 0, 63, 100
2, 80736, Note_on_c, 0, 63, 96
2, 80780, Note_off_c, 0, 65, 100
2, 80784, Note_on_c, 0, 65, 96
2, 80828, Note_off_c, 0, 63, 100
2, 80832, Note_on_c, 0, 63, 96
2, 80876, Note_off_c, 0, 65, 100
2, 80880, Note_on_c, 0, 65, 96
2, 80924, Note_off_c, 0, 63, 100
2, 80928, Note_on_c, 0, 62, 97
2, 80972, Note_off_c, 0, 65, 100
2, 80976, Note_on_c, 0, 63, 97
2, 81020, Note_off_c, 0, 62, 100
2, 81024, Note_on_c, 0, 62, 97
2, 81068, Note_off_c, 0, 63, 100
2, 81404, Note_off_c, 0, 62, 100
2, 81408, Note_on_c, 0, 63, 99
2, 81456, Note_on_c, 0, 65, 99
2, 81500, Note_off_c, 0, 63, 100
2, 81504, Note_on_c, 0, 63, 100
2, 81548, Note_off_c, 0, 65, 100
2, 81552, Note_on_c, 0, 65, 100
2, 81596, Note_off_c, 0, 63, 100
2, 81600, Note_on_c, 0, 63, 100
2, 81644, Note_off_c, 0, 65, 100
2, 81648, Note_on_c, 0, 65, 100
2, 81692, Note_off_c, 0, 63, 100
2, 81696, Note_on_c, 0, 62, 100
2, 81740, Note_off_c, 0, 65, 100
2, 81744, Note_on_c, 0, 63, 80
2, 81788, Note_off_c, 0, 62, 100
2, 81792, Control_c, 0, 64, 127
2, 81792, Note_on_c, 0, 62, 80
2, 81836, Note_off_c, 0, 63, 100
2, 81884, Note_off_c, 0, 62, 100
2, 81888, Note_on_c, 0, 58, 80
2, 81980, Note_off_c, 0, 58, 100
2, 81984, Note_on_c, 0, 53, 80
2, 82076, Note_off_c, 0, 53, 100
2, 82080, Note_on_c, 0, 58, 80
2, 82168, Control_c, 0, 64, 0
2, 82172, Note_off_c, 0, 58, 100
2, 82176, Control_c, 0, 64, 127
2, 82176, Note_on_c, 0, 62, 80
2, 82268, Note_off_c, 0, 62, 100
2, 82272, Note_on_c, 0, 58, 80
2, 82364, Note_off_c, 0, 58, 100
2, 82368, Note_on_c, 0, 65, 80
2, 82460, Note_off_c, 0, 65, 100
2, 82464, Note_on_c, 0, 62, 80
2, 82552, Control_c, 0, 64, 0
2, 82556, Note_off_c, 0, 62, 100
2, 82560, Control_c, 0, 64, 127
2, 82560, Note_on_c, 0, 70, 80
2, 82652, Note_off_c, 0, 70, 100
2, 82656, Note_on_c, 0, 65, 80
2, 82748, Note_off_c, 0, 65, 100
2, 82752, Note_on_c, 0, 74, 80
2, 82844, Note_off_c, 0, 74, 100
2, 82848, Note_on_c, 0, 70, 80
2, 82936, Control_c, 0, 64, 0
2, 82940, Note_off_c, 0, 70, 100
2, 82944, Control_c, 0, 64, 127
2, 82944, Note_on_c, 0, 65, 80
2, 83036, Note_off_c, 0, 65, 100
2, 83040, Note_on_c, 0, 62, 80
2, 83132, Note_off_c, 0, 62, 100
2, 83136, Note_on_c, 0, 70, 80
2, 83228, Note_off_c, 0, 70, 100
2, 83232, Note_on_c, 0, 65, 80
2, 83320, Control_c, 0, 64, 0
2, 83324, Note_off_c, 0, 65, 100
2, 83328, Control_c, 0, 64, 127
2, 83328, Note_on_c, 0, 74, 80
2, 83420, Note_off_c, 0, 74, 100
2, 83424, Note_on_c, 0, 70, 80
2, 83516, Note_off_c, 0, 70, 100
2, 83520, Note_on_c, 0, 77, 80
2, 83612, Note_off_c, 0, 77, 100
2, 83616, Note_on_c, 0, 74, 80
2, 83704, Control_c, 0, 64, 0
2, 83708, Note_off_c, 0, 74, 100
2, 83712, Control_c, 0, 64, 127
2, 83712, Note_on_c, 0, 70, 80
2, 83804, Note_off_c, 0, 70, 100
2, 83808, Note_on_c, 0, 65, 80
2, 83900, Note_off_c, 0, 65, 100
2, 83904, Note_on_c, 0, 74, 80
2, 83996, Note_off_c, 0, 74, 100
2, 84000, Note_on_c, 0, 70, 80
2, 84088, Control_c, 0, 64, 0
2, 84092, Note_off_c, 0, 70, 100
2, 84096, Control_c, 0, 64, 127
2, 84096, Note_on_c, 0, 77, 80
2, 84188, Note_off_c, 0, 77, 100
2, 84192, Note_on_c, 0, 74, 80
2, 84284, Note_off_c, 0, 74, 100
2, 84288, Note_on_c, 0, 82, 80
2, 84380, Note_off_c, 0, 82, 100
2, 84384, Note_on_c, 0, 77, 80
2, 84472, Control_c, 0, 64, 0
2, 84476, Note_off_c, 0, 77, 100
2, 84480, Control_c, 0, 64, 127
2, 84480, Note_on_c, 0, 74, 80
2, 84572, Note_off_c, 0, 74, 100
2, 84576, Note_on_c, 0, 70, 80
2, 84668, Note_off_c, 0, 70, 100
2, 84672, Note_on_c, 0, 77, 80
2, 84764, Note_off_c, 0, 77, 100
2, 84768, Note_on_c, 0, 74, 80
2, 84856, Control_c, 0, 64, 0
2, 84860, Note_off_c, 0, 74, 100
2, 84864, Control_c, 0, 64, 127
2, 84864, Note_on_c, 0, 82, 80
2, 84956, Note_off_c, 0, 82, 100
2, 84960, Note_on_c, 0, 77, 80
2, 85052, Note_off_c, 0, 77, 100
2, 85056, Note_on_c, 0, 86, 80
2, 85148, Note_off_c, 0, 86, 100
2, 85152, Note_on_c, 0, 82, 80
2, 85240, Control_c, 0, 64, 0
2, 85244, Note_off_c, 0, 82, 100
2, 85248, Note_on_c, 0, 89, 80
2, 85436, Note_off_c, 0, 89, 100
2, 85440, Note_on_c, 0, 77, 80
2, 85628, Note_off_c, 0, 77, 100
2, 85632, Note_on_c, 0, 82, 80
2, 85820, Note_off_c, 0, 82, 100
2, 85824, Note_on_c, 0, 86, 80
2, 86012, Note_off_c, 0, 86, 100
2, 86016, Note_on_c, 0, 89, 80
2, 86204, Note_off_c, 0, 89, 100
2, 86208, Note_on_c, 0, 65, 87
2, 86396, Note_off_c, 0, 65, 100
2, 86400, Note_on_c, 0, 70, 95
2, 86588, Note_off_c, 0, 70, 100
2, 86592, Note_on_c, 0, 74, 103
2, 86780, Note_off_c, 0, 74, 100
2, 86784, Note_on_c, 0, 77, 110
2, 86972, Note_off_c, 0, 77, 100
2, 86976, Note_on_c, 0, 53, 110
2, 87164, Note_off_c, 0, 53, 100
2, 87168, Note_on_c, 0, 58, 110
2, 87356, Note_off_c, 0, 58, 100
2, 87360, Note_on_c, 0, 62, 110
2, 87548, Note_off_c, 0, 62, 100
2, 87552, Note_on_c, 0, 65, 110
2, 87740, Note_off_c, 0, 65, 100
2, 87744, Note_on_c, 0, 70, 80
2, 87932, Note_off_c, 0, 70, 100
2, 87936, Note_on_c, 0, 74, 80
2, 88124, Note_off_c, 0, 74, 100
2, 88128, Note_on_c, 0, 77, 80
2, 88316, Note_off_c, 0, 77, 100
2, 88320, Note_on_c, 0, 75, 80
2, 88508, Note_off_c, 0, 75, 100
2, 88512, Note_on_c, 0, 74, 80
2, 88700, Note_off_c, 0, 74, 100
2, 88704, Note_on_c, 0, 72, 80
2, 88752, Note_on_c, 0, 74, 80
2, 88796, Note_off_c, 0, 72, 100
2, 88800, Note_on_c, 0, 72, 80
2, 88844, Note_off_c, 0, 74, 100
2, 88848, Note_on_c, 0, 74, 81
2, 88892, Note_off_c, 0, 72, 100
2, 88896, Note_on_c, 0, 72, 81
2, 88940, Note_off_c, 0, 74, 100
2, 88944, Note_on_c, 0, 74, 81
2, 88988, Note_off_c, 0, 72, 100
2, 88992, Note_on_c, 0, 72, 82
2, 89036, Note_off_c, 0, 74, 100
2, 89040, Note_on_c, 0, 74, 82
2, 89084, Note_off_c, 0, 72, 100
2, 89088, Note_on_c, 0, 72, 82
2, 89132, Note_off_c, 0, 74, 100
2, 89136, Note_on_c, 0, 74, 83
2, 89180, Note_off_c, 0, 72, 100
2, 89184, Note_on_c, 0, 72, 83
2, 89228, Note_off_c, 0, 74, 100
2, 89232, Note_on_c, 0, 74, 83
2, 89276, Note_off_c, 0, 72, 100
2, 89280, Note_on_c, 0, 72, 84
2, 89324, Note_off_c, 0, 74, 100
2, 89328, Note_on_c, 0, 74, 84
2, 89372, Note_off_c, 0, 72, 100
2, 89376, Note_on_c, 0, 72, 84
2, 89420, Note_off_c, 0, 74, 100
2, 89424, Note_on_c, 0, 74, 85
2, 89468, Note_off_c, 0, 72, 100
2, 89472, Note_on_c, 0, 72, 85
2, 89516, Note_off_c, 0, 74, 100
2, 89520, Note_on_c, 0, 74, 85
2, 89564, Note_off_c, 0, 72, 100
2, 89568, Note_on_c, 0, 72, 86
2, 89612, Note_off_c, 0, 74, 100
2, 89616, Note_on_c, 0, 74, 86
2, 89660, Note_off_c, 0, 72, 100
2, 89664, Note_on_c, 0, 72, 86
2, 89708, Note_off_c, 0, 74, 100
2, 89712, Note_on_c, 0, 74, 87
2, 89756, Note_off_c, 0, 72, 100
2, 89760, Note_on_c, 0, 72, 87
2, 89804, Note_off_c, 0, 74, 100
2, 89808, Note_on_c, 0, 74, 87
2, 89852, Note_off_c, 0, 72, 100
2, 89856, Note_on_c, 0, 72, 88
2, 89900, Note_off_c, 0, 74, 100
2, 89904, Note_on_c, 0, 74, 88
2, 89948, Note_off_c, 0, 72, 100
2, 89952, Note_on_c, 0, 72, 88
2, 89996, Note_off_c, 0, 74, 100
2, 90000, Note_on_c, 0, 74, 89
2, 90044, Note_off_c, 0, 72, 100
2, 90048, Note_on_c, 0, 72, 89
2, 90092, Note_off_c, 0, 74, 100
2, 90096, Note_on_c, 0, 74, 89
2, 90140, Note_off_c, 0, 72, 100
2, 90144, Note_on_c, 0, 72, 90
2, 90188, Note_off_c, 0, 74, 100
2, 90192, Note_on_c, 0, 74, 90
2, 90236, Note_off_c, 0, 72, 100
2, 90240, Note_on_c, 0, 72, 90
2, 90284, Note_off_c, 0, 74, 100
2, 90288, Note_on_c, 0, 74, 91
2, 90332, Note_off_c, 0, 72, 100
2, 90336, Note_on_c, 0, 72, 91
2, 90380, Note_off_c, 0, 74, 100
2, 90384, Note_on_c, 0, 74, 91
2, 90428, Note_off_c, 0, 72, 100
2, 90432, Note_on_c, 0, 72, 92
2, 90476, Note_off_c, 0, 74, 100
2, 90480, Note_on_c, 0, 74, 92
2, 90524, Note_off_c, 0, 72, 100
2, 90528, Note_on_c, 0, 72, 92
2, 90572, Note_off_c, 0, 74, 100
2, 90576, Note_on_c, 0, 74, 93
2, 90620, Note_off_c, 0, 72, 100
2, 90624, Note_on_c, 0, 72, 93
2, 90668, Note_off_c, 0, 74, 100
2, 90672, Note_on_c, 0, 74, 93
2, 90716, Note_off_c, 0, 72, 100
2, 90720, Note_on_c, 0, 72, 94
2, 90764, Note_off_c, 0, 74, 100
2, 90768, Note_on_c, 0, 74, 94
2, 90812, Note_off_c, 0, 72, 100
2, 90816, Note_on_c, 0, 72, 94
2, 90860, Note_off_c, 0, 74, 100
2, 90864, Note_on_c, 0, 74, 95
2, 90908, Note_off_c, 0, 72, 100
2, 90912, Note_on_c, 0, 72, 95
2, 90956, Note_off_c, 0, 74, 100
2, 90960, Note_on_c, 0, 74, 95
2, 91004, Note_off_c, 0, 72, 100
2, 91008, Note_on_c, 0, 72, 96
2, 91052, Note_off_c, 0, 74, 100
2, 91056, Note_on_c, 0, 74, 96
2, 91100, Note_off_c, 0, 72, 100
2, 91104, Note_on_c, 0, 72, 96
2, 91148, Note_off_c, 0, 74, 100
2, 91152, Note_on_c, 0, 74, 97
2, 91196, Note_off_c, 0, 72, 100
2, 91200, Note_on_c, 0, 72, 97
2, 91244, Note_off_c, 0, 74, 100
2, 91248, Note_on_c, 0, 74, 97
2, 91292, Note_off_c, 0, 72, 100
2, 91296, Note_on_c, 0, 72, 98
2, 91340, Note_off_c, 0, 74, 100
2, 91344, Note_on_c, 0, 74, 98
2, 91388, Note_off_c, 0, 72, 100
2, 91392, Note_on_c, 0, 72, 98
2, 91436, Note_off_c, 0, 74, 100
2, 91440, Note_on_c, 0, 74, 99
2, 91484, Note_off_c, 0, 72, 100
2, 91488, Note_on_c, 0, 72, 99
2, 91532, Note_off_c, 0, 74, 100
2, 91536, Note_on_c, 0, 74, 99
2, 91580, Note_off_c, 0, 72, 100
2, 91584, Note_on_c, 0, 72, 100
2, 91628, Note_off_c, 0, 74, 100
2, 91632, Note_on_c, 0, 74, 100
2, 91676, Note_off_c, 0, 72, 100
2, 91680, Note_on_c, 0, 72, 100
2, 91724, Note_off_c, 0, 74, 100
2, 91728, Note_on_c, 0, 74, 101
2, 91772, Note_off_c, 0, 72, 100
2, 91776, Note_on_c, 0, 72, 101
2, 91820, Note_off_c, 0, 74, 100
2, 91824, Note_on_c, 0, 74, 101
2, 91868, Note_off_c, 0, 72, 100
2, 91872, Note_on_c, 0, 72, 102
2, 91916, Note_off_c, 0, 74, 100
2, 91920, Note_on_c, 0, 74, 102
2, 91964, Note_off_c, 0, 72, 100
2, 91968, Note_on_c, 0, 72, 102
2, 92012, Note_off_c, 0, 74, 100
2, 92016, Note_on_c, 0, 74, 103
2, 92060, Note_off_c, 0, 72, 100
2, 92064, Note_on_c, 0, 72, 103
2, 92108, Note_off_c, 0, 74, 100
2, 92112, Note_on_c, 0, 74, 103
2, 92156, Note_off_c, 0, 72, 100
2, 92160, Note_on_c, 0, 72, 104
2, 92204, Note_off_c, 0, 74, 100
2, 92208, Note_on_c, 0, 74, 104
2, 92252, Note_off_c, 0, 72, 100
2, 92256, Note_on_c, 0, 72, 104
2, 92300, Note_off_c, 0, 74, 100
2, 92304, Note_on_c, 0, 74, 105
2, 92348, Note_off_c, 0, 72, 100
2, 92352, Note_on_c, 0, 72, 105
2, 92396, Note_off_c, 0, 74, 100
2, 92400, Note_on_c, 0, 74, 105
2, 92444, Note_off_c, 0, 72, 100
2, 92448, Note_on_c, 0, 72, 106
2, 92492, Note_off_c, 0, 74, 100
2, 92496, Note_on_c, 0, 74, 106
2, 92540, Note_off_c, 0, 72, 100
2, 92544, Note_on_c, 0, 72, 106
2, 92588, Note_off_c, 0, 74, 100
2, 92592, Note_on_c, 0, 74, 107
2, 92636, Note_off_c, 0, 72, 100
2, 92640, Note_on_c, 0, 72, 107
2, 92684, Note_off_c, 0, 74, 100
2, 92688, Note_on_c, 0, 74, 107
2, 92732, Note_off_c, 0, 72, 100
2, 92736, Note_on_c, 0, 72, 108
2, 92780, Note_off_c, 0, 74, 100
2, 92784, Note_on_c, 0, 74, 108
2, 92828, Note_off_c, 0, 72, 100
2, 92832, Note_on_c, 0, 71, 108
2, 92876, Note_off_c, 0, 74, 100
2, 92880, Note_on_c, 0, 72, 109
2, 92924, Note_off_c, 0, 71, 100
2, 92928, Note_on_c, 0, 77, 109
2, 92972, Note_off_c, 0, 72, 100
2, 93116, Note_off_c, 0, 77, 100
2, 93120, Note_on_c, 0, 77, 110
2, 93308, Note_off_c, 0, 77, 100
2, 93312, Note_on_c, 0, 70, 80
2, 93500, Note_off_c, 0, 70, 100
2, 93504, Note_on_c, 0, 70, 80
2, 93692, Note_off_c, 0, 70, 100
2, 93696, Note_on_c, 0, 71, 80
2, 93884, Note_off_c, 0, 71, 100
2, 93888, Note_on_c, 0, 72, 80
2, 94076, Note_off_c, 0, 72, 100
2, 94080, Note_on_c, 0, 73, 80
2, 94268, Note_off_c, 0, 73, 100
2, 94272, Note_on_c, 0, 74, 80
2, 94460, Note_off_c, 0, 74, 100
2, 94464, Note_on_c, 0, 75, 80
2, 95612, Note_off_c, 0, 75, 100
2, 95616, Note_on_c, 0, 67, 80
2, 96764, Note_off_c, 0, 67, 100
2, 96768, Note_on_c, 0, 63, 80
2, 96768, Note_on_c, 0, 70, 80
2, 96956, Note_off_c, 0, 70, 100
2, 96960, Note_on_c, 0, 69, 80
2, 97148, Note_off_c, 0, 63, 100
2, 97148, Note_off_c, 0, 69, 100
2, 97152, Note_on_c, 0, 63, 80
2, 97152, Note_on_c, 0, 70, 80
2, 97196, Note_off_c, 0, 70, 100
2, 97196, Note_on_c, 0, 69, 80
2, 97340, Note_off_c, 0, 69, 100
2, 97344, Note_on_c, 0, 67, 80
2, 97532, Note_off_c, 0, 63, 100
2, 97532, Note_off_c, 0, 67, 100
2, 97536, Note_on_c, 0, 63, 80
2, 97536, Note_on_c, 0, 69, 80
2, 97724, Note_off_c, 0, 69, 100
2, 97728, Note_on_c, 0, 72, 80
2, 97916, Note_off_c, 0, 63, 100
2, 97916, Note_off_c, 0, 72, 100
2, 97920, Note_on_c, 0, 70, 80
2, 97920, Note_on_c, 0, 62, 80
2, 98108, Note_off_c, 0, 70, 100
2, 98112, Note_on_c, 0, 70, 80
2, 98300, Note_off_c, 0, 62, 100
2, 98300, Note_off_c, 0, 70, 100
2, 98304, Note_on_c, 0, 71, 80
2, 98492, Note_off_c, 0, 71, 100
2, 98496, Note_on_c, 0, 72, 80
2, 98684, Note_off_c, 0, 72, 100
2, 98688, Note_on_c, 0, 73, 80
2, 98876, Note_off_c, 0, 73, 100
2, 98880, Note_on_c, 0, 74, 80
2, 99068, Note_off_c, 0, 74, 100
2, 99072, Note_on_c, 0, 75, 80
2, 100220, Note_off_c, 0, 75, 100
2, 100224, Note_on_c, 0, 63, 80
2, 100224, Note_on_c, 0, 67, 80
2, 100988, Note_off_c, 0, 67, 100
2, 100992, Note_on_c, 0, 68, 80
2, 101180, Note_off_c, 0, 68, 100
2, 101184, Note_on_c, 0, 70, 80
2, 101372, Note_off_c, 0, 63, 100
2, 101372, Note_off_c, 0, 70, 100
2, 101376, Note_on_c, 0, 72, 80
2, 101376, Note_on_c, 0, 63, 80
2, 101376, Note_on_c, 0, 60, 80
2, 101660, Note_off_c, 0, 72, 100
2, 101664, Note_on_c, 0, 65, 80
2, 101756, Note_off_c, 0, 65, 100
2, 101760, Note_on_c, 0, 65, 80
2, 102140, Note_off_c, 0, 63, 100
2, 102140, Note_off_c, 0, 60, 100
2, 102140, Note_off_c, 0, 65, 100
2, 102528, Note_on_c, 0, 72, 80
2, 102528, Note_on_c, 0, 63, 80
2, 102528, Note_on_c, 0, 60, 80
2, 102812, Note_off_c, 0, 72, 100
2, 102816, Note_on_c, 0, 65, 80
2, 102908, Note_off_c, 0, 65, 100
2, 102912, Note_on_c, 0, 65, 80
2, 103292, Note_off_c, 0, 63, 100
2, 103292, Note_off_c, 0, 60, 100
2, 103292, Note_off_c, 0, 65, 100
2, 103680, Note_on_c, 0, 65, 80
2, 103680, Note_on_c, 0, 63, 80
2, 103680, Note_on_c, 0, 60, 80
2, 104060, Note_off_c, 0, 65, 100
2, 104060, Note_off_c, 0, 63, 100
2, 104060, Note_off_c, 0, 60, 100
2, 104064, Note_on_c, 0, 65, 83
2, 104064, Note_on_c, 0, 63, 83
2, 104064, Note_on_c, 0, 60, 83
2, 104444, Note_off_c, 0, 65, 100
2, 104444, Note_off_c, 0, 63, 100
2, 104444, Note_off_c, 0, 60, 100
2, 104448, Note_on_c, 0, 65, 86
2, 104448, Note_on_c, 0, 63, 86
2, 104448, Note_on_c, 0, 60, 86
2, 104828, Note_off_c, 0, 65, 100
2, 104828, Note_off_c, 0, 63, 100
2, 104828, Note_off_c, 0, 60, 100
2, 104832, Note_on_c, 0, 66, 90
2, 104832, Note_on_c, 0, 63, 90
2, 104832, Note_on_c, 0, 60, 90
2, 105980, Note_off_c, 0, 66, 100
2, 105980, Note_off_c, 0, 63, 100
2, 105980, Note_off_c, 0, 60, 100
2, 105984, Note_on_c, 0, 66, 100
2, 105984, Note_on_c, 0, 63, 100
2, 105984, Note_on_c, 0, 60, 100
2, 106364, Note_off_c, 0, 66, 100
2, 106364, Note_off_c, 0, 63, 100
2, 106364, Note_off_c, 0, 60, 100
2, 106368, Note_on_c, 0, 66, 104
2, 106368, Note_on_c, 0, 63, 104
2, 106368, Note_on_c, 0, 60, 104
2, 106748, Note_off_c, 0, 66, 100
2, 106748, Note_off_c, 0, 63, 100
2, 106748, Note_off_c, 0, 60, 100
2, 106752, Note_on_c, 0, 66, 107
2, 106752, Note_on_c, 0, 63, 107
2, 106752, Note_on_c, 0, 60, 107
2, 107132, Note_off_c, 0, 66, 100
2, 107132, Note_off_c, 0, 63, 100
2, 107132, Note_off_c, 0, 60, 100
2, 107136, Note_on_c, 0, 67, 110
2, 107136, Note_on_c, 0, 63, 110
2, 107136, Note_on_c, 0, 58, 110
2, 108284, Note_off_c, 0, 67, 100
2, 108284, Note_off_c, 0, 63, 100
2, 108284, Note_off_c, 0, 58, 100
2, 108288, Note_on_c, 0, 62, 80
2, 108288, Note_on_c, 0, 56, 80
2, 108288, Note_on_c, 0, 67, 80
2, 108476, Note_off_c, 0, 67, 100
2, 108480, Note_on_c, 0, 65, 80
2, 108668, Note_off_c, 0, 62, 100
2, 108668, Note_off_c, 0, 56, 100
2, 108668, Note_off_c, 0, 65, 100
2, 108672, Note_on_c, 0, 62, 80
2, 108672, Note_on_c, 0, 56, 80
2, 108672, Note_on_c, 0, 65, 80
2, 108764, Note_off_c, 0, 65, 100
2, 108768, Note_on_c, 0, 67, 80
2, 108860, Note_off_c, 0, 67, 100
2, 108864, Note_on_c, 0, 65, 80
2, 108956, Note_off_c, 0, 65, 100
2, 108960, Note_on_c, 0, 64, 80
2, 109052, Note_off_c, 0, 62, 100
2, 109052, Note_off_c, 0, 56, 100
2, 109052, Note_off_c, 0, 64, 100
2, 109056, Note_on_c, 0, 62, 80
2, 109056, Note_on_c, 0, 56, 80
2, 109056, Note_on_c, 0, 65, 80
2, 109244, Note_off_c, 0, 65, 100
2, 109248, Note_on_c, 0, 67, 80
2, 109436, Note_off_c, 0, 62, 100
2, 109436, Note_off_c, 0, 56, 100
2, 109436, Note_off_c, 0, 67, 100
2, 109440, Note_on_c, 0, 63, 80
2, 109440, Note_on_c, 0, 55, 80
2, 109532, Note_off_c, 0, 63, 100
2, 109532, Note_off_c, 0, 55, 100
2, 109536, Note_on_c, 0, 65, 80
2, 109628, Note_off_c, 0, 65, 100
2, 109632, Note_on_c, 0, 63, 80
2, 109724, Note_off_c, 0, 63, 100
2, 109728, Note_on_c, 0, 62, 80
2, 109820, Note_off_c, 0, 62, 100
2, 109824, Note_on_c, 0, 63, 80
2, 109948, Note_off_c, 0, 63, 100
2, 109952, Note_on_c, 0, 65, 80
2, 110076, Note_off_c, 0, 65, 100
2, 110080, Note_on_c, 0, 67, 80
2, 110204, Note_off_c, 0, 67, 100
2, 110208, Note_on_c, 0, 68, 80
2, 110332, Note_off_c, 0, 68, 100
2, 110336, Note_on_c, 0, 70, 80
2, 110460, Note_off_c, 0, 70, 100
2, 110464, Note_on_c, 0, 72, 80
2, 110588, Note_off_c, 0, 72, 100
2, 110592, Note_on_c, 0, 74, 80
2, 110716, Note_off_c, 0, 74, 100
2, 110720, Note_on_c, 0, 75, 80
2, 110844, Note_off_c, 0, 75, 100
2, 110848, Note_on_c, 0, 77, 80
2, 110972, Note_off_c, 0, 77, 100
2, 110976, Note_on_c, 0, 78, 80
2, 111100, Note_off_c, 0, 78, 100
2, 111104, Note_on_c, 0, 79, 80
2, 111228, Note_off_c, 0, 79, 100
2, 111232, Note_on_c, 0, 80, 80
2, 111356, Note_off_c, 0, 80, 100
2, 111360, Note_on_c, 0, 81, 80
2, 111484, Note_off_c, 0, 81, 100
2, 111488, Note_on_c, 0, 82, 80
2, 111612, Note_off_c, 0, 82, 100
2, 111616, Note_on_c, 0, 83, 80
2, 111740, Note_off_c, 0, 83, 100
2, 111744, Note_on_c, 0, 84, 80
2, 112028, Note_off_c, 0, 84, 100
2, 112032, Note_on_c, 0, 77, 80
2, 112124, Note_off_c, 0, 77, 100
2, 112128, Note_on_c, 0, 77, 80
2, 112892, Note_off_c, 0, 77, 100
2, 112896, Note_on_c, 0, 71, 80
2, 112940, Note_off_c, 0, 71, 100
2, 112940, Note_on_c, 0, 72, 80
2, 113176, Note_off_c, 0, 72, 100
2, 113184, Note_on_c, 0, 65, 80
2, 113276, Note_off_c, 0, 65, 100
2, 113280, Note_on_c, 0, 65, 80
2, 114044, Note_off_c, 0, 65, 100
2, 114048, Note_on_c, 0, 53, 80
2, 114048, Note_on_c, 0, 51, 80
2, 114048, Note_on_c, 0, 48, 80
2, 114428, Note_off_c, 0, 53, 100
2, 114428, Note_off_c, 0, 51, 100
2, 114428, Note_off_c, 0, 48, 100
2, 114432, Note_on_c, 0, 53, 83
2, 114432, Note_on_c, 0, 51, 83
2, 114432, Note_on_c, 0, 48, 83
2, 114812, Note_off_c, 0, 53, 100
2, 114812, Note_off_c, 0, 51, 100
2, 114812, Note_off_c, 0, 48, 100
2, 114816, Note_on_c, 0, 53, 86
2, 114816, Note_on_c, 0, 51, 86
2, 114816, Note_on_c, 0, 48, 86
2, 115196, Note_off_c, 0, 53, 100
2, 115196, Note_off_c, 0, 51, 100
2, 115196, Note_off_c, 0, 48, 100
2, 115200, Note_on_c, 0, 54, 90
2, 115200, Note_on_c, 0, 51, 90
2, 115200, Note_on_c, 0, 48, 90
2, 116348, Note_off_c, 0, 54, 100
2, 116348, Note_off_c, 0, 51, 100
2, 116348, Note_off_c, 0, 48, 100
2, 116352, Note_on_c, 0, 78, 100
2, 116352, Note_on_c, 0, 75, 100
2, 116352, Note_on_c, 0, 72, 100
2, 116732, Note_off_c, 0, 78, 100
2, 116732, Note_off_c, 0, 75, 100
2, 116732, Note_off_c, 0, 72, 100
2, 116736, Note_on_c, 0, 78, 104
2, 116736, Note_on_c, 0, 75, 104
2, 116736, Note_on_c, 0, 72, 104
2, 117116, Note_off_c, 0, 78, 100
2, 117116, Note_off_c, 0, 75, 100
2, 117116, Note_off_c, 0, 72, 100
2, 117120, Note_on_c, 0, 78, 107
2, 117120, Note_on_c, 0, 75, 107
2, 117120, Note_on_c, 0, 72, 107
2, 117500, Note_off_c, 0, 78, 100
2, 117500, Note_off_c, 0, 75, 100
2, 117500, Note_off_c, 0, 72, 100
2, 117504, Note_on_c, 0, 79, 110
2, 117504, Note_on_c, 0, 75, 110
2, 118652, Note_off_c, 0, 79, 100
2, 118652, Note_off_c, 0, 75, 100
2, 118656, Note_on_c, 0, 62, 80
2, 118656, Note_on_c, 0, 56, 80
2, 118656, Note_on_c, 0, 67, 80
2, 118844, Note_off_c, 0, 67, 100
2, 118848, Note_on_c, 0, 65, 80
2, 119036, Note_off_c, 0, 62, 100
2, 119036, Note_off_c, 0, 56, 100
2, 119036, Note_off_c, 0, 65, 100
2, 119040, Note_on_c, 0, 62, 80
2, 119040, Note_on_c, 0, 56, 80
2, 119040, Note_on_c, 0, 65, 80
2, 119132, Note_off_c, 0, 65, 100
2, 119136, Note_on_c, 0, 67, 80
2, 119228, Note_off_c, 0, 67, 100
2, 119232, Note_on_c, 0, 65, 80
2, 119324, Note_off_c, 0, 65, 100
2, 119328, Note_on_c, 0, 64, 80
2, 119420, Note_off_c, 0, 62, 100
2, 119420, Note_off_c, 0, 56, 100
2, 119420, Note_off_c, 0, 64, 100
2, 119424, Note_on_c, 0, 62, 80
2, 119424, Note_on_c, 0, 56, 80
2, 119424, Note_on_c, 0, 65, 80
2, 119612, Note_off_c, 0, 65, 100
2, 119616, Note_on_c, 0, 67, 80
2, 119804, Note_off_c, 0, 62, 100
2, 119804, Note_off_c, 0, 56, 100
2, 119804, Note_off_c, 0, 67, 100
2, 119808, Note_on_c, 0, 63, 80
2, 119808, Note_on_c, 0, 55, 80
2, 120188, Note_off_c, 0, 63, 100
2, 120188, Note_off_c, 0, 55, 100
2, 120960, Note_on_c, 0, 86, 80
2, 121004, Note_off_c, 0, 86, 100
2, 121008, Note_on_c, 0, 87, 80
2, 121244, Note_off_c, 0, 87, 100
2, 121248, Note_on_c, 0, 80, 80
2, 121340, Note_off_c, 0, 80, 100
2, 121344, Note_on_c, 0, 80, 80
2, 121724, Note_off_c, 0, 80, 100
2, 122112, Note_on_c, 0, 74, 80
2, 122156, Note_off_c, 0, 74, 100
2, 122160, Note_on_c, 0, 75, 80
2, 122396, Note_off_c, 0, 75, 100
2, 122400, Note_on_c, 0, 67, 80
2, 122492, Note_off_c, 0, 67, 100
2, 122496, Note_on_c, 0, 67, 80
2, 122876, Note_off_c, 0, 67, 100
2, 123264, Note_on_c, 0, 75, 80
2, 123356, Note_off_c, 0, 75, 100
2, 123360, Note_on_c, 0, 65, 80
2, 123452, Note_off_c, 0, 65, 100
2, 123648, Note_on_c, 0, 75, 80
2, 123740, Note_off_c, 0, 75, 100
2, 123744, Note_on_c, 0, 65, 80
2, 123836, Note_off_c, 0, 65, 100
2, 124032, Note_on_c, 0, 74, 80
2, 124124, Note_off_c, 0, 74, 100
2, 124128, Note_on_c, 0, 65, 80
2, 124220, Note_off_c, 0, 65, 100
2, 124416, Note_on_c, 0, 75, 80
2, 124508, Note_off_c, 0, 75, 100
2, 124512, Note_on_c, 0, 63, 80
2, 124604, Note_off_c, 0, 63, 100
2, 125568, Note_on_c, 0, 87, 80
2, 125616, Note_on_c, 0, 89, 80
2, 125640, Note_off_c, 0, 87, 100
2, 125664, Note_on_c, 0, 87, 80
2, 125696, Note_off_c, 0, 89, 100
2, 125712, Note_on_c, 0, 89, 80
2, 125752, Note_off_c, 0, 87, 100
2, 125760, Note_on_c, 0, 87, 80
2, 125784, Note_off_c, 0, 89, 100
2, 125808, Note_on_c, 0, 89, 80
2, 125840, Note_off_c, 0, 87, 100
2, 125856, Note_on_c, 0, 86, 80
2, 125884, Note_off_c, 0, 89, 100
2, 125904, Note_on_c, 0, 87, 80
2, 125928, Note_off_c, 0, 86, 100
2, 125948, Note_off_c, 0, 87, 100
2, 125952, Note_on_c, 0, 80, 80
2, 126332, Note_off_c, 0, 80, 100
2, 126720, Note_on_c, 0, 75, 80
2, 126768, Note_on_c, 0, 77, 80
2, 126792, Note_off_c, 0, 75, 100
2, 126816, Note_on_c, 0, 75, 80
2, 126848, Note_off_c, 0, 77, 100
2, 126864, Note_on_c, 0, 77, 80
2, 126904, Note_off_c, 0, 75, 100
2, 126912, Note_on_c, 0, 75, 80
2, 126936, Note_off_c, 0, 77, 100
2, 126960, Note_on_c, 0, 77, 80
2, 126992, Note_off_c, 0, 75, 100
2, 127008, Note_on_c, 0, 74, 80
2, 127036, Note_off_c, 0, 77, 100
2, 127056, Note_on_c, 0, 75, 80
2, 127080, Note_off_c, 0, 74, 100
2, 127100, Note_off_c, 0, 75, 100
2, 127104, Note_on_c, 0, 67, 80
2, 127484, Note_off_c, 0, 67, 100
2, 127872, Note_on_c, 0, 75, 80
2, 127964, Note_off_c, 0, 75, 100
2, 127968, Note_on_c, 0, 65, 80
2, 128060, Note_off_c, 0, 65, 100
2, 128256, Note_on_c, 0, 75, 80
2, 128348, Note_off_c, 0, 75, 100
2, 128352, Note_on_c, 0, 65, 80
2, 128444, Note_off_c, 0, 65, 100
2, 128640, Note_on_c, 0, 74, 80
2, 128732, Note_off_c, 0, 74, 100
2, 128736, Note_on_c, 0, 65, 80
2, 128828, Note_off_c, 0, 65, 100
2, 129024, Note_on_c, 0, 63, 80
2, 129116, Note_off_c, 0, 63, 100
2, 129120, Note_on_c, 0, 65, 80
2, 129212, Note_off_c, 0, 65, 100
2, 129216, Note_on_c, 0, 63, 80
2, 129308, Note_off_c, 0, 63, 100
2, 129312, Note_on_c, 0, 62, 80
2, 129404, Note_off_c, 0, 62, 100
2, 129408, Note_on_c, 0, 63, 80
2, 129500, Note_off_c, 0, 63, 100
2, 129504, Note_on_c, 0, 65, 80
2, 129596, Note_off_c, 0, 65, 100
2, 129600, Note_on_c, 0, 67, 80
2, 129692, Note_off_c, 0, 67, 100
2, 129696, Note_on_c, 0, 68, 80
2, 129788, Note_off_c, 0, 68, 100
2, 129792, Note_on_c, 0, 70, 80
2, 129980, Note_off_c, 0, 70, 100
2, 129984, Note_on_c, 0, 67, 80
2, 130172, Note_off_c, 0, 67, 100
2, 130176, Note_on_c, 0, 65, 80
2, 130364, Note_off_c, 0, 65, 100
2, 130368, Note_on_c, 0, 68, 80
2, 130556, Note_off_c, 0, 68, 100
2, 130560, Note_on_c, 0, 62, 80
2, 130748, Note_off_c, 0, 62, 100
2, 130752, Note_on_c, 0, 65, 80
2, 130940, Note_off_c, 0, 65, 100
2, 130944, Note_on_c, 0, 58, 80
2, 131132, Note_off_c, 0, 58, 100
2, 131136, Note_on_c, 0, 62, 80
2, 131324, Note_off_c, 0, 62, 100
2, 131328, Note_on_c, 0, 63, 80
2, 131420, Note_off_c, 0, 63, 100
2, 131424, Note_on_c, 0, 65, 80
2, 131516, Note_off_c, 0, 65, 100
2, 131520, Note_on_c, 0, 63, 80
2, 131612, Note_off_c, 0, 63, 100
2, 131616, Note_on_c, 0, 62, 80
2, 131708, Note_off_c, 0, 62, 100
2, 131712, Note_on_c, 0, 63, 80
2, 131804, Note_off_c, 0, 63, 100
2, 131808, Note_on_c, 0, 65, 80
2, 131900, Note_off_c, 0, 65, 100
2, 131904, Note_on_c, 0, 67, 80
2, 131996, Note_off_c, 0, 67, 100
2, 132000, Note_on_c, 0, 68, 80
2, 132092, Note_off_c, 0, 68, 100
2, 132096, Note_on_c, 0, 72, 80
2, 132188, Note_off_c, 0, 72, 100
2, 132192, Note_on_c, 0, 70, 80
2, 132284, Note_off_c, 0, 70, 100
2, 132288, Note_on_c, 0, 68, 80
2, 132380, Note_off_c, 0, 68, 100
2, 132384, Note_on_c, 0, 67, 80
2, 132476, Note_off_c, 0, 67, 100
2, 132480, Note_on_c, 0, 65, 80
2, 132668, Note_off_c, 0, 65, 100
2, 132672, Note_on_c, 0, 68, 80
2, 132860, Note_off_c, 0, 68, 100
2, 132864, Note_on_c, 0, 62, 80
2, 133052, Note_off_c, 0, 62, 100
2, 133056, Note_on_c, 0, 65, 80
2, 133244, Note_off_c, 0, 65, 100
2, 133248, Note_on_c, 0, 58, 80
2, 133436, Note_off_c, 0, 58, 100
2, 133440, Note_on_c, 0, 62, 80
2, 133628, Note_off_c, 0, 62, 100
2, 133632, Note_on_c, 0, 63, 80
2, 133820, Note_off_c, 0, 63, 100
2, 133824, Note_on_c, 0, 67, 80
2, 134012, Note_off_c, 0, 67, 100
2, 134016, Note_on_c, 0, 60, 80
2, 134204, Note_off_c, 0, 60, 100
2, 134208, Note_on_c, 0, 63, 80
2, 134396, Note_off_c, 0, 63, 100
2, 134400, Note_on_c, 0, 57, 80
2, 134588, Note_off_c, 0, 57, 100
2, 134592, Note_on_c, 0, 60, 80
2, 134780, Note_off_c, 0, 60, 100
2, 134784, Note_on_c, 0, 53, 80
2, 134972, Note_off_c, 0, 53, 100
2, 134976, Note_on_c, 0, 57, 80
2, 135164, Note_off_c, 0, 57, 100
2, 135168, Note_on_c, 0, 60, 80
2, 135356, Note_off_c, 0, 60, 100
2, 135360, Note_on_c, 0, 64, 80
2, 135548, Note_off_c, 0, 64, 100
2, 135552, Note_on_c, 0, 65, 80
2, 135740, Note_off_c, 0, 65, 100
2, 135744, Note_on_c, 0, 57, 80
2, 135932, Note_off_c, 0, 57, 100
2, 135936, Note_on_c, 0, 58, 80
2, 136124, Note_off_c, 0, 58, 100
2, 136128, Note_on_c, 0, 62, 80
2, 136316, Note_off_c, 0, 62, 100
2, 136320, Note_on_c, 0, 65, 80
2, 136508, Note_off_c, 0, 65, 100
2, 136512, Note_on_c, 0, 69, 80
2, 136700, Note_off_c, 0, 69, 100
2, 136704, Note_on_c, 0, 70, 80
2, 136892, Note_off_c, 0, 70, 100
2, 136896, Note_on_c, 0, 69, 80
2, 137084, Note_off_c, 0, 69, 100
2, 137088, Note_on_c, 0, 70, 80
2, 137276, Note_off_c, 0, 70, 100
2, 137280, Note_on_c, 0, 69, 80
2, 137468, Note_off_c, 0, 69, 100
2, 137472, Note_on_c, 0, 70, 80
2, 137660, Note_off_c, 0, 70, 100
2, 137664, Note_on_c, 0, 69, 80
2, 137852, Note_off_c, 0, 69, 100
2, 137856, Note_on_c, 0, 70, 80
2, 138044, Note_off_c, 0, 70, 100
2, 138048, Note_on_c, 0, 70, 80
2, 138236, Note_off_c, 0, 70, 100
2, 138240, Note_on_c, 0, 71, 80
2, 138240, Note_on_c, 0, 63, 80
2, 138240, Note_on_c, 0, 59, 80
2, 138524, Note_off_c, 0, 71, 100
2, 138528, Note_on_c, 0, 65, 80
2, 138620, Note_off_c, 0, 65, 100
2, 138624, Note_on_c, 0, 65, 80
2, 139196, Note_off_c, 0, 65, 100
2, 139388, Note_off_c, 0, 63, 100
2, 139388, Note_off_c, 0, 59, 100
2, 139392, Note_on_c, 0, 71, 80
2, 139392, Note_on_c, 0, 63, 80
2, 139392, Note_on_c, 0, 59, 80
2, 139676, Note_off_c, 0, 71, 100
2, 139680, Note_on_c, 0, 65, 80
2, 139772, Note_off_c, 0, 65, 100
2, 139776, Note_on_c, 0, 65, 80
2, 140348, Note_off_c, 0, 65, 100
2, 140540, Note_off_c, 0, 63, 100
2, 140540, Note_off_c, 0, 59, 100
2, 140544, Note_on_c, 0, 65, 80
2, 140544, Note_on_c, 0, 63, 80
2, 140924, Note_off_c, 0, 65, 100
2, 140924, Note_off_c, 0, 63, 100
2, 140928, Note_on_c, 0, 65, 80
2, 140928, Note_on_c, 0, 63, 80
2, 141308, Note_off_c, 0, 65, 100
2, 141308, Note_off_c, 0, 63, 100
2, 141312, Note_on_c, 0, 66, 80
2, 141312, Note_on_c, 0, 63, 80
2, 141692, Note_off_c, 0, 66, 100
2, 141692, Note_off_c, 0, 63, 100
2, 141696, Note_on_c, 0, 63, 80
2, 141696, Note_on_c, 0, 68, 80
2, 142460, Note_off_c, 0, 63, 100
2, 142464, Note_on_c, 0, 62, 80
2, 142844, Note_off_c, 0, 68, 100
2, 142844, Note_off_c, 0, 62, 100
2, 142848, Note_on_c, 0, 77, 80
2, 142848, Note_on_c, 0, 75, 80
2, 143228, Note_off_c, 0, 77, 100
2, 143228, Note_off_c, 0, 75, 100
2, 143232, Note_on_c, 0, 77, 80
2, 143232, Note_on_c, 0, 75, 80
2, 143612, Note_off_c, 0, 77, 100
2, 143612, Note_off_c, 0, 75, 100
2, 143616, Note_on_c, 0, 78, 80
2, 143616, Note_on_c, 0, 75, 80
2, 143996, Note_off_c, 0, 78, 100
2, 143996, Note_off_c, 0, 75, 100
2, 144000, Note_on_c, 0, 75, 80
2, 144000, Note_on_c, 0, 80, 80
2, 144764, Note_off_c, 0, 75, 100
2, 144768, Note_on_c, 0, 74, 80
2, 145148, Note_off_c, 0, 80, 100
2, 145148, Note_off_c, 0, 74, 100
2, 145152, Note_on_c, 0, 67, 80
2, 145152, Note_on_c, 0, 65, 80
2, 145532, Note_off_c, 0, 67, 100
2, 145532, Note_off_c, 0, 65, 100
2, 145536, Note_on_c, 0, 67, 80
2, 145536, Note_on_c, 0, 65, 80
2, 145916, Note_off_c, 0, 67, 100
2, 145916, Note_off_c, 0, 65, 100
2, 145920, Note_on_c, 0, 68, 80
2, 145920, Note_on_c, 0, 65, 80
2, 146300, Note_off_c, 0, 68, 100
2, 146300, Note_off_c, 0, 65, 100
2, 146304, Note_on_c, 0, 65, 80
2, 146304, Note_on_c, 0, 70, 80
2, 147068, Note_off_c, 0, 65, 100
2, 147072, Note_on_c, 0, 64, 80
2, 147452, Note_off_c, 0, 70, 100
2, 147452, Note_off_c, 0, 64, 100
2, 147456, Note_on_c, 0, 79, 80
2, 147456, Note_on_c, 0, 77, 80
2, 147836, Note_off_c, 0, 79, 100
2, 147836, Note_off_c, 0, 77, 100
2, 147840, Note_on_c, 0, 79, 80
2, 147840, Note_on_c, 0, 77, 80
2, 148220, Note_off_c, 0, 79, 100
2, 148220, Note_off_c, 0, 77, 100
2, 148224, Note_on_c, 0, 80, 80
2, 148224, Note_on_c, 0, 77, 80
2, 148604, Note_off_c, 0, 80, 100
2, 148604, Note_off_c, 0, 77, 100
2, 148608, Note_on_c, 0, 77, 80
2, 148608, Note_on_c, 0, 82, 80
2, 149372, Note_off_c, 0, 77, 100
2, 149376, Note_on_c, 0, 76, 80
2, 149756, Note_off_c, 0, 82, 100
2, 149756, Note_off_c, 0, 76, 100
2, 149760, Note_on_c, 0, 85, 80
2, 150140, Note_off_c, 0, 85, 100
2, 150144, Note_on_c, 0, 76, 80
2, 150524, Note_off_c, 0, 76, 100
2, 150912, Note_on_c, 0, 89, 80
2, 151292, Note_off_c, 0, 89, 100
2, 151296, Note_on_c, 0, 77, 80
2, 151676, Note_off_c, 0, 77, 100
2, 153024, Note_on_c, 0, 77, 80
2, 153212, Note_off_c, 0, 77, 100
2, 153216, Note_on_c, 0, 82, 80
2, 153788, Note_off_c, 0, 82, 100
2, 153792, Note_on_c, 0, 81, 80
2, 153884, Note_off_c, 0, 81, 100
2, 153888, Note_on_c, 0, 82, 80
2, 153980, Note_off_c, 0, 82, 100
2, 153984, Note_on_c, 0, 84, 80
2, 154172, Note_off_c, 0, 84, 100
2, 154176, Note_on_c, 0, 82, 80
2, 154364, Note_off_c, 0, 82, 100
2, 154368, Note_on_c, 0, 77, 80
2, 154940, Note_off_c, 0, 77, 100
2, 154944, Note_on_c, 0, 79, 80
2, 155036, Note_off_c, 0, 79, 100
2, 155040, Note_on_c, 0, 77, 80
2, 155132, Note_off_c, 0, 77, 100
2, 155136, Note_on_c, 0, 75, 80
2, 155324, Note_off_c, 0, 75, 100
2, 155328, Note_on_c, 0, 74, 80
2, 155516, Note_off_c, 0, 74, 100
2, 155520, Note_on_c, 0, 78, 80
2, 155612, Note_off_c, 0, 78, 100
2, 155616, Note_on_c, 0, 79, 80
2, 155708, Note_off_c, 0, 79, 100
2, 155904, Note_on_c, 0, 78, 80
2, 155996, Note_off_c, 0, 78, 100
2, 156000, Note_on_c, 0, 79, 80
2, 156092, Note_off_c, 0, 79, 100
2, 156288, Note_on_c, 0, 74, 80
2, 156380, Note_off_c, 0, 74, 100
2, 156384, Note_on_c, 0, 75, 80
2, 156476, Note_off_c, 0, 75, 100
2, 156672, Note_on_c, 0, 71, 80
2, 156764, Note_off_c, 0, 71, 100
2, 156768, Note_on_c, 0, 72, 80
2, 156860, Note_off_c, 0, 72, 100
2, 157632, Note_on_c, 0, 84, 80
2, 157820, Note_off_c, 0, 84, 100
2, 157824, Note_on_c, 0, 87, 80
2, 158396, Note_off_c, 0, 87, 100
2, 158400, Note_on_c, 0, 89, 80
2, 158492, Note_off_c, 0, 89, 100
2, 158496, Note_on_c, 0, 87, 80
2, 158588, Note_off_c, 0, 87, 100
2, 158592, Note_on_c, 0, 86, 80
2, 158780, Note_off_c, 0, 86, 100
2, 158784, Note_on_c, 0, 84, 80
2, 158972, Note_off_c, 0, 84, 100
2, 158976, Note_on_c, 0, 82, 80
2, 159164, Note_off_c, 0, 82, 100
2, 159168, Note_on_c, 0, 81, 80
2, 159356, Note_off_c, 0, 81, 100
2, 159360, Note_on_c, 0, 79, 80
2, 159548, Note_off_c, 0, 79, 100
2, 159552, Note_on_c, 0, 77, 80
2, 159740, Note_off_c, 0, 77, 100
2, 159744, Note_on_c, 0, 75, 80
2, 159932, Note_off_c, 0, 75, 100
2, 159936, Note_on_c, 0, 72, 80
2, 160124, Note_off_c, 0, 72, 100
2, 160128, Note_on_c, 0, 70, 80
2, 160316, Note_off_c, 0, 70, 100
2, 160320, Note_on_c, 0, 74, 80
2, 160508, Note_off_c, 0, 74, 100
2, 160512, Note_on_c, 0, 67, 80
2, 160700, Note_off_c, 0, 67, 100
2, 160704, Note_on_c, 0, 75, 80
2, 160892, Note_off_c, 0, 75, 100
2, 160896, Note_on_c, 0, 69, 80
2, 161084, Note_off_c, 0, 69, 100
2, 161088, Note_on_c, 0, 72, 80
2, 161276, Note_off_c, 0, 72, 100
2, 161280, Note_on_c, 0, 70, 80
2, 161372, Note_off_c, 0, 70, 100
2, 161376, Note_on_c, 0, 62, 80
2, 161468, Note_off_c, 0, 62, 100
2, 161472, Note_on_c, 0, 65, 80
2, 161564, Note_off_c, 0, 65, 100
2, 161568, Note_on_c, 0, 63, 80
2, 161660, Note_off_c, 0, 63, 100
2, 161664, Note_on_c, 0, 62, 80
2, 161728, Note_off_c, 0, 62, 100
2, 161732, Note_on_c, 0, 63, 80
2, 161796, Note_off_c, 0, 63, 100
2, 161840, Note_on_c, 0, 65, 80
2, 161904, Note_off_c, 0, 65, 100
2, 161912, Note_on_c, 0, 67, 80
2, 161972, Note_on_c, 0, 69, 80
2, 161976, Note_off_c, 0, 67, 100
2, 162036, Note_off_c, 0, 69, 100
2, 162048, Note_on_c, 0, 70, 80
2, 162108, Note_off_c, 0, 70, 100
2, 162108, Note_on_c, 0, 69, 80
2, 162168, Note_off_c, 0, 69, 100
2, 162176, Note_on_c, 0, 72, 80
2, 162236, Note_off_c, 0, 72, 100
2, 162240, Note_on_c, 0, 70, 80
2, 162300, Note_off_c, 0, 70, 100
2, 162304, Note_on_c, 0, 74, 80
2, 162364, Note_off_c, 0, 74, 100
2, 162368, Note_on_c, 0, 72, 80
2, 162428, Note_off_c, 0, 72, 100
2, 162432, Note_on_c, 0, 70, 80
2, 162492, Note_off_c, 0, 70, 100
2, 162496, Note_on_c, 0, 69, 80
2, 162556, Note_off_c, 0, 69, 100
2, 162560, Note_on_c, 0, 67, 80
2, 162620, Note_off_c, 0, 67, 100
2, 162624, Note_on_c, 0, 65, 80
2, 162684, Note_off_c, 0, 65, 100
2, 162688, Note_on_c, 0, 67, 80
2, 162748, Note_off_c, 0, 67, 100
2, 162752, Note_on_c, 0, 63, 80
2, 162812, Note_off_c, 0, 63, 100
2, 162816, Note_on_c, 0, 62, 80
2, 162876, Note_off_c, 0, 62, 100
2, 162880, Note_on_c, 0, 65, 80
2, 162940, Note_off_c, 0, 65, 100
2, 162944, Note_on_c, 0, 63, 80
2, 163004, Note_off_c, 0, 63, 100
2, 163008, Note_on_c, 0, 65, 80
2, 163068, Note_off_c, 0, 65, 100
2, 163072, Note_on_c, 0, 67, 80
2, 163132, Note_off_c, 0, 67, 100
2, 163136, Note_on_c, 0, 69, 80
2, 163196, Note_off_c, 0, 69, 100
2, 163200, Note_on_c, 0, 70, 80
2, 163292, Note_off_c, 0, 70, 100
2, 163296, Note_on_c, 0, 69, 80
2, 163388, Note_off_c, 0, 69, 100
2, 163392, Note_on_c, 0, 67, 80
2, 163484, Note_off_c, 0, 67, 100
2, 163488, Note_on_c, 0, 65, 80
2, 163580, Note_off_c, 0, 65, 100
2, 163584, Note_on_c, 0, 67, 80
2, 163676, Note_off_c, 0, 67, 100
2, 163680, Note_on_c, 0, 69, 80
2, 163772, Note_off_c, 0, 69, 100
2, 163776, Note_on_c, 0, 70, 80
2, 163868, Note_off_c, 0, 70, 100
2, 163872, Note_on_c, 0, 72, 80
2, 163964, Note_off_c, 0, 72, 100
2, 163968, Note_on_c, 0, 74, 80
2, 164060, Note_off_c, 0, 74, 100
2, 164064, Note_on_c, 0, 72, 80
2, 164156, Note_off_c, 0, 72, 100
2, 164160, Note_on_c, 0, 70, 80
2, 164252, Note_off_c, 0, 70, 100
2, 164256, Note_on_c, 0, 69, 80
2, 164348, Note_off_c, 0, 69, 100
2, 164352, Note_on_c, 0, 70, 80
2, 164444, Note_off_c, 0, 70, 100
2, 164448, Note_on_c, 0, 72, 80
2, 164540, Note_off_c, 0, 72, 100
2, 164544, Note_on_c, 0, 74, 80
2, 164636, Note_off_c, 0, 74, 100
2, 164640, Note_on_c, 0, 75, 80
2, 164732, Note_off_c, 0, 75, 100
2, 164736, Note_on_c, 0, 79, 80
2, 164828, Note_off_c, 0, 79, 100
2, 164832, Note_on_c, 0, 77, 80
2, 164924, Note_off_c, 0, 77, 100
2, 164928, Note_on_c, 0, 75, 80
2, 165020, Note_off_c, 0, 75, 100
2, 165024, Note_on_c, 0, 74, 80
2, 165116, Note_off_c, 0, 74, 100
2, 165120, Note_on_c, 0, 77, 80
2, 165244, Note_off_c, 0, 77, 100
2, 165248, Note_on_c, 0, 75, 80
2, 165372, Note_off_c, 0, 75, 100
2, 165376, Note_on_c, 0, 74, 80
2, 165500, Note_off_c, 0, 74, 100
2, 165504, Note_on_c, 0, 75, 80
2, 165596, Note_off_c, 0, 75, 100
2, 165600, Note_on_c, 0, 77, 80
2, 165692, Note_off_c, 0, 77, 100
2, 165696, Note_on_c, 0, 79, 80
2, 165788, Note_off_c, 0, 79, 100
2, 165792, Note_on_c, 0, 81, 80
2, 165884, Note_off_c, 0, 81, 100
2, 165888, Note_on_c, 0, 82, 80
2, 166460, Note_off_c, 0, 82, 100
2, 166464, Note_on_c, 0, 81, 80
2, 166556, Note_off_c, 0, 81, 100
2, 166560, Note_on_c, 0, 82, 80
2, 166652, Note_off_c, 0, 82, 100
2, 166656, Note_on_c, 0, 81, 80
2, 166748, Note_off_c, 0, 81, 100
2, 166752, Note_on_c, 0, 82, 80
2, 166844, Note_off_c, 0, 82, 100
2, 166848, Note_on_c, 0, 84, 80
2, 166940, Note_off_c, 0, 84, 100
2, 166944, Note_on_c, 0, 82, 80
2, 167036, Note_off_c, 0, 82, 100
2, 167040, Note_on_c, 0, 77, 80
2, 167612, Note_off_c, 0, 77, 100
2, 167616, Note_on_c, 0, 76, 80
2, 167708, Note_off_c, 0, 76, 100
2, 167712, Note_on_c, 0, 77, 80
2, 167804, Note_off_c, 0, 77, 100
2, 167808, Note_on_c, 0, 79, 80
2, 167900, Note_off_c, 0, 79, 100
2, 167904, Note_on_c, 0, 77, 80
2, 167996, Note_off_c, 0, 77, 100
2, 168000, Note_on_c, 0, 75, 80
2, 168092, Note_off_c, 0, 75, 100
2, 168096, Note_on_c, 0, 74, 80
2, 168188, Note_off_c, 0, 74, 100
2, 168192, Note_on_c, 0, 78, 80
2, 168284, Note_off_c, 0, 78, 100
2, 168288, Note_on_c, 0, 79, 80
2, 168380, Note_off_c, 0, 79, 100
2, 168384, Note_on_c, 0, 78, 80
2, 168476, Note_off_c, 0, 78, 100
2, 168480, Note_on_c, 0, 79, 80
2, 168572, Note_off_c, 0, 79, 100
2, 168576, Note_on_c, 0, 78, 80
2, 168668, Note_off_c, 0, 78, 100
2, 168672, Note_on_c, 0, 79, 80
2, 168764, Note_off_c, 0, 79, 100
2, 168768, Note_on_c, 0, 78, 80
2, 168860, Note_off_c, 0, 78, 100
2, 168864, Note_on_c, 0, 79, 80
2, 168956, Note_off_c, 0, 79, 100
2, 168960, Note_on_c, 0, 74, 80
2, 169052, Note_off_c, 0, 74, 100
2, 169056, Note_on_c, 0, 75, 80
2, 169148, Note_off_c, 0, 75, 100
2, 169152, Note_on_c, 0, 74, 80
2, 169244, Note_off_c, 0, 74, 100
2, 169248, Note_on_c, 0, 75, 80
2, 169340, Note_off_c, 0, 75, 100
2, 169344, Note_on_c, 0, 71, 80
2, 169436, Note_off_c, 0, 71, 100
2, 169440, Note_on_c, 0, 72, 80
2, 169532, Note_off_c, 0, 72, 100
2, 169536, Note_on_c, 0, 71, 80
2, 169628, Note_off_c, 0, 71, 100
2, 169632, Note_on_c, 0, 72, 80
2, 169724, Note_off_c, 0, 72, 100
2, 170304, Note_on_c, 0, 84, 80
2, 170492, Note_off_c, 0, 84, 100
2, 170496, Note_on_c, 0, 87, 80
2, 171068, Note_off_c, 0, 87, 100
2, 171072, Note_on_c, 0, 86, 80
2, 171164, Note_off_c, 0, 86, 100
2, 171168, Note_on_c, 0, 87, 80
2, 171260, Note_off_c, 0, 87, 100
2, 171264, Note_on_c, 0, 89, 80
2, 171356, Note_off_c, 0, 89, 100
2, 171360, Note_on_c, 0, 87, 80
2, 171452, Note_off_c, 0, 87, 100
2, 171456, Note_on_c, 0, 86, 80
2, 171548, Note_off_c, 0, 86, 100
2, 171552, Note_on_c, 0, 84, 80
2, 171644, Note_off_c, 0, 84, 100
2, 171648, Note_on_c, 0, 82, 80
2, 171740, Note_off_c, 0, 82, 100
2, 171744, Note_on_c, 0, 81, 80
2, 171836, Note_off_c, 0, 81, 100
2, 171840, Note_on_c, 0, 86, 80
2, 171932, Note_off_c, 0, 86, 100
2, 171936, Note_on_c, 0, 84, 80
2, 172028, Note_off_c, 0, 84, 100
2, 172032, Note_on_c, 0, 82, 80
2, 172124, Note_off_c, 0, 82, 100
2, 172128, Note_on_c, 0, 81, 80
2, 172220, Note_off_c, 0, 81, 100
2, 172224, Note_on_c, 0, 79, 80
2, 172316, Note_off_c, 0, 79, 100
2, 172320, Note_on_c, 0, 77, 80
2, 172412, Note_off_c, 0, 77, 100
2, 172416, Note_on_c, 0, 75, 80
2, 172508, Note_off_c, 0, 75, 100
2, 172512, Note_on_c, 0, 74, 80
2, 172604, Note_off_c, 0, 74, 100
2, 172608, Note_on_c, 0, 75, 80
2, 172700, Note_off_c, 0, 75, 100
2, 172704, Note_on_c, 0, 72, 80
2, 172892, Note_off_c, 0, 72, 100
2, 172896, Note_on_c, 0, 70, 80
2, 172988, Note_off_c, 0, 70, 100
2, 172992, Note_on_c, 0, 74, 80
2, 173276, Note_off_c, 0, 74, 100
2, 173280, Note_on_c, 0, 67, 80
2, 173372, Note_off_c, 0, 67, 100
2, 173376, Note_on_c, 0, 75, 80
2, 173660, Note_off_c, 0, 75, 100
2, 173664, Note_on_c, 0, 69, 80
2, 173756, Note_off_c, 0, 69, 100
2, 173760, Note_on_c, 0, 72, 80
2, 173948, Note_off_c, 0, 72, 100
2, 173952, Note_on_c, 0, 70, 80
2, 174140, Note_off_c, 0, 70, 100
2, 174336, Note_on_c, 0, 55, 80
2, 174428, Note_off_c, 0, 55, 100
2, 174432, Note_on_c, 0, 57, 80
2, 174524, Note_off_c, 0, 57, 100
2, 174528, Note_on_c, 0, 58, 80
2, 174620, Note_off_c, 0, 58, 100
2, 174624, Note_on_c, 0, 60, 80
2, 174716, Note_off_c, 0, 60, 100
2, 174720, Note_on_c, 0, 62, 80
2, 174812, Note_off_c, 0, 62, 100
2, 174816, Note_on_c, 0, 63, 80
2, 174908, Note_off_c, 0, 63, 100
2, 174912, Note_on_c, 0, 65, 80
2, 175004, Note_off_c, 0, 65, 100
2, 175008, Note_on_c, 0, 67, 80
2, 175100, Note_off_c, 0, 67, 100
2, 175104, Note_on_c, 0, 65, 80
2, 175868, Note_off_c, 0, 65, 100
2, 175872, Note_on_c, 0, 63, 80
2, 175920, Note_on_c, 0, 65, 80
2, 175944, Note_off_c, 0, 63, 100
2, 175968, Note_on_c, 0, 63, 80
2, 175996, Note_off_c, 0, 65, 100
2, 176016, Note_on_c, 0, 65, 80
2, 176048, Note_off_c, 0, 63, 100
2, 176064, Note_on_c, 0, 63, 80
2, 176092, Note_off_c, 0, 65, 100
2, 176112, Note_on_c, 0, 65, 80
2, 176148, Note_off_c, 0, 63, 100
2, 176160, Note_on_c, 0, 62, 80
2, 176196, Note_off_c, 0, 65, 100
2, 176208, Note_on_c, 0, 63, 80
2, 176236, Note_off_c, 0, 62, 100
2, 176252, Note_off_c, 0, 63, 100
2, 176256, Note_on_c, 0, 62, 80
2, 176348, Note_off_c, 0, 62, 100
2, 176640, Note_on_c, 0, 67, 80
2, 176732, Note_off_c, 0, 67, 100
2, 176736, Note_on_c, 0, 69, 80
2, 176828, Note_off_c, 0, 69, 100
2, 176832, Note_on_c, 0, 70, 80
2, 176924, Note_off_c, 0, 70, 100
2, 176928, Note_on_c, 0, 72, 80
2, 177020, Note_off_c, 0, 72, 100
2, 177024, Note_on_c, 0, 74, 80
2, 177116, Note_off_c, 0, 74, 100
2, 177120, Note_on_c, 0, 75, 80
2, 177212, Note_off_c, 0, 75, 100
2, 177216, Note_on_c, 0, 77, 80
2, 177308, Note_off_c, 0, 77, 100
2, 177312, Note_on_c, 0, 79, 80
2, 177404, Note_off_c, 0, 79, 100
2, 177408, Note_on_c, 0, 77, 80
2, 178172, Note_off_c, 0, 77, 100
2, 178176, Note_on_c, 0, 75, 80
2, 178224, Note_on_c, 0, 77, 80
2, 178248, Note_off_c, 0, 75, 100
2, 178272, Note_on_c, 0, 75, 80
2, 178300, Note_off_c, 0, 77, 100
2, 178320, Note_on_c, 0, 77, 80
2, 178352, Note_off_c, 0, 75, 100
2, 178368, Note_on_c, 0, 75, 80
2, 178396, Note_off_c, 0, 77, 100
2, 178416, Note_on_c, 0, 77, 80
2, 178452, Note_off_c, 0, 75, 100
2, 178464, Note_on_c, 0, 74, 80
2, 178500, Note_off_c, 0, 77, 100
2, 178512, Note_on_c, 0, 75, 80
2, 178540, Note_off_c, 0, 74, 100
2, 178556, Note_off_c, 0, 75, 100
2, 178560, Note_on_c, 0, 74, 80
2, 178940, Note_off_c, 0, 74, 100
2, 178944, Note_on_c, 0, 72, 80
2, 178992, Note_on_c, 0, 74, 80
2, 179036, Note_off_c, 0, 72, 100
2, 179040, Note_on_c, 0, 72, 80
2, 179084, Note_off_c, 0, 74, 100
2, 179088, Note_on_c, 0, 74, 81
2, 179132, Note_off_c, 0, 72, 100
2, 179136, Note_on_c, 0, 72, 81
2, 179180, Note_off_c, 0, 74, 100
2, 179184, Note_on_c, 0, 74, 81
2, 179228, Note_off_c, 0, 72, 100
2, 179232, Note_on_c, 0, 71, 82
2, 179276, Note_off_c, 0, 74, 100
2, 179280, Note_on_c, 0, 72, 82
2, 179324, Note_off_c, 0, 71, 100
2, 179328, Note_on_c, 0, 70, 82
2, 179372, Note_off_c, 0, 72, 100
2, 179708, Note_off_c, 0, 70, 100
2, 179712, Note_on_c, 0, 68, 85
2, 179760, Note_on_c, 0, 70, 86
2, 179804, Note_off_c, 0, 68, 100
2, 179808, Note_on_c, 0, 68, 86
2, 179852, Note_off_c, 0, 70, 100
2, 179856, Note_on_c, 0, 70, 86
2, 179900, Note_off_c, 0, 68, 100
2, 179904, Note_on_c, 0, 68, 87
2, 179948, Note_off_c, 0, 70, 100
2, 179952, Note_on_c, 0, 70, 87
2, 179996, Note_off_c, 0, 68, 100
2, 180000, Note_on_c, 0, 67, 87
2, 180044, Note_off_c, 0, 70, 100
2, 180048, Note_on_c, 0, 68, 88
2, 180092, Note_off_c, 0, 67, 100
2, 180096, Note_on_c, 0, 67, 88
2, 180140, Note_off_c, 0, 68, 100
2, 180476, Note_off_c, 0, 67, 100
2, 180480, Note_on_c, 0, 65, 91
2, 180524, Note_off_c, 0, 65, 100
2, 180528, Note_on_c, 0, 67, 91
2, 180572, Note_off_c, 0, 67, 100
2, 180576, Note_on_c, 0, 65, 92
2, 180620, Note_off_c, 0, 65, 100
2, 180624, Note_on_c, 0, 67, 92
2, 180668, Note_off_c, 0, 67, 100
2, 180672, Note_on_c, 0, 65, 92
2, 180716, Note_off_c, 0, 65, 100
2, 180720, Note_on_c, 0, 67, 93
2, 180764, Note_off_c, 0, 67, 100
2, 180768, Note_on_c, 0, 64, 93
2, 180812, Note_off_c, 0, 64, 100
2, 180816, Note_on_c, 0, 65, 94
2, 180860, Note_off_c, 0, 65, 100
2, 180864, Note_on_c, 0, 64, 94
2, 181244, Note_off_c, 0, 64, 100
2, 181248, Note_on_c, 0, 63, 97
2, 181296, Note_on_c, 0, 65, 97
2, 181340, Note_off_c, 0, 63, 100
2, 181344, Note_on_c, 0, 63, 98
2, 181388, Note_off_c, 0, 65, 100
2, 181392, Note_on_c, 0, 65, 98
2, 181436, Note_off_c, 0, 63, 100
2, 181440, Note_on_c, 0, 63, 98
2, 181484, Note_off_c, 0, 65, 100
2, 181488, Note_on_c, 0, 65, 99
2, 181532, Note_off_c, 0, 63, 100
2, 181536, Note_on_c, 0, 62, 99
2, 181580, Note_off_c, 0, 65, 100
2, 181584, Note_on_c, 0, 63, 99
2, 181628, Note_off_c, 0, 62, 100
2, 181632, Note_on_c, 0, 62, 100
2, 181676, Note_off_c, 0, 63, 100
2, 182012, Note_off_c, 0, 62, 100
2, 182016, Note_on_c, 0, 63, 103
2, 182064, Note_on_c, 0, 65, 103
2, 182108, Note_off_c, 0, 63, 100
2, 182112, Note_on_c, 0, 63, 103
2, 182156, Note_off_c, 0, 65, 100
2, 182160, Note_on_c, 0, 65, 104
2, 182204, Note_off_c, 0, 63, 100
2, 182208, Note_on_c, 0, 63, 104
2, 182252, Note_off_c, 0, 65, 100
2, 182256, Note_on_c, 0, 65, 104
2, 182300, Note_off_c, 0, 63, 100
2, 182304, Note_on_c, 0, 62, 105
2, 182348, Note_off_c, 0, 65, 100
2, 182352, Note_on_c, 0, 63, 105
2, 182396, Note_off_c, 0, 62, 100
2, 182400, Note_on_c, 0, 62, 105
2, 182444, Note_off_c, 0, 63, 100
2, 182780, Note_off_c, 0, 62, 100
2, 182784, Note_on_c, 0, 63, 108
2, 182832, Note_on_c, 0, 65, 109
2, 182876, Note_off_c, 0, 63, 100
2, 182880, Note_on_c, 0, 63, 109
2, 182924, Note_off_c, 0, 65, 100
2, 182928, Note_on_c, 0, 65, 109
2, 182972, Note_off_c, 0, 63, 100
2, 182976, Note_on_c, 0, 63, 110
2, 183020, Note_off_c, 0, 65, 100
2, 183024, Note_on_c, 0, 65, 110
2, 183068, Note_off_c, 0, 63, 100
2, 183072, Note_on_c, 0, 62, 110
2, 183116, Note_off_c, 0, 65, 100
2, 183120, Note_on_c, 0, 63, 80
2, 183164, Note_off_c, 0, 62, 100
2, 183168, Control_c, 0, 64, 127
2, 183168, Note_on_c, 0, 62, 80
2, 183212, Note_off_c, 0, 63, 100
2, 183260, Note_off_c, 0, 62, 100
2, 183264, Note_on_c, 0, 58, 80
2, 183356, Note_off_c, 0, 58, 100
2, 183360, Note_on_c, 0, 53, 80
2, 183452, Note_off_c, 0, 53, 100
2, 183456, Note_on_c, 0, 58, 80
2, 183544, Control_c, 0, 64, 0
2, 183548, Note_off_c, 0, 58, 100
2, 183552, Control_c, 0, 64, 127
2, 183552, Note_on_c, 0, 62, 80
2, 183644, Note_off_c, 0, 62, 100
2, 183648, Note_on_c, 0, 58, 80
2, 183740, Note_off_c, 0, 58, 100
2, 183744, Note_on_c, 0, 65, 80
2, 183836, Note_off_c, 0, 65, 100
2, 183840, Note_on_c, 0, 62, 80
2, 183928, Control_c, 0, 64, 0
2, 183932, Note_off_c, 0, 62, 100
2, 183936, Control_c, 0, 64, 127
2, 183936, Note_on_c, 0, 70, 80
2, 184028, Note_off_c, 0, 70, 100
2, 184032, Note_on_c, 0, 65, 80
2, 184124, Note_off_c, 0, 65, 100
2, 184128, Note_on_c, 0, 74, 80
2, 184220, Note_off_c, 0, 74, 100
2, 184224, Note_on_c, 0, 70, 80
2, 184312, Control_c, 0, 64, 0
2, 184316, Note_off_c, 0, 70, 100
2, 184320, Control_c, 0, 64, 127
2, 184320, Note_on_c, 0, 65, 80
2, 184412, Note_off_c, 0, 65, 100
2, 184416, Note_on_c, 0, 62, 80
2, 184508, Note_off_c, 0, 62, 100
2, 184512, Note_on_c, 0, 70, 80
2, 184604, Note_off_c, 0, 70, 100
2, 184608, Note_on_c, 0, 65, 80
2, 184696, Control_c, 0, 64, 0
2, 184700, Note_off_c, 0, 65, 100
2, 184704, Control_c, 0, 64, 127
2, 184704, Note_on_c, 0, 74, 80
2, 184796, Note_off_c, 0, 74, 100
2, 184800, Note_on_c, 0, 70, 80
2, 184892, Note_off_c, 0, 70, 100
2, 184896, Note_on_c, 0, 77, 80
2, 184988, Note_off_c, 0, 77, 100
2, 184992, Note_on_c, 0, 74, 80
2, 185080, Control_c, 0, 64, 0
2, 185084, Note_off_c, 0, 74, 100
2, 185088, Control_c, 0, 64, 127
2, 185088, Note_on_c, 0, 70, 80
2, 185180, Note_off_c, 0, 70, 100
2, 185184, Note_on_c, 0, 65, 80
2, 185276, Note_off_c, 0, 65, 100
2, 185280, Note_on_c, 0, 74, 80
2, 185372, Note_off_c, 0, 74, 100
2, 185376, Note_on_c, 0, 70, 80
2, 185464, Control_c, 0, 64, 0
2, 185468, Note_off_c, 0, 70, 100
2, 185472, Control_c, 0, 64, 127
2, 185472, Note_on_c, 0, 77, 80
2, 185564, Note_off_c, 0, 77, 100
2, 185568, Note_on_c, 0, 74, 80
2, 185660, Note_off_c, 0, 74, 100
2, 185664, Note_on_c, 0, 82, 80
2, 185756, Note_off_c, 0, 82, 100
2, 185760, Note_on_c, 0, 77, 80
2, 185848, Control_c, 0, 64, 0
2, 185852, Note_off_c, 0, 77, 100
2, 185856, Control_c, 0, 64, 127
2, 185856, Note_on_c, 0, 74, 80
2, 185948, Note_off_c, 0, 74, 100
2, 185952, Note_on_c, 0, 70, 80
2, 186044, Note_off_c, 0, 70, 100
2, 186048, Note_on_c, 0, 77, 80
2, 186140, Note_off_c, 0, 77, 100
2, 186144, Note_on_c, 0, 74, 80
2, 186232, Control_c, 0, 64, 0
2, 186236, Note_off_c, 0, 74, 100
2, 186240, Control_c, 0, 64, 127
2, 186240, Note_on_c, 0, 82, 80
2, 186332, Note_off_c, 0, 82, 100
2, 186336, Note_on_c, 0, 77, 80
2, 186428, Note_off_c, 0, 77, 100
2, 186432, Note_on_c, 0, 86, 80
2, 186524, Note_off_c, 0, 86, 100
2, 186528, Note_on_c, 0, 82, 80
2, 186616, Control_c, 0, 64, 0
2, 186620, Note_off_c, 0, 82, 100
2, 186624, Note_on_c, 0, 89, 80
2, 186812, Note_off_c, 0, 89, 100
2, 186816, Note_on_c, 0, 77, 80
2, 187004, Note_off_c, 0, 77, 100
2, 187008, Note_on_c, 0, 82, 80
2, 187196, Note_off_c, 0, 82, 100
2, 187200, Note_on_c, 0, 86, 80
2, 187388, Note_off_c, 0, 86, 100
2, 187392, Note_on_c, 0, 89, 80
2, 187580, Note_off_c, 0, 89, 100
2, 187584, Note_on_c, 0, 65, 87
2, 187772, Note_off_c, 0, 65, 100
2, 187776, Note_on_c, 0, 70, 95
2, 187964, Note_off_c, 0, 70, 100
2, 187968, Note_on_c, 0, 74, 103
2, 188156, Note_off_c, 0, 74, 100
2, 188160, Note_on_c, 0, 77, 110
2, 188348, Note_off_c, 0, 77, 100
2, 188352, Note_on_c, 0, 53, 110
2, 188540, Note_off_c, 0, 53, 100
2, 188544, Note_on_c, 0, 58, 110
2, 188732, Note_off_c, 0, 58, 100
2, 188736, Note_on_c, 0, 62, 110
2, 188924, Note_off_c, 0, 62, 100
2, 188928, Note_on_c, 0, 65, 110
2, 189116, Note_off_c, 0, 65, 100
2, 189120, Note_on_c, 0, 70, 80
2, 189308, Note_off_c, 0, 70, 100
2, 189312, Note_on_c, 0, 74, 80
2, 189500, Note_off_c, 0, 74, 100
2, 189504, Note_on_c, 0, 77, 80
2, 189692, Note_off_c, 0, 77, 100
2, 189696, Note_on_c, 0, 75, 80
2, 189884, Note_off_c, 0, 75, 100
2, 189888, Note_on_c, 0, 74, 80
2, 190076, Note_off_c, 0, 74, 100
2, 190080, Note_on_c, 0, 72, 80
2, 190128, Note_on_c, 0, 74, 80
2, 190172, Note_off_c, 0, 72, 100
2, 190176, Note_on_c, 0, 72, 80
2, 190220, Note_off_c, 0, 74, 100
2, 190224, Note_on_c, 0, 74, 81
2, 190268, Note_off_c, 0, 72, 100
2, 190272, Note_on_c, 0, 72, 81
2, 190316, Note_off_c, 0, 74, 100
2, 190320, Note_on_c, 0, 74, 81
2, 190364, Note_off_c, 0, 72, 100
2, 190368, Note_on_c, 0, 72, 82
2, 190412, Note_off_c, 0, 74, 100
2, 190416, Note_on_c, 0, 74, 82
2, 190460, Note_off_c, 0, 72, 100
2, 190464, Note_on_c, 0, 72, 82
2, 190508, Note_off_c, 0, 74, 100
2, 190512, Note_on_c, 0, 74, 83
2, 190556, Note_off_c, 0, 72, 100
2, 190560, Note_on_c, 0, 72, 83
2, 190604, Note_off_c, 0, 74, 100
2, 190608, Note_on_c, 0, 74, 83
2, 190652, Note_off_c, 0, 72, 100
2, 190656, Note_on_c, 0, 72, 84
2, 190700, Note_off_c, 0, 74, 100
2, 190704, Note_on_c, 0, 74, 84
2, 190748, Note_off_c, 0, 72, 100
2, 190752, Note_on_c, 0, 72, 84
2, 190796, Note_off_c, 0, 74, 100
2, 190800, Note_on_c, 0, 74, 85
2, 190844, Note_off_c, 0, 72, 100
2, 190848, Note_on_c, 0, 72, 85
2, 190892, Note_off_c, 0, 74, 100
2, 190896, Note_on_c, 0, 74, 85
2, 190940, Note_off_c, 0, 72, 100
2, 190944, Note_on_c, 0, 72, 86
2, 190988, Note_off_c, 0, 74, 100
2, 190992, Note_on_c, 0, 74, 86
2, 191036, Note_off_c, 0, 72, 100
2, 191040, Note_on_c, 0, 72, 86
2, 191084, Note_off_c, 0, 74, 100
2, 191088, Note_on_c, 0, 74, 87
2, 191132, Note_off_c, 0, 72, 100
2, 191136, Note_on_c, 0, 72, 87
2, 191180, Note_off_c, 0, 74, 100
2, 191184, Note_on_c, 0, 74, 87
2, 191228, Note_off_c, 0, 72, 100
2, 191232, Note_on_c, 0, 72, 88
2, 191276, Note_off_c, 0, 74, 100
2, 191280, Note_on_c, 0, 74, 88
2, 191324, Note_off_c, 0, 72, 100
2, 191328, Note_on_c, 0, 72, 88
2, 191372, Note_off_c, 0, 74, 100
2, 191376, Note_on_c, 0, 74, 89
2, 191420, Note_off_c, 0, 72, 100
2, 191424, Note_on_c, 0, 72, 89
2, 191468, Note_off_c, 0, 74, 100
2, 191472, Note_on_c, 0, 74, 89
2, 191516, Note_off_c, 0, 72, 100
2, 191520, Note_on_c, 0, 72, 90
2, 191564, Note_off_c, 0, 74, 100
2, 191568, Note_on_c, 0, 74, 90
2, 191612, Note_off_c, 0, 72, 100
2, 191616, Note_on_c, 0, 72, 90
2, 191660, Note_off_c, 0, 74, 100
2, 191664, Note_on_c, 0, 74, 91
2, 191708, Note_off_c, 0, 72, 100
2, 191712, Note_on_c, 0, 72, 91
2, 191756, Note_off_c, 0, 74, 100
2, 191760, Note_on_c, 0, 74, 91
2, 191804, Note_off_c, 0, 72, 100
2, 191808, Note_on_c, 0, 72, 92
2, 191852, Note_off_c, 0, 74, 100
2, 191856, Note_on_c, 0, 74, 92
2, 191900, Note_off_c, 0, 72, 100
2, 191904, Note_on_c, 0, 72, 92
2, 191948, Note_off_c, 0, 74, 100
2, 191952, Note_on_c, 0, 74, 93
2, 191996, Note_off_c, 0, 72, 100
2, 192000, Note_on_c, 0, 72, 93
2, 192044, Note_off_c, 0, 74, 100
2, 192048, Note_on_c, 0, 74, 93
2, 192092, Note_off_c, 0, 72, 100
2, 192096, Note_on_c, 0, 72, 94
2, 192140, Note_off_c, 0, 74, 100
2, 192144, Note_on_c, 0, 74, 94
2, 192188, Note_off_c, 0, 72, 100
2, 192192, Note_on_c, 0, 72, 94
2, 192236, Note_off_c, 0, 74, 100
2, 192240, Note_on_c, 0, 74, 95
2, 192284, Note_off_c, 0, 72, 100
2, 192288, Note_on_c, 0, 72, 95
2, 192332, Note_off_c, 0, 74, 100
2, 192336, Note_on_c, 0, 74, 95
2, 192380, Note_off_c, 0, 72, 100
2, 192384, Note_on_c, 0, 72, 96
2, 192428, Note_off_c, 0, 74, 100
2, 192432, Note_on_c, 0, 74, 96
2, 192476, Note_off_c, 0, 72, 100
2, 192480, Note_on_c, 0, 72, 96
2, 192524, Note_off_c, 0, 74, 100
2, 192528, Note_on_c, 0, 74, 97
2, 192572, Note_off_c, 0, 72, 100
2, 192576, Note_on_c, 0, 72, 97
2, 192620, Note_off_c, 0, 74, 100
2, 192624, Note_on_c, 0, 74, 97
2, 192668, Note_off_c, 0, 72, 100
2, 192672, Note_on_c, 0, 72, 98
2, 192716, Note_off_c, 0, 74, 100
2, 192720, Note_on_c, 0, 74, 98
2, 192764, Note_off_c, 0, 72, 100
2, 192768, Note_on_c, 0, 72, 98
2, 192812, Note_off_c, 0, 74, 100
2, 192816, Note_on_c, 0, 74, 99
2, 192860, Note_off_c, 0, 72, 100
2, 192864, Note_on_c, 0, 72, 99
2, 192908, Note_off_c, 0, 74, 100
2, 192912, Note_on_c, 0, 74, 99
2, 192956, Note_off_c, 0, 72, 100
2, 192960, Note_on_c, 0, 72, 100
2, 193004, Note_off_c, 0, 74, 100
2, 193008, Note_on_c, 0, 74, 100
2, 193052, Note_off_c, 0, 72, 100
2, 193056, Note_on_c, 0, 72, 100
2, 193100, Note_off_c, 0, 74, 100
2, 193104, Note_on_c, 0, 74, 101
2, 193148, Note_off_c, 0, 72, 100
2, 193152, Note_on_c, 0, 72, 101
2, 193196, Note_off_c, 0, 74, 100
2, 193200, Note_on_c, 0, 74, 101
2, 193244, Note_off_c, 0, 72, 100
2, 193248, Note_on_c, 0, 72, 102
2, 193292, Note_off_c, 0, 74, 100
2, 193296, Note_on_c, 0, 74, 102
2, 193340, Note_off_c, 0, 72, 100
2, 193344, Note_on_c, 0, 72, 102
2, 193388, Note_off_c, 0, 74, 100
2, 193392, Note_on_c, 0, 74, 103
2, 193436, Note_off_c, 0, 72, 100
2, 193440, Note_on_c, 0, 72, 103
2, 193484, Note_off_c, 0, 74, 100
2, 193488, Note_on_c, 0, 74, 103
2, 193532, Note_off_c, 0, 72, 100
2, 193536, Note_on_c, 0, 72, 104
2, 193580, Note_off_c, 0, 74, 100
2, 193584, Note_on_c, 0, 74, 104
2, 193628, Note_off_c, 0, 72, 100
2, 193632, Note_on_c, 0, 72, 104
2, 193676, Note_off_c, 0, 74, 100
2, 193680, Note_on_c, 0, 74, 105
2, 193724, Note_off_c, 0, 72, 100
2, 193728, Note_on_c, 0, 72, 105
2, 193772, Note_off_c, 0, 74, 100
2, 193776, Note_on_c, 0, 74, 105
2, 193820, Note_off_c, 0, 72, 100
2, 193824, Note_on_c, 0, 72, 106
2, 193868, Note_off_c, 0, 74, 100
2, 193872, Note_on_c, 0, 74, 106
2, 193916, Note_off_c, 0, 72, 100
2, 193920, Note_on_c, 0, 72, 106
2, 193964, Note_off_c, 0, 74, 100
2, 193968, Note_on_c, 0, 74, 107
2, 194012, Note_off_c, 0, 72, 100
2, 194016, Note_on_c, 0, 72, 107
2, 194060, Note_off_c, 0, 74, 100
2, 194064, Note_on_c, 0, 74, 107
2, 194108, Note_off_c, 0, 72, 100
2, 194112, Note_on_c, 0, 72, 108
2, 194156, Note_off_c, 0, 74, 100
2, 194160, Note_on_c, 0, 74, 108
2, 194204, Note_off_c, 0, 72, 100
2, 194208, Note_on_c, 0, 71, 108
2, 194252, Note_off_c, 0, 74, 100
2, 194256, Note_on_c, 0, 72, 109
2, 194300, Note_off_c, 0, 71, 100
2, 194304, Note_on_c, 0, 77, 109
2, 194348, Note_off_c, 0, 72, 100
2, 194492, Note_off_c, 0, 77, 100
2, 194496, Note_on_c, 0, 77, 110
2, 194684, Note_off_c, 0, 77, 100
2, 194688, Note_on_c, 0, 70, 80
2, 194876, Note_off_c, 0, 70, 100
2, 194880, Note_on_c, 0, 70, 80
2, 195068, Note_off_c, 0, 70, 100
2, 195072, Note_on_c, 0, 71, 80
2, 195260, Note_off_c, 0, 71, 100
2, 195264, Note_on_c, 0, 72, 80
2, 195452, Note_off_c, 0, 72, 100
2, 195456, Note_on_c, 0, 73, 80
2, 195644, Note_off_c, 0, 73, 100
2, 195648, Note_on_c, 0, 74, 80
2, 195836, Note_off_c, 0, 74, 100
2, 195840, Note_on_c, 0, 75, 80
2, 196988, Note_off_c, 0, 75, 100
2, 196992, Note_on_c, 0, 67, 80
2, 198140, Note_off_c, 0, 67, 100
2, 198144, Note_on_c, 0, 63, 80
2, 198144, Note_on_c, 0, 70, 80
2, 198332, Note_off_c, 0, 70, 100
2, 198336, Note_on_c, 0, 69, 80
2, 198524, Note_off_c, 0, 63, 100
2, 198524, Note_off_c, 0, 69, 100
2, 198528, Note_on_c, 0, 63, 80
2, 198528, Note_on_c, 0, 70, 80
2, 198572, Note_off_c, 0, 70, 100
2, 198572, Note_on_c, 0, 69, 80
2, 198716, Note_off_c, 0, 69, 100
2, 198720, Note_on_c, 0, 67, 80
2, 198908, Note_off_c, 0, 63, 100
2, 198908, Note_off_c, 0, 67, 100
2, 198912, Note_on_c, 0, 63, 80
2, 198912, Note_on_c, 0, 69, 80
2, 199100, Note_off_c, 0, 69, 100
2, 199104, Note_on_c, 0, 72, 80
2, 199292, Note_off_c, 0, 63, 100
2, 199292, Note_off_c, 0, 72, 100
2, 199296, Note_on_c, 0, 70, 80
2, 199296, Note_on_c, 0, 62, 80
2, 199484, Note_off_c, 0, 70, 100
2, 199488, Note_on_c, 0, 70, 80
2, 199676, Note_off_c, 0, 62, 100
2, 199676, Note_off_c, 0, 70, 100
2, 199680, Note_on_c, 0, 71, 80
2, 199868, Note_off_c, 0, 71, 100
2, 199872, Note_on_c, 0, 72, 80
2, 200060, Note_off_c, 0, 72, 100
2, 200064, Note_on_c, 0, 73, 80
2, 200252, Note_off_c, 0, 73, 100
2, 200256, Note_on_c, 0, 74, 80
2, 200444, Note_off_c, 0, 74, 100
2, 200448, Note_on_c, 0, 75, 80
2, 201596, Note_off_c, 0, 75, 100
2, 201600, Note_on_c, 0, 63, 80
2, 201600, Note_on_c, 0, 67, 80
2, 202364, Note_off_c, 0, 67, 100
2, 202368, Note_on_c, 0, 68, 80
2, 202556, Note_off_c, 0, 68, 100
2, 202560, Note_on_c, 0, 70, 80
2, 202748, Note_off_c, 0, 63, 100
2, 202748, Note_off_c, 0, 70, 100
2, 202752, Note_on_c, 0, 72, 80
2, 202752, Note_on_c, 0, 63, 80
2, 202752, Note_on_c, 0, 60, 80
2, 203036, Note_off_c, 0, 72, 100
2, 203040, Note_on_c, 0, 65, 80
2, 203132, Note_off_c, 0, 65, 100
2, 203136, Note_on_c, 0, 65, 80
2, 203900, Note_off_c, 0, 63, 100
2, 203900, Note_off_c, 0, 60, 100
2, 203900, Note_off_c, 0, 65, 100
2, 203904, Note_on_c, 0, 72, 80
2, 203904, Note_on_c, 0, 63, 80
2, 203904, Note_on_c, 0, 60, 80
2, 204188, Note_off_c, 0, 72, 100
2, 204192, Note_on_c, 0, 65, 80
2, 204284, Note_off_c, 0, 65, 100
2, 204288, Note_on_c, 0, 65, 80
2, 205052, Note_off_c, 0, 63, 100
2, 205052, Note_off_c, 0, 60, 100
2, 205052, Note_off_c, 0, 65, 100
2, 205056, Note_on_c, 0, 65, 80
2, 205056, Note_on_c, 0, 60, 80
2, 205056, Note_on_c, 0, 53, 80
2, 205056, Note_on_c, 0, 63, 80
2, 205436, Note_off_c, 0, 65, 100
2, 205436, Note_off_c, 0, 60, 100
2, 205436, Note_off_c, 0, 53, 100
2, 205436, Note_off_c, 0, 63, 100
2, 205440, Note_on_c, 0, 65, 83
2, 205440, Note_on_c, 0, 60, 83
2, 205440, Note_on_c, 0, 53, 83
2, 205440, Note_on_c, 0, 63, 83
2, 205820, Note_off_c, 0, 65, 100
2, 205820, Note_off_c, 0, 60, 100
2, 205820, Note_off_c, 0, 53, 100
2, 205820, Note_off_c, 0, 63, 100
2, 205824, Note_on_c, 0, 65, 86
2, 205824, Note_on_c, 0, 60, 86
2, 205824, Note_on_c, 0, 53, 86
2, 205824, Note_on_c, 0, 63, 86
2, 206204, Note_off_c, 0, 65, 100
2, 206204, Note_off_c, 0, 60, 100
2, 206204, Note_off_c, 0, 53, 100
2, 206204, Note_off_c, 0, 63, 100
2, 206208, Note_on_c, 0, 66, 90
2, 206208, Note_on_c, 0, 63, 90
2, 206208, Note_on_c, 0, 60, 90
2, 206208, Note_on_c, 0, 54, 90
2, 207356, Note_off_c, 0, 66, 100
2, 207356, Note_off_c, 0, 63, 100
2, 207356, Note_off_c, 0, 60, 100
2, 207356, Note_off_c, 0, 54, 100
2, 207360, Note_on_c, 0, 66, 100
2, 207360, Note_on_c, 0, 60, 100
2, 207360, Note_on_c, 0, 54, 100
2, 207360, Note_on_c, 0, 63, 100
2, 207740, Note_off_c, 0, 66, 100
2, 207740, Note_off_c, 0, 60, 100
2, 207740, Note_off_c, 0, 54, 100
2, 207740, Note_off_c, 0, 63, 100
2, 207744, Note_on_c, 0, 66, 104
2, 207744, Note_on_c, 0, 60, 104
2, 207744, Note_on_c, 0, 54, 104
2, 207744, Note_on_c, 0, 63, 104
2, 208124, Note_off_c, 0, 66, 100
2, 208124, Note_off_c, 0, 60, 100
2, 208124, Note_off_c, 0, 54, 100
2, 208124, Note_off_c, 0, 63, 100
2, 208128, Note_on_c, 0, 66, 107
2, 208128, Note_on_c, 0, 60, 107
2, 208128, Note_on_c, 0, 54, 107
2, 208128, Note_on_c, 0, 63, 107
2, 208508, Note_off_c, 0, 66, 100
2, 208508, Note_off_c, 0, 60, 100
2, 208508, Note_off_c, 0, 54, 100
2, 208508, Note_off_c, 0, 63, 100
2, 208512, Note_on_c, 0, 67, 110
2, 208512, Note_on_c, 0, 63, 110
2, 208512, Note_on_c, 0, 60, 110
2, 208512, Note_on_c, 0, 55, 110
2, 209660, Note_off_c, 0, 67, 100
2, 209660, Note_off_c, 0, 63, 100
2, 209660, Note_off_c, 0, 60, 100
2, 209660, Note_off_c, 0, 55, 100
2, 209664, Note_on_c, 0, 67, 110
2, 209664, Note_on_c, 0, 63, 110
2, 209664, Note_on_c, 0, 60, 110
2, 209664, Note_on_c, 0, 55, 110
2, 210044, Note_off_c, 0, 67, 100
2, 210044, Note_off_c, 0, 63, 100
2, 210044, Note_off_c, 0, 60, 100
2, 210044, Note_off_c, 0, 55, 100
2, 210048, Note_on_c, 0, 67, 110
2, 210048, Note_on_c, 0, 63, 110
2, 210048, Note_on_c, 0, 60, 110
2, 210048, Note_on_c, 0, 55, 110
2, 210428, Note_off_c, 0, 67, 100
2, 210428, Note_off_c, 0, 63, 100
2, 210428, Note_off_c, 0, 60, 100
2, 210428, Note_off_c, 0, 55, 100
2, 210432, Note_on_c, 0, 67, 110
2, 210432, Note_on_c, 0, 63, 110
2, 210432, Note_on_c, 0, 60, 110
2, 210432, Note_on_c, 0, 55, 110
2, 210812, Note_off_c, 0, 67, 100
2, 210812, Note_off_c, 0, 63, 100
2, 210812, Note_off_c, 0, 60, 100
2, 210812, Note_off_c, 0, 55, 100
2, 210816, Note_on_c, 0, 69, 110
2, 210816, Note_on_c, 0, 63, 110
2, 210816, Note_on_c, 0, 60, 110
2, 210816, Note_on_c, 0, 57, 110
2, 211196, Note_off_c, 0, 69, 100
2, 211196, Note_off_c, 0, 63, 100
2, 211196, Note_off_c, 0, 60, 100
2, 211196, Note_off_c, 0, 57, 100
2, 211200, Note_on_c, 0, 87, 110
2, 211484, Note_off_c, 0, 87, 100
2, 211488, Note_on_c, 0, 81, 110
2, 211580, Note_off_c, 0, 81, 100
2, 211584, Note_on_c, 0, 81, 110
2, 211964, Note_off_c, 0, 81, 100
2, 212352, Note_on_c, 0, 68, 110
2, 212636, Note_off_c, 0, 68, 100
2, 212640, Note_on_c, 0, 62, 110
2, 212732, Note_off_c, 0, 62, 100
2, 212736, Note_on_c, 0, 62, 110
2, 213116, Note_off_c, 0, 62, 100
2, 213504, Note_on_c, 0, 55, 110
2, 213788, Note_off_c, 0, 55, 100
2, 213792, Note_on_c, 0, 48, 110
2, 213884, Note_off_c, 0, 48, 100
2, 213888, Note_on_c, 0, 48, 110
2, 214268, Note_off_c, 0, 48, 100
2, 215040, Note_on_c, 0, 50, 110
2, 215040, Note_on_c, 0, 53, 110
2, 215040, Note_on_c, 0, 55, 110
2, 215420, Note_off_c, 0, 50, 100
2, 215420, Note_off_c, 0, 53, 100
2, 215420, Note_off_c, 0, 55, 100
2, 216576, Note_on_c, 0, 83, 80
2, 216620, Note_off_c, 0, 83, 100
2, 216620, Note_on_c, 0, 84, 80
2, 216852, Note_off_c, 0, 84, 100
2, 216864, Note_on_c, 0, 77, 80
2, 216956, Note_off_c, 0, 77, 100
2, 216960, Note_on_c, 0, 77, 80
2, 217340, Note_off_c, 0, 77, 100
2, 217728, Note_on_c, 0, 71, 80
2, 217772, Note_off_c, 0, 71, 100
2, 217772, Note_on_c, 0, 72, 80
2, 218004, Note_off_c, 0, 72, 100
2, 218016, Note_on_c, 0, 64, 80
2, 218108, Note_off_c, 0, 64, 100
2, 218112, Note_on_c, 0, 64, 80
2, 218492, Note_off_c, 0, 64, 100
2, 218880, Note_on_c, 0, 72, 80
2, 218972, Note_off_c, 0, 72, 100
2, 218976, Note_on_c, 0, 62, 80
2, 219068, Note_off_c, 0, 62, 100
2, 219264, Note_on_c, 0, 72, 80
2, 219356, Note_off_c, 0, 72, 100
2, 219360, Note_on_c, 0, 62, 80
2, 219452, Note_off_c, 0, 62, 100
2, 219648, Note_on_c, 0, 71, 80
2, 219740, Note_off_c, 0, 71, 100
2, 219744, Note_on_c, 0, 62, 80
2, 219836, Note_off_c, 0, 62, 100
2, 220032, Note_on_c, 0, 72, 80
2, 220124, Note_off_c, 0, 72, 100
2, 220128, Note_on_c, 0, 60, 80
2, 220220, Note_off_c, 0, 60, 100
2, 221184, Note_on_c, 0, 84, 80
2, 221232, Note_on_c, 0, 86, 80
2, 221276, Note_off_c, 0, 84, 100
2, 221280, Note_on_c, 0, 84, 80
2, 221324, Note_off_c, 0, 86, 100
2, 221328, Note_on_c, 0, 86, 80
2, 221372, Note_off_c, 0, 84, 100
2, 221376, Note_on_c, 0, 84, 80
2, 221420, Note_off_c, 0, 86, 100
2, 221424, Note_on_c, 0, 86, 80
2, 221468, Note_off_c, 0, 84, 100
2, 221472, Note_on_c, 0, 83, 80
2, 221516, Note_off_c, 0, 86, 100
2, 221520, Note_on_c, 0, 84, 80
2, 221564, Note_off_c, 0, 83, 100
2, 221564, Note_off_c, 0, 84, 100
2, 221568, Note_on_c, 0, 77, 80
2, 221948, Note_off_c, 0, 77, 100
2, 222336, Note_on_c, 0, 72, 80
2, 222384, Note_on_c, 0, 74, 80
2, 222428, Note_off_c, 0, 72, 100
2, 222432, Note_on_c, 0, 72, 80
2, 222476, Note_off_c, 0, 74, 100
2, 222480, Note_on_c, 0, 74, 80
2, 222524, Note_off_c, 0, 72, 100
2, 222528, Note_on_c, 0, 72, 80
2, 222572, Note_off_c, 0, 74, 100
2, 222576, Note_on_c, 0, 74, 80
2, 222620, Note_off_c, 0, 72, 100
2, 222624, Note_on_c, 0, 71, 80
2, 222668, Note_off_c, 0, 74, 100
2, 222672, Note_on_c, 0, 72, 80
2, 222716, Note_off_c, 0, 71, 100
2, 222716, Note_off_c, 0, 72, 100
2, 222720, Note_on_c, 0, 64, 80
2, 223100, Note_off_c, 0, 64, 100
2, 223488, Note_on_c, 0, 72, 80
2, 223580, Note_off_c, 0, 72, 100
2, 223584, Note_on_c, 0, 62, 80
2, 223676, Note_off_c, 0, 62, 100
2, 223872, Note_on_c, 0, 72, 80
2, 223964, Note_off_c, 0, 72, 100
2, 223968, Note_on_c, 0, 62, 80
2, 224060, Note_off_c, 0, 62, 100
2, 224256, Note_on_c, 0, 71, 80
2, 224348, Note_off_c, 0, 71, 100
2, 224352, Note_on_c, 0, 62, 80
2, 224444, Note_off_c, 0, 62, 100
2, 224640, Note_on_c, 0, 72, 80
2, 224640, Note_on_c, 0, 60, 80
2, 224828, Note_off_c, 0, 72, 100
2, 224828, Note_off_c, 0, 60, 100
2, 224832, Note_on_c, 0, 55, 80
2, 224832, Note_on_c, 0, 52, 80
2, 225020, Note_off_c, 0, 55, 100
2, 225020, Note_off_c, 0, 52, 100
2, 225024, Note_on_c, 0, 55, 80
2, 225024, Note_on_c, 0, 52, 80
2, 225212, Note_off_c, 0, 55, 100
2, 225212, Note_off_c, 0, 52, 100
2, 225216, Note_on_c, 0, 55, 80
2, 225216, Note_on_c, 0, 52, 80
2, 225404, Note_off_c, 0, 55, 100
2, 225404, Note_off_c, 0, 52, 100
2, 225408, Note_on_c, 0, 55, 80
2, 225408, Note_on_c, 0, 52, 80
2, 225596, Note_off_c, 0, 55, 100
2, 225596, Note_off_c, 0, 52, 100
2, 225600, Note_on_c, 0, 55, 80
2, 225600, Note_on_c, 0, 52, 80
2, 225788, Note_off_c, 0, 55, 100
2, 225788, Note_off_c, 0, 52, 100
2, 225792, Note_on_c, 0, 55, 80
2, 225792, Note_on_c, 0, 53, 80
2, 225980, Note_off_c, 0, 55, 100
2, 225980, Note_off_c, 0, 53, 100
2, 225984, Note_on_c, 0, 55, 80
2, 225984, Note_on_c, 0, 53, 80
2, 226172, Note_off_c, 0, 55, 100
2, 226172, Note_off_c, 0, 53, 100
2, 226176, Note_on_c, 0, 55, 80
2, 226176, Note_on_c, 0, 53, 80
2, 226364, Note_off_c, 0, 55, 100
2, 226364, Note_off_c, 0, 53, 100
2, 226368, Note_on_c, 0, 55, 80
2, 226368, Note_on_c, 0, 53, 80
2, 226556, Note_off_c, 0, 55, 100
2, 226556, Note_off_c, 0, 53, 100
2, 226560, Note_on_c, 0, 55, 80
2, 226560, Note_on_c, 0, 53, 80
2, 226748, Note_off_c, 0, 55, 100
2, 226748, Note_off_c, 0, 53, 100
2, 226752, Note_on_c, 0, 55, 80
2, 226752, Note_on_c, 0, 53, 80
2, 226940, Note_off_c, 0, 55, 100
2, 226940, Note_off_c, 0, 53, 100
2, 226944, Note_on_c, 0, 55, 80
2, 226944, Note_on_c, 0, 52, 80
2, 227132, Note_off_c, 0, 55, 100
2, 227132, Note_off_c, 0, 52, 100
2, 227136, Note_on_c, 0, 55, 80
2, 227136, Note_on_c, 0, 52, 80
2, 227324, Note_off_c, 0, 55, 100
2, 227324, Note_off_c, 0, 52, 100
2, 227328, Note_on_c, 0, 55, 80
2, 227328, Note_on_c, 0, 52, 80
2, 227516, Note_off_c, 0, 55, 100
2, 227516, Note_off_c, 0, 52, 100
2, 227520, Note_on_c, 0, 55, 80
2, 227520, Note_on_c, 0, 52, 80
2, 227708, Note_off_c, 0, 55, 100
2, 227708, Note_off_c, 0, 52, 100
2, 227712, Note_on_c, 0, 55, 80
2, 227712, Note_on_c, 0, 52, 80
2, 227900, Note_off_c, 0, 55, 100
2, 227900, Note_off_c, 0, 52, 100
2, 227904, Note_on_c, 0, 55, 80
2, 227904, Note_on_c, 0, 52, 80
2, 228092, Note_off_c, 0, 55, 100
2, 228092, Note_off_c, 0, 52, 100
2, 228096, Note_on_c, 0, 55, 80
2, 228096, Note_on_c, 0, 53, 80
2, 228284, Note_off_c, 0, 55, 100
2, 228284, Note_off_c, 0, 53, 100
2, 228288, Note_on_c, 0, 55, 80
2, 228288, Note_on_c, 0, 53, 80
2, 228476, Note_off_c, 0, 55, 100
2, 228476, Note_off_c, 0, 53, 100
2, 228480, Note_on_c, 0, 55, 80
2, 228480, Note_on_c, 0, 53, 80
2, 228668, Note_off_c, 0, 55, 100
2, 228668, Note_off_c, 0, 53, 100
2, 228672, Note_on_c, 0, 55, 80
2, 228672, Note_on_c, 0, 53, 80
2, 228860, Note_off_c, 0, 55, 100
2, 228860, Note_off_c, 0, 53, 100
2, 228864, Note_on_c, 0, 55, 80
2, 228864, Note_on_c, 0, 53, 80
2, 229052, Note_off_c, 0, 55, 100
2, 229052, Note_off_c, 0, 53, 100
2, 229056, Note_on_c, 0, 55, 80
2, 229056, Note_on_c, 0, 53, 80
2, 229244, Note_off_c, 0, 55, 100
2, 229244, Note_off_c, 0, 53, 100
2, 229248, Note_on_c, 0, 55, 80
2, 229248, Note_on_c, 0, 52, 80
2, 229436, Note_off_c, 0, 55, 100
2, 229436, Note_off_c, 0, 52, 100
2, 229440, Note_on_c, 0, 55, 80
2, 229440, Note_on_c, 0, 52, 80
2, 229628, Note_off_c, 0, 55, 100
2, 229628, Note_off_c, 0, 52, 100
2, 229632, Note_on_c, 0, 55, 80
2, 229632, Note_on_c, 0, 52, 80
2, 229820, Note_off_c, 0, 55, 100
2, 229820, Note_off_c, 0, 52, 100
2, 229824, Note_on_c, 0, 55, 80
2, 229824, Note_on_c, 0, 52, 80
2, 230012, Note_off_c, 0, 55, 100
2, 230012, Note_off_c, 0, 52, 100
2, 230016, Note_on_c, 0, 55, 80
2, 230016, Note_on_c, 0, 52, 80
2, 230204, Note_off_c, 0, 55, 100
2, 230204, Note_off_c, 0, 52, 100
2, 230208, Note_on_c, 0, 55, 80
2, 230208, Note_on_c, 0, 52, 80
2, 230396, Note_off_c, 0, 55, 100
2, 230396, Note_off_c, 0, 52, 100
2, 230400, Note_on_c, 0, 55, 80
2, 230400, Note_on_c, 0, 53, 80
2, 230588, Note_off_c, 0, 55, 100
2, 230588, Note_off_c, 0, 53, 100
2, 230592, Note_on_c, 0, 55, 80
2, 230592, Note_on_c, 0, 53, 80
2, 230780, Note_off_c, 0, 55, 100
2, 230780, Note_off_c, 0, 53, 100
2, 230784, Note_on_c, 0, 55, 80
2, 230784, Note_on_c, 0, 53, 80
2, 230972, Note_off_c, 0, 55, 100
2, 230972, Note_off_c, 0, 53, 100
2, 230976, Note_on_c, 0, 55, 80
2, 230976, Note_on_c, 0, 53, 80
2, 231164, Note_off_c, 0, 55, 100
2, 231164, Note_off_c, 0, 53, 100
2, 231168, Note_on_c, 0, 55, 80
2, 231168, Note_on_c, 0, 53, 80
2, 231356, Note_off_c, 0, 55, 100
2, 231356, Note_off_c, 0, 53, 100
2, 231360, Note_on_c, 0, 55, 80
2, 231360, Note_on_c, 0, 53, 80
2, 231548, Note_off_c, 0, 55, 100
2, 231548, Note_off_c, 0, 53, 100
2, 231552, Control_c, 0, 64, 127
2, 231648, Note_on_c, 0, 52, 110
2, 231740, Note_off_c, 0, 52, 100
2, 231744, Note_on_c, 0, 60, 110
2, 231836, Note_off_c, 0, 60, 100
2, 231840, Note_on_c, 0, 55, 110
2, 231928, Control_c, 0, 64, 0
2, 231932, Note_off_c, 0, 55, 100
2, 231936, Control_c, 0, 64, 127
2, 231936, Note_on_c, 0, 64, 110
2, 232028, Note_off_c, 0, 64, 100
2, 232032, Note_on_c, 0, 60, 110
2, 232124, Note_off_c, 0, 60, 100
2, 232128, Note_on_c, 0, 67, 110
2, 232220, Note_off_c, 0, 67, 100
2, 232224, Note_on_c, 0, 64, 110
2, 232312, Control_c, 0, 64, 0
2, 232316, Note_off_c, 0, 64, 100
2, 232320, Control_c, 0, 64, 127
2, 232320, Note_on_c, 0, 72, 110
2, 232412, Note_off_c, 0, 72, 100
2, 232416, Note_on_c, 0, 67, 110
2, 232508, Note_off_c, 0, 67, 100
2, 232512, Note_on_c, 0, 76, 110
2, 232604, Note_off_c, 0, 76, 100
2, 232608, Note_on_c, 0, 72, 110
2, 232696, Control_c, 0, 64, 0
2, 232700, Note_off_c, 0, 72, 100
2, 232704, Note_on_c, 0, 79, 110
2, 233468, Note_off_c, 0, 79, 100
2, 233472, Note_on_c, 0, 70, 110
2, 233520, Note_on_c, 0, 72, 110
2, 233564, Note_off_c, 0, 70, 100
2, 233568, Note_on_c, 0, 70, 110
2, 233612, Note_off_c, 0, 72, 100
2, 233616, Note_on_c, 0, 72, 110
2, 233660, Note_off_c, 0, 70, 100
2, 233664, Note_on_c, 0, 70, 110
2, 233708, Note_off_c, 0, 72, 100
2, 233712, Note_on_c, 0, 72, 110
2, 233756, Note_off_c, 0, 70, 100
2, 233760, Note_on_c, 0, 69, 110
2, 233804, Note_off_c, 0, 72, 100
2, 233808, Note_on_c, 0, 70, 110
2, 233852, Note_off_c, 0, 69, 100
2, 233852, Note_off_c, 0, 70, 100
2, 233856, Note_on_c, 0, 69, 110
2, 234044, Note_off_c, 0, 69, 100
2, 234048, Note_on_c, 0, 60, 80
2, 234048, Note_on_c, 0, 57, 80
2, 234236, Note_off_c, 0, 60, 100
2, 234236, Note_off_c, 0, 57, 100
2, 234240, Note_on_c, 0, 60, 80
2, 234240, Note_on_c, 0, 57, 80
2, 234428, Note_off_c, 0, 60, 100
2, 234428, Note_off_c, 0, 57, 100
2, 234432, Note_on_c, 0, 60, 80
2, 234432, Note_on_c, 0, 57, 80
2, 234620, Note_off_c, 0, 60, 100
2, 234620, Note_off_c, 0, 57, 100
2, 234624, Note_on_c, 0, 60, 80
2, 234624, Note_on_c, 0, 57, 80
2, 234812, Note_off_c, 0, 60, 100
2, 234812, Note_off_c, 0, 57, 100
2, 234816, Note_on_c, 0, 60, 80
2, 234816, Note_on_c, 0, 57, 80
2, 235004, Note_off_c, 0, 60, 100
2, 235004, Note_off_c, 0, 57, 100
2, 235008, Note_on_c, 0, 60, 80
2, 235008, Note_on_c, 0, 58, 80
2, 235196, Note_off_c, 0, 60, 100
2, 235196, Note_off_c, 0, 58, 100
2, 235200, Note_on_c, 0, 60, 80
2, 235200, Note_on_c, 0, 58, 80
2, 235388, Note_off_c, 0, 60, 100
2, 235388, Note_off_c, 0, 58, 100
2, 235392, Note_on_c, 0, 60, 80
2, 235392, Note_on_c, 0, 58, 80
2, 235580, Note_off_c, 0, 60, 100
2, 235580, Note_off_c, 0, 58, 100
2, 235584, Note_on_c, 0, 60, 80
2, 235584, Note_on_c, 0, 58, 80
2, 235772, Note_off_c, 0, 60, 100
2, 235772, Note_off_c, 0, 58, 100
2, 235776, Note_on_c, 0, 60, 80
2, 235776, Note_on_c, 0, 58, 80
2, 235964, Note_off_c, 0, 60, 100
2, 235964, Note_off_c, 0, 58, 100
2, 235968, Note_on_c, 0, 60, 80
2, 235968, Note_on_c, 0, 58, 80
2, 236156, Note_off_c, 0, 60, 100
2, 236156, Note_off_c, 0, 58, 100
2, 236160, Note_on_c, 0, 60, 80
2, 236160, Note_on_c, 0, 57, 80
2, 236348, Note_off_c, 0, 60, 100
2, 236348, Note_off_c, 0, 57, 100
2, 236352, Note_on_c, 0, 60, 80
2, 236352, Note_on_c, 0, 57, 80
2, 236540, Note_off_c, 0, 60, 100
2, 236540, Note_off_c, 0, 57, 100
2, 236544, Note_on_c, 0, 60, 80
2, 236544, Note_on_c, 0, 57, 80
2, 236732, Note_off_c, 0, 60, 100
2, 236732, Note_off_c, 0, 57, 100
2, 236736, Note_on_c, 0, 60, 80
2, 236736, Note_on_c, 0, 57, 80
2, 236924, Note_off_c, 0, 60, 100
2, 236924, Note_off_c, 0, 57, 100
2, 236928, Note_on_c, 0, 60, 80
2, 236928, Note_on_c, 0, 57, 80
2, 237116, Note_off_c, 0, 60, 100
2, 237116, Note_off_c, 0, 57, 100
2, 237120, Note_on_c, 0, 60, 80
2, 237120, Note_on_c, 0, 57, 80
2, 237308, Note_off_c, 0, 60, 100
2, 237308, Note_off_c, 0, 57, 100
2, 237312, Note_on_c, 0, 60, 80
2, 237312, Note_on_c, 0, 58, 80
2, 237500, Note_off_c, 0, 60, 100
2, 237500, Note_off_c, 0, 58, 100
2, 237504, Note_on_c, 0, 60, 80
2, 237504, Note_on_c, 0, 58, 80
2, 237692, Note_off_c, 0, 60, 100
2, 237692, Note_off_c, 0, 58, 100
2, 237696, Note_on_c, 0, 60, 80
2, 237696, Note_on_c, 0, 58, 80
2, 237884, Note_off_c, 0, 60, 100
2, 237884, Note_off_c, 0, 58, 100
2, 237888, Note_on_c, 0, 60, 80
2, 237888, Note_on_c, 0, 58, 80
2, 238076, Note_off_c, 0, 60, 100
2, 238076, Note_off_c, 0, 58, 100
2, 238080, Note_on_c, 0, 60, 80
2, 238080, Note_on_c, 0, 58, 80
2, 238268, Note_off_c, 0, 60, 100
2, 238268, Note_off_c, 0, 58, 100
2, 238272, Note_on_c, 0, 60, 80
2, 238272, Note_on_c, 0, 58, 80
2, 238460, Note_off_c, 0, 60, 100
2, 238460, Note_off_c, 0, 58, 100
2, 238464, Note_on_c, 0, 60, 80
2, 238464, Note_on_c, 0, 57, 80
2, 238652, Note_off_c, 0, 60, 100
2, 238652, Note_off_c, 0, 57, 100
2, 238656, Note_on_c, 0, 60, 80
2, 238656, Note_on_c, 0, 57, 80
2, 238844, Note_off_c, 0, 60, 100
2, 238844, Note_off_c, 0, 57, 100
2, 238848, Note_on_c, 0, 60, 80
2, 238848, Note_on_c, 0, 57, 80
2, 239036, Note_off_c, 0, 60, 100
2, 239036, Note_off_c, 0, 57, 100
2, 239040, Note_on_c, 0, 60, 80
2, 239040, Note_on_c, 0, 57, 80
2, 239228, Note_off_c, 0, 60, 100
2, 239228, Note_off_c, 0, 57, 100
2, 239232, Note_on_c, 0, 60, 80
2, 239232, Note_on_c, 0, 57, 80
2, 239420, Note_off_c, 0, 60, 100
2, 239420, Note_off_c, 0, 57, 100
2, 239424, Note_on_c, 0, 60, 80
2, 239424, Note_on_c, 0, 57, 80
2, 239612, Note_off_c, 0, 60, 100
2, 239612, Note_off_c, 0, 57, 100
2, 239616, Note_on_c, 0, 60, 80
2, 239616, Note_on_c, 0, 58, 80
2, 239804, Note_off_c, 0, 60, 100
2, 239804, Note_off_c, 0, 58, 100
2, 239808, Note_on_c, 0, 60, 80
2, 239808, Note_on_c, 0, 58, 80
2, 239996, Note_off_c, 0, 60, 100
2, 239996, Note_off_c, 0, 58, 100
2, 240000, Note_on_c, 0, 60, 80
2, 240000, Note_on_c, 0, 58, 80
2, 240188, Note_off_c, 0, 60, 100
2, 240188, Note_off_c, 0, 58, 100
2, 240192, Note_on_c, 0, 60, 80
2, 240192, Note_on_c, 0, 58, 80
2, 240380, Note_off_c, 0, 60, 100
2, 240380, Note_off_c, 0, 58, 100
2, 240384, Note_on_c, 0, 60, 80
2, 240384, Note_on_c, 0, 58, 80
2, 240572, Note_off_c, 0, 60, 100
2, 240572, Note_off_c, 0, 58, 100
2, 240576, Note_on_c, 0, 60, 80
2, 240576, Note_on_c, 0, 58, 80
2, 240764, Note_off_c, 0, 60, 100
2, 240764, Note_off_c, 0, 58, 100
2, 240768, Control_c, 0, 64, 127
2, 240864, Note_on_c, 0, 57, 110
2, 240956, Note_off_c, 0, 57, 100
2, 240960, Note_on_c, 0, 65, 110
2, 241052, Note_off_c, 0, 65, 100
2, 241056, Note_on_c, 0, 60, 110
2, 241144, Control_c, 0, 64, 0
2, 241148, Note_off_c, 0, 60, 100
2, 241152, Control_c, 0, 64, 127
2, 241152, Note_on_c, 0, 69, 110
2, 241244, Note_off_c, 0, 69, 100
2, 241248, Note_on_c, 0, 65, 110
2, 241340, Note_off_c, 0, 65, 100
2, 241344, Note_on_c, 0, 72, 110
2, 241436, Note_off_c, 0, 72, 100
2, 241440, Note_on_c, 0, 69, 110
2, 241528, Control_c, 0, 64, 0
2, 241532, Note_off_c, 0, 69, 100
2, 241536, Control_c, 0, 64, 127
2, 241536, Note_on_c, 0, 77, 110
2, 241628, Note_off_c, 0, 77, 100
2, 241632, Note_on_c, 0, 72, 110
2, 241724, Note_off_c, 0, 72, 100
2, 241728, Note_on_c, 0, 81, 110
2, 241820, Note_off_c, 0, 81, 100
2, 241824, Note_on_c, 0, 77, 110
2, 241912, Control_c, 0, 64, 0
2, 241916, Note_off_c, 0, 77, 100
2, 241920, Note_on_c, 0, 84, 110
2, 242684, Note_off_c, 0, 84, 100
2, 242688, Note_on_c, 0, 75, 110
2, 242736, Note_on_c, 0, 77, 110
2, 242780, Note_off_c, 0, 75, 100
2, 242784, Note_on_c, 0, 75, 110
2, 242828, Note_off_c, 0, 77, 100
2, 242832, Note_on_c, 0, 77, 110
2, 242876, Note_off_c, 0, 75, 100
2, 242880, Note_on_c, 0, 75, 110
2, 242924, Note_off_c, 0, 77, 100
2, 242928, Note_on_c, 0, 77, 110
2, 242972, Note_off_c, 0, 75, 100
2, 242976, Note_on_c, 0, 74, 110
2, 243020, Note_off_c, 0, 77, 100
2, 243024, Note_on_c, 0, 75, 110
2, 243068, Note_off_c, 0, 74, 100
2, 243068, Note_off_c, 0, 75, 100
2, 243072, Control_c, 0, 64, 127
2, 243072, Note_on_c, 0, 73, 110
2, 243164, Note_off_c, 0, 73, 100
2, 243168, Note_on_c, 0, 65, 110
2, 243260, Note_off_c, 0, 65, 100
2, 243264, Note_on_c, 0, 70, 110
2, 243356, Note_off_c, 0, 70, 100
2, 243360, Note_on_c, 0, 65, 110
2, 243448, Control_c, 0, 64, 0
2, 243452, Note_off_c, 0, 65, 100
2, 243456, Control_c, 0, 64, 127
2, 243456, Note_on_c, 0, 73, 110
2, 243548, Note_off_c, 0, 73, 100
2, 243552, Note_on_c, 0, 70, 110
2, 243644, Note_off_c, 0, 70, 100
2, 243648, Note_on_c, 0, 77, 110
2, 243740, Note_off_c, 0, 77, 100
2, 243744, Note_on_c, 0, 73, 110
2, 243832, Control_c, 0, 64, 0
2, 243836, Note_off_c, 0, 73, 100
2, 243840, Control_c, 0, 64, 127
2, 243840, Note_on_c, 0, 82, 110
2, 243932, Note_off_c, 0, 82, 100
2, 243936, Note_on_c, 0, 77, 110
2, 244028, Note_off_c, 0, 77, 100
2, 244032, Note_on_c, 0, 85, 110
2, 244124, Note_off_c, 0, 85, 100
2, 244128, Note_on_c, 0, 82, 110
2, 244216, Control_c, 0, 64, 0
2, 244220, Note_off_c, 0, 82, 100
2, 244224, Note_on_c, 0, 89, 110
2, 244988, Note_off_c, 0, 89, 100
2, 244992, Note_on_c, 0, 80, 110
2, 245040, Note_on_c, 0, 82, 110
2, 245084, Note_off_c, 0, 80, 100
2, 245088, Note_on_c, 0, 80, 110
2, 245132, Note_off_c, 0, 82, 100
2, 245136, Note_on_c, 0, 82, 110
2, 245180, Note_off_c, 0, 80, 100
2, 245184, Note_on_c, 0, 80, 110
2, 245228, Note_off_c, 0, 82, 100
2, 245232, Note_on_c, 0, 82, 110
2, 245276, Note_off_c, 0, 80, 100
2, 245280, Note_on_c, 0, 79, 110
2, 245324, Note_off_c, 0, 82, 100
2, 245328, Note_on_c, 0, 80, 110
2, 245372, Note_off_c, 0, 79, 100
2, 245372, Note_off_c, 0, 80, 100
2, 245376, Control_c, 0, 64, 127
2, 245376, Note_on_c, 0, 79, 110
2, 245468, Note_off_c, 0, 79, 100
2, 245472, Note_on_c, 0, 55, 110
2, 245564, Note_off_c, 0, 55, 100
2, 245568, Note_on_c, 0, 63, 110
2, 245660, Note_off_c, 0, 63, 100
2, 245664, Note_on_c, 0, 58, 110
2, 245752, Control_c, 0, 64, 0
2, 245756, Note_off_c, 0, 58, 100
2, 245760, Control_c, 0, 64, 127
2, 245760, Note_on_c, 0, 67, 110
2, 245852, Note_off_c, 0, 67, 100
2, 245856, Note_on_c, 0, 63, 110
2, 245948, Note_off_c, 0, 63, 100
2, 245952, Note_on_c, 0, 70, 110
2, 246044, Note_off_c, 0, 70, 100
2, 246048, Note_on_c, 0, 67, 110
2, 246136, Control_c, 0, 64, 0
2, 246140, Note_off_c, 0, 67, 100
2, 246144, Control_c, 0, 64, 127
2, 246144, Note_on_c, 0, 75, 110
2, 246236, Note_off_c, 0, 75, 100
2, 246240, Note_on_c, 0, 70, 110
2, 246332, Note_off_c, 0, 70, 100
2, 246336, Note_on_c, 0, 79, 110
2, 246428, Note_off_c, 0, 79, 100
2, 246432, Note_on_c, 0, 75, 110
2, 246520, Control_c, 0, 64, 0
2, 246524, Note_off_c, 0, 75, 100
2, 246528, Note_on_c, 0, 82, 110
2, 247292, Note_off_c, 0, 82, 100
2, 247296, Note_on_c, 0, 73, 105
2, 247344, Note_on_c, 0, 75, 105
2, 247388, Note_off_c, 0, 73, 100
2, 247392, Note_on_c, 0, 73, 105
2, 247436, Note_off_c, 0, 75, 100
2, 247440, Note_on_c, 0, 75, 105
2, 247484, Note_off_c, 0, 73, 100
2, 247488, Note_on_c, 0, 73, 104
2, 247532, Note_off_c, 0, 75, 100
2, 247536, Note_on_c, 0, 75, 104
2, 247580, Note_off_c, 0, 73, 100
2, 247584, Note_on_c, 0, 72, 104
2, 247628, Note_off_c, 0, 75, 100
2, 247632, Note_on_c, 0, 73, 103
2, 247676, Note_off_c, 0, 72, 100
2, 247676, Note_off_c, 0, 73, 100
2, 247680, Note_on_c, 0, 72, 103
2, 248060, Note_off_c, 0, 72, 100
2, 248448, Note_on_c, 0, 72, 98
2, 248496, Note_on_c, 0, 73, 98
2, 248540, Note_off_c, 0, 72, 100
2, 248544, Note_on_c, 0, 72, 97
2, 248588, Note_off_c, 0, 73, 100
2, 248592, Note_on_c, 0, 73, 97
2, 248636, Note_off_c, 0, 72, 100
2, 248640, Note_on_c, 0, 72, 97
2, 248684, Note_off_c, 0, 73, 100
2, 248688, Note_on_c, 0, 73, 96
2, 248732, Note_off_c, 0, 72, 100
2, 248736, Note_on_c, 0, 71, 96
2, 248780, Note_off_c, 0, 73, 100
2, 248784, Note_on_c, 0, 72, 96
2, 248828, Note_off_c, 0, 71, 100
2, 248828, Note_off_c, 0, 72, 100
2, 248832, Note_on_c, 0, 84, 95
2, 249212, Note_off_c, 0, 84, 100
2, 249600, Note_on_c, 0, 72, 90
2, 249648, Note_on_c, 0, 73, 90
2, 249692, Note_off_c, 0, 72, 100
2, 249696, Note_on_c, 0, 72, 90
2, 249740, Note_off_c, 0, 73, 100
2, 249744, Note_on_c, 0, 73, 89
2, 249788, Note_off_c, 0, 72, 100
2, 249792, Note_on_c, 0, 72, 89
2, 249836, Note_off_c, 0, 73, 100
2, 249840, Note_on_c, 0, 73, 89
2, 249884, Note_off_c, 0, 72, 100
2, 249888, Note_on_c, 0, 71, 88
2, 249932, Note_off_c, 0, 73, 100
2, 249936, Note_on_c, 0, 72, 88
2, 249980, Note_off_c, 0, 71, 100
2, 249980, Note_off_c, 0, 72, 100
2, 249984, Note_on_c, 0, 84, 88
2, 250364, Note_off_c, 0, 84, 100
2, 250752, Note_on_c, 0, 72, 83
2, 250800, Note_on_c, 0, 73, 82
2, 250844, Note_off_c, 0, 72, 100
2, 250848, Note_on_c, 0, 72, 82
2, 250892, Note_off_c, 0, 73, 100
2, 250896, Note_on_c, 0, 73, 82
2, 250940, Note_off_c, 0, 72, 100
2, 250944, Note_on_c, 0, 72, 81
2, 250988, Note_off_c, 0, 73, 100
2, 250992, Note_on_c, 0, 73, 81
2, 251036, Note_off_c, 0, 72, 100
2, 251040, Note_on_c, 0, 71, 81
2, 251084, Note_off_c, 0, 73, 100
2, 251088, Note_on_c, 0, 72, 81
2, 251132, Note_off_c, 0, 71, 100
2, 251132, Note_off_c, 0, 72, 100
2, 251136, Note_on_c, 0, 84, 80
2, 251516, Note_off_c, 0, 84, 100
2, 252096, Note_on_c, 0, 60, 80
2, 252284, Note_off_c, 0, 60, 100
2, 252288, Note_on_c, 0, 65, 80
2, 252476, Note_off_c, 0, 65, 100
2, 252480, Note_on_c, 0, 68, 80
2, 252668, Note_off_c, 0, 68, 100
2, 252672, Note_on_c, 0, 72, 80
2, 252860, Note_off_c, 0, 72, 100
2, 253632, Note_on_c, 0, 60, 80
2, 253820, Note_off_c, 0, 60, 100
2, 253824, Note_on_c, 0, 65, 80
2, 254012, Note_off_c, 0, 65, 100
2, 254016, Note_on_c, 0, 68, 80
2, 254204, Note_off_c, 0, 68, 100
2, 254208, Note_on_c, 0, 72, 80
2, 254396, Note_off_c, 0, 72, 100
2, 255168, Note_on_c, 0, 60, 80
2, 255356, Note_off_c, 0, 60, 100
2, 255360, Note_on_c, 0, 65, 80
2, 255548, Note_off_c, 0, 65, 100
2, 255552, Note_on_c, 0, 68, 80
2, 255740, Note_off_c, 0, 68, 100
2, 255744, Note_on_c, 0, 72, 80
2, 255932, Note_off_c, 0, 72, 100
2, 255936, Note_on_c, 0, 60, 80
2, 256124, Note_off_c, 0, 60, 100
2, 256128, Note_on_c, 0, 65, 81
2, 256316, Note_off_c, 0, 65, 100
2, 256320, Note_on_c, 0, 68, 83
2, 256508, Note_off_c, 0, 68, 100
2, 256512, Note_on_c, 0, 72, 84
2, 256700, Note_off_c, 0, 72, 100
2, 256704, Note_on_c, 0, 60, 86
2, 256892, Note_off_c, 0, 60, 100
2, 256896, Note_on_c, 0, 65, 88
2, 257084, Note_off_c, 0, 65, 100
2, 257088, Note_on_c, 0, 68, 89
2, 257276, Note_off_c, 0, 68, 100
2, 257280, Note_on_c, 0, 72, 91
2, 257468, Note_off_c, 0, 72, 100
2, 257472, Note_on_c, 0, 60, 92
2, 257664, Note_on_c, 0, 65, 94
2, 257856, Note_on_c, 0, 68, 96
2, 258048, Note_on_c, 0, 72, 97
2, 258332, Note_off_c, 0, 65, 100
2, 258332, Note_off_c, 0, 68, 100
2, 258332, Note_off_c, 0, 72, 100
2, 258336, Note_on_c, 0, 65, 100
2, 258428, Note_off_c, 0, 65, 100
2, 258432, Note_on_c, 0, 65, 100
2, 259004, Note_off_c, 0, 65, 100
2, 259196, Note_off_c, 0, 60, 100
2, 259200, Note_on_c, 0, 72, 80
2, 259484, Note_off_c, 0, 72, 100
2, 259488, Note_on_c, 0, 65, 80
2, 259580, Note_off_c, 0, 65, 100
2, 259584, Note_on_c, 0, 65, 80
2, 260156, Note_off_c, 0, 65, 100
2, 260352, Note_on_c, 0, 65, 80
2, 260352, Note_on_c, 0, 63, 80
2, 260352, Note_on_c, 0, 60, 80
2, 260732, Note_off_c, 0, 65, 100
2, 260732, Note_off_c, 0, 63, 100
2, 260732, Note_off_c, 0, 60, 100
2, 260736, Note_on_c, 0, 65, 83
2, 260736, Note_on_c, 0, 63, 83
2, 260736, Note_on_c, 0, 60, 83
2, 261116, Note_off_c, 0, 65, 100
2, 261116, Note_off_c, 0, 63, 100
2, 261116, Note_off_c, 0, 60, 100
2, 261120, Note_on_c, 0, 65, 86
2, 261120, Note_on_c, 0, 63, 86
2, 261120, Note_on_c, 0, 60, 86
2, 261500, Note_off_c, 0, 65, 100
2, 261500, Note_off_c, 0, 63, 100
2, 261500, Note_off_c, 0, 60, 100
2, 261504, Note_on_c, 0, 66, 90
2, 261504, Note_on_c, 0, 63, 90
2, 261504, Note_on_c, 0, 60, 90
2, 262652, Note_off_c, 0, 66, 100
2, 262652, Note_off_c, 0, 63, 100
2, 262652, Note_off_c, 0, 60, 100
2, 262656, Note_on_c, 0, 66, 100
2, 262656, Note_on_c, 0, 63, 100
2, 262656, Note_on_c, 0, 60, 100
2, 263036, Note_off_c, 0, 66, 100
2, 263036, Note_off_c, 0, 63, 100
2, 263036, Note_off_c, 0, 60, 100
2, 263040, Note_on_c, 0, 66, 104
2, 263040, Note_on_c, 0, 63, 104
2, 263040, Note_on_c, 0, 60, 104
2, 263420, Note_off_c, 0, 66, 100
2, 263420, Note_off_c, 0, 63, 100
2, 263420, Note_off_c, 0, 60, 100
2, 263424, Note_on_c, 0, 66, 107
2, 263424, Note_on_c, 0, 63, 107
2, 263424, Note_on_c, 0, 60, 107
2, 263804, Note_off_c, 0, 66, 100
2, 263804, Note_off_c, 0, 63, 100
2, 263804, Note_off_c, 0, 60, 100
2, 263808, Note_on_c, 0, 67, 110
2, 263808, Note_on_c, 0, 63, 110
2, 263808, Note_on_c, 0, 58, 110
2, 264956, Note_off_c, 0, 67, 100
2, 264956, Note_off_c, 0, 63, 100
2, 264956, Note_off_c, 0, 58, 100
2, 264960, Note_on_c, 0, 62, 80
2, 264960, Note_on_c, 0, 56, 80
2, 264960, Note_on_c, 0, 67, 80
2, 265148, Note_off_c, 0, 67, 100
2, 265152, Note_on_c, 0, 65, 80
2, 265340, Note_off_c, 0, 62, 100
2, 265340, Note_off_c, 0, 56, 100
2, 265340, Note_off_c, 0, 65, 100
2, 265344, Note_on_c, 0, 62, 80
2, 265344, Note_on_c, 0, 56, 80
2, 265344, Note_on_c, 0, 65, 80
2, 265436, Note_off_c, 0, 65, 100
2, 265440, Note_on_c, 0, 67, 80
2, 265532, Note_off_c, 0, 67, 100
2, 265536, Note_on_c, 0, 65, 80
2, 265628, Note_off_c, 0, 65, 100
2, 265632, Note_on_c, 0, 64, 80
2, 265724, Note_off_c, 0, 62, 100
2, 265724, Note_off_c, 0, 56, 100
2, 265724, Note_off_c, 0, 64, 100
2, 265728, Note_on_c, 0, 62, 80
2, 265728, Note_on_c, 0, 56, 80
2, 265728, Note_on_c, 0, 65, 80
2, 265916, Note_off_c, 0, 65, 100
2, 265920, Note_on_c, 0, 67, 80
2, 266108, Note_off_c, 0, 62, 100
2, 266108, Note_off_c, 0, 56, 100
2, 266108, Note_off_c, 0, 67, 100
2, 266112, Note_on_c, 0, 63, 80
2, 266112, Note_on_c, 0, 55, 80
2, 266204, Note_off_c, 0, 63, 100
2, 266204, Note_off_c, 0, 55, 100
2, 266208, Note_on_c, 0, 65, 80
2, 266300, Note_off_c, 0, 65, 100
2, 266304, Note_on_c, 0, 63, 80
2, 266396, Note_off_c, 0, 63, 100
2, 266400, Note_on_c, 0, 62, 80
2, 266492, Note_off_c, 0, 62, 100
2, 266496, Note_on_c, 0, 63, 80
2, 266620, Note_off_c, 0, 63, 100
2, 266624, Note_on_c, 0, 65, 80
2, 266748, Note_off_c, 0, 65, 100
2, 266752, Note_on_c, 0, 67, 80
2, 266876, Note_off_c, 0, 67, 100
2, 266880, Note_on_c, 0, 68, 80
2, 267004, Note_off_c, 0, 68, 100
2, 267008, Note_on_c, 0, 70, 80
2, 267132, Note_off_c, 0, 70, 100
2, 267136, Note_on_c, 0, 72, 80
2, 267260, Note_off_c, 0, 72, 100
2, 267264, Note_on_c, 0, 74, 80
2, 267388, Note_off_c, 0, 74, 100
2, 267392, Note_on_c, 0, 75, 80
2, 267516, Note_off_c, 0, 75, 100
2, 267520, Note_on_c, 0, 77, 80
2, 267644, Note_off_c, 0, 77, 100
2, 267648, Note_on_c, 0, 78, 80
2, 267772, Note_off_c, 0, 78, 100
2, 267776, Note_on_c, 0, 79, 80
2, 267900, Note_off_c, 0, 79, 100
2, 267904, Note_on_c, 0, 80, 80
2, 268028, Note_off_c, 0, 80, 100
2, 268032, Note_on_c, 0, 81, 80
2, 268156, Note_off_c, 0, 81, 100
2, 268160, Note_on_c, 0, 82, 80
2, 268284, Note_off_c, 0, 82, 100
2, 268288, Note_on_c, 0, 83, 80
2, 268412, Note_off_c, 0, 83, 100
2, 268416, Note_on_c, 0, 84, 80
2, 268700, Note_off_c, 0, 84, 100
2, 268704, Note_on_c, 0, 77, 80
2, 268796, Note_off_c, 0, 77, 100
2, 268800, Note_on_c, 0, 77, 80
2, 269564, Note_off_c, 0, 77, 100
2, 269568, Note_on_c, 0, 71, 80
2, 269612, Note_off_c, 0, 71, 100
2, 269612, Note_on_c, 0, 72, 80
2, 269848, Note_off_c, 0, 72, 100
2, 269856, Note_on_c, 0, 65, 80
2, 269948, Note_off_c, 0, 65, 100
2, 269952, Note_on_c, 0, 65, 80
2, 270716, Note_off_c, 0, 65, 100
2, 270720, Note_on_c, 0, 53, 80
2, 270720, Note_on_c, 0, 51, 80
2, 270720, Note_on_c, 0, 48, 80
2, 271100, Note_off_c, 0, 53, 100
2, 271100, Note_off_c, 0, 51, 100
2, 271100, Note_off_c, 0, 48, 100
2, 271104, Note_on_c, 0, 53, 83
2, 271104, Note_on_c, 0, 51, 83
2, 271104, Note_on_c, 0, 48, 83
2, 271484, Note_off_c, 0, 53, 100
2, 271484, Note_off_c, 0, 51, 100
2, 271484, Note_off_c, 0, 48, 100
2, 271488, Note_on_c, 0, 53, 86
2, 271488, Note_on_c, 0, 51, 86
2, 271488, Note_on_c, 0, 48, 86
2, 271868, Note_off_c, 0, 53, 100
2, 271868, Note_off_c, 0, 51, 100
2, 271868, Note_off_c, 0, 48, 100
2, 271872, Note_on_c, 0, 54, 90
2, 271872, Note_on_c, 0, 51, 90
2, 271872, Note_on_c, 0, 48, 90
2, 273020, Note_off_c, 0, 54, 100
2, 273020, Note_off_c, 0, 51, 100
2, 273020, Note_off_c, 0, 48, 100
2, 273024, Note_on_c, 0, 78, 100
2, 273024, Note_on_c, 0, 75, 100
2, 273024, Note_on_c, 0, 72, 100
2, 273404, Note_off_c, 0, 78, 100
2, 273404, Note_off_c, 0, 75, 100
2, 273404, Note_off_c, 0, 72, 100
2, 273408, Note_on_c, 0, 78, 104
2, 273408, Note_on_c, 0, 75, 104
2, 273408, Note_on_c, 0, 72, 104
2, 273788, Note_off_c, 0, 78, 100
2, 273788, Note_off_c, 0, 75, 100
2, 273788, Note_off_c, 0, 72, 100
2, 273792, Note_on_c, 0, 78, 107
2, 273792, Note_on_c, 0, 75, 107
2, 273792, Note_on_c, 0, 72, 107
2, 274172, Note_off_c, 0, 78, 100
2, 274172, Note_off_c, 0, 75, 100
2, 274172, Note_off_c, 0, 72, 100
2, 274176, Note_on_c, 0, 79, 110
2, 274176, Note_on_c, 0, 75, 110
2, 275324, Note_off_c, 0, 79, 100
2, 275324, Note_off_c, 0, 75, 100
2, 275328, Note_on_c, 0, 62, 80
2, 275328, Note_on_c, 0, 56, 80
2, 275328, Note_on_c, 0, 67, 80
2, 275516, Note_off_c, 0, 67, 100
2, 275520, Note_on_c, 0, 65, 80
2, 275708, Note_off_c, 0, 62, 100
2, 275708, Note_off_c, 0, 56, 100
2, 275708, Note_off_c, 0, 65, 100
2, 275712, Note_on_c, 0, 62, 80
2, 275712, Note_on_c, 0, 56, 80
2, 275712, Note_on_c, 0, 65, 80
2, 275804, Note_off_c, 0, 65, 100
2, 275808, Note_on_c, 0, 67, 80
2, 275900, Note_off_c, 0, 67, 100
2, 275904, Note_on_c, 0, 65, 80
2, 275996, Note_off_c, 0, 65, 100
2, 276000, Note_on_c, 0, 64, 80
2, 276092, Note_off_c, 0, 62, 100
2, 276092, Note_off_c, 0, 56, 100
2, 276092, Note_off_c, 0, 64, 100
2, 276096, Note_on_c, 0, 62, 80
2, 276096, Note_on_c, 0, 56, 80
2, 276096, Note_on_c, 0, 65, 80
2, 276284, Note_off_c, 0, 65, 100
2, 276288, Note_on_c, 0, 67, 80
2, 276476, Note_off_c, 0, 62, 100
2, 276476, Note_off_c, 0, 56, 100
2, 276476, Note_off_c, 0, 67, 100
2, 276480, Note_on_c, 0, 63, 80
2, 276480, Note_on_c, 0, 55, 80
2, 276860, Note_off_c, 0, 63, 100
2, 276860, Note_off_c, 0, 55, 100
2, 277632, Note_on_c, 0, 86, 80
2, 277676, Note_off_c, 0, 86, 100
2, 277680, Note_on_c, 0, 87, 80
2, 277916, Note_off_c, 0, 87, 100
2, 277920, Note_on_c, 0, 80, 80
2, 278012, Note_off_c, 0, 80, 100
2, 278016, Note_on_c, 0, 80, 80
2, 278396, Note_off_c, 0, 80, 100
2, 278784, Note_on_c, 0, 74, 80
2, 278828, Note_off_c, 0, 74, 100
2, 278832, Note_on_c, 0, 75, 80
2, 279068, Note_off_c, 0, 75, 100
2, 279072, Note_on_c, 0, 67, 80
2, 279164, Note_off_c, 0, 67, 100
2, 279168, Note_on_c, 0, 67, 80
2, 279548, Note_off_c, 0, 67, 100
2, 279936, Note_on_c, 0, 75, 80
2, 280028, Note_off_c, 0, 75, 100
2, 280032, Note_on_c, 0, 65, 80
2, 280124, Note_off_c, 0, 65, 100
2, 280320, Note_on_c, 0, 75, 80
2, 280412, Note_off_c, 0, 75, 100
2, 280416, Note_on_c, 0, 65, 80
2, 280508, Note_off_c, 0, 65, 100
2, 280704, Note_on_c, 0, 74, 80
2, 280796, Note_off_c, 0, 74, 100
2, 280800, Note_on_c, 0, 65, 80
2, 280892, Note_off_c, 0, 65, 100
2, 281088, Note_on_c, 0, 75, 80
2, 281180, Note_off_c, 0, 75, 100
2, 281184, Note_on_c, 0, 63, 80
2, 281276, Note_off_c, 0, 63, 100
2, 282336, Note_on_c, 0, 87, 80
2, 282428, Note_off_c, 0, 87, 100
2, 282432, Note_on_c, 0, 86, 80
2, 282524, Note_off_c, 0, 86, 100
2, 282528, Note_on_c, 0, 87, 80
2, 282620, Note_off_c, 0, 87, 100
2, 282624, Note_on_c, 0, 86, 80
2, 282716, Note_off_c, 0, 86, 100
2, 282720, Note_on_c, 0, 87, 80
2, 282812, Note_off_c, 0, 87, 100
2, 282816, Note_on_c, 0, 89, 80
2, 282908, Note_off_c, 0, 89, 100
2, 282912, Note_on_c, 0, 87, 80
2, 283004, Note_off_c, 0, 87, 100
2, 283008, Note_on_c, 0, 80, 80
2, 283388, Note_off_c, 0, 80, 100
2, 283488, Note_on_c, 0, 75, 80
2, 283580, Note_off_c, 0, 75, 100
2, 283584, Note_on_c, 0, 74, 80
2, 283676, Note_off_c, 0, 74, 100
2, 283680, Note_on_c, 0, 75, 80
2, 283772, Note_off_c, 0, 75, 100
2, 283776, Note_on_c, 0, 74, 80
2, 283868, Note_off_c, 0, 74, 100
2, 283872, Note_on_c, 0, 75, 80
2, 283964, Note_off_c, 0, 75, 100
2, 283968, Note_on_c, 0, 77, 80
2, 284060, Note_off_c, 0, 77, 100
2, 284064, Note_on_c, 0, 75, 80
2, 284156, Note_off_c, 0, 75, 100
2, 284160, Note_on_c, 0, 67, 80
2, 284540, Note_off_c, 0, 67, 100
2, 284640, Note_on_c, 0, 65, 80
2, 284732, Note_off_c, 0, 65, 100
2, 284736, Note_on_c, 0, 74, 80
2, 284828, Note_off_c, 0, 74, 100
2, 284832, Note_on_c, 0, 75, 80
2, 284924, Note_off_c, 0, 75, 100
2, 285024, Note_on_c, 0, 65, 80
2, 285116, Note_off_c, 0, 65, 100
2, 285120, Note_on_c, 0, 74, 80
2, 285212, Note_off_c, 0, 74, 100
2, 285216, Note_on_c, 0, 75, 80
2, 285308, Note_off_c, 0, 75, 100
2, 285408, Note_on_c, 0, 65, 80
2, 285500, Note_off_c, 0, 65, 100
2, 285504, Note_on_c, 0, 73, 80
2, 285596, Note_off_c, 0, 73, 100
2, 285600, Note_on_c, 0, 74, 80
2, 285692, Note_off_c, 0, 74, 100
2, 285696, Note_on_c, 0, 63, 80
2, 285696, Note_on_c, 0, 75, 80
2, 285788, Note_off_c, 0, 63, 100
2, 285788, Note_off_c, 0, 75, 100
2, 285792, Note_on_c, 0, 65, 80
2, 285884, Note_off_c, 0, 65, 100
2, 285888, Note_on_c, 0, 63, 80
2, 285980, Note_off_c, 0, 63, 100
2, 285984, Note_on_c, 0, 62, 80
2, 286076, Note_off_c, 0, 62, 100
2, 286080, Note_on_c, 0, 63, 80
2, 286172, Note_off_c, 0, 63, 100
2, 286176, Note_on_c, 0, 65, 80
2, 286268, Note_off_c, 0, 65, 100
2, 286272, Note_on_c, 0, 67, 80
2, 286364, Note_off_c, 0, 67, 100
2, 286368, Note_on_c, 0, 68, 80
2, 286460, Note_off_c, 0, 68, 100
2, 286464, Note_on_c, 0, 70, 80
2, 286652, Note_off_c, 0, 70, 100
2, 286656, Note_on_c, 0, 67, 80
2, 286844, Note_off_c, 0, 67, 100
2, 286848, Note_on_c, 0, 65, 80
2, 287036, Note_off_c, 0, 65, 100
2, 287040, Note_on_c, 0, 68, 80
2, 287228, Note_off_c, 0, 68, 100
2, 287232, Note_on_c, 0, 62, 80
2, 287420, Note_off_c, 0, 62, 100
2, 287424, Note_on_c, 0, 65, 80
2, 287612, Note_off_c, 0, 65, 100
2, 287616, Note_on_c, 0, 58, 80
2, 287804, Note_off_c, 0, 58, 100
2, 287808, Note_on_c, 0, 62, 80
2, 287996, Note_off_c, 0, 62, 100
2, 288000, Note_on_c, 0, 63, 80
2, 288092, Note_off_c, 0, 63, 100
2, 288096, Note_on_c, 0, 65, 80
2, 288188, Note_off_c, 0, 65, 100
2, 288192, Note_on_c, 0, 63, 80
2, 288284, Note_off_c, 0, 63, 100
2, 288288, Note_on_c, 0, 62, 80
2, 288380, Note_off_c, 0, 62, 100
2, 288384, Note_on_c, 0, 63, 80
2, 288476, Note_off_c, 0, 63, 100
2, 288480, Note_on_c, 0, 65, 80
2, 288572, Note_off_c, 0, 65, 100
2, 288576, Note_on_c, 0, 67, 80
2, 288668, Note_off_c, 0, 67, 100
2, 288672, Note_on_c, 0, 68, 80
2, 288764, Note_off_c, 0, 68, 100
2, 288768, Note_on_c, 0, 72, 80
2, 288860, Note_off_c, 0, 72, 100
2, 288864, Note_on_c, 0, 70, 80
2, 288956, Note_off_c, 0, 70, 100
2, 288960, Note_on_c, 0, 68, 80
2, 289052, Note_off_c, 0, 68, 100
2, 289056, Note_on_c, 0, 67, 80
2, 289148, Note_off_c, 0, 67, 100
2, 289152, Note_on_c, 0, 65, 80
2, 289340, Note_off_c, 0, 65, 100
2, 289344, Note_on_c, 0, 68, 80
2, 289532, Note_off_c, 0, 68, 100
2, 289536, Note_on_c, 0, 62, 80
2, 289724, Note_off_c, 0, 62, 100
2, 289728, Note_on_c, 0, 65, 80
2, 289916, Note_off_c, 0, 65, 100
2, 289920, Note_on_c, 0, 58, 80
2, 290108, Note_off_c, 0, 58, 100
2, 290112, Note_on_c, 0, 62, 80
2, 290300, Note_off_c, 0, 62, 100
2, 290304, Note_on_c, 0, 63, 80
2, 290492, Note_off_c, 0, 63, 100
2, 290496, Note_on_c, 0, 67, 80
2, 290684, Note_off_c, 0, 67, 100
2, 290688, Note_on_c, 0, 60, 80
2, 290876, Note_off_c, 0, 60, 100
2, 290880, Note_on_c, 0, 63, 80
2, 291068, Note_off_c, 0, 63, 100
2, 291072, Note_on_c, 0, 57, 80
2, 291260, Note_off_c, 0, 57, 100
2, 291264, Note_on_c, 0, 60, 80
2, 291452, Note_off_c, 0, 60, 100
2, 291456, Note_on_c, 0, 53, 80
2, 291644, Note_off_c, 0, 53, 100
2, 291648, Note_on_c, 0, 57, 80
2, 291836, Note_off_c, 0, 57, 100
2, 291840, Note_on_c, 0, 60, 80
2, 292028, Note_off_c, 0, 60, 100
2, 292032, Note_on_c, 0, 64, 80
2, 292220, Note_off_c, 0, 64, 100
2, 292224, Note_on_c, 0, 65, 80
2, 292412, Note_off_c, 0, 65, 100
2, 292416, Note_on_c, 0, 57, 80
2, 292604, Note_off_c, 0, 57, 100
2, 292608, Note_on_c, 0, 58, 80
2, 292796, Note_off_c, 0, 58, 100
2, 292800, Note_on_c, 0, 62, 86
2, 292988, Note_off_c, 0, 62, 100
2, 292992, Note_on_c, 0, 65, 92
2, 293180, Note_off_c, 0, 65, 100
2, 293184, Note_on_c, 0, 69, 98
2, 293372, Note_off_c, 0, 69, 100
2, 293376, Note_on_c, 0, 70, 104
2, 293564, Note_off_c, 0, 70, 100
2, 293568, Note_on_c, 0, 74, 110
2, 293756, Note_off_c, 0, 74, 100
2, 293760, Note_on_c, 0, 77, 110
2, 293948, Note_off_c, 0, 77, 100
2, 293952, Note_on_c, 0, 81, 110
2, 294140, Note_off_c, 0, 81, 100
2, 294144, Note_on_c, 0, 82, 110
2, 294524, Note_off_c, 0, 82, 100
2, 295872, Note_on_c, 0, 82, 80
2, 296060, Note_off_c, 0, 82, 100
2, 296064, Note_on_c, 0, 87, 80
2, 296636, Note_off_c, 0, 87, 100
2, 296640, Note_on_c, 0, 86, 80
2, 296732, Note_off_c, 0, 86, 100
2, 296736, Note_on_c, 0, 87, 80
2, 296828, Note_off_c, 0, 87, 100
2, 296832, Note_on_c, 0, 89, 80
2, 297020, Note_off_c, 0, 89, 100
2, 297024, Note_on_c, 0, 87, 80
2, 297212, Note_off_c, 0, 87, 100
2, 297216, Note_on_c, 0, 82, 80
2, 297788, Note_off_c, 0, 82, 100
2, 297792, Note_on_c, 0, 84, 80
2, 297884, Note_off_c, 0, 84, 100
2, 297888, Note_on_c, 0, 82, 80
2, 297980, Note_off_c, 0, 82, 100
2, 297984, Note_on_c, 0, 80, 80
2, 298172, Note_off_c, 0, 80, 100
2, 298176, Note_on_c, 0, 79, 80
2, 298364, Note_off_c, 0, 79, 100
2, 298368, Note_on_c, 0, 83, 80
2, 298460, Note_off_c, 0, 83, 100
2, 298464, Note_on_c, 0, 84, 80
2, 298556, Note_off_c, 0, 84, 100
2, 298752, Note_on_c, 0, 83, 80
2, 298844, Note_off_c, 0, 83, 100
2, 298848, Note_on_c, 0, 84, 80
2, 298940, Note_off_c, 0, 84, 100
2, 299136, Note_on_c, 0, 79, 80
2, 299228, Note_off_c, 0, 79, 100
2, 299232, Note_on_c, 0, 80, 80
2, 299324, Note_off_c, 0, 80, 100
2, 299520, Note_on_c, 0, 76, 80
2, 299612, Note_off_c, 0, 76, 100
2, 299616, Note_on_c, 0, 77, 80
2, 299708, Note_off_c, 0, 77, 100
2, 300480, Note_on_c, 0, 77, 80
2, 300668, Note_off_c, 0, 77, 100
2, 300672, Note_on_c, 0, 80, 80
2, 301244, Note_off_c, 0, 80, 100
2, 301248, Note_on_c, 0, 82, 80
2, 301340, Note_off_c, 0, 82, 100
2, 301344, Note_on_c, 0, 80, 80
2, 301436, Note_off_c, 0, 80, 100
2, 301440, Note_on_c, 0, 79, 80
2, 301628, Note_off_c, 0, 79, 100
2, 301632, Note_on_c, 0, 77, 80
2, 301820, Note_off_c, 0, 77, 100
2, 301824, Note_on_c, 0, 75, 80
2, 302012, Note_off_c, 0, 75, 100
2, 302016, Note_on_c, 0, 74, 80
2, 302204, Note_off_c, 0, 74, 100
2, 302208, Note_on_c, 0, 72, 80
2, 302396, Note_off_c, 0, 72, 100
2, 302400, Note_on_c, 0, 70, 80
2, 302588, Note_off_c, 0, 70, 100
2, 302592, Note_on_c, 0, 68, 80
2, 302780, Note_off_c, 0, 68, 100
2, 302784, Note_on_c, 0, 65, 80
2, 302972, Note_off_c, 0, 65, 100
2, 302976, Note_on_c, 0, 63, 80
2, 303164, Note_off_c, 0, 63, 100
2, 303168, Note_on_c, 0, 67, 80
2, 303356, Note_off_c, 0, 67, 100
2, 303360, Note_on_c, 0, 60, 80
2, 303548, Note_off_c, 0, 60, 100
2, 303552, Note_on_c, 0, 68, 80
2, 303740, Note_off_c, 0, 68, 100
2, 303744, Note_on_c, 0, 62, 80
2, 303932, Note_off_c, 0, 62, 100
2, 303936, Note_on_c, 0, 65, 80
2, 304124, Note_off_c, 0, 65, 100
2, 304128, Note_on_c, 0, 63, 80
2, 304220, Note_off_c, 0, 63, 100
2, 304224, Note_on_c, 0, 55, 80
2, 304316, Note_off_c, 0, 55, 100
2, 304320, Note_on_c, 0, 58, 80
2, 304412, Note_off_c, 0, 58, 100
2, 304416, Note_on_c, 0, 56, 80
2, 304508, Note_off_c, 0, 56, 100
2, 304512, Note_on_c, 0, 55, 80
2, 304584, Note_off_c, 0, 55, 100
2, 304588, Note_on_c, 0, 56, 80
2, 304660, Note_off_c, 0, 56, 100
2, 304664, Note_on_c, 0, 58, 80
2, 304736, Note_off_c, 0, 58, 100
2, 304740, Note_on_c, 0, 60, 80
2, 304812, Note_off_c, 0, 60, 100
2, 304816, Note_on_c, 0, 62, 80
2, 304888, Note_off_c, 0, 62, 100
2, 304896, Note_on_c, 0, 63, 80
2, 304956, Note_off_c, 0, 63, 100
2, 304960, Note_on_c, 0, 62, 80
2, 305020, Note_off_c, 0, 62, 100
2, 305024, Note_on_c, 0, 65, 80
2, 305084, Note_off_c, 0, 65, 100
2, 305088, Note_on_c, 0, 63, 80
2, 305148, Note_off_c, 0, 63, 100
2, 305152, Note_on_c, 0, 67, 80
2, 305212, Note_off_c, 0, 67, 100
2, 305216, Note_on_c, 0, 65, 80
2, 305276, Note_off_c, 0, 65, 100
2, 305280, Note_on_c, 0, 63, 80
2, 305340, Note_off_c, 0, 63, 100
2, 305344, Note_on_c, 0, 62, 80
2, 305404, Note_off_c, 0, 62, 100
2, 305408, Note_on_c, 0, 60, 80
2, 305468, Note_off_c, 0, 60, 100
2, 305472, Note_on_c, 0, 58, 80
2, 305532, Note_off_c, 0, 58, 100
2, 305536, Note_on_c, 0, 60, 80
2, 305596, Note_off_c, 0, 60, 100
2, 305600, Note_on_c, 0, 56, 80
2, 305660, Note_off_c, 0, 56, 100
2, 305664, Note_on_c, 0, 55, 80
2, 305724, Note_off_c, 0, 55, 100
2, 305728, Note_on_c, 0, 58, 80
2, 305788, Note_off_c, 0, 58, 100
2, 305792, Note_on_c, 0, 56, 80
2, 305852, Note_off_c, 0, 56, 100
2, 305856, Note_on_c, 0, 55, 80
2, 305916, Note_off_c, 0, 55, 100
2, 305920, Note_on_c, 0, 56, 80
2, 305980, Note_off_c, 0, 56, 100
2, 305984, Note_on_c, 0, 58, 80
2, 306044, Note_off_c, 0, 58, 100
2, 306048, Note_on_c, 0, 60, 80
2, 306108, Note_off_c, 0, 60, 100
2, 306112, Note_on_c, 0, 62, 80
2, 306172, Note_off_c, 0, 62, 100
2, 306176, Note_on_c, 0, 63, 80
2, 306236, Note_off_c, 0, 63, 100
2, 306240, Note_on_c, 0, 62, 80
2, 306300, Note_off_c, 0, 62, 100
2, 306304, Note_on_c, 0, 60, 80
2, 306364, Note_off_c, 0, 60, 100
2, 306368, Note_on_c, 0, 58, 80
2, 306428, Note_off_c, 0, 58, 100
2, 306432, Note_on_c, 0, 60, 80
2, 306524, Note_off_c, 0, 60, 100
2, 306528, Note_on_c, 0, 62, 80
2, 306620, Note_off_c, 0, 62, 100
2, 306624, Note_on_c, 0, 63, 80
2, 306716, Note_off_c, 0, 63, 100
2, 306720, Note_on_c, 0, 65, 80
2, 306812, Note_off_c, 0, 65, 100
2, 306816, Note_on_c, 0, 67, 80
2, 306908, Note_off_c, 0, 67, 100
2, 306912, Note_on_c, 0, 65, 80
2, 307004, Note_off_c, 0, 65, 100
2, 307008, Note_on_c, 0, 63, 80
2, 307100, Note_off_c, 0, 63, 100
2, 307104, Note_on_c, 0, 62, 80
2, 307196, Note_off_c, 0, 62, 100
2, 307200, Note_on_c, 0, 63, 80
2, 307292, Note_off_c, 0, 63, 100
2, 307296, Note_on_c, 0, 65, 80
2, 307388, Note_off_c, 0, 65, 100
2, 307392, Note_on_c, 0, 67, 80
2, 307484, Note_off_c, 0, 67, 100
2, 307488, Note_on_c, 0, 68, 80
2, 307580, Note_off_c, 0, 68, 100
2, 307584, Note_on_c, 0, 72, 80
2, 307676, Note_off_c, 0, 72, 100
2, 307680, Note_on_c, 0, 70, 80
2, 307772, Note_off_c, 0, 70, 100
2, 307776, Note_on_c, 0, 68, 80
2, 307868, Note_off_c, 0, 68, 100
2, 307872, Note_on_c, 0, 67, 80
2, 307964, Note_off_c, 0, 67, 100
2, 307968, Note_on_c, 0, 68, 80
2, 308060, Note_off_c, 0, 68, 100
2, 308064, Note_on_c, 0, 70, 80
2, 308156, Note_off_c, 0, 70, 100
2, 308160, Note_on_c, 0, 72, 80
2, 308252, Note_off_c, 0, 72, 100
2, 308256, Note_on_c, 0, 74, 80
2, 308348, Note_off_c, 0, 74, 100
2, 308352, Note_on_c, 0, 75, 80
2, 308444, Note_off_c, 0, 75, 100
2, 308448, Note_on_c, 0, 74, 80
2, 308540, Note_off_c, 0, 74, 100
2, 308544, Note_on_c, 0, 72, 80
2, 308636, Note_off_c, 0, 72, 100
2, 308640, Note_on_c, 0, 70, 80
2, 308732, Note_off_c, 0, 70, 100
2, 308736, Note_on_c, 0, 72, 80
2, 308828, Note_off_c, 0, 72, 100
2, 308832, Note_on_c, 0, 74, 80
2, 308924, Note_off_c, 0, 74, 100
2, 308928, Note_on_c, 0, 75, 80
2, 309020, Note_off_c, 0, 75, 100
2, 309024, Note_on_c, 0, 77, 80
2, 309116, Note_off_c, 0, 77, 100
2, 309120, Note_on_c, 0, 79, 80
2, 309212, Note_off_c, 0, 79, 100
2, 309216, Note_on_c, 0, 77, 80
2, 309308, Note_off_c, 0, 77, 100
2, 309312, Note_on_c, 0, 75, 80
2, 309404, Note_off_c, 0, 75, 100
2, 309408, Note_on_c, 0, 74, 80
2, 309500, Note_off_c, 0, 74, 100
2, 309504, Note_on_c, 0, 75, 80
2, 309596, Note_off_c, 0, 75, 100
2, 309600, Note_on_c, 0, 77, 80
2, 309692, Note_off_c, 0, 77, 100
2, 309696, Note_on_c, 0, 79, 80
2, 309788, Note_off_c, 0, 79, 100
2, 309792, Note_on_c, 0, 80, 80
2, 309884, Note_off_c, 0, 80, 100
2, 309888, Note_on_c, 0, 84, 80
2, 309980, Note_off_c, 0, 84, 100
2, 309984, Note_on_c, 0, 82, 80
2, 310076, Note_off_c, 0, 82, 100
2, 310080, Note_on_c, 0, 80, 80
2, 310172, Note_off_c, 0, 80, 100
2, 310176, Note_on_c, 0, 79, 80
2, 310268, Note_off_c, 0, 79, 100
2, 310272, Note_on_c, 0, 82, 80
2, 310396, Note_off_c, 0, 82, 100
2, 310400, Note_on_c, 0, 80, 80
2, 310524, Note_off_c, 0, 80, 100
2, 310528, Note_on_c, 0, 79, 80
2, 310652, Note_off_c, 0, 79, 100
2, 310656, Note_on_c, 0, 80, 80
2, 310748, Note_off_c, 0, 80, 100
2, 310752, Note_on_c, 0, 82, 80
2, 310844, Note_off_c, 0, 82, 100
2, 310848, Note_on_c, 0, 84, 80
2, 310940, Note_off_c, 0, 84, 100
2, 310944, Note_on_c, 0, 86, 80
2, 311036, Note_off_c, 0, 86, 100
2, 311040, Note_on_c, 0, 87, 80
2, 311612, Note_off_c, 0, 87, 100
2, 311616, Note_on_c, 0, 86, 80
2, 311708, Note_off_c, 0, 86, 100
2, 311712, Note_on_c, 0, 87, 80
2, 311804, Note_off_c, 0, 87, 100
2, 311808, Note_on_c, 0, 86, 80
2, 311900, Note_off_c, 0, 86, 100
2, 311904, Note_on_c, 0, 87, 80
2, 311996, Note_off_c, 0, 87, 100
2, 312000, Note_on_c, 0, 89, 80
2, 312092, Note_off_c, 0, 89, 100
2, 312096, Note_on_c, 0, 87, 80
2, 312188, Note_off_c, 0, 87, 100
2, 312192, Note_on_c, 0, 82, 80
2, 312764, Note_off_c, 0, 82, 100
2, 312768, Note_on_c, 0, 81, 80
2, 312860, Note_off_c, 0, 81, 100
2, 312864, Note_on_c, 0, 82, 80
2, 312956, Note_off_c, 0, 82, 100
2, 312960, Note_on_c, 0, 84, 80
2, 313052, Note_off_c, 0, 84, 100
2, 313056, Note_on_c, 0, 82, 80
2, 313148, Note_off_c, 0, 82, 100
2, 313152, Note_on_c, 0, 80, 80
2, 313244, Note_off_c, 0, 80, 100
2, 313248, Note_on_c, 0, 79, 80
2, 313340, Note_off_c, 0, 79, 100
2, 313344, Note_on_c, 0, 83, 80
2, 313436, Note_off_c, 0, 83, 100
2, 313440, Note_on_c, 0, 84, 80
2, 313532, Note_off_c, 0, 84, 100
2, 313536, Note_on_c, 0, 83, 80
2, 313628, Note_off_c, 0, 83, 100
2, 313632, Note_on_c, 0, 84, 80
2, 313724, Note_off_c, 0, 84, 100
2, 313728, Note_on_c, 0, 83, 80
2, 313820, Note_off_c, 0, 83, 100
2, 313824, Note_on_c, 0, 84, 80
2, 313916, Note_off_c, 0, 84, 100
2, 313920, Note_on_c, 0, 83, 80
2, 314012, Note_off_c, 0, 83, 100
2, 314016, Note_on_c, 0, 84, 80
2, 314108, Note_off_c, 0, 84, 100
2, 314112, Note_on_c, 0, 79, 80
2, 314204, Note_off_c, 0, 79, 100
2, 314208, Note_on_c, 0, 80, 80
2, 314300, Note_off_c, 0, 80, 100
2, 314304, Note_on_c, 0, 79, 80
2, 314396, Note_off_c, 0, 79, 100
2, 314400, Note_on_c, 0, 80, 80
2, 314492, Note_off_c, 0, 80, 100
2, 314496, Note_on_c, 0, 76, 80
2, 314588, Note_off_c, 0, 76, 100
2, 314592, Note_on_c, 0, 77, 80
2, 314684, Note_off_c, 0, 77, 100
2, 314688, Note_on_c, 0, 76, 80
2, 314780, Note_off_c, 0, 76, 100
2, 314784, Note_on_c, 0, 77, 80
2, 314876, Note_off_c, 0, 77, 100
2, 315456, Note_on_c, 0, 77, 80
2, 315644, Note_off_c, 0, 77, 100
2, 315648, Note_on_c, 0, 80, 80
2, 316220, Note_off_c, 0, 80, 100
2, 316224, Note_on_c, 0, 79, 80
2, 316316, Note_off_c, 0, 79, 100
2, 316320, Note_on_c, 0, 80, 80
2, 316412, Note_off_c, 0, 80, 100
2, 316416, Note_on_c, 0, 82, 80
2, 316508, Note_off_c, 0, 82, 100
2, 316512, Note_on_c, 0, 80, 80
2, 316604, Note_off_c, 0, 80, 100
2, 316608, Note_on_c, 0, 79, 80
2, 316700, Note_off_c, 0, 79, 100
2, 316704, Note_on_c, 0, 77, 80
2, 316796, Note_off_c, 0, 77, 100
2, 316800, Note_on_c, 0, 75, 80
2, 316892, Note_off_c, 0, 75, 100
2, 316896, Note_on_c, 0, 74, 80
2, 316988, Note_off_c, 0, 74, 100
2, 316992, Note_on_c, 0, 79, 80
2, 317084, Note_off_c, 0, 79, 100
2, 317088, Note_on_c, 0, 77, 80
2, 317180, Note_off_c, 0, 77, 100
2, 317184, Note_on_c, 0, 75, 80
2, 317276, Note_off_c, 0, 75, 100
2, 317280, Note_on_c, 0, 74, 80
2, 317372, Note_off_c, 0, 74, 100
2, 317376, Note_on_c, 0, 72, 80
2, 317468, Note_off_c, 0, 72, 100
2, 317472, Note_on_c, 0, 70, 80
2, 317564, Note_off_c, 0, 70, 100
2, 317568, Note_on_c, 0, 68, 80
2, 317660, Note_off_c, 0, 68, 100
2, 317664, Note_on_c, 0, 67, 80
2, 317756, Note_off_c, 0, 67, 100
2, 317760, Note_on_c, 0, 68, 80
2, 317852, Note_off_c, 0, 68, 100
2, 317856, Note_on_c, 0, 65, 80
2, 318044, Note_off_c, 0, 65, 100
2, 318048, Note_on_c, 0, 63, 80
2, 318140, Note_off_c, 0, 63, 100
2, 318144, Note_on_c, 0, 67, 80
2, 318428, Note_off_c, 0, 67, 100
2, 318432, Note_on_c, 0, 60, 80
2, 318524, Note_off_c, 0, 60, 100
2, 318528, Note_on_c, 0, 68, 80
2, 318812, Note_off_c, 0, 68, 100
2, 318816, Note_on_c, 0, 62, 80
2, 318908, Note_off_c, 0, 62, 100
2, 318912, Note_on_c, 0, 65, 80
2, 319100, Note_off_c, 0, 65, 100
2, 319104, Note_on_c, 0, 63, 80
2, 319292, Note_off_c, 0, 63, 100
2, 319488, Note_on_c, 0, 60, 80
2, 319580, Note_off_c, 0, 60, 100
2, 319584, Note_on_c, 0, 62, 80
2, 319676, Note_off_c, 0, 62, 100
2, 319680, Note_on_c, 0, 63, 80
2, 319772, Note_off_c, 0, 63, 100
2, 319776, Note_on_c, 0, 65, 80
2, 319868, Note_off_c, 0, 65, 100
2, 319872, Note_on_c, 0, 67, 80
2, 319964, Note_off_c, 0, 67, 100
2, 319968, Note_on_c, 0, 68, 80
2, 320060, Note_off_c, 0, 68, 100
2, 320064, Note_on_c, 0, 70, 80
2, 320156, Note_off_c, 0, 70, 100
2, 320160, Note_on_c, 0, 72, 80
2, 320252, Note_off_c, 0, 72, 100
2, 320256, Note_on_c, 0, 70, 80
2, 321020, Note_off_c, 0, 70, 100
2, 321024, Note_on_c, 0, 68, 80
2, 321072, Note_on_c, 0, 70, 80
2, 321116, Note_off_c, 0, 68, 100
2, 321120, Note_on_c, 0, 68, 80
2, 321164, Note_off_c, 0, 70, 100
2, 321168, Note_on_c, 0, 70, 80
2, 321212, Note_off_c, 0, 68, 100
2, 321216, Note_on_c, 0, 68, 80
2, 321260, Note_off_c, 0, 70, 100
2, 321264, Note_on_c, 0, 70, 80
2, 321308, Note_off_c, 0, 68, 100
2, 321312, Note_on_c, 0, 67, 80
2, 321356, Note_off_c, 0, 70, 100
2, 321360, Note_on_c, 0, 68, 80
2, 321404, Note_off_c, 0, 67, 100
2, 321404, Note_off_c, 0, 68, 100
2, 321408, Note_on_c, 0, 67, 80
2, 321500, Note_off_c, 0, 67, 100
2, 321792, Note_on_c, 0, 72, 80
2, 321884, Note_off_c, 0, 72, 100
2, 321888, Note_on_c, 0, 74, 80
2, 321980, Note_off_c, 0, 74, 100
2, 321984, Note_on_c, 0, 75, 80
2, 322076, Note_off_c, 0, 75, 100
2, 322080, Note_on_c, 0, 77, 80
2, 322172, Note_off_c, 0, 77, 100
2, 322176, Note_on_c, 0, 79, 80
2, 322268, Note_off_c, 0, 79, 100
2, 322272, Note_on_c, 0, 80, 80
2, 322364, Note_off_c, 0, 80, 100
2, 322368, Note_on_c, 0, 82, 80
2, 322460, Note_off_c, 0, 82, 100
2, 322464, Note_on_c, 0, 84, 80
2, 322556, Note_off_c, 0, 84, 100
2, 322560, Note_on_c, 0, 82, 80
2, 323324, Note_off_c, 0, 82, 100
2, 323328, Note_on_c, 0, 80, 80
2, 323376, Note_on_c, 0, 82, 80
2, 323420, Note_off_c, 0, 80, 100
2, 323424, Note_on_c, 0, 80, 80
2, 323468, Note_off_c, 0, 82, 100
2, 323472, Note_on_c, 0, 82, 80
2, 323516, Note_off_c, 0, 80, 100
2, 323520, Note_on_c, 0, 80, 80
2, 323564, Note_off_c, 0, 82, 100
2, 323568, Note_on_c, 0, 82, 81
2, 323612, Note_off_c, 0, 80, 100
2, 323616, Note_on_c, 0, 79, 81
2, 323660, Note_off_c, 0, 82, 100
2, 323664, Note_on_c, 0, 80, 81
2, 323708, Note_off_c, 0, 79, 100
2, 323708, Note_off_c, 0, 80, 100
2, 323712, Note_on_c, 0, 79, 81
2, 324092, Note_off_c, 0, 79, 100
2, 324096, Note_on_c, 0, 77, 83
2, 324144, Note_on_c, 0, 79, 84
2, 324188, Note_off_c, 0, 77, 100
2, 324192, Note_on_c, 0, 77, 84
2, 324236, Note_off_c, 0, 79, 100
2, 324240, Note_on_c, 0, 79, 84
2, 324284, Note_off_c, 0, 77, 100
2, 324288, Note_on_c, 0, 77, 84
2, 324332, Note_off_c, 0, 79, 100
2, 324336, Note_on_c, 0, 79, 85
2, 324380, Note_off_c, 0, 77, 100
2, 324384, Note_on_c, 0, 76, 85
2, 324428, Note_off_c, 0, 79, 100
2, 324432, Note_on_c, 0, 77, 85
2, 324476, Note_off_c, 0, 76, 100
2, 324476, Note_off_c, 0, 77, 100
2, 324480, Note_on_c, 0, 75, 85
2, 324860, Note_off_c, 0, 75, 100
2, 324864, Note_on_c, 0, 73, 87
2, 324912, Note_on_c, 0, 75, 88
2, 324956, Note_off_c, 0, 73, 100
2, 324960, Note_on_c, 0, 73, 88
2, 325004, Note_off_c, 0, 75, 100
2, 325008, Note_on_c, 0, 75, 88
2, 325052, Note_off_c, 0, 73, 100
2, 325056, Note_on_c, 0, 73, 88
2, 325100, Note_off_c, 0, 75, 100
2, 325104, Note_on_c, 0, 75, 89
2, 325148, Note_off_c, 0, 73, 100
2, 325152, Note_on_c, 0, 72, 89
2, 325196, Note_off_c, 0, 75, 100
2, 325200, Note_on_c, 0, 73, 89
2, 325244, Note_off_c, 0, 72, 100
2, 325244, Note_off_c, 0, 73, 100
2, 325248, Note_on_c, 0, 72, 89
2, 325628, Note_off_c, 0, 72, 100
2, 325632, Note_on_c, 0, 70, 91
2, 325680, Note_on_c, 0, 72, 92
2, 325724, Note_off_c, 0, 70, 100
2, 325728, Note_on_c, 0, 70, 92
2, 325772, Note_off_c, 0, 72, 100
2, 325776, Note_on_c, 0, 72, 92
2, 325820, Note_off_c, 0, 70, 100
2, 325824, Note_on_c, 0, 70, 92
2, 325868, Note_off_c, 0, 72, 100
2, 325872, Note_on_c, 0, 72, 93
2, 325916, Note_off_c, 0, 70, 100
2, 325920, Note_on_c, 0, 69, 93
2, 325964, Note_off_c, 0, 72, 100
2, 325968, Note_on_c, 0, 70, 93
2, 326012, Note_off_c, 0, 69, 100
2, 326012, Note_off_c, 0, 70, 100
2, 326016, Note_on_c, 0, 69, 93
2, 326396, Note_off_c, 0, 69, 100
2, 326400, Note_on_c, 0, 68, 95
2, 326448, Note_on_c, 0, 70, 96
2, 326492, Note_off_c, 0, 68, 100
2, 326496, Note_on_c, 0, 68, 96
2, 326540, Note_off_c, 0, 70, 100
2, 326544, Note_on_c, 0, 70, 96
2, 326588, Note_off_c, 0, 68, 100
2, 326592, Note_on_c, 0, 68, 96
2, 326636, Note_off_c, 0, 70, 100
2, 326640, Note_on_c, 0, 70, 97
2, 326684, Note_off_c, 0, 68, 100
2, 326688, Note_on_c, 0, 67, 97
2, 326732, Note_off_c, 0, 70, 100
2, 326736, Note_on_c, 0, 68, 97
2, 326780, Note_off_c, 0, 67, 100
2, 326780, Note_off_c, 0, 68, 100
2, 326784, Note_on_c, 0, 67, 97
2, 327164, Note_off_c, 0, 67, 100
2, 327168, Note_on_c, 0, 65, 99
2, 327216, Note_on_c, 0, 67, 100
2, 327260, Note_off_c, 0, 65, 100
2, 327264, Note_on_c, 0, 65, 100
2, 327308, Note_off_c, 0, 67, 100
2, 327312, Note_on_c, 0, 67, 100
2, 327356, Note_off_c, 0, 65, 100
2, 327360, Note_on_c, 0, 65, 100
2, 327404, Note_off_c, 0, 67, 100
2, 327408, Note_on_c, 0, 67, 101
2, 327452, Note_off_c, 0, 65, 100
2, 327456, Note_on_c, 0, 63, 101
2, 327500, Note_off_c, 0, 67, 100
2, 327504, Note_on_c, 0, 65, 101
2, 327548, Note_off_c, 0, 63, 100
2, 327548, Note_off_c, 0, 65, 100
2, 327552, Note_on_c, 0, 63, 101
2, 327932, Note_off_c, 0, 63, 100
2, 327936, Note_on_c, 0, 61, 103
2, 327984, Note_on_c, 0, 63, 104
2, 328028, Note_off_c, 0, 61, 100
2, 328032, Note_on_c, 0, 61, 104
2, 328076, Note_off_c, 0, 63, 100
2, 328080, Note_on_c, 0, 63, 104
2, 328124, Note_off_c, 0, 61, 100
2, 328128, Note_on_c, 0, 61, 104
2, 328172, Note_off_c, 0, 63, 100
2, 328176, Note_on_c, 0, 63, 105
2, 328220, Note_off_c, 0, 61, 100
2, 328224, Note_on_c, 0, 60, 105
2, 328268, Note_off_c, 0, 63, 100
2, 328272, Note_on_c, 0, 61, 105
2, 328316, Note_off_c, 0, 60, 100
2, 328316, Note_off_c, 0, 61, 100
2, 328320, Note_on_c, 0, 60, 105
2, 328700, Note_off_c, 0, 60, 100
2, 328704, Note_on_c, 0, 58, 107
2, 328752, Note_on_c, 0, 60, 108
2, 328796, Note_off_c, 0, 58, 100
2, 328800, Note_on_c, 0, 58, 108
2, 328844, Note_off_c, 0, 60, 100
2, 328848, Note_on_c, 0, 60, 108
2, 328892, Note_off_c, 0, 58, 100
2, 328896, Note_on_c, 0, 58, 108
2, 328940, Note_off_c, 0, 60, 100
2, 328944, Note_on_c, 0, 60, 109
2, 328988, Note_off_c, 0, 58, 100
2, 328992, Note_on_c, 0, 57, 109
2, 329036, Note_off_c, 0, 60, 100
2, 329040, Note_on_c, 0, 58, 109
2, 329084, Note_off_c, 0, 57, 100
2, 329084, Note_off_c, 0, 58, 100
2, 329088, Note_on_c, 0, 56, 109
2, 329468, Note_off_c, 0, 56, 100
2, 329472, Note_on_c, 0, 56, 110
2, 329520, Note_on_c, 0, 58, 110
2, 329564, Note_off_c, 0, 56, 100
2, 329568, Note_on_c, 0, 56, 110
2, 329612, Note_off_c, 0, 58, 100
2, 329616, Note_on_c, 0, 58, 110
2, 329660, Note_off_c, 0, 56, 100
2, 329664, Note_on_c, 0, 56, 110
2, 329708, Note_off_c, 0, 58, 100
2, 329712, Note_on_c, 0, 58, 110
2, 329756, Note_off_c, 0, 56, 100
2, 329760, Note_on_c, 0, 55, 110
2, 329804, Note_off_c, 0, 58, 100
2, 329808, Note_on_c, 0, 56, 110
2, 329852, Note_off_c, 0, 55, 100
2, 329852, Note_off_c, 0, 56, 100
2, 329856, Note_on_c, 0, 55, 110
2, 330236, Note_off_c, 0, 55, 100
2, 330240, Note_on_c, 0, 68, 85
2, 330288, Note_on_c, 0, 70, 85
2, 330332, Note_off_c, 0, 68, 100
2, 330336, Note_on_c, 0, 68, 85
2, 330380, Note_off_c, 0, 70, 100
2, 330384, Note_on_c, 0, 70, 85
2, 330428, Note_off_c, 0, 68, 100
2, 330432, Note_on_c, 0, 68, 85
2, 330476, Note_off_c, 0, 70, 100
2, 330480, Note_on_c, 0, 70, 85
2, 330524, Note_off_c, 0, 68, 100
2, 330528, Note_on_c, 0, 67, 85
2, 330572, Note_off_c, 0, 70, 100
2, 330576, Note_on_c, 0, 68, 85
2, 330620, Note_off_c, 0, 67, 100
2, 330620, Note_off_c, 0, 68, 100
2, 330624, Note_on_c, 0, 67, 85
2, 331004, Note_off_c, 0, 67, 100
2, 331008, Note_on_c, 0, 56, 110
2, 331056, Note_on_c, 0, 58, 110
2, 331100, Note_off_c, 0, 56, 100
2, 331104, Note_on_c, 0, 56, 110
2, 331148, Note_off_c, 0, 58, 100
2, 331152, Note_on_c, 0, 58, 110
2, 331196, Note_off_c, 0, 56, 100
2, 331200, Note_on_c, 0, 56, 110
2, 331244, Note_off_c, 0, 58, 100
2, 331248, Note_on_c, 0, 58, 110
2, 331292, Note_off_c, 0, 56, 100
2, 331296, Note_on_c, 0, 55, 110
2, 331340, Note_off_c, 0, 58, 100
2, 331344, Note_on_c, 0, 56, 110
2, 331388, Note_off_c, 0, 55, 100
2, 331388, Note_off_c, 0, 56, 100
2, 331392, Note_on_c, 0, 55, 110
2, 331772, Note_off_c, 0, 55, 100
2, 331776, Note_on_c, 0, 68, 85
2, 331824, Note_on_c, 0, 70, 85
2, 331868, Note_off_c, 0, 68, 100
2, 331872, Note_on_c, 0, 68, 85
2, 331916, Note_off_c, 0, 70, 100
2, 331920, Note_on_c, 0, 70, 85
2, 331964, Note_off_c, 0, 68, 100
2, 331968, Note_on_c, 0, 68, 85
2, 332012, Note_off_c, 0, 70, 100
2, 332016, Note_on_c, 0, 70, 85
2, 332060, Note_off_c, 0, 68, 100
2, 332064, Note_on_c, 0, 67, 85
2, 332108, Note_off_c, 0, 70, 100
2, 332112, Note_on_c, 0, 68, 85
2, 332156, Note_off_c, 0, 67, 100
2, 332156, Note_off_c, 0, 68, 100
2, 332160, Note_on_c, 0, 67, 85
2, 332540, Note_off_c, 0, 67, 100
2, 332544, Note_on_c, 0, 56, 110
2, 332592, Note_on_c, 0, 58, 110
2, 332636, Note_off_c, 0, 56, 100
2, 332640, Note_on_c, 0, 56, 110
2, 332684, Note_off_c, 0, 58, 100
2, 332688, Note_on_c, 0, 58, 110
2, 332732, Note_off_c, 0, 56, 100
2, 332736, Note_on_c, 0, 56, 110
2, 332780, Note_off_c, 0, 58, 100
2, 332784, Note_on_c, 0, 58, 110
2, 332828, Note_off_c, 0, 56, 100
2, 332832, Note_on_c, 0, 55, 110
2, 332876, Note_off_c, 0, 58, 100
2, 332880, Note_on_c, 0, 56, 110
2, 332924, Note_off_c, 0, 55, 100
2, 332924, Note_off_c, 0, 56, 100
2, 332928, Control_c, 0, 64, 127
2, 332928, Note_on_c, 0, 55, 80
2, 333020, Note_off_c, 0, 55, 100
2, 333024, Note_on_c, 0, 51, 80
2, 333116, Note_off_c, 0, 51, 100
2, 333120, Note_on_c, 0, 46, 80
2, 333212, Note_off_c, 0, 46, 100
2, 333216, Note_on_c, 0, 51, 80
2, 333304, Control_c, 0, 64, 0
2, 333308, Note_off_c, 0, 51, 100
2, 333312, Control_c, 0, 64, 127
2, 333312, Note_on_c, 0, 55, 80
2, 333404, Note_off_c, 0, 55, 100
2, 333408, Note_on_c, 0, 51, 80
2, 333500, Note_off_c, 0, 51, 100
2, 333504, Note_on_c, 0, 58, 80
2, 333596, Note_off_c, 0, 58, 100
2, 333600, Note_on_c, 0, 55, 80
2, 333688, Control_c, 0, 64, 0
2, 333692, Note_off_c, 0, 55, 100
2, 333696, Control_c, 0, 64, 127
2, 333696, Note_on_c, 0, 63, 80
2, 333788, Note_off_c, 0, 63, 100
2, 333792, Note_on_c, 0, 58, 80
2, 333884, Note_off_c, 0, 58, 100
2, 333888, Note_on_c, 0, 67, 80
2, 333980, Note_off_c, 0, 67, 100
2, 333984, Note_on_c, 0, 63, 80
2, 334072, Control_c, 0, 64, 0
2, 334076, Note_off_c, 0, 63, 100
2, 334080, Control_c, 0, 64, 127
2, 334080, Note_on_c, 0, 58, 80
2, 334172, Note_off_c, 0, 58, 100
2, 334176, Note_on_c, 0, 55, 80
2, 334268, Note_off_c, 0, 55, 100
2, 334272, Note_on_c, 0, 63, 80
2, 334364, Note_off_c, 0, 63, 100
2, 334368, Note_on_c, 0, 58, 80
2, 334456, Control_c, 0, 64, 0
2, 334460, Note_off_c, 0, 58, 100
2, 334464, Control_c, 0, 64, 127
2, 334464, Note_on_c, 0, 67, 80
2, 334556, Note_off_c, 0, 67, 100
2, 334560, Note_on_c, 0, 63, 80
2, 334652, Note_off_c, 0, 63, 100
2, 334656, Note_on_c, 0, 70, 80
2, 334748, Note_off_c, 0, 70, 100
2, 334752, Note_on_c, 0, 67, 80
2, 334840, Control_c, 0, 64, 0
2, 334844, Note_off_c, 0, 67, 100
2, 334848, Control_c, 0, 64, 127
2, 334848, Note_on_c, 0, 63, 80
2, 334940, Note_off_c, 0, 63, 100
2, 334944, Note_on_c, 0, 58, 80
2, 335036, Note_off_c, 0, 58, 100
2, 335040, Note_on_c, 0, 67, 80
2, 335132, Note_off_c, 0, 67, 100
2, 335136, Note_on_c, 0, 63, 80
2, 335224, Control_c, 0, 64, 0
2, 335228, Note_off_c, 0, 63, 100
2, 335232, Control_c, 0, 64, 127
2, 335232, Note_on_c, 0, 70, 80
2, 335324, Note_off_c, 0, 70, 100
2, 335328, Note_on_c, 0, 67, 80
2, 335420, Note_off_c, 0, 67, 100
2, 335424, Note_on_c, 0, 75, 80
2, 335516, Note_off_c, 0, 75, 100
2, 335520, Note_on_c, 0, 70, 80
2, 335608, Control_c, 0, 64, 0
2, 335612, Note_off_c, 0, 70, 100
2, 335616, Control_c, 0, 64, 127
2, 335616, Note_on_c, 0, 67, 80
2, 335708, Note_off_c, 0, 67, 100
2, 335712, Note_on_c, 0, 63, 80
2, 335804, Note_off_c, 0, 63, 100
2, 335808, Note_on_c, 0, 70, 80
2, 335900, Note_off_c, 0, 70, 100
2, 335904, Note_on_c, 0, 67, 80
2, 335992, Control_c, 0, 64, 0
2, 335996, Note_off_c, 0, 67, 100
2, 336000, Control_c, 0, 64, 127
2, 336000, Note_on_c, 0, 75, 80
2, 336092, Note_off_c, 0, 75, 100
2, 336096, Note_on_c, 0, 70, 80
2, 336188, Note_off_c, 0, 70, 100
2, 336192, Note_on_c, 0, 79, 80
2, 336284, Note_off_c, 0, 79, 100
2, 336288, Note_on_c, 0, 75, 80
2, 336376, Control_c, 0, 64, 0
2, 336380, Note_off_c, 0, 75, 100
2, 336384, Note_on_c, 0, 82, 80
2, 336572, Note_off_c, 0, 82, 100
2, 336576, Note_on_c, 0, 70, 80
2, 336764, Note_off_c, 0, 70, 100
2, 336768, Note_on_c, 0, 75, 80
2, 336956, Note_off_c, 0, 75, 100
2, 336960, Note_on_c, 0, 79, 80
2, 337148, Note_off_c, 0, 79, 100
2, 337152, Note_on_c, 0, 82, 80
2, 337340, Note_off_c, 0, 82, 100
2, 337344, Note_on_c, 0, 58, 80
2, 337532, Note_off_c, 0, 58, 100
2, 337536, Note_on_c, 0, 63, 80
2, 337724, Note_off_c, 0, 63, 100
2, 337728, Note_on_c, 0, 67, 80
2, 337916, Note_off_c, 0, 67, 100
2, 337920, Note_on_c, 0, 70, 80
2, 338108, Note_off_c, 0, 70, 100
2, 338112, Note_on_c, 0, 46, 80
2, 338300, Note_off_c, 0, 46, 100
2, 338304, Note_on_c, 0, 51, 90
2, 338492, Note_off_c, 0, 51, 100
2, 338496, Note_on_c, 0, 55, 100
2, 338684, Note_off_c, 0, 55, 100
2, 338688, Note_on_c, 0, 58, 110
2, 338876, Note_off_c, 0, 58, 100
2, 338880, Note_on_c, 0, 63, 110
2, 339068, Note_off_c, 0, 63, 100
2, 339072, Note_on_c, 0, 67, 110
2, 339260, Note_off_c, 0, 67, 100
2, 339264, Note_on_c, 0, 70, 110
2, 339452, Note_off_c, 0, 70, 100
2, 339456, Note_on_c, 0, 75, 110
2, 339644, Note_off_c, 0, 75, 100
2, 339648, Note_on_c, 0, 79, 110
2, 339836, Note_off_c, 0, 79, 100
2, 339840, Note_on_c, 0, 82, 110
2, 340028, Note_off_c, 0, 82, 100
2, 340032, Note_on_c, 0, 81, 80
2, 340220, Note_off_c, 0, 81, 100
2, 340224, Note_on_c, 0, 84, 80
2, 340412, Note_off_c, 0, 84, 100
2, 340416, Note_on_c, 0, 82, 80
2, 340604, Note_off_c, 0, 82, 100
2, 340608, Note_on_c, 0, 80, 80
2, 340796, Note_off_c, 0, 80, 100
2, 340800, Note_on_c, 0, 79, 80
2, 340988, Note_off_c, 0, 79, 100
2, 340992, Note_on_c, 0, 77, 80
2, 341040, Note_on_c, 0, 79, 80
2, 341084, Note_off_c, 0, 77, 100
2, 341088, Note_on_c, 0, 77, 80
2, 341132, Note_off_c, 0, 79, 100
2, 341136, Note_on_c, 0, 79, 81
2, 341180, Note_off_c, 0, 77, 100
2, 341184, Note_on_c, 0, 77, 81
2, 341228, Note_off_c, 0, 79, 100
2, 341232, Note_on_c, 0, 79, 82
2, 341276, Note_off_c, 0, 77, 100
2, 341280, Note_on_c, 0, 77, 82
2, 341324, Note_off_c, 0, 79, 100
2, 341328, Note_on_c, 0, 79, 83
2, 341372, Note_off_c, 0, 77, 100
2, 341376, Note_on_c, 0, 77, 83
2, 341420, Note_off_c, 0, 79, 100
2, 341424, Note_on_c, 0, 79, 83
2, 341468, Note_off_c, 0, 77, 100
2, 341472, Note_on_c, 0, 77, 84
2, 341516, Note_off_c, 0, 79, 100
2, 341520, Note_on_c, 0, 79, 84
2, 341564, Note_off_c, 0, 77, 100
2, 341568, Note_on_c, 0, 77, 85
2, 341612, Note_off_c, 0, 79, 100
2, 341616, Note_on_c, 0, 79, 85
2, 341660, Note_off_c, 0, 77, 100
2, 341664, Note_on_c, 0, 77, 86
2, 341708, Note_off_c, 0, 79, 100
2, 341712, Note_on_c, 0, 79, 86
2, 341756, Note_off_c, 0, 77, 100
2, 341760, Note_on_c, 0, 77, 87
2, 341804, Note_off_c, 0, 79, 100
2, 341808, Note_on_c, 0, 79, 87
2, 341852, Note_off_c, 0, 77, 100
2, 341856, Note_on_c, 0, 77, 87
2, 341900, Note_off_c, 0, 79, 100
2, 341904, Note_on_c, 0, 79, 88
2, 341948, Note_off_c, 0, 77, 100
2, 341952, Note_on_c, 0, 77, 88
2, 341996, Note_off_c, 0, 79, 100
2, 342000, Note_on_c, 0, 79, 89
2, 342044, Note_off_c, 0, 77, 100
2, 342048, Note_on_c, 0, 77, 89
2, 342092, Note_off_c, 0, 79, 100
2, 342096, Note_on_c, 0, 79, 90
2, 342140, Note_off_c, 0, 77, 100
2, 342144, Note_on_c, 0, 77, 90
2, 342188, Note_off_c, 0, 79, 100
2, 342192, Note_on_c, 0, 79, 91
2, 342236, Note_off_c, 0, 77, 100
2, 342240, Note_on_c, 0, 77, 91
2, 342284, Note_off_c, 0, 79, 100
2, 342288, Note_on_c, 0, 79, 91
2, 342332, Note_off_c, 0, 77, 100
2, 342336, Note_on_c, 0, 77, 92
2, 342380, Note_off_c, 0, 79, 100
2, 342384, Note_on_c, 0, 79, 92
2, 342428, Note_off_c, 0, 77, 100
2, 342432, Note_on_c, 0, 77, 93
2, 342476, Note_off_c, 0, 79, 100
2, 342480, Note_on_c, 0, 79, 93
2, 342524, Note_off_c, 0, 77, 100
2, 342528, Note_on_c, 0, 77, 94
2, 342572, Note_off_c, 0, 79, 100
2, 342576, Note_on_c, 0, 79, 94
2, 342620, Note_off_c, 0, 77, 100
2, 342624, Note_on_c, 0, 77, 95
2, 342668, Note_off_c, 0, 79, 100
2, 342672, Note_on_c, 0, 79, 95
2, 342716, Note_off_c, 0, 77, 100
2, 342720, Note_on_c, 0, 77, 95
2, 342764, Note_off_c, 0, 79, 100
2, 342768, Note_on_c, 0, 79, 96
2, 342812, Note_off_c, 0, 77, 100
2, 342816, Note_on_c, 0, 77, 96
2, 342860, Note_off_c, 0, 79, 100
2, 342864, Note_on_c, 0, 79, 97
2, 342908, Note_off_c, 0, 77, 100
2, 342912, Note_on_c, 0, 77, 97
2, 342956, Note_off_c, 0, 79, 100
2, 342960, Note_on_c, 0, 79, 98
2, 343004, Note_off_c, 0, 77, 100
2, 343008, Note_on_c, 0, 77, 98
2, 343052, Note_off_c, 0, 79, 100
2, 343056, Note_on_c, 0, 79, 99
2, 343100, Note_off_c, 0, 77, 100
2, 343104, Note_on_c, 0, 77, 99
2, 343148, Note_off_c, 0, 79, 100
2, 343152, Note_on_c, 0, 79, 99
2, 343196, Note_off_c, 0, 77, 100
2, 343200, Note_on_c, 0, 77, 100
2, 343244, Note_off_c, 0, 79, 100
2, 343248, Note_on_c, 0, 79, 100
2, 343292, Note_off_c, 0, 77, 100
2, 343296, Note_on_c, 0, 77, 101
2, 343340, Note_off_c, 0, 79, 100
2, 343344, Note_on_c, 0, 79, 101
2, 343388, Note_off_c, 0, 77, 100
2, 343392, Note_on_c, 0, 77, 102
2, 343436, Note_off_c, 0, 79, 100
2, 343440, Note_on_c, 0, 79, 102
2, 343484, Note_off_c, 0, 77, 100
2, 343488, Note_on_c, 0, 77, 103
2, 343532, Note_off_c, 0, 79, 100
2, 343536, Note_on_c, 0, 79, 103
2, 343580, Note_off_c, 0, 77, 100
2, 343584, Note_on_c, 0, 77, 103
2, 343628, Note_off_c, 0, 79, 100
2, 343632, Note_on_c, 0, 79, 104
2, 343676, Note_off_c, 0, 77, 100
2, 343680, Note_on_c, 0, 77, 104
2, 343724, Note_off_c, 0, 79, 100
2, 343728, Note_on_c, 0, 79, 105
2, 343772, Note_off_c, 0, 77, 100
2, 343776, Note_on_c, 0, 77, 105
2, 343820, Note_off_c, 0, 79, 100
2, 343824, Note_on_c, 0, 79, 106
2, 343868, Note_off_c, 0, 77, 100
2, 343872, Note_on_c, 0, 77, 106
2, 343916, Note_off_c, 0, 79, 100
2, 343920, Note_on_c, 0, 79, 106
2, 343964, Note_off_c, 0, 77, 100
2, 343968, Note_on_c, 0, 77, 107
2, 344012, Note_off_c, 0, 79, 100
2, 344016, Note_on_c, 0, 79, 107
2, 344060, Note_off_c, 0, 77, 100
2, 344064, Note_on_c, 0, 77, 108
2, 344108, Note_off_c, 0, 79, 100
2, 344112, Note_on_c, 0, 79, 108
2, 344156, Note_off_c, 0, 77, 100
2, 344160, Note_on_c, 0, 77, 109
2, 344204, Note_off_c, 0, 79, 100
2, 344208, Note_on_c, 0, 79, 109
2, 344252, Note_off_c, 0, 77, 100
2, 344256, Note_on_c, 0, 77, 110
2, 344300, Note_off_c, 0, 79, 100
2, 344304, Note_on_c, 0, 79, 110
2, 344348, Note_off_c, 0, 77, 100
2, 344352, Note_on_c, 0, 77, 110
2, 344396, Note_off_c, 0, 79, 100
2, 344400, Note_on_c, 0, 79, 110
2, 344444, Note_off_c, 0, 77, 100
2, 344448, Note_on_c, 0, 77, 110
2, 344492, Note_off_c, 0, 79, 100
2, 344496, Note_on_c, 0, 79, 110
2, 344540, Note_off_c, 0, 77, 100
2, 344544, Note_on_c, 0, 77, 110
2, 344588, Note_off_c, 0, 79, 100
2, 344592, Note_on_c, 0, 79, 110
2, 344636, Note_off_c, 0, 77, 100
2, 344640, Note_on_c, 0, 77, 110
2, 344684, Note_off_c, 0, 79, 100
2, 344688, Note_on_c, 0, 79, 110
2, 344732, Note_off_c, 0, 77, 100
2, 344736, Note_on_c, 0, 77, 110
2, 344780, Note_off_c, 0, 79, 100
2, 344784, Note_on_c, 0, 79, 110
2, 344828, Note_off_c, 0, 77, 100
2, 344832, Note_on_c, 0, 77, 110
2, 344876, Note_off_c, 0, 79, 100
2, 344880, Note_on_c, 0, 79, 110
2, 344924, Note_off_c, 0, 77, 100
2, 344928, Note_on_c, 0, 77, 110
2, 344972, Note_off_c, 0, 79, 100
2, 344976, Note_on_c, 0, 79, 110
2, 345020, Note_off_c, 0, 77, 100
2, 345024, Note_on_c, 0, 77, 110
2, 345068, Note_off_c, 0, 79, 100
2, 345072, Note_on_c, 0, 79, 110
2, 345116, Note_off_c, 0, 77, 100
2, 345120, Note_on_c, 0, 75, 110
2, 345164, Note_off_c, 0, 79, 100
2, 345168, Note_on_c, 0, 77, 110
2, 345212, Note_off_c, 0, 75, 100
2, 345212, Note_off_c, 0, 77, 100
2, 345216, Note_on_c, 0, 82, 110
2, 345404, Note_off_c, 0, 82, 100
2, 345408, Note_on_c, 0, 82, 110
2, 345596, Note_off_c, 0, 82, 100
2, 345600, Note_on_c, 0, 75, 110
2, 345788, Note_off_c, 0, 75, 100
2, 345792, Note_on_c, 0, 75, 80
2, 345980, Note_off_c, 0, 75, 100
2, 345984, Note_on_c, 0, 76, 80
2, 346172, Note_off_c, 0, 76, 100
2, 346176, Note_on_c, 0, 77, 80
2, 346364, Note_off_c, 0, 77, 100
2, 346368, Note_on_c, 0, 78, 80
2, 346556, Note_off_c, 0, 78, 100
2, 346560, Note_on_c, 0, 79, 80
2, 346748, Note_off_c, 0, 79, 100
2, 346752, Note_on_c, 0, 80, 80
2, 347900, Note_off_c, 0, 80, 100
2, 347904, Note_on_c, 0, 72, 80
2, 347904, Note_on_c, 0, 68, 80
2, 349052, Note_off_c, 0, 72, 100
2, 349052, Note_off_c, 0, 68, 100
2, 349056, Note_on_c, 0, 68, 80
2, 349056, Note_on_c, 0, 75, 80
2, 349244, Note_off_c, 0, 75, 100
2, 349248, Note_on_c, 0, 74, 80
2, 349436, Note_off_c, 0, 68, 100
2, 349436, Note_off_c, 0, 74, 100
2, 349440, Note_on_c, 0, 68, 80
2, 349440, Note_on_c, 0, 75, 80
2, 349484, Note_off_c, 0, 75, 100
2, 349488, Note_on_c, 0, 74, 80
2, 349628, Note_off_c, 0, 74, 100
2, 349632, Note_on_c, 0, 72, 80
2, 349820, Note_off_c, 0, 68, 100
2, 349820, Note_off_c, 0, 72, 100
2, 349824, Note_on_c, 0, 68, 80
2, 349824, Note_on_c, 0, 74, 80
2, 350012, Note_off_c, 0, 74, 100
2, 350016, Note_on_c, 0, 77, 80
2, 350204, Note_off_c, 0, 68, 100
2, 350204, Note_off_c, 0, 77, 100
2, 350208, Note_on_c, 0, 75, 80
2, 350208, Note_on_c, 0, 67, 80
2, 350396, Note_off_c, 0, 75, 100
2, 350396, Note_off_c, 0, 67, 100
2, 350400, Note_on_c, 0, 63, 80
2, 350588, Note_off_c, 0, 63, 100
2, 350592, Note_on_c, 0, 64, 80
2, 350780, Note_off_c, 0, 64, 100
2, 350784, Note_on_c, 0, 65, 80
2, 350972, Note_off_c, 0, 65, 100
2, 350976, Note_on_c, 0, 66, 80
2, 351164, Note_off_c, 0, 66, 100
2, 351168, Note_on_c, 0, 67, 80
2, 351356, Note_off_c, 0, 67, 100
2, 351360, Note_on_c, 0, 68, 80
2, 352508, Note_off_c, 0, 68, 100
2, 352512, Note_on_c, 0, 56, 80
2, 352512, Note_on_c, 0, 60, 80
2, 353276, Note_off_c, 0, 60, 100
2, 353280, Note_on_c, 0, 61, 80
2, 353468, Note_off_c, 0, 61, 100
2, 353472, Note_on_c, 0, 63, 80
2, 353660, Note_off_c, 0, 56, 100
2, 353660, Note_off_c, 0, 63, 100
2, 353664, Note_on_c, 0, 56, 80
2, 353664, Note_on_c, 0, 53, 80
2, 353664, Note_on_c, 0, 65, 80
2, 353948, Note_off_c, 0, 65, 100
2, 353952, Note_on_c, 0, 58, 80
2, 354044, Note_off_c, 0, 58, 100
2, 354048, Note_on_c, 0, 58, 80
2, 354428, Note_off_c, 0, 56, 100
2, 354428, Note_off_c, 0, 53, 100
2, 354620, Note_off_c, 0, 58, 100
2, 354816, Note_on_c, 0, 56, 80
2, 354816, Note_on_c, 0, 53, 80
2, 354816, Note_on_c, 0, 65, 80
2, 355100, Note_off_c, 0, 65, 100
2, 355104, Note_on_c, 0, 58, 80
2, 355196, Note_off_c, 0, 58, 100
2, 355200, Note_on_c, 0, 58, 80
2, 355580, Note_off_c, 0, 56, 100
2, 355580, Note_off_c, 0, 53, 100
2, 355772, Note_off_c, 0, 58, 100
2, 355968, Note_on_c, 0, 58, 80
2, 355968, Note_on_c, 0, 56, 80
2, 355968, Note_on_c, 0, 53, 80
2, 356348, Note_off_c, 0, 58, 100
2, 356348, Note_off_c, 0, 56, 100
2, 356348, Note_off_c, 0, 53, 100
2, 356352, Note_on_c, 0, 58, 80
2, 356352, Note_on_c, 0, 56, 80
2, 356352, Note_on_c, 0, 53, 80
2, 356732, Note_off_c, 0, 58, 100
2, 356732, Note_off_c, 0, 56, 100
2, 356732, Note_off_c, 0, 53, 100
2, 356736, Note_on_c, 0, 58, 80
2, 356736, Note_on_c, 0, 56, 80
2, 356736, Note_on_c, 0, 53, 80
2, 357116, Note_off_c, 0, 58, 100
2, 357116, Note_off_c, 0, 56, 100
2, 357116, Note_off_c, 0, 53, 100
2, 357120, Note_on_c, 0, 59, 80
2, 357120, Note_on_c, 0, 56, 80
2, 357120, Note_on_c, 0, 53, 80
2, 358268, Note_off_c, 0, 59, 100
2, 358268, Note_off_c, 0, 56, 100
2, 358268, Note_off_c, 0, 53, 100
2, 358272, Note_on_c, 0, 71, 80
2, 358272, Note_on_c, 0, 68, 80
2, 358272, Note_on_c, 0, 65, 80
2, 358652, Note_off_c, 0, 71, 100
2, 358652, Note_off_c, 0, 68, 100
2, 358652, Note_off_c, 0, 65, 100
2, 358656, Note_on_c, 0, 71, 80
2, 358656, Note_on_c, 0, 68, 80
2, 358656, Note_on_c, 0, 65, 80
2, 359036, Note_off_c, 0, 71, 100
2, 359036, Note_off_c, 0, 68, 100
2, 359036, Note_off_c, 0, 65, 100
2, 359040, Note_on_c, 0, 71, 80
2, 359040, Note_on_c, 0, 68, 80
2, 359040, Note_on_c, 0, 65, 80
2, 359420, Note_off_c, 0, 71, 100
2, 359420, Note_off_c, 0, 68, 100
2, 359420, Note_off_c, 0, 65, 100
2, 359424, Note_on_c, 0, 72, 80
2, 359424, Note_on_c, 0, 68, 80
2, 359424, Note_on_c, 0, 66, 80
2, 360188, Note_off_c, 0, 72, 100
2, 360188, Note_off_c, 0, 68, 100
2, 360188, Note_off_c, 0, 66, 100
2, 360192, Note_on_c, 0, 60, 80
2, 360192, Note_on_c, 0, 56, 80
2, 360192, Note_on_c, 0, 54, 80
2, 360572, Note_off_c, 0, 60, 100
2, 360572, Note_off_c, 0, 56, 100
2, 360572, Note_off_c, 0, 54, 100
2, 360576, Note_on_c, 0, 61, 81
2, 360576, Note_on_c, 0, 56, 81
2, 360956, Note_off_c, 0, 61, 100
2, 360956, Note_off_c, 0, 56, 100
2, 361344, Note_on_c, 0, 73, 84
2, 361344, Note_on_c, 0, 68, 84
2, 361724, Note_off_c, 0, 73, 100
2, 361724, Note_off_c, 0, 68, 100
2, 361728, Note_on_c, 0, 74, 85
2, 361728, Note_on_c, 0, 71, 85
2, 361728, Note_on_c, 0, 68, 85
2, 362108, Note_off_c, 0, 74, 100
2, 362108, Note_off_c, 0, 71, 100
2, 362108, Note_off_c, 0, 68, 100
2, 362496, Note_on_c, 0, 62, 88
2, 362496, Note_on_c, 0, 59, 88
2, 362496, Note_on_c, 0, 56, 88
2, 362876, Note_off_c, 0, 62, 100
2, 362876, Note_off_c, 0, 59, 100
2, 362876, Note_off_c, 0, 56, 100
2, 362880, Note_on_c, 0, 63, 89
2, 362880, Note_on_c, 0, 58, 89
2, 363260, Note_off_c, 0, 63, 100
2, 363260, Note_off_c, 0, 58, 100
2, 363648, Note_on_c, 0, 70, 92
2, 363648, Note_on_c, 0, 75, 92
2, 364028, Note_off_c, 0, 70, 100
2, 364028, Note_off_c, 0, 75, 100
2, 364032, Note_on_c, 0, 73, 94
2, 364032, Note_on_c, 0, 70, 94
2, 364032, Note_on_c, 0, 76, 94
2, 364412, Note_off_c, 0, 73, 100
2, 364412, Note_off_c, 0, 70, 100
2, 364412, Note_off_c, 0, 76, 100
2, 364800, Note_on_c, 0, 64, 96
2, 364800, Note_on_c, 0, 61, 96
2, 364800, Note_on_c, 0, 58, 96
2, 365180, Note_off_c, 0, 64, 100
2, 365180, Note_off_c, 0, 61, 100
2, 365180, Note_off_c, 0, 58, 100
2, 365184, Note_on_c, 0, 65, 98
2, 365184, Note_on_c, 0, 60, 98
2, 365564, Note_off_c, 0, 65, 100
2, 365564, Note_off_c, 0, 60, 100
2, 365568, Note_on_c, 0, 65, 99
2, 365568, Note_on_c, 0, 60, 99
2, 365948, Note_off_c, 0, 65, 100
2, 365948, Note_off_c, 0, 60, 100
2, 365952, Note_on_c, 0, 65, 101
2, 365952, Note_on_c, 0, 60, 101
2, 366332, Note_off_c, 0, 65, 100
2, 366332, Note_off_c, 0, 60, 100
2, 366336, Note_on_c, 0, 66, 102
2, 366336, Note_on_c, 0, 63, 102
2, 366336, Note_on_c, 0, 60, 102
2, 367484, Note_off_c, 0, 66, 100
2, 367484, Note_off_c, 0, 63, 100
2, 367484, Note_off_c, 0, 60, 100
2, 367488, Note_on_c, 0, 78, 106
2, 367488, Note_on_c, 0, 75, 106
2, 367488, Note_on_c, 0, 72, 106
2, 367868, Note_off_c, 0, 78, 100
2, 367868, Note_off_c, 0, 75, 100
2, 367868, Note_off_c, 0, 72, 100
2, 367872, Note_on_c, 0, 78, 108
2, 367872, Note_on_c, 0, 75, 108
2, 367872, Note_on_c, 0, 72, 108
2, 368252, Note_off_c, 0, 78, 100
2, 368252, Note_off_c, 0, 75, 100
2, 368252, Note_off_c, 0, 72, 100
2, 368256, Note_on_c, 0, 78, 109
2, 368256, Note_on_c, 0, 75, 109
2, 368256, Note_on_c, 0, 72, 109
2, 368636, Note_off_c, 0, 78, 100
2, 368636, Note_off_c, 0, 75, 100
2, 368636, Note_off_c, 0, 72, 100
2, 368640, Note_on_c, 0, 79, 110
2, 368640, Note_on_c, 0, 75, 110
2, 369788, Note_off_c, 0, 79, 100
2, 369788, Note_off_c, 0, 75, 100
2, 369792, Note_on_c, 0, 62, 80
2, 369792, Note_on_c, 0, 56, 80
2, 369792, Note_on_c, 0, 67, 80
2, 369980, Note_off_c, 0, 67, 100
2, 369984, Note_on_c, 0, 65, 80
2, 370172, Note_off_c, 0, 62, 100
2, 370172, Note_off_c, 0, 56, 100
2, 370172, Note_off_c, 0, 65, 100
2, 370176, Note_on_c, 0, 62, 80
2, 370176, Note_on_c, 0, 56, 80
2, 370176, Note_on_c, 0, 65, 80
2, 370268, Note_off_c, 0, 65, 100
2, 370272, Note_on_c, 0, 67, 80
2, 370364, Note_off_c, 0, 67, 100
2, 370368, Note_on_c, 0, 65, 80
2, 370460, Note_off_c, 0, 65, 100
2, 370464, Note_on_c, 0, 64, 80
2, 370556, Note_off_c, 0, 62, 100
2, 370556, Note_off_c, 0, 56, 100
2, 370556, Note_off_c, 0, 64, 100
2, 370560, Note_on_c, 0, 62, 80
2, 370560, Note_on_c, 0, 56, 80
2, 370560, Note_on_c, 0, 65, 80
2, 370748, Note_off_c, 0, 65, 100
2, 370752, Note_on_c, 0, 67, 80
2, 370940, Note_off_c, 0, 62, 100
2, 370940, Note_off_c, 0, 56, 100
2, 370940, Note_off_c, 0, 67, 100
2, 370944, Note_on_c, 0, 55, 80
2, 370944, Note_on_c, 0, 63, 80
2, 371036, Note_off_c, 0, 55, 100
2, 371036, Note_off_c, 0, 63, 100
2, 371040, Note_on_c, 0, 65, 80
2, 371132, Note_off_c, 0, 65, 100
2, 371136, Note_on_c, 0, 63, 80
2, 371228, Note_off_c, 0, 63, 100
2, 371232, Note_on_c, 0, 62, 80
2, 371324, Note_off_c, 0, 62, 100
2, 371328, Note_on_c, 0, 63, 80
2, 371420, Note_off_c, 0, 63, 100
2, 371424, Note_on_c, 0, 64, 80
2, 371516, Note_off_c, 0, 64, 100
2, 371520, Note_on_c, 0, 65, 80
2, 371612, Note_off_c, 0, 65, 100
2, 371616, Note_on_c, 0, 66, 80
2, 371708, Note_off_c, 0, 66, 100
2, 371712, Note_on_c, 0, 67, 80
2, 371804, Note_off_c, 0, 67, 100
2, 371808, Note_on_c, 0, 68, 80
2, 371900, Note_off_c, 0, 68, 100
2, 371904, Note_on_c, 0, 69, 80
2, 371996, Note_off_c, 0, 69, 100
2, 372000, Note_on_c, 0, 70, 80
2, 372092, Note_off_c, 0, 70, 100
2, 372096, Note_on_c, 0, 71, 80
2, 372188, Note_off_c, 0, 71, 100
2, 372192, Note_on_c, 0, 72, 80
2, 372284, Note_off_c, 0, 72, 100
2, 372288, Note_on_c, 0, 73, 80
2, 372380, Note_off_c, 0, 73, 100
2, 372384, Note_on_c, 0, 74, 80
2, 372476, Note_off_c, 0, 74, 100
2, 372480, Note_on_c, 0, 75, 80
2, 372572, Note_off_c, 0, 75, 100
2, 372576, Note_on_c, 0, 76, 80
2, 372668, Note_off_c, 0, 76, 100
2, 372672, Note_on_c, 0, 77, 80
2, 372764, Note_off_c, 0, 77, 100
2, 372768, Note_on_c, 0, 78, 80
2, 372860, Note_off_c, 0, 78, 100
2, 372864, Note_on_c, 0, 79, 80
2, 372936, Note_off_c, 0, 79, 100
2, 372940, Note_on_c, 0, 80, 80
2, 373012, Note_off_c, 0, 80, 100
2, 373016, Note_on_c, 0, 81, 80
2, 373088, Note_off_c, 0, 81, 100
2, 373092, Note_on_c, 0, 82, 80
2, 373164, Note_off_c, 0, 82, 100
2, 373168, Note_on_c, 0, 83, 80
2, 373236, Note_off_c, 0, 83, 100
2, 373248, Note_on_c, 0, 84, 80
2, 373532, Note_off_c, 0, 84, 100
2, 373536, Note_on_c, 0, 77, 80
2, 373628, Note_off_c, 0, 77, 100
2, 373632, Note_on_c, 0, 77, 80
2, 374396, Note_off_c, 0, 77, 100
2, 374400, Note_on_c, 0, 71, 80
2, 374444, Note_off_c, 0, 71, 100
2, 374444, Note_on_c, 0, 72, 80
2, 374680, Note_off_c, 0, 72, 100
2, 374688, Note_on_c, 0, 65, 80
2, 374780, Note_off_c, 0, 65, 100
2, 374784, Note_on_c, 0, 65, 80
2, 375548, Note_off_c, 0, 65, 100
2, 375552, Note_on_c, 0, 53, 80
2, 375552, Note_on_c, 0, 51, 80
2, 375552, Note_on_c, 0, 48, 80
2, 375932, Note_off_c, 0, 53, 100
2, 375932, Note_off_c, 0, 51, 100
2, 375932, Note_off_c, 0, 48, 100
2, 375936, Note_on_c, 0, 53, 83
2, 375936, Note_on_c, 0, 51, 83
2, 375936, Note_on_c, 0, 48, 83
2, 376316, Note_off_c, 0, 53, 100
2, 376316, Note_off_c, 0, 51, 100
2, 376316, Note_off_c, 0, 48, 100
2, 376320, Note_on_c, 0, 53, 86
2, 376320, Note_on_c, 0, 51, 86
2, 376320, Note_on_c, 0, 48, 86
2, 376700, Note_off_c, 0, 53, 100
2, 376700, Note_off_c, 0, 51, 100
2, 376700, Note_off_c, 0, 48, 100
2, 376704, Note_on_c, 0, 54, 90
2, 376704, Note_on_c, 0, 51, 90
2, 376704, Note_on_c, 0, 48, 90
2, 377852, Note_off_c, 0, 54, 100
2, 377852, Note_off_c, 0, 51, 100
2, 377852, Note_off_c, 0, 48, 100
2, 377856, Note_on_c, 0, 78, 100
2, 377856, Note_on_c, 0, 75, 100
2, 378236, Note_off_c, 0, 78, 100
2, 378236, Note_off_c, 0, 75, 100
2, 378240, Note_on_c, 0, 78, 104
2, 378240, Note_on_c, 0, 75, 104
2, 378620, Note_off_c, 0, 78, 100
2, 378620, Note_off_c, 0, 75, 100
2, 378624, Note_on_c, 0, 78, 107
2, 378624, Note_on_c, 0, 75, 107
2, 379004, Note_off_c, 0, 78, 100
2, 379004, Note_off_c, 0, 75, 100
2, 379008, Note_on_c, 0, 79, 110
2, 379008, Note_on_c, 0, 75, 110
2, 379388, Note_off_c, 0, 79, 100
2, 379388, Note_off_c, 0, 75, 100
2, 379776, Note_on_c, 0, 78, 80
2, 379776, Note_on_c, 0, 75, 80
2, 380156, Note_off_c, 0, 78, 100
2, 380160, Note_on_c, 0, 79, 80
2, 380540, Note_off_c, 0, 75, 100
2, 380540, Note_off_c, 0, 79, 100
2, 380928, Note_on_c, 0, 78, 80
2, 380928, Note_on_c, 0, 75, 80
2, 381308, Note_off_c, 0, 78, 100
2, 381312, Note_on_c, 0, 79, 80
2, 381692, Note_off_c, 0, 75, 100
2, 381788, Note_off_c, 0, 79, 100
2, 381792, Note_on_c, 0, 80, 81
2, 381884, Note_off_c, 0, 80, 100
2, 381888, Note_on_c, 0, 82, 83
2, 381980, Note_off_c, 0, 82, 100
2, 381984, Note_on_c, 0, 79, 84
2, 382076, Note_off_c, 0, 79, 100
2, 382080, Note_on_c, 0, 76, 86
2, 382172, Note_off_c, 0, 76, 100
2, 382176, Note_on_c, 0, 77, 87
2, 382268, Note_off_c, 0, 77, 100
2, 382272, Note_on_c, 0, 79, 89
2, 382364, Note_off_c, 0, 79, 100
2, 382368, Note_on_c, 0, 75, 90
2, 382460, Note_off_c, 0, 75, 100
2, 382464, Note_on_c, 0, 73, 92
2, 382556, Note_off_c, 0, 73, 100
2, 382560, Note_on_c, 0, 74, 93
2, 382652, Note_off_c, 0, 74, 100
2, 382656, Note_on_c, 0, 75, 95
2, 382748, Note_off_c, 0, 75, 100
2, 382752, Note_on_c, 0, 72, 97
2, 382844, Note_off_c, 0, 72, 100
2, 382848, Note_on_c, 0, 69, 98
2, 382940, Note_off_c, 0, 69, 100
2, 382944, Note_on_c, 0, 70, 100
2, 383036, Note_off_c, 0, 70, 100
2, 383040, Note_on_c, 0, 72, 101
2, 383132, Note_off_c, 0, 72, 100
2, 383136, Note_on_c, 0, 68, 103
2, 383228, Note_off_c, 0, 68, 100
2, 383232, Note_on_c, 0, 66, 104
2, 383324, Note_off_c, 0, 66, 100
2, 383328, Note_on_c, 0, 67, 106
2, 383420, Note_off_c, 0, 67, 100
2, 383424, Note_on_c, 0, 68, 107
2, 383516, Note_off_c, 0, 68, 100
2, 383520, Note_on_c, 0, 65, 109
2, 383612, Note_off_c, 0, 65, 100
2, 383616, Note_on_c, 0, 63, 110
2, 383616, Note_on_c, 0, 55, 110
2, 383996, Note_off_c, 0, 63, 100
2, 383996, Note_off_c, 0, 55, 100
2, 384768, Note_on_c, 0, 70, 80
2, 384860, Note_off_c, 0, 70, 100
2, 384864, Note_on_c, 0, 72, 80
2, 384956, Note_off_c, 0, 72, 100
2, 384960, Note_on_c, 0, 70, 80
2, 385052, Note_off_c, 0, 70, 100
2, 385056, Note_on_c, 0, 69, 80
2, 385148, Note_off_c, 0, 69, 100
2, 385152, Note_on_c, 0, 70, 80
2, 385244, Note_off_c, 0, 70, 100
2, 385248, Note_on_c, 0, 72, 80
2, 385340, Note_off_c, 0, 72, 100
2, 385344, Note_on_c, 0, 74, 80
2, 385436, Note_off_c, 0, 74, 100
2, 385440, Note_on_c, 0, 75, 80
2, 385532, Note_off_c, 0, 75, 100
2, 385536, Note_on_c, 0, 77, 80
2, 385724, Note_off_c, 0, 77, 100
2, 385728, Note_on_c, 0, 68, 80
2, 385916, Note_off_c, 0, 68, 100
2, 385920, Note_on_c, 0, 67, 80
2, 386300, Note_off_c, 0, 67, 100
2, 387072, Note_on_c, 0, 82, 80
2, 387164, Note_off_c, 0, 82, 100
2, 387168, Note_on_c, 0, 84, 80
2, 387260, Note_off_c, 0, 84, 100
2, 387264, Note_on_c, 0, 82, 80
2, 387356, Note_off_c, 0, 82, 100
2, 387360, Note_on_c, 0, 81, 80
2, 387452, Note_off_c, 0, 81, 100
2, 387456, Note_on_c, 0, 82, 80
2, 387548, Note_off_c, 0, 82, 100
2, 387552, Note_on_c, 0, 84, 80
2, 387644, Note_off_c, 0, 84, 100
2, 387648, Note_on_c, 0, 86, 80
2, 387740, Note_off_c, 0, 86, 100
2, 387744, Note_on_c, 0, 87, 80
2, 387836, Note_off_c, 0, 87, 100
2, 387840, Note_on_c, 0, 89, 80
2, 387932, Note_off_c, 0, 89, 100
2, 387936, Note_on_c, 0, 86, 80
2, 388028, Note_off_c, 0, 86, 100
2, 388032, Note_on_c, 0, 82, 80
2, 388124, Note_off_c, 0, 82, 100
2, 388128, Note_on_c, 0, 80, 80
2, 388220, Note_off_c, 0, 80, 100
2, 388224, Note_on_c, 0, 79, 80
2, 388604, Note_off_c, 0, 79, 100
2, 388800, Note_on_c, 0, 63, 80
2, 388988, Note_off_c, 0, 63, 100
2, 388992, Note_on_c, 0, 58, 80
2, 389180, Note_off_c, 0, 58, 100
2, 389184, Note_on_c, 0, 67, 80
2, 389372, Note_off_c, 0, 67, 100
2, 389376, Note_on_c, 0, 63, 80
2, 389564, Note_off_c, 0, 63, 100
2, 389568, Note_on_c, 0, 70, 80
2, 389756, Note_off_c, 0, 70, 100
2, 389760, Note_on_c, 0, 67, 80
2, 389948, Note_off_c, 0, 67, 100
2, 389952, Note_on_c, 0, 75, 80
2, 390140, Note_off_c, 0, 75, 100
2, 390144, Note_on_c, 0, 70, 80
2, 390332, Note_off_c, 0, 70, 100
2, 390336, Note_on_c, 0, 79, 80
2, 390524, Note_off_c, 0, 79, 100
2, 390528, Note_on_c, 0, 75, 80
2, 390716, Note_off_c, 0, 75, 100
2, 390720, Note_on_c, 0, 82, 80
2, 390908, Note_off_c, 0, 82, 100
2, 390912, Note_on_c, 0, 79, 80
2, 391100, Note_off_c, 0, 79, 100
2, 391104, Note_on_c, 0, 87, 80
2, 391292, Note_off_c, 0, 87, 100
2, 391296, Note_on_c, 0, 74, 110
2, 391296, Note_on_c, 0, 68, 110
2, 391296, Note_on_c, 0, 65, 110
2, 391676, Note_off_c, 0, 74, 100
2, 391676, Note_off_c, 0, 68, 100
2, 391676, Note_off_c, 0, 65, 100
2, 391680, Note_on_c, 0, 75, 110
2, 391680, Note_on_c, 0, 67, 110
2, 391680, Note_on_c, 0, 63, 110
2, 392252, Note_off_c, 0, 75, 100
2, 392252, Note_off_c, 0, 67, 100
2, 392252, Note_off_c, 0, 63, 100
2, 392448, Control_c, 0, 7, 0
2, 392832, Note_on_c, 0, 63, 1
2, 393212, Note_off_c, 0, 63, 100
2, 393212, End_track
3, 0, Start_track
3, 0, Title_t, "Left"
3, 0, Control_c, 1, 0, 0
3, 0, Program_c, 1, 0
3, 0, Control_c, 1, 7, 100
3, 0, Control_c, 1, 10, 53
3, 0, Control_c, 1, 91, 127
3, 0, Key_signature, -3, "major"
3, 0, Note_on_c, 1, 56, 80
3, 0, Note_on_c, 1, 53, 80
3, 0, Note_on_c, 1, 51, 80
3, 0, Note_on_c, 1, 44, 80
3, 1148, Note_off_c, 1, 56, 100
3, 1148, Note_off_c, 1, 53, 100
3, 1148, Note_off_c, 1, 51, 100
3, 1148, Note_off_c, 1, 44, 100
3, 1152, Note_on_c, 1, 56, 80
3, 1152, Note_on_c, 1, 53, 80
3, 1152, Note_on_c, 1, 51, 80
3, 1152, Note_on_c, 1, 44, 80
3, 2300, Note_off_c, 1, 56, 100
3, 2300, Note_off_c, 1, 53, 100
3, 2300, Note_off_c, 1, 51, 100
3, 2300, Note_off_c, 1, 44, 100
3, 2304, Note_on_c, 1, 39, 80
3, 2304, Note_on_c, 1, 32, 80
3, 2684, Note_off_c, 1, 39, 100
3, 2684, Note_off_c, 1, 32, 100
3, 2688, Note_on_c, 1, 39, 83
3, 2688, Note_on_c, 1, 32, 83
3, 3068, Note_off_c, 1, 39, 100
3, 3068, Note_off_c, 1, 32, 100
3, 3072, Note_on_c, 1, 39, 86
3, 3072, Note_on_c, 1, 32, 86
3, 3452, Note_off_c, 1, 39, 100
3, 3452, Note_off_c, 1, 32, 100
3, 3456, Note_on_c, 1, 39, 89
3, 3456, Note_on_c, 1, 33, 89
3, 4604, Note_off_c, 1, 39, 100
3, 4604, Note_off_c, 1, 33, 100
3, 4608, Note_on_c, 1, 54, 99
3, 4608, Note_on_c, 1, 51, 99
3, 4608, Note_on_c, 1, 45, 99
3, 4988, Note_off_c, 1, 54, 100
3, 4988, Note_off_c, 1, 51, 100
3, 4988, Note_off_c, 1, 45, 100
3, 4992, Note_on_c, 1, 54, 103
3, 4992, Note_on_c, 1, 51, 103
3, 4992, Note_on_c, 1, 45, 103
3, 5372, Note_off_c, 1, 54, 100
3, 5372, Note_off_c, 1, 51, 100
3, 5372, Note_off_c, 1, 45, 100
3, 5376, Note_on_c, 1, 54, 106
3, 5376, Note_on_c, 1, 51, 106
3, 5376, Note_on_c, 1, 45, 106
3, 5756, Note_off_c, 1, 54, 100
3, 5756, Note_off_c, 1, 51, 100
3, 5756, Note_off_c, 1, 45, 100
3, 5760, Note_on_c, 1, 55, 109
3, 5760, Note_on_c, 1, 51, 109
3, 5760, Note_on_c, 1, 46, 109
3, 6908, Note_off_c, 1, 55, 100
3, 6908, Note_off_c, 1, 51, 100
3, 6908, Note_off_c, 1, 46, 100
3, 6912, Note_on_c, 1, 46, 80
3, 6912, Note_on_c, 1, 34, 80
3, 7292, Note_off_c, 1, 46, 100
3, 7292, Note_off_c, 1, 34, 100
3, 7296, Note_on_c, 1, 46, 80
3, 7296, Note_on_c, 1, 34, 80
3, 7676, Note_off_c, 1, 46, 100
3, 7676, Note_off_c, 1, 34, 100
3, 7680, Note_on_c, 1, 46, 80
3, 7680, Note_on_c, 1, 34, 80
3, 8060, Note_off_c, 1, 46, 100
3, 8060, Note_off_c, 1, 34, 100
3, 8064, Note_on_c, 1, 51, 80
3, 8064, Note_on_c, 1, 39, 80
3, 8444, Note_off_c, 1, 51, 100
3, 8444, Note_off_c, 1, 39, 100
3, 10368, Note_on_c, 1, 75, 80
3, 10368, Note_on_c, 1, 72, 80
3, 10368, Note_on_c, 1, 68, 80
3, 11516, Note_off_c, 1, 75, 100
3, 11516, Note_off_c, 1, 72, 100
3, 11516, Note_off_c, 1, 68, 100
3, 11520, Note_on_c, 1, 63, 80
3, 11520, Note_on_c, 1, 60, 80
3, 11520, Note_on_c, 1, 56, 80
3, 12668, Note_off_c, 1, 63, 100
3, 12668, Note_off_c, 1, 60, 100
3, 12668, Note_off_c, 1, 56, 100
3, 12672, Note_on_c, 1, 44, 80
3, 12672, Note_on_c, 1, 32, 80
3, 13052, Note_off_c, 1, 44, 100
3, 13052, Note_off_c, 1, 32, 100
3, 13056, Note_on_c, 1, 44, 83
3, 13056, Note_on_c, 1, 32, 83
3, 13436, Note_off_c, 1, 44, 100
3, 13436, Note_off_c, 1, 32, 100
3, 13440, Note_on_c, 1, 44, 86
3, 13440, Note_on_c, 1, 32, 86
3, 13820, Note_off_c, 1, 44, 100
3, 13820, Note_off_c, 1, 32, 100
3, 13824, Note_on_c, 1, 45, 90
3, 13824, Note_on_c, 1, 33, 90
3, 14972, Note_off_c, 1, 45, 100
3, 14972, Note_off_c, 1, 33, 100
3, 14976, Note_on_c, 1, 69, 100
3, 15356, Note_off_c, 1, 69, 100
3, 15360, Note_on_c, 1, 69, 104
3, 15740, Note_off_c, 1, 69, 100
3, 15744, Note_on_c, 1, 69, 107
3, 16124, Note_off_c, 1, 69, 100
3, 16128, Note_on_c, 1, 70, 110
3, 17276, Note_off_c, 1, 70, 100
3, 17280, Note_on_c, 1, 46, 80
3, 17280, Note_on_c, 1, 34, 80
3, 17660, Note_off_c, 1, 46, 100
3, 17660, Note_off_c, 1, 34, 100
3, 17664, Note_on_c, 1, 46, 80
3, 17664, Note_on_c, 1, 34, 80
3, 18044, Note_off_c, 1, 46, 100
3, 18044, Note_off_c, 1, 34, 100
3, 18048, Note_on_c, 1, 46, 80
3, 18048, Note_on_c, 1, 34, 80
3, 18428, Note_off_c, 1, 46, 100
3, 18428, Note_off_c, 1, 34, 100
3, 18432, Note_on_c, 1, 51, 80
3, 18432, Note_on_c, 1, 39, 80
3, 18620, Note_off_c, 1, 51, 100
3, 18620, Note_off_c, 1, 39, 100
3, 18624, Note_on_c, 1, 51, 80
3, 18812, Note_off_c, 1, 51, 100
3, 18816, Note_on_c, 1, 51, 80
3, 19004, Note_off_c, 1, 51, 100
3, 19008, Note_on_c, 1, 51, 80
3, 19196, Note_off_c, 1, 51, 100
3, 19200, Note_on_c, 1, 51, 80
3, 19388, Note_off_c, 1, 51, 100
3, 19392, Note_on_c, 1, 51, 80
3, 19580, Note_off_c, 1, 51, 100
3, 19584, Note_on_c, 1, 51, 80
3, 19584, Note_on_c, 1, 60, 80
3, 19584, Note_on_c, 1, 63, 80
3, 19772, Note_off_c, 1, 51, 100
3, 19776, Note_on_c, 1, 51, 80
3, 19964, Note_off_c, 1, 51, 100
3, 19968, Note_on_c, 1, 51, 80
3, 20156, Note_off_c, 1, 51, 100
3, 20160, Note_on_c, 1, 51, 80
3, 20348, Note_off_c, 1, 51, 100
3, 20352, Note_on_c, 1, 51, 80
3, 20540, Note_off_c, 1, 51, 100
3, 20544, Note_on_c, 1, 51, 80
3, 20732, Note_off_c, 1, 60, 100
3, 20732, Note_off_c, 1, 63, 100
3, 20732, Note_off_c, 1, 51, 100
3, 20736, Note_on_c, 1, 51, 80
3, 20736, Note_on_c, 1, 58, 80
3, 20736, Note_on_c, 1, 62, 80
3, 20924, Note_off_c, 1, 51, 100
3, 20928, Note_on_c, 1, 51, 80
3, 21116, Note_off_c, 1, 51, 100
3, 21120, Note_on_c, 1, 51, 80
3, 21308, Note_off_c, 1, 51, 100
3, 21312, Note_on_c, 1, 51, 80
3, 21500, Note_off_c, 1, 51, 100
3, 21504, Note_on_c, 1, 51, 80
3, 21692, Note_off_c, 1, 51, 100
3, 21696, Note_on_c, 1, 51, 80
3, 21884, Note_off_c, 1, 58, 100
3, 21884, Note_off_c, 1, 62, 100
3, 21884, Note_off_c, 1, 51, 100
3, 21888, Note_on_c, 1, 51, 80
3, 21888, Note_on_c, 1, 60, 80
3, 21888, Note_on_c, 1, 56, 80
3, 22076, Note_off_c, 1, 51, 100
3, 22080, Note_on_c, 1, 51, 80
3, 22268, Note_off_c, 1, 60, 100
3, 22268, Note_off_c, 1, 56, 100
3, 22268, Note_off_c, 1, 51, 100
3, 22272, Note_on_c, 1, 51, 80
3, 22272, Note_on_c, 1, 60, 80
3, 22272, Note_on_c, 1, 56, 80
3, 22460, Note_off_c, 1, 51, 100
3, 22464, Note_on_c, 1, 51, 80
3, 22652, Note_off_c, 1, 60, 100
3, 22652, Note_off_c, 1, 56, 100
3, 22652, Note_off_c, 1, 51, 100
3, 22656, Note_on_c, 1, 51, 80
3, 22656, Note_on_c, 1, 59, 80
3, 22656, Note_on_c, 1, 56, 80
3, 22844, Note_off_c, 1, 51, 100
3, 22848, Note_on_c, 1, 51, 80
3, 23036, Note_off_c, 1, 59, 100
3, 23036, Note_off_c, 1, 56, 100
3, 23036, Note_off_c, 1, 51, 100
3, 23040, Note_on_c, 1, 51, 80
3, 23040, Note_on_c, 1, 58, 80
3, 23040, Note_on_c, 1, 55, 80
3, 23228, Note_off_c, 1, 51, 100
3, 23232, Note_on_c, 1, 51, 80
3, 23420, Note_off_c, 1, 58, 100
3, 23420, Note_off_c, 1, 55, 100
3, 23420, Note_off_c, 1, 51, 100
3, 23424, Note_on_c, 1, 51, 80
3, 23612, Note_off_c, 1, 51, 100
3, 23616, Note_on_c, 1, 51, 80
3, 23804, Note_off_c, 1, 51, 100
3, 23808, Note_on_c, 1, 51, 80
3, 23996, Note_off_c, 1, 51, 100
3, 24000, Note_on_c, 1, 51, 80
3, 24188, Note_off_c, 1, 51, 100
3, 24192, Note_on_c, 1, 51, 80
3, 24192, Note_on_c, 1, 60, 80
3, 24192, Note_on_c, 1, 63, 80
3, 24380, Note_off_c, 1, 51, 100
3, 24384, Note_on_c, 1, 51, 80
3, 24572, Note_off_c, 1, 51, 100
3, 24576, Note_on_c, 1, 51, 80
3, 24764, Note_off_c, 1, 51, 100
3, 24768, Note_on_c, 1, 51, 80
3, 24956, Note_off_c, 1, 51, 100
3, 24960, Note_on_c, 1, 51, 80
3, 25148, Note_off_c, 1, 51, 100
3, 25152, Note_on_c, 1, 51, 80
3, 25340, Note_off_c, 1, 60, 100
3, 25340, Note_off_c, 1, 63, 100
3, 25340, Note_off_c, 1, 51, 100
3, 25344, Note_on_c, 1, 51, 80
3, 25344, Note_on_c, 1, 58, 80
3, 25344, Note_on_c, 1, 62, 80
3, 25532, Note_off_c, 1, 51, 100
3, 25536, Note_on_c, 1, 51, 80
3, 25724, Note_off_c, 1, 51, 100
3, 25728, Note_on_c, 1, 51, 80
3, 25916, Note_off_c, 1, 51, 100
3, 25920, Note_on_c, 1, 51, 80
3, 26108, Note_off_c, 1, 51, 100
3, 26112, Note_on_c, 1, 51, 80
3, 26300, Note_off_c, 1, 51, 100
3, 26304, Note_on_c, 1, 51, 80
3, 26492, Note_off_c, 1, 58, 100
3, 26492, Note_off_c, 1, 62, 100
3, 26492, Note_off_c, 1, 51, 100
3, 26496, Note_on_c, 1, 51, 80
3, 26496, Note_on_c, 1, 60, 80
3, 26496, Note_on_c, 1, 56, 80
3, 26684, Note_off_c, 1, 51, 100
3, 26688, Note_on_c, 1, 51, 80
3, 26876, Note_off_c, 1, 60, 100
3, 26876, Note_off_c, 1, 56, 100
3, 26876, Note_off_c, 1, 51, 100
3, 26880, Note_on_c, 1, 51, 80
3, 26880, Note_on_c, 1, 60, 80
3, 26880, Note_on_c, 1, 56, 80
3, 27068, Note_off_c, 1, 51, 100
3, 27072, Note_on_c, 1, 51, 80
3, 27260, Note_off_c, 1, 60, 100
3, 27260, Note_off_c, 1, 56, 100
3, 27260, Note_off_c, 1, 51, 100
3, 27264, Note_on_c, 1, 51, 80
3, 27264, Note_on_c, 1, 59, 80
3, 27264, Note_on_c, 1, 56, 80
3, 27452, Note_off_c, 1, 51, 100
3, 27456, Note_on_c, 1, 51, 80
3, 27644, Note_off_c, 1, 59, 100
3, 27644, Note_off_c, 1, 56, 100
3, 27644, Note_off_c, 1, 51, 100
3, 27648, Note_on_c, 1, 58, 80
3, 27648, Note_on_c, 1, 55, 80
3, 27648, Note_on_c, 1, 51, 80
3, 28028, Note_off_c, 1, 58, 100
3, 28028, Note_off_c, 1, 55, 100
3, 28028, Note_off_c, 1, 51, 100
3, 28608, Note_on_c, 1, 55, 80
3, 28796, Note_off_c, 1, 55, 100
3, 28800, Note_on_c, 1, 53, 80
3, 28988, Note_off_c, 1, 53, 100
3, 28992, Note_on_c, 1, 56, 80
3, 29180, Note_off_c, 1, 56, 100
3, 29184, Note_on_c, 1, 50, 80
3, 29372, Note_off_c, 1, 50, 100
3, 29376, Note_on_c, 1, 53, 80
3, 29564, Note_off_c, 1, 53, 100
3, 29568, Note_on_c, 1, 46, 80
3, 29756, Note_off_c, 1, 46, 100
3, 29760, Note_on_c, 1, 50, 80
3, 29948, Note_off_c, 1, 50, 100
3, 29952, Note_on_c, 1, 51, 80
3, 30332, Note_off_c, 1, 51, 100
3, 30720, Note_on_c, 1, 60, 80
3, 30812, Note_off_c, 1, 60, 100
3, 30816, Note_on_c, 1, 58, 80
3, 30908, Note_off_c, 1, 58, 100
3, 30912, Note_on_c, 1, 56, 80
3, 31004, Note_off_c, 1, 56, 100
3, 31008, Note_on_c, 1, 55, 80
3, 31100, Note_off_c, 1, 55, 100
3, 31104, Note_on_c, 1, 53, 80
3, 31292, Note_off_c, 1, 53, 100
3, 31296, Note_on_c, 1, 56, 80
3, 31484, Note_off_c, 1, 56, 100
3, 31488, Note_on_c, 1, 50, 80
3, 31676, Note_off_c, 1, 50, 100
3, 31680, Note_on_c, 1, 53, 80
3, 31868, Note_off_c, 1, 53, 100
3, 31872, Note_on_c, 1, 46, 80
3, 32060, Note_off_c, 1, 46, 100
3, 32064, Note_on_c, 1, 50, 80
3, 32252, Note_off_c, 1, 50, 100
3, 32256, Note_on_c, 1, 51, 80
3, 32444, Note_off_c, 1, 51, 100
3, 32448, Note_on_c, 1, 55, 80
3, 32636, Note_off_c, 1, 55, 100
3, 32640, Note_on_c, 1, 48, 80
3, 32828, Note_off_c, 1, 48, 100
3, 32832, Note_on_c, 1, 51, 80
3, 33020, Note_off_c, 1, 51, 100
3, 33024, Note_on_c, 1, 45, 80
3, 33212, Note_off_c, 1, 45, 100
3, 33216, Note_on_c, 1, 48, 80
3, 33404, Note_off_c, 1, 48, 100
3, 33408, Note_on_c, 1, 41, 80
3, 33596, Note_off_c, 1, 41, 100
3, 33600, Note_on_c, 1, 45, 80
3, 33788, Note_off_c, 1, 45, 100
3, 33792, Note_on_c, 1, 48, 80
3, 33980, Note_off_c, 1, 48, 100
3, 33984, Note_on_c, 1, 52, 80
3, 34172, Note_off_c, 1, 52, 100
3, 34176, Note_on_c, 1, 53, 80
3, 34364, Note_off_c, 1, 53, 100
3, 34368, Note_on_c, 1, 45, 80
3, 34556, Note_off_c, 1, 45, 100
3, 34560, Note_on_c, 1, 46, 80
3, 34748, Note_off_c, 1, 46, 100
3, 34752, Note_on_c, 1, 50, 80
3, 34940, Note_off_c, 1, 50, 100
3, 34944, Note_on_c, 1, 53, 80
3, 35132, Note_off_c, 1, 53, 100
3, 35136, Note_on_c, 1, 57, 80
3, 35324, Note_off_c, 1, 57, 100
3, 35328, Note_on_c, 1, 58, 80
3, 35516, Note_off_c, 1, 58, 100
3, 35520, Note_on_c, 1, 57, 80
3, 35708, Note_off_c, 1, 57, 100
3, 35712, Note_on_c, 1, 58, 80
3, 35900, Note_off_c, 1, 58, 100
3, 35904, Note_on_c, 1, 57, 80
3, 36092, Note_off_c, 1, 57, 100
3, 36096, Note_on_c, 1, 58, 80
3, 36284, Note_off_c, 1, 58, 100
3, 36288, Note_on_c, 1, 57, 80
3, 36476, Note_off_c, 1, 57, 100
3, 36480, Note_on_c, 1, 58, 80
3, 36668, Note_off_c, 1, 58, 100
3, 36672, Note_on_c, 1, 58, 80
3, 36860, Note_off_c, 1, 58, 100
3, 36864, Note_on_c, 1, 56, 80
3, 36864, Note_on_c, 1, 53, 80
3, 36864, Note_on_c, 1, 51, 80
3, 36864, Note_on_c, 1, 44, 80
3, 38012, Note_off_c, 1, 56, 100
3, 38012, Note_off_c, 1, 53, 100
3, 38012, Note_off_c, 1, 51, 100
3, 38012, Note_off_c, 1, 44, 100
3, 38016, Note_on_c, 1, 56, 80
3, 38016, Note_on_c, 1, 53, 80
3, 38016, Note_on_c, 1, 51, 80
3, 38016, Note_on_c, 1, 44, 80
3, 39164, Note_off_c, 1, 56, 100
3, 39164, Note_off_c, 1, 53, 100
3, 39164, Note_off_c, 1, 51, 100
3, 39164, Note_off_c, 1, 44, 100
3, 39168, Note_on_c, 1, 59, 80
3, 39168, Note_on_c, 1, 56, 80
3, 39548, Note_off_c, 1, 59, 100
3, 39548, Note_off_c, 1, 56, 100
3, 39552, Note_on_c, 1, 59, 80
3, 39552, Note_on_c, 1, 56, 80
3, 39932, Note_off_c, 1, 59, 100
3, 39932, Note_off_c, 1, 56, 100
3, 39936, Note_on_c, 1, 59, 80
3, 39936, Note_on_c, 1, 54, 80
3, 40316, Note_off_c, 1, 59, 100
3, 40316, Note_off_c, 1, 54, 100
3, 40320, Note_on_c, 1, 59, 80
3, 40320, Note_on_c, 1, 53, 80
3, 41468, Note_off_c, 1, 59, 100
3, 41468, Note_off_c, 1, 53, 100
3, 41472, Note_on_c, 1, 71, 80
3, 41472, Note_on_c, 1, 68, 80
3, 41852, Note_off_c, 1, 71, 100
3, 41852, Note_off_c, 1, 68, 100
3, 41856, Note_on_c, 1, 71, 80
3, 41856, Note_on_c, 1, 68, 80
3, 42236, Note_off_c, 1, 71, 100
3, 42236, Note_off_c, 1, 68, 100
3, 42240, Note_on_c, 1, 71, 80
3, 42240, Note_on_c, 1, 66, 80
3, 42620, Note_off_c, 1, 71, 100
3, 42620, Note_off_c, 1, 66, 100
3, 42624, Note_on_c, 1, 71, 80
3, 42624, Note_on_c, 1, 65, 80
3, 43772, Note_off_c, 1, 71, 100
3, 43772, Note_off_c, 1, 65, 100
3, 43776, Note_on_c, 1, 61, 80
3, 43776, Note_on_c, 1, 58, 80
3, 44156, Note_off_c, 1, 61, 100
3, 44156, Note_off_c, 1, 58, 100
3, 44160, Note_on_c, 1, 61, 80
3, 44160, Note_on_c, 1, 58, 80
3, 44540, Note_off_c, 1, 61, 100
3, 44540, Note_off_c, 1, 58, 100
3, 44544, Note_on_c, 1, 61, 80
3, 44544, Note_on_c, 1, 56, 80
3, 44924, Note_off_c, 1, 61, 100
3, 44924, Note_off_c, 1, 56, 100
3, 44928, Note_on_c, 1, 61, 80
3, 44928, Note_on_c, 1, 55, 80
3, 46076, Note_off_c, 1, 61, 100
3, 46076, Note_off_c, 1, 55, 100
3, 46080, Note_on_c, 1, 73, 80
3, 46080, Note_on_c, 1, 70, 80
3, 46460, Note_off_c, 1, 73, 100
3, 46460, Note_off_c, 1, 70, 100
3, 46464, Note_on_c, 1, 73, 80
3, 46464, Note_on_c, 1, 70, 80
3, 46844, Note_off_c, 1, 73, 100
3, 46844, Note_off_c, 1, 70, 100
3, 46848, Note_on_c, 1, 73, 80
3, 46848, Note_on_c, 1, 68, 80
3, 47228, Note_off_c, 1, 73, 100
3, 47228, Note_off_c, 1, 68, 100
3, 47232, Note_on_c, 1, 73, 80
3, 47232, Note_on_c, 1, 67, 80
3, 48380, Note_off_c, 1, 73, 100
3, 48380, Note_off_c, 1, 67, 100
3, 48768, Note_on_c, 1, 70, 80
3, 48768, Note_on_c, 1, 66, 80
3, 49148, Note_off_c, 1, 70, 100
3, 49148, Note_off_c, 1, 66, 100
3, 49920, Note_on_c, 1, 65, 80
3, 49920, Note_on_c, 1, 69, 80
3, 50300, Note_off_c, 1, 65, 100
3, 50300, Note_off_c, 1, 69, 100
3, 50304, Note_on_c, 1, 53, 80
3, 50684, Note_off_c, 1, 53, 100
3, 50688, Note_on_c, 1, 41, 80
3, 51068, Note_off_c, 1, 41, 100
3, 51072, Note_on_c, 1, 29, 80
3, 51452, Note_off_c, 1, 29, 100
3, 51840, Control_c, 1, 64, 127
3, 51840, Note_on_c, 1, 50, 80
3, 51932, Note_off_c, 1, 50, 100
3, 51936, Note_on_c, 1, 58, 80
3, 52028, Note_off_c, 1, 58, 100
3, 52032, Note_on_c, 1, 53, 80
3, 52124, Note_off_c, 1, 53, 100
3, 52128, Note_on_c, 1, 58, 80
3, 52216, Control_c, 1, 64, 0
3, 52220, Note_off_c, 1, 58, 100
3, 52224, Control_c, 1, 64, 127
3, 52224, Note_on_c, 1, 50, 80
3, 52316, Note_off_c, 1, 50, 100
3, 52320, Note_on_c, 1, 58, 80
3, 52412, Note_off_c, 1, 58, 100
3, 52416, Note_on_c, 1, 53, 80
3, 52508, Note_off_c, 1, 53, 100
3, 52512, Note_on_c, 1, 58, 80
3, 52600, Control_c, 1, 64, 0
3, 52604, Note_off_c, 1, 58, 100
3, 52608, Control_c, 1, 64, 127
3, 52608, Note_on_c, 1, 50, 80
3, 52700, Note_off_c, 1, 50, 100
3, 52704, Note_on_c, 1, 58, 80
3, 52796, Note_off_c, 1, 58, 100
3, 52800, Note_on_c, 1, 53, 80
3, 52892, Note_off_c, 1, 53, 100
3, 52896, Note_on_c, 1, 58, 80
3, 52984, Control_c, 1, 64, 0
3, 52988, Note_off_c, 1, 58, 100
3, 52992, Control_c, 1, 64, 127
3, 52992, Note_on_c, 1, 50, 80
3, 53084, Note_off_c, 1, 50, 100
3, 53088, Note_on_c, 1, 58, 80
3, 53180, Note_off_c, 1, 58, 100
3, 53184, Note_on_c, 1, 53, 80
3, 53276, Note_off_c, 1, 53, 100
3, 53280, Note_on_c, 1, 58, 80
3, 53368, Control_c, 1, 64, 0
3, 53372, Note_off_c, 1, 58, 100
3, 53376, Control_c, 1, 64, 127
3, 53376, Note_on_c, 1, 50, 80
3, 53468, Note_off_c, 1, 50, 100
3, 53472, Note_on_c, 1, 58, 80
3, 53564, Note_off_c, 1, 58, 100
3, 53568, Note_on_c, 1, 53, 80
3, 53660, Note_off_c, 1, 53, 100
3, 53664, Note_on_c, 1, 58, 80
3, 53752, Control_c, 1, 64, 0
3, 53756, Note_off_c, 1, 58, 100
3, 53760, Control_c, 1, 64, 127
3, 53760, Note_on_c, 1, 50, 80
3, 53852, Note_off_c, 1, 50, 100
3, 53856, Note_on_c, 1, 58, 80
3, 53948, Note_off_c, 1, 58, 100
3, 53952, Note_on_c, 1, 53, 80
3, 54044, Note_off_c, 1, 53, 100
3, 54048, Note_on_c, 1, 58, 80
3, 54136, Control_c, 1, 64, 0
3, 54140, Note_off_c, 1, 58, 100
3, 54144, Control_c, 1, 64, 127
3, 54144, Note_on_c, 1, 51, 80
3, 54236, Note_off_c, 1, 51, 100
3, 54240, Note_on_c, 1, 58, 80
3, 54332, Note_off_c, 1, 58, 100
3, 54336, Note_on_c, 1, 55, 80
3, 54428, Note_off_c, 1, 55, 100
3, 54432, Note_on_c, 1, 58, 80
3, 54520, Control_c, 1, 64, 0
3, 54524, Note_off_c, 1, 58, 100
3, 54528, Control_c, 1, 64, 127
3, 54528, Note_on_c, 1, 51, 80
3, 54620, Note_off_c, 1, 51, 100
3, 54624, Note_on_c, 1, 58, 80
3, 54716, Note_off_c, 1, 58, 100
3, 54720, Note_on_c, 1, 55, 80
3, 54812, Note_off_c, 1, 55, 100
3, 54816, Note_on_c, 1, 58, 80
3, 54904, Control_c, 1, 64, 0
3, 54908, Note_off_c, 1, 58, 100
3, 54912, Control_c, 1, 64, 127
3, 54912, Note_on_c, 1, 51, 80
3, 55004, Note_off_c, 1, 51, 100
3, 55008, Note_on_c, 1, 59, 80
3, 55100, Note_off_c, 1, 59, 100
3, 55104, Note_on_c, 1, 55, 80
3, 55196, Note_off_c, 1, 55, 100
3, 55200, Note_on_c, 1, 59, 80
3, 55288, Control_c, 1, 64, 0
3, 55292, Note_off_c, 1, 59, 100
3, 55296, Control_c, 1, 64, 127
3, 55296, Note_on_c, 1, 51, 80
3, 55388, Note_off_c, 1, 51, 100
3, 55392, Note_on_c, 1, 60, 80
3, 55484, Note_off_c, 1, 60, 100
3, 55488, Note_on_c, 1, 55, 80
3, 55580, Note_off_c, 1, 55, 100
3, 55584, Note_on_c, 1, 60, 80
3, 55672, Control_c, 1, 64, 0
3, 55676, Note_off_c, 1, 60, 100
3, 55680, Control_c, 1, 64, 127
3, 55680, Note_on_c, 1, 51, 80
3, 55772, Note_off_c, 1, 51, 100
3, 55776, Note_on_c, 1, 60, 80
3, 55868, Note_off_c, 1, 60, 100
3, 55872, Note_on_c, 1, 55, 80
3, 55964, Note_off_c, 1, 55, 100
3, 55968, Note_on_c, 1, 60, 80
3, 56056, Control_c, 1, 64, 0
3, 56060, Note_off_c, 1, 60, 100
3, 56064, Control_c, 1, 64, 127
3, 56064, Note_on_c, 1, 52, 80
3, 56156, Note_off_c, 1, 52, 100
3, 56160, Note_on_c, 1, 60, 80
3, 56252, Note_off_c, 1, 60, 100
3, 56256, Note_on_c, 1, 58, 80
3, 56348, Note_off_c, 1, 58, 100
3, 56352, Note_on_c, 1, 60, 80
3, 56440, Control_c, 1, 64, 0
3, 56444, Note_off_c, 1, 60, 100
3, 56448, Control_c, 1, 64, 127
3, 56448, Note_on_c, 1, 50, 80
3, 56540, Note_off_c, 1, 50, 100
3, 56544, Note_on_c, 1, 60, 80
3, 56636, Note_off_c, 1, 60, 100
3, 56640, Note_on_c, 1, 57, 80
3, 56732, Note_off_c, 1, 57, 100
3, 56736, Note_on_c, 1, 60, 80
3, 56824, Control_c, 1, 64, 0
3, 56828, Note_off_c, 1, 60, 100
3, 56832, Control_c, 1, 64, 127
3, 56832, Note_on_c, 1, 50, 80
3, 56924, Note_off_c, 1, 50, 100
3, 56928, Note_on_c, 1, 60, 80
3, 57020, Note_off_c, 1, 60, 100
3, 57024, Note_on_c, 1, 57, 80
3, 57116, Note_off_c, 1, 57, 100
3, 57120, Note_on_c, 1, 60, 80
3, 57208, Control_c, 1, 64, 0
3, 57212, Note_off_c, 1, 60, 100
3, 57216, Control_c, 1, 64, 127
3, 57216, Note_on_c, 1, 50, 80
3, 57308, Note_off_c, 1, 50, 100
3, 57312, Note_on_c, 1, 60, 80
3, 57404, Note_off_c, 1, 60, 100
3, 57408, Note_on_c, 1, 57, 80
3, 57500, Note_off_c, 1, 57, 100
3, 57504, Note_on_c, 1, 60, 80
3, 57592, Control_c, 1, 64, 0
3, 57596, Note_off_c, 1, 60, 100
3, 57600, Control_c, 1, 64, 127
3, 57600, Note_on_c, 1, 53, 80
3, 57692, Note_off_c, 1, 53, 100
3, 57696, Note_on_c, 1, 63, 80
3, 57788, Note_off_c, 1, 63, 100
3, 57792, Note_on_c, 1, 60, 80
3, 57884, Note_off_c, 1, 60, 100
3, 57888, Note_on_c, 1, 63, 80
3, 57976, Control_c, 1, 64, 0
3, 57980, Note_off_c, 1, 63, 100
3, 57984, Control_c, 1, 64, 127
3, 57984, Note_on_c, 1, 53, 80
3, 58076, Note_off_c, 1, 53, 100
3, 58080, Note_on_c, 1, 63, 80
3, 58172, Note_off_c, 1, 63, 100
3, 58176, Note_on_c, 1, 57, 80
3, 58268, Note_off_c, 1, 57, 100
3, 58272, Note_on_c, 1, 63, 80
3, 58360, Control_c, 1, 64, 0
3, 58364, Note_off_c, 1, 63, 100
3, 58368, Control_c, 1, 64, 127
3, 58368, Note_on_c, 1, 54, 80
3, 58460, Note_off_c, 1, 54, 100
3, 58464, Note_on_c, 1, 63, 80
3, 58556, Note_off_c, 1, 63, 100
3, 58560, Note_on_c, 1, 57, 80
3, 58652, Note_off_c, 1, 57, 100
3, 58656, Note_on_c, 1, 63, 80
3, 58744, Control_c, 1, 64, 0
3, 58748, Note_off_c, 1, 63, 100
3, 58752, Control_c, 1, 64, 127
3, 58752, Note_on_c, 1, 55, 80
3, 58844, Note_off_c, 1, 55, 100
3, 58848, Note_on_c, 1, 62, 80
3, 58940, Note_off_c, 1, 62, 100
3, 58944, Note_on_c, 1, 58, 80
3, 59036, Note_off_c, 1, 58, 100
3, 59040, Note_on_c, 1, 62, 80
3, 59128, Control_c, 1, 64, 0
3, 59132, Note_off_c, 1, 62, 100
3, 59136, Control_c, 1, 64, 127
3, 59136, Note_on_c, 1, 51, 80
3, 59228, Note_off_c, 1, 51, 100
3, 59232, Note_on_c, 1, 60, 80
3, 59324, Note_off_c, 1, 60, 100
3, 59328, Note_on_c, 1, 55, 80
3, 59420, Note_off_c, 1, 55, 100
3, 59424, Note_on_c, 1, 60, 80
3, 59512, Control_c, 1, 64, 0
3, 59516, Note_off_c, 1, 60, 100
3, 59520, Control_c, 1, 64, 127
3, 59520, Note_on_c, 1, 53, 80
3, 59612, Note_off_c, 1, 53, 100
3, 59616, Note_on_c, 1, 60, 80
3, 59708, Note_off_c, 1, 60, 100
3, 59712, Note_on_c, 1, 57, 80
3, 59804, Note_off_c, 1, 57, 100
3, 59808, Note_on_c, 1, 63, 80
3, 59896, Control_c, 1, 64, 0
3, 59900, Note_off_c, 1, 63, 100
3, 59904, Note_on_c, 1, 58, 80
3, 59904, Note_on_c, 1, 46, 80
3, 60284, Note_off_c, 1, 58, 100
3, 60284, Note_off_c, 1, 46, 100
3, 64512, Control_c, 1, 64, 127
3, 64512, Note_on_c, 1, 50, 80
3, 64604, Note_off_c, 1, 50, 100
3, 64608, Note_on_c, 1, 58, 80
3, 64700, Note_off_c, 1, 58, 100
3, 64704, Note_on_c, 1, 53, 80
3, 64796, Note_off_c, 1, 53, 100
3, 64800, Note_on_c, 1, 58, 80
3, 64888, Control_c, 1, 64, 0
3, 64892, Note_off_c, 1, 58, 100
3, 64896, Control_c, 1, 64, 127
3, 64896, Note_on_c, 1, 50, 80
3, 64988, Note_off_c, 1, 50, 100
3, 64992, Note_on_c, 1, 58, 80
3, 65084, Note_off_c, 1, 58, 100
3, 65088, Note_on_c, 1, 53, 80
3, 65180, Note_off_c, 1, 53, 100
3, 65184, Note_on_c, 1, 58, 80
3, 65272, Control_c, 1, 64, 0
3, 65276, Note_off_c, 1, 58, 100
3, 65280, Control_c, 1, 64, 127
3, 65280, Note_on_c, 1, 50, 80
3, 65372, Note_off_c, 1, 50, 100
3, 65376, Note_on_c, 1, 58, 80
3, 65468, Note_off_c, 1, 58, 100
3, 65472, Note_on_c, 1, 53, 80
3, 65564, Note_off_c, 1, 53, 100
3, 65568, Note_on_c, 1, 58, 80
3, 65656, Control_c, 1, 64, 0
3, 65660, Note_off_c, 1, 58, 100
3, 65664, Control_c, 1, 64, 127
3, 65664, Note_on_c, 1, 50, 80
3, 65756, Note_off_c, 1, 50, 100
3, 65760, Note_on_c, 1, 58, 80
3, 65852, Note_off_c, 1, 58, 100
3, 65856, Note_on_c, 1, 53, 80
3, 65948, Note_off_c, 1, 53, 100
3, 65952, Note_on_c, 1, 58, 80
3, 66040, Control_c, 1, 64, 0
3, 66044, Note_off_c, 1, 58, 100
3, 66048, Control_c, 1, 64, 127
3, 66048, Note_on_c, 1, 50, 80
3, 66140, Note_off_c, 1, 50, 100
3, 66144, Note_on_c, 1, 58, 80
3, 66236, Note_off_c, 1, 58, 100
3, 66240, Note_on_c, 1, 53, 80
3, 66332, Note_off_c, 1, 53, 100
3, 66336, Note_on_c, 1, 58, 80
3, 66424, Control_c, 1, 64, 0
3, 66428, Note_off_c, 1, 58, 100
3, 66432, Control_c, 1, 64, 127
3, 66432, Note_on_c, 1, 50, 80
3, 66524, Note_off_c, 1, 50, 100
3, 66528, Note_on_c, 1, 58, 80
3, 66620, Note_off_c, 1, 58, 100
3, 66624, Note_on_c, 1, 53, 80
3, 66716, Note_off_c, 1, 53, 100
3, 66720, Note_on_c, 1, 58, 80
3, 66808, Control_c, 1, 64, 0
3, 66812, Note_off_c, 1, 58, 100
3, 66816, Control_c, 1, 64, 127
3, 66816, Note_on_c, 1, 51, 80
3, 66908, Note_off_c, 1, 51, 100
3, 66912, Note_on_c, 1, 58, 80
3, 67004, Note_off_c, 1, 58, 100
3, 67008, Note_on_c, 1, 55, 80
3, 67100, Note_off_c, 1, 55, 100
3, 67104, Note_on_c, 1, 58, 80
3, 67192, Control_c, 1, 64, 0
3, 67196, Note_off_c, 1, 58, 100
3, 67200, Control_c, 1, 64, 127
3, 67200, Note_on_c, 1, 51, 80
3, 67292, Note_off_c, 1, 51, 100
3, 67296, Note_on_c, 1, 58, 80
3, 67388, Note_off_c, 1, 58, 100
3, 67392, Note_on_c, 1, 55, 80
3, 67484, Note_off_c, 1, 55, 100
3, 67488, Note_on_c, 1, 58, 80
3, 67576, Control_c, 1, 64, 0
3, 67580, Note_off_c, 1, 58, 100
3, 67584, Control_c, 1, 64, 127
3, 67584, Note_on_c, 1, 51, 80
3, 67676, Note_off_c, 1, 51, 100
3, 67680, Note_on_c, 1, 59, 80
3, 67772, Note_off_c, 1, 59, 100
3, 67776, Note_on_c, 1, 55, 80
3, 67868, Note_off_c, 1, 55, 100
3, 67872, Note_on_c, 1, 59, 80
3, 67960, Control_c, 1, 64, 0
3, 67964, Note_off_c, 1, 59, 100
3, 67968, Control_c, 1, 64, 127
3, 67968, Note_on_c, 1, 51, 80
3, 68060, Note_off_c, 1, 51, 100
3, 68064, Note_on_c, 1, 60, 80
3, 68156, Note_off_c, 1, 60, 100
3, 68160, Note_on_c, 1, 55, 80
3, 68252, Note_off_c, 1, 55, 100
3, 68256, Note_on_c, 1, 60, 80
3, 68344, Control_c, 1, 64, 0
3, 68348, Note_off_c, 1, 60, 100
3, 68352, Control_c, 1, 64, 127
3, 68352, Note_on_c, 1, 51, 80
3, 68444, Note_off_c, 1, 51, 100
3, 68448, Note_on_c, 1, 60, 80
3, 68540, Note_off_c, 1, 60, 100
3, 68544, Note_on_c, 1, 55, 80
3, 68636, Note_off_c, 1, 55, 100
3, 68640, Note_on_c, 1, 60, 80
3, 68728, Control_c, 1, 64, 0
3, 68732, Note_off_c, 1, 60, 100
3, 68736, Control_c, 1, 64, 127
3, 68736, Note_on_c, 1, 52, 80
3, 68828, Note_off_c, 1, 52, 100
3, 68832, Note_on_c, 1, 60, 80
3, 68924, Note_off_c, 1, 60, 100
3, 68928, Note_on_c, 1, 58, 80
3, 69020, Note_off_c, 1, 58, 100
3, 69024, Note_on_c, 1, 60, 80
3, 69112, Control_c, 1, 64, 0
3, 69116, Note_off_c, 1, 60, 100
3, 69120, Control_c, 1, 64, 127
3, 69120, Note_on_c, 1, 50, 80
3, 69212, Note_off_c, 1, 50, 100
3, 69216, Note_on_c, 1, 60, 80
3, 69308, Note_off_c, 1, 60, 100
3, 69312, Note_on_c, 1, 57, 80
3, 69404, Note_off_c, 1, 57, 100
3, 69408, Note_on_c, 1, 60, 80
3, 69496, Control_c, 1, 64, 0
3, 69500, Note_off_c, 1, 60, 100
3, 69504, Control_c, 1, 64, 127
3, 69504, Note_on_c, 1, 50, 80
3, 69596, Note_off_c, 1, 50, 100
3, 69600, Note_on_c, 1, 60, 80
3, 69692, Note_off_c, 1, 60, 100
3, 69696, Note_on_c, 1, 57, 80
3, 69788, Note_off_c, 1, 57, 100
3, 69792, Note_on_c, 1, 60, 80
3, 69880, Control_c, 1, 64, 0
3, 69884, Note_off_c, 1, 60, 100
3, 69888, Control_c, 1, 64, 127
3, 69888, Note_on_c, 1, 50, 80
3, 69980, Note_off_c, 1, 50, 100
3, 69984, Note_on_c, 1, 60, 80
3, 70076, Note_off_c, 1, 60, 100
3, 70080, Note_on_c, 1, 57, 80
3, 70172, Note_off_c, 1, 57, 100
3, 70176, Note_on_c, 1, 60, 80
3, 70264, Control_c, 1, 64, 0
3, 70268, Note_off_c, 1, 60, 100
3, 70272, Control_c, 1, 64, 127
3, 70272, Note_on_c, 1, 53, 80
3, 70364, Note_off_c, 1, 53, 100
3, 70368, Note_on_c, 1, 63, 80
3, 70460, Note_off_c, 1, 63, 100
3, 70464, Note_on_c, 1, 60, 80
3, 70556, Note_off_c, 1, 60, 100
3, 70560, Note_on_c, 1, 63, 80
3, 70648, Control_c, 1, 64, 0
3, 70652, Note_off_c, 1, 63, 100
3, 70656, Control_c, 1, 64, 127
3, 70656, Note_on_c, 1, 53, 80
3, 70748, Note_off_c, 1, 53, 100
3, 70752, Note_on_c, 1, 63, 80
3, 70844, Note_off_c, 1, 63, 100
3, 70848, Note_on_c, 1, 57, 80
3, 70940, Note_off_c, 1, 57, 100
3, 70944, Note_on_c, 1, 63, 80
3, 71032, Control_c, 1, 64, 0
3, 71036, Note_off_c, 1, 63, 100
3, 71040, Control_c, 1, 64, 127
3, 71040, Note_on_c, 1, 54, 80
3, 71132, Note_off_c, 1, 54, 100
3, 71136, Note_on_c, 1, 63, 80
3, 71228, Note_off_c, 1, 63, 100
3, 71232, Note_on_c, 1, 57, 80
3, 71324, Note_off_c, 1, 57, 100
3, 71328, Note_on_c, 1, 63, 80
3, 71416, Control_c, 1, 64, 0
3, 71420, Note_off_c, 1, 63, 100
3, 71424, Control_c, 1, 64, 127
3, 71424, Note_on_c, 1, 55, 80
3, 71516, Note_off_c, 1, 55, 100
3, 71520, Note_on_c, 1, 62, 80
3, 71612, Note_off_c, 1, 62, 100
3, 71616, Note_on_c, 1, 58, 80
3, 71708, Note_off_c, 1, 58, 100
3, 71712, Note_on_c, 1, 62, 80
3, 71800, Control_c, 1, 64, 0
3, 71804, Note_off_c, 1, 62, 100
3, 71808, Control_c, 1, 64, 127
3, 71808, Note_on_c, 1, 51, 80
3, 71900, Note_off_c, 1, 51, 100
3, 71904, Note_on_c, 1, 60, 80
3, 71996, Note_off_c, 1, 60, 100
3, 72000, Note_on_c, 1, 55, 80
3, 72092, Note_off_c, 1, 55, 100
3, 72096, Note_on_c, 1, 60, 80
3, 72184, Control_c, 1, 64, 0
3, 72188, Note_off_c, 1, 60, 100
3, 72192, Control_c, 1, 64, 127
3, 72192, Note_on_c, 1, 53, 80
3, 72284, Note_off_c, 1, 53, 100
3, 72288, Note_on_c, 1, 60, 80
3, 72380, Note_off_c, 1, 60, 100
3, 72384, Note_on_c, 1, 57, 80
3, 72476, Note_off_c, 1, 57, 100
3, 72480, Note_on_c, 1, 63, 80
3, 72568, Control_c, 1, 64, 0
3, 72572, Note_off_c, 1, 63, 100
3, 72576, Note_on_c, 1, 46, 80
3, 72668, Note_off_c, 1, 46, 100
3, 72672, Note_on_c, 1, 50, 80
3, 72764, Note_off_c, 1, 50, 100
3, 72768, Note_on_c, 1, 51, 80
3, 72860, Note_off_c, 1, 51, 100
3, 72864, Note_on_c, 1, 53, 80
3, 72956, Note_off_c, 1, 53, 100
3, 73920, Note_on_c, 1, 53, 80
3, 73920, Note_on_c, 1, 48, 80
3, 73920, Note_on_c, 1, 45, 80
3, 74108, Note_off_c, 1, 53, 100
3, 74108, Note_off_c, 1, 48, 100
3, 74108, Note_off_c, 1, 45, 100
3, 74112, Note_on_c, 1, 53, 80
3, 74112, Note_on_c, 1, 48, 80
3, 74112, Note_on_c, 1, 45, 80
3, 74300, Note_off_c, 1, 53, 100
3, 74300, Note_off_c, 1, 48, 100
3, 74300, Note_off_c, 1, 45, 100
3, 74304, Note_on_c, 1, 53, 80
3, 74304, Note_on_c, 1, 48, 80
3, 74304, Note_on_c, 1, 45, 80
3, 74492, Note_off_c, 1, 53, 100
3, 74492, Note_off_c, 1, 48, 100
3, 74492, Note_off_c, 1, 45, 100
3, 74496, Note_on_c, 1, 53, 80
3, 74496, Note_on_c, 1, 48, 80
3, 74496, Note_on_c, 1, 45, 80
3, 74684, Note_off_c, 1, 53, 100
3, 74684, Note_off_c, 1, 48, 100
3, 74684, Note_off_c, 1, 45, 100
3, 74688, Note_on_c, 1, 53, 80
3, 74688, Note_on_c, 1, 48, 80
3, 74688, Note_on_c, 1, 45, 80
3, 74876, Note_off_c, 1, 53, 100
3, 74876, Note_off_c, 1, 48, 100
3, 74876, Note_off_c, 1, 45, 100
3, 74880, Note_on_c, 1, 58, 80
3, 74972, Note_off_c, 1, 58, 100
3, 74976, Note_on_c, 1, 62, 80
3, 75068, Note_off_c, 1, 62, 100
3, 75072, Note_on_c, 1, 63, 80
3, 75164, Note_off_c, 1, 63, 100
3, 75168, Note_on_c, 1, 65, 80
3, 75260, Note_off_c, 1, 65, 100
3, 76224, Note_on_c, 1, 65, 80
3, 76224, Note_on_c, 1, 60, 80
3, 76224, Note_on_c, 1, 57, 80
3, 76412, Note_off_c, 1, 65, 100
3, 76412, Note_off_c, 1, 60, 100
3, 76412, Note_off_c, 1, 57, 100
3, 76416, Note_on_c, 1, 65, 80
3, 76416, Note_on_c, 1, 60, 80
3, 76416, Note_on_c, 1, 57, 80
3, 76604, Note_off_c, 1, 65, 100
3, 76604, Note_off_c, 1, 60, 100
3, 76604, Note_off_c, 1, 57, 100
3, 76608, Note_on_c, 1, 65, 80
3, 76608, Note_on_c, 1, 60, 80
3, 76608, Note_on_c, 1, 57, 80
3, 76796, Note_off_c, 1, 65, 100
3, 76796, Note_off_c, 1, 60, 100
3, 76796, Note_off_c, 1, 57, 100
3, 76800, Note_on_c, 1, 65, 80
3, 76800, Note_on_c, 1, 60, 80
3, 76800, Note_on_c, 1, 57, 80
3, 76988, Note_off_c, 1, 65, 100
3, 76988, Note_off_c, 1, 60, 100
3, 76988, Note_off_c, 1, 57, 100
3, 76992, Note_on_c, 1, 65, 80
3, 76992, Note_on_c, 1, 60, 80
3, 76992, Note_on_c, 1, 57, 80
3, 77180, Note_off_c, 1, 65, 100
3, 77180, Note_off_c, 1, 60, 100
3, 77180, Note_off_c, 1, 57, 100
3, 77376, Note_on_c, 1, 62, 80
3, 77376, Note_on_c, 1, 58, 80
3, 77564, Note_off_c, 1, 62, 100
3, 77564, Note_off_c, 1, 58, 100
3, 77760, Note_on_c, 1, 62, 80
3, 77760, Note_on_c, 1, 57, 80
3, 77760, Note_on_c, 1, 54, 80
3, 77948, Note_off_c, 1, 62, 100
3, 77948, Note_off_c, 1, 57, 100
3, 77948, Note_off_c, 1, 54, 100
3, 78144, Note_on_c, 1, 62, 82
3, 78144, Note_on_c, 1, 58, 82
3, 78144, Note_on_c, 1, 55, 82
3, 78332, Note_off_c, 1, 62, 100
3, 78332, Note_off_c, 1, 58, 100
3, 78332, Note_off_c, 1, 55, 100
3, 78528, Note_on_c, 1, 58, 84
3, 78528, Note_on_c, 1, 53, 84
3, 78528, Note_on_c, 1, 50, 84
3, 78716, Note_off_c, 1, 58, 100
3, 78716, Note_off_c, 1, 53, 100
3, 78716, Note_off_c, 1, 50, 100
3, 78912, Note_on_c, 1, 58, 86
3, 78912, Note_on_c, 1, 55, 86
3, 78912, Note_on_c, 1, 51, 86
3, 79100, Note_off_c, 1, 58, 100
3, 79100, Note_off_c, 1, 55, 100
3, 79100, Note_off_c, 1, 51, 100
3, 79296, Note_on_c, 1, 55, 88
3, 79296, Note_on_c, 1, 50, 88
3, 79296, Note_on_c, 1, 47, 88
3, 79484, Note_off_c, 1, 55, 100
3, 79484, Note_off_c, 1, 50, 100
3, 79484, Note_off_c, 1, 47, 100
3, 79680, Note_on_c, 1, 55, 90
3, 79680, Note_on_c, 1, 52, 90
3, 79680, Note_on_c, 1, 48, 90
3, 79868, Note_off_c, 1, 55, 100
3, 79868, Note_off_c, 1, 52, 100
3, 79868, Note_off_c, 1, 48, 100
3, 80064, Note_on_c, 1, 53, 92
3, 80064, Note_on_c, 1, 48, 92
3, 80064, Note_on_c, 1, 45, 92
3, 80252, Note_off_c, 1, 53, 100
3, 80252, Note_off_c, 1, 48, 100
3, 80252, Note_off_c, 1, 45, 100
3, 80448, Note_on_c, 1, 53, 94
3, 80448, Note_on_c, 1, 50, 94
3, 80448, Note_on_c, 1, 46, 94
3, 80636, Note_off_c, 1, 53, 100
3, 80636, Note_off_c, 1, 50, 100
3, 80636, Note_off_c, 1, 46, 100
3, 80832, Note_on_c, 1, 53, 96
3, 80832, Note_on_c, 1, 48, 96
3, 80832, Note_on_c, 1, 45, 96
3, 81020, Note_off_c, 1, 53, 100
3, 81020, Note_off_c, 1, 48, 100
3, 81020, Note_off_c, 1, 45, 100
3, 81216, Note_on_c, 1, 53, 98
3, 81216, Note_on_c, 1, 50, 98
3, 81216, Note_on_c, 1, 46, 98
3, 81404, Note_off_c, 1, 53, 100
3, 81404, Note_off_c, 1, 50, 100
3, 81404, Note_off_c, 1, 46, 100
3, 81600, Note_on_c, 1, 53, 100
3, 81600, Note_on_c, 1, 48, 100
3, 81600, Note_on_c, 1, 45, 100
3, 81788, Note_off_c, 1, 53, 100
3, 81788, Note_off_c, 1, 48, 100
3, 81788, Note_off_c, 1, 45, 100
3, 81792, Note_on_c, 1, 53, 80
3, 81792, Note_on_c, 1, 50, 80
3, 81792, Note_on_c, 1, 46, 80
3, 81980, Note_off_c, 1, 53, 100
3, 81980, Note_off_c, 1, 50, 100
3, 81980, Note_off_c, 1, 46, 100
3, 85440, Note_on_c, 1, 65, 80
3, 85628, Note_off_c, 1, 65, 100
3, 85632, Note_on_c, 1, 70, 80
3, 85820, Note_off_c, 1, 70, 100
3, 85824, Note_on_c, 1, 74, 80
3, 86012, Note_off_c, 1, 74, 100
3, 86016, Note_on_c, 1, 77, 80
3, 86204, Note_off_c, 1, 77, 100
3, 86976, Note_on_c, 1, 41, 110
3, 87164, Note_off_c, 1, 41, 100
3, 87168, Note_on_c, 1, 46, 110
3, 87356, Note_off_c, 1, 46, 100
3, 87360, Note_on_c, 1, 50, 110
3, 87548, Note_off_c, 1, 50, 100
3, 87552, Note_on_c, 1, 53, 110
3, 87932, Note_off_c, 1, 53, 100
3, 88896, Note_on_c, 1, 53, 81
3, 89084, Note_off_c, 1, 53, 100
3, 89088, Note_on_c, 1, 57, 82
3, 89276, Note_off_c, 1, 57, 100
3, 89280, Note_on_c, 1, 60, 84
3, 89468, Note_off_c, 1, 60, 100
3, 89472, Note_on_c, 1, 63, 85
3, 89660, Note_off_c, 1, 63, 100
3, 89664, Note_on_c, 1, 41, 86
3, 89852, Note_off_c, 1, 41, 100
3, 89856, Note_on_c, 1, 45, 88
3, 90044, Note_off_c, 1, 45, 100
3, 90048, Note_on_c, 1, 48, 89
3, 90236, Note_off_c, 1, 48, 100
3, 90240, Note_on_c, 1, 51, 90
3, 90428, Note_off_c, 1, 51, 100
3, 90432, Note_on_c, 1, 42, 92
3, 90620, Note_off_c, 1, 42, 100
3, 90624, Note_on_c, 1, 45, 93
3, 90812, Note_off_c, 1, 45, 100
3, 90816, Note_on_c, 1, 48, 94
3, 91004, Note_off_c, 1, 48, 100
3, 91008, Note_on_c, 1, 51, 96
3, 91196, Note_off_c, 1, 51, 100
3, 91200, Note_on_c, 1, 41, 97
3, 91388, Note_off_c, 1, 41, 100
3, 91392, Note_on_c, 1, 45, 98
3, 91580, Note_off_c, 1, 45, 100
3, 91584, Note_on_c, 1, 48, 100
3, 91772, Note_off_c, 1, 48, 100
3, 91776, Note_on_c, 1, 51, 101
3, 91964, Note_off_c, 1, 51, 100
3, 91968, Note_on_c, 1, 53, 102
3, 92156, Note_off_c, 1, 53, 100
3, 92160, Note_on_c, 1, 57, 104
3, 92348, Note_off_c, 1, 57, 100
3, 92352, Note_on_c, 1, 60, 105
3, 92540, Note_off_c, 1, 60, 100
3, 92544, Note_on_c, 1, 63, 106
3, 92732, Note_off_c, 1, 63, 100
3, 92736, Note_on_c, 1, 53, 108
3, 92924, Note_off_c, 1, 53, 100
3, 92928, Note_on_c, 1, 63, 109
3, 93116, Note_off_c, 1, 63, 100
3, 93120, Note_on_c, 1, 53, 110
3, 93308, Note_off_c, 1, 53, 100
3, 93312, Note_on_c, 1, 62, 80
3, 93312, Note_on_c, 1, 58, 80
3, 93692, Note_off_c, 1, 62, 100
3, 93692, Note_off_c, 1, 58, 100
3, 94464, Note_on_c, 1, 58, 80
3, 94464, Note_on_c, 1, 55, 80
3, 95612, Note_off_c, 1, 58, 100
3, 95612, Note_off_c, 1, 55, 100
3, 95616, Note_on_c, 1, 60, 80
3, 95616, Note_on_c, 1, 51, 80
3, 96764, Note_off_c, 1, 60, 100
3, 96764, Note_off_c, 1, 51, 100
3, 96768, Note_on_c, 1, 60, 80
3, 96768, Note_on_c, 1, 53, 80
3, 97148, Note_off_c, 1, 60, 100
3, 97148, Note_off_c, 1, 53, 100
3, 97152, Note_on_c, 1, 60, 80
3, 97152, Note_on_c, 1, 53, 80
3, 97532, Note_off_c, 1, 60, 100
3, 97532, Note_off_c, 1, 53, 100
3, 97536, Note_on_c, 1, 53, 80
3, 97536, Note_on_c, 1, 60, 80
3, 97724, Note_off_c, 1, 60, 100
3, 97728, Note_on_c, 1, 57, 80
3, 97916, Note_off_c, 1, 53, 100
3, 97916, Note_off_c, 1, 57, 100
3, 97920, Note_on_c, 1, 58, 80
3, 97920, Note_on_c, 1, 46, 80
3, 98108, Note_off_c, 1, 58, 100
3, 98108, Note_off_c, 1, 46, 100
3, 98112, Note_on_c, 1, 58, 80
3, 98300, Note_off_c, 1, 58, 100
3, 98304, Note_on_c, 1, 59, 80
3, 98492, Note_off_c, 1, 59, 100
3, 98496, Note_on_c, 1, 60, 80
3, 98684, Note_off_c, 1, 60, 100
3, 98688, Note_on_c, 1, 61, 80
3, 98876, Note_off_c, 1, 61, 100
3, 98880, Note_on_c, 1, 62, 80
3, 99068, Note_off_c, 1, 62, 100
3, 99072, Note_on_c, 1, 63, 80
3, 100220, Note_off_c, 1, 63, 100
3, 100224, Note_on_c, 1, 51, 80
3, 100224, Note_on_c, 1, 55, 80
3, 100988, Note_off_c, 1, 55, 100
3, 100992, Note_on_c, 1, 56, 80
3, 101180, Note_off_c, 1, 56, 100
3, 101184, Note_on_c, 1, 58, 80
3, 101372, Note_off_c, 1, 51, 100
3, 101372, Note_off_c, 1, 58, 100
3, 101376, Note_on_c, 1, 56, 80
3, 101376, Note_on_c, 1, 53, 80
3, 101376, Note_on_c, 1, 51, 80
3, 101376, Note_on_c, 1, 44, 80
3, 102524, Note_off_c, 1, 56, 100
3, 102524, Note_off_c, 1, 53, 100
3, 102524, Note_off_c, 1, 51, 100
3, 102524, Note_off_c, 1, 44, 100
3, 102528, Note_on_c, 1, 56, 80
3, 102528, Note_on_c, 1, 53, 80
3, 102528, Note_on_c, 1, 51, 80
3, 102528, Note_on_c, 1, 44, 80
3, 103676, Note_off_c, 1, 56, 100
3, 103676, Note_off_c, 1, 53, 100
3, 103676, Note_off_c, 1, 51, 100
3, 103676, Note_off_c, 1, 44, 100
3, 103680, Note_on_c, 1, 39, 80
3, 103680, Note_on_c, 1, 32, 80
3, 104060, Note_off_c, 1, 39, 100
3, 104060, Note_off_c, 1, 32, 100
3, 104064, Note_on_c, 1, 39, 83
3, 104064, Note_on_c, 1, 32, 83
3, 104444, Note_off_c, 1, 39, 100
3, 104444, Note_off_c, 1, 32, 100
3, 104448, Note_on_c, 1, 39, 86
3, 104448, Note_on_c, 1, 32, 86
3, 104828, Note_off_c, 1, 39, 100
3, 104828, Note_off_c, 1, 32, 100
3, 104832, Note_on_c, 1, 39, 90
3, 104832, Note_on_c, 1, 33, 90
3, 105980, Note_off_c, 1, 39, 100
3, 105980, Note_off_c, 1, 33, 100
3, 105984, Note_on_c, 1, 54, 100
3, 105984, Note_on_c, 1, 51, 100
3, 105984, Note_on_c, 1, 45, 100
3, 106364, Note_off_c, 1, 54, 100
3, 106364, Note_off_c, 1, 51, 100
3, 106364, Note_off_c, 1, 45, 100
3, 106368, Note_on_c, 1, 54, 104
3, 106368, Note_on_c, 1, 51, 104
3, 106368, Note_on_c, 1, 45, 104
3, 106748, Note_off_c, 1, 54, 100
3, 106748, Note_off_c, 1, 51, 100
3, 106748, Note_off_c, 1, 45, 100
3, 106752, Note_on_c, 1, 54, 107
3, 106752, Note_on_c, 1, 51, 107
3, 106752, Note_on_c, 1, 45, 107
3, 107132, Note_off_c, 1, 54, 100
3, 107132, Note_off_c, 1, 51, 100
3, 107132, Note_off_c, 1, 45, 100
3, 107136, Note_on_c, 1, 55, 110
3, 107136, Note_on_c, 1, 51, 110
3, 107136, Note_on_c, 1, 46, 110
3, 108284, Note_off_c, 1, 55, 100
3, 108284, Note_off_c, 1, 51, 100
3, 108284, Note_off_c, 1, 46, 100
3, 108288, Note_on_c, 1, 46, 80
3, 108288, Note_on_c, 1, 34, 80
3, 108668, Note_off_c, 1, 46, 100
3, 108668, Note_off_c, 1, 34, 100
3, 108672, Note_on_c, 1, 46, 80
3, 108672, Note_on_c, 1, 34, 80
3, 109052, Note_off_c, 1, 46, 100
3, 109052, Note_off_c, 1, 34, 100
3, 109056, Note_on_c, 1, 46, 80
3, 109056, Note_on_c, 1, 34, 80
3, 109436, Note_off_c, 1, 46, 100
3, 109436, Note_off_c, 1, 34, 100
3, 109440, Note_on_c, 1, 51, 80
3, 109440, Note_on_c, 1, 39, 80
3, 109820, Note_off_c, 1, 51, 100
3, 109820, Note_off_c, 1, 39, 100
3, 111744, Note_on_c, 1, 75, 80
3, 111744, Note_on_c, 1, 72, 80
3, 111744, Note_on_c, 1, 68, 80
3, 112892, Note_off_c, 1, 75, 100
3, 112892, Note_off_c, 1, 72, 100
3, 112892, Note_off_c, 1, 68, 100
3, 112896, Note_on_c, 1, 63, 80
3, 112896, Note_on_c, 1, 60, 80
3, 112896, Note_on_c, 1, 56, 80
3, 114044, Note_off_c, 1, 63, 100
3, 114044, Note_off_c, 1, 60, 100
3, 114044, Note_off_c, 1, 56, 100
3, 114048, Note_on_c, 1, 44, 80
3, 114048, Note_on_c, 1, 32, 80
3, 114428, Note_off_c, 1, 44, 100
3, 114428, Note_off_c, 1, 32, 100
3, 114432, Note_on_c, 1, 44, 83
3, 114432, Note_on_c, 1, 32, 83
3, 114812, Note_off_c, 1, 44, 100
3, 114812, Note_off_c, 1, 32, 100
3, 114816, Note_on_c, 1, 44, 86
3, 114816, Note_on_c, 1, 32, 86
3, 115196, Note_off_c, 1, 44, 100
3, 115196, Note_off_c, 1, 32, 100
3, 115200, Note_on_c, 1, 45, 90
3, 115200, Note_on_c, 1, 33, 90
3, 116348, Note_off_c, 1, 45, 100
3, 116348, Note_off_c, 1, 33, 100
3, 116352, Note_on_c, 1, 69, 100
3, 116732, Note_off_c, 1, 69, 100
3, 116736, Note_on_c, 1, 69, 104
3, 117116, Note_off_c, 1, 69, 100
3, 117120, Note_on_c, 1, 69, 107
3, 117500, Note_off_c, 1, 69, 100
3, 117504, Note_on_c, 1, 70, 110
3, 118652, Note_off_c, 1, 70, 100
3, 118656, Note_on_c, 1, 46, 80
3, 118656, Note_on_c, 1, 34, 80
3, 119036, Note_off_c, 1, 46, 100
3, 119036, Note_off_c, 1, 34, 100
3, 119040, Note_on_c, 1, 46, 80
3, 119040, Note_on_c, 1, 34, 80
3, 119420, Note_off_c, 1, 46, 100
3, 119420, Note_off_c, 1, 34, 100
3, 119424, Note_on_c, 1, 46, 80
3, 119424, Note_on_c, 1, 34, 80
3, 119804, Note_off_c, 1, 46, 100
3, 119804, Note_off_c, 1, 34, 100
3, 119808, Note_on_c, 1, 51, 80
3, 119808, Note_on_c, 1, 39, 80
3, 119996, Note_off_c, 1, 51, 100
3, 119996, Note_off_c, 1, 39, 100
3, 120000, Note_on_c, 1, 51, 80
3, 120188, Note_off_c, 1, 51, 100
3, 120192, Note_on_c, 1, 51, 80
3, 120380, Note_off_c, 1, 51, 100
3, 120384, Note_on_c, 1, 51, 80
3, 120572, Note_off_c, 1, 51, 100
3, 120576, Note_on_c, 1, 51, 80
3, 120764, Note_off_c, 1, 51, 100
3, 120768, Note_on_c, 1, 51, 80
3, 120956, Note_off_c, 1, 51, 100
3, 120960, Note_on_c, 1, 51, 80
3, 120960, Note_on_c, 1, 60, 80
3, 120960, Note_on_c, 1, 63, 80
3, 121148, Note_off_c, 1, 51, 100
3, 121152, Note_on_c, 1, 51, 80
3, 121340, Note_off_c, 1, 51, 100
3, 121344, Note_on_c, 1, 51, 80
3, 121532, Note_off_c, 1, 51, 100
3, 121536, Note_on_c, 1, 51, 80
3, 121724, Note_off_c, 1, 51, 100
3, 121728, Note_on_c, 1, 51, 80
3, 121916, Note_off_c, 1, 51, 100
3, 121920, Note_on_c, 1, 51, 80
3, 122108, Note_off_c, 1, 60, 100
3, 122108, Note_off_c, 1, 63, 100
3, 122108, Note_off_c, 1, 51, 100
3, 122112, Note_on_c, 1, 51, 80
3, 122112, Note_on_c, 1, 58, 80
3, 122112, Note_on_c, 1, 62, 80
3, 122300, Note_off_c, 1, 51, 100
3, 122304, Note_on_c, 1, 51, 80
3, 122492, Note_off_c, 1, 51, 100
3, 122496, Note_on_c, 1, 51, 80
3, 122684, Note_off_c, 1, 51, 100
3, 122688, Note_on_c, 1, 51, 80
3, 122876, Note_off_c, 1, 51, 100
3, 122880, Note_on_c, 1, 51, 80
3, 123068, Note_off_c, 1, 51, 100
3, 123072, Note_on_c, 1, 51, 80
3, 123260, Note_off_c, 1, 58, 100
3, 123260, Note_off_c, 1, 62, 100
3, 123260, Note_off_c, 1, 51, 100
3, 123264, Note_on_c, 1, 51, 80
3, 123264, Note_on_c, 1, 60, 80
3, 123264, Note_on_c, 1, 56, 80
3, 123452, Note_off_c, 1, 51, 100
3, 123456, Note_on_c, 1, 51, 80
3, 123644, Note_off_c, 1, 60, 100
3, 123644, Note_off_c, 1, 56, 100
3, 123644, Note_off_c, 1, 51, 100
3, 123648, Note_on_c, 1, 51, 80
3, 123648, Note_on_c, 1, 60, 80
3, 123648, Note_on_c, 1, 56, 80
3, 123836, Note_off_c, 1, 51, 100
3, 123840, Note_on_c, 1, 51, 80
3, 124028, Note_off_c, 1, 60, 100
3, 124028, Note_off_c, 1, 56, 100
3, 124028, Note_off_c, 1, 51, 100
3, 124032, Note_on_c, 1, 51, 80
3, 124032, Note_on_c, 1, 59, 80
3, 124032, Note_on_c, 1, 56, 80
3, 124220, Note_off_c, 1, 51, 100
3, 124224, Note_on_c, 1, 51, 80
3, 124412, Note_off_c, 1, 59, 100
3, 124412, Note_off_c, 1, 56, 100
3, 124412, Note_off_c, 1, 51, 100
3, 124416, Note_on_c, 1, 51, 80
3, 124416, Note_on_c, 1, 58, 80
3, 124416, Note_on_c, 1, 55, 80
3, 124604, Note_off_c, 1, 51, 100
3, 124608, Note_on_c, 1, 51, 80
3, 124796, Note_off_c, 1, 58, 100
3, 124796, Note_off_c, 1, 55, 100
3, 124796, Note_off_c, 1, 51, 100
3, 124800, Note_on_c, 1, 51, 80
3, 124988, Note_off_c, 1, 51, 100
3, 124992, Note_on_c, 1, 51, 80
3, 125180, Note_off_c, 1, 51, 100
3, 125184, Note_on_c, 1, 51, 80
3, 125372, Note_off_c, 1, 51, 100
3, 125376, Note_on_c, 1, 51, 80
3, 125564, Note_off_c, 1, 51, 100
3, 125568, Note_on_c, 1, 51, 80
3, 125568, Note_on_c, 1, 60, 80
3, 125568, Note_on_c, 1, 63, 80
3, 125756, Note_off_c, 1, 51, 100
3, 125760, Note_on_c, 1, 51, 80
3, 125948, Note_off_c, 1, 51, 100
3, 125952, Note_on_c, 1, 51, 80
3, 126140, Note_off_c, 1, 51, 100
3, 126144, Note_on_c, 1, 51, 80
3, 126332, Note_off_c, 1, 51, 100
3, 126336, Note_on_c, 1, 51, 80
3, 126524, Note_off_c, 1, 51, 100
3, 126528, Note_on_c, 1, 51, 80
3, 126716, Note_off_c, 1, 60, 100
3, 126716, Note_off_c, 1, 63, 100
3, 126716, Note_off_c, 1, 51, 100
3, 126720, Note_on_c, 1, 51, 80
3, 126720, Note_on_c, 1, 58, 80
3, 126720, Note_on_c, 1, 62, 80
3, 126908, Note_off_c, 1, 51, 100
3, 126912, Note_on_c, 1, 51, 80
3, 127100, Note_off_c, 1, 51, 100
3, 127104, Note_on_c, 1, 51, 80
3, 127292, Note_off_c, 1, 51, 100
3, 127296, Note_on_c, 1, 51, 80
3, 127484, Note_off_c, 1, 51, 100
3, 127488, Note_on_c, 1, 51, 80
3, 127676, Note_off_c, 1, 51, 100
3, 127680, Note_on_c, 1, 51, 80
3, 127868, Note_off_c, 1, 58, 100
3, 127868, Note_off_c, 1, 62, 100
3, 127868, Note_off_c, 1, 51, 100
3, 127872, Note_on_c, 1, 51, 80
3, 127872, Note_on_c, 1, 60, 80
3, 127872, Note_on_c, 1, 56, 80
3, 128060, Note_off_c, 1, 51, 100
3, 128064, Note_on_c, 1, 51, 80
3, 128252, Note_off_c, 1, 60, 100
3, 128252, Note_off_c, 1, 56, 100
3, 128252, Note_off_c, 1, 51, 100
3, 128256, Note_on_c, 1, 51, 80
3, 128256, Note_on_c, 1, 60, 80
3, 128256, Note_on_c, 1, 56, 80
3, 128444, Note_off_c, 1, 51, 100
3, 128448, Note_on_c, 1, 51, 80
3, 128636, Note_off_c, 1, 60, 100
3, 128636, Note_off_c, 1, 56, 100
3, 128636, Note_off_c, 1, 51, 100
3, 128640, Note_on_c, 1, 51, 80
3, 128640, Note_on_c, 1, 59, 80
3, 128640, Note_on_c, 1, 56, 80
3, 128828, Note_off_c, 1, 51, 100
3, 128832, Note_on_c, 1, 51, 80
3, 129020, Note_off_c, 1, 59, 100
3, 129020, Note_off_c, 1, 56, 100
3, 129020, Note_off_c, 1, 51, 100
3, 129024, Note_on_c, 1, 58, 80
3, 129024, Note_on_c, 1, 55, 80
3, 129024, Note_on_c, 1, 51, 80
3, 129404, Note_off_c, 1, 58, 100
3, 129404, Note_off_c, 1, 55, 100
3, 129404, Note_off_c, 1, 51, 100
3, 129984, Note_on_c, 1, 55, 80
3, 130172, Note_off_c, 1, 55, 100
3, 130176, Note_on_c, 1, 53, 80
3, 130364, Note_off_c, 1, 53, 100
3, 130368, Note_on_c, 1, 56, 80
3, 130556, Note_off_c, 1, 56, 100
3, 130560, Note_on_c, 1, 50, 80
3, 130748, Note_off_c, 1, 50, 100
3, 130752, Note_on_c, 1, 53, 80
3, 130940, Note_off_c, 1, 53, 100
3, 130944, Note_on_c, 1, 46, 80
3, 131132, Note_off_c, 1, 46, 100
3, 131136, Note_on_c, 1, 50, 80
3, 131324, Note_off_c, 1, 50, 100
3, 131328, Note_on_c, 1, 51, 80
3, 131708, Note_off_c, 1, 51, 100
3, 132096, Note_on_c, 1, 60, 80
3, 132188, Note_off_c, 1, 60, 100
3, 132192, Note_on_c, 1, 58, 80
3, 132284, Note_off_c, 1, 58, 100
3, 132288, Note_on_c, 1, 56, 80
3, 132380, Note_off_c, 1, 56, 100
3, 132384, Note_on_c, 1, 55, 80
3, 132476, Note_off_c, 1, 55, 100
3, 132480, Note_on_c, 1, 53, 80
3, 132668, Note_off_c, 1, 53, 100
3, 132672, Note_on_c, 1, 56, 80
3, 132860, Note_off_c, 1, 56, 100
3, 132864, Note_on_c, 1, 50, 80
3, 133052, Note_off_c, 1, 50, 100
3, 133056, Note_on_c, 1, 53, 80
3, 133244, Note_off_c, 1, 53, 100
3, 133248, Note_on_c, 1, 46, 80
3, 133436, Note_off_c, 1, 46, 100
3, 133440, Note_on_c, 1, 50, 80
3, 133628, Note_off_c, 1, 50, 100
3, 133632, Note_on_c, 1, 51, 80
3, 133820, Note_off_c, 1, 51, 100
3, 133824, Note_on_c, 1, 55, 80
3, 134012, Note_off_c, 1, 55, 100
3, 134016, Note_on_c, 1, 48, 80
3, 134204, Note_off_c, 1, 48, 100
3, 134208, Note_on_c, 1, 51, 80
3, 134396, Note_off_c, 1, 51, 100
3, 134400, Note_on_c, 1, 45, 80
3, 134588, Note_off_c, 1, 45, 100
3, 134592, Note_on_c, 1, 48, 80
3, 134780, Note_off_c, 1, 48, 100
3, 134784, Note_on_c, 1, 41, 80
3, 134972, Note_off_c, 1, 41, 100
3, 134976, Note_on_c, 1, 45, 80
3, 135164, Note_off_c, 1, 45, 100
3, 135168, Note_on_c, 1, 48, 80
3, 135356, Note_off_c, 1, 48, 100
3, 135360, Note_on_c, 1, 52, 80
3, 135548, Note_off_c, 1, 52, 100
3, 135552, Note_on_c, 1, 53, 80
3, 135740, Note_off_c, 1, 53, 100
3, 135744, Note_on_c, 1, 45, 80
3, 135932, Note_off_c, 1, 45, 100
3, 135936, Note_on_c, 1, 46, 80
3, 136124, Note_off_c, 1, 46, 100
3, 136128, Note_on_c, 1, 50, 80
3, 136316, Note_off_c, 1, 50, 100
3, 136320, Note_on_c, 1, 53, 80
3, 136508, Note_off_c, 1, 53, 100
3, 136512, Note_on_c, 1, 57, 80
3, 136700, Note_off_c, 1, 57, 100
3, 136704, Note_on_c, 1, 58, 80
3, 136892, Note_off_c, 1, 58, 100
3, 136896, Note_on_c, 1, 57, 80
3, 137084, Note_off_c, 1, 57, 100
3, 137088, Note_on_c, 1, 58, 80
3, 137276, Note_off_c, 1, 58, 100
3, 137280, Note_on_c, 1, 57, 80
3, 137468, Note_off_c, 1, 57, 100
3, 137472, Note_on_c, 1, 58, 80
3, 137660, Note_off_c, 1, 58, 100
3, 137664, Note_on_c, 1, 57, 80
3, 137852, Note_off_c, 1, 57, 100
3, 137856, Note_on_c, 1, 58, 80
3, 138044, Note_off_c, 1, 58, 100
3, 138048, Note_on_c, 1, 58, 80
3, 138236, Note_off_c, 1, 58, 100
3, 138240, Note_on_c, 1, 56, 80
3, 138240, Note_on_c, 1, 53, 80
3, 138240, Note_on_c, 1, 51, 80
3, 138240, Note_on_c, 1, 44, 80
3, 139388, Note_off_c, 1, 56, 100
3, 139388, Note_off_c, 1, 53, 100
3, 139388, Note_off_c, 1, 51, 100
3, 139388, Note_off_c, 1, 44, 100
3, 139392, Note_on_c, 1, 56, 80
3, 139392, Note_on_c, 1, 53, 80
3, 139392, Note_on_c, 1, 51, 80
3, 139392, Note_on_c, 1, 44, 80
3, 140540, Note_off_c, 1, 56, 100
3, 140540, Note_off_c, 1, 53, 100
3, 140540, Note_off_c, 1, 51, 100
3, 140540, Note_off_c, 1, 44, 100
3, 140544, Note_on_c, 1, 59, 80
3, 140544, Note_on_c, 1, 56, 80
3, 140924, Note_off_c, 1, 59, 100
3, 140924, Note_off_c, 1, 56, 100
3, 140928, Note_on_c, 1, 59, 80
3, 140928, Note_on_c, 1, 56, 80
3, 141308, Note_off_c, 1, 59, 100
3, 141308, Note_off_c, 1, 56, 100
3, 141312, Note_on_c, 1, 59, 80
3, 141312, Note_on_c, 1, 54, 80
3, 141692, Note_off_c, 1, 59, 100
3, 141692, Note_off_c, 1, 54, 100
3, 141696, Note_on_c, 1, 59, 80
3, 141696, Note_on_c, 1, 53, 80
3, 142844, Note_off_c, 1, 59, 100
3, 142844, Note_off_c, 1, 53, 100
3, 142848, Note_on_c, 1, 71, 80
3, 142848, Note_on_c, 1, 68, 80
3, 143228, Note_off_c, 1, 71, 100
3, 143228, Note_off_c, 1, 68, 100
3, 143232, Note_on_c, 1, 71, 80
3, 143232, Note_on_c, 1, 68, 80
3, 143612, Note_off_c, 1, 71, 100
3, 143612, Note_off_c, 1, 68, 100
3, 143616, Note_on_c, 1, 71, 80
3, 143616, Note_on_c, 1, 66, 80
3, 143996, Note_off_c, 1, 71, 100
3, 143996, Note_off_c, 1, 66, 100
3, 144000, Note_on_c, 1, 71, 80
3, 144000, Note_on_c, 1, 65, 80
3, 145148, Note_off_c, 1, 71, 100
3, 145148, Note_off_c, 1, 65, 100
3, 145152, Note_on_c, 1, 61, 80
3, 145152, Note_on_c, 1, 58, 80
3, 145532, Note_off_c, 1, 61, 100
3, 145532, Note_off_c, 1, 58, 100
3, 145536, Note_on_c, 1, 61, 80
3, 145536, Note_on_c, 1, 58, 80
3, 145916, Note_off_c, 1, 61, 100
3, 145916, Note_off_c, 1, 58, 100
3, 145920, Note_on_c, 1, 61, 80
3, 145920, Note_on_c, 1, 56, 80
3, 146300, Note_off_c, 1, 61, 100
3, 146300, Note_off_c, 1, 56, 100
3, 146304, Note_on_c, 1, 61, 80
3, 146304, Note_on_c, 1, 55, 80
3, 147452, Note_off_c, 1, 61, 100
3, 147452, Note_off_c, 1, 55, 100
3, 147456, Note_on_c, 1, 73, 80
3, 147456, Note_on_c, 1, 70, 80
3, 147836, Note_off_c, 1, 73, 100
3, 147836, Note_off_c, 1, 70, 100
3, 147840, Note_on_c, 1, 73, 80
3, 147840, Note_on_c, 1, 70, 80
3, 148220, Note_off_c, 1, 73, 100
3, 148220, Note_off_c, 1, 70, 100
3, 148224, Note_on_c, 1, 73, 80
3, 148224, Note_on_c, 1, 68, 80
3, 148604, Note_off_c, 1, 73, 100
3, 148604, Note_off_c, 1, 68, 100
3, 148608, Note_on_c, 1, 73, 80
3, 148608, Note_on_c, 1, 67, 80
3, 149756, Note_off_c, 1, 73, 100
3, 149756, Note_off_c, 1, 67, 100
3, 150144, Note_on_c, 1, 70, 80
3, 150144, Note_on_c, 1, 66, 80
3, 150524, Note_off_c, 1, 70, 100
3, 150524, Note_off_c, 1, 66, 100
3, 151296, Note_on_c, 1, 65, 80
3, 151296, Note_on_c, 1, 69, 80
3, 151676, Note_off_c, 1, 65, 100
3, 151676, Note_off_c, 1, 69, 100
3, 151680, Note_on_c, 1, 53, 80
3, 152060, Note_off_c, 1, 53, 100
3, 152064, Note_on_c, 1, 41, 80
3, 152444, Note_off_c, 1, 41, 100
3, 152448, Note_on_c, 1, 29, 80
3, 152828, Note_off_c, 1, 29, 100
3, 153216, Control_c, 1, 64, 127
3, 153216, Note_on_c, 1, 50, 80
3, 153308, Note_off_c, 1, 50, 100
3, 153312, Note_on_c, 1, 58, 80
3, 153404, Note_off_c, 1, 58, 100
3, 153408, Note_on_c, 1, 53, 80
3, 153500, Note_off_c, 1, 53, 100
3, 153504, Note_on_c, 1, 58, 80
3, 153592, Control_c, 1, 64, 0
3, 153596, Note_off_c, 1, 58, 100
3, 153600, Control_c, 1, 64, 127
3, 153600, Note_on_c, 1, 50, 80
3, 153692, Note_off_c, 1, 50, 100
3, 153696, Note_on_c, 1, 58, 80
3, 153788, Note_off_c, 1, 58, 100
3, 153792, Note_on_c, 1, 53, 80
3, 153884, Note_off_c, 1, 53, 100
3, 153888, Note_on_c, 1, 58, 80
3, 153976, Control_c, 1, 64, 0
3, 153980, Note_off_c, 1, 58, 100
3, 153984, Control_c, 1, 64, 127
3, 153984, Note_on_c, 1, 50, 80
3, 154076, Note_off_c, 1, 50, 100
3, 154080, Note_on_c, 1, 58, 80
3, 154172, Note_off_c, 1, 58, 100
3, 154176, Note_on_c, 1, 53, 80
3, 154268, Note_off_c, 1, 53, 100
3, 154272, Note_on_c, 1, 58, 80
3, 154360, Control_c, 1, 64, 0
3, 154364, Note_off_c, 1, 58, 100
3, 154368, Control_c, 1, 64, 127
3, 154368, Note_on_c, 1, 50, 80
3, 154460, Note_off_c, 1, 50, 100
3, 154464, Note_on_c, 1, 58, 80
3, 154556, Note_off_c, 1, 58, 100
3, 154560, Note_on_c, 1, 53, 80
3, 154652, Note_off_c, 1, 53, 100
3, 154656, Note_on_c, 1, 58, 80
3, 154744, Control_c, 1, 64, 0
3, 154748, Note_off_c, 1, 58, 100
3, 154752, Control_c, 1, 64, 127
3, 154752, Note_on_c, 1, 50, 80
3, 154844, Note_off_c, 1, 50, 100
3, 154848, Note_on_c, 1, 58, 80
3, 154940, Note_off_c, 1, 58, 100
3, 154944, Note_on_c, 1, 53, 80
3, 155036, Note_off_c, 1, 53, 100
3, 155040, Note_on_c, 1, 58, 80
3, 155128, Control_c, 1, 64, 0
3, 155132, Note_off_c, 1, 58, 100
3, 155136, Control_c, 1, 64, 127
3, 155136, Note_on_c, 1, 50, 80
3, 155228, Note_off_c, 1, 50, 100
3, 155232, Note_on_c, 1, 58, 80
3, 155324, Note_off_c, 1, 58, 100
3, 155328, Note_on_c, 1, 53, 80
3, 155420, Note_off_c, 1, 53, 100
3, 155424, Note_on_c, 1, 58, 80
3, 155512, Control_c, 1, 64, 0
3, 155516, Note_off_c, 1, 58, 100
3, 155520, Control_c, 1, 64, 127
3, 155520, Note_on_c, 1, 51, 80
3, 155612, Note_off_c, 1, 51, 100
3, 155616, Note_on_c, 1, 58, 80
3, 155708, Note_off_c, 1, 58, 100
3, 155712, Note_on_c, 1, 55, 80
3, 155804, Note_off_c, 1, 55, 100
3, 155808, Note_on_c, 1, 58, 80
3, 155896, Control_c, 1, 64, 0
3, 155900, Note_off_c, 1, 58, 100
3, 155904, Control_c, 1, 64, 127
3, 155904, Note_on_c, 1, 51, 80
3, 155996, Note_off_c, 1, 51, 100
3, 156000, Note_on_c, 1, 58, 80
3, 156092, Note_off_c, 1, 58, 100
3, 156096, Note_on_c, 1, 55, 80
3, 156188, Note_off_c, 1, 55, 100
3, 156192, Note_on_c, 1, 58, 80
3, 156280, Control_c, 1, 64, 0
3, 156284, Note_off_c, 1, 58, 100
3, 156288, Control_c, 1, 64, 127
3, 156288, Note_on_c, 1, 51, 80
3, 156380, Note_off_c, 1, 51, 100
3, 156384, Note_on_c, 1, 59, 80
3, 156476, Note_off_c, 1, 59, 100
3, 156480, Note_on_c, 1, 55, 80
3, 156572, Note_off_c, 1, 55, 100
3, 156576, Note_on_c, 1, 59, 80
3, 156664, Control_c, 1, 64, 0
3, 156668, Note_off_c, 1, 59, 100
3, 156672, Control_c, 1, 64, 127
3, 156672, Note_on_c, 1, 51, 80
3, 156764, Note_off_c, 1, 51, 100
3, 156768, Note_on_c, 1, 60, 80
3, 156860, Note_off_c, 1, 60, 100
3, 156864, Note_on_c, 1, 55, 80
3, 156956, Note_off_c, 1, 55, 100
3, 156960, Note_on_c, 1, 60, 80
3, 157048, Control_c, 1, 64, 0
3, 157052, Note_off_c, 1, 60, 100
3, 157056, Control_c, 1, 64, 127
3, 157056, Note_on_c, 1, 51, 80
3, 157148, Note_off_c, 1, 51, 100
3, 157152, Note_on_c, 1, 60, 80
3, 157244, Note_off_c, 1, 60, 100
3, 157248, Note_on_c, 1, 55, 80
3, 157340, Note_off_c, 1, 55, 100
3, 157344, Note_on_c, 1, 60, 80
3, 157432, Control_c, 1, 64, 0
3, 157436, Note_off_c, 1, 60, 100
3, 157440, Control_c, 1, 64, 127
3, 157440, Note_on_c, 1, 52, 80
3, 157532, Note_off_c, 1, 52, 100
3, 157536, Note_on_c, 1, 60, 80
3, 157628, Note_off_c, 1, 60, 100
3, 157632, Note_on_c, 1, 58, 80
3, 157724, Note_off_c, 1, 58, 100
3, 157728, Note_on_c, 1, 60, 80
3, 157816, Control_c, 1, 64, 0
3, 157820, Note_off_c, 1, 60, 100
3, 157824, Control_c, 1, 64, 127
3, 157824, Note_on_c, 1, 50, 80
3, 157916, Note_off_c, 1, 50, 100
3, 157920, Note_on_c, 1, 60, 80
3, 158012, Note_off_c, 1, 60, 100
3, 158016, Note_on_c, 1, 57, 80
3, 158108, Note_off_c, 1, 57, 100
3, 158112, Note_on_c, 1, 60, 80
3, 158200, Control_c, 1, 64, 0
3, 158204, Note_off_c, 1, 60, 100
3, 158208, Control_c, 1, 64, 127
3, 158208, Note_on_c, 1, 50, 80
3, 158300, Note_off_c, 1, 50, 100
3, 158304, Note_on_c, 1, 60, 80
3, 158396, Note_off_c, 1, 60, 100
3, 158400, Note_on_c, 1, 57, 80
3, 158492, Note_off_c, 1, 57, 100
3, 158496, Note_on_c, 1, 60, 80
3, 158584, Control_c, 1, 64, 0
3, 158588, Note_off_c, 1, 60, 100
3, 158592, Control_c, 1, 64, 127
3, 158592, Note_on_c, 1, 50, 80
3, 158684, Note_off_c, 1, 50, 100
3, 158688, Note_on_c, 1, 60, 80
3, 158780, Note_off_c, 1, 60, 100
3, 158784, Note_on_c, 1, 57, 80
3, 158876, Note_off_c, 1, 57, 100
3, 158880, Note_on_c, 1, 60, 80
3, 158968, Control_c, 1, 64, 0
3, 158972, Note_off_c, 1, 60, 100
3, 158976, Control_c, 1, 64, 127
3, 158976, Note_on_c, 1, 53, 80
3, 159068, Note_off_c, 1, 53, 100
3, 159072, Note_on_c, 1, 63, 80
3, 159164, Note_off_c, 1, 63, 100
3, 159168, Note_on_c, 1, 60, 80
3, 159260, Note_off_c, 1, 60, 100
3, 159264, Note_on_c, 1, 63, 80
3, 159352, Control_c, 1, 64, 0
3, 159356, Note_off_c, 1, 63, 100
3, 159360, Control_c, 1, 64, 127
3, 159360, Note_on_c, 1, 53, 80
3, 159452, Note_off_c, 1, 53, 100
3, 159456, Note_on_c, 1, 63, 80
3, 159548, Note_off_c, 1, 63, 100
3, 159552, Note_on_c, 1, 57, 80
3, 159644, Note_off_c, 1, 57, 100
3, 159648, Note_on_c, 1, 63, 80
3, 159736, Control_c, 1, 64, 0
3, 159740, Note_off_c, 1, 63, 100
3, 159744, Control_c, 1, 64, 127
3, 159744, Note_on_c, 1, 54, 80
3, 159836, Note_off_c, 1, 54, 100
3, 159840, Note_on_c, 1, 63, 80
3, 159932, Note_off_c, 1, 63, 100
3, 159936, Note_on_c, 1, 57, 80
3, 160028, Note_off_c, 1, 57, 100
3, 160032, Note_on_c, 1, 63, 80
3, 160120, Control_c, 1, 64, 0
3, 160124, Note_off_c, 1, 63, 100
3, 160128, Control_c, 1, 64, 127
3, 160128, Note_on_c, 1, 55, 80
3, 160220, Note_off_c, 1, 55, 100
3, 160224, Note_on_c, 1, 62, 80
3, 160316, Note_off_c, 1, 62, 100
3, 160320, Note_on_c, 1, 58, 80
3, 160412, Note_off_c, 1, 58, 100
3, 160416, Note_on_c, 1, 62, 80
3, 160504, Control_c, 1, 64, 0
3, 160508, Note_off_c, 1, 62, 100
3, 160512, Control_c, 1, 64, 127
3, 160512, Note_on_c, 1, 51, 80
3, 160604, Note_off_c, 1, 51, 100
3, 160608, Note_on_c, 1, 60, 80
3, 160700, Note_off_c, 1, 60, 100
3, 160704, Note_on_c, 1, 55, 80
3, 160796, Note_off_c, 1, 55, 100
3, 160800, Note_on_c, 1, 60, 80
3, 160888, Control_c, 1, 64, 0
3, 160892, Note_off_c, 1, 60, 100
3, 160896, Control_c, 1, 64, 127
3, 160896, Note_on_c, 1, 53, 80
3, 160988, Note_off_c, 1, 53, 100
3, 160992, Note_on_c, 1, 60, 80
3, 161084, Note_off_c, 1, 60, 100
3, 161088, Note_on_c, 1, 57, 80
3, 161180, Note_off_c, 1, 57, 100
3, 161184, Note_on_c, 1, 63, 80
3, 161272, Control_c, 1, 64, 0
3, 161276, Note_off_c, 1, 63, 100
3, 161280, Note_on_c, 1, 58, 80
3, 161280, Note_on_c, 1, 46, 80
3, 161660, Note_off_c, 1, 58, 100
3, 161660, Note_off_c, 1, 46, 100
3, 165888, Control_c, 1, 64, 127
3, 165888, Note_on_c, 1, 50, 80
3, 165980, Note_off_c, 1, 50, 100
3, 165984, Note_on_c, 1, 58, 80
3, 166076, Note_off_c, 1, 58, 100
3, 166080, Note_on_c, 1, 53, 80
3, 166172, Note_off_c, 1, 53, 100
3, 166176, Note_on_c, 1, 58, 80
3, 166264, Control_c, 1, 64, 0
3, 166268, Note_off_c, 1, 58, 100
3, 166272, Control_c, 1, 64, 127
3, 166272, Note_on_c, 1, 50, 80
3, 166364, Note_off_c, 1, 50, 100
3, 166368, Note_on_c, 1, 58, 80
3, 166460, Note_off_c, 1, 58, 100
3, 166464, Note_on_c, 1, 53, 80
3, 166556, Note_off_c, 1, 53, 100
3, 166560, Note_on_c, 1, 58, 80
3, 166648, Control_c, 1, 64, 0
3, 166652, Note_off_c, 1, 58, 100
3, 166656, Control_c, 1, 64, 127
3, 166656, Note_on_c, 1, 50, 80
3, 166748, Note_off_c, 1, 50, 100
3, 166752, Note_on_c, 1, 58, 80
3, 166844, Note_off_c, 1, 58, 100
3, 166848, Note_on_c, 1, 53, 80
3, 166940, Note_off_c, 1, 53, 100
3, 166944, Note_on_c, 1, 58, 80
3, 167032, Control_c, 1, 64, 0
3, 167036, Note_off_c, 1, 58, 100
3, 167040, Control_c, 1, 64, 127
3, 167040, Note_on_c, 1, 50, 80
3, 167132, Note_off_c, 1, 50, 100
3, 167136, Note_on_c, 1, 58, 80
3, 167228, Note_off_c, 1, 58, 100
3, 167232, Note_on_c, 1, 53, 80
3, 167324, Note_off_c, 1, 53, 100
3, 167328, Note_on_c, 1, 58, 80
3, 167416, Control_c, 1, 64, 0
3, 167420, Note_off_c, 1, 58, 100
3, 167424, Control_c, 1, 64, 127
3, 167424, Note_on_c, 1, 50, 80
3, 167516, Note_off_c, 1, 50, 100
3, 167520, Note_on_c, 1, 58, 80
3, 167612, Note_off_c, 1, 58, 100
3, 167616, Note_on_c, 1, 53, 80
3, 167708, Note_off_c, 1, 53, 100
3, 167712, Note_on_c, 1, 58, 80
3, 167800, Control_c, 1, 64, 0
3, 167804, Note_off_c, 1, 58, 100
3, 167808, Control_c, 1, 64, 127
3, 167808, Note_on_c, 1, 50, 80
3, 167900, Note_off_c, 1, 50, 100
3, 167904, Note_on_c, 1, 58, 80
3, 167996, Note_off_c, 1, 58, 100
3, 168000, Note_on_c, 1, 53, 80
3, 168092, Note_off_c, 1, 53, 100
3, 168096, Note_on_c, 1, 58, 80
3, 168184, Control_c, 1, 64, 0
3, 168188, Note_off_c, 1, 58, 100
3, 168192, Control_c, 1, 64, 127
3, 168192, Note_on_c, 1, 51, 80
3, 168284, Note_off_c, 1, 51, 100
3, 168288, Note_on_c, 1, 58, 80
3, 168380, Note_off_c, 1, 58, 100
3, 168384, Note_on_c, 1, 55, 80
3, 168476, Note_off_c, 1, 55, 100
3, 168480, Note_on_c, 1, 58, 80
3, 168568, Control_c, 1, 64, 0
3, 168572, Note_off_c, 1, 58, 100
3, 168576, Control_c, 1, 64, 127
3, 168576, Note_on_c, 1, 51, 80
3, 168668, Note_off_c, 1, 51, 100
3, 168672, Note_on_c, 1, 58, 80
3, 168764, Note_off_c, 1, 58, 100
3, 168768, Note_on_c, 1, 55, 80
3, 168860, Note_off_c, 1, 55, 100
3, 168864, Note_on_c, 1, 58, 80
3, 168952, Control_c, 1, 64, 0
3, 168956, Note_off_c, 1, 58, 100
3, 168960, Control_c, 1, 64, 127
3, 168960, Note_on_c, 1, 51, 80
3, 169052, Note_off_c, 1, 51, 100
3, 169056, Note_on_c, 1, 59, 80
3, 169148, Note_off_c, 1, 59, 100
3, 169152, Note_on_c, 1, 55, 80
3, 169244, Note_off_c, 1, 55, 100
3, 169248, Note_on_c, 1, 59, 80
3, 169336, Control_c, 1, 64, 0
3, 169340, Note_off_c, 1, 59, 100
3, 169344, Control_c, 1, 64, 127
3, 169344, Note_on_c, 1, 51, 80
3, 169436, Note_off_c, 1, 51, 100
3, 169440, Note_on_c, 1, 60, 80
3, 169532, Note_off_c, 1, 60, 100
3, 169536, Note_on_c, 1, 55, 80
3, 169628, Note_off_c, 1, 55, 100
3, 169632, Note_on_c, 1, 60, 80
3, 169720, Control_c, 1, 64, 0
3, 169724, Note_off_c, 1, 60, 100
3, 169728, Control_c, 1, 64, 127
3, 169728, Note_on_c, 1, 51, 80
3, 169820, Note_off_c, 1, 51, 100
3, 169824, Note_on_c, 1, 60, 80
3, 169916, Note_off_c, 1, 60, 100
3, 169920, Note_on_c, 1, 55, 80
3, 170012, Note_off_c, 1, 55, 100
3, 170016, Note_on_c, 1, 60, 80
3, 170104, Control_c, 1, 64, 0
3, 170108, Note_off_c, 1, 60, 100
3, 170112, Control_c, 1, 64, 127
3, 170112, Note_on_c, 1, 52, 80
3, 170204, Note_off_c, 1, 52, 100
3, 170208, Note_on_c, 1, 60, 80
3, 170300, Note_off_c, 1, 60, 100
3, 170304, Note_on_c, 1, 58, 80
3, 170396, Note_off_c, 1, 58, 100
3, 170400, Note_on_c, 1, 60, 80
3, 170488, Control_c, 1, 64, 0
3, 170492, Note_off_c, 1, 60, 100
3, 170496, Control_c, 1, 64, 127
3, 170496, Note_on_c, 1, 50, 80
3, 170588, Note_off_c, 1, 50, 100
3, 170592, Note_on_c, 1, 60, 80
3, 170684, Note_off_c, 1, 60, 100
3, 170688, Note_on_c, 1, 57, 80
3, 170780, Note_off_c, 1, 57, 100
3, 170784, Note_on_c, 1, 60, 80
3, 170872, Control_c, 1, 64, 0
3, 170876, Note_off_c, 1, 60, 100
3, 170880, Control_c, 1, 64, 127
3, 170880, Note_on_c, 1, 50, 80
3, 170972, Note_off_c, 1, 50, 100
3, 170976, Note_on_c, 1, 60, 80
3, 171068, Note_off_c, 1, 60, 100
3, 171072, Note_on_c, 1, 57, 80
3, 171164, Note_off_c, 1, 57, 100
3, 171168, Note_on_c, 1, 60, 80
3, 171256, Control_c, 1, 64, 0
3, 171260, Note_off_c, 1, 60, 100
3, 171264, Control_c, 1, 64, 127
3, 171264, Note_on_c, 1, 50, 80
3, 171356, Note_off_c, 1, 50, 100
3, 171360, Note_on_c, 1, 60, 80
3, 171452, Note_off_c, 1, 60, 100
3, 171456, Note_on_c, 1, 57, 80
3, 171548, Note_off_c, 1, 57, 100
3, 171552, Note_on_c, 1, 60, 80
3, 171640, Control_c, 1, 64, 0
3, 171644, Note_off_c, 1, 60, 100
3, 171648, Control_c, 1, 64, 127
3, 171648, Note_on_c, 1, 53, 80
3, 171740, Note_off_c, 1, 53, 100
3, 171744, Note_on_c, 1, 63, 80
3, 171836, Note_off_c, 1, 63, 100
3, 171840, Note_on_c, 1, 60, 80
3, 171932, Note_off_c, 1, 60, 100
3, 171936, Note_on_c, 1, 63, 80
3, 172024, Control_c, 1, 64, 0
3, 172028, Note_off_c, 1, 63, 100
3, 172032, Control_c, 1, 64, 127
3, 172032, Note_on_c, 1, 53, 80
3, 172124, Note_off_c, 1, 53, 100
3, 172128, Note_on_c, 1, 63, 80
3, 172220, Note_off_c, 1, 63, 100
3, 172224, Note_on_c, 1, 57, 80
3, 172316, Note_off_c, 1, 57, 100
3, 172320, Note_on_c, 1, 63, 80
3, 172408, Control_c, 1, 64, 0
3, 172412, Note_off_c, 1, 63, 100
3, 172416, Control_c, 1, 64, 127
3, 172416, Note_on_c, 1, 54, 80
3, 172508, Note_off_c, 1, 54, 100
3, 172512, Note_on_c, 1, 63, 80
3, 172604, Note_off_c, 1, 63, 100
3, 172608, Note_on_c, 1, 57, 80
3, 172700, Note_off_c, 1, 57, 100
3, 172704, Note_on_c, 1, 63, 80
3, 172792, Control_c, 1, 64, 0
3, 172796, Note_off_c, 1, 63, 100
3, 172800, Control_c, 1, 64, 127
3, 172800, Note_on_c, 1, 55, 80
3, 172892, Note_off_c, 1, 55, 100
3, 172896, Note_on_c, 1, 62, 80
3, 172988, Note_off_c, 1, 62, 100
3, 172992, Note_on_c, 1, 58, 80
3, 173084, Note_off_c, 1, 58, 100
3, 173088, Note_on_c, 1, 62, 80
3, 173176, Control_c, 1, 64, 0
3, 173180, Note_off_c, 1, 62, 100
3, 173184, Control_c, 1, 64, 127
3, 173184, Note_on_c, 1, 51, 80
3, 173276, Note_off_c, 1, 51, 100
3, 173280, Note_on_c, 1, 60, 80
3, 173372, Note_off_c, 1, 60, 100
3, 173376, Note_on_c, 1, 55, 80
3, 173468, Note_off_c, 1, 55, 100
3, 173472, Note_on_c, 1, 60, 80
3, 173560, Control_c, 1, 64, 0
3, 173564, Note_off_c, 1, 60, 100
3, 173568, Control_c, 1, 64, 127
3, 173568, Note_on_c, 1, 53, 80
3, 173660, Note_off_c, 1, 53, 100
3, 173664, Note_on_c, 1, 60, 80
3, 173756, Note_off_c, 1, 60, 100
3, 173760, Note_on_c, 1, 57, 80
3, 173852, Note_off_c, 1, 57, 100
3, 173856, Note_on_c, 1, 63, 80
3, 173944, Control_c, 1, 64, 0
3, 173948, Note_off_c, 1, 63, 100
3, 173952, Note_on_c, 1, 46, 80
3, 174044, Note_off_c, 1, 46, 100
3, 174048, Note_on_c, 1, 50, 80
3, 174140, Note_off_c, 1, 50, 100
3, 174144, Note_on_c, 1, 51, 80
3, 174236, Note_off_c, 1, 51, 100
3, 174240, Note_on_c, 1, 53, 80
3, 174332, Note_off_c, 1, 53, 100
3, 175296, Note_on_c, 1, 53, 80
3, 175296, Note_on_c, 1, 48, 80
3, 175296, Note_on_c, 1, 45, 80
3, 175484, Note_off_c, 1, 53, 100
3, 175484, Note_off_c, 1, 48, 100
3, 175484, Note_off_c, 1, 45, 100
3, 175488, Note_on_c, 1, 53, 80
3, 175488, Note_on_c, 1, 48, 80
3, 175488, Note_on_c, 1, 45, 80
3, 175676, Note_off_c, 1, 53, 100
3, 175676, Note_off_c, 1, 48, 100
3, 175676, Note_off_c, 1, 45, 100
3, 175680, Note_on_c, 1, 53, 80
3, 175680, Note_on_c, 1, 48, 80
3, 175680, Note_on_c, 1, 45, 80
3, 175868, Note_off_c, 1, 53, 100
3, 175868, Note_off_c, 1, 48, 100
3, 175868, Note_off_c, 1, 45, 100
3, 175872, Note_on_c, 1, 53, 80
3, 175872, Note_on_c, 1, 48, 80
3, 175872, Note_on_c, 1, 45, 80
3, 176060, Note_off_c, 1, 53, 100
3, 176060, Note_off_c, 1, 48, 100
3, 176060, Note_off_c, 1, 45, 100
3, 176064, Note_on_c, 1, 53, 80
3, 176064, Note_on_c, 1, 48, 80
3, 176064, Note_on_c, 1, 45, 80
3, 176252, Note_off_c, 1, 53, 100
3, 176252, Note_off_c, 1, 48, 100
3, 176252, Note_off_c, 1, 45, 100
3, 176256, Note_on_c, 1, 58, 80
3, 176348, Note_off_c, 1, 58, 100
3, 176352, Note_on_c, 1, 62, 80
3, 176444, Note_off_c, 1, 62, 100
3, 176448, Note_on_c, 1, 63, 80
3, 176540, Note_off_c, 1, 63, 100
3, 176544, Note_on_c, 1, 65, 80
3, 176636, Note_off_c, 1, 65, 100
3, 177600, Note_on_c, 1, 65, 80
3, 177600, Note_on_c, 1, 60, 80
3, 177600, Note_on_c, 1, 57, 80
3, 177788, Note_off_c, 1, 65, 100
3, 177788, Note_off_c, 1, 60, 100
3, 177788, Note_off_c, 1, 57, 100
3, 177792, Note_on_c, 1, 65, 80
3, 177792, Note_on_c, 1, 60, 80
3, 177792, Note_on_c, 1, 57, 80
3, 177980, Note_off_c, 1, 65, 100
3, 177980, Note_off_c, 1, 60, 100
3, 177980, Note_off_c, 1, 57, 100
3, 177984, Note_on_c, 1, 65, 80
3, 177984, Note_on_c, 1, 60, 80
3, 177984, Note_on_c, 1, 57, 80
3, 178172, Note_off_c, 1, 65, 100
3, 178172, Note_off_c, 1, 60, 100
3, 178172, Note_off_c, 1, 57, 100
3, 178176, Note_on_c, 1, 65, 80
3, 178176, Note_on_c, 1, 60, 80
3, 178176, Note_on_c, 1, 57, 80
3, 178364, Note_off_c, 1, 65, 100
3, 178364, Note_off_c, 1, 60, 100
3, 178364, Note_off_c, 1, 57, 100
3, 178368, Note_on_c, 1, 65, 80
3, 178368, Note_on_c, 1, 60, 80
3, 178368, Note_on_c, 1, 57, 80
3, 178556, Note_off_c, 1, 65, 100
3, 178556, Note_off_c, 1, 60, 100
3, 178556, Note_off_c, 1, 57, 100
3, 178752, Note_on_c, 1, 62, 80
3, 178752, Note_on_c, 1, 58, 80
3, 178940, Note_off_c, 1, 62, 100
3, 178940, Note_off_c, 1, 58, 100
3, 179136, Note_on_c, 1, 62, 81
3, 179136, Note_on_c, 1, 57, 81
3, 179136, Note_on_c, 1, 54, 81
3, 179324, Note_off_c, 1, 62, 100
3, 179324, Note_off_c, 1, 57, 100
3, 179324, Note_off_c, 1, 54, 100
3, 179520, Note_on_c, 1, 62, 84
3, 179520, Note_on_c, 1, 58, 84
3, 179520, Note_on_c, 1, 55, 84
3, 179708, Note_off_c, 1, 62, 100
3, 179708, Note_off_c, 1, 58, 100
3, 179708, Note_off_c, 1, 55, 100
3, 179904, Note_on_c, 1, 58, 87
3, 179904, Note_on_c, 1, 53, 87
3, 179904, Note_on_c, 1, 50, 87
3, 180092, Note_off_c, 1, 58, 100
3, 180092, Note_off_c, 1, 53, 100
3, 180092, Note_off_c, 1, 50, 100
3, 180288, Note_on_c, 1, 58, 90
3, 180288, Note_on_c, 1, 55, 90
3, 180288, Note_on_c, 1, 51, 90
3, 180476, Note_off_c, 1, 58, 100
3, 180476, Note_off_c, 1, 55, 100
3, 180476, Note_off_c, 1, 51, 100
3, 180672, Note_on_c, 1, 55, 92
3, 180672, Note_on_c, 1, 50, 92
3, 180672, Note_on_c, 1, 47, 92
3, 180860, Note_off_c, 1, 55, 100
3, 180860, Note_off_c, 1, 50, 100
3, 180860, Note_off_c, 1, 47, 100
3, 181056, Note_on_c, 1, 55, 95
3, 181056, Note_on_c, 1, 52, 95
3, 181056, Note_on_c, 1, 48, 95
3, 181244, Note_off_c, 1, 55, 100
3, 181244, Note_off_c, 1, 52, 100
3, 181244, Note_off_c, 1, 48, 100
3, 181440, Note_on_c, 1, 53, 98
3, 181440, Note_on_c, 1, 48, 98
3, 181440, Note_on_c, 1, 45, 98
3, 181628, Note_off_c, 1, 53, 100
3, 181628, Note_off_c, 1, 48, 100
3, 181628, Note_off_c, 1, 45, 100
3, 181824, Note_on_c, 1, 53, 101
3, 181824, Note_on_c, 1, 50, 101
3, 181824, Note_on_c, 1, 46, 101
3, 182012, Note_off_c, 1, 53, 100
3, 182012, Note_off_c, 1, 50, 100
3, 182012, Note_off_c, 1, 46, 100
3, 182208, Note_on_c, 1, 53, 104
3, 182208, Note_on_c, 1, 48, 104
3, 182208, Note_on_c, 1, 45, 104
3, 182396, Note_off_c, 1, 53, 100
3, 182396, Note_off_c, 1, 48, 100
3, 182396, Note_off_c, 1, 45, 100
3, 182592, Note_on_c, 1, 53, 107
3, 182592, Note_on_c, 1, 50, 107
3, 182592, Note_on_c, 1, 46, 107
3, 182780, Note_off_c, 1, 53, 100
3, 182780, Note_off_c, 1, 50, 100
3, 182780, Note_off_c, 1, 46, 100
3, 182976, Note_on_c, 1, 53, 110
3, 182976, Note_on_c, 1, 48, 110
3, 182976, Note_on_c, 1, 45, 110
3, 183164, Note_off_c, 1, 53, 100
3, 183164, Note_off_c, 1, 48, 100
3, 183164, Note_off_c, 1, 45, 100
3, 183168, Note_on_c, 1, 53, 80
3, 183168, Note_on_c, 1, 50, 80
3, 183168, Note_on_c, 1, 46, 80
3, 183356, Note_off_c, 1, 53, 100
3, 183356, Note_off_c, 1, 50, 100
3, 183356, Note_off_c, 1, 46, 100
3, 186816, Note_on_c, 1, 65, 80
3, 187004, Note_off_c, 1, 65, 100
3, 187008, Note_on_c, 1, 70, 80
3, 187196, Note_off_c, 1, 70, 100
3, 187200, Note_on_c, 1, 74, 80
3, 187388, Note_off_c, 1, 74, 100
3, 187392, Note_on_c, 1, 77, 80
3, 187580, Note_off_c, 1, 77, 100
3, 188352, Note_on_c, 1, 41, 110
3, 188540, Note_off_c, 1, 41, 100
3, 188544, Note_on_c, 1, 46, 110
3, 188732, Note_off_c, 1, 46, 100
3, 188736, Note_on_c, 1, 50, 110
3, 188924, Note_off_c, 1, 50, 100
3, 188928, Note_on_c, 1, 53, 110
3, 189308, Note_off_c, 1, 53, 100
3, 190272, Note_on_c, 1, 53, 81
3, 190460, Note_off_c, 1, 53, 100
3, 190464, Note_on_c, 1, 57, 82
3, 190652, Note_off_c, 1, 57, 100
3, 190656, Note_on_c, 1, 60, 84
3, 190844, Note_off_c, 1, 60, 100
3, 190848, Note_on_c, 1, 63, 85
3, 191036, Note_off_c, 1, 63, 100
3, 191040, Note_on_c, 1, 41, 86
3, 191228, Note_off_c, 1, 41, 100
3, 191232, Note_on_c, 1, 45, 88
3, 191420, Note_off_c, 1, 45, 100
3, 191424, Note_on_c, 1, 48, 89
3, 191612, Note_off_c, 1, 48, 100
3, 191616, Note_on_c, 1, 51, 90
3, 191804, Note_off_c, 1, 51, 100
3, 191808, Note_on_c, 1, 42, 92
3, 191996, Note_off_c, 1, 42, 100
3, 192000, Note_on_c, 1, 45, 93
3, 192188, Note_off_c, 1, 45, 100
3, 192192, Note_on_c, 1, 48, 94
3, 192380, Note_off_c, 1, 48, 100
3, 192384, Note_on_c, 1, 51, 96
3, 192572, Note_off_c, 1, 51, 100
3, 192576, Note_on_c, 1, 41, 97
3, 192764, Note_off_c, 1, 41, 100
3, 192768, Note_on_c, 1, 45, 98
3, 192956, Note_off_c, 1, 45, 100
3, 192960, Note_on_c, 1, 48, 100
3, 193148, Note_off_c, 1, 48, 100
3, 193152, Note_on_c, 1, 51, 101
3, 193340, Note_off_c, 1, 51, 100
3, 193344, Note_on_c, 1, 53, 102
3, 193532, Note_off_c, 1, 53, 100
3, 193536, Note_on_c, 1, 57, 104
3, 193724, Note_off_c, 1, 57, 100
3, 193728, Note_on_c, 1, 60, 105
3, 193916, Note_off_c, 1, 60, 100
3, 193920, Note_on_c, 1, 63, 106
3, 194108, Note_off_c, 1, 63, 100
3, 194112, Note_on_c, 1, 53, 108
3, 194300, Note_off_c, 1, 53, 100
3, 194304, Note_on_c, 1, 63, 109
3, 194492, Note_off_c, 1, 63, 100
3, 194496, Note_on_c, 1, 53, 110
3, 194684, Note_off_c, 1, 53, 100
3, 194688, Note_on_c, 1, 62, 80
3, 194688, Note_on_c, 1, 58, 80
3, 195068, Note_off_c, 1, 62, 100
3, 195068, Note_off_c, 1, 58, 100
3, 195840, Note_on_c, 1, 58, 80
3, 195840, Note_on_c, 1, 55, 80
3, 196988, Note_off_c, 1, 58, 100
3, 196988, Note_off_c, 1, 55, 100
3, 196992, Note_on_c, 1, 60, 80
3, 196992, Note_on_c, 1, 51, 80
3, 198140, Note_off_c, 1, 60, 100
3, 198140, Note_off_c, 1, 51, 100
3, 198144, Note_on_c, 1, 60, 80
3, 198144, Note_on_c, 1, 53, 80
3, 198524, Note_off_c, 1, 60, 100
3, 198524, Note_off_c, 1, 53, 100
3, 198528, Note_on_c, 1, 60, 80
3, 198528, Note_on_c, 1, 53, 80
3, 198908, Note_off_c, 1, 60, 100
3, 198908, Note_off_c, 1, 53, 100
3, 198912, Note_on_c, 1, 53, 80
3, 198912, Note_on_c, 1, 60, 80
3, 199100, Note_off_c, 1, 60, 100
3, 199104, Note_on_c, 1, 57, 80
3, 199292, Note_off_c, 1, 53, 100
3, 199292, Note_off_c, 1, 57, 100
3, 199296, Note_on_c, 1, 58, 80
3, 199296, Note_on_c, 1, 46, 80
3, 199484, Note_off_c, 1, 58, 100
3, 199484, Note_off_c, 1, 46, 100
3, 199488, Note_on_c, 1, 58, 80
3, 199676, Note_off_c, 1, 58, 100
3, 199680, Note_on_c, 1, 59, 80
3, 199868, Note_off_c, 1, 59, 100
3, 199872, Note_on_c, 1, 60, 80
3, 200060, Note_off_c, 1, 60, 100
3, 200064, Note_on_c, 1, 61, 80
3, 200252, Note_off_c, 1, 61, 100
3, 200256, Note_on_c, 1, 62, 80
3, 200444, Note_off_c, 1, 62, 100
3, 200448, Note_on_c, 1, 63, 80
3, 201596, Note_off_c, 1, 63, 100
3, 201600, Note_on_c, 1, 51, 80
3, 201600, Note_on_c, 1, 55, 80
3, 202364, Note_off_c, 1, 55, 100
3, 202368, Note_on_c, 1, 56, 80
3, 202556, Note_off_c, 1, 56, 100
3, 202560, Note_on_c, 1, 58, 80
3, 202748, Note_off_c, 1, 51, 100
3, 202748, Note_off_c, 1, 58, 100
3, 202752, Note_on_c, 1, 56, 80
3, 202752, Note_on_c, 1, 53, 80
3, 202752, Note_on_c, 1, 51, 80
3, 202752, Note_on_c, 1, 44, 80
3, 203900, Note_off_c, 1, 56, 100
3, 203900, Note_off_c, 1, 53, 100
3, 203900, Note_off_c, 1, 51, 100
3, 203900, Note_off_c, 1, 44, 100
3, 203904, Note_on_c, 1, 56, 80
3, 203904, Note_on_c, 1, 53, 80
3, 203904, Note_on_c, 1, 51, 80
3, 203904, Note_on_c, 1, 44, 80
3, 205052, Note_off_c, 1, 56, 100
3, 205052, Note_off_c, 1, 53, 100
3, 205052, Note_off_c, 1, 51, 100
3, 205052, Note_off_c, 1, 44, 100
3, 205056, Note_on_c, 1, 36, 80
3, 205056, Note_on_c, 1, 32, 80
3, 205056, Note_on_c, 1, 44, 80
3, 205436, Note_off_c, 1, 36, 100
3, 205436, Note_off_c, 1, 32, 100
3, 205436, Note_off_c, 1, 44, 100
3, 205440, Note_on_c, 1, 36, 83
3, 205440, Note_on_c, 1, 32, 83
3, 205440, Note_on_c, 1, 44, 83
3, 205820, Note_off_c, 1, 36, 100
3, 205820, Note_off_c, 1, 32, 100
3, 205820, Note_off_c, 1, 44, 100
3, 205824, Note_on_c, 1, 36, 86
3, 205824, Note_on_c, 1, 32, 86
3, 205824, Note_on_c, 1, 44, 86
3, 206204, Note_off_c, 1, 36, 100
3, 206204, Note_off_c, 1, 32, 100
3, 206204, Note_off_c, 1, 44, 100
3, 206208, Note_on_c, 1, 44, 90
3, 206208, Note_on_c, 1, 36, 90
3, 206208, Note_on_c, 1, 32, 90
3, 207356, Note_off_c, 1, 44, 100
3, 207356, Note_off_c, 1, 36, 100
3, 207356, Note_off_c, 1, 32, 100
3, 207360, Note_on_c, 1, 36, 100
3, 207360, Note_on_c, 1, 32, 100
3, 207360, Note_on_c, 1, 44, 100
3, 207740, Note_off_c, 1, 36, 100
3, 207740, Note_off_c, 1, 32, 100
3, 207740, Note_off_c, 1, 44, 100
3, 207744, Note_on_c, 1, 36, 104
3, 207744, Note_on_c, 1, 32, 104
3, 207744, Note_on_c, 1, 44, 104
3, 208124, Note_off_c, 1, 36, 100
3, 208124, Note_off_c, 1, 32, 100
3, 208124, Note_off_c, 1, 44, 100
3, 208128, Note_on_c, 1, 36, 107
3, 208128, Note_on_c, 1, 32, 107
3, 208128, Note_on_c, 1, 44, 107
3, 208508, Note_off_c, 1, 36, 100
3, 208508, Note_off_c, 1, 32, 100
3, 208508, Note_off_c, 1, 44, 100
3, 208512, Note_on_c, 1, 43, 110
3, 208512, Note_on_c, 1, 36, 110
3, 208512, Note_on_c, 1, 31, 110
3, 209660, Note_off_c, 1, 43, 100
3, 209660, Note_off_c, 1, 36, 100
3, 209660, Note_off_c, 1, 31, 100
3, 209664, Note_on_c, 1, 43, 110
3, 209664, Note_on_c, 1, 36, 110
3, 209664, Note_on_c, 1, 31, 110
3, 210044, Note_off_c, 1, 43, 100
3, 210044, Note_off_c, 1, 36, 100
3, 210044, Note_off_c, 1, 31, 100
3, 210048, Note_on_c, 1, 43, 110
3, 210048, Note_on_c, 1, 36, 110
3, 210048, Note_on_c, 1, 31, 110
3, 210428, Note_off_c, 1, 43, 100
3, 210428, Note_off_c, 1, 36, 100
3, 210428, Note_off_c, 1, 31, 100
3, 210432, Note_on_c, 1, 43, 110
3, 210432, Note_on_c, 1, 36, 110
3, 210432, Note_on_c, 1, 31, 110
3, 210812, Note_off_c, 1, 43, 100
3, 210812, Note_off_c, 1, 36, 100
3, 210812, Note_off_c, 1, 31, 100
3, 210816, Note_on_c, 1, 42, 110
3, 210816, Note_on_c, 1, 36, 110
3, 210816, Note_on_c, 1, 32, 110
3, 211196, Note_off_c, 1, 42, 100
3, 211196, Note_off_c, 1, 36, 100
3, 211196, Note_off_c, 1, 32, 100
3, 211968, Note_on_c, 1, 59, 110
3, 211968, Note_on_c, 1, 53, 110
3, 212348, Note_off_c, 1, 59, 100
3, 212348, Note_off_c, 1, 53, 100
3, 213120, Note_on_c, 1, 46, 110
3, 213120, Note_on_c, 1, 43, 110
3, 213500, Note_off_c, 1, 46, 100
3, 213500, Note_off_c, 1, 43, 100
3, 214272, Note_on_c, 1, 41, 110
3, 214556, Note_off_c, 1, 41, 100
3, 214560, Note_on_c, 1, 35, 110
3, 214652, Note_off_c, 1, 35, 100
3, 214656, Note_on_c, 1, 35, 110
3, 215036, Note_off_c, 1, 35, 100
3, 215424, Note_on_c, 1, 36, 110
3, 215612, Note_off_c, 1, 36, 100
3, 215616, Note_on_c, 1, 48, 80
3, 215804, Note_off_c, 1, 48, 100
3, 215808, Note_on_c, 1, 48, 80
3, 215996, Note_off_c, 1, 48, 100
3, 216000, Note_on_c, 1, 48, 80
3, 216188, Note_off_c, 1, 48, 100
3, 216192, Note_on_c, 1, 48, 80
3, 216380, Note_off_c, 1, 48, 100
3, 216384, Note_on_c, 1, 48, 80
3, 216572, Note_off_c, 1, 48, 100
3, 216576, Note_on_c, 1, 48, 80
3, 216576, Note_on_c, 1, 60, 80
3, 216576, Note_on_c, 1, 57, 80
3, 216764, Note_off_c, 1, 48, 100
3, 216768, Note_on_c, 1, 48, 80
3, 216956, Note_off_c, 1, 48, 100
3, 216960, Note_on_c, 1, 48, 80
3, 217148, Note_off_c, 1, 48, 100
3, 217152, Note_on_c, 1, 48, 80
3, 217340, Note_off_c, 1, 48, 100
3, 217344, Note_on_c, 1, 48, 80
3, 217532, Note_off_c, 1, 48, 100
3, 217536, Note_on_c, 1, 48, 80
3, 217724, Note_off_c, 1, 60, 100
3, 217724, Note_off_c, 1, 57, 100
3, 217724, Note_off_c, 1, 48, 100
3, 217728, Note_on_c, 1, 48, 80
3, 217728, Note_on_c, 1, 59, 80
3, 217728, Note_on_c, 1, 55, 80
3, 217916, Note_off_c, 1, 48, 100
3, 217920, Note_on_c, 1, 48, 80
3, 218108, Note_off_c, 1, 48, 100
3, 218112, Note_on_c, 1, 48, 80
3, 218300, Note_off_c, 1, 48, 100
3, 218304, Note_on_c, 1, 48, 80
3, 218492, Note_off_c, 1, 48, 100
3, 218496, Note_on_c, 1, 48, 80
3, 218684, Note_off_c, 1, 48, 100
3, 218688, Note_on_c, 1, 48, 80
3, 218876, Note_off_c, 1, 59, 100
3, 218876, Note_off_c, 1, 55, 100
3, 218876, Note_off_c, 1, 48, 100
3, 218880, Note_on_c, 1, 48, 80
3, 218880, Note_on_c, 1, 57, 80
3, 218880, Note_on_c, 1, 53, 80
3, 219068, Note_off_c, 1, 48, 100
3, 219072, Note_on_c, 1, 48, 80
3, 219260, Note_off_c, 1, 57, 100
3, 219260, Note_off_c, 1, 53, 100
3, 219260, Note_off_c, 1, 48, 100
3, 219264, Note_on_c, 1, 48, 80
3, 219264, Note_on_c, 1, 56, 80
3, 219264, Note_on_c, 1, 53, 80
3, 219452, Note_off_c, 1, 48, 100
3, 219456, Note_on_c, 1, 48, 80
3, 219644, Note_off_c, 1, 56, 100
3, 219644, Note_off_c, 1, 53, 100
3, 219644, Note_off_c, 1, 48, 100
3, 219648, Note_on_c, 1, 48, 80
3, 219648, Note_on_c, 1, 55, 80
3, 219648, Note_on_c, 1, 53, 80
3, 219836, Note_off_c, 1, 48, 100
3, 219840, Note_on_c, 1, 48, 80
3, 220028, Note_off_c, 1, 55, 100
3, 220028, Note_off_c, 1, 53, 100
3, 220028, Note_off_c, 1, 48, 100
3, 220032, Note_on_c, 1, 48, 80
3, 220032, Note_on_c, 1, 55, 80
3, 220032, Note_on_c, 1, 52, 80
3, 220220, Note_off_c, 1, 48, 100
3, 220224, Note_on_c, 1, 48, 80
3, 220412, Note_off_c, 1, 55, 100
3, 220412, Note_off_c, 1, 52, 100
3, 220412, Note_off_c, 1, 48, 100
3, 220416, Note_on_c, 1, 48, 80
3, 220604, Note_off_c, 1, 48, 100
3, 220608, Note_on_c, 1, 48, 80
3, 220796, Note_off_c, 1, 48, 100
3, 220800, Note_on_c, 1, 48, 80
3, 220988, Note_off_c, 1, 48, 100
3, 220992, Note_on_c, 1, 48, 80
3, 221180, Note_off_c, 1, 48, 100
3, 221184, Note_on_c, 1, 48, 80
3, 221184, Note_on_c, 1, 60, 80
3, 221184, Note_on_c, 1, 57, 80
3, 221372, Note_off_c, 1, 48, 100
3, 221376, Note_on_c, 1, 48, 80
3, 221564, Note_off_c, 1, 48, 100
3, 221568, Note_on_c, 1, 48, 80
3, 221756, Note_off_c, 1, 48, 100
3, 221760, Note_on_c, 1, 48, 80
3, 221948, Note_off_c, 1, 48, 100
3, 221952, Note_on_c, 1, 48, 80
3, 222140, Note_off_c, 1, 48, 100
3, 222144, Note_on_c, 1, 48, 80
3, 222332, Note_off_c, 1, 60, 100
3, 222332, Note_off_c, 1, 57, 100
3, 222332, Note_off_c, 1, 48, 100
3, 222336, Note_on_c, 1, 48, 80
3, 222336, Note_on_c, 1, 59, 80
3, 222336, Note_on_c, 1, 55, 80
3, 222524, Note_off_c, 1, 48, 100
3, 222528, Note_on_c, 1, 48, 80
3, 222716, Note_off_c, 1, 48, 100
3, 222720, Note_on_c, 1, 48, 80
3, 222908, Note_off_c, 1, 48, 100
3, 222912, Note_on_c, 1, 48, 80
3, 223100, Note_off_c, 1, 48, 100
3, 223104, Note_on_c, 1, 48, 80
3, 223292, Note_off_c, 1, 48, 100
3, 223296, Note_on_c, 1, 48, 80
3, 223484, Note_off_c, 1, 59, 100
3, 223484, Note_off_c, 1, 55, 100
3, 223484, Note_off_c, 1, 48, 100
3, 223488, Note_on_c, 1, 48, 80
3, 223488, Note_on_c, 1, 57, 80
3, 223488, Note_on_c, 1, 53, 80
3, 223676, Note_off_c, 1, 48, 100
3, 223680, Note_on_c, 1, 48, 80
3, 223868, Note_off_c, 1, 57, 100
3, 223868, Note_off_c, 1, 53, 100
3, 223868, Note_off_c, 1, 48, 100
3, 223872, Note_on_c, 1, 48, 80
3, 223872, Note_on_c, 1, 56, 80
3, 223872, Note_on_c, 1, 53, 80
3, 224060, Note_off_c, 1, 48, 100
3, 224064, Note_on_c, 1, 48, 80
3, 224252, Note_off_c, 1, 56, 100
3, 224252, Note_off_c, 1, 53, 100
3, 224252, Note_off_c, 1, 48, 100
3, 224256, Note_on_c, 1, 48, 80
3, 224256, Note_on_c, 1, 55, 80
3, 224256, Note_on_c, 1, 53, 80
3, 224444, Note_off_c, 1, 48, 100
3, 224448, Note_on_c, 1, 48, 80
3, 224636, Note_off_c, 1, 55, 100
3, 224636, Note_off_c, 1, 53, 100
3, 224636, Note_off_c, 1, 48, 100
3, 224640, Note_on_c, 1, 55, 80
3, 224640, Note_on_c, 1, 52, 80
3, 224640, Note_on_c, 1, 48, 80
3, 224828, Note_off_c, 1, 55, 100
3, 224828, Note_off_c, 1, 52, 100
3, 224828, Note_off_c, 1, 48, 100
3, 225792, Note_on_c, 1, 47, 80
3, 225884, Note_off_c, 1, 47, 100
3, 225888, Note_on_c, 1, 37, 80
3, 225980, Note_off_c, 1, 37, 100
3, 226176, Note_on_c, 1, 47, 80
3, 226268, Note_off_c, 1, 47, 100
3, 226272, Note_on_c, 1, 37, 80
3, 226364, Note_off_c, 1, 37, 100
3, 226560, Note_on_c, 1, 47, 80
3, 226652, Note_off_c, 1, 47, 100
3, 226656, Note_on_c, 1, 37, 80
3, 226748, Note_off_c, 1, 37, 100
3, 226944, Note_on_c, 1, 48, 80
3, 227036, Note_off_c, 1, 48, 100
3, 227040, Note_on_c, 1, 36, 80
3, 227132, Note_off_c, 1, 36, 100
3, 227328, Note_on_c, 1, 67, 80
3, 227708, Note_off_c, 1, 67, 100
3, 227712, Note_on_c, 1, 72, 80
3, 227900, Note_off_c, 1, 72, 100
3, 228096, Note_on_c, 1, 47, 80
3, 228188, Note_off_c, 1, 47, 100
3, 228192, Note_on_c, 1, 37, 80
3, 228284, Note_off_c, 1, 37, 100
3, 228480, Note_on_c, 1, 47, 80
3, 228572, Note_off_c, 1, 47, 100
3, 228576, Note_on_c, 1, 37, 80
3, 228668, Note_off_c, 1, 37, 100
3, 228864, Note_on_c, 1, 47, 80
3, 228956, Note_off_c, 1, 47, 100
3, 228960, Note_on_c, 1, 37, 80
3, 229052, Note_off_c, 1, 37, 100
3, 229248, Note_on_c, 1, 48, 80
3, 229340, Note_off_c, 1, 48, 100
3, 229344, Note_on_c, 1, 36, 80
3, 229436, Note_off_c, 1, 36, 100
3, 229632, Note_on_c, 1, 67, 80
3, 230012, Note_off_c, 1, 67, 100
3, 230016, Note_on_c, 1, 76, 80
3, 230204, Note_off_c, 1, 76, 100
3, 230400, Note_on_c, 1, 47, 80
3, 230492, Note_off_c, 1, 47, 100
3, 230496, Note_on_c, 1, 37, 80
3, 230588, Note_off_c, 1, 37, 100
3, 230784, Note_on_c, 1, 47, 80
3, 230876, Note_off_c, 1, 47, 100
3, 230880, Note_on_c, 1, 37, 80
3, 230972, Note_off_c, 1, 37, 100
3, 231168, Note_on_c, 1, 47, 80
3, 231260, Note_off_c, 1, 47, 100
3, 231264, Note_on_c, 1, 37, 80
3, 231356, Note_off_c, 1, 37, 100
3, 231552, Note_on_c, 1, 48, 110
3, 231552, Note_on_c, 1, 36, 110
3, 231932, Note_off_c, 1, 48, 100
3, 231932, Note_off_c, 1, 36, 100
3, 232896, Note_on_c, 1, 36, 110
3, 233084, Note_off_c, 1, 36, 100
3, 233088, Note_on_c, 1, 40, 110
3, 233276, Note_off_c, 1, 40, 100
3, 233280, Note_on_c, 1, 43, 110
3, 233468, Note_off_c, 1, 43, 100
3, 233472, Note_on_c, 1, 48, 110
3, 233660, Note_off_c, 1, 48, 100
3, 233664, Note_on_c, 1, 52, 110
3, 233852, Note_off_c, 1, 52, 100
3, 233856, Note_on_c, 1, 53, 110
3, 234236, Note_off_c, 1, 53, 100
3, 235008, Note_on_c, 1, 40, 80
3, 235100, Note_off_c, 1, 40, 100
3, 235104, Note_on_c, 1, 30, 80
3, 235196, Note_off_c, 1, 30, 100
3, 235392, Note_on_c, 1, 40, 80
3, 235484, Note_off_c, 1, 40, 100
3, 235488, Note_on_c, 1, 30, 80
3, 235580, Note_off_c, 1, 30, 100
3, 235776, Note_on_c, 1, 40, 80
3, 235868, Note_off_c, 1, 40, 100
3, 235872, Note_on_c, 1, 30, 80
3, 235964, Note_off_c, 1, 30, 100
3, 236160, Note_on_c, 1, 41, 80
3, 236252, Note_off_c, 1, 41, 100
3, 236256, Note_on_c, 1, 29, 80
3, 236348, Note_off_c, 1, 29, 100
3, 236544, Note_on_c, 1, 72, 80
3, 236924, Note_off_c, 1, 72, 100
3, 236928, Note_on_c, 1, 77, 80
3, 237116, Note_off_c, 1, 77, 100
3, 237312, Note_on_c, 1, 40, 80
3, 237404, Note_off_c, 1, 40, 100
3, 237408, Note_on_c, 1, 30, 80
3, 237500, Note_off_c, 1, 30, 100
3, 237696, Note_on_c, 1, 40, 80
3, 237788, Note_off_c, 1, 40, 100
3, 237792, Note_on_c, 1, 30, 80
3, 237884, Note_off_c, 1, 30, 100
3, 238080, Note_on_c, 1, 40, 80
3, 238172, Note_off_c, 1, 40, 100
3, 238176, Note_on_c, 1, 30, 80
3, 238268, Note_off_c, 1, 30, 100
3, 238464, Note_on_c, 1, 41, 80
3, 238556, Note_off_c, 1, 41, 100
3, 238560, Note_on_c, 1, 29, 80
3, 238652, Note_off_c, 1, 29, 100
3, 238848, Note_on_c, 1, 72, 80
3, 239228, Note_off_c, 1, 72, 100
3, 239232, Note_on_c, 1, 81, 80
3, 239420, Note_off_c, 1, 81, 100
3, 239616, Note_on_c, 1, 40, 80
3, 239708, Note_off_c, 1, 40, 100
3, 239712, Note_on_c, 1, 30, 80
3, 239804, Note_off_c, 1, 30, 100
3, 240000, Note_on_c, 1, 40, 80
3, 240092, Note_off_c, 1, 40, 100
3, 240096, Note_on_c, 1, 30, 80
3, 240188, Note_off_c, 1, 30, 100
3, 240384, Note_on_c, 1, 40, 80
3, 240476, Note_off_c, 1, 40, 100
3, 240480, Note_on_c, 1, 30, 80
3, 240572, Note_off_c, 1, 30, 100
3, 240768, Note_on_c, 1, 41, 110
3, 240860, Note_off_c, 1, 41, 100
3, 240864, Note_on_c, 1, 29, 110
3, 240956, Note_off_c, 1, 29, 100
3, 242112, Note_on_c, 1, 41, 110
3, 242300, Note_off_c, 1, 41, 100
3, 242304, Note_on_c, 1, 45, 110
3, 242492, Note_off_c, 1, 45, 100
3, 242496, Note_on_c, 1, 48, 110
3, 242684, Note_off_c, 1, 48, 100
3, 242688, Note_on_c, 1, 53, 110
3, 242876, Note_off_c, 1, 53, 100
3, 242880, Note_on_c, 1, 57, 110
3, 243068, Note_off_c, 1, 57, 100
3, 243072, Note_on_c, 1, 58, 110
3, 243452, Note_off_c, 1, 58, 100
3, 244416, Note_on_c, 1, 34, 110
3, 244604, Note_off_c, 1, 34, 100
3, 244608, Note_on_c, 1, 38, 110
3, 244796, Note_off_c, 1, 38, 100
3, 244800, Note_on_c, 1, 41, 110
3, 244988, Note_off_c, 1, 41, 100
3, 244992, Note_on_c, 1, 46, 110
3, 245180, Note_off_c, 1, 46, 100
3, 245184, Note_on_c, 1, 50, 110
3, 245372, Note_off_c, 1, 50, 100
3, 245376, Note_on_c, 1, 51, 110
3, 245756, Note_off_c, 1, 51, 100
3, 246720, Note_on_c, 1, 39, 109
3, 246908, Note_off_c, 1, 39, 100
3, 246912, Note_on_c, 1, 43, 108
3, 247100, Note_off_c, 1, 43, 100
3, 247104, Note_on_c, 1, 46, 107
3, 247292, Note_off_c, 1, 46, 100
3, 247296, Note_on_c, 1, 51, 105
3, 247484, Note_off_c, 1, 51, 100
3, 247488, Note_on_c, 1, 55, 104
3, 247676, Note_off_c, 1, 55, 100
3, 247680, Note_on_c, 1, 56, 103
3, 247868, Note_off_c, 1, 56, 100
3, 247872, Note_on_c, 1, 44, 102
3, 248060, Note_off_c, 1, 44, 100
3, 248064, Note_on_c, 1, 48, 100
3, 248252, Note_off_c, 1, 48, 100
3, 248256, Note_on_c, 1, 51, 99
3, 248444, Note_off_c, 1, 51, 100
3, 248448, Note_on_c, 1, 56, 98
3, 248636, Note_off_c, 1, 56, 100
3, 248640, Note_on_c, 1, 60, 97
3, 248828, Note_off_c, 1, 60, 100
3, 249024, Note_on_c, 1, 44, 94
3, 249212, Note_off_c, 1, 44, 100
3, 249216, Note_on_c, 1, 48, 93
3, 249404, Note_off_c, 1, 48, 100
3, 249408, Note_on_c, 1, 51, 92
3, 249596, Note_off_c, 1, 51, 100
3, 249600, Note_on_c, 1, 56, 90
3, 249788, Note_off_c, 1, 56, 100
3, 249792, Note_on_c, 1, 60, 89
3, 249980, Note_off_c, 1, 60, 100
3, 250176, Note_on_c, 1, 44, 87
3, 250364, Note_off_c, 1, 44, 100
3, 250368, Note_on_c, 1, 48, 85
3, 250556, Note_off_c, 1, 48, 100
3, 250560, Note_on_c, 1, 53, 84
3, 250748, Note_off_c, 1, 53, 100
3, 250752, Note_on_c, 1, 56, 83
3, 250940, Note_off_c, 1, 56, 100
3, 250944, Note_on_c, 1, 60, 81
3, 251132, Note_off_c, 1, 60, 100
3, 251328, Note_on_c, 1, 44, 80
3, 251516, Note_off_c, 1, 44, 100
3, 251520, Note_on_c, 1, 48, 80
3, 251708, Note_off_c, 1, 48, 100
3, 251712, Note_on_c, 1, 53, 80
3, 251900, Note_off_c, 1, 53, 100
3, 251904, Note_on_c, 1, 56, 80
3, 252092, Note_off_c, 1, 56, 100
3, 252864, Note_on_c, 1, 44, 80
3, 253052, Note_off_c, 1, 44, 100
3, 253056, Note_on_c, 1, 48, 80
3, 253244, Note_off_c, 1, 48, 100
3, 253248, Note_on_c, 1, 53, 80
3, 253436, Note_off_c, 1, 53, 100
3, 253440, Note_on_c, 1, 56, 80
3, 253628, Note_off_c, 1, 56, 100
3, 254400, Note_on_c, 1, 44, 80
3, 254588, Note_off_c, 1, 44, 100
3, 254592, Note_on_c, 1, 48, 80
3, 254780, Note_off_c, 1, 48, 100
3, 254784, Note_on_c, 1, 53, 80
3, 254972, Note_off_c, 1, 53, 100
3, 254976, Note_on_c, 1, 56, 80
3, 255164, Note_off_c, 1, 56, 100
3, 255168, Note_on_c, 1, 44, 80
3, 255356, Note_off_c, 1, 44, 100
3, 255360, Note_on_c, 1, 48, 80
3, 255548, Note_off_c, 1, 48, 100
3, 255552, Note_on_c, 1, 53, 80
3, 255740, Note_off_c, 1, 53, 100
3, 255744, Note_on_c, 1, 56, 80
3, 255932, Note_off_c, 1, 56, 100
3, 255936, Note_on_c, 1, 44, 80
3, 256124, Note_off_c, 1, 44, 100
3, 256128, Note_on_c, 1, 48, 81
3, 256316, Note_off_c, 1, 48, 100
3, 256320, Note_on_c, 1, 53, 83
3, 256508, Note_off_c, 1, 53, 100
3, 256512, Note_on_c, 1, 56, 84
3, 256700, Note_off_c, 1, 56, 100
3, 256704, Note_on_c, 1, 44, 86
3, 256892, Note_off_c, 1, 44, 100
3, 256896, Note_on_c, 1, 48, 88
3, 257084, Note_off_c, 1, 48, 100
3, 257088, Note_on_c, 1, 53, 89
3, 257276, Note_off_c, 1, 53, 100
3, 257280, Note_on_c, 1, 56, 91
3, 257468, Note_off_c, 1, 56, 100
3, 257472, Note_on_c, 1, 44, 92
3, 257664, Note_on_c, 1, 48, 94
3, 257856, Note_on_c, 1, 53, 96
3, 258044, Note_off_c, 1, 44, 100
3, 258048, Note_on_c, 1, 56, 97
3, 259196, Note_off_c, 1, 48, 100
3, 259196, Note_off_c, 1, 53, 100
3, 259196, Note_off_c, 1, 56, 100
3, 259200, Note_on_c, 1, 60, 80
3, 259484, Note_off_c, 1, 60, 100
3, 259488, Note_on_c, 1, 53, 80
3, 259580, Note_off_c, 1, 53, 100
3, 259584, Note_on_c, 1, 53, 80
3, 260156, Note_off_c, 1, 53, 100
3, 260352, Note_on_c, 1, 39, 80
3, 260352, Note_on_c, 1, 32, 80
3, 260732, Note_off_c, 1, 39, 100
3, 260732, Note_off_c, 1, 32, 100
3, 260736, Note_on_c, 1, 39, 83
3, 260736, Note_on_c, 1, 32, 83
3, 261116, Note_off_c, 1, 39, 100
3, 261116, Note_off_c, 1, 32, 100
3, 261120, Note_on_c, 1, 39, 86
3, 261120, Note_on_c, 1, 32, 86
3, 261500, Note_off_c, 1, 39, 100
3, 261500, Note_off_c, 1, 32, 100
3, 261504, Note_on_c, 1, 39, 90
3, 261504, Note_on_c, 1, 33, 90
3, 262652, Note_off_c, 1, 39, 100
3, 262652, Note_off_c, 1, 33, 100
3, 262656, Note_on_c, 1, 54, 100
3, 262656, Note_on_c, 1, 51, 100
3, 262656, Note_on_c, 1, 45, 100
3, 263036, Note_off_c, 1, 54, 100
3, 263036, Note_off_c, 1, 51, 100
3, 263036, Note_off_c, 1, 45, 100
3, 263040, Note_on_c, 1, 54, 104
3, 263040, Note_on_c, 1, 51, 104
3, 263040, Note_on_c, 1, 45, 104
3, 263420, Note_off_c, 1, 54, 100
3, 263420, Note_off_c, 1, 51, 100
3, 263420, Note_off_c, 1, 45, 100
3, 263424, Note_on_c, 1, 54, 107
3, 263424, Note_on_c, 1, 51, 107
3, 263424, Note_on_c, 1, 45, 107
3, 263804, Note_off_c, 1, 54, 100
3, 263804, Note_off_c, 1, 51, 100
3, 263804, Note_off_c, 1, 45, 100
3, 263808, Note_on_c, 1, 55, 110
3, 263808, Note_on_c, 1, 51, 110
3, 263808, Note_on_c, 1, 46, 110
3, 264956, Note_off_c, 1, 55, 100
3, 264956, Note_off_c, 1, 51, 100
3, 264956, Note_off_c, 1, 46, 100
3, 264960, Note_on_c, 1, 46, 80
3, 264960, Note_on_c, 1, 34, 80
3, 265340, Note_off_c, 1, 46, 100
3, 265340, Note_off_c, 1, 34, 100
3, 265344, Note_on_c, 1, 46, 80
3, 265344, Note_on_c, 1, 34, 80
3, 265724, Note_off_c, 1, 46, 100
3, 265724, Note_off_c, 1, 34, 100
3, 265728, Note_on_c, 1, 46, 80
3, 265728, Note_on_c, 1, 34, 80
3, 266108, Note_off_c, 1, 46, 100
3, 266108, Note_off_c, 1, 34, 100
3, 266112, Note_on_c, 1, 51, 80
3, 266112, Note_on_c, 1, 39, 80
3, 266492, Note_off_c, 1, 51, 100
3, 266492, Note_off_c, 1, 39, 100
3, 268416, Note_on_c, 1, 75, 80
3, 268416, Note_on_c, 1, 72, 80
3, 268416, Note_on_c, 1, 68, 80
3, 269564, Note_off_c, 1, 75, 100
3, 269564, Note_off_c, 1, 72, 100
3, 269564, Note_off_c, 1, 68, 100
3, 269568, Note_on_c, 1, 63, 80
3, 269568, Note_on_c, 1, 60, 80
3, 269568, Note_on_c, 1, 56, 80
3, 270716, Note_off_c, 1, 63, 100
3, 270716, Note_off_c, 1, 60, 100
3, 270716, Note_off_c, 1, 56, 100
3, 270720, Note_on_c, 1, 44, 80
3, 270720, Note_on_c, 1, 32, 80
3, 271100, Note_off_c, 1, 44, 100
3, 271100, Note_off_c, 1, 32, 100
3, 271104, Note_on_c, 1, 44, 83
3, 271104, Note_on_c, 1, 32, 83
3, 271484, Note_off_c, 1, 44, 100
3, 271484, Note_off_c, 1, 32, 100
3, 271488, Note_on_c, 1, 44, 86
3, 271488, Note_on_c, 1, 32, 86
3, 271868, Note_off_c, 1, 44, 100
3, 271868, Note_off_c, 1, 32, 100
3, 271872, Note_on_c, 1, 45, 90
3, 271872, Note_on_c, 1, 33, 90
3, 273020, Note_off_c, 1, 45, 100
3, 273020, Note_off_c, 1, 33, 100
3, 273024, Note_on_c, 1, 69, 100
3, 273404, Note_off_c, 1, 69, 100
3, 273408, Note_on_c, 1, 69, 104
3, 273788, Note_off_c, 1, 69, 100
3, 273792, Note_on_c, 1, 69, 107
3, 274172, Note_off_c, 1, 69, 100
3, 274176, Note_on_c, 1, 70, 110
3, 275324, Note_off_c, 1, 70, 100
3, 275328, Note_on_c, 1, 46, 80
3, 275328, Note_on_c, 1, 34, 80
3, 275708, Note_off_c, 1, 46, 100
3, 275708, Note_off_c, 1, 34, 100
3, 275712, Note_on_c, 1, 46, 80
3, 275712, Note_on_c, 1, 34, 80
3, 276092, Note_off_c, 1, 46, 100
3, 276092, Note_off_c, 1, 34, 100
3, 276096, Note_on_c, 1, 46, 80
3, 276096, Note_on_c, 1, 34, 80
3, 276476, Note_off_c, 1, 46, 100
3, 276476, Note_off_c, 1, 34, 100
3, 276480, Note_on_c, 1, 51, 80
3, 276480, Note_on_c, 1, 39, 80
3, 276668, Note_off_c, 1, 51, 100
3, 276668, Note_off_c, 1, 39, 100
3, 276672, Note_on_c, 1, 51, 80
3, 276860, Note_off_c, 1, 51, 100
3, 276864, Note_on_c, 1, 51, 80
3, 277052, Note_off_c, 1, 51, 100
3, 277056, Note_on_c, 1, 51, 80
3, 277244, Note_off_c, 1, 51, 100
3, 277248, Note_on_c, 1, 51, 80
3, 277436, Note_off_c, 1, 51, 100
3, 277440, Note_on_c, 1, 51, 80
3, 277628, Note_off_c, 1, 51, 100
3, 277632, Note_on_c, 1, 51, 80
3, 277632, Note_on_c, 1, 60, 80
3, 277632, Note_on_c, 1, 63, 80
3, 277820, Note_off_c, 1, 51, 100
3, 277824, Note_on_c, 1, 51, 80
3, 278012, Note_off_c, 1, 51, 100
3, 278016, Note_on_c, 1, 51, 80
3, 278204, Note_off_c, 1, 51, 100
3, 278208, Note_on_c, 1, 51, 80
3, 278396, Note_off_c, 1, 51, 100
3, 278400, Note_on_c, 1, 51, 80
3, 278588, Note_off_c, 1, 51, 100
3, 278592, Note_on_c, 1, 51, 80
3, 278780, Note_off_c, 1, 60, 100
3, 278780, Note_off_c, 1, 63, 100
3, 278780, Note_off_c, 1, 51, 100
3, 278784, Note_on_c, 1, 51, 80
3, 278784, Note_on_c, 1, 58, 80
3, 278784, Note_on_c, 1, 62, 80
3, 278972, Note_off_c, 1, 51, 100
3, 278976, Note_on_c, 1, 51, 80
3, 279164, Note_off_c, 1, 51, 100
3, 279168, Note_on_c, 1, 51, 80
3, 279356, Note_off_c, 1, 51, 100
3, 279360, Note_on_c, 1, 51, 80
3, 279548, Note_off_c, 1, 51, 100
3, 279552, Note_on_c, 1, 51, 80
3, 279740, Note_off_c, 1, 51, 100
3, 279744, Note_on_c, 1, 51, 80
3, 279932, Note_off_c, 1, 58, 100
3, 279932, Note_off_c, 1, 62, 100
3, 279932, Note_off_c, 1, 51, 100
3, 279936, Note_on_c, 1, 51, 80
3, 279936, Note_on_c, 1, 60, 80
3, 279936, Note_on_c, 1, 56, 80
3, 280124, Note_off_c, 1, 51, 100
3, 280128, Note_on_c, 1, 51, 80
3, 280316, Note_off_c, 1, 60, 100
3, 280316, Note_off_c, 1, 56, 100
3, 280316, Note_off_c, 1, 51, 100
3, 280320, Note_on_c, 1, 51, 80
3, 280320, Note_on_c, 1, 60, 80
3, 280320, Note_on_c, 1, 56, 80
3, 280508, Note_off_c, 1, 51, 100
3, 280512, Note_on_c, 1, 51, 80
3, 280700, Note_off_c, 1, 60, 100
3, 280700, Note_off_c, 1, 56, 100
3, 280700, Note_off_c, 1, 51, 100
3, 280704, Note_on_c, 1, 51, 80
3, 280704, Note_on_c, 1, 59, 80
3, 280704, Note_on_c, 1, 56, 80
3, 280892, Note_off_c, 1, 51, 100
3, 280896, Note_on_c, 1, 51, 80
3, 281084, Note_off_c, 1, 59, 100
3, 281084, Note_off_c, 1, 56, 100
3, 281084, Note_off_c, 1, 51, 100
3, 281088, Note_on_c, 1, 51, 80
3, 281088, Note_on_c, 1, 58, 80
3, 281088, Note_on_c, 1, 55, 80
3, 281276, Note_off_c, 1, 51, 100
3, 281280, Note_on_c, 1, 51, 80
3, 281468, Note_off_c, 1, 58, 100
3, 281468, Note_off_c, 1, 55, 100
3, 281468, Note_off_c, 1, 51, 100
3, 281472, Note_on_c, 1, 51, 80
3, 281660, Note_off_c, 1, 51, 100
3, 281664, Note_on_c, 1, 51, 80
3, 281852, Note_off_c, 1, 51, 100
3, 281856, Note_on_c, 1, 51, 80
3, 282044, Note_off_c, 1, 51, 100
3, 282048, Note_on_c, 1, 51, 80
3, 282236, Note_off_c, 1, 51, 100
3, 282240, Note_on_c, 1, 51, 80
3, 282240, Note_on_c, 1, 60, 80
3, 282240, Note_on_c, 1, 63, 80
3, 282428, Note_off_c, 1, 51, 100
3, 282432, Note_on_c, 1, 51, 80
3, 282620, Note_off_c, 1, 51, 100
3, 282624, Note_on_c, 1, 51, 80
3, 282812, Note_off_c, 1, 51, 100
3, 282816, Note_on_c, 1, 51, 80
3, 283004, Note_off_c, 1, 51, 100
3, 283008, Note_on_c, 1, 51, 80
3, 283196, Note_off_c, 1, 51, 100
3, 283200, Note_on_c, 1, 51, 80
3, 283388, Note_off_c, 1, 60, 100
3, 283388, Note_off_c, 1, 63, 100
3, 283388, Note_off_c, 1, 51, 100
3, 283392, Note_on_c, 1, 51, 80
3, 283392, Note_on_c, 1, 58, 80
3, 283392, Note_on_c, 1, 62, 80
3, 283580, Note_off_c, 1, 51, 100
3, 283584, Note_on_c, 1, 51, 80
3, 283772, Note_off_c, 1, 51, 100
3, 283776, Note_on_c, 1, 51, 80
3, 283964, Note_off_c, 1, 51, 100
3, 283968, Note_on_c, 1, 51, 80
3, 284156, Note_off_c, 1, 51, 100
3, 284160, Note_on_c, 1, 51, 80
3, 284348, Note_off_c, 1, 51, 100
3, 284352, Note_on_c, 1, 51, 80
3, 284540, Note_off_c, 1, 58, 100
3, 284540, Note_off_c, 1, 62, 100
3, 284540, Note_off_c, 1, 51, 100
3, 284544, Note_on_c, 1, 51, 80
3, 284544, Note_on_c, 1, 60, 80
3, 284544, Note_on_c, 1, 56, 80
3, 284732, Note_off_c, 1, 51, 100
3, 284736, Note_on_c, 1, 51, 80
3, 284924, Note_off_c, 1, 60, 100
3, 284924, Note_off_c, 1, 56, 100
3, 284924, Note_off_c, 1, 51, 100
3, 284928, Note_on_c, 1, 51, 80
3, 284928, Note_on_c, 1, 60, 80
3, 284928, Note_on_c, 1, 56, 80
3, 285116, Note_off_c, 1, 51, 100
3, 285120, Note_on_c, 1, 51, 80
3, 285308, Note_off_c, 1, 60, 100
3, 285308, Note_off_c, 1, 56, 100
3, 285308, Note_off_c, 1, 51, 100
3, 285312, Note_on_c, 1, 51, 80
3, 285312, Note_on_c, 1, 59, 80
3, 285312, Note_on_c, 1, 56, 80
3, 285500, Note_off_c, 1, 51, 100
3, 285504, Note_on_c, 1, 51, 80
3, 285692, Note_off_c, 1, 59, 100
3, 285692, Note_off_c, 1, 56, 100
3, 285692, Note_off_c, 1, 51, 100
3, 285696, Note_on_c, 1, 58, 80
3, 285696, Note_on_c, 1, 55, 80
3, 285696, Note_on_c, 1, 51, 80
3, 286076, Note_off_c, 1, 58, 100
3, 286076, Note_off_c, 1, 55, 100
3, 286076, Note_off_c, 1, 51, 100
3, 286656, Note_on_c, 1, 55, 80
3, 286844, Note_off_c, 1, 55, 100
3, 286848, Note_on_c, 1, 53, 80
3, 287036, Note_off_c, 1, 53, 100
3, 287040, Note_on_c, 1, 56, 80
3, 287228, Note_off_c, 1, 56, 100
3, 287232, Note_on_c, 1, 50, 80
3, 287420, Note_off_c, 1, 50, 100
3, 287424, Note_on_c, 1, 53, 80
3, 287612, Note_off_c, 1, 53, 100
3, 287616, Note_on_c, 1, 46, 80
3, 287804, Note_off_c, 1, 46, 100
3, 287808, Note_on_c, 1, 50, 80
3, 287996, Note_off_c, 1, 50, 100
3, 288000, Note_on_c, 1, 51, 80
3, 288380, Note_off_c, 1, 51, 100
3, 288768, Note_on_c, 1, 60, 80
3, 288860, Note_off_c, 1, 60, 100
3, 288864, Note_on_c, 1, 58, 80
3, 288956, Note_off_c, 1, 58, 100
3, 288960, Note_on_c, 1, 56, 80
3, 289052, Note_off_c, 1, 56, 100
3, 289056, Note_on_c, 1, 55, 80
3, 289148, Note_off_c, 1, 55, 100
3, 289152, Note_on_c, 1, 53, 80
3, 289340, Note_off_c, 1, 53, 100
3, 289344, Note_on_c, 1, 56, 80
3, 289532, Note_off_c, 1, 56, 100
3, 289536, Note_on_c, 1, 50, 80
3, 289724, Note_off_c, 1, 50, 100
3, 289728, Note_on_c, 1, 53, 80
3, 289916, Note_off_c, 1, 53, 100
3, 289920, Note_on_c, 1, 46, 80
3, 290108, Note_off_c, 1, 46, 100
3, 290112, Note_on_c, 1, 50, 80
3, 290300, Note_off_c, 1, 50, 100
3, 290304, Note_on_c, 1, 51, 80
3, 290492, Note_off_c, 1, 51, 100
3, 290496, Note_on_c, 1, 55, 80
3, 290684, Note_off_c, 1, 55, 100
3, 290688, Note_on_c, 1, 48, 80
3, 290876, Note_off_c, 1, 48, 100
3, 290880, Note_on_c, 1, 51, 80
3, 291068, Note_off_c, 1, 51, 100
3, 291072, Note_on_c, 1, 45, 80
3, 291260, Note_off_c, 1, 45, 100
3, 291264, Note_on_c, 1, 48, 80
3, 291452, Note_off_c, 1, 48, 100
3, 291456, Note_on_c, 1, 41, 80
3, 291644, Note_off_c, 1, 41, 100
3, 291648, Note_on_c, 1, 45, 80
3, 291836, Note_off_c, 1, 45, 100
3, 291840, Note_on_c, 1, 48, 80
3, 292028, Note_off_c, 1, 48, 100
3, 292032, Note_on_c, 1, 52, 80
3, 292220, Note_off_c, 1, 52, 100
3, 292224, Note_on_c, 1, 53, 80
3, 292412, Note_off_c, 1, 53, 100
3, 292416, Note_on_c, 1, 45, 80
3, 292604, Note_off_c, 1, 45, 100
3, 292608, Note_on_c, 1, 46, 80
3, 292796, Note_off_c, 1, 46, 100
3, 292800, Note_on_c, 1, 50, 86
3, 292988, Note_off_c, 1, 50, 100
3, 292992, Note_on_c, 1, 53, 92
3, 293180, Note_off_c, 1, 53, 100
3, 293184, Note_on_c, 1, 57, 98
3, 293372, Note_off_c, 1, 57, 100
3, 293376, Note_on_c, 1, 58, 104
3, 293564, Note_off_c, 1, 58, 100
3, 293568, Note_on_c, 1, 62, 110
3, 293756, Note_off_c, 1, 62, 100
3, 293760, Note_on_c, 1, 65, 110
3, 293948, Note_off_c, 1, 65, 100
3, 293952, Note_on_c, 1, 69, 110
3, 294140, Note_off_c, 1, 69, 100
3, 294144, Note_on_c, 1, 70, 110
3, 294524, Note_off_c, 1, 70, 100
3, 294528, Note_on_c, 1, 58, 110
3, 294908, Note_off_c, 1, 58, 100
3, 294912, Note_on_c, 1, 46, 110
3, 295292, Note_off_c, 1, 46, 100
3, 295296, Note_on_c, 1, 34, 110
3, 295676, Note_off_c, 1, 34, 100
3, 295680, Note_on_c, 1, 32, 110
3, 296060, Note_off_c, 1, 32, 100
3, 296064, Control_c, 1, 64, 127
3, 296064, Note_on_c, 1, 55, 80
3, 296156, Note_off_c, 1, 55, 100
3, 296160, Note_on_c, 1, 63, 80
3, 296252, Note_off_c, 1, 63, 100
3, 296256, Note_on_c, 1, 58, 80
3, 296348, Note_off_c, 1, 58, 100
3, 296352, Note_on_c, 1, 63, 80
3, 296440, Control_c, 1, 64, 0
3, 296444, Note_off_c, 1, 63, 100
3, 296448, Control_c, 1, 64, 127
3, 296448, Note_on_c, 1, 55, 80
3, 296540, Note_off_c, 1, 55, 100
3, 296544, Note_on_c, 1, 63, 80
3, 296636, Note_off_c, 1, 63, 100
3, 296640, Note_on_c, 1, 58, 80
3, 296732, Note_off_c, 1, 58, 100
3, 296736, Note_on_c, 1, 63, 80
3, 296824, Control_c, 1, 64, 0
3, 296828, Note_off_c, 1, 63, 100
3, 296832, Control_c, 1, 64, 127
3, 296832, Note_on_c, 1, 55, 80
3, 296924, Note_off_c, 1, 55, 100
3, 296928, Note_on_c, 1, 63, 80
3, 297020, Note_off_c, 1, 63, 100
3, 297024, Note_on_c, 1, 58, 80
3, 297116, Note_off_c, 1, 58, 100
3, 297120, Note_on_c, 1, 63, 80
3, 297208, Control_c, 1, 64, 0
3, 297212, Note_off_c, 1, 63, 100
3, 297216, Control_c, 1, 64, 127
3, 297216, Note_on_c, 1, 55, 80
3, 297308, Note_off_c, 1, 55, 100
3, 297312, Note_on_c, 1, 63, 80
3, 297404, Note_off_c, 1, 63, 100
3, 297408, Note_on_c, 1, 58, 80
3, 297500, Note_off_c, 1, 58, 100
3, 297504, Note_on_c, 1, 63, 80
3, 297592, Control_c, 1, 64, 0
3, 297596, Note_off_c, 1, 63, 100
3, 297600, Control_c, 1, 64, 127
3, 297600, Note_on_c, 1, 55, 80
3, 297692, Note_off_c, 1, 55, 100
3, 297696, Note_on_c, 1, 63, 80
3, 297788, Note_off_c, 1, 63, 100
3, 297792, Note_on_c, 1, 58, 80
3, 297884, Note_off_c, 1, 58, 100
3, 297888, Note_on_c, 1, 63, 80
3, 297976, Control_c, 1, 64, 0
3, 297980, Note_off_c, 1, 63, 100
3, 297984, Control_c, 1, 64, 127
3, 297984, Note_on_c, 1, 55, 80
3, 298076, Note_off_c, 1, 55, 100
3, 298080, Note_on_c, 1, 63, 80
3, 298172, Note_off_c, 1, 63, 100
3, 298176, Note_on_c, 1, 58, 80
3, 298268, Note_off_c, 1, 58, 100
3, 298272, Note_on_c, 1, 63, 80
3, 298360, Control_c, 1, 64, 0
3, 298364, Note_off_c, 1, 63, 100
3, 298368, Control_c, 1, 64, 127
3, 298368, Note_on_c, 1, 56, 80
3, 298460, Note_off_c, 1, 56, 100
3, 298464, Note_on_c, 1, 63, 80
3, 298556, Note_off_c, 1, 63, 100
3, 298560, Note_on_c, 1, 60, 80
3, 298652, Note_off_c, 1, 60, 100
3, 298656, Note_on_c, 1, 63, 80
3, 298744, Control_c, 1, 64, 0
3, 298748, Note_off_c, 1, 63, 100
3, 298752, Control_c, 1, 64, 127
3, 298752, Note_on_c, 1, 56, 80
3, 298844, Note_off_c, 1, 56, 100
3, 298848, Note_on_c, 1, 63, 80
3, 298940, Note_off_c, 1, 63, 100
3, 298944, Note_on_c, 1, 60, 80
3, 299036, Note_off_c, 1, 60, 100
3, 299040, Note_on_c, 1, 63, 80
3, 299128, Control_c, 1, 64, 0
3, 299132, Note_off_c, 1, 63, 100
3, 299136, Control_c, 1, 64, 127
3, 299136, Note_on_c, 1, 56, 80
3, 299228, Note_off_c, 1, 56, 100
3, 299232, Note_on_c, 1, 64, 80
3, 299324, Note_off_c, 1, 64, 100
3, 299328, Note_on_c, 1, 60, 80
3, 299420, Note_off_c, 1, 60, 100
3, 299424, Note_on_c, 1, 64, 80
3, 299512, Control_c, 1, 64, 0
3, 299516, Note_off_c, 1, 64, 100
3, 299520, Control_c, 1, 64, 127
3, 299520, Note_on_c, 1, 56, 80
3, 299612, Note_off_c, 1, 56, 100
3, 299616, Note_on_c, 1, 65, 80
3, 299708, Note_off_c, 1, 65, 100
3, 299712, Note_on_c, 1, 60, 80
3, 299804, Note_off_c, 1, 60, 100
3, 299808, Note_on_c, 1, 65, 80
3, 299896, Control_c, 1, 64, 0
3, 299900, Note_off_c, 1, 65, 100
3, 299904, Control_c, 1, 64, 127
3, 299904, Note_on_c, 1, 56, 80
3, 299996, Note_off_c, 1, 56, 100
3, 300000, Note_on_c, 1, 65, 80
3, 300092, Note_off_c, 1, 65, 100
3, 300096, Note_on_c, 1, 60, 80
3, 300188, Note_off_c, 1, 60, 100
3, 300192, Note_on_c, 1, 65, 80
3, 300280, Control_c, 1, 64, 0
3, 300284, Note_off_c, 1, 65, 100
3, 300288, Control_c, 1, 64, 127
3, 300288, Note_on_c, 1, 57, 80
3, 300380, Note_off_c, 1, 57, 100
3, 300384, Note_on_c, 1, 65, 80
3, 300476, Note_off_c, 1, 65, 100
3, 300480, Note_on_c, 1, 63, 80
3, 300572, Note_off_c, 1, 63, 100
3, 300576, Note_on_c, 1, 65, 80
3, 300664, Control_c, 1, 64, 0
3, 300668, Note_off_c, 1, 65, 100
3, 300672, Control_c, 1, 64, 127
3, 300672, Note_on_c, 1, 58, 80
3, 300764, Note_off_c, 1, 58, 100
3, 300768, Note_on_c, 1, 65, 80
3, 300860, Note_off_c, 1, 65, 100
3, 300864, Note_on_c, 1, 62, 80
3, 300956, Note_off_c, 1, 62, 100
3, 300960, Note_on_c, 1, 65, 80
3, 301048, Control_c, 1, 64, 0
3, 301052, Note_off_c, 1, 65, 100
3, 301056, Control_c, 1, 64, 127
3, 301056, Note_on_c, 1, 53, 80
3, 301148, Note_off_c, 1, 53, 100
3, 301152, Note_on_c, 1, 62, 80
3, 301244, Note_off_c, 1, 62, 100
3, 301248, Note_on_c, 1, 58, 80
3, 301340, Note_off_c, 1, 58, 100
3, 301344, Note_on_c, 1, 62, 80
3, 301432, Control_c, 1, 64, 0
3, 301436, Note_off_c, 1, 62, 100
3, 301440, Control_c, 1, 64, 127
3, 301440, Note_on_c, 1, 50, 80
3, 301532, Note_off_c, 1, 50, 100
3, 301536, Note_on_c, 1, 58, 80
3, 301628, Note_off_c, 1, 58, 100
3, 301632, Note_on_c, 1, 53, 80
3, 301724, Note_off_c, 1, 53, 100
3, 301728, Note_on_c, 1, 58, 80
3, 301816, Control_c, 1, 64, 0
3, 301820, Note_off_c, 1, 58, 100
3, 301824, Control_c, 1, 64, 127
3, 301824, Note_on_c, 1, 46, 80
3, 301916, Note_off_c, 1, 46, 100
3, 301920, Note_on_c, 1, 56, 80
3, 302012, Note_off_c, 1, 56, 100
3, 302016, Note_on_c, 1, 53, 80
3, 302108, Note_off_c, 1, 53, 100
3, 302112, Note_on_c, 1, 56, 80
3, 302200, Control_c, 1, 64, 0
3, 302204, Note_off_c, 1, 56, 100
3, 302208, Control_c, 1, 64, 127
3, 302208, Note_on_c, 1, 46, 80
3, 302300, Note_off_c, 1, 46, 100
3, 302304, Note_on_c, 1, 56, 80
3, 302396, Note_off_c, 1, 56, 100
3, 302400, Note_on_c, 1, 53, 80
3, 302492, Note_off_c, 1, 53, 100
3, 302496, Note_on_c, 1, 56, 80
3, 302584, Control_c, 1, 64, 0
3, 302588, Note_off_c, 1, 56, 100
3, 302592, Control_c, 1, 64, 127
3, 302592, Note_on_c, 1, 47, 80
3, 302684, Note_off_c, 1, 47, 100
3, 302688, Note_on_c, 1, 56, 80
3, 302780, Note_off_c, 1, 56, 100
3, 302784, Note_on_c, 1, 50, 80
3, 302876, Note_off_c, 1, 50, 100
3, 302880, Note_on_c, 1, 56, 80
3, 302968, Control_c, 1, 64, 0
3, 302972, Note_off_c, 1, 56, 100
3, 302976, Control_c, 1, 64, 127
3, 302976, Note_on_c, 1, 48, 80
3, 303068, Note_off_c, 1, 48, 100
3, 303072, Note_on_c, 1, 55, 80
3, 303164, Note_off_c, 1, 55, 100
3, 303168, Note_on_c, 1, 51, 80
3, 303260, Note_off_c, 1, 51, 100
3, 303264, Note_on_c, 1, 55, 80
3, 303352, Control_c, 1, 64, 0
3, 303356, Note_off_c, 1, 55, 100
3, 303360, Control_c, 1, 64, 127
3, 303360, Note_on_c, 1, 44, 80
3, 303452, Note_off_c, 1, 44, 100
3, 303456, Note_on_c, 1, 53, 80
3, 303548, Note_off_c, 1, 53, 100
3, 303552, Note_on_c, 1, 48, 80
3, 303644, Note_off_c, 1, 48, 100
3, 303648, Note_on_c, 1, 53, 80
3, 303736, Control_c, 1, 64, 0
3, 303740, Note_off_c, 1, 53, 100
3, 303744, Control_c, 1, 64, 127
3, 303744, Note_on_c, 1, 46, 80
3, 303836, Note_off_c, 1, 46, 100
3, 303840, Note_on_c, 1, 53, 80
3, 303932, Note_off_c, 1, 53, 100
3, 303936, Note_on_c, 1, 50, 80
3, 304028, Note_off_c, 1, 50, 100
3, 304032, Note_on_c, 1, 56, 80
3, 304120, Control_c, 1, 64, 0
3, 304124, Note_off_c, 1, 56, 100
3, 304128, Note_on_c, 1, 51, 80
3, 304128, Note_on_c, 1, 39, 80
3, 304508, Note_off_c, 1, 51, 100
3, 304508, Note_off_c, 1, 39, 100
3, 311040, Control_c, 1, 64, 127
3, 311040, Note_on_c, 1, 55, 80
3, 311132, Note_off_c, 1, 55, 100
3, 311136, Note_on_c, 1, 63, 80
3, 311228, Note_off_c, 1, 63, 100
3, 311232, Note_on_c, 1, 58, 80
3, 311324, Note_off_c, 1, 58, 100
3, 311328, Note_on_c, 1, 63, 80
3, 311416, Control_c, 1, 64, 0
3, 311420, Note_off_c, 1, 63, 100
3, 311424, Control_c, 1, 64, 127
3, 311424, Note_on_c, 1, 55, 80
3, 311516, Note_off_c, 1, 55, 100
3, 311520, Note_on_c, 1, 63, 80
3, 311612, Note_off_c, 1, 63, 100
3, 311616, Note_on_c, 1, 58, 80
3, 311708, Note_off_c, 1, 58, 100
3, 311712, Note_on_c, 1, 63, 80
3, 311800, Control_c, 1, 64, 0
3, 311804, Note_off_c, 1, 63, 100
3, 311808, Control_c, 1, 64, 127
3, 311808, Note_on_c, 1, 55, 80
3, 311900, Note_off_c, 1, 55, 100
3, 311904, Note_on_c, 1, 63, 80
3, 311996, Note_off_c, 1, 63, 100
3, 312000, Note_on_c, 1, 58, 80
3, 312092, Note_off_c, 1, 58, 100
3, 312096, Note_on_c, 1, 63, 80
3, 312184, Control_c, 1, 64, 0
3, 312188, Note_off_c, 1, 63, 100
3, 312192, Control_c, 1, 64, 127
3, 312192, Note_on_c, 1, 55, 80
3, 312284, Note_off_c, 1, 55, 100
3, 312288, Note_on_c, 1, 63, 80
3, 312380, Note_off_c, 1, 63, 100
3, 312384, Note_on_c, 1, 58, 80
3, 312476, Note_off_c, 1, 58, 100
3, 312480, Note_on_c, 1, 63, 80
3, 312568, Control_c, 1, 64, 0
3, 312572, Note_off_c, 1, 63, 100
3, 312576, Control_c, 1, 64, 127
3, 312576, Note_on_c, 1, 55, 80
3, 312668, Note_off_c, 1, 55, 100
3, 312672, Note_on_c, 1, 63, 80
3, 312764, Note_off_c, 1, 63, 100
3, 312768, Note_on_c, 1, 58, 80
3, 312860, Note_off_c, 1, 58, 100
3, 312864, Note_on_c, 1, 63, 80
3, 312952, Control_c, 1, 64, 0
3, 312956, Note_off_c, 1, 63, 100
3, 312960, Control_c, 1, 64, 127
3, 312960, Note_on_c, 1, 55, 80
3, 313052, Note_off_c, 1, 55, 100
3, 313056, Note_on_c, 1, 63, 80
3, 313148, Note_off_c, 1, 63, 100
3, 313152, Note_on_c, 1, 58, 80
3, 313244, Note_off_c, 1, 58, 100
3, 313248, Note_on_c, 1, 63, 80
3, 313336, Control_c, 1, 64, 0
3, 313340, Note_off_c, 1, 63, 100
3, 313344, Control_c, 1, 64, 127
3, 313344, Note_on_c, 1, 56, 80
3, 313436, Note_off_c, 1, 56, 100
3, 313440, Note_on_c, 1, 63, 80
3, 313532, Note_off_c, 1, 63, 100
3, 313536, Note_on_c, 1, 60, 80
3, 313628, Note_off_c, 1, 60, 100
3, 313632, Note_on_c, 1, 63, 80
3, 313720, Control_c, 1, 64, 0
3, 313724, Note_off_c, 1, 63, 100
3, 313728, Control_c, 1, 64, 127
3, 313728, Note_on_c, 1, 56, 80
3, 313820, Note_off_c, 1, 56, 100
3, 313824, Note_on_c, 1, 63, 80
3, 313916, Note_off_c, 1, 63, 100
3, 313920, Note_on_c, 1, 60, 80
3, 314012, Note_off_c, 1, 60, 100
3, 314016, Note_on_c, 1, 63, 80
3, 314104, Control_c, 1, 64, 0
3, 314108, Note_off_c, 1, 63, 100
3, 314112, Control_c, 1, 64, 127
3, 314112, Note_on_c, 1, 56, 80
3, 314204, Note_off_c, 1, 56, 100
3, 314208, Note_on_c, 1, 64, 80
3, 314300, Note_off_c, 1, 64, 100
3, 314304, Note_on_c, 1, 60, 80
3, 314396, Note_off_c, 1, 60, 100
3, 314400, Note_on_c, 1, 64, 80
3, 314488, Control_c, 1, 64, 0
3, 314492, Note_off_c, 1, 64, 100
3, 314496, Control_c, 1, 64, 127
3, 314496, Note_on_c, 1, 56, 80
3, 314588, Note_off_c, 1, 56, 100
3, 314592, Note_on_c, 1, 65, 80
3, 314684, Note_off_c, 1, 65, 100
3, 314688, Note_on_c, 1, 60, 80
3, 314780, Note_off_c, 1, 60, 100
3, 314784, Note_on_c, 1, 65, 80
3, 314872, Control_c, 1, 64, 0
3, 314876, Note_off_c, 1, 65, 100
3, 314880, Control_c, 1, 64, 127
3, 314880, Note_on_c, 1, 56, 80
3, 314972, Note_off_c, 1, 56, 100
3, 314976, Note_on_c, 1, 65, 80
3, 315068, Note_off_c, 1, 65, 100
3, 315072, Note_on_c, 1, 60, 80
3, 315164, Note_off_c, 1, 60, 100
3, 315168, Note_on_c, 1, 65, 80
3, 315256, Control_c, 1, 64, 0
3, 315260, Note_off_c, 1, 65, 100
3, 315264, Control_c, 1, 64, 127
3, 315264, Note_on_c, 1, 57, 80
3, 315356, Note_off_c, 1, 57, 100
3, 315360, Note_on_c, 1, 65, 80
3, 315452, Note_off_c, 1, 65, 100
3, 315456, Note_on_c, 1, 63, 80
3, 315548, Note_off_c, 1, 63, 100
3, 315552, Note_on_c, 1, 65, 80
3, 315640, Control_c, 1, 64, 0
3, 315644, Note_off_c, 1, 65, 100
3, 315648, Control_c, 1, 64, 127
3, 315648, Note_on_c, 1, 58, 80
3, 315740, Note_off_c, 1, 58, 100
3, 315744, Note_on_c, 1, 65, 80
3, 315836, Note_off_c, 1, 65, 100
3, 315840, Note_on_c, 1, 62, 80
3, 315932, Note_off_c, 1, 62, 100
3, 315936, Note_on_c, 1, 65, 80
3, 316024, Control_c, 1, 64, 0
3, 316028, Note_off_c, 1, 65, 100
3, 316032, Control_c, 1, 64, 127
3, 316032, Note_on_c, 1, 53, 80
3, 316124, Note_off_c, 1, 53, 100
3, 316128, Note_on_c, 1, 62, 80
3, 316220, Note_off_c, 1, 62, 100
3, 316224, Note_on_c, 1, 58, 80
3, 316316, Note_off_c, 1, 58, 100
3, 316320, Note_on_c, 1, 62, 80
3, 316408, Control_c, 1, 64, 0
3, 316412, Note_off_c, 1, 62, 100
3, 316416, Control_c, 1, 64, 127
3, 316416, Note_on_c, 1, 50, 80
3, 316508, Note_off_c, 1, 50, 100
3, 316512, Note_on_c, 1, 58, 80
3, 316604, Note_off_c, 1, 58, 100
3, 316608, Note_on_c, 1, 53, 80
3, 316700, Note_off_c, 1, 53, 100
3, 316704, Note_on_c, 1, 58, 80
3, 316792, Control_c, 1, 64, 0
3, 316796, Note_off_c, 1, 58, 100
3, 316800, Control_c, 1, 64, 127
3, 316800, Note_on_c, 1, 46, 80
3, 316892, Note_off_c, 1, 46, 100
3, 316896, Note_on_c, 1, 56, 80
3, 316988, Note_off_c, 1, 56, 100
3, 316992, Note_on_c, 1, 53, 80
3, 317084, Note_off_c, 1, 53, 100
3, 317088, Note_on_c, 1, 56, 80
3, 317176, Control_c, 1, 64, 0
3, 317180, Note_off_c, 1, 56, 100
3, 317184, Control_c, 1, 64, 127
3, 317184, Note_on_c, 1, 46, 80
3, 317276, Note_off_c, 1, 46, 100
3, 317280, Note_on_c, 1, 56, 80
3, 317372, Note_off_c, 1, 56, 100
3, 317376, Note_on_c, 1, 53, 80
3, 317468, Note_off_c, 1, 53, 100
3, 317472, Note_on_c, 1, 56, 80
3, 317560, Control_c, 1, 64, 0
3, 317564, Note_off_c, 1, 56, 100
3, 317568, Control_c, 1, 64, 127
3, 317568, Note_on_c, 1, 47, 80
3, 317660, Note_off_c, 1, 47, 100
3, 317664, Note_on_c, 1, 56, 80
3, 317756, Note_off_c, 1, 56, 100
3, 317760, Note_on_c, 1, 50, 80
3, 317852, Note_off_c, 1, 50, 100
3, 317856, Note_on_c, 1, 56, 80
3, 317944, Control_c, 1, 64, 0
3, 317948, Note_off_c, 1, 56, 100
3, 317952, Control_c, 1, 64, 127
3, 317952, Note_on_c, 1, 48, 80
3, 318044, Note_off_c, 1, 48, 100
3, 318048, Note_on_c, 1, 55, 80
3, 318140, Note_off_c, 1, 55, 100
3, 318144, Note_on_c, 1, 51, 80
3, 318236, Note_off_c, 1, 51, 100
3, 318240, Note_on_c, 1, 55, 80
3, 318328, Control_c, 1, 64, 0
3, 318332, Note_off_c, 1, 55, 100
3, 318336, Control_c, 1, 64, 127
3, 318336, Note_on_c, 1, 44, 80
3, 318428, Note_off_c, 1, 44, 100
3, 318432, Note_on_c, 1, 53, 80
3, 318524, Note_off_c, 1, 53, 100
3, 318528, Note_on_c, 1, 48, 80
3, 318620, Note_off_c, 1, 48, 100
3, 318624, Note_on_c, 1, 53, 80
3, 318712, Control_c, 1, 64, 0
3, 318716, Note_off_c, 1, 53, 100
3, 318720, Control_c, 1, 64, 127
3, 318720, Note_on_c, 1, 46, 80
3, 318812, Note_off_c, 1, 46, 100
3, 318816, Note_on_c, 1, 53, 80
3, 318908, Note_off_c, 1, 53, 100
3, 318912, Note_on_c, 1, 50, 80
3, 319004, Note_off_c, 1, 50, 100
3, 319008, Note_on_c, 1, 56, 80
3, 319096, Control_c, 1, 64, 0
3, 319100, Note_off_c, 1, 56, 100
3, 319104, Note_on_c, 1, 51, 80
3, 319196, Note_off_c, 1, 51, 100
3, 319200, Note_on_c, 1, 55, 80
3, 319292, Note_off_c, 1, 55, 100
3, 319296, Note_on_c, 1, 56, 80
3, 319388, Note_off_c, 1, 56, 100
3, 319392, Note_on_c, 1, 58, 80
3, 319484, Note_off_c, 1, 58, 100
3, 320448, Note_on_c, 1, 58, 80
3, 320448, Note_on_c, 1, 53, 80
3, 320448, Note_on_c, 1, 50, 80
3, 320636, Note_off_c, 1, 58, 100
3, 320636, Note_off_c, 1, 53, 100
3, 320636, Note_off_c, 1, 50, 100
3, 320640, Note_on_c, 1, 58, 80
3, 320640, Note_on_c, 1, 53, 80
3, 320640, Note_on_c, 1, 50, 80
3, 320828, Note_off_c, 1, 58, 100
3, 320828, Note_off_c, 1, 53, 100
3, 320828, Note_off_c, 1, 50, 100
3, 320832, Note_on_c, 1, 58, 80
3, 320832, Note_on_c, 1, 53, 80
3, 320832, Note_on_c, 1, 50, 80
3, 321020, Note_off_c, 1, 58, 100
3, 321020, Note_off_c, 1, 53, 100
3, 321020, Note_off_c, 1, 50, 100
3, 321024, Note_on_c, 1, 58, 80
3, 321024, Note_on_c, 1, 53, 80
3, 321024, Note_on_c, 1, 50, 80
3, 321212, Note_off_c, 1, 58, 100
3, 321212, Note_off_c, 1, 53, 100
3, 321212, Note_off_c, 1, 50, 100
3, 321216, Note_on_c, 1, 58, 80
3, 321216, Note_on_c, 1, 53, 80
3, 321216, Note_on_c, 1, 50, 80
3, 321404, Note_off_c, 1, 58, 100
3, 321404, Note_off_c, 1, 53, 100
3, 321404, Note_off_c, 1, 50, 100
3, 321408, Note_on_c, 1, 63, 80
3, 321500, Note_off_c, 1, 63, 100
3, 321504, Note_on_c, 1, 67, 80
3, 321596, Note_off_c, 1, 67, 100
3, 321600, Note_on_c, 1, 68, 80
3, 321692, Note_off_c, 1, 68, 100
3, 321696, Note_on_c, 1, 70, 80
3, 321788, Note_off_c, 1, 70, 100
3, 322752, Note_on_c, 1, 70, 80
3, 322752, Note_on_c, 1, 65, 80
3, 322752, Note_on_c, 1, 62, 80
3, 322940, Note_off_c, 1, 70, 100
3, 322940, Note_off_c, 1, 65, 100
3, 322940, Note_off_c, 1, 62, 100
3, 322944, Note_on_c, 1, 70, 80
3, 322944, Note_on_c, 1, 65, 80
3, 322944, Note_on_c, 1, 62, 80
3, 323132, Note_off_c, 1, 70, 100
3, 323132, Note_off_c, 1, 65, 100
3, 323132, Note_off_c, 1, 62, 100
3, 323136, Note_on_c, 1, 70, 80
3, 323136, Note_on_c, 1, 65, 80
3, 323136, Note_on_c, 1, 62, 80
3, 323324, Note_off_c, 1, 70, 100
3, 323324, Note_off_c, 1, 65, 100
3, 323324, Note_off_c, 1, 62, 100
3, 323328, Note_on_c, 1, 70, 80
3, 323328, Note_on_c, 1, 65, 80
3, 323328, Note_on_c, 1, 62, 80
3, 323516, Note_off_c, 1, 70, 100
3, 323516, Note_off_c, 1, 65, 100
3, 323516, Note_off_c, 1, 62, 100
3, 323520, Note_on_c, 1, 70, 80
3, 323520, Note_on_c, 1, 65, 80
3, 323520, Note_on_c, 1, 62, 80
3, 323708, Note_off_c, 1, 70, 100
3, 323708, Note_off_c, 1, 65, 100
3, 323708, Note_off_c, 1, 62, 100
3, 323904, Note_on_c, 1, 67, 82
3, 323904, Note_on_c, 1, 63, 82
3, 324092, Note_off_c, 1, 67, 100
3, 324092, Note_off_c, 1, 63, 100
3, 324288, Note_on_c, 1, 67, 84
3, 324288, Note_on_c, 1, 62, 84
3, 324288, Note_on_c, 1, 59, 84
3, 324476, Note_off_c, 1, 67, 100
3, 324476, Note_off_c, 1, 62, 100
3, 324476, Note_off_c, 1, 59, 100
3, 324672, Note_on_c, 1, 67, 86
3, 324672, Note_on_c, 1, 63, 86
3, 324672, Note_on_c, 1, 60, 86
3, 324860, Note_off_c, 1, 67, 100
3, 324860, Note_off_c, 1, 63, 100
3, 324860, Note_off_c, 1, 60, 100
3, 325056, Note_on_c, 1, 63, 88
3, 325056, Note_on_c, 1, 58, 88
3, 325056, Note_on_c, 1, 55, 88
3, 325244, Note_off_c, 1, 63, 100
3, 325244, Note_off_c, 1, 58, 100
3, 325244, Note_off_c, 1, 55, 100
3, 325440, Note_on_c, 1, 63, 90
3, 325440, Note_on_c, 1, 60, 90
3, 325440, Note_on_c, 1, 56, 90
3, 325628, Note_off_c, 1, 63, 100
3, 325628, Note_off_c, 1, 60, 100
3, 325628, Note_off_c, 1, 56, 100
3, 325824, Note_on_c, 1, 60, 92
3, 325824, Note_on_c, 1, 55, 92
3, 325824, Note_on_c, 1, 52, 92
3, 326012, Note_off_c, 1, 60, 100
3, 326012, Note_off_c, 1, 55, 100
3, 326012, Note_off_c, 1, 52, 100
3, 326208, Note_on_c, 1, 60, 94
3, 326208, Note_on_c, 1, 57, 94
3, 326208, Note_on_c, 1, 53, 94
3, 326396, Note_off_c, 1, 60, 100
3, 326396, Note_off_c, 1, 57, 100
3, 326396, Note_off_c, 1, 53, 100
3, 326592, Note_on_c, 1, 58, 96
3, 326592, Note_on_c, 1, 53, 96
3, 326592, Note_on_c, 1, 50, 96
3, 326780, Note_off_c, 1, 58, 100
3, 326780, Note_off_c, 1, 53, 100
3, 326780, Note_off_c, 1, 50, 100
3, 326976, Note_on_c, 1, 55, 98
3, 326976, Note_on_c, 1, 51, 98
3, 326976, Note_on_c, 1, 58, 98
3, 327164, Note_off_c, 1, 55, 100
3, 327164, Note_off_c, 1, 51, 100
3, 327164, Note_off_c, 1, 58, 100
3, 327360, Note_on_c, 1, 55, 100
3, 327360, Note_on_c, 1, 50, 100
3, 327360, Note_on_c, 1, 47, 100
3, 327548, Note_off_c, 1, 55, 100
3, 327548, Note_off_c, 1, 50, 100
3, 327548, Note_off_c, 1, 47, 100
3, 327744, Note_on_c, 1, 55, 102
3, 327744, Note_on_c, 1, 51, 102
3, 327744, Note_on_c, 1, 48, 102
3, 327932, Note_off_c, 1, 55, 100
3, 327932, Note_off_c, 1, 51, 100
3, 327932, Note_off_c, 1, 48, 100
3, 328128, Note_on_c, 1, 51, 104
3, 328128, Note_on_c, 1, 46, 104
3, 328128, Note_on_c, 1, 43, 104
3, 328316, Note_off_c, 1, 51, 100
3, 328316, Note_off_c, 1, 46, 100
3, 328316, Note_off_c, 1, 43, 100
3, 328512, Note_on_c, 1, 51, 106
3, 328512, Note_on_c, 1, 48, 106
3, 328512, Note_on_c, 1, 44, 106
3, 328700, Note_off_c, 1, 51, 100
3, 328700, Note_off_c, 1, 48, 100
3, 328700, Note_off_c, 1, 44, 100
3, 328896, Note_on_c, 1, 48, 108
3, 328896, Note_on_c, 1, 43, 108
3, 328896, Note_on_c, 1, 40, 108
3, 329084, Note_off_c, 1, 48, 100
3, 329084, Note_off_c, 1, 43, 100
3, 329084, Note_off_c, 1, 40, 100
3, 329280, Note_on_c, 1, 48, 110
3, 329280, Note_on_c, 1, 45, 110
3, 329280, Note_on_c, 1, 41, 110
3, 329468, Note_off_c, 1, 48, 100
3, 329468, Note_off_c, 1, 45, 100
3, 329468, Note_off_c, 1, 41, 100
3, 329664, Note_on_c, 1, 46, 110
3, 329664, Note_on_c, 1, 41, 110
3, 329664, Note_on_c, 1, 38, 110
3, 329852, Note_off_c, 1, 46, 100
3, 329852, Note_off_c, 1, 41, 100
3, 329852, Note_off_c, 1, 38, 100
3, 330048, Note_on_c, 1, 46, 110
3, 330048, Note_on_c, 1, 43, 110
3, 330048, Note_on_c, 1, 39, 110
3, 330236, Note_off_c, 1, 46, 100
3, 330236, Note_off_c, 1, 43, 100
3, 330236, Note_off_c, 1, 39, 100
3, 330432, Note_on_c, 1, 46, 85
3, 330432, Note_on_c, 1, 41, 85
3, 330432, Note_on_c, 1, 38, 85
3, 330620, Note_off_c, 1, 46, 100
3, 330620, Note_off_c, 1, 41, 100
3, 330620, Note_off_c, 1, 38, 100
3, 330816, Note_on_c, 1, 46, 110
3, 330816, Note_on_c, 1, 43, 110
3, 330816, Note_on_c, 1, 39, 110
3, 331004, Note_off_c, 1, 46, 100
3, 331004, Note_off_c, 1, 43, 100
3, 331004, Note_off_c, 1, 39, 100
3, 331200, Note_on_c, 1, 46, 110
3, 331200, Note_on_c, 1, 41, 110
3, 331200, Note_on_c, 1, 38, 110
3, 331388, Note_off_c, 1, 46, 100
3, 331388, Note_off_c, 1, 41, 100
3, 331388, Note_off_c, 1, 38, 100
3, 331584, Note_on_c, 1, 46, 110
3, 331584, Note_on_c, 1, 43, 110
3, 331584, Note_on_c, 1, 39, 110
3, 331772, Note_off_c, 1, 46, 100
3, 331772, Note_off_c, 1, 43, 100
3, 331772, Note_off_c, 1, 39, 100
3, 331968, Note_on_c, 1, 46, 85
3, 331968, Note_on_c, 1, 41, 85
3, 331968, Note_on_c, 1, 38, 85
3, 332156, Note_off_c, 1, 46, 100
3, 332156, Note_off_c, 1, 41, 100
3, 332156, Note_off_c, 1, 38, 100
3, 332352, Note_on_c, 1, 46, 110
3, 332352, Note_on_c, 1, 43, 110
3, 332352, Note_on_c, 1, 39, 110
3, 332540, Note_off_c, 1, 46, 100
3, 332540, Note_off_c, 1, 43, 100
3, 332540, Note_off_c, 1, 39, 100
3, 332736, Note_on_c, 1, 46, 110
3, 332736, Note_on_c, 1, 41, 110
3, 332736, Note_on_c, 1, 38, 110
3, 332924, Note_off_c, 1, 46, 100
3, 332924, Note_off_c, 1, 41, 100
3, 332924, Note_off_c, 1, 38, 100
3, 332928, Note_on_c, 1, 46, 80
3, 332928, Note_on_c, 1, 43, 80
3, 332928, Note_on_c, 1, 39, 80
3, 333116, Note_off_c, 1, 46, 100
3, 333116, Note_off_c, 1, 43, 100
3, 333116, Note_off_c, 1, 39, 100
3, 336576, Note_on_c, 1, 58, 80
3, 336764, Note_off_c, 1, 58, 100
3, 336768, Note_on_c, 1, 63, 80
3, 336956, Note_off_c, 1, 63, 100
3, 336960, Note_on_c, 1, 67, 80
3, 337148, Note_off_c, 1, 67, 100
3, 337152, Note_on_c, 1, 70, 80
3, 337340, Note_off_c, 1, 70, 100
3, 338112, Note_on_c, 1, 34, 80
3, 338300, Note_off_c, 1, 34, 100
3, 338304, Note_on_c, 1, 39, 90
3, 338492, Note_off_c, 1, 39, 100
3, 338496, Note_on_c, 1, 43, 100
3, 338684, Note_off_c, 1, 43, 100
3, 338688, Note_on_c, 1, 46, 110
3, 338876, Note_off_c, 1, 46, 100
3, 338880, Note_on_c, 1, 51, 110
3, 339068, Note_off_c, 1, 51, 100
3, 339072, Note_on_c, 1, 55, 110
3, 339260, Note_off_c, 1, 55, 100
3, 339264, Note_on_c, 1, 58, 110
3, 339452, Note_off_c, 1, 58, 100
3, 339456, Note_on_c, 1, 63, 110
3, 339644, Note_off_c, 1, 63, 100
3, 339648, Note_on_c, 1, 67, 110
3, 339836, Note_off_c, 1, 67, 100
3, 339840, Note_on_c, 1, 70, 110
3, 340220, Note_off_c, 1, 70, 100
3, 341184, Note_on_c, 1, 58, 81
3, 341372, Note_off_c, 1, 58, 100
3, 341376, Note_on_c, 1, 62, 83
3, 341564, Note_off_c, 1, 62, 100
3, 341568, Note_on_c, 1, 65, 85
3, 341756, Note_off_c, 1, 65, 100
3, 341760, Note_on_c, 1, 68, 87
3, 341948, Note_off_c, 1, 68, 100
3, 341952, Note_on_c, 1, 46, 88
3, 342140, Note_off_c, 1, 46, 100
3, 342144, Note_on_c, 1, 50, 90
3, 342332, Note_off_c, 1, 50, 100
3, 342336, Note_on_c, 1, 53, 92
3, 342524, Note_off_c, 1, 53, 100
3, 342528, Note_on_c, 1, 56, 94
3, 342716, Note_off_c, 1, 56, 100
3, 342720, Note_on_c, 1, 47, 95
3, 342908, Note_off_c, 1, 47, 100
3, 342912, Note_on_c, 1, 50, 97
3, 343100, Note_off_c, 1, 50, 100
3, 343104, Note_on_c, 1, 53, 99
3, 343292, Note_off_c, 1, 53, 100
3, 343296, Note_on_c, 1, 56, 101
3, 343484, Note_off_c, 1, 56, 100
3, 343488, Note_on_c, 1, 46, 103
3, 343676, Note_off_c, 1, 46, 100
3, 343680, Note_on_c, 1, 50, 104
3, 343868, Note_off_c, 1, 50, 100
3, 343872, Note_on_c, 1, 53, 106
3, 344060, Note_off_c, 1, 53, 100
3, 344064, Note_on_c, 1, 56, 108
3, 344252, Note_off_c, 1, 56, 100
3, 344256, Note_on_c, 1, 58, 110
3, 344444, Note_off_c, 1, 58, 100
3, 344448, Note_on_c, 1, 62, 110
3, 344636, Note_off_c, 1, 62, 100
3, 344640, Note_on_c, 1, 65, 110
3, 344828, Note_off_c, 1, 65, 100
3, 344832, Note_on_c, 1, 68, 110
3, 345020, Note_off_c, 1, 68, 100
3, 345024, Note_on_c, 1, 58, 110
3, 345212, Note_off_c, 1, 58, 100
3, 345216, Note_on_c, 1, 68, 110
3, 345404, Note_off_c, 1, 68, 100
3, 345408, Note_on_c, 1, 58, 110
3, 345596, Note_off_c, 1, 58, 100
3, 345600, Note_on_c, 1, 67, 110
3, 345600, Note_on_c, 1, 63, 110
3, 345980, Note_off_c, 1, 67, 100
3, 345980, Note_off_c, 1, 63, 100
3, 346752, Note_on_c, 1, 63, 80
3, 346752, Note_on_c, 1, 60, 80
3, 347900, Note_off_c, 1, 63, 100
3, 347900, Note_off_c, 1, 60, 100
3, 347904, Note_on_c, 1, 65, 80
3, 347904, Note_on_c, 1, 56, 80
3, 349052, Note_off_c, 1, 65, 100
3, 349052, Note_off_c, 1, 56, 100
3, 349056, Note_on_c, 1, 65, 80
3, 349056, Note_on_c, 1, 58, 80
3, 349436, Note_off_c, 1, 65, 100
3, 349436, Note_off_c, 1, 58, 100
3, 349440, Note_on_c, 1, 65, 80
3, 349440, Note_on_c, 1, 58, 80
3, 349820, Note_off_c, 1, 65, 100
3, 349820, Note_off_c, 1, 58, 100
3, 349824, Note_on_c, 1, 58, 80
3, 349824, Note_on_c, 1, 65, 80
3, 350012, Note_off_c, 1, 65, 100
3, 350016, Note_on_c, 1, 62, 80
3, 350204, Note_off_c, 1, 58, 100
3, 350204, Note_off_c, 1, 62, 100
3, 350208, Note_on_c, 1, 63, 80
3, 350208, Note_on_c, 1, 51, 80
3, 350396, Note_off_c, 1, 63, 100
3, 350396, Note_off_c, 1, 51, 100
3, 350400, Note_on_c, 1, 51, 80
3, 350588, Note_off_c, 1, 51, 100
3, 350592, Note_on_c, 1, 52, 80
3, 350780, Note_off_c, 1, 52, 100
3, 350784, Note_on_c, 1, 53, 80
3, 350972, Note_off_c, 1, 53, 100
3, 350976, Note_on_c, 1, 54, 80
3, 351164, Note_off_c, 1, 54, 100
3, 351168, Note_on_c, 1, 55, 80
3, 351356, Note_off_c, 1, 55, 100
3, 351360, Note_on_c, 1, 56, 80
3, 352508, Note_off_c, 1, 56, 100
3, 352512, Note_on_c, 1, 44, 80
3, 352512, Note_on_c, 1, 48, 80
3, 353276, Note_off_c, 1, 48, 100
3, 353280, Note_on_c, 1, 49, 80
3, 353468, Note_off_c, 1, 49, 100
3, 353472, Note_on_c, 1, 51, 80
3, 353660, Note_off_c, 1, 44, 100
3, 353660, Note_off_c, 1, 51, 100
3, 353664, Note_on_c, 1, 49, 80
3, 353664, Note_on_c, 1, 46, 80
3, 353664, Note_on_c, 1, 44, 80
3, 353664, Note_on_c, 1, 37, 80
3, 354428, Note_off_c, 1, 49, 100
3, 354428, Note_off_c, 1, 46, 100
3, 354428, Note_off_c, 1, 44, 100
3, 354428, Note_off_c, 1, 37, 100
3, 354816, Note_on_c, 1, 49, 80
3, 354816, Note_on_c, 1, 46, 80
3, 354816, Note_on_c, 1, 44, 80
3, 354816, Note_on_c, 1, 37, 80
3, 355580, Note_off_c, 1, 49, 100
3, 355580, Note_off_c, 1, 46, 100
3, 355580, Note_off_c, 1, 44, 100
3, 355580, Note_off_c, 1, 37, 100
3, 355968, Note_on_c, 1, 49, 80
3, 355968, Note_on_c, 1, 37, 80
3, 356348, Note_off_c, 1, 49, 100
3, 356348, Note_off_c, 1, 37, 100
3, 356352, Note_on_c, 1, 49, 80
3, 356352, Note_on_c, 1, 37, 80
3, 356732, Note_off_c, 1, 49, 100
3, 356732, Note_off_c, 1, 37, 100
3, 356736, Note_on_c, 1, 49, 80
3, 356736, Note_on_c, 1, 37, 80
3, 357116, Note_off_c, 1, 49, 100
3, 357116, Note_off_c, 1, 37, 100
3, 357120, Note_on_c, 1, 50, 80
3, 357120, Note_on_c, 1, 38, 80
3, 358268, Note_off_c, 1, 50, 100
3, 358268, Note_off_c, 1, 38, 100
3, 358272, Note_on_c, 1, 62, 80
3, 358652, Note_off_c, 1, 62, 100
3, 358656, Note_on_c, 1, 62, 80
3, 359036, Note_off_c, 1, 62, 100
3, 359040, Note_on_c, 1, 62, 80
3, 359420, Note_off_c, 1, 62, 100
3, 359424, Note_on_c, 1, 63, 80
3, 360188, Note_off_c, 1, 63, 100
3, 360192, Note_on_c, 1, 51, 80
3, 360192, Note_on_c, 1, 39, 80
3, 360572, Note_off_c, 1, 51, 100
3, 360572, Note_off_c, 1, 39, 100
3, 360576, Note_on_c, 1, 52, 81
3, 360576, Note_on_c, 1, 40, 81
3, 360956, Note_off_c, 1, 52, 100
3, 360956, Note_off_c, 1, 40, 100
3, 361344, Note_on_c, 1, 64, 84
3, 361724, Note_off_c, 1, 64, 100
3, 361728, Note_on_c, 1, 65, 85
3, 362108, Note_off_c, 1, 65, 100
3, 362496, Note_on_c, 1, 53, 88
3, 362496, Note_on_c, 1, 41, 88
3, 362876, Note_off_c, 1, 53, 100
3, 362876, Note_off_c, 1, 41, 100
3, 362880, Note_on_c, 1, 54, 89
3, 362880, Note_on_c, 1, 42, 89
3, 363260, Note_off_c, 1, 54, 100
3, 363260, Note_off_c, 1, 42, 100
3, 363648, Note_on_c, 1, 66, 92
3, 364028, Note_off_c, 1, 66, 100
3, 364032, Note_on_c, 1, 67, 94
3, 364412, Note_off_c, 1, 67, 100
3, 364800, Note_on_c, 1, 55, 96
3, 364800, Note_on_c, 1, 43, 96
3, 365180, Note_off_c, 1, 55, 100
3, 365180, Note_off_c, 1, 43, 100
3, 365184, Note_on_c, 1, 56, 98
3, 365184, Note_on_c, 1, 44, 98
3, 365564, Note_off_c, 1, 56, 100
3, 365564, Note_off_c, 1, 44, 100
3, 365568, Note_on_c, 1, 56, 99
3, 365568, Note_on_c, 1, 44, 99
3, 365948, Note_off_c, 1, 56, 100
3, 365948, Note_off_c, 1, 44, 100
3, 365952, Note_on_c, 1, 56, 101
3, 365952, Note_on_c, 1, 44, 101
3, 366332, Note_off_c, 1, 56, 100
3, 366332, Note_off_c, 1, 44, 100
3, 366336, Note_on_c, 1, 45, 102
3, 366336, Note_on_c, 1, 57, 102
3, 367484, Note_off_c, 1, 45, 100
3, 367484, Note_off_c, 1, 57, 100
3, 367488, Note_on_c, 1, 69, 106
3, 367868, Note_off_c, 1, 69, 100
3, 367872, Note_on_c, 1, 69, 108
3, 368252, Note_off_c, 1, 69, 100
3, 368256, Note_on_c, 1, 69, 109
3, 368636, Note_off_c, 1, 69, 100
3, 368640, Note_on_c, 1, 70, 110
3, 369788, Note_off_c, 1, 70, 100
3, 369792, Note_on_c, 1, 46, 80
3, 369792, Note_on_c, 1, 34, 80
3, 370172, Note_off_c, 1, 46, 100
3, 370172, Note_off_c, 1, 34, 100
3, 370176, Note_on_c, 1, 46, 80
3, 370176, Note_on_c, 1, 34, 80
3, 370556, Note_off_c, 1, 46, 100
3, 370556, Note_off_c, 1, 34, 100
3, 370560, Note_on_c, 1, 46, 80
3, 370560, Note_on_c, 1, 34, 80
3, 370940, Note_off_c, 1, 46, 100
3, 370940, Note_off_c, 1, 34, 100
3, 370944, Note_on_c, 1, 51, 80
3, 370944, Note_on_c, 1, 39, 80
3, 371324, Note_off_c, 1, 51, 100
3, 371324, Note_off_c, 1, 39, 100
3, 373248, Note_on_c, 1, 75, 80
3, 373248, Note_on_c, 1, 72, 80
3, 373248, Note_on_c, 1, 68, 80
3, 374396, Note_off_c, 1, 75, 100
3, 374396, Note_off_c, 1, 72, 100
3, 374396, Note_off_c, 1, 68, 100
3, 374400, Note_on_c, 1, 63, 80
3, 374400, Note_on_c, 1, 60, 80
3, 374400, Note_on_c, 1, 56, 80
3, 375548, Note_off_c, 1, 63, 100
3, 375548, Note_off_c, 1, 60, 100
3, 375548, Note_off_c, 1, 56, 100
3, 375552, Note_on_c, 1, 44, 80
3, 375552, Note_on_c, 1, 32, 80
3, 375932, Note_off_c, 1, 44, 100
3, 375932, Note_off_c, 1, 32, 100
3, 375936, Note_on_c, 1, 44, 83
3, 375936, Note_on_c, 1, 32, 83
3, 376316, Note_off_c, 1, 44, 100
3, 376316, Note_off_c, 1, 32, 100
3, 376320, Note_on_c, 1, 44, 86
3, 376320, Note_on_c, 1, 32, 86
3, 376700, Note_off_c, 1, 44, 100
3, 376700, Note_off_c, 1, 32, 100
3, 376704, Note_on_c, 1, 45, 90
3, 376704, Note_on_c, 1, 33, 90
3, 377852, Note_off_c, 1, 45, 100
3, 377852, Note_off_c, 1, 33, 100
3, 377856, Note_on_c, 1, 69, 100
3, 377856, Note_on_c, 1, 72, 100
3, 378236, Note_off_c, 1, 69, 100
3, 378236, Note_off_c, 1, 72, 100
3, 378240, Note_on_c, 1, 69, 104
3, 378240, Note_on_c, 1, 72, 104
3, 378620, Note_off_c, 1, 69, 100
3, 378620, Note_off_c, 1, 72, 100
3, 378624, Note_on_c, 1, 69, 107
3, 378624, Note_on_c, 1, 72, 107
3, 379004, Note_off_c, 1, 69, 100
3, 379004, Note_off_c, 1, 72, 100
3, 379008, Note_on_c, 1, 70, 110
3, 379388, Note_off_c, 1, 70, 100
3, 379776, Note_on_c, 1, 72, 80
3, 379776, Note_on_c, 1, 69, 80
3, 380156, Note_off_c, 1, 72, 100
3, 380156, Note_off_c, 1, 69, 100
3, 380160, Note_on_c, 1, 70, 80
3, 380540, Note_off_c, 1, 70, 100
3, 380928, Note_on_c, 1, 72, 80
3, 380928, Note_on_c, 1, 69, 80
3, 381308, Note_off_c, 1, 72, 100
3, 381308, Note_off_c, 1, 69, 100
3, 381312, Note_on_c, 1, 70, 80
3, 381692, Note_off_c, 1, 70, 100
3, 382464, Note_on_c, 1, 68, 92
3, 382464, Note_on_c, 1, 65, 92
3, 382464, Note_on_c, 1, 58, 92
3, 382844, Note_off_c, 1, 68, 100
3, 382844, Note_off_c, 1, 65, 100
3, 382844, Note_off_c, 1, 58, 100
3, 383232, Note_on_c, 1, 56, 104
3, 383232, Note_on_c, 1, 50, 104
3, 383232, Note_on_c, 1, 46, 104
3, 383612, Note_off_c, 1, 56, 100
3, 383612, Note_off_c, 1, 50, 100
3, 383612, Note_off_c, 1, 46, 100
3, 383616, Note_on_c, 1, 51, 110
3, 383708, Note_off_c, 1, 51, 100
3, 383712, Note_on_c, 1, 53, 80
3, 383804, Note_off_c, 1, 53, 100
3, 383808, Note_on_c, 1, 51, 80
3, 383900, Note_off_c, 1, 51, 100
3, 383904, Note_on_c, 1, 50, 80
3, 383996, Note_off_c, 1, 50, 100
3, 384000, Note_on_c, 1, 51, 80
3, 384092, Note_off_c, 1, 51, 100
3, 384096, Note_on_c, 1, 53, 80
3, 384188, Note_off_c, 1, 53, 100
3, 384192, Note_on_c, 1, 55, 80
3, 384284, Note_off_c, 1, 55, 100
3, 384288, Note_on_c, 1, 56, 80
3, 384380, Note_off_c, 1, 56, 100
3, 384384, Note_on_c, 1, 58, 80
3, 384572, Note_off_c, 1, 58, 100
3, 384576, Note_on_c, 1, 55, 80
3, 384764, Note_off_c, 1, 55, 100
3, 384768, Note_on_c, 1, 53, 80
3, 384956, Note_off_c, 1, 53, 100
3, 384960, Note_on_c, 1, 56, 80
3, 385148, Note_off_c, 1, 56, 100
3, 385152, Note_on_c, 1, 50, 80
3, 385340, Note_off_c, 1, 50, 100
3, 385344, Note_on_c, 1, 53, 80
3, 385532, Note_off_c, 1, 53, 100
3, 385536, Note_on_c, 1, 46, 80
3, 385724, Note_off_c, 1, 46, 100
3, 385728, Note_on_c, 1, 50, 80
3, 385916, Note_off_c, 1, 50, 100
3, 385920, Note_on_c, 1, 51, 80
3, 386012, Note_off_c, 1, 51, 100
3, 386016, Note_on_c, 1, 53, 80
3, 386108, Note_off_c, 1, 53, 100
3, 386112, Note_on_c, 1, 51, 80
3, 386204, Note_off_c, 1, 51, 100
3, 386208, Note_on_c, 1, 50, 80
3, 386300, Note_off_c, 1, 50, 100
3, 386304, Note_on_c, 1, 51, 80
3, 386396, Note_off_c, 1, 51, 100
3, 386400, Note_on_c, 1, 53, 80
3, 386492, Note_off_c, 1, 53, 100
3, 386496, Note_on_c, 1, 55, 80
3, 386588, Note_off_c, 1, 55, 100
3, 386592, Note_on_c, 1, 56, 80
3, 386684, Note_off_c, 1, 56, 100
3, 386688, Note_on_c, 1, 60, 80
3, 386780, Note_off_c, 1, 60, 100
3, 386784, Note_on_c, 1, 58, 80
3, 386876, Note_off_c, 1, 58, 100
3, 386880, Note_on_c, 1, 56, 80
3, 386972, Note_off_c, 1, 56, 100
3, 386976, Note_on_c, 1, 55, 80
3, 387068, Note_off_c, 1, 55, 100
3, 387072, Note_on_c, 1, 53, 80
3, 387260, Note_off_c, 1, 53, 100
3, 387264, Note_on_c, 1, 56, 80
3, 387452, Note_off_c, 1, 56, 100
3, 387456, Note_on_c, 1, 50, 80
3, 387644, Note_off_c, 1, 50, 100
3, 387648, Note_on_c, 1, 53, 80
3, 387836, Note_off_c, 1, 53, 100
3, 387840, Note_on_c, 1, 46, 80
3, 388028, Note_off_c, 1, 46, 100
3, 388032, Note_on_c, 1, 50, 80
3, 388220, Note_off_c, 1, 50, 100
3, 388224, Note_on_c, 1, 51, 80
3, 388412, Note_off_c, 1, 51, 100
3, 388416, Note_on_c, 1, 46, 80
3, 388604, Note_off_c, 1, 46, 100
3, 388608, Note_on_c, 1, 43, 80
3, 388796, Note_off_c, 1, 43, 100
3, 388800, Note_on_c, 1, 51, 80
3, 388988, Note_off_c, 1, 51, 100
3, 388992, Note_on_c, 1, 46, 80
3, 389180, Note_off_c, 1, 46, 100
3, 389184, Note_on_c, 1, 55, 80
3, 389372, Note_off_c, 1, 55, 100
3, 389376, Note_on_c, 1, 51, 80
3, 389564, Note_off_c, 1, 51, 100
3, 389568, Note_on_c, 1, 58, 80
3, 389756, Note_off_c, 1, 58, 100
3, 389760, Note_on_c, 1, 55, 80
3, 389948, Note_off_c, 1, 55, 100
3, 389952, Note_on_c, 1, 63, 80
3, 390140, Note_off_c, 1, 63, 100
3, 390144, Note_on_c, 1, 58, 80
3, 390332, Note_off_c, 1, 58, 100
3, 390336, Note_on_c, 1, 67, 80
3, 390524, Note_off_c, 1, 67, 100
3, 390528, Note_on_c, 1, 63, 80
3, 390716, Note_off_c, 1, 63, 100
3, 390720, Note_on_c, 1, 70, 80
3, 390908, Note_off_c, 1, 70, 100
3, 390912, Note_on_c, 1, 67, 80
3, 391100, Note_off_c, 1, 67, 100
3, 391104, Note_on_c, 1, 75, 80
3, 391292, Note_off_c, 1, 75, 100
3, 391296, Note_on_c, 1, 58, 110
3, 391296, Note_on_c, 1, 46, 110
3, 391676, Note_off_c, 1, 58, 100
3, 391676, Note_off_c, 1, 46, 100
3, 391680, Note_on_c, 1, 51, 110
3, 391680, Note_on_c, 1, 39, 110
3, 392252, Note_off_c, 1, 51, 100
3, 392252, Note_off_c, 1, 39, 100
3, 392252, End_track
0, 0, End_of_file
