0, 0, Header, 1, 3, 384
1, 0, Start_track
1, 0, Title_t, "L.v.Beethoven 2mov - Piano Sonata No.18 in Eb Major Op.31-3\000"
1, 0, Copyright_t, "Copyright(C) 1995-2009, Suzuki Software\000"
1, 0, Sequencer_specific, 9, 67, 123, 0, 88, 70, 48, 50, 0, 1
1, 0, Text_t, "XFhd:2000/07/19:JP:Classical::::L.v.Beethoven:::Kaoru Suzuki\000"
1, 0, Text_t, "XFln:JP:\203s\203A\203m\203\\\203i\203^\221æ18\224Ô\225Ï\203z\222·\222²\215ì\225i31-3\201`\221æ2\212y\217Í:L.v.\203x\201[\203g\201[\203\224\203F\203\223:::\227é\202¿\202á\202ñ:\227é\202¿\202á\202ñ\000"
1, 0, Time_signature, 2, 2, 96, 8
1, 0, Sequencer_specific, 3, 0, 0, 65
1, 0, Sequencer_specific, 5, 0, 0, 119, 14, 0
1, 0, Tempo, 666666
1, 13056, Tempo, 750000
1, 13440, Tempo, 857142
1, 14976, Tempo, 666666
1, 21696, Tempo, 731707
1, 26880, Tempo, 666666
1, 60672, Tempo, 750000
1, 61056, Tempo, 857142
1, 62592, Tempo, 666666
1, 69888, Tempo, 705882
1, 71424, Tempo, 750000
1, 73728, Tempo, 666666
1, 128256, Tempo, 750000
1, 129024, Tempo, 666666
1, 139008, Tempo, 705882
1, 142080, Tempo, 750000
1, 142464, Tempo, 857142
1, 144000, Tempo, 666666
1, 153216, Tempo, 689655
1, 154368, Tempo, 714285
1, 155712, Tempo, 666666
1, 177408, Tempo, 689655
1, 178176, Tempo, 731707
1, 178944, Tempo, 789473
1, 179520, Tempo, 1276595
1, 179520, End_track
2, 0, Start_track
2, 0, Title_t, "Right"
2, 0, Control_c, 0, 0, 0
2, 0, Program_c, 0, 0
2, 0, Control_c, 0, 7, 100
2, 0, Control_c, 0, 10, 75
2, 0, Control_c, 0, 91, 127
2, 0, Key_signature, -4, "major"
2, 0, Note_on_c, 0, 60, 80
2, 0, Note_on_c, 0, 56, 80
2, 0, Note_on_c, 0, 51, 80
2, 572, Note_off_c, 0, 60, 100
2, 572, Note_off_c, 0, 56, 100
2, 572, Note_off_c, 0, 51, 100
2, 576, Note_on_c, 0, 61, 103
2, 576, Note_on_c, 0, 55, 104
2, 576, Note_on_c, 0, 51, 102
2, 764, Note_off_c, 0, 61, 100
2, 764, Note_off_c, 0, 55, 100
2, 764, Note_off_c, 0, 51, 100
2, 768, Note_on_c, 0, 56, 80
2, 768, Note_on_c, 0, 51, 80
2, 768, Note_on_c, 0, 63, 80
2, 1340, Note_off_c, 0, 56, 100
2, 1340, Note_off_c, 0, 51, 100
2, 1340, Note_off_c, 0, 63, 100
2, 1344, Note_on_c, 0, 65, 100
2, 1344, Note_on_c, 0, 53, 100
2, 1532, Note_off_c, 0, 65, 100
2, 1536, Note_on_c, 0, 61, 80
2, 1724, Note_off_c, 0, 53, 100
2, 1724, Note_off_c, 0, 61, 100
2, 1728, Note_on_c, 0, 63, 80
2, 1728, Note_on_c, 0, 58, 80
2, 1916, Note_off_c, 0, 63, 100
2, 1916, Note_off_c, 0, 58, 100
2, 1920, Note_on_c, 0, 60, 80
2, 1920, Note_on_c, 0, 51, 80
2, 2108, Note_off_c, 0, 60, 100
2, 2108, Note_off_c, 0, 51, 100
2, 2112, Note_on_c, 0, 56, 80
2, 2112, Note_on_c, 0, 51, 80
2, 2300, Note_off_c, 0, 56, 100
2, 2300, Note_off_c, 0, 51, 100
2, 2304, Note_on_c, 0, 58, 80
2, 2304, Note_on_c, 0, 55, 80
2, 2780, Note_off_c, 0, 58, 100
2, 2780, Note_off_c, 0, 55, 100
2, 2784, Note_on_c, 0, 55, 80
2, 2784, Note_on_c, 0, 51, 80
2, 2876, Note_off_c, 0, 55, 100
2, 2876, Note_off_c, 0, 51, 100
2, 2880, Note_on_c, 0, 56, 80
2, 2880, Note_on_c, 0, 53, 80
2, 2972, Note_off_c, 0, 56, 100
2, 2972, Note_off_c, 0, 53, 100
2, 2976, Note_on_c, 0, 58, 80
2, 2976, Note_on_c, 0, 55, 80
2, 3068, Note_off_c, 0, 58, 100
2, 3068, Note_off_c, 0, 55, 100
2, 3072, Note_on_c, 0, 60, 80
2, 3072, Note_on_c, 0, 56, 80
2, 3072, Note_on_c, 0, 51, 80
2, 3644, Note_off_c, 0, 60, 100
2, 3644, Note_off_c, 0, 56, 100
2, 3644, Note_off_c, 0, 51, 100
2, 3648, Note_on_c, 0, 61, 100
2, 3648, Note_on_c, 0, 55, 100
2, 3648, Note_on_c, 0, 51, 100
2, 3836, Note_off_c, 0, 61, 100
2, 3836, Note_off_c, 0, 55, 100
2, 3836, Note_off_c, 0, 51, 100
2, 3840, Note_on_c, 0, 56, 80
2, 3840, Note_on_c, 0, 51, 80
2, 3840, Note_on_c, 0, 63, 80
2, 4412, Note_off_c, 0, 56, 100
2, 4412, Note_off_c, 0, 51, 100
2, 4412, Note_off_c, 0, 63, 100
2, 4416, Note_on_c, 0, 65, 100
2, 4416, Note_on_c, 0, 53, 100
2, 4604, Note_off_c, 0, 65, 100
2, 4608, Note_on_c, 0, 61, 80
2, 4796, Note_off_c, 0, 53, 100
2, 4796, Note_off_c, 0, 61, 100
2, 4800, Note_on_c, 0, 63, 80
2, 4800, Note_on_c, 0, 58, 80
2, 4988, Note_off_c, 0, 63, 100
2, 4988, Note_off_c, 0, 58, 100
2, 4992, Note_on_c, 0, 60, 80
2, 4992, Note_on_c, 0, 51, 80
2, 5180, Note_off_c, 0, 60, 100
2, 5180, Note_off_c, 0, 51, 100
2, 5184, Note_on_c, 0, 56, 80
2, 5184, Note_on_c, 0, 51, 80
2, 5372, Note_off_c, 0, 56, 100
2, 5372, Note_off_c, 0, 51, 100
2, 5376, Note_on_c, 0, 58, 80
2, 5376, Note_on_c, 0, 49, 80
2, 5376, Note_on_c, 0, 51, 80
2, 5756, Note_off_c, 0, 58, 100
2, 5756, Note_off_c, 0, 49, 100
2, 5760, Note_on_c, 0, 56, 80
2, 5760, Note_on_c, 0, 48, 80
2, 5948, Note_off_c, 0, 51, 100
2, 5948, Note_off_c, 0, 56, 100
2, 5948, Note_off_c, 0, 48, 100
2, 5952, Note_on_c, 0, 80, 80
2, 5952, Note_on_c, 0, 72, 80
2, 6140, Note_off_c, 0, 80, 100
2, 6140, Note_off_c, 0, 72, 100
2, 6144, Note_on_c, 0, 82, 80
2, 6144, Note_on_c, 0, 73, 80
2, 6524, Note_off_c, 0, 82, 100
2, 6524, Note_off_c, 0, 73, 100
2, 6528, Note_on_c, 0, 80, 80
2, 6528, Note_on_c, 0, 72, 80
2, 6716, Note_off_c, 0, 80, 100
2, 6716, Note_off_c, 0, 72, 100
2, 6720, Note_on_c, 0, 72, 70
2, 6908, Note_off_c, 0, 72, 100
2, 6912, Note_on_c, 0, 70, 70
2, 7244, Note_off_c, 0, 70, 100
2, 7248, Note_on_c, 0, 68, 70
2, 7292, Note_off_c, 0, 68, 100
2, 7296, Note_on_c, 0, 67, 70
2, 7436, Note_off_c, 0, 67, 100
2, 7488, Note_on_c, 0, 65, 70
2, 7628, Note_off_c, 0, 65, 100
2, 7680, Note_on_c, 0, 64, 70
2, 8060, Note_off_c, 0, 64, 100
2, 8256, Note_on_c, 0, 65, 70
2, 8304, Note_on_c, 0, 67, 70
2, 8348, Note_off_c, 0, 65, 100
2, 8352, Note_on_c, 0, 64, 70
2, 8396, Note_off_c, 0, 67, 100
2, 8400, Note_on_c, 0, 65, 70
2, 8444, Note_off_c, 0, 64, 100
2, 8444, Note_off_c, 0, 65, 100
2, 8448, Note_on_c, 0, 67, 70
2, 8780, Note_off_c, 0, 67, 100
2, 8784, Note_on_c, 0, 65, 70
2, 8828, Note_off_c, 0, 65, 100
2, 8832, Note_on_c, 0, 64, 70
2, 9020, Note_off_c, 0, 64, 100
2, 9024, Note_on_c, 0, 62, 70
2, 9164, Note_off_c, 0, 62, 100
2, 9216, Note_on_c, 0, 60, 70
2, 9596, Note_off_c, 0, 60, 100
2, 9936, Note_on_c, 0, 60, 70
2, 9980, Note_off_c, 0, 60, 100
2, 9984, Note_on_c, 0, 60, 70
2, 10172, Note_off_c, 0, 60, 100
2, 10320, Note_on_c, 0, 60, 70
2, 10364, Note_off_c, 0, 60, 100
2, 10368, Note_on_c, 0, 60, 70
2, 10556, Note_off_c, 0, 60, 100
2, 10704, Note_on_c, 0, 60, 70
2, 10748, Note_off_c, 0, 60, 100
2, 10752, Note_on_c, 0, 60, 70
2, 11132, Note_off_c, 0, 60, 100
2, 11472, Note_on_c, 0, 61, 70
2, 11516, Note_off_c, 0, 61, 100
2, 11520, Note_on_c, 0, 61, 71
2, 11708, Note_off_c, 0, 61, 100
2, 11856, Note_on_c, 0, 61, 79
2, 11900, Note_off_c, 0, 61, 100
2, 11904, Note_on_c, 0, 61, 81
2, 12092, Note_off_c, 0, 61, 100
2, 12240, Note_on_c, 0, 61, 89
2, 12284, Note_off_c, 0, 61, 100
2, 12288, Note_on_c, 0, 61, 91
2, 12668, Note_off_c, 0, 61, 100
2, 13008, Note_on_c, 0, 61, 109
2, 13052, Note_off_c, 0, 61, 100
2, 13056, Note_on_c, 0, 61, 110
2, 13436, Note_off_c, 0, 61, 100
2, 13440, Note_on_c, 0, 58, 110
2, 13628, Note_off_c, 0, 58, 100
2, 13632, Note_on_c, 0, 55, 110
2, 13820, Note_off_c, 0, 55, 100
2, 13824, Note_on_c, 0, 51, 110
2, 15164, Note_off_c, 0, 51, 100
2, 15168, Note_on_c, 0, 51, 80
2, 15200, Note_off_c, 0, 51, 100
2, 15204, Note_on_c, 0, 53, 80
2, 15236, Note_off_c, 0, 53, 100
2, 15240, Note_on_c, 0, 55, 80
2, 15272, Note_off_c, 0, 55, 100
2, 15272, Note_on_c, 0, 56, 80
2, 15304, Note_off_c, 0, 56, 100
2, 15312, Note_on_c, 0, 58, 80
2, 15344, Note_off_c, 0, 58, 100
2, 15360, Note_on_c, 0, 60, 80
2, 15932, Note_off_c, 0, 60, 100
2, 15936, Note_on_c, 0, 61, 100
2, 15936, Note_on_c, 0, 55, 100
2, 15936, Note_on_c, 0, 51, 100
2, 16124, Note_off_c, 0, 61, 100
2, 16124, Note_off_c, 0, 55, 100
2, 16124, Note_off_c, 0, 51, 100
2, 16128, Note_on_c, 0, 56, 80
2, 16128, Note_on_c, 0, 51, 80
2, 16128, Note_on_c, 0, 63, 80
2, 16700, Note_off_c, 0, 56, 100
2, 16700, Note_off_c, 0, 51, 100
2, 16700, Note_off_c, 0, 63, 100
2, 16704, Note_on_c, 0, 65, 90
2, 16704, Note_on_c, 0, 53, 90
2, 16892, Note_off_c, 0, 65, 100
2, 16896, Note_on_c, 0, 61, 80
2, 17084, Note_off_c, 0, 53, 100
2, 17084, Note_off_c, 0, 61, 100
2, 17088, Note_on_c, 0, 63, 80
2, 17088, Note_on_c, 0, 58, 80
2, 17276, Note_off_c, 0, 63, 100
2, 17276, Note_off_c, 0, 58, 100
2, 17280, Note_on_c, 0, 60, 80
2, 17280, Note_on_c, 0, 51, 80
2, 17468, Note_off_c, 0, 60, 100
2, 17468, Note_off_c, 0, 51, 100
2, 17472, Note_on_c, 0, 56, 80
2, 17472, Note_on_c, 0, 51, 80
2, 17660, Note_off_c, 0, 56, 100
2, 17660, Note_off_c, 0, 51, 100
2, 17664, Note_on_c, 0, 58, 80
2, 17664, Note_on_c, 0, 55, 80
2, 18140, Note_off_c, 0, 58, 100
2, 18140, Note_off_c, 0, 55, 100
2, 18144, Note_on_c, 0, 55, 80
2, 18144, Note_on_c, 0, 51, 80
2, 18236, Note_off_c, 0, 55, 100
2, 18236, Note_off_c, 0, 51, 100
2, 18240, Note_on_c, 0, 56, 80
2, 18240, Note_on_c, 0, 53, 80
2, 18332, Note_off_c, 0, 56, 100
2, 18332, Note_off_c, 0, 53, 100
2, 18336, Note_on_c, 0, 58, 80
2, 18336, Note_on_c, 0, 55, 80
2, 18428, Note_off_c, 0, 58, 100
2, 18428, Note_off_c, 0, 55, 100
2, 18432, Note_on_c, 0, 60, 80
2, 18432, Note_on_c, 0, 56, 80
2, 18432, Note_on_c, 0, 51, 80
2, 19004, Note_off_c, 0, 60, 100
2, 19004, Note_off_c, 0, 56, 100
2, 19004, Note_off_c, 0, 51, 100
2, 19008, Note_on_c, 0, 61, 95
2, 19008, Note_on_c, 0, 55, 95
2, 19008, Note_on_c, 0, 51, 95
2, 19196, Note_off_c, 0, 61, 100
2, 19196, Note_off_c, 0, 55, 100
2, 19196, Note_off_c, 0, 51, 100
2, 19200, Note_on_c, 0, 56, 80
2, 19200, Note_on_c, 0, 51, 80
2, 19200, Note_on_c, 0, 63, 80
2, 19772, Note_off_c, 0, 56, 100
2, 19772, Note_off_c, 0, 51, 100
2, 19772, Note_off_c, 0, 63, 100
2, 19776, Note_on_c, 0, 65, 95
2, 19776, Note_on_c, 0, 53, 95
2, 19964, Note_off_c, 0, 65, 100
2, 19968, Note_on_c, 0, 61, 80
2, 20156, Note_off_c, 0, 53, 100
2, 20156, Note_off_c, 0, 61, 100
2, 20160, Note_on_c, 0, 63, 80
2, 20160, Note_on_c, 0, 58, 80
2, 20348, Note_off_c, 0, 63, 100
2, 20348, Note_off_c, 0, 58, 100
2, 20352, Note_on_c, 0, 60, 80
2, 20352, Note_on_c, 0, 51, 80
2, 20540, Note_off_c, 0, 60, 100
2, 20540, Note_off_c, 0, 51, 100
2, 20544, Note_on_c, 0, 56, 80
2, 20544, Note_on_c, 0, 51, 80
2, 20732, Note_off_c, 0, 56, 100
2, 20732, Note_off_c, 0, 51, 100
2, 20736, Note_on_c, 0, 58, 80
2, 20736, Note_on_c, 0, 49, 80
2, 20736, Note_on_c, 0, 51, 80
2, 21116, Note_off_c, 0, 58, 100
2, 21116, Note_off_c, 0, 49, 100
2, 21120, Note_on_c, 0, 56, 80
2, 21120, Note_on_c, 0, 48, 80
2, 21308, Note_off_c, 0, 51, 100
2, 21308, Note_off_c, 0, 56, 100
2, 21308, Note_off_c, 0, 48, 100
2, 21312, Note_on_c, 0, 80, 80
2, 21312, Note_on_c, 0, 72, 80
2, 21500, Note_off_c, 0, 80, 100
2, 21500, Note_off_c, 0, 72, 100
2, 21504, Note_on_c, 0, 82, 80
2, 21504, Note_on_c, 0, 73, 80
2, 21884, Note_off_c, 0, 82, 100
2, 21884, Note_off_c, 0, 73, 100
2, 21888, Note_on_c, 0, 80, 80
2, 21888, Note_on_c, 0, 72, 80
2, 22076, Note_off_c, 0, 80, 100
2, 22076, Note_off_c, 0, 72, 100
2, 22080, Note_on_c, 0, 84, 70
2, 22268, Note_off_c, 0, 84, 100
2, 22272, Note_on_c, 0, 82, 70
2, 22604, Note_off_c, 0, 82, 100
2, 22608, Note_on_c, 0, 80, 70
2, 22652, Note_off_c, 0, 80, 100
2, 22656, Note_on_c, 0, 79, 70
2, 22796, Note_off_c, 0, 79, 100
2, 22848, Note_on_c, 0, 77, 70
2, 22988, Note_off_c, 0, 77, 100
2, 23040, Note_on_c, 0, 76, 70
2, 23420, Note_off_c, 0, 76, 100
2, 23616, Note_on_c, 0, 77, 70
2, 23664, Note_on_c, 0, 79, 70
2, 23708, Note_off_c, 0, 77, 100
2, 23712, Note_on_c, 0, 76, 70
2, 23756, Note_off_c, 0, 79, 100
2, 23760, Note_on_c, 0, 77, 70
2, 23804, Note_off_c, 0, 76, 100
2, 23804, Note_off_c, 0, 77, 100
2, 23808, Note_on_c, 0, 79, 70
2, 24140, Note_off_c, 0, 79, 100
2, 24144, Note_on_c, 0, 77, 70
2, 24188, Note_off_c, 0, 77, 100
2, 24192, Note_on_c, 0, 76, 70
2, 24380, Note_off_c, 0, 76, 100
2, 24384, Note_on_c, 0, 74, 70
2, 24524, Note_off_c, 0, 74, 100
2, 24576, Note_on_c, 0, 72, 70
2, 24956, Note_off_c, 0, 72, 100
2, 25296, Note_on_c, 0, 72, 70
2, 25340, Note_off_c, 0, 72, 100
2, 25344, Note_on_c, 0, 72, 70
2, 25532, Note_off_c, 0, 72, 100
2, 25680, Note_on_c, 0, 72, 70
2, 25724, Note_off_c, 0, 72, 100
2, 25728, Note_on_c, 0, 72, 70
2, 25916, Note_off_c, 0, 72, 100
2, 26064, Note_on_c, 0, 72, 70
2, 26108, Note_off_c, 0, 72, 100
2, 26112, Note_on_c, 0, 72, 70
2, 26492, Note_off_c, 0, 72, 100
2, 26832, Note_on_c, 0, 89, 120
2, 26832, Note_on_c, 0, 84, 120
2, 26832, Note_on_c, 0, 81, 120
2, 26832, Note_on_c, 0, 77, 120
2, 26876, Note_off_c, 0, 89, 100
2, 26876, Note_off_c, 0, 84, 100
2, 26876, Note_off_c, 0, 81, 100
2, 26876, Note_off_c, 0, 77, 100
2, 26880, Note_on_c, 0, 89, 120
2, 26880, Note_on_c, 0, 84, 120
2, 26880, Note_on_c, 0, 81, 120
2, 26880, Note_on_c, 0, 77, 120
2, 27068, Note_off_c, 0, 89, 100
2, 27068, Note_off_c, 0, 84, 100
2, 27068, Note_off_c, 0, 81, 100
2, 27068, Note_off_c, 0, 77, 100
2, 27072, Note_on_c, 0, 65, 80
2, 27164, Note_off_c, 0, 65, 100
2, 27168, Note_on_c, 0, 69, 80
2, 27260, Note_off_c, 0, 69, 100
2, 27264, Note_on_c, 0, 67, 80
2, 27356, Note_off_c, 0, 67, 100
2, 27360, Note_on_c, 0, 70, 80
2, 27452, Note_off_c, 0, 70, 100
2, 27456, Note_on_c, 0, 64, 80
2, 27548, Note_off_c, 0, 64, 100
2, 27552, Note_on_c, 0, 67, 80
2, 27644, Note_off_c, 0, 67, 100
2, 27648, Note_on_c, 0, 65, 80
2, 27740, Note_off_c, 0, 65, 100
2, 27744, Note_on_c, 0, 69, 80
2, 27836, Note_off_c, 0, 69, 100
2, 27840, Note_on_c, 0, 65, 80
2, 27932, Note_off_c, 0, 65, 100
2, 27936, Note_on_c, 0, 69, 80
2, 28028, Note_off_c, 0, 69, 100
2, 28032, Note_on_c, 0, 67, 80
2, 28124, Note_off_c, 0, 67, 100
2, 28128, Note_on_c, 0, 70, 80
2, 28220, Note_off_c, 0, 70, 100
2, 28224, Note_on_c, 0, 64, 80
2, 28316, Note_off_c, 0, 64, 100
2, 28320, Note_on_c, 0, 67, 80
2, 28412, Note_off_c, 0, 67, 100
2, 28416, Note_on_c, 0, 65, 80
2, 28508, Note_off_c, 0, 65, 100
2, 28512, Note_on_c, 0, 69, 80
2, 28604, Note_off_c, 0, 69, 100
2, 28608, Note_on_c, 0, 72, 80
2, 28700, Note_off_c, 0, 72, 100
2, 28704, Note_on_c, 0, 69, 80
2, 28796, Note_off_c, 0, 69, 100
2, 28800, Note_on_c, 0, 69, 80
2, 28892, Note_off_c, 0, 69, 100
2, 28896, Note_on_c, 0, 72, 80
2, 28988, Note_off_c, 0, 72, 100
2, 28992, Note_on_c, 0, 75, 80
2, 29084, Note_off_c, 0, 75, 100
2, 29088, Note_on_c, 0, 72, 80
2, 29180, Note_off_c, 0, 72, 100
2, 29184, Note_on_c, 0, 72, 80
2, 29276, Note_off_c, 0, 72, 100
2, 29280, Note_on_c, 0, 75, 80
2, 29372, Note_off_c, 0, 75, 100
2, 29376, Note_on_c, 0, 78, 80
2, 29468, Note_off_c, 0, 78, 100
2, 29472, Note_on_c, 0, 75, 80
2, 29564, Note_off_c, 0, 75, 100
2, 29568, Note_on_c, 0, 73, 80
2, 29660, Note_off_c, 0, 73, 100
2, 29664, Note_on_c, 0, 77, 80
2, 29756, Note_off_c, 0, 77, 100
2, 29760, Note_on_c, 0, 72, 80
2, 29852, Note_off_c, 0, 72, 100
2, 29856, Note_on_c, 0, 77, 80
2, 29948, Note_off_c, 0, 77, 100
2, 29952, Note_on_c, 0, 82, 120
2, 29952, Note_on_c, 0, 77, 120
2, 29952, Note_on_c, 0, 74, 120
2, 29952, Note_on_c, 0, 70, 120
2, 30140, Note_off_c, 0, 82, 100
2, 30140, Note_off_c, 0, 77, 100
2, 30140, Note_off_c, 0, 74, 100
2, 30140, Note_off_c, 0, 70, 100
2, 30144, Note_on_c, 0, 70, 80
2, 30236, Note_off_c, 0, 70, 100
2, 30240, Note_on_c, 0, 74, 80
2, 30332, Note_off_c, 0, 74, 100
2, 30336, Note_on_c, 0, 72, 80
2, 30428, Note_off_c, 0, 72, 100
2, 30432, Note_on_c, 0, 75, 80
2, 30524, Note_off_c, 0, 75, 100
2, 30528, Note_on_c, 0, 69, 80
2, 30620, Note_off_c, 0, 69, 100
2, 30624, Note_on_c, 0, 72, 80
2, 30716, Note_off_c, 0, 72, 100
2, 30720, Note_on_c, 0, 70, 80
2, 30812, Note_off_c, 0, 70, 100
2, 30816, Note_on_c, 0, 74, 80
2, 30908, Note_off_c, 0, 74, 100
2, 30912, Note_on_c, 0, 70, 80
2, 31004, Note_off_c, 0, 70, 100
2, 31008, Note_on_c, 0, 74, 80
2, 31100, Note_off_c, 0, 74, 100
2, 31104, Note_on_c, 0, 72, 80
2, 31196, Note_off_c, 0, 72, 100
2, 31200, Note_on_c, 0, 75, 80
2, 31292, Note_off_c, 0, 75, 100
2, 31296, Note_on_c, 0, 69, 80
2, 31388, Note_off_c, 0, 69, 100
2, 31392, Note_on_c, 0, 72, 80
2, 31484, Note_off_c, 0, 72, 100
2, 31488, Note_on_c, 0, 70, 80
2, 31580, Note_off_c, 0, 70, 100
2, 31584, Note_on_c, 0, 74, 80
2, 31676, Note_off_c, 0, 74, 100
2, 31680, Note_on_c, 0, 77, 80
2, 31772, Note_off_c, 0, 77, 100
2, 31776, Note_on_c, 0, 74, 80
2, 31868, Note_off_c, 0, 74, 100
2, 31872, Note_on_c, 0, 74, 80
2, 31964, Note_off_c, 0, 74, 100
2, 31968, Note_on_c, 0, 77, 80
2, 32060, Note_off_c, 0, 77, 100
2, 32064, Note_on_c, 0, 80, 80
2, 32156, Note_off_c, 0, 80, 100
2, 32160, Note_on_c, 0, 77, 80
2, 32252, Note_off_c, 0, 77, 100
2, 32256, Note_on_c, 0, 77, 80
2, 32348, Note_off_c, 0, 77, 100
2, 32352, Note_on_c, 0, 80, 80
2, 32444, Note_off_c, 0, 80, 100
2, 32448, Note_on_c, 0, 83, 80
2, 32540, Note_off_c, 0, 83, 100
2, 32544, Note_on_c, 0, 80, 80
2, 32636, Note_off_c, 0, 80, 100
2, 32640, Note_on_c, 0, 83, 80
2, 32732, Note_off_c, 0, 83, 100
2, 32736, Note_on_c, 0, 86, 80
2, 32828, Note_off_c, 0, 86, 100
2, 32832, Note_on_c, 0, 89, 80
2, 32924, Note_off_c, 0, 89, 100
2, 32928, Note_on_c, 0, 86, 80
2, 33020, Note_off_c, 0, 86, 100
2, 33024, Note_on_c, 0, 89, 80
2, 33116, Note_off_c, 0, 89, 100
2, 33120, Note_on_c, 0, 86, 81
2, 33212, Note_off_c, 0, 86, 100
2, 33216, Note_on_c, 0, 89, 83
2, 33308, Note_off_c, 0, 89, 100
2, 33312, Note_on_c, 0, 86, 85
2, 33404, Note_off_c, 0, 86, 100
2, 33408, Note_on_c, 0, 89, 87
2, 33500, Note_off_c, 0, 89, 100
2, 33504, Note_on_c, 0, 86, 89
2, 33596, Note_off_c, 0, 86, 100
2, 33600, Note_on_c, 0, 89, 90
2, 33692, Note_off_c, 0, 89, 100
2, 33696, Note_on_c, 0, 86, 92
2, 33788, Note_off_c, 0, 86, 100
2, 33792, Note_on_c, 0, 89, 94
2, 33884, Note_off_c, 0, 89, 100
2, 33888, Note_on_c, 0, 86, 96
2, 33980, Note_off_c, 0, 86, 100
2, 33984, Note_on_c, 0, 89, 98
2, 34076, Note_off_c, 0, 89, 100
2, 34080, Note_on_c, 0, 86, 99
2, 34172, Note_off_c, 0, 86, 100
2, 34176, Note_on_c, 0, 87, 95
2, 34268, Note_off_c, 0, 87, 100
2, 34272, Note_on_c, 0, 82, 91
2, 34364, Note_off_c, 0, 82, 100
2, 34368, Note_on_c, 0, 79, 86
2, 34460, Note_off_c, 0, 79, 100
2, 34464, Note_on_c, 0, 75, 81
2, 34556, Note_off_c, 0, 75, 100
2, 34560, Note_on_c, 0, 74, 80
2, 34652, Note_off_c, 0, 74, 100
2, 34656, Note_on_c, 0, 86, 81
2, 34748, Note_off_c, 0, 86, 100
2, 34752, Note_on_c, 0, 89, 83
2, 34844, Note_off_c, 0, 89, 100
2, 34848, Note_on_c, 0, 86, 85
2, 34940, Note_off_c, 0, 86, 100
2, 34944, Note_on_c, 0, 89, 87
2, 35036, Note_off_c, 0, 89, 100
2, 35040, Note_on_c, 0, 86, 89
2, 35132, Note_off_c, 0, 86, 100
2, 35136, Note_on_c, 0, 89, 90
2, 35228, Note_off_c, 0, 89, 100
2, 35232, Note_on_c, 0, 86, 92
2, 35324, Note_off_c, 0, 86, 100
2, 35328, Note_on_c, 0, 89, 94
2, 35420, Note_off_c, 0, 89, 100
2, 35424, Note_on_c, 0, 86, 96
2, 35516, Note_off_c, 0, 86, 100
2, 35520, Note_on_c, 0, 89, 98
2, 35612, Note_off_c, 0, 89, 100
2, 35616, Note_on_c, 0, 86, 99
2, 35708, Note_off_c, 0, 86, 100
2, 35712, Note_on_c, 0, 87, 95
2, 35804, Note_off_c, 0, 87, 100
2, 35808, Note_on_c, 0, 82, 91
2, 35900, Note_off_c, 0, 82, 100
2, 35904, Note_on_c, 0, 79, 86
2, 35996, Note_off_c, 0, 79, 100
2, 36000, Note_on_c, 0, 75, 81
2, 36092, Note_off_c, 0, 75, 100
2, 36096, Note_on_c, 0, 74, 80
2, 36188, Note_off_c, 0, 74, 100
2, 36192, Note_on_c, 0, 86, 80
2, 36284, Note_off_c, 0, 86, 100
2, 36288, Note_on_c, 0, 89, 80
2, 36380, Note_off_c, 0, 89, 100
2, 36384, Note_on_c, 0, 86, 80
2, 36476, Note_off_c, 0, 86, 100
2, 36480, Note_on_c, 0, 87, 80
2, 36572, Note_off_c, 0, 87, 100
2, 36576, Note_on_c, 0, 82, 80
2, 36668, Note_off_c, 0, 82, 100
2, 36672, Note_on_c, 0, 79, 80
2, 36764, Note_off_c, 0, 79, 100
2, 36768, Note_on_c, 0, 75, 80
2, 36860, Note_off_c, 0, 75, 100
2, 36864, Note_on_c, 0, 74, 80
2, 36956, Note_off_c, 0, 74, 100
2, 36960, Note_on_c, 0, 86, 80
2, 37052, Note_off_c, 0, 86, 100
2, 37056, Note_on_c, 0, 89, 80
2, 37148, Note_off_c, 0, 89, 100
2, 37152, Note_on_c, 0, 86, 80
2, 37244, Note_off_c, 0, 86, 100
2, 37248, Note_on_c, 0, 87, 80
2, 37340, Note_off_c, 0, 87, 100
2, 37344, Note_on_c, 0, 82, 80
2, 37436, Note_off_c, 0, 82, 100
2, 37440, Note_on_c, 0, 79, 80
2, 37532, Note_off_c, 0, 79, 100
2, 37536, Note_on_c, 0, 75, 80
2, 37628, Note_off_c, 0, 75, 100
2, 37632, Note_on_c, 0, 72, 80
2, 37724, Note_off_c, 0, 72, 100
2, 37728, Note_on_c, 0, 68, 80
2, 37820, Note_off_c, 0, 68, 100
2, 37824, Note_on_c, 0, 63, 80
2, 37916, Note_off_c, 0, 63, 100
2, 37920, Note_on_c, 0, 60, 80
2, 38012, Note_off_c, 0, 60, 100
2, 38016, Note_on_c, 0, 58, 80
2, 38108, Note_off_c, 0, 58, 100
2, 38112, Note_on_c, 0, 53, 80
2, 38204, Note_off_c, 0, 53, 100
2, 38208, Note_on_c, 0, 50, 80
2, 38300, Note_off_c, 0, 50, 100
2, 38304, Note_on_c, 0, 46, 80
2, 38396, Note_off_c, 0, 46, 100
2, 38400, Note_on_c, 0, 51, 80
2, 38588, Note_off_c, 0, 51, 100
2, 38688, Note_on_c, 0, 70, 80
2, 38780, Note_off_c, 0, 70, 100
2, 38784, Note_on_c, 0, 67, 80
2, 38972, Note_off_c, 0, 67, 100
2, 39072, Note_on_c, 0, 75, 80
2, 39164, Note_off_c, 0, 75, 100
2, 39168, Note_on_c, 0, 70, 80
2, 39356, Note_off_c, 0, 70, 100
2, 39456, Note_on_c, 0, 79, 80
2, 39548, Note_off_c, 0, 79, 100
2, 39552, Note_on_c, 0, 74, 80
2, 39644, Note_off_c, 0, 74, 100
2, 39648, Note_on_c, 0, 80, 80
2, 39740, Note_off_c, 0, 80, 100
2, 39744, Note_on_c, 0, 77, 80
2, 39836, Note_off_c, 0, 77, 100
2, 39840, Note_on_c, 0, 74, 80
2, 39932, Note_off_c, 0, 74, 100
2, 39936, Note_on_c, 0, 75, 80
2, 40124, Note_off_c, 0, 75, 100
2, 40224, Note_on_c, 0, 70, 80
2, 40316, Note_off_c, 0, 70, 100
2, 40320, Note_on_c, 0, 67, 80
2, 40508, Note_off_c, 0, 67, 100
2, 40608, Note_on_c, 0, 75, 80
2, 40700, Note_off_c, 0, 75, 100
2, 40704, Note_on_c, 0, 70, 80
2, 40892, Note_off_c, 0, 70, 100
2, 40992, Note_on_c, 0, 79, 80
2, 41084, Note_off_c, 0, 79, 100
2, 41088, Note_on_c, 0, 74, 80
2, 41180, Note_off_c, 0, 74, 100
2, 41184, Note_on_c, 0, 80, 80
2, 41276, Note_off_c, 0, 80, 100
2, 41280, Note_on_c, 0, 77, 80
2, 41372, Note_off_c, 0, 77, 100
2, 41376, Note_on_c, 0, 74, 80
2, 41468, Note_off_c, 0, 74, 100
2, 41472, Note_on_c, 0, 75, 80
2, 41660, Note_off_c, 0, 75, 100
2, 41760, Note_on_c, 0, 91, 80
2, 41852, Note_off_c, 0, 91, 100
2, 41856, Note_on_c, 0, 86, 80
2, 41948, Note_off_c, 0, 86, 100
2, 41952, Note_on_c, 0, 92, 80
2, 42044, Note_off_c, 0, 92, 100
2, 42048, Note_on_c, 0, 89, 80
2, 42140, Note_off_c, 0, 89, 100
2, 42144, Note_on_c, 0, 86, 80
2, 42236, Note_off_c, 0, 86, 100
2, 42240, Note_on_c, 0, 87, 80
2, 42428, Note_off_c, 0, 87, 100
2, 42528, Note_on_c, 0, 79, 80
2, 42620, Note_off_c, 0, 79, 100
2, 42624, Note_on_c, 0, 74, 80
2, 42716, Note_off_c, 0, 74, 100
2, 42720, Note_on_c, 0, 80, 80
2, 42812, Note_off_c, 0, 80, 100
2, 42816, Note_on_c, 0, 77, 80
2, 42908, Note_off_c, 0, 77, 100
2, 42912, Note_on_c, 0, 74, 80
2, 43004, Note_off_c, 0, 74, 100
2, 43008, Note_on_c, 0, 75, 80
2, 43100, Note_off_c, 0, 75, 100
2, 43104, Note_on_c, 0, 79, 80
2, 43196, Note_off_c, 0, 79, 100
2, 43200, Note_on_c, 0, 70, 80
2, 43292, Note_off_c, 0, 70, 100
2, 43296, Note_on_c, 0, 75, 80
2, 43388, Note_off_c, 0, 75, 100
2, 43392, Note_on_c, 0, 67, 80
2, 43484, Note_off_c, 0, 67, 100
2, 43488, Note_on_c, 0, 70, 80
2, 43580, Note_off_c, 0, 70, 100
2, 43584, Note_on_c, 0, 68, 80
2, 43676, Note_off_c, 0, 68, 100
2, 43680, Note_on_c, 0, 65, 80
2, 43772, Note_off_c, 0, 65, 100
2, 43776, Note_on_c, 0, 63, 80
2, 43868, Note_off_c, 0, 63, 100
2, 43872, Note_on_c, 0, 67, 80
2, 43964, Note_off_c, 0, 67, 100
2, 43968, Note_on_c, 0, 58, 80
2, 44060, Note_off_c, 0, 58, 100
2, 44064, Note_on_c, 0, 63, 80
2, 44156, Note_off_c, 0, 63, 100
2, 44160, Note_on_c, 0, 55, 80
2, 44252, Note_off_c, 0, 55, 100
2, 44256, Note_on_c, 0, 58, 80
2, 44348, Note_off_c, 0, 58, 100
2, 44352, Note_on_c, 0, 56, 80
2, 44444, Note_off_c, 0, 56, 100
2, 44448, Note_on_c, 0, 53, 80
2, 44540, Note_off_c, 0, 53, 100
2, 44544, Note_on_c, 0, 51, 80
2, 44636, Note_off_c, 0, 51, 100
2, 44640, Note_on_c, 0, 55, 80
2, 44732, Note_off_c, 0, 55, 100
2, 44736, Note_on_c, 0, 46, 80
2, 44828, Note_off_c, 0, 46, 100
2, 44832, Note_on_c, 0, 51, 80
2, 44924, Note_off_c, 0, 51, 100
2, 45024, Note_on_c, 0, 46, 80
2, 45116, Note_off_c, 0, 46, 100
2, 45120, Note_on_c, 0, 43, 80
2, 45212, Note_off_c, 0, 43, 100
2, 45216, Note_on_c, 0, 46, 80
2, 45308, Note_off_c, 0, 46, 100
2, 45408, Note_on_c, 0, 46, 80
2, 45500, Note_off_c, 0, 46, 100
2, 45504, Note_on_c, 0, 43, 80
2, 45596, Note_off_c, 0, 43, 100
2, 45600, Note_on_c, 0, 46, 80
2, 45692, Note_off_c, 0, 46, 100
2, 45792, Note_on_c, 0, 46, 80
2, 45884, Note_off_c, 0, 46, 100
2, 45888, Note_on_c, 0, 43, 80
2, 45980, Note_off_c, 0, 43, 100
2, 45984, Note_on_c, 0, 46, 80
2, 46076, Note_off_c, 0, 46, 100
2, 46176, Note_on_c, 0, 47, 81
2, 46268, Note_off_c, 0, 47, 100
2, 46272, Note_on_c, 0, 43, 82
2, 46364, Note_off_c, 0, 43, 100
2, 46368, Note_on_c, 0, 47, 83
2, 46460, Note_off_c, 0, 47, 100
2, 46560, Note_on_c, 0, 47, 86
2, 46652, Note_off_c, 0, 47, 100
2, 46656, Note_on_c, 0, 43, 87
2, 46748, Note_off_c, 0, 43, 100
2, 46752, Note_on_c, 0, 47, 89
2, 46844, Note_off_c, 0, 47, 100
2, 46944, Note_on_c, 0, 47, 91
2, 47036, Note_off_c, 0, 47, 100
2, 47040, Note_on_c, 0, 43, 93
2, 47132, Note_off_c, 0, 43, 100
2, 47136, Note_on_c, 0, 47, 94
2, 47228, Note_off_c, 0, 47, 100
2, 47328, Note_on_c, 0, 47, 97
2, 47420, Note_off_c, 0, 47, 100
2, 47424, Note_on_c, 0, 43, 98
2, 47516, Note_off_c, 0, 43, 100
2, 47520, Note_on_c, 0, 47, 99
2, 47612, Note_off_c, 0, 47, 100
2, 47616, Note_on_c, 0, 60, 80
2, 47616, Note_on_c, 0, 48, 80
2, 48188, Note_off_c, 0, 60, 100
2, 48188, Note_off_c, 0, 48, 100
2, 48192, Note_on_c, 0, 61, 95
2, 48192, Note_on_c, 0, 49, 95
2, 48380, Note_off_c, 0, 61, 100
2, 48380, Note_off_c, 0, 49, 100
2, 48384, Note_on_c, 0, 51, 80
2, 48384, Note_on_c, 0, 63, 80
2, 48956, Note_off_c, 0, 51, 100
2, 48956, Note_off_c, 0, 63, 100
2, 48960, Note_on_c, 0, 65, 95
2, 48960, Note_on_c, 0, 53, 95
2, 49148, Note_off_c, 0, 65, 100
2, 49152, Note_on_c, 0, 61, 80
2, 49340, Note_off_c, 0, 53, 100
2, 49340, Note_off_c, 0, 61, 100
2, 49344, Note_on_c, 0, 63, 80
2, 49344, Note_on_c, 0, 58, 80
2, 49532, Note_off_c, 0, 63, 100
2, 49532, Note_off_c, 0, 58, 100
2, 49536, Note_on_c, 0, 60, 80
2, 49536, Note_on_c, 0, 51, 80
2, 49724, Note_off_c, 0, 60, 100
2, 49724, Note_off_c, 0, 51, 100
2, 49728, Note_on_c, 0, 56, 80
2, 49728, Note_on_c, 0, 51, 80
2, 49916, Note_off_c, 0, 56, 100
2, 49916, Note_off_c, 0, 51, 100
2, 49920, Note_on_c, 0, 58, 80
2, 49920, Note_on_c, 0, 55, 80
2, 50396, Note_off_c, 0, 58, 100
2, 50396, Note_off_c, 0, 55, 100
2, 50400, Note_on_c, 0, 55, 80
2, 50400, Note_on_c, 0, 51, 80
2, 50492, Note_off_c, 0, 55, 100
2, 50492, Note_off_c, 0, 51, 100
2, 50496, Note_on_c, 0, 56, 80
2, 50496, Note_on_c, 0, 53, 80
2, 50588, Note_off_c, 0, 56, 100
2, 50588, Note_off_c, 0, 53, 100
2, 50592, Note_on_c, 0, 58, 80
2, 50592, Note_on_c, 0, 55, 80
2, 50684, Note_off_c, 0, 58, 100
2, 50684, Note_off_c, 0, 55, 100
2, 50688, Note_on_c, 0, 60, 80
2, 50688, Note_on_c, 0, 56, 80
2, 50688, Note_on_c, 0, 51, 80
2, 51260, Note_off_c, 0, 60, 100
2, 51260, Note_off_c, 0, 56, 100
2, 51260, Note_off_c, 0, 51, 100
2, 51264, Note_on_c, 0, 61, 80
2, 51264, Note_on_c, 0, 55, 80
2, 51264, Note_on_c, 0, 51, 80
2, 51452, Note_off_c, 0, 61, 100
2, 51452, Note_off_c, 0, 55, 100
2, 51452, Note_off_c, 0, 51, 100
2, 51456, Note_on_c, 0, 56, 80
2, 51456, Note_on_c, 0, 51, 80
2, 51456, Note_on_c, 0, 63, 80
2, 52028, Note_off_c, 0, 56, 100
2, 52028, Note_off_c, 0, 51, 100
2, 52028, Note_off_c, 0, 63, 100
2, 52032, Note_on_c, 0, 65, 80
2, 52032, Note_on_c, 0, 53, 80
2, 52220, Note_off_c, 0, 65, 100
2, 52224, Note_on_c, 0, 61, 80
2, 52412, Note_off_c, 0, 53, 100
2, 52412, Note_off_c, 0, 61, 100
2, 52416, Note_on_c, 0, 63, 80
2, 52416, Note_on_c, 0, 58, 80
2, 52604, Note_off_c, 0, 63, 100
2, 52604, Note_off_c, 0, 58, 100
2, 52608, Note_on_c, 0, 60, 80
2, 52608, Note_on_c, 0, 51, 80
2, 52796, Note_off_c, 0, 60, 100
2, 52796, Note_off_c, 0, 51, 100
2, 52800, Note_on_c, 0, 56, 80
2, 52800, Note_on_c, 0, 51, 80
2, 52988, Note_off_c, 0, 56, 100
2, 52988, Note_off_c, 0, 51, 100
2, 52992, Note_on_c, 0, 58, 80
2, 52992, Note_on_c, 0, 49, 80
2, 52992, Note_on_c, 0, 51, 80
2, 53372, Note_off_c, 0, 58, 100
2, 53372, Note_off_c, 0, 49, 100
2, 53376, Note_on_c, 0, 56, 80
2, 53376, Note_on_c, 0, 48, 80
2, 53564, Note_off_c, 0, 51, 100
2, 53564, Note_off_c, 0, 56, 100
2, 53564, Note_off_c, 0, 48, 100
2, 53568, Note_on_c, 0, 80, 80
2, 53568, Note_on_c, 0, 72, 80
2, 53756, Note_off_c, 0, 80, 100
2, 53756, Note_off_c, 0, 72, 100
2, 53760, Note_on_c, 0, 82, 80
2, 53760, Note_on_c, 0, 73, 80
2, 54140, Note_off_c, 0, 82, 100
2, 54140, Note_off_c, 0, 73, 100
2, 54144, Note_on_c, 0, 80, 80
2, 54144, Note_on_c, 0, 72, 80
2, 54332, Note_off_c, 0, 80, 100
2, 54332, Note_off_c, 0, 72, 100
2, 54336, Note_on_c, 0, 72, 70
2, 54524, Note_off_c, 0, 72, 100
2, 54528, Note_on_c, 0, 70, 70
2, 54860, Note_off_c, 0, 70, 100
2, 54864, Note_on_c, 0, 68, 70
2, 54908, Note_off_c, 0, 68, 100
2, 54912, Note_on_c, 0, 67, 70
2, 55052, Note_off_c, 0, 67, 100
2, 55104, Note_on_c, 0, 65, 70
2, 55244, Note_off_c, 0, 65, 100
2, 55296, Note_on_c, 0, 64, 70
2, 55676, Note_off_c, 0, 64, 100
2, 55872, Note_on_c, 0, 65, 70
2, 55920, Note_on_c, 0, 67, 70
2, 55964, Note_off_c, 0, 65, 100
2, 55968, Note_on_c, 0, 64, 70
2, 56012, Note_off_c, 0, 67, 100
2, 56016, Note_on_c, 0, 65, 70
2, 56060, Note_off_c, 0, 64, 100
2, 56060, Note_off_c, 0, 65, 100
2, 56064, Note_on_c, 0, 67, 70
2, 56396, Note_off_c, 0, 67, 100
2, 56400, Note_on_c, 0, 65, 70
2, 56444, Note_off_c, 0, 65, 100
2, 56448, Note_on_c, 0, 64, 70
2, 56636, Note_off_c, 0, 64, 100
2, 56640, Note_on_c, 0, 62, 70
2, 56780, Note_off_c, 0, 62, 100
2, 56832, Note_on_c, 0, 60, 70
2, 57212, Note_off_c, 0, 60, 100
2, 57552, Note_on_c, 0, 60, 70
2, 57596, Note_off_c, 0, 60, 100
2, 57600, Note_on_c, 0, 60, 70
2, 57788, Note_off_c, 0, 60, 100
2, 57936, Note_on_c, 0, 60, 70
2, 57980, Note_off_c, 0, 60, 100
2, 57984, Note_on_c, 0, 60, 70
2, 58172, Note_off_c, 0, 60, 100
2, 58320, Note_on_c, 0, 60, 70
2, 58364, Note_off_c, 0, 60, 100
2, 58368, Note_on_c, 0, 60, 70
2, 58748, Note_off_c, 0, 60, 100
2, 59088, Note_on_c, 0, 61, 80
2, 59132, Note_off_c, 0, 61, 100
2, 59136, Note_on_c, 0, 61, 81
2, 59324, Note_off_c, 0, 61, 100
2, 59472, Note_on_c, 0, 61, 89
2, 59516, Note_off_c, 0, 61, 100
2, 59520, Note_on_c, 0, 61, 90
2, 59708, Note_off_c, 0, 61, 100
2, 59856, Note_on_c, 0, 61, 98
2, 59900, Note_off_c, 0, 61, 100
2, 59904, Note_on_c, 0, 61, 99
2, 60284, Note_off_c, 0, 61, 100
2, 60624, Note_on_c, 0, 61, 110
2, 60668, Note_off_c, 0, 61, 100
2, 60672, Note_on_c, 0, 61, 110
2, 61052, Note_off_c, 0, 61, 100
2, 61056, Note_on_c, 0, 58, 110
2, 61244, Note_off_c, 0, 58, 100
2, 61248, Note_on_c, 0, 55, 110
2, 61436, Note_off_c, 0, 55, 100
2, 61440, Note_on_c, 0, 51, 110
2, 62780, Note_off_c, 0, 51, 100
2, 62784, Note_on_c, 0, 51, 80
2, 62816, Note_off_c, 0, 51, 100
2, 62820, Note_on_c, 0, 53, 80
2, 62852, Note_off_c, 0, 53, 100
2, 62856, Note_on_c, 0, 55, 80
2, 62888, Note_off_c, 0, 55, 100
2, 62888, Note_on_c, 0, 56, 80
2, 62920, Note_off_c, 0, 56, 100
2, 62928, Note_on_c, 0, 58, 80
2, 62960, Note_off_c, 0, 58, 100
2, 62976, Note_on_c, 0, 60, 80
2, 63548, Note_off_c, 0, 60, 100
2, 63552, Note_on_c, 0, 61, 95
2, 63552, Note_on_c, 0, 55, 95
2, 63552, Note_on_c, 0, 51, 95
2, 63740, Note_off_c, 0, 61, 100
2, 63740, Note_off_c, 0, 55, 100
2, 63740, Note_off_c, 0, 51, 100
2, 63744, Note_on_c, 0, 56, 80
2, 63744, Note_on_c, 0, 51, 80
2, 63744, Note_on_c, 0, 63, 80
2, 64316, Note_off_c, 0, 56, 100
2, 64316, Note_off_c, 0, 51, 100
2, 64316, Note_off_c, 0, 63, 100
2, 64320, Note_on_c, 0, 65, 95
2, 64320, Note_on_c, 0, 53, 95
2, 64508, Note_off_c, 0, 65, 100
2, 64512, Note_on_c, 0, 61, 80
2, 64700, Note_off_c, 0, 53, 100
2, 64700, Note_off_c, 0, 61, 100
2, 64704, Note_on_c, 0, 63, 80
2, 64704, Note_on_c, 0, 58, 80
2, 64892, Note_off_c, 0, 63, 100
2, 64892, Note_off_c, 0, 58, 100
2, 64896, Note_on_c, 0, 60, 80
2, 64896, Note_on_c, 0, 51, 80
2, 65084, Note_off_c, 0, 60, 100
2, 65084, Note_off_c, 0, 51, 100
2, 65088, Note_on_c, 0, 56, 80
2, 65088, Note_on_c, 0, 51, 80
2, 65276, Note_off_c, 0, 56, 100
2, 65276, Note_off_c, 0, 51, 100
2, 65280, Note_on_c, 0, 58, 80
2, 65280, Note_on_c, 0, 55, 80
2, 65756, Note_off_c, 0, 58, 100
2, 65756, Note_off_c, 0, 55, 100
2, 65760, Note_on_c, 0, 55, 80
2, 65760, Note_on_c, 0, 51, 80
2, 65852, Note_off_c, 0, 55, 100
2, 65852, Note_off_c, 0, 51, 100
2, 65856, Note_on_c, 0, 56, 80
2, 65856, Note_on_c, 0, 53, 80
2, 65948, Note_off_c, 0, 56, 100
2, 65948, Note_off_c, 0, 53, 100
2, 65952, Note_on_c, 0, 58, 80
2, 65952, Note_on_c, 0, 55, 80
2, 66044, Note_off_c, 0, 58, 100
2, 66044, Note_off_c, 0, 55, 100
2, 66048, Note_on_c, 0, 60, 80
2, 66048, Note_on_c, 0, 56, 80
2, 66048, Note_on_c, 0, 51, 80
2, 66620, Note_off_c, 0, 60, 100
2, 66620, Note_off_c, 0, 56, 100
2, 66620, Note_off_c, 0, 51, 100
2, 66624, Note_on_c, 0, 61, 95
2, 66624, Note_on_c, 0, 55, 95
2, 66624, Note_on_c, 0, 51, 95
2, 66812, Note_off_c, 0, 61, 100
2, 66812, Note_off_c, 0, 55, 100
2, 66812, Note_off_c, 0, 51, 100
2, 66816, Note_on_c, 0, 56, 80
2, 66816, Note_on_c, 0, 51, 80
2, 66816, Note_on_c, 0, 63, 80
2, 67388, Note_off_c, 0, 56, 100
2, 67388, Note_off_c, 0, 51, 100
2, 67388, Note_off_c, 0, 63, 100
2, 67392, Note_on_c, 0, 65, 95
2, 67392, Note_on_c, 0, 53, 95
2, 67580, Note_off_c, 0, 65, 100
2, 67584, Note_on_c, 0, 61, 80
2, 67772, Note_off_c, 0, 53, 100
2, 67772, Note_off_c, 0, 61, 100
2, 67776, Note_on_c, 0, 63, 80
2, 67776, Note_on_c, 0, 58, 80
2, 67964, Note_off_c, 0, 63, 100
2, 67964, Note_off_c, 0, 58, 100
2, 67968, Note_on_c, 0, 60, 80
2, 67968, Note_on_c, 0, 51, 80
2, 68156, Note_off_c, 0, 60, 100
2, 68156, Note_off_c, 0, 51, 100
2, 68160, Note_on_c, 0, 56, 80
2, 68160, Note_on_c, 0, 51, 80
2, 68348, Note_off_c, 0, 56, 100
2, 68348, Note_off_c, 0, 51, 100
2, 68352, Note_on_c, 0, 58, 80
2, 68352, Note_on_c, 0, 49, 80
2, 68352, Note_on_c, 0, 51, 80
2, 68732, Note_off_c, 0, 58, 100
2, 68732, Note_off_c, 0, 49, 100
2, 68736, Note_on_c, 0, 56, 80
2, 68736, Note_on_c, 0, 48, 80
2, 68924, Note_off_c, 0, 51, 100
2, 68924, Note_off_c, 0, 56, 100
2, 68924, Note_off_c, 0, 48, 100
2, 68928, Note_on_c, 0, 80, 80
2, 68928, Note_on_c, 0, 72, 80
2, 69116, Note_off_c, 0, 80, 100
2, 69116, Note_off_c, 0, 72, 100
2, 69120, Note_on_c, 0, 82, 80
2, 69120, Note_on_c, 0, 73, 80
2, 69500, Note_off_c, 0, 82, 100
2, 69500, Note_off_c, 0, 73, 100
2, 69504, Note_on_c, 0, 80, 80
2, 69504, Note_on_c, 0, 72, 80
2, 69692, Note_off_c, 0, 80, 100
2, 69692, Note_off_c, 0, 72, 100
2, 69696, Note_on_c, 0, 84, 70
2, 69884, Note_off_c, 0, 84, 100
2, 69888, Note_on_c, 0, 82, 70
2, 70220, Note_off_c, 0, 82, 100
2, 70224, Note_on_c, 0, 80, 70
2, 70268, Note_off_c, 0, 80, 100
2, 70272, Note_on_c, 0, 79, 70
2, 70412, Note_off_c, 0, 79, 100
2, 70464, Note_on_c, 0, 77, 70
2, 70604, Note_off_c, 0, 77, 100
2, 70656, Note_on_c, 0, 76, 70
2, 71036, Note_off_c, 0, 76, 100
2, 71232, Note_on_c, 0, 77, 70
2, 71280, Note_on_c, 0, 79, 70
2, 71324, Note_off_c, 0, 77, 100
2, 71328, Note_on_c, 0, 76, 70
2, 71372, Note_off_c, 0, 79, 100
2, 71376, Note_on_c, 0, 77, 70
2, 71420, Note_off_c, 0, 76, 100
2, 71420, Note_off_c, 0, 77, 100
2, 71424, Note_on_c, 0, 79, 70
2, 71756, Note_off_c, 0, 79, 100
2, 71760, Note_on_c, 0, 77, 70
2, 71804, Note_off_c, 0, 77, 100
2, 71808, Note_on_c, 0, 76, 70
2, 71996, Note_off_c, 0, 76, 100
2, 72000, Note_on_c, 0, 74, 70
2, 72140, Note_off_c, 0, 74, 100
2, 72192, Note_on_c, 0, 72, 70
2, 72572, Note_off_c, 0, 72, 100
2, 72912, Note_on_c, 0, 72, 70
2, 72956, Note_off_c, 0, 72, 100
2, 72960, Note_on_c, 0, 72, 70
2, 73148, Note_off_c, 0, 72, 100
2, 73296, Note_on_c, 0, 72, 70
2, 73340, Note_off_c, 0, 72, 100
2, 73344, Note_on_c, 0, 72, 70
2, 73532, Note_off_c, 0, 72, 100
2, 73680, Note_on_c, 0, 72, 70
2, 73724, Note_off_c, 0, 72, 100
2, 73728, Note_on_c, 0, 72, 70
2, 74108, Note_off_c, 0, 72, 100
2, 74448, Note_on_c, 0, 89, 120
2, 74448, Note_on_c, 0, 84, 120
2, 74448, Note_on_c, 0, 81, 120
2, 74448, Note_on_c, 0, 77, 120
2, 74492, Note_off_c, 0, 89, 100
2, 74492, Note_off_c, 0, 84, 100
2, 74492, Note_off_c, 0, 81, 100
2, 74492, Note_off_c, 0, 77, 100
2, 74496, Note_on_c, 0, 89, 120
2, 74496, Note_on_c, 0, 84, 120
2, 74496, Note_on_c, 0, 81, 120
2, 74496, Note_on_c, 0, 77, 120
2, 74684, Note_off_c, 0, 89, 100
2, 74684, Note_off_c, 0, 84, 100
2, 74684, Note_off_c, 0, 81, 100
2, 74684, Note_off_c, 0, 77, 100
2, 74688, Note_on_c, 0, 65, 80
2, 74780, Note_off_c, 0, 65, 100
2, 74784, Note_on_c, 0, 69, 80
2, 74876, Note_off_c, 0, 69, 100
2, 74880, Note_on_c, 0, 67, 80
2, 74972, Note_off_c, 0, 67, 100
2, 74976, Note_on_c, 0, 70, 80
2, 75068, Note_off_c, 0, 70, 100
2, 75072, Note_on_c, 0, 64, 80
2, 75164, Note_off_c, 0, 64, 100
2, 75168, Note_on_c, 0, 67, 80
2, 75260, Note_off_c, 0, 67, 100
2, 75264, Note_on_c, 0, 65, 80
2, 75356, Note_off_c, 0, 65, 100
2, 75360, Note_on_c, 0, 69, 80
2, 75452, Note_off_c, 0, 69, 100
2, 75456, Note_on_c, 0, 65, 80
2, 75548, Note_off_c, 0, 65, 100
2, 75552, Note_on_c, 0, 69, 80
2, 75644, Note_off_c, 0, 69, 100
2, 75648, Note_on_c, 0, 67, 80
2, 75740, Note_off_c, 0, 67, 100
2, 75744, Note_on_c, 0, 70, 80
2, 75836, Note_off_c, 0, 70, 100
2, 75840, Note_on_c, 0, 64, 80
2, 75932, Note_off_c, 0, 64, 100
2, 75936, Note_on_c, 0, 67, 80
2, 76028, Note_off_c, 0, 67, 100
2, 76032, Note_on_c, 0, 65, 80
2, 76124, Note_off_c, 0, 65, 100
2, 76128, Note_on_c, 0, 69, 80
2, 76220, Note_off_c, 0, 69, 100
2, 76224, Note_on_c, 0, 72, 80
2, 76316, Note_off_c, 0, 72, 100
2, 76320, Note_on_c, 0, 69, 80
2, 76412, Note_off_c, 0, 69, 100
2, 76416, Note_on_c, 0, 69, 80
2, 76508, Note_off_c, 0, 69, 100
2, 76512, Note_on_c, 0, 72, 80
2, 76604, Note_off_c, 0, 72, 100
2, 76608, Note_on_c, 0, 75, 80
2, 76700, Note_off_c, 0, 75, 100
2, 76704, Note_on_c, 0, 72, 80
2, 76796, Note_off_c, 0, 72, 100
2, 76800, Note_on_c, 0, 72, 80
2, 76892, Note_off_c, 0, 72, 100
2, 76896, Note_on_c, 0, 75, 80
2, 76988, Note_off_c, 0, 75, 100
2, 76992, Note_on_c, 0, 78, 80
2, 77084, Note_off_c, 0, 78, 100
2, 77088, Note_on_c, 0, 75, 80
2, 77180, Note_off_c, 0, 75, 100
2, 77184, Note_on_c, 0, 73, 80
2, 77276, Note_off_c, 0, 73, 100
2, 77280, Note_on_c, 0, 77, 80
2, 77372, Note_off_c, 0, 77, 100
2, 77376, Note_on_c, 0, 72, 80
2, 77468, Note_off_c, 0, 72, 100
2, 77472, Note_on_c, 0, 77, 80
2, 77564, Note_off_c, 0, 77, 100
2, 77568, Note_on_c, 0, 82, 120
2, 77568, Note_on_c, 0, 77, 120
2, 77568, Note_on_c, 0, 74, 120
2, 77568, Note_on_c, 0, 70, 120
2, 77756, Note_off_c, 0, 82, 100
2, 77756, Note_off_c, 0, 77, 100
2, 77756, Note_off_c, 0, 74, 100
2, 77756, Note_off_c, 0, 70, 100
2, 77760, Note_on_c, 0, 70, 80
2, 77852, Note_off_c, 0, 70, 100
2, 77856, Note_on_c, 0, 74, 80
2, 77948, Note_off_c, 0, 74, 100
2, 77952, Note_on_c, 0, 72, 80
2, 78044, Note_off_c, 0, 72, 100
2, 78048, Note_on_c, 0, 75, 80
2, 78140, Note_off_c, 0, 75, 100
2, 78144, Note_on_c, 0, 69, 80
2, 78236, Note_off_c, 0, 69, 100
2, 78240, Note_on_c, 0, 72, 80
2, 78332, Note_off_c, 0, 72, 100
2, 78336, Note_on_c, 0, 70, 80
2, 78428, Note_off_c, 0, 70, 100
2, 78432, Note_on_c, 0, 74, 80
2, 78524, Note_off_c, 0, 74, 100
2, 78528, Note_on_c, 0, 70, 80
2, 78620, Note_off_c, 0, 70, 100
2, 78624, Note_on_c, 0, 74, 80
2, 78716, Note_off_c, 0, 74, 100
2, 78720, Note_on_c, 0, 72, 80
2, 78812, Note_off_c, 0, 72, 100
2, 78816, Note_on_c, 0, 75, 80
2, 78908, Note_off_c, 0, 75, 100
2, 78912, Note_on_c, 0, 69, 80
2, 79004, Note_off_c, 0, 69, 100
2, 79008, Note_on_c, 0, 72, 80
2, 79100, Note_off_c, 0, 72, 100
2, 79104, Note_on_c, 0, 70, 80
2, 79196, Note_off_c, 0, 70, 100
2, 79200, Note_on_c, 0, 74, 80
2, 79292, Note_off_c, 0, 74, 100
2, 79296, Note_on_c, 0, 77, 80
2, 79388, Note_off_c, 0, 77, 100
2, 79392, Note_on_c, 0, 74, 80
2, 79484, Note_off_c, 0, 74, 100
2, 79488, Note_on_c, 0, 74, 80
2, 79580, Note_off_c, 0, 74, 100
2, 79584, Note_on_c, 0, 77, 80
2, 79676, Note_off_c, 0, 77, 100
2, 79680, Note_on_c, 0, 80, 80
2, 79772, Note_off_c, 0, 80, 100
2, 79776, Note_on_c, 0, 77, 80
2, 79868, Note_off_c, 0, 77, 100
2, 79872, Note_on_c, 0, 77, 80
2, 79964, Note_off_c, 0, 77, 100
2, 79968, Note_on_c, 0, 80, 80
2, 80060, Note_off_c, 0, 80, 100
2, 80064, Note_on_c, 0, 83, 80
2, 80156, Note_off_c, 0, 83, 100
2, 80160, Note_on_c, 0, 80, 80
2, 80252, Note_off_c, 0, 80, 100
2, 80256, Note_on_c, 0, 83, 80
2, 80348, Note_off_c, 0, 83, 100
2, 80352, Note_on_c, 0, 86, 81
2, 80444, Note_off_c, 0, 86, 100
2, 80448, Note_on_c, 0, 89, 82
2, 80540, Note_off_c, 0, 89, 100
2, 80544, Note_on_c, 0, 86, 83
2, 80636, Note_off_c, 0, 86, 100
2, 80640, Note_on_c, 0, 89, 85
2, 80732, Note_off_c, 0, 89, 100
2, 80736, Note_on_c, 0, 86, 86
2, 80828, Note_off_c, 0, 86, 100
2, 80832, Note_on_c, 0, 89, 87
2, 80924, Note_off_c, 0, 89, 100
2, 80928, Note_on_c, 0, 86, 89
2, 81020, Note_off_c, 0, 86, 100
2, 81024, Note_on_c, 0, 89, 90
2, 81116, Note_off_c, 0, 89, 100
2, 81120, Note_on_c, 0, 86, 91
2, 81212, Note_off_c, 0, 86, 100
2, 81216, Note_on_c, 0, 89, 93
2, 81308, Note_off_c, 0, 89, 100
2, 81312, Note_on_c, 0, 86, 94
2, 81404, Note_off_c, 0, 86, 100
2, 81408, Note_on_c, 0, 89, 95
2, 81500, Note_off_c, 0, 89, 100
2, 81504, Note_on_c, 0, 86, 97
2, 81596, Note_off_c, 0, 86, 100
2, 81600, Note_on_c, 0, 89, 98
2, 81692, Note_off_c, 0, 89, 100
2, 81696, Note_on_c, 0, 86, 99
2, 81788, Note_off_c, 0, 86, 100
2, 81792, Note_on_c, 0, 87, 95
2, 81884, Note_off_c, 0, 87, 100
2, 81888, Note_on_c, 0, 82, 91
2, 81980, Note_off_c, 0, 82, 100
2, 81984, Note_on_c, 0, 79, 86
2, 82076, Note_off_c, 0, 79, 100
2, 82080, Note_on_c, 0, 75, 81
2, 82172, Note_off_c, 0, 75, 100
2, 82176, Note_on_c, 0, 74, 80
2, 82268, Note_off_c, 0, 74, 100
2, 82272, Note_on_c, 0, 86, 81
2, 82364, Note_off_c, 0, 86, 100
2, 82368, Note_on_c, 0, 89, 83
2, 82460, Note_off_c, 0, 89, 100
2, 82464, Note_on_c, 0, 86, 85
2, 82556, Note_off_c, 0, 86, 100
2, 82560, Note_on_c, 0, 89, 87
2, 82652, Note_off_c, 0, 89, 100
2, 82656, Note_on_c, 0, 86, 89
2, 82748, Note_off_c, 0, 86, 100
2, 82752, Note_on_c, 0, 89, 90
2, 82844, Note_off_c, 0, 89, 100
2, 82848, Note_on_c, 0, 86, 92
2, 82940, Note_off_c, 0, 86, 100
2, 82944, Note_on_c, 0, 89, 94
2, 83036, Note_off_c, 0, 89, 100
2, 83040, Note_on_c, 0, 86, 96
2, 83132, Note_off_c, 0, 86, 100
2, 83136, Note_on_c, 0, 89, 98
2, 83228, Note_off_c, 0, 89, 100
2, 83232, Note_on_c, 0, 86, 99
2, 83324, Note_off_c, 0, 86, 100
2, 83328, Note_on_c, 0, 87, 95
2, 83420, Note_off_c, 0, 87, 100
2, 83424, Note_on_c, 0, 82, 91
2, 83516, Note_off_c, 0, 82, 100
2, 83520, Note_on_c, 0, 79, 86
2, 83612, Note_off_c, 0, 79, 100
2, 83616, Note_on_c, 0, 75, 81
2, 83708, Note_off_c, 0, 75, 100
2, 83712, Note_on_c, 0, 74, 80
2, 83804, Note_off_c, 0, 74, 100
2, 83808, Note_on_c, 0, 86, 80
2, 83900, Note_off_c, 0, 86, 100
2, 83904, Note_on_c, 0, 89, 80
2, 83996, Note_off_c, 0, 89, 100
2, 84000, Note_on_c, 0, 86, 80
2, 84092, Note_off_c, 0, 86, 100
2, 84096, Note_on_c, 0, 87, 80
2, 84188, Note_off_c, 0, 87, 100
2, 84192, Note_on_c, 0, 82, 80
2, 84284, Note_off_c, 0, 82, 100
2, 84288, Note_on_c, 0, 79, 80
2, 84380, Note_off_c, 0, 79, 100
2, 84384, Note_on_c, 0, 75, 80
2, 84476, Note_off_c, 0, 75, 100
2, 84480, Note_on_c, 0, 74, 80
2, 84572, Note_off_c, 0, 74, 100
2, 84576, Note_on_c, 0, 86, 80
2, 84668, Note_off_c, 0, 86, 100
2, 84672, Note_on_c, 0, 89, 80
2, 84764, Note_off_c, 0, 89, 100
2, 84768, Note_on_c, 0, 86, 80
2, 84860, Note_off_c, 0, 86, 100
2, 84864, Note_on_c, 0, 87, 80
2, 84956, Note_off_c, 0, 87, 100
2, 84960, Note_on_c, 0, 82, 80
2, 85052, Note_off_c, 0, 82, 100
2, 85056, Note_on_c, 0, 79, 80
2, 85148, Note_off_c, 0, 79, 100
2, 85152, Note_on_c, 0, 75, 80
2, 85244, Note_off_c, 0, 75, 100
2, 85248, Note_on_c, 0, 72, 80
2, 85340, Note_off_c, 0, 72, 100
2, 85344, Note_on_c, 0, 68, 80
2, 85436, Note_off_c, 0, 68, 100
2, 85440, Note_on_c, 0, 63, 80
2, 85532, Note_off_c, 0, 63, 100
2, 85536, Note_on_c, 0, 60, 80
2, 85628, Note_off_c, 0, 60, 100
2, 85632, Note_on_c, 0, 58, 80
2, 85724, Note_off_c, 0, 58, 100
2, 85728, Note_on_c, 0, 53, 80
2, 85820, Note_off_c, 0, 53, 100
2, 85824, Note_on_c, 0, 50, 80
2, 85916, Note_off_c, 0, 50, 100
2, 85920, Note_on_c, 0, 46, 80
2, 86012, Note_off_c, 0, 46, 100
2, 86016, Note_on_c, 0, 51, 70
2, 86204, Note_off_c, 0, 51, 100
2, 86304, Note_on_c, 0, 70, 70
2, 86396, Note_off_c, 0, 70, 100
2, 86400, Note_on_c, 0, 67, 70
2, 86588, Note_off_c, 0, 67, 100
2, 86688, Note_on_c, 0, 75, 70
2, 86780, Note_off_c, 0, 75, 100
2, 86784, Note_on_c, 0, 70, 70
2, 86972, Note_off_c, 0, 70, 100
2, 87072, Note_on_c, 0, 79, 70
2, 87164, Note_off_c, 0, 79, 100
2, 87168, Note_on_c, 0, 74, 70
2, 87260, Note_off_c, 0, 74, 100
2, 87264, Note_on_c, 0, 80, 70
2, 87356, Note_off_c, 0, 80, 100
2, 87360, Note_on_c, 0, 77, 70
2, 87452, Note_off_c, 0, 77, 100
2, 87456, Note_on_c, 0, 74, 70
2, 87548, Note_off_c, 0, 74, 100
2, 87552, Note_on_c, 0, 75, 70
2, 87740, Note_off_c, 0, 75, 100
2, 87840, Note_on_c, 0, 70, 70
2, 87932, Note_off_c, 0, 70, 100
2, 87936, Note_on_c, 0, 67, 70
2, 88124, Note_off_c, 0, 67, 100
2, 88224, Note_on_c, 0, 75, 70
2, 88316, Note_off_c, 0, 75, 100
2, 88320, Note_on_c, 0, 70, 70
2, 88508, Note_off_c, 0, 70, 100
2, 88608, Note_on_c, 0, 79, 70
2, 88700, Note_off_c, 0, 79, 100
2, 88704, Note_on_c, 0, 74, 70
2, 88796, Note_off_c, 0, 74, 100
2, 88800, Note_on_c, 0, 80, 70
2, 88892, Note_off_c, 0, 80, 100
2, 88896, Note_on_c, 0, 77, 70
2, 88988, Note_off_c, 0, 77, 100
2, 88992, Note_on_c, 0, 74, 70
2, 89084, Note_off_c, 0, 74, 100
2, 89088, Note_on_c, 0, 75, 70
2, 89276, Note_off_c, 0, 75, 100
2, 89376, Note_on_c, 0, 91, 70
2, 89468, Note_off_c, 0, 91, 100
2, 89472, Note_on_c, 0, 86, 70
2, 89564, Note_off_c, 0, 86, 100
2, 89568, Note_on_c, 0, 92, 70
2, 89660, Note_off_c, 0, 92, 100
2, 89664, Note_on_c, 0, 89, 70
2, 89756, Note_off_c, 0, 89, 100
2, 89760, Note_on_c, 0, 86, 70
2, 89852, Note_off_c, 0, 86, 100
2, 89856, Note_on_c, 0, 87, 70
2, 90044, Note_off_c, 0, 87, 100
2, 90144, Note_on_c, 0, 79, 70
2, 90236, Note_off_c, 0, 79, 100
2, 90240, Note_on_c, 0, 74, 70
2, 90332, Note_off_c, 0, 74, 100
2, 90336, Note_on_c, 0, 80, 70
2, 90428, Note_off_c, 0, 80, 100
2, 90432, Note_on_c, 0, 77, 70
2, 90524, Note_off_c, 0, 77, 100
2, 90528, Note_on_c, 0, 74, 70
2, 90620, Note_off_c, 0, 74, 100
2, 90624, Note_on_c, 0, 75, 80
2, 90716, Note_off_c, 0, 75, 100
2, 90720, Note_on_c, 0, 79, 80
2, 90812, Note_off_c, 0, 79, 100
2, 90816, Note_on_c, 0, 70, 80
2, 90908, Note_off_c, 0, 70, 100
2, 90912, Note_on_c, 0, 75, 80
2, 91004, Note_off_c, 0, 75, 100
2, 91008, Note_on_c, 0, 67, 80
2, 91100, Note_off_c, 0, 67, 100
2, 91104, Note_on_c, 0, 70, 80
2, 91196, Note_off_c, 0, 70, 100
2, 91200, Note_on_c, 0, 68, 80
2, 91292, Note_off_c, 0, 68, 100
2, 91296, Note_on_c, 0, 65, 80
2, 91388, Note_off_c, 0, 65, 100
2, 91392, Note_on_c, 0, 63, 80
2, 91484, Note_off_c, 0, 63, 100
2, 91488, Note_on_c, 0, 67, 80
2, 91580, Note_off_c, 0, 67, 100
2, 91584, Note_on_c, 0, 58, 80
2, 91676, Note_off_c, 0, 58, 100
2, 91680, Note_on_c, 0, 63, 80
2, 91772, Note_off_c, 0, 63, 100
2, 91776, Note_on_c, 0, 55, 80
2, 91868, Note_off_c, 0, 55, 100
2, 91872, Note_on_c, 0, 58, 80
2, 91964, Note_off_c, 0, 58, 100
2, 91968, Note_on_c, 0, 56, 80
2, 92060, Note_off_c, 0, 56, 100
2, 92064, Note_on_c, 0, 53, 80
2, 92156, Note_off_c, 0, 53, 100
2, 92160, Note_on_c, 0, 51, 80
2, 92252, Note_off_c, 0, 51, 100
2, 92256, Note_on_c, 0, 55, 80
2, 92348, Note_off_c, 0, 55, 100
2, 92352, Note_on_c, 0, 46, 80
2, 92444, Note_off_c, 0, 46, 100
2, 92448, Note_on_c, 0, 51, 80
2, 92540, Note_off_c, 0, 51, 100
2, 92640, Note_on_c, 0, 46, 80
2, 92732, Note_off_c, 0, 46, 100
2, 92736, Note_on_c, 0, 43, 80
2, 92828, Note_off_c, 0, 43, 100
2, 92832, Note_on_c, 0, 46, 80
2, 92924, Note_off_c, 0, 46, 100
2, 93024, Note_on_c, 0, 46, 80
2, 93116, Note_off_c, 0, 46, 100
2, 93120, Note_on_c, 0, 43, 80
2, 93212, Note_off_c, 0, 43, 100
2, 93216, Note_on_c, 0, 46, 80
2, 93308, Note_off_c, 0, 46, 100
2, 93408, Note_on_c, 0, 46, 80
2, 93500, Note_off_c, 0, 46, 100
2, 93504, Note_on_c, 0, 43, 80
2, 93596, Note_off_c, 0, 43, 100
2, 93600, Note_on_c, 0, 46, 80
2, 93692, Note_off_c, 0, 46, 100
2, 93792, Note_on_c, 0, 47, 81
2, 93884, Note_off_c, 0, 47, 100
2, 93888, Note_on_c, 0, 43, 82
2, 93980, Note_off_c, 0, 43, 100
2, 93984, Note_on_c, 0, 47, 83
2, 94076, Note_off_c, 0, 47, 100
2, 94176, Note_on_c, 0, 47, 86
2, 94268, Note_off_c, 0, 47, 100
2, 94272, Note_on_c, 0, 43, 87
2, 94364, Note_off_c, 0, 43, 100
2, 94368, Note_on_c, 0, 47, 89
2, 94460, Note_off_c, 0, 47, 100
2, 94560, Note_on_c, 0, 47, 91
2, 94652, Note_off_c, 0, 47, 100
2, 94656, Note_on_c, 0, 43, 93
2, 94748, Note_off_c, 0, 43, 100
2, 94752, Note_on_c, 0, 47, 94
2, 94844, Note_off_c, 0, 47, 100
2, 94944, Note_on_c, 0, 47, 97
2, 95036, Note_off_c, 0, 47, 100
2, 95040, Note_on_c, 0, 43, 98
2, 95132, Note_off_c, 0, 43, 100
2, 95136, Note_on_c, 0, 47, 99
2, 95228, Note_off_c, 0, 47, 100
2, 95328, Note_on_c, 0, 48, 99
2, 95420, Note_off_c, 0, 48, 100
2, 95424, Note_on_c, 0, 43, 98
2, 95516, Note_off_c, 0, 43, 100
2, 95520, Note_on_c, 0, 48, 97
2, 95612, Note_off_c, 0, 48, 100
2, 95712, Note_on_c, 0, 48, 94
2, 95804, Note_off_c, 0, 48, 100
2, 95808, Note_on_c, 0, 43, 93
2, 95900, Note_off_c, 0, 43, 100
2, 95904, Note_on_c, 0, 48, 91
2, 95996, Note_off_c, 0, 48, 100
2, 96096, Note_on_c, 0, 48, 89
2, 96188, Note_off_c, 0, 48, 100
2, 96192, Note_on_c, 0, 43, 87
2, 96284, Note_off_c, 0, 43, 100
2, 96288, Note_on_c, 0, 48, 86
2, 96380, Note_off_c, 0, 48, 100
2, 96480, Note_on_c, 0, 48, 83
2, 96572, Note_off_c, 0, 48, 100
2, 96576, Note_on_c, 0, 43, 82
2, 96668, Note_off_c, 0, 43, 100
2, 96672, Note_on_c, 0, 48, 81
2, 96764, Note_off_c, 0, 48, 100
2, 96768, Note_on_c, 0, 69, 80
2, 96768, Note_on_c, 0, 65, 80
2, 96768, Note_on_c, 0, 60, 80
2, 97340, Note_off_c, 0, 69, 100
2, 97340, Note_off_c, 0, 65, 100
2, 97340, Note_off_c, 0, 60, 100
2, 97344, Note_on_c, 0, 70, 80
2, 97344, Note_on_c, 0, 64, 80
2, 97344, Note_on_c, 0, 60, 80
2, 97532, Note_off_c, 0, 70, 100
2, 97532, Note_off_c, 0, 64, 100
2, 97532, Note_off_c, 0, 60, 100
2, 97536, Note_on_c, 0, 72, 80
2, 97536, Note_on_c, 0, 65, 80
2, 97536, Note_on_c, 0, 60, 80
2, 98108, Note_off_c, 0, 72, 100
2, 98108, Note_off_c, 0, 65, 100
2, 98108, Note_off_c, 0, 60, 100
2, 98112, Note_on_c, 0, 74, 80
2, 98112, Note_on_c, 0, 62, 80
2, 98300, Note_off_c, 0, 74, 100
2, 98304, Note_on_c, 0, 70, 80
2, 98492, Note_off_c, 0, 62, 100
2, 98492, Note_off_c, 0, 70, 100
2, 98496, Note_on_c, 0, 72, 80
2, 98496, Note_on_c, 0, 67, 80
2, 98684, Note_off_c, 0, 72, 100
2, 98684, Note_off_c, 0, 67, 100
2, 98688, Note_on_c, 0, 69, 80
2, 98688, Note_on_c, 0, 60, 80
2, 98876, Note_off_c, 0, 69, 100
2, 98876, Note_off_c, 0, 60, 100
2, 98880, Note_on_c, 0, 65, 80
2, 98880, Note_on_c, 0, 60, 80
2, 99068, Note_off_c, 0, 65, 100
2, 99068, Note_off_c, 0, 60, 100
2, 99072, Note_on_c, 0, 67, 80
2, 99072, Note_on_c, 0, 64, 80
2, 99548, Note_off_c, 0, 67, 100
2, 99548, Note_off_c, 0, 64, 100
2, 99552, Note_on_c, 0, 64, 80
2, 99552, Note_on_c, 0, 60, 80
2, 99644, Note_off_c, 0, 64, 100
2, 99644, Note_off_c, 0, 60, 100
2, 99648, Note_on_c, 0, 62, 80
2, 99648, Note_on_c, 0, 65, 80
2, 99740, Note_off_c, 0, 62, 100
2, 99740, Note_off_c, 0, 65, 100
2, 99744, Note_on_c, 0, 67, 80
2, 99744, Note_on_c, 0, 64, 80
2, 99836, Note_off_c, 0, 67, 100
2, 99836, Note_off_c, 0, 64, 100
2, 99840, Note_on_c, 0, 69, 80
2, 99840, Note_on_c, 0, 65, 80
2, 99840, Note_on_c, 0, 60, 80
2, 100412, Note_off_c, 0, 69, 100
2, 100412, Note_off_c, 0, 65, 100
2, 100412, Note_off_c, 0, 60, 100
2, 100416, Note_on_c, 0, 70, 80
2, 100416, Note_on_c, 0, 64, 80
2, 100416, Note_on_c, 0, 60, 80
2, 100604, Note_off_c, 0, 70, 100
2, 100604, Note_off_c, 0, 64, 100
2, 100604, Note_off_c, 0, 60, 100
2, 100608, Note_on_c, 0, 72, 80
2, 100608, Note_on_c, 0, 65, 80
2, 100608, Note_on_c, 0, 60, 80
2, 101180, Note_off_c, 0, 72, 100
2, 101180, Note_off_c, 0, 65, 100
2, 101180, Note_off_c, 0, 60, 100
2, 101184, Note_on_c, 0, 73, 80
2, 101184, Note_on_c, 0, 61, 80
2, 101184, Note_on_c, 0, 65, 80
2, 101372, Note_off_c, 0, 73, 100
2, 101372, Note_off_c, 0, 61, 100
2, 101372, Note_off_c, 0, 65, 100
2, 101376, Note_on_c, 0, 75, 80
2, 101376, Note_on_c, 0, 63, 80
2, 101468, Note_off_c, 0, 75, 100
2, 101468, Note_off_c, 0, 63, 100
2, 101472, Note_on_c, 0, 81, 82
2, 101564, Note_off_c, 0, 81, 100
2, 101568, Note_on_c, 0, 84, 85
2, 101660, Note_off_c, 0, 84, 100
2, 101664, Note_on_c, 0, 81, 88
2, 101756, Note_off_c, 0, 81, 100
2, 101760, Note_on_c, 0, 84, 91
2, 101852, Note_off_c, 0, 84, 100
2, 101856, Note_on_c, 0, 81, 94
2, 101948, Note_off_c, 0, 81, 100
2, 101952, Note_on_c, 0, 84, 97
2, 102044, Note_off_c, 0, 84, 100
2, 102048, Note_on_c, 0, 81, 99
2, 102140, Note_off_c, 0, 81, 100
2, 102144, Note_on_c, 0, 84, 95
2, 102236, Note_off_c, 0, 84, 100
2, 102240, Note_on_c, 0, 81, 93
2, 102332, Note_off_c, 0, 81, 100
2, 102336, Note_on_c, 0, 84, 91
2, 102428, Note_off_c, 0, 84, 100
2, 102432, Note_on_c, 0, 81, 89
2, 102524, Note_off_c, 0, 81, 100
2, 102528, Note_on_c, 0, 82, 87
2, 102620, Note_off_c, 0, 82, 100
2, 102624, Note_on_c, 0, 77, 85
2, 102716, Note_off_c, 0, 77, 100
2, 102720, Note_on_c, 0, 73, 83
2, 102812, Note_off_c, 0, 73, 100
2, 102816, Note_on_c, 0, 70, 81
2, 102908, Note_off_c, 0, 70, 100
2, 102912, Note_on_c, 0, 69, 80
2, 103004, Note_off_c, 0, 69, 100
2, 103008, Note_on_c, 0, 81, 82
2, 103100, Note_off_c, 0, 81, 100
2, 103104, Note_on_c, 0, 84, 85
2, 103196, Note_off_c, 0, 84, 100
2, 103200, Note_on_c, 0, 81, 88
2, 103292, Note_off_c, 0, 81, 100
2, 103296, Note_on_c, 0, 84, 91
2, 103388, Note_off_c, 0, 84, 100
2, 103392, Note_on_c, 0, 81, 94
2, 103484, Note_off_c, 0, 81, 100
2, 103488, Note_on_c, 0, 84, 97
2, 103580, Note_off_c, 0, 84, 100
2, 103584, Note_on_c, 0, 81, 99
2, 103676, Note_off_c, 0, 81, 100
2, 103680, Note_on_c, 0, 84, 95
2, 103772, Note_off_c, 0, 84, 100
2, 103776, Note_on_c, 0, 81, 93
2, 103868, Note_off_c, 0, 81, 100
2, 103872, Note_on_c, 0, 84, 91
2, 103964, Note_off_c, 0, 84, 100
2, 103968, Note_on_c, 0, 81, 89
2, 104060, Note_off_c, 0, 81, 100
2, 104064, Note_on_c, 0, 82, 87
2, 104156, Note_off_c, 0, 82, 100
2, 104160, Note_on_c, 0, 77, 85
2, 104252, Note_off_c, 0, 77, 100
2, 104256, Note_on_c, 0, 73, 83
2, 104348, Note_off_c, 0, 73, 100
2, 104352, Note_on_c, 0, 70, 81
2, 104444, Note_off_c, 0, 70, 100
2, 104448, Note_on_c, 0, 71, 80
2, 104540, Note_off_c, 0, 71, 100
2, 104544, Note_on_c, 0, 83, 80
2, 104636, Note_off_c, 0, 83, 100
2, 104640, Note_on_c, 0, 86, 80
2, 104732, Note_off_c, 0, 86, 100
2, 104736, Note_on_c, 0, 83, 80
2, 104828, Note_off_c, 0, 83, 100
2, 104832, Note_on_c, 0, 84, 80
2, 104924, Note_off_c, 0, 84, 100
2, 104928, Note_on_c, 0, 79, 80
2, 105020, Note_off_c, 0, 79, 100
2, 105024, Note_on_c, 0, 75, 80
2, 105116, Note_off_c, 0, 75, 100
2, 105120, Note_on_c, 0, 72, 80
2, 105212, Note_off_c, 0, 72, 100
2, 105216, Note_on_c, 0, 71, 80
2, 105308, Note_off_c, 0, 71, 100
2, 105312, Note_on_c, 0, 83, 80
2, 105404, Note_off_c, 0, 83, 100
2, 105408, Note_on_c, 0, 86, 80
2, 105500, Note_off_c, 0, 86, 100
2, 105504, Note_on_c, 0, 83, 80
2, 105596, Note_off_c, 0, 83, 100
2, 105600, Note_on_c, 0, 84, 80
2, 105692, Note_off_c, 0, 84, 100
2, 105696, Note_on_c, 0, 79, 80
2, 105788, Note_off_c, 0, 79, 100
2, 105792, Note_on_c, 0, 75, 80
2, 105884, Note_off_c, 0, 75, 100
2, 105888, Note_on_c, 0, 72, 80
2, 105980, Note_off_c, 0, 72, 100
2, 105984, Note_on_c, 0, 79, 80
2, 106076, Note_off_c, 0, 79, 100
2, 106080, Note_on_c, 0, 75, 80
2, 106172, Note_off_c, 0, 75, 100
2, 106176, Note_on_c, 0, 72, 80
2, 106268, Note_off_c, 0, 72, 100
2, 106272, Note_on_c, 0, 67, 80
2, 106364, Note_off_c, 0, 67, 100
2, 106368, Note_on_c, 0, 75, 80
2, 106460, Note_off_c, 0, 75, 100
2, 106464, Note_on_c, 0, 72, 80
2, 106556, Note_off_c, 0, 72, 100
2, 106560, Note_on_c, 0, 67, 80
2, 106652, Note_off_c, 0, 67, 100
2, 106656, Note_on_c, 0, 63, 80
2, 106748, Note_off_c, 0, 63, 100
2, 106752, Note_on_c, 0, 72, 80
2, 106844, Note_off_c, 0, 72, 100
2, 106848, Note_on_c, 0, 67, 80
2, 106940, Note_off_c, 0, 67, 100
2, 106944, Note_on_c, 0, 63, 80
2, 107036, Note_off_c, 0, 63, 100
2, 107040, Note_on_c, 0, 60, 80
2, 107132, Note_off_c, 0, 60, 100
2, 107136, Note_on_c, 0, 67, 80
2, 107228, Note_off_c, 0, 67, 100
2, 107232, Note_on_c, 0, 63, 80
2, 107324, Note_off_c, 0, 63, 100
2, 107328, Note_on_c, 0, 60, 80
2, 107420, Note_off_c, 0, 60, 100
2, 107424, Note_on_c, 0, 55, 80
2, 107516, Note_off_c, 0, 55, 100
2, 107520, Note_on_c, 0, 63, 80
2, 107612, Note_off_c, 0, 63, 100
2, 107616, Note_on_c, 0, 60, 80
2, 107708, Note_off_c, 0, 60, 100
2, 107712, Note_on_c, 0, 55, 80
2, 107804, Note_off_c, 0, 55, 100
2, 107808, Note_on_c, 0, 51, 80
2, 107900, Note_off_c, 0, 51, 100
2, 107904, Note_on_c, 0, 60, 80
2, 107996, Note_off_c, 0, 60, 100
2, 108000, Note_on_c, 0, 55, 80
2, 108092, Note_off_c, 0, 55, 100
2, 108096, Note_on_c, 0, 51, 80
2, 108188, Note_off_c, 0, 51, 100
2, 108192, Note_on_c, 0, 48, 80
2, 108284, Note_off_c, 0, 48, 100
2, 108288, Note_on_c, 0, 43, 80
2, 108380, Note_off_c, 0, 43, 100
2, 108384, Note_on_c, 0, 55, 80
2, 108476, Note_off_c, 0, 55, 100
2, 108480, Note_on_c, 0, 59, 80
2, 108572, Note_off_c, 0, 59, 100
2, 108576, Note_on_c, 0, 55, 80
2, 108668, Note_off_c, 0, 55, 100
2, 108672, Note_on_c, 0, 60, 90
2, 108764, Note_off_c, 0, 60, 100
2, 108768, Note_on_c, 0, 55, 80
2, 108860, Note_off_c, 0, 55, 100
2, 108864, Note_on_c, 0, 51, 80
2, 108956, Note_off_c, 0, 51, 100
2, 108960, Note_on_c, 0, 48, 80
2, 109052, Note_off_c, 0, 48, 100
2, 109056, Note_on_c, 0, 43, 80
2, 109148, Note_off_c, 0, 43, 100
2, 109152, Note_on_c, 0, 55, 80
2, 109244, Note_off_c, 0, 55, 100
2, 109248, Note_on_c, 0, 59, 80
2, 109340, Note_off_c, 0, 59, 100
2, 109344, Note_on_c, 0, 55, 80
2, 109436, Note_off_c, 0, 55, 100
2, 109440, Note_on_c, 0, 60, 90
2, 109532, Note_off_c, 0, 60, 100
2, 109536, Note_on_c, 0, 55, 80
2, 109628, Note_off_c, 0, 55, 100
2, 109632, Note_on_c, 0, 51, 80
2, 109724, Note_off_c, 0, 51, 100
2, 109728, Note_on_c, 0, 48, 80
2, 109820, Note_off_c, 0, 48, 100
2, 109824, Note_on_c, 0, 43, 80
2, 109916, Note_off_c, 0, 43, 100
2, 109920, Note_on_c, 0, 45, 81
2, 110012, Note_off_c, 0, 45, 100
2, 110016, Note_on_c, 0, 47, 82
2, 110108, Note_off_c, 0, 47, 100
2, 110112, Note_on_c, 0, 48, 83
2, 110204, Note_off_c, 0, 48, 100
2, 110208, Note_on_c, 0, 50, 85
2, 110300, Note_off_c, 0, 50, 100
2, 110304, Note_on_c, 0, 52, 86
2, 110396, Note_off_c, 0, 52, 100
2, 110400, Note_on_c, 0, 53, 87
2, 110492, Note_off_c, 0, 53, 100
2, 110496, Note_on_c, 0, 54, 89
2, 110588, Note_off_c, 0, 54, 100
2, 110592, Note_on_c, 0, 55, 90
2, 110684, Note_off_c, 0, 55, 100
2, 110688, Note_on_c, 0, 57, 91
2, 110780, Note_off_c, 0, 57, 100
2, 110784, Note_on_c, 0, 58, 93
2, 110876, Note_off_c, 0, 58, 100
2, 110880, Note_on_c, 0, 59, 94
2, 110972, Note_off_c, 0, 59, 100
2, 110976, Note_on_c, 0, 60, 95
2, 111068, Note_off_c, 0, 60, 100
2, 111072, Note_on_c, 0, 61, 97
2, 111164, Note_off_c, 0, 61, 100
2, 111168, Note_on_c, 0, 62, 98
2, 111260, Note_off_c, 0, 62, 100
2, 111264, Note_on_c, 0, 63, 99
2, 111356, Note_off_c, 0, 63, 100
2, 111360, Note_on_c, 0, 64, 80
2, 111360, Note_on_c, 0, 60, 80
2, 111360, Note_on_c, 0, 55, 80
2, 111932, Note_off_c, 0, 64, 100
2, 111932, Note_off_c, 0, 60, 100
2, 111932, Note_off_c, 0, 55, 100
2, 111936, Note_on_c, 0, 65, 80
2, 111936, Note_on_c, 0, 59, 80
2, 111936, Note_on_c, 0, 55, 80
2, 112124, Note_off_c, 0, 65, 100
2, 112124, Note_off_c, 0, 59, 100
2, 112124, Note_off_c, 0, 55, 100
2, 112128, Note_on_c, 0, 67, 80
2, 112128, Note_on_c, 0, 60, 80
2, 112128, Note_on_c, 0, 55, 80
2, 112700, Note_off_c, 0, 67, 100
2, 112700, Note_off_c, 0, 60, 100
2, 112700, Note_off_c, 0, 55, 100
2, 112704, Note_on_c, 0, 69, 80
2, 112704, Note_on_c, 0, 57, 80
2, 112892, Note_off_c, 0, 69, 100
2, 112896, Note_on_c, 0, 65, 80
2, 113084, Note_off_c, 0, 57, 100
2, 113084, Note_off_c, 0, 65, 100
2, 113088, Note_on_c, 0, 67, 80
2, 113088, Note_on_c, 0, 62, 80
2, 113276, Note_off_c, 0, 67, 100
2, 113276, Note_off_c, 0, 62, 100
2, 113280, Note_on_c, 0, 64, 80
2, 113280, Note_on_c, 0, 55, 80
2, 113468, Note_off_c, 0, 64, 100
2, 113468, Note_off_c, 0, 55, 100
2, 113472, Note_on_c, 0, 60, 80
2, 113472, Note_on_c, 0, 55, 80
2, 113660, Note_off_c, 0, 60, 100
2, 113660, Note_off_c, 0, 55, 100
2, 113664, Note_on_c, 0, 62, 80
2, 113664, Note_on_c, 0, 59, 80
2, 114236, Note_off_c, 0, 62, 100
2, 114236, Note_off_c, 0, 59, 100
2, 114240, Note_on_c, 0, 67, 80
2, 114276, Note_on_c, 0, 69, 80
2, 114296, Note_off_c, 0, 67, 100
2, 114312, Note_on_c, 0, 71, 80
2, 114332, Note_off_c, 0, 69, 100
2, 114348, Note_on_c, 0, 72, 80
2, 114368, Note_off_c, 0, 71, 100
2, 114384, Note_on_c, 0, 74, 80
2, 114400, Note_off_c, 0, 72, 100
2, 114432, Note_on_c, 0, 76, 80
2, 114436, Note_off_c, 0, 74, 100
2, 115004, Note_off_c, 0, 76, 100
2, 115008, Note_on_c, 0, 77, 88
2, 115196, Note_off_c, 0, 77, 100
2, 115200, Note_on_c, 0, 79, 90
2, 115772, Note_off_c, 0, 79, 100
2, 115776, Note_on_c, 0, 72, 97
2, 115804, Note_off_c, 0, 72, 100
2, 115808, Note_on_c, 0, 74, 98
2, 115836, Note_off_c, 0, 74, 100
2, 115840, Note_on_c, 0, 76, 98
2, 115868, Note_off_c, 0, 76, 100
2, 115872, Note_on_c, 0, 77, 99
2, 115900, Note_off_c, 0, 77, 100
2, 115904, Note_on_c, 0, 79, 99
2, 115932, Note_off_c, 0, 79, 100
2, 115936, Note_on_c, 0, 80, 99
2, 115964, Note_off_c, 0, 80, 100
2, 115968, Note_on_c, 0, 82, 102
2, 116540, Note_off_c, 0, 82, 100
2, 116544, Note_on_c, 0, 84, 80
2, 116732, Note_off_c, 0, 84, 100
2, 116736, Note_on_c, 0, 85, 80
2, 116924, Note_off_c, 0, 85, 100
2, 117024, Note_on_c, 0, 79, 80
2, 117048, Note_on_c, 0, 80, 80
2, 117068, Note_off_c, 0, 79, 100
2, 117072, Note_on_c, 0, 82, 80
2, 117092, Note_off_c, 0, 80, 100
2, 117096, Note_on_c, 0, 84, 80
2, 117116, Note_off_c, 0, 82, 100
2, 117120, Note_on_c, 0, 85, 80
2, 117140, Note_off_c, 0, 84, 100
2, 117308, Note_off_c, 0, 85, 100
2, 117408, Note_on_c, 0, 67, 80
2, 117432, Note_on_c, 0, 68, 80
2, 117452, Note_off_c, 0, 67, 100
2, 117456, Note_on_c, 0, 70, 80
2, 117476, Note_off_c, 0, 68, 100
2, 117480, Note_on_c, 0, 72, 80
2, 117500, Note_off_c, 0, 70, 100
2, 117504, Note_on_c, 0, 73, 80
2, 117524, Note_off_c, 0, 72, 100
2, 117692, Note_off_c, 0, 73, 100
2, 117792, Note_on_c, 0, 43, 100
2, 117816, Note_on_c, 0, 44, 100
2, 117836, Note_off_c, 0, 43, 100
2, 117840, Note_on_c, 0, 46, 100
2, 117860, Note_off_c, 0, 44, 100
2, 117864, Note_on_c, 0, 48, 100
2, 117884, Note_off_c, 0, 46, 100
2, 117888, Note_on_c, 0, 49, 100
2, 117908, Note_off_c, 0, 48, 100
2, 118076, Note_off_c, 0, 49, 100
2, 118176, Note_on_c, 0, 49, 100
2, 118200, Note_on_c, 0, 48, 100
2, 118220, Note_off_c, 0, 49, 100
2, 118224, Note_on_c, 0, 46, 100
2, 118244, Note_off_c, 0, 48, 100
2, 118248, Note_on_c, 0, 44, 100
2, 118268, Note_off_c, 0, 46, 100
2, 118272, Note_on_c, 0, 43, 100
2, 118292, Note_off_c, 0, 44, 100
2, 118460, Note_off_c, 0, 43, 100
2, 118560, Note_on_c, 0, 79, 80
2, 118584, Note_on_c, 0, 80, 80
2, 118604, Note_off_c, 0, 79, 100
2, 118608, Note_on_c, 0, 82, 80
2, 118628, Note_off_c, 0, 80, 100
2, 118632, Note_on_c, 0, 84, 80
2, 118652, Note_off_c, 0, 82, 100
2, 118656, Note_on_c, 0, 85, 80
2, 118676, Note_off_c, 0, 84, 100
2, 118844, Note_off_c, 0, 85, 100
2, 118944, Note_on_c, 0, 67, 80
2, 118968, Note_on_c, 0, 68, 80
2, 118988, Note_off_c, 0, 67, 100
2, 118992, Note_on_c, 0, 70, 80
2, 119012, Note_off_c, 0, 68, 100
2, 119016, Note_on_c, 0, 72, 80
2, 119036, Note_off_c, 0, 70, 100
2, 119040, Note_on_c, 0, 73, 80
2, 119060, Note_off_c, 0, 72, 100
2, 119228, Note_off_c, 0, 73, 100
2, 119328, Note_on_c, 0, 43, 100
2, 119352, Note_on_c, 0, 44, 100
2, 119372, Note_off_c, 0, 43, 100
2, 119376, Note_on_c, 0, 46, 100
2, 119396, Note_off_c, 0, 44, 100
2, 119400, Note_on_c, 0, 48, 100
2, 119420, Note_off_c, 0, 46, 100
2, 119424, Note_on_c, 0, 49, 100
2, 119444, Note_off_c, 0, 48, 100
2, 119612, Note_off_c, 0, 49, 100
2, 119712, Note_on_c, 0, 49, 100
2, 119736, Note_on_c, 0, 48, 100
2, 119756, Note_off_c, 0, 49, 100
2, 119760, Note_on_c, 0, 46, 100
2, 119780, Note_off_c, 0, 48, 100
2, 119784, Note_on_c, 0, 44, 100
2, 119804, Note_off_c, 0, 46, 100
2, 119808, Note_on_c, 0, 43, 100
2, 119828, Note_off_c, 0, 44, 100
2, 119996, Note_off_c, 0, 43, 100
2, 120096, Note_on_c, 0, 43, 80
2, 120120, Note_on_c, 0, 44, 80
2, 120140, Note_off_c, 0, 43, 100
2, 120144, Note_on_c, 0, 46, 80
2, 120164, Note_off_c, 0, 44, 100
2, 120168, Note_on_c, 0, 48, 80
2, 120188, Note_off_c, 0, 46, 100
2, 120192, Note_on_c, 0, 49, 80
2, 120212, Note_off_c, 0, 48, 100
2, 120380, Note_off_c, 0, 49, 100
2, 120480, Note_on_c, 0, 49, 80
2, 120504, Note_on_c, 0, 48, 80
2, 120524, Note_off_c, 0, 49, 100
2, 120528, Note_on_c, 0, 46, 80
2, 120548, Note_off_c, 0, 48, 100
2, 120552, Note_on_c, 0, 44, 80
2, 120572, Note_off_c, 0, 46, 100
2, 120576, Note_on_c, 0, 43, 80
2, 120596, Note_off_c, 0, 44, 100
2, 120764, Note_off_c, 0, 43, 100
2, 120864, Note_on_c, 0, 43, 80
2, 120888, Note_on_c, 0, 44, 80
2, 120908, Note_off_c, 0, 43, 100
2, 120912, Note_on_c, 0, 46, 80
2, 120932, Note_off_c, 0, 44, 100
2, 120936, Note_on_c, 0, 48, 80
2, 120956, Note_off_c, 0, 46, 100
2, 120960, Note_on_c, 0, 49, 80
2, 120980, Note_off_c, 0, 48, 100
2, 121148, Note_off_c, 0, 49, 100
2, 121248, Note_on_c, 0, 49, 80
2, 121272, Note_on_c, 0, 48, 80
2, 121292, Note_off_c, 0, 49, 100
2, 121296, Note_on_c, 0, 46, 80
2, 121316, Note_off_c, 0, 48, 100
2, 121320, Note_on_c, 0, 44, 80
2, 121340, Note_off_c, 0, 46, 100
2, 121344, Note_on_c, 0, 43, 80
2, 121364, Note_off_c, 0, 44, 100
2, 121428, Note_off_c, 0, 43, 100
2, 121536, Note_on_c, 0, 58, 80
2, 121628, Note_off_c, 0, 58, 100
2, 121632, Note_on_c, 0, 56, 80
2, 121724, Note_off_c, 0, 56, 100
2, 121728, Note_on_c, 0, 55, 80
2, 121820, Note_off_c, 0, 55, 100
2, 121824, Note_on_c, 0, 53, 80
2, 121916, Note_off_c, 0, 53, 100
2, 121920, Note_on_c, 0, 51, 80
2, 122012, Note_off_c, 0, 51, 100
2, 122016, Note_on_c, 0, 50, 80
2, 122108, Note_off_c, 0, 50, 100
2, 122112, Note_on_c, 0, 51, 80
2, 122204, Note_off_c, 0, 51, 100
2, 122304, Note_on_c, 0, 61, 100
2, 122396, Note_off_c, 0, 61, 100
2, 122400, Note_on_c, 0, 60, 80
2, 122492, Note_off_c, 0, 60, 100
2, 122496, Note_on_c, 0, 58, 80
2, 122588, Note_off_c, 0, 58, 100
2, 122592, Note_on_c, 0, 56, 80
2, 122684, Note_off_c, 0, 56, 100
2, 122688, Note_on_c, 0, 55, 80
2, 122780, Note_off_c, 0, 55, 100
2, 122784, Note_on_c, 0, 53, 80
2, 122876, Note_off_c, 0, 53, 100
2, 122880, Note_on_c, 0, 51, 80
2, 122972, Note_off_c, 0, 51, 100
2, 123072, Note_on_c, 0, 82, 100
2, 123164, Note_off_c, 0, 82, 100
2, 123168, Note_on_c, 0, 80, 80
2, 123260, Note_off_c, 0, 80, 100
2, 123264, Note_on_c, 0, 79, 80
2, 123356, Note_off_c, 0, 79, 100
2, 123360, Note_on_c, 0, 77, 80
2, 123452, Note_off_c, 0, 77, 100
2, 123456, Note_on_c, 0, 75, 80
2, 123548, Note_off_c, 0, 75, 100
2, 123552, Note_on_c, 0, 74, 80
2, 123644, Note_off_c, 0, 74, 100
2, 123648, Note_on_c, 0, 75, 80
2, 123740, Note_off_c, 0, 75, 100
2, 123840, Note_on_c, 0, 85, 100
2, 123932, Note_off_c, 0, 85, 100
2, 123936, Note_on_c, 0, 84, 80
2, 124028, Note_off_c, 0, 84, 100
2, 124032, Note_on_c, 0, 82, 80
2, 124124, Note_off_c, 0, 82, 100
2, 124128, Note_on_c, 0, 80, 80
2, 124220, Note_off_c, 0, 80, 100
2, 124224, Note_on_c, 0, 79, 80
2, 124316, Note_off_c, 0, 79, 100
2, 124320, Note_on_c, 0, 77, 80
2, 124412, Note_off_c, 0, 77, 100
2, 124416, Note_on_c, 0, 75, 80
2, 124508, Note_off_c, 0, 75, 100
2, 124608, Note_on_c, 0, 85, 80
2, 124700, Note_off_c, 0, 85, 100
2, 124704, Note_on_c, 0, 84, 80
2, 124796, Note_off_c, 0, 84, 100
2, 124800, Note_on_c, 0, 82, 80
2, 124892, Note_off_c, 0, 82, 100
2, 124896, Note_on_c, 0, 80, 80
2, 124988, Note_off_c, 0, 80, 100
2, 124992, Note_on_c, 0, 79, 80
2, 125084, Note_off_c, 0, 79, 100
2, 125088, Note_on_c, 0, 77, 80
2, 125180, Note_off_c, 0, 77, 100
2, 125184, Note_on_c, 0, 75, 80
2, 125276, Note_off_c, 0, 75, 100
2, 125280, Note_on_c, 0, 74, 80
2, 125372, Note_off_c, 0, 74, 100
2, 125376, Note_on_c, 0, 73, 80
2, 125468, Note_off_c, 0, 73, 100
2, 125472, Note_on_c, 0, 72, 80
2, 125564, Note_off_c, 0, 72, 100
2, 125568, Note_on_c, 0, 70, 80
2, 125660, Note_off_c, 0, 70, 100
2, 125664, Note_on_c, 0, 68, 80
2, 125756, Note_off_c, 0, 68, 100
2, 125760, Note_on_c, 0, 67, 80
2, 125852, Note_off_c, 0, 67, 100
2, 125856, Note_on_c, 0, 65, 80
2, 125948, Note_off_c, 0, 65, 100
2, 125952, Note_on_c, 0, 63, 80
2, 126044, Note_off_c, 0, 63, 100
2, 126048, Note_on_c, 0, 62, 80
2, 126140, Note_off_c, 0, 62, 100
2, 126144, Note_on_c, 0, 61, 80
2, 126236, Note_off_c, 0, 61, 100
2, 126240, Note_on_c, 0, 60, 80
2, 126332, Note_off_c, 0, 60, 100
2, 126336, Note_on_c, 0, 58, 80
2, 126428, Note_off_c, 0, 58, 100
2, 126432, Note_on_c, 0, 56, 80
2, 126524, Note_off_c, 0, 56, 100
2, 126528, Note_on_c, 0, 55, 80
2, 126620, Note_off_c, 0, 55, 100
2, 126624, Note_on_c, 0, 53, 80
2, 126716, Note_off_c, 0, 53, 100
2, 126720, Note_on_c, 0, 51, 80
2, 126812, Note_off_c, 0, 51, 100
2, 129024, Note_on_c, 0, 60, 80
2, 129024, Note_on_c, 0, 56, 80
2, 129024, Note_on_c, 0, 51, 80
2, 129596, Note_off_c, 0, 60, 100
2, 129596, Note_off_c, 0, 56, 100
2, 129596, Note_off_c, 0, 51, 100
2, 129600, Note_on_c, 0, 61, 95
2, 129600, Note_on_c, 0, 55, 95
2, 129600, Note_on_c, 0, 51, 95
2, 129788, Note_off_c, 0, 61, 100
2, 129788, Note_off_c, 0, 55, 100
2, 129788, Note_off_c, 0, 51, 100
2, 129792, Note_on_c, 0, 56, 80
2, 129792, Note_on_c, 0, 51, 80
2, 129792, Note_on_c, 0, 63, 80
2, 130364, Note_off_c, 0, 56, 100
2, 130364, Note_off_c, 0, 51, 100
2, 130364, Note_off_c, 0, 63, 100
2, 130368, Note_on_c, 0, 65, 95
2, 130368, Note_on_c, 0, 53, 95
2, 130556, Note_off_c, 0, 65, 100
2, 130560, Note_on_c, 0, 61, 80
2, 130748, Note_off_c, 0, 53, 100
2, 130748, Note_off_c, 0, 61, 100
2, 130752, Note_on_c, 0, 63, 80
2, 130752, Note_on_c, 0, 58, 80
2, 130940, Note_off_c, 0, 63, 100
2, 130940, Note_off_c, 0, 58, 100
2, 130944, Note_on_c, 0, 60, 80
2, 130944, Note_on_c, 0, 51, 80
2, 131132, Note_off_c, 0, 60, 100
2, 131132, Note_off_c, 0, 51, 100
2, 131136, Note_on_c, 0, 56, 80
2, 131136, Note_on_c, 0, 51, 80
2, 131324, Note_off_c, 0, 56, 100
2, 131324, Note_off_c, 0, 51, 100
2, 131328, Note_on_c, 0, 58, 80
2, 131328, Note_on_c, 0, 55, 80
2, 131804, Note_off_c, 0, 58, 100
2, 131804, Note_off_c, 0, 55, 100
2, 131808, Note_on_c, 0, 55, 80
2, 131808, Note_on_c, 0, 51, 80
2, 131900, Note_off_c, 0, 55, 100
2, 131900, Note_off_c, 0, 51, 100
2, 131904, Note_on_c, 0, 56, 80
2, 131904, Note_on_c, 0, 53, 80
2, 131996, Note_off_c, 0, 56, 100
2, 131996, Note_off_c, 0, 53, 100
2, 132000, Note_on_c, 0, 58, 80
2, 132000, Note_on_c, 0, 55, 80
2, 132092, Note_off_c, 0, 58, 100
2, 132092, Note_off_c, 0, 55, 100
2, 132096, Note_on_c, 0, 60, 80
2, 132096, Note_on_c, 0, 56, 80
2, 132096, Note_on_c, 0, 51, 80
2, 132668, Note_off_c, 0, 60, 100
2, 132668, Note_off_c, 0, 56, 100
2, 132668, Note_off_c, 0, 51, 100
2, 132672, Note_on_c, 0, 61, 95
2, 132672, Note_on_c, 0, 55, 95
2, 132672, Note_on_c, 0, 51, 95
2, 132860, Note_off_c, 0, 61, 100
2, 132860, Note_off_c, 0, 55, 100
2, 132860, Note_off_c, 0, 51, 100
2, 132864, Note_on_c, 0, 56, 80
2, 132864, Note_on_c, 0, 51, 80
2, 132864, Note_on_c, 0, 63, 80
2, 133436, Note_off_c, 0, 56, 100
2, 133436, Note_off_c, 0, 51, 100
2, 133436, Note_off_c, 0, 63, 100
2, 133440, Note_on_c, 0, 65, 95
2, 133440, Note_on_c, 0, 53, 95
2, 133628, Note_off_c, 0, 65, 100
2, 133632, Note_on_c, 0, 61, 80
2, 133820, Note_off_c, 0, 53, 100
2, 133820, Note_off_c, 0, 61, 100
2, 133824, Note_on_c, 0, 63, 80
2, 133824, Note_on_c, 0, 58, 80
2, 134012, Note_off_c, 0, 63, 100
2, 134012, Note_off_c, 0, 58, 100
2, 134016, Note_on_c, 0, 60, 80
2, 134016, Note_on_c, 0, 51, 80
2, 134204, Note_off_c, 0, 60, 100
2, 134204, Note_off_c, 0, 51, 100
2, 134208, Note_on_c, 0, 56, 80
2, 134208, Note_on_c, 0, 51, 80
2, 134396, Note_off_c, 0, 56, 100
2, 134396, Note_off_c, 0, 51, 100
2, 134400, Note_on_c, 0, 58, 80
2, 134400, Note_on_c, 0, 49, 80
2, 134400, Note_on_c, 0, 51, 80
2, 134780, Note_off_c, 0, 58, 100
2, 134780, Note_off_c, 0, 49, 100
2, 134784, Note_on_c, 0, 56, 80
2, 134784, Note_on_c, 0, 48, 80
2, 134972, Note_off_c, 0, 51, 100
2, 134972, Note_off_c, 0, 56, 100
2, 134972, Note_off_c, 0, 48, 100
2, 134976, Note_on_c, 0, 80, 80
2, 134976, Note_on_c, 0, 72, 80
2, 135164, Note_off_c, 0, 80, 100
2, 135164, Note_off_c, 0, 72, 100
2, 135168, Note_on_c, 0, 82, 80
2, 135168, Note_on_c, 0, 73, 80
2, 135548, Note_off_c, 0, 82, 100
2, 135548, Note_off_c, 0, 73, 100
2, 135552, Note_on_c, 0, 80, 80
2, 135552, Note_on_c, 0, 72, 80
2, 135740, Note_off_c, 0, 80, 100
2, 135740, Note_off_c, 0, 72, 100
2, 135744, Note_on_c, 0, 72, 70
2, 135932, Note_off_c, 0, 72, 100
2, 135936, Note_on_c, 0, 70, 70
2, 136268, Note_off_c, 0, 70, 100
2, 136272, Note_on_c, 0, 68, 70
2, 136316, Note_off_c, 0, 68, 100
2, 136320, Note_on_c, 0, 67, 70
2, 136460, Note_off_c, 0, 67, 100
2, 136512, Note_on_c, 0, 65, 70
2, 136652, Note_off_c, 0, 65, 100
2, 136704, Note_on_c, 0, 64, 70
2, 137084, Note_off_c, 0, 64, 100
2, 137280, Note_on_c, 0, 65, 70
2, 137328, Note_on_c, 0, 67, 70
2, 137372, Note_off_c, 0, 65, 100
2, 137376, Note_on_c, 0, 64, 70
2, 137420, Note_off_c, 0, 67, 100
2, 137424, Note_on_c, 0, 65, 70
2, 137468, Note_off_c, 0, 64, 100
2, 137468, Note_off_c, 0, 65, 100
2, 137472, Note_on_c, 0, 67, 70
2, 137804, Note_off_c, 0, 67, 100
2, 137808, Note_on_c, 0, 65, 70
2, 137852, Note_off_c, 0, 65, 100
2, 137856, Note_on_c, 0, 64, 70
2, 138044, Note_off_c, 0, 64, 100
2, 138048, Note_on_c, 0, 62, 70
2, 138188, Note_off_c, 0, 62, 100
2, 138240, Note_on_c, 0, 60, 70
2, 138620, Note_off_c, 0, 60, 100
2, 138960, Note_on_c, 0, 60, 70
2, 139004, Note_off_c, 0, 60, 100
2, 139008, Note_on_c, 0, 60, 70
2, 139196, Note_off_c, 0, 60, 100
2, 139344, Note_on_c, 0, 60, 70
2, 139388, Note_off_c, 0, 60, 100
2, 139392, Note_on_c, 0, 60, 70
2, 139580, Note_off_c, 0, 60, 100
2, 139728, Note_on_c, 0, 60, 70
2, 139772, Note_off_c, 0, 60, 100
2, 139776, Note_on_c, 0, 60, 70
2, 140156, Note_off_c, 0, 60, 100
2, 140496, Note_on_c, 0, 61, 70
2, 140540, Note_off_c, 0, 61, 100
2, 140544, Note_on_c, 0, 61, 71
2, 140732, Note_off_c, 0, 61, 100
2, 140880, Note_on_c, 0, 61, 84
2, 140924, Note_off_c, 0, 61, 100
2, 140928, Note_on_c, 0, 61, 85
2, 141116, Note_off_c, 0, 61, 100
2, 141264, Note_on_c, 0, 61, 98
2, 141308, Note_off_c, 0, 61, 100
2, 141312, Note_on_c, 0, 61, 99
2, 141692, Note_off_c, 0, 61, 100
2, 142032, Note_on_c, 0, 61, 110
2, 142076, Note_off_c, 0, 61, 100
2, 142080, Note_on_c, 0, 61, 110
2, 142460, Note_off_c, 0, 61, 100
2, 142464, Note_on_c, 0, 58, 110
2, 142652, Note_off_c, 0, 58, 100
2, 142656, Note_on_c, 0, 55, 110
2, 142844, Note_off_c, 0, 55, 100
2, 142848, Note_on_c, 0, 51, 110
2, 144188, Note_off_c, 0, 51, 100
2, 144192, Note_on_c, 0, 51, 80
2, 144224, Note_off_c, 0, 51, 100
2, 144228, Note_on_c, 0, 53, 80
2, 144260, Note_off_c, 0, 53, 100
2, 144264, Note_on_c, 0, 55, 80
2, 144296, Note_off_c, 0, 55, 100
2, 144296, Note_on_c, 0, 56, 80
2, 144328, Note_off_c, 0, 56, 100
2, 144336, Note_on_c, 0, 58, 80
2, 144368, Note_off_c, 0, 58, 100
2, 144384, Note_on_c, 0, 60, 80
2, 144860, Note_off_c, 0, 60, 100
2, 144864, Note_on_c, 0, 59, 80
2, 144956, Note_off_c, 0, 59, 100
2, 144960, Note_on_c, 0, 60, 80
2, 145052, Note_off_c, 0, 60, 100
2, 145056, Note_on_c, 0, 61, 80
2, 145148, Note_off_c, 0, 61, 100
2, 145152, Note_on_c, 0, 63, 80
2, 145628, Note_off_c, 0, 63, 100
2, 145632, Note_on_c, 0, 62, 80
2, 145724, Note_off_c, 0, 62, 100
2, 145728, Note_on_c, 0, 63, 80
2, 145820, Note_off_c, 0, 63, 100
2, 145824, Note_on_c, 0, 65, 80
2, 145916, Note_off_c, 0, 65, 100
2, 145920, Note_on_c, 0, 61, 80
2, 145920, Note_on_c, 0, 53, 80
2, 146108, Note_off_c, 0, 61, 100
2, 146108, Note_off_c, 0, 53, 100
2, 146112, Note_on_c, 0, 63, 80
2, 146112, Note_on_c, 0, 58, 80
2, 146300, Note_off_c, 0, 63, 100
2, 146300, Note_off_c, 0, 58, 100
2, 146304, Note_on_c, 0, 60, 80
2, 146304, Note_on_c, 0, 51, 80
2, 146492, Note_off_c, 0, 60, 100
2, 146492, Note_off_c, 0, 51, 100
2, 146496, Note_on_c, 0, 51, 80
2, 146496, Note_on_c, 0, 56, 80
2, 146684, Note_off_c, 0, 51, 100
2, 146684, Note_off_c, 0, 56, 100
2, 146688, Note_on_c, 0, 58, 80
2, 146688, Note_on_c, 0, 55, 80
2, 147164, Note_off_c, 0, 58, 100
2, 147164, Note_off_c, 0, 55, 100
2, 147168, Note_on_c, 0, 55, 80
2, 147168, Note_on_c, 0, 51, 80
2, 147260, Note_off_c, 0, 55, 100
2, 147260, Note_off_c, 0, 51, 100
2, 147264, Note_on_c, 0, 56, 80
2, 147264, Note_on_c, 0, 53, 80
2, 147356, Note_off_c, 0, 56, 100
2, 147356, Note_off_c, 0, 53, 100
2, 147360, Note_on_c, 0, 58, 80
2, 147360, Note_on_c, 0, 55, 80
2, 147452, Note_off_c, 0, 58, 100
2, 147452, Note_off_c, 0, 55, 100
2, 147456, Note_on_c, 0, 60, 80
2, 147456, Note_on_c, 0, 56, 80
2, 147548, Note_off_c, 0, 56, 100
2, 147552, Note_on_c, 0, 51, 80
2, 147644, Note_off_c, 0, 51, 100
2, 147648, Note_on_c, 0, 51, 80
2, 147740, Note_off_c, 0, 60, 100
2, 147740, Note_off_c, 0, 51, 100
2, 147744, Note_on_c, 0, 51, 80
2, 147744, Note_on_c, 0, 59, 80
2, 147836, Note_off_c, 0, 51, 100
2, 147836, Note_off_c, 0, 59, 100
2, 147840, Note_on_c, 0, 60, 80
2, 147840, Note_on_c, 0, 51, 80
2, 147932, Note_off_c, 0, 60, 100
2, 147932, Note_off_c, 0, 51, 100
2, 147936, Note_on_c, 0, 59, 80
2, 148028, Note_off_c, 0, 59, 100
2, 148032, Note_on_c, 0, 60, 80
2, 148124, Note_off_c, 0, 60, 100
2, 148128, Note_on_c, 0, 61, 80
2, 148220, Note_off_c, 0, 61, 100
2, 148224, Note_on_c, 0, 63, 80
2, 148320, Note_on_c, 0, 56, 80
2, 148412, Note_off_c, 0, 56, 100
2, 148416, Note_on_c, 0, 56, 80
2, 148508, Note_off_c, 0, 63, 100
2, 148508, Note_off_c, 0, 56, 100
2, 148512, Note_on_c, 0, 62, 80
2, 148512, Note_on_c, 0, 56, 80
2, 148604, Note_off_c, 0, 62, 100
2, 148604, Note_off_c, 0, 56, 100
2, 148608, Note_on_c, 0, 63, 80
2, 148608, Note_on_c, 0, 56, 80
2, 148700, Note_off_c, 0, 63, 100
2, 148700, Note_off_c, 0, 56, 100
2, 148704, Note_on_c, 0, 62, 80
2, 148796, Note_off_c, 0, 62, 100
2, 148800, Note_on_c, 0, 63, 80
2, 148892, Note_off_c, 0, 63, 100
2, 148896, Note_on_c, 0, 65, 80
2, 148896, Note_on_c, 0, 53, 80
2, 148988, Note_off_c, 0, 65, 100
2, 148988, Note_off_c, 0, 53, 100
2, 148992, Note_on_c, 0, 61, 80
2, 148992, Note_on_c, 0, 53, 80
2, 149180, Note_off_c, 0, 61, 100
2, 149180, Note_off_c, 0, 53, 100
2, 149184, Note_on_c, 0, 63, 80
2, 149184, Note_on_c, 0, 58, 80
2, 149372, Note_off_c, 0, 63, 100
2, 149372, Note_off_c, 0, 58, 100
2, 149376, Note_on_c, 0, 60, 80
2, 149376, Note_on_c, 0, 51, 80
2, 149564, Note_off_c, 0, 60, 100
2, 149564, Note_off_c, 0, 51, 100
2, 149568, Note_on_c, 0, 51, 80
2, 149568, Note_on_c, 0, 56, 80
2, 149756, Note_off_c, 0, 51, 100
2, 149756, Note_off_c, 0, 56, 100
2, 149760, Note_on_c, 0, 58, 80
2, 149760, Note_on_c, 0, 49, 80
2, 149760, Note_on_c, 0, 51, 80
2, 150140, Note_off_c, 0, 58, 100
2, 150140, Note_off_c, 0, 49, 100
2, 150144, Note_on_c, 0, 56, 80
2, 150144, Note_on_c, 0, 48, 80
2, 150332, Note_off_c, 0, 51, 100
2, 150332, Note_off_c, 0, 56, 100
2, 150332, Note_off_c, 0, 48, 100
2, 150336, Note_on_c, 0, 80, 80
2, 150336, Note_on_c, 0, 72, 80
2, 150524, Note_off_c, 0, 80, 100
2, 150524, Note_off_c, 0, 72, 100
2, 150528, Note_on_c, 0, 82, 80
2, 150528, Note_on_c, 0, 73, 80
2, 150908, Note_off_c, 0, 82, 100
2, 150908, Note_off_c, 0, 73, 100
2, 150912, Note_on_c, 0, 80, 80
2, 150912, Note_on_c, 0, 72, 80
2, 151100, Note_off_c, 0, 80, 100
2, 151100, Note_off_c, 0, 72, 100
2, 151104, Note_on_c, 0, 84, 70
2, 151292, Note_off_c, 0, 84, 100
2, 151296, Note_on_c, 0, 82, 70
2, 151628, Note_off_c, 0, 82, 100
2, 151632, Note_on_c, 0, 80, 70
2, 151676, Note_off_c, 0, 80, 100
2, 151680, Note_on_c, 0, 79, 70
2, 151820, Note_off_c, 0, 79, 100
2, 151872, Note_on_c, 0, 77, 70
2, 152012, Note_off_c, 0, 77, 100
2, 152064, Note_on_c, 0, 76, 70
2, 152444, Note_off_c, 0, 76, 100
2, 152640, Note_on_c, 0, 77, 70
2, 152688, Note_on_c, 0, 79, 70
2, 152732, Note_off_c, 0, 77, 100
2, 152736, Note_on_c, 0, 76, 70
2, 152780, Note_off_c, 0, 79, 100
2, 152784, Note_on_c, 0, 77, 70
2, 152828, Note_off_c, 0, 76, 100
2, 152828, Note_off_c, 0, 77, 100
2, 152832, Note_on_c, 0, 79, 70
2, 153164, Note_off_c, 0, 79, 100
2, 153168, Note_on_c, 0, 77, 70
2, 153212, Note_off_c, 0, 77, 100
2, 153216, Note_on_c, 0, 76, 70
2, 153404, Note_off_c, 0, 76, 100
2, 153408, Note_on_c, 0, 74, 70
2, 153548, Note_off_c, 0, 74, 100
2, 153600, Note_on_c, 0, 72, 70
2, 153980, Note_off_c, 0, 72, 100
2, 154320, Note_on_c, 0, 72, 70
2, 154364, Note_off_c, 0, 72, 100
2, 154368, Note_on_c, 0, 72, 70
2, 154556, Note_off_c, 0, 72, 100
2, 154704, Note_on_c, 0, 72, 70
2, 154748, Note_off_c, 0, 72, 100
2, 154752, Note_on_c, 0, 72, 70
2, 154940, Note_off_c, 0, 72, 100
2, 155088, Note_on_c, 0, 72, 70
2, 155132, Note_off_c, 0, 72, 100
2, 155136, Note_on_c, 0, 72, 70
2, 155516, Note_off_c, 0, 72, 100
2, 155856, Note_on_c, 0, 85, 120
2, 155856, Note_on_c, 0, 73, 120
2, 155900, Note_off_c, 0, 85, 100
2, 155900, Note_off_c, 0, 73, 100
2, 155904, Note_on_c, 0, 85, 120
2, 155904, Note_on_c, 0, 73, 120
2, 156092, Note_off_c, 0, 85, 100
2, 156092, Note_off_c, 0, 73, 100
2, 156096, Note_on_c, 0, 66, 80
2, 156188, Note_off_c, 0, 66, 100
2, 156192, Note_on_c, 0, 70, 80
2, 156284, Note_off_c, 0, 70, 100
2, 156288, Note_on_c, 0, 68, 80
2, 156380, Note_off_c, 0, 68, 100
2, 156384, Note_on_c, 0, 71, 80
2, 156476, Note_off_c, 0, 71, 100
2, 156480, Note_on_c, 0, 65, 80
2, 156572, Note_off_c, 0, 65, 100
2, 156576, Note_on_c, 0, 68, 80
2, 156668, Note_off_c, 0, 68, 100
2, 156672, Note_on_c, 0, 66, 80
2, 156764, Note_off_c, 0, 66, 100
2, 156768, Note_on_c, 0, 70, 80
2, 156860, Note_off_c, 0, 70, 100
2, 156864, Note_on_c, 0, 66, 80
2, 156956, Note_off_c, 0, 66, 100
2, 156960, Note_on_c, 0, 70, 80
2, 157052, Note_off_c, 0, 70, 100
2, 157056, Note_on_c, 0, 68, 80
2, 157148, Note_off_c, 0, 68, 100
2, 157152, Note_on_c, 0, 71, 80
2, 157244, Note_off_c, 0, 71, 100
2, 157248, Note_on_c, 0, 65, 80
2, 157340, Note_off_c, 0, 65, 100
2, 157344, Note_on_c, 0, 68, 80
2, 157436, Note_off_c, 0, 68, 100
2, 157440, Note_on_c, 0, 66, 80
2, 157532, Note_off_c, 0, 66, 100
2, 157536, Note_on_c, 0, 70, 80
2, 157628, Note_off_c, 0, 70, 100
2, 157632, Note_on_c, 0, 73, 80
2, 157724, Note_off_c, 0, 73, 100
2, 157728, Note_on_c, 0, 70, 80
2, 157820, Note_off_c, 0, 70, 100
2, 157824, Note_on_c, 0, 73, 80
2, 157916, Note_off_c, 0, 73, 100
2, 157920, Note_on_c, 0, 78, 80
2, 158012, Note_off_c, 0, 78, 100
2, 158016, Note_on_c, 0, 82, 80
2, 158108, Note_off_c, 0, 82, 100
2, 158112, Note_on_c, 0, 78, 80
2, 158204, Note_off_c, 0, 78, 100
2, 158208, Note_on_c, 0, 82, 80
2, 158300, Note_off_c, 0, 82, 100
2, 158304, Note_on_c, 0, 83, 80
2, 158396, Note_off_c, 0, 83, 100
2, 158400, Note_on_c, 0, 85, 80
2, 158492, Note_off_c, 0, 85, 100
2, 158496, Note_on_c, 0, 83, 80
2, 158588, Note_off_c, 0, 83, 100
2, 158592, Note_on_c, 0, 82, 80
2, 158684, Note_off_c, 0, 82, 100
2, 158688, Note_on_c, 0, 83, 80
2, 158780, Note_off_c, 0, 83, 100
2, 158784, Note_on_c, 0, 82, 80
2, 158876, Note_off_c, 0, 82, 100
2, 158880, Note_on_c, 0, 80, 80
2, 158972, Note_off_c, 0, 80, 100
2, 158976, Note_on_c, 0, 87, 120
2, 158976, Note_on_c, 0, 79, 120
2, 158976, Note_on_c, 0, 75, 120
2, 159164, Note_off_c, 0, 87, 100
2, 159164, Note_off_c, 0, 79, 100
2, 159164, Note_off_c, 0, 75, 100
2, 159168, Note_on_c, 0, 63, 80
2, 159260, Note_off_c, 0, 63, 100
2, 159264, Note_on_c, 0, 67, 80
2, 159356, Note_off_c, 0, 67, 100
2, 159360, Note_on_c, 0, 65, 80
2, 159452, Note_off_c, 0, 65, 100
2, 159456, Note_on_c, 0, 68, 80
2, 159548, Note_off_c, 0, 68, 100
2, 159552, Note_on_c, 0, 62, 80
2, 159644, Note_off_c, 0, 62, 100
2, 159648, Note_on_c, 0, 65, 80
2, 159740, Note_off_c, 0, 65, 100
2, 159744, Note_on_c, 0, 63, 80
2, 159836, Note_off_c, 0, 63, 100
2, 159840, Note_on_c, 0, 67, 80
2, 159932, Note_off_c, 0, 67, 100
2, 159936, Note_on_c, 0, 63, 80
2, 160028, Note_off_c, 0, 63, 100
2, 160032, Note_on_c, 0, 67, 80
2, 160124, Note_off_c, 0, 67, 100
2, 160128, Note_on_c, 0, 65, 80
2, 160220, Note_off_c, 0, 65, 100
2, 160224, Note_on_c, 0, 68, 80
2, 160316, Note_off_c, 0, 68, 100
2, 160320, Note_on_c, 0, 62, 80
2, 160412, Note_off_c, 0, 62, 100
2, 160416, Note_on_c, 0, 65, 80
2, 160508, Note_off_c, 0, 65, 100
2, 160512, Note_on_c, 0, 63, 80
2, 160604, Note_off_c, 0, 63, 100
2, 160608, Note_on_c, 0, 67, 80
2, 160700, Note_off_c, 0, 67, 100
2, 160704, Note_on_c, 0, 70, 80
2, 160796, Note_off_c, 0, 70, 100
2, 160800, Note_on_c, 0, 67, 80
2, 160892, Note_off_c, 0, 67, 100
2, 160896, Note_on_c, 0, 70, 80
2, 160988, Note_off_c, 0, 70, 100
2, 160992, Note_on_c, 0, 73, 80
2, 161084, Note_off_c, 0, 73, 100
2, 161088, Note_on_c, 0, 76, 80
2, 161180, Note_off_c, 0, 76, 100
2, 161184, Note_on_c, 0, 73, 80
2, 161276, Note_off_c, 0, 73, 100
2, 161280, Note_on_c, 0, 76, 80
2, 161372, Note_off_c, 0, 76, 100
2, 161376, Note_on_c, 0, 79, 80
2, 161468, Note_off_c, 0, 79, 100
2, 161472, Note_on_c, 0, 82, 80
2, 161564, Note_off_c, 0, 82, 100
2, 161568, Note_on_c, 0, 79, 80
2, 161660, Note_off_c, 0, 79, 100
2, 161664, Note_on_c, 0, 82, 80
2, 161756, Note_off_c, 0, 82, 100
2, 161760, Note_on_c, 0, 79, 80
2, 161852, Note_off_c, 0, 79, 100
2, 161856, Note_on_c, 0, 82, 80
2, 161948, Note_off_c, 0, 82, 100
2, 161952, Note_on_c, 0, 79, 80
2, 162044, Note_off_c, 0, 79, 100
2, 162048, Note_on_c, 0, 82, 80
2, 162140, Note_off_c, 0, 82, 100
2, 162144, Note_on_c, 0, 79, 81
2, 162236, Note_off_c, 0, 79, 100
2, 162240, Note_on_c, 0, 82, 83
2, 162332, Note_off_c, 0, 82, 100
2, 162336, Note_on_c, 0, 79, 85
2, 162428, Note_off_c, 0, 79, 100
2, 162432, Note_on_c, 0, 82, 87
2, 162524, Note_off_c, 0, 82, 100
2, 162528, Note_on_c, 0, 79, 89
2, 162620, Note_off_c, 0, 79, 100
2, 162624, Note_on_c, 0, 82, 90
2, 162716, Note_off_c, 0, 82, 100
2, 162720, Note_on_c, 0, 79, 92
2, 162812, Note_off_c, 0, 79, 100
2, 162816, Note_on_c, 0, 82, 94
2, 162908, Note_off_c, 0, 82, 100
2, 162912, Note_on_c, 0, 79, 96
2, 163004, Note_off_c, 0, 79, 100
2, 163008, Note_on_c, 0, 82, 98
2, 163100, Note_off_c, 0, 82, 100
2, 163104, Note_on_c, 0, 79, 99
2, 163196, Note_off_c, 0, 79, 100
2, 163200, Note_on_c, 0, 80, 95
2, 163292, Note_off_c, 0, 80, 100
2, 163296, Note_on_c, 0, 75, 91
2, 163388, Note_off_c, 0, 75, 100
2, 163392, Note_on_c, 0, 72, 86
2, 163484, Note_off_c, 0, 72, 100
2, 163488, Note_on_c, 0, 68, 81
2, 163580, Note_off_c, 0, 68, 100
2, 163584, Note_on_c, 0, 67, 80
2, 163676, Note_off_c, 0, 67, 100
2, 163680, Note_on_c, 0, 79, 81
2, 163772, Note_off_c, 0, 79, 100
2, 163776, Note_on_c, 0, 82, 83
2, 163868, Note_off_c, 0, 82, 100
2, 163872, Note_on_c, 0, 79, 85
2, 163964, Note_off_c, 0, 79, 100
2, 163968, Note_on_c, 0, 82, 87
2, 164060, Note_off_c, 0, 82, 100
2, 164064, Note_on_c, 0, 79, 89
2, 164156, Note_off_c, 0, 79, 100
2, 164160, Note_on_c, 0, 82, 90
2, 164252, Note_off_c, 0, 82, 100
2, 164256, Note_on_c, 0, 79, 92
2, 164348, Note_off_c, 0, 79, 100
2, 164352, Note_on_c, 0, 82, 94
2, 164444, Note_off_c, 0, 82, 100
2, 164448, Note_on_c, 0, 79, 96
2, 164540, Note_off_c, 0, 79, 100
2, 164544, Note_on_c, 0, 82, 98
2, 164636, Note_off_c, 0, 82, 100
2, 164640, Note_on_c, 0, 79, 99
2, 164732, Note_off_c, 0, 79, 100
2, 164736, Note_on_c, 0, 80, 95
2, 164828, Note_off_c, 0, 80, 100
2, 164832, Note_on_c, 0, 75, 91
2, 164924, Note_off_c, 0, 75, 100
2, 164928, Note_on_c, 0, 72, 86
2, 165020, Note_off_c, 0, 72, 100
2, 165024, Note_on_c, 0, 68, 81
2, 165116, Note_off_c, 0, 68, 100
2, 165120, Note_on_c, 0, 67, 80
2, 165212, Note_off_c, 0, 67, 100
2, 165216, Note_on_c, 0, 79, 80
2, 165308, Note_off_c, 0, 79, 100
2, 165312, Note_on_c, 0, 82, 80
2, 165404, Note_off_c, 0, 82, 100
2, 165408, Note_on_c, 0, 79, 80
2, 165500, Note_off_c, 0, 79, 100
2, 165504, Note_on_c, 0, 80, 80
2, 165596, Note_off_c, 0, 80, 100
2, 165600, Note_on_c, 0, 75, 80
2, 165692, Note_off_c, 0, 75, 100
2, 165696, Note_on_c, 0, 72, 80
2, 165788, Note_off_c, 0, 72, 100
2, 165792, Note_on_c, 0, 68, 80
2, 165884, Note_off_c, 0, 68, 100
2, 165888, Note_on_c, 0, 67, 80
2, 165980, Note_off_c, 0, 67, 100
2, 165984, Note_on_c, 0, 79, 80
2, 166076, Note_off_c, 0, 79, 100
2, 166080, Note_on_c, 0, 82, 80
2, 166172, Note_off_c, 0, 82, 100
2, 166176, Note_on_c, 0, 79, 80
2, 166268, Note_off_c, 0, 79, 100
2, 166272, Note_on_c, 0, 80, 80
2, 166364, Note_off_c, 0, 80, 100
2, 166368, Note_on_c, 0, 75, 80
2, 166460, Note_off_c, 0, 75, 100
2, 166464, Note_on_c, 0, 72, 80
2, 166556, Note_off_c, 0, 72, 100
2, 166560, Note_on_c, 0, 68, 80
2, 166652, Note_off_c, 0, 68, 100
2, 166656, Note_on_c, 0, 65, 80
2, 166748, Note_off_c, 0, 65, 100
2, 166752, Note_on_c, 0, 61, 80
2, 166844, Note_off_c, 0, 61, 100
2, 166848, Note_on_c, 0, 58, 80
2, 166940, Note_off_c, 0, 58, 100
2, 166944, Note_on_c, 0, 53, 80
2, 167036, Note_off_c, 0, 53, 100
2, 167040, Note_on_c, 0, 51, 80
2, 167132, Note_off_c, 0, 51, 100
2, 167136, Note_on_c, 0, 46, 80
2, 167228, Note_off_c, 0, 46, 100
2, 167232, Note_on_c, 0, 43, 80
2, 167324, Note_off_c, 0, 43, 100
2, 167328, Note_on_c, 0, 55, 80
2, 167420, Note_off_c, 0, 55, 100
2, 167424, Note_on_c, 0, 56, 80
2, 167612, Note_off_c, 0, 56, 100
2, 167712, Note_on_c, 0, 63, 80
2, 167804, Note_off_c, 0, 63, 100
2, 167808, Note_on_c, 0, 60, 80
2, 167996, Note_off_c, 0, 60, 100
2, 168096, Note_on_c, 0, 68, 80
2, 168188, Note_off_c, 0, 68, 100
2, 168192, Note_on_c, 0, 63, 80
2, 168380, Note_off_c, 0, 63, 100
2, 168480, Note_on_c, 0, 72, 80
2, 168572, Note_off_c, 0, 72, 100
2, 168576, Note_on_c, 0, 67, 80
2, 168668, Note_off_c, 0, 67, 100
2, 168672, Note_on_c, 0, 73, 80
2, 168764, Note_off_c, 0, 73, 100
2, 168768, Note_on_c, 0, 70, 80
2, 168860, Note_off_c, 0, 70, 100
2, 168864, Note_on_c, 0, 67, 80
2, 168956, Note_off_c, 0, 67, 100
2, 168960, Note_on_c, 0, 68, 80
2, 169148, Note_off_c, 0, 68, 100
2, 169248, Note_on_c, 0, 75, 80
2, 169340, Note_off_c, 0, 75, 100
2, 169344, Note_on_c, 0, 72, 80
2, 169532, Note_off_c, 0, 72, 100
2, 169632, Note_on_c, 0, 80, 80
2, 169724, Note_off_c, 0, 80, 100
2, 169728, Note_on_c, 0, 75, 80
2, 169916, Note_off_c, 0, 75, 100
2, 170016, Note_on_c, 0, 84, 80
2, 170108, Note_off_c, 0, 84, 100
2, 170112, Note_on_c, 0, 79, 80
2, 170204, Note_off_c, 0, 79, 100
2, 170208, Note_on_c, 0, 85, 80
2, 170300, Note_off_c, 0, 85, 100
2, 170304, Note_on_c, 0, 82, 80
2, 170396, Note_off_c, 0, 82, 100
2, 170400, Note_on_c, 0, 79, 80
2, 170492, Note_off_c, 0, 79, 100
2, 170496, Note_on_c, 0, 80, 80
2, 170684, Note_off_c, 0, 80, 100
2, 170784, Note_on_c, 0, 72, 80
2, 170876, Note_off_c, 0, 72, 100
2, 170880, Note_on_c, 0, 67, 80
2, 170972, Note_off_c, 0, 67, 100
2, 170976, Note_on_c, 0, 73, 80
2, 171068, Note_off_c, 0, 73, 100
2, 171072, Note_on_c, 0, 70, 80
2, 171164, Note_off_c, 0, 70, 100
2, 171168, Note_on_c, 0, 67, 80
2, 171260, Note_off_c, 0, 67, 100
2, 171264, Note_on_c, 0, 68, 80
2, 171452, Note_off_c, 0, 68, 100
2, 171552, Note_on_c, 0, 84, 80
2, 171644, Note_off_c, 0, 84, 100
2, 171648, Note_on_c, 0, 79, 80
2, 171740, Note_off_c, 0, 79, 100
2, 171744, Note_on_c, 0, 85, 80
2, 171836, Note_off_c, 0, 85, 100
2, 171840, Note_on_c, 0, 82, 80
2, 171932, Note_off_c, 0, 82, 100
2, 171936, Note_on_c, 0, 79, 80
2, 172028, Note_off_c, 0, 79, 100
2, 172032, Note_on_c, 0, 80, 80
2, 172124, Note_off_c, 0, 80, 100
2, 172128, Note_on_c, 0, 84, 80
2, 172220, Note_off_c, 0, 84, 100
2, 172224, Note_on_c, 0, 75, 80
2, 172316, Note_off_c, 0, 75, 100
2, 172320, Note_on_c, 0, 80, 80
2, 172412, Note_off_c, 0, 80, 100
2, 172416, Note_on_c, 0, 72, 80
2, 172508, Note_off_c, 0, 72, 100
2, 172512, Note_on_c, 0, 75, 80
2, 172604, Note_off_c, 0, 75, 100
2, 172608, Note_on_c, 0, 73, 80
2, 172700, Note_off_c, 0, 73, 100
2, 172704, Note_on_c, 0, 70, 80
2, 172796, Note_off_c, 0, 70, 100
2, 172800, Note_on_c, 0, 68, 80
2, 172892, Note_off_c, 0, 68, 100
2, 172896, Note_on_c, 0, 72, 80
2, 172988, Note_off_c, 0, 72, 100
2, 172992, Note_on_c, 0, 63, 80
2, 173084, Note_off_c, 0, 63, 100
2, 173088, Note_on_c, 0, 68, 80
2, 173180, Note_off_c, 0, 68, 100
2, 173184, Note_on_c, 0, 60, 80
2, 173276, Note_off_c, 0, 60, 100
2, 173280, Note_on_c, 0, 63, 80
2, 173372, Note_off_c, 0, 63, 100
2, 173376, Note_on_c, 0, 61, 80
2, 173468, Note_off_c, 0, 61, 100
2, 173472, Note_on_c, 0, 58, 80
2, 173564, Note_off_c, 0, 58, 100
2, 173568, Note_on_c, 0, 56, 80
2, 173660, Note_off_c, 0, 56, 100
2, 173664, Note_on_c, 0, 59, 80
2, 173756, Note_off_c, 0, 59, 100
2, 173760, Note_on_c, 0, 60, 80
2, 173852, Note_off_c, 0, 60, 100
2, 173856, Note_on_c, 0, 55, 80
2, 173948, Note_off_c, 0, 55, 100
2, 173952, Note_on_c, 0, 56, 80
2, 174044, Note_off_c, 0, 56, 100
2, 174048, Note_on_c, 0, 52, 80
2, 174140, Note_off_c, 0, 52, 100
2, 174144, Note_on_c, 0, 53, 80
2, 174236, Note_off_c, 0, 53, 100
2, 174240, Note_on_c, 0, 48, 80
2, 174332, Note_off_c, 0, 48, 100
2, 174336, Note_on_c, 0, 49, 80
2, 174428, Note_off_c, 0, 49, 100
2, 174432, Note_on_c, 0, 60, 80
2, 174524, Note_off_c, 0, 60, 100
2, 174528, Note_on_c, 0, 61, 80
2, 174620, Note_off_c, 0, 61, 100
2, 174624, Note_on_c, 0, 57, 80
2, 174716, Note_off_c, 0, 57, 100
2, 174720, Note_on_c, 0, 58, 80
2, 174812, Note_off_c, 0, 58, 100
2, 174816, Note_on_c, 0, 54, 80
2, 174908, Note_off_c, 0, 54, 100
2, 174912, Note_on_c, 0, 55, 80
2, 175004, Note_off_c, 0, 55, 100
2, 175008, Note_on_c, 0, 50, 80
2, 175100, Note_off_c, 0, 50, 100
2, 175104, Note_on_c, 0, 51, 80
2, 175196, Note_off_c, 0, 51, 100
2, 175200, Note_on_c, 0, 53, 81
2, 175292, Note_off_c, 0, 53, 100
2, 175296, Note_on_c, 0, 55, 82
2, 175388, Note_off_c, 0, 55, 100
2, 175392, Note_on_c, 0, 56, 83
2, 175484, Note_off_c, 0, 56, 100
2, 175488, Note_on_c, 0, 58, 85
2, 175580, Note_off_c, 0, 58, 100
2, 175584, Note_on_c, 0, 60, 86
2, 175676, Note_off_c, 0, 60, 100
2, 175680, Note_on_c, 0, 61, 87
2, 175772, Note_off_c, 0, 61, 100
2, 175776, Note_on_c, 0, 63, 89
2, 175868, Note_off_c, 0, 63, 100
2, 175872, Note_on_c, 0, 65, 90
2, 175964, Note_off_c, 0, 65, 100
2, 175968, Note_on_c, 0, 67, 91
2, 176060, Note_off_c, 0, 67, 100
2, 176064, Note_on_c, 0, 68, 93
2, 176156, Note_off_c, 0, 68, 100
2, 176160, Note_on_c, 0, 70, 94
2, 176252, Note_off_c, 0, 70, 100
2, 176256, Note_on_c, 0, 72, 95
2, 176348, Note_off_c, 0, 72, 100
2, 176352, Note_on_c, 0, 67, 97
2, 176444, Note_off_c, 0, 67, 100
2, 176448, Note_on_c, 0, 68, 98
2, 176540, Note_off_c, 0, 68, 100
2, 176544, Note_on_c, 0, 64, 99
2, 176636, Note_off_c, 0, 64, 100
2, 176640, Note_on_c, 0, 65, 95
2, 176732, Note_off_c, 0, 65, 100
2, 176736, Note_on_c, 0, 60, 93
2, 176828, Note_off_c, 0, 60, 100
2, 176832, Note_on_c, 0, 61, 91
2, 176924, Note_off_c, 0, 61, 100
2, 176928, Note_on_c, 0, 57, 89
2, 177020, Note_off_c, 0, 57, 100
2, 177024, Note_on_c, 0, 58, 87
2, 177116, Note_off_c, 0, 58, 100
2, 177120, Note_on_c, 0, 60, 85
2, 177212, Note_off_c, 0, 60, 100
2, 177216, Note_on_c, 0, 61, 83
2, 177308, Note_off_c, 0, 61, 100
2, 177312, Note_on_c, 0, 62, 81
2, 177404, Note_off_c, 0, 62, 100
2, 177408, Note_on_c, 0, 63, 80
2, 177596, Note_off_c, 0, 63, 100
2, 177792, Note_on_c, 0, 51, 80
2, 177980, Note_off_c, 0, 51, 100
2, 178176, Note_on_c, 0, 44, 80
2, 178364, Note_off_c, 0, 44, 100
2, 178560, Note_on_c, 0, 87, 70
2, 178560, Note_on_c, 0, 75, 70
2, 178748, Note_off_c, 0, 87, 100
2, 178748, Note_off_c, 0, 75, 100
2, 178944, Note_on_c, 0, 80, 70
2, 178944, Note_on_c, 0, 68, 70
2, 179132, Note_off_c, 0, 80, 100
2, 179132, Note_off_c, 0, 68, 100
2, 179328, Note_on_c, 0, 75, 70
2, 179328, Note_on_c, 0, 63, 70
2, 179516, Note_off_c, 0, 75, 100
2, 179516, Note_off_c, 0, 63, 100
2, 179520, Note_on_c, 0, 75, 70
2, 179520, Note_on_c, 0, 63, 70
2, 179708, Note_off_c, 0, 75, 100
2, 179708, Note_off_c, 0, 63, 100
2, 179712, Note_on_c, 0, 68, 70
2, 179712, Note_on_c, 0, 56, 70
2, 180092, Note_off_c, 0, 68, 100
2, 180092, Note_off_c, 0, 56, 100
2, 180480, Control_c, 0, 7, 0
2, 180864, Note_on_c, 0, 68, 1
2, 181244, Note_off_c, 0, 68, 100
2, 181244, End_track
3, 0, Start_track
3, 0, Title_t, "Left"
3, 0, Control_c, 1, 0, 0
3, 0, Program_c, 1, 0
3, 0, Control_c, 1, 7, 100
3, 0, Control_c, 1, 10, 58
3, 0, Control_c, 1, 91, 127
3, 0, Key_signature, -4, "major"
3, 96, Note_on_c, 1, 32, 80
3, 188, Note_off_c, 1, 32, 100
3, 192, Note_on_c, 1, 36, 80
3, 284, Note_off_c, 1, 36, 100
3, 288, Note_on_c, 1, 39, 80
3, 380, Note_off_c, 1, 39, 100
3, 384, Note_on_c, 1, 44, 80
3, 476, Note_off_c, 1, 44, 100
3, 480, Note_on_c, 1, 32, 80
3, 572, Note_off_c, 1, 32, 100
3, 576, Note_on_c, 1, 34, 80
3, 668, Note_off_c, 1, 34, 100
3, 672, Note_on_c, 1, 46, 80
3, 764, Note_off_c, 1, 46, 100
3, 864, Note_on_c, 1, 36, 80
3, 956, Note_off_c, 1, 36, 100
3, 960, Note_on_c, 1, 39, 80
3, 1052, Note_off_c, 1, 39, 100
3, 1056, Note_on_c, 1, 44, 80
3, 1148, Note_off_c, 1, 44, 100
3, 1152, Note_on_c, 1, 48, 80
3, 1244, Note_off_c, 1, 48, 100
3, 1248, Note_on_c, 1, 36, 80
3, 1340, Note_off_c, 1, 36, 100
3, 1344, Note_on_c, 1, 37, 80
3, 1436, Note_off_c, 1, 37, 100
3, 1440, Note_on_c, 1, 49, 80
3, 1532, Note_off_c, 1, 49, 100
3, 1536, Note_on_c, 1, 34, 80
3, 1628, Note_off_c, 1, 34, 100
3, 1632, Note_on_c, 1, 46, 80
3, 1724, Note_off_c, 1, 46, 100
3, 1728, Note_on_c, 1, 31, 80
3, 1820, Note_off_c, 1, 31, 100
3, 1824, Note_on_c, 1, 43, 80
3, 1916, Note_off_c, 1, 43, 100
3, 1920, Note_on_c, 1, 32, 80
3, 2012, Note_off_c, 1, 32, 100
3, 2016, Note_on_c, 1, 44, 80
3, 2108, Note_off_c, 1, 44, 100
3, 2112, Note_on_c, 1, 36, 80
3, 2204, Note_off_c, 1, 36, 100
3, 2208, Note_on_c, 1, 48, 80
3, 2300, Note_off_c, 1, 48, 100
3, 2304, Note_on_c, 1, 39, 80
3, 2396, Note_off_c, 1, 39, 100
3, 2400, Note_on_c, 1, 51, 80
3, 2492, Note_off_c, 1, 51, 100
3, 2496, Note_on_c, 1, 51, 80
3, 2588, Note_off_c, 1, 51, 100
3, 2592, Note_on_c, 1, 51, 80
3, 2684, Note_off_c, 1, 51, 100
3, 2688, Note_on_c, 1, 51, 80
3, 2780, Note_off_c, 1, 51, 100
3, 2784, Note_on_c, 1, 49, 80
3, 2876, Note_off_c, 1, 49, 100
3, 2880, Note_on_c, 1, 48, 80
3, 2972, Note_off_c, 1, 48, 100
3, 2976, Note_on_c, 1, 46, 80
3, 3068, Note_off_c, 1, 46, 100
3, 3072, Note_on_c, 1, 44, 80
3, 3164, Note_off_c, 1, 44, 100
3, 3168, Note_on_c, 1, 32, 80
3, 3260, Note_off_c, 1, 32, 100
3, 3264, Note_on_c, 1, 36, 80
3, 3356, Note_off_c, 1, 36, 100
3, 3360, Note_on_c, 1, 39, 80
3, 3452, Note_off_c, 1, 39, 100
3, 3456, Note_on_c, 1, 44, 80
3, 3548, Note_off_c, 1, 44, 100
3, 3552, Note_on_c, 1, 32, 80
3, 3644, Note_off_c, 1, 32, 100
3, 3648, Note_on_c, 1, 34, 80
3, 3740, Note_off_c, 1, 34, 100
3, 3744, Note_on_c, 1, 46, 80
3, 3836, Note_off_c, 1, 46, 100
3, 3936, Note_on_c, 1, 36, 80
3, 4028, Note_off_c, 1, 36, 100
3, 4032, Note_on_c, 1, 39, 80
3, 4124, Note_off_c, 1, 39, 100
3, 4128, Note_on_c, 1, 44, 80
3, 4220, Note_off_c, 1, 44, 100
3, 4224, Note_on_c, 1, 48, 80
3, 4316, Note_off_c, 1, 48, 100
3, 4320, Note_on_c, 1, 36, 80
3, 4412, Note_off_c, 1, 36, 100
3, 4416, Note_on_c, 1, 37, 80
3, 4508, Note_off_c, 1, 37, 100
3, 4512, Note_on_c, 1, 49, 80
3, 4604, Note_off_c, 1, 49, 100
3, 4608, Note_on_c, 1, 34, 80
3, 4700, Note_off_c, 1, 34, 100
3, 4704, Note_on_c, 1, 46, 80
3, 4796, Note_off_c, 1, 46, 100
3, 4800, Note_on_c, 1, 31, 80
3, 4892, Note_off_c, 1, 31, 100
3, 4896, Note_on_c, 1, 43, 80
3, 4988, Note_off_c, 1, 43, 100
3, 4992, Note_on_c, 1, 32, 80
3, 5084, Note_off_c, 1, 32, 100
3, 5088, Note_on_c, 1, 44, 80
3, 5180, Note_off_c, 1, 44, 100
3, 5184, Note_on_c, 1, 36, 80
3, 5276, Note_off_c, 1, 36, 100
3, 5280, Note_on_c, 1, 48, 80
3, 5372, Note_off_c, 1, 48, 100
3, 5376, Note_on_c, 1, 39, 80
3, 5468, Note_off_c, 1, 39, 100
3, 5472, Note_on_c, 1, 39, 80
3, 5564, Note_off_c, 1, 39, 100
3, 5568, Note_on_c, 1, 43, 80
3, 5660, Note_off_c, 1, 43, 100
3, 5664, Note_on_c, 1, 39, 80
3, 5756, Note_off_c, 1, 39, 100
3, 5760, Note_on_c, 1, 44, 80
3, 5760, Note_on_c, 1, 32, 80
3, 5948, Note_off_c, 1, 44, 100
3, 5948, Note_off_c, 1, 32, 100
3, 5952, Note_on_c, 1, 68, 80
3, 5952, Note_on_c, 1, 56, 80
3, 6140, Note_off_c, 1, 68, 100
3, 6140, Note_off_c, 1, 56, 100
3, 6144, Note_on_c, 1, 67, 80
3, 6144, Note_on_c, 1, 63, 80
3, 6524, Note_off_c, 1, 67, 100
3, 6524, Note_off_c, 1, 63, 100
3, 6528, Note_on_c, 1, 68, 80
3, 6528, Note_on_c, 1, 56, 80
3, 6716, Note_off_c, 1, 68, 100
3, 6716, Note_off_c, 1, 56, 100
3, 6720, Note_on_c, 1, 60, 70
3, 6908, Note_off_c, 1, 60, 100
3, 6912, Note_on_c, 1, 58, 70
3, 7244, Note_off_c, 1, 58, 100
3, 7248, Note_on_c, 1, 56, 70
3, 7292, Note_off_c, 1, 56, 100
3, 7296, Note_on_c, 1, 55, 70
3, 7436, Note_off_c, 1, 55, 100
3, 7488, Note_on_c, 1, 53, 70
3, 7628, Note_off_c, 1, 53, 100
3, 7680, Note_on_c, 1, 52, 70
3, 8060, Note_off_c, 1, 52, 100
3, 8256, Note_on_c, 1, 53, 70
3, 8304, Note_on_c, 1, 55, 70
3, 8348, Note_off_c, 1, 53, 100
3, 8352, Note_on_c, 1, 52, 70
3, 8396, Note_off_c, 1, 55, 100
3, 8400, Note_on_c, 1, 53, 70
3, 8444, Note_off_c, 1, 52, 100
3, 8444, Note_off_c, 1, 53, 100
3, 8448, Note_on_c, 1, 55, 70
3, 8780, Note_off_c, 1, 55, 100
3, 8784, Note_on_c, 1, 53, 70
3, 8828, Note_off_c, 1, 53, 100
3, 8832, Note_on_c, 1, 52, 70
3, 9020, Note_off_c, 1, 52, 100
3, 9024, Note_on_c, 1, 50, 70
3, 9164, Note_off_c, 1, 50, 100
3, 9216, Note_on_c, 1, 48, 70
3, 9596, Note_off_c, 1, 48, 100
3, 9936, Note_on_c, 1, 48, 70
3, 9980, Note_off_c, 1, 48, 100
3, 9984, Note_on_c, 1, 48, 70
3, 10172, Note_off_c, 1, 48, 100
3, 10320, Note_on_c, 1, 48, 70
3, 10364, Note_off_c, 1, 48, 100
3, 10368, Note_on_c, 1, 48, 70
3, 10556, Note_off_c, 1, 48, 100
3, 10704, Note_on_c, 1, 48, 70
3, 10748, Note_off_c, 1, 48, 100
3, 10752, Note_on_c, 1, 48, 70
3, 11132, Note_off_c, 1, 48, 100
3, 11472, Note_on_c, 1, 49, 70
3, 11516, Note_off_c, 1, 49, 100
3, 11520, Note_on_c, 1, 49, 71
3, 11708, Note_off_c, 1, 49, 100
3, 11856, Note_on_c, 1, 49, 79
3, 11900, Note_off_c, 1, 49, 100
3, 11904, Note_on_c, 1, 49, 81
3, 12092, Note_off_c, 1, 49, 100
3, 12240, Note_on_c, 1, 49, 89
3, 12284, Note_off_c, 1, 49, 100
3, 12288, Note_on_c, 1, 49, 91
3, 12668, Note_off_c, 1, 49, 100
3, 13008, Note_on_c, 1, 49, 109
3, 13052, Note_off_c, 1, 49, 100
3, 13056, Note_on_c, 1, 49, 110
3, 13436, Note_off_c, 1, 49, 100
3, 13440, Note_on_c, 1, 46, 110
3, 13628, Note_off_c, 1, 46, 100
3, 13632, Note_on_c, 1, 43, 110
3, 13820, Note_off_c, 1, 43, 100
3, 13824, Note_on_c, 1, 39, 110
3, 15164, Note_off_c, 1, 39, 100
3, 15456, Note_on_c, 1, 32, 80
3, 15548, Note_off_c, 1, 32, 100
3, 15552, Note_on_c, 1, 36, 80
3, 15644, Note_off_c, 1, 36, 100
3, 15648, Note_on_c, 1, 39, 80
3, 15740, Note_off_c, 1, 39, 100
3, 15744, Note_on_c, 1, 44, 80
3, 15836, Note_off_c, 1, 44, 100
3, 15840, Note_on_c, 1, 32, 80
3, 15932, Note_off_c, 1, 32, 100
3, 15936, Note_on_c, 1, 34, 80
3, 16028, Note_off_c, 1, 34, 100
3, 16032, Note_on_c, 1, 46, 80
3, 16124, Note_off_c, 1, 46, 100
3, 16224, Note_on_c, 1, 36, 80
3, 16316, Note_off_c, 1, 36, 100
3, 16320, Note_on_c, 1, 39, 80
3, 16412, Note_off_c, 1, 39, 100
3, 16416, Note_on_c, 1, 44, 80
3, 16508, Note_off_c, 1, 44, 100
3, 16512, Note_on_c, 1, 48, 80
3, 16604, Note_off_c, 1, 48, 100
3, 16608, Note_on_c, 1, 36, 80
3, 16700, Note_off_c, 1, 36, 100
3, 16704, Note_on_c, 1, 37, 80
3, 16796, Note_off_c, 1, 37, 100
3, 16800, Note_on_c, 1, 49, 80
3, 16892, Note_off_c, 1, 49, 100
3, 16896, Note_on_c, 1, 34, 80
3, 16988, Note_off_c, 1, 34, 100
3, 16992, Note_on_c, 1, 46, 80
3, 17084, Note_off_c, 1, 46, 100
3, 17088, Note_on_c, 1, 31, 80
3, 17180, Note_off_c, 1, 31, 100
3, 17184, Note_on_c, 1, 43, 80
3, 17276, Note_off_c, 1, 43, 100
3, 17280, Note_on_c, 1, 32, 80
3, 17372, Note_off_c, 1, 32, 100
3, 17376, Note_on_c, 1, 44, 80
3, 17468, Note_off_c, 1, 44, 100
3, 17472, Note_on_c, 1, 36, 80
3, 17564, Note_off_c, 1, 36, 100
3, 17568, Note_on_c, 1, 48, 80
3, 17660, Note_off_c, 1, 48, 100
3, 17664, Note_on_c, 1, 39, 80
3, 17756, Note_off_c, 1, 39, 100
3, 17760, Note_on_c, 1, 51, 80
3, 17852, Note_off_c, 1, 51, 100
3, 17856, Note_on_c, 1, 51, 80
3, 17948, Note_off_c, 1, 51, 100
3, 17952, Note_on_c, 1, 51, 80
3, 18044, Note_off_c, 1, 51, 100
3, 18048, Note_on_c, 1, 51, 80
3, 18140, Note_off_c, 1, 51, 100
3, 18144, Note_on_c, 1, 49, 80
3, 18236, Note_off_c, 1, 49, 100
3, 18240, Note_on_c, 1, 48, 80
3, 18332, Note_off_c, 1, 48, 100
3, 18336, Note_on_c, 1, 46, 80
3, 18428, Note_off_c, 1, 46, 100
3, 18432, Note_on_c, 1, 44, 80
3, 18524, Note_off_c, 1, 44, 100
3, 18528, Note_on_c, 1, 32, 80
3, 18620, Note_off_c, 1, 32, 100
3, 18624, Note_on_c, 1, 36, 80
3, 18716, Note_off_c, 1, 36, 100
3, 18720, Note_on_c, 1, 39, 80
3, 18812, Note_off_c, 1, 39, 100
3, 18816, Note_on_c, 1, 44, 80
3, 18908, Note_off_c, 1, 44, 100
3, 18912, Note_on_c, 1, 32, 80
3, 19004, Note_off_c, 1, 32, 100
3, 19008, Note_on_c, 1, 34, 80
3, 19100, Note_off_c, 1, 34, 100
3, 19104, Note_on_c, 1, 46, 80
3, 19196, Note_off_c, 1, 46, 100
3, 19296, Note_on_c, 1, 36, 80
3, 19388, Note_off_c, 1, 36, 100
3, 19392, Note_on_c, 1, 39, 80
3, 19484, Note_off_c, 1, 39, 100
3, 19488, Note_on_c, 1, 44, 80
3, 19580, Note_off_c, 1, 44, 100
3, 19584, Note_on_c, 1, 48, 80
3, 19676, Note_off_c, 1, 48, 100
3, 19680, Note_on_c, 1, 36, 80
3, 19772, Note_off_c, 1, 36, 100
3, 19776, Note_on_c, 1, 37, 80
3, 19868, Note_off_c, 1, 37, 100
3, 19872, Note_on_c, 1, 49, 80
3, 19964, Note_off_c, 1, 49, 100
3, 19968, Note_on_c, 1, 34, 80
3, 20060, Note_off_c, 1, 34, 100
3, 20064, Note_on_c, 1, 46, 80
3, 20156, Note_off_c, 1, 46, 100
3, 20160, Note_on_c, 1, 31, 80
3, 20252, Note_off_c, 1, 31, 100
3, 20256, Note_on_c, 1, 43, 80
3, 20348, Note_off_c, 1, 43, 100
3, 20352, Note_on_c, 1, 32, 80
3, 20444, Note_off_c, 1, 32, 100
3, 20448, Note_on_c, 1, 44, 80
3, 20540, Note_off_c, 1, 44, 100
3, 20544, Note_on_c, 1, 36, 80
3, 20636, Note_off_c, 1, 36, 100
3, 20640, Note_on_c, 1, 48, 80
3, 20732, Note_off_c, 1, 48, 100
3, 20736, Note_on_c, 1, 39, 80
3, 20828, Note_off_c, 1, 39, 100
3, 20832, Note_on_c, 1, 39, 80
3, 20924, Note_off_c, 1, 39, 100
3, 20928, Note_on_c, 1, 43, 80
3, 21020, Note_off_c, 1, 43, 100
3, 21024, Note_on_c, 1, 39, 80
3, 21116, Note_off_c, 1, 39, 100
3, 21120, Note_on_c, 1, 44, 80
3, 21120, Note_on_c, 1, 32, 80
3, 21308, Note_off_c, 1, 44, 100
3, 21308, Note_off_c, 1, 32, 100
3, 21312, Note_on_c, 1, 68, 80
3, 21312, Note_on_c, 1, 56, 80
3, 21500, Note_off_c, 1, 68, 100
3, 21500, Note_off_c, 1, 56, 100
3, 21504, Note_on_c, 1, 67, 80
3, 21504, Note_on_c, 1, 63, 80
3, 21884, Note_off_c, 1, 67, 100
3, 21884, Note_off_c, 1, 63, 100
3, 21888, Note_on_c, 1, 68, 80
3, 21888, Note_on_c, 1, 56, 80
3, 22076, Note_off_c, 1, 68, 100
3, 22076, Note_off_c, 1, 56, 100
3, 22080, Note_on_c, 1, 72, 70
3, 22268, Note_off_c, 1, 72, 100
3, 22272, Note_on_c, 1, 70, 70
3, 22604, Note_off_c, 1, 70, 100
3, 22608, Note_on_c, 1, 68, 70
3, 22652, Note_off_c, 1, 68, 100
3, 22656, Note_on_c, 1, 67, 70
3, 22796, Note_off_c, 1, 67, 100
3, 22848, Note_on_c, 1, 65, 70
3, 22988, Note_off_c, 1, 65, 100
3, 23040, Note_on_c, 1, 64, 70
3, 23420, Note_off_c, 1, 64, 100
3, 23616, Note_on_c, 1, 65, 70
3, 23664, Note_on_c, 1, 67, 70
3, 23708, Note_off_c, 1, 65, 100
3, 23712, Note_on_c, 1, 64, 70
3, 23756, Note_off_c, 1, 67, 100
3, 23760, Note_on_c, 1, 65, 70
3, 23804, Note_off_c, 1, 64, 100
3, 23804, Note_off_c, 1, 65, 100
3, 23808, Note_on_c, 1, 67, 70
3, 24140, Note_off_c, 1, 67, 100
3, 24144, Note_on_c, 1, 65, 70
3, 24188, Note_off_c, 1, 65, 100
3, 24192, Note_on_c, 1, 64, 70
3, 24380, Note_off_c, 1, 64, 100
3, 24384, Note_on_c, 1, 62, 70
3, 24524, Note_off_c, 1, 62, 100
3, 24576, Note_on_c, 1, 60, 70
3, 24956, Note_off_c, 1, 60, 100
3, 25296, Note_on_c, 1, 60, 70
3, 25340, Note_off_c, 1, 60, 100
3, 25344, Note_on_c, 1, 60, 70
3, 25532, Note_off_c, 1, 60, 100
3, 25680, Note_on_c, 1, 60, 70
3, 25724, Note_off_c, 1, 60, 100
3, 25728, Note_on_c, 1, 60, 70
3, 25916, Note_off_c, 1, 60, 100
3, 26064, Note_on_c, 1, 60, 70
3, 26108, Note_off_c, 1, 60, 100
3, 26112, Note_on_c, 1, 60, 70
3, 26492, Note_off_c, 1, 60, 100
3, 26832, Note_on_c, 1, 53, 120
3, 26832, Note_on_c, 1, 48, 120
3, 26832, Note_on_c, 1, 45, 120
3, 26832, Note_on_c, 1, 41, 120
3, 26876, Note_off_c, 1, 53, 100
3, 26876, Note_off_c, 1, 48, 100
3, 26876, Note_off_c, 1, 45, 100
3, 26876, Note_off_c, 1, 41, 100
3, 26880, Note_on_c, 1, 53, 120
3, 26880, Note_on_c, 1, 48, 120
3, 26880, Note_on_c, 1, 45, 120
3, 26880, Note_on_c, 1, 41, 120
3, 27068, Note_off_c, 1, 53, 100
3, 27068, Note_off_c, 1, 48, 100
3, 27068, Note_off_c, 1, 45, 100
3, 27068, Note_off_c, 1, 41, 100
3, 27072, Note_on_c, 1, 57, 80
3, 27164, Note_off_c, 1, 57, 100
3, 27168, Note_on_c, 1, 60, 80
3, 27260, Note_off_c, 1, 60, 100
3, 27264, Note_on_c, 1, 58, 80
3, 27356, Note_off_c, 1, 58, 100
3, 27360, Note_on_c, 1, 61, 80
3, 27452, Note_off_c, 1, 61, 100
3, 27456, Note_on_c, 1, 55, 80
3, 27548, Note_off_c, 1, 55, 100
3, 27552, Note_on_c, 1, 58, 80
3, 27644, Note_off_c, 1, 58, 100
3, 27648, Note_on_c, 1, 57, 80
3, 27740, Note_off_c, 1, 57, 100
3, 27744, Note_on_c, 1, 60, 80
3, 27836, Note_off_c, 1, 60, 100
3, 27840, Note_on_c, 1, 57, 80
3, 27932, Note_off_c, 1, 57, 100
3, 27936, Note_on_c, 1, 60, 80
3, 28028, Note_off_c, 1, 60, 100
3, 28032, Note_on_c, 1, 58, 80
3, 28124, Note_off_c, 1, 58, 100
3, 28128, Note_on_c, 1, 61, 80
3, 28220, Note_off_c, 1, 61, 100
3, 28224, Note_on_c, 1, 55, 80
3, 28316, Note_off_c, 1, 55, 100
3, 28320, Note_on_c, 1, 58, 80
3, 28412, Note_off_c, 1, 58, 100
3, 28416, Note_on_c, 1, 57, 80
3, 28508, Note_off_c, 1, 57, 100
3, 28512, Note_on_c, 1, 60, 80
3, 28604, Note_off_c, 1, 60, 100
3, 28608, Note_on_c, 1, 63, 80
3, 28700, Note_off_c, 1, 63, 100
3, 28704, Note_on_c, 1, 60, 80
3, 28796, Note_off_c, 1, 60, 100
3, 28800, Note_on_c, 1, 60, 80
3, 28892, Note_off_c, 1, 60, 100
3, 28896, Note_on_c, 1, 63, 80
3, 28988, Note_off_c, 1, 63, 100
3, 28992, Note_on_c, 1, 66, 80
3, 29084, Note_off_c, 1, 66, 100
3, 29088, Note_on_c, 1, 63, 80
3, 29180, Note_off_c, 1, 63, 100
3, 29184, Note_on_c, 1, 63, 80
3, 29276, Note_off_c, 1, 63, 100
3, 29280, Note_on_c, 1, 66, 80
3, 29372, Note_off_c, 1, 66, 100
3, 29376, Note_on_c, 1, 69, 80
3, 29468, Note_off_c, 1, 69, 100
3, 29472, Note_on_c, 1, 66, 80
3, 29564, Note_off_c, 1, 66, 100
3, 29568, Note_on_c, 1, 65, 80
3, 29660, Note_off_c, 1, 65, 100
3, 29664, Note_on_c, 1, 69, 80
3, 29756, Note_off_c, 1, 69, 100
3, 29760, Note_on_c, 1, 63, 80
3, 29852, Note_off_c, 1, 63, 100
3, 29856, Note_on_c, 1, 69, 80
3, 29948, Note_off_c, 1, 69, 100
3, 29952, Note_on_c, 1, 58, 120
3, 29952, Note_on_c, 1, 53, 120
3, 29952, Note_on_c, 1, 50, 120
3, 29952, Note_on_c, 1, 46, 120
3, 30140, Note_off_c, 1, 58, 100
3, 30140, Note_off_c, 1, 53, 100
3, 30140, Note_off_c, 1, 50, 100
3, 30140, Note_off_c, 1, 46, 100
3, 30144, Note_on_c, 1, 62, 80
3, 30236, Note_off_c, 1, 62, 100
3, 30240, Note_on_c, 1, 65, 80
3, 30332, Note_off_c, 1, 65, 100
3, 30336, Note_on_c, 1, 63, 80
3, 30428, Note_off_c, 1, 63, 100
3, 30432, Note_on_c, 1, 66, 80
3, 30524, Note_off_c, 1, 66, 100
3, 30528, Note_on_c, 1, 60, 80
3, 30620, Note_off_c, 1, 60, 100
3, 30624, Note_on_c, 1, 63, 80
3, 30716, Note_off_c, 1, 63, 100
3, 30720, Note_on_c, 1, 62, 80
3, 30812, Note_off_c, 1, 62, 100
3, 30816, Note_on_c, 1, 65, 80
3, 30908, Note_off_c, 1, 65, 100
3, 30912, Note_on_c, 1, 62, 80
3, 31004, Note_off_c, 1, 62, 100
3, 31008, Note_on_c, 1, 65, 80
3, 31100, Note_off_c, 1, 65, 100
3, 31104, Note_on_c, 1, 63, 80
3, 31196, Note_off_c, 1, 63, 100
3, 31200, Note_on_c, 1, 66, 80
3, 31292, Note_off_c, 1, 66, 100
3, 31296, Note_on_c, 1, 60, 80
3, 31388, Note_off_c, 1, 60, 100
3, 31392, Note_on_c, 1, 63, 80
3, 31484, Note_off_c, 1, 63, 100
3, 31488, Note_on_c, 1, 62, 80
3, 31580, Note_off_c, 1, 62, 100
3, 31584, Note_on_c, 1, 65, 80
3, 31676, Note_off_c, 1, 65, 100
3, 31680, Note_on_c, 1, 68, 80
3, 31772, Note_off_c, 1, 68, 100
3, 31776, Note_on_c, 1, 65, 80
3, 31868, Note_off_c, 1, 65, 100
3, 31872, Note_on_c, 1, 65, 80
3, 31964, Note_off_c, 1, 65, 100
3, 31968, Note_on_c, 1, 68, 80
3, 32060, Note_off_c, 1, 68, 100
3, 32064, Note_on_c, 1, 71, 80
3, 32156, Note_off_c, 1, 71, 100
3, 32160, Note_on_c, 1, 68, 80
3, 32252, Note_off_c, 1, 68, 100
3, 32256, Note_on_c, 1, 68, 80
3, 32348, Note_off_c, 1, 68, 100
3, 32352, Note_on_c, 1, 71, 80
3, 32444, Note_off_c, 1, 71, 100
3, 32448, Note_on_c, 1, 74, 80
3, 32540, Note_off_c, 1, 74, 100
3, 32544, Note_on_c, 1, 71, 80
3, 32636, Note_off_c, 1, 71, 100
3, 32640, Note_on_c, 1, 74, 80
3, 32732, Note_off_c, 1, 74, 100
3, 32736, Note_on_c, 1, 77, 80
3, 32828, Note_off_c, 1, 77, 100
3, 32832, Note_on_c, 1, 80, 80
3, 32924, Note_off_c, 1, 80, 100
3, 32976, Note_on_c, 1, 71, 80
3, 32976, Note_on_c, 1, 68, 80
3, 33020, Note_off_c, 1, 71, 100
3, 33020, Note_off_c, 1, 68, 100
3, 33024, Note_on_c, 1, 71, 80
3, 33024, Note_on_c, 1, 68, 80
3, 33212, Note_off_c, 1, 71, 100
3, 33212, Note_off_c, 1, 68, 100
3, 33360, Note_on_c, 1, 71, 86
3, 33360, Note_on_c, 1, 68, 86
3, 33404, Note_off_c, 1, 71, 100
3, 33404, Note_off_c, 1, 68, 100
3, 33408, Note_on_c, 1, 71, 87
3, 33408, Note_on_c, 1, 68, 87
3, 33596, Note_off_c, 1, 71, 100
3, 33596, Note_off_c, 1, 68, 100
3, 33744, Note_on_c, 1, 71, 93
3, 33744, Note_on_c, 1, 68, 93
3, 33788, Note_off_c, 1, 71, 100
3, 33788, Note_off_c, 1, 68, 100
3, 33792, Note_on_c, 1, 71, 94
3, 33792, Note_on_c, 1, 68, 94
3, 33980, Note_off_c, 1, 71, 100
3, 33980, Note_off_c, 1, 68, 100
3, 34128, Note_on_c, 1, 71, 80
3, 34128, Note_on_c, 1, 68, 80
3, 34172, Note_off_c, 1, 71, 100
3, 34172, Note_off_c, 1, 68, 100
3, 34176, Note_on_c, 1, 70, 95
3, 34176, Note_on_c, 1, 67, 95
3, 34364, Note_off_c, 1, 70, 100
3, 34364, Note_off_c, 1, 67, 100
3, 34512, Note_on_c, 1, 70, 80
3, 34512, Note_on_c, 1, 67, 80
3, 34556, Note_off_c, 1, 70, 100
3, 34556, Note_off_c, 1, 67, 100
3, 34560, Note_on_c, 1, 71, 80
3, 34560, Note_on_c, 1, 68, 80
3, 34748, Note_off_c, 1, 71, 100
3, 34748, Note_off_c, 1, 68, 100
3, 34896, Note_on_c, 1, 71, 86
3, 34896, Note_on_c, 1, 68, 86
3, 34940, Note_off_c, 1, 71, 100
3, 34940, Note_off_c, 1, 68, 100
3, 34944, Note_on_c, 1, 71, 87
3, 34944, Note_on_c, 1, 68, 87
3, 35132, Note_off_c, 1, 71, 100
3, 35132, Note_off_c, 1, 68, 100
3, 35280, Note_on_c, 1, 71, 93
3, 35280, Note_on_c, 1, 68, 93
3, 35324, Note_off_c, 1, 71, 100
3, 35324, Note_off_c, 1, 68, 100
3, 35328, Note_on_c, 1, 71, 94
3, 35328, Note_on_c, 1, 68, 94
3, 35516, Note_off_c, 1, 71, 100
3, 35516, Note_off_c, 1, 68, 100
3, 35664, Note_on_c, 1, 71, 80
3, 35664, Note_on_c, 1, 68, 80
3, 35708, Note_off_c, 1, 71, 100
3, 35708, Note_off_c, 1, 68, 100
3, 35712, Note_on_c, 1, 70, 95
3, 35712, Note_on_c, 1, 67, 95
3, 35900, Note_off_c, 1, 70, 100
3, 35900, Note_off_c, 1, 67, 100
3, 36048, Note_on_c, 1, 70, 80
3, 36048, Note_on_c, 1, 67, 80
3, 36092, Note_off_c, 1, 70, 100
3, 36092, Note_off_c, 1, 67, 100
3, 36096, Note_on_c, 1, 71, 80
3, 36096, Note_on_c, 1, 68, 80
3, 36284, Note_off_c, 1, 71, 100
3, 36284, Note_off_c, 1, 68, 100
3, 36432, Note_on_c, 1, 71, 80
3, 36432, Note_on_c, 1, 68, 80
3, 36476, Note_off_c, 1, 71, 100
3, 36476, Note_off_c, 1, 68, 100
3, 36480, Note_on_c, 1, 70, 80
3, 36480, Note_on_c, 1, 67, 80
3, 36668, Note_off_c, 1, 70, 100
3, 36668, Note_off_c, 1, 67, 100
3, 36816, Note_on_c, 1, 70, 80
3, 36816, Note_on_c, 1, 67, 80
3, 36860, Note_off_c, 1, 70, 100
3, 36860, Note_off_c, 1, 67, 100
3, 36864, Note_on_c, 1, 71, 80
3, 36864, Note_on_c, 1, 68, 80
3, 37052, Note_off_c, 1, 71, 100
3, 37052, Note_off_c, 1, 68, 100
3, 37200, Note_on_c, 1, 71, 80
3, 37200, Note_on_c, 1, 68, 80
3, 37244, Note_off_c, 1, 71, 100
3, 37244, Note_off_c, 1, 68, 100
3, 37248, Note_on_c, 1, 70, 80
3, 37248, Note_on_c, 1, 67, 80
3, 37436, Note_off_c, 1, 70, 100
3, 37436, Note_off_c, 1, 67, 100
3, 37584, Note_on_c, 1, 55, 80
3, 37628, Note_off_c, 1, 55, 100
3, 37632, Note_on_c, 1, 56, 80
3, 37820, Note_off_c, 1, 56, 100
3, 37968, Note_on_c, 1, 44, 80
3, 38012, Note_off_c, 1, 44, 100
3, 38016, Note_on_c, 1, 46, 80
3, 38204, Note_off_c, 1, 46, 100
3, 38352, Note_on_c, 1, 34, 80
3, 38396, Note_off_c, 1, 34, 100
3, 38400, Note_on_c, 1, 39, 70
3, 38492, Note_off_c, 1, 39, 100
3, 38496, Note_on_c, 1, 46, 70
3, 38496, Note_on_c, 1, 51, 70
3, 38588, Note_off_c, 1, 46, 100
3, 38588, Note_off_c, 1, 51, 100
3, 38592, Note_on_c, 1, 55, 70
3, 38592, Note_on_c, 1, 51, 70
3, 38684, Note_off_c, 1, 55, 100
3, 38684, Note_off_c, 1, 51, 100
3, 38688, Note_on_c, 1, 46, 70
3, 38688, Note_on_c, 1, 51, 70
3, 38780, Note_off_c, 1, 46, 100
3, 38780, Note_off_c, 1, 51, 100
3, 38784, Note_on_c, 1, 55, 70
3, 38784, Note_on_c, 1, 51, 70
3, 38876, Note_off_c, 1, 55, 100
3, 38876, Note_off_c, 1, 51, 100
3, 38880, Note_on_c, 1, 51, 70
3, 38880, Note_on_c, 1, 46, 70
3, 38972, Note_off_c, 1, 51, 100
3, 38972, Note_off_c, 1, 46, 100
3, 38976, Note_on_c, 1, 55, 70
3, 38976, Note_on_c, 1, 51, 70
3, 39068, Note_off_c, 1, 55, 100
3, 39068, Note_off_c, 1, 51, 100
3, 39072, Note_on_c, 1, 51, 70
3, 39072, Note_on_c, 1, 46, 70
3, 39164, Note_off_c, 1, 51, 100
3, 39164, Note_off_c, 1, 46, 100
3, 39168, Note_on_c, 1, 55, 70
3, 39168, Note_on_c, 1, 51, 70
3, 39260, Note_off_c, 1, 55, 100
3, 39260, Note_off_c, 1, 51, 100
3, 39264, Note_on_c, 1, 51, 70
3, 39264, Note_on_c, 1, 46, 70
3, 39356, Note_off_c, 1, 51, 100
3, 39356, Note_off_c, 1, 46, 100
3, 39360, Note_on_c, 1, 55, 70
3, 39360, Note_on_c, 1, 51, 70
3, 39452, Note_off_c, 1, 55, 100
3, 39452, Note_off_c, 1, 51, 100
3, 39456, Note_on_c, 1, 51, 70
3, 39456, Note_on_c, 1, 46, 70
3, 39548, Note_off_c, 1, 51, 100
3, 39548, Note_off_c, 1, 46, 100
3, 39552, Note_on_c, 1, 56, 70
3, 39552, Note_on_c, 1, 53, 70
3, 39644, Note_off_c, 1, 56, 100
3, 39644, Note_off_c, 1, 53, 100
3, 39648, Note_on_c, 1, 53, 70
3, 39648, Note_on_c, 1, 46, 70
3, 39740, Note_off_c, 1, 53, 100
3, 39740, Note_off_c, 1, 46, 100
3, 39744, Note_on_c, 1, 56, 70
3, 39744, Note_on_c, 1, 53, 70
3, 39836, Note_off_c, 1, 56, 100
3, 39836, Note_off_c, 1, 53, 100
3, 39840, Note_on_c, 1, 53, 70
3, 39840, Note_on_c, 1, 46, 70
3, 39932, Note_off_c, 1, 53, 100
3, 39932, Note_off_c, 1, 46, 100
3, 39936, Note_on_c, 1, 39, 70
3, 40028, Note_off_c, 1, 39, 100
3, 40032, Note_on_c, 1, 46, 70
3, 40032, Note_on_c, 1, 51, 70
3, 40124, Note_off_c, 1, 46, 100
3, 40124, Note_off_c, 1, 51, 100
3, 40128, Note_on_c, 1, 55, 70
3, 40128, Note_on_c, 1, 51, 70
3, 40220, Note_off_c, 1, 55, 100
3, 40220, Note_off_c, 1, 51, 100
3, 40224, Note_on_c, 1, 46, 70
3, 40224, Note_on_c, 1, 51, 70
3, 40316, Note_off_c, 1, 46, 100
3, 40316, Note_off_c, 1, 51, 100
3, 40320, Note_on_c, 1, 55, 70
3, 40320, Note_on_c, 1, 51, 70
3, 40412, Note_off_c, 1, 55, 100
3, 40412, Note_off_c, 1, 51, 100
3, 40416, Note_on_c, 1, 51, 70
3, 40416, Note_on_c, 1, 46, 70
3, 40508, Note_off_c, 1, 51, 100
3, 40508, Note_off_c, 1, 46, 100
3, 40512, Note_on_c, 1, 55, 70
3, 40512, Note_on_c, 1, 51, 70
3, 40604, Note_off_c, 1, 55, 100
3, 40604, Note_off_c, 1, 51, 100
3, 40608, Note_on_c, 1, 51, 70
3, 40608, Note_on_c, 1, 46, 70
3, 40700, Note_off_c, 1, 51, 100
3, 40700, Note_off_c, 1, 46, 100
3, 40704, Note_on_c, 1, 55, 70
3, 40704, Note_on_c, 1, 51, 70
3, 40796, Note_off_c, 1, 55, 100
3, 40796, Note_off_c, 1, 51, 100
3, 40800, Note_on_c, 1, 51, 70
3, 40800, Note_on_c, 1, 46, 70
3, 40892, Note_off_c, 1, 51, 100
3, 40892, Note_off_c, 1, 46, 100
3, 40896, Note_on_c, 1, 55, 70
3, 40896, Note_on_c, 1, 51, 70
3, 40988, Note_off_c, 1, 55, 100
3, 40988, Note_off_c, 1, 51, 100
3, 40992, Note_on_c, 1, 51, 70
3, 40992, Note_on_c, 1, 46, 70
3, 41084, Note_off_c, 1, 51, 100
3, 41084, Note_off_c, 1, 46, 100
3, 41088, Note_on_c, 1, 56, 70
3, 41088, Note_on_c, 1, 53, 70
3, 41180, Note_off_c, 1, 56, 100
3, 41180, Note_off_c, 1, 53, 100
3, 41184, Note_on_c, 1, 53, 70
3, 41184, Note_on_c, 1, 46, 70
3, 41276, Note_off_c, 1, 53, 100
3, 41276, Note_off_c, 1, 46, 100
3, 41280, Note_on_c, 1, 56, 70
3, 41280, Note_on_c, 1, 53, 70
3, 41372, Note_off_c, 1, 56, 100
3, 41372, Note_off_c, 1, 53, 100
3, 41376, Note_on_c, 1, 53, 70
3, 41376, Note_on_c, 1, 46, 70
3, 41468, Note_off_c, 1, 53, 100
3, 41468, Note_off_c, 1, 46, 100
3, 41472, Note_on_c, 1, 55, 70
3, 41472, Note_on_c, 1, 51, 70
3, 41564, Note_off_c, 1, 55, 100
3, 41564, Note_off_c, 1, 51, 100
3, 41568, Note_on_c, 1, 51, 70
3, 41568, Note_on_c, 1, 46, 70
3, 41660, Note_off_c, 1, 51, 100
3, 41660, Note_off_c, 1, 46, 100
3, 41664, Note_on_c, 1, 55, 70
3, 41664, Note_on_c, 1, 51, 70
3, 41756, Note_off_c, 1, 55, 100
3, 41756, Note_off_c, 1, 51, 100
3, 41760, Note_on_c, 1, 51, 70
3, 41760, Note_on_c, 1, 46, 70
3, 41852, Note_off_c, 1, 51, 100
3, 41852, Note_off_c, 1, 46, 100
3, 41856, Note_on_c, 1, 56, 70
3, 41856, Note_on_c, 1, 53, 70
3, 41948, Note_off_c, 1, 56, 100
3, 41948, Note_off_c, 1, 53, 100
3, 41952, Note_on_c, 1, 53, 70
3, 41952, Note_on_c, 1, 46, 70
3, 42044, Note_off_c, 1, 53, 100
3, 42044, Note_off_c, 1, 46, 100
3, 42048, Note_on_c, 1, 56, 70
3, 42048, Note_on_c, 1, 53, 70
3, 42140, Note_off_c, 1, 56, 100
3, 42140, Note_off_c, 1, 53, 100
3, 42144, Note_on_c, 1, 53, 70
3, 42144, Note_on_c, 1, 46, 70
3, 42236, Note_off_c, 1, 53, 100
3, 42236, Note_off_c, 1, 46, 100
3, 42240, Note_on_c, 1, 55, 70
3, 42240, Note_on_c, 1, 51, 70
3, 42332, Note_off_c, 1, 55, 100
3, 42332, Note_off_c, 1, 51, 100
3, 42336, Note_on_c, 1, 51, 70
3, 42336, Note_on_c, 1, 46, 70
3, 42428, Note_off_c, 1, 51, 100
3, 42428, Note_off_c, 1, 46, 100
3, 42432, Note_on_c, 1, 55, 70
3, 42432, Note_on_c, 1, 51, 70
3, 42524, Note_off_c, 1, 55, 100
3, 42524, Note_off_c, 1, 51, 100
3, 42528, Note_on_c, 1, 51, 70
3, 42528, Note_on_c, 1, 46, 70
3, 42620, Note_off_c, 1, 51, 100
3, 42620, Note_off_c, 1, 46, 100
3, 42624, Note_on_c, 1, 56, 70
3, 42624, Note_on_c, 1, 53, 70
3, 42716, Note_off_c, 1, 56, 100
3, 42716, Note_off_c, 1, 53, 100
3, 42720, Note_on_c, 1, 53, 70
3, 42720, Note_on_c, 1, 46, 70
3, 42812, Note_off_c, 1, 53, 100
3, 42812, Note_off_c, 1, 46, 100
3, 42816, Note_on_c, 1, 56, 70
3, 42816, Note_on_c, 1, 53, 70
3, 42908, Note_off_c, 1, 56, 100
3, 42908, Note_off_c, 1, 53, 100
3, 42912, Note_on_c, 1, 53, 70
3, 42912, Note_on_c, 1, 46, 70
3, 43004, Note_off_c, 1, 53, 100
3, 43004, Note_off_c, 1, 46, 100
3, 43008, Note_on_c, 1, 55, 80
3, 43008, Note_on_c, 1, 51, 80
3, 43196, Note_off_c, 1, 55, 100
3, 43196, Note_off_c, 1, 51, 100
3, 43776, Note_on_c, 1, 51, 80
3, 43868, Note_off_c, 1, 51, 100
3, 43872, Note_on_c, 1, 55, 80
3, 43964, Note_off_c, 1, 55, 100
3, 43968, Note_on_c, 1, 46, 80
3, 44060, Note_off_c, 1, 46, 100
3, 44064, Note_on_c, 1, 51, 80
3, 44156, Note_off_c, 1, 51, 100
3, 44160, Note_on_c, 1, 43, 80
3, 44252, Note_off_c, 1, 43, 100
3, 44256, Note_on_c, 1, 46, 80
3, 44348, Note_off_c, 1, 46, 100
3, 44352, Note_on_c, 1, 44, 80
3, 44444, Note_off_c, 1, 44, 100
3, 44448, Note_on_c, 1, 41, 80
3, 44540, Note_off_c, 1, 41, 100
3, 44544, Note_on_c, 1, 39, 80
3, 44732, Note_off_c, 1, 39, 100
3, 44928, Note_on_c, 1, 39, 80
3, 45116, Note_off_c, 1, 39, 100
3, 45312, Note_on_c, 1, 39, 80
3, 45500, Note_off_c, 1, 39, 100
3, 45696, Note_on_c, 1, 39, 80
3, 45884, Note_off_c, 1, 39, 100
3, 46080, Note_on_c, 1, 39, 80
3, 46268, Note_off_c, 1, 39, 100
3, 46464, Note_on_c, 1, 39, 85
3, 46652, Note_off_c, 1, 39, 100
3, 46848, Note_on_c, 1, 39, 90
3, 47036, Note_off_c, 1, 39, 100
3, 47232, Note_on_c, 1, 39, 95
3, 47420, Note_off_c, 1, 39, 100
3, 47712, Note_on_c, 1, 32, 80
3, 47804, Note_off_c, 1, 32, 100
3, 47808, Note_on_c, 1, 36, 80
3, 47900, Note_off_c, 1, 36, 100
3, 47904, Note_on_c, 1, 39, 80
3, 47996, Note_off_c, 1, 39, 100
3, 48000, Note_on_c, 1, 44, 80
3, 48092, Note_off_c, 1, 44, 100
3, 48096, Note_on_c, 1, 32, 80
3, 48188, Note_off_c, 1, 32, 100
3, 48192, Note_on_c, 1, 34, 80
3, 48284, Note_off_c, 1, 34, 100
3, 48288, Note_on_c, 1, 46, 80
3, 48380, Note_off_c, 1, 46, 100
3, 48480, Note_on_c, 1, 36, 80
3, 48572, Note_off_c, 1, 36, 100
3, 48576, Note_on_c, 1, 39, 80
3, 48668, Note_off_c, 1, 39, 100
3, 48672, Note_on_c, 1, 44, 80
3, 48764, Note_off_c, 1, 44, 100
3, 48768, Note_on_c, 1, 48, 80
3, 48860, Note_off_c, 1, 48, 100
3, 48864, Note_on_c, 1, 36, 80
3, 48956, Note_off_c, 1, 36, 100
3, 48960, Note_on_c, 1, 37, 80
3, 49052, Note_off_c, 1, 37, 100
3, 49056, Note_on_c, 1, 49, 80
3, 49148, Note_off_c, 1, 49, 100
3, 49152, Note_on_c, 1, 34, 80
3, 49244, Note_off_c, 1, 34, 100
3, 49248, Note_on_c, 1, 46, 80
3, 49340, Note_off_c, 1, 46, 100
3, 49344, Note_on_c, 1, 31, 80
3, 49436, Note_off_c, 1, 31, 100
3, 49440, Note_on_c, 1, 43, 80
3, 49532, Note_off_c, 1, 43, 100
3, 49536, Note_on_c, 1, 32, 80
3, 49628, Note_off_c, 1, 32, 100
3, 49632, Note_on_c, 1, 44, 80
3, 49724, Note_off_c, 1, 44, 100
3, 49728, Note_on_c, 1, 36, 80
3, 49820, Note_off_c, 1, 36, 100
3, 49824, Note_on_c, 1, 48, 80
3, 49916, Note_off_c, 1, 48, 100
3, 49920, Note_on_c, 1, 39, 80
3, 50012, Note_off_c, 1, 39, 100
3, 50016, Note_on_c, 1, 51, 80
3, 50108, Note_off_c, 1, 51, 100
3, 50112, Note_on_c, 1, 51, 80
3, 50204, Note_off_c, 1, 51, 100
3, 50208, Note_on_c, 1, 51, 80
3, 50300, Note_off_c, 1, 51, 100
3, 50304, Note_on_c, 1, 51, 80
3, 50396, Note_off_c, 1, 51, 100
3, 50400, Note_on_c, 1, 49, 80
3, 50492, Note_off_c, 1, 49, 100
3, 50496, Note_on_c, 1, 48, 80
3, 50588, Note_off_c, 1, 48, 100
3, 50592, Note_on_c, 1, 46, 80
3, 50684, Note_off_c, 1, 46, 100
3, 50688, Note_on_c, 1, 44, 80
3, 50780, Note_off_c, 1, 44, 100
3, 50784, Note_on_c, 1, 32, 80
3, 50876, Note_off_c, 1, 32, 100
3, 50880, Note_on_c, 1, 36, 80
3, 50972, Note_off_c, 1, 36, 100
3, 50976, Note_on_c, 1, 39, 80
3, 51068, Note_off_c, 1, 39, 100
3, 51072, Note_on_c, 1, 44, 80
3, 51164, Note_off_c, 1, 44, 100
3, 51168, Note_on_c, 1, 32, 80
3, 51260, Note_off_c, 1, 32, 100
3, 51264, Note_on_c, 1, 34, 80
3, 51356, Note_off_c, 1, 34, 100
3, 51360, Note_on_c, 1, 46, 80
3, 51452, Note_off_c, 1, 46, 100
3, 51552, Note_on_c, 1, 36, 80
3, 51644, Note_off_c, 1, 36, 100
3, 51648, Note_on_c, 1, 39, 80
3, 51740, Note_off_c, 1, 39, 100
3, 51744, Note_on_c, 1, 44, 80
3, 51836, Note_off_c, 1, 44, 100
3, 51840, Note_on_c, 1, 48, 80
3, 51932, Note_off_c, 1, 48, 100
3, 51936, Note_on_c, 1, 36, 80
3, 52028, Note_off_c, 1, 36, 100
3, 52032, Note_on_c, 1, 37, 80
3, 52124, Note_off_c, 1, 37, 100
3, 52128, Note_on_c, 1, 49, 80
3, 52220, Note_off_c, 1, 49, 100
3, 52224, Note_on_c, 1, 34, 80
3, 52316, Note_off_c, 1, 34, 100
3, 52320, Note_on_c, 1, 46, 80
3, 52412, Note_off_c, 1, 46, 100
3, 52416, Note_on_c, 1, 31, 80
3, 52508, Note_off_c, 1, 31, 100
3, 52512, Note_on_c, 1, 43, 80
3, 52604, Note_off_c, 1, 43, 100
3, 52608, Note_on_c, 1, 32, 80
3, 52700, Note_off_c, 1, 32, 100
3, 52704, Note_on_c, 1, 44, 80
3, 52796, Note_off_c, 1, 44, 100
3, 52800, Note_on_c, 1, 36, 80
3, 52892, Note_off_c, 1, 36, 100
3, 52896, Note_on_c, 1, 48, 80
3, 52988, Note_off_c, 1, 48, 100
3, 52992, Note_on_c, 1, 39, 80
3, 53084, Note_off_c, 1, 39, 100
3, 53088, Note_on_c, 1, 39, 80
3, 53180, Note_off_c, 1, 39, 100
3, 53184, Note_on_c, 1, 43, 80
3, 53276, Note_off_c, 1, 43, 100
3, 53280, Note_on_c, 1, 39, 80
3, 53372, Note_off_c, 1, 39, 100
3, 53376, Note_on_c, 1, 44, 80
3, 53376, Note_on_c, 1, 32, 80
3, 53564, Note_off_c, 1, 44, 100
3, 53564, Note_off_c, 1, 32, 100
3, 53568, Note_on_c, 1, 68, 80
3, 53568, Note_on_c, 1, 56, 80
3, 53756, Note_off_c, 1, 68, 100
3, 53756, Note_off_c, 1, 56, 100
3, 53760, Note_on_c, 1, 67, 80
3, 53760, Note_on_c, 1, 63, 80
3, 54140, Note_off_c, 1, 67, 100
3, 54140, Note_off_c, 1, 63, 100
3, 54144, Note_on_c, 1, 68, 80
3, 54144, Note_on_c, 1, 56, 80
3, 54332, Note_off_c, 1, 68, 100
3, 54332, Note_off_c, 1, 56, 100
3, 54336, Note_on_c, 1, 60, 70
3, 54524, Note_off_c, 1, 60, 100
3, 54528, Note_on_c, 1, 58, 70
3, 54860, Note_off_c, 1, 58, 100
3, 54864, Note_on_c, 1, 56, 70
3, 54908, Note_off_c, 1, 56, 100
3, 54912, Note_on_c, 1, 55, 70
3, 55052, Note_off_c, 1, 55, 100
3, 55104, Note_on_c, 1, 53, 70
3, 55244, Note_off_c, 1, 53, 100
3, 55296, Note_on_c, 1, 52, 70
3, 55676, Note_off_c, 1, 52, 100
3, 55872, Note_on_c, 1, 53, 70
3, 55920, Note_on_c, 1, 55, 70
3, 55964, Note_off_c, 1, 53, 100
3, 55968, Note_on_c, 1, 52, 70
3, 56012, Note_off_c, 1, 55, 100
3, 56016, Note_on_c, 1, 53, 70
3, 56060, Note_off_c, 1, 52, 100
3, 56060, Note_off_c, 1, 53, 100
3, 56064, Note_on_c, 1, 55, 70
3, 56396, Note_off_c, 1, 55, 100
3, 56400, Note_on_c, 1, 53, 70
3, 56444, Note_off_c, 1, 53, 100
3, 56448, Note_on_c, 1, 52, 70
3, 56636, Note_off_c, 1, 52, 100
3, 56640, Note_on_c, 1, 50, 70
3, 56780, Note_off_c, 1, 50, 100
3, 56832, Note_on_c, 1, 48, 70
3, 57212, Note_off_c, 1, 48, 100
3, 57552, Note_on_c, 1, 48, 70
3, 57596, Note_off_c, 1, 48, 100
3, 57600, Note_on_c, 1, 48, 70
3, 57788, Note_off_c, 1, 48, 100
3, 57936, Note_on_c, 1, 48, 70
3, 57980, Note_off_c, 1, 48, 100
3, 57984, Note_on_c, 1, 48, 70
3, 58172, Note_off_c, 1, 48, 100
3, 58320, Note_on_c, 1, 48, 70
3, 58364, Note_off_c, 1, 48, 100
3, 58368, Note_on_c, 1, 48, 70
3, 58748, Note_off_c, 1, 48, 100
3, 59088, Note_on_c, 1, 49, 80
3, 59132, Note_off_c, 1, 49, 100
3, 59136, Note_on_c, 1, 49, 81
3, 59324, Note_off_c, 1, 49, 100
3, 59472, Note_on_c, 1, 49, 89
3, 59516, Note_off_c, 1, 49, 100
3, 59520, Note_on_c, 1, 49, 90
3, 59708, Note_off_c, 1, 49, 100
3, 59856, Note_on_c, 1, 49, 98
3, 59900, Note_off_c, 1, 49, 100
3, 59904, Note_on_c, 1, 49, 99
3, 60284, Note_off_c, 1, 49, 100
3, 60624, Note_on_c, 1, 49, 110
3, 60668, Note_off_c, 1, 49, 100
3, 60672, Note_on_c, 1, 49, 110
3, 61052, Note_off_c, 1, 49, 100
3, 61056, Note_on_c, 1, 46, 110
3, 61244, Note_off_c, 1, 46, 100
3, 61248, Note_on_c, 1, 43, 110
3, 61436, Note_off_c, 1, 43, 100
3, 61440, Note_on_c, 1, 39, 110
3, 62780, Note_off_c, 1, 39, 100
3, 63072, Note_on_c, 1, 32, 80
3, 63164, Note_off_c, 1, 32, 100
3, 63168, Note_on_c, 1, 36, 80
3, 63260, Note_off_c, 1, 36, 100
3, 63264, Note_on_c, 1, 39, 80
3, 63356, Note_off_c, 1, 39, 100
3, 63360, Note_on_c, 1, 44, 80
3, 63452, Note_off_c, 1, 44, 100
3, 63456, Note_on_c, 1, 32, 80
3, 63548, Note_off_c, 1, 32, 100
3, 63552, Note_on_c, 1, 34, 80
3, 63644, Note_off_c, 1, 34, 100
3, 63648, Note_on_c, 1, 46, 80
3, 63740, Note_off_c, 1, 46, 100
3, 63840, Note_on_c, 1, 36, 80
3, 63932, Note_off_c, 1, 36, 100
3, 63936, Note_on_c, 1, 39, 80
3, 64028, Note_off_c, 1, 39, 100
3, 64032, Note_on_c, 1, 44, 80
3, 64124, Note_off_c, 1, 44, 100
3, 64128, Note_on_c, 1, 48, 80
3, 64220, Note_off_c, 1, 48, 100
3, 64224, Note_on_c, 1, 36, 80
3, 64316, Note_off_c, 1, 36, 100
3, 64320, Note_on_c, 1, 37, 80
3, 64412, Note_off_c, 1, 37, 100
3, 64416, Note_on_c, 1, 49, 80
3, 64508, Note_off_c, 1, 49, 100
3, 64512, Note_on_c, 1, 34, 80
3, 64604, Note_off_c, 1, 34, 100
3, 64608, Note_on_c, 1, 46, 80
3, 64700, Note_off_c, 1, 46, 100
3, 64704, Note_on_c, 1, 31, 80
3, 64796, Note_off_c, 1, 31, 100
3, 64800, Note_on_c, 1, 43, 80
3, 64892, Note_off_c, 1, 43, 100
3, 64896, Note_on_c, 1, 32, 80
3, 64988, Note_off_c, 1, 32, 100
3, 64992, Note_on_c, 1, 44, 80
3, 65084, Note_off_c, 1, 44, 100
3, 65088, Note_on_c, 1, 36, 80
3, 65180, Note_off_c, 1, 36, 100
3, 65184, Note_on_c, 1, 48, 80
3, 65276, Note_off_c, 1, 48, 100
3, 65280, Note_on_c, 1, 39, 80
3, 65372, Note_off_c, 1, 39, 100
3, 65376, Note_on_c, 1, 51, 80
3, 65468, Note_off_c, 1, 51, 100
3, 65472, Note_on_c, 1, 51, 80
3, 65564, Note_off_c, 1, 51, 100
3, 65568, Note_on_c, 1, 51, 80
3, 65660, Note_off_c, 1, 51, 100
3, 65664, Note_on_c, 1, 51, 80
3, 65756, Note_off_c, 1, 51, 100
3, 65760, Note_on_c, 1, 49, 80
3, 65852, Note_off_c, 1, 49, 100
3, 65856, Note_on_c, 1, 48, 80
3, 65948, Note_off_c, 1, 48, 100
3, 65952, Note_on_c, 1, 46, 80
3, 66044, Note_off_c, 1, 46, 100
3, 66048, Note_on_c, 1, 44, 80
3, 66140, Note_off_c, 1, 44, 100
3, 66144, Note_on_c, 1, 32, 80
3, 66236, Note_off_c, 1, 32, 100
3, 66240, Note_on_c, 1, 36, 80
3, 66332, Note_off_c, 1, 36, 100
3, 66336, Note_on_c, 1, 39, 80
3, 66428, Note_off_c, 1, 39, 100
3, 66432, Note_on_c, 1, 44, 80
3, 66524, Note_off_c, 1, 44, 100
3, 66528, Note_on_c, 1, 32, 80
3, 66620, Note_off_c, 1, 32, 100
3, 66624, Note_on_c, 1, 34, 80
3, 66716, Note_off_c, 1, 34, 100
3, 66720, Note_on_c, 1, 46, 80
3, 66812, Note_off_c, 1, 46, 100
3, 66912, Note_on_c, 1, 36, 80
3, 67004, Note_off_c, 1, 36, 100
3, 67008, Note_on_c, 1, 39, 80
3, 67100, Note_off_c, 1, 39, 100
3, 67104, Note_on_c, 1, 44, 80
3, 67196, Note_off_c, 1, 44, 100
3, 67200, Note_on_c, 1, 48, 80
3, 67292, Note_off_c, 1, 48, 100
3, 67296, Note_on_c, 1, 36, 80
3, 67388, Note_off_c, 1, 36, 100
3, 67392, Note_on_c, 1, 37, 80
3, 67484, Note_off_c, 1, 37, 100
3, 67488, Note_on_c, 1, 49, 80
3, 67580, Note_off_c, 1, 49, 100
3, 67584, Note_on_c, 1, 34, 80
3, 67676, Note_off_c, 1, 34, 100
3, 67680, Note_on_c, 1, 46, 80
3, 67772, Note_off_c, 1, 46, 100
3, 67776, Note_on_c, 1, 31, 80
3, 67868, Note_off_c, 1, 31, 100
3, 67872, Note_on_c, 1, 43, 80
3, 67964, Note_off_c, 1, 43, 100
3, 67968, Note_on_c, 1, 32, 80
3, 68060, Note_off_c, 1, 32, 100
3, 68064, Note_on_c, 1, 44, 80
3, 68156, Note_off_c, 1, 44, 100
3, 68160, Note_on_c, 1, 36, 80
3, 68252, Note_off_c, 1, 36, 100
3, 68256, Note_on_c, 1, 48, 80
3, 68348, Note_off_c, 1, 48, 100
3, 68352, Note_on_c, 1, 39, 80
3, 68444, Note_off_c, 1, 39, 100
3, 68448, Note_on_c, 1, 39, 80
3, 68540, Note_off_c, 1, 39, 100
3, 68544, Note_on_c, 1, 43, 80
3, 68636, Note_off_c, 1, 43, 100
3, 68640, Note_on_c, 1, 39, 80
3, 68732, Note_off_c, 1, 39, 100
3, 68736, Note_on_c, 1, 44, 80
3, 68736, Note_on_c, 1, 32, 80
3, 68924, Note_off_c, 1, 44, 100
3, 68924, Note_off_c, 1, 32, 100
3, 68928, Note_on_c, 1, 68, 80
3, 68928, Note_on_c, 1, 56, 80
3, 69116, Note_off_c, 1, 68, 100
3, 69116, Note_off_c, 1, 56, 100
3, 69120, Note_on_c, 1, 67, 80
3, 69120, Note_on_c, 1, 63, 80
3, 69500, Note_off_c, 1, 67, 100
3, 69500, Note_off_c, 1, 63, 100
3, 69504, Note_on_c, 1, 68, 80
3, 69504, Note_on_c, 1, 56, 80
3, 69692, Note_off_c, 1, 68, 100
3, 69692, Note_off_c, 1, 56, 100
3, 69696, Note_on_c, 1, 72, 70
3, 69884, Note_off_c, 1, 72, 100
3, 69888, Note_on_c, 1, 70, 70
3, 70220, Note_off_c, 1, 70, 100
3, 70224, Note_on_c, 1, 68, 70
3, 70268, Note_off_c, 1, 68, 100
3, 70272, Note_on_c, 1, 67, 70
3, 70412, Note_off_c, 1, 67, 100
3, 70464, Note_on_c, 1, 65, 70
3, 70604, Note_off_c, 1, 65, 100
3, 70656, Note_on_c, 1, 64, 70
3, 71036, Note_off_c, 1, 64, 100
3, 71232, Note_on_c, 1, 65, 70
3, 71280, Note_on_c, 1, 67, 70
3, 71324, Note_off_c, 1, 65, 100
3, 71328, Note_on_c, 1, 64, 70
3, 71372, Note_off_c, 1, 67, 100
3, 71376, Note_on_c, 1, 65, 70
3, 71420, Note_off_c, 1, 64, 100
3, 71420, Note_off_c, 1, 65, 100
3, 71424, Note_on_c, 1, 67, 70
3, 71756, Note_off_c, 1, 67, 100
3, 71760, Note_on_c, 1, 65, 70
3, 71804, Note_off_c, 1, 65, 100
3, 71808, Note_on_c, 1, 64, 70
3, 71996, Note_off_c, 1, 64, 100
3, 72000, Note_on_c, 1, 62, 70
3, 72140, Note_off_c, 1, 62, 100
3, 72192, Note_on_c, 1, 60, 70
3, 72572, Note_off_c, 1, 60, 100
3, 72912, Note_on_c, 1, 60, 70
3, 72956, Note_off_c, 1, 60, 100
3, 72960, Note_on_c, 1, 60, 70
3, 73148, Note_off_c, 1, 60, 100
3, 73296, Note_on_c, 1, 60, 70
3, 73340, Note_off_c, 1, 60, 100
3, 73344, Note_on_c, 1, 60, 70
3, 73532, Note_off_c, 1, 60, 100
3, 73680, Note_on_c, 1, 60, 70
3, 73724, Note_off_c, 1, 60, 100
3, 73728, Note_on_c, 1, 60, 70
3, 74108, Note_off_c, 1, 60, 100
3, 74448, Note_on_c, 1, 53, 120
3, 74448, Note_on_c, 1, 48, 120
3, 74448, Note_on_c, 1, 45, 120
3, 74448, Note_on_c, 1, 41, 120
3, 74492, Note_off_c, 1, 53, 100
3, 74492, Note_off_c, 1, 48, 100
3, 74492, Note_off_c, 1, 45, 100
3, 74492, Note_off_c, 1, 41, 100
3, 74496, Note_on_c, 1, 53, 120
3, 74496, Note_on_c, 1, 48, 120
3, 74496, Note_on_c, 1, 45, 120
3, 74496, Note_on_c, 1, 41, 120
3, 74684, Note_off_c, 1, 53, 100
3, 74684, Note_off_c, 1, 48, 100
3, 74684, Note_off_c, 1, 45, 100
3, 74684, Note_off_c, 1, 41, 100
3, 74688, Note_on_c, 1, 57, 80
3, 74780, Note_off_c, 1, 57, 100
3, 74784, Note_on_c, 1, 60, 80
3, 74876, Note_off_c, 1, 60, 100
3, 74880, Note_on_c, 1, 58, 80
3, 74972, Note_off_c, 1, 58, 100
3, 74976, Note_on_c, 1, 61, 80
3, 75068, Note_off_c, 1, 61, 100
3, 75072, Note_on_c, 1, 55, 80
3, 75164, Note_off_c, 1, 55, 100
3, 75168, Note_on_c, 1, 58, 80
3, 75260, Note_off_c, 1, 58, 100
3, 75264, Note_on_c, 1, 57, 80
3, 75356, Note_off_c, 1, 57, 100
3, 75360, Note_on_c, 1, 60, 80
3, 75452, Note_off_c, 1, 60, 100
3, 75456, Note_on_c, 1, 57, 80
3, 75548, Note_off_c, 1, 57, 100
3, 75552, Note_on_c, 1, 60, 80
3, 75644, Note_off_c, 1, 60, 100
3, 75648, Note_on_c, 1, 58, 80
3, 75740, Note_off_c, 1, 58, 100
3, 75744, Note_on_c, 1, 61, 80
3, 75836, Note_off_c, 1, 61, 100
3, 75840, Note_on_c, 1, 55, 80
3, 75932, Note_off_c, 1, 55, 100
3, 75936, Note_on_c, 1, 58, 80
3, 76028, Note_off_c, 1, 58, 100
3, 76032, Note_on_c, 1, 57, 80
3, 76124, Note_off_c, 1, 57, 100
3, 76128, Note_on_c, 1, 60, 80
3, 76220, Note_off_c, 1, 60, 100
3, 76224, Note_on_c, 1, 63, 80
3, 76316, Note_off_c, 1, 63, 100
3, 76320, Note_on_c, 1, 60, 80
3, 76412, Note_off_c, 1, 60, 100
3, 76416, Note_on_c, 1, 60, 80
3, 76508, Note_off_c, 1, 60, 100
3, 76512, Note_on_c, 1, 63, 80
3, 76604, Note_off_c, 1, 63, 100
3, 76608, Note_on_c, 1, 66, 80
3, 76700, Note_off_c, 1, 66, 100
3, 76704, Note_on_c, 1, 63, 80
3, 76796, Note_off_c, 1, 63, 100
3, 76800, Note_on_c, 1, 63, 80
3, 76892, Note_off_c, 1, 63, 100
3, 76896, Note_on_c, 1, 66, 80
3, 76988, Note_off_c, 1, 66, 100
3, 76992, Note_on_c, 1, 69, 80
3, 77084, Note_off_c, 1, 69, 100
3, 77088, Note_on_c, 1, 66, 80
3, 77180, Note_off_c, 1, 66, 100
3, 77184, Note_on_c, 1, 65, 80
3, 77276, Note_off_c, 1, 65, 100
3, 77280, Note_on_c, 1, 69, 80
3, 77372, Note_off_c, 1, 69, 100
3, 77376, Note_on_c, 1, 63, 80
3, 77468, Note_off_c, 1, 63, 100
3, 77472, Note_on_c, 1, 69, 80
3, 77564, Note_off_c, 1, 69, 100
3, 77568, Note_on_c, 1, 58, 120
3, 77568, Note_on_c, 1, 53, 120
3, 77568, Note_on_c, 1, 50, 120
3, 77568, Note_on_c, 1, 46, 120
3, 77756, Note_off_c, 1, 58, 100
3, 77756, Note_off_c, 1, 53, 100
3, 77756, Note_off_c, 1, 50, 100
3, 77756, Note_off_c, 1, 46, 100
3, 77760, Note_on_c, 1, 62, 80
3, 77852, Note_off_c, 1, 62, 100
3, 77856, Note_on_c, 1, 65, 80
3, 77948, Note_off_c, 1, 65, 100
3, 77952, Note_on_c, 1, 63, 80
3, 78044, Note_off_c, 1, 63, 100
3, 78048, Note_on_c, 1, 66, 80
3, 78140, Note_off_c, 1, 66, 100
3, 78144, Note_on_c, 1, 60, 80
3, 78236, Note_off_c, 1, 60, 100
3, 78240, Note_on_c, 1, 63, 80
3, 78332, Note_off_c, 1, 63, 100
3, 78336, Note_on_c, 1, 62, 80
3, 78428, Note_off_c, 1, 62, 100
3, 78432, Note_on_c, 1, 65, 80
3, 78524, Note_off_c, 1, 65, 100
3, 78528, Note_on_c, 1, 62, 80
3, 78620, Note_off_c, 1, 62, 100
3, 78624, Note_on_c, 1, 65, 80
3, 78716, Note_off_c, 1, 65, 100
3, 78720, Note_on_c, 1, 63, 80
3, 78812, Note_off_c, 1, 63, 100
3, 78816, Note_on_c, 1, 66, 80
3, 78908, Note_off_c, 1, 66, 100
3, 78912, Note_on_c, 1, 60, 80
3, 79004, Note_off_c, 1, 60, 100
3, 79008, Note_on_c, 1, 63, 80
3, 79100, Note_off_c, 1, 63, 100
3, 79104, Note_on_c, 1, 62, 80
3, 79196, Note_off_c, 1, 62, 100
3, 79200, Note_on_c, 1, 65, 80
3, 79292, Note_off_c, 1, 65, 100
3, 79296, Note_on_c, 1, 68, 80
3, 79388, Note_off_c, 1, 68, 100
3, 79392, Note_on_c, 1, 65, 80
3, 79484, Note_off_c, 1, 65, 100
3, 79488, Note_on_c, 1, 65, 80
3, 79580, Note_off_c, 1, 65, 100
3, 79584, Note_on_c, 1, 68, 80
3, 79676, Note_off_c, 1, 68, 100
3, 79680, Note_on_c, 1, 71, 80
3, 79772, Note_off_c, 1, 71, 100
3, 79776, Note_on_c, 1, 68, 80
3, 79868, Note_off_c, 1, 68, 100
3, 79872, Note_on_c, 1, 68, 80
3, 79964, Note_off_c, 1, 68, 100
3, 79968, Note_on_c, 1, 71, 80
3, 80060, Note_off_c, 1, 71, 100
3, 80064, Note_on_c, 1, 74, 80
3, 80156, Note_off_c, 1, 74, 100
3, 80160, Note_on_c, 1, 71, 80
3, 80252, Note_off_c, 1, 71, 100
3, 80256, Note_on_c, 1, 74, 80
3, 80348, Note_off_c, 1, 74, 100
3, 80352, Note_on_c, 1, 77, 81
3, 80444, Note_off_c, 1, 77, 100
3, 80448, Note_on_c, 1, 80, 82
3, 80540, Note_off_c, 1, 80, 100
3, 80592, Note_on_c, 1, 71, 84
3, 80592, Note_on_c, 1, 68, 84
3, 80636, Note_off_c, 1, 71, 100
3, 80636, Note_off_c, 1, 68, 100
3, 80640, Note_on_c, 1, 71, 85
3, 80640, Note_on_c, 1, 68, 85
3, 80828, Note_off_c, 1, 71, 100
3, 80828, Note_off_c, 1, 68, 100
3, 80976, Note_on_c, 1, 71, 89
3, 80976, Note_on_c, 1, 68, 89
3, 81020, Note_off_c, 1, 71, 100
3, 81020, Note_off_c, 1, 68, 100
3, 81024, Note_on_c, 1, 71, 90
3, 81024, Note_on_c, 1, 68, 90
3, 81212, Note_off_c, 1, 71, 100
3, 81212, Note_off_c, 1, 68, 100
3, 81360, Note_on_c, 1, 71, 95
3, 81360, Note_on_c, 1, 68, 95
3, 81404, Note_off_c, 1, 71, 100
3, 81404, Note_off_c, 1, 68, 100
3, 81408, Note_on_c, 1, 71, 95
3, 81408, Note_on_c, 1, 68, 95
3, 81596, Note_off_c, 1, 71, 100
3, 81596, Note_off_c, 1, 68, 100
3, 81744, Note_on_c, 1, 71, 80
3, 81744, Note_on_c, 1, 68, 80
3, 81788, Note_off_c, 1, 71, 100
3, 81788, Note_off_c, 1, 68, 100
3, 81792, Note_on_c, 1, 70, 95
3, 81792, Note_on_c, 1, 67, 95
3, 81980, Note_off_c, 1, 70, 100
3, 81980, Note_off_c, 1, 67, 100
3, 82128, Note_on_c, 1, 70, 80
3, 82128, Note_on_c, 1, 67, 80
3, 82172, Note_off_c, 1, 70, 100
3, 82172, Note_off_c, 1, 67, 100
3, 82176, Note_on_c, 1, 71, 80
3, 82176, Note_on_c, 1, 68, 80
3, 82364, Note_off_c, 1, 71, 100
3, 82364, Note_off_c, 1, 68, 100
3, 82512, Note_on_c, 1, 71, 86
3, 82512, Note_on_c, 1, 68, 86
3, 82556, Note_off_c, 1, 71, 100
3, 82556, Note_off_c, 1, 68, 100
3, 82560, Note_on_c, 1, 71, 87
3, 82560, Note_on_c, 1, 68, 87
3, 82748, Note_off_c, 1, 71, 100
3, 82748, Note_off_c, 1, 68, 100
3, 82896, Note_on_c, 1, 71, 93
3, 82896, Note_on_c, 1, 68, 93
3, 82940, Note_off_c, 1, 71, 100
3, 82940, Note_off_c, 1, 68, 100
3, 82944, Note_on_c, 1, 71, 94
3, 82944, Note_on_c, 1, 68, 94
3, 83132, Note_off_c, 1, 71, 100
3, 83132, Note_off_c, 1, 68, 100
3, 83280, Note_on_c, 1, 71, 80
3, 83280, Note_on_c, 1, 68, 80
3, 83324, Note_off_c, 1, 71, 100
3, 83324, Note_off_c, 1, 68, 100
3, 83328, Note_on_c, 1, 70, 95
3, 83328, Note_on_c, 1, 67, 95
3, 83516, Note_off_c, 1, 70, 100
3, 83516, Note_off_c, 1, 67, 100
3, 83664, Note_on_c, 1, 70, 80
3, 83664, Note_on_c, 1, 67, 80
3, 83708, Note_off_c, 1, 70, 100
3, 83708, Note_off_c, 1, 67, 100
3, 83712, Note_on_c, 1, 71, 80
3, 83712, Note_on_c, 1, 68, 80
3, 83900, Note_off_c, 1, 71, 100
3, 83900, Note_off_c, 1, 68, 100
3, 84048, Note_on_c, 1, 71, 80
3, 84048, Note_on_c, 1, 68, 80
3, 84092, Note_off_c, 1, 71, 100
3, 84092, Note_off_c, 1, 68, 100
3, 84096, Note_on_c, 1, 70, 80
3, 84096, Note_on_c, 1, 67, 80
3, 84284, Note_off_c, 1, 70, 100
3, 84284, Note_off_c, 1, 67, 100
3, 84432, Note_on_c, 1, 70, 80
3, 84432, Note_on_c, 1, 67, 80
3, 84476, Note_off_c, 1, 70, 100
3, 84476, Note_off_c, 1, 67, 100
3, 84480, Note_on_c, 1, 71, 80
3, 84480, Note_on_c, 1, 68, 80
3, 84668, Note_off_c, 1, 71, 100
3, 84668, Note_off_c, 1, 68, 100
3, 84816, Note_on_c, 1, 71, 80
3, 84816, Note_on_c, 1, 68, 80
3, 84860, Note_off_c, 1, 71, 100
3, 84860, Note_off_c, 1, 68, 100
3, 84864, Note_on_c, 1, 70, 80
3, 84864, Note_on_c, 1, 67, 80
3, 85052, Note_off_c, 1, 70, 100
3, 85052, Note_off_c, 1, 67, 100
3, 85200, Note_on_c, 1, 55, 80
3, 85244, Note_off_c, 1, 55, 100
3, 85248, Note_on_c, 1, 56, 80
3, 85436, Note_off_c, 1, 56, 100
3, 85584, Note_on_c, 1, 44, 80
3, 85628, Note_off_c, 1, 44, 100
3, 85632, Note_on_c, 1, 46, 80
3, 85820, Note_off_c, 1, 46, 100
3, 85968, Note_on_c, 1, 34, 80
3, 86012, Note_off_c, 1, 34, 100
3, 86016, Note_on_c, 1, 39, 70
3, 86108, Note_off_c, 1, 39, 100
3, 86112, Note_on_c, 1, 46, 70
3, 86112, Note_on_c, 1, 51, 70
3, 86204, Note_off_c, 1, 46, 100
3, 86204, Note_off_c, 1, 51, 100
3, 86208, Note_on_c, 1, 55, 70
3, 86208, Note_on_c, 1, 51, 70
3, 86300, Note_off_c, 1, 55, 100
3, 86300, Note_off_c, 1, 51, 100
3, 86304, Note_on_c, 1, 46, 70
3, 86304, Note_on_c, 1, 51, 70
3, 86396, Note_off_c, 1, 46, 100
3, 86396, Note_off_c, 1, 51, 100
3, 86400, Note_on_c, 1, 55, 70
3, 86400, Note_on_c, 1, 51, 70
3, 86492, Note_off_c, 1, 55, 100
3, 86492, Note_off_c, 1, 51, 100
3, 86496, Note_on_c, 1, 51, 70
3, 86496, Note_on_c, 1, 46, 70
3, 86588, Note_off_c, 1, 51, 100
3, 86588, Note_off_c, 1, 46, 100
3, 86592, Note_on_c, 1, 55, 70
3, 86592, Note_on_c, 1, 51, 70
3, 86684, Note_off_c, 1, 55, 100
3, 86684, Note_off_c, 1, 51, 100
3, 86688, Note_on_c, 1, 51, 70
3, 86688, Note_on_c, 1, 46, 70
3, 86780, Note_off_c, 1, 51, 100
3, 86780, Note_off_c, 1, 46, 100
3, 86784, Note_on_c, 1, 55, 70
3, 86784, Note_on_c, 1, 51, 70
3, 86876, Note_off_c, 1, 55, 100
3, 86876, Note_off_c, 1, 51, 100
3, 86880, Note_on_c, 1, 51, 70
3, 86880, Note_on_c, 1, 46, 70
3, 86972, Note_off_c, 1, 51, 100
3, 86972, Note_off_c, 1, 46, 100
3, 86976, Note_on_c, 1, 55, 70
3, 86976, Note_on_c, 1, 51, 70
3, 87068, Note_off_c, 1, 55, 100
3, 87068, Note_off_c, 1, 51, 100
3, 87072, Note_on_c, 1, 51, 70
3, 87072, Note_on_c, 1, 46, 70
3, 87164, Note_off_c, 1, 51, 100
3, 87164, Note_off_c, 1, 46, 100
3, 87168, Note_on_c, 1, 56, 70
3, 87168, Note_on_c, 1, 53, 70
3, 87260, Note_off_c, 1, 56, 100
3, 87260, Note_off_c, 1, 53, 100
3, 87264, Note_on_c, 1, 53, 70
3, 87264, Note_on_c, 1, 46, 70
3, 87356, Note_off_c, 1, 53, 100
3, 87356, Note_off_c, 1, 46, 100
3, 87360, Note_on_c, 1, 56, 70
3, 87360, Note_on_c, 1, 53, 70
3, 87452, Note_off_c, 1, 56, 100
3, 87452, Note_off_c, 1, 53, 100
3, 87456, Note_on_c, 1, 53, 70
3, 87456, Note_on_c, 1, 46, 70
3, 87548, Note_off_c, 1, 53, 100
3, 87548, Note_off_c, 1, 46, 100
3, 87552, Note_on_c, 1, 39, 70
3, 87644, Note_off_c, 1, 39, 100
3, 87648, Note_on_c, 1, 46, 70
3, 87648, Note_on_c, 1, 51, 70
3, 87740, Note_off_c, 1, 46, 100
3, 87740, Note_off_c, 1, 51, 100
3, 87744, Note_on_c, 1, 55, 70
3, 87744, Note_on_c, 1, 51, 70
3, 87836, Note_off_c, 1, 55, 100
3, 87836, Note_off_c, 1, 51, 100
3, 87840, Note_on_c, 1, 46, 70
3, 87840, Note_on_c, 1, 51, 70
3, 87932, Note_off_c, 1, 46, 100
3, 87932, Note_off_c, 1, 51, 100
3, 87936, Note_on_c, 1, 55, 70
3, 87936, Note_on_c, 1, 51, 70
3, 88028, Note_off_c, 1, 55, 100
3, 88028, Note_off_c, 1, 51, 100
3, 88032, Note_on_c, 1, 51, 70
3, 88032, Note_on_c, 1, 46, 70
3, 88124, Note_off_c, 1, 51, 100
3, 88124, Note_off_c, 1, 46, 100
3, 88128, Note_on_c, 1, 55, 70
3, 88128, Note_on_c, 1, 51, 70
3, 88220, Note_off_c, 1, 55, 100
3, 88220, Note_off_c, 1, 51, 100
3, 88224, Note_on_c, 1, 51, 70
3, 88224, Note_on_c, 1, 46, 70
3, 88316, Note_off_c, 1, 51, 100
3, 88316, Note_off_c, 1, 46, 100
3, 88320, Note_on_c, 1, 55, 70
3, 88320, Note_on_c, 1, 51, 70
3, 88412, Note_off_c, 1, 55, 100
3, 88412, Note_off_c, 1, 51, 100
3, 88416, Note_on_c, 1, 51, 70
3, 88416, Note_on_c, 1, 46, 70
3, 88508, Note_off_c, 1, 51, 100
3, 88508, Note_off_c, 1, 46, 100
3, 88512, Note_on_c, 1, 55, 70
3, 88512, Note_on_c, 1, 51, 70
3, 88604, Note_off_c, 1, 55, 100
3, 88604, Note_off_c, 1, 51, 100
3, 88608, Note_on_c, 1, 51, 70
3, 88608, Note_on_c, 1, 46, 70
3, 88700, Note_off_c, 1, 51, 100
3, 88700, Note_off_c, 1, 46, 100
3, 88704, Note_on_c, 1, 56, 70
3, 88704, Note_on_c, 1, 53, 70
3, 88796, Note_off_c, 1, 56, 100
3, 88796, Note_off_c, 1, 53, 100
3, 88800, Note_on_c, 1, 53, 70
3, 88800, Note_on_c, 1, 46, 70
3, 88892, Note_off_c, 1, 53, 100
3, 88892, Note_off_c, 1, 46, 100
3, 88896, Note_on_c, 1, 56, 70
3, 88896, Note_on_c, 1, 53, 70
3, 88988, Note_off_c, 1, 56, 100
3, 88988, Note_off_c, 1, 53, 100
3, 88992, Note_on_c, 1, 53, 70
3, 88992, Note_on_c, 1, 46, 70
3, 89084, Note_off_c, 1, 53, 100
3, 89084, Note_off_c, 1, 46, 100
3, 89088, Note_on_c, 1, 55, 70
3, 89088, Note_on_c, 1, 51, 70
3, 89180, Note_off_c, 1, 55, 100
3, 89180, Note_off_c, 1, 51, 100
3, 89184, Note_on_c, 1, 51, 70
3, 89184, Note_on_c, 1, 46, 70
3, 89276, Note_off_c, 1, 51, 100
3, 89276, Note_off_c, 1, 46, 100
3, 89280, Note_on_c, 1, 55, 70
3, 89280, Note_on_c, 1, 51, 70
3, 89372, Note_off_c, 1, 55, 100
3, 89372, Note_off_c, 1, 51, 100
3, 89376, Note_on_c, 1, 51, 70
3, 89376, Note_on_c, 1, 46, 70
3, 89468, Note_off_c, 1, 51, 100
3, 89468, Note_off_c, 1, 46, 100
3, 89472, Note_on_c, 1, 56, 70
3, 89472, Note_on_c, 1, 53, 70
3, 89564, Note_off_c, 1, 56, 100
3, 89564, Note_off_c, 1, 53, 100
3, 89568, Note_on_c, 1, 53, 70
3, 89568, Note_on_c, 1, 46, 70
3, 89660, Note_off_c, 1, 53, 100
3, 89660, Note_off_c, 1, 46, 100
3, 89664, Note_on_c, 1, 56, 70
3, 89664, Note_on_c, 1, 53, 70
3, 89756, Note_off_c, 1, 56, 100
3, 89756, Note_off_c, 1, 53, 100
3, 89760, Note_on_c, 1, 53, 70
3, 89760, Note_on_c, 1, 46, 70
3, 89852, Note_off_c, 1, 53, 100
3, 89852, Note_off_c, 1, 46, 100
3, 89856, Note_on_c, 1, 55, 70
3, 89856, Note_on_c, 1, 51, 70
3, 89948, Note_off_c, 1, 55, 100
3, 89948, Note_off_c, 1, 51, 100
3, 89952, Note_on_c, 1, 51, 70
3, 89952, Note_on_c, 1, 46, 70
3, 90044, Note_off_c, 1, 51, 100
3, 90044, Note_off_c, 1, 46, 100
3, 90048, Note_on_c, 1, 55, 70
3, 90048, Note_on_c, 1, 51, 70
3, 90140, Note_off_c, 1, 55, 100
3, 90140, Note_off_c, 1, 51, 100
3, 90144, Note_on_c, 1, 51, 70
3, 90144, Note_on_c, 1, 46, 70
3, 90236, Note_off_c, 1, 51, 100
3, 90236, Note_off_c, 1, 46, 100
3, 90240, Note_on_c, 1, 56, 70
3, 90240, Note_on_c, 1, 53, 70
3, 90332, Note_off_c, 1, 56, 100
3, 90332, Note_off_c, 1, 53, 100
3, 90336, Note_on_c, 1, 53, 70
3, 90336, Note_on_c, 1, 46, 70
3, 90428, Note_off_c, 1, 53, 100
3, 90428, Note_off_c, 1, 46, 100
3, 90432, Note_on_c, 1, 56, 70
3, 90432, Note_on_c, 1, 53, 70
3, 90524, Note_off_c, 1, 56, 100
3, 90524, Note_off_c, 1, 53, 100
3, 90528, Note_on_c, 1, 53, 70
3, 90528, Note_on_c, 1, 46, 70
3, 90620, Note_off_c, 1, 53, 100
3, 90620, Note_off_c, 1, 46, 100
3, 90624, Note_on_c, 1, 55, 80
3, 90624, Note_on_c, 1, 51, 80
3, 90812, Note_off_c, 1, 55, 100
3, 90812, Note_off_c, 1, 51, 100
3, 91392, Note_on_c, 1, 51, 80
3, 91484, Note_off_c, 1, 51, 100
3, 91488, Note_on_c, 1, 55, 80
3, 91580, Note_off_c, 1, 55, 100
3, 91584, Note_on_c, 1, 46, 80
3, 91676, Note_off_c, 1, 46, 100
3, 91680, Note_on_c, 1, 51, 80
3, 91772, Note_off_c, 1, 51, 100
3, 91776, Note_on_c, 1, 43, 80
3, 91868, Note_off_c, 1, 43, 100
3, 91872, Note_on_c, 1, 46, 80
3, 91964, Note_off_c, 1, 46, 100
3, 91968, Note_on_c, 1, 44, 80
3, 92060, Note_off_c, 1, 44, 100
3, 92064, Note_on_c, 1, 41, 80
3, 92156, Note_off_c, 1, 41, 100
3, 92160, Note_on_c, 1, 39, 80
3, 92348, Note_off_c, 1, 39, 100
3, 92544, Note_on_c, 1, 39, 80
3, 92732, Note_off_c, 1, 39, 100
3, 92928, Note_on_c, 1, 39, 80
3, 93116, Note_off_c, 1, 39, 100
3, 93312, Note_on_c, 1, 39, 80
3, 93500, Note_off_c, 1, 39, 100
3, 93696, Note_on_c, 1, 39, 80
3, 93884, Note_off_c, 1, 39, 100
3, 94080, Note_on_c, 1, 39, 85
3, 94268, Note_off_c, 1, 39, 100
3, 94464, Note_on_c, 1, 39, 90
3, 94652, Note_off_c, 1, 39, 100
3, 94848, Note_on_c, 1, 39, 95
3, 95036, Note_off_c, 1, 39, 100
3, 95232, Note_on_c, 1, 40, 100
3, 95420, Note_off_c, 1, 40, 100
3, 95616, Note_on_c, 1, 40, 95
3, 95804, Note_off_c, 1, 40, 100
3, 96000, Note_on_c, 1, 40, 90
3, 96188, Note_off_c, 1, 40, 100
3, 96384, Note_on_c, 1, 40, 85
3, 96572, Note_off_c, 1, 40, 100
3, 96864, Note_on_c, 1, 41, 80
3, 96956, Note_off_c, 1, 41, 100
3, 96960, Note_on_c, 1, 45, 80
3, 97052, Note_off_c, 1, 45, 100
3, 97056, Note_on_c, 1, 48, 80
3, 97148, Note_off_c, 1, 48, 100
3, 97152, Note_on_c, 1, 53, 80
3, 97244, Note_off_c, 1, 53, 100
3, 97248, Note_on_c, 1, 41, 80
3, 97340, Note_off_c, 1, 41, 100
3, 97344, Note_on_c, 1, 43, 80
3, 97436, Note_off_c, 1, 43, 100
3, 97440, Note_on_c, 1, 55, 80
3, 97532, Note_off_c, 1, 55, 100
3, 97632, Note_on_c, 1, 45, 80
3, 97724, Note_off_c, 1, 45, 100
3, 97728, Note_on_c, 1, 48, 80
3, 97820, Note_off_c, 1, 48, 100
3, 97824, Note_on_c, 1, 53, 80
3, 97916, Note_off_c, 1, 53, 100
3, 97920, Note_on_c, 1, 57, 80
3, 98012, Note_off_c, 1, 57, 100
3, 98016, Note_on_c, 1, 45, 80
3, 98108, Note_off_c, 1, 45, 100
3, 98112, Note_on_c, 1, 46, 80
3, 98204, Note_off_c, 1, 46, 100
3, 98208, Note_on_c, 1, 58, 80
3, 98300, Note_off_c, 1, 58, 100
3, 98304, Note_on_c, 1, 43, 80
3, 98396, Note_off_c, 1, 43, 100
3, 98400, Note_on_c, 1, 55, 80
3, 98492, Note_off_c, 1, 55, 100
3, 98496, Note_on_c, 1, 40, 80
3, 98588, Note_off_c, 1, 40, 100
3, 98592, Note_on_c, 1, 52, 80
3, 98684, Note_off_c, 1, 52, 100
3, 98688, Note_on_c, 1, 41, 80
3, 98780, Note_off_c, 1, 41, 100
3, 98784, Note_on_c, 1, 53, 80
3, 98876, Note_off_c, 1, 53, 100
3, 98880, Note_on_c, 1, 45, 80
3, 98972, Note_off_c, 1, 45, 100
3, 98976, Note_on_c, 1, 57, 80
3, 99068, Note_off_c, 1, 57, 100
3, 99072, Note_on_c, 1, 48, 80
3, 99164, Note_off_c, 1, 48, 100
3, 99168, Note_on_c, 1, 60, 80
3, 99260, Note_off_c, 1, 60, 100
3, 99264, Note_on_c, 1, 60, 80
3, 99356, Note_off_c, 1, 60, 100
3, 99360, Note_on_c, 1, 60, 80
3, 99452, Note_off_c, 1, 60, 100
3, 99456, Note_on_c, 1, 60, 80
3, 99548, Note_off_c, 1, 60, 100
3, 99552, Note_on_c, 1, 58, 80
3, 99644, Note_off_c, 1, 58, 100
3, 99648, Note_on_c, 1, 57, 80
3, 99740, Note_off_c, 1, 57, 100
3, 99744, Note_on_c, 1, 55, 80
3, 99836, Note_off_c, 1, 55, 100
3, 99936, Note_on_c, 1, 41, 80
3, 100028, Note_off_c, 1, 41, 100
3, 100032, Note_on_c, 1, 45, 80
3, 100124, Note_off_c, 1, 45, 100
3, 100128, Note_on_c, 1, 48, 80
3, 100220, Note_off_c, 1, 48, 100
3, 100224, Note_on_c, 1, 53, 80
3, 100316, Note_off_c, 1, 53, 100
3, 100320, Note_on_c, 1, 41, 80
3, 100412, Note_off_c, 1, 41, 100
3, 100416, Note_on_c, 1, 43, 80
3, 100508, Note_off_c, 1, 43, 100
3, 100512, Note_on_c, 1, 55, 80
3, 100604, Note_off_c, 1, 55, 100
3, 100704, Note_on_c, 1, 45, 80
3, 100796, Note_off_c, 1, 45, 100
3, 100800, Note_on_c, 1, 48, 80
3, 100892, Note_off_c, 1, 48, 100
3, 100896, Note_on_c, 1, 53, 80
3, 100988, Note_off_c, 1, 53, 100
3, 100992, Note_on_c, 1, 57, 80
3, 101084, Note_off_c, 1, 57, 100
3, 101088, Note_on_c, 1, 45, 80
3, 101180, Note_off_c, 1, 45, 100
3, 101184, Note_on_c, 1, 46, 80
3, 101276, Note_off_c, 1, 46, 100
3, 101280, Note_on_c, 1, 58, 80
3, 101372, Note_off_c, 1, 58, 100
3, 101376, Note_on_c, 1, 60, 80
3, 101376, Note_on_c, 1, 48, 80
3, 101564, Note_off_c, 1, 60, 100
3, 101564, Note_off_c, 1, 48, 100
3, 101712, Note_on_c, 1, 66, 89
3, 101712, Note_on_c, 1, 63, 89
3, 101756, Note_off_c, 1, 66, 100
3, 101756, Note_off_c, 1, 63, 100
3, 101760, Note_on_c, 1, 66, 91
3, 101760, Note_on_c, 1, 63, 91
3, 101948, Note_off_c, 1, 66, 100
3, 101948, Note_off_c, 1, 63, 100
3, 102096, Note_on_c, 1, 66, 80
3, 102096, Note_on_c, 1, 63, 80
3, 102140, Note_off_c, 1, 66, 100
3, 102140, Note_off_c, 1, 63, 100
3, 102144, Note_on_c, 1, 66, 95
3, 102144, Note_on_c, 1, 63, 95
3, 102332, Note_off_c, 1, 66, 100
3, 102332, Note_off_c, 1, 63, 100
3, 102480, Note_on_c, 1, 66, 88
3, 102480, Note_on_c, 1, 63, 88
3, 102524, Note_off_c, 1, 66, 100
3, 102524, Note_off_c, 1, 63, 100
3, 102528, Note_on_c, 1, 65, 87
3, 102528, Note_on_c, 1, 61, 87
3, 102716, Note_off_c, 1, 65, 100
3, 102716, Note_off_c, 1, 61, 100
3, 102864, Note_on_c, 1, 53, 80
3, 102864, Note_on_c, 1, 49, 80
3, 102908, Note_off_c, 1, 53, 100
3, 102908, Note_off_c, 1, 49, 100
3, 102912, Note_on_c, 1, 48, 80
3, 102912, Note_on_c, 1, 54, 80
3, 102912, Note_on_c, 1, 51, 80
3, 103100, Note_off_c, 1, 48, 100
3, 103100, Note_off_c, 1, 54, 100
3, 103100, Note_off_c, 1, 51, 100
3, 103248, Note_on_c, 1, 66, 89
3, 103248, Note_on_c, 1, 63, 89
3, 103292, Note_off_c, 1, 66, 100
3, 103292, Note_off_c, 1, 63, 100
3, 103296, Note_on_c, 1, 66, 91
3, 103296, Note_on_c, 1, 63, 91
3, 103484, Note_off_c, 1, 66, 100
3, 103484, Note_off_c, 1, 63, 100
3, 103632, Note_on_c, 1, 66, 80
3, 103632, Note_on_c, 1, 63, 80
3, 103676, Note_off_c, 1, 66, 100
3, 103676, Note_off_c, 1, 63, 100
3, 103680, Note_on_c, 1, 66, 95
3, 103680, Note_on_c, 1, 63, 95
3, 103868, Note_off_c, 1, 66, 100
3, 103868, Note_off_c, 1, 63, 100
3, 104016, Note_on_c, 1, 66, 88
3, 104016, Note_on_c, 1, 63, 88
3, 104060, Note_off_c, 1, 66, 100
3, 104060, Note_off_c, 1, 63, 100
3, 104064, Note_on_c, 1, 65, 87
3, 104064, Note_on_c, 1, 61, 87
3, 104252, Note_off_c, 1, 65, 100
3, 104252, Note_off_c, 1, 61, 100
3, 104400, Note_on_c, 1, 53, 80
3, 104400, Note_on_c, 1, 49, 80
3, 104444, Note_off_c, 1, 53, 100
3, 104444, Note_off_c, 1, 49, 100
3, 104448, Note_on_c, 1, 68, 80
3, 104448, Note_on_c, 1, 65, 80
3, 104448, Note_on_c, 1, 62, 80
3, 104636, Note_off_c, 1, 68, 100
3, 104636, Note_off_c, 1, 65, 100
3, 104636, Note_off_c, 1, 62, 100
3, 104784, Note_on_c, 1, 68, 80
3, 104784, Note_on_c, 1, 65, 80
3, 104828, Note_off_c, 1, 68, 100
3, 104828, Note_off_c, 1, 65, 100
3, 104832, Note_on_c, 1, 67, 80
3, 104832, Note_on_c, 1, 63, 80
3, 105020, Note_off_c, 1, 67, 100
3, 105020, Note_off_c, 1, 63, 100
3, 105168, Note_on_c, 1, 63, 80
3, 105168, Note_on_c, 1, 67, 80
3, 105212, Note_off_c, 1, 63, 100
3, 105212, Note_off_c, 1, 67, 100
3, 105216, Note_on_c, 1, 68, 80
3, 105216, Note_on_c, 1, 65, 80
3, 105404, Note_off_c, 1, 68, 100
3, 105404, Note_off_c, 1, 65, 100
3, 105552, Note_on_c, 1, 68, 80
3, 105552, Note_on_c, 1, 65, 80
3, 105596, Note_off_c, 1, 68, 100
3, 105596, Note_off_c, 1, 65, 100
3, 105600, Note_on_c, 1, 67, 80
3, 105600, Note_on_c, 1, 63, 80
3, 105788, Note_off_c, 1, 67, 100
3, 105788, Note_off_c, 1, 63, 100
3, 106368, Note_on_c, 1, 63, 80
3, 106460, Note_off_c, 1, 63, 100
3, 106464, Note_on_c, 1, 60, 80
3, 106556, Note_off_c, 1, 60, 100
3, 106560, Note_on_c, 1, 55, 80
3, 106652, Note_off_c, 1, 55, 100
3, 106656, Note_on_c, 1, 51, 80
3, 106748, Note_off_c, 1, 51, 100
3, 106752, Note_on_c, 1, 60, 80
3, 106844, Note_off_c, 1, 60, 100
3, 106848, Note_on_c, 1, 55, 80
3, 106940, Note_off_c, 1, 55, 100
3, 106944, Note_on_c, 1, 51, 80
3, 107036, Note_off_c, 1, 51, 100
3, 107040, Note_on_c, 1, 48, 80
3, 107132, Note_off_c, 1, 48, 100
3, 107136, Note_on_c, 1, 55, 80
3, 107228, Note_off_c, 1, 55, 100
3, 107232, Note_on_c, 1, 51, 80
3, 107324, Note_off_c, 1, 51, 100
3, 107328, Note_on_c, 1, 48, 80
3, 107420, Note_off_c, 1, 48, 100
3, 107424, Note_on_c, 1, 43, 80
3, 107516, Note_off_c, 1, 43, 100
3, 107520, Note_on_c, 1, 51, 80
3, 107612, Note_off_c, 1, 51, 100
3, 107616, Note_on_c, 1, 48, 80
3, 107708, Note_off_c, 1, 48, 100
3, 107712, Note_on_c, 1, 43, 80
3, 107804, Note_off_c, 1, 43, 100
3, 107808, Note_on_c, 1, 39, 80
3, 107900, Note_off_c, 1, 39, 100
3, 107904, Note_on_c, 1, 48, 80
3, 107996, Note_off_c, 1, 48, 100
3, 108000, Note_on_c, 1, 43, 80
3, 108092, Note_off_c, 1, 43, 100
3, 108096, Note_on_c, 1, 39, 80
3, 108188, Note_off_c, 1, 39, 100
3, 108192, Note_on_c, 1, 36, 80
3, 108284, Note_off_c, 1, 36, 100
3, 108288, Note_on_c, 1, 31, 80
3, 108380, Note_off_c, 1, 31, 100
3, 108384, Note_on_c, 1, 43, 80
3, 108476, Note_off_c, 1, 43, 100
3, 108480, Note_on_c, 1, 47, 80
3, 108572, Note_off_c, 1, 47, 100
3, 108576, Note_on_c, 1, 43, 80
3, 108668, Note_off_c, 1, 43, 100
3, 108672, Note_on_c, 1, 48, 90
3, 108764, Note_off_c, 1, 48, 100
3, 108768, Note_on_c, 1, 43, 80
3, 108860, Note_off_c, 1, 43, 100
3, 108864, Note_on_c, 1, 39, 80
3, 108956, Note_off_c, 1, 39, 100
3, 108960, Note_on_c, 1, 36, 80
3, 109052, Note_off_c, 1, 36, 100
3, 109056, Note_on_c, 1, 31, 80
3, 109148, Note_off_c, 1, 31, 100
3, 109152, Note_on_c, 1, 43, 80
3, 109244, Note_off_c, 1, 43, 100
3, 109248, Note_on_c, 1, 47, 80
3, 109340, Note_off_c, 1, 47, 100
3, 109344, Note_on_c, 1, 43, 80
3, 109436, Note_off_c, 1, 43, 100
3, 109440, Note_on_c, 1, 48, 90
3, 109532, Note_off_c, 1, 48, 100
3, 109536, Note_on_c, 1, 43, 80
3, 109628, Note_off_c, 1, 43, 100
3, 109632, Note_on_c, 1, 39, 80
3, 109724, Note_off_c, 1, 39, 100
3, 109728, Note_on_c, 1, 36, 80
3, 109820, Note_off_c, 1, 36, 100
3, 109824, Note_on_c, 1, 31, 80
3, 109916, Note_off_c, 1, 31, 100
3, 109920, Note_on_c, 1, 33, 81
3, 110012, Note_off_c, 1, 33, 100
3, 110016, Note_on_c, 1, 35, 82
3, 110108, Note_off_c, 1, 35, 100
3, 110112, Note_on_c, 1, 36, 83
3, 110204, Note_off_c, 1, 36, 100
3, 110208, Note_on_c, 1, 38, 85
3, 110300, Note_off_c, 1, 38, 100
3, 110304, Note_on_c, 1, 40, 86
3, 110396, Note_off_c, 1, 40, 100
3, 110400, Note_on_c, 1, 41, 87
3, 110492, Note_off_c, 1, 41, 100
3, 110496, Note_on_c, 1, 42, 89
3, 110588, Note_off_c, 1, 42, 100
3, 110592, Note_on_c, 1, 43, 90
3, 110684, Note_off_c, 1, 43, 100
3, 110688, Note_on_c, 1, 45, 91
3, 110780, Note_off_c, 1, 45, 100
3, 110784, Note_on_c, 1, 46, 93
3, 110876, Note_off_c, 1, 46, 100
3, 110880, Note_on_c, 1, 47, 94
3, 110972, Note_off_c, 1, 47, 100
3, 110976, Note_on_c, 1, 48, 95
3, 111068, Note_off_c, 1, 48, 100
3, 111072, Note_on_c, 1, 49, 97
3, 111164, Note_off_c, 1, 49, 100
3, 111168, Note_on_c, 1, 50, 98
3, 111260, Note_off_c, 1, 50, 100
3, 111264, Note_on_c, 1, 51, 99
3, 111356, Note_off_c, 1, 51, 100
3, 111456, Note_on_c, 1, 36, 80
3, 111548, Note_off_c, 1, 36, 100
3, 111552, Note_on_c, 1, 40, 80
3, 111644, Note_off_c, 1, 40, 100
3, 111648, Note_on_c, 1, 43, 80
3, 111740, Note_off_c, 1, 43, 100
3, 111744, Note_on_c, 1, 48, 80
3, 111836, Note_off_c, 1, 48, 100
3, 111840, Note_on_c, 1, 36, 80
3, 111932, Note_off_c, 1, 36, 100
3, 111936, Note_on_c, 1, 38, 80
3, 112028, Note_off_c, 1, 38, 100
3, 112032, Note_on_c, 1, 50, 80
3, 112124, Note_off_c, 1, 50, 100
3, 112224, Note_on_c, 1, 40, 80
3, 112316, Note_off_c, 1, 40, 100
3, 112320, Note_on_c, 1, 43, 80
3, 112412, Note_off_c, 1, 43, 100
3, 112416, Note_on_c, 1, 48, 80
3, 112508, Note_off_c, 1, 48, 100
3, 112512, Note_on_c, 1, 52, 80
3, 112604, Note_off_c, 1, 52, 100
3, 112608, Note_on_c, 1, 40, 80
3, 112700, Note_off_c, 1, 40, 100
3, 112704, Note_on_c, 1, 41, 80
3, 112796, Note_off_c, 1, 41, 100
3, 112800, Note_on_c, 1, 53, 80
3, 112892, Note_off_c, 1, 53, 100
3, 112896, Note_on_c, 1, 38, 80
3, 112988, Note_off_c, 1, 38, 100
3, 112992, Note_on_c, 1, 50, 80
3, 113084, Note_off_c, 1, 50, 100
3, 113088, Note_on_c, 1, 35, 80
3, 113180, Note_off_c, 1, 35, 100
3, 113184, Note_on_c, 1, 47, 80
3, 113276, Note_off_c, 1, 47, 100
3, 113280, Note_on_c, 1, 36, 80
3, 113372, Note_off_c, 1, 36, 100
3, 113376, Note_on_c, 1, 48, 80
3, 113468, Note_off_c, 1, 48, 100
3, 113472, Note_on_c, 1, 40, 80
3, 113564, Note_off_c, 1, 40, 100
3, 113568, Note_on_c, 1, 52, 80
3, 113660, Note_off_c, 1, 52, 100
3, 113664, Note_on_c, 1, 43, 80
3, 113756, Note_off_c, 1, 43, 100
3, 113760, Note_on_c, 1, 55, 80
3, 113852, Note_off_c, 1, 55, 100
3, 113856, Note_on_c, 1, 55, 80
3, 113948, Note_off_c, 1, 55, 100
3, 113952, Note_on_c, 1, 55, 80
3, 114044, Note_off_c, 1, 55, 100
3, 114048, Note_on_c, 1, 55, 80
3, 114140, Note_off_c, 1, 55, 100
3, 114144, Note_on_c, 1, 53, 80
3, 114236, Note_off_c, 1, 53, 100
3, 114240, Note_on_c, 1, 52, 80
3, 114332, Note_off_c, 1, 52, 100
3, 114336, Note_on_c, 1, 50, 80
3, 114428, Note_off_c, 1, 50, 100
3, 114528, Note_on_c, 1, 48, 81
3, 114620, Note_off_c, 1, 48, 100
3, 114624, Note_on_c, 1, 52, 83
3, 114716, Note_off_c, 1, 52, 100
3, 114720, Note_on_c, 1, 55, 84
3, 114812, Note_off_c, 1, 55, 100
3, 114816, Note_on_c, 1, 60, 85
3, 114908, Note_off_c, 1, 60, 100
3, 114912, Note_on_c, 1, 48, 86
3, 115004, Note_off_c, 1, 48, 100
3, 115008, Note_on_c, 1, 50, 88
3, 115100, Note_off_c, 1, 50, 100
3, 115104, Note_on_c, 1, 62, 89
3, 115196, Note_off_c, 1, 62, 100
3, 115296, Note_on_c, 1, 52, 91
3, 115388, Note_off_c, 1, 52, 100
3, 115392, Note_on_c, 1, 55, 92
3, 115484, Note_off_c, 1, 55, 100
3, 115488, Note_on_c, 1, 60, 94
3, 115580, Note_off_c, 1, 60, 100
3, 115584, Note_on_c, 1, 64, 95
3, 115676, Note_off_c, 1, 64, 100
3, 115680, Note_on_c, 1, 52, 96
3, 115772, Note_off_c, 1, 52, 100
3, 115776, Note_on_c, 1, 53, 97
3, 115868, Note_off_c, 1, 53, 100
3, 115872, Note_on_c, 1, 65, 99
3, 115964, Note_off_c, 1, 65, 100
3, 116064, Note_on_c, 1, 55, 80
3, 116156, Note_off_c, 1, 55, 100
3, 116160, Note_on_c, 1, 60, 80
3, 116252, Note_off_c, 1, 60, 100
3, 116256, Note_on_c, 1, 64, 80
3, 116348, Note_off_c, 1, 64, 100
3, 116352, Note_on_c, 1, 67, 80
3, 116444, Note_off_c, 1, 67, 100
3, 116448, Note_on_c, 1, 55, 80
3, 116540, Note_off_c, 1, 55, 100
3, 116544, Note_on_c, 1, 56, 80
3, 116636, Note_off_c, 1, 56, 100
3, 116640, Note_on_c, 1, 68, 80
3, 116732, Note_off_c, 1, 68, 100
3, 116832, Note_on_c, 1, 58, 80
3, 116924, Note_off_c, 1, 58, 100
3, 116928, Note_on_c, 1, 61, 80
3, 117020, Note_off_c, 1, 61, 100
3, 117024, Note_on_c, 1, 64, 80
3, 117116, Note_off_c, 1, 64, 100
3, 117216, Note_on_c, 1, 58, 80
3, 117308, Note_off_c, 1, 58, 100
3, 117312, Note_on_c, 1, 61, 80
3, 117404, Note_off_c, 1, 61, 100
3, 117408, Note_on_c, 1, 64, 80
3, 117500, Note_off_c, 1, 64, 100
3, 117600, Note_on_c, 1, 58, 80
3, 117692, Note_off_c, 1, 58, 100
3, 117696, Note_on_c, 1, 61, 80
3, 117788, Note_off_c, 1, 61, 100
3, 117792, Note_on_c, 1, 64, 100
3, 117884, Note_off_c, 1, 64, 100
3, 117984, Note_on_c, 1, 58, 100
3, 118076, Note_off_c, 1, 58, 100
3, 118080, Note_on_c, 1, 61, 100
3, 118172, Note_off_c, 1, 61, 100
3, 118176, Note_on_c, 1, 64, 100
3, 118268, Note_off_c, 1, 64, 100
3, 118368, Note_on_c, 1, 58, 100
3, 118460, Note_off_c, 1, 58, 100
3, 118464, Note_on_c, 1, 61, 80
3, 118556, Note_off_c, 1, 61, 100
3, 118560, Note_on_c, 1, 64, 80
3, 118652, Note_off_c, 1, 64, 100
3, 118752, Note_on_c, 1, 58, 80
3, 118844, Note_off_c, 1, 58, 100
3, 118848, Note_on_c, 1, 61, 80
3, 118940, Note_off_c, 1, 61, 100
3, 118944, Note_on_c, 1, 64, 80
3, 119036, Note_off_c, 1, 64, 100
3, 119136, Note_on_c, 1, 58, 80
3, 119228, Note_off_c, 1, 58, 100
3, 119232, Note_on_c, 1, 61, 80
3, 119324, Note_off_c, 1, 61, 100
3, 119328, Note_on_c, 1, 64, 100
3, 119420, Note_off_c, 1, 64, 100
3, 119520, Note_on_c, 1, 58, 100
3, 119612, Note_off_c, 1, 58, 100
3, 119616, Note_on_c, 1, 61, 100
3, 119708, Note_off_c, 1, 61, 100
3, 119712, Note_on_c, 1, 64, 100
3, 119804, Note_off_c, 1, 64, 100
3, 119904, Note_on_c, 1, 58, 100
3, 119996, Note_off_c, 1, 58, 100
3, 120000, Note_on_c, 1, 61, 80
3, 120092, Note_off_c, 1, 61, 100
3, 120096, Note_on_c, 1, 63, 80
3, 120188, Note_off_c, 1, 63, 100
3, 120288, Note_on_c, 1, 58, 80
3, 120380, Note_off_c, 1, 58, 100
3, 120384, Note_on_c, 1, 61, 80
3, 120476, Note_off_c, 1, 61, 100
3, 120480, Note_on_c, 1, 64, 80
3, 120572, Note_off_c, 1, 64, 100
3, 120672, Note_on_c, 1, 58, 80
3, 120764, Note_off_c, 1, 58, 100
3, 120768, Note_on_c, 1, 61, 80
3, 120860, Note_off_c, 1, 61, 100
3, 120864, Note_on_c, 1, 63, 80
3, 120956, Note_off_c, 1, 63, 100
3, 121056, Note_on_c, 1, 58, 80
3, 121148, Note_off_c, 1, 58, 100
3, 121152, Note_on_c, 1, 61, 80
3, 121244, Note_off_c, 1, 61, 100
3, 121248, Note_on_c, 1, 64, 80
3, 121340, Note_off_c, 1, 64, 100
3, 121440, Note_on_c, 1, 61, 80
3, 121440, Note_on_c, 1, 58, 80
3, 121440, Note_on_c, 1, 63, 80
3, 121532, Note_off_c, 1, 61, 100
3, 121532, Note_off_c, 1, 58, 100
3, 121532, Note_off_c, 1, 63, 100
3, 122208, Note_on_c, 1, 39, 80
3, 122300, Note_off_c, 1, 39, 100
3, 122976, Note_on_c, 1, 39, 80
3, 123068, Note_off_c, 1, 39, 100
3, 123072, Note_on_c, 1, 58, 80
3, 123164, Note_off_c, 1, 58, 100
3, 123168, Note_on_c, 1, 56, 80
3, 123260, Note_off_c, 1, 56, 100
3, 123264, Note_on_c, 1, 55, 80
3, 123356, Note_off_c, 1, 55, 100
3, 123360, Note_on_c, 1, 53, 80
3, 123452, Note_off_c, 1, 53, 100
3, 123456, Note_on_c, 1, 51, 80
3, 123548, Note_off_c, 1, 51, 100
3, 123552, Note_on_c, 1, 50, 80
3, 123644, Note_off_c, 1, 50, 100
3, 123648, Note_on_c, 1, 51, 80
3, 123740, Note_off_c, 1, 51, 100
3, 123744, Note_on_c, 1, 39, 80
3, 123836, Note_off_c, 1, 39, 100
3, 123840, Note_on_c, 1, 61, 80
3, 123932, Note_off_c, 1, 61, 100
3, 123936, Note_on_c, 1, 60, 80
3, 124028, Note_off_c, 1, 60, 100
3, 124032, Note_on_c, 1, 58, 80
3, 124124, Note_off_c, 1, 58, 100
3, 124128, Note_on_c, 1, 56, 80
3, 124220, Note_off_c, 1, 56, 100
3, 124224, Note_on_c, 1, 55, 80
3, 124316, Note_off_c, 1, 55, 100
3, 124320, Note_on_c, 1, 53, 80
3, 124412, Note_off_c, 1, 53, 100
3, 124416, Note_on_c, 1, 51, 80
3, 124508, Note_off_c, 1, 51, 100
3, 124512, Note_on_c, 1, 39, 80
3, 124604, Note_off_c, 1, 39, 100
3, 124608, Note_on_c, 1, 61, 80
3, 124700, Note_off_c, 1, 61, 100
3, 124704, Note_on_c, 1, 60, 80
3, 124796, Note_off_c, 1, 60, 100
3, 124800, Note_on_c, 1, 58, 80
3, 124892, Note_off_c, 1, 58, 100
3, 124896, Note_on_c, 1, 56, 80
3, 124988, Note_off_c, 1, 56, 100
3, 124992, Note_on_c, 1, 55, 80
3, 125084, Note_off_c, 1, 55, 100
3, 125088, Note_on_c, 1, 53, 80
3, 125180, Note_off_c, 1, 53, 100
3, 125184, Note_on_c, 1, 51, 80
3, 125276, Note_off_c, 1, 51, 100
3, 125280, Note_on_c, 1, 50, 80
3, 125372, Note_off_c, 1, 50, 100
3, 125376, Note_on_c, 1, 49, 80
3, 125468, Note_off_c, 1, 49, 100
3, 125472, Note_on_c, 1, 48, 80
3, 125564, Note_off_c, 1, 48, 100
3, 125568, Note_on_c, 1, 46, 80
3, 125660, Note_off_c, 1, 46, 100
3, 125664, Note_on_c, 1, 44, 80
3, 125756, Note_off_c, 1, 44, 100
3, 125760, Note_on_c, 1, 43, 80
3, 125852, Note_off_c, 1, 43, 100
3, 125856, Note_on_c, 1, 41, 80
3, 125948, Note_off_c, 1, 41, 100
3, 126816, Note_on_c, 1, 50, 80
3, 126908, Note_off_c, 1, 50, 100
3, 126912, Note_on_c, 1, 49, 80
3, 127004, Note_off_c, 1, 49, 100
3, 127008, Note_on_c, 1, 48, 80
3, 127100, Note_off_c, 1, 48, 100
3, 127104, Note_on_c, 1, 46, 80
3, 127196, Note_off_c, 1, 46, 100
3, 127200, Note_on_c, 1, 44, 80
3, 127292, Note_off_c, 1, 44, 100
3, 127296, Note_on_c, 1, 43, 80
3, 127388, Note_off_c, 1, 43, 100
3, 127392, Note_on_c, 1, 41, 80
3, 127484, Note_off_c, 1, 41, 100
3, 127488, Note_on_c, 1, 40, 80
3, 127676, Note_off_c, 1, 40, 100
3, 127680, Note_on_c, 1, 39, 80
3, 127868, Note_off_c, 1, 39, 100
3, 127872, Note_on_c, 1, 38, 80
3, 128060, Note_off_c, 1, 38, 100
3, 128064, Note_on_c, 1, 37, 80
3, 128252, Note_off_c, 1, 37, 100
3, 128256, Note_on_c, 1, 36, 80
3, 128444, Note_off_c, 1, 36, 100
3, 128448, Note_on_c, 1, 35, 80
3, 128636, Note_off_c, 1, 35, 100
3, 128640, Note_on_c, 1, 34, 80
3, 128828, Note_off_c, 1, 34, 100
3, 128832, Note_on_c, 1, 33, 80
3, 129020, Note_off_c, 1, 33, 100
3, 129120, Note_on_c, 1, 32, 80
3, 129212, Note_off_c, 1, 32, 100
3, 129216, Note_on_c, 1, 36, 80
3, 129308, Note_off_c, 1, 36, 100
3, 129312, Note_on_c, 1, 39, 80
3, 129404, Note_off_c, 1, 39, 100
3, 129408, Note_on_c, 1, 44, 80
3, 129500, Note_off_c, 1, 44, 100
3, 129504, Note_on_c, 1, 32, 80
3, 129596, Note_off_c, 1, 32, 100
3, 129600, Note_on_c, 1, 34, 80
3, 129692, Note_off_c, 1, 34, 100
3, 129696, Note_on_c, 1, 46, 80
3, 129788, Note_off_c, 1, 46, 100
3, 129888, Note_on_c, 1, 36, 80
3, 129980, Note_off_c, 1, 36, 100
3, 129984, Note_on_c, 1, 39, 80
3, 130076, Note_off_c, 1, 39, 100
3, 130080, Note_on_c, 1, 44, 80
3, 130172, Note_off_c, 1, 44, 100
3, 130176, Note_on_c, 1, 48, 80
3, 130268, Note_off_c, 1, 48, 100
3, 130272, Note_on_c, 1, 36, 80
3, 130364, Note_off_c, 1, 36, 100
3, 130368, Note_on_c, 1, 37, 80
3, 130460, Note_off_c, 1, 37, 100
3, 130464, Note_on_c, 1, 49, 80
3, 130556, Note_off_c, 1, 49, 100
3, 130560, Note_on_c, 1, 34, 80
3, 130652, Note_off_c, 1, 34, 100
3, 130656, Note_on_c, 1, 46, 80
3, 130748, Note_off_c, 1, 46, 100
3, 130752, Note_on_c, 1, 31, 80
3, 130844, Note_off_c, 1, 31, 100
3, 130848, Note_on_c, 1, 43, 80
3, 130940, Note_off_c, 1, 43, 100
3, 130944, Note_on_c, 1, 32, 80
3, 131036, Note_off_c, 1, 32, 100
3, 131040, Note_on_c, 1, 44, 80
3, 131132, Note_off_c, 1, 44, 100
3, 131136, Note_on_c, 1, 36, 80
3, 131228, Note_off_c, 1, 36, 100
3, 131232, Note_on_c, 1, 48, 80
3, 131324, Note_off_c, 1, 48, 100
3, 131328, Note_on_c, 1, 39, 80
3, 131420, Note_off_c, 1, 39, 100
3, 131424, Note_on_c, 1, 51, 80
3, 131516, Note_off_c, 1, 51, 100
3, 131520, Note_on_c, 1, 51, 80
3, 131612, Note_off_c, 1, 51, 100
3, 131616, Note_on_c, 1, 51, 80
3, 131708, Note_off_c, 1, 51, 100
3, 131712, Note_on_c, 1, 51, 80
3, 131804, Note_off_c, 1, 51, 100
3, 131808, Note_on_c, 1, 49, 80
3, 131900, Note_off_c, 1, 49, 100
3, 131904, Note_on_c, 1, 48, 80
3, 131996, Note_off_c, 1, 48, 100
3, 132000, Note_on_c, 1, 46, 80
3, 132092, Note_off_c, 1, 46, 100
3, 132096, Note_on_c, 1, 44, 80
3, 132188, Note_off_c, 1, 44, 100
3, 132192, Note_on_c, 1, 32, 80
3, 132284, Note_off_c, 1, 32, 100
3, 132288, Note_on_c, 1, 36, 80
3, 132380, Note_off_c, 1, 36, 100
3, 132384, Note_on_c, 1, 39, 80
3, 132476, Note_off_c, 1, 39, 100
3, 132480, Note_on_c, 1, 44, 80
3, 132572, Note_off_c, 1, 44, 100
3, 132576, Note_on_c, 1, 32, 80
3, 132668, Note_off_c, 1, 32, 100
3, 132672, Note_on_c, 1, 34, 80
3, 132764, Note_off_c, 1, 34, 100
3, 132768, Note_on_c, 1, 46, 80
3, 132860, Note_off_c, 1, 46, 100
3, 132960, Note_on_c, 1, 36, 80
3, 133052, Note_off_c, 1, 36, 100
3, 133056, Note_on_c, 1, 39, 80
3, 133148, Note_off_c, 1, 39, 100
3, 133152, Note_on_c, 1, 44, 80
3, 133244, Note_off_c, 1, 44, 100
3, 133248, Note_on_c, 1, 48, 80
3, 133340, Note_off_c, 1, 48, 100
3, 133344, Note_on_c, 1, 36, 80
3, 133436, Note_off_c, 1, 36, 100
3, 133440, Note_on_c, 1, 37, 80
3, 133532, Note_off_c, 1, 37, 100
3, 133536, Note_on_c, 1, 49, 80
3, 133628, Note_off_c, 1, 49, 100
3, 133632, Note_on_c, 1, 34, 80
3, 133724, Note_off_c, 1, 34, 100
3, 133728, Note_on_c, 1, 46, 80
3, 133820, Note_off_c, 1, 46, 100
3, 133824, Note_on_c, 1, 31, 80
3, 133916, Note_off_c, 1, 31, 100
3, 133920, Note_on_c, 1, 43, 80
3, 134012, Note_off_c, 1, 43, 100
3, 134016, Note_on_c, 1, 32, 80
3, 134108, Note_off_c, 1, 32, 100
3, 134112, Note_on_c, 1, 44, 80
3, 134204, Note_off_c, 1, 44, 100
3, 134208, Note_on_c, 1, 36, 80
3, 134300, Note_off_c, 1, 36, 100
3, 134304, Note_on_c, 1, 48, 80
3, 134396, Note_off_c, 1, 48, 100
3, 134400, Note_on_c, 1, 39, 80
3, 134492, Note_off_c, 1, 39, 100
3, 134496, Note_on_c, 1, 39, 80
3, 134588, Note_off_c, 1, 39, 100
3, 134592, Note_on_c, 1, 43, 80
3, 134684, Note_off_c, 1, 43, 100
3, 134688, Note_on_c, 1, 39, 80
3, 134780, Note_off_c, 1, 39, 100
3, 134784, Note_on_c, 1, 44, 80
3, 134784, Note_on_c, 1, 32, 80
3, 134972, Note_off_c, 1, 44, 100
3, 134972, Note_off_c, 1, 32, 100
3, 134976, Note_on_c, 1, 68, 80
3, 134976, Note_on_c, 1, 56, 80
3, 135164, Note_off_c, 1, 68, 100
3, 135164, Note_off_c, 1, 56, 100
3, 135168, Note_on_c, 1, 67, 80
3, 135168, Note_on_c, 1, 63, 80
3, 135548, Note_off_c, 1, 67, 100
3, 135548, Note_off_c, 1, 63, 100
3, 135552, Note_on_c, 1, 68, 80
3, 135552, Note_on_c, 1, 56, 80
3, 135740, Note_off_c, 1, 68, 100
3, 135740, Note_off_c, 1, 56, 100
3, 135744, Note_on_c, 1, 60, 70
3, 135932, Note_off_c, 1, 60, 100
3, 135936, Note_on_c, 1, 58, 70
3, 136268, Note_off_c, 1, 58, 100
3, 136272, Note_on_c, 1, 56, 70
3, 136316, Note_off_c, 1, 56, 100
3, 136320, Note_on_c, 1, 55, 70
3, 136460, Note_off_c, 1, 55, 100
3, 136512, Note_on_c, 1, 53, 70
3, 136652, Note_off_c, 1, 53, 100
3, 136704, Note_on_c, 1, 52, 70
3, 137084, Note_off_c, 1, 52, 100
3, 137280, Note_on_c, 1, 53, 70
3, 137328, Note_on_c, 1, 55, 70
3, 137372, Note_off_c, 1, 53, 100
3, 137376, Note_on_c, 1, 52, 70
3, 137420, Note_off_c, 1, 55, 100
3, 137424, Note_on_c, 1, 53, 70
3, 137468, Note_off_c, 1, 52, 100
3, 137468, Note_off_c, 1, 53, 100
3, 137472, Note_on_c, 1, 55, 70
3, 137804, Note_off_c, 1, 55, 100
3, 137808, Note_on_c, 1, 53, 70
3, 137852, Note_off_c, 1, 53, 100
3, 137856, Note_on_c, 1, 52, 70
3, 138044, Note_off_c, 1, 52, 100
3, 138048, Note_on_c, 1, 50, 70
3, 138188, Note_off_c, 1, 50, 100
3, 138240, Note_on_c, 1, 48, 70
3, 138620, Note_off_c, 1, 48, 100
3, 138960, Note_on_c, 1, 48, 70
3, 139004, Note_off_c, 1, 48, 100
3, 139008, Note_on_c, 1, 48, 70
3, 139196, Note_off_c, 1, 48, 100
3, 139344, Note_on_c, 1, 48, 70
3, 139388, Note_off_c, 1, 48, 100
3, 139392, Note_on_c, 1, 48, 70
3, 139580, Note_off_c, 1, 48, 100
3, 139728, Note_on_c, 1, 48, 70
3, 139772, Note_off_c, 1, 48, 100
3, 139776, Note_on_c, 1, 48, 70
3, 140156, Note_off_c, 1, 48, 100
3, 140496, Note_on_c, 1, 49, 70
3, 140540, Note_off_c, 1, 49, 100
3, 140544, Note_on_c, 1, 49, 71
3, 140732, Note_off_c, 1, 49, 100
3, 140880, Note_on_c, 1, 49, 84
3, 140924, Note_off_c, 1, 49, 100
3, 140928, Note_on_c, 1, 49, 85
3, 141116, Note_off_c, 1, 49, 100
3, 141264, Note_on_c, 1, 49, 98
3, 141308, Note_off_c, 1, 49, 100
3, 141312, Note_on_c, 1, 49, 99
3, 141692, Note_off_c, 1, 49, 100
3, 142032, Note_on_c, 1, 49, 110
3, 142076, Note_off_c, 1, 49, 100
3, 142080, Note_on_c, 1, 49, 110
3, 142460, Note_off_c, 1, 49, 100
3, 142464, Note_on_c, 1, 46, 110
3, 142652, Note_off_c, 1, 46, 100
3, 142656, Note_on_c, 1, 43, 110
3, 142844, Note_off_c, 1, 43, 100
3, 142848, Note_on_c, 1, 39, 110
3, 144188, Note_off_c, 1, 39, 100
3, 144480, Note_on_c, 1, 32, 80
3, 144572, Note_off_c, 1, 32, 100
3, 144576, Note_on_c, 1, 36, 80
3, 144668, Note_off_c, 1, 36, 100
3, 144672, Note_on_c, 1, 39, 80
3, 144764, Note_off_c, 1, 39, 100
3, 144768, Note_on_c, 1, 44, 80
3, 144860, Note_off_c, 1, 44, 100
3, 144864, Note_on_c, 1, 43, 80
3, 144956, Note_off_c, 1, 43, 100
3, 144960, Note_on_c, 1, 44, 80
3, 145052, Note_off_c, 1, 44, 100
3, 145056, Note_on_c, 1, 46, 80
3, 145148, Note_off_c, 1, 46, 100
3, 145152, Note_on_c, 1, 48, 80
3, 145244, Note_off_c, 1, 48, 100
3, 145248, Note_on_c, 1, 36, 80
3, 145340, Note_off_c, 1, 36, 100
3, 145344, Note_on_c, 1, 39, 80
3, 145436, Note_off_c, 1, 39, 100
3, 145440, Note_on_c, 1, 44, 80
3, 145532, Note_off_c, 1, 44, 100
3, 145536, Note_on_c, 1, 48, 80
3, 145628, Note_off_c, 1, 48, 100
3, 145632, Note_on_c, 1, 47, 80
3, 145724, Note_off_c, 1, 47, 100
3, 145728, Note_on_c, 1, 48, 80
3, 145820, Note_off_c, 1, 48, 100
3, 145824, Note_on_c, 1, 49, 80
3, 145916, Note_off_c, 1, 49, 100
3, 145920, Note_on_c, 1, 34, 80
3, 146012, Note_off_c, 1, 34, 100
3, 146016, Note_on_c, 1, 46, 80
3, 146108, Note_off_c, 1, 46, 100
3, 146112, Note_on_c, 1, 31, 80
3, 146204, Note_off_c, 1, 31, 100
3, 146208, Note_on_c, 1, 43, 80
3, 146300, Note_off_c, 1, 43, 100
3, 146304, Note_on_c, 1, 32, 80
3, 146396, Note_off_c, 1, 32, 100
3, 146400, Note_on_c, 1, 44, 80
3, 146492, Note_off_c, 1, 44, 100
3, 146496, Note_on_c, 1, 36, 80
3, 146588, Note_off_c, 1, 36, 100
3, 146592, Note_on_c, 1, 48, 80
3, 146684, Note_off_c, 1, 48, 100
3, 146688, Note_on_c, 1, 39, 80
3, 146780, Note_off_c, 1, 39, 100
3, 146784, Note_on_c, 1, 51, 80
3, 146876, Note_off_c, 1, 51, 100
3, 146880, Note_on_c, 1, 51, 80
3, 146972, Note_off_c, 1, 51, 100
3, 146976, Note_on_c, 1, 51, 80
3, 147068, Note_off_c, 1, 51, 100
3, 147072, Note_on_c, 1, 51, 80
3, 147164, Note_off_c, 1, 51, 100
3, 147168, Note_on_c, 1, 49, 80
3, 147260, Note_off_c, 1, 49, 100
3, 147264, Note_on_c, 1, 48, 80
3, 147356, Note_off_c, 1, 48, 100
3, 147360, Note_on_c, 1, 46, 80
3, 147452, Note_off_c, 1, 46, 100
3, 147456, Note_on_c, 1, 44, 80
3, 147548, Note_off_c, 1, 44, 100
3, 147552, Note_on_c, 1, 32, 80
3, 147644, Note_off_c, 1, 32, 100
3, 147648, Note_on_c, 1, 44, 80
3, 147740, Note_off_c, 1, 44, 100
3, 147744, Note_on_c, 1, 43, 80
3, 147836, Note_off_c, 1, 43, 100
3, 147840, Note_on_c, 1, 44, 80
3, 147932, Note_off_c, 1, 44, 100
3, 147936, Note_on_c, 1, 43, 80
3, 148028, Note_off_c, 1, 43, 100
3, 148032, Note_on_c, 1, 44, 80
3, 148124, Note_off_c, 1, 44, 100
3, 148128, Note_on_c, 1, 46, 80
3, 148220, Note_off_c, 1, 46, 100
3, 148224, Note_on_c, 1, 48, 80
3, 148316, Note_off_c, 1, 48, 100
3, 148320, Note_on_c, 1, 36, 80
3, 148412, Note_off_c, 1, 36, 100
3, 148416, Note_on_c, 1, 48, 80
3, 148508, Note_off_c, 1, 48, 100
3, 148512, Note_on_c, 1, 47, 80
3, 148604, Note_off_c, 1, 47, 100
3, 148608, Note_on_c, 1, 48, 80
3, 148700, Note_off_c, 1, 48, 100
3, 148704, Note_on_c, 1, 47, 80
3, 148796, Note_off_c, 1, 47, 100
3, 148800, Note_on_c, 1, 48, 80
3, 148892, Note_off_c, 1, 48, 100
3, 148896, Note_on_c, 1, 49, 80
3, 148988, Note_off_c, 1, 49, 100
3, 148992, Note_on_c, 1, 34, 80
3, 149084, Note_off_c, 1, 34, 100
3, 149088, Note_on_c, 1, 46, 80
3, 149180, Note_off_c, 1, 46, 100
3, 149184, Note_on_c, 1, 31, 80
3, 149276, Note_off_c, 1, 31, 100
3, 149280, Note_on_c, 1, 43, 80
3, 149372, Note_off_c, 1, 43, 100
3, 149376, Note_on_c, 1, 32, 80
3, 149468, Note_off_c, 1, 32, 100
3, 149472, Note_on_c, 1, 44, 80
3, 149564, Note_off_c, 1, 44, 100
3, 149568, Note_on_c, 1, 36, 80
3, 149660, Note_off_c, 1, 36, 100
3, 149664, Note_on_c, 1, 48, 80
3, 149756, Note_off_c, 1, 48, 100
3, 149760, Note_on_c, 1, 39, 80
3, 149852, Note_off_c, 1, 39, 100
3, 149856, Note_on_c, 1, 39, 80
3, 149948, Note_off_c, 1, 39, 100
3, 149952, Note_on_c, 1, 43, 80
3, 150044, Note_off_c, 1, 43, 100
3, 150048, Note_on_c, 1, 39, 80
3, 150140, Note_off_c, 1, 39, 100
3, 150144, Note_on_c, 1, 44, 80
3, 150144, Note_on_c, 1, 32, 80
3, 150332, Note_off_c, 1, 44, 100
3, 150332, Note_off_c, 1, 32, 100
3, 150336, Note_on_c, 1, 68, 80
3, 150336, Note_on_c, 1, 56, 80
3, 150524, Note_off_c, 1, 68, 100
3, 150524, Note_off_c, 1, 56, 100
3, 150528, Note_on_c, 1, 67, 80
3, 150528, Note_on_c, 1, 63, 80
3, 150908, Note_off_c, 1, 67, 100
3, 150908, Note_off_c, 1, 63, 100
3, 150912, Note_on_c, 1, 68, 80
3, 150912, Note_on_c, 1, 56, 80
3, 151100, Note_off_c, 1, 68, 100
3, 151100, Note_off_c, 1, 56, 100
3, 151104, Note_on_c, 1, 72, 70
3, 151292, Note_off_c, 1, 72, 100
3, 151296, Note_on_c, 1, 70, 70
3, 151628, Note_off_c, 1, 70, 100
3, 151632, Note_on_c, 1, 68, 70
3, 151676, Note_off_c, 1, 68, 100
3, 151680, Note_on_c, 1, 67, 70
3, 151820, Note_off_c, 1, 67, 100
3, 151872, Note_on_c, 1, 65, 70
3, 152012, Note_off_c, 1, 65, 100
3, 152064, Note_on_c, 1, 64, 70
3, 152444, Note_off_c, 1, 64, 100
3, 152640, Note_on_c, 1, 65, 70
3, 152688, Note_on_c, 1, 67, 70
3, 152732, Note_off_c, 1, 65, 100
3, 152736, Note_on_c, 1, 64, 70
3, 152780, Note_off_c, 1, 67, 100
3, 152784, Note_on_c, 1, 65, 70
3, 152828, Note_off_c, 1, 64, 100
3, 152828, Note_off_c, 1, 65, 100
3, 152832, Note_on_c, 1, 67, 70
3, 153164, Note_off_c, 1, 67, 100
3, 153168, Note_on_c, 1, 65, 70
3, 153212, Note_off_c, 1, 65, 100
3, 153216, Note_on_c, 1, 64, 70
3, 153404, Note_off_c, 1, 64, 100
3, 153408, Note_on_c, 1, 62, 70
3, 153548, Note_off_c, 1, 62, 100
3, 153600, Note_on_c, 1, 60, 70
3, 153980, Note_off_c, 1, 60, 100
3, 154320, Note_on_c, 1, 60, 70
3, 154364, Note_off_c, 1, 60, 100
3, 154368, Note_on_c, 1, 60, 70
3, 154556, Note_off_c, 1, 60, 100
3, 154704, Note_on_c, 1, 60, 70
3, 154748, Note_off_c, 1, 60, 100
3, 154752, Note_on_c, 1, 60, 70
3, 154940, Note_off_c, 1, 60, 100
3, 155088, Note_on_c, 1, 60, 70
3, 155132, Note_off_c, 1, 60, 100
3, 155136, Note_on_c, 1, 60, 70
3, 155516, Note_off_c, 1, 60, 100
3, 155856, Note_on_c, 1, 49, 120
3, 155856, Note_on_c, 1, 37, 120
3, 155900, Note_off_c, 1, 49, 100
3, 155900, Note_off_c, 1, 37, 100
3, 155904, Note_on_c, 1, 49, 120
3, 155904, Note_on_c, 1, 37, 120
3, 156092, Note_off_c, 1, 49, 100
3, 156092, Note_off_c, 1, 37, 100
3, 156096, Note_on_c, 1, 58, 80
3, 156188, Note_off_c, 1, 58, 100
3, 156192, Note_on_c, 1, 61, 80
3, 156284, Note_off_c, 1, 61, 100
3, 156288, Note_on_c, 1, 59, 80
3, 156380, Note_off_c, 1, 59, 100
3, 156384, Note_on_c, 1, 61, 80
3, 156476, Note_off_c, 1, 61, 100
3, 156480, Note_on_c, 1, 56, 80
3, 156572, Note_off_c, 1, 56, 100
3, 156576, Note_on_c, 1, 61, 80
3, 156668, Note_off_c, 1, 61, 100
3, 156672, Note_on_c, 1, 58, 80
3, 156764, Note_off_c, 1, 58, 100
3, 156768, Note_on_c, 1, 61, 80
3, 156860, Note_off_c, 1, 61, 100
3, 156864, Note_on_c, 1, 58, 80
3, 156956, Note_off_c, 1, 58, 100
3, 156960, Note_on_c, 1, 61, 80
3, 157052, Note_off_c, 1, 61, 100
3, 157056, Note_on_c, 1, 59, 80
3, 157148, Note_off_c, 1, 59, 100
3, 157152, Note_on_c, 1, 61, 80
3, 157244, Note_off_c, 1, 61, 100
3, 157248, Note_on_c, 1, 56, 80
3, 157340, Note_off_c, 1, 56, 100
3, 157344, Note_on_c, 1, 61, 80
3, 157436, Note_off_c, 1, 61, 100
3, 157440, Note_on_c, 1, 58, 80
3, 157628, Note_off_c, 1, 58, 100
3, 157728, Note_on_c, 1, 54, 80
3, 157820, Note_off_c, 1, 54, 100
3, 157824, Note_on_c, 1, 58, 80
3, 157916, Note_off_c, 1, 58, 100
3, 157920, Note_on_c, 1, 61, 80
3, 158012, Note_off_c, 1, 61, 100
3, 158016, Note_on_c, 1, 66, 80
3, 158108, Note_off_c, 1, 66, 100
3, 158112, Note_on_c, 1, 61, 80
3, 158204, Note_off_c, 1, 61, 100
3, 158208, Note_on_c, 1, 66, 80
3, 158300, Note_off_c, 1, 66, 100
3, 158304, Note_on_c, 1, 68, 80
3, 158396, Note_off_c, 1, 68, 100
3, 158400, Note_on_c, 1, 70, 80
3, 158492, Note_off_c, 1, 70, 100
3, 158496, Note_on_c, 1, 68, 80
3, 158588, Note_off_c, 1, 68, 100
3, 158592, Note_on_c, 1, 66, 80
3, 158684, Note_off_c, 1, 66, 100
3, 158688, Note_on_c, 1, 68, 80
3, 158780, Note_off_c, 1, 68, 100
3, 158784, Note_on_c, 1, 66, 80
3, 158876, Note_off_c, 1, 66, 100
3, 158880, Note_on_c, 1, 65, 80
3, 158972, Note_off_c, 1, 65, 100
3, 158976, Note_on_c, 1, 51, 120
3, 158976, Note_on_c, 1, 39, 120
3, 159164, Note_off_c, 1, 51, 100
3, 159164, Note_off_c, 1, 39, 100
3, 159168, Note_on_c, 1, 55, 80
3, 159260, Note_off_c, 1, 55, 100
3, 159264, Note_on_c, 1, 58, 80
3, 159356, Note_off_c, 1, 58, 100
3, 159360, Note_on_c, 1, 56, 80
3, 159452, Note_off_c, 1, 56, 100
3, 159456, Note_on_c, 1, 59, 80
3, 159548, Note_off_c, 1, 59, 100
3, 159552, Note_on_c, 1, 53, 80
3, 159644, Note_off_c, 1, 53, 100
3, 159648, Note_on_c, 1, 56, 80
3, 159740, Note_off_c, 1, 56, 100
3, 159744, Note_on_c, 1, 55, 80
3, 159836, Note_off_c, 1, 55, 100
3, 159840, Note_on_c, 1, 58, 80
3, 159932, Note_off_c, 1, 58, 100
3, 159936, Note_on_c, 1, 55, 80
3, 160028, Note_off_c, 1, 55, 100
3, 160032, Note_on_c, 1, 58, 80
3, 160124, Note_off_c, 1, 58, 100
3, 160128, Note_on_c, 1, 56, 80
3, 160220, Note_off_c, 1, 56, 100
3, 160224, Note_on_c, 1, 59, 80
3, 160316, Note_off_c, 1, 59, 100
3, 160320, Note_on_c, 1, 53, 80
3, 160412, Note_off_c, 1, 53, 100
3, 160416, Note_on_c, 1, 56, 80
3, 160508, Note_off_c, 1, 56, 100
3, 160512, Note_on_c, 1, 58, 80
3, 160512, Note_on_c, 1, 55, 80
3, 160604, Note_off_c, 1, 58, 100
3, 160604, Note_off_c, 1, 55, 100
3, 160800, Note_on_c, 1, 51, 80
3, 160892, Note_off_c, 1, 51, 100
3, 160896, Note_on_c, 1, 55, 80
3, 160988, Note_off_c, 1, 55, 100
3, 160992, Note_on_c, 1, 58, 80
3, 161084, Note_off_c, 1, 58, 100
3, 161088, Note_on_c, 1, 61, 80
3, 161180, Note_off_c, 1, 61, 100
3, 161184, Note_on_c, 1, 58, 80
3, 161276, Note_off_c, 1, 58, 100
3, 161280, Note_on_c, 1, 61, 80
3, 161372, Note_off_c, 1, 61, 100
3, 161376, Note_on_c, 1, 64, 80
3, 161468, Note_off_c, 1, 64, 100
3, 161472, Note_on_c, 1, 67, 80
3, 161564, Note_off_c, 1, 67, 100
3, 161568, Note_on_c, 1, 64, 80
3, 161660, Note_off_c, 1, 64, 100
3, 161664, Note_on_c, 1, 67, 80
3, 161756, Note_off_c, 1, 67, 100
3, 161760, Note_on_c, 1, 70, 80
3, 161852, Note_off_c, 1, 70, 100
3, 161856, Note_on_c, 1, 73, 80
3, 161948, Note_off_c, 1, 73, 100
3, 162000, Note_on_c, 1, 76, 80
3, 162000, Note_on_c, 1, 73, 80
3, 162044, Note_off_c, 1, 76, 100
3, 162044, Note_off_c, 1, 73, 100
3, 162048, Note_on_c, 1, 76, 80
3, 162048, Note_on_c, 1, 73, 80
3, 162236, Note_off_c, 1, 76, 100
3, 162236, Note_off_c, 1, 73, 100
3, 162384, Note_on_c, 1, 76, 86
3, 162384, Note_on_c, 1, 73, 86
3, 162428, Note_off_c, 1, 76, 100
3, 162428, Note_off_c, 1, 73, 100
3, 162432, Note_on_c, 1, 76, 87
3, 162432, Note_on_c, 1, 73, 87
3, 162620, Note_off_c, 1, 76, 100
3, 162620, Note_off_c, 1, 73, 100
3, 162768, Note_on_c, 1, 76, 93
3, 162768, Note_on_c, 1, 73, 93
3, 162812, Note_off_c, 1, 76, 100
3, 162812, Note_off_c, 1, 73, 100
3, 162816, Note_on_c, 1, 76, 94
3, 162816, Note_on_c, 1, 73, 94
3, 163004, Note_off_c, 1, 76, 100
3, 163004, Note_off_c, 1, 73, 100
3, 163152, Note_on_c, 1, 76, 80
3, 163152, Note_on_c, 1, 73, 80
3, 163196, Note_off_c, 1, 76, 100
3, 163196, Note_off_c, 1, 73, 100
3, 163200, Note_on_c, 1, 75, 95
3, 163200, Note_on_c, 1, 72, 95
3, 163388, Note_off_c, 1, 75, 100
3, 163388, Note_off_c, 1, 72, 100
3, 163536, Note_on_c, 1, 63, 80
3, 163536, Note_on_c, 1, 60, 80
3, 163580, Note_off_c, 1, 63, 100
3, 163580, Note_off_c, 1, 60, 100
3, 163584, Note_on_c, 1, 64, 80
3, 163584, Note_on_c, 1, 61, 80
3, 163772, Note_off_c, 1, 64, 100
3, 163772, Note_off_c, 1, 61, 100
3, 163920, Note_on_c, 1, 64, 86
3, 163920, Note_on_c, 1, 61, 86
3, 163964, Note_off_c, 1, 64, 100
3, 163964, Note_off_c, 1, 61, 100
3, 163968, Note_on_c, 1, 64, 87
3, 163968, Note_on_c, 1, 61, 87
3, 164156, Note_off_c, 1, 64, 100
3, 164156, Note_off_c, 1, 61, 100
3, 164304, Note_on_c, 1, 64, 93
3, 164304, Note_on_c, 1, 61, 93
3, 164348, Note_off_c, 1, 64, 100
3, 164348, Note_off_c, 1, 61, 100
3, 164352, Note_on_c, 1, 64, 94
3, 164352, Note_on_c, 1, 61, 94
3, 164540, Note_off_c, 1, 64, 100
3, 164540, Note_off_c, 1, 61, 100
3, 164688, Note_on_c, 1, 64, 80
3, 164688, Note_on_c, 1, 61, 80
3, 164732, Note_off_c, 1, 64, 100
3, 164732, Note_off_c, 1, 61, 100
3, 164736, Note_on_c, 1, 63, 95
3, 164736, Note_on_c, 1, 60, 95
3, 164924, Note_off_c, 1, 63, 100
3, 164924, Note_off_c, 1, 60, 100
3, 165072, Note_on_c, 1, 63, 80
3, 165072, Note_on_c, 1, 60, 80
3, 165116, Note_off_c, 1, 63, 100
3, 165116, Note_off_c, 1, 60, 100
3, 165120, Note_on_c, 1, 64, 80
3, 165120, Note_on_c, 1, 61, 80
3, 165308, Note_off_c, 1, 64, 100
3, 165308, Note_off_c, 1, 61, 100
3, 165456, Note_on_c, 1, 64, 80
3, 165456, Note_on_c, 1, 61, 80
3, 165500, Note_off_c, 1, 64, 100
3, 165500, Note_off_c, 1, 61, 100
3, 165504, Note_on_c, 1, 63, 80
3, 165504, Note_on_c, 1, 60, 80
3, 165692, Note_off_c, 1, 63, 100
3, 165692, Note_off_c, 1, 60, 100
3, 165840, Note_on_c, 1, 63, 80
3, 165840, Note_on_c, 1, 60, 80
3, 165884, Note_off_c, 1, 63, 100
3, 165884, Note_off_c, 1, 60, 100
3, 165888, Note_on_c, 1, 64, 80
3, 165888, Note_on_c, 1, 61, 80
3, 166076, Note_off_c, 1, 64, 100
3, 166076, Note_off_c, 1, 61, 100
3, 166224, Note_on_c, 1, 64, 80
3, 166224, Note_on_c, 1, 61, 80
3, 166268, Note_off_c, 1, 64, 100
3, 166268, Note_off_c, 1, 61, 100
3, 166272, Note_on_c, 1, 63, 80
3, 166272, Note_on_c, 1, 60, 80
3, 166460, Note_off_c, 1, 63, 100
3, 166460, Note_off_c, 1, 60, 100
3, 166608, Note_on_c, 1, 48, 80
3, 166652, Note_off_c, 1, 48, 100
3, 166656, Note_on_c, 1, 49, 80
3, 166844, Note_off_c, 1, 49, 100
3, 166992, Note_on_c, 1, 37, 80
3, 167036, Note_off_c, 1, 37, 100
3, 167040, Note_on_c, 1, 39, 80
3, 167228, Note_off_c, 1, 39, 100
3, 167376, Note_on_c, 1, 39, 80
3, 167420, Note_off_c, 1, 39, 100
3, 167424, Note_on_c, 1, 32, 70
3, 167516, Note_off_c, 1, 32, 100
3, 167520, Note_on_c, 1, 51, 70
3, 167612, Note_off_c, 1, 51, 100
3, 167616, Note_on_c, 1, 56, 70
3, 167708, Note_off_c, 1, 56, 100
3, 167712, Note_on_c, 1, 51, 70
3, 167804, Note_off_c, 1, 51, 100
3, 167808, Note_on_c, 1, 56, 70
3, 167900, Note_off_c, 1, 56, 100
3, 167904, Note_on_c, 1, 51, 70
3, 167996, Note_off_c, 1, 51, 100
3, 168000, Note_on_c, 1, 56, 70
3, 168092, Note_off_c, 1, 56, 100
3, 168096, Note_on_c, 1, 51, 70
3, 168188, Note_off_c, 1, 51, 100
3, 168192, Note_on_c, 1, 60, 70
3, 168192, Note_on_c, 1, 56, 70
3, 168284, Note_off_c, 1, 60, 100
3, 168284, Note_off_c, 1, 56, 100
3, 168288, Note_on_c, 1, 56, 70
3, 168288, Note_on_c, 1, 51, 70
3, 168380, Note_off_c, 1, 56, 100
3, 168380, Note_off_c, 1, 51, 100
3, 168384, Note_on_c, 1, 60, 70
3, 168384, Note_on_c, 1, 56, 70
3, 168476, Note_off_c, 1, 60, 100
3, 168476, Note_off_c, 1, 56, 100
3, 168480, Note_on_c, 1, 56, 70
3, 168480, Note_on_c, 1, 51, 70
3, 168572, Note_off_c, 1, 56, 100
3, 168572, Note_off_c, 1, 51, 100
3, 168576, Note_on_c, 1, 61, 70
3, 168576, Note_on_c, 1, 58, 70
3, 168668, Note_off_c, 1, 61, 100
3, 168668, Note_off_c, 1, 58, 100
3, 168672, Note_on_c, 1, 58, 70
3, 168672, Note_on_c, 1, 51, 70
3, 168764, Note_off_c, 1, 58, 100
3, 168764, Note_off_c, 1, 51, 100
3, 168768, Note_on_c, 1, 61, 70
3, 168768, Note_on_c, 1, 58, 70
3, 168860, Note_off_c, 1, 61, 100
3, 168860, Note_off_c, 1, 58, 100
3, 168864, Note_on_c, 1, 58, 70
3, 168864, Note_on_c, 1, 51, 70
3, 168956, Note_off_c, 1, 58, 100
3, 168956, Note_off_c, 1, 51, 100
3, 168960, Note_on_c, 1, 32, 70
3, 169052, Note_off_c, 1, 32, 100
3, 169056, Note_on_c, 1, 51, 70
3, 169056, Note_on_c, 1, 56, 70
3, 169148, Note_off_c, 1, 51, 100
3, 169148, Note_off_c, 1, 56, 100
3, 169152, Note_on_c, 1, 56, 70
3, 169152, Note_on_c, 1, 60, 70
3, 169244, Note_off_c, 1, 56, 100
3, 169244, Note_off_c, 1, 60, 100
3, 169248, Note_on_c, 1, 51, 70
3, 169248, Note_on_c, 1, 56, 70
3, 169340, Note_off_c, 1, 51, 100
3, 169340, Note_off_c, 1, 56, 100
3, 169344, Note_on_c, 1, 56, 70
3, 169344, Note_on_c, 1, 60, 70
3, 169436, Note_off_c, 1, 56, 100
3, 169436, Note_off_c, 1, 60, 100
3, 169440, Note_on_c, 1, 51, 70
3, 169440, Note_on_c, 1, 56, 70
3, 169532, Note_off_c, 1, 51, 100
3, 169532, Note_off_c, 1, 56, 100
3, 169536, Note_on_c, 1, 56, 70
3, 169536, Note_on_c, 1, 60, 70
3, 169628, Note_off_c, 1, 56, 100
3, 169628, Note_off_c, 1, 60, 100
3, 169632, Note_on_c, 1, 51, 70
3, 169632, Note_on_c, 1, 56, 70
3, 169724, Note_off_c, 1, 51, 100
3, 169724, Note_off_c, 1, 56, 100
3, 169728, Note_on_c, 1, 60, 70
3, 169728, Note_on_c, 1, 56, 70
3, 169820, Note_off_c, 1, 60, 100
3, 169820, Note_off_c, 1, 56, 100
3, 169824, Note_on_c, 1, 56, 70
3, 169824, Note_on_c, 1, 51, 70
3, 169916, Note_off_c, 1, 56, 100
3, 169916, Note_off_c, 1, 51, 100
3, 169920, Note_on_c, 1, 60, 70
3, 169920, Note_on_c, 1, 56, 70
3, 170012, Note_off_c, 1, 60, 100
3, 170012, Note_off_c, 1, 56, 100
3, 170016, Note_on_c, 1, 56, 70
3, 170016, Note_on_c, 1, 51, 70
3, 170108, Note_off_c, 1, 56, 100
3, 170108, Note_off_c, 1, 51, 100
3, 170112, Note_on_c, 1, 61, 70
3, 170112, Note_on_c, 1, 58, 70
3, 170204, Note_off_c, 1, 61, 100
3, 170204, Note_off_c, 1, 58, 100
3, 170208, Note_on_c, 1, 58, 70
3, 170208, Note_on_c, 1, 51, 70
3, 170300, Note_off_c, 1, 58, 100
3, 170300, Note_off_c, 1, 51, 100
3, 170304, Note_on_c, 1, 61, 70
3, 170304, Note_on_c, 1, 58, 70
3, 170396, Note_off_c, 1, 61, 100
3, 170396, Note_off_c, 1, 58, 100
3, 170400, Note_on_c, 1, 58, 70
3, 170400, Note_on_c, 1, 51, 70
3, 170492, Note_off_c, 1, 58, 100
3, 170492, Note_off_c, 1, 51, 100
3, 170496, Note_on_c, 1, 44, 70
3, 170588, Note_off_c, 1, 44, 100
3, 170592, Note_on_c, 1, 56, 70
3, 170592, Note_on_c, 1, 51, 70
3, 170684, Note_off_c, 1, 56, 100
3, 170684, Note_off_c, 1, 51, 100
3, 170688, Note_on_c, 1, 60, 70
3, 170688, Note_on_c, 1, 56, 70
3, 170780, Note_off_c, 1, 60, 100
3, 170780, Note_off_c, 1, 56, 100
3, 170784, Note_on_c, 1, 56, 70
3, 170784, Note_on_c, 1, 51, 70
3, 170876, Note_off_c, 1, 56, 100
3, 170876, Note_off_c, 1, 51, 100
3, 170880, Note_on_c, 1, 61, 70
3, 170880, Note_on_c, 1, 58, 70
3, 170972, Note_off_c, 1, 61, 100
3, 170972, Note_off_c, 1, 58, 100
3, 170976, Note_on_c, 1, 58, 70
3, 170976, Note_on_c, 1, 51, 70
3, 171068, Note_off_c, 1, 58, 100
3, 171068, Note_off_c, 1, 51, 100
3, 171072, Note_on_c, 1, 61, 70
3, 171072, Note_on_c, 1, 58, 70
3, 171164, Note_off_c, 1, 61, 100
3, 171164, Note_off_c, 1, 58, 100
3, 171168, Note_on_c, 1, 58, 70
3, 171168, Note_on_c, 1, 51, 70
3, 171260, Note_off_c, 1, 58, 100
3, 171260, Note_off_c, 1, 51, 100
3, 171264, Note_on_c, 1, 44, 70
3, 171356, Note_off_c, 1, 44, 100
3, 171360, Note_on_c, 1, 56, 70
3, 171360, Note_on_c, 1, 51, 70
3, 171452, Note_off_c, 1, 56, 100
3, 171452, Note_off_c, 1, 51, 100
3, 171456, Note_on_c, 1, 60, 70
3, 171456, Note_on_c, 1, 56, 70
3, 171548, Note_off_c, 1, 60, 100
3, 171548, Note_off_c, 1, 56, 100
3, 171552, Note_on_c, 1, 56, 70
3, 171552, Note_on_c, 1, 51, 70
3, 171644, Note_off_c, 1, 56, 100
3, 171644, Note_off_c, 1, 51, 100
3, 171648, Note_on_c, 1, 61, 70
3, 171648, Note_on_c, 1, 58, 70
3, 171740, Note_off_c, 1, 61, 100
3, 171740, Note_off_c, 1, 58, 100
3, 171744, Note_on_c, 1, 58, 70
3, 171744, Note_on_c, 1, 51, 70
3, 171836, Note_off_c, 1, 58, 100
3, 171836, Note_off_c, 1, 51, 100
3, 171840, Note_on_c, 1, 61, 70
3, 171840, Note_on_c, 1, 58, 70
3, 171932, Note_off_c, 1, 61, 100
3, 171932, Note_off_c, 1, 58, 100
3, 171936, Note_on_c, 1, 58, 70
3, 171936, Note_on_c, 1, 51, 70
3, 172028, Note_off_c, 1, 58, 100
3, 172028, Note_off_c, 1, 51, 100
3, 172032, Note_on_c, 1, 60, 80
3, 172032, Note_on_c, 1, 56, 80
3, 172220, Note_off_c, 1, 60, 100
3, 172220, Note_off_c, 1, 56, 100
3, 172800, Note_on_c, 1, 56, 80
3, 172892, Note_off_c, 1, 56, 100
3, 172896, Note_on_c, 1, 60, 80
3, 172988, Note_off_c, 1, 60, 100
3, 172992, Note_on_c, 1, 51, 80
3, 173084, Note_off_c, 1, 51, 100
3, 173088, Note_on_c, 1, 56, 80
3, 173180, Note_off_c, 1, 56, 100
3, 173184, Note_on_c, 1, 48, 80
3, 173276, Note_off_c, 1, 48, 100
3, 173280, Note_on_c, 1, 51, 80
3, 173372, Note_off_c, 1, 51, 100
3, 173376, Note_on_c, 1, 49, 80
3, 173468, Note_off_c, 1, 49, 100
3, 173472, Note_on_c, 1, 46, 80
3, 173564, Note_off_c, 1, 46, 100
3, 173568, Note_on_c, 1, 44, 80
3, 173660, Note_off_c, 1, 44, 100
3, 173664, Note_on_c, 1, 47, 80
3, 173756, Note_off_c, 1, 47, 100
3, 173760, Note_on_c, 1, 48, 80
3, 173852, Note_off_c, 1, 48, 100
3, 173856, Note_on_c, 1, 43, 80
3, 173948, Note_off_c, 1, 43, 100
3, 173952, Note_on_c, 1, 44, 80
3, 174044, Note_off_c, 1, 44, 100
3, 174048, Note_on_c, 1, 40, 80
3, 174140, Note_off_c, 1, 40, 100
3, 174144, Note_on_c, 1, 41, 80
3, 174236, Note_off_c, 1, 41, 100
3, 174240, Note_on_c, 1, 36, 80
3, 174332, Note_off_c, 1, 36, 100
3, 174336, Note_on_c, 1, 37, 80
3, 174428, Note_off_c, 1, 37, 100
3, 174432, Note_on_c, 1, 48, 80
3, 174524, Note_off_c, 1, 48, 100
3, 174528, Note_on_c, 1, 49, 80
3, 174620, Note_off_c, 1, 49, 100
3, 174624, Note_on_c, 1, 45, 80
3, 174716, Note_off_c, 1, 45, 100
3, 174720, Note_on_c, 1, 46, 80
3, 174812, Note_off_c, 1, 46, 100
3, 174816, Note_on_c, 1, 42, 80
3, 174908, Note_off_c, 1, 42, 100
3, 174912, Note_on_c, 1, 43, 80
3, 175004, Note_off_c, 1, 43, 100
3, 175008, Note_on_c, 1, 38, 80
3, 175100, Note_off_c, 1, 38, 100
3, 175104, Note_on_c, 1, 39, 80
3, 175196, Note_off_c, 1, 39, 100
3, 175200, Note_on_c, 1, 41, 81
3, 175292, Note_off_c, 1, 41, 100
3, 175296, Note_on_c, 1, 43, 82
3, 175388, Note_off_c, 1, 43, 100
3, 175392, Note_on_c, 1, 44, 83
3, 175484, Note_off_c, 1, 44, 100
3, 175488, Note_on_c, 1, 46, 85
3, 175580, Note_off_c, 1, 46, 100
3, 175584, Note_on_c, 1, 48, 86
3, 175676, Note_off_c, 1, 48, 100
3, 175680, Note_on_c, 1, 49, 87
3, 175772, Note_off_c, 1, 49, 100
3, 175776, Note_on_c, 1, 51, 89
3, 175868, Note_off_c, 1, 51, 100
3, 175872, Note_on_c, 1, 53, 90
3, 175964, Note_off_c, 1, 53, 100
3, 175968, Note_on_c, 1, 55, 91
3, 176060, Note_off_c, 1, 55, 100
3, 176064, Note_on_c, 1, 56, 93
3, 176156, Note_off_c, 1, 56, 100
3, 176160, Note_on_c, 1, 58, 94
3, 176252, Note_off_c, 1, 58, 100
3, 176256, Note_on_c, 1, 60, 95
3, 176348, Note_off_c, 1, 60, 100
3, 176352, Note_on_c, 1, 55, 97
3, 176444, Note_off_c, 1, 55, 100
3, 176448, Note_on_c, 1, 56, 98
3, 176540, Note_off_c, 1, 56, 100
3, 176544, Note_on_c, 1, 52, 99
3, 176636, Note_off_c, 1, 52, 100
3, 176640, Note_on_c, 1, 53, 95
3, 176732, Note_off_c, 1, 53, 100
3, 176736, Note_on_c, 1, 48, 93
3, 176828, Note_off_c, 1, 48, 100
3, 176832, Note_on_c, 1, 49, 91
3, 176924, Note_off_c, 1, 49, 100
3, 176928, Note_on_c, 1, 45, 89
3, 177020, Note_off_c, 1, 45, 100
3, 177024, Note_on_c, 1, 46, 87
3, 177116, Note_off_c, 1, 46, 100
3, 177120, Note_on_c, 1, 48, 85
3, 177212, Note_off_c, 1, 48, 100
3, 177216, Note_on_c, 1, 49, 83
3, 177308, Note_off_c, 1, 49, 100
3, 177312, Note_on_c, 1, 50, 81
3, 177404, Note_off_c, 1, 50, 100
3, 177408, Note_on_c, 1, 51, 80
3, 177596, Note_off_c, 1, 51, 100
3, 177792, Note_on_c, 1, 39, 80
3, 177980, Note_off_c, 1, 39, 100
3, 178176, Note_on_c, 1, 32, 80
3, 178364, Note_off_c, 1, 32, 100
3, 178560, Note_on_c, 1, 63, 70
3, 178560, Note_on_c, 1, 51, 70
3, 178748, Note_off_c, 1, 63, 100
3, 178748, Note_off_c, 1, 51, 100
3, 178944, Note_on_c, 1, 56, 70
3, 178944, Note_on_c, 1, 44, 70
3, 179132, Note_off_c, 1, 56, 100
3, 179132, Note_off_c, 1, 44, 100
3, 179328, Note_on_c, 1, 51, 70
3, 179328, Note_on_c, 1, 39, 70
3, 179516, Note_off_c, 1, 51, 100
3, 179516, Note_off_c, 1, 39, 100
3, 179520, Note_on_c, 1, 51, 70
3, 179520, Note_on_c, 1, 39, 70
3, 179708, Note_off_c, 1, 51, 100
3, 179708, Note_off_c, 1, 39, 100
3, 179712, Note_on_c, 1, 44, 70
3, 179712, Note_on_c, 1, 32, 70
3, 180092, Note_off_c, 1, 44, 100
3, 180092, Note_off_c, 1, 32, 100
3, 180092, End_track
0, 0, End_of_file
