0, 0, Header, 1, 3, 384
1, 0, Start_track
1, 0, Title_t, "L.v.Beethoven 3mov - Piano Sonata No.18 in Eb Major Op.31-3\000"
1, 0, Copyright_t, "Copyright(C) 1995-2009, Suzuki Software\000"
1, 0, Sequencer_specific, 9, 67, 123, 0, 88, 70, 48, 50, 0, 1
1, 0, Text_t, "XFhd:2000/07/21:JP:Classical::::L.v.Beethoven:::Kaoru Suzuki\000"
1, 0, Text_t, "XFln:JP:\203s\203A\203m\203\\\203i\203^\221æ18\224Ô\225Ï\203z\222·\222²\215ì\225i31-3\201`\221æ3\212y\217Í:L.v.\203x\201[\203g\201[\203\224\203F\203\223:::\227é\202¿\202á\202ñ:\227é\202¿\202á\202ñ\000"
1, 0, Time_signature, 1, 2, 96, 8
1, 0, Sequencer_specific, 3, 0, 0, 65
1, 0, Sequencer_specific, 5, 0, 0, 119, 14, 0
1, 0, Tempo, 800000
1, 384, Time_signature, 3, 2, 96, 8
1, 17664, Tempo, 833333
1, 18048, Tempo, 895522
1, 18240, Tempo, 923076
1, 18624, Tempo, 800000
1, 27264, Tempo, 857142
1, 28032, Tempo, 800000
1, 36864, Tempo, 705882
1, 104832, Tempo, 750000
1, 105216, Tempo, 800000
1, 105600, Tempo, 923076
1, 105984, Tempo, 857142
1, 106368, Tempo, 705882
1, 131712, Tempo, 750000
1, 132096, Tempo, 800000
1, 132480, Tempo, 857142
1, 132672, Tempo, 1500000
1, 132672, End_track
2, 0, Start_track
2, 0, Title_t, "Right"
2, 0, Control_c, 0, 0, 0
2, 0, Program_c, 0, 0
2, 0, Control_c, 0, 7, 100
2, 0, Control_c, 0, 10, 77
2, 0, Control_c, 0, 91, 127
2, 0, Key_signature, -3, "major"
2, 0, Note_on_c, 0, 58, 80
2, 284, Note_off_c, 0, 58, 100
2, 288, Note_on_c, 0, 63, 80
2, 380, Note_off_c, 0, 63, 100
2, 384, Note_on_c, 0, 63, 80
2, 1148, Note_off_c, 0, 63, 100
2, 1152, Note_on_c, 0, 67, 80
2, 1436, Note_off_c, 0, 67, 100
2, 1440, Note_on_c, 0, 63, 80
2, 1532, Note_off_c, 0, 63, 100
2, 1536, Note_on_c, 0, 63, 80
2, 1916, Note_off_c, 0, 63, 100
2, 1920, Note_on_c, 0, 62, 80
2, 2492, Note_off_c, 0, 62, 100
2, 2496, Note_on_c, 0, 63, 80
2, 2684, Note_off_c, 0, 63, 100
2, 2688, Note_on_c, 0, 65, 80
2, 2688, Note_on_c, 0, 58, 80
2, 2876, Note_off_c, 0, 58, 100
2, 2880, Note_on_c, 0, 58, 80
2, 3068, Note_off_c, 0, 58, 100
2, 3072, Note_on_c, 0, 58, 80
2, 3260, Note_off_c, 0, 65, 100
2, 3260, Note_off_c, 0, 58, 100
2, 3264, Note_on_c, 0, 67, 80
2, 3264, Note_on_c, 0, 58, 80
2, 3452, Note_off_c, 0, 67, 100
2, 3452, Note_off_c, 0, 58, 100
2, 3456, Note_on_c, 0, 68, 80
2, 3456, Note_on_c, 0, 65, 80
2, 3456, Note_on_c, 0, 58, 80
2, 3644, Note_off_c, 0, 68, 100
2, 3644, Note_off_c, 0, 65, 100
2, 3644, Note_off_c, 0, 58, 100
2, 3648, Note_on_c, 0, 70, 80
2, 3648, Note_on_c, 0, 65, 80
2, 3648, Note_on_c, 0, 58, 80
2, 3836, Note_off_c, 0, 70, 100
2, 3836, Note_off_c, 0, 65, 100
2, 3836, Note_off_c, 0, 58, 100
2, 3840, Note_on_c, 0, 58, 80
2, 3840, Note_on_c, 0, 68, 80
2, 3840, Note_on_c, 0, 65, 80
2, 4028, Note_off_c, 0, 58, 100
2, 4032, Note_on_c, 0, 58, 80
2, 4220, Note_off_c, 0, 68, 100
2, 4220, Note_off_c, 0, 65, 100
2, 4220, Note_off_c, 0, 58, 100
2, 4224, Note_on_c, 0, 58, 80
2, 4224, Note_on_c, 0, 67, 80
2, 4224, Note_on_c, 0, 63, 80
2, 4412, Note_off_c, 0, 58, 100
2, 4416, Note_on_c, 0, 58, 80
2, 4604, Note_off_c, 0, 67, 100
2, 4604, Note_off_c, 0, 63, 100
2, 4604, Note_off_c, 0, 58, 100
2, 4608, Note_on_c, 0, 63, 80
2, 4608, Note_on_c, 0, 67, 80
2, 4796, Note_off_c, 0, 63, 100
2, 4800, Note_on_c, 0, 63, 80
2, 4892, Note_off_c, 0, 67, 100
2, 4896, Note_on_c, 0, 68, 80
2, 4988, Note_off_c, 0, 63, 100
2, 4988, Note_off_c, 0, 68, 100
2, 4992, Note_on_c, 0, 70, 80
2, 4992, Note_on_c, 0, 63, 80
2, 5180, Note_off_c, 0, 63, 100
2, 5184, Note_on_c, 0, 63, 80
2, 5372, Note_off_c, 0, 63, 100
2, 5376, Note_on_c, 0, 63, 80
2, 5564, Note_off_c, 0, 70, 100
2, 5564, Note_off_c, 0, 63, 100
2, 5568, Note_on_c, 0, 67, 80
2, 5568, Note_on_c, 0, 63, 80
2, 5756, Note_off_c, 0, 67, 100
2, 5756, Note_off_c, 0, 63, 100
2, 5760, Note_on_c, 0, 72, 80
2, 5760, Note_on_c, 0, 63, 80
2, 5948, Note_off_c, 0, 72, 100
2, 5948, Note_off_c, 0, 63, 100
2, 5952, Note_on_c, 0, 68, 80
2, 5952, Note_on_c, 0, 63, 80
2, 6140, Note_off_c, 0, 68, 100
2, 6140, Note_off_c, 0, 63, 100
2, 6144, Note_on_c, 0, 70, 80
2, 6144, Note_on_c, 0, 63, 80
2, 6332, Note_off_c, 0, 63, 100
2, 6336, Note_on_c, 0, 63, 80
2, 6524, Note_off_c, 0, 63, 100
2, 6528, Note_on_c, 0, 63, 80
2, 6716, Note_off_c, 0, 70, 100
2, 6716, Note_off_c, 0, 63, 100
2, 6720, Note_on_c, 0, 71, 80
2, 6720, Note_on_c, 0, 63, 80
2, 6908, Note_off_c, 0, 71, 100
2, 6908, Note_off_c, 0, 63, 100
2, 6912, Note_on_c, 0, 72, 80
2, 6912, Note_on_c, 0, 63, 80
2, 7100, Note_off_c, 0, 72, 100
2, 7100, Note_off_c, 0, 63, 100
2, 7104, Note_on_c, 0, 70, 80
2, 7104, Note_on_c, 0, 63, 80
2, 7292, Note_off_c, 0, 70, 100
2, 7292, Note_off_c, 0, 63, 100
2, 7296, Note_on_c, 0, 70, 80
2, 7296, Note_on_c, 0, 60, 80
2, 7484, Note_off_c, 0, 70, 100
2, 7484, Note_off_c, 0, 60, 100
2, 7488, Note_on_c, 0, 60, 80
2, 7488, Note_on_c, 0, 68, 80
2, 7676, Note_off_c, 0, 60, 100
2, 7680, Note_on_c, 0, 61, 80
2, 7868, Note_off_c, 0, 68, 100
2, 7868, Note_off_c, 0, 61, 100
2, 7872, Note_on_c, 0, 65, 80
2, 7872, Note_on_c, 0, 62, 80
2, 7872, Note_on_c, 0, 58, 80
2, 8060, Note_off_c, 0, 65, 100
2, 8060, Note_off_c, 0, 62, 100
2, 8060, Note_off_c, 0, 58, 100
2, 8064, Note_on_c, 0, 67, 80
2, 8064, Note_on_c, 0, 63, 80
2, 8064, Note_on_c, 0, 58, 80
2, 8252, Note_off_c, 0, 67, 100
2, 8252, Note_off_c, 0, 63, 100
2, 8252, Note_off_c, 0, 58, 100
2, 8256, Note_on_c, 0, 70, 80
2, 8256, Note_on_c, 0, 65, 80
2, 8256, Note_on_c, 0, 60, 80
2, 8348, Note_off_c, 0, 70, 100
2, 8352, Note_on_c, 0, 68, 80
2, 8444, Note_off_c, 0, 65, 100
2, 8444, Note_off_c, 0, 60, 100
2, 8444, Note_off_c, 0, 68, 100
2, 8448, Note_on_c, 0, 67, 80
2, 8448, Note_on_c, 0, 63, 80
2, 8636, Note_off_c, 0, 63, 100
2, 8640, Note_on_c, 0, 58, 80
2, 8828, Note_off_c, 0, 67, 100
2, 8828, Note_off_c, 0, 58, 100
2, 8832, Note_on_c, 0, 62, 80
2, 8832, Note_on_c, 0, 65, 80
2, 9020, Note_off_c, 0, 62, 100
2, 9020, Note_off_c, 0, 65, 100
2, 9216, Note_on_c, 0, 58, 80
2, 9408, Note_on_c, 0, 56, 80
2, 9500, Note_off_c, 0, 58, 100
2, 9504, Note_on_c, 0, 63, 80
2, 9596, Note_off_c, 0, 56, 100
2, 9596, Note_off_c, 0, 63, 100
2, 9600, Note_on_c, 0, 55, 80
2, 9600, Note_on_c, 0, 63, 80
2, 9788, Note_off_c, 0, 55, 100
2, 10172, Note_off_c, 0, 63, 100
2, 10176, Note_on_c, 0, 65, 80
2, 10220, Note_off_c, 0, 65, 100
2, 10224, Note_on_c, 0, 63, 80
2, 10268, Note_off_c, 0, 63, 100
2, 10272, Note_on_c, 0, 62, 80
2, 10316, Note_off_c, 0, 62, 100
2, 10320, Note_on_c, 0, 63, 80
2, 10364, Note_off_c, 0, 63, 100
2, 10368, Note_on_c, 0, 67, 80
2, 10652, Note_off_c, 0, 67, 100
2, 10656, Note_on_c, 0, 63, 80
2, 10748, Note_off_c, 0, 63, 100
2, 10752, Note_on_c, 0, 63, 80
2, 11132, Note_off_c, 0, 63, 100
2, 11136, Note_on_c, 0, 62, 80
2, 11708, Note_off_c, 0, 62, 100
2, 11712, Note_on_c, 0, 63, 80
2, 11900, Note_off_c, 0, 63, 100
2, 11904, Note_on_c, 0, 65, 80
2, 11904, Note_on_c, 0, 58, 80
2, 12092, Note_off_c, 0, 58, 100
2, 12096, Note_on_c, 0, 58, 80
2, 12284, Note_off_c, 0, 58, 100
2, 12288, Note_on_c, 0, 58, 80
2, 12476, Note_off_c, 0, 65, 100
2, 12476, Note_off_c, 0, 58, 100
2, 12480, Note_on_c, 0, 67, 80
2, 12480, Note_on_c, 0, 58, 80
2, 12668, Note_off_c, 0, 67, 100
2, 12668, Note_off_c, 0, 58, 100
2, 12672, Note_on_c, 0, 68, 80
2, 12672, Note_on_c, 0, 65, 80
2, 12672, Note_on_c, 0, 58, 80
2, 12860, Note_off_c, 0, 68, 100
2, 12860, Note_off_c, 0, 65, 100
2, 12860, Note_off_c, 0, 58, 100
2, 12864, Note_on_c, 0, 70, 80
2, 12864, Note_on_c, 0, 65, 80
2, 12864, Note_on_c, 0, 58, 80
2, 13052, Note_off_c, 0, 70, 100
2, 13052, Note_off_c, 0, 65, 100
2, 13052, Note_off_c, 0, 58, 100
2, 13056, Note_on_c, 0, 58, 80
2, 13056, Note_on_c, 0, 68, 80
2, 13056, Note_on_c, 0, 65, 80
2, 13244, Note_off_c, 0, 58, 100
2, 13248, Note_on_c, 0, 58, 80
2, 13436, Note_off_c, 0, 68, 100
2, 13436, Note_off_c, 0, 65, 100
2, 13436, Note_off_c, 0, 58, 100
2, 13440, Note_on_c, 0, 58, 80
2, 13440, Note_on_c, 0, 67, 80
2, 13440, Note_on_c, 0, 63, 80
2, 13628, Note_off_c, 0, 58, 100
2, 13632, Note_on_c, 0, 58, 80
2, 13820, Note_off_c, 0, 67, 100
2, 13820, Note_off_c, 0, 63, 100
2, 13820, Note_off_c, 0, 58, 100
2, 13824, Note_on_c, 0, 63, 80
2, 13824, Note_on_c, 0, 67, 80
2, 14012, Note_off_c, 0, 63, 100
2, 14016, Note_on_c, 0, 63, 80
2, 14108, Note_off_c, 0, 67, 100
2, 14112, Note_on_c, 0, 68, 80
2, 14204, Note_off_c, 0, 63, 100
2, 14204, Note_off_c, 0, 68, 100
2, 14208, Note_on_c, 0, 70, 80
2, 14208, Note_on_c, 0, 63, 80
2, 14396, Note_off_c, 0, 63, 100
2, 14400, Note_on_c, 0, 63, 80
2, 14588, Note_off_c, 0, 63, 100
2, 14592, Note_on_c, 0, 63, 80
2, 14780, Note_off_c, 0, 70, 100
2, 14780, Note_off_c, 0, 63, 100
2, 14784, Note_on_c, 0, 67, 80
2, 14784, Note_on_c, 0, 63, 80
2, 14972, Note_off_c, 0, 67, 100
2, 14972, Note_off_c, 0, 63, 100
2, 14976, Note_on_c, 0, 72, 80
2, 14976, Note_on_c, 0, 63, 80
2, 15164, Note_off_c, 0, 72, 100
2, 15164, Note_off_c, 0, 63, 100
2, 15168, Note_on_c, 0, 68, 80
2, 15168, Note_on_c, 0, 63, 80
2, 15356, Note_off_c, 0, 68, 100
2, 15356, Note_off_c, 0, 63, 100
2, 15360, Note_on_c, 0, 70, 80
2, 15360, Note_on_c, 0, 63, 80
2, 15548, Note_off_c, 0, 63, 100
2, 15552, Note_on_c, 0, 63, 80
2, 15740, Note_off_c, 0, 63, 100
2, 15744, Note_on_c, 0, 63, 80
2, 15932, Note_off_c, 0, 70, 100
2, 15932, Note_off_c, 0, 63, 100
2, 15936, Note_on_c, 0, 71, 80
2, 15936, Note_on_c, 0, 63, 80
2, 16124, Note_off_c, 0, 71, 100
2, 16124, Note_off_c, 0, 63, 100
2, 16128, Note_on_c, 0, 72, 80
2, 16128, Note_on_c, 0, 63, 80
2, 16316, Note_off_c, 0, 72, 100
2, 16316, Note_off_c, 0, 63, 100
2, 16320, Note_on_c, 0, 70, 80
2, 16320, Note_on_c, 0, 63, 80
2, 16508, Note_off_c, 0, 70, 100
2, 16508, Note_off_c, 0, 63, 100
2, 16512, Note_on_c, 0, 70, 80
2, 16512, Note_on_c, 0, 60, 80
2, 16700, Note_off_c, 0, 70, 100
2, 16700, Note_off_c, 0, 60, 100
2, 16704, Note_on_c, 0, 60, 80
2, 16704, Note_on_c, 0, 68, 80
2, 16892, Note_off_c, 0, 60, 100
2, 16896, Note_on_c, 0, 61, 80
2, 17084, Note_off_c, 0, 68, 100
2, 17084, Note_off_c, 0, 61, 100
2, 17088, Note_on_c, 0, 65, 80
2, 17088, Note_on_c, 0, 62, 80
2, 17088, Note_on_c, 0, 58, 80
2, 17276, Note_off_c, 0, 65, 100
2, 17276, Note_off_c, 0, 62, 100
2, 17276, Note_off_c, 0, 58, 100
2, 17280, Note_on_c, 0, 67, 80
2, 17280, Note_on_c, 0, 63, 80
2, 17280, Note_on_c, 0, 58, 80
2, 17468, Note_off_c, 0, 67, 100
2, 17468, Note_off_c, 0, 63, 100
2, 17468, Note_off_c, 0, 58, 100
2, 17472, Note_on_c, 0, 70, 80
2, 17472, Note_on_c, 0, 65, 80
2, 17472, Note_on_c, 0, 60, 80
2, 17564, Note_off_c, 0, 70, 100
2, 17568, Note_on_c, 0, 68, 80
2, 17660, Note_off_c, 0, 65, 100
2, 17660, Note_off_c, 0, 60, 100
2, 17660, Note_off_c, 0, 68, 100
2, 17664, Note_on_c, 0, 67, 80
2, 17664, Note_on_c, 0, 63, 80
2, 17852, Note_off_c, 0, 63, 100
2, 17856, Note_on_c, 0, 58, 80
2, 18044, Note_off_c, 0, 67, 100
2, 18044, Note_off_c, 0, 58, 100
2, 18048, Note_on_c, 0, 62, 80
2, 18048, Note_on_c, 0, 65, 80
2, 18236, Note_off_c, 0, 62, 100
2, 18236, Note_off_c, 0, 65, 100
2, 18240, Note_on_c, 0, 58, 80
2, 18428, Note_off_c, 0, 58, 100
2, 18432, Note_on_c, 0, 70, 80
2, 18716, Note_off_c, 0, 70, 100
2, 18720, Note_on_c, 0, 71, 80
2, 18812, Note_off_c, 0, 71, 100
2, 18816, Note_on_c, 0, 71, 80
2, 19580, Note_off_c, 0, 71, 100
2, 19584, Note_on_c, 0, 70, 80
2, 19772, Note_off_c, 0, 70, 100
2, 19776, Note_on_c, 0, 68, 80
2, 19824, Note_on_c, 0, 70, 80
2, 19868, Note_off_c, 0, 68, 100
2, 19872, Note_on_c, 0, 68, 80
2, 19916, Note_off_c, 0, 70, 100
2, 19920, Note_on_c, 0, 70, 80
2, 19964, Note_off_c, 0, 68, 100
2, 19964, Note_off_c, 0, 70, 100
2, 19968, Note_on_c, 0, 67, 80
2, 20160, Note_on_c, 0, 75, 80
2, 20348, Note_off_c, 0, 67, 100
2, 20348, Note_off_c, 0, 75, 100
2, 20352, Note_on_c, 0, 68, 80
2, 20352, Note_on_c, 0, 74, 80
2, 20540, Note_off_c, 0, 74, 100
2, 20544, Note_on_c, 0, 77, 80
2, 20732, Note_off_c, 0, 68, 100
2, 20732, Note_off_c, 0, 77, 100
2, 20736, Note_on_c, 0, 75, 80
2, 20736, Note_on_c, 0, 70, 80
2, 20924, Note_off_c, 0, 75, 100
2, 20924, Note_off_c, 0, 70, 100
2, 20928, Note_on_c, 0, 70, 80
2, 21116, Note_off_c, 0, 70, 100
2, 21120, Note_on_c, 0, 71, 80
2, 21884, Note_off_c, 0, 71, 100
2, 21888, Note_on_c, 0, 70, 80
2, 22076, Note_off_c, 0, 70, 100
2, 22080, Note_on_c, 0, 68, 80
2, 22128, Note_on_c, 0, 70, 80
2, 22172, Note_off_c, 0, 68, 100
2, 22176, Note_on_c, 0, 68, 80
2, 22220, Note_off_c, 0, 70, 100
2, 22224, Note_on_c, 0, 70, 80
2, 22268, Note_off_c, 0, 68, 100
2, 22268, Note_off_c, 0, 70, 100
2, 22272, Note_on_c, 0, 67, 80
2, 22464, Note_on_c, 0, 75, 80
2, 22652, Note_off_c, 0, 67, 100
2, 22652, Note_off_c, 0, 75, 100
2, 22656, Note_on_c, 0, 68, 80
2, 22656, Note_on_c, 0, 74, 80
2, 22844, Note_off_c, 0, 74, 100
2, 22848, Note_on_c, 0, 77, 80
2, 23036, Note_off_c, 0, 68, 100
2, 23036, Note_off_c, 0, 77, 100
2, 23040, Note_on_c, 0, 75, 80
2, 23040, Note_on_c, 0, 70, 80
2, 23228, Note_off_c, 0, 75, 100
2, 23228, Note_off_c, 0, 70, 100
2, 23232, Note_on_c, 0, 79, 80
2, 23420, Note_off_c, 0, 79, 100
2, 23424, Note_on_c, 0, 82, 80
2, 23808, Note_on_c, 0, 75, 80
2, 23996, Note_off_c, 0, 82, 100
2, 24000, Note_on_c, 0, 79, 80
2, 24188, Note_off_c, 0, 79, 100
2, 24192, Note_on_c, 0, 80, 80
2, 24380, Note_off_c, 0, 80, 100
2, 24384, Note_on_c, 0, 84, 80
2, 24572, Note_off_c, 0, 84, 100
2, 24576, Note_on_c, 0, 82, 80
2, 24956, Note_off_c, 0, 75, 100
2, 24960, Note_on_c, 0, 75, 80
2, 25148, Note_off_c, 0, 82, 100
2, 25152, Note_on_c, 0, 79, 80
2, 25340, Note_off_c, 0, 79, 100
2, 25344, Note_on_c, 0, 80, 80
2, 25532, Note_off_c, 0, 75, 100
2, 25532, Note_off_c, 0, 80, 100
2, 25536, Note_on_c, 0, 77, 80
2, 25536, Note_on_c, 0, 70, 80
2, 25724, Note_off_c, 0, 77, 100
2, 25724, Note_off_c, 0, 70, 100
2, 25728, Note_on_c, 0, 79, 80
2, 25728, Note_on_c, 0, 67, 80
2, 25916, Note_off_c, 0, 79, 100
2, 25916, Note_off_c, 0, 67, 100
2, 25920, Note_on_c, 0, 75, 80
2, 25920, Note_on_c, 0, 67, 80
2, 26108, Note_off_c, 0, 75, 100
2, 26108, Note_off_c, 0, 67, 100
2, 26112, Note_on_c, 0, 77, 80
2, 26112, Note_on_c, 0, 72, 80
2, 26492, Note_off_c, 0, 72, 100
2, 26496, Note_on_c, 0, 68, 80
2, 26684, Note_off_c, 0, 77, 100
2, 26688, Note_on_c, 0, 74, 80
2, 26876, Note_off_c, 0, 68, 100
2, 26876, Note_off_c, 0, 74, 100
2, 26880, Note_on_c, 0, 77, 80
2, 26880, Note_on_c, 0, 68, 80
2, 27260, Note_off_c, 0, 77, 100
2, 27260, Note_off_c, 0, 68, 100
2, 27264, Note_on_c, 0, 75, 80
2, 27264, Note_on_c, 0, 67, 80
2, 27452, Note_off_c, 0, 75, 100
2, 27452, Note_off_c, 0, 67, 100
2, 27648, Note_on_c, 0, 70, 80
2, 27932, Note_off_c, 0, 70, 100
2, 27936, Note_on_c, 0, 71, 80
2, 28028, Note_off_c, 0, 71, 100
2, 28032, Note_on_c, 0, 71, 80
2, 28796, Note_off_c, 0, 71, 100
2, 28800, Note_on_c, 0, 70, 80
2, 28988, Note_off_c, 0, 70, 100
2, 28992, Note_on_c, 0, 68, 80
2, 29040, Note_on_c, 0, 70, 80
2, 29084, Note_off_c, 0, 68, 100
2, 29088, Note_on_c, 0, 68, 80
2, 29132, Note_off_c, 0, 70, 100
2, 29136, Note_on_c, 0, 70, 80
2, 29180, Note_off_c, 0, 68, 100
2, 29180, Note_off_c, 0, 70, 100
2, 29184, Note_on_c, 0, 67, 80
2, 29376, Note_on_c, 0, 75, 80
2, 29564, Note_off_c, 0, 67, 100
2, 29564, Note_off_c, 0, 75, 100
2, 29568, Note_on_c, 0, 68, 80
2, 29568, Note_on_c, 0, 74, 80
2, 29756, Note_off_c, 0, 74, 100
2, 29760, Note_on_c, 0, 77, 80
2, 29948, Note_off_c, 0, 68, 100
2, 29948, Note_off_c, 0, 77, 100
2, 29952, Note_on_c, 0, 75, 80
2, 29952, Note_on_c, 0, 70, 80
2, 30140, Note_off_c, 0, 75, 100
2, 30140, Note_off_c, 0, 70, 100
2, 30144, Note_on_c, 0, 70, 80
2, 30332, Note_off_c, 0, 70, 100
2, 30336, Note_on_c, 0, 71, 80
2, 31100, Note_off_c, 0, 71, 100
2, 31104, Note_on_c, 0, 70, 80
2, 31292, Note_off_c, 0, 70, 100
2, 31296, Note_on_c, 0, 68, 80
2, 31344, Note_on_c, 0, 70, 80
2, 31388, Note_off_c, 0, 68, 100
2, 31392, Note_on_c, 0, 68, 80
2, 31436, Note_off_c, 0, 70, 100
2, 31440, Note_on_c, 0, 70, 80
2, 31484, Note_off_c, 0, 68, 100
2, 31484, Note_off_c, 0, 70, 100
2, 31488, Note_on_c, 0, 67, 80
2, 31680, Note_on_c, 0, 75, 80
2, 31868, Note_off_c, 0, 67, 100
2, 31868, Note_off_c, 0, 75, 100
2, 31872, Note_on_c, 0, 68, 80
2, 31872, Note_on_c, 0, 74, 80
2, 32060, Note_off_c, 0, 74, 100
2, 32064, Note_on_c, 0, 77, 80
2, 32252, Note_off_c, 0, 68, 100
2, 32252, Note_off_c, 0, 77, 100
2, 32256, Note_on_c, 0, 75, 80
2, 32256, Note_on_c, 0, 70, 80
2, 32444, Note_off_c, 0, 75, 100
2, 32444, Note_off_c, 0, 70, 100
2, 32448, Note_on_c, 0, 79, 80
2, 32636, Note_off_c, 0, 79, 100
2, 32640, Note_on_c, 0, 82, 80
2, 33024, Note_on_c, 0, 75, 80
2, 33212, Note_off_c, 0, 82, 100
2, 33216, Note_on_c, 0, 79, 80
2, 33404, Note_off_c, 0, 79, 100
2, 33408, Note_on_c, 0, 80, 80
2, 33596, Note_off_c, 0, 80, 100
2, 33600, Note_on_c, 0, 84, 80
2, 33788, Note_off_c, 0, 84, 100
2, 33792, Note_on_c, 0, 82, 80
2, 34172, Note_off_c, 0, 75, 100
2, 34176, Note_on_c, 0, 75, 80
2, 34364, Note_off_c, 0, 82, 100
2, 34368, Note_on_c, 0, 79, 80
2, 34556, Note_off_c, 0, 79, 100
2, 34560, Note_on_c, 0, 80, 80
2, 34748, Note_off_c, 0, 75, 100
2, 34748, Note_off_c, 0, 80, 100
2, 34752, Note_on_c, 0, 77, 80
2, 34752, Note_on_c, 0, 70, 80
2, 34940, Note_off_c, 0, 77, 100
2, 34940, Note_off_c, 0, 70, 100
2, 34944, Note_on_c, 0, 79, 80
2, 34944, Note_on_c, 0, 67, 80
2, 35132, Note_off_c, 0, 79, 100
2, 35132, Note_off_c, 0, 67, 100
2, 35136, Note_on_c, 0, 75, 80
2, 35136, Note_on_c, 0, 67, 80
2, 35324, Note_off_c, 0, 75, 100
2, 35324, Note_off_c, 0, 67, 100
2, 35328, Note_on_c, 0, 77, 80
2, 35328, Note_on_c, 0, 72, 80
2, 35708, Note_off_c, 0, 72, 100
2, 35712, Note_on_c, 0, 68, 80
2, 35900, Note_off_c, 0, 77, 100
2, 35904, Note_on_c, 0, 74, 80
2, 36092, Note_off_c, 0, 68, 100
2, 36092, Note_off_c, 0, 74, 100
2, 36096, Note_on_c, 0, 77, 80
2, 36096, Note_on_c, 0, 68, 80
2, 36476, Note_off_c, 0, 77, 100
2, 36476, Note_off_c, 0, 68, 100
2, 36480, Note_on_c, 0, 75, 80
2, 36480, Note_on_c, 0, 67, 80
2, 36668, Note_off_c, 0, 75, 100
2, 36668, Note_off_c, 0, 67, 100
2, 36864, Note_on_c, 0, 67, 80
2, 36864, Note_on_c, 0, 63, 80
2, 36864, Note_on_c, 0, 55, 80
2, 37244, Note_off_c, 0, 67, 100
2, 37244, Note_off_c, 0, 63, 100
2, 37244, Note_off_c, 0, 55, 100
2, 37248, Note_on_c, 0, 80, 80
2, 37248, Note_on_c, 0, 74, 80
2, 37248, Note_on_c, 0, 68, 80
2, 38012, Note_off_c, 0, 80, 100
2, 38012, Note_off_c, 0, 74, 100
2, 38012, Note_off_c, 0, 68, 100
2, 38016, Note_on_c, 0, 68, 80
2, 38016, Note_on_c, 0, 62, 80
2, 38016, Note_on_c, 0, 56, 80
2, 38396, Note_off_c, 0, 68, 100
2, 38396, Note_off_c, 0, 62, 100
2, 38396, Note_off_c, 0, 56, 100
2, 38400, Note_on_c, 0, 82, 80
2, 38400, Note_on_c, 0, 75, 80
2, 38400, Note_on_c, 0, 70, 80
2, 39164, Note_off_c, 0, 82, 100
2, 39164, Note_off_c, 0, 75, 100
2, 39164, Note_off_c, 0, 70, 100
2, 39168, Note_on_c, 0, 70, 80
2, 39168, Note_on_c, 0, 63, 80
2, 39548, Note_off_c, 0, 70, 100
2, 39548, Note_off_c, 0, 63, 100
2, 39552, Note_on_c, 0, 72, 80
2, 39552, Note_on_c, 0, 63, 80
2, 40124, Note_off_c, 0, 72, 100
2, 40124, Note_off_c, 0, 63, 100
2, 40128, Note_on_c, 0, 70, 80
2, 40128, Note_on_c, 0, 63, 80
2, 40316, Note_off_c, 0, 70, 100
2, 40316, Note_off_c, 0, 63, 100
2, 40320, Note_on_c, 0, 68, 80
2, 40320, Note_on_c, 0, 62, 80
2, 40508, Note_off_c, 0, 68, 100
2, 40508, Note_off_c, 0, 62, 100
2, 40512, Note_on_c, 0, 67, 80
2, 40512, Note_on_c, 0, 63, 80
2, 40700, Note_off_c, 0, 67, 100
2, 40700, Note_off_c, 0, 63, 100
2, 40704, Note_on_c, 0, 65, 80
2, 40704, Note_on_c, 0, 62, 80
2, 40892, Note_off_c, 0, 65, 100
2, 40892, Note_off_c, 0, 62, 100
2, 40896, Note_on_c, 0, 63, 80
2, 40896, Note_on_c, 0, 68, 80
2, 40988, Note_off_c, 0, 68, 100
2, 40992, Note_on_c, 0, 67, 80
2, 41084, Note_off_c, 0, 63, 100
2, 41084, Note_off_c, 0, 67, 100
2, 41088, Note_on_c, 0, 65, 80
2, 41088, Note_on_c, 0, 62, 80
2, 41276, Note_off_c, 0, 65, 100
2, 41276, Note_off_c, 0, 62, 100
2, 41472, Note_on_c, 0, 67, 80
2, 41472, Note_on_c, 0, 63, 80
2, 41472, Note_on_c, 0, 55, 80
2, 41852, Note_off_c, 0, 67, 100
2, 41852, Note_off_c, 0, 63, 100
2, 41852, Note_off_c, 0, 55, 100
2, 41856, Note_on_c, 0, 81, 80
2, 41856, Note_on_c, 0, 75, 80
2, 41856, Note_on_c, 0, 69, 80
2, 42620, Note_off_c, 0, 81, 100
2, 42620, Note_off_c, 0, 75, 100
2, 42620, Note_off_c, 0, 69, 100
2, 42624, Note_on_c, 0, 70, 80
2, 42624, Note_on_c, 0, 63, 80
2, 42624, Note_on_c, 0, 58, 80
2, 43004, Note_off_c, 0, 70, 100
2, 43004, Note_off_c, 0, 63, 100
2, 43004, Note_off_c, 0, 58, 100
2, 43008, Note_on_c, 0, 84, 80
2, 43008, Note_on_c, 0, 78, 80
2, 43008, Note_on_c, 0, 75, 80
2, 43008, Note_on_c, 0, 72, 80
2, 43772, Note_off_c, 0, 84, 100
2, 43772, Note_off_c, 0, 78, 100
2, 43772, Note_off_c, 0, 75, 100
2, 43772, Note_off_c, 0, 72, 100
2, 43776, Note_on_c, 0, 74, 110
2, 43776, Note_on_c, 0, 62, 110
2, 44156, Note_off_c, 0, 74, 100
2, 44156, Note_off_c, 0, 62, 100
2, 44160, Note_on_c, 0, 63, 110
2, 44160, Note_on_c, 0, 75, 110
2, 44444, Note_off_c, 0, 63, 100
2, 44444, Note_off_c, 0, 75, 100
2, 44448, Note_on_c, 0, 62, 110
2, 44448, Note_on_c, 0, 74, 110
2, 44540, Note_off_c, 0, 62, 100
2, 44540, Note_off_c, 0, 74, 100
2, 44544, Note_on_c, 0, 60, 110
2, 44544, Note_on_c, 0, 72, 110
2, 44924, Note_off_c, 0, 60, 100
2, 44924, Note_off_c, 0, 72, 100
2, 44928, Note_on_c, 0, 65, 110
2, 44928, Note_on_c, 0, 77, 110
2, 45308, Note_off_c, 0, 65, 100
2, 45308, Note_off_c, 0, 77, 100
2, 45312, Note_on_c, 0, 58, 110
2, 45312, Note_on_c, 0, 70, 110
2, 45692, Note_off_c, 0, 58, 100
2, 45692, Note_off_c, 0, 70, 100
2, 46080, Note_on_c, 0, 67, 80
2, 46080, Note_on_c, 0, 63, 80
2, 46080, Note_on_c, 0, 55, 80
2, 46460, Note_off_c, 0, 67, 100
2, 46460, Note_off_c, 0, 63, 100
2, 46460, Note_off_c, 0, 55, 100
2, 46464, Note_on_c, 0, 80, 80
2, 46464, Note_on_c, 0, 74, 80
2, 46464, Note_on_c, 0, 68, 80
2, 47228, Note_off_c, 0, 80, 100
2, 47228, Note_off_c, 0, 74, 100
2, 47228, Note_off_c, 0, 68, 100
2, 47232, Note_on_c, 0, 68, 80
2, 47232, Note_on_c, 0, 62, 80
2, 47232, Note_on_c, 0, 56, 80
2, 47612, Note_off_c, 0, 68, 100
2, 47612, Note_off_c, 0, 62, 100
2, 47612, Note_off_c, 0, 56, 100
2, 47616, Note_on_c, 0, 82, 80
2, 47616, Note_on_c, 0, 75, 80
2, 47616, Note_on_c, 0, 70, 80
2, 48380, Note_off_c, 0, 82, 100
2, 48380, Note_off_c, 0, 75, 100
2, 48380, Note_off_c, 0, 70, 100
2, 48384, Note_on_c, 0, 70, 80
2, 48384, Note_on_c, 0, 63, 80
2, 48764, Note_off_c, 0, 70, 100
2, 48764, Note_off_c, 0, 63, 100
2, 48768, Note_on_c, 0, 72, 80
2, 48768, Note_on_c, 0, 63, 80
2, 49340, Note_off_c, 0, 72, 100
2, 49340, Note_off_c, 0, 63, 100
2, 49344, Note_on_c, 0, 70, 80
2, 49344, Note_on_c, 0, 63, 80
2, 49532, Note_off_c, 0, 70, 100
2, 49532, Note_off_c, 0, 63, 100
2, 49536, Note_on_c, 0, 68, 80
2, 49536, Note_on_c, 0, 62, 80
2, 49724, Note_off_c, 0, 68, 100
2, 49724, Note_off_c, 0, 62, 100
2, 49728, Note_on_c, 0, 67, 80
2, 49728, Note_on_c, 0, 63, 80
2, 49916, Note_off_c, 0, 67, 100
2, 49916, Note_off_c, 0, 63, 100
2, 49920, Note_on_c, 0, 65, 80
2, 49920, Note_on_c, 0, 62, 80
2, 50108, Note_off_c, 0, 65, 100
2, 50108, Note_off_c, 0, 62, 100
2, 50112, Note_on_c, 0, 63, 80
2, 50112, Note_on_c, 0, 68, 80
2, 50204, Note_off_c, 0, 68, 100
2, 50208, Note_on_c, 0, 67, 80
2, 50300, Note_off_c, 0, 63, 100
2, 50300, Note_off_c, 0, 67, 100
2, 50304, Note_on_c, 0, 65, 80
2, 50304, Note_on_c, 0, 62, 80
2, 50492, Note_off_c, 0, 65, 100
2, 50492, Note_off_c, 0, 62, 100
2, 50688, Note_on_c, 0, 67, 80
2, 50688, Note_on_c, 0, 63, 80
2, 50688, Note_on_c, 0, 55, 80
2, 51068, Note_off_c, 0, 67, 100
2, 51068, Note_off_c, 0, 63, 100
2, 51068, Note_off_c, 0, 55, 100
2, 51072, Note_on_c, 0, 81, 80
2, 51072, Note_on_c, 0, 75, 80
2, 51072, Note_on_c, 0, 69, 80
2, 51836, Note_off_c, 0, 81, 100
2, 51836, Note_off_c, 0, 75, 100
2, 51836, Note_off_c, 0, 69, 100
2, 51840, Note_on_c, 0, 70, 80
2, 51840, Note_on_c, 0, 63, 80
2, 51840, Note_on_c, 0, 58, 80
2, 52220, Note_off_c, 0, 70, 100
2, 52220, Note_off_c, 0, 63, 100
2, 52220, Note_off_c, 0, 58, 100
2, 52224, Note_on_c, 0, 84, 80
2, 52224, Note_on_c, 0, 78, 80
2, 52224, Note_on_c, 0, 75, 80
2, 52224, Note_on_c, 0, 72, 80
2, 52988, Note_off_c, 0, 84, 100
2, 52988, Note_off_c, 0, 78, 100
2, 52988, Note_off_c, 0, 75, 100
2, 52988, Note_off_c, 0, 72, 100
2, 52992, Note_on_c, 0, 74, 110
2, 52992, Note_on_c, 0, 62, 110
2, 53372, Note_off_c, 0, 74, 100
2, 53372, Note_off_c, 0, 62, 100
2, 53376, Note_on_c, 0, 63, 110
2, 53376, Note_on_c, 0, 75, 110
2, 53660, Note_off_c, 0, 63, 100
2, 53660, Note_off_c, 0, 75, 100
2, 53664, Note_on_c, 0, 62, 110
2, 53664, Note_on_c, 0, 74, 110
2, 53756, Note_off_c, 0, 62, 100
2, 53756, Note_off_c, 0, 74, 100
2, 53760, Note_on_c, 0, 60, 110
2, 53760, Note_on_c, 0, 72, 110
2, 54140, Note_off_c, 0, 60, 100
2, 54140, Note_off_c, 0, 72, 100
2, 54144, Note_on_c, 0, 65, 110
2, 54144, Note_on_c, 0, 77, 110
2, 54524, Note_off_c, 0, 65, 100
2, 54524, Note_off_c, 0, 77, 100
2, 54528, Note_on_c, 0, 58, 110
2, 54528, Note_on_c, 0, 70, 110
2, 54908, Note_off_c, 0, 58, 100
2, 54908, Note_off_c, 0, 70, 100
2, 55296, Note_on_c, 0, 58, 80
2, 55676, Note_off_c, 0, 58, 100
2, 55680, Note_on_c, 0, 77, 80
2, 55680, Note_on_c, 0, 74, 80
2, 55680, Note_on_c, 0, 71, 80
2, 55680, Note_on_c, 0, 68, 80
2, 56444, Note_off_c, 0, 77, 100
2, 56444, Note_off_c, 0, 74, 100
2, 56444, Note_off_c, 0, 71, 100
2, 56444, Note_off_c, 0, 68, 100
2, 56448, Note_on_c, 0, 58, 80
2, 56828, Note_off_c, 0, 58, 100
2, 56832, Note_on_c, 0, 74, 80
2, 56832, Note_on_c, 0, 71, 80
2, 56832, Note_on_c, 0, 68, 80
2, 56832, Note_on_c, 0, 65, 80
2, 57596, Note_off_c, 0, 74, 100
2, 57596, Note_off_c, 0, 71, 100
2, 57596, Note_off_c, 0, 68, 100
2, 57596, Note_off_c, 0, 65, 100
2, 57600, Note_on_c, 0, 58, 80
2, 57980, Note_off_c, 0, 58, 100
2, 57984, Note_on_c, 0, 77, 82
2, 57984, Note_on_c, 0, 74, 82
2, 57984, Note_on_c, 0, 71, 82
2, 57984, Note_on_c, 0, 68, 82
2, 58364, Note_off_c, 0, 77, 100
2, 58364, Note_off_c, 0, 74, 100
2, 58364, Note_off_c, 0, 71, 100
2, 58364, Note_off_c, 0, 68, 100
2, 58368, Note_on_c, 0, 58, 85
2, 58748, Note_off_c, 0, 58, 100
2, 58752, Note_on_c, 0, 74, 88
2, 58752, Note_on_c, 0, 71, 88
2, 58752, Note_on_c, 0, 68, 88
2, 58752, Note_on_c, 0, 65, 88
2, 59132, Note_off_c, 0, 74, 100
2, 59132, Note_off_c, 0, 71, 100
2, 59132, Note_off_c, 0, 68, 100
2, 59132, Note_off_c, 0, 65, 100
2, 59136, Note_on_c, 0, 58, 91
2, 59516, Note_off_c, 0, 58, 100
2, 59520, Note_on_c, 0, 74, 94
2, 59520, Note_on_c, 0, 71, 94
2, 59520, Note_on_c, 0, 68, 94
2, 59520, Note_on_c, 0, 65, 94
2, 59900, Note_off_c, 0, 74, 100
2, 59900, Note_off_c, 0, 71, 100
2, 59900, Note_off_c, 0, 68, 100
2, 59900, Note_off_c, 0, 65, 100
2, 59904, Note_on_c, 0, 58, 96
2, 60284, Note_off_c, 0, 58, 100
2, 60288, Note_on_c, 0, 74, 99
2, 60288, Note_on_c, 0, 71, 99
2, 60288, Note_on_c, 0, 68, 99
2, 60288, Note_on_c, 0, 65, 99
2, 60668, Note_off_c, 0, 74, 100
2, 60668, Note_off_c, 0, 71, 100
2, 60668, Note_off_c, 0, 68, 100
2, 60668, Note_off_c, 0, 65, 100
2, 60672, Note_on_c, 0, 58, 102
2, 61052, Note_off_c, 0, 58, 100
2, 61056, Note_on_c, 0, 74, 105
2, 61056, Note_on_c, 0, 71, 105
2, 61056, Note_on_c, 0, 68, 105
2, 61056, Note_on_c, 0, 65, 105
2, 61436, Note_off_c, 0, 74, 100
2, 61436, Note_off_c, 0, 71, 100
2, 61436, Note_off_c, 0, 68, 100
2, 61436, Note_off_c, 0, 65, 100
2, 61440, Note_on_c, 0, 58, 108
2, 61820, Note_off_c, 0, 58, 100
2, 62208, Note_on_c, 0, 67, 80
2, 62208, Note_on_c, 0, 63, 80
2, 62208, Note_on_c, 0, 55, 80
2, 62588, Note_off_c, 0, 67, 100
2, 62588, Note_off_c, 0, 63, 100
2, 62588, Note_off_c, 0, 55, 100
2, 62592, Note_on_c, 0, 80, 80
2, 62592, Note_on_c, 0, 74, 80
2, 62592, Note_on_c, 0, 68, 80
2, 63356, Note_off_c, 0, 80, 100
2, 63356, Note_off_c, 0, 74, 100
2, 63356, Note_off_c, 0, 68, 100
2, 63360, Note_on_c, 0, 68, 80
2, 63360, Note_on_c, 0, 62, 80
2, 63360, Note_on_c, 0, 56, 80
2, 63740, Note_off_c, 0, 68, 100
2, 63740, Note_off_c, 0, 62, 100
2, 63740, Note_off_c, 0, 56, 100
2, 63744, Note_on_c, 0, 82, 80
2, 63744, Note_on_c, 0, 75, 80
2, 63744, Note_on_c, 0, 70, 80
2, 64508, Note_off_c, 0, 82, 100
2, 64508, Note_off_c, 0, 75, 100
2, 64508, Note_off_c, 0, 70, 100
2, 64512, Note_on_c, 0, 70, 80
2, 64512, Note_on_c, 0, 63, 80
2, 64892, Note_off_c, 0, 70, 100
2, 64892, Note_off_c, 0, 63, 100
2, 64896, Note_on_c, 0, 72, 80
2, 64896, Note_on_c, 0, 63, 80
2, 65468, Note_off_c, 0, 72, 100
2, 65468, Note_off_c, 0, 63, 100
2, 65472, Note_on_c, 0, 70, 80
2, 65472, Note_on_c, 0, 63, 80
2, 65660, Note_off_c, 0, 70, 100
2, 65660, Note_off_c, 0, 63, 100
2, 65664, Note_on_c, 0, 74, 80
2, 65664, Note_on_c, 0, 68, 80
2, 65852, Note_off_c, 0, 74, 100
2, 65852, Note_off_c, 0, 68, 100
2, 65856, Note_on_c, 0, 75, 80
2, 65856, Note_on_c, 0, 67, 80
2, 66044, Note_off_c, 0, 75, 100
2, 66044, Note_off_c, 0, 67, 100
2, 66048, Note_on_c, 0, 77, 80
2, 66048, Note_on_c, 0, 74, 80
2, 66236, Note_off_c, 0, 77, 100
2, 66236, Note_off_c, 0, 74, 100
2, 66240, Note_on_c, 0, 75, 80
2, 66240, Note_on_c, 0, 80, 80
2, 66332, Note_off_c, 0, 80, 100
2, 66336, Note_on_c, 0, 79, 80
2, 66428, Note_off_c, 0, 75, 100
2, 66428, Note_off_c, 0, 79, 100
2, 66432, Note_on_c, 0, 77, 80
2, 66432, Note_on_c, 0, 74, 80
2, 66620, Note_off_c, 0, 77, 100
2, 66620, Note_off_c, 0, 74, 100
2, 66816, Note_on_c, 0, 67, 80
2, 66816, Note_on_c, 0, 63, 80
2, 66816, Note_on_c, 0, 55, 80
2, 67196, Note_off_c, 0, 67, 100
2, 67196, Note_off_c, 0, 63, 100
2, 67196, Note_off_c, 0, 55, 100
2, 67200, Note_on_c, 0, 81, 80
2, 67200, Note_on_c, 0, 75, 80
2, 67200, Note_on_c, 0, 69, 80
2, 67964, Note_off_c, 0, 81, 100
2, 67964, Note_off_c, 0, 75, 100
2, 67964, Note_off_c, 0, 69, 100
2, 67968, Note_on_c, 0, 70, 80
2, 67968, Note_on_c, 0, 63, 80
2, 67968, Note_on_c, 0, 58, 80
2, 68348, Note_off_c, 0, 70, 100
2, 68348, Note_off_c, 0, 63, 100
2, 68348, Note_off_c, 0, 58, 100
2, 68352, Note_on_c, 0, 84, 80
2, 68352, Note_on_c, 0, 78, 80
2, 68352, Note_on_c, 0, 75, 80
2, 68352, Note_on_c, 0, 72, 80
2, 69116, Note_off_c, 0, 84, 100
2, 69116, Note_off_c, 0, 78, 100
2, 69116, Note_off_c, 0, 75, 100
2, 69116, Note_off_c, 0, 72, 100
2, 69120, Note_on_c, 0, 86, 110
2, 69120, Note_on_c, 0, 74, 110
2, 69500, Note_off_c, 0, 86, 100
2, 69500, Note_off_c, 0, 74, 100
2, 69504, Note_on_c, 0, 87, 101
2, 69504, Note_on_c, 0, 75, 101
2, 69788, Note_off_c, 0, 87, 100
2, 69788, Note_off_c, 0, 75, 100
2, 69792, Note_on_c, 0, 72, 93
2, 69792, Note_on_c, 0, 84, 93
2, 69884, Note_off_c, 0, 72, 100
2, 69884, Note_off_c, 0, 84, 100
2, 69888, Note_on_c, 0, 82, 91
2, 69888, Note_on_c, 0, 70, 91
2, 70268, Note_off_c, 0, 82, 100
2, 70268, Note_off_c, 0, 70, 100
2, 70272, Note_on_c, 0, 82, 80
2, 70272, Note_on_c, 0, 70, 80
2, 70652, Note_off_c, 0, 82, 100
2, 70652, Note_off_c, 0, 70, 100
2, 70656, Note_on_c, 0, 75, 80
2, 70656, Note_on_c, 0, 63, 80
2, 71036, Note_off_c, 0, 75, 100
2, 71036, Note_off_c, 0, 63, 100
2, 71424, Note_on_c, 0, 58, 80
2, 71804, Note_off_c, 0, 58, 100
2, 71808, Note_on_c, 0, 77, 80
2, 71808, Note_on_c, 0, 74, 80
2, 71808, Note_on_c, 0, 71, 80
2, 71808, Note_on_c, 0, 68, 80
2, 72572, Note_off_c, 0, 77, 100
2, 72572, Note_off_c, 0, 74, 100
2, 72572, Note_off_c, 0, 71, 100
2, 72572, Note_off_c, 0, 68, 100
2, 72576, Note_on_c, 0, 58, 80
2, 72956, Note_off_c, 0, 58, 100
2, 72960, Note_on_c, 0, 74, 80
2, 72960, Note_on_c, 0, 71, 80
2, 72960, Note_on_c, 0, 68, 80
2, 72960, Note_on_c, 0, 65, 80
2, 73724, Note_off_c, 0, 74, 100
2, 73724, Note_off_c, 0, 71, 100
2, 73724, Note_off_c, 0, 68, 100
2, 73724, Note_off_c, 0, 65, 100
2, 73728, Note_on_c, 0, 58, 80
2, 74108, Note_off_c, 0, 58, 100
2, 74112, Note_on_c, 0, 77, 82
2, 74112, Note_on_c, 0, 74, 82
2, 74112, Note_on_c, 0, 71, 82
2, 74112, Note_on_c, 0, 68, 82
2, 74492, Note_off_c, 0, 77, 100
2, 74492, Note_off_c, 0, 74, 100
2, 74492, Note_off_c, 0, 71, 100
2, 74492, Note_off_c, 0, 68, 100
2, 74496, Note_on_c, 0, 58, 85
2, 74876, Note_off_c, 0, 58, 100
2, 74880, Note_on_c, 0, 74, 88
2, 74880, Note_on_c, 0, 71, 88
2, 74880, Note_on_c, 0, 68, 88
2, 74880, Note_on_c, 0, 65, 88
2, 75260, Note_off_c, 0, 74, 100
2, 75260, Note_off_c, 0, 71, 100
2, 75260, Note_off_c, 0, 68, 100
2, 75260, Note_off_c, 0, 65, 100
2, 75264, Note_on_c, 0, 58, 91
2, 75644, Note_off_c, 0, 58, 100
2, 75648, Note_on_c, 0, 74, 94
2, 75648, Note_on_c, 0, 71, 94
2, 75648, Note_on_c, 0, 68, 94
2, 75648, Note_on_c, 0, 65, 94
2, 76028, Note_off_c, 0, 74, 100
2, 76028, Note_off_c, 0, 71, 100
2, 76028, Note_off_c, 0, 68, 100
2, 76028, Note_off_c, 0, 65, 100
2, 76032, Note_on_c, 0, 58, 96
2, 76412, Note_off_c, 0, 58, 100
2, 76416, Note_on_c, 0, 74, 99
2, 76416, Note_on_c, 0, 71, 99
2, 76416, Note_on_c, 0, 68, 99
2, 76416, Note_on_c, 0, 65, 99
2, 76796, Note_off_c, 0, 74, 100
2, 76796, Note_off_c, 0, 71, 100
2, 76796, Note_off_c, 0, 68, 100
2, 76796, Note_off_c, 0, 65, 100
2, 76800, Note_on_c, 0, 58, 102
2, 77180, Note_off_c, 0, 58, 100
2, 77184, Note_on_c, 0, 74, 105
2, 77184, Note_on_c, 0, 71, 105
2, 77184, Note_on_c, 0, 68, 105
2, 77184, Note_on_c, 0, 65, 105
2, 77564, Note_off_c, 0, 74, 100
2, 77564, Note_off_c, 0, 71, 100
2, 77564, Note_off_c, 0, 68, 100
2, 77564, Note_off_c, 0, 65, 100
2, 77568, Note_on_c, 0, 58, 108
2, 77948, Note_off_c, 0, 58, 100
2, 78336, Note_on_c, 0, 67, 80
2, 78336, Note_on_c, 0, 63, 80
2, 78336, Note_on_c, 0, 55, 80
2, 78716, Note_off_c, 0, 67, 100
2, 78716, Note_off_c, 0, 63, 100
2, 78716, Note_off_c, 0, 55, 100
2, 78720, Note_on_c, 0, 80, 80
2, 78720, Note_on_c, 0, 74, 80
2, 78720, Note_on_c, 0, 68, 80
2, 79484, Note_off_c, 0, 80, 100
2, 79484, Note_off_c, 0, 74, 100
2, 79484, Note_off_c, 0, 68, 100
2, 79488, Note_on_c, 0, 68, 80
2, 79488, Note_on_c, 0, 62, 80
2, 79488, Note_on_c, 0, 56, 80
2, 79868, Note_off_c, 0, 68, 100
2, 79868, Note_off_c, 0, 62, 100
2, 79868, Note_off_c, 0, 56, 100
2, 79872, Note_on_c, 0, 82, 80
2, 79872, Note_on_c, 0, 75, 80
2, 79872, Note_on_c, 0, 70, 80
2, 80636, Note_off_c, 0, 82, 100
2, 80636, Note_off_c, 0, 75, 100
2, 80636, Note_off_c, 0, 70, 100
2, 80640, Note_on_c, 0, 70, 80
2, 80640, Note_on_c, 0, 63, 80
2, 81020, Note_off_c, 0, 70, 100
2, 81020, Note_off_c, 0, 63, 100
2, 81024, Note_on_c, 0, 72, 80
2, 81024, Note_on_c, 0, 63, 80
2, 81596, Note_off_c, 0, 72, 100
2, 81596, Note_off_c, 0, 63, 100
2, 81600, Note_on_c, 0, 70, 80
2, 81600, Note_on_c, 0, 63, 80
2, 81788, Note_off_c, 0, 70, 100
2, 81788, Note_off_c, 0, 63, 100
2, 81792, Note_on_c, 0, 74, 80
2, 81792, Note_on_c, 0, 68, 80
2, 81980, Note_off_c, 0, 74, 100
2, 81980, Note_off_c, 0, 68, 100
2, 81984, Note_on_c, 0, 75, 80
2, 81984, Note_on_c, 0, 67, 80
2, 82172, Note_off_c, 0, 75, 100
2, 82172, Note_off_c, 0, 67, 100
2, 82176, Note_on_c, 0, 77, 80
2, 82176, Note_on_c, 0, 74, 80
2, 82364, Note_off_c, 0, 77, 100
2, 82364, Note_off_c, 0, 74, 100
2, 82368, Note_on_c, 0, 75, 80
2, 82368, Note_on_c, 0, 80, 80
2, 82460, Note_off_c, 0, 80, 100
2, 82464, Note_on_c, 0, 79, 80
2, 82556, Note_off_c, 0, 75, 100
2, 82556, Note_off_c, 0, 79, 100
2, 82560, Note_on_c, 0, 77, 80
2, 82560, Note_on_c, 0, 74, 80
2, 82748, Note_off_c, 0, 77, 100
2, 82748, Note_off_c, 0, 74, 100
2, 82944, Note_on_c, 0, 67, 80
2, 82944, Note_on_c, 0, 63, 80
2, 82944, Note_on_c, 0, 55, 80
2, 83324, Note_off_c, 0, 67, 100
2, 83324, Note_off_c, 0, 63, 100
2, 83324, Note_off_c, 0, 55, 100
2, 83328, Note_on_c, 0, 81, 80
2, 83328, Note_on_c, 0, 75, 80
2, 83328, Note_on_c, 0, 69, 80
2, 84092, Note_off_c, 0, 81, 100
2, 84092, Note_off_c, 0, 75, 100
2, 84092, Note_off_c, 0, 69, 100
2, 84096, Note_on_c, 0, 70, 80
2, 84096, Note_on_c, 0, 63, 80
2, 84096, Note_on_c, 0, 58, 80
2, 84476, Note_off_c, 0, 70, 100
2, 84476, Note_off_c, 0, 63, 100
2, 84476, Note_off_c, 0, 58, 100
2, 84480, Note_on_c, 0, 84, 80
2, 84480, Note_on_c, 0, 78, 80
2, 84480, Note_on_c, 0, 75, 80
2, 84480, Note_on_c, 0, 72, 80
2, 85244, Note_off_c, 0, 84, 100
2, 85244, Note_off_c, 0, 78, 100
2, 85244, Note_off_c, 0, 75, 100
2, 85244, Note_off_c, 0, 72, 100
2, 85248, Note_on_c, 0, 86, 110
2, 85248, Note_on_c, 0, 74, 110
2, 85628, Note_off_c, 0, 86, 100
2, 85628, Note_off_c, 0, 74, 100
2, 85632, Note_on_c, 0, 87, 101
2, 85632, Note_on_c, 0, 75, 101
2, 85916, Note_off_c, 0, 87, 100
2, 85916, Note_off_c, 0, 75, 100
2, 85920, Note_on_c, 0, 72, 93
2, 85920, Note_on_c, 0, 84, 93
2, 86012, Note_off_c, 0, 72, 100
2, 86012, Note_off_c, 0, 84, 100
2, 86016, Note_on_c, 0, 82, 91
2, 86016, Note_on_c, 0, 70, 91
2, 86396, Note_off_c, 0, 82, 100
2, 86396, Note_off_c, 0, 70, 100
2, 86400, Note_on_c, 0, 82, 80
2, 86400, Note_on_c, 0, 70, 80
2, 86780, Note_off_c, 0, 82, 100
2, 86780, Note_off_c, 0, 70, 100
2, 86784, Note_on_c, 0, 75, 80
2, 86784, Note_on_c, 0, 63, 80
2, 87164, Note_off_c, 0, 75, 100
2, 87164, Note_off_c, 0, 63, 100
2, 87552, Note_on_c, 0, 58, 80
2, 87836, Note_off_c, 0, 58, 100
2, 87840, Note_on_c, 0, 63, 80
2, 87932, Note_off_c, 0, 63, 100
2, 87936, Note_on_c, 0, 63, 80
2, 88700, Note_off_c, 0, 63, 100
2, 88704, Note_on_c, 0, 67, 80
2, 88988, Note_off_c, 0, 67, 100
2, 88992, Note_on_c, 0, 63, 80
2, 89084, Note_off_c, 0, 63, 100
2, 89088, Note_on_c, 0, 63, 80
2, 89468, Note_off_c, 0, 63, 100
2, 89472, Note_on_c, 0, 62, 80
2, 90044, Note_off_c, 0, 62, 100
2, 90048, Note_on_c, 0, 63, 80
2, 90236, Note_off_c, 0, 63, 100
2, 90240, Note_on_c, 0, 65, 80
2, 90240, Note_on_c, 0, 58, 80
2, 90428, Note_off_c, 0, 58, 100
2, 90432, Note_on_c, 0, 58, 80
2, 90620, Note_off_c, 0, 58, 100
2, 90624, Note_on_c, 0, 58, 80
2, 90812, Note_off_c, 0, 65, 100
2, 90812, Note_off_c, 0, 58, 100
2, 90816, Note_on_c, 0, 67, 80
2, 90816, Note_on_c, 0, 58, 80
2, 91004, Note_off_c, 0, 67, 100
2, 91004, Note_off_c, 0, 58, 100
2, 91008, Note_on_c, 0, 68, 80
2, 91008, Note_on_c, 0, 65, 80
2, 91008, Note_on_c, 0, 58, 80
2, 91196, Note_off_c, 0, 68, 100
2, 91196, Note_off_c, 0, 65, 100
2, 91196, Note_off_c, 0, 58, 100
2, 91200, Note_on_c, 0, 70, 80
2, 91200, Note_on_c, 0, 65, 80
2, 91200, Note_on_c, 0, 58, 80
2, 91388, Note_off_c, 0, 70, 100
2, 91388, Note_off_c, 0, 65, 100
2, 91388, Note_off_c, 0, 58, 100
2, 91392, Note_on_c, 0, 58, 80
2, 91392, Note_on_c, 0, 68, 80
2, 91392, Note_on_c, 0, 65, 80
2, 91580, Note_off_c, 0, 58, 100
2, 91584, Note_on_c, 0, 58, 80
2, 91772, Note_off_c, 0, 68, 100
2, 91772, Note_off_c, 0, 65, 100
2, 91772, Note_off_c, 0, 58, 100
2, 91776, Note_on_c, 0, 58, 80
2, 91776, Note_on_c, 0, 67, 80
2, 91776, Note_on_c, 0, 63, 80
2, 91964, Note_off_c, 0, 58, 100
2, 91968, Note_on_c, 0, 58, 80
2, 92156, Note_off_c, 0, 67, 100
2, 92156, Note_off_c, 0, 63, 100
2, 92156, Note_off_c, 0, 58, 100
2, 92160, Note_on_c, 0, 63, 80
2, 92160, Note_on_c, 0, 67, 80
2, 92348, Note_off_c, 0, 63, 100
2, 92352, Note_on_c, 0, 63, 80
2, 92444, Note_off_c, 0, 67, 100
2, 92448, Note_on_c, 0, 68, 80
2, 92540, Note_off_c, 0, 63, 100
2, 92540, Note_off_c, 0, 68, 100
2, 92544, Note_on_c, 0, 70, 80
2, 92544, Note_on_c, 0, 63, 80
2, 92732, Note_off_c, 0, 63, 100
2, 92736, Note_on_c, 0, 63, 80
2, 92924, Note_off_c, 0, 63, 100
2, 92928, Note_on_c, 0, 63, 80
2, 93116, Note_off_c, 0, 70, 100
2, 93116, Note_off_c, 0, 63, 100
2, 93120, Note_on_c, 0, 67, 80
2, 93120, Note_on_c, 0, 63, 80
2, 93308, Note_off_c, 0, 67, 100
2, 93308, Note_off_c, 0, 63, 100
2, 93312, Note_on_c, 0, 72, 80
2, 93312, Note_on_c, 0, 63, 80
2, 93500, Note_off_c, 0, 72, 100
2, 93500, Note_off_c, 0, 63, 100
2, 93504, Note_on_c, 0, 68, 80
2, 93504, Note_on_c, 0, 63, 80
2, 93692, Note_off_c, 0, 68, 100
2, 93692, Note_off_c, 0, 63, 100
2, 93696, Note_on_c, 0, 70, 80
2, 93696, Note_on_c, 0, 63, 80
2, 93884, Note_off_c, 0, 63, 100
2, 93888, Note_on_c, 0, 63, 80
2, 94076, Note_off_c, 0, 63, 100
2, 94080, Note_on_c, 0, 63, 80
2, 94268, Note_off_c, 0, 70, 100
2, 94268, Note_off_c, 0, 63, 100
2, 94272, Note_on_c, 0, 71, 80
2, 94272, Note_on_c, 0, 63, 80
2, 94460, Note_off_c, 0, 71, 100
2, 94460, Note_off_c, 0, 63, 100
2, 94464, Note_on_c, 0, 72, 80
2, 94464, Note_on_c, 0, 63, 80
2, 94652, Note_off_c, 0, 72, 100
2, 94652, Note_off_c, 0, 63, 100
2, 94656, Note_on_c, 0, 70, 80
2, 94656, Note_on_c, 0, 63, 80
2, 94844, Note_off_c, 0, 70, 100
2, 94844, Note_off_c, 0, 63, 100
2, 94848, Note_on_c, 0, 70, 80
2, 94848, Note_on_c, 0, 60, 80
2, 95036, Note_off_c, 0, 70, 100
2, 95036, Note_off_c, 0, 60, 100
2, 95040, Note_on_c, 0, 60, 80
2, 95040, Note_on_c, 0, 68, 80
2, 95228, Note_off_c, 0, 60, 100
2, 95232, Note_on_c, 0, 61, 80
2, 95420, Note_off_c, 0, 68, 100
2, 95420, Note_off_c, 0, 61, 100
2, 95424, Note_on_c, 0, 65, 80
2, 95424, Note_on_c, 0, 62, 80
2, 95424, Note_on_c, 0, 58, 80
2, 95612, Note_off_c, 0, 65, 100
2, 95612, Note_off_c, 0, 62, 100
2, 95612, Note_off_c, 0, 58, 100
2, 95616, Note_on_c, 0, 67, 80
2, 95616, Note_on_c, 0, 63, 80
2, 95616, Note_on_c, 0, 58, 80
2, 95804, Note_off_c, 0, 67, 100
2, 95804, Note_off_c, 0, 63, 100
2, 95804, Note_off_c, 0, 58, 100
2, 95808, Note_on_c, 0, 70, 80
2, 95808, Note_on_c, 0, 65, 80
2, 95808, Note_on_c, 0, 60, 80
2, 95900, Note_off_c, 0, 70, 100
2, 95904, Note_on_c, 0, 68, 80
2, 95996, Note_off_c, 0, 65, 100
2, 95996, Note_off_c, 0, 60, 100
2, 95996, Note_off_c, 0, 68, 100
2, 96000, Note_on_c, 0, 67, 80
2, 96000, Note_on_c, 0, 63, 80
2, 96188, Note_off_c, 0, 63, 100
2, 96192, Note_on_c, 0, 58, 80
2, 96380, Note_off_c, 0, 67, 100
2, 96380, Note_off_c, 0, 58, 100
2, 96384, Note_on_c, 0, 62, 80
2, 96384, Note_on_c, 0, 65, 80
2, 96572, Note_off_c, 0, 62, 100
2, 96572, Note_off_c, 0, 65, 100
2, 96768, Note_on_c, 0, 58, 80
2, 96960, Note_on_c, 0, 56, 80
2, 97052, Note_off_c, 0, 58, 100
2, 97056, Note_on_c, 0, 63, 80
2, 97148, Note_off_c, 0, 56, 100
2, 97148, Note_off_c, 0, 63, 100
2, 97152, Note_on_c, 0, 55, 80
2, 97152, Note_on_c, 0, 63, 80
2, 97340, Note_off_c, 0, 55, 100
2, 97724, Note_off_c, 0, 63, 100
2, 97728, Note_on_c, 0, 65, 80
2, 97772, Note_off_c, 0, 65, 100
2, 97776, Note_on_c, 0, 63, 80
2, 97820, Note_off_c, 0, 63, 100
2, 97824, Note_on_c, 0, 62, 80
2, 97868, Note_off_c, 0, 62, 100
2, 97872, Note_on_c, 0, 63, 80
2, 97916, Note_off_c, 0, 63, 100
2, 97920, Note_on_c, 0, 67, 80
2, 98204, Note_off_c, 0, 67, 100
2, 98208, Note_on_c, 0, 63, 80
2, 98300, Note_off_c, 0, 63, 100
2, 98304, Note_on_c, 0, 63, 80
2, 98684, Note_off_c, 0, 63, 100
2, 98688, Note_on_c, 0, 62, 80
2, 99260, Note_off_c, 0, 62, 100
2, 99264, Note_on_c, 0, 63, 80
2, 99452, Note_off_c, 0, 63, 100
2, 99456, Note_on_c, 0, 65, 80
2, 99456, Note_on_c, 0, 58, 80
2, 99644, Note_off_c, 0, 58, 100
2, 99648, Note_on_c, 0, 58, 80
2, 99836, Note_off_c, 0, 58, 100
2, 99840, Note_on_c, 0, 58, 80
2, 100028, Note_off_c, 0, 65, 100
2, 100028, Note_off_c, 0, 58, 100
2, 100032, Note_on_c, 0, 67, 80
2, 100032, Note_on_c, 0, 58, 80
2, 100220, Note_off_c, 0, 67, 100
2, 100220, Note_off_c, 0, 58, 100
2, 100224, Note_on_c, 0, 68, 80
2, 100224, Note_on_c, 0, 65, 80
2, 100224, Note_on_c, 0, 58, 80
2, 100412, Note_off_c, 0, 68, 100
2, 100412, Note_off_c, 0, 65, 100
2, 100412, Note_off_c, 0, 58, 100
2, 100416, Note_on_c, 0, 70, 80
2, 100416, Note_on_c, 0, 65, 80
2, 100416, Note_on_c, 0, 58, 80
2, 100604, Note_off_c, 0, 70, 100
2, 100604, Note_off_c, 0, 65, 100
2, 100604, Note_off_c, 0, 58, 100
2, 100608, Note_on_c, 0, 58, 80
2, 100608, Note_on_c, 0, 68, 80
2, 100608, Note_on_c, 0, 65, 80
2, 100796, Note_off_c, 0, 58, 100
2, 100800, Note_on_c, 0, 58, 80
2, 100988, Note_off_c, 0, 68, 100
2, 100988, Note_off_c, 0, 65, 100
2, 100988, Note_off_c, 0, 58, 100
2, 100992, Note_on_c, 0, 58, 80
2, 100992, Note_on_c, 0, 67, 80
2, 100992, Note_on_c, 0, 63, 80
2, 101180, Note_off_c, 0, 58, 100
2, 101184, Note_on_c, 0, 58, 80
2, 101372, Note_off_c, 0, 67, 100
2, 101372, Note_off_c, 0, 63, 100
2, 101372, Note_off_c, 0, 58, 100
2, 101376, Note_on_c, 0, 63, 80
2, 101376, Note_on_c, 0, 67, 80
2, 101564, Note_off_c, 0, 63, 100
2, 101568, Note_on_c, 0, 63, 80
2, 101660, Note_off_c, 0, 67, 100
2, 101664, Note_on_c, 0, 68, 80
2, 101756, Note_off_c, 0, 63, 100
2, 101756, Note_off_c, 0, 68, 100
2, 101760, Note_on_c, 0, 70, 80
2, 101760, Note_on_c, 0, 63, 80
2, 101948, Note_off_c, 0, 63, 100
2, 101952, Note_on_c, 0, 63, 80
2, 102140, Note_off_c, 0, 63, 100
2, 102144, Note_on_c, 0, 63, 80
2, 102332, Note_off_c, 0, 70, 100
2, 102332, Note_off_c, 0, 63, 100
2, 102336, Note_on_c, 0, 67, 80
2, 102336, Note_on_c, 0, 63, 80
2, 102524, Note_off_c, 0, 67, 100
2, 102524, Note_off_c, 0, 63, 100
2, 102528, Note_on_c, 0, 72, 80
2, 102528, Note_on_c, 0, 63, 80
2, 102716, Note_off_c, 0, 72, 100
2, 102716, Note_off_c, 0, 63, 100
2, 102720, Note_on_c, 0, 68, 80
2, 102720, Note_on_c, 0, 63, 80
2, 102908, Note_off_c, 0, 68, 100
2, 102908, Note_off_c, 0, 63, 100
2, 102912, Note_on_c, 0, 70, 80
2, 102912, Note_on_c, 0, 63, 80
2, 103100, Note_off_c, 0, 63, 100
2, 103104, Note_on_c, 0, 63, 80
2, 103292, Note_off_c, 0, 63, 100
2, 103296, Note_on_c, 0, 63, 80
2, 103484, Note_off_c, 0, 70, 100
2, 103484, Note_off_c, 0, 63, 100
2, 103488, Note_on_c, 0, 71, 80
2, 103488, Note_on_c, 0, 63, 80
2, 103676, Note_off_c, 0, 71, 100
2, 103676, Note_off_c, 0, 63, 100
2, 103680, Note_on_c, 0, 72, 80
2, 103680, Note_on_c, 0, 63, 80
2, 103868, Note_off_c, 0, 72, 100
2, 103868, Note_off_c, 0, 63, 100
2, 103872, Note_on_c, 0, 70, 80
2, 103872, Note_on_c, 0, 63, 80
2, 104060, Note_off_c, 0, 70, 100
2, 104060, Note_off_c, 0, 63, 100
2, 104064, Note_on_c, 0, 70, 80
2, 104064, Note_on_c, 0, 60, 80
2, 104252, Note_off_c, 0, 70, 100
2, 104252, Note_off_c, 0, 60, 100
2, 104256, Note_on_c, 0, 60, 80
2, 104256, Note_on_c, 0, 68, 80
2, 104444, Note_off_c, 0, 60, 100
2, 104448, Note_on_c, 0, 61, 80
2, 104512, Note_off_c, 0, 68, 100
2, 104636, Note_off_c, 0, 61, 100
2, 104640, Note_on_c, 0, 65, 80
2, 104640, Note_on_c, 0, 62, 80
2, 104640, Note_on_c, 0, 58, 80
2, 104828, Note_off_c, 0, 65, 100
2, 104828, Note_off_c, 0, 62, 100
2, 104828, Note_off_c, 0, 58, 100
2, 104832, Note_on_c, 0, 67, 80
2, 104832, Note_on_c, 0, 63, 80
2, 104832, Note_on_c, 0, 58, 80
2, 105020, Note_off_c, 0, 67, 100
2, 105020, Note_off_c, 0, 63, 100
2, 105020, Note_off_c, 0, 58, 100
2, 105024, Note_on_c, 0, 70, 80
2, 105024, Note_on_c, 0, 65, 80
2, 105024, Note_on_c, 0, 60, 80
2, 105116, Note_off_c, 0, 70, 100
2, 105120, Note_on_c, 0, 68, 80
2, 105212, Note_off_c, 0, 65, 100
2, 105212, Note_off_c, 0, 60, 100
2, 105212, Note_off_c, 0, 68, 100
2, 105216, Note_on_c, 0, 67, 80
2, 105216, Note_on_c, 0, 63, 80
2, 105404, Note_off_c, 0, 63, 100
2, 105408, Note_on_c, 0, 58, 80
2, 105596, Note_off_c, 0, 67, 100
2, 105596, Note_off_c, 0, 58, 100
2, 105600, Note_on_c, 0, 62, 80
2, 105600, Note_on_c, 0, 65, 80
2, 105788, Note_off_c, 0, 62, 100
2, 105788, Note_off_c, 0, 65, 100
2, 105792, Note_on_c, 0, 58, 80
2, 105980, Note_off_c, 0, 58, 100
2, 105984, Note_on_c, 0, 70, 80
2, 106268, Note_off_c, 0, 70, 100
2, 106272, Note_on_c, 0, 71, 80
2, 106364, Note_off_c, 0, 71, 100
2, 106368, Note_on_c, 0, 71, 80
2, 107132, Note_off_c, 0, 71, 100
2, 107136, Note_on_c, 0, 70, 80
2, 107324, Note_off_c, 0, 70, 100
2, 107328, Note_on_c, 0, 68, 80
2, 107376, Note_on_c, 0, 70, 80
2, 107420, Note_off_c, 0, 68, 100
2, 107424, Note_on_c, 0, 68, 80
2, 107468, Note_off_c, 0, 70, 100
2, 107472, Note_on_c, 0, 70, 80
2, 107516, Note_off_c, 0, 68, 100
2, 107516, Note_off_c, 0, 70, 100
2, 107520, Note_on_c, 0, 67, 80
2, 107712, Note_on_c, 0, 75, 80
2, 107900, Note_off_c, 0, 67, 100
2, 107900, Note_off_c, 0, 75, 100
2, 107904, Note_on_c, 0, 68, 80
2, 107904, Note_on_c, 0, 74, 80
2, 108092, Note_off_c, 0, 74, 100
2, 108096, Note_on_c, 0, 77, 80
2, 108284, Note_off_c, 0, 68, 100
2, 108284, Note_off_c, 0, 77, 100
2, 108288, Note_on_c, 0, 75, 80
2, 108288, Note_on_c, 0, 70, 80
2, 108476, Note_off_c, 0, 75, 100
2, 108476, Note_off_c, 0, 70, 100
2, 108480, Note_on_c, 0, 70, 80
2, 108668, Note_off_c, 0, 70, 100
2, 108672, Note_on_c, 0, 71, 80
2, 109436, Note_off_c, 0, 71, 100
2, 109440, Note_on_c, 0, 70, 80
2, 109628, Note_off_c, 0, 70, 100
2, 109632, Note_on_c, 0, 68, 80
2, 109680, Note_on_c, 0, 70, 80
2, 109724, Note_off_c, 0, 68, 100
2, 109728, Note_on_c, 0, 68, 80
2, 109772, Note_off_c, 0, 70, 100
2, 109776, Note_on_c, 0, 70, 80
2, 109820, Note_off_c, 0, 68, 100
2, 109820, Note_off_c, 0, 70, 100
2, 109824, Note_on_c, 0, 67, 80
2, 110016, Note_on_c, 0, 75, 80
2, 110204, Note_off_c, 0, 67, 100
2, 110204, Note_off_c, 0, 75, 100
2, 110208, Note_on_c, 0, 68, 80
2, 110208, Note_on_c, 0, 74, 80
2, 110396, Note_off_c, 0, 74, 100
2, 110400, Note_on_c, 0, 77, 80
2, 110588, Note_off_c, 0, 68, 100
2, 110588, Note_off_c, 0, 77, 100
2, 110592, Note_on_c, 0, 75, 80
2, 110592, Note_on_c, 0, 70, 80
2, 110780, Note_off_c, 0, 75, 100
2, 110780, Note_off_c, 0, 70, 100
2, 110784, Note_on_c, 0, 79, 80
2, 110972, Note_off_c, 0, 79, 100
2, 110976, Note_on_c, 0, 82, 80
2, 111360, Note_on_c, 0, 75, 80
2, 111548, Note_off_c, 0, 82, 100
2, 111552, Note_on_c, 0, 79, 80
2, 111740, Note_off_c, 0, 79, 100
2, 111744, Note_on_c, 0, 80, 80
2, 111932, Note_off_c, 0, 80, 100
2, 111936, Note_on_c, 0, 84, 80
2, 112124, Note_off_c, 0, 84, 100
2, 112128, Note_on_c, 0, 82, 80
2, 112508, Note_off_c, 0, 75, 100
2, 112512, Note_on_c, 0, 75, 80
2, 112700, Note_off_c, 0, 82, 100
2, 112704, Note_on_c, 0, 79, 80
2, 112892, Note_off_c, 0, 79, 100
2, 112896, Note_on_c, 0, 80, 80
2, 113084, Note_off_c, 0, 75, 100
2, 113084, Note_off_c, 0, 80, 100
2, 113088, Note_on_c, 0, 77, 80
2, 113088, Note_on_c, 0, 70, 80
2, 113276, Note_off_c, 0, 77, 100
2, 113276, Note_off_c, 0, 70, 100
2, 113280, Note_on_c, 0, 79, 80
2, 113280, Note_on_c, 0, 67, 80
2, 113468, Note_off_c, 0, 79, 100
2, 113468, Note_off_c, 0, 67, 100
2, 113472, Note_on_c, 0, 75, 80
2, 113472, Note_on_c, 0, 67, 80
2, 113660, Note_off_c, 0, 75, 100
2, 113660, Note_off_c, 0, 67, 100
2, 113664, Note_on_c, 0, 77, 80
2, 113664, Note_on_c, 0, 72, 80
2, 114044, Note_off_c, 0, 72, 100
2, 114048, Note_on_c, 0, 68, 80
2, 114236, Note_off_c, 0, 77, 100
2, 114240, Note_on_c, 0, 74, 80
2, 114428, Note_off_c, 0, 68, 100
2, 114428, Note_off_c, 0, 74, 100
2, 114432, Note_on_c, 0, 77, 80
2, 114432, Note_on_c, 0, 68, 80
2, 114812, Note_off_c, 0, 77, 100
2, 114812, Note_off_c, 0, 68, 100
2, 114816, Note_on_c, 0, 75, 80
2, 114816, Note_on_c, 0, 67, 80
2, 115004, Note_off_c, 0, 75, 100
2, 115004, Note_off_c, 0, 67, 100
2, 115200, Note_on_c, 0, 70, 80
2, 115484, Note_off_c, 0, 70, 100
2, 115488, Note_on_c, 0, 71, 80
2, 115580, Note_off_c, 0, 71, 100
2, 115584, Note_on_c, 0, 71, 80
2, 116348, Note_off_c, 0, 71, 100
2, 116352, Note_on_c, 0, 70, 80
2, 116540, Note_off_c, 0, 70, 100
2, 116544, Note_on_c, 0, 68, 80
2, 116592, Note_on_c, 0, 70, 80
2, 116636, Note_off_c, 0, 68, 100
2, 116640, Note_on_c, 0, 68, 80
2, 116684, Note_off_c, 0, 70, 100
2, 116688, Note_on_c, 0, 70, 80
2, 116732, Note_off_c, 0, 68, 100
2, 116732, Note_off_c, 0, 70, 100
2, 116736, Note_on_c, 0, 67, 80
2, 116928, Note_on_c, 0, 75, 80
2, 117116, Note_off_c, 0, 67, 100
2, 117116, Note_off_c, 0, 75, 100
2, 117120, Note_on_c, 0, 68, 80
2, 117120, Note_on_c, 0, 74, 80
2, 117308, Note_off_c, 0, 74, 100
2, 117312, Note_on_c, 0, 77, 80
2, 117500, Note_off_c, 0, 68, 100
2, 117500, Note_off_c, 0, 77, 100
2, 117504, Note_on_c, 0, 75, 80
2, 117504, Note_on_c, 0, 70, 80
2, 117692, Note_off_c, 0, 75, 100
2, 117692, Note_off_c, 0, 70, 100
2, 117696, Note_on_c, 0, 70, 80
2, 117884, Note_off_c, 0, 70, 100
2, 117888, Note_on_c, 0, 71, 80
2, 118652, Note_off_c, 0, 71, 100
2, 118656, Note_on_c, 0, 70, 80
2, 118844, Note_off_c, 0, 70, 100
2, 118848, Note_on_c, 0, 68, 80
2, 118896, Note_on_c, 0, 70, 80
2, 118940, Note_off_c, 0, 68, 100
2, 118944, Note_on_c, 0, 68, 80
2, 118988, Note_off_c, 0, 70, 100
2, 118992, Note_on_c, 0, 70, 80
2, 119036, Note_off_c, 0, 68, 100
2, 119036, Note_off_c, 0, 70, 100
2, 119040, Note_on_c, 0, 67, 80
2, 119232, Note_on_c, 0, 75, 80
2, 119420, Note_off_c, 0, 67, 100
2, 119420, Note_off_c, 0, 75, 100
2, 119424, Note_on_c, 0, 68, 80
2, 119424, Note_on_c, 0, 74, 80
2, 119612, Note_off_c, 0, 74, 100
2, 119616, Note_on_c, 0, 77, 80
2, 119804, Note_off_c, 0, 68, 100
2, 119804, Note_off_c, 0, 77, 100
2, 119808, Note_on_c, 0, 75, 80
2, 119808, Note_on_c, 0, 70, 80
2, 119996, Note_off_c, 0, 75, 100
2, 119996, Note_off_c, 0, 70, 100
2, 120000, Note_on_c, 0, 79, 80
2, 120188, Note_off_c, 0, 79, 100
2, 120192, Note_on_c, 0, 82, 80
2, 120576, Note_on_c, 0, 75, 80
2, 120764, Note_off_c, 0, 82, 100
2, 120768, Note_on_c, 0, 79, 80
2, 120956, Note_off_c, 0, 79, 100
2, 120960, Note_on_c, 0, 80, 80
2, 121148, Note_off_c, 0, 80, 100
2, 121152, Note_on_c, 0, 84, 80
2, 121340, Note_off_c, 0, 84, 100
2, 121344, Note_on_c, 0, 82, 80
2, 121724, Note_off_c, 0, 75, 100
2, 121728, Note_on_c, 0, 75, 80
2, 121916, Note_off_c, 0, 82, 100
2, 121920, Note_on_c, 0, 79, 80
2, 122108, Note_off_c, 0, 79, 100
2, 122112, Note_on_c, 0, 80, 80
2, 122300, Note_off_c, 0, 75, 100
2, 122300, Note_off_c, 0, 80, 100
2, 122304, Note_on_c, 0, 77, 80
2, 122304, Note_on_c, 0, 70, 80
2, 122492, Note_off_c, 0, 77, 100
2, 122492, Note_off_c, 0, 70, 100
2, 122496, Note_on_c, 0, 79, 80
2, 122496, Note_on_c, 0, 67, 80
2, 122684, Note_off_c, 0, 79, 100
2, 122684, Note_off_c, 0, 67, 100
2, 122688, Note_on_c, 0, 75, 80
2, 122688, Note_on_c, 0, 67, 80
2, 122876, Note_off_c, 0, 75, 100
2, 122876, Note_off_c, 0, 67, 100
2, 122880, Note_on_c, 0, 77, 80
2, 122880, Note_on_c, 0, 72, 80
2, 123260, Note_off_c, 0, 72, 100
2, 123264, Note_on_c, 0, 68, 80
2, 123452, Note_off_c, 0, 77, 100
2, 123456, Note_on_c, 0, 74, 80
2, 123644, Note_off_c, 0, 68, 100
2, 123644, Note_off_c, 0, 74, 100
2, 123648, Note_on_c, 0, 68, 80
2, 123648, Note_on_c, 0, 75, 80
2, 124028, Note_off_c, 0, 68, 100
2, 124028, Note_off_c, 0, 75, 100
2, 124416, Note_on_c, 0, 63, 80
2, 124700, Note_off_c, 0, 63, 100
2, 124704, Note_on_c, 0, 64, 80
2, 124796, Note_off_c, 0, 64, 100
2, 124800, Note_on_c, 0, 64, 80
2, 125184, Note_on_c, 0, 59, 80
2, 125184, Note_on_c, 0, 56, 80
2, 125564, Note_off_c, 0, 64, 100
2, 125564, Note_off_c, 0, 59, 100
2, 125564, Note_off_c, 0, 56, 100
2, 125568, Note_on_c, 0, 63, 80
2, 125852, Note_off_c, 0, 63, 100
2, 125856, Note_on_c, 0, 62, 80
2, 125948, Note_off_c, 0, 62, 100
2, 125952, Note_on_c, 0, 63, 80
2, 126332, Note_off_c, 0, 63, 100
2, 126336, Note_on_c, 0, 58, 80
2, 126336, Note_on_c, 0, 55, 80
2, 126716, Note_off_c, 0, 58, 100
2, 126716, Note_off_c, 0, 55, 100
2, 126720, Note_on_c, 0, 63, 80
2, 127004, Note_off_c, 0, 63, 100
2, 127008, Note_on_c, 0, 64, 80
2, 127100, Note_off_c, 0, 64, 100
2, 127104, Note_on_c, 0, 64, 80
2, 127488, Note_on_c, 0, 59, 80
2, 127488, Note_on_c, 0, 56, 80
2, 127868, Note_off_c, 0, 64, 100
2, 127868, Note_off_c, 0, 59, 100
2, 127868, Note_off_c, 0, 56, 100
2, 127872, Note_on_c, 0, 63, 80
2, 128156, Note_off_c, 0, 63, 100
2, 128160, Note_on_c, 0, 62, 80
2, 128252, Note_off_c, 0, 62, 100
2, 128256, Note_on_c, 0, 63, 80
2, 128636, Note_off_c, 0, 63, 100
2, 128640, Note_on_c, 0, 58, 79
2, 128640, Note_on_c, 0, 55, 79
2, 129020, Note_off_c, 0, 58, 100
2, 129020, Note_off_c, 0, 55, 100
2, 129024, Note_on_c, 0, 63, 78
2, 129024, Note_on_c, 0, 59, 78
2, 129024, Note_on_c, 0, 56, 78
2, 129308, Note_off_c, 0, 63, 100
2, 129312, Note_on_c, 0, 62, 77
2, 129404, Note_off_c, 0, 59, 100
2, 129404, Note_off_c, 0, 56, 100
2, 129404, Note_off_c, 0, 62, 100
2, 129408, Note_on_c, 0, 63, 77
2, 129788, Note_off_c, 0, 63, 100
2, 129792, Note_on_c, 0, 58, 76
2, 129792, Note_on_c, 0, 55, 76
2, 130172, Note_off_c, 0, 58, 100
2, 130172, Note_off_c, 0, 55, 100
2, 130176, Note_on_c, 0, 63, 75
2, 130176, Note_on_c, 0, 59, 75
2, 130176, Note_on_c, 0, 56, 75
2, 130460, Note_off_c, 0, 63, 100
2, 130464, Note_on_c, 0, 62, 74
2, 130556, Note_off_c, 0, 59, 100
2, 130556, Note_off_c, 0, 56, 100
2, 130556, Note_off_c, 0, 62, 100
2, 130560, Note_on_c, 0, 63, 74
2, 130944, Note_on_c, 0, 58, 73
2, 130944, Note_on_c, 0, 55, 73
2, 131228, Note_off_c, 0, 63, 100
2, 131232, Note_on_c, 0, 62, 72
2, 131324, Note_off_c, 0, 58, 100
2, 131324, Note_off_c, 0, 55, 100
2, 131324, Note_off_c, 0, 62, 100
2, 131328, Note_on_c, 0, 63, 71
2, 131612, Note_off_c, 0, 63, 100
2, 131616, Note_on_c, 0, 62, 71
2, 131708, Note_off_c, 0, 62, 100
2, 131712, Note_on_c, 0, 63, 70
2, 131996, Note_off_c, 0, 63, 100
2, 132000, Note_on_c, 0, 62, 70
2, 132092, Note_off_c, 0, 62, 100
2, 132096, Note_on_c, 0, 63, 70
2, 132096, Note_on_c, 0, 58, 70
2, 132096, Note_on_c, 0, 55, 70
2, 132380, Note_off_c, 0, 63, 100
2, 132384, Note_on_c, 0, 62, 70
2, 132476, Note_off_c, 0, 58, 100
2, 132476, Note_off_c, 0, 55, 100
2, 132476, Note_off_c, 0, 62, 100
2, 132480, Note_on_c, 0, 63, 70
2, 132480, Note_on_c, 0, 58, 70
2, 132480, Note_on_c, 0, 55, 70
2, 132764, Note_off_c, 0, 63, 100
2, 132768, Note_on_c, 0, 62, 70
2, 132860, Note_off_c, 0, 58, 100
2, 132860, Note_off_c, 0, 55, 100
2, 132860, Note_off_c, 0, 62, 100
2, 132864, Note_on_c, 0, 63, 70
2, 132864, Note_on_c, 0, 58, 70
2, 132864, Note_on_c, 0, 55, 70
2, 134012, Note_off_c, 0, 63, 100
2, 134012, Note_off_c, 0, 58, 100
2, 134012, Note_off_c, 0, 55, 100
2, 134400, Control_c, 0, 7, 0
2, 134784, Note_on_c, 0, 63, 1
2, 135164, Note_off_c, 0, 63, 100
2, 135164, End_track
3, 0, Start_track
3, 0, Title_t, "Left"
3, 0, Control_c, 1, 0, 0
3, 0, Program_c, 1, 0
3, 0, Control_c, 1, 7, 100
3, 0, Control_c, 1, 10, 59
3, 0, Control_c, 1, 91, 127
3, 0, Key_signature, -3, "major"
3, 384, Note_on_c, 1, 51, 80
3, 384, Note_on_c, 1, 55, 80
3, 572, Note_off_c, 1, 55, 100
3, 576, Note_on_c, 1, 58, 80
3, 764, Note_off_c, 1, 58, 100
3, 768, Note_on_c, 1, 55, 80
3, 956, Note_off_c, 1, 55, 100
3, 960, Note_on_c, 1, 58, 80
3, 1148, Note_off_c, 1, 58, 100
3, 1152, Note_on_c, 1, 55, 80
3, 1340, Note_off_c, 1, 55, 100
3, 1344, Note_on_c, 1, 58, 80
3, 1532, Note_off_c, 1, 51, 100
3, 1532, Note_off_c, 1, 58, 100
3, 1536, Note_on_c, 1, 53, 80
3, 1536, Note_on_c, 1, 56, 80
3, 1724, Note_off_c, 1, 56, 100
3, 1728, Note_on_c, 1, 58, 80
3, 1916, Note_off_c, 1, 58, 100
3, 1920, Note_on_c, 1, 56, 80
3, 2108, Note_off_c, 1, 56, 100
3, 2112, Note_on_c, 1, 58, 80
3, 2300, Note_off_c, 1, 58, 100
3, 2304, Note_on_c, 1, 56, 80
3, 2492, Note_off_c, 1, 53, 100
3, 2492, Note_off_c, 1, 56, 100
3, 2496, Note_on_c, 1, 51, 80
3, 2496, Note_on_c, 1, 55, 80
3, 2684, Note_off_c, 1, 51, 100
3, 2684, Note_off_c, 1, 55, 100
3, 2688, Note_on_c, 1, 53, 80
3, 2688, Note_on_c, 1, 50, 80
3, 3260, Note_off_c, 1, 53, 100
3, 3260, Note_off_c, 1, 50, 100
3, 3264, Note_on_c, 1, 51, 80
3, 3264, Note_on_c, 1, 48, 80
3, 3452, Note_off_c, 1, 51, 100
3, 3452, Note_off_c, 1, 48, 100
3, 3456, Note_on_c, 1, 50, 80
3, 3456, Note_on_c, 1, 46, 80
3, 3644, Note_off_c, 1, 50, 100
3, 3644, Note_off_c, 1, 46, 100
3, 3648, Note_on_c, 1, 53, 80
3, 3648, Note_on_c, 1, 50, 80
3, 3836, Note_off_c, 1, 53, 100
3, 3836, Note_off_c, 1, 50, 100
3, 3840, Note_on_c, 1, 51, 80
3, 4220, Note_off_c, 1, 51, 100
3, 4224, Note_on_c, 1, 39, 80
3, 4604, Note_off_c, 1, 39, 100
3, 4608, Note_on_c, 1, 51, 80
3, 4892, Note_off_c, 1, 51, 100
3, 4896, Note_on_c, 1, 53, 80
3, 4988, Note_off_c, 1, 53, 100
3, 4992, Note_on_c, 1, 55, 80
3, 5564, Note_off_c, 1, 55, 100
3, 5568, Note_on_c, 1, 51, 80
3, 5756, Note_off_c, 1, 51, 100
3, 5760, Note_on_c, 1, 56, 80
3, 5948, Note_off_c, 1, 56, 100
3, 5952, Note_on_c, 1, 53, 80
3, 6140, Note_off_c, 1, 53, 100
3, 6144, Note_on_c, 1, 55, 80
3, 6908, Note_off_c, 1, 55, 100
3, 6912, Note_on_c, 1, 56, 80
3, 7100, Note_off_c, 1, 56, 100
3, 7104, Note_on_c, 1, 55, 80
3, 7292, Note_off_c, 1, 55, 100
3, 7296, Note_on_c, 1, 53, 80
3, 7868, Note_off_c, 1, 53, 100
3, 7872, Note_on_c, 1, 46, 80
3, 8060, Note_off_c, 1, 46, 100
3, 8064, Note_on_c, 1, 51, 80
3, 8252, Note_off_c, 1, 51, 100
3, 8256, Note_on_c, 1, 44, 80
3, 8444, Note_off_c, 1, 44, 100
3, 8448, Note_on_c, 1, 46, 80
3, 9020, Note_off_c, 1, 46, 100
3, 9024, Note_on_c, 1, 44, 80
3, 9212, Note_off_c, 1, 44, 100
3, 9216, Note_on_c, 1, 43, 80
3, 9404, Note_off_c, 1, 43, 100
3, 9408, Note_on_c, 1, 41, 80
3, 9596, Note_off_c, 1, 41, 100
3, 9600, Note_on_c, 1, 39, 80
3, 9788, Note_off_c, 1, 39, 100
3, 9792, Note_on_c, 1, 58, 80
3, 9980, Note_off_c, 1, 58, 100
3, 9984, Note_on_c, 1, 51, 80
3, 9984, Note_on_c, 1, 55, 80
3, 10172, Note_off_c, 1, 55, 100
3, 10176, Note_on_c, 1, 58, 80
3, 10364, Note_off_c, 1, 58, 100
3, 10368, Note_on_c, 1, 55, 80
3, 10556, Note_off_c, 1, 55, 100
3, 10560, Note_on_c, 1, 58, 80
3, 10748, Note_off_c, 1, 51, 100
3, 10748, Note_off_c, 1, 58, 100
3, 10752, Note_on_c, 1, 53, 80
3, 10752, Note_on_c, 1, 56, 80
3, 10940, Note_off_c, 1, 56, 100
3, 10944, Note_on_c, 1, 58, 80
3, 11132, Note_off_c, 1, 58, 100
3, 11136, Note_on_c, 1, 56, 80
3, 11324, Note_off_c, 1, 56, 100
3, 11328, Note_on_c, 1, 58, 80
3, 11516, Note_off_c, 1, 58, 100
3, 11520, Note_on_c, 1, 56, 80
3, 11708, Note_off_c, 1, 53, 100
3, 11708, Note_off_c, 1, 56, 100
3, 11712, Note_on_c, 1, 51, 80
3, 11712, Note_on_c, 1, 55, 80
3, 11900, Note_off_c, 1, 51, 100
3, 11900, Note_off_c, 1, 55, 100
3, 11904, Note_on_c, 1, 53, 80
3, 11904, Note_on_c, 1, 50, 80
3, 12476, Note_off_c, 1, 53, 100
3, 12476, Note_off_c, 1, 50, 100
3, 12480, Note_on_c, 1, 51, 80
3, 12480, Note_on_c, 1, 48, 80
3, 12668, Note_off_c, 1, 51, 100
3, 12668, Note_off_c, 1, 48, 100
3, 12672, Note_on_c, 1, 50, 80
3, 12672, Note_on_c, 1, 46, 80
3, 12860, Note_off_c, 1, 50, 100
3, 12860, Note_off_c, 1, 46, 100
3, 12864, Note_on_c, 1, 53, 80
3, 12864, Note_on_c, 1, 50, 80
3, 13052, Note_off_c, 1, 53, 100
3, 13052, Note_off_c, 1, 50, 100
3, 13056, Note_on_c, 1, 51, 80
3, 13436, Note_off_c, 1, 51, 100
3, 13440, Note_on_c, 1, 39, 80
3, 13820, Note_off_c, 1, 39, 100
3, 13824, Note_on_c, 1, 51, 80
3, 14108, Note_off_c, 1, 51, 100
3, 14112, Note_on_c, 1, 53, 80
3, 14204, Note_off_c, 1, 53, 100
3, 14208, Note_on_c, 1, 55, 80
3, 14780, Note_off_c, 1, 55, 100
3, 14784, Note_on_c, 1, 51, 80
3, 14972, Note_off_c, 1, 51, 100
3, 14976, Note_on_c, 1, 56, 80
3, 15164, Note_off_c, 1, 56, 100
3, 15168, Note_on_c, 1, 53, 80
3, 15356, Note_off_c, 1, 53, 100
3, 15360, Note_on_c, 1, 55, 80
3, 16124, Note_off_c, 1, 55, 100
3, 16128, Note_on_c, 1, 56, 80
3, 16316, Note_off_c, 1, 56, 100
3, 16320, Note_on_c, 1, 55, 80
3, 16508, Note_off_c, 1, 55, 100
3, 16512, Note_on_c, 1, 53, 80
3, 17084, Note_off_c, 1, 53, 100
3, 17088, Note_on_c, 1, 46, 80
3, 17276, Note_off_c, 1, 46, 100
3, 17280, Note_on_c, 1, 51, 80
3, 17468, Note_off_c, 1, 51, 100
3, 17472, Note_on_c, 1, 44, 80
3, 17660, Note_off_c, 1, 44, 100
3, 17664, Note_on_c, 1, 46, 80
3, 18236, Note_off_c, 1, 46, 100
3, 18816, Note_on_c, 1, 46, 80
3, 19004, Note_off_c, 1, 46, 100
3, 19008, Note_on_c, 1, 58, 80
3, 19196, Note_off_c, 1, 58, 100
3, 19200, Note_on_c, 1, 62, 80
3, 19388, Note_off_c, 1, 62, 100
3, 19392, Note_on_c, 1, 58, 80
3, 19580, Note_off_c, 1, 58, 100
3, 19584, Note_on_c, 1, 65, 80
3, 19772, Note_off_c, 1, 65, 100
3, 19776, Note_on_c, 1, 58, 80
3, 19964, Note_off_c, 1, 58, 100
3, 19968, Note_on_c, 1, 63, 80
3, 20156, Note_off_c, 1, 63, 100
3, 20160, Note_on_c, 1, 58, 80
3, 20348, Note_off_c, 1, 58, 100
3, 20352, Note_on_c, 1, 65, 80
3, 20540, Note_off_c, 1, 65, 100
3, 20544, Note_on_c, 1, 58, 80
3, 20732, Note_off_c, 1, 58, 100
3, 20736, Note_on_c, 1, 67, 80
3, 20924, Note_off_c, 1, 67, 100
3, 20928, Note_on_c, 1, 58, 80
3, 21116, Note_off_c, 1, 58, 100
3, 21120, Note_on_c, 1, 46, 80
3, 21308, Note_off_c, 1, 46, 100
3, 21312, Note_on_c, 1, 58, 80
3, 21500, Note_off_c, 1, 58, 100
3, 21504, Note_on_c, 1, 62, 80
3, 21692, Note_off_c, 1, 62, 100
3, 21696, Note_on_c, 1, 58, 80
3, 21884, Note_off_c, 1, 58, 100
3, 21888, Note_on_c, 1, 65, 80
3, 22076, Note_off_c, 1, 65, 100
3, 22080, Note_on_c, 1, 58, 80
3, 22268, Note_off_c, 1, 58, 100
3, 22272, Note_on_c, 1, 63, 80
3, 22460, Note_off_c, 1, 63, 100
3, 22464, Note_on_c, 1, 58, 80
3, 22652, Note_off_c, 1, 58, 100
3, 22656, Note_on_c, 1, 65, 80
3, 22844, Note_off_c, 1, 65, 100
3, 22848, Note_on_c, 1, 58, 80
3, 23036, Note_off_c, 1, 58, 100
3, 23040, Note_on_c, 1, 67, 80
3, 23228, Note_off_c, 1, 67, 100
3, 23232, Note_on_c, 1, 58, 80
3, 23420, Note_off_c, 1, 58, 100
3, 23424, Note_on_c, 1, 51, 80
3, 23612, Note_off_c, 1, 51, 100
3, 23616, Note_on_c, 1, 63, 80
3, 23804, Note_off_c, 1, 63, 100
3, 23808, Note_on_c, 1, 67, 80
3, 23996, Note_off_c, 1, 67, 100
3, 24000, Note_on_c, 1, 63, 80
3, 24188, Note_off_c, 1, 63, 100
3, 24192, Note_on_c, 1, 65, 80
3, 24380, Note_off_c, 1, 65, 100
3, 24384, Note_on_c, 1, 68, 80
3, 24572, Note_off_c, 1, 68, 100
3, 24576, Note_on_c, 1, 67, 80
3, 24764, Note_off_c, 1, 67, 100
3, 24768, Note_on_c, 1, 66, 80
3, 24956, Note_off_c, 1, 66, 100
3, 24960, Note_on_c, 1, 67, 80
3, 25148, Note_off_c, 1, 67, 100
3, 25152, Note_on_c, 1, 63, 80
3, 25340, Note_off_c, 1, 63, 100
3, 25344, Note_on_c, 1, 60, 80
3, 25532, Note_off_c, 1, 60, 100
3, 25536, Note_on_c, 1, 62, 80
3, 25724, Note_off_c, 1, 62, 100
3, 25728, Note_on_c, 1, 63, 80
3, 25916, Note_off_c, 1, 63, 100
3, 25920, Note_on_c, 1, 60, 80
3, 26108, Note_off_c, 1, 60, 100
3, 26112, Note_on_c, 1, 56, 80
3, 26300, Note_off_c, 1, 56, 100
3, 26304, Note_on_c, 1, 53, 80
3, 26492, Note_off_c, 1, 53, 100
3, 26496, Note_on_c, 1, 58, 80
3, 26688, Note_on_c, 1, 46, 80
3, 26876, Note_off_c, 1, 46, 100
3, 26880, Note_on_c, 1, 51, 80
3, 27068, Note_off_c, 1, 58, 100
3, 27072, Note_on_c, 1, 62, 80
3, 27260, Note_off_c, 1, 62, 100
3, 27264, Note_on_c, 1, 63, 80
3, 27452, Note_off_c, 1, 51, 100
3, 27452, Note_off_c, 1, 63, 100
3, 27456, Note_on_c, 1, 58, 80
3, 27644, Note_off_c, 1, 58, 100
3, 27648, Note_on_c, 1, 55, 80
3, 27836, Note_off_c, 1, 55, 100
3, 27840, Note_on_c, 1, 51, 80
3, 28028, Note_off_c, 1, 51, 100
3, 28032, Note_on_c, 1, 46, 80
3, 28220, Note_off_c, 1, 46, 100
3, 28224, Note_on_c, 1, 58, 80
3, 28412, Note_off_c, 1, 58, 100
3, 28416, Note_on_c, 1, 62, 80
3, 28604, Note_off_c, 1, 62, 100
3, 28608, Note_on_c, 1, 58, 80
3, 28796, Note_off_c, 1, 58, 100
3, 28800, Note_on_c, 1, 65, 80
3, 28988, Note_off_c, 1, 65, 100
3, 28992, Note_on_c, 1, 58, 80
3, 29180, Note_off_c, 1, 58, 100
3, 29184, Note_on_c, 1, 63, 80
3, 29372, Note_off_c, 1, 63, 100
3, 29376, Note_on_c, 1, 58, 80
3, 29564, Note_off_c, 1, 58, 100
3, 29568, Note_on_c, 1, 65, 80
3, 29756, Note_off_c, 1, 65, 100
3, 29760, Note_on_c, 1, 58, 80
3, 29948, Note_off_c, 1, 58, 100
3, 29952, Note_on_c, 1, 67, 80
3, 30140, Note_off_c, 1, 67, 100
3, 30144, Note_on_c, 1, 58, 80
3, 30332, Note_off_c, 1, 58, 100
3, 30336, Note_on_c, 1, 46, 80
3, 30524, Note_off_c, 1, 46, 100
3, 30528, Note_on_c, 1, 58, 80
3, 30716, Note_off_c, 1, 58, 100
3, 30720, Note_on_c, 1, 62, 80
3, 30908, Note_off_c, 1, 62, 100
3, 30912, Note_on_c, 1, 58, 80
3, 31100, Note_off_c, 1, 58, 100
3, 31104, Note_on_c, 1, 65, 80
3, 31292, Note_off_c, 1, 65, 100
3, 31296, Note_on_c, 1, 58, 80
3, 31484, Note_off_c, 1, 58, 100
3, 31488, Note_on_c, 1, 63, 80
3, 31676, Note_off_c, 1, 63, 100
3, 31680, Note_on_c, 1, 58, 80
3, 31868, Note_off_c, 1, 58, 100
3, 31872, Note_on_c, 1, 65, 80
3, 32060, Note_off_c, 1, 65, 100
3, 32064, Note_on_c, 1, 58, 80
3, 32252, Note_off_c, 1, 58, 100
3, 32256, Note_on_c, 1, 67, 80
3, 32444, Note_off_c, 1, 67, 100
3, 32448, Note_on_c, 1, 58, 80
3, 32636, Note_off_c, 1, 58, 100
3, 32640, Note_on_c, 1, 51, 80
3, 32828, Note_off_c, 1, 51, 100
3, 32832, Note_on_c, 1, 63, 80
3, 33020, Note_off_c, 1, 63, 100
3, 33024, Note_on_c, 1, 67, 80
3, 33212, Note_off_c, 1, 67, 100
3, 33216, Note_on_c, 1, 63, 80
3, 33404, Note_off_c, 1, 63, 100
3, 33408, Note_on_c, 1, 65, 80
3, 33596, Note_off_c, 1, 65, 100
3, 33600, Note_on_c, 1, 68, 80
3, 33788, Note_off_c, 1, 68, 100
3, 33792, Note_on_c, 1, 67, 80
3, 33980, Note_off_c, 1, 67, 100
3, 33984, Note_on_c, 1, 66, 80
3, 34172, Note_off_c, 1, 66, 100
3, 34176, Note_on_c, 1, 67, 80
3, 34364, Note_off_c, 1, 67, 100
3, 34368, Note_on_c, 1, 63, 80
3, 34556, Note_off_c, 1, 63, 100
3, 34560, Note_on_c, 1, 60, 80
3, 34748, Note_off_c, 1, 60, 100
3, 34752, Note_on_c, 1, 62, 80
3, 34940, Note_off_c, 1, 62, 100
3, 34944, Note_on_c, 1, 63, 80
3, 35132, Note_off_c, 1, 63, 100
3, 35136, Note_on_c, 1, 60, 80
3, 35324, Note_off_c, 1, 60, 100
3, 35328, Note_on_c, 1, 56, 80
3, 35516, Note_off_c, 1, 56, 100
3, 35520, Note_on_c, 1, 53, 80
3, 35708, Note_off_c, 1, 53, 100
3, 35712, Note_on_c, 1, 58, 80
3, 35904, Note_on_c, 1, 46, 80
3, 36092, Note_off_c, 1, 58, 100
3, 36092, Note_off_c, 1, 46, 100
3, 36096, Note_on_c, 1, 51, 80
3, 36476, Note_off_c, 1, 51, 100
3, 36480, Note_on_c, 1, 39, 80
3, 36668, Note_off_c, 1, 39, 100
3, 36864, Note_on_c, 1, 51, 80
3, 36864, Note_on_c, 1, 46, 80
3, 36864, Note_on_c, 1, 39, 80
3, 37244, Note_off_c, 1, 51, 100
3, 37244, Note_off_c, 1, 46, 100
3, 37244, Note_off_c, 1, 39, 100
3, 37248, Note_on_c, 1, 65, 80
3, 37248, Note_on_c, 1, 58, 80
3, 37248, Note_on_c, 1, 53, 80
3, 38012, Note_off_c, 1, 65, 100
3, 38012, Note_off_c, 1, 58, 100
3, 38012, Note_off_c, 1, 53, 100
3, 38016, Note_on_c, 1, 53, 80
3, 38016, Note_on_c, 1, 46, 80
3, 38016, Note_on_c, 1, 41, 80
3, 38396, Note_off_c, 1, 53, 100
3, 38396, Note_off_c, 1, 46, 100
3, 38396, Note_off_c, 1, 41, 100
3, 38400, Note_on_c, 1, 67, 80
3, 38400, Note_on_c, 1, 63, 80
3, 38400, Note_on_c, 1, 55, 80
3, 39164, Note_off_c, 1, 67, 100
3, 39164, Note_off_c, 1, 63, 100
3, 39164, Note_off_c, 1, 55, 100
3, 39168, Note_on_c, 1, 58, 80
3, 39168, Note_on_c, 1, 55, 80
3, 39548, Note_off_c, 1, 58, 100
3, 39548, Note_off_c, 1, 55, 100
3, 39552, Note_on_c, 1, 60, 80
3, 39552, Note_on_c, 1, 56, 80
3, 40124, Note_off_c, 1, 60, 100
3, 40124, Note_off_c, 1, 56, 100
3, 40128, Note_on_c, 1, 58, 80
3, 40128, Note_on_c, 1, 55, 80
3, 40316, Note_off_c, 1, 58, 100
3, 40316, Note_off_c, 1, 55, 100
3, 40320, Note_on_c, 1, 58, 80
3, 40320, Note_on_c, 1, 53, 80
3, 40508, Note_off_c, 1, 58, 100
3, 40508, Note_off_c, 1, 53, 100
3, 40512, Note_on_c, 1, 58, 80
3, 40512, Note_on_c, 1, 51, 80
3, 40700, Note_off_c, 1, 58, 100
3, 40700, Note_off_c, 1, 51, 100
3, 40704, Note_on_c, 1, 58, 80
3, 40704, Note_on_c, 1, 46, 80
3, 40892, Note_off_c, 1, 58, 100
3, 40892, Note_off_c, 1, 46, 100
3, 40896, Note_on_c, 1, 58, 80
3, 40896, Note_on_c, 1, 51, 80
3, 41084, Note_off_c, 1, 58, 100
3, 41084, Note_off_c, 1, 51, 100
3, 41088, Note_on_c, 1, 58, 80
3, 41088, Note_on_c, 1, 46, 80
3, 41276, Note_off_c, 1, 58, 100
3, 41276, Note_off_c, 1, 46, 100
3, 41472, Note_on_c, 1, 51, 80
3, 41472, Note_on_c, 1, 39, 80
3, 41852, Note_off_c, 1, 51, 100
3, 41852, Note_off_c, 1, 39, 100
3, 41856, Note_on_c, 1, 66, 80
3, 42620, Note_off_c, 1, 66, 100
3, 42624, Note_on_c, 1, 55, 80
3, 42624, Note_on_c, 1, 43, 80
3, 43004, Note_off_c, 1, 55, 100
3, 43004, Note_off_c, 1, 43, 100
3, 43008, Note_on_c, 1, 69, 80
3, 43772, Note_off_c, 1, 69, 100
3, 43776, Note_on_c, 1, 50, 110
3, 43776, Note_on_c, 1, 38, 110
3, 44156, Note_off_c, 1, 50, 100
3, 44156, Note_off_c, 1, 38, 100
3, 44160, Note_on_c, 1, 39, 110
3, 44160, Note_on_c, 1, 51, 110
3, 44444, Note_off_c, 1, 39, 100
3, 44444, Note_off_c, 1, 51, 100
3, 44448, Note_on_c, 1, 38, 110
3, 44448, Note_on_c, 1, 50, 110
3, 44540, Note_off_c, 1, 38, 100
3, 44540, Note_off_c, 1, 50, 100
3, 44544, Note_on_c, 1, 36, 110
3, 44544, Note_on_c, 1, 48, 110
3, 44924, Note_off_c, 1, 36, 100
3, 44924, Note_off_c, 1, 48, 100
3, 44928, Note_on_c, 1, 41, 110
3, 44928, Note_on_c, 1, 53, 110
3, 45308, Note_off_c, 1, 41, 100
3, 45308, Note_off_c, 1, 53, 100
3, 45312, Note_on_c, 1, 34, 110
3, 45312, Note_on_c, 1, 46, 110
3, 45692, Note_off_c, 1, 34, 100
3, 45692, Note_off_c, 1, 46, 100
3, 46080, Note_on_c, 1, 51, 80
3, 46080, Note_on_c, 1, 46, 80
3, 46080, Note_on_c, 1, 39, 80
3, 46460, Note_off_c, 1, 51, 100
3, 46460, Note_off_c, 1, 46, 100
3, 46460, Note_off_c, 1, 39, 100
3, 46464, Note_on_c, 1, 65, 80
3, 46464, Note_on_c, 1, 58, 80
3, 46464, Note_on_c, 1, 53, 80
3, 47228, Note_off_c, 1, 65, 100
3, 47228, Note_off_c, 1, 58, 100
3, 47228, Note_off_c, 1, 53, 100
3, 47232, Note_on_c, 1, 53, 80
3, 47232, Note_on_c, 1, 46, 80
3, 47232, Note_on_c, 1, 41, 80
3, 47612, Note_off_c, 1, 53, 100
3, 47612, Note_off_c, 1, 46, 100
3, 47612, Note_off_c, 1, 41, 100
3, 47616, Note_on_c, 1, 67, 80
3, 47616, Note_on_c, 1, 63, 80
3, 47616, Note_on_c, 1, 55, 80
3, 48380, Note_off_c, 1, 67, 100
3, 48380, Note_off_c, 1, 63, 100
3, 48380, Note_off_c, 1, 55, 100
3, 48384, Note_on_c, 1, 58, 80
3, 48384, Note_on_c, 1, 55, 80
3, 48764, Note_off_c, 1, 58, 100
3, 48764, Note_off_c, 1, 55, 100
3, 48768, Note_on_c, 1, 60, 80
3, 48768, Note_on_c, 1, 56, 80
3, 49340, Note_off_c, 1, 60, 100
3, 49340, Note_off_c, 1, 56, 100
3, 49344, Note_on_c, 1, 58, 80
3, 49344, Note_on_c, 1, 55, 80
3, 49532, Note_off_c, 1, 58, 100
3, 49532, Note_off_c, 1, 55, 100
3, 49536, Note_on_c, 1, 58, 80
3, 49536, Note_on_c, 1, 53, 80
3, 49724, Note_off_c, 1, 58, 100
3, 49724, Note_off_c, 1, 53, 100
3, 49728, Note_on_c, 1, 58, 80
3, 49728, Note_on_c, 1, 51, 80
3, 49916, Note_off_c, 1, 58, 100
3, 49916, Note_off_c, 1, 51, 100
3, 49920, Note_on_c, 1, 58, 80
3, 49920, Note_on_c, 1, 46, 80
3, 50108, Note_off_c, 1, 58, 100
3, 50108, Note_off_c, 1, 46, 100
3, 50112, Note_on_c, 1, 58, 80
3, 50112, Note_on_c, 1, 51, 80
3, 50300, Note_off_c, 1, 58, 100
3, 50300, Note_off_c, 1, 51, 100
3, 50304, Note_on_c, 1, 58, 80
3, 50304, Note_on_c, 1, 46, 80
3, 50492, Note_off_c, 1, 58, 100
3, 50492, Note_off_c, 1, 46, 100
3, 50688, Note_on_c, 1, 51, 80
3, 50688, Note_on_c, 1, 39, 80
3, 51068, Note_off_c, 1, 51, 100
3, 51068, Note_off_c, 1, 39, 100
3, 51072, Note_on_c, 1, 66, 80
3, 51836, Note_off_c, 1, 66, 100
3, 51840, Note_on_c, 1, 55, 80
3, 51840, Note_on_c, 1, 43, 80
3, 52220, Note_off_c, 1, 55, 100
3, 52220, Note_off_c, 1, 43, 100
3, 52224, Note_on_c, 1, 69, 80
3, 52988, Note_off_c, 1, 69, 100
3, 52992, Note_on_c, 1, 50, 110
3, 52992, Note_on_c, 1, 38, 110
3, 53372, Note_off_c, 1, 50, 100
3, 53372, Note_off_c, 1, 38, 100
3, 53376, Note_on_c, 1, 39, 110
3, 53376, Note_on_c, 1, 51, 110
3, 53660, Note_off_c, 1, 39, 100
3, 53660, Note_off_c, 1, 51, 100
3, 53664, Note_on_c, 1, 38, 110
3, 53664, Note_on_c, 1, 50, 110
3, 53756, Note_off_c, 1, 38, 100
3, 53756, Note_off_c, 1, 50, 100
3, 53760, Note_on_c, 1, 36, 110
3, 53760, Note_on_c, 1, 48, 110
3, 54140, Note_off_c, 1, 36, 100
3, 54140, Note_off_c, 1, 48, 100
3, 54144, Note_on_c, 1, 41, 110
3, 54144, Note_on_c, 1, 53, 110
3, 54524, Note_off_c, 1, 41, 100
3, 54524, Note_off_c, 1, 53, 100
3, 54528, Note_on_c, 1, 34, 110
3, 54528, Note_on_c, 1, 46, 110
3, 54908, Note_off_c, 1, 34, 100
3, 54908, Note_off_c, 1, 46, 100
3, 55296, Note_on_c, 1, 46, 80
3, 55676, Note_off_c, 1, 46, 100
3, 55680, Note_on_c, 1, 65, 80
3, 55680, Note_on_c, 1, 62, 80
3, 55680, Note_on_c, 1, 59, 80
3, 55680, Note_on_c, 1, 56, 80
3, 56444, Note_off_c, 1, 65, 100
3, 56444, Note_off_c, 1, 62, 100
3, 56444, Note_off_c, 1, 59, 100
3, 56444, Note_off_c, 1, 56, 100
3, 56448, Note_on_c, 1, 46, 80
3, 56828, Note_off_c, 1, 46, 100
3, 56832, Note_on_c, 1, 62, 80
3, 56832, Note_on_c, 1, 59, 80
3, 56832, Note_on_c, 1, 56, 80
3, 56832, Note_on_c, 1, 53, 80
3, 57596, Note_off_c, 1, 62, 100
3, 57596, Note_off_c, 1, 59, 100
3, 57596, Note_off_c, 1, 56, 100
3, 57596, Note_off_c, 1, 53, 100
3, 57600, Note_on_c, 1, 46, 80
3, 57980, Note_off_c, 1, 46, 100
3, 57984, Note_on_c, 1, 65, 82
3, 57984, Note_on_c, 1, 62, 82
3, 57984, Note_on_c, 1, 59, 82
3, 57984, Note_on_c, 1, 56, 82
3, 58364, Note_off_c, 1, 65, 100
3, 58364, Note_off_c, 1, 62, 100
3, 58364, Note_off_c, 1, 59, 100
3, 58364, Note_off_c, 1, 56, 100
3, 58368, Note_on_c, 1, 46, 85
3, 58748, Note_off_c, 1, 46, 100
3, 58752, Note_on_c, 1, 62, 88
3, 58752, Note_on_c, 1, 59, 88
3, 58752, Note_on_c, 1, 56, 88
3, 58752, Note_on_c, 1, 53, 88
3, 59132, Note_off_c, 1, 62, 100
3, 59132, Note_off_c, 1, 59, 100
3, 59132, Note_off_c, 1, 56, 100
3, 59132, Note_off_c, 1, 53, 100
3, 59136, Note_on_c, 1, 46, 91
3, 59516, Note_off_c, 1, 46, 100
3, 59520, Note_on_c, 1, 62, 94
3, 59520, Note_on_c, 1, 59, 94
3, 59520, Note_on_c, 1, 56, 94
3, 59520, Note_on_c, 1, 53, 94
3, 59900, Note_off_c, 1, 62, 100
3, 59900, Note_off_c, 1, 59, 100
3, 59900, Note_off_c, 1, 56, 100
3, 59900, Note_off_c, 1, 53, 100
3, 59904, Note_on_c, 1, 46, 96
3, 60284, Note_off_c, 1, 46, 100
3, 60288, Note_on_c, 1, 62, 99
3, 60288, Note_on_c, 1, 59, 99
3, 60288, Note_on_c, 1, 56, 99
3, 60288, Note_on_c, 1, 53, 99
3, 60668, Note_off_c, 1, 62, 100
3, 60668, Note_off_c, 1, 59, 100
3, 60668, Note_off_c, 1, 56, 100
3, 60668, Note_off_c, 1, 53, 100
3, 60672, Note_on_c, 1, 46, 102
3, 61052, Note_off_c, 1, 46, 100
3, 61056, Note_on_c, 1, 62, 105
3, 61056, Note_on_c, 1, 59, 105
3, 61056, Note_on_c, 1, 56, 105
3, 61056, Note_on_c, 1, 53, 105
3, 61436, Note_off_c, 1, 62, 100
3, 61436, Note_off_c, 1, 59, 100
3, 61436, Note_off_c, 1, 56, 100
3, 61436, Note_off_c, 1, 53, 100
3, 61440, Note_on_c, 1, 46, 108
3, 61820, Note_off_c, 1, 46, 100
3, 61824, Note_on_c, 1, 46, 110
3, 61824, Note_on_c, 1, 34, 110
3, 62204, Note_off_c, 1, 46, 100
3, 62204, Note_off_c, 1, 34, 100
3, 62208, Note_on_c, 1, 51, 80
3, 62208, Note_on_c, 1, 46, 80
3, 62208, Note_on_c, 1, 39, 80
3, 62588, Note_off_c, 1, 51, 100
3, 62588, Note_off_c, 1, 46, 100
3, 62588, Note_off_c, 1, 39, 100
3, 62592, Note_on_c, 1, 65, 80
3, 62592, Note_on_c, 1, 58, 80
3, 62592, Note_on_c, 1, 53, 80
3, 63356, Note_off_c, 1, 65, 100
3, 63356, Note_off_c, 1, 58, 100
3, 63356, Note_off_c, 1, 53, 100
3, 63360, Note_on_c, 1, 53, 80
3, 63360, Note_on_c, 1, 46, 80
3, 63360, Note_on_c, 1, 41, 80
3, 63740, Note_off_c, 1, 53, 100
3, 63740, Note_off_c, 1, 46, 100
3, 63740, Note_off_c, 1, 41, 100
3, 63744, Note_on_c, 1, 67, 80
3, 63744, Note_on_c, 1, 63, 80
3, 63744, Note_on_c, 1, 55, 80
3, 64508, Note_off_c, 1, 67, 100
3, 64508, Note_off_c, 1, 63, 100
3, 64508, Note_off_c, 1, 55, 100
3, 64512, Note_on_c, 1, 58, 80
3, 64512, Note_on_c, 1, 55, 80
3, 64892, Note_off_c, 1, 58, 100
3, 64892, Note_off_c, 1, 55, 100
3, 64896, Note_on_c, 1, 60, 80
3, 64896, Note_on_c, 1, 56, 80
3, 65468, Note_off_c, 1, 60, 100
3, 65468, Note_off_c, 1, 56, 100
3, 65472, Note_on_c, 1, 58, 80
3, 65472, Note_on_c, 1, 55, 80
3, 65660, Note_off_c, 1, 58, 100
3, 65660, Note_off_c, 1, 55, 100
3, 65664, Note_on_c, 1, 58, 80
3, 65664, Note_on_c, 1, 53, 80
3, 65852, Note_off_c, 1, 58, 100
3, 65852, Note_off_c, 1, 53, 100
3, 65856, Note_on_c, 1, 58, 80
3, 65856, Note_on_c, 1, 51, 80
3, 66044, Note_off_c, 1, 58, 100
3, 66044, Note_off_c, 1, 51, 100
3, 66048, Note_on_c, 1, 58, 80
3, 66048, Note_on_c, 1, 46, 80
3, 66236, Note_off_c, 1, 58, 100
3, 66236, Note_off_c, 1, 46, 100
3, 66240, Note_on_c, 1, 58, 80
3, 66240, Note_on_c, 1, 51, 80
3, 66428, Note_off_c, 1, 58, 100
3, 66428, Note_off_c, 1, 51, 100
3, 66432, Note_on_c, 1, 58, 80
3, 66432, Note_on_c, 1, 46, 80
3, 66620, Note_off_c, 1, 58, 100
3, 66620, Note_off_c, 1, 46, 100
3, 66816, Note_on_c, 1, 51, 80
3, 66816, Note_on_c, 1, 39, 80
3, 67196, Note_off_c, 1, 51, 100
3, 67196, Note_off_c, 1, 39, 100
3, 67200, Note_on_c, 1, 66, 80
3, 67964, Note_off_c, 1, 66, 100
3, 67968, Note_on_c, 1, 55, 80
3, 67968, Note_on_c, 1, 43, 80
3, 68348, Note_off_c, 1, 55, 100
3, 68348, Note_off_c, 1, 43, 100
3, 68352, Note_on_c, 1, 69, 80
3, 69116, Note_off_c, 1, 69, 100
3, 69120, Note_on_c, 1, 68, 110
3, 69120, Note_on_c, 1, 65, 110
3, 69120, Note_on_c, 1, 58, 110
3, 69500, Note_off_c, 1, 68, 100
3, 69500, Note_off_c, 1, 65, 100
3, 69500, Note_off_c, 1, 58, 100
3, 69504, Note_on_c, 1, 67, 101
3, 69504, Note_on_c, 1, 63, 101
3, 69504, Note_on_c, 1, 60, 101
3, 69788, Note_off_c, 1, 67, 100
3, 69788, Note_off_c, 1, 63, 100
3, 69788, Note_off_c, 1, 60, 100
3, 69792, Note_on_c, 1, 66, 93
3, 69792, Note_on_c, 1, 63, 93
3, 69792, Note_on_c, 1, 57, 93
3, 69884, Note_off_c, 1, 66, 100
3, 69884, Note_off_c, 1, 63, 100
3, 69884, Note_off_c, 1, 57, 100
3, 69888, Note_on_c, 1, 67, 91
3, 69888, Note_on_c, 1, 63, 91
3, 69888, Note_on_c, 1, 58, 91
3, 70268, Note_off_c, 1, 67, 100
3, 70268, Note_off_c, 1, 63, 100
3, 70268, Note_off_c, 1, 58, 100
3, 70272, Note_on_c, 1, 34, 80
3, 70272, Note_on_c, 1, 46, 80
3, 70652, Note_off_c, 1, 34, 100
3, 70652, Note_off_c, 1, 46, 100
3, 70656, Note_on_c, 1, 51, 80
3, 70656, Note_on_c, 1, 39, 80
3, 71036, Note_off_c, 1, 51, 100
3, 71036, Note_off_c, 1, 39, 100
3, 71424, Note_on_c, 1, 46, 80
3, 71804, Note_off_c, 1, 46, 100
3, 71808, Note_on_c, 1, 65, 80
3, 71808, Note_on_c, 1, 62, 80
3, 71808, Note_on_c, 1, 59, 80
3, 71808, Note_on_c, 1, 56, 80
3, 72572, Note_off_c, 1, 65, 100
3, 72572, Note_off_c, 1, 62, 100
3, 72572, Note_off_c, 1, 59, 100
3, 72572, Note_off_c, 1, 56, 100
3, 72576, Note_on_c, 1, 46, 80
3, 72956, Note_off_c, 1, 46, 100
3, 72960, Note_on_c, 1, 62, 80
3, 72960, Note_on_c, 1, 59, 80
3, 72960, Note_on_c, 1, 56, 80
3, 72960, Note_on_c, 1, 53, 80
3, 73724, Note_off_c, 1, 62, 100
3, 73724, Note_off_c, 1, 59, 100
3, 73724, Note_off_c, 1, 56, 100
3, 73724, Note_off_c, 1, 53, 100
3, 73728, Note_on_c, 1, 46, 80
3, 74108, Note_off_c, 1, 46, 100
3, 74112, Note_on_c, 1, 65, 82
3, 74112, Note_on_c, 1, 62, 82
3, 74112, Note_on_c, 1, 59, 82
3, 74112, Note_on_c, 1, 56, 82
3, 74492, Note_off_c, 1, 65, 100
3, 74492, Note_off_c, 1, 62, 100
3, 74492, Note_off_c, 1, 59, 100
3, 74492, Note_off_c, 1, 56, 100
3, 74496, Note_on_c, 1, 46, 85
3, 74876, Note_off_c, 1, 46, 100
3, 74880, Note_on_c, 1, 62, 88
3, 74880, Note_on_c, 1, 59, 88
3, 74880, Note_on_c, 1, 56, 88
3, 74880, Note_on_c, 1, 53, 88
3, 75260, Note_off_c, 1, 62, 100
3, 75260, Note_off_c, 1, 59, 100
3, 75260, Note_off_c, 1, 56, 100
3, 75260, Note_off_c, 1, 53, 100
3, 75264, Note_on_c, 1, 46, 91
3, 75644, Note_off_c, 1, 46, 100
3, 75648, Note_on_c, 1, 62, 94
3, 75648, Note_on_c, 1, 59, 94
3, 75648, Note_on_c, 1, 56, 94
3, 75648, Note_on_c, 1, 53, 94
3, 76028, Note_off_c, 1, 62, 100
3, 76028, Note_off_c, 1, 59, 100
3, 76028, Note_off_c, 1, 56, 100
3, 76028, Note_off_c, 1, 53, 100
3, 76032, Note_on_c, 1, 46, 96
3, 76412, Note_off_c, 1, 46, 100
3, 76416, Note_on_c, 1, 62, 99
3, 76416, Note_on_c, 1, 59, 99
3, 76416, Note_on_c, 1, 56, 99
3, 76416, Note_on_c, 1, 53, 99
3, 76796, Note_off_c, 1, 62, 100
3, 76796, Note_off_c, 1, 59, 100
3, 76796, Note_off_c, 1, 56, 100
3, 76796, Note_off_c, 1, 53, 100
3, 76800, Note_on_c, 1, 46, 102
3, 77180, Note_off_c, 1, 46, 100
3, 77184, Note_on_c, 1, 62, 105
3, 77184, Note_on_c, 1, 59, 105
3, 77184, Note_on_c, 1, 56, 105
3, 77184, Note_on_c, 1, 53, 105
3, 77564, Note_off_c, 1, 62, 100
3, 77564, Note_off_c, 1, 59, 100
3, 77564, Note_off_c, 1, 56, 100
3, 77564, Note_off_c, 1, 53, 100
3, 77568, Note_on_c, 1, 46, 108
3, 77948, Note_off_c, 1, 46, 100
3, 77952, Note_on_c, 1, 46, 110
3, 77952, Note_on_c, 1, 34, 110
3, 78332, Note_off_c, 1, 46, 100
3, 78332, Note_off_c, 1, 34, 100
3, 78336, Note_on_c, 1, 51, 80
3, 78336, Note_on_c, 1, 46, 80
3, 78336, Note_on_c, 1, 39, 80
3, 78716, Note_off_c, 1, 51, 100
3, 78716, Note_off_c, 1, 46, 100
3, 78716, Note_off_c, 1, 39, 100
3, 78720, Note_on_c, 1, 65, 80
3, 78720, Note_on_c, 1, 58, 80
3, 78720, Note_on_c, 1, 53, 80
3, 79484, Note_off_c, 1, 65, 100
3, 79484, Note_off_c, 1, 58, 100
3, 79484, Note_off_c, 1, 53, 100
3, 79488, Note_on_c, 1, 53, 80
3, 79488, Note_on_c, 1, 46, 80
3, 79488, Note_on_c, 1, 41, 80
3, 79868, Note_off_c, 1, 53, 100
3, 79868, Note_off_c, 1, 46, 100
3, 79868, Note_off_c, 1, 41, 100
3, 79872, Note_on_c, 1, 67, 80
3, 79872, Note_on_c, 1, 63, 80
3, 79872, Note_on_c, 1, 55, 80
3, 80636, Note_off_c, 1, 67, 100
3, 80636, Note_off_c, 1, 63, 100
3, 80636, Note_off_c, 1, 55, 100
3, 80640, Note_on_c, 1, 58, 80
3, 80640, Note_on_c, 1, 55, 80
3, 81020, Note_off_c, 1, 58, 100
3, 81020, Note_off_c, 1, 55, 100
3, 81024, Note_on_c, 1, 60, 80
3, 81024, Note_on_c, 1, 56, 80
3, 81596, Note_off_c, 1, 60, 100
3, 81596, Note_off_c, 1, 56, 100
3, 81600, Note_on_c, 1, 58, 80
3, 81600, Note_on_c, 1, 55, 80
3, 81788, Note_off_c, 1, 58, 100
3, 81788, Note_off_c, 1, 55, 100
3, 81792, Note_on_c, 1, 58, 80
3, 81792, Note_on_c, 1, 53, 80
3, 81980, Note_off_c, 1, 58, 100
3, 81980, Note_off_c, 1, 53, 100
3, 81984, Note_on_c, 1, 58, 80
3, 81984, Note_on_c, 1, 51, 80
3, 82172, Note_off_c, 1, 58, 100
3, 82172, Note_off_c, 1, 51, 100
3, 82176, Note_on_c, 1, 58, 80
3, 82176, Note_on_c, 1, 46, 80
3, 82364, Note_off_c, 1, 58, 100
3, 82364, Note_off_c, 1, 46, 100
3, 82368, Note_on_c, 1, 58, 80
3, 82368, Note_on_c, 1, 51, 80
3, 82556, Note_off_c, 1, 58, 100
3, 82556, Note_off_c, 1, 51, 100
3, 82560, Note_on_c, 1, 58, 80
3, 82560, Note_on_c, 1, 46, 80
3, 82748, Note_off_c, 1, 58, 100
3, 82748, Note_off_c, 1, 46, 100
3, 82944, Note_on_c, 1, 51, 80
3, 82944, Note_on_c, 1, 39, 80
3, 83324, Note_off_c, 1, 51, 100
3, 83324, Note_off_c, 1, 39, 100
3, 83328, Note_on_c, 1, 66, 80
3, 84092, Note_off_c, 1, 66, 100
3, 84096, Note_on_c, 1, 55, 80
3, 84096, Note_on_c, 1, 43, 80
3, 84476, Note_off_c, 1, 55, 100
3, 84476, Note_off_c, 1, 43, 100
3, 84480, Note_on_c, 1, 69, 80
3, 85244, Note_off_c, 1, 69, 100
3, 85248, Note_on_c, 1, 68, 110
3, 85248, Note_on_c, 1, 65, 110
3, 85248, Note_on_c, 1, 58, 110
3, 85628, Note_off_c, 1, 68, 100
3, 85628, Note_off_c, 1, 65, 100
3, 85628, Note_off_c, 1, 58, 100
3, 85632, Note_on_c, 1, 67, 101
3, 85632, Note_on_c, 1, 63, 101
3, 85632, Note_on_c, 1, 60, 101
3, 85916, Note_off_c, 1, 67, 100
3, 85916, Note_off_c, 1, 63, 100
3, 85916, Note_off_c, 1, 60, 100
3, 85920, Note_on_c, 1, 66, 93
3, 85920, Note_on_c, 1, 63, 93
3, 85920, Note_on_c, 1, 57, 93
3, 86012, Note_off_c, 1, 66, 100
3, 86012, Note_off_c, 1, 63, 100
3, 86012, Note_off_c, 1, 57, 100
3, 86016, Note_on_c, 1, 67, 91
3, 86016, Note_on_c, 1, 63, 91
3, 86016, Note_on_c, 1, 58, 91
3, 86396, Note_off_c, 1, 67, 100
3, 86396, Note_off_c, 1, 63, 100
3, 86396, Note_off_c, 1, 58, 100
3, 86400, Note_on_c, 1, 34, 80
3, 86400, Note_on_c, 1, 46, 80
3, 86780, Note_off_c, 1, 34, 100
3, 86780, Note_off_c, 1, 46, 100
3, 86784, Note_on_c, 1, 51, 80
3, 86784, Note_on_c, 1, 39, 80
3, 87164, Note_off_c, 1, 51, 100
3, 87164, Note_off_c, 1, 39, 100
3, 87936, Note_on_c, 1, 51, 80
3, 87936, Note_on_c, 1, 55, 80
3, 88124, Note_off_c, 1, 55, 100
3, 88128, Note_on_c, 1, 58, 80
3, 88316, Note_off_c, 1, 58, 100
3, 88320, Note_on_c, 1, 55, 80
3, 88508, Note_off_c, 1, 55, 100
3, 88512, Note_on_c, 1, 58, 80
3, 88700, Note_off_c, 1, 58, 100
3, 88704, Note_on_c, 1, 55, 80
3, 88892, Note_off_c, 1, 55, 100
3, 88896, Note_on_c, 1, 58, 80
3, 89084, Note_off_c, 1, 51, 100
3, 89084, Note_off_c, 1, 58, 100
3, 89088, Note_on_c, 1, 53, 80
3, 89088, Note_on_c, 1, 56, 80
3, 89276, Note_off_c, 1, 56, 100
3, 89280, Note_on_c, 1, 58, 80
3, 89468, Note_off_c, 1, 58, 100
3, 89472, Note_on_c, 1, 56, 80
3, 89660, Note_off_c, 1, 56, 100
3, 89664, Note_on_c, 1, 58, 80
3, 89852, Note_off_c, 1, 58, 100
3, 89856, Note_on_c, 1, 56, 80
3, 90044, Note_off_c, 1, 53, 100
3, 90044, Note_off_c, 1, 56, 100
3, 90048, Note_on_c, 1, 51, 80
3, 90048, Note_on_c, 1, 55, 80
3, 90236, Note_off_c, 1, 51, 100
3, 90236, Note_off_c, 1, 55, 100
3, 90240, Note_on_c, 1, 53, 80
3, 90240, Note_on_c, 1, 50, 80
3, 90812, Note_off_c, 1, 53, 100
3, 90812, Note_off_c, 1, 50, 100
3, 90816, Note_on_c, 1, 51, 80
3, 90816, Note_on_c, 1, 48, 80
3, 91004, Note_off_c, 1, 51, 100
3, 91004, Note_off_c, 1, 48, 100
3, 91008, Note_on_c, 1, 50, 80
3, 91008, Note_on_c, 1, 46, 80
3, 91196, Note_off_c, 1, 50, 100
3, 91196, Note_off_c, 1, 46, 100
3, 91200, Note_on_c, 1, 53, 80
3, 91200, Note_on_c, 1, 50, 80
3, 91388, Note_off_c, 1, 53, 100
3, 91388, Note_off_c, 1, 50, 100
3, 91392, Note_on_c, 1, 51, 80
3, 91772, Note_off_c, 1, 51, 100
3, 91776, Note_on_c, 1, 39, 80
3, 92156, Note_off_c, 1, 39, 100
3, 92160, Note_on_c, 1, 51, 80
3, 92444, Note_off_c, 1, 51, 100
3, 92448, Note_on_c, 1, 53, 80
3, 92540, Note_off_c, 1, 53, 100
3, 92544, Note_on_c, 1, 55, 80
3, 93116, Note_off_c, 1, 55, 100
3, 93120, Note_on_c, 1, 51, 80
3, 93308, Note_off_c, 1, 51, 100
3, 93312, Note_on_c, 1, 56, 80
3, 93500, Note_off_c, 1, 56, 100
3, 93504, Note_on_c, 1, 53, 80
3, 93692, Note_off_c, 1, 53, 100
3, 93696, Note_on_c, 1, 55, 80
3, 94460, Note_off_c, 1, 55, 100
3, 94464, Note_on_c, 1, 56, 80
3, 94652, Note_off_c, 1, 56, 100
3, 94656, Note_on_c, 1, 55, 80
3, 94844, Note_off_c, 1, 55, 100
3, 94848, Note_on_c, 1, 53, 80
3, 95420, Note_off_c, 1, 53, 100
3, 95424, Note_on_c, 1, 46, 80
3, 95612, Note_off_c, 1, 46, 100
3, 95616, Note_on_c, 1, 51, 80
3, 95804, Note_off_c, 1, 51, 100
3, 95808, Note_on_c, 1, 44, 80
3, 95996, Note_off_c, 1, 44, 100
3, 96000, Note_on_c, 1, 46, 80
3, 96572, Note_off_c, 1, 46, 100
3, 96576, Note_on_c, 1, 44, 80
3, 96764, Note_off_c, 1, 44, 100
3, 96768, Note_on_c, 1, 43, 80
3, 96956, Note_off_c, 1, 43, 100
3, 96960, Note_on_c, 1, 41, 80
3, 97148, Note_off_c, 1, 41, 100
3, 97152, Note_on_c, 1, 39, 80
3, 97340, Note_off_c, 1, 39, 100
3, 97344, Note_on_c, 1, 58, 80
3, 97532, Note_off_c, 1, 58, 100
3, 97536, Note_on_c, 1, 51, 80
3, 97536, Note_on_c, 1, 55, 80
3, 97724, Note_off_c, 1, 55, 100
3, 97728, Note_on_c, 1, 58, 80
3, 97916, Note_off_c, 1, 58, 100
3, 97920, Note_on_c, 1, 55, 80
3, 98108, Note_off_c, 1, 55, 100
3, 98112, Note_on_c, 1, 58, 80
3, 98300, Note_off_c, 1, 51, 100
3, 98300, Note_off_c, 1, 58, 100
3, 98304, Note_on_c, 1, 53, 80
3, 98304, Note_on_c, 1, 56, 80
3, 98492, Note_off_c, 1, 56, 100
3, 98496, Note_on_c, 1, 58, 80
3, 98684, Note_off_c, 1, 58, 100
3, 98688, Note_on_c, 1, 56, 80
3, 98876, Note_off_c, 1, 56, 100
3, 98880, Note_on_c, 1, 58, 80
3, 99068, Note_off_c, 1, 58, 100
3, 99072, Note_on_c, 1, 56, 80
3, 99260, Note_off_c, 1, 53, 100
3, 99260, Note_off_c, 1, 56, 100
3, 99264, Note_on_c, 1, 51, 80
3, 99264, Note_on_c, 1, 55, 80
3, 99452, Note_off_c, 1, 51, 100
3, 99452, Note_off_c, 1, 55, 100
3, 99456, Note_on_c, 1, 53, 80
3, 99456, Note_on_c, 1, 50, 80
3, 100028, Note_off_c, 1, 53, 100
3, 100028, Note_off_c, 1, 50, 100
3, 100032, Note_on_c, 1, 51, 80
3, 100032, Note_on_c, 1, 48, 80
3, 100220, Note_off_c, 1, 51, 100
3, 100220, Note_off_c, 1, 48, 100
3, 100224, Note_on_c, 1, 50, 80
3, 100224, Note_on_c, 1, 46, 80
3, 100412, Note_off_c, 1, 50, 100
3, 100412, Note_off_c, 1, 46, 100
3, 100416, Note_on_c, 1, 53, 80
3, 100416, Note_on_c, 1, 50, 80
3, 100604, Note_off_c, 1, 53, 100
3, 100604, Note_off_c, 1, 50, 100
3, 100608, Note_on_c, 1, 51, 80
3, 100988, Note_off_c, 1, 51, 100
3, 100992, Note_on_c, 1, 39, 80
3, 101372, Note_off_c, 1, 39, 100
3, 101376, Note_on_c, 1, 51, 80
3, 101660, Note_off_c, 1, 51, 100
3, 101664, Note_on_c, 1, 53, 80
3, 101756, Note_off_c, 1, 53, 100
3, 101760, Note_on_c, 1, 55, 80
3, 102332, Note_off_c, 1, 55, 100
3, 102336, Note_on_c, 1, 51, 80
3, 102524, Note_off_c, 1, 51, 100
3, 102528, Note_on_c, 1, 56, 80
3, 102716, Note_off_c, 1, 56, 100
3, 102720, Note_on_c, 1, 53, 80
3, 102908, Note_off_c, 1, 53, 100
3, 102912, Note_on_c, 1, 55, 80
3, 103676, Note_off_c, 1, 55, 100
3, 103680, Note_on_c, 1, 56, 80
3, 103868, Note_off_c, 1, 56, 100
3, 103872, Note_on_c, 1, 55, 80
3, 104060, Note_off_c, 1, 55, 100
3, 104064, Note_on_c, 1, 53, 80
3, 104636, Note_off_c, 1, 53, 100
3, 104640, Note_on_c, 1, 46, 80
3, 104828, Note_off_c, 1, 46, 100
3, 104832, Note_on_c, 1, 51, 80
3, 105020, Note_off_c, 1, 51, 100
3, 105024, Note_on_c, 1, 44, 80
3, 105212, Note_off_c, 1, 44, 100
3, 105216, Note_on_c, 1, 46, 80
3, 105788, Note_off_c, 1, 46, 100
3, 106368, Note_on_c, 1, 46, 80
3, 106556, Note_off_c, 1, 46, 100
3, 106560, Note_on_c, 1, 58, 80
3, 106748, Note_off_c, 1, 58, 100
3, 106752, Note_on_c, 1, 62, 80
3, 106940, Note_off_c, 1, 62, 100
3, 106944, Note_on_c, 1, 58, 80
3, 107132, Note_off_c, 1, 58, 100
3, 107136, Note_on_c, 1, 65, 80
3, 107324, Note_off_c, 1, 65, 100
3, 107328, Note_on_c, 1, 58, 80
3, 107516, Note_off_c, 1, 58, 100
3, 107520, Note_on_c, 1, 63, 80
3, 107708, Note_off_c, 1, 63, 100
3, 107712, Note_on_c, 1, 58, 80
3, 107900, Note_off_c, 1, 58, 100
3, 107904, Note_on_c, 1, 65, 80
3, 108092, Note_off_c, 1, 65, 100
3, 108096, Note_on_c, 1, 58, 80
3, 108284, Note_off_c, 1, 58, 100
3, 108288, Note_on_c, 1, 67, 80
3, 108476, Note_off_c, 1, 67, 100
3, 108480, Note_on_c, 1, 58, 80
3, 108668, Note_off_c, 1, 58, 100
3, 108672, Note_on_c, 1, 46, 80
3, 108860, Note_off_c, 1, 46, 100
3, 108864, Note_on_c, 1, 58, 80
3, 109052, Note_off_c, 1, 58, 100
3, 109056, Note_on_c, 1, 62, 80
3, 109244, Note_off_c, 1, 62, 100
3, 109248, Note_on_c, 1, 58, 80
3, 109436, Note_off_c, 1, 58, 100
3, 109440, Note_on_c, 1, 65, 80
3, 109628, Note_off_c, 1, 65, 100
3, 109632, Note_on_c, 1, 58, 80
3, 109820, Note_off_c, 1, 58, 100
3, 109824, Note_on_c, 1, 63, 80
3, 110012, Note_off_c, 1, 63, 100
3, 110016, Note_on_c, 1, 58, 80
3, 110204, Note_off_c, 1, 58, 100
3, 110208, Note_on_c, 1, 65, 80
3, 110396, Note_off_c, 1, 65, 100
3, 110400, Note_on_c, 1, 58, 80
3, 110588, Note_off_c, 1, 58, 100
3, 110592, Note_on_c, 1, 67, 80
3, 110780, Note_off_c, 1, 67, 100
3, 110784, Note_on_c, 1, 58, 80
3, 110972, Note_off_c, 1, 58, 100
3, 110976, Note_on_c, 1, 51, 80
3, 111164, Note_off_c, 1, 51, 100
3, 111168, Note_on_c, 1, 63, 80
3, 111356, Note_off_c, 1, 63, 100
3, 111360, Note_on_c, 1, 67, 80
3, 111548, Note_off_c, 1, 67, 100
3, 111552, Note_on_c, 1, 63, 80
3, 111740, Note_off_c, 1, 63, 100
3, 111744, Note_on_c, 1, 65, 80
3, 111932, Note_off_c, 1, 65, 100
3, 111936, Note_on_c, 1, 68, 80
3, 112124, Note_off_c, 1, 68, 100
3, 112128, Note_on_c, 1, 67, 80
3, 112316, Note_off_c, 1, 67, 100
3, 112320, Note_on_c, 1, 66, 80
3, 112508, Note_off_c, 1, 66, 100
3, 112512, Note_on_c, 1, 67, 80
3, 112700, Note_off_c, 1, 67, 100
3, 112704, Note_on_c, 1, 63, 80
3, 112892, Note_off_c, 1, 63, 100
3, 112896, Note_on_c, 1, 60, 80
3, 113084, Note_off_c, 1, 60, 100
3, 113088, Note_on_c, 1, 62, 80
3, 113276, Note_off_c, 1, 62, 100
3, 113280, Note_on_c, 1, 63, 80
3, 113468, Note_off_c, 1, 63, 100
3, 113472, Note_on_c, 1, 60, 80
3, 113660, Note_off_c, 1, 60, 100
3, 113664, Note_on_c, 1, 56, 80
3, 113852, Note_off_c, 1, 56, 100
3, 113856, Note_on_c, 1, 53, 80
3, 114044, Note_off_c, 1, 53, 100
3, 114048, Note_on_c, 1, 58, 80
3, 114240, Note_on_c, 1, 46, 80
3, 114428, Note_off_c, 1, 46, 100
3, 114432, Note_on_c, 1, 51, 80
3, 114620, Note_off_c, 1, 58, 100
3, 114624, Note_on_c, 1, 62, 80
3, 114812, Note_off_c, 1, 62, 100
3, 114816, Note_on_c, 1, 63, 80
3, 115004, Note_off_c, 1, 51, 100
3, 115004, Note_off_c, 1, 63, 100
3, 115008, Note_on_c, 1, 58, 80
3, 115196, Note_off_c, 1, 58, 100
3, 115200, Note_on_c, 1, 55, 80
3, 115388, Note_off_c, 1, 55, 100
3, 115392, Note_on_c, 1, 51, 80
3, 115580, Note_off_c, 1, 51, 100
3, 115584, Note_on_c, 1, 46, 80
3, 115772, Note_off_c, 1, 46, 100
3, 115776, Note_on_c, 1, 58, 80
3, 115964, Note_off_c, 1, 58, 100
3, 115968, Note_on_c, 1, 62, 80
3, 116156, Note_off_c, 1, 62, 100
3, 116160, Note_on_c, 1, 58, 80
3, 116348, Note_off_c, 1, 58, 100
3, 116352, Note_on_c, 1, 65, 80
3, 116540, Note_off_c, 1, 65, 100
3, 116544, Note_on_c, 1, 58, 80
3, 116732, Note_off_c, 1, 58, 100
3, 116736, Note_on_c, 1, 63, 80
3, 116924, Note_off_c, 1, 63, 100
3, 116928, Note_on_c, 1, 58, 80
3, 117116, Note_off_c, 1, 58, 100
3, 117120, Note_on_c, 1, 65, 80
3, 117308, Note_off_c, 1, 65, 100
3, 117312, Note_on_c, 1, 58, 80
3, 117500, Note_off_c, 1, 58, 100
3, 117504, Note_on_c, 1, 67, 80
3, 117692, Note_off_c, 1, 67, 100
3, 117696, Note_on_c, 1, 58, 80
3, 117884, Note_off_c, 1, 58, 100
3, 117888, Note_on_c, 1, 46, 80
3, 118076, Note_off_c, 1, 46, 100
3, 118080, Note_on_c, 1, 58, 80
3, 118268, Note_off_c, 1, 58, 100
3, 118272, Note_on_c, 1, 62, 80
3, 118460, Note_off_c, 1, 62, 100
3, 118464, Note_on_c, 1, 58, 80
3, 118652, Note_off_c, 1, 58, 100
3, 118656, Note_on_c, 1, 65, 80
3, 118844, Note_off_c, 1, 65, 100
3, 118848, Note_on_c, 1, 58, 80
3, 119036, Note_off_c, 1, 58, 100
3, 119040, Note_on_c, 1, 63, 80
3, 119228, Note_off_c, 1, 63, 100
3, 119232, Note_on_c, 1, 58, 80
3, 119420, Note_off_c, 1, 58, 100
3, 119424, Note_on_c, 1, 65, 80
3, 119612, Note_off_c, 1, 65, 100
3, 119616, Note_on_c, 1, 58, 80
3, 119804, Note_off_c, 1, 58, 100
3, 119808, Note_on_c, 1, 67, 80
3, 119996, Note_off_c, 1, 67, 100
3, 120000, Note_on_c, 1, 58, 80
3, 120188, Note_off_c, 1, 58, 100
3, 120192, Note_on_c, 1, 51, 80
3, 120380, Note_off_c, 1, 51, 100
3, 120384, Note_on_c, 1, 63, 80
3, 120572, Note_off_c, 1, 63, 100
3, 120576, Note_on_c, 1, 67, 80
3, 120764, Note_off_c, 1, 67, 100
3, 120768, Note_on_c, 1, 63, 80
3, 120956, Note_off_c, 1, 63, 100
3, 120960, Note_on_c, 1, 65, 80
3, 121148, Note_off_c, 1, 65, 100
3, 121152, Note_on_c, 1, 68, 80
3, 121340, Note_off_c, 1, 68, 100
3, 121344, Note_on_c, 1, 67, 80
3, 121532, Note_off_c, 1, 67, 100
3, 121536, Note_on_c, 1, 66, 80
3, 121724, Note_off_c, 1, 66, 100
3, 121728, Note_on_c, 1, 67, 80
3, 121916, Note_off_c, 1, 67, 100
3, 121920, Note_on_c, 1, 63, 80
3, 122108, Note_off_c, 1, 63, 100
3, 122112, Note_on_c, 1, 60, 80
3, 122300, Note_off_c, 1, 60, 100
3, 122304, Note_on_c, 1, 62, 80
3, 122492, Note_off_c, 1, 62, 100
3, 122496, Note_on_c, 1, 63, 80
3, 122684, Note_off_c, 1, 63, 100
3, 122688, Note_on_c, 1, 60, 80
3, 122876, Note_off_c, 1, 60, 100
3, 122880, Note_on_c, 1, 56, 80
3, 123068, Note_off_c, 1, 56, 100
3, 123072, Note_on_c, 1, 53, 80
3, 123260, Note_off_c, 1, 53, 100
3, 123264, Note_on_c, 1, 58, 80
3, 123456, Note_on_c, 1, 46, 80
3, 123644, Note_off_c, 1, 58, 100
3, 123644, Note_off_c, 1, 46, 100
3, 123648, Note_on_c, 1, 51, 80
3, 124028, Note_off_c, 1, 51, 100
3, 124032, Note_on_c, 1, 39, 80
3, 124412, Note_off_c, 1, 39, 100
3, 125184, Note_on_c, 1, 39, 80
3, 125564, Note_off_c, 1, 39, 100
3, 126336, Note_on_c, 1, 39, 80
3, 126716, Note_off_c, 1, 39, 100
3, 127488, Note_on_c, 1, 39, 80
3, 127868, Note_off_c, 1, 39, 100
3, 128640, Note_on_c, 1, 39, 79
3, 129020, Note_off_c, 1, 39, 100
3, 129024, Note_on_c, 1, 39, 78
3, 129404, Note_off_c, 1, 39, 100
3, 129792, Note_on_c, 1, 39, 76
3, 130172, Note_off_c, 1, 39, 100
3, 130176, Note_on_c, 1, 39, 75
3, 130556, Note_off_c, 1, 39, 100
3, 130944, Note_on_c, 1, 39, 73
3, 131324, Note_off_c, 1, 39, 100
3, 132096, Note_on_c, 1, 39, 70
3, 132476, Note_off_c, 1, 39, 100
3, 132480, Note_on_c, 1, 39, 70
3, 132860, Note_off_c, 1, 39, 100
3, 132864, Note_on_c, 1, 39, 70
3, 134012, Note_off_c, 1, 39, 100
3, 134012, End_track
0, 0, End_of_file
