0, 0, Header, 1, 3, 384
1, 0, Start_track
1, 0, Title_t, "L.v.Beethoven 1mov - Piano Sonata No.19 in g minor Op.49-1\000"
1, 0, Copyright_t, "Copyright(C) 1995-2009, Suzuki Software\000"
1, 0, Sequencer_specific, 9, 67, 123, 0, 88, 70, 48, 50, 0, 1
1, 0, Text_t, "XFhd:2000/07/25:JP:Classical::::L.v.Beethoven:::Kaoru Suzuki\000"
1, 0, Text_t, "XFln:JP:\203s\203A\203m\203\\\203i\203^\221æ19\224Ô\203g\222Z\222²\215ì\225i49-1\201`\221æ1\212y\217Í:L.v.\203x\201[\203g\201[\203\224\203F\203\223:::\227é\202¿\202á\202ñ:\227é\202¿\202á\202ñ\000"
1, 0, Time_signature, 1, 2, 96, 8
1, 0, Sequencer_specific, 3, 0, 0, 65
1, 0, Sequencer_specific, 5, 0, 0, 119, 14, 0
1, 0, Tempo, 923076
1, 384, Time_signature, 2, 2, 96, 8
1, 1536, Tempo, 1000000
1, 1920, Tempo, 923076
1, 3072, Tempo, 1000000
1, 3648, Tempo, 923076
1, 6336, Tempo, 1000000
1, 6528, Tempo, 923076
1, 24576, Tempo, 1000000
1, 24960, Tempo, 1090909
1, 25728, Tempo, 923076
1, 28416, Tempo, 967741
1, 28608, Tempo, 1090909
1, 28800, Tempo, 952380
1, 31488, Tempo, 1000000
1, 31680, Tempo, 1090909
1, 31872, Tempo, 923076
1, 50304, Tempo, 967741
1, 50688, Tempo, 1090909
1, 51072, Tempo, 967741
1, 53760, Tempo, 1000000
1, 53952, Tempo, 1034482
1, 54528, Tempo, 967741
1, 55488, Tempo, 923076
1, 59904, Tempo, 952380
1, 60096, Tempo, 1000000
1, 60480, Tempo, 923076
1, 73344, Tempo, 952380
1, 73536, Tempo, 1000000
1, 73728, Tempo, 1132075
1, 73920, Tempo, 2000000
1, 74112, Tempo, 1200000
1, 74400, Tempo, 923076
1, 81600, Tempo, 1000000
1, 81888, Tempo, 923076
1, 83136, Tempo, 1000000
1, 83424, Tempo, 923076
1, 86016, Tempo, 967741
1, 86208, Tempo, 1090909
1, 86536, Tempo, 923076
1, 92928, Tempo, 967741
1, 93120, Tempo, 1052631
1, 93408, Tempo, 923076
1, 95616, Tempo, 937500
1, 96384, Tempo, 952380
1, 97152, Tempo, 967741
1, 97920, Tempo, 983606
1, 108672, Tempo, 1000000
1, 109056, Tempo, 1200000
1, 109248, Tempo, 1500000
1, 109248, End_track
2, 0, Start_track
2, 0, Title_t, "Right"
2, 0, Control_c, 0, 0, 0
2, 0, Program_c, 0, 0
2, 0, Control_c, 0, 7, 100
2, 0, Control_c, 0, 10, 73
2, 0, Control_c, 0, 91, 127
2, 0, Key_signature, -2, "minor"
2, 192, Note_on_c, 0, 62, 80
2, 380, Note_off_c, 0, 62, 100
2, 384, Note_on_c, 0, 70, 80
2, 572, Note_off_c, 0, 70, 100
2, 576, Note_on_c, 0, 67, 80
2, 764, Note_off_c, 0, 67, 100
2, 768, Note_on_c, 0, 66, 80
2, 956, Note_off_c, 0, 66, 100
2, 960, Note_on_c, 0, 67, 80
2, 1148, Note_off_c, 0, 67, 100
2, 1152, Note_on_c, 0, 72, 100
2, 1152, Note_on_c, 0, 62, 100
2, 1916, Note_off_c, 0, 72, 100
2, 1916, Note_off_c, 0, 62, 100
2, 1920, Note_on_c, 0, 70, 80
2, 2108, Note_off_c, 0, 70, 100
2, 2112, Note_on_c, 0, 67, 80
2, 2300, Note_off_c, 0, 67, 100
2, 2304, Note_on_c, 0, 66, 80
2, 2492, Note_off_c, 0, 66, 100
2, 2496, Note_on_c, 0, 67, 80
2, 2684, Note_off_c, 0, 67, 100
2, 2688, Note_on_c, 0, 75, 100
2, 2688, Note_on_c, 0, 63, 100
2, 3452, Note_off_c, 0, 75, 100
2, 3452, Note_off_c, 0, 63, 100
2, 3456, Note_on_c, 0, 74, 80
2, 3644, Note_off_c, 0, 74, 100
2, 3648, Note_on_c, 0, 78, 80
2, 3836, Note_off_c, 0, 78, 100
2, 3840, Note_on_c, 0, 79, 80
2, 4028, Note_off_c, 0, 79, 100
2, 4032, Note_on_c, 0, 74, 80
2, 4220, Note_off_c, 0, 74, 100
2, 4224, Note_on_c, 0, 72, 80
2, 4412, Note_off_c, 0, 72, 100
2, 4416, Note_on_c, 0, 80, 80
2, 4604, Note_off_c, 0, 80, 100
2, 4608, Note_on_c, 0, 81, 80
2, 4796, Note_off_c, 0, 81, 100
2, 4800, Note_on_c, 0, 72, 80
2, 4988, Note_off_c, 0, 72, 100
2, 4992, Note_on_c, 0, 70, 80
2, 5180, Note_off_c, 0, 70, 100
2, 5184, Note_on_c, 0, 79, 80
2, 5372, Note_off_c, 0, 79, 100
2, 5376, Note_on_c, 0, 69, 80
2, 5564, Note_off_c, 0, 69, 100
2, 5568, Note_on_c, 0, 75, 80
2, 5756, Note_off_c, 0, 75, 100
2, 5760, Note_on_c, 0, 67, 80
2, 6044, Note_off_c, 0, 67, 100
2, 6048, Note_on_c, 0, 69, 80
2, 6092, Note_off_c, 0, 69, 100
2, 6096, Note_on_c, 0, 67, 80
2, 6140, Note_off_c, 0, 67, 100
2, 6144, Note_on_c, 0, 66, 80
2, 6332, Note_off_c, 0, 66, 100
2, 6336, Note_on_c, 0, 62, 80
2, 6524, Note_off_c, 0, 62, 100
2, 6528, Note_on_c, 0, 70, 80
2, 6716, Note_off_c, 0, 70, 100
2, 6720, Note_on_c, 0, 67, 80
2, 6908, Note_off_c, 0, 67, 100
2, 6912, Note_on_c, 0, 66, 80
2, 7100, Note_off_c, 0, 66, 100
2, 7104, Note_on_c, 0, 67, 80
2, 7292, Note_off_c, 0, 67, 100
2, 7296, Note_on_c, 0, 72, 100
2, 7296, Note_on_c, 0, 62, 100
2, 8060, Note_off_c, 0, 72, 100
2, 8060, Note_off_c, 0, 62, 100
2, 8064, Note_on_c, 0, 70, 80
2, 8252, Note_off_c, 0, 70, 100
2, 8256, Note_on_c, 0, 67, 80
2, 8444, Note_off_c, 0, 67, 100
2, 8448, Note_on_c, 0, 66, 80
2, 8636, Note_off_c, 0, 66, 100
2, 8640, Note_on_c, 0, 67, 80
2, 8828, Note_off_c, 0, 67, 100
2, 8832, Note_on_c, 0, 75, 100
2, 9404, Note_off_c, 0, 75, 100
2, 9408, Note_on_c, 0, 75, 80
2, 9692, Note_off_c, 0, 75, 100
2, 9696, Note_on_c, 0, 74, 80
2, 9788, Note_off_c, 0, 74, 100
2, 9792, Note_on_c, 0, 77, 80
2, 9884, Note_off_c, 0, 77, 100
2, 9888, Note_on_c, 0, 76, 80
2, 9980, Note_off_c, 0, 76, 100
2, 9984, Note_on_c, 0, 79, 80
2, 10076, Note_off_c, 0, 79, 100
2, 10080, Note_on_c, 0, 77, 80
2, 10172, Note_off_c, 0, 77, 100
2, 10176, Note_on_c, 0, 75, 80
2, 10268, Note_off_c, 0, 75, 100
2, 10272, Note_on_c, 0, 74, 80
2, 10364, Note_off_c, 0, 74, 100
2, 10368, Note_on_c, 0, 72, 80
2, 10400, Note_on_c, 0, 74, 80
2, 10416, Note_off_c, 0, 72, 100
2, 10432, Note_on_c, 0, 75, 80
2, 10448, Note_off_c, 0, 74, 100
2, 10464, Note_on_c, 0, 74, 80
2, 10480, Note_off_c, 0, 75, 100
2, 10556, Note_off_c, 0, 74, 100
2, 10560, Note_on_c, 0, 72, 80
2, 10748, Note_off_c, 0, 72, 100
2, 10752, Note_on_c, 0, 71, 80
2, 10784, Note_on_c, 0, 72, 80
2, 10808, Note_off_c, 0, 71, 100
2, 10816, Note_on_c, 0, 74, 80
2, 10836, Note_off_c, 0, 72, 100
2, 10848, Note_on_c, 0, 72, 80
2, 10872, Note_off_c, 0, 74, 100
2, 10940, Note_off_c, 0, 72, 100
2, 10944, Note_on_c, 0, 70, 80
2, 11132, Note_off_c, 0, 70, 100
2, 11136, Note_on_c, 0, 69, 80
2, 11160, Note_on_c, 0, 70, 80
2, 11176, Note_off_c, 0, 69, 100
2, 11184, Note_on_c, 0, 72, 80
2, 11200, Note_off_c, 0, 70, 100
2, 11208, Note_on_c, 0, 70, 80
2, 11224, Note_off_c, 0, 72, 100
2, 11232, Note_on_c, 0, 69, 80
2, 11248, Note_off_c, 0, 70, 100
2, 11324, Note_off_c, 0, 69, 100
2, 11328, Note_on_c, 0, 67, 80
2, 11420, Note_off_c, 0, 67, 100
2, 11424, Note_on_c, 0, 65, 80
2, 11516, Note_off_c, 0, 65, 100
2, 11520, Note_on_c, 0, 64, 80
2, 11612, Note_off_c, 0, 64, 100
2, 11616, Note_on_c, 0, 65, 80
2, 11708, Note_off_c, 0, 65, 100
2, 11712, Note_on_c, 0, 67, 80
2, 11804, Note_off_c, 0, 67, 100
2, 11808, Note_on_c, 0, 65, 80
2, 11900, Note_off_c, 0, 65, 100
2, 11904, Note_on_c, 0, 75, 80
2, 12092, Note_off_c, 0, 75, 100
2, 12096, Note_on_c, 0, 69, 80
2, 12284, Note_off_c, 0, 69, 100
2, 12288, Note_on_c, 0, 69, 80
2, 12476, Note_off_c, 0, 69, 100
2, 12480, Note_on_c, 0, 69, 80
2, 12668, Note_off_c, 0, 69, 100
2, 12672, Note_on_c, 0, 70, 80
2, 12764, Note_off_c, 0, 70, 100
2, 12768, Note_on_c, 0, 72, 80
2, 12796, Note_off_c, 0, 72, 100
2, 12800, Note_on_c, 0, 70, 80
2, 12828, Note_off_c, 0, 70, 100
2, 12832, Note_on_c, 0, 69, 80
2, 12860, Note_off_c, 0, 69, 100
2, 12864, Note_on_c, 0, 70, 80
2, 12956, Note_off_c, 0, 70, 100
2, 12960, Note_on_c, 0, 74, 80
2, 13052, Note_off_c, 0, 74, 100
2, 13056, Note_on_c, 0, 77, 80
2, 13244, Note_off_c, 0, 77, 100
2, 13248, Note_on_c, 0, 77, 80
2, 13436, Note_off_c, 0, 77, 100
2, 13440, Note_on_c, 0, 87, 80
2, 13628, Note_off_c, 0, 87, 100
2, 13632, Note_on_c, 0, 81, 80
2, 13820, Note_off_c, 0, 81, 100
2, 13824, Note_on_c, 0, 81, 80
2, 14012, Note_off_c, 0, 81, 100
2, 14016, Note_on_c, 0, 81, 80
2, 14204, Note_off_c, 0, 81, 100
2, 14208, Note_on_c, 0, 82, 80
2, 14300, Note_off_c, 0, 82, 100
2, 14304, Note_on_c, 0, 84, 80
2, 14332, Note_off_c, 0, 84, 100
2, 14336, Note_on_c, 0, 82, 80
2, 14364, Note_off_c, 0, 82, 100
2, 14368, Note_on_c, 0, 81, 80
2, 14396, Note_off_c, 0, 81, 100
2, 14400, Note_on_c, 0, 82, 80
2, 14492, Note_off_c, 0, 82, 100
2, 14496, Note_on_c, 0, 86, 80
2, 14588, Note_off_c, 0, 86, 100
2, 14592, Note_on_c, 0, 89, 80
2, 14780, Note_off_c, 0, 89, 100
2, 14784, Note_on_c, 0, 65, 80
2, 14972, Note_off_c, 0, 65, 100
2, 14976, Note_on_c, 0, 75, 80
2, 15164, Note_off_c, 0, 75, 100
2, 15168, Note_on_c, 0, 69, 80
2, 15356, Note_off_c, 0, 69, 100
2, 15360, Note_on_c, 0, 69, 80
2, 15548, Note_off_c, 0, 69, 100
2, 15552, Note_on_c, 0, 69, 80
2, 15740, Note_off_c, 0, 69, 100
2, 15744, Note_on_c, 0, 70, 80
2, 15836, Note_off_c, 0, 70, 100
2, 15840, Note_on_c, 0, 72, 80
2, 15868, Note_off_c, 0, 72, 100
2, 15872, Note_on_c, 0, 70, 80
2, 15900, Note_off_c, 0, 70, 100
2, 15904, Note_on_c, 0, 69, 80
2, 15932, Note_off_c, 0, 69, 100
2, 15936, Note_on_c, 0, 70, 80
2, 16028, Note_off_c, 0, 70, 100
2, 16032, Note_on_c, 0, 72, 80
2, 16124, Note_off_c, 0, 72, 100
2, 16128, Note_on_c, 0, 74, 80
2, 16220, Note_off_c, 0, 74, 100
2, 16224, Note_on_c, 0, 70, 80
2, 16316, Note_off_c, 0, 70, 100
2, 16320, Note_on_c, 0, 72, 80
2, 16412, Note_off_c, 0, 72, 100
2, 16416, Note_on_c, 0, 74, 80
2, 16508, Note_off_c, 0, 74, 100
2, 16512, Note_on_c, 0, 75, 80
2, 16604, Note_off_c, 0, 75, 100
2, 16608, Note_on_c, 0, 77, 80
2, 16636, Note_off_c, 0, 77, 100
2, 16640, Note_on_c, 0, 75, 80
2, 16668, Note_off_c, 0, 75, 100
2, 16672, Note_on_c, 0, 74, 80
2, 16700, Note_off_c, 0, 74, 100
2, 16704, Note_on_c, 0, 75, 80
2, 16796, Note_off_c, 0, 75, 100
2, 16800, Note_on_c, 0, 77, 80
2, 16892, Note_off_c, 0, 77, 100
2, 16896, Note_on_c, 0, 79, 80
2, 16988, Note_off_c, 0, 79, 100
2, 16992, Note_on_c, 0, 81, 80
2, 17084, Note_off_c, 0, 81, 100
2, 17088, Note_on_c, 0, 82, 80
2, 17180, Note_off_c, 0, 82, 100
2, 17184, Note_on_c, 0, 79, 80
2, 17276, Note_off_c, 0, 79, 100
2, 17280, Note_on_c, 0, 76, 80
2, 17372, Note_off_c, 0, 76, 100
2, 17376, Note_on_c, 0, 77, 80
2, 17468, Note_off_c, 0, 77, 100
2, 17472, Note_on_c, 0, 79, 80
2, 17564, Note_off_c, 0, 79, 100
2, 17568, Note_on_c, 0, 77, 80
2, 17660, Note_off_c, 0, 77, 100
2, 17664, Note_on_c, 0, 77, 80
2, 17756, Note_off_c, 0, 77, 100
2, 17760, Note_on_c, 0, 75, 80
2, 17852, Note_off_c, 0, 75, 100
2, 17856, Note_on_c, 0, 74, 80
2, 17948, Note_off_c, 0, 74, 100
2, 17952, Note_on_c, 0, 72, 80
2, 18044, Note_off_c, 0, 72, 100
2, 18048, Note_on_c, 0, 73, 80
2, 18140, Note_off_c, 0, 73, 100
2, 18144, Note_on_c, 0, 74, 80
2, 18236, Note_off_c, 0, 74, 100
2, 18240, Note_on_c, 0, 75, 80
2, 18332, Note_off_c, 0, 75, 100
2, 18336, Note_on_c, 0, 74, 80
2, 18428, Note_off_c, 0, 74, 100
2, 18432, Note_on_c, 0, 77, 80
2, 18524, Note_off_c, 0, 77, 100
2, 18528, Note_on_c, 0, 75, 80
2, 18620, Note_off_c, 0, 75, 100
2, 18624, Note_on_c, 0, 74, 80
2, 18716, Note_off_c, 0, 74, 100
2, 18720, Note_on_c, 0, 72, 80
2, 18812, Note_off_c, 0, 72, 100
2, 18816, Note_on_c, 0, 70, 80
2, 18908, Note_off_c, 0, 70, 100
2, 18912, Note_on_c, 0, 72, 80
2, 18940, Note_off_c, 0, 72, 100
2, 18944, Note_on_c, 0, 70, 80
2, 18972, Note_off_c, 0, 70, 100
2, 18976, Note_on_c, 0, 69, 80
2, 19004, Note_off_c, 0, 69, 100
2, 19008, Note_on_c, 0, 70, 80
2, 19100, Note_off_c, 0, 70, 100
2, 19104, Note_on_c, 0, 72, 80
2, 19196, Note_off_c, 0, 72, 100
2, 19200, Note_on_c, 0, 74, 80
2, 19292, Note_off_c, 0, 74, 100
2, 19296, Note_on_c, 0, 70, 80
2, 19388, Note_off_c, 0, 70, 100
2, 19392, Note_on_c, 0, 72, 80
2, 19484, Note_off_c, 0, 72, 100
2, 19488, Note_on_c, 0, 74, 80
2, 19580, Note_off_c, 0, 74, 100
2, 19584, Note_on_c, 0, 75, 80
2, 19676, Note_off_c, 0, 75, 100
2, 19680, Note_on_c, 0, 77, 80
2, 19772, Note_off_c, 0, 77, 100
2, 19776, Note_on_c, 0, 79, 80
2, 19868, Note_off_c, 0, 79, 100
2, 19872, Note_on_c, 0, 81, 80
2, 19964, Note_off_c, 0, 81, 100
2, 19968, Note_on_c, 0, 84, 80
2, 20060, Note_off_c, 0, 84, 100
2, 20064, Note_on_c, 0, 82, 80
2, 20156, Note_off_c, 0, 82, 100
2, 20160, Note_on_c, 0, 81, 80
2, 20252, Note_off_c, 0, 81, 100
2, 20256, Note_on_c, 0, 79, 80
2, 20348, Note_off_c, 0, 79, 100
2, 20352, Note_on_c, 0, 79, 80
2, 20444, Note_off_c, 0, 79, 100
2, 20448, Note_on_c, 0, 77, 80
2, 20540, Note_off_c, 0, 77, 100
2, 20544, Note_on_c, 0, 76, 80
2, 20636, Note_off_c, 0, 76, 100
2, 20640, Note_on_c, 0, 77, 80
2, 20732, Note_off_c, 0, 77, 100
2, 20736, Note_on_c, 0, 81, 80
2, 20828, Note_off_c, 0, 81, 100
2, 20832, Note_on_c, 0, 79, 80
2, 20924, Note_off_c, 0, 79, 100
2, 20928, Note_on_c, 0, 77, 80
2, 21020, Note_off_c, 0, 77, 100
2, 21024, Note_on_c, 0, 75, 80
2, 21116, Note_off_c, 0, 75, 100
2, 21120, Note_on_c, 0, 75, 80
2, 21212, Note_off_c, 0, 75, 100
2, 21216, Note_on_c, 0, 74, 80
2, 21308, Note_off_c, 0, 74, 100
2, 21312, Note_on_c, 0, 73, 80
2, 21404, Note_off_c, 0, 73, 100
2, 21408, Note_on_c, 0, 74, 80
2, 21500, Note_off_c, 0, 74, 100
2, 21504, Note_on_c, 0, 77, 80
2, 21596, Note_off_c, 0, 77, 100
2, 21600, Note_on_c, 0, 75, 80
2, 21692, Note_off_c, 0, 75, 100
2, 21696, Note_on_c, 0, 74, 80
2, 21788, Note_off_c, 0, 74, 100
2, 21792, Note_on_c, 0, 72, 80
2, 21884, Note_off_c, 0, 72, 100
2, 21888, Note_on_c, 0, 70, 80
2, 22268, Note_off_c, 0, 70, 100
2, 22464, Note_on_c, 0, 72, 80
2, 22556, Note_off_c, 0, 72, 100
2, 22560, Note_on_c, 0, 74, 80
2, 22652, Note_off_c, 0, 74, 100
2, 22656, Note_on_c, 0, 75, 80
2, 22844, Note_off_c, 0, 75, 100
2, 22848, Note_on_c, 0, 69, 80
2, 23036, Note_off_c, 0, 69, 100
2, 23040, Note_on_c, 0, 69, 80
2, 23228, Note_off_c, 0, 69, 100
2, 23232, Note_on_c, 0, 69, 80
2, 23420, Note_off_c, 0, 69, 100
2, 23424, Note_on_c, 0, 70, 80
2, 23804, Note_off_c, 0, 70, 100
2, 24000, Note_on_c, 0, 72, 80
2, 24092, Note_off_c, 0, 72, 100
2, 24096, Note_on_c, 0, 74, 80
2, 24188, Note_off_c, 0, 74, 100
2, 24192, Note_on_c, 0, 75, 80
2, 24380, Note_off_c, 0, 75, 100
2, 24384, Note_on_c, 0, 69, 80
2, 24572, Note_off_c, 0, 69, 100
2, 24576, Note_on_c, 0, 69, 80
2, 24764, Note_off_c, 0, 69, 100
2, 24768, Note_on_c, 0, 69, 80
2, 24956, Note_off_c, 0, 69, 100
2, 24960, Note_on_c, 0, 72, 80
2, 24960, Note_on_c, 0, 69, 80
2, 25340, Note_off_c, 0, 72, 100
2, 25340, Note_off_c, 0, 69, 100
2, 25344, Note_on_c, 0, 70, 80
2, 25532, Note_off_c, 0, 70, 100
2, 25536, Note_on_c, 0, 62, 80
2, 25724, Note_off_c, 0, 62, 100
2, 25728, Note_on_c, 0, 70, 80
2, 25916, Note_off_c, 0, 70, 100
2, 25920, Note_on_c, 0, 67, 80
2, 26108, Note_off_c, 0, 67, 100
2, 26112, Note_on_c, 0, 66, 80
2, 26300, Note_off_c, 0, 66, 100
2, 26304, Note_on_c, 0, 67, 80
2, 26492, Note_off_c, 0, 67, 100
2, 26496, Note_on_c, 0, 72, 100
2, 26496, Note_on_c, 0, 62, 100
2, 27260, Note_off_c, 0, 72, 100
2, 27260, Note_off_c, 0, 62, 100
2, 27264, Note_on_c, 0, 70, 80
2, 27452, Note_off_c, 0, 70, 100
2, 27456, Note_on_c, 0, 67, 80
2, 27644, Note_off_c, 0, 67, 100
2, 27648, Note_on_c, 0, 66, 80
2, 27836, Note_off_c, 0, 66, 100
2, 27840, Note_on_c, 0, 67, 80
2, 28028, Note_off_c, 0, 67, 100
2, 28032, Note_on_c, 0, 75, 100
2, 28032, Note_on_c, 0, 63, 100
2, 28796, Note_off_c, 0, 75, 100
2, 28796, Note_off_c, 0, 63, 100
2, 28800, Note_on_c, 0, 74, 80
2, 28988, Note_off_c, 0, 74, 100
2, 28992, Note_on_c, 0, 78, 80
2, 29180, Note_off_c, 0, 78, 100
2, 29184, Note_on_c, 0, 79, 80
2, 29372, Note_off_c, 0, 79, 100
2, 29376, Note_on_c, 0, 74, 80
2, 29564, Note_off_c, 0, 74, 100
2, 29568, Note_on_c, 0, 72, 80
2, 29756, Note_off_c, 0, 72, 100
2, 29760, Note_on_c, 0, 80, 80
2, 29948, Note_off_c, 0, 80, 100
2, 29952, Note_on_c, 0, 81, 80
2, 30140, Note_off_c, 0, 81, 100
2, 30144, Note_on_c, 0, 72, 80
2, 30332, Note_off_c, 0, 72, 100
2, 30336, Note_on_c, 0, 70, 80
2, 30524, Note_off_c, 0, 70, 100
2, 30528, Note_on_c, 0, 79, 80
2, 30716, Note_off_c, 0, 79, 100
2, 30720, Note_on_c, 0, 69, 80
2, 30908, Note_off_c, 0, 69, 100
2, 30912, Note_on_c, 0, 75, 80
2, 31100, Note_off_c, 0, 75, 100
2, 31104, Note_on_c, 0, 67, 80
2, 31388, Note_off_c, 0, 67, 100
2, 31392, Note_on_c, 0, 69, 80
2, 31436, Note_off_c, 0, 69, 100
2, 31440, Note_on_c, 0, 67, 80
2, 31484, Note_off_c, 0, 67, 100
2, 31488, Note_on_c, 0, 66, 80
2, 31676, Note_off_c, 0, 66, 100
2, 31680, Note_on_c, 0, 62, 80
2, 31868, Note_off_c, 0, 62, 100
2, 31872, Note_on_c, 0, 70, 80
2, 32060, Note_off_c, 0, 70, 100
2, 32064, Note_on_c, 0, 67, 80
2, 32252, Note_off_c, 0, 67, 100
2, 32256, Note_on_c, 0, 66, 80
2, 32444, Note_off_c, 0, 66, 100
2, 32448, Note_on_c, 0, 67, 80
2, 32636, Note_off_c, 0, 67, 100
2, 32640, Note_on_c, 0, 72, 80
2, 32640, Note_on_c, 0, 62, 80
2, 33404, Note_off_c, 0, 72, 100
2, 33404, Note_off_c, 0, 62, 100
2, 33408, Note_on_c, 0, 70, 80
2, 33596, Note_off_c, 0, 70, 100
2, 33600, Note_on_c, 0, 67, 80
2, 33788, Note_off_c, 0, 67, 100
2, 33792, Note_on_c, 0, 66, 80
2, 33980, Note_off_c, 0, 66, 100
2, 33984, Note_on_c, 0, 67, 80
2, 34172, Note_off_c, 0, 67, 100
2, 34176, Note_on_c, 0, 75, 80
2, 34748, Note_off_c, 0, 75, 100
2, 34752, Note_on_c, 0, 75, 80
2, 35036, Note_off_c, 0, 75, 100
2, 35040, Note_on_c, 0, 74, 80
2, 35132, Note_off_c, 0, 74, 100
2, 35136, Note_on_c, 0, 77, 80
2, 35228, Note_off_c, 0, 77, 100
2, 35232, Note_on_c, 0, 76, 80
2, 35324, Note_off_c, 0, 76, 100
2, 35328, Note_on_c, 0, 79, 80
2, 35420, Note_off_c, 0, 79, 100
2, 35424, Note_on_c, 0, 77, 80
2, 35516, Note_off_c, 0, 77, 100
2, 35520, Note_on_c, 0, 75, 80
2, 35612, Note_off_c, 0, 75, 100
2, 35616, Note_on_c, 0, 74, 80
2, 35708, Note_off_c, 0, 74, 100
2, 35712, Note_on_c, 0, 72, 80
2, 35744, Note_on_c, 0, 74, 80
2, 35760, Note_off_c, 0, 72, 100
2, 35776, Note_on_c, 0, 75, 80
2, 35792, Note_off_c, 0, 74, 100
2, 35808, Note_on_c, 0, 74, 80
2, 35824, Note_off_c, 0, 75, 100
2, 35900, Note_off_c, 0, 74, 100
2, 35904, Note_on_c, 0, 72, 80
2, 36092, Note_off_c, 0, 72, 100
2, 36096, Note_on_c, 0, 71, 80
2, 36128, Note_on_c, 0, 72, 80
2, 36152, Note_off_c, 0, 71, 100
2, 36160, Note_on_c, 0, 74, 80
2, 36180, Note_off_c, 0, 72, 100
2, 36192, Note_on_c, 0, 72, 80
2, 36216, Note_off_c, 0, 74, 100
2, 36284, Note_off_c, 0, 72, 100
2, 36288, Note_on_c, 0, 70, 80
2, 36476, Note_off_c, 0, 70, 100
2, 36480, Note_on_c, 0, 69, 80
2, 36504, Note_on_c, 0, 70, 80
2, 36520, Note_off_c, 0, 69, 100
2, 36528, Note_on_c, 0, 72, 80
2, 36544, Note_off_c, 0, 70, 100
2, 36552, Note_on_c, 0, 70, 80
2, 36568, Note_off_c, 0, 72, 100
2, 36576, Note_on_c, 0, 69, 80
2, 36592, Note_off_c, 0, 70, 100
2, 36668, Note_off_c, 0, 69, 100
2, 36672, Note_on_c, 0, 67, 80
2, 36764, Note_off_c, 0, 67, 100
2, 36768, Note_on_c, 0, 65, 80
2, 36860, Note_off_c, 0, 65, 100
2, 36864, Note_on_c, 0, 64, 80
2, 36956, Note_off_c, 0, 64, 100
2, 36960, Note_on_c, 0, 65, 80
2, 37052, Note_off_c, 0, 65, 100
2, 37056, Note_on_c, 0, 67, 80
2, 37148, Note_off_c, 0, 67, 100
2, 37152, Note_on_c, 0, 65, 80
2, 37244, Note_off_c, 0, 65, 100
2, 37248, Note_on_c, 0, 75, 80
2, 37436, Note_off_c, 0, 75, 100
2, 37440, Note_on_c, 0, 69, 80
2, 37628, Note_off_c, 0, 69, 100
2, 37632, Note_on_c, 0, 69, 80
2, 37820, Note_off_c, 0, 69, 100
2, 37824, Note_on_c, 0, 69, 80
2, 38012, Note_off_c, 0, 69, 100
2, 38016, Note_on_c, 0, 70, 80
2, 38108, Note_off_c, 0, 70, 100
2, 38112, Note_on_c, 0, 72, 80
2, 38140, Note_off_c, 0, 72, 100
2, 38144, Note_on_c, 0, 70, 80
2, 38172, Note_off_c, 0, 70, 100
2, 38176, Note_on_c, 0, 69, 80
2, 38204, Note_off_c, 0, 69, 100
2, 38208, Note_on_c, 0, 70, 80
2, 38300, Note_off_c, 0, 70, 100
2, 38304, Note_on_c, 0, 74, 80
2, 38396, Note_off_c, 0, 74, 100
2, 38400, Note_on_c, 0, 77, 80
2, 38588, Note_off_c, 0, 77, 100
2, 38592, Note_on_c, 0, 77, 80
2, 38780, Note_off_c, 0, 77, 100
2, 38784, Note_on_c, 0, 87, 80
2, 38972, Note_off_c, 0, 87, 100
2, 38976, Note_on_c, 0, 81, 80
2, 39164, Note_off_c, 0, 81, 100
2, 39168, Note_on_c, 0, 81, 80
2, 39356, Note_off_c, 0, 81, 100
2, 39360, Note_on_c, 0, 81, 80
2, 39548, Note_off_c, 0, 81, 100
2, 39552, Note_on_c, 0, 82, 80
2, 39644, Note_off_c, 0, 82, 100
2, 39648, Note_on_c, 0, 84, 80
2, 39676, Note_off_c, 0, 84, 100
2, 39680, Note_on_c, 0, 82, 80
2, 39708, Note_off_c, 0, 82, 100
2, 39712, Note_on_c, 0, 81, 80
2, 39740, Note_off_c, 0, 81, 100
2, 39744, Note_on_c, 0, 82, 80
2, 39836, Note_off_c, 0, 82, 100
2, 39840, Note_on_c, 0, 86, 80
2, 39932, Note_off_c, 0, 86, 100
2, 39936, Note_on_c, 0, 89, 80
2, 40124, Note_off_c, 0, 89, 100
2, 40128, Note_on_c, 0, 65, 80
2, 40316, Note_off_c, 0, 65, 100
2, 40320, Note_on_c, 0, 75, 80
2, 40508, Note_off_c, 0, 75, 100
2, 40512, Note_on_c, 0, 69, 80
2, 40700, Note_off_c, 0, 69, 100
2, 40704, Note_on_c, 0, 69, 80
2, 40892, Note_off_c, 0, 69, 100
2, 40896, Note_on_c, 0, 69, 80
2, 41084, Note_off_c, 0, 69, 100
2, 41088, Note_on_c, 0, 70, 80
2, 41180, Note_off_c, 0, 70, 100
2, 41184, Note_on_c, 0, 72, 80
2, 41212, Note_off_c, 0, 72, 100
2, 41216, Note_on_c, 0, 70, 80
2, 41244, Note_off_c, 0, 70, 100
2, 41248, Note_on_c, 0, 69, 80
2, 41276, Note_off_c, 0, 69, 100
2, 41280, Note_on_c, 0, 70, 80
2, 41372, Note_off_c, 0, 70, 100
2, 41376, Note_on_c, 0, 72, 80
2, 41468, Note_off_c, 0, 72, 100
2, 41472, Note_on_c, 0, 74, 80
2, 41564, Note_off_c, 0, 74, 100
2, 41568, Note_on_c, 0, 70, 80
2, 41660, Note_off_c, 0, 70, 100
2, 41664, Note_on_c, 0, 72, 80
2, 41756, Note_off_c, 0, 72, 100
2, 41760, Note_on_c, 0, 74, 80
2, 41852, Note_off_c, 0, 74, 100
2, 41856, Note_on_c, 0, 75, 80
2, 41948, Note_off_c, 0, 75, 100
2, 41952, Note_on_c, 0, 77, 80
2, 41980, Note_off_c, 0, 77, 100
2, 41984, Note_on_c, 0, 75, 80
2, 42012, Note_off_c, 0, 75, 100
2, 42016, Note_on_c, 0, 74, 80
2, 42044, Note_off_c, 0, 74, 100
2, 42048, Note_on_c, 0, 75, 80
2, 42140, Note_off_c, 0, 75, 100
2, 42144, Note_on_c, 0, 77, 80
2, 42236, Note_off_c, 0, 77, 100
2, 42240, Note_on_c, 0, 79, 80
2, 42332, Note_off_c, 0, 79, 100
2, 42336, Note_on_c, 0, 81, 80
2, 42428, Note_off_c, 0, 81, 100
2, 42432, Note_on_c, 0, 82, 80
2, 42524, Note_off_c, 0, 82, 100
2, 42528, Note_on_c, 0, 79, 80
2, 42620, Note_off_c, 0, 79, 100
2, 42624, Note_on_c, 0, 76, 80
2, 42716, Note_off_c, 0, 76, 100
2, 42720, Note_on_c, 0, 77, 80
2, 42812, Note_off_c, 0, 77, 100
2, 42816, Note_on_c, 0, 79, 80
2, 42908, Note_off_c, 0, 79, 100
2, 42912, Note_on_c, 0, 77, 80
2, 43004, Note_off_c, 0, 77, 100
2, 43008, Note_on_c, 0, 77, 80
2, 43100, Note_off_c, 0, 77, 100
2, 43104, Note_on_c, 0, 75, 80
2, 43196, Note_off_c, 0, 75, 100
2, 43200, Note_on_c, 0, 74, 80
2, 43292, Note_off_c, 0, 74, 100
2, 43296, Note_on_c, 0, 72, 80
2, 43388, Note_off_c, 0, 72, 100
2, 43392, Note_on_c, 0, 73, 80
2, 43484, Note_off_c, 0, 73, 100
2, 43488, Note_on_c, 0, 74, 80
2, 43580, Note_off_c, 0, 74, 100
2, 43584, Note_on_c, 0, 75, 80
2, 43676, Note_off_c, 0, 75, 100
2, 43680, Note_on_c, 0, 74, 80
2, 43772, Note_off_c, 0, 74, 100
2, 43776, Note_on_c, 0, 77, 80
2, 43868, Note_off_c, 0, 77, 100
2, 43872, Note_on_c, 0, 75, 80
2, 43964, Note_off_c, 0, 75, 100
2, 43968, Note_on_c, 0, 74, 80
2, 44060, Note_off_c, 0, 74, 100
2, 44064, Note_on_c, 0, 72, 80
2, 44156, Note_off_c, 0, 72, 100
2, 44160, Note_on_c, 0, 70, 80
2, 44252, Note_off_c, 0, 70, 100
2, 44256, Note_on_c, 0, 72, 80
2, 44284, Note_off_c, 0, 72, 100
2, 44288, Note_on_c, 0, 70, 80
2, 44316, Note_off_c, 0, 70, 100
2, 44320, Note_on_c, 0, 69, 80
2, 44348, Note_off_c, 0, 69, 100
2, 44352, Note_on_c, 0, 70, 80
2, 44444, Note_off_c, 0, 70, 100
2, 44448, Note_on_c, 0, 72, 80
2, 44540, Note_off_c, 0, 72, 100
2, 44544, Note_on_c, 0, 74, 80
2, 44636, Note_off_c, 0, 74, 100
2, 44640, Note_on_c, 0, 70, 80
2, 44732, Note_off_c, 0, 70, 100
2, 44736, Note_on_c, 0, 72, 80
2, 44828, Note_off_c, 0, 72, 100
2, 44832, Note_on_c, 0, 74, 80
2, 44924, Note_off_c, 0, 74, 100
2, 44928, Note_on_c, 0, 75, 80
2, 45020, Note_off_c, 0, 75, 100
2, 45024, Note_on_c, 0, 77, 80
2, 45116, Note_off_c, 0, 77, 100
2, 45120, Note_on_c, 0, 79, 80
2, 45212, Note_off_c, 0, 79, 100
2, 45216, Note_on_c, 0, 81, 80
2, 45308, Note_off_c, 0, 81, 100
2, 45312, Note_on_c, 0, 84, 80
2, 45404, Note_off_c, 0, 84, 100
2, 45408, Note_on_c, 0, 82, 80
2, 45500, Note_off_c, 0, 82, 100
2, 45504, Note_on_c, 0, 81, 80
2, 45596, Note_off_c, 0, 81, 100
2, 45600, Note_on_c, 0, 79, 80
2, 45692, Note_off_c, 0, 79, 100
2, 45696, Note_on_c, 0, 79, 80
2, 45788, Note_off_c, 0, 79, 100
2, 45792, Note_on_c, 0, 77, 80
2, 45884, Note_off_c, 0, 77, 100
2, 45888, Note_on_c, 0, 76, 80
2, 45980, Note_off_c, 0, 76, 100
2, 45984, Note_on_c, 0, 77, 80
2, 46076, Note_off_c, 0, 77, 100
2, 46080, Note_on_c, 0, 81, 80
2, 46172, Note_off_c, 0, 81, 100
2, 46176, Note_on_c, 0, 79, 80
2, 46268, Note_off_c, 0, 79, 100
2, 46272, Note_on_c, 0, 77, 80
2, 46364, Note_off_c, 0, 77, 100
2, 46368, Note_on_c, 0, 75, 80
2, 46460, Note_off_c, 0, 75, 100
2, 46464, Note_on_c, 0, 75, 80
2, 46556, Note_off_c, 0, 75, 100
2, 46560, Note_on_c, 0, 74, 80
2, 46652, Note_off_c, 0, 74, 100
2, 46656, Note_on_c, 0, 73, 80
2, 46748, Note_off_c, 0, 73, 100
2, 46752, Note_on_c, 0, 74, 80
2, 46844, Note_off_c, 0, 74, 100
2, 46848, Note_on_c, 0, 77, 80
2, 46940, Note_off_c, 0, 77, 100
2, 46944, Note_on_c, 0, 75, 80
2, 47036, Note_off_c, 0, 75, 100
2, 47040, Note_on_c, 0, 74, 80
2, 47132, Note_off_c, 0, 74, 100
2, 47136, Note_on_c, 0, 72, 80
2, 47228, Note_off_c, 0, 72, 100
2, 47232, Note_on_c, 0, 70, 80
2, 47612, Note_off_c, 0, 70, 100
2, 47808, Note_on_c, 0, 72, 80
2, 47900, Note_off_c, 0, 72, 100
2, 47904, Note_on_c, 0, 74, 80
2, 47996, Note_off_c, 0, 74, 100
2, 48000, Note_on_c, 0, 75, 80
2, 48188, Note_off_c, 0, 75, 100
2, 48192, Note_on_c, 0, 69, 80
2, 48380, Note_off_c, 0, 69, 100
2, 48384, Note_on_c, 0, 69, 80
2, 48572, Note_off_c, 0, 69, 100
2, 48576, Note_on_c, 0, 69, 80
2, 48764, Note_off_c, 0, 69, 100
2, 48768, Note_on_c, 0, 70, 80
2, 49148, Note_off_c, 0, 70, 100
2, 49344, Note_on_c, 0, 72, 80
2, 49436, Note_off_c, 0, 72, 100
2, 49440, Note_on_c, 0, 74, 80
2, 49532, Note_off_c, 0, 74, 100
2, 49536, Note_on_c, 0, 75, 80
2, 49724, Note_off_c, 0, 75, 100
2, 49728, Note_on_c, 0, 69, 80
2, 49916, Note_off_c, 0, 69, 100
2, 49920, Note_on_c, 0, 69, 80
2, 50108, Note_off_c, 0, 69, 100
2, 50112, Note_on_c, 0, 69, 80
2, 50300, Note_off_c, 0, 69, 100
2, 50304, Note_on_c, 0, 72, 80
2, 50304, Note_on_c, 0, 69, 80
2, 50684, Note_off_c, 0, 72, 100
2, 50684, Note_off_c, 0, 69, 100
2, 50688, Note_on_c, 0, 70, 80
2, 50876, Note_off_c, 0, 70, 100
2, 50880, Note_on_c, 0, 58, 110
2, 50904, Note_on_c, 0, 60, 110
2, 50924, Note_off_c, 0, 58, 100
2, 50928, Note_on_c, 0, 58, 110
2, 50944, Note_off_c, 0, 60, 100
2, 50952, Note_on_c, 0, 60, 110
2, 50968, Note_off_c, 0, 58, 100
2, 50976, Note_on_c, 0, 58, 110
2, 50992, Note_off_c, 0, 60, 100
2, 51000, Note_on_c, 0, 60, 110
2, 51012, Note_off_c, 0, 58, 100
2, 51024, Note_on_c, 0, 57, 110
2, 51040, Note_off_c, 0, 60, 100
2, 51048, Note_on_c, 0, 58, 110
2, 51068, Note_off_c, 0, 57, 100
2, 51068, Note_off_c, 0, 58, 100
2, 51072, Note_on_c, 0, 65, 110
2, 51260, Note_off_c, 0, 65, 100
2, 51264, Note_on_c, 0, 58, 110
2, 51452, Note_off_c, 0, 58, 100
2, 51456, Note_on_c, 0, 58, 110
2, 51644, Note_off_c, 0, 58, 100
2, 51648, Note_on_c, 0, 58, 110
2, 51672, Note_on_c, 0, 60, 110
2, 51692, Note_off_c, 0, 58, 100
2, 51696, Note_on_c, 0, 58, 110
2, 51712, Note_off_c, 0, 60, 100
2, 51720, Note_on_c, 0, 60, 110
2, 51736, Note_off_c, 0, 58, 100
2, 51744, Note_on_c, 0, 58, 110
2, 51760, Note_off_c, 0, 60, 100
2, 51768, Note_on_c, 0, 60, 110
2, 51780, Note_off_c, 0, 58, 100
2, 51792, Note_on_c, 0, 57, 110
2, 51808, Note_off_c, 0, 60, 100
2, 51816, Note_on_c, 0, 58, 110
2, 51836, Note_off_c, 0, 57, 100
2, 51836, Note_off_c, 0, 58, 100
2, 51840, Note_on_c, 0, 65, 110
2, 52028, Note_off_c, 0, 65, 100
2, 52032, Note_on_c, 0, 56, 110
2, 52220, Note_off_c, 0, 56, 100
2, 52224, Note_on_c, 0, 56, 110
2, 52412, Note_off_c, 0, 56, 100
2, 52416, Note_on_c, 0, 56, 110
2, 52440, Note_on_c, 0, 58, 110
2, 52452, Note_off_c, 0, 56, 100
2, 52464, Note_on_c, 0, 56, 110
2, 52484, Note_off_c, 0, 58, 100
2, 52488, Note_on_c, 0, 58, 110
2, 52508, Note_off_c, 0, 56, 100
2, 52512, Note_on_c, 0, 56, 110
2, 52532, Note_off_c, 0, 58, 100
2, 52536, Note_on_c, 0, 58, 110
2, 52548, Note_off_c, 0, 56, 100
2, 52560, Note_on_c, 0, 55, 110
2, 52572, Note_off_c, 0, 58, 100
2, 52584, Note_on_c, 0, 56, 110
2, 52600, Note_off_c, 0, 55, 100
2, 52604, Note_off_c, 0, 56, 100
2, 52608, Note_on_c, 0, 55, 110
2, 52796, Note_off_c, 0, 55, 100
2, 52800, Note_on_c, 0, 58, 104
2, 52988, Note_off_c, 0, 58, 100
2, 52992, Note_on_c, 0, 63, 97
2, 53180, Note_off_c, 0, 63, 100
2, 53184, Note_on_c, 0, 67, 91
2, 53372, Note_off_c, 0, 67, 100
2, 53376, Note_on_c, 0, 60, 80
2, 53376, Note_on_c, 0, 65, 80
2, 53564, Note_off_c, 0, 65, 100
2, 53568, Note_on_c, 0, 68, 80
2, 53756, Note_off_c, 0, 60, 100
2, 53756, Note_off_c, 0, 68, 100
2, 53760, Note_on_c, 0, 62, 80
2, 53760, Note_on_c, 0, 56, 80
2, 53948, Note_off_c, 0, 62, 100
2, 53952, Note_on_c, 0, 58, 80
2, 54140, Note_off_c, 0, 56, 100
2, 54140, Note_off_c, 0, 58, 100
2, 54144, Note_on_c, 0, 63, 80
2, 54144, Note_on_c, 0, 58, 80
2, 54144, Note_on_c, 0, 55, 80
2, 54524, Note_off_c, 0, 63, 100
2, 54524, Note_off_c, 0, 58, 100
2, 54524, Note_off_c, 0, 55, 100
2, 54624, Note_on_c, 0, 79, 80
2, 54716, Note_off_c, 0, 79, 100
2, 54720, Note_on_c, 0, 77, 80
2, 54812, Note_off_c, 0, 77, 100
2, 54816, Note_on_c, 0, 75, 80
2, 54908, Note_off_c, 0, 75, 100
2, 54912, Note_on_c, 0, 74, 80
2, 55100, Note_off_c, 0, 74, 100
2, 55392, Note_on_c, 0, 80, 80
2, 55484, Note_off_c, 0, 80, 100
2, 55488, Note_on_c, 0, 79, 80
2, 55580, Note_off_c, 0, 79, 100
2, 55584, Note_on_c, 0, 77, 80
2, 55676, Note_off_c, 0, 77, 100
2, 55680, Note_on_c, 0, 75, 80
2, 55868, Note_off_c, 0, 75, 100
2, 55968, Note_on_c, 0, 87, 80
2, 56060, Note_off_c, 0, 87, 100
2, 56064, Note_on_c, 0, 86, 80
2, 56156, Note_off_c, 0, 86, 100
2, 56160, Note_on_c, 0, 87, 80
2, 56252, Note_off_c, 0, 87, 100
2, 56256, Note_on_c, 0, 86, 80
2, 56348, Note_off_c, 0, 86, 100
2, 56352, Note_on_c, 0, 84, 80
2, 56444, Note_off_c, 0, 84, 100
2, 56448, Note_on_c, 0, 83, 80
2, 56540, Note_off_c, 0, 83, 100
2, 56544, Note_on_c, 0, 84, 80
2, 56636, Note_off_c, 0, 84, 100
2, 56640, Note_on_c, 0, 82, 80
2, 56732, Note_off_c, 0, 82, 100
2, 56736, Note_on_c, 0, 80, 80
2, 56828, Note_off_c, 0, 80, 100
2, 56832, Note_on_c, 0, 79, 80
2, 56924, Note_off_c, 0, 79, 100
2, 56928, Note_on_c, 0, 77, 80
2, 57020, Note_off_c, 0, 77, 100
2, 57024, Note_on_c, 0, 84, 80
2, 57116, Note_off_c, 0, 84, 100
2, 57120, Note_on_c, 0, 82, 80
2, 57212, Note_off_c, 0, 82, 100
2, 57216, Note_on_c, 0, 80, 80
2, 57404, Note_off_c, 0, 80, 100
2, 57408, Note_on_c, 0, 79, 80
2, 57596, Note_off_c, 0, 79, 100
2, 57696, Note_on_c, 0, 79, 80
2, 57740, Note_off_c, 0, 79, 100
2, 57744, Note_on_c, 0, 77, 80
2, 57788, Note_off_c, 0, 77, 100
2, 57792, Note_on_c, 0, 80, 80
2, 57836, Note_off_c, 0, 80, 100
2, 57840, Note_on_c, 0, 79, 80
2, 57884, Note_off_c, 0, 79, 100
2, 57888, Note_on_c, 0, 77, 80
2, 57932, Note_off_c, 0, 77, 100
2, 57936, Note_on_c, 0, 75, 80
2, 57980, Note_off_c, 0, 75, 100
2, 57984, Note_on_c, 0, 77, 80
2, 58016, Note_off_c, 0, 77, 100
2, 58020, Note_on_c, 0, 75, 80
2, 58076, Note_off_c, 0, 75, 100
2, 58080, Note_on_c, 0, 74, 80
2, 58172, Note_off_c, 0, 74, 100
2, 58176, Note_on_c, 0, 74, 80
2, 58364, Note_off_c, 0, 74, 100
2, 58464, Note_on_c, 0, 80, 80
2, 58508, Note_off_c, 0, 80, 100
2, 58512, Note_on_c, 0, 79, 80
2, 58556, Note_off_c, 0, 79, 100
2, 58560, Note_on_c, 0, 82, 80
2, 58604, Note_off_c, 0, 82, 100
2, 58608, Note_on_c, 0, 80, 80
2, 58652, Note_off_c, 0, 80, 100
2, 58656, Note_on_c, 0, 79, 80
2, 58700, Note_off_c, 0, 79, 100
2, 58704, Note_on_c, 0, 77, 80
2, 58748, Note_off_c, 0, 77, 100
2, 58752, Note_on_c, 0, 79, 80
2, 58784, Note_off_c, 0, 79, 100
2, 58788, Note_on_c, 0, 77, 80
2, 58844, Note_off_c, 0, 77, 100
2, 58848, Note_on_c, 0, 75, 80
2, 58940, Note_off_c, 0, 75, 100
2, 58944, Note_on_c, 0, 75, 80
2, 59132, Note_off_c, 0, 75, 100
2, 59232, Note_on_c, 0, 87, 80
2, 59276, Note_off_c, 0, 87, 100
2, 59280, Note_on_c, 0, 86, 80
2, 59324, Note_off_c, 0, 86, 100
2, 59328, Note_on_c, 0, 89, 80
2, 59372, Note_off_c, 0, 89, 100
2, 59376, Note_on_c, 0, 87, 80
2, 59420, Note_off_c, 0, 87, 100
2, 59424, Note_on_c, 0, 86, 80
2, 59468, Note_off_c, 0, 86, 100
2, 59472, Note_on_c, 0, 84, 80
2, 59516, Note_off_c, 0, 84, 100
2, 59520, Note_on_c, 0, 83, 80
2, 59612, Note_off_c, 0, 83, 100
2, 59616, Note_on_c, 0, 84, 80
2, 59708, Note_off_c, 0, 84, 100
2, 59712, Note_on_c, 0, 82, 80
2, 59804, Note_off_c, 0, 82, 100
2, 59808, Note_on_c, 0, 80, 80
2, 59900, Note_off_c, 0, 80, 100
2, 59904, Note_on_c, 0, 79, 80
2, 59996, Note_off_c, 0, 79, 100
2, 60000, Note_on_c, 0, 77, 80
2, 60092, Note_off_c, 0, 77, 100
2, 60096, Note_on_c, 0, 80, 80
2, 60188, Note_off_c, 0, 80, 100
2, 60192, Note_on_c, 0, 74, 80
2, 60284, Note_off_c, 0, 74, 100
2, 60288, Note_on_c, 0, 75, 80
2, 60668, Note_off_c, 0, 75, 100
2, 60864, Note_on_c, 0, 77, 80
2, 60956, Note_off_c, 0, 77, 100
2, 60960, Note_on_c, 0, 79, 80
2, 61052, Note_off_c, 0, 79, 100
2, 61056, Note_on_c, 0, 80, 80
2, 61244, Note_off_c, 0, 80, 100
2, 61248, Note_on_c, 0, 74, 80
2, 61436, Note_off_c, 0, 74, 100
2, 61440, Note_on_c, 0, 74, 80
2, 61628, Note_off_c, 0, 74, 100
2, 61632, Note_on_c, 0, 74, 80
2, 61820, Note_off_c, 0, 74, 100
2, 61824, Note_on_c, 0, 75, 80
2, 62204, Note_off_c, 0, 75, 100
2, 62400, Note_on_c, 0, 74, 80
2, 62492, Note_off_c, 0, 74, 100
2, 62496, Note_on_c, 0, 75, 80
2, 62588, Note_off_c, 0, 75, 100
2, 62592, Note_on_c, 0, 77, 80
2, 62780, Note_off_c, 0, 77, 100
2, 62784, Note_on_c, 0, 71, 80
2, 62972, Note_off_c, 0, 71, 100
2, 62976, Note_on_c, 0, 71, 80
2, 63164, Note_off_c, 0, 71, 100
2, 63168, Note_on_c, 0, 71, 80
2, 63356, Note_off_c, 0, 71, 100
2, 63360, Note_on_c, 0, 72, 80
2, 63740, Note_off_c, 0, 72, 100
2, 63936, Note_on_c, 0, 81, 80
2, 63936, Note_on_c, 0, 69, 80
2, 64028, Note_off_c, 0, 81, 100
2, 64028, Note_off_c, 0, 69, 100
2, 64032, Note_on_c, 0, 82, 80
2, 64032, Note_on_c, 0, 70, 80
2, 64124, Note_off_c, 0, 82, 100
2, 64124, Note_off_c, 0, 70, 100
2, 64128, Note_on_c, 0, 84, 80
2, 64128, Note_on_c, 0, 72, 80
2, 64316, Note_off_c, 0, 84, 100
2, 64316, Note_off_c, 0, 72, 100
2, 64320, Note_on_c, 0, 78, 80
2, 64320, Note_on_c, 0, 66, 80
2, 64508, Note_off_c, 0, 78, 100
2, 64508, Note_off_c, 0, 66, 100
2, 64512, Note_on_c, 0, 78, 80
2, 64512, Note_on_c, 0, 66, 80
2, 64700, Note_off_c, 0, 78, 100
2, 64700, Note_off_c, 0, 66, 100
2, 64704, Note_on_c, 0, 78, 80
2, 64704, Note_on_c, 0, 66, 80
2, 64892, Note_off_c, 0, 78, 100
2, 64892, Note_off_c, 0, 66, 100
2, 64896, Note_on_c, 0, 79, 80
2, 64896, Note_on_c, 0, 67, 80
2, 65276, Note_off_c, 0, 79, 100
2, 65276, Note_off_c, 0, 67, 100
2, 65280, Note_on_c, 0, 81, 80
2, 65280, Note_on_c, 0, 69, 80
2, 65660, Note_off_c, 0, 81, 100
2, 65660, Note_off_c, 0, 69, 100
2, 65664, Note_on_c, 0, 84, 80
2, 65664, Note_on_c, 0, 72, 80
2, 65852, Note_off_c, 0, 84, 100
2, 65852, Note_off_c, 0, 72, 100
2, 65856, Note_on_c, 0, 82, 80
2, 65856, Note_on_c, 0, 70, 80
2, 66044, Note_off_c, 0, 82, 100
2, 66044, Note_off_c, 0, 70, 100
2, 66048, Note_on_c, 0, 81, 80
2, 66048, Note_on_c, 0, 69, 80
2, 66236, Note_off_c, 0, 81, 100
2, 66236, Note_off_c, 0, 69, 100
2, 66240, Note_on_c, 0, 79, 80
2, 66240, Note_on_c, 0, 67, 80
2, 66428, Note_off_c, 0, 79, 100
2, 66428, Note_off_c, 0, 67, 100
2, 66432, Note_on_c, 0, 78, 80
2, 66432, Note_on_c, 0, 66, 80
2, 66812, Note_off_c, 0, 78, 100
2, 66812, Note_off_c, 0, 66, 100
2, 66912, Note_on_c, 0, 74, 80
2, 67004, Note_off_c, 0, 74, 100
2, 67008, Note_on_c, 0, 73, 80
2, 67100, Note_off_c, 0, 73, 100
2, 67104, Note_on_c, 0, 74, 80
2, 67196, Note_off_c, 0, 74, 100
2, 67200, Note_on_c, 0, 79, 80
2, 67200, Note_on_c, 0, 70, 80
2, 67388, Note_off_c, 0, 79, 100
2, 67388, Note_off_c, 0, 70, 100
2, 67680, Note_on_c, 0, 74, 80
2, 67772, Note_off_c, 0, 74, 100
2, 67776, Note_on_c, 0, 73, 80
2, 67868, Note_off_c, 0, 73, 100
2, 67872, Note_on_c, 0, 74, 80
2, 67964, Note_off_c, 0, 74, 100
2, 67968, Note_on_c, 0, 69, 80
2, 68156, Note_off_c, 0, 69, 100
2, 68448, Note_on_c, 0, 74, 80
2, 68540, Note_off_c, 0, 74, 100
2, 68544, Note_on_c, 0, 73, 80
2, 68636, Note_off_c, 0, 73, 100
2, 68640, Note_on_c, 0, 74, 80
2, 68732, Note_off_c, 0, 74, 100
2, 68736, Note_on_c, 0, 79, 80
2, 68736, Note_on_c, 0, 70, 80
2, 68924, Note_off_c, 0, 79, 100
2, 68924, Note_off_c, 0, 70, 100
2, 69216, Note_on_c, 0, 74, 80
2, 69308, Note_off_c, 0, 74, 100
2, 69312, Note_on_c, 0, 73, 80
2, 69404, Note_off_c, 0, 73, 100
2, 69408, Note_on_c, 0, 74, 80
2, 69500, Note_off_c, 0, 74, 100
2, 69504, Note_on_c, 0, 69, 80
2, 69884, Note_off_c, 0, 69, 100
2, 69888, Note_on_c, 0, 71, 80
2, 70268, Note_off_c, 0, 71, 100
2, 70272, Note_on_c, 0, 72, 80
2, 70844, Note_off_c, 0, 72, 100
2, 70848, Note_on_c, 0, 70, 80
2, 71036, Note_off_c, 0, 70, 100
2, 71040, Note_on_c, 0, 69, 80
2, 71228, Note_off_c, 0, 69, 100
2, 71232, Note_on_c, 0, 81, 80
2, 71420, Note_off_c, 0, 81, 100
2, 71424, Note_on_c, 0, 71, 80
2, 71612, Note_off_c, 0, 71, 100
2, 71616, Note_on_c, 0, 83, 80
2, 71804, Note_off_c, 0, 83, 100
2, 71808, Note_on_c, 0, 72, 80
2, 71996, Note_off_c, 0, 72, 100
2, 72000, Note_on_c, 0, 84, 80
2, 72380, Note_off_c, 0, 84, 100
2, 72384, Note_on_c, 0, 70, 80
2, 72572, Note_off_c, 0, 70, 100
2, 72576, Note_on_c, 0, 69, 80
2, 72764, Note_off_c, 0, 69, 100
2, 72768, Note_on_c, 0, 81, 80
2, 72956, Note_off_c, 0, 81, 100
2, 72960, Note_on_c, 0, 71, 80
2, 73148, Note_off_c, 0, 71, 100
2, 73152, Note_on_c, 0, 83, 80
2, 73340, Note_off_c, 0, 83, 100
2, 73344, Note_on_c, 0, 72, 80
2, 73532, Note_off_c, 0, 72, 100
2, 73536, Note_on_c, 0, 84, 80
2, 73724, Note_off_c, 0, 84, 100
2, 73728, Note_on_c, 0, 73, 80
2, 73916, Note_off_c, 0, 73, 100
2, 73920, Note_on_c, 0, 85, 80
2, 74108, Note_off_c, 0, 85, 100
2, 74112, Note_on_c, 0, 74, 80
2, 74300, Note_off_c, 0, 74, 100
2, 74304, Note_on_c, 0, 67, 80
2, 74492, Note_off_c, 0, 67, 100
2, 74496, Note_on_c, 0, 66, 80
2, 74684, Note_off_c, 0, 66, 100
2, 74688, Note_on_c, 0, 67, 80
2, 74876, Note_off_c, 0, 67, 100
2, 74880, Note_on_c, 0, 72, 80
2, 74880, Note_on_c, 0, 62, 80
2, 75644, Note_off_c, 0, 72, 100
2, 75644, Note_off_c, 0, 62, 100
2, 75648, Note_on_c, 0, 70, 80
2, 75836, Note_off_c, 0, 70, 100
2, 75840, Note_on_c, 0, 67, 80
2, 76028, Note_off_c, 0, 67, 100
2, 76032, Note_on_c, 0, 66, 80
2, 76220, Note_off_c, 0, 66, 100
2, 76224, Note_on_c, 0, 67, 80
2, 76412, Note_off_c, 0, 67, 100
2, 76416, Note_on_c, 0, 75, 80
2, 76416, Note_on_c, 0, 63, 80
2, 77180, Note_off_c, 0, 75, 100
2, 77180, Note_off_c, 0, 63, 100
2, 77184, Note_on_c, 0, 74, 80
2, 77372, Note_off_c, 0, 74, 100
2, 77376, Note_on_c, 0, 78, 80
2, 77564, Note_off_c, 0, 78, 100
2, 77568, Note_on_c, 0, 79, 80
2, 77756, Note_off_c, 0, 79, 100
2, 77760, Note_on_c, 0, 74, 80
2, 77948, Note_off_c, 0, 74, 100
2, 77952, Note_on_c, 0, 72, 80
2, 78140, Note_off_c, 0, 72, 100
2, 78144, Note_on_c, 0, 80, 80
2, 78332, Note_off_c, 0, 80, 100
2, 78336, Note_on_c, 0, 81, 80
2, 78524, Note_off_c, 0, 81, 100
2, 78528, Note_on_c, 0, 72, 80
2, 78716, Note_off_c, 0, 72, 100
2, 78720, Note_on_c, 0, 70, 80
2, 78908, Note_off_c, 0, 70, 100
2, 78912, Note_on_c, 0, 79, 80
2, 79100, Note_off_c, 0, 79, 100
2, 79104, Note_on_c, 0, 69, 80
2, 79292, Note_off_c, 0, 69, 100
2, 79296, Note_on_c, 0, 75, 80
2, 79484, Note_off_c, 0, 75, 100
2, 79488, Note_on_c, 0, 67, 80
2, 79772, Note_off_c, 0, 67, 100
2, 79776, Note_on_c, 0, 69, 80
2, 79820, Note_off_c, 0, 69, 100
2, 79824, Note_on_c, 0, 67, 80
2, 79868, Note_off_c, 0, 67, 100
2, 79872, Note_on_c, 0, 66, 80
2, 80060, Note_off_c, 0, 66, 100
2, 80256, Control_c, 0, 64, 127
2, 80352, Note_on_c, 0, 74, 80
2, 80444, Note_off_c, 0, 74, 100
2, 80448, Note_on_c, 0, 82, 80
2, 80540, Note_off_c, 0, 82, 100
2, 80544, Note_on_c, 0, 74, 80
2, 80632, Control_c, 0, 64, 0
2, 80636, Note_off_c, 0, 74, 100
2, 80640, Control_c, 0, 64, 127
2, 80640, Note_on_c, 0, 81, 80
2, 80640, Note_on_c, 0, 72, 80
2, 80732, Note_off_c, 0, 81, 100
2, 80732, Note_off_c, 0, 72, 100
2, 80736, Note_on_c, 0, 74, 80
2, 80828, Note_off_c, 0, 74, 100
2, 80832, Note_on_c, 0, 79, 80
2, 80832, Note_on_c, 0, 70, 80
2, 80924, Note_off_c, 0, 79, 100
2, 80924, Note_off_c, 0, 70, 100
2, 80928, Note_on_c, 0, 74, 80
2, 81016, Control_c, 0, 64, 0
2, 81020, Note_off_c, 0, 74, 100
2, 81024, Control_c, 0, 64, 127
2, 81024, Note_on_c, 0, 78, 80
2, 81116, Note_off_c, 0, 78, 100
2, 81120, Note_on_c, 0, 74, 80
2, 81212, Note_off_c, 0, 74, 100
2, 81216, Note_on_c, 0, 73, 80
2, 81308, Note_off_c, 0, 73, 100
2, 81312, Note_on_c, 0, 74, 80
2, 81400, Control_c, 0, 64, 0
2, 81404, Note_off_c, 0, 74, 100
2, 81408, Control_c, 0, 64, 127
2, 81408, Note_on_c, 0, 76, 80
2, 81500, Note_off_c, 0, 76, 100
2, 81504, Note_on_c, 0, 78, 80
2, 81596, Note_off_c, 0, 78, 100
2, 81600, Note_on_c, 0, 79, 80
2, 81692, Note_off_c, 0, 79, 100
2, 81696, Note_on_c, 0, 81, 80
2, 81784, Control_c, 0, 64, 0
2, 81788, Note_off_c, 0, 81, 100
2, 81792, Control_c, 0, 64, 127
2, 81792, Note_on_c, 0, 82, 80
2, 81884, Note_off_c, 0, 82, 100
2, 81888, Note_on_c, 0, 74, 80
2, 81980, Note_off_c, 0, 74, 100
2, 81984, Note_on_c, 0, 86, 80
2, 81984, Note_on_c, 0, 82, 80
2, 82076, Note_off_c, 0, 86, 100
2, 82076, Note_off_c, 0, 82, 100
2, 82080, Note_on_c, 0, 74, 80
2, 82168, Control_c, 0, 64, 0
2, 82172, Note_off_c, 0, 74, 100
2, 82176, Control_c, 0, 64, 127
2, 82176, Note_on_c, 0, 84, 80
2, 82176, Note_on_c, 0, 81, 80
2, 82268, Note_off_c, 0, 84, 100
2, 82268, Note_off_c, 0, 81, 100
2, 82272, Note_on_c, 0, 74, 80
2, 82364, Note_off_c, 0, 74, 100
2, 82368, Note_on_c, 0, 82, 80
2, 82368, Note_on_c, 0, 79, 80
2, 82460, Note_off_c, 0, 82, 100
2, 82460, Note_off_c, 0, 79, 100
2, 82464, Note_on_c, 0, 74, 80
2, 82552, Control_c, 0, 64, 0
2, 82556, Note_off_c, 0, 74, 100
2, 82560, Control_c, 0, 64, 127
2, 82560, Note_on_c, 0, 81, 80
2, 82652, Note_off_c, 0, 81, 100
2, 82656, Note_on_c, 0, 77, 80
2, 82748, Note_off_c, 0, 77, 100
2, 82752, Note_on_c, 0, 76, 80
2, 82844, Note_off_c, 0, 76, 100
2, 82848, Note_on_c, 0, 77, 80
2, 82936, Control_c, 0, 64, 0
2, 82940, Note_off_c, 0, 77, 100
2, 82944, Control_c, 0, 64, 127
2, 82944, Note_on_c, 0, 79, 80
2, 83036, Note_off_c, 0, 79, 100
2, 83040, Note_on_c, 0, 81, 80
2, 83132, Note_off_c, 0, 81, 100
2, 83136, Note_on_c, 0, 82, 80
2, 83228, Note_off_c, 0, 82, 100
2, 83232, Note_on_c, 0, 84, 80
2, 83320, Control_c, 0, 64, 0
2, 83324, Note_off_c, 0, 84, 100
2, 83328, Control_c, 0, 64, 127
2, 83328, Note_on_c, 0, 86, 80
2, 83420, Note_off_c, 0, 86, 100
2, 83424, Note_on_c, 0, 77, 81
2, 83516, Note_off_c, 0, 77, 100
2, 83520, Note_on_c, 0, 89, 83
2, 83520, Note_on_c, 0, 86, 83
2, 83612, Note_off_c, 0, 89, 100
2, 83612, Note_off_c, 0, 86, 100
2, 83616, Note_on_c, 0, 77, 85
2, 83704, Control_c, 0, 64, 0
2, 83708, Note_off_c, 0, 77, 100
2, 83712, Control_c, 0, 64, 127
2, 83712, Note_on_c, 0, 87, 87
2, 83712, Note_on_c, 0, 84, 87
2, 83804, Note_off_c, 0, 87, 100
2, 83804, Note_off_c, 0, 84, 100
2, 83808, Note_on_c, 0, 77, 89
2, 83900, Note_off_c, 0, 77, 100
2, 83904, Note_on_c, 0, 86, 91
2, 83904, Note_on_c, 0, 82, 91
2, 83996, Note_off_c, 0, 86, 100
2, 83996, Note_off_c, 0, 82, 100
2, 84000, Note_on_c, 0, 77, 93
2, 84088, Control_c, 0, 64, 0
2, 84092, Note_off_c, 0, 77, 100
2, 84096, Control_c, 0, 64, 127
2, 84096, Note_on_c, 0, 84, 95
2, 84096, Note_on_c, 0, 81, 95
2, 84188, Note_off_c, 0, 84, 100
2, 84188, Note_off_c, 0, 81, 100
2, 84192, Note_on_c, 0, 74, 96
2, 84284, Note_off_c, 0, 74, 100
2, 84288, Note_on_c, 0, 82, 98
2, 84288, Note_on_c, 0, 79, 98
2, 84380, Note_off_c, 0, 82, 100
2, 84380, Note_off_c, 0, 79, 100
2, 84384, Note_on_c, 0, 74, 100
2, 84472, Control_c, 0, 64, 0
2, 84476, Note_off_c, 0, 74, 100
2, 84480, Control_c, 0, 64, 127
2, 84480, Note_on_c, 0, 78, 102
2, 84480, Note_on_c, 0, 81, 102
2, 84572, Note_off_c, 0, 78, 100
2, 84572, Note_off_c, 0, 81, 100
2, 84576, Note_on_c, 0, 72, 104
2, 84668, Note_off_c, 0, 72, 100
2, 84672, Note_on_c, 0, 79, 106
2, 84764, Note_off_c, 0, 79, 100
2, 84768, Note_on_c, 0, 70, 108
2, 84856, Control_c, 0, 64, 0
2, 84860, Note_off_c, 0, 70, 100
2, 84864, Control_c, 0, 64, 127
2, 84960, Note_on_c, 0, 69, 109
2, 85052, Note_off_c, 0, 69, 100
2, 85056, Note_on_c, 0, 75, 107
2, 85148, Note_off_c, 0, 75, 100
2, 85152, Note_on_c, 0, 74, 105
2, 85240, Control_c, 0, 64, 0
2, 85244, Note_off_c, 0, 74, 100
2, 85248, Control_c, 0, 64, 127
2, 85248, Note_on_c, 0, 72, 103
2, 85340, Note_off_c, 0, 72, 100
2, 85344, Note_on_c, 0, 70, 101
2, 85436, Note_off_c, 0, 70, 100
2, 85440, Note_on_c, 0, 69, 99
2, 85532, Note_off_c, 0, 69, 100
2, 85536, Note_on_c, 0, 67, 97
2, 85624, Control_c, 0, 64, 0
2, 85628, Note_off_c, 0, 67, 100
2, 85632, Control_c, 0, 64, 127
2, 85632, Note_on_c, 0, 66, 80
2, 85724, Note_off_c, 0, 66, 100
2, 85728, Note_on_c, 0, 67, 80
2, 85820, Note_off_c, 0, 67, 100
2, 85824, Note_on_c, 0, 69, 80
2, 85916, Note_off_c, 0, 69, 100
2, 85920, Note_on_c, 0, 68, 80
2, 86008, Control_c, 0, 64, 0
2, 86012, Note_off_c, 0, 68, 100
2, 86016, Control_c, 0, 64, 127
2, 86016, Note_on_c, 0, 69, 80
2, 86108, Note_off_c, 0, 69, 100
2, 86112, Note_on_c, 0, 71, 80
2, 86204, Note_off_c, 0, 71, 100
2, 86208, Note_on_c, 0, 72, 80
2, 86300, Note_off_c, 0, 72, 100
2, 86304, Note_on_c, 0, 71, 80
2, 86392, Control_c, 0, 64, 0
2, 86396, Note_off_c, 0, 71, 100
2, 86400, Note_on_c, 0, 72, 80
2, 86588, Note_off_c, 0, 72, 100
2, 86592, Note_on_c, 0, 66, 80
2, 86780, Note_off_c, 0, 66, 100
2, 86784, Note_on_c, 0, 66, 80
2, 86972, Note_off_c, 0, 66, 100
2, 86976, Note_on_c, 0, 66, 80
2, 87164, Note_off_c, 0, 66, 100
2, 87168, Note_on_c, 0, 67, 80
2, 87260, Note_off_c, 0, 67, 100
2, 87264, Note_on_c, 0, 69, 80
2, 87292, Note_off_c, 0, 69, 100
2, 87296, Note_on_c, 0, 67, 80
2, 87324, Note_off_c, 0, 67, 100
2, 87328, Note_on_c, 0, 66, 80
2, 87356, Note_off_c, 0, 66, 100
2, 87360, Note_on_c, 0, 67, 80
2, 87452, Note_off_c, 0, 67, 100
2, 87456, Note_on_c, 0, 70, 80
2, 87548, Note_off_c, 0, 70, 100
2, 87552, Note_on_c, 0, 74, 80
2, 87740, Note_off_c, 0, 74, 100
2, 87744, Note_on_c, 0, 74, 80
2, 87932, Note_off_c, 0, 74, 100
2, 87936, Note_on_c, 0, 84, 80
2, 88124, Note_off_c, 0, 84, 100
2, 88128, Note_on_c, 0, 78, 80
2, 88316, Note_off_c, 0, 78, 100
2, 88320, Note_on_c, 0, 78, 80
2, 88508, Note_off_c, 0, 78, 100
2, 88512, Note_on_c, 0, 78, 80
2, 88700, Note_off_c, 0, 78, 100
2, 88704, Note_on_c, 0, 79, 80
2, 88796, Note_off_c, 0, 79, 100
2, 88800, Note_on_c, 0, 81, 80
2, 88828, Note_off_c, 0, 81, 100
2, 88832, Note_on_c, 0, 79, 80
2, 88860, Note_off_c, 0, 79, 100
2, 88864, Note_on_c, 0, 78, 80
2, 88892, Note_off_c, 0, 78, 100
2, 88896, Note_on_c, 0, 79, 80
2, 88988, Note_off_c, 0, 79, 100
2, 88992, Note_on_c, 0, 82, 80
2, 89084, Note_off_c, 0, 82, 100
2, 89088, Note_on_c, 0, 86, 80
2, 89276, Note_off_c, 0, 86, 100
2, 89280, Note_on_c, 0, 62, 80
2, 89468, Note_off_c, 0, 62, 100
2, 89472, Note_on_c, 0, 72, 80
2, 89660, Note_off_c, 0, 72, 100
2, 89664, Note_on_c, 0, 66, 80
2, 89852, Note_off_c, 0, 66, 100
2, 89856, Note_on_c, 0, 66, 80
2, 90044, Note_off_c, 0, 66, 100
2, 90048, Note_on_c, 0, 66, 80
2, 90236, Note_off_c, 0, 66, 100
2, 90240, Note_on_c, 0, 67, 80
2, 90332, Note_off_c, 0, 67, 100
2, 90336, Note_on_c, 0, 69, 80
2, 90364, Note_off_c, 0, 69, 100
2, 90368, Note_on_c, 0, 67, 80
2, 90396, Note_off_c, 0, 67, 100
2, 90400, Note_on_c, 0, 66, 80
2, 90428, Note_off_c, 0, 66, 100
2, 90432, Note_on_c, 0, 67, 80
2, 90524, Note_off_c, 0, 67, 100
2, 90528, Note_on_c, 0, 69, 80
2, 90620, Note_off_c, 0, 69, 100
2, 90624, Note_on_c, 0, 71, 80
2, 90716, Note_off_c, 0, 71, 100
2, 90720, Note_on_c, 0, 67, 80
2, 90812, Note_off_c, 0, 67, 100
2, 90816, Note_on_c, 0, 69, 80
2, 90908, Note_off_c, 0, 69, 100
2, 90912, Note_on_c, 0, 71, 80
2, 91004, Note_off_c, 0, 71, 100
2, 91008, Note_on_c, 0, 72, 80
2, 91100, Note_off_c, 0, 72, 100
2, 91104, Note_on_c, 0, 74, 80
2, 91132, Note_off_c, 0, 74, 100
2, 91136, Note_on_c, 0, 72, 80
2, 91164, Note_off_c, 0, 72, 100
2, 91168, Note_on_c, 0, 71, 80
2, 91196, Note_off_c, 0, 71, 100
2, 91200, Note_on_c, 0, 72, 80
2, 91292, Note_off_c, 0, 72, 100
2, 91296, Note_on_c, 0, 74, 80
2, 91388, Note_off_c, 0, 74, 100
2, 91392, Note_on_c, 0, 75, 80
2, 91484, Note_off_c, 0, 75, 100
2, 91488, Note_on_c, 0, 77, 80
2, 91580, Note_off_c, 0, 77, 100
2, 91584, Note_on_c, 0, 79, 80
2, 91676, Note_off_c, 0, 79, 100
2, 91680, Note_on_c, 0, 75, 80
2, 91772, Note_off_c, 0, 75, 100
2, 91776, Note_on_c, 0, 74, 80
2, 91964, Note_off_c, 0, 74, 100
2, 91968, Note_on_c, 0, 75, 80
2, 92060, Note_off_c, 0, 75, 100
2, 92064, Note_on_c, 0, 74, 80
2, 92156, Note_off_c, 0, 74, 100
2, 92160, Note_on_c, 0, 77, 80
2, 92252, Note_off_c, 0, 77, 100
2, 92256, Note_on_c, 0, 75, 80
2, 92348, Note_off_c, 0, 75, 100
2, 92352, Note_on_c, 0, 74, 80
2, 92444, Note_off_c, 0, 74, 100
2, 92448, Note_on_c, 0, 72, 80
2, 92540, Note_off_c, 0, 72, 100
2, 92544, Note_on_c, 0, 70, 80
2, 92828, Note_off_c, 0, 70, 100
2, 92832, Note_on_c, 0, 72, 80
2, 92856, Note_on_c, 0, 70, 80
2, 92868, Note_off_c, 0, 72, 100
2, 92880, Note_on_c, 0, 69, 80
2, 92896, Note_off_c, 0, 70, 100
2, 92904, Note_on_c, 0, 70, 80
2, 92920, Note_off_c, 0, 69, 100
2, 92924, Note_off_c, 0, 70, 100
2, 92928, Note_on_c, 0, 74, 80
2, 93020, Note_off_c, 0, 74, 100
2, 93024, Note_on_c, 0, 72, 80
2, 93116, Note_off_c, 0, 72, 100
2, 93120, Note_on_c, 0, 70, 80
2, 93212, Note_off_c, 0, 70, 100
2, 93216, Note_on_c, 0, 69, 80
2, 93308, Note_off_c, 0, 69, 100
2, 93312, Control_c, 0, 64, 127
2, 93312, Note_on_c, 0, 67, 80
2, 93404, Note_off_c, 0, 67, 100
2, 93408, Note_on_c, 0, 69, 80
2, 93436, Note_off_c, 0, 69, 100
2, 93440, Note_on_c, 0, 67, 80
2, 93468, Note_off_c, 0, 67, 100
2, 93472, Note_on_c, 0, 66, 80
2, 93500, Note_off_c, 0, 66, 100
2, 93504, Note_on_c, 0, 67, 80
2, 93596, Note_off_c, 0, 67, 100
2, 93600, Note_on_c, 0, 69, 80
2, 93688, Control_c, 0, 64, 0
2, 93692, Note_off_c, 0, 69, 100
2, 93696, Control_c, 0, 64, 127
2, 93696, Note_on_c, 0, 71, 80
2, 93788, Note_off_c, 0, 71, 100
2, 93792, Note_on_c, 0, 67, 80
2, 93884, Note_off_c, 0, 67, 100
2, 93888, Note_on_c, 0, 69, 80
2, 93980, Note_off_c, 0, 69, 100
2, 93984, Note_on_c, 0, 71, 80
2, 94072, Control_c, 0, 64, 0
2, 94076, Note_off_c, 0, 71, 100
2, 94080, Control_c, 0, 64, 127
2, 94080, Note_on_c, 0, 72, 80
2, 94172, Note_off_c, 0, 72, 100
2, 94176, Note_on_c, 0, 74, 83
2, 94204, Note_off_c, 0, 74, 100
2, 94208, Note_on_c, 0, 72, 85
2, 94236, Note_off_c, 0, 72, 100
2, 94240, Note_on_c, 0, 71, 86
2, 94268, Note_off_c, 0, 71, 100
2, 94272, Note_on_c, 0, 72, 87
2, 94364, Note_off_c, 0, 72, 100
2, 94368, Note_on_c, 0, 74, 91
2, 94456, Control_c, 0, 64, 0
2, 94460, Note_off_c, 0, 74, 100
2, 94464, Control_c, 0, 64, 127
2, 94464, Note_on_c, 0, 75, 95
2, 94556, Note_off_c, 0, 75, 100
2, 94560, Note_on_c, 0, 76, 98
2, 94652, Note_off_c, 0, 76, 100
2, 94656, Note_on_c, 0, 77, 102
2, 94748, Note_off_c, 0, 77, 100
2, 94752, Note_on_c, 0, 78, 106
2, 94840, Control_c, 0, 64, 0
2, 94844, Note_off_c, 0, 78, 100
2, 94848, Control_c, 0, 64, 127
2, 94848, Note_on_c, 0, 79, 110
2, 95224, Control_c, 0, 64, 0
2, 95232, Control_c, 0, 64, 127
2, 95324, Note_off_c, 0, 79, 100
2, 95328, Note_on_c, 0, 81, 110
2, 95360, Note_on_c, 0, 79, 110
2, 95388, Note_off_c, 0, 81, 100
2, 95392, Note_on_c, 0, 78, 110
2, 95420, Note_off_c, 0, 79, 100
2, 95424, Note_on_c, 0, 79, 110
2, 95452, Note_off_c, 0, 78, 100
2, 95516, Note_off_c, 0, 79, 100
2, 95520, Note_on_c, 0, 81, 110
2, 95608, Control_c, 0, 64, 0
2, 95612, Note_off_c, 0, 81, 100
2, 95616, Note_on_c, 0, 82, 120
2, 95996, Note_off_c, 0, 82, 100
2, 96000, Note_on_c, 0, 61, 121
2, 96380, Note_off_c, 0, 61, 100
2, 96384, Note_on_c, 0, 62, 110
2, 96572, Note_off_c, 0, 62, 100
2, 96576, Note_on_c, 0, 74, 80
2, 96956, Note_off_c, 0, 74, 100
2, 96960, Note_on_c, 0, 73, 80
2, 97052, Note_off_c, 0, 73, 100
2, 97056, Note_on_c, 0, 74, 80
2, 97148, Note_off_c, 0, 74, 100
2, 97152, Control_c, 0, 64, 127
2, 97152, Note_on_c, 0, 75, 80
2, 97244, Note_off_c, 0, 75, 100
2, 97248, Note_on_c, 0, 74, 80
2, 97340, Note_off_c, 0, 74, 100
2, 97344, Note_on_c, 0, 72, 80
2, 97436, Note_off_c, 0, 72, 100
2, 97440, Note_on_c, 0, 70, 80
2, 97528, Control_c, 0, 64, 0
2, 97532, Note_off_c, 0, 70, 100
2, 97536, Control_c, 0, 64, 127
2, 97536, Note_on_c, 0, 69, 80
2, 97628, Note_off_c, 0, 69, 100
2, 97632, Note_on_c, 0, 70, 80
2, 97724, Note_off_c, 0, 70, 100
2, 97728, Note_on_c, 0, 72, 80
2, 97820, Note_off_c, 0, 72, 100
2, 97824, Note_on_c, 0, 66, 80
2, 97912, Control_c, 0, 64, 0
2, 97916, Note_off_c, 0, 66, 100
2, 97920, Control_c, 0, 64, 127
2, 97920, Note_on_c, 0, 67, 80
2, 98108, Note_off_c, 0, 67, 100
2, 98112, Note_on_c, 0, 79, 80
2, 98296, Control_c, 0, 64, 0
2, 98304, Control_c, 0, 64, 127
2, 98492, Note_off_c, 0, 79, 100
2, 98496, Note_on_c, 0, 73, 80
2, 98588, Note_off_c, 0, 73, 100
2, 98592, Note_on_c, 0, 74, 80
2, 98680, Control_c, 0, 64, 0
2, 98684, Note_off_c, 0, 74, 100
2, 98688, Control_c, 0, 64, 127
2, 98688, Note_on_c, 0, 75, 80
2, 98780, Note_off_c, 0, 75, 100
2, 98784, Note_on_c, 0, 74, 80
2, 98876, Note_off_c, 0, 74, 100
2, 98880, Note_on_c, 0, 72, 80
2, 98972, Note_off_c, 0, 72, 100
2, 98976, Note_on_c, 0, 70, 80
2, 99064, Control_c, 0, 64, 0
2, 99068, Note_off_c, 0, 70, 100
2, 99072, Control_c, 0, 64, 127
2, 99072, Note_on_c, 0, 69, 80
2, 99164, Note_off_c, 0, 69, 100
2, 99168, Note_on_c, 0, 70, 80
2, 99260, Note_off_c, 0, 70, 100
2, 99264, Note_on_c, 0, 72, 80
2, 99356, Note_off_c, 0, 72, 100
2, 99360, Note_on_c, 0, 66, 80
2, 99448, Control_c, 0, 64, 0
2, 99452, Note_off_c, 0, 66, 100
2, 99456, Note_on_c, 0, 67, 70
2, 99644, Note_off_c, 0, 67, 100
2, 99648, Note_on_c, 0, 62, 70
2, 99648, Note_on_c, 0, 58, 70
2, 99648, Note_on_c, 0, 55, 70
2, 99836, Note_off_c, 0, 62, 100
2, 99836, Note_off_c, 0, 58, 100
2, 99836, Note_off_c, 0, 55, 100
2, 99840, Note_on_c, 0, 62, 70
2, 99840, Note_on_c, 0, 58, 70
2, 99840, Note_on_c, 0, 55, 70
2, 100028, Note_off_c, 0, 62, 100
2, 100028, Note_off_c, 0, 58, 100
2, 100028, Note_off_c, 0, 55, 100
2, 100032, Note_on_c, 0, 62, 70
2, 100032, Note_on_c, 0, 58, 70
2, 100032, Note_on_c, 0, 55, 70
2, 100220, Note_off_c, 0, 62, 100
2, 100220, Note_off_c, 0, 58, 100
2, 100220, Note_off_c, 0, 55, 100
2, 100224, Note_on_c, 0, 62, 70
2, 100224, Note_on_c, 0, 60, 70
2, 100224, Note_on_c, 0, 57, 70
2, 100412, Note_off_c, 0, 62, 100
2, 100412, Note_off_c, 0, 60, 100
2, 100412, Note_off_c, 0, 57, 100
2, 100416, Note_on_c, 0, 62, 70
2, 100416, Note_on_c, 0, 60, 70
2, 100416, Note_on_c, 0, 57, 70
2, 100604, Note_off_c, 0, 62, 100
2, 100604, Note_off_c, 0, 60, 100
2, 100604, Note_off_c, 0, 57, 100
2, 100608, Note_on_c, 0, 62, 70
2, 100608, Note_on_c, 0, 60, 70
2, 100608, Note_on_c, 0, 57, 70
2, 100796, Note_off_c, 0, 62, 100
2, 100796, Note_off_c, 0, 60, 100
2, 100796, Note_off_c, 0, 57, 100
2, 100800, Note_on_c, 0, 62, 70
2, 100800, Note_on_c, 0, 60, 70
2, 100800, Note_on_c, 0, 57, 70
2, 100988, Note_off_c, 0, 62, 100
2, 100988, Note_off_c, 0, 60, 100
2, 100988, Note_off_c, 0, 57, 100
2, 100992, Note_on_c, 0, 67, 70
2, 100992, Note_on_c, 0, 58, 70
2, 100992, Note_on_c, 0, 55, 70
2, 101180, Note_off_c, 0, 67, 100
2, 101184, Note_on_c, 0, 62, 70
2, 101184, Note_on_c, 0, 58, 70
2, 101184, Note_on_c, 0, 55, 70
2, 101372, Note_off_c, 0, 58, 100
2, 101372, Note_off_c, 0, 55, 100
2, 101372, Note_off_c, 0, 62, 100
2, 101372, Note_off_c, 0, 58, 100
2, 101372, Note_off_c, 0, 55, 100
2, 101376, Note_on_c, 0, 62, 70
2, 101376, Note_on_c, 0, 58, 70
2, 101376, Note_on_c, 0, 55, 70
2, 101564, Note_off_c, 0, 62, 100
2, 101564, Note_off_c, 0, 58, 100
2, 101564, Note_off_c, 0, 55, 100
2, 101568, Note_on_c, 0, 62, 70
2, 101568, Note_on_c, 0, 58, 70
2, 101568, Note_on_c, 0, 55, 70
2, 101756, Note_off_c, 0, 62, 100
2, 101756, Note_off_c, 0, 58, 100
2, 101756, Note_off_c, 0, 55, 100
2, 101760, Note_on_c, 0, 62, 70
2, 101760, Note_on_c, 0, 60, 70
2, 101760, Note_on_c, 0, 57, 70
2, 101948, Note_off_c, 0, 62, 100
2, 101948, Note_off_c, 0, 60, 100
2, 101948, Note_off_c, 0, 57, 100
2, 101952, Note_on_c, 0, 62, 70
2, 101952, Note_on_c, 0, 60, 70
2, 101952, Note_on_c, 0, 57, 70
2, 102140, Note_off_c, 0, 62, 100
2, 102140, Note_off_c, 0, 60, 100
2, 102140, Note_off_c, 0, 57, 100
2, 102144, Note_on_c, 0, 62, 70
2, 102144, Note_on_c, 0, 60, 70
2, 102144, Note_on_c, 0, 57, 70
2, 102332, Note_off_c, 0, 62, 100
2, 102332, Note_off_c, 0, 60, 100
2, 102332, Note_off_c, 0, 57, 100
2, 102336, Note_on_c, 0, 62, 70
2, 102336, Note_on_c, 0, 60, 70
2, 102336, Note_on_c, 0, 57, 70
2, 102524, Note_off_c, 0, 62, 100
2, 102524, Note_off_c, 0, 60, 100
2, 102524, Note_off_c, 0, 57, 100
2, 102528, Note_on_c, 0, 67, 70
2, 102528, Note_on_c, 0, 58, 70
2, 102528, Note_on_c, 0, 55, 70
2, 102716, Note_off_c, 0, 67, 100
2, 102720, Note_on_c, 0, 62, 70
2, 102720, Note_on_c, 0, 58, 70
2, 102720, Note_on_c, 0, 55, 70
2, 102908, Note_off_c, 0, 58, 100
2, 102908, Note_off_c, 0, 55, 100
2, 102908, Note_off_c, 0, 62, 100
2, 102908, Note_off_c, 0, 58, 100
2, 102908, Note_off_c, 0, 55, 100
2, 102912, Note_on_c, 0, 62, 70
2, 102912, Note_on_c, 0, 58, 70
2, 102912, Note_on_c, 0, 55, 70
2, 103100, Note_off_c, 0, 62, 100
2, 103100, Note_off_c, 0, 58, 100
2, 103100, Note_off_c, 0, 55, 100
2, 103104, Note_on_c, 0, 62, 70
2, 103104, Note_on_c, 0, 58, 70
2, 103104, Note_on_c, 0, 55, 70
2, 103292, Note_off_c, 0, 62, 100
2, 103292, Note_off_c, 0, 58, 100
2, 103292, Note_off_c, 0, 55, 100
2, 103296, Note_on_c, 0, 62, 70
2, 103296, Note_on_c, 0, 60, 70
2, 103296, Note_on_c, 0, 57, 70
2, 103484, Note_off_c, 0, 62, 100
2, 103484, Note_off_c, 0, 60, 100
2, 103484, Note_off_c, 0, 57, 100
2, 103488, Note_on_c, 0, 62, 70
2, 103488, Note_on_c, 0, 60, 70
2, 103488, Note_on_c, 0, 57, 70
2, 103676, Note_off_c, 0, 62, 100
2, 103676, Note_off_c, 0, 60, 100
2, 103676, Note_off_c, 0, 57, 100
2, 103680, Note_on_c, 0, 62, 70
2, 103680, Note_on_c, 0, 60, 70
2, 103680, Note_on_c, 0, 57, 70
2, 103868, Note_off_c, 0, 62, 100
2, 103868, Note_off_c, 0, 60, 100
2, 103868, Note_off_c, 0, 57, 100
2, 103872, Note_on_c, 0, 62, 70
2, 103872, Note_on_c, 0, 60, 70
2, 103872, Note_on_c, 0, 57, 70
2, 104060, Note_off_c, 0, 62, 100
2, 104060, Note_off_c, 0, 60, 100
2, 104060, Note_off_c, 0, 57, 100
2, 104064, Note_on_c, 0, 62, 70
2, 104064, Note_on_c, 0, 58, 70
2, 104252, Note_off_c, 0, 62, 100
2, 104252, Note_off_c, 0, 58, 100
2, 104256, Note_on_c, 0, 55, 70
2, 104444, Note_off_c, 0, 55, 100
2, 104448, Note_on_c, 0, 59, 70
2, 104448, Note_on_c, 0, 65, 70
2, 104636, Note_off_c, 0, 59, 100
2, 104636, Note_off_c, 0, 65, 100
2, 104640, Note_on_c, 0, 55, 70
2, 104828, Note_off_c, 0, 55, 100
2, 104832, Note_on_c, 0, 60, 70
2, 104832, Note_on_c, 0, 63, 70
2, 105020, Note_off_c, 0, 60, 100
2, 105020, Note_off_c, 0, 63, 100
2, 105024, Note_on_c, 0, 55, 70
2, 105212, Note_off_c, 0, 55, 100
2, 105216, Note_on_c, 0, 60, 70
2, 105216, Note_on_c, 0, 51, 70
2, 105404, Note_off_c, 0, 60, 100
2, 105404, Note_off_c, 0, 51, 100
2, 105408, Note_on_c, 0, 54, 70
2, 105596, Note_off_c, 0, 54, 100
2, 105600, Note_on_c, 0, 59, 70
2, 105600, Note_on_c, 0, 50, 70
2, 105788, Note_off_c, 0, 59, 100
2, 105788, Note_off_c, 0, 50, 100
2, 105792, Note_on_c, 0, 55, 70
2, 105980, Note_off_c, 0, 55, 100
2, 105984, Note_on_c, 0, 62, 70
2, 105984, Note_on_c, 0, 53, 70
2, 106172, Note_off_c, 0, 62, 100
2, 106172, Note_off_c, 0, 53, 100
2, 106176, Note_on_c, 0, 55, 70
2, 106364, Note_off_c, 0, 55, 100
2, 106368, Note_on_c, 0, 60, 70
2, 106368, Note_on_c, 0, 51, 70
2, 106556, Note_off_c, 0, 60, 100
2, 106556, Note_off_c, 0, 51, 100
2, 106560, Note_on_c, 0, 55, 70
2, 106748, Note_off_c, 0, 55, 100
2, 106752, Note_on_c, 0, 54, 70
2, 106752, Note_on_c, 0, 48, 70
2, 106940, Note_off_c, 0, 54, 100
2, 106940, Note_off_c, 0, 48, 100
2, 106944, Note_on_c, 0, 51, 70
2, 107132, Note_off_c, 0, 51, 100
2, 107136, Note_on_c, 0, 55, 70
2, 107136, Note_on_c, 0, 47, 70
2, 107324, Note_off_c, 0, 55, 100
2, 107324, Note_off_c, 0, 47, 100
2, 107328, Note_on_c, 0, 50, 70
2, 107516, Note_off_c, 0, 50, 100
2, 107520, Note_on_c, 0, 54, 70
2, 107520, Note_on_c, 0, 48, 70
2, 107708, Note_off_c, 0, 54, 100
2, 107708, Note_off_c, 0, 48, 100
2, 107712, Note_on_c, 0, 51, 70
2, 107900, Note_off_c, 0, 51, 100
2, 107904, Note_on_c, 0, 55, 70
2, 107904, Note_on_c, 0, 47, 70
2, 108092, Note_off_c, 0, 55, 100
2, 108092, Note_off_c, 0, 47, 100
2, 108096, Note_on_c, 0, 50, 70
2, 108284, Note_off_c, 0, 50, 100
2, 108288, Note_on_c, 0, 54, 70
2, 108288, Note_on_c, 0, 48, 70
2, 108476, Note_off_c, 0, 54, 100
2, 108476, Note_off_c, 0, 48, 100
2, 108480, Note_on_c, 0, 51, 70
2, 108668, Note_off_c, 0, 51, 100
2, 108672, Note_on_c, 0, 55, 70
2, 108672, Note_on_c, 0, 47, 70
2, 108860, Note_off_c, 0, 55, 100
2, 108860, Note_off_c, 0, 47, 100
2, 108864, Note_on_c, 0, 50, 70
2, 109052, Note_off_c, 0, 50, 100
2, 109056, Note_on_c, 0, 55, 70
2, 109056, Note_on_c, 0, 47, 70
2, 109244, Note_off_c, 0, 55, 100
2, 109244, Note_off_c, 0, 47, 100
2, 109248, Note_on_c, 0, 50, 70
2, 109436, Note_off_c, 0, 50, 100
2, 109440, Note_on_c, 0, 55, 70
2, 109440, Note_on_c, 0, 47, 70
2, 110204, Note_off_c, 0, 55, 100
2, 110204, Note_off_c, 0, 47, 100
2, 110592, Control_c, 0, 7, 0
2, 110976, Note_on_c, 0, 55, 1
2, 111356, Note_off_c, 0, 55, 100
2, 111356, End_track
3, 0, Start_track
3, 0, Title_t, "Left"
3, 0, Control_c, 1, 0, 0
3, 0, Program_c, 1, 0
3, 0, Control_c, 1, 7, 100
3, 0, Control_c, 1, 10, 56
3, 0, Control_c, 1, 91, 127
3, 0, Key_signature, -2, "minor"
3, 576, Note_on_c, 1, 62, 80
3, 576, Note_on_c, 1, 58, 80
3, 764, Note_off_c, 1, 62, 100
3, 764, Note_off_c, 1, 58, 100
3, 768, Note_on_c, 1, 60, 80
3, 768, Note_on_c, 1, 57, 80
3, 956, Note_off_c, 1, 60, 100
3, 956, Note_off_c, 1, 57, 100
3, 960, Note_on_c, 1, 58, 80
3, 960, Note_on_c, 1, 55, 80
3, 1148, Note_off_c, 1, 58, 100
3, 1148, Note_off_c, 1, 55, 100
3, 1152, Note_on_c, 1, 57, 80
3, 1152, Note_on_c, 1, 54, 80
3, 1340, Note_off_c, 1, 57, 100
3, 1340, Note_off_c, 1, 54, 100
3, 1344, Note_on_c, 1, 54, 80
3, 1344, Note_on_c, 1, 50, 80
3, 1532, Note_off_c, 1, 54, 100
3, 1532, Note_off_c, 1, 50, 100
3, 1536, Note_on_c, 1, 55, 80
3, 1536, Note_on_c, 1, 52, 80
3, 1724, Note_off_c, 1, 55, 100
3, 1724, Note_off_c, 1, 52, 100
3, 1728, Note_on_c, 1, 57, 80
3, 1728, Note_on_c, 1, 54, 80
3, 1916, Note_off_c, 1, 57, 100
3, 1916, Note_off_c, 1, 54, 100
3, 1920, Note_on_c, 1, 58, 80
3, 1920, Note_on_c, 1, 55, 80
3, 2108, Note_off_c, 1, 58, 100
3, 2108, Note_off_c, 1, 55, 100
3, 2112, Note_on_c, 1, 62, 80
3, 2112, Note_on_c, 1, 58, 80
3, 2300, Note_off_c, 1, 62, 100
3, 2300, Note_off_c, 1, 58, 100
3, 2304, Note_on_c, 1, 60, 80
3, 2304, Note_on_c, 1, 57, 80
3, 2492, Note_off_c, 1, 60, 100
3, 2492, Note_off_c, 1, 57, 100
3, 2496, Note_on_c, 1, 58, 80
3, 2496, Note_on_c, 1, 55, 80
3, 2684, Note_off_c, 1, 58, 100
3, 2684, Note_off_c, 1, 55, 100
3, 2688, Note_on_c, 1, 48, 80
3, 2876, Note_off_c, 1, 48, 100
3, 2880, Note_on_c, 1, 51, 80
3, 3068, Note_off_c, 1, 51, 100
3, 3072, Note_on_c, 1, 55, 80
3, 3260, Note_off_c, 1, 55, 100
3, 3264, Note_on_c, 1, 60, 80
3, 3452, Note_off_c, 1, 60, 100
3, 3456, Note_on_c, 1, 58, 80
3, 3836, Note_off_c, 1, 58, 100
3, 4032, Note_on_c, 1, 62, 80
3, 4032, Note_on_c, 1, 58, 80
3, 4220, Note_off_c, 1, 62, 100
3, 4220, Note_off_c, 1, 58, 100
3, 4224, Note_on_c, 1, 62, 80
3, 4224, Note_on_c, 1, 54, 80
3, 4604, Note_off_c, 1, 62, 100
3, 4604, Note_off_c, 1, 54, 100
3, 4800, Note_on_c, 1, 62, 80
3, 4800, Note_on_c, 1, 54, 80
3, 4988, Note_off_c, 1, 62, 100
3, 4988, Note_off_c, 1, 54, 100
3, 4992, Note_on_c, 1, 62, 80
3, 4992, Note_on_c, 1, 55, 80
3, 5372, Note_off_c, 1, 62, 100
3, 5372, Note_off_c, 1, 55, 100
3, 5376, Note_on_c, 1, 60, 80
3, 5376, Note_on_c, 1, 48, 80
3, 5756, Note_off_c, 1, 60, 100
3, 5756, Note_off_c, 1, 48, 100
3, 5760, Note_on_c, 1, 58, 80
3, 5760, Note_on_c, 1, 50, 80
3, 6140, Note_off_c, 1, 58, 100
3, 6144, Note_on_c, 1, 57, 80
3, 6332, Note_off_c, 1, 50, 100
3, 6332, Note_off_c, 1, 57, 100
3, 6720, Note_on_c, 1, 62, 80
3, 6720, Note_on_c, 1, 58, 80
3, 6908, Note_off_c, 1, 62, 100
3, 6908, Note_off_c, 1, 58, 100
3, 6912, Note_on_c, 1, 60, 80
3, 6912, Note_on_c, 1, 57, 80
3, 7100, Note_off_c, 1, 60, 100
3, 7100, Note_off_c, 1, 57, 100
3, 7104, Note_on_c, 1, 58, 80
3, 7104, Note_on_c, 1, 55, 80
3, 7292, Note_off_c, 1, 58, 100
3, 7292, Note_off_c, 1, 55, 100
3, 7296, Note_on_c, 1, 57, 80
3, 7296, Note_on_c, 1, 54, 80
3, 7484, Note_off_c, 1, 57, 100
3, 7484, Note_off_c, 1, 54, 100
3, 7488, Note_on_c, 1, 54, 80
3, 7488, Note_on_c, 1, 50, 80
3, 7676, Note_off_c, 1, 54, 100
3, 7676, Note_off_c, 1, 50, 100
3, 7680, Note_on_c, 1, 55, 80
3, 7680, Note_on_c, 1, 52, 80
3, 7868, Note_off_c, 1, 55, 100
3, 7868, Note_off_c, 1, 52, 100
3, 7872, Note_on_c, 1, 57, 80
3, 7872, Note_on_c, 1, 54, 80
3, 8060, Note_off_c, 1, 57, 100
3, 8060, Note_off_c, 1, 54, 100
3, 8064, Note_on_c, 1, 58, 80
3, 8064, Note_on_c, 1, 55, 80
3, 8252, Note_off_c, 1, 58, 100
3, 8252, Note_off_c, 1, 55, 100
3, 8256, Note_on_c, 1, 62, 80
3, 8256, Note_on_c, 1, 58, 80
3, 8444, Note_off_c, 1, 62, 100
3, 8444, Note_off_c, 1, 58, 100
3, 8448, Note_on_c, 1, 60, 80
3, 8448, Note_on_c, 1, 57, 80
3, 8636, Note_off_c, 1, 60, 100
3, 8636, Note_off_c, 1, 57, 100
3, 8640, Note_on_c, 1, 58, 80
3, 8640, Note_on_c, 1, 55, 80
3, 8828, Note_off_c, 1, 58, 100
3, 8828, Note_off_c, 1, 55, 100
3, 8832, Note_on_c, 1, 48, 80
3, 9024, Note_on_c, 1, 51, 80
3, 9212, Note_off_c, 1, 51, 100
3, 9216, Note_on_c, 1, 55, 80
3, 9404, Note_off_c, 1, 48, 100
3, 9404, Note_off_c, 1, 55, 100
3, 9408, Note_on_c, 1, 48, 80
3, 9408, Note_on_c, 1, 57, 80
3, 9596, Note_off_c, 1, 48, 100
3, 9596, Note_off_c, 1, 57, 100
3, 9600, Note_on_c, 1, 58, 80
3, 9600, Note_on_c, 1, 50, 80
3, 9980, Note_off_c, 1, 58, 100
3, 9980, Note_off_c, 1, 50, 100
3, 10176, Note_on_c, 1, 53, 80
3, 10176, Note_on_c, 1, 50, 80
3, 10364, Note_off_c, 1, 53, 100
3, 10364, Note_off_c, 1, 50, 100
3, 10368, Note_on_c, 1, 51, 80
3, 10368, Note_on_c, 1, 55, 80
3, 10556, Note_off_c, 1, 55, 100
3, 10560, Note_on_c, 1, 60, 80
3, 10748, Note_off_c, 1, 51, 100
3, 10748, Note_off_c, 1, 60, 100
3, 10752, Note_on_c, 1, 52, 80
3, 10752, Note_on_c, 1, 55, 80
3, 10940, Note_off_c, 1, 55, 100
3, 10944, Note_on_c, 1, 60, 80
3, 11132, Note_off_c, 1, 52, 100
3, 11132, Note_off_c, 1, 60, 100
3, 11136, Note_on_c, 1, 60, 80
3, 11136, Note_on_c, 1, 53, 80
3, 11516, Note_off_c, 1, 60, 100
3, 11516, Note_off_c, 1, 53, 100
3, 11904, Control_c, 1, 64, 127
3, 11904, Note_on_c, 1, 57, 80
3, 11996, Note_off_c, 1, 57, 100
3, 12000, Note_on_c, 1, 65, 80
3, 12092, Note_off_c, 1, 65, 100
3, 12096, Note_on_c, 1, 60, 80
3, 12188, Note_off_c, 1, 60, 100
3, 12192, Note_on_c, 1, 65, 80
3, 12280, Control_c, 1, 64, 0
3, 12284, Note_off_c, 1, 65, 100
3, 12288, Control_c, 1, 64, 127
3, 12288, Note_on_c, 1, 63, 80
3, 12380, Note_off_c, 1, 63, 100
3, 12384, Note_on_c, 1, 65, 80
3, 12476, Note_off_c, 1, 65, 100
3, 12480, Note_on_c, 1, 60, 80
3, 12572, Note_off_c, 1, 60, 100
3, 12576, Note_on_c, 1, 65, 80
3, 12664, Control_c, 1, 64, 0
3, 12668, Note_off_c, 1, 65, 100
3, 12672, Control_c, 1, 64, 127
3, 12672, Note_on_c, 1, 62, 80
3, 12764, Note_off_c, 1, 62, 100
3, 12768, Note_on_c, 1, 65, 80
3, 12860, Note_off_c, 1, 65, 100
3, 12864, Note_on_c, 1, 58, 80
3, 12956, Note_off_c, 1, 58, 100
3, 12960, Note_on_c, 1, 65, 80
3, 13048, Control_c, 1, 64, 0
3, 13052, Note_off_c, 1, 65, 100
3, 13056, Control_c, 1, 64, 127
3, 13056, Note_on_c, 1, 62, 80
3, 13148, Note_off_c, 1, 62, 100
3, 13152, Note_on_c, 1, 65, 80
3, 13244, Note_off_c, 1, 65, 100
3, 13248, Note_on_c, 1, 58, 80
3, 13340, Note_off_c, 1, 58, 100
3, 13344, Note_on_c, 1, 65, 80
3, 13432, Control_c, 1, 64, 0
3, 13436, Note_off_c, 1, 65, 100
3, 13440, Control_c, 1, 64, 127
3, 13440, Note_on_c, 1, 57, 80
3, 13532, Note_off_c, 1, 57, 100
3, 13536, Note_on_c, 1, 65, 80
3, 13628, Note_off_c, 1, 65, 100
3, 13632, Note_on_c, 1, 60, 80
3, 13724, Note_off_c, 1, 60, 100
3, 13728, Note_on_c, 1, 65, 80
3, 13816, Control_c, 1, 64, 0
3, 13820, Note_off_c, 1, 65, 100
3, 13824, Control_c, 1, 64, 127
3, 13824, Note_on_c, 1, 63, 80
3, 13916, Note_off_c, 1, 63, 100
3, 13920, Note_on_c, 1, 65, 80
3, 14012, Note_off_c, 1, 65, 100
3, 14016, Note_on_c, 1, 60, 80
3, 14108, Note_off_c, 1, 60, 100
3, 14112, Note_on_c, 1, 65, 80
3, 14200, Control_c, 1, 64, 0
3, 14204, Note_off_c, 1, 65, 100
3, 14208, Control_c, 1, 64, 127
3, 14208, Note_on_c, 1, 62, 80
3, 14300, Note_off_c, 1, 62, 100
3, 14304, Note_on_c, 1, 65, 80
3, 14396, Note_off_c, 1, 65, 100
3, 14400, Note_on_c, 1, 58, 80
3, 14492, Note_off_c, 1, 58, 100
3, 14496, Note_on_c, 1, 65, 80
3, 14584, Control_c, 1, 64, 0
3, 14588, Note_off_c, 1, 65, 100
3, 14592, Control_c, 1, 64, 127
3, 14592, Note_on_c, 1, 62, 80
3, 14684, Note_off_c, 1, 62, 100
3, 14688, Note_on_c, 1, 65, 80
3, 14780, Note_off_c, 1, 65, 100
3, 14784, Note_on_c, 1, 58, 80
3, 14876, Note_off_c, 1, 58, 100
3, 14880, Note_on_c, 1, 65, 80
3, 14968, Control_c, 1, 64, 0
3, 14972, Note_off_c, 1, 65, 100
3, 14976, Control_c, 1, 64, 127
3, 14976, Note_on_c, 1, 57, 80
3, 15068, Note_off_c, 1, 57, 100
3, 15072, Note_on_c, 1, 65, 80
3, 15164, Note_off_c, 1, 65, 100
3, 15168, Note_on_c, 1, 60, 80
3, 15260, Note_off_c, 1, 60, 100
3, 15264, Note_on_c, 1, 65, 80
3, 15352, Control_c, 1, 64, 0
3, 15356, Note_off_c, 1, 65, 100
3, 15360, Control_c, 1, 64, 127
3, 15360, Note_on_c, 1, 63, 80
3, 15452, Note_off_c, 1, 63, 100
3, 15456, Note_on_c, 1, 65, 80
3, 15548, Note_off_c, 1, 65, 100
3, 15552, Note_on_c, 1, 60, 80
3, 15644, Note_off_c, 1, 60, 100
3, 15648, Note_on_c, 1, 65, 80
3, 15736, Control_c, 1, 64, 0
3, 15740, Note_off_c, 1, 65, 100
3, 15744, Control_c, 1, 64, 127
3, 15744, Note_on_c, 1, 62, 80
3, 15836, Note_off_c, 1, 62, 100
3, 15840, Note_on_c, 1, 65, 80
3, 15932, Note_off_c, 1, 65, 100
3, 15936, Note_on_c, 1, 58, 80
3, 16028, Note_off_c, 1, 58, 100
3, 16032, Note_on_c, 1, 65, 80
3, 16120, Control_c, 1, 64, 0
3, 16124, Note_off_c, 1, 65, 100
3, 16128, Control_c, 1, 64, 127
3, 16128, Note_on_c, 1, 56, 80
3, 16220, Note_off_c, 1, 56, 100
3, 16224, Note_on_c, 1, 65, 80
3, 16316, Note_off_c, 1, 65, 100
3, 16320, Note_on_c, 1, 58, 80
3, 16412, Note_off_c, 1, 58, 100
3, 16416, Note_on_c, 1, 65, 80
3, 16504, Control_c, 1, 64, 0
3, 16508, Note_off_c, 1, 65, 100
3, 16512, Control_c, 1, 64, 127
3, 16512, Note_on_c, 1, 55, 80
3, 16604, Note_off_c, 1, 55, 100
3, 16608, Note_on_c, 1, 63, 80
3, 16700, Note_off_c, 1, 63, 100
3, 16704, Note_on_c, 1, 58, 80
3, 16796, Note_off_c, 1, 58, 100
3, 16800, Note_on_c, 1, 63, 80
3, 16888, Control_c, 1, 64, 0
3, 16892, Note_off_c, 1, 63, 100
3, 16896, Control_c, 1, 64, 127
3, 16896, Note_on_c, 1, 51, 80
3, 16988, Note_off_c, 1, 51, 100
3, 16992, Note_on_c, 1, 63, 80
3, 17084, Note_off_c, 1, 63, 100
3, 17088, Note_on_c, 1, 58, 80
3, 17180, Note_off_c, 1, 58, 100
3, 17184, Note_on_c, 1, 63, 80
3, 17272, Control_c, 1, 64, 0
3, 17276, Note_off_c, 1, 63, 100
3, 17280, Control_c, 1, 64, 127
3, 17280, Note_on_c, 1, 53, 80
3, 17372, Note_off_c, 1, 53, 100
3, 17376, Note_on_c, 1, 62, 80
3, 17468, Note_off_c, 1, 62, 100
3, 17472, Note_on_c, 1, 58, 80
3, 17564, Note_off_c, 1, 58, 100
3, 17568, Note_on_c, 1, 62, 80
3, 17656, Control_c, 1, 64, 0
3, 17660, Note_off_c, 1, 62, 100
3, 17664, Control_c, 1, 64, 127
3, 17664, Note_on_c, 1, 53, 80
3, 17756, Note_off_c, 1, 53, 100
3, 17760, Note_on_c, 1, 63, 80
3, 17852, Note_off_c, 1, 63, 100
3, 17856, Note_on_c, 1, 57, 80
3, 17948, Note_off_c, 1, 57, 100
3, 17952, Note_on_c, 1, 63, 80
3, 18040, Control_c, 1, 64, 0
3, 18044, Note_off_c, 1, 63, 100
3, 18048, Note_on_c, 1, 62, 80
3, 18048, Note_on_c, 1, 58, 80
3, 18428, Note_off_c, 1, 62, 100
3, 18428, Note_off_c, 1, 58, 100
3, 18816, Control_c, 1, 64, 127
3, 18816, Note_on_c, 1, 62, 80
3, 18908, Note_off_c, 1, 62, 100
3, 18912, Note_on_c, 1, 65, 80
3, 19004, Note_off_c, 1, 65, 100
3, 19008, Note_on_c, 1, 58, 80
3, 19100, Note_off_c, 1, 58, 100
3, 19104, Note_on_c, 1, 65, 80
3, 19192, Control_c, 1, 64, 0
3, 19196, Note_off_c, 1, 65, 100
3, 19200, Control_c, 1, 64, 127
3, 19200, Note_on_c, 1, 56, 80
3, 19292, Note_off_c, 1, 56, 100
3, 19296, Note_on_c, 1, 65, 80
3, 19388, Note_off_c, 1, 65, 100
3, 19392, Note_on_c, 1, 58, 80
3, 19484, Note_off_c, 1, 58, 100
3, 19488, Note_on_c, 1, 65, 80
3, 19576, Control_c, 1, 64, 0
3, 19580, Note_off_c, 1, 65, 100
3, 19584, Control_c, 1, 64, 127
3, 19584, Note_on_c, 1, 55, 80
3, 19676, Note_off_c, 1, 55, 100
3, 19680, Note_on_c, 1, 63, 80
3, 19772, Note_off_c, 1, 63, 100
3, 19776, Note_on_c, 1, 58, 80
3, 19868, Note_off_c, 1, 58, 100
3, 19872, Note_on_c, 1, 63, 80
3, 19960, Control_c, 1, 64, 0
3, 19964, Note_off_c, 1, 63, 100
3, 19968, Control_c, 1, 64, 127
3, 19968, Note_on_c, 1, 51, 80
3, 20060, Note_off_c, 1, 51, 100
3, 20064, Note_on_c, 1, 63, 80
3, 20156, Note_off_c, 1, 63, 100
3, 20160, Note_on_c, 1, 58, 80
3, 20252, Note_off_c, 1, 58, 100
3, 20256, Note_on_c, 1, 63, 80
3, 20344, Control_c, 1, 64, 0
3, 20348, Note_off_c, 1, 63, 100
3, 20352, Control_c, 1, 64, 127
3, 20352, Note_on_c, 1, 50, 80
3, 20444, Note_off_c, 1, 50, 100
3, 20448, Note_on_c, 1, 62, 80
3, 20540, Note_off_c, 1, 62, 100
3, 20544, Note_on_c, 1, 58, 80
3, 20636, Note_off_c, 1, 58, 100
3, 20640, Note_on_c, 1, 62, 80
3, 20728, Control_c, 1, 64, 0
3, 20732, Note_off_c, 1, 62, 100
3, 20736, Control_c, 1, 64, 127
3, 20736, Note_on_c, 1, 48, 80
3, 20828, Note_off_c, 1, 48, 100
3, 20832, Note_on_c, 1, 60, 80
3, 20924, Note_off_c, 1, 60, 100
3, 20928, Note_on_c, 1, 55, 80
3, 21020, Note_off_c, 1, 55, 100
3, 21024, Note_on_c, 1, 60, 80
3, 21112, Control_c, 1, 64, 0
3, 21116, Note_off_c, 1, 60, 100
3, 21120, Control_c, 1, 64, 127
3, 21120, Note_on_c, 1, 53, 80
3, 21212, Note_off_c, 1, 53, 100
3, 21216, Note_on_c, 1, 62, 80
3, 21308, Note_off_c, 1, 62, 100
3, 21312, Note_on_c, 1, 58, 80
3, 21404, Note_off_c, 1, 58, 100
3, 21408, Note_on_c, 1, 62, 80
3, 21496, Control_c, 1, 64, 0
3, 21500, Note_off_c, 1, 62, 100
3, 21504, Control_c, 1, 64, 127
3, 21504, Note_on_c, 1, 53, 80
3, 21596, Note_off_c, 1, 53, 100
3, 21600, Note_on_c, 1, 63, 80
3, 21692, Note_off_c, 1, 63, 100
3, 21696, Note_on_c, 1, 57, 80
3, 21788, Note_off_c, 1, 57, 100
3, 21792, Note_on_c, 1, 63, 80
3, 21880, Control_c, 1, 64, 0
3, 21884, Note_off_c, 1, 63, 100
3, 21888, Control_c, 1, 64, 127
3, 21888, Note_on_c, 1, 62, 80
3, 21888, Note_on_c, 1, 58, 80
3, 21980, Note_off_c, 1, 62, 100
3, 21980, Note_off_c, 1, 58, 100
3, 21984, Note_on_c, 1, 65, 80
3, 22076, Note_off_c, 1, 65, 100
3, 22080, Note_on_c, 1, 64, 80
3, 22172, Note_off_c, 1, 64, 100
3, 22176, Note_on_c, 1, 65, 80
3, 22264, Control_c, 1, 64, 0
3, 22268, Note_off_c, 1, 65, 100
3, 22272, Control_c, 1, 64, 127
3, 22272, Note_on_c, 1, 67, 80
3, 22364, Note_off_c, 1, 67, 100
3, 22368, Note_on_c, 1, 65, 80
3, 22460, Note_off_c, 1, 65, 100
3, 22464, Note_on_c, 1, 63, 80
3, 22556, Note_off_c, 1, 63, 100
3, 22560, Note_on_c, 1, 62, 80
3, 22648, Control_c, 1, 64, 0
3, 22652, Note_off_c, 1, 62, 100
3, 22656, Control_c, 1, 64, 127
3, 22656, Note_on_c, 1, 60, 80
3, 22748, Note_off_c, 1, 60, 100
3, 22752, Note_on_c, 1, 65, 80
3, 22844, Note_off_c, 1, 65, 100
3, 22848, Note_on_c, 1, 63, 80
3, 22940, Note_off_c, 1, 63, 100
3, 22944, Note_on_c, 1, 65, 80
3, 23032, Control_c, 1, 64, 0
3, 23036, Note_off_c, 1, 65, 100
3, 23040, Control_c, 1, 64, 127
3, 23040, Note_on_c, 1, 60, 80
3, 23040, Note_on_c, 1, 53, 80
3, 23132, Note_off_c, 1, 60, 100
3, 23132, Note_off_c, 1, 53, 100
3, 23136, Note_on_c, 1, 65, 80
3, 23228, Note_off_c, 1, 65, 100
3, 23232, Note_on_c, 1, 63, 80
3, 23324, Note_off_c, 1, 63, 100
3, 23328, Note_on_c, 1, 65, 80
3, 23416, Control_c, 1, 64, 0
3, 23420, Note_off_c, 1, 65, 100
3, 23424, Control_c, 1, 64, 127
3, 23424, Note_on_c, 1, 62, 80
3, 23424, Note_on_c, 1, 58, 80
3, 23516, Note_off_c, 1, 62, 100
3, 23516, Note_off_c, 1, 58, 100
3, 23520, Note_on_c, 1, 65, 80
3, 23612, Note_off_c, 1, 65, 100
3, 23616, Note_on_c, 1, 64, 80
3, 23708, Note_off_c, 1, 64, 100
3, 23712, Note_on_c, 1, 65, 80
3, 23800, Control_c, 1, 64, 0
3, 23804, Note_off_c, 1, 65, 100
3, 23808, Control_c, 1, 64, 127
3, 23808, Note_on_c, 1, 67, 80
3, 23900, Note_off_c, 1, 67, 100
3, 23904, Note_on_c, 1, 65, 80
3, 23996, Note_off_c, 1, 65, 100
3, 24000, Note_on_c, 1, 63, 80
3, 24092, Note_off_c, 1, 63, 100
3, 24096, Note_on_c, 1, 62, 80
3, 24184, Control_c, 1, 64, 0
3, 24188, Note_off_c, 1, 62, 100
3, 24192, Control_c, 1, 64, 127
3, 24192, Note_on_c, 1, 60, 80
3, 24284, Note_off_c, 1, 60, 100
3, 24288, Note_on_c, 1, 65, 80
3, 24380, Note_off_c, 1, 65, 100
3, 24384, Note_on_c, 1, 63, 80
3, 24476, Note_off_c, 1, 63, 100
3, 24480, Note_on_c, 1, 65, 80
3, 24568, Control_c, 1, 64, 0
3, 24572, Note_off_c, 1, 65, 100
3, 24576, Control_c, 1, 64, 127
3, 24576, Note_on_c, 1, 60, 80
3, 24576, Note_on_c, 1, 53, 80
3, 24668, Note_off_c, 1, 60, 100
3, 24668, Note_off_c, 1, 53, 100
3, 24672, Note_on_c, 1, 65, 80
3, 24764, Note_off_c, 1, 65, 100
3, 24768, Note_on_c, 1, 63, 80
3, 24860, Note_off_c, 1, 63, 100
3, 24864, Note_on_c, 1, 65, 80
3, 24952, Control_c, 1, 64, 0
3, 24956, Note_off_c, 1, 65, 100
3, 24960, Note_on_c, 1, 63, 80
3, 24960, Note_on_c, 1, 58, 80
3, 25340, Note_off_c, 1, 63, 100
3, 25344, Note_on_c, 1, 62, 80
3, 25532, Note_off_c, 1, 58, 100
3, 25532, Note_off_c, 1, 62, 100
3, 25920, Note_on_c, 1, 62, 80
3, 25920, Note_on_c, 1, 58, 80
3, 26108, Note_off_c, 1, 62, 100
3, 26108, Note_off_c, 1, 58, 100
3, 26112, Note_on_c, 1, 60, 80
3, 26112, Note_on_c, 1, 57, 80
3, 26300, Note_off_c, 1, 60, 100
3, 26300, Note_off_c, 1, 57, 100
3, 26304, Note_on_c, 1, 58, 80
3, 26304, Note_on_c, 1, 55, 80
3, 26492, Note_off_c, 1, 58, 100
3, 26492, Note_off_c, 1, 55, 100
3, 26496, Note_on_c, 1, 57, 80
3, 26496, Note_on_c, 1, 54, 80
3, 26684, Note_off_c, 1, 57, 100
3, 26684, Note_off_c, 1, 54, 100
3, 26688, Note_on_c, 1, 54, 80
3, 26688, Note_on_c, 1, 50, 80
3, 26876, Note_off_c, 1, 54, 100
3, 26876, Note_off_c, 1, 50, 100
3, 26880, Note_on_c, 1, 55, 80
3, 26880, Note_on_c, 1, 52, 80
3, 27068, Note_off_c, 1, 55, 100
3, 27068, Note_off_c, 1, 52, 100
3, 27072, Note_on_c, 1, 57, 80
3, 27072, Note_on_c, 1, 54, 80
3, 27260, Note_off_c, 1, 57, 100
3, 27260, Note_off_c, 1, 54, 100
3, 27264, Note_on_c, 1, 58, 80
3, 27264, Note_on_c, 1, 55, 80
3, 27452, Note_off_c, 1, 58, 100
3, 27452, Note_off_c, 1, 55, 100
3, 27456, Note_on_c, 1, 62, 80
3, 27456, Note_on_c, 1, 58, 80
3, 27644, Note_off_c, 1, 62, 100
3, 27644, Note_off_c, 1, 58, 100
3, 27648, Note_on_c, 1, 60, 80
3, 27648, Note_on_c, 1, 57, 80
3, 27836, Note_off_c, 1, 60, 100
3, 27836, Note_off_c, 1, 57, 100
3, 27840, Note_on_c, 1, 58, 80
3, 27840, Note_on_c, 1, 55, 80
3, 28028, Note_off_c, 1, 58, 100
3, 28028, Note_off_c, 1, 55, 100
3, 28032, Note_on_c, 1, 48, 80
3, 28220, Note_off_c, 1, 48, 100
3, 28224, Note_on_c, 1, 51, 80
3, 28412, Note_off_c, 1, 51, 100
3, 28416, Note_on_c, 1, 55, 80
3, 28604, Note_off_c, 1, 55, 100
3, 28608, Note_on_c, 1, 60, 80
3, 28796, Note_off_c, 1, 60, 100
3, 28800, Note_on_c, 1, 58, 80
3, 29180, Note_off_c, 1, 58, 100
3, 29376, Note_on_c, 1, 62, 80
3, 29376, Note_on_c, 1, 58, 80
3, 29564, Note_off_c, 1, 62, 100
3, 29564, Note_off_c, 1, 58, 100
3, 29568, Note_on_c, 1, 62, 80
3, 29568, Note_on_c, 1, 54, 80
3, 29948, Note_off_c, 1, 62, 100
3, 29948, Note_off_c, 1, 54, 100
3, 30144, Note_on_c, 1, 62, 80
3, 30144, Note_on_c, 1, 54, 80
3, 30332, Note_off_c, 1, 62, 100
3, 30332, Note_off_c, 1, 54, 100
3, 30336, Note_on_c, 1, 62, 80
3, 30336, Note_on_c, 1, 55, 80
3, 30716, Note_off_c, 1, 62, 100
3, 30716, Note_off_c, 1, 55, 100
3, 30720, Note_on_c, 1, 60, 80
3, 30720, Note_on_c, 1, 48, 80
3, 31100, Note_off_c, 1, 60, 100
3, 31100, Note_off_c, 1, 48, 100
3, 31104, Note_on_c, 1, 58, 80
3, 31104, Note_on_c, 1, 50, 80
3, 31484, Note_off_c, 1, 58, 100
3, 31488, Note_on_c, 1, 57, 80
3, 31676, Note_off_c, 1, 50, 100
3, 31676, Note_off_c, 1, 57, 100
3, 32064, Note_on_c, 1, 62, 80
3, 32064, Note_on_c, 1, 58, 80
3, 32252, Note_off_c, 1, 62, 100
3, 32252, Note_off_c, 1, 58, 100
3, 32256, Note_on_c, 1, 60, 80
3, 32256, Note_on_c, 1, 57, 80
3, 32444, Note_off_c, 1, 60, 100
3, 32444, Note_off_c, 1, 57, 100
3, 32448, Note_on_c, 1, 58, 80
3, 32448, Note_on_c, 1, 55, 80
3, 32636, Note_off_c, 1, 58, 100
3, 32636, Note_off_c, 1, 55, 100
3, 32640, Note_on_c, 1, 57, 80
3, 32640, Note_on_c, 1, 54, 80
3, 32828, Note_off_c, 1, 57, 100
3, 32828, Note_off_c, 1, 54, 100
3, 32832, Note_on_c, 1, 54, 80
3, 32832, Note_on_c, 1, 50, 80
3, 33020, Note_off_c, 1, 54, 100
3, 33020, Note_off_c, 1, 50, 100
3, 33024, Note_on_c, 1, 55, 80
3, 33024, Note_on_c, 1, 52, 80
3, 33212, Note_off_c, 1, 55, 100
3, 33212, Note_off_c, 1, 52, 100
3, 33216, Note_on_c, 1, 57, 80
3, 33216, Note_on_c, 1, 54, 80
3, 33404, Note_off_c, 1, 57, 100
3, 33404, Note_off_c, 1, 54, 100
3, 33408, Note_on_c, 1, 58, 80
3, 33408, Note_on_c, 1, 55, 80
3, 33596, Note_off_c, 1, 58, 100
3, 33596, Note_off_c, 1, 55, 100
3, 33600, Note_on_c, 1, 62, 80
3, 33600, Note_on_c, 1, 58, 80
3, 33788, Note_off_c, 1, 62, 100
3, 33788, Note_off_c, 1, 58, 100
3, 33792, Note_on_c, 1, 60, 80
3, 33792, Note_on_c, 1, 57, 80
3, 33980, Note_off_c, 1, 60, 100
3, 33980, Note_off_c, 1, 57, 100
3, 33984, Note_on_c, 1, 58, 80
3, 33984, Note_on_c, 1, 55, 80
3, 34172, Note_off_c, 1, 58, 100
3, 34172, Note_off_c, 1, 55, 100
3, 34176, Note_on_c, 1, 48, 80
3, 34368, Note_on_c, 1, 51, 80
3, 34556, Note_off_c, 1, 51, 100
3, 34560, Note_on_c, 1, 55, 80
3, 34748, Note_off_c, 1, 48, 100
3, 34748, Note_off_c, 1, 55, 100
3, 34752, Note_on_c, 1, 48, 80
3, 34752, Note_on_c, 1, 57, 80
3, 34940, Note_off_c, 1, 48, 100
3, 34940, Note_off_c, 1, 57, 100
3, 34944, Note_on_c, 1, 58, 80
3, 34944, Note_on_c, 1, 50, 80
3, 35324, Note_off_c, 1, 58, 100
3, 35324, Note_off_c, 1, 50, 100
3, 35520, Note_on_c, 1, 53, 80
3, 35520, Note_on_c, 1, 50, 80
3, 35708, Note_off_c, 1, 53, 100
3, 35708, Note_off_c, 1, 50, 100
3, 35712, Note_on_c, 1, 51, 80
3, 35712, Note_on_c, 1, 55, 80
3, 35900, Note_off_c, 1, 55, 100
3, 35904, Note_on_c, 1, 60, 80
3, 36092, Note_off_c, 1, 51, 100
3, 36092, Note_off_c, 1, 60, 100
3, 36096, Note_on_c, 1, 52, 80
3, 36096, Note_on_c, 1, 55, 80
3, 36284, Note_off_c, 1, 55, 100
3, 36288, Note_on_c, 1, 60, 80
3, 36476, Note_off_c, 1, 52, 100
3, 36476, Note_off_c, 1, 60, 100
3, 36480, Note_on_c, 1, 60, 80
3, 36480, Note_on_c, 1, 53, 80
3, 36860, Note_off_c, 1, 60, 100
3, 36860, Note_off_c, 1, 53, 100
3, 37248, Control_c, 1, 64, 127
3, 37248, Note_on_c, 1, 57, 80
3, 37340, Note_off_c, 1, 57, 100
3, 37344, Note_on_c, 1, 65, 80
3, 37436, Note_off_c, 1, 65, 100
3, 37440, Note_on_c, 1, 60, 80
3, 37532, Note_off_c, 1, 60, 100
3, 37536, Note_on_c, 1, 65, 80
3, 37624, Control_c, 1, 64, 0
3, 37628, Note_off_c, 1, 65, 100
3, 37632, Control_c, 1, 64, 127
3, 37632, Note_on_c, 1, 63, 80
3, 37724, Note_off_c, 1, 63, 100
3, 37728, Note_on_c, 1, 65, 80
3, 37820, Note_off_c, 1, 65, 100
3, 37824, Note_on_c, 1, 60, 80
3, 37916, Note_off_c, 1, 60, 100
3, 37920, Note_on_c, 1, 65, 80
3, 38008, Control_c, 1, 64, 0
3, 38012, Note_off_c, 1, 65, 100
3, 38016, Control_c, 1, 64, 127
3, 38016, Note_on_c, 1, 62, 80
3, 38108, Note_off_c, 1, 62, 100
3, 38112, Note_on_c, 1, 65, 80
3, 38204, Note_off_c, 1, 65, 100
3, 38208, Note_on_c, 1, 58, 80
3, 38300, Note_off_c, 1, 58, 100
3, 38304, Note_on_c, 1, 65, 80
3, 38392, Control_c, 1, 64, 0
3, 38396, Note_off_c, 1, 65, 100
3, 38400, Control_c, 1, 64, 127
3, 38400, Note_on_c, 1, 62, 80
3, 38492, Note_off_c, 1, 62, 100
3, 38496, Note_on_c, 1, 65, 80
3, 38588, Note_off_c, 1, 65, 100
3, 38592, Note_on_c, 1, 58, 80
3, 38684, Note_off_c, 1, 58, 100
3, 38688, Note_on_c, 1, 65, 80
3, 38776, Control_c, 1, 64, 0
3, 38780, Note_off_c, 1, 65, 100
3, 38784, Control_c, 1, 64, 127
3, 38784, Note_on_c, 1, 57, 80
3, 38876, Note_off_c, 1, 57, 100
3, 38880, Note_on_c, 1, 65, 80
3, 38972, Note_off_c, 1, 65, 100
3, 38976, Note_on_c, 1, 60, 80
3, 39068, Note_off_c, 1, 60, 100
3, 39072, Note_on_c, 1, 65, 80
3, 39160, Control_c, 1, 64, 0
3, 39164, Note_off_c, 1, 65, 100
3, 39168, Control_c, 1, 64, 127
3, 39168, Note_on_c, 1, 63, 80
3, 39260, Note_off_c, 1, 63, 100
3, 39264, Note_on_c, 1, 65, 80
3, 39356, Note_off_c, 1, 65, 100
3, 39360, Note_on_c, 1, 60, 80
3, 39452, Note_off_c, 1, 60, 100
3, 39456, Note_on_c, 1, 65, 80
3, 39544, Control_c, 1, 64, 0
3, 39548, Note_off_c, 1, 65, 100
3, 39552, Control_c, 1, 64, 127
3, 39552, Note_on_c, 1, 62, 80
3, 39644, Note_off_c, 1, 62, 100
3, 39648, Note_on_c, 1, 65, 80
3, 39740, Note_off_c, 1, 65, 100
3, 39744, Note_on_c, 1, 58, 80
3, 39836, Note_off_c, 1, 58, 100
3, 39840, Note_on_c, 1, 65, 80
3, 39928, Control_c, 1, 64, 0
3, 39932, Note_off_c, 1, 65, 100
3, 39936, Control_c, 1, 64, 127
3, 39936, Note_on_c, 1, 62, 80
3, 40028, Note_off_c, 1, 62, 100
3, 40032, Note_on_c, 1, 65, 80
3, 40124, Note_off_c, 1, 65, 100
3, 40128, Note_on_c, 1, 58, 80
3, 40220, Note_off_c, 1, 58, 100
3, 40224, Note_on_c, 1, 65, 80
3, 40312, Control_c, 1, 64, 0
3, 40316, Note_off_c, 1, 65, 100
3, 40320, Control_c, 1, 64, 127
3, 40320, Note_on_c, 1, 57, 80
3, 40412, Note_off_c, 1, 57, 100
3, 40416, Note_on_c, 1, 65, 80
3, 40508, Note_off_c, 1, 65, 100
3, 40512, Note_on_c, 1, 60, 80
3, 40604, Note_off_c, 1, 60, 100
3, 40608, Note_on_c, 1, 65, 80
3, 40696, Control_c, 1, 64, 0
3, 40700, Note_off_c, 1, 65, 100
3, 40704, Control_c, 1, 64, 127
3, 40704, Note_on_c, 1, 63, 80
3, 40796, Note_off_c, 1, 63, 100
3, 40800, Note_on_c, 1, 65, 80
3, 40892, Note_off_c, 1, 65, 100
3, 40896, Note_on_c, 1, 60, 80
3, 40988, Note_off_c, 1, 60, 100
3, 40992, Note_on_c, 1, 65, 80
3, 41080, Control_c, 1, 64, 0
3, 41084, Note_off_c, 1, 65, 100
3, 41088, Control_c, 1, 64, 127
3, 41088, Note_on_c, 1, 62, 80
3, 41180, Note_off_c, 1, 62, 100
3, 41184, Note_on_c, 1, 65, 80
3, 41276, Note_off_c, 1, 65, 100
3, 41280, Note_on_c, 1, 58, 80
3, 41372, Note_off_c, 1, 58, 100
3, 41376, Note_on_c, 1, 65, 80
3, 41464, Control_c, 1, 64, 0
3, 41468, Note_off_c, 1, 65, 100
3, 41472, Control_c, 1, 64, 127
3, 41472, Note_on_c, 1, 56, 80
3, 41564, Note_off_c, 1, 56, 100
3, 41568, Note_on_c, 1, 65, 80
3, 41660, Note_off_c, 1, 65, 100
3, 41664, Note_on_c, 1, 58, 80
3, 41756, Note_off_c, 1, 58, 100
3, 41760, Note_on_c, 1, 65, 80
3, 41848, Control_c, 1, 64, 0
3, 41852, Note_off_c, 1, 65, 100
3, 41856, Control_c, 1, 64, 127
3, 41856, Note_on_c, 1, 55, 80
3, 41948, Note_off_c, 1, 55, 100
3, 41952, Note_on_c, 1, 63, 80
3, 42044, Note_off_c, 1, 63, 100
3, 42048, Note_on_c, 1, 58, 80
3, 42140, Note_off_c, 1, 58, 100
3, 42144, Note_on_c, 1, 63, 80
3, 42232, Control_c, 1, 64, 0
3, 42236, Note_off_c, 1, 63, 100
3, 42240, Control_c, 1, 64, 127
3, 42240, Note_on_c, 1, 51, 80
3, 42332, Note_off_c, 1, 51, 100
3, 42336, Note_on_c, 1, 63, 80
3, 42428, Note_off_c, 1, 63, 100
3, 42432, Note_on_c, 1, 58, 80
3, 42524, Note_off_c, 1, 58, 100
3, 42528, Note_on_c, 1, 63, 80
3, 42616, Control_c, 1, 64, 0
3, 42620, Note_off_c, 1, 63, 100
3, 42624, Control_c, 1, 64, 127
3, 42624, Note_on_c, 1, 53, 80
3, 42716, Note_off_c, 1, 53, 100
3, 42720, Note_on_c, 1, 62, 80
3, 42812, Note_off_c, 1, 62, 100
3, 42816, Note_on_c, 1, 58, 80
3, 42908, Note_off_c, 1, 58, 100
3, 42912, Note_on_c, 1, 62, 80
3, 43000, Control_c, 1, 64, 0
3, 43004, Note_off_c, 1, 62, 100
3, 43008, Control_c, 1, 64, 127
3, 43008, Note_on_c, 1, 53, 80
3, 43100, Note_off_c, 1, 53, 100
3, 43104, Note_on_c, 1, 63, 80
3, 43196, Note_off_c, 1, 63, 100
3, 43200, Note_on_c, 1, 57, 80
3, 43292, Note_off_c, 1, 57, 100
3, 43296, Note_on_c, 1, 63, 80
3, 43384, Control_c, 1, 64, 0
3, 43388, Note_off_c, 1, 63, 100
3, 43392, Note_on_c, 1, 62, 80
3, 43392, Note_on_c, 1, 58, 80
3, 43772, Note_off_c, 1, 62, 100
3, 43772, Note_off_c, 1, 58, 100
3, 44160, Control_c, 1, 64, 127
3, 44160, Note_on_c, 1, 62, 80
3, 44252, Note_off_c, 1, 62, 100
3, 44256, Note_on_c, 1, 65, 80
3, 44348, Note_off_c, 1, 65, 100
3, 44352, Note_on_c, 1, 58, 80
3, 44444, Note_off_c, 1, 58, 100
3, 44448, Note_on_c, 1, 65, 80
3, 44536, Control_c, 1, 64, 0
3, 44540, Note_off_c, 1, 65, 100
3, 44544, Control_c, 1, 64, 127
3, 44544, Note_on_c, 1, 56, 80
3, 44636, Note_off_c, 1, 56, 100
3, 44640, Note_on_c, 1, 65, 80
3, 44732, Note_off_c, 1, 65, 100
3, 44736, Note_on_c, 1, 58, 80
3, 44828, Note_off_c, 1, 58, 100
3, 44832, Note_on_c, 1, 65, 80
3, 44920, Control_c, 1, 64, 0
3, 44924, Note_off_c, 1, 65, 100
3, 44928, Control_c, 1, 64, 127
3, 44928, Note_on_c, 1, 55, 80
3, 45020, Note_off_c, 1, 55, 100
3, 45024, Note_on_c, 1, 63, 80
3, 45116, Note_off_c, 1, 63, 100
3, 45120, Note_on_c, 1, 58, 80
3, 45212, Note_off_c, 1, 58, 100
3, 45216, Note_on_c, 1, 63, 80
3, 45304, Control_c, 1, 64, 0
3, 45308, Note_off_c, 1, 63, 100
3, 45312, Control_c, 1, 64, 127
3, 45312, Note_on_c, 1, 51, 80
3, 45404, Note_off_c, 1, 51, 100
3, 45408, Note_on_c, 1, 63, 80
3, 45500, Note_off_c, 1, 63, 100
3, 45504, Note_on_c, 1, 58, 80
3, 45596, Note_off_c, 1, 58, 100
3, 45600, Note_on_c, 1, 63, 80
3, 45688, Control_c, 1, 64, 0
3, 45692, Note_off_c, 1, 63, 100
3, 45696, Control_c, 1, 64, 127
3, 45696, Note_on_c, 1, 50, 80
3, 45788, Note_off_c, 1, 50, 100
3, 45792, Note_on_c, 1, 62, 80
3, 45884, Note_off_c, 1, 62, 100
3, 45888, Note_on_c, 1, 58, 80
3, 45980, Note_off_c, 1, 58, 100
3, 45984, Note_on_c, 1, 62, 80
3, 46072, Control_c, 1, 64, 0
3, 46076, Note_off_c, 1, 62, 100
3, 46080, Control_c, 1, 64, 127
3, 46080, Note_on_c, 1, 48, 80
3, 46172, Note_off_c, 1, 48, 100
3, 46176, Note_on_c, 1, 60, 80
3, 46268, Note_off_c, 1, 60, 100
3, 46272, Note_on_c, 1, 55, 80
3, 46364, Note_off_c, 1, 55, 100
3, 46368, Note_on_c, 1, 60, 80
3, 46456, Control_c, 1, 64, 0
3, 46460, Note_off_c, 1, 60, 100
3, 46464, Control_c, 1, 64, 127
3, 46464, Note_on_c, 1, 53, 80
3, 46556, Note_off_c, 1, 53, 100
3, 46560, Note_on_c, 1, 62, 80
3, 46652, Note_off_c, 1, 62, 100
3, 46656, Note_on_c, 1, 58, 80
3, 46748, Note_off_c, 1, 58, 100
3, 46752, Note_on_c, 1, 62, 80
3, 46840, Control_c, 1, 64, 0
3, 46844, Note_off_c, 1, 62, 100
3, 46848, Control_c, 1, 64, 127
3, 46848, Note_on_c, 1, 53, 80
3, 46940, Note_off_c, 1, 53, 100
3, 46944, Note_on_c, 1, 63, 80
3, 47036, Note_off_c, 1, 63, 100
3, 47040, Note_on_c, 1, 57, 80
3, 47132, Note_off_c, 1, 57, 100
3, 47136, Note_on_c, 1, 63, 80
3, 47224, Control_c, 1, 64, 0
3, 47228, Note_off_c, 1, 63, 100
3, 47232, Control_c, 1, 64, 127
3, 47232, Note_on_c, 1, 62, 80
3, 47232, Note_on_c, 1, 58, 80
3, 47324, Note_off_c, 1, 62, 100
3, 47324, Note_off_c, 1, 58, 100
3, 47328, Note_on_c, 1, 65, 80
3, 47420, Note_off_c, 1, 65, 100
3, 47424, Note_on_c, 1, 64, 80
3, 47516, Note_off_c, 1, 64, 100
3, 47520, Note_on_c, 1, 65, 80
3, 47608, Control_c, 1, 64, 0
3, 47612, Note_off_c, 1, 65, 100
3, 47616, Control_c, 1, 64, 127
3, 47616, Note_on_c, 1, 67, 80
3, 47708, Note_off_c, 1, 67, 100
3, 47712, Note_on_c, 1, 65, 80
3, 47804, Note_off_c, 1, 65, 100
3, 47808, Note_on_c, 1, 63, 80
3, 47900, Note_off_c, 1, 63, 100
3, 47904, Note_on_c, 1, 62, 80
3, 47992, Control_c, 1, 64, 0
3, 47996, Note_off_c, 1, 62, 100
3, 48000, Control_c, 1, 64, 127
3, 48000, Note_on_c, 1, 60, 80
3, 48092, Note_off_c, 1, 60, 100
3, 48096, Note_on_c, 1, 65, 80
3, 48188, Note_off_c, 1, 65, 100
3, 48192, Note_on_c, 1, 63, 80
3, 48284, Note_off_c, 1, 63, 100
3, 48288, Note_on_c, 1, 65, 80
3, 48376, Control_c, 1, 64, 0
3, 48380, Note_off_c, 1, 65, 100
3, 48384, Control_c, 1, 64, 127
3, 48384, Note_on_c, 1, 60, 80
3, 48384, Note_on_c, 1, 53, 80
3, 48476, Note_off_c, 1, 60, 100
3, 48476, Note_off_c, 1, 53, 100
3, 48480, Note_on_c, 1, 65, 80
3, 48572, Note_off_c, 1, 65, 100
3, 48576, Note_on_c, 1, 63, 80
3, 48668, Note_off_c, 1, 63, 100
3, 48672, Note_on_c, 1, 65, 80
3, 48760, Control_c, 1, 64, 0
3, 48764, Note_off_c, 1, 65, 100
3, 48768, Control_c, 1, 64, 127
3, 48768, Note_on_c, 1, 62, 80
3, 48768, Note_on_c, 1, 58, 80
3, 48860, Note_off_c, 1, 62, 100
3, 48860, Note_off_c, 1, 58, 100
3, 48864, Note_on_c, 1, 65, 80
3, 48956, Note_off_c, 1, 65, 100
3, 48960, Note_on_c, 1, 64, 80
3, 49052, Note_off_c, 1, 64, 100
3, 49056, Note_on_c, 1, 65, 80
3, 49144, Control_c, 1, 64, 0
3, 49148, Note_off_c, 1, 65, 100
3, 49152, Control_c, 1, 64, 127
3, 49152, Note_on_c, 1, 67, 80
3, 49244, Note_off_c, 1, 67, 100
3, 49248, Note_on_c, 1, 65, 80
3, 49340, Note_off_c, 1, 65, 100
3, 49344, Note_on_c, 1, 63, 80
3, 49436, Note_off_c, 1, 63, 100
3, 49440, Note_on_c, 1, 62, 80
3, 49528, Control_c, 1, 64, 0
3, 49532, Note_off_c, 1, 62, 100
3, 49536, Control_c, 1, 64, 127
3, 49536, Note_on_c, 1, 60, 80
3, 49628, Note_off_c, 1, 60, 100
3, 49632, Note_on_c, 1, 65, 80
3, 49724, Note_off_c, 1, 65, 100
3, 49728, Note_on_c, 1, 63, 80
3, 49820, Note_off_c, 1, 63, 100
3, 49824, Note_on_c, 1, 65, 80
3, 49912, Control_c, 1, 64, 0
3, 49916, Note_off_c, 1, 65, 100
3, 49920, Control_c, 1, 64, 127
3, 49920, Note_on_c, 1, 60, 80
3, 49920, Note_on_c, 1, 53, 80
3, 50012, Note_off_c, 1, 60, 100
3, 50012, Note_off_c, 1, 53, 100
3, 50016, Note_on_c, 1, 65, 80
3, 50108, Note_off_c, 1, 65, 100
3, 50112, Note_on_c, 1, 63, 80
3, 50204, Note_off_c, 1, 63, 100
3, 50208, Note_on_c, 1, 65, 80
3, 50296, Control_c, 1, 64, 0
3, 50300, Note_off_c, 1, 65, 100
3, 50304, Note_on_c, 1, 63, 80
3, 50304, Note_on_c, 1, 58, 80
3, 50684, Note_off_c, 1, 63, 100
3, 50688, Note_on_c, 1, 62, 80
3, 50876, Note_off_c, 1, 58, 100
3, 50876, Note_off_c, 1, 62, 100
3, 50880, Note_on_c, 1, 46, 110
3, 50904, Note_on_c, 1, 48, 110
3, 50924, Note_off_c, 1, 46, 100
3, 50928, Note_on_c, 1, 46, 110
3, 50944, Note_off_c, 1, 48, 100
3, 50952, Note_on_c, 1, 48, 110
3, 50968, Note_off_c, 1, 46, 100
3, 50976, Note_on_c, 1, 46, 110
3, 50992, Note_off_c, 1, 48, 100
3, 51000, Note_on_c, 1, 48, 110
3, 51012, Note_off_c, 1, 46, 100
3, 51024, Note_on_c, 1, 45, 110
3, 51040, Note_off_c, 1, 48, 100
3, 51048, Note_on_c, 1, 46, 110
3, 51068, Note_off_c, 1, 45, 100
3, 51068, Note_off_c, 1, 46, 100
3, 51072, Note_on_c, 1, 53, 110
3, 51260, Note_off_c, 1, 53, 100
3, 51264, Note_on_c, 1, 46, 110
3, 51452, Note_off_c, 1, 46, 100
3, 51456, Note_on_c, 1, 46, 110
3, 51644, Note_off_c, 1, 46, 100
3, 51648, Note_on_c, 1, 46, 110
3, 51672, Note_on_c, 1, 48, 110
3, 51692, Note_off_c, 1, 46, 100
3, 51696, Note_on_c, 1, 46, 110
3, 51712, Note_off_c, 1, 48, 100
3, 51720, Note_on_c, 1, 48, 110
3, 51736, Note_off_c, 1, 46, 100
3, 51744, Note_on_c, 1, 46, 110
3, 51760, Note_off_c, 1, 48, 100
3, 51768, Note_on_c, 1, 48, 110
3, 51780, Note_off_c, 1, 46, 100
3, 51792, Note_on_c, 1, 45, 110
3, 51808, Note_off_c, 1, 48, 100
3, 51816, Note_on_c, 1, 46, 110
3, 51836, Note_off_c, 1, 45, 100
3, 51836, Note_off_c, 1, 46, 100
3, 51840, Note_on_c, 1, 53, 110
3, 52028, Note_off_c, 1, 53, 100
3, 52032, Note_on_c, 1, 44, 110
3, 52220, Note_off_c, 1, 44, 100
3, 52224, Note_on_c, 1, 44, 110
3, 52412, Note_off_c, 1, 44, 100
3, 52416, Note_on_c, 1, 44, 110
3, 52440, Note_on_c, 1, 46, 110
3, 52452, Note_off_c, 1, 44, 100
3, 52464, Note_on_c, 1, 44, 110
3, 52484, Note_off_c, 1, 46, 100
3, 52488, Note_on_c, 1, 46, 110
3, 52508, Note_off_c, 1, 44, 100
3, 52512, Note_on_c, 1, 44, 110
3, 52532, Note_off_c, 1, 46, 100
3, 52536, Note_on_c, 1, 46, 110
3, 52548, Note_off_c, 1, 44, 100
3, 52560, Note_on_c, 1, 43, 110
3, 52572, Note_off_c, 1, 46, 100
3, 52584, Note_on_c, 1, 44, 110
3, 52600, Note_off_c, 1, 43, 100
3, 52604, Note_off_c, 1, 44, 100
3, 52608, Note_on_c, 1, 43, 110
3, 52796, Note_off_c, 1, 43, 100
3, 52800, Note_on_c, 1, 46, 104
3, 52988, Note_off_c, 1, 46, 100
3, 52992, Note_on_c, 1, 51, 97
3, 53180, Note_off_c, 1, 51, 100
3, 53184, Note_on_c, 1, 55, 91
3, 53372, Note_off_c, 1, 55, 100
3, 53376, Note_on_c, 1, 44, 80
3, 53376, Note_on_c, 1, 56, 80
3, 53564, Note_off_c, 1, 56, 100
3, 53568, Note_on_c, 1, 53, 80
3, 53756, Note_off_c, 1, 44, 100
3, 53756, Note_off_c, 1, 53, 100
3, 53760, Note_on_c, 1, 46, 80
3, 53760, Note_on_c, 1, 53, 80
3, 53948, Note_off_c, 1, 53, 100
3, 53952, Note_on_c, 1, 50, 80
3, 54140, Note_off_c, 1, 46, 100
3, 54140, Note_off_c, 1, 50, 100
3, 54144, Note_on_c, 1, 51, 80
3, 54144, Note_on_c, 1, 39, 80
3, 54332, Note_off_c, 1, 51, 100
3, 54332, Note_off_c, 1, 39, 100
3, 54336, Note_on_c, 1, 63, 80
3, 54336, Note_on_c, 1, 67, 80
3, 54524, Note_off_c, 1, 63, 100
3, 54524, Note_off_c, 1, 67, 100
3, 54528, Note_on_c, 1, 67, 80
3, 54528, Note_on_c, 1, 63, 80
3, 54716, Note_off_c, 1, 67, 100
3, 54716, Note_off_c, 1, 63, 100
3, 55104, Note_on_c, 1, 65, 80
3, 55104, Note_on_c, 1, 68, 80
3, 55292, Note_off_c, 1, 65, 100
3, 55292, Note_off_c, 1, 68, 100
3, 55296, Note_on_c, 1, 65, 80
3, 55296, Note_on_c, 1, 68, 80
3, 55484, Note_off_c, 1, 65, 100
3, 55484, Note_off_c, 1, 68, 100
3, 55872, Note_on_c, 1, 70, 80
3, 55872, Note_on_c, 1, 67, 80
3, 56060, Note_off_c, 1, 70, 100
3, 56060, Note_off_c, 1, 67, 100
3, 56064, Note_on_c, 1, 70, 80
3, 56064, Note_on_c, 1, 67, 80
3, 56252, Note_off_c, 1, 70, 100
3, 56252, Note_off_c, 1, 67, 100
3, 56256, Note_on_c, 1, 70, 80
3, 56256, Note_on_c, 1, 67, 80
3, 56444, Note_off_c, 1, 70, 100
3, 56444, Note_off_c, 1, 67, 100
3, 56448, Note_on_c, 1, 72, 80
3, 56448, Note_on_c, 1, 68, 80
3, 56828, Note_off_c, 1, 72, 100
3, 56828, Note_off_c, 1, 68, 100
3, 56832, Note_on_c, 1, 74, 80
3, 56832, Note_on_c, 1, 70, 80
3, 57212, Note_off_c, 1, 74, 100
3, 57212, Note_off_c, 1, 70, 100
3, 57408, Note_on_c, 1, 70, 80
3, 57408, Note_on_c, 1, 63, 80
3, 57596, Note_off_c, 1, 70, 100
3, 57596, Note_off_c, 1, 63, 100
3, 57600, Note_on_c, 1, 63, 80
3, 57600, Note_on_c, 1, 67, 80
3, 57788, Note_off_c, 1, 63, 100
3, 57788, Note_off_c, 1, 67, 100
3, 58176, Note_on_c, 1, 65, 80
3, 58176, Note_on_c, 1, 68, 80
3, 58364, Note_off_c, 1, 65, 100
3, 58364, Note_off_c, 1, 68, 100
3, 58368, Note_on_c, 1, 68, 80
3, 58368, Note_on_c, 1, 65, 80
3, 58556, Note_off_c, 1, 68, 100
3, 58556, Note_off_c, 1, 65, 100
3, 58944, Note_on_c, 1, 70, 80
3, 58944, Note_on_c, 1, 67, 80
3, 59132, Note_off_c, 1, 70, 100
3, 59132, Note_off_c, 1, 67, 100
3, 59136, Note_on_c, 1, 70, 80
3, 59136, Note_on_c, 1, 67, 80
3, 59324, Note_off_c, 1, 70, 100
3, 59324, Note_off_c, 1, 67, 100
3, 59328, Note_on_c, 1, 70, 80
3, 59328, Note_on_c, 1, 67, 80
3, 59516, Note_off_c, 1, 70, 100
3, 59516, Note_off_c, 1, 67, 100
3, 59520, Note_on_c, 1, 68, 80
3, 59520, Note_on_c, 1, 72, 80
3, 59900, Note_off_c, 1, 68, 100
3, 59900, Note_off_c, 1, 72, 100
3, 59904, Note_on_c, 1, 68, 80
3, 59904, Note_on_c, 1, 65, 80
3, 59904, Note_on_c, 1, 58, 80
3, 60284, Note_off_c, 1, 68, 100
3, 60284, Note_off_c, 1, 65, 100
3, 60284, Note_off_c, 1, 58, 100
3, 60288, Control_c, 1, 64, 127
3, 60288, Note_on_c, 1, 67, 80
3, 60288, Note_on_c, 1, 63, 80
3, 60380, Note_off_c, 1, 67, 100
3, 60380, Note_off_c, 1, 63, 100
3, 60384, Note_on_c, 1, 70, 80
3, 60476, Note_off_c, 1, 70, 100
3, 60480, Note_on_c, 1, 69, 80
3, 60572, Note_off_c, 1, 69, 100
3, 60576, Note_on_c, 1, 70, 80
3, 60664, Control_c, 1, 64, 0
3, 60668, Note_off_c, 1, 70, 100
3, 60672, Control_c, 1, 64, 127
3, 60672, Note_on_c, 1, 72, 80
3, 60764, Note_off_c, 1, 72, 100
3, 60768, Note_on_c, 1, 70, 80
3, 60860, Note_off_c, 1, 70, 100
3, 60864, Note_on_c, 1, 68, 80
3, 60956, Note_off_c, 1, 68, 100
3, 60960, Note_on_c, 1, 67, 80
3, 61048, Control_c, 1, 64, 0
3, 61052, Note_off_c, 1, 67, 100
3, 61056, Control_c, 1, 64, 127
3, 61056, Note_on_c, 1, 65, 80
3, 61148, Note_off_c, 1, 65, 100
3, 61152, Note_on_c, 1, 70, 80
3, 61244, Note_off_c, 1, 70, 100
3, 61248, Note_on_c, 1, 68, 80
3, 61340, Note_off_c, 1, 68, 100
3, 61344, Note_on_c, 1, 70, 80
3, 61432, Control_c, 1, 64, 0
3, 61436, Note_off_c, 1, 70, 100
3, 61440, Control_c, 1, 64, 127
3, 61440, Note_on_c, 1, 65, 80
3, 61440, Note_on_c, 1, 58, 80
3, 61532, Note_off_c, 1, 65, 100
3, 61532, Note_off_c, 1, 58, 100
3, 61536, Note_on_c, 1, 70, 80
3, 61628, Note_off_c, 1, 70, 100
3, 61632, Note_on_c, 1, 68, 80
3, 61724, Note_off_c, 1, 68, 100
3, 61728, Note_on_c, 1, 70, 80
3, 61816, Control_c, 1, 64, 0
3, 61820, Note_off_c, 1, 70, 100
3, 61824, Control_c, 1, 64, 127
3, 61824, Note_on_c, 1, 63, 80
3, 61916, Note_off_c, 1, 63, 100
3, 61920, Note_on_c, 1, 67, 80
3, 62012, Note_off_c, 1, 67, 100
3, 62016, Note_on_c, 1, 66, 80
3, 62108, Note_off_c, 1, 66, 100
3, 62112, Note_on_c, 1, 67, 80
3, 62200, Control_c, 1, 64, 0
3, 62204, Note_off_c, 1, 67, 100
3, 62208, Control_c, 1, 64, 127
3, 62208, Note_on_c, 1, 68, 80
3, 62300, Note_off_c, 1, 68, 100
3, 62304, Note_on_c, 1, 67, 80
3, 62396, Note_off_c, 1, 67, 100
3, 62400, Note_on_c, 1, 65, 80
3, 62492, Note_off_c, 1, 65, 100
3, 62496, Note_on_c, 1, 63, 80
3, 62584, Control_c, 1, 64, 0
3, 62588, Note_off_c, 1, 63, 100
3, 62592, Control_c, 1, 64, 127
3, 62592, Control_c, 1, 64, 127
3, 62592, Note_on_c, 1, 62, 80
3, 62684, Note_off_c, 1, 62, 100
3, 62688, Note_on_c, 1, 67, 80
3, 62780, Note_off_c, 1, 67, 100
3, 62784, Note_on_c, 1, 65, 80
3, 62876, Note_off_c, 1, 65, 100
3, 62880, Note_on_c, 1, 67, 80
3, 62968, Control_c, 1, 64, 0
3, 62968, Control_c, 1, 64, 0
3, 62972, Note_off_c, 1, 67, 100
3, 62976, Control_c, 1, 64, 127
3, 62976, Control_c, 1, 64, 127
3, 62976, Note_on_c, 1, 62, 80
3, 62976, Note_on_c, 1, 55, 80
3, 63068, Note_off_c, 1, 62, 100
3, 63068, Note_off_c, 1, 55, 100
3, 63072, Note_on_c, 1, 67, 80
3, 63164, Note_off_c, 1, 67, 100
3, 63168, Note_on_c, 1, 65, 80
3, 63260, Note_off_c, 1, 65, 100
3, 63264, Note_on_c, 1, 67, 80
3, 63352, Control_c, 1, 64, 0
3, 63352, Control_c, 1, 64, 0
3, 63356, Note_off_c, 1, 67, 100
3, 63360, Control_c, 1, 64, 127
3, 63360, Note_on_c, 1, 60, 80
3, 63452, Note_off_c, 1, 60, 100
3, 63456, Note_on_c, 1, 62, 80
3, 63548, Note_off_c, 1, 62, 100
3, 63552, Note_on_c, 1, 63, 80
3, 63644, Note_off_c, 1, 63, 100
3, 63648, Note_on_c, 1, 62, 80
3, 63736, Control_c, 1, 64, 0
3, 63740, Note_off_c, 1, 62, 100
3, 63744, Control_c, 1, 64, 127
3, 63744, Note_on_c, 1, 60, 80
3, 63836, Note_off_c, 1, 60, 100
3, 63840, Note_on_c, 1, 58, 80
3, 63932, Note_off_c, 1, 58, 100
3, 63936, Note_on_c, 1, 57, 80
3, 64028, Note_off_c, 1, 57, 100
3, 64032, Note_on_c, 1, 55, 80
3, 64120, Control_c, 1, 64, 0
3, 64124, Note_off_c, 1, 55, 100
3, 64128, Control_c, 1, 64, 127
3, 64128, Note_on_c, 1, 54, 80
3, 64220, Note_off_c, 1, 54, 100
3, 64224, Note_on_c, 1, 62, 80
3, 64316, Note_off_c, 1, 62, 100
3, 64320, Note_on_c, 1, 57, 80
3, 64412, Note_off_c, 1, 57, 100
3, 64416, Note_on_c, 1, 62, 80
3, 64504, Control_c, 1, 64, 0
3, 64508, Note_off_c, 1, 62, 100
3, 64512, Control_c, 1, 64, 127
3, 64512, Note_on_c, 1, 60, 80
3, 64604, Note_off_c, 1, 60, 100
3, 64608, Note_on_c, 1, 62, 80
3, 64700, Note_off_c, 1, 62, 100
3, 64704, Note_on_c, 1, 57, 80
3, 64796, Note_off_c, 1, 57, 100
3, 64800, Note_on_c, 1, 62, 80
3, 64888, Control_c, 1, 64, 0
3, 64892, Note_off_c, 1, 62, 100
3, 64896, Control_c, 1, 64, 127
3, 64896, Note_on_c, 1, 58, 80
3, 64988, Note_off_c, 1, 58, 100
3, 64992, Note_on_c, 1, 62, 80
3, 65084, Note_off_c, 1, 62, 100
3, 65088, Note_on_c, 1, 55, 80
3, 65180, Note_off_c, 1, 55, 100
3, 65184, Note_on_c, 1, 62, 80
3, 65272, Control_c, 1, 64, 0
3, 65276, Note_off_c, 1, 62, 100
3, 65280, Control_c, 1, 64, 127
3, 65280, Note_on_c, 1, 54, 80
3, 65372, Note_off_c, 1, 54, 100
3, 65376, Note_on_c, 1, 62, 80
3, 65468, Note_off_c, 1, 62, 100
3, 65472, Note_on_c, 1, 57, 80
3, 65564, Note_off_c, 1, 57, 100
3, 65568, Note_on_c, 1, 62, 80
3, 65656, Control_c, 1, 64, 0
3, 65660, Note_off_c, 1, 62, 100
3, 65664, Control_c, 1, 64, 127
3, 65664, Note_on_c, 1, 55, 80
3, 65760, Note_on_c, 1, 62, 80
3, 65852, Note_off_c, 1, 55, 100
3, 65856, Note_on_c, 1, 58, 80
3, 65948, Note_off_c, 1, 62, 100
3, 65952, Note_on_c, 1, 62, 80
3, 66040, Control_c, 1, 64, 0
3, 66044, Note_off_c, 1, 58, 100
3, 66048, Control_c, 1, 64, 127
3, 66048, Note_on_c, 1, 51, 80
3, 66140, Note_off_c, 1, 62, 100
3, 66144, Note_on_c, 1, 61, 80
3, 66236, Note_off_c, 1, 51, 100
3, 66240, Note_on_c, 1, 55, 80
3, 66332, Note_off_c, 1, 61, 100
3, 66336, Note_on_c, 1, 61, 80
3, 66424, Control_c, 1, 64, 0
3, 66428, Note_off_c, 1, 55, 100
3, 66432, Control_c, 1, 64, 127
3, 66432, Note_on_c, 1, 50, 80
3, 66524, Note_off_c, 1, 61, 100
3, 66524, Note_off_c, 1, 50, 100
3, 66528, Note_on_c, 1, 62, 80
3, 66620, Note_off_c, 1, 62, 100
3, 66624, Note_on_c, 1, 54, 80
3, 66716, Note_off_c, 1, 54, 100
3, 66720, Note_on_c, 1, 62, 80
3, 66808, Control_c, 1, 64, 0
3, 66812, Note_off_c, 1, 62, 100
3, 66816, Control_c, 1, 64, 127
3, 66816, Note_on_c, 1, 57, 80
3, 66908, Note_off_c, 1, 57, 100
3, 66912, Note_on_c, 1, 62, 80
3, 67004, Note_off_c, 1, 62, 100
3, 67008, Note_on_c, 1, 54, 80
3, 67100, Note_off_c, 1, 54, 100
3, 67104, Note_on_c, 1, 62, 80
3, 67192, Control_c, 1, 64, 0
3, 67196, Note_off_c, 1, 62, 100
3, 67200, Control_c, 1, 64, 127
3, 67200, Note_on_c, 1, 50, 80
3, 67292, Note_off_c, 1, 50, 100
3, 67296, Note_on_c, 1, 62, 80
3, 67388, Note_off_c, 1, 62, 100
3, 67392, Note_on_c, 1, 55, 80
3, 67484, Note_off_c, 1, 55, 100
3, 67488, Note_on_c, 1, 62, 80
3, 67576, Control_c, 1, 64, 0
3, 67580, Note_off_c, 1, 62, 100
3, 67584, Control_c, 1, 64, 127
3, 67584, Note_on_c, 1, 58, 80
3, 67676, Note_off_c, 1, 58, 100
3, 67680, Note_on_c, 1, 62, 80
3, 67772, Note_off_c, 1, 62, 100
3, 67776, Note_on_c, 1, 55, 80
3, 67868, Note_off_c, 1, 55, 100
3, 67872, Note_on_c, 1, 62, 80
3, 67960, Control_c, 1, 64, 0
3, 67964, Note_off_c, 1, 62, 100
3, 67968, Control_c, 1, 64, 127
3, 67968, Note_on_c, 1, 50, 80
3, 68060, Note_off_c, 1, 50, 100
3, 68064, Note_on_c, 1, 62, 80
3, 68156, Note_off_c, 1, 62, 100
3, 68160, Note_on_c, 1, 54, 80
3, 68252, Note_off_c, 1, 54, 100
3, 68256, Note_on_c, 1, 62, 80
3, 68344, Control_c, 1, 64, 0
3, 68348, Note_off_c, 1, 62, 100
3, 68352, Control_c, 1, 64, 127
3, 68352, Note_on_c, 1, 57, 80
3, 68444, Note_off_c, 1, 57, 100
3, 68448, Note_on_c, 1, 62, 80
3, 68540, Note_off_c, 1, 62, 100
3, 68544, Note_on_c, 1, 54, 80
3, 68636, Note_off_c, 1, 54, 100
3, 68640, Note_on_c, 1, 62, 80
3, 68728, Control_c, 1, 64, 0
3, 68732, Note_off_c, 1, 62, 100
3, 68736, Control_c, 1, 64, 127
3, 68736, Note_on_c, 1, 50, 80
3, 68828, Note_off_c, 1, 50, 100
3, 68832, Note_on_c, 1, 62, 80
3, 68924, Note_off_c, 1, 62, 100
3, 68928, Note_on_c, 1, 55, 80
3, 69020, Note_off_c, 1, 55, 100
3, 69024, Note_on_c, 1, 62, 80
3, 69112, Control_c, 1, 64, 0
3, 69116, Note_off_c, 1, 62, 100
3, 69120, Control_c, 1, 64, 127
3, 69120, Note_on_c, 1, 58, 80
3, 69212, Note_off_c, 1, 58, 100
3, 69216, Note_on_c, 1, 62, 80
3, 69308, Note_off_c, 1, 62, 100
3, 69312, Note_on_c, 1, 55, 80
3, 69404, Note_off_c, 1, 55, 100
3, 69408, Note_on_c, 1, 62, 80
3, 69496, Control_c, 1, 64, 0
3, 69500, Note_off_c, 1, 62, 100
3, 69504, Control_c, 1, 64, 127
3, 69504, Note_on_c, 1, 50, 80
3, 69596, Note_off_c, 1, 50, 100
3, 69600, Note_on_c, 1, 62, 80
3, 69692, Note_off_c, 1, 62, 100
3, 69696, Note_on_c, 1, 54, 80
3, 69788, Note_off_c, 1, 54, 100
3, 69792, Note_on_c, 1, 62, 80
3, 69880, Control_c, 1, 64, 0
3, 69884, Note_off_c, 1, 62, 100
3, 69888, Control_c, 1, 64, 127
3, 69888, Note_on_c, 1, 50, 80
3, 69980, Note_off_c, 1, 50, 100
3, 69984, Note_on_c, 1, 62, 80
3, 70076, Note_off_c, 1, 62, 100
3, 70080, Note_on_c, 1, 56, 80
3, 70172, Note_off_c, 1, 56, 100
3, 70176, Note_on_c, 1, 62, 80
3, 70264, Control_c, 1, 64, 0
3, 70268, Note_off_c, 1, 62, 100
3, 70272, Control_c, 1, 64, 127
3, 70272, Note_on_c, 1, 50, 80
3, 70364, Note_off_c, 1, 50, 100
3, 70368, Note_on_c, 1, 62, 80
3, 70460, Note_off_c, 1, 62, 100
3, 70464, Note_on_c, 1, 56, 80
3, 70556, Note_off_c, 1, 56, 100
3, 70560, Note_on_c, 1, 62, 80
3, 70648, Control_c, 1, 64, 0
3, 70652, Note_off_c, 1, 62, 100
3, 70656, Control_c, 1, 64, 127
3, 70656, Note_on_c, 1, 57, 80
3, 70748, Note_off_c, 1, 57, 100
3, 70752, Note_on_c, 1, 62, 80
3, 70844, Note_off_c, 1, 62, 100
3, 70848, Note_on_c, 1, 55, 80
3, 70940, Note_off_c, 1, 55, 100
3, 70944, Note_on_c, 1, 62, 80
3, 71032, Control_c, 1, 64, 0
3, 71036, Note_off_c, 1, 62, 100
3, 71040, Control_c, 1, 64, 127
3, 71040, Note_on_c, 1, 50, 80
3, 71132, Note_off_c, 1, 50, 100
3, 71136, Note_on_c, 1, 62, 80
3, 71228, Note_off_c, 1, 62, 100
3, 71232, Note_on_c, 1, 54, 80
3, 71324, Note_off_c, 1, 54, 100
3, 71328, Note_on_c, 1, 62, 80
3, 71416, Control_c, 1, 64, 0
3, 71420, Note_off_c, 1, 62, 100
3, 71424, Control_c, 1, 64, 127
3, 71424, Note_on_c, 1, 50, 80
3, 71516, Note_off_c, 1, 50, 100
3, 71520, Note_on_c, 1, 62, 80
3, 71612, Note_off_c, 1, 62, 100
3, 71616, Note_on_c, 1, 56, 80
3, 71708, Note_off_c, 1, 56, 100
3, 71712, Note_on_c, 1, 62, 80
3, 71800, Control_c, 1, 64, 0
3, 71804, Note_off_c, 1, 62, 100
3, 71808, Control_c, 1, 64, 127
3, 71808, Note_on_c, 1, 50, 80
3, 71900, Note_off_c, 1, 50, 100
3, 71904, Note_on_c, 1, 62, 80
3, 71996, Note_off_c, 1, 62, 100
3, 72000, Note_on_c, 1, 56, 80
3, 72092, Note_off_c, 1, 56, 100
3, 72096, Note_on_c, 1, 62, 80
3, 72184, Control_c, 1, 64, 0
3, 72188, Note_off_c, 1, 62, 100
3, 72192, Control_c, 1, 64, 127
3, 72192, Note_on_c, 1, 57, 80
3, 72284, Note_off_c, 1, 57, 100
3, 72288, Note_on_c, 1, 62, 80
3, 72380, Note_off_c, 1, 62, 100
3, 72384, Note_on_c, 1, 55, 80
3, 72476, Note_off_c, 1, 55, 100
3, 72480, Note_on_c, 1, 62, 80
3, 72568, Control_c, 1, 64, 0
3, 72572, Note_off_c, 1, 62, 100
3, 72576, Control_c, 1, 64, 127
3, 72576, Note_on_c, 1, 50, 80
3, 72668, Note_off_c, 1, 50, 100
3, 72672, Note_on_c, 1, 62, 80
3, 72764, Note_off_c, 1, 62, 100
3, 72768, Note_on_c, 1, 54, 80
3, 72860, Note_off_c, 1, 54, 100
3, 72864, Note_on_c, 1, 62, 80
3, 72952, Control_c, 1, 64, 0
3, 72956, Note_off_c, 1, 62, 100
3, 72960, Control_c, 1, 64, 127
3, 72960, Note_on_c, 1, 50, 80
3, 73052, Note_off_c, 1, 50, 100
3, 73056, Note_on_c, 1, 62, 80
3, 73148, Note_off_c, 1, 62, 100
3, 73152, Note_on_c, 1, 56, 80
3, 73244, Note_off_c, 1, 56, 100
3, 73248, Note_on_c, 1, 62, 80
3, 73336, Control_c, 1, 64, 0
3, 73340, Note_off_c, 1, 62, 100
3, 73344, Note_on_c, 1, 50, 80
3, 73392, Note_on_c, 1, 57, 80
3, 73440, Note_on_c, 1, 62, 80
3, 74108, Note_off_c, 1, 50, 100
3, 74108, Note_off_c, 1, 57, 100
3, 74108, Note_off_c, 1, 62, 100
3, 74304, Note_on_c, 1, 62, 80
3, 74304, Note_on_c, 1, 58, 80
3, 74492, Note_off_c, 1, 62, 100
3, 74492, Note_off_c, 1, 58, 100
3, 74496, Note_on_c, 1, 60, 80
3, 74496, Note_on_c, 1, 57, 80
3, 74684, Note_off_c, 1, 60, 100
3, 74684, Note_off_c, 1, 57, 100
3, 74688, Note_on_c, 1, 58, 80
3, 74688, Note_on_c, 1, 55, 80
3, 74876, Note_off_c, 1, 58, 100
3, 74876, Note_off_c, 1, 55, 100
3, 74880, Note_on_c, 1, 57, 80
3, 74880, Note_on_c, 1, 54, 80
3, 75068, Note_off_c, 1, 57, 100
3, 75068, Note_off_c, 1, 54, 100
3, 75072, Note_on_c, 1, 54, 80
3, 75072, Note_on_c, 1, 50, 80
3, 75260, Note_off_c, 1, 54, 100
3, 75260, Note_off_c, 1, 50, 100
3, 75264, Note_on_c, 1, 55, 80
3, 75264, Note_on_c, 1, 52, 80
3, 75452, Note_off_c, 1, 55, 100
3, 75452, Note_off_c, 1, 52, 100
3, 75456, Note_on_c, 1, 57, 80
3, 75456, Note_on_c, 1, 54, 80
3, 75644, Note_off_c, 1, 57, 100
3, 75644, Note_off_c, 1, 54, 100
3, 75648, Note_on_c, 1, 58, 80
3, 75648, Note_on_c, 1, 55, 80
3, 75836, Note_off_c, 1, 58, 100
3, 75836, Note_off_c, 1, 55, 100
3, 75840, Note_on_c, 1, 62, 80
3, 75840, Note_on_c, 1, 58, 80
3, 76028, Note_off_c, 1, 62, 100
3, 76028, Note_off_c, 1, 58, 100
3, 76032, Note_on_c, 1, 60, 80
3, 76032, Note_on_c, 1, 57, 80
3, 76220, Note_off_c, 1, 60, 100
3, 76220, Note_off_c, 1, 57, 100
3, 76224, Note_on_c, 1, 58, 80
3, 76224, Note_on_c, 1, 55, 80
3, 76412, Note_off_c, 1, 58, 100
3, 76412, Note_off_c, 1, 55, 100
3, 76416, Note_on_c, 1, 48, 80
3, 76604, Note_off_c, 1, 48, 100
3, 76608, Note_on_c, 1, 51, 80
3, 76796, Note_off_c, 1, 51, 100
3, 76800, Note_on_c, 1, 55, 80
3, 76988, Note_off_c, 1, 55, 100
3, 76992, Note_on_c, 1, 60, 80
3, 77180, Note_off_c, 1, 60, 100
3, 77184, Note_on_c, 1, 58, 80
3, 77564, Note_off_c, 1, 58, 100
3, 77760, Note_on_c, 1, 62, 80
3, 77760, Note_on_c, 1, 58, 80
3, 77948, Note_off_c, 1, 62, 100
3, 77948, Note_off_c, 1, 58, 100
3, 77952, Note_on_c, 1, 62, 80
3, 77952, Note_on_c, 1, 54, 80
3, 78332, Note_off_c, 1, 62, 100
3, 78332, Note_off_c, 1, 54, 100
3, 78528, Note_on_c, 1, 62, 80
3, 78528, Note_on_c, 1, 54, 80
3, 78716, Note_off_c, 1, 62, 100
3, 78716, Note_off_c, 1, 54, 100
3, 78720, Note_on_c, 1, 62, 80
3, 78720, Note_on_c, 1, 55, 80
3, 79100, Note_off_c, 1, 62, 100
3, 79100, Note_off_c, 1, 55, 100
3, 79104, Note_on_c, 1, 60, 80
3, 79104, Note_on_c, 1, 48, 80
3, 79484, Note_off_c, 1, 60, 100
3, 79484, Note_off_c, 1, 48, 100
3, 79488, Note_on_c, 1, 58, 80
3, 79488, Note_on_c, 1, 50, 80
3, 79868, Note_off_c, 1, 58, 100
3, 79872, Note_on_c, 1, 57, 80
3, 80060, Note_off_c, 1, 50, 100
3, 80060, Note_off_c, 1, 57, 100
3, 80064, Note_on_c, 1, 62, 80
3, 80252, Note_off_c, 1, 62, 100
3, 80256, Note_on_c, 1, 70, 80
3, 80444, Note_off_c, 1, 70, 100
3, 80448, Note_on_c, 1, 67, 80
3, 80636, Note_off_c, 1, 67, 100
3, 80640, Note_on_c, 1, 66, 80
3, 80828, Note_off_c, 1, 66, 100
3, 80832, Note_on_c, 1, 67, 80
3, 81020, Note_off_c, 1, 67, 100
3, 81024, Note_on_c, 1, 72, 80
3, 81024, Note_on_c, 1, 62, 80
3, 81788, Note_off_c, 1, 72, 100
3, 81788, Note_off_c, 1, 62, 100
3, 81792, Note_on_c, 1, 70, 80
3, 81980, Note_off_c, 1, 70, 100
3, 81984, Note_on_c, 1, 67, 80
3, 82172, Note_off_c, 1, 67, 100
3, 82176, Note_on_c, 1, 66, 80
3, 82364, Note_off_c, 1, 66, 100
3, 82368, Note_on_c, 1, 67, 80
3, 82556, Note_off_c, 1, 67, 100
3, 82560, Note_on_c, 1, 75, 80
3, 82560, Note_on_c, 1, 65, 80
3, 83324, Note_off_c, 1, 75, 100
3, 83324, Note_off_c, 1, 65, 100
3, 83328, Note_on_c, 1, 74, 80
3, 83328, Note_on_c, 1, 70, 80
3, 83516, Note_off_c, 1, 74, 100
3, 83516, Note_off_c, 1, 70, 100
3, 83520, Note_on_c, 1, 70, 83
3, 83708, Note_off_c, 1, 70, 100
3, 83712, Note_on_c, 1, 69, 87
3, 83900, Note_off_c, 1, 69, 100
3, 83904, Note_on_c, 1, 70, 91
3, 84092, Note_off_c, 1, 70, 100
3, 84096, Note_on_c, 1, 66, 95
3, 84284, Note_off_c, 1, 66, 100
3, 84288, Note_on_c, 1, 67, 98
3, 84476, Note_off_c, 1, 67, 100
3, 84480, Note_on_c, 1, 62, 102
3, 84668, Note_off_c, 1, 62, 100
3, 84672, Note_on_c, 1, 63, 106
3, 84860, Note_off_c, 1, 63, 100
3, 84864, Note_on_c, 1, 60, 110
3, 85436, Note_off_c, 1, 60, 100
3, 85440, Note_on_c, 1, 61, 99
3, 85628, Note_off_c, 1, 61, 100
3, 85632, Note_on_c, 1, 62, 80
3, 85820, Note_off_c, 1, 62, 100
3, 86400, Control_c, 1, 64, 127
3, 86400, Note_on_c, 1, 54, 80
3, 86492, Note_off_c, 1, 54, 100
3, 86496, Note_on_c, 1, 62, 80
3, 86588, Note_off_c, 1, 62, 100
3, 86592, Note_on_c, 1, 57, 80
3, 86684, Note_off_c, 1, 57, 100
3, 86688, Note_on_c, 1, 62, 80
3, 86776, Control_c, 1, 64, 0
3, 86780, Note_off_c, 1, 62, 100
3, 86784, Control_c, 1, 64, 127
3, 86784, Note_on_c, 1, 60, 80
3, 86876, Note_off_c, 1, 60, 100
3, 86880, Note_on_c, 1, 62, 80
3, 86972, Note_off_c, 1, 62, 100
3, 86976, Note_on_c, 1, 57, 80
3, 87068, Note_off_c, 1, 57, 100
3, 87072, Note_on_c, 1, 62, 80
3, 87160, Control_c, 1, 64, 0
3, 87164, Note_off_c, 1, 62, 100
3, 87168, Control_c, 1, 64, 127
3, 87168, Note_on_c, 1, 58, 80
3, 87260, Note_off_c, 1, 58, 100
3, 87264, Note_on_c, 1, 62, 80
3, 87356, Note_off_c, 1, 62, 100
3, 87360, Note_on_c, 1, 55, 80
3, 87452, Note_off_c, 1, 55, 100
3, 87456, Note_on_c, 1, 62, 80
3, 87544, Control_c, 1, 64, 0
3, 87548, Note_off_c, 1, 62, 100
3, 87552, Control_c, 1, 64, 127
3, 87552, Note_on_c, 1, 58, 80
3, 87644, Note_off_c, 1, 58, 100
3, 87648, Note_on_c, 1, 62, 80
3, 87740, Note_off_c, 1, 62, 100
3, 87744, Note_on_c, 1, 55, 80
3, 87836, Note_off_c, 1, 55, 100
3, 87840, Note_on_c, 1, 62, 80
3, 87928, Control_c, 1, 64, 0
3, 87932, Note_off_c, 1, 62, 100
3, 87936, Control_c, 1, 64, 127
3, 87936, Note_on_c, 1, 54, 80
3, 88028, Note_off_c, 1, 54, 100
3, 88032, Note_on_c, 1, 62, 80
3, 88124, Note_off_c, 1, 62, 100
3, 88128, Note_on_c, 1, 57, 80
3, 88220, Note_off_c, 1, 57, 100
3, 88224, Note_on_c, 1, 62, 80
3, 88312, Control_c, 1, 64, 0
3, 88316, Note_off_c, 1, 62, 100
3, 88320, Control_c, 1, 64, 127
3, 88320, Note_on_c, 1, 60, 80
3, 88412, Note_off_c, 1, 60, 100
3, 88416, Note_on_c, 1, 62, 80
3, 88508, Note_off_c, 1, 62, 100
3, 88512, Note_on_c, 1, 57, 80
3, 88604, Note_off_c, 1, 57, 100
3, 88608, Note_on_c, 1, 62, 80
3, 88696, Control_c, 1, 64, 0
3, 88700, Note_off_c, 1, 62, 100
3, 88704, Control_c, 1, 64, 127
3, 88704, Note_on_c, 1, 58, 80
3, 88796, Note_off_c, 1, 58, 100
3, 88800, Note_on_c, 1, 62, 80
3, 88892, Note_off_c, 1, 62, 100
3, 88896, Note_on_c, 1, 55, 80
3, 88988, Note_off_c, 1, 55, 100
3, 88992, Note_on_c, 1, 62, 80
3, 89080, Control_c, 1, 64, 0
3, 89084, Note_off_c, 1, 62, 100
3, 89088, Control_c, 1, 64, 127
3, 89088, Note_on_c, 1, 58, 80
3, 89180, Note_off_c, 1, 58, 100
3, 89184, Note_on_c, 1, 62, 80
3, 89276, Note_off_c, 1, 62, 100
3, 89280, Note_on_c, 1, 55, 80
3, 89372, Note_off_c, 1, 55, 100
3, 89376, Note_on_c, 1, 62, 80
3, 89464, Control_c, 1, 64, 0
3, 89468, Note_off_c, 1, 62, 100
3, 89472, Control_c, 1, 64, 127
3, 89472, Note_on_c, 1, 54, 80
3, 89564, Note_off_c, 1, 54, 100
3, 89568, Note_on_c, 1, 62, 80
3, 89660, Note_off_c, 1, 62, 100
3, 89664, Note_on_c, 1, 57, 80
3, 89756, Note_off_c, 1, 57, 100
3, 89760, Note_on_c, 1, 62, 80
3, 89848, Control_c, 1, 64, 0
3, 89852, Note_off_c, 1, 62, 100
3, 89856, Control_c, 1, 64, 127
3, 89856, Note_on_c, 1, 60, 80
3, 89948, Note_off_c, 1, 60, 100
3, 89952, Note_on_c, 1, 62, 80
3, 90044, Note_off_c, 1, 62, 100
3, 90048, Note_on_c, 1, 57, 80
3, 90140, Note_off_c, 1, 57, 100
3, 90144, Note_on_c, 1, 62, 80
3, 90232, Control_c, 1, 64, 0
3, 90236, Note_off_c, 1, 62, 100
3, 90240, Control_c, 1, 64, 127
3, 90240, Note_on_c, 1, 58, 80
3, 90332, Note_off_c, 1, 58, 100
3, 90336, Note_on_c, 1, 62, 80
3, 90428, Note_off_c, 1, 62, 100
3, 90432, Note_on_c, 1, 55, 80
3, 90524, Note_off_c, 1, 55, 100
3, 90528, Note_on_c, 1, 62, 80
3, 90616, Control_c, 1, 64, 0
3, 90620, Note_off_c, 1, 62, 100
3, 90624, Control_c, 1, 64, 127
3, 90624, Note_on_c, 1, 53, 80
3, 90716, Note_off_c, 1, 53, 100
3, 90720, Note_on_c, 1, 62, 80
3, 90812, Note_off_c, 1, 62, 100
3, 90816, Note_on_c, 1, 55, 80
3, 90908, Note_off_c, 1, 55, 100
3, 90912, Note_on_c, 1, 62, 80
3, 91000, Control_c, 1, 64, 0
3, 91004, Note_off_c, 1, 62, 100
3, 91008, Control_c, 1, 64, 127
3, 91008, Note_on_c, 1, 51, 80
3, 91100, Note_off_c, 1, 51, 100
3, 91104, Note_on_c, 1, 60, 80
3, 91196, Note_off_c, 1, 60, 100
3, 91200, Note_on_c, 1, 55, 80
3, 91292, Note_off_c, 1, 55, 100
3, 91296, Note_on_c, 1, 60, 80
3, 91384, Control_c, 1, 64, 0
3, 91388, Note_off_c, 1, 60, 100
3, 91392, Control_c, 1, 64, 127
3, 91392, Note_on_c, 1, 48, 80
3, 91484, Note_off_c, 1, 48, 100
3, 91488, Note_on_c, 1, 55, 80
3, 91580, Note_off_c, 1, 55, 100
3, 91584, Note_on_c, 1, 51, 80
3, 91676, Note_off_c, 1, 51, 100
3, 91680, Note_on_c, 1, 55, 80
3, 91768, Control_c, 1, 64, 0
3, 91772, Note_off_c, 1, 55, 100
3, 91776, Control_c, 1, 64, 127
3, 91776, Note_on_c, 1, 46, 80
3, 91868, Note_off_c, 1, 46, 100
3, 91872, Note_on_c, 1, 55, 80
3, 91964, Note_off_c, 1, 55, 100
3, 91968, Note_on_c, 1, 50, 80
3, 92060, Note_off_c, 1, 50, 100
3, 92064, Note_on_c, 1, 55, 80
3, 92152, Control_c, 1, 64, 0
3, 92156, Note_off_c, 1, 55, 100
3, 92160, Control_c, 1, 64, 127
3, 92160, Note_on_c, 1, 48, 80
3, 92252, Note_off_c, 1, 48, 100
3, 92256, Note_on_c, 1, 57, 80
3, 92348, Note_off_c, 1, 57, 100
3, 92352, Note_on_c, 1, 51, 80
3, 92444, Note_off_c, 1, 51, 100
3, 92448, Note_on_c, 1, 57, 80
3, 92536, Control_c, 1, 64, 0
3, 92540, Note_off_c, 1, 57, 100
3, 92544, Control_c, 1, 64, 127
3, 92544, Note_on_c, 1, 50, 80
3, 92636, Note_off_c, 1, 50, 100
3, 92640, Note_on_c, 1, 58, 80
3, 92732, Note_off_c, 1, 58, 100
3, 92736, Note_on_c, 1, 55, 80
3, 92828, Note_off_c, 1, 55, 100
3, 92832, Note_on_c, 1, 58, 80
3, 92920, Control_c, 1, 64, 0
3, 92924, Note_off_c, 1, 58, 100
3, 92928, Control_c, 1, 64, 127
3, 92928, Note_on_c, 1, 50, 80
3, 93020, Note_off_c, 1, 50, 100
3, 93024, Note_on_c, 1, 60, 80
3, 93116, Note_off_c, 1, 60, 100
3, 93120, Note_on_c, 1, 54, 80
3, 93212, Note_off_c, 1, 54, 100
3, 93216, Note_on_c, 1, 60, 80
3, 93304, Control_c, 1, 64, 0
3, 93308, Note_off_c, 1, 60, 100
3, 93312, Control_c, 1, 64, 127
3, 93312, Note_on_c, 1, 58, 80
3, 93404, Note_off_c, 1, 58, 100
3, 93408, Note_on_c, 1, 62, 80
3, 93500, Note_off_c, 1, 62, 100
3, 93504, Note_on_c, 1, 55, 80
3, 93596, Note_off_c, 1, 55, 100
3, 93600, Note_on_c, 1, 62, 80
3, 93688, Control_c, 1, 64, 0
3, 93692, Note_off_c, 1, 62, 100
3, 93696, Control_c, 1, 64, 127
3, 93696, Note_on_c, 1, 53, 80
3, 93788, Note_off_c, 1, 53, 100
3, 93792, Note_on_c, 1, 62, 80
3, 93884, Note_off_c, 1, 62, 100
3, 93888, Note_on_c, 1, 55, 80
3, 93980, Note_off_c, 1, 55, 100
3, 93984, Note_on_c, 1, 62, 80
3, 94072, Control_c, 1, 64, 0
3, 94076, Note_off_c, 1, 62, 100
3, 94080, Control_c, 1, 64, 127
3, 94080, Note_on_c, 1, 51, 80
3, 94172, Note_off_c, 1, 51, 100
3, 94176, Note_on_c, 1, 60, 83
3, 94268, Note_off_c, 1, 60, 100
3, 94272, Note_on_c, 1, 55, 87
3, 94364, Note_off_c, 1, 55, 100
3, 94368, Note_on_c, 1, 60, 91
3, 94456, Control_c, 1, 64, 0
3, 94460, Note_off_c, 1, 60, 100
3, 94464, Control_c, 1, 64, 127
3, 94464, Note_on_c, 1, 48, 95
3, 94556, Note_off_c, 1, 48, 100
3, 94560, Note_on_c, 1, 55, 98
3, 94652, Note_off_c, 1, 55, 100
3, 94656, Note_on_c, 1, 51, 102
3, 94748, Note_off_c, 1, 51, 100
3, 94752, Note_on_c, 1, 55, 106
3, 94840, Control_c, 1, 64, 0
3, 94844, Note_off_c, 1, 55, 100
3, 94848, Control_c, 1, 64, 127
3, 94848, Note_on_c, 1, 49, 110
3, 94940, Note_off_c, 1, 49, 100
3, 94944, Note_on_c, 1, 58, 110
3, 95036, Note_off_c, 1, 58, 100
3, 95040, Note_on_c, 1, 52, 110
3, 95132, Note_off_c, 1, 52, 100
3, 95136, Note_on_c, 1, 58, 110
3, 95224, Control_c, 1, 64, 0
3, 95228, Note_off_c, 1, 58, 100
3, 95232, Control_c, 1, 64, 127
3, 95232, Note_on_c, 1, 55, 110
3, 95324, Note_off_c, 1, 55, 100
3, 95328, Note_on_c, 1, 58, 110
3, 95420, Note_off_c, 1, 58, 100
3, 95424, Note_on_c, 1, 52, 110
3, 95516, Note_off_c, 1, 52, 100
3, 95520, Note_on_c, 1, 58, 110
3, 95608, Control_c, 1, 64, 0
3, 95612, Note_off_c, 1, 58, 100
3, 95616, Control_c, 1, 64, 127
3, 95616, Note_on_c, 1, 49, 110
3, 95708, Note_off_c, 1, 49, 100
3, 95712, Note_on_c, 1, 58, 110
3, 95804, Note_off_c, 1, 58, 100
3, 95808, Note_on_c, 1, 52, 110
3, 95900, Note_off_c, 1, 52, 100
3, 95904, Note_on_c, 1, 58, 110
3, 95992, Control_c, 1, 64, 0
3, 95996, Note_off_c, 1, 58, 100
3, 96000, Control_c, 1, 64, 127
3, 96000, Note_on_c, 1, 55, 110
3, 96092, Note_off_c, 1, 55, 100
3, 96096, Note_on_c, 1, 58, 110
3, 96188, Note_off_c, 1, 58, 100
3, 96192, Note_on_c, 1, 49, 110
3, 96284, Note_off_c, 1, 49, 100
3, 96288, Note_on_c, 1, 58, 110
3, 96376, Control_c, 1, 64, 0
3, 96380, Note_off_c, 1, 58, 100
3, 96384, Control_c, 1, 64, 127
3, 96384, Note_on_c, 1, 50, 110
3, 96476, Note_off_c, 1, 50, 100
3, 96480, Note_on_c, 1, 62, 110
3, 96572, Note_off_c, 1, 62, 100
3, 96576, Note_on_c, 1, 55, 80
3, 96668, Note_off_c, 1, 55, 100
3, 96672, Note_on_c, 1, 62, 80
3, 96760, Control_c, 1, 64, 0
3, 96764, Note_off_c, 1, 62, 100
3, 96768, Control_c, 1, 64, 127
3, 96768, Note_on_c, 1, 58, 80
3, 96860, Note_off_c, 1, 58, 100
3, 96864, Note_on_c, 1, 62, 80
3, 96956, Note_off_c, 1, 62, 100
3, 96960, Note_on_c, 1, 55, 80
3, 97052, Note_off_c, 1, 55, 100
3, 97056, Note_on_c, 1, 62, 80
3, 97144, Control_c, 1, 64, 0
3, 97148, Note_off_c, 1, 62, 100
3, 97152, Control_c, 1, 64, 127
3, 97152, Note_on_c, 1, 50, 80
3, 97244, Note_off_c, 1, 50, 100
3, 97248, Note_on_c, 1, 62, 80
3, 97340, Note_off_c, 1, 62, 100
3, 97344, Note_on_c, 1, 57, 80
3, 97436, Note_off_c, 1, 57, 100
3, 97440, Note_on_c, 1, 62, 80
3, 97528, Control_c, 1, 64, 0
3, 97532, Note_off_c, 1, 62, 100
3, 97536, Control_c, 1, 64, 127
3, 97536, Note_on_c, 1, 60, 80
3, 97628, Note_off_c, 1, 60, 100
3, 97632, Note_on_c, 1, 62, 80
3, 97724, Note_off_c, 1, 62, 100
3, 97728, Note_on_c, 1, 57, 80
3, 97820, Note_off_c, 1, 57, 100
3, 97824, Note_on_c, 1, 62, 80
3, 97912, Control_c, 1, 64, 0
3, 97916, Note_off_c, 1, 62, 100
3, 97920, Control_c, 1, 64, 127
3, 97920, Note_on_c, 1, 50, 80
3, 98012, Note_off_c, 1, 50, 100
3, 98016, Note_on_c, 1, 62, 80
3, 98108, Note_off_c, 1, 62, 100
3, 98112, Note_on_c, 1, 55, 80
3, 98204, Note_off_c, 1, 55, 100
3, 98208, Note_on_c, 1, 62, 80
3, 98296, Control_c, 1, 64, 0
3, 98300, Note_off_c, 1, 62, 100
3, 98304, Control_c, 1, 64, 127
3, 98304, Note_on_c, 1, 58, 80
3, 98396, Note_off_c, 1, 58, 100
3, 98400, Note_on_c, 1, 62, 80
3, 98492, Note_off_c, 1, 62, 100
3, 98496, Note_on_c, 1, 55, 80
3, 98588, Note_off_c, 1, 55, 100
3, 98592, Note_on_c, 1, 62, 80
3, 98680, Control_c, 1, 64, 0
3, 98684, Note_off_c, 1, 62, 100
3, 98688, Control_c, 1, 64, 127
3, 98688, Note_on_c, 1, 50, 80
3, 98780, Note_off_c, 1, 50, 100
3, 98784, Note_on_c, 1, 62, 80
3, 98876, Note_off_c, 1, 62, 100
3, 98880, Note_on_c, 1, 57, 80
3, 98972, Note_off_c, 1, 57, 100
3, 98976, Note_on_c, 1, 62, 80
3, 99064, Control_c, 1, 64, 0
3, 99068, Note_off_c, 1, 62, 100
3, 99072, Control_c, 1, 64, 127
3, 99072, Note_on_c, 1, 60, 80
3, 99164, Note_off_c, 1, 60, 100
3, 99168, Note_on_c, 1, 62, 80
3, 99260, Note_off_c, 1, 62, 100
3, 99264, Note_on_c, 1, 57, 80
3, 99356, Note_off_c, 1, 57, 100
3, 99360, Note_on_c, 1, 62, 80
3, 99448, Control_c, 1, 64, 0
3, 99452, Note_off_c, 1, 62, 100
3, 99456, Note_on_c, 1, 55, 70
3, 99836, Note_off_c, 1, 55, 100
3, 100032, Note_on_c, 1, 38, 70
3, 100220, Note_off_c, 1, 38, 100
3, 100224, Note_on_c, 1, 48, 90
3, 100412, Note_off_c, 1, 48, 100
3, 100416, Note_on_c, 1, 42, 70
3, 100604, Note_off_c, 1, 42, 100
3, 100608, Note_on_c, 1, 42, 70
3, 100796, Note_off_c, 1, 42, 100
3, 100800, Note_on_c, 1, 42, 70
3, 100988, Note_off_c, 1, 42, 100
3, 100992, Note_on_c, 1, 43, 70
3, 101372, Note_off_c, 1, 43, 100
3, 101568, Note_on_c, 1, 38, 70
3, 101756, Note_off_c, 1, 38, 100
3, 101760, Note_on_c, 1, 48, 90
3, 101948, Note_off_c, 1, 48, 100
3, 101952, Note_on_c, 1, 42, 70
3, 102140, Note_off_c, 1, 42, 100
3, 102144, Note_on_c, 1, 42, 70
3, 102332, Note_off_c, 1, 42, 100
3, 102336, Note_on_c, 1, 42, 70
3, 102524, Note_off_c, 1, 42, 100
3, 102528, Note_on_c, 1, 43, 70
3, 102908, Note_off_c, 1, 43, 100
3, 103104, Note_on_c, 1, 38, 70
3, 103292, Note_off_c, 1, 38, 100
3, 103296, Note_on_c, 1, 48, 90
3, 103484, Note_off_c, 1, 48, 100
3, 103488, Note_on_c, 1, 42, 70
3, 103676, Note_off_c, 1, 42, 100
3, 103680, Note_on_c, 1, 42, 70
3, 103868, Note_off_c, 1, 42, 100
3, 103872, Note_on_c, 1, 42, 70
3, 104060, Note_off_c, 1, 42, 100
3, 104064, Note_on_c, 1, 43, 70
3, 104828, Note_off_c, 1, 43, 100
3, 104832, Note_on_c, 1, 31, 70
3, 105596, Note_off_c, 1, 31, 100
3, 105600, Note_on_c, 1, 43, 70
3, 106364, Note_off_c, 1, 43, 100
3, 106368, Note_on_c, 1, 31, 70
3, 107132, Note_off_c, 1, 31, 100
3, 107136, Note_on_c, 1, 43, 70
3, 107136, Note_on_c, 1, 31, 70
3, 107900, Note_off_c, 1, 43, 100
3, 107900, Note_off_c, 1, 31, 100
3, 107904, Note_on_c, 1, 43, 70
3, 107904, Note_on_c, 1, 31, 70
3, 108668, Note_off_c, 1, 43, 100
3, 108668, Note_off_c, 1, 31, 100
3, 108672, Note_on_c, 1, 43, 70
3, 108672, Note_on_c, 1, 31, 70
3, 109052, Note_off_c, 1, 43, 100
3, 109052, Note_off_c, 1, 31, 100
3, 109056, Note_on_c, 1, 43, 70
3, 109056, Note_on_c, 1, 31, 70
3, 109436, Note_off_c, 1, 43, 100
3, 109436, Note_off_c, 1, 31, 100
3, 109440, Note_on_c, 1, 43, 70
3, 109440, Note_on_c, 1, 31, 70
3, 110204, Note_off_c, 1, 43, 100
3, 110204, Note_off_c, 1, 31, 100
3, 110204, End_track
0, 0, End_of_file
