0, 0, Header, 1, 3, 384
1, 0, Start_track
1, 0, Title_t, "L.v.Beethoven 2mov - Piano Sonata No.19 in g minor Op.49-1\000"
1, 0, Copyright_t, "Copyright(C) 1995-2009, Suzuki Software\000"
1, 0, Sequencer_specific, 9, 67, 123, 0, 88, 70, 48, 50, 0, 1
1, 0, Text_t, "XFhd:2000/07/27:JP:Classical::::L.v.Beethoven:::Kaoru Suzuki\000"
1, 0, Text_t, "XFln:JP:\203s\203A\203m\203\\\203i\203^\221æ19\224Ô\203g\222Z\222²\215ì\225i49-1\201`\221æ2\212y\217Í:L.v.\203x\201[\203g\201[\203\224\203F\203\223:::\227é\202¿\202á\202ñ:\227é\202¿\202á\202ñ\000"
1, 0, Time_signature, 6, 3, 96, 8
1, 0, Sequencer_specific, 3, 0, 0, 65
1, 0, Sequencer_specific, 5, 0, 0, 119, 14, 0
1, 0, Tempo, 400000
1, 13248, Tempo, 500000
1, 14976, Tempo, 400000
1, 19008, Tempo, 444444
1, 20160, Tempo, 400000
1, 36864, Tempo, 422535
1, 37248, Tempo, 444444
1, 37632, Tempo, 461538
1, 37824, Tempo, 500000
1, 38208, Tempo, 400000
1, 55680, Tempo, 428571
1, 56064, Tempo, 461538
1, 56256, Tempo, 500000
1, 57216, Tempo, 444444
1, 63168, Tempo, 400000
1, 66624, Tempo, 444444
1, 71232, Tempo, 400000
1, 91392, Tempo, 461538
1, 94080, Tempo, 400000
1, 105984, Tempo, 444444
1, 106560, Tempo, 500000
1, 108288, Tempo, 400000
1, 120192, Tempo, 421052
1, 120576, Tempo, 461538
1, 121152, Tempo, 428571
1, 121344, Tempo, 400000
1, 138624, Tempo, 428571
1, 139008, Tempo, 461538
1, 144768, Tempo, 428571
1, 145344, Tempo, 400000
1, 170496, Tempo, 413793
1, 171072, Tempo, 428571
1, 171456, Tempo, 600000
1, 174336, Tempo, 413793
1, 191232, Tempo, 428571
1, 191616, Tempo, 461538
1, 192000, Tempo, 545454
1, 192192, Tempo, 888888
1, 192192, End_track
2, 0, Start_track
2, 0, Title_t, "Right"
2, 0, Control_c, 0, 0, 0
2, 0, Program_c, 0, 0
2, 0, Control_c, 0, 7, 100
2, 0, Control_c, 0, 10, 74
2, 0, Control_c, 0, 91, 127
2, 0, Key_signature, 1, "major"
2, 384, Note_on_c, 0, 62, 80
2, 572, Note_off_c, 0, 62, 100
2, 576, Note_on_c, 0, 62, 80
2, 764, Note_off_c, 0, 62, 100
2, 768, Note_on_c, 0, 67, 80
2, 956, Note_off_c, 0, 67, 100
2, 960, Note_on_c, 0, 69, 80
2, 1148, Note_off_c, 0, 69, 100
2, 1152, Note_on_c, 0, 71, 80
2, 1340, Note_off_c, 0, 71, 100
2, 1344, Note_on_c, 0, 67, 80
2, 1532, Note_off_c, 0, 67, 100
2, 1536, Note_on_c, 0, 64, 80
2, 1724, Note_off_c, 0, 64, 100
2, 1728, Note_on_c, 0, 64, 80
2, 1916, Note_off_c, 0, 64, 100
2, 1920, Note_on_c, 0, 69, 80
2, 2108, Note_off_c, 0, 69, 100
2, 2112, Note_on_c, 0, 71, 80
2, 2300, Note_off_c, 0, 71, 100
2, 2304, Note_on_c, 0, 72, 80
2, 2492, Note_off_c, 0, 72, 100
2, 2496, Note_on_c, 0, 69, 80
2, 2684, Note_off_c, 0, 69, 100
2, 2688, Note_on_c, 0, 76, 80
2, 2876, Note_off_c, 0, 76, 100
2, 2880, Note_on_c, 0, 74, 80
2, 3068, Note_off_c, 0, 74, 100
2, 3072, Note_on_c, 0, 72, 80
2, 3260, Note_off_c, 0, 72, 100
2, 3264, Note_on_c, 0, 71, 80
2, 3452, Note_off_c, 0, 71, 100
2, 3456, Note_on_c, 0, 69, 80
2, 3644, Note_off_c, 0, 69, 100
2, 3648, Note_on_c, 0, 67, 80
2, 3836, Note_off_c, 0, 67, 100
2, 3840, Note_on_c, 0, 69, 80
2, 4028, Note_off_c, 0, 69, 100
2, 4032, Note_on_c, 0, 67, 80
2, 4076, Note_off_c, 0, 67, 100
2, 4080, Note_on_c, 0, 69, 80
2, 4124, Note_off_c, 0, 69, 100
2, 4128, Note_on_c, 0, 70, 94
2, 4220, Note_off_c, 0, 70, 100
2, 4224, Note_on_c, 0, 69, 80
2, 4412, Note_off_c, 0, 69, 100
2, 4416, Note_on_c, 0, 67, 80
2, 4604, Note_off_c, 0, 67, 100
2, 4608, Note_on_c, 0, 66, 80
2, 4796, Note_off_c, 0, 66, 100
2, 4800, Note_on_c, 0, 62, 80
2, 4988, Note_off_c, 0, 62, 100
2, 4992, Note_on_c, 0, 62, 80
2, 5180, Note_off_c, 0, 62, 100
2, 5184, Note_on_c, 0, 62, 80
2, 5372, Note_off_c, 0, 62, 100
2, 5376, Note_on_c, 0, 67, 80
2, 5564, Note_off_c, 0, 67, 100
2, 5568, Note_on_c, 0, 69, 80
2, 5756, Note_off_c, 0, 69, 100
2, 5760, Note_on_c, 0, 71, 80
2, 5948, Note_off_c, 0, 71, 100
2, 5952, Note_on_c, 0, 67, 80
2, 6140, Note_off_c, 0, 67, 100
2, 6144, Note_on_c, 0, 64, 80
2, 6332, Note_off_c, 0, 64, 100
2, 6336, Note_on_c, 0, 64, 80
2, 6524, Note_off_c, 0, 64, 100
2, 6528, Note_on_c, 0, 69, 80
2, 6716, Note_off_c, 0, 69, 100
2, 6720, Note_on_c, 0, 71, 80
2, 6908, Note_off_c, 0, 71, 100
2, 6912, Note_on_c, 0, 72, 80
2, 7100, Note_off_c, 0, 72, 100
2, 7104, Note_on_c, 0, 69, 80
2, 7292, Note_off_c, 0, 69, 100
2, 7296, Note_on_c, 0, 76, 80
2, 7484, Note_off_c, 0, 76, 100
2, 7488, Note_on_c, 0, 74, 80
2, 7676, Note_off_c, 0, 74, 100
2, 7680, Note_on_c, 0, 72, 80
2, 7868, Note_off_c, 0, 72, 100
2, 7872, Note_on_c, 0, 71, 80
2, 8060, Note_off_c, 0, 71, 100
2, 8064, Note_on_c, 0, 69, 80
2, 8252, Note_off_c, 0, 69, 100
2, 8256, Note_on_c, 0, 67, 80
2, 8444, Note_off_c, 0, 67, 100
2, 8448, Note_on_c, 0, 69, 80
2, 8636, Note_off_c, 0, 69, 100
2, 8640, Note_on_c, 0, 62, 80
2, 8832, Note_on_c, 0, 67, 80
2, 9020, Note_off_c, 0, 62, 100
2, 9020, Note_off_c, 0, 67, 100
2, 9024, Note_on_c, 0, 66, 80
2, 9024, Note_on_c, 0, 60, 80
2, 9212, Note_off_c, 0, 66, 100
2, 9212, Note_off_c, 0, 60, 100
2, 9216, Note_on_c, 0, 67, 80
2, 9216, Note_on_c, 0, 59, 80
2, 9596, Note_off_c, 0, 67, 100
2, 9596, Note_off_c, 0, 59, 100
2, 9600, Note_on_c, 0, 62, 80
2, 9788, Note_off_c, 0, 62, 100
2, 9792, Note_on_c, 0, 67, 80
2, 9980, Note_off_c, 0, 67, 100
2, 9984, Note_on_c, 0, 71, 80
2, 10172, Note_off_c, 0, 71, 100
2, 10176, Note_on_c, 0, 74, 80
2, 10364, Note_off_c, 0, 74, 100
2, 10368, Note_on_c, 0, 74, 80
2, 10556, Note_off_c, 0, 74, 100
2, 10560, Note_on_c, 0, 72, 80
2, 10560, Note_on_c, 0, 69, 80
2, 10748, Note_off_c, 0, 72, 100
2, 10748, Note_off_c, 0, 69, 100
2, 10752, Note_on_c, 0, 72, 80
2, 10752, Note_on_c, 0, 69, 80
2, 10940, Note_off_c, 0, 72, 100
2, 10940, Note_off_c, 0, 69, 100
2, 10944, Note_on_c, 0, 74, 80
2, 11132, Note_off_c, 0, 74, 100
2, 11136, Note_on_c, 0, 71, 80
2, 11136, Note_on_c, 0, 67, 80
2, 11324, Note_off_c, 0, 71, 100
2, 11324, Note_off_c, 0, 67, 100
2, 11328, Note_on_c, 0, 71, 80
2, 11328, Note_on_c, 0, 67, 80
2, 11516, Note_off_c, 0, 71, 100
2, 11516, Note_off_c, 0, 67, 100
2, 11520, Note_on_c, 0, 74, 80
2, 11708, Note_off_c, 0, 74, 100
2, 11712, Note_on_c, 0, 72, 80
2, 11712, Note_on_c, 0, 69, 80
2, 11900, Note_off_c, 0, 72, 100
2, 11900, Note_off_c, 0, 69, 100
2, 11904, Note_on_c, 0, 72, 80
2, 11904, Note_on_c, 0, 69, 80
2, 12092, Note_off_c, 0, 72, 100
2, 12092, Note_off_c, 0, 69, 100
2, 12096, Note_on_c, 0, 74, 80
2, 12284, Note_off_c, 0, 74, 100
2, 12288, Note_on_c, 0, 71, 82
2, 12288, Note_on_c, 0, 67, 82
2, 12476, Note_off_c, 0, 71, 100
2, 12476, Note_off_c, 0, 67, 100
2, 12480, Note_on_c, 0, 71, 84
2, 12480, Note_on_c, 0, 67, 84
2, 12668, Note_off_c, 0, 71, 100
2, 12668, Note_off_c, 0, 67, 100
2, 12672, Note_on_c, 0, 74, 87
2, 12860, Note_off_c, 0, 74, 100
2, 12864, Note_on_c, 0, 72, 89
2, 12864, Note_on_c, 0, 69, 89
2, 13052, Note_off_c, 0, 72, 100
2, 13052, Note_off_c, 0, 69, 100
2, 13056, Note_on_c, 0, 71, 92
2, 13056, Note_on_c, 0, 67, 92
2, 13244, Note_off_c, 0, 71, 100
2, 13244, Note_off_c, 0, 67, 100
2, 13248, Note_on_c, 0, 74, 94
2, 13436, Note_off_c, 0, 74, 100
2, 13440, Note_on_c, 0, 72, 97
2, 13440, Note_on_c, 0, 69, 97
2, 13628, Note_off_c, 0, 72, 100
2, 13628, Note_off_c, 0, 69, 100
2, 13632, Note_on_c, 0, 71, 99
2, 13632, Note_on_c, 0, 67, 99
2, 13820, Note_off_c, 0, 71, 100
2, 13820, Note_off_c, 0, 67, 100
2, 13824, Note_on_c, 0, 74, 100
2, 13824, Note_on_c, 0, 72, 100
2, 13824, Note_on_c, 0, 69, 100
2, 15356, Note_off_c, 0, 69, 100
2, 15356, Note_off_c, 0, 72, 100
2, 15356, Note_off_c, 0, 74, 100
2, 15360, Note_on_c, 0, 74, 80
2, 15548, Note_off_c, 0, 74, 100
2, 15552, Note_on_c, 0, 74, 80
2, 15740, Note_off_c, 0, 74, 100
2, 15744, Note_on_c, 0, 79, 80
2, 15932, Note_off_c, 0, 79, 100
2, 15936, Note_on_c, 0, 81, 80
2, 16124, Note_off_c, 0, 81, 100
2, 16128, Note_on_c, 0, 83, 80
2, 16316, Note_off_c, 0, 83, 100
2, 16320, Note_on_c, 0, 79, 80
2, 16508, Note_off_c, 0, 79, 100
2, 16512, Note_on_c, 0, 76, 80
2, 16700, Note_off_c, 0, 76, 100
2, 16704, Note_on_c, 0, 76, 80
2, 16892, Note_off_c, 0, 76, 100
2, 16896, Note_on_c, 0, 81, 80
2, 17084, Note_off_c, 0, 81, 100
2, 17088, Note_on_c, 0, 83, 80
2, 17276, Note_off_c, 0, 83, 100
2, 17280, Note_on_c, 0, 84, 80
2, 17468, Note_off_c, 0, 84, 100
2, 17472, Note_on_c, 0, 81, 80
2, 17660, Note_off_c, 0, 81, 100
2, 17664, Note_on_c, 0, 88, 80
2, 17852, Note_off_c, 0, 88, 100
2, 17856, Note_on_c, 0, 86, 80
2, 18044, Note_off_c, 0, 86, 100
2, 18048, Note_on_c, 0, 84, 80
2, 18236, Note_off_c, 0, 84, 100
2, 18240, Note_on_c, 0, 83, 80
2, 18428, Note_off_c, 0, 83, 100
2, 18432, Note_on_c, 0, 83, 80
2, 18476, Note_off_c, 0, 83, 100
2, 18478, Note_on_c, 0, 81, 80
2, 18620, Note_off_c, 0, 81, 100
2, 18624, Note_on_c, 0, 79, 80
2, 18812, Note_off_c, 0, 79, 100
2, 18816, Note_on_c, 0, 81, 80
2, 19004, Note_off_c, 0, 81, 100
2, 19008, Note_on_c, 0, 74, 80
2, 19200, Note_on_c, 0, 79, 80
2, 19388, Note_off_c, 0, 74, 100
2, 19388, Note_off_c, 0, 79, 100
2, 19392, Note_on_c, 0, 78, 80
2, 19392, Note_on_c, 0, 72, 80
2, 19580, Note_off_c, 0, 78, 100
2, 19580, Note_off_c, 0, 72, 100
2, 19584, Note_on_c, 0, 79, 80
2, 19584, Note_on_c, 0, 71, 80
2, 19964, Note_off_c, 0, 79, 100
2, 19964, Note_off_c, 0, 71, 100
2, 19968, Note_on_c, 0, 74, 110
2, 20156, Note_off_c, 0, 74, 100
2, 20160, Note_on_c, 0, 75, 110
2, 20204, Note_off_c, 0, 75, 100
2, 20206, Note_on_c, 0, 74, 110
2, 20348, Note_off_c, 0, 74, 100
2, 20352, Note_on_c, 0, 73, 110
2, 20540, Note_off_c, 0, 73, 100
2, 20544, Note_on_c, 0, 74, 110
2, 20732, Note_off_c, 0, 74, 100
2, 20736, Note_on_c, 0, 75, 110
2, 21116, Note_off_c, 0, 75, 100
2, 21120, Note_on_c, 0, 74, 110
2, 21308, Note_off_c, 0, 74, 100
2, 21312, Note_on_c, 0, 72, 110
2, 21500, Note_off_c, 0, 72, 100
2, 21504, Note_on_c, 0, 70, 110
2, 21692, Note_off_c, 0, 70, 100
2, 21696, Note_on_c, 0, 69, 110
2, 21884, Note_off_c, 0, 69, 100
2, 21888, Note_on_c, 0, 74, 110
2, 22268, Note_off_c, 0, 74, 100
2, 22272, Note_on_c, 0, 72, 110
2, 22460, Note_off_c, 0, 72, 100
2, 22464, Note_on_c, 0, 70, 110
2, 22652, Note_off_c, 0, 70, 100
2, 22656, Note_on_c, 0, 69, 110
2, 22844, Note_off_c, 0, 69, 100
2, 22848, Note_on_c, 0, 67, 110
2, 23036, Note_off_c, 0, 67, 100
2, 23040, Note_on_c, 0, 63, 110
2, 23228, Note_off_c, 0, 63, 100
2, 23232, Note_on_c, 0, 72, 110
2, 23420, Note_off_c, 0, 72, 100
2, 23424, Note_on_c, 0, 70, 110
2, 23612, Note_off_c, 0, 70, 100
2, 23616, Note_on_c, 0, 69, 110
2, 23804, Note_off_c, 0, 69, 100
2, 23808, Note_on_c, 0, 67, 110
2, 23996, Note_off_c, 0, 67, 100
2, 24000, Note_on_c, 0, 66, 110
2, 24188, Note_off_c, 0, 66, 100
2, 24192, Key_signature, -2, "minor"
2, 24192, Note_on_c, 0, 67, 100
2, 24572, Note_off_c, 0, 67, 100
2, 24576, Note_on_c, 0, 86, 80
2, 24764, Note_off_c, 0, 86, 100
2, 24768, Note_on_c, 0, 86, 80
2, 24956, Note_off_c, 0, 86, 100
2, 24960, Note_on_c, 0, 85, 80
2, 25148, Note_off_c, 0, 85, 100
2, 25152, Note_on_c, 0, 86, 80
2, 25340, Note_off_c, 0, 86, 100
2, 25344, Note_on_c, 0, 86, 90
2, 25532, Note_off_c, 0, 86, 100
2, 25536, Note_on_c, 0, 85, 93
2, 25724, Note_off_c, 0, 85, 100
2, 25728, Note_on_c, 0, 86, 96
2, 25916, Note_off_c, 0, 86, 100
2, 25920, Note_on_c, 0, 86, 100
2, 26108, Note_off_c, 0, 86, 100
2, 26112, Note_on_c, 0, 85, 103
2, 26300, Note_off_c, 0, 85, 100
2, 26304, Note_on_c, 0, 86, 106
2, 26492, Note_off_c, 0, 86, 100
2, 26496, Note_on_c, 0, 86, 110
2, 26684, Note_off_c, 0, 86, 100
2, 26688, Note_on_c, 0, 84, 110
2, 26876, Note_off_c, 0, 84, 100
2, 26880, Note_on_c, 0, 82, 110
2, 27068, Note_off_c, 0, 82, 100
2, 27072, Note_on_c, 0, 84, 110
2, 27116, Note_off_c, 0, 84, 100
2, 27118, Note_on_c, 0, 82, 110
2, 27260, Note_off_c, 0, 82, 100
2, 27264, Note_on_c, 0, 81, 110
2, 27452, Note_off_c, 0, 81, 100
2, 27456, Note_on_c, 0, 79, 110
2, 27644, Note_off_c, 0, 79, 100
2, 27648, Note_on_c, 0, 77, 110
2, 27836, Note_off_c, 0, 77, 100
2, 27840, Note_on_c, 0, 79, 110
2, 28028, Note_off_c, 0, 79, 100
2, 28032, Note_on_c, 0, 76, 110
2, 28220, Note_off_c, 0, 76, 100
2, 28224, Note_on_c, 0, 74, 110
2, 28604, Note_off_c, 0, 74, 100
2, 28608, Note_on_c, 0, 74, 110
2, 28796, Note_off_c, 0, 74, 100
2, 28800, Note_on_c, 0, 87, 80
2, 28844, Note_off_c, 0, 87, 100
2, 28846, Note_on_c, 0, 86, 80
2, 28988, Note_off_c, 0, 86, 100
2, 28992, Note_on_c, 0, 85, 80
2, 29180, Note_off_c, 0, 85, 100
2, 29184, Note_on_c, 0, 86, 80
2, 29372, Note_off_c, 0, 86, 100
2, 29376, Note_on_c, 0, 87, 80
2, 29420, Note_off_c, 0, 87, 100
2, 29422, Note_on_c, 0, 86, 80
2, 29564, Note_off_c, 0, 86, 100
2, 29568, Note_on_c, 0, 85, 80
2, 29756, Note_off_c, 0, 85, 100
2, 29760, Note_on_c, 0, 86, 80
2, 29948, Note_off_c, 0, 86, 100
2, 29952, Note_on_c, 0, 87, 80
2, 29996, Note_off_c, 0, 87, 100
2, 29998, Note_on_c, 0, 86, 80
2, 30140, Note_off_c, 0, 86, 100
2, 30144, Note_on_c, 0, 85, 83
2, 30332, Note_off_c, 0, 85, 100
2, 30336, Note_on_c, 0, 86, 87
2, 30524, Note_off_c, 0, 86, 100
2, 30528, Note_on_c, 0, 89, 91
2, 30572, Note_off_c, 0, 89, 100
2, 30574, Note_on_c, 0, 87, 92
2, 30716, Note_off_c, 0, 87, 100
2, 30720, Note_on_c, 0, 86, 95
2, 30908, Note_off_c, 0, 86, 100
2, 30912, Note_on_c, 0, 87, 99
2, 31100, Note_off_c, 0, 87, 100
2, 31104, Note_on_c, 0, 77, 110
2, 31148, Note_off_c, 0, 77, 100
2, 31150, Note_on_c, 0, 89, 110
2, 31866, Note_off_c, 0, 89, 100
2, 31872, Note_on_c, 0, 87, 80
2, 32060, Note_off_c, 0, 87, 100
2, 32064, Note_on_c, 0, 86, 80
2, 32252, Note_off_c, 0, 86, 100
2, 32256, Note_on_c, 0, 86, 80
2, 32256, Note_on_c, 0, 84, 80
2, 32300, Note_off_c, 0, 86, 100
2, 32444, Note_off_c, 0, 84, 100
2, 32448, Note_on_c, 0, 83, 80
2, 32636, Note_off_c, 0, 83, 100
2, 32640, Note_on_c, 0, 84, 80
2, 32828, Note_off_c, 0, 84, 100
2, 32832, Note_on_c, 0, 87, 80
2, 33020, Note_off_c, 0, 87, 100
2, 33024, Note_on_c, 0, 84, 80
2, 33212, Note_off_c, 0, 84, 100
2, 33216, Note_on_c, 0, 81, 80
2, 33404, Note_off_c, 0, 81, 100
2, 33408, Note_on_c, 0, 82, 80
2, 33596, Note_off_c, 0, 82, 100
2, 33600, Note_on_c, 0, 86, 80
2, 33788, Note_off_c, 0, 86, 100
2, 33792, Note_on_c, 0, 89, 110
2, 34172, Note_off_c, 0, 89, 100
2, 34176, Note_on_c, 0, 87, 80
2, 34364, Note_off_c, 0, 87, 100
2, 34368, Note_on_c, 0, 86, 80
2, 34556, Note_off_c, 0, 86, 100
2, 34560, Note_on_c, 0, 86, 80
2, 34560, Note_on_c, 0, 84, 80
2, 34604, Note_off_c, 0, 86, 100
2, 34748, Note_off_c, 0, 84, 100
2, 34752, Note_on_c, 0, 83, 80
2, 34940, Note_off_c, 0, 83, 100
2, 34944, Note_on_c, 0, 84, 80
2, 35132, Note_off_c, 0, 84, 100
2, 35136, Note_on_c, 0, 87, 80
2, 35324, Note_off_c, 0, 87, 100
2, 35328, Note_on_c, 0, 84, 80
2, 35516, Note_off_c, 0, 84, 100
2, 35520, Note_on_c, 0, 81, 80
2, 35708, Note_off_c, 0, 81, 100
2, 35712, Note_on_c, 0, 82, 80
2, 35900, Note_off_c, 0, 82, 100
2, 35904, Note_on_c, 0, 86, 80
2, 36092, Note_off_c, 0, 86, 100
2, 36096, Note_on_c, 0, 84, 80
2, 36284, Note_off_c, 0, 84, 100
2, 36288, Note_on_c, 0, 82, 80
2, 36476, Note_off_c, 0, 82, 100
2, 36480, Note_on_c, 0, 81, 80
2, 36668, Note_off_c, 0, 81, 100
2, 36672, Note_on_c, 0, 79, 80
2, 36860, Note_off_c, 0, 79, 100
2, 36864, Note_on_c, 0, 77, 80
2, 37052, Note_off_c, 0, 77, 100
2, 37056, Note_on_c, 0, 76, 80
2, 37244, Note_off_c, 0, 76, 100
2, 37248, Note_on_c, 0, 77, 80
2, 37436, Note_off_c, 0, 77, 100
2, 37440, Note_on_c, 0, 78, 80
2, 37628, Note_off_c, 0, 78, 100
2, 37632, Note_on_c, 0, 79, 80
2, 37820, Note_off_c, 0, 79, 100
2, 37824, Note_on_c, 0, 75, 80
2, 38012, Note_off_c, 0, 75, 100
2, 38016, Note_on_c, 0, 74, 80
2, 38588, Note_off_c, 0, 74, 100
2, 38592, Note_on_c, 0, 75, 80
2, 38636, Note_off_c, 0, 75, 100
2, 38636, Note_on_c, 0, 74, 80
2, 38778, Note_off_c, 0, 74, 100
2, 38784, Note_on_c, 0, 72, 80
2, 38972, Note_off_c, 0, 72, 100
2, 38976, Note_on_c, 0, 74, 80
2, 39164, Note_off_c, 0, 74, 100
2, 39168, Note_on_c, 0, 75, 80
2, 39740, Note_off_c, 0, 75, 100
2, 39744, Note_on_c, 0, 74, 80
2, 39788, Note_off_c, 0, 74, 100
2, 39790, Note_on_c, 0, 72, 80
2, 39932, Note_off_c, 0, 72, 100
2, 39936, Note_on_c, 0, 71, 80
2, 40124, Note_off_c, 0, 71, 100
2, 40128, Note_on_c, 0, 72, 80
2, 40316, Note_off_c, 0, 72, 100
2, 40320, Note_on_c, 0, 77, 80
2, 41084, Note_off_c, 0, 77, 100
2, 41088, Note_on_c, 0, 75, 80
2, 41276, Note_off_c, 0, 75, 100
2, 41280, Note_on_c, 0, 74, 80
2, 41468, Note_off_c, 0, 74, 100
2, 41472, Note_on_c, 0, 72, 80
2, 41660, Note_off_c, 0, 72, 100
2, 41664, Note_on_c, 0, 74, 80
2, 41852, Note_off_c, 0, 74, 100
2, 41856, Note_on_c, 0, 70, 80
2, 42044, Note_off_c, 0, 70, 100
2, 42048, Note_on_c, 0, 69, 80
2, 42236, Note_off_c, 0, 69, 100
2, 42240, Note_on_c, 0, 70, 80
2, 42428, Note_off_c, 0, 70, 100
2, 42432, Note_on_c, 0, 67, 80
2, 42620, Note_off_c, 0, 67, 100
2, 42624, Note_on_c, 0, 65, 80
2, 43388, Note_off_c, 0, 65, 100
2, 43392, Note_on_c, 0, 67, 80
2, 43580, Note_off_c, 0, 67, 100
2, 43584, Note_on_c, 0, 69, 80
2, 43772, Note_off_c, 0, 69, 100
2, 43776, Note_on_c, 0, 72, 80
2, 43820, Note_off_c, 0, 72, 100
2, 43822, Note_on_c, 0, 70, 80
2, 43964, Note_off_c, 0, 70, 100
2, 43968, Note_on_c, 0, 69, 80
2, 44156, Note_off_c, 0, 69, 100
2, 44160, Note_on_c, 0, 70, 80
2, 44348, Note_off_c, 0, 70, 100
2, 44352, Note_on_c, 0, 65, 80
2, 44540, Note_off_c, 0, 65, 100
2, 44544, Note_on_c, 0, 69, 80
2, 44732, Note_off_c, 0, 69, 100
2, 44736, Note_on_c, 0, 70, 80
2, 44924, Note_off_c, 0, 70, 100
2, 44928, Note_on_c, 0, 74, 80
2, 44972, Note_off_c, 0, 74, 100
2, 44974, Note_on_c, 0, 72, 80
2, 45116, Note_off_c, 0, 72, 100
2, 45120, Note_on_c, 0, 71, 80
2, 45308, Note_off_c, 0, 71, 100
2, 45312, Note_on_c, 0, 72, 80
2, 45500, Note_off_c, 0, 72, 100
2, 45504, Note_on_c, 0, 65, 80
2, 45692, Note_off_c, 0, 65, 100
2, 45696, Note_on_c, 0, 70, 80
2, 45884, Note_off_c, 0, 70, 100
2, 45888, Note_on_c, 0, 72, 80
2, 46076, Note_off_c, 0, 72, 100
2, 46080, Note_on_c, 0, 75, 80
2, 46124, Note_off_c, 0, 75, 100
2, 46126, Note_on_c, 0, 74, 80
2, 46268, Note_off_c, 0, 74, 100
2, 46272, Note_on_c, 0, 72, 80
2, 46460, Note_off_c, 0, 72, 100
2, 46464, Note_on_c, 0, 74, 80
2, 46652, Note_off_c, 0, 74, 100
2, 46656, Note_on_c, 0, 75, 80
2, 46844, Note_off_c, 0, 75, 100
2, 46848, Note_on_c, 0, 77, 80
2, 47036, Note_off_c, 0, 77, 100
2, 47040, Note_on_c, 0, 79, 80
2, 47228, Note_off_c, 0, 79, 100
2, 47232, Note_on_c, 0, 72, 80
2, 47804, Note_off_c, 0, 72, 100
2, 47808, Note_on_c, 0, 75, 80
2, 47852, Note_off_c, 0, 75, 100
2, 47852, Note_on_c, 0, 74, 80
2, 47994, Note_off_c, 0, 74, 100
2, 48000, Note_on_c, 0, 72, 80
2, 48188, Note_off_c, 0, 72, 100
2, 48192, Note_on_c, 0, 74, 80
2, 48380, Note_off_c, 0, 74, 100
2, 48384, Note_on_c, 0, 75, 80
2, 48956, Note_off_c, 0, 75, 100
2, 48960, Note_on_c, 0, 74, 80
2, 49004, Note_off_c, 0, 74, 100
2, 49006, Note_on_c, 0, 72, 80
2, 49148, Note_off_c, 0, 72, 100
2, 49152, Note_on_c, 0, 71, 80
2, 49340, Note_off_c, 0, 71, 100
2, 49344, Note_on_c, 0, 72, 80
2, 49532, Note_off_c, 0, 72, 100
2, 49536, Note_on_c, 0, 77, 80
2, 50300, Note_off_c, 0, 77, 100
2, 50304, Note_on_c, 0, 75, 80
2, 50492, Note_off_c, 0, 75, 100
2, 50496, Note_on_c, 0, 74, 80
2, 50684, Note_off_c, 0, 74, 100
2, 50688, Note_on_c, 0, 72, 80
2, 50876, Note_off_c, 0, 72, 100
2, 50880, Note_on_c, 0, 74, 80
2, 51068, Note_off_c, 0, 74, 100
2, 51072, Note_on_c, 0, 70, 80
2, 51260, Note_off_c, 0, 70, 100
2, 51264, Note_on_c, 0, 69, 80
2, 51452, Note_off_c, 0, 69, 100
2, 51456, Note_on_c, 0, 70, 80
2, 51644, Note_off_c, 0, 70, 100
2, 51648, Note_on_c, 0, 67, 80
2, 51836, Note_off_c, 0, 67, 100
2, 51840, Note_on_c, 0, 65, 80
2, 52604, Note_off_c, 0, 65, 100
2, 52608, Note_on_c, 0, 67, 80
2, 52796, Note_off_c, 0, 67, 100
2, 52800, Note_on_c, 0, 69, 80
2, 52988, Note_off_c, 0, 69, 100
2, 52992, Note_on_c, 0, 72, 80
2, 53036, Note_off_c, 0, 72, 100
2, 53038, Note_on_c, 0, 70, 80
2, 53180, Note_off_c, 0, 70, 100
2, 53184, Note_on_c, 0, 69, 80
2, 53372, Note_off_c, 0, 69, 100
2, 53376, Note_on_c, 0, 70, 80
2, 53564, Note_off_c, 0, 70, 100
2, 53568, Note_on_c, 0, 65, 80
2, 53756, Note_off_c, 0, 65, 100
2, 53760, Note_on_c, 0, 69, 80
2, 53948, Note_off_c, 0, 69, 100
2, 53952, Note_on_c, 0, 70, 80
2, 54140, Note_off_c, 0, 70, 100
2, 54144, Note_on_c, 0, 74, 80
2, 54188, Note_off_c, 0, 74, 100
2, 54190, Note_on_c, 0, 72, 80
2, 54332, Note_off_c, 0, 72, 100
2, 54336, Note_on_c, 0, 71, 80
2, 54524, Note_off_c, 0, 71, 100
2, 54528, Note_on_c, 0, 72, 80
2, 54716, Note_off_c, 0, 72, 100
2, 54720, Note_on_c, 0, 75, 80
2, 54764, Note_off_c, 0, 75, 100
2, 54766, Note_on_c, 0, 74, 80
2, 54908, Note_off_c, 0, 74, 100
2, 54912, Note_on_c, 0, 72, 80
2, 55100, Note_off_c, 0, 72, 100
2, 55104, Note_on_c, 0, 74, 80
2, 55292, Note_off_c, 0, 74, 100
2, 55296, Note_on_c, 0, 75, 80
2, 55484, Note_off_c, 0, 75, 100
2, 55488, Note_on_c, 0, 77, 80
2, 55676, Note_off_c, 0, 77, 100
2, 55680, Note_on_c, 0, 79, 80
2, 55868, Note_off_c, 0, 79, 100
2, 55872, Note_on_c, 0, 70, 80
2, 56252, Note_off_c, 0, 70, 100
2, 56256, Note_on_c, 0, 74, 80
2, 56348, Note_off_c, 0, 74, 100
2, 56352, Note_on_c, 0, 72, 80
2, 56444, Note_off_c, 0, 72, 100
2, 56448, Note_on_c, 0, 70, 80
2, 56828, Note_off_c, 0, 70, 100
2, 57024, Note_on_c, 0, 72, 80
2, 57068, Note_off_c, 0, 72, 100
2, 57070, Note_on_c, 0, 70, 80
2, 57212, Note_off_c, 0, 70, 100
2, 57216, Note_on_c, 0, 69, 80
2, 57404, Note_off_c, 0, 69, 100
2, 57408, Note_on_c, 0, 70, 80
2, 57596, Note_off_c, 0, 70, 100
2, 57600, Note_on_c, 0, 77, 80
2, 57600, Note_on_c, 0, 70, 80
2, 57980, Note_off_c, 0, 77, 100
2, 57984, Note_on_c, 0, 77, 80
2, 58172, Note_off_c, 0, 70, 100
2, 58172, Note_off_c, 0, 77, 100
2, 58176, Note_on_c, 0, 77, 80
2, 58176, Note_on_c, 0, 71, 80
2, 58556, Note_off_c, 0, 77, 100
2, 58560, Note_on_c, 0, 77, 80
2, 58748, Note_off_c, 0, 71, 100
2, 58748, Note_off_c, 0, 77, 100
2, 58752, Note_on_c, 0, 77, 80
2, 58752, Note_on_c, 0, 72, 80
2, 59132, Note_off_c, 0, 77, 100
2, 59136, Note_on_c, 0, 76, 80
2, 59324, Note_off_c, 0, 72, 100
2, 59324, Note_off_c, 0, 76, 100
2, 59328, Note_on_c, 0, 74, 80
2, 59372, Note_off_c, 0, 74, 100
2, 59374, Note_on_c, 0, 72, 80
2, 59516, Note_off_c, 0, 72, 100
2, 59520, Note_on_c, 0, 71, 80
2, 59708, Note_off_c, 0, 71, 100
2, 59712, Note_on_c, 0, 72, 80
2, 59900, Note_off_c, 0, 72, 100
2, 59904, Note_on_c, 0, 75, 80
2, 59904, Note_on_c, 0, 72, 80
2, 60284, Note_off_c, 0, 75, 100
2, 60288, Note_on_c, 0, 75, 80
2, 60476, Note_off_c, 0, 72, 100
2, 60476, Note_off_c, 0, 75, 100
2, 60480, Note_on_c, 0, 75, 80
2, 60480, Note_on_c, 0, 72, 80
2, 60860, Note_off_c, 0, 75, 100
2, 60864, Note_on_c, 0, 75, 80
2, 61052, Note_off_c, 0, 72, 100
2, 61052, Note_off_c, 0, 75, 100
2, 61056, Note_on_c, 0, 75, 80
2, 61056, Note_on_c, 0, 70, 80
2, 61436, Note_off_c, 0, 75, 100
2, 61440, Note_on_c, 0, 74, 80
2, 61628, Note_off_c, 0, 70, 100
2, 61628, Note_off_c, 0, 74, 100
2, 61632, Note_on_c, 0, 75, 80
2, 61676, Note_off_c, 0, 75, 100
2, 61678, Note_on_c, 0, 74, 80
2, 61820, Note_off_c, 0, 74, 100
2, 61824, Note_on_c, 0, 72, 80
2, 62012, Note_off_c, 0, 72, 100
2, 62016, Note_on_c, 0, 74, 80
2, 62204, Note_off_c, 0, 74, 100
2, 62208, Note_on_c, 0, 75, 80
2, 62780, Note_off_c, 0, 75, 100
2, 62784, Note_on_c, 0, 74, 80
2, 62828, Note_off_c, 0, 74, 100
2, 62830, Note_on_c, 0, 72, 80
2, 62972, Note_off_c, 0, 72, 100
2, 62976, Note_on_c, 0, 71, 80
2, 63164, Note_off_c, 0, 71, 100
2, 63168, Note_on_c, 0, 72, 80
2, 63356, Note_off_c, 0, 72, 100
2, 63360, Note_on_c, 0, 77, 80
2, 64124, Note_off_c, 0, 77, 100
2, 64128, Note_on_c, 0, 78, 80
2, 64316, Note_off_c, 0, 78, 100
2, 64320, Note_on_c, 0, 79, 80
2, 64508, Note_off_c, 0, 79, 100
2, 64512, Note_on_c, 0, 70, 80
2, 64892, Note_off_c, 0, 70, 100
2, 64896, Note_on_c, 0, 72, 80
2, 64940, Note_off_c, 0, 72, 100
2, 64944, Note_on_c, 0, 70, 80
2, 64988, Note_off_c, 0, 70, 100
2, 64992, Note_on_c, 0, 69, 80
2, 65036, Note_off_c, 0, 69, 100
2, 65040, Note_on_c, 0, 70, 80
2, 65084, Note_off_c, 0, 70, 100
2, 65088, Note_on_c, 0, 74, 80
2, 65468, Note_off_c, 0, 74, 100
2, 65472, Note_on_c, 0, 72, 80
2, 65660, Note_off_c, 0, 72, 100
2, 65664, Note_on_c, 0, 70, 80
2, 66044, Note_off_c, 0, 70, 100
2, 66240, Note_on_c, 0, 72, 80
2, 66284, Note_off_c, 0, 72, 100
2, 66286, Note_on_c, 0, 70, 80
2, 66428, Note_off_c, 0, 70, 100
2, 66432, Note_on_c, 0, 69, 80
2, 66620, Note_off_c, 0, 69, 100
2, 66624, Note_on_c, 0, 70, 80
2, 66812, Note_off_c, 0, 70, 100
2, 66816, Note_on_c, 0, 77, 80
2, 66816, Note_on_c, 0, 70, 80
2, 67196, Note_off_c, 0, 77, 100
2, 67200, Note_on_c, 0, 77, 80
2, 67388, Note_off_c, 0, 70, 100
2, 67388, Note_off_c, 0, 77, 100
2, 67392, Note_on_c, 0, 77, 80
2, 67392, Note_on_c, 0, 71, 80
2, 67772, Note_off_c, 0, 77, 100
2, 67776, Note_on_c, 0, 77, 80
2, 67964, Note_off_c, 0, 71, 100
2, 67964, Note_off_c, 0, 77, 100
2, 67968, Note_on_c, 0, 77, 80
2, 67968, Note_on_c, 0, 72, 80
2, 68348, Note_off_c, 0, 77, 100
2, 68352, Note_on_c, 0, 76, 80
2, 68540, Note_off_c, 0, 72, 100
2, 68540, Note_off_c, 0, 76, 100
2, 68544, Note_on_c, 0, 74, 80
2, 68588, Note_off_c, 0, 74, 100
2, 68590, Note_on_c, 0, 72, 80
2, 68732, Note_off_c, 0, 72, 100
2, 68736, Note_on_c, 0, 71, 80
2, 68924, Note_off_c, 0, 71, 100
2, 68928, Note_on_c, 0, 72, 80
2, 69116, Note_off_c, 0, 72, 100
2, 69120, Note_on_c, 0, 75, 80
2, 69120, Note_on_c, 0, 72, 80
2, 69500, Note_off_c, 0, 75, 100
2, 69504, Note_on_c, 0, 75, 80
2, 69692, Note_off_c, 0, 72, 100
2, 69692, Note_off_c, 0, 75, 100
2, 69696, Note_on_c, 0, 75, 80
2, 69696, Note_on_c, 0, 72, 80
2, 70076, Note_off_c, 0, 75, 100
2, 70080, Note_on_c, 0, 75, 80
2, 70268, Note_off_c, 0, 72, 100
2, 70268, Note_off_c, 0, 75, 100
2, 70272, Note_on_c, 0, 75, 80
2, 70272, Note_on_c, 0, 70, 80
2, 70652, Note_off_c, 0, 75, 100
2, 70656, Note_on_c, 0, 74, 80
2, 70844, Note_off_c, 0, 70, 100
2, 70844, Note_off_c, 0, 74, 100
2, 70848, Note_on_c, 0, 75, 80
2, 70892, Note_off_c, 0, 75, 100
2, 70894, Note_on_c, 0, 74, 80
2, 71036, Note_off_c, 0, 74, 100
2, 71040, Note_on_c, 0, 72, 80
2, 71228, Note_off_c, 0, 72, 100
2, 71232, Note_on_c, 0, 74, 80
2, 71420, Note_off_c, 0, 74, 100
2, 71424, Note_on_c, 0, 75, 80
2, 71996, Note_off_c, 0, 75, 100
2, 72000, Note_on_c, 0, 74, 80
2, 72044, Note_off_c, 0, 74, 100
2, 72046, Note_on_c, 0, 72, 80
2, 72188, Note_off_c, 0, 72, 100
2, 72192, Note_on_c, 0, 71, 80
2, 72380, Note_off_c, 0, 71, 100
2, 72384, Note_on_c, 0, 72, 80
2, 72572, Note_off_c, 0, 72, 100
2, 72576, Note_on_c, 0, 77, 80
2, 73340, Note_off_c, 0, 77, 100
2, 73344, Note_on_c, 0, 78, 80
2, 73532, Note_off_c, 0, 78, 100
2, 73536, Note_on_c, 0, 79, 80
2, 73724, Note_off_c, 0, 79, 100
2, 73728, Note_on_c, 0, 70, 80
2, 74108, Note_off_c, 0, 70, 100
2, 74112, Note_on_c, 0, 72, 80
2, 74156, Note_off_c, 0, 72, 100
2, 74160, Note_on_c, 0, 70, 80
2, 74204, Note_off_c, 0, 70, 100
2, 74208, Note_on_c, 0, 69, 80
2, 74252, Note_off_c, 0, 69, 100
2, 74256, Note_on_c, 0, 70, 80
2, 74300, Note_off_c, 0, 70, 100
2, 74304, Note_on_c, 0, 74, 80
2, 74684, Note_off_c, 0, 74, 100
2, 74688, Note_on_c, 0, 72, 80
2, 74876, Note_off_c, 0, 72, 100
2, 74880, Note_on_c, 0, 70, 80
2, 75260, Note_off_c, 0, 70, 100
2, 75264, Note_on_c, 0, 74, 110
2, 75452, Note_off_c, 0, 74, 100
2, 75456, Note_on_c, 0, 75, 110
2, 75500, Note_off_c, 0, 75, 100
2, 75502, Note_on_c, 0, 74, 110
2, 75644, Note_off_c, 0, 74, 100
2, 75648, Note_on_c, 0, 73, 110
2, 75836, Note_off_c, 0, 73, 100
2, 75840, Note_on_c, 0, 74, 110
2, 76028, Note_off_c, 0, 74, 100
2, 76032, Note_on_c, 0, 75, 110
2, 76412, Note_off_c, 0, 75, 100
2, 76416, Note_on_c, 0, 74, 110
2, 76604, Note_off_c, 0, 74, 100
2, 76608, Note_on_c, 0, 72, 110
2, 76796, Note_off_c, 0, 72, 100
2, 76800, Note_on_c, 0, 70, 110
2, 76988, Note_off_c, 0, 70, 100
2, 76992, Note_on_c, 0, 69, 110
2, 77180, Note_off_c, 0, 69, 100
2, 77184, Note_on_c, 0, 74, 110
2, 77564, Note_off_c, 0, 74, 100
2, 77568, Note_on_c, 0, 72, 110
2, 77756, Note_off_c, 0, 72, 100
2, 77760, Note_on_c, 0, 70, 110
2, 77948, Note_off_c, 0, 70, 100
2, 77952, Note_on_c, 0, 69, 110
2, 78140, Note_off_c, 0, 69, 100
2, 78144, Note_on_c, 0, 67, 110
2, 78332, Note_off_c, 0, 67, 100
2, 78336, Note_on_c, 0, 63, 110
2, 78524, Note_off_c, 0, 63, 100
2, 78528, Note_on_c, 0, 72, 110
2, 78716, Note_off_c, 0, 72, 100
2, 78720, Note_on_c, 0, 70, 110
2, 78908, Note_off_c, 0, 70, 100
2, 78912, Note_on_c, 0, 69, 110
2, 79100, Note_off_c, 0, 69, 100
2, 79104, Note_on_c, 0, 67, 110
2, 79292, Note_off_c, 0, 67, 100
2, 79296, Note_on_c, 0, 66, 110
2, 79484, Note_off_c, 0, 66, 100
2, 79488, Note_on_c, 0, 67, 110
2, 79868, Note_off_c, 0, 67, 100
2, 79872, Note_on_c, 0, 86, 80
2, 80060, Note_off_c, 0, 86, 100
2, 80064, Note_on_c, 0, 86, 82
2, 80252, Note_off_c, 0, 86, 100
2, 80256, Note_on_c, 0, 85, 84
2, 80444, Note_off_c, 0, 85, 100
2, 80448, Note_on_c, 0, 86, 86
2, 80636, Note_off_c, 0, 86, 100
2, 80640, Note_on_c, 0, 86, 88
2, 80828, Note_off_c, 0, 86, 100
2, 80832, Note_on_c, 0, 85, 90
2, 81020, Note_off_c, 0, 85, 100
2, 81024, Note_on_c, 0, 86, 92
2, 81212, Note_off_c, 0, 86, 100
2, 81216, Note_on_c, 0, 86, 94
2, 81404, Note_off_c, 0, 86, 100
2, 81408, Note_on_c, 0, 85, 96
2, 81596, Note_off_c, 0, 85, 100
2, 81600, Note_on_c, 0, 86, 98
2, 81788, Note_off_c, 0, 86, 100
2, 81792, Note_on_c, 0, 86, 100
2, 81980, Note_off_c, 0, 86, 100
2, 81984, Note_on_c, 0, 84, 100
2, 82172, Note_off_c, 0, 84, 100
2, 82176, Note_on_c, 0, 82, 100
2, 82364, Note_off_c, 0, 82, 100
2, 82368, Note_on_c, 0, 84, 100
2, 82412, Note_off_c, 0, 84, 100
2, 82414, Note_on_c, 0, 82, 100
2, 82556, Note_off_c, 0, 82, 100
2, 82560, Note_on_c, 0, 81, 100
2, 82748, Note_off_c, 0, 81, 100
2, 82752, Note_on_c, 0, 79, 100
2, 82940, Note_off_c, 0, 79, 100
2, 82944, Note_on_c, 0, 77, 100
2, 83132, Note_off_c, 0, 77, 100
2, 83136, Note_on_c, 0, 79, 100
2, 83324, Note_off_c, 0, 79, 100
2, 83328, Note_on_c, 0, 76, 100
2, 83516, Note_off_c, 0, 76, 100
2, 83520, Note_on_c, 0, 74, 100
2, 83900, Note_off_c, 0, 74, 100
2, 83904, Note_on_c, 0, 74, 100
2, 84092, Note_off_c, 0, 74, 100
2, 84096, Note_on_c, 0, 87, 80
2, 84140, Note_off_c, 0, 87, 100
2, 84142, Note_on_c, 0, 86, 80
2, 84284, Note_off_c, 0, 86, 100
2, 84288, Note_on_c, 0, 85, 80
2, 84476, Note_off_c, 0, 85, 100
2, 84480, Note_on_c, 0, 86, 80
2, 84668, Note_off_c, 0, 86, 100
2, 84672, Note_on_c, 0, 87, 80
2, 84716, Note_off_c, 0, 87, 100
2, 84718, Note_on_c, 0, 86, 80
2, 84860, Note_off_c, 0, 86, 100
2, 84864, Note_on_c, 0, 85, 80
2, 85052, Note_off_c, 0, 85, 100
2, 85056, Note_on_c, 0, 86, 80
2, 85244, Note_off_c, 0, 86, 100
2, 85248, Note_on_c, 0, 87, 80
2, 85292, Note_off_c, 0, 87, 100
2, 85294, Note_on_c, 0, 86, 80
2, 85436, Note_off_c, 0, 86, 100
2, 85440, Note_on_c, 0, 85, 82
2, 85628, Note_off_c, 0, 85, 100
2, 85632, Note_on_c, 0, 86, 85
2, 85820, Note_off_c, 0, 86, 100
2, 85824, Note_on_c, 0, 89, 87
2, 85868, Note_off_c, 0, 89, 100
2, 85870, Note_on_c, 0, 87, 88
2, 86012, Note_off_c, 0, 87, 100
2, 86016, Note_on_c, 0, 86, 90
2, 86204, Note_off_c, 0, 86, 100
2, 86208, Note_on_c, 0, 87, 92
2, 86396, Note_off_c, 0, 87, 100
2, 86400, Note_on_c, 0, 77, 110
2, 86444, Note_off_c, 0, 77, 100
2, 86446, Note_on_c, 0, 89, 110
2, 87162, Note_off_c, 0, 89, 100
2, 87168, Note_on_c, 0, 87, 80
2, 87356, Note_off_c, 0, 87, 100
2, 87360, Note_on_c, 0, 86, 80
2, 87548, Note_off_c, 0, 86, 100
2, 87552, Note_on_c, 0, 75, 110
2, 87596, Note_off_c, 0, 75, 100
2, 87598, Note_on_c, 0, 87, 110
2, 88316, Note_off_c, 0, 87, 100
2, 88320, Note_on_c, 0, 86, 80
2, 88508, Note_off_c, 0, 86, 100
2, 88512, Note_on_c, 0, 84, 80
2, 88700, Note_off_c, 0, 84, 100
2, 88704, Note_on_c, 0, 74, 110
2, 88748, Note_off_c, 0, 74, 100
2, 88750, Note_on_c, 0, 86, 110
2, 89468, Note_off_c, 0, 86, 100
2, 89472, Note_on_c, 0, 84, 80
2, 89660, Note_off_c, 0, 84, 100
2, 89664, Note_on_c, 0, 82, 80
2, 89852, Note_off_c, 0, 82, 100
2, 89856, Note_on_c, 0, 81, 100
2, 90044, Note_off_c, 0, 81, 100
2, 90048, Note_on_c, 0, 82, 100
2, 90236, Note_off_c, 0, 82, 100
2, 90240, Note_on_c, 0, 84, 100
2, 90428, Note_off_c, 0, 84, 100
2, 90432, Note_on_c, 0, 78, 100
2, 90620, Note_off_c, 0, 78, 100
2, 90624, Note_on_c, 0, 79, 100
2, 90812, Note_off_c, 0, 79, 100
2, 90816, Note_on_c, 0, 81, 100
2, 91004, Note_off_c, 0, 81, 100
2, 91008, Note_on_c, 0, 79, 100
2, 91388, Note_off_c, 0, 79, 100
2, 91392, Note_on_c, 0, 62, 70
2, 91580, Note_off_c, 0, 62, 100
2, 91584, Note_on_c, 0, 62, 70
2, 91772, Note_off_c, 0, 62, 100
2, 91776, Note_on_c, 0, 67, 70
2, 91964, Note_off_c, 0, 67, 100
2, 91968, Note_on_c, 0, 69, 70
2, 92156, Note_off_c, 0, 69, 100
2, 92160, Note_on_c, 0, 70, 70
2, 92348, Note_off_c, 0, 70, 100
2, 92352, Note_on_c, 0, 67, 70
2, 92540, Note_off_c, 0, 67, 100
2, 92736, Note_on_c, 0, 62, 70
2, 92924, Note_off_c, 0, 62, 100
2, 92928, Note_on_c, 0, 69, 70
2, 93116, Note_off_c, 0, 69, 100
2, 93120, Note_on_c, 0, 70, 70
2, 93308, Note_off_c, 0, 70, 100
2, 93312, Note_on_c, 0, 72, 70
2, 93500, Note_off_c, 0, 72, 100
2, 93504, Note_on_c, 0, 69, 70
2, 93692, Note_off_c, 0, 69, 100
2, 93888, Note_on_c, 0, 62, 80
2, 94076, Note_off_c, 0, 62, 100
2, 94080, Note_on_c, 0, 67, 80
2, 94268, Note_off_c, 0, 67, 100
2, 94272, Note_on_c, 0, 69, 80
2, 94460, Note_off_c, 0, 69, 100
2, 94464, Key_signature, 1, "major"
2, 94464, Note_on_c, 0, 71, 80
2, 94652, Note_off_c, 0, 71, 100
2, 94656, Note_on_c, 0, 67, 80
2, 94844, Note_off_c, 0, 67, 100
2, 94848, Note_on_c, 0, 64, 80
2, 95036, Note_off_c, 0, 64, 100
2, 95040, Note_on_c, 0, 64, 80
2, 95228, Note_off_c, 0, 64, 100
2, 95232, Note_on_c, 0, 69, 80
2, 95420, Note_off_c, 0, 69, 100
2, 95424, Note_on_c, 0, 71, 80
2, 95612, Note_off_c, 0, 71, 100
2, 95616, Note_on_c, 0, 72, 80
2, 95804, Note_off_c, 0, 72, 100
2, 95808, Note_on_c, 0, 69, 80
2, 95996, Note_off_c, 0, 69, 100
2, 96000, Note_on_c, 0, 76, 80
2, 96188, Note_off_c, 0, 76, 100
2, 96192, Note_on_c, 0, 74, 80
2, 96380, Note_off_c, 0, 74, 100
2, 96384, Note_on_c, 0, 72, 80
2, 96572, Note_off_c, 0, 72, 100
2, 96576, Note_on_c, 0, 71, 80
2, 96764, Note_off_c, 0, 71, 100
2, 96768, Note_on_c, 0, 69, 80
2, 96956, Note_off_c, 0, 69, 100
2, 96960, Note_on_c, 0, 67, 80
2, 97148, Note_off_c, 0, 67, 100
2, 97152, Note_on_c, 0, 69, 80
2, 97340, Note_off_c, 0, 69, 100
2, 97344, Note_on_c, 0, 67, 80
2, 97388, Note_off_c, 0, 67, 100
2, 97392, Note_on_c, 0, 69, 100
2, 97436, Note_off_c, 0, 69, 100
2, 97440, Note_on_c, 0, 70, 100
2, 97532, Note_off_c, 0, 70, 100
2, 97536, Note_on_c, 0, 69, 80
2, 97724, Note_off_c, 0, 69, 100
2, 97728, Note_on_c, 0, 67, 80
2, 97916, Note_off_c, 0, 67, 100
2, 97920, Note_on_c, 0, 66, 80
2, 98108, Note_off_c, 0, 66, 100
2, 98112, Note_on_c, 0, 62, 80
2, 98300, Note_off_c, 0, 62, 100
2, 98304, Note_on_c, 0, 62, 80
2, 98492, Note_off_c, 0, 62, 100
2, 98496, Note_on_c, 0, 62, 80
2, 98684, Note_off_c, 0, 62, 100
2, 98688, Note_on_c, 0, 67, 80
2, 98876, Note_off_c, 0, 67, 100
2, 98880, Note_on_c, 0, 69, 80
2, 99068, Note_off_c, 0, 69, 100
2, 99072, Note_on_c, 0, 71, 80
2, 99260, Note_off_c, 0, 71, 100
2, 99264, Note_on_c, 0, 67, 80
2, 99452, Note_off_c, 0, 67, 100
2, 99456, Note_on_c, 0, 64, 80
2, 99644, Note_off_c, 0, 64, 100
2, 99648, Note_on_c, 0, 64, 80
2, 99836, Note_off_c, 0, 64, 100
2, 99840, Note_on_c, 0, 69, 80
2, 100028, Note_off_c, 0, 69, 100
2, 100032, Note_on_c, 0, 71, 80
2, 100220, Note_off_c, 0, 71, 100
2, 100224, Note_on_c, 0, 72, 80
2, 100412, Note_off_c, 0, 72, 100
2, 100416, Note_on_c, 0, 69, 80
2, 100604, Note_off_c, 0, 69, 100
2, 100608, Note_on_c, 0, 76, 80
2, 100796, Note_off_c, 0, 76, 100
2, 100800, Note_on_c, 0, 74, 80
2, 100988, Note_off_c, 0, 74, 100
2, 100992, Note_on_c, 0, 72, 80
2, 101180, Note_off_c, 0, 72, 100
2, 101184, Note_on_c, 0, 71, 80
2, 101372, Note_off_c, 0, 71, 100
2, 101376, Note_on_c, 0, 69, 80
2, 101564, Note_off_c, 0, 69, 100
2, 101568, Note_on_c, 0, 67, 80
2, 101756, Note_off_c, 0, 67, 100
2, 101760, Note_on_c, 0, 69, 80
2, 101948, Note_off_c, 0, 69, 100
2, 101952, Note_on_c, 0, 62, 80
2, 102144, Note_on_c, 0, 67, 80
2, 102332, Note_off_c, 0, 62, 100
2, 102332, Note_off_c, 0, 67, 100
2, 102336, Note_on_c, 0, 66, 80
2, 102336, Note_on_c, 0, 60, 80
2, 102524, Note_off_c, 0, 66, 100
2, 102524, Note_off_c, 0, 60, 100
2, 102528, Note_on_c, 0, 67, 80
2, 102528, Note_on_c, 0, 59, 80
2, 102908, Note_off_c, 0, 67, 100
2, 102908, Note_off_c, 0, 59, 100
2, 102912, Note_on_c, 0, 62, 80
2, 103100, Note_off_c, 0, 62, 100
2, 103104, Note_on_c, 0, 67, 80
2, 103292, Note_off_c, 0, 67, 100
2, 103296, Note_on_c, 0, 71, 80
2, 103484, Note_off_c, 0, 71, 100
2, 103488, Note_on_c, 0, 74, 80
2, 103676, Note_off_c, 0, 74, 100
2, 103680, Note_on_c, 0, 74, 80
2, 103868, Note_off_c, 0, 74, 100
2, 103872, Note_on_c, 0, 72, 80
2, 103872, Note_on_c, 0, 69, 80
2, 104060, Note_off_c, 0, 72, 100
2, 104060, Note_off_c, 0, 69, 100
2, 104064, Note_on_c, 0, 72, 80
2, 104064, Note_on_c, 0, 69, 80
2, 104252, Note_off_c, 0, 72, 100
2, 104252, Note_off_c, 0, 69, 100
2, 104256, Note_on_c, 0, 74, 80
2, 104444, Note_off_c, 0, 74, 100
2, 104448, Note_on_c, 0, 71, 80
2, 104448, Note_on_c, 0, 67, 80
2, 104636, Note_off_c, 0, 71, 100
2, 104636, Note_off_c, 0, 67, 100
2, 104640, Note_on_c, 0, 71, 80
2, 104640, Note_on_c, 0, 67, 80
2, 104828, Note_off_c, 0, 71, 100
2, 104828, Note_off_c, 0, 67, 100
2, 104832, Note_on_c, 0, 74, 80
2, 105020, Note_off_c, 0, 74, 100
2, 105024, Note_on_c, 0, 72, 80
2, 105024, Note_on_c, 0, 69, 80
2, 105212, Note_off_c, 0, 72, 100
2, 105212, Note_off_c, 0, 69, 100
2, 105216, Note_on_c, 0, 72, 80
2, 105216, Note_on_c, 0, 69, 80
2, 105404, Note_off_c, 0, 72, 100
2, 105404, Note_off_c, 0, 69, 100
2, 105408, Note_on_c, 0, 74, 80
2, 105596, Note_off_c, 0, 74, 100
2, 105600, Note_on_c, 0, 71, 82
2, 105600, Note_on_c, 0, 67, 82
2, 105788, Note_off_c, 0, 71, 100
2, 105788, Note_off_c, 0, 67, 100
2, 105792, Note_on_c, 0, 71, 84
2, 105792, Note_on_c, 0, 67, 84
2, 105980, Note_off_c, 0, 71, 100
2, 105980, Note_off_c, 0, 67, 100
2, 105984, Note_on_c, 0, 74, 87
2, 106172, Note_off_c, 0, 74, 100
2, 106176, Note_on_c, 0, 72, 89
2, 106176, Note_on_c, 0, 69, 89
2, 106364, Note_off_c, 0, 72, 100
2, 106364, Note_off_c, 0, 69, 100
2, 106368, Note_on_c, 0, 71, 92
2, 106368, Note_on_c, 0, 67, 92
2, 106556, Note_off_c, 0, 71, 100
2, 106556, Note_off_c, 0, 67, 100
2, 106560, Note_on_c, 0, 74, 94
2, 106748, Note_off_c, 0, 74, 100
2, 106752, Note_on_c, 0, 72, 97
2, 106752, Note_on_c, 0, 69, 97
2, 106940, Note_off_c, 0, 72, 100
2, 106940, Note_off_c, 0, 69, 100
2, 106944, Note_on_c, 0, 71, 99
2, 106944, Note_on_c, 0, 67, 99
2, 107132, Note_off_c, 0, 71, 100
2, 107132, Note_off_c, 0, 67, 100
2, 107136, Note_on_c, 0, 74, 110
2, 107136, Note_on_c, 0, 72, 110
2, 107136, Note_on_c, 0, 69, 110
2, 108668, Note_off_c, 0, 69, 100
2, 108668, Note_off_c, 0, 72, 100
2, 108668, Note_off_c, 0, 74, 100
2, 108672, Note_on_c, 0, 74, 80
2, 108860, Note_off_c, 0, 74, 100
2, 108864, Note_on_c, 0, 74, 80
2, 109052, Note_off_c, 0, 74, 100
2, 109056, Note_on_c, 0, 79, 80
2, 109244, Note_off_c, 0, 79, 100
2, 109248, Note_on_c, 0, 81, 80
2, 109436, Note_off_c, 0, 81, 100
2, 109440, Note_on_c, 0, 83, 80
2, 109628, Note_off_c, 0, 83, 100
2, 109632, Note_on_c, 0, 79, 80
2, 109820, Note_off_c, 0, 79, 100
2, 109824, Note_on_c, 0, 76, 80
2, 110012, Note_off_c, 0, 76, 100
2, 110016, Note_on_c, 0, 76, 80
2, 110204, Note_off_c, 0, 76, 100
2, 110208, Note_on_c, 0, 81, 80
2, 110396, Note_off_c, 0, 81, 100
2, 110400, Note_on_c, 0, 83, 80
2, 110588, Note_off_c, 0, 83, 100
2, 110592, Note_on_c, 0, 84, 80
2, 110780, Note_off_c, 0, 84, 100
2, 110784, Note_on_c, 0, 81, 80
2, 110972, Note_off_c, 0, 81, 100
2, 110976, Note_on_c, 0, 88, 80
2, 111164, Note_off_c, 0, 88, 100
2, 111168, Note_on_c, 0, 86, 80
2, 111356, Note_off_c, 0, 86, 100
2, 111360, Note_on_c, 0, 84, 80
2, 111548, Note_off_c, 0, 84, 100
2, 111552, Note_on_c, 0, 83, 80
2, 111740, Note_off_c, 0, 83, 100
2, 111744, Note_on_c, 0, 83, 80
2, 111788, Note_off_c, 0, 83, 100
2, 111790, Note_on_c, 0, 81, 80
2, 111932, Note_off_c, 0, 81, 100
2, 111936, Note_on_c, 0, 79, 80
2, 112124, Note_off_c, 0, 79, 100
2, 112128, Note_on_c, 0, 81, 80
2, 112316, Note_off_c, 0, 81, 100
2, 112320, Note_on_c, 0, 74, 80
2, 112512, Note_on_c, 0, 79, 80
2, 112700, Note_off_c, 0, 74, 100
2, 112700, Note_off_c, 0, 79, 100
2, 112704, Note_on_c, 0, 78, 80
2, 112704, Note_on_c, 0, 72, 80
2, 112892, Note_off_c, 0, 78, 100
2, 112892, Note_off_c, 0, 72, 100
2, 112896, Note_on_c, 0, 79, 80
2, 112896, Note_on_c, 0, 71, 80
2, 113276, Note_off_c, 0, 79, 100
2, 113276, Note_off_c, 0, 71, 100
2, 113664, Note_on_c, 0, 84, 80
2, 113852, Note_off_c, 0, 84, 100
2, 113856, Note_on_c, 0, 83, 80
2, 114044, Note_off_c, 0, 83, 100
2, 114048, Note_on_c, 0, 81, 80
2, 114236, Note_off_c, 0, 81, 100
2, 114240, Note_on_c, 0, 79, 80
2, 114428, Note_off_c, 0, 79, 100
2, 114432, Note_on_c, 0, 78, 80
2, 114620, Note_off_c, 0, 78, 100
2, 114624, Note_on_c, 0, 71, 80
2, 114816, Note_on_c, 0, 76, 80
2, 115004, Note_off_c, 0, 71, 100
2, 115004, Note_off_c, 0, 76, 100
2, 115008, Note_on_c, 0, 75, 80
2, 115008, Note_on_c, 0, 69, 80
2, 115196, Note_off_c, 0, 75, 100
2, 115196, Note_off_c, 0, 69, 100
2, 115200, Note_on_c, 0, 67, 80
2, 115200, Note_on_c, 0, 78, 80
2, 115388, Note_off_c, 0, 78, 100
2, 115392, Note_on_c, 0, 76, 80
2, 115580, Note_off_c, 0, 67, 100
2, 115580, Note_off_c, 0, 76, 100
2, 115584, Note_on_c, 0, 81, 80
2, 115772, Note_off_c, 0, 81, 100
2, 115776, Note_on_c, 0, 79, 80
2, 115964, Note_off_c, 0, 79, 100
2, 115968, Note_on_c, 0, 77, 80
2, 116156, Note_off_c, 0, 77, 100
2, 116160, Note_on_c, 0, 76, 80
2, 116348, Note_off_c, 0, 76, 100
2, 116352, Note_on_c, 0, 74, 80
2, 116540, Note_off_c, 0, 74, 100
2, 116544, Note_on_c, 0, 72, 80
2, 116732, Note_off_c, 0, 72, 100
2, 116736, Note_on_c, 0, 74, 80
2, 116924, Note_off_c, 0, 74, 100
2, 116928, Note_on_c, 0, 67, 80
2, 117120, Note_on_c, 0, 72, 80
2, 117308, Note_off_c, 0, 67, 100
2, 117308, Note_off_c, 0, 72, 100
2, 117312, Note_on_c, 0, 71, 80
2, 117312, Note_on_c, 0, 65, 80
2, 117500, Note_off_c, 0, 71, 100
2, 117500, Note_off_c, 0, 65, 100
2, 117504, Note_on_c, 0, 64, 80
2, 117504, Note_on_c, 0, 74, 80
2, 117692, Note_off_c, 0, 74, 100
2, 117696, Note_on_c, 0, 72, 80
2, 117884, Note_off_c, 0, 64, 100
2, 117884, Note_off_c, 0, 72, 100
2, 117888, Note_on_c, 0, 72, 80
2, 118076, Note_off_c, 0, 72, 100
2, 118080, Note_on_c, 0, 64, 80
2, 118272, Note_on_c, 0, 69, 80
2, 118460, Note_off_c, 0, 64, 100
2, 118460, Note_off_c, 0, 69, 100
2, 118464, Note_on_c, 0, 68, 80
2, 118464, Note_on_c, 0, 62, 80
2, 118652, Note_off_c, 0, 68, 100
2, 118652, Note_off_c, 0, 62, 100
2, 118656, Note_on_c, 0, 60, 80
2, 118656, Note_on_c, 0, 71, 80
2, 118844, Note_off_c, 0, 71, 100
2, 118848, Note_on_c, 0, 69, 80
2, 119036, Note_off_c, 0, 60, 100
2, 119036, Note_off_c, 0, 69, 100
2, 119040, Note_on_c, 0, 69, 80
2, 119228, Note_off_c, 0, 69, 100
2, 119232, Note_on_c, 0, 62, 80
2, 119424, Note_on_c, 0, 67, 80
2, 119612, Note_off_c, 0, 62, 100
2, 119612, Note_off_c, 0, 67, 100
2, 119616, Note_on_c, 0, 66, 80
2, 119616, Note_on_c, 0, 60, 80
2, 119804, Note_off_c, 0, 66, 100
2, 119804, Note_off_c, 0, 60, 100
2, 119808, Note_on_c, 0, 59, 80
2, 119808, Note_on_c, 0, 69, 80
2, 119996, Note_off_c, 0, 69, 100
2, 120000, Note_on_c, 0, 67, 80
2, 120188, Note_off_c, 0, 67, 100
2, 120192, Note_on_c, 0, 67, 80
2, 120380, Note_off_c, 0, 59, 100
2, 120380, Note_off_c, 0, 67, 100
2, 120384, Note_on_c, 0, 55, 80
2, 120384, Note_on_c, 0, 62, 80
2, 120572, Note_off_c, 0, 62, 100
2, 120576, Note_on_c, 0, 61, 80
2, 120764, Note_off_c, 0, 61, 100
2, 120768, Note_on_c, 0, 61, 80
2, 120956, Note_off_c, 0, 55, 100
2, 120956, Note_off_c, 0, 61, 100
2, 120960, Note_on_c, 0, 62, 80
2, 120960, Note_on_c, 0, 54, 80
2, 121340, Note_off_c, 0, 62, 100
2, 121340, Note_off_c, 0, 54, 100
2, 121536, Note_on_c, 0, 72, 80
2, 121580, Note_off_c, 0, 72, 100
2, 121582, Note_on_c, 0, 71, 80
2, 121724, Note_off_c, 0, 71, 100
2, 121728, Note_on_c, 0, 69, 80
2, 121916, Note_off_c, 0, 69, 100
2, 121920, Note_on_c, 0, 71, 80
2, 122108, Note_off_c, 0, 71, 100
2, 122112, Note_on_c, 0, 72, 80
2, 122684, Note_off_c, 0, 72, 100
2, 122688, Note_on_c, 0, 71, 80
2, 122732, Note_off_c, 0, 71, 100
2, 122734, Note_on_c, 0, 69, 80
2, 122876, Note_off_c, 0, 69, 100
2, 122880, Note_on_c, 0, 68, 80
2, 123068, Note_off_c, 0, 68, 100
2, 123072, Note_on_c, 0, 69, 80
2, 123260, Note_off_c, 0, 69, 100
2, 123264, Note_on_c, 0, 74, 80
2, 124028, Note_off_c, 0, 74, 100
2, 124032, Note_on_c, 0, 72, 80
2, 124220, Note_off_c, 0, 72, 100
2, 124224, Note_on_c, 0, 71, 80
2, 124412, Note_off_c, 0, 71, 100
2, 124416, Note_on_c, 0, 69, 80
2, 124604, Note_off_c, 0, 69, 100
2, 124608, Note_on_c, 0, 71, 80
2, 124796, Note_off_c, 0, 71, 100
2, 124800, Note_on_c, 0, 67, 80
2, 124988, Note_off_c, 0, 67, 100
2, 124992, Note_on_c, 0, 66, 80
2, 125180, Note_off_c, 0, 66, 100
2, 125184, Note_on_c, 0, 67, 80
2, 125372, Note_off_c, 0, 67, 100
2, 125376, Note_on_c, 0, 64, 80
2, 125564, Note_off_c, 0, 64, 100
2, 125568, Note_on_c, 0, 62, 80
2, 126332, Note_off_c, 0, 62, 100
2, 126336, Note_on_c, 0, 64, 80
2, 126524, Note_off_c, 0, 64, 100
2, 126528, Note_on_c, 0, 66, 80
2, 126716, Note_off_c, 0, 66, 100
2, 126720, Note_on_c, 0, 69, 80
2, 126764, Note_off_c, 0, 69, 100
2, 126766, Note_on_c, 0, 67, 80
2, 126908, Note_off_c, 0, 67, 100
2, 126912, Note_on_c, 0, 66, 80
2, 127100, Note_off_c, 0, 66, 100
2, 127104, Note_on_c, 0, 67, 80
2, 127292, Note_off_c, 0, 67, 100
2, 127296, Note_on_c, 0, 62, 80
2, 127484, Note_off_c, 0, 62, 100
2, 127488, Note_on_c, 0, 66, 80
2, 127676, Note_off_c, 0, 66, 100
2, 127680, Note_on_c, 0, 67, 80
2, 127868, Note_off_c, 0, 67, 100
2, 127872, Note_on_c, 0, 71, 80
2, 127916, Note_off_c, 0, 71, 100
2, 127918, Note_on_c, 0, 69, 80
2, 128060, Note_off_c, 0, 69, 100
2, 128064, Note_on_c, 0, 68, 80
2, 128252, Note_off_c, 0, 68, 100
2, 128256, Note_on_c, 0, 69, 80
2, 128444, Note_off_c, 0, 69, 100
2, 128448, Note_on_c, 0, 62, 80
2, 128636, Note_off_c, 0, 62, 100
2, 128640, Note_on_c, 0, 67, 80
2, 128828, Note_off_c, 0, 67, 100
2, 128832, Note_on_c, 0, 69, 80
2, 129020, Note_off_c, 0, 69, 100
2, 129024, Note_on_c, 0, 72, 80
2, 129068, Note_off_c, 0, 72, 100
2, 129070, Note_on_c, 0, 71, 80
2, 129212, Note_off_c, 0, 71, 100
2, 129216, Note_on_c, 0, 69, 80
2, 129404, Note_off_c, 0, 69, 100
2, 129408, Note_on_c, 0, 71, 80
2, 129596, Note_off_c, 0, 71, 100
2, 129600, Note_on_c, 0, 72, 80
2, 129788, Note_off_c, 0, 72, 100
2, 129792, Note_on_c, 0, 74, 80
2, 129980, Note_off_c, 0, 74, 100
2, 129984, Note_on_c, 0, 76, 80
2, 130172, Note_off_c, 0, 76, 100
2, 130176, Note_on_c, 0, 69, 80
2, 130556, Note_off_c, 0, 69, 100
2, 130752, Note_on_c, 0, 84, 80
2, 130796, Note_off_c, 0, 84, 100
2, 130798, Note_on_c, 0, 83, 80
2, 130940, Note_off_c, 0, 83, 100
2, 130944, Note_on_c, 0, 81, 80
2, 131132, Note_off_c, 0, 81, 100
2, 131136, Note_on_c, 0, 83, 80
2, 131324, Note_off_c, 0, 83, 100
2, 131328, Note_on_c, 0, 84, 80
2, 131900, Note_off_c, 0, 84, 100
2, 131904, Note_on_c, 0, 83, 80
2, 131948, Note_off_c, 0, 83, 100
2, 131950, Note_on_c, 0, 81, 80
2, 132092, Note_off_c, 0, 81, 100
2, 132096, Note_on_c, 0, 80, 80
2, 132284, Note_off_c, 0, 80, 100
2, 132288, Note_on_c, 0, 81, 80
2, 132476, Note_off_c, 0, 81, 100
2, 132480, Note_on_c, 0, 86, 80
2, 133244, Note_off_c, 0, 86, 100
2, 133248, Note_on_c, 0, 84, 80
2, 133436, Note_off_c, 0, 84, 100
2, 133440, Note_on_c, 0, 83, 80
2, 133628, Note_off_c, 0, 83, 100
2, 133632, Note_on_c, 0, 81, 80
2, 133820, Note_off_c, 0, 81, 100
2, 133824, Note_on_c, 0, 83, 80
2, 134012, Note_off_c, 0, 83, 100
2, 134016, Note_on_c, 0, 79, 80
2, 134204, Note_off_c, 0, 79, 100
2, 134208, Note_on_c, 0, 78, 80
2, 134396, Note_off_c, 0, 78, 100
2, 134400, Note_on_c, 0, 79, 80
2, 134588, Note_off_c, 0, 79, 100
2, 134592, Note_on_c, 0, 76, 80
2, 134780, Note_off_c, 0, 76, 100
2, 134784, Note_on_c, 0, 74, 80
2, 135548, Note_off_c, 0, 74, 100
2, 135552, Note_on_c, 0, 76, 80
2, 135740, Note_off_c, 0, 76, 100
2, 135744, Note_on_c, 0, 78, 80
2, 135932, Note_off_c, 0, 78, 100
2, 135936, Note_on_c, 0, 81, 80
2, 135980, Note_off_c, 0, 81, 100
2, 135982, Note_on_c, 0, 79, 80
2, 136124, Note_off_c, 0, 79, 100
2, 136128, Note_on_c, 0, 78, 80
2, 136316, Note_off_c, 0, 78, 100
2, 136320, Note_on_c, 0, 79, 80
2, 136508, Note_off_c, 0, 79, 100
2, 136512, Note_on_c, 0, 74, 80
2, 136700, Note_off_c, 0, 74, 100
2, 136704, Note_on_c, 0, 78, 80
2, 136892, Note_off_c, 0, 78, 100
2, 136896, Note_on_c, 0, 79, 80
2, 137084, Note_off_c, 0, 79, 100
2, 137088, Note_on_c, 0, 83, 80
2, 137132, Note_off_c, 0, 83, 100
2, 137134, Note_on_c, 0, 81, 80
2, 137276, Note_off_c, 0, 81, 100
2, 137280, Note_on_c, 0, 80, 80
2, 137468, Note_off_c, 0, 80, 100
2, 137472, Note_on_c, 0, 81, 80
2, 137660, Note_off_c, 0, 81, 100
2, 137664, Note_on_c, 0, 84, 80
2, 137708, Note_off_c, 0, 84, 100
2, 137710, Note_on_c, 0, 83, 80
2, 137852, Note_off_c, 0, 83, 100
2, 137856, Note_on_c, 0, 81, 80
2, 138044, Note_off_c, 0, 81, 100
2, 138048, Note_on_c, 0, 83, 80
2, 138236, Note_off_c, 0, 83, 100
2, 138240, Note_on_c, 0, 86, 80
2, 138284, Note_off_c, 0, 86, 100
2, 138286, Note_on_c, 0, 84, 80
2, 138428, Note_off_c, 0, 84, 100
2, 138432, Note_on_c, 0, 83, 80
2, 138620, Note_off_c, 0, 83, 100
2, 138624, Note_on_c, 0, 84, 80
2, 138812, Note_off_c, 0, 84, 100
2, 138816, Note_on_c, 0, 88, 80
2, 139196, Note_off_c, 0, 88, 100
2, 139200, Note_on_c, 0, 78, 80
2, 139388, Note_off_c, 0, 78, 100
2, 139392, Note_on_c, 0, 79, 80
2, 139772, Note_off_c, 0, 79, 100
2, 139968, Note_on_c, 0, 69, 80
2, 140012, Note_off_c, 0, 69, 100
2, 140014, Note_on_c, 0, 67, 80
2, 140156, Note_off_c, 0, 67, 100
2, 140160, Note_on_c, 0, 66, 80
2, 140348, Note_off_c, 0, 66, 100
2, 140352, Note_on_c, 0, 67, 80
2, 140540, Note_off_c, 0, 67, 100
2, 140544, Note_on_c, 0, 67, 80
2, 140544, Note_on_c, 0, 74, 80
2, 140924, Note_off_c, 0, 74, 100
2, 140928, Note_on_c, 0, 74, 80
2, 141116, Note_off_c, 0, 67, 100
2, 141116, Note_off_c, 0, 74, 100
2, 141120, Note_on_c, 0, 68, 80
2, 141120, Note_on_c, 0, 74, 80
2, 141500, Note_off_c, 0, 74, 100
2, 141504, Note_on_c, 0, 74, 80
2, 141692, Note_off_c, 0, 68, 100
2, 141692, Note_off_c, 0, 74, 100
2, 141696, Note_on_c, 0, 74, 80
2, 141696, Note_on_c, 0, 69, 80
2, 142076, Note_off_c, 0, 74, 100
2, 142080, Note_on_c, 0, 73, 80
2, 142268, Note_off_c, 0, 69, 100
2, 142268, Note_off_c, 0, 73, 100
2, 142272, Note_on_c, 0, 71, 80
2, 142316, Note_off_c, 0, 71, 100
2, 142318, Note_on_c, 0, 69, 80
2, 142460, Note_off_c, 0, 69, 100
2, 142464, Note_on_c, 0, 68, 80
2, 142652, Note_off_c, 0, 68, 100
2, 142656, Note_on_c, 0, 69, 80
2, 142844, Note_off_c, 0, 69, 100
2, 142848, Note_on_c, 0, 72, 80
2, 142848, Note_on_c, 0, 69, 80
2, 143228, Note_off_c, 0, 72, 100
2, 143232, Note_on_c, 0, 72, 80
2, 143420, Note_off_c, 0, 69, 100
2, 143420, Note_off_c, 0, 72, 100
2, 143424, Note_on_c, 0, 72, 80
2, 143424, Note_on_c, 0, 69, 80
2, 143804, Note_off_c, 0, 72, 100
2, 143808, Note_on_c, 0, 72, 80
2, 143996, Note_off_c, 0, 69, 100
2, 143996, Note_off_c, 0, 72, 100
2, 144000, Note_on_c, 0, 72, 80
2, 144000, Note_on_c, 0, 67, 80
2, 144380, Note_off_c, 0, 72, 100
2, 144384, Note_on_c, 0, 71, 80
2, 144572, Note_off_c, 0, 67, 100
2, 144572, Note_off_c, 0, 71, 100
2, 144576, Note_on_c, 0, 72, 80
2, 144596, Note_off_c, 0, 72, 100
2, 144622, Note_on_c, 0, 71, 80
2, 144764, Note_off_c, 0, 71, 100
2, 144768, Note_on_c, 0, 69, 80
2, 144956, Note_off_c, 0, 69, 100
2, 144960, Note_on_c, 0, 71, 80
2, 145148, Note_off_c, 0, 71, 100
2, 145152, Note_on_c, 0, 72, 80
2, 145724, Note_off_c, 0, 72, 100
2, 145728, Note_on_c, 0, 71, 80
2, 145748, Note_off_c, 0, 71, 100
2, 145774, Note_on_c, 0, 69, 80
2, 145916, Note_off_c, 0, 69, 100
2, 145920, Note_on_c, 0, 68, 80
2, 146108, Note_off_c, 0, 68, 100
2, 146112, Note_on_c, 0, 69, 80
2, 146300, Note_off_c, 0, 69, 100
2, 146304, Note_on_c, 0, 74, 80
2, 147068, Note_off_c, 0, 74, 100
2, 147072, Note_on_c, 0, 75, 80
2, 147260, Note_off_c, 0, 75, 100
2, 147264, Note_on_c, 0, 76, 80
2, 147452, Note_off_c, 0, 76, 100
2, 147456, Note_on_c, 0, 67, 80
2, 147836, Note_off_c, 0, 67, 100
2, 147840, Note_on_c, 0, 69, 80
2, 147888, Note_on_c, 0, 67, 80
2, 147928, Note_off_c, 0, 69, 100
2, 147936, Note_on_c, 0, 66, 80
2, 147974, Note_off_c, 0, 67, 100
2, 147984, Note_on_c, 0, 67, 80
2, 148016, Note_off_c, 0, 66, 100
2, 148028, Note_off_c, 0, 67, 100
2, 148032, Note_on_c, 0, 71, 80
2, 148412, Note_off_c, 0, 71, 100
2, 148416, Note_on_c, 0, 69, 80
2, 148604, Note_off_c, 0, 69, 100
2, 148608, Note_on_c, 0, 67, 80
2, 148988, Note_off_c, 0, 67, 100
2, 149184, Note_on_c, 0, 69, 80
2, 149228, Note_off_c, 0, 69, 100
2, 149230, Note_on_c, 0, 67, 80
2, 149372, Note_off_c, 0, 67, 100
2, 149376, Note_on_c, 0, 66, 80
2, 149564, Note_off_c, 0, 66, 100
2, 149568, Note_on_c, 0, 67, 80
2, 149756, Note_off_c, 0, 67, 100
2, 149760, Note_on_c, 0, 67, 80
2, 149760, Note_on_c, 0, 74, 80
2, 150140, Note_off_c, 0, 74, 100
2, 150144, Note_on_c, 0, 74, 80
2, 150332, Note_off_c, 0, 67, 100
2, 150332, Note_off_c, 0, 74, 100
2, 150336, Note_on_c, 0, 68, 80
2, 150336, Note_on_c, 0, 74, 80
2, 150716, Note_off_c, 0, 74, 100
2, 150720, Note_on_c, 0, 74, 80
2, 150908, Note_off_c, 0, 68, 100
2, 150908, Note_off_c, 0, 74, 100
2, 150912, Note_on_c, 0, 74, 80
2, 150912, Note_on_c, 0, 69, 80
2, 151292, Note_off_c, 0, 74, 100
2, 151296, Note_on_c, 0, 73, 80
2, 151484, Note_off_c, 0, 69, 100
2, 151484, Note_off_c, 0, 73, 100
2, 151488, Note_on_c, 0, 71, 80
2, 151532, Note_off_c, 0, 71, 100
2, 151534, Note_on_c, 0, 69, 80
2, 151676, Note_off_c, 0, 69, 100
2, 151680, Note_on_c, 0, 68, 80
2, 151868, Note_off_c, 0, 68, 100
2, 151872, Note_on_c, 0, 69, 80
2, 152060, Note_off_c, 0, 69, 100
2, 152064, Note_on_c, 0, 72, 80
2, 152064, Note_on_c, 0, 69, 80
2, 152444, Note_off_c, 0, 72, 100
2, 152448, Note_on_c, 0, 72, 80
2, 152636, Note_off_c, 0, 69, 100
2, 152636, Note_off_c, 0, 72, 100
2, 152640, Note_on_c, 0, 72, 80
2, 152640, Note_on_c, 0, 69, 80
2, 153020, Note_off_c, 0, 72, 100
2, 153024, Note_on_c, 0, 72, 80
2, 153212, Note_off_c, 0, 69, 100
2, 153212, Note_off_c, 0, 72, 100
2, 153216, Note_on_c, 0, 72, 80
2, 153216, Note_on_c, 0, 67, 80
2, 153596, Note_off_c, 0, 72, 100
2, 153600, Note_on_c, 0, 71, 80
2, 153788, Note_off_c, 0, 67, 100
2, 153788, Note_off_c, 0, 71, 100
2, 153792, Note_on_c, 0, 72, 80
2, 153812, Note_off_c, 0, 72, 100
2, 153838, Note_on_c, 0, 71, 80
2, 153980, Note_off_c, 0, 71, 100
2, 153984, Note_on_c, 0, 69, 80
2, 154172, Note_off_c, 0, 69, 100
2, 154176, Note_on_c, 0, 71, 80
2, 154364, Note_off_c, 0, 71, 100
2, 154368, Note_on_c, 0, 72, 80
2, 154940, Note_off_c, 0, 72, 100
2, 154944, Note_on_c, 0, 71, 80
2, 154964, Note_off_c, 0, 71, 100
2, 154990, Note_on_c, 0, 69, 80
2, 155132, Note_off_c, 0, 69, 100
2, 155136, Note_on_c, 0, 68, 80
2, 155324, Note_off_c, 0, 68, 100
2, 155328, Note_on_c, 0, 69, 80
2, 155516, Note_off_c, 0, 69, 100
2, 155520, Note_on_c, 0, 74, 80
2, 156284, Note_off_c, 0, 74, 100
2, 156288, Note_on_c, 0, 75, 80
2, 156476, Note_off_c, 0, 75, 100
2, 156480, Note_on_c, 0, 76, 80
2, 156668, Note_off_c, 0, 76, 100
2, 156672, Note_on_c, 0, 67, 80
2, 157052, Note_off_c, 0, 67, 100
2, 157056, Note_on_c, 0, 69, 80
2, 157104, Note_on_c, 0, 67, 80
2, 157144, Note_off_c, 0, 69, 100
2, 157152, Note_on_c, 0, 66, 80
2, 157190, Note_off_c, 0, 67, 100
2, 157200, Note_on_c, 0, 67, 80
2, 157232, Note_off_c, 0, 66, 100
2, 157244, Note_off_c, 0, 67, 100
2, 157248, Note_on_c, 0, 71, 80
2, 157628, Note_off_c, 0, 71, 100
2, 157632, Note_on_c, 0, 69, 80
2, 157820, Note_off_c, 0, 69, 100
2, 157824, Note_on_c, 0, 67, 80
2, 158204, Note_off_c, 0, 67, 100
2, 158208, Note_on_c, 0, 62, 80
2, 158396, Note_off_c, 0, 62, 100
2, 158400, Note_on_c, 0, 62, 80
2, 158588, Note_off_c, 0, 62, 100
2, 158592, Note_on_c, 0, 67, 80
2, 158780, Note_off_c, 0, 67, 100
2, 158784, Note_on_c, 0, 69, 80
2, 158972, Note_off_c, 0, 69, 100
2, 158976, Note_on_c, 0, 71, 80
2, 159164, Note_off_c, 0, 71, 100
2, 159168, Note_on_c, 0, 67, 80
2, 159356, Note_off_c, 0, 67, 100
2, 159360, Note_on_c, 0, 62, 80
2, 159548, Note_off_c, 0, 62, 100
2, 159552, Note_on_c, 0, 62, 80
2, 159740, Note_off_c, 0, 62, 100
2, 159744, Note_on_c, 0, 69, 80
2, 159932, Note_off_c, 0, 69, 100
2, 159936, Note_on_c, 0, 71, 80
2, 160124, Note_off_c, 0, 71, 100
2, 160128, Note_on_c, 0, 72, 80
2, 160316, Note_off_c, 0, 72, 100
2, 160320, Note_on_c, 0, 69, 80
2, 160508, Note_off_c, 0, 69, 100
2, 160896, Note_on_c, 0, 74, 100
2, 160896, Note_on_c, 0, 71, 100
2, 161084, Note_off_c, 0, 74, 100
2, 161084, Note_off_c, 0, 71, 100
2, 161088, Note_on_c, 0, 72, 100
2, 161088, Note_on_c, 0, 69, 100
2, 161276, Note_off_c, 0, 72, 100
2, 161276, Note_off_c, 0, 69, 100
2, 161280, Note_on_c, 0, 71, 100
2, 161280, Note_on_c, 0, 67, 100
2, 161468, Note_off_c, 0, 71, 100
2, 161468, Note_off_c, 0, 67, 100
2, 161472, Note_on_c, 0, 62, 100
2, 161660, Note_off_c, 0, 62, 100
2, 162048, Note_on_c, 0, 72, 100
2, 162048, Note_on_c, 0, 69, 100
2, 162236, Note_off_c, 0, 72, 100
2, 162236, Note_off_c, 0, 69, 100
2, 162240, Note_on_c, 0, 71, 100
2, 162240, Note_on_c, 0, 67, 100
2, 162428, Note_off_c, 0, 71, 100
2, 162428, Note_off_c, 0, 67, 100
2, 162432, Note_on_c, 0, 69, 100
2, 162432, Note_on_c, 0, 66, 100
2, 162620, Note_off_c, 0, 69, 100
2, 162620, Note_off_c, 0, 66, 100
2, 162624, Note_on_c, 0, 62, 100
2, 162812, Note_off_c, 0, 62, 100
2, 162816, Note_on_c, 0, 62, 80
2, 163004, Note_off_c, 0, 62, 100
2, 163008, Note_on_c, 0, 62, 80
2, 163196, Note_off_c, 0, 62, 100
2, 163200, Note_on_c, 0, 67, 80
2, 163388, Note_off_c, 0, 67, 100
2, 163392, Note_on_c, 0, 69, 80
2, 163580, Note_off_c, 0, 69, 100
2, 163584, Note_on_c, 0, 71, 80
2, 163772, Note_off_c, 0, 71, 100
2, 163776, Note_on_c, 0, 67, 80
2, 163964, Note_off_c, 0, 67, 100
2, 163968, Note_on_c, 0, 64, 80
2, 164156, Note_off_c, 0, 64, 100
2, 164160, Note_on_c, 0, 64, 80
2, 164348, Note_off_c, 0, 64, 100
2, 164352, Note_on_c, 0, 69, 80
2, 164540, Note_off_c, 0, 69, 100
2, 164544, Note_on_c, 0, 71, 80
2, 164732, Note_off_c, 0, 71, 100
2, 164736, Note_on_c, 0, 72, 80
2, 164924, Note_off_c, 0, 72, 100
2, 164928, Note_on_c, 0, 69, 80
2, 165116, Note_off_c, 0, 69, 100
2, 165120, Note_on_c, 0, 76, 80
2, 165308, Note_off_c, 0, 76, 100
2, 165312, Note_on_c, 0, 74, 80
2, 165500, Note_off_c, 0, 74, 100
2, 165504, Note_on_c, 0, 72, 80
2, 165692, Note_off_c, 0, 72, 100
2, 165696, Note_on_c, 0, 71, 80
2, 165884, Note_off_c, 0, 71, 100
2, 165888, Note_on_c, 0, 69, 80
2, 166076, Note_off_c, 0, 69, 100
2, 166080, Note_on_c, 0, 67, 80
2, 166268, Note_off_c, 0, 67, 100
2, 166656, Note_on_c, 0, 76, 100
2, 166844, Note_off_c, 0, 76, 100
2, 166848, Note_on_c, 0, 79, 100
2, 166848, Note_on_c, 0, 74, 100
2, 167036, Note_off_c, 0, 79, 100
2, 167036, Note_off_c, 0, 74, 100
2, 167040, Note_on_c, 0, 78, 120
2, 167040, Note_on_c, 0, 72, 120
2, 167228, Note_off_c, 0, 78, 100
2, 167228, Note_off_c, 0, 72, 100
2, 167232, Note_on_c, 0, 71, 100
2, 167232, Note_on_c, 0, 79, 100
2, 167420, Note_off_c, 0, 71, 100
2, 167420, Note_off_c, 0, 79, 100
2, 167424, Note_on_c, 0, 76, 80
2, 167612, Note_off_c, 0, 76, 100
2, 167616, Note_on_c, 0, 74, 80
2, 167804, Note_off_c, 0, 74, 100
2, 167808, Note_on_c, 0, 72, 80
2, 167996, Note_off_c, 0, 72, 100
2, 168000, Note_on_c, 0, 71, 80
2, 168188, Note_off_c, 0, 71, 100
2, 168192, Note_on_c, 0, 69, 80
2, 168380, Note_off_c, 0, 69, 100
2, 168384, Note_on_c, 0, 67, 80
2, 168572, Note_off_c, 0, 67, 100
2, 168960, Note_on_c, 0, 76, 100
2, 169148, Note_off_c, 0, 76, 100
2, 169152, Note_on_c, 0, 79, 100
2, 169152, Note_on_c, 0, 74, 100
2, 169340, Note_off_c, 0, 79, 100
2, 169340, Note_off_c, 0, 74, 100
2, 169344, Note_on_c, 0, 78, 120
2, 169344, Note_on_c, 0, 72, 120
2, 169532, Note_off_c, 0, 78, 100
2, 169532, Note_off_c, 0, 72, 100
2, 169536, Note_on_c, 0, 71, 100
2, 169536, Note_on_c, 0, 79, 100
2, 169724, Note_off_c, 0, 71, 100
2, 169724, Note_off_c, 0, 79, 100
2, 169920, Note_on_c, 0, 77, 80
2, 169920, Note_on_c, 0, 80, 80
2, 170108, Note_off_c, 0, 77, 100
2, 170108, Note_off_c, 0, 80, 100
2, 170112, Note_on_c, 0, 81, 80
2, 170112, Note_on_c, 0, 78, 80
2, 170300, Note_off_c, 0, 81, 100
2, 170300, Note_off_c, 0, 78, 100
2, 170496, Note_on_c, 0, 82, 80
2, 170496, Note_on_c, 0, 78, 80
2, 170684, Note_off_c, 0, 82, 100
2, 170684, Note_off_c, 0, 78, 100
2, 170688, Note_on_c, 0, 83, 83
2, 170688, Note_on_c, 0, 79, 83
2, 170876, Note_off_c, 0, 83, 100
2, 170876, Note_off_c, 0, 79, 100
2, 171072, Note_on_c, 0, 83, 90
2, 171072, Note_on_c, 0, 80, 90
2, 171260, Note_off_c, 0, 83, 100
2, 171260, Note_off_c, 0, 80, 100
2, 171264, Note_on_c, 0, 84, 94
2, 171264, Note_on_c, 0, 81, 94
2, 171452, Note_off_c, 0, 84, 100
2, 171452, Note_off_c, 0, 81, 100
2, 171648, Note_on_c, 0, 72, 120
2, 171648, Note_on_c, 0, 84, 120
2, 171648, Note_on_c, 0, 81, 120
2, 171648, Note_on_c, 0, 78, 120
2, 172604, Note_off_c, 0, 84, 100
2, 172604, Note_off_c, 0, 81, 100
2, 172604, Note_off_c, 0, 78, 100
2, 172608, Note_on_c, 0, 81, 80
2, 172796, Note_off_c, 0, 81, 100
2, 172800, Note_on_c, 0, 78, 80
2, 174332, Note_off_c, 0, 72, 100
2, 174332, Note_off_c, 0, 78, 100
2, 175104, Note_on_c, 0, 62, 80
2, 175104, Note_on_c, 0, 54, 80
2, 175292, Note_off_c, 0, 54, 100
2, 175296, Note_on_c, 0, 57, 80
2, 175484, Note_off_c, 0, 57, 100
2, 175488, Note_on_c, 0, 54, 80
2, 175676, Note_off_c, 0, 62, 100
2, 175676, Note_off_c, 0, 54, 100
2, 175680, Note_on_c, 0, 62, 80
2, 175680, Note_on_c, 0, 55, 80
2, 175868, Note_off_c, 0, 55, 100
2, 175872, Note_on_c, 0, 59, 80
2, 176060, Note_off_c, 0, 59, 100
2, 176064, Note_on_c, 0, 55, 80
2, 176252, Note_off_c, 0, 62, 100
2, 176252, Note_off_c, 0, 55, 100
2, 176256, Note_on_c, 0, 66, 80
2, 176256, Note_on_c, 0, 60, 80
2, 176444, Note_off_c, 0, 60, 100
2, 176448, Note_on_c, 0, 62, 80
2, 176636, Note_off_c, 0, 62, 100
2, 176640, Note_on_c, 0, 60, 80
2, 176828, Note_off_c, 0, 66, 100
2, 176828, Note_off_c, 0, 60, 100
2, 176832, Note_on_c, 0, 67, 80
2, 176832, Note_on_c, 0, 59, 80
2, 177020, Note_off_c, 0, 59, 100
2, 177024, Note_on_c, 0, 62, 80
2, 177212, Note_off_c, 0, 62, 100
2, 177216, Note_on_c, 0, 59, 80
2, 177404, Note_off_c, 0, 67, 100
2, 177404, Note_off_c, 0, 59, 100
2, 177600, Note_on_c, 0, 64, 80
2, 177788, Note_off_c, 0, 64, 100
2, 177792, Note_on_c, 0, 68, 80
2, 177980, Note_off_c, 0, 68, 100
2, 177984, Note_on_c, 0, 69, 80
2, 178172, Note_off_c, 0, 69, 100
2, 178176, Note_on_c, 0, 72, 80
2, 178364, Note_off_c, 0, 72, 100
2, 178368, Note_on_c, 0, 69, 80
2, 178556, Note_off_c, 0, 69, 100
2, 178560, Note_on_c, 0, 62, 80
2, 178560, Note_on_c, 0, 67, 80
2, 178748, Note_off_c, 0, 67, 100
2, 178752, Note_on_c, 0, 71, 80
2, 178940, Note_off_c, 0, 71, 100
2, 178944, Note_on_c, 0, 67, 80
2, 179132, Note_off_c, 0, 62, 100
2, 179132, Note_off_c, 0, 67, 100
2, 179136, Note_on_c, 0, 60, 80
2, 179136, Note_on_c, 0, 66, 80
2, 179324, Note_off_c, 0, 66, 100
2, 179328, Note_on_c, 0, 69, 80
2, 179516, Note_off_c, 0, 69, 100
2, 179520, Note_on_c, 0, 66, 80
2, 179708, Note_off_c, 0, 60, 100
2, 179708, Note_off_c, 0, 66, 100
2, 179712, Note_on_c, 0, 67, 80
2, 179712, Note_on_c, 0, 59, 80
2, 180092, Note_off_c, 0, 67, 100
2, 180092, Note_off_c, 0, 59, 100
2, 180096, Note_on_c, 0, 62, 80
2, 180284, Note_off_c, 0, 62, 100
2, 180288, Note_on_c, 0, 62, 80
2, 180476, Note_off_c, 0, 62, 100
2, 180480, Note_on_c, 0, 69, 80
2, 180668, Note_off_c, 0, 69, 100
2, 180672, Note_on_c, 0, 71, 80
2, 180860, Note_off_c, 0, 71, 100
2, 180864, Note_on_c, 0, 72, 80
2, 181244, Note_off_c, 0, 72, 100
2, 181248, Note_on_c, 0, 74, 80
2, 181436, Note_off_c, 0, 74, 100
2, 181440, Note_on_c, 0, 74, 80
2, 181628, Note_off_c, 0, 74, 100
2, 181632, Note_on_c, 0, 81, 80
2, 181820, Note_off_c, 0, 81, 100
2, 181824, Note_on_c, 0, 83, 80
2, 182012, Note_off_c, 0, 83, 100
2, 182016, Note_on_c, 0, 84, 80
2, 182396, Note_off_c, 0, 84, 100
2, 182400, Note_on_c, 0, 62, 80
2, 182588, Note_off_c, 0, 62, 100
2, 182592, Note_on_c, 0, 62, 80
2, 182780, Note_off_c, 0, 62, 100
2, 182784, Note_on_c, 0, 74, 80
2, 182972, Note_off_c, 0, 74, 100
2, 182976, Note_on_c, 0, 72, 80
2, 183164, Note_off_c, 0, 72, 100
2, 183168, Note_on_c, 0, 71, 80
2, 183548, Note_off_c, 0, 71, 100
2, 183552, Note_on_c, 0, 74, 80
2, 183740, Note_off_c, 0, 74, 100
2, 183744, Note_on_c, 0, 74, 80
2, 183932, Note_off_c, 0, 74, 100
2, 183936, Note_on_c, 0, 86, 80
2, 184124, Note_off_c, 0, 86, 100
2, 184128, Note_on_c, 0, 84, 80
2, 184316, Note_off_c, 0, 84, 100
2, 184320, Note_on_c, 0, 83, 80
2, 184700, Note_off_c, 0, 83, 100
2, 184704, Note_on_c, 0, 62, 80
2, 184892, Note_off_c, 0, 62, 100
2, 184896, Note_on_c, 0, 62, 80
2, 185084, Note_off_c, 0, 62, 100
2, 185088, Note_on_c, 0, 69, 80
2, 185276, Note_off_c, 0, 69, 100
2, 185280, Note_on_c, 0, 71, 80
2, 185468, Note_off_c, 0, 71, 100
2, 185472, Note_on_c, 0, 72, 80
2, 185852, Note_off_c, 0, 72, 100
2, 185856, Note_on_c, 0, 74, 80
2, 186044, Note_off_c, 0, 74, 100
2, 186048, Note_on_c, 0, 74, 80
2, 186236, Note_off_c, 0, 74, 100
2, 186240, Note_on_c, 0, 81, 80
2, 186428, Note_off_c, 0, 81, 100
2, 186432, Note_on_c, 0, 83, 80
2, 186620, Note_off_c, 0, 83, 100
2, 186624, Note_on_c, 0, 84, 80
2, 187004, Note_off_c, 0, 84, 100
2, 187008, Note_on_c, 0, 62, 80
2, 187196, Note_off_c, 0, 62, 100
2, 187200, Note_on_c, 0, 62, 80
2, 187388, Note_off_c, 0, 62, 100
2, 187392, Note_on_c, 0, 74, 80
2, 187580, Note_off_c, 0, 74, 100
2, 187584, Note_on_c, 0, 72, 80
2, 187772, Note_off_c, 0, 72, 100
2, 187776, Note_on_c, 0, 71, 80
2, 188156, Note_off_c, 0, 71, 100
2, 188352, Note_on_c, 0, 74, 80
2, 188540, Note_off_c, 0, 74, 100
2, 188544, Note_on_c, 0, 86, 80
2, 188732, Note_off_c, 0, 86, 100
2, 188736, Note_on_c, 0, 84, 80
2, 188924, Note_off_c, 0, 84, 100
2, 188928, Note_on_c, 0, 83, 80
2, 189308, Note_off_c, 0, 83, 100
2, 189504, Note_on_c, 0, 62, 80
2, 189692, Note_off_c, 0, 62, 100
2, 189696, Note_on_c, 0, 74, 80
2, 189884, Note_off_c, 0, 74, 100
2, 189888, Note_on_c, 0, 72, 80
2, 190076, Note_off_c, 0, 72, 100
2, 190080, Note_on_c, 0, 71, 80
2, 190460, Note_off_c, 0, 71, 100
2, 190656, Note_on_c, 0, 74, 80
2, 190844, Note_off_c, 0, 74, 100
2, 190848, Note_on_c, 0, 86, 80
2, 191036, Note_off_c, 0, 86, 100
2, 191040, Note_on_c, 0, 84, 80
2, 191228, Note_off_c, 0, 84, 100
2, 191232, Note_on_c, 0, 83, 80
2, 191612, Note_off_c, 0, 83, 100
2, 191808, Note_on_c, 0, 83, 120
2, 191808, Note_on_c, 0, 79, 120
2, 191808, Note_on_c, 0, 74, 120
2, 191808, Note_on_c, 0, 71, 120
2, 192188, Note_off_c, 0, 83, 100
2, 192188, Note_off_c, 0, 79, 100
2, 192188, Note_off_c, 0, 74, 100
2, 192188, Note_off_c, 0, 71, 100
2, 192384, Note_on_c, 0, 79, 120
2, 192384, Note_on_c, 0, 74, 120
2, 192384, Note_on_c, 0, 71, 120
2, 192384, Note_on_c, 0, 67, 120
2, 193148, Note_off_c, 0, 79, 100
2, 193148, Note_off_c, 0, 74, 100
2, 193148, Note_off_c, 0, 71, 100
2, 193148, Note_off_c, 0, 67, 100
2, 193728, Control_c, 0, 7, 0
2, 193920, Note_on_c, 0, 67, 100
2, 194302, Note_off_c, 0, 67, 100
2, 194302, End_track
3, 0, Start_track
3, 0, Title_t, "Left"
3, 0, Control_c, 1, 0, 0
3, 0, Program_c, 1, 0
3, 0, Control_c, 1, 7, 100
3, 0, Control_c, 1, 10, 58
3, 0, Control_c, 1, 91, 127
3, 0, Key_signature, 1, "major"
3, 768, Note_on_c, 1, 62, 80
3, 768, Note_on_c, 1, 59, 80
3, 956, Note_off_c, 1, 62, 100
3, 956, Note_off_c, 1, 59, 100
3, 960, Note_on_c, 1, 60, 80
3, 960, Note_on_c, 1, 57, 80
3, 1148, Note_off_c, 1, 60, 100
3, 1148, Note_off_c, 1, 57, 100
3, 1152, Note_on_c, 1, 59, 80
3, 1152, Note_on_c, 1, 55, 80
3, 1532, Note_off_c, 1, 59, 100
3, 1532, Note_off_c, 1, 55, 100
3, 1920, Note_on_c, 1, 64, 80
3, 1920, Note_on_c, 1, 60, 80
3, 2108, Note_off_c, 1, 64, 100
3, 2108, Note_off_c, 1, 60, 100
3, 2112, Note_on_c, 1, 62, 80
3, 2112, Note_on_c, 1, 59, 80
3, 2300, Note_off_c, 1, 62, 100
3, 2300, Note_off_c, 1, 59, 100
3, 2304, Note_on_c, 1, 60, 80
3, 2304, Note_on_c, 1, 57, 80
3, 2684, Note_off_c, 1, 60, 100
3, 2684, Note_off_c, 1, 57, 100
3, 3072, Note_on_c, 1, 57, 80
3, 3072, Note_on_c, 1, 54, 80
3, 3260, Note_off_c, 1, 57, 100
3, 3260, Note_off_c, 1, 54, 100
3, 3264, Note_on_c, 1, 59, 80
3, 3264, Note_on_c, 1, 55, 80
3, 3452, Note_off_c, 1, 59, 100
3, 3452, Note_off_c, 1, 55, 100
3, 3456, Note_on_c, 1, 60, 80
3, 3456, Note_on_c, 1, 57, 80
3, 3644, Note_off_c, 1, 60, 100
3, 3644, Note_off_c, 1, 57, 100
3, 3648, Note_on_c, 1, 62, 80
3, 3648, Note_on_c, 1, 59, 80
3, 3836, Note_off_c, 1, 62, 100
3, 3836, Note_off_c, 1, 59, 100
3, 3840, Note_on_c, 1, 64, 80
3, 3840, Note_on_c, 1, 60, 80
3, 4028, Note_off_c, 1, 64, 100
3, 4028, Note_off_c, 1, 60, 100
3, 4032, Note_on_c, 1, 64, 80
3, 4032, Note_on_c, 1, 61, 80
3, 4604, Note_off_c, 1, 64, 100
3, 4604, Note_off_c, 1, 61, 100
3, 4608, Note_on_c, 1, 62, 80
3, 4988, Note_off_c, 1, 62, 100
3, 5376, Note_on_c, 1, 62, 80
3, 5376, Note_on_c, 1, 59, 80
3, 5564, Note_off_c, 1, 62, 100
3, 5564, Note_off_c, 1, 59, 100
3, 5568, Note_on_c, 1, 60, 80
3, 5568, Note_on_c, 1, 57, 80
3, 5756, Note_off_c, 1, 60, 100
3, 5756, Note_off_c, 1, 57, 100
3, 5760, Note_on_c, 1, 59, 80
3, 5760, Note_on_c, 1, 55, 80
3, 6140, Note_off_c, 1, 59, 100
3, 6140, Note_off_c, 1, 55, 100
3, 6528, Note_on_c, 1, 64, 80
3, 6528, Note_on_c, 1, 60, 80
3, 6716, Note_off_c, 1, 64, 100
3, 6716, Note_off_c, 1, 60, 100
3, 6720, Note_on_c, 1, 62, 80
3, 6720, Note_on_c, 1, 59, 80
3, 6908, Note_off_c, 1, 62, 100
3, 6908, Note_off_c, 1, 59, 100
3, 6912, Note_on_c, 1, 60, 80
3, 6912, Note_on_c, 1, 57, 80
3, 7292, Note_off_c, 1, 60, 100
3, 7292, Note_off_c, 1, 57, 100
3, 7680, Note_on_c, 1, 57, 80
3, 7680, Note_on_c, 1, 54, 80
3, 7868, Note_off_c, 1, 57, 100
3, 7868, Note_off_c, 1, 54, 100
3, 7872, Note_on_c, 1, 59, 80
3, 7872, Note_on_c, 1, 55, 80
3, 8060, Note_off_c, 1, 59, 100
3, 8060, Note_off_c, 1, 55, 100
3, 8064, Note_on_c, 1, 60, 80
3, 8064, Note_on_c, 1, 57, 80
3, 8252, Note_off_c, 1, 60, 100
3, 8252, Note_off_c, 1, 57, 100
3, 8256, Note_on_c, 1, 62, 80
3, 8256, Note_on_c, 1, 59, 80
3, 8444, Note_off_c, 1, 62, 100
3, 8444, Note_off_c, 1, 59, 100
3, 8448, Note_on_c, 1, 64, 80
3, 8448, Note_on_c, 1, 60, 80
3, 8636, Note_off_c, 1, 64, 100
3, 8636, Note_off_c, 1, 60, 100
3, 8640, Note_on_c, 1, 59, 80
3, 8640, Note_on_c, 1, 50, 80
3, 9020, Note_off_c, 1, 59, 100
3, 9020, Note_off_c, 1, 50, 100
3, 9024, Note_on_c, 1, 57, 80
3, 9024, Note_on_c, 1, 50, 80
3, 9212, Note_off_c, 1, 57, 100
3, 9212, Note_off_c, 1, 50, 100
3, 9216, Note_on_c, 1, 55, 80
3, 9216, Note_on_c, 1, 43, 80
3, 9596, Note_off_c, 1, 55, 100
3, 9596, Note_off_c, 1, 43, 100
3, 10560, Note_on_c, 1, 62, 80
3, 10560, Note_on_c, 1, 54, 80
3, 10748, Note_off_c, 1, 62, 100
3, 10748, Note_off_c, 1, 54, 100
3, 10752, Note_on_c, 1, 62, 80
3, 10752, Note_on_c, 1, 54, 80
3, 10940, Note_off_c, 1, 62, 100
3, 10940, Note_off_c, 1, 54, 100
3, 11136, Note_on_c, 1, 62, 80
3, 11136, Note_on_c, 1, 55, 80
3, 11324, Note_off_c, 1, 62, 100
3, 11324, Note_off_c, 1, 55, 100
3, 11328, Note_on_c, 1, 62, 80
3, 11328, Note_on_c, 1, 55, 80
3, 11516, Note_off_c, 1, 62, 100
3, 11516, Note_off_c, 1, 55, 100
3, 11712, Note_on_c, 1, 62, 80
3, 11712, Note_on_c, 1, 54, 80
3, 11900, Note_off_c, 1, 62, 100
3, 11900, Note_off_c, 1, 54, 100
3, 11904, Note_on_c, 1, 62, 80
3, 11904, Note_on_c, 1, 54, 80
3, 12092, Note_off_c, 1, 62, 100
3, 12092, Note_off_c, 1, 54, 100
3, 12288, Note_on_c, 1, 62, 82
3, 12288, Note_on_c, 1, 55, 82
3, 12476, Note_off_c, 1, 62, 100
3, 12476, Note_off_c, 1, 55, 100
3, 12480, Note_on_c, 1, 62, 84
3, 12480, Note_on_c, 1, 55, 84
3, 12668, Note_off_c, 1, 62, 100
3, 12668, Note_off_c, 1, 55, 100
3, 12864, Note_on_c, 1, 62, 89
3, 12864, Note_on_c, 1, 54, 89
3, 13052, Note_off_c, 1, 62, 100
3, 13052, Note_off_c, 1, 54, 100
3, 13056, Note_on_c, 1, 62, 92
3, 13056, Note_on_c, 1, 55, 92
3, 13244, Note_off_c, 1, 62, 100
3, 13244, Note_off_c, 1, 55, 100
3, 13440, Note_on_c, 1, 62, 97
3, 13440, Note_on_c, 1, 54, 97
3, 13628, Note_off_c, 1, 62, 100
3, 13628, Note_off_c, 1, 54, 100
3, 13632, Note_on_c, 1, 62, 99
3, 13632, Note_on_c, 1, 55, 99
3, 13820, Note_off_c, 1, 62, 100
3, 13820, Note_off_c, 1, 55, 100
3, 13824, Note_on_c, 1, 62, 100
3, 13824, Note_on_c, 1, 54, 100
3, 15356, Note_off_c, 1, 54, 100
3, 15356, Note_off_c, 1, 62, 100
3, 15744, Note_on_c, 1, 74, 80
3, 15744, Note_on_c, 1, 71, 80
3, 15932, Note_off_c, 1, 74, 100
3, 15932, Note_off_c, 1, 71, 100
3, 15936, Note_on_c, 1, 72, 80
3, 15936, Note_on_c, 1, 69, 80
3, 16124, Note_off_c, 1, 72, 100
3, 16124, Note_off_c, 1, 69, 100
3, 16128, Note_on_c, 1, 71, 80
3, 16128, Note_on_c, 1, 67, 80
3, 16508, Note_off_c, 1, 71, 100
3, 16508, Note_off_c, 1, 67, 100
3, 16896, Note_on_c, 1, 76, 80
3, 16896, Note_on_c, 1, 72, 80
3, 17084, Note_off_c, 1, 76, 100
3, 17084, Note_off_c, 1, 72, 100
3, 17088, Note_on_c, 1, 74, 80
3, 17088, Note_on_c, 1, 71, 80
3, 17276, Note_off_c, 1, 74, 100
3, 17276, Note_off_c, 1, 71, 100
3, 17280, Note_on_c, 1, 72, 80
3, 17280, Note_on_c, 1, 69, 80
3, 17660, Note_off_c, 1, 72, 100
3, 17660, Note_off_c, 1, 69, 100
3, 18048, Note_on_c, 1, 69, 80
3, 18048, Note_on_c, 1, 66, 80
3, 18236, Note_off_c, 1, 69, 100
3, 18236, Note_off_c, 1, 66, 100
3, 18240, Note_on_c, 1, 71, 80
3, 18240, Note_on_c, 1, 67, 80
3, 18428, Note_off_c, 1, 71, 100
3, 18428, Note_off_c, 1, 67, 100
3, 18432, Note_on_c, 1, 72, 80
3, 18432, Note_on_c, 1, 69, 80
3, 18620, Note_off_c, 1, 72, 100
3, 18620, Note_off_c, 1, 69, 100
3, 18624, Note_on_c, 1, 74, 80
3, 18624, Note_on_c, 1, 71, 80
3, 18812, Note_off_c, 1, 74, 100
3, 18812, Note_off_c, 1, 71, 100
3, 18816, Note_on_c, 1, 76, 80
3, 18816, Note_on_c, 1, 72, 80
3, 19004, Note_off_c, 1, 76, 100
3, 19004, Note_off_c, 1, 72, 100
3, 19008, Note_on_c, 1, 71, 80
3, 19008, Note_on_c, 1, 62, 80
3, 19388, Note_off_c, 1, 71, 100
3, 19388, Note_off_c, 1, 62, 100
3, 19392, Note_on_c, 1, 69, 80
3, 19392, Note_on_c, 1, 62, 80
3, 19580, Note_off_c, 1, 69, 100
3, 19580, Note_off_c, 1, 62, 100
3, 19584, Note_on_c, 1, 67, 80
3, 19584, Note_on_c, 1, 55, 80
3, 19964, Note_off_c, 1, 67, 100
3, 19964, Note_off_c, 1, 55, 100
3, 19968, Note_on_c, 1, 62, 110
3, 20156, Note_off_c, 1, 62, 100
3, 20160, Note_on_c, 1, 63, 110
3, 20204, Note_off_c, 1, 63, 100
3, 20206, Note_on_c, 1, 62, 110
3, 20348, Note_off_c, 1, 62, 100
3, 20352, Note_on_c, 1, 61, 110
3, 20540, Note_off_c, 1, 61, 100
3, 20544, Note_on_c, 1, 62, 110
3, 20732, Note_off_c, 1, 62, 100
3, 20736, Note_on_c, 1, 63, 110
3, 21116, Note_off_c, 1, 63, 100
3, 21120, Note_on_c, 1, 62, 110
3, 21308, Note_off_c, 1, 62, 100
3, 21312, Note_on_c, 1, 60, 110
3, 21500, Note_off_c, 1, 60, 100
3, 21504, Note_on_c, 1, 58, 110
3, 21692, Note_off_c, 1, 58, 100
3, 21696, Note_on_c, 1, 57, 110
3, 21884, Note_off_c, 1, 57, 100
3, 21888, Note_on_c, 1, 62, 110
3, 22268, Note_off_c, 1, 62, 100
3, 22272, Note_on_c, 1, 60, 110
3, 22460, Note_off_c, 1, 60, 100
3, 22464, Note_on_c, 1, 58, 110
3, 22652, Note_off_c, 1, 58, 100
3, 22656, Note_on_c, 1, 57, 110
3, 22844, Note_off_c, 1, 57, 100
3, 22848, Note_on_c, 1, 55, 110
3, 23036, Note_off_c, 1, 55, 100
3, 23040, Note_on_c, 1, 57, 110
3, 23040, Note_on_c, 1, 48, 110
3, 23612, Note_off_c, 1, 57, 100
3, 23612, Note_off_c, 1, 48, 100
3, 23616, Note_on_c, 1, 60, 110
3, 23616, Note_on_c, 1, 50, 110
3, 24188, Note_off_c, 1, 60, 100
3, 24188, Note_off_c, 1, 50, 100
3, 24192, Key_signature, -2, "minor"
3, 24192, Control_c, 1, 64, 127
3, 24192, Note_on_c, 1, 55, 100
3, 24284, Note_off_c, 1, 55, 100
3, 24288, Note_on_c, 1, 62, 94
3, 24380, Note_off_c, 1, 62, 100
3, 24384, Note_on_c, 1, 58, 87
3, 24476, Note_off_c, 1, 58, 100
3, 24480, Note_on_c, 1, 62, 81
3, 24572, Note_off_c, 1, 62, 100
3, 24576, Note_on_c, 1, 58, 80
3, 24668, Note_off_c, 1, 58, 100
3, 24672, Note_on_c, 1, 62, 80
3, 24764, Note_off_c, 1, 62, 100
3, 24764, Control_c, 1, 64, 0
3, 24768, Control_c, 1, 64, 127
3, 24768, Note_on_c, 1, 54, 80
3, 24860, Note_off_c, 1, 54, 100
3, 24864, Note_on_c, 1, 62, 80
3, 24956, Note_off_c, 1, 62, 100
3, 24960, Note_on_c, 1, 57, 80
3, 25052, Note_off_c, 1, 57, 100
3, 25056, Note_on_c, 1, 62, 80
3, 25148, Note_off_c, 1, 62, 100
3, 25152, Note_on_c, 1, 57, 80
3, 25244, Note_off_c, 1, 57, 100
3, 25248, Note_on_c, 1, 62, 80
3, 25340, Note_off_c, 1, 62, 100
3, 25340, Control_c, 1, 64, 0
3, 25344, Control_c, 1, 64, 127
3, 25344, Note_on_c, 1, 55, 90
3, 25436, Note_off_c, 1, 55, 100
3, 25440, Note_on_c, 1, 62, 91
3, 25532, Note_off_c, 1, 62, 100
3, 25536, Note_on_c, 1, 58, 93
3, 25628, Note_off_c, 1, 58, 100
3, 25632, Note_on_c, 1, 62, 95
3, 25724, Note_off_c, 1, 62, 100
3, 25728, Note_on_c, 1, 58, 96
3, 25820, Note_off_c, 1, 58, 100
3, 25824, Note_on_c, 1, 62, 98
3, 25916, Note_off_c, 1, 62, 100
3, 25916, Control_c, 1, 64, 0
3, 25920, Control_c, 1, 64, 127
3, 25920, Note_on_c, 1, 54, 100
3, 26012, Note_off_c, 1, 54, 100
3, 26016, Note_on_c, 1, 62, 101
3, 26108, Note_off_c, 1, 62, 100
3, 26112, Note_on_c, 1, 57, 103
3, 26204, Note_off_c, 1, 57, 100
3, 26208, Note_on_c, 1, 62, 105
3, 26300, Note_off_c, 1, 62, 100
3, 26304, Note_on_c, 1, 57, 106
3, 26396, Note_off_c, 1, 57, 100
3, 26400, Note_on_c, 1, 62, 108
3, 26492, Note_off_c, 1, 62, 100
3, 26492, Control_c, 1, 64, 0
3, 26496, Control_c, 1, 64, 127
3, 26496, Note_on_c, 1, 55, 110
3, 26588, Note_off_c, 1, 55, 100
3, 26592, Note_on_c, 1, 62, 110
3, 26684, Note_off_c, 1, 62, 100
3, 26688, Note_on_c, 1, 58, 110
3, 26780, Note_off_c, 1, 58, 100
3, 26784, Note_on_c, 1, 62, 110
3, 26876, Note_off_c, 1, 62, 100
3, 26880, Note_on_c, 1, 58, 110
3, 26972, Note_off_c, 1, 58, 100
3, 26976, Note_on_c, 1, 62, 110
3, 27068, Note_off_c, 1, 62, 100
3, 27068, Control_c, 1, 64, 0
3, 27072, Control_c, 1, 64, 127
3, 27072, Note_on_c, 1, 55, 110
3, 27164, Note_off_c, 1, 55, 100
3, 27168, Note_on_c, 1, 62, 110
3, 27260, Note_off_c, 1, 62, 100
3, 27264, Note_on_c, 1, 58, 110
3, 27356, Note_off_c, 1, 58, 100
3, 27360, Note_on_c, 1, 62, 110
3, 27452, Note_off_c, 1, 62, 100
3, 27456, Note_on_c, 1, 58, 110
3, 27548, Note_off_c, 1, 58, 100
3, 27552, Note_on_c, 1, 62, 110
3, 27644, Note_off_c, 1, 62, 100
3, 27644, Control_c, 1, 64, 0
3, 27648, Control_c, 1, 64, 127
3, 27648, Note_on_c, 1, 57, 110
3, 27740, Note_off_c, 1, 57, 100
3, 27744, Note_on_c, 1, 62, 110
3, 27836, Note_off_c, 1, 62, 100
3, 27840, Note_on_c, 1, 57, 110
3, 27932, Note_off_c, 1, 57, 100
3, 27936, Note_on_c, 1, 62, 110
3, 28028, Note_off_c, 1, 62, 100
3, 28032, Note_on_c, 1, 57, 110
3, 28124, Note_off_c, 1, 57, 100
3, 28128, Note_on_c, 1, 61, 110
3, 28220, Note_off_c, 1, 61, 100
3, 28220, Control_c, 1, 64, 0
3, 28224, Control_c, 1, 64, 127
3, 28224, Note_on_c, 1, 50, 110
3, 28316, Note_off_c, 1, 50, 100
3, 28320, Note_on_c, 1, 62, 110
3, 28412, Note_off_c, 1, 62, 100
3, 28416, Note_on_c, 1, 61, 110
3, 28508, Note_off_c, 1, 61, 100
3, 28512, Note_on_c, 1, 62, 110
3, 28604, Note_off_c, 1, 62, 100
3, 28608, Note_on_c, 1, 60, 110
3, 28700, Note_off_c, 1, 60, 100
3, 28704, Note_on_c, 1, 57, 110
3, 28796, Note_off_c, 1, 57, 100
3, 28796, Control_c, 1, 64, 0
3, 28800, Control_c, 1, 64, 127
3, 28800, Note_on_c, 1, 55, 80
3, 28892, Note_off_c, 1, 55, 100
3, 28896, Note_on_c, 1, 62, 80
3, 28988, Note_off_c, 1, 62, 100
3, 28992, Note_on_c, 1, 58, 80
3, 29084, Note_off_c, 1, 58, 100
3, 29088, Note_on_c, 1, 62, 80
3, 29180, Note_off_c, 1, 62, 100
3, 29184, Note_on_c, 1, 58, 80
3, 29276, Note_off_c, 1, 58, 100
3, 29280, Note_on_c, 1, 62, 80
3, 29372, Note_off_c, 1, 62, 100
3, 29372, Control_c, 1, 64, 0
3, 29376, Control_c, 1, 64, 127
3, 29376, Note_on_c, 1, 54, 80
3, 29468, Note_off_c, 1, 54, 100
3, 29472, Note_on_c, 1, 62, 80
3, 29564, Note_off_c, 1, 62, 100
3, 29568, Note_on_c, 1, 57, 80
3, 29660, Note_off_c, 1, 57, 100
3, 29664, Note_on_c, 1, 62, 80
3, 29756, Note_off_c, 1, 62, 100
3, 29760, Note_on_c, 1, 57, 80
3, 29852, Note_off_c, 1, 57, 100
3, 29856, Note_on_c, 1, 62, 80
3, 29948, Note_off_c, 1, 62, 100
3, 29948, Control_c, 1, 64, 0
3, 29952, Control_c, 1, 64, 127
3, 29952, Note_on_c, 1, 55, 80
3, 30044, Note_off_c, 1, 55, 100
3, 30048, Note_on_c, 1, 62, 80
3, 30140, Note_off_c, 1, 62, 100
3, 30144, Note_on_c, 1, 58, 80
3, 30236, Note_off_c, 1, 58, 100
3, 30240, Note_on_c, 1, 62, 80
3, 30332, Note_off_c, 1, 62, 100
3, 30336, Note_on_c, 1, 58, 80
3, 30428, Note_off_c, 1, 58, 100
3, 30432, Note_on_c, 1, 62, 80
3, 30524, Note_off_c, 1, 62, 100
3, 30524, Control_c, 1, 64, 0
3, 30528, Control_c, 1, 64, 127
3, 30528, Note_on_c, 1, 55, 80
3, 30620, Note_off_c, 1, 55, 100
3, 30624, Note_on_c, 1, 63, 80
3, 30716, Note_off_c, 1, 63, 100
3, 30720, Note_on_c, 1, 58, 80
3, 30812, Note_off_c, 1, 58, 100
3, 30816, Note_on_c, 1, 63, 80
3, 30908, Note_off_c, 1, 63, 100
3, 30912, Note_on_c, 1, 58, 80
3, 31004, Note_off_c, 1, 58, 100
3, 31008, Note_on_c, 1, 63, 80
3, 31100, Note_off_c, 1, 63, 100
3, 31100, Control_c, 1, 64, 0
3, 31104, Control_c, 1, 64, 127
3, 31104, Note_on_c, 1, 57, 80
3, 31196, Note_off_c, 1, 57, 100
3, 31200, Note_on_c, 1, 65, 80
3, 31292, Note_off_c, 1, 65, 100
3, 31296, Note_on_c, 1, 60, 80
3, 31388, Note_off_c, 1, 60, 100
3, 31392, Note_on_c, 1, 65, 80
3, 31484, Note_off_c, 1, 65, 100
3, 31488, Note_on_c, 1, 60, 80
3, 31580, Note_off_c, 1, 60, 100
3, 31584, Note_on_c, 1, 65, 80
3, 31676, Note_off_c, 1, 65, 100
3, 31676, Control_c, 1, 64, 0
3, 31680, Control_c, 1, 64, 127
3, 31680, Note_on_c, 1, 58, 80
3, 31772, Note_off_c, 1, 58, 100
3, 31776, Note_on_c, 1, 65, 80
3, 31868, Note_off_c, 1, 65, 100
3, 31872, Note_on_c, 1, 62, 80
3, 31964, Note_off_c, 1, 62, 100
3, 31968, Note_on_c, 1, 65, 80
3, 32060, Note_off_c, 1, 65, 100
3, 32064, Note_on_c, 1, 62, 80
3, 32156, Note_off_c, 1, 62, 100
3, 32160, Note_on_c, 1, 65, 80
3, 32252, Note_off_c, 1, 65, 100
3, 32252, Control_c, 1, 64, 0
3, 32256, Control_c, 1, 64, 127
3, 32256, Note_on_c, 1, 51, 80
3, 32348, Note_off_c, 1, 51, 100
3, 32352, Note_on_c, 1, 60, 80
3, 32444, Note_off_c, 1, 60, 100
3, 32448, Note_on_c, 1, 55, 80
3, 32540, Note_off_c, 1, 55, 100
3, 32544, Note_on_c, 1, 60, 80
3, 32636, Note_off_c, 1, 60, 100
3, 32640, Note_on_c, 1, 55, 80
3, 32732, Note_off_c, 1, 55, 100
3, 32736, Note_on_c, 1, 60, 80
3, 32828, Note_off_c, 1, 60, 100
3, 32828, Control_c, 1, 64, 0
3, 32832, Control_c, 1, 64, 127
3, 32832, Note_on_c, 1, 53, 80
3, 32924, Note_off_c, 1, 53, 100
3, 32928, Note_on_c, 1, 60, 80
3, 33020, Note_off_c, 1, 60, 100
3, 33024, Note_on_c, 1, 57, 80
3, 33116, Note_off_c, 1, 57, 100
3, 33120, Note_on_c, 1, 60, 80
3, 33212, Note_off_c, 1, 60, 100
3, 33216, Note_on_c, 1, 57, 80
3, 33308, Note_off_c, 1, 57, 100
3, 33312, Note_on_c, 1, 60, 80
3, 33404, Note_off_c, 1, 60, 100
3, 33404, Control_c, 1, 64, 0
3, 33408, Control_c, 1, 64, 127
3, 33408, Note_on_c, 1, 50, 80
3, 33500, Note_off_c, 1, 50, 100
3, 33504, Note_on_c, 1, 62, 80
3, 33596, Note_off_c, 1, 62, 100
3, 33600, Note_on_c, 1, 58, 80
3, 33692, Note_off_c, 1, 58, 100
3, 33696, Note_on_c, 1, 62, 80
3, 33788, Note_off_c, 1, 62, 100
3, 33792, Note_on_c, 1, 58, 80
3, 33884, Note_off_c, 1, 58, 100
3, 33888, Note_on_c, 1, 62, 80
3, 33980, Note_off_c, 1, 62, 100
3, 33980, Control_c, 1, 64, 0
3, 33984, Control_c, 1, 64, 127
3, 33984, Note_on_c, 1, 53, 80
3, 34076, Note_off_c, 1, 53, 100
3, 34080, Note_on_c, 1, 62, 80
3, 34172, Note_off_c, 1, 62, 100
3, 34176, Note_on_c, 1, 58, 80
3, 34268, Note_off_c, 1, 58, 100
3, 34272, Note_on_c, 1, 62, 80
3, 34364, Note_off_c, 1, 62, 100
3, 34368, Note_on_c, 1, 58, 80
3, 34460, Note_off_c, 1, 58, 100
3, 34464, Note_on_c, 1, 62, 80
3, 34556, Note_off_c, 1, 62, 100
3, 34556, Control_c, 1, 64, 0
3, 34560, Control_c, 1, 64, 127
3, 34560, Note_on_c, 1, 51, 80
3, 34652, Note_off_c, 1, 51, 100
3, 34656, Note_on_c, 1, 60, 80
3, 34748, Note_off_c, 1, 60, 100
3, 34752, Note_on_c, 1, 55, 80
3, 34844, Note_off_c, 1, 55, 100
3, 34848, Note_on_c, 1, 60, 80
3, 34940, Note_off_c, 1, 60, 100
3, 34944, Note_on_c, 1, 55, 80
3, 35036, Note_off_c, 1, 55, 100
3, 35040, Note_on_c, 1, 60, 80
3, 35132, Note_off_c, 1, 60, 100
3, 35132, Control_c, 1, 64, 0
3, 35136, Control_c, 1, 64, 127
3, 35136, Note_on_c, 1, 53, 80
3, 35228, Note_off_c, 1, 53, 100
3, 35232, Note_on_c, 1, 60, 80
3, 35324, Note_off_c, 1, 60, 100
3, 35328, Note_on_c, 1, 57, 80
3, 35420, Note_off_c, 1, 57, 100
3, 35424, Note_on_c, 1, 60, 80
3, 35516, Note_off_c, 1, 60, 100
3, 35520, Note_on_c, 1, 57, 80
3, 35612, Note_off_c, 1, 57, 100
3, 35616, Note_on_c, 1, 60, 80
3, 35708, Note_off_c, 1, 60, 100
3, 35708, Control_c, 1, 64, 0
3, 35712, Note_on_c, 1, 62, 80
3, 35712, Note_on_c, 1, 58, 80
3, 36092, Note_off_c, 1, 62, 100
3, 36092, Note_off_c, 1, 58, 100
3, 38208, Note_on_c, 1, 65, 80
3, 38396, Note_off_c, 1, 65, 100
3, 38400, Note_on_c, 1, 65, 80
3, 38588, Note_off_c, 1, 65, 100
3, 38592, Note_on_c, 1, 58, 80
3, 38780, Note_off_c, 1, 58, 100
3, 38784, Note_on_c, 1, 65, 80
3, 38972, Note_off_c, 1, 65, 100
3, 38976, Note_on_c, 1, 65, 80
3, 39164, Note_off_c, 1, 65, 100
3, 39168, Note_on_c, 1, 60, 80
3, 39356, Note_off_c, 1, 60, 100
3, 39360, Note_on_c, 1, 65, 80
3, 39548, Note_off_c, 1, 65, 100
3, 39552, Note_on_c, 1, 65, 80
3, 39740, Note_off_c, 1, 65, 100
3, 39744, Note_on_c, 1, 63, 80
3, 39932, Note_off_c, 1, 63, 100
3, 39936, Note_on_c, 1, 65, 80
3, 40124, Note_off_c, 1, 65, 100
3, 40128, Note_on_c, 1, 65, 80
3, 40316, Note_off_c, 1, 65, 100
3, 40320, Note_on_c, 1, 62, 80
3, 40508, Note_off_c, 1, 62, 100
3, 40512, Note_on_c, 1, 65, 80
3, 40700, Note_off_c, 1, 65, 100
3, 40704, Note_on_c, 1, 65, 80
3, 40892, Note_off_c, 1, 65, 100
3, 40896, Note_on_c, 1, 58, 80
3, 41084, Note_off_c, 1, 58, 100
3, 41088, Note_on_c, 1, 65, 80
3, 41276, Note_off_c, 1, 65, 100
3, 41280, Note_on_c, 1, 65, 80
3, 41468, Note_off_c, 1, 65, 100
3, 41472, Note_on_c, 1, 60, 80
3, 41660, Note_off_c, 1, 60, 100
3, 41664, Note_on_c, 1, 65, 80
3, 41852, Note_off_c, 1, 65, 100
3, 41856, Note_on_c, 1, 65, 80
3, 42044, Note_off_c, 1, 65, 100
3, 42048, Note_on_c, 1, 60, 80
3, 42236, Note_off_c, 1, 60, 100
3, 42240, Note_on_c, 1, 64, 80
3, 42428, Note_off_c, 1, 64, 100
3, 42432, Note_on_c, 1, 64, 80
3, 42620, Note_off_c, 1, 64, 100
3, 42624, Note_on_c, 1, 53, 80
3, 42812, Note_off_c, 1, 53, 100
3, 42816, Note_on_c, 1, 57, 80
3, 43004, Note_off_c, 1, 57, 100
3, 43008, Note_on_c, 1, 60, 80
3, 43196, Note_off_c, 1, 60, 100
3, 43200, Note_on_c, 1, 51, 80
3, 43388, Note_off_c, 1, 51, 100
3, 43392, Note_on_c, 1, 57, 80
3, 43580, Note_off_c, 1, 57, 100
3, 43584, Note_on_c, 1, 60, 80
3, 43772, Note_off_c, 1, 60, 100
3, 43776, Note_on_c, 1, 50, 80
3, 43964, Note_off_c, 1, 50, 100
3, 43968, Note_on_c, 1, 53, 80
3, 44156, Note_off_c, 1, 53, 100
3, 44160, Note_on_c, 1, 53, 80
3, 44348, Note_off_c, 1, 53, 100
3, 44352, Note_on_c, 1, 46, 80
3, 44540, Note_off_c, 1, 46, 100
3, 44544, Note_on_c, 1, 53, 80
3, 44732, Note_off_c, 1, 53, 100
3, 44736, Note_on_c, 1, 53, 80
3, 44924, Note_off_c, 1, 53, 100
3, 44928, Note_on_c, 1, 45, 80
3, 45116, Note_off_c, 1, 45, 100
3, 45120, Note_on_c, 1, 53, 80
3, 45308, Note_off_c, 1, 53, 100
3, 45312, Note_on_c, 1, 53, 80
3, 45500, Note_off_c, 1, 53, 100
3, 45504, Note_on_c, 1, 41, 80
3, 45692, Note_off_c, 1, 41, 100
3, 45696, Note_on_c, 1, 53, 80
3, 45884, Note_off_c, 1, 53, 100
3, 45888, Note_on_c, 1, 53, 80
3, 46076, Note_off_c, 1, 53, 100
3, 46080, Note_on_c, 1, 46, 80
3, 46268, Note_off_c, 1, 46, 100
3, 46272, Note_on_c, 1, 53, 80
3, 46460, Note_off_c, 1, 53, 100
3, 46464, Note_on_c, 1, 58, 80
3, 46652, Note_off_c, 1, 58, 100
3, 46656, Note_on_c, 1, 51, 80
3, 46844, Note_off_c, 1, 51, 100
3, 46848, Note_on_c, 1, 55, 80
3, 47036, Note_off_c, 1, 55, 100
3, 47040, Note_on_c, 1, 60, 80
3, 47228, Note_off_c, 1, 60, 100
3, 47232, Note_on_c, 1, 53, 80
3, 47420, Note_off_c, 1, 53, 100
3, 47424, Note_on_c, 1, 65, 80
3, 47612, Note_off_c, 1, 65, 100
3, 47616, Note_on_c, 1, 65, 80
3, 47804, Note_off_c, 1, 65, 100
3, 47808, Note_on_c, 1, 58, 80
3, 47996, Note_off_c, 1, 58, 100
3, 48000, Note_on_c, 1, 65, 80
3, 48188, Note_off_c, 1, 65, 100
3, 48192, Note_on_c, 1, 65, 80
3, 48380, Note_off_c, 1, 65, 100
3, 48384, Note_on_c, 1, 60, 80
3, 48572, Note_off_c, 1, 60, 100
3, 48576, Note_on_c, 1, 65, 80
3, 48764, Note_off_c, 1, 65, 100
3, 48768, Note_on_c, 1, 65, 80
3, 48956, Note_off_c, 1, 65, 100
3, 48960, Note_on_c, 1, 63, 80
3, 49148, Note_off_c, 1, 63, 100
3, 49152, Note_on_c, 1, 65, 80
3, 49340, Note_off_c, 1, 65, 100
3, 49344, Note_on_c, 1, 65, 80
3, 49532, Note_off_c, 1, 65, 100
3, 49536, Note_on_c, 1, 62, 80
3, 49724, Note_off_c, 1, 62, 100
3, 49728, Note_on_c, 1, 65, 80
3, 49916, Note_off_c, 1, 65, 100
3, 49920, Note_on_c, 1, 65, 80
3, 50108, Note_off_c, 1, 65, 100
3, 50112, Note_on_c, 1, 58, 80
3, 50300, Note_off_c, 1, 58, 100
3, 50304, Note_on_c, 1, 65, 80
3, 50492, Note_off_c, 1, 65, 100
3, 50496, Note_on_c, 1, 65, 80
3, 50684, Note_off_c, 1, 65, 100
3, 50688, Note_on_c, 1, 60, 80
3, 50876, Note_off_c, 1, 60, 100
3, 50880, Note_on_c, 1, 65, 80
3, 51068, Note_off_c, 1, 65, 100
3, 51072, Note_on_c, 1, 65, 80
3, 51260, Note_off_c, 1, 65, 100
3, 51264, Note_on_c, 1, 60, 80
3, 51452, Note_off_c, 1, 60, 100
3, 51456, Note_on_c, 1, 64, 80
3, 51644, Note_off_c, 1, 64, 100
3, 51648, Note_on_c, 1, 64, 80
3, 51836, Note_off_c, 1, 64, 100
3, 51840, Note_on_c, 1, 53, 80
3, 52028, Note_off_c, 1, 53, 100
3, 52032, Note_on_c, 1, 57, 80
3, 52220, Note_off_c, 1, 57, 100
3, 52224, Note_on_c, 1, 60, 80
3, 52412, Note_off_c, 1, 60, 100
3, 52416, Note_on_c, 1, 51, 80
3, 52604, Note_off_c, 1, 51, 100
3, 52608, Note_on_c, 1, 57, 80
3, 52796, Note_off_c, 1, 57, 100
3, 52800, Note_on_c, 1, 60, 80
3, 52988, Note_off_c, 1, 60, 100
3, 52992, Note_on_c, 1, 50, 80
3, 53180, Note_off_c, 1, 50, 100
3, 53184, Note_on_c, 1, 53, 80
3, 53372, Note_off_c, 1, 53, 100
3, 53376, Note_on_c, 1, 53, 80
3, 53564, Note_off_c, 1, 53, 100
3, 53568, Note_on_c, 1, 46, 80
3, 53756, Note_off_c, 1, 46, 100
3, 53760, Note_on_c, 1, 53, 80
3, 53948, Note_off_c, 1, 53, 100
3, 53952, Note_on_c, 1, 53, 80
3, 54140, Note_off_c, 1, 53, 100
3, 54144, Note_on_c, 1, 45, 80
3, 54332, Note_off_c, 1, 45, 100
3, 54336, Note_on_c, 1, 53, 80
3, 54524, Note_off_c, 1, 53, 100
3, 54528, Note_on_c, 1, 53, 80
3, 54716, Note_off_c, 1, 53, 100
3, 54720, Note_on_c, 1, 46, 80
3, 54908, Note_off_c, 1, 46, 100
3, 54912, Note_on_c, 1, 53, 80
3, 55100, Note_off_c, 1, 53, 100
3, 55104, Note_on_c, 1, 53, 80
3, 55292, Note_off_c, 1, 53, 100
3, 55296, Note_on_c, 1, 51, 80
3, 55484, Note_off_c, 1, 51, 100
3, 55488, Note_on_c, 1, 55, 80
3, 55676, Note_off_c, 1, 55, 100
3, 55680, Note_on_c, 1, 60, 80
3, 55868, Note_off_c, 1, 60, 100
3, 55872, Note_on_c, 1, 53, 80
3, 56060, Note_off_c, 1, 53, 100
3, 56064, Note_on_c, 1, 62, 80
3, 56252, Note_off_c, 1, 62, 100
3, 56256, Note_on_c, 1, 63, 80
3, 56444, Note_off_c, 1, 63, 100
3, 56448, Note_on_c, 1, 58, 80
3, 56636, Note_off_c, 1, 58, 100
3, 56640, Note_on_c, 1, 62, 80
3, 56828, Note_off_c, 1, 62, 100
3, 56832, Note_on_c, 1, 65, 80
3, 57020, Note_off_c, 1, 65, 100
3, 57600, Note_on_c, 1, 62, 80
3, 57600, Note_on_c, 1, 65, 80
3, 58172, Note_off_c, 1, 62, 100
3, 58172, Note_off_c, 1, 65, 100
3, 58176, Note_on_c, 1, 65, 80
3, 58176, Note_on_c, 1, 61, 80
3, 58748, Note_off_c, 1, 65, 100
3, 58748, Note_off_c, 1, 61, 100
3, 58752, Note_on_c, 1, 67, 80
3, 58752, Note_on_c, 1, 60, 80
3, 59324, Note_off_c, 1, 67, 100
3, 59324, Note_off_c, 1, 60, 100
3, 59904, Note_on_c, 1, 67, 80
3, 59904, Note_on_c, 1, 60, 80
3, 60476, Note_off_c, 1, 67, 100
3, 60476, Note_off_c, 1, 60, 100
3, 60480, Note_on_c, 1, 66, 80
3, 60480, Note_on_c, 1, 57, 80
3, 61052, Note_off_c, 1, 66, 100
3, 61052, Note_off_c, 1, 57, 100
3, 61056, Note_on_c, 1, 65, 80
3, 61056, Note_on_c, 1, 58, 80
3, 61628, Note_off_c, 1, 65, 100
3, 61628, Note_off_c, 1, 58, 100
3, 61632, Note_on_c, 1, 58, 80
3, 61820, Note_off_c, 1, 58, 100
3, 61824, Note_on_c, 1, 65, 80
3, 62012, Note_off_c, 1, 65, 100
3, 62016, Note_on_c, 1, 65, 80
3, 62204, Note_off_c, 1, 65, 100
3, 62208, Note_on_c, 1, 60, 80
3, 62396, Note_off_c, 1, 60, 100
3, 62400, Note_on_c, 1, 65, 80
3, 62588, Note_off_c, 1, 65, 100
3, 62592, Note_on_c, 1, 65, 80
3, 62780, Note_off_c, 1, 65, 100
3, 62784, Note_on_c, 1, 63, 80
3, 62972, Note_off_c, 1, 63, 100
3, 62976, Note_on_c, 1, 65, 80
3, 63164, Note_off_c, 1, 65, 100
3, 63168, Note_on_c, 1, 65, 80
3, 63356, Note_off_c, 1, 65, 100
3, 63360, Note_on_c, 1, 62, 80
3, 63548, Note_off_c, 1, 62, 100
3, 63552, Note_on_c, 1, 58, 80
3, 63740, Note_off_c, 1, 58, 100
3, 63744, Note_on_c, 1, 58, 80
3, 63932, Note_off_c, 1, 58, 100
3, 63936, Note_on_c, 1, 51, 80
3, 64124, Note_off_c, 1, 51, 100
3, 64128, Note_on_c, 1, 58, 80
3, 64316, Note_off_c, 1, 58, 100
3, 64320, Note_on_c, 1, 58, 80
3, 64508, Note_off_c, 1, 58, 100
3, 64512, Note_on_c, 1, 53, 80
3, 64700, Note_off_c, 1, 53, 100
3, 64704, Note_on_c, 1, 58, 80
3, 64892, Note_off_c, 1, 58, 100
3, 64896, Note_on_c, 1, 58, 80
3, 65084, Note_off_c, 1, 58, 100
3, 65088, Note_on_c, 1, 53, 80
3, 65276, Note_off_c, 1, 53, 100
3, 65280, Note_on_c, 1, 57, 80
3, 65468, Note_off_c, 1, 57, 100
3, 65472, Note_on_c, 1, 57, 80
3, 65660, Note_off_c, 1, 57, 100
3, 65664, Note_on_c, 1, 46, 80
3, 65852, Note_off_c, 1, 46, 100
3, 65856, Note_on_c, 1, 58, 80
3, 66044, Note_off_c, 1, 58, 100
3, 66048, Note_on_c, 1, 58, 80
3, 66236, Note_off_c, 1, 58, 100
3, 66816, Note_on_c, 1, 62, 80
3, 67004, Note_off_c, 1, 62, 100
3, 67008, Note_on_c, 1, 65, 80
3, 67196, Note_off_c, 1, 65, 100
3, 67200, Note_on_c, 1, 65, 80
3, 67388, Note_off_c, 1, 65, 100
3, 67392, Note_on_c, 1, 61, 80
3, 67580, Note_off_c, 1, 61, 100
3, 67584, Note_on_c, 1, 65, 80
3, 67772, Note_off_c, 1, 65, 100
3, 67776, Note_on_c, 1, 65, 80
3, 67964, Note_off_c, 1, 65, 100
3, 67968, Note_on_c, 1, 60, 80
3, 68156, Note_off_c, 1, 60, 100
3, 68160, Note_on_c, 1, 67, 80
3, 68348, Note_off_c, 1, 67, 100
3, 68352, Note_on_c, 1, 67, 80
3, 68540, Note_off_c, 1, 67, 100
3, 68544, Note_on_c, 1, 67, 80
3, 68732, Note_off_c, 1, 67, 100
3, 68736, Note_on_c, 1, 67, 80
3, 68924, Note_off_c, 1, 67, 100
3, 68928, Note_on_c, 1, 67, 80
3, 69116, Note_off_c, 1, 67, 100
3, 69120, Note_on_c, 1, 60, 80
3, 69308, Note_off_c, 1, 60, 100
3, 69312, Note_on_c, 1, 67, 80
3, 69500, Note_off_c, 1, 67, 100
3, 69504, Note_on_c, 1, 67, 80
3, 69692, Note_off_c, 1, 67, 100
3, 69696, Note_on_c, 1, 57, 80
3, 69884, Note_off_c, 1, 57, 100
3, 69888, Note_on_c, 1, 66, 80
3, 70076, Note_off_c, 1, 66, 100
3, 70080, Note_on_c, 1, 66, 80
3, 70268, Note_off_c, 1, 66, 100
3, 70272, Note_on_c, 1, 58, 80
3, 70460, Note_off_c, 1, 58, 100
3, 70464, Note_on_c, 1, 65, 80
3, 70652, Note_off_c, 1, 65, 100
3, 70656, Note_on_c, 1, 65, 80
3, 70844, Note_off_c, 1, 65, 100
3, 70848, Note_on_c, 1, 65, 80
3, 71036, Note_off_c, 1, 65, 100
3, 71040, Note_on_c, 1, 65, 80
3, 71228, Note_off_c, 1, 65, 100
3, 71232, Note_on_c, 1, 65, 80
3, 71420, Note_off_c, 1, 65, 100
3, 71424, Note_on_c, 1, 60, 80
3, 71612, Note_off_c, 1, 60, 100
3, 71616, Note_on_c, 1, 65, 80
3, 71804, Note_off_c, 1, 65, 100
3, 71808, Note_on_c, 1, 65, 80
3, 71996, Note_off_c, 1, 65, 100
3, 72000, Note_on_c, 1, 63, 80
3, 72188, Note_off_c, 1, 63, 100
3, 72192, Note_on_c, 1, 65, 80
3, 72380, Note_off_c, 1, 65, 100
3, 72384, Note_on_c, 1, 65, 80
3, 72572, Note_off_c, 1, 65, 100
3, 72576, Note_on_c, 1, 62, 80
3, 72764, Note_off_c, 1, 62, 100
3, 72768, Note_on_c, 1, 58, 80
3, 72956, Note_off_c, 1, 58, 100
3, 72960, Note_on_c, 1, 58, 80
3, 73148, Note_off_c, 1, 58, 100
3, 73152, Note_on_c, 1, 51, 80
3, 73340, Note_off_c, 1, 51, 100
3, 73344, Note_on_c, 1, 58, 80
3, 73532, Note_off_c, 1, 58, 100
3, 73536, Note_on_c, 1, 63, 80
3, 73724, Note_off_c, 1, 63, 100
3, 73728, Note_on_c, 1, 53, 80
3, 73916, Note_off_c, 1, 53, 100
3, 73920, Note_on_c, 1, 58, 80
3, 74108, Note_off_c, 1, 58, 100
3, 74112, Note_on_c, 1, 62, 80
3, 74300, Note_off_c, 1, 62, 100
3, 74304, Note_on_c, 1, 53, 80
3, 74492, Note_off_c, 1, 53, 100
3, 74496, Note_on_c, 1, 57, 80
3, 74684, Note_off_c, 1, 57, 100
3, 74688, Note_on_c, 1, 63, 80
3, 74876, Note_off_c, 1, 63, 100
3, 74880, Note_on_c, 1, 62, 80
3, 74880, Note_on_c, 1, 58, 80
3, 75260, Note_off_c, 1, 62, 100
3, 75260, Note_off_c, 1, 58, 100
3, 75264, Note_on_c, 1, 62, 110
3, 75452, Note_off_c, 1, 62, 100
3, 75456, Note_on_c, 1, 63, 110
3, 75500, Note_off_c, 1, 63, 100
3, 75502, Note_on_c, 1, 62, 110
3, 75644, Note_off_c, 1, 62, 100
3, 75648, Note_on_c, 1, 61, 110
3, 75836, Note_off_c, 1, 61, 100
3, 75840, Note_on_c, 1, 62, 110
3, 76028, Note_off_c, 1, 62, 100
3, 76032, Note_on_c, 1, 63, 110
3, 76412, Note_off_c, 1, 63, 100
3, 76416, Note_on_c, 1, 62, 110
3, 76604, Note_off_c, 1, 62, 100
3, 76608, Note_on_c, 1, 60, 110
3, 76796, Note_off_c, 1, 60, 100
3, 76800, Note_on_c, 1, 58, 110
3, 76988, Note_off_c, 1, 58, 100
3, 76992, Note_on_c, 1, 57, 110
3, 77180, Note_off_c, 1, 57, 100
3, 77184, Note_on_c, 1, 62, 110
3, 77564, Note_off_c, 1, 62, 100
3, 77568, Note_on_c, 1, 60, 110
3, 77756, Note_off_c, 1, 60, 100
3, 77760, Note_on_c, 1, 58, 110
3, 77948, Note_off_c, 1, 58, 100
3, 77952, Note_on_c, 1, 57, 110
3, 78140, Note_off_c, 1, 57, 100
3, 78144, Note_on_c, 1, 55, 110
3, 78332, Note_off_c, 1, 55, 100
3, 78336, Note_on_c, 1, 57, 110
3, 78336, Note_on_c, 1, 48, 110
3, 78908, Note_off_c, 1, 57, 100
3, 78908, Note_off_c, 1, 48, 100
3, 78912, Note_on_c, 1, 60, 110
3, 78912, Note_on_c, 1, 50, 110
3, 79484, Note_off_c, 1, 60, 100
3, 79484, Note_off_c, 1, 50, 100
3, 79488, Control_c, 1, 64, 127
3, 79488, Note_on_c, 1, 55, 110
3, 79580, Note_off_c, 1, 55, 100
3, 79584, Note_on_c, 1, 62, 110
3, 79676, Note_off_c, 1, 62, 100
3, 79680, Note_on_c, 1, 58, 110
3, 79772, Note_off_c, 1, 58, 100
3, 79776, Note_on_c, 1, 62, 110
3, 79868, Note_off_c, 1, 62, 100
3, 79872, Note_on_c, 1, 58, 80
3, 79964, Note_off_c, 1, 58, 100
3, 79968, Note_on_c, 1, 62, 81
3, 80060, Note_off_c, 1, 62, 100
3, 80060, Control_c, 1, 64, 0
3, 80064, Control_c, 1, 64, 127
3, 80064, Note_on_c, 1, 54, 82
3, 80156, Note_off_c, 1, 54, 100
3, 80160, Note_on_c, 1, 62, 83
3, 80252, Note_off_c, 1, 62, 100
3, 80256, Note_on_c, 1, 57, 84
3, 80348, Note_off_c, 1, 57, 100
3, 80352, Note_on_c, 1, 62, 85
3, 80444, Note_off_c, 1, 62, 100
3, 80448, Note_on_c, 1, 57, 86
3, 80540, Note_off_c, 1, 57, 100
3, 80544, Note_on_c, 1, 62, 87
3, 80636, Note_off_c, 1, 62, 100
3, 80636, Control_c, 1, 64, 0
3, 80640, Control_c, 1, 64, 127
3, 80640, Note_on_c, 1, 55, 88
3, 80732, Note_off_c, 1, 55, 100
3, 80736, Note_on_c, 1, 62, 89
3, 80828, Note_off_c, 1, 62, 100
3, 80832, Note_on_c, 1, 58, 90
3, 80924, Note_off_c, 1, 58, 100
3, 80928, Note_on_c, 1, 62, 91
3, 81020, Note_off_c, 1, 62, 100
3, 81024, Note_on_c, 1, 58, 92
3, 81116, Note_off_c, 1, 58, 100
3, 81120, Note_on_c, 1, 62, 93
3, 81212, Note_off_c, 1, 62, 100
3, 81212, Control_c, 1, 64, 0
3, 81216, Control_c, 1, 64, 127
3, 81216, Note_on_c, 1, 54, 94
3, 81308, Note_off_c, 1, 54, 100
3, 81312, Note_on_c, 1, 62, 95
3, 81404, Note_off_c, 1, 62, 100
3, 81408, Note_on_c, 1, 57, 96
3, 81500, Note_off_c, 1, 57, 100
3, 81504, Note_on_c, 1, 62, 97
3, 81596, Note_off_c, 1, 62, 100
3, 81600, Note_on_c, 1, 57, 98
3, 81692, Note_off_c, 1, 57, 100
3, 81696, Note_on_c, 1, 62, 99
3, 81788, Note_off_c, 1, 62, 100
3, 81788, Control_c, 1, 64, 0
3, 81792, Control_c, 1, 64, 127
3, 81792, Note_on_c, 1, 55, 100
3, 81884, Note_off_c, 1, 55, 100
3, 81888, Note_on_c, 1, 62, 100
3, 81980, Note_off_c, 1, 62, 100
3, 81984, Note_on_c, 1, 58, 100
3, 82076, Note_off_c, 1, 58, 100
3, 82080, Note_on_c, 1, 62, 100
3, 82172, Note_off_c, 1, 62, 100
3, 82176, Note_on_c, 1, 58, 100
3, 82268, Note_off_c, 1, 58, 100
3, 82272, Note_on_c, 1, 62, 100
3, 82364, Note_off_c, 1, 62, 100
3, 82364, Control_c, 1, 64, 0
3, 82368, Control_c, 1, 64, 127
3, 82368, Note_on_c, 1, 55, 100
3, 82460, Note_off_c, 1, 55, 100
3, 82464, Note_on_c, 1, 62, 100
3, 82556, Note_off_c, 1, 62, 100
3, 82560, Note_on_c, 1, 58, 100
3, 82652, Note_off_c, 1, 58, 100
3, 82656, Note_on_c, 1, 62, 100
3, 82748, Note_off_c, 1, 62, 100
3, 82752, Note_on_c, 1, 58, 100
3, 82844, Note_off_c, 1, 58, 100
3, 82848, Note_on_c, 1, 62, 100
3, 82940, Note_off_c, 1, 62, 100
3, 82940, Control_c, 1, 64, 0
3, 82944, Control_c, 1, 64, 127
3, 82944, Note_on_c, 1, 57, 100
3, 83036, Note_off_c, 1, 57, 100
3, 83040, Note_on_c, 1, 62, 100
3, 83132, Note_off_c, 1, 62, 100
3, 83136, Note_on_c, 1, 57, 100
3, 83228, Note_off_c, 1, 57, 100
3, 83232, Note_on_c, 1, 62, 100
3, 83324, Note_off_c, 1, 62, 100
3, 83328, Note_on_c, 1, 57, 100
3, 83420, Note_off_c, 1, 57, 100
3, 83424, Note_on_c, 1, 61, 100
3, 83516, Note_off_c, 1, 61, 100
3, 83516, Control_c, 1, 64, 0
3, 83520, Control_c, 1, 64, 127
3, 83520, Note_on_c, 1, 50, 100
3, 83612, Note_off_c, 1, 50, 100
3, 83616, Note_on_c, 1, 62, 100
3, 83708, Note_off_c, 1, 62, 100
3, 83712, Note_on_c, 1, 61, 100
3, 83804, Note_off_c, 1, 61, 100
3, 83808, Note_on_c, 1, 62, 100
3, 83900, Note_off_c, 1, 62, 100
3, 83904, Note_on_c, 1, 60, 100
3, 83996, Note_off_c, 1, 60, 100
3, 84000, Note_on_c, 1, 57, 100
3, 84092, Note_off_c, 1, 57, 100
3, 84092, Control_c, 1, 64, 0
3, 84096, Control_c, 1, 64, 127
3, 84096, Note_on_c, 1, 55, 80
3, 84188, Note_off_c, 1, 55, 100
3, 84192, Note_on_c, 1, 62, 80
3, 84284, Note_off_c, 1, 62, 100
3, 84288, Note_on_c, 1, 58, 80
3, 84380, Note_off_c, 1, 58, 100
3, 84384, Note_on_c, 1, 62, 80
3, 84476, Note_off_c, 1, 62, 100
3, 84480, Note_on_c, 1, 58, 80
3, 84572, Note_off_c, 1, 58, 100
3, 84576, Note_on_c, 1, 62, 80
3, 84668, Note_off_c, 1, 62, 100
3, 84668, Control_c, 1, 64, 0
3, 84672, Control_c, 1, 64, 127
3, 84672, Note_on_c, 1, 54, 80
3, 84764, Note_off_c, 1, 54, 100
3, 84768, Note_on_c, 1, 62, 80
3, 84860, Note_off_c, 1, 62, 100
3, 84864, Note_on_c, 1, 57, 80
3, 84956, Note_off_c, 1, 57, 100
3, 84960, Note_on_c, 1, 62, 80
3, 85052, Note_off_c, 1, 62, 100
3, 85056, Note_on_c, 1, 57, 80
3, 85148, Note_off_c, 1, 57, 100
3, 85152, Note_on_c, 1, 62, 80
3, 85244, Note_off_c, 1, 62, 100
3, 85244, Control_c, 1, 64, 0
3, 85248, Control_c, 1, 64, 127
3, 85248, Note_on_c, 1, 55, 80
3, 85340, Note_off_c, 1, 55, 100
3, 85344, Note_on_c, 1, 62, 81
3, 85436, Note_off_c, 1, 62, 100
3, 85440, Note_on_c, 1, 58, 82
3, 85532, Note_off_c, 1, 58, 100
3, 85536, Note_on_c, 1, 62, 83
3, 85628, Note_off_c, 1, 62, 100
3, 85632, Note_on_c, 1, 58, 85
3, 85724, Note_off_c, 1, 58, 100
3, 85728, Note_on_c, 1, 62, 86
3, 85820, Note_off_c, 1, 62, 100
3, 85820, Control_c, 1, 64, 0
3, 85824, Control_c, 1, 64, 127
3, 85824, Note_on_c, 1, 55, 87
3, 85916, Note_off_c, 1, 55, 100
3, 85920, Note_on_c, 1, 63, 88
3, 86012, Note_off_c, 1, 63, 100
3, 86016, Note_on_c, 1, 58, 90
3, 86108, Note_off_c, 1, 58, 100
3, 86112, Note_on_c, 1, 63, 91
3, 86204, Note_off_c, 1, 63, 100
3, 86208, Note_on_c, 1, 58, 92
3, 86300, Note_off_c, 1, 58, 100
3, 86304, Note_on_c, 1, 63, 93
3, 86396, Note_off_c, 1, 63, 100
3, 86396, Control_c, 1, 64, 0
3, 86400, Control_c, 1, 64, 127
3, 86400, Note_on_c, 1, 57, 80
3, 86492, Note_off_c, 1, 57, 100
3, 86496, Note_on_c, 1, 65, 80
3, 86588, Note_off_c, 1, 65, 100
3, 86592, Note_on_c, 1, 60, 80
3, 86684, Note_off_c, 1, 60, 100
3, 86688, Note_on_c, 1, 65, 80
3, 86780, Note_off_c, 1, 65, 100
3, 86784, Note_on_c, 1, 60, 80
3, 86876, Note_off_c, 1, 60, 100
3, 86880, Note_on_c, 1, 65, 80
3, 86972, Note_off_c, 1, 65, 100
3, 86972, Control_c, 1, 64, 0
3, 86976, Control_c, 1, 64, 127
3, 86976, Note_on_c, 1, 58, 80
3, 87068, Note_off_c, 1, 58, 100
3, 87072, Note_on_c, 1, 65, 80
3, 87164, Note_off_c, 1, 65, 100
3, 87168, Note_on_c, 1, 62, 80
3, 87260, Note_off_c, 1, 62, 100
3, 87264, Note_on_c, 1, 65, 80
3, 87356, Note_off_c, 1, 65, 100
3, 87360, Note_on_c, 1, 62, 80
3, 87452, Note_off_c, 1, 62, 100
3, 87456, Note_on_c, 1, 65, 80
3, 87548, Note_off_c, 1, 65, 100
3, 87548, Control_c, 1, 64, 0
3, 87552, Control_c, 1, 64, 127
3, 87552, Note_on_c, 1, 55, 80
3, 87644, Note_off_c, 1, 55, 100
3, 87648, Note_on_c, 1, 63, 80
3, 87740, Note_off_c, 1, 63, 100
3, 87744, Note_on_c, 1, 58, 80
3, 87836, Note_off_c, 1, 58, 100
3, 87840, Note_on_c, 1, 63, 80
3, 87932, Note_off_c, 1, 63, 100
3, 87936, Note_on_c, 1, 58, 80
3, 88028, Note_off_c, 1, 58, 100
3, 88032, Note_on_c, 1, 63, 80
3, 88124, Note_off_c, 1, 63, 100
3, 88124, Control_c, 1, 64, 0
3, 88128, Control_c, 1, 64, 127
3, 88128, Note_on_c, 1, 57, 80
3, 88220, Note_off_c, 1, 57, 100
3, 88224, Note_on_c, 1, 63, 80
3, 88316, Note_off_c, 1, 63, 100
3, 88320, Note_on_c, 1, 60, 80
3, 88412, Note_off_c, 1, 60, 100
3, 88416, Note_on_c, 1, 63, 80
3, 88508, Note_off_c, 1, 63, 100
3, 88512, Note_on_c, 1, 60, 80
3, 88604, Note_off_c, 1, 60, 100
3, 88608, Note_on_c, 1, 63, 80
3, 88700, Note_off_c, 1, 63, 100
3, 88700, Control_c, 1, 64, 0
3, 88704, Control_c, 1, 64, 127
3, 88704, Note_on_c, 1, 54, 80
3, 88796, Note_off_c, 1, 54, 100
3, 88800, Note_on_c, 1, 62, 80
3, 88892, Note_off_c, 1, 62, 100
3, 88896, Note_on_c, 1, 57, 80
3, 88988, Note_off_c, 1, 57, 100
3, 88992, Note_on_c, 1, 62, 80
3, 89084, Note_off_c, 1, 62, 100
3, 89088, Note_on_c, 1, 57, 80
3, 89180, Note_off_c, 1, 57, 100
3, 89184, Note_on_c, 1, 62, 80
3, 89276, Note_off_c, 1, 62, 100
3, 89276, Control_c, 1, 64, 0
3, 89280, Control_c, 1, 64, 127
3, 89280, Note_on_c, 1, 55, 80
3, 89372, Note_off_c, 1, 55, 100
3, 89376, Note_on_c, 1, 62, 80
3, 89468, Note_off_c, 1, 62, 100
3, 89472, Note_on_c, 1, 58, 80
3, 89564, Note_off_c, 1, 58, 100
3, 89568, Note_on_c, 1, 62, 80
3, 89660, Note_off_c, 1, 62, 100
3, 89664, Note_on_c, 1, 58, 80
3, 89756, Note_off_c, 1, 58, 100
3, 89760, Note_on_c, 1, 62, 80
3, 89852, Note_off_c, 1, 62, 100
3, 89852, Control_c, 1, 64, 0
3, 89856, Control_c, 1, 64, 127
3, 89856, Note_on_c, 1, 48, 100
3, 89948, Note_off_c, 1, 48, 100
3, 89952, Note_on_c, 1, 57, 100
3, 90044, Note_off_c, 1, 57, 100
3, 90048, Note_on_c, 1, 51, 100
3, 90140, Note_off_c, 1, 51, 100
3, 90144, Note_on_c, 1, 57, 100
3, 90236, Note_off_c, 1, 57, 100
3, 90240, Note_on_c, 1, 51, 100
3, 90332, Note_off_c, 1, 51, 100
3, 90336, Note_on_c, 1, 57, 100
3, 90428, Note_off_c, 1, 57, 100
3, 90428, Control_c, 1, 64, 0
3, 90432, Control_c, 1, 64, 127
3, 90432, Note_on_c, 1, 50, 100
3, 90524, Note_off_c, 1, 50, 100
3, 90528, Note_on_c, 1, 57, 100
3, 90620, Note_off_c, 1, 57, 100
3, 90624, Note_on_c, 1, 54, 100
3, 90716, Note_off_c, 1, 54, 100
3, 90720, Note_on_c, 1, 57, 100
3, 90812, Note_off_c, 1, 57, 100
3, 90816, Note_on_c, 1, 54, 100
3, 90908, Note_off_c, 1, 54, 100
3, 90912, Note_on_c, 1, 57, 100
3, 91004, Note_off_c, 1, 57, 100
3, 91004, Control_c, 1, 64, 0
3, 91008, Note_on_c, 1, 43, 100
3, 91196, Note_off_c, 1, 43, 100
3, 91200, Note_on_c, 1, 55, 100
3, 91388, Note_off_c, 1, 55, 100
3, 92544, Note_on_c, 1, 62, 70
3, 92732, Note_off_c, 1, 62, 100
3, 93696, Note_on_c, 1, 62, 70
3, 93884, Note_off_c, 1, 62, 100
3, 94080, Note_on_c, 1, 62, 80
3, 94080, Note_on_c, 1, 59, 80
3, 94268, Note_off_c, 1, 62, 100
3, 94268, Note_off_c, 1, 59, 100
3, 94272, Note_on_c, 1, 60, 80
3, 94272, Note_on_c, 1, 57, 80
3, 94460, Note_off_c, 1, 60, 100
3, 94460, Note_off_c, 1, 57, 100
3, 94464, Key_signature, 1, "major"
3, 94464, Note_on_c, 1, 59, 80
3, 94464, Note_on_c, 1, 55, 80
3, 94844, Note_off_c, 1, 59, 100
3, 94844, Note_off_c, 1, 55, 100
3, 95232, Note_on_c, 1, 64, 80
3, 95232, Note_on_c, 1, 60, 80
3, 95420, Note_off_c, 1, 64, 100
3, 95420, Note_off_c, 1, 60, 100
3, 95424, Note_on_c, 1, 62, 80
3, 95424, Note_on_c, 1, 59, 80
3, 95612, Note_off_c, 1, 62, 100
3, 95612, Note_off_c, 1, 59, 100
3, 95616, Note_on_c, 1, 60, 80
3, 95616, Note_on_c, 1, 57, 80
3, 95996, Note_off_c, 1, 60, 100
3, 95996, Note_off_c, 1, 57, 100
3, 96384, Note_on_c, 1, 57, 80
3, 96384, Note_on_c, 1, 54, 80
3, 96572, Note_off_c, 1, 57, 100
3, 96572, Note_off_c, 1, 54, 100
3, 96576, Note_on_c, 1, 59, 80
3, 96576, Note_on_c, 1, 55, 80
3, 96764, Note_off_c, 1, 59, 100
3, 96764, Note_off_c, 1, 55, 100
3, 96768, Note_on_c, 1, 60, 80
3, 96768, Note_on_c, 1, 57, 80
3, 96956, Note_off_c, 1, 60, 100
3, 96956, Note_off_c, 1, 57, 100
3, 96960, Note_on_c, 1, 62, 80
3, 96960, Note_on_c, 1, 59, 80
3, 97148, Note_off_c, 1, 62, 100
3, 97148, Note_off_c, 1, 59, 100
3, 97152, Note_on_c, 1, 64, 80
3, 97152, Note_on_c, 1, 60, 80
3, 97340, Note_off_c, 1, 64, 100
3, 97340, Note_off_c, 1, 60, 100
3, 97344, Note_on_c, 1, 64, 80
3, 97344, Note_on_c, 1, 61, 80
3, 97916, Note_off_c, 1, 64, 100
3, 97916, Note_off_c, 1, 61, 100
3, 97920, Note_on_c, 1, 62, 80
3, 98300, Note_off_c, 1, 62, 100
3, 98688, Note_on_c, 1, 62, 80
3, 98688, Note_on_c, 1, 59, 80
3, 98876, Note_off_c, 1, 62, 100
3, 98876, Note_off_c, 1, 59, 100
3, 98880, Note_on_c, 1, 60, 80
3, 98880, Note_on_c, 1, 57, 80
3, 99068, Note_off_c, 1, 60, 100
3, 99068, Note_off_c, 1, 57, 100
3, 99072, Note_on_c, 1, 59, 80
3, 99072, Note_on_c, 1, 55, 80
3, 99452, Note_off_c, 1, 59, 100
3, 99452, Note_off_c, 1, 55, 100
3, 99840, Note_on_c, 1, 64, 80
3, 99840, Note_on_c, 1, 60, 80
3, 100028, Note_off_c, 1, 64, 100
3, 100028, Note_off_c, 1, 60, 100
3, 100032, Note_on_c, 1, 62, 80
3, 100032, Note_on_c, 1, 59, 80
3, 100220, Note_off_c, 1, 62, 100
3, 100220, Note_off_c, 1, 59, 100
3, 100224, Note_on_c, 1, 60, 80
3, 100224, Note_on_c, 1, 57, 80
3, 100604, Note_off_c, 1, 60, 100
3, 100604, Note_off_c, 1, 57, 100
3, 100992, Note_on_c, 1, 57, 80
3, 100992, Note_on_c, 1, 54, 80
3, 101180, Note_off_c, 1, 57, 100
3, 101180, Note_off_c, 1, 54, 100
3, 101184, Note_on_c, 1, 59, 80
3, 101184, Note_on_c, 1, 55, 80
3, 101372, Note_off_c, 1, 59, 100
3, 101372, Note_off_c, 1, 55, 100
3, 101376, Note_on_c, 1, 60, 80
3, 101376, Note_on_c, 1, 57, 80
3, 101564, Note_off_c, 1, 60, 100
3, 101564, Note_off_c, 1, 57, 100
3, 101568, Note_on_c, 1, 62, 80
3, 101568, Note_on_c, 1, 59, 80
3, 101756, Note_off_c, 1, 62, 100
3, 101756, Note_off_c, 1, 59, 100
3, 101760, Note_on_c, 1, 64, 80
3, 101760, Note_on_c, 1, 60, 80
3, 101948, Note_off_c, 1, 64, 100
3, 101948, Note_off_c, 1, 60, 100
3, 101952, Note_on_c, 1, 59, 80
3, 101952, Note_on_c, 1, 50, 80
3, 102332, Note_off_c, 1, 59, 100
3, 102332, Note_off_c, 1, 50, 100
3, 102336, Note_on_c, 1, 57, 80
3, 102336, Note_on_c, 1, 50, 80
3, 102524, Note_off_c, 1, 57, 100
3, 102524, Note_off_c, 1, 50, 100
3, 102528, Note_on_c, 1, 55, 80
3, 102528, Note_on_c, 1, 43, 80
3, 102908, Note_off_c, 1, 55, 100
3, 102908, Note_off_c, 1, 43, 100
3, 103872, Note_on_c, 1, 62, 80
3, 103872, Note_on_c, 1, 54, 80
3, 104060, Note_off_c, 1, 62, 100
3, 104060, Note_off_c, 1, 54, 100
3, 104064, Note_on_c, 1, 62, 80
3, 104064, Note_on_c, 1, 54, 80
3, 104252, Note_off_c, 1, 62, 100
3, 104252, Note_off_c, 1, 54, 100
3, 104448, Note_on_c, 1, 62, 80
3, 104448, Note_on_c, 1, 55, 80
3, 104636, Note_off_c, 1, 62, 100
3, 104636, Note_off_c, 1, 55, 100
3, 104640, Note_on_c, 1, 62, 80
3, 104640, Note_on_c, 1, 55, 80
3, 104828, Note_off_c, 1, 62, 100
3, 104828, Note_off_c, 1, 55, 100
3, 105024, Note_on_c, 1, 62, 80
3, 105024, Note_on_c, 1, 54, 80
3, 105212, Note_off_c, 1, 62, 100
3, 105212, Note_off_c, 1, 54, 100
3, 105216, Note_on_c, 1, 62, 80
3, 105216, Note_on_c, 1, 54, 80
3, 105404, Note_off_c, 1, 62, 100
3, 105404, Note_off_c, 1, 54, 100
3, 105600, Note_on_c, 1, 62, 82
3, 105600, Note_on_c, 1, 55, 82
3, 105788, Note_off_c, 1, 62, 100
3, 105788, Note_off_c, 1, 55, 100
3, 105792, Note_on_c, 1, 62, 84
3, 105792, Note_on_c, 1, 55, 84
3, 105980, Note_off_c, 1, 62, 100
3, 105980, Note_off_c, 1, 55, 100
3, 106176, Note_on_c, 1, 62, 89
3, 106176, Note_on_c, 1, 54, 89
3, 106364, Note_off_c, 1, 62, 100
3, 106364, Note_off_c, 1, 54, 100
3, 106368, Note_on_c, 1, 62, 92
3, 106368, Note_on_c, 1, 55, 92
3, 106556, Note_off_c, 1, 62, 100
3, 106556, Note_off_c, 1, 55, 100
3, 106752, Note_on_c, 1, 62, 97
3, 106752, Note_on_c, 1, 54, 97
3, 106940, Note_off_c, 1, 62, 100
3, 106940, Note_off_c, 1, 54, 100
3, 106944, Note_on_c, 1, 62, 99
3, 106944, Note_on_c, 1, 55, 99
3, 107132, Note_off_c, 1, 62, 100
3, 107132, Note_off_c, 1, 55, 100
3, 107136, Note_on_c, 1, 62, 110
3, 107136, Note_on_c, 1, 54, 110
3, 108668, Note_off_c, 1, 54, 100
3, 108668, Note_off_c, 1, 62, 100
3, 109056, Note_on_c, 1, 74, 80
3, 109056, Note_on_c, 1, 71, 80
3, 109244, Note_off_c, 1, 74, 100
3, 109244, Note_off_c, 1, 71, 100
3, 109248, Note_on_c, 1, 72, 80
3, 109248, Note_on_c, 1, 69, 80
3, 109436, Note_off_c, 1, 72, 100
3, 109436, Note_off_c, 1, 69, 100
3, 109440, Note_on_c, 1, 71, 80
3, 109440, Note_on_c, 1, 67, 80
3, 109820, Note_off_c, 1, 71, 100
3, 109820, Note_off_c, 1, 67, 100
3, 110208, Note_on_c, 1, 76, 80
3, 110208, Note_on_c, 1, 72, 80
3, 110396, Note_off_c, 1, 76, 100
3, 110396, Note_off_c, 1, 72, 100
3, 110400, Note_on_c, 1, 74, 80
3, 110400, Note_on_c, 1, 71, 80
3, 110588, Note_off_c, 1, 74, 100
3, 110588, Note_off_c, 1, 71, 100
3, 110592, Note_on_c, 1, 72, 80
3, 110592, Note_on_c, 1, 69, 80
3, 110972, Note_off_c, 1, 72, 100
3, 110972, Note_off_c, 1, 69, 100
3, 111360, Note_on_c, 1, 69, 80
3, 111360, Note_on_c, 1, 66, 80
3, 111548, Note_off_c, 1, 69, 100
3, 111548, Note_off_c, 1, 66, 100
3, 111552, Note_on_c, 1, 71, 80
3, 111552, Note_on_c, 1, 67, 80
3, 111740, Note_off_c, 1, 71, 100
3, 111740, Note_off_c, 1, 67, 100
3, 111744, Note_on_c, 1, 72, 80
3, 111744, Note_on_c, 1, 69, 80
3, 111932, Note_off_c, 1, 72, 100
3, 111932, Note_off_c, 1, 69, 100
3, 111936, Note_on_c, 1, 74, 80
3, 111936, Note_on_c, 1, 71, 80
3, 112124, Note_off_c, 1, 74, 100
3, 112124, Note_off_c, 1, 71, 100
3, 112128, Note_on_c, 1, 76, 80
3, 112128, Note_on_c, 1, 72, 80
3, 112316, Note_off_c, 1, 76, 100
3, 112316, Note_off_c, 1, 72, 100
3, 112320, Note_on_c, 1, 71, 80
3, 112320, Note_on_c, 1, 62, 80
3, 112700, Note_off_c, 1, 71, 100
3, 112700, Note_off_c, 1, 62, 100
3, 112704, Note_on_c, 1, 69, 80
3, 112704, Note_on_c, 1, 62, 80
3, 112892, Note_off_c, 1, 69, 100
3, 112892, Note_off_c, 1, 62, 100
3, 112896, Note_on_c, 1, 67, 80
3, 112896, Note_on_c, 1, 55, 80
3, 113276, Note_off_c, 1, 67, 100
3, 113276, Note_off_c, 1, 55, 100
3, 113280, Note_on_c, 1, 72, 80
3, 113468, Note_off_c, 1, 72, 100
3, 113472, Note_on_c, 1, 71, 80
3, 113660, Note_off_c, 1, 71, 100
3, 113664, Note_on_c, 1, 69, 80
3, 113852, Note_off_c, 1, 69, 100
3, 113856, Note_on_c, 1, 67, 80
3, 114044, Note_off_c, 1, 67, 100
3, 114048, Note_on_c, 1, 66, 80
3, 114236, Note_off_c, 1, 66, 100
3, 114240, Note_on_c, 1, 64, 80
3, 114428, Note_off_c, 1, 64, 100
3, 114432, Note_on_c, 1, 66, 80
3, 114620, Note_off_c, 1, 66, 100
3, 114624, Note_on_c, 1, 67, 80
3, 114624, Note_on_c, 1, 59, 80
3, 115004, Note_off_c, 1, 67, 100
3, 115008, Note_on_c, 1, 66, 80
3, 115196, Note_off_c, 1, 59, 100
3, 115196, Note_off_c, 1, 66, 100
3, 115200, Note_on_c, 1, 64, 80
3, 115580, Note_off_c, 1, 64, 100
3, 115968, Note_on_c, 1, 69, 80
3, 116156, Note_off_c, 1, 69, 100
3, 116160, Note_on_c, 1, 67, 80
3, 116348, Note_off_c, 1, 67, 100
3, 116352, Note_on_c, 1, 66, 80
3, 116540, Note_off_c, 1, 66, 100
3, 116544, Note_on_c, 1, 64, 80
3, 116732, Note_off_c, 1, 64, 100
3, 116736, Note_on_c, 1, 66, 80
3, 116924, Note_off_c, 1, 66, 100
3, 116928, Note_on_c, 1, 64, 80
3, 116928, Note_on_c, 1, 55, 80
3, 117308, Note_off_c, 1, 64, 100
3, 117312, Note_on_c, 1, 62, 80
3, 117500, Note_off_c, 1, 55, 100
3, 117500, Note_off_c, 1, 62, 100
3, 117504, Note_on_c, 1, 60, 80
3, 117504, Note_on_c, 1, 48, 80
3, 117884, Note_off_c, 1, 60, 100
3, 117884, Note_off_c, 1, 48, 100
3, 118080, Note_on_c, 1, 60, 80
3, 118080, Note_on_c, 1, 52, 80
3, 118460, Note_off_c, 1, 60, 100
3, 118464, Note_on_c, 1, 59, 80
3, 118652, Note_off_c, 1, 52, 100
3, 118652, Note_off_c, 1, 59, 100
3, 118656, Note_on_c, 1, 57, 80
3, 118656, Note_on_c, 1, 45, 80
3, 119036, Note_off_c, 1, 57, 100
3, 119036, Note_off_c, 1, 45, 100
3, 119232, Note_on_c, 1, 59, 80
3, 119232, Note_on_c, 1, 50, 80
3, 119612, Note_off_c, 1, 59, 100
3, 119616, Note_on_c, 1, 57, 80
3, 119804, Note_off_c, 1, 50, 100
3, 119804, Note_off_c, 1, 57, 100
3, 119808, Note_on_c, 1, 55, 80
3, 119808, Note_on_c, 1, 43, 80
3, 120380, Note_off_c, 1, 55, 100
3, 120380, Note_off_c, 1, 43, 100
3, 120384, Note_on_c, 1, 52, 80
3, 120384, Note_on_c, 1, 45, 80
3, 120956, Note_off_c, 1, 52, 100
3, 120956, Note_off_c, 1, 45, 100
3, 120960, Note_on_c, 1, 38, 80
3, 121148, Note_off_c, 1, 38, 100
3, 121152, Note_on_c, 1, 50, 80
3, 121340, Note_off_c, 1, 50, 100
3, 121344, Note_on_c, 1, 50, 80
3, 121532, Note_off_c, 1, 50, 100
3, 121536, Note_on_c, 1, 43, 80
3, 121724, Note_off_c, 1, 43, 100
3, 121728, Note_on_c, 1, 50, 80
3, 121916, Note_off_c, 1, 50, 100
3, 121920, Note_on_c, 1, 50, 80
3, 122108, Note_off_c, 1, 50, 100
3, 122112, Note_on_c, 1, 45, 80
3, 122300, Note_off_c, 1, 45, 100
3, 122304, Note_on_c, 1, 50, 80
3, 122492, Note_off_c, 1, 50, 100
3, 122496, Note_on_c, 1, 50, 80
3, 122684, Note_off_c, 1, 50, 100
3, 122688, Note_on_c, 1, 48, 80
3, 122876, Note_off_c, 1, 48, 100
3, 122880, Note_on_c, 1, 50, 80
3, 123068, Note_off_c, 1, 50, 100
3, 123072, Note_on_c, 1, 50, 80
3, 123260, Note_off_c, 1, 50, 100
3, 123264, Note_on_c, 1, 47, 80
3, 123452, Note_off_c, 1, 47, 100
3, 123456, Note_on_c, 1, 50, 80
3, 123644, Note_off_c, 1, 50, 100
3, 123648, Note_on_c, 1, 50, 80
3, 123836, Note_off_c, 1, 50, 100
3, 123840, Note_on_c, 1, 43, 80
3, 124028, Note_off_c, 1, 43, 100
3, 124032, Note_on_c, 1, 50, 80
3, 124220, Note_off_c, 1, 50, 100
3, 124224, Note_on_c, 1, 50, 80
3, 124412, Note_off_c, 1, 50, 100
3, 124416, Note_on_c, 1, 45, 80
3, 124604, Note_off_c, 1, 45, 100
3, 124608, Note_on_c, 1, 50, 80
3, 124796, Note_off_c, 1, 50, 100
3, 124800, Note_on_c, 1, 50, 80
3, 124988, Note_off_c, 1, 50, 100
3, 124992, Note_on_c, 1, 45, 80
3, 125180, Note_off_c, 1, 45, 100
3, 125184, Note_on_c, 1, 49, 80
3, 125372, Note_off_c, 1, 49, 100
3, 125376, Note_on_c, 1, 49, 80
3, 125564, Note_off_c, 1, 49, 100
3, 125568, Note_on_c, 1, 38, 80
3, 125756, Note_off_c, 1, 38, 100
3, 125760, Note_on_c, 1, 50, 80
3, 125948, Note_off_c, 1, 50, 100
3, 125952, Note_on_c, 1, 50, 80
3, 126140, Note_off_c, 1, 50, 100
3, 126144, Note_on_c, 1, 48, 80
3, 126332, Note_off_c, 1, 48, 100
3, 126336, Note_on_c, 1, 50, 80
3, 126524, Note_off_c, 1, 50, 100
3, 126528, Note_on_c, 1, 50, 80
3, 126716, Note_off_c, 1, 50, 100
3, 126720, Note_on_c, 1, 47, 80
3, 126908, Note_off_c, 1, 47, 100
3, 126912, Note_on_c, 1, 50, 80
3, 127100, Note_off_c, 1, 50, 100
3, 127104, Note_on_c, 1, 50, 80
3, 127292, Note_off_c, 1, 50, 100
3, 127296, Note_on_c, 1, 43, 80
3, 127484, Note_off_c, 1, 43, 100
3, 127488, Note_on_c, 1, 50, 80
3, 127676, Note_off_c, 1, 50, 100
3, 127680, Note_on_c, 1, 50, 80
3, 127868, Note_off_c, 1, 50, 100
3, 127872, Note_on_c, 1, 42, 80
3, 128060, Note_off_c, 1, 42, 100
3, 128064, Note_on_c, 1, 50, 80
3, 128252, Note_off_c, 1, 50, 100
3, 128256, Note_on_c, 1, 50, 80
3, 128444, Note_off_c, 1, 50, 100
3, 128448, Note_on_c, 1, 38, 80
3, 128636, Note_off_c, 1, 38, 100
3, 128640, Note_on_c, 1, 50, 80
3, 128828, Note_off_c, 1, 50, 100
3, 128832, Note_on_c, 1, 50, 80
3, 129020, Note_off_c, 1, 50, 100
3, 129024, Note_on_c, 1, 43, 80
3, 129212, Note_off_c, 1, 43, 100
3, 129216, Note_on_c, 1, 50, 80
3, 129404, Note_off_c, 1, 50, 100
3, 129408, Note_on_c, 1, 55, 80
3, 129596, Note_off_c, 1, 55, 100
3, 129600, Note_on_c, 1, 48, 80
3, 129788, Note_off_c, 1, 48, 100
3, 129792, Note_on_c, 1, 52, 80
3, 129980, Note_off_c, 1, 52, 100
3, 129984, Note_on_c, 1, 57, 80
3, 130172, Note_off_c, 1, 57, 100
3, 130176, Note_on_c, 1, 50, 80
3, 130364, Note_off_c, 1, 50, 100
3, 130368, Note_on_c, 1, 62, 80
3, 130556, Note_off_c, 1, 62, 100
3, 130560, Note_on_c, 1, 62, 80
3, 130748, Note_off_c, 1, 62, 100
3, 130752, Note_on_c, 1, 55, 80
3, 130940, Note_off_c, 1, 55, 100
3, 130944, Note_on_c, 1, 62, 80
3, 131132, Note_off_c, 1, 62, 100
3, 131136, Note_on_c, 1, 62, 80
3, 131324, Note_off_c, 1, 62, 100
3, 131328, Note_on_c, 1, 57, 80
3, 131516, Note_off_c, 1, 57, 100
3, 131520, Note_on_c, 1, 62, 80
3, 131708, Note_off_c, 1, 62, 100
3, 131712, Note_on_c, 1, 62, 80
3, 131900, Note_off_c, 1, 62, 100
3, 131904, Note_on_c, 1, 60, 80
3, 132092, Note_off_c, 1, 60, 100
3, 132096, Note_on_c, 1, 62, 80
3, 132284, Note_off_c, 1, 62, 100
3, 132288, Note_on_c, 1, 62, 80
3, 132476, Note_off_c, 1, 62, 100
3, 132480, Note_on_c, 1, 59, 80
3, 132668, Note_off_c, 1, 59, 100
3, 132672, Note_on_c, 1, 62, 80
3, 132860, Note_off_c, 1, 62, 100
3, 132864, Note_on_c, 1, 62, 80
3, 133052, Note_off_c, 1, 62, 100
3, 133056, Note_on_c, 1, 55, 80
3, 133244, Note_off_c, 1, 55, 100
3, 133248, Note_on_c, 1, 62, 80
3, 133436, Note_off_c, 1, 62, 100
3, 133440, Note_on_c, 1, 62, 80
3, 133628, Note_off_c, 1, 62, 100
3, 133632, Note_on_c, 1, 57, 80
3, 133820, Note_off_c, 1, 57, 100
3, 133824, Note_on_c, 1, 62, 80
3, 134012, Note_off_c, 1, 62, 100
3, 134016, Note_on_c, 1, 62, 80
3, 134204, Note_off_c, 1, 62, 100
3, 134208, Note_on_c, 1, 57, 80
3, 134396, Note_off_c, 1, 57, 100
3, 134400, Note_on_c, 1, 61, 80
3, 134588, Note_off_c, 1, 61, 100
3, 134592, Note_on_c, 1, 61, 80
3, 134780, Note_off_c, 1, 61, 100
3, 134784, Note_on_c, 1, 50, 80
3, 134972, Note_off_c, 1, 50, 100
3, 134976, Note_on_c, 1, 62, 80
3, 135164, Note_off_c, 1, 62, 100
3, 135168, Note_on_c, 1, 62, 80
3, 135356, Note_off_c, 1, 62, 100
3, 135360, Note_on_c, 1, 60, 80
3, 135548, Note_off_c, 1, 60, 100
3, 135552, Note_on_c, 1, 62, 80
3, 135740, Note_off_c, 1, 62, 100
3, 135744, Note_on_c, 1, 62, 80
3, 135932, Note_off_c, 1, 62, 100
3, 135936, Note_on_c, 1, 59, 80
3, 136124, Note_off_c, 1, 59, 100
3, 136128, Note_on_c, 1, 62, 80
3, 136316, Note_off_c, 1, 62, 100
3, 136320, Note_on_c, 1, 62, 80
3, 136508, Note_off_c, 1, 62, 100
3, 136512, Note_on_c, 1, 55, 80
3, 136700, Note_off_c, 1, 55, 100
3, 136704, Note_on_c, 1, 62, 80
3, 136892, Note_off_c, 1, 62, 100
3, 136896, Note_on_c, 1, 62, 80
3, 137084, Note_off_c, 1, 62, 100
3, 137088, Note_on_c, 1, 54, 80
3, 137276, Note_off_c, 1, 54, 100
3, 137280, Note_on_c, 1, 57, 80
3, 137468, Note_off_c, 1, 57, 100
3, 137472, Note_on_c, 1, 62, 80
3, 137660, Note_off_c, 1, 62, 100
3, 137664, Note_on_c, 1, 55, 80
3, 137852, Note_off_c, 1, 55, 100
3, 137856, Note_on_c, 1, 59, 80
3, 138044, Note_off_c, 1, 59, 100
3, 138048, Note_on_c, 1, 62, 80
3, 138236, Note_off_c, 1, 62, 100
3, 138240, Note_on_c, 1, 48, 80
3, 138428, Note_off_c, 1, 48, 100
3, 138432, Note_on_c, 1, 52, 80
3, 138620, Note_off_c, 1, 52, 100
3, 138624, Note_on_c, 1, 57, 80
3, 138812, Note_off_c, 1, 57, 100
3, 138816, Note_on_c, 1, 54, 80
3, 138816, Note_on_c, 1, 50, 80
3, 139004, Note_off_c, 1, 54, 100
3, 139004, Note_off_c, 1, 50, 100
3, 139008, Note_on_c, 1, 57, 80
3, 139196, Note_off_c, 1, 57, 100
3, 139200, Note_on_c, 1, 60, 80
3, 139388, Note_off_c, 1, 60, 100
3, 139392, Note_on_c, 1, 55, 80
3, 139580, Note_off_c, 1, 55, 100
3, 139584, Note_on_c, 1, 59, 80
3, 139772, Note_off_c, 1, 59, 100
3, 139776, Note_on_c, 1, 62, 80
3, 139964, Note_off_c, 1, 62, 100
3, 140544, Note_on_c, 1, 62, 80
3, 140544, Note_on_c, 1, 59, 80
3, 141116, Note_off_c, 1, 62, 100
3, 141116, Note_off_c, 1, 59, 100
3, 141120, Note_on_c, 1, 62, 80
3, 141120, Note_on_c, 1, 58, 80
3, 141692, Note_off_c, 1, 62, 100
3, 141692, Note_off_c, 1, 58, 100
3, 141696, Note_on_c, 1, 64, 80
3, 141696, Note_on_c, 1, 57, 80
3, 142268, Note_off_c, 1, 64, 100
3, 142268, Note_off_c, 1, 57, 100
3, 142848, Note_on_c, 1, 64, 80
3, 142848, Note_on_c, 1, 57, 80
3, 143420, Note_off_c, 1, 64, 100
3, 143420, Note_off_c, 1, 57, 100
3, 143424, Note_on_c, 1, 63, 80
3, 143424, Note_on_c, 1, 54, 80
3, 143996, Note_off_c, 1, 63, 100
3, 143996, Note_off_c, 1, 54, 100
3, 144000, Note_on_c, 1, 55, 80
3, 144000, Note_on_c, 1, 62, 80
3, 144572, Note_off_c, 1, 55, 100
3, 144572, Note_off_c, 1, 62, 100
3, 144576, Note_on_c, 1, 55, 80
3, 144764, Note_off_c, 1, 55, 100
3, 144768, Note_on_c, 1, 62, 80
3, 144956, Note_off_c, 1, 62, 100
3, 144960, Note_on_c, 1, 62, 80
3, 145148, Note_off_c, 1, 62, 100
3, 145152, Note_on_c, 1, 57, 80
3, 145340, Note_off_c, 1, 57, 100
3, 145344, Note_on_c, 1, 62, 80
3, 145532, Note_off_c, 1, 62, 100
3, 145536, Note_on_c, 1, 62, 80
3, 145724, Note_off_c, 1, 62, 100
3, 145728, Note_on_c, 1, 60, 80
3, 145916, Note_off_c, 1, 60, 100
3, 145920, Note_on_c, 1, 62, 80
3, 146108, Note_off_c, 1, 62, 100
3, 146112, Note_on_c, 1, 62, 80
3, 146300, Note_off_c, 1, 62, 100
3, 146304, Note_on_c, 1, 59, 80
3, 146492, Note_off_c, 1, 59, 100
3, 146496, Note_on_c, 1, 55, 80
3, 146684, Note_off_c, 1, 55, 100
3, 146688, Note_on_c, 1, 55, 80
3, 146876, Note_off_c, 1, 55, 100
3, 146880, Note_on_c, 1, 48, 80
3, 147068, Note_off_c, 1, 48, 100
3, 147072, Note_on_c, 1, 55, 80
3, 147260, Note_off_c, 1, 55, 100
3, 147264, Note_on_c, 1, 55, 80
3, 147452, Note_off_c, 1, 55, 100
3, 147456, Note_on_c, 1, 50, 80
3, 147644, Note_off_c, 1, 50, 100
3, 147648, Note_on_c, 1, 55, 80
3, 147836, Note_off_c, 1, 55, 100
3, 147840, Note_on_c, 1, 55, 80
3, 148028, Note_off_c, 1, 55, 100
3, 148032, Note_on_c, 1, 50, 80
3, 148220, Note_off_c, 1, 50, 100
3, 148224, Note_on_c, 1, 54, 80
3, 148412, Note_off_c, 1, 54, 100
3, 148416, Note_on_c, 1, 54, 80
3, 148604, Note_off_c, 1, 54, 100
3, 148608, Note_on_c, 1, 43, 80
3, 148796, Note_off_c, 1, 43, 100
3, 148800, Note_on_c, 1, 55, 80
3, 148988, Note_off_c, 1, 55, 100
3, 148992, Note_on_c, 1, 55, 80
3, 149180, Note_off_c, 1, 55, 100
3, 149760, Note_on_c, 1, 59, 80
3, 149948, Note_off_c, 1, 59, 100
3, 149952, Note_on_c, 1, 62, 80
3, 150140, Note_off_c, 1, 62, 100
3, 150144, Note_on_c, 1, 62, 80
3, 150332, Note_off_c, 1, 62, 100
3, 150336, Note_on_c, 1, 58, 80
3, 150524, Note_off_c, 1, 58, 100
3, 150528, Note_on_c, 1, 62, 80
3, 150716, Note_off_c, 1, 62, 100
3, 150720, Note_on_c, 1, 62, 80
3, 150908, Note_off_c, 1, 62, 100
3, 150912, Note_on_c, 1, 57, 80
3, 151100, Note_off_c, 1, 57, 100
3, 151104, Note_on_c, 1, 64, 80
3, 151292, Note_off_c, 1, 64, 100
3, 151296, Note_on_c, 1, 64, 80
3, 151484, Note_off_c, 1, 64, 100
3, 151488, Note_on_c, 1, 64, 80
3, 151676, Note_off_c, 1, 64, 100
3, 151680, Note_on_c, 1, 64, 80
3, 151868, Note_off_c, 1, 64, 100
3, 151872, Note_on_c, 1, 64, 80
3, 152060, Note_off_c, 1, 64, 100
3, 152064, Note_on_c, 1, 57, 80
3, 152252, Note_off_c, 1, 57, 100
3, 152256, Note_on_c, 1, 64, 80
3, 152444, Note_off_c, 1, 64, 100
3, 152448, Note_on_c, 1, 64, 80
3, 152636, Note_off_c, 1, 64, 100
3, 152640, Note_on_c, 1, 54, 80
3, 152828, Note_off_c, 1, 54, 100
3, 152832, Note_on_c, 1, 63, 80
3, 153020, Note_off_c, 1, 63, 100
3, 153024, Note_on_c, 1, 63, 80
3, 153212, Note_off_c, 1, 63, 100
3, 153216, Note_on_c, 1, 55, 80
3, 153404, Note_off_c, 1, 55, 100
3, 153408, Note_on_c, 1, 62, 80
3, 153596, Note_off_c, 1, 62, 100
3, 153600, Note_on_c, 1, 62, 80
3, 153788, Note_off_c, 1, 62, 100
3, 153792, Note_on_c, 1, 62, 80
3, 153980, Note_off_c, 1, 62, 100
3, 153984, Note_on_c, 1, 62, 80
3, 154172, Note_off_c, 1, 62, 100
3, 154176, Note_on_c, 1, 62, 80
3, 154364, Note_off_c, 1, 62, 100
3, 154368, Note_on_c, 1, 57, 80
3, 154556, Note_off_c, 1, 57, 100
3, 154560, Note_on_c, 1, 62, 80
3, 154748, Note_off_c, 1, 62, 100
3, 154752, Note_on_c, 1, 62, 80
3, 154940, Note_off_c, 1, 62, 100
3, 154944, Note_on_c, 1, 60, 80
3, 155132, Note_off_c, 1, 60, 100
3, 155136, Note_on_c, 1, 62, 80
3, 155324, Note_off_c, 1, 62, 100
3, 155328, Note_on_c, 1, 62, 80
3, 155516, Note_off_c, 1, 62, 100
3, 155520, Note_on_c, 1, 59, 80
3, 155708, Note_off_c, 1, 59, 100
3, 155712, Note_on_c, 1, 55, 80
3, 155900, Note_off_c, 1, 55, 100
3, 155904, Note_on_c, 1, 55, 80
3, 156092, Note_off_c, 1, 55, 100
3, 156096, Note_on_c, 1, 48, 80
3, 156284, Note_off_c, 1, 48, 100
3, 156288, Note_on_c, 1, 55, 80
3, 156476, Note_off_c, 1, 55, 100
3, 156480, Note_on_c, 1, 60, 80
3, 156668, Note_off_c, 1, 60, 100
3, 156672, Note_on_c, 1, 50, 80
3, 156860, Note_off_c, 1, 50, 100
3, 156864, Note_on_c, 1, 55, 80
3, 157052, Note_off_c, 1, 55, 100
3, 157056, Note_on_c, 1, 59, 80
3, 157244, Note_off_c, 1, 59, 100
3, 157248, Note_on_c, 1, 50, 80
3, 157436, Note_off_c, 1, 50, 100
3, 157440, Note_on_c, 1, 54, 80
3, 157628, Note_off_c, 1, 54, 100
3, 157632, Note_on_c, 1, 60, 80
3, 157820, Note_off_c, 1, 60, 100
3, 157824, Note_on_c, 1, 59, 80
3, 157824, Note_on_c, 1, 55, 80
3, 158204, Note_off_c, 1, 59, 100
3, 158204, Note_off_c, 1, 55, 100
3, 158592, Note_on_c, 1, 62, 80
3, 158592, Note_on_c, 1, 59, 80
3, 158780, Note_off_c, 1, 62, 100
3, 158780, Note_off_c, 1, 59, 100
3, 158784, Note_on_c, 1, 60, 80
3, 158784, Note_on_c, 1, 57, 80
3, 158972, Note_off_c, 1, 60, 100
3, 158972, Note_off_c, 1, 57, 100
3, 158976, Note_on_c, 1, 59, 80
3, 158976, Note_on_c, 1, 55, 80
3, 159356, Note_off_c, 1, 59, 100
3, 159356, Note_off_c, 1, 55, 100
3, 159744, Note_on_c, 1, 60, 80
3, 159744, Note_on_c, 1, 57, 80
3, 159932, Note_off_c, 1, 60, 100
3, 159932, Note_off_c, 1, 57, 100
3, 159936, Note_on_c, 1, 59, 80
3, 159936, Note_on_c, 1, 55, 80
3, 160124, Note_off_c, 1, 59, 100
3, 160124, Note_off_c, 1, 55, 100
3, 160128, Note_on_c, 1, 57, 80
3, 160128, Note_on_c, 1, 54, 80
3, 160508, Note_off_c, 1, 57, 100
3, 160508, Note_off_c, 1, 54, 100
3, 160512, Note_on_c, 1, 50, 100
3, 160700, Note_off_c, 1, 50, 100
3, 160704, Note_on_c, 1, 50, 100
3, 160892, Note_off_c, 1, 50, 100
3, 160896, Note_on_c, 1, 55, 100
3, 161084, Note_off_c, 1, 55, 100
3, 161088, Note_on_c, 1, 57, 100
3, 161276, Note_off_c, 1, 57, 100
3, 161280, Note_on_c, 1, 59, 100
3, 161660, Note_off_c, 1, 59, 100
3, 161664, Note_on_c, 1, 50, 100
3, 161852, Note_off_c, 1, 50, 100
3, 161856, Note_on_c, 1, 50, 100
3, 162044, Note_off_c, 1, 50, 100
3, 162048, Note_on_c, 1, 57, 100
3, 162236, Note_off_c, 1, 57, 100
3, 162240, Note_on_c, 1, 59, 100
3, 162428, Note_off_c, 1, 59, 100
3, 162432, Note_on_c, 1, 60, 100
3, 162812, Note_off_c, 1, 60, 100
3, 163200, Note_on_c, 1, 62, 80
3, 163200, Note_on_c, 1, 59, 80
3, 163388, Note_off_c, 1, 62, 100
3, 163388, Note_off_c, 1, 59, 100
3, 163392, Note_on_c, 1, 60, 80
3, 163392, Note_on_c, 1, 57, 80
3, 163580, Note_off_c, 1, 60, 100
3, 163580, Note_off_c, 1, 57, 100
3, 163584, Note_on_c, 1, 59, 80
3, 163584, Note_on_c, 1, 55, 80
3, 163964, Note_off_c, 1, 59, 100
3, 163964, Note_off_c, 1, 55, 100
3, 164352, Note_on_c, 1, 64, 80
3, 164352, Note_on_c, 1, 60, 80
3, 164540, Note_off_c, 1, 64, 100
3, 164540, Note_off_c, 1, 60, 100
3, 164544, Note_on_c, 1, 62, 80
3, 164544, Note_on_c, 1, 59, 80
3, 164732, Note_off_c, 1, 62, 100
3, 164732, Note_off_c, 1, 59, 100
3, 164736, Note_on_c, 1, 57, 80
3, 164736, Note_on_c, 1, 60, 80
3, 165116, Note_off_c, 1, 57, 100
3, 165116, Note_off_c, 1, 60, 100
3, 165504, Note_on_c, 1, 57, 80
3, 165504, Note_on_c, 1, 54, 80
3, 165692, Note_off_c, 1, 57, 100
3, 165692, Note_off_c, 1, 54, 100
3, 165696, Note_on_c, 1, 59, 80
3, 165696, Note_on_c, 1, 55, 80
3, 165884, Note_off_c, 1, 59, 100
3, 165884, Note_off_c, 1, 55, 100
3, 165888, Note_on_c, 1, 60, 80
3, 165888, Note_on_c, 1, 57, 80
3, 166076, Note_off_c, 1, 60, 100
3, 166076, Note_off_c, 1, 57, 100
3, 166080, Note_on_c, 1, 62, 80
3, 166080, Note_on_c, 1, 59, 80
3, 166268, Note_off_c, 1, 62, 100
3, 166268, Note_off_c, 1, 59, 100
3, 166272, Note_on_c, 1, 64, 100
3, 166460, Note_off_c, 1, 64, 100
3, 166464, Note_on_c, 1, 62, 100
3, 166652, Note_off_c, 1, 62, 100
3, 166656, Note_on_c, 1, 60, 100
3, 166844, Note_off_c, 1, 60, 100
3, 166848, Note_on_c, 1, 59, 100
3, 167036, Note_off_c, 1, 59, 100
3, 167040, Note_on_c, 1, 57, 100
3, 167228, Note_off_c, 1, 57, 100
3, 167232, Note_on_c, 1, 55, 100
3, 167420, Note_off_c, 1, 55, 100
3, 167808, Note_on_c, 1, 57, 80
3, 167808, Note_on_c, 1, 54, 80
3, 167996, Note_off_c, 1, 57, 100
3, 167996, Note_off_c, 1, 54, 100
3, 168000, Note_on_c, 1, 59, 80
3, 168000, Note_on_c, 1, 55, 80
3, 168188, Note_off_c, 1, 59, 100
3, 168188, Note_off_c, 1, 55, 100
3, 168192, Note_on_c, 1, 60, 80
3, 168192, Note_on_c, 1, 57, 80
3, 168380, Note_off_c, 1, 60, 100
3, 168380, Note_off_c, 1, 57, 100
3, 168384, Note_on_c, 1, 62, 80
3, 168384, Note_on_c, 1, 59, 80
3, 168572, Note_off_c, 1, 62, 100
3, 168572, Note_off_c, 1, 59, 100
3, 168576, Note_on_c, 1, 64, 100
3, 168764, Note_off_c, 1, 64, 100
3, 168768, Note_on_c, 1, 62, 100
3, 168956, Note_off_c, 1, 62, 100
3, 168960, Note_on_c, 1, 60, 100
3, 169148, Note_off_c, 1, 60, 100
3, 169152, Note_on_c, 1, 59, 100
3, 169340, Note_off_c, 1, 59, 100
3, 169344, Note_on_c, 1, 57, 100
3, 169532, Note_off_c, 1, 57, 100
3, 169536, Note_on_c, 1, 55, 100
3, 169724, Note_off_c, 1, 55, 100
3, 169728, Note_on_c, 1, 62, 100
3, 169916, Note_off_c, 1, 62, 100
3, 170304, Note_on_c, 1, 62, 80
3, 170492, Note_off_c, 1, 62, 100
3, 170880, Note_on_c, 1, 62, 87
3, 171068, Note_off_c, 1, 62, 100
3, 171456, Note_on_c, 1, 62, 98
3, 171644, Note_off_c, 1, 62, 100
3, 171648, Note_on_c, 1, 57, 120
3, 171648, Note_on_c, 1, 54, 120
3, 171648, Note_on_c, 1, 50, 120
3, 171648, Note_on_c, 1, 62, 120
3, 174332, Note_off_c, 1, 50, 100
3, 174332, Note_off_c, 1, 54, 100
3, 174332, Note_off_c, 1, 57, 100
3, 174332, Note_off_c, 1, 62, 100
3, 174336, Note_on_c, 1, 38, 80
3, 174524, Note_off_c, 1, 38, 100
3, 174528, Note_on_c, 1, 38, 80
3, 174716, Note_off_c, 1, 38, 100
3, 174720, Note_on_c, 1, 45, 80
3, 174908, Note_off_c, 1, 45, 100
3, 174912, Note_on_c, 1, 47, 80
3, 175100, Note_off_c, 1, 47, 100
3, 175104, Note_on_c, 1, 48, 80
3, 175676, Note_off_c, 1, 48, 100
3, 175680, Note_on_c, 1, 47, 80
3, 176252, Note_off_c, 1, 47, 100
3, 176256, Note_on_c, 1, 45, 80
3, 176828, Note_off_c, 1, 45, 100
3, 176832, Note_on_c, 1, 43, 80
3, 177404, Note_off_c, 1, 43, 100
3, 177408, Note_on_c, 1, 48, 80
3, 177984, Note_on_c, 1, 60, 80
3, 178556, Note_off_c, 1, 48, 100
3, 178556, Note_off_c, 1, 60, 100
3, 178560, Note_on_c, 1, 59, 80
3, 178560, Note_on_c, 1, 50, 80
3, 179132, Note_off_c, 1, 59, 100
3, 179132, Note_off_c, 1, 50, 100
3, 179136, Note_on_c, 1, 57, 80
3, 179136, Note_on_c, 1, 50, 80
3, 179708, Note_off_c, 1, 57, 100
3, 179708, Note_off_c, 1, 50, 100
3, 179712, Note_on_c, 1, 43, 80
3, 179900, Note_off_c, 1, 43, 100
3, 179904, Note_on_c, 1, 50, 80
3, 180092, Note_off_c, 1, 50, 100
3, 180096, Note_on_c, 1, 55, 80
3, 180284, Note_off_c, 1, 55, 100
3, 180288, Note_on_c, 1, 43, 80
3, 180476, Note_off_c, 1, 43, 100
3, 180480, Note_on_c, 1, 50, 80
3, 180668, Note_off_c, 1, 50, 100
3, 180672, Note_on_c, 1, 55, 80
3, 180860, Note_off_c, 1, 55, 100
3, 180864, Note_on_c, 1, 43, 80
3, 181052, Note_off_c, 1, 43, 100
3, 181056, Note_on_c, 1, 50, 80
3, 181244, Note_off_c, 1, 50, 100
3, 181248, Note_on_c, 1, 54, 80
3, 181436, Note_off_c, 1, 54, 100
3, 181440, Note_on_c, 1, 43, 80
3, 181628, Note_off_c, 1, 43, 100
3, 181632, Note_on_c, 1, 50, 80
3, 181820, Note_off_c, 1, 50, 100
3, 181824, Note_on_c, 1, 54, 80
3, 182012, Note_off_c, 1, 54, 100
3, 182016, Note_on_c, 1, 43, 80
3, 182204, Note_off_c, 1, 43, 100
3, 182208, Note_on_c, 1, 50, 80
3, 182396, Note_off_c, 1, 50, 100
3, 182400, Note_on_c, 1, 54, 80
3, 182588, Note_off_c, 1, 54, 100
3, 182592, Note_on_c, 1, 43, 80
3, 182780, Note_off_c, 1, 43, 100
3, 182784, Note_on_c, 1, 50, 80
3, 182972, Note_off_c, 1, 50, 100
3, 182976, Note_on_c, 1, 54, 80
3, 183164, Note_off_c, 1, 54, 100
3, 183168, Note_on_c, 1, 43, 80
3, 183356, Note_off_c, 1, 43, 100
3, 183360, Note_on_c, 1, 50, 80
3, 183548, Note_off_c, 1, 50, 100
3, 183552, Note_on_c, 1, 55, 80
3, 183740, Note_off_c, 1, 55, 100
3, 183744, Note_on_c, 1, 43, 80
3, 183932, Note_off_c, 1, 43, 100
3, 183936, Note_on_c, 1, 50, 80
3, 184124, Note_off_c, 1, 50, 100
3, 184128, Note_on_c, 1, 54, 80
3, 184316, Note_off_c, 1, 54, 100
3, 184320, Note_on_c, 1, 43, 80
3, 184508, Note_off_c, 1, 43, 100
3, 184512, Note_on_c, 1, 50, 80
3, 184700, Note_off_c, 1, 50, 100
3, 184704, Note_on_c, 1, 55, 80
3, 184892, Note_off_c, 1, 55, 100
3, 184896, Note_on_c, 1, 43, 80
3, 185084, Note_off_c, 1, 43, 100
3, 185088, Note_on_c, 1, 50, 80
3, 185276, Note_off_c, 1, 50, 100
3, 185280, Note_on_c, 1, 55, 80
3, 185468, Note_off_c, 1, 55, 100
3, 185472, Note_on_c, 1, 43, 80
3, 185660, Note_off_c, 1, 43, 100
3, 185664, Note_on_c, 1, 50, 80
3, 185852, Note_off_c, 1, 50, 100
3, 185856, Note_on_c, 1, 54, 80
3, 186044, Note_off_c, 1, 54, 100
3, 186048, Note_on_c, 1, 43, 80
3, 186236, Note_off_c, 1, 43, 100
3, 186240, Note_on_c, 1, 50, 80
3, 186428, Note_off_c, 1, 50, 100
3, 186432, Note_on_c, 1, 54, 80
3, 186620, Note_off_c, 1, 54, 100
3, 186624, Note_on_c, 1, 43, 80
3, 186812, Note_off_c, 1, 43, 100
3, 186816, Note_on_c, 1, 50, 80
3, 187004, Note_off_c, 1, 50, 100
3, 187008, Note_on_c, 1, 54, 80
3, 187196, Note_off_c, 1, 54, 100
3, 187200, Note_on_c, 1, 43, 80
3, 187388, Note_off_c, 1, 43, 100
3, 187392, Note_on_c, 1, 50, 80
3, 187580, Note_off_c, 1, 50, 100
3, 187584, Note_on_c, 1, 54, 80
3, 187772, Note_off_c, 1, 54, 100
3, 187776, Note_on_c, 1, 43, 80
3, 187964, Note_off_c, 1, 43, 100
3, 187968, Note_on_c, 1, 50, 80
3, 188156, Note_off_c, 1, 50, 100
3, 188160, Note_on_c, 1, 55, 80
3, 188348, Note_off_c, 1, 55, 100
3, 188352, Note_on_c, 1, 43, 80
3, 188540, Note_off_c, 1, 43, 100
3, 188544, Note_on_c, 1, 50, 80
3, 188732, Note_off_c, 1, 50, 100
3, 188736, Note_on_c, 1, 54, 80
3, 188924, Note_off_c, 1, 54, 100
3, 188928, Note_on_c, 1, 43, 80
3, 189116, Note_off_c, 1, 43, 100
3, 189120, Note_on_c, 1, 50, 80
3, 189308, Note_off_c, 1, 50, 100
3, 189312, Note_on_c, 1, 55, 80
3, 189500, Note_off_c, 1, 55, 100
3, 189504, Note_on_c, 1, 43, 80
3, 189692, Note_off_c, 1, 43, 100
3, 189696, Note_on_c, 1, 50, 80
3, 189884, Note_off_c, 1, 50, 100
3, 189888, Note_on_c, 1, 54, 80
3, 190076, Note_off_c, 1, 54, 100
3, 190080, Note_on_c, 1, 43, 80
3, 190268, Note_off_c, 1, 43, 100
3, 190272, Note_on_c, 1, 50, 80
3, 190460, Note_off_c, 1, 50, 100
3, 190464, Note_on_c, 1, 55, 80
3, 190652, Note_off_c, 1, 55, 100
3, 190656, Note_on_c, 1, 43, 80
3, 190844, Note_off_c, 1, 43, 100
3, 190848, Note_on_c, 1, 50, 80
3, 191036, Note_off_c, 1, 50, 100
3, 191040, Note_on_c, 1, 54, 80
3, 191228, Note_off_c, 1, 54, 100
3, 191232, Note_on_c, 1, 43, 80
3, 191420, Note_off_c, 1, 43, 100
3, 191424, Note_on_c, 1, 50, 80
3, 191612, Note_off_c, 1, 50, 100
3, 191616, Note_on_c, 1, 55, 80
3, 191804, Note_off_c, 1, 55, 100
3, 191808, Note_on_c, 1, 43, 120
3, 191996, Note_off_c, 1, 43, 100
3, 192000, Note_on_c, 1, 50, 120
3, 192188, Note_off_c, 1, 50, 100
3, 192192, Note_on_c, 1, 55, 120
3, 192380, Note_off_c, 1, 55, 100
3, 192384, Note_on_c, 1, 43, 120
3, 193148, Note_off_c, 1, 43, 100
3, 193148, End_track
0, 0, End_of_file
