0, 0, Header, 1, 3, 384
1, 0, Start_track
1, 0, Title_t, "L.v.Beethoven 2mov - Piano Sonata No.20 in G Major Op.49-2\000"
1, 0, Copyright_t, "Copyright(C) 1995-2009, Suzuki Software\000"
1, 0, Sequencer_specific, 9, 67, 123, 0, 88, 70, 48, 50, 0, 1
1, 0, Text_t, "XFhd:2000/08/01:JP:Classical::::L.v.Beethoven:::Kaoru Suzuki\000"
1, 0, Text_t, "XFln:JP:\203s\203A\203m\203\\\203i\203^\221æ20\224Ô\203g\222·\222²\215ì\225i49-2\201`\221æ2\212y\217Í:L.v.\203x\201[\203g\201[\203\224\203F\203\223:::\227é\202¿\202á\202ñ:\227é\202¿\202á\202ñ\000"
1, 0, Time_signature, 1, 2, 96, 8
1, 0, Sequencer_specific, 3, 0, 0, 65
1, 0, Sequencer_specific, 5, 0, 0, 119, 14, 0
1, 0, Tempo, 631578
1, 384, Time_signature, 3, 2, 96, 8
1, 384, Tempo, 545454
1, 768, Tempo, 500000
1, 39936, Tempo, 545454
1, 40320, Tempo, 600000
1, 40896, Tempo, 500000
1, 52224, Tempo, 521739
1, 52992, Tempo, 545454
1, 53376, Tempo, 600000
1, 53760, Tempo, 600000
1, 54528, Tempo, 500000
1, 85632, Tempo, 545454
1, 86016, Tempo, 600000
1, 86400, Tempo, 500000
1, 98688, Tempo, 521739
1, 99456, Tempo, 545454
1, 99840, Tempo, 600000
1, 100608, Tempo, 500000
1, 113280, Tempo, 545454
1, 114432, Tempo, 500000
1, 130944, Tempo, 512820
1, 131328, Tempo, 526315
1, 131904, Tempo, 500000
1, 134784, Tempo, 521739
1, 135168, Tempo, 545454
1, 135936, Tempo, 600000
1, 136128, Tempo, 750000
1, 136216, Tempo, 1000000
1, 136216, End_track
2, 0, Start_track
2, 0, Title_t, "Right"
2, 0, Control_c, 0, 0, 0
2, 0, Program_c, 0, 0
2, 0, Control_c, 0, 7, 100
2, 0, Control_c, 0, 10, 74
2, 0, Control_c, 0, 91, 127
2, 0, Key_signature, 1, "major"
2, 0, Note_on_c, 0, 67, 80
2, 284, Note_off_c, 0, 67, 100
2, 288, Note_on_c, 0, 66, 80
2, 380, Note_off_c, 0, 66, 100
2, 384, Note_on_c, 0, 66, 80
2, 1148, Note_off_c, 0, 66, 100
2, 1152, Note_on_c, 0, 66, 80
2, 1436, Note_off_c, 0, 66, 100
2, 1440, Note_on_c, 0, 67, 80
2, 1532, Note_off_c, 0, 67, 100
2, 1536, Note_on_c, 0, 67, 80
2, 2300, Note_off_c, 0, 67, 100
2, 2304, Note_on_c, 0, 67, 80
2, 2588, Note_off_c, 0, 67, 100
2, 2592, Note_on_c, 0, 71, 80
2, 2684, Note_off_c, 0, 71, 100
2, 2688, Note_on_c, 0, 74, 80
2, 3260, Note_off_c, 0, 74, 100
2, 3264, Note_on_c, 0, 76, 80
2, 3452, Note_off_c, 0, 76, 100
2, 3456, Note_on_c, 0, 74, 80
2, 3644, Note_off_c, 0, 74, 100
2, 3648, Note_on_c, 0, 72, 80
2, 3836, Note_off_c, 0, 72, 100
2, 3840, Note_on_c, 0, 71, 80
2, 4220, Note_off_c, 0, 71, 100
2, 4224, Note_on_c, 0, 67, 80
2, 4412, Note_off_c, 0, 67, 100
2, 4608, Note_on_c, 0, 67, 80
2, 4892, Note_off_c, 0, 67, 100
2, 4896, Note_on_c, 0, 66, 80
2, 4988, Note_off_c, 0, 66, 100
2, 4992, Note_on_c, 0, 66, 80
2, 5756, Note_off_c, 0, 66, 100
2, 5760, Note_on_c, 0, 66, 80
2, 6044, Note_off_c, 0, 66, 100
2, 6048, Note_on_c, 0, 67, 80
2, 6140, Note_off_c, 0, 67, 100
2, 6144, Note_on_c, 0, 67, 80
2, 6908, Note_off_c, 0, 67, 100
2, 6912, Note_on_c, 0, 67, 80
2, 7196, Note_off_c, 0, 67, 100
2, 7200, Note_on_c, 0, 71, 80
2, 7292, Note_off_c, 0, 71, 100
2, 7296, Note_on_c, 0, 74, 80
2, 7868, Note_off_c, 0, 74, 100
2, 7872, Note_on_c, 0, 73, 80
2, 8060, Note_off_c, 0, 73, 100
2, 8064, Note_on_c, 0, 72, 80
2, 8252, Note_off_c, 0, 72, 100
2, 8256, Note_on_c, 0, 69, 80
2, 8444, Note_off_c, 0, 69, 100
2, 8448, Note_on_c, 0, 67, 80
2, 8828, Note_off_c, 0, 67, 100
2, 9216, Note_on_c, 0, 71, 80
2, 9500, Note_off_c, 0, 71, 100
2, 9504, Note_on_c, 0, 71, 80
2, 9596, Note_off_c, 0, 71, 100
2, 9600, Note_on_c, 0, 71, 80
2, 9980, Note_off_c, 0, 71, 100
2, 9984, Note_on_c, 0, 72, 80
2, 10172, Note_off_c, 0, 72, 100
2, 10368, Note_on_c, 0, 72, 80
2, 10652, Note_off_c, 0, 72, 100
2, 10656, Note_on_c, 0, 72, 80
2, 10748, Note_off_c, 0, 72, 100
2, 10752, Note_on_c, 0, 72, 80
2, 11132, Note_off_c, 0, 72, 100
2, 11136, Note_on_c, 0, 71, 80
2, 11324, Note_off_c, 0, 71, 100
2, 11520, Note_on_c, 0, 71, 80
2, 11804, Note_off_c, 0, 71, 100
2, 11808, Note_on_c, 0, 71, 80
2, 11900, Note_off_c, 0, 71, 100
2, 11904, Note_on_c, 0, 71, 80
2, 12092, Note_off_c, 0, 71, 100
2, 12096, Note_on_c, 0, 69, 80
2, 12284, Note_off_c, 0, 69, 100
2, 12288, Note_on_c, 0, 68, 80
2, 12476, Note_off_c, 0, 68, 100
2, 12480, Note_on_c, 0, 69, 80
2, 12668, Note_off_c, 0, 69, 100
2, 12672, Note_on_c, 0, 75, 80
2, 12860, Note_off_c, 0, 75, 100
2, 12864, Note_on_c, 0, 76, 80
2, 13052, Note_off_c, 0, 76, 100
2, 13056, Note_on_c, 0, 67, 80
2, 13436, Note_off_c, 0, 67, 100
2, 13440, Note_on_c, 0, 66, 80
2, 13628, Note_off_c, 0, 66, 100
2, 13824, Note_on_c, 0, 79, 80
2, 14108, Note_off_c, 0, 79, 100
2, 14112, Note_on_c, 0, 78, 80
2, 14204, Note_off_c, 0, 78, 100
2, 14208, Note_on_c, 0, 78, 80
2, 14972, Note_off_c, 0, 78, 100
2, 14976, Note_on_c, 0, 78, 80
2, 15260, Note_off_c, 0, 78, 100
2, 15264, Note_on_c, 0, 79, 80
2, 15356, Note_off_c, 0, 79, 100
2, 15360, Note_on_c, 0, 79, 80
2, 16124, Note_off_c, 0, 79, 100
2, 16128, Note_on_c, 0, 79, 80
2, 16412, Note_off_c, 0, 79, 100
2, 16416, Note_on_c, 0, 83, 80
2, 16508, Note_off_c, 0, 83, 100
2, 16512, Note_on_c, 0, 86, 80
2, 17084, Note_off_c, 0, 86, 100
2, 17088, Note_on_c, 0, 88, 80
2, 17276, Note_off_c, 0, 88, 100
2, 17280, Note_on_c, 0, 86, 80
2, 17468, Note_off_c, 0, 86, 100
2, 17472, Note_on_c, 0, 84, 80
2, 17660, Note_off_c, 0, 84, 100
2, 17664, Note_on_c, 0, 83, 80
2, 18044, Note_off_c, 0, 83, 100
2, 18048, Note_on_c, 0, 79, 80
2, 18236, Note_off_c, 0, 79, 100
2, 18432, Note_on_c, 0, 79, 80
2, 18716, Note_off_c, 0, 79, 100
2, 18720, Note_on_c, 0, 78, 80
2, 18812, Note_off_c, 0, 78, 100
2, 18816, Note_on_c, 0, 78, 80
2, 19580, Note_off_c, 0, 78, 100
2, 19584, Note_on_c, 0, 78, 86
2, 19868, Note_off_c, 0, 78, 100
2, 19872, Note_on_c, 0, 79, 89
2, 19964, Note_off_c, 0, 79, 100
2, 19968, Note_on_c, 0, 79, 90
2, 20732, Note_off_c, 0, 79, 100
2, 20736, Note_on_c, 0, 79, 97
2, 21020, Note_off_c, 0, 79, 100
2, 21024, Note_on_c, 0, 83, 99
2, 21116, Note_off_c, 0, 83, 100
2, 21120, Note_on_c, 0, 86, 100
2, 21500, Note_off_c, 0, 86, 100
2, 21504, Note_on_c, 0, 86, 103
2, 21596, Note_off_c, 0, 86, 100
2, 21600, Note_on_c, 0, 85, 104
2, 21692, Note_off_c, 0, 85, 100
2, 21696, Note_on_c, 0, 86, 105
2, 21788, Note_off_c, 0, 86, 100
2, 21792, Note_on_c, 0, 85, 106
2, 21884, Note_off_c, 0, 85, 100
2, 21888, Note_on_c, 0, 86, 107
2, 21980, Note_off_c, 0, 86, 100
2, 21984, Note_on_c, 0, 84, 108
2, 22076, Note_off_c, 0, 84, 100
2, 22080, Note_on_c, 0, 83, 109
2, 22172, Note_off_c, 0, 83, 100
2, 22176, Note_on_c, 0, 81, 110
2, 22268, Note_off_c, 0, 81, 100
2, 22272, Note_on_c, 0, 79, 110
2, 22652, Note_off_c, 0, 79, 100
2, 23040, Note_on_c, 0, 74, 80
2, 23040, Note_on_c, 0, 71, 80
2, 23420, Note_off_c, 0, 74, 100
2, 23420, Note_off_c, 0, 71, 100
2, 23424, Note_on_c, 0, 79, 80
2, 23424, Note_on_c, 0, 76, 80
2, 23804, Note_off_c, 0, 79, 100
2, 23804, Note_off_c, 0, 76, 100
2, 24192, Note_on_c, 0, 78, 80
2, 24192, Note_on_c, 0, 74, 80
2, 24572, Note_off_c, 0, 78, 100
2, 24572, Note_off_c, 0, 74, 100
2, 24576, Note_on_c, 0, 76, 80
2, 24576, Note_on_c, 0, 72, 80
2, 24956, Note_off_c, 0, 76, 100
2, 24956, Note_off_c, 0, 72, 100
2, 25344, Note_on_c, 0, 74, 80
2, 25344, Note_on_c, 0, 71, 80
2, 25724, Note_off_c, 0, 74, 100
2, 25724, Note_off_c, 0, 71, 100
2, 25728, Note_on_c, 0, 74, 80
2, 25728, Note_on_c, 0, 72, 80
2, 26108, Note_off_c, 0, 74, 100
2, 26108, Note_off_c, 0, 72, 100
2, 26112, Note_on_c, 0, 74, 80
2, 26112, Note_on_c, 0, 72, 80
2, 26492, Note_off_c, 0, 74, 100
2, 26492, Note_off_c, 0, 72, 100
2, 26496, Note_on_c, 0, 72, 80
2, 26496, Note_on_c, 0, 74, 80
2, 26876, Note_off_c, 0, 72, 100
2, 26876, Note_off_c, 0, 74, 100
2, 26880, Note_on_c, 0, 74, 80
2, 26880, Note_on_c, 0, 71, 80
2, 27260, Note_off_c, 0, 74, 100
2, 27260, Note_off_c, 0, 71, 100
2, 28128, Note_on_c, 0, 74, 80
2, 28220, Note_off_c, 0, 74, 100
2, 28224, Note_on_c, 0, 76, 80
2, 28316, Note_off_c, 0, 76, 100
2, 28320, Note_on_c, 0, 78, 80
2, 28412, Note_off_c, 0, 78, 100
2, 28416, Note_on_c, 0, 79, 80
2, 28508, Note_off_c, 0, 79, 100
2, 28512, Note_on_c, 0, 81, 80
2, 28604, Note_off_c, 0, 81, 100
2, 28608, Note_on_c, 0, 83, 80
2, 28700, Note_off_c, 0, 83, 100
2, 28704, Note_on_c, 0, 85, 80
2, 28796, Note_off_c, 0, 85, 100
2, 28800, Note_on_c, 0, 86, 80
2, 28988, Note_off_c, 0, 86, 100
2, 28992, Note_on_c, 0, 86, 80
2, 29180, Note_off_c, 0, 86, 100
2, 29280, Note_on_c, 0, 74, 81
2, 29372, Note_off_c, 0, 74, 100
2, 29376, Note_on_c, 0, 76, 82
2, 29468, Note_off_c, 0, 76, 100
2, 29472, Note_on_c, 0, 78, 83
2, 29564, Note_off_c, 0, 78, 100
2, 29568, Note_on_c, 0, 79, 85
2, 29660, Note_off_c, 0, 79, 100
2, 29664, Note_on_c, 0, 81, 86
2, 29756, Note_off_c, 0, 81, 100
2, 29760, Note_on_c, 0, 83, 87
2, 29852, Note_off_c, 0, 83, 100
2, 29856, Note_on_c, 0, 85, 89
2, 29948, Note_off_c, 0, 85, 100
2, 29952, Note_on_c, 0, 86, 90
2, 30140, Note_off_c, 0, 86, 100
2, 30144, Note_on_c, 0, 86, 92
2, 30332, Note_off_c, 0, 86, 100
2, 30336, Note_on_c, 0, 83, 95
2, 30524, Note_off_c, 0, 83, 100
2, 30528, Note_on_c, 0, 81, 98
2, 30716, Note_off_c, 0, 81, 100
2, 30720, Note_on_c, 0, 79, 100
2, 30908, Note_off_c, 0, 79, 100
2, 30912, Note_on_c, 0, 78, 103
2, 31100, Note_off_c, 0, 78, 100
2, 31104, Note_on_c, 0, 76, 105
2, 31292, Note_off_c, 0, 76, 100
2, 31296, Note_on_c, 0, 74, 108
2, 31484, Note_off_c, 0, 74, 100
2, 31488, Note_on_c, 0, 73, 110
2, 31580, Note_off_c, 0, 73, 100
2, 31584, Note_on_c, 0, 81, 110
2, 32060, Note_off_c, 0, 81, 100
2, 32064, Note_on_c, 0, 83, 110
2, 32156, Note_off_c, 0, 83, 100
2, 32160, Note_on_c, 0, 81, 110
2, 32252, Note_off_c, 0, 81, 100
2, 32256, Note_on_c, 0, 79, 110
2, 32444, Note_off_c, 0, 79, 100
2, 32448, Note_on_c, 0, 81, 110
2, 32540, Note_off_c, 0, 81, 100
2, 32544, Note_on_c, 0, 79, 110
2, 32636, Note_off_c, 0, 79, 100
2, 32640, Note_on_c, 0, 78, 110
2, 32828, Note_off_c, 0, 78, 100
2, 32832, Note_on_c, 0, 79, 110
2, 32924, Note_off_c, 0, 79, 100
2, 32928, Note_on_c, 0, 78, 110
2, 33020, Note_off_c, 0, 78, 100
2, 33024, Note_on_c, 0, 76, 110
2, 33212, Note_off_c, 0, 76, 100
2, 33216, Note_on_c, 0, 78, 110
2, 33308, Note_off_c, 0, 78, 100
2, 33312, Note_on_c, 0, 76, 110
2, 33404, Note_off_c, 0, 76, 100
2, 33408, Note_on_c, 0, 74, 110
2, 33596, Note_off_c, 0, 74, 100
2, 33600, Note_on_c, 0, 76, 110
2, 33692, Note_off_c, 0, 76, 100
2, 33696, Note_on_c, 0, 74, 110
2, 33788, Note_off_c, 0, 74, 100
2, 33792, Note_on_c, 0, 73, 110
2, 34172, Note_off_c, 0, 73, 100
2, 34368, Note_on_c, 0, 73, 110
2, 34556, Note_off_c, 0, 73, 100
2, 34560, Note_on_c, 0, 74, 110
2, 34652, Note_off_c, 0, 74, 100
2, 34656, Note_on_c, 0, 73, 110
2, 34748, Note_off_c, 0, 73, 100
2, 34752, Note_on_c, 0, 71, 110
2, 34844, Note_off_c, 0, 71, 100
2, 34848, Note_on_c, 0, 73, 110
2, 34940, Note_off_c, 0, 73, 100
2, 34944, Note_on_c, 0, 74, 110
2, 35324, Note_off_c, 0, 74, 100
2, 35520, Note_on_c, 0, 74, 110
2, 35708, Note_off_c, 0, 74, 100
2, 35712, Note_on_c, 0, 76, 110
2, 35804, Note_off_c, 0, 76, 100
2, 35808, Note_on_c, 0, 74, 110
2, 35900, Note_off_c, 0, 74, 100
2, 35904, Note_on_c, 0, 73, 110
2, 35996, Note_off_c, 0, 73, 100
2, 36000, Note_on_c, 0, 74, 110
2, 36092, Note_off_c, 0, 74, 100
2, 36096, Note_on_c, 0, 81, 110
2, 36668, Note_off_c, 0, 81, 100
2, 36672, Note_on_c, 0, 83, 110
2, 36764, Note_off_c, 0, 83, 100
2, 36768, Note_on_c, 0, 81, 110
2, 36860, Note_off_c, 0, 81, 100
2, 36864, Note_on_c, 0, 79, 110
2, 37052, Note_off_c, 0, 79, 100
2, 37056, Note_on_c, 0, 81, 110
2, 37148, Note_off_c, 0, 81, 100
2, 37152, Note_on_c, 0, 79, 110
2, 37244, Note_off_c, 0, 79, 100
2, 37248, Note_on_c, 0, 78, 110
2, 37436, Note_off_c, 0, 78, 100
2, 37440, Note_on_c, 0, 79, 110
2, 37532, Note_off_c, 0, 79, 100
2, 37536, Note_on_c, 0, 78, 110
2, 37628, Note_off_c, 0, 78, 100
2, 37632, Note_on_c, 0, 76, 110
2, 37820, Note_off_c, 0, 76, 100
2, 37824, Note_on_c, 0, 78, 110
2, 37916, Note_off_c, 0, 78, 100
2, 37920, Note_on_c, 0, 76, 110
2, 38012, Note_off_c, 0, 76, 100
2, 38016, Note_on_c, 0, 74, 110
2, 38204, Note_off_c, 0, 74, 100
2, 38208, Note_on_c, 0, 76, 110
2, 38300, Note_off_c, 0, 76, 100
2, 38304, Note_on_c, 0, 74, 110
2, 38396, Note_off_c, 0, 74, 100
2, 38400, Note_on_c, 0, 73, 110
2, 38780, Note_off_c, 0, 73, 100
2, 38976, Note_on_c, 0, 73, 110
2, 39164, Note_off_c, 0, 73, 100
2, 39168, Note_on_c, 0, 76, 110
2, 39260, Note_off_c, 0, 76, 100
2, 39264, Note_on_c, 0, 74, 110
2, 39356, Note_off_c, 0, 74, 100
2, 39360, Note_on_c, 0, 73, 110
2, 39452, Note_off_c, 0, 73, 100
2, 39456, Note_on_c, 0, 74, 110
2, 39548, Note_off_c, 0, 74, 100
2, 39552, Note_on_c, 0, 76, 110
2, 39836, Note_off_c, 0, 76, 100
2, 39840, Note_on_c, 0, 79, 110
2, 39932, Note_off_c, 0, 79, 100
2, 39936, Note_on_c, 0, 74, 110
2, 40316, Note_off_c, 0, 74, 100
2, 40320, Note_on_c, 0, 73, 110
2, 40700, Note_off_c, 0, 73, 100
2, 40704, Note_on_c, 0, 74, 110
2, 40892, Note_off_c, 0, 74, 100
2, 40896, Note_on_c, 0, 76, 110
2, 40988, Note_off_c, 0, 76, 100
2, 40992, Note_on_c, 0, 78, 110
2, 41084, Note_off_c, 0, 78, 100
2, 41088, Note_on_c, 0, 79, 110
2, 41180, Note_off_c, 0, 79, 100
2, 41184, Note_on_c, 0, 81, 110
2, 41276, Note_off_c, 0, 81, 100
2, 41280, Note_on_c, 0, 83, 110
2, 41372, Note_off_c, 0, 83, 100
2, 41376, Note_on_c, 0, 85, 110
2, 41468, Note_off_c, 0, 85, 100
2, 41472, Note_on_c, 0, 86, 110
2, 41660, Note_off_c, 0, 86, 100
2, 41664, Note_on_c, 0, 86, 110
2, 41852, Note_off_c, 0, 86, 100
2, 41856, Note_on_c, 0, 86, 110
2, 42044, Note_off_c, 0, 86, 100
2, 42048, Note_on_c, 0, 81, 110
2, 42236, Note_off_c, 0, 81, 100
2, 42240, Note_on_c, 0, 81, 110
2, 42428, Note_off_c, 0, 81, 100
2, 42432, Note_on_c, 0, 78, 110
2, 42620, Note_off_c, 0, 78, 100
2, 42624, Note_on_c, 0, 78, 110
2, 42812, Note_off_c, 0, 78, 100
2, 42816, Note_on_c, 0, 74, 110
2, 43004, Note_off_c, 0, 74, 100
2, 43008, Note_on_c, 0, 74, 110
2, 43772, Note_off_c, 0, 74, 100
2, 43776, Note_on_c, 0, 76, 110
2, 44060, Note_off_c, 0, 76, 100
2, 44064, Note_on_c, 0, 73, 110
2, 44156, Note_off_c, 0, 73, 100
2, 44160, Note_on_c, 0, 74, 110
2, 44348, Note_off_c, 0, 74, 100
2, 44352, Note_on_c, 0, 76, 80
2, 44444, Note_off_c, 0, 76, 100
2, 44448, Note_on_c, 0, 78, 80
2, 44540, Note_off_c, 0, 78, 100
2, 44544, Note_on_c, 0, 79, 80
2, 44636, Note_off_c, 0, 79, 100
2, 44640, Note_on_c, 0, 81, 80
2, 44732, Note_off_c, 0, 81, 100
2, 44736, Note_on_c, 0, 83, 80
2, 44828, Note_off_c, 0, 83, 100
2, 44832, Note_on_c, 0, 85, 80
2, 44924, Note_off_c, 0, 85, 100
2, 44928, Note_on_c, 0, 86, 80
2, 45116, Note_off_c, 0, 86, 100
2, 45120, Note_on_c, 0, 86, 80
2, 45308, Note_off_c, 0, 86, 100
2, 45312, Note_on_c, 0, 86, 80
2, 45436, Note_off_c, 0, 86, 100
2, 45440, Note_on_c, 0, 81, 80
2, 45564, Note_off_c, 0, 81, 100
2, 45568, Note_on_c, 0, 81, 80
2, 45692, Note_off_c, 0, 81, 100
2, 45696, Note_on_c, 0, 81, 80
2, 45820, Note_off_c, 0, 81, 100
2, 45824, Note_on_c, 0, 78, 80
2, 45948, Note_off_c, 0, 78, 100
2, 45952, Note_on_c, 0, 78, 80
2, 46076, Note_off_c, 0, 78, 100
2, 46080, Note_on_c, 0, 78, 80
2, 46204, Note_off_c, 0, 78, 100
2, 46208, Note_on_c, 0, 74, 80
2, 46332, Note_off_c, 0, 74, 100
2, 46336, Note_on_c, 0, 74, 80
2, 46460, Note_off_c, 0, 74, 100
2, 46464, Note_on_c, 0, 74, 80
2, 47228, Note_off_c, 0, 74, 100
2, 47232, Note_on_c, 0, 76, 80
2, 47516, Note_off_c, 0, 76, 100
2, 47520, Note_on_c, 0, 73, 80
2, 47612, Note_off_c, 0, 73, 100
2, 47616, Note_on_c, 0, 74, 80
2, 47900, Note_off_c, 0, 74, 100
2, 47904, Note_on_c, 0, 74, 80
2, 47996, Note_off_c, 0, 74, 100
2, 48000, Note_on_c, 0, 73, 80
2, 48284, Note_off_c, 0, 73, 100
2, 48288, Note_on_c, 0, 74, 80
2, 48380, Note_off_c, 0, 74, 100
2, 48384, Note_on_c, 0, 72, 80
2, 48668, Note_off_c, 0, 72, 100
2, 48672, Note_on_c, 0, 74, 80
2, 48764, Note_off_c, 0, 74, 100
2, 48768, Note_on_c, 0, 71, 80
2, 49052, Note_off_c, 0, 71, 100
2, 49056, Note_on_c, 0, 74, 80
2, 49148, Note_off_c, 0, 74, 100
2, 49152, Note_on_c, 0, 71, 80
2, 49436, Note_off_c, 0, 71, 100
2, 49440, Note_on_c, 0, 74, 80
2, 49532, Note_off_c, 0, 74, 100
2, 49536, Note_on_c, 0, 73, 80
2, 49820, Note_off_c, 0, 73, 100
2, 49824, Note_on_c, 0, 76, 80
2, 49916, Note_off_c, 0, 76, 100
2, 49920, Note_on_c, 0, 74, 80
2, 50204, Note_off_c, 0, 74, 100
2, 50208, Note_on_c, 0, 74, 80
2, 50300, Note_off_c, 0, 74, 100
2, 50304, Note_on_c, 0, 73, 80
2, 50588, Note_off_c, 0, 73, 100
2, 50592, Note_on_c, 0, 74, 80
2, 50684, Note_off_c, 0, 74, 100
2, 50688, Note_on_c, 0, 72, 80
2, 50972, Note_off_c, 0, 72, 100
2, 50976, Note_on_c, 0, 74, 80
2, 51068, Note_off_c, 0, 74, 100
2, 51072, Note_on_c, 0, 71, 80
2, 51356, Note_off_c, 0, 71, 100
2, 51360, Note_on_c, 0, 74, 80
2, 51452, Note_off_c, 0, 74, 100
2, 51456, Note_on_c, 0, 71, 80
2, 51740, Note_off_c, 0, 71, 100
2, 51744, Note_on_c, 0, 74, 80
2, 51836, Note_off_c, 0, 74, 100
2, 51840, Note_on_c, 0, 73, 80
2, 52124, Note_off_c, 0, 73, 100
2, 52128, Note_on_c, 0, 76, 80
2, 52220, Note_off_c, 0, 76, 100
2, 52224, Note_on_c, 0, 74, 80
2, 52508, Note_off_c, 0, 74, 100
2, 52512, Note_on_c, 0, 74, 79
2, 52604, Note_off_c, 0, 74, 100
2, 52608, Note_on_c, 0, 73, 78
2, 52892, Note_off_c, 0, 73, 100
2, 52896, Note_on_c, 0, 74, 77
2, 52988, Note_off_c, 0, 74, 100
2, 52992, Note_on_c, 0, 72, 76
2, 53276, Note_off_c, 0, 72, 100
2, 53280, Note_on_c, 0, 74, 75
2, 53372, Note_off_c, 0, 74, 100
2, 53376, Note_on_c, 0, 71, 74
2, 53660, Note_off_c, 0, 71, 100
2, 53664, Note_on_c, 0, 74, 73
2, 53756, Note_off_c, 0, 74, 100
2, 53760, Note_on_c, 0, 69, 72
2, 54044, Note_off_c, 0, 69, 100
2, 54048, Note_on_c, 0, 74, 71
2, 54140, Note_off_c, 0, 74, 100
2, 54144, Note_on_c, 0, 67, 80
2, 54428, Note_off_c, 0, 67, 100
2, 54432, Note_on_c, 0, 66, 80
2, 54524, Note_off_c, 0, 66, 100
2, 54528, Note_on_c, 0, 66, 80
2, 55292, Note_off_c, 0, 66, 100
2, 55296, Note_on_c, 0, 66, 80
2, 55580, Note_off_c, 0, 66, 100
2, 55584, Note_on_c, 0, 67, 80
2, 55676, Note_off_c, 0, 67, 100
2, 55680, Note_on_c, 0, 67, 80
2, 56444, Note_off_c, 0, 67, 100
2, 56448, Note_on_c, 0, 67, 80
2, 56732, Note_off_c, 0, 67, 100
2, 56736, Note_on_c, 0, 71, 80
2, 56828, Note_off_c, 0, 71, 100
2, 56832, Note_on_c, 0, 74, 80
2, 57404, Note_off_c, 0, 74, 100
2, 57408, Note_on_c, 0, 76, 80
2, 57596, Note_off_c, 0, 76, 100
2, 57600, Note_on_c, 0, 74, 80
2, 57788, Note_off_c, 0, 74, 100
2, 57792, Note_on_c, 0, 72, 80
2, 57980, Note_off_c, 0, 72, 100
2, 57984, Note_on_c, 0, 71, 80
2, 58364, Note_off_c, 0, 71, 100
2, 58368, Note_on_c, 0, 67, 80
2, 58556, Note_off_c, 0, 67, 100
2, 58752, Note_on_c, 0, 67, 80
2, 59036, Note_off_c, 0, 67, 100
2, 59040, Note_on_c, 0, 66, 80
2, 59132, Note_off_c, 0, 66, 100
2, 59136, Note_on_c, 0, 66, 80
2, 59900, Note_off_c, 0, 66, 100
2, 59904, Note_on_c, 0, 66, 80
2, 60188, Note_off_c, 0, 66, 100
2, 60192, Note_on_c, 0, 67, 80
2, 60284, Note_off_c, 0, 67, 100
2, 60288, Note_on_c, 0, 67, 80
2, 61052, Note_off_c, 0, 67, 100
2, 61056, Note_on_c, 0, 67, 80
2, 61340, Note_off_c, 0, 67, 100
2, 61344, Note_on_c, 0, 71, 80
2, 61436, Note_off_c, 0, 71, 100
2, 61440, Note_on_c, 0, 74, 80
2, 62012, Note_off_c, 0, 74, 100
2, 62016, Note_on_c, 0, 73, 80
2, 62204, Note_off_c, 0, 73, 100
2, 62208, Note_on_c, 0, 72, 80
2, 62396, Note_off_c, 0, 72, 100
2, 62400, Note_on_c, 0, 69, 80
2, 62588, Note_off_c, 0, 69, 100
2, 62592, Note_on_c, 0, 67, 80
2, 62972, Note_off_c, 0, 67, 100
2, 63360, Note_on_c, 0, 71, 80
2, 63644, Note_off_c, 0, 71, 100
2, 63648, Note_on_c, 0, 71, 80
2, 63740, Note_off_c, 0, 71, 100
2, 63744, Note_on_c, 0, 71, 80
2, 64124, Note_off_c, 0, 71, 100
2, 64128, Note_on_c, 0, 72, 80
2, 64316, Note_off_c, 0, 72, 100
2, 64512, Note_on_c, 0, 72, 80
2, 64796, Note_off_c, 0, 72, 100
2, 64800, Note_on_c, 0, 72, 80
2, 64892, Note_off_c, 0, 72, 100
2, 64896, Note_on_c, 0, 72, 80
2, 65276, Note_off_c, 0, 72, 100
2, 65280, Note_on_c, 0, 71, 80
2, 65468, Note_off_c, 0, 71, 100
2, 65664, Note_on_c, 0, 71, 80
2, 65948, Note_off_c, 0, 71, 100
2, 65952, Note_on_c, 0, 71, 80
2, 66044, Note_off_c, 0, 71, 100
2, 66048, Note_on_c, 0, 71, 80
2, 66236, Note_off_c, 0, 71, 100
2, 66240, Note_on_c, 0, 69, 80
2, 66428, Note_off_c, 0, 69, 100
2, 66432, Note_on_c, 0, 68, 80
2, 66620, Note_off_c, 0, 68, 100
2, 66624, Note_on_c, 0, 69, 80
2, 66812, Note_off_c, 0, 69, 100
2, 66816, Note_on_c, 0, 75, 80
2, 67004, Note_off_c, 0, 75, 100
2, 67008, Note_on_c, 0, 76, 80
2, 67196, Note_off_c, 0, 76, 100
2, 67200, Note_on_c, 0, 67, 80
2, 67580, Note_off_c, 0, 67, 100
2, 67584, Note_on_c, 0, 66, 80
2, 67772, Note_off_c, 0, 66, 100
2, 67968, Note_on_c, 0, 79, 95
2, 68252, Note_off_c, 0, 79, 100
2, 68256, Note_on_c, 0, 78, 95
2, 68348, Note_off_c, 0, 78, 100
2, 68352, Note_on_c, 0, 78, 95
2, 69116, Note_off_c, 0, 78, 100
2, 69120, Note_on_c, 0, 78, 95
2, 69404, Note_off_c, 0, 78, 100
2, 69408, Note_on_c, 0, 79, 95
2, 69500, Note_off_c, 0, 79, 100
2, 69504, Note_on_c, 0, 79, 95
2, 70268, Note_off_c, 0, 79, 100
2, 70272, Note_on_c, 0, 79, 95
2, 70556, Note_off_c, 0, 79, 100
2, 70560, Note_on_c, 0, 83, 95
2, 70652, Note_off_c, 0, 83, 100
2, 70656, Note_on_c, 0, 86, 95
2, 71228, Note_off_c, 0, 86, 100
2, 71232, Note_on_c, 0, 88, 95
2, 71420, Note_off_c, 0, 88, 100
2, 71424, Note_on_c, 0, 86, 95
2, 71612, Note_off_c, 0, 86, 100
2, 71616, Note_on_c, 0, 84, 95
2, 71804, Note_off_c, 0, 84, 100
2, 71808, Note_on_c, 0, 83, 95
2, 72188, Note_off_c, 0, 83, 100
2, 72192, Note_on_c, 0, 79, 95
2, 72380, Note_off_c, 0, 79, 100
2, 72576, Note_on_c, 0, 79, 95
2, 72860, Note_off_c, 0, 79, 100
2, 72864, Note_on_c, 0, 78, 95
2, 72956, Note_off_c, 0, 78, 100
2, 72960, Note_on_c, 0, 78, 95
2, 73724, Note_off_c, 0, 78, 100
2, 73728, Note_on_c, 0, 78, 95
2, 74012, Note_off_c, 0, 78, 100
2, 74016, Note_on_c, 0, 79, 95
2, 74108, Note_off_c, 0, 79, 100
2, 74112, Note_on_c, 0, 79, 95
2, 74876, Note_off_c, 0, 79, 100
2, 74880, Note_on_c, 0, 79, 95
2, 75164, Note_off_c, 0, 79, 100
2, 75168, Note_on_c, 0, 83, 95
2, 75260, Note_off_c, 0, 83, 100
2, 75264, Note_on_c, 0, 86, 95
2, 75644, Note_off_c, 0, 86, 100
2, 75648, Note_on_c, 0, 86, 95
2, 75740, Note_off_c, 0, 86, 100
2, 75744, Note_on_c, 0, 85, 95
2, 75836, Note_off_c, 0, 85, 100
2, 75840, Note_on_c, 0, 86, 95
2, 75932, Note_off_c, 0, 86, 100
2, 75936, Note_on_c, 0, 85, 95
2, 76028, Note_off_c, 0, 85, 100
2, 76032, Note_on_c, 0, 86, 95
2, 76124, Note_off_c, 0, 86, 100
2, 76128, Note_on_c, 0, 84, 95
2, 76220, Note_off_c, 0, 84, 100
2, 76224, Note_on_c, 0, 83, 95
2, 76316, Note_off_c, 0, 83, 100
2, 76320, Note_on_c, 0, 81, 95
2, 76412, Note_off_c, 0, 81, 100
2, 76416, Note_on_c, 0, 79, 95
2, 76796, Note_off_c, 0, 79, 100
2, 77184, Note_on_c, 0, 72, 110
2, 77468, Note_off_c, 0, 72, 100
2, 77472, Note_on_c, 0, 76, 110
2, 77564, Note_off_c, 0, 76, 100
2, 77568, Key_signature, 0, "major"
2, 77568, Note_on_c, 0, 79, 110
2, 77568, Note_on_c, 0, 76, 110
2, 78140, Note_off_c, 0, 79, 100
2, 78140, Note_off_c, 0, 76, 100
2, 78144, Note_on_c, 0, 76, 110
2, 78144, Note_on_c, 0, 67, 110
2, 78332, Note_off_c, 0, 76, 100
2, 78332, Note_off_c, 0, 67, 100
2, 78336, Note_on_c, 0, 77, 110
2, 78336, Note_on_c, 0, 69, 110
2, 78524, Note_off_c, 0, 77, 100
2, 78524, Note_off_c, 0, 69, 100
2, 78528, Note_on_c, 0, 74, 110
2, 78528, Note_on_c, 0, 65, 110
2, 78716, Note_off_c, 0, 74, 100
2, 78716, Note_off_c, 0, 65, 100
2, 78720, Note_on_c, 0, 72, 110
2, 78720, Note_on_c, 0, 64, 110
2, 79100, Note_off_c, 0, 72, 100
2, 79100, Note_off_c, 0, 64, 100
2, 79104, Note_on_c, 0, 72, 110
2, 79104, Note_on_c, 0, 64, 110
2, 79292, Note_off_c, 0, 72, 100
2, 79292, Note_off_c, 0, 64, 100
2, 79296, Note_on_c, 0, 67, 110
2, 79484, Note_off_c, 0, 67, 100
2, 79488, Note_on_c, 0, 72, 110
2, 79676, Note_off_c, 0, 72, 100
2, 79680, Note_on_c, 0, 76, 110
2, 79868, Note_off_c, 0, 76, 100
2, 79872, Note_on_c, 0, 79, 110
2, 79872, Note_on_c, 0, 76, 110
2, 80444, Note_off_c, 0, 79, 100
2, 80444, Note_off_c, 0, 76, 100
2, 80448, Note_on_c, 0, 76, 110
2, 80448, Note_on_c, 0, 67, 110
2, 80636, Note_off_c, 0, 76, 100
2, 80636, Note_off_c, 0, 67, 100
2, 80640, Note_on_c, 0, 77, 110
2, 80640, Note_on_c, 0, 69, 110
2, 80828, Note_off_c, 0, 77, 100
2, 80828, Note_off_c, 0, 69, 100
2, 80832, Note_on_c, 0, 74, 110
2, 80832, Note_on_c, 0, 65, 110
2, 81020, Note_off_c, 0, 74, 100
2, 81020, Note_off_c, 0, 65, 100
2, 81024, Note_on_c, 0, 72, 110
2, 81024, Note_on_c, 0, 64, 110
2, 81404, Note_off_c, 0, 72, 100
2, 81404, Note_off_c, 0, 64, 100
2, 81600, Note_on_c, 0, 72, 80
2, 81788, Note_off_c, 0, 72, 100
2, 81792, Note_on_c, 0, 71, 80
2, 81980, Note_off_c, 0, 71, 100
2, 81984, Note_on_c, 0, 72, 80
2, 82172, Note_off_c, 0, 72, 100
2, 82176, Note_on_c, 0, 74, 80
2, 82364, Note_off_c, 0, 74, 100
2, 82368, Note_on_c, 0, 71, 80
2, 82556, Note_off_c, 0, 71, 100
2, 82560, Note_on_c, 0, 67, 80
2, 82748, Note_off_c, 0, 67, 100
2, 82752, Note_on_c, 0, 74, 80
2, 82940, Note_off_c, 0, 74, 100
2, 82944, Note_on_c, 0, 72, 80
2, 83132, Note_off_c, 0, 72, 100
2, 83136, Note_on_c, 0, 74, 80
2, 83324, Note_off_c, 0, 74, 100
2, 83328, Note_on_c, 0, 76, 80
2, 83516, Note_off_c, 0, 76, 100
2, 83520, Note_on_c, 0, 72, 80
2, 83708, Note_off_c, 0, 72, 100
2, 83712, Note_on_c, 0, 67, 80
2, 83900, Note_off_c, 0, 67, 100
2, 83904, Note_on_c, 0, 76, 80
2, 84092, Note_off_c, 0, 76, 100
2, 84096, Note_on_c, 0, 74, 80
2, 84284, Note_off_c, 0, 74, 100
2, 84288, Note_on_c, 0, 76, 80
2, 84476, Note_off_c, 0, 76, 100
2, 84480, Note_on_c, 0, 77, 80
2, 84668, Note_off_c, 0, 77, 100
2, 84672, Note_on_c, 0, 79, 80
2, 84860, Note_off_c, 0, 79, 100
2, 84864, Note_on_c, 0, 81, 80
2, 85052, Note_off_c, 0, 81, 100
2, 85056, Note_on_c, 0, 76, 80
2, 85244, Note_off_c, 0, 76, 100
2, 85248, Note_on_c, 0, 77, 80
2, 85436, Note_off_c, 0, 77, 100
2, 85440, Note_on_c, 0, 74, 80
2, 85628, Note_off_c, 0, 74, 100
2, 85632, Note_on_c, 0, 72, 80
2, 86012, Note_off_c, 0, 72, 100
2, 86016, Note_on_c, 0, 71, 80
2, 86204, Note_off_c, 0, 71, 100
2, 86208, Note_on_c, 0, 67, 110
2, 86396, Note_off_c, 0, 67, 100
2, 86400, Note_on_c, 0, 72, 110
2, 86588, Note_off_c, 0, 72, 100
2, 86592, Note_on_c, 0, 76, 110
2, 86780, Note_off_c, 0, 76, 100
2, 86784, Note_on_c, 0, 79, 110
2, 86784, Note_on_c, 0, 76, 110
2, 87356, Note_off_c, 0, 79, 100
2, 87356, Note_off_c, 0, 76, 100
2, 87360, Note_on_c, 0, 76, 110
2, 87360, Note_on_c, 0, 67, 110
2, 87548, Note_off_c, 0, 76, 100
2, 87548, Note_off_c, 0, 67, 100
2, 87552, Note_on_c, 0, 77, 110
2, 87552, Note_on_c, 0, 69, 110
2, 87740, Note_off_c, 0, 77, 100
2, 87740, Note_off_c, 0, 69, 100
2, 87744, Note_on_c, 0, 74, 110
2, 87744, Note_on_c, 0, 65, 110
2, 87932, Note_off_c, 0, 74, 100
2, 87932, Note_off_c, 0, 65, 100
2, 87936, Note_on_c, 0, 72, 110
2, 87936, Note_on_c, 0, 64, 110
2, 88316, Note_off_c, 0, 72, 100
2, 88316, Note_off_c, 0, 64, 100
2, 88320, Note_on_c, 0, 72, 110
2, 88320, Note_on_c, 0, 64, 110
2, 88508, Note_off_c, 0, 72, 100
2, 88508, Note_off_c, 0, 64, 100
2, 88512, Note_on_c, 0, 67, 110
2, 88700, Note_off_c, 0, 67, 100
2, 88704, Note_on_c, 0, 72, 110
2, 88892, Note_off_c, 0, 72, 100
2, 88896, Note_on_c, 0, 76, 110
2, 89084, Note_off_c, 0, 76, 100
2, 89088, Note_on_c, 0, 79, 110
2, 89088, Note_on_c, 0, 76, 110
2, 89660, Note_off_c, 0, 79, 100
2, 89660, Note_off_c, 0, 76, 100
2, 89664, Note_on_c, 0, 76, 110
2, 89664, Note_on_c, 0, 67, 110
2, 89852, Note_off_c, 0, 76, 100
2, 89852, Note_off_c, 0, 67, 100
2, 89856, Note_on_c, 0, 77, 110
2, 89856, Note_on_c, 0, 69, 110
2, 90044, Note_off_c, 0, 77, 100
2, 90044, Note_off_c, 0, 69, 100
2, 90048, Note_on_c, 0, 74, 110
2, 90048, Note_on_c, 0, 65, 110
2, 90236, Note_off_c, 0, 74, 100
2, 90236, Note_off_c, 0, 65, 100
2, 90240, Note_on_c, 0, 72, 110
2, 90240, Note_on_c, 0, 64, 110
2, 90620, Note_off_c, 0, 72, 100
2, 90620, Note_off_c, 0, 64, 100
2, 90816, Note_on_c, 0, 72, 80
2, 91004, Note_off_c, 0, 72, 100
2, 91008, Note_on_c, 0, 71, 80
2, 91196, Note_off_c, 0, 71, 100
2, 91200, Note_on_c, 0, 72, 80
2, 91388, Note_off_c, 0, 72, 100
2, 91392, Note_on_c, 0, 74, 80
2, 91580, Note_off_c, 0, 74, 100
2, 91584, Note_on_c, 0, 71, 80
2, 91772, Note_off_c, 0, 71, 100
2, 91776, Note_on_c, 0, 67, 80
2, 91964, Note_off_c, 0, 67, 100
2, 91968, Note_on_c, 0, 74, 80
2, 92156, Note_off_c, 0, 74, 100
2, 92160, Note_on_c, 0, 72, 80
2, 92348, Note_off_c, 0, 72, 100
2, 92352, Note_on_c, 0, 74, 80
2, 92540, Note_off_c, 0, 74, 100
2, 92544, Note_on_c, 0, 76, 80
2, 92732, Note_off_c, 0, 76, 100
2, 92736, Note_on_c, 0, 72, 80
2, 92924, Note_off_c, 0, 72, 100
2, 92928, Note_on_c, 0, 67, 80
2, 93116, Note_off_c, 0, 67, 100
2, 93120, Note_on_c, 0, 76, 80
2, 93308, Note_off_c, 0, 76, 100
2, 93312, Note_on_c, 0, 74, 80
2, 93500, Note_off_c, 0, 74, 100
2, 93504, Note_on_c, 0, 76, 80
2, 93692, Note_off_c, 0, 76, 100
2, 93696, Note_on_c, 0, 78, 80
2, 93884, Note_off_c, 0, 78, 100
2, 93888, Note_on_c, 0, 72, 80
2, 94076, Note_off_c, 0, 72, 100
2, 94080, Note_on_c, 0, 69, 80
2, 94268, Note_off_c, 0, 69, 100
2, 94272, Note_on_c, 0, 78, 80
2, 94460, Note_off_c, 0, 78, 100
2, 94464, Note_on_c, 0, 76, 80
2, 94652, Note_off_c, 0, 76, 100
2, 94656, Note_on_c, 0, 78, 80
2, 94844, Note_off_c, 0, 78, 100
2, 94848, Note_on_c, 0, 79, 80
2, 95036, Note_off_c, 0, 79, 100
2, 95040, Note_on_c, 0, 74, 80
2, 95228, Note_off_c, 0, 74, 100
2, 95232, Note_on_c, 0, 71, 80
2, 95420, Note_off_c, 0, 71, 100
2, 95424, Note_on_c, 0, 79, 80
2, 95612, Note_off_c, 0, 79, 100
2, 95616, Note_on_c, 0, 81, 80
2, 95804, Note_off_c, 0, 81, 100
2, 95808, Note_on_c, 0, 83, 80
2, 95996, Note_off_c, 0, 83, 100
2, 96000, Note_on_c, 0, 84, 80
2, 96188, Note_off_c, 0, 84, 100
2, 96192, Note_on_c, 0, 83, 80
2, 96380, Note_off_c, 0, 83, 100
2, 96384, Note_on_c, 0, 81, 80
2, 96572, Note_off_c, 0, 81, 100
2, 96576, Note_on_c, 0, 79, 80
2, 96764, Note_off_c, 0, 79, 100
2, 96768, Note_on_c, 0, 78, 80
2, 96956, Note_off_c, 0, 78, 100
2, 96960, Note_on_c, 0, 76, 80
2, 97148, Note_off_c, 0, 76, 100
2, 97152, Note_on_c, 0, 74, 80
2, 97340, Note_off_c, 0, 74, 100
2, 97344, Note_on_c, 0, 72, 80
2, 97532, Note_off_c, 0, 72, 100
2, 97536, Note_on_c, 0, 71, 80
2, 97724, Note_off_c, 0, 71, 100
2, 97728, Note_on_c, 0, 69, 80
2, 97916, Note_off_c, 0, 69, 100
2, 97920, Note_on_c, 0, 67, 80
2, 98108, Note_off_c, 0, 67, 100
2, 98112, Note_on_c, 0, 66, 80
2, 98300, Note_off_c, 0, 66, 100
2, 98304, Key_signature, 1, "major"
2, 98304, Note_on_c, 0, 64, 80
2, 98492, Note_off_c, 0, 64, 100
2, 98496, Note_on_c, 0, 62, 80
2, 98684, Note_off_c, 0, 62, 100
2, 100224, Note_on_c, 0, 67, 80
2, 100508, Note_off_c, 0, 67, 100
2, 100512, Note_on_c, 0, 66, 80
2, 100604, Note_off_c, 0, 66, 100
2, 100608, Note_on_c, 0, 66, 80
2, 101372, Note_off_c, 0, 66, 100
2, 101376, Note_on_c, 0, 66, 80
2, 101660, Note_off_c, 0, 66, 100
2, 101664, Note_on_c, 0, 67, 80
2, 101756, Note_off_c, 0, 67, 100
2, 101760, Note_on_c, 0, 67, 80
2, 102524, Note_off_c, 0, 67, 100
2, 102528, Note_on_c, 0, 67, 80
2, 102812, Note_off_c, 0, 67, 100
2, 102816, Note_on_c, 0, 71, 80
2, 102908, Note_off_c, 0, 71, 100
2, 102912, Note_on_c, 0, 74, 80
2, 103484, Note_off_c, 0, 74, 100
2, 103488, Note_on_c, 0, 76, 80
2, 103676, Note_off_c, 0, 76, 100
2, 103680, Note_on_c, 0, 74, 80
2, 103868, Note_off_c, 0, 74, 100
2, 103872, Note_on_c, 0, 72, 80
2, 104060, Note_off_c, 0, 72, 100
2, 104064, Note_on_c, 0, 71, 80
2, 104444, Note_off_c, 0, 71, 100
2, 104448, Note_on_c, 0, 67, 80
2, 104636, Note_off_c, 0, 67, 100
2, 104832, Note_on_c, 0, 67, 80
2, 105116, Note_off_c, 0, 67, 100
2, 105120, Note_on_c, 0, 66, 80
2, 105212, Note_off_c, 0, 66, 100
2, 105216, Note_on_c, 0, 66, 80
2, 105980, Note_off_c, 0, 66, 100
2, 105984, Note_on_c, 0, 66, 80
2, 106268, Note_off_c, 0, 66, 100
2, 106272, Note_on_c, 0, 67, 80
2, 106364, Note_off_c, 0, 67, 100
2, 106368, Note_on_c, 0, 67, 80
2, 107132, Note_off_c, 0, 67, 100
2, 107136, Note_on_c, 0, 67, 80
2, 107420, Note_off_c, 0, 67, 100
2, 107424, Note_on_c, 0, 71, 80
2, 107516, Note_off_c, 0, 71, 100
2, 107520, Note_on_c, 0, 74, 80
2, 108092, Note_off_c, 0, 74, 100
2, 108096, Note_on_c, 0, 73, 80
2, 108284, Note_off_c, 0, 73, 100
2, 108288, Note_on_c, 0, 72, 80
2, 108476, Note_off_c, 0, 72, 100
2, 108480, Note_on_c, 0, 69, 80
2, 108668, Note_off_c, 0, 69, 100
2, 108672, Note_on_c, 0, 67, 80
2, 109052, Note_off_c, 0, 67, 100
2, 109440, Note_on_c, 0, 71, 80
2, 109724, Note_off_c, 0, 71, 100
2, 109728, Note_on_c, 0, 71, 80
2, 109820, Note_off_c, 0, 71, 100
2, 109824, Note_on_c, 0, 71, 80
2, 110204, Note_off_c, 0, 71, 100
2, 110208, Note_on_c, 0, 72, 80
2, 110396, Note_off_c, 0, 72, 100
2, 110592, Note_on_c, 0, 72, 80
2, 110876, Note_off_c, 0, 72, 100
2, 110880, Note_on_c, 0, 72, 80
2, 110972, Note_off_c, 0, 72, 100
2, 110976, Note_on_c, 0, 72, 80
2, 111356, Note_off_c, 0, 72, 100
2, 111360, Note_on_c, 0, 71, 80
2, 111548, Note_off_c, 0, 71, 100
2, 111744, Note_on_c, 0, 71, 80
2, 112028, Note_off_c, 0, 71, 100
2, 112032, Note_on_c, 0, 71, 80
2, 112124, Note_off_c, 0, 71, 100
2, 112128, Note_on_c, 0, 71, 80
2, 112316, Note_off_c, 0, 71, 100
2, 112320, Note_on_c, 0, 69, 80
2, 112508, Note_off_c, 0, 69, 100
2, 112512, Note_on_c, 0, 68, 80
2, 112700, Note_off_c, 0, 68, 100
2, 112704, Note_on_c, 0, 69, 80
2, 112892, Note_off_c, 0, 69, 100
2, 112896, Note_on_c, 0, 75, 80
2, 113084, Note_off_c, 0, 75, 100
2, 113088, Note_on_c, 0, 76, 80
2, 113276, Note_off_c, 0, 76, 100
2, 113280, Note_on_c, 0, 67, 80
2, 113660, Note_off_c, 0, 67, 100
2, 113664, Note_on_c, 0, 66, 80
2, 113852, Note_off_c, 0, 66, 100
2, 114048, Note_on_c, 0, 79, 95
2, 114332, Note_off_c, 0, 79, 100
2, 114336, Note_on_c, 0, 78, 95
2, 114428, Note_off_c, 0, 78, 100
2, 114432, Note_on_c, 0, 78, 95
2, 115196, Note_off_c, 0, 78, 100
2, 115200, Note_on_c, 0, 78, 95
2, 115484, Note_off_c, 0, 78, 100
2, 115488, Note_on_c, 0, 79, 95
2, 115580, Note_off_c, 0, 79, 100
2, 115584, Note_on_c, 0, 79, 95
2, 116348, Note_off_c, 0, 79, 100
2, 116352, Note_on_c, 0, 79, 95
2, 116636, Note_off_c, 0, 79, 100
2, 116640, Note_on_c, 0, 83, 95
2, 116732, Note_off_c, 0, 83, 100
2, 116736, Note_on_c, 0, 86, 95
2, 117308, Note_off_c, 0, 86, 100
2, 117312, Note_on_c, 0, 88, 95
2, 117500, Note_off_c, 0, 88, 100
2, 117504, Note_on_c, 0, 86, 95
2, 117692, Note_off_c, 0, 86, 100
2, 117696, Note_on_c, 0, 84, 95
2, 117884, Note_off_c, 0, 84, 100
2, 117888, Note_on_c, 0, 83, 95
2, 118268, Note_off_c, 0, 83, 100
2, 118272, Note_on_c, 0, 79, 95
2, 118460, Note_off_c, 0, 79, 100
2, 118656, Note_on_c, 0, 79, 95
2, 118940, Note_off_c, 0, 79, 100
2, 118944, Note_on_c, 0, 78, 95
2, 119036, Note_off_c, 0, 78, 100
2, 119040, Note_on_c, 0, 78, 95
2, 119804, Note_off_c, 0, 78, 100
2, 119808, Note_on_c, 0, 78, 95
2, 120092, Note_off_c, 0, 78, 100
2, 120096, Note_on_c, 0, 79, 95
2, 120188, Note_off_c, 0, 79, 100
2, 120192, Note_on_c, 0, 79, 95
2, 120956, Note_off_c, 0, 79, 100
2, 120960, Note_on_c, 0, 79, 95
2, 121244, Note_off_c, 0, 79, 100
2, 121248, Note_on_c, 0, 83, 95
2, 121340, Note_off_c, 0, 83, 100
2, 121344, Note_on_c, 0, 86, 110
2, 121724, Note_off_c, 0, 86, 100
2, 121728, Note_on_c, 0, 86, 110
2, 121820, Note_off_c, 0, 86, 100
2, 121824, Note_on_c, 0, 85, 110
2, 121916, Note_off_c, 0, 85, 100
2, 121920, Note_on_c, 0, 86, 110
2, 122012, Note_off_c, 0, 86, 100
2, 122016, Note_on_c, 0, 85, 110
2, 122108, Note_off_c, 0, 85, 100
2, 122112, Note_on_c, 0, 86, 110
2, 122204, Note_off_c, 0, 86, 100
2, 122208, Note_on_c, 0, 84, 110
2, 122300, Note_off_c, 0, 84, 100
2, 122304, Note_on_c, 0, 83, 110
2, 122396, Note_off_c, 0, 83, 100
2, 122400, Note_on_c, 0, 81, 110
2, 122492, Note_off_c, 0, 81, 100
2, 122496, Note_on_c, 0, 79, 110
2, 122876, Note_off_c, 0, 79, 100
2, 123264, Note_on_c, 0, 79, 80
2, 123548, Note_off_c, 0, 79, 100
2, 123552, Note_on_c, 0, 77, 80
2, 123644, Note_off_c, 0, 77, 100
2, 123648, Note_on_c, 0, 77, 80
2, 124028, Note_off_c, 0, 77, 100
2, 124416, Note_on_c, 0, 77, 80
2, 124700, Note_off_c, 0, 77, 100
2, 124704, Note_on_c, 0, 76, 80
2, 124796, Note_off_c, 0, 76, 100
2, 124800, Note_on_c, 0, 76, 80
2, 125180, Note_off_c, 0, 76, 100
2, 125568, Note_on_c, 0, 76, 80
2, 125852, Note_off_c, 0, 76, 100
2, 125856, Note_on_c, 0, 74, 80
2, 125948, Note_off_c, 0, 74, 100
2, 125952, Note_on_c, 0, 74, 80
2, 126332, Note_off_c, 0, 74, 100
2, 126720, Note_on_c, 0, 74, 80
2, 127004, Note_off_c, 0, 74, 100
2, 127008, Note_on_c, 0, 72, 80
2, 127100, Note_off_c, 0, 72, 100
2, 127104, Note_on_c, 0, 72, 80
2, 127484, Note_off_c, 0, 72, 100
2, 127872, Note_on_c, 0, 72, 80
2, 128156, Note_off_c, 0, 72, 100
2, 128160, Note_on_c, 0, 69, 80
2, 128252, Note_off_c, 0, 69, 100
2, 128256, Note_on_c, 0, 67, 80
2, 128444, Note_off_c, 0, 67, 100
2, 128448, Note_on_c, 0, 66, 80
2, 128636, Note_off_c, 0, 66, 100
2, 128640, Note_on_c, 0, 74, 97
2, 129212, Note_off_c, 0, 74, 100
2, 129216, Note_on_c, 0, 67, 80
2, 129404, Note_off_c, 0, 67, 100
2, 129408, Note_on_c, 0, 67, 80
2, 129596, Note_off_c, 0, 67, 100
2, 129600, Note_on_c, 0, 66, 80
2, 129788, Note_off_c, 0, 66, 100
2, 129792, Note_on_c, 0, 74, 95
2, 130364, Note_off_c, 0, 74, 100
2, 130368, Note_on_c, 0, 71, 80
2, 130556, Note_off_c, 0, 71, 100
2, 130752, Note_on_c, 0, 69, 81
2, 130844, Note_off_c, 0, 69, 100
2, 130848, Note_on_c, 0, 72, 82
2, 130940, Note_off_c, 0, 72, 100
2, 131136, Note_on_c, 0, 67, 85
2, 131228, Note_off_c, 0, 67, 100
2, 131232, Note_on_c, 0, 71, 86
2, 131324, Note_off_c, 0, 71, 100
2, 131520, Note_on_c, 0, 66, 89
2, 131612, Note_off_c, 0, 66, 100
2, 131616, Note_on_c, 0, 69, 89
2, 131708, Note_off_c, 0, 69, 100
2, 131808, Note_on_c, 0, 67, 91
2, 131900, Note_off_c, 0, 67, 100
2, 131904, Note_on_c, 0, 69, 93
2, 131996, Note_off_c, 0, 69, 100
2, 132000, Note_on_c, 0, 71, 95
2, 132092, Note_off_c, 0, 71, 100
2, 132096, Note_on_c, 0, 72, 96
2, 132188, Note_off_c, 0, 72, 100
2, 132192, Note_on_c, 0, 74, 98
2, 132284, Note_off_c, 0, 74, 100
2, 132288, Note_on_c, 0, 76, 100
2, 132380, Note_off_c, 0, 76, 100
2, 132384, Note_on_c, 0, 78, 102
2, 132476, Note_off_c, 0, 78, 100
2, 132480, Note_on_c, 0, 79, 103
2, 132572, Note_off_c, 0, 79, 100
2, 132576, Note_on_c, 0, 81, 105
2, 132668, Note_off_c, 0, 81, 100
2, 132672, Note_on_c, 0, 83, 107
2, 132764, Note_off_c, 0, 83, 100
2, 132768, Note_on_c, 0, 79, 109
2, 132860, Note_off_c, 0, 79, 100
2, 132864, Note_on_c, 0, 78, 110
2, 133052, Note_off_c, 0, 78, 100
2, 133056, Note_on_c, 0, 86, 110
2, 133436, Note_off_c, 0, 86, 100
2, 133440, Note_on_c, 0, 86, 110
2, 133628, Note_off_c, 0, 86, 100
2, 133632, Note_on_c, 0, 84, 110
2, 133724, Note_off_c, 0, 84, 100
2, 133728, Note_on_c, 0, 83, 110
2, 133820, Note_off_c, 0, 83, 100
2, 133824, Note_on_c, 0, 81, 110
2, 133916, Note_off_c, 0, 81, 100
2, 133920, Note_on_c, 0, 79, 110
2, 134012, Note_off_c, 0, 79, 100
2, 134016, Note_on_c, 0, 78, 110
2, 134108, Note_off_c, 0, 78, 100
2, 134112, Note_on_c, 0, 86, 110
2, 134204, Note_off_c, 0, 86, 100
2, 134208, Note_on_c, 0, 85, 110
2, 134300, Note_off_c, 0, 85, 100
2, 134304, Note_on_c, 0, 86, 110
2, 134396, Note_off_c, 0, 86, 100
2, 134400, Note_on_c, 0, 85, 110
2, 134492, Note_off_c, 0, 85, 100
2, 134496, Note_on_c, 0, 86, 110
2, 134588, Note_off_c, 0, 86, 100
2, 134592, Note_on_c, 0, 85, 110
2, 134684, Note_off_c, 0, 85, 100
2, 134688, Note_on_c, 0, 86, 110
2, 134780, Note_off_c, 0, 86, 100
2, 134784, Note_on_c, 0, 84, 110
2, 134876, Note_off_c, 0, 84, 100
2, 134880, Note_on_c, 0, 83, 110
2, 134972, Note_off_c, 0, 83, 100
2, 134976, Note_on_c, 0, 81, 110
2, 135068, Note_off_c, 0, 81, 100
2, 135072, Note_on_c, 0, 79, 110
2, 135164, Note_off_c, 0, 79, 100
2, 135168, Note_on_c, 0, 87, 110
2, 135260, Note_off_c, 0, 87, 100
2, 135264, Note_on_c, 0, 88, 110
2, 135356, Note_off_c, 0, 88, 100
2, 135360, Note_on_c, 0, 87, 110
2, 135452, Note_off_c, 0, 87, 100
2, 135456, Note_on_c, 0, 88, 110
2, 135548, Note_off_c, 0, 88, 100
2, 135552, Note_on_c, 0, 79, 110
2, 135932, Note_off_c, 0, 79, 100
2, 135936, Note_on_c, 0, 83, 110
2, 136028, Note_off_c, 0, 83, 100
2, 136032, Note_on_c, 0, 81, 110
2, 136124, Note_off_c, 0, 81, 100
2, 136128, Note_on_c, 0, 79, 110
2, 136220, Note_off_c, 0, 79, 100
2, 136224, Note_on_c, 0, 81, 110
2, 136316, Note_off_c, 0, 81, 100
2, 136320, Note_on_c, 0, 79, 110
2, 136700, Note_off_c, 0, 79, 100
2, 137088, Note_on_c, 0, 66, 80
2, 137088, Note_on_c, 0, 60, 80
2, 137468, Note_off_c, 0, 66, 100
2, 137468, Note_off_c, 0, 60, 100
2, 137472, Note_on_c, 0, 67, 80
2, 137472, Note_on_c, 0, 59, 80
2, 138236, Note_off_c, 0, 67, 100
2, 138236, Note_off_c, 0, 59, 100
2, 138624, Control_c, 0, 7, 0
2, 139008, Note_on_c, 0, 67, 1
2, 139388, Note_off_c, 0, 67, 100
2, 139388, End_track
3, 0, Start_track
3, 0, Title_t, "Left"
3, 0, Control_c, 1, 0, 0
3, 0, Program_c, 1, 0
3, 0, Control_c, 1, 7, 100
3, 0, Control_c, 1, 10, 59
3, 0, Control_c, 1, 91, 127
3, 0, Key_signature, 1, "major"
3, 0, Note_on_c, 1, 59, 80
3, 0, Note_on_c, 1, 55, 80
3, 188, Note_off_c, 1, 59, 100
3, 188, Note_off_c, 1, 55, 100
3, 192, Note_on_c, 1, 62, 80
3, 380, Note_off_c, 1, 62, 100
3, 384, Note_on_c, 1, 57, 80
3, 384, Note_on_c, 1, 60, 80
3, 572, Note_off_c, 1, 57, 100
3, 572, Note_off_c, 1, 60, 100
3, 576, Note_on_c, 1, 62, 80
3, 764, Note_off_c, 1, 62, 100
3, 768, Note_on_c, 1, 50, 80
3, 956, Note_off_c, 1, 50, 100
3, 960, Note_on_c, 1, 62, 80
3, 1148, Note_off_c, 1, 62, 100
3, 1152, Note_on_c, 1, 60, 80
3, 1152, Note_on_c, 1, 57, 80
3, 1340, Note_off_c, 1, 60, 100
3, 1340, Note_off_c, 1, 57, 100
3, 1344, Note_on_c, 1, 62, 80
3, 1532, Note_off_c, 1, 62, 100
3, 1536, Note_on_c, 1, 59, 80
3, 1536, Note_on_c, 1, 55, 80
3, 1724, Note_off_c, 1, 59, 100
3, 1724, Note_off_c, 1, 55, 100
3, 1728, Note_on_c, 1, 62, 80
3, 1916, Note_off_c, 1, 62, 100
3, 1920, Note_on_c, 1, 50, 80
3, 2108, Note_off_c, 1, 50, 100
3, 2112, Note_on_c, 1, 62, 80
3, 2300, Note_off_c, 1, 62, 100
3, 2304, Note_on_c, 1, 59, 80
3, 2304, Note_on_c, 1, 55, 80
3, 2492, Note_off_c, 1, 59, 100
3, 2492, Note_off_c, 1, 55, 100
3, 2496, Note_on_c, 1, 62, 80
3, 2684, Note_off_c, 1, 62, 100
3, 2688, Note_on_c, 1, 57, 80
3, 2688, Note_on_c, 1, 54, 80
3, 2876, Note_off_c, 1, 57, 100
3, 2876, Note_off_c, 1, 54, 100
3, 2880, Note_on_c, 1, 62, 80
3, 3068, Note_off_c, 1, 62, 100
3, 3072, Note_on_c, 1, 50, 80
3, 3260, Note_off_c, 1, 50, 100
3, 3264, Note_on_c, 1, 62, 80
3, 3452, Note_off_c, 1, 62, 100
3, 3456, Note_on_c, 1, 57, 80
3, 3456, Note_on_c, 1, 54, 80
3, 3644, Note_off_c, 1, 57, 100
3, 3644, Note_off_c, 1, 54, 100
3, 3648, Note_on_c, 1, 62, 80
3, 3836, Note_off_c, 1, 62, 100
3, 3840, Note_on_c, 1, 59, 80
3, 3840, Note_on_c, 1, 55, 80
3, 4028, Note_off_c, 1, 59, 100
3, 4028, Note_off_c, 1, 55, 100
3, 4032, Note_on_c, 1, 62, 80
3, 4220, Note_off_c, 1, 62, 100
3, 4224, Note_on_c, 1, 50, 80
3, 4412, Note_off_c, 1, 50, 100
3, 4416, Note_on_c, 1, 62, 80
3, 4604, Note_off_c, 1, 62, 100
3, 4608, Note_on_c, 1, 59, 80
3, 4608, Note_on_c, 1, 55, 80
3, 4796, Note_off_c, 1, 59, 100
3, 4796, Note_off_c, 1, 55, 100
3, 4800, Note_on_c, 1, 62, 80
3, 4988, Note_off_c, 1, 62, 100
3, 4992, Note_on_c, 1, 57, 80
3, 4992, Note_on_c, 1, 60, 80
3, 5180, Note_off_c, 1, 57, 100
3, 5180, Note_off_c, 1, 60, 100
3, 5184, Note_on_c, 1, 62, 80
3, 5372, Note_off_c, 1, 62, 100
3, 5376, Note_on_c, 1, 50, 80
3, 5564, Note_off_c, 1, 50, 100
3, 5568, Note_on_c, 1, 62, 80
3, 5756, Note_off_c, 1, 62, 100
3, 5760, Note_on_c, 1, 60, 80
3, 5760, Note_on_c, 1, 57, 80
3, 5948, Note_off_c, 1, 60, 100
3, 5948, Note_off_c, 1, 57, 100
3, 5952, Note_on_c, 1, 62, 80
3, 6140, Note_off_c, 1, 62, 100
3, 6144, Note_on_c, 1, 59, 80
3, 6144, Note_on_c, 1, 55, 80
3, 6332, Note_off_c, 1, 59, 100
3, 6332, Note_off_c, 1, 55, 100
3, 6336, Note_on_c, 1, 62, 80
3, 6524, Note_off_c, 1, 62, 100
3, 6528, Note_on_c, 1, 50, 80
3, 6716, Note_off_c, 1, 50, 100
3, 6720, Note_on_c, 1, 62, 80
3, 6908, Note_off_c, 1, 62, 100
3, 6912, Note_on_c, 1, 59, 80
3, 6912, Note_on_c, 1, 55, 80
3, 7100, Note_off_c, 1, 59, 100
3, 7100, Note_off_c, 1, 55, 100
3, 7104, Note_on_c, 1, 62, 80
3, 7292, Note_off_c, 1, 62, 100
3, 7680, Note_on_c, 1, 60, 80
3, 7680, Note_on_c, 1, 50, 80
3, 8060, Note_off_c, 1, 60, 100
3, 8060, Note_off_c, 1, 50, 100
3, 8064, Note_on_c, 1, 60, 80
3, 8064, Note_on_c, 1, 50, 80
3, 8444, Note_off_c, 1, 60, 100
3, 8444, Note_off_c, 1, 50, 100
3, 8448, Note_on_c, 1, 59, 80
3, 8448, Note_on_c, 1, 55, 80
3, 8828, Note_off_c, 1, 59, 100
3, 8828, Note_off_c, 1, 55, 100
3, 8832, Note_on_c, 1, 43, 80
3, 9212, Note_off_c, 1, 43, 100
3, 9600, Note_on_c, 1, 66, 80
3, 9600, Note_on_c, 1, 63, 80
3, 9980, Note_off_c, 1, 66, 100
3, 9980, Note_off_c, 1, 63, 100
3, 9984, Note_on_c, 1, 67, 80
3, 9984, Note_on_c, 1, 64, 80
3, 10172, Note_off_c, 1, 67, 100
3, 10172, Note_off_c, 1, 64, 100
3, 10752, Note_on_c, 1, 67, 80
3, 10752, Note_on_c, 1, 64, 80
3, 11132, Note_off_c, 1, 67, 100
3, 11132, Note_off_c, 1, 64, 100
3, 11136, Note_on_c, 1, 66, 80
3, 11136, Note_on_c, 1, 62, 80
3, 11324, Note_off_c, 1, 66, 100
3, 11324, Note_off_c, 1, 62, 100
3, 12288, Note_on_c, 1, 60, 80
3, 12668, Note_off_c, 1, 60, 100
3, 12672, Note_on_c, 1, 60, 80
3, 13052, Note_off_c, 1, 60, 100
3, 13056, Note_on_c, 1, 59, 80
3, 13056, Note_on_c, 1, 50, 80
3, 13436, Note_off_c, 1, 59, 100
3, 13440, Note_on_c, 1, 57, 80
3, 13628, Note_off_c, 1, 50, 100
3, 13628, Note_off_c, 1, 57, 100
3, 14208, Note_on_c, 1, 57, 80
3, 14208, Note_on_c, 1, 60, 80
3, 14396, Note_off_c, 1, 57, 100
3, 14396, Note_off_c, 1, 60, 100
3, 14400, Note_on_c, 1, 62, 80
3, 14588, Note_off_c, 1, 62, 100
3, 14592, Note_on_c, 1, 50, 80
3, 14780, Note_off_c, 1, 50, 100
3, 14784, Note_on_c, 1, 62, 80
3, 14972, Note_off_c, 1, 62, 100
3, 14976, Note_on_c, 1, 60, 80
3, 14976, Note_on_c, 1, 57, 80
3, 15164, Note_off_c, 1, 60, 100
3, 15164, Note_off_c, 1, 57, 100
3, 15168, Note_on_c, 1, 62, 80
3, 15356, Note_off_c, 1, 62, 100
3, 15360, Note_on_c, 1, 59, 80
3, 15360, Note_on_c, 1, 55, 80
3, 15548, Note_off_c, 1, 59, 100
3, 15548, Note_off_c, 1, 55, 100
3, 15552, Note_on_c, 1, 62, 80
3, 15740, Note_off_c, 1, 62, 100
3, 15744, Note_on_c, 1, 50, 80
3, 15932, Note_off_c, 1, 50, 100
3, 15936, Note_on_c, 1, 62, 80
3, 16124, Note_off_c, 1, 62, 100
3, 16128, Note_on_c, 1, 59, 80
3, 16128, Note_on_c, 1, 55, 80
3, 16316, Note_off_c, 1, 59, 100
3, 16316, Note_off_c, 1, 55, 100
3, 16320, Note_on_c, 1, 62, 80
3, 16508, Note_off_c, 1, 62, 100
3, 16512, Note_on_c, 1, 57, 80
3, 16512, Note_on_c, 1, 54, 80
3, 16700, Note_off_c, 1, 57, 100
3, 16700, Note_off_c, 1, 54, 100
3, 16704, Note_on_c, 1, 62, 80
3, 16892, Note_off_c, 1, 62, 100
3, 16896, Note_on_c, 1, 50, 80
3, 17084, Note_off_c, 1, 50, 100
3, 17088, Note_on_c, 1, 62, 80
3, 17276, Note_off_c, 1, 62, 100
3, 17280, Note_on_c, 1, 57, 80
3, 17280, Note_on_c, 1, 54, 80
3, 17468, Note_off_c, 1, 57, 100
3, 17468, Note_off_c, 1, 54, 100
3, 17472, Note_on_c, 1, 62, 80
3, 17660, Note_off_c, 1, 62, 100
3, 17664, Note_on_c, 1, 59, 80
3, 17664, Note_on_c, 1, 55, 80
3, 17852, Note_off_c, 1, 59, 100
3, 17852, Note_off_c, 1, 55, 100
3, 17856, Note_on_c, 1, 62, 80
3, 18044, Note_off_c, 1, 62, 100
3, 18048, Note_on_c, 1, 50, 80
3, 18236, Note_off_c, 1, 50, 100
3, 18240, Note_on_c, 1, 62, 80
3, 18428, Note_off_c, 1, 62, 100
3, 18432, Note_on_c, 1, 59, 80
3, 18432, Note_on_c, 1, 55, 80
3, 18620, Note_off_c, 1, 59, 100
3, 18620, Note_off_c, 1, 55, 100
3, 18624, Note_on_c, 1, 62, 80
3, 18812, Note_off_c, 1, 62, 100
3, 18816, Note_on_c, 1, 57, 80
3, 18816, Note_on_c, 1, 60, 80
3, 19004, Note_off_c, 1, 57, 100
3, 19004, Note_off_c, 1, 60, 100
3, 19008, Note_on_c, 1, 62, 81
3, 19196, Note_off_c, 1, 62, 100
3, 19200, Note_on_c, 1, 50, 83
3, 19388, Note_off_c, 1, 50, 100
3, 19392, Note_on_c, 1, 62, 85
3, 19580, Note_off_c, 1, 62, 100
3, 19584, Note_on_c, 1, 60, 86
3, 19584, Note_on_c, 1, 57, 86
3, 19772, Note_off_c, 1, 60, 100
3, 19772, Note_off_c, 1, 57, 100
3, 19776, Note_on_c, 1, 62, 88
3, 19964, Note_off_c, 1, 62, 100
3, 19968, Note_on_c, 1, 59, 90
3, 19968, Note_on_c, 1, 55, 90
3, 20156, Note_off_c, 1, 59, 100
3, 20156, Note_off_c, 1, 55, 100
3, 20160, Note_on_c, 1, 62, 92
3, 20348, Note_off_c, 1, 62, 100
3, 20352, Note_on_c, 1, 50, 93
3, 20540, Note_off_c, 1, 50, 100
3, 20544, Note_on_c, 1, 62, 95
3, 20732, Note_off_c, 1, 62, 100
3, 20736, Note_on_c, 1, 59, 97
3, 20736, Note_on_c, 1, 55, 97
3, 20924, Note_off_c, 1, 59, 100
3, 20924, Note_off_c, 1, 55, 100
3, 20928, Note_on_c, 1, 62, 99
3, 21116, Note_off_c, 1, 62, 100
3, 21504, Note_on_c, 1, 60, 103
3, 21504, Note_on_c, 1, 50, 103
3, 21884, Note_off_c, 1, 60, 100
3, 21884, Note_off_c, 1, 50, 100
3, 21888, Note_on_c, 1, 60, 107
3, 21888, Note_on_c, 1, 50, 107
3, 22268, Note_off_c, 1, 60, 100
3, 22268, Note_off_c, 1, 50, 100
3, 22272, Note_on_c, 1, 59, 110
3, 22272, Note_on_c, 1, 55, 110
3, 22652, Note_off_c, 1, 59, 100
3, 22652, Note_off_c, 1, 55, 100
3, 22656, Note_on_c, 1, 43, 80
3, 23036, Note_off_c, 1, 43, 100
3, 23520, Note_on_c, 1, 55, 80
3, 23612, Note_off_c, 1, 55, 100
3, 23616, Note_on_c, 1, 57, 80
3, 23708, Note_off_c, 1, 57, 100
3, 23712, Note_on_c, 1, 59, 80
3, 23804, Note_off_c, 1, 59, 100
3, 23808, Note_on_c, 1, 60, 80
3, 23900, Note_off_c, 1, 60, 100
3, 23904, Note_on_c, 1, 62, 80
3, 23996, Note_off_c, 1, 62, 100
3, 24000, Note_on_c, 1, 64, 80
3, 24092, Note_off_c, 1, 64, 100
3, 24096, Note_on_c, 1, 66, 80
3, 24188, Note_off_c, 1, 66, 100
3, 24192, Note_on_c, 1, 67, 80
3, 24380, Note_off_c, 1, 67, 100
3, 24384, Note_on_c, 1, 67, 80
3, 24572, Note_off_c, 1, 67, 100
3, 24672, Note_on_c, 1, 55, 80
3, 24764, Note_off_c, 1, 55, 100
3, 24768, Note_on_c, 1, 57, 80
3, 24860, Note_off_c, 1, 57, 100
3, 24864, Note_on_c, 1, 59, 80
3, 24956, Note_off_c, 1, 59, 100
3, 24960, Note_on_c, 1, 60, 80
3, 25052, Note_off_c, 1, 60, 100
3, 25056, Note_on_c, 1, 62, 80
3, 25148, Note_off_c, 1, 62, 100
3, 25152, Note_on_c, 1, 64, 80
3, 25244, Note_off_c, 1, 64, 100
3, 25248, Note_on_c, 1, 66, 80
3, 25340, Note_off_c, 1, 66, 100
3, 25344, Note_on_c, 1, 67, 80
3, 25532, Note_off_c, 1, 67, 100
3, 25536, Note_on_c, 1, 67, 80
3, 25724, Note_off_c, 1, 67, 100
3, 25728, Note_on_c, 1, 66, 80
3, 25916, Note_off_c, 1, 66, 100
3, 25920, Note_on_c, 1, 64, 80
3, 26108, Note_off_c, 1, 64, 100
3, 26112, Note_on_c, 1, 66, 80
3, 26300, Note_off_c, 1, 66, 100
3, 26304, Note_on_c, 1, 62, 80
3, 26492, Note_off_c, 1, 62, 100
3, 26496, Note_on_c, 1, 64, 80
3, 26684, Note_off_c, 1, 64, 100
3, 26688, Note_on_c, 1, 66, 80
3, 26876, Note_off_c, 1, 66, 100
3, 26880, Note_on_c, 1, 67, 80
3, 27068, Note_off_c, 1, 67, 100
3, 27072, Note_on_c, 1, 62, 80
3, 27260, Note_off_c, 1, 62, 100
3, 27264, Note_on_c, 1, 64, 80
3, 27452, Note_off_c, 1, 64, 100
3, 27456, Note_on_c, 1, 66, 80
3, 27644, Note_off_c, 1, 66, 100
3, 27648, Note_on_c, 1, 67, 80
3, 27836, Note_off_c, 1, 67, 100
3, 27840, Note_on_c, 1, 69, 80
3, 28028, Note_off_c, 1, 69, 100
3, 28032, Note_on_c, 1, 71, 80
3, 28032, Note_on_c, 1, 67, 80
3, 28412, Note_off_c, 1, 71, 100
3, 28412, Note_off_c, 1, 67, 100
3, 28800, Note_on_c, 1, 69, 80
3, 28800, Note_on_c, 1, 66, 80
3, 29180, Note_off_c, 1, 69, 100
3, 29180, Note_off_c, 1, 66, 100
3, 29184, Note_on_c, 1, 67, 80
3, 29184, Note_on_c, 1, 64, 80
3, 29564, Note_off_c, 1, 67, 100
3, 29564, Note_off_c, 1, 64, 100
3, 29952, Note_on_c, 1, 66, 90
3, 29952, Note_on_c, 1, 62, 90
3, 30332, Note_off_c, 1, 66, 100
3, 30332, Note_off_c, 1, 62, 100
3, 30720, Note_on_c, 1, 55, 100
3, 31100, Note_off_c, 1, 55, 100
3, 31104, Note_on_c, 1, 56, 105
3, 31484, Note_off_c, 1, 56, 100
3, 31488, Control_c, 1, 64, 127
3, 31488, Note_on_c, 1, 57, 110
3, 31580, Note_off_c, 1, 57, 100
3, 31584, Note_on_c, 1, 61, 110
3, 31676, Note_off_c, 1, 61, 100
3, 31680, Note_on_c, 1, 64, 110
3, 31772, Note_off_c, 1, 64, 100
3, 31776, Note_on_c, 1, 61, 110
3, 31864, Control_c, 1, 64, 0
3, 31868, Note_off_c, 1, 61, 100
3, 31872, Control_c, 1, 64, 127
3, 31872, Note_on_c, 1, 57, 110
3, 31964, Note_off_c, 1, 57, 100
3, 31968, Note_on_c, 1, 61, 110
3, 32060, Note_off_c, 1, 61, 100
3, 32064, Note_on_c, 1, 64, 110
3, 32156, Note_off_c, 1, 64, 100
3, 32160, Note_on_c, 1, 61, 110
3, 32248, Control_c, 1, 64, 0
3, 32252, Note_off_c, 1, 61, 100
3, 32256, Control_c, 1, 64, 127
3, 32256, Note_on_c, 1, 57, 110
3, 32348, Note_off_c, 1, 57, 100
3, 32352, Note_on_c, 1, 61, 110
3, 32444, Note_off_c, 1, 61, 100
3, 32448, Note_on_c, 1, 64, 110
3, 32540, Note_off_c, 1, 64, 100
3, 32544, Note_on_c, 1, 61, 110
3, 32632, Control_c, 1, 64, 0
3, 32636, Note_off_c, 1, 61, 100
3, 32640, Control_c, 1, 64, 127
3, 32640, Note_on_c, 1, 57, 110
3, 32732, Note_off_c, 1, 57, 100
3, 32736, Note_on_c, 1, 62, 110
3, 32828, Note_off_c, 1, 62, 100
3, 32832, Note_on_c, 1, 66, 110
3, 32924, Note_off_c, 1, 66, 100
3, 32928, Note_on_c, 1, 62, 110
3, 33016, Control_c, 1, 64, 0
3, 33020, Note_off_c, 1, 62, 100
3, 33024, Control_c, 1, 64, 127
3, 33024, Note_on_c, 1, 57, 110
3, 33116, Note_off_c, 1, 57, 100
3, 33120, Note_on_c, 1, 62, 110
3, 33212, Note_off_c, 1, 62, 100
3, 33216, Note_on_c, 1, 66, 110
3, 33308, Note_off_c, 1, 66, 100
3, 33312, Note_on_c, 1, 62, 110
3, 33400, Control_c, 1, 64, 0
3, 33404, Note_off_c, 1, 62, 100
3, 33408, Control_c, 1, 64, 127
3, 33408, Note_on_c, 1, 57, 110
3, 33500, Note_off_c, 1, 57, 100
3, 33504, Note_on_c, 1, 62, 110
3, 33596, Note_off_c, 1, 62, 100
3, 33600, Note_on_c, 1, 66, 110
3, 33692, Note_off_c, 1, 66, 100
3, 33696, Note_on_c, 1, 62, 110
3, 33784, Control_c, 1, 64, 0
3, 33788, Note_off_c, 1, 62, 100
3, 33792, Control_c, 1, 64, 127
3, 33792, Note_on_c, 1, 57, 110
3, 33884, Note_off_c, 1, 57, 100
3, 33888, Note_on_c, 1, 64, 110
3, 33980, Note_off_c, 1, 64, 100
3, 33984, Note_on_c, 1, 67, 110
3, 34076, Note_off_c, 1, 67, 100
3, 34080, Note_on_c, 1, 64, 110
3, 34168, Control_c, 1, 64, 0
3, 34172, Note_off_c, 1, 64, 100
3, 34176, Control_c, 1, 64, 127
3, 34176, Note_on_c, 1, 57, 110
3, 34268, Note_off_c, 1, 57, 100
3, 34272, Note_on_c, 1, 64, 110
3, 34364, Note_off_c, 1, 64, 100
3, 34368, Note_on_c, 1, 67, 110
3, 34460, Note_off_c, 1, 67, 100
3, 34464, Note_on_c, 1, 64, 110
3, 34552, Control_c, 1, 64, 0
3, 34556, Note_off_c, 1, 64, 100
3, 34560, Control_c, 1, 64, 127
3, 34560, Note_on_c, 1, 57, 110
3, 34652, Note_off_c, 1, 57, 100
3, 34656, Note_on_c, 1, 64, 110
3, 34748, Note_off_c, 1, 64, 100
3, 34752, Note_on_c, 1, 67, 110
3, 34844, Note_off_c, 1, 67, 100
3, 34848, Note_on_c, 1, 64, 110
3, 34936, Control_c, 1, 64, 0
3, 34940, Note_off_c, 1, 64, 100
3, 34944, Control_c, 1, 64, 127
3, 34944, Note_on_c, 1, 57, 110
3, 35036, Note_off_c, 1, 57, 100
3, 35040, Note_on_c, 1, 62, 110
3, 35132, Note_off_c, 1, 62, 100
3, 35136, Note_on_c, 1, 66, 110
3, 35228, Note_off_c, 1, 66, 100
3, 35232, Note_on_c, 1, 62, 110
3, 35320, Control_c, 1, 64, 0
3, 35324, Note_off_c, 1, 62, 100
3, 35328, Control_c, 1, 64, 127
3, 35328, Note_on_c, 1, 57, 110
3, 35420, Note_off_c, 1, 57, 100
3, 35424, Note_on_c, 1, 62, 110
3, 35516, Note_off_c, 1, 62, 100
3, 35520, Note_on_c, 1, 66, 110
3, 35612, Note_off_c, 1, 66, 100
3, 35616, Note_on_c, 1, 62, 110
3, 35704, Control_c, 1, 64, 0
3, 35708, Note_off_c, 1, 62, 100
3, 35712, Control_c, 1, 64, 127
3, 35712, Note_on_c, 1, 57, 110
3, 35804, Note_off_c, 1, 57, 100
3, 35808, Note_on_c, 1, 62, 110
3, 35900, Note_off_c, 1, 62, 100
3, 35904, Note_on_c, 1, 66, 110
3, 35996, Note_off_c, 1, 66, 100
3, 36000, Note_on_c, 1, 62, 110
3, 36088, Control_c, 1, 64, 0
3, 36092, Note_off_c, 1, 62, 100
3, 36096, Control_c, 1, 64, 127
3, 36096, Note_on_c, 1, 57, 110
3, 36188, Note_off_c, 1, 57, 100
3, 36192, Note_on_c, 1, 61, 110
3, 36284, Note_off_c, 1, 61, 100
3, 36288, Note_on_c, 1, 64, 110
3, 36380, Note_off_c, 1, 64, 100
3, 36384, Note_on_c, 1, 61, 110
3, 36472, Control_c, 1, 64, 0
3, 36476, Note_off_c, 1, 61, 100
3, 36480, Control_c, 1, 64, 127
3, 36480, Note_on_c, 1, 57, 110
3, 36572, Note_off_c, 1, 57, 100
3, 36576, Note_on_c, 1, 61, 110
3, 36668, Note_off_c, 1, 61, 100
3, 36672, Note_on_c, 1, 64, 110
3, 36764, Note_off_c, 1, 64, 100
3, 36768, Note_on_c, 1, 61, 110
3, 36856, Control_c, 1, 64, 0
3, 36860, Note_off_c, 1, 61, 100
3, 36864, Control_c, 1, 64, 127
3, 36864, Note_on_c, 1, 57, 110
3, 36956, Note_off_c, 1, 57, 100
3, 36960, Note_on_c, 1, 61, 110
3, 37052, Note_off_c, 1, 61, 100
3, 37056, Note_on_c, 1, 64, 110
3, 37148, Note_off_c, 1, 64, 100
3, 37152, Note_on_c, 1, 61, 110
3, 37240, Control_c, 1, 64, 0
3, 37244, Note_off_c, 1, 61, 100
3, 37248, Control_c, 1, 64, 127
3, 37248, Note_on_c, 1, 57, 110
3, 37340, Note_off_c, 1, 57, 100
3, 37344, Note_on_c, 1, 62, 110
3, 37436, Note_off_c, 1, 62, 100
3, 37440, Note_on_c, 1, 66, 110
3, 37532, Note_off_c, 1, 66, 100
3, 37536, Note_on_c, 1, 62, 110
3, 37624, Control_c, 1, 64, 0
3, 37628, Note_off_c, 1, 62, 100
3, 37632, Control_c, 1, 64, 127
3, 37632, Note_on_c, 1, 57, 110
3, 37724, Note_off_c, 1, 57, 100
3, 37728, Note_on_c, 1, 62, 110
3, 37820, Note_off_c, 1, 62, 100
3, 37824, Note_on_c, 1, 66, 110
3, 37916, Note_off_c, 1, 66, 100
3, 37920, Note_on_c, 1, 62, 110
3, 38008, Control_c, 1, 64, 0
3, 38012, Note_off_c, 1, 62, 100
3, 38016, Control_c, 1, 64, 127
3, 38016, Note_on_c, 1, 57, 110
3, 38108, Note_off_c, 1, 57, 100
3, 38112, Note_on_c, 1, 62, 110
3, 38204, Note_off_c, 1, 62, 100
3, 38208, Note_on_c, 1, 66, 110
3, 38300, Note_off_c, 1, 66, 100
3, 38304, Note_on_c, 1, 62, 110
3, 38392, Control_c, 1, 64, 0
3, 38396, Note_off_c, 1, 62, 100
3, 38400, Control_c, 1, 64, 127
3, 38400, Note_on_c, 1, 57, 110
3, 38492, Note_off_c, 1, 57, 100
3, 38496, Note_on_c, 1, 64, 110
3, 38588, Note_off_c, 1, 64, 100
3, 38592, Note_on_c, 1, 67, 110
3, 38684, Note_off_c, 1, 67, 100
3, 38688, Note_on_c, 1, 64, 110
3, 38776, Control_c, 1, 64, 0
3, 38780, Note_off_c, 1, 64, 100
3, 38784, Control_c, 1, 64, 127
3, 38784, Note_on_c, 1, 58, 110
3, 38876, Note_off_c, 1, 58, 100
3, 38880, Note_on_c, 1, 64, 110
3, 38972, Note_off_c, 1, 64, 100
3, 38976, Note_on_c, 1, 67, 110
3, 39068, Note_off_c, 1, 67, 100
3, 39072, Note_on_c, 1, 64, 110
3, 39160, Control_c, 1, 64, 0
3, 39164, Note_off_c, 1, 64, 100
3, 39168, Control_c, 1, 64, 127
3, 39168, Note_on_c, 1, 59, 110
3, 39260, Note_off_c, 1, 59, 100
3, 39264, Note_on_c, 1, 64, 110
3, 39356, Note_off_c, 1, 64, 100
3, 39360, Note_on_c, 1, 67, 110
3, 39452, Note_off_c, 1, 67, 100
3, 39456, Note_on_c, 1, 64, 110
3, 39544, Control_c, 1, 64, 0
3, 39548, Note_off_c, 1, 64, 100
3, 39552, Note_on_c, 1, 55, 110
3, 39740, Note_off_c, 1, 55, 100
3, 39744, Note_on_c, 1, 67, 110
3, 39932, Note_off_c, 1, 67, 100
3, 39936, Note_on_c, 1, 67, 110
3, 39936, Note_on_c, 1, 57, 110
3, 40316, Note_off_c, 1, 67, 100
3, 40316, Note_off_c, 1, 57, 100
3, 40320, Note_on_c, 1, 64, 110
3, 40320, Note_on_c, 1, 57, 110
3, 40700, Note_off_c, 1, 64, 100
3, 40700, Note_off_c, 1, 57, 100
3, 40704, Note_on_c, 1, 66, 110
3, 40704, Note_on_c, 1, 62, 110
3, 41084, Note_off_c, 1, 66, 100
3, 41084, Note_off_c, 1, 62, 100
3, 43392, Note_on_c, 1, 66, 110
3, 43392, Note_on_c, 1, 57, 110
3, 43772, Note_off_c, 1, 66, 100
3, 43772, Note_off_c, 1, 57, 100
3, 43776, Note_on_c, 1, 57, 110
3, 43776, Note_on_c, 1, 67, 110
3, 44156, Note_off_c, 1, 57, 100
3, 44156, Note_off_c, 1, 67, 100
3, 44160, Note_on_c, 1, 66, 110
3, 44160, Note_on_c, 1, 62, 110
3, 44540, Note_off_c, 1, 66, 100
3, 44540, Note_off_c, 1, 62, 100
3, 46848, Note_on_c, 1, 66, 80
3, 46848, Note_on_c, 1, 57, 80
3, 47228, Note_off_c, 1, 66, 100
3, 47228, Note_off_c, 1, 57, 100
3, 47232, Note_on_c, 1, 57, 80
3, 47232, Note_on_c, 1, 67, 80
3, 47612, Note_off_c, 1, 57, 100
3, 47612, Note_off_c, 1, 67, 100
3, 47616, Note_on_c, 1, 66, 80
3, 47616, Note_on_c, 1, 62, 80
3, 47996, Note_off_c, 1, 66, 100
3, 47996, Note_off_c, 1, 62, 100
3, 48384, Note_on_c, 1, 62, 80
3, 48384, Note_on_c, 1, 66, 80
3, 48764, Note_off_c, 1, 62, 100
3, 48764, Note_off_c, 1, 66, 100
3, 48768, Note_on_c, 1, 62, 80
3, 48768, Note_on_c, 1, 67, 80
3, 49148, Note_off_c, 1, 62, 100
3, 49148, Note_off_c, 1, 67, 100
3, 49536, Note_on_c, 1, 62, 80
3, 49536, Note_on_c, 1, 64, 80
3, 49916, Note_off_c, 1, 62, 100
3, 49916, Note_off_c, 1, 64, 100
3, 49920, Note_on_c, 1, 66, 80
3, 49920, Note_on_c, 1, 62, 80
3, 50300, Note_off_c, 1, 66, 100
3, 50300, Note_off_c, 1, 62, 100
3, 50688, Note_on_c, 1, 62, 80
3, 50688, Note_on_c, 1, 66, 80
3, 51068, Note_off_c, 1, 62, 100
3, 51068, Note_off_c, 1, 66, 100
3, 51072, Note_on_c, 1, 62, 80
3, 51072, Note_on_c, 1, 67, 80
3, 51452, Note_off_c, 1, 62, 100
3, 51452, Note_off_c, 1, 67, 100
3, 51840, Note_on_c, 1, 62, 80
3, 51840, Note_on_c, 1, 64, 80
3, 52220, Note_off_c, 1, 62, 100
3, 52220, Note_off_c, 1, 64, 100
3, 52224, Note_on_c, 1, 66, 80
3, 52224, Note_on_c, 1, 62, 80
3, 52604, Note_off_c, 1, 66, 100
3, 52604, Note_off_c, 1, 62, 100
3, 54144, Note_on_c, 1, 59, 80
3, 54144, Note_on_c, 1, 55, 80
3, 54332, Note_off_c, 1, 59, 100
3, 54332, Note_off_c, 1, 55, 100
3, 54336, Note_on_c, 1, 62, 80
3, 54524, Note_off_c, 1, 62, 100
3, 54528, Note_on_c, 1, 57, 80
3, 54528, Note_on_c, 1, 60, 80
3, 54716, Note_off_c, 1, 57, 100
3, 54716, Note_off_c, 1, 60, 100
3, 54720, Note_on_c, 1, 62, 80
3, 54908, Note_off_c, 1, 62, 100
3, 54912, Note_on_c, 1, 50, 80
3, 55100, Note_off_c, 1, 50, 100
3, 55104, Note_on_c, 1, 62, 80
3, 55292, Note_off_c, 1, 62, 100
3, 55296, Note_on_c, 1, 60, 80
3, 55296, Note_on_c, 1, 57, 80
3, 55484, Note_off_c, 1, 60, 100
3, 55484, Note_off_c, 1, 57, 100
3, 55488, Note_on_c, 1, 62, 80
3, 55676, Note_off_c, 1, 62, 100
3, 55680, Note_on_c, 1, 59, 80
3, 55680, Note_on_c, 1, 55, 80
3, 55868, Note_off_c, 1, 59, 100
3, 55868, Note_off_c, 1, 55, 100
3, 55872, Note_on_c, 1, 62, 80
3, 56060, Note_off_c, 1, 62, 100
3, 56064, Note_on_c, 1, 50, 80
3, 56252, Note_off_c, 1, 50, 100
3, 56256, Note_on_c, 1, 62, 80
3, 56444, Note_off_c, 1, 62, 100
3, 56448, Note_on_c, 1, 59, 80
3, 56448, Note_on_c, 1, 55, 80
3, 56636, Note_off_c, 1, 59, 100
3, 56636, Note_off_c, 1, 55, 100
3, 56640, Note_on_c, 1, 62, 80
3, 56828, Note_off_c, 1, 62, 100
3, 56832, Note_on_c, 1, 57, 80
3, 56832, Note_on_c, 1, 54, 80
3, 57020, Note_off_c, 1, 57, 100
3, 57020, Note_off_c, 1, 54, 100
3, 57024, Note_on_c, 1, 62, 80
3, 57212, Note_off_c, 1, 62, 100
3, 57216, Note_on_c, 1, 50, 80
3, 57404, Note_off_c, 1, 50, 100
3, 57408, Note_on_c, 1, 62, 80
3, 57596, Note_off_c, 1, 62, 100
3, 57600, Note_on_c, 1, 57, 80
3, 57600, Note_on_c, 1, 54, 80
3, 57788, Note_off_c, 1, 57, 100
3, 57788, Note_off_c, 1, 54, 100
3, 57792, Note_on_c, 1, 62, 80
3, 57980, Note_off_c, 1, 62, 100
3, 57984, Note_on_c, 1, 59, 80
3, 57984, Note_on_c, 1, 55, 80
3, 58172, Note_off_c, 1, 59, 100
3, 58172, Note_off_c, 1, 55, 100
3, 58176, Note_on_c, 1, 62, 80
3, 58364, Note_off_c, 1, 62, 100
3, 58368, Note_on_c, 1, 50, 80
3, 58556, Note_off_c, 1, 50, 100
3, 58560, Note_on_c, 1, 62, 80
3, 58748, Note_off_c, 1, 62, 100
3, 58752, Note_on_c, 1, 59, 80
3, 58752, Note_on_c, 1, 55, 80
3, 58940, Note_off_c, 1, 59, 100
3, 58940, Note_off_c, 1, 55, 100
3, 58944, Note_on_c, 1, 62, 80
3, 59132, Note_off_c, 1, 62, 100
3, 59136, Note_on_c, 1, 57, 80
3, 59136, Note_on_c, 1, 60, 80
3, 59324, Note_off_c, 1, 57, 100
3, 59324, Note_off_c, 1, 60, 100
3, 59328, Note_on_c, 1, 62, 80
3, 59516, Note_off_c, 1, 62, 100
3, 59520, Note_on_c, 1, 50, 80
3, 59708, Note_off_c, 1, 50, 100
3, 59712, Note_on_c, 1, 62, 80
3, 59900, Note_off_c, 1, 62, 100
3, 59904, Note_on_c, 1, 60, 80
3, 59904, Note_on_c, 1, 57, 80
3, 60092, Note_off_c, 1, 60, 100
3, 60092, Note_off_c, 1, 57, 100
3, 60096, Note_on_c, 1, 62, 80
3, 60284, Note_off_c, 1, 62, 100
3, 60288, Note_on_c, 1, 59, 80
3, 60288, Note_on_c, 1, 55, 80
3, 60476, Note_off_c, 1, 59, 100
3, 60476, Note_off_c, 1, 55, 100
3, 60480, Note_on_c, 1, 62, 80
3, 60668, Note_off_c, 1, 62, 100
3, 60672, Note_on_c, 1, 50, 80
3, 60860, Note_off_c, 1, 50, 100
3, 60864, Note_on_c, 1, 62, 80
3, 61052, Note_off_c, 1, 62, 100
3, 61056, Note_on_c, 1, 59, 80
3, 61056, Note_on_c, 1, 55, 80
3, 61244, Note_off_c, 1, 59, 100
3, 61244, Note_off_c, 1, 55, 100
3, 61248, Note_on_c, 1, 62, 80
3, 61436, Note_off_c, 1, 62, 100
3, 61824, Note_on_c, 1, 60, 80
3, 61824, Note_on_c, 1, 50, 80
3, 62204, Note_off_c, 1, 60, 100
3, 62204, Note_off_c, 1, 50, 100
3, 62208, Note_on_c, 1, 60, 80
3, 62208, Note_on_c, 1, 50, 80
3, 62588, Note_off_c, 1, 60, 100
3, 62588, Note_off_c, 1, 50, 100
3, 62592, Note_on_c, 1, 59, 80
3, 62592, Note_on_c, 1, 55, 80
3, 62972, Note_off_c, 1, 59, 100
3, 62972, Note_off_c, 1, 55, 100
3, 62976, Note_on_c, 1, 43, 80
3, 63356, Note_off_c, 1, 43, 100
3, 63744, Note_on_c, 1, 66, 80
3, 63744, Note_on_c, 1, 63, 80
3, 64124, Note_off_c, 1, 66, 100
3, 64124, Note_off_c, 1, 63, 100
3, 64128, Note_on_c, 1, 67, 80
3, 64128, Note_on_c, 1, 64, 80
3, 64316, Note_off_c, 1, 67, 100
3, 64316, Note_off_c, 1, 64, 100
3, 64896, Note_on_c, 1, 67, 80
3, 64896, Note_on_c, 1, 64, 80
3, 65276, Note_off_c, 1, 67, 100
3, 65276, Note_off_c, 1, 64, 100
3, 65280, Note_on_c, 1, 66, 80
3, 65280, Note_on_c, 1, 62, 80
3, 65468, Note_off_c, 1, 66, 100
3, 65468, Note_off_c, 1, 62, 100
3, 66432, Note_on_c, 1, 60, 80
3, 66812, Note_off_c, 1, 60, 100
3, 66816, Note_on_c, 1, 60, 80
3, 67196, Note_off_c, 1, 60, 100
3, 67200, Note_on_c, 1, 59, 80
3, 67200, Note_on_c, 1, 50, 80
3, 67580, Note_off_c, 1, 59, 100
3, 67584, Note_on_c, 1, 57, 80
3, 67772, Note_off_c, 1, 50, 100
3, 67772, Note_off_c, 1, 57, 100
3, 68352, Note_on_c, 1, 57, 95
3, 68352, Note_on_c, 1, 60, 95
3, 68540, Note_off_c, 1, 57, 100
3, 68540, Note_off_c, 1, 60, 100
3, 68544, Note_on_c, 1, 62, 95
3, 68732, Note_off_c, 1, 62, 100
3, 68736, Note_on_c, 1, 50, 95
3, 68924, Note_off_c, 1, 50, 100
3, 68928, Note_on_c, 1, 62, 95
3, 69116, Note_off_c, 1, 62, 100
3, 69120, Note_on_c, 1, 60, 95
3, 69120, Note_on_c, 1, 57, 95
3, 69308, Note_off_c, 1, 60, 100
3, 69308, Note_off_c, 1, 57, 100
3, 69312, Note_on_c, 1, 62, 95
3, 69500, Note_off_c, 1, 62, 100
3, 69504, Note_on_c, 1, 59, 95
3, 69504, Note_on_c, 1, 55, 95
3, 69692, Note_off_c, 1, 59, 100
3, 69692, Note_off_c, 1, 55, 100
3, 69696, Note_on_c, 1, 62, 95
3, 69884, Note_off_c, 1, 62, 100
3, 69888, Note_on_c, 1, 50, 95
3, 70076, Note_off_c, 1, 50, 100
3, 70080, Note_on_c, 1, 62, 95
3, 70268, Note_off_c, 1, 62, 100
3, 70272, Note_on_c, 1, 59, 95
3, 70272, Note_on_c, 1, 55, 95
3, 70460, Note_off_c, 1, 59, 100
3, 70460, Note_off_c, 1, 55, 100
3, 70464, Note_on_c, 1, 62, 95
3, 70652, Note_off_c, 1, 62, 100
3, 70656, Note_on_c, 1, 57, 95
3, 70656, Note_on_c, 1, 54, 95
3, 70844, Note_off_c, 1, 57, 100
3, 70844, Note_off_c, 1, 54, 100
3, 70848, Note_on_c, 1, 62, 95
3, 71036, Note_off_c, 1, 62, 100
3, 71040, Note_on_c, 1, 50, 95
3, 71228, Note_off_c, 1, 50, 100
3, 71232, Note_on_c, 1, 62, 95
3, 71420, Note_off_c, 1, 62, 100
3, 71424, Note_on_c, 1, 57, 95
3, 71424, Note_on_c, 1, 54, 95
3, 71612, Note_off_c, 1, 57, 100
3, 71612, Note_off_c, 1, 54, 100
3, 71616, Note_on_c, 1, 62, 95
3, 71804, Note_off_c, 1, 62, 100
3, 71808, Note_on_c, 1, 59, 95
3, 71808, Note_on_c, 1, 55, 95
3, 71996, Note_off_c, 1, 59, 100
3, 71996, Note_off_c, 1, 55, 100
3, 72000, Note_on_c, 1, 62, 95
3, 72188, Note_off_c, 1, 62, 100
3, 72192, Note_on_c, 1, 50, 95
3, 72380, Note_off_c, 1, 50, 100
3, 72384, Note_on_c, 1, 62, 95
3, 72572, Note_off_c, 1, 62, 100
3, 72576, Note_on_c, 1, 59, 95
3, 72576, Note_on_c, 1, 55, 95
3, 72764, Note_off_c, 1, 59, 100
3, 72764, Note_off_c, 1, 55, 100
3, 72768, Note_on_c, 1, 62, 95
3, 72956, Note_off_c, 1, 62, 100
3, 72960, Note_on_c, 1, 57, 95
3, 72960, Note_on_c, 1, 60, 95
3, 73148, Note_off_c, 1, 57, 100
3, 73148, Note_off_c, 1, 60, 100
3, 73152, Note_on_c, 1, 62, 95
3, 73340, Note_off_c, 1, 62, 100
3, 73344, Note_on_c, 1, 50, 95
3, 73532, Note_off_c, 1, 50, 100
3, 73536, Note_on_c, 1, 62, 95
3, 73724, Note_off_c, 1, 62, 100
3, 73728, Note_on_c, 1, 60, 95
3, 73728, Note_on_c, 1, 57, 95
3, 73916, Note_off_c, 1, 60, 100
3, 73916, Note_off_c, 1, 57, 100
3, 73920, Note_on_c, 1, 62, 95
3, 74108, Note_off_c, 1, 62, 100
3, 74112, Note_on_c, 1, 59, 95
3, 74112, Note_on_c, 1, 55, 95
3, 74300, Note_off_c, 1, 59, 100
3, 74300, Note_off_c, 1, 55, 100
3, 74304, Note_on_c, 1, 62, 95
3, 74492, Note_off_c, 1, 62, 100
3, 74496, Note_on_c, 1, 50, 95
3, 74684, Note_off_c, 1, 50, 100
3, 74688, Note_on_c, 1, 62, 95
3, 74876, Note_off_c, 1, 62, 100
3, 74880, Note_on_c, 1, 59, 95
3, 74880, Note_on_c, 1, 55, 95
3, 75068, Note_off_c, 1, 59, 100
3, 75068, Note_off_c, 1, 55, 100
3, 75072, Note_on_c, 1, 62, 95
3, 75260, Note_off_c, 1, 62, 100
3, 75648, Note_on_c, 1, 60, 95
3, 75648, Note_on_c, 1, 50, 95
3, 76028, Note_off_c, 1, 60, 100
3, 76028, Note_off_c, 1, 50, 100
3, 76032, Note_on_c, 1, 60, 95
3, 76032, Note_on_c, 1, 50, 95
3, 76412, Note_off_c, 1, 60, 100
3, 76412, Note_off_c, 1, 50, 100
3, 76416, Note_on_c, 1, 59, 95
3, 76416, Note_on_c, 1, 55, 95
3, 76796, Note_off_c, 1, 59, 100
3, 76796, Note_off_c, 1, 55, 100
3, 76800, Note_on_c, 1, 43, 95
3, 77180, Note_off_c, 1, 43, 100
3, 77568, Key_signature, 0, "major"
3, 77568, Control_c, 1, 64, 127
3, 77568, Note_on_c, 1, 48, 110
3, 77756, Note_off_c, 1, 48, 100
3, 77760, Note_on_c, 1, 60, 110
3, 77944, Control_c, 1, 64, 0
3, 77948, Note_off_c, 1, 60, 100
3, 77952, Control_c, 1, 64, 127
3, 77952, Note_on_c, 1, 48, 110
3, 78140, Note_off_c, 1, 48, 100
3, 78144, Note_on_c, 1, 60, 110
3, 78328, Control_c, 1, 64, 0
3, 78332, Note_off_c, 1, 60, 100
3, 78336, Control_c, 1, 64, 127
3, 78336, Note_on_c, 1, 48, 110
3, 78524, Note_off_c, 1, 48, 100
3, 78528, Note_on_c, 1, 60, 110
3, 78712, Control_c, 1, 64, 0
3, 78716, Note_off_c, 1, 60, 100
3, 78720, Control_c, 1, 64, 127
3, 78720, Note_on_c, 1, 48, 110
3, 78908, Note_off_c, 1, 48, 100
3, 78912, Note_on_c, 1, 60, 110
3, 79096, Control_c, 1, 64, 0
3, 79100, Note_off_c, 1, 60, 100
3, 79104, Control_c, 1, 64, 127
3, 79104, Note_on_c, 1, 48, 110
3, 79292, Note_off_c, 1, 48, 100
3, 79296, Note_on_c, 1, 60, 110
3, 79480, Control_c, 1, 64, 0
3, 79484, Note_off_c, 1, 60, 100
3, 79488, Control_c, 1, 64, 127
3, 79488, Note_on_c, 1, 48, 110
3, 79676, Note_off_c, 1, 48, 100
3, 79680, Note_on_c, 1, 60, 110
3, 79864, Control_c, 1, 64, 0
3, 79868, Note_off_c, 1, 60, 100
3, 79872, Control_c, 1, 64, 127
3, 79872, Note_on_c, 1, 48, 110
3, 80060, Note_off_c, 1, 48, 100
3, 80064, Note_on_c, 1, 60, 110
3, 80248, Control_c, 1, 64, 0
3, 80252, Note_off_c, 1, 60, 100
3, 80256, Control_c, 1, 64, 127
3, 80256, Note_on_c, 1, 48, 110
3, 80444, Note_off_c, 1, 48, 100
3, 80448, Note_on_c, 1, 60, 110
3, 80632, Control_c, 1, 64, 0
3, 80636, Note_off_c, 1, 60, 100
3, 80640, Control_c, 1, 64, 127
3, 80640, Note_on_c, 1, 48, 110
3, 80828, Note_off_c, 1, 48, 100
3, 80832, Note_on_c, 1, 60, 110
3, 81016, Control_c, 1, 64, 0
3, 81020, Note_off_c, 1, 60, 100
3, 81024, Control_c, 1, 64, 127
3, 81024, Note_on_c, 1, 48, 110
3, 81212, Note_off_c, 1, 48, 100
3, 81216, Note_on_c, 1, 60, 110
3, 81400, Control_c, 1, 64, 0
3, 81404, Note_off_c, 1, 60, 100
3, 81408, Control_c, 1, 64, 127
3, 81408, Note_on_c, 1, 48, 110
3, 81596, Note_off_c, 1, 48, 100
3, 81784, Control_c, 1, 64, 0
3, 81792, Control_c, 1, 64, 127
3, 82168, Control_c, 1, 64, 0
3, 82560, Note_on_c, 1, 62, 80
3, 82560, Note_on_c, 1, 59, 80
3, 82560, Note_on_c, 1, 55, 80
3, 82940, Note_off_c, 1, 62, 100
3, 82940, Note_off_c, 1, 59, 100
3, 82940, Note_off_c, 1, 55, 100
3, 83712, Note_on_c, 1, 60, 80
3, 83712, Note_on_c, 1, 64, 80
3, 84092, Note_off_c, 1, 60, 100
3, 84092, Note_off_c, 1, 64, 100
3, 85056, Note_on_c, 1, 61, 80
3, 85244, Note_off_c, 1, 61, 100
3, 85248, Note_on_c, 1, 62, 80
3, 85436, Note_off_c, 1, 62, 100
3, 85440, Note_on_c, 1, 65, 80
3, 85628, Note_off_c, 1, 65, 100
3, 85632, Note_on_c, 1, 55, 80
3, 85632, Note_on_c, 1, 64, 80
3, 86012, Note_off_c, 1, 64, 100
3, 86016, Note_on_c, 1, 62, 80
3, 86204, Note_off_c, 1, 55, 100
3, 86204, Note_off_c, 1, 62, 100
3, 86784, Control_c, 1, 64, 127
3, 86784, Note_on_c, 1, 48, 110
3, 86972, Note_off_c, 1, 48, 100
3, 86976, Note_on_c, 1, 60, 110
3, 87160, Control_c, 1, 64, 0
3, 87164, Note_off_c, 1, 60, 100
3, 87168, Control_c, 1, 64, 127
3, 87168, Note_on_c, 1, 48, 110
3, 87356, Note_off_c, 1, 48, 100
3, 87360, Note_on_c, 1, 60, 110
3, 87544, Control_c, 1, 64, 0
3, 87548, Note_off_c, 1, 60, 100
3, 87552, Control_c, 1, 64, 127
3, 87552, Note_on_c, 1, 48, 110
3, 87740, Note_off_c, 1, 48, 100
3, 87744, Note_on_c, 1, 60, 110
3, 87928, Control_c, 1, 64, 0
3, 87932, Note_off_c, 1, 60, 100
3, 87936, Control_c, 1, 64, 127
3, 87936, Note_on_c, 1, 48, 110
3, 88124, Note_off_c, 1, 48, 100
3, 88128, Note_on_c, 1, 60, 110
3, 88312, Control_c, 1, 64, 0
3, 88316, Note_off_c, 1, 60, 100
3, 88320, Control_c, 1, 64, 127
3, 88320, Note_on_c, 1, 48, 110
3, 88508, Note_off_c, 1, 48, 100
3, 88512, Note_on_c, 1, 60, 110
3, 88696, Control_c, 1, 64, 0
3, 88700, Note_off_c, 1, 60, 100
3, 88704, Control_c, 1, 64, 127
3, 88704, Note_on_c, 1, 48, 110
3, 88892, Note_off_c, 1, 48, 100
3, 88896, Note_on_c, 1, 60, 110
3, 89080, Control_c, 1, 64, 0
3, 89084, Note_off_c, 1, 60, 100
3, 89088, Control_c, 1, 64, 127
3, 89088, Note_on_c, 1, 48, 110
3, 89276, Note_off_c, 1, 48, 100
3, 89280, Note_on_c, 1, 60, 110
3, 89464, Control_c, 1, 64, 0
3, 89468, Note_off_c, 1, 60, 100
3, 89472, Control_c, 1, 64, 127
3, 89472, Note_on_c, 1, 48, 110
3, 89660, Note_off_c, 1, 48, 100
3, 89664, Note_on_c, 1, 60, 110
3, 89848, Control_c, 1, 64, 0
3, 89852, Note_off_c, 1, 60, 100
3, 89856, Control_c, 1, 64, 127
3, 89856, Note_on_c, 1, 48, 110
3, 90044, Note_off_c, 1, 48, 100
3, 90048, Note_on_c, 1, 60, 110
3, 90232, Control_c, 1, 64, 0
3, 90236, Note_off_c, 1, 60, 100
3, 90240, Control_c, 1, 64, 127
3, 90240, Note_on_c, 1, 48, 110
3, 90428, Note_off_c, 1, 48, 100
3, 90432, Note_on_c, 1, 60, 110
3, 90616, Control_c, 1, 64, 0
3, 90620, Note_off_c, 1, 60, 100
3, 90624, Control_c, 1, 64, 127
3, 90624, Note_on_c, 1, 48, 110
3, 90812, Note_off_c, 1, 48, 100
3, 91000, Control_c, 1, 64, 0
3, 91008, Control_c, 1, 64, 127
3, 91384, Control_c, 1, 64, 0
3, 91776, Note_on_c, 1, 62, 80
3, 91776, Note_on_c, 1, 59, 80
3, 91776, Note_on_c, 1, 55, 80
3, 92156, Note_off_c, 1, 62, 100
3, 92156, Note_off_c, 1, 59, 100
3, 92156, Note_off_c, 1, 55, 100
3, 92928, Note_on_c, 1, 60, 80
3, 92928, Note_on_c, 1, 64, 80
3, 93308, Note_off_c, 1, 60, 100
3, 93308, Note_off_c, 1, 64, 100
3, 94080, Note_on_c, 1, 62, 80
3, 94080, Note_on_c, 1, 60, 80
3, 94460, Note_off_c, 1, 62, 100
3, 94460, Note_off_c, 1, 60, 100
3, 95232, Note_on_c, 1, 62, 80
3, 95232, Note_on_c, 1, 59, 80
3, 95612, Note_off_c, 1, 62, 100
3, 95612, Note_off_c, 1, 59, 100
3, 98304, Key_signature, 1, "major"
3, 98688, Note_on_c, 1, 61, 70
3, 98876, Note_off_c, 1, 61, 100
3, 98880, Note_on_c, 1, 62, 70
3, 99068, Note_off_c, 1, 62, 100
3, 99072, Note_on_c, 1, 61, 70
3, 99260, Note_off_c, 1, 61, 100
3, 99264, Note_on_c, 1, 62, 70
3, 99452, Note_off_c, 1, 62, 100
3, 99456, Note_on_c, 1, 60, 70
3, 99644, Note_off_c, 1, 60, 100
3, 99648, Note_on_c, 1, 62, 70
3, 99836, Note_off_c, 1, 62, 100
3, 99840, Note_on_c, 1, 60, 70
3, 100028, Note_off_c, 1, 60, 100
3, 100032, Note_on_c, 1, 62, 70
3, 100220, Note_off_c, 1, 62, 100
3, 100224, Note_on_c, 1, 59, 80
3, 100224, Note_on_c, 1, 55, 80
3, 100412, Note_off_c, 1, 59, 100
3, 100412, Note_off_c, 1, 55, 100
3, 100416, Note_on_c, 1, 62, 80
3, 100604, Note_off_c, 1, 62, 100
3, 100608, Note_on_c, 1, 57, 80
3, 100608, Note_on_c, 1, 60, 80
3, 100796, Note_off_c, 1, 57, 100
3, 100796, Note_off_c, 1, 60, 100
3, 100800, Note_on_c, 1, 62, 80
3, 100988, Note_off_c, 1, 62, 100
3, 100992, Note_on_c, 1, 50, 80
3, 101180, Note_off_c, 1, 50, 100
3, 101184, Note_on_c, 1, 62, 80
3, 101372, Note_off_c, 1, 62, 100
3, 101376, Note_on_c, 1, 60, 80
3, 101376, Note_on_c, 1, 57, 80
3, 101564, Note_off_c, 1, 60, 100
3, 101564, Note_off_c, 1, 57, 100
3, 101568, Note_on_c, 1, 62, 80
3, 101756, Note_off_c, 1, 62, 100
3, 101760, Note_on_c, 1, 59, 80
3, 101760, Note_on_c, 1, 55, 80
3, 101948, Note_off_c, 1, 59, 100
3, 101948, Note_off_c, 1, 55, 100
3, 101952, Note_on_c, 1, 62, 80
3, 102140, Note_off_c, 1, 62, 100
3, 102144, Note_on_c, 1, 50, 80
3, 102332, Note_off_c, 1, 50, 100
3, 102336, Note_on_c, 1, 62, 80
3, 102524, Note_off_c, 1, 62, 100
3, 102528, Note_on_c, 1, 59, 80
3, 102528, Note_on_c, 1, 55, 80
3, 102716, Note_off_c, 1, 59, 100
3, 102716, Note_off_c, 1, 55, 100
3, 102720, Note_on_c, 1, 62, 80
3, 102908, Note_off_c, 1, 62, 100
3, 102912, Note_on_c, 1, 57, 80
3, 102912, Note_on_c, 1, 54, 80
3, 103100, Note_off_c, 1, 57, 100
3, 103100, Note_off_c, 1, 54, 100
3, 103104, Note_on_c, 1, 62, 80
3, 103292, Note_off_c, 1, 62, 100
3, 103296, Note_on_c, 1, 50, 80
3, 103484, Note_off_c, 1, 50, 100
3, 103488, Note_on_c, 1, 62, 80
3, 103676, Note_off_c, 1, 62, 100
3, 103680, Note_on_c, 1, 57, 80
3, 103680, Note_on_c, 1, 54, 80
3, 103868, Note_off_c, 1, 57, 100
3, 103868, Note_off_c, 1, 54, 100
3, 103872, Note_on_c, 1, 62, 80
3, 104060, Note_off_c, 1, 62, 100
3, 104064, Note_on_c, 1, 59, 80
3, 104064, Note_on_c, 1, 55, 80
3, 104252, Note_off_c, 1, 59, 100
3, 104252, Note_off_c, 1, 55, 100
3, 104256, Note_on_c, 1, 62, 80
3, 104444, Note_off_c, 1, 62, 100
3, 104448, Note_on_c, 1, 50, 80
3, 104636, Note_off_c, 1, 50, 100
3, 104640, Note_on_c, 1, 62, 80
3, 104828, Note_off_c, 1, 62, 100
3, 104832, Note_on_c, 1, 59, 80
3, 104832, Note_on_c, 1, 55, 80
3, 105020, Note_off_c, 1, 59, 100
3, 105020, Note_off_c, 1, 55, 100
3, 105024, Note_on_c, 1, 62, 80
3, 105212, Note_off_c, 1, 62, 100
3, 105216, Note_on_c, 1, 57, 80
3, 105216, Note_on_c, 1, 60, 80
3, 105404, Note_off_c, 1, 57, 100
3, 105404, Note_off_c, 1, 60, 100
3, 105408, Note_on_c, 1, 62, 80
3, 105596, Note_off_c, 1, 62, 100
3, 105600, Note_on_c, 1, 50, 80
3, 105788, Note_off_c, 1, 50, 100
3, 105792, Note_on_c, 1, 62, 80
3, 105980, Note_off_c, 1, 62, 100
3, 105984, Note_on_c, 1, 60, 80
3, 105984, Note_on_c, 1, 57, 80
3, 106172, Note_off_c, 1, 60, 100
3, 106172, Note_off_c, 1, 57, 100
3, 106176, Note_on_c, 1, 62, 80
3, 106364, Note_off_c, 1, 62, 100
3, 106368, Note_on_c, 1, 59, 80
3, 106368, Note_on_c, 1, 55, 80
3, 106556, Note_off_c, 1, 59, 100
3, 106556, Note_off_c, 1, 55, 100
3, 106560, Note_on_c, 1, 62, 80
3, 106748, Note_off_c, 1, 62, 100
3, 106752, Note_on_c, 1, 50, 80
3, 106940, Note_off_c, 1, 50, 100
3, 106944, Note_on_c, 1, 62, 80
3, 107132, Note_off_c, 1, 62, 100
3, 107136, Note_on_c, 1, 59, 80
3, 107136, Note_on_c, 1, 55, 80
3, 107324, Note_off_c, 1, 59, 100
3, 107324, Note_off_c, 1, 55, 100
3, 107328, Note_on_c, 1, 62, 80
3, 107516, Note_off_c, 1, 62, 100
3, 107904, Note_on_c, 1, 60, 80
3, 107904, Note_on_c, 1, 50, 80
3, 108284, Note_off_c, 1, 60, 100
3, 108284, Note_off_c, 1, 50, 100
3, 108288, Note_on_c, 1, 60, 80
3, 108288, Note_on_c, 1, 50, 80
3, 108668, Note_off_c, 1, 60, 100
3, 108668, Note_off_c, 1, 50, 100
3, 108672, Note_on_c, 1, 59, 80
3, 108672, Note_on_c, 1, 55, 80
3, 109052, Note_off_c, 1, 59, 100
3, 109052, Note_off_c, 1, 55, 100
3, 109056, Note_on_c, 1, 43, 80
3, 109436, Note_off_c, 1, 43, 100
3, 109824, Note_on_c, 1, 66, 80
3, 109824, Note_on_c, 1, 63, 80
3, 110204, Note_off_c, 1, 66, 100
3, 110204, Note_off_c, 1, 63, 100
3, 110208, Note_on_c, 1, 67, 80
3, 110208, Note_on_c, 1, 64, 80
3, 110396, Note_off_c, 1, 67, 100
3, 110396, Note_off_c, 1, 64, 100
3, 110976, Note_on_c, 1, 67, 80
3, 110976, Note_on_c, 1, 64, 80
3, 111356, Note_off_c, 1, 67, 100
3, 111356, Note_off_c, 1, 64, 100
3, 111360, Note_on_c, 1, 66, 80
3, 111360, Note_on_c, 1, 62, 80
3, 111548, Note_off_c, 1, 66, 100
3, 111548, Note_off_c, 1, 62, 100
3, 112512, Note_on_c, 1, 60, 80
3, 112892, Note_off_c, 1, 60, 100
3, 112896, Note_on_c, 1, 60, 80
3, 113276, Note_off_c, 1, 60, 100
3, 113280, Note_on_c, 1, 59, 80
3, 113280, Note_on_c, 1, 50, 80
3, 113660, Note_off_c, 1, 59, 100
3, 113664, Note_on_c, 1, 57, 80
3, 113852, Note_off_c, 1, 50, 100
3, 113852, Note_off_c, 1, 57, 100
3, 114048, Note_on_c, 1, 59, 95
3, 114048, Note_on_c, 1, 55, 95
3, 114236, Note_off_c, 1, 59, 100
3, 114236, Note_off_c, 1, 55, 100
3, 114240, Note_on_c, 1, 62, 95
3, 114428, Note_off_c, 1, 62, 100
3, 114432, Note_on_c, 1, 57, 95
3, 114432, Note_on_c, 1, 60, 95
3, 114620, Note_off_c, 1, 57, 100
3, 114620, Note_off_c, 1, 60, 100
3, 114624, Note_on_c, 1, 62, 95
3, 114812, Note_off_c, 1, 62, 100
3, 114816, Note_on_c, 1, 50, 95
3, 115004, Note_off_c, 1, 50, 100
3, 115008, Note_on_c, 1, 62, 95
3, 115196, Note_off_c, 1, 62, 100
3, 115200, Note_on_c, 1, 60, 95
3, 115200, Note_on_c, 1, 57, 95
3, 115388, Note_off_c, 1, 60, 100
3, 115388, Note_off_c, 1, 57, 100
3, 115392, Note_on_c, 1, 62, 95
3, 115580, Note_off_c, 1, 62, 100
3, 115584, Note_on_c, 1, 59, 95
3, 115584, Note_on_c, 1, 55, 95
3, 115772, Note_off_c, 1, 59, 100
3, 115772, Note_off_c, 1, 55, 100
3, 115776, Note_on_c, 1, 62, 95
3, 115964, Note_off_c, 1, 62, 100
3, 115968, Note_on_c, 1, 50, 95
3, 116156, Note_off_c, 1, 50, 100
3, 116160, Note_on_c, 1, 62, 95
3, 116348, Note_off_c, 1, 62, 100
3, 116352, Note_on_c, 1, 59, 95
3, 116352, Note_on_c, 1, 55, 95
3, 116540, Note_off_c, 1, 59, 100
3, 116540, Note_off_c, 1, 55, 100
3, 116544, Note_on_c, 1, 62, 95
3, 116732, Note_off_c, 1, 62, 100
3, 116736, Note_on_c, 1, 57, 95
3, 116736, Note_on_c, 1, 54, 95
3, 116924, Note_off_c, 1, 57, 100
3, 116924, Note_off_c, 1, 54, 100
3, 116928, Note_on_c, 1, 62, 95
3, 117116, Note_off_c, 1, 62, 100
3, 117120, Note_on_c, 1, 50, 95
3, 117308, Note_off_c, 1, 50, 100
3, 117312, Note_on_c, 1, 62, 95
3, 117500, Note_off_c, 1, 62, 100
3, 117504, Note_on_c, 1, 57, 95
3, 117504, Note_on_c, 1, 54, 95
3, 117692, Note_off_c, 1, 57, 100
3, 117692, Note_off_c, 1, 54, 100
3, 117696, Note_on_c, 1, 62, 95
3, 117884, Note_off_c, 1, 62, 100
3, 117888, Note_on_c, 1, 59, 95
3, 117888, Note_on_c, 1, 55, 95
3, 118076, Note_off_c, 1, 59, 100
3, 118076, Note_off_c, 1, 55, 100
3, 118080, Note_on_c, 1, 62, 95
3, 118268, Note_off_c, 1, 62, 100
3, 118272, Note_on_c, 1, 50, 95
3, 118460, Note_off_c, 1, 50, 100
3, 118464, Note_on_c, 1, 62, 95
3, 118652, Note_off_c, 1, 62, 100
3, 118656, Note_on_c, 1, 59, 95
3, 118656, Note_on_c, 1, 55, 95
3, 118844, Note_off_c, 1, 59, 100
3, 118844, Note_off_c, 1, 55, 100
3, 118848, Note_on_c, 1, 62, 95
3, 119036, Note_off_c, 1, 62, 100
3, 119040, Note_on_c, 1, 57, 95
3, 119040, Note_on_c, 1, 60, 95
3, 119228, Note_off_c, 1, 57, 100
3, 119228, Note_off_c, 1, 60, 100
3, 119232, Note_on_c, 1, 62, 95
3, 119420, Note_off_c, 1, 62, 100
3, 119424, Note_on_c, 1, 50, 95
3, 119612, Note_off_c, 1, 50, 100
3, 119616, Note_on_c, 1, 62, 95
3, 119804, Note_off_c, 1, 62, 100
3, 119808, Note_on_c, 1, 60, 95
3, 119808, Note_on_c, 1, 57, 95
3, 119996, Note_off_c, 1, 60, 100
3, 119996, Note_off_c, 1, 57, 100
3, 120000, Note_on_c, 1, 62, 95
3, 120188, Note_off_c, 1, 62, 100
3, 120192, Note_on_c, 1, 59, 95
3, 120192, Note_on_c, 1, 55, 95
3, 120380, Note_off_c, 1, 59, 100
3, 120380, Note_off_c, 1, 55, 100
3, 120384, Note_on_c, 1, 62, 95
3, 120572, Note_off_c, 1, 62, 100
3, 120576, Note_on_c, 1, 50, 95
3, 120764, Note_off_c, 1, 50, 100
3, 120768, Note_on_c, 1, 62, 95
3, 120956, Note_off_c, 1, 62, 100
3, 120960, Note_on_c, 1, 59, 95
3, 120960, Note_on_c, 1, 55, 95
3, 121148, Note_off_c, 1, 59, 100
3, 121148, Note_off_c, 1, 55, 100
3, 121152, Note_on_c, 1, 62, 95
3, 121340, Note_off_c, 1, 62, 100
3, 121728, Note_on_c, 1, 60, 110
3, 121728, Note_on_c, 1, 50, 110
3, 122108, Note_off_c, 1, 60, 100
3, 122108, Note_off_c, 1, 50, 100
3, 122112, Note_on_c, 1, 60, 110
3, 122112, Note_on_c, 1, 50, 110
3, 122492, Note_off_c, 1, 60, 100
3, 122492, Note_off_c, 1, 50, 100
3, 122496, Note_on_c, 1, 59, 110
3, 122496, Note_on_c, 1, 55, 110
3, 122876, Note_off_c, 1, 59, 100
3, 122876, Note_off_c, 1, 55, 100
3, 122880, Note_on_c, 1, 43, 110
3, 123260, Note_off_c, 1, 43, 100
3, 123648, Note_on_c, 1, 59, 80
3, 123836, Note_off_c, 1, 59, 100
3, 123840, Note_on_c, 1, 67, 80
3, 124028, Note_off_c, 1, 67, 100
3, 124032, Note_on_c, 1, 62, 80
3, 124220, Note_off_c, 1, 62, 100
3, 124224, Note_on_c, 1, 67, 80
3, 124412, Note_off_c, 1, 67, 100
3, 124416, Note_on_c, 1, 59, 80
3, 124604, Note_off_c, 1, 59, 100
3, 124608, Note_on_c, 1, 67, 80
3, 124796, Note_off_c, 1, 67, 100
3, 124800, Note_on_c, 1, 60, 80
3, 124988, Note_off_c, 1, 60, 100
3, 124992, Note_on_c, 1, 64, 80
3, 125180, Note_off_c, 1, 64, 100
3, 125184, Note_on_c, 1, 60, 80
3, 125372, Note_off_c, 1, 60, 100
3, 125376, Note_on_c, 1, 64, 80
3, 125564, Note_off_c, 1, 64, 100
3, 125568, Note_on_c, 1, 60, 80
3, 125756, Note_off_c, 1, 60, 100
3, 125760, Note_on_c, 1, 64, 80
3, 125948, Note_off_c, 1, 64, 100
3, 125952, Note_on_c, 1, 56, 80
3, 126140, Note_off_c, 1, 56, 100
3, 126144, Note_on_c, 1, 64, 80
3, 126332, Note_off_c, 1, 64, 100
3, 126336, Note_on_c, 1, 59, 80
3, 126524, Note_off_c, 1, 59, 100
3, 126528, Note_on_c, 1, 64, 80
3, 126716, Note_off_c, 1, 64, 100
3, 126720, Note_on_c, 1, 56, 80
3, 126908, Note_off_c, 1, 56, 100
3, 126912, Note_on_c, 1, 64, 80
3, 127100, Note_off_c, 1, 64, 100
3, 127104, Note_on_c, 1, 57, 80
3, 127292, Note_off_c, 1, 57, 100
3, 127296, Note_on_c, 1, 64, 80
3, 127484, Note_off_c, 1, 64, 100
3, 127488, Note_on_c, 1, 60, 80
3, 127676, Note_off_c, 1, 60, 100
3, 127680, Note_on_c, 1, 64, 80
3, 127868, Note_off_c, 1, 64, 100
3, 127872, Note_on_c, 1, 60, 80
3, 128060, Note_off_c, 1, 60, 100
3, 128064, Note_on_c, 1, 64, 80
3, 128252, Note_off_c, 1, 64, 100
3, 128256, Note_on_c, 1, 60, 80
3, 128256, Note_on_c, 1, 57, 80
3, 128444, Note_off_c, 1, 60, 100
3, 128444, Note_off_c, 1, 57, 100
3, 128448, Note_on_c, 1, 62, 80
3, 128636, Note_off_c, 1, 62, 100
3, 128640, Note_on_c, 1, 57, 80
3, 128640, Note_on_c, 1, 54, 80
3, 128828, Note_off_c, 1, 57, 100
3, 128828, Note_off_c, 1, 54, 100
3, 128832, Note_on_c, 1, 62, 80
3, 129020, Note_off_c, 1, 62, 100
3, 129024, Note_on_c, 1, 59, 80
3, 129024, Note_on_c, 1, 55, 80
3, 129212, Note_off_c, 1, 59, 100
3, 129212, Note_off_c, 1, 55, 100
3, 129216, Note_on_c, 1, 62, 80
3, 129404, Note_off_c, 1, 62, 100
3, 129408, Note_on_c, 1, 60, 80
3, 129408, Note_on_c, 1, 57, 80
3, 129596, Note_off_c, 1, 60, 100
3, 129596, Note_off_c, 1, 57, 100
3, 129600, Note_on_c, 1, 62, 80
3, 129788, Note_off_c, 1, 62, 100
3, 129792, Note_on_c, 1, 57, 80
3, 129792, Note_on_c, 1, 54, 80
3, 129980, Note_off_c, 1, 57, 100
3, 129980, Note_off_c, 1, 54, 100
3, 129984, Note_on_c, 1, 62, 80
3, 130172, Note_off_c, 1, 62, 100
3, 130176, Note_on_c, 1, 59, 80
3, 130176, Note_on_c, 1, 55, 80
3, 130364, Note_off_c, 1, 59, 100
3, 130364, Note_off_c, 1, 55, 100
3, 130368, Note_on_c, 1, 62, 80
3, 130556, Note_off_c, 1, 62, 100
3, 130560, Note_on_c, 1, 48, 80
3, 130940, Note_off_c, 1, 48, 100
3, 130944, Note_on_c, 1, 50, 83
3, 131324, Note_off_c, 1, 50, 100
3, 131328, Note_on_c, 1, 50, 87
3, 131708, Note_off_c, 1, 50, 100
3, 131712, Note_on_c, 1, 55, 90
3, 132092, Note_off_c, 1, 55, 100
3, 132672, Note_on_c, 1, 71, 107
3, 132672, Note_on_c, 1, 67, 107
3, 132860, Note_off_c, 1, 71, 100
3, 132860, Note_off_c, 1, 67, 100
3, 132864, Note_on_c, 1, 72, 110
3, 132864, Note_on_c, 1, 69, 110
3, 133052, Note_off_c, 1, 72, 100
3, 133052, Note_off_c, 1, 69, 100
3, 133056, Note_on_c, 1, 74, 110
3, 133244, Note_off_c, 1, 74, 100
3, 133248, Note_on_c, 1, 69, 110
3, 133248, Note_on_c, 1, 66, 110
3, 133436, Note_off_c, 1, 69, 100
3, 133436, Note_off_c, 1, 66, 100
3, 133440, Note_on_c, 1, 74, 110
3, 133628, Note_off_c, 1, 74, 100
3, 133632, Note_on_c, 1, 71, 110
3, 133632, Note_on_c, 1, 67, 110
3, 133820, Note_off_c, 1, 71, 100
3, 133820, Note_off_c, 1, 67, 100
3, 133824, Note_on_c, 1, 74, 110
3, 134012, Note_off_c, 1, 74, 100
3, 134016, Note_on_c, 1, 72, 110
3, 134016, Note_on_c, 1, 69, 110
3, 134204, Note_off_c, 1, 72, 100
3, 134204, Note_off_c, 1, 69, 100
3, 134208, Note_on_c, 1, 74, 110
3, 134396, Note_off_c, 1, 74, 100
3, 134400, Note_on_c, 1, 69, 110
3, 134400, Note_on_c, 1, 66, 110
3, 134588, Note_off_c, 1, 69, 100
3, 134588, Note_off_c, 1, 66, 100
3, 134592, Note_on_c, 1, 74, 110
3, 134780, Note_off_c, 1, 74, 100
3, 134784, Note_on_c, 1, 71, 110
3, 134784, Note_on_c, 1, 67, 110
3, 134972, Note_off_c, 1, 71, 100
3, 134972, Note_off_c, 1, 67, 100
3, 134976, Note_on_c, 1, 74, 110
3, 135164, Note_off_c, 1, 74, 100
3, 135168, Note_on_c, 1, 60, 110
3, 135548, Note_off_c, 1, 60, 100
3, 135552, Note_on_c, 1, 62, 110
3, 135552, Note_on_c, 1, 71, 110
3, 135932, Note_off_c, 1, 62, 100
3, 135932, Note_off_c, 1, 71, 100
3, 135936, Note_on_c, 1, 62, 110
3, 135936, Note_on_c, 1, 72, 110
3, 136316, Note_off_c, 1, 62, 100
3, 136316, Note_off_c, 1, 72, 100
3, 136320, Note_on_c, 1, 67, 110
3, 136320, Note_on_c, 1, 71, 110
3, 136700, Note_off_c, 1, 67, 100
3, 136700, Note_off_c, 1, 71, 100
3, 137088, Note_on_c, 1, 57, 80
3, 137088, Note_on_c, 1, 50, 80
3, 137468, Note_off_c, 1, 57, 100
3, 137468, Note_off_c, 1, 50, 100
3, 137472, Note_on_c, 1, 55, 80
3, 137472, Note_on_c, 1, 43, 80
3, 138236, Note_off_c, 1, 55, 100
3, 138236, Note_off_c, 1, 43, 100
3, 138236, End_track
0, 0, End_of_file
