0, 0, Header, 1, 5, 384
1, 0, Start_track
1, 0, Title_t, "L.v.Beethoven 1mov - Piano Sonata No.20 in G Major Op.49-2\000"
1, 0, Copyright_t, "Copyright(C) 1995-2009, Suzuki Software\000"
1, 0, Sequencer_specific, 9, 67, 123, 0, 88, 70, 48, 50, 0, 1
1, 0, Text_t, "XFhd:2000/07/31:JP:Classical::::L.v.Beethoven:::Kaoru Suzuki\000"
1, 0, Text_t, "XFln:JP:\203s\203A\203m\203\\\203i\203^\221æ20\224Ô\203g\222·\222²\215ì\225i49-2\201`\221æ1\212y\217Í:L.v.\203x\201[\203g\201[\203\224\203F\203\223:::\227é\202¿\202á\202ñ:\227é\202¿\202á\202ñ\000"
1, 0, Time_signature, 4, 2, 96, 8
1, 0, Sequencer_specific, 3, 0, 0, 65
1, 0, Sequencer_specific, 5, 0, 0, 119, 14, 0
1, 0, Tempo, 375000
1, 5760, Tempo, 400000
1, 6144, Tempo, 375000
1, 20736, Tempo, 400000
1, 21120, Tempo, 428571
1, 21312, Tempo, 500000
1, 21504, Tempo, 375000
1, 28416, Tempo, 400000
1, 28800, Tempo, 428571
1, 29952, Tempo, 375000
1, 52992, Tempo, 400000
1, 53376, Tempo, 461538
1, 53760, Tempo, 375000
1, 77568, Tempo, 400000
1, 77952, Tempo, 428571
1, 78720, Tempo, 461538
1, 79872, Tempo, 375000
1, 100608, Tempo, 400000
1, 100992, Tempo, 428571
1, 101376, Tempo, 375000
1, 132864, Tempo, 400000
1, 133248, Tempo, 428571
1, 133824, Tempo, 375000
1, 157440, Tempo, 387096
1, 157824, Tempo, 413793
1, 160128, Tempo, 375000
1, 180096, Tempo, 400000
1, 180480, Tempo, 428571
1, 180864, Tempo, 461538
1, 181056, Tempo, 500000
1, 181248, Tempo, 428571
1, 181632, Tempo, 375000
1, 211200, Tempo, 400000
1, 211584, Tempo, 428571
1, 212736, Tempo, 400000
1, 213696, Tempo, 375000
1, 235776, Tempo, 400000
1, 236160, Tempo, 428571
1, 236736, Tempo, 375000
1, 263424, Tempo, 400000
1, 263808, Tempo, 428571
1, 264000, Tempo, 500000
1, 264192, Tempo, 428571
1, 264960, Tempo, 500000
1, 264960, End_track
2, 0, Start_track
2, 0, Title_t, "Right"
2, 0, Control_c, 0, 0, 0
2, 0, Program_c, 0, 0
2, 0, Control_c, 0, 7, 100
2, 0, Control_c, 0, 10, 73
2, 0, Control_c, 0, 91, 127
2, 0, Key_signature, 1, "major"
2, 0, Note_on_c, 0, 67, 100
2, 0, Note_on_c, 0, 62, 100
2, 0, Note_on_c, 0, 59, 100
2, 764, Note_off_c, 0, 67, 100
2, 764, Note_off_c, 0, 62, 100
2, 764, Note_off_c, 0, 59, 100
2, 768, Note_on_c, 0, 62, 100
2, 892, Note_off_c, 0, 62, 100
2, 896, Note_on_c, 0, 67, 100
2, 1020, Note_off_c, 0, 67, 100
2, 1024, Note_on_c, 0, 71, 100
2, 1148, Note_off_c, 0, 71, 100
2, 1152, Note_on_c, 0, 74, 100
2, 1276, Note_off_c, 0, 74, 100
2, 1280, Note_on_c, 0, 72, 100
2, 1404, Note_off_c, 0, 72, 100
2, 1408, Note_on_c, 0, 69, 100
2, 1532, Note_off_c, 0, 69, 100
2, 1536, Note_on_c, 0, 67, 100
2, 1916, Note_off_c, 0, 67, 100
2, 1920, Note_on_c, 0, 67, 80
2, 2300, Note_off_c, 0, 67, 100
2, 2304, Note_on_c, 0, 66, 80
2, 2684, Note_off_c, 0, 66, 100
2, 2688, Note_on_c, 0, 67, 80
2, 3068, Note_off_c, 0, 67, 100
2, 3072, Note_on_c, 0, 69, 80
2, 3644, Note_off_c, 0, 69, 100
2, 3648, Note_on_c, 0, 69, 80
2, 3836, Note_off_c, 0, 69, 100
2, 3840, Note_on_c, 0, 71, 80
2, 4412, Note_off_c, 0, 71, 100
2, 4416, Note_on_c, 0, 71, 80
2, 4604, Note_off_c, 0, 71, 100
2, 4608, Note_on_c, 0, 74, 80
2, 4988, Note_off_c, 0, 74, 100
2, 4992, Note_on_c, 0, 72, 80
2, 5040, Note_on_c, 0, 74, 80
2, 5064, Note_off_c, 0, 72, 100
2, 5088, Note_on_c, 0, 72, 80
2, 5116, Note_off_c, 0, 74, 100
2, 5136, Note_on_c, 0, 74, 80
2, 5168, Note_off_c, 0, 72, 100
2, 5184, Note_on_c, 0, 72, 80
2, 5208, Note_off_c, 0, 74, 100
2, 5232, Note_on_c, 0, 74, 80
2, 5256, Note_off_c, 0, 72, 100
2, 5280, Note_on_c, 0, 71, 80
2, 5312, Note_off_c, 0, 74, 100
2, 5328, Note_on_c, 0, 72, 80
2, 5360, Note_off_c, 0, 71, 100
2, 5372, Note_off_c, 0, 72, 100
2, 5376, Note_on_c, 0, 71, 80
2, 5756, Note_off_c, 0, 71, 100
2, 6144, Note_on_c, 0, 79, 110
2, 6144, Note_on_c, 0, 74, 110
2, 6144, Note_on_c, 0, 71, 110
2, 6908, Note_off_c, 0, 79, 100
2, 6908, Note_off_c, 0, 74, 100
2, 6908, Note_off_c, 0, 71, 100
2, 6912, Note_on_c, 0, 74, 106
2, 7036, Note_off_c, 0, 74, 100
2, 7040, Note_on_c, 0, 79, 105
2, 7164, Note_off_c, 0, 79, 100
2, 7168, Note_on_c, 0, 83, 104
2, 7292, Note_off_c, 0, 83, 100
2, 7296, Note_on_c, 0, 86, 103
2, 7420, Note_off_c, 0, 86, 100
2, 7424, Note_on_c, 0, 84, 102
2, 7548, Note_off_c, 0, 84, 100
2, 7552, Note_on_c, 0, 81, 101
2, 7676, Note_off_c, 0, 81, 100
2, 7680, Note_on_c, 0, 79, 101
2, 8060, Note_off_c, 0, 79, 100
2, 8064, Note_on_c, 0, 79, 80
2, 8444, Note_off_c, 0, 79, 100
2, 8448, Note_on_c, 0, 78, 80
2, 8828, Note_off_c, 0, 78, 100
2, 8832, Note_on_c, 0, 79, 80
2, 9212, Note_off_c, 0, 79, 100
2, 9216, Note_on_c, 0, 81, 80
2, 9788, Note_off_c, 0, 81, 100
2, 9792, Note_on_c, 0, 81, 80
2, 9980, Note_off_c, 0, 81, 100
2, 9984, Note_on_c, 0, 83, 80
2, 10556, Note_off_c, 0, 83, 100
2, 10560, Note_on_c, 0, 83, 80
2, 10748, Note_off_c, 0, 83, 100
2, 10752, Note_on_c, 0, 86, 80
2, 11132, Note_off_c, 0, 86, 100
2, 11136, Note_on_c, 0, 84, 80
2, 11184, Note_on_c, 0, 86, 80
2, 11208, Note_off_c, 0, 84, 100
2, 11232, Note_on_c, 0, 84, 80
2, 11260, Note_off_c, 0, 86, 100
2, 11280, Note_on_c, 0, 86, 80
2, 11312, Note_off_c, 0, 84, 100
2, 11328, Note_on_c, 0, 84, 80
2, 11352, Note_off_c, 0, 86, 100
2, 11376, Note_on_c, 0, 86, 80
2, 11400, Note_off_c, 0, 84, 100
2, 11424, Note_on_c, 0, 83, 80
2, 11456, Note_off_c, 0, 86, 100
2, 11472, Note_on_c, 0, 84, 80
2, 11504, Note_off_c, 0, 83, 100
2, 11516, Note_off_c, 0, 84, 100
2, 11520, Note_on_c, 0, 83, 80
2, 11708, Note_off_c, 0, 83, 100
2, 11712, Note_on_c, 0, 84, 80
2, 11900, Note_off_c, 0, 84, 100
2, 11904, Note_on_c, 0, 85, 80
2, 12092, Note_off_c, 0, 85, 100
2, 12096, Note_on_c, 0, 86, 80
2, 12284, Note_off_c, 0, 86, 100
2, 12288, Note_on_c, 0, 87, 80
2, 12476, Note_off_c, 0, 87, 100
2, 12480, Note_on_c, 0, 88, 80
2, 12668, Note_off_c, 0, 88, 100
2, 12864, Note_on_c, 0, 88, 80
2, 13052, Note_off_c, 0, 88, 100
2, 13056, Note_on_c, 0, 86, 80
2, 13244, Note_off_c, 0, 86, 100
2, 13248, Note_on_c, 0, 84, 80
2, 13436, Note_off_c, 0, 84, 100
2, 13440, Note_on_c, 0, 83, 80
2, 13628, Note_off_c, 0, 83, 100
2, 13632, Note_on_c, 0, 81, 80
2, 13820, Note_off_c, 0, 81, 100
2, 13824, Note_on_c, 0, 85, 80
2, 14012, Note_off_c, 0, 85, 100
2, 14016, Note_on_c, 0, 86, 80
2, 14204, Note_off_c, 0, 86, 100
2, 14400, Note_on_c, 0, 86, 80
2, 14588, Note_off_c, 0, 86, 100
2, 14592, Note_on_c, 0, 84, 80
2, 14780, Note_off_c, 0, 84, 100
2, 14784, Note_on_c, 0, 83, 80
2, 14972, Note_off_c, 0, 83, 100
2, 14976, Note_on_c, 0, 81, 80
2, 15164, Note_off_c, 0, 81, 100
2, 15168, Note_on_c, 0, 79, 80
2, 15356, Note_off_c, 0, 79, 100
2, 15360, Note_on_c, 0, 78, 80
2, 15548, Note_off_c, 0, 78, 100
2, 15552, Note_on_c, 0, 76, 80
2, 15740, Note_off_c, 0, 76, 100
2, 15744, Note_on_c, 0, 74, 80
2, 15932, Note_off_c, 0, 74, 100
2, 15936, Note_on_c, 0, 72, 80
2, 16124, Note_off_c, 0, 72, 100
2, 16128, Note_on_c, 0, 71, 80
2, 16316, Note_off_c, 0, 71, 100
2, 16320, Note_on_c, 0, 69, 80
2, 16508, Note_off_c, 0, 69, 100
2, 16512, Note_on_c, 0, 67, 80
2, 16700, Note_off_c, 0, 67, 100
2, 16704, Note_on_c, 0, 66, 80
2, 16892, Note_off_c, 0, 66, 100
2, 16896, Note_on_c, 0, 67, 80
2, 17084, Note_off_c, 0, 67, 100
2, 17088, Note_on_c, 0, 69, 80
2, 17148, Note_off_c, 0, 69, 100
2, 17152, Note_on_c, 0, 67, 80
2, 17212, Note_off_c, 0, 67, 100
2, 17216, Note_on_c, 0, 66, 80
2, 17276, Note_off_c, 0, 66, 100
2, 17280, Note_on_c, 0, 67, 80
2, 17468, Note_off_c, 0, 67, 100
2, 17472, Note_on_c, 0, 69, 80
2, 17660, Note_off_c, 0, 69, 100
2, 17664, Note_on_c, 0, 71, 80
2, 17852, Note_off_c, 0, 71, 100
2, 17856, Note_on_c, 0, 72, 80
2, 18044, Note_off_c, 0, 72, 100
2, 18048, Note_on_c, 0, 73, 80
2, 18236, Note_off_c, 0, 73, 100
2, 18240, Note_on_c, 0, 74, 80
2, 18428, Note_off_c, 0, 74, 100
2, 18432, Note_on_c, 0, 75, 80
2, 18620, Note_off_c, 0, 75, 100
2, 18624, Note_on_c, 0, 76, 80
2, 18812, Note_off_c, 0, 76, 100
2, 19008, Note_on_c, 0, 76, 80
2, 19196, Note_off_c, 0, 76, 100
2, 19200, Note_on_c, 0, 74, 80
2, 19388, Note_off_c, 0, 74, 100
2, 19392, Note_on_c, 0, 72, 80
2, 19580, Note_off_c, 0, 72, 100
2, 19584, Note_on_c, 0, 71, 80
2, 19772, Note_off_c, 0, 71, 100
2, 19776, Note_on_c, 0, 69, 80
2, 19964, Note_off_c, 0, 69, 100
2, 19968, Note_on_c, 0, 75, 80
2, 20156, Note_off_c, 0, 75, 100
2, 20160, Note_on_c, 0, 76, 80
2, 20348, Note_off_c, 0, 76, 100
2, 20544, Note_on_c, 0, 76, 80
2, 20732, Note_off_c, 0, 76, 100
2, 20736, Note_on_c, 0, 76, 80
2, 20924, Note_off_c, 0, 76, 100
2, 20928, Note_on_c, 0, 73, 80
2, 21116, Note_off_c, 0, 73, 100
2, 21120, Note_on_c, 0, 69, 80
2, 21308, Note_off_c, 0, 69, 100
2, 21312, Note_on_c, 0, 67, 80
2, 21500, Note_off_c, 0, 67, 100
2, 21504, Note_on_c, 0, 66, 100
2, 21884, Note_off_c, 0, 66, 100
2, 21888, Note_on_c, 0, 81, 110
2, 22012, Note_off_c, 0, 81, 100
2, 22016, Note_on_c, 0, 78, 110
2, 22140, Note_off_c, 0, 78, 100
2, 22144, Note_on_c, 0, 74, 110
2, 22268, Note_off_c, 0, 74, 100
2, 22272, Note_on_c, 0, 72, 110
2, 22652, Note_off_c, 0, 72, 100
2, 22656, Note_on_c, 0, 81, 110
2, 22780, Note_off_c, 0, 81, 100
2, 22784, Note_on_c, 0, 78, 110
2, 22908, Note_off_c, 0, 78, 100
2, 22912, Note_on_c, 0, 72, 110
2, 23036, Note_off_c, 0, 72, 100
2, 23040, Note_on_c, 0, 71, 110
2, 23420, Note_off_c, 0, 71, 100
2, 23424, Note_on_c, 0, 79, 110
2, 23548, Note_off_c, 0, 79, 100
2, 23552, Note_on_c, 0, 74, 110
2, 23676, Note_off_c, 0, 74, 100
2, 23680, Note_on_c, 0, 71, 110
2, 23804, Note_off_c, 0, 71, 100
2, 23808, Note_on_c, 0, 67, 110
2, 24188, Note_off_c, 0, 67, 100
2, 24192, Note_on_c, 0, 74, 110
2, 24316, Note_off_c, 0, 74, 100
2, 24320, Note_on_c, 0, 71, 110
2, 24444, Note_off_c, 0, 71, 100
2, 24448, Note_on_c, 0, 67, 110
2, 24572, Note_off_c, 0, 67, 100
2, 24576, Note_on_c, 0, 66, 110
2, 24956, Note_off_c, 0, 66, 100
2, 24960, Note_on_c, 0, 81, 110
2, 25084, Note_off_c, 0, 81, 100
2, 25088, Note_on_c, 0, 78, 110
2, 25212, Note_off_c, 0, 78, 100
2, 25216, Note_on_c, 0, 74, 110
2, 25340, Note_off_c, 0, 74, 100
2, 25344, Note_on_c, 0, 72, 110
2, 25724, Note_off_c, 0, 72, 100
2, 25728, Note_on_c, 0, 81, 110
2, 25852, Note_off_c, 0, 81, 100
2, 25856, Note_on_c, 0, 78, 110
2, 25980, Note_off_c, 0, 78, 100
2, 25984, Note_on_c, 0, 72, 110
2, 26108, Note_off_c, 0, 72, 100
2, 26112, Note_on_c, 0, 71, 110
2, 26492, Note_off_c, 0, 71, 100
2, 26496, Note_on_c, 0, 79, 110
2, 26620, Note_off_c, 0, 79, 100
2, 26624, Note_on_c, 0, 74, 110
2, 26748, Note_off_c, 0, 74, 100
2, 26752, Note_on_c, 0, 71, 110
2, 26876, Note_off_c, 0, 71, 100
2, 26880, Note_on_c, 0, 67, 110
2, 27260, Note_off_c, 0, 67, 100
2, 27264, Note_on_c, 0, 74, 110
2, 27388, Note_off_c, 0, 74, 100
2, 27392, Note_on_c, 0, 71, 110
2, 27516, Note_off_c, 0, 71, 100
2, 27520, Note_on_c, 0, 67, 110
2, 27644, Note_off_c, 0, 67, 100
2, 27648, Note_on_c, 0, 62, 110
2, 28028, Note_off_c, 0, 62, 100
2, 28032, Note_on_c, 0, 74, 110
2, 28156, Note_off_c, 0, 74, 100
2, 28160, Note_on_c, 0, 71, 110
2, 28284, Note_off_c, 0, 71, 100
2, 28288, Note_on_c, 0, 67, 110
2, 28412, Note_off_c, 0, 67, 100
2, 28416, Note_on_c, 0, 62, 110
2, 28796, Note_off_c, 0, 62, 100
2, 28800, Note_on_c, 0, 74, 110
2, 28924, Note_off_c, 0, 74, 100
2, 28928, Note_on_c, 0, 71, 110
2, 29052, Note_off_c, 0, 71, 100
2, 29056, Note_on_c, 0, 67, 110
2, 29180, Note_off_c, 0, 67, 100
2, 29184, Note_on_c, 0, 62, 110
2, 29564, Note_off_c, 0, 62, 100
2, 30144, Note_on_c, 0, 69, 80
2, 30332, Note_off_c, 0, 69, 100
2, 30336, Note_on_c, 0, 69, 80
2, 30524, Note_off_c, 0, 69, 100
2, 30528, Note_on_c, 0, 69, 80
2, 30716, Note_off_c, 0, 69, 100
2, 30720, Note_on_c, 0, 74, 80
2, 31100, Note_off_c, 0, 74, 100
2, 31104, Note_on_c, 0, 73, 80
2, 31484, Note_off_c, 0, 73, 100
2, 31488, Note_on_c, 0, 74, 80
2, 31868, Note_off_c, 0, 74, 100
2, 31872, Note_on_c, 0, 76, 80
2, 32252, Note_off_c, 0, 76, 100
2, 32256, Note_on_c, 0, 79, 80
2, 32444, Note_off_c, 0, 79, 100
2, 32448, Note_on_c, 0, 78, 80
2, 32636, Note_off_c, 0, 78, 100
2, 32640, Note_on_c, 0, 76, 80
2, 33020, Note_off_c, 0, 76, 100
2, 33216, Note_on_c, 0, 69, 80
2, 33404, Note_off_c, 0, 69, 100
2, 33408, Note_on_c, 0, 69, 80
2, 33596, Note_off_c, 0, 69, 100
2, 33600, Note_on_c, 0, 69, 80
2, 33788, Note_off_c, 0, 69, 100
2, 33792, Note_on_c, 0, 76, 80
2, 34172, Note_off_c, 0, 76, 100
2, 34176, Note_on_c, 0, 74, 80
2, 34556, Note_off_c, 0, 74, 100
2, 34560, Note_on_c, 0, 76, 80
2, 34560, Note_on_c, 0, 73, 80
2, 34940, Note_off_c, 0, 76, 100
2, 34940, Note_off_c, 0, 73, 100
2, 34944, Note_on_c, 0, 78, 80
2, 34944, Note_on_c, 0, 74, 80
2, 35324, Note_off_c, 0, 78, 100
2, 35324, Note_off_c, 0, 74, 100
2, 35328, Note_on_c, 0, 81, 80
2, 35328, Note_on_c, 0, 76, 80
2, 35516, Note_off_c, 0, 81, 100
2, 35516, Note_off_c, 0, 76, 100
2, 35520, Note_on_c, 0, 79, 80
2, 35708, Note_off_c, 0, 79, 100
2, 35712, Note_on_c, 0, 78, 80
2, 35712, Note_on_c, 0, 74, 80
2, 36092, Note_off_c, 0, 78, 100
2, 36092, Note_off_c, 0, 74, 100
2, 36288, Note_on_c, 0, 81, 80
2, 36476, Note_off_c, 0, 81, 100
2, 36480, Note_on_c, 0, 79, 80
2, 36668, Note_off_c, 0, 79, 100
2, 36672, Note_on_c, 0, 78, 80
2, 36860, Note_off_c, 0, 78, 100
2, 36864, Note_on_c, 0, 78, 80
2, 37052, Note_off_c, 0, 78, 100
2, 37056, Note_on_c, 0, 76, 80
2, 37244, Note_off_c, 0, 76, 100
2, 37248, Note_on_c, 0, 76, 80
2, 37436, Note_off_c, 0, 76, 100
2, 37440, Note_on_c, 0, 76, 80
2, 37628, Note_off_c, 0, 76, 100
2, 37632, Note_on_c, 0, 74, 80
2, 37820, Note_off_c, 0, 74, 100
2, 37824, Note_on_c, 0, 81, 80
2, 38012, Note_off_c, 0, 81, 100
2, 38016, Note_on_c, 0, 79, 80
2, 38204, Note_off_c, 0, 79, 100
2, 38208, Note_on_c, 0, 78, 80
2, 38396, Note_off_c, 0, 78, 100
2, 38400, Note_on_c, 0, 78, 80
2, 38588, Note_off_c, 0, 78, 100
2, 38592, Note_on_c, 0, 76, 80
2, 38780, Note_off_c, 0, 76, 100
2, 38784, Note_on_c, 0, 76, 80
2, 38972, Note_off_c, 0, 76, 100
2, 38976, Note_on_c, 0, 76, 80
2, 39164, Note_off_c, 0, 76, 100
2, 39168, Note_on_c, 0, 74, 80
2, 39356, Note_off_c, 0, 74, 100
2, 39360, Note_on_c, 0, 81, 80
2, 39548, Note_off_c, 0, 81, 100
2, 39552, Note_on_c, 0, 79, 80
2, 39740, Note_off_c, 0, 79, 100
2, 39744, Note_on_c, 0, 78, 80
2, 39932, Note_off_c, 0, 78, 100
2, 39936, Note_on_c, 0, 78, 80
2, 40124, Note_off_c, 0, 78, 100
2, 40128, Note_on_c, 0, 76, 80
2, 40316, Note_off_c, 0, 76, 100
2, 40512, Note_on_c, 0, 76, 80
2, 40700, Note_off_c, 0, 76, 100
2, 40704, Note_on_c, 0, 76, 80
2, 40892, Note_off_c, 0, 76, 100
2, 40896, Note_on_c, 0, 74, 80
2, 41084, Note_off_c, 0, 74, 100
2, 41280, Note_on_c, 0, 74, 80
2, 41468, Note_off_c, 0, 74, 100
2, 41472, Note_on_c, 0, 74, 80
2, 41660, Note_off_c, 0, 74, 100
2, 41664, Note_on_c, 0, 73, 80
2, 41852, Note_off_c, 0, 73, 100
2, 41856, Note_on_c, 0, 71, 80
2, 42044, Note_off_c, 0, 71, 100
2, 42048, Note_on_c, 0, 69, 80
2, 42236, Note_off_c, 0, 69, 100
2, 42240, Note_on_c, 0, 68, 80
2, 42428, Note_off_c, 0, 68, 100
2, 42432, Note_on_c, 0, 69, 80
2, 42620, Note_off_c, 0, 69, 100
2, 42624, Note_on_c, 0, 71, 80
2, 42812, Note_off_c, 0, 71, 100
2, 42816, Note_on_c, 0, 73, 80
2, 43004, Note_off_c, 0, 73, 100
2, 43008, Note_on_c, 0, 74, 80
2, 43388, Note_off_c, 0, 74, 100
2, 43392, Note_on_c, 0, 73, 80
2, 43772, Note_off_c, 0, 73, 100
2, 43776, Note_on_c, 0, 74, 80
2, 44156, Note_off_c, 0, 74, 100
2, 44160, Note_on_c, 0, 76, 80
2, 44540, Note_off_c, 0, 76, 100
2, 44544, Note_on_c, 0, 79, 80
2, 44544, Note_on_c, 0, 74, 80
2, 44732, Note_off_c, 0, 79, 100
2, 44732, Note_off_c, 0, 74, 100
2, 44736, Note_on_c, 0, 78, 80
2, 44924, Note_off_c, 0, 78, 100
2, 44928, Note_on_c, 0, 76, 80
2, 44928, Note_on_c, 0, 73, 80
2, 45308, Note_off_c, 0, 76, 100
2, 45308, Note_off_c, 0, 73, 100
2, 45504, Note_on_c, 0, 69, 80
2, 45692, Note_off_c, 0, 69, 100
2, 45696, Note_on_c, 0, 69, 80
2, 45884, Note_off_c, 0, 69, 100
2, 45888, Note_on_c, 0, 69, 80
2, 46076, Note_off_c, 0, 69, 100
2, 46080, Note_on_c, 0, 76, 80
2, 46460, Note_off_c, 0, 76, 100
2, 46464, Note_on_c, 0, 74, 80
2, 46844, Note_off_c, 0, 74, 100
2, 46848, Note_on_c, 0, 76, 80
2, 46848, Note_on_c, 0, 73, 80
2, 47228, Note_off_c, 0, 76, 100
2, 47228, Note_off_c, 0, 73, 100
2, 47232, Note_on_c, 0, 78, 80
2, 47232, Note_on_c, 0, 74, 80
2, 47612, Note_off_c, 0, 78, 100
2, 47612, Note_off_c, 0, 74, 100
2, 47616, Note_on_c, 0, 81, 80
2, 47616, Note_on_c, 0, 76, 80
2, 47804, Note_off_c, 0, 81, 100
2, 47804, Note_off_c, 0, 76, 100
2, 47808, Note_on_c, 0, 79, 80
2, 47996, Note_off_c, 0, 79, 100
2, 48000, Note_on_c, 0, 78, 80
2, 48000, Note_on_c, 0, 74, 80
2, 48380, Note_off_c, 0, 78, 100
2, 48380, Note_off_c, 0, 74, 100
2, 48576, Note_on_c, 0, 81, 80
2, 48764, Note_off_c, 0, 81, 100
2, 48768, Note_on_c, 0, 79, 80
2, 48956, Note_off_c, 0, 79, 100
2, 48960, Note_on_c, 0, 78, 80
2, 49148, Note_off_c, 0, 78, 100
2, 49152, Note_on_c, 0, 78, 80
2, 49340, Note_off_c, 0, 78, 100
2, 49344, Note_on_c, 0, 76, 80
2, 49532, Note_off_c, 0, 76, 100
2, 49536, Note_on_c, 0, 76, 80
2, 49724, Note_off_c, 0, 76, 100
2, 49728, Note_on_c, 0, 76, 80
2, 49916, Note_off_c, 0, 76, 100
2, 49920, Note_on_c, 0, 74, 80
2, 50108, Note_off_c, 0, 74, 100
2, 50112, Note_on_c, 0, 81, 80
2, 50300, Note_off_c, 0, 81, 100
2, 50304, Note_on_c, 0, 79, 80
2, 50492, Note_off_c, 0, 79, 100
2, 50496, Note_on_c, 0, 78, 80
2, 50684, Note_off_c, 0, 78, 100
2, 50688, Note_on_c, 0, 78, 80
2, 50876, Note_off_c, 0, 78, 100
2, 50880, Note_on_c, 0, 76, 80
2, 51068, Note_off_c, 0, 76, 100
2, 51072, Note_on_c, 0, 76, 80
2, 51260, Note_off_c, 0, 76, 100
2, 51264, Note_on_c, 0, 76, 80
2, 51452, Note_off_c, 0, 76, 100
2, 51456, Note_on_c, 0, 74, 80
2, 51644, Note_off_c, 0, 74, 100
2, 51648, Note_on_c, 0, 81, 80
2, 51836, Note_off_c, 0, 81, 100
2, 51840, Note_on_c, 0, 79, 80
2, 52028, Note_off_c, 0, 79, 100
2, 52032, Note_on_c, 0, 78, 80
2, 52220, Note_off_c, 0, 78, 100
2, 52224, Note_on_c, 0, 78, 80
2, 52412, Note_off_c, 0, 78, 100
2, 52416, Note_on_c, 0, 76, 80
2, 52604, Note_off_c, 0, 76, 100
2, 52608, Note_on_c, 0, 79, 80
2, 52796, Note_off_c, 0, 79, 100
2, 52800, Note_on_c, 0, 76, 80
2, 52988, Note_off_c, 0, 76, 100
2, 52992, Note_on_c, 0, 76, 80
2, 53180, Note_off_c, 0, 76, 100
2, 53184, Note_on_c, 0, 74, 80
2, 53372, Note_off_c, 0, 74, 100
2, 53376, Note_on_c, 0, 74, 80
2, 53564, Note_off_c, 0, 74, 100
2, 53568, Note_on_c, 0, 73, 80
2, 53756, Note_off_c, 0, 73, 100
2, 53760, Note_on_c, 0, 74, 110
2, 53788, Note_off_c, 0, 74, 100
2, 53792, Note_on_c, 0, 81, 110
2, 53884, Note_off_c, 0, 81, 100
2, 53888, Note_on_c, 0, 79, 110
2, 54012, Note_off_c, 0, 79, 100
2, 54016, Note_on_c, 0, 78, 110
2, 54140, Note_off_c, 0, 78, 100
2, 54144, Note_on_c, 0, 76, 110
2, 54268, Note_off_c, 0, 76, 100
2, 54272, Note_on_c, 0, 74, 110
2, 54396, Note_off_c, 0, 74, 100
2, 54400, Note_on_c, 0, 73, 110
2, 54524, Note_off_c, 0, 73, 100
2, 54528, Note_on_c, 0, 71, 110
2, 54652, Note_off_c, 0, 71, 100
2, 54656, Note_on_c, 0, 69, 110
2, 54780, Note_off_c, 0, 69, 100
2, 54784, Note_on_c, 0, 67, 110
2, 54908, Note_off_c, 0, 67, 100
2, 54912, Note_on_c, 0, 66, 110
2, 55036, Note_off_c, 0, 66, 100
2, 55040, Note_on_c, 0, 64, 110
2, 55164, Note_off_c, 0, 64, 100
2, 55168, Note_on_c, 0, 62, 110
2, 55292, Note_off_c, 0, 62, 100
2, 55296, Note_on_c, 0, 61, 110
2, 55676, Note_off_c, 0, 61, 100
2, 55680, Note_on_c, 0, 61, 110
2, 56060, Note_off_c, 0, 61, 100
2, 56064, Note_on_c, 0, 61, 110
2, 56444, Note_off_c, 0, 61, 100
2, 56448, Note_on_c, 0, 61, 110
2, 56828, Note_off_c, 0, 61, 100
2, 56832, Note_on_c, 0, 62, 110
2, 56956, Note_off_c, 0, 62, 100
2, 56960, Note_on_c, 0, 64, 110
2, 57084, Note_off_c, 0, 64, 100
2, 57088, Note_on_c, 0, 66, 110
2, 57212, Note_off_c, 0, 66, 100
2, 57216, Note_on_c, 0, 67, 110
2, 57340, Note_off_c, 0, 67, 100
2, 57344, Note_on_c, 0, 69, 110
2, 57468, Note_off_c, 0, 69, 100
2, 57472, Note_on_c, 0, 71, 110
2, 57596, Note_off_c, 0, 71, 100
2, 57600, Note_on_c, 0, 73, 110
2, 57724, Note_off_c, 0, 73, 100
2, 57728, Note_on_c, 0, 74, 110
2, 57852, Note_off_c, 0, 74, 100
2, 57856, Note_on_c, 0, 76, 110
2, 57980, Note_off_c, 0, 76, 100
2, 57984, Note_on_c, 0, 78, 110
2, 58108, Note_off_c, 0, 78, 100
2, 58112, Note_on_c, 0, 79, 110
2, 58236, Note_off_c, 0, 79, 100
2, 58240, Note_on_c, 0, 81, 110
2, 58364, Note_off_c, 0, 81, 100
2, 58368, Note_on_c, 0, 79, 110
2, 58748, Note_off_c, 0, 79, 100
2, 58752, Note_on_c, 0, 79, 110
2, 59132, Note_off_c, 0, 79, 100
2, 59136, Note_on_c, 0, 79, 110
2, 59516, Note_off_c, 0, 79, 100
2, 59520, Note_on_c, 0, 79, 110
2, 59900, Note_off_c, 0, 79, 100
2, 59904, Note_on_c, 0, 78, 110
2, 59932, Note_off_c, 0, 78, 100
2, 59936, Note_on_c, 0, 81, 110
2, 60028, Note_off_c, 0, 81, 100
2, 60032, Note_on_c, 0, 79, 110
2, 60156, Note_off_c, 0, 79, 100
2, 60160, Note_on_c, 0, 78, 110
2, 60284, Note_off_c, 0, 78, 100
2, 60288, Note_on_c, 0, 76, 110
2, 60412, Note_off_c, 0, 76, 100
2, 60416, Note_on_c, 0, 74, 110
2, 60540, Note_off_c, 0, 74, 100
2, 60544, Note_on_c, 0, 73, 110
2, 60668, Note_off_c, 0, 73, 100
2, 60672, Note_on_c, 0, 71, 110
2, 60796, Note_off_c, 0, 71, 100
2, 60800, Note_on_c, 0, 69, 110
2, 60924, Note_off_c, 0, 69, 100
2, 60928, Note_on_c, 0, 67, 110
2, 61052, Note_off_c, 0, 67, 100
2, 61056, Note_on_c, 0, 66, 110
2, 61180, Note_off_c, 0, 66, 100
2, 61184, Note_on_c, 0, 64, 110
2, 61308, Note_off_c, 0, 64, 100
2, 61312, Note_on_c, 0, 62, 110
2, 61436, Note_off_c, 0, 62, 100
2, 61440, Note_on_c, 0, 60, 110
2, 61820, Note_off_c, 0, 60, 100
2, 61824, Note_on_c, 0, 60, 110
2, 62204, Note_off_c, 0, 60, 100
2, 62208, Note_on_c, 0, 60, 110
2, 62588, Note_off_c, 0, 60, 100
2, 62592, Note_on_c, 0, 60, 110
2, 62972, Note_off_c, 0, 60, 100
2, 62976, Note_on_c, 0, 59, 110
2, 63100, Note_off_c, 0, 59, 100
2, 63104, Note_on_c, 0, 64, 110
2, 63228, Note_off_c, 0, 64, 100
2, 63232, Note_on_c, 0, 67, 110
2, 63356, Note_off_c, 0, 67, 100
2, 63360, Note_on_c, 0, 71, 110
2, 63484, Note_off_c, 0, 71, 100
2, 63488, Note_on_c, 0, 67, 110
2, 63612, Note_off_c, 0, 67, 100
2, 63616, Note_on_c, 0, 64, 110
2, 63740, Note_off_c, 0, 64, 100
2, 63744, Note_on_c, 0, 62, 110
2, 64124, Note_off_c, 0, 62, 100
2, 64128, Note_on_c, 0, 66, 110
2, 64316, Note_off_c, 0, 66, 100
2, 64320, Note_on_c, 0, 64, 110
2, 64508, Note_off_c, 0, 64, 100
2, 64512, Note_on_c, 0, 62, 110
2, 64636, Note_off_c, 0, 62, 100
2, 64640, Note_on_c, 0, 64, 110
2, 64764, Note_off_c, 0, 64, 100
2, 64768, Note_on_c, 0, 66, 110
2, 64892, Note_off_c, 0, 66, 100
2, 64896, Note_on_c, 0, 67, 110
2, 65020, Note_off_c, 0, 67, 100
2, 65024, Note_on_c, 0, 69, 110
2, 65148, Note_off_c, 0, 69, 100
2, 65152, Note_on_c, 0, 71, 110
2, 65276, Note_off_c, 0, 71, 100
2, 65280, Note_on_c, 0, 73, 110
2, 65404, Note_off_c, 0, 73, 100
2, 65408, Note_on_c, 0, 74, 110
2, 65532, Note_off_c, 0, 74, 100
2, 65536, Note_on_c, 0, 76, 110
2, 65660, Note_off_c, 0, 76, 100
2, 65664, Note_on_c, 0, 78, 110
2, 65788, Note_off_c, 0, 78, 100
2, 65792, Note_on_c, 0, 79, 110
2, 65916, Note_off_c, 0, 79, 100
2, 65920, Note_on_c, 0, 81, 110
2, 66044, Note_off_c, 0, 81, 100
2, 66048, Note_on_c, 0, 83, 110
2, 66048, Note_on_c, 0, 79, 110
2, 67580, Note_off_c, 0, 83, 100
2, 67580, Note_off_c, 0, 79, 100
2, 67584, Note_on_c, 0, 81, 110
2, 67584, Note_on_c, 0, 78, 110
2, 67964, Note_off_c, 0, 81, 100
2, 67964, Note_off_c, 0, 78, 100
2, 67968, Note_on_c, 0, 79, 110
2, 67968, Note_on_c, 0, 76, 110
2, 68348, Note_off_c, 0, 79, 100
2, 68348, Note_off_c, 0, 76, 100
2, 68352, Note_on_c, 0, 78, 110
2, 68352, Note_on_c, 0, 74, 110
2, 68732, Note_off_c, 0, 78, 100
2, 68732, Note_off_c, 0, 74, 100
2, 68736, Note_on_c, 0, 76, 110
2, 68736, Note_on_c, 0, 73, 110
2, 69116, Note_off_c, 0, 76, 100
2, 69116, Note_off_c, 0, 73, 100
2, 69120, Note_on_c, 0, 81, 110
2, 69244, Note_off_c, 0, 81, 100
2, 69248, Note_on_c, 0, 79, 110
2, 69372, Note_off_c, 0, 79, 100
2, 69376, Note_on_c, 0, 78, 110
2, 69500, Note_off_c, 0, 78, 100
2, 69504, Note_on_c, 0, 76, 110
2, 69628, Note_off_c, 0, 76, 100
2, 69632, Note_on_c, 0, 74, 110
2, 69756, Note_off_c, 0, 74, 100
2, 69760, Note_on_c, 0, 73, 110
2, 69884, Note_off_c, 0, 73, 100
2, 69888, Note_on_c, 0, 71, 110
2, 70012, Note_off_c, 0, 71, 100
2, 70016, Note_on_c, 0, 69, 110
2, 70140, Note_off_c, 0, 69, 100
2, 70144, Note_on_c, 0, 67, 110
2, 70268, Note_off_c, 0, 67, 100
2, 70272, Note_on_c, 0, 66, 110
2, 70396, Note_off_c, 0, 66, 100
2, 70400, Note_on_c, 0, 64, 110
2, 70524, Note_off_c, 0, 64, 100
2, 70528, Note_on_c, 0, 62, 110
2, 70652, Note_off_c, 0, 62, 100
2, 70656, Note_on_c, 0, 67, 110
2, 70656, Note_on_c, 0, 71, 110
2, 72188, Note_off_c, 0, 67, 100
2, 72188, Note_off_c, 0, 71, 100
2, 72192, Note_on_c, 0, 69, 110
2, 72192, Note_on_c, 0, 66, 110
2, 72572, Note_off_c, 0, 69, 100
2, 72572, Note_off_c, 0, 66, 100
2, 72576, Note_on_c, 0, 67, 110
2, 72576, Note_on_c, 0, 64, 110
2, 72956, Note_off_c, 0, 67, 100
2, 72956, Note_off_c, 0, 64, 100
2, 72960, Note_on_c, 0, 66, 110
2, 72960, Note_on_c, 0, 62, 110
2, 73340, Note_off_c, 0, 66, 100
2, 73340, Note_off_c, 0, 62, 100
2, 73344, Note_on_c, 0, 61, 110
2, 73344, Note_on_c, 0, 64, 110
2, 73724, Note_off_c, 0, 61, 100
2, 73724, Note_off_c, 0, 64, 100
2, 73728, Note_on_c, 0, 62, 110
2, 74108, Note_off_c, 0, 62, 100
2, 74112, Note_on_c, 0, 81, 110
2, 74236, Note_off_c, 0, 81, 100
2, 74240, Note_on_c, 0, 78, 110
2, 74364, Note_off_c, 0, 78, 100
2, 74368, Note_on_c, 0, 74, 110
2, 74492, Note_off_c, 0, 74, 100
2, 74496, Note_on_c, 0, 73, 110
2, 74876, Note_off_c, 0, 73, 100
2, 74880, Note_on_c, 0, 79, 110
2, 75004, Note_off_c, 0, 79, 100
2, 75008, Note_on_c, 0, 76, 110
2, 75132, Note_off_c, 0, 76, 100
2, 75136, Note_on_c, 0, 73, 110
2, 75260, Note_off_c, 0, 73, 100
2, 75264, Note_on_c, 0, 74, 110
2, 75644, Note_off_c, 0, 74, 100
2, 75648, Note_on_c, 0, 69, 110
2, 75772, Note_off_c, 0, 69, 100
2, 75776, Note_on_c, 0, 66, 110
2, 75900, Note_off_c, 0, 66, 100
2, 75904, Note_on_c, 0, 62, 110
2, 76028, Note_off_c, 0, 62, 100
2, 76032, Note_on_c, 0, 61, 110
2, 76412, Note_off_c, 0, 61, 100
2, 76416, Note_on_c, 0, 67, 110
2, 76540, Note_off_c, 0, 67, 100
2, 76544, Note_on_c, 0, 64, 110
2, 76668, Note_off_c, 0, 64, 100
2, 76672, Note_on_c, 0, 61, 110
2, 76796, Note_off_c, 0, 61, 100
2, 76800, Note_on_c, 0, 62, 110
2, 77180, Note_off_c, 0, 62, 100
2, 77184, Note_on_c, 0, 67, 110
2, 77308, Note_off_c, 0, 67, 100
2, 77312, Note_on_c, 0, 64, 110
2, 77436, Note_off_c, 0, 64, 100
2, 77440, Note_on_c, 0, 61, 110
2, 77564, Note_off_c, 0, 61, 100
2, 77568, Note_on_c, 0, 62, 110
2, 77948, Note_off_c, 0, 62, 100
2, 77952, Note_on_c, 0, 67, 110
2, 78076, Note_off_c, 0, 67, 100
2, 78080, Note_on_c, 0, 64, 110
2, 78204, Note_off_c, 0, 64, 100
2, 78208, Note_on_c, 0, 61, 110
2, 78332, Note_off_c, 0, 61, 100
2, 78336, Note_on_c, 0, 62, 110
2, 78716, Note_off_c, 0, 62, 100
2, 78720, Note_on_c, 0, 62, 110
2, 78720, Note_on_c, 0, 57, 110
2, 78720, Note_on_c, 0, 54, 110
2, 79100, Note_off_c, 0, 62, 100
2, 79100, Note_off_c, 0, 57, 100
2, 79100, Note_off_c, 0, 54, 100
2, 79104, Note_on_c, 0, 62, 110
2, 79104, Note_on_c, 0, 57, 110
2, 79104, Note_on_c, 0, 54, 110
2, 79484, Note_off_c, 0, 62, 100
2, 79484, Note_off_c, 0, 57, 100
2, 79484, Note_off_c, 0, 54, 100
2, 79872, Note_on_c, 0, 67, 100
2, 79872, Note_on_c, 0, 62, 100
2, 79872, Note_on_c, 0, 59, 100
2, 80636, Note_off_c, 0, 67, 100
2, 80636, Note_off_c, 0, 62, 100
2, 80636, Note_off_c, 0, 59, 100
2, 80640, Note_on_c, 0, 62, 100
2, 80764, Note_off_c, 0, 62, 100
2, 80768, Note_on_c, 0, 67, 100
2, 80892, Note_off_c, 0, 67, 100
2, 80896, Note_on_c, 0, 71, 100
2, 81020, Note_off_c, 0, 71, 100
2, 81024, Note_on_c, 0, 74, 100
2, 81148, Note_off_c, 0, 74, 100
2, 81152, Note_on_c, 0, 72, 100
2, 81276, Note_off_c, 0, 72, 100
2, 81280, Note_on_c, 0, 69, 100
2, 81404, Note_off_c, 0, 69, 100
2, 81408, Note_on_c, 0, 67, 100
2, 81788, Note_off_c, 0, 67, 100
2, 81792, Note_on_c, 0, 67, 80
2, 82172, Note_off_c, 0, 67, 100
2, 82176, Note_on_c, 0, 66, 80
2, 82556, Note_off_c, 0, 66, 100
2, 82560, Note_on_c, 0, 67, 80
2, 82940, Note_off_c, 0, 67, 100
2, 82944, Note_on_c, 0, 69, 80
2, 83516, Note_off_c, 0, 69, 100
2, 83520, Note_on_c, 0, 69, 80
2, 83708, Note_off_c, 0, 69, 100
2, 83712, Note_on_c, 0, 71, 80
2, 84284, Note_off_c, 0, 71, 100
2, 84288, Note_on_c, 0, 71, 80
2, 84476, Note_off_c, 0, 71, 100
2, 84480, Note_on_c, 0, 74, 80
2, 84860, Note_off_c, 0, 74, 100
2, 84864, Note_on_c, 0, 72, 80
2, 84912, Note_on_c, 0, 74, 80
2, 84936, Note_off_c, 0, 72, 100
2, 84960, Note_on_c, 0, 72, 80
2, 84988, Note_off_c, 0, 74, 100
2, 85008, Note_on_c, 0, 74, 80
2, 85040, Note_off_c, 0, 72, 100
2, 85056, Note_on_c, 0, 72, 80
2, 85080, Note_off_c, 0, 74, 100
2, 85104, Note_on_c, 0, 74, 80
2, 85128, Note_off_c, 0, 72, 100
2, 85152, Note_on_c, 0, 71, 80
2, 85184, Note_off_c, 0, 74, 100
2, 85200, Note_on_c, 0, 72, 80
2, 85232, Note_off_c, 0, 71, 100
2, 85244, Note_off_c, 0, 72, 100
2, 85248, Note_on_c, 0, 71, 80
2, 85628, Note_off_c, 0, 71, 100
2, 86016, Note_on_c, 0, 79, 110
2, 86016, Note_on_c, 0, 74, 110
2, 86016, Note_on_c, 0, 71, 110
2, 86780, Note_off_c, 0, 79, 100
2, 86780, Note_off_c, 0, 74, 100
2, 86780, Note_off_c, 0, 71, 100
2, 86784, Note_on_c, 0, 74, 106
2, 86908, Note_off_c, 0, 74, 100
2, 86912, Note_on_c, 0, 79, 105
2, 87036, Note_off_c, 0, 79, 100
2, 87040, Note_on_c, 0, 83, 104
2, 87164, Note_off_c, 0, 83, 100
2, 87168, Note_on_c, 0, 86, 103
2, 87292, Note_off_c, 0, 86, 100
2, 87296, Note_on_c, 0, 84, 102
2, 87420, Note_off_c, 0, 84, 100
2, 87424, Note_on_c, 0, 81, 101
2, 87548, Note_off_c, 0, 81, 100
2, 87552, Note_on_c, 0, 79, 101
2, 87932, Note_off_c, 0, 79, 100
2, 87936, Note_on_c, 0, 79, 80
2, 88316, Note_off_c, 0, 79, 100
2, 88320, Note_on_c, 0, 78, 80
2, 88700, Note_off_c, 0, 78, 100
2, 88704, Note_on_c, 0, 79, 80
2, 89084, Note_off_c, 0, 79, 100
2, 89088, Note_on_c, 0, 81, 80
2, 89660, Note_off_c, 0, 81, 100
2, 89664, Note_on_c, 0, 81, 80
2, 89852, Note_off_c, 0, 81, 100
2, 89856, Note_on_c, 0, 83, 80
2, 90428, Note_off_c, 0, 83, 100
2, 90432, Note_on_c, 0, 83, 80
2, 90620, Note_off_c, 0, 83, 100
2, 90624, Note_on_c, 0, 86, 80
2, 91004, Note_off_c, 0, 86, 100
2, 91008, Note_on_c, 0, 84, 80
2, 91056, Note_on_c, 0, 86, 80
2, 91080, Note_off_c, 0, 84, 100
2, 91104, Note_on_c, 0, 84, 80
2, 91132, Note_off_c, 0, 86, 100
2, 91152, Note_on_c, 0, 86, 80
2, 91184, Note_off_c, 0, 84, 100
2, 91200, Note_on_c, 0, 84, 80
2, 91224, Note_off_c, 0, 86, 100
2, 91248, Note_on_c, 0, 86, 80
2, 91272, Note_off_c, 0, 84, 100
2, 91296, Note_on_c, 0, 83, 80
2, 91328, Note_off_c, 0, 86, 100
2, 91344, Note_on_c, 0, 84, 80
2, 91376, Note_off_c, 0, 83, 100
2, 91388, Note_off_c, 0, 84, 100
2, 91392, Note_on_c, 0, 83, 80
2, 91580, Note_off_c, 0, 83, 100
2, 91584, Note_on_c, 0, 84, 80
2, 91772, Note_off_c, 0, 84, 100
2, 91776, Note_on_c, 0, 85, 80
2, 91964, Note_off_c, 0, 85, 100
2, 91968, Note_on_c, 0, 86, 80
2, 92156, Note_off_c, 0, 86, 100
2, 92160, Note_on_c, 0, 87, 80
2, 92348, Note_off_c, 0, 87, 100
2, 92352, Note_on_c, 0, 88, 80
2, 92540, Note_off_c, 0, 88, 100
2, 92736, Note_on_c, 0, 88, 80
2, 92924, Note_off_c, 0, 88, 100
2, 92928, Note_on_c, 0, 86, 80
2, 93116, Note_off_c, 0, 86, 100
2, 93120, Note_on_c, 0, 84, 80
2, 93308, Note_off_c, 0, 84, 100
2, 93312, Note_on_c, 0, 83, 80
2, 93500, Note_off_c, 0, 83, 100
2, 93504, Note_on_c, 0, 81, 80
2, 93692, Note_off_c, 0, 81, 100
2, 93696, Note_on_c, 0, 85, 80
2, 93884, Note_off_c, 0, 85, 100
2, 93888, Note_on_c, 0, 86, 80
2, 94076, Note_off_c, 0, 86, 100
2, 94272, Note_on_c, 0, 86, 80
2, 94460, Note_off_c, 0, 86, 100
2, 94464, Note_on_c, 0, 84, 80
2, 94652, Note_off_c, 0, 84, 100
2, 94656, Note_on_c, 0, 83, 80
2, 94844, Note_off_c, 0, 83, 100
2, 94848, Note_on_c, 0, 81, 80
2, 95036, Note_off_c, 0, 81, 100
2, 95040, Note_on_c, 0, 79, 80
2, 95228, Note_off_c, 0, 79, 100
2, 95232, Note_on_c, 0, 78, 80
2, 95420, Note_off_c, 0, 78, 100
2, 95424, Note_on_c, 0, 76, 80
2, 95612, Note_off_c, 0, 76, 100
2, 95616, Note_on_c, 0, 74, 80
2, 95804, Note_off_c, 0, 74, 100
2, 95808, Note_on_c, 0, 72, 80
2, 95996, Note_off_c, 0, 72, 100
2, 96000, Note_on_c, 0, 71, 80
2, 96188, Note_off_c, 0, 71, 100
2, 96192, Note_on_c, 0, 69, 80
2, 96380, Note_off_c, 0, 69, 100
2, 96384, Note_on_c, 0, 67, 80
2, 96572, Note_off_c, 0, 67, 100
2, 96576, Note_on_c, 0, 66, 80
2, 96764, Note_off_c, 0, 66, 100
2, 96768, Note_on_c, 0, 67, 80
2, 96956, Note_off_c, 0, 67, 100
2, 96960, Note_on_c, 0, 69, 80
2, 97020, Note_off_c, 0, 69, 100
2, 97024, Note_on_c, 0, 67, 80
2, 97084, Note_off_c, 0, 67, 100
2, 97088, Note_on_c, 0, 66, 80
2, 97148, Note_off_c, 0, 66, 100
2, 97152, Note_on_c, 0, 67, 80
2, 97340, Note_off_c, 0, 67, 100
2, 97344, Note_on_c, 0, 69, 80
2, 97532, Note_off_c, 0, 69, 100
2, 97536, Note_on_c, 0, 71, 80
2, 97724, Note_off_c, 0, 71, 100
2, 97728, Note_on_c, 0, 72, 80
2, 97916, Note_off_c, 0, 72, 100
2, 97920, Note_on_c, 0, 73, 80
2, 98108, Note_off_c, 0, 73, 100
2, 98112, Note_on_c, 0, 74, 80
2, 98300, Note_off_c, 0, 74, 100
2, 98304, Note_on_c, 0, 75, 80
2, 98492, Note_off_c, 0, 75, 100
2, 98496, Note_on_c, 0, 76, 80
2, 98684, Note_off_c, 0, 76, 100
2, 98880, Note_on_c, 0, 76, 80
2, 99068, Note_off_c, 0, 76, 100
2, 99072, Note_on_c, 0, 74, 80
2, 99260, Note_off_c, 0, 74, 100
2, 99264, Note_on_c, 0, 72, 80
2, 99452, Note_off_c, 0, 72, 100
2, 99456, Note_on_c, 0, 71, 80
2, 99644, Note_off_c, 0, 71, 100
2, 99648, Note_on_c, 0, 69, 80
2, 99836, Note_off_c, 0, 69, 100
2, 99840, Note_on_c, 0, 75, 80
2, 100028, Note_off_c, 0, 75, 100
2, 100032, Note_on_c, 0, 76, 80
2, 100220, Note_off_c, 0, 76, 100
2, 100416, Note_on_c, 0, 76, 80
2, 100604, Note_off_c, 0, 76, 100
2, 100608, Note_on_c, 0, 76, 80
2, 100796, Note_off_c, 0, 76, 100
2, 100800, Note_on_c, 0, 73, 80
2, 100988, Note_off_c, 0, 73, 100
2, 100992, Note_on_c, 0, 69, 80
2, 101180, Note_off_c, 0, 69, 100
2, 101184, Note_on_c, 0, 67, 80
2, 101372, Note_off_c, 0, 67, 100
2, 101376, Note_on_c, 0, 66, 100
2, 101756, Note_off_c, 0, 66, 100
2, 101760, Note_on_c, 0, 81, 110
2, 101884, Note_off_c, 0, 81, 100
2, 101888, Note_on_c, 0, 78, 110
2, 102012, Note_off_c, 0, 78, 100
2, 102016, Note_on_c, 0, 74, 110
2, 102140, Note_off_c, 0, 74, 100
2, 102144, Note_on_c, 0, 72, 110
2, 102524, Note_off_c, 0, 72, 100
2, 102528, Note_on_c, 0, 81, 110
2, 102652, Note_off_c, 0, 81, 100
2, 102656, Note_on_c, 0, 78, 110
2, 102780, Note_off_c, 0, 78, 100
2, 102784, Note_on_c, 0, 72, 110
2, 102908, Note_off_c, 0, 72, 100
2, 102912, Note_on_c, 0, 71, 110
2, 103292, Note_off_c, 0, 71, 100
2, 103296, Note_on_c, 0, 79, 110
2, 103420, Note_off_c, 0, 79, 100
2, 103424, Note_on_c, 0, 74, 110
2, 103548, Note_off_c, 0, 74, 100
2, 103552, Note_on_c, 0, 71, 110
2, 103676, Note_off_c, 0, 71, 100
2, 103680, Note_on_c, 0, 67, 110
2, 104060, Note_off_c, 0, 67, 100
2, 104064, Note_on_c, 0, 74, 110
2, 104188, Note_off_c, 0, 74, 100
2, 104192, Note_on_c, 0, 71, 110
2, 104316, Note_off_c, 0, 71, 100
2, 104320, Note_on_c, 0, 67, 110
2, 104444, Note_off_c, 0, 67, 100
2, 104448, Note_on_c, 0, 66, 110
2, 104828, Note_off_c, 0, 66, 100
2, 104832, Note_on_c, 0, 81, 110
2, 104956, Note_off_c, 0, 81, 100
2, 104960, Note_on_c, 0, 78, 110
2, 105084, Note_off_c, 0, 78, 100
2, 105088, Note_on_c, 0, 74, 110
2, 105212, Note_off_c, 0, 74, 100
2, 105216, Note_on_c, 0, 72, 110
2, 105596, Note_off_c, 0, 72, 100
2, 105600, Note_on_c, 0, 81, 110
2, 105724, Note_off_c, 0, 81, 100
2, 105728, Note_on_c, 0, 78, 110
2, 105852, Note_off_c, 0, 78, 100
2, 105856, Note_on_c, 0, 72, 110
2, 105980, Note_off_c, 0, 72, 100
2, 105984, Note_on_c, 0, 71, 110
2, 106364, Note_off_c, 0, 71, 100
2, 106368, Note_on_c, 0, 79, 110
2, 106492, Note_off_c, 0, 79, 100
2, 106496, Note_on_c, 0, 74, 110
2, 106620, Note_off_c, 0, 74, 100
2, 106624, Note_on_c, 0, 71, 110
2, 106748, Note_off_c, 0, 71, 100
2, 106752, Note_on_c, 0, 67, 110
2, 107132, Note_off_c, 0, 67, 100
2, 107136, Note_on_c, 0, 74, 110
2, 107260, Note_off_c, 0, 74, 100
2, 107264, Note_on_c, 0, 71, 110
2, 107388, Note_off_c, 0, 71, 100
2, 107392, Note_on_c, 0, 67, 110
2, 107516, Note_off_c, 0, 67, 100
2, 107520, Note_on_c, 0, 62, 110
2, 107900, Note_off_c, 0, 62, 100
2, 107904, Note_on_c, 0, 74, 110
2, 108028, Note_off_c, 0, 74, 100
2, 108032, Note_on_c, 0, 71, 110
2, 108156, Note_off_c, 0, 71, 100
2, 108160, Note_on_c, 0, 67, 110
2, 108284, Note_off_c, 0, 67, 100
2, 108288, Note_on_c, 0, 62, 110
2, 108668, Note_off_c, 0, 62, 100
2, 108672, Note_on_c, 0, 74, 110
2, 108796, Note_off_c, 0, 74, 100
2, 108800, Note_on_c, 0, 71, 110
2, 108924, Note_off_c, 0, 71, 100
2, 108928, Note_on_c, 0, 67, 110
2, 109052, Note_off_c, 0, 67, 100
2, 109056, Note_on_c, 0, 62, 110
2, 109436, Note_off_c, 0, 62, 100
2, 110016, Note_on_c, 0, 69, 80
2, 110204, Note_off_c, 0, 69, 100
2, 110208, Note_on_c, 0, 69, 80
2, 110396, Note_off_c, 0, 69, 100
2, 110400, Note_on_c, 0, 69, 80
2, 110588, Note_off_c, 0, 69, 100
2, 110592, Note_on_c, 0, 74, 80
2, 110972, Note_off_c, 0, 74, 100
2, 110976, Note_on_c, 0, 73, 80
2, 111356, Note_off_c, 0, 73, 100
2, 111360, Note_on_c, 0, 74, 80
2, 111740, Note_off_c, 0, 74, 100
2, 111744, Note_on_c, 0, 76, 80
2, 112124, Note_off_c, 0, 76, 100
2, 112128, Note_on_c, 0, 79, 80
2, 112316, Note_off_c, 0, 79, 100
2, 112320, Note_on_c, 0, 78, 80
2, 112508, Note_off_c, 0, 78, 100
2, 112512, Note_on_c, 0, 76, 80
2, 112892, Note_off_c, 0, 76, 100
2, 113088, Note_on_c, 0, 69, 80
2, 113276, Note_off_c, 0, 69, 100
2, 113280, Note_on_c, 0, 69, 80
2, 113468, Note_off_c, 0, 69, 100
2, 113472, Note_on_c, 0, 69, 80
2, 113660, Note_off_c, 0, 69, 100
2, 113664, Note_on_c, 0, 76, 80
2, 114044, Note_off_c, 0, 76, 100
2, 114048, Note_on_c, 0, 74, 80
2, 114428, Note_off_c, 0, 74, 100
2, 114432, Note_on_c, 0, 76, 80
2, 114432, Note_on_c, 0, 73, 80
2, 114812, Note_off_c, 0, 76, 100
2, 114812, Note_off_c, 0, 73, 100
2, 114816, Note_on_c, 0, 78, 80
2, 114816, Note_on_c, 0, 74, 80
2, 115196, Note_off_c, 0, 78, 100
2, 115196, Note_off_c, 0, 74, 100
2, 115200, Note_on_c, 0, 81, 80
2, 115200, Note_on_c, 0, 76, 80
2, 115388, Note_off_c, 0, 81, 100
2, 115388, Note_off_c, 0, 76, 100
2, 115392, Note_on_c, 0, 79, 80
2, 115580, Note_off_c, 0, 79, 100
2, 115584, Note_on_c, 0, 78, 80
2, 115584, Note_on_c, 0, 74, 80
2, 115964, Note_off_c, 0, 78, 100
2, 115964, Note_off_c, 0, 74, 100
2, 116160, Note_on_c, 0, 81, 80
2, 116348, Note_off_c, 0, 81, 100
2, 116352, Note_on_c, 0, 79, 80
2, 116540, Note_off_c, 0, 79, 100
2, 116544, Note_on_c, 0, 78, 80
2, 116732, Note_off_c, 0, 78, 100
2, 116736, Note_on_c, 0, 78, 80
2, 116924, Note_off_c, 0, 78, 100
2, 116928, Note_on_c, 0, 76, 80
2, 117116, Note_off_c, 0, 76, 100
2, 117120, Note_on_c, 0, 76, 80
2, 117308, Note_off_c, 0, 76, 100
2, 117312, Note_on_c, 0, 76, 80
2, 117500, Note_off_c, 0, 76, 100
2, 117504, Note_on_c, 0, 74, 80
2, 117692, Note_off_c, 0, 74, 100
2, 117696, Note_on_c, 0, 81, 80
2, 117884, Note_off_c, 0, 81, 100
2, 117888, Note_on_c, 0, 79, 80
2, 118076, Note_off_c, 0, 79, 100
2, 118080, Note_on_c, 0, 78, 80
2, 118268, Note_off_c, 0, 78, 100
2, 118272, Note_on_c, 0, 78, 80
2, 118460, Note_off_c, 0, 78, 100
2, 118464, Note_on_c, 0, 76, 80
2, 118652, Note_off_c, 0, 76, 100
2, 118656, Note_on_c, 0, 76, 80
2, 118844, Note_off_c, 0, 76, 100
2, 118848, Note_on_c, 0, 76, 80
2, 119036, Note_off_c, 0, 76, 100
2, 119040, Note_on_c, 0, 74, 80
2, 119228, Note_off_c, 0, 74, 100
2, 119232, Note_on_c, 0, 81, 80
2, 119420, Note_off_c, 0, 81, 100
2, 119424, Note_on_c, 0, 79, 80
2, 119612, Note_off_c, 0, 79, 100
2, 119616, Note_on_c, 0, 78, 80
2, 119804, Note_off_c, 0, 78, 100
2, 119808, Note_on_c, 0, 78, 80
2, 119996, Note_off_c, 0, 78, 100
2, 120000, Note_on_c, 0, 76, 80
2, 120188, Note_off_c, 0, 76, 100
2, 120384, Note_on_c, 0, 76, 80
2, 120572, Note_off_c, 0, 76, 100
2, 120576, Note_on_c, 0, 76, 80
2, 120764, Note_off_c, 0, 76, 100
2, 120768, Note_on_c, 0, 74, 80
2, 120956, Note_off_c, 0, 74, 100
2, 121152, Note_on_c, 0, 74, 80
2, 121340, Note_off_c, 0, 74, 100
2, 121344, Note_on_c, 0, 74, 80
2, 121532, Note_off_c, 0, 74, 100
2, 121536, Note_on_c, 0, 73, 80
2, 121724, Note_off_c, 0, 73, 100
2, 121728, Note_on_c, 0, 71, 80
2, 121916, Note_off_c, 0, 71, 100
2, 121920, Note_on_c, 0, 69, 80
2, 122108, Note_off_c, 0, 69, 100
2, 122112, Note_on_c, 0, 68, 80
2, 122300, Note_off_c, 0, 68, 100
2, 122304, Note_on_c, 0, 69, 80
2, 122492, Note_off_c, 0, 69, 100
2, 122496, Note_on_c, 0, 71, 80
2, 122684, Note_off_c, 0, 71, 100
2, 122688, Note_on_c, 0, 73, 80
2, 122876, Note_off_c, 0, 73, 100
2, 122880, Note_on_c, 0, 74, 80
2, 123260, Note_off_c, 0, 74, 100
2, 123264, Note_on_c, 0, 73, 80
2, 123644, Note_off_c, 0, 73, 100
2, 123648, Note_on_c, 0, 74, 80
2, 124028, Note_off_c, 0, 74, 100
2, 124032, Note_on_c, 0, 76, 80
2, 124412, Note_off_c, 0, 76, 100
2, 124416, Note_on_c, 0, 79, 80
2, 124416, Note_on_c, 0, 74, 80
2, 124604, Note_off_c, 0, 79, 100
2, 124604, Note_off_c, 0, 74, 100
2, 124608, Note_on_c, 0, 78, 80
2, 124796, Note_off_c, 0, 78, 100
2, 124800, Note_on_c, 0, 76, 80
2, 124800, Note_on_c, 0, 73, 80
2, 125180, Note_off_c, 0, 76, 100
2, 125180, Note_off_c, 0, 73, 100
2, 125376, Note_on_c, 0, 69, 80
2, 125564, Note_off_c, 0, 69, 100
2, 125568, Note_on_c, 0, 69, 80
2, 125756, Note_off_c, 0, 69, 100
2, 125760, Note_on_c, 0, 69, 80
2, 125948, Note_off_c, 0, 69, 100
2, 125952, Note_on_c, 0, 76, 80
2, 126332, Note_off_c, 0, 76, 100
2, 126336, Note_on_c, 0, 74, 80
2, 126716, Note_off_c, 0, 74, 100
2, 126720, Note_on_c, 0, 76, 80
2, 126720, Note_on_c, 0, 73, 80
2, 127100, Note_off_c, 0, 76, 100
2, 127100, Note_off_c, 0, 73, 100
2, 127104, Note_on_c, 0, 78, 80
2, 127104, Note_on_c, 0, 74, 80
2, 127484, Note_off_c, 0, 78, 100
2, 127484, Note_off_c, 0, 74, 100
2, 127488, Note_on_c, 0, 81, 80
2, 127488, Note_on_c, 0, 76, 80
2, 127676, Note_off_c, 0, 81, 100
2, 127676, Note_off_c, 0, 76, 100
2, 127680, Note_on_c, 0, 79, 80
2, 127868, Note_off_c, 0, 79, 100
2, 127872, Note_on_c, 0, 78, 80
2, 127872, Note_on_c, 0, 74, 80
2, 128252, Note_off_c, 0, 78, 100
2, 128252, Note_off_c, 0, 74, 100
2, 128448, Note_on_c, 0, 81, 80
2, 128636, Note_off_c, 0, 81, 100
2, 128640, Note_on_c, 0, 79, 80
2, 128828, Note_off_c, 0, 79, 100
2, 128832, Note_on_c, 0, 78, 80
2, 129020, Note_off_c, 0, 78, 100
2, 129024, Note_on_c, 0, 78, 80
2, 129212, Note_off_c, 0, 78, 100
2, 129216, Note_on_c, 0, 76, 80
2, 129404, Note_off_c, 0, 76, 100
2, 129408, Note_on_c, 0, 76, 80
2, 129596, Note_off_c, 0, 76, 100
2, 129600, Note_on_c, 0, 76, 80
2, 129788, Note_off_c, 0, 76, 100
2, 129792, Note_on_c, 0, 74, 80
2, 129980, Note_off_c, 0, 74, 100
2, 129984, Note_on_c, 0, 81, 80
2, 130172, Note_off_c, 0, 81, 100
2, 130176, Note_on_c, 0, 79, 80
2, 130364, Note_off_c, 0, 79, 100
2, 130368, Note_on_c, 0, 78, 80
2, 130556, Note_off_c, 0, 78, 100
2, 130560, Note_on_c, 0, 78, 80
2, 130748, Note_off_c, 0, 78, 100
2, 130752, Note_on_c, 0, 76, 80
2, 130940, Note_off_c, 0, 76, 100
2, 130944, Note_on_c, 0, 76, 80
2, 131132, Note_off_c, 0, 76, 100
2, 131136, Note_on_c, 0, 76, 80
2, 131324, Note_off_c, 0, 76, 100
2, 131328, Note_on_c, 0, 74, 80
2, 131516, Note_off_c, 0, 74, 100
2, 131520, Note_on_c, 0, 81, 80
2, 131708, Note_off_c, 0, 81, 100
2, 131712, Note_on_c, 0, 79, 80
2, 131900, Note_off_c, 0, 79, 100
2, 131904, Note_on_c, 0, 78, 80
2, 132092, Note_off_c, 0, 78, 100
2, 132096, Note_on_c, 0, 78, 80
2, 132284, Note_off_c, 0, 78, 100
2, 132288, Note_on_c, 0, 76, 80
2, 132476, Note_off_c, 0, 76, 100
2, 132480, Note_on_c, 0, 79, 80
2, 132668, Note_off_c, 0, 79, 100
2, 132672, Note_on_c, 0, 76, 80
2, 132860, Note_off_c, 0, 76, 100
2, 132864, Note_on_c, 0, 76, 80
2, 133052, Note_off_c, 0, 76, 100
2, 133056, Note_on_c, 0, 74, 80
2, 133244, Note_off_c, 0, 74, 100
2, 133248, Note_on_c, 0, 74, 80
2, 133436, Note_off_c, 0, 74, 100
2, 133440, Note_on_c, 0, 73, 80
2, 133628, Note_off_c, 0, 73, 100
2, 133632, Note_on_c, 0, 74, 110
2, 133660, Note_off_c, 0, 74, 100
2, 133664, Note_on_c, 0, 81, 110
2, 133756, Note_off_c, 0, 81, 100
2, 133760, Note_on_c, 0, 79, 110
2, 133884, Note_off_c, 0, 79, 100
2, 133888, Note_on_c, 0, 78, 110
2, 134012, Note_off_c, 0, 78, 100
2, 134016, Note_on_c, 0, 76, 110
2, 134140, Note_off_c, 0, 76, 100
2, 134144, Note_on_c, 0, 74, 110
2, 134268, Note_off_c, 0, 74, 100
2, 134272, Note_on_c, 0, 73, 110
2, 134396, Note_off_c, 0, 73, 100
2, 134400, Note_on_c, 0, 71, 110
2, 134524, Note_off_c, 0, 71, 100
2, 134528, Note_on_c, 0, 69, 110
2, 134652, Note_off_c, 0, 69, 100
2, 134656, Note_on_c, 0, 67, 110
2, 134780, Note_off_c, 0, 67, 100
2, 134784, Note_on_c, 0, 66, 110
2, 134908, Note_off_c, 0, 66, 100
2, 134912, Note_on_c, 0, 64, 110
2, 135036, Note_off_c, 0, 64, 100
2, 135040, Note_on_c, 0, 62, 110
2, 135164, Note_off_c, 0, 62, 100
2, 135168, Note_on_c, 0, 61, 110
2, 135548, Note_off_c, 0, 61, 100
2, 135552, Note_on_c, 0, 61, 110
2, 135932, Note_off_c, 0, 61, 100
2, 135936, Note_on_c, 0, 61, 110
2, 136316, Note_off_c, 0, 61, 100
2, 136320, Note_on_c, 0, 61, 110
2, 136700, Note_off_c, 0, 61, 100
2, 136704, Note_on_c, 0, 62, 110
2, 136828, Note_off_c, 0, 62, 100
2, 136832, Note_on_c, 0, 64, 110
2, 136956, Note_off_c, 0, 64, 100
2, 136960, Note_on_c, 0, 66, 110
2, 137084, Note_off_c, 0, 66, 100
2, 137088, Note_on_c, 0, 67, 110
2, 137212, Note_off_c, 0, 67, 100
2, 137216, Note_on_c, 0, 69, 110
2, 137340, Note_off_c, 0, 69, 100
2, 137344, Note_on_c, 0, 71, 110
2, 137468, Note_off_c, 0, 71, 100
2, 137472, Note_on_c, 0, 73, 110
2, 137596, Note_off_c, 0, 73, 100
2, 137600, Note_on_c, 0, 74, 110
2, 137724, Note_off_c, 0, 74, 100
2, 137728, Note_on_c, 0, 76, 110
2, 137852, Note_off_c, 0, 76, 100
2, 137856, Note_on_c, 0, 78, 110
2, 137980, Note_off_c, 0, 78, 100
2, 137984, Note_on_c, 0, 79, 110
2, 138108, Note_off_c, 0, 79, 100
2, 138112, Note_on_c, 0, 81, 110
2, 138236, Note_off_c, 0, 81, 100
2, 138240, Note_on_c, 0, 79, 110
2, 138620, Note_off_c, 0, 79, 100
2, 138624, Note_on_c, 0, 79, 110
2, 139004, Note_off_c, 0, 79, 100
2, 139008, Note_on_c, 0, 79, 110
2, 139388, Note_off_c, 0, 79, 100
2, 139392, Note_on_c, 0, 79, 110
2, 139772, Note_off_c, 0, 79, 100
2, 139776, Note_on_c, 0, 78, 110
2, 139804, Note_off_c, 0, 78, 100
2, 139808, Note_on_c, 0, 81, 110
2, 139900, Note_off_c, 0, 81, 100
2, 139904, Note_on_c, 0, 79, 110
2, 140028, Note_off_c, 0, 79, 100
2, 140032, Note_on_c, 0, 78, 110
2, 140156, Note_off_c, 0, 78, 100
2, 140160, Note_on_c, 0, 76, 110
2, 140284, Note_off_c, 0, 76, 100
2, 140288, Note_on_c, 0, 74, 110
2, 140412, Note_off_c, 0, 74, 100
2, 140416, Note_on_c, 0, 73, 110
2, 140540, Note_off_c, 0, 73, 100
2, 140544, Note_on_c, 0, 71, 110
2, 140668, Note_off_c, 0, 71, 100
2, 140672, Note_on_c, 0, 69, 110
2, 140796, Note_off_c, 0, 69, 100
2, 140800, Note_on_c, 0, 67, 110
2, 140924, Note_off_c, 0, 67, 100
2, 140928, Note_on_c, 0, 66, 110
2, 141052, Note_off_c, 0, 66, 100
2, 141056, Note_on_c, 0, 64, 110
2, 141180, Note_off_c, 0, 64, 100
2, 141184, Note_on_c, 0, 62, 110
2, 141308, Note_off_c, 0, 62, 100
2, 141312, Note_on_c, 0, 60, 110
2, 141692, Note_off_c, 0, 60, 100
2, 141696, Note_on_c, 0, 60, 110
2, 142076, Note_off_c, 0, 60, 100
2, 142080, Note_on_c, 0, 60, 110
2, 142460, Note_off_c, 0, 60, 100
2, 142464, Note_on_c, 0, 60, 110
2, 142844, Note_off_c, 0, 60, 100
2, 142848, Note_on_c, 0, 59, 110
2, 142972, Note_off_c, 0, 59, 100
2, 142976, Note_on_c, 0, 64, 110
2, 143100, Note_off_c, 0, 64, 100
2, 143104, Note_on_c, 0, 67, 110
2, 143228, Note_off_c, 0, 67, 100
2, 143232, Note_on_c, 0, 71, 110
2, 143356, Note_off_c, 0, 71, 100
2, 143360, Note_on_c, 0, 67, 110
2, 143484, Note_off_c, 0, 67, 100
2, 143488, Note_on_c, 0, 64, 110
2, 143612, Note_off_c, 0, 64, 100
2, 143616, Note_on_c, 0, 62, 110
2, 143996, Note_off_c, 0, 62, 100
2, 144000, Note_on_c, 0, 66, 110
2, 144188, Note_off_c, 0, 66, 100
2, 144192, Note_on_c, 0, 64, 110
2, 144380, Note_off_c, 0, 64, 100
2, 144384, Note_on_c, 0, 62, 110
2, 144508, Note_off_c, 0, 62, 100
2, 144512, Note_on_c, 0, 64, 110
2, 144636, Note_off_c, 0, 64, 100
2, 144640, Note_on_c, 0, 66, 110
2, 144764, Note_off_c, 0, 66, 100
2, 144768, Note_on_c, 0, 67, 110
2, 144892, Note_off_c, 0, 67, 100
2, 144896, Note_on_c, 0, 69, 110
2, 145020, Note_off_c, 0, 69, 100
2, 145024, Note_on_c, 0, 71, 110
2, 145148, Note_off_c, 0, 71, 100
2, 145152, Note_on_c, 0, 73, 110
2, 145276, Note_off_c, 0, 73, 100
2, 145280, Note_on_c, 0, 74, 110
2, 145404, Note_off_c, 0, 74, 100
2, 145408, Note_on_c, 0, 76, 110
2, 145532, Note_off_c, 0, 76, 100
2, 145536, Note_on_c, 0, 78, 110
2, 145660, Note_off_c, 0, 78, 100
2, 145664, Note_on_c, 0, 79, 110
2, 145788, Note_off_c, 0, 79, 100
2, 145792, Note_on_c, 0, 81, 110
2, 145916, Note_off_c, 0, 81, 100
2, 145920, Note_on_c, 0, 83, 110
2, 145920, Note_on_c, 0, 79, 110
2, 147452, Note_off_c, 0, 83, 100
2, 147452, Note_off_c, 0, 79, 100
2, 147456, Note_on_c, 0, 81, 110
2, 147456, Note_on_c, 0, 78, 110
2, 147836, Note_off_c, 0, 81, 100
2, 147836, Note_off_c, 0, 78, 100
2, 147840, Note_on_c, 0, 79, 110
2, 147840, Note_on_c, 0, 76, 110
2, 148220, Note_off_c, 0, 79, 100
2, 148220, Note_off_c, 0, 76, 100
2, 148224, Note_on_c, 0, 78, 110
2, 148224, Note_on_c, 0, 74, 110
2, 148604, Note_off_c, 0, 78, 100
2, 148604, Note_off_c, 0, 74, 100
2, 148608, Note_on_c, 0, 76, 110
2, 148608, Note_on_c, 0, 73, 110
2, 148988, Note_off_c, 0, 76, 100
2, 148988, Note_off_c, 0, 73, 100
2, 148992, Note_on_c, 0, 81, 110
2, 149116, Note_off_c, 0, 81, 100
2, 149120, Note_on_c, 0, 79, 110
2, 149244, Note_off_c, 0, 79, 100
2, 149248, Note_on_c, 0, 78, 110
2, 149372, Note_off_c, 0, 78, 100
2, 149376, Note_on_c, 0, 76, 110
2, 149500, Note_off_c, 0, 76, 100
2, 149504, Note_on_c, 0, 74, 110
2, 149628, Note_off_c, 0, 74, 100
2, 149632, Note_on_c, 0, 73, 110
2, 149756, Note_off_c, 0, 73, 100
2, 149760, Note_on_c, 0, 71, 110
2, 149884, Note_off_c, 0, 71, 100
2, 149888, Note_on_c, 0, 69, 110
2, 150012, Note_off_c, 0, 69, 100
2, 150016, Note_on_c, 0, 67, 110
2, 150140, Note_off_c, 0, 67, 100
2, 150144, Note_on_c, 0, 66, 110
2, 150268, Note_off_c, 0, 66, 100
2, 150272, Note_on_c, 0, 64, 110
2, 150396, Note_off_c, 0, 64, 100
2, 150400, Note_on_c, 0, 62, 110
2, 150524, Note_off_c, 0, 62, 100
2, 150528, Note_on_c, 0, 67, 110
2, 150528, Note_on_c, 0, 71, 110
2, 152060, Note_off_c, 0, 67, 100
2, 152060, Note_off_c, 0, 71, 100
2, 152064, Note_on_c, 0, 69, 110
2, 152064, Note_on_c, 0, 66, 110
2, 152444, Note_off_c, 0, 69, 100
2, 152444, Note_off_c, 0, 66, 100
2, 152448, Note_on_c, 0, 67, 110
2, 152448, Note_on_c, 0, 64, 110
2, 152828, Note_off_c, 0, 67, 100
2, 152828, Note_off_c, 0, 64, 100
2, 152832, Note_on_c, 0, 66, 110
2, 152832, Note_on_c, 0, 62, 110
2, 153212, Note_off_c, 0, 66, 100
2, 153212, Note_off_c, 0, 62, 100
2, 153216, Note_on_c, 0, 61, 110
2, 153216, Note_on_c, 0, 64, 110
2, 153596, Note_off_c, 0, 61, 100
2, 153596, Note_off_c, 0, 64, 100
2, 153600, Note_on_c, 0, 62, 110
2, 153980, Note_off_c, 0, 62, 100
2, 153984, Note_on_c, 0, 81, 110
2, 154108, Note_off_c, 0, 81, 100
2, 154112, Note_on_c, 0, 78, 110
2, 154236, Note_off_c, 0, 78, 100
2, 154240, Note_on_c, 0, 74, 110
2, 154364, Note_off_c, 0, 74, 100
2, 154368, Note_on_c, 0, 73, 110
2, 154748, Note_off_c, 0, 73, 100
2, 154752, Note_on_c, 0, 79, 110
2, 154876, Note_off_c, 0, 79, 100
2, 154880, Note_on_c, 0, 76, 110
2, 155004, Note_off_c, 0, 76, 100
2, 155008, Note_on_c, 0, 73, 110
2, 155132, Note_off_c, 0, 73, 100
2, 155136, Note_on_c, 0, 74, 110
2, 155516, Note_off_c, 0, 74, 100
2, 155520, Note_on_c, 0, 69, 110
2, 155644, Note_off_c, 0, 69, 100
2, 155648, Note_on_c, 0, 66, 110
2, 155772, Note_off_c, 0, 66, 100
2, 155776, Note_on_c, 0, 62, 110
2, 155900, Note_off_c, 0, 62, 100
2, 155904, Note_on_c, 0, 61, 110
2, 156284, Note_off_c, 0, 61, 100
2, 156288, Note_on_c, 0, 67, 110
2, 156412, Note_off_c, 0, 67, 100
2, 156416, Note_on_c, 0, 64, 110
2, 156540, Note_off_c, 0, 64, 100
2, 156544, Note_on_c, 0, 61, 110
2, 156668, Note_off_c, 0, 61, 100
2, 156672, Note_on_c, 0, 62, 110
2, 157052, Note_off_c, 0, 62, 100
2, 157056, Note_on_c, 0, 67, 110
2, 157180, Note_off_c, 0, 67, 100
2, 157184, Note_on_c, 0, 64, 110
2, 157308, Note_off_c, 0, 64, 100
2, 157312, Note_on_c, 0, 61, 110
2, 157436, Note_off_c, 0, 61, 100
2, 157440, Note_on_c, 0, 62, 110
2, 157820, Note_off_c, 0, 62, 100
2, 157824, Note_on_c, 0, 67, 110
2, 157948, Note_off_c, 0, 67, 100
2, 157952, Note_on_c, 0, 64, 110
2, 158076, Note_off_c, 0, 64, 100
2, 158080, Note_on_c, 0, 61, 110
2, 158204, Note_off_c, 0, 61, 100
2, 158208, Note_on_c, 0, 62, 110
2, 158588, Note_off_c, 0, 62, 100
2, 158592, Note_on_c, 0, 62, 110
2, 158592, Note_on_c, 0, 57, 110
2, 158592, Note_on_c, 0, 54, 110
2, 158972, Note_off_c, 0, 62, 100
2, 158972, Note_off_c, 0, 57, 100
2, 158972, Note_off_c, 0, 54, 100
2, 158976, Note_on_c, 0, 62, 110
2, 158976, Note_on_c, 0, 57, 110
2, 158976, Note_on_c, 0, 54, 110
2, 159356, Note_off_c, 0, 62, 100
2, 159356, Note_off_c, 0, 57, 100
2, 159356, Note_off_c, 0, 54, 100
2, 159744, Note_on_c, 0, 69, 110
2, 159744, Note_on_c, 0, 65, 110
2, 159744, Note_on_c, 0, 74, 110
2, 160508, Note_off_c, 0, 69, 100
2, 160508, Note_off_c, 0, 65, 100
2, 160636, Note_off_c, 0, 74, 100
2, 160640, Note_on_c, 0, 77, 80
2, 160764, Note_off_c, 0, 77, 100
2, 160768, Note_on_c, 0, 76, 80
2, 160892, Note_off_c, 0, 76, 100
2, 160896, Note_on_c, 0, 74, 80
2, 161020, Note_off_c, 0, 74, 100
2, 161024, Note_on_c, 0, 72, 80
2, 161148, Note_off_c, 0, 72, 100
2, 161152, Note_on_c, 0, 71, 80
2, 161276, Note_off_c, 0, 71, 100
2, 161280, Note_on_c, 0, 69, 80
2, 161660, Note_off_c, 0, 69, 100
2, 161664, Note_on_c, 0, 68, 80
2, 162044, Note_off_c, 0, 68, 100
2, 162048, Note_on_c, 0, 69, 80
2, 162428, Note_off_c, 0, 69, 100
2, 162432, Note_on_c, 0, 71, 80
2, 162812, Note_off_c, 0, 71, 100
2, 162816, Note_on_c, 0, 72, 80
2, 163196, Note_off_c, 0, 72, 100
2, 163200, Note_on_c, 0, 74, 80
2, 163580, Note_off_c, 0, 74, 100
2, 163584, Note_on_c, 0, 76, 91
2, 163964, Note_off_c, 0, 76, 100
2, 163968, Note_on_c, 0, 74, 100
2, 164348, Note_off_c, 0, 74, 100
2, 164352, Note_on_c, 0, 72, 110
2, 164444, Note_off_c, 0, 72, 100
2, 164448, Note_on_c, 0, 76, 110
2, 164540, Note_off_c, 0, 76, 100
2, 164544, Note_on_c, 0, 81, 110
2, 165244, Note_off_c, 0, 81, 100
2, 165248, Note_on_c, 0, 84, 80
2, 165372, Note_off_c, 0, 84, 100
2, 165376, Note_on_c, 0, 83, 80
2, 165500, Note_off_c, 0, 83, 100
2, 165504, Note_on_c, 0, 81, 80
2, 165628, Note_off_c, 0, 81, 100
2, 165632, Note_on_c, 0, 79, 80
2, 165756, Note_off_c, 0, 79, 100
2, 165760, Note_on_c, 0, 78, 80
2, 165884, Note_off_c, 0, 78, 100
2, 165888, Note_on_c, 0, 76, 80
2, 166268, Note_off_c, 0, 76, 100
2, 166272, Note_on_c, 0, 75, 80
2, 166652, Note_off_c, 0, 75, 100
2, 166656, Note_on_c, 0, 76, 80
2, 167036, Note_off_c, 0, 76, 100
2, 167040, Note_on_c, 0, 78, 80
2, 167420, Note_off_c, 0, 78, 100
2, 167424, Note_on_c, 0, 79, 80
2, 167996, Note_off_c, 0, 79, 100
2, 168000, Note_on_c, 0, 78, 80
2, 168092, Note_off_c, 0, 78, 100
2, 168096, Note_on_c, 0, 79, 80
2, 168188, Note_off_c, 0, 79, 100
2, 168192, Note_on_c, 0, 81, 80
2, 168380, Note_off_c, 0, 81, 100
2, 168384, Note_on_c, 0, 79, 80
2, 168572, Note_off_c, 0, 79, 100
2, 168576, Note_on_c, 0, 78, 80
2, 168764, Note_off_c, 0, 78, 100
2, 168768, Note_on_c, 0, 76, 80
2, 168956, Note_off_c, 0, 76, 100
2, 168960, Note_on_c, 0, 75, 80
2, 169340, Note_off_c, 0, 75, 100
2, 169536, Note_on_c, 0, 83, 80
2, 169536, Note_on_c, 0, 79, 80
2, 169724, Note_off_c, 0, 83, 100
2, 169724, Note_off_c, 0, 79, 100
2, 169728, Note_on_c, 0, 81, 80
2, 169728, Note_on_c, 0, 78, 80
2, 170108, Note_off_c, 0, 81, 100
2, 170108, Note_off_c, 0, 78, 100
2, 170304, Note_on_c, 0, 75, 80
2, 170304, Note_on_c, 0, 78, 80
2, 170492, Note_off_c, 0, 75, 100
2, 170492, Note_off_c, 0, 78, 100
2, 170496, Note_on_c, 0, 79, 80
2, 170496, Note_on_c, 0, 76, 80
2, 170876, Note_off_c, 0, 79, 100
2, 170876, Note_off_c, 0, 76, 100
2, 171072, Note_on_c, 0, 79, 80
2, 171072, Note_on_c, 0, 76, 80
2, 171260, Note_off_c, 0, 79, 100
2, 171260, Note_off_c, 0, 76, 100
2, 171264, Note_on_c, 0, 78, 80
2, 171264, Note_on_c, 0, 75, 80
2, 171644, Note_off_c, 0, 78, 100
2, 171644, Note_off_c, 0, 75, 100
2, 171648, Note_on_c, 0, 79, 80
2, 171648, Note_on_c, 0, 76, 80
2, 172028, Note_off_c, 0, 79, 100
2, 172028, Note_off_c, 0, 76, 100
2, 172032, Note_on_c, 0, 78, 80
2, 172032, Note_on_c, 0, 75, 80
2, 172412, Note_off_c, 0, 78, 100
2, 172412, Note_off_c, 0, 75, 100
2, 172608, Note_on_c, 0, 83, 80
2, 172608, Note_on_c, 0, 79, 80
2, 172796, Note_off_c, 0, 83, 100
2, 172796, Note_off_c, 0, 79, 100
2, 172800, Note_on_c, 0, 81, 80
2, 172800, Note_on_c, 0, 78, 80
2, 173180, Note_off_c, 0, 81, 100
2, 173180, Note_off_c, 0, 78, 100
2, 173376, Note_on_c, 0, 75, 80
2, 173376, Note_on_c, 0, 78, 80
2, 173564, Note_off_c, 0, 75, 100
2, 173564, Note_off_c, 0, 78, 100
2, 173568, Note_on_c, 0, 79, 80
2, 173568, Note_on_c, 0, 76, 80
2, 173948, Note_off_c, 0, 79, 100
2, 173948, Note_off_c, 0, 76, 100
2, 174144, Note_on_c, 0, 79, 80
2, 174144, Note_on_c, 0, 76, 80
2, 174332, Note_off_c, 0, 79, 100
2, 174332, Note_off_c, 0, 76, 100
2, 174336, Note_on_c, 0, 78, 80
2, 174336, Note_on_c, 0, 75, 80
2, 174716, Note_off_c, 0, 78, 100
2, 174716, Note_off_c, 0, 75, 100
2, 174720, Note_on_c, 0, 79, 80
2, 174720, Note_on_c, 0, 76, 80
2, 175100, Note_off_c, 0, 79, 100
2, 175100, Note_off_c, 0, 76, 100
2, 175104, Note_on_c, 0, 78, 80
2, 175104, Note_on_c, 0, 75, 80
2, 175484, Note_off_c, 0, 78, 100
2, 175484, Note_off_c, 0, 75, 100
2, 176640, Note_on_c, 0, 79, 80
2, 176640, Note_on_c, 0, 76, 80
2, 177020, Note_off_c, 0, 79, 100
2, 177020, Note_off_c, 0, 76, 100
2, 178176, Note_on_c, 0, 84, 80
2, 178364, Note_off_c, 0, 84, 100
2, 178368, Note_on_c, 0, 83, 81
2, 178556, Note_off_c, 0, 83, 100
2, 178560, Note_on_c, 0, 84, 83
2, 178748, Note_off_c, 0, 84, 100
2, 178752, Note_on_c, 0, 83, 85
2, 178940, Note_off_c, 0, 83, 100
2, 178944, Note_on_c, 0, 84, 87
2, 179132, Note_off_c, 0, 84, 100
2, 179136, Note_on_c, 0, 83, 89
2, 179324, Note_off_c, 0, 83, 100
2, 179328, Note_on_c, 0, 81, 91
2, 179516, Note_off_c, 0, 81, 100
2, 179520, Note_on_c, 0, 79, 93
2, 179708, Note_off_c, 0, 79, 100
2, 179712, Note_on_c, 0, 78, 95
2, 179900, Note_off_c, 0, 78, 100
2, 179904, Note_on_c, 0, 76, 97
2, 180092, Note_off_c, 0, 76, 100
2, 180096, Note_on_c, 0, 74, 99
2, 180284, Note_off_c, 0, 74, 100
2, 180288, Note_on_c, 0, 72, 101
2, 180476, Note_off_c, 0, 72, 100
2, 180480, Note_on_c, 0, 71, 103
2, 180668, Note_off_c, 0, 71, 100
2, 180672, Note_on_c, 0, 69, 105
2, 180860, Note_off_c, 0, 69, 100
2, 180864, Note_on_c, 0, 67, 107
2, 181052, Note_off_c, 0, 67, 100
2, 181056, Note_on_c, 0, 66, 109
2, 181244, Note_off_c, 0, 66, 100
2, 181248, Note_on_c, 0, 67, 110
2, 181248, Note_on_c, 0, 62, 110
2, 181248, Note_on_c, 0, 59, 110
2, 182012, Note_off_c, 0, 67, 100
2, 182012, Note_off_c, 0, 62, 100
2, 182012, Note_off_c, 0, 59, 100
2, 182016, Note_on_c, 0, 62, 110
2, 182140, Note_off_c, 0, 62, 100
2, 182144, Note_on_c, 0, 67, 110
2, 182268, Note_off_c, 0, 67, 100
2, 182272, Note_on_c, 0, 71, 110
2, 182396, Note_off_c, 0, 71, 100
2, 182400, Note_on_c, 0, 74, 110
2, 182524, Note_off_c, 0, 74, 100
2, 182528, Note_on_c, 0, 72, 110
2, 182652, Note_off_c, 0, 72, 100
2, 182656, Note_on_c, 0, 69, 110
2, 182780, Note_off_c, 0, 69, 100
2, 182784, Note_on_c, 0, 67, 110
2, 183164, Note_off_c, 0, 67, 100
2, 183168, Note_on_c, 0, 67, 80
2, 183548, Note_off_c, 0, 67, 100
2, 183552, Note_on_c, 0, 66, 80
2, 183932, Note_off_c, 0, 66, 100
2, 183936, Note_on_c, 0, 67, 80
2, 184316, Note_off_c, 0, 67, 100
2, 184320, Note_on_c, 0, 69, 80
2, 184892, Note_off_c, 0, 69, 100
2, 184896, Note_on_c, 0, 69, 80
2, 185084, Note_off_c, 0, 69, 100
2, 185088, Note_on_c, 0, 71, 80
2, 185660, Note_off_c, 0, 71, 100
2, 185664, Note_on_c, 0, 71, 80
2, 185852, Note_off_c, 0, 71, 100
2, 185856, Note_on_c, 0, 74, 80
2, 186236, Note_off_c, 0, 74, 100
2, 186240, Note_on_c, 0, 72, 80
2, 186288, Note_on_c, 0, 74, 80
2, 186312, Note_off_c, 0, 72, 100
2, 186336, Note_on_c, 0, 72, 80
2, 186364, Note_off_c, 0, 74, 100
2, 186384, Note_on_c, 0, 74, 80
2, 186416, Note_off_c, 0, 72, 100
2, 186432, Note_on_c, 0, 72, 80
2, 186456, Note_off_c, 0, 74, 100
2, 186480, Note_on_c, 0, 74, 80
2, 186504, Note_off_c, 0, 72, 100
2, 186528, Note_on_c, 0, 71, 80
2, 186560, Note_off_c, 0, 74, 100
2, 186576, Note_on_c, 0, 72, 80
2, 186608, Note_off_c, 0, 71, 100
2, 186620, Note_off_c, 0, 72, 100
2, 186624, Note_on_c, 0, 71, 80
2, 187004, Note_off_c, 0, 71, 100
2, 187392, Note_on_c, 0, 79, 110
2, 187392, Note_on_c, 0, 74, 110
2, 187392, Note_on_c, 0, 71, 110
2, 188156, Note_off_c, 0, 79, 100
2, 188156, Note_off_c, 0, 74, 100
2, 188156, Note_off_c, 0, 71, 100
2, 188160, Note_on_c, 0, 74, 110
2, 188284, Note_off_c, 0, 74, 100
2, 188288, Note_on_c, 0, 79, 110
2, 188412, Note_off_c, 0, 79, 100
2, 188416, Note_on_c, 0, 83, 110
2, 188540, Note_off_c, 0, 83, 100
2, 188544, Note_on_c, 0, 86, 110
2, 188668, Note_off_c, 0, 86, 100
2, 188672, Note_on_c, 0, 84, 110
2, 188796, Note_off_c, 0, 84, 100
2, 188800, Note_on_c, 0, 81, 110
2, 188924, Note_off_c, 0, 81, 100
2, 188928, Note_on_c, 0, 79, 110
2, 189308, Note_off_c, 0, 79, 100
2, 189312, Note_on_c, 0, 79, 80
2, 189692, Note_off_c, 0, 79, 100
2, 189696, Note_on_c, 0, 78, 80
2, 190076, Note_off_c, 0, 78, 100
2, 190080, Note_on_c, 0, 79, 80
2, 190460, Note_off_c, 0, 79, 100
2, 190464, Note_on_c, 0, 81, 80
2, 191036, Note_off_c, 0, 81, 100
2, 191040, Note_on_c, 0, 81, 80
2, 191228, Note_off_c, 0, 81, 100
2, 191232, Note_on_c, 0, 83, 80
2, 191804, Note_off_c, 0, 83, 100
2, 191808, Note_on_c, 0, 83, 80
2, 191996, Note_off_c, 0, 83, 100
2, 192000, Note_on_c, 0, 84, 80
2, 192188, Note_off_c, 0, 84, 100
2, 192192, Note_on_c, 0, 79, 80
2, 192380, Note_off_c, 0, 79, 100
2, 192384, Note_on_c, 0, 81, 80
2, 192572, Note_off_c, 0, 81, 100
2, 192576, Note_on_c, 0, 77, 80
2, 192764, Note_off_c, 0, 77, 100
2, 192768, Note_on_c, 0, 76, 80
2, 192956, Note_off_c, 0, 76, 100
2, 192960, Note_on_c, 0, 79, 80
2, 193148, Note_off_c, 0, 79, 100
2, 193152, Note_on_c, 0, 77, 80
2, 193340, Note_off_c, 0, 77, 100
2, 193344, Note_on_c, 0, 74, 80
2, 193532, Note_off_c, 0, 74, 100
2, 193536, Note_on_c, 0, 72, 80
2, 193564, Note_off_c, 0, 72, 100
2, 193568, Note_on_c, 0, 79, 80
2, 193660, Note_off_c, 0, 79, 100
2, 193664, Note_on_c, 0, 77, 80
2, 193788, Note_off_c, 0, 77, 100
2, 193792, Note_on_c, 0, 76, 80
2, 193916, Note_off_c, 0, 76, 100
2, 193920, Note_on_c, 0, 74, 80
2, 194044, Note_off_c, 0, 74, 100
2, 194048, Note_on_c, 0, 72, 80
2, 194172, Note_off_c, 0, 72, 100
2, 194176, Note_on_c, 0, 71, 80
2, 194300, Note_off_c, 0, 71, 100
2, 194304, Note_on_c, 0, 69, 80
2, 194428, Note_off_c, 0, 69, 100
2, 194432, Note_on_c, 0, 67, 80
2, 194556, Note_off_c, 0, 67, 100
2, 194560, Note_on_c, 0, 65, 80
2, 194684, Note_off_c, 0, 65, 100
2, 194688, Note_on_c, 0, 64, 80
2, 194812, Note_off_c, 0, 64, 100
2, 194816, Note_on_c, 0, 62, 80
2, 194940, Note_off_c, 0, 62, 100
2, 194944, Note_on_c, 0, 60, 80
2, 195068, Note_off_c, 0, 60, 100
2, 195072, Note_on_c, 0, 59, 80
2, 195452, Note_off_c, 0, 59, 100
2, 195456, Note_on_c, 0, 59, 80
2, 195836, Note_off_c, 0, 59, 100
2, 195840, Note_on_c, 0, 59, 80
2, 196220, Note_off_c, 0, 59, 100
2, 196224, Note_on_c, 0, 59, 80
2, 196604, Note_off_c, 0, 59, 100
2, 196608, Note_on_c, 0, 60, 80
2, 196732, Note_off_c, 0, 60, 100
2, 196736, Note_on_c, 0, 62, 80
2, 196860, Note_off_c, 0, 62, 100
2, 196864, Note_on_c, 0, 64, 80
2, 196988, Note_off_c, 0, 64, 100
2, 196992, Note_on_c, 0, 65, 80
2, 197116, Note_off_c, 0, 65, 100
2, 197120, Note_on_c, 0, 67, 80
2, 197244, Note_off_c, 0, 67, 100
2, 197248, Note_on_c, 0, 69, 80
2, 197372, Note_off_c, 0, 69, 100
2, 197376, Note_on_c, 0, 71, 80
2, 197500, Note_off_c, 0, 71, 100
2, 197504, Note_on_c, 0, 72, 80
2, 197628, Note_off_c, 0, 72, 100
2, 197632, Note_on_c, 0, 74, 80
2, 197756, Note_off_c, 0, 74, 100
2, 197760, Note_on_c, 0, 76, 80
2, 197884, Note_off_c, 0, 76, 100
2, 197888, Note_on_c, 0, 77, 80
2, 198012, Note_off_c, 0, 77, 100
2, 198016, Note_on_c, 0, 79, 80
2, 198140, Note_off_c, 0, 79, 100
2, 198144, Note_on_c, 0, 77, 80
2, 198524, Note_off_c, 0, 77, 100
2, 198528, Note_on_c, 0, 77, 80
2, 198908, Note_off_c, 0, 77, 100
2, 198912, Note_on_c, 0, 77, 80
2, 199292, Note_off_c, 0, 77, 100
2, 199296, Note_on_c, 0, 77, 80
2, 199676, Note_off_c, 0, 77, 100
2, 199680, Note_on_c, 0, 76, 80
2, 199804, Note_off_c, 0, 76, 100
2, 199808, Note_on_c, 0, 74, 80
2, 199932, Note_off_c, 0, 74, 100
2, 199936, Note_on_c, 0, 72, 81
2, 200060, Note_off_c, 0, 72, 100
2, 200064, Note_on_c, 0, 71, 82
2, 200188, Note_off_c, 0, 71, 100
2, 200192, Note_on_c, 0, 69, 83
2, 200316, Note_off_c, 0, 69, 100
2, 200320, Note_on_c, 0, 67, 84
2, 200444, Note_off_c, 0, 67, 100
2, 200448, Note_on_c, 0, 65, 85
2, 200572, Note_off_c, 0, 65, 100
2, 200576, Note_on_c, 0, 64, 86
2, 200700, Note_off_c, 0, 64, 100
2, 200704, Note_on_c, 0, 62, 87
2, 200828, Note_off_c, 0, 62, 100
2, 200832, Note_on_c, 0, 60, 87
2, 200956, Note_off_c, 0, 60, 100
2, 200960, Note_on_c, 0, 59, 88
2, 201084, Note_off_c, 0, 59, 100
2, 201088, Note_on_c, 0, 57, 89
2, 201212, Note_off_c, 0, 57, 100
2, 201216, Note_on_c, 0, 56, 90
2, 201596, Note_off_c, 0, 56, 100
2, 201600, Note_on_c, 0, 56, 93
2, 201980, Note_off_c, 0, 56, 100
2, 201984, Note_on_c, 0, 56, 95
2, 202364, Note_off_c, 0, 56, 100
2, 202368, Note_on_c, 0, 56, 98
2, 202748, Note_off_c, 0, 56, 100
2, 202752, Note_on_c, 0, 57, 101
2, 203132, Note_off_c, 0, 57, 100
2, 203136, Note_on_c, 0, 69, 103
2, 203900, Note_off_c, 0, 69, 100
2, 203904, Note_on_c, 0, 67, 109
2, 204284, Note_off_c, 0, 67, 100
2, 204288, Note_on_c, 0, 66, 110
2, 204668, Note_off_c, 0, 66, 100
2, 204672, Note_on_c, 0, 81, 110
2, 204796, Note_off_c, 0, 81, 100
2, 204800, Note_on_c, 0, 78, 110
2, 204924, Note_off_c, 0, 78, 100
2, 204928, Note_on_c, 0, 74, 110
2, 205052, Note_off_c, 0, 74, 100
2, 205056, Note_on_c, 0, 72, 110
2, 205436, Note_off_c, 0, 72, 100
2, 205440, Note_on_c, 0, 81, 110
2, 205564, Note_off_c, 0, 81, 100
2, 205568, Note_on_c, 0, 78, 110
2, 205692, Note_off_c, 0, 78, 100
2, 205696, Note_on_c, 0, 72, 110
2, 205820, Note_off_c, 0, 72, 100
2, 205824, Note_on_c, 0, 71, 110
2, 206204, Note_off_c, 0, 71, 100
2, 206208, Note_on_c, 0, 79, 110
2, 206332, Note_off_c, 0, 79, 100
2, 206336, Note_on_c, 0, 74, 110
2, 206460, Note_off_c, 0, 74, 100
2, 206464, Note_on_c, 0, 71, 110
2, 206588, Note_off_c, 0, 71, 100
2, 206592, Note_on_c, 0, 67, 110
2, 206972, Note_off_c, 0, 67, 100
2, 206976, Note_on_c, 0, 74, 110
2, 207100, Note_off_c, 0, 74, 100
2, 207104, Note_on_c, 0, 71, 110
2, 207228, Note_off_c, 0, 71, 100
2, 207232, Note_on_c, 0, 67, 110
2, 207356, Note_off_c, 0, 67, 100
2, 207360, Note_on_c, 0, 66, 110
2, 207740, Note_off_c, 0, 66, 100
2, 207744, Note_on_c, 0, 81, 110
2, 207868, Note_off_c, 0, 81, 100
2, 207872, Note_on_c, 0, 78, 110
2, 207996, Note_off_c, 0, 78, 100
2, 208000, Note_on_c, 0, 74, 110
2, 208124, Note_off_c, 0, 74, 100
2, 208128, Note_on_c, 0, 72, 110
2, 208508, Note_off_c, 0, 72, 100
2, 208512, Note_on_c, 0, 81, 110
2, 208636, Note_off_c, 0, 81, 100
2, 208640, Note_on_c, 0, 78, 110
2, 208764, Note_off_c, 0, 78, 100
2, 208768, Note_on_c, 0, 72, 110
2, 208892, Note_off_c, 0, 72, 100
2, 208896, Note_on_c, 0, 71, 110
2, 209276, Note_off_c, 0, 71, 100
2, 209280, Note_on_c, 0, 79, 110
2, 209404, Note_off_c, 0, 79, 100
2, 209408, Note_on_c, 0, 74, 110
2, 209532, Note_off_c, 0, 74, 100
2, 209536, Note_on_c, 0, 71, 110
2, 209660, Note_off_c, 0, 71, 100
2, 209664, Note_on_c, 0, 67, 110
2, 210044, Note_off_c, 0, 67, 100
2, 210048, Note_on_c, 0, 74, 110
2, 210172, Note_off_c, 0, 74, 100
2, 210176, Note_on_c, 0, 71, 110
2, 210300, Note_off_c, 0, 71, 100
2, 210304, Note_on_c, 0, 67, 110
2, 210428, Note_off_c, 0, 67, 100
2, 210432, Note_on_c, 0, 62, 110
2, 210812, Note_off_c, 0, 62, 100
2, 210816, Note_on_c, 0, 74, 110
2, 210940, Note_off_c, 0, 74, 100
2, 210944, Note_on_c, 0, 71, 110
2, 211068, Note_off_c, 0, 71, 100
2, 211072, Note_on_c, 0, 67, 110
2, 211196, Note_off_c, 0, 67, 100
2, 211200, Note_on_c, 0, 62, 110
2, 211580, Note_off_c, 0, 62, 100
2, 211584, Note_on_c, 0, 74, 110
2, 211708, Note_off_c, 0, 74, 100
2, 211712, Note_on_c, 0, 71, 110
2, 211836, Note_off_c, 0, 71, 100
2, 211840, Note_on_c, 0, 67, 110
2, 211964, Note_off_c, 0, 67, 100
2, 211968, Note_on_c, 0, 62, 110
2, 212348, Note_off_c, 0, 62, 100
2, 212928, Note_on_c, 0, 62, 80
2, 213116, Note_off_c, 0, 62, 100
2, 213120, Note_on_c, 0, 62, 80
2, 213308, Note_off_c, 0, 62, 100
2, 213312, Note_on_c, 0, 62, 80
2, 213500, Note_off_c, 0, 62, 100
2, 213504, Note_on_c, 0, 67, 80
2, 213884, Note_off_c, 0, 67, 100
2, 213888, Note_on_c, 0, 66, 80
2, 214268, Note_off_c, 0, 66, 100
2, 214272, Note_on_c, 0, 67, 80
2, 214652, Note_off_c, 0, 67, 100
2, 214656, Note_on_c, 0, 69, 80
2, 215036, Note_off_c, 0, 69, 100
2, 215040, Note_on_c, 0, 72, 80
2, 215228, Note_off_c, 0, 72, 100
2, 215232, Note_on_c, 0, 71, 80
2, 215420, Note_off_c, 0, 71, 100
2, 215424, Note_on_c, 0, 69, 80
2, 215804, Note_off_c, 0, 69, 100
2, 216000, Note_on_c, 0, 62, 80
2, 216188, Note_off_c, 0, 62, 100
2, 216192, Note_on_c, 0, 62, 80
2, 216380, Note_off_c, 0, 62, 100
2, 216384, Note_on_c, 0, 62, 80
2, 216572, Note_off_c, 0, 62, 100
2, 216576, Note_on_c, 0, 69, 80
2, 216956, Note_off_c, 0, 69, 100
2, 216960, Note_on_c, 0, 67, 80
2, 217340, Note_off_c, 0, 67, 100
2, 217344, Note_on_c, 0, 69, 80
2, 217344, Note_on_c, 0, 66, 80
2, 217724, Note_off_c, 0, 69, 100
2, 217724, Note_off_c, 0, 66, 100
2, 217728, Note_on_c, 0, 71, 80
2, 217728, Note_on_c, 0, 67, 80
2, 218108, Note_off_c, 0, 71, 100
2, 218108, Note_off_c, 0, 67, 100
2, 218112, Note_on_c, 0, 74, 80
2, 218112, Note_on_c, 0, 69, 80
2, 218300, Note_off_c, 0, 74, 100
2, 218300, Note_off_c, 0, 69, 100
2, 218304, Note_on_c, 0, 72, 80
2, 218492, Note_off_c, 0, 72, 100
2, 218496, Note_on_c, 0, 71, 80
2, 218496, Note_on_c, 0, 67, 80
2, 218876, Note_off_c, 0, 71, 100
2, 218876, Note_off_c, 0, 67, 100
2, 219072, Note_on_c, 0, 74, 80
2, 219260, Note_off_c, 0, 74, 100
2, 219264, Note_on_c, 0, 72, 80
2, 219452, Note_off_c, 0, 72, 100
2, 219456, Note_on_c, 0, 71, 80
2, 219644, Note_off_c, 0, 71, 100
2, 219648, Note_on_c, 0, 71, 80
2, 219836, Note_off_c, 0, 71, 100
2, 219840, Note_on_c, 0, 69, 80
2, 220028, Note_off_c, 0, 69, 100
2, 220032, Note_on_c, 0, 69, 80
2, 220220, Note_off_c, 0, 69, 100
2, 220224, Note_on_c, 0, 69, 80
2, 220412, Note_off_c, 0, 69, 100
2, 220416, Note_on_c, 0, 67, 80
2, 220604, Note_off_c, 0, 67, 100
2, 220608, Note_on_c, 0, 74, 80
2, 220796, Note_off_c, 0, 74, 100
2, 220800, Note_on_c, 0, 72, 80
2, 220988, Note_off_c, 0, 72, 100
2, 220992, Note_on_c, 0, 71, 80
2, 221180, Note_off_c, 0, 71, 100
2, 221184, Note_on_c, 0, 71, 80
2, 221372, Note_off_c, 0, 71, 100
2, 221376, Note_on_c, 0, 69, 80
2, 221564, Note_off_c, 0, 69, 100
2, 221568, Note_on_c, 0, 69, 80
2, 221756, Note_off_c, 0, 69, 100
2, 221760, Note_on_c, 0, 69, 80
2, 221948, Note_off_c, 0, 69, 100
2, 221952, Note_on_c, 0, 67, 80
2, 222140, Note_off_c, 0, 67, 100
2, 222144, Note_on_c, 0, 74, 80
2, 222332, Note_off_c, 0, 74, 100
2, 222336, Note_on_c, 0, 72, 80
2, 222524, Note_off_c, 0, 72, 100
2, 222528, Note_on_c, 0, 71, 80
2, 222716, Note_off_c, 0, 71, 100
2, 222720, Note_on_c, 0, 71, 80
2, 222908, Note_off_c, 0, 71, 100
2, 222912, Note_on_c, 0, 69, 80
2, 223100, Note_off_c, 0, 69, 100
2, 223296, Note_on_c, 0, 69, 80
2, 223484, Note_off_c, 0, 69, 100
2, 223488, Note_on_c, 0, 69, 80
2, 223676, Note_off_c, 0, 69, 100
2, 223680, Note_on_c, 0, 67, 80
2, 223868, Note_off_c, 0, 67, 100
2, 224064, Note_on_c, 0, 67, 80
2, 224252, Note_off_c, 0, 67, 100
2, 224256, Note_on_c, 0, 66, 80
2, 224444, Note_off_c, 0, 66, 100
2, 224448, Note_on_c, 0, 67, 80
2, 224636, Note_off_c, 0, 67, 100
2, 224640, Note_on_c, 0, 69, 80
2, 224828, Note_off_c, 0, 69, 100
2, 224832, Note_on_c, 0, 71, 80
2, 225020, Note_off_c, 0, 71, 100
2, 225024, Note_on_c, 0, 72, 80
2, 225212, Note_off_c, 0, 72, 100
2, 225216, Note_on_c, 0, 74, 80
2, 225404, Note_off_c, 0, 74, 100
2, 225408, Note_on_c, 0, 76, 80
2, 225596, Note_off_c, 0, 76, 100
2, 225600, Note_on_c, 0, 78, 80
2, 225788, Note_off_c, 0, 78, 100
2, 225792, Note_on_c, 0, 79, 80
2, 226172, Note_off_c, 0, 79, 100
2, 226176, Note_on_c, 0, 78, 80
2, 226556, Note_off_c, 0, 78, 100
2, 226560, Note_on_c, 0, 79, 80
2, 226940, Note_off_c, 0, 79, 100
2, 226944, Note_on_c, 0, 81, 80
2, 227324, Note_off_c, 0, 81, 100
2, 227328, Note_on_c, 0, 84, 80
2, 227516, Note_off_c, 0, 84, 100
2, 227520, Note_on_c, 0, 83, 80
2, 227708, Note_off_c, 0, 83, 100
2, 227712, Note_on_c, 0, 81, 80
2, 228092, Note_off_c, 0, 81, 100
2, 228288, Note_on_c, 0, 74, 80
2, 228476, Note_off_c, 0, 74, 100
2, 228480, Note_on_c, 0, 74, 80
2, 228668, Note_off_c, 0, 74, 100
2, 228672, Note_on_c, 0, 74, 80
2, 228860, Note_off_c, 0, 74, 100
2, 228864, Note_on_c, 0, 81, 80
2, 229244, Note_off_c, 0, 81, 100
2, 229248, Note_on_c, 0, 79, 80
2, 229628, Note_off_c, 0, 79, 100
2, 229632, Note_on_c, 0, 81, 80
2, 229632, Note_on_c, 0, 78, 80
2, 230012, Note_off_c, 0, 81, 100
2, 230012, Note_off_c, 0, 78, 100
2, 230016, Note_on_c, 0, 83, 80
2, 230016, Note_on_c, 0, 79, 80
2, 230396, Note_off_c, 0, 83, 100
2, 230396, Note_off_c, 0, 79, 100
2, 230400, Note_on_c, 0, 86, 80
2, 230400, Note_on_c, 0, 81, 80
2, 230588, Note_off_c, 0, 86, 100
2, 230588, Note_off_c, 0, 81, 100
2, 230592, Note_on_c, 0, 84, 80
2, 230780, Note_off_c, 0, 84, 100
2, 230784, Note_on_c, 0, 83, 80
2, 230784, Note_on_c, 0, 79, 80
2, 231164, Note_off_c, 0, 83, 100
2, 231164, Note_off_c, 0, 79, 100
2, 231360, Note_on_c, 0, 86, 80
2, 231548, Note_off_c, 0, 86, 100
2, 231552, Note_on_c, 0, 84, 80
2, 231740, Note_off_c, 0, 84, 100
2, 231744, Note_on_c, 0, 83, 80
2, 231932, Note_off_c, 0, 83, 100
2, 231936, Note_on_c, 0, 83, 80
2, 232124, Note_off_c, 0, 83, 100
2, 232128, Note_on_c, 0, 81, 80
2, 232316, Note_off_c, 0, 81, 100
2, 232320, Note_on_c, 0, 81, 80
2, 232508, Note_off_c, 0, 81, 100
2, 232512, Note_on_c, 0, 81, 80
2, 232700, Note_off_c, 0, 81, 100
2, 232704, Note_on_c, 0, 79, 80
2, 232892, Note_off_c, 0, 79, 100
2, 232896, Note_on_c, 0, 86, 80
2, 233084, Note_off_c, 0, 86, 100
2, 233088, Note_on_c, 0, 84, 80
2, 233276, Note_off_c, 0, 84, 100
2, 233280, Note_on_c, 0, 83, 80
2, 233468, Note_off_c, 0, 83, 100
2, 233472, Note_on_c, 0, 83, 80
2, 233660, Note_off_c, 0, 83, 100
2, 233664, Note_on_c, 0, 81, 80
2, 233852, Note_off_c, 0, 81, 100
2, 233856, Note_on_c, 0, 81, 80
2, 234044, Note_off_c, 0, 81, 100
2, 234048, Note_on_c, 0, 81, 80
2, 234236, Note_off_c, 0, 81, 100
2, 234240, Note_on_c, 0, 79, 80
2, 234428, Note_off_c, 0, 79, 100
2, 234432, Note_on_c, 0, 86, 80
2, 234620, Note_off_c, 0, 86, 100
2, 234624, Note_on_c, 0, 84, 80
2, 234812, Note_off_c, 0, 84, 100
2, 234816, Note_on_c, 0, 83, 80
2, 235004, Note_off_c, 0, 83, 100
2, 235008, Note_on_c, 0, 83, 80
2, 235196, Note_off_c, 0, 83, 100
2, 235200, Note_on_c, 0, 81, 80
2, 235388, Note_off_c, 0, 81, 100
2, 235392, Note_on_c, 0, 84, 80
2, 235580, Note_off_c, 0, 84, 100
2, 235584, Note_on_c, 0, 81, 80
2, 235772, Note_off_c, 0, 81, 100
2, 235776, Note_on_c, 0, 81, 80
2, 235964, Note_off_c, 0, 81, 100
2, 235968, Note_on_c, 0, 79, 80
2, 236156, Note_off_c, 0, 79, 100
2, 236160, Note_on_c, 0, 79, 80
2, 236348, Note_off_c, 0, 79, 100
2, 236352, Note_on_c, 0, 78, 80
2, 236540, Note_off_c, 0, 78, 100
2, 236544, Note_on_c, 0, 79, 110
2, 236572, Note_off_c, 0, 79, 100
2, 236576, Note_on_c, 0, 86, 110
2, 236668, Note_off_c, 0, 86, 100
2, 236672, Note_on_c, 0, 84, 110
2, 236796, Note_off_c, 0, 84, 100
2, 236800, Note_on_c, 0, 83, 110
2, 236924, Note_off_c, 0, 83, 100
2, 236928, Note_on_c, 0, 81, 110
2, 237052, Note_off_c, 0, 81, 100
2, 237056, Note_on_c, 0, 79, 110
2, 237180, Note_off_c, 0, 79, 100
2, 237184, Note_on_c, 0, 78, 110
2, 237308, Note_off_c, 0, 78, 100
2, 237312, Note_on_c, 0, 76, 110
2, 237436, Note_off_c, 0, 76, 100
2, 237440, Note_on_c, 0, 74, 110
2, 237564, Note_off_c, 0, 74, 100
2, 237568, Note_on_c, 0, 72, 110
2, 237692, Note_off_c, 0, 72, 100
2, 237696, Note_on_c, 0, 71, 110
2, 237820, Note_off_c, 0, 71, 100
2, 237824, Note_on_c, 0, 69, 110
2, 237948, Note_off_c, 0, 69, 100
2, 237952, Note_on_c, 0, 67, 110
2, 238076, Note_off_c, 0, 67, 100
2, 238080, Note_on_c, 0, 66, 110
2, 238460, Note_off_c, 0, 66, 100
2, 238464, Note_on_c, 0, 66, 110
2, 238844, Note_off_c, 0, 66, 100
2, 238848, Note_on_c, 0, 66, 110
2, 239228, Note_off_c, 0, 66, 100
2, 239232, Note_on_c, 0, 66, 110
2, 239612, Note_off_c, 0, 66, 100
2, 239616, Note_on_c, 0, 67, 110
2, 239740, Note_off_c, 0, 67, 100
2, 239744, Note_on_c, 0, 69, 110
2, 239868, Note_off_c, 0, 69, 100
2, 239872, Note_on_c, 0, 71, 110
2, 239996, Note_off_c, 0, 71, 100
2, 240000, Note_on_c, 0, 72, 110
2, 240124, Note_off_c, 0, 72, 100
2, 240128, Note_on_c, 0, 74, 110
2, 240252, Note_off_c, 0, 74, 100
2, 240256, Note_on_c, 0, 76, 110
2, 240380, Note_off_c, 0, 76, 100
2, 240384, Note_on_c, 0, 78, 110
2, 240508, Note_off_c, 0, 78, 100
2, 240512, Note_on_c, 0, 79, 110
2, 240636, Note_off_c, 0, 79, 100
2, 240640, Note_on_c, 0, 81, 110
2, 240764, Note_off_c, 0, 81, 100
2, 240768, Note_on_c, 0, 83, 110
2, 240892, Note_off_c, 0, 83, 100
2, 240896, Note_on_c, 0, 84, 110
2, 241020, Note_off_c, 0, 84, 100
2, 241024, Note_on_c, 0, 86, 110
2, 241148, Note_off_c, 0, 86, 100
2, 241152, Note_on_c, 0, 84, 110
2, 241532, Note_off_c, 0, 84, 100
2, 241536, Note_on_c, 0, 84, 110
2, 241916, Note_off_c, 0, 84, 100
2, 241920, Note_on_c, 0, 84, 110
2, 242300, Note_off_c, 0, 84, 100
2, 242304, Note_on_c, 0, 84, 110
2, 242684, Note_off_c, 0, 84, 100
2, 242688, Note_on_c, 0, 83, 110
2, 242716, Note_off_c, 0, 83, 100
2, 242720, Note_on_c, 0, 86, 110
2, 242812, Note_off_c, 0, 86, 100
2, 242816, Note_on_c, 0, 84, 110
2, 242940, Note_off_c, 0, 84, 100
2, 242944, Note_on_c, 0, 83, 110
2, 243068, Note_off_c, 0, 83, 100
2, 243072, Note_on_c, 0, 81, 110
2, 243196, Note_off_c, 0, 81, 100
2, 243200, Note_on_c, 0, 79, 110
2, 243324, Note_off_c, 0, 79, 100
2, 243328, Note_on_c, 0, 78, 110
2, 243452, Note_off_c, 0, 78, 100
2, 243456, Note_on_c, 0, 76, 110
2, 243580, Note_off_c, 0, 76, 100
2, 243584, Note_on_c, 0, 74, 110
2, 243708, Note_off_c, 0, 74, 100
2, 243712, Note_on_c, 0, 72, 110
2, 243836, Note_off_c, 0, 72, 100
2, 243840, Note_on_c, 0, 71, 110
2, 243964, Note_off_c, 0, 71, 100
2, 243968, Note_on_c, 0, 69, 110
2, 244092, Note_off_c, 0, 69, 100
2, 244096, Note_on_c, 0, 67, 110
2, 244220, Note_off_c, 0, 67, 100
2, 244224, Note_on_c, 0, 65, 110
2, 244604, Note_off_c, 0, 65, 100
2, 244608, Note_on_c, 0, 65, 110
2, 244988, Note_off_c, 0, 65, 100
2, 244992, Note_on_c, 0, 65, 110
2, 245372, Note_off_c, 0, 65, 100
2, 245376, Note_on_c, 0, 65, 110
2, 245756, Note_off_c, 0, 65, 100
2, 245760, Note_on_c, 0, 64, 110
2, 245884, Note_off_c, 0, 64, 100
2, 245888, Note_on_c, 0, 69, 110
2, 246012, Note_off_c, 0, 69, 100
2, 246016, Note_on_c, 0, 72, 110
2, 246140, Note_off_c, 0, 72, 100
2, 246144, Note_on_c, 0, 76, 110
2, 246268, Note_off_c, 0, 76, 100
2, 246272, Note_on_c, 0, 72, 110
2, 246396, Note_off_c, 0, 72, 100
2, 246400, Note_on_c, 0, 69, 110
2, 246524, Note_off_c, 0, 69, 100
2, 246528, Note_on_c, 0, 67, 110
2, 246908, Note_off_c, 0, 67, 100
2, 246912, Note_on_c, 0, 69, 110
2, 246960, Note_on_c, 0, 71, 110
2, 246996, Note_off_c, 0, 69, 100
2, 247008, Note_on_c, 0, 69, 110
2, 247044, Note_off_c, 0, 71, 100
2, 247056, Note_on_c, 0, 71, 110
2, 247084, Note_off_c, 0, 69, 100
2, 247104, Note_on_c, 0, 69, 110
2, 247132, Note_off_c, 0, 71, 100
2, 247152, Note_on_c, 0, 71, 110
2, 247176, Note_off_c, 0, 69, 100
2, 247200, Note_on_c, 0, 67, 110
2, 247228, Note_off_c, 0, 71, 100
2, 247248, Note_on_c, 0, 69, 110
2, 247288, Note_off_c, 0, 67, 100
2, 247292, Note_off_c, 0, 69, 100
2, 247296, Note_on_c, 0, 67, 110
2, 247420, Note_off_c, 0, 67, 100
2, 247424, Note_on_c, 0, 69, 110
2, 247548, Note_off_c, 0, 69, 100
2, 247552, Note_on_c, 0, 71, 110
2, 247676, Note_off_c, 0, 71, 100
2, 247680, Note_on_c, 0, 72, 110
2, 247804, Note_off_c, 0, 72, 100
2, 247808, Note_on_c, 0, 74, 110
2, 247932, Note_off_c, 0, 74, 100
2, 247936, Note_on_c, 0, 76, 110
2, 248060, Note_off_c, 0, 76, 100
2, 248064, Note_on_c, 0, 78, 110
2, 248188, Note_off_c, 0, 78, 100
2, 248192, Note_on_c, 0, 79, 110
2, 248316, Note_off_c, 0, 79, 100
2, 248320, Note_on_c, 0, 81, 110
2, 248444, Note_off_c, 0, 81, 100
2, 248448, Note_on_c, 0, 83, 110
2, 248572, Note_off_c, 0, 83, 100
2, 248576, Note_on_c, 0, 84, 110
2, 248700, Note_off_c, 0, 84, 100
2, 248704, Note_on_c, 0, 86, 110
2, 248828, Note_off_c, 0, 86, 100
2, 248832, Note_on_c, 0, 88, 110
2, 248832, Note_on_c, 0, 84, 110
2, 250364, Note_off_c, 0, 88, 100
2, 250364, Note_off_c, 0, 84, 100
2, 250368, Note_on_c, 0, 83, 110
2, 250368, Note_on_c, 0, 86, 110
2, 250748, Note_off_c, 0, 83, 100
2, 250748, Note_off_c, 0, 86, 100
2, 250752, Note_on_c, 0, 84, 110
2, 250752, Note_on_c, 0, 81, 110
2, 251132, Note_off_c, 0, 84, 100
2, 251132, Note_off_c, 0, 81, 100
2, 251136, Note_on_c, 0, 83, 110
2, 251136, Note_on_c, 0, 79, 110
2, 251516, Note_off_c, 0, 83, 100
2, 251516, Note_off_c, 0, 79, 100
2, 251520, Note_on_c, 0, 81, 110
2, 251520, Note_on_c, 0, 78, 110
2, 251900, Note_off_c, 0, 81, 100
2, 251900, Note_off_c, 0, 78, 100
2, 251904, Note_on_c, 0, 86, 110
2, 252028, Note_off_c, 0, 86, 100
2, 252032, Note_on_c, 0, 84, 110
2, 252156, Note_off_c, 0, 84, 100
2, 252160, Note_on_c, 0, 83, 110
2, 252284, Note_off_c, 0, 83, 100
2, 252288, Note_on_c, 0, 81, 110
2, 252412, Note_off_c, 0, 81, 100
2, 252416, Note_on_c, 0, 79, 110
2, 252540, Note_off_c, 0, 79, 100
2, 252544, Note_on_c, 0, 78, 110
2, 252668, Note_off_c, 0, 78, 100
2, 252672, Note_on_c, 0, 76, 110
2, 252796, Note_off_c, 0, 76, 100
2, 252800, Note_on_c, 0, 74, 110
2, 252924, Note_off_c, 0, 74, 100
2, 252928, Note_on_c, 0, 72, 110
2, 253052, Note_off_c, 0, 72, 100
2, 253056, Note_on_c, 0, 71, 110
2, 253180, Note_off_c, 0, 71, 100
2, 253184, Note_on_c, 0, 69, 110
2, 253308, Note_off_c, 0, 69, 100
2, 253312, Note_on_c, 0, 67, 110
2, 253436, Note_off_c, 0, 67, 100
2, 253440, Note_on_c, 0, 76, 110
2, 253440, Note_on_c, 0, 72, 110
2, 254972, Note_off_c, 0, 76, 100
2, 254972, Note_off_c, 0, 72, 100
2, 254976, Note_on_c, 0, 74, 80
2, 254976, Note_on_c, 0, 71, 80
2, 255356, Note_off_c, 0, 74, 100
2, 255356, Note_off_c, 0, 71, 100
2, 255360, Note_on_c, 0, 72, 80
2, 255360, Note_on_c, 0, 69, 80
2, 255740, Note_off_c, 0, 72, 100
2, 255740, Note_off_c, 0, 69, 100
2, 255744, Note_on_c, 0, 71, 80
2, 255744, Note_on_c, 0, 67, 80
2, 256124, Note_off_c, 0, 71, 100
2, 256124, Note_off_c, 0, 67, 100
2, 256128, Note_on_c, 0, 69, 80
2, 256128, Note_on_c, 0, 66, 80
2, 256508, Note_off_c, 0, 69, 100
2, 256508, Note_off_c, 0, 66, 100
2, 256512, Note_on_c, 0, 67, 110
2, 256892, Note_off_c, 0, 67, 100
2, 256896, Note_on_c, 0, 86, 110
2, 257020, Note_off_c, 0, 86, 100
2, 257024, Note_on_c, 0, 83, 110
2, 257148, Note_off_c, 0, 83, 100
2, 257152, Note_on_c, 0, 79, 110
2, 257276, Note_off_c, 0, 79, 100
2, 257280, Note_on_c, 0, 78, 110
2, 257660, Note_off_c, 0, 78, 100
2, 257664, Note_on_c, 0, 84, 110
2, 257788, Note_off_c, 0, 84, 100
2, 257792, Note_on_c, 0, 81, 110
2, 257916, Note_off_c, 0, 81, 100
2, 257920, Note_on_c, 0, 78, 110
2, 258044, Note_off_c, 0, 78, 100
2, 258048, Note_on_c, 0, 79, 110
2, 258428, Note_off_c, 0, 79, 100
2, 258432, Note_on_c, 0, 74, 110
2, 258556, Note_off_c, 0, 74, 100
2, 258560, Note_on_c, 0, 71, 110
2, 258684, Note_off_c, 0, 71, 100
2, 258688, Note_on_c, 0, 67, 110
2, 258812, Note_off_c, 0, 67, 100
2, 258816, Note_on_c, 0, 66, 110
2, 259196, Note_off_c, 0, 66, 100
2, 259200, Note_on_c, 0, 72, 110
2, 259324, Note_off_c, 0, 72, 100
2, 259328, Note_on_c, 0, 69, 110
2, 259452, Note_off_c, 0, 69, 100
2, 259456, Note_on_c, 0, 66, 110
2, 259580, Note_off_c, 0, 66, 100
2, 259584, Note_on_c, 0, 67, 110
2, 259964, Note_off_c, 0, 67, 100
2, 259968, Note_on_c, 0, 86, 110
2, 260092, Note_off_c, 0, 86, 100
2, 260096, Note_on_c, 0, 83, 110
2, 260220, Note_off_c, 0, 83, 100
2, 260224, Note_on_c, 0, 79, 110
2, 260348, Note_off_c, 0, 79, 100
2, 260352, Note_on_c, 0, 78, 110
2, 260732, Note_off_c, 0, 78, 100
2, 260736, Note_on_c, 0, 84, 110
2, 260860, Note_off_c, 0, 84, 100
2, 260864, Note_on_c, 0, 81, 110
2, 260988, Note_off_c, 0, 81, 100
2, 260992, Note_on_c, 0, 78, 110
2, 261116, Note_off_c, 0, 78, 100
2, 261120, Note_on_c, 0, 79, 110
2, 261500, Note_off_c, 0, 79, 100
2, 261504, Note_on_c, 0, 74, 110
2, 261628, Note_off_c, 0, 74, 100
2, 261632, Note_on_c, 0, 71, 110
2, 261756, Note_off_c, 0, 71, 100
2, 261760, Note_on_c, 0, 67, 110
2, 261884, Note_off_c, 0, 67, 100
2, 261888, Note_on_c, 0, 66, 110
2, 262268, Note_off_c, 0, 66, 100
2, 262272, Note_on_c, 0, 72, 110
2, 262396, Note_off_c, 0, 72, 100
2, 262400, Note_on_c, 0, 69, 110
2, 262524, Note_off_c, 0, 69, 100
2, 262528, Note_on_c, 0, 66, 110
2, 262652, Note_off_c, 0, 66, 100
2, 262656, Note_on_c, 0, 67, 110
2, 263036, Note_off_c, 0, 67, 100
2, 263040, Note_on_c, 0, 72, 110
2, 263164, Note_off_c, 0, 72, 100
2, 263168, Note_on_c, 0, 69, 110
2, 263292, Note_off_c, 0, 69, 100
2, 263296, Note_on_c, 0, 66, 110
2, 263420, Note_off_c, 0, 66, 100
2, 263424, Note_on_c, 0, 67, 110
2, 263804, Note_off_c, 0, 67, 100
2, 263808, Note_on_c, 0, 72, 110
2, 263932, Note_off_c, 0, 72, 100
2, 263936, Note_on_c, 0, 69, 110
2, 264060, Note_off_c, 0, 69, 100
2, 264064, Note_on_c, 0, 66, 110
2, 264188, Note_off_c, 0, 66, 100
2, 264192, Note_on_c, 0, 67, 110
2, 264572, Note_off_c, 0, 67, 100
2, 264960, Note_on_c, 0, 78, 110
2, 264960, Note_on_c, 0, 74, 110
2, 264960, Note_on_c, 0, 72, 110
2, 264960, Note_on_c, 0, 69, 110
2, 265340, Note_off_c, 0, 78, 100
2, 265340, Note_off_c, 0, 74, 100
2, 265340, Note_off_c, 0, 72, 100
2, 265340, Note_off_c, 0, 69, 100
2, 265728, Note_on_c, 0, 79, 110
2, 265728, Note_on_c, 0, 74, 110
2, 265728, Note_on_c, 0, 71, 110
2, 266492, Note_off_c, 0, 79, 100
2, 266492, Note_off_c, 0, 74, 100
2, 266492, Note_off_c, 0, 71, 100
2, 267264, Control_c, 0, 7, 0
2, 267648, Note_on_c, 0, 67, 1
2, 268028, Note_off_c, 0, 67, 100
2, 268028, End_track
3, 0, Start_track
3, 0, Title_t, "Left"
3, 0, Control_c, 1, 0, 0
3, 0, Program_c, 1, 0
3, 0, Control_c, 1, 7, 100
3, 0, Control_c, 1, 10, 56
3, 0, Control_c, 1, 91, 127
3, 0, Key_signature, 1, "major"
3, 0, Note_on_c, 1, 55, 100
3, 0, Note_on_c, 1, 43, 100
3, 764, Note_off_c, 1, 55, 100
3, 764, Note_off_c, 1, 43, 100
3, 1920, Note_on_c, 1, 59, 80
3, 2300, Note_off_c, 1, 59, 100
3, 2304, Note_on_c, 1, 57, 80
3, 2684, Note_off_c, 1, 57, 100
3, 2688, Note_on_c, 1, 55, 80
3, 3068, Note_off_c, 1, 55, 100
3, 3072, Note_on_c, 1, 54, 80
3, 3452, Note_off_c, 1, 54, 100
3, 3456, Note_on_c, 1, 50, 80
3, 3836, Note_off_c, 1, 50, 100
3, 3840, Note_on_c, 1, 55, 80
3, 4220, Note_off_c, 1, 55, 100
3, 4224, Note_on_c, 1, 53, 80
3, 4604, Note_off_c, 1, 53, 100
3, 4608, Note_on_c, 1, 52, 80
3, 4988, Note_off_c, 1, 52, 100
3, 4992, Note_on_c, 1, 54, 80
3, 5372, Note_off_c, 1, 54, 100
3, 5376, Note_on_c, 1, 55, 80
3, 5564, Note_off_c, 1, 55, 100
3, 5568, Note_on_c, 1, 55, 80
3, 5756, Note_off_c, 1, 55, 100
3, 5760, Note_on_c, 1, 59, 80
3, 5948, Note_off_c, 1, 59, 100
3, 5952, Note_on_c, 1, 62, 80
3, 6140, Note_off_c, 1, 62, 100
3, 6144, Note_on_c, 1, 67, 110
3, 6144, Note_on_c, 1, 55, 110
3, 6908, Note_off_c, 1, 67, 100
3, 6908, Note_off_c, 1, 55, 100
3, 8064, Note_on_c, 1, 71, 80
3, 8252, Note_off_c, 1, 71, 100
3, 8256, Note_on_c, 1, 74, 80
3, 8444, Note_off_c, 1, 74, 100
3, 8448, Note_on_c, 1, 69, 80
3, 8636, Note_off_c, 1, 69, 100
3, 8640, Note_on_c, 1, 74, 80
3, 8828, Note_off_c, 1, 74, 100
3, 8832, Note_on_c, 1, 67, 80
3, 9020, Note_off_c, 1, 67, 100
3, 9024, Note_on_c, 1, 74, 80
3, 9212, Note_off_c, 1, 74, 100
3, 9216, Note_on_c, 1, 66, 80
3, 9404, Note_off_c, 1, 66, 100
3, 9408, Note_on_c, 1, 74, 80
3, 9596, Note_off_c, 1, 74, 100
3, 9600, Note_on_c, 1, 62, 80
3, 9788, Note_off_c, 1, 62, 100
3, 9792, Note_on_c, 1, 74, 80
3, 9980, Note_off_c, 1, 74, 100
3, 9984, Note_on_c, 1, 67, 80
3, 10172, Note_off_c, 1, 67, 100
3, 10176, Note_on_c, 1, 74, 80
3, 10364, Note_off_c, 1, 74, 100
3, 10368, Note_on_c, 1, 65, 80
3, 10556, Note_off_c, 1, 65, 100
3, 10560, Note_on_c, 1, 74, 80
3, 10748, Note_off_c, 1, 74, 100
3, 10752, Note_on_c, 1, 64, 80
3, 10940, Note_off_c, 1, 64, 100
3, 10944, Note_on_c, 1, 67, 80
3, 11132, Note_off_c, 1, 67, 100
3, 11136, Note_on_c, 1, 66, 80
3, 11324, Note_off_c, 1, 66, 100
3, 11328, Note_on_c, 1, 69, 80
3, 11516, Note_off_c, 1, 69, 100
3, 11520, Note_on_c, 1, 67, 80
3, 11900, Note_off_c, 1, 67, 100
3, 12672, Note_on_c, 1, 69, 80
3, 12672, Note_on_c, 1, 64, 80
3, 12672, Note_on_c, 1, 60, 80
3, 13052, Note_off_c, 1, 69, 100
3, 13052, Note_off_c, 1, 64, 100
3, 13052, Note_off_c, 1, 60, 100
3, 14208, Note_on_c, 1, 67, 80
3, 14208, Note_on_c, 1, 62, 80
3, 14208, Note_on_c, 1, 59, 80
3, 14588, Note_off_c, 1, 67, 100
3, 14588, Note_off_c, 1, 62, 100
3, 14588, Note_off_c, 1, 59, 100
3, 15360, Note_on_c, 1, 60, 80
3, 15740, Note_off_c, 1, 60, 100
3, 16128, Note_on_c, 1, 62, 80
3, 16508, Note_off_c, 1, 62, 100
3, 16896, Note_on_c, 1, 55, 80
3, 17276, Note_off_c, 1, 55, 100
3, 18816, Note_on_c, 1, 57, 80
3, 18816, Note_on_c, 1, 52, 80
3, 18816, Note_on_c, 1, 48, 80
3, 19196, Note_off_c, 1, 57, 100
3, 19196, Note_off_c, 1, 52, 100
3, 19196, Note_off_c, 1, 48, 100
3, 20352, Note_on_c, 1, 57, 80
3, 20352, Note_on_c, 1, 52, 80
3, 20352, Note_on_c, 1, 49, 80
3, 20732, Note_off_c, 1, 57, 100
3, 20732, Note_off_c, 1, 52, 100
3, 20732, Note_off_c, 1, 49, 100
3, 21504, Control_c, 1, 64, 127
3, 21504, Note_on_c, 1, 50, 100
3, 21628, Note_off_c, 1, 50, 100
3, 21632, Note_on_c, 1, 54, 100
3, 21756, Note_off_c, 1, 54, 100
3, 21760, Note_on_c, 1, 57, 100
3, 21880, Control_c, 1, 64, 0
3, 21884, Note_off_c, 1, 57, 100
3, 21888, Control_c, 1, 64, 127
3, 21888, Note_on_c, 1, 50, 100
3, 22012, Note_off_c, 1, 50, 100
3, 22016, Note_on_c, 1, 54, 100
3, 22140, Note_off_c, 1, 54, 100
3, 22144, Note_on_c, 1, 57, 100
3, 22264, Control_c, 1, 64, 0
3, 22268, Note_off_c, 1, 57, 100
3, 22272, Control_c, 1, 64, 127
3, 22272, Note_on_c, 1, 50, 100
3, 22396, Note_off_c, 1, 50, 100
3, 22400, Note_on_c, 1, 54, 100
3, 22524, Note_off_c, 1, 54, 100
3, 22528, Note_on_c, 1, 57, 100
3, 22648, Control_c, 1, 64, 0
3, 22652, Note_off_c, 1, 57, 100
3, 22656, Control_c, 1, 64, 127
3, 22656, Note_on_c, 1, 50, 100
3, 22780, Note_off_c, 1, 50, 100
3, 22784, Note_on_c, 1, 54, 100
3, 22908, Note_off_c, 1, 54, 100
3, 22912, Note_on_c, 1, 57, 100
3, 23032, Control_c, 1, 64, 0
3, 23036, Note_off_c, 1, 57, 100
3, 23040, Control_c, 1, 64, 127
3, 23040, Note_on_c, 1, 50, 100
3, 23164, Note_off_c, 1, 50, 100
3, 23168, Note_on_c, 1, 55, 100
3, 23292, Note_off_c, 1, 55, 100
3, 23296, Note_on_c, 1, 59, 100
3, 23416, Control_c, 1, 64, 0
3, 23420, Note_off_c, 1, 59, 100
3, 23424, Control_c, 1, 64, 127
3, 23424, Note_on_c, 1, 50, 100
3, 23548, Note_off_c, 1, 50, 100
3, 23552, Note_on_c, 1, 55, 100
3, 23676, Note_off_c, 1, 55, 100
3, 23680, Note_on_c, 1, 59, 100
3, 23800, Control_c, 1, 64, 0
3, 23804, Note_off_c, 1, 59, 100
3, 23808, Control_c, 1, 64, 127
3, 23808, Note_on_c, 1, 50, 100
3, 23932, Note_off_c, 1, 50, 100
3, 23936, Note_on_c, 1, 55, 100
3, 24060, Note_off_c, 1, 55, 100
3, 24064, Note_on_c, 1, 59, 100
3, 24184, Control_c, 1, 64, 0
3, 24188, Note_off_c, 1, 59, 100
3, 24192, Control_c, 1, 64, 127
3, 24192, Note_on_c, 1, 50, 100
3, 24316, Note_off_c, 1, 50, 100
3, 24320, Note_on_c, 1, 55, 100
3, 24444, Note_off_c, 1, 55, 100
3, 24448, Note_on_c, 1, 59, 100
3, 24568, Control_c, 1, 64, 0
3, 24572, Note_off_c, 1, 59, 100
3, 24576, Control_c, 1, 64, 127
3, 24576, Note_on_c, 1, 50, 100
3, 24700, Note_off_c, 1, 50, 100
3, 24704, Note_on_c, 1, 54, 100
3, 24828, Note_off_c, 1, 54, 100
3, 24832, Note_on_c, 1, 57, 100
3, 24952, Control_c, 1, 64, 0
3, 24956, Note_off_c, 1, 57, 100
3, 24960, Control_c, 1, 64, 127
3, 24960, Note_on_c, 1, 50, 100
3, 25084, Note_off_c, 1, 50, 100
3, 25088, Note_on_c, 1, 54, 100
3, 25212, Note_off_c, 1, 54, 100
3, 25216, Note_on_c, 1, 57, 100
3, 25336, Control_c, 1, 64, 0
3, 25340, Note_off_c, 1, 57, 100
3, 25344, Control_c, 1, 64, 127
3, 25344, Note_on_c, 1, 50, 100
3, 25468, Note_off_c, 1, 50, 100
3, 25472, Note_on_c, 1, 54, 100
3, 25596, Note_off_c, 1, 54, 100
3, 25600, Note_on_c, 1, 57, 100
3, 25720, Control_c, 1, 64, 0
3, 25724, Note_off_c, 1, 57, 100
3, 25728, Control_c, 1, 64, 127
3, 25728, Note_on_c, 1, 50, 100
3, 25852, Note_off_c, 1, 50, 100
3, 25856, Note_on_c, 1, 54, 100
3, 25980, Note_off_c, 1, 54, 100
3, 25984, Note_on_c, 1, 57, 100
3, 26104, Control_c, 1, 64, 0
3, 26108, Note_off_c, 1, 57, 100
3, 26112, Control_c, 1, 64, 127
3, 26112, Note_on_c, 1, 50, 100
3, 26236, Note_off_c, 1, 50, 100
3, 26240, Note_on_c, 1, 55, 100
3, 26364, Note_off_c, 1, 55, 100
3, 26368, Note_on_c, 1, 59, 100
3, 26488, Control_c, 1, 64, 0
3, 26492, Note_off_c, 1, 59, 100
3, 26496, Control_c, 1, 64, 127
3, 26496, Note_on_c, 1, 50, 100
3, 26620, Note_off_c, 1, 50, 100
3, 26624, Note_on_c, 1, 55, 100
3, 26748, Note_off_c, 1, 55, 100
3, 26752, Note_on_c, 1, 59, 100
3, 26872, Control_c, 1, 64, 0
3, 26876, Note_off_c, 1, 59, 100
3, 26880, Control_c, 1, 64, 127
3, 26880, Note_on_c, 1, 50, 100
3, 27004, Note_off_c, 1, 50, 100
3, 27008, Note_on_c, 1, 55, 100
3, 27132, Note_off_c, 1, 55, 100
3, 27136, Note_on_c, 1, 59, 100
3, 27256, Control_c, 1, 64, 0
3, 27260, Note_off_c, 1, 59, 100
3, 27264, Control_c, 1, 64, 127
3, 27264, Note_on_c, 1, 50, 100
3, 27388, Note_off_c, 1, 50, 100
3, 27392, Note_on_c, 1, 55, 100
3, 27516, Note_off_c, 1, 55, 100
3, 27520, Note_on_c, 1, 59, 100
3, 27640, Control_c, 1, 64, 0
3, 27644, Note_off_c, 1, 59, 100
3, 27648, Control_c, 1, 64, 127
3, 27648, Note_on_c, 1, 50, 100
3, 27772, Note_off_c, 1, 50, 100
3, 27776, Note_on_c, 1, 54, 100
3, 27900, Note_off_c, 1, 54, 100
3, 27904, Note_on_c, 1, 57, 100
3, 28024, Control_c, 1, 64, 0
3, 28028, Note_off_c, 1, 57, 100
3, 28032, Control_c, 1, 64, 127
3, 28032, Note_on_c, 1, 50, 100
3, 28156, Note_off_c, 1, 50, 100
3, 28160, Note_on_c, 1, 55, 100
3, 28284, Note_off_c, 1, 55, 100
3, 28288, Note_on_c, 1, 59, 100
3, 28408, Control_c, 1, 64, 0
3, 28412, Note_off_c, 1, 59, 100
3, 28416, Control_c, 1, 64, 127
3, 28416, Note_on_c, 1, 50, 100
3, 28540, Note_off_c, 1, 50, 100
3, 28544, Note_on_c, 1, 54, 100
3, 28668, Note_off_c, 1, 54, 100
3, 28672, Note_on_c, 1, 57, 100
3, 28792, Control_c, 1, 64, 0
3, 28796, Note_off_c, 1, 57, 100
3, 28800, Control_c, 1, 64, 127
3, 28800, Note_on_c, 1, 50, 100
3, 28924, Note_off_c, 1, 50, 100
3, 28928, Note_on_c, 1, 55, 100
3, 29052, Note_off_c, 1, 55, 100
3, 29056, Note_on_c, 1, 59, 100
3, 29176, Control_c, 1, 64, 0
3, 29180, Note_off_c, 1, 59, 100
3, 29184, Note_on_c, 1, 54, 100
3, 29184, Note_on_c, 1, 50, 100
3, 29564, Note_off_c, 1, 54, 100
3, 29564, Note_off_c, 1, 50, 100
3, 30720, Note_on_c, 1, 66, 80
3, 30908, Note_off_c, 1, 66, 100
3, 30912, Note_on_c, 1, 69, 80
3, 31100, Note_off_c, 1, 69, 100
3, 31104, Note_on_c, 1, 67, 80
3, 31292, Note_off_c, 1, 67, 100
3, 31296, Note_on_c, 1, 69, 80
3, 31484, Note_off_c, 1, 69, 100
3, 31488, Note_on_c, 1, 66, 80
3, 31676, Note_off_c, 1, 66, 100
3, 31680, Note_on_c, 1, 69, 80
3, 31868, Note_off_c, 1, 69, 100
3, 31872, Note_on_c, 1, 61, 80
3, 32060, Note_off_c, 1, 61, 100
3, 32064, Note_on_c, 1, 69, 80
3, 32252, Note_off_c, 1, 69, 100
3, 32256, Note_on_c, 1, 62, 80
3, 32444, Note_off_c, 1, 62, 100
3, 32448, Note_on_c, 1, 69, 80
3, 32636, Note_off_c, 1, 69, 100
3, 32640, Note_on_c, 1, 61, 80
3, 32828, Note_off_c, 1, 61, 100
3, 32832, Note_on_c, 1, 69, 80
3, 33020, Note_off_c, 1, 69, 100
3, 33024, Note_on_c, 1, 57, 80
3, 33404, Note_off_c, 1, 57, 100
3, 33792, Note_on_c, 1, 67, 80
3, 33980, Note_off_c, 1, 67, 100
3, 33984, Note_on_c, 1, 69, 80
3, 34172, Note_off_c, 1, 69, 100
3, 34176, Note_on_c, 1, 66, 80
3, 34364, Note_off_c, 1, 66, 100
3, 34368, Note_on_c, 1, 69, 80
3, 34556, Note_off_c, 1, 69, 100
3, 34560, Note_on_c, 1, 64, 80
3, 34748, Note_off_c, 1, 64, 100
3, 34752, Note_on_c, 1, 69, 80
3, 34940, Note_off_c, 1, 69, 100
3, 34944, Note_on_c, 1, 62, 80
3, 35132, Note_off_c, 1, 62, 100
3, 35136, Note_on_c, 1, 69, 80
3, 35324, Note_off_c, 1, 69, 100
3, 35328, Note_on_c, 1, 61, 80
3, 35516, Note_off_c, 1, 61, 100
3, 35520, Note_on_c, 1, 69, 80
3, 35708, Note_off_c, 1, 69, 100
3, 35712, Note_on_c, 1, 62, 80
3, 35900, Note_off_c, 1, 62, 100
3, 35904, Note_on_c, 1, 69, 80
3, 36092, Note_off_c, 1, 69, 100
3, 36096, Note_on_c, 1, 62, 80
3, 36476, Note_off_c, 1, 62, 100
3, 36864, Note_on_c, 1, 71, 80
3, 36864, Note_on_c, 1, 67, 80
3, 37628, Note_off_c, 1, 71, 100
3, 37628, Note_off_c, 1, 67, 100
3, 37632, Note_on_c, 1, 69, 80
3, 37632, Note_on_c, 1, 66, 80
3, 38012, Note_off_c, 1, 69, 100
3, 38012, Note_off_c, 1, 66, 100
3, 38400, Note_on_c, 1, 71, 80
3, 38400, Note_on_c, 1, 67, 80
3, 39164, Note_off_c, 1, 71, 100
3, 39164, Note_off_c, 1, 67, 100
3, 39168, Note_on_c, 1, 69, 80
3, 39168, Note_on_c, 1, 66, 80
3, 39548, Note_off_c, 1, 69, 100
3, 39548, Note_off_c, 1, 66, 100
3, 40320, Note_on_c, 1, 67, 80
3, 40700, Note_off_c, 1, 67, 100
3, 41088, Note_on_c, 1, 68, 80
3, 41468, Note_off_c, 1, 68, 100
3, 41472, Note_on_c, 1, 69, 80
3, 41852, Note_off_c, 1, 69, 100
3, 41856, Note_on_c, 1, 57, 80
3, 42236, Note_off_c, 1, 57, 100
3, 43008, Note_on_c, 1, 66, 80
3, 43196, Note_off_c, 1, 66, 100
3, 43200, Note_on_c, 1, 69, 80
3, 43388, Note_off_c, 1, 69, 100
3, 43392, Note_on_c, 1, 67, 80
3, 43580, Note_off_c, 1, 67, 100
3, 43584, Note_on_c, 1, 69, 80
3, 43772, Note_off_c, 1, 69, 100
3, 43776, Note_on_c, 1, 66, 80
3, 43964, Note_off_c, 1, 66, 100
3, 43968, Note_on_c, 1, 69, 80
3, 44156, Note_off_c, 1, 69, 100
3, 44160, Note_on_c, 1, 61, 80
3, 44348, Note_off_c, 1, 61, 100
3, 44352, Note_on_c, 1, 69, 80
3, 44540, Note_off_c, 1, 69, 100
3, 44544, Note_on_c, 1, 62, 80
3, 44732, Note_off_c, 1, 62, 100
3, 44736, Note_on_c, 1, 69, 80
3, 44924, Note_off_c, 1, 69, 100
3, 44928, Note_on_c, 1, 57, 80
3, 45116, Note_off_c, 1, 57, 100
3, 45120, Note_on_c, 1, 69, 80
3, 45308, Note_off_c, 1, 69, 100
3, 45312, Note_on_c, 1, 57, 80
3, 45692, Note_off_c, 1, 57, 100
3, 46080, Note_on_c, 1, 67, 80
3, 46268, Note_off_c, 1, 67, 100
3, 46272, Note_on_c, 1, 69, 80
3, 46460, Note_off_c, 1, 69, 100
3, 46464, Note_on_c, 1, 66, 80
3, 46652, Note_off_c, 1, 66, 100
3, 46656, Note_on_c, 1, 69, 80
3, 46844, Note_off_c, 1, 69, 100
3, 46848, Note_on_c, 1, 64, 80
3, 47036, Note_off_c, 1, 64, 100
3, 47040, Note_on_c, 1, 69, 80
3, 47228, Note_off_c, 1, 69, 100
3, 47232, Note_on_c, 1, 62, 80
3, 47420, Note_off_c, 1, 62, 100
3, 47424, Note_on_c, 1, 69, 80
3, 47612, Note_off_c, 1, 69, 100
3, 47616, Note_on_c, 1, 61, 80
3, 47804, Note_off_c, 1, 61, 100
3, 47808, Note_on_c, 1, 69, 80
3, 47996, Note_off_c, 1, 69, 100
3, 48000, Note_on_c, 1, 62, 80
3, 48188, Note_off_c, 1, 62, 100
3, 48192, Note_on_c, 1, 69, 80
3, 48380, Note_off_c, 1, 69, 100
3, 48384, Note_on_c, 1, 62, 80
3, 48764, Note_off_c, 1, 62, 100
3, 49152, Note_on_c, 1, 71, 80
3, 49152, Note_on_c, 1, 67, 80
3, 49916, Note_off_c, 1, 71, 100
3, 49916, Note_off_c, 1, 67, 100
3, 49920, Note_on_c, 1, 69, 80
3, 49920, Note_on_c, 1, 66, 80
3, 50300, Note_off_c, 1, 69, 100
3, 50300, Note_off_c, 1, 66, 100
3, 50688, Note_on_c, 1, 71, 80
3, 50688, Note_on_c, 1, 67, 80
3, 51452, Note_off_c, 1, 71, 100
3, 51452, Note_off_c, 1, 67, 100
3, 51456, Note_on_c, 1, 69, 80
3, 51456, Note_on_c, 1, 66, 80
3, 51836, Note_off_c, 1, 69, 100
3, 51836, Note_off_c, 1, 66, 100
3, 52608, Note_on_c, 1, 55, 80
3, 52988, Note_off_c, 1, 55, 100
3, 52992, Note_on_c, 1, 57, 80
3, 53372, Note_off_c, 1, 57, 100
3, 53376, Note_on_c, 1, 45, 80
3, 53756, Note_off_c, 1, 45, 100
3, 53760, Note_on_c, 1, 50, 110
3, 54140, Note_off_c, 1, 50, 100
3, 55296, Note_on_c, 1, 52, 110
3, 55420, Note_off_c, 1, 52, 100
3, 55424, Note_on_c, 1, 55, 110
3, 55548, Note_off_c, 1, 55, 100
3, 55552, Note_on_c, 1, 57, 110
3, 55676, Note_off_c, 1, 57, 100
3, 55680, Note_on_c, 1, 52, 110
3, 55804, Note_off_c, 1, 52, 100
3, 55808, Note_on_c, 1, 55, 110
3, 55932, Note_off_c, 1, 55, 100
3, 55936, Note_on_c, 1, 57, 110
3, 56060, Note_off_c, 1, 57, 100
3, 56064, Note_on_c, 1, 52, 110
3, 56188, Note_off_c, 1, 52, 100
3, 56192, Note_on_c, 1, 55, 110
3, 56316, Note_off_c, 1, 55, 100
3, 56320, Note_on_c, 1, 57, 110
3, 56444, Note_off_c, 1, 57, 100
3, 56448, Note_on_c, 1, 52, 110
3, 56572, Note_off_c, 1, 52, 100
3, 56576, Note_on_c, 1, 55, 110
3, 56700, Note_off_c, 1, 55, 100
3, 56704, Note_on_c, 1, 57, 110
3, 56828, Note_off_c, 1, 57, 100
3, 56832, Note_on_c, 1, 54, 110
3, 56832, Note_on_c, 1, 50, 110
3, 57212, Note_off_c, 1, 54, 100
3, 57212, Note_off_c, 1, 50, 100
3, 58368, Control_c, 1, 64, 127
3, 58368, Note_on_c, 1, 49, 110
3, 58492, Note_off_c, 1, 49, 100
3, 58496, Note_on_c, 1, 52, 110
3, 58620, Note_off_c, 1, 52, 100
3, 58624, Note_on_c, 1, 57, 110
3, 58744, Control_c, 1, 64, 0
3, 58748, Note_off_c, 1, 57, 100
3, 58752, Control_c, 1, 64, 127
3, 58752, Note_on_c, 1, 49, 110
3, 58876, Note_off_c, 1, 49, 100
3, 58880, Note_on_c, 1, 52, 110
3, 59004, Note_off_c, 1, 52, 100
3, 59008, Note_on_c, 1, 57, 110
3, 59128, Control_c, 1, 64, 0
3, 59132, Note_off_c, 1, 57, 100
3, 59136, Control_c, 1, 64, 127
3, 59136, Note_on_c, 1, 49, 110
3, 59260, Note_off_c, 1, 49, 100
3, 59264, Note_on_c, 1, 52, 110
3, 59388, Note_off_c, 1, 52, 100
3, 59392, Note_on_c, 1, 57, 110
3, 59512, Control_c, 1, 64, 0
3, 59516, Note_off_c, 1, 57, 100
3, 59520, Control_c, 1, 64, 127
3, 59520, Note_on_c, 1, 49, 110
3, 59644, Note_off_c, 1, 49, 100
3, 59648, Note_on_c, 1, 52, 110
3, 59772, Note_off_c, 1, 52, 100
3, 59776, Note_on_c, 1, 57, 110
3, 59896, Control_c, 1, 64, 0
3, 59900, Note_off_c, 1, 57, 100
3, 59904, Note_on_c, 1, 50, 110
3, 60284, Note_off_c, 1, 50, 100
3, 61440, Control_c, 1, 64, 127
3, 61440, Note_on_c, 1, 50, 110
3, 61564, Note_off_c, 1, 50, 100
3, 61568, Note_on_c, 1, 54, 110
3, 61692, Note_off_c, 1, 54, 100
3, 61696, Note_on_c, 1, 57, 110
3, 61816, Control_c, 1, 64, 0
3, 61820, Note_off_c, 1, 57, 100
3, 61824, Control_c, 1, 64, 127
3, 61824, Note_on_c, 1, 50, 110
3, 61948, Note_off_c, 1, 50, 100
3, 61952, Note_on_c, 1, 54, 110
3, 62076, Note_off_c, 1, 54, 100
3, 62080, Note_on_c, 1, 57, 110
3, 62200, Control_c, 1, 64, 0
3, 62204, Note_off_c, 1, 57, 100
3, 62208, Control_c, 1, 64, 127
3, 62208, Note_on_c, 1, 50, 110
3, 62332, Note_off_c, 1, 50, 100
3, 62336, Note_on_c, 1, 54, 110
3, 62460, Note_off_c, 1, 54, 100
3, 62464, Note_on_c, 1, 57, 110
3, 62584, Control_c, 1, 64, 0
3, 62588, Note_off_c, 1, 57, 100
3, 62592, Control_c, 1, 64, 127
3, 62592, Note_on_c, 1, 50, 110
3, 62716, Note_off_c, 1, 50, 100
3, 62720, Note_on_c, 1, 54, 110
3, 62844, Note_off_c, 1, 54, 100
3, 62848, Note_on_c, 1, 57, 110
3, 62968, Control_c, 1, 64, 0
3, 62972, Note_off_c, 1, 57, 100
3, 62976, Note_on_c, 1, 43, 110
3, 63360, Note_on_c, 1, 55, 110
3, 63740, Note_off_c, 1, 43, 100
3, 63740, Note_off_c, 1, 55, 100
3, 63744, Note_on_c, 1, 45, 110
3, 63744, Note_on_c, 1, 54, 110
3, 64124, Note_off_c, 1, 45, 100
3, 64124, Note_off_c, 1, 54, 100
3, 64128, Note_on_c, 1, 45, 110
3, 64128, Note_on_c, 1, 55, 110
3, 64508, Note_off_c, 1, 45, 100
3, 64508, Note_off_c, 1, 55, 100
3, 64512, Note_on_c, 1, 54, 110
3, 64512, Note_on_c, 1, 50, 110
3, 64892, Note_off_c, 1, 54, 100
3, 64892, Note_off_c, 1, 50, 100
3, 66176, Note_on_c, 1, 55, 110
3, 66300, Note_off_c, 1, 55, 100
3, 66304, Note_on_c, 1, 57, 110
3, 66428, Note_off_c, 1, 57, 100
3, 66432, Note_on_c, 1, 59, 110
3, 66556, Note_off_c, 1, 59, 100
3, 66560, Note_on_c, 1, 61, 110
3, 66684, Note_off_c, 1, 61, 100
3, 66688, Note_on_c, 1, 62, 110
3, 66812, Note_off_c, 1, 62, 100
3, 66816, Note_on_c, 1, 64, 110
3, 66940, Note_off_c, 1, 64, 100
3, 66944, Note_on_c, 1, 66, 110
3, 67068, Note_off_c, 1, 66, 100
3, 67072, Note_on_c, 1, 67, 110
3, 67196, Note_off_c, 1, 67, 100
3, 67200, Note_on_c, 1, 69, 110
3, 67324, Note_off_c, 1, 69, 100
3, 67328, Note_on_c, 1, 71, 110
3, 67452, Note_off_c, 1, 71, 100
3, 67456, Note_on_c, 1, 73, 110
3, 67580, Note_off_c, 1, 73, 100
3, 67584, Note_on_c, 1, 74, 110
3, 67964, Note_off_c, 1, 74, 100
3, 67968, Note_on_c, 1, 67, 110
3, 68348, Note_off_c, 1, 67, 100
3, 68352, Note_on_c, 1, 69, 110
3, 68732, Note_off_c, 1, 69, 100
3, 68736, Note_on_c, 1, 57, 110
3, 69116, Note_off_c, 1, 57, 100
3, 70784, Note_on_c, 1, 43, 110
3, 70908, Note_off_c, 1, 43, 100
3, 70912, Note_on_c, 1, 45, 110
3, 71036, Note_off_c, 1, 45, 100
3, 71040, Note_on_c, 1, 47, 110
3, 71164, Note_off_c, 1, 47, 100
3, 71168, Note_on_c, 1, 49, 110
3, 71292, Note_off_c, 1, 49, 100
3, 71296, Note_on_c, 1, 50, 110
3, 71420, Note_off_c, 1, 50, 100
3, 71424, Note_on_c, 1, 52, 110
3, 71548, Note_off_c, 1, 52, 100
3, 71552, Note_on_c, 1, 54, 110
3, 71676, Note_off_c, 1, 54, 100
3, 71680, Note_on_c, 1, 55, 110
3, 71804, Note_off_c, 1, 55, 100
3, 71808, Note_on_c, 1, 57, 110
3, 71932, Note_off_c, 1, 57, 100
3, 71936, Note_on_c, 1, 59, 110
3, 72060, Note_off_c, 1, 59, 100
3, 72064, Note_on_c, 1, 61, 110
3, 72188, Note_off_c, 1, 61, 100
3, 72192, Note_on_c, 1, 62, 110
3, 72572, Note_off_c, 1, 62, 100
3, 72576, Note_on_c, 1, 55, 110
3, 72956, Note_off_c, 1, 55, 100
3, 72960, Note_on_c, 1, 57, 110
3, 73340, Note_off_c, 1, 57, 100
3, 73344, Note_on_c, 1, 45, 110
3, 73724, Note_off_c, 1, 45, 100
3, 73728, Control_c, 1, 64, 127
3, 73728, Note_on_c, 1, 50, 110
3, 73852, Note_off_c, 1, 50, 100
3, 73856, Note_on_c, 1, 54, 110
3, 73980, Note_off_c, 1, 54, 100
3, 73984, Note_on_c, 1, 57, 110
3, 74104, Control_c, 1, 64, 0
3, 74108, Note_off_c, 1, 57, 100
3, 74112, Control_c, 1, 64, 127
3, 74112, Note_on_c, 1, 50, 110
3, 74236, Note_off_c, 1, 50, 100
3, 74240, Note_on_c, 1, 54, 110
3, 74364, Note_off_c, 1, 54, 100
3, 74368, Note_on_c, 1, 57, 110
3, 74488, Control_c, 1, 64, 0
3, 74492, Note_off_c, 1, 57, 100
3, 74496, Control_c, 1, 64, 127
3, 74496, Note_on_c, 1, 50, 110
3, 74620, Note_off_c, 1, 50, 100
3, 74624, Note_on_c, 1, 55, 110
3, 74748, Note_off_c, 1, 55, 100
3, 74752, Note_on_c, 1, 57, 110
3, 74872, Control_c, 1, 64, 0
3, 74876, Note_off_c, 1, 57, 100
3, 74880, Control_c, 1, 64, 127
3, 74880, Note_on_c, 1, 50, 110
3, 75004, Note_off_c, 1, 50, 100
3, 75008, Note_on_c, 1, 55, 110
3, 75132, Note_off_c, 1, 55, 100
3, 75136, Note_on_c, 1, 57, 110
3, 75256, Control_c, 1, 64, 0
3, 75260, Note_off_c, 1, 57, 100
3, 75264, Control_c, 1, 64, 127
3, 75264, Note_on_c, 1, 50, 110
3, 75388, Note_off_c, 1, 50, 100
3, 75392, Note_on_c, 1, 54, 110
3, 75516, Note_off_c, 1, 54, 100
3, 75520, Note_on_c, 1, 57, 110
3, 75640, Control_c, 1, 64, 0
3, 75644, Note_off_c, 1, 57, 100
3, 75648, Control_c, 1, 64, 127
3, 75648, Note_on_c, 1, 50, 110
3, 75772, Note_off_c, 1, 50, 100
3, 75776, Note_on_c, 1, 54, 110
3, 75900, Note_off_c, 1, 54, 100
3, 75904, Note_on_c, 1, 57, 110
3, 76024, Control_c, 1, 64, 0
3, 76028, Note_off_c, 1, 57, 100
3, 76032, Control_c, 1, 64, 127
3, 76032, Note_on_c, 1, 50, 110
3, 76156, Note_off_c, 1, 50, 100
3, 76160, Note_on_c, 1, 55, 110
3, 76284, Note_off_c, 1, 55, 100
3, 76288, Note_on_c, 1, 57, 110
3, 76408, Control_c, 1, 64, 0
3, 76412, Note_off_c, 1, 57, 100
3, 76416, Control_c, 1, 64, 127
3, 76416, Note_on_c, 1, 50, 110
3, 76540, Note_off_c, 1, 50, 100
3, 76544, Note_on_c, 1, 55, 110
3, 76668, Note_off_c, 1, 55, 100
3, 76672, Note_on_c, 1, 57, 110
3, 76792, Control_c, 1, 64, 0
3, 76796, Note_off_c, 1, 57, 100
3, 76800, Control_c, 1, 64, 127
3, 76800, Note_on_c, 1, 50, 110
3, 76924, Note_off_c, 1, 50, 100
3, 76928, Note_on_c, 1, 54, 110
3, 77052, Note_off_c, 1, 54, 100
3, 77056, Note_on_c, 1, 57, 110
3, 77176, Control_c, 1, 64, 0
3, 77180, Note_off_c, 1, 57, 100
3, 77184, Control_c, 1, 64, 127
3, 77184, Note_on_c, 1, 50, 110
3, 77308, Note_off_c, 1, 50, 100
3, 77312, Note_on_c, 1, 55, 110
3, 77436, Note_off_c, 1, 55, 100
3, 77440, Note_on_c, 1, 57, 110
3, 77560, Control_c, 1, 64, 0
3, 77564, Note_off_c, 1, 57, 100
3, 77568, Control_c, 1, 64, 127
3, 77568, Note_on_c, 1, 50, 110
3, 77692, Note_off_c, 1, 50, 100
3, 77696, Note_on_c, 1, 54, 110
3, 77820, Note_off_c, 1, 54, 100
3, 77824, Note_on_c, 1, 57, 110
3, 77944, Control_c, 1, 64, 0
3, 77948, Note_off_c, 1, 57, 100
3, 77952, Control_c, 1, 64, 127
3, 77952, Note_on_c, 1, 50, 110
3, 78076, Note_off_c, 1, 50, 100
3, 78080, Note_on_c, 1, 55, 110
3, 78204, Note_off_c, 1, 55, 100
3, 78208, Note_on_c, 1, 57, 110
3, 78328, Control_c, 1, 64, 0
3, 78332, Note_off_c, 1, 57, 100
3, 78336, Note_on_c, 1, 54, 110
3, 78336, Note_on_c, 1, 50, 110
3, 78716, Note_off_c, 1, 54, 100
3, 78716, Note_off_c, 1, 50, 100
3, 78720, Note_on_c, 1, 50, 110
3, 78720, Note_on_c, 1, 38, 110
3, 79100, Note_off_c, 1, 50, 100
3, 79100, Note_off_c, 1, 38, 100
3, 79104, Note_on_c, 1, 50, 110
3, 79104, Note_on_c, 1, 38, 110
3, 79484, Note_off_c, 1, 50, 100
3, 79484, Note_off_c, 1, 38, 100
3, 79872, Note_on_c, 1, 55, 100
3, 79872, Note_on_c, 1, 43, 100
3, 80636, Note_off_c, 1, 55, 100
3, 80636, Note_off_c, 1, 43, 100
3, 81792, Note_on_c, 1, 59, 80
3, 82172, Note_off_c, 1, 59, 100
3, 82176, Note_on_c, 1, 57, 80
3, 82556, Note_off_c, 1, 57, 100
3, 82560, Note_on_c, 1, 55, 80
3, 82940, Note_off_c, 1, 55, 100
3, 82944, Note_on_c, 1, 54, 80
3, 83324, Note_off_c, 1, 54, 100
3, 83328, Note_on_c, 1, 50, 80
3, 83708, Note_off_c, 1, 50, 100
3, 83712, Note_on_c, 1, 55, 80
3, 84092, Note_off_c, 1, 55, 100
3, 84096, Note_on_c, 1, 53, 80
3, 84476, Note_off_c, 1, 53, 100
3, 84480, Note_on_c, 1, 52, 80
3, 84860, Note_off_c, 1, 52, 100
3, 84864, Note_on_c, 1, 54, 80
3, 85244, Note_off_c, 1, 54, 100
3, 85248, Note_on_c, 1, 55, 80
3, 85436, Note_off_c, 1, 55, 100
3, 85440, Note_on_c, 1, 55, 80
3, 85628, Note_off_c, 1, 55, 100
3, 85632, Note_on_c, 1, 59, 80
3, 85820, Note_off_c, 1, 59, 100
3, 85824, Note_on_c, 1, 62, 80
3, 86012, Note_off_c, 1, 62, 100
3, 86016, Note_on_c, 1, 67, 110
3, 86016, Note_on_c, 1, 55, 110
3, 86780, Note_off_c, 1, 67, 100
3, 86780, Note_off_c, 1, 55, 100
3, 87936, Note_on_c, 1, 71, 80
3, 88124, Note_off_c, 1, 71, 100
3, 88128, Note_on_c, 1, 74, 80
3, 88316, Note_off_c, 1, 74, 100
3, 88320, Note_on_c, 1, 69, 80
3, 88508, Note_off_c, 1, 69, 100
3, 88512, Note_on_c, 1, 74, 80
3, 88700, Note_off_c, 1, 74, 100
3, 88704, Note_on_c, 1, 67, 80
3, 88892, Note_off_c, 1, 67, 100
3, 88896, Note_on_c, 1, 74, 80
3, 89084, Note_off_c, 1, 74, 100
3, 89088, Note_on_c, 1, 66, 80
3, 89276, Note_off_c, 1, 66, 100
3, 89280, Note_on_c, 1, 74, 80
3, 89468, Note_off_c, 1, 74, 100
3, 89472, Note_on_c, 1, 62, 80
3, 89660, Note_off_c, 1, 62, 100
3, 89664, Note_on_c, 1, 74, 80
3, 89852, Note_off_c, 1, 74, 100
3, 89856, Note_on_c, 1, 67, 80
3, 90044, Note_off_c, 1, 67, 100
3, 90048, Note_on_c, 1, 74, 80
3, 90236, Note_off_c, 1, 74, 100
3, 90240, Note_on_c, 1, 65, 80
3, 90428, Note_off_c, 1, 65, 100
3, 90432, Note_on_c, 1, 74, 80
3, 90620, Note_off_c, 1, 74, 100
3, 90624, Note_on_c, 1, 64, 80
3, 90812, Note_off_c, 1, 64, 100
3, 90816, Note_on_c, 1, 67, 80
3, 91004, Note_off_c, 1, 67, 100
3, 91008, Note_on_c, 1, 66, 80
3, 91196, Note_off_c, 1, 66, 100
3, 91200, Note_on_c, 1, 69, 80
3, 91388, Note_off_c, 1, 69, 100
3, 91392, Note_on_c, 1, 67, 80
3, 91772, Note_off_c, 1, 67, 100
3, 92544, Note_on_c, 1, 69, 80
3, 92544, Note_on_c, 1, 64, 80
3, 92544, Note_on_c, 1, 60, 80
3, 92924, Note_off_c, 1, 69, 100
3, 92924, Note_off_c, 1, 64, 100
3, 92924, Note_off_c, 1, 60, 100
3, 94080, Note_on_c, 1, 67, 80
3, 94080, Note_on_c, 1, 62, 80
3, 94080, Note_on_c, 1, 59, 80
3, 94460, Note_off_c, 1, 67, 100
3, 94460, Note_off_c, 1, 62, 100
3, 94460, Note_off_c, 1, 59, 100
3, 95232, Note_on_c, 1, 60, 80
3, 95612, Note_off_c, 1, 60, 100
3, 96000, Note_on_c, 1, 62, 80
3, 96380, Note_off_c, 1, 62, 100
3, 96768, Note_on_c, 1, 55, 80
3, 97148, Note_off_c, 1, 55, 100
3, 98688, Note_on_c, 1, 57, 80
3, 98688, Note_on_c, 1, 52, 80
3, 98688, Note_on_c, 1, 48, 80
3, 99068, Note_off_c, 1, 57, 100
3, 99068, Note_off_c, 1, 52, 100
3, 99068, Note_off_c, 1, 48, 100
3, 100224, Note_on_c, 1, 57, 80
3, 100224, Note_on_c, 1, 52, 80
3, 100224, Note_on_c, 1, 49, 80
3, 100604, Note_off_c, 1, 57, 100
3, 100604, Note_off_c, 1, 52, 100
3, 100604, Note_off_c, 1, 49, 100
3, 101376, Control_c, 1, 64, 127
3, 101376, Note_on_c, 1, 50, 100
3, 101500, Note_off_c, 1, 50, 100
3, 101504, Note_on_c, 1, 54, 100
3, 101628, Note_off_c, 1, 54, 100
3, 101632, Note_on_c, 1, 57, 100
3, 101752, Control_c, 1, 64, 0
3, 101756, Note_off_c, 1, 57, 100
3, 101760, Control_c, 1, 64, 127
3, 101760, Note_on_c, 1, 50, 100
3, 101884, Note_off_c, 1, 50, 100
3, 101888, Note_on_c, 1, 54, 100
3, 102012, Note_off_c, 1, 54, 100
3, 102016, Note_on_c, 1, 57, 100
3, 102136, Control_c, 1, 64, 0
3, 102140, Note_off_c, 1, 57, 100
3, 102144, Control_c, 1, 64, 127
3, 102144, Note_on_c, 1, 50, 100
3, 102268, Note_off_c, 1, 50, 100
3, 102272, Note_on_c, 1, 54, 100
3, 102396, Note_off_c, 1, 54, 100
3, 102400, Note_on_c, 1, 57, 100
3, 102520, Control_c, 1, 64, 0
3, 102524, Note_off_c, 1, 57, 100
3, 102528, Control_c, 1, 64, 127
3, 102528, Note_on_c, 1, 50, 100
3, 102652, Note_off_c, 1, 50, 100
3, 102656, Note_on_c, 1, 54, 100
3, 102780, Note_off_c, 1, 54, 100
3, 102784, Note_on_c, 1, 57, 100
3, 102904, Control_c, 1, 64, 0
3, 102908, Note_off_c, 1, 57, 100
3, 102912, Control_c, 1, 64, 127
3, 102912, Note_on_c, 1, 50, 100
3, 103036, Note_off_c, 1, 50, 100
3, 103040, Note_on_c, 1, 55, 100
3, 103164, Note_off_c, 1, 55, 100
3, 103168, Note_on_c, 1, 59, 100
3, 103288, Control_c, 1, 64, 0
3, 103292, Note_off_c, 1, 59, 100
3, 103296, Control_c, 1, 64, 127
3, 103296, Note_on_c, 1, 50, 100
3, 103420, Note_off_c, 1, 50, 100
3, 103424, Note_on_c, 1, 55, 100
3, 103548, Note_off_c, 1, 55, 100
3, 103552, Note_on_c, 1, 59, 100
3, 103672, Control_c, 1, 64, 0
3, 103676, Note_off_c, 1, 59, 100
3, 103680, Control_c, 1, 64, 127
3, 103680, Note_on_c, 1, 50, 100
3, 103804, Note_off_c, 1, 50, 100
3, 103808, Note_on_c, 1, 55, 100
3, 103932, Note_off_c, 1, 55, 100
3, 103936, Note_on_c, 1, 59, 100
3, 104056, Control_c, 1, 64, 0
3, 104060, Note_off_c, 1, 59, 100
3, 104064, Control_c, 1, 64, 127
3, 104064, Note_on_c, 1, 50, 100
3, 104188, Note_off_c, 1, 50, 100
3, 104192, Note_on_c, 1, 55, 100
3, 104316, Note_off_c, 1, 55, 100
3, 104320, Note_on_c, 1, 59, 100
3, 104440, Control_c, 1, 64, 0
3, 104444, Note_off_c, 1, 59, 100
3, 104448, Control_c, 1, 64, 127
3, 104448, Note_on_c, 1, 50, 100
3, 104572, Note_off_c, 1, 50, 100
3, 104576, Note_on_c, 1, 54, 100
3, 104700, Note_off_c, 1, 54, 100
3, 104704, Note_on_c, 1, 57, 100
3, 104824, Control_c, 1, 64, 0
3, 104828, Note_off_c, 1, 57, 100
3, 104832, Control_c, 1, 64, 127
3, 104832, Note_on_c, 1, 50, 100
3, 104956, Note_off_c, 1, 50, 100
3, 104960, Note_on_c, 1, 54, 100
3, 105084, Note_off_c, 1, 54, 100
3, 105088, Note_on_c, 1, 57, 100
3, 105208, Control_c, 1, 64, 0
3, 105212, Note_off_c, 1, 57, 100
3, 105216, Control_c, 1, 64, 127
3, 105216, Note_on_c, 1, 50, 100
3, 105340, Note_off_c, 1, 50, 100
3, 105344, Note_on_c, 1, 54, 100
3, 105468, Note_off_c, 1, 54, 100
3, 105472, Note_on_c, 1, 57, 100
3, 105592, Control_c, 1, 64, 0
3, 105596, Note_off_c, 1, 57, 100
3, 105600, Control_c, 1, 64, 127
3, 105600, Note_on_c, 1, 50, 100
3, 105724, Note_off_c, 1, 50, 100
3, 105728, Note_on_c, 1, 54, 100
3, 105852, Note_off_c, 1, 54, 100
3, 105856, Note_on_c, 1, 57, 100
3, 105976, Control_c, 1, 64, 0
3, 105980, Note_off_c, 1, 57, 100
3, 105984, Control_c, 1, 64, 127
3, 105984, Note_on_c, 1, 50, 100
3, 106108, Note_off_c, 1, 50, 100
3, 106112, Note_on_c, 1, 55, 100
3, 106236, Note_off_c, 1, 55, 100
3, 106240, Note_on_c, 1, 59, 100
3, 106360, Control_c, 1, 64, 0
3, 106364, Note_off_c, 1, 59, 100
3, 106368, Control_c, 1, 64, 127
3, 106368, Note_on_c, 1, 50, 100
3, 106492, Note_off_c, 1, 50, 100
3, 106496, Note_on_c, 1, 55, 100
3, 106620, Note_off_c, 1, 55, 100
3, 106624, Note_on_c, 1, 59, 100
3, 106744, Control_c, 1, 64, 0
3, 106748, Note_off_c, 1, 59, 100
3, 106752, Control_c, 1, 64, 127
3, 106752, Note_on_c, 1, 50, 100
3, 106876, Note_off_c, 1, 50, 100
3, 106880, Note_on_c, 1, 55, 100
3, 107004, Note_off_c, 1, 55, 100
3, 107008, Note_on_c, 1, 59, 100
3, 107128, Control_c, 1, 64, 0
3, 107132, Note_off_c, 1, 59, 100
3, 107136, Control_c, 1, 64, 127
3, 107136, Note_on_c, 1, 50, 100
3, 107260, Note_off_c, 1, 50, 100
3, 107264, Note_on_c, 1, 55, 100
3, 107388, Note_off_c, 1, 55, 100
3, 107392, Note_on_c, 1, 59, 100
3, 107512, Control_c, 1, 64, 0
3, 107516, Note_off_c, 1, 59, 100
3, 107520, Control_c, 1, 64, 127
3, 107520, Note_on_c, 1, 50, 100
3, 107644, Note_off_c, 1, 50, 100
3, 107648, Note_on_c, 1, 54, 100
3, 107772, Note_off_c, 1, 54, 100
3, 107776, Note_on_c, 1, 57, 100
3, 107896, Control_c, 1, 64, 0
3, 107900, Note_off_c, 1, 57, 100
3, 107904, Control_c, 1, 64, 127
3, 107904, Note_on_c, 1, 50, 100
3, 108028, Note_off_c, 1, 50, 100
3, 108032, Note_on_c, 1, 55, 100
3, 108156, Note_off_c, 1, 55, 100
3, 108160, Note_on_c, 1, 59, 100
3, 108280, Control_c, 1, 64, 0
3, 108284, Note_off_c, 1, 59, 100
3, 108288, Control_c, 1, 64, 127
3, 108288, Note_on_c, 1, 50, 100
3, 108412, Note_off_c, 1, 50, 100
3, 108416, Note_on_c, 1, 54, 100
3, 108540, Note_off_c, 1, 54, 100
3, 108544, Note_on_c, 1, 57, 100
3, 108664, Control_c, 1, 64, 0
3, 108668, Note_off_c, 1, 57, 100
3, 108672, Control_c, 1, 64, 127
3, 108672, Note_on_c, 1, 50, 100
3, 108796, Note_off_c, 1, 50, 100
3, 108800, Note_on_c, 1, 55, 100
3, 108924, Note_off_c, 1, 55, 100
3, 108928, Note_on_c, 1, 59, 100
3, 109048, Control_c, 1, 64, 0
3, 109052, Note_off_c, 1, 59, 100
3, 109056, Note_on_c, 1, 54, 100
3, 109056, Note_on_c, 1, 50, 100
3, 109436, Note_off_c, 1, 54, 100
3, 109436, Note_off_c, 1, 50, 100
3, 110592, Note_on_c, 1, 66, 80
3, 110780, Note_off_c, 1, 66, 100
3, 110784, Note_on_c, 1, 69, 80
3, 110972, Note_off_c, 1, 69, 100
3, 110976, Note_on_c, 1, 67, 80
3, 111164, Note_off_c, 1, 67, 100
3, 111168, Note_on_c, 1, 69, 80
3, 111356, Note_off_c, 1, 69, 100
3, 111360, Note_on_c, 1, 66, 80
3, 111548, Note_off_c, 1, 66, 100
3, 111552, Note_on_c, 1, 69, 80
3, 111740, Note_off_c, 1, 69, 100
3, 111744, Note_on_c, 1, 61, 80
3, 111932, Note_off_c, 1, 61, 100
3, 111936, Note_on_c, 1, 69, 80
3, 112124, Note_off_c, 1, 69, 100
3, 112128, Note_on_c, 1, 62, 80
3, 112316, Note_off_c, 1, 62, 100
3, 112320, Note_on_c, 1, 69, 80
3, 112508, Note_off_c, 1, 69, 100
3, 112512, Note_on_c, 1, 61, 80
3, 112700, Note_off_c, 1, 61, 100
3, 112704, Note_on_c, 1, 69, 80
3, 112892, Note_off_c, 1, 69, 100
3, 112896, Note_on_c, 1, 57, 80
3, 113276, Note_off_c, 1, 57, 100
3, 113664, Note_on_c, 1, 67, 80
3, 113852, Note_off_c, 1, 67, 100
3, 113856, Note_on_c, 1, 69, 80
3, 114044, Note_off_c, 1, 69, 100
3, 114048, Note_on_c, 1, 66, 80
3, 114236, Note_off_c, 1, 66, 100
3, 114240, Note_on_c, 1, 69, 80
3, 114428, Note_off_c, 1, 69, 100
3, 114432, Note_on_c, 1, 64, 80
3, 114620, Note_off_c, 1, 64, 100
3, 114624, Note_on_c, 1, 69, 80
3, 114812, Note_off_c, 1, 69, 100
3, 114816, Note_on_c, 1, 62, 80
3, 115004, Note_off_c, 1, 62, 100
3, 115008, Note_on_c, 1, 69, 80
3, 115196, Note_off_c, 1, 69, 100
3, 115200, Note_on_c, 1, 61, 80
3, 115388, Note_off_c, 1, 61, 100
3, 115392, Note_on_c, 1, 69, 80
3, 115580, Note_off_c, 1, 69, 100
3, 115584, Note_on_c, 1, 62, 80
3, 115772, Note_off_c, 1, 62, 100
3, 115776, Note_on_c, 1, 69, 80
3, 115964, Note_off_c, 1, 69, 100
3, 115968, Note_on_c, 1, 62, 80
3, 116348, Note_off_c, 1, 62, 100
3, 116736, Note_on_c, 1, 71, 80
3, 116736, Note_on_c, 1, 67, 80
3, 117500, Note_off_c, 1, 71, 100
3, 117500, Note_off_c, 1, 67, 100
3, 117504, Note_on_c, 1, 69, 80
3, 117504, Note_on_c, 1, 66, 80
3, 117884, Note_off_c, 1, 69, 100
3, 117884, Note_off_c, 1, 66, 100
3, 118272, Note_on_c, 1, 71, 80
3, 118272, Note_on_c, 1, 67, 80
3, 119036, Note_off_c, 1, 71, 100
3, 119036, Note_off_c, 1, 67, 100
3, 119040, Note_on_c, 1, 69, 80
3, 119040, Note_on_c, 1, 66, 80
3, 119420, Note_off_c, 1, 69, 100
3, 119420, Note_off_c, 1, 66, 100
3, 120192, Note_on_c, 1, 67, 80
3, 120572, Note_off_c, 1, 67, 100
3, 120960, Note_on_c, 1, 68, 80
3, 121340, Note_off_c, 1, 68, 100
3, 121344, Note_on_c, 1, 69, 80
3, 121724, Note_off_c, 1, 69, 100
3, 121728, Note_on_c, 1, 57, 80
3, 122108, Note_off_c, 1, 57, 100
3, 122880, Note_on_c, 1, 66, 80
3, 123068, Note_off_c, 1, 66, 100
3, 123072, Note_on_c, 1, 69, 80
3, 123260, Note_off_c, 1, 69, 100
3, 123264, Note_on_c, 1, 67, 80
3, 123452, Note_off_c, 1, 67, 100
3, 123456, Note_on_c, 1, 69, 80
3, 123644, Note_off_c, 1, 69, 100
3, 123648, Note_on_c, 1, 66, 80
3, 123836, Note_off_c, 1, 66, 100
3, 123840, Note_on_c, 1, 69, 80
3, 124028, Note_off_c, 1, 69, 100
3, 124032, Note_on_c, 1, 61, 80
3, 124220, Note_off_c, 1, 61, 100
3, 124224, Note_on_c, 1, 69, 80
3, 124412, Note_off_c, 1, 69, 100
3, 124416, Note_on_c, 1, 62, 80
3, 124604, Note_off_c, 1, 62, 100
3, 124608, Note_on_c, 1, 69, 80
3, 124796, Note_off_c, 1, 69, 100
3, 124800, Note_on_c, 1, 57, 80
3, 124988, Note_off_c, 1, 57, 100
3, 124992, Note_on_c, 1, 69, 80
3, 125180, Note_off_c, 1, 69, 100
3, 125184, Note_on_c, 1, 57, 80
3, 125564, Note_off_c, 1, 57, 100
3, 125952, Note_on_c, 1, 67, 80
3, 126140, Note_off_c, 1, 67, 100
3, 126144, Note_on_c, 1, 69, 80
3, 126332, Note_off_c, 1, 69, 100
3, 126336, Note_on_c, 1, 66, 80
3, 126524, Note_off_c, 1, 66, 100
3, 126528, Note_on_c, 1, 69, 80
3, 126716, Note_off_c, 1, 69, 100
3, 126720, Note_on_c, 1, 64, 80
3, 126908, Note_off_c, 1, 64, 100
3, 126912, Note_on_c, 1, 69, 80
3, 127100, Note_off_c, 1, 69, 100
3, 127104, Note_on_c, 1, 62, 80
3, 127292, Note_off_c, 1, 62, 100
3, 127296, Note_on_c, 1, 69, 80
3, 127484, Note_off_c, 1, 69, 100
3, 127488, Note_on_c, 1, 61, 80
3, 127676, Note_off_c, 1, 61, 100
3, 127680, Note_on_c, 1, 69, 80
3, 127868, Note_off_c, 1, 69, 100
3, 127872, Note_on_c, 1, 62, 80
3, 128060, Note_off_c, 1, 62, 100
3, 128064, Note_on_c, 1, 69, 80
3, 128252, Note_off_c, 1, 69, 100
3, 128256, Note_on_c, 1, 62, 80
3, 128636, Note_off_c, 1, 62, 100
3, 129024, Note_on_c, 1, 71, 80
3, 129024, Note_on_c, 1, 67, 80
3, 129788, Note_off_c, 1, 71, 100
3, 129788, Note_off_c, 1, 67, 100
3, 129792, Note_on_c, 1, 69, 80
3, 129792, Note_on_c, 1, 66, 80
3, 130172, Note_off_c, 1, 69, 100
3, 130172, Note_off_c, 1, 66, 100
3, 130560, Note_on_c, 1, 71, 80
3, 130560, Note_on_c, 1, 67, 80
3, 131324, Note_off_c, 1, 71, 100
3, 131324, Note_off_c, 1, 67, 100
3, 131328, Note_on_c, 1, 69, 80
3, 131328, Note_on_c, 1, 66, 80
3, 131708, Note_off_c, 1, 69, 100
3, 131708, Note_off_c, 1, 66, 100
3, 132480, Note_on_c, 1, 55, 80
3, 132860, Note_off_c, 1, 55, 100
3, 132864, Note_on_c, 1, 57, 80
3, 133244, Note_off_c, 1, 57, 100
3, 133248, Note_on_c, 1, 45, 80
3, 133628, Note_off_c, 1, 45, 100
3, 133632, Note_on_c, 1, 50, 110
3, 134012, Note_off_c, 1, 50, 100
3, 135168, Note_on_c, 1, 52, 110
3, 135292, Note_off_c, 1, 52, 100
3, 135296, Note_on_c, 1, 55, 110
3, 135420, Note_off_c, 1, 55, 100
3, 135424, Note_on_c, 1, 57, 110
3, 135548, Note_off_c, 1, 57, 100
3, 135552, Note_on_c, 1, 52, 110
3, 135676, Note_off_c, 1, 52, 100
3, 135680, Note_on_c, 1, 55, 110
3, 135804, Note_off_c, 1, 55, 100
3, 135808, Note_on_c, 1, 57, 110
3, 135932, Note_off_c, 1, 57, 100
3, 135936, Note_on_c, 1, 52, 110
3, 136060, Note_off_c, 1, 52, 100
3, 136064, Note_on_c, 1, 55, 110
3, 136188, Note_off_c, 1, 55, 100
3, 136192, Note_on_c, 1, 57, 110
3, 136316, Note_off_c, 1, 57, 100
3, 136320, Note_on_c, 1, 52, 110
3, 136444, Note_off_c, 1, 52, 100
3, 136448, Note_on_c, 1, 55, 110
3, 136572, Note_off_c, 1, 55, 100
3, 136576, Note_on_c, 1, 57, 110
3, 136700, Note_off_c, 1, 57, 100
3, 136704, Note_on_c, 1, 54, 110
3, 136704, Note_on_c, 1, 50, 110
3, 137084, Note_off_c, 1, 54, 100
3, 137084, Note_off_c, 1, 50, 100
3, 138240, Control_c, 1, 64, 127
3, 138240, Note_on_c, 1, 49, 110
3, 138364, Note_off_c, 1, 49, 100
3, 138368, Note_on_c, 1, 52, 110
3, 138492, Note_off_c, 1, 52, 100
3, 138496, Note_on_c, 1, 57, 110
3, 138616, Control_c, 1, 64, 0
3, 138620, Note_off_c, 1, 57, 100
3, 138624, Control_c, 1, 64, 127
3, 138624, Note_on_c, 1, 49, 110
3, 138748, Note_off_c, 1, 49, 100
3, 138752, Note_on_c, 1, 52, 110
3, 138876, Note_off_c, 1, 52, 100
3, 138880, Note_on_c, 1, 57, 110
3, 139000, Control_c, 1, 64, 0
3, 139004, Note_off_c, 1, 57, 100
3, 139008, Control_c, 1, 64, 127
3, 139008, Note_on_c, 1, 49, 110
3, 139132, Note_off_c, 1, 49, 100
3, 139136, Note_on_c, 1, 52, 110
3, 139260, Note_off_c, 1, 52, 100
3, 139264, Note_on_c, 1, 57, 110
3, 139384, Control_c, 1, 64, 0
3, 139388, Note_off_c, 1, 57, 100
3, 139392, Control_c, 1, 64, 127
3, 139392, Note_on_c, 1, 49, 110
3, 139516, Note_off_c, 1, 49, 100
3, 139520, Note_on_c, 1, 52, 110
3, 139644, Note_off_c, 1, 52, 100
3, 139648, Note_on_c, 1, 57, 110
3, 139768, Control_c, 1, 64, 0
3, 139772, Note_off_c, 1, 57, 100
3, 139776, Note_on_c, 1, 50, 110
3, 140156, Note_off_c, 1, 50, 100
3, 141312, Control_c, 1, 64, 127
3, 141312, Note_on_c, 1, 50, 110
3, 141436, Note_off_c, 1, 50, 100
3, 141440, Note_on_c, 1, 54, 110
3, 141564, Note_off_c, 1, 54, 100
3, 141568, Note_on_c, 1, 57, 110
3, 141688, Control_c, 1, 64, 0
3, 141692, Note_off_c, 1, 57, 100
3, 141696, Control_c, 1, 64, 127
3, 141696, Note_on_c, 1, 50, 110
3, 141820, Note_off_c, 1, 50, 100
3, 141824, Note_on_c, 1, 54, 110
3, 141948, Note_off_c, 1, 54, 100
3, 141952, Note_on_c, 1, 57, 110
3, 142072, Control_c, 1, 64, 0
3, 142076, Note_off_c, 1, 57, 100
3, 142080, Control_c, 1, 64, 127
3, 142080, Note_on_c, 1, 50, 110
3, 142204, Note_off_c, 1, 50, 100
3, 142208, Note_on_c, 1, 54, 110
3, 142332, Note_off_c, 1, 54, 100
3, 142336, Note_on_c, 1, 57, 110
3, 142456, Control_c, 1, 64, 0
3, 142460, Note_off_c, 1, 57, 100
3, 142464, Control_c, 1, 64, 127
3, 142464, Note_on_c, 1, 50, 110
3, 142588, Note_off_c, 1, 50, 100
3, 142592, Note_on_c, 1, 54, 110
3, 142716, Note_off_c, 1, 54, 100
3, 142720, Note_on_c, 1, 57, 110
3, 142840, Control_c, 1, 64, 0
3, 142844, Note_off_c, 1, 57, 100
3, 142848, Note_on_c, 1, 43, 110
3, 143232, Note_on_c, 1, 55, 110
3, 143612, Note_off_c, 1, 43, 100
3, 143612, Note_off_c, 1, 55, 100
3, 143616, Note_on_c, 1, 45, 110
3, 143616, Note_on_c, 1, 54, 110
3, 143996, Note_off_c, 1, 45, 100
3, 143996, Note_off_c, 1, 54, 100
3, 144000, Note_on_c, 1, 45, 110
3, 144000, Note_on_c, 1, 55, 110
3, 144380, Note_off_c, 1, 45, 100
3, 144380, Note_off_c, 1, 55, 100
3, 144384, Note_on_c, 1, 54, 110
3, 144384, Note_on_c, 1, 50, 110
3, 144764, Note_off_c, 1, 54, 100
3, 144764, Note_off_c, 1, 50, 100
3, 146048, Note_on_c, 1, 55, 110
3, 146172, Note_off_c, 1, 55, 100
3, 146176, Note_on_c, 1, 57, 110
3, 146300, Note_off_c, 1, 57, 100
3, 146304, Note_on_c, 1, 59, 110
3, 146428, Note_off_c, 1, 59, 100
3, 146432, Note_on_c, 1, 61, 110
3, 146556, Note_off_c, 1, 61, 100
3, 146560, Note_on_c, 1, 62, 110
3, 146684, Note_off_c, 1, 62, 100
3, 146688, Note_on_c, 1, 64, 110
3, 146812, Note_off_c, 1, 64, 100
3, 146816, Note_on_c, 1, 66, 110
3, 146940, Note_off_c, 1, 66, 100
3, 146944, Note_on_c, 1, 67, 110
3, 147068, Note_off_c, 1, 67, 100
3, 147072, Note_on_c, 1, 69, 110
3, 147196, Note_off_c, 1, 69, 100
3, 147200, Note_on_c, 1, 71, 110
3, 147324, Note_off_c, 1, 71, 100
3, 147328, Note_on_c, 1, 73, 110
3, 147452, Note_off_c, 1, 73, 100
3, 147456, Note_on_c, 1, 74, 110
3, 147836, Note_off_c, 1, 74, 100
3, 147840, Note_on_c, 1, 67, 110
3, 148220, Note_off_c, 1, 67, 100
3, 148224, Note_on_c, 1, 69, 110
3, 148604, Note_off_c, 1, 69, 100
3, 148608, Note_on_c, 1, 57, 110
3, 148988, Note_off_c, 1, 57, 100
3, 150656, Note_on_c, 1, 43, 110
3, 150780, Note_off_c, 1, 43, 100
3, 150784, Note_on_c, 1, 45, 110
3, 150908, Note_off_c, 1, 45, 100
3, 150912, Note_on_c, 1, 47, 110
3, 151036, Note_off_c, 1, 47, 100
3, 151040, Note_on_c, 1, 49, 110
3, 151164, Note_off_c, 1, 49, 100
3, 151168, Note_on_c, 1, 50, 110
3, 151292, Note_off_c, 1, 50, 100
3, 151296, Note_on_c, 1, 52, 110
3, 151420, Note_off_c, 1, 52, 100
3, 151424, Note_on_c, 1, 54, 110
3, 151548, Note_off_c, 1, 54, 100
3, 151552, Note_on_c, 1, 55, 110
3, 151676, Note_off_c, 1, 55, 100
3, 151680, Note_on_c, 1, 57, 110
3, 151804, Note_off_c, 1, 57, 100
3, 151808, Note_on_c, 1, 59, 110
3, 151932, Note_off_c, 1, 59, 100
3, 151936, Note_on_c, 1, 61, 110
3, 152060, Note_off_c, 1, 61, 100
3, 152064, Note_on_c, 1, 62, 110
3, 152444, Note_off_c, 1, 62, 100
3, 152448, Note_on_c, 1, 55, 110
3, 152828, Note_off_c, 1, 55, 100
3, 152832, Note_on_c, 1, 57, 110
3, 153212, Note_off_c, 1, 57, 100
3, 153216, Note_on_c, 1, 45, 110
3, 153596, Note_off_c, 1, 45, 100
3, 153600, Control_c, 1, 64, 127
3, 153600, Note_on_c, 1, 50, 110
3, 153724, Note_off_c, 1, 50, 100
3, 153728, Note_on_c, 1, 54, 110
3, 153852, Note_off_c, 1, 54, 100
3, 153856, Note_on_c, 1, 57, 110
3, 153976, Control_c, 1, 64, 0
3, 153980, Note_off_c, 1, 57, 100
3, 153984, Control_c, 1, 64, 127
3, 153984, Note_on_c, 1, 50, 110
3, 154108, Note_off_c, 1, 50, 100
3, 154112, Note_on_c, 1, 54, 110
3, 154236, Note_off_c, 1, 54, 100
3, 154240, Note_on_c, 1, 57, 110
3, 154360, Control_c, 1, 64, 0
3, 154364, Note_off_c, 1, 57, 100
3, 154368, Control_c, 1, 64, 127
3, 154368, Note_on_c, 1, 50, 110
3, 154492, Note_off_c, 1, 50, 100
3, 154496, Note_on_c, 1, 55, 110
3, 154620, Note_off_c, 1, 55, 100
3, 154624, Note_on_c, 1, 57, 110
3, 154744, Control_c, 1, 64, 0
3, 154748, Note_off_c, 1, 57, 100
3, 154752, Control_c, 1, 64, 127
3, 154752, Note_on_c, 1, 50, 110
3, 154876, Note_off_c, 1, 50, 100
3, 154880, Note_on_c, 1, 55, 110
3, 155004, Note_off_c, 1, 55, 100
3, 155008, Note_on_c, 1, 57, 110
3, 155128, Control_c, 1, 64, 0
3, 155132, Note_off_c, 1, 57, 100
3, 155136, Control_c, 1, 64, 127
3, 155136, Note_on_c, 1, 50, 110
3, 155260, Note_off_c, 1, 50, 100
3, 155264, Note_on_c, 1, 54, 110
3, 155388, Note_off_c, 1, 54, 100
3, 155392, Note_on_c, 1, 57, 110
3, 155512, Control_c, 1, 64, 0
3, 155516, Note_off_c, 1, 57, 100
3, 155520, Control_c, 1, 64, 127
3, 155520, Note_on_c, 1, 50, 110
3, 155644, Note_off_c, 1, 50, 100
3, 155648, Note_on_c, 1, 54, 110
3, 155772, Note_off_c, 1, 54, 100
3, 155776, Note_on_c, 1, 57, 110
3, 155896, Control_c, 1, 64, 0
3, 155900, Note_off_c, 1, 57, 100
3, 155904, Control_c, 1, 64, 127
3, 155904, Note_on_c, 1, 50, 110
3, 156028, Note_off_c, 1, 50, 100
3, 156032, Note_on_c, 1, 55, 110
3, 156156, Note_off_c, 1, 55, 100
3, 156160, Note_on_c, 1, 57, 110
3, 156280, Control_c, 1, 64, 0
3, 156284, Note_off_c, 1, 57, 100
3, 156288, Control_c, 1, 64, 127
3, 156288, Note_on_c, 1, 50, 110
3, 156412, Note_off_c, 1, 50, 100
3, 156416, Note_on_c, 1, 55, 110
3, 156540, Note_off_c, 1, 55, 100
3, 156544, Note_on_c, 1, 57, 110
3, 156664, Control_c, 1, 64, 0
3, 156668, Note_off_c, 1, 57, 100
3, 156672, Control_c, 1, 64, 127
3, 156672, Note_on_c, 1, 50, 110
3, 156796, Note_off_c, 1, 50, 100
3, 156800, Note_on_c, 1, 54, 110
3, 156924, Note_off_c, 1, 54, 100
3, 156928, Note_on_c, 1, 57, 110
3, 157048, Control_c, 1, 64, 0
3, 157052, Note_off_c, 1, 57, 100
3, 157056, Control_c, 1, 64, 127
3, 157056, Note_on_c, 1, 50, 110
3, 157180, Note_off_c, 1, 50, 100
3, 157184, Note_on_c, 1, 55, 110
3, 157308, Note_off_c, 1, 55, 100
3, 157312, Note_on_c, 1, 57, 110
3, 157432, Control_c, 1, 64, 0
3, 157436, Note_off_c, 1, 57, 100
3, 157440, Control_c, 1, 64, 127
3, 157440, Note_on_c, 1, 50, 110
3, 157564, Note_off_c, 1, 50, 100
3, 157568, Note_on_c, 1, 54, 110
3, 157692, Note_off_c, 1, 54, 100
3, 157696, Note_on_c, 1, 57, 110
3, 157816, Control_c, 1, 64, 0
3, 157820, Note_off_c, 1, 57, 100
3, 157824, Control_c, 1, 64, 127
3, 157824, Note_on_c, 1, 50, 110
3, 157948, Note_off_c, 1, 50, 100
3, 157952, Note_on_c, 1, 55, 110
3, 158076, Note_off_c, 1, 55, 100
3, 158080, Note_on_c, 1, 57, 110
3, 158200, Control_c, 1, 64, 0
3, 158204, Note_off_c, 1, 57, 100
3, 158208, Note_on_c, 1, 54, 110
3, 158208, Note_on_c, 1, 50, 110
3, 158588, Note_off_c, 1, 54, 100
3, 158588, Note_off_c, 1, 50, 100
3, 158592, Note_on_c, 1, 50, 110
3, 158592, Note_on_c, 1, 38, 110
3, 158972, Note_off_c, 1, 50, 100
3, 158972, Note_off_c, 1, 38, 100
3, 158976, Note_on_c, 1, 50, 110
3, 158976, Note_on_c, 1, 38, 110
3, 159356, Note_off_c, 1, 50, 100
3, 159356, Note_off_c, 1, 38, 100
3, 159744, Note_on_c, 1, 62, 110
3, 159744, Note_on_c, 1, 50, 110
3, 160508, Note_off_c, 1, 62, 100
3, 160508, Note_off_c, 1, 50, 100
3, 161472, Note_on_c, 1, 64, 80
3, 161660, Note_off_c, 1, 64, 100
3, 161664, Note_on_c, 1, 62, 80
3, 161852, Note_off_c, 1, 62, 100
3, 161856, Note_on_c, 1, 64, 80
3, 162044, Note_off_c, 1, 64, 100
3, 162048, Note_on_c, 1, 60, 80
3, 162236, Note_off_c, 1, 60, 100
3, 162240, Note_on_c, 1, 64, 80
3, 162428, Note_off_c, 1, 64, 100
3, 162432, Note_on_c, 1, 56, 80
3, 162620, Note_off_c, 1, 56, 100
3, 162624, Note_on_c, 1, 64, 80
3, 162812, Note_off_c, 1, 64, 100
3, 162816, Note_on_c, 1, 57, 80
3, 163004, Note_off_c, 1, 57, 100
3, 163008, Note_on_c, 1, 64, 80
3, 163196, Note_off_c, 1, 64, 100
3, 163200, Note_on_c, 1, 59, 80
3, 163388, Note_off_c, 1, 59, 100
3, 163392, Note_on_c, 1, 64, 80
3, 163580, Note_off_c, 1, 64, 100
3, 163584, Note_on_c, 1, 60, 80
3, 163772, Note_off_c, 1, 60, 100
3, 163776, Note_on_c, 1, 64, 86
3, 163964, Note_off_c, 1, 64, 100
3, 163968, Note_on_c, 1, 59, 93
3, 164156, Note_off_c, 1, 59, 100
3, 164160, Note_on_c, 1, 64, 100
3, 164348, Note_off_c, 1, 64, 100
3, 164352, Note_on_c, 1, 57, 110
3, 164476, Note_off_c, 1, 57, 100
3, 164480, Note_on_c, 1, 60, 110
3, 164604, Note_off_c, 1, 60, 100
3, 164608, Note_on_c, 1, 64, 110
3, 164732, Note_off_c, 1, 64, 100
3, 164736, Note_on_c, 1, 69, 110
3, 164860, Note_off_c, 1, 69, 100
3, 164864, Note_on_c, 1, 64, 110
3, 164988, Note_off_c, 1, 64, 100
3, 164992, Note_on_c, 1, 60, 110
3, 165116, Note_off_c, 1, 60, 100
3, 165120, Note_on_c, 1, 57, 110
3, 165500, Note_off_c, 1, 57, 100
3, 166080, Note_on_c, 1, 71, 80
3, 166268, Note_off_c, 1, 71, 100
3, 166272, Note_on_c, 1, 69, 80
3, 166460, Note_off_c, 1, 69, 100
3, 166464, Note_on_c, 1, 71, 80
3, 166652, Note_off_c, 1, 71, 100
3, 166656, Note_on_c, 1, 67, 80
3, 166844, Note_off_c, 1, 67, 100
3, 166848, Note_on_c, 1, 71, 80
3, 167036, Note_off_c, 1, 71, 100
3, 167040, Note_on_c, 1, 63, 80
3, 167228, Note_off_c, 1, 63, 100
3, 167232, Note_on_c, 1, 71, 80
3, 167420, Note_off_c, 1, 71, 100
3, 167424, Note_on_c, 1, 64, 80
3, 167612, Note_off_c, 1, 64, 100
3, 167616, Note_on_c, 1, 71, 80
3, 167804, Note_off_c, 1, 71, 100
3, 167808, Note_on_c, 1, 64, 80
3, 167996, Note_off_c, 1, 64, 100
3, 168000, Note_on_c, 1, 71, 80
3, 168188, Note_off_c, 1, 71, 100
3, 168192, Note_on_c, 1, 60, 80
3, 168380, Note_off_c, 1, 60, 100
3, 168384, Note_on_c, 1, 69, 80
3, 168572, Note_off_c, 1, 69, 100
3, 168576, Note_on_c, 1, 61, 80
3, 168764, Note_off_c, 1, 61, 100
3, 168768, Note_on_c, 1, 69, 80
3, 168956, Note_off_c, 1, 69, 100
3, 168960, Note_on_c, 1, 59, 80
3, 169148, Note_off_c, 1, 59, 100
3, 169152, Note_on_c, 1, 71, 80
3, 169340, Note_off_c, 1, 71, 100
3, 169344, Note_on_c, 1, 71, 80
3, 169532, Note_off_c, 1, 71, 100
3, 169536, Note_on_c, 1, 71, 80
3, 169724, Note_off_c, 1, 71, 100
3, 169728, Note_on_c, 1, 71, 80
3, 169916, Note_off_c, 1, 71, 100
3, 169920, Note_on_c, 1, 71, 80
3, 170108, Note_off_c, 1, 71, 100
3, 170112, Note_on_c, 1, 71, 80
3, 170300, Note_off_c, 1, 71, 100
3, 170304, Note_on_c, 1, 71, 80
3, 170492, Note_off_c, 1, 71, 100
3, 170496, Note_on_c, 1, 71, 80
3, 170684, Note_off_c, 1, 71, 100
3, 170688, Note_on_c, 1, 71, 80
3, 170876, Note_off_c, 1, 71, 100
3, 170880, Note_on_c, 1, 71, 80
3, 171068, Note_off_c, 1, 71, 100
3, 171072, Note_on_c, 1, 71, 80
3, 171260, Note_off_c, 1, 71, 100
3, 171264, Note_on_c, 1, 71, 80
3, 171452, Note_off_c, 1, 71, 100
3, 171456, Note_on_c, 1, 71, 80
3, 171644, Note_off_c, 1, 71, 100
3, 171648, Note_on_c, 1, 71, 80
3, 171836, Note_off_c, 1, 71, 100
3, 171840, Note_on_c, 1, 71, 80
3, 172028, Note_off_c, 1, 71, 100
3, 172032, Note_on_c, 1, 59, 80
3, 172220, Note_off_c, 1, 59, 100
3, 172224, Note_on_c, 1, 71, 80
3, 172412, Note_off_c, 1, 71, 100
3, 172416, Note_on_c, 1, 71, 80
3, 172604, Note_off_c, 1, 71, 100
3, 172608, Note_on_c, 1, 71, 80
3, 172796, Note_off_c, 1, 71, 100
3, 172800, Note_on_c, 1, 71, 80
3, 172988, Note_off_c, 1, 71, 100
3, 172992, Note_on_c, 1, 71, 80
3, 173180, Note_off_c, 1, 71, 100
3, 173184, Note_on_c, 1, 71, 80
3, 173372, Note_off_c, 1, 71, 100
3, 173376, Note_on_c, 1, 71, 80
3, 173564, Note_off_c, 1, 71, 100
3, 173568, Note_on_c, 1, 71, 80
3, 173756, Note_off_c, 1, 71, 100
3, 173760, Note_on_c, 1, 71, 80
3, 173948, Note_off_c, 1, 71, 100
3, 173952, Note_on_c, 1, 71, 80
3, 174140, Note_off_c, 1, 71, 100
3, 174144, Note_on_c, 1, 71, 80
3, 174332, Note_off_c, 1, 71, 100
3, 174336, Note_on_c, 1, 71, 80
3, 174524, Note_off_c, 1, 71, 100
3, 174528, Note_on_c, 1, 71, 80
3, 174716, Note_off_c, 1, 71, 100
3, 174720, Note_on_c, 1, 71, 80
3, 174908, Note_off_c, 1, 71, 100
3, 174912, Note_on_c, 1, 71, 80
3, 175100, Note_off_c, 1, 71, 100
3, 175104, Note_on_c, 1, 71, 80
3, 175292, Note_off_c, 1, 71, 100
3, 175296, Note_on_c, 1, 70, 80
3, 175484, Note_off_c, 1, 70, 100
3, 175488, Note_on_c, 1, 71, 80
3, 175676, Note_off_c, 1, 71, 100
3, 175680, Note_on_c, 1, 70, 80
3, 175868, Note_off_c, 1, 70, 100
3, 175872, Note_on_c, 1, 71, 80
3, 176060, Note_off_c, 1, 71, 100
3, 176064, Note_on_c, 1, 69, 80
3, 176252, Note_off_c, 1, 69, 100
3, 176256, Note_on_c, 1, 67, 80
3, 176444, Note_off_c, 1, 67, 100
3, 176448, Note_on_c, 1, 66, 80
3, 176636, Note_off_c, 1, 66, 100
3, 176640, Note_on_c, 1, 64, 80
3, 176828, Note_off_c, 1, 64, 100
3, 176832, Note_on_c, 1, 63, 80
3, 177020, Note_off_c, 1, 63, 100
3, 177024, Note_on_c, 1, 64, 80
3, 177212, Note_off_c, 1, 64, 100
3, 177216, Note_on_c, 1, 63, 80
3, 177404, Note_off_c, 1, 63, 100
3, 177408, Note_on_c, 1, 64, 80
3, 177596, Note_off_c, 1, 64, 100
3, 177600, Note_on_c, 1, 62, 80
3, 177788, Note_off_c, 1, 62, 100
3, 177792, Note_on_c, 1, 60, 80
3, 177980, Note_off_c, 1, 60, 100
3, 177984, Note_on_c, 1, 59, 80
3, 178172, Note_off_c, 1, 59, 100
3, 178176, Note_on_c, 1, 57, 80
3, 178364, Note_off_c, 1, 57, 100
3, 178368, Note_on_c, 1, 56, 81
3, 178556, Note_off_c, 1, 56, 100
3, 178560, Note_on_c, 1, 57, 83
3, 178748, Note_off_c, 1, 57, 100
3, 178752, Note_on_c, 1, 56, 85
3, 178940, Note_off_c, 1, 56, 100
3, 178944, Note_on_c, 1, 57, 87
3, 179132, Note_off_c, 1, 57, 100
3, 179136, Note_on_c, 1, 55, 89
3, 179324, Note_off_c, 1, 55, 100
3, 179328, Note_on_c, 1, 54, 91
3, 179516, Note_off_c, 1, 54, 100
3, 179520, Note_on_c, 1, 52, 93
3, 179708, Note_off_c, 1, 52, 100
3, 179712, Note_on_c, 1, 50, 95
3, 180480, Note_on_c, 1, 60, 103
3, 181244, Note_off_c, 1, 50, 100
3, 181244, Note_off_c, 1, 60, 100
3, 181248, Note_on_c, 1, 55, 110
3, 181248, Note_on_c, 1, 43, 110
3, 182012, Note_off_c, 1, 55, 100
3, 182012, Note_off_c, 1, 43, 100
3, 183168, Note_on_c, 1, 59, 80
3, 183548, Note_off_c, 1, 59, 100
3, 183552, Note_on_c, 1, 57, 80
3, 183932, Note_off_c, 1, 57, 100
3, 183936, Note_on_c, 1, 55, 80
3, 184316, Note_off_c, 1, 55, 100
3, 184320, Note_on_c, 1, 54, 80
3, 184700, Note_off_c, 1, 54, 100
3, 184704, Note_on_c, 1, 50, 80
3, 185084, Note_off_c, 1, 50, 100
3, 185088, Note_on_c, 1, 55, 80
3, 185468, Note_off_c, 1, 55, 100
3, 185472, Note_on_c, 1, 53, 80
3, 185852, Note_off_c, 1, 53, 100
3, 185856, Note_on_c, 1, 52, 80
3, 186236, Note_off_c, 1, 52, 100
3, 186240, Note_on_c, 1, 54, 80
3, 186620, Note_off_c, 1, 54, 100
3, 186624, Note_on_c, 1, 55, 80
3, 186812, Note_off_c, 1, 55, 100
3, 186816, Note_on_c, 1, 55, 80
3, 187004, Note_off_c, 1, 55, 100
3, 187008, Note_on_c, 1, 59, 80
3, 187196, Note_off_c, 1, 59, 100
3, 187200, Note_on_c, 1, 62, 80
3, 187388, Note_off_c, 1, 62, 100
3, 187392, Note_on_c, 1, 67, 110
3, 187392, Note_on_c, 1, 55, 110
3, 188156, Note_off_c, 1, 67, 100
3, 188156, Note_off_c, 1, 55, 100
3, 189312, Note_on_c, 1, 71, 80
3, 189500, Note_off_c, 1, 71, 100
3, 189504, Note_on_c, 1, 74, 80
3, 189692, Note_off_c, 1, 74, 100
3, 189696, Note_on_c, 1, 69, 80
3, 189884, Note_off_c, 1, 69, 100
3, 189888, Note_on_c, 1, 74, 80
3, 190076, Note_off_c, 1, 74, 100
3, 190080, Note_on_c, 1, 67, 80
3, 190268, Note_off_c, 1, 67, 100
3, 190272, Note_on_c, 1, 74, 80
3, 190460, Note_off_c, 1, 74, 100
3, 190464, Note_on_c, 1, 66, 80
3, 190652, Note_off_c, 1, 66, 100
3, 190656, Note_on_c, 1, 74, 80
3, 190844, Note_off_c, 1, 74, 100
3, 190848, Note_on_c, 1, 62, 80
3, 191036, Note_off_c, 1, 62, 100
3, 191040, Note_on_c, 1, 74, 80
3, 191228, Note_off_c, 1, 74, 100
3, 191232, Note_on_c, 1, 67, 80
3, 191420, Note_off_c, 1, 67, 100
3, 191424, Note_on_c, 1, 74, 80
3, 191612, Note_off_c, 1, 74, 100
3, 191616, Note_on_c, 1, 65, 80
3, 191804, Note_off_c, 1, 65, 100
3, 191808, Note_on_c, 1, 74, 80
3, 191996, Note_off_c, 1, 74, 100
3, 192000, Note_on_c, 1, 64, 80
3, 192380, Note_off_c, 1, 64, 100
3, 192384, Note_on_c, 1, 65, 80
3, 192764, Note_off_c, 1, 65, 100
3, 192768, Note_on_c, 1, 67, 80
3, 193148, Note_off_c, 1, 67, 100
3, 193152, Note_on_c, 1, 55, 80
3, 193532, Note_off_c, 1, 55, 100
3, 193536, Note_on_c, 1, 60, 80
3, 193916, Note_off_c, 1, 60, 100
3, 195072, Control_c, 1, 64, 127
3, 195072, Note_on_c, 1, 50, 80
3, 195196, Note_off_c, 1, 50, 100
3, 195200, Note_on_c, 1, 53, 80
3, 195324, Note_off_c, 1, 53, 100
3, 195328, Note_on_c, 1, 55, 80
3, 195448, Control_c, 1, 64, 0
3, 195452, Note_off_c, 1, 55, 100
3, 195456, Control_c, 1, 64, 127
3, 195456, Note_on_c, 1, 50, 80
3, 195580, Note_off_c, 1, 50, 100
3, 195584, Note_on_c, 1, 53, 80
3, 195708, Note_off_c, 1, 53, 100
3, 195712, Note_on_c, 1, 55, 80
3, 195832, Control_c, 1, 64, 0
3, 195836, Note_off_c, 1, 55, 100
3, 195840, Control_c, 1, 64, 127
3, 195840, Note_on_c, 1, 50, 80
3, 195964, Note_off_c, 1, 50, 100
3, 195968, Note_on_c, 1, 53, 80
3, 196092, Note_off_c, 1, 53, 100
3, 196096, Note_on_c, 1, 55, 80
3, 196216, Control_c, 1, 64, 0
3, 196220, Note_off_c, 1, 55, 100
3, 196224, Control_c, 1, 64, 127
3, 196224, Note_on_c, 1, 50, 80
3, 196348, Note_off_c, 1, 50, 100
3, 196352, Note_on_c, 1, 53, 80
3, 196476, Note_off_c, 1, 53, 100
3, 196480, Note_on_c, 1, 55, 80
3, 196600, Control_c, 1, 64, 0
3, 196604, Note_off_c, 1, 55, 100
3, 196608, Note_on_c, 1, 52, 80
3, 196608, Note_on_c, 1, 48, 80
3, 196988, Note_off_c, 1, 52, 100
3, 196988, Note_off_c, 1, 48, 100
3, 198144, Control_c, 1, 64, 127
3, 198144, Note_on_c, 1, 47, 80
3, 198268, Note_off_c, 1, 47, 100
3, 198272, Note_on_c, 1, 50, 80
3, 198396, Note_off_c, 1, 50, 100
3, 198400, Note_on_c, 1, 55, 80
3, 198520, Control_c, 1, 64, 0
3, 198524, Note_off_c, 1, 55, 100
3, 198528, Control_c, 1, 64, 127
3, 198528, Note_on_c, 1, 47, 80
3, 198652, Note_off_c, 1, 47, 100
3, 198656, Note_on_c, 1, 50, 80
3, 198780, Note_off_c, 1, 50, 100
3, 198784, Note_on_c, 1, 55, 80
3, 198904, Control_c, 1, 64, 0
3, 198908, Note_off_c, 1, 55, 100
3, 198912, Control_c, 1, 64, 127
3, 198912, Note_on_c, 1, 47, 80
3, 199036, Note_off_c, 1, 47, 100
3, 199040, Note_on_c, 1, 50, 80
3, 199164, Note_off_c, 1, 50, 100
3, 199168, Note_on_c, 1, 55, 80
3, 199288, Control_c, 1, 64, 0
3, 199292, Note_off_c, 1, 55, 100
3, 199296, Control_c, 1, 64, 127
3, 199296, Note_on_c, 1, 47, 80
3, 199420, Note_off_c, 1, 47, 100
3, 199424, Note_on_c, 1, 50, 80
3, 199548, Note_off_c, 1, 50, 100
3, 199552, Note_on_c, 1, 55, 80
3, 199672, Control_c, 1, 64, 0
3, 199676, Note_off_c, 1, 55, 100
3, 199680, Note_on_c, 1, 48, 80
3, 200060, Note_off_c, 1, 48, 100
3, 201216, Control_c, 1, 64, 127
3, 201216, Note_on_c, 1, 47, 90
3, 201340, Note_off_c, 1, 47, 100
3, 201344, Note_on_c, 1, 50, 91
3, 201468, Note_off_c, 1, 50, 100
3, 201472, Note_on_c, 1, 52, 92
3, 201592, Control_c, 1, 64, 0
3, 201596, Note_off_c, 1, 52, 100
3, 201600, Control_c, 1, 64, 127
3, 201600, Note_on_c, 1, 47, 93
3, 201724, Note_off_c, 1, 47, 100
3, 201728, Note_on_c, 1, 50, 94
3, 201852, Note_off_c, 1, 50, 100
3, 201856, Note_on_c, 1, 52, 95
3, 201976, Control_c, 1, 64, 0
3, 201980, Note_off_c, 1, 52, 100
3, 201984, Control_c, 1, 64, 127
3, 201984, Note_on_c, 1, 47, 95
3, 202108, Note_off_c, 1, 47, 100
3, 202112, Note_on_c, 1, 50, 96
3, 202236, Note_off_c, 1, 50, 100
3, 202240, Note_on_c, 1, 52, 97
3, 202360, Control_c, 1, 64, 0
3, 202364, Note_off_c, 1, 52, 100
3, 202368, Control_c, 1, 64, 127
3, 202368, Note_on_c, 1, 47, 98
3, 202492, Note_off_c, 1, 47, 100
3, 202496, Note_on_c, 1, 50, 99
3, 202620, Note_off_c, 1, 50, 100
3, 202624, Note_on_c, 1, 52, 100
3, 202744, Control_c, 1, 64, 0
3, 202748, Note_off_c, 1, 52, 100
3, 202752, Control_c, 1, 64, 127
3, 202752, Note_on_c, 1, 48, 101
3, 202876, Note_off_c, 1, 48, 100
3, 202880, Note_on_c, 1, 52, 102
3, 203004, Note_off_c, 1, 52, 100
3, 203008, Note_on_c, 1, 57, 103
3, 203128, Control_c, 1, 64, 0
3, 203132, Note_off_c, 1, 57, 100
3, 203136, Control_c, 1, 64, 127
3, 203136, Note_on_c, 1, 48, 103
3, 203260, Note_off_c, 1, 48, 100
3, 203264, Note_on_c, 1, 52, 104
3, 203388, Note_off_c, 1, 52, 100
3, 203392, Note_on_c, 1, 57, 105
3, 203512, Control_c, 1, 64, 0
3, 203516, Note_off_c, 1, 57, 100
3, 203520, Control_c, 1, 64, 127
3, 203520, Note_on_c, 1, 49, 106
3, 203644, Note_off_c, 1, 49, 100
3, 203648, Note_on_c, 1, 52, 107
3, 203772, Note_off_c, 1, 52, 100
3, 203776, Note_on_c, 1, 57, 108
3, 203896, Control_c, 1, 64, 0
3, 203900, Note_off_c, 1, 57, 100
3, 203904, Control_c, 1, 64, 127
3, 203904, Note_on_c, 1, 49, 109
3, 204028, Note_off_c, 1, 49, 100
3, 204032, Note_on_c, 1, 52, 110
3, 204156, Note_off_c, 1, 52, 100
3, 204160, Note_on_c, 1, 57, 110
3, 204280, Control_c, 1, 64, 0
3, 204284, Note_off_c, 1, 57, 100
3, 204288, Control_c, 1, 64, 127
3, 204288, Note_on_c, 1, 50, 110
3, 204412, Note_off_c, 1, 50, 100
3, 204416, Note_on_c, 1, 54, 110
3, 204540, Note_off_c, 1, 54, 100
3, 204544, Note_on_c, 1, 57, 110
3, 204664, Control_c, 1, 64, 0
3, 204668, Note_off_c, 1, 57, 100
3, 204672, Control_c, 1, 64, 127
3, 204672, Note_on_c, 1, 50, 110
3, 204796, Note_off_c, 1, 50, 100
3, 204800, Note_on_c, 1, 54, 110
3, 204924, Note_off_c, 1, 54, 100
3, 204928, Note_on_c, 1, 57, 110
3, 205048, Control_c, 1, 64, 0
3, 205052, Note_off_c, 1, 57, 100
3, 205056, Control_c, 1, 64, 127
3, 205056, Note_on_c, 1, 50, 110
3, 205180, Note_off_c, 1, 50, 100
3, 205184, Note_on_c, 1, 54, 110
3, 205308, Note_off_c, 1, 54, 100
3, 205312, Note_on_c, 1, 57, 110
3, 205432, Control_c, 1, 64, 0
3, 205436, Note_off_c, 1, 57, 100
3, 205440, Control_c, 1, 64, 127
3, 205440, Note_on_c, 1, 50, 110
3, 205564, Note_off_c, 1, 50, 100
3, 205568, Note_on_c, 1, 54, 110
3, 205692, Note_off_c, 1, 54, 100
3, 205696, Note_on_c, 1, 57, 110
3, 205816, Control_c, 1, 64, 0
3, 205820, Note_off_c, 1, 57, 100
3, 205824, Control_c, 1, 64, 127
3, 205824, Note_on_c, 1, 50, 110
3, 205948, Note_off_c, 1, 50, 100
3, 205952, Note_on_c, 1, 55, 110
3, 206076, Note_off_c, 1, 55, 100
3, 206080, Note_on_c, 1, 59, 110
3, 206200, Control_c, 1, 64, 0
3, 206204, Note_off_c, 1, 59, 100
3, 206208, Control_c, 1, 64, 127
3, 206208, Note_on_c, 1, 50, 110
3, 206332, Note_off_c, 1, 50, 100
3, 206336, Note_on_c, 1, 55, 110
3, 206460, Note_off_c, 1, 55, 100
3, 206464, Note_on_c, 1, 59, 110
3, 206584, Control_c, 1, 64, 0
3, 206588, Note_off_c, 1, 59, 100
3, 206592, Control_c, 1, 64, 127
3, 206592, Note_on_c, 1, 50, 110
3, 206716, Note_off_c, 1, 50, 100
3, 206720, Note_on_c, 1, 55, 110
3, 206844, Note_off_c, 1, 55, 100
3, 206848, Note_on_c, 1, 59, 110
3, 206968, Control_c, 1, 64, 0
3, 206972, Note_off_c, 1, 59, 100
3, 206976, Control_c, 1, 64, 127
3, 206976, Note_on_c, 1, 50, 110
3, 207100, Note_off_c, 1, 50, 100
3, 207104, Note_on_c, 1, 55, 110
3, 207228, Note_off_c, 1, 55, 100
3, 207232, Note_on_c, 1, 59, 110
3, 207352, Control_c, 1, 64, 0
3, 207356, Note_off_c, 1, 59, 100
3, 207360, Control_c, 1, 64, 127
3, 207360, Note_on_c, 1, 50, 110
3, 207484, Note_off_c, 1, 50, 100
3, 207488, Note_on_c, 1, 54, 110
3, 207612, Note_off_c, 1, 54, 100
3, 207616, Note_on_c, 1, 57, 110
3, 207736, Control_c, 1, 64, 0
3, 207740, Note_off_c, 1, 57, 100
3, 207744, Control_c, 1, 64, 127
3, 207744, Note_on_c, 1, 50, 110
3, 207868, Note_off_c, 1, 50, 100
3, 207872, Note_on_c, 1, 54, 110
3, 207996, Note_off_c, 1, 54, 100
3, 208000, Note_on_c, 1, 57, 110
3, 208120, Control_c, 1, 64, 0
3, 208124, Note_off_c, 1, 57, 100
3, 208128, Control_c, 1, 64, 127
3, 208128, Note_on_c, 1, 50, 110
3, 208252, Note_off_c, 1, 50, 100
3, 208256, Note_on_c, 1, 54, 110
3, 208380, Note_off_c, 1, 54, 100
3, 208384, Note_on_c, 1, 57, 110
3, 208504, Control_c, 1, 64, 0
3, 208508, Note_off_c, 1, 57, 100
3, 208512, Control_c, 1, 64, 127
3, 208512, Note_on_c, 1, 50, 110
3, 208636, Note_off_c, 1, 50, 100
3, 208640, Note_on_c, 1, 54, 110
3, 208764, Note_off_c, 1, 54, 100
3, 208768, Note_on_c, 1, 57, 110
3, 208888, Control_c, 1, 64, 0
3, 208892, Note_off_c, 1, 57, 100
3, 208896, Note_on_c, 1, 50, 110
3, 209020, Note_off_c, 1, 50, 100
3, 209024, Note_on_c, 1, 55, 110
3, 209148, Note_off_c, 1, 55, 100
3, 209152, Note_on_c, 1, 59, 110
3, 209276, Note_off_c, 1, 59, 100
3, 209280, Note_on_c, 1, 50, 110
3, 209404, Note_off_c, 1, 50, 100
3, 209408, Note_on_c, 1, 55, 110
3, 209532, Note_off_c, 1, 55, 100
3, 209536, Note_on_c, 1, 59, 110
3, 209660, Note_off_c, 1, 59, 100
3, 209664, Note_on_c, 1, 50, 110
3, 209788, Note_off_c, 1, 50, 100
3, 209792, Note_on_c, 1, 55, 110
3, 209916, Note_off_c, 1, 55, 100
3, 209920, Note_on_c, 1, 59, 110
3, 210044, Note_off_c, 1, 59, 100
3, 210048, Note_on_c, 1, 50, 110
3, 210172, Note_off_c, 1, 50, 100
3, 210176, Note_on_c, 1, 55, 110
3, 210300, Note_off_c, 1, 55, 100
3, 210304, Note_on_c, 1, 59, 110
3, 210428, Note_off_c, 1, 59, 100
3, 210432, Control_c, 1, 64, 127
3, 210432, Note_on_c, 1, 50, 110
3, 210556, Note_off_c, 1, 50, 100
3, 210560, Note_on_c, 1, 54, 110
3, 210684, Note_off_c, 1, 54, 100
3, 210688, Note_on_c, 1, 57, 110
3, 210808, Control_c, 1, 64, 0
3, 210812, Note_off_c, 1, 57, 100
3, 210816, Control_c, 1, 64, 127
3, 210816, Note_on_c, 1, 50, 110
3, 210940, Note_off_c, 1, 50, 100
3, 210944, Note_on_c, 1, 55, 110
3, 211068, Note_off_c, 1, 55, 100
3, 211072, Note_on_c, 1, 59, 110
3, 211192, Control_c, 1, 64, 0
3, 211196, Note_off_c, 1, 59, 100
3, 211200, Control_c, 1, 64, 127
3, 211200, Note_on_c, 1, 50, 110
3, 211324, Note_off_c, 1, 50, 100
3, 211328, Note_on_c, 1, 54, 110
3, 211452, Note_off_c, 1, 54, 100
3, 211456, Note_on_c, 1, 57, 110
3, 211576, Control_c, 1, 64, 0
3, 211580, Note_off_c, 1, 57, 100
3, 211584, Control_c, 1, 64, 127
3, 211584, Note_on_c, 1, 50, 110
3, 211708, Note_off_c, 1, 50, 100
3, 211712, Note_on_c, 1, 55, 110
3, 211836, Note_off_c, 1, 55, 100
3, 211840, Note_on_c, 1, 59, 110
3, 211960, Control_c, 1, 64, 0
3, 211964, Note_off_c, 1, 59, 100
3, 211968, Note_on_c, 1, 54, 110
3, 211968, Note_on_c, 1, 50, 110
3, 212348, Note_off_c, 1, 54, 100
3, 212348, Note_off_c, 1, 50, 100
3, 213504, Note_on_c, 1, 59, 80
3, 213692, Note_off_c, 1, 59, 100
3, 213696, Note_on_c, 1, 62, 80
3, 213884, Note_off_c, 1, 62, 100
3, 213888, Note_on_c, 1, 60, 80
3, 214076, Note_off_c, 1, 60, 100
3, 214080, Note_on_c, 1, 62, 80
3, 214268, Note_off_c, 1, 62, 100
3, 214272, Note_on_c, 1, 59, 80
3, 214460, Note_off_c, 1, 59, 100
3, 214464, Note_on_c, 1, 62, 80
3, 214652, Note_off_c, 1, 62, 100
3, 214656, Note_on_c, 1, 54, 80
3, 214844, Note_off_c, 1, 54, 100
3, 214848, Note_on_c, 1, 62, 80
3, 215036, Note_off_c, 1, 62, 100
3, 215040, Note_on_c, 1, 55, 80
3, 215228, Note_off_c, 1, 55, 100
3, 215232, Note_on_c, 1, 62, 80
3, 215420, Note_off_c, 1, 62, 100
3, 215424, Note_on_c, 1, 54, 80
3, 215612, Note_off_c, 1, 54, 100
3, 215616, Note_on_c, 1, 62, 80
3, 215804, Note_off_c, 1, 62, 100
3, 215808, Note_on_c, 1, 50, 80
3, 216188, Note_off_c, 1, 50, 100
3, 216576, Note_on_c, 1, 60, 80
3, 216764, Note_off_c, 1, 60, 100
3, 216768, Note_on_c, 1, 62, 80
3, 216956, Note_off_c, 1, 62, 100
3, 216960, Note_on_c, 1, 59, 80
3, 217148, Note_off_c, 1, 59, 100
3, 217152, Note_on_c, 1, 62, 80
3, 217340, Note_off_c, 1, 62, 100
3, 217344, Note_on_c, 1, 57, 80
3, 217532, Note_off_c, 1, 57, 100
3, 217536, Note_on_c, 1, 62, 80
3, 217724, Note_off_c, 1, 62, 100
3, 217728, Note_on_c, 1, 55, 80
3, 217916, Note_off_c, 1, 55, 100
3, 217920, Note_on_c, 1, 62, 80
3, 218108, Note_off_c, 1, 62, 100
3, 218112, Note_on_c, 1, 54, 80
3, 218300, Note_off_c, 1, 54, 100
3, 218304, Note_on_c, 1, 62, 80
3, 218492, Note_off_c, 1, 62, 100
3, 218496, Note_on_c, 1, 55, 80
3, 218684, Note_off_c, 1, 55, 100
3, 218688, Note_on_c, 1, 62, 80
3, 218876, Note_off_c, 1, 62, 100
3, 218880, Note_on_c, 1, 55, 80
3, 219260, Note_off_c, 1, 55, 100
3, 219648, Note_on_c, 1, 64, 80
3, 219648, Note_on_c, 1, 60, 80
3, 220412, Note_off_c, 1, 64, 100
3, 220412, Note_off_c, 1, 60, 100
3, 220416, Note_on_c, 1, 62, 80
3, 220416, Note_on_c, 1, 59, 80
3, 220796, Note_off_c, 1, 62, 100
3, 220796, Note_off_c, 1, 59, 100
3, 221184, Note_on_c, 1, 64, 80
3, 221184, Note_on_c, 1, 60, 80
3, 221948, Note_off_c, 1, 64, 100
3, 221948, Note_off_c, 1, 60, 100
3, 221952, Note_on_c, 1, 62, 80
3, 221952, Note_on_c, 1, 59, 80
3, 222332, Note_off_c, 1, 62, 100
3, 222332, Note_off_c, 1, 59, 100
3, 223104, Note_on_c, 1, 60, 80
3, 223104, Note_on_c, 1, 64, 80
3, 223484, Note_off_c, 1, 60, 100
3, 223484, Note_off_c, 1, 64, 100
3, 223872, Note_on_c, 1, 64, 80
3, 223872, Note_on_c, 1, 61, 80
3, 224252, Note_off_c, 1, 64, 100
3, 224252, Note_off_c, 1, 61, 100
3, 224256, Note_on_c, 1, 62, 80
3, 224636, Note_off_c, 1, 62, 100
3, 225792, Note_on_c, 1, 71, 80
3, 225980, Note_off_c, 1, 71, 100
3, 225984, Note_on_c, 1, 74, 80
3, 226172, Note_off_c, 1, 74, 100
3, 226176, Note_on_c, 1, 72, 80
3, 226364, Note_off_c, 1, 72, 100
3, 226368, Note_on_c, 1, 74, 80
3, 226556, Note_off_c, 1, 74, 100
3, 226560, Note_on_c, 1, 71, 80
3, 226748, Note_off_c, 1, 71, 100
3, 226752, Note_on_c, 1, 74, 80
3, 226940, Note_off_c, 1, 74, 100
3, 226944, Note_on_c, 1, 66, 80
3, 227132, Note_off_c, 1, 66, 100
3, 227136, Note_on_c, 1, 74, 80
3, 227324, Note_off_c, 1, 74, 100
3, 227328, Note_on_c, 1, 67, 80
3, 227516, Note_off_c, 1, 67, 100
3, 227520, Note_on_c, 1, 74, 80
3, 227708, Note_off_c, 1, 74, 100
3, 227712, Note_on_c, 1, 66, 80
3, 227900, Note_off_c, 1, 66, 100
3, 227904, Note_on_c, 1, 74, 80
3, 228092, Note_off_c, 1, 74, 100
3, 228096, Note_on_c, 1, 62, 80
3, 228476, Note_off_c, 1, 62, 100
3, 228864, Note_on_c, 1, 72, 80
3, 229052, Note_off_c, 1, 72, 100
3, 229056, Note_on_c, 1, 74, 80
3, 229244, Note_off_c, 1, 74, 100
3, 229248, Note_on_c, 1, 71, 80
3, 229436, Note_off_c, 1, 71, 100
3, 229440, Note_on_c, 1, 74, 80
3, 229628, Note_off_c, 1, 74, 100
3, 229632, Note_on_c, 1, 69, 80
3, 229820, Note_off_c, 1, 69, 100
3, 229824, Note_on_c, 1, 74, 80
3, 230012, Note_off_c, 1, 74, 100
3, 230016, Note_on_c, 1, 67, 80
3, 230204, Note_off_c, 1, 67, 100
3, 230208, Note_on_c, 1, 74, 80
3, 230396, Note_off_c, 1, 74, 100
3, 230400, Note_on_c, 1, 66, 80
3, 230588, Note_off_c, 1, 66, 100
3, 230592, Note_on_c, 1, 74, 80
3, 230780, Note_off_c, 1, 74, 100
3, 230784, Note_on_c, 1, 67, 80
3, 230972, Note_off_c, 1, 67, 100
3, 230976, Note_on_c, 1, 74, 80
3, 231164, Note_off_c, 1, 74, 100
3, 231168, Note_on_c, 1, 67, 80
3, 231548, Note_off_c, 1, 67, 100
3, 231936, Note_on_c, 1, 72, 80
3, 231936, Note_on_c, 1, 76, 80
3, 232316, Note_off_c, 1, 76, 100
3, 232320, Note_on_c, 1, 78, 80
3, 232700, Note_off_c, 1, 72, 100
3, 232700, Note_off_c, 1, 78, 100
3, 232704, Note_on_c, 1, 74, 80
3, 232704, Note_on_c, 1, 71, 80
3, 233084, Note_off_c, 1, 74, 100
3, 233084, Note_off_c, 1, 71, 100
3, 233472, Note_on_c, 1, 72, 80
3, 233472, Note_on_c, 1, 76, 80
3, 233852, Note_off_c, 1, 76, 100
3, 233856, Note_on_c, 1, 78, 80
3, 234236, Note_off_c, 1, 72, 100
3, 234236, Note_off_c, 1, 78, 100
3, 234240, Note_on_c, 1, 74, 80
3, 234240, Note_on_c, 1, 71, 80
3, 234620, Note_off_c, 1, 74, 100
3, 234620, Note_off_c, 1, 71, 100
3, 235392, Note_on_c, 1, 72, 80
3, 235772, Note_off_c, 1, 72, 100
3, 235776, Note_on_c, 1, 74, 80
3, 236156, Note_off_c, 1, 74, 100
3, 236160, Note_on_c, 1, 62, 80
3, 236540, Note_off_c, 1, 62, 100
3, 236544, Note_on_c, 1, 67, 110
3, 236924, Note_off_c, 1, 67, 100
3, 238080, Note_on_c, 1, 57, 110
3, 238204, Note_off_c, 1, 57, 100
3, 238208, Note_on_c, 1, 60, 110
3, 238332, Note_off_c, 1, 60, 100
3, 238336, Note_on_c, 1, 62, 110
3, 238460, Note_off_c, 1, 62, 100
3, 238464, Note_on_c, 1, 57, 110
3, 238588, Note_off_c, 1, 57, 100
3, 238592, Note_on_c, 1, 60, 110
3, 238716, Note_off_c, 1, 60, 100
3, 238720, Note_on_c, 1, 62, 110
3, 238844, Note_off_c, 1, 62, 100
3, 238848, Note_on_c, 1, 57, 110
3, 238972, Note_off_c, 1, 57, 100
3, 238976, Note_on_c, 1, 60, 110
3, 239100, Note_off_c, 1, 60, 100
3, 239104, Note_on_c, 1, 62, 110
3, 239228, Note_off_c, 1, 62, 100
3, 239232, Note_on_c, 1, 57, 110
3, 239356, Note_off_c, 1, 57, 100
3, 239360, Note_on_c, 1, 60, 110
3, 239484, Note_off_c, 1, 60, 100
3, 239488, Note_on_c, 1, 62, 110
3, 239612, Note_off_c, 1, 62, 100
3, 239616, Note_on_c, 1, 59, 110
3, 239616, Note_on_c, 1, 55, 110
3, 239996, Note_off_c, 1, 59, 100
3, 239996, Note_off_c, 1, 55, 100
3, 241152, Note_on_c, 1, 54, 110
3, 241276, Note_off_c, 1, 54, 100
3, 241280, Note_on_c, 1, 57, 110
3, 241404, Note_off_c, 1, 57, 100
3, 241408, Note_on_c, 1, 62, 110
3, 241532, Note_off_c, 1, 62, 100
3, 241536, Note_on_c, 1, 54, 110
3, 241660, Note_off_c, 1, 54, 100
3, 241664, Note_on_c, 1, 57, 110
3, 241788, Note_off_c, 1, 57, 100
3, 241792, Note_on_c, 1, 62, 110
3, 241916, Note_off_c, 1, 62, 100
3, 241920, Note_on_c, 1, 54, 110
3, 242044, Note_off_c, 1, 54, 100
3, 242048, Note_on_c, 1, 57, 110
3, 242172, Note_off_c, 1, 57, 100
3, 242176, Note_on_c, 1, 62, 110
3, 242300, Note_off_c, 1, 62, 100
3, 242304, Note_on_c, 1, 54, 110
3, 242428, Note_off_c, 1, 54, 100
3, 242432, Note_on_c, 1, 57, 110
3, 242556, Note_off_c, 1, 57, 100
3, 242560, Note_on_c, 1, 62, 110
3, 242684, Note_off_c, 1, 62, 100
3, 242688, Note_on_c, 1, 59, 110
3, 242688, Note_on_c, 1, 55, 110
3, 243068, Note_off_c, 1, 59, 100
3, 243068, Note_off_c, 1, 55, 100
3, 244224, Note_on_c, 1, 47, 110
3, 244348, Note_off_c, 1, 47, 100
3, 244352, Note_on_c, 1, 50, 110
3, 244476, Note_off_c, 1, 50, 100
3, 244480, Note_on_c, 1, 55, 110
3, 244604, Note_off_c, 1, 55, 100
3, 244608, Note_on_c, 1, 47, 110
3, 244732, Note_off_c, 1, 47, 100
3, 244736, Note_on_c, 1, 50, 110
3, 244860, Note_off_c, 1, 50, 100
3, 244864, Note_on_c, 1, 55, 110
3, 244988, Note_off_c, 1, 55, 100
3, 244992, Note_on_c, 1, 47, 110
3, 245116, Note_off_c, 1, 47, 100
3, 245120, Note_on_c, 1, 50, 110
3, 245244, Note_off_c, 1, 50, 100
3, 245248, Note_on_c, 1, 56, 110
3, 245372, Note_off_c, 1, 56, 100
3, 245376, Note_on_c, 1, 47, 110
3, 245500, Note_off_c, 1, 47, 100
3, 245504, Note_on_c, 1, 50, 110
3, 245628, Note_off_c, 1, 50, 100
3, 245632, Note_on_c, 1, 56, 110
3, 245756, Note_off_c, 1, 56, 100
3, 245760, Note_on_c, 1, 48, 110
3, 245884, Note_off_c, 1, 48, 100
3, 245888, Note_on_c, 1, 52, 110
3, 246012, Note_off_c, 1, 52, 100
3, 246016, Note_on_c, 1, 57, 110
3, 246140, Note_off_c, 1, 57, 100
3, 246144, Note_on_c, 1, 48, 110
3, 246268, Note_off_c, 1, 48, 100
3, 246272, Note_on_c, 1, 52, 110
3, 246396, Note_off_c, 1, 52, 100
3, 246400, Note_on_c, 1, 57, 110
3, 246524, Note_off_c, 1, 57, 100
3, 246528, Note_on_c, 1, 50, 110
3, 246652, Note_off_c, 1, 50, 100
3, 246656, Note_on_c, 1, 55, 110
3, 246780, Note_off_c, 1, 55, 100
3, 246784, Note_on_c, 1, 59, 110
3, 246908, Note_off_c, 1, 59, 100
3, 246912, Note_on_c, 1, 50, 110
3, 247036, Note_off_c, 1, 50, 100
3, 247040, Note_on_c, 1, 54, 110
3, 247164, Note_off_c, 1, 54, 100
3, 247168, Note_on_c, 1, 60, 110
3, 247292, Note_off_c, 1, 60, 100
3, 247296, Note_on_c, 1, 59, 110
3, 247296, Note_on_c, 1, 55, 110
3, 247676, Note_off_c, 1, 59, 100
3, 247676, Note_off_c, 1, 55, 100
3, 248960, Note_on_c, 1, 60, 110
3, 249084, Note_off_c, 1, 60, 100
3, 249088, Note_on_c, 1, 62, 110
3, 249212, Note_off_c, 1, 62, 100
3, 249216, Note_on_c, 1, 64, 110
3, 249340, Note_off_c, 1, 64, 100
3, 249344, Note_on_c, 1, 66, 110
3, 249468, Note_off_c, 1, 66, 100
3, 249472, Note_on_c, 1, 67, 110
3, 249596, Note_off_c, 1, 67, 100
3, 249600, Note_on_c, 1, 69, 110
3, 249724, Note_off_c, 1, 69, 100
3, 249728, Note_on_c, 1, 71, 110
3, 249852, Note_off_c, 1, 71, 100
3, 249856, Note_on_c, 1, 72, 110
3, 249980, Note_off_c, 1, 72, 100
3, 249984, Note_on_c, 1, 74, 110
3, 250108, Note_off_c, 1, 74, 100
3, 250112, Note_on_c, 1, 76, 110
3, 250236, Note_off_c, 1, 76, 100
3, 250240, Note_on_c, 1, 78, 110
3, 250364, Note_off_c, 1, 78, 100
3, 250368, Note_on_c, 1, 79, 110
3, 250748, Note_off_c, 1, 79, 100
3, 250752, Note_on_c, 1, 72, 110
3, 251132, Note_off_c, 1, 72, 100
3, 251136, Note_on_c, 1, 74, 110
3, 251516, Note_off_c, 1, 74, 100
3, 251520, Note_on_c, 1, 62, 110
3, 251900, Note_off_c, 1, 62, 100
3, 253568, Note_on_c, 1, 48, 110
3, 253692, Note_off_c, 1, 48, 100
3, 253696, Note_on_c, 1, 50, 110
3, 253820, Note_off_c, 1, 50, 100
3, 253824, Note_on_c, 1, 52, 110
3, 253948, Note_off_c, 1, 52, 100
3, 253952, Note_on_c, 1, 54, 110
3, 254076, Note_off_c, 1, 54, 100
3, 254080, Note_on_c, 1, 55, 110
3, 254204, Note_off_c, 1, 55, 100
3, 254208, Note_on_c, 1, 57, 110
3, 254332, Note_off_c, 1, 57, 100
3, 254336, Note_on_c, 1, 59, 110
3, 254460, Note_off_c, 1, 59, 100
3, 254464, Note_on_c, 1, 60, 110
3, 254588, Note_off_c, 1, 60, 100
3, 254592, Note_on_c, 1, 62, 110
3, 254716, Note_off_c, 1, 62, 100
3, 254720, Note_on_c, 1, 64, 110
3, 254844, Note_off_c, 1, 64, 100
3, 254848, Note_on_c, 1, 66, 110
3, 254972, Note_off_c, 1, 66, 100
3, 254976, Note_on_c, 1, 67, 111
3, 255356, Note_off_c, 1, 67, 100
3, 255360, Note_on_c, 1, 60, 80
3, 255740, Note_off_c, 1, 60, 100
3, 255744, Note_on_c, 1, 62, 80
3, 256124, Note_off_c, 1, 62, 100
3, 256128, Note_on_c, 1, 50, 80
3, 256508, Note_off_c, 1, 50, 100
3, 256512, Control_c, 1, 64, 127
3, 256512, Note_on_c, 1, 43, 110
3, 256636, Note_off_c, 1, 43, 100
3, 256640, Note_on_c, 1, 47, 110
3, 256764, Note_off_c, 1, 47, 100
3, 256768, Note_on_c, 1, 50, 110
3, 256888, Control_c, 1, 64, 0
3, 256892, Note_off_c, 1, 50, 100
3, 256896, Control_c, 1, 64, 127
3, 256896, Note_on_c, 1, 43, 110
3, 257020, Note_off_c, 1, 43, 100
3, 257024, Note_on_c, 1, 47, 110
3, 257148, Note_off_c, 1, 47, 100
3, 257152, Note_on_c, 1, 50, 110
3, 257272, Control_c, 1, 64, 0
3, 257276, Note_off_c, 1, 50, 100
3, 257280, Control_c, 1, 64, 127
3, 257280, Note_on_c, 1, 43, 110
3, 257404, Note_off_c, 1, 43, 100
3, 257408, Note_on_c, 1, 48, 110
3, 257532, Note_off_c, 1, 48, 100
3, 257536, Note_on_c, 1, 50, 110
3, 257656, Control_c, 1, 64, 0
3, 257660, Note_off_c, 1, 50, 100
3, 257664, Control_c, 1, 64, 127
3, 257664, Note_on_c, 1, 43, 110
3, 257788, Note_off_c, 1, 43, 100
3, 257792, Note_on_c, 1, 48, 110
3, 257916, Note_off_c, 1, 48, 100
3, 257920, Note_on_c, 1, 50, 110
3, 258040, Control_c, 1, 64, 0
3, 258044, Note_off_c, 1, 50, 100
3, 258048, Control_c, 1, 64, 127
3, 258048, Note_on_c, 1, 43, 110
3, 258172, Note_off_c, 1, 43, 100
3, 258176, Note_on_c, 1, 47, 110
3, 258300, Note_off_c, 1, 47, 100
3, 258304, Note_on_c, 1, 50, 110
3, 258424, Control_c, 1, 64, 0
3, 258428, Note_off_c, 1, 50, 100
3, 258432, Control_c, 1, 64, 127
3, 258432, Note_on_c, 1, 43, 110
3, 258556, Note_off_c, 1, 43, 100
3, 258560, Note_on_c, 1, 47, 110
3, 258684, Note_off_c, 1, 47, 100
3, 258688, Note_on_c, 1, 50, 110
3, 258808, Control_c, 1, 64, 0
3, 258812, Note_off_c, 1, 50, 100
3, 258816, Control_c, 1, 64, 127
3, 258816, Note_on_c, 1, 43, 110
3, 258940, Note_off_c, 1, 43, 100
3, 258944, Note_on_c, 1, 48, 110
3, 259068, Note_off_c, 1, 48, 100
3, 259072, Note_on_c, 1, 50, 110
3, 259192, Control_c, 1, 64, 0
3, 259196, Note_off_c, 1, 50, 100
3, 259200, Control_c, 1, 64, 127
3, 259200, Note_on_c, 1, 43, 110
3, 259324, Note_off_c, 1, 43, 100
3, 259328, Note_on_c, 1, 48, 110
3, 259452, Note_off_c, 1, 48, 100
3, 259456, Note_on_c, 1, 50, 110
3, 259576, Control_c, 1, 64, 0
3, 259580, Note_off_c, 1, 50, 100
3, 259584, Control_c, 1, 64, 127
3, 259584, Note_on_c, 1, 43, 110
3, 259708, Note_off_c, 1, 43, 100
3, 259712, Note_on_c, 1, 47, 110
3, 259836, Note_off_c, 1, 47, 100
3, 259840, Note_on_c, 1, 50, 110
3, 259960, Control_c, 1, 64, 0
3, 259964, Note_off_c, 1, 50, 100
3, 259968, Control_c, 1, 64, 127
3, 259968, Note_on_c, 1, 43, 110
3, 260092, Note_off_c, 1, 43, 100
3, 260096, Note_on_c, 1, 47, 110
3, 260220, Note_off_c, 1, 47, 100
3, 260224, Note_on_c, 1, 50, 110
3, 260344, Control_c, 1, 64, 0
3, 260348, Note_off_c, 1, 50, 100
3, 260352, Control_c, 1, 64, 127
3, 260352, Note_on_c, 1, 43, 110
3, 260476, Note_off_c, 1, 43, 100
3, 260480, Note_on_c, 1, 48, 110
3, 260604, Note_off_c, 1, 48, 100
3, 260608, Note_on_c, 1, 50, 110
3, 260728, Control_c, 1, 64, 0
3, 260732, Note_off_c, 1, 50, 100
3, 260736, Control_c, 1, 64, 127
3, 260736, Note_on_c, 1, 43, 110
3, 260860, Note_off_c, 1, 43, 100
3, 260864, Note_on_c, 1, 48, 110
3, 260988, Note_off_c, 1, 48, 100
3, 260992, Note_on_c, 1, 50, 110
3, 261112, Control_c, 1, 64, 0
3, 261116, Note_off_c, 1, 50, 100
3, 261120, Control_c, 1, 64, 127
3, 261120, Note_on_c, 1, 43, 110
3, 261244, Note_off_c, 1, 43, 100
3, 261248, Note_on_c, 1, 47, 110
3, 261372, Note_off_c, 1, 47, 100
3, 261376, Note_on_c, 1, 50, 110
3, 261496, Control_c, 1, 64, 0
3, 261500, Note_off_c, 1, 50, 100
3, 261504, Control_c, 1, 64, 127
3, 261504, Note_on_c, 1, 43, 110
3, 261628, Note_off_c, 1, 43, 100
3, 261632, Note_on_c, 1, 47, 110
3, 261756, Note_off_c, 1, 47, 100
3, 261760, Note_on_c, 1, 50, 110
3, 261880, Control_c, 1, 64, 0
3, 261884, Note_off_c, 1, 50, 100
3, 261888, Control_c, 1, 64, 127
3, 261888, Note_on_c, 1, 43, 110
3, 262012, Note_off_c, 1, 43, 100
3, 262016, Note_on_c, 1, 48, 110
3, 262140, Note_off_c, 1, 48, 100
3, 262144, Note_on_c, 1, 50, 110
3, 262264, Control_c, 1, 64, 0
3, 262268, Note_off_c, 1, 50, 100
3, 262272, Control_c, 1, 64, 127
3, 262272, Note_on_c, 1, 43, 110
3, 262396, Note_off_c, 1, 43, 100
3, 262400, Note_on_c, 1, 48, 110
3, 262524, Note_off_c, 1, 48, 100
3, 262528, Note_on_c, 1, 50, 110
3, 262648, Control_c, 1, 64, 0
3, 262652, Note_off_c, 1, 50, 100
3, 262656, Control_c, 1, 64, 127
3, 262656, Note_on_c, 1, 43, 110
3, 262780, Note_off_c, 1, 43, 100
3, 262784, Note_on_c, 1, 47, 110
3, 262908, Note_off_c, 1, 47, 100
3, 262912, Note_on_c, 1, 50, 110
3, 263032, Control_c, 1, 64, 0
3, 263036, Note_off_c, 1, 50, 100
3, 263040, Control_c, 1, 64, 127
3, 263040, Note_on_c, 1, 43, 110
3, 263164, Note_off_c, 1, 43, 100
3, 263168, Note_on_c, 1, 48, 110
3, 263292, Note_off_c, 1, 48, 100
3, 263296, Note_on_c, 1, 50, 110
3, 263416, Control_c, 1, 64, 0
3, 263420, Note_off_c, 1, 50, 100
3, 263424, Control_c, 1, 64, 127
3, 263424, Note_on_c, 1, 43, 110
3, 263548, Note_off_c, 1, 43, 100
3, 263552, Note_on_c, 1, 47, 110
3, 263676, Note_off_c, 1, 47, 100
3, 263680, Note_on_c, 1, 50, 110
3, 263800, Control_c, 1, 64, 0
3, 263804, Note_off_c, 1, 50, 100
3, 263808, Control_c, 1, 64, 127
3, 263808, Note_on_c, 1, 43, 110
3, 263932, Note_off_c, 1, 43, 100
3, 263936, Note_on_c, 1, 48, 110
3, 264060, Note_off_c, 1, 48, 100
3, 264064, Note_on_c, 1, 50, 110
3, 264184, Control_c, 1, 64, 0
3, 264188, Note_off_c, 1, 50, 100
3, 264192, Note_on_c, 1, 43, 110
3, 264572, Note_off_c, 1, 43, 100
3, 264960, Note_on_c, 1, 50, 110
3, 264960, Note_on_c, 1, 38, 110
3, 265340, Note_off_c, 1, 50, 100
3, 265340, Note_off_c, 1, 38, 100
3, 265728, Note_on_c, 1, 43, 110
3, 265728, Note_on_c, 1, 31, 110
3, 266492, Note_off_c, 1, 43, 100
3, 266492, Note_off_c, 1, 31, 100
3, 266492, End_track
4, 0, Start_track
4, 0, Key_signature, 0, "major"
4, 0, Control_c, 0, 7, 100
4, 0, Control_c, 0, 64, 127
4, 0, Control_c, 1, 7, 100
4, 376, Control_c, 0, 64, 0
4, 384, Control_c, 0, 64, 127
4, 760, Control_c, 0, 64, 0
4, 768, Control_c, 0, 64, 127
4, 1144, Control_c, 0, 64, 0
4, 1152, Control_c, 0, 64, 127
4, 1528, Control_c, 0, 64, 0
4, 1528, End_track
5, 0, Start_track
5, 0, Control_c, 0, 0, 0
5, 0, Program_c, 0, 0
5, 0, Control_c, 0, 7, 100
5, 0, Control_c, 0, 10, 73
5, 0, Control_c, 0, 91, 127
5, 0, Key_signature, 0, "major"
5, 27648, Control_c, 0, 64, 127
5, 28024, Control_c, 0, 64, 0
5, 28032, Control_c, 0, 64, 127
5, 28408, Control_c, 0, 64, 0
5, 28416, Control_c, 0, 64, 127
5, 28792, Control_c, 0, 64, 0
5, 28800, Control_c, 0, 64, 127
5, 29176, Control_c, 0, 64, 0
5, 29176, End_track
0, 0, End_of_file
