0, 0, Header, 1, 4, 384
1, 0, Start_track
1, 0, Title_t, "L.v.Beethoven 1mov - Piano Sonata No.21 in C Major Op.53\000"
1, 0, Copyright_t, "Copyright(C) 1995-2009, Suzuki Software\000"
1, 0, Sequencer_specific, 9, 67, 123, 0, 88, 70, 48, 50, 0, 1
1, 0, Text_t, "XFhd:2000/08/06:JP:Classical::::L.v.Beethoven:::Kaoru Suzuki\000"
1, 0, Text_t, "XFln:JP:\203s\203A\203m\203\\\203i\203^\221æ21\224Ô\203n\222·\222²\215ì\225i53\201`\221æ1\212y\217Í:L.v.\203x\201[\203g\201[\203\224\203F\203\223:::\227é\202¿\202á\202ñ:\227é\202¿\202á\202ñ\000"
1, 0, Time_signature, 4, 2, 96, 8
1, 0, Sequencer_specific, 3, 0, 0, 65
1, 0, Sequencer_specific, 5, 0, 0, 119, 14, 0
1, 0, Tempo, 375000
1, 17664, Tempo, 500000
1, 19968, Tempo, 375000
1, 49152, Tempo, 428571
1, 51456, Tempo, 444444
1, 51840, Tempo, 500000
1, 52032, Tempo, 600000
1, 52224, Tempo, 444444
1, 56832, Tempo, 480000
1, 57600, Tempo, 461538
1, 58368, Tempo, 444444
1, 74496, Tempo, 428571
1, 75264, Tempo, 413793
1, 89088, Tempo, 400000
1, 90624, Tempo, 387096
1, 91392, Tempo, 375000
1, 99840, Tempo, 387096
1, 111744, Tempo, 400000
1, 130560, Tempo, 387096
1, 148224, Tempo, 500000
1, 150528, Tempo, 375000
1, 179712, Tempo, 428571
1, 182016, Tempo, 444444
1, 182400, Tempo, 500000
1, 182784, Tempo, 444444
1, 187008, Tempo, 480000
1, 187392, Tempo, 521739
1, 188160, Tempo, 480000
1, 188928, Tempo, 444444
1, 205824, Tempo, 413793
1, 219648, Tempo, 400000
1, 221184, Tempo, 387096
1, 222720, Tempo, 375000
1, 224256, Tempo, 387096
1, 230016, Tempo, 400000
1, 300288, Tempo, 444444
1, 301056, Tempo, 400000
1, 366720, Tempo, 428571
1, 367296, Tempo, 400000
1, 386304, Tempo, 500000
1, 386688, Tempo, 600000
1, 388608, Tempo, 413793
1, 389376, Tempo, 500000
1, 389760, Tempo, 666666
1, 391680, Tempo, 400000
1, 428544, Tempo, 428571
1, 428928, Tempo, 461538
1, 429696, Tempo, 545454
1, 430272, Tempo, 461538
1, 433920, Tempo, 480000
1, 434304, Tempo, 521739
1, 434688, Tempo, 512820
1, 435456, Tempo, 495867
1, 435840, Tempo, 480000
1, 436224, Tempo, 461538
1, 440832, Tempo, 444444
1, 441600, Tempo, 428571
1, 446592, Tempo, 461538
1, 446976, Tempo, 480000
1, 447360, Tempo, 444444
1, 447744, Tempo, 428571
1, 453120, Tempo, 413793
1, 453888, Tempo, 400000
1, 465408, Tempo, 387096
1, 466944, Tempo, 375000
1, 488448, Tempo, 387096
1, 489024, Tempo, 400000
1, 489600, Tempo, 428571
1, 489792, Tempo, 500000
1, 489984, Tempo, 397350
1, 510720, Tempo, 410958
1, 511104, Tempo, 428571
1, 511680, Tempo, 379746
1, 561024, Tempo, 387096
1, 561408, Tempo, 400000
1, 561792, Tempo, 461538
1, 561984, Tempo, 600000
1, 562176, Tempo, 666666
1, 565056, Tempo, 857142
1, 565248, Tempo, 461538
1, 574464, Tempo, 480000
1, 575232, Tempo, 500000
1, 575616, Tempo, 2000000
1, 576000, Tempo, 461538
1, 577536, Tempo, 666666
1, 578304, Tempo, 1000000
1, 579072, Tempo, 461538
1, 580608, Tempo, 666666
1, 581376, Tempo, 1000000
1, 582144, Tempo, 375000
1, 590976, Tempo, 461538
1, 592512, Tempo, 600000
1, 592512, End_track
2, 0, Start_track
2, 0, Title_t, "Right"
2, 0, Control_c, 0, 0, 0
2, 0, Program_c, 0, 0
2, 0, Control_c, 0, 7, 100
2, 0, Control_c, 0, 10, 72
2, 0, Control_c, 0, 91, 127
2, 0, Key_signature, 0, "major"
2, 192, Note_on_c, 0, 52, 80
2, 192, Note_on_c, 0, 48, 80
2, 380, Note_off_c, 0, 52, 100
2, 380, Note_off_c, 0, 48, 100
2, 384, Note_on_c, 0, 52, 80
2, 384, Note_on_c, 0, 48, 80
2, 572, Note_off_c, 0, 52, 100
2, 572, Note_off_c, 0, 48, 100
2, 576, Note_on_c, 0, 52, 80
2, 576, Note_on_c, 0, 48, 80
2, 764, Note_off_c, 0, 52, 100
2, 764, Note_off_c, 0, 48, 100
2, 768, Note_on_c, 0, 52, 80
2, 768, Note_on_c, 0, 48, 80
2, 956, Note_off_c, 0, 52, 100
2, 956, Note_off_c, 0, 48, 100
2, 960, Note_on_c, 0, 52, 80
2, 960, Note_on_c, 0, 48, 80
2, 1148, Note_off_c, 0, 52, 100
2, 1148, Note_off_c, 0, 48, 100
2, 1152, Note_on_c, 0, 52, 80
2, 1152, Note_on_c, 0, 48, 80
2, 1340, Note_off_c, 0, 52, 100
2, 1340, Note_off_c, 0, 48, 100
2, 1344, Note_on_c, 0, 52, 80
2, 1344, Note_on_c, 0, 48, 80
2, 1532, Note_off_c, 0, 52, 100
2, 1532, Note_off_c, 0, 48, 100
2, 1536, Note_on_c, 0, 52, 80
2, 1536, Note_on_c, 0, 48, 80
2, 1724, Note_off_c, 0, 52, 100
2, 1724, Note_off_c, 0, 48, 100
2, 1728, Note_on_c, 0, 52, 80
2, 1728, Note_on_c, 0, 48, 80
2, 1916, Note_off_c, 0, 52, 100
2, 1916, Note_off_c, 0, 48, 100
2, 1920, Note_on_c, 0, 52, 80
2, 1920, Note_on_c, 0, 48, 80
2, 2108, Note_off_c, 0, 52, 100
2, 2108, Note_off_c, 0, 48, 100
2, 2112, Note_on_c, 0, 52, 80
2, 2112, Note_on_c, 0, 48, 80
2, 2300, Note_off_c, 0, 52, 100
2, 2300, Note_off_c, 0, 48, 100
2, 2304, Note_on_c, 0, 52, 80
2, 2304, Note_on_c, 0, 48, 80
2, 2492, Note_off_c, 0, 52, 100
2, 2492, Note_off_c, 0, 48, 100
2, 2496, Note_on_c, 0, 52, 80
2, 2496, Note_on_c, 0, 48, 80
2, 2684, Note_off_c, 0, 52, 100
2, 2684, Note_off_c, 0, 48, 100
2, 2688, Note_on_c, 0, 54, 80
2, 2688, Note_on_c, 0, 50, 80
2, 2876, Note_off_c, 0, 54, 100
2, 2876, Note_off_c, 0, 50, 100
2, 2880, Note_on_c, 0, 54, 80
2, 2880, Note_on_c, 0, 50, 80
2, 3068, Note_off_c, 0, 54, 100
2, 3068, Note_off_c, 0, 50, 100
2, 3072, Note_on_c, 0, 55, 80
2, 3072, Note_on_c, 0, 50, 80
2, 3644, Note_off_c, 0, 55, 100
2, 3644, Note_off_c, 0, 50, 100
2, 3648, Note_on_c, 0, 59, 80
2, 3740, Note_off_c, 0, 59, 100
2, 3744, Note_on_c, 0, 57, 80
2, 3836, Note_off_c, 0, 57, 100
2, 3840, Note_on_c, 0, 55, 80
2, 4028, Note_off_c, 0, 55, 100
2, 4608, Note_on_c, 0, 85, 80
2, 4700, Note_off_c, 0, 85, 100
2, 4704, Note_on_c, 0, 86, 80
2, 5084, Note_off_c, 0, 86, 100
2, 5088, Note_on_c, 0, 84, 80
2, 5180, Note_off_c, 0, 84, 100
2, 5184, Note_on_c, 0, 83, 80
2, 5276, Note_off_c, 0, 83, 100
2, 5280, Note_on_c, 0, 81, 80
2, 5372, Note_off_c, 0, 81, 100
2, 5376, Note_on_c, 0, 79, 80
2, 5756, Note_off_c, 0, 79, 100
2, 6144, Note_on_c, 0, 50, 80
2, 6144, Note_on_c, 0, 46, 80
2, 6332, Note_off_c, 0, 50, 100
2, 6332, Note_off_c, 0, 46, 100
2, 6336, Note_on_c, 0, 50, 80
2, 6336, Note_on_c, 0, 46, 80
2, 6524, Note_off_c, 0, 50, 100
2, 6524, Note_off_c, 0, 46, 100
2, 6528, Note_on_c, 0, 50, 80
2, 6528, Note_on_c, 0, 46, 80
2, 6716, Note_off_c, 0, 50, 100
2, 6716, Note_off_c, 0, 46, 100
2, 6720, Note_on_c, 0, 50, 80
2, 6720, Note_on_c, 0, 46, 80
2, 6908, Note_off_c, 0, 50, 100
2, 6908, Note_off_c, 0, 46, 100
2, 6912, Note_on_c, 0, 50, 80
2, 6912, Note_on_c, 0, 46, 80
2, 7100, Note_off_c, 0, 50, 100
2, 7100, Note_off_c, 0, 46, 100
2, 7104, Note_on_c, 0, 50, 80
2, 7104, Note_on_c, 0, 46, 80
2, 7292, Note_off_c, 0, 50, 100
2, 7292, Note_off_c, 0, 46, 100
2, 7296, Note_on_c, 0, 50, 80
2, 7296, Note_on_c, 0, 46, 80
2, 7484, Note_off_c, 0, 50, 100
2, 7484, Note_off_c, 0, 46, 100
2, 7488, Note_on_c, 0, 50, 80
2, 7488, Note_on_c, 0, 46, 80
2, 7676, Note_off_c, 0, 50, 100
2, 7676, Note_off_c, 0, 46, 100
2, 7680, Note_on_c, 0, 50, 80
2, 7680, Note_on_c, 0, 46, 80
2, 7868, Note_off_c, 0, 50, 100
2, 7868, Note_off_c, 0, 46, 100
2, 7872, Note_on_c, 0, 50, 80
2, 7872, Note_on_c, 0, 46, 80
2, 8060, Note_off_c, 0, 50, 100
2, 8060, Note_off_c, 0, 46, 100
2, 8064, Note_on_c, 0, 50, 80
2, 8064, Note_on_c, 0, 46, 80
2, 8252, Note_off_c, 0, 50, 100
2, 8252, Note_off_c, 0, 46, 100
2, 8256, Note_on_c, 0, 50, 80
2, 8256, Note_on_c, 0, 46, 80
2, 8444, Note_off_c, 0, 50, 100
2, 8444, Note_off_c, 0, 46, 100
2, 8448, Note_on_c, 0, 50, 80
2, 8448, Note_on_c, 0, 46, 80
2, 8636, Note_off_c, 0, 50, 100
2, 8636, Note_off_c, 0, 46, 100
2, 8640, Note_on_c, 0, 50, 80
2, 8640, Note_on_c, 0, 46, 80
2, 8828, Note_off_c, 0, 50, 100
2, 8828, Note_off_c, 0, 46, 100
2, 8832, Note_on_c, 0, 52, 80
2, 8832, Note_on_c, 0, 48, 80
2, 9020, Note_off_c, 0, 52, 100
2, 9020, Note_off_c, 0, 48, 100
2, 9024, Note_on_c, 0, 52, 80
2, 9024, Note_on_c, 0, 48, 80
2, 9212, Note_off_c, 0, 52, 100
2, 9212, Note_off_c, 0, 48, 100
2, 9216, Note_on_c, 0, 53, 80
2, 9216, Note_on_c, 0, 48, 80
2, 9788, Note_off_c, 0, 53, 100
2, 9788, Note_off_c, 0, 48, 100
2, 9792, Note_on_c, 0, 57, 80
2, 9884, Note_off_c, 0, 57, 100
2, 9888, Note_on_c, 0, 55, 80
2, 9980, Note_off_c, 0, 55, 100
2, 9984, Note_on_c, 0, 53, 80
2, 10172, Note_off_c, 0, 53, 100
2, 10752, Note_on_c, 0, 83, 80
2, 10844, Note_off_c, 0, 83, 100
2, 10848, Note_on_c, 0, 84, 80
2, 11228, Note_off_c, 0, 84, 100
2, 11232, Note_on_c, 0, 82, 80
2, 11324, Note_off_c, 0, 82, 100
2, 11328, Note_on_c, 0, 80, 80
2, 11420, Note_off_c, 0, 80, 100
2, 11424, Note_on_c, 0, 79, 80
2, 11516, Note_off_c, 0, 79, 100
2, 11520, Note_on_c, 0, 77, 80
2, 11900, Note_off_c, 0, 77, 100
2, 12288, Note_on_c, 0, 88, 80
2, 12380, Note_off_c, 0, 88, 100
2, 12384, Note_on_c, 0, 89, 80
2, 13436, Note_off_c, 0, 89, 100
2, 13440, Note_on_c, 0, 89, 91
2, 13532, Note_off_c, 0, 89, 100
2, 13536, Note_on_c, 0, 87, 92
2, 13628, Note_off_c, 0, 87, 100
2, 13632, Note_on_c, 0, 86, 93
2, 13724, Note_off_c, 0, 86, 100
2, 13728, Note_on_c, 0, 84, 94
2, 13820, Note_off_c, 0, 84, 100
2, 13824, Note_on_c, 0, 83, 95
2, 13916, Note_off_c, 0, 83, 100
2, 13920, Note_on_c, 0, 84, 96
2, 14012, Note_off_c, 0, 84, 100
2, 14016, Note_on_c, 0, 86, 97
2, 14108, Note_off_c, 0, 86, 100
2, 14112, Note_on_c, 0, 87, 98
2, 14204, Note_off_c, 0, 87, 100
2, 14208, Note_on_c, 0, 89, 99
2, 14300, Note_off_c, 0, 89, 100
2, 14304, Note_on_c, 0, 87, 100
2, 14396, Note_off_c, 0, 87, 100
2, 14400, Note_on_c, 0, 86, 101
2, 14492, Note_off_c, 0, 86, 100
2, 14496, Note_on_c, 0, 84, 102
2, 14588, Note_off_c, 0, 84, 100
2, 14592, Note_on_c, 0, 83, 103
2, 14684, Note_off_c, 0, 83, 100
2, 14688, Note_on_c, 0, 84, 104
2, 14780, Note_off_c, 0, 84, 100
2, 14784, Note_on_c, 0, 86, 105
2, 14876, Note_off_c, 0, 86, 100
2, 14880, Note_on_c, 0, 87, 106
2, 14972, Note_off_c, 0, 87, 100
2, 14976, Note_on_c, 0, 89, 107
2, 15068, Note_off_c, 0, 89, 100
2, 15072, Note_on_c, 0, 87, 108
2, 15164, Note_off_c, 0, 87, 100
2, 15168, Note_on_c, 0, 86, 108
2, 15260, Note_off_c, 0, 86, 100
2, 15264, Note_on_c, 0, 84, 109
2, 15356, Note_off_c, 0, 84, 100
2, 15360, Note_on_c, 0, 83, 110
2, 15452, Note_off_c, 0, 83, 100
2, 15456, Note_on_c, 0, 84, 110
2, 15548, Note_off_c, 0, 84, 100
2, 15552, Note_on_c, 0, 86, 110
2, 15644, Note_off_c, 0, 86, 100
2, 15648, Note_on_c, 0, 87, 110
2, 15740, Note_off_c, 0, 87, 100
2, 15744, Note_on_c, 0, 89, 110
2, 15836, Note_off_c, 0, 89, 100
2, 15840, Note_on_c, 0, 87, 110
2, 15932, Note_off_c, 0, 87, 100
2, 15936, Note_on_c, 0, 86, 110
2, 16028, Note_off_c, 0, 86, 100
2, 16032, Note_on_c, 0, 84, 110
2, 16124, Note_off_c, 0, 84, 100
2, 16128, Note_on_c, 0, 83, 110
2, 16220, Note_off_c, 0, 83, 100
2, 16224, Note_on_c, 0, 80, 110
2, 16316, Note_off_c, 0, 80, 100
2, 16320, Note_on_c, 0, 79, 110
2, 16412, Note_off_c, 0, 79, 100
2, 16416, Note_on_c, 0, 77, 110
2, 16508, Note_off_c, 0, 77, 100
2, 16512, Note_on_c, 0, 75, 110
2, 16604, Note_off_c, 0, 75, 100
2, 16608, Note_on_c, 0, 74, 110
2, 16700, Note_off_c, 0, 74, 100
2, 16704, Note_on_c, 0, 72, 110
2, 16796, Note_off_c, 0, 72, 100
2, 16800, Note_on_c, 0, 71, 110
2, 16892, Note_off_c, 0, 71, 100
2, 16896, Note_on_c, 0, 72, 100
2, 17084, Note_off_c, 0, 72, 100
2, 17280, Note_on_c, 0, 67, 96
2, 17468, Note_off_c, 0, 67, 100
2, 17664, Note_on_c, 0, 63, 91
2, 17852, Note_off_c, 0, 63, 100
2, 18048, Note_on_c, 0, 60, 86
2, 18236, Note_off_c, 0, 60, 100
2, 18432, Note_on_c, 0, 55, 81
2, 19964, Note_off_c, 0, 55, 100
2, 19968, Note_on_c, 0, 64, 80
2, 20064, Note_on_c, 0, 60, 80
2, 20136, Note_off_c, 0, 64, 100
2, 20160, Note_on_c, 0, 64, 80
2, 20236, Note_off_c, 0, 60, 100
2, 20256, Note_on_c, 0, 60, 80
2, 20324, Note_off_c, 0, 64, 100
2, 20352, Note_on_c, 0, 64, 80
2, 20424, Note_off_c, 0, 60, 100
2, 20448, Note_on_c, 0, 60, 80
2, 20508, Note_off_c, 0, 64, 100
2, 20544, Note_on_c, 0, 64, 80
2, 20604, Note_off_c, 0, 60, 100
2, 20640, Note_on_c, 0, 60, 80
2, 20712, Note_off_c, 0, 64, 100
2, 20736, Note_on_c, 0, 64, 80
2, 20812, Note_off_c, 0, 60, 100
2, 20832, Note_on_c, 0, 60, 80
2, 20916, Note_off_c, 0, 64, 100
2, 20928, Note_on_c, 0, 64, 80
2, 20996, Note_off_c, 0, 60, 100
2, 21024, Note_on_c, 0, 60, 80
2, 21100, Note_off_c, 0, 64, 100
2, 21120, Note_on_c, 0, 64, 80
2, 21188, Note_off_c, 0, 60, 100
2, 21216, Note_on_c, 0, 60, 80
2, 21272, Note_off_c, 0, 64, 100
2, 21312, Note_on_c, 0, 64, 80
2, 21380, Note_off_c, 0, 60, 100
2, 21408, Note_on_c, 0, 60, 80
2, 21464, Note_off_c, 0, 64, 100
2, 21504, Note_on_c, 0, 64, 80
2, 21568, Note_off_c, 0, 60, 100
2, 21600, Note_on_c, 0, 60, 80
2, 21660, Note_off_c, 0, 64, 100
2, 21696, Note_on_c, 0, 64, 80
2, 21780, Note_off_c, 0, 60, 100
2, 21792, Note_on_c, 0, 60, 80
2, 21860, Note_off_c, 0, 64, 100
2, 21888, Note_on_c, 0, 64, 80
2, 21956, Note_off_c, 0, 60, 100
2, 21984, Note_on_c, 0, 60, 80
2, 22056, Note_off_c, 0, 64, 100
2, 22080, Note_on_c, 0, 64, 80
2, 22152, Note_off_c, 0, 60, 100
2, 22176, Note_on_c, 0, 60, 80
2, 22228, Note_off_c, 0, 64, 100
2, 22272, Note_on_c, 0, 64, 80
2, 22324, Note_off_c, 0, 60, 100
2, 22368, Note_on_c, 0, 60, 80
2, 22440, Note_off_c, 0, 64, 100
2, 22464, Note_on_c, 0, 64, 80
2, 22528, Note_off_c, 0, 60, 100
2, 22560, Note_on_c, 0, 60, 80
2, 22616, Note_off_c, 0, 64, 100
2, 22656, Note_on_c, 0, 66, 80
2, 22716, Note_off_c, 0, 60, 100
2, 22752, Note_on_c, 0, 62, 80
2, 22816, Note_off_c, 0, 66, 100
2, 22848, Note_on_c, 0, 66, 80
2, 22908, Note_off_c, 0, 62, 100
2, 22944, Note_on_c, 0, 62, 80
2, 23016, Note_off_c, 0, 66, 100
2, 23036, Note_off_c, 0, 62, 100
2, 23040, Note_on_c, 0, 67, 80
2, 23612, Note_off_c, 0, 67, 100
2, 23616, Note_on_c, 0, 71, 80
2, 23708, Note_off_c, 0, 71, 100
2, 23712, Note_on_c, 0, 69, 80
2, 23804, Note_off_c, 0, 69, 100
2, 23808, Note_on_c, 0, 67, 80
2, 23996, Note_off_c, 0, 67, 100
2, 24576, Note_on_c, 0, 85, 80
2, 24668, Note_off_c, 0, 85, 100
2, 24672, Note_on_c, 0, 86, 80
2, 25052, Note_off_c, 0, 86, 100
2, 25056, Note_on_c, 0, 84, 80
2, 25148, Note_off_c, 0, 84, 100
2, 25152, Note_on_c, 0, 83, 80
2, 25244, Note_off_c, 0, 83, 100
2, 25248, Note_on_c, 0, 81, 80
2, 25340, Note_off_c, 0, 81, 100
2, 25344, Note_on_c, 0, 79, 80
2, 25724, Note_off_c, 0, 79, 100
2, 26112, Note_on_c, 0, 65, 80
2, 26204, Note_off_c, 0, 65, 100
2, 26208, Note_on_c, 0, 62, 80
2, 26300, Note_off_c, 0, 62, 100
2, 26304, Note_on_c, 0, 65, 80
2, 26396, Note_off_c, 0, 65, 100
2, 26400, Note_on_c, 0, 62, 80
2, 26492, Note_off_c, 0, 62, 100
2, 26496, Note_on_c, 0, 65, 80
2, 26588, Note_off_c, 0, 65, 100
2, 26592, Note_on_c, 0, 62, 80
2, 26684, Note_off_c, 0, 62, 100
2, 26688, Note_on_c, 0, 65, 80
2, 26780, Note_off_c, 0, 65, 100
2, 26784, Note_on_c, 0, 62, 80
2, 26876, Note_off_c, 0, 62, 100
2, 26880, Note_on_c, 0, 65, 80
2, 26972, Note_off_c, 0, 65, 100
2, 26976, Note_on_c, 0, 62, 80
2, 27068, Note_off_c, 0, 62, 100
2, 27072, Note_on_c, 0, 65, 80
2, 27164, Note_off_c, 0, 65, 100
2, 27168, Note_on_c, 0, 62, 80
2, 27260, Note_off_c, 0, 62, 100
2, 27264, Note_on_c, 0, 65, 80
2, 27356, Note_off_c, 0, 65, 100
2, 27360, Note_on_c, 0, 62, 80
2, 27452, Note_off_c, 0, 62, 100
2, 27456, Note_on_c, 0, 65, 80
2, 27548, Note_off_c, 0, 65, 100
2, 27552, Note_on_c, 0, 62, 80
2, 27644, Note_off_c, 0, 62, 100
2, 27648, Note_on_c, 0, 65, 80
2, 27740, Note_off_c, 0, 65, 100
2, 27744, Note_on_c, 0, 62, 80
2, 27836, Note_off_c, 0, 62, 100
2, 27840, Note_on_c, 0, 65, 80
2, 27932, Note_off_c, 0, 65, 100
2, 27936, Note_on_c, 0, 62, 80
2, 28028, Note_off_c, 0, 62, 100
2, 28032, Note_on_c, 0, 65, 80
2, 28124, Note_off_c, 0, 65, 100
2, 28128, Note_on_c, 0, 62, 80
2, 28220, Note_off_c, 0, 62, 100
2, 28224, Note_on_c, 0, 65, 80
2, 28316, Note_off_c, 0, 65, 100
2, 28320, Note_on_c, 0, 62, 80
2, 28412, Note_off_c, 0, 62, 100
2, 28416, Note_on_c, 0, 65, 80
2, 28508, Note_off_c, 0, 65, 100
2, 28512, Note_on_c, 0, 62, 80
2, 28604, Note_off_c, 0, 62, 100
2, 28608, Note_on_c, 0, 65, 80
2, 28700, Note_off_c, 0, 65, 100
2, 28704, Note_on_c, 0, 62, 80
2, 28796, Note_off_c, 0, 62, 100
2, 28800, Note_on_c, 0, 68, 80
2, 28892, Note_off_c, 0, 68, 100
2, 28896, Note_on_c, 0, 64, 80
2, 28988, Note_off_c, 0, 64, 100
2, 28992, Note_on_c, 0, 68, 80
2, 29084, Note_off_c, 0, 68, 100
2, 29088, Note_on_c, 0, 64, 80
2, 29180, Note_off_c, 0, 64, 100
2, 29184, Note_on_c, 0, 69, 80
2, 29756, Note_off_c, 0, 69, 100
2, 29760, Note_on_c, 0, 72, 80
2, 29852, Note_off_c, 0, 72, 100
2, 29856, Note_on_c, 0, 71, 80
2, 29948, Note_off_c, 0, 71, 100
2, 29952, Note_on_c, 0, 69, 80
2, 30140, Note_off_c, 0, 69, 100
2, 30720, Note_on_c, 0, 87, 80
2, 30812, Note_off_c, 0, 87, 100
2, 30816, Note_on_c, 0, 88, 80
2, 31196, Note_off_c, 0, 88, 100
2, 31200, Note_on_c, 0, 86, 84
2, 31292, Note_off_c, 0, 86, 100
2, 31296, Note_on_c, 0, 84, 85
2, 31388, Note_off_c, 0, 84, 100
2, 31392, Note_on_c, 0, 83, 86
2, 31484, Note_off_c, 0, 83, 100
2, 31488, Note_on_c, 0, 81, 87
2, 31868, Note_off_c, 0, 81, 100
2, 32256, Note_on_c, 0, 87, 95
2, 32348, Note_off_c, 0, 87, 100
2, 32352, Note_on_c, 0, 88, 96
2, 32732, Note_off_c, 0, 88, 100
2, 32736, Note_on_c, 0, 86, 100
2, 32828, Note_off_c, 0, 86, 100
2, 32832, Note_on_c, 0, 84, 101
2, 32924, Note_off_c, 0, 84, 100
2, 32928, Note_on_c, 0, 83, 102
2, 33020, Note_off_c, 0, 83, 100
2, 33024, Note_on_c, 0, 82, 103
2, 33404, Note_off_c, 0, 82, 100
2, 33792, Note_on_c, 0, 83, 80
2, 34268, Note_off_c, 0, 83, 100
2, 34272, Note_on_c, 0, 81, 80
2, 34364, Note_off_c, 0, 81, 100
2, 34368, Note_on_c, 0, 79, 80
2, 34460, Note_off_c, 0, 79, 100
2, 34464, Note_on_c, 0, 78, 80
2, 34556, Note_off_c, 0, 78, 100
2, 34560, Note_on_c, 0, 79, 80
2, 34652, Note_off_c, 0, 79, 100
2, 34656, Note_on_c, 0, 78, 80
2, 34748, Note_off_c, 0, 78, 100
2, 34752, Note_on_c, 0, 76, 80
2, 34844, Note_off_c, 0, 76, 100
2, 34848, Note_on_c, 0, 75, 80
2, 34940, Note_off_c, 0, 75, 100
2, 34944, Note_on_c, 0, 76, 80
2, 35036, Note_off_c, 0, 76, 100
2, 35040, Note_on_c, 0, 79, 80
2, 35132, Note_off_c, 0, 79, 100
2, 35136, Note_on_c, 0, 78, 80
2, 35228, Note_off_c, 0, 78, 100
2, 35232, Note_on_c, 0, 76, 80
2, 35324, Note_off_c, 0, 76, 100
2, 35328, Note_on_c, 0, 75, 80
2, 35420, Note_off_c, 0, 75, 100
2, 35424, Note_on_c, 0, 73, 80
2, 35516, Note_off_c, 0, 73, 100
2, 35520, Note_on_c, 0, 71, 80
2, 35612, Note_off_c, 0, 71, 100
2, 35616, Note_on_c, 0, 70, 80
2, 35708, Note_off_c, 0, 70, 100
2, 35712, Note_on_c, 0, 71, 80
2, 35804, Note_off_c, 0, 71, 100
2, 35808, Note_on_c, 0, 73, 80
2, 35900, Note_off_c, 0, 73, 100
2, 35904, Note_on_c, 0, 74, 80
2, 35996, Note_off_c, 0, 74, 100
2, 36000, Note_on_c, 0, 75, 80
2, 36092, Note_off_c, 0, 75, 100
2, 36096, Note_on_c, 0, 76, 80
2, 36188, Note_off_c, 0, 76, 100
2, 36192, Note_on_c, 0, 75, 80
2, 36284, Note_off_c, 0, 75, 100
2, 36288, Note_on_c, 0, 76, 80
2, 36380, Note_off_c, 0, 76, 100
2, 36384, Note_on_c, 0, 78, 80
2, 36476, Note_off_c, 0, 78, 100
2, 36480, Note_on_c, 0, 79, 80
2, 36572, Note_off_c, 0, 79, 100
2, 36576, Note_on_c, 0, 80, 80
2, 36668, Note_off_c, 0, 80, 100
2, 36672, Note_on_c, 0, 81, 80
2, 36764, Note_off_c, 0, 81, 100
2, 36768, Note_on_c, 0, 82, 80
2, 36860, Note_off_c, 0, 82, 100
2, 36864, Note_on_c, 0, 83, 80
2, 36956, Note_off_c, 0, 83, 100
2, 36960, Note_on_c, 0, 82, 80
2, 37052, Note_off_c, 0, 82, 100
2, 37056, Note_on_c, 0, 83, 80
2, 37148, Note_off_c, 0, 83, 100
2, 37152, Note_on_c, 0, 82, 80
2, 37244, Note_off_c, 0, 82, 100
2, 37248, Note_on_c, 0, 83, 80
2, 37340, Note_off_c, 0, 83, 100
2, 37344, Note_on_c, 0, 81, 80
2, 37436, Note_off_c, 0, 81, 100
2, 37440, Note_on_c, 0, 79, 80
2, 37532, Note_off_c, 0, 79, 100
2, 37536, Note_on_c, 0, 78, 80
2, 37628, Note_off_c, 0, 78, 100
2, 37632, Note_on_c, 0, 79, 80
2, 37724, Note_off_c, 0, 79, 100
2, 37728, Note_on_c, 0, 78, 80
2, 37820, Note_off_c, 0, 78, 100
2, 37824, Note_on_c, 0, 76, 80
2, 37916, Note_off_c, 0, 76, 100
2, 37920, Note_on_c, 0, 75, 80
2, 38012, Note_off_c, 0, 75, 100
2, 38016, Note_on_c, 0, 76, 80
2, 38108, Note_off_c, 0, 76, 100
2, 38112, Note_on_c, 0, 79, 80
2, 38204, Note_off_c, 0, 79, 100
2, 38208, Note_on_c, 0, 78, 80
2, 38300, Note_off_c, 0, 78, 100
2, 38304, Note_on_c, 0, 76, 80
2, 38396, Note_off_c, 0, 76, 100
2, 38400, Note_on_c, 0, 75, 80
2, 38492, Note_off_c, 0, 75, 100
2, 38496, Note_on_c, 0, 73, 80
2, 38588, Note_off_c, 0, 73, 100
2, 38592, Note_on_c, 0, 71, 80
2, 38684, Note_off_c, 0, 71, 100
2, 38688, Note_on_c, 0, 70, 80
2, 38780, Note_off_c, 0, 70, 100
2, 38784, Note_on_c, 0, 71, 80
2, 38876, Note_off_c, 0, 71, 100
2, 38880, Note_on_c, 0, 73, 80
2, 38972, Note_off_c, 0, 73, 100
2, 38976, Note_on_c, 0, 74, 80
2, 39068, Note_off_c, 0, 74, 100
2, 39072, Note_on_c, 0, 75, 80
2, 39164, Note_off_c, 0, 75, 100
2, 39168, Note_on_c, 0, 76, 80
2, 39260, Note_off_c, 0, 76, 100
2, 39264, Note_on_c, 0, 75, 80
2, 39356, Note_off_c, 0, 75, 100
2, 39360, Note_on_c, 0, 76, 80
2, 39452, Note_off_c, 0, 76, 100
2, 39456, Note_on_c, 0, 78, 80
2, 39548, Note_off_c, 0, 78, 100
2, 39552, Note_on_c, 0, 79, 80
2, 39644, Note_off_c, 0, 79, 100
2, 39648, Note_on_c, 0, 80, 80
2, 39740, Note_off_c, 0, 80, 100
2, 39744, Note_on_c, 0, 81, 80
2, 39836, Note_off_c, 0, 81, 100
2, 39840, Note_on_c, 0, 82, 80
2, 39932, Note_off_c, 0, 82, 100
2, 39936, Note_on_c, 0, 83, 80
2, 40028, Note_off_c, 0, 83, 100
2, 40032, Note_on_c, 0, 78, 82
2, 40124, Note_off_c, 0, 78, 100
2, 40128, Note_on_c, 0, 75, 84
2, 40220, Note_off_c, 0, 75, 100
2, 40224, Note_on_c, 0, 71, 86
2, 40316, Note_off_c, 0, 71, 100
2, 40320, Note_on_c, 0, 70, 88
2, 40412, Note_off_c, 0, 70, 100
2, 40416, Note_on_c, 0, 71, 90
2, 40508, Note_off_c, 0, 71, 100
2, 40512, Note_on_c, 0, 76, 92
2, 40604, Note_off_c, 0, 76, 100
2, 40608, Note_on_c, 0, 79, 94
2, 40700, Note_off_c, 0, 79, 100
2, 40704, Note_on_c, 0, 83, 96
2, 40796, Note_off_c, 0, 83, 100
2, 40800, Note_on_c, 0, 78, 98
2, 40892, Note_off_c, 0, 78, 100
2, 40896, Note_on_c, 0, 75, 100
2, 40988, Note_off_c, 0, 75, 100
2, 40992, Note_on_c, 0, 71, 102
2, 41084, Note_off_c, 0, 71, 100
2, 41088, Note_on_c, 0, 70, 104
2, 41180, Note_off_c, 0, 70, 100
2, 41184, Note_on_c, 0, 71, 106
2, 41276, Note_off_c, 0, 71, 100
2, 41280, Note_on_c, 0, 76, 108
2, 41372, Note_off_c, 0, 76, 100
2, 41376, Note_on_c, 0, 79, 110
2, 41468, Note_off_c, 0, 79, 100
2, 41472, Control_c, 0, 64, 127
2, 41472, Note_on_c, 0, 83, 110
2, 41564, Note_off_c, 0, 83, 100
2, 41568, Note_on_c, 0, 78, 110
2, 41660, Note_off_c, 0, 78, 100
2, 41664, Note_on_c, 0, 75, 110
2, 41756, Note_off_c, 0, 75, 100
2, 41760, Note_on_c, 0, 71, 110
2, 41848, Control_c, 0, 64, 0
2, 41852, Note_off_c, 0, 71, 100
2, 41856, Control_c, 0, 64, 127
2, 41856, Note_on_c, 0, 83, 110
2, 41948, Note_off_c, 0, 83, 100
2, 41952, Note_on_c, 0, 79, 110
2, 42044, Note_off_c, 0, 79, 100
2, 42048, Note_on_c, 0, 76, 110
2, 42140, Note_off_c, 0, 76, 100
2, 42144, Note_on_c, 0, 71, 110
2, 42232, Control_c, 0, 64, 0
2, 42236, Note_off_c, 0, 71, 100
2, 42240, Control_c, 0, 64, 127
2, 42240, Note_on_c, 0, 83, 110
2, 42332, Note_off_c, 0, 83, 100
2, 42336, Note_on_c, 0, 78, 110
2, 42428, Note_off_c, 0, 78, 100
2, 42432, Note_on_c, 0, 75, 110
2, 42524, Note_off_c, 0, 75, 100
2, 42528, Note_on_c, 0, 71, 110
2, 42616, Control_c, 0, 64, 0
2, 42620, Note_off_c, 0, 71, 100
2, 42624, Control_c, 0, 64, 127
2, 42624, Note_on_c, 0, 83, 110
2, 42716, Note_off_c, 0, 83, 100
2, 42720, Note_on_c, 0, 79, 110
2, 42812, Note_off_c, 0, 79, 100
2, 42816, Note_on_c, 0, 76, 110
2, 42908, Note_off_c, 0, 76, 100
2, 42912, Note_on_c, 0, 71, 110
2, 43000, Control_c, 0, 64, 0
2, 43004, Note_off_c, 0, 71, 100
2, 43008, Control_c, 0, 64, 127
2, 43008, Note_on_c, 0, 83, 110
2, 43100, Note_off_c, 0, 83, 100
2, 43104, Note_on_c, 0, 78, 110
2, 43196, Note_off_c, 0, 78, 100
2, 43200, Note_on_c, 0, 75, 110
2, 43292, Note_off_c, 0, 75, 100
2, 43296, Note_on_c, 0, 71, 110
2, 43384, Control_c, 0, 64, 0
2, 43388, Note_off_c, 0, 71, 100
2, 43392, Control_c, 0, 64, 127
2, 43392, Note_on_c, 0, 78, 110
2, 43484, Note_off_c, 0, 78, 100
2, 43488, Note_on_c, 0, 75, 110
2, 43580, Note_off_c, 0, 75, 100
2, 43584, Note_on_c, 0, 71, 110
2, 43676, Note_off_c, 0, 71, 100
2, 43680, Note_on_c, 0, 66, 110
2, 43768, Control_c, 0, 64, 0
2, 43772, Note_off_c, 0, 66, 100
2, 43776, Control_c, 0, 64, 127
2, 43776, Note_on_c, 0, 75, 110
2, 43868, Note_off_c, 0, 75, 100
2, 43872, Note_on_c, 0, 71, 110
2, 43964, Note_off_c, 0, 71, 100
2, 43968, Note_on_c, 0, 66, 110
2, 44060, Note_off_c, 0, 66, 100
2, 44064, Note_on_c, 0, 63, 110
2, 44152, Control_c, 0, 64, 0
2, 44156, Note_off_c, 0, 63, 100
2, 44160, Control_c, 0, 64, 127
2, 44160, Note_on_c, 0, 71, 110
2, 44252, Note_off_c, 0, 71, 100
2, 44256, Note_on_c, 0, 66, 110
2, 44348, Note_off_c, 0, 66, 100
2, 44352, Note_on_c, 0, 63, 110
2, 44444, Note_off_c, 0, 63, 100
2, 44448, Note_on_c, 0, 59, 110
2, 44536, Control_c, 0, 64, 0
2, 44540, Note_off_c, 0, 59, 100
2, 44544, Control_c, 0, 64, 127
2, 44544, Note_on_c, 0, 66, 110
2, 44636, Note_off_c, 0, 66, 100
2, 44640, Note_on_c, 0, 63, 110
2, 44732, Note_off_c, 0, 63, 100
2, 44736, Note_on_c, 0, 59, 110
2, 44828, Note_off_c, 0, 59, 100
2, 44832, Note_on_c, 0, 54, 110
2, 44920, Control_c, 0, 64, 0
2, 44924, Note_off_c, 0, 54, 100
2, 44928, Control_c, 0, 64, 127
2, 44928, Note_on_c, 0, 63, 110
2, 45020, Note_off_c, 0, 63, 100
2, 45024, Note_on_c, 0, 59, 110
2, 45116, Note_off_c, 0, 59, 100
2, 45120, Note_on_c, 0, 54, 110
2, 45212, Note_off_c, 0, 54, 100
2, 45216, Note_on_c, 0, 51, 110
2, 45304, Control_c, 0, 64, 0
2, 45308, Note_off_c, 0, 51, 100
2, 45312, Control_c, 0, 64, 127
2, 45312, Note_on_c, 0, 59, 110
2, 45404, Note_off_c, 0, 59, 100
2, 45408, Note_on_c, 0, 54, 110
2, 45500, Note_off_c, 0, 54, 100
2, 45504, Note_on_c, 0, 51, 110
2, 45596, Note_off_c, 0, 51, 100
2, 45600, Note_on_c, 0, 47, 110
2, 45688, Control_c, 0, 64, 0
2, 45692, Note_off_c, 0, 47, 100
2, 45696, Control_c, 0, 64, 127
2, 46072, Control_c, 0, 64, 0
2, 46848, Note_on_c, 0, 71, 103
2, 47036, Note_off_c, 0, 71, 100
2, 47040, Note_on_c, 0, 59, 101
2, 47228, Note_off_c, 0, 59, 100
2, 47232, Note_on_c, 0, 73, 99
2, 47420, Note_off_c, 0, 73, 100
2, 47424, Note_on_c, 0, 61, 97
2, 47612, Note_off_c, 0, 61, 100
2, 47616, Note_on_c, 0, 75, 95
2, 47804, Note_off_c, 0, 75, 100
2, 47808, Note_on_c, 0, 63, 93
2, 47996, Note_off_c, 0, 63, 100
2, 48384, Note_on_c, 0, 75, 87
2, 48572, Note_off_c, 0, 75, 100
2, 48576, Note_on_c, 0, 63, 85
2, 48764, Note_off_c, 0, 63, 100
2, 48768, Note_on_c, 0, 76, 83
2, 48956, Note_off_c, 0, 76, 100
2, 48960, Note_on_c, 0, 64, 81
2, 49148, Note_off_c, 0, 64, 100
2, 49152, Note_on_c, 0, 78, 80
2, 49340, Note_off_c, 0, 78, 100
2, 49344, Note_on_c, 0, 66, 80
2, 49532, Note_off_c, 0, 66, 100
2, 49536, Note_on_c, 0, 80, 80
2, 49724, Note_off_c, 0, 80, 100
2, 49728, Note_on_c, 0, 68, 80
2, 49916, Note_off_c, 0, 68, 100
2, 49920, Note_on_c, 0, 81, 80
2, 50108, Note_off_c, 0, 81, 100
2, 50112, Note_on_c, 0, 69, 80
2, 50300, Note_off_c, 0, 69, 100
2, 50304, Note_on_c, 0, 81, 80
2, 50492, Note_off_c, 0, 81, 100
2, 50496, Note_on_c, 0, 71, 80
2, 50684, Note_off_c, 0, 71, 100
2, 50688, Note_on_c, 0, 81, 80
2, 50876, Note_off_c, 0, 81, 100
2, 50880, Note_on_c, 0, 73, 80
2, 51068, Note_off_c, 0, 73, 100
2, 51072, Note_on_c, 0, 81, 80
2, 51260, Note_off_c, 0, 81, 100
2, 51264, Note_on_c, 0, 75, 80
2, 51452, Note_off_c, 0, 75, 100
2, 51456, Note_on_c, 0, 81, 80
2, 51644, Note_off_c, 0, 81, 100
2, 51648, Note_on_c, 0, 76, 80
2, 51836, Note_off_c, 0, 76, 100
2, 51840, Note_on_c, 0, 81, 80
2, 52028, Note_off_c, 0, 81, 100
2, 52032, Note_on_c, 0, 78, 80
2, 52220, Note_off_c, 0, 78, 100
2, 52224, Note_on_c, 0, 80, 80
2, 52224, Note_on_c, 0, 76, 80
2, 52224, Note_on_c, 0, 71, 80
2, 52988, Note_off_c, 0, 80, 100
2, 52988, Note_off_c, 0, 76, 100
2, 52988, Note_off_c, 0, 71, 100
2, 52992, Note_on_c, 0, 78, 80
2, 52992, Note_on_c, 0, 75, 80
2, 52992, Note_on_c, 0, 69, 80
2, 53372, Note_off_c, 0, 78, 100
2, 53372, Note_off_c, 0, 75, 100
2, 53372, Note_off_c, 0, 69, 100
2, 53376, Note_on_c, 0, 76, 80
2, 53376, Note_on_c, 0, 73, 80
2, 53376, Note_on_c, 0, 68, 80
2, 53756, Note_off_c, 0, 76, 100
2, 53756, Note_off_c, 0, 73, 100
2, 53756, Note_off_c, 0, 68, 100
2, 53760, Note_on_c, 0, 75, 80
2, 53760, Note_on_c, 0, 72, 80
2, 53760, Note_on_c, 0, 66, 80
2, 54524, Note_off_c, 0, 75, 100
2, 54524, Note_off_c, 0, 72, 100
2, 54524, Note_off_c, 0, 66, 100
2, 54528, Note_on_c, 0, 73, 80
2, 54528, Note_on_c, 0, 64, 80
2, 55292, Note_off_c, 0, 73, 100
2, 55292, Note_off_c, 0, 64, 100
2, 55296, Note_on_c, 0, 75, 80
2, 55296, Note_on_c, 0, 71, 80
2, 55296, Note_on_c, 0, 69, 80
2, 56060, Note_off_c, 0, 75, 100
2, 56060, Note_off_c, 0, 71, 100
2, 56060, Note_off_c, 0, 69, 100
2, 56064, Note_on_c, 0, 76, 99
2, 56064, Note_on_c, 0, 71, 99
2, 56444, Note_off_c, 0, 76, 100
2, 56444, Note_off_c, 0, 71, 100
2, 56448, Note_on_c, 0, 78, 109
2, 56448, Note_on_c, 0, 76, 109
2, 56448, Note_on_c, 0, 73, 109
2, 56828, Note_off_c, 0, 78, 100
2, 56828, Note_off_c, 0, 76, 100
2, 56828, Note_off_c, 0, 73, 100
2, 56832, Note_on_c, 0, 80, 110
2, 56832, Note_on_c, 0, 76, 110
2, 56832, Note_on_c, 0, 71, 110
2, 57596, Note_off_c, 0, 80, 100
2, 57596, Note_off_c, 0, 76, 100
2, 57600, Note_on_c, 0, 78, 91
2, 57600, Note_on_c, 0, 75, 91
2, 57980, Note_off_c, 0, 71, 100
2, 57984, Note_on_c, 0, 69, 81
2, 58364, Note_off_c, 0, 78, 100
2, 58364, Note_off_c, 0, 75, 100
2, 58364, Note_off_c, 0, 69, 100
2, 58368, Note_on_c, 0, 68, 80
2, 58368, Note_on_c, 0, 64, 80
2, 58368, Note_on_c, 0, 59, 80
2, 59132, Note_off_c, 0, 68, 100
2, 59132, Note_off_c, 0, 64, 100
2, 59132, Note_off_c, 0, 59, 100
2, 59136, Note_on_c, 0, 66, 80
2, 59136, Note_on_c, 0, 63, 80
2, 59136, Note_on_c, 0, 57, 80
2, 59516, Note_off_c, 0, 66, 100
2, 59516, Note_off_c, 0, 63, 100
2, 59516, Note_off_c, 0, 57, 100
2, 59520, Note_on_c, 0, 64, 80
2, 59520, Note_on_c, 0, 61, 80
2, 59520, Note_on_c, 0, 56, 80
2, 59900, Note_off_c, 0, 64, 100
2, 59900, Note_off_c, 0, 61, 100
2, 59900, Note_off_c, 0, 56, 100
2, 59904, Note_on_c, 0, 63, 80
2, 59904, Note_on_c, 0, 60, 80
2, 59904, Note_on_c, 0, 54, 80
2, 60668, Note_off_c, 0, 63, 100
2, 60668, Note_off_c, 0, 60, 100
2, 60668, Note_off_c, 0, 54, 100
2, 60672, Note_on_c, 0, 61, 80
2, 60672, Note_on_c, 0, 57, 80
2, 60672, Note_on_c, 0, 52, 80
2, 61436, Note_off_c, 0, 61, 100
2, 61436, Note_off_c, 0, 57, 100
2, 61436, Note_off_c, 0, 52, 100
2, 61440, Note_on_c, 0, 56, 80
2, 61440, Note_on_c, 0, 52, 80
2, 61440, Note_on_c, 0, 59, 80
2, 61820, Note_off_c, 0, 56, 100
2, 61820, Note_off_c, 0, 52, 100
2, 61824, Note_on_c, 0, 57, 80
2, 61824, Note_on_c, 0, 54, 80
2, 62204, Note_off_c, 0, 59, 100
2, 62208, Note_on_c, 0, 61, 80
2, 62588, Note_off_c, 0, 61, 100
2, 62592, Note_on_c, 0, 63, 80
2, 62972, Note_off_c, 0, 57, 100
2, 62972, Note_off_c, 0, 54, 100
2, 62972, Note_off_c, 0, 63, 100
2, 62976, Note_on_c, 0, 64, 80
2, 62976, Note_on_c, 0, 56, 80
2, 63100, Note_off_c, 0, 64, 100
2, 63100, Note_off_c, 0, 56, 100
2, 63104, Note_on_c, 0, 66, 80
2, 63228, Note_off_c, 0, 66, 100
2, 63232, Note_on_c, 0, 68, 80
2, 63356, Note_off_c, 0, 68, 100
2, 63360, Note_on_c, 0, 69, 80
2, 63484, Note_off_c, 0, 69, 100
2, 63488, Note_on_c, 0, 71, 80
2, 63612, Note_off_c, 0, 71, 100
2, 63616, Note_on_c, 0, 73, 80
2, 63740, Note_off_c, 0, 73, 100
2, 63744, Note_on_c, 0, 74, 80
2, 63868, Note_off_c, 0, 74, 100
2, 63872, Note_on_c, 0, 75, 80
2, 63996, Note_off_c, 0, 75, 100
2, 64000, Note_on_c, 0, 76, 80
2, 64124, Note_off_c, 0, 76, 100
2, 64128, Note_on_c, 0, 77, 80
2, 64252, Note_off_c, 0, 77, 100
2, 64256, Note_on_c, 0, 78, 80
2, 64380, Note_off_c, 0, 78, 100
2, 64384, Note_on_c, 0, 79, 80
2, 64508, Note_off_c, 0, 79, 100
2, 64512, Note_on_c, 0, 71, 80
2, 64512, Note_on_c, 0, 80, 80
2, 64636, Note_off_c, 0, 80, 100
2, 64640, Note_on_c, 0, 79, 80
2, 64764, Note_off_c, 0, 79, 100
2, 64768, Note_on_c, 0, 80, 80
2, 64892, Note_off_c, 0, 80, 100
2, 64896, Note_on_c, 0, 81, 80
2, 65020, Note_off_c, 0, 81, 100
2, 65024, Note_on_c, 0, 78, 80
2, 65148, Note_off_c, 0, 78, 100
2, 65152, Note_on_c, 0, 80, 80
2, 65276, Note_off_c, 0, 71, 100
2, 65276, Note_off_c, 0, 80, 100
2, 65280, Note_on_c, 0, 69, 80
2, 65408, Note_on_c, 0, 80, 80
2, 65532, Note_off_c, 0, 80, 100
2, 65536, Note_on_c, 0, 78, 80
2, 65660, Note_off_c, 0, 69, 100
2, 65660, Note_off_c, 0, 78, 100
2, 65664, Note_on_c, 0, 68, 80
2, 65792, Note_on_c, 0, 78, 80
2, 65916, Note_off_c, 0, 78, 100
2, 65920, Note_on_c, 0, 76, 80
2, 66044, Note_off_c, 0, 68, 100
2, 66044, Note_off_c, 0, 76, 100
2, 66048, Note_on_c, 0, 66, 80
2, 66176, Note_on_c, 0, 72, 80
2, 66300, Note_off_c, 0, 72, 100
2, 66304, Note_on_c, 0, 75, 80
2, 66428, Note_off_c, 0, 75, 100
2, 66432, Note_on_c, 0, 76, 80
2, 66556, Note_off_c, 0, 76, 100
2, 66560, Note_on_c, 0, 72, 80
2, 66684, Note_off_c, 0, 72, 100
2, 66688, Note_on_c, 0, 75, 80
2, 66812, Note_off_c, 0, 66, 100
2, 66812, Note_off_c, 0, 75, 100
2, 66816, Note_on_c, 0, 64, 80
2, 66944, Note_on_c, 0, 69, 80
2, 67068, Note_off_c, 0, 69, 100
2, 67072, Note_on_c, 0, 73, 80
2, 67196, Note_off_c, 0, 73, 100
2, 67200, Note_on_c, 0, 75, 80
2, 67324, Note_off_c, 0, 75, 100
2, 67328, Note_on_c, 0, 69, 80
2, 67452, Note_off_c, 0, 69, 100
2, 67456, Note_on_c, 0, 73, 80
2, 67580, Note_off_c, 0, 64, 100
2, 67580, Note_off_c, 0, 73, 100
2, 67584, Note_on_c, 0, 69, 80
2, 67712, Note_on_c, 0, 74, 82
2, 67836, Note_off_c, 0, 74, 100
2, 67840, Note_on_c, 0, 75, 85
2, 67964, Note_off_c, 0, 75, 100
2, 67968, Note_on_c, 0, 76, 88
2, 68092, Note_off_c, 0, 76, 100
2, 68096, Note_on_c, 0, 74, 91
2, 68220, Note_off_c, 0, 74, 100
2, 68224, Note_on_c, 0, 75, 94
2, 68348, Note_off_c, 0, 69, 100
2, 68348, Note_off_c, 0, 75, 100
2, 68352, Note_on_c, 0, 71, 96
2, 68480, Note_on_c, 0, 78, 99
2, 68604, Note_off_c, 0, 78, 100
2, 68608, Note_on_c, 0, 76, 102
2, 68732, Note_off_c, 0, 71, 100
2, 68732, Note_off_c, 0, 76, 100
2, 68736, Note_on_c, 0, 73, 105
2, 68864, Note_on_c, 0, 80, 108
2, 68988, Note_off_c, 0, 80, 100
2, 68992, Note_on_c, 0, 78, 110
2, 69116, Note_off_c, 0, 73, 100
2, 69116, Note_off_c, 0, 78, 100
2, 69120, Note_on_c, 0, 76, 110
2, 69120, Note_on_c, 0, 80, 110
2, 69244, Note_off_c, 0, 80, 100
2, 69248, Note_on_c, 0, 79, 110
2, 69372, Note_off_c, 0, 79, 100
2, 69376, Note_on_c, 0, 80, 110
2, 69500, Note_off_c, 0, 80, 100
2, 69504, Note_on_c, 0, 83, 110
2, 69628, Note_off_c, 0, 83, 100
2, 69632, Note_on_c, 0, 81, 110
2, 69756, Note_off_c, 0, 81, 100
2, 69760, Note_on_c, 0, 80, 110
2, 69884, Note_off_c, 0, 76, 100
2, 69884, Note_off_c, 0, 80, 100
2, 69888, Note_on_c, 0, 78, 110
2, 69888, Note_on_c, 0, 75, 110
2, 70012, Note_off_c, 0, 78, 100
2, 70012, Note_off_c, 0, 75, 100
2, 70016, Note_on_c, 0, 76, 107
2, 70016, Note_on_c, 0, 73, 107
2, 70140, Note_off_c, 0, 76, 100
2, 70140, Note_off_c, 0, 73, 100
2, 70144, Note_on_c, 0, 75, 103
2, 70144, Note_on_c, 0, 71, 103
2, 70268, Note_off_c, 0, 75, 100
2, 70268, Note_off_c, 0, 71, 100
2, 70272, Note_on_c, 0, 73, 99
2, 70272, Note_on_c, 0, 69, 99
2, 70396, Note_off_c, 0, 73, 100
2, 70396, Note_off_c, 0, 69, 100
2, 70400, Note_on_c, 0, 71, 95
2, 70400, Note_on_c, 0, 68, 95
2, 70524, Note_off_c, 0, 71, 100
2, 70524, Note_off_c, 0, 68, 100
2, 70528, Note_on_c, 0, 69, 91
2, 70528, Note_on_c, 0, 66, 91
2, 70652, Note_off_c, 0, 69, 100
2, 70652, Note_off_c, 0, 66, 100
2, 70656, Note_on_c, 0, 59, 80
2, 70656, Note_on_c, 0, 68, 80
2, 70780, Note_off_c, 0, 68, 100
2, 70784, Note_on_c, 0, 67, 80
2, 70908, Note_off_c, 0, 67, 100
2, 70912, Note_on_c, 0, 68, 80
2, 71036, Note_off_c, 0, 68, 100
2, 71040, Note_on_c, 0, 69, 80
2, 71164, Note_off_c, 0, 69, 100
2, 71168, Note_on_c, 0, 67, 80
2, 71292, Note_off_c, 0, 67, 100
2, 71296, Note_on_c, 0, 68, 80
2, 71420, Note_off_c, 0, 59, 100
2, 71420, Note_off_c, 0, 68, 100
2, 71424, Note_on_c, 0, 57, 80
2, 71552, Note_on_c, 0, 68, 80
2, 71676, Note_off_c, 0, 68, 100
2, 71680, Note_on_c, 0, 66, 80
2, 71804, Note_off_c, 0, 57, 100
2, 71804, Note_off_c, 0, 66, 100
2, 71808, Note_on_c, 0, 56, 80
2, 71936, Note_on_c, 0, 66, 80
2, 72060, Note_off_c, 0, 66, 100
2, 72064, Note_on_c, 0, 64, 80
2, 72188, Note_off_c, 0, 56, 100
2, 72188, Note_off_c, 0, 64, 100
2, 72192, Note_on_c, 0, 54, 80
2, 72320, Note_on_c, 0, 60, 80
2, 72444, Note_off_c, 0, 60, 100
2, 72448, Note_on_c, 0, 63, 80
2, 72572, Note_off_c, 0, 63, 100
2, 72576, Note_on_c, 0, 64, 80
2, 72700, Note_off_c, 0, 64, 100
2, 72704, Note_on_c, 0, 60, 80
2, 72828, Note_off_c, 0, 60, 100
2, 72832, Note_on_c, 0, 63, 80
2, 72956, Note_off_c, 0, 54, 100
2, 72956, Note_off_c, 0, 63, 100
2, 72960, Note_on_c, 0, 52, 80
2, 73088, Note_on_c, 0, 57, 80
2, 73212, Note_off_c, 0, 57, 100
2, 73216, Note_on_c, 0, 61, 80
2, 73340, Note_off_c, 0, 61, 100
2, 73344, Note_on_c, 0, 63, 80
2, 73468, Note_off_c, 0, 63, 100
2, 73472, Note_on_c, 0, 57, 80
2, 73596, Note_off_c, 0, 57, 100
2, 73600, Note_on_c, 0, 61, 80
2, 73724, Note_off_c, 0, 52, 100
2, 73724, Note_off_c, 0, 61, 100
2, 73728, Note_on_c, 0, 52, 80
2, 73856, Note_on_c, 0, 56, 82
2, 73980, Note_off_c, 0, 56, 100
2, 73984, Note_on_c, 0, 59, 85
2, 74108, Note_off_c, 0, 52, 100
2, 74108, Note_off_c, 0, 59, 100
2, 74112, Note_on_c, 0, 54, 88
2, 74240, Note_on_c, 0, 57, 91
2, 74364, Note_off_c, 0, 57, 100
2, 74368, Note_on_c, 0, 59, 94
2, 74492, Note_off_c, 0, 54, 100
2, 74492, Note_off_c, 0, 59, 100
2, 74496, Note_on_c, 0, 54, 96
2, 74624, Note_on_c, 0, 57, 99
2, 74748, Note_off_c, 0, 57, 100
2, 74752, Note_on_c, 0, 61, 102
2, 74876, Note_off_c, 0, 54, 100
2, 74876, Note_off_c, 0, 61, 100
2, 74880, Note_on_c, 0, 54, 105
2, 75008, Note_on_c, 0, 61, 108
2, 75132, Note_off_c, 0, 61, 100
2, 75136, Note_on_c, 0, 63, 110
2, 75260, Note_off_c, 0, 54, 100
2, 75260, Note_off_c, 0, 63, 100
2, 75264, Note_on_c, 0, 64, 110
2, 75264, Note_on_c, 0, 56, 110
2, 75388, Note_off_c, 0, 64, 100
2, 75388, Note_off_c, 0, 56, 100
2, 75392, Note_on_c, 0, 59, 110
2, 75516, Note_off_c, 0, 59, 100
2, 75520, Note_on_c, 0, 56, 110
2, 75644, Note_off_c, 0, 56, 100
2, 75648, Note_on_c, 0, 59, 110
2, 75772, Note_off_c, 0, 59, 100
2, 75776, Note_on_c, 0, 64, 110
2, 75900, Note_off_c, 0, 64, 100
2, 75904, Note_on_c, 0, 68, 110
2, 76028, Note_off_c, 0, 68, 100
2, 76032, Note_on_c, 0, 66, 110
2, 76156, Note_off_c, 0, 66, 100
2, 76160, Note_on_c, 0, 63, 110
2, 76284, Note_off_c, 0, 63, 100
2, 76288, Note_on_c, 0, 59, 110
2, 76412, Note_off_c, 0, 59, 100
2, 76416, Note_on_c, 0, 63, 110
2, 76540, Note_off_c, 0, 63, 100
2, 76544, Note_on_c, 0, 66, 110
2, 76668, Note_off_c, 0, 66, 100
2, 76672, Note_on_c, 0, 69, 110
2, 76796, Note_off_c, 0, 69, 100
2, 76800, Note_on_c, 0, 68, 110
2, 76924, Note_off_c, 0, 68, 100
2, 76928, Note_on_c, 0, 64, 110
2, 77052, Note_off_c, 0, 64, 100
2, 77056, Note_on_c, 0, 59, 110
2, 77180, Note_off_c, 0, 59, 100
2, 77184, Note_on_c, 0, 64, 110
2, 77308, Note_off_c, 0, 64, 100
2, 77312, Note_on_c, 0, 68, 110
2, 77436, Note_off_c, 0, 68, 100
2, 77440, Note_on_c, 0, 71, 110
2, 77564, Note_off_c, 0, 71, 100
2, 77568, Note_on_c, 0, 69, 110
2, 77692, Note_off_c, 0, 69, 100
2, 77696, Note_on_c, 0, 66, 110
2, 77820, Note_off_c, 0, 66, 100
2, 77824, Note_on_c, 0, 63, 110
2, 77948, Note_off_c, 0, 63, 100
2, 77952, Note_on_c, 0, 75, 110
2, 78076, Note_off_c, 0, 75, 100
2, 78080, Note_on_c, 0, 71, 110
2, 78204, Note_off_c, 0, 71, 100
2, 78208, Note_on_c, 0, 66, 110
2, 78332, Note_off_c, 0, 66, 100
2, 78336, Note_on_c, 0, 76, 110
2, 78336, Note_on_c, 0, 68, 110
2, 78716, Note_off_c, 0, 76, 100
2, 78716, Note_off_c, 0, 68, 100
2, 78720, Note_on_c, 0, 71, 110
2, 79484, Note_off_c, 0, 71, 100
2, 79488, Note_on_c, 0, 71, 110
2, 80252, Note_off_c, 0, 71, 100
2, 80256, Note_on_c, 0, 71, 110
2, 81020, Note_off_c, 0, 71, 100
2, 81024, Note_on_c, 0, 71, 110
2, 81404, Note_off_c, 0, 71, 100
2, 81408, Control_c, 0, 64, 127
2, 81408, Note_on_c, 0, 76, 110
2, 81532, Note_off_c, 0, 76, 100
2, 81536, Note_on_c, 0, 71, 110
2, 81660, Note_off_c, 0, 71, 100
2, 81664, Note_on_c, 0, 68, 110
2, 81784, Control_c, 0, 64, 0
2, 81788, Note_off_c, 0, 68, 100
2, 81792, Control_c, 0, 64, 127
2, 81792, Note_on_c, 0, 71, 110
2, 81916, Note_off_c, 0, 71, 100
2, 81920, Note_on_c, 0, 76, 110
2, 82044, Note_off_c, 0, 76, 100
2, 82048, Note_on_c, 0, 80, 110
2, 82168, Control_c, 0, 64, 0
2, 82172, Note_off_c, 0, 80, 100
2, 82176, Control_c, 0, 64, 127
2, 82176, Note_on_c, 0, 78, 110
2, 82300, Note_off_c, 0, 78, 100
2, 82304, Note_on_c, 0, 75, 110
2, 82428, Note_off_c, 0, 75, 100
2, 82432, Note_on_c, 0, 71, 110
2, 82552, Control_c, 0, 64, 0
2, 82556, Note_off_c, 0, 71, 100
2, 82560, Control_c, 0, 64, 127
2, 82560, Note_on_c, 0, 75, 110
2, 82684, Note_off_c, 0, 75, 100
2, 82688, Note_on_c, 0, 78, 110
2, 82812, Note_off_c, 0, 78, 100
2, 82816, Note_on_c, 0, 81, 110
2, 82936, Control_c, 0, 64, 0
2, 82940, Note_off_c, 0, 81, 100
2, 82944, Control_c, 0, 64, 127
2, 82944, Note_on_c, 0, 80, 110
2, 83068, Note_off_c, 0, 80, 100
2, 83072, Note_on_c, 0, 76, 110
2, 83196, Note_off_c, 0, 76, 100
2, 83200, Note_on_c, 0, 71, 110
2, 83320, Control_c, 0, 64, 0
2, 83324, Note_off_c, 0, 71, 100
2, 83328, Control_c, 0, 64, 127
2, 83328, Note_on_c, 0, 76, 110
2, 83452, Note_off_c, 0, 76, 100
2, 83456, Note_on_c, 0, 80, 110
2, 83580, Note_off_c, 0, 80, 100
2, 83584, Note_on_c, 0, 83, 110
2, 83704, Control_c, 0, 64, 0
2, 83708, Note_off_c, 0, 83, 100
2, 83712, Control_c, 0, 64, 127
2, 83712, Note_on_c, 0, 81, 110
2, 83836, Note_off_c, 0, 81, 100
2, 83840, Note_on_c, 0, 78, 110
2, 83964, Note_off_c, 0, 78, 100
2, 83968, Note_on_c, 0, 75, 110
2, 84088, Control_c, 0, 64, 0
2, 84092, Note_off_c, 0, 75, 100
2, 84096, Control_c, 0, 64, 127
2, 84096, Note_on_c, 0, 87, 110
2, 84220, Note_off_c, 0, 87, 100
2, 84224, Note_on_c, 0, 83, 110
2, 84348, Note_off_c, 0, 83, 100
2, 84352, Note_on_c, 0, 78, 110
2, 84472, Control_c, 0, 64, 0
2, 84476, Note_off_c, 0, 78, 100
2, 84480, Control_c, 0, 64, 127
2, 84480, Note_on_c, 0, 88, 110
2, 84604, Note_off_c, 0, 88, 100
2, 84608, Note_on_c, 0, 83, 110
2, 84732, Note_off_c, 0, 83, 100
2, 84736, Note_on_c, 0, 80, 110
2, 84856, Control_c, 0, 64, 0
2, 84860, Note_off_c, 0, 80, 100
2, 84864, Control_c, 0, 64, 127
2, 84864, Note_on_c, 0, 83, 110
2, 84988, Note_off_c, 0, 83, 100
2, 84992, Note_on_c, 0, 80, 110
2, 85116, Note_off_c, 0, 80, 100
2, 85120, Note_on_c, 0, 76, 109
2, 85240, Control_c, 0, 64, 0
2, 85244, Note_off_c, 0, 76, 100
2, 85248, Control_c, 0, 64, 127
2, 85248, Note_on_c, 0, 81, 108
2, 85372, Note_off_c, 0, 81, 100
2, 85376, Note_on_c, 0, 78, 107
2, 85500, Note_off_c, 0, 78, 100
2, 85504, Note_on_c, 0, 75, 106
2, 85624, Control_c, 0, 64, 0
2, 85628, Note_off_c, 0, 75, 100
2, 85632, Control_c, 0, 64, 127
2, 85632, Note_on_c, 0, 87, 105
2, 85756, Note_off_c, 0, 87, 100
2, 85760, Note_on_c, 0, 83, 104
2, 85884, Note_off_c, 0, 83, 100
2, 85888, Note_on_c, 0, 78, 103
2, 86008, Control_c, 0, 64, 0
2, 86012, Note_off_c, 0, 78, 100
2, 86016, Control_c, 0, 64, 127
2, 86016, Note_on_c, 0, 88, 102
2, 86140, Note_off_c, 0, 88, 100
2, 86144, Note_on_c, 0, 83, 101
2, 86268, Note_off_c, 0, 83, 100
2, 86272, Note_on_c, 0, 80, 100
2, 86392, Control_c, 0, 64, 0
2, 86396, Note_off_c, 0, 80, 100
2, 86400, Control_c, 0, 64, 127
2, 86400, Note_on_c, 0, 83, 99
2, 86524, Note_off_c, 0, 83, 100
2, 86528, Note_on_c, 0, 80, 98
2, 86652, Note_off_c, 0, 80, 100
2, 86656, Note_on_c, 0, 76, 97
2, 86776, Control_c, 0, 64, 0
2, 86780, Note_off_c, 0, 76, 100
2, 86784, Control_c, 0, 64, 127
2, 86784, Note_on_c, 0, 81, 96
2, 86908, Note_off_c, 0, 81, 100
2, 86912, Note_on_c, 0, 78, 95
2, 87036, Note_off_c, 0, 78, 100
2, 87040, Note_on_c, 0, 75, 94
2, 87160, Control_c, 0, 64, 0
2, 87164, Note_off_c, 0, 75, 100
2, 87168, Control_c, 0, 64, 127
2, 87168, Note_on_c, 0, 87, 93
2, 87292, Note_off_c, 0, 87, 100
2, 87296, Note_on_c, 0, 83, 92
2, 87420, Note_off_c, 0, 83, 100
2, 87424, Note_on_c, 0, 78, 91
2, 87544, Control_c, 0, 64, 0
2, 87548, Note_off_c, 0, 78, 100
2, 87552, Control_c, 0, 64, 127
2, 87552, Note_on_c, 0, 88, 90
2, 87644, Note_off_c, 0, 88, 100
2, 87648, Note_on_c, 0, 83, 90
2, 87740, Note_off_c, 0, 83, 100
2, 87744, Note_on_c, 0, 80, 91
2, 87836, Note_off_c, 0, 80, 100
2, 87840, Note_on_c, 0, 76, 92
2, 87928, Control_c, 0, 64, 0
2, 87932, Note_off_c, 0, 76, 100
2, 87936, Control_c, 0, 64, 127
2, 87936, Note_on_c, 0, 81, 92
2, 88028, Note_off_c, 0, 81, 100
2, 88032, Note_on_c, 0, 78, 93
2, 88124, Note_off_c, 0, 78, 100
2, 88128, Note_on_c, 0, 87, 94
2, 88220, Note_off_c, 0, 87, 100
2, 88224, Note_on_c, 0, 83, 94
2, 88312, Control_c, 0, 64, 0
2, 88316, Note_off_c, 0, 83, 100
2, 88320, Control_c, 0, 64, 127
2, 88320, Note_on_c, 0, 88, 95
2, 88412, Note_off_c, 0, 88, 100
2, 88416, Note_on_c, 0, 83, 96
2, 88508, Note_off_c, 0, 83, 100
2, 88512, Note_on_c, 0, 80, 96
2, 88604, Note_off_c, 0, 80, 100
2, 88608, Note_on_c, 0, 76, 97
2, 88696, Control_c, 0, 64, 0
2, 88700, Note_off_c, 0, 76, 100
2, 88704, Control_c, 0, 64, 127
2, 88704, Note_on_c, 0, 81, 98
2, 88796, Note_off_c, 0, 81, 100
2, 88800, Note_on_c, 0, 78, 98
2, 88892, Note_off_c, 0, 78, 100
2, 88896, Note_on_c, 0, 87, 99
2, 88988, Note_off_c, 0, 87, 100
2, 88992, Note_on_c, 0, 83, 100
2, 89080, Control_c, 0, 64, 0
2, 89084, Note_off_c, 0, 83, 100
2, 89088, Control_c, 0, 64, 127
2, 89088, Note_on_c, 0, 88, 100
2, 89180, Note_off_c, 0, 88, 100
2, 89184, Note_on_c, 0, 83, 101
2, 89276, Note_off_c, 0, 83, 100
2, 89280, Note_on_c, 0, 87, 102
2, 89372, Note_off_c, 0, 87, 100
2, 89376, Note_on_c, 0, 83, 102
2, 89464, Control_c, 0, 64, 0
2, 89468, Note_off_c, 0, 83, 100
2, 89472, Control_c, 0, 64, 127
2, 89472, Note_on_c, 0, 88, 103
2, 89564, Note_off_c, 0, 88, 100
2, 89568, Note_on_c, 0, 83, 104
2, 89660, Note_off_c, 0, 83, 100
2, 89664, Note_on_c, 0, 87, 104
2, 89756, Note_off_c, 0, 87, 100
2, 89760, Note_on_c, 0, 83, 105
2, 89848, Control_c, 0, 64, 0
2, 89852, Note_off_c, 0, 83, 100
2, 89856, Control_c, 0, 64, 127
2, 89856, Note_on_c, 0, 88, 106
2, 89948, Note_off_c, 0, 88, 100
2, 89952, Note_on_c, 0, 83, 106
2, 90044, Note_off_c, 0, 83, 100
2, 90048, Note_on_c, 0, 87, 107
2, 90140, Note_off_c, 0, 87, 100
2, 90144, Note_on_c, 0, 83, 108
2, 90232, Control_c, 0, 64, 0
2, 90236, Note_off_c, 0, 83, 100
2, 90240, Control_c, 0, 64, 127
2, 90240, Note_on_c, 0, 88, 108
2, 90332, Note_off_c, 0, 88, 100
2, 90336, Note_on_c, 0, 83, 109
2, 90428, Note_off_c, 0, 83, 100
2, 90432, Note_on_c, 0, 87, 110
2, 90524, Note_off_c, 0, 87, 100
2, 90528, Note_on_c, 0, 83, 110
2, 90616, Control_c, 0, 64, 0
2, 90620, Note_off_c, 0, 83, 100
2, 90624, Control_c, 0, 64, 127
2, 90624, Note_on_c, 0, 88, 110
2, 90716, Note_off_c, 0, 88, 100
2, 90720, Note_on_c, 0, 83, 110
2, 90812, Note_off_c, 0, 83, 100
2, 90816, Note_on_c, 0, 86, 110
2, 90908, Note_off_c, 0, 86, 100
2, 90912, Note_on_c, 0, 83, 110
2, 91000, Control_c, 0, 64, 0
2, 91004, Note_off_c, 0, 83, 100
2, 91008, Control_c, 0, 64, 127
2, 91008, Note_on_c, 0, 86, 110
2, 91100, Note_off_c, 0, 86, 100
2, 91104, Note_on_c, 0, 83, 110
2, 91196, Note_off_c, 0, 83, 100
2, 91200, Note_on_c, 0, 86, 110
2, 91292, Note_off_c, 0, 86, 100
2, 91296, Note_on_c, 0, 83, 110
2, 91384, Control_c, 0, 64, 0
2, 91388, Note_off_c, 0, 83, 100
2, 91392, Control_c, 0, 64, 127
2, 91392, Note_on_c, 0, 86, 110
2, 91484, Note_off_c, 0, 86, 100
2, 91488, Note_on_c, 0, 83, 110
2, 91580, Note_off_c, 0, 83, 100
2, 91584, Note_on_c, 0, 86, 110
2, 91676, Note_off_c, 0, 86, 100
2, 91680, Note_on_c, 0, 83, 110
2, 91768, Control_c, 0, 64, 0
2, 91772, Note_off_c, 0, 83, 100
2, 91776, Control_c, 0, 64, 127
2, 91776, Note_on_c, 0, 86, 110
2, 91868, Note_off_c, 0, 86, 100
2, 91872, Note_on_c, 0, 83, 110
2, 91964, Note_off_c, 0, 83, 100
2, 91968, Note_on_c, 0, 86, 110
2, 92060, Note_off_c, 0, 86, 100
2, 92064, Note_on_c, 0, 83, 110
2, 92152, Control_c, 0, 64, 0
2, 92156, Note_off_c, 0, 83, 100
2, 92160, Note_on_c, 0, 86, 110
2, 92348, Note_off_c, 0, 86, 100
2, 92352, Note_on_c, 0, 85, 110
2, 92444, Note_off_c, 0, 85, 100
2, 92448, Note_on_c, 0, 83, 110
2, 92540, Note_off_c, 0, 83, 100
2, 92544, Note_on_c, 0, 81, 110
2, 92636, Note_off_c, 0, 81, 100
2, 92640, Note_on_c, 0, 80, 110
2, 92732, Note_off_c, 0, 80, 100
2, 92736, Note_on_c, 0, 78, 110
2, 92828, Note_off_c, 0, 78, 100
2, 92832, Note_on_c, 0, 76, 110
2, 92924, Note_off_c, 0, 76, 100
2, 92928, Note_on_c, 0, 74, 110
2, 93020, Note_off_c, 0, 74, 100
2, 93024, Note_on_c, 0, 73, 110
2, 93116, Note_off_c, 0, 73, 100
2, 93120, Note_on_c, 0, 71, 110
2, 93212, Note_off_c, 0, 71, 100
2, 93216, Note_on_c, 0, 69, 110
2, 93308, Note_off_c, 0, 69, 100
2, 93312, Note_on_c, 0, 68, 110
2, 93404, Note_off_c, 0, 68, 100
2, 93408, Note_on_c, 0, 66, 110
2, 93500, Note_off_c, 0, 66, 100
2, 93504, Note_on_c, 0, 64, 110
2, 93596, Note_off_c, 0, 64, 100
2, 93600, Note_on_c, 0, 62, 110
2, 93692, Note_off_c, 0, 62, 100
2, 93696, Note_on_c, 0, 61, 120
2, 93788, Note_off_c, 0, 61, 100
2, 93792, Note_on_c, 0, 63, 120
2, 93884, Note_off_c, 0, 63, 100
2, 93888, Note_on_c, 0, 64, 120
2, 93980, Note_off_c, 0, 64, 100
2, 93984, Note_on_c, 0, 63, 120
2, 94076, Note_off_c, 0, 63, 100
2, 94080, Note_on_c, 0, 64, 120
2, 94172, Note_off_c, 0, 64, 100
2, 94176, Note_on_c, 0, 68, 120
2, 94268, Note_off_c, 0, 68, 100
2, 94272, Note_on_c, 0, 69, 120
2, 94364, Note_off_c, 0, 69, 100
2, 94368, Note_on_c, 0, 68, 120
2, 94460, Note_off_c, 0, 68, 100
2, 94464, Note_on_c, 0, 69, 120
2, 94556, Note_off_c, 0, 69, 100
2, 94560, Note_on_c, 0, 72, 120
2, 94652, Note_off_c, 0, 72, 100
2, 94656, Note_on_c, 0, 73, 120
2, 94748, Note_off_c, 0, 73, 100
2, 94752, Note_on_c, 0, 72, 120
2, 94844, Note_off_c, 0, 72, 100
2, 94848, Note_on_c, 0, 73, 120
2, 94940, Note_off_c, 0, 73, 100
2, 94944, Note_on_c, 0, 75, 120
2, 95036, Note_off_c, 0, 75, 100
2, 95040, Note_on_c, 0, 76, 120
2, 95132, Note_off_c, 0, 76, 100
2, 95136, Note_on_c, 0, 75, 120
2, 95228, Note_off_c, 0, 75, 100
2, 95232, Note_on_c, 0, 76, 120
2, 95324, Note_off_c, 0, 76, 100
2, 95328, Note_on_c, 0, 80, 120
2, 95420, Note_off_c, 0, 80, 100
2, 95424, Note_on_c, 0, 81, 120
2, 95516, Note_off_c, 0, 81, 100
2, 95520, Note_on_c, 0, 80, 120
2, 95612, Note_off_c, 0, 80, 100
2, 95616, Note_on_c, 0, 81, 120
2, 95708, Note_off_c, 0, 81, 100
2, 95712, Note_on_c, 0, 84, 120
2, 95804, Note_off_c, 0, 84, 100
2, 95808, Note_on_c, 0, 85, 120
2, 95900, Note_off_c, 0, 85, 100
2, 95904, Note_on_c, 0, 84, 120
2, 95996, Note_off_c, 0, 84, 100
2, 96000, Note_on_c, 0, 85, 120
2, 96092, Note_off_c, 0, 85, 100
2, 96096, Note_on_c, 0, 87, 120
2, 96188, Note_off_c, 0, 87, 100
2, 96192, Note_on_c, 0, 88, 120
2, 96284, Note_off_c, 0, 88, 100
2, 96288, Note_on_c, 0, 87, 120
2, 96380, Note_off_c, 0, 87, 100
2, 96384, Note_on_c, 0, 88, 120
2, 96476, Note_off_c, 0, 88, 100
2, 96480, Note_on_c, 0, 87, 120
2, 96572, Note_off_c, 0, 87, 100
2, 96576, Note_on_c, 0, 85, 120
2, 96668, Note_off_c, 0, 85, 100
2, 96672, Note_on_c, 0, 84, 120
2, 96764, Note_off_c, 0, 84, 100
2, 96768, Note_on_c, 0, 85, 120
2, 96860, Note_off_c, 0, 85, 100
2, 96864, Note_on_c, 0, 84, 120
2, 96956, Note_off_c, 0, 84, 100
2, 96960, Note_on_c, 0, 85, 120
2, 97052, Note_off_c, 0, 85, 100
2, 97056, Note_on_c, 0, 87, 120
2, 97148, Note_off_c, 0, 87, 100
2, 97152, Note_on_c, 0, 88, 120
2, 97244, Note_off_c, 0, 88, 100
2, 97248, Note_on_c, 0, 87, 120
2, 97340, Note_off_c, 0, 87, 100
2, 97344, Note_on_c, 0, 85, 120
2, 97436, Note_off_c, 0, 85, 100
2, 97440, Note_on_c, 0, 84, 120
2, 97532, Note_off_c, 0, 84, 100
2, 97536, Note_on_c, 0, 85, 120
2, 97628, Note_off_c, 0, 85, 100
2, 97632, Note_on_c, 0, 84, 120
2, 97724, Note_off_c, 0, 84, 100
2, 97728, Note_on_c, 0, 85, 120
2, 97820, Note_off_c, 0, 85, 100
2, 97824, Note_on_c, 0, 87, 120
2, 97916, Note_off_c, 0, 87, 100
2, 97920, Note_on_c, 0, 88, 120
2, 98012, Note_off_c, 0, 88, 100
2, 98016, Note_on_c, 0, 87, 120
2, 98108, Note_off_c, 0, 87, 100
2, 98112, Note_on_c, 0, 85, 120
2, 98204, Note_off_c, 0, 85, 100
2, 98208, Note_on_c, 0, 84, 120
2, 98300, Note_off_c, 0, 84, 100
2, 98304, Note_on_c, 0, 85, 120
2, 98396, Note_off_c, 0, 85, 100
2, 98400, Note_on_c, 0, 84, 120
2, 98492, Note_off_c, 0, 84, 100
2, 98496, Note_on_c, 0, 85, 120
2, 98588, Note_off_c, 0, 85, 100
2, 98592, Note_on_c, 0, 87, 120
2, 98684, Note_off_c, 0, 87, 100
2, 98688, Note_on_c, 0, 88, 120
2, 98780, Note_off_c, 0, 88, 100
2, 98784, Note_on_c, 0, 87, 120
2, 98876, Note_off_c, 0, 87, 100
2, 98880, Note_on_c, 0, 85, 120
2, 98972, Note_off_c, 0, 85, 100
2, 98976, Note_on_c, 0, 84, 120
2, 99068, Note_off_c, 0, 84, 100
2, 99072, Note_on_c, 0, 85, 120
2, 99164, Note_off_c, 0, 85, 100
2, 99168, Note_on_c, 0, 84, 120
2, 99260, Note_off_c, 0, 84, 100
2, 99264, Note_on_c, 0, 85, 120
2, 99356, Note_off_c, 0, 85, 100
2, 99360, Note_on_c, 0, 87, 120
2, 99452, Note_off_c, 0, 87, 100
2, 99456, Note_on_c, 0, 88, 120
2, 99548, Note_off_c, 0, 88, 100
2, 99552, Note_on_c, 0, 87, 120
2, 99644, Note_off_c, 0, 87, 100
2, 99648, Note_on_c, 0, 88, 120
2, 99740, Note_off_c, 0, 88, 100
2, 99744, Note_on_c, 0, 84, 120
2, 99836, Note_off_c, 0, 84, 100
2, 99840, Note_on_c, 0, 83, 120
2, 99840, Note_on_c, 0, 71, 120
2, 100028, Note_off_c, 0, 83, 100
2, 100028, Note_off_c, 0, 71, 100
2, 100032, Note_on_c, 0, 83, 120
2, 100032, Note_on_c, 0, 71, 120
2, 100220, Note_off_c, 0, 83, 100
2, 100220, Note_off_c, 0, 71, 100
2, 100224, Note_on_c, 0, 80, 120
2, 100224, Note_on_c, 0, 68, 120
2, 100412, Note_off_c, 0, 80, 100
2, 100412, Note_off_c, 0, 68, 100
2, 100416, Note_on_c, 0, 76, 120
2, 100416, Note_on_c, 0, 64, 120
2, 100604, Note_off_c, 0, 76, 100
2, 100604, Note_off_c, 0, 64, 100
2, 100608, Note_on_c, 0, 88, 120
2, 100608, Note_on_c, 0, 76, 120
2, 100796, Note_off_c, 0, 88, 100
2, 100796, Note_off_c, 0, 76, 100
2, 100800, Note_on_c, 0, 88, 120
2, 100800, Note_on_c, 0, 76, 120
2, 100988, Note_off_c, 0, 88, 100
2, 100988, Note_off_c, 0, 76, 100
2, 100992, Note_on_c, 0, 83, 120
2, 100992, Note_on_c, 0, 71, 120
2, 101180, Note_off_c, 0, 83, 100
2, 101180, Note_off_c, 0, 71, 100
2, 101184, Note_on_c, 0, 80, 120
2, 101184, Note_on_c, 0, 68, 120
2, 101372, Note_off_c, 0, 80, 100
2, 101372, Note_off_c, 0, 68, 100
2, 101376, Note_on_c, 0, 83, 120
2, 101376, Note_on_c, 0, 71, 120
2, 101564, Note_off_c, 0, 83, 100
2, 101564, Note_off_c, 0, 71, 100
2, 101568, Note_on_c, 0, 83, 120
2, 101568, Note_on_c, 0, 71, 120
2, 101756, Note_off_c, 0, 83, 100
2, 101756, Note_off_c, 0, 71, 100
2, 101760, Note_on_c, 0, 80, 120
2, 101760, Note_on_c, 0, 68, 120
2, 101948, Note_off_c, 0, 80, 100
2, 101948, Note_off_c, 0, 68, 100
2, 101952, Note_on_c, 0, 76, 120
2, 101952, Note_on_c, 0, 64, 120
2, 102140, Note_off_c, 0, 76, 100
2, 102140, Note_off_c, 0, 64, 100
2, 102144, Note_on_c, 0, 88, 120
2, 102144, Note_on_c, 0, 76, 120
2, 102332, Note_off_c, 0, 88, 100
2, 102332, Note_off_c, 0, 76, 100
2, 102336, Note_on_c, 0, 88, 120
2, 102336, Note_on_c, 0, 76, 120
2, 102524, Note_off_c, 0, 88, 100
2, 102524, Note_off_c, 0, 76, 100
2, 102528, Note_on_c, 0, 83, 120
2, 102528, Note_on_c, 0, 71, 120
2, 102716, Note_off_c, 0, 83, 100
2, 102716, Note_off_c, 0, 71, 100
2, 102720, Note_on_c, 0, 80, 120
2, 102720, Note_on_c, 0, 68, 120
2, 102908, Note_off_c, 0, 80, 100
2, 102908, Note_off_c, 0, 68, 100
2, 103008, Note_on_c, 0, 80, 80
2, 103100, Note_off_c, 0, 80, 100
2, 103104, Note_on_c, 0, 83, 80
2, 103196, Note_off_c, 0, 83, 100
2, 103200, Note_on_c, 0, 80, 80
2, 103292, Note_off_c, 0, 80, 100
2, 103296, Note_on_c, 0, 83, 80
2, 103388, Note_off_c, 0, 83, 100
2, 103392, Note_on_c, 0, 80, 80
2, 103484, Note_off_c, 0, 80, 100
2, 103488, Note_on_c, 0, 83, 80
2, 103580, Note_off_c, 0, 83, 100
2, 103584, Note_on_c, 0, 80, 80
2, 103676, Note_off_c, 0, 80, 100
2, 103680, Note_on_c, 0, 83, 80
2, 103772, Note_off_c, 0, 83, 100
2, 103776, Note_on_c, 0, 80, 80
2, 103868, Note_off_c, 0, 80, 100
2, 103872, Note_on_c, 0, 83, 80
2, 103964, Note_off_c, 0, 83, 100
2, 103968, Note_on_c, 0, 80, 80
2, 104060, Note_off_c, 0, 80, 100
2, 104064, Note_on_c, 0, 83, 80
2, 104156, Note_off_c, 0, 83, 100
2, 104160, Note_on_c, 0, 80, 80
2, 104252, Note_off_c, 0, 80, 100
2, 104256, Note_on_c, 0, 83, 80
2, 104348, Note_off_c, 0, 83, 100
2, 104352, Note_on_c, 0, 80, 80
2, 104444, Note_off_c, 0, 80, 100
2, 104448, Note_on_c, 0, 83, 80
2, 104540, Note_off_c, 0, 83, 100
2, 104544, Note_on_c, 0, 80, 80
2, 104636, Note_off_c, 0, 80, 100
2, 104640, Note_on_c, 0, 83, 80
2, 104732, Note_off_c, 0, 83, 100
2, 104736, Note_on_c, 0, 80, 80
2, 104828, Note_off_c, 0, 80, 100
2, 104832, Note_on_c, 0, 83, 80
2, 104924, Note_off_c, 0, 83, 100
2, 104928, Note_on_c, 0, 80, 80
2, 105020, Note_off_c, 0, 80, 100
2, 105024, Note_on_c, 0, 83, 80
2, 105116, Note_off_c, 0, 83, 100
2, 105120, Note_on_c, 0, 80, 80
2, 105212, Note_off_c, 0, 80, 100
2, 105216, Note_on_c, 0, 83, 80
2, 105308, Note_off_c, 0, 83, 100
2, 105312, Note_on_c, 0, 80, 80
2, 105404, Note_off_c, 0, 80, 100
2, 105408, Note_on_c, 0, 83, 80
2, 105500, Note_off_c, 0, 83, 100
2, 105504, Note_on_c, 0, 80, 80
2, 105596, Note_off_c, 0, 80, 100
2, 105600, Note_on_c, 0, 83, 80
2, 105692, Note_off_c, 0, 83, 100
2, 105696, Note_on_c, 0, 80, 80
2, 105788, Note_off_c, 0, 80, 100
2, 105792, Note_on_c, 0, 83, 80
2, 105884, Note_off_c, 0, 83, 100
2, 105888, Note_on_c, 0, 80, 80
2, 105980, Note_off_c, 0, 80, 100
2, 106080, Note_on_c, 0, 81, 80
2, 106172, Note_off_c, 0, 81, 100
2, 106176, Note_on_c, 0, 83, 79
2, 106268, Note_off_c, 0, 83, 100
2, 106272, Note_on_c, 0, 81, 79
2, 106364, Note_off_c, 0, 81, 100
2, 106368, Note_on_c, 0, 84, 78
2, 106460, Note_off_c, 0, 84, 100
2, 106464, Note_on_c, 0, 81, 77
2, 106556, Note_off_c, 0, 81, 100
2, 106560, Note_on_c, 0, 83, 77
2, 106652, Note_off_c, 0, 83, 100
2, 106656, Note_on_c, 0, 81, 76
2, 106748, Note_off_c, 0, 81, 100
2, 106752, Note_on_c, 0, 84, 75
2, 106844, Note_off_c, 0, 84, 100
2, 106848, Note_on_c, 0, 81, 75
2, 106940, Note_off_c, 0, 81, 100
2, 106944, Note_on_c, 0, 83, 74
2, 107036, Note_off_c, 0, 83, 100
2, 107040, Note_on_c, 0, 81, 73
2, 107132, Note_off_c, 0, 81, 100
2, 107136, Note_on_c, 0, 84, 73
2, 107228, Note_off_c, 0, 84, 100
2, 107232, Note_on_c, 0, 81, 72
2, 107324, Note_off_c, 0, 81, 100
2, 107328, Note_on_c, 0, 83, 71
2, 107420, Note_off_c, 0, 83, 100
2, 107424, Note_on_c, 0, 81, 71
2, 107516, Note_off_c, 0, 81, 100
2, 107520, Note_on_c, 0, 84, 70
2, 107612, Note_off_c, 0, 84, 100
2, 107616, Note_on_c, 0, 81, 70
2, 107708, Note_off_c, 0, 81, 100
2, 107712, Note_on_c, 0, 83, 70
2, 107804, Note_off_c, 0, 83, 100
2, 107808, Note_on_c, 0, 81, 70
2, 107900, Note_off_c, 0, 81, 100
2, 107904, Note_on_c, 0, 84, 70
2, 107996, Note_off_c, 0, 84, 100
2, 108000, Note_on_c, 0, 81, 70
2, 108092, Note_off_c, 0, 81, 100
2, 108096, Note_on_c, 0, 83, 70
2, 108188, Note_off_c, 0, 83, 100
2, 108192, Note_on_c, 0, 81, 70
2, 108284, Note_off_c, 0, 81, 100
2, 108288, Note_on_c, 0, 84, 70
2, 108380, Note_off_c, 0, 84, 100
2, 108384, Note_on_c, 0, 81, 70
2, 108476, Note_off_c, 0, 81, 100
2, 108480, Note_on_c, 0, 83, 70
2, 108572, Note_off_c, 0, 83, 100
2, 108576, Note_on_c, 0, 81, 70
2, 108668, Note_off_c, 0, 81, 100
2, 108672, Note_on_c, 0, 84, 70
2, 108764, Note_off_c, 0, 84, 100
2, 108768, Note_on_c, 0, 81, 70
2, 108860, Note_off_c, 0, 81, 100
2, 108864, Note_on_c, 0, 83, 70
2, 108956, Note_off_c, 0, 83, 100
2, 108960, Note_on_c, 0, 81, 70
2, 109052, Note_off_c, 0, 81, 100
2, 109056, Note_on_c, 0, 85, 70
2, 109148, Note_off_c, 0, 85, 100
2, 109152, Note_on_c, 0, 81, 71
2, 109244, Note_off_c, 0, 81, 100
2, 109248, Note_on_c, 0, 83, 72
2, 109340, Note_off_c, 0, 83, 100
2, 109344, Note_on_c, 0, 81, 73
2, 109436, Note_off_c, 0, 81, 100
2, 109440, Note_on_c, 0, 85, 75
2, 109532, Note_off_c, 0, 85, 100
2, 109536, Note_on_c, 0, 81, 76
2, 109628, Note_off_c, 0, 81, 100
2, 109632, Note_on_c, 0, 83, 77
2, 109724, Note_off_c, 0, 83, 100
2, 109728, Note_on_c, 0, 81, 78
2, 109820, Note_off_c, 0, 81, 100
2, 109824, Note_on_c, 0, 85, 80
2, 109916, Note_off_c, 0, 85, 100
2, 109920, Note_on_c, 0, 81, 81
2, 110012, Note_off_c, 0, 81, 100
2, 110016, Note_on_c, 0, 83, 82
2, 110108, Note_off_c, 0, 83, 100
2, 110112, Note_on_c, 0, 81, 84
2, 110204, Note_off_c, 0, 81, 100
2, 110208, Note_on_c, 0, 85, 85
2, 110300, Note_off_c, 0, 85, 100
2, 110304, Note_on_c, 0, 81, 86
2, 110396, Note_off_c, 0, 81, 100
2, 110400, Note_on_c, 0, 83, 87
2, 110492, Note_off_c, 0, 83, 100
2, 110496, Note_on_c, 0, 81, 89
2, 110588, Note_off_c, 0, 81, 100
2, 110592, Note_on_c, 0, 90, 90
2, 110684, Note_off_c, 0, 90, 100
2, 110688, Note_on_c, 0, 83, 91
2, 110688, Note_on_c, 0, 81, 91
2, 110780, Note_off_c, 0, 83, 100
2, 110780, Note_off_c, 0, 81, 100
2, 110784, Note_on_c, 0, 90, 93
2, 110876, Note_off_c, 0, 90, 100
2, 110880, Note_on_c, 0, 83, 94
2, 110880, Note_on_c, 0, 81, 94
2, 110972, Note_off_c, 0, 83, 100
2, 110972, Note_off_c, 0, 81, 100
2, 110976, Note_on_c, 0, 90, 95
2, 111068, Note_off_c, 0, 90, 100
2, 111072, Note_on_c, 0, 83, 96
2, 111072, Note_on_c, 0, 81, 96
2, 111164, Note_off_c, 0, 83, 100
2, 111164, Note_off_c, 0, 81, 100
2, 111168, Note_on_c, 0, 90, 98
2, 111260, Note_off_c, 0, 90, 100
2, 111264, Note_on_c, 0, 83, 99
2, 111264, Note_on_c, 0, 81, 99
2, 111356, Note_off_c, 0, 83, 100
2, 111356, Note_off_c, 0, 81, 100
2, 111360, Note_on_c, 0, 90, 100
2, 111452, Note_off_c, 0, 90, 100
2, 111456, Note_on_c, 0, 83, 101
2, 111456, Note_on_c, 0, 81, 101
2, 111548, Note_off_c, 0, 83, 100
2, 111548, Note_off_c, 0, 81, 100
2, 111552, Note_on_c, 0, 90, 103
2, 111644, Note_off_c, 0, 90, 100
2, 111648, Note_on_c, 0, 83, 104
2, 111648, Note_on_c, 0, 81, 104
2, 111740, Note_off_c, 0, 83, 100
2, 111740, Note_off_c, 0, 81, 100
2, 111744, Note_on_c, 0, 90, 105
2, 111836, Note_off_c, 0, 90, 100
2, 111840, Note_on_c, 0, 83, 107
2, 111840, Note_on_c, 0, 81, 107
2, 111932, Note_off_c, 0, 83, 100
2, 111932, Note_off_c, 0, 81, 100
2, 111936, Note_on_c, 0, 90, 108
2, 112028, Note_off_c, 0, 90, 100
2, 112032, Note_on_c, 0, 83, 109
2, 112032, Note_on_c, 0, 81, 109
2, 112124, Note_off_c, 0, 83, 100
2, 112124, Note_off_c, 0, 81, 100
2, 112128, Note_on_c, 0, 88, 110
2, 112128, Note_on_c, 0, 83, 110
2, 112128, Note_on_c, 0, 80, 110
2, 113276, Note_off_c, 0, 88, 100
2, 113276, Note_off_c, 0, 83, 100
2, 113276, Note_off_c, 0, 80, 100
2, 113280, Note_on_c, 0, 88, 80
2, 113372, Note_off_c, 0, 88, 100
2, 113376, Note_on_c, 0, 86, 80
2, 113468, Note_off_c, 0, 86, 100
2, 113472, Note_on_c, 0, 84, 80
2, 113564, Note_off_c, 0, 84, 100
2, 113568, Note_on_c, 0, 83, 80
2, 113660, Note_off_c, 0, 83, 100
2, 113664, Note_on_c, 0, 84, 80
2, 113756, Note_off_c, 0, 84, 100
2, 113760, Note_on_c, 0, 83, 80
2, 113852, Note_off_c, 0, 83, 100
2, 113856, Note_on_c, 0, 81, 80
2, 113948, Note_off_c, 0, 81, 100
2, 113952, Note_on_c, 0, 80, 80
2, 114044, Note_off_c, 0, 80, 100
2, 114048, Note_on_c, 0, 81, 80
2, 114140, Note_off_c, 0, 81, 100
2, 114144, Note_on_c, 0, 83, 80
2, 114236, Note_off_c, 0, 83, 100
2, 114240, Note_on_c, 0, 84, 80
2, 114332, Note_off_c, 0, 84, 100
2, 114336, Note_on_c, 0, 86, 80
2, 114428, Note_off_c, 0, 86, 100
2, 114432, Note_on_c, 0, 88, 80
2, 114524, Note_off_c, 0, 88, 100
2, 114528, Note_on_c, 0, 89, 80
2, 114620, Note_off_c, 0, 89, 100
2, 114624, Note_on_c, 0, 88, 80
2, 114716, Note_off_c, 0, 88, 100
2, 114720, Note_on_c, 0, 87, 80
2, 114812, Note_off_c, 0, 87, 100
2, 114816, Note_on_c, 0, 88, 80
2, 114908, Note_off_c, 0, 88, 100
2, 114912, Note_on_c, 0, 86, 80
2, 115004, Note_off_c, 0, 86, 100
2, 115008, Note_on_c, 0, 84, 80
2, 115100, Note_off_c, 0, 84, 100
2, 115104, Note_on_c, 0, 83, 80
2, 115196, Note_off_c, 0, 83, 100
2, 115200, Note_on_c, 0, 84, 80
2, 115292, Note_off_c, 0, 84, 100
2, 115296, Note_on_c, 0, 86, 80
2, 115388, Note_off_c, 0, 86, 100
2, 115392, Note_on_c, 0, 84, 80
2, 115484, Note_off_c, 0, 84, 100
2, 115488, Note_on_c, 0, 83, 80
2, 115580, Note_off_c, 0, 83, 100
2, 115584, Note_on_c, 0, 81, 80
2, 115676, Note_off_c, 0, 81, 100
2, 115680, Note_on_c, 0, 80, 80
2, 115772, Note_off_c, 0, 80, 100
2, 115776, Note_on_c, 0, 81, 80
2, 115868, Note_off_c, 0, 81, 100
2, 115872, Note_on_c, 0, 83, 80
2, 115964, Note_off_c, 0, 83, 100
2, 115968, Note_on_c, 0, 84, 80
2, 115968, Note_on_c, 0, 72, 80
2, 116348, Note_off_c, 0, 84, 100
2, 116352, Note_on_c, 0, 81, 80
2, 116540, Note_off_c, 0, 81, 100
2, 116544, Note_on_c, 0, 78, 80
2, 116732, Note_off_c, 0, 72, 100
2, 116732, Note_off_c, 0, 78, 100
2, 116736, Note_on_c, 0, 83, 80
2, 116736, Note_on_c, 0, 71, 80
2, 117116, Note_off_c, 0, 83, 100
2, 117120, Note_on_c, 0, 79, 80
2, 117308, Note_off_c, 0, 79, 100
2, 117312, Note_on_c, 0, 76, 80
2, 117500, Note_off_c, 0, 71, 100
2, 117500, Note_off_c, 0, 76, 100
2, 117504, Note_on_c, 0, 81, 80
2, 117504, Note_on_c, 0, 69, 80
2, 117884, Note_off_c, 0, 81, 100
2, 117888, Note_on_c, 0, 78, 80
2, 118076, Note_off_c, 0, 78, 100
2, 118080, Note_on_c, 0, 75, 80
2, 118268, Note_off_c, 0, 69, 100
2, 118268, Note_off_c, 0, 75, 100
2, 118272, Note_on_c, 0, 76, 100
2, 119420, Note_off_c, 0, 76, 100
2, 119424, Note_on_c, 0, 76, 80
2, 119516, Note_off_c, 0, 76, 100
2, 119520, Note_on_c, 0, 74, 80
2, 119612, Note_off_c, 0, 74, 100
2, 119616, Note_on_c, 0, 72, 80
2, 119708, Note_off_c, 0, 72, 100
2, 119712, Note_on_c, 0, 71, 80
2, 119804, Note_off_c, 0, 71, 100
2, 119808, Note_on_c, 0, 72, 80
2, 119900, Note_off_c, 0, 72, 100
2, 119904, Note_on_c, 0, 71, 80
2, 119996, Note_off_c, 0, 71, 100
2, 120000, Note_on_c, 0, 69, 80
2, 120092, Note_off_c, 0, 69, 100
2, 120096, Note_on_c, 0, 68, 80
2, 120188, Note_off_c, 0, 68, 100
2, 120192, Note_on_c, 0, 69, 80
2, 120284, Note_off_c, 0, 69, 100
2, 120288, Note_on_c, 0, 71, 80
2, 120380, Note_off_c, 0, 71, 100
2, 120384, Note_on_c, 0, 72, 80
2, 120476, Note_off_c, 0, 72, 100
2, 120480, Note_on_c, 0, 74, 80
2, 120572, Note_off_c, 0, 74, 100
2, 120576, Note_on_c, 0, 76, 80
2, 120668, Note_off_c, 0, 76, 100
2, 120672, Note_on_c, 0, 77, 80
2, 120764, Note_off_c, 0, 77, 100
2, 120768, Note_on_c, 0, 76, 80
2, 120860, Note_off_c, 0, 76, 100
2, 120864, Note_on_c, 0, 75, 80
2, 120956, Note_off_c, 0, 75, 100
2, 120960, Note_on_c, 0, 76, 80
2, 121052, Note_off_c, 0, 76, 100
2, 121056, Note_on_c, 0, 74, 80
2, 121148, Note_off_c, 0, 74, 100
2, 121152, Note_on_c, 0, 72, 80
2, 121244, Note_off_c, 0, 72, 100
2, 121248, Note_on_c, 0, 71, 80
2, 121340, Note_off_c, 0, 71, 100
2, 121344, Note_on_c, 0, 72, 80
2, 121436, Note_off_c, 0, 72, 100
2, 121440, Note_on_c, 0, 74, 80
2, 121532, Note_off_c, 0, 74, 100
2, 121536, Note_on_c, 0, 72, 80
2, 121628, Note_off_c, 0, 72, 100
2, 121632, Note_on_c, 0, 71, 80
2, 121724, Note_off_c, 0, 71, 100
2, 121728, Note_on_c, 0, 69, 80
2, 121820, Note_off_c, 0, 69, 100
2, 121824, Note_on_c, 0, 68, 80
2, 121916, Note_off_c, 0, 68, 100
2, 121920, Note_on_c, 0, 69, 80
2, 122012, Note_off_c, 0, 69, 100
2, 122016, Note_on_c, 0, 71, 80
2, 122108, Note_off_c, 0, 71, 100
2, 122112, Note_on_c, 0, 72, 80
2, 122112, Note_on_c, 0, 60, 80
2, 122492, Note_off_c, 0, 72, 100
2, 122496, Note_on_c, 0, 69, 80
2, 122684, Note_off_c, 0, 69, 100
2, 122688, Note_on_c, 0, 66, 80
2, 122876, Note_off_c, 0, 60, 100
2, 122876, Note_off_c, 0, 66, 100
2, 122880, Note_on_c, 0, 71, 80
2, 122880, Note_on_c, 0, 59, 80
2, 123260, Note_off_c, 0, 71, 100
2, 123264, Note_on_c, 0, 67, 80
2, 123452, Note_off_c, 0, 67, 100
2, 123456, Note_on_c, 0, 64, 80
2, 123644, Note_off_c, 0, 59, 100
2, 123644, Note_off_c, 0, 64, 100
2, 123648, Note_on_c, 0, 69, 80
2, 123648, Note_on_c, 0, 57, 80
2, 124028, Note_off_c, 0, 69, 100
2, 124032, Note_on_c, 0, 66, 80
2, 124220, Note_off_c, 0, 66, 100
2, 124224, Note_on_c, 0, 63, 80
2, 124412, Note_off_c, 0, 57, 100
2, 124412, Note_off_c, 0, 63, 100
2, 124416, Note_on_c, 0, 64, 80
2, 124796, Note_off_c, 0, 64, 100
2, 124800, Note_on_c, 0, 76, 80
2, 124988, Note_off_c, 0, 76, 100
2, 124992, Note_on_c, 0, 74, 80
2, 125180, Note_off_c, 0, 74, 100
2, 125184, Note_on_c, 0, 72, 80
2, 125564, Note_off_c, 0, 72, 100
2, 125568, Note_on_c, 0, 69, 80
2, 125756, Note_off_c, 0, 69, 100
2, 125760, Note_on_c, 0, 65, 80
2, 125948, Note_off_c, 0, 65, 100
2, 125952, Note_on_c, 0, 71, 80
2, 126332, Note_off_c, 0, 71, 100
2, 126336, Note_on_c, 0, 67, 80
2, 126524, Note_off_c, 0, 67, 100
2, 126528, Note_on_c, 0, 64, 80
2, 126716, Note_off_c, 0, 64, 100
2, 126720, Note_on_c, 0, 69, 80
2, 127100, Note_off_c, 0, 69, 100
2, 127104, Note_on_c, 0, 66, 80
2, 127292, Note_off_c, 0, 66, 100
2, 127296, Note_on_c, 0, 63, 80
2, 127484, Note_off_c, 0, 63, 100
2, 127488, Note_on_c, 0, 64, 80
2, 127868, Note_off_c, 0, 64, 100
2, 127872, Note_on_c, 0, 72, 80
2, 128060, Note_off_c, 0, 72, 100
2, 128064, Note_on_c, 0, 71, 80
2, 128252, Note_off_c, 0, 71, 100
2, 128256, Note_on_c, 0, 69, 80
2, 128636, Note_off_c, 0, 69, 100
2, 128640, Note_on_c, 0, 65, 80
2, 128828, Note_off_c, 0, 65, 100
2, 128832, Note_on_c, 0, 62, 80
2, 129020, Note_off_c, 0, 62, 100
2, 129024, Note_on_c, 0, 67, 80
2, 129404, Note_off_c, 0, 67, 100
2, 129408, Note_on_c, 0, 64, 80
2, 129596, Note_off_c, 0, 64, 100
2, 129600, Note_on_c, 0, 60, 80
2, 129788, Note_off_c, 0, 60, 100
2, 129792, Note_on_c, 0, 65, 80
2, 130172, Note_off_c, 0, 65, 100
2, 130176, Note_on_c, 0, 62, 80
2, 130364, Note_off_c, 0, 62, 100
2, 130368, Note_on_c, 0, 59, 80
2, 130556, Note_off_c, 0, 59, 100
2, 130560, Note_on_c, 0, 52, 80
2, 130560, Note_on_c, 0, 60, 80
2, 130748, Note_off_c, 0, 52, 100
2, 130748, Note_off_c, 0, 60, 100
2, 130752, Note_on_c, 0, 52, 80
2, 130752, Note_on_c, 0, 48, 80
2, 130940, Note_off_c, 0, 52, 100
2, 130940, Note_off_c, 0, 48, 100
2, 130944, Note_on_c, 0, 52, 80
2, 130944, Note_on_c, 0, 48, 80
2, 131132, Note_off_c, 0, 52, 100
2, 131132, Note_off_c, 0, 48, 100
2, 131136, Note_on_c, 0, 52, 80
2, 131136, Note_on_c, 0, 48, 80
2, 131324, Note_off_c, 0, 52, 100
2, 131324, Note_off_c, 0, 48, 100
2, 131328, Note_on_c, 0, 52, 80
2, 131328, Note_on_c, 0, 48, 80
2, 131516, Note_off_c, 0, 52, 100
2, 131516, Note_off_c, 0, 48, 100
2, 131520, Note_on_c, 0, 52, 80
2, 131520, Note_on_c, 0, 48, 80
2, 131708, Note_off_c, 0, 52, 100
2, 131708, Note_off_c, 0, 48, 100
2, 131712, Note_on_c, 0, 52, 80
2, 131712, Note_on_c, 0, 48, 80
2, 131900, Note_off_c, 0, 52, 100
2, 131900, Note_off_c, 0, 48, 100
2, 131904, Note_on_c, 0, 52, 80
2, 131904, Note_on_c, 0, 48, 80
2, 132092, Note_off_c, 0, 52, 100
2, 132092, Note_off_c, 0, 48, 100
2, 132096, Note_on_c, 0, 52, 80
2, 132096, Note_on_c, 0, 48, 80
2, 132284, Note_off_c, 0, 52, 100
2, 132284, Note_off_c, 0, 48, 100
2, 132288, Note_on_c, 0, 52, 80
2, 132288, Note_on_c, 0, 48, 80
2, 132476, Note_off_c, 0, 52, 100
2, 132476, Note_off_c, 0, 48, 100
2, 132480, Note_on_c, 0, 52, 80
2, 132480, Note_on_c, 0, 48, 80
2, 132668, Note_off_c, 0, 52, 100
2, 132668, Note_off_c, 0, 48, 100
2, 132672, Note_on_c, 0, 52, 80
2, 132672, Note_on_c, 0, 48, 80
2, 132860, Note_off_c, 0, 52, 100
2, 132860, Note_off_c, 0, 48, 100
2, 132864, Note_on_c, 0, 52, 80
2, 132864, Note_on_c, 0, 48, 80
2, 133052, Note_off_c, 0, 52, 100
2, 133052, Note_off_c, 0, 48, 100
2, 133056, Note_on_c, 0, 52, 80
2, 133056, Note_on_c, 0, 48, 80
2, 133244, Note_off_c, 0, 52, 100
2, 133244, Note_off_c, 0, 48, 100
2, 133248, Note_on_c, 0, 54, 80
2, 133248, Note_on_c, 0, 50, 80
2, 133436, Note_off_c, 0, 54, 100
2, 133436, Note_off_c, 0, 50, 100
2, 133440, Note_on_c, 0, 54, 80
2, 133440, Note_on_c, 0, 50, 80
2, 133628, Note_off_c, 0, 54, 100
2, 133628, Note_off_c, 0, 50, 100
2, 133632, Note_on_c, 0, 55, 80
2, 133632, Note_on_c, 0, 50, 80
2, 134204, Note_off_c, 0, 55, 100
2, 134204, Note_off_c, 0, 50, 100
2, 134208, Note_on_c, 0, 59, 80
2, 134300, Note_off_c, 0, 59, 100
2, 134304, Note_on_c, 0, 57, 80
2, 134396, Note_off_c, 0, 57, 100
2, 134400, Note_on_c, 0, 55, 80
2, 134588, Note_off_c, 0, 55, 100
2, 135168, Note_on_c, 0, 85, 80
2, 135260, Note_off_c, 0, 85, 100
2, 135264, Note_on_c, 0, 86, 80
2, 135644, Note_off_c, 0, 86, 100
2, 135648, Note_on_c, 0, 84, 80
2, 135740, Note_off_c, 0, 84, 100
2, 135744, Note_on_c, 0, 83, 80
2, 135836, Note_off_c, 0, 83, 100
2, 135840, Note_on_c, 0, 81, 80
2, 135932, Note_off_c, 0, 81, 100
2, 135936, Note_on_c, 0, 79, 80
2, 136316, Note_off_c, 0, 79, 100
2, 136704, Note_on_c, 0, 50, 80
2, 136704, Note_on_c, 0, 46, 80
2, 136892, Note_off_c, 0, 50, 100
2, 136892, Note_off_c, 0, 46, 100
2, 136896, Note_on_c, 0, 50, 80
2, 136896, Note_on_c, 0, 46, 80
2, 137084, Note_off_c, 0, 50, 100
2, 137084, Note_off_c, 0, 46, 100
2, 137088, Note_on_c, 0, 50, 80
2, 137088, Note_on_c, 0, 46, 80
2, 137276, Note_off_c, 0, 50, 100
2, 137276, Note_off_c, 0, 46, 100
2, 137280, Note_on_c, 0, 50, 80
2, 137280, Note_on_c, 0, 46, 80
2, 137468, Note_off_c, 0, 50, 100
2, 137468, Note_off_c, 0, 46, 100
2, 137472, Note_on_c, 0, 50, 80
2, 137472, Note_on_c, 0, 46, 80
2, 137660, Note_off_c, 0, 50, 100
2, 137660, Note_off_c, 0, 46, 100
2, 137664, Note_on_c, 0, 50, 80
2, 137664, Note_on_c, 0, 46, 80
2, 137852, Note_off_c, 0, 50, 100
2, 137852, Note_off_c, 0, 46, 100
2, 137856, Note_on_c, 0, 50, 80
2, 137856, Note_on_c, 0, 46, 80
2, 138044, Note_off_c, 0, 50, 100
2, 138044, Note_off_c, 0, 46, 100
2, 138048, Note_on_c, 0, 50, 80
2, 138048, Note_on_c, 0, 46, 80
2, 138236, Note_off_c, 0, 50, 100
2, 138236, Note_off_c, 0, 46, 100
2, 138240, Note_on_c, 0, 50, 80
2, 138240, Note_on_c, 0, 46, 80
2, 138428, Note_off_c, 0, 50, 100
2, 138428, Note_off_c, 0, 46, 100
2, 138432, Note_on_c, 0, 50, 80
2, 138432, Note_on_c, 0, 46, 80
2, 138620, Note_off_c, 0, 50, 100
2, 138620, Note_off_c, 0, 46, 100
2, 138624, Note_on_c, 0, 50, 80
2, 138624, Note_on_c, 0, 46, 80
2, 138812, Note_off_c, 0, 50, 100
2, 138812, Note_off_c, 0, 46, 100
2, 138816, Note_on_c, 0, 50, 80
2, 138816, Note_on_c, 0, 46, 80
2, 139004, Note_off_c, 0, 50, 100
2, 139004, Note_off_c, 0, 46, 100
2, 139008, Note_on_c, 0, 50, 80
2, 139008, Note_on_c, 0, 46, 80
2, 139196, Note_off_c, 0, 50, 100
2, 139196, Note_off_c, 0, 46, 100
2, 139200, Note_on_c, 0, 50, 80
2, 139200, Note_on_c, 0, 46, 80
2, 139388, Note_off_c, 0, 50, 100
2, 139388, Note_off_c, 0, 46, 100
2, 139392, Note_on_c, 0, 52, 80
2, 139392, Note_on_c, 0, 48, 80
2, 139580, Note_off_c, 0, 52, 100
2, 139580, Note_off_c, 0, 48, 100
2, 139584, Note_on_c, 0, 52, 80
2, 139584, Note_on_c, 0, 48, 80
2, 139772, Note_off_c, 0, 52, 100
2, 139772, Note_off_c, 0, 48, 100
2, 139776, Note_on_c, 0, 53, 80
2, 139776, Note_on_c, 0, 48, 80
2, 140348, Note_off_c, 0, 53, 100
2, 140348, Note_off_c, 0, 48, 100
2, 140352, Note_on_c, 0, 57, 80
2, 140444, Note_off_c, 0, 57, 100
2, 140448, Note_on_c, 0, 55, 80
2, 140540, Note_off_c, 0, 55, 100
2, 140544, Note_on_c, 0, 53, 80
2, 140732, Note_off_c, 0, 53, 100
2, 141312, Note_on_c, 0, 83, 80
2, 141404, Note_off_c, 0, 83, 100
2, 141408, Note_on_c, 0, 84, 80
2, 141788, Note_off_c, 0, 84, 100
2, 141792, Note_on_c, 0, 82, 80
2, 141884, Note_off_c, 0, 82, 100
2, 141888, Note_on_c, 0, 80, 80
2, 141980, Note_off_c, 0, 80, 100
2, 141984, Note_on_c, 0, 79, 80
2, 142076, Note_off_c, 0, 79, 100
2, 142080, Note_on_c, 0, 77, 80
2, 142460, Note_off_c, 0, 77, 100
2, 142848, Note_on_c, 0, 88, 80
2, 142940, Note_off_c, 0, 88, 100
2, 142944, Note_on_c, 0, 89, 80
2, 143996, Note_off_c, 0, 89, 100
2, 144000, Note_on_c, 0, 89, 91
2, 144092, Note_off_c, 0, 89, 100
2, 144096, Note_on_c, 0, 87, 92
2, 144188, Note_off_c, 0, 87, 100
2, 144192, Note_on_c, 0, 86, 93
2, 144284, Note_off_c, 0, 86, 100
2, 144288, Note_on_c, 0, 84, 94
2, 144380, Note_off_c, 0, 84, 100
2, 144384, Note_on_c, 0, 83, 95
2, 144476, Note_off_c, 0, 83, 100
2, 144480, Note_on_c, 0, 84, 96
2, 144572, Note_off_c, 0, 84, 100
2, 144576, Note_on_c, 0, 86, 97
2, 144668, Note_off_c, 0, 86, 100
2, 144672, Note_on_c, 0, 87, 98
2, 144764, Note_off_c, 0, 87, 100
2, 144768, Note_on_c, 0, 89, 99
2, 144860, Note_off_c, 0, 89, 100
2, 144864, Note_on_c, 0, 87, 100
2, 144956, Note_off_c, 0, 87, 100
2, 144960, Note_on_c, 0, 86, 101
2, 145052, Note_off_c, 0, 86, 100
2, 145056, Note_on_c, 0, 84, 102
2, 145148, Note_off_c, 0, 84, 100
2, 145152, Note_on_c, 0, 83, 103
2, 145244, Note_off_c, 0, 83, 100
2, 145248, Note_on_c, 0, 84, 104
2, 145340, Note_off_c, 0, 84, 100
2, 145344, Note_on_c, 0, 86, 105
2, 145436, Note_off_c, 0, 86, 100
2, 145440, Note_on_c, 0, 87, 106
2, 145532, Note_off_c, 0, 87, 100
2, 145536, Note_on_c, 0, 89, 107
2, 145628, Note_off_c, 0, 89, 100
2, 145632, Note_on_c, 0, 87, 108
2, 145724, Note_off_c, 0, 87, 100
2, 145728, Note_on_c, 0, 86, 108
2, 145820, Note_off_c, 0, 86, 100
2, 145824, Note_on_c, 0, 84, 109
2, 145916, Note_off_c, 0, 84, 100
2, 145920, Note_on_c, 0, 83, 110
2, 146012, Note_off_c, 0, 83, 100
2, 146016, Note_on_c, 0, 84, 110
2, 146108, Note_off_c, 0, 84, 100
2, 146112, Note_on_c, 0, 86, 110
2, 146204, Note_off_c, 0, 86, 100
2, 146208, Note_on_c, 0, 87, 110
2, 146300, Note_off_c, 0, 87, 100
2, 146304, Note_on_c, 0, 89, 110
2, 146396, Note_off_c, 0, 89, 100
2, 146400, Note_on_c, 0, 87, 110
2, 146492, Note_off_c, 0, 87, 100
2, 146496, Note_on_c, 0, 86, 110
2, 146588, Note_off_c, 0, 86, 100
2, 146592, Note_on_c, 0, 84, 110
2, 146684, Note_off_c, 0, 84, 100
2, 146688, Note_on_c, 0, 83, 110
2, 146780, Note_off_c, 0, 83, 100
2, 146784, Note_on_c, 0, 80, 110
2, 146876, Note_off_c, 0, 80, 100
2, 146880, Note_on_c, 0, 79, 110
2, 146972, Note_off_c, 0, 79, 100
2, 146976, Note_on_c, 0, 77, 110
2, 147068, Note_off_c, 0, 77, 100
2, 147072, Note_on_c, 0, 75, 110
2, 147164, Note_off_c, 0, 75, 100
2, 147168, Note_on_c, 0, 74, 110
2, 147260, Note_off_c, 0, 74, 100
2, 147264, Note_on_c, 0, 72, 110
2, 147356, Note_off_c, 0, 72, 100
2, 147360, Note_on_c, 0, 71, 110
2, 147452, Note_off_c, 0, 71, 100
2, 147456, Note_on_c, 0, 72, 100
2, 147644, Note_off_c, 0, 72, 100
2, 147840, Note_on_c, 0, 67, 96
2, 148028, Note_off_c, 0, 67, 100
2, 148224, Note_on_c, 0, 63, 91
2, 148412, Note_off_c, 0, 63, 100
2, 148608, Note_on_c, 0, 60, 86
2, 148796, Note_off_c, 0, 60, 100
2, 148992, Note_on_c, 0, 55, 81
2, 150524, Note_off_c, 0, 55, 100
2, 150528, Note_on_c, 0, 64, 80
2, 150624, Note_on_c, 0, 60, 80
2, 150696, Note_off_c, 0, 64, 100
2, 150720, Note_on_c, 0, 64, 80
2, 150796, Note_off_c, 0, 60, 100
2, 150816, Note_on_c, 0, 60, 80
2, 150884, Note_off_c, 0, 64, 100
2, 150912, Note_on_c, 0, 64, 80
2, 150984, Note_off_c, 0, 60, 100
2, 151008, Note_on_c, 0, 60, 80
2, 151068, Note_off_c, 0, 64, 100
2, 151104, Note_on_c, 0, 64, 80
2, 151164, Note_off_c, 0, 60, 100
2, 151200, Note_on_c, 0, 60, 80
2, 151272, Note_off_c, 0, 64, 100
2, 151296, Note_on_c, 0, 64, 80
2, 151372, Note_off_c, 0, 60, 100
2, 151392, Note_on_c, 0, 60, 80
2, 151476, Note_off_c, 0, 64, 100
2, 151488, Note_on_c, 0, 64, 80
2, 151556, Note_off_c, 0, 60, 100
2, 151584, Note_on_c, 0, 60, 80
2, 151660, Note_off_c, 0, 64, 100
2, 151680, Note_on_c, 0, 64, 80
2, 151748, Note_off_c, 0, 60, 100
2, 151776, Note_on_c, 0, 60, 80
2, 151832, Note_off_c, 0, 64, 100
2, 151872, Note_on_c, 0, 64, 80
2, 151940, Note_off_c, 0, 60, 100
2, 151968, Note_on_c, 0, 60, 80
2, 152024, Note_off_c, 0, 64, 100
2, 152064, Note_on_c, 0, 64, 80
2, 152128, Note_off_c, 0, 60, 100
2, 152160, Note_on_c, 0, 60, 80
2, 152220, Note_off_c, 0, 64, 100
2, 152256, Note_on_c, 0, 64, 80
2, 152340, Note_off_c, 0, 60, 100
2, 152352, Note_on_c, 0, 60, 80
2, 152420, Note_off_c, 0, 64, 100
2, 152448, Note_on_c, 0, 64, 80
2, 152516, Note_off_c, 0, 60, 100
2, 152544, Note_on_c, 0, 60, 80
2, 152616, Note_off_c, 0, 64, 100
2, 152640, Note_on_c, 0, 64, 80
2, 152712, Note_off_c, 0, 60, 100
2, 152736, Note_on_c, 0, 60, 80
2, 152788, Note_off_c, 0, 64, 100
2, 152832, Note_on_c, 0, 64, 80
2, 152884, Note_off_c, 0, 60, 100
2, 152928, Note_on_c, 0, 60, 80
2, 153000, Note_off_c, 0, 64, 100
2, 153024, Note_on_c, 0, 64, 80
2, 153088, Note_off_c, 0, 60, 100
2, 153120, Note_on_c, 0, 60, 80
2, 153176, Note_off_c, 0, 64, 100
2, 153216, Note_on_c, 0, 66, 80
2, 153276, Note_off_c, 0, 60, 100
2, 153312, Note_on_c, 0, 62, 80
2, 153376, Note_off_c, 0, 66, 100
2, 153408, Note_on_c, 0, 66, 80
2, 153468, Note_off_c, 0, 62, 100
2, 153504, Note_on_c, 0, 62, 80
2, 153576, Note_off_c, 0, 66, 100
2, 153596, Note_off_c, 0, 62, 100
2, 153600, Note_on_c, 0, 67, 80
2, 154172, Note_off_c, 0, 67, 100
2, 154176, Note_on_c, 0, 71, 80
2, 154268, Note_off_c, 0, 71, 100
2, 154272, Note_on_c, 0, 69, 80
2, 154364, Note_off_c, 0, 69, 100
2, 154368, Note_on_c, 0, 67, 80
2, 154556, Note_off_c, 0, 67, 100
2, 155136, Note_on_c, 0, 85, 80
2, 155228, Note_off_c, 0, 85, 100
2, 155232, Note_on_c, 0, 86, 80
2, 155612, Note_off_c, 0, 86, 100
2, 155616, Note_on_c, 0, 84, 80
2, 155708, Note_off_c, 0, 84, 100
2, 155712, Note_on_c, 0, 83, 80
2, 155804, Note_off_c, 0, 83, 100
2, 155808, Note_on_c, 0, 81, 80
2, 155900, Note_off_c, 0, 81, 100
2, 155904, Note_on_c, 0, 79, 80
2, 156284, Note_off_c, 0, 79, 100
2, 156672, Note_on_c, 0, 65, 80
2, 156764, Note_off_c, 0, 65, 100
2, 156768, Note_on_c, 0, 62, 80
2, 156860, Note_off_c, 0, 62, 100
2, 156864, Note_on_c, 0, 65, 80
2, 156956, Note_off_c, 0, 65, 100
2, 156960, Note_on_c, 0, 62, 80
2, 157052, Note_off_c, 0, 62, 100
2, 157056, Note_on_c, 0, 65, 80
2, 157148, Note_off_c, 0, 65, 100
2, 157152, Note_on_c, 0, 62, 80
2, 157244, Note_off_c, 0, 62, 100
2, 157248, Note_on_c, 0, 65, 80
2, 157340, Note_off_c, 0, 65, 100
2, 157344, Note_on_c, 0, 62, 80
2, 157436, Note_off_c, 0, 62, 100
2, 157440, Note_on_c, 0, 65, 80
2, 157532, Note_off_c, 0, 65, 100
2, 157536, Note_on_c, 0, 62, 80
2, 157628, Note_off_c, 0, 62, 100
2, 157632, Note_on_c, 0, 65, 80
2, 157724, Note_off_c, 0, 65, 100
2, 157728, Note_on_c, 0, 62, 80
2, 157820, Note_off_c, 0, 62, 100
2, 157824, Note_on_c, 0, 65, 80
2, 157916, Note_off_c, 0, 65, 100
2, 157920, Note_on_c, 0, 62, 80
2, 158012, Note_off_c, 0, 62, 100
2, 158016, Note_on_c, 0, 65, 80
2, 158108, Note_off_c, 0, 65, 100
2, 158112, Note_on_c, 0, 62, 80
2, 158204, Note_off_c, 0, 62, 100
2, 158208, Note_on_c, 0, 65, 80
2, 158300, Note_off_c, 0, 65, 100
2, 158304, Note_on_c, 0, 62, 80
2, 158396, Note_off_c, 0, 62, 100
2, 158400, Note_on_c, 0, 65, 80
2, 158492, Note_off_c, 0, 65, 100
2, 158496, Note_on_c, 0, 62, 80
2, 158588, Note_off_c, 0, 62, 100
2, 158592, Note_on_c, 0, 65, 80
2, 158684, Note_off_c, 0, 65, 100
2, 158688, Note_on_c, 0, 62, 80
2, 158780, Note_off_c, 0, 62, 100
2, 158784, Note_on_c, 0, 65, 80
2, 158876, Note_off_c, 0, 65, 100
2, 158880, Note_on_c, 0, 62, 80
2, 158972, Note_off_c, 0, 62, 100
2, 158976, Note_on_c, 0, 65, 80
2, 159068, Note_off_c, 0, 65, 100
2, 159072, Note_on_c, 0, 62, 80
2, 159164, Note_off_c, 0, 62, 100
2, 159168, Note_on_c, 0, 65, 80
2, 159260, Note_off_c, 0, 65, 100
2, 159264, Note_on_c, 0, 62, 80
2, 159356, Note_off_c, 0, 62, 100
2, 159360, Note_on_c, 0, 68, 80
2, 159452, Note_off_c, 0, 68, 100
2, 159456, Note_on_c, 0, 64, 80
2, 159548, Note_off_c, 0, 64, 100
2, 159552, Note_on_c, 0, 68, 80
2, 159644, Note_off_c, 0, 68, 100
2, 159648, Note_on_c, 0, 64, 80
2, 159740, Note_off_c, 0, 64, 100
2, 159744, Note_on_c, 0, 69, 80
2, 160316, Note_off_c, 0, 69, 100
2, 160320, Note_on_c, 0, 72, 80
2, 160412, Note_off_c, 0, 72, 100
2, 160416, Note_on_c, 0, 71, 80
2, 160508, Note_off_c, 0, 71, 100
2, 160512, Note_on_c, 0, 69, 80
2, 160700, Note_off_c, 0, 69, 100
2, 161280, Note_on_c, 0, 87, 80
2, 161372, Note_off_c, 0, 87, 100
2, 161376, Note_on_c, 0, 88, 80
2, 161756, Note_off_c, 0, 88, 100
2, 161760, Note_on_c, 0, 86, 84
2, 161852, Note_off_c, 0, 86, 100
2, 161856, Note_on_c, 0, 84, 85
2, 161948, Note_off_c, 0, 84, 100
2, 161952, Note_on_c, 0, 83, 86
2, 162044, Note_off_c, 0, 83, 100
2, 162048, Note_on_c, 0, 81, 87
2, 162428, Note_off_c, 0, 81, 100
2, 162816, Note_on_c, 0, 87, 95
2, 162908, Note_off_c, 0, 87, 100
2, 162912, Note_on_c, 0, 88, 96
2, 163292, Note_off_c, 0, 88, 100
2, 163296, Note_on_c, 0, 86, 100
2, 163388, Note_off_c, 0, 86, 100
2, 163392, Note_on_c, 0, 84, 101
2, 163484, Note_off_c, 0, 84, 100
2, 163488, Note_on_c, 0, 83, 102
2, 163580, Note_off_c, 0, 83, 100
2, 163584, Note_on_c, 0, 82, 103
2, 163964, Note_off_c, 0, 82, 100
2, 164352, Note_on_c, 0, 83, 80
2, 164828, Note_off_c, 0, 83, 100
2, 164832, Note_on_c, 0, 81, 80
2, 164924, Note_off_c, 0, 81, 100
2, 164928, Note_on_c, 0, 79, 80
2, 165020, Note_off_c, 0, 79, 100
2, 165024, Note_on_c, 0, 78, 80
2, 165116, Note_off_c, 0, 78, 100
2, 165120, Note_on_c, 0, 79, 80
2, 165212, Note_off_c, 0, 79, 100
2, 165216, Note_on_c, 0, 78, 80
2, 165308, Note_off_c, 0, 78, 100
2, 165312, Note_on_c, 0, 76, 80
2, 165404, Note_off_c, 0, 76, 100
2, 165408, Note_on_c, 0, 75, 80
2, 165500, Note_off_c, 0, 75, 100
2, 165504, Note_on_c, 0, 76, 80
2, 165596, Note_off_c, 0, 76, 100
2, 165600, Note_on_c, 0, 79, 80
2, 165692, Note_off_c, 0, 79, 100
2, 165696, Note_on_c, 0, 78, 80
2, 165788, Note_off_c, 0, 78, 100
2, 165792, Note_on_c, 0, 76, 80
2, 165884, Note_off_c, 0, 76, 100
2, 165888, Note_on_c, 0, 75, 80
2, 165980, Note_off_c, 0, 75, 100
2, 165984, Note_on_c, 0, 73, 80
2, 166076, Note_off_c, 0, 73, 100
2, 166080, Note_on_c, 0, 71, 80
2, 166172, Note_off_c, 0, 71, 100
2, 166176, Note_on_c, 0, 70, 80
2, 166268, Note_off_c, 0, 70, 100
2, 166272, Note_on_c, 0, 71, 80
2, 166364, Note_off_c, 0, 71, 100
2, 166368, Note_on_c, 0, 73, 80
2, 166460, Note_off_c, 0, 73, 100
2, 166464, Note_on_c, 0, 74, 80
2, 166556, Note_off_c, 0, 74, 100
2, 166560, Note_on_c, 0, 75, 80
2, 166652, Note_off_c, 0, 75, 100
2, 166656, Note_on_c, 0, 76, 80
2, 166748, Note_off_c, 0, 76, 100
2, 166752, Note_on_c, 0, 75, 80
2, 166844, Note_off_c, 0, 75, 100
2, 166848, Note_on_c, 0, 76, 80
2, 166940, Note_off_c, 0, 76, 100
2, 166944, Note_on_c, 0, 78, 80
2, 167036, Note_off_c, 0, 78, 100
2, 167040, Note_on_c, 0, 79, 80
2, 167132, Note_off_c, 0, 79, 100
2, 167136, Note_on_c, 0, 80, 80
2, 167228, Note_off_c, 0, 80, 100
2, 167232, Note_on_c, 0, 81, 80
2, 167324, Note_off_c, 0, 81, 100
2, 167328, Note_on_c, 0, 82, 80
2, 167420, Note_off_c, 0, 82, 100
2, 167424, Note_on_c, 0, 83, 80
2, 167516, Note_off_c, 0, 83, 100
2, 167520, Note_on_c, 0, 82, 80
2, 167612, Note_off_c, 0, 82, 100
2, 167616, Note_on_c, 0, 83, 80
2, 167708, Note_off_c, 0, 83, 100
2, 167712, Note_on_c, 0, 82, 80
2, 167804, Note_off_c, 0, 82, 100
2, 167808, Note_on_c, 0, 83, 80
2, 167900, Note_off_c, 0, 83, 100
2, 167904, Note_on_c, 0, 81, 80
2, 167996, Note_off_c, 0, 81, 100
2, 168000, Note_on_c, 0, 79, 80
2, 168092, Note_off_c, 0, 79, 100
2, 168096, Note_on_c, 0, 78, 80
2, 168188, Note_off_c, 0, 78, 100
2, 168192, Note_on_c, 0, 79, 80
2, 168284, Note_off_c, 0, 79, 100
2, 168288, Note_on_c, 0, 78, 80
2, 168380, Note_off_c, 0, 78, 100
2, 168384, Note_on_c, 0, 76, 80
2, 168476, Note_off_c, 0, 76, 100
2, 168480, Note_on_c, 0, 75, 80
2, 168572, Note_off_c, 0, 75, 100
2, 168576, Note_on_c, 0, 76, 80
2, 168668, Note_off_c, 0, 76, 100
2, 168672, Note_on_c, 0, 79, 80
2, 168764, Note_off_c, 0, 79, 100
2, 168768, Note_on_c, 0, 78, 80
2, 168860, Note_off_c, 0, 78, 100
2, 168864, Note_on_c, 0, 76, 80
2, 168956, Note_off_c, 0, 76, 100
2, 168960, Note_on_c, 0, 75, 80
2, 169052, Note_off_c, 0, 75, 100
2, 169056, Note_on_c, 0, 73, 80
2, 169148, Note_off_c, 0, 73, 100
2, 169152, Note_on_c, 0, 71, 80
2, 169244, Note_off_c, 0, 71, 100
2, 169248, Note_on_c, 0, 70, 80
2, 169340, Note_off_c, 0, 70, 100
2, 169344, Note_on_c, 0, 71, 80
2, 169436, Note_off_c, 0, 71, 100
2, 169440, Note_on_c, 0, 73, 80
2, 169532, Note_off_c, 0, 73, 100
2, 169536, Note_on_c, 0, 74, 80
2, 169628, Note_off_c, 0, 74, 100
2, 169632, Note_on_c, 0, 75, 80
2, 169724, Note_off_c, 0, 75, 100
2, 169728, Note_on_c, 0, 76, 80
2, 169820, Note_off_c, 0, 76, 100
2, 169824, Note_on_c, 0, 75, 80
2, 169916, Note_off_c, 0, 75, 100
2, 169920, Note_on_c, 0, 76, 80
2, 170012, Note_off_c, 0, 76, 100
2, 170016, Note_on_c, 0, 78, 80
2, 170108, Note_off_c, 0, 78, 100
2, 170112, Note_on_c, 0, 79, 80
2, 170204, Note_off_c, 0, 79, 100
2, 170208, Note_on_c, 0, 80, 80
2, 170300, Note_off_c, 0, 80, 100
2, 170304, Note_on_c, 0, 81, 80
2, 170396, Note_off_c, 0, 81, 100
2, 170400, Note_on_c, 0, 82, 80
2, 170492, Note_off_c, 0, 82, 100
2, 170496, Note_on_c, 0, 83, 80
2, 170588, Note_off_c, 0, 83, 100
2, 170592, Note_on_c, 0, 78, 82
2, 170684, Note_off_c, 0, 78, 100
2, 170688, Note_on_c, 0, 75, 84
2, 170780, Note_off_c, 0, 75, 100
2, 170784, Note_on_c, 0, 71, 86
2, 170876, Note_off_c, 0, 71, 100
2, 170880, Note_on_c, 0, 70, 88
2, 170972, Note_off_c, 0, 70, 100
2, 170976, Note_on_c, 0, 71, 90
2, 171068, Note_off_c, 0, 71, 100
2, 171072, Note_on_c, 0, 76, 92
2, 171164, Note_off_c, 0, 76, 100
2, 171168, Note_on_c, 0, 79, 94
2, 171260, Note_off_c, 0, 79, 100
2, 171264, Note_on_c, 0, 83, 96
2, 171356, Note_off_c, 0, 83, 100
2, 171360, Note_on_c, 0, 78, 98
2, 171452, Note_off_c, 0, 78, 100
2, 171456, Note_on_c, 0, 75, 100
2, 171548, Note_off_c, 0, 75, 100
2, 171552, Note_on_c, 0, 71, 102
2, 171644, Note_off_c, 0, 71, 100
2, 171648, Note_on_c, 0, 70, 104
2, 171740, Note_off_c, 0, 70, 100
2, 171744, Note_on_c, 0, 71, 106
2, 171836, Note_off_c, 0, 71, 100
2, 171840, Note_on_c, 0, 76, 108
2, 171932, Note_off_c, 0, 76, 100
2, 171936, Note_on_c, 0, 79, 110
2, 172028, Note_off_c, 0, 79, 100
2, 172032, Control_c, 0, 64, 127
2, 172032, Note_on_c, 0, 83, 110
2, 172124, Note_off_c, 0, 83, 100
2, 172128, Note_on_c, 0, 78, 110
2, 172220, Note_off_c, 0, 78, 100
2, 172224, Note_on_c, 0, 75, 110
2, 172316, Note_off_c, 0, 75, 100
2, 172320, Note_on_c, 0, 71, 110
2, 172408, Control_c, 0, 64, 0
2, 172412, Note_off_c, 0, 71, 100
2, 172416, Control_c, 0, 64, 127
2, 172416, Note_on_c, 0, 83, 110
2, 172508, Note_off_c, 0, 83, 100
2, 172512, Note_on_c, 0, 79, 110
2, 172604, Note_off_c, 0, 79, 100
2, 172608, Note_on_c, 0, 76, 110
2, 172700, Note_off_c, 0, 76, 100
2, 172704, Note_on_c, 0, 71, 110
2, 172792, Control_c, 0, 64, 0
2, 172796, Note_off_c, 0, 71, 100
2, 172800, Control_c, 0, 64, 127
2, 172800, Note_on_c, 0, 83, 110
2, 172892, Note_off_c, 0, 83, 100
2, 172896, Note_on_c, 0, 78, 110
2, 172988, Note_off_c, 0, 78, 100
2, 172992, Note_on_c, 0, 75, 110
2, 173084, Note_off_c, 0, 75, 100
2, 173088, Note_on_c, 0, 71, 110
2, 173176, Control_c, 0, 64, 0
2, 173180, Note_off_c, 0, 71, 100
2, 173184, Control_c, 0, 64, 127
2, 173184, Note_on_c, 0, 83, 110
2, 173276, Note_off_c, 0, 83, 100
2, 173280, Note_on_c, 0, 79, 110
2, 173372, Note_off_c, 0, 79, 100
2, 173376, Note_on_c, 0, 76, 110
2, 173468, Note_off_c, 0, 76, 100
2, 173472, Note_on_c, 0, 71, 110
2, 173560, Control_c, 0, 64, 0
2, 173564, Note_off_c, 0, 71, 100
2, 173568, Control_c, 0, 64, 127
2, 173568, Note_on_c, 0, 83, 110
2, 173660, Note_off_c, 0, 83, 100
2, 173664, Note_on_c, 0, 78, 110
2, 173756, Note_off_c, 0, 78, 100
2, 173760, Note_on_c, 0, 75, 110
2, 173852, Note_off_c, 0, 75, 100
2, 173856, Note_on_c, 0, 71, 110
2, 173944, Control_c, 0, 64, 0
2, 173948, Note_off_c, 0, 71, 100
2, 173952, Control_c, 0, 64, 127
2, 173952, Note_on_c, 0, 78, 110
2, 174044, Note_off_c, 0, 78, 100
2, 174048, Note_on_c, 0, 75, 110
2, 174140, Note_off_c, 0, 75, 100
2, 174144, Note_on_c, 0, 71, 110
2, 174236, Note_off_c, 0, 71, 100
2, 174240, Note_on_c, 0, 66, 110
2, 174328, Control_c, 0, 64, 0
2, 174332, Note_off_c, 0, 66, 100
2, 174336, Control_c, 0, 64, 127
2, 174336, Note_on_c, 0, 75, 110
2, 174428, Note_off_c, 0, 75, 100
2, 174432, Note_on_c, 0, 71, 110
2, 174524, Note_off_c, 0, 71, 100
2, 174528, Note_on_c, 0, 66, 110
2, 174620, Note_off_c, 0, 66, 100
2, 174624, Note_on_c, 0, 63, 110
2, 174712, Control_c, 0, 64, 0
2, 174716, Note_off_c, 0, 63, 100
2, 174720, Control_c, 0, 64, 127
2, 174720, Note_on_c, 0, 71, 110
2, 174812, Note_off_c, 0, 71, 100
2, 174816, Note_on_c, 0, 66, 110
2, 174908, Note_off_c, 0, 66, 100
2, 174912, Note_on_c, 0, 63, 110
2, 175004, Note_off_c, 0, 63, 100
2, 175008, Note_on_c, 0, 59, 110
2, 175096, Control_c, 0, 64, 0
2, 175100, Note_off_c, 0, 59, 100
2, 175104, Control_c, 0, 64, 127
2, 175104, Note_on_c, 0, 66, 110
2, 175196, Note_off_c, 0, 66, 100
2, 175200, Note_on_c, 0, 63, 110
2, 175292, Note_off_c, 0, 63, 100
2, 175296, Note_on_c, 0, 59, 110
2, 175388, Note_off_c, 0, 59, 100
2, 175392, Note_on_c, 0, 54, 110
2, 175480, Control_c, 0, 64, 0
2, 175484, Note_off_c, 0, 54, 100
2, 175488, Control_c, 0, 64, 127
2, 175488, Note_on_c, 0, 63, 110
2, 175580, Note_off_c, 0, 63, 100
2, 175584, Note_on_c, 0, 59, 110
2, 175676, Note_off_c, 0, 59, 100
2, 175680, Note_on_c, 0, 54, 110
2, 175772, Note_off_c, 0, 54, 100
2, 175776, Note_on_c, 0, 51, 110
2, 175864, Control_c, 0, 64, 0
2, 175868, Note_off_c, 0, 51, 100
2, 175872, Control_c, 0, 64, 127
2, 175872, Note_on_c, 0, 59, 110
2, 175964, Note_off_c, 0, 59, 100
2, 175968, Note_on_c, 0, 54, 110
2, 176060, Note_off_c, 0, 54, 100
2, 176064, Note_on_c, 0, 51, 110
2, 176156, Note_off_c, 0, 51, 100
2, 176160, Note_on_c, 0, 47, 110
2, 176248, Control_c, 0, 64, 0
2, 176252, Note_off_c, 0, 47, 100
2, 176256, Control_c, 0, 64, 127
2, 176632, Control_c, 0, 64, 0
2, 177408, Note_on_c, 0, 71, 103
2, 177596, Note_off_c, 0, 71, 100
2, 177600, Note_on_c, 0, 59, 101
2, 177788, Note_off_c, 0, 59, 100
2, 177792, Note_on_c, 0, 73, 99
2, 177980, Note_off_c, 0, 73, 100
2, 177984, Note_on_c, 0, 61, 97
2, 178172, Note_off_c, 0, 61, 100
2, 178176, Note_on_c, 0, 75, 95
2, 178364, Note_off_c, 0, 75, 100
2, 178368, Note_on_c, 0, 63, 93
2, 178556, Note_off_c, 0, 63, 100
2, 178944, Note_on_c, 0, 75, 87
2, 179132, Note_off_c, 0, 75, 100
2, 179136, Note_on_c, 0, 63, 85
2, 179324, Note_off_c, 0, 63, 100
2, 179328, Note_on_c, 0, 76, 83
2, 179516, Note_off_c, 0, 76, 100
2, 179520, Note_on_c, 0, 64, 81
2, 179708, Note_off_c, 0, 64, 100
2, 179712, Note_on_c, 0, 78, 80
2, 179900, Note_off_c, 0, 78, 100
2, 179904, Note_on_c, 0, 66, 80
2, 180092, Note_off_c, 0, 66, 100
2, 180096, Note_on_c, 0, 80, 80
2, 180284, Note_off_c, 0, 80, 100
2, 180288, Note_on_c, 0, 68, 80
2, 180476, Note_off_c, 0, 68, 100
2, 180480, Note_on_c, 0, 81, 80
2, 180668, Note_off_c, 0, 81, 100
2, 180672, Note_on_c, 0, 69, 80
2, 180860, Note_off_c, 0, 69, 100
2, 180864, Note_on_c, 0, 81, 80
2, 181052, Note_off_c, 0, 81, 100
2, 181056, Note_on_c, 0, 71, 80
2, 181244, Note_off_c, 0, 71, 100
2, 181248, Note_on_c, 0, 81, 80
2, 181436, Note_off_c, 0, 81, 100
2, 181440, Note_on_c, 0, 73, 80
2, 181628, Note_off_c, 0, 73, 100
2, 181632, Note_on_c, 0, 81, 80
2, 181820, Note_off_c, 0, 81, 100
2, 181824, Note_on_c, 0, 75, 80
2, 182012, Note_off_c, 0, 75, 100
2, 182016, Note_on_c, 0, 81, 80
2, 182204, Note_off_c, 0, 81, 100
2, 182208, Note_on_c, 0, 76, 80
2, 182396, Note_off_c, 0, 76, 100
2, 182400, Note_on_c, 0, 81, 80
2, 182588, Note_off_c, 0, 81, 100
2, 182592, Note_on_c, 0, 78, 80
2, 182780, Note_off_c, 0, 78, 100
2, 182784, Note_on_c, 0, 80, 80
2, 182784, Note_on_c, 0, 76, 80
2, 182784, Note_on_c, 0, 71, 80
2, 183548, Note_off_c, 0, 80, 100
2, 183548, Note_off_c, 0, 76, 100
2, 183548, Note_off_c, 0, 71, 100
2, 183552, Note_on_c, 0, 78, 80
2, 183552, Note_on_c, 0, 75, 80
2, 183552, Note_on_c, 0, 69, 80
2, 183932, Note_off_c, 0, 78, 100
2, 183932, Note_off_c, 0, 75, 100
2, 183932, Note_off_c, 0, 69, 100
2, 183936, Note_on_c, 0, 76, 80
2, 183936, Note_on_c, 0, 73, 80
2, 183936, Note_on_c, 0, 68, 80
2, 184316, Note_off_c, 0, 76, 100
2, 184316, Note_off_c, 0, 73, 100
2, 184316, Note_off_c, 0, 68, 100
2, 184320, Note_on_c, 0, 75, 80
2, 184320, Note_on_c, 0, 72, 80
2, 184320, Note_on_c, 0, 66, 80
2, 185084, Note_off_c, 0, 75, 100
2, 185084, Note_off_c, 0, 72, 100
2, 185084, Note_off_c, 0, 66, 100
2, 185088, Note_on_c, 0, 73, 80
2, 185088, Note_on_c, 0, 64, 80
2, 185852, Note_off_c, 0, 73, 100
2, 185852, Note_off_c, 0, 64, 100
2, 185856, Note_on_c, 0, 75, 80
2, 185856, Note_on_c, 0, 71, 80
2, 185856, Note_on_c, 0, 69, 80
2, 186620, Note_off_c, 0, 75, 100
2, 186620, Note_off_c, 0, 71, 100
2, 186620, Note_off_c, 0, 69, 100
2, 186624, Note_on_c, 0, 76, 99
2, 186624, Note_on_c, 0, 71, 99
2, 187004, Note_off_c, 0, 76, 100
2, 187004, Note_off_c, 0, 71, 100
2, 187008, Note_on_c, 0, 78, 109
2, 187008, Note_on_c, 0, 76, 109
2, 187008, Note_on_c, 0, 73, 109
2, 187388, Note_off_c, 0, 78, 100
2, 187388, Note_off_c, 0, 76, 100
2, 187388, Note_off_c, 0, 73, 100
2, 187392, Note_on_c, 0, 80, 110
2, 187392, Note_on_c, 0, 76, 110
2, 187392, Note_on_c, 0, 71, 110
2, 188156, Note_off_c, 0, 80, 100
2, 188156, Note_off_c, 0, 76, 100
2, 188160, Note_on_c, 0, 78, 91
2, 188160, Note_on_c, 0, 75, 91
2, 188540, Note_off_c, 0, 71, 100
2, 188544, Note_on_c, 0, 69, 81
2, 188924, Note_off_c, 0, 78, 100
2, 188924, Note_off_c, 0, 75, 100
2, 188924, Note_off_c, 0, 69, 100
2, 188928, Note_on_c, 0, 68, 80
2, 188928, Note_on_c, 0, 64, 80
2, 188928, Note_on_c, 0, 59, 80
2, 189692, Note_off_c, 0, 68, 100
2, 189692, Note_off_c, 0, 64, 100
2, 189692, Note_off_c, 0, 59, 100
2, 189696, Note_on_c, 0, 66, 80
2, 189696, Note_on_c, 0, 63, 80
2, 189696, Note_on_c, 0, 57, 80
2, 190076, Note_off_c, 0, 66, 100
2, 190076, Note_off_c, 0, 63, 100
2, 190076, Note_off_c, 0, 57, 100
2, 190080, Note_on_c, 0, 64, 80
2, 190080, Note_on_c, 0, 61, 80
2, 190080, Note_on_c, 0, 56, 80
2, 190460, Note_off_c, 0, 64, 100
2, 190460, Note_off_c, 0, 61, 100
2, 190460, Note_off_c, 0, 56, 100
2, 190464, Note_on_c, 0, 63, 80
2, 190464, Note_on_c, 0, 60, 80
2, 190464, Note_on_c, 0, 54, 80
2, 191228, Note_off_c, 0, 63, 100
2, 191228, Note_off_c, 0, 60, 100
2, 191228, Note_off_c, 0, 54, 100
2, 191232, Note_on_c, 0, 61, 80
2, 191232, Note_on_c, 0, 57, 80
2, 191232, Note_on_c, 0, 52, 80
2, 191996, Note_off_c, 0, 61, 100
2, 191996, Note_off_c, 0, 57, 100
2, 191996, Note_off_c, 0, 52, 100
2, 192000, Note_on_c, 0, 56, 80
2, 192000, Note_on_c, 0, 52, 80
2, 192000, Note_on_c, 0, 59, 80
2, 192380, Note_off_c, 0, 56, 100
2, 192380, Note_off_c, 0, 52, 100
2, 192384, Note_on_c, 0, 57, 80
2, 192384, Note_on_c, 0, 54, 80
2, 192764, Note_off_c, 0, 59, 100
2, 192768, Note_on_c, 0, 61, 80
2, 193148, Note_off_c, 0, 61, 100
2, 193152, Note_on_c, 0, 63, 80
2, 193532, Note_off_c, 0, 57, 100
2, 193532, Note_off_c, 0, 54, 100
2, 193532, Note_off_c, 0, 63, 100
2, 193536, Note_on_c, 0, 64, 80
2, 193536, Note_on_c, 0, 56, 80
2, 193660, Note_off_c, 0, 64, 100
2, 193660, Note_off_c, 0, 56, 100
2, 193664, Note_on_c, 0, 66, 80
2, 193788, Note_off_c, 0, 66, 100
2, 193792, Note_on_c, 0, 68, 80
2, 193916, Note_off_c, 0, 68, 100
2, 193920, Note_on_c, 0, 69, 80
2, 194044, Note_off_c, 0, 69, 100
2, 194048, Note_on_c, 0, 71, 80
2, 194172, Note_off_c, 0, 71, 100
2, 194176, Note_on_c, 0, 73, 80
2, 194300, Note_off_c, 0, 73, 100
2, 194304, Note_on_c, 0, 74, 80
2, 194428, Note_off_c, 0, 74, 100
2, 194432, Note_on_c, 0, 75, 80
2, 194556, Note_off_c, 0, 75, 100
2, 194560, Note_on_c, 0, 76, 80
2, 194684, Note_off_c, 0, 76, 100
2, 194688, Note_on_c, 0, 77, 80
2, 194812, Note_off_c, 0, 77, 100
2, 194816, Note_on_c, 0, 78, 80
2, 194940, Note_off_c, 0, 78, 100
2, 194944, Note_on_c, 0, 79, 80
2, 195068, Note_off_c, 0, 79, 100
2, 195072, Note_on_c, 0, 71, 80
2, 195072, Note_on_c, 0, 80, 80
2, 195196, Note_off_c, 0, 80, 100
2, 195200, Note_on_c, 0, 79, 80
2, 195324, Note_off_c, 0, 79, 100
2, 195328, Note_on_c, 0, 80, 80
2, 195452, Note_off_c, 0, 80, 100
2, 195456, Note_on_c, 0, 81, 80
2, 195580, Note_off_c, 0, 81, 100
2, 195584, Note_on_c, 0, 78, 80
2, 195708, Note_off_c, 0, 78, 100
2, 195712, Note_on_c, 0, 80, 80
2, 195836, Note_off_c, 0, 71, 100
2, 195836, Note_off_c, 0, 80, 100
2, 195840, Note_on_c, 0, 69, 80
2, 195968, Note_on_c, 0, 80, 80
2, 196092, Note_off_c, 0, 80, 100
2, 196096, Note_on_c, 0, 78, 80
2, 196220, Note_off_c, 0, 69, 100
2, 196220, Note_off_c, 0, 78, 100
2, 196224, Note_on_c, 0, 68, 80
2, 196352, Note_on_c, 0, 78, 80
2, 196476, Note_off_c, 0, 78, 100
2, 196480, Note_on_c, 0, 76, 80
2, 196604, Note_off_c, 0, 68, 100
2, 196604, Note_off_c, 0, 76, 100
2, 196608, Note_on_c, 0, 66, 80
2, 196736, Note_on_c, 0, 72, 80
2, 196860, Note_off_c, 0, 72, 100
2, 196864, Note_on_c, 0, 75, 80
2, 196988, Note_off_c, 0, 75, 100
2, 196992, Note_on_c, 0, 76, 80
2, 197116, Note_off_c, 0, 76, 100
2, 197120, Note_on_c, 0, 72, 80
2, 197244, Note_off_c, 0, 72, 100
2, 197248, Note_on_c, 0, 75, 80
2, 197372, Note_off_c, 0, 66, 100
2, 197372, Note_off_c, 0, 75, 100
2, 197376, Note_on_c, 0, 64, 80
2, 197504, Note_on_c, 0, 69, 80
2, 197628, Note_off_c, 0, 69, 100
2, 197632, Note_on_c, 0, 73, 80
2, 197756, Note_off_c, 0, 73, 100
2, 197760, Note_on_c, 0, 75, 80
2, 197884, Note_off_c, 0, 75, 100
2, 197888, Note_on_c, 0, 69, 80
2, 198012, Note_off_c, 0, 69, 100
2, 198016, Note_on_c, 0, 73, 80
2, 198140, Note_off_c, 0, 64, 100
2, 198140, Note_off_c, 0, 73, 100
2, 198144, Note_on_c, 0, 69, 80
2, 198272, Note_on_c, 0, 74, 82
2, 198396, Note_off_c, 0, 74, 100
2, 198400, Note_on_c, 0, 75, 85
2, 198524, Note_off_c, 0, 75, 100
2, 198528, Note_on_c, 0, 76, 88
2, 198652, Note_off_c, 0, 76, 100
2, 198656, Note_on_c, 0, 74, 91
2, 198780, Note_off_c, 0, 74, 100
2, 198784, Note_on_c, 0, 75, 94
2, 198908, Note_off_c, 0, 69, 100
2, 198908, Note_off_c, 0, 75, 100
2, 198912, Note_on_c, 0, 71, 96
2, 199040, Note_on_c, 0, 78, 99
2, 199164, Note_off_c, 0, 78, 100
2, 199168, Note_on_c, 0, 76, 102
2, 199292, Note_off_c, 0, 71, 100
2, 199292, Note_off_c, 0, 76, 100
2, 199296, Note_on_c, 0, 73, 105
2, 199424, Note_on_c, 0, 80, 108
2, 199548, Note_off_c, 0, 80, 100
2, 199552, Note_on_c, 0, 78, 110
2, 199676, Note_off_c, 0, 73, 100
2, 199676, Note_off_c, 0, 78, 100
2, 199680, Note_on_c, 0, 76, 110
2, 199680, Note_on_c, 0, 80, 110
2, 199804, Note_off_c, 0, 80, 100
2, 199808, Note_on_c, 0, 79, 110
2, 199932, Note_off_c, 0, 79, 100
2, 199936, Note_on_c, 0, 80, 110
2, 200060, Note_off_c, 0, 80, 100
2, 200064, Note_on_c, 0, 83, 110
2, 200188, Note_off_c, 0, 83, 100
2, 200192, Note_on_c, 0, 81, 110
2, 200316, Note_off_c, 0, 81, 100
2, 200320, Note_on_c, 0, 80, 110
2, 200444, Note_off_c, 0, 76, 100
2, 200444, Note_off_c, 0, 80, 100
2, 200448, Note_on_c, 0, 78, 110
2, 200448, Note_on_c, 0, 75, 110
2, 200572, Note_off_c, 0, 78, 100
2, 200572, Note_off_c, 0, 75, 100
2, 200576, Note_on_c, 0, 76, 107
2, 200576, Note_on_c, 0, 73, 107
2, 200700, Note_off_c, 0, 76, 100
2, 200700, Note_off_c, 0, 73, 100
2, 200704, Note_on_c, 0, 75, 103
2, 200704, Note_on_c, 0, 71, 103
2, 200828, Note_off_c, 0, 75, 100
2, 200828, Note_off_c, 0, 71, 100
2, 200832, Note_on_c, 0, 73, 99
2, 200832, Note_on_c, 0, 69, 99
2, 200956, Note_off_c, 0, 73, 100
2, 200956, Note_off_c, 0, 69, 100
2, 200960, Note_on_c, 0, 71, 95
2, 200960, Note_on_c, 0, 68, 95
2, 201084, Note_off_c, 0, 71, 100
2, 201084, Note_off_c, 0, 68, 100
2, 201088, Note_on_c, 0, 69, 91
2, 201088, Note_on_c, 0, 66, 91
2, 201212, Note_off_c, 0, 69, 100
2, 201212, Note_off_c, 0, 66, 100
2, 201216, Note_on_c, 0, 59, 80
2, 201216, Note_on_c, 0, 68, 80
2, 201340, Note_off_c, 0, 68, 100
2, 201344, Note_on_c, 0, 67, 80
2, 201468, Note_off_c, 0, 67, 100
2, 201472, Note_on_c, 0, 68, 80
2, 201596, Note_off_c, 0, 68, 100
2, 201600, Note_on_c, 0, 69, 80
2, 201724, Note_off_c, 0, 69, 100
2, 201728, Note_on_c, 0, 67, 80
2, 201852, Note_off_c, 0, 67, 100
2, 201856, Note_on_c, 0, 68, 80
2, 201980, Note_off_c, 0, 59, 100
2, 201980, Note_off_c, 0, 68, 100
2, 201984, Note_on_c, 0, 57, 80
2, 202112, Note_on_c, 0, 68, 80
2, 202236, Note_off_c, 0, 68, 100
2, 202240, Note_on_c, 0, 66, 80
2, 202364, Note_off_c, 0, 57, 100
2, 202364, Note_off_c, 0, 66, 100
2, 202368, Note_on_c, 0, 56, 80
2, 202496, Note_on_c, 0, 66, 80
2, 202620, Note_off_c, 0, 66, 100
2, 202624, Note_on_c, 0, 64, 80
2, 202748, Note_off_c, 0, 56, 100
2, 202748, Note_off_c, 0, 64, 100
2, 202752, Note_on_c, 0, 54, 80
2, 202880, Note_on_c, 0, 60, 80
2, 203004, Note_off_c, 0, 60, 100
2, 203008, Note_on_c, 0, 63, 80
2, 203132, Note_off_c, 0, 63, 100
2, 203136, Note_on_c, 0, 64, 80
2, 203260, Note_off_c, 0, 64, 100
2, 203264, Note_on_c, 0, 60, 80
2, 203388, Note_off_c, 0, 60, 100
2, 203392, Note_on_c, 0, 63, 80
2, 203516, Note_off_c, 0, 54, 100
2, 203516, Note_off_c, 0, 63, 100
2, 203520, Note_on_c, 0, 52, 80
2, 203648, Note_on_c, 0, 57, 80
2, 203772, Note_off_c, 0, 57, 100
2, 203776, Note_on_c, 0, 61, 80
2, 203900, Note_off_c, 0, 61, 100
2, 203904, Note_on_c, 0, 63, 80
2, 204028, Note_off_c, 0, 63, 100
2, 204032, Note_on_c, 0, 57, 80
2, 204156, Note_off_c, 0, 57, 100
2, 204160, Note_on_c, 0, 61, 80
2, 204284, Note_off_c, 0, 52, 100
2, 204284, Note_off_c, 0, 61, 100
2, 204288, Note_on_c, 0, 52, 80
2, 204416, Note_on_c, 0, 56, 82
2, 204540, Note_off_c, 0, 56, 100
2, 204544, Note_on_c, 0, 59, 85
2, 204668, Note_off_c, 0, 52, 100
2, 204668, Note_off_c, 0, 59, 100
2, 204672, Note_on_c, 0, 54, 88
2, 204800, Note_on_c, 0, 57, 91
2, 204924, Note_off_c, 0, 57, 100
2, 204928, Note_on_c, 0, 59, 94
2, 205052, Note_off_c, 0, 54, 100
2, 205052, Note_off_c, 0, 59, 100
2, 205056, Note_on_c, 0, 54, 96
2, 205184, Note_on_c, 0, 57, 99
2, 205308, Note_off_c, 0, 57, 100
2, 205312, Note_on_c, 0, 61, 102
2, 205436, Note_off_c, 0, 54, 100
2, 205436, Note_off_c, 0, 61, 100
2, 205440, Note_on_c, 0, 54, 105
2, 205568, Note_on_c, 0, 61, 108
2, 205692, Note_off_c, 0, 61, 100
2, 205696, Note_on_c, 0, 63, 110
2, 205820, Note_off_c, 0, 54, 100
2, 205820, Note_off_c, 0, 63, 100
2, 205824, Note_on_c, 0, 64, 110
2, 205824, Note_on_c, 0, 56, 110
2, 205948, Note_off_c, 0, 64, 100
2, 205948, Note_off_c, 0, 56, 100
2, 205952, Note_on_c, 0, 59, 110
2, 206076, Note_off_c, 0, 59, 100
2, 206080, Note_on_c, 0, 56, 110
2, 206204, Note_off_c, 0, 56, 100
2, 206208, Note_on_c, 0, 59, 110
2, 206332, Note_off_c, 0, 59, 100
2, 206336, Note_on_c, 0, 64, 110
2, 206460, Note_off_c, 0, 64, 100
2, 206464, Note_on_c, 0, 68, 110
2, 206588, Note_off_c, 0, 68, 100
2, 206592, Note_on_c, 0, 66, 110
2, 206716, Note_off_c, 0, 66, 100
2, 206720, Note_on_c, 0, 63, 110
2, 206844, Note_off_c, 0, 63, 100
2, 206848, Note_on_c, 0, 59, 110
2, 206972, Note_off_c, 0, 59, 100
2, 206976, Note_on_c, 0, 63, 110
2, 207100, Note_off_c, 0, 63, 100
2, 207104, Note_on_c, 0, 66, 110
2, 207228, Note_off_c, 0, 66, 100
2, 207232, Note_on_c, 0, 69, 110
2, 207356, Note_off_c, 0, 69, 100
2, 207360, Note_on_c, 0, 68, 110
2, 207484, Note_off_c, 0, 68, 100
2, 207488, Note_on_c, 0, 64, 110
2, 207612, Note_off_c, 0, 64, 100
2, 207616, Note_on_c, 0, 59, 110
2, 207740, Note_off_c, 0, 59, 100
2, 207744, Note_on_c, 0, 64, 110
2, 207868, Note_off_c, 0, 64, 100
2, 207872, Note_on_c, 0, 68, 110
2, 207996, Note_off_c, 0, 68, 100
2, 208000, Note_on_c, 0, 71, 110
2, 208124, Note_off_c, 0, 71, 100
2, 208128, Note_on_c, 0, 69, 110
2, 208252, Note_off_c, 0, 69, 100
2, 208256, Note_on_c, 0, 66, 110
2, 208380, Note_off_c, 0, 66, 100
2, 208384, Note_on_c, 0, 63, 110
2, 208508, Note_off_c, 0, 63, 100
2, 208512, Note_on_c, 0, 75, 110
2, 208636, Note_off_c, 0, 75, 100
2, 208640, Note_on_c, 0, 71, 110
2, 208764, Note_off_c, 0, 71, 100
2, 208768, Note_on_c, 0, 66, 110
2, 208892, Note_off_c, 0, 66, 100
2, 208896, Note_on_c, 0, 76, 110
2, 208896, Note_on_c, 0, 68, 110
2, 209276, Note_off_c, 0, 76, 100
2, 209276, Note_off_c, 0, 68, 100
2, 209280, Note_on_c, 0, 71, 110
2, 210044, Note_off_c, 0, 71, 100
2, 210048, Note_on_c, 0, 71, 110
2, 210812, Note_off_c, 0, 71, 64
2, 210816, Note_on_c, 0, 71, 110
2, 211580, Note_off_c, 0, 71, 100
2, 211584, Note_on_c, 0, 71, 110
2, 211964, Note_off_c, 0, 71, 100
2, 211968, Control_c, 0, 64, 127
2, 211968, Note_on_c, 0, 76, 110
2, 212092, Note_off_c, 0, 76, 100
2, 212096, Note_on_c, 0, 71, 110
2, 212220, Note_off_c, 0, 71, 100
2, 212224, Note_on_c, 0, 68, 110
2, 212344, Control_c, 0, 64, 0
2, 212348, Note_off_c, 0, 68, 100
2, 212352, Control_c, 0, 64, 127
2, 212352, Note_on_c, 0, 71, 110
2, 212476, Note_off_c, 0, 71, 100
2, 212480, Note_on_c, 0, 76, 110
2, 212604, Note_off_c, 0, 76, 100
2, 212608, Note_on_c, 0, 80, 110
2, 212728, Control_c, 0, 64, 0
2, 212732, Note_off_c, 0, 80, 100
2, 212736, Control_c, 0, 64, 127
2, 212736, Note_on_c, 0, 78, 110
2, 212860, Note_off_c, 0, 78, 100
2, 212864, Note_on_c, 0, 75, 110
2, 212988, Note_off_c, 0, 75, 100
2, 212992, Note_on_c, 0, 71, 110
2, 213112, Control_c, 0, 64, 0
2, 213116, Note_off_c, 0, 71, 100
2, 213120, Control_c, 0, 64, 127
2, 213120, Note_on_c, 0, 75, 110
2, 213244, Note_off_c, 0, 75, 100
2, 213248, Note_on_c, 0, 78, 110
2, 213372, Note_off_c, 0, 78, 100
2, 213376, Note_on_c, 0, 81, 110
2, 213496, Control_c, 0, 64, 0
2, 213500, Note_off_c, 0, 81, 100
2, 213504, Control_c, 0, 64, 127
2, 213504, Note_on_c, 0, 80, 110
2, 213628, Note_off_c, 0, 80, 100
2, 213632, Note_on_c, 0, 76, 110
2, 213756, Note_off_c, 0, 76, 100
2, 213760, Note_on_c, 0, 71, 110
2, 213880, Control_c, 0, 64, 0
2, 213884, Note_off_c, 0, 71, 100
2, 213888, Control_c, 0, 64, 127
2, 213888, Note_on_c, 0, 76, 110
2, 214012, Note_off_c, 0, 76, 100
2, 214016, Note_on_c, 0, 80, 110
2, 214140, Note_off_c, 0, 80, 100
2, 214144, Note_on_c, 0, 83, 110
2, 214264, Control_c, 0, 64, 0
2, 214268, Note_off_c, 0, 83, 100
2, 214272, Control_c, 0, 64, 127
2, 214272, Note_on_c, 0, 81, 110
2, 214396, Note_off_c, 0, 81, 100
2, 214400, Note_on_c, 0, 78, 110
2, 214524, Note_off_c, 0, 78, 100
2, 214528, Note_on_c, 0, 75, 110
2, 214648, Control_c, 0, 64, 0
2, 214652, Note_off_c, 0, 75, 100
2, 214656, Control_c, 0, 64, 127
2, 214656, Note_on_c, 0, 87, 110
2, 214780, Note_off_c, 0, 87, 100
2, 214784, Note_on_c, 0, 83, 110
2, 214908, Note_off_c, 0, 83, 100
2, 214912, Note_on_c, 0, 78, 110
2, 215032, Control_c, 0, 64, 0
2, 215036, Note_off_c, 0, 78, 100
2, 215040, Control_c, 0, 64, 127
2, 215040, Note_on_c, 0, 88, 110
2, 215164, Note_off_c, 0, 88, 100
2, 215168, Note_on_c, 0, 83, 110
2, 215292, Note_off_c, 0, 83, 100
2, 215296, Note_on_c, 0, 80, 110
2, 215416, Control_c, 0, 64, 0
2, 215420, Note_off_c, 0, 80, 100
2, 215424, Control_c, 0, 64, 127
2, 215424, Note_on_c, 0, 83, 110
2, 215548, Note_off_c, 0, 83, 100
2, 215552, Note_on_c, 0, 80, 110
2, 215676, Note_off_c, 0, 80, 100
2, 215680, Note_on_c, 0, 76, 109
2, 215800, Control_c, 0, 64, 0
2, 215804, Note_off_c, 0, 76, 100
2, 215808, Control_c, 0, 64, 127
2, 215808, Note_on_c, 0, 81, 108
2, 215932, Note_off_c, 0, 81, 100
2, 215936, Note_on_c, 0, 78, 107
2, 216060, Note_off_c, 0, 78, 100
2, 216064, Note_on_c, 0, 75, 106
2, 216184, Control_c, 0, 64, 0
2, 216188, Note_off_c, 0, 75, 100
2, 216192, Control_c, 0, 64, 127
2, 216192, Note_on_c, 0, 87, 105
2, 216316, Note_off_c, 0, 87, 100
2, 216320, Note_on_c, 0, 83, 104
2, 216444, Note_off_c, 0, 83, 100
2, 216448, Note_on_c, 0, 78, 103
2, 216568, Control_c, 0, 64, 0
2, 216572, Note_off_c, 0, 78, 100
2, 216576, Control_c, 0, 64, 127
2, 216576, Note_on_c, 0, 88, 102
2, 216700, Note_off_c, 0, 88, 100
2, 216704, Note_on_c, 0, 83, 101
2, 216828, Note_off_c, 0, 83, 100
2, 216832, Note_on_c, 0, 80, 100
2, 216952, Control_c, 0, 64, 0
2, 216956, Note_off_c, 0, 80, 100
2, 216960, Control_c, 0, 64, 127
2, 216960, Note_on_c, 0, 83, 99
2, 217084, Note_off_c, 0, 83, 100
2, 217088, Note_on_c, 0, 80, 98
2, 217212, Note_off_c, 0, 80, 100
2, 217216, Note_on_c, 0, 76, 97
2, 217336, Control_c, 0, 64, 0
2, 217340, Note_off_c, 0, 76, 100
2, 217344, Control_c, 0, 64, 127
2, 217344, Note_on_c, 0, 81, 96
2, 217468, Note_off_c, 0, 81, 100
2, 217472, Note_on_c, 0, 78, 95
2, 217596, Note_off_c, 0, 78, 100
2, 217600, Note_on_c, 0, 75, 94
2, 217720, Control_c, 0, 64, 0
2, 217724, Note_off_c, 0, 75, 100
2, 217728, Control_c, 0, 64, 127
2, 217728, Note_on_c, 0, 87, 93
2, 217852, Note_off_c, 0, 87, 100
2, 217856, Note_on_c, 0, 83, 92
2, 217980, Note_off_c, 0, 83, 100
2, 217984, Note_on_c, 0, 78, 91
2, 218104, Control_c, 0, 64, 0
2, 218108, Note_off_c, 0, 78, 100
2, 218112, Control_c, 0, 64, 127
2, 218112, Note_on_c, 0, 88, 90
2, 218204, Note_off_c, 0, 88, 100
2, 218208, Note_on_c, 0, 83, 90
2, 218300, Note_off_c, 0, 83, 100
2, 218304, Note_on_c, 0, 80, 91
2, 218396, Note_off_c, 0, 80, 100
2, 218400, Note_on_c, 0, 76, 92
2, 218488, Control_c, 0, 64, 0
2, 218492, Note_off_c, 0, 76, 100
2, 218496, Control_c, 0, 64, 127
2, 218496, Note_on_c, 0, 81, 92
2, 218588, Note_off_c, 0, 81, 100
2, 218592, Note_on_c, 0, 78, 93
2, 218684, Note_off_c, 0, 78, 100
2, 218688, Note_on_c, 0, 87, 94
2, 218780, Note_off_c, 0, 87, 100
2, 218784, Note_on_c, 0, 83, 94
2, 218872, Control_c, 0, 64, 0
2, 218876, Note_off_c, 0, 83, 100
2, 218880, Control_c, 0, 64, 127
2, 218880, Note_on_c, 0, 88, 95
2, 218972, Note_off_c, 0, 88, 100
2, 218976, Note_on_c, 0, 83, 96
2, 219068, Note_off_c, 0, 83, 100
2, 219072, Note_on_c, 0, 80, 96
2, 219164, Note_off_c, 0, 80, 100
2, 219168, Note_on_c, 0, 76, 97
2, 219256, Control_c, 0, 64, 0
2, 219260, Note_off_c, 0, 76, 100
2, 219264, Control_c, 0, 64, 127
2, 219264, Note_on_c, 0, 81, 98
2, 219356, Note_off_c, 0, 81, 100
2, 219360, Note_on_c, 0, 78, 98
2, 219452, Note_off_c, 0, 78, 100
2, 219456, Note_on_c, 0, 87, 99
2, 219548, Note_off_c, 0, 87, 100
2, 219552, Note_on_c, 0, 83, 100
2, 219640, Control_c, 0, 64, 0
2, 219644, Note_off_c, 0, 83, 100
2, 219648, Control_c, 0, 64, 127
2, 219648, Note_on_c, 0, 88, 100
2, 219740, Note_off_c, 0, 88, 100
2, 219744, Note_on_c, 0, 83, 101
2, 219836, Note_off_c, 0, 83, 100
2, 219840, Note_on_c, 0, 87, 102
2, 219932, Note_off_c, 0, 87, 100
2, 219936, Note_on_c, 0, 83, 102
2, 220024, Control_c, 0, 64, 0
2, 220028, Note_off_c, 0, 83, 100
2, 220032, Control_c, 0, 64, 127
2, 220032, Note_on_c, 0, 88, 103
2, 220124, Note_off_c, 0, 88, 100
2, 220128, Note_on_c, 0, 83, 104
2, 220220, Note_off_c, 0, 83, 100
2, 220224, Note_on_c, 0, 87, 104
2, 220316, Note_off_c, 0, 87, 100
2, 220320, Note_on_c, 0, 83, 105
2, 220408, Control_c, 0, 64, 0
2, 220412, Note_off_c, 0, 83, 100
2, 220416, Control_c, 0, 64, 127
2, 220416, Note_on_c, 0, 88, 106
2, 220508, Note_off_c, 0, 88, 100
2, 220512, Note_on_c, 0, 83, 106
2, 220604, Note_off_c, 0, 83, 100
2, 220608, Note_on_c, 0, 87, 107
2, 220700, Note_off_c, 0, 87, 100
2, 220704, Note_on_c, 0, 83, 108
2, 220792, Control_c, 0, 64, 0
2, 220796, Note_off_c, 0, 83, 100
2, 220800, Control_c, 0, 64, 127
2, 220800, Note_on_c, 0, 88, 108
2, 220892, Note_off_c, 0, 88, 100
2, 220896, Note_on_c, 0, 83, 109
2, 220988, Note_off_c, 0, 83, 100
2, 220992, Note_on_c, 0, 87, 110
2, 221084, Note_off_c, 0, 87, 100
2, 221088, Note_on_c, 0, 83, 110
2, 221176, Control_c, 0, 64, 0
2, 221180, Note_off_c, 0, 83, 100
2, 221184, Control_c, 0, 64, 127
2, 221184, Note_on_c, 0, 88, 110
2, 221276, Note_off_c, 0, 88, 100
2, 221280, Note_on_c, 0, 83, 110
2, 221372, Note_off_c, 0, 83, 100
2, 221376, Note_on_c, 0, 86, 110
2, 221468, Note_off_c, 0, 86, 100
2, 221472, Note_on_c, 0, 83, 110
2, 221560, Control_c, 0, 64, 0
2, 221564, Note_off_c, 0, 83, 100
2, 221568, Control_c, 0, 64, 127
2, 221568, Note_on_c, 0, 86, 110
2, 221660, Note_off_c, 0, 86, 100
2, 221664, Note_on_c, 0, 83, 110
2, 221756, Note_off_c, 0, 83, 100
2, 221760, Note_on_c, 0, 86, 110
2, 221852, Note_off_c, 0, 86, 100
2, 221856, Note_on_c, 0, 83, 110
2, 221944, Control_c, 0, 64, 0
2, 221948, Note_off_c, 0, 83, 100
2, 221952, Control_c, 0, 64, 127
2, 221952, Note_on_c, 0, 86, 110
2, 222044, Note_off_c, 0, 86, 100
2, 222048, Note_on_c, 0, 83, 110
2, 222140, Note_off_c, 0, 83, 100
2, 222144, Note_on_c, 0, 86, 110
2, 222236, Note_off_c, 0, 86, 100
2, 222240, Note_on_c, 0, 83, 110
2, 222328, Control_c, 0, 64, 0
2, 222332, Note_off_c, 0, 83, 100
2, 222336, Control_c, 0, 64, 127
2, 222336, Note_on_c, 0, 86, 110
2, 222428, Note_off_c, 0, 86, 100
2, 222432, Note_on_c, 0, 83, 110
2, 222524, Note_off_c, 0, 83, 100
2, 222528, Note_on_c, 0, 86, 110
2, 222620, Note_off_c, 0, 86, 100
2, 222624, Note_on_c, 0, 83, 110
2, 222712, Control_c, 0, 64, 0
2, 222716, Note_off_c, 0, 83, 100
2, 222720, Note_on_c, 0, 86, 110
2, 222908, Note_off_c, 0, 86, 100
2, 222912, Note_on_c, 0, 85, 110
2, 223004, Note_off_c, 0, 85, 100
2, 223008, Note_on_c, 0, 83, 110
2, 223100, Note_off_c, 0, 83, 100
2, 223104, Note_on_c, 0, 81, 110
2, 223196, Note_off_c, 0, 81, 100
2, 223200, Note_on_c, 0, 80, 110
2, 223292, Note_off_c, 0, 80, 100
2, 223296, Note_on_c, 0, 78, 110
2, 223388, Note_off_c, 0, 78, 100
2, 223392, Note_on_c, 0, 76, 110
2, 223484, Note_off_c, 0, 76, 100
2, 223488, Note_on_c, 0, 74, 110
2, 223580, Note_off_c, 0, 74, 100
2, 223584, Note_on_c, 0, 73, 110
2, 223676, Note_off_c, 0, 73, 100
2, 223680, Note_on_c, 0, 71, 110
2, 223772, Note_off_c, 0, 71, 100
2, 223776, Note_on_c, 0, 69, 110
2, 223868, Note_off_c, 0, 69, 100
2, 223872, Note_on_c, 0, 68, 110
2, 223964, Note_off_c, 0, 68, 100
2, 223968, Note_on_c, 0, 66, 110
2, 224060, Note_off_c, 0, 66, 100
2, 224064, Note_on_c, 0, 64, 110
2, 224156, Note_off_c, 0, 64, 100
2, 224160, Note_on_c, 0, 62, 110
2, 224252, Note_off_c, 0, 62, 100
2, 224256, Note_on_c, 0, 61, 120
2, 224348, Note_off_c, 0, 61, 100
2, 224352, Note_on_c, 0, 63, 120
2, 224444, Note_off_c, 0, 63, 100
2, 224448, Note_on_c, 0, 64, 120
2, 224540, Note_off_c, 0, 64, 100
2, 224544, Note_on_c, 0, 63, 120
2, 224636, Note_off_c, 0, 63, 100
2, 224640, Note_on_c, 0, 64, 120
2, 224732, Note_off_c, 0, 64, 100
2, 224736, Note_on_c, 0, 68, 120
2, 224828, Note_off_c, 0, 68, 100
2, 224832, Note_on_c, 0, 69, 120
2, 224924, Note_off_c, 0, 69, 100
2, 224928, Note_on_c, 0, 68, 120
2, 225020, Note_off_c, 0, 68, 100
2, 225024, Note_on_c, 0, 69, 120
2, 225116, Note_off_c, 0, 69, 100
2, 225120, Note_on_c, 0, 72, 120
2, 225212, Note_off_c, 0, 72, 100
2, 225216, Note_on_c, 0, 73, 120
2, 225308, Note_off_c, 0, 73, 100
2, 225312, Note_on_c, 0, 72, 120
2, 225404, Note_off_c, 0, 72, 100
2, 225408, Note_on_c, 0, 73, 120
2, 225500, Note_off_c, 0, 73, 100
2, 225504, Note_on_c, 0, 75, 120
2, 225596, Note_off_c, 0, 75, 100
2, 225600, Note_on_c, 0, 76, 120
2, 225692, Note_off_c, 0, 76, 100
2, 225696, Note_on_c, 0, 75, 120
2, 225788, Note_off_c, 0, 75, 100
2, 225792, Note_on_c, 0, 76, 120
2, 225884, Note_off_c, 0, 76, 100
2, 225888, Note_on_c, 0, 80, 120
2, 225980, Note_off_c, 0, 80, 100
2, 225984, Note_on_c, 0, 81, 120
2, 226076, Note_off_c, 0, 81, 100
2, 226080, Note_on_c, 0, 80, 120
2, 226172, Note_off_c, 0, 80, 100
2, 226176, Note_on_c, 0, 81, 120
2, 226268, Note_off_c, 0, 81, 100
2, 226272, Note_on_c, 0, 84, 120
2, 226364, Note_off_c, 0, 84, 100
2, 226368, Note_on_c, 0, 85, 120
2, 226460, Note_off_c, 0, 85, 100
2, 226464, Note_on_c, 0, 84, 120
2, 226556, Note_off_c, 0, 84, 100
2, 226560, Note_on_c, 0, 85, 120
2, 226652, Note_off_c, 0, 85, 100
2, 226656, Note_on_c, 0, 87, 120
2, 226748, Note_off_c, 0, 87, 100
2, 226752, Note_on_c, 0, 88, 120
2, 226844, Note_off_c, 0, 88, 100
2, 226848, Note_on_c, 0, 87, 120
2, 226940, Note_off_c, 0, 87, 100
2, 226944, Note_on_c, 0, 88, 120
2, 227036, Note_off_c, 0, 88, 100
2, 227040, Note_on_c, 0, 87, 120
2, 227132, Note_off_c, 0, 87, 100
2, 227136, Note_on_c, 0, 85, 120
2, 227228, Note_off_c, 0, 85, 100
2, 227232, Note_on_c, 0, 84, 120
2, 227324, Note_off_c, 0, 84, 100
2, 227328, Note_on_c, 0, 85, 120
2, 227420, Note_off_c, 0, 85, 100
2, 227424, Note_on_c, 0, 84, 120
2, 227516, Note_off_c, 0, 84, 100
2, 227520, Note_on_c, 0, 85, 120
2, 227612, Note_off_c, 0, 85, 100
2, 227616, Note_on_c, 0, 87, 120
2, 227708, Note_off_c, 0, 87, 100
2, 227712, Note_on_c, 0, 88, 120
2, 227804, Note_off_c, 0, 88, 100
2, 227808, Note_on_c, 0, 87, 120
2, 227900, Note_off_c, 0, 87, 100
2, 227904, Note_on_c, 0, 85, 120
2, 227996, Note_off_c, 0, 85, 100
2, 228000, Note_on_c, 0, 84, 120
2, 228092, Note_off_c, 0, 84, 100
2, 228096, Note_on_c, 0, 85, 120
2, 228188, Note_off_c, 0, 85, 100
2, 228192, Note_on_c, 0, 84, 120
2, 228284, Note_off_c, 0, 84, 100
2, 228288, Note_on_c, 0, 85, 120
2, 228380, Note_off_c, 0, 85, 100
2, 228384, Note_on_c, 0, 87, 120
2, 228476, Note_off_c, 0, 87, 100
2, 228480, Note_on_c, 0, 88, 120
2, 228572, Note_off_c, 0, 88, 100
2, 228576, Note_on_c, 0, 87, 120
2, 228668, Note_off_c, 0, 87, 100
2, 228672, Note_on_c, 0, 85, 120
2, 228764, Note_off_c, 0, 85, 100
2, 228768, Note_on_c, 0, 84, 120
2, 228860, Note_off_c, 0, 84, 100
2, 228864, Note_on_c, 0, 85, 120
2, 228956, Note_off_c, 0, 85, 100
2, 228960, Note_on_c, 0, 84, 120
2, 229052, Note_off_c, 0, 84, 100
2, 229056, Note_on_c, 0, 85, 120
2, 229148, Note_off_c, 0, 85, 100
2, 229152, Note_on_c, 0, 87, 120
2, 229244, Note_off_c, 0, 87, 100
2, 229248, Note_on_c, 0, 88, 120
2, 229340, Note_off_c, 0, 88, 100
2, 229344, Note_on_c, 0, 87, 120
2, 229436, Note_off_c, 0, 87, 100
2, 229440, Note_on_c, 0, 85, 120
2, 229532, Note_off_c, 0, 85, 100
2, 229536, Note_on_c, 0, 84, 120
2, 229628, Note_off_c, 0, 84, 100
2, 229632, Note_on_c, 0, 85, 120
2, 229724, Note_off_c, 0, 85, 100
2, 229728, Note_on_c, 0, 84, 120
2, 229820, Note_off_c, 0, 84, 100
2, 229824, Note_on_c, 0, 85, 120
2, 229916, Note_off_c, 0, 85, 100
2, 229920, Note_on_c, 0, 87, 120
2, 230012, Note_off_c, 0, 87, 100
2, 230016, Note_on_c, 0, 88, 120
2, 230108, Note_off_c, 0, 88, 100
2, 230112, Note_on_c, 0, 87, 120
2, 230204, Note_off_c, 0, 87, 100
2, 230208, Note_on_c, 0, 88, 120
2, 230300, Note_off_c, 0, 88, 100
2, 230304, Note_on_c, 0, 84, 120
2, 230396, Note_off_c, 0, 84, 100
2, 230400, Note_on_c, 0, 83, 120
2, 230400, Note_on_c, 0, 71, 120
2, 230588, Note_off_c, 0, 83, 100
2, 230588, Note_off_c, 0, 71, 100
2, 230592, Note_on_c, 0, 83, 120
2, 230592, Note_on_c, 0, 71, 120
2, 230780, Note_off_c, 0, 83, 100
2, 230780, Note_off_c, 0, 71, 100
2, 230784, Note_on_c, 0, 80, 120
2, 230784, Note_on_c, 0, 68, 120
2, 230972, Note_off_c, 0, 80, 100
2, 230972, Note_off_c, 0, 68, 100
2, 230976, Note_on_c, 0, 76, 120
2, 230976, Note_on_c, 0, 64, 120
2, 231164, Note_off_c, 0, 76, 100
2, 231164, Note_off_c, 0, 64, 100
2, 231168, Note_on_c, 0, 88, 120
2, 231168, Note_on_c, 0, 76, 120
2, 231356, Note_off_c, 0, 88, 100
2, 231356, Note_off_c, 0, 76, 100
2, 231360, Note_on_c, 0, 88, 120
2, 231360, Note_on_c, 0, 76, 120
2, 231548, Note_off_c, 0, 88, 100
2, 231548, Note_off_c, 0, 76, 100
2, 231552, Note_on_c, 0, 83, 120
2, 231552, Note_on_c, 0, 71, 120
2, 231740, Note_off_c, 0, 83, 100
2, 231740, Note_off_c, 0, 71, 100
2, 231744, Note_on_c, 0, 80, 120
2, 231744, Note_on_c, 0, 68, 120
2, 231932, Note_off_c, 0, 80, 100
2, 231932, Note_off_c, 0, 68, 100
2, 231936, Note_on_c, 0, 83, 120
2, 231936, Note_on_c, 0, 71, 120
2, 232124, Note_off_c, 0, 83, 100
2, 232124, Note_off_c, 0, 71, 100
2, 232128, Note_on_c, 0, 83, 120
2, 232128, Note_on_c, 0, 71, 120
2, 232316, Note_off_c, 0, 83, 100
2, 232316, Note_off_c, 0, 71, 100
2, 232320, Note_on_c, 0, 80, 120
2, 232320, Note_on_c, 0, 68, 120
2, 232508, Note_off_c, 0, 80, 100
2, 232508, Note_off_c, 0, 68, 100
2, 232512, Note_on_c, 0, 76, 120
2, 232512, Note_on_c, 0, 64, 120
2, 232700, Note_off_c, 0, 76, 100
2, 232700, Note_off_c, 0, 64, 100
2, 232704, Note_on_c, 0, 88, 120
2, 232704, Note_on_c, 0, 76, 120
2, 232892, Note_off_c, 0, 88, 100
2, 232892, Note_off_c, 0, 76, 100
2, 232896, Note_on_c, 0, 88, 120
2, 232896, Note_on_c, 0, 76, 120
2, 233084, Note_off_c, 0, 88, 100
2, 233084, Note_off_c, 0, 76, 100
2, 233088, Note_on_c, 0, 83, 120
2, 233088, Note_on_c, 0, 71, 120
2, 233276, Note_off_c, 0, 83, 100
2, 233276, Note_off_c, 0, 71, 100
2, 233280, Note_on_c, 0, 80, 120
2, 233280, Note_on_c, 0, 68, 120
2, 233468, Note_off_c, 0, 80, 100
2, 233468, Note_off_c, 0, 68, 100
2, 233568, Note_on_c, 0, 80, 80
2, 233660, Note_off_c, 0, 80, 100
2, 233664, Note_on_c, 0, 83, 80
2, 233756, Note_off_c, 0, 83, 100
2, 233760, Note_on_c, 0, 80, 80
2, 233852, Note_off_c, 0, 80, 100
2, 233856, Note_on_c, 0, 83, 80
2, 233948, Note_off_c, 0, 83, 100
2, 233952, Note_on_c, 0, 80, 80
2, 234044, Note_off_c, 0, 80, 100
2, 234048, Note_on_c, 0, 83, 80
2, 234140, Note_off_c, 0, 83, 100
2, 234144, Note_on_c, 0, 80, 80
2, 234236, Note_off_c, 0, 80, 100
2, 234240, Note_on_c, 0, 83, 80
2, 234332, Note_off_c, 0, 83, 100
2, 234336, Note_on_c, 0, 80, 80
2, 234428, Note_off_c, 0, 80, 100
2, 234432, Note_on_c, 0, 83, 80
2, 234524, Note_off_c, 0, 83, 100
2, 234528, Note_on_c, 0, 80, 80
2, 234620, Note_off_c, 0, 80, 100
2, 234624, Note_on_c, 0, 83, 80
2, 234716, Note_off_c, 0, 83, 100
2, 234720, Note_on_c, 0, 80, 80
2, 234812, Note_off_c, 0, 80, 100
2, 234816, Note_on_c, 0, 83, 80
2, 234908, Note_off_c, 0, 83, 100
2, 234912, Note_on_c, 0, 80, 80
2, 235004, Note_off_c, 0, 80, 100
2, 235008, Note_on_c, 0, 83, 80
2, 235100, Note_off_c, 0, 83, 100
2, 235104, Note_on_c, 0, 80, 80
2, 235196, Note_off_c, 0, 80, 100
2, 235200, Note_on_c, 0, 83, 80
2, 235292, Note_off_c, 0, 83, 100
2, 235296, Note_on_c, 0, 80, 80
2, 235388, Note_off_c, 0, 80, 100
2, 235392, Note_on_c, 0, 83, 80
2, 235484, Note_off_c, 0, 83, 100
2, 235488, Note_on_c, 0, 80, 80
2, 235580, Note_off_c, 0, 80, 100
2, 235584, Note_on_c, 0, 83, 80
2, 235676, Note_off_c, 0, 83, 100
2, 235680, Note_on_c, 0, 80, 80
2, 235772, Note_off_c, 0, 80, 100
2, 235776, Note_on_c, 0, 83, 80
2, 235868, Note_off_c, 0, 83, 100
2, 235872, Note_on_c, 0, 80, 80
2, 235964, Note_off_c, 0, 80, 100
2, 235968, Note_on_c, 0, 83, 80
2, 236060, Note_off_c, 0, 83, 100
2, 236064, Note_on_c, 0, 80, 80
2, 236156, Note_off_c, 0, 80, 100
2, 236160, Note_on_c, 0, 83, 80
2, 236252, Note_off_c, 0, 83, 100
2, 236256, Note_on_c, 0, 80, 80
2, 236348, Note_off_c, 0, 80, 100
2, 236352, Note_on_c, 0, 83, 80
2, 236444, Note_off_c, 0, 83, 100
2, 236448, Note_on_c, 0, 80, 80
2, 236540, Note_off_c, 0, 80, 100
2, 236640, Note_on_c, 0, 81, 80
2, 236732, Note_off_c, 0, 81, 100
2, 236736, Note_on_c, 0, 83, 79
2, 236828, Note_off_c, 0, 83, 100
2, 236832, Note_on_c, 0, 81, 79
2, 236924, Note_off_c, 0, 81, 100
2, 236928, Note_on_c, 0, 84, 78
2, 237020, Note_off_c, 0, 84, 100
2, 237024, Note_on_c, 0, 81, 77
2, 237116, Note_off_c, 0, 81, 100
2, 237120, Note_on_c, 0, 83, 77
2, 237212, Note_off_c, 0, 83, 100
2, 237216, Note_on_c, 0, 81, 76
2, 237308, Note_off_c, 0, 81, 100
2, 237312, Note_on_c, 0, 84, 75
2, 237404, Note_off_c, 0, 84, 100
2, 237408, Note_on_c, 0, 81, 75
2, 237500, Note_off_c, 0, 81, 100
2, 237504, Note_on_c, 0, 83, 74
2, 237596, Note_off_c, 0, 83, 100
2, 237600, Note_on_c, 0, 81, 73
2, 237692, Note_off_c, 0, 81, 100
2, 237696, Note_on_c, 0, 84, 73
2, 237788, Note_off_c, 0, 84, 100
2, 237792, Note_on_c, 0, 81, 72
2, 237884, Note_off_c, 0, 81, 100
2, 237888, Note_on_c, 0, 83, 71
2, 237980, Note_off_c, 0, 83, 100
2, 237984, Note_on_c, 0, 81, 71
2, 238076, Note_off_c, 0, 81, 100
2, 238080, Note_on_c, 0, 84, 70
2, 238172, Note_off_c, 0, 84, 100
2, 238176, Note_on_c, 0, 81, 70
2, 238268, Note_off_c, 0, 81, 100
2, 238272, Note_on_c, 0, 83, 70
2, 238364, Note_off_c, 0, 83, 100
2, 238368, Note_on_c, 0, 81, 70
2, 238460, Note_off_c, 0, 81, 100
2, 238464, Note_on_c, 0, 84, 70
2, 238556, Note_off_c, 0, 84, 100
2, 238560, Note_on_c, 0, 81, 70
2, 238652, Note_off_c, 0, 81, 100
2, 238656, Note_on_c, 0, 83, 70
2, 238748, Note_off_c, 0, 83, 100
2, 238752, Note_on_c, 0, 81, 70
2, 238844, Note_off_c, 0, 81, 100
2, 238848, Note_on_c, 0, 84, 70
2, 238940, Note_off_c, 0, 84, 100
2, 238944, Note_on_c, 0, 81, 70
2, 239036, Note_off_c, 0, 81, 100
2, 239040, Note_on_c, 0, 83, 70
2, 239132, Note_off_c, 0, 83, 100
2, 239136, Note_on_c, 0, 81, 70
2, 239228, Note_off_c, 0, 81, 100
2, 239232, Note_on_c, 0, 84, 70
2, 239324, Note_off_c, 0, 84, 100
2, 239328, Note_on_c, 0, 81, 70
2, 239420, Note_off_c, 0, 81, 100
2, 239424, Note_on_c, 0, 83, 70
2, 239516, Note_off_c, 0, 83, 100
2, 239520, Note_on_c, 0, 81, 70
2, 239612, Note_off_c, 0, 81, 100
2, 239616, Note_on_c, 0, 85, 70
2, 239708, Note_off_c, 0, 85, 100
2, 239712, Note_on_c, 0, 81, 71
2, 239804, Note_off_c, 0, 81, 100
2, 239808, Note_on_c, 0, 83, 72
2, 239900, Note_off_c, 0, 83, 100
2, 239904, Note_on_c, 0, 81, 73
2, 239996, Note_off_c, 0, 81, 100
2, 240000, Note_on_c, 0, 85, 75
2, 240092, Note_off_c, 0, 85, 100
2, 240096, Note_on_c, 0, 81, 76
2, 240188, Note_off_c, 0, 81, 100
2, 240192, Note_on_c, 0, 83, 77
2, 240284, Note_off_c, 0, 83, 100
2, 240288, Note_on_c, 0, 81, 78
2, 240380, Note_off_c, 0, 81, 100
2, 240384, Note_on_c, 0, 85, 80
2, 240476, Note_off_c, 0, 85, 100
2, 240480, Note_on_c, 0, 81, 81
2, 240572, Note_off_c, 0, 81, 100
2, 240576, Note_on_c, 0, 83, 82
2, 240668, Note_off_c, 0, 83, 100
2, 240672, Note_on_c, 0, 81, 84
2, 240764, Note_off_c, 0, 81, 100
2, 240768, Note_on_c, 0, 85, 85
2, 240860, Note_off_c, 0, 85, 100
2, 240864, Note_on_c, 0, 81, 86
2, 240956, Note_off_c, 0, 81, 100
2, 240960, Note_on_c, 0, 83, 87
2, 241052, Note_off_c, 0, 83, 100
2, 241056, Note_on_c, 0, 81, 89
2, 241148, Note_off_c, 0, 81, 100
2, 241152, Note_on_c, 0, 90, 90
2, 241244, Note_off_c, 0, 90, 100
2, 241248, Note_on_c, 0, 83, 91
2, 241248, Note_on_c, 0, 81, 91
2, 241340, Note_off_c, 0, 83, 100
2, 241340, Note_off_c, 0, 81, 100
2, 241344, Note_on_c, 0, 90, 93
2, 241436, Note_off_c, 0, 90, 100
2, 241440, Note_on_c, 0, 83, 94
2, 241440, Note_on_c, 0, 81, 94
2, 241532, Note_off_c, 0, 83, 100
2, 241532, Note_off_c, 0, 81, 100
2, 241536, Note_on_c, 0, 90, 95
2, 241628, Note_off_c, 0, 90, 100
2, 241632, Note_on_c, 0, 83, 96
2, 241632, Note_on_c, 0, 81, 96
2, 241724, Note_off_c, 0, 83, 100
2, 241724, Note_off_c, 0, 81, 100
2, 241728, Note_on_c, 0, 90, 98
2, 241820, Note_off_c, 0, 90, 100
2, 241824, Note_on_c, 0, 83, 99
2, 241824, Note_on_c, 0, 81, 99
2, 241916, Note_off_c, 0, 83, 100
2, 241916, Note_off_c, 0, 81, 100
2, 241920, Note_on_c, 0, 90, 100
2, 242012, Note_off_c, 0, 90, 100
2, 242016, Note_on_c, 0, 83, 101
2, 242016, Note_on_c, 0, 81, 101
2, 242108, Note_off_c, 0, 83, 100
2, 242108, Note_off_c, 0, 81, 100
2, 242112, Note_on_c, 0, 90, 103
2, 242204, Note_off_c, 0, 90, 100
2, 242208, Note_on_c, 0, 83, 104
2, 242208, Note_on_c, 0, 81, 104
2, 242300, Note_off_c, 0, 83, 100
2, 242300, Note_off_c, 0, 81, 100
2, 242304, Note_on_c, 0, 90, 105
2, 242396, Note_off_c, 0, 90, 100
2, 242400, Note_on_c, 0, 83, 107
2, 242400, Note_on_c, 0, 81, 107
2, 242492, Note_off_c, 0, 83, 100
2, 242492, Note_off_c, 0, 81, 100
2, 242496, Note_on_c, 0, 90, 108
2, 242588, Note_off_c, 0, 90, 100
2, 242592, Note_on_c, 0, 83, 109
2, 242592, Note_on_c, 0, 81, 109
2, 242684, Note_off_c, 0, 83, 100
2, 242684, Note_off_c, 0, 81, 100
2, 242688, Note_on_c, 0, 88, 110
2, 242688, Note_on_c, 0, 83, 110
2, 242688, Note_on_c, 0, 80, 110
2, 243836, Note_off_c, 0, 88, 100
2, 243836, Note_off_c, 0, 83, 100
2, 243836, Note_off_c, 0, 80, 100
2, 243840, Note_on_c, 0, 88, 80
2, 243932, Note_off_c, 0, 88, 100
2, 243936, Note_on_c, 0, 86, 80
2, 244028, Note_off_c, 0, 86, 100
2, 244032, Note_on_c, 0, 84, 80
2, 244124, Note_off_c, 0, 84, 100
2, 244128, Note_on_c, 0, 83, 80
2, 244220, Note_off_c, 0, 83, 100
2, 244224, Note_on_c, 0, 84, 80
2, 244316, Note_off_c, 0, 84, 100
2, 244320, Note_on_c, 0, 83, 80
2, 244412, Note_off_c, 0, 83, 100
2, 244416, Note_on_c, 0, 81, 80
2, 244508, Note_off_c, 0, 81, 100
2, 244512, Note_on_c, 0, 80, 80
2, 244604, Note_off_c, 0, 80, 100
2, 244608, Note_on_c, 0, 81, 80
2, 244700, Note_off_c, 0, 81, 100
2, 244704, Note_on_c, 0, 83, 80
2, 244796, Note_off_c, 0, 83, 100
2, 244800, Note_on_c, 0, 84, 80
2, 244892, Note_off_c, 0, 84, 100
2, 244896, Note_on_c, 0, 86, 80
2, 244988, Note_off_c, 0, 86, 100
2, 244992, Note_on_c, 0, 88, 80
2, 245084, Note_off_c, 0, 88, 100
2, 245088, Note_on_c, 0, 89, 80
2, 245180, Note_off_c, 0, 89, 100
2, 245184, Note_on_c, 0, 88, 80
2, 245276, Note_off_c, 0, 88, 100
2, 245280, Note_on_c, 0, 87, 80
2, 245372, Note_off_c, 0, 87, 100
2, 245376, Note_on_c, 0, 88, 80
2, 245468, Note_off_c, 0, 88, 100
2, 245472, Note_on_c, 0, 86, 80
2, 245564, Note_off_c, 0, 86, 100
2, 245568, Note_on_c, 0, 84, 80
2, 245660, Note_off_c, 0, 84, 100
2, 245664, Note_on_c, 0, 83, 80
2, 245756, Note_off_c, 0, 83, 100
2, 245760, Note_on_c, 0, 84, 80
2, 245852, Note_off_c, 0, 84, 100
2, 245856, Note_on_c, 0, 86, 80
2, 245948, Note_off_c, 0, 86, 100
2, 245952, Note_on_c, 0, 84, 80
2, 246044, Note_off_c, 0, 84, 100
2, 246048, Note_on_c, 0, 83, 80
2, 246140, Note_off_c, 0, 83, 100
2, 246144, Note_on_c, 0, 81, 80
2, 246236, Note_off_c, 0, 81, 100
2, 246240, Note_on_c, 0, 80, 80
2, 246332, Note_off_c, 0, 80, 100
2, 246336, Note_on_c, 0, 81, 80
2, 246428, Note_off_c, 0, 81, 100
2, 246432, Note_on_c, 0, 83, 80
2, 246524, Note_off_c, 0, 83, 100
2, 246528, Note_on_c, 0, 84, 80
2, 246528, Note_on_c, 0, 72, 80
2, 246908, Note_off_c, 0, 84, 100
2, 246912, Note_on_c, 0, 81, 80
2, 247100, Note_off_c, 0, 81, 100
2, 247104, Note_on_c, 0, 78, 80
2, 247292, Note_off_c, 0, 72, 100
2, 247292, Note_off_c, 0, 78, 100
2, 247296, Note_on_c, 0, 83, 80
2, 247296, Note_on_c, 0, 71, 80
2, 247676, Note_off_c, 0, 83, 100
2, 247680, Note_on_c, 0, 79, 80
2, 247868, Note_off_c, 0, 79, 100
2, 247872, Note_on_c, 0, 76, 80
2, 248060, Note_off_c, 0, 71, 100
2, 248060, Note_off_c, 0, 76, 100
2, 248064, Note_on_c, 0, 81, 80
2, 248064, Note_on_c, 0, 69, 80
2, 248444, Note_off_c, 0, 81, 100
2, 248448, Note_on_c, 0, 78, 80
2, 248636, Note_off_c, 0, 78, 100
2, 248640, Note_on_c, 0, 75, 80
2, 248828, Note_off_c, 0, 69, 100
2, 248828, Note_off_c, 0, 75, 100
2, 248832, Note_on_c, 0, 76, 100
2, 249980, Note_off_c, 0, 76, 100
2, 249984, Note_on_c, 0, 76, 80
2, 250076, Note_off_c, 0, 76, 100
2, 250080, Note_on_c, 0, 74, 80
2, 250172, Note_off_c, 0, 74, 100
2, 250176, Note_on_c, 0, 72, 80
2, 250268, Note_off_c, 0, 72, 100
2, 250272, Note_on_c, 0, 71, 80
2, 250364, Note_off_c, 0, 71, 100
2, 250368, Note_on_c, 0, 72, 80
2, 250460, Note_off_c, 0, 72, 100
2, 250464, Note_on_c, 0, 71, 80
2, 250556, Note_off_c, 0, 71, 100
2, 250560, Note_on_c, 0, 69, 80
2, 250652, Note_off_c, 0, 69, 100
2, 250656, Note_on_c, 0, 68, 80
2, 250748, Note_off_c, 0, 68, 100
2, 250752, Note_on_c, 0, 69, 80
2, 250844, Note_off_c, 0, 69, 100
2, 250848, Note_on_c, 0, 71, 80
2, 250940, Note_off_c, 0, 71, 100
2, 250944, Note_on_c, 0, 72, 80
2, 251036, Note_off_c, 0, 72, 100
2, 251040, Note_on_c, 0, 74, 80
2, 251132, Note_off_c, 0, 74, 100
2, 251136, Note_on_c, 0, 76, 80
2, 251228, Note_off_c, 0, 76, 100
2, 251232, Note_on_c, 0, 77, 80
2, 251324, Note_off_c, 0, 77, 100
2, 251328, Note_on_c, 0, 76, 80
2, 251420, Note_off_c, 0, 76, 100
2, 251424, Note_on_c, 0, 75, 80
2, 251516, Note_off_c, 0, 75, 100
2, 251520, Note_on_c, 0, 76, 80
2, 251612, Note_off_c, 0, 76, 100
2, 251616, Note_on_c, 0, 74, 80
2, 251708, Note_off_c, 0, 74, 100
2, 251712, Note_on_c, 0, 72, 80
2, 251804, Note_off_c, 0, 72, 100
2, 251808, Note_on_c, 0, 71, 80
2, 251900, Note_off_c, 0, 71, 100
2, 251904, Note_on_c, 0, 72, 80
2, 251996, Note_off_c, 0, 72, 100
2, 252000, Note_on_c, 0, 74, 80
2, 252092, Note_off_c, 0, 74, 100
2, 252096, Note_on_c, 0, 72, 80
2, 252188, Note_off_c, 0, 72, 100
2, 252192, Note_on_c, 0, 71, 80
2, 252284, Note_off_c, 0, 71, 100
2, 252288, Note_on_c, 0, 69, 80
2, 252380, Note_off_c, 0, 69, 100
2, 252384, Note_on_c, 0, 68, 80
2, 252476, Note_off_c, 0, 68, 100
2, 252480, Note_on_c, 0, 69, 80
2, 252572, Note_off_c, 0, 69, 100
2, 252576, Note_on_c, 0, 71, 80
2, 252668, Note_off_c, 0, 71, 100
2, 252672, Note_on_c, 0, 72, 80
2, 252672, Note_on_c, 0, 60, 80
2, 253052, Note_off_c, 0, 72, 100
2, 253056, Note_on_c, 0, 69, 80
2, 253244, Note_off_c, 0, 69, 100
2, 253248, Note_on_c, 0, 66, 80
2, 253436, Note_off_c, 0, 60, 100
2, 253436, Note_off_c, 0, 66, 100
2, 253440, Note_on_c, 0, 71, 80
2, 253440, Note_on_c, 0, 59, 80
2, 253820, Note_off_c, 0, 71, 100
2, 253824, Note_on_c, 0, 67, 80
2, 254012, Note_off_c, 0, 67, 100
2, 254016, Note_on_c, 0, 64, 80
2, 254204, Note_off_c, 0, 59, 100
2, 254204, Note_off_c, 0, 64, 100
2, 254208, Note_on_c, 0, 69, 80
2, 254208, Note_on_c, 0, 57, 80
2, 254588, Note_off_c, 0, 69, 100
2, 254592, Note_on_c, 0, 66, 80
2, 254780, Note_off_c, 0, 66, 100
2, 254784, Note_on_c, 0, 63, 80
2, 254972, Note_off_c, 0, 57, 100
2, 254972, Note_off_c, 0, 63, 100
2, 254976, Note_on_c, 0, 64, 80
2, 255356, Note_off_c, 0, 64, 100
2, 255360, Note_on_c, 0, 76, 80
2, 255548, Note_off_c, 0, 76, 100
2, 255552, Note_on_c, 0, 74, 80
2, 255740, Note_off_c, 0, 74, 100
2, 255744, Note_on_c, 0, 72, 80
2, 256124, Note_off_c, 0, 72, 100
2, 256128, Note_on_c, 0, 69, 80
2, 256316, Note_off_c, 0, 69, 100
2, 256320, Note_on_c, 0, 65, 80
2, 256508, Note_off_c, 0, 65, 100
2, 256512, Note_on_c, 0, 71, 80
2, 256892, Note_off_c, 0, 71, 100
2, 256896, Note_on_c, 0, 67, 80
2, 257084, Note_off_c, 0, 67, 100
2, 257088, Note_on_c, 0, 64, 80
2, 257276, Note_off_c, 0, 64, 100
2, 257280, Note_on_c, 0, 69, 80
2, 257660, Note_off_c, 0, 69, 100
2, 257664, Note_on_c, 0, 66, 80
2, 257852, Note_off_c, 0, 66, 100
2, 257856, Note_on_c, 0, 63, 80
2, 258044, Note_off_c, 0, 63, 100
2, 258048, Note_on_c, 0, 64, 80
2, 258428, Note_off_c, 0, 64, 100
2, 258432, Note_on_c, 0, 72, 80
2, 258620, Note_off_c, 0, 72, 100
2, 258624, Note_on_c, 0, 71, 80
2, 258812, Note_off_c, 0, 71, 100
2, 258816, Note_on_c, 0, 69, 80
2, 259196, Note_off_c, 0, 69, 100
2, 259200, Note_on_c, 0, 65, 80
2, 259388, Note_off_c, 0, 65, 100
2, 259392, Note_on_c, 0, 62, 80
2, 259580, Note_off_c, 0, 62, 100
2, 259584, Note_on_c, 0, 67, 80
2, 259964, Note_off_c, 0, 67, 100
2, 259968, Note_on_c, 0, 64, 80
2, 260156, Note_off_c, 0, 64, 100
2, 260160, Note_on_c, 0, 60, 80
2, 260348, Note_off_c, 0, 60, 100
2, 260352, Note_on_c, 0, 65, 80
2, 260732, Note_off_c, 0, 65, 100
2, 260736, Note_on_c, 0, 62, 80
2, 260924, Note_off_c, 0, 62, 100
2, 260928, Note_on_c, 0, 59, 80
2, 261116, Note_off_c, 0, 59, 100
2, 261120, Note_on_c, 0, 60, 80
2, 261500, Note_off_c, 0, 60, 100
2, 261504, Note_on_c, 0, 77, 80
2, 261692, Note_off_c, 0, 77, 100
2, 261696, Note_on_c, 0, 76, 80
2, 261884, Note_off_c, 0, 76, 100
2, 261888, Note_on_c, 0, 74, 80
2, 262268, Note_off_c, 0, 74, 100
2, 262272, Note_on_c, 0, 70, 80
2, 262460, Note_off_c, 0, 70, 100
2, 262464, Note_on_c, 0, 67, 80
2, 262652, Note_off_c, 0, 67, 100
2, 262656, Note_on_c, 0, 72, 80
2, 263036, Note_off_c, 0, 72, 100
2, 263040, Note_on_c, 0, 69, 80
2, 263228, Note_off_c, 0, 69, 100
2, 263232, Note_on_c, 0, 65, 80
2, 263420, Note_off_c, 0, 65, 100
2, 263424, Note_on_c, 0, 70, 80
2, 263804, Note_off_c, 0, 70, 100
2, 263808, Note_on_c, 0, 67, 80
2, 263996, Note_off_c, 0, 67, 100
2, 264000, Note_on_c, 0, 64, 80
2, 264188, Note_off_c, 0, 64, 100
2, 264192, Note_on_c, 0, 65, 80
2, 264572, Note_off_c, 0, 65, 100
2, 264576, Note_on_c, 0, 65, 80
2, 264764, Note_off_c, 0, 65, 100
2, 264768, Note_on_c, 0, 64, 80
2, 264956, Note_off_c, 0, 64, 100
2, 264960, Note_on_c, 0, 62, 80
2, 265340, Note_off_c, 0, 62, 100
2, 265344, Note_on_c, 0, 58, 80
2, 265532, Note_off_c, 0, 58, 100
2, 265536, Note_on_c, 0, 55, 80
2, 265724, Note_off_c, 0, 55, 100
2, 265728, Note_on_c, 0, 60, 80
2, 266108, Note_off_c, 0, 60, 100
2, 266112, Note_on_c, 0, 57, 80
2, 266300, Note_off_c, 0, 57, 100
2, 266304, Note_on_c, 0, 53, 80
2, 266492, Note_off_c, 0, 53, 100
2, 266496, Note_on_c, 0, 58, 80
2, 266876, Note_off_c, 0, 58, 100
2, 266880, Note_on_c, 0, 55, 80
2, 267068, Note_off_c, 0, 55, 100
2, 267072, Note_on_c, 0, 52, 80
2, 267260, Note_off_c, 0, 52, 100
2, 267264, Note_on_c, 0, 45, 80
2, 267264, Note_on_c, 0, 53, 80
2, 267452, Note_off_c, 0, 45, 100
2, 267452, Note_off_c, 0, 53, 100
2, 267456, Note_on_c, 0, 45, 80
2, 267456, Note_on_c, 0, 41, 80
2, 267644, Note_off_c, 0, 45, 100
2, 267644, Note_off_c, 0, 41, 100
2, 267648, Note_on_c, 0, 45, 80
2, 267648, Note_on_c, 0, 41, 80
2, 267836, Note_off_c, 0, 45, 100
2, 267836, Note_off_c, 0, 41, 100
2, 267840, Note_on_c, 0, 45, 80
2, 267840, Note_on_c, 0, 41, 80
2, 268028, Note_off_c, 0, 45, 100
2, 268028, Note_off_c, 0, 41, 100
2, 268032, Note_on_c, 0, 45, 80
2, 268032, Note_on_c, 0, 41, 80
2, 268220, Note_off_c, 0, 45, 100
2, 268220, Note_off_c, 0, 41, 100
2, 268224, Note_on_c, 0, 45, 80
2, 268224, Note_on_c, 0, 41, 80
2, 268412, Note_off_c, 0, 45, 100
2, 268412, Note_off_c, 0, 41, 100
2, 268416, Note_on_c, 0, 45, 80
2, 268416, Note_on_c, 0, 41, 80
2, 268604, Note_off_c, 0, 45, 100
2, 268604, Note_off_c, 0, 41, 100
2, 268608, Note_on_c, 0, 45, 80
2, 268608, Note_on_c, 0, 41, 80
2, 268796, Note_off_c, 0, 45, 100
2, 268796, Note_off_c, 0, 41, 100
2, 268800, Note_on_c, 0, 45, 80
2, 268800, Note_on_c, 0, 41, 80
2, 268988, Note_off_c, 0, 45, 100
2, 268988, Note_off_c, 0, 41, 100
2, 268992, Note_on_c, 0, 45, 80
2, 268992, Note_on_c, 0, 41, 80
2, 269180, Note_off_c, 0, 45, 100
2, 269180, Note_off_c, 0, 41, 100
2, 269184, Note_on_c, 0, 45, 80
2, 269184, Note_on_c, 0, 41, 80
2, 269372, Note_off_c, 0, 45, 100
2, 269372, Note_off_c, 0, 41, 100
2, 269376, Note_on_c, 0, 45, 80
2, 269376, Note_on_c, 0, 41, 80
2, 269564, Note_off_c, 0, 45, 100
2, 269564, Note_off_c, 0, 41, 100
2, 269568, Note_on_c, 0, 45, 80
2, 269568, Note_on_c, 0, 41, 80
2, 269756, Note_off_c, 0, 45, 100
2, 269756, Note_off_c, 0, 41, 100
2, 269760, Note_on_c, 0, 45, 80
2, 269760, Note_on_c, 0, 41, 80
2, 269948, Note_off_c, 0, 45, 100
2, 269948, Note_off_c, 0, 41, 100
2, 269952, Note_on_c, 0, 47, 80
2, 269952, Note_on_c, 0, 43, 80
2, 270140, Note_off_c, 0, 47, 100
2, 270140, Note_off_c, 0, 43, 100
2, 270144, Note_on_c, 0, 47, 80
2, 270144, Note_on_c, 0, 43, 80
2, 270332, Note_off_c, 0, 47, 100
2, 270332, Note_off_c, 0, 43, 100
2, 270336, Note_on_c, 0, 48, 80
2, 270908, Note_off_c, 0, 48, 100
2, 270912, Note_on_c, 0, 52, 80
2, 271004, Note_off_c, 0, 52, 100
2, 271008, Note_on_c, 0, 50, 80
2, 271100, Note_off_c, 0, 50, 100
2, 271104, Note_on_c, 0, 48, 80
2, 271292, Note_off_c, 0, 48, 100
2, 271872, Note_on_c, 0, 78, 80
2, 271916, Note_off_c, 0, 78, 100
2, 271920, Note_on_c, 0, 79, 80
2, 272348, Note_off_c, 0, 79, 100
2, 272352, Note_on_c, 0, 77, 80
2, 272444, Note_off_c, 0, 77, 100
2, 272448, Note_on_c, 0, 75, 80
2, 272540, Note_off_c, 0, 75, 100
2, 272544, Note_on_c, 0, 74, 80
2, 272636, Note_off_c, 0, 74, 100
2, 272640, Note_on_c, 0, 72, 80
2, 273020, Note_off_c, 0, 72, 100
2, 273408, Note_on_c, 0, 54, 80
2, 273980, Note_off_c, 0, 54, 100
2, 273984, Note_on_c, 0, 57, 80
2, 274076, Note_off_c, 0, 57, 100
2, 274080, Note_on_c, 0, 55, 80
2, 274172, Note_off_c, 0, 55, 100
2, 274176, Note_on_c, 0, 54, 80
2, 274364, Note_off_c, 0, 54, 100
2, 274944, Note_on_c, 0, 86, 80
2, 274988, Note_off_c, 0, 86, 100
2, 274992, Note_on_c, 0, 87, 80
2, 275420, Note_off_c, 0, 87, 100
2, 275424, Note_on_c, 0, 86, 80
2, 275516, Note_off_c, 0, 86, 100
2, 275520, Note_on_c, 0, 84, 80
2, 275612, Note_off_c, 0, 84, 100
2, 275616, Note_on_c, 0, 82, 80
2, 275708, Note_off_c, 0, 82, 100
2, 275712, Note_on_c, 0, 81, 80
2, 276092, Note_off_c, 0, 81, 100
2, 276480, Note_on_c, 0, 58, 80
2, 276668, Note_off_c, 0, 58, 100
2, 276672, Note_on_c, 0, 62, 80
2, 276764, Note_off_c, 0, 62, 100
2, 276768, Note_on_c, 0, 60, 80
2, 276860, Note_off_c, 0, 60, 100
2, 276864, Note_on_c, 0, 58, 80
2, 277244, Note_off_c, 0, 58, 100
2, 277248, Note_on_c, 0, 84, 80
2, 277340, Note_off_c, 0, 84, 100
2, 277344, Note_on_c, 0, 82, 80
2, 277436, Note_off_c, 0, 82, 100
2, 277440, Note_on_c, 0, 81, 80
2, 277532, Note_off_c, 0, 81, 100
2, 277536, Note_on_c, 0, 79, 80
2, 277628, Note_off_c, 0, 79, 100
2, 277632, Note_on_c, 0, 78, 80
2, 278012, Note_off_c, 0, 78, 100
2, 278016, Note_on_c, 0, 67, 80
2, 278204, Note_off_c, 0, 67, 100
2, 278208, Note_on_c, 0, 70, 80
2, 278300, Note_off_c, 0, 70, 100
2, 278304, Note_on_c, 0, 69, 80
2, 278396, Note_off_c, 0, 69, 100
2, 278400, Note_on_c, 0, 67, 80
2, 278780, Note_off_c, 0, 67, 100
2, 278784, Note_on_c, 0, 87, 80
2, 278876, Note_off_c, 0, 87, 100
2, 278880, Note_on_c, 0, 86, 80
2, 278972, Note_off_c, 0, 86, 100
2, 278976, Note_on_c, 0, 84, 80
2, 279068, Note_off_c, 0, 84, 100
2, 279072, Note_on_c, 0, 82, 80
2, 279164, Note_off_c, 0, 82, 100
2, 279168, Note_on_c, 0, 81, 80
2, 279548, Note_off_c, 0, 81, 100
2, 279552, Note_on_c, 0, 58, 80
2, 279740, Note_off_c, 0, 58, 100
2, 279744, Note_on_c, 0, 62, 82
2, 279836, Note_off_c, 0, 62, 100
2, 279840, Note_on_c, 0, 60, 84
2, 279932, Note_off_c, 0, 60, 100
2, 279936, Note_on_c, 0, 58, 85
2, 280316, Note_off_c, 0, 58, 100
2, 280320, Note_on_c, 0, 84, 90
2, 280412, Note_off_c, 0, 84, 100
2, 280416, Note_on_c, 0, 82, 92
2, 280508, Note_off_c, 0, 82, 100
2, 280512, Note_on_c, 0, 81, 93
2, 280604, Note_off_c, 0, 81, 100
2, 280608, Note_on_c, 0, 79, 94
2, 280700, Note_off_c, 0, 79, 100
2, 280704, Note_on_c, 0, 78, 96
2, 281084, Note_off_c, 0, 78, 100
2, 281088, Note_on_c, 0, 74, 101
2, 281180, Note_off_c, 0, 74, 100
2, 281184, Note_on_c, 0, 72, 102
2, 281276, Note_off_c, 0, 72, 100
2, 281280, Note_on_c, 0, 70, 104
2, 281372, Note_off_c, 0, 70, 100
2, 281376, Note_on_c, 0, 69, 105
2, 281468, Note_off_c, 0, 69, 100
2, 281472, Note_on_c, 0, 67, 106
2, 281852, Note_off_c, 0, 67, 100
2, 281856, Note_on_c, 0, 80, 110
2, 281948, Note_off_c, 0, 80, 100
2, 281952, Note_on_c, 0, 79, 110
2, 282044, Note_off_c, 0, 79, 100
2, 282048, Note_on_c, 0, 77, 110
2, 282140, Note_off_c, 0, 77, 100
2, 282144, Note_on_c, 0, 75, 110
2, 282236, Note_off_c, 0, 75, 100
2, 282240, Note_on_c, 0, 74, 110
2, 282620, Note_off_c, 0, 74, 100
2, 282624, Note_on_c, 0, 63, 80
2, 282812, Note_off_c, 0, 63, 100
2, 282816, Note_on_c, 0, 67, 80
2, 282908, Note_off_c, 0, 67, 100
2, 282912, Note_on_c, 0, 65, 80
2, 283004, Note_off_c, 0, 65, 100
2, 283008, Note_on_c, 0, 63, 80
2, 283388, Note_off_c, 0, 63, 100
2, 283392, Note_on_c, 0, 77, 80
2, 283484, Note_off_c, 0, 77, 100
2, 283488, Note_on_c, 0, 75, 80
2, 283580, Note_off_c, 0, 75, 100
2, 283584, Note_on_c, 0, 74, 80
2, 283676, Note_off_c, 0, 74, 100
2, 283680, Note_on_c, 0, 72, 80
2, 283772, Note_off_c, 0, 72, 100
2, 283776, Note_on_c, 0, 71, 80
2, 284156, Note_off_c, 0, 71, 100
2, 284160, Note_on_c, 0, 60, 80
2, 284348, Note_off_c, 0, 60, 100
2, 284352, Note_on_c, 0, 63, 80
2, 284444, Note_off_c, 0, 63, 100
2, 284448, Note_on_c, 0, 62, 80
2, 284540, Note_off_c, 0, 62, 100
2, 284544, Note_on_c, 0, 60, 80
2, 284924, Note_off_c, 0, 60, 100
2, 284928, Note_on_c, 0, 80, 80
2, 285020, Note_off_c, 0, 80, 100
2, 285024, Note_on_c, 0, 79, 80
2, 285116, Note_off_c, 0, 79, 100
2, 285120, Note_on_c, 0, 77, 80
2, 285212, Note_off_c, 0, 77, 100
2, 285216, Note_on_c, 0, 75, 80
2, 285308, Note_off_c, 0, 75, 100
2, 285312, Note_on_c, 0, 74, 80
2, 285692, Note_off_c, 0, 74, 100
2, 285696, Note_on_c, 0, 63, 80
2, 285884, Note_off_c, 0, 63, 100
2, 285888, Note_on_c, 0, 67, 82
2, 285980, Note_off_c, 0, 67, 100
2, 285984, Note_on_c, 0, 65, 84
2, 286076, Note_off_c, 0, 65, 100
2, 286080, Note_on_c, 0, 63, 85
2, 286460, Note_off_c, 0, 63, 100
2, 286464, Note_on_c, 0, 77, 90
2, 286556, Note_off_c, 0, 77, 100
2, 286560, Note_on_c, 0, 75, 92
2, 286652, Note_off_c, 0, 75, 100
2, 286656, Note_on_c, 0, 74, 93
2, 286748, Note_off_c, 0, 74, 100
2, 286752, Note_on_c, 0, 72, 94
2, 286844, Note_off_c, 0, 72, 100
2, 286848, Note_on_c, 0, 71, 96
2, 287228, Note_off_c, 0, 71, 100
2, 287232, Note_on_c, 0, 79, 101
2, 287324, Note_off_c, 0, 79, 100
2, 287328, Note_on_c, 0, 77, 102
2, 287420, Note_off_c, 0, 77, 100
2, 287424, Note_on_c, 0, 75, 104
2, 287516, Note_off_c, 0, 75, 100
2, 287520, Note_on_c, 0, 74, 105
2, 287612, Note_off_c, 0, 74, 100
2, 287616, Note_on_c, 0, 72, 106
2, 287996, Note_off_c, 0, 72, 100
2, 288000, Note_on_c, 0, 85, 110
2, 288092, Note_off_c, 0, 85, 100
2, 288096, Note_on_c, 0, 84, 110
2, 288188, Note_off_c, 0, 84, 100
2, 288192, Note_on_c, 0, 82, 110
2, 288284, Note_off_c, 0, 82, 100
2, 288288, Note_on_c, 0, 80, 110
2, 288380, Note_off_c, 0, 80, 100
2, 288384, Note_on_c, 0, 79, 110
2, 288764, Note_off_c, 0, 79, 100
2, 288768, Note_on_c, 0, 80, 70
2, 288956, Note_off_c, 0, 80, 100
2, 288960, Note_on_c, 0, 84, 70
2, 289052, Note_off_c, 0, 84, 100
2, 289056, Note_on_c, 0, 82, 70
2, 289148, Note_off_c, 0, 82, 100
2, 289152, Note_on_c, 0, 80, 70
2, 289532, Note_off_c, 0, 80, 100
2, 289536, Note_on_c, 0, 85, 70
2, 289724, Note_off_c, 0, 85, 100
2, 289728, Note_on_c, 0, 89, 70
2, 289820, Note_off_c, 0, 89, 100
2, 289824, Note_on_c, 0, 87, 70
2, 289916, Note_off_c, 0, 87, 100
2, 289920, Note_on_c, 0, 85, 70
2, 290300, Note_off_c, 0, 85, 100
2, 290304, Note_on_c, 0, 66, 70
2, 290492, Note_off_c, 0, 66, 100
2, 290496, Note_on_c, 0, 70, 70
2, 290588, Note_off_c, 0, 70, 100
2, 290592, Note_on_c, 0, 68, 70
2, 290684, Note_off_c, 0, 68, 100
2, 290688, Note_on_c, 0, 66, 70
2, 291068, Note_off_c, 0, 66, 100
2, 291072, Note_on_c, 0, 71, 70
2, 291836, Note_off_c, 0, 71, 100
2, 291840, Note_on_c, 0, 77, 70
2, 292028, Note_off_c, 0, 77, 100
2, 292032, Note_on_c, 0, 81, 70
2, 292124, Note_off_c, 0, 81, 100
2, 292128, Note_on_c, 0, 79, 70
2, 292220, Note_off_c, 0, 79, 100
2, 292224, Note_on_c, 0, 77, 70
2, 292604, Note_off_c, 0, 77, 100
2, 292608, Note_on_c, 0, 82, 70
2, 292796, Note_off_c, 0, 82, 100
2, 292800, Note_on_c, 0, 85, 70
2, 292892, Note_off_c, 0, 85, 100
2, 292896, Note_on_c, 0, 84, 70
2, 292988, Note_off_c, 0, 84, 100
2, 292992, Note_on_c, 0, 82, 70
2, 293372, Note_off_c, 0, 82, 100
2, 293376, Note_on_c, 0, 63, 70
2, 293564, Note_off_c, 0, 63, 100
2, 293568, Note_on_c, 0, 67, 70
2, 293660, Note_off_c, 0, 67, 100
2, 293664, Note_on_c, 0, 65, 70
2, 293756, Note_off_c, 0, 65, 100
2, 293760, Note_on_c, 0, 63, 70
2, 294140, Note_off_c, 0, 63, 100
2, 294144, Note_on_c, 0, 68, 70
2, 294908, Note_off_c, 0, 68, 100
2, 294912, Note_on_c, 0, 73, 70
2, 295100, Note_off_c, 0, 73, 100
2, 295104, Note_on_c, 0, 77, 70
2, 295196, Note_off_c, 0, 77, 100
2, 295200, Note_on_c, 0, 75, 70
2, 295292, Note_off_c, 0, 75, 100
2, 295296, Note_on_c, 0, 73, 70
2, 295676, Note_off_c, 0, 73, 100
2, 295680, Note_on_c, 0, 78, 70
2, 295868, Note_off_c, 0, 78, 100
2, 295872, Note_on_c, 0, 82, 70
2, 295964, Note_off_c, 0, 82, 100
2, 295968, Note_on_c, 0, 80, 70
2, 296060, Note_off_c, 0, 80, 100
2, 296064, Note_on_c, 0, 78, 70
2, 296444, Note_off_c, 0, 78, 100
2, 296448, Note_on_c, 0, 60, 70
2, 296636, Note_off_c, 0, 60, 100
2, 296640, Note_on_c, 0, 64, 70
2, 296732, Note_off_c, 0, 64, 100
2, 296736, Note_on_c, 0, 62, 70
2, 296828, Note_off_c, 0, 62, 100
2, 296832, Note_on_c, 0, 60, 70
2, 297212, Note_off_c, 0, 60, 100
2, 297216, Note_on_c, 0, 72, 70
2, 297980, Note_off_c, 0, 72, 100
2, 297984, Note_on_c, 0, 72, 75
2, 298172, Note_off_c, 0, 72, 100
2, 298176, Note_on_c, 0, 76, 77
2, 298268, Note_off_c, 0, 76, 100
2, 298272, Note_on_c, 0, 74, 78
2, 298364, Note_off_c, 0, 74, 100
2, 298368, Note_on_c, 0, 72, 79
2, 298748, Note_off_c, 0, 72, 100
2, 298752, Note_on_c, 0, 84, 84
2, 299516, Note_off_c, 0, 84, 100
2, 299520, Note_on_c, 0, 84, 93
2, 299708, Note_off_c, 0, 84, 100
2, 299712, Note_on_c, 0, 88, 95
2, 299804, Note_off_c, 0, 88, 100
2, 299808, Note_on_c, 0, 86, 96
2, 299900, Note_off_c, 0, 86, 100
2, 299904, Note_on_c, 0, 84, 97
2, 300092, Note_off_c, 0, 84, 100
2, 300096, Note_on_c, 0, 84, 99
2, 300284, Note_off_c, 0, 84, 100
2, 300288, Note_on_c, 0, 84, 105
2, 300476, Note_off_c, 0, 84, 100
2, 300480, Note_on_c, 0, 84, 109
2, 300668, Note_off_c, 0, 84, 100
2, 300672, Note_on_c, 0, 89, 113
2, 300860, Note_off_c, 0, 89, 100
2, 300864, Note_on_c, 0, 83, 117
2, 301052, Note_off_c, 0, 83, 100
2, 301056, Note_on_c, 0, 84, 121
2, 301436, Note_off_c, 0, 84, 100
2, 301440, Note_on_c, 0, 67, 110
2, 302204, Note_off_c, 0, 67, 100
2, 302208, Note_on_c, 0, 67, 110
2, 302588, Note_off_c, 0, 67, 100
2, 302592, Note_on_c, 0, 72, 110
2, 302716, Note_off_c, 0, 72, 100
2, 302720, Note_on_c, 0, 67, 110
2, 302844, Note_off_c, 0, 67, 100
2, 302848, Note_on_c, 0, 64, 110
2, 302972, Note_off_c, 0, 64, 100
2, 302976, Note_on_c, 0, 67, 110
2, 303100, Note_off_c, 0, 67, 100
2, 303104, Note_on_c, 0, 72, 110
2, 303228, Note_off_c, 0, 72, 100
2, 303232, Note_on_c, 0, 76, 110
2, 303356, Note_off_c, 0, 76, 100
2, 303360, Note_on_c, 0, 74, 110
2, 303484, Note_off_c, 0, 74, 100
2, 303488, Note_on_c, 0, 71, 110
2, 303612, Note_off_c, 0, 71, 100
2, 303616, Note_on_c, 0, 68, 110
2, 303740, Note_off_c, 0, 68, 100
2, 303744, Note_on_c, 0, 71, 110
2, 303868, Note_off_c, 0, 71, 100
2, 303872, Note_on_c, 0, 74, 110
2, 303996, Note_off_c, 0, 74, 100
2, 304000, Note_on_c, 0, 77, 110
2, 304124, Note_off_c, 0, 77, 100
2, 304128, Note_on_c, 0, 76, 110
2, 304252, Note_off_c, 0, 76, 100
2, 304256, Note_on_c, 0, 73, 110
2, 304380, Note_off_c, 0, 73, 100
2, 304384, Note_on_c, 0, 70, 110
2, 304508, Note_off_c, 0, 70, 100
2, 304512, Note_on_c, 0, 73, 110
2, 304636, Note_off_c, 0, 73, 100
2, 304640, Note_on_c, 0, 76, 110
2, 304764, Note_off_c, 0, 76, 100
2, 304768, Note_on_c, 0, 79, 110
2, 304892, Note_off_c, 0, 79, 100
2, 304896, Note_on_c, 0, 82, 110
2, 305020, Note_off_c, 0, 82, 100
2, 305024, Note_on_c, 0, 76, 110
2, 305148, Note_off_c, 0, 76, 100
2, 305152, Note_on_c, 0, 85, 110
2, 305276, Note_off_c, 0, 85, 100
2, 305280, Note_on_c, 0, 76, 110
2, 305404, Note_off_c, 0, 76, 100
2, 305408, Note_on_c, 0, 73, 110
2, 305532, Note_off_c, 0, 73, 100
2, 305536, Note_on_c, 0, 82, 110
2, 305660, Note_off_c, 0, 82, 100
2, 305664, Note_on_c, 0, 73, 110
2, 305788, Note_off_c, 0, 73, 100
2, 305792, Note_on_c, 0, 70, 110
2, 305916, Note_off_c, 0, 70, 100
2, 305920, Note_on_c, 0, 76, 110
2, 306044, Note_off_c, 0, 76, 100
2, 306048, Note_on_c, 0, 70, 110
2, 306172, Note_off_c, 0, 70, 100
2, 306176, Note_on_c, 0, 64, 110
2, 306300, Note_off_c, 0, 64, 100
2, 306304, Note_on_c, 0, 73, 110
2, 306428, Note_off_c, 0, 73, 100
2, 306432, Note_on_c, 0, 70, 110
2, 306556, Note_off_c, 0, 70, 100
2, 306560, Note_on_c, 0, 64, 110
2, 306684, Note_off_c, 0, 64, 100
2, 306688, Note_on_c, 0, 72, 110
2, 306812, Note_off_c, 0, 72, 100
2, 306816, Note_on_c, 0, 70, 110
2, 306940, Note_off_c, 0, 70, 100
2, 306944, Note_on_c, 0, 64, 110
2, 307068, Note_off_c, 0, 64, 100
2, 307072, Note_on_c, 0, 72, 110
2, 307196, Note_off_c, 0, 72, 100
2, 307200, Note_on_c, 0, 72, 110
2, 307200, Note_on_c, 0, 69, 110
2, 307200, Note_on_c, 0, 65, 110
2, 307580, Note_off_c, 0, 72, 100
2, 307580, Note_off_c, 0, 69, 100
2, 307580, Note_off_c, 0, 65, 100
2, 307584, Note_on_c, 0, 72, 110
2, 308348, Note_off_c, 0, 72, 100
2, 308352, Note_on_c, 0, 72, 110
2, 308732, Note_off_c, 0, 72, 100
2, 308736, Note_on_c, 0, 77, 110
2, 308860, Note_off_c, 0, 77, 100
2, 308864, Note_on_c, 0, 72, 110
2, 308988, Note_off_c, 0, 72, 100
2, 308992, Note_on_c, 0, 69, 110
2, 309116, Note_off_c, 0, 69, 100
2, 309120, Note_on_c, 0, 72, 110
2, 309244, Note_off_c, 0, 72, 100
2, 309248, Note_on_c, 0, 77, 110
2, 309372, Note_off_c, 0, 77, 100
2, 309376, Note_on_c, 0, 81, 110
2, 309500, Note_off_c, 0, 81, 100
2, 309504, Note_on_c, 0, 79, 110
2, 309628, Note_off_c, 0, 79, 100
2, 309632, Note_on_c, 0, 76, 110
2, 309756, Note_off_c, 0, 76, 100
2, 309760, Note_on_c, 0, 73, 110
2, 309884, Note_off_c, 0, 73, 100
2, 309888, Note_on_c, 0, 76, 110
2, 310012, Note_off_c, 0, 76, 100
2, 310016, Note_on_c, 0, 79, 110
2, 310140, Note_off_c, 0, 79, 100
2, 310144, Note_on_c, 0, 82, 110
2, 310268, Note_off_c, 0, 82, 100
2, 310272, Note_on_c, 0, 81, 110
2, 310396, Note_off_c, 0, 81, 100
2, 310400, Note_on_c, 0, 78, 110
2, 310524, Note_off_c, 0, 78, 100
2, 310528, Note_on_c, 0, 75, 110
2, 310652, Note_off_c, 0, 75, 100
2, 310656, Note_on_c, 0, 78, 110
2, 310780, Note_off_c, 0, 78, 100
2, 310784, Note_on_c, 0, 81, 110
2, 310908, Note_off_c, 0, 81, 100
2, 310912, Note_on_c, 0, 84, 110
2, 311036, Note_off_c, 0, 84, 100
2, 311040, Note_on_c, 0, 81, 110
2, 311164, Note_off_c, 0, 81, 100
2, 311168, Note_on_c, 0, 78, 110
2, 311292, Note_off_c, 0, 78, 100
2, 311296, Note_on_c, 0, 87, 110
2, 311420, Note_off_c, 0, 87, 100
2, 311424, Note_on_c, 0, 78, 110
2, 311548, Note_off_c, 0, 78, 100
2, 311552, Note_on_c, 0, 75, 110
2, 311676, Note_off_c, 0, 75, 100
2, 311680, Note_on_c, 0, 84, 110
2, 311804, Note_off_c, 0, 84, 100
2, 311808, Note_on_c, 0, 75, 110
2, 311932, Note_off_c, 0, 75, 100
2, 311936, Note_on_c, 0, 72, 110
2, 312060, Note_off_c, 0, 72, 100
2, 312064, Note_on_c, 0, 81, 110
2, 312188, Note_off_c, 0, 81, 100
2, 312192, Note_on_c, 0, 75, 110
2, 312316, Note_off_c, 0, 75, 100
2, 312320, Note_on_c, 0, 69, 110
2, 312444, Note_off_c, 0, 69, 100
2, 312448, Note_on_c, 0, 78, 110
2, 312572, Note_off_c, 0, 78, 100
2, 312576, Note_on_c, 0, 75, 110
2, 312700, Note_off_c, 0, 75, 100
2, 312704, Note_on_c, 0, 69, 110
2, 312828, Note_off_c, 0, 69, 100
2, 312832, Note_on_c, 0, 77, 110
2, 312956, Note_off_c, 0, 77, 100
2, 312960, Note_on_c, 0, 75, 110
2, 313084, Note_off_c, 0, 75, 100
2, 313088, Note_on_c, 0, 69, 110
2, 313212, Note_off_c, 0, 69, 100
2, 313216, Note_on_c, 0, 77, 110
2, 313340, Note_off_c, 0, 77, 100
2, 313344, Note_on_c, 0, 77, 110
2, 313344, Note_on_c, 0, 74, 110
2, 313344, Note_on_c, 0, 70, 110
2, 313724, Note_off_c, 0, 77, 100
2, 313724, Note_off_c, 0, 74, 100
2, 313724, Note_off_c, 0, 70, 100
2, 313728, Note_on_c, 0, 65, 110
2, 314492, Note_off_c, 0, 65, 100
2, 314496, Note_on_c, 0, 65, 110
2, 314876, Note_off_c, 0, 65, 100
2, 314880, Note_on_c, 0, 70, 110
2, 315004, Note_off_c, 0, 70, 100
2, 315008, Note_on_c, 0, 65, 110
2, 315132, Note_off_c, 0, 65, 100
2, 315136, Note_on_c, 0, 62, 110
2, 315260, Note_off_c, 0, 62, 100
2, 315264, Note_on_c, 0, 65, 110
2, 315388, Note_off_c, 0, 65, 100
2, 315392, Note_on_c, 0, 70, 110
2, 315516, Note_off_c, 0, 70, 100
2, 315520, Note_on_c, 0, 74, 110
2, 315644, Note_off_c, 0, 74, 100
2, 315648, Note_on_c, 0, 72, 110
2, 315772, Note_off_c, 0, 72, 100
2, 315776, Note_on_c, 0, 69, 110
2, 315900, Note_off_c, 0, 69, 100
2, 315904, Note_on_c, 0, 66, 110
2, 316028, Note_off_c, 0, 66, 100
2, 316032, Note_on_c, 0, 69, 110
2, 316156, Note_off_c, 0, 69, 100
2, 316160, Note_on_c, 0, 72, 110
2, 316284, Note_off_c, 0, 72, 100
2, 316288, Note_on_c, 0, 75, 110
2, 316412, Note_off_c, 0, 75, 100
2, 316416, Note_on_c, 0, 74, 110
2, 316540, Note_off_c, 0, 74, 100
2, 316544, Note_on_c, 0, 71, 110
2, 316668, Note_off_c, 0, 71, 100
2, 316672, Note_on_c, 0, 68, 110
2, 316796, Note_off_c, 0, 68, 100
2, 316800, Note_on_c, 0, 71, 110
2, 316924, Note_off_c, 0, 71, 100
2, 316928, Note_on_c, 0, 74, 110
2, 317052, Note_off_c, 0, 74, 100
2, 317056, Note_on_c, 0, 77, 110
2, 317180, Note_off_c, 0, 77, 100
2, 317184, Note_on_c, 0, 80, 110
2, 317308, Note_off_c, 0, 80, 100
2, 317312, Note_on_c, 0, 74, 110
2, 317436, Note_off_c, 0, 74, 100
2, 317440, Note_on_c, 0, 83, 110
2, 317564, Note_off_c, 0, 83, 100
2, 317568, Note_on_c, 0, 74, 110
2, 317692, Note_off_c, 0, 74, 100
2, 317696, Note_on_c, 0, 71, 110
2, 317820, Note_off_c, 0, 71, 100
2, 317824, Note_on_c, 0, 80, 110
2, 317948, Note_off_c, 0, 80, 100
2, 317952, Note_on_c, 0, 71, 110
2, 318076, Note_off_c, 0, 71, 100
2, 318080, Note_on_c, 0, 68, 110
2, 318204, Note_off_c, 0, 68, 100
2, 318208, Note_on_c, 0, 77, 110
2, 318332, Note_off_c, 0, 77, 100
2, 318336, Note_on_c, 0, 68, 110
2, 318460, Note_off_c, 0, 68, 100
2, 318464, Note_on_c, 0, 65, 110
2, 318588, Note_off_c, 0, 65, 100
2, 318592, Note_on_c, 0, 74, 110
2, 318716, Note_off_c, 0, 74, 100
2, 318720, Note_on_c, 0, 68, 110
2, 318844, Note_off_c, 0, 68, 100
2, 318848, Note_on_c, 0, 62, 110
2, 318972, Note_off_c, 0, 62, 100
2, 318976, Note_on_c, 0, 71, 110
2, 319100, Note_off_c, 0, 71, 100
2, 319104, Note_on_c, 0, 68, 110
2, 319228, Note_off_c, 0, 68, 100
2, 319232, Note_on_c, 0, 62, 110
2, 319356, Note_off_c, 0, 62, 100
2, 319360, Note_on_c, 0, 70, 110
2, 319484, Note_off_c, 0, 70, 100
2, 319488, Note_on_c, 0, 78, 110
2, 319612, Note_off_c, 0, 78, 100
2, 319616, Note_on_c, 0, 75, 110
2, 319740, Note_off_c, 0, 75, 100
2, 319744, Note_on_c, 0, 70, 110
2, 319868, Note_off_c, 0, 70, 100
2, 319872, Note_on_c, 0, 75, 110
2, 319996, Note_off_c, 0, 75, 100
2, 320000, Note_on_c, 0, 78, 110
2, 320124, Note_off_c, 0, 78, 100
2, 320128, Note_on_c, 0, 82, 110
2, 320252, Note_off_c, 0, 82, 100
2, 320256, Note_on_c, 0, 78, 110
2, 320380, Note_off_c, 0, 78, 100
2, 320384, Note_on_c, 0, 75, 110
2, 320508, Note_off_c, 0, 75, 100
2, 320512, Note_on_c, 0, 87, 110
2, 320636, Note_off_c, 0, 87, 100
2, 320640, Note_on_c, 0, 75, 110
2, 320764, Note_off_c, 0, 75, 100
2, 320768, Note_on_c, 0, 70, 110
2, 320892, Note_off_c, 0, 70, 100
2, 320896, Note_on_c, 0, 82, 110
2, 321020, Note_off_c, 0, 82, 100
2, 321024, Note_on_c, 0, 70, 110
2, 321148, Note_off_c, 0, 70, 100
2, 321152, Note_on_c, 0, 66, 110
2, 321276, Note_off_c, 0, 66, 100
2, 321280, Note_on_c, 0, 78, 110
2, 321404, Note_off_c, 0, 78, 100
2, 321408, Note_on_c, 0, 66, 110
2, 321532, Note_off_c, 0, 66, 100
2, 321536, Note_on_c, 0, 63, 110
2, 321660, Note_off_c, 0, 63, 100
2, 321664, Note_on_c, 0, 75, 110
2, 321788, Note_off_c, 0, 75, 100
2, 321792, Note_on_c, 0, 66, 110
2, 321916, Note_off_c, 0, 66, 100
2, 321920, Note_on_c, 0, 63, 110
2, 322044, Note_off_c, 0, 63, 100
2, 322048, Note_on_c, 0, 75, 110
2, 322172, Note_off_c, 0, 75, 100
2, 322176, Note_on_c, 0, 66, 110
2, 322300, Note_off_c, 0, 66, 100
2, 322304, Note_on_c, 0, 63, 110
2, 322428, Note_off_c, 0, 63, 100
2, 322432, Note_on_c, 0, 75, 110
2, 322556, Note_off_c, 0, 75, 100
2, 322560, Note_on_c, 0, 78, 110
2, 322684, Note_off_c, 0, 78, 100
2, 322688, Note_on_c, 0, 76, 110
2, 322812, Note_off_c, 0, 76, 100
2, 322816, Note_on_c, 0, 73, 110
2, 322940, Note_off_c, 0, 73, 100
2, 322944, Note_on_c, 0, 76, 110
2, 323068, Note_off_c, 0, 76, 100
2, 323072, Note_on_c, 0, 78, 110
2, 323196, Note_off_c, 0, 78, 100
2, 323200, Note_on_c, 0, 85, 110
2, 323324, Note_off_c, 0, 85, 100
2, 323328, Note_on_c, 0, 78, 110
2, 323452, Note_off_c, 0, 78, 100
2, 323456, Note_on_c, 0, 76, 110
2, 323580, Note_off_c, 0, 76, 100
2, 323584, Note_on_c, 0, 88, 110
2, 323708, Note_off_c, 0, 88, 100
2, 323712, Note_on_c, 0, 76, 110
2, 323836, Note_off_c, 0, 76, 100
2, 323840, Note_on_c, 0, 73, 110
2, 323964, Note_off_c, 0, 73, 100
2, 323968, Note_on_c, 0, 85, 110
2, 324092, Note_off_c, 0, 85, 100
2, 324096, Note_on_c, 0, 73, 110
2, 324220, Note_off_c, 0, 73, 100
2, 324224, Note_on_c, 0, 66, 110
2, 324348, Note_off_c, 0, 66, 100
2, 324352, Note_on_c, 0, 78, 110
2, 324476, Note_off_c, 0, 78, 100
2, 324480, Note_on_c, 0, 66, 110
2, 324604, Note_off_c, 0, 66, 100
2, 324608, Note_on_c, 0, 64, 110
2, 324732, Note_off_c, 0, 64, 100
2, 324736, Note_on_c, 0, 76, 110
2, 324860, Note_off_c, 0, 76, 100
2, 324864, Note_on_c, 0, 66, 110
2, 324988, Note_off_c, 0, 66, 100
2, 324992, Note_on_c, 0, 64, 110
2, 325116, Note_off_c, 0, 64, 100
2, 325120, Note_on_c, 0, 76, 110
2, 325244, Note_off_c, 0, 76, 100
2, 325248, Note_on_c, 0, 66, 110
2, 325372, Note_off_c, 0, 66, 100
2, 325376, Note_on_c, 0, 64, 110
2, 325500, Note_off_c, 0, 64, 100
2, 325504, Note_on_c, 0, 76, 110
2, 325628, Note_off_c, 0, 76, 100
2, 325632, Note_on_c, 0, 78, 110
2, 325756, Note_off_c, 0, 78, 100
2, 325760, Note_on_c, 0, 74, 110
2, 325884, Note_off_c, 0, 74, 100
2, 325888, Note_on_c, 0, 71, 110
2, 326012, Note_off_c, 0, 71, 100
2, 326016, Note_on_c, 0, 74, 110
2, 326140, Note_off_c, 0, 74, 100
2, 326144, Note_on_c, 0, 78, 110
2, 326268, Note_off_c, 0, 78, 100
2, 326272, Note_on_c, 0, 83, 110
2, 326396, Note_off_c, 0, 83, 100
2, 326400, Note_on_c, 0, 78, 110
2, 326524, Note_off_c, 0, 78, 100
2, 326528, Note_on_c, 0, 74, 110
2, 326652, Note_off_c, 0, 74, 100
2, 326656, Note_on_c, 0, 86, 110
2, 326780, Note_off_c, 0, 86, 100
2, 326784, Note_on_c, 0, 74, 110
2, 326908, Note_off_c, 0, 74, 100
2, 326912, Note_on_c, 0, 71, 110
2, 327036, Note_off_c, 0, 71, 100
2, 327040, Note_on_c, 0, 83, 110
2, 327164, Note_off_c, 0, 83, 100
2, 327168, Note_on_c, 0, 71, 110
2, 327292, Note_off_c, 0, 71, 100
2, 327296, Note_on_c, 0, 66, 110
2, 327420, Note_off_c, 0, 66, 100
2, 327424, Note_on_c, 0, 78, 110
2, 327548, Note_off_c, 0, 78, 100
2, 327552, Note_on_c, 0, 66, 110
2, 327676, Note_off_c, 0, 66, 100
2, 327680, Note_on_c, 0, 62, 110
2, 327804, Note_off_c, 0, 62, 100
2, 327808, Note_on_c, 0, 74, 110
2, 327932, Note_off_c, 0, 74, 100
2, 327936, Note_on_c, 0, 66, 110
2, 328060, Note_off_c, 0, 66, 100
2, 328064, Note_on_c, 0, 62, 110
2, 328188, Note_off_c, 0, 62, 100
2, 328192, Note_on_c, 0, 74, 110
2, 328316, Note_off_c, 0, 74, 100
2, 328320, Note_on_c, 0, 66, 110
2, 328444, Note_off_c, 0, 66, 100
2, 328448, Note_on_c, 0, 62, 110
2, 328572, Note_off_c, 0, 62, 100
2, 328576, Note_on_c, 0, 74, 110
2, 328700, Note_off_c, 0, 74, 100
2, 328704, Note_on_c, 0, 79, 110
2, 328828, Note_off_c, 0, 79, 100
2, 328832, Note_on_c, 0, 74, 110
2, 328956, Note_off_c, 0, 74, 100
2, 328960, Note_on_c, 0, 71, 110
2, 329084, Note_off_c, 0, 71, 100
2, 329088, Note_on_c, 0, 74, 110
2, 329212, Note_off_c, 0, 74, 100
2, 329216, Note_on_c, 0, 79, 110
2, 329340, Note_off_c, 0, 79, 100
2, 329344, Note_on_c, 0, 83, 110
2, 329468, Note_off_c, 0, 83, 100
2, 329472, Note_on_c, 0, 79, 110
2, 329596, Note_off_c, 0, 79, 100
2, 329600, Note_on_c, 0, 74, 110
2, 329724, Note_off_c, 0, 74, 100
2, 329728, Note_on_c, 0, 86, 110
2, 329852, Note_off_c, 0, 86, 100
2, 329856, Note_on_c, 0, 74, 110
2, 329980, Note_off_c, 0, 74, 100
2, 329984, Note_on_c, 0, 71, 110
2, 330108, Note_off_c, 0, 71, 100
2, 330112, Note_on_c, 0, 83, 110
2, 330236, Note_off_c, 0, 83, 100
2, 330240, Note_on_c, 0, 71, 110
2, 330364, Note_off_c, 0, 71, 100
2, 330368, Note_on_c, 0, 67, 110
2, 330492, Note_off_c, 0, 67, 100
2, 330496, Note_on_c, 0, 79, 110
2, 330620, Note_off_c, 0, 79, 100
2, 330624, Note_on_c, 0, 67, 110
2, 330748, Note_off_c, 0, 67, 100
2, 330752, Note_on_c, 0, 65, 110
2, 330876, Note_off_c, 0, 65, 100
2, 330880, Note_on_c, 0, 77, 110
2, 331004, Note_off_c, 0, 77, 100
2, 331008, Note_on_c, 0, 67, 110
2, 331132, Note_off_c, 0, 67, 100
2, 331136, Note_on_c, 0, 62, 110
2, 331260, Note_off_c, 0, 62, 100
2, 331264, Note_on_c, 0, 74, 110
2, 331388, Note_off_c, 0, 74, 100
2, 331392, Note_on_c, 0, 67, 110
2, 331516, Note_off_c, 0, 67, 100
2, 331520, Note_on_c, 0, 62, 110
2, 331644, Note_off_c, 0, 62, 100
2, 331648, Note_on_c, 0, 74, 110
2, 331772, Note_off_c, 0, 74, 100
2, 331776, Note_on_c, 0, 84, 110
2, 331900, Note_off_c, 0, 84, 100
2, 331904, Note_on_c, 0, 79, 110
2, 332028, Note_off_c, 0, 79, 100
2, 332032, Note_on_c, 0, 75, 110
2, 332156, Note_off_c, 0, 75, 100
2, 332160, Note_on_c, 0, 79, 110
2, 332284, Note_off_c, 0, 79, 100
2, 332288, Note_on_c, 0, 84, 110
2, 332412, Note_off_c, 0, 84, 100
2, 332416, Note_on_c, 0, 87, 110
2, 332540, Note_off_c, 0, 87, 100
2, 332544, Note_on_c, 0, 79, 110
2, 332668, Note_off_c, 0, 79, 100
2, 332672, Note_on_c, 0, 75, 110
2, 332796, Note_off_c, 0, 75, 100
2, 332800, Note_on_c, 0, 87, 110
2, 332924, Note_off_c, 0, 87, 100
2, 332928, Note_on_c, 0, 75, 110
2, 333052, Note_off_c, 0, 75, 100
2, 333056, Note_on_c, 0, 72, 110
2, 333180, Note_off_c, 0, 72, 100
2, 333184, Note_on_c, 0, 84, 110
2, 333308, Note_off_c, 0, 84, 100
2, 333312, Note_on_c, 0, 72, 110
2, 333436, Note_off_c, 0, 72, 100
2, 333440, Note_on_c, 0, 67, 110
2, 333564, Note_off_c, 0, 67, 100
2, 333568, Note_on_c, 0, 79, 110
2, 333692, Note_off_c, 0, 79, 100
2, 333696, Note_on_c, 0, 67, 110
2, 333820, Note_off_c, 0, 67, 100
2, 333824, Note_on_c, 0, 63, 110
2, 333948, Note_off_c, 0, 63, 100
2, 333952, Note_on_c, 0, 75, 110
2, 334076, Note_off_c, 0, 75, 100
2, 334080, Note_on_c, 0, 67, 110
2, 334204, Note_off_c, 0, 67, 100
2, 334208, Note_on_c, 0, 63, 110
2, 334332, Note_off_c, 0, 63, 100
2, 334336, Note_on_c, 0, 75, 110
2, 334460, Note_off_c, 0, 75, 100
2, 334464, Note_on_c, 0, 67, 110
2, 334588, Note_off_c, 0, 67, 100
2, 334592, Note_on_c, 0, 63, 110
2, 334716, Note_off_c, 0, 63, 100
2, 334720, Note_on_c, 0, 75, 110
2, 334844, Note_off_c, 0, 75, 100
2, 334848, Note_on_c, 0, 77, 110
2, 334972, Note_off_c, 0, 77, 100
2, 334976, Note_on_c, 0, 73, 110
2, 335100, Note_off_c, 0, 73, 100
2, 335104, Note_on_c, 0, 68, 110
2, 335228, Note_off_c, 0, 68, 100
2, 335232, Note_on_c, 0, 73, 110
2, 335356, Note_off_c, 0, 73, 100
2, 335360, Note_on_c, 0, 77, 110
2, 335484, Note_off_c, 0, 77, 100
2, 335488, Note_on_c, 0, 80, 110
2, 335612, Note_off_c, 0, 80, 100
2, 335616, Note_on_c, 0, 77, 110
2, 335740, Note_off_c, 0, 77, 100
2, 335744, Note_on_c, 0, 73, 110
2, 335868, Note_off_c, 0, 73, 100
2, 335872, Note_on_c, 0, 68, 110
2, 335996, Note_off_c, 0, 68, 100
2, 336000, Note_on_c, 0, 77, 110
2, 336124, Note_off_c, 0, 77, 100
2, 336128, Note_on_c, 0, 73, 110
2, 336252, Note_off_c, 0, 73, 100
2, 336256, Note_on_c, 0, 68, 110
2, 336380, Note_off_c, 0, 68, 100
2, 336384, Note_on_c, 0, 75, 110
2, 336508, Note_off_c, 0, 75, 100
2, 336512, Note_on_c, 0, 72, 110
2, 336636, Note_off_c, 0, 72, 100
2, 336640, Note_on_c, 0, 69, 110
2, 336764, Note_off_c, 0, 69, 100
2, 336768, Note_on_c, 0, 72, 110
2, 336892, Note_off_c, 0, 72, 100
2, 336896, Note_on_c, 0, 75, 110
2, 337020, Note_off_c, 0, 75, 100
2, 337024, Note_on_c, 0, 81, 110
2, 337148, Note_off_c, 0, 81, 100
2, 337152, Note_on_c, 0, 75, 110
2, 337276, Note_off_c, 0, 75, 100
2, 337280, Note_on_c, 0, 72, 110
2, 337404, Note_off_c, 0, 72, 100
2, 337408, Note_on_c, 0, 69, 110
2, 337532, Note_off_c, 0, 69, 100
2, 337536, Note_on_c, 0, 75, 110
2, 337660, Note_off_c, 0, 75, 100
2, 337664, Note_on_c, 0, 72, 110
2, 337788, Note_off_c, 0, 72, 100
2, 337792, Note_on_c, 0, 69, 110
2, 337916, Note_off_c, 0, 69, 100
2, 338304, Note_on_c, 0, 71, 110
2, 338428, Note_off_c, 0, 71, 100
2, 338432, Note_on_c, 0, 74, 110
2, 338556, Note_off_c, 0, 74, 100
2, 338560, Note_on_c, 0, 79, 110
2, 338684, Note_off_c, 0, 79, 100
2, 338688, Note_on_c, 0, 74, 110
2, 338812, Note_off_c, 0, 74, 100
2, 338816, Note_on_c, 0, 71, 110
2, 338940, Note_off_c, 0, 71, 100
2, 338944, Note_on_c, 0, 67, 110
2, 339068, Note_off_c, 0, 67, 100
2, 339072, Note_on_c, 0, 77, 80
2, 339196, Note_off_c, 0, 77, 100
2, 339200, Note_on_c, 0, 74, 80
2, 339324, Note_off_c, 0, 74, 100
2, 339328, Note_on_c, 0, 67, 80
2, 339452, Note_off_c, 0, 67, 100
2, 339456, Note_on_c, 0, 77, 80
2, 339580, Note_off_c, 0, 77, 100
2, 339584, Note_on_c, 0, 74, 80
2, 339708, Note_off_c, 0, 74, 100
2, 339712, Note_on_c, 0, 67, 80
2, 339836, Note_off_c, 0, 67, 100
2, 339840, Note_on_c, 0, 75, 80
2, 339964, Note_off_c, 0, 75, 100
2, 339968, Note_on_c, 0, 74, 80
2, 340092, Note_off_c, 0, 74, 100
2, 340096, Note_on_c, 0, 67, 80
2, 340220, Note_off_c, 0, 67, 100
2, 340224, Note_on_c, 0, 75, 80
2, 340348, Note_off_c, 0, 75, 100
2, 340352, Note_on_c, 0, 72, 80
2, 340476, Note_off_c, 0, 72, 100
2, 340480, Note_on_c, 0, 67, 80
2, 340604, Note_off_c, 0, 67, 100
2, 340608, Note_on_c, 0, 74, 80
2, 340732, Note_off_c, 0, 74, 100
2, 340736, Note_on_c, 0, 72, 80
2, 340860, Note_off_c, 0, 72, 100
2, 340864, Note_on_c, 0, 69, 80
2, 340988, Note_off_c, 0, 69, 100
2, 341376, Note_on_c, 0, 59, 110
2, 341500, Note_off_c, 0, 59, 100
2, 341504, Note_on_c, 0, 62, 110
2, 341628, Note_off_c, 0, 62, 100
2, 341632, Note_on_c, 0, 67, 110
2, 341756, Note_off_c, 0, 67, 100
2, 341760, Note_on_c, 0, 62, 110
2, 341884, Note_off_c, 0, 62, 100
2, 341888, Note_on_c, 0, 59, 110
2, 342012, Note_off_c, 0, 59, 100
2, 342016, Note_on_c, 0, 55, 110
2, 342140, Note_off_c, 0, 55, 100
2, 342144, Note_on_c, 0, 65, 80
2, 342268, Note_off_c, 0, 65, 100
2, 342272, Note_on_c, 0, 59, 80
2, 342396, Note_off_c, 0, 59, 100
2, 342400, Note_on_c, 0, 55, 80
2, 342524, Note_off_c, 0, 55, 100
2, 342528, Note_on_c, 0, 65, 80
2, 342652, Note_off_c, 0, 65, 100
2, 342656, Note_on_c, 0, 62, 80
2, 342780, Note_off_c, 0, 62, 100
2, 342784, Note_on_c, 0, 55, 80
2, 342908, Note_off_c, 0, 55, 100
2, 342912, Note_on_c, 0, 63, 80
2, 343036, Note_off_c, 0, 63, 100
2, 343040, Note_on_c, 0, 62, 80
2, 343164, Note_off_c, 0, 62, 100
2, 343168, Note_on_c, 0, 55, 80
2, 343292, Note_off_c, 0, 55, 100
2, 343296, Note_on_c, 0, 63, 80
2, 343420, Note_off_c, 0, 63, 100
2, 343424, Note_on_c, 0, 60, 80
2, 343548, Note_off_c, 0, 60, 100
2, 343552, Note_on_c, 0, 55, 80
2, 343676, Note_off_c, 0, 55, 100
2, 343680, Note_on_c, 0, 62, 80
2, 343804, Note_off_c, 0, 62, 100
2, 343808, Note_on_c, 0, 60, 80
2, 343932, Note_off_c, 0, 60, 100
2, 343936, Note_on_c, 0, 57, 80
2, 344060, Note_off_c, 0, 57, 100
2, 344064, Note_on_c, 0, 62, 80
2, 344188, Note_off_c, 0, 62, 100
2, 344192, Note_on_c, 0, 59, 80
2, 344316, Note_off_c, 0, 59, 100
2, 344320, Note_on_c, 0, 55, 80
2, 344444, Note_off_c, 0, 55, 100
2, 344448, Note_on_c, 0, 60, 80
2, 344572, Note_off_c, 0, 60, 100
2, 344576, Note_on_c, 0, 55, 80
2, 344700, Note_off_c, 0, 55, 100
2, 344704, Note_on_c, 0, 51, 80
2, 344828, Note_off_c, 0, 51, 100
2, 344832, Note_on_c, 0, 59, 79
2, 344956, Note_off_c, 0, 59, 100
2, 344960, Note_on_c, 0, 55, 79
2, 345084, Note_off_c, 0, 55, 100
2, 345088, Note_on_c, 0, 50, 78
2, 345212, Note_off_c, 0, 50, 100
2, 345216, Note_on_c, 0, 57, 78
2, 345340, Note_off_c, 0, 57, 100
2, 345344, Note_on_c, 0, 51, 77
2, 345468, Note_off_c, 0, 51, 100
2, 345472, Note_on_c, 0, 48, 77
2, 345596, Note_off_c, 0, 48, 100
2, 345600, Note_on_c, 0, 55, 76
2, 345724, Note_off_c, 0, 55, 100
2, 345728, Note_on_c, 0, 50, 76
2, 345852, Note_off_c, 0, 50, 100
2, 345856, Note_on_c, 0, 47, 75
2, 345980, Note_off_c, 0, 47, 100
2, 345984, Note_on_c, 0, 54, 75
2, 346108, Note_off_c, 0, 54, 100
2, 346112, Note_on_c, 0, 51, 74
2, 346236, Note_off_c, 0, 51, 100
2, 346240, Note_on_c, 0, 45, 74
2, 346364, Note_off_c, 0, 45, 100
2, 346368, Note_on_c, 0, 55, 73
2, 346492, Note_off_c, 0, 55, 100
2, 346496, Note_on_c, 0, 50, 73
2, 346620, Note_off_c, 0, 50, 100
2, 346624, Note_on_c, 0, 47, 72
2, 346748, Note_off_c, 0, 47, 100
2, 346752, Note_on_c, 0, 54, 72
2, 346876, Note_off_c, 0, 54, 100
2, 346880, Note_on_c, 0, 51, 71
2, 347004, Note_off_c, 0, 51, 100
2, 347008, Note_on_c, 0, 45, 71
2, 347132, Note_off_c, 0, 45, 100
2, 347136, Note_on_c, 0, 55, 70
2, 347136, Note_on_c, 0, 50, 70
2, 347136, Note_on_c, 0, 47, 70
2, 348764, Note_off_c, 0, 47, 100
2, 348764, Note_off_c, 0, 50, 100
2, 348764, Note_off_c, 0, 55, 100
2, 348768, Note_on_c, 0, 50, 70
2, 348860, Note_off_c, 0, 50, 100
2, 348864, Note_on_c, 0, 52, 70
2, 348956, Note_off_c, 0, 52, 100
2, 348960, Note_on_c, 0, 54, 70
2, 349052, Note_off_c, 0, 54, 100
2, 349056, Note_on_c, 0, 55, 70
2, 349148, Note_off_c, 0, 55, 100
2, 349152, Note_on_c, 0, 50, 70
2, 349244, Note_off_c, 0, 50, 100
2, 349248, Note_on_c, 0, 52, 70
2, 349340, Note_off_c, 0, 52, 100
2, 349344, Note_on_c, 0, 54, 70
2, 349436, Note_off_c, 0, 54, 100
2, 349440, Note_on_c, 0, 55, 70
2, 349532, Note_off_c, 0, 55, 100
2, 349536, Note_on_c, 0, 50, 70
2, 349628, Note_off_c, 0, 50, 100
2, 349632, Note_on_c, 0, 52, 70
2, 349724, Note_off_c, 0, 52, 100
2, 349728, Note_on_c, 0, 54, 70
2, 349820, Note_off_c, 0, 54, 100
2, 349824, Note_on_c, 0, 55, 70
2, 349916, Note_off_c, 0, 55, 100
2, 349920, Note_on_c, 0, 50, 70
2, 350012, Note_off_c, 0, 50, 100
2, 350016, Note_on_c, 0, 52, 70
2, 350108, Note_off_c, 0, 52, 100
2, 350112, Note_on_c, 0, 54, 70
2, 350204, Note_off_c, 0, 54, 100
2, 350208, Note_on_c, 0, 55, 70
2, 351836, Note_off_c, 0, 55, 100
2, 351840, Note_on_c, 0, 54, 70
2, 351932, Note_off_c, 0, 54, 100
2, 351936, Note_on_c, 0, 55, 70
2, 352028, Note_off_c, 0, 55, 100
2, 352032, Note_on_c, 0, 57, 70
2, 352124, Note_off_c, 0, 57, 100
2, 352128, Note_on_c, 0, 59, 70
2, 352220, Note_off_c, 0, 59, 100
2, 352224, Note_on_c, 0, 54, 70
2, 352316, Note_off_c, 0, 54, 100
2, 352320, Note_on_c, 0, 55, 70
2, 352412, Note_off_c, 0, 55, 100
2, 352416, Note_on_c, 0, 57, 70
2, 352508, Note_off_c, 0, 57, 100
2, 352512, Note_on_c, 0, 59, 70
2, 352604, Note_off_c, 0, 59, 100
2, 352608, Note_on_c, 0, 54, 70
2, 352700, Note_off_c, 0, 54, 100
2, 352704, Note_on_c, 0, 55, 70
2, 352796, Note_off_c, 0, 55, 100
2, 352800, Note_on_c, 0, 57, 70
2, 352892, Note_off_c, 0, 57, 100
2, 352896, Note_on_c, 0, 59, 70
2, 352988, Note_off_c, 0, 59, 100
2, 352992, Note_on_c, 0, 54, 70
2, 353084, Note_off_c, 0, 54, 100
2, 353088, Note_on_c, 0, 55, 70
2, 353180, Note_off_c, 0, 55, 100
2, 353184, Note_on_c, 0, 57, 70
2, 353276, Note_off_c, 0, 57, 100
2, 353280, Note_on_c, 0, 59, 70
2, 353468, Note_off_c, 0, 59, 100
2, 353856, Note_on_c, 0, 59, 72
2, 353948, Note_off_c, 0, 59, 100
2, 353952, Note_on_c, 0, 60, 73
2, 354044, Note_off_c, 0, 60, 100
2, 354048, Note_on_c, 0, 62, 73
2, 354236, Note_off_c, 0, 62, 100
2, 354624, Note_on_c, 0, 62, 76
2, 354684, Note_off_c, 0, 62, 100
2, 354688, Note_on_c, 0, 64, 76
2, 354748, Note_off_c, 0, 64, 100
2, 354752, Note_on_c, 0, 66, 76
2, 354812, Note_off_c, 0, 66, 100
2, 354816, Note_on_c, 0, 67, 76
2, 355004, Note_off_c, 0, 67, 100
2, 355392, Note_on_c, 0, 67, 79
2, 355484, Note_off_c, 0, 67, 100
2, 355488, Note_on_c, 0, 69, 79
2, 355580, Note_off_c, 0, 69, 100
2, 355584, Note_on_c, 0, 71, 80
2, 355772, Note_off_c, 0, 71, 100
2, 355776, Note_on_c, 0, 71, 81
2, 355868, Note_off_c, 0, 71, 100
2, 355872, Note_on_c, 0, 72, 81
2, 355964, Note_off_c, 0, 72, 100
2, 355968, Note_on_c, 0, 74, 82
2, 356156, Note_off_c, 0, 74, 100
2, 356160, Note_on_c, 0, 74, 82
2, 356220, Note_off_c, 0, 74, 100
2, 356224, Note_on_c, 0, 76, 83
2, 356284, Note_off_c, 0, 76, 100
2, 356288, Note_on_c, 0, 78, 83
2, 356348, Note_off_c, 0, 78, 100
2, 356352, Note_on_c, 0, 79, 83
2, 356540, Note_off_c, 0, 79, 100
2, 356928, Note_on_c, 0, 62, 86
2, 356988, Note_off_c, 0, 62, 100
2, 356992, Note_on_c, 0, 64, 86
2, 357052, Note_off_c, 0, 64, 100
2, 357056, Note_on_c, 0, 66, 86
2, 357116, Note_off_c, 0, 66, 100
2, 357120, Note_on_c, 0, 67, 87
2, 357308, Note_off_c, 0, 67, 100
2, 357696, Note_on_c, 0, 67, 89
2, 357788, Note_off_c, 0, 67, 100
2, 357792, Note_on_c, 0, 69, 90
2, 357884, Note_off_c, 0, 69, 100
2, 357888, Note_on_c, 0, 71, 90
2, 358076, Note_off_c, 0, 71, 100
2, 358464, Note_on_c, 0, 71, 93
2, 358556, Note_off_c, 0, 71, 100
2, 358560, Note_on_c, 0, 72, 93
2, 358652, Note_off_c, 0, 72, 100
2, 358656, Note_on_c, 0, 74, 94
2, 358844, Note_off_c, 0, 74, 100
2, 358848, Note_on_c, 0, 74, 95
2, 358908, Note_off_c, 0, 74, 100
2, 358912, Note_on_c, 0, 76, 95
2, 358972, Note_off_c, 0, 76, 100
2, 358976, Note_on_c, 0, 78, 95
2, 359036, Note_off_c, 0, 78, 100
2, 359040, Note_on_c, 0, 79, 95
2, 359228, Note_off_c, 0, 79, 100
2, 359232, Note_on_c, 0, 79, 96
2, 359324, Note_off_c, 0, 79, 100
2, 359328, Note_on_c, 0, 81, 97
2, 359420, Note_off_c, 0, 81, 100
2, 359424, Note_on_c, 0, 83, 97
2, 359612, Note_off_c, 0, 83, 100
2, 360000, Note_on_c, 0, 74, 100
2, 360060, Note_off_c, 0, 74, 100
2, 360064, Note_on_c, 0, 76, 100
2, 360124, Note_off_c, 0, 76, 100
2, 360128, Note_on_c, 0, 78, 100
2, 360188, Note_off_c, 0, 78, 100
2, 360192, Note_on_c, 0, 79, 101
2, 360572, Note_off_c, 0, 79, 100
2, 360768, Note_on_c, 0, 79, 103
2, 360860, Note_off_c, 0, 79, 100
2, 360864, Note_on_c, 0, 81, 104
2, 360956, Note_off_c, 0, 81, 100
2, 360960, Note_on_c, 0, 83, 104
2, 361340, Note_off_c, 0, 83, 100
2, 361536, Note_on_c, 0, 79, 107
2, 361628, Note_off_c, 0, 79, 100
2, 361632, Note_on_c, 0, 81, 107
2, 361724, Note_off_c, 0, 81, 100
2, 361728, Note_on_c, 0, 83, 107
2, 361916, Note_off_c, 0, 83, 100
2, 361920, Note_on_c, 0, 83, 108
2, 362012, Note_off_c, 0, 83, 100
2, 362016, Note_on_c, 0, 84, 109
2, 362108, Note_off_c, 0, 84, 100
2, 362112, Note_on_c, 0, 86, 109
2, 362300, Note_off_c, 0, 86, 100
2, 362304, Note_on_c, 0, 86, 110
2, 362396, Note_off_c, 0, 86, 100
2, 362400, Note_on_c, 0, 88, 110
2, 362492, Note_off_c, 0, 88, 100
2, 362496, Note_on_c, 0, 89, 110
2, 362876, Note_off_c, 0, 89, 100
2, 363072, Note_on_c, 0, 86, 110
2, 363164, Note_off_c, 0, 86, 100
2, 363168, Note_on_c, 0, 88, 110
2, 363260, Note_off_c, 0, 88, 100
2, 363264, Note_on_c, 0, 89, 110
2, 363644, Note_off_c, 0, 89, 100
2, 363840, Note_on_c, 0, 86, 110
2, 363932, Note_off_c, 0, 86, 100
2, 363936, Note_on_c, 0, 88, 110
2, 364028, Note_off_c, 0, 88, 100
2, 364032, Note_on_c, 0, 89, 110
2, 364220, Note_off_c, 0, 89, 100
2, 364224, Note_on_c, 0, 86, 110
2, 364316, Note_off_c, 0, 86, 100
2, 364320, Note_on_c, 0, 88, 110
2, 364412, Note_off_c, 0, 88, 100
2, 364416, Note_on_c, 0, 89, 110
2, 364604, Note_off_c, 0, 89, 100
2, 364608, Note_on_c, 0, 86, 110
2, 364700, Note_off_c, 0, 86, 100
2, 364704, Note_on_c, 0, 88, 110
2, 364796, Note_off_c, 0, 88, 100
2, 364800, Note_on_c, 0, 89, 110
2, 364988, Note_off_c, 0, 89, 100
2, 364992, Note_on_c, 0, 86, 110
2, 365084, Note_off_c, 0, 86, 100
2, 365088, Note_on_c, 0, 88, 110
2, 365180, Note_off_c, 0, 88, 100
2, 365184, Note_on_c, 0, 89, 110
2, 365372, Note_off_c, 0, 89, 100
2, 365376, Note_on_c, 0, 86, 110
2, 365468, Note_off_c, 0, 86, 100
2, 365472, Note_on_c, 0, 88, 110
2, 365564, Note_off_c, 0, 88, 100
2, 365568, Note_on_c, 0, 89, 122
2, 365660, Note_off_c, 0, 89, 100
2, 365664, Note_on_c, 0, 88, 110
2, 365756, Note_off_c, 0, 88, 100
2, 365760, Note_on_c, 0, 86, 110
2, 365852, Note_off_c, 0, 86, 100
2, 365856, Note_on_c, 0, 84, 110
2, 365948, Note_off_c, 0, 84, 100
2, 365952, Note_on_c, 0, 83, 110
2, 366044, Note_off_c, 0, 83, 100
2, 366048, Note_on_c, 0, 84, 110
2, 366140, Note_off_c, 0, 84, 100
2, 366144, Note_on_c, 0, 86, 110
2, 366236, Note_off_c, 0, 86, 100
2, 366240, Note_on_c, 0, 88, 110
2, 366332, Note_off_c, 0, 88, 100
2, 366336, Note_on_c, 0, 89, 124
2, 366428, Note_off_c, 0, 89, 100
2, 366432, Note_on_c, 0, 88, 110
2, 366524, Note_off_c, 0, 88, 100
2, 366528, Note_on_c, 0, 86, 110
2, 366620, Note_off_c, 0, 86, 100
2, 366624, Note_on_c, 0, 84, 110
2, 366716, Note_off_c, 0, 84, 100
2, 366720, Note_on_c, 0, 83, 110
2, 366812, Note_off_c, 0, 83, 100
2, 366816, Note_on_c, 0, 84, 110
2, 366908, Note_off_c, 0, 84, 100
2, 366912, Note_on_c, 0, 86, 110
2, 367004, Note_off_c, 0, 86, 100
2, 367008, Note_on_c, 0, 88, 110
2, 367100, Note_off_c, 0, 88, 100
2, 367104, Note_on_c, 0, 89, 120
2, 367292, Note_off_c, 0, 89, 100
2, 367296, Note_on_c, 0, 88, 120
2, 367388, Note_off_c, 0, 88, 100
2, 367392, Note_on_c, 0, 86, 120
2, 367484, Note_off_c, 0, 86, 100
2, 367488, Note_on_c, 0, 84, 120
2, 367580, Note_off_c, 0, 84, 100
2, 367584, Note_on_c, 0, 83, 120
2, 367676, Note_off_c, 0, 83, 100
2, 367680, Note_on_c, 0, 81, 120
2, 367772, Note_off_c, 0, 81, 100
2, 367776, Note_on_c, 0, 79, 120
2, 367868, Note_off_c, 0, 79, 100
2, 367872, Note_on_c, 0, 77, 120
2, 367964, Note_off_c, 0, 77, 100
2, 367968, Note_on_c, 0, 76, 120
2, 368060, Note_off_c, 0, 76, 100
2, 368064, Note_on_c, 0, 74, 120
2, 368156, Note_off_c, 0, 74, 100
2, 368160, Note_on_c, 0, 72, 120
2, 368252, Note_off_c, 0, 72, 100
2, 368256, Note_on_c, 0, 71, 120
2, 368348, Note_off_c, 0, 71, 100
2, 368352, Note_on_c, 0, 69, 120
2, 368444, Note_off_c, 0, 69, 100
2, 368448, Note_on_c, 0, 67, 120
2, 368540, Note_off_c, 0, 67, 100
2, 368544, Note_on_c, 0, 65, 120
2, 368636, Note_off_c, 0, 65, 100
2, 368640, Note_on_c, 0, 64, 120
2, 368828, Note_off_c, 0, 64, 100
2, 368832, Note_on_c, 0, 52, 80
2, 368832, Note_on_c, 0, 48, 80
2, 369020, Note_off_c, 0, 52, 100
2, 369020, Note_off_c, 0, 48, 100
2, 369024, Note_on_c, 0, 52, 80
2, 369024, Note_on_c, 0, 48, 80
2, 369212, Note_off_c, 0, 52, 100
2, 369212, Note_off_c, 0, 48, 100
2, 369216, Note_on_c, 0, 52, 80
2, 369216, Note_on_c, 0, 48, 80
2, 369404, Note_off_c, 0, 52, 100
2, 369404, Note_off_c, 0, 48, 100
2, 369408, Note_on_c, 0, 52, 80
2, 369408, Note_on_c, 0, 48, 80
2, 369596, Note_off_c, 0, 52, 100
2, 369596, Note_off_c, 0, 48, 100
2, 369600, Note_on_c, 0, 52, 80
2, 369600, Note_on_c, 0, 48, 80
2, 369788, Note_off_c, 0, 52, 100
2, 369788, Note_off_c, 0, 48, 100
2, 369792, Note_on_c, 0, 52, 80
2, 369792, Note_on_c, 0, 48, 80
2, 369980, Note_off_c, 0, 52, 100
2, 369980, Note_off_c, 0, 48, 100
2, 369984, Note_on_c, 0, 52, 80
2, 369984, Note_on_c, 0, 48, 80
2, 370172, Note_off_c, 0, 52, 100
2, 370172, Note_off_c, 0, 48, 100
2, 370176, Note_on_c, 0, 52, 80
2, 370176, Note_on_c, 0, 48, 80
2, 370364, Note_off_c, 0, 52, 100
2, 370364, Note_off_c, 0, 48, 100
2, 370368, Note_on_c, 0, 52, 80
2, 370368, Note_on_c, 0, 48, 80
2, 370556, Note_off_c, 0, 52, 100
2, 370556, Note_off_c, 0, 48, 100
2, 370560, Note_on_c, 0, 52, 80
2, 370560, Note_on_c, 0, 48, 80
2, 370748, Note_off_c, 0, 52, 100
2, 370748, Note_off_c, 0, 48, 100
2, 370752, Note_on_c, 0, 52, 80
2, 370752, Note_on_c, 0, 48, 80
2, 370940, Note_off_c, 0, 52, 100
2, 370940, Note_off_c, 0, 48, 100
2, 370944, Note_on_c, 0, 52, 80
2, 370944, Note_on_c, 0, 48, 80
2, 371132, Note_off_c, 0, 52, 100
2, 371132, Note_off_c, 0, 48, 100
2, 371136, Note_on_c, 0, 52, 80
2, 371136, Note_on_c, 0, 48, 80
2, 371324, Note_off_c, 0, 52, 100
2, 371324, Note_off_c, 0, 48, 100
2, 371328, Note_on_c, 0, 54, 80
2, 371328, Note_on_c, 0, 50, 80
2, 371516, Note_off_c, 0, 54, 100
2, 371516, Note_off_c, 0, 50, 100
2, 371520, Note_on_c, 0, 54, 80
2, 371520, Note_on_c, 0, 50, 80
2, 371708, Note_off_c, 0, 54, 100
2, 371708, Note_off_c, 0, 50, 100
2, 371712, Note_on_c, 0, 55, 80
2, 371712, Note_on_c, 0, 50, 80
2, 372284, Note_off_c, 0, 55, 100
2, 372284, Note_off_c, 0, 50, 100
2, 372288, Note_on_c, 0, 59, 80
2, 372380, Note_off_c, 0, 59, 100
2, 372384, Note_on_c, 0, 57, 80
2, 372476, Note_off_c, 0, 57, 100
2, 372480, Note_on_c, 0, 55, 80
2, 372668, Note_off_c, 0, 55, 100
2, 373248, Note_on_c, 0, 85, 80
2, 373340, Note_off_c, 0, 85, 100
2, 373344, Note_on_c, 0, 86, 80
2, 373724, Note_off_c, 0, 86, 100
2, 373728, Note_on_c, 0, 84, 80
2, 373820, Note_off_c, 0, 84, 100
2, 373824, Note_on_c, 0, 83, 80
2, 373916, Note_off_c, 0, 83, 100
2, 373920, Note_on_c, 0, 81, 80
2, 374012, Note_off_c, 0, 81, 100
2, 374016, Note_on_c, 0, 79, 80
2, 374396, Note_off_c, 0, 79, 100
2, 374784, Note_on_c, 0, 50, 80
2, 374784, Note_on_c, 0, 46, 80
2, 374972, Note_off_c, 0, 50, 100
2, 374972, Note_off_c, 0, 46, 100
2, 374976, Note_on_c, 0, 50, 80
2, 374976, Note_on_c, 0, 46, 80
2, 375164, Note_off_c, 0, 50, 100
2, 375164, Note_off_c, 0, 46, 100
2, 375168, Note_on_c, 0, 50, 80
2, 375168, Note_on_c, 0, 46, 80
2, 375356, Note_off_c, 0, 50, 100
2, 375356, Note_off_c, 0, 46, 100
2, 375360, Note_on_c, 0, 50, 80
2, 375360, Note_on_c, 0, 46, 80
2, 375548, Note_off_c, 0, 50, 100
2, 375548, Note_off_c, 0, 46, 100
2, 375552, Note_on_c, 0, 50, 80
2, 375552, Note_on_c, 0, 46, 80
2, 375740, Note_off_c, 0, 50, 100
2, 375740, Note_off_c, 0, 46, 100
2, 375744, Note_on_c, 0, 50, 80
2, 375744, Note_on_c, 0, 46, 80
2, 375932, Note_off_c, 0, 50, 100
2, 375932, Note_off_c, 0, 46, 100
2, 375936, Note_on_c, 0, 50, 80
2, 375936, Note_on_c, 0, 46, 80
2, 376124, Note_off_c, 0, 50, 100
2, 376124, Note_off_c, 0, 46, 100
2, 376128, Note_on_c, 0, 50, 80
2, 376128, Note_on_c, 0, 46, 80
2, 376316, Note_off_c, 0, 50, 100
2, 376316, Note_off_c, 0, 46, 100
2, 376320, Note_on_c, 0, 50, 80
2, 376320, Note_on_c, 0, 46, 80
2, 376508, Note_off_c, 0, 50, 100
2, 376508, Note_off_c, 0, 46, 100
2, 376512, Note_on_c, 0, 50, 80
2, 376512, Note_on_c, 0, 46, 80
2, 376700, Note_off_c, 0, 50, 100
2, 376700, Note_off_c, 0, 46, 100
2, 376704, Note_on_c, 0, 50, 80
2, 376704, Note_on_c, 0, 46, 80
2, 376892, Note_off_c, 0, 50, 100
2, 376892, Note_off_c, 0, 46, 100
2, 376896, Note_on_c, 0, 50, 80
2, 376896, Note_on_c, 0, 46, 80
2, 377084, Note_off_c, 0, 50, 100
2, 377084, Note_off_c, 0, 46, 100
2, 377088, Note_on_c, 0, 50, 80
2, 377088, Note_on_c, 0, 46, 80
2, 377276, Note_off_c, 0, 50, 100
2, 377276, Note_off_c, 0, 46, 100
2, 377280, Note_on_c, 0, 50, 80
2, 377280, Note_on_c, 0, 46, 80
2, 377468, Note_off_c, 0, 50, 100
2, 377468, Note_off_c, 0, 46, 100
2, 377472, Note_on_c, 0, 52, 80
2, 377472, Note_on_c, 0, 48, 80
2, 377660, Note_off_c, 0, 52, 100
2, 377660, Note_off_c, 0, 48, 100
2, 377664, Note_on_c, 0, 52, 80
2, 377664, Note_on_c, 0, 48, 80
2, 377852, Note_off_c, 0, 52, 100
2, 377852, Note_off_c, 0, 48, 100
2, 377856, Note_on_c, 0, 53, 80
2, 377856, Note_on_c, 0, 48, 80
2, 378428, Note_off_c, 0, 53, 100
2, 378428, Note_off_c, 0, 48, 100
2, 378432, Note_on_c, 0, 57, 80
2, 378524, Note_off_c, 0, 57, 100
2, 378528, Note_on_c, 0, 55, 80
2, 378620, Note_off_c, 0, 55, 100
2, 378624, Note_on_c, 0, 53, 80
2, 378812, Note_off_c, 0, 53, 100
2, 379392, Note_on_c, 0, 83, 80
2, 379484, Note_off_c, 0, 83, 100
2, 379488, Note_on_c, 0, 84, 80
2, 379868, Note_off_c, 0, 84, 100
2, 379872, Note_on_c, 0, 82, 80
2, 379964, Note_off_c, 0, 82, 100
2, 379968, Note_on_c, 0, 80, 80
2, 380060, Note_off_c, 0, 80, 100
2, 380064, Note_on_c, 0, 79, 80
2, 380156, Note_off_c, 0, 79, 100
2, 380160, Note_on_c, 0, 77, 80
2, 380540, Note_off_c, 0, 77, 100
2, 380928, Note_on_c, 0, 88, 80
2, 381020, Note_off_c, 0, 88, 100
2, 381024, Note_on_c, 0, 89, 80
2, 382076, Note_off_c, 0, 89, 100
2, 382080, Note_on_c, 0, 89, 91
2, 382172, Note_off_c, 0, 89, 100
2, 382176, Note_on_c, 0, 87, 92
2, 382268, Note_off_c, 0, 87, 100
2, 382272, Note_on_c, 0, 86, 93
2, 382364, Note_off_c, 0, 86, 100
2, 382368, Note_on_c, 0, 84, 94
2, 382460, Note_off_c, 0, 84, 100
2, 382464, Note_on_c, 0, 83, 95
2, 382556, Note_off_c, 0, 83, 100
2, 382560, Note_on_c, 0, 84, 96
2, 382652, Note_off_c, 0, 84, 100
2, 382656, Note_on_c, 0, 86, 97
2, 382748, Note_off_c, 0, 86, 100
2, 382752, Note_on_c, 0, 87, 98
2, 382844, Note_off_c, 0, 87, 100
2, 382848, Note_on_c, 0, 89, 99
2, 382940, Note_off_c, 0, 89, 100
2, 382944, Note_on_c, 0, 87, 100
2, 383036, Note_off_c, 0, 87, 100
2, 383040, Note_on_c, 0, 86, 101
2, 383132, Note_off_c, 0, 86, 100
2, 383136, Note_on_c, 0, 84, 102
2, 383228, Note_off_c, 0, 84, 100
2, 383232, Note_on_c, 0, 83, 103
2, 383324, Note_off_c, 0, 83, 100
2, 383328, Note_on_c, 0, 84, 104
2, 383420, Note_off_c, 0, 84, 100
2, 383424, Note_on_c, 0, 86, 105
2, 383516, Note_off_c, 0, 86, 100
2, 383520, Note_on_c, 0, 87, 106
2, 383612, Note_off_c, 0, 87, 100
2, 383616, Note_on_c, 0, 89, 107
2, 383708, Note_off_c, 0, 89, 100
2, 383712, Note_on_c, 0, 87, 108
2, 383804, Note_off_c, 0, 87, 100
2, 383808, Note_on_c, 0, 86, 109
2, 383900, Note_off_c, 0, 86, 100
2, 383904, Note_on_c, 0, 84, 110
2, 383996, Note_off_c, 0, 84, 100
2, 384000, Note_on_c, 0, 83, 110
2, 384092, Note_off_c, 0, 83, 100
2, 384096, Note_on_c, 0, 84, 110
2, 384188, Note_off_c, 0, 84, 100
2, 384192, Note_on_c, 0, 86, 110
2, 384284, Note_off_c, 0, 86, 100
2, 384288, Note_on_c, 0, 87, 110
2, 384380, Note_off_c, 0, 87, 100
2, 384384, Note_on_c, 0, 89, 110
2, 384476, Note_off_c, 0, 89, 100
2, 384480, Note_on_c, 0, 87, 110
2, 384572, Note_off_c, 0, 87, 100
2, 384576, Note_on_c, 0, 86, 110
2, 384668, Note_off_c, 0, 86, 100
2, 384672, Note_on_c, 0, 84, 110
2, 384764, Note_off_c, 0, 84, 100
2, 384768, Note_on_c, 0, 83, 110
2, 384860, Note_off_c, 0, 83, 100
2, 384864, Note_on_c, 0, 80, 110
2, 384956, Note_off_c, 0, 80, 100
2, 384960, Note_on_c, 0, 79, 110
2, 385052, Note_off_c, 0, 79, 100
2, 385056, Note_on_c, 0, 77, 110
2, 385148, Note_off_c, 0, 77, 100
2, 385152, Note_on_c, 0, 75, 110
2, 385244, Note_off_c, 0, 75, 100
2, 385248, Note_on_c, 0, 74, 110
2, 385340, Note_off_c, 0, 74, 100
2, 385344, Note_on_c, 0, 72, 110
2, 385436, Note_off_c, 0, 72, 100
2, 385440, Note_on_c, 0, 71, 110
2, 385532, Note_off_c, 0, 71, 100
2, 385536, Note_on_c, 0, 72, 110
2, 385724, Note_off_c, 0, 72, 100
2, 385920, Note_on_c, 0, 67, 100
2, 386108, Note_off_c, 0, 67, 100
2, 386304, Note_on_c, 0, 63, 94
2, 386492, Note_off_c, 0, 63, 100
2, 386688, Note_on_c, 0, 60, 87
2, 386876, Note_off_c, 0, 60, 100
2, 387072, Note_on_c, 0, 56, 81
2, 388604, Note_off_c, 0, 56, 100
2, 388608, Note_on_c, 0, 73, 80
2, 388796, Note_off_c, 0, 73, 100
2, 388992, Note_on_c, 0, 68, 80
2, 389180, Note_off_c, 0, 68, 100
2, 389376, Note_on_c, 0, 65, 80
2, 389564, Note_off_c, 0, 65, 100
2, 389760, Note_on_c, 0, 61, 80
2, 389948, Note_off_c, 0, 61, 100
2, 390144, Note_on_c, 0, 58, 80
2, 391676, Note_off_c, 0, 58, 100
2, 391776, Note_on_c, 0, 67, 70
2, 391868, Note_off_c, 0, 67, 100
2, 391872, Note_on_c, 0, 70, 70
2, 391964, Note_off_c, 0, 70, 100
2, 391968, Note_on_c, 0, 75, 70
2, 392060, Note_off_c, 0, 75, 100
2, 392160, Note_on_c, 0, 67, 70
2, 392252, Note_off_c, 0, 67, 100
2, 392256, Note_on_c, 0, 70, 70
2, 392348, Note_off_c, 0, 70, 100
2, 392352, Note_on_c, 0, 75, 70
2, 392444, Note_off_c, 0, 75, 100
2, 392544, Note_on_c, 0, 67, 70
2, 392636, Note_off_c, 0, 67, 100
2, 392640, Note_on_c, 0, 70, 70
2, 392732, Note_off_c, 0, 70, 100
2, 392736, Note_on_c, 0, 75, 70
2, 392828, Note_off_c, 0, 75, 100
2, 392928, Note_on_c, 0, 67, 70
2, 393020, Note_off_c, 0, 67, 100
2, 393024, Note_on_c, 0, 70, 70
2, 393116, Note_off_c, 0, 70, 100
2, 393120, Note_on_c, 0, 75, 70
2, 393212, Note_off_c, 0, 75, 100
2, 393312, Note_on_c, 0, 65, 70
2, 393404, Note_off_c, 0, 65, 100
2, 393408, Note_on_c, 0, 68, 70
2, 393500, Note_off_c, 0, 68, 100
2, 393504, Note_on_c, 0, 75, 70
2, 393596, Note_off_c, 0, 75, 100
2, 393696, Note_on_c, 0, 65, 70
2, 393788, Note_off_c, 0, 65, 100
2, 393792, Note_on_c, 0, 71, 70
2, 393884, Note_off_c, 0, 71, 100
2, 393888, Note_on_c, 0, 74, 70
2, 393980, Note_off_c, 0, 74, 100
2, 394080, Note_on_c, 0, 63, 70
2, 394172, Note_off_c, 0, 63, 100
2, 394176, Note_on_c, 0, 66, 70
2, 394268, Note_off_c, 0, 66, 100
2, 394272, Note_on_c, 0, 74, 70
2, 394364, Note_off_c, 0, 74, 100
2, 394464, Note_on_c, 0, 63, 70
2, 394556, Note_off_c, 0, 63, 100
2, 394560, Note_on_c, 0, 69, 70
2, 394652, Note_off_c, 0, 69, 100
2, 394656, Note_on_c, 0, 72, 70
2, 394748, Note_off_c, 0, 72, 100
2, 394848, Note_on_c, 0, 62, 70
2, 394940, Note_off_c, 0, 62, 100
2, 394944, Note_on_c, 0, 67, 70
2, 395036, Note_off_c, 0, 67, 100
2, 395040, Note_on_c, 0, 72, 70
2, 395132, Note_off_c, 0, 72, 100
2, 395232, Note_on_c, 0, 62, 70
2, 395324, Note_off_c, 0, 62, 100
2, 395328, Note_on_c, 0, 67, 70
2, 395420, Note_off_c, 0, 67, 100
2, 395424, Note_on_c, 0, 72, 70
2, 395516, Note_off_c, 0, 72, 100
2, 395616, Note_on_c, 0, 62, 70
2, 395708, Note_off_c, 0, 62, 100
2, 395712, Note_on_c, 0, 67, 70
2, 395804, Note_off_c, 0, 67, 100
2, 395808, Note_on_c, 0, 71, 70
2, 395900, Note_off_c, 0, 71, 100
2, 396000, Note_on_c, 0, 62, 70
2, 396092, Note_off_c, 0, 62, 100
2, 396096, Note_on_c, 0, 65, 70
2, 396188, Note_off_c, 0, 65, 100
2, 396192, Note_on_c, 0, 71, 70
2, 396284, Note_off_c, 0, 71, 100
2, 396288, Control_c, 0, 64, 127
2, 396288, Note_on_c, 0, 72, 100
2, 396288, Note_on_c, 0, 64, 100
2, 396476, Note_off_c, 0, 72, 100
2, 396476, Note_off_c, 0, 64, 100
2, 396480, Note_on_c, 0, 64, 80
2, 396572, Note_off_c, 0, 64, 100
2, 396576, Note_on_c, 0, 60, 80
2, 396664, Control_c, 0, 64, 0
2, 396668, Note_off_c, 0, 60, 100
2, 396672, Control_c, 0, 64, 127
2, 396672, Note_on_c, 0, 64, 80
2, 396764, Note_off_c, 0, 64, 100
2, 396768, Note_on_c, 0, 60, 80
2, 396860, Note_off_c, 0, 60, 100
2, 396864, Note_on_c, 0, 64, 80
2, 396956, Note_off_c, 0, 64, 100
2, 396960, Note_on_c, 0, 60, 80
2, 397048, Control_c, 0, 64, 0
2, 397052, Note_off_c, 0, 60, 100
2, 397056, Control_c, 0, 64, 127
2, 397056, Note_on_c, 0, 64, 80
2, 397148, Note_off_c, 0, 64, 100
2, 397152, Note_on_c, 0, 60, 80
2, 397244, Note_off_c, 0, 60, 100
2, 397248, Note_on_c, 0, 64, 80
2, 397340, Note_off_c, 0, 64, 100
2, 397344, Note_on_c, 0, 60, 80
2, 397432, Control_c, 0, 64, 0
2, 397436, Note_off_c, 0, 60, 100
2, 397440, Control_c, 0, 64, 127
2, 397440, Note_on_c, 0, 64, 80
2, 397532, Note_off_c, 0, 64, 100
2, 397536, Note_on_c, 0, 60, 80
2, 397628, Note_off_c, 0, 60, 100
2, 397632, Note_on_c, 0, 64, 80
2, 397724, Note_off_c, 0, 64, 100
2, 397728, Note_on_c, 0, 60, 80
2, 397816, Control_c, 0, 64, 0
2, 397820, Note_off_c, 0, 60, 100
2, 397824, Control_c, 0, 64, 127
2, 397824, Note_on_c, 0, 64, 80
2, 397916, Note_off_c, 0, 64, 100
2, 397920, Note_on_c, 0, 60, 80
2, 398012, Note_off_c, 0, 60, 100
2, 398016, Note_on_c, 0, 64, 80
2, 398108, Note_off_c, 0, 64, 100
2, 398112, Note_on_c, 0, 60, 80
2, 398200, Control_c, 0, 64, 0
2, 398204, Note_off_c, 0, 60, 100
2, 398208, Control_c, 0, 64, 127
2, 398208, Note_on_c, 0, 64, 80
2, 398300, Note_off_c, 0, 64, 100
2, 398304, Note_on_c, 0, 60, 80
2, 398396, Note_off_c, 0, 60, 100
2, 398400, Note_on_c, 0, 64, 80
2, 398492, Note_off_c, 0, 64, 100
2, 398496, Note_on_c, 0, 60, 80
2, 398584, Control_c, 0, 64, 0
2, 398588, Note_off_c, 0, 60, 100
2, 398592, Control_c, 0, 64, 127
2, 398592, Note_on_c, 0, 64, 80
2, 398684, Note_off_c, 0, 64, 100
2, 398688, Note_on_c, 0, 60, 80
2, 398780, Note_off_c, 0, 60, 100
2, 398784, Note_on_c, 0, 64, 80
2, 398876, Note_off_c, 0, 64, 100
2, 398880, Note_on_c, 0, 60, 80
2, 398968, Control_c, 0, 64, 0
2, 398972, Note_off_c, 0, 60, 100
2, 398976, Control_c, 0, 64, 127
2, 398976, Note_on_c, 0, 66, 80
2, 399068, Note_off_c, 0, 66, 100
2, 399072, Note_on_c, 0, 62, 80
2, 399164, Note_off_c, 0, 62, 100
2, 399168, Note_on_c, 0, 66, 80
2, 399260, Note_off_c, 0, 66, 100
2, 399264, Note_on_c, 0, 62, 80
2, 399352, Control_c, 0, 64, 0
2, 399356, Note_off_c, 0, 62, 100
2, 399360, Note_on_c, 0, 67, 80
2, 399932, Note_off_c, 0, 67, 100
2, 399936, Note_on_c, 0, 71, 80
2, 400028, Note_off_c, 0, 71, 100
2, 400032, Note_on_c, 0, 69, 80
2, 400124, Note_off_c, 0, 69, 100
2, 400128, Note_on_c, 0, 67, 80
2, 400316, Note_off_c, 0, 67, 100
2, 400896, Note_on_c, 0, 85, 80
2, 400988, Note_off_c, 0, 85, 100
2, 400992, Note_on_c, 0, 86, 80
2, 401372, Note_off_c, 0, 86, 100
2, 401376, Note_on_c, 0, 84, 80
2, 401468, Note_off_c, 0, 84, 100
2, 401472, Note_on_c, 0, 83, 80
2, 401564, Note_off_c, 0, 83, 100
2, 401568, Note_on_c, 0, 81, 80
2, 401660, Note_off_c, 0, 81, 100
2, 401664, Note_on_c, 0, 79, 80
2, 402044, Note_off_c, 0, 79, 100
2, 402432, Control_c, 0, 64, 127
2, 402432, Note_on_c, 0, 65, 80
2, 402524, Note_off_c, 0, 65, 100
2, 402528, Note_on_c, 0, 62, 80
2, 402620, Note_off_c, 0, 62, 100
2, 402624, Note_on_c, 0, 65, 80
2, 402716, Note_off_c, 0, 65, 100
2, 402720, Note_on_c, 0, 62, 80
2, 402808, Control_c, 0, 64, 0
2, 402812, Note_off_c, 0, 62, 100
2, 402816, Control_c, 0, 64, 127
2, 402816, Note_on_c, 0, 65, 80
2, 402908, Note_off_c, 0, 65, 100
2, 402912, Note_on_c, 0, 62, 80
2, 403004, Note_off_c, 0, 62, 100
2, 403008, Note_on_c, 0, 65, 80
2, 403100, Note_off_c, 0, 65, 100
2, 403104, Note_on_c, 0, 62, 80
2, 403192, Control_c, 0, 64, 0
2, 403196, Note_off_c, 0, 62, 100
2, 403200, Control_c, 0, 64, 127
2, 403200, Note_on_c, 0, 65, 80
2, 403292, Note_off_c, 0, 65, 100
2, 403296, Note_on_c, 0, 62, 80
2, 403388, Note_off_c, 0, 62, 100
2, 403392, Note_on_c, 0, 65, 80
2, 403484, Note_off_c, 0, 65, 100
2, 403488, Note_on_c, 0, 62, 80
2, 403576, Control_c, 0, 64, 0
2, 403580, Note_off_c, 0, 62, 100
2, 403584, Control_c, 0, 64, 127
2, 403584, Note_on_c, 0, 65, 80
2, 403676, Note_off_c, 0, 65, 100
2, 403680, Note_on_c, 0, 62, 80
2, 403772, Note_off_c, 0, 62, 100
2, 403776, Note_on_c, 0, 65, 80
2, 403868, Note_off_c, 0, 65, 100
2, 403872, Note_on_c, 0, 62, 80
2, 403960, Control_c, 0, 64, 0
2, 403964, Note_off_c, 0, 62, 100
2, 403968, Control_c, 0, 64, 127
2, 403968, Note_on_c, 0, 65, 80
2, 404060, Note_off_c, 0, 65, 100
2, 404064, Note_on_c, 0, 62, 80
2, 404156, Note_off_c, 0, 62, 100
2, 404160, Note_on_c, 0, 65, 80
2, 404252, Note_off_c, 0, 65, 100
2, 404256, Note_on_c, 0, 62, 80
2, 404344, Control_c, 0, 64, 0
2, 404348, Note_off_c, 0, 62, 100
2, 404352, Control_c, 0, 64, 127
2, 404352, Note_on_c, 0, 65, 80
2, 404444, Note_off_c, 0, 65, 100
2, 404448, Note_on_c, 0, 62, 80
2, 404540, Note_off_c, 0, 62, 100
2, 404544, Note_on_c, 0, 65, 80
2, 404636, Note_off_c, 0, 65, 100
2, 404640, Note_on_c, 0, 62, 80
2, 404728, Control_c, 0, 64, 0
2, 404732, Note_off_c, 0, 62, 100
2, 404736, Control_c, 0, 64, 127
2, 404736, Note_on_c, 0, 65, 80
2, 404828, Note_off_c, 0, 65, 100
2, 404832, Note_on_c, 0, 62, 80
2, 404924, Note_off_c, 0, 62, 100
2, 404928, Note_on_c, 0, 65, 80
2, 405020, Note_off_c, 0, 65, 100
2, 405024, Note_on_c, 0, 62, 80
2, 405112, Control_c, 0, 64, 0
2, 405116, Note_off_c, 0, 62, 100
2, 405120, Control_c, 0, 64, 127
2, 405120, Note_on_c, 0, 68, 80
2, 405212, Note_off_c, 0, 68, 100
2, 405216, Note_on_c, 0, 64, 80
2, 405308, Note_off_c, 0, 64, 100
2, 405312, Note_on_c, 0, 68, 80
2, 405404, Note_off_c, 0, 68, 100
2, 405408, Note_on_c, 0, 64, 80
2, 405496, Control_c, 0, 64, 0
2, 405500, Note_off_c, 0, 64, 100
2, 405504, Note_on_c, 0, 69, 80
2, 406076, Note_off_c, 0, 69, 100
2, 406080, Note_on_c, 0, 72, 80
2, 406172, Note_off_c, 0, 72, 100
2, 406176, Note_on_c, 0, 71, 80
2, 406268, Note_off_c, 0, 71, 100
2, 406272, Note_on_c, 0, 69, 80
2, 406460, Note_off_c, 0, 69, 100
2, 407040, Note_on_c, 0, 87, 80
2, 407132, Note_off_c, 0, 87, 100
2, 407136, Note_on_c, 0, 88, 80
2, 407516, Note_off_c, 0, 88, 100
2, 407520, Note_on_c, 0, 86, 80
2, 407612, Note_off_c, 0, 86, 100
2, 407616, Note_on_c, 0, 84, 80
2, 407708, Note_off_c, 0, 84, 100
2, 407712, Note_on_c, 0, 83, 80
2, 407804, Note_off_c, 0, 83, 100
2, 407808, Note_on_c, 0, 81, 80
2, 408188, Note_off_c, 0, 81, 100
2, 408576, Note_on_c, 0, 83, 80
2, 408620, Note_off_c, 0, 83, 100
2, 408624, Note_on_c, 0, 84, 80
2, 409052, Note_off_c, 0, 84, 100
2, 409056, Note_on_c, 0, 83, 84
2, 409148, Note_off_c, 0, 83, 100
2, 409152, Note_on_c, 0, 81, 85
2, 409244, Note_off_c, 0, 81, 100
2, 409248, Note_on_c, 0, 80, 85
2, 409340, Note_off_c, 0, 80, 100
2, 409344, Note_on_c, 0, 81, 86
2, 409724, Note_off_c, 0, 81, 100
2, 410112, Note_on_c, 0, 83, 93
2, 410156, Note_off_c, 0, 83, 100
2, 410160, Note_on_c, 0, 84, 93
2, 410588, Note_off_c, 0, 84, 100
2, 410592, Note_on_c, 0, 83, 97
2, 410684, Note_off_c, 0, 83, 100
2, 410688, Note_on_c, 0, 81, 98
2, 410780, Note_off_c, 0, 81, 100
2, 410784, Note_on_c, 0, 80, 99
2, 410876, Note_off_c, 0, 80, 100
2, 410880, Note_on_c, 0, 81, 100
2, 410972, Note_off_c, 0, 81, 100
2, 410976, Note_on_c, 0, 80, 100
2, 411068, Note_off_c, 0, 80, 100
2, 411072, Note_on_c, 0, 81, 101
2, 411164, Note_off_c, 0, 81, 100
2, 411168, Note_on_c, 0, 83, 102
2, 411260, Note_off_c, 0, 83, 100
2, 411264, Note_on_c, 0, 84, 103
2, 411356, Note_off_c, 0, 84, 100
2, 411360, Note_on_c, 0, 85, 104
2, 411452, Note_off_c, 0, 85, 100
2, 411456, Note_on_c, 0, 86, 105
2, 411548, Note_off_c, 0, 86, 100
2, 411552, Note_on_c, 0, 87, 105
2, 411644, Note_off_c, 0, 87, 100
2, 411648, Note_on_c, 0, 88, 80
2, 412124, Note_off_c, 0, 88, 100
2, 412128, Note_on_c, 0, 86, 80
2, 412220, Note_off_c, 0, 86, 100
2, 412224, Note_on_c, 0, 84, 80
2, 412316, Note_off_c, 0, 84, 100
2, 412320, Note_on_c, 0, 83, 80
2, 412412, Note_off_c, 0, 83, 100
2, 412416, Note_on_c, 0, 84, 80
2, 412508, Note_off_c, 0, 84, 100
2, 412512, Note_on_c, 0, 83, 80
2, 412604, Note_off_c, 0, 83, 100
2, 412608, Note_on_c, 0, 81, 80
2, 412700, Note_off_c, 0, 81, 100
2, 412704, Note_on_c, 0, 80, 80
2, 412796, Note_off_c, 0, 80, 100
2, 412800, Note_on_c, 0, 81, 80
2, 412892, Note_off_c, 0, 81, 100
2, 412896, Note_on_c, 0, 84, 80
2, 412988, Note_off_c, 0, 84, 100
2, 412992, Note_on_c, 0, 83, 80
2, 413084, Note_off_c, 0, 83, 100
2, 413088, Note_on_c, 0, 81, 80
2, 413180, Note_off_c, 0, 81, 100
2, 413184, Note_on_c, 0, 80, 80
2, 413276, Note_off_c, 0, 80, 100
2, 413280, Note_on_c, 0, 78, 80
2, 413372, Note_off_c, 0, 78, 100
2, 413376, Note_on_c, 0, 76, 80
2, 413468, Note_off_c, 0, 76, 100
2, 413472, Note_on_c, 0, 75, 80
2, 413564, Note_off_c, 0, 75, 100
2, 413568, Note_on_c, 0, 76, 80
2, 413660, Note_off_c, 0, 76, 100
2, 413664, Note_on_c, 0, 78, 80
2, 413756, Note_off_c, 0, 78, 100
2, 413760, Note_on_c, 0, 79, 80
2, 413852, Note_off_c, 0, 79, 100
2, 413856, Note_on_c, 0, 80, 80
2, 413948, Note_off_c, 0, 80, 100
2, 413952, Note_on_c, 0, 81, 80
2, 414044, Note_off_c, 0, 81, 100
2, 414048, Note_on_c, 0, 80, 80
2, 414140, Note_off_c, 0, 80, 100
2, 414144, Note_on_c, 0, 81, 80
2, 414236, Note_off_c, 0, 81, 100
2, 414240, Note_on_c, 0, 83, 80
2, 414332, Note_off_c, 0, 83, 100
2, 414336, Note_on_c, 0, 84, 80
2, 414428, Note_off_c, 0, 84, 100
2, 414432, Note_on_c, 0, 85, 80
2, 414524, Note_off_c, 0, 85, 100
2, 414528, Note_on_c, 0, 86, 80
2, 414620, Note_off_c, 0, 86, 100
2, 414624, Note_on_c, 0, 87, 80
2, 414716, Note_off_c, 0, 87, 100
2, 414720, Note_on_c, 0, 88, 80
2, 414812, Note_off_c, 0, 88, 100
2, 414816, Note_on_c, 0, 87, 80
2, 414908, Note_off_c, 0, 87, 100
2, 414912, Note_on_c, 0, 88, 80
2, 415004, Note_off_c, 0, 88, 100
2, 415008, Note_on_c, 0, 87, 80
2, 415100, Note_off_c, 0, 87, 100
2, 415104, Note_on_c, 0, 88, 80
2, 415196, Note_off_c, 0, 88, 100
2, 415200, Note_on_c, 0, 86, 80
2, 415292, Note_off_c, 0, 86, 100
2, 415296, Note_on_c, 0, 84, 80
2, 415388, Note_off_c, 0, 84, 100
2, 415392, Note_on_c, 0, 83, 80
2, 415484, Note_off_c, 0, 83, 100
2, 415488, Note_on_c, 0, 84, 80
2, 415580, Note_off_c, 0, 84, 100
2, 415584, Note_on_c, 0, 83, 80
2, 415676, Note_off_c, 0, 83, 100
2, 415680, Note_on_c, 0, 81, 80
2, 415772, Note_off_c, 0, 81, 100
2, 415776, Note_on_c, 0, 80, 80
2, 415868, Note_off_c, 0, 80, 100
2, 415872, Note_on_c, 0, 81, 80
2, 415964, Note_off_c, 0, 81, 100
2, 415968, Note_on_c, 0, 84, 80
2, 416060, Note_off_c, 0, 84, 100
2, 416064, Note_on_c, 0, 83, 80
2, 416156, Note_off_c, 0, 83, 100
2, 416160, Note_on_c, 0, 81, 80
2, 416252, Note_off_c, 0, 81, 100
2, 416256, Note_on_c, 0, 80, 80
2, 416348, Note_off_c, 0, 80, 100
2, 416352, Note_on_c, 0, 78, 80
2, 416444, Note_off_c, 0, 78, 100
2, 416448, Note_on_c, 0, 76, 80
2, 416540, Note_off_c, 0, 76, 100
2, 416544, Note_on_c, 0, 75, 80
2, 416636, Note_off_c, 0, 75, 100
2, 416640, Note_on_c, 0, 76, 80
2, 416732, Note_off_c, 0, 76, 100
2, 416736, Note_on_c, 0, 78, 80
2, 416828, Note_off_c, 0, 78, 100
2, 416832, Note_on_c, 0, 79, 80
2, 416924, Note_off_c, 0, 79, 100
2, 416928, Note_on_c, 0, 80, 80
2, 417020, Note_off_c, 0, 80, 100
2, 417024, Note_on_c, 0, 81, 80
2, 417116, Note_off_c, 0, 81, 100
2, 417120, Note_on_c, 0, 80, 80
2, 417212, Note_off_c, 0, 80, 100
2, 417216, Note_on_c, 0, 81, 80
2, 417308, Note_off_c, 0, 81, 100
2, 417312, Note_on_c, 0, 83, 80
2, 417404, Note_off_c, 0, 83, 100
2, 417408, Note_on_c, 0, 84, 80
2, 417500, Note_off_c, 0, 84, 100
2, 417504, Note_on_c, 0, 85, 80
2, 417596, Note_off_c, 0, 85, 100
2, 417600, Note_on_c, 0, 86, 80
2, 417692, Note_off_c, 0, 86, 100
2, 417696, Note_on_c, 0, 87, 80
2, 417788, Note_off_c, 0, 87, 100
2, 417792, Note_on_c, 0, 88, 80
2, 417884, Note_off_c, 0, 88, 100
2, 417888, Note_on_c, 0, 83, 81
2, 417980, Note_off_c, 0, 83, 100
2, 417984, Note_on_c, 0, 80, 83
2, 418076, Note_off_c, 0, 80, 100
2, 418080, Note_on_c, 0, 76, 84
2, 418172, Note_off_c, 0, 76, 100
2, 418176, Note_on_c, 0, 75, 86
2, 418268, Note_off_c, 0, 75, 100
2, 418272, Note_on_c, 0, 76, 88
2, 418364, Note_off_c, 0, 76, 100
2, 418368, Note_on_c, 0, 81, 89
2, 418460, Note_off_c, 0, 81, 100
2, 418464, Note_on_c, 0, 84, 91
2, 418556, Note_off_c, 0, 84, 100
2, 418560, Note_on_c, 0, 88, 93
2, 418652, Note_off_c, 0, 88, 100
2, 418656, Note_on_c, 0, 83, 94
2, 418748, Note_off_c, 0, 83, 100
2, 418752, Note_on_c, 0, 80, 96
2, 418844, Note_off_c, 0, 80, 100
2, 418848, Note_on_c, 0, 76, 97
2, 418940, Note_off_c, 0, 76, 100
2, 418944, Note_on_c, 0, 75, 99
2, 419036, Note_off_c, 0, 75, 100
2, 419040, Note_on_c, 0, 76, 101
2, 419132, Note_off_c, 0, 76, 100
2, 419136, Note_on_c, 0, 81, 102
2, 419228, Note_off_c, 0, 81, 100
2, 419232, Note_on_c, 0, 84, 104
2, 419324, Note_off_c, 0, 84, 100
2, 419328, Control_c, 0, 64, 127
2, 419328, Note_on_c, 0, 88, 123
2, 419420, Note_off_c, 0, 88, 100
2, 419424, Note_on_c, 0, 83, 110
2, 419516, Note_off_c, 0, 83, 100
2, 419520, Note_on_c, 0, 80, 110
2, 419612, Note_off_c, 0, 80, 100
2, 419616, Note_on_c, 0, 76, 110
2, 419704, Control_c, 0, 64, 0
2, 419708, Note_off_c, 0, 76, 100
2, 419712, Control_c, 0, 64, 127
2, 419712, Note_on_c, 0, 88, 121
2, 419804, Note_off_c, 0, 88, 100
2, 419808, Note_on_c, 0, 84, 110
2, 419900, Note_off_c, 0, 84, 100
2, 419904, Note_on_c, 0, 81, 110
2, 419996, Note_off_c, 0, 81, 100
2, 420000, Note_on_c, 0, 76, 110
2, 420088, Control_c, 0, 64, 0
2, 420092, Note_off_c, 0, 76, 100
2, 420096, Control_c, 0, 64, 127
2, 420096, Note_on_c, 0, 88, 121
2, 420188, Note_off_c, 0, 88, 100
2, 420192, Note_on_c, 0, 83, 110
2, 420284, Note_off_c, 0, 83, 100
2, 420288, Note_on_c, 0, 80, 110
2, 420380, Note_off_c, 0, 80, 100
2, 420384, Note_on_c, 0, 76, 110
2, 420472, Control_c, 0, 64, 0
2, 420476, Note_off_c, 0, 76, 100
2, 420480, Control_c, 0, 64, 127
2, 420480, Note_on_c, 0, 88, 120
2, 420572, Note_off_c, 0, 88, 100
2, 420576, Note_on_c, 0, 84, 110
2, 420668, Note_off_c, 0, 84, 100
2, 420672, Note_on_c, 0, 81, 110
2, 420764, Note_off_c, 0, 81, 100
2, 420768, Note_on_c, 0, 76, 110
2, 420856, Control_c, 0, 64, 0
2, 420860, Note_off_c, 0, 76, 100
2, 420864, Control_c, 0, 64, 127
2, 420864, Note_on_c, 0, 88, 110
2, 420956, Note_off_c, 0, 88, 100
2, 420960, Note_on_c, 0, 83, 110
2, 421052, Note_off_c, 0, 83, 100
2, 421056, Note_on_c, 0, 80, 110
2, 421148, Note_off_c, 0, 80, 100
2, 421152, Note_on_c, 0, 76, 110
2, 421244, Note_off_c, 0, 76, 100
2, 421248, Note_on_c, 0, 83, 110
2, 421340, Note_off_c, 0, 83, 100
2, 421344, Note_on_c, 0, 80, 110
2, 421436, Note_off_c, 0, 80, 100
2, 421440, Note_on_c, 0, 76, 110
2, 421532, Note_off_c, 0, 76, 100
2, 421536, Note_on_c, 0, 71, 110
2, 421628, Note_off_c, 0, 71, 100
2, 421632, Note_on_c, 0, 80, 110
2, 421724, Note_off_c, 0, 80, 100
2, 421728, Note_on_c, 0, 76, 110
2, 421820, Note_off_c, 0, 76, 100
2, 421824, Note_on_c, 0, 71, 110
2, 421916, Note_off_c, 0, 71, 100
2, 421920, Note_on_c, 0, 68, 110
2, 422012, Note_off_c, 0, 68, 100
2, 422016, Note_on_c, 0, 76, 110
2, 422108, Note_off_c, 0, 76, 100
2, 422112, Note_on_c, 0, 71, 110
2, 422204, Note_off_c, 0, 71, 100
2, 422208, Note_on_c, 0, 68, 110
2, 422300, Note_off_c, 0, 68, 100
2, 422304, Note_on_c, 0, 64, 110
2, 422396, Note_off_c, 0, 64, 100
2, 422400, Note_on_c, 0, 71, 110
2, 422492, Note_off_c, 0, 71, 100
2, 422496, Note_on_c, 0, 68, 110
2, 422588, Note_off_c, 0, 68, 100
2, 422592, Note_on_c, 0, 64, 110
2, 422684, Note_off_c, 0, 64, 100
2, 422688, Note_on_c, 0, 59, 110
2, 422780, Note_off_c, 0, 59, 100
2, 422784, Note_on_c, 0, 68, 110
2, 422876, Note_off_c, 0, 68, 100
2, 422880, Note_on_c, 0, 64, 110
2, 422972, Note_off_c, 0, 64, 100
2, 422976, Note_on_c, 0, 59, 110
2, 423068, Note_off_c, 0, 59, 100
2, 423072, Note_on_c, 0, 56, 110
2, 423164, Note_off_c, 0, 56, 100
2, 423168, Note_on_c, 0, 64, 110
2, 423260, Note_off_c, 0, 64, 100
2, 423264, Note_on_c, 0, 59, 110
2, 423356, Note_off_c, 0, 59, 100
2, 423360, Note_on_c, 0, 56, 110
2, 423452, Note_off_c, 0, 56, 100
2, 423456, Note_on_c, 0, 52, 110
2, 423544, Control_c, 0, 64, 0
2, 423548, Note_off_c, 0, 52, 100
2, 423552, Control_c, 0, 64, 127
2, 423928, Control_c, 0, 64, 0
2, 424704, Note_on_c, 0, 76, 103
2, 424892, Note_off_c, 0, 76, 100
2, 424896, Note_on_c, 0, 64, 101
2, 425084, Note_off_c, 0, 64, 100
2, 425088, Note_on_c, 0, 78, 99
2, 425276, Note_off_c, 0, 78, 100
2, 425280, Note_on_c, 0, 66, 97
2, 425468, Note_off_c, 0, 66, 100
2, 425472, Note_on_c, 0, 80, 95
2, 425660, Note_off_c, 0, 80, 100
2, 425664, Note_on_c, 0, 68, 93
2, 425852, Note_off_c, 0, 68, 100
2, 426240, Note_on_c, 0, 80, 87
2, 426428, Note_off_c, 0, 80, 100
2, 426432, Note_on_c, 0, 68, 85
2, 426620, Note_off_c, 0, 68, 100
2, 426624, Note_on_c, 0, 81, 83
2, 426812, Note_off_c, 0, 81, 100
2, 426816, Note_on_c, 0, 69, 81
2, 427004, Note_off_c, 0, 69, 100
2, 427008, Note_on_c, 0, 83, 80
2, 427196, Note_off_c, 0, 83, 100
2, 427200, Note_on_c, 0, 71, 80
2, 427388, Note_off_c, 0, 71, 100
2, 427392, Note_on_c, 0, 85, 80
2, 427580, Note_off_c, 0, 85, 100
2, 427584, Note_on_c, 0, 73, 80
2, 427772, Note_off_c, 0, 73, 100
2, 427776, Note_on_c, 0, 86, 80
2, 427964, Note_off_c, 0, 86, 100
2, 427968, Note_on_c, 0, 74, 80
2, 428156, Note_off_c, 0, 74, 100
2, 428160, Note_on_c, 0, 86, 80
2, 428348, Note_off_c, 0, 86, 100
2, 428352, Note_on_c, 0, 76, 80
2, 428540, Note_off_c, 0, 76, 100
2, 428544, Note_on_c, 0, 86, 80
2, 428732, Note_off_c, 0, 86, 100
2, 428736, Note_on_c, 0, 78, 80
2, 428924, Note_off_c, 0, 78, 100
2, 428928, Note_on_c, 0, 86, 80
2, 429116, Note_off_c, 0, 86, 100
2, 429120, Note_on_c, 0, 80, 80
2, 429308, Note_off_c, 0, 80, 100
2, 429312, Note_on_c, 0, 86, 80
2, 429500, Note_off_c, 0, 86, 100
2, 429504, Note_on_c, 0, 81, 80
2, 429692, Note_off_c, 0, 81, 100
2, 429696, Note_on_c, 0, 86, 80
2, 429884, Note_off_c, 0, 86, 100
2, 429888, Note_on_c, 0, 83, 80
2, 430076, Note_off_c, 0, 83, 100
2, 430080, Note_on_c, 0, 85, 80
2, 430080, Note_on_c, 0, 81, 80
2, 430080, Note_on_c, 0, 76, 80
2, 430080, Note_on_c, 0, 73, 80
2, 430844, Note_off_c, 0, 85, 100
2, 430844, Note_off_c, 0, 81, 100
2, 430844, Note_off_c, 0, 76, 100
2, 430844, Note_off_c, 0, 73, 100
2, 430848, Note_on_c, 0, 83, 80
2, 430848, Note_on_c, 0, 80, 80
2, 430848, Note_on_c, 0, 76, 80
2, 430848, Note_on_c, 0, 71, 80
2, 431228, Note_off_c, 0, 83, 100
2, 431228, Note_off_c, 0, 80, 100
2, 431228, Note_off_c, 0, 76, 100
2, 431228, Note_off_c, 0, 71, 100
2, 431232, Note_on_c, 0, 81, 80
2, 431232, Note_on_c, 0, 78, 80
2, 431232, Note_on_c, 0, 73, 80
2, 431232, Note_on_c, 0, 69, 80
2, 431612, Note_off_c, 0, 81, 100
2, 431612, Note_off_c, 0, 78, 100
2, 431612, Note_off_c, 0, 73, 100
2, 431612, Note_off_c, 0, 69, 100
2, 431616, Note_on_c, 0, 80, 80
2, 431616, Note_on_c, 0, 77, 80
2, 431616, Note_on_c, 0, 71, 80
2, 431616, Note_on_c, 0, 68, 80
2, 432380, Note_off_c, 0, 80, 100
2, 432380, Note_off_c, 0, 77, 100
2, 432380, Note_off_c, 0, 71, 100
2, 432380, Note_off_c, 0, 68, 100
2, 432384, Note_on_c, 0, 78, 80
2, 432384, Note_on_c, 0, 74, 80
2, 432384, Note_on_c, 0, 69, 80
2, 432384, Note_on_c, 0, 66, 80
2, 433148, Note_off_c, 0, 78, 100
2, 433148, Note_off_c, 0, 74, 100
2, 433148, Note_off_c, 0, 69, 100
2, 433148, Note_off_c, 0, 66, 100
2, 433152, Note_on_c, 0, 80, 80
2, 433152, Note_on_c, 0, 76, 80
2, 433152, Note_on_c, 0, 74, 80
2, 433152, Note_on_c, 0, 68, 80
2, 433916, Note_off_c, 0, 80, 100
2, 433916, Note_off_c, 0, 76, 100
2, 433916, Note_off_c, 0, 74, 100
2, 433916, Note_off_c, 0, 68, 100
2, 433920, Note_on_c, 0, 81, 93
2, 433920, Note_on_c, 0, 76, 93
2, 433920, Note_on_c, 0, 69, 93
2, 434300, Note_off_c, 0, 81, 100
2, 434300, Note_off_c, 0, 76, 100
2, 434300, Note_off_c, 0, 69, 100
2, 434304, Note_on_c, 0, 83, 99
2, 434304, Note_on_c, 0, 71, 99
2, 434304, Note_on_c, 0, 78, 99
2, 434304, Note_on_c, 0, 81, 99
2, 434684, Note_off_c, 0, 83, 100
2, 434684, Note_off_c, 0, 71, 100
2, 434684, Note_off_c, 0, 78, 100
2, 434684, Note_off_c, 0, 81, 100
2, 434688, Note_on_c, 0, 85, 110
2, 434688, Note_on_c, 0, 81, 110
2, 434688, Note_on_c, 0, 73, 110
2, 434688, Note_on_c, 0, 76, 110
2, 435452, Note_off_c, 0, 85, 100
2, 435452, Note_off_c, 0, 81, 100
2, 435452, Note_off_c, 0, 73, 100
2, 435456, Note_on_c, 0, 83, 91
2, 435456, Note_on_c, 0, 80, 91
2, 435456, Note_on_c, 0, 71, 91
2, 435836, Note_off_c, 0, 76, 100
2, 435840, Note_on_c, 0, 74, 81
2, 436220, Note_off_c, 0, 83, 100
2, 436220, Note_off_c, 0, 80, 100
2, 436220, Note_off_c, 0, 71, 100
2, 436220, Note_off_c, 0, 74, 100
2, 436224, Note_on_c, 0, 72, 80
2, 436224, Note_on_c, 0, 69, 80
2, 436224, Note_on_c, 0, 64, 80
2, 436988, Note_off_c, 0, 72, 100
2, 436988, Note_off_c, 0, 69, 100
2, 436988, Note_off_c, 0, 64, 100
2, 436992, Note_on_c, 0, 71, 80
2, 436992, Note_on_c, 0, 64, 80
2, 436992, Note_on_c, 0, 67, 80
2, 437372, Note_off_c, 0, 71, 100
2, 437372, Note_off_c, 0, 64, 100
2, 437372, Note_off_c, 0, 67, 100
2, 437376, Note_on_c, 0, 69, 80
2, 437376, Note_on_c, 0, 65, 80
2, 437376, Note_on_c, 0, 60, 80
2, 437756, Note_off_c, 0, 69, 100
2, 437756, Note_off_c, 0, 65, 100
2, 437756, Note_off_c, 0, 60, 100
2, 437760, Note_on_c, 0, 67, 80
2, 437760, Note_on_c, 0, 64, 80
2, 437760, Note_on_c, 0, 60, 80
2, 438524, Note_off_c, 0, 67, 100
2, 438524, Note_off_c, 0, 64, 100
2, 438524, Note_off_c, 0, 60, 100
2, 438528, Note_on_c, 0, 65, 80
2, 438528, Note_on_c, 0, 62, 80
2, 438528, Note_on_c, 0, 57, 80
2, 439292, Note_off_c, 0, 65, 100
2, 439292, Note_off_c, 0, 62, 100
2, 439292, Note_off_c, 0, 57, 100
2, 439296, Note_on_c, 0, 67, 80
2, 439296, Note_on_c, 0, 64, 80
2, 439296, Note_on_c, 0, 60, 80
2, 439676, Note_off_c, 0, 64, 100
2, 439676, Note_off_c, 0, 60, 100
2, 439680, Note_on_c, 0, 65, 86
2, 439680, Note_on_c, 0, 62, 86
2, 440060, Note_off_c, 0, 67, 100
2, 440064, Note_on_c, 0, 69, 93
2, 440444, Note_off_c, 0, 69, 100
2, 440448, Note_on_c, 0, 71, 99
2, 440828, Note_off_c, 0, 65, 100
2, 440828, Note_off_c, 0, 62, 100
2, 440828, Note_off_c, 0, 71, 100
2, 440832, Note_on_c, 0, 72, 80
2, 440832, Note_on_c, 0, 60, 80
2, 440832, Note_on_c, 0, 64, 80
2, 440956, Note_off_c, 0, 72, 100
2, 440956, Note_off_c, 0, 60, 100
2, 440956, Note_off_c, 0, 64, 100
2, 440960, Note_on_c, 0, 74, 80
2, 441084, Note_off_c, 0, 74, 100
2, 441088, Note_on_c, 0, 76, 80
2, 441212, Note_off_c, 0, 76, 100
2, 441216, Note_on_c, 0, 77, 80
2, 441340, Note_off_c, 0, 77, 100
2, 441344, Note_on_c, 0, 79, 80
2, 441468, Note_off_c, 0, 79, 100
2, 441472, Note_on_c, 0, 81, 80
2, 441596, Note_off_c, 0, 81, 100
2, 441600, Note_on_c, 0, 82, 80
2, 441724, Note_off_c, 0, 82, 100
2, 441728, Note_on_c, 0, 83, 80
2, 441852, Note_off_c, 0, 83, 100
2, 441856, Note_on_c, 0, 84, 80
2, 441980, Note_off_c, 0, 84, 100
2, 441984, Note_on_c, 0, 85, 80
2, 442108, Note_off_c, 0, 85, 100
2, 442112, Note_on_c, 0, 86, 80
2, 442236, Note_off_c, 0, 86, 100
2, 442240, Note_on_c, 0, 87, 80
2, 442364, Note_off_c, 0, 87, 100
2, 442368, Note_on_c, 0, 84, 80
2, 442368, Note_on_c, 0, 88, 80
2, 442492, Note_off_c, 0, 88, 100
2, 442496, Note_on_c, 0, 87, 80
2, 442620, Note_off_c, 0, 87, 100
2, 442624, Note_on_c, 0, 88, 80
2, 442748, Note_off_c, 0, 88, 100
2, 442752, Note_on_c, 0, 89, 80
2, 442876, Note_off_c, 0, 89, 100
2, 442880, Note_on_c, 0, 87, 80
2, 443004, Note_off_c, 0, 87, 100
2, 443008, Note_on_c, 0, 88, 80
2, 443132, Note_off_c, 0, 84, 100
2, 443132, Note_off_c, 0, 88, 100
2, 443136, Note_on_c, 0, 83, 80
2, 443264, Note_on_c, 0, 88, 80
2, 443388, Note_off_c, 0, 88, 100
2, 443392, Note_on_c, 0, 86, 80
2, 443516, Note_off_c, 0, 83, 100
2, 443516, Note_off_c, 0, 86, 100
2, 443520, Note_on_c, 0, 81, 80
2, 443648, Note_on_c, 0, 86, 80
2, 443772, Note_off_c, 0, 86, 100
2, 443776, Note_on_c, 0, 84, 80
2, 443900, Note_off_c, 0, 81, 100
2, 443900, Note_off_c, 0, 84, 100
2, 443904, Note_on_c, 0, 80, 80
2, 444032, Note_on_c, 0, 82, 80
2, 444156, Note_off_c, 0, 82, 100
2, 444160, Note_on_c, 0, 83, 80
2, 444284, Note_off_c, 0, 83, 100
2, 444288, Note_on_c, 0, 84, 80
2, 444412, Note_off_c, 0, 84, 100
2, 444416, Note_on_c, 0, 82, 80
2, 444540, Note_off_c, 0, 82, 100
2, 444544, Note_on_c, 0, 83, 80
2, 444668, Note_off_c, 0, 80, 100
2, 444668, Note_off_c, 0, 83, 100
2, 444672, Note_on_c, 0, 77, 80
2, 444800, Note_on_c, 0, 80, 80
2, 444924, Note_off_c, 0, 80, 100
2, 444928, Note_on_c, 0, 81, 80
2, 445052, Note_off_c, 0, 81, 100
2, 445056, Note_on_c, 0, 83, 80
2, 445180, Note_off_c, 0, 83, 100
2, 445184, Note_on_c, 0, 80, 80
2, 445308, Note_off_c, 0, 80, 100
2, 445312, Note_on_c, 0, 81, 80
2, 445436, Note_off_c, 0, 77, 100
2, 445436, Note_off_c, 0, 81, 100
2, 445440, Note_on_c, 0, 77, 80
2, 445568, Note_on_c, 0, 82, 82
2, 445692, Note_off_c, 0, 82, 100
2, 445696, Note_on_c, 0, 83, 85
2, 445820, Note_off_c, 0, 83, 100
2, 445824, Note_on_c, 0, 84, 88
2, 445948, Note_off_c, 0, 84, 100
2, 445952, Note_on_c, 0, 82, 91
2, 446076, Note_off_c, 0, 82, 100
2, 446080, Note_on_c, 0, 83, 94
2, 446204, Note_off_c, 0, 77, 100
2, 446204, Note_off_c, 0, 83, 100
2, 446208, Note_on_c, 0, 79, 96
2, 446336, Note_on_c, 0, 86, 99
2, 446460, Note_off_c, 0, 86, 100
2, 446464, Note_on_c, 0, 84, 102
2, 446588, Note_off_c, 0, 79, 100
2, 446588, Note_off_c, 0, 84, 100
2, 446592, Note_on_c, 0, 81, 105
2, 446720, Note_on_c, 0, 88, 108
2, 446844, Note_off_c, 0, 88, 100
2, 446848, Note_on_c, 0, 86, 110
2, 446972, Note_off_c, 0, 81, 100
2, 446972, Note_off_c, 0, 86, 100
2, 446976, Note_on_c, 0, 84, 110
2, 446976, Note_on_c, 0, 88, 110
2, 447100, Note_off_c, 0, 88, 100
2, 447104, Note_on_c, 0, 87, 110
2, 447228, Note_off_c, 0, 87, 100
2, 447232, Note_on_c, 0, 88, 110
2, 447356, Note_off_c, 0, 88, 100
2, 447360, Note_on_c, 0, 91, 110
2, 447484, Note_off_c, 0, 91, 100
2, 447488, Note_on_c, 0, 89, 110
2, 447612, Note_off_c, 0, 89, 100
2, 447616, Note_on_c, 0, 88, 110
2, 447740, Note_off_c, 0, 84, 100
2, 447740, Note_off_c, 0, 88, 100
2, 447744, Note_on_c, 0, 86, 110
2, 447744, Note_on_c, 0, 83, 110
2, 447868, Note_off_c, 0, 86, 100
2, 447868, Note_off_c, 0, 83, 100
2, 447872, Note_on_c, 0, 84, 105
2, 447872, Note_on_c, 0, 81, 105
2, 447996, Note_off_c, 0, 84, 100
2, 447996, Note_off_c, 0, 81, 100
2, 448000, Note_on_c, 0, 83, 99
2, 448000, Note_on_c, 0, 79, 99
2, 448124, Note_off_c, 0, 83, 100
2, 448124, Note_off_c, 0, 79, 100
2, 448128, Note_on_c, 0, 81, 93
2, 448128, Note_on_c, 0, 77, 93
2, 448252, Note_off_c, 0, 81, 100
2, 448252, Note_off_c, 0, 77, 100
2, 448256, Note_on_c, 0, 79, 87
2, 448256, Note_on_c, 0, 76, 87
2, 448380, Note_off_c, 0, 79, 100
2, 448380, Note_off_c, 0, 76, 100
2, 448384, Note_on_c, 0, 77, 81
2, 448384, Note_on_c, 0, 74, 81
2, 448508, Note_off_c, 0, 77, 100
2, 448508, Note_off_c, 0, 74, 100
2, 448512, Note_on_c, 0, 76, 80
2, 448512, Note_on_c, 0, 67, 80
2, 448636, Note_off_c, 0, 76, 100
2, 448640, Note_on_c, 0, 75, 80
2, 448764, Note_off_c, 0, 75, 100
2, 448768, Note_on_c, 0, 76, 80
2, 448892, Note_off_c, 0, 76, 100
2, 448896, Note_on_c, 0, 77, 80
2, 449020, Note_off_c, 0, 77, 100
2, 449024, Note_on_c, 0, 75, 80
2, 449148, Note_off_c, 0, 75, 100
2, 449152, Note_on_c, 0, 76, 80
2, 449276, Note_off_c, 0, 67, 100
2, 449276, Note_off_c, 0, 76, 100
2, 449280, Note_on_c, 0, 65, 80
2, 449408, Note_on_c, 0, 76, 80
2, 449532, Note_off_c, 0, 76, 100
2, 449536, Note_on_c, 0, 74, 80
2, 449660, Note_off_c, 0, 65, 100
2, 449660, Note_off_c, 0, 74, 100
2, 449664, Note_on_c, 0, 64, 80
2, 449792, Note_on_c, 0, 74, 80
2, 449916, Note_off_c, 0, 74, 100
2, 449920, Note_on_c, 0, 72, 80
2, 450044, Note_off_c, 0, 64, 100
2, 450044, Note_off_c, 0, 72, 100
2, 450048, Note_on_c, 0, 62, 80
2, 450176, Note_on_c, 0, 70, 80
2, 450300, Note_off_c, 0, 70, 100
2, 450304, Note_on_c, 0, 71, 80
2, 450428, Note_off_c, 0, 71, 100
2, 450432, Note_on_c, 0, 72, 80
2, 450556, Note_off_c, 0, 72, 100
2, 450560, Note_on_c, 0, 70, 80
2, 450684, Note_off_c, 0, 70, 100
2, 450688, Note_on_c, 0, 71, 80
2, 450812, Note_off_c, 0, 62, 100
2, 450812, Note_off_c, 0, 71, 100
2, 450816, Note_on_c, 0, 60, 80
2, 450944, Note_on_c, 0, 68, 80
2, 451068, Note_off_c, 0, 68, 100
2, 451072, Note_on_c, 0, 69, 80
2, 451196, Note_off_c, 0, 69, 100
2, 451200, Note_on_c, 0, 71, 80
2, 451324, Note_off_c, 0, 71, 100
2, 451328, Note_on_c, 0, 68, 80
2, 451452, Note_off_c, 0, 68, 100
2, 451456, Note_on_c, 0, 69, 80
2, 451580, Note_off_c, 0, 60, 100
2, 451580, Note_off_c, 0, 69, 100
2, 451584, Note_on_c, 0, 60, 80
2, 451712, Note_on_c, 0, 64, 82
2, 451836, Note_off_c, 0, 64, 100
2, 451840, Note_on_c, 0, 67, 84
2, 451964, Note_off_c, 0, 60, 100
2, 451964, Note_off_c, 0, 67, 100
2, 451968, Note_on_c, 0, 62, 87
2, 452096, Note_on_c, 0, 65, 89
2, 452220, Note_off_c, 0, 65, 100
2, 452224, Note_on_c, 0, 67, 91
2, 452348, Note_off_c, 0, 62, 100
2, 452348, Note_off_c, 0, 67, 100
2, 452352, Note_on_c, 0, 62, 94
2, 452480, Note_on_c, 0, 65, 96
2, 452604, Note_off_c, 0, 65, 100
2, 452608, Note_on_c, 0, 69, 98
2, 452732, Note_off_c, 0, 62, 100
2, 452732, Note_off_c, 0, 69, 100
2, 452736, Note_on_c, 0, 62, 101
2, 452864, Note_on_c, 0, 65, 103
2, 452988, Note_off_c, 0, 65, 100
2, 452992, Note_on_c, 0, 71, 105
2, 453116, Note_off_c, 0, 62, 100
2, 453116, Note_off_c, 0, 71, 100
2, 453120, Note_on_c, 0, 72, 110
2, 453120, Note_on_c, 0, 64, 110
2, 453244, Note_off_c, 0, 72, 100
2, 453244, Note_off_c, 0, 64, 100
2, 453248, Note_on_c, 0, 55, 110
2, 453372, Note_off_c, 0, 55, 100
2, 453376, Note_on_c, 0, 52, 110
2, 453500, Note_off_c, 0, 52, 100
2, 453504, Note_on_c, 0, 55, 110
2, 453628, Note_off_c, 0, 55, 100
2, 453632, Note_on_c, 0, 60, 110
2, 453756, Note_off_c, 0, 60, 100
2, 453760, Note_on_c, 0, 64, 110
2, 453884, Note_off_c, 0, 64, 100
2, 453888, Note_on_c, 0, 62, 110
2, 454012, Note_off_c, 0, 62, 100
2, 454016, Note_on_c, 0, 59, 110
2, 454140, Note_off_c, 0, 59, 100
2, 454144, Note_on_c, 0, 55, 110
2, 454268, Note_off_c, 0, 55, 100
2, 454272, Note_on_c, 0, 59, 110
2, 454396, Note_off_c, 0, 59, 100
2, 454400, Note_on_c, 0, 62, 110
2, 454524, Note_off_c, 0, 62, 100
2, 454528, Note_on_c, 0, 65, 110
2, 454652, Note_off_c, 0, 65, 100
2, 454656, Note_on_c, 0, 64, 110
2, 454780, Note_off_c, 0, 64, 100
2, 454784, Note_on_c, 0, 60, 110
2, 454908, Note_off_c, 0, 60, 100
2, 454912, Note_on_c, 0, 55, 110
2, 455036, Note_off_c, 0, 55, 100
2, 455040, Note_on_c, 0, 60, 110
2, 455164, Note_off_c, 0, 60, 100
2, 455168, Note_on_c, 0, 64, 110
2, 455292, Note_off_c, 0, 64, 100
2, 455296, Note_on_c, 0, 67, 110
2, 455420, Note_off_c, 0, 67, 100
2, 455424, Note_on_c, 0, 65, 110
2, 455548, Note_off_c, 0, 65, 100
2, 455552, Note_on_c, 0, 62, 110
2, 455676, Note_off_c, 0, 62, 100
2, 455680, Note_on_c, 0, 59, 110
2, 455804, Note_off_c, 0, 59, 100
2, 455808, Note_on_c, 0, 71, 110
2, 455932, Note_off_c, 0, 71, 100
2, 455936, Note_on_c, 0, 65, 110
2, 456060, Note_off_c, 0, 65, 100
2, 456064, Note_on_c, 0, 62, 110
2, 456188, Note_off_c, 0, 62, 100
2, 456192, Note_on_c, 0, 72, 110
2, 456192, Note_on_c, 0, 64, 110
2, 456572, Note_off_c, 0, 72, 100
2, 456572, Note_off_c, 0, 64, 100
2, 456576, Note_on_c, 0, 67, 110
2, 457340, Note_off_c, 0, 67, 100
2, 457344, Note_on_c, 0, 67, 110
2, 458108, Note_off_c, 0, 67, 100
2, 458112, Note_on_c, 0, 67, 110
2, 458876, Note_off_c, 0, 67, 100
2, 458880, Note_on_c, 0, 67, 110
2, 459260, Note_off_c, 0, 67, 100
2, 459264, Note_on_c, 0, 72, 110
2, 459388, Note_off_c, 0, 72, 100
2, 459392, Note_on_c, 0, 67, 110
2, 459516, Note_off_c, 0, 67, 100
2, 459520, Note_on_c, 0, 64, 110
2, 459644, Note_off_c, 0, 64, 100
2, 459648, Note_on_c, 0, 67, 110
2, 459772, Note_off_c, 0, 67, 100
2, 459776, Note_on_c, 0, 72, 110
2, 459900, Note_off_c, 0, 72, 100
2, 459904, Note_on_c, 0, 76, 110
2, 460028, Note_off_c, 0, 76, 100
2, 460032, Note_on_c, 0, 74, 110
2, 460156, Note_off_c, 0, 74, 100
2, 460160, Note_on_c, 0, 71, 110
2, 460284, Note_off_c, 0, 71, 100
2, 460288, Note_on_c, 0, 67, 110
2, 460412, Note_off_c, 0, 67, 100
2, 460416, Note_on_c, 0, 71, 110
2, 460540, Note_off_c, 0, 71, 100
2, 460544, Note_on_c, 0, 74, 110
2, 460668, Note_off_c, 0, 74, 100
2, 460672, Note_on_c, 0, 77, 110
2, 460796, Note_off_c, 0, 77, 100
2, 460800, Note_on_c, 0, 76, 110
2, 460924, Note_off_c, 0, 76, 100
2, 460928, Note_on_c, 0, 72, 110
2, 461052, Note_off_c, 0, 72, 100
2, 461056, Note_on_c, 0, 67, 110
2, 461180, Note_off_c, 0, 67, 100
2, 461184, Note_on_c, 0, 72, 110
2, 461308, Note_off_c, 0, 72, 100
2, 461312, Note_on_c, 0, 76, 110
2, 461436, Note_off_c, 0, 76, 100
2, 461440, Note_on_c, 0, 79, 110
2, 461564, Note_off_c, 0, 79, 100
2, 461568, Note_on_c, 0, 77, 110
2, 461692, Note_off_c, 0, 77, 100
2, 461696, Note_on_c, 0, 74, 110
2, 461820, Note_off_c, 0, 74, 100
2, 461824, Note_on_c, 0, 71, 110
2, 461948, Note_off_c, 0, 71, 100
2, 461952, Note_on_c, 0, 83, 110
2, 462076, Note_off_c, 0, 83, 100
2, 462080, Note_on_c, 0, 77, 110
2, 462204, Note_off_c, 0, 77, 100
2, 462208, Note_on_c, 0, 74, 110
2, 462332, Note_off_c, 0, 74, 100
2, 462336, Note_on_c, 0, 84, 100
2, 462460, Note_off_c, 0, 84, 100
2, 462464, Note_on_c, 0, 79, 100
2, 462588, Note_off_c, 0, 79, 100
2, 462592, Note_on_c, 0, 76, 100
2, 462716, Note_off_c, 0, 76, 100
2, 462720, Note_on_c, 0, 79, 99
2, 462844, Note_off_c, 0, 79, 100
2, 462848, Note_on_c, 0, 76, 99
2, 462972, Note_off_c, 0, 76, 100
2, 462976, Note_on_c, 0, 72, 98
2, 463100, Note_off_c, 0, 72, 100
2, 463104, Note_on_c, 0, 77, 98
2, 463228, Note_off_c, 0, 77, 100
2, 463232, Note_on_c, 0, 74, 97
2, 463356, Note_off_c, 0, 74, 100
2, 463360, Note_on_c, 0, 71, 97
2, 463484, Note_off_c, 0, 71, 100
2, 463488, Note_on_c, 0, 83, 97
2, 463612, Note_off_c, 0, 83, 100
2, 463616, Note_on_c, 0, 79, 96
2, 463740, Note_off_c, 0, 79, 100
2, 463744, Note_on_c, 0, 74, 96
2, 463868, Note_off_c, 0, 74, 100
2, 463872, Note_on_c, 0, 84, 95
2, 463996, Note_off_c, 0, 84, 100
2, 464000, Note_on_c, 0, 79, 95
2, 464124, Note_off_c, 0, 79, 100
2, 464128, Note_on_c, 0, 76, 94
2, 464252, Note_off_c, 0, 76, 100
2, 464256, Note_on_c, 0, 79, 94
2, 464380, Note_off_c, 0, 79, 100
2, 464384, Note_on_c, 0, 76, 94
2, 464508, Note_off_c, 0, 76, 100
2, 464512, Note_on_c, 0, 72, 93
2, 464636, Note_off_c, 0, 72, 100
2, 464640, Note_on_c, 0, 77, 93
2, 464764, Note_off_c, 0, 77, 100
2, 464768, Note_on_c, 0, 74, 92
2, 464892, Note_off_c, 0, 74, 100
2, 464896, Note_on_c, 0, 71, 92
2, 465020, Note_off_c, 0, 71, 100
2, 465024, Note_on_c, 0, 83, 91
2, 465148, Note_off_c, 0, 83, 100
2, 465152, Note_on_c, 0, 79, 91
2, 465276, Note_off_c, 0, 79, 100
2, 465280, Note_on_c, 0, 74, 91
2, 465404, Note_off_c, 0, 74, 100
2, 465408, Control_c, 0, 64, 127
2, 465408, Note_on_c, 0, 84, 90
2, 465500, Note_off_c, 0, 84, 100
2, 465504, Note_on_c, 0, 79, 90
2, 465596, Note_off_c, 0, 79, 100
2, 465600, Note_on_c, 0, 76, 91
2, 465692, Note_off_c, 0, 76, 100
2, 465696, Note_on_c, 0, 72, 92
2, 465784, Control_c, 0, 64, 0
2, 465788, Note_off_c, 0, 72, 100
2, 465792, Control_c, 0, 64, 127
2, 465792, Note_on_c, 0, 77, 92
2, 465884, Note_off_c, 0, 77, 100
2, 465888, Note_on_c, 0, 74, 93
2, 465980, Note_off_c, 0, 74, 100
2, 465984, Note_on_c, 0, 83, 94
2, 466076, Note_off_c, 0, 83, 100
2, 466080, Note_on_c, 0, 79, 94
2, 466168, Control_c, 0, 64, 0
2, 466172, Note_off_c, 0, 79, 100
2, 466176, Control_c, 0, 64, 127
2, 466176, Note_on_c, 0, 84, 95
2, 466268, Note_off_c, 0, 84, 100
2, 466272, Note_on_c, 0, 79, 96
2, 466364, Note_off_c, 0, 79, 100
2, 466368, Note_on_c, 0, 76, 96
2, 466460, Note_off_c, 0, 76, 100
2, 466464, Note_on_c, 0, 72, 97
2, 466552, Control_c, 0, 64, 0
2, 466556, Note_off_c, 0, 72, 100
2, 466560, Control_c, 0, 64, 127
2, 466560, Note_on_c, 0, 77, 98
2, 466652, Note_off_c, 0, 77, 100
2, 466656, Note_on_c, 0, 74, 98
2, 466748, Note_off_c, 0, 74, 100
2, 466752, Note_on_c, 0, 83, 99
2, 466844, Note_off_c, 0, 83, 100
2, 466848, Note_on_c, 0, 79, 100
2, 466936, Control_c, 0, 64, 0
2, 466940, Note_off_c, 0, 79, 100
2, 466944, Control_c, 0, 64, 127
2, 466944, Note_on_c, 0, 84, 100
2, 467036, Note_off_c, 0, 84, 100
2, 467040, Note_on_c, 0, 79, 101
2, 467132, Note_off_c, 0, 79, 100
2, 467136, Note_on_c, 0, 83, 102
2, 467228, Note_off_c, 0, 83, 100
2, 467232, Note_on_c, 0, 79, 102
2, 467320, Control_c, 0, 64, 0
2, 467324, Note_off_c, 0, 79, 100
2, 467328, Control_c, 0, 64, 127
2, 467328, Note_on_c, 0, 84, 103
2, 467420, Note_off_c, 0, 84, 100
2, 467424, Note_on_c, 0, 79, 104
2, 467516, Note_off_c, 0, 79, 100
2, 467520, Note_on_c, 0, 83, 104
2, 467612, Note_off_c, 0, 83, 100
2, 467616, Note_on_c, 0, 79, 105
2, 467704, Control_c, 0, 64, 0
2, 467708, Note_off_c, 0, 79, 100
2, 467712, Control_c, 0, 64, 127
2, 467712, Note_on_c, 0, 84, 106
2, 467804, Note_off_c, 0, 84, 100
2, 467808, Note_on_c, 0, 79, 106
2, 467900, Note_off_c, 0, 79, 100
2, 467904, Note_on_c, 0, 83, 107
2, 467996, Note_off_c, 0, 83, 100
2, 468000, Note_on_c, 0, 79, 108
2, 468088, Control_c, 0, 64, 0
2, 468092, Note_off_c, 0, 79, 100
2, 468096, Control_c, 0, 64, 127
2, 468096, Note_on_c, 0, 84, 108
2, 468188, Note_off_c, 0, 84, 100
2, 468192, Note_on_c, 0, 79, 109
2, 468284, Note_off_c, 0, 79, 100
2, 468288, Note_on_c, 0, 83, 110
2, 468380, Note_off_c, 0, 83, 100
2, 468384, Note_on_c, 0, 79, 110
2, 468472, Control_c, 0, 64, 0
2, 468476, Note_off_c, 0, 79, 100
2, 468480, Control_c, 0, 64, 127
2, 468480, Note_on_c, 0, 84, 110
2, 468572, Note_off_c, 0, 84, 100
2, 468576, Note_on_c, 0, 79, 110
2, 468668, Note_off_c, 0, 79, 100
2, 468672, Note_on_c, 0, 82, 110
2, 468764, Note_off_c, 0, 82, 100
2, 468768, Note_on_c, 0, 79, 110
2, 468856, Control_c, 0, 64, 0
2, 468860, Note_off_c, 0, 79, 100
2, 468864, Control_c, 0, 64, 127
2, 468864, Note_on_c, 0, 82, 110
2, 468956, Note_off_c, 0, 82, 100
2, 468960, Note_on_c, 0, 79, 110
2, 469052, Note_off_c, 0, 79, 100
2, 469056, Note_on_c, 0, 82, 110
2, 469148, Note_off_c, 0, 82, 100
2, 469152, Note_on_c, 0, 79, 110
2, 469240, Control_c, 0, 64, 0
2, 469244, Note_off_c, 0, 79, 100
2, 469248, Control_c, 0, 64, 127
2, 469248, Note_on_c, 0, 82, 110
2, 469340, Note_off_c, 0, 82, 100
2, 469344, Note_on_c, 0, 79, 110
2, 469436, Note_off_c, 0, 79, 100
2, 469440, Note_on_c, 0, 82, 110
2, 469532, Note_off_c, 0, 82, 100
2, 469536, Note_on_c, 0, 79, 110
2, 469624, Control_c, 0, 64, 0
2, 469628, Note_off_c, 0, 79, 100
2, 469632, Control_c, 0, 64, 127
2, 469632, Note_on_c, 0, 82, 110
2, 469724, Note_off_c, 0, 82, 100
2, 469728, Note_on_c, 0, 79, 110
2, 469820, Note_off_c, 0, 79, 100
2, 469824, Note_on_c, 0, 82, 110
2, 469916, Note_off_c, 0, 82, 100
2, 469920, Note_on_c, 0, 79, 110
2, 470008, Control_c, 0, 64, 0
2, 470012, Note_off_c, 0, 79, 100
2, 470016, Note_on_c, 0, 82, 110
2, 470204, Note_off_c, 0, 82, 100
2, 470208, Note_on_c, 0, 81, 110
2, 470300, Note_off_c, 0, 81, 100
2, 470304, Note_on_c, 0, 79, 110
2, 470396, Note_off_c, 0, 79, 100
2, 470400, Note_on_c, 0, 77, 110
2, 470492, Note_off_c, 0, 77, 100
2, 470496, Note_on_c, 0, 76, 110
2, 470588, Note_off_c, 0, 76, 100
2, 470592, Note_on_c, 0, 74, 110
2, 470684, Note_off_c, 0, 74, 100
2, 470688, Note_on_c, 0, 72, 110
2, 470780, Note_off_c, 0, 72, 100
2, 470784, Note_on_c, 0, 70, 110
2, 470876, Note_off_c, 0, 70, 100
2, 470880, Note_on_c, 0, 69, 110
2, 470972, Note_off_c, 0, 69, 100
2, 470976, Note_on_c, 0, 67, 110
2, 471068, Note_off_c, 0, 67, 100
2, 471072, Note_on_c, 0, 65, 110
2, 471164, Note_off_c, 0, 65, 100
2, 471168, Note_on_c, 0, 64, 110
2, 471260, Note_off_c, 0, 64, 100
2, 471264, Note_on_c, 0, 62, 110
2, 471356, Note_off_c, 0, 62, 100
2, 471360, Note_on_c, 0, 60, 110
2, 471452, Note_off_c, 0, 60, 100
2, 471456, Note_on_c, 0, 58, 110
2, 471548, Note_off_c, 0, 58, 100
2, 471552, Note_on_c, 0, 57, 120
2, 471644, Note_off_c, 0, 57, 100
2, 471648, Note_on_c, 0, 59, 120
2, 471740, Note_off_c, 0, 59, 100
2, 471744, Note_on_c, 0, 60, 120
2, 471836, Note_off_c, 0, 60, 100
2, 471840, Note_on_c, 0, 59, 120
2, 471932, Note_off_c, 0, 59, 100
2, 471936, Note_on_c, 0, 60, 120
2, 472028, Note_off_c, 0, 60, 100
2, 472032, Note_on_c, 0, 64, 120
2, 472124, Note_off_c, 0, 64, 100
2, 472128, Note_on_c, 0, 65, 120
2, 472220, Note_off_c, 0, 65, 100
2, 472224, Note_on_c, 0, 64, 120
2, 472316, Note_off_c, 0, 64, 100
2, 472320, Note_on_c, 0, 65, 120
2, 472412, Note_off_c, 0, 65, 100
2, 472416, Note_on_c, 0, 68, 120
2, 472508, Note_off_c, 0, 68, 100
2, 472512, Note_on_c, 0, 69, 120
2, 472604, Note_off_c, 0, 69, 100
2, 472608, Note_on_c, 0, 68, 120
2, 472700, Note_off_c, 0, 68, 100
2, 472704, Note_on_c, 0, 69, 120
2, 472796, Note_off_c, 0, 69, 100
2, 472800, Note_on_c, 0, 71, 120
2, 472892, Note_off_c, 0, 71, 100
2, 472896, Note_on_c, 0, 72, 120
2, 472988, Note_off_c, 0, 72, 100
2, 472992, Note_on_c, 0, 71, 120
2, 473084, Note_off_c, 0, 71, 100
2, 473088, Note_on_c, 0, 72, 120
2, 473180, Note_off_c, 0, 72, 100
2, 473184, Note_on_c, 0, 76, 120
2, 473276, Note_off_c, 0, 76, 100
2, 473280, Note_on_c, 0, 77, 120
2, 473372, Note_off_c, 0, 77, 100
2, 473376, Note_on_c, 0, 76, 120
2, 473468, Note_off_c, 0, 76, 100
2, 473472, Note_on_c, 0, 77, 120
2, 473564, Note_off_c, 0, 77, 100
2, 473568, Note_on_c, 0, 80, 120
2, 473660, Note_off_c, 0, 80, 100
2, 473664, Note_on_c, 0, 81, 120
2, 473756, Note_off_c, 0, 81, 100
2, 473760, Note_on_c, 0, 80, 120
2, 473852, Note_off_c, 0, 80, 100
2, 473856, Note_on_c, 0, 81, 120
2, 473948, Note_off_c, 0, 81, 100
2, 473952, Note_on_c, 0, 83, 120
2, 474044, Note_off_c, 0, 83, 100
2, 474048, Note_on_c, 0, 84, 120
2, 474140, Note_off_c, 0, 84, 100
2, 474144, Note_on_c, 0, 83, 120
2, 474236, Note_off_c, 0, 83, 100
2, 474240, Note_on_c, 0, 84, 120
2, 474332, Note_off_c, 0, 84, 100
2, 474336, Note_on_c, 0, 83, 120
2, 474428, Note_off_c, 0, 83, 100
2, 474432, Note_on_c, 0, 81, 120
2, 474524, Note_off_c, 0, 81, 100
2, 474528, Note_on_c, 0, 80, 120
2, 474620, Note_off_c, 0, 80, 100
2, 474624, Note_on_c, 0, 81, 120
2, 474716, Note_off_c, 0, 81, 100
2, 474720, Note_on_c, 0, 80, 120
2, 474812, Note_off_c, 0, 80, 100
2, 474816, Note_on_c, 0, 81, 120
2, 474908, Note_off_c, 0, 81, 100
2, 474912, Note_on_c, 0, 83, 120
2, 475004, Note_off_c, 0, 83, 100
2, 475008, Note_on_c, 0, 84, 120
2, 475100, Note_off_c, 0, 84, 100
2, 475104, Note_on_c, 0, 83, 120
2, 475196, Note_off_c, 0, 83, 100
2, 475200, Note_on_c, 0, 81, 120
2, 475292, Note_off_c, 0, 81, 100
2, 475296, Note_on_c, 0, 80, 120
2, 475388, Note_off_c, 0, 80, 100
2, 475392, Note_on_c, 0, 81, 120
2, 475484, Note_off_c, 0, 81, 100
2, 475488, Note_on_c, 0, 80, 120
2, 475580, Note_off_c, 0, 80, 100
2, 475584, Note_on_c, 0, 81, 120
2, 475676, Note_off_c, 0, 81, 100
2, 475680, Note_on_c, 0, 83, 120
2, 475772, Note_off_c, 0, 83, 100
2, 475776, Note_on_c, 0, 84, 120
2, 475868, Note_off_c, 0, 84, 100
2, 475872, Note_on_c, 0, 83, 120
2, 475964, Note_off_c, 0, 83, 100
2, 475968, Note_on_c, 0, 81, 120
2, 476060, Note_off_c, 0, 81, 100
2, 476064, Note_on_c, 0, 80, 120
2, 476156, Note_off_c, 0, 80, 100
2, 476160, Note_on_c, 0, 81, 120
2, 476252, Note_off_c, 0, 81, 100
2, 476256, Note_on_c, 0, 80, 120
2, 476348, Note_off_c, 0, 80, 100
2, 476352, Note_on_c, 0, 81, 120
2, 476444, Note_off_c, 0, 81, 100
2, 476448, Note_on_c, 0, 83, 120
2, 476540, Note_off_c, 0, 83, 100
2, 476544, Note_on_c, 0, 84, 120
2, 476636, Note_off_c, 0, 84, 100
2, 476640, Note_on_c, 0, 83, 120
2, 476732, Note_off_c, 0, 83, 100
2, 476736, Note_on_c, 0, 81, 120
2, 476828, Note_off_c, 0, 81, 100
2, 476832, Note_on_c, 0, 80, 120
2, 476924, Note_off_c, 0, 80, 100
2, 476928, Note_on_c, 0, 81, 120
2, 477020, Note_off_c, 0, 81, 100
2, 477024, Note_on_c, 0, 80, 120
2, 477116, Note_off_c, 0, 80, 100
2, 477120, Note_on_c, 0, 81, 120
2, 477212, Note_off_c, 0, 81, 100
2, 477216, Note_on_c, 0, 83, 120
2, 477308, Note_off_c, 0, 83, 100
2, 477312, Note_on_c, 0, 84, 120
2, 477404, Note_off_c, 0, 84, 100
2, 477408, Note_on_c, 0, 83, 120
2, 477500, Note_off_c, 0, 83, 100
2, 477504, Note_on_c, 0, 84, 120
2, 477596, Note_off_c, 0, 84, 100
2, 477600, Note_on_c, 0, 81, 120
2, 477692, Note_off_c, 0, 81, 100
2, 477696, Note_on_c, 0, 79, 120
2, 477696, Note_on_c, 0, 67, 120
2, 477884, Note_off_c, 0, 79, 100
2, 477884, Note_off_c, 0, 67, 100
2, 477888, Note_on_c, 0, 79, 120
2, 477888, Note_on_c, 0, 67, 120
2, 478076, Note_off_c, 0, 79, 100
2, 478076, Note_off_c, 0, 67, 100
2, 478080, Note_on_c, 0, 76, 120
2, 478080, Note_on_c, 0, 64, 120
2, 478268, Note_off_c, 0, 76, 100
2, 478268, Note_off_c, 0, 64, 100
2, 478272, Note_on_c, 0, 72, 120
2, 478272, Note_on_c, 0, 60, 120
2, 478460, Note_off_c, 0, 72, 100
2, 478460, Note_off_c, 0, 60, 100
2, 478464, Note_on_c, 0, 84, 120
2, 478464, Note_on_c, 0, 72, 120
2, 478652, Note_off_c, 0, 84, 100
2, 478652, Note_off_c, 0, 72, 100
2, 478656, Note_on_c, 0, 84, 120
2, 478656, Note_on_c, 0, 72, 120
2, 478844, Note_off_c, 0, 84, 100
2, 478844, Note_off_c, 0, 72, 100
2, 478848, Note_on_c, 0, 79, 120
2, 478848, Note_on_c, 0, 67, 120
2, 479036, Note_off_c, 0, 79, 100
2, 479036, Note_off_c, 0, 67, 100
2, 479040, Note_on_c, 0, 76, 120
2, 479040, Note_on_c, 0, 64, 120
2, 479228, Note_off_c, 0, 76, 100
2, 479228, Note_off_c, 0, 64, 100
2, 479232, Note_on_c, 0, 79, 120
2, 479232, Note_on_c, 0, 67, 120
2, 479420, Note_off_c, 0, 79, 100
2, 479420, Note_off_c, 0, 67, 100
2, 479424, Note_on_c, 0, 79, 120
2, 479424, Note_on_c, 0, 67, 120
2, 479612, Note_off_c, 0, 79, 100
2, 479612, Note_off_c, 0, 67, 100
2, 479616, Note_on_c, 0, 76, 120
2, 479616, Note_on_c, 0, 64, 120
2, 479804, Note_off_c, 0, 76, 100
2, 479804, Note_off_c, 0, 64, 100
2, 479808, Note_on_c, 0, 72, 120
2, 479808, Note_on_c, 0, 60, 120
2, 479996, Note_off_c, 0, 72, 100
2, 479996, Note_off_c, 0, 60, 100
2, 480000, Note_on_c, 0, 84, 120
2, 480000, Note_on_c, 0, 72, 120
2, 480188, Note_off_c, 0, 84, 100
2, 480188, Note_off_c, 0, 72, 100
2, 480192, Note_on_c, 0, 84, 120
2, 480192, Note_on_c, 0, 72, 120
2, 480380, Note_off_c, 0, 84, 100
2, 480380, Note_off_c, 0, 72, 100
2, 480384, Note_on_c, 0, 79, 120
2, 480384, Note_on_c, 0, 67, 120
2, 480572, Note_off_c, 0, 79, 100
2, 480572, Note_off_c, 0, 67, 100
2, 480576, Note_on_c, 0, 76, 120
2, 480576, Note_on_c, 0, 64, 120
2, 480764, Note_off_c, 0, 76, 100
2, 480764, Note_off_c, 0, 64, 100
2, 480864, Note_on_c, 0, 84, 80
2, 480956, Note_off_c, 0, 84, 100
2, 480960, Note_on_c, 0, 88, 80
2, 481052, Note_off_c, 0, 88, 100
2, 481056, Note_on_c, 0, 84, 80
2, 481148, Note_off_c, 0, 84, 100
2, 481152, Note_on_c, 0, 91, 80
2, 481244, Note_off_c, 0, 91, 100
2, 481248, Note_on_c, 0, 88, 80
2, 481340, Note_off_c, 0, 88, 100
2, 481344, Note_on_c, 0, 91, 80
2, 481436, Note_off_c, 0, 91, 100
2, 481440, Note_on_c, 0, 88, 80
2, 481532, Note_off_c, 0, 88, 100
2, 481536, Note_on_c, 0, 91, 80
2, 481628, Note_off_c, 0, 91, 100
2, 481632, Note_on_c, 0, 88, 80
2, 481724, Note_off_c, 0, 88, 100
2, 481728, Note_on_c, 0, 91, 80
2, 481820, Note_off_c, 0, 91, 100
2, 481824, Note_on_c, 0, 88, 80
2, 481916, Note_off_c, 0, 88, 100
2, 481920, Note_on_c, 0, 91, 80
2, 482012, Note_off_c, 0, 91, 100
2, 482016, Note_on_c, 0, 88, 80
2, 482108, Note_off_c, 0, 88, 100
2, 482112, Note_on_c, 0, 91, 80
2, 482204, Note_off_c, 0, 91, 100
2, 482208, Note_on_c, 0, 88, 80
2, 482300, Note_off_c, 0, 88, 100
2, 482304, Note_on_c, 0, 91, 80
2, 482396, Note_off_c, 0, 91, 100
2, 482400, Note_on_c, 0, 88, 80
2, 482492, Note_off_c, 0, 88, 100
2, 482496, Note_on_c, 0, 91, 80
2, 482588, Note_off_c, 0, 91, 100
2, 482592, Note_on_c, 0, 88, 80
2, 482684, Note_off_c, 0, 88, 100
2, 482688, Note_on_c, 0, 91, 80
2, 482780, Note_off_c, 0, 91, 100
2, 482784, Note_on_c, 0, 88, 80
2, 482876, Note_off_c, 0, 88, 100
2, 482880, Note_on_c, 0, 91, 80
2, 482972, Note_off_c, 0, 91, 100
2, 482976, Note_on_c, 0, 88, 80
2, 483068, Note_off_c, 0, 88, 100
2, 483072, Note_on_c, 0, 91, 80
2, 483164, Note_off_c, 0, 91, 100
2, 483168, Note_on_c, 0, 88, 80
2, 483260, Note_off_c, 0, 88, 100
2, 483264, Note_on_c, 0, 91, 80
2, 483356, Note_off_c, 0, 91, 100
2, 483360, Note_on_c, 0, 88, 80
2, 483452, Note_off_c, 0, 88, 100
2, 483456, Note_on_c, 0, 91, 80
2, 483548, Note_off_c, 0, 91, 100
2, 483552, Note_on_c, 0, 88, 80
2, 483644, Note_off_c, 0, 88, 100
2, 483648, Note_on_c, 0, 91, 80
2, 483740, Note_off_c, 0, 91, 100
2, 483744, Note_on_c, 0, 88, 80
2, 483836, Note_off_c, 0, 88, 100
2, 483936, Note_on_c, 0, 89, 80
2, 484028, Note_off_c, 0, 89, 100
2, 484032, Note_on_c, 0, 91, 79
2, 484124, Note_off_c, 0, 91, 100
2, 484128, Note_on_c, 0, 89, 79
2, 484220, Note_off_c, 0, 89, 100
2, 484224, Note_on_c, 0, 92, 78
2, 484316, Note_off_c, 0, 92, 100
2, 484320, Note_on_c, 0, 89, 77
2, 484412, Note_off_c, 0, 89, 100
2, 484416, Note_on_c, 0, 91, 77
2, 484508, Note_off_c, 0, 91, 100
2, 484512, Note_on_c, 0, 89, 76
2, 484604, Note_off_c, 0, 89, 100
2, 484608, Note_on_c, 0, 92, 75
2, 484700, Note_off_c, 0, 92, 100
2, 484704, Note_on_c, 0, 89, 75
2, 484796, Note_off_c, 0, 89, 100
2, 484800, Note_on_c, 0, 91, 74
2, 484892, Note_off_c, 0, 91, 100
2, 484896, Note_on_c, 0, 89, 73
2, 484988, Note_off_c, 0, 89, 100
2, 484992, Note_on_c, 0, 92, 73
2, 485084, Note_off_c, 0, 92, 100
2, 485088, Note_on_c, 0, 89, 72
2, 485180, Note_off_c, 0, 89, 100
2, 485184, Note_on_c, 0, 91, 71
2, 485276, Note_off_c, 0, 91, 100
2, 485280, Note_on_c, 0, 89, 71
2, 485372, Note_off_c, 0, 89, 100
2, 485376, Note_on_c, 0, 92, 70
2, 485468, Note_off_c, 0, 92, 100
2, 485472, Note_on_c, 0, 89, 70
2, 485564, Note_off_c, 0, 89, 100
2, 485568, Note_on_c, 0, 91, 70
2, 485660, Note_off_c, 0, 91, 100
2, 485664, Note_on_c, 0, 89, 70
2, 485756, Note_off_c, 0, 89, 100
2, 485760, Note_on_c, 0, 92, 70
2, 485852, Note_off_c, 0, 92, 100
2, 485856, Note_on_c, 0, 89, 70
2, 485948, Note_off_c, 0, 89, 100
2, 485952, Note_on_c, 0, 91, 70
2, 486044, Note_off_c, 0, 91, 100
2, 486048, Note_on_c, 0, 89, 70
2, 486140, Note_off_c, 0, 89, 100
2, 486144, Note_on_c, 0, 92, 70
2, 486236, Note_off_c, 0, 92, 100
2, 486240, Note_on_c, 0, 89, 70
2, 486332, Note_off_c, 0, 89, 100
2, 486336, Note_on_c, 0, 91, 70
2, 486428, Note_off_c, 0, 91, 100
2, 486432, Note_on_c, 0, 89, 70
2, 486524, Note_off_c, 0, 89, 100
2, 486528, Note_on_c, 0, 92, 70
2, 486620, Note_off_c, 0, 92, 100
2, 486624, Note_on_c, 0, 89, 70
2, 486716, Note_off_c, 0, 89, 100
2, 486720, Note_on_c, 0, 91, 70
2, 486812, Note_off_c, 0, 91, 100
2, 486816, Note_on_c, 0, 89, 70
2, 486908, Note_off_c, 0, 89, 100
2, 486912, Note_on_c, 0, 93, 70
2, 487004, Note_off_c, 0, 93, 100
2, 487008, Note_on_c, 0, 89, 71
2, 487100, Note_off_c, 0, 89, 100
2, 487104, Note_on_c, 0, 91, 72
2, 487196, Note_off_c, 0, 91, 100
2, 487200, Note_on_c, 0, 89, 73
2, 487292, Note_off_c, 0, 89, 100
2, 487296, Note_on_c, 0, 93, 75
2, 487388, Note_off_c, 0, 93, 100
2, 487392, Note_on_c, 0, 89, 76
2, 487484, Note_off_c, 0, 89, 100
2, 487488, Note_on_c, 0, 91, 77
2, 487580, Note_off_c, 0, 91, 100
2, 487584, Note_on_c, 0, 89, 78
2, 487676, Note_off_c, 0, 89, 100
2, 487680, Note_on_c, 0, 93, 80
2, 487772, Note_off_c, 0, 93, 100
2, 487776, Note_on_c, 0, 89, 81
2, 487868, Note_off_c, 0, 89, 100
2, 487872, Note_on_c, 0, 91, 82
2, 487964, Note_off_c, 0, 91, 100
2, 487968, Note_on_c, 0, 89, 84
2, 488060, Note_off_c, 0, 89, 100
2, 488064, Note_on_c, 0, 93, 85
2, 488156, Note_off_c, 0, 93, 100
2, 488160, Note_on_c, 0, 89, 86
2, 488252, Note_off_c, 0, 89, 100
2, 488256, Note_on_c, 0, 91, 87
2, 488348, Note_off_c, 0, 91, 100
2, 488352, Note_on_c, 0, 89, 89
2, 488444, Note_off_c, 0, 89, 100
2, 488448, Note_on_c, 0, 93, 90
2, 488636, Note_off_c, 0, 93, 100
2, 488640, Note_on_c, 0, 89, 93
2, 488640, Note_on_c, 0, 91, 93
2, 488828, Note_off_c, 0, 89, 100
2, 488828, Note_off_c, 0, 91, 100
2, 488832, Note_on_c, 0, 89, 95
2, 488832, Note_on_c, 0, 91, 95
2, 489020, Note_off_c, 0, 89, 100
2, 489020, Note_off_c, 0, 91, 100
2, 489024, Note_on_c, 0, 89, 98
2, 489024, Note_on_c, 0, 91, 98
2, 489212, Note_off_c, 0, 89, 100
2, 489212, Note_off_c, 0, 91, 100
2, 489216, Note_on_c, 0, 89, 100
2, 489216, Note_on_c, 0, 91, 100
2, 489404, Note_off_c, 0, 89, 100
2, 489404, Note_off_c, 0, 91, 100
2, 489408, Note_on_c, 0, 89, 103
2, 489408, Note_on_c, 0, 91, 103
2, 489596, Note_off_c, 0, 89, 100
2, 489596, Note_off_c, 0, 91, 100
2, 489600, Note_on_c, 0, 89, 105
2, 489600, Note_on_c, 0, 91, 105
2, 489788, Note_off_c, 0, 89, 100
2, 489788, Note_off_c, 0, 91, 100
2, 489792, Note_on_c, 0, 89, 108
2, 489792, Note_on_c, 0, 91, 108
2, 489980, Note_off_c, 0, 89, 100
2, 489980, Note_off_c, 0, 91, 100
2, 489984, Note_on_c, 0, 84, 110
2, 491132, Note_off_c, 0, 84, 100
2, 491136, Note_on_c, 0, 84, 80
2, 491228, Note_off_c, 0, 84, 100
2, 491232, Note_on_c, 0, 82, 80
2, 491324, Note_off_c, 0, 82, 100
2, 491328, Note_on_c, 0, 80, 80
2, 491420, Note_off_c, 0, 80, 100
2, 491424, Note_on_c, 0, 79, 80
2, 491516, Note_off_c, 0, 79, 100
2, 491520, Note_on_c, 0, 80, 80
2, 491612, Note_off_c, 0, 80, 100
2, 491616, Note_on_c, 0, 79, 80
2, 491708, Note_off_c, 0, 79, 100
2, 491712, Note_on_c, 0, 77, 80
2, 491804, Note_off_c, 0, 77, 100
2, 491808, Note_on_c, 0, 76, 80
2, 491900, Note_off_c, 0, 76, 100
2, 491904, Note_on_c, 0, 77, 80
2, 491996, Note_off_c, 0, 77, 100
2, 492000, Note_on_c, 0, 79, 80
2, 492092, Note_off_c, 0, 79, 100
2, 492096, Note_on_c, 0, 80, 80
2, 492188, Note_off_c, 0, 80, 100
2, 492192, Note_on_c, 0, 82, 80
2, 492284, Note_off_c, 0, 82, 100
2, 492288, Note_on_c, 0, 84, 80
2, 492380, Note_off_c, 0, 84, 100
2, 492384, Note_on_c, 0, 85, 80
2, 492476, Note_off_c, 0, 85, 100
2, 492480, Note_on_c, 0, 84, 80
2, 492572, Note_off_c, 0, 84, 100
2, 492576, Note_on_c, 0, 83, 80
2, 492668, Note_off_c, 0, 83, 100
2, 492672, Note_on_c, 0, 84, 80
2, 492764, Note_off_c, 0, 84, 100
2, 492768, Note_on_c, 0, 82, 80
2, 492860, Note_off_c, 0, 82, 100
2, 492864, Note_on_c, 0, 80, 80
2, 492956, Note_off_c, 0, 80, 100
2, 492960, Note_on_c, 0, 79, 80
2, 493052, Note_off_c, 0, 79, 100
2, 493056, Note_on_c, 0, 80, 80
2, 493148, Note_off_c, 0, 80, 100
2, 493152, Note_on_c, 0, 82, 80
2, 493244, Note_off_c, 0, 82, 100
2, 493248, Note_on_c, 0, 80, 80
2, 493340, Note_off_c, 0, 80, 100
2, 493344, Note_on_c, 0, 79, 80
2, 493436, Note_off_c, 0, 79, 100
2, 493440, Note_on_c, 0, 77, 80
2, 493532, Note_off_c, 0, 77, 100
2, 493536, Note_on_c, 0, 76, 80
2, 493628, Note_off_c, 0, 76, 100
2, 493632, Note_on_c, 0, 77, 80
2, 493724, Note_off_c, 0, 77, 100
2, 493728, Note_on_c, 0, 79, 80
2, 493820, Note_off_c, 0, 79, 100
2, 493824, Note_on_c, 0, 80, 80
2, 493824, Note_on_c, 0, 68, 80
2, 494204, Note_off_c, 0, 80, 100
2, 494208, Note_on_c, 0, 77, 80
2, 494396, Note_off_c, 0, 77, 100
2, 494400, Note_on_c, 0, 73, 80
2, 494588, Note_off_c, 0, 68, 100
2, 494588, Note_off_c, 0, 73, 100
2, 494592, Note_on_c, 0, 79, 80
2, 494592, Note_on_c, 0, 67, 80
2, 494972, Note_off_c, 0, 79, 100
2, 494976, Note_on_c, 0, 75, 80
2, 495164, Note_off_c, 0, 75, 100
2, 495168, Note_on_c, 0, 72, 80
2, 495356, Note_off_c, 0, 67, 100
2, 495356, Note_off_c, 0, 72, 100
2, 495360, Note_on_c, 0, 77, 80
2, 495360, Note_on_c, 0, 65, 80
2, 495740, Note_off_c, 0, 77, 100
2, 495744, Note_on_c, 0, 74, 80
2, 495932, Note_off_c, 0, 74, 100
2, 495936, Note_on_c, 0, 71, 80
2, 496124, Note_off_c, 0, 65, 100
2, 496124, Note_off_c, 0, 71, 100
2, 496128, Note_on_c, 0, 72, 110
2, 497276, Note_off_c, 0, 72, 100
2, 497280, Note_on_c, 0, 72, 80
2, 497372, Note_off_c, 0, 72, 100
2, 497376, Note_on_c, 0, 70, 80
2, 497468, Note_off_c, 0, 70, 100
2, 497472, Note_on_c, 0, 69, 80
2, 497564, Note_off_c, 0, 69, 100
2, 497568, Note_on_c, 0, 67, 80
2, 497660, Note_off_c, 0, 67, 100
2, 497664, Note_on_c, 0, 69, 80
2, 497756, Note_off_c, 0, 69, 100
2, 497760, Note_on_c, 0, 67, 80
2, 497852, Note_off_c, 0, 67, 100
2, 497856, Note_on_c, 0, 65, 80
2, 497948, Note_off_c, 0, 65, 100
2, 497952, Note_on_c, 0, 64, 80
2, 498044, Note_off_c, 0, 64, 100
2, 498048, Note_on_c, 0, 65, 80
2, 498140, Note_off_c, 0, 65, 100
2, 498144, Note_on_c, 0, 67, 80
2, 498236, Note_off_c, 0, 67, 100
2, 498240, Note_on_c, 0, 69, 80
2, 498332, Note_off_c, 0, 69, 100
2, 498336, Note_on_c, 0, 70, 80
2, 498428, Note_off_c, 0, 70, 100
2, 498432, Note_on_c, 0, 72, 80
2, 498524, Note_off_c, 0, 72, 100
2, 498528, Note_on_c, 0, 74, 80
2, 498620, Note_off_c, 0, 74, 100
2, 498624, Note_on_c, 0, 72, 80
2, 498716, Note_off_c, 0, 72, 100
2, 498720, Note_on_c, 0, 71, 80
2, 498812, Note_off_c, 0, 71, 100
2, 498816, Note_on_c, 0, 72, 80
2, 498908, Note_off_c, 0, 72, 100
2, 498912, Note_on_c, 0, 70, 80
2, 499004, Note_off_c, 0, 70, 100
2, 499008, Note_on_c, 0, 69, 80
2, 499100, Note_off_c, 0, 69, 100
2, 499104, Note_on_c, 0, 67, 80
2, 499196, Note_off_c, 0, 67, 100
2, 499200, Note_on_c, 0, 69, 80
2, 499292, Note_off_c, 0, 69, 100
2, 499296, Note_on_c, 0, 70, 80
2, 499388, Note_off_c, 0, 70, 100
2, 499392, Note_on_c, 0, 69, 80
2, 499484, Note_off_c, 0, 69, 100
2, 499488, Note_on_c, 0, 67, 80
2, 499580, Note_off_c, 0, 67, 100
2, 499584, Note_on_c, 0, 65, 80
2, 499676, Note_off_c, 0, 65, 100
2, 499680, Note_on_c, 0, 64, 80
2, 499772, Note_off_c, 0, 64, 100
2, 499776, Note_on_c, 0, 65, 80
2, 499868, Note_off_c, 0, 65, 100
2, 499872, Note_on_c, 0, 67, 80
2, 499964, Note_off_c, 0, 67, 100
2, 499968, Note_on_c, 0, 69, 80
2, 499968, Note_on_c, 0, 57, 80
2, 500348, Note_off_c, 0, 69, 100
2, 500352, Note_on_c, 0, 65, 80
2, 500540, Note_off_c, 0, 65, 100
2, 500544, Note_on_c, 0, 62, 80
2, 500732, Note_off_c, 0, 57, 100
2, 500732, Note_off_c, 0, 62, 100
2, 500736, Note_on_c, 0, 67, 80
2, 500736, Note_on_c, 0, 55, 80
2, 501116, Note_off_c, 0, 67, 100
2, 501120, Note_on_c, 0, 64, 80
2, 501308, Note_off_c, 0, 64, 100
2, 501312, Note_on_c, 0, 60, 80
2, 501500, Note_off_c, 0, 60, 100
2, 501504, Note_on_c, 0, 65, 80
2, 501884, Note_off_c, 0, 65, 100
2, 501888, Note_on_c, 0, 62, 80
2, 502076, Note_off_c, 0, 62, 100
2, 502080, Note_on_c, 0, 59, 80
2, 502268, Note_off_c, 0, 55, 100
2, 502268, Note_off_c, 0, 59, 100
2, 502272, Note_on_c, 0, 60, 80
2, 502272, Note_on_c, 0, 55, 80
2, 502652, Note_off_c, 0, 60, 100
2, 502652, Note_off_c, 0, 55, 100
2, 502656, Note_on_c, 0, 72, 80
2, 502844, Note_off_c, 0, 72, 100
2, 502848, Note_on_c, 0, 71, 80
2, 503036, Note_off_c, 0, 71, 100
2, 503040, Note_on_c, 0, 69, 80
2, 503420, Note_off_c, 0, 69, 100
2, 503424, Note_on_c, 0, 65, 80
2, 503612, Note_off_c, 0, 65, 100
2, 503616, Note_on_c, 0, 62, 80
2, 503804, Note_off_c, 0, 62, 100
2, 503808, Note_on_c, 0, 67, 80
2, 504188, Note_off_c, 0, 67, 100
2, 504192, Note_on_c, 0, 64, 80
2, 504380, Note_off_c, 0, 64, 100
2, 504384, Note_on_c, 0, 60, 80
2, 504572, Note_off_c, 0, 60, 100
2, 504576, Note_on_c, 0, 65, 80
2, 504956, Note_off_c, 0, 65, 100
2, 504960, Note_on_c, 0, 62, 80
2, 505148, Note_off_c, 0, 62, 100
2, 505152, Note_on_c, 0, 59, 80
2, 505340, Note_off_c, 0, 59, 100
2, 505344, Note_on_c, 0, 60, 80
2, 505724, Note_off_c, 0, 60, 100
2, 505728, Note_on_c, 0, 77, 80
2, 505916, Note_off_c, 0, 77, 100
2, 505920, Note_on_c, 0, 76, 80
2, 506108, Note_off_c, 0, 76, 100
2, 506112, Note_on_c, 0, 74, 80
2, 506492, Note_off_c, 0, 74, 100
2, 506496, Note_on_c, 0, 70, 80
2, 506684, Note_off_c, 0, 70, 100
2, 506688, Note_on_c, 0, 67, 80
2, 506876, Note_off_c, 0, 67, 100
2, 506880, Note_on_c, 0, 72, 80
2, 507260, Note_off_c, 0, 72, 100
2, 507264, Note_on_c, 0, 69, 80
2, 507452, Note_off_c, 0, 69, 100
2, 507456, Note_on_c, 0, 65, 80
2, 507644, Note_off_c, 0, 65, 100
2, 507648, Note_on_c, 0, 70, 80
2, 508028, Note_off_c, 0, 70, 100
2, 508032, Note_on_c, 0, 67, 80
2, 508220, Note_off_c, 0, 67, 100
2, 508224, Note_on_c, 0, 64, 80
2, 508412, Note_off_c, 0, 64, 100
2, 508416, Note_on_c, 0, 65, 80
2, 508796, Note_off_c, 0, 65, 100
2, 508800, Note_on_c, 0, 77, 80
2, 508988, Note_off_c, 0, 77, 100
2, 508992, Note_on_c, 0, 75, 80
2, 509180, Note_off_c, 0, 75, 100
2, 509184, Note_on_c, 0, 73, 80
2, 509564, Note_off_c, 0, 73, 100
2, 509568, Note_on_c, 0, 70, 80
2, 509756, Note_off_c, 0, 70, 100
2, 509760, Note_on_c, 0, 67, 80
2, 509948, Note_off_c, 0, 67, 100
2, 509952, Note_on_c, 0, 72, 80
2, 510332, Note_off_c, 0, 72, 100
2, 510336, Note_on_c, 0, 68, 80
2, 510524, Note_off_c, 0, 68, 100
2, 510528, Note_on_c, 0, 65, 80
2, 510716, Note_off_c, 0, 65, 100
2, 510720, Note_on_c, 0, 70, 80
2, 511100, Note_off_c, 0, 70, 100
2, 511104, Note_on_c, 0, 67, 80
2, 511292, Note_off_c, 0, 67, 100
2, 511296, Note_on_c, 0, 64, 80
2, 511484, Note_off_c, 0, 64, 100
2, 511488, Note_on_c, 0, 65, 80
2, 511676, Note_off_c, 0, 65, 100
2, 511680, Note_on_c, 0, 53, 80
2, 511680, Note_on_c, 0, 49, 80
2, 511868, Note_off_c, 0, 53, 100
2, 511868, Note_off_c, 0, 49, 100
2, 511872, Note_on_c, 0, 53, 80
2, 511872, Note_on_c, 0, 49, 80
2, 512060, Note_off_c, 0, 53, 100
2, 512060, Note_off_c, 0, 49, 100
2, 512064, Note_on_c, 0, 53, 80
2, 512064, Note_on_c, 0, 49, 80
2, 512252, Note_off_c, 0, 53, 100
2, 512252, Note_off_c, 0, 49, 100
2, 512256, Note_on_c, 0, 53, 80
2, 512256, Note_on_c, 0, 49, 80
2, 512444, Note_off_c, 0, 53, 100
2, 512444, Note_off_c, 0, 49, 100
2, 512448, Note_on_c, 0, 53, 80
2, 512448, Note_on_c, 0, 49, 80
2, 512636, Note_off_c, 0, 53, 100
2, 512636, Note_off_c, 0, 49, 100
2, 512640, Note_on_c, 0, 53, 80
2, 512640, Note_on_c, 0, 49, 80
2, 512828, Note_off_c, 0, 53, 100
2, 512828, Note_off_c, 0, 49, 100
2, 512832, Note_on_c, 0, 53, 80
2, 512832, Note_on_c, 0, 49, 80
2, 513020, Note_off_c, 0, 53, 100
2, 513020, Note_off_c, 0, 49, 100
2, 513024, Note_on_c, 0, 53, 80
2, 513024, Note_on_c, 0, 49, 80
2, 513212, Note_off_c, 0, 53, 100
2, 513212, Note_off_c, 0, 49, 100
2, 513216, Note_on_c, 0, 53, 80
2, 513216, Note_on_c, 0, 49, 80
2, 513404, Note_off_c, 0, 53, 100
2, 513404, Note_off_c, 0, 49, 100
2, 513408, Note_on_c, 0, 53, 80
2, 513408, Note_on_c, 0, 49, 80
2, 513596, Note_off_c, 0, 53, 100
2, 513596, Note_off_c, 0, 49, 100
2, 513600, Note_on_c, 0, 53, 80
2, 513600, Note_on_c, 0, 49, 80
2, 513788, Note_off_c, 0, 53, 100
2, 513788, Note_off_c, 0, 49, 100
2, 513792, Note_on_c, 0, 53, 80
2, 513792, Note_on_c, 0, 49, 80
2, 513980, Note_off_c, 0, 53, 100
2, 513980, Note_off_c, 0, 49, 100
2, 513984, Note_on_c, 0, 53, 80
2, 513984, Note_on_c, 0, 49, 80
2, 514172, Note_off_c, 0, 53, 100
2, 514172, Note_off_c, 0, 49, 100
2, 514176, Note_on_c, 0, 55, 80
2, 514176, Note_on_c, 0, 51, 80
2, 514364, Note_off_c, 0, 55, 100
2, 514364, Note_off_c, 0, 51, 100
2, 514368, Note_on_c, 0, 55, 80
2, 514368, Note_on_c, 0, 51, 80
2, 514556, Note_off_c, 0, 55, 100
2, 514556, Note_off_c, 0, 51, 100
2, 514560, Note_on_c, 0, 56, 80
2, 514560, Note_on_c, 0, 51, 80
2, 515132, Note_off_c, 0, 56, 100
2, 515132, Note_off_c, 0, 51, 100
2, 515136, Note_on_c, 0, 60, 80
2, 515228, Note_off_c, 0, 60, 100
2, 515232, Note_on_c, 0, 58, 80
2, 515324, Note_off_c, 0, 58, 100
2, 515328, Note_on_c, 0, 56, 80
2, 515516, Note_off_c, 0, 56, 100
2, 516096, Note_on_c, 0, 86, 110
2, 516140, Note_off_c, 0, 86, 100
2, 516144, Note_on_c, 0, 87, 110
2, 516572, Note_off_c, 0, 87, 100
2, 516576, Note_on_c, 0, 85, 110
2, 516668, Note_off_c, 0, 85, 100
2, 516672, Note_on_c, 0, 84, 110
2, 516764, Note_off_c, 0, 84, 100
2, 516768, Note_on_c, 0, 82, 110
2, 516860, Note_off_c, 0, 82, 100
2, 516864, Note_on_c, 0, 81, 110
2, 517244, Note_off_c, 0, 81, 100
2, 517632, Note_on_c, 0, 58, 80
2, 518204, Note_off_c, 0, 58, 100
2, 518208, Note_on_c, 0, 61, 80
2, 518300, Note_off_c, 0, 61, 100
2, 518304, Note_on_c, 0, 60, 80
2, 518396, Note_off_c, 0, 60, 100
2, 518400, Note_on_c, 0, 58, 80
2, 518588, Note_off_c, 0, 58, 100
2, 519168, Note_on_c, 0, 88, 110
2, 519212, Note_off_c, 0, 88, 100
2, 519216, Note_on_c, 0, 89, 110
2, 519644, Note_off_c, 0, 89, 100
2, 519648, Note_on_c, 0, 87, 110
2, 519740, Note_off_c, 0, 87, 100
2, 519744, Note_on_c, 0, 86, 110
2, 519836, Note_off_c, 0, 86, 100
2, 519840, Note_on_c, 0, 84, 110
2, 519932, Note_off_c, 0, 84, 100
2, 519936, Note_on_c, 0, 83, 110
2, 520316, Note_off_c, 0, 83, 100
2, 520704, Note_on_c, 0, 60, 110
2, 520892, Note_off_c, 0, 60, 100
2, 520896, Note_on_c, 0, 63, 110
2, 520988, Note_off_c, 0, 63, 100
2, 520992, Note_on_c, 0, 62, 110
2, 521084, Note_off_c, 0, 62, 100
2, 521088, Note_on_c, 0, 60, 110
2, 521276, Note_off_c, 0, 60, 100
2, 521472, Note_on_c, 0, 80, 110
2, 521564, Note_off_c, 0, 80, 100
2, 521568, Note_on_c, 0, 79, 110
2, 521660, Note_off_c, 0, 79, 100
2, 521664, Note_on_c, 0, 77, 110
2, 521756, Note_off_c, 0, 77, 100
2, 521760, Note_on_c, 0, 75, 110
2, 521852, Note_off_c, 0, 75, 100
2, 521856, Note_on_c, 0, 74, 110
2, 522236, Note_off_c, 0, 74, 100
2, 522240, Note_on_c, 0, 64, 110
2, 522428, Note_off_c, 0, 64, 100
2, 522432, Note_on_c, 0, 67, 110
2, 522524, Note_off_c, 0, 67, 100
2, 522528, Note_on_c, 0, 65, 110
2, 522620, Note_off_c, 0, 65, 100
2, 522624, Note_on_c, 0, 64, 110
2, 522812, Note_off_c, 0, 64, 100
2, 523008, Note_on_c, 0, 84, 110
2, 523100, Note_off_c, 0, 84, 100
2, 523104, Note_on_c, 0, 82, 110
2, 523196, Note_off_c, 0, 82, 100
2, 523200, Note_on_c, 0, 80, 110
2, 523292, Note_off_c, 0, 80, 100
2, 523296, Note_on_c, 0, 79, 110
2, 523388, Note_off_c, 0, 79, 100
2, 523392, Note_on_c, 0, 77, 110
2, 523772, Note_off_c, 0, 77, 100
2, 523776, Note_on_c, 0, 87, 120
2, 523868, Note_off_c, 0, 87, 100
2, 523872, Note_on_c, 0, 86, 120
2, 523964, Note_off_c, 0, 86, 100
2, 523968, Note_on_c, 0, 84, 120
2, 524060, Note_off_c, 0, 84, 100
2, 524064, Note_on_c, 0, 83, 120
2, 524156, Note_off_c, 0, 83, 100
2, 524160, Note_on_c, 0, 84, 120
2, 524540, Note_off_c, 0, 84, 100
2, 524544, Note_on_c, 0, 75, 120
2, 524636, Note_off_c, 0, 75, 100
2, 524640, Note_on_c, 0, 74, 120
2, 524732, Note_off_c, 0, 74, 100
2, 524736, Note_on_c, 0, 72, 120
2, 524828, Note_off_c, 0, 72, 100
2, 524832, Note_on_c, 0, 71, 120
2, 524924, Note_off_c, 0, 71, 100
2, 524928, Note_on_c, 0, 72, 120
2, 525308, Note_off_c, 0, 72, 100
2, 525312, Note_on_c, 0, 63, 120
2, 525404, Note_off_c, 0, 63, 100
2, 525408, Note_on_c, 0, 62, 120
2, 525500, Note_off_c, 0, 62, 100
2, 525504, Note_on_c, 0, 60, 120
2, 525596, Note_off_c, 0, 60, 100
2, 525600, Note_on_c, 0, 59, 120
2, 525692, Note_off_c, 0, 59, 100
2, 525696, Note_on_c, 0, 60, 120
2, 526076, Note_off_c, 0, 60, 100
2, 526080, Note_on_c, 0, 75, 120
2, 526172, Note_off_c, 0, 75, 100
2, 526176, Note_on_c, 0, 74, 120
2, 526268, Note_off_c, 0, 74, 100
2, 526272, Note_on_c, 0, 72, 120
2, 526364, Note_off_c, 0, 72, 100
2, 526368, Note_on_c, 0, 71, 120
2, 526460, Note_off_c, 0, 71, 100
2, 526464, Note_on_c, 0, 72, 120
2, 526556, Note_off_c, 0, 72, 100
2, 526560, Note_on_c, 0, 74, 120
2, 526652, Note_off_c, 0, 74, 100
2, 526656, Note_on_c, 0, 75, 120
2, 526748, Note_off_c, 0, 75, 100
2, 526752, Note_on_c, 0, 78, 120
2, 526844, Note_off_c, 0, 78, 100
2, 526848, Note_on_c, 0, 79, 120
2, 527036, Note_off_c, 0, 79, 100
2, 527040, Note_on_c, 0, 79, 80
2, 527040, Note_on_c, 0, 67, 80
2, 527228, Note_off_c, 0, 79, 100
2, 527228, Note_off_c, 0, 67, 100
2, 527232, Note_on_c, 0, 79, 80
2, 527232, Note_on_c, 0, 67, 80
2, 527420, Note_off_c, 0, 79, 100
2, 527420, Note_off_c, 0, 67, 100
2, 527424, Note_on_c, 0, 79, 80
2, 527424, Note_on_c, 0, 67, 80
2, 527612, Note_off_c, 0, 79, 100
2, 527612, Note_off_c, 0, 67, 100
2, 527616, Note_on_c, 0, 79, 80
2, 527616, Note_on_c, 0, 67, 80
2, 527804, Note_off_c, 0, 79, 100
2, 527804, Note_off_c, 0, 67, 100
2, 527808, Note_on_c, 0, 79, 80
2, 527808, Note_on_c, 0, 67, 80
2, 527996, Note_off_c, 0, 79, 100
2, 527996, Note_off_c, 0, 67, 100
2, 528000, Note_on_c, 0, 79, 80
2, 528000, Note_on_c, 0, 67, 80
2, 528188, Note_off_c, 0, 79, 100
2, 528188, Note_off_c, 0, 67, 100
2, 528192, Note_on_c, 0, 79, 80
2, 528192, Note_on_c, 0, 67, 80
2, 528380, Note_off_c, 0, 79, 100
2, 528380, Note_off_c, 0, 67, 100
2, 528384, Note_on_c, 0, 79, 70
2, 528384, Note_on_c, 0, 73, 70
2, 528384, Note_on_c, 0, 70, 70
2, 528384, Note_on_c, 0, 67, 70
2, 528572, Note_off_c, 0, 79, 100
2, 528572, Note_off_c, 0, 73, 100
2, 528572, Note_off_c, 0, 70, 100
2, 528572, Note_off_c, 0, 67, 100
2, 528576, Note_on_c, 0, 79, 75
2, 528576, Note_on_c, 0, 73, 75
2, 528576, Note_on_c, 0, 70, 75
2, 528576, Note_on_c, 0, 67, 75
2, 528764, Note_off_c, 0, 79, 100
2, 528764, Note_off_c, 0, 73, 100
2, 528764, Note_off_c, 0, 70, 100
2, 528764, Note_off_c, 0, 67, 100
2, 528768, Note_on_c, 0, 79, 80
2, 528768, Note_on_c, 0, 73, 80
2, 528768, Note_on_c, 0, 70, 80
2, 528768, Note_on_c, 0, 67, 80
2, 528956, Note_off_c, 0, 79, 100
2, 528956, Note_off_c, 0, 73, 100
2, 528956, Note_off_c, 0, 70, 100
2, 528956, Note_off_c, 0, 67, 100
2, 528960, Note_on_c, 0, 79, 85
2, 528960, Note_on_c, 0, 73, 85
2, 528960, Note_on_c, 0, 70, 85
2, 528960, Note_on_c, 0, 67, 85
2, 529148, Note_off_c, 0, 79, 100
2, 529148, Note_off_c, 0, 73, 100
2, 529148, Note_off_c, 0, 70, 100
2, 529148, Note_off_c, 0, 67, 100
2, 529152, Note_on_c, 0, 79, 90
2, 529152, Note_on_c, 0, 73, 90
2, 529152, Note_on_c, 0, 70, 90
2, 529152, Note_on_c, 0, 67, 90
2, 529340, Note_off_c, 0, 79, 100
2, 529340, Note_off_c, 0, 73, 100
2, 529340, Note_off_c, 0, 70, 100
2, 529340, Note_off_c, 0, 67, 100
2, 529344, Note_on_c, 0, 79, 95
2, 529344, Note_on_c, 0, 73, 95
2, 529344, Note_on_c, 0, 70, 95
2, 529344, Note_on_c, 0, 67, 95
2, 529532, Note_off_c, 0, 79, 100
2, 529532, Note_off_c, 0, 73, 100
2, 529532, Note_off_c, 0, 70, 100
2, 529532, Note_off_c, 0, 67, 100
2, 529536, Note_on_c, 0, 79, 100
2, 529536, Note_on_c, 0, 73, 100
2, 529536, Note_on_c, 0, 70, 100
2, 529536, Note_on_c, 0, 67, 100
2, 529724, Note_off_c, 0, 79, 100
2, 529724, Note_off_c, 0, 73, 100
2, 529724, Note_off_c, 0, 70, 100
2, 529724, Note_off_c, 0, 67, 100
2, 529728, Note_on_c, 0, 79, 105
2, 529728, Note_on_c, 0, 73, 105
2, 529728, Note_on_c, 0, 70, 105
2, 529728, Note_on_c, 0, 67, 105
2, 529916, Note_off_c, 0, 79, 100
2, 529916, Note_off_c, 0, 73, 100
2, 529916, Note_off_c, 0, 70, 100
2, 529916, Note_off_c, 0, 67, 100
2, 529920, Note_on_c, 0, 79, 70
2, 529920, Note_on_c, 0, 74, 70
2, 529920, Note_on_c, 0, 71, 70
2, 529920, Note_on_c, 0, 67, 70
2, 530108, Note_off_c, 0, 79, 100
2, 530108, Note_off_c, 0, 74, 100
2, 530108, Note_off_c, 0, 71, 100
2, 530108, Note_off_c, 0, 67, 100
2, 530112, Note_on_c, 0, 79, 70
2, 530112, Note_on_c, 0, 91, 70
2, 530492, Note_off_c, 0, 79, 100
2, 530492, Note_off_c, 0, 91, 100
2, 530496, Note_on_c, 0, 89, 70
2, 530496, Note_on_c, 0, 77, 70
2, 530876, Note_off_c, 0, 89, 100
2, 530876, Note_off_c, 0, 77, 100
2, 530880, Note_on_c, 0, 88, 70
2, 530880, Note_on_c, 0, 76, 70
2, 531260, Note_off_c, 0, 88, 100
2, 531260, Note_off_c, 0, 76, 100
2, 531264, Note_on_c, 0, 74, 70
2, 531264, Note_on_c, 0, 86, 70
2, 531644, Note_off_c, 0, 74, 100
2, 531644, Note_off_c, 0, 86, 100
2, 531648, Note_on_c, 0, 84, 70
2, 531648, Note_on_c, 0, 72, 70
2, 532028, Note_off_c, 0, 84, 100
2, 532028, Note_off_c, 0, 72, 100
2, 532032, Note_on_c, 0, 83, 70
2, 532032, Note_on_c, 0, 71, 70
2, 532412, Note_off_c, 0, 83, 100
2, 532412, Note_off_c, 0, 71, 100
2, 532416, Note_on_c, 0, 81, 70
2, 532416, Note_on_c, 0, 69, 70
2, 532796, Note_off_c, 0, 81, 100
2, 532796, Note_off_c, 0, 69, 100
2, 532800, Note_on_c, 0, 79, 70
2, 532800, Note_on_c, 0, 67, 70
2, 532988, Note_off_c, 0, 79, 100
2, 532988, Note_off_c, 0, 67, 100
2, 532992, Note_on_c, 0, 77, 70
2, 532992, Note_on_c, 0, 65, 70
2, 533084, Note_off_c, 0, 77, 100
2, 533084, Note_off_c, 0, 65, 100
2, 533088, Note_on_c, 0, 62, 70
2, 533180, Note_off_c, 0, 62, 100
2, 533184, Note_on_c, 0, 64, 70
2, 533276, Note_off_c, 0, 64, 100
2, 533280, Note_on_c, 0, 65, 70
2, 533372, Note_off_c, 0, 65, 100
2, 533376, Note_on_c, 0, 67, 70
2, 533468, Note_off_c, 0, 67, 100
2, 533472, Note_on_c, 0, 69, 70
2, 533564, Note_off_c, 0, 69, 100
2, 533568, Note_on_c, 0, 71, 70
2, 533660, Note_off_c, 0, 71, 100
2, 533664, Note_on_c, 0, 73, 70
2, 533756, Note_off_c, 0, 73, 100
2, 533760, Note_on_c, 0, 74, 70
2, 533852, Note_off_c, 0, 74, 100
2, 533856, Note_on_c, 0, 65, 70
2, 533948, Note_off_c, 0, 65, 100
2, 533952, Note_on_c, 0, 67, 70
2, 534044, Note_off_c, 0, 67, 100
2, 534048, Note_on_c, 0, 69, 70
2, 534140, Note_off_c, 0, 69, 100
2, 534144, Note_on_c, 0, 71, 70
2, 534236, Note_off_c, 0, 71, 100
2, 534240, Note_on_c, 0, 73, 70
2, 534332, Note_off_c, 0, 73, 100
2, 534336, Note_on_c, 0, 74, 70
2, 534428, Note_off_c, 0, 74, 100
2, 534432, Note_on_c, 0, 76, 70
2, 534524, Note_off_c, 0, 76, 100
2, 534528, Note_on_c, 0, 77, 70
2, 534620, Note_off_c, 0, 77, 100
2, 534624, Note_on_c, 0, 74, 70
2, 534716, Note_off_c, 0, 74, 100
2, 534720, Note_on_c, 0, 76, 70
2, 534812, Note_off_c, 0, 76, 100
2, 534816, Note_on_c, 0, 77, 70
2, 534908, Note_off_c, 0, 77, 100
2, 534912, Note_on_c, 0, 79, 70
2, 535004, Note_off_c, 0, 79, 100
2, 535008, Note_on_c, 0, 81, 70
2, 535100, Note_off_c, 0, 81, 100
2, 535104, Note_on_c, 0, 83, 70
2, 535196, Note_off_c, 0, 83, 100
2, 535200, Note_on_c, 0, 85, 70
2, 535292, Note_off_c, 0, 85, 100
2, 535296, Note_on_c, 0, 86, 70
2, 535388, Note_off_c, 0, 86, 100
2, 535392, Note_on_c, 0, 85, 70
2, 535484, Note_off_c, 0, 85, 100
2, 535488, Note_on_c, 0, 86, 70
2, 535580, Note_off_c, 0, 86, 100
2, 535584, Note_on_c, 0, 88, 70
2, 535676, Note_off_c, 0, 88, 100
2, 535680, Note_on_c, 0, 89, 70
2, 535772, Note_off_c, 0, 89, 100
2, 535776, Note_on_c, 0, 85, 70
2, 535868, Note_off_c, 0, 85, 100
2, 535872, Note_on_c, 0, 86, 70
2, 535964, Note_off_c, 0, 86, 100
2, 535968, Note_on_c, 0, 88, 70
2, 536060, Note_off_c, 0, 88, 100
2, 536064, Note_on_c, 0, 89, 70
2, 536252, Note_off_c, 0, 89, 100
2, 536256, Note_on_c, 0, 89, 70
2, 536256, Note_on_c, 0, 77, 70
2, 536636, Note_off_c, 0, 89, 100
2, 536636, Note_off_c, 0, 77, 100
2, 536640, Note_on_c, 0, 76, 70
2, 536640, Note_on_c, 0, 88, 70
2, 537020, Note_off_c, 0, 76, 100
2, 537020, Note_off_c, 0, 88, 100
2, 537024, Note_on_c, 0, 74, 70
2, 537024, Note_on_c, 0, 86, 70
2, 537404, Note_off_c, 0, 74, 100
2, 537404, Note_off_c, 0, 86, 100
2, 537408, Note_on_c, 0, 72, 70
2, 537408, Note_on_c, 0, 84, 70
2, 537788, Note_off_c, 0, 72, 100
2, 537788, Note_off_c, 0, 84, 100
2, 537792, Note_on_c, 0, 83, 70
2, 537792, Note_on_c, 0, 71, 70
2, 538172, Note_off_c, 0, 83, 100
2, 538172, Note_off_c, 0, 71, 100
2, 538176, Note_on_c, 0, 81, 70
2, 538176, Note_on_c, 0, 69, 70
2, 538556, Note_off_c, 0, 81, 100
2, 538556, Note_off_c, 0, 69, 100
2, 538560, Note_on_c, 0, 67, 70
2, 538560, Note_on_c, 0, 79, 70
2, 538940, Note_off_c, 0, 67, 100
2, 538940, Note_off_c, 0, 79, 100
2, 538944, Note_on_c, 0, 77, 70
2, 538944, Note_on_c, 0, 65, 70
2, 539132, Note_off_c, 0, 77, 100
2, 539132, Note_off_c, 0, 65, 100
2, 539136, Note_on_c, 0, 76, 70
2, 539136, Note_on_c, 0, 64, 70
2, 539228, Note_off_c, 0, 76, 100
2, 539228, Note_off_c, 0, 64, 100
2, 539232, Note_on_c, 0, 64, 70
2, 539324, Note_off_c, 0, 64, 100
2, 539328, Note_on_c, 0, 65, 70
2, 539420, Note_off_c, 0, 65, 100
2, 539424, Note_on_c, 0, 67, 70
2, 539516, Note_off_c, 0, 67, 100
2, 539520, Note_on_c, 0, 69, 70
2, 539612, Note_off_c, 0, 69, 100
2, 539616, Note_on_c, 0, 71, 70
2, 539708, Note_off_c, 0, 71, 100
2, 539712, Note_on_c, 0, 72, 70
2, 539804, Note_off_c, 0, 72, 100
2, 539808, Note_on_c, 0, 74, 70
2, 539900, Note_off_c, 0, 74, 100
2, 539904, Note_on_c, 0, 76, 70
2, 539996, Note_off_c, 0, 76, 100
2, 540000, Note_on_c, 0, 69, 70
2, 540092, Note_off_c, 0, 69, 100
2, 540096, Note_on_c, 0, 71, 70
2, 540188, Note_off_c, 0, 71, 100
2, 540192, Note_on_c, 0, 72, 70
2, 540284, Note_off_c, 0, 72, 100
2, 540288, Note_on_c, 0, 74, 70
2, 540380, Note_off_c, 0, 74, 100
2, 540384, Note_on_c, 0, 76, 70
2, 540476, Note_off_c, 0, 76, 100
2, 540480, Note_on_c, 0, 78, 70
2, 540572, Note_off_c, 0, 78, 100
2, 540576, Note_on_c, 0, 80, 70
2, 540668, Note_off_c, 0, 80, 100
2, 540672, Note_on_c, 0, 81, 70
2, 540764, Note_off_c, 0, 81, 100
2, 540768, Note_on_c, 0, 76, 70
2, 540860, Note_off_c, 0, 76, 100
2, 540864, Note_on_c, 0, 78, 70
2, 540956, Note_off_c, 0, 78, 100
2, 540960, Note_on_c, 0, 80, 70
2, 541052, Note_off_c, 0, 80, 100
2, 541056, Note_on_c, 0, 81, 70
2, 541148, Note_off_c, 0, 81, 100
2, 541152, Note_on_c, 0, 83, 70
2, 541244, Note_off_c, 0, 83, 100
2, 541248, Note_on_c, 0, 84, 70
2, 541340, Note_off_c, 0, 84, 100
2, 541344, Note_on_c, 0, 86, 70
2, 541436, Note_off_c, 0, 86, 100
2, 541440, Note_on_c, 0, 88, 70
2, 541532, Note_off_c, 0, 88, 100
2, 541536, Note_on_c, 0, 86, 70
2, 541628, Note_off_c, 0, 86, 100
2, 541632, Note_on_c, 0, 84, 70
2, 541724, Note_off_c, 0, 84, 100
2, 541728, Note_on_c, 0, 83, 70
2, 541820, Note_off_c, 0, 83, 100
2, 541824, Note_on_c, 0, 81, 70
2, 541916, Note_off_c, 0, 81, 100
2, 541920, Note_on_c, 0, 83, 70
2, 542012, Note_off_c, 0, 83, 100
2, 542016, Note_on_c, 0, 84, 70
2, 542108, Note_off_c, 0, 84, 100
2, 542112, Note_on_c, 0, 81, 70
2, 542204, Note_off_c, 0, 81, 100
2, 542304, Note_on_c, 0, 65, 70
2, 542396, Note_off_c, 0, 65, 100
2, 542400, Note_on_c, 0, 67, 71
2, 542492, Note_off_c, 0, 67, 100
2, 542496, Note_on_c, 0, 69, 72
2, 542588, Note_off_c, 0, 69, 100
2, 542592, Note_on_c, 0, 71, 73
2, 542684, Note_off_c, 0, 71, 100
2, 542688, Note_on_c, 0, 72, 74
2, 542780, Note_off_c, 0, 72, 100
2, 542784, Note_on_c, 0, 74, 75
2, 542876, Note_off_c, 0, 74, 100
2, 542880, Note_on_c, 0, 76, 75
2, 542972, Note_off_c, 0, 76, 100
2, 542976, Note_on_c, 0, 77, 76
2, 543068, Note_off_c, 0, 77, 100
2, 543072, Note_on_c, 0, 71, 77
2, 543164, Note_off_c, 0, 71, 100
2, 543168, Note_on_c, 0, 72, 78
2, 543260, Note_off_c, 0, 72, 100
2, 543264, Note_on_c, 0, 74, 79
2, 543356, Note_off_c, 0, 74, 100
2, 543360, Note_on_c, 0, 76, 80
2, 543452, Note_off_c, 0, 76, 100
2, 543456, Note_on_c, 0, 77, 81
2, 543548, Note_off_c, 0, 77, 100
2, 543552, Note_on_c, 0, 79, 81
2, 543644, Note_off_c, 0, 79, 100
2, 543648, Note_on_c, 0, 81, 82
2, 543740, Note_off_c, 0, 81, 100
2, 543744, Note_on_c, 0, 83, 83
2, 543836, Note_off_c, 0, 83, 100
2, 543840, Note_on_c, 0, 77, 84
2, 543932, Note_off_c, 0, 77, 100
2, 543936, Note_on_c, 0, 79, 85
2, 544028, Note_off_c, 0, 79, 100
2, 544032, Note_on_c, 0, 81, 86
2, 544124, Note_off_c, 0, 81, 100
2, 544128, Note_on_c, 0, 83, 87
2, 544220, Note_off_c, 0, 83, 100
2, 544224, Note_on_c, 0, 84, 87
2, 544316, Note_off_c, 0, 84, 100
2, 544320, Note_on_c, 0, 86, 88
2, 544412, Note_off_c, 0, 86, 100
2, 544416, Note_on_c, 0, 88, 89
2, 544508, Note_off_c, 0, 88, 100
2, 544512, Note_on_c, 0, 89, 90
2, 544604, Note_off_c, 0, 89, 100
2, 544608, Note_on_c, 0, 88, 91
2, 544700, Note_off_c, 0, 88, 100
2, 544704, Note_on_c, 0, 86, 92
2, 544796, Note_off_c, 0, 86, 100
2, 544800, Note_on_c, 0, 84, 93
2, 544892, Note_off_c, 0, 84, 100
2, 544896, Note_on_c, 0, 83, 93
2, 544988, Note_off_c, 0, 83, 100
2, 544992, Note_on_c, 0, 84, 94
2, 545084, Note_off_c, 0, 84, 100
2, 545088, Note_on_c, 0, 86, 95
2, 545180, Note_off_c, 0, 86, 100
2, 545184, Note_on_c, 0, 83, 96
2, 545276, Note_off_c, 0, 83, 100
2, 545376, Note_on_c, 0, 79, 98
2, 545468, Note_off_c, 0, 79, 100
2, 545472, Note_on_c, 0, 81, 99
2, 545564, Note_off_c, 0, 81, 100
2, 545568, Note_on_c, 0, 83, 99
2, 545660, Note_off_c, 0, 83, 100
2, 545664, Note_on_c, 0, 84, 100
2, 545756, Note_off_c, 0, 84, 100
2, 545760, Note_on_c, 0, 86, 101
2, 545852, Note_off_c, 0, 86, 100
2, 545856, Note_on_c, 0, 88, 102
2, 545948, Note_off_c, 0, 88, 100
2, 545952, Note_on_c, 0, 89, 103
2, 546044, Note_off_c, 0, 89, 100
2, 546048, Note_on_c, 0, 91, 104
2, 546140, Note_off_c, 0, 91, 100
2, 546144, Note_on_c, 0, 89, 104
2, 546236, Note_off_c, 0, 89, 100
2, 546240, Note_on_c, 0, 88, 105
2, 546332, Note_off_c, 0, 88, 100
2, 546336, Note_on_c, 0, 86, 106
2, 546428, Note_off_c, 0, 86, 100
2, 546432, Note_on_c, 0, 85, 107
2, 546524, Note_off_c, 0, 85, 100
2, 546528, Note_on_c, 0, 86, 108
2, 546620, Note_off_c, 0, 86, 100
2, 546624, Note_on_c, 0, 88, 109
2, 546716, Note_off_c, 0, 88, 100
2, 546720, Note_on_c, 0, 85, 110
2, 546812, Note_off_c, 0, 85, 100
2, 546912, Note_on_c, 0, 73, 110
2, 547004, Note_off_c, 0, 73, 100
2, 547008, Note_on_c, 0, 74, 110
2, 547100, Note_off_c, 0, 74, 100
2, 547104, Note_on_c, 0, 76, 110
2, 547196, Note_off_c, 0, 76, 100
2, 547200, Note_on_c, 0, 77, 110
2, 547292, Note_off_c, 0, 77, 100
2, 547296, Note_on_c, 0, 79, 110
2, 547388, Note_off_c, 0, 79, 100
2, 547392, Note_on_c, 0, 81, 110
2, 547484, Note_off_c, 0, 81, 100
2, 547488, Note_on_c, 0, 77, 110
2, 547676, Note_off_c, 0, 77, 100
2, 547680, Note_on_c, 0, 75, 110
2, 547772, Note_off_c, 0, 75, 100
2, 547776, Note_on_c, 0, 76, 110
2, 547868, Note_off_c, 0, 76, 100
2, 547872, Note_on_c, 0, 77, 110
2, 547964, Note_off_c, 0, 77, 100
2, 547968, Note_on_c, 0, 79, 110
2, 548060, Note_off_c, 0, 79, 100
2, 548064, Note_on_c, 0, 81, 110
2, 548156, Note_off_c, 0, 81, 100
2, 548160, Note_on_c, 0, 83, 110
2, 548252, Note_off_c, 0, 83, 100
2, 548256, Note_on_c, 0, 79, 110
2, 548444, Note_off_c, 0, 79, 100
2, 548448, Note_on_c, 0, 76, 110
2, 548540, Note_off_c, 0, 76, 100
2, 548544, Note_on_c, 0, 77, 110
2, 548636, Note_off_c, 0, 77, 100
2, 548640, Note_on_c, 0, 79, 110
2, 548732, Note_off_c, 0, 79, 100
2, 548736, Note_on_c, 0, 81, 110
2, 548828, Note_off_c, 0, 81, 100
2, 548832, Note_on_c, 0, 83, 110
2, 548924, Note_off_c, 0, 83, 100
2, 548928, Note_on_c, 0, 84, 110
2, 549020, Note_off_c, 0, 84, 100
2, 549024, Note_on_c, 0, 81, 110
2, 549212, Note_off_c, 0, 81, 100
2, 549216, Note_on_c, 0, 78, 110
2, 549308, Note_off_c, 0, 78, 100
2, 549312, Note_on_c, 0, 79, 110
2, 549404, Note_off_c, 0, 79, 100
2, 549408, Note_on_c, 0, 81, 110
2, 549500, Note_off_c, 0, 81, 100
2, 549504, Note_on_c, 0, 83, 110
2, 549596, Note_off_c, 0, 83, 100
2, 549600, Note_on_c, 0, 84, 110
2, 549692, Note_off_c, 0, 84, 100
2, 549696, Note_on_c, 0, 86, 110
2, 549788, Note_off_c, 0, 86, 100
2, 549792, Note_on_c, 0, 83, 110
2, 549980, Note_off_c, 0, 83, 100
2, 549984, Note_on_c, 0, 80, 110
2, 550076, Note_off_c, 0, 80, 100
2, 550080, Note_on_c, 0, 81, 110
2, 550172, Note_off_c, 0, 81, 100
2, 550176, Note_on_c, 0, 83, 110
2, 550268, Note_off_c, 0, 83, 100
2, 550272, Note_on_c, 0, 84, 110
2, 550364, Note_off_c, 0, 84, 100
2, 550368, Note_on_c, 0, 86, 110
2, 550460, Note_off_c, 0, 86, 100
2, 550464, Note_on_c, 0, 88, 110
2, 550556, Note_off_c, 0, 88, 100
2, 550560, Note_on_c, 0, 84, 110
2, 550748, Note_off_c, 0, 84, 100
2, 550752, Note_on_c, 0, 82, 110
2, 550844, Note_off_c, 0, 82, 100
2, 550848, Note_on_c, 0, 83, 110
2, 550940, Note_off_c, 0, 83, 100
2, 550944, Note_on_c, 0, 84, 110
2, 551036, Note_off_c, 0, 84, 100
2, 551040, Note_on_c, 0, 86, 110
2, 551132, Note_off_c, 0, 86, 100
2, 551136, Note_on_c, 0, 88, 110
2, 551228, Note_off_c, 0, 88, 100
2, 551232, Note_on_c, 0, 89, 110
2, 551324, Note_off_c, 0, 89, 100
2, 551328, Note_on_c, 0, 86, 110
2, 551420, Note_off_c, 0, 86, 100
2, 551424, Control_c, 0, 64, 127
2, 551616, Note_on_c, 0, 79, 110
2, 551676, Note_off_c, 0, 79, 100
2, 551680, Note_on_c, 0, 84, 110
2, 551740, Note_off_c, 0, 84, 100
2, 551744, Note_on_c, 0, 91, 110
2, 551800, Control_c, 0, 64, 0
2, 551804, Note_off_c, 0, 91, 100
2, 551808, Control_c, 0, 64, 127
2, 552000, Note_on_c, 0, 79, 110
2, 552060, Note_off_c, 0, 79, 100
2, 552064, Note_on_c, 0, 84, 110
2, 552124, Note_off_c, 0, 84, 100
2, 552128, Note_on_c, 0, 91, 110
2, 552184, Control_c, 0, 64, 0
2, 552188, Note_off_c, 0, 91, 100
2, 552192, Control_c, 0, 64, 127
2, 552384, Note_on_c, 0, 80, 110
2, 552444, Note_off_c, 0, 80, 100
2, 552448, Note_on_c, 0, 84, 110
2, 552508, Note_off_c, 0, 84, 100
2, 552512, Note_on_c, 0, 92, 110
2, 552568, Control_c, 0, 64, 0
2, 552572, Note_off_c, 0, 92, 100
2, 552576, Control_c, 0, 64, 127
2, 552768, Note_on_c, 0, 80, 110
2, 552828, Note_off_c, 0, 80, 100
2, 552832, Note_on_c, 0, 84, 110
2, 552892, Note_off_c, 0, 84, 100
2, 552896, Note_on_c, 0, 92, 110
2, 552952, Control_c, 0, 64, 0
2, 552956, Note_off_c, 0, 92, 100
2, 552960, Note_on_c, 0, 81, 110
2, 553052, Note_off_c, 0, 81, 100
2, 553056, Note_on_c, 0, 93, 110
2, 553148, Note_off_c, 0, 93, 100
2, 553152, Note_on_c, 0, 91, 110
2, 553244, Note_off_c, 0, 91, 100
2, 553248, Note_on_c, 0, 89, 110
2, 553340, Note_off_c, 0, 89, 100
2, 553344, Note_on_c, 0, 88, 110
2, 553436, Note_off_c, 0, 88, 100
2, 553440, Note_on_c, 0, 86, 110
2, 553532, Note_off_c, 0, 86, 100
2, 553536, Note_on_c, 0, 84, 110
2, 553628, Note_off_c, 0, 84, 100
2, 553632, Note_on_c, 0, 83, 110
2, 553724, Note_off_c, 0, 83, 100
2, 553728, Note_on_c, 0, 81, 110
2, 553820, Note_off_c, 0, 81, 100
2, 553824, Note_on_c, 0, 79, 110
2, 553916, Note_off_c, 0, 79, 100
2, 553920, Note_on_c, 0, 77, 110
2, 554012, Note_off_c, 0, 77, 100
2, 554016, Note_on_c, 0, 76, 110
2, 554108, Note_off_c, 0, 76, 100
2, 554112, Note_on_c, 0, 74, 110
2, 554204, Note_off_c, 0, 74, 100
2, 554208, Note_on_c, 0, 72, 110
2, 554300, Note_off_c, 0, 72, 100
2, 554304, Note_on_c, 0, 71, 110
2, 554396, Note_off_c, 0, 71, 100
2, 554400, Note_on_c, 0, 69, 110
2, 554492, Note_off_c, 0, 69, 100
2, 554496, Note_on_c, 0, 68, 110
2, 554588, Note_off_c, 0, 68, 100
2, 554592, Note_on_c, 0, 69, 110
2, 554684, Note_off_c, 0, 69, 100
2, 554688, Note_on_c, 0, 67, 110
2, 554780, Note_off_c, 0, 67, 100
2, 554784, Note_on_c, 0, 65, 110
2, 554876, Note_off_c, 0, 65, 100
2, 554880, Note_on_c, 0, 64, 110
2, 554972, Note_off_c, 0, 64, 100
2, 554976, Note_on_c, 0, 62, 110
2, 555068, Note_off_c, 0, 62, 100
2, 555072, Note_on_c, 0, 60, 110
2, 555164, Note_off_c, 0, 60, 100
2, 555168, Note_on_c, 0, 59, 110
2, 555260, Note_off_c, 0, 59, 100
2, 555264, Note_on_c, 0, 57, 110
2, 555356, Note_off_c, 0, 57, 100
2, 555360, Note_on_c, 0, 55, 110
2, 555452, Note_off_c, 0, 55, 100
2, 555456, Note_on_c, 0, 53, 110
2, 555548, Note_off_c, 0, 53, 100
2, 555552, Note_on_c, 0, 52, 110
2, 555644, Note_off_c, 0, 52, 100
2, 555648, Note_on_c, 0, 50, 110
2, 555740, Note_off_c, 0, 50, 100
2, 555744, Note_on_c, 0, 48, 110
2, 555836, Note_off_c, 0, 48, 100
2, 555840, Note_on_c, 0, 47, 110
2, 555932, Note_off_c, 0, 47, 100
2, 555936, Note_on_c, 0, 45, 110
2, 556028, Note_off_c, 0, 45, 100
2, 556032, Note_on_c, 0, 43, 110
2, 556124, Note_off_c, 0, 43, 100
2, 556128, Note_on_c, 0, 48, 80
2, 556220, Note_off_c, 0, 48, 100
2, 556224, Note_on_c, 0, 47, 80
2, 556316, Note_off_c, 0, 47, 100
2, 556320, Note_on_c, 0, 50, 80
2, 556412, Note_off_c, 0, 50, 100
2, 556416, Note_on_c, 0, 48, 80
2, 556508, Note_off_c, 0, 48, 100
2, 556512, Note_on_c, 0, 52, 80
2, 556604, Note_off_c, 0, 52, 100
2, 556608, Note_on_c, 0, 51, 80
2, 556700, Note_off_c, 0, 51, 100
2, 556704, Note_on_c, 0, 53, 80
2, 556796, Note_off_c, 0, 53, 100
2, 556800, Note_on_c, 0, 52, 80
2, 556892, Note_off_c, 0, 52, 100
2, 556896, Note_on_c, 0, 55, 80
2, 556988, Note_off_c, 0, 55, 100
2, 556992, Note_on_c, 0, 54, 80
2, 557084, Note_off_c, 0, 54, 100
2, 557088, Note_on_c, 0, 57, 80
2, 557180, Note_off_c, 0, 57, 100
2, 557184, Note_on_c, 0, 55, 80
2, 557276, Note_off_c, 0, 55, 100
2, 557280, Note_on_c, 0, 60, 80
2, 557372, Note_off_c, 0, 60, 100
2, 557376, Note_on_c, 0, 59, 80
2, 557468, Note_off_c, 0, 59, 100
2, 557472, Note_on_c, 0, 62, 80
2, 557564, Note_off_c, 0, 62, 100
2, 557568, Note_on_c, 0, 60, 80
2, 557660, Note_off_c, 0, 60, 100
2, 557664, Note_on_c, 0, 64, 80
2, 557756, Note_off_c, 0, 64, 100
2, 557760, Note_on_c, 0, 63, 80
2, 557852, Note_off_c, 0, 63, 100
2, 557856, Note_on_c, 0, 65, 80
2, 557948, Note_off_c, 0, 65, 100
2, 557952, Note_on_c, 0, 64, 80
2, 558044, Note_off_c, 0, 64, 100
2, 558048, Note_on_c, 0, 67, 80
2, 558140, Note_off_c, 0, 67, 100
2, 558144, Note_on_c, 0, 66, 80
2, 558236, Note_off_c, 0, 66, 100
2, 558240, Note_on_c, 0, 69, 80
2, 558332, Note_off_c, 0, 69, 100
2, 558336, Note_on_c, 0, 67, 80
2, 558428, Note_off_c, 0, 67, 100
2, 558432, Note_on_c, 0, 72, 80
2, 558524, Note_off_c, 0, 72, 100
2, 558528, Note_on_c, 0, 71, 80
2, 558620, Note_off_c, 0, 71, 100
2, 558624, Note_on_c, 0, 74, 80
2, 558716, Note_off_c, 0, 74, 100
2, 558720, Note_on_c, 0, 72, 80
2, 558812, Note_off_c, 0, 72, 100
2, 558816, Note_on_c, 0, 76, 80
2, 558908, Note_off_c, 0, 76, 100
2, 558912, Note_on_c, 0, 75, 80
2, 559004, Note_off_c, 0, 75, 100
2, 559008, Note_on_c, 0, 77, 80
2, 559100, Note_off_c, 0, 77, 100
2, 559104, Note_on_c, 0, 76, 80
2, 559196, Note_off_c, 0, 76, 100
2, 559200, Note_on_c, 0, 79, 80
2, 559292, Note_off_c, 0, 79, 100
2, 559296, Note_on_c, 0, 78, 81
2, 559388, Note_off_c, 0, 78, 100
2, 559392, Note_on_c, 0, 81, 81
2, 559484, Note_off_c, 0, 81, 100
2, 559488, Note_on_c, 0, 79, 82
2, 559580, Note_off_c, 0, 79, 100
2, 559584, Note_on_c, 0, 84, 83
2, 559676, Note_off_c, 0, 84, 100
2, 559680, Note_on_c, 0, 83, 83
2, 559772, Note_off_c, 0, 83, 100
2, 559776, Note_on_c, 0, 84, 84
2, 559868, Note_off_c, 0, 84, 100
2, 559872, Note_on_c, 0, 79, 85
2, 559964, Note_off_c, 0, 79, 100
2, 559968, Note_on_c, 0, 88, 85
2, 560060, Note_off_c, 0, 88, 100
2, 560064, Note_on_c, 0, 87, 86
2, 560156, Note_off_c, 0, 87, 100
2, 560160, Note_on_c, 0, 88, 87
2, 560252, Note_off_c, 0, 88, 100
2, 560256, Note_on_c, 0, 79, 87
2, 560348, Note_off_c, 0, 79, 100
2, 560352, Note_on_c, 0, 84, 88
2, 560444, Note_off_c, 0, 84, 100
2, 560448, Note_on_c, 0, 83, 89
2, 560540, Note_off_c, 0, 83, 100
2, 560544, Note_on_c, 0, 84, 89
2, 560636, Note_off_c, 0, 84, 100
2, 560640, Note_on_c, 0, 79, 90
2, 560732, Note_off_c, 0, 79, 100
2, 560736, Note_on_c, 0, 88, 90
2, 560828, Note_off_c, 0, 88, 100
2, 560832, Note_on_c, 0, 87, 91
2, 560924, Note_off_c, 0, 87, 100
2, 560928, Note_on_c, 0, 88, 92
2, 561020, Note_off_c, 0, 88, 100
2, 561024, Note_on_c, 0, 79, 92
2, 561116, Note_off_c, 0, 79, 100
2, 561120, Note_on_c, 0, 84, 93
2, 561212, Note_off_c, 0, 84, 100
2, 561216, Note_on_c, 0, 83, 94
2, 561308, Note_off_c, 0, 83, 100
2, 561312, Note_on_c, 0, 84, 94
2, 561404, Note_off_c, 0, 84, 100
2, 561408, Note_on_c, 0, 79, 95
2, 561500, Note_off_c, 0, 79, 100
2, 561504, Note_on_c, 0, 88, 96
2, 561596, Note_off_c, 0, 88, 100
2, 561600, Note_on_c, 0, 87, 96
2, 561692, Note_off_c, 0, 87, 100
2, 561696, Note_on_c, 0, 88, 97
2, 561788, Note_off_c, 0, 88, 100
2, 561792, Note_on_c, 0, 79, 98
2, 561884, Note_off_c, 0, 79, 100
2, 561888, Note_on_c, 0, 84, 98
2, 561980, Note_off_c, 0, 84, 100
2, 561984, Note_on_c, 0, 83, 99
2, 562076, Note_off_c, 0, 83, 100
2, 562080, Note_on_c, 0, 84, 99
2, 562172, Note_off_c, 0, 84, 100
2, 562176, Note_on_c, 0, 89, 100
2, 562176, Note_on_c, 0, 83, 100
2, 563136, Note_on_c, 0, 89, 80
2, 563184, Note_on_c, 0, 88, 80
2, 563220, Note_off_c, 0, 89, 100
2, 563232, Note_on_c, 0, 86, 80
2, 563272, Note_off_c, 0, 88, 100
2, 563280, Note_on_c, 0, 84, 80
2, 563312, Note_off_c, 0, 86, 100
2, 563328, Note_on_c, 0, 83, 80
2, 563364, Note_off_c, 0, 84, 100
2, 563376, Note_on_c, 0, 81, 80
2, 563420, Note_off_c, 0, 83, 100
2, 563424, Note_on_c, 0, 79, 80
2, 563460, Note_off_c, 0, 81, 100
2, 563472, Note_on_c, 0, 77, 80
2, 563504, Note_off_c, 0, 79, 100
2, 563520, Note_on_c, 0, 76, 80
2, 563560, Note_off_c, 0, 77, 100
2, 563568, Note_on_c, 0, 74, 80
2, 563608, Note_off_c, 0, 76, 100
2, 563616, Note_on_c, 0, 72, 80
2, 563656, Note_off_c, 0, 74, 100
2, 563664, Note_on_c, 0, 71, 80
2, 563700, Note_off_c, 0, 72, 100
2, 563708, Note_off_c, 0, 89, 100
2, 563708, Note_off_c, 0, 83, 100
2, 563708, Note_off_c, 0, 71, 100
2, 563712, Note_on_c, 0, 77, 100
2, 563712, Note_on_c, 0, 71, 100
2, 564864, Note_on_c, 0, 77, 80
2, 564912, Note_on_c, 0, 76, 80
2, 564948, Note_off_c, 0, 77, 100
2, 564960, Note_on_c, 0, 74, 80
2, 564992, Note_off_c, 0, 76, 100
2, 565008, Note_on_c, 0, 72, 80
2, 565044, Note_off_c, 0, 74, 100
2, 565056, Note_on_c, 0, 71, 80
2, 565096, Note_off_c, 0, 72, 100
2, 565104, Note_on_c, 0, 69, 80
2, 565136, Note_off_c, 0, 71, 100
2, 565152, Note_on_c, 0, 67, 80
2, 565192, Note_off_c, 0, 69, 100
2, 565200, Note_on_c, 0, 65, 80
2, 565236, Note_off_c, 0, 67, 100
2, 565244, Note_off_c, 0, 77, 100
2, 565244, Note_off_c, 0, 71, 100
2, 565244, Note_off_c, 0, 65, 100
2, 565248, Note_on_c, 0, 64, 80
2, 565248, Note_on_c, 0, 60, 80
2, 565248, Note_on_c, 0, 55, 80
2, 566012, Note_off_c, 0, 64, 100
2, 566012, Note_off_c, 0, 60, 100
2, 566012, Note_off_c, 0, 55, 100
2, 566016, Note_on_c, 0, 62, 80
2, 566016, Note_on_c, 0, 59, 80
2, 566016, Note_on_c, 0, 53, 80
2, 566396, Note_off_c, 0, 62, 100
2, 566396, Note_off_c, 0, 59, 100
2, 566396, Note_off_c, 0, 53, 100
2, 566400, Note_on_c, 0, 60, 80
2, 566400, Note_on_c, 0, 57, 80
2, 566400, Note_on_c, 0, 52, 80
2, 566780, Note_off_c, 0, 60, 100
2, 566780, Note_off_c, 0, 57, 100
2, 566780, Note_off_c, 0, 52, 100
2, 566784, Note_on_c, 0, 59, 80
2, 566784, Note_on_c, 0, 56, 80
2, 566784, Note_on_c, 0, 50, 80
2, 567548, Note_off_c, 0, 59, 100
2, 567548, Note_off_c, 0, 56, 100
2, 567548, Note_off_c, 0, 50, 100
2, 567552, Note_on_c, 0, 57, 80
2, 567552, Note_on_c, 0, 48, 80
2, 568316, Note_off_c, 0, 57, 100
2, 568316, Note_off_c, 0, 48, 100
2, 568320, Note_on_c, 0, 71, 80
2, 568320, Note_on_c, 0, 67, 80
2, 568320, Note_on_c, 0, 65, 80
2, 569084, Note_off_c, 0, 71, 100
2, 569084, Note_off_c, 0, 67, 100
2, 569084, Note_off_c, 0, 65, 100
2, 569088, Note_on_c, 0, 72, 80
2, 569088, Note_on_c, 0, 67, 80
2, 569468, Note_off_c, 0, 72, 100
2, 569468, Note_off_c, 0, 67, 100
2, 569472, Note_on_c, 0, 74, 80
2, 569472, Note_on_c, 0, 72, 80
2, 569472, Note_on_c, 0, 69, 80
2, 569852, Note_off_c, 0, 74, 100
2, 569852, Note_off_c, 0, 72, 100
2, 569852, Note_off_c, 0, 69, 100
2, 569856, Note_on_c, 0, 76, 80
2, 569856, Note_on_c, 0, 72, 80
2, 569856, Note_on_c, 0, 67, 80
2, 570620, Note_off_c, 0, 76, 100
2, 570620, Note_off_c, 0, 72, 100
2, 570620, Note_off_c, 0, 67, 100
2, 570624, Note_on_c, 0, 71, 80
2, 570624, Note_on_c, 0, 67, 80
2, 570624, Note_on_c, 0, 74, 80
2, 571004, Note_off_c, 0, 74, 100
2, 571008, Note_on_c, 0, 79, 80
2, 571196, Note_off_c, 0, 79, 100
2, 571200, Note_on_c, 0, 77, 80
2, 571388, Note_off_c, 0, 71, 100
2, 571388, Note_off_c, 0, 67, 100
2, 571388, Note_off_c, 0, 77, 100
2, 571776, Note_on_c, 0, 88, 80
2, 571776, Note_on_c, 0, 84, 80
2, 572156, Note_off_c, 0, 88, 100
2, 572156, Note_off_c, 0, 84, 100
2, 572160, Note_on_c, 0, 86, 80
2, 572160, Note_on_c, 0, 83, 80
2, 572160, Note_on_c, 0, 77, 80
2, 572540, Note_off_c, 0, 86, 100
2, 572540, Note_off_c, 0, 83, 100
2, 572540, Note_off_c, 0, 77, 100
2, 572544, Note_on_c, 0, 84, 80
2, 572544, Note_on_c, 0, 81, 80
2, 572544, Note_on_c, 0, 76, 80
2, 572924, Note_off_c, 0, 84, 100
2, 572924, Note_off_c, 0, 81, 100
2, 572924, Note_off_c, 0, 76, 100
2, 572928, Note_on_c, 0, 83, 80
2, 572928, Note_on_c, 0, 80, 80
2, 572928, Note_on_c, 0, 74, 80
2, 573692, Note_off_c, 0, 83, 100
2, 573692, Note_off_c, 0, 80, 100
2, 573692, Note_off_c, 0, 74, 100
2, 573696, Note_on_c, 0, 81, 80
2, 573696, Note_on_c, 0, 72, 80
2, 574460, Note_off_c, 0, 81, 100
2, 574460, Note_off_c, 0, 72, 100
2, 574464, Note_on_c, 0, 79, 80
2, 574464, Note_on_c, 0, 76, 80
2, 574464, Note_on_c, 0, 72, 80
2, 574844, Note_off_c, 0, 76, 100
2, 574844, Note_off_c, 0, 72, 100
2, 574848, Note_on_c, 0, 77, 80
2, 574848, Note_on_c, 0, 74, 80
2, 575228, Note_off_c, 0, 79, 100
2, 575232, Note_on_c, 0, 81, 80
2, 575612, Note_off_c, 0, 81, 100
2, 575616, Note_on_c, 0, 83, 80
2, 575996, Note_off_c, 0, 77, 100
2, 575996, Note_off_c, 0, 74, 100
2, 575996, Note_off_c, 0, 83, 100
2, 576000, Note_on_c, 0, 67, 80
2, 576000, Note_on_c, 0, 64, 80
2, 576000, Note_on_c, 0, 60, 80
2, 576380, Note_off_c, 0, 64, 100
2, 576380, Note_off_c, 0, 60, 100
2, 576384, Note_on_c, 0, 65, 80
2, 576384, Note_on_c, 0, 62, 80
2, 577532, Note_off_c, 0, 67, 100
2, 577536, Note_on_c, 0, 68, 80
2, 578300, Note_off_c, 0, 68, 100
2, 578304, Note_on_c, 0, 71, 80
2, 579068, Note_off_c, 0, 62, 100
2, 579068, Note_off_c, 0, 65, 100
2, 579068, Note_off_c, 0, 71, 100
2, 579072, Note_on_c, 0, 55, 80
2, 579072, Note_on_c, 0, 52, 80
2, 579072, Note_on_c, 0, 48, 80
2, 579452, Note_off_c, 0, 52, 100
2, 579452, Note_off_c, 0, 48, 100
2, 579456, Note_on_c, 0, 53, 80
2, 579456, Note_on_c, 0, 50, 80
2, 580604, Note_off_c, 0, 55, 100
2, 580608, Note_on_c, 0, 57, 80
2, 581372, Note_off_c, 0, 57, 100
2, 581376, Note_on_c, 0, 59, 80
2, 582140, Note_off_c, 0, 50, 100
2, 582140, Note_off_c, 0, 53, 100
2, 582140, Note_off_c, 0, 59, 100
2, 582144, Note_on_c, 0, 60, 80
2, 582144, Note_on_c, 0, 52, 80
2, 582332, Note_off_c, 0, 60, 100
2, 582332, Note_off_c, 0, 52, 100
2, 582336, Note_on_c, 0, 60, 80
2, 582336, Note_on_c, 0, 64, 80
2, 582524, Note_off_c, 0, 60, 100
2, 582524, Note_off_c, 0, 64, 100
2, 582528, Note_on_c, 0, 64, 80
2, 582528, Note_on_c, 0, 60, 80
2, 582716, Note_off_c, 0, 64, 100
2, 582716, Note_off_c, 0, 60, 100
2, 582720, Note_on_c, 0, 60, 80
2, 582720, Note_on_c, 0, 64, 80
2, 582908, Note_off_c, 0, 60, 100
2, 582908, Note_off_c, 0, 64, 100
2, 582912, Note_on_c, 0, 64, 80
2, 582912, Note_on_c, 0, 60, 80
2, 583100, Note_off_c, 0, 64, 100
2, 583100, Note_off_c, 0, 60, 100
2, 583104, Note_on_c, 0, 60, 80
2, 583104, Note_on_c, 0, 64, 80
2, 583292, Note_off_c, 0, 60, 100
2, 583292, Note_off_c, 0, 64, 100
2, 583296, Note_on_c, 0, 64, 80
2, 583296, Note_on_c, 0, 60, 80
2, 583484, Note_off_c, 0, 64, 100
2, 583484, Note_off_c, 0, 60, 100
2, 583488, Note_on_c, 0, 60, 80
2, 583488, Note_on_c, 0, 64, 80
2, 583676, Note_off_c, 0, 60, 100
2, 583676, Note_off_c, 0, 64, 100
2, 583680, Note_on_c, 0, 64, 80
2, 583680, Note_on_c, 0, 60, 80
2, 583868, Note_off_c, 0, 64, 100
2, 583868, Note_off_c, 0, 60, 100
2, 583872, Note_on_c, 0, 60, 80
2, 583872, Note_on_c, 0, 64, 80
2, 584060, Note_off_c, 0, 60, 100
2, 584060, Note_off_c, 0, 64, 100
2, 584064, Note_on_c, 0, 64, 80
2, 584064, Note_on_c, 0, 60, 80
2, 584252, Note_off_c, 0, 64, 100
2, 584252, Note_off_c, 0, 60, 100
2, 584256, Note_on_c, 0, 60, 80
2, 584256, Note_on_c, 0, 64, 80
2, 584444, Note_off_c, 0, 60, 100
2, 584444, Note_off_c, 0, 64, 100
2, 584448, Note_on_c, 0, 64, 80
2, 584448, Note_on_c, 0, 60, 80
2, 584636, Note_off_c, 0, 64, 100
2, 584636, Note_off_c, 0, 60, 100
2, 584640, Note_on_c, 0, 60, 80
2, 584640, Note_on_c, 0, 64, 80
2, 584828, Note_off_c, 0, 60, 100
2, 584828, Note_off_c, 0, 64, 100
2, 584832, Note_on_c, 0, 66, 80
2, 584832, Note_on_c, 0, 62, 80
2, 585020, Note_off_c, 0, 66, 100
2, 585020, Note_off_c, 0, 62, 100
2, 585024, Note_on_c, 0, 66, 80
2, 585024, Note_on_c, 0, 62, 80
2, 585212, Note_off_c, 0, 66, 100
2, 585212, Note_off_c, 0, 62, 100
2, 585216, Note_on_c, 0, 67, 80
2, 585404, Note_off_c, 0, 67, 100
2, 585408, Note_on_c, 0, 71, 82
2, 585500, Note_off_c, 0, 71, 100
2, 585504, Note_on_c, 0, 69, 83
2, 585596, Note_off_c, 0, 69, 100
2, 585600, Note_on_c, 0, 67, 85
2, 585788, Note_off_c, 0, 67, 100
2, 585984, Note_on_c, 0, 72, 90
2, 586172, Note_off_c, 0, 72, 100
2, 586176, Note_on_c, 0, 76, 93
2, 586268, Note_off_c, 0, 76, 100
2, 586272, Note_on_c, 0, 74, 94
2, 586364, Note_off_c, 0, 74, 100
2, 586368, Note_on_c, 0, 72, 95
2, 586556, Note_off_c, 0, 72, 100
2, 586752, Note_on_c, 0, 77, 101
2, 586940, Note_off_c, 0, 77, 100
2, 586944, Note_on_c, 0, 81, 103
2, 587036, Note_off_c, 0, 81, 100
2, 587040, Note_on_c, 0, 79, 105
2, 587132, Note_off_c, 0, 79, 100
2, 587136, Note_on_c, 0, 77, 106
2, 587324, Note_off_c, 0, 77, 100
2, 587520, Note_on_c, 0, 89, 111
2, 587612, Note_off_c, 0, 89, 100
2, 587616, Note_on_c, 0, 88, 113
2, 587708, Note_off_c, 0, 88, 100
2, 587712, Note_on_c, 0, 89, 114
2, 587804, Note_off_c, 0, 89, 100
2, 587808, Note_on_c, 0, 88, 115
2, 587900, Note_off_c, 0, 88, 100
2, 587904, Note_on_c, 0, 89, 116
2, 587996, Note_off_c, 0, 89, 100
2, 588000, Note_on_c, 0, 88, 118
2, 588092, Note_off_c, 0, 88, 100
2, 588096, Note_on_c, 0, 89, 119
2, 588188, Note_off_c, 0, 89, 100
2, 588192, Note_on_c, 0, 88, 120
2, 588284, Note_off_c, 0, 88, 100
2, 588288, Note_on_c, 0, 89, 120
2, 588380, Note_off_c, 0, 89, 100
2, 588384, Note_on_c, 0, 88, 120
2, 588476, Note_off_c, 0, 88, 100
2, 588480, Note_on_c, 0, 86, 120
2, 588572, Note_off_c, 0, 86, 100
2, 588576, Note_on_c, 0, 84, 120
2, 588668, Note_off_c, 0, 84, 100
2, 588672, Note_on_c, 0, 83, 120
2, 588764, Note_off_c, 0, 83, 100
2, 588768, Note_on_c, 0, 81, 120
2, 588860, Note_off_c, 0, 81, 100
2, 588864, Note_on_c, 0, 79, 120
2, 588956, Note_off_c, 0, 79, 100
2, 588960, Note_on_c, 0, 77, 120
2, 589052, Note_off_c, 0, 77, 100
2, 589056, Note_on_c, 0, 76, 120
2, 589148, Note_off_c, 0, 76, 100
2, 589152, Note_on_c, 0, 74, 120
2, 589244, Note_off_c, 0, 74, 100
2, 589248, Note_on_c, 0, 72, 120
2, 589340, Note_off_c, 0, 72, 100
2, 589344, Note_on_c, 0, 71, 120
2, 589436, Note_off_c, 0, 71, 100
2, 589440, Note_on_c, 0, 69, 120
2, 589532, Note_off_c, 0, 69, 100
2, 589536, Note_on_c, 0, 67, 120
2, 589628, Note_off_c, 0, 67, 100
2, 589632, Note_on_c, 0, 65, 120
2, 589724, Note_off_c, 0, 65, 100
2, 589728, Note_on_c, 0, 64, 120
2, 589820, Note_off_c, 0, 64, 100
2, 589824, Note_on_c, 0, 62, 120
2, 590204, Note_off_c, 0, 62, 100
2, 590208, Note_on_c, 0, 79, 120
2, 590208, Note_on_c, 0, 74, 120
2, 590208, Note_on_c, 0, 71, 120
2, 590208, Note_on_c, 0, 67, 120
2, 590588, Note_off_c, 0, 79, 100
2, 590588, Note_off_c, 0, 74, 100
2, 590588, Note_off_c, 0, 71, 100
2, 590588, Note_off_c, 0, 67, 100
2, 591360, Note_on_c, 0, 76, 120
2, 591360, Note_on_c, 0, 72, 120
2, 591360, Note_on_c, 0, 67, 120
2, 591360, Note_on_c, 0, 64, 120
2, 591740, Note_off_c, 0, 76, 100
2, 591740, Note_off_c, 0, 72, 100
2, 591740, Note_off_c, 0, 67, 100
2, 591740, Note_off_c, 0, 64, 100
2, 592128, Note_on_c, 0, 79, 120
2, 592128, Note_on_c, 0, 74, 120
2, 592128, Note_on_c, 0, 71, 120
2, 592128, Note_on_c, 0, 67, 120
2, 592508, Note_off_c, 0, 79, 100
2, 592508, Note_off_c, 0, 74, 100
2, 592508, Note_off_c, 0, 71, 100
2, 592508, Note_off_c, 0, 67, 100
2, 592896, Note_on_c, 0, 84, 120
2, 592896, Note_on_c, 0, 79, 120
2, 592896, Note_on_c, 0, 76, 120
2, 592896, Note_on_c, 0, 72, 120
2, 594044, Note_off_c, 0, 84, 100
2, 594044, Note_off_c, 0, 79, 100
2, 594044, Note_off_c, 0, 76, 100
2, 594044, Note_off_c, 0, 72, 100
2, 594816, Control_c, 0, 7, 0
2, 595200, Note_on_c, 0, 60, 1
2, 595580, Note_off_c, 0, 60, 100
2, 595580, End_track
3, 0, Start_track
3, 0, Title_t, "Left"
3, 0, Control_c, 1, 0, 0
3, 0, Program_c, 1, 0
3, 0, Control_c, 1, 7, 100
3, 0, Control_c, 1, 10, 59
3, 0, Control_c, 1, 91, 127
3, 0, Key_signature, 0, "major"
3, 0, Note_on_c, 1, 36, 80
3, 188, Note_off_c, 1, 36, 100
3, 192, Note_on_c, 1, 43, 80
3, 192, Note_on_c, 1, 36, 80
3, 380, Note_off_c, 1, 43, 100
3, 380, Note_off_c, 1, 36, 100
3, 384, Note_on_c, 1, 36, 80
3, 384, Note_on_c, 1, 43, 80
3, 572, Note_off_c, 1, 36, 100
3, 572, Note_off_c, 1, 43, 100
3, 576, Note_on_c, 1, 43, 80
3, 576, Note_on_c, 1, 36, 80
3, 764, Note_off_c, 1, 43, 100
3, 764, Note_off_c, 1, 36, 100
3, 768, Note_on_c, 1, 36, 80
3, 768, Note_on_c, 1, 43, 80
3, 956, Note_off_c, 1, 36, 100
3, 956, Note_off_c, 1, 43, 100
3, 960, Note_on_c, 1, 43, 80
3, 960, Note_on_c, 1, 36, 80
3, 1148, Note_off_c, 1, 43, 100
3, 1148, Note_off_c, 1, 36, 100
3, 1152, Note_on_c, 1, 36, 80
3, 1152, Note_on_c, 1, 43, 80
3, 1340, Note_off_c, 1, 36, 100
3, 1340, Note_off_c, 1, 43, 100
3, 1344, Note_on_c, 1, 43, 80
3, 1344, Note_on_c, 1, 36, 80
3, 1532, Note_off_c, 1, 43, 100
3, 1532, Note_off_c, 1, 36, 100
3, 1536, Note_on_c, 1, 36, 80
3, 1536, Note_on_c, 1, 43, 80
3, 1724, Note_off_c, 1, 36, 100
3, 1724, Note_off_c, 1, 43, 100
3, 1728, Note_on_c, 1, 43, 80
3, 1728, Note_on_c, 1, 36, 80
3, 1916, Note_off_c, 1, 43, 100
3, 1916, Note_off_c, 1, 36, 100
3, 1920, Note_on_c, 1, 36, 80
3, 1920, Note_on_c, 1, 43, 80
3, 2108, Note_off_c, 1, 36, 100
3, 2108, Note_off_c, 1, 43, 100
3, 2112, Note_on_c, 1, 43, 80
3, 2112, Note_on_c, 1, 36, 80
3, 2300, Note_off_c, 1, 43, 100
3, 2300, Note_off_c, 1, 36, 100
3, 2304, Note_on_c, 1, 36, 80
3, 2304, Note_on_c, 1, 43, 80
3, 2492, Note_off_c, 1, 36, 100
3, 2492, Note_off_c, 1, 43, 100
3, 2496, Note_on_c, 1, 43, 80
3, 2496, Note_on_c, 1, 36, 80
3, 2684, Note_off_c, 1, 43, 100
3, 2684, Note_off_c, 1, 36, 100
3, 2688, Note_on_c, 1, 36, 80
3, 2688, Note_on_c, 1, 45, 80
3, 2876, Note_off_c, 1, 36, 100
3, 2876, Note_off_c, 1, 45, 100
3, 2880, Note_on_c, 1, 36, 80
3, 2880, Note_on_c, 1, 45, 80
3, 3068, Note_off_c, 1, 36, 100
3, 3068, Note_off_c, 1, 45, 100
3, 3072, Note_on_c, 1, 43, 80
3, 3072, Note_on_c, 1, 35, 80
3, 3260, Note_off_c, 1, 43, 100
3, 3260, Note_off_c, 1, 35, 100
3, 3264, Note_on_c, 1, 43, 80
3, 3264, Note_on_c, 1, 35, 80
3, 3452, Note_off_c, 1, 43, 100
3, 3452, Note_off_c, 1, 35, 100
3, 3456, Note_on_c, 1, 35, 80
3, 3456, Note_on_c, 1, 43, 80
3, 3644, Note_off_c, 1, 35, 100
3, 3644, Note_off_c, 1, 43, 100
3, 3648, Note_on_c, 1, 43, 80
3, 3648, Note_on_c, 1, 35, 80
3, 3836, Note_off_c, 1, 43, 100
3, 3836, Note_off_c, 1, 35, 100
3, 3840, Note_on_c, 1, 43, 80
3, 3840, Note_on_c, 1, 35, 80
3, 4028, Note_off_c, 1, 43, 100
3, 4028, Note_off_c, 1, 35, 100
3, 4032, Note_on_c, 1, 43, 80
3, 4032, Note_on_c, 1, 35, 80
3, 4220, Note_off_c, 1, 43, 100
3, 4220, Note_off_c, 1, 35, 100
3, 4224, Note_on_c, 1, 35, 80
3, 4224, Note_on_c, 1, 43, 80
3, 4412, Note_off_c, 1, 35, 100
3, 4412, Note_off_c, 1, 43, 100
3, 4416, Note_on_c, 1, 43, 80
3, 4416, Note_on_c, 1, 35, 80
3, 4604, Note_off_c, 1, 43, 100
3, 4604, Note_off_c, 1, 35, 100
3, 4608, Note_on_c, 1, 43, 80
3, 4608, Note_on_c, 1, 35, 80
3, 4796, Note_off_c, 1, 43, 100
3, 4796, Note_off_c, 1, 35, 100
3, 4800, Note_on_c, 1, 43, 80
3, 4800, Note_on_c, 1, 35, 80
3, 4988, Note_off_c, 1, 43, 100
3, 4988, Note_off_c, 1, 35, 100
3, 4992, Note_on_c, 1, 35, 80
3, 4992, Note_on_c, 1, 43, 80
3, 5180, Note_off_c, 1, 35, 100
3, 5180, Note_off_c, 1, 43, 100
3, 5184, Note_on_c, 1, 43, 80
3, 5184, Note_on_c, 1, 35, 80
3, 5372, Note_off_c, 1, 43, 100
3, 5372, Note_off_c, 1, 35, 100
3, 5376, Note_on_c, 1, 43, 80
3, 5376, Note_on_c, 1, 35, 80
3, 5564, Note_off_c, 1, 43, 100
3, 5564, Note_off_c, 1, 35, 100
3, 5568, Note_on_c, 1, 43, 80
3, 5568, Note_on_c, 1, 35, 80
3, 5756, Note_off_c, 1, 43, 100
3, 5756, Note_off_c, 1, 35, 100
3, 5760, Note_on_c, 1, 35, 80
3, 5760, Note_on_c, 1, 43, 80
3, 5948, Note_off_c, 1, 35, 100
3, 5948, Note_off_c, 1, 43, 100
3, 5952, Note_on_c, 1, 43, 80
3, 5952, Note_on_c, 1, 35, 80
3, 6140, Note_off_c, 1, 43, 100
3, 6140, Note_off_c, 1, 35, 100
3, 6144, Note_on_c, 1, 41, 80
3, 6144, Note_on_c, 1, 34, 80
3, 6332, Note_off_c, 1, 41, 100
3, 6332, Note_off_c, 1, 34, 100
3, 6336, Note_on_c, 1, 41, 80
3, 6336, Note_on_c, 1, 34, 80
3, 6524, Note_off_c, 1, 41, 100
3, 6524, Note_off_c, 1, 34, 100
3, 6528, Note_on_c, 1, 41, 80
3, 6528, Note_on_c, 1, 34, 80
3, 6716, Note_off_c, 1, 41, 100
3, 6716, Note_off_c, 1, 34, 100
3, 6720, Note_on_c, 1, 41, 80
3, 6720, Note_on_c, 1, 34, 80
3, 6908, Note_off_c, 1, 41, 100
3, 6908, Note_off_c, 1, 34, 100
3, 6912, Note_on_c, 1, 41, 80
3, 6912, Note_on_c, 1, 34, 80
3, 7100, Note_off_c, 1, 41, 100
3, 7100, Note_off_c, 1, 34, 100
3, 7104, Note_on_c, 1, 41, 80
3, 7104, Note_on_c, 1, 34, 80
3, 7292, Note_off_c, 1, 41, 100
3, 7292, Note_off_c, 1, 34, 100
3, 7296, Note_on_c, 1, 41, 80
3, 7296, Note_on_c, 1, 34, 80
3, 7484, Note_off_c, 1, 41, 100
3, 7484, Note_off_c, 1, 34, 100
3, 7488, Note_on_c, 1, 41, 80
3, 7488, Note_on_c, 1, 34, 80
3, 7676, Note_off_c, 1, 41, 100
3, 7676, Note_off_c, 1, 34, 100
3, 7680, Note_on_c, 1, 41, 80
3, 7680, Note_on_c, 1, 34, 80
3, 7868, Note_off_c, 1, 41, 100
3, 7868, Note_off_c, 1, 34, 100
3, 7872, Note_on_c, 1, 41, 80
3, 7872, Note_on_c, 1, 34, 80
3, 8060, Note_off_c, 1, 41, 100
3, 8060, Note_off_c, 1, 34, 100
3, 8064, Note_on_c, 1, 41, 80
3, 8064, Note_on_c, 1, 34, 80
3, 8252, Note_off_c, 1, 41, 100
3, 8252, Note_off_c, 1, 34, 100
3, 8256, Note_on_c, 1, 41, 80
3, 8256, Note_on_c, 1, 34, 80
3, 8444, Note_off_c, 1, 41, 100
3, 8444, Note_off_c, 1, 34, 100
3, 8448, Note_on_c, 1, 41, 80
3, 8448, Note_on_c, 1, 34, 80
3, 8636, Note_off_c, 1, 41, 100
3, 8636, Note_off_c, 1, 34, 100
3, 8640, Note_on_c, 1, 41, 80
3, 8640, Note_on_c, 1, 34, 80
3, 8828, Note_off_c, 1, 41, 100
3, 8828, Note_off_c, 1, 34, 100
3, 8832, Note_on_c, 1, 34, 80
3, 8832, Note_on_c, 1, 43, 80
3, 9020, Note_off_c, 1, 34, 100
3, 9020, Note_off_c, 1, 43, 100
3, 9024, Note_on_c, 1, 34, 80
3, 9024, Note_on_c, 1, 43, 80
3, 9212, Note_off_c, 1, 34, 100
3, 9212, Note_off_c, 1, 43, 100
3, 9216, Note_on_c, 1, 41, 80
3, 9216, Note_on_c, 1, 33, 80
3, 9404, Note_off_c, 1, 41, 100
3, 9404, Note_off_c, 1, 33, 100
3, 9408, Note_on_c, 1, 41, 80
3, 9408, Note_on_c, 1, 33, 80
3, 9596, Note_off_c, 1, 41, 100
3, 9596, Note_off_c, 1, 33, 100
3, 9600, Note_on_c, 1, 41, 80
3, 9600, Note_on_c, 1, 33, 80
3, 9788, Note_off_c, 1, 41, 100
3, 9788, Note_off_c, 1, 33, 100
3, 9792, Note_on_c, 1, 33, 80
3, 9792, Note_on_c, 1, 41, 80
3, 9980, Note_off_c, 1, 33, 100
3, 9980, Note_off_c, 1, 41, 100
3, 9984, Note_on_c, 1, 41, 80
3, 9984, Note_on_c, 1, 33, 80
3, 10172, Note_off_c, 1, 41, 100
3, 10172, Note_off_c, 1, 33, 100
3, 10176, Note_on_c, 1, 41, 80
3, 10176, Note_on_c, 1, 33, 80
3, 10364, Note_off_c, 1, 41, 100
3, 10364, Note_off_c, 1, 33, 100
3, 10368, Note_on_c, 1, 41, 80
3, 10368, Note_on_c, 1, 33, 80
3, 10556, Note_off_c, 1, 41, 100
3, 10556, Note_off_c, 1, 33, 100
3, 10560, Note_on_c, 1, 33, 80
3, 10560, Note_on_c, 1, 41, 80
3, 10748, Note_off_c, 1, 33, 100
3, 10748, Note_off_c, 1, 41, 100
3, 10752, Note_on_c, 1, 41, 80
3, 10752, Note_on_c, 1, 31, 80
3, 10940, Note_off_c, 1, 41, 100
3, 10940, Note_off_c, 1, 31, 100
3, 10944, Note_on_c, 1, 41, 80
3, 10944, Note_on_c, 1, 31, 80
3, 11132, Note_off_c, 1, 41, 100
3, 11132, Note_off_c, 1, 31, 100
3, 11136, Note_on_c, 1, 41, 80
3, 11136, Note_on_c, 1, 31, 80
3, 11324, Note_off_c, 1, 41, 100
3, 11324, Note_off_c, 1, 31, 100
3, 11328, Note_on_c, 1, 41, 80
3, 11328, Note_on_c, 1, 31, 80
3, 11516, Note_off_c, 1, 41, 100
3, 11516, Note_off_c, 1, 31, 100
3, 11520, Note_on_c, 1, 41, 80
3, 11520, Note_on_c, 1, 31, 80
3, 11708, Note_off_c, 1, 41, 100
3, 11708, Note_off_c, 1, 31, 100
3, 11712, Note_on_c, 1, 41, 80
3, 11712, Note_on_c, 1, 31, 80
3, 11900, Note_off_c, 1, 41, 100
3, 11900, Note_off_c, 1, 31, 100
3, 11904, Note_on_c, 1, 41, 80
3, 11904, Note_on_c, 1, 32, 80
3, 12092, Note_off_c, 1, 41, 100
3, 12092, Note_off_c, 1, 32, 100
3, 12096, Note_on_c, 1, 41, 80
3, 12096, Note_on_c, 1, 32, 80
3, 12284, Note_off_c, 1, 41, 100
3, 12284, Note_off_c, 1, 32, 100
3, 12288, Note_on_c, 1, 41, 80
3, 12288, Note_on_c, 1, 31, 80
3, 12476, Note_off_c, 1, 41, 100
3, 12476, Note_off_c, 1, 31, 100
3, 12480, Note_on_c, 1, 41, 81
3, 12480, Note_on_c, 1, 31, 81
3, 12668, Note_off_c, 1, 41, 100
3, 12668, Note_off_c, 1, 31, 100
3, 12672, Note_on_c, 1, 41, 83
3, 12672, Note_on_c, 1, 31, 83
3, 12860, Note_off_c, 1, 41, 100
3, 12860, Note_off_c, 1, 31, 100
3, 12864, Note_on_c, 1, 41, 85
3, 12864, Note_on_c, 1, 31, 85
3, 13052, Note_off_c, 1, 41, 100
3, 13052, Note_off_c, 1, 31, 100
3, 13056, Note_on_c, 1, 41, 87
3, 13056, Note_on_c, 1, 31, 87
3, 13244, Note_off_c, 1, 41, 100
3, 13244, Note_off_c, 1, 31, 100
3, 13248, Note_on_c, 1, 41, 89
3, 13248, Note_on_c, 1, 31, 89
3, 13436, Note_off_c, 1, 41, 100
3, 13436, Note_off_c, 1, 31, 100
3, 13440, Note_on_c, 1, 41, 91
3, 13440, Note_on_c, 1, 32, 91
3, 13628, Note_off_c, 1, 41, 100
3, 13628, Note_off_c, 1, 32, 100
3, 13632, Note_on_c, 1, 41, 93
3, 13632, Note_on_c, 1, 32, 93
3, 13820, Note_off_c, 1, 41, 100
3, 13820, Note_off_c, 1, 32, 100
3, 13824, Note_on_c, 1, 41, 95
3, 13824, Note_on_c, 1, 31, 95
3, 14012, Note_off_c, 1, 41, 100
3, 14012, Note_off_c, 1, 31, 100
3, 14016, Note_on_c, 1, 41, 97
3, 14016, Note_on_c, 1, 31, 97
3, 14204, Note_off_c, 1, 41, 100
3, 14204, Note_off_c, 1, 31, 100
3, 14208, Note_on_c, 1, 41, 99
3, 14208, Note_on_c, 1, 31, 99
3, 14396, Note_off_c, 1, 41, 100
3, 14396, Note_off_c, 1, 31, 100
3, 14400, Note_on_c, 1, 41, 101
3, 14400, Note_on_c, 1, 31, 101
3, 14588, Note_off_c, 1, 41, 100
3, 14588, Note_off_c, 1, 31, 100
3, 14592, Note_on_c, 1, 41, 103
3, 14592, Note_on_c, 1, 31, 103
3, 14780, Note_off_c, 1, 41, 100
3, 14780, Note_off_c, 1, 31, 100
3, 14784, Note_on_c, 1, 41, 105
3, 14784, Note_on_c, 1, 31, 105
3, 14972, Note_off_c, 1, 41, 100
3, 14972, Note_off_c, 1, 31, 100
3, 14976, Note_on_c, 1, 41, 107
3, 14976, Note_on_c, 1, 32, 107
3, 15164, Note_off_c, 1, 41, 100
3, 15164, Note_off_c, 1, 32, 100
3, 15168, Note_on_c, 1, 41, 108
3, 15168, Note_on_c, 1, 32, 108
3, 15356, Note_off_c, 1, 41, 100
3, 15356, Note_off_c, 1, 32, 100
3, 15360, Note_on_c, 1, 41, 110
3, 15360, Note_on_c, 1, 31, 110
3, 15740, Note_off_c, 1, 41, 100
3, 15740, Note_off_c, 1, 31, 100
3, 15744, Note_on_c, 1, 55, 110
3, 15744, Note_on_c, 1, 43, 110
3, 16700, Note_off_c, 1, 55, 100
3, 16700, Note_off_c, 1, 43, 100
3, 16704, Note_on_c, 1, 57, 110
3, 16796, Note_off_c, 1, 57, 100
3, 16800, Note_on_c, 1, 59, 110
3, 16892, Note_off_c, 1, 59, 100
3, 16896, Note_on_c, 1, 60, 100
3, 17084, Note_off_c, 1, 60, 100
3, 17280, Note_on_c, 1, 55, 96
3, 17280, Note_on_c, 1, 43, 96
3, 17468, Note_off_c, 1, 55, 100
3, 17468, Note_off_c, 1, 43, 100
3, 17664, Note_on_c, 1, 51, 91
3, 17664, Note_on_c, 1, 39, 91
3, 17852, Note_off_c, 1, 51, 100
3, 17852, Note_off_c, 1, 39, 100
3, 18048, Note_on_c, 1, 48, 86
3, 18048, Note_on_c, 1, 36, 86
3, 18236, Note_off_c, 1, 48, 100
3, 18236, Note_off_c, 1, 36, 100
3, 18432, Note_on_c, 1, 43, 81
3, 18432, Note_on_c, 1, 31, 81
3, 19964, Note_off_c, 1, 43, 100
3, 19964, Note_off_c, 1, 31, 100
3, 19968, Note_on_c, 1, 48, 80
3, 19968, Note_on_c, 1, 36, 80
3, 20156, Note_off_c, 1, 48, 100
3, 20156, Note_off_c, 1, 36, 100
3, 20160, Note_on_c, 1, 48, 80
3, 20256, Note_on_c, 1, 55, 80
3, 20316, Note_off_c, 1, 48, 100
3, 20352, Note_on_c, 1, 48, 80
3, 20440, Note_off_c, 1, 55, 100
3, 20448, Note_on_c, 1, 55, 80
3, 20524, Note_off_c, 1, 48, 100
3, 20544, Note_on_c, 1, 48, 80
3, 20628, Note_off_c, 1, 55, 100
3, 20640, Note_on_c, 1, 55, 80
3, 20724, Note_off_c, 1, 48, 100
3, 20736, Note_on_c, 1, 48, 80
3, 20804, Note_off_c, 1, 55, 100
3, 20832, Note_on_c, 1, 55, 80
3, 20924, Note_off_c, 1, 48, 100
3, 20928, Note_on_c, 1, 48, 80
3, 20988, Note_off_c, 1, 55, 100
3, 21024, Note_on_c, 1, 55, 80
3, 21084, Note_off_c, 1, 48, 100
3, 21120, Note_on_c, 1, 48, 80
3, 21176, Note_off_c, 1, 55, 100
3, 21216, Note_on_c, 1, 55, 80
3, 21284, Note_off_c, 1, 48, 100
3, 21312, Note_on_c, 1, 48, 80
3, 21392, Note_off_c, 1, 55, 100
3, 21408, Note_on_c, 1, 55, 80
3, 21468, Note_off_c, 1, 48, 100
3, 21504, Note_on_c, 1, 48, 80
3, 21572, Note_off_c, 1, 55, 100
3, 21600, Note_on_c, 1, 55, 80
3, 21668, Note_off_c, 1, 48, 100
3, 21696, Note_on_c, 1, 48, 80
3, 21780, Note_off_c, 1, 55, 100
3, 21792, Note_on_c, 1, 55, 80
3, 21868, Note_off_c, 1, 48, 100
3, 21888, Note_on_c, 1, 48, 80
3, 21972, Note_off_c, 1, 55, 100
3, 21984, Note_on_c, 1, 55, 80
3, 22048, Note_off_c, 1, 48, 100
3, 22080, Note_on_c, 1, 48, 80
3, 22156, Note_off_c, 1, 55, 100
3, 22176, Note_on_c, 1, 55, 80
3, 22256, Note_off_c, 1, 48, 100
3, 22272, Note_on_c, 1, 48, 80
3, 22364, Note_off_c, 1, 55, 100
3, 22368, Note_on_c, 1, 55, 80
3, 22460, Note_off_c, 1, 48, 100
3, 22464, Note_on_c, 1, 48, 80
3, 22536, Note_off_c, 1, 55, 100
3, 22560, Note_on_c, 1, 55, 80
3, 22612, Note_off_c, 1, 48, 100
3, 22656, Note_on_c, 1, 48, 80
3, 22720, Note_off_c, 1, 55, 100
3, 22752, Note_on_c, 1, 57, 80
3, 22824, Note_off_c, 1, 48, 100
3, 22848, Note_on_c, 1, 48, 80
3, 22920, Note_off_c, 1, 57, 100
3, 22944, Note_on_c, 1, 57, 80
3, 23004, Note_off_c, 1, 48, 100
3, 23036, Note_off_c, 1, 57, 100
3, 23040, Note_on_c, 1, 50, 80
3, 23040, Note_on_c, 1, 47, 80
3, 23132, Note_off_c, 1, 50, 100
3, 23132, Note_off_c, 1, 47, 100
3, 23136, Note_on_c, 1, 55, 80
3, 23228, Note_off_c, 1, 55, 100
3, 23232, Note_on_c, 1, 50, 80
3, 23232, Note_on_c, 1, 47, 80
3, 23324, Note_off_c, 1, 50, 100
3, 23324, Note_off_c, 1, 47, 100
3, 23328, Note_on_c, 1, 55, 80
3, 23420, Note_off_c, 1, 55, 100
3, 23424, Note_on_c, 1, 50, 80
3, 23424, Note_on_c, 1, 47, 80
3, 23516, Note_off_c, 1, 50, 100
3, 23516, Note_off_c, 1, 47, 100
3, 23520, Note_on_c, 1, 55, 80
3, 23612, Note_off_c, 1, 55, 100
3, 23616, Note_on_c, 1, 50, 80
3, 23616, Note_on_c, 1, 47, 80
3, 23708, Note_off_c, 1, 50, 100
3, 23708, Note_off_c, 1, 47, 100
3, 23712, Note_on_c, 1, 55, 80
3, 23804, Note_off_c, 1, 55, 100
3, 23808, Note_on_c, 1, 50, 80
3, 23808, Note_on_c, 1, 47, 80
3, 23900, Note_off_c, 1, 50, 100
3, 23900, Note_off_c, 1, 47, 100
3, 23904, Note_on_c, 1, 55, 80
3, 23996, Note_off_c, 1, 55, 100
3, 24000, Note_on_c, 1, 50, 80
3, 24000, Note_on_c, 1, 47, 80
3, 24092, Note_off_c, 1, 50, 100
3, 24092, Note_off_c, 1, 47, 100
3, 24096, Note_on_c, 1, 55, 80
3, 24188, Note_off_c, 1, 55, 100
3, 24192, Note_on_c, 1, 50, 80
3, 24192, Note_on_c, 1, 47, 80
3, 24284, Note_off_c, 1, 50, 100
3, 24284, Note_off_c, 1, 47, 100
3, 24288, Note_on_c, 1, 55, 80
3, 24380, Note_off_c, 1, 55, 100
3, 24384, Note_on_c, 1, 50, 80
3, 24384, Note_on_c, 1, 47, 80
3, 24476, Note_off_c, 1, 50, 100
3, 24476, Note_off_c, 1, 47, 100
3, 24480, Note_on_c, 1, 55, 80
3, 24572, Note_off_c, 1, 55, 100
3, 24576, Note_on_c, 1, 50, 80
3, 24576, Note_on_c, 1, 47, 80
3, 24668, Note_off_c, 1, 50, 100
3, 24668, Note_off_c, 1, 47, 100
3, 24672, Note_on_c, 1, 55, 80
3, 24764, Note_off_c, 1, 55, 100
3, 24768, Note_on_c, 1, 50, 80
3, 24768, Note_on_c, 1, 47, 80
3, 24860, Note_off_c, 1, 50, 100
3, 24860, Note_off_c, 1, 47, 100
3, 24864, Note_on_c, 1, 55, 80
3, 24956, Note_off_c, 1, 55, 100
3, 24960, Note_on_c, 1, 50, 80
3, 24960, Note_on_c, 1, 47, 80
3, 25052, Note_off_c, 1, 50, 100
3, 25052, Note_off_c, 1, 47, 100
3, 25056, Note_on_c, 1, 55, 80
3, 25148, Note_off_c, 1, 55, 100
3, 25152, Note_on_c, 1, 50, 80
3, 25152, Note_on_c, 1, 47, 80
3, 25244, Note_off_c, 1, 50, 100
3, 25244, Note_off_c, 1, 47, 100
3, 25248, Note_on_c, 1, 55, 80
3, 25340, Note_off_c, 1, 55, 100
3, 25344, Note_on_c, 1, 50, 80
3, 25344, Note_on_c, 1, 47, 80
3, 25436, Note_off_c, 1, 50, 100
3, 25436, Note_off_c, 1, 47, 100
3, 25440, Note_on_c, 1, 55, 80
3, 25532, Note_off_c, 1, 55, 100
3, 25536, Note_on_c, 1, 50, 80
3, 25536, Note_on_c, 1, 47, 80
3, 25628, Note_off_c, 1, 50, 100
3, 25628, Note_off_c, 1, 47, 100
3, 25632, Note_on_c, 1, 55, 80
3, 25724, Note_off_c, 1, 55, 100
3, 25728, Note_on_c, 1, 50, 80
3, 25728, Note_on_c, 1, 47, 80
3, 25820, Note_off_c, 1, 50, 100
3, 25820, Note_off_c, 1, 47, 100
3, 25824, Note_on_c, 1, 55, 80
3, 25916, Note_off_c, 1, 55, 100
3, 25920, Note_on_c, 1, 50, 80
3, 25920, Note_on_c, 1, 47, 80
3, 26012, Note_off_c, 1, 50, 100
3, 26012, Note_off_c, 1, 47, 100
3, 26016, Note_on_c, 1, 55, 80
3, 26108, Note_off_c, 1, 55, 100
3, 26112, Note_on_c, 1, 50, 80
3, 26112, Note_on_c, 1, 38, 80
3, 26300, Note_off_c, 1, 50, 100
3, 26300, Note_off_c, 1, 38, 100
3, 26304, Note_on_c, 1, 50, 80
3, 26396, Note_off_c, 1, 50, 100
3, 26400, Note_on_c, 1, 57, 80
3, 26492, Note_off_c, 1, 57, 100
3, 26496, Note_on_c, 1, 50, 80
3, 26588, Note_off_c, 1, 50, 100
3, 26592, Note_on_c, 1, 57, 80
3, 26684, Note_off_c, 1, 57, 100
3, 26688, Note_on_c, 1, 50, 80
3, 26780, Note_off_c, 1, 50, 100
3, 26784, Note_on_c, 1, 57, 80
3, 26876, Note_off_c, 1, 57, 100
3, 26880, Note_on_c, 1, 50, 80
3, 26972, Note_off_c, 1, 50, 100
3, 26976, Note_on_c, 1, 57, 80
3, 27068, Note_off_c, 1, 57, 100
3, 27072, Note_on_c, 1, 50, 80
3, 27164, Note_off_c, 1, 50, 100
3, 27168, Note_on_c, 1, 57, 80
3, 27260, Note_off_c, 1, 57, 100
3, 27264, Note_on_c, 1, 50, 80
3, 27356, Note_off_c, 1, 50, 100
3, 27360, Note_on_c, 1, 57, 80
3, 27452, Note_off_c, 1, 57, 100
3, 27456, Note_on_c, 1, 50, 80
3, 27548, Note_off_c, 1, 50, 100
3, 27552, Note_on_c, 1, 57, 80
3, 27644, Note_off_c, 1, 57, 100
3, 27648, Note_on_c, 1, 50, 80
3, 27740, Note_off_c, 1, 50, 100
3, 27744, Note_on_c, 1, 57, 80
3, 27836, Note_off_c, 1, 57, 100
3, 27840, Note_on_c, 1, 50, 80
3, 27932, Note_off_c, 1, 50, 100
3, 27936, Note_on_c, 1, 57, 80
3, 28028, Note_off_c, 1, 57, 100
3, 28032, Note_on_c, 1, 50, 80
3, 28124, Note_off_c, 1, 50, 100
3, 28128, Note_on_c, 1, 57, 80
3, 28220, Note_off_c, 1, 57, 100
3, 28224, Note_on_c, 1, 50, 80
3, 28316, Note_off_c, 1, 50, 100
3, 28320, Note_on_c, 1, 57, 80
3, 28412, Note_off_c, 1, 57, 100
3, 28416, Note_on_c, 1, 50, 80
3, 28508, Note_off_c, 1, 50, 100
3, 28512, Note_on_c, 1, 57, 80
3, 28604, Note_off_c, 1, 57, 100
3, 28608, Note_on_c, 1, 50, 80
3, 28700, Note_off_c, 1, 50, 100
3, 28704, Note_on_c, 1, 57, 80
3, 28796, Note_off_c, 1, 57, 100
3, 28800, Note_on_c, 1, 50, 80
3, 28892, Note_off_c, 1, 50, 100
3, 28896, Note_on_c, 1, 59, 80
3, 28988, Note_off_c, 1, 59, 100
3, 28992, Note_on_c, 1, 50, 80
3, 29084, Note_off_c, 1, 50, 100
3, 29088, Note_on_c, 1, 59, 80
3, 29180, Note_off_c, 1, 59, 100
3, 29184, Control_c, 1, 64, 127
3, 29184, Note_on_c, 1, 48, 80
3, 29184, Note_on_c, 1, 52, 80
3, 29276, Note_off_c, 1, 48, 100
3, 29276, Note_off_c, 1, 52, 100
3, 29280, Note_on_c, 1, 57, 80
3, 29372, Note_off_c, 1, 57, 100
3, 29376, Note_on_c, 1, 48, 80
3, 29376, Note_on_c, 1, 52, 80
3, 29468, Note_off_c, 1, 48, 100
3, 29468, Note_off_c, 1, 52, 100
3, 29472, Note_on_c, 1, 57, 80
3, 29560, Control_c, 1, 64, 0
3, 29564, Note_off_c, 1, 57, 100
3, 29568, Control_c, 1, 64, 127
3, 29568, Note_on_c, 1, 48, 80
3, 29568, Note_on_c, 1, 52, 80
3, 29660, Note_off_c, 1, 48, 100
3, 29660, Note_off_c, 1, 52, 100
3, 29664, Note_on_c, 1, 57, 80
3, 29756, Note_off_c, 1, 57, 100
3, 29760, Note_on_c, 1, 48, 80
3, 29760, Note_on_c, 1, 52, 80
3, 29852, Note_off_c, 1, 48, 100
3, 29852, Note_off_c, 1, 52, 100
3, 29856, Note_on_c, 1, 57, 80
3, 29944, Control_c, 1, 64, 0
3, 29948, Note_off_c, 1, 57, 100
3, 29952, Control_c, 1, 64, 127
3, 29952, Note_on_c, 1, 48, 80
3, 29952, Note_on_c, 1, 52, 80
3, 30044, Note_off_c, 1, 48, 100
3, 30044, Note_off_c, 1, 52, 100
3, 30048, Note_on_c, 1, 57, 80
3, 30140, Note_off_c, 1, 57, 100
3, 30144, Note_on_c, 1, 48, 80
3, 30144, Note_on_c, 1, 52, 80
3, 30236, Note_off_c, 1, 48, 100
3, 30236, Note_off_c, 1, 52, 100
3, 30240, Note_on_c, 1, 57, 80
3, 30328, Control_c, 1, 64, 0
3, 30332, Note_off_c, 1, 57, 100
3, 30336, Control_c, 1, 64, 127
3, 30336, Note_on_c, 1, 48, 80
3, 30336, Note_on_c, 1, 52, 80
3, 30428, Note_off_c, 1, 48, 100
3, 30428, Note_off_c, 1, 52, 100
3, 30432, Note_on_c, 1, 57, 80
3, 30524, Note_off_c, 1, 57, 100
3, 30528, Note_on_c, 1, 48, 80
3, 30528, Note_on_c, 1, 52, 80
3, 30620, Note_off_c, 1, 48, 100
3, 30620, Note_off_c, 1, 52, 100
3, 30624, Note_on_c, 1, 57, 80
3, 30712, Control_c, 1, 64, 0
3, 30716, Note_off_c, 1, 57, 100
3, 30720, Control_c, 1, 64, 127
3, 30720, Note_on_c, 1, 48, 80
3, 30720, Note_on_c, 1, 52, 80
3, 30812, Note_off_c, 1, 48, 100
3, 30812, Note_off_c, 1, 52, 100
3, 30816, Note_on_c, 1, 57, 80
3, 30908, Note_off_c, 1, 57, 100
3, 30912, Note_on_c, 1, 48, 81
3, 30912, Note_on_c, 1, 52, 81
3, 31004, Note_off_c, 1, 48, 100
3, 31004, Note_off_c, 1, 52, 100
3, 31008, Note_on_c, 1, 57, 82
3, 31096, Control_c, 1, 64, 0
3, 31100, Note_off_c, 1, 57, 100
3, 31104, Control_c, 1, 64, 127
3, 31104, Note_on_c, 1, 48, 83
3, 31104, Note_on_c, 1, 52, 83
3, 31196, Note_off_c, 1, 48, 100
3, 31196, Note_off_c, 1, 52, 100
3, 31200, Note_on_c, 1, 57, 84
3, 31292, Note_off_c, 1, 57, 100
3, 31296, Note_on_c, 1, 48, 85
3, 31296, Note_on_c, 1, 52, 85
3, 31388, Note_off_c, 1, 48, 100
3, 31388, Note_off_c, 1, 52, 100
3, 31392, Note_on_c, 1, 57, 86
3, 31480, Control_c, 1, 64, 0
3, 31484, Note_off_c, 1, 57, 100
3, 31488, Control_c, 1, 64, 127
3, 31488, Note_on_c, 1, 48, 87
3, 31488, Note_on_c, 1, 52, 87
3, 31580, Note_off_c, 1, 48, 100
3, 31580, Note_off_c, 1, 52, 100
3, 31584, Note_on_c, 1, 57, 88
3, 31676, Note_off_c, 1, 57, 100
3, 31680, Note_on_c, 1, 48, 89
3, 31680, Note_on_c, 1, 52, 89
3, 31772, Note_off_c, 1, 48, 100
3, 31772, Note_off_c, 1, 52, 100
3, 31776, Note_on_c, 1, 57, 90
3, 31864, Control_c, 1, 64, 0
3, 31868, Note_off_c, 1, 57, 100
3, 31872, Control_c, 1, 64, 127
3, 31872, Note_on_c, 1, 48, 91
3, 31872, Note_on_c, 1, 52, 91
3, 31964, Note_off_c, 1, 48, 100
3, 31964, Note_off_c, 1, 52, 100
3, 31968, Note_on_c, 1, 57, 92
3, 32060, Note_off_c, 1, 57, 100
3, 32064, Note_on_c, 1, 48, 93
3, 32064, Note_on_c, 1, 52, 93
3, 32156, Note_off_c, 1, 48, 100
3, 32156, Note_off_c, 1, 52, 100
3, 32160, Note_on_c, 1, 57, 94
3, 32248, Control_c, 1, 64, 0
3, 32252, Note_off_c, 1, 57, 100
3, 32256, Control_c, 1, 64, 127
3, 32256, Note_on_c, 1, 48, 95
3, 32256, Note_on_c, 1, 52, 95
3, 32348, Note_off_c, 1, 48, 100
3, 32348, Note_off_c, 1, 52, 100
3, 32352, Note_on_c, 1, 58, 96
3, 32444, Note_off_c, 1, 58, 100
3, 32448, Note_on_c, 1, 48, 97
3, 32448, Note_on_c, 1, 52, 97
3, 32540, Note_off_c, 1, 48, 100
3, 32540, Note_off_c, 1, 52, 100
3, 32544, Note_on_c, 1, 58, 98
3, 32632, Control_c, 1, 64, 0
3, 32636, Note_off_c, 1, 58, 100
3, 32640, Control_c, 1, 64, 127
3, 32640, Note_on_c, 1, 48, 99
3, 32640, Note_on_c, 1, 52, 99
3, 32732, Note_off_c, 1, 48, 100
3, 32732, Note_off_c, 1, 52, 100
3, 32736, Note_on_c, 1, 58, 100
3, 32828, Note_off_c, 1, 58, 100
3, 32832, Note_on_c, 1, 48, 101
3, 32832, Note_on_c, 1, 52, 101
3, 32924, Note_off_c, 1, 48, 100
3, 32924, Note_off_c, 1, 52, 100
3, 32928, Note_on_c, 1, 58, 102
3, 33016, Control_c, 1, 64, 0
3, 33020, Note_off_c, 1, 58, 100
3, 33024, Control_c, 1, 64, 127
3, 33024, Note_on_c, 1, 48, 103
3, 33024, Note_on_c, 1, 52, 103
3, 33116, Note_off_c, 1, 48, 100
3, 33116, Note_off_c, 1, 52, 100
3, 33120, Note_on_c, 1, 58, 104
3, 33212, Note_off_c, 1, 58, 100
3, 33216, Note_on_c, 1, 48, 105
3, 33216, Note_on_c, 1, 52, 105
3, 33308, Note_off_c, 1, 48, 100
3, 33308, Note_off_c, 1, 52, 100
3, 33312, Note_on_c, 1, 58, 106
3, 33400, Control_c, 1, 64, 0
3, 33404, Note_off_c, 1, 58, 100
3, 33408, Control_c, 1, 64, 127
3, 33408, Note_on_c, 1, 48, 107
3, 33408, Note_on_c, 1, 52, 107
3, 33500, Note_off_c, 1, 48, 100
3, 33500, Note_off_c, 1, 52, 100
3, 33504, Note_on_c, 1, 58, 108
3, 33596, Note_off_c, 1, 58, 100
3, 33600, Note_on_c, 1, 48, 109
3, 33600, Note_on_c, 1, 52, 109
3, 33692, Note_off_c, 1, 48, 100
3, 33692, Note_off_c, 1, 52, 100
3, 33696, Note_on_c, 1, 58, 110
3, 33784, Control_c, 1, 64, 0
3, 33788, Note_off_c, 1, 58, 100
3, 33792, Control_c, 1, 64, 127
3, 33792, Note_on_c, 1, 47, 80
3, 33884, Note_off_c, 1, 47, 100
3, 33888, Note_on_c, 1, 51, 80
3, 33980, Note_off_c, 1, 51, 100
3, 33984, Note_on_c, 1, 54, 80
3, 34076, Note_off_c, 1, 54, 100
3, 34080, Note_on_c, 1, 59, 80
3, 34168, Control_c, 1, 64, 0
3, 34172, Note_off_c, 1, 59, 100
3, 34176, Control_c, 1, 64, 127
3, 34176, Note_on_c, 1, 47, 80
3, 34268, Note_off_c, 1, 47, 100
3, 34272, Note_on_c, 1, 51, 80
3, 34364, Note_off_c, 1, 51, 100
3, 34368, Note_on_c, 1, 54, 80
3, 34460, Note_off_c, 1, 54, 100
3, 34464, Note_on_c, 1, 59, 80
3, 34552, Control_c, 1, 64, 0
3, 34556, Note_off_c, 1, 59, 100
3, 34560, Control_c, 1, 64, 127
3, 34560, Note_on_c, 1, 47, 80
3, 34652, Note_off_c, 1, 47, 100
3, 34656, Note_on_c, 1, 51, 80
3, 34748, Note_off_c, 1, 51, 100
3, 34752, Note_on_c, 1, 55, 80
3, 34844, Note_off_c, 1, 55, 100
3, 34848, Note_on_c, 1, 59, 80
3, 34936, Control_c, 1, 64, 0
3, 34940, Note_off_c, 1, 59, 100
3, 34944, Control_c, 1, 64, 127
3, 34944, Note_on_c, 1, 47, 80
3, 35036, Note_off_c, 1, 47, 100
3, 35040, Note_on_c, 1, 51, 80
3, 35132, Note_off_c, 1, 51, 100
3, 35136, Note_on_c, 1, 55, 80
3, 35228, Note_off_c, 1, 55, 100
3, 35232, Note_on_c, 1, 59, 80
3, 35320, Control_c, 1, 64, 0
3, 35324, Note_off_c, 1, 59, 100
3, 35328, Control_c, 1, 64, 127
3, 35328, Note_on_c, 1, 47, 80
3, 35420, Note_off_c, 1, 47, 100
3, 35424, Note_on_c, 1, 54, 80
3, 35516, Note_off_c, 1, 54, 100
3, 35520, Note_on_c, 1, 57, 80
3, 35612, Note_off_c, 1, 57, 100
3, 35616, Note_on_c, 1, 59, 80
3, 35704, Control_c, 1, 64, 0
3, 35708, Note_off_c, 1, 59, 100
3, 35712, Control_c, 1, 64, 127
3, 35712, Note_on_c, 1, 47, 80
3, 35804, Note_off_c, 1, 47, 100
3, 35808, Note_on_c, 1, 54, 80
3, 35900, Note_off_c, 1, 54, 100
3, 35904, Note_on_c, 1, 57, 80
3, 35996, Note_off_c, 1, 57, 100
3, 36000, Note_on_c, 1, 59, 80
3, 36088, Control_c, 1, 64, 0
3, 36092, Note_off_c, 1, 59, 100
3, 36096, Control_c, 1, 64, 127
3, 36096, Note_on_c, 1, 47, 80
3, 36188, Note_off_c, 1, 47, 100
3, 36192, Note_on_c, 1, 52, 80
3, 36284, Note_off_c, 1, 52, 100
3, 36288, Note_on_c, 1, 55, 80
3, 36380, Note_off_c, 1, 55, 100
3, 36384, Note_on_c, 1, 59, 80
3, 36472, Control_c, 1, 64, 0
3, 36476, Note_off_c, 1, 59, 100
3, 36480, Control_c, 1, 64, 127
3, 36480, Note_on_c, 1, 47, 80
3, 36572, Note_off_c, 1, 47, 100
3, 36576, Note_on_c, 1, 52, 80
3, 36668, Note_off_c, 1, 52, 100
3, 36672, Note_on_c, 1, 55, 80
3, 36764, Note_off_c, 1, 55, 100
3, 36768, Note_on_c, 1, 59, 80
3, 36856, Control_c, 1, 64, 0
3, 36860, Note_off_c, 1, 59, 100
3, 36864, Control_c, 1, 64, 127
3, 36864, Note_on_c, 1, 47, 80
3, 36956, Note_off_c, 1, 47, 100
3, 36960, Note_on_c, 1, 51, 80
3, 37052, Note_off_c, 1, 51, 100
3, 37056, Note_on_c, 1, 54, 80
3, 37148, Note_off_c, 1, 54, 100
3, 37152, Note_on_c, 1, 59, 80
3, 37240, Control_c, 1, 64, 0
3, 37244, Note_off_c, 1, 59, 100
3, 37248, Control_c, 1, 64, 127
3, 37248, Note_on_c, 1, 47, 80
3, 37340, Note_off_c, 1, 47, 100
3, 37344, Note_on_c, 1, 51, 80
3, 37436, Note_off_c, 1, 51, 100
3, 37440, Note_on_c, 1, 54, 80
3, 37532, Note_off_c, 1, 54, 100
3, 37536, Note_on_c, 1, 59, 80
3, 37624, Control_c, 1, 64, 0
3, 37628, Note_off_c, 1, 59, 100
3, 37632, Control_c, 1, 64, 127
3, 37632, Note_on_c, 1, 47, 80
3, 37724, Note_off_c, 1, 47, 100
3, 37728, Note_on_c, 1, 51, 80
3, 37820, Note_off_c, 1, 51, 100
3, 37824, Note_on_c, 1, 55, 80
3, 37916, Note_off_c, 1, 55, 100
3, 37920, Note_on_c, 1, 59, 80
3, 38008, Control_c, 1, 64, 0
3, 38012, Note_off_c, 1, 59, 100
3, 38016, Control_c, 1, 64, 127
3, 38016, Note_on_c, 1, 47, 80
3, 38108, Note_off_c, 1, 47, 100
3, 38112, Note_on_c, 1, 51, 80
3, 38204, Note_off_c, 1, 51, 100
3, 38208, Note_on_c, 1, 55, 80
3, 38300, Note_off_c, 1, 55, 100
3, 38304, Note_on_c, 1, 59, 80
3, 38392, Control_c, 1, 64, 0
3, 38396, Note_off_c, 1, 59, 100
3, 38400, Control_c, 1, 64, 127
3, 38400, Note_on_c, 1, 47, 80
3, 38492, Note_off_c, 1, 47, 100
3, 38496, Note_on_c, 1, 54, 80
3, 38588, Note_off_c, 1, 54, 100
3, 38592, Note_on_c, 1, 57, 80
3, 38684, Note_off_c, 1, 57, 100
3, 38688, Note_on_c, 1, 59, 80
3, 38776, Control_c, 1, 64, 0
3, 38780, Note_off_c, 1, 59, 100
3, 38784, Control_c, 1, 64, 127
3, 38784, Note_on_c, 1, 47, 80
3, 38876, Note_off_c, 1, 47, 100
3, 38880, Note_on_c, 1, 54, 80
3, 38972, Note_off_c, 1, 54, 100
3, 38976, Note_on_c, 1, 57, 80
3, 39068, Note_off_c, 1, 57, 100
3, 39072, Note_on_c, 1, 59, 80
3, 39160, Control_c, 1, 64, 0
3, 39164, Note_off_c, 1, 59, 100
3, 39168, Control_c, 1, 64, 127
3, 39168, Note_on_c, 1, 47, 80
3, 39260, Note_off_c, 1, 47, 100
3, 39264, Note_on_c, 1, 52, 80
3, 39356, Note_off_c, 1, 52, 100
3, 39360, Note_on_c, 1, 55, 80
3, 39452, Note_off_c, 1, 55, 100
3, 39456, Note_on_c, 1, 59, 80
3, 39544, Control_c, 1, 64, 0
3, 39548, Note_off_c, 1, 59, 100
3, 39552, Control_c, 1, 64, 127
3, 39552, Note_on_c, 1, 47, 80
3, 39644, Note_off_c, 1, 47, 100
3, 39648, Note_on_c, 1, 52, 80
3, 39740, Note_off_c, 1, 52, 100
3, 39744, Note_on_c, 1, 55, 80
3, 39836, Note_off_c, 1, 55, 100
3, 39840, Note_on_c, 1, 59, 80
3, 39928, Control_c, 1, 64, 0
3, 39932, Note_off_c, 1, 59, 100
3, 39936, Control_c, 1, 64, 127
3, 39936, Note_on_c, 1, 47, 80
3, 40028, Note_off_c, 1, 47, 100
3, 40032, Note_on_c, 1, 51, 82
3, 40124, Note_off_c, 1, 51, 100
3, 40128, Note_on_c, 1, 54, 84
3, 40220, Note_off_c, 1, 54, 100
3, 40224, Note_on_c, 1, 59, 86
3, 40312, Control_c, 1, 64, 0
3, 40316, Note_off_c, 1, 59, 100
3, 40320, Control_c, 1, 64, 127
3, 40320, Note_on_c, 1, 58, 88
3, 40412, Note_off_c, 1, 58, 100
3, 40416, Note_on_c, 1, 59, 90
3, 40508, Note_off_c, 1, 59, 100
3, 40512, Note_on_c, 1, 55, 92
3, 40604, Note_off_c, 1, 55, 100
3, 40608, Note_on_c, 1, 52, 94
3, 40696, Control_c, 1, 64, 0
3, 40700, Note_off_c, 1, 52, 100
3, 40704, Control_c, 1, 64, 127
3, 40704, Note_on_c, 1, 47, 96
3, 40796, Note_off_c, 1, 47, 100
3, 40800, Note_on_c, 1, 51, 98
3, 40892, Note_off_c, 1, 51, 100
3, 40896, Note_on_c, 1, 54, 100
3, 40988, Note_off_c, 1, 54, 100
3, 40992, Note_on_c, 1, 59, 102
3, 41080, Control_c, 1, 64, 0
3, 41084, Note_off_c, 1, 59, 100
3, 41088, Control_c, 1, 64, 127
3, 41088, Note_on_c, 1, 58, 104
3, 41180, Note_off_c, 1, 58, 100
3, 41184, Note_on_c, 1, 59, 106
3, 41276, Note_off_c, 1, 59, 100
3, 41280, Note_on_c, 1, 55, 108
3, 41372, Note_off_c, 1, 55, 100
3, 41376, Note_on_c, 1, 52, 110
3, 41464, Control_c, 1, 64, 0
3, 41468, Note_off_c, 1, 52, 100
3, 41472, Control_c, 1, 64, 127
3, 41472, Note_on_c, 1, 47, 110
3, 41564, Note_off_c, 1, 47, 100
3, 41568, Note_on_c, 1, 51, 110
3, 41660, Note_off_c, 1, 51, 100
3, 41664, Note_on_c, 1, 54, 110
3, 41756, Note_off_c, 1, 54, 100
3, 41760, Note_on_c, 1, 59, 110
3, 41848, Control_c, 1, 64, 0
3, 41852, Note_off_c, 1, 59, 100
3, 41856, Control_c, 1, 64, 127
3, 41856, Note_on_c, 1, 47, 110
3, 41948, Note_off_c, 1, 47, 100
3, 41952, Note_on_c, 1, 52, 110
3, 42044, Note_off_c, 1, 52, 100
3, 42048, Note_on_c, 1, 55, 110
3, 42140, Note_off_c, 1, 55, 100
3, 42144, Note_on_c, 1, 59, 110
3, 42232, Control_c, 1, 64, 0
3, 42236, Note_off_c, 1, 59, 100
3, 42240, Control_c, 1, 64, 127
3, 42240, Note_on_c, 1, 47, 110
3, 42332, Note_off_c, 1, 47, 100
3, 42336, Note_on_c, 1, 51, 110
3, 42428, Note_off_c, 1, 51, 100
3, 42432, Note_on_c, 1, 54, 110
3, 42524, Note_off_c, 1, 54, 100
3, 42528, Note_on_c, 1, 59, 110
3, 42616, Control_c, 1, 64, 0
3, 42620, Note_off_c, 1, 59, 100
3, 42624, Control_c, 1, 64, 127
3, 42624, Note_on_c, 1, 47, 110
3, 42716, Note_off_c, 1, 47, 100
3, 42720, Note_on_c, 1, 52, 110
3, 42812, Note_off_c, 1, 52, 100
3, 42816, Note_on_c, 1, 55, 110
3, 42908, Note_off_c, 1, 55, 100
3, 42912, Note_on_c, 1, 59, 110
3, 43000, Control_c, 1, 64, 0
3, 43004, Note_off_c, 1, 59, 100
3, 43008, Note_on_c, 1, 59, 110
3, 43008, Note_on_c, 1, 54, 110
3, 43008, Note_on_c, 1, 51, 110
3, 43008, Note_on_c, 1, 47, 110
3, 43388, Note_off_c, 1, 59, 100
3, 43388, Note_off_c, 1, 54, 100
3, 43388, Note_off_c, 1, 51, 100
3, 43388, Note_off_c, 1, 47, 100
3, 44544, Control_c, 1, 64, 127
3, 44920, Control_c, 1, 64, 0
3, 44928, Control_c, 1, 64, 127
3, 45304, Control_c, 1, 64, 0
3, 45312, Control_c, 1, 64, 127
3, 45688, Control_c, 1, 64, 0
3, 45696, Control_c, 1, 64, 127
3, 45696, Note_on_c, 1, 35, 110
3, 45788, Note_off_c, 1, 35, 100
3, 45792, Note_on_c, 1, 39, 110
3, 45884, Note_off_c, 1, 39, 100
3, 45888, Note_on_c, 1, 42, 110
3, 45980, Note_off_c, 1, 42, 100
3, 45984, Note_on_c, 1, 47, 110
3, 46072, Control_c, 1, 64, 0
3, 46076, Note_off_c, 1, 47, 100
3, 46080, Note_on_c, 1, 35, 110
3, 46268, Note_off_c, 1, 35, 100
3, 46272, Note_on_c, 1, 47, 109
3, 46460, Note_off_c, 1, 47, 100
3, 46464, Note_on_c, 1, 37, 107
3, 46652, Note_off_c, 1, 37, 100
3, 46656, Note_on_c, 1, 49, 105
3, 46844, Note_off_c, 1, 49, 100
3, 46848, Note_on_c, 1, 39, 103
3, 47036, Note_off_c, 1, 39, 100
3, 47040, Note_on_c, 1, 51, 101
3, 47228, Note_off_c, 1, 51, 100
3, 47616, Note_on_c, 1, 39, 95
3, 47804, Note_off_c, 1, 39, 100
3, 47808, Note_on_c, 1, 51, 93
3, 47996, Note_off_c, 1, 51, 100
3, 48000, Note_on_c, 1, 40, 91
3, 48188, Note_off_c, 1, 40, 100
3, 48192, Note_on_c, 1, 52, 89
3, 48380, Note_off_c, 1, 52, 100
3, 48384, Note_on_c, 1, 42, 87
3, 48572, Note_off_c, 1, 42, 100
3, 48576, Note_on_c, 1, 54, 85
3, 48764, Note_off_c, 1, 54, 100
3, 49920, Note_on_c, 1, 42, 80
3, 50108, Note_off_c, 1, 42, 100
3, 50112, Note_on_c, 1, 54, 80
3, 50300, Note_off_c, 1, 54, 100
3, 50304, Note_on_c, 1, 44, 80
3, 50492, Note_off_c, 1, 44, 100
3, 50496, Note_on_c, 1, 56, 80
3, 50684, Note_off_c, 1, 56, 100
3, 50688, Note_on_c, 1, 45, 80
3, 50876, Note_off_c, 1, 45, 100
3, 50880, Note_on_c, 1, 57, 80
3, 51068, Note_off_c, 1, 57, 100
3, 51072, Note_on_c, 1, 47, 80
3, 51260, Note_off_c, 1, 47, 100
3, 51264, Note_on_c, 1, 59, 80
3, 51452, Note_off_c, 1, 59, 100
3, 51456, Note_on_c, 1, 49, 80
3, 51644, Note_off_c, 1, 49, 100
3, 51648, Note_on_c, 1, 61, 80
3, 51836, Note_off_c, 1, 61, 100
3, 51840, Note_on_c, 1, 51, 80
3, 52028, Note_off_c, 1, 51, 100
3, 52032, Note_on_c, 1, 63, 80
3, 52220, Note_off_c, 1, 63, 100
3, 52224, Note_on_c, 1, 68, 80
3, 52224, Note_on_c, 1, 64, 80
3, 52988, Note_off_c, 1, 68, 100
3, 52988, Note_off_c, 1, 64, 100
3, 52992, Note_on_c, 1, 66, 80
3, 52992, Note_on_c, 1, 63, 80
3, 52992, Note_on_c, 1, 59, 80
3, 53372, Note_off_c, 1, 66, 100
3, 53372, Note_off_c, 1, 63, 100
3, 53372, Note_off_c, 1, 59, 100
3, 53376, Note_on_c, 1, 64, 80
3, 53376, Note_on_c, 1, 61, 80
3, 53756, Note_off_c, 1, 64, 100
3, 53756, Note_off_c, 1, 61, 100
3, 53760, Note_on_c, 1, 63, 80
3, 53760, Note_on_c, 1, 60, 80
3, 53760, Note_on_c, 1, 56, 80
3, 54524, Note_off_c, 1, 63, 100
3, 54524, Note_off_c, 1, 60, 100
3, 54524, Note_off_c, 1, 56, 100
3, 54528, Note_on_c, 1, 61, 80
3, 54528, Note_on_c, 1, 57, 80
3, 55292, Note_off_c, 1, 61, 100
3, 55292, Note_off_c, 1, 57, 100
3, 55296, Note_on_c, 1, 63, 80
3, 55296, Note_on_c, 1, 59, 80
3, 55296, Note_on_c, 1, 57, 80
3, 55296, Note_on_c, 1, 54, 80
3, 56060, Note_off_c, 1, 63, 100
3, 56060, Note_off_c, 1, 59, 100
3, 56060, Note_off_c, 1, 57, 100
3, 56060, Note_off_c, 1, 54, 100
3, 56064, Note_on_c, 1, 64, 99
3, 56064, Note_on_c, 1, 59, 99
3, 56064, Note_on_c, 1, 56, 99
3, 56444, Note_off_c, 1, 64, 100
3, 56444, Note_off_c, 1, 59, 100
3, 56444, Note_off_c, 1, 56, 100
3, 56448, Note_on_c, 1, 66, 109
3, 56448, Note_on_c, 1, 61, 109
3, 56448, Note_on_c, 1, 57, 109
3, 56828, Note_off_c, 1, 66, 100
3, 56828, Note_off_c, 1, 61, 100
3, 56828, Note_off_c, 1, 57, 100
3, 56832, Note_on_c, 1, 68, 110
3, 56832, Note_on_c, 1, 64, 110
3, 56832, Note_on_c, 1, 59, 110
3, 57596, Note_off_c, 1, 68, 100
3, 57596, Note_off_c, 1, 64, 100
3, 57600, Note_on_c, 1, 66, 91
3, 57600, Note_on_c, 1, 63, 91
3, 58364, Note_off_c, 1, 59, 100
3, 58364, Note_off_c, 1, 66, 100
3, 58364, Note_off_c, 1, 63, 100
3, 58368, Note_on_c, 1, 56, 80
3, 58368, Note_on_c, 1, 52, 80
3, 59132, Note_off_c, 1, 56, 100
3, 59132, Note_off_c, 1, 52, 100
3, 59136, Note_on_c, 1, 54, 80
3, 59136, Note_on_c, 1, 51, 80
3, 59136, Note_on_c, 1, 47, 80
3, 59516, Note_off_c, 1, 54, 100
3, 59516, Note_off_c, 1, 51, 100
3, 59516, Note_off_c, 1, 47, 100
3, 59520, Note_on_c, 1, 52, 80
3, 59520, Note_on_c, 1, 49, 80
3, 59900, Note_off_c, 1, 52, 100
3, 59900, Note_off_c, 1, 49, 100
3, 59904, Note_on_c, 1, 51, 80
3, 59904, Note_on_c, 1, 48, 80
3, 59904, Note_on_c, 1, 44, 80
3, 60668, Note_off_c, 1, 51, 100
3, 60668, Note_off_c, 1, 48, 100
3, 60668, Note_off_c, 1, 44, 100
3, 60672, Note_on_c, 1, 49, 80
3, 60672, Note_on_c, 1, 45, 80
3, 61436, Note_off_c, 1, 49, 100
3, 61436, Note_off_c, 1, 45, 100
3, 61440, Note_on_c, 1, 47, 80
3, 61440, Note_on_c, 1, 35, 80
3, 62972, Note_off_c, 1, 47, 100
3, 62972, Note_off_c, 1, 35, 100
3, 62976, Note_on_c, 1, 52, 80
3, 62976, Note_on_c, 1, 40, 80
3, 63356, Note_off_c, 1, 52, 100
3, 63356, Note_off_c, 1, 40, 100
3, 64512, Note_on_c, 1, 68, 80
3, 64512, Note_on_c, 1, 64, 80
3, 65276, Note_off_c, 1, 68, 100
3, 65276, Note_off_c, 1, 64, 100
3, 65280, Note_on_c, 1, 66, 80
3, 65280, Note_on_c, 1, 63, 80
3, 65280, Note_on_c, 1, 59, 80
3, 65660, Note_off_c, 1, 66, 100
3, 65660, Note_off_c, 1, 63, 100
3, 65660, Note_off_c, 1, 59, 100
3, 65664, Note_on_c, 1, 61, 80
3, 65664, Note_on_c, 1, 64, 80
3, 66044, Note_off_c, 1, 61, 100
3, 66044, Note_off_c, 1, 64, 100
3, 66048, Note_on_c, 1, 66, 80
3, 66048, Note_on_c, 1, 63, 80
3, 66048, Note_on_c, 1, 60, 80
3, 66812, Note_off_c, 1, 66, 100
3, 66812, Note_off_c, 1, 63, 100
3, 66812, Note_off_c, 1, 60, 100
3, 66816, Note_on_c, 1, 61, 80
3, 66816, Note_on_c, 1, 57, 80
3, 67580, Note_off_c, 1, 61, 100
3, 67580, Note_off_c, 1, 57, 100
3, 67584, Note_on_c, 1, 59, 80
3, 67584, Note_on_c, 1, 63, 80
3, 67584, Note_on_c, 1, 57, 80
3, 67584, Note_on_c, 1, 54, 80
3, 68348, Note_off_c, 1, 59, 100
3, 68348, Note_off_c, 1, 63, 100
3, 68348, Note_off_c, 1, 57, 100
3, 68348, Note_off_c, 1, 54, 100
3, 68352, Note_on_c, 1, 64, 96
3, 68352, Note_on_c, 1, 59, 96
3, 68352, Note_on_c, 1, 56, 96
3, 68732, Note_off_c, 1, 64, 100
3, 68732, Note_off_c, 1, 59, 100
3, 68732, Note_off_c, 1, 56, 100
3, 68736, Note_on_c, 1, 66, 105
3, 68736, Note_on_c, 1, 61, 105
3, 68736, Note_on_c, 1, 57, 105
3, 69116, Note_off_c, 1, 66, 100
3, 69116, Note_off_c, 1, 61, 100
3, 69116, Note_off_c, 1, 57, 100
3, 69120, Note_on_c, 1, 68, 110
3, 69120, Note_on_c, 1, 64, 110
3, 69120, Note_on_c, 1, 59, 110
3, 69884, Note_off_c, 1, 68, 100
3, 69884, Note_off_c, 1, 64, 100
3, 69888, Note_on_c, 1, 66, 110
3, 69888, Note_on_c, 1, 63, 110
3, 70268, Note_off_c, 1, 59, 100
3, 70268, Note_off_c, 1, 66, 100
3, 70268, Note_off_c, 1, 63, 100
3, 70272, Note_on_c, 1, 47, 99
3, 70396, Note_off_c, 1, 47, 100
3, 70400, Note_on_c, 1, 49, 95
3, 70524, Note_off_c, 1, 49, 100
3, 70528, Note_on_c, 1, 51, 91
3, 70652, Note_off_c, 1, 51, 100
3, 70656, Note_on_c, 1, 52, 80
3, 70656, Note_on_c, 1, 56, 80
3, 71420, Note_off_c, 1, 52, 100
3, 71420, Note_off_c, 1, 56, 100
3, 71424, Note_on_c, 1, 54, 80
3, 71424, Note_on_c, 1, 51, 80
3, 71424, Note_on_c, 1, 47, 80
3, 71804, Note_off_c, 1, 54, 100
3, 71804, Note_off_c, 1, 51, 100
3, 71804, Note_off_c, 1, 47, 100
3, 71808, Note_on_c, 1, 52, 80
3, 71808, Note_on_c, 1, 49, 80
3, 72188, Note_off_c, 1, 52, 100
3, 72188, Note_off_c, 1, 49, 100
3, 72192, Note_on_c, 1, 51, 80
3, 72192, Note_on_c, 1, 48, 80
3, 72192, Note_on_c, 1, 44, 80
3, 72956, Note_off_c, 1, 51, 100
3, 72956, Note_off_c, 1, 48, 100
3, 72956, Note_off_c, 1, 44, 100
3, 72960, Note_on_c, 1, 49, 80
3, 72960, Note_on_c, 1, 45, 80
3, 73724, Note_off_c, 1, 49, 100
3, 73724, Note_off_c, 1, 45, 100
3, 73728, Note_on_c, 1, 47, 80
3, 73728, Note_on_c, 1, 35, 80
3, 75260, Note_off_c, 1, 47, 100
3, 75260, Note_off_c, 1, 35, 100
3, 75264, Note_on_c, 1, 52, 110
3, 75264, Note_on_c, 1, 40, 110
3, 75644, Note_off_c, 1, 52, 100
3, 75644, Note_off_c, 1, 40, 100
3, 75648, Note_on_c, 1, 47, 110
3, 76412, Note_off_c, 1, 47, 100
3, 76416, Note_on_c, 1, 47, 110
3, 77180, Note_off_c, 1, 47, 100
3, 77184, Note_on_c, 1, 47, 110
3, 77948, Note_off_c, 1, 47, 100
3, 77952, Note_on_c, 1, 47, 110
3, 78332, Note_off_c, 1, 47, 100
3, 78336, Note_on_c, 1, 52, 110
3, 78460, Note_off_c, 1, 52, 100
3, 78464, Note_on_c, 1, 47, 110
3, 78588, Note_off_c, 1, 47, 100
3, 78592, Note_on_c, 1, 44, 110
3, 78716, Note_off_c, 1, 44, 100
3, 78720, Note_on_c, 1, 47, 110
3, 78844, Note_off_c, 1, 47, 100
3, 78848, Note_on_c, 1, 52, 110
3, 78972, Note_off_c, 1, 52, 100
3, 78976, Note_on_c, 1, 56, 110
3, 79100, Note_off_c, 1, 56, 100
3, 79104, Note_on_c, 1, 54, 110
3, 79228, Note_off_c, 1, 54, 100
3, 79232, Note_on_c, 1, 51, 110
3, 79356, Note_off_c, 1, 51, 100
3, 79360, Note_on_c, 1, 47, 110
3, 79484, Note_off_c, 1, 47, 100
3, 79488, Note_on_c, 1, 51, 110
3, 79612, Note_off_c, 1, 51, 100
3, 79616, Note_on_c, 1, 54, 110
3, 79740, Note_off_c, 1, 54, 100
3, 79744, Note_on_c, 1, 57, 110
3, 79868, Note_off_c, 1, 57, 100
3, 79872, Note_on_c, 1, 56, 110
3, 79996, Note_off_c, 1, 56, 100
3, 80000, Note_on_c, 1, 52, 110
3, 80124, Note_off_c, 1, 52, 100
3, 80128, Note_on_c, 1, 47, 110
3, 80252, Note_off_c, 1, 47, 100
3, 80256, Note_on_c, 1, 52, 110
3, 80380, Note_off_c, 1, 52, 100
3, 80384, Note_on_c, 1, 56, 110
3, 80508, Note_off_c, 1, 56, 100
3, 80512, Note_on_c, 1, 59, 110
3, 80636, Note_off_c, 1, 59, 100
3, 80640, Note_on_c, 1, 57, 110
3, 80764, Note_off_c, 1, 57, 100
3, 80768, Note_on_c, 1, 54, 110
3, 80892, Note_off_c, 1, 54, 100
3, 80896, Note_on_c, 1, 51, 110
3, 81020, Note_off_c, 1, 51, 100
3, 81024, Note_on_c, 1, 63, 110
3, 81148, Note_off_c, 1, 63, 100
3, 81152, Note_on_c, 1, 59, 110
3, 81276, Note_off_c, 1, 59, 100
3, 81280, Note_on_c, 1, 54, 110
3, 81404, Note_off_c, 1, 54, 100
3, 81408, Control_c, 1, 64, 127
3, 81408, Note_on_c, 1, 56, 110
3, 81532, Note_off_c, 1, 56, 100
3, 81536, Note_on_c, 1, 59, 110
3, 81660, Note_off_c, 1, 59, 100
3, 81664, Note_on_c, 1, 64, 110
3, 81784, Control_c, 1, 64, 0
3, 81788, Note_off_c, 1, 64, 100
3, 81792, Control_c, 1, 64, 127
3, 81792, Note_on_c, 1, 59, 110
3, 81916, Note_off_c, 1, 59, 100
3, 81920, Note_on_c, 1, 56, 110
3, 82044, Note_off_c, 1, 56, 100
3, 82048, Note_on_c, 1, 52, 110
3, 82168, Control_c, 1, 64, 0
3, 82172, Note_off_c, 1, 52, 100
3, 82176, Control_c, 1, 64, 127
3, 82176, Note_on_c, 1, 51, 110
3, 82300, Note_off_c, 1, 51, 100
3, 82304, Note_on_c, 1, 54, 110
3, 82428, Note_off_c, 1, 54, 100
3, 82432, Note_on_c, 1, 57, 110
3, 82552, Control_c, 1, 64, 0
3, 82556, Note_off_c, 1, 57, 100
3, 82560, Control_c, 1, 64, 127
3, 82560, Note_on_c, 1, 54, 110
3, 82684, Note_off_c, 1, 54, 100
3, 82688, Note_on_c, 1, 51, 110
3, 82812, Note_off_c, 1, 51, 100
3, 82816, Note_on_c, 1, 47, 110
3, 82936, Control_c, 1, 64, 0
3, 82940, Note_off_c, 1, 47, 100
3, 82944, Control_c, 1, 64, 127
3, 82944, Note_on_c, 1, 52, 110
3, 83068, Note_off_c, 1, 52, 100
3, 83072, Note_on_c, 1, 56, 110
3, 83196, Note_off_c, 1, 56, 100
3, 83200, Note_on_c, 1, 59, 110
3, 83320, Control_c, 1, 64, 0
3, 83324, Note_off_c, 1, 59, 100
3, 83328, Control_c, 1, 64, 127
3, 83328, Note_on_c, 1, 56, 110
3, 83452, Note_off_c, 1, 56, 100
3, 83456, Note_on_c, 1, 52, 110
3, 83580, Note_off_c, 1, 52, 100
3, 83584, Note_on_c, 1, 47, 110
3, 83704, Control_c, 1, 64, 0
3, 83708, Note_off_c, 1, 47, 100
3, 83712, Control_c, 1, 64, 127
3, 83712, Note_on_c, 1, 54, 110
3, 83836, Note_off_c, 1, 54, 100
3, 83840, Note_on_c, 1, 57, 110
3, 83964, Note_off_c, 1, 57, 100
3, 83968, Note_on_c, 1, 59, 110
3, 84088, Control_c, 1, 64, 0
3, 84092, Note_off_c, 1, 59, 100
3, 84096, Control_c, 1, 64, 127
3, 84096, Note_on_c, 1, 57, 110
3, 84220, Note_off_c, 1, 57, 100
3, 84224, Note_on_c, 1, 59, 110
3, 84348, Note_off_c, 1, 59, 100
3, 84352, Note_on_c, 1, 66, 110
3, 84472, Control_c, 1, 64, 0
3, 84476, Note_off_c, 1, 66, 100
3, 84480, Control_c, 1, 64, 127
3, 84480, Note_on_c, 1, 56, 110
3, 84604, Note_off_c, 1, 56, 100
3, 84608, Note_on_c, 1, 59, 110
3, 84732, Note_off_c, 1, 59, 100
3, 84736, Note_on_c, 1, 64, 110
3, 84856, Control_c, 1, 64, 0
3, 84860, Note_off_c, 1, 64, 100
3, 84864, Control_c, 1, 64, 127
3, 84864, Note_on_c, 1, 52, 110
3, 84988, Note_off_c, 1, 52, 100
3, 84992, Note_on_c, 1, 56, 110
3, 85116, Note_off_c, 1, 56, 100
3, 85120, Note_on_c, 1, 59, 109
3, 85240, Control_c, 1, 64, 0
3, 85244, Note_off_c, 1, 59, 100
3, 85248, Control_c, 1, 64, 127
3, 85248, Note_on_c, 1, 54, 108
3, 85372, Note_off_c, 1, 54, 100
3, 85376, Note_on_c, 1, 57, 107
3, 85500, Note_off_c, 1, 57, 100
3, 85504, Note_on_c, 1, 59, 106
3, 85624, Control_c, 1, 64, 0
3, 85628, Note_off_c, 1, 59, 100
3, 85632, Control_c, 1, 64, 127
3, 85632, Note_on_c, 1, 57, 105
3, 85756, Note_off_c, 1, 57, 100
3, 85760, Note_on_c, 1, 59, 104
3, 85884, Note_off_c, 1, 59, 100
3, 85888, Note_on_c, 1, 66, 103
3, 86008, Control_c, 1, 64, 0
3, 86012, Note_off_c, 1, 66, 100
3, 86016, Control_c, 1, 64, 127
3, 86016, Note_on_c, 1, 56, 102
3, 86140, Note_off_c, 1, 56, 100
3, 86144, Note_on_c, 1, 59, 101
3, 86268, Note_off_c, 1, 59, 100
3, 86272, Note_on_c, 1, 64, 100
3, 86392, Control_c, 1, 64, 0
3, 86396, Note_off_c, 1, 64, 100
3, 86400, Control_c, 1, 64, 127
3, 86400, Note_on_c, 1, 52, 99
3, 86524, Note_off_c, 1, 52, 100
3, 86528, Note_on_c, 1, 56, 98
3, 86652, Note_off_c, 1, 56, 100
3, 86656, Note_on_c, 1, 59, 97
3, 86776, Control_c, 1, 64, 0
3, 86780, Note_off_c, 1, 59, 100
3, 86784, Control_c, 1, 64, 127
3, 86784, Note_on_c, 1, 54, 96
3, 86908, Note_off_c, 1, 54, 100
3, 86912, Note_on_c, 1, 57, 95
3, 87036, Note_off_c, 1, 57, 100
3, 87040, Note_on_c, 1, 59, 94
3, 87160, Control_c, 1, 64, 0
3, 87164, Note_off_c, 1, 59, 100
3, 87168, Control_c, 1, 64, 127
3, 87168, Note_on_c, 1, 57, 93
3, 87292, Note_off_c, 1, 57, 100
3, 87296, Note_on_c, 1, 59, 92
3, 87420, Note_off_c, 1, 59, 100
3, 87424, Note_on_c, 1, 66, 91
3, 87544, Control_c, 1, 64, 0
3, 87548, Note_off_c, 1, 66, 100
3, 87552, Control_c, 1, 64, 127
3, 87552, Note_on_c, 1, 56, 90
3, 87644, Note_off_c, 1, 56, 100
3, 87648, Note_on_c, 1, 59, 90
3, 87740, Note_off_c, 1, 59, 100
3, 87744, Note_on_c, 1, 52, 91
3, 87836, Note_off_c, 1, 52, 100
3, 87840, Note_on_c, 1, 59, 92
3, 87928, Control_c, 1, 64, 0
3, 87932, Note_off_c, 1, 59, 100
3, 87936, Control_c, 1, 64, 127
3, 87936, Note_on_c, 1, 54, 92
3, 88028, Note_off_c, 1, 54, 100
3, 88032, Note_on_c, 1, 59, 93
3, 88124, Note_off_c, 1, 59, 100
3, 88128, Note_on_c, 1, 57, 94
3, 88220, Note_off_c, 1, 57, 100
3, 88224, Note_on_c, 1, 59, 94
3, 88312, Control_c, 1, 64, 0
3, 88316, Note_off_c, 1, 59, 100
3, 88320, Control_c, 1, 64, 127
3, 88320, Note_on_c, 1, 56, 95
3, 88412, Note_off_c, 1, 56, 100
3, 88416, Note_on_c, 1, 59, 96
3, 88508, Note_off_c, 1, 59, 100
3, 88512, Note_on_c, 1, 52, 96
3, 88604, Note_off_c, 1, 52, 100
3, 88608, Note_on_c, 1, 59, 97
3, 88696, Control_c, 1, 64, 0
3, 88700, Note_off_c, 1, 59, 100
3, 88704, Control_c, 1, 64, 127
3, 88704, Note_on_c, 1, 54, 98
3, 88796, Note_off_c, 1, 54, 100
3, 88800, Note_on_c, 1, 59, 98
3, 88892, Note_off_c, 1, 59, 100
3, 88896, Note_on_c, 1, 57, 99
3, 88988, Note_off_c, 1, 57, 100
3, 88992, Note_on_c, 1, 59, 100
3, 89080, Control_c, 1, 64, 0
3, 89084, Note_off_c, 1, 59, 100
3, 89088, Control_c, 1, 64, 127
3, 89088, Note_on_c, 1, 56, 100
3, 89180, Note_off_c, 1, 56, 100
3, 89184, Note_on_c, 1, 59, 101
3, 89276, Note_off_c, 1, 59, 100
3, 89280, Note_on_c, 1, 57, 102
3, 89372, Note_off_c, 1, 57, 100
3, 89376, Note_on_c, 1, 59, 102
3, 89464, Control_c, 1, 64, 0
3, 89468, Note_off_c, 1, 59, 100
3, 89472, Control_c, 1, 64, 127
3, 89472, Note_on_c, 1, 56, 103
3, 89564, Note_off_c, 1, 56, 100
3, 89568, Note_on_c, 1, 59, 104
3, 89660, Note_off_c, 1, 59, 100
3, 89664, Note_on_c, 1, 57, 104
3, 89756, Note_off_c, 1, 57, 100
3, 89760, Note_on_c, 1, 59, 105
3, 89848, Control_c, 1, 64, 0
3, 89852, Note_off_c, 1, 59, 100
3, 89856, Control_c, 1, 64, 127
3, 89856, Note_on_c, 1, 56, 106
3, 89948, Note_off_c, 1, 56, 100
3, 89952, Note_on_c, 1, 59, 106
3, 90044, Note_off_c, 1, 59, 100
3, 90048, Note_on_c, 1, 57, 107
3, 90140, Note_off_c, 1, 57, 100
3, 90144, Note_on_c, 1, 59, 108
3, 90232, Control_c, 1, 64, 0
3, 90236, Note_off_c, 1, 59, 100
3, 90240, Control_c, 1, 64, 127
3, 90240, Note_on_c, 1, 56, 108
3, 90332, Note_off_c, 1, 56, 100
3, 90336, Note_on_c, 1, 59, 109
3, 90428, Note_off_c, 1, 59, 100
3, 90432, Note_on_c, 1, 57, 110
3, 90524, Note_off_c, 1, 57, 100
3, 90528, Note_on_c, 1, 59, 110
3, 90616, Control_c, 1, 64, 0
3, 90620, Note_off_c, 1, 59, 100
3, 90624, Control_c, 1, 64, 127
3, 90624, Note_on_c, 1, 56, 110
3, 90716, Note_off_c, 1, 56, 100
3, 90720, Note_on_c, 1, 59, 110
3, 90812, Note_off_c, 1, 59, 100
3, 90816, Note_on_c, 1, 44, 110
3, 90908, Note_off_c, 1, 44, 100
3, 90912, Note_on_c, 1, 52, 110
3, 91000, Control_c, 1, 64, 0
3, 91004, Note_off_c, 1, 52, 100
3, 91008, Control_c, 1, 64, 127
3, 91008, Note_on_c, 1, 44, 110
3, 91100, Note_off_c, 1, 44, 100
3, 91104, Note_on_c, 1, 52, 110
3, 91196, Note_off_c, 1, 52, 100
3, 91200, Note_on_c, 1, 44, 110
3, 91292, Note_off_c, 1, 44, 100
3, 91296, Note_on_c, 1, 52, 110
3, 91384, Control_c, 1, 64, 0
3, 91388, Note_off_c, 1, 52, 100
3, 91392, Control_c, 1, 64, 127
3, 91392, Note_on_c, 1, 44, 110
3, 91484, Note_off_c, 1, 44, 100
3, 91488, Note_on_c, 1, 52, 110
3, 91580, Note_off_c, 1, 52, 100
3, 91584, Note_on_c, 1, 44, 110
3, 91676, Note_off_c, 1, 44, 100
3, 91680, Note_on_c, 1, 52, 110
3, 91768, Control_c, 1, 64, 0
3, 91772, Note_off_c, 1, 52, 100
3, 91776, Control_c, 1, 64, 127
3, 91776, Note_on_c, 1, 44, 110
3, 91868, Note_off_c, 1, 44, 100
3, 91872, Note_on_c, 1, 52, 110
3, 91964, Note_off_c, 1, 52, 100
3, 91968, Note_on_c, 1, 44, 110
3, 92060, Note_off_c, 1, 44, 100
3, 92064, Note_on_c, 1, 52, 110
3, 92152, Control_c, 1, 64, 0
3, 92156, Note_off_c, 1, 52, 100
3, 92160, Control_c, 1, 64, 127
3, 92160, Note_on_c, 1, 44, 110
3, 92252, Note_off_c, 1, 44, 100
3, 92256, Note_on_c, 1, 52, 110
3, 92348, Note_off_c, 1, 52, 100
3, 92352, Note_on_c, 1, 44, 110
3, 92444, Note_off_c, 1, 44, 100
3, 92448, Note_on_c, 1, 52, 110
3, 92536, Control_c, 1, 64, 0
3, 92540, Note_off_c, 1, 52, 100
3, 92544, Control_c, 1, 64, 127
3, 92544, Note_on_c, 1, 44, 110
3, 92636, Note_off_c, 1, 44, 100
3, 92640, Note_on_c, 1, 52, 110
3, 92732, Note_off_c, 1, 52, 100
3, 92736, Note_on_c, 1, 44, 110
3, 92828, Note_off_c, 1, 44, 100
3, 92832, Note_on_c, 1, 52, 110
3, 92920, Control_c, 1, 64, 0
3, 92924, Note_off_c, 1, 52, 100
3, 92928, Control_c, 1, 64, 127
3, 92928, Note_on_c, 1, 44, 110
3, 93020, Note_off_c, 1, 44, 100
3, 93024, Note_on_c, 1, 52, 110
3, 93116, Note_off_c, 1, 52, 100
3, 93120, Note_on_c, 1, 44, 110
3, 93212, Note_off_c, 1, 44, 100
3, 93216, Note_on_c, 1, 52, 110
3, 93304, Control_c, 1, 64, 0
3, 93308, Note_off_c, 1, 52, 100
3, 93312, Control_c, 1, 64, 127
3, 93312, Note_on_c, 1, 44, 110
3, 93404, Note_off_c, 1, 44, 100
3, 93408, Note_on_c, 1, 52, 110
3, 93500, Note_off_c, 1, 52, 100
3, 93504, Note_on_c, 1, 44, 110
3, 93596, Note_off_c, 1, 44, 100
3, 93600, Note_on_c, 1, 52, 110
3, 93688, Control_c, 1, 64, 0
3, 93692, Note_off_c, 1, 52, 100
3, 93696, Note_on_c, 1, 52, 120
3, 93696, Note_on_c, 1, 49, 120
3, 93696, Note_on_c, 1, 45, 120
3, 93884, Note_off_c, 1, 52, 100
3, 93884, Note_off_c, 1, 49, 100
3, 93884, Note_off_c, 1, 45, 100
3, 93888, Note_on_c, 1, 52, 120
3, 93888, Note_on_c, 1, 49, 120
3, 93888, Note_on_c, 1, 45, 120
3, 94076, Note_off_c, 1, 52, 100
3, 94076, Note_off_c, 1, 49, 100
3, 94076, Note_off_c, 1, 45, 100
3, 94272, Note_on_c, 1, 52, 120
3, 94272, Note_on_c, 1, 49, 120
3, 94272, Note_on_c, 1, 45, 120
3, 94460, Note_off_c, 1, 52, 100
3, 94460, Note_off_c, 1, 49, 100
3, 94460, Note_off_c, 1, 45, 100
3, 94464, Note_on_c, 1, 52, 120
3, 94464, Note_on_c, 1, 49, 120
3, 94464, Note_on_c, 1, 45, 120
3, 94652, Note_off_c, 1, 52, 100
3, 94652, Note_off_c, 1, 49, 100
3, 94652, Note_off_c, 1, 45, 100
3, 94656, Note_on_c, 1, 52, 120
3, 94656, Note_on_c, 1, 49, 120
3, 94656, Note_on_c, 1, 45, 120
3, 94844, Note_off_c, 1, 52, 100
3, 94844, Note_off_c, 1, 49, 100
3, 94844, Note_off_c, 1, 45, 100
3, 95040, Note_on_c, 1, 52, 120
3, 95040, Note_on_c, 1, 49, 120
3, 95040, Note_on_c, 1, 45, 120
3, 95228, Note_off_c, 1, 52, 100
3, 95228, Note_off_c, 1, 49, 100
3, 95228, Note_off_c, 1, 45, 100
3, 95232, Note_on_c, 1, 52, 120
3, 95232, Note_on_c, 1, 49, 120
3, 95232, Note_on_c, 1, 45, 120
3, 95420, Note_off_c, 1, 52, 100
3, 95420, Note_off_c, 1, 49, 100
3, 95420, Note_off_c, 1, 45, 100
3, 95424, Note_on_c, 1, 52, 120
3, 95424, Note_on_c, 1, 49, 120
3, 95424, Note_on_c, 1, 45, 120
3, 95612, Note_off_c, 1, 52, 100
3, 95612, Note_off_c, 1, 49, 100
3, 95612, Note_off_c, 1, 45, 100
3, 95808, Note_on_c, 1, 52, 120
3, 95808, Note_on_c, 1, 49, 120
3, 95808, Note_on_c, 1, 45, 120
3, 95996, Note_off_c, 1, 52, 100
3, 95996, Note_off_c, 1, 49, 100
3, 95996, Note_off_c, 1, 45, 100
3, 96000, Note_on_c, 1, 52, 120
3, 96000, Note_on_c, 1, 49, 120
3, 96000, Note_on_c, 1, 45, 120
3, 96188, Note_off_c, 1, 52, 100
3, 96188, Note_off_c, 1, 49, 100
3, 96188, Note_off_c, 1, 45, 100
3, 96192, Note_on_c, 1, 52, 120
3, 96192, Note_on_c, 1, 49, 120
3, 96192, Note_on_c, 1, 45, 120
3, 96380, Note_off_c, 1, 52, 100
3, 96380, Note_off_c, 1, 49, 100
3, 96380, Note_off_c, 1, 45, 100
3, 96576, Note_on_c, 1, 52, 120
3, 96576, Note_on_c, 1, 49, 120
3, 96576, Note_on_c, 1, 45, 120
3, 96764, Note_off_c, 1, 52, 100
3, 96764, Note_off_c, 1, 49, 100
3, 96764, Note_off_c, 1, 45, 100
3, 96768, Note_on_c, 1, 54, 120
3, 96768, Note_on_c, 1, 52, 120
3, 96768, Note_on_c, 1, 46, 120
3, 96768, Note_on_c, 1, 49, 120
3, 96956, Note_off_c, 1, 54, 100
3, 96956, Note_off_c, 1, 52, 100
3, 96956, Note_off_c, 1, 46, 100
3, 96956, Note_off_c, 1, 49, 100
3, 96960, Note_on_c, 1, 54, 120
3, 96960, Note_on_c, 1, 52, 120
3, 96960, Note_on_c, 1, 49, 120
3, 96960, Note_on_c, 1, 46, 120
3, 97148, Note_off_c, 1, 54, 100
3, 97148, Note_off_c, 1, 52, 100
3, 97148, Note_off_c, 1, 49, 100
3, 97148, Note_off_c, 1, 46, 100
3, 97344, Note_on_c, 1, 54, 120
3, 97344, Note_on_c, 1, 52, 120
3, 97344, Note_on_c, 1, 49, 120
3, 97344, Note_on_c, 1, 46, 120
3, 97532, Note_off_c, 1, 54, 100
3, 97532, Note_off_c, 1, 52, 100
3, 97532, Note_off_c, 1, 49, 100
3, 97532, Note_off_c, 1, 46, 100
3, 97536, Note_on_c, 1, 54, 120
3, 97536, Note_on_c, 1, 52, 120
3, 97536, Note_on_c, 1, 46, 120
3, 97536, Note_on_c, 1, 49, 120
3, 97724, Note_off_c, 1, 54, 100
3, 97724, Note_off_c, 1, 52, 100
3, 97724, Note_off_c, 1, 46, 100
3, 97724, Note_off_c, 1, 49, 100
3, 97728, Note_on_c, 1, 54, 120
3, 97728, Note_on_c, 1, 52, 120
3, 97728, Note_on_c, 1, 49, 120
3, 97728, Note_on_c, 1, 46, 120
3, 97916, Note_off_c, 1, 54, 100
3, 97916, Note_off_c, 1, 52, 100
3, 97916, Note_off_c, 1, 49, 100
3, 97916, Note_off_c, 1, 46, 100
3, 98112, Note_on_c, 1, 54, 120
3, 98112, Note_on_c, 1, 52, 120
3, 98112, Note_on_c, 1, 49, 120
3, 98112, Note_on_c, 1, 46, 120
3, 98300, Note_off_c, 1, 54, 100
3, 98300, Note_off_c, 1, 52, 100
3, 98300, Note_off_c, 1, 49, 100
3, 98300, Note_off_c, 1, 46, 100
3, 98304, Note_on_c, 1, 54, 120
3, 98304, Note_on_c, 1, 52, 120
3, 98304, Note_on_c, 1, 46, 120
3, 98304, Note_on_c, 1, 49, 120
3, 98492, Note_off_c, 1, 54, 100
3, 98492, Note_off_c, 1, 52, 100
3, 98492, Note_off_c, 1, 46, 100
3, 98492, Note_off_c, 1, 49, 100
3, 98496, Note_on_c, 1, 54, 120
3, 98496, Note_on_c, 1, 52, 120
3, 98496, Note_on_c, 1, 49, 120
3, 98496, Note_on_c, 1, 46, 120
3, 98684, Note_off_c, 1, 54, 100
3, 98684, Note_off_c, 1, 52, 100
3, 98684, Note_off_c, 1, 49, 100
3, 98684, Note_off_c, 1, 46, 100
3, 98880, Note_on_c, 1, 54, 120
3, 98880, Note_on_c, 1, 52, 120
3, 98880, Note_on_c, 1, 49, 120
3, 98880, Note_on_c, 1, 46, 120
3, 99068, Note_off_c, 1, 54, 100
3, 99068, Note_off_c, 1, 52, 100
3, 99068, Note_off_c, 1, 49, 100
3, 99068, Note_off_c, 1, 46, 100
3, 99072, Note_on_c, 1, 54, 120
3, 99072, Note_on_c, 1, 52, 120
3, 99072, Note_on_c, 1, 46, 120
3, 99072, Note_on_c, 1, 49, 120
3, 99260, Note_off_c, 1, 54, 100
3, 99260, Note_off_c, 1, 52, 100
3, 99260, Note_off_c, 1, 46, 100
3, 99260, Note_off_c, 1, 49, 100
3, 99264, Note_on_c, 1, 54, 120
3, 99264, Note_on_c, 1, 52, 120
3, 99264, Note_on_c, 1, 49, 120
3, 99264, Note_on_c, 1, 46, 120
3, 99452, Note_off_c, 1, 54, 100
3, 99452, Note_off_c, 1, 52, 100
3, 99452, Note_off_c, 1, 49, 100
3, 99452, Note_off_c, 1, 46, 100
3, 99648, Note_on_c, 1, 54, 120
3, 99648, Note_on_c, 1, 52, 120
3, 99648, Note_on_c, 1, 49, 120
3, 99648, Note_on_c, 1, 46, 120
3, 99836, Note_off_c, 1, 54, 100
3, 99836, Note_off_c, 1, 52, 100
3, 99836, Note_off_c, 1, 49, 100
3, 99836, Note_off_c, 1, 46, 100
3, 99840, Note_on_c, 1, 47, 120
3, 99932, Note_off_c, 1, 47, 100
3, 99936, Note_on_c, 1, 52, 120
3, 100028, Note_off_c, 1, 52, 100
3, 100032, Note_on_c, 1, 56, 120
3, 100124, Note_off_c, 1, 56, 100
3, 100128, Note_on_c, 1, 59, 120
3, 100220, Note_off_c, 1, 59, 100
3, 100224, Note_on_c, 1, 47, 120
3, 100316, Note_off_c, 1, 47, 100
3, 100320, Note_on_c, 1, 52, 120
3, 100412, Note_off_c, 1, 52, 100
3, 100416, Note_on_c, 1, 56, 120
3, 100508, Note_off_c, 1, 56, 100
3, 100512, Note_on_c, 1, 59, 120
3, 100604, Note_off_c, 1, 59, 100
3, 100608, Note_on_c, 1, 47, 120
3, 100700, Note_off_c, 1, 47, 100
3, 100704, Note_on_c, 1, 52, 120
3, 100796, Note_off_c, 1, 52, 100
3, 100800, Note_on_c, 1, 56, 120
3, 100892, Note_off_c, 1, 56, 100
3, 100896, Note_on_c, 1, 59, 120
3, 100988, Note_off_c, 1, 59, 100
3, 100992, Note_on_c, 1, 47, 120
3, 101084, Note_off_c, 1, 47, 100
3, 101088, Note_on_c, 1, 52, 120
3, 101180, Note_off_c, 1, 52, 100
3, 101184, Note_on_c, 1, 56, 120
3, 101276, Note_off_c, 1, 56, 100
3, 101280, Note_on_c, 1, 59, 120
3, 101372, Note_off_c, 1, 59, 100
3, 101376, Note_on_c, 1, 47, 120
3, 101468, Note_off_c, 1, 47, 100
3, 101472, Note_on_c, 1, 52, 120
3, 101564, Note_off_c, 1, 52, 100
3, 101568, Note_on_c, 1, 56, 120
3, 101660, Note_off_c, 1, 56, 100
3, 101664, Note_on_c, 1, 59, 120
3, 101756, Note_off_c, 1, 59, 100
3, 101760, Note_on_c, 1, 47, 120
3, 101852, Note_off_c, 1, 47, 100
3, 101856, Note_on_c, 1, 52, 120
3, 101948, Note_off_c, 1, 52, 100
3, 101952, Note_on_c, 1, 56, 120
3, 102044, Note_off_c, 1, 56, 100
3, 102048, Note_on_c, 1, 59, 120
3, 102140, Note_off_c, 1, 59, 100
3, 102144, Note_on_c, 1, 56, 120
3, 102332, Note_off_c, 1, 56, 100
3, 102336, Note_on_c, 1, 56, 120
3, 102524, Note_off_c, 1, 56, 100
3, 102528, Note_on_c, 1, 52, 120
3, 102716, Note_off_c, 1, 52, 100
3, 102720, Note_on_c, 1, 47, 120
3, 102908, Note_off_c, 1, 47, 100
3, 102912, Note_on_c, 1, 59, 120
3, 103100, Note_off_c, 1, 59, 100
3, 103104, Note_on_c, 1, 56, 80
3, 103292, Note_off_c, 1, 56, 100
3, 103296, Note_on_c, 1, 64, 80
3, 103484, Note_off_c, 1, 64, 100
3, 103488, Note_on_c, 1, 59, 80
3, 103676, Note_off_c, 1, 59, 100
3, 103680, Note_on_c, 1, 68, 80
3, 103868, Note_off_c, 1, 68, 100
3, 103872, Note_on_c, 1, 64, 80
3, 104060, Note_off_c, 1, 64, 100
3, 104064, Note_on_c, 1, 71, 80
3, 104252, Note_off_c, 1, 71, 100
3, 104256, Note_on_c, 1, 68, 80
3, 104444, Note_off_c, 1, 68, 100
3, 104448, Note_on_c, 1, 76, 80
3, 104636, Note_off_c, 1, 76, 100
3, 104640, Note_on_c, 1, 71, 80
3, 104828, Note_off_c, 1, 71, 100
3, 104832, Note_on_c, 1, 76, 80
3, 105020, Note_off_c, 1, 76, 100
3, 105024, Note_on_c, 1, 71, 80
3, 105212, Note_off_c, 1, 71, 100
3, 105216, Note_on_c, 1, 76, 80
3, 105404, Note_off_c, 1, 76, 100
3, 105408, Note_on_c, 1, 71, 80
3, 105596, Note_off_c, 1, 71, 100
3, 105600, Note_on_c, 1, 76, 80
3, 105788, Note_off_c, 1, 76, 100
3, 105792, Note_on_c, 1, 71, 80
3, 105980, Note_off_c, 1, 71, 100
3, 105984, Note_on_c, 1, 75, 80
3, 106172, Note_off_c, 1, 75, 100
3, 106176, Note_on_c, 1, 71, 79
3, 106364, Note_off_c, 1, 71, 100
3, 106368, Note_on_c, 1, 75, 78
3, 106556, Note_off_c, 1, 75, 100
3, 106560, Note_on_c, 1, 71, 77
3, 106748, Note_off_c, 1, 71, 100
3, 106752, Note_on_c, 1, 75, 75
3, 106940, Note_off_c, 1, 75, 100
3, 106944, Note_on_c, 1, 71, 74
3, 107132, Note_off_c, 1, 71, 100
3, 107136, Note_on_c, 1, 75, 73
3, 107324, Note_off_c, 1, 75, 100
3, 107328, Note_on_c, 1, 71, 71
3, 107516, Note_off_c, 1, 71, 100
3, 107520, Note_on_c, 1, 75, 70
3, 107708, Note_off_c, 1, 75, 100
3, 107712, Note_on_c, 1, 71, 70
3, 107900, Note_off_c, 1, 71, 100
3, 107904, Note_on_c, 1, 75, 70
3, 108092, Note_off_c, 1, 75, 100
3, 108096, Note_on_c, 1, 71, 70
3, 108284, Note_off_c, 1, 71, 100
3, 108288, Note_on_c, 1, 75, 70
3, 108476, Note_off_c, 1, 75, 100
3, 108480, Note_on_c, 1, 71, 70
3, 108668, Note_off_c, 1, 71, 100
3, 108672, Note_on_c, 1, 75, 70
3, 108860, Note_off_c, 1, 75, 100
3, 108864, Note_on_c, 1, 71, 70
3, 109052, Note_off_c, 1, 71, 100
3, 109056, Note_on_c, 1, 75, 70
3, 109104, Note_on_c, 1, 76, 70
3, 109136, Note_off_c, 1, 75, 100
3, 109152, Note_on_c, 1, 75, 71
3, 109192, Note_off_c, 1, 76, 100
3, 109200, Note_on_c, 1, 76, 71
3, 109232, Note_off_c, 1, 75, 100
3, 109248, Note_on_c, 1, 75, 72
3, 109284, Note_off_c, 1, 76, 100
3, 109296, Note_on_c, 1, 76, 73
3, 109328, Note_off_c, 1, 75, 100
3, 109344, Note_on_c, 1, 75, 73
3, 109384, Note_off_c, 1, 76, 100
3, 109392, Note_on_c, 1, 76, 74
3, 109424, Note_off_c, 1, 75, 100
3, 109440, Note_on_c, 1, 75, 75
3, 109476, Note_off_c, 1, 76, 100
3, 109488, Note_on_c, 1, 76, 75
3, 109520, Note_off_c, 1, 75, 100
3, 109536, Note_on_c, 1, 75, 76
3, 109576, Note_off_c, 1, 76, 100
3, 109584, Note_on_c, 1, 76, 77
3, 109616, Note_off_c, 1, 75, 100
3, 109632, Note_on_c, 1, 75, 77
3, 109668, Note_off_c, 1, 76, 100
3, 109680, Note_on_c, 1, 76, 78
3, 109712, Note_off_c, 1, 75, 100
3, 109728, Note_on_c, 1, 75, 78
3, 109768, Note_off_c, 1, 76, 100
3, 109776, Note_on_c, 1, 76, 79
3, 109808, Note_off_c, 1, 75, 100
3, 109824, Note_on_c, 1, 75, 80
3, 109860, Note_off_c, 1, 76, 100
3, 109872, Note_on_c, 1, 76, 80
3, 109904, Note_off_c, 1, 75, 100
3, 109920, Note_on_c, 1, 75, 81
3, 109960, Note_off_c, 1, 76, 100
3, 109968, Note_on_c, 1, 76, 82
3, 110000, Note_off_c, 1, 75, 100
3, 110016, Note_on_c, 1, 75, 82
3, 110052, Note_off_c, 1, 76, 100
3, 110064, Note_on_c, 1, 76, 83
3, 110096, Note_off_c, 1, 75, 100
3, 110112, Note_on_c, 1, 75, 84
3, 110152, Note_off_c, 1, 76, 100
3, 110160, Note_on_c, 1, 76, 84
3, 110192, Note_off_c, 1, 75, 100
3, 110208, Note_on_c, 1, 75, 85
3, 110244, Note_off_c, 1, 76, 100
3, 110256, Note_on_c, 1, 76, 85
3, 110288, Note_off_c, 1, 75, 100
3, 110304, Note_on_c, 1, 75, 86
3, 110344, Note_off_c, 1, 76, 100
3, 110352, Note_on_c, 1, 76, 87
3, 110384, Note_off_c, 1, 75, 100
3, 110400, Note_on_c, 1, 75, 87
3, 110436, Note_off_c, 1, 76, 100
3, 110448, Note_on_c, 1, 76, 88
3, 110480, Note_off_c, 1, 75, 100
3, 110496, Note_on_c, 1, 75, 89
3, 110536, Note_off_c, 1, 76, 100
3, 110544, Note_on_c, 1, 76, 89
3, 110576, Note_off_c, 1, 75, 100
3, 110592, Note_on_c, 1, 75, 90
3, 110628, Note_off_c, 1, 76, 100
3, 110640, Note_on_c, 1, 76, 91
3, 110672, Note_off_c, 1, 75, 100
3, 110688, Note_on_c, 1, 75, 91
3, 110728, Note_off_c, 1, 76, 100
3, 110736, Note_on_c, 1, 76, 92
3, 110768, Note_off_c, 1, 75, 100
3, 110784, Note_on_c, 1, 75, 93
3, 110820, Note_off_c, 1, 76, 100
3, 110832, Note_on_c, 1, 76, 93
3, 110864, Note_off_c, 1, 75, 100
3, 110880, Note_on_c, 1, 75, 94
3, 110920, Note_off_c, 1, 76, 100
3, 110928, Note_on_c, 1, 76, 94
3, 110960, Note_off_c, 1, 75, 100
3, 110976, Note_on_c, 1, 75, 95
3, 111012, Note_off_c, 1, 76, 100
3, 111024, Note_on_c, 1, 76, 96
3, 111056, Note_off_c, 1, 75, 100
3, 111072, Note_on_c, 1, 75, 96
3, 111112, Note_off_c, 1, 76, 100
3, 111120, Note_on_c, 1, 76, 97
3, 111152, Note_off_c, 1, 75, 100
3, 111168, Note_on_c, 1, 75, 98
3, 111204, Note_off_c, 1, 76, 100
3, 111216, Note_on_c, 1, 76, 98
3, 111248, Note_off_c, 1, 75, 100
3, 111264, Note_on_c, 1, 75, 99
3, 111304, Note_off_c, 1, 76, 100
3, 111312, Note_on_c, 1, 76, 100
3, 111344, Note_off_c, 1, 75, 100
3, 111360, Note_on_c, 1, 75, 100
3, 111396, Note_off_c, 1, 76, 100
3, 111408, Note_on_c, 1, 76, 101
3, 111440, Note_off_c, 1, 75, 100
3, 111456, Note_on_c, 1, 75, 101
3, 111496, Note_off_c, 1, 76, 100
3, 111504, Note_on_c, 1, 76, 102
3, 111536, Note_off_c, 1, 75, 100
3, 111552, Note_on_c, 1, 75, 103
3, 111588, Note_off_c, 1, 76, 100
3, 111600, Note_on_c, 1, 76, 103
3, 111632, Note_off_c, 1, 75, 100
3, 111648, Note_on_c, 1, 75, 104
3, 111688, Note_off_c, 1, 76, 100
3, 111696, Note_on_c, 1, 76, 105
3, 111728, Note_off_c, 1, 75, 100
3, 111744, Note_on_c, 1, 75, 105
3, 111780, Note_off_c, 1, 76, 100
3, 111792, Note_on_c, 1, 76, 106
3, 111824, Note_off_c, 1, 75, 100
3, 111840, Note_on_c, 1, 75, 107
3, 111880, Note_off_c, 1, 76, 100
3, 111888, Note_on_c, 1, 76, 107
3, 111920, Note_off_c, 1, 75, 100
3, 111936, Note_on_c, 1, 75, 108
3, 111972, Note_off_c, 1, 76, 100
3, 111984, Note_on_c, 1, 76, 109
3, 112016, Note_off_c, 1, 75, 100
3, 112032, Note_on_c, 1, 73, 109
3, 112072, Note_off_c, 1, 76, 100
3, 112080, Note_on_c, 1, 75, 110
3, 112112, Note_off_c, 1, 73, 100
3, 112124, Note_off_c, 1, 75, 100
3, 112128, Note_on_c, 1, 64, 110
3, 112128, Note_on_c, 1, 76, 110
3, 112892, Note_off_c, 1, 76, 100
3, 112896, Note_on_c, 1, 74, 80
3, 112896, Note_on_c, 1, 71, 80
3, 112896, Note_on_c, 1, 68, 80
3, 113660, Note_off_c, 1, 74, 100
3, 113660, Note_off_c, 1, 71, 100
3, 113660, Note_off_c, 1, 68, 100
3, 113664, Note_on_c, 1, 69, 80
3, 113664, Note_on_c, 1, 72, 80
3, 114428, Note_off_c, 1, 69, 100
3, 114428, Note_off_c, 1, 72, 100
3, 114432, Note_on_c, 1, 74, 80
3, 114432, Note_on_c, 1, 71, 80
3, 114432, Note_on_c, 1, 68, 80
3, 115196, Note_off_c, 1, 64, 100
3, 115196, Note_off_c, 1, 74, 100
3, 115196, Note_off_c, 1, 71, 100
3, 115196, Note_off_c, 1, 68, 100
3, 115200, Note_on_c, 1, 72, 80
3, 115200, Note_on_c, 1, 69, 80
3, 115580, Note_off_c, 1, 72, 100
3, 115580, Note_off_c, 1, 69, 100
3, 115968, Note_on_c, 1, 69, 80
3, 115968, Note_on_c, 1, 66, 80
3, 115968, Note_on_c, 1, 60, 80
3, 115968, Note_on_c, 1, 57, 80
3, 116732, Note_off_c, 1, 69, 100
3, 116732, Note_off_c, 1, 66, 100
3, 116732, Note_off_c, 1, 60, 100
3, 116732, Note_off_c, 1, 57, 100
3, 116736, Note_on_c, 1, 67, 80
3, 116736, Note_on_c, 1, 59, 80
3, 116736, Note_on_c, 1, 64, 80
3, 117500, Note_off_c, 1, 67, 100
3, 117500, Note_off_c, 1, 59, 100
3, 117500, Note_off_c, 1, 64, 100
3, 117504, Note_on_c, 1, 66, 80
3, 117504, Note_on_c, 1, 63, 80
3, 117504, Note_on_c, 1, 59, 80
3, 118268, Note_off_c, 1, 66, 100
3, 118268, Note_off_c, 1, 63, 100
3, 118268, Note_off_c, 1, 59, 100
3, 118272, Note_on_c, 1, 52, 100
3, 118272, Note_on_c, 1, 64, 100
3, 119036, Note_off_c, 1, 64, 100
3, 119040, Note_on_c, 1, 62, 80
3, 119040, Note_on_c, 1, 59, 80
3, 119040, Note_on_c, 1, 56, 80
3, 119804, Note_off_c, 1, 62, 100
3, 119804, Note_off_c, 1, 59, 100
3, 119804, Note_off_c, 1, 56, 100
3, 119808, Note_on_c, 1, 57, 80
3, 119808, Note_on_c, 1, 60, 80
3, 120572, Note_off_c, 1, 57, 100
3, 120572, Note_off_c, 1, 60, 100
3, 120576, Note_on_c, 1, 62, 80
3, 120576, Note_on_c, 1, 59, 80
3, 120576, Note_on_c, 1, 56, 80
3, 121340, Note_off_c, 1, 52, 100
3, 121340, Note_off_c, 1, 62, 100
3, 121340, Note_off_c, 1, 59, 100
3, 121340, Note_off_c, 1, 56, 100
3, 121344, Note_on_c, 1, 60, 80
3, 121344, Note_on_c, 1, 57, 80
3, 121724, Note_off_c, 1, 60, 100
3, 121724, Note_off_c, 1, 57, 100
3, 122112, Note_on_c, 1, 57, 80
3, 122112, Note_on_c, 1, 54, 80
3, 122112, Note_on_c, 1, 48, 80
3, 122112, Note_on_c, 1, 45, 80
3, 122876, Note_off_c, 1, 57, 100
3, 122876, Note_off_c, 1, 54, 100
3, 122876, Note_off_c, 1, 48, 100
3, 122876, Note_off_c, 1, 45, 100
3, 122880, Note_on_c, 1, 55, 80
3, 122880, Note_on_c, 1, 47, 80
3, 122880, Note_on_c, 1, 52, 80
3, 123644, Note_off_c, 1, 55, 100
3, 123644, Note_off_c, 1, 47, 100
3, 123644, Note_off_c, 1, 52, 100
3, 123648, Note_on_c, 1, 54, 80
3, 123648, Note_on_c, 1, 51, 80
3, 123648, Note_on_c, 1, 47, 80
3, 124412, Note_off_c, 1, 54, 100
3, 124412, Note_off_c, 1, 51, 100
3, 124412, Note_off_c, 1, 47, 100
3, 124416, Note_on_c, 1, 55, 80
3, 124416, Note_on_c, 1, 52, 80
3, 124796, Note_off_c, 1, 55, 100
3, 124796, Note_off_c, 1, 52, 100
3, 124800, Note_on_c, 1, 43, 80
3, 124800, Note_on_c, 1, 52, 80
3, 125180, Note_off_c, 1, 43, 100
3, 125184, Note_on_c, 1, 45, 80
3, 125372, Note_off_c, 1, 52, 100
3, 125376, Note_on_c, 1, 53, 80
3, 125564, Note_off_c, 1, 53, 100
3, 125568, Note_on_c, 1, 55, 80
3, 125756, Note_off_c, 1, 55, 100
3, 125760, Note_on_c, 1, 57, 80
3, 125948, Note_off_c, 1, 45, 100
3, 125948, Note_off_c, 1, 57, 100
3, 125952, Note_on_c, 1, 59, 80
3, 125952, Note_on_c, 1, 55, 80
3, 125952, Note_on_c, 1, 47, 80
3, 126716, Note_off_c, 1, 59, 100
3, 126716, Note_off_c, 1, 55, 100
3, 126720, Note_on_c, 1, 57, 80
3, 126720, Note_on_c, 1, 54, 80
3, 127484, Note_off_c, 1, 47, 100
3, 127484, Note_off_c, 1, 57, 100
3, 127484, Note_off_c, 1, 54, 100
3, 127488, Note_on_c, 1, 55, 80
3, 127488, Note_on_c, 1, 52, 80
3, 127488, Note_on_c, 1, 48, 80
3, 127868, Note_off_c, 1, 55, 100
3, 127868, Note_off_c, 1, 52, 100
3, 127868, Note_off_c, 1, 48, 100
3, 127872, Note_on_c, 1, 40, 80
3, 127872, Note_on_c, 1, 48, 80
3, 128252, Note_off_c, 1, 40, 100
3, 128256, Note_on_c, 1, 41, 80
3, 128444, Note_off_c, 1, 48, 100
3, 128448, Note_on_c, 1, 50, 80
3, 128636, Note_off_c, 1, 50, 100
3, 128640, Note_on_c, 1, 52, 80
3, 128828, Note_off_c, 1, 52, 100
3, 128832, Note_on_c, 1, 53, 80
3, 129020, Note_off_c, 1, 41, 100
3, 129020, Note_off_c, 1, 53, 100
3, 129024, Note_on_c, 1, 55, 80
3, 129024, Note_on_c, 1, 52, 80
3, 129024, Note_on_c, 1, 43, 80
3, 129788, Note_off_c, 1, 55, 100
3, 129788, Note_off_c, 1, 52, 100
3, 129792, Note_on_c, 1, 53, 80
3, 129792, Note_on_c, 1, 50, 80
3, 130556, Note_off_c, 1, 43, 100
3, 130556, Note_off_c, 1, 53, 100
3, 130556, Note_off_c, 1, 50, 100
3, 130560, Note_on_c, 1, 36, 80
3, 130560, Note_on_c, 1, 48, 80
3, 130748, Note_off_c, 1, 36, 100
3, 130748, Note_off_c, 1, 48, 100
3, 130752, Note_on_c, 1, 43, 80
3, 130752, Note_on_c, 1, 36, 80
3, 130940, Note_off_c, 1, 43, 100
3, 130940, Note_off_c, 1, 36, 100
3, 130944, Note_on_c, 1, 36, 80
3, 130944, Note_on_c, 1, 43, 80
3, 131132, Note_off_c, 1, 36, 100
3, 131132, Note_off_c, 1, 43, 100
3, 131136, Note_on_c, 1, 43, 80
3, 131136, Note_on_c, 1, 36, 80
3, 131324, Note_off_c, 1, 43, 100
3, 131324, Note_off_c, 1, 36, 100
3, 131328, Note_on_c, 1, 36, 80
3, 131328, Note_on_c, 1, 43, 80
3, 131516, Note_off_c, 1, 36, 100
3, 131516, Note_off_c, 1, 43, 100
3, 131520, Note_on_c, 1, 43, 80
3, 131520, Note_on_c, 1, 36, 80
3, 131708, Note_off_c, 1, 43, 100
3, 131708, Note_off_c, 1, 36, 100
3, 131712, Note_on_c, 1, 36, 80
3, 131712, Note_on_c, 1, 43, 80
3, 131900, Note_off_c, 1, 36, 100
3, 131900, Note_off_c, 1, 43, 100
3, 131904, Note_on_c, 1, 43, 80
3, 131904, Note_on_c, 1, 36, 80
3, 132092, Note_off_c, 1, 43, 100
3, 132092, Note_off_c, 1, 36, 100
3, 132096, Note_on_c, 1, 36, 80
3, 132096, Note_on_c, 1, 43, 80
3, 132284, Note_off_c, 1, 36, 100
3, 132284, Note_off_c, 1, 43, 100
3, 132288, Note_on_c, 1, 43, 80
3, 132288, Note_on_c, 1, 36, 80
3, 132476, Note_off_c, 1, 43, 100
3, 132476, Note_off_c, 1, 36, 100
3, 132480, Note_on_c, 1, 36, 80
3, 132480, Note_on_c, 1, 43, 80
3, 132668, Note_off_c, 1, 36, 100
3, 132668, Note_off_c, 1, 43, 100
3, 132672, Note_on_c, 1, 43, 80
3, 132672, Note_on_c, 1, 36, 80
3, 132860, Note_off_c, 1, 43, 100
3, 132860, Note_off_c, 1, 36, 100
3, 132864, Note_on_c, 1, 36, 80
3, 132864, Note_on_c, 1, 43, 80
3, 133052, Note_off_c, 1, 36, 100
3, 133052, Note_off_c, 1, 43, 100
3, 133056, Note_on_c, 1, 43, 80
3, 133056, Note_on_c, 1, 36, 80
3, 133244, Note_off_c, 1, 43, 100
3, 133244, Note_off_c, 1, 36, 100
3, 133248, Note_on_c, 1, 36, 80
3, 133248, Note_on_c, 1, 45, 80
3, 133436, Note_off_c, 1, 36, 100
3, 133436, Note_off_c, 1, 45, 100
3, 133440, Note_on_c, 1, 36, 80
3, 133440, Note_on_c, 1, 45, 80
3, 133628, Note_off_c, 1, 36, 100
3, 133628, Note_off_c, 1, 45, 100
3, 133632, Note_on_c, 1, 43, 80
3, 133632, Note_on_c, 1, 35, 80
3, 133820, Note_off_c, 1, 43, 100
3, 133820, Note_off_c, 1, 35, 100
3, 133824, Note_on_c, 1, 43, 80
3, 133824, Note_on_c, 1, 35, 80
3, 134012, Note_off_c, 1, 43, 100
3, 134012, Note_off_c, 1, 35, 100
3, 134016, Note_on_c, 1, 35, 80
3, 134016, Note_on_c, 1, 43, 80
3, 134204, Note_off_c, 1, 35, 100
3, 134204, Note_off_c, 1, 43, 100
3, 134208, Note_on_c, 1, 43, 80
3, 134208, Note_on_c, 1, 35, 80
3, 134396, Note_off_c, 1, 43, 100
3, 134396, Note_off_c, 1, 35, 100
3, 134400, Note_on_c, 1, 43, 80
3, 134400, Note_on_c, 1, 35, 80
3, 134588, Note_off_c, 1, 43, 100
3, 134588, Note_off_c, 1, 35, 100
3, 134592, Note_on_c, 1, 43, 80
3, 134592, Note_on_c, 1, 35, 80
3, 134780, Note_off_c, 1, 43, 100
3, 134780, Note_off_c, 1, 35, 100
3, 134784, Note_on_c, 1, 35, 80
3, 134784, Note_on_c, 1, 43, 80
3, 134972, Note_off_c, 1, 35, 100
3, 134972, Note_off_c, 1, 43, 100
3, 134976, Note_on_c, 1, 43, 80
3, 134976, Note_on_c, 1, 35, 80
3, 135164, Note_off_c, 1, 43, 100
3, 135164, Note_off_c, 1, 35, 100
3, 135168, Note_on_c, 1, 43, 80
3, 135168, Note_on_c, 1, 35, 80
3, 135356, Note_off_c, 1, 43, 100
3, 135356, Note_off_c, 1, 35, 100
3, 135360, Note_on_c, 1, 43, 80
3, 135360, Note_on_c, 1, 35, 80
3, 135548, Note_off_c, 1, 43, 100
3, 135548, Note_off_c, 1, 35, 100
3, 135552, Note_on_c, 1, 35, 80
3, 135552, Note_on_c, 1, 43, 80
3, 135740, Note_off_c, 1, 35, 100
3, 135740, Note_off_c, 1, 43, 100
3, 135744, Note_on_c, 1, 43, 80
3, 135744, Note_on_c, 1, 35, 80
3, 135932, Note_off_c, 1, 43, 100
3, 135932, Note_off_c, 1, 35, 100
3, 135936, Note_on_c, 1, 43, 80
3, 135936, Note_on_c, 1, 35, 80
3, 136124, Note_off_c, 1, 43, 100
3, 136124, Note_off_c, 1, 35, 100
3, 136128, Note_on_c, 1, 43, 80
3, 136128, Note_on_c, 1, 35, 80
3, 136316, Note_off_c, 1, 43, 100
3, 136316, Note_off_c, 1, 35, 100
3, 136320, Note_on_c, 1, 35, 80
3, 136320, Note_on_c, 1, 43, 80
3, 136508, Note_off_c, 1, 35, 100
3, 136508, Note_off_c, 1, 43, 100
3, 136512, Note_on_c, 1, 43, 80
3, 136512, Note_on_c, 1, 35, 80
3, 136700, Note_off_c, 1, 43, 100
3, 136700, Note_off_c, 1, 35, 100
3, 136704, Note_on_c, 1, 41, 80
3, 136704, Note_on_c, 1, 34, 80
3, 136892, Note_off_c, 1, 41, 100
3, 136892, Note_off_c, 1, 34, 100
3, 136896, Note_on_c, 1, 41, 80
3, 136896, Note_on_c, 1, 34, 80
3, 137084, Note_off_c, 1, 41, 100
3, 137084, Note_off_c, 1, 34, 100
3, 137088, Note_on_c, 1, 41, 80
3, 137088, Note_on_c, 1, 34, 80
3, 137276, Note_off_c, 1, 41, 100
3, 137276, Note_off_c, 1, 34, 100
3, 137280, Note_on_c, 1, 41, 80
3, 137280, Note_on_c, 1, 34, 80
3, 137468, Note_off_c, 1, 41, 100
3, 137468, Note_off_c, 1, 34, 100
3, 137472, Note_on_c, 1, 41, 80
3, 137472, Note_on_c, 1, 34, 80
3, 137660, Note_off_c, 1, 41, 100
3, 137660, Note_off_c, 1, 34, 100
3, 137664, Note_on_c, 1, 41, 80
3, 137664, Note_on_c, 1, 34, 80
3, 137852, Note_off_c, 1, 41, 100
3, 137852, Note_off_c, 1, 34, 100
3, 137856, Note_on_c, 1, 41, 80
3, 137856, Note_on_c, 1, 34, 80
3, 138044, Note_off_c, 1, 41, 100
3, 138044, Note_off_c, 1, 34, 100
3, 138048, Note_on_c, 1, 41, 80
3, 138048, Note_on_c, 1, 34, 80
3, 138236, Note_off_c, 1, 41, 100
3, 138236, Note_off_c, 1, 34, 100
3, 138240, Note_on_c, 1, 41, 80
3, 138240, Note_on_c, 1, 34, 80
3, 138428, Note_off_c, 1, 41, 100
3, 138428, Note_off_c, 1, 34, 100
3, 138432, Note_on_c, 1, 41, 80
3, 138432, Note_on_c, 1, 34, 80
3, 138620, Note_off_c, 1, 41, 100
3, 138620, Note_off_c, 1, 34, 100
3, 138624, Note_on_c, 1, 41, 80
3, 138624, Note_on_c, 1, 34, 80
3, 138812, Note_off_c, 1, 41, 100
3, 138812, Note_off_c, 1, 34, 100
3, 138816, Note_on_c, 1, 41, 80
3, 138816, Note_on_c, 1, 34, 80
3, 139004, Note_off_c, 1, 41, 100
3, 139004, Note_off_c, 1, 34, 100
3, 139008, Note_on_c, 1, 41, 80
3, 139008, Note_on_c, 1, 34, 80
3, 139196, Note_off_c, 1, 41, 100
3, 139196, Note_off_c, 1, 34, 100
3, 139200, Note_on_c, 1, 41, 80
3, 139200, Note_on_c, 1, 34, 80
3, 139388, Note_off_c, 1, 41, 100
3, 139388, Note_off_c, 1, 34, 100
3, 139392, Note_on_c, 1, 34, 80
3, 139392, Note_on_c, 1, 43, 80
3, 139580, Note_off_c, 1, 34, 100
3, 139580, Note_off_c, 1, 43, 100
3, 139584, Note_on_c, 1, 34, 80
3, 139584, Note_on_c, 1, 43, 80
3, 139772, Note_off_c, 1, 34, 100
3, 139772, Note_off_c, 1, 43, 100
3, 139776, Note_on_c, 1, 41, 80
3, 139776, Note_on_c, 1, 33, 80
3, 139964, Note_off_c, 1, 41, 100
3, 139964, Note_off_c, 1, 33, 100
3, 139968, Note_on_c, 1, 41, 80
3, 139968, Note_on_c, 1, 33, 80
3, 140156, Note_off_c, 1, 41, 100
3, 140156, Note_off_c, 1, 33, 100
3, 140160, Note_on_c, 1, 41, 80
3, 140160, Note_on_c, 1, 33, 80
3, 140348, Note_off_c, 1, 41, 100
3, 140348, Note_off_c, 1, 33, 100
3, 140352, Note_on_c, 1, 33, 80
3, 140352, Note_on_c, 1, 41, 80
3, 140540, Note_off_c, 1, 33, 100
3, 140540, Note_off_c, 1, 41, 100
3, 140544, Note_on_c, 1, 41, 80
3, 140544, Note_on_c, 1, 33, 80
3, 140732, Note_off_c, 1, 41, 100
3, 140732, Note_off_c, 1, 33, 100
3, 140736, Note_on_c, 1, 41, 80
3, 140736, Note_on_c, 1, 33, 80
3, 140924, Note_off_c, 1, 41, 100
3, 140924, Note_off_c, 1, 33, 100
3, 140928, Note_on_c, 1, 41, 80
3, 140928, Note_on_c, 1, 33, 80
3, 141116, Note_off_c, 1, 41, 100
3, 141116, Note_off_c, 1, 33, 100
3, 141120, Note_on_c, 1, 33, 80
3, 141120, Note_on_c, 1, 41, 80
3, 141308, Note_off_c, 1, 33, 100
3, 141308, Note_off_c, 1, 41, 100
3, 141312, Note_on_c, 1, 41, 80
3, 141312, Note_on_c, 1, 31, 80
3, 141500, Note_off_c, 1, 41, 100
3, 141500, Note_off_c, 1, 31, 100
3, 141504, Note_on_c, 1, 41, 80
3, 141504, Note_on_c, 1, 31, 80
3, 141692, Note_off_c, 1, 41, 100
3, 141692, Note_off_c, 1, 31, 100
3, 141696, Note_on_c, 1, 41, 80
3, 141696, Note_on_c, 1, 31, 80
3, 141884, Note_off_c, 1, 41, 100
3, 141884, Note_off_c, 1, 31, 100
3, 141888, Note_on_c, 1, 41, 80
3, 141888, Note_on_c, 1, 31, 80
3, 142076, Note_off_c, 1, 41, 100
3, 142076, Note_off_c, 1, 31, 100
3, 142080, Note_on_c, 1, 41, 80
3, 142080, Note_on_c, 1, 31, 80
3, 142268, Note_off_c, 1, 41, 100
3, 142268, Note_off_c, 1, 31, 100
3, 142272, Note_on_c, 1, 41, 80
3, 142272, Note_on_c, 1, 31, 80
3, 142460, Note_off_c, 1, 41, 100
3, 142460, Note_off_c, 1, 31, 100
3, 142464, Note_on_c, 1, 41, 80
3, 142464, Note_on_c, 1, 32, 80
3, 142652, Note_off_c, 1, 41, 100
3, 142652, Note_off_c, 1, 32, 100
3, 142656, Note_on_c, 1, 41, 80
3, 142656, Note_on_c, 1, 32, 80
3, 142844, Note_off_c, 1, 41, 100
3, 142844, Note_off_c, 1, 32, 100
3, 142848, Note_on_c, 1, 41, 80
3, 142848, Note_on_c, 1, 31, 80
3, 143036, Note_off_c, 1, 41, 100
3, 143036, Note_off_c, 1, 31, 100
3, 143040, Note_on_c, 1, 41, 81
3, 143040, Note_on_c, 1, 31, 81
3, 143228, Note_off_c, 1, 41, 100
3, 143228, Note_off_c, 1, 31, 100
3, 143232, Note_on_c, 1, 41, 83
3, 143232, Note_on_c, 1, 31, 83
3, 143420, Note_off_c, 1, 41, 100
3, 143420, Note_off_c, 1, 31, 100
3, 143424, Note_on_c, 1, 41, 85
3, 143424, Note_on_c, 1, 31, 85
3, 143612, Note_off_c, 1, 41, 100
3, 143612, Note_off_c, 1, 31, 100
3, 143616, Note_on_c, 1, 41, 87
3, 143616, Note_on_c, 1, 31, 87
3, 143804, Note_off_c, 1, 41, 100
3, 143804, Note_off_c, 1, 31, 100
3, 143808, Note_on_c, 1, 41, 89
3, 143808, Note_on_c, 1, 31, 89
3, 143996, Note_off_c, 1, 41, 100
3, 143996, Note_off_c, 1, 31, 100
3, 144000, Note_on_c, 1, 41, 91
3, 144000, Note_on_c, 1, 32, 91
3, 144188, Note_off_c, 1, 41, 100
3, 144188, Note_off_c, 1, 32, 100
3, 144192, Note_on_c, 1, 41, 93
3, 144192, Note_on_c, 1, 32, 93
3, 144380, Note_off_c, 1, 41, 100
3, 144380, Note_off_c, 1, 32, 100
3, 144384, Note_on_c, 1, 41, 95
3, 144384, Note_on_c, 1, 31, 95
3, 144572, Note_off_c, 1, 41, 100
3, 144572, Note_off_c, 1, 31, 100
3, 144576, Note_on_c, 1, 41, 97
3, 144576, Note_on_c, 1, 31, 97
3, 144764, Note_off_c, 1, 41, 100
3, 144764, Note_off_c, 1, 31, 100
3, 144768, Note_on_c, 1, 41, 99
3, 144768, Note_on_c, 1, 31, 99
3, 144956, Note_off_c, 1, 41, 100
3, 144956, Note_off_c, 1, 31, 100
3, 144960, Note_on_c, 1, 41, 101
3, 144960, Note_on_c, 1, 31, 101
3, 145148, Note_off_c, 1, 41, 100
3, 145148, Note_off_c, 1, 31, 100
3, 145152, Note_on_c, 1, 41, 103
3, 145152, Note_on_c, 1, 31, 103
3, 145340, Note_off_c, 1, 41, 100
3, 145340, Note_off_c, 1, 31, 100
3, 145344, Note_on_c, 1, 41, 105
3, 145344, Note_on_c, 1, 31, 105
3, 145532, Note_off_c, 1, 41, 100
3, 145532, Note_off_c, 1, 31, 100
3, 145536, Note_on_c, 1, 41, 107
3, 145536, Note_on_c, 1, 32, 107
3, 145724, Note_off_c, 1, 41, 100
3, 145724, Note_off_c, 1, 32, 100
3, 145728, Note_on_c, 1, 41, 108
3, 145728, Note_on_c, 1, 32, 108
3, 145916, Note_off_c, 1, 41, 100
3, 145916, Note_off_c, 1, 32, 100
3, 145920, Note_on_c, 1, 41, 110
3, 145920, Note_on_c, 1, 31, 110
3, 146300, Note_off_c, 1, 41, 100
3, 146300, Note_off_c, 1, 31, 100
3, 146304, Note_on_c, 1, 55, 110
3, 146304, Note_on_c, 1, 43, 110
3, 147260, Note_off_c, 1, 55, 100
3, 147260, Note_off_c, 1, 43, 100
3, 147264, Note_on_c, 1, 57, 110
3, 147356, Note_off_c, 1, 57, 100
3, 147360, Note_on_c, 1, 59, 110
3, 147452, Note_off_c, 1, 59, 100
3, 147456, Note_on_c, 1, 60, 100
3, 147644, Note_off_c, 1, 60, 100
3, 147840, Note_on_c, 1, 55, 96
3, 147840, Note_on_c, 1, 43, 96
3, 148028, Note_off_c, 1, 55, 100
3, 148028, Note_off_c, 1, 43, 100
3, 148224, Note_on_c, 1, 51, 91
3, 148224, Note_on_c, 1, 39, 91
3, 148412, Note_off_c, 1, 51, 100
3, 148412, Note_off_c, 1, 39, 100
3, 148608, Note_on_c, 1, 48, 86
3, 148608, Note_on_c, 1, 36, 86
3, 148796, Note_off_c, 1, 48, 100
3, 148796, Note_off_c, 1, 36, 100
3, 148992, Note_on_c, 1, 43, 81
3, 148992, Note_on_c, 1, 31, 81
3, 150524, Note_off_c, 1, 43, 100
3, 150524, Note_off_c, 1, 31, 100
3, 150528, Note_on_c, 1, 48, 80
3, 150528, Note_on_c, 1, 36, 80
3, 150716, Note_off_c, 1, 48, 100
3, 150716, Note_off_c, 1, 36, 100
3, 150720, Note_on_c, 1, 48, 80
3, 150816, Note_on_c, 1, 55, 80
3, 150876, Note_off_c, 1, 48, 100
3, 150912, Note_on_c, 1, 48, 80
3, 151000, Note_off_c, 1, 55, 100
3, 151008, Note_on_c, 1, 55, 80
3, 151084, Note_off_c, 1, 48, 100
3, 151104, Note_on_c, 1, 48, 80
3, 151188, Note_off_c, 1, 55, 100
3, 151200, Note_on_c, 1, 55, 80
3, 151284, Note_off_c, 1, 48, 100
3, 151296, Note_on_c, 1, 48, 80
3, 151364, Note_off_c, 1, 55, 100
3, 151392, Note_on_c, 1, 55, 80
3, 151484, Note_off_c, 1, 48, 100
3, 151488, Note_on_c, 1, 48, 80
3, 151548, Note_off_c, 1, 55, 100
3, 151584, Note_on_c, 1, 55, 80
3, 151644, Note_off_c, 1, 48, 100
3, 151680, Note_on_c, 1, 48, 80
3, 151736, Note_off_c, 1, 55, 100
3, 151776, Note_on_c, 1, 55, 80
3, 151844, Note_off_c, 1, 48, 100
3, 151872, Note_on_c, 1, 48, 80
3, 151952, Note_off_c, 1, 55, 100
3, 151968, Note_on_c, 1, 55, 80
3, 152028, Note_off_c, 1, 48, 100
3, 152064, Note_on_c, 1, 48, 80
3, 152132, Note_off_c, 1, 55, 100
3, 152160, Note_on_c, 1, 55, 80
3, 152228, Note_off_c, 1, 48, 100
3, 152256, Note_on_c, 1, 48, 80
3, 152340, Note_off_c, 1, 55, 100
3, 152352, Note_on_c, 1, 55, 80
3, 152428, Note_off_c, 1, 48, 100
3, 152448, Note_on_c, 1, 48, 80
3, 152532, Note_off_c, 1, 55, 100
3, 152544, Note_on_c, 1, 55, 80
3, 152608, Note_off_c, 1, 48, 100
3, 152640, Note_on_c, 1, 48, 80
3, 152716, Note_off_c, 1, 55, 100
3, 152736, Note_on_c, 1, 55, 80
3, 152816, Note_off_c, 1, 48, 100
3, 152832, Note_on_c, 1, 48, 80
3, 152924, Note_off_c, 1, 55, 100
3, 152928, Note_on_c, 1, 55, 80
3, 153020, Note_off_c, 1, 48, 100
3, 153024, Note_on_c, 1, 48, 80
3, 153096, Note_off_c, 1, 55, 100
3, 153120, Note_on_c, 1, 55, 80
3, 153172, Note_off_c, 1, 48, 100
3, 153216, Note_on_c, 1, 48, 80
3, 153280, Note_off_c, 1, 55, 100
3, 153312, Note_on_c, 1, 57, 80
3, 153384, Note_off_c, 1, 48, 100
3, 153408, Note_on_c, 1, 48, 80
3, 153480, Note_off_c, 1, 57, 100
3, 153504, Note_on_c, 1, 57, 80
3, 153564, Note_off_c, 1, 48, 100
3, 153596, Note_off_c, 1, 57, 100
3, 153600, Note_on_c, 1, 50, 80
3, 153600, Note_on_c, 1, 47, 80
3, 153692, Note_off_c, 1, 50, 100
3, 153692, Note_off_c, 1, 47, 100
3, 153696, Note_on_c, 1, 55, 80
3, 153788, Note_off_c, 1, 55, 100
3, 153792, Note_on_c, 1, 50, 80
3, 153792, Note_on_c, 1, 47, 80
3, 153884, Note_off_c, 1, 50, 100
3, 153884, Note_off_c, 1, 47, 100
3, 153888, Note_on_c, 1, 55, 80
3, 153980, Note_off_c, 1, 55, 100
3, 153984, Note_on_c, 1, 50, 80
3, 153984, Note_on_c, 1, 47, 80
3, 154076, Note_off_c, 1, 50, 100
3, 154076, Note_off_c, 1, 47, 100
3, 154080, Note_on_c, 1, 55, 80
3, 154172, Note_off_c, 1, 55, 100
3, 154176, Note_on_c, 1, 50, 80
3, 154176, Note_on_c, 1, 47, 80
3, 154268, Note_off_c, 1, 50, 100
3, 154268, Note_off_c, 1, 47, 100
3, 154272, Note_on_c, 1, 55, 80
3, 154364, Note_off_c, 1, 55, 100
3, 154368, Note_on_c, 1, 50, 80
3, 154368, Note_on_c, 1, 47, 80
3, 154460, Note_off_c, 1, 50, 100
3, 154460, Note_off_c, 1, 47, 100
3, 154464, Note_on_c, 1, 55, 80
3, 154556, Note_off_c, 1, 55, 100
3, 154560, Note_on_c, 1, 50, 80
3, 154560, Note_on_c, 1, 47, 80
3, 154652, Note_off_c, 1, 50, 100
3, 154652, Note_off_c, 1, 47, 100
3, 154656, Note_on_c, 1, 55, 80
3, 154748, Note_off_c, 1, 55, 100
3, 154752, Note_on_c, 1, 50, 80
3, 154752, Note_on_c, 1, 47, 80
3, 154844, Note_off_c, 1, 50, 100
3, 154844, Note_off_c, 1, 47, 100
3, 154848, Note_on_c, 1, 55, 80
3, 154940, Note_off_c, 1, 55, 100
3, 154944, Note_on_c, 1, 50, 80
3, 154944, Note_on_c, 1, 47, 80
3, 155036, Note_off_c, 1, 50, 100
3, 155036, Note_off_c, 1, 47, 100
3, 155040, Note_on_c, 1, 55, 80
3, 155132, Note_off_c, 1, 55, 100
3, 155136, Note_on_c, 1, 50, 80
3, 155136, Note_on_c, 1, 47, 80
3, 155228, Note_off_c, 1, 50, 100
3, 155228, Note_off_c, 1, 47, 100
3, 155232, Note_on_c, 1, 55, 80
3, 155324, Note_off_c, 1, 55, 100
3, 155328, Note_on_c, 1, 50, 80
3, 155328, Note_on_c, 1, 47, 80
3, 155420, Note_off_c, 1, 50, 100
3, 155420, Note_off_c, 1, 47, 100
3, 155424, Note_on_c, 1, 55, 80
3, 155516, Note_off_c, 1, 55, 100
3, 155520, Note_on_c, 1, 50, 80
3, 155520, Note_on_c, 1, 47, 80
3, 155612, Note_off_c, 1, 50, 100
3, 155612, Note_off_c, 1, 47, 100
3, 155616, Note_on_c, 1, 55, 80
3, 155708, Note_off_c, 1, 55, 100
3, 155712, Note_on_c, 1, 50, 80
3, 155712, Note_on_c, 1, 47, 80
3, 155804, Note_off_c, 1, 50, 100
3, 155804, Note_off_c, 1, 47, 100
3, 155808, Note_on_c, 1, 55, 80
3, 155900, Note_off_c, 1, 55, 100
3, 155904, Note_on_c, 1, 50, 80
3, 155904, Note_on_c, 1, 47, 80
3, 155996, Note_off_c, 1, 50, 100
3, 155996, Note_off_c, 1, 47, 100
3, 156000, Note_on_c, 1, 55, 80
3, 156092, Note_off_c, 1, 55, 100
3, 156096, Note_on_c, 1, 50, 80
3, 156096, Note_on_c, 1, 47, 80
3, 156188, Note_off_c, 1, 50, 100
3, 156188, Note_off_c, 1, 47, 100
3, 156192, Note_on_c, 1, 55, 80
3, 156284, Note_off_c, 1, 55, 100
3, 156288, Note_on_c, 1, 50, 80
3, 156288, Note_on_c, 1, 47, 80
3, 156380, Note_off_c, 1, 50, 100
3, 156380, Note_off_c, 1, 47, 100
3, 156384, Note_on_c, 1, 55, 80
3, 156476, Note_off_c, 1, 55, 100
3, 156480, Note_on_c, 1, 50, 80
3, 156480, Note_on_c, 1, 47, 80
3, 156572, Note_off_c, 1, 50, 100
3, 156572, Note_off_c, 1, 47, 100
3, 156576, Note_on_c, 1, 55, 80
3, 156668, Note_off_c, 1, 55, 100
3, 156672, Note_on_c, 1, 50, 80
3, 156672, Note_on_c, 1, 38, 80
3, 156860, Note_off_c, 1, 50, 100
3, 156860, Note_off_c, 1, 38, 100
3, 156864, Note_on_c, 1, 50, 80
3, 156956, Note_off_c, 1, 50, 100
3, 156960, Note_on_c, 1, 57, 80
3, 157052, Note_off_c, 1, 57, 100
3, 157056, Note_on_c, 1, 50, 80
3, 157148, Note_off_c, 1, 50, 100
3, 157152, Note_on_c, 1, 57, 80
3, 157244, Note_off_c, 1, 57, 100
3, 157248, Note_on_c, 1, 50, 80
3, 157340, Note_off_c, 1, 50, 100
3, 157344, Note_on_c, 1, 57, 80
3, 157436, Note_off_c, 1, 57, 100
3, 157440, Note_on_c, 1, 50, 80
3, 157532, Note_off_c, 1, 50, 100
3, 157536, Note_on_c, 1, 57, 80
3, 157628, Note_off_c, 1, 57, 100
3, 157632, Note_on_c, 1, 50, 80
3, 157724, Note_off_c, 1, 50, 100
3, 157728, Note_on_c, 1, 57, 80
3, 157820, Note_off_c, 1, 57, 100
3, 157824, Note_on_c, 1, 50, 80
3, 157916, Note_off_c, 1, 50, 100
3, 157920, Note_on_c, 1, 57, 80
3, 158012, Note_off_c, 1, 57, 100
3, 158016, Note_on_c, 1, 50, 80
3, 158108, Note_off_c, 1, 50, 100
3, 158112, Note_on_c, 1, 57, 80
3, 158204, Note_off_c, 1, 57, 100
3, 158208, Note_on_c, 1, 50, 80
3, 158300, Note_off_c, 1, 50, 100
3, 158304, Note_on_c, 1, 57, 80
3, 158396, Note_off_c, 1, 57, 100
3, 158400, Note_on_c, 1, 50, 80
3, 158492, Note_off_c, 1, 50, 100
3, 158496, Note_on_c, 1, 57, 80
3, 158588, Note_off_c, 1, 57, 100
3, 158592, Note_on_c, 1, 50, 80
3, 158684, Note_off_c, 1, 50, 100
3, 158688, Note_on_c, 1, 57, 80
3, 158780, Note_off_c, 1, 57, 100
3, 158784, Note_on_c, 1, 50, 80
3, 158876, Note_off_c, 1, 50, 100
3, 158880, Note_on_c, 1, 57, 80
3, 158972, Note_off_c, 1, 57, 100
3, 158976, Note_on_c, 1, 50, 80
3, 159068, Note_off_c, 1, 50, 100
3, 159072, Note_on_c, 1, 57, 80
3, 159164, Note_off_c, 1, 57, 100
3, 159168, Note_on_c, 1, 50, 80
3, 159260, Note_off_c, 1, 50, 100
3, 159264, Note_on_c, 1, 57, 80
3, 159356, Note_off_c, 1, 57, 100
3, 159360, Note_on_c, 1, 50, 80
3, 159452, Note_off_c, 1, 50, 100
3, 159456, Note_on_c, 1, 59, 80
3, 159548, Note_off_c, 1, 59, 100
3, 159552, Note_on_c, 1, 50, 80
3, 159644, Note_off_c, 1, 50, 100
3, 159648, Note_on_c, 1, 59, 80
3, 159740, Note_off_c, 1, 59, 100
3, 159744, Control_c, 1, 64, 127
3, 159744, Note_on_c, 1, 48, 80
3, 159744, Note_on_c, 1, 52, 80
3, 159836, Note_off_c, 1, 48, 100
3, 159836, Note_off_c, 1, 52, 100
3, 159840, Note_on_c, 1, 57, 80
3, 159932, Note_off_c, 1, 57, 100
3, 159936, Note_on_c, 1, 48, 80
3, 159936, Note_on_c, 1, 52, 80
3, 160028, Note_off_c, 1, 48, 100
3, 160028, Note_off_c, 1, 52, 100
3, 160032, Note_on_c, 1, 57, 80
3, 160120, Control_c, 1, 64, 0
3, 160124, Note_off_c, 1, 57, 100
3, 160128, Control_c, 1, 64, 127
3, 160128, Note_on_c, 1, 48, 80
3, 160128, Note_on_c, 1, 52, 80
3, 160220, Note_off_c, 1, 48, 100
3, 160220, Note_off_c, 1, 52, 100
3, 160224, Note_on_c, 1, 57, 80
3, 160316, Note_off_c, 1, 57, 100
3, 160320, Note_on_c, 1, 48, 80
3, 160320, Note_on_c, 1, 52, 80
3, 160412, Note_off_c, 1, 48, 100
3, 160412, Note_off_c, 1, 52, 100
3, 160416, Note_on_c, 1, 57, 80
3, 160504, Control_c, 1, 64, 0
3, 160508, Note_off_c, 1, 57, 100
3, 160512, Control_c, 1, 64, 127
3, 160512, Note_on_c, 1, 48, 80
3, 160512, Note_on_c, 1, 52, 80
3, 160604, Note_off_c, 1, 48, 100
3, 160604, Note_off_c, 1, 52, 100
3, 160608, Note_on_c, 1, 57, 80
3, 160700, Note_off_c, 1, 57, 100
3, 160704, Note_on_c, 1, 48, 80
3, 160704, Note_on_c, 1, 52, 80
3, 160796, Note_off_c, 1, 48, 100
3, 160796, Note_off_c, 1, 52, 100
3, 160800, Note_on_c, 1, 57, 80
3, 160888, Control_c, 1, 64, 0
3, 160892, Note_off_c, 1, 57, 100
3, 160896, Control_c, 1, 64, 127
3, 160896, Note_on_c, 1, 48, 80
3, 160896, Note_on_c, 1, 52, 80
3, 160988, Note_off_c, 1, 48, 100
3, 160988, Note_off_c, 1, 52, 100
3, 160992, Note_on_c, 1, 57, 80
3, 161084, Note_off_c, 1, 57, 100
3, 161088, Note_on_c, 1, 48, 80
3, 161088, Note_on_c, 1, 52, 80
3, 161180, Note_off_c, 1, 48, 100
3, 161180, Note_off_c, 1, 52, 100
3, 161184, Note_on_c, 1, 57, 80
3, 161272, Control_c, 1, 64, 0
3, 161276, Note_off_c, 1, 57, 100
3, 161280, Control_c, 1, 64, 127
3, 161280, Note_on_c, 1, 48, 80
3, 161280, Note_on_c, 1, 52, 80
3, 161372, Note_off_c, 1, 48, 100
3, 161372, Note_off_c, 1, 52, 100
3, 161376, Note_on_c, 1, 57, 80
3, 161468, Note_off_c, 1, 57, 100
3, 161472, Note_on_c, 1, 48, 81
3, 161472, Note_on_c, 1, 52, 81
3, 161564, Note_off_c, 1, 48, 100
3, 161564, Note_off_c, 1, 52, 100
3, 161568, Note_on_c, 1, 57, 82
3, 161656, Control_c, 1, 64, 0
3, 161660, Note_off_c, 1, 57, 100
3, 161664, Control_c, 1, 64, 127
3, 161664, Note_on_c, 1, 48, 83
3, 161664, Note_on_c, 1, 52, 83
3, 161756, Note_off_c, 1, 48, 100
3, 161756, Note_off_c, 1, 52, 100
3, 161760, Note_on_c, 1, 57, 84
3, 161852, Note_off_c, 1, 57, 100
3, 161856, Note_on_c, 1, 48, 85
3, 161856, Note_on_c, 1, 52, 85
3, 161948, Note_off_c, 1, 48, 100
3, 161948, Note_off_c, 1, 52, 100
3, 161952, Note_on_c, 1, 57, 86
3, 162040, Control_c, 1, 64, 0
3, 162044, Note_off_c, 1, 57, 100
3, 162048, Control_c, 1, 64, 127
3, 162048, Note_on_c, 1, 48, 87
3, 162048, Note_on_c, 1, 52, 87
3, 162140, Note_off_c, 1, 48, 100
3, 162140, Note_off_c, 1, 52, 100
3, 162144, Note_on_c, 1, 57, 88
3, 162236, Note_off_c, 1, 57, 100
3, 162240, Note_on_c, 1, 48, 89
3, 162240, Note_on_c, 1, 52, 89
3, 162332, Note_off_c, 1, 48, 100
3, 162332, Note_off_c, 1, 52, 100
3, 162336, Note_on_c, 1, 57, 90
3, 162424, Control_c, 1, 64, 0
3, 162428, Note_off_c, 1, 57, 100
3, 162432, Control_c, 1, 64, 127
3, 162432, Note_on_c, 1, 48, 91
3, 162432, Note_on_c, 1, 52, 91
3, 162524, Note_off_c, 1, 48, 100
3, 162524, Note_off_c, 1, 52, 100
3, 162528, Note_on_c, 1, 57, 92
3, 162620, Note_off_c, 1, 57, 100
3, 162624, Note_on_c, 1, 48, 93
3, 162624, Note_on_c, 1, 52, 93
3, 162716, Note_off_c, 1, 48, 100
3, 162716, Note_off_c, 1, 52, 100
3, 162720, Note_on_c, 1, 57, 94
3, 162808, Control_c, 1, 64, 0
3, 162812, Note_off_c, 1, 57, 100
3, 162816, Control_c, 1, 64, 127
3, 162816, Note_on_c, 1, 48, 95
3, 162816, Note_on_c, 1, 52, 95
3, 162908, Note_off_c, 1, 48, 100
3, 162908, Note_off_c, 1, 52, 100
3, 162912, Note_on_c, 1, 58, 96
3, 163004, Note_off_c, 1, 58, 100
3, 163008, Note_on_c, 1, 48, 97
3, 163008, Note_on_c, 1, 52, 97
3, 163100, Note_off_c, 1, 48, 100
3, 163100, Note_off_c, 1, 52, 100
3, 163104, Note_on_c, 1, 58, 98
3, 163192, Control_c, 1, 64, 0
3, 163196, Note_off_c, 1, 58, 100
3, 163200, Control_c, 1, 64, 127
3, 163200, Note_on_c, 1, 48, 99
3, 163200, Note_on_c, 1, 52, 99
3, 163292, Note_off_c, 1, 48, 100
3, 163292, Note_off_c, 1, 52, 100
3, 163296, Note_on_c, 1, 58, 100
3, 163388, Note_off_c, 1, 58, 100
3, 163392, Note_on_c, 1, 48, 101
3, 163392, Note_on_c, 1, 52, 101
3, 163484, Note_off_c, 1, 48, 100
3, 163484, Note_off_c, 1, 52, 100
3, 163488, Note_on_c, 1, 58, 102
3, 163576, Control_c, 1, 64, 0
3, 163580, Note_off_c, 1, 58, 100
3, 163584, Control_c, 1, 64, 127
3, 163584, Note_on_c, 1, 48, 103
3, 163584, Note_on_c, 1, 52, 103
3, 163676, Note_off_c, 1, 48, 100
3, 163676, Note_off_c, 1, 52, 100
3, 163680, Note_on_c, 1, 58, 104
3, 163772, Note_off_c, 1, 58, 100
3, 163776, Note_on_c, 1, 48, 105
3, 163776, Note_on_c, 1, 52, 105
3, 163868, Note_off_c, 1, 48, 100
3, 163868, Note_off_c, 1, 52, 100
3, 163872, Note_on_c, 1, 58, 106
3, 163960, Control_c, 1, 64, 0
3, 163964, Note_off_c, 1, 58, 100
3, 163968, Control_c, 1, 64, 127
3, 163968, Note_on_c, 1, 48, 107
3, 163968, Note_on_c, 1, 52, 107
3, 164060, Note_off_c, 1, 48, 100
3, 164060, Note_off_c, 1, 52, 100
3, 164064, Note_on_c, 1, 58, 108
3, 164156, Note_off_c, 1, 58, 100
3, 164160, Note_on_c, 1, 48, 109
3, 164160, Note_on_c, 1, 52, 109
3, 164252, Note_off_c, 1, 48, 100
3, 164252, Note_off_c, 1, 52, 100
3, 164256, Note_on_c, 1, 58, 110
3, 164344, Control_c, 1, 64, 0
3, 164348, Note_off_c, 1, 58, 100
3, 164352, Control_c, 1, 64, 127
3, 164352, Note_on_c, 1, 47, 80
3, 164444, Note_off_c, 1, 47, 100
3, 164448, Note_on_c, 1, 51, 80
3, 164540, Note_off_c, 1, 51, 100
3, 164544, Note_on_c, 1, 54, 80
3, 164636, Note_off_c, 1, 54, 100
3, 164640, Note_on_c, 1, 59, 80
3, 164728, Control_c, 1, 64, 0
3, 164732, Note_off_c, 1, 59, 100
3, 164736, Control_c, 1, 64, 127
3, 164736, Note_on_c, 1, 47, 80
3, 164828, Note_off_c, 1, 47, 100
3, 164832, Note_on_c, 1, 51, 80
3, 164924, Note_off_c, 1, 51, 100
3, 164928, Note_on_c, 1, 54, 80
3, 165020, Note_off_c, 1, 54, 100
3, 165024, Note_on_c, 1, 59, 80
3, 165112, Control_c, 1, 64, 0
3, 165116, Note_off_c, 1, 59, 100
3, 165120, Control_c, 1, 64, 127
3, 165120, Note_on_c, 1, 47, 80
3, 165212, Note_off_c, 1, 47, 100
3, 165216, Note_on_c, 1, 51, 80
3, 165308, Note_off_c, 1, 51, 100
3, 165312, Note_on_c, 1, 55, 80
3, 165404, Note_off_c, 1, 55, 100
3, 165408, Note_on_c, 1, 59, 80
3, 165496, Control_c, 1, 64, 0
3, 165500, Note_off_c, 1, 59, 100
3, 165504, Control_c, 1, 64, 127
3, 165504, Note_on_c, 1, 47, 80
3, 165596, Note_off_c, 1, 47, 100
3, 165600, Note_on_c, 1, 51, 80
3, 165692, Note_off_c, 1, 51, 100
3, 165696, Note_on_c, 1, 55, 80
3, 165788, Note_off_c, 1, 55, 100
3, 165792, Note_on_c, 1, 59, 80
3, 165880, Control_c, 1, 64, 0
3, 165884, Note_off_c, 1, 59, 100
3, 165888, Control_c, 1, 64, 127
3, 165888, Note_on_c, 1, 47, 80
3, 165980, Note_off_c, 1, 47, 100
3, 165984, Note_on_c, 1, 54, 80
3, 166076, Note_off_c, 1, 54, 100
3, 166080, Note_on_c, 1, 57, 80
3, 166172, Note_off_c, 1, 57, 100
3, 166176, Note_on_c, 1, 59, 80
3, 166264, Control_c, 1, 64, 0
3, 166268, Note_off_c, 1, 59, 100
3, 166272, Control_c, 1, 64, 127
3, 166272, Note_on_c, 1, 47, 80
3, 166364, Note_off_c, 1, 47, 100
3, 166368, Note_on_c, 1, 54, 80
3, 166460, Note_off_c, 1, 54, 100
3, 166464, Note_on_c, 1, 57, 80
3, 166556, Note_off_c, 1, 57, 100
3, 166560, Note_on_c, 1, 59, 80
3, 166648, Control_c, 1, 64, 0
3, 166652, Note_off_c, 1, 59, 100
3, 166656, Control_c, 1, 64, 127
3, 166656, Note_on_c, 1, 47, 80
3, 166748, Note_off_c, 1, 47, 100
3, 166752, Note_on_c, 1, 52, 80
3, 166844, Note_off_c, 1, 52, 100
3, 166848, Note_on_c, 1, 55, 80
3, 166940, Note_off_c, 1, 55, 100
3, 166944, Note_on_c, 1, 59, 80
3, 167032, Control_c, 1, 64, 0
3, 167036, Note_off_c, 1, 59, 100
3, 167040, Control_c, 1, 64, 127
3, 167040, Note_on_c, 1, 47, 80
3, 167132, Note_off_c, 1, 47, 100
3, 167136, Note_on_c, 1, 52, 80
3, 167228, Note_off_c, 1, 52, 100
3, 167232, Note_on_c, 1, 55, 80
3, 167324, Note_off_c, 1, 55, 100
3, 167328, Note_on_c, 1, 59, 80
3, 167416, Control_c, 1, 64, 0
3, 167420, Note_off_c, 1, 59, 100
3, 167424, Control_c, 1, 64, 127
3, 167424, Note_on_c, 1, 47, 80
3, 167516, Note_off_c, 1, 47, 100
3, 167520, Note_on_c, 1, 51, 80
3, 167612, Note_off_c, 1, 51, 100
3, 167616, Note_on_c, 1, 54, 80
3, 167708, Note_off_c, 1, 54, 100
3, 167712, Note_on_c, 1, 59, 80
3, 167800, Control_c, 1, 64, 0
3, 167804, Note_off_c, 1, 59, 100
3, 167808, Control_c, 1, 64, 127
3, 167808, Note_on_c, 1, 47, 80
3, 167900, Note_off_c, 1, 47, 100
3, 167904, Note_on_c, 1, 51, 80
3, 167996, Note_off_c, 1, 51, 100
3, 168000, Note_on_c, 1, 54, 80
3, 168092, Note_off_c, 1, 54, 100
3, 168096, Note_on_c, 1, 59, 80
3, 168184, Control_c, 1, 64, 0
3, 168188, Note_off_c, 1, 59, 100
3, 168192, Control_c, 1, 64, 127
3, 168192, Note_on_c, 1, 47, 80
3, 168284, Note_off_c, 1, 47, 100
3, 168288, Note_on_c, 1, 51, 80
3, 168380, Note_off_c, 1, 51, 100
3, 168384, Note_on_c, 1, 55, 80
3, 168476, Note_off_c, 1, 55, 100
3, 168480, Note_on_c, 1, 59, 80
3, 168568, Control_c, 1, 64, 0
3, 168572, Note_off_c, 1, 59, 100
3, 168576, Control_c, 1, 64, 127
3, 168576, Note_on_c, 1, 47, 80
3, 168668, Note_off_c, 1, 47, 100
3, 168672, Note_on_c, 1, 51, 80
3, 168764, Note_off_c, 1, 51, 100
3, 168768, Note_on_c, 1, 55, 80
3, 168860, Note_off_c, 1, 55, 100
3, 168864, Note_on_c, 1, 59, 80
3, 168952, Control_c, 1, 64, 0
3, 168956, Note_off_c, 1, 59, 100
3, 168960, Control_c, 1, 64, 127
3, 168960, Note_on_c, 1, 47, 80
3, 169052, Note_off_c, 1, 47, 100
3, 169056, Note_on_c, 1, 54, 80
3, 169148, Note_off_c, 1, 54, 100
3, 169152, Note_on_c, 1, 57, 80
3, 169244, Note_off_c, 1, 57, 100
3, 169248, Note_on_c, 1, 59, 80
3, 169336, Control_c, 1, 64, 0
3, 169340, Note_off_c, 1, 59, 100
3, 169344, Control_c, 1, 64, 127
3, 169344, Note_on_c, 1, 47, 80
3, 169436, Note_off_c, 1, 47, 100
3, 169440, Note_on_c, 1, 54, 80
3, 169532, Note_off_c, 1, 54, 100
3, 169536, Note_on_c, 1, 57, 80
3, 169628, Note_off_c, 1, 57, 100
3, 169632, Note_on_c, 1, 59, 80
3, 169720, Control_c, 1, 64, 0
3, 169724, Note_off_c, 1, 59, 100
3, 169728, Control_c, 1, 64, 127
3, 169728, Note_on_c, 1, 47, 80
3, 169820, Note_off_c, 1, 47, 100
3, 169824, Note_on_c, 1, 52, 80
3, 169916, Note_off_c, 1, 52, 100
3, 169920, Note_on_c, 1, 55, 80
3, 170012, Note_off_c, 1, 55, 100
3, 170016, Note_on_c, 1, 59, 80
3, 170104, Control_c, 1, 64, 0
3, 170108, Note_off_c, 1, 59, 100
3, 170112, Control_c, 1, 64, 127
3, 170112, Note_on_c, 1, 47, 80
3, 170204, Note_off_c, 1, 47, 100
3, 170208, Note_on_c, 1, 52, 80
3, 170300, Note_off_c, 1, 52, 100
3, 170304, Note_on_c, 1, 55, 80
3, 170396, Note_off_c, 1, 55, 100
3, 170400, Note_on_c, 1, 59, 80
3, 170488, Control_c, 1, 64, 0
3, 170492, Note_off_c, 1, 59, 100
3, 170496, Control_c, 1, 64, 127
3, 170496, Note_on_c, 1, 47, 80
3, 170588, Note_off_c, 1, 47, 100
3, 170592, Note_on_c, 1, 51, 82
3, 170684, Note_off_c, 1, 51, 100
3, 170688, Note_on_c, 1, 54, 84
3, 170780, Note_off_c, 1, 54, 100
3, 170784, Note_on_c, 1, 59, 86
3, 170872, Control_c, 1, 64, 0
3, 170876, Note_off_c, 1, 59, 100
3, 170880, Control_c, 1, 64, 127
3, 170880, Note_on_c, 1, 58, 88
3, 170972, Note_off_c, 1, 58, 100
3, 170976, Note_on_c, 1, 59, 90
3, 171068, Note_off_c, 1, 59, 100
3, 171072, Note_on_c, 1, 55, 92
3, 171164, Note_off_c, 1, 55, 100
3, 171168, Note_on_c, 1, 52, 94
3, 171256, Control_c, 1, 64, 0
3, 171260, Note_off_c, 1, 52, 100
3, 171264, Control_c, 1, 64, 127
3, 171264, Note_on_c, 1, 47, 96
3, 171356, Note_off_c, 1, 47, 100
3, 171360, Note_on_c, 1, 51, 98
3, 171452, Note_off_c, 1, 51, 100
3, 171456, Note_on_c, 1, 54, 100
3, 171548, Note_off_c, 1, 54, 100
3, 171552, Note_on_c, 1, 59, 102
3, 171640, Control_c, 1, 64, 0
3, 171644, Note_off_c, 1, 59, 100
3, 171648, Control_c, 1, 64, 127
3, 171648, Note_on_c, 1, 58, 104
3, 171740, Note_off_c, 1, 58, 100
3, 171744, Note_on_c, 1, 59, 106
3, 171836, Note_off_c, 1, 59, 100
3, 171840, Note_on_c, 1, 55, 108
3, 171932, Note_off_c, 1, 55, 100
3, 171936, Note_on_c, 1, 52, 110
3, 172024, Control_c, 1, 64, 0
3, 172028, Note_off_c, 1, 52, 100
3, 172032, Control_c, 1, 64, 127
3, 172032, Note_on_c, 1, 47, 110
3, 172124, Note_off_c, 1, 47, 100
3, 172128, Note_on_c, 1, 51, 110
3, 172220, Note_off_c, 1, 51, 100
3, 172224, Note_on_c, 1, 54, 110
3, 172316, Note_off_c, 1, 54, 100
3, 172320, Note_on_c, 1, 59, 110
3, 172408, Control_c, 1, 64, 0
3, 172412, Note_off_c, 1, 59, 100
3, 172416, Control_c, 1, 64, 127
3, 172416, Note_on_c, 1, 47, 110
3, 172508, Note_off_c, 1, 47, 100
3, 172512, Note_on_c, 1, 52, 110
3, 172604, Note_off_c, 1, 52, 100
3, 172608, Note_on_c, 1, 55, 110
3, 172700, Note_off_c, 1, 55, 100
3, 172704, Note_on_c, 1, 59, 110
3, 172792, Control_c, 1, 64, 0
3, 172796, Note_off_c, 1, 59, 100
3, 172800, Control_c, 1, 64, 127
3, 172800, Note_on_c, 1, 47, 110
3, 172892, Note_off_c, 1, 47, 100
3, 172896, Note_on_c, 1, 51, 110
3, 172988, Note_off_c, 1, 51, 100
3, 172992, Note_on_c, 1, 54, 110
3, 173084, Note_off_c, 1, 54, 100
3, 173088, Note_on_c, 1, 59, 110
3, 173176, Control_c, 1, 64, 0
3, 173180, Note_off_c, 1, 59, 100
3, 173184, Control_c, 1, 64, 127
3, 173184, Note_on_c, 1, 47, 110
3, 173276, Note_off_c, 1, 47, 100
3, 173280, Note_on_c, 1, 52, 110
3, 173372, Note_off_c, 1, 52, 100
3, 173376, Note_on_c, 1, 55, 110
3, 173468, Note_off_c, 1, 55, 100
3, 173472, Note_on_c, 1, 59, 110
3, 173560, Control_c, 1, 64, 0
3, 173564, Note_off_c, 1, 59, 100
3, 173568, Note_on_c, 1, 59, 110
3, 173568, Note_on_c, 1, 54, 110
3, 173568, Note_on_c, 1, 51, 110
3, 173568, Note_on_c, 1, 47, 110
3, 173948, Note_off_c, 1, 59, 100
3, 173948, Note_off_c, 1, 54, 100
3, 173948, Note_off_c, 1, 51, 100
3, 173948, Note_off_c, 1, 47, 100
3, 175104, Control_c, 1, 64, 127
3, 175480, Control_c, 1, 64, 0
3, 175488, Control_c, 1, 64, 127
3, 175864, Control_c, 1, 64, 0
3, 175872, Control_c, 1, 64, 127
3, 176248, Control_c, 1, 64, 0
3, 176256, Control_c, 1, 64, 127
3, 176256, Note_on_c, 1, 35, 110
3, 176348, Note_off_c, 1, 35, 100
3, 176352, Note_on_c, 1, 39, 110
3, 176444, Note_off_c, 1, 39, 100
3, 176448, Note_on_c, 1, 42, 110
3, 176540, Note_off_c, 1, 42, 100
3, 176544, Note_on_c, 1, 47, 110
3, 176632, Control_c, 1, 64, 0
3, 176636, Note_off_c, 1, 47, 100
3, 176640, Note_on_c, 1, 35, 110
3, 176828, Note_off_c, 1, 35, 100
3, 176832, Note_on_c, 1, 47, 109
3, 177020, Note_off_c, 1, 47, 100
3, 177024, Note_on_c, 1, 37, 107
3, 177212, Note_off_c, 1, 37, 100
3, 177216, Note_on_c, 1, 49, 105
3, 177404, Note_off_c, 1, 49, 100
3, 177408, Note_on_c, 1, 39, 103
3, 177596, Note_off_c, 1, 39, 100
3, 177600, Note_on_c, 1, 51, 101
3, 177788, Note_off_c, 1, 51, 100
3, 178176, Note_on_c, 1, 39, 95
3, 178364, Note_off_c, 1, 39, 100
3, 178368, Note_on_c, 1, 51, 93
3, 178556, Note_off_c, 1, 51, 100
3, 178560, Note_on_c, 1, 40, 91
3, 178748, Note_off_c, 1, 40, 100
3, 178752, Note_on_c, 1, 52, 89
3, 178940, Note_off_c, 1, 52, 100
3, 178944, Note_on_c, 1, 42, 87
3, 179132, Note_off_c, 1, 42, 100
3, 179136, Note_on_c, 1, 54, 85
3, 179324, Note_off_c, 1, 54, 100
3, 180480, Note_on_c, 1, 42, 80
3, 180668, Note_off_c, 1, 42, 100
3, 180672, Note_on_c, 1, 54, 80
3, 180860, Note_off_c, 1, 54, 100
3, 180864, Note_on_c, 1, 44, 80
3, 181052, Note_off_c, 1, 44, 100
3, 181056, Note_on_c, 1, 56, 80
3, 181244, Note_off_c, 1, 56, 100
3, 181248, Note_on_c, 1, 45, 80
3, 181436, Note_off_c, 1, 45, 100
3, 181440, Note_on_c, 1, 57, 80
3, 181628, Note_off_c, 1, 57, 100
3, 181632, Note_on_c, 1, 47, 80
3, 181820, Note_off_c, 1, 47, 100
3, 181824, Note_on_c, 1, 59, 80
3, 182012, Note_off_c, 1, 59, 100
3, 182016, Note_on_c, 1, 49, 80
3, 182204, Note_off_c, 1, 49, 100
3, 182208, Note_on_c, 1, 61, 80
3, 182396, Note_off_c, 1, 61, 100
3, 182400, Note_on_c, 1, 51, 80
3, 182588, Note_off_c, 1, 51, 100
3, 182592, Note_on_c, 1, 63, 80
3, 182780, Note_off_c, 1, 63, 100
3, 182784, Note_on_c, 1, 68, 80
3, 182784, Note_on_c, 1, 64, 80
3, 183548, Note_off_c, 1, 68, 100
3, 183548, Note_off_c, 1, 64, 100
3, 183552, Note_on_c, 1, 66, 80
3, 183552, Note_on_c, 1, 63, 80
3, 183552, Note_on_c, 1, 59, 80
3, 183932, Note_off_c, 1, 66, 100
3, 183932, Note_off_c, 1, 63, 100
3, 183932, Note_off_c, 1, 59, 100
3, 183936, Note_on_c, 1, 64, 80
3, 183936, Note_on_c, 1, 61, 80
3, 184316, Note_off_c, 1, 64, 100
3, 184316, Note_off_c, 1, 61, 100
3, 184320, Note_on_c, 1, 63, 80
3, 184320, Note_on_c, 1, 60, 80
3, 184320, Note_on_c, 1, 56, 80
3, 185084, Note_off_c, 1, 63, 100
3, 185084, Note_off_c, 1, 60, 100
3, 185084, Note_off_c, 1, 56, 100
3, 185088, Note_on_c, 1, 61, 80
3, 185088, Note_on_c, 1, 57, 80
3, 185852, Note_off_c, 1, 61, 100
3, 185852, Note_off_c, 1, 57, 100
3, 185856, Note_on_c, 1, 63, 80
3, 185856, Note_on_c, 1, 59, 80
3, 185856, Note_on_c, 1, 57, 80
3, 185856, Note_on_c, 1, 54, 80
3, 186620, Note_off_c, 1, 63, 100
3, 186620, Note_off_c, 1, 59, 100
3, 186620, Note_off_c, 1, 57, 100
3, 186620, Note_off_c, 1, 54, 100
3, 186624, Note_on_c, 1, 64, 99
3, 186624, Note_on_c, 1, 59, 99
3, 186624, Note_on_c, 1, 56, 99
3, 187004, Note_off_c, 1, 64, 100
3, 187004, Note_off_c, 1, 59, 100
3, 187004, Note_off_c, 1, 56, 100
3, 187008, Note_on_c, 1, 66, 109
3, 187008, Note_on_c, 1, 61, 109
3, 187008, Note_on_c, 1, 57, 109
3, 187388, Note_off_c, 1, 66, 100
3, 187388, Note_off_c, 1, 61, 100
3, 187388, Note_off_c, 1, 57, 100
3, 187392, Note_on_c, 1, 68, 110
3, 187392, Note_on_c, 1, 64, 110
3, 187392, Note_on_c, 1, 59, 110
3, 188156, Note_off_c, 1, 68, 100
3, 188156, Note_off_c, 1, 64, 100
3, 188160, Note_on_c, 1, 66, 91
3, 188160, Note_on_c, 1, 63, 91
3, 188924, Note_off_c, 1, 59, 100
3, 188924, Note_off_c, 1, 66, 100
3, 188924, Note_off_c, 1, 63, 100
3, 188928, Note_on_c, 1, 56, 80
3, 188928, Note_on_c, 1, 52, 80
3, 189692, Note_off_c, 1, 56, 100
3, 189692, Note_off_c, 1, 52, 100
3, 189696, Note_on_c, 1, 54, 80
3, 189696, Note_on_c, 1, 51, 80
3, 189696, Note_on_c, 1, 47, 80
3, 190076, Note_off_c, 1, 54, 100
3, 190076, Note_off_c, 1, 51, 100
3, 190076, Note_off_c, 1, 47, 100
3, 190080, Note_on_c, 1, 52, 80
3, 190080, Note_on_c, 1, 49, 80
3, 190460, Note_off_c, 1, 52, 100
3, 190460, Note_off_c, 1, 49, 100
3, 190464, Note_on_c, 1, 51, 80
3, 190464, Note_on_c, 1, 48, 80
3, 190464, Note_on_c, 1, 44, 80
3, 191228, Note_off_c, 1, 51, 100
3, 191228, Note_off_c, 1, 48, 100
3, 191228, Note_off_c, 1, 44, 100
3, 191232, Note_on_c, 1, 49, 80
3, 191232, Note_on_c, 1, 45, 80
3, 191996, Note_off_c, 1, 49, 100
3, 191996, Note_off_c, 1, 45, 100
3, 192000, Note_on_c, 1, 47, 80
3, 192000, Note_on_c, 1, 35, 80
3, 193532, Note_off_c, 1, 47, 100
3, 193532, Note_off_c, 1, 35, 100
3, 193536, Note_on_c, 1, 52, 80
3, 193536, Note_on_c, 1, 40, 80
3, 193916, Note_off_c, 1, 52, 100
3, 193916, Note_off_c, 1, 40, 100
3, 195072, Note_on_c, 1, 68, 80
3, 195072, Note_on_c, 1, 64, 80
3, 195836, Note_off_c, 1, 68, 100
3, 195836, Note_off_c, 1, 64, 100
3, 195840, Note_on_c, 1, 66, 80
3, 195840, Note_on_c, 1, 63, 80
3, 195840, Note_on_c, 1, 59, 80
3, 196220, Note_off_c, 1, 66, 100
3, 196220, Note_off_c, 1, 63, 100
3, 196220, Note_off_c, 1, 59, 100
3, 196224, Note_on_c, 1, 61, 80
3, 196224, Note_on_c, 1, 64, 80
3, 196604, Note_off_c, 1, 61, 100
3, 196604, Note_off_c, 1, 64, 100
3, 196608, Note_on_c, 1, 66, 80
3, 196608, Note_on_c, 1, 63, 80
3, 196608, Note_on_c, 1, 60, 80
3, 197372, Note_off_c, 1, 66, 100
3, 197372, Note_off_c, 1, 63, 100
3, 197372, Note_off_c, 1, 60, 100
3, 197376, Note_on_c, 1, 61, 80
3, 197376, Note_on_c, 1, 57, 80
3, 198140, Note_off_c, 1, 61, 100
3, 198140, Note_off_c, 1, 57, 100
3, 198144, Note_on_c, 1, 59, 80
3, 198144, Note_on_c, 1, 63, 80
3, 198144, Note_on_c, 1, 57, 80
3, 198144, Note_on_c, 1, 54, 80
3, 198908, Note_off_c, 1, 59, 100
3, 198908, Note_off_c, 1, 63, 100
3, 198908, Note_off_c, 1, 57, 100
3, 198908, Note_off_c, 1, 54, 100
3, 198912, Note_on_c, 1, 64, 96
3, 198912, Note_on_c, 1, 59, 96
3, 198912, Note_on_c, 1, 56, 96
3, 199292, Note_off_c, 1, 64, 100
3, 199292, Note_off_c, 1, 59, 100
3, 199292, Note_off_c, 1, 56, 100
3, 199296, Note_on_c, 1, 66, 105
3, 199296, Note_on_c, 1, 61, 105
3, 199296, Note_on_c, 1, 57, 105
3, 199676, Note_off_c, 1, 66, 100
3, 199676, Note_off_c, 1, 61, 100
3, 199676, Note_off_c, 1, 57, 100
3, 199680, Note_on_c, 1, 68, 110
3, 199680, Note_on_c, 1, 64, 110
3, 199680, Note_on_c, 1, 59, 110
3, 200444, Note_off_c, 1, 68, 100
3, 200444, Note_off_c, 1, 64, 100
3, 200448, Note_on_c, 1, 66, 110
3, 200448, Note_on_c, 1, 63, 110
3, 200828, Note_off_c, 1, 59, 100
3, 200828, Note_off_c, 1, 66, 100
3, 200828, Note_off_c, 1, 63, 100
3, 200832, Note_on_c, 1, 47, 99
3, 200956, Note_off_c, 1, 47, 100
3, 200960, Note_on_c, 1, 49, 95
3, 201084, Note_off_c, 1, 49, 100
3, 201088, Note_on_c, 1, 51, 91
3, 201212, Note_off_c, 1, 51, 100
3, 201216, Note_on_c, 1, 52, 80
3, 201216, Note_on_c, 1, 56, 80
3, 201980, Note_off_c, 1, 52, 100
3, 201980, Note_off_c, 1, 56, 100
3, 201984, Note_on_c, 1, 54, 80
3, 201984, Note_on_c, 1, 51, 80
3, 201984, Note_on_c, 1, 47, 80
3, 202364, Note_off_c, 1, 54, 100
3, 202364, Note_off_c, 1, 51, 100
3, 202364, Note_off_c, 1, 47, 100
3, 202368, Note_on_c, 1, 52, 80
3, 202368, Note_on_c, 1, 49, 80
3, 202748, Note_off_c, 1, 52, 100
3, 202748, Note_off_c, 1, 49, 100
3, 202752, Note_on_c, 1, 51, 80
3, 202752, Note_on_c, 1, 48, 80
3, 202752, Note_on_c, 1, 44, 80
3, 203516, Note_off_c, 1, 51, 100
3, 203516, Note_off_c, 1, 48, 100
3, 203516, Note_off_c, 1, 44, 100
3, 203520, Note_on_c, 1, 49, 80
3, 203520, Note_on_c, 1, 45, 80
3, 204284, Note_off_c, 1, 49, 100
3, 204284, Note_off_c, 1, 45, 100
3, 204288, Note_on_c, 1, 47, 80
3, 204288, Note_on_c, 1, 35, 80
3, 205820, Note_off_c, 1, 47, 100
3, 205820, Note_off_c, 1, 35, 100
3, 205824, Note_on_c, 1, 52, 110
3, 205824, Note_on_c, 1, 40, 110
3, 206204, Note_off_c, 1, 52, 100
3, 206204, Note_off_c, 1, 40, 100
3, 206208, Note_on_c, 1, 47, 110
3, 206972, Note_off_c, 1, 47, 100
3, 206976, Note_on_c, 1, 47, 110
3, 207740, Note_off_c, 1, 47, 64
3, 207744, Note_on_c, 1, 47, 110
3, 208508, Note_off_c, 1, 47, 100
3, 208512, Note_on_c, 1, 47, 110
3, 208892, Note_off_c, 1, 47, 100
3, 208896, Note_on_c, 1, 52, 110
3, 209020, Note_off_c, 1, 52, 100
3, 209024, Note_on_c, 1, 47, 110
3, 209148, Note_off_c, 1, 47, 100
3, 209152, Note_on_c, 1, 44, 110
3, 209276, Note_off_c, 1, 44, 100
3, 209280, Note_on_c, 1, 47, 110
3, 209404, Note_off_c, 1, 47, 100
3, 209408, Note_on_c, 1, 52, 110
3, 209532, Note_off_c, 1, 52, 100
3, 209536, Note_on_c, 1, 56, 110
3, 209660, Note_off_c, 1, 56, 100
3, 209664, Note_on_c, 1, 54, 110
3, 209788, Note_off_c, 1, 54, 100
3, 209792, Note_on_c, 1, 51, 110
3, 209916, Note_off_c, 1, 51, 100
3, 209920, Note_on_c, 1, 47, 110
3, 210044, Note_off_c, 1, 47, 100
3, 210048, Note_on_c, 1, 51, 110
3, 210172, Note_off_c, 1, 51, 100
3, 210176, Note_on_c, 1, 54, 110
3, 210300, Note_off_c, 1, 54, 100
3, 210304, Note_on_c, 1, 57, 110
3, 210428, Note_off_c, 1, 57, 100
3, 210432, Note_on_c, 1, 56, 110
3, 210556, Note_off_c, 1, 56, 100
3, 210560, Note_on_c, 1, 52, 110
3, 210684, Note_off_c, 1, 52, 100
3, 210688, Note_on_c, 1, 47, 110
3, 210812, Note_off_c, 1, 47, 100
3, 210816, Note_on_c, 1, 52, 110
3, 210940, Note_off_c, 1, 52, 100
3, 210944, Note_on_c, 1, 56, 110
3, 211068, Note_off_c, 1, 56, 100
3, 211072, Note_on_c, 1, 59, 110
3, 211196, Note_off_c, 1, 59, 100
3, 211200, Note_on_c, 1, 57, 110
3, 211324, Note_off_c, 1, 57, 100
3, 211328, Note_on_c, 1, 54, 110
3, 211452, Note_off_c, 1, 54, 100
3, 211456, Note_on_c, 1, 51, 110
3, 211580, Note_off_c, 1, 51, 100
3, 211584, Note_on_c, 1, 63, 110
3, 211708, Note_off_c, 1, 63, 100
3, 211712, Note_on_c, 1, 59, 110
3, 211836, Note_off_c, 1, 59, 100
3, 211840, Note_on_c, 1, 54, 110
3, 211964, Note_off_c, 1, 54, 100
3, 211968, Control_c, 1, 64, 127
3, 211968, Note_on_c, 1, 56, 110
3, 212092, Note_off_c, 1, 56, 100
3, 212096, Note_on_c, 1, 59, 110
3, 212220, Note_off_c, 1, 59, 100
3, 212224, Note_on_c, 1, 64, 110
3, 212344, Control_c, 1, 64, 0
3, 212348, Note_off_c, 1, 64, 100
3, 212352, Control_c, 1, 64, 127
3, 212352, Note_on_c, 1, 59, 110
3, 212476, Note_off_c, 1, 59, 100
3, 212480, Note_on_c, 1, 56, 110
3, 212604, Note_off_c, 1, 56, 100
3, 212608, Note_on_c, 1, 52, 110
3, 212728, Control_c, 1, 64, 0
3, 212732, Note_off_c, 1, 52, 100
3, 212736, Control_c, 1, 64, 127
3, 212736, Note_on_c, 1, 51, 110
3, 212860, Note_off_c, 1, 51, 100
3, 212864, Note_on_c, 1, 54, 110
3, 212988, Note_off_c, 1, 54, 100
3, 212992, Note_on_c, 1, 57, 110
3, 213112, Control_c, 1, 64, 0
3, 213116, Note_off_c, 1, 57, 100
3, 213120, Control_c, 1, 64, 127
3, 213120, Note_on_c, 1, 54, 110
3, 213244, Note_off_c, 1, 54, 100
3, 213248, Note_on_c, 1, 51, 110
3, 213372, Note_off_c, 1, 51, 100
3, 213376, Note_on_c, 1, 47, 110
3, 213496, Control_c, 1, 64, 0
3, 213500, Note_off_c, 1, 47, 100
3, 213504, Control_c, 1, 64, 127
3, 213504, Note_on_c, 1, 52, 110
3, 213628, Note_off_c, 1, 52, 100
3, 213632, Note_on_c, 1, 56, 110
3, 213756, Note_off_c, 1, 56, 100
3, 213760, Note_on_c, 1, 59, 110
3, 213880, Control_c, 1, 64, 0
3, 213884, Note_off_c, 1, 59, 100
3, 213888, Control_c, 1, 64, 127
3, 213888, Note_on_c, 1, 56, 110
3, 214012, Note_off_c, 1, 56, 100
3, 214016, Note_on_c, 1, 52, 110
3, 214140, Note_off_c, 1, 52, 100
3, 214144, Note_on_c, 1, 47, 110
3, 214264, Control_c, 1, 64, 0
3, 214268, Note_off_c, 1, 47, 100
3, 214272, Control_c, 1, 64, 127
3, 214272, Note_on_c, 1, 54, 110
3, 214396, Note_off_c, 1, 54, 100
3, 214400, Note_on_c, 1, 57, 110
3, 214524, Note_off_c, 1, 57, 100
3, 214528, Note_on_c, 1, 59, 110
3, 214648, Control_c, 1, 64, 0
3, 214652, Note_off_c, 1, 59, 100
3, 214656, Control_c, 1, 64, 127
3, 214656, Note_on_c, 1, 57, 110
3, 214780, Note_off_c, 1, 57, 100
3, 214784, Note_on_c, 1, 59, 110
3, 214908, Note_off_c, 1, 59, 100
3, 214912, Note_on_c, 1, 66, 110
3, 215032, Control_c, 1, 64, 0
3, 215036, Note_off_c, 1, 66, 100
3, 215040, Control_c, 1, 64, 127
3, 215040, Note_on_c, 1, 56, 110
3, 215164, Note_off_c, 1, 56, 100
3, 215168, Note_on_c, 1, 59, 110
3, 215292, Note_off_c, 1, 59, 100
3, 215296, Note_on_c, 1, 64, 110
3, 215416, Control_c, 1, 64, 0
3, 215420, Note_off_c, 1, 64, 100
3, 215424, Control_c, 1, 64, 127
3, 215424, Note_on_c, 1, 52, 110
3, 215548, Note_off_c, 1, 52, 100
3, 215552, Note_on_c, 1, 56, 110
3, 215676, Note_off_c, 1, 56, 100
3, 215680, Note_on_c, 1, 59, 109
3, 215800, Control_c, 1, 64, 0
3, 215804, Note_off_c, 1, 59, 100
3, 215808, Control_c, 1, 64, 127
3, 215808, Note_on_c, 1, 54, 108
3, 215932, Note_off_c, 1, 54, 100
3, 215936, Note_on_c, 1, 57, 107
3, 216060, Note_off_c, 1, 57, 100
3, 216064, Note_on_c, 1, 59, 106
3, 216184, Control_c, 1, 64, 0
3, 216188, Note_off_c, 1, 59, 100
3, 216192, Control_c, 1, 64, 127
3, 216192, Note_on_c, 1, 57, 105
3, 216316, Note_off_c, 1, 57, 100
3, 216320, Note_on_c, 1, 59, 104
3, 216444, Note_off_c, 1, 59, 100
3, 216448, Note_on_c, 1, 66, 103
3, 216568, Control_c, 1, 64, 0
3, 216572, Note_off_c, 1, 66, 100
3, 216576, Control_c, 1, 64, 127
3, 216576, Note_on_c, 1, 56, 102
3, 216700, Note_off_c, 1, 56, 100
3, 216704, Note_on_c, 1, 59, 101
3, 216828, Note_off_c, 1, 59, 100
3, 216832, Note_on_c, 1, 64, 100
3, 216952, Control_c, 1, 64, 0
3, 216956, Note_off_c, 1, 64, 100
3, 216960, Control_c, 1, 64, 127
3, 216960, Note_on_c, 1, 52, 99
3, 217084, Note_off_c, 1, 52, 100
3, 217088, Note_on_c, 1, 56, 98
3, 217212, Note_off_c, 1, 56, 100
3, 217216, Note_on_c, 1, 59, 97
3, 217336, Control_c, 1, 64, 0
3, 217340, Note_off_c, 1, 59, 100
3, 217344, Control_c, 1, 64, 127
3, 217344, Note_on_c, 1, 54, 96
3, 217468, Note_off_c, 1, 54, 100
3, 217472, Note_on_c, 1, 57, 95
3, 217596, Note_off_c, 1, 57, 100
3, 217600, Note_on_c, 1, 59, 94
3, 217720, Control_c, 1, 64, 0
3, 217724, Note_off_c, 1, 59, 100
3, 217728, Control_c, 1, 64, 127
3, 217728, Note_on_c, 1, 57, 93
3, 217852, Note_off_c, 1, 57, 100
3, 217856, Note_on_c, 1, 59, 92
3, 217980, Note_off_c, 1, 59, 100
3, 217984, Note_on_c, 1, 66, 91
3, 218104, Control_c, 1, 64, 0
3, 218108, Note_off_c, 1, 66, 100
3, 218112, Control_c, 1, 64, 127
3, 218112, Note_on_c, 1, 56, 90
3, 218204, Note_off_c, 1, 56, 100
3, 218208, Note_on_c, 1, 59, 90
3, 218300, Note_off_c, 1, 59, 100
3, 218304, Note_on_c, 1, 52, 91
3, 218396, Note_off_c, 1, 52, 100
3, 218400, Note_on_c, 1, 59, 92
3, 218488, Control_c, 1, 64, 0
3, 218492, Note_off_c, 1, 59, 100
3, 218496, Control_c, 1, 64, 127
3, 218496, Note_on_c, 1, 54, 92
3, 218588, Note_off_c, 1, 54, 100
3, 218592, Note_on_c, 1, 59, 93
3, 218684, Note_off_c, 1, 59, 100
3, 218688, Note_on_c, 1, 57, 94
3, 218780, Note_off_c, 1, 57, 100
3, 218784, Note_on_c, 1, 59, 94
3, 218872, Control_c, 1, 64, 0
3, 218876, Note_off_c, 1, 59, 100
3, 218880, Control_c, 1, 64, 127
3, 218880, Note_on_c, 1, 56, 95
3, 218972, Note_off_c, 1, 56, 100
3, 218976, Note_on_c, 1, 59, 96
3, 219068, Note_off_c, 1, 59, 100
3, 219072, Note_on_c, 1, 52, 96
3, 219164, Note_off_c, 1, 52, 100
3, 219168, Note_on_c, 1, 59, 97
3, 219256, Control_c, 1, 64, 0
3, 219260, Note_off_c, 1, 59, 100
3, 219264, Control_c, 1, 64, 127
3, 219264, Note_on_c, 1, 54, 98
3, 219356, Note_off_c, 1, 54, 100
3, 219360, Note_on_c, 1, 59, 98
3, 219452, Note_off_c, 1, 59, 100
3, 219456, Note_on_c, 1, 57, 99
3, 219548, Note_off_c, 1, 57, 100
3, 219552, Note_on_c, 1, 59, 100
3, 219640, Control_c, 1, 64, 0
3, 219644, Note_off_c, 1, 59, 100
3, 219648, Control_c, 1, 64, 127
3, 219648, Note_on_c, 1, 56, 100
3, 219740, Note_off_c, 1, 56, 100
3, 219744, Note_on_c, 1, 59, 101
3, 219836, Note_off_c, 1, 59, 100
3, 219840, Note_on_c, 1, 57, 102
3, 219932, Note_off_c, 1, 57, 100
3, 219936, Note_on_c, 1, 59, 102
3, 220024, Control_c, 1, 64, 0
3, 220028, Note_off_c, 1, 59, 100
3, 220032, Control_c, 1, 64, 127
3, 220032, Note_on_c, 1, 56, 103
3, 220124, Note_off_c, 1, 56, 100
3, 220128, Note_on_c, 1, 59, 104
3, 220220, Note_off_c, 1, 59, 100
3, 220224, Note_on_c, 1, 57, 104
3, 220316, Note_off_c, 1, 57, 100
3, 220320, Note_on_c, 1, 59, 105
3, 220408, Control_c, 1, 64, 0
3, 220412, Note_off_c, 1, 59, 100
3, 220416, Control_c, 1, 64, 127
3, 220416, Note_on_c, 1, 56, 106
3, 220508, Note_off_c, 1, 56, 100
3, 220512, Note_on_c, 1, 59, 106
3, 220604, Note_off_c, 1, 59, 100
3, 220608, Note_on_c, 1, 57, 107
3, 220700, Note_off_c, 1, 57, 100
3, 220704, Note_on_c, 1, 59, 108
3, 220792, Control_c, 1, 64, 0
3, 220796, Note_off_c, 1, 59, 100
3, 220800, Control_c, 1, 64, 127
3, 220800, Note_on_c, 1, 56, 108
3, 220892, Note_off_c, 1, 56, 100
3, 220896, Note_on_c, 1, 59, 109
3, 220988, Note_off_c, 1, 59, 100
3, 220992, Note_on_c, 1, 57, 110
3, 221084, Note_off_c, 1, 57, 100
3, 221088, Note_on_c, 1, 59, 110
3, 221176, Control_c, 1, 64, 0
3, 221180, Note_off_c, 1, 59, 100
3, 221184, Control_c, 1, 64, 127
3, 221184, Note_on_c, 1, 56, 110
3, 221276, Note_off_c, 1, 56, 100
3, 221280, Note_on_c, 1, 59, 110
3, 221372, Note_off_c, 1, 59, 100
3, 221376, Note_on_c, 1, 44, 110
3, 221468, Note_off_c, 1, 44, 100
3, 221472, Note_on_c, 1, 52, 110
3, 221560, Control_c, 1, 64, 0
3, 221564, Note_off_c, 1, 52, 100
3, 221568, Control_c, 1, 64, 127
3, 221568, Note_on_c, 1, 44, 110
3, 221660, Note_off_c, 1, 44, 100
3, 221664, Note_on_c, 1, 52, 110
3, 221756, Note_off_c, 1, 52, 100
3, 221760, Note_on_c, 1, 44, 110
3, 221852, Note_off_c, 1, 44, 100
3, 221856, Note_on_c, 1, 52, 110
3, 221944, Control_c, 1, 64, 0
3, 221948, Note_off_c, 1, 52, 100
3, 221952, Control_c, 1, 64, 127
3, 221952, Note_on_c, 1, 44, 110
3, 222044, Note_off_c, 1, 44, 100
3, 222048, Note_on_c, 1, 52, 110
3, 222140, Note_off_c, 1, 52, 100
3, 222144, Note_on_c, 1, 44, 110
3, 222236, Note_off_c, 1, 44, 100
3, 222240, Note_on_c, 1, 52, 110
3, 222328, Control_c, 1, 64, 0
3, 222332, Note_off_c, 1, 52, 100
3, 222336, Control_c, 1, 64, 127
3, 222336, Note_on_c, 1, 44, 110
3, 222428, Note_off_c, 1, 44, 100
3, 222432, Note_on_c, 1, 52, 110
3, 222524, Note_off_c, 1, 52, 100
3, 222528, Note_on_c, 1, 44, 110
3, 222620, Note_off_c, 1, 44, 100
3, 222624, Note_on_c, 1, 52, 110
3, 222712, Control_c, 1, 64, 0
3, 222716, Note_off_c, 1, 52, 100
3, 222720, Control_c, 1, 64, 127
3, 222720, Note_on_c, 1, 44, 110
3, 222812, Note_off_c, 1, 44, 100
3, 222816, Note_on_c, 1, 52, 110
3, 222908, Note_off_c, 1, 52, 100
3, 222912, Note_on_c, 1, 44, 110
3, 223004, Note_off_c, 1, 44, 100
3, 223008, Note_on_c, 1, 52, 110
3, 223096, Control_c, 1, 64, 0
3, 223100, Note_off_c, 1, 52, 100
3, 223104, Control_c, 1, 64, 127
3, 223104, Note_on_c, 1, 44, 110
3, 223196, Note_off_c, 1, 44, 100
3, 223200, Note_on_c, 1, 52, 110
3, 223292, Note_off_c, 1, 52, 100
3, 223296, Note_on_c, 1, 44, 110
3, 223388, Note_off_c, 1, 44, 100
3, 223392, Note_on_c, 1, 52, 110
3, 223480, Control_c, 1, 64, 0
3, 223484, Note_off_c, 1, 52, 100
3, 223488, Control_c, 1, 64, 127
3, 223488, Note_on_c, 1, 44, 110
3, 223580, Note_off_c, 1, 44, 100
3, 223584, Note_on_c, 1, 52, 110
3, 223676, Note_off_c, 1, 52, 100
3, 223680, Note_on_c, 1, 44, 110
3, 223772, Note_off_c, 1, 44, 100
3, 223776, Note_on_c, 1, 52, 110
3, 223864, Control_c, 1, 64, 0
3, 223868, Note_off_c, 1, 52, 100
3, 223872, Control_c, 1, 64, 127
3, 223872, Note_on_c, 1, 44, 110
3, 223964, Note_off_c, 1, 44, 100
3, 223968, Note_on_c, 1, 52, 110
3, 224060, Note_off_c, 1, 52, 100
3, 224064, Note_on_c, 1, 44, 110
3, 224156, Note_off_c, 1, 44, 100
3, 224160, Note_on_c, 1, 52, 110
3, 224248, Control_c, 1, 64, 0
3, 224252, Note_off_c, 1, 52, 100
3, 224256, Note_on_c, 1, 52, 120
3, 224256, Note_on_c, 1, 49, 120
3, 224256, Note_on_c, 1, 45, 120
3, 224444, Note_off_c, 1, 52, 100
3, 224444, Note_off_c, 1, 49, 100
3, 224444, Note_off_c, 1, 45, 100
3, 224448, Note_on_c, 1, 52, 120
3, 224448, Note_on_c, 1, 49, 120
3, 224448, Note_on_c, 1, 45, 120
3, 224636, Note_off_c, 1, 52, 100
3, 224636, Note_off_c, 1, 49, 100
3, 224636, Note_off_c, 1, 45, 100
3, 224832, Note_on_c, 1, 52, 120
3, 224832, Note_on_c, 1, 49, 120
3, 224832, Note_on_c, 1, 45, 120
3, 225020, Note_off_c, 1, 52, 100
3, 225020, Note_off_c, 1, 49, 100
3, 225020, Note_off_c, 1, 45, 100
3, 225024, Note_on_c, 1, 52, 120
3, 225024, Note_on_c, 1, 49, 120
3, 225024, Note_on_c, 1, 45, 120
3, 225212, Note_off_c, 1, 52, 100
3, 225212, Note_off_c, 1, 49, 100
3, 225212, Note_off_c, 1, 45, 100
3, 225216, Note_on_c, 1, 52, 120
3, 225216, Note_on_c, 1, 49, 120
3, 225216, Note_on_c, 1, 45, 120
3, 225404, Note_off_c, 1, 52, 100
3, 225404, Note_off_c, 1, 49, 100
3, 225404, Note_off_c, 1, 45, 100
3, 225600, Note_on_c, 1, 52, 120
3, 225600, Note_on_c, 1, 49, 120
3, 225600, Note_on_c, 1, 45, 120
3, 225788, Note_off_c, 1, 52, 100
3, 225788, Note_off_c, 1, 49, 100
3, 225788, Note_off_c, 1, 45, 100
3, 225792, Note_on_c, 1, 52, 120
3, 225792, Note_on_c, 1, 49, 120
3, 225792, Note_on_c, 1, 45, 120
3, 225980, Note_off_c, 1, 52, 100
3, 225980, Note_off_c, 1, 49, 100
3, 225980, Note_off_c, 1, 45, 100
3, 225984, Note_on_c, 1, 52, 120
3, 225984, Note_on_c, 1, 49, 120
3, 225984, Note_on_c, 1, 45, 120
3, 226172, Note_off_c, 1, 52, 100
3, 226172, Note_off_c, 1, 49, 100
3, 226172, Note_off_c, 1, 45, 100
3, 226368, Note_on_c, 1, 52, 120
3, 226368, Note_on_c, 1, 49, 120
3, 226368, Note_on_c, 1, 45, 120
3, 226556, Note_off_c, 1, 52, 100
3, 226556, Note_off_c, 1, 49, 100
3, 226556, Note_off_c, 1, 45, 100
3, 226560, Note_on_c, 1, 52, 120
3, 226560, Note_on_c, 1, 49, 120
3, 226560, Note_on_c, 1, 45, 120
3, 226748, Note_off_c, 1, 52, 100
3, 226748, Note_off_c, 1, 49, 100
3, 226748, Note_off_c, 1, 45, 100
3, 226752, Note_on_c, 1, 52, 120
3, 226752, Note_on_c, 1, 49, 120
3, 226752, Note_on_c, 1, 45, 120
3, 226940, Note_off_c, 1, 52, 100
3, 226940, Note_off_c, 1, 49, 100
3, 226940, Note_off_c, 1, 45, 100
3, 227136, Note_on_c, 1, 52, 120
3, 227136, Note_on_c, 1, 49, 120
3, 227136, Note_on_c, 1, 45, 120
3, 227324, Note_off_c, 1, 52, 100
3, 227324, Note_off_c, 1, 49, 100
3, 227324, Note_off_c, 1, 45, 100
3, 227328, Note_on_c, 1, 54, 120
3, 227328, Note_on_c, 1, 52, 120
3, 227328, Note_on_c, 1, 46, 120
3, 227328, Note_on_c, 1, 49, 120
3, 227516, Note_off_c, 1, 54, 100
3, 227516, Note_off_c, 1, 52, 100
3, 227516, Note_off_c, 1, 46, 100
3, 227516, Note_off_c, 1, 49, 100
3, 227520, Note_on_c, 1, 54, 120
3, 227520, Note_on_c, 1, 52, 120
3, 227520, Note_on_c, 1, 49, 120
3, 227520, Note_on_c, 1, 46, 120
3, 227708, Note_off_c, 1, 54, 100
3, 227708, Note_off_c, 1, 52, 100
3, 227708, Note_off_c, 1, 49, 100
3, 227708, Note_off_c, 1, 46, 100
3, 227904, Note_on_c, 1, 54, 120
3, 227904, Note_on_c, 1, 52, 120
3, 227904, Note_on_c, 1, 49, 120
3, 227904, Note_on_c, 1, 46, 120
3, 228092, Note_off_c, 1, 54, 100
3, 228092, Note_off_c, 1, 52, 100
3, 228092, Note_off_c, 1, 49, 100
3, 228092, Note_off_c, 1, 46, 100
3, 228096, Note_on_c, 1, 54, 120
3, 228096, Note_on_c, 1, 52, 120
3, 228096, Note_on_c, 1, 46, 120
3, 228096, Note_on_c, 1, 49, 120
3, 228284, Note_off_c, 1, 54, 100
3, 228284, Note_off_c, 1, 52, 100
3, 228284, Note_off_c, 1, 46, 100
3, 228284, Note_off_c, 1, 49, 100
3, 228288, Note_on_c, 1, 54, 120
3, 228288, Note_on_c, 1, 52, 120
3, 228288, Note_on_c, 1, 49, 120
3, 228288, Note_on_c, 1, 46, 120
3, 228476, Note_off_c, 1, 54, 100
3, 228476, Note_off_c, 1, 52, 100
3, 228476, Note_off_c, 1, 49, 100
3, 228476, Note_off_c, 1, 46, 100
3, 228672, Note_on_c, 1, 54, 120
3, 228672, Note_on_c, 1, 52, 120
3, 228672, Note_on_c, 1, 49, 120
3, 228672, Note_on_c, 1, 46, 120
3, 228860, Note_off_c, 1, 54, 100
3, 228860, Note_off_c, 1, 52, 100
3, 228860, Note_off_c, 1, 49, 100
3, 228860, Note_off_c, 1, 46, 100
3, 228864, Note_on_c, 1, 54, 120
3, 228864, Note_on_c, 1, 52, 120
3, 228864, Note_on_c, 1, 46, 120
3, 228864, Note_on_c, 1, 49, 120
3, 229052, Note_off_c, 1, 54, 100
3, 229052, Note_off_c, 1, 52, 100
3, 229052, Note_off_c, 1, 46, 100
3, 229052, Note_off_c, 1, 49, 100
3, 229056, Note_on_c, 1, 54, 120
3, 229056, Note_on_c, 1, 52, 120
3, 229056, Note_on_c, 1, 49, 120
3, 229056, Note_on_c, 1, 46, 120
3, 229244, Note_off_c, 1, 54, 100
3, 229244, Note_off_c, 1, 52, 100
3, 229244, Note_off_c, 1, 49, 100
3, 229244, Note_off_c, 1, 46, 100
3, 229440, Note_on_c, 1, 54, 120
3, 229440, Note_on_c, 1, 52, 120
3, 229440, Note_on_c, 1, 49, 120
3, 229440, Note_on_c, 1, 46, 120
3, 229628, Note_off_c, 1, 54, 100
3, 229628, Note_off_c, 1, 52, 100
3, 229628, Note_off_c, 1, 49, 100
3, 229628, Note_off_c, 1, 46, 100
3, 229632, Note_on_c, 1, 54, 120
3, 229632, Note_on_c, 1, 52, 120
3, 229632, Note_on_c, 1, 46, 120
3, 229632, Note_on_c, 1, 49, 120
3, 229820, Note_off_c, 1, 54, 100
3, 229820, Note_off_c, 1, 52, 100
3, 229820, Note_off_c, 1, 46, 100
3, 229820, Note_off_c, 1, 49, 100
3, 229824, Note_on_c, 1, 54, 120
3, 229824, Note_on_c, 1, 52, 120
3, 229824, Note_on_c, 1, 49, 120
3, 229824, Note_on_c, 1, 46, 120
3, 230012, Note_off_c, 1, 54, 100
3, 230012, Note_off_c, 1, 52, 100
3, 230012, Note_off_c, 1, 49, 100
3, 230012, Note_off_c, 1, 46, 100
3, 230208, Note_on_c, 1, 54, 120
3, 230208, Note_on_c, 1, 52, 120
3, 230208, Note_on_c, 1, 49, 120
3, 230208, Note_on_c, 1, 46, 120
3, 230396, Note_off_c, 1, 54, 100
3, 230396, Note_off_c, 1, 52, 100
3, 230396, Note_off_c, 1, 49, 100
3, 230396, Note_off_c, 1, 46, 100
3, 230400, Note_on_c, 1, 47, 120
3, 230492, Note_off_c, 1, 47, 100
3, 230496, Note_on_c, 1, 52, 120
3, 230588, Note_off_c, 1, 52, 100
3, 230592, Note_on_c, 1, 56, 120
3, 230684, Note_off_c, 1, 56, 100
3, 230688, Note_on_c, 1, 59, 120
3, 230780, Note_off_c, 1, 59, 100
3, 230784, Note_on_c, 1, 47, 120
3, 230876, Note_off_c, 1, 47, 100
3, 230880, Note_on_c, 1, 52, 120
3, 230972, Note_off_c, 1, 52, 100
3, 230976, Note_on_c, 1, 56, 120
3, 231068, Note_off_c, 1, 56, 100
3, 231072, Note_on_c, 1, 59, 120
3, 231164, Note_off_c, 1, 59, 100
3, 231168, Note_on_c, 1, 47, 120
3, 231260, Note_off_c, 1, 47, 100
3, 231264, Note_on_c, 1, 52, 120
3, 231356, Note_off_c, 1, 52, 100
3, 231360, Note_on_c, 1, 56, 120
3, 231452, Note_off_c, 1, 56, 100
3, 231456, Note_on_c, 1, 59, 120
3, 231548, Note_off_c, 1, 59, 100
3, 231552, Note_on_c, 1, 47, 120
3, 231644, Note_off_c, 1, 47, 100
3, 231648, Note_on_c, 1, 52, 120
3, 231740, Note_off_c, 1, 52, 100
3, 231744, Note_on_c, 1, 56, 120
3, 231836, Note_off_c, 1, 56, 100
3, 231840, Note_on_c, 1, 59, 120
3, 231932, Note_off_c, 1, 59, 100
3, 231936, Note_on_c, 1, 47, 120
3, 232028, Note_off_c, 1, 47, 100
3, 232032, Note_on_c, 1, 52, 120
3, 232124, Note_off_c, 1, 52, 100
3, 232128, Note_on_c, 1, 56, 120
3, 232220, Note_off_c, 1, 56, 100
3, 232224, Note_on_c, 1, 59, 120
3, 232316, Note_off_c, 1, 59, 100
3, 232320, Note_on_c, 1, 47, 120
3, 232412, Note_off_c, 1, 47, 100
3, 232416, Note_on_c, 1, 52, 120
3, 232508, Note_off_c, 1, 52, 100
3, 232512, Note_on_c, 1, 56, 120
3, 232604, Note_off_c, 1, 56, 100
3, 232608, Note_on_c, 1, 59, 120
3, 232700, Note_off_c, 1, 59, 100
3, 232704, Note_on_c, 1, 56, 120
3, 232892, Note_off_c, 1, 56, 100
3, 232896, Note_on_c, 1, 56, 120
3, 233084, Note_off_c, 1, 56, 100
3, 233088, Note_on_c, 1, 52, 120
3, 233276, Note_off_c, 1, 52, 100
3, 233280, Note_on_c, 1, 47, 120
3, 233468, Note_off_c, 1, 47, 100
3, 233472, Note_on_c, 1, 59, 120
3, 233660, Note_off_c, 1, 59, 100
3, 233664, Note_on_c, 1, 56, 80
3, 233852, Note_off_c, 1, 56, 100
3, 233856, Note_on_c, 1, 64, 80
3, 234044, Note_off_c, 1, 64, 100
3, 234048, Note_on_c, 1, 59, 80
3, 234236, Note_off_c, 1, 59, 100
3, 234240, Note_on_c, 1, 68, 80
3, 234428, Note_off_c, 1, 68, 100
3, 234432, Note_on_c, 1, 64, 80
3, 234620, Note_off_c, 1, 64, 100
3, 234624, Note_on_c, 1, 71, 80
3, 234812, Note_off_c, 1, 71, 100
3, 234816, Note_on_c, 1, 68, 80
3, 235004, Note_off_c, 1, 68, 100
3, 235008, Note_on_c, 1, 76, 80
3, 235196, Note_off_c, 1, 76, 100
3, 235200, Note_on_c, 1, 71, 80
3, 235388, Note_off_c, 1, 71, 100
3, 235392, Note_on_c, 1, 76, 80
3, 235580, Note_off_c, 1, 76, 100
3, 235584, Note_on_c, 1, 71, 80
3, 235772, Note_off_c, 1, 71, 100
3, 235776, Note_on_c, 1, 76, 80
3, 235964, Note_off_c, 1, 76, 100
3, 235968, Note_on_c, 1, 71, 80
3, 236156, Note_off_c, 1, 71, 100
3, 236160, Note_on_c, 1, 76, 80
3, 236348, Note_off_c, 1, 76, 100
3, 236352, Note_on_c, 1, 71, 80
3, 236540, Note_off_c, 1, 71, 100
3, 236544, Note_on_c, 1, 75, 80
3, 236732, Note_off_c, 1, 75, 100
3, 236736, Note_on_c, 1, 71, 79
3, 236924, Note_off_c, 1, 71, 100
3, 236928, Note_on_c, 1, 75, 78
3, 237116, Note_off_c, 1, 75, 100
3, 237120, Note_on_c, 1, 71, 77
3, 237308, Note_off_c, 1, 71, 100
3, 237312, Note_on_c, 1, 75, 75
3, 237500, Note_off_c, 1, 75, 100
3, 237504, Note_on_c, 1, 71, 74
3, 237692, Note_off_c, 1, 71, 100
3, 237696, Note_on_c, 1, 75, 73
3, 237884, Note_off_c, 1, 75, 100
3, 237888, Note_on_c, 1, 71, 71
3, 238076, Note_off_c, 1, 71, 100
3, 238080, Note_on_c, 1, 75, 70
3, 238268, Note_off_c, 1, 75, 100
3, 238272, Note_on_c, 1, 71, 70
3, 238460, Note_off_c, 1, 71, 100
3, 238464, Note_on_c, 1, 75, 70
3, 238652, Note_off_c, 1, 75, 100
3, 238656, Note_on_c, 1, 71, 70
3, 238844, Note_off_c, 1, 71, 100
3, 238848, Note_on_c, 1, 75, 70
3, 239036, Note_off_c, 1, 75, 100
3, 239040, Note_on_c, 1, 71, 70
3, 239228, Note_off_c, 1, 71, 100
3, 239232, Note_on_c, 1, 75, 70
3, 239420, Note_off_c, 1, 75, 100
3, 239424, Note_on_c, 1, 71, 70
3, 239612, Note_off_c, 1, 71, 100
3, 239616, Note_on_c, 1, 75, 70
3, 239664, Note_on_c, 1, 76, 70
3, 239696, Note_off_c, 1, 75, 100
3, 239712, Note_on_c, 1, 75, 71
3, 239752, Note_off_c, 1, 76, 100
3, 239760, Note_on_c, 1, 76, 71
3, 239792, Note_off_c, 1, 75, 100
3, 239808, Note_on_c, 1, 75, 72
3, 239844, Note_off_c, 1, 76, 100
3, 239856, Note_on_c, 1, 76, 73
3, 239888, Note_off_c, 1, 75, 100
3, 239904, Note_on_c, 1, 75, 73
3, 239944, Note_off_c, 1, 76, 100
3, 239952, Note_on_c, 1, 76, 74
3, 239984, Note_off_c, 1, 75, 100
3, 240000, Note_on_c, 1, 75, 75
3, 240036, Note_off_c, 1, 76, 100
3, 240048, Note_on_c, 1, 76, 75
3, 240080, Note_off_c, 1, 75, 100
3, 240096, Note_on_c, 1, 75, 76
3, 240136, Note_off_c, 1, 76, 100
3, 240144, Note_on_c, 1, 76, 77
3, 240176, Note_off_c, 1, 75, 100
3, 240192, Note_on_c, 1, 75, 77
3, 240228, Note_off_c, 1, 76, 100
3, 240240, Note_on_c, 1, 76, 78
3, 240272, Note_off_c, 1, 75, 100
3, 240288, Note_on_c, 1, 75, 78
3, 240328, Note_off_c, 1, 76, 100
3, 240336, Note_on_c, 1, 76, 79
3, 240368, Note_off_c, 1, 75, 100
3, 240384, Note_on_c, 1, 75, 80
3, 240420, Note_off_c, 1, 76, 100
3, 240432, Note_on_c, 1, 76, 80
3, 240464, Note_off_c, 1, 75, 100
3, 240480, Note_on_c, 1, 75, 81
3, 240520, Note_off_c, 1, 76, 100
3, 240528, Note_on_c, 1, 76, 82
3, 240560, Note_off_c, 1, 75, 100
3, 240576, Note_on_c, 1, 75, 82
3, 240612, Note_off_c, 1, 76, 100
3, 240624, Note_on_c, 1, 76, 83
3, 240656, Note_off_c, 1, 75, 100
3, 240672, Note_on_c, 1, 75, 84
3, 240712, Note_off_c, 1, 76, 100
3, 240720, Note_on_c, 1, 76, 84
3, 240752, Note_off_c, 1, 75, 100
3, 240768, Note_on_c, 1, 75, 85
3, 240804, Note_off_c, 1, 76, 100
3, 240816, Note_on_c, 1, 76, 85
3, 240848, Note_off_c, 1, 75, 100
3, 240864, Note_on_c, 1, 75, 86
3, 240904, Note_off_c, 1, 76, 100
3, 240912, Note_on_c, 1, 76, 87
3, 240944, Note_off_c, 1, 75, 100
3, 240960, Note_on_c, 1, 75, 87
3, 240996, Note_off_c, 1, 76, 100
3, 241008, Note_on_c, 1, 76, 88
3, 241040, Note_off_c, 1, 75, 100
3, 241056, Note_on_c, 1, 75, 89
3, 241096, Note_off_c, 1, 76, 100
3, 241104, Note_on_c, 1, 76, 89
3, 241136, Note_off_c, 1, 75, 100
3, 241152, Note_on_c, 1, 75, 90
3, 241188, Note_off_c, 1, 76, 64
3, 241200, Note_on_c, 1, 76, 91
3, 241232, Note_off_c, 1, 75, 100
3, 241248, Note_on_c, 1, 75, 91
3, 241288, Note_off_c, 1, 76, 100
3, 241296, Note_on_c, 1, 76, 92
3, 241328, Note_off_c, 1, 75, 100
3, 241344, Note_on_c, 1, 75, 93
3, 241380, Note_off_c, 1, 76, 100
3, 241392, Note_on_c, 1, 76, 93
3, 241424, Note_off_c, 1, 75, 100
3, 241440, Note_on_c, 1, 75, 94
3, 241480, Note_off_c, 1, 76, 100
3, 241488, Note_on_c, 1, 76, 94
3, 241520, Note_off_c, 1, 75, 100
3, 241536, Note_on_c, 1, 75, 95
3, 241572, Note_off_c, 1, 76, 100
3, 241584, Note_on_c, 1, 76, 96
3, 241616, Note_off_c, 1, 75, 100
3, 241632, Note_on_c, 1, 75, 96
3, 241672, Note_off_c, 1, 76, 100
3, 241680, Note_on_c, 1, 76, 97
3, 241712, Note_off_c, 1, 75, 100
3, 241728, Note_on_c, 1, 75, 98
3, 241764, Note_off_c, 1, 76, 100
3, 241776, Note_on_c, 1, 76, 98
3, 241808, Note_off_c, 1, 75, 100
3, 241824, Note_on_c, 1, 75, 99
3, 241864, Note_off_c, 1, 76, 100
3, 241872, Note_on_c, 1, 76, 100
3, 241904, Note_off_c, 1, 75, 100
3, 241920, Note_on_c, 1, 75, 100
3, 241956, Note_off_c, 1, 76, 100
3, 241968, Note_on_c, 1, 76, 101
3, 242000, Note_off_c, 1, 75, 100
3, 242016, Note_on_c, 1, 75, 101
3, 242056, Note_off_c, 1, 76, 100
3, 242064, Note_on_c, 1, 76, 102
3, 242096, Note_off_c, 1, 75, 100
3, 242112, Note_on_c, 1, 75, 103
3, 242148, Note_off_c, 1, 76, 100
3, 242160, Note_on_c, 1, 76, 103
3, 242192, Note_off_c, 1, 75, 100
3, 242208, Note_on_c, 1, 75, 104
3, 242248, Note_off_c, 1, 76, 100
3, 242256, Note_on_c, 1, 76, 105
3, 242288, Note_off_c, 1, 75, 100
3, 242304, Note_on_c, 1, 75, 105
3, 242340, Note_off_c, 1, 76, 100
3, 242352, Note_on_c, 1, 76, 106
3, 242384, Note_off_c, 1, 75, 100
3, 242400, Note_on_c, 1, 75, 107
3, 242440, Note_off_c, 1, 76, 100
3, 242448, Note_on_c, 1, 76, 107
3, 242480, Note_off_c, 1, 75, 100
3, 242496, Note_on_c, 1, 75, 108
3, 242532, Note_off_c, 1, 76, 100
3, 242544, Note_on_c, 1, 76, 109
3, 242576, Note_off_c, 1, 75, 100
3, 242592, Note_on_c, 1, 73, 109
3, 242632, Note_off_c, 1, 76, 100
3, 242640, Note_on_c, 1, 75, 110
3, 242672, Note_off_c, 1, 73, 100
3, 242684, Note_off_c, 1, 75, 100
3, 242688, Note_on_c, 1, 64, 110
3, 242688, Note_on_c, 1, 76, 110
3, 243452, Note_off_c, 1, 76, 100
3, 243456, Note_on_c, 1, 74, 80
3, 243456, Note_on_c, 1, 71, 80
3, 243456, Note_on_c, 1, 68, 80
3, 244220, Note_off_c, 1, 74, 100
3, 244220, Note_off_c, 1, 71, 100
3, 244220, Note_off_c, 1, 68, 100
3, 244224, Note_on_c, 1, 69, 80
3, 244224, Note_on_c, 1, 72, 80
3, 244988, Note_off_c, 1, 69, 100
3, 244988, Note_off_c, 1, 72, 100
3, 244992, Note_on_c, 1, 74, 80
3, 244992, Note_on_c, 1, 71, 80
3, 244992, Note_on_c, 1, 68, 80
3, 245756, Note_off_c, 1, 64, 64
3, 245756, Note_off_c, 1, 74, 100
3, 245756, Note_off_c, 1, 71, 100
3, 245756, Note_off_c, 1, 68, 100
3, 245760, Note_on_c, 1, 72, 80
3, 245760, Note_on_c, 1, 69, 80
3, 246140, Note_off_c, 1, 72, 100
3, 246140, Note_off_c, 1, 69, 100
3, 246528, Note_on_c, 1, 69, 80
3, 246528, Note_on_c, 1, 66, 80
3, 246528, Note_on_c, 1, 60, 80
3, 246528, Note_on_c, 1, 57, 80
3, 247292, Note_off_c, 1, 69, 100
3, 247292, Note_off_c, 1, 66, 100
3, 247292, Note_off_c, 1, 60, 100
3, 247292, Note_off_c, 1, 57, 100
3, 247296, Note_on_c, 1, 67, 80
3, 247296, Note_on_c, 1, 59, 80
3, 247296, Note_on_c, 1, 64, 80
3, 248060, Note_off_c, 1, 67, 100
3, 248060, Note_off_c, 1, 59, 100
3, 248060, Note_off_c, 1, 64, 100
3, 248064, Note_on_c, 1, 66, 80
3, 248064, Note_on_c, 1, 63, 80
3, 248064, Note_on_c, 1, 59, 80
3, 248828, Note_off_c, 1, 66, 100
3, 248828, Note_off_c, 1, 63, 100
3, 248828, Note_off_c, 1, 59, 100
3, 248832, Note_on_c, 1, 52, 100
3, 248832, Note_on_c, 1, 64, 100
3, 249596, Note_off_c, 1, 64, 100
3, 249600, Note_on_c, 1, 62, 80
3, 249600, Note_on_c, 1, 59, 80
3, 249600, Note_on_c, 1, 56, 80
3, 250364, Note_off_c, 1, 62, 100
3, 250364, Note_off_c, 1, 59, 100
3, 250364, Note_off_c, 1, 56, 100
3, 250368, Note_on_c, 1, 57, 80
3, 250368, Note_on_c, 1, 60, 80
3, 251132, Note_off_c, 1, 57, 100
3, 251132, Note_off_c, 1, 60, 100
3, 251136, Note_on_c, 1, 62, 80
3, 251136, Note_on_c, 1, 59, 80
3, 251136, Note_on_c, 1, 56, 80
3, 251900, Note_off_c, 1, 52, 64
3, 251900, Note_off_c, 1, 62, 100
3, 251900, Note_off_c, 1, 59, 100
3, 251900, Note_off_c, 1, 56, 100
3, 251904, Note_on_c, 1, 60, 80
3, 251904, Note_on_c, 1, 57, 80
3, 252284, Note_off_c, 1, 60, 100
3, 252284, Note_off_c, 1, 57, 100
3, 252672, Note_on_c, 1, 57, 80
3, 252672, Note_on_c, 1, 54, 80
3, 252672, Note_on_c, 1, 48, 80
3, 252672, Note_on_c, 1, 45, 80
3, 253436, Note_off_c, 1, 57, 100
3, 253436, Note_off_c, 1, 54, 100
3, 253436, Note_off_c, 1, 48, 100
3, 253436, Note_off_c, 1, 45, 100
3, 253440, Note_on_c, 1, 55, 80
3, 253440, Note_on_c, 1, 47, 80
3, 253440, Note_on_c, 1, 52, 80
3, 254204, Note_off_c, 1, 55, 100
3, 254204, Note_off_c, 1, 47, 100
3, 254204, Note_off_c, 1, 52, 100
3, 254208, Note_on_c, 1, 54, 80
3, 254208, Note_on_c, 1, 51, 80
3, 254208, Note_on_c, 1, 47, 80
3, 254972, Note_off_c, 1, 54, 100
3, 254972, Note_off_c, 1, 51, 100
3, 254972, Note_off_c, 1, 47, 100
3, 254976, Note_on_c, 1, 55, 80
3, 254976, Note_on_c, 1, 52, 80
3, 255356, Note_off_c, 1, 55, 100
3, 255356, Note_off_c, 1, 52, 100
3, 255360, Note_on_c, 1, 43, 80
3, 255360, Note_on_c, 1, 52, 80
3, 255740, Note_off_c, 1, 43, 100
3, 255744, Note_on_c, 1, 45, 80
3, 255932, Note_off_c, 1, 52, 100
3, 255936, Note_on_c, 1, 53, 80
3, 256124, Note_off_c, 1, 53, 100
3, 256128, Note_on_c, 1, 55, 80
3, 256316, Note_off_c, 1, 55, 100
3, 256320, Note_on_c, 1, 57, 80
3, 256508, Note_off_c, 1, 45, 100
3, 256508, Note_off_c, 1, 57, 100
3, 256512, Note_on_c, 1, 59, 80
3, 256512, Note_on_c, 1, 55, 80
3, 256512, Note_on_c, 1, 47, 80
3, 257276, Note_off_c, 1, 59, 100
3, 257276, Note_off_c, 1, 55, 100
3, 257280, Note_on_c, 1, 57, 80
3, 257280, Note_on_c, 1, 54, 80
3, 258044, Note_off_c, 1, 47, 100
3, 258044, Note_off_c, 1, 57, 100
3, 258044, Note_off_c, 1, 54, 100
3, 258048, Note_on_c, 1, 55, 80
3, 258048, Note_on_c, 1, 52, 80
3, 258048, Note_on_c, 1, 48, 80
3, 258428, Note_off_c, 1, 55, 100
3, 258428, Note_off_c, 1, 52, 100
3, 258428, Note_off_c, 1, 48, 100
3, 258432, Note_on_c, 1, 40, 80
3, 258432, Note_on_c, 1, 48, 80
3, 258812, Note_off_c, 1, 40, 100
3, 258816, Note_on_c, 1, 41, 80
3, 259004, Note_off_c, 1, 48, 100
3, 259008, Note_on_c, 1, 50, 80
3, 259196, Note_off_c, 1, 50, 100
3, 259200, Note_on_c, 1, 52, 80
3, 259388, Note_off_c, 1, 52, 100
3, 259392, Note_on_c, 1, 53, 80
3, 259580, Note_off_c, 1, 41, 100
3, 259580, Note_off_c, 1, 53, 100
3, 259584, Note_on_c, 1, 55, 80
3, 259584, Note_on_c, 1, 52, 80
3, 259584, Note_on_c, 1, 43, 80
3, 260348, Note_off_c, 1, 55, 100
3, 260348, Note_off_c, 1, 52, 100
3, 260352, Note_on_c, 1, 53, 80
3, 260352, Note_on_c, 1, 50, 80
3, 261116, Note_off_c, 1, 43, 100
3, 261116, Note_off_c, 1, 53, 100
3, 261116, Note_off_c, 1, 50, 100
3, 261120, Note_on_c, 1, 52, 80
3, 261120, Note_on_c, 1, 48, 80
3, 261500, Note_off_c, 1, 52, 100
3, 261500, Note_off_c, 1, 48, 100
3, 261504, Note_on_c, 1, 53, 80
3, 261504, Note_on_c, 1, 45, 80
3, 261884, Note_off_c, 1, 45, 100
3, 261888, Note_on_c, 1, 46, 80
3, 262076, Note_off_c, 1, 53, 100
3, 262080, Note_on_c, 1, 55, 80
3, 262268, Note_off_c, 1, 55, 100
3, 262272, Note_on_c, 1, 57, 80
3, 262460, Note_off_c, 1, 57, 100
3, 262464, Note_on_c, 1, 58, 80
3, 262652, Note_off_c, 1, 46, 100
3, 262652, Note_off_c, 1, 58, 100
3, 262656, Note_on_c, 1, 48, 80
3, 262656, Note_on_c, 1, 57, 80
3, 262656, Note_on_c, 1, 60, 80
3, 263420, Note_off_c, 1, 57, 100
3, 263420, Note_off_c, 1, 60, 100
3, 263424, Note_on_c, 1, 58, 80
3, 263424, Note_on_c, 1, 55, 80
3, 264188, Note_off_c, 1, 48, 100
3, 264188, Note_off_c, 1, 58, 100
3, 264188, Note_off_c, 1, 55, 100
3, 264192, Note_on_c, 1, 57, 80
3, 264192, Note_on_c, 1, 53, 80
3, 264192, Note_on_c, 1, 50, 80
3, 264572, Note_off_c, 1, 57, 100
3, 264572, Note_off_c, 1, 53, 100
3, 264572, Note_off_c, 1, 50, 100
3, 264576, Note_on_c, 1, 33, 80
3, 264576, Note_on_c, 1, 41, 80
3, 264956, Note_off_c, 1, 33, 100
3, 264960, Note_on_c, 1, 34, 80
3, 265148, Note_off_c, 1, 41, 100
3, 265152, Note_on_c, 1, 43, 80
3, 265340, Note_off_c, 1, 43, 100
3, 265344, Note_on_c, 1, 45, 80
3, 265532, Note_off_c, 1, 45, 100
3, 265536, Note_on_c, 1, 46, 80
3, 265724, Note_off_c, 1, 34, 100
3, 265724, Note_off_c, 1, 46, 100
3, 265728, Note_on_c, 1, 36, 80
3, 265728, Note_on_c, 1, 45, 80
3, 265728, Note_on_c, 1, 48, 80
3, 266492, Note_off_c, 1, 45, 100
3, 266492, Note_off_c, 1, 48, 100
3, 266496, Note_on_c, 1, 43, 80
3, 266496, Note_on_c, 1, 46, 80
3, 267260, Note_off_c, 1, 36, 100
3, 267260, Note_off_c, 1, 43, 100
3, 267260, Note_off_c, 1, 46, 100
3, 267264, Note_on_c, 1, 29, 80
3, 267264, Note_on_c, 1, 41, 80
3, 267452, Note_off_c, 1, 29, 100
3, 267452, Note_off_c, 1, 41, 100
3, 267456, Note_on_c, 1, 36, 80
3, 267456, Note_on_c, 1, 29, 80
3, 267644, Note_off_c, 1, 36, 100
3, 267644, Note_off_c, 1, 29, 100
3, 267648, Note_on_c, 1, 36, 80
3, 267648, Note_on_c, 1, 29, 80
3, 267836, Note_off_c, 1, 36, 100
3, 267836, Note_off_c, 1, 29, 100
3, 267840, Note_on_c, 1, 36, 80
3, 267840, Note_on_c, 1, 29, 80
3, 268028, Note_off_c, 1, 36, 100
3, 268028, Note_off_c, 1, 29, 100
3, 268032, Note_on_c, 1, 36, 80
3, 268032, Note_on_c, 1, 29, 80
3, 268220, Note_off_c, 1, 36, 100
3, 268220, Note_off_c, 1, 29, 100
3, 268224, Note_on_c, 1, 36, 80
3, 268224, Note_on_c, 1, 29, 80
3, 268412, Note_off_c, 1, 36, 100
3, 268412, Note_off_c, 1, 29, 100
3, 268416, Note_on_c, 1, 36, 80
3, 268416, Note_on_c, 1, 29, 80
3, 268604, Note_off_c, 1, 36, 100
3, 268604, Note_off_c, 1, 29, 100
3, 268608, Note_on_c, 1, 36, 80
3, 268608, Note_on_c, 1, 29, 80
3, 268796, Note_off_c, 1, 36, 100
3, 268796, Note_off_c, 1, 29, 100
3, 268800, Note_on_c, 1, 36, 80
3, 268800, Note_on_c, 1, 29, 80
3, 268988, Note_off_c, 1, 36, 100
3, 268988, Note_off_c, 1, 29, 100
3, 268992, Note_on_c, 1, 36, 80
3, 268992, Note_on_c, 1, 29, 80
3, 269180, Note_off_c, 1, 36, 100
3, 269180, Note_off_c, 1, 29, 100
3, 269184, Note_on_c, 1, 36, 80
3, 269184, Note_on_c, 1, 29, 80
3, 269372, Note_off_c, 1, 36, 100
3, 269372, Note_off_c, 1, 29, 100
3, 269376, Note_on_c, 1, 36, 80
3, 269376, Note_on_c, 1, 29, 80
3, 269564, Note_off_c, 1, 36, 100
3, 269564, Note_off_c, 1, 29, 100
3, 269568, Note_on_c, 1, 36, 80
3, 269568, Note_on_c, 1, 29, 80
3, 269756, Note_off_c, 1, 36, 100
3, 269756, Note_off_c, 1, 29, 100
3, 269760, Note_on_c, 1, 36, 80
3, 269760, Note_on_c, 1, 29, 80
3, 269948, Note_off_c, 1, 36, 100
3, 269948, Note_off_c, 1, 29, 100
3, 269952, Note_on_c, 1, 29, 80
3, 269952, Note_on_c, 1, 38, 80
3, 270140, Note_off_c, 1, 29, 100
3, 270140, Note_off_c, 1, 38, 100
3, 270144, Note_on_c, 1, 29, 80
3, 270144, Note_on_c, 1, 38, 80
3, 270332, Note_off_c, 1, 29, 100
3, 270332, Note_off_c, 1, 38, 100
3, 270336, Note_on_c, 1, 40, 80
3, 270336, Note_on_c, 1, 43, 80
3, 270524, Note_off_c, 1, 40, 100
3, 270524, Note_off_c, 1, 43, 100
3, 270528, Note_on_c, 1, 43, 80
3, 270528, Note_on_c, 1, 40, 80
3, 270716, Note_off_c, 1, 43, 100
3, 270716, Note_off_c, 1, 40, 100
3, 270720, Note_on_c, 1, 43, 80
3, 270720, Note_on_c, 1, 40, 80
3, 270908, Note_off_c, 1, 43, 100
3, 270908, Note_off_c, 1, 40, 100
3, 270912, Note_on_c, 1, 43, 80
3, 270912, Note_on_c, 1, 40, 80
3, 271100, Note_off_c, 1, 43, 100
3, 271100, Note_off_c, 1, 40, 100
3, 271104, Note_on_c, 1, 40, 80
3, 271104, Note_on_c, 1, 43, 80
3, 271292, Note_off_c, 1, 40, 100
3, 271292, Note_off_c, 1, 43, 100
3, 271296, Note_on_c, 1, 43, 80
3, 271296, Note_on_c, 1, 40, 80
3, 271484, Note_off_c, 1, 43, 100
3, 271484, Note_off_c, 1, 40, 100
3, 271488, Note_on_c, 1, 43, 80
3, 271488, Note_on_c, 1, 40, 80
3, 271676, Note_off_c, 1, 43, 100
3, 271676, Note_off_c, 1, 40, 100
3, 271680, Note_on_c, 1, 43, 80
3, 271680, Note_on_c, 1, 40, 80
3, 271868, Note_off_c, 1, 43, 100
3, 271868, Note_off_c, 1, 40, 100
3, 271872, Note_on_c, 1, 39, 80
3, 271872, Note_on_c, 1, 43, 80
3, 272060, Note_off_c, 1, 39, 100
3, 272060, Note_off_c, 1, 43, 100
3, 272064, Note_on_c, 1, 43, 80
3, 272064, Note_on_c, 1, 39, 80
3, 272252, Note_off_c, 1, 43, 100
3, 272252, Note_off_c, 1, 39, 100
3, 272256, Note_on_c, 1, 43, 80
3, 272256, Note_on_c, 1, 39, 80
3, 272444, Note_off_c, 1, 43, 100
3, 272444, Note_off_c, 1, 39, 100
3, 272448, Note_on_c, 1, 43, 80
3, 272448, Note_on_c, 1, 39, 80
3, 272636, Note_off_c, 1, 43, 100
3, 272636, Note_off_c, 1, 39, 100
3, 272640, Note_on_c, 1, 39, 80
3, 272640, Note_on_c, 1, 43, 80
3, 272828, Note_off_c, 1, 39, 100
3, 272828, Note_off_c, 1, 43, 100
3, 272832, Note_on_c, 1, 43, 80
3, 272832, Note_on_c, 1, 39, 80
3, 273020, Note_off_c, 1, 43, 100
3, 273020, Note_off_c, 1, 39, 100
3, 273024, Note_on_c, 1, 43, 80
3, 273024, Note_on_c, 1, 39, 80
3, 273212, Note_off_c, 1, 43, 100
3, 273212, Note_off_c, 1, 39, 100
3, 273216, Note_on_c, 1, 43, 80
3, 273216, Note_on_c, 1, 39, 80
3, 273404, Note_off_c, 1, 43, 100
3, 273404, Note_off_c, 1, 39, 100
3, 273408, Note_on_c, 1, 38, 80
3, 273408, Note_on_c, 1, 45, 80
3, 273596, Note_off_c, 1, 38, 100
3, 273596, Note_off_c, 1, 45, 100
3, 273600, Note_on_c, 1, 45, 80
3, 273600, Note_on_c, 1, 38, 80
3, 273788, Note_off_c, 1, 45, 100
3, 273788, Note_off_c, 1, 38, 100
3, 273792, Note_on_c, 1, 38, 80
3, 273792, Note_on_c, 1, 45, 80
3, 273980, Note_off_c, 1, 38, 100
3, 273980, Note_off_c, 1, 45, 100
3, 273984, Note_on_c, 1, 45, 80
3, 273984, Note_on_c, 1, 38, 80
3, 274172, Note_off_c, 1, 45, 100
3, 274172, Note_off_c, 1, 38, 100
3, 274176, Note_on_c, 1, 38, 80
3, 274176, Note_on_c, 1, 45, 80
3, 274364, Note_off_c, 1, 38, 100
3, 274364, Note_off_c, 1, 45, 100
3, 274368, Note_on_c, 1, 45, 80
3, 274368, Note_on_c, 1, 38, 80
3, 274556, Note_off_c, 1, 45, 100
3, 274556, Note_off_c, 1, 38, 100
3, 274560, Note_on_c, 1, 38, 80
3, 274560, Note_on_c, 1, 45, 80
3, 274748, Note_off_c, 1, 38, 100
3, 274748, Note_off_c, 1, 45, 100
3, 274752, Note_on_c, 1, 45, 80
3, 274752, Note_on_c, 1, 38, 80
3, 274940, Note_off_c, 1, 45, 100
3, 274940, Note_off_c, 1, 38, 100
3, 274944, Note_on_c, 1, 42, 80
3, 274944, Note_on_c, 1, 50, 80
3, 275132, Note_off_c, 1, 42, 100
3, 275132, Note_off_c, 1, 50, 100
3, 275136, Note_on_c, 1, 50, 80
3, 275136, Note_on_c, 1, 42, 80
3, 275324, Note_off_c, 1, 50, 100
3, 275324, Note_off_c, 1, 42, 100
3, 275328, Note_on_c, 1, 42, 80
3, 275328, Note_on_c, 1, 50, 80
3, 275516, Note_off_c, 1, 42, 100
3, 275516, Note_off_c, 1, 50, 100
3, 275520, Note_on_c, 1, 50, 80
3, 275520, Note_on_c, 1, 42, 80
3, 275708, Note_off_c, 1, 50, 100
3, 275708, Note_off_c, 1, 42, 100
3, 275712, Note_on_c, 1, 42, 80
3, 275712, Note_on_c, 1, 50, 80
3, 275900, Note_off_c, 1, 42, 100
3, 275900, Note_off_c, 1, 50, 100
3, 275904, Note_on_c, 1, 50, 80
3, 275904, Note_on_c, 1, 42, 80
3, 276092, Note_off_c, 1, 50, 100
3, 276092, Note_off_c, 1, 42, 100
3, 276096, Note_on_c, 1, 42, 80
3, 276096, Note_on_c, 1, 50, 80
3, 276284, Note_off_c, 1, 42, 100
3, 276284, Note_off_c, 1, 50, 100
3, 276288, Note_on_c, 1, 50, 80
3, 276288, Note_on_c, 1, 42, 80
3, 276476, Note_off_c, 1, 50, 100
3, 276476, Note_off_c, 1, 42, 100
3, 276480, Control_c, 1, 64, 127
3, 276480, Note_on_c, 1, 43, 80
3, 276572, Note_off_c, 1, 43, 100
3, 276576, Note_on_c, 1, 50, 80
3, 276668, Note_off_c, 1, 50, 100
3, 276672, Note_on_c, 1, 43, 80
3, 276764, Note_off_c, 1, 43, 100
3, 276768, Note_on_c, 1, 50, 80
3, 276856, Control_c, 1, 64, 0
3, 276860, Note_off_c, 1, 50, 100
3, 276864, Control_c, 1, 64, 127
3, 276864, Note_on_c, 1, 43, 80
3, 276956, Note_off_c, 1, 43, 100
3, 276960, Note_on_c, 1, 50, 80
3, 277052, Note_off_c, 1, 50, 100
3, 277056, Note_on_c, 1, 43, 80
3, 277148, Note_off_c, 1, 43, 100
3, 277152, Note_on_c, 1, 50, 80
3, 277240, Control_c, 1, 64, 0
3, 277244, Note_off_c, 1, 50, 100
3, 277248, Control_c, 1, 64, 127
3, 277248, Note_on_c, 1, 45, 80
3, 277340, Note_off_c, 1, 45, 100
3, 277344, Note_on_c, 1, 50, 80
3, 277436, Note_off_c, 1, 50, 100
3, 277440, Note_on_c, 1, 45, 80
3, 277532, Note_off_c, 1, 45, 100
3, 277536, Note_on_c, 1, 50, 80
3, 277624, Control_c, 1, 64, 0
3, 277628, Note_off_c, 1, 50, 100
3, 277632, Control_c, 1, 64, 127
3, 277632, Note_on_c, 1, 45, 80
3, 277724, Note_off_c, 1, 45, 100
3, 277728, Note_on_c, 1, 50, 80
3, 277820, Note_off_c, 1, 50, 100
3, 277824, Note_on_c, 1, 45, 80
3, 277916, Note_off_c, 1, 45, 100
3, 277920, Note_on_c, 1, 50, 80
3, 278008, Control_c, 1, 64, 0
3, 278012, Note_off_c, 1, 50, 100
3, 278016, Control_c, 1, 64, 127
3, 278016, Note_on_c, 1, 46, 80
3, 278108, Note_off_c, 1, 46, 100
3, 278112, Note_on_c, 1, 50, 80
3, 278204, Note_off_c, 1, 50, 100
3, 278208, Note_on_c, 1, 46, 80
3, 278300, Note_off_c, 1, 46, 100
3, 278304, Note_on_c, 1, 50, 80
3, 278392, Control_c, 1, 64, 0
3, 278396, Note_off_c, 1, 50, 100
3, 278400, Control_c, 1, 64, 127
3, 278400, Note_on_c, 1, 46, 80
3, 278492, Note_off_c, 1, 46, 100
3, 278496, Note_on_c, 1, 50, 80
3, 278588, Note_off_c, 1, 50, 100
3, 278592, Note_on_c, 1, 46, 80
3, 278684, Note_off_c, 1, 46, 100
3, 278688, Note_on_c, 1, 50, 80
3, 278776, Control_c, 1, 64, 0
3, 278780, Note_off_c, 1, 50, 100
3, 278784, Control_c, 1, 64, 127
3, 278784, Note_on_c, 1, 42, 80
3, 278876, Note_off_c, 1, 42, 100
3, 278880, Note_on_c, 1, 50, 80
3, 278972, Note_off_c, 1, 50, 100
3, 278976, Note_on_c, 1, 42, 80
3, 279068, Note_off_c, 1, 42, 100
3, 279072, Note_on_c, 1, 50, 80
3, 279160, Control_c, 1, 64, 0
3, 279164, Note_off_c, 1, 50, 100
3, 279168, Control_c, 1, 64, 127
3, 279168, Note_on_c, 1, 42, 80
3, 279260, Note_off_c, 1, 42, 100
3, 279264, Note_on_c, 1, 50, 80
3, 279356, Note_off_c, 1, 50, 100
3, 279360, Note_on_c, 1, 42, 80
3, 279452, Note_off_c, 1, 42, 100
3, 279456, Note_on_c, 1, 50, 80
3, 279544, Control_c, 1, 64, 0
3, 279548, Note_off_c, 1, 50, 100
3, 279552, Control_c, 1, 64, 127
3, 279552, Note_on_c, 1, 43, 80
3, 279644, Note_off_c, 1, 43, 100
3, 279648, Note_on_c, 1, 50, 81
3, 279740, Note_off_c, 1, 50, 100
3, 279744, Note_on_c, 1, 43, 82
3, 279836, Note_off_c, 1, 43, 100
3, 279840, Note_on_c, 1, 50, 84
3, 279928, Control_c, 1, 64, 0
3, 279932, Note_off_c, 1, 50, 100
3, 279936, Control_c, 1, 64, 127
3, 279936, Note_on_c, 1, 43, 85
3, 280028, Note_off_c, 1, 43, 100
3, 280032, Note_on_c, 1, 50, 86
3, 280124, Note_off_c, 1, 50, 100
3, 280128, Note_on_c, 1, 43, 88
3, 280220, Note_off_c, 1, 43, 100
3, 280224, Note_on_c, 1, 50, 89
3, 280312, Control_c, 1, 64, 0
3, 280316, Note_off_c, 1, 50, 100
3, 280320, Control_c, 1, 64, 127
3, 280320, Note_on_c, 1, 45, 90
3, 280412, Note_off_c, 1, 45, 100
3, 280416, Note_on_c, 1, 50, 92
3, 280508, Note_off_c, 1, 50, 100
3, 280512, Note_on_c, 1, 45, 93
3, 280604, Note_off_c, 1, 45, 100
3, 280608, Note_on_c, 1, 50, 94
3, 280696, Control_c, 1, 64, 0
3, 280700, Note_off_c, 1, 50, 100
3, 280704, Control_c, 1, 64, 127
3, 280704, Note_on_c, 1, 45, 96
3, 280796, Note_off_c, 1, 45, 100
3, 280800, Note_on_c, 1, 50, 97
3, 280892, Note_off_c, 1, 50, 100
3, 280896, Note_on_c, 1, 45, 98
3, 280988, Note_off_c, 1, 45, 100
3, 280992, Note_on_c, 1, 50, 100
3, 281080, Control_c, 1, 64, 0
3, 281084, Note_off_c, 1, 50, 100
3, 281088, Control_c, 1, 64, 127
3, 281088, Control_c, 1, 64, 127
3, 281088, Note_on_c, 1, 46, 101
3, 281180, Note_off_c, 1, 46, 100
3, 281184, Note_on_c, 1, 50, 102
3, 281276, Note_off_c, 1, 50, 100
3, 281280, Note_on_c, 1, 46, 104
3, 281372, Note_off_c, 1, 46, 100
3, 281376, Note_on_c, 1, 50, 105
3, 281464, Control_c, 1, 64, 0
3, 281464, Control_c, 1, 64, 0
3, 281468, Note_off_c, 1, 50, 100
3, 281472, Control_c, 1, 64, 127
3, 281472, Control_c, 1, 64, 127
3, 281472, Note_on_c, 1, 46, 106
3, 281564, Note_off_c, 1, 46, 100
3, 281568, Note_on_c, 1, 55, 108
3, 281660, Note_off_c, 1, 55, 100
3, 281664, Note_on_c, 1, 46, 109
3, 281756, Note_off_c, 1, 46, 100
3, 281760, Note_on_c, 1, 55, 110
3, 281848, Control_c, 1, 64, 0
3, 281848, Control_c, 1, 64, 0
3, 281852, Note_off_c, 1, 55, 100
3, 281856, Control_c, 1, 64, 127
3, 281856, Control_c, 1, 64, 127
3, 281856, Note_on_c, 1, 47, 110
3, 281948, Note_off_c, 1, 47, 100
3, 281952, Note_on_c, 1, 55, 110
3, 282044, Note_off_c, 1, 55, 100
3, 282048, Note_on_c, 1, 47, 110
3, 282140, Note_off_c, 1, 47, 100
3, 282144, Note_on_c, 1, 55, 110
3, 282232, Control_c, 1, 64, 0
3, 282232, Control_c, 1, 64, 0
3, 282236, Note_off_c, 1, 55, 100
3, 282240, Control_c, 1, 64, 127
3, 282240, Control_c, 1, 64, 127
3, 282240, Note_on_c, 1, 47, 110
3, 282332, Note_off_c, 1, 47, 100
3, 282336, Note_on_c, 1, 55, 110
3, 282428, Note_off_c, 1, 55, 100
3, 282432, Note_on_c, 1, 47, 110
3, 282524, Note_off_c, 1, 47, 100
3, 282528, Note_on_c, 1, 55, 110
3, 282616, Control_c, 1, 64, 0
3, 282616, Control_c, 1, 64, 0
3, 282620, Note_off_c, 1, 55, 100
3, 282624, Control_c, 1, 64, 127
3, 282624, Note_on_c, 1, 48, 80
3, 282716, Note_off_c, 1, 48, 100
3, 282720, Note_on_c, 1, 55, 80
3, 282812, Note_off_c, 1, 55, 100
3, 282816, Note_on_c, 1, 48, 80
3, 282908, Note_off_c, 1, 48, 100
3, 282912, Note_on_c, 1, 55, 80
3, 283000, Control_c, 1, 64, 0
3, 283004, Note_off_c, 1, 55, 100
3, 283008, Control_c, 1, 64, 127
3, 283008, Note_on_c, 1, 48, 80
3, 283100, Note_off_c, 1, 48, 100
3, 283104, Note_on_c, 1, 55, 80
3, 283196, Note_off_c, 1, 55, 100
3, 283200, Note_on_c, 1, 48, 80
3, 283292, Note_off_c, 1, 48, 100
3, 283296, Note_on_c, 1, 55, 80
3, 283384, Control_c, 1, 64, 0
3, 283388, Note_off_c, 1, 55, 100
3, 283392, Control_c, 1, 64, 127
3, 283392, Note_on_c, 1, 50, 80
3, 283484, Note_off_c, 1, 50, 100
3, 283488, Note_on_c, 1, 55, 80
3, 283580, Note_off_c, 1, 55, 100
3, 283584, Note_on_c, 1, 50, 80
3, 283676, Note_off_c, 1, 50, 100
3, 283680, Note_on_c, 1, 55, 80
3, 283768, Control_c, 1, 64, 0
3, 283772, Note_off_c, 1, 55, 100
3, 283776, Control_c, 1, 64, 127
3, 283776, Note_on_c, 1, 50, 80
3, 283868, Note_off_c, 1, 50, 100
3, 283872, Note_on_c, 1, 55, 80
3, 283964, Note_off_c, 1, 55, 100
3, 283968, Note_on_c, 1, 50, 80
3, 284060, Note_off_c, 1, 50, 100
3, 284064, Note_on_c, 1, 55, 80
3, 284152, Control_c, 1, 64, 0
3, 284156, Note_off_c, 1, 55, 100
3, 284160, Control_c, 1, 64, 127
3, 284160, Note_on_c, 1, 51, 80
3, 284252, Note_off_c, 1, 51, 100
3, 284256, Note_on_c, 1, 55, 80
3, 284348, Note_off_c, 1, 55, 100
3, 284352, Note_on_c, 1, 51, 80
3, 284444, Note_off_c, 1, 51, 100
3, 284448, Note_on_c, 1, 55, 80
3, 284536, Control_c, 1, 64, 0
3, 284540, Note_off_c, 1, 55, 100
3, 284544, Control_c, 1, 64, 127
3, 284544, Note_on_c, 1, 51, 80
3, 284636, Note_off_c, 1, 51, 100
3, 284640, Note_on_c, 1, 55, 80
3, 284732, Note_off_c, 1, 55, 100
3, 284736, Note_on_c, 1, 51, 80
3, 284828, Note_off_c, 1, 51, 100
3, 284832, Note_on_c, 1, 55, 80
3, 284920, Control_c, 1, 64, 0
3, 284924, Note_off_c, 1, 55, 100
3, 284928, Control_c, 1, 64, 127
3, 284928, Note_on_c, 1, 47, 80
3, 285020, Note_off_c, 1, 47, 100
3, 285024, Note_on_c, 1, 55, 80
3, 285116, Note_off_c, 1, 55, 100
3, 285120, Note_on_c, 1, 47, 80
3, 285212, Note_off_c, 1, 47, 100
3, 285216, Note_on_c, 1, 55, 80
3, 285304, Control_c, 1, 64, 0
3, 285308, Note_off_c, 1, 55, 100
3, 285312, Control_c, 1, 64, 127
3, 285312, Note_on_c, 1, 47, 80
3, 285404, Note_off_c, 1, 47, 100
3, 285408, Note_on_c, 1, 55, 80
3, 285500, Note_off_c, 1, 55, 100
3, 285504, Note_on_c, 1, 47, 80
3, 285596, Note_off_c, 1, 47, 100
3, 285600, Note_on_c, 1, 55, 80
3, 285688, Control_c, 1, 64, 0
3, 285692, Note_off_c, 1, 55, 100
3, 285696, Control_c, 1, 64, 127
3, 285696, Note_on_c, 1, 48, 80
3, 285788, Note_off_c, 1, 48, 100
3, 285792, Note_on_c, 1, 55, 81
3, 285884, Note_off_c, 1, 55, 100
3, 285888, Note_on_c, 1, 48, 82
3, 285980, Note_off_c, 1, 48, 100
3, 285984, Note_on_c, 1, 55, 84
3, 286072, Control_c, 1, 64, 0
3, 286076, Note_off_c, 1, 55, 100
3, 286080, Control_c, 1, 64, 127
3, 286080, Note_on_c, 1, 48, 85
3, 286172, Note_off_c, 1, 48, 100
3, 286176, Note_on_c, 1, 55, 86
3, 286268, Note_off_c, 1, 55, 100
3, 286272, Note_on_c, 1, 48, 88
3, 286364, Note_off_c, 1, 48, 100
3, 286368, Note_on_c, 1, 55, 89
3, 286456, Control_c, 1, 64, 0
3, 286460, Note_off_c, 1, 55, 100
3, 286464, Control_c, 1, 64, 127
3, 286464, Note_on_c, 1, 50, 90
3, 286556, Note_off_c, 1, 50, 100
3, 286560, Note_on_c, 1, 55, 92
3, 286652, Note_off_c, 1, 55, 100
3, 286656, Note_on_c, 1, 50, 93
3, 286748, Note_off_c, 1, 50, 100
3, 286752, Note_on_c, 1, 55, 94
3, 286840, Control_c, 1, 64, 0
3, 286844, Note_off_c, 1, 55, 100
3, 286848, Control_c, 1, 64, 127
3, 286848, Note_on_c, 1, 50, 96
3, 286940, Note_off_c, 1, 50, 100
3, 286944, Note_on_c, 1, 55, 97
3, 287036, Note_off_c, 1, 55, 100
3, 287040, Note_on_c, 1, 50, 98
3, 287132, Note_off_c, 1, 50, 100
3, 287136, Note_on_c, 1, 55, 100
3, 287224, Control_c, 1, 64, 0
3, 287228, Note_off_c, 1, 55, 100
3, 287232, Control_c, 1, 64, 127
3, 287232, Note_on_c, 1, 51, 101
3, 287324, Note_off_c, 1, 51, 100
3, 287328, Note_on_c, 1, 55, 102
3, 287420, Note_off_c, 1, 55, 100
3, 287424, Note_on_c, 1, 51, 104
3, 287516, Note_off_c, 1, 51, 100
3, 287520, Note_on_c, 1, 55, 105
3, 287608, Control_c, 1, 64, 0
3, 287612, Note_off_c, 1, 55, 100
3, 287616, Control_c, 1, 64, 127
3, 287616, Note_on_c, 1, 51, 106
3, 287708, Note_off_c, 1, 51, 100
3, 287712, Note_on_c, 1, 60, 108
3, 287804, Note_off_c, 1, 60, 100
3, 287808, Note_on_c, 1, 51, 109
3, 287900, Note_off_c, 1, 51, 100
3, 287904, Note_on_c, 1, 60, 110
3, 287992, Control_c, 1, 64, 0
3, 287996, Note_off_c, 1, 60, 100
3, 288000, Control_c, 1, 64, 127
3, 288000, Note_on_c, 1, 52, 110
3, 288092, Note_off_c, 1, 52, 100
3, 288096, Note_on_c, 1, 60, 110
3, 288188, Note_off_c, 1, 60, 100
3, 288192, Note_on_c, 1, 52, 110
3, 288284, Note_off_c, 1, 52, 100
3, 288288, Note_on_c, 1, 60, 110
3, 288376, Control_c, 1, 64, 0
3, 288380, Note_off_c, 1, 60, 100
3, 288384, Control_c, 1, 64, 127
3, 288384, Note_on_c, 1, 52, 110
3, 288476, Note_off_c, 1, 52, 100
3, 288480, Note_on_c, 1, 60, 110
3, 288572, Note_off_c, 1, 60, 100
3, 288576, Note_on_c, 1, 52, 110
3, 288668, Note_off_c, 1, 52, 100
3, 288672, Note_on_c, 1, 60, 110
3, 288760, Control_c, 1, 64, 0
3, 288764, Note_off_c, 1, 60, 100
3, 288768, Control_c, 1, 64, 127
3, 288768, Note_on_c, 1, 53, 70
3, 288860, Note_off_c, 1, 53, 100
3, 288864, Note_on_c, 1, 56, 70
3, 288956, Note_off_c, 1, 56, 100
3, 288960, Note_on_c, 1, 60, 70
3, 289052, Note_off_c, 1, 60, 100
3, 289056, Note_on_c, 1, 65, 70
3, 289144, Control_c, 1, 64, 0
3, 289148, Note_off_c, 1, 65, 100
3, 289152, Control_c, 1, 64, 127
3, 289152, Note_on_c, 1, 53, 70
3, 289244, Note_off_c, 1, 53, 100
3, 289248, Note_on_c, 1, 56, 70
3, 289340, Note_off_c, 1, 56, 100
3, 289344, Note_on_c, 1, 60, 70
3, 289436, Note_off_c, 1, 60, 100
3, 289440, Note_on_c, 1, 65, 70
3, 289528, Control_c, 1, 64, 0
3, 289532, Note_off_c, 1, 65, 100
3, 289536, Control_c, 1, 64, 127
3, 289536, Note_on_c, 1, 53, 70
3, 289628, Note_off_c, 1, 53, 100
3, 289632, Note_on_c, 1, 58, 70
3, 289724, Note_off_c, 1, 58, 100
3, 289728, Note_on_c, 1, 61, 70
3, 289820, Note_off_c, 1, 61, 100
3, 289824, Note_on_c, 1, 65, 70
3, 289912, Control_c, 1, 64, 0
3, 289916, Note_off_c, 1, 65, 100
3, 289920, Control_c, 1, 64, 127
3, 289920, Note_on_c, 1, 53, 70
3, 290012, Note_off_c, 1, 53, 100
3, 290016, Note_on_c, 1, 58, 70
3, 290108, Note_off_c, 1, 58, 100
3, 290112, Note_on_c, 1, 61, 70
3, 290204, Note_off_c, 1, 61, 100
3, 290208, Note_on_c, 1, 65, 70
3, 290296, Control_c, 1, 64, 0
3, 290300, Note_off_c, 1, 65, 100
3, 290304, Control_c, 1, 64, 127
3, 290304, Note_on_c, 1, 53, 70
3, 290396, Note_off_c, 1, 53, 100
3, 290400, Note_on_c, 1, 54, 70
3, 290492, Note_off_c, 1, 54, 100
3, 290496, Note_on_c, 1, 58, 70
3, 290588, Note_off_c, 1, 58, 100
3, 290592, Note_on_c, 1, 61, 70
3, 290680, Control_c, 1, 64, 0
3, 290684, Note_off_c, 1, 61, 100
3, 290688, Control_c, 1, 64, 127
3, 290688, Note_on_c, 1, 53, 70
3, 290780, Note_off_c, 1, 53, 100
3, 290784, Note_on_c, 1, 54, 70
3, 290876, Note_off_c, 1, 54, 100
3, 290880, Note_on_c, 1, 58, 70
3, 290972, Note_off_c, 1, 58, 100
3, 290976, Note_on_c, 1, 61, 70
3, 291064, Control_c, 1, 64, 0
3, 291068, Note_off_c, 1, 61, 100
3, 291072, Control_c, 1, 64, 127
3, 291072, Note_on_c, 1, 51, 70
3, 291164, Note_off_c, 1, 51, 100
3, 291168, Note_on_c, 1, 54, 70
3, 291260, Note_off_c, 1, 54, 100
3, 291264, Note_on_c, 1, 59, 70
3, 291356, Note_off_c, 1, 59, 100
3, 291360, Note_on_c, 1, 63, 70
3, 291448, Control_c, 1, 64, 0
3, 291452, Note_off_c, 1, 63, 100
3, 291456, Control_c, 1, 64, 127
3, 291456, Note_on_c, 1, 51, 70
3, 291548, Note_off_c, 1, 51, 100
3, 291552, Note_on_c, 1, 54, 70
3, 291644, Note_off_c, 1, 54, 100
3, 291648, Note_on_c, 1, 59, 70
3, 291740, Note_off_c, 1, 59, 100
3, 291744, Note_on_c, 1, 63, 70
3, 291832, Control_c, 1, 64, 0
3, 291836, Note_off_c, 1, 63, 100
3, 291840, Control_c, 1, 64, 127
3, 291840, Note_on_c, 1, 51, 70
3, 291932, Note_off_c, 1, 51, 100
3, 291936, Note_on_c, 1, 53, 70
3, 292028, Note_off_c, 1, 53, 100
3, 292032, Note_on_c, 1, 57, 70
3, 292124, Note_off_c, 1, 57, 100
3, 292128, Note_on_c, 1, 60, 70
3, 292216, Control_c, 1, 64, 0
3, 292220, Note_off_c, 1, 60, 100
3, 292224, Control_c, 1, 64, 127
3, 292224, Note_on_c, 1, 51, 70
3, 292316, Note_off_c, 1, 51, 100
3, 292320, Note_on_c, 1, 53, 70
3, 292412, Note_off_c, 1, 53, 100
3, 292416, Note_on_c, 1, 57, 70
3, 292508, Note_off_c, 1, 57, 100
3, 292512, Note_on_c, 1, 60, 70
3, 292600, Control_c, 1, 64, 0
3, 292604, Note_off_c, 1, 60, 100
3, 292608, Control_c, 1, 64, 127
3, 292608, Note_on_c, 1, 49, 70
3, 292700, Note_off_c, 1, 49, 100
3, 292704, Note_on_c, 1, 53, 70
3, 292796, Note_off_c, 1, 53, 100
3, 292800, Note_on_c, 1, 58, 70
3, 292892, Note_off_c, 1, 58, 100
3, 292896, Note_on_c, 1, 61, 70
3, 292984, Control_c, 1, 64, 0
3, 292988, Note_off_c, 1, 61, 100
3, 292992, Control_c, 1, 64, 127
3, 292992, Note_on_c, 1, 49, 70
3, 293084, Note_off_c, 1, 49, 100
3, 293088, Note_on_c, 1, 53, 70
3, 293180, Note_off_c, 1, 53, 100
3, 293184, Note_on_c, 1, 58, 70
3, 293276, Note_off_c, 1, 58, 100
3, 293280, Note_on_c, 1, 61, 70
3, 293368, Control_c, 1, 64, 0
3, 293372, Note_off_c, 1, 61, 100
3, 293376, Control_c, 1, 64, 127
3, 293376, Note_on_c, 1, 49, 70
3, 293468, Note_off_c, 1, 49, 100
3, 293472, Note_on_c, 1, 51, 70
3, 293564, Note_off_c, 1, 51, 100
3, 293568, Note_on_c, 1, 55, 70
3, 293660, Note_off_c, 1, 55, 100
3, 293664, Note_on_c, 1, 58, 70
3, 293752, Control_c, 1, 64, 0
3, 293756, Note_off_c, 1, 58, 100
3, 293760, Control_c, 1, 64, 127
3, 293760, Note_on_c, 1, 49, 70
3, 293852, Note_off_c, 1, 49, 100
3, 293856, Note_on_c, 1, 51, 70
3, 293948, Note_off_c, 1, 51, 100
3, 293952, Note_on_c, 1, 55, 70
3, 294044, Note_off_c, 1, 55, 100
3, 294048, Note_on_c, 1, 58, 70
3, 294136, Control_c, 1, 64, 0
3, 294140, Note_off_c, 1, 58, 100
3, 294144, Control_c, 1, 64, 127
3, 294144, Note_on_c, 1, 48, 70
3, 294236, Note_off_c, 1, 48, 100
3, 294240, Note_on_c, 1, 51, 70
3, 294332, Note_off_c, 1, 51, 100
3, 294336, Note_on_c, 1, 56, 70
3, 294428, Note_off_c, 1, 56, 100
3, 294432, Note_on_c, 1, 60, 70
3, 294520, Control_c, 1, 64, 0
3, 294524, Note_off_c, 1, 60, 100
3, 294528, Control_c, 1, 64, 127
3, 294528, Note_on_c, 1, 48, 70
3, 294620, Note_off_c, 1, 48, 100
3, 294624, Note_on_c, 1, 51, 70
3, 294716, Note_off_c, 1, 51, 100
3, 294720, Note_on_c, 1, 56, 70
3, 294812, Note_off_c, 1, 56, 100
3, 294816, Note_on_c, 1, 60, 70
3, 294904, Control_c, 1, 64, 0
3, 294908, Note_off_c, 1, 60, 100
3, 294912, Control_c, 1, 64, 127
3, 294912, Note_on_c, 1, 48, 70
3, 295004, Note_off_c, 1, 48, 100
3, 295008, Note_on_c, 1, 49, 70
3, 295100, Note_off_c, 1, 49, 100
3, 295104, Note_on_c, 1, 53, 70
3, 295196, Note_off_c, 1, 53, 100
3, 295200, Note_on_c, 1, 56, 70
3, 295288, Control_c, 1, 64, 0
3, 295292, Note_off_c, 1, 56, 100
3, 295296, Control_c, 1, 64, 127
3, 295296, Note_on_c, 1, 48, 70
3, 295388, Note_off_c, 1, 48, 100
3, 295392, Note_on_c, 1, 49, 70
3, 295484, Note_off_c, 1, 49, 100
3, 295488, Note_on_c, 1, 53, 70
3, 295580, Note_off_c, 1, 53, 100
3, 295584, Note_on_c, 1, 56, 70
3, 295672, Control_c, 1, 64, 0
3, 295676, Note_off_c, 1, 56, 100
3, 295680, Control_c, 1, 64, 127
3, 295680, Note_on_c, 1, 46, 70
3, 295772, Note_off_c, 1, 46, 100
3, 295776, Note_on_c, 1, 49, 70
3, 295868, Note_off_c, 1, 49, 100
3, 295872, Note_on_c, 1, 54, 70
3, 295964, Note_off_c, 1, 54, 100
3, 295968, Note_on_c, 1, 58, 70
3, 296056, Control_c, 1, 64, 0
3, 296060, Note_off_c, 1, 58, 100
3, 296064, Control_c, 1, 64, 127
3, 296064, Note_on_c, 1, 46, 70
3, 296156, Note_off_c, 1, 46, 100
3, 296160, Note_on_c, 1, 49, 70
3, 296252, Note_off_c, 1, 49, 100
3, 296256, Note_on_c, 1, 54, 70
3, 296348, Note_off_c, 1, 54, 100
3, 296352, Note_on_c, 1, 58, 70
3, 296440, Control_c, 1, 64, 0
3, 296444, Note_off_c, 1, 58, 100
3, 296448, Control_c, 1, 64, 127
3, 296448, Note_on_c, 1, 46, 70
3, 296540, Note_off_c, 1, 46, 100
3, 296544, Note_on_c, 1, 48, 70
3, 296636, Note_off_c, 1, 48, 100
3, 296640, Note_on_c, 1, 52, 70
3, 296732, Note_off_c, 1, 52, 100
3, 296736, Note_on_c, 1, 55, 70
3, 296824, Control_c, 1, 64, 0
3, 296828, Note_off_c, 1, 55, 100
3, 296832, Control_c, 1, 64, 127
3, 296832, Note_on_c, 1, 46, 70
3, 296924, Note_off_c, 1, 46, 100
3, 296928, Note_on_c, 1, 48, 70
3, 297020, Note_off_c, 1, 48, 100
3, 297024, Note_on_c, 1, 52, 70
3, 297116, Note_off_c, 1, 52, 100
3, 297120, Note_on_c, 1, 55, 70
3, 297208, Control_c, 1, 64, 0
3, 297212, Note_off_c, 1, 55, 100
3, 297216, Control_c, 1, 64, 127
3, 297216, Note_on_c, 1, 44, 70
3, 297308, Note_off_c, 1, 44, 100
3, 297312, Note_on_c, 1, 48, 70
3, 297404, Note_off_c, 1, 48, 100
3, 297408, Note_on_c, 1, 53, 70
3, 297500, Note_off_c, 1, 53, 100
3, 297504, Note_on_c, 1, 56, 70
3, 297592, Control_c, 1, 64, 0
3, 297596, Note_off_c, 1, 56, 100
3, 297600, Control_c, 1, 64, 127
3, 297600, Note_on_c, 1, 44, 70
3, 297692, Note_off_c, 1, 44, 100
3, 297696, Note_on_c, 1, 48, 70
3, 297788, Note_off_c, 1, 48, 100
3, 297792, Note_on_c, 1, 53, 70
3, 297884, Note_off_c, 1, 53, 100
3, 297888, Note_on_c, 1, 56, 70
3, 297976, Control_c, 1, 64, 0
3, 297980, Note_off_c, 1, 56, 100
3, 297984, Control_c, 1, 64, 127
3, 297984, Note_on_c, 1, 43, 75
3, 298076, Note_off_c, 1, 43, 100
3, 298080, Note_on_c, 1, 46, 76
3, 298172, Note_off_c, 1, 46, 100
3, 298176, Note_on_c, 1, 52, 77
3, 298268, Note_off_c, 1, 52, 100
3, 298272, Note_on_c, 1, 55, 78
3, 298360, Control_c, 1, 64, 0
3, 298364, Note_off_c, 1, 55, 100
3, 298368, Control_c, 1, 64, 127
3, 298368, Note_on_c, 1, 43, 79
3, 298460, Note_off_c, 1, 43, 100
3, 298464, Note_on_c, 1, 46, 80
3, 298556, Note_off_c, 1, 46, 100
3, 298560, Note_on_c, 1, 52, 81
3, 298652, Note_off_c, 1, 52, 100
3, 298656, Note_on_c, 1, 55, 82
3, 298744, Control_c, 1, 64, 0
3, 298748, Note_off_c, 1, 55, 100
3, 298752, Control_c, 1, 64, 127
3, 298752, Note_on_c, 1, 41, 84
3, 298844, Note_off_c, 1, 41, 100
3, 298848, Note_on_c, 1, 44, 85
3, 298940, Note_off_c, 1, 44, 100
3, 298944, Note_on_c, 1, 48, 86
3, 299036, Note_off_c, 1, 48, 100
3, 299040, Note_on_c, 1, 53, 87
3, 299128, Control_c, 1, 64, 0
3, 299132, Note_off_c, 1, 53, 100
3, 299136, Control_c, 1, 64, 127
3, 299136, Note_on_c, 1, 41, 88
3, 299260, Note_off_c, 1, 41, 100
3, 299264, Note_on_c, 1, 44, 90
3, 299388, Note_off_c, 1, 44, 100
3, 299392, Note_on_c, 1, 53, 91
3, 299512, Control_c, 1, 64, 0
3, 299516, Note_off_c, 1, 53, 100
3, 299520, Control_c, 1, 64, 127
3, 299520, Note_on_c, 1, 40, 93
3, 299644, Note_off_c, 1, 40, 100
3, 299648, Note_on_c, 1, 43, 94
3, 299772, Note_off_c, 1, 43, 100
3, 299776, Note_on_c, 1, 52, 96
3, 299896, Control_c, 1, 64, 0
3, 299900, Note_off_c, 1, 52, 100
3, 299904, Control_c, 1, 64, 127
3, 299904, Note_on_c, 1, 39, 97
3, 300028, Note_off_c, 1, 39, 100
3, 300032, Note_on_c, 1, 43, 99
3, 300156, Note_off_c, 1, 43, 100
3, 300160, Note_on_c, 1, 51, 100
3, 300280, Control_c, 1, 64, 0
3, 300284, Note_off_c, 1, 51, 100
3, 300288, Control_c, 1, 64, 127
3, 300288, Note_on_c, 1, 38, 102
3, 300412, Note_off_c, 1, 38, 100
3, 300416, Note_on_c, 1, 41, 103
3, 300540, Note_off_c, 1, 41, 100
3, 300544, Note_on_c, 1, 50, 105
3, 300664, Control_c, 1, 64, 0
3, 300668, Note_off_c, 1, 50, 100
3, 300672, Control_c, 1, 64, 127
3, 300672, Note_on_c, 1, 37, 106
3, 300796, Note_off_c, 1, 37, 100
3, 300800, Note_on_c, 1, 41, 108
3, 300924, Note_off_c, 1, 41, 100
3, 300928, Note_on_c, 1, 49, 109
3, 301048, Control_c, 1, 64, 0
3, 301052, Note_off_c, 1, 49, 100
3, 301056, Note_on_c, 1, 48, 110
3, 301056, Note_on_c, 1, 36, 110
3, 301180, Note_off_c, 1, 48, 100
3, 301180, Note_off_c, 1, 36, 100
3, 301184, Note_on_c, 1, 43, 110
3, 301308, Note_off_c, 1, 43, 100
3, 301312, Note_on_c, 1, 40, 110
3, 301436, Note_off_c, 1, 40, 100
3, 301440, Note_on_c, 1, 43, 110
3, 301564, Note_off_c, 1, 43, 100
3, 301568, Note_on_c, 1, 48, 110
3, 301692, Note_off_c, 1, 48, 100
3, 301696, Note_on_c, 1, 52, 110
3, 301820, Note_off_c, 1, 52, 100
3, 301824, Note_on_c, 1, 50, 110
3, 301948, Note_off_c, 1, 50, 100
3, 301952, Note_on_c, 1, 47, 110
3, 302076, Note_off_c, 1, 47, 100
3, 302080, Note_on_c, 1, 43, 110
3, 302204, Note_off_c, 1, 43, 100
3, 302208, Note_on_c, 1, 47, 110
3, 302332, Note_off_c, 1, 47, 100
3, 302336, Note_on_c, 1, 50, 110
3, 302460, Note_off_c, 1, 50, 100
3, 302464, Note_on_c, 1, 53, 110
3, 302588, Note_off_c, 1, 53, 100
3, 302592, Note_on_c, 1, 52, 110
3, 302716, Note_off_c, 1, 52, 100
3, 302720, Note_on_c, 1, 55, 110
3, 302844, Note_off_c, 1, 55, 100
3, 302848, Note_on_c, 1, 60, 110
3, 302972, Note_off_c, 1, 60, 100
3, 302976, Note_on_c, 1, 55, 110
3, 303100, Note_off_c, 1, 55, 100
3, 303104, Note_on_c, 1, 52, 110
3, 303228, Note_off_c, 1, 52, 100
3, 303232, Note_on_c, 1, 48, 110
3, 303356, Note_off_c, 1, 48, 100
3, 303360, Note_on_c, 1, 53, 110
3, 303484, Note_off_c, 1, 53, 100
3, 303488, Note_on_c, 1, 56, 110
3, 303612, Note_off_c, 1, 56, 100
3, 303616, Note_on_c, 1, 60, 110
3, 303740, Note_off_c, 1, 60, 100
3, 303744, Note_on_c, 1, 56, 110
3, 303868, Note_off_c, 1, 56, 100
3, 303872, Note_on_c, 1, 53, 110
3, 303996, Note_off_c, 1, 53, 100
3, 304000, Note_on_c, 1, 48, 110
3, 304124, Note_off_c, 1, 48, 100
3, 304128, Note_on_c, 1, 55, 110
3, 304256, Note_on_c, 1, 58, 110
3, 304384, Note_on_c, 1, 60, 110
3, 304508, Note_off_c, 1, 58, 100
3, 304512, Note_on_c, 1, 58, 110
3, 304636, Note_off_c, 1, 55, 100
3, 304640, Note_on_c, 1, 55, 110
3, 304768, Note_on_c, 1, 48, 110
3, 307196, Note_off_c, 1, 48, 100
3, 307196, Note_off_c, 1, 55, 100
3, 307196, Note_off_c, 1, 58, 100
3, 307196, Note_off_c, 1, 60, 100
3, 307200, Note_on_c, 1, 53, 110
3, 307200, Note_on_c, 1, 41, 110
3, 307324, Note_off_c, 1, 53, 100
3, 307324, Note_off_c, 1, 41, 100
3, 307328, Note_on_c, 1, 48, 110
3, 307452, Note_off_c, 1, 48, 100
3, 307456, Note_on_c, 1, 45, 110
3, 307580, Note_off_c, 1, 45, 100
3, 307584, Note_on_c, 1, 48, 110
3, 307708, Note_off_c, 1, 48, 100
3, 307712, Note_on_c, 1, 53, 110
3, 307836, Note_off_c, 1, 53, 100
3, 307840, Note_on_c, 1, 57, 110
3, 307964, Note_off_c, 1, 57, 100
3, 307968, Note_on_c, 1, 55, 110
3, 308092, Note_off_c, 1, 55, 100
3, 308096, Note_on_c, 1, 52, 110
3, 308220, Note_off_c, 1, 52, 100
3, 308224, Note_on_c, 1, 48, 110
3, 308348, Note_off_c, 1, 48, 100
3, 308352, Note_on_c, 1, 52, 110
3, 308476, Note_off_c, 1, 52, 100
3, 308480, Note_on_c, 1, 55, 110
3, 308604, Note_off_c, 1, 55, 100
3, 308608, Note_on_c, 1, 58, 110
3, 308732, Note_off_c, 1, 58, 100
3, 308736, Note_on_c, 1, 57, 110
3, 308860, Note_off_c, 1, 57, 100
3, 308864, Note_on_c, 1, 60, 110
3, 308988, Note_off_c, 1, 60, 100
3, 308992, Note_on_c, 1, 65, 110
3, 309116, Note_off_c, 1, 65, 100
3, 309120, Note_on_c, 1, 60, 110
3, 309244, Note_off_c, 1, 60, 100
3, 309248, Note_on_c, 1, 57, 110
3, 309372, Note_off_c, 1, 57, 100
3, 309376, Note_on_c, 1, 53, 110
3, 309500, Note_off_c, 1, 53, 100
3, 309504, Note_on_c, 1, 58, 110
3, 309628, Note_off_c, 1, 58, 100
3, 309632, Note_on_c, 1, 61, 110
3, 309756, Note_off_c, 1, 61, 100
3, 309760, Note_on_c, 1, 65, 110
3, 309884, Note_off_c, 1, 65, 100
3, 309888, Note_on_c, 1, 61, 110
3, 310012, Note_off_c, 1, 61, 100
3, 310016, Note_on_c, 1, 58, 110
3, 310140, Note_off_c, 1, 58, 100
3, 310144, Note_on_c, 1, 53, 110
3, 310268, Note_off_c, 1, 53, 100
3, 310272, Note_on_c, 1, 60, 110
3, 310400, Note_on_c, 1, 63, 110
3, 310528, Note_on_c, 1, 65, 110
3, 310652, Note_off_c, 1, 63, 100
3, 310656, Note_on_c, 1, 63, 110
3, 310780, Note_off_c, 1, 60, 100
3, 310784, Note_on_c, 1, 60, 110
3, 310912, Note_on_c, 1, 53, 110
3, 313340, Note_off_c, 1, 53, 100
3, 313340, Note_off_c, 1, 60, 100
3, 313340, Note_off_c, 1, 63, 100
3, 313340, Note_off_c, 1, 65, 100
3, 313344, Note_on_c, 1, 46, 110
3, 313344, Note_on_c, 1, 34, 110
3, 313468, Note_off_c, 1, 46, 100
3, 313468, Note_off_c, 1, 34, 100
3, 313472, Note_on_c, 1, 41, 110
3, 313596, Note_off_c, 1, 41, 100
3, 313600, Note_on_c, 1, 38, 110
3, 313724, Note_off_c, 1, 38, 100
3, 313728, Note_on_c, 1, 41, 110
3, 313852, Note_off_c, 1, 41, 100
3, 313856, Note_on_c, 1, 46, 110
3, 313980, Note_off_c, 1, 46, 100
3, 313984, Note_on_c, 1, 50, 110
3, 314108, Note_off_c, 1, 50, 100
3, 314112, Note_on_c, 1, 48, 110
3, 314236, Note_off_c, 1, 48, 100
3, 314240, Note_on_c, 1, 45, 110
3, 314364, Note_off_c, 1, 45, 100
3, 314368, Note_on_c, 1, 41, 110
3, 314492, Note_off_c, 1, 41, 100
3, 314496, Note_on_c, 1, 45, 110
3, 314620, Note_off_c, 1, 45, 100
3, 314624, Note_on_c, 1, 48, 110
3, 314748, Note_off_c, 1, 48, 100
3, 314752, Note_on_c, 1, 51, 110
3, 314876, Note_off_c, 1, 51, 100
3, 314880, Note_on_c, 1, 50, 110
3, 315004, Note_off_c, 1, 50, 100
3, 315008, Note_on_c, 1, 53, 110
3, 315132, Note_off_c, 1, 53, 100
3, 315136, Note_on_c, 1, 58, 110
3, 315260, Note_off_c, 1, 58, 100
3, 315264, Note_on_c, 1, 53, 110
3, 315388, Note_off_c, 1, 53, 100
3, 315392, Note_on_c, 1, 50, 110
3, 315516, Note_off_c, 1, 50, 100
3, 315520, Note_on_c, 1, 46, 110
3, 315644, Note_off_c, 1, 46, 100
3, 315648, Note_on_c, 1, 51, 110
3, 315772, Note_off_c, 1, 51, 100
3, 315776, Note_on_c, 1, 54, 110
3, 315900, Note_off_c, 1, 54, 100
3, 315904, Note_on_c, 1, 58, 110
3, 316028, Note_off_c, 1, 58, 100
3, 316032, Note_on_c, 1, 54, 110
3, 316156, Note_off_c, 1, 54, 100
3, 316160, Note_on_c, 1, 51, 110
3, 316284, Note_off_c, 1, 51, 100
3, 316288, Note_on_c, 1, 46, 110
3, 316412, Note_off_c, 1, 46, 100
3, 316416, Note_on_c, 1, 53, 110
3, 316544, Note_on_c, 1, 56, 110
3, 316672, Note_on_c, 1, 58, 110
3, 316796, Note_off_c, 1, 56, 100
3, 316800, Note_on_c, 1, 56, 110
3, 316924, Note_off_c, 1, 53, 100
3, 316928, Note_on_c, 1, 53, 110
3, 317056, Note_on_c, 1, 46, 110
3, 319484, Note_off_c, 1, 46, 100
3, 319484, Note_off_c, 1, 53, 100
3, 319484, Note_off_c, 1, 56, 100
3, 319484, Note_off_c, 1, 58, 100
3, 319488, Note_on_c, 1, 51, 110
3, 319616, Note_on_c, 1, 54, 110
3, 319744, Note_on_c, 1, 58, 110
3, 319868, Note_off_c, 1, 54, 100
3, 319872, Note_on_c, 1, 54, 110
3, 319996, Note_off_c, 1, 51, 100
3, 320000, Note_on_c, 1, 51, 110
3, 320128, Note_on_c, 1, 46, 110
3, 322556, Note_off_c, 1, 46, 100
3, 322556, Note_off_c, 1, 51, 100
3, 322556, Note_off_c, 1, 54, 100
3, 322556, Note_off_c, 1, 58, 100
3, 322560, Note_on_c, 1, 49, 110
3, 322688, Note_on_c, 1, 54, 110
3, 322816, Note_on_c, 1, 58, 110
3, 322940, Note_off_c, 1, 54, 100
3, 322944, Note_on_c, 1, 54, 110
3, 323068, Note_off_c, 1, 49, 100
3, 323072, Note_on_c, 1, 49, 110
3, 323200, Note_on_c, 1, 46, 110
3, 325628, Note_off_c, 1, 46, 100
3, 325628, Note_off_c, 1, 49, 100
3, 325628, Note_off_c, 1, 54, 100
3, 325628, Note_off_c, 1, 58, 100
3, 325632, Note_on_c, 1, 50, 110
3, 325760, Note_on_c, 1, 54, 110
3, 325888, Note_on_c, 1, 59, 110
3, 326012, Note_off_c, 1, 54, 100
3, 326016, Note_on_c, 1, 54, 110
3, 326140, Note_off_c, 1, 50, 100
3, 326144, Note_on_c, 1, 50, 110
3, 326272, Note_on_c, 1, 47, 110
3, 328700, Note_off_c, 1, 47, 100
3, 328700, Note_off_c, 1, 50, 100
3, 328700, Note_off_c, 1, 54, 100
3, 328700, Note_off_c, 1, 59, 100
3, 328704, Note_on_c, 1, 50, 110
3, 328832, Note_on_c, 1, 55, 110
3, 328960, Note_on_c, 1, 59, 110
3, 329084, Note_off_c, 1, 55, 100
3, 329088, Note_on_c, 1, 55, 110
3, 329212, Note_off_c, 1, 50, 100
3, 329216, Note_on_c, 1, 50, 110
3, 329344, Note_on_c, 1, 47, 110
3, 331772, Note_off_c, 1, 47, 100
3, 331772, Note_off_c, 1, 50, 100
3, 331772, Note_off_c, 1, 55, 100
3, 331772, Note_off_c, 1, 59, 100
3, 331776, Note_on_c, 1, 51, 110
3, 331904, Note_on_c, 1, 55, 110
3, 332032, Note_on_c, 1, 60, 110
3, 332156, Note_off_c, 1, 55, 100
3, 332160, Note_on_c, 1, 55, 110
3, 332284, Note_off_c, 1, 51, 100
3, 332288, Note_on_c, 1, 51, 110
3, 332416, Note_on_c, 1, 48, 110
3, 334844, Note_off_c, 1, 48, 100
3, 334844, Note_off_c, 1, 51, 100
3, 334844, Note_off_c, 1, 55, 100
3, 334844, Note_off_c, 1, 60, 100
3, 334848, Note_on_c, 1, 56, 110
3, 334976, Note_on_c, 1, 61, 110
3, 335104, Note_on_c, 1, 65, 110
3, 335228, Note_off_c, 1, 61, 100
3, 335232, Note_on_c, 1, 61, 110
3, 335356, Note_off_c, 1, 56, 100
3, 335360, Note_on_c, 1, 56, 110
3, 335488, Note_on_c, 1, 53, 110
3, 336380, Note_off_c, 1, 65, 100
3, 336380, Note_off_c, 1, 61, 100
3, 336380, Note_off_c, 1, 56, 100
3, 336380, Note_off_c, 1, 53, 100
3, 336384, Note_on_c, 1, 60, 110
3, 336512, Note_on_c, 1, 63, 110
3, 336640, Note_on_c, 1, 66, 110
3, 336764, Note_off_c, 1, 63, 100
3, 336768, Note_on_c, 1, 63, 110
3, 336892, Note_off_c, 1, 60, 100
3, 336896, Note_on_c, 1, 60, 110
3, 337024, Note_on_c, 1, 54, 110
3, 337916, Note_off_c, 1, 66, 100
3, 337916, Note_off_c, 1, 63, 100
3, 337916, Note_off_c, 1, 60, 100
3, 337916, Note_off_c, 1, 54, 100
3, 337920, Note_on_c, 1, 59, 110
3, 338048, Note_on_c, 1, 62, 110
3, 338176, Note_on_c, 1, 67, 110
3, 338300, Note_off_c, 1, 62, 100
3, 338304, Note_on_c, 1, 62, 110
3, 338428, Note_off_c, 1, 59, 100
3, 338432, Note_on_c, 1, 59, 110
3, 338560, Note_on_c, 1, 55, 110
3, 339068, Note_off_c, 1, 67, 100
3, 339068, Note_off_c, 1, 62, 100
3, 339068, Note_off_c, 1, 59, 100
3, 339072, Note_on_c, 1, 62, 80
3, 339452, Note_off_c, 1, 62, 100
3, 339836, Note_off_c, 1, 55, 100
3, 339840, Note_on_c, 1, 55, 80
3, 340224, Note_on_c, 1, 60, 80
3, 340604, Note_off_c, 1, 60, 100
3, 340608, Note_on_c, 1, 66, 80
3, 340988, Note_off_c, 1, 55, 100
3, 340988, Note_off_c, 1, 66, 100
3, 340992, Note_on_c, 1, 47, 110
3, 341120, Note_on_c, 1, 50, 110
3, 341248, Note_on_c, 1, 55, 110
3, 341372, Note_off_c, 1, 50, 100
3, 341376, Note_on_c, 1, 50, 110
3, 341500, Note_off_c, 1, 47, 100
3, 341504, Note_on_c, 1, 47, 110
3, 341632, Note_on_c, 1, 43, 110
3, 342140, Note_off_c, 1, 50, 100
3, 342140, Note_off_c, 1, 47, 100
3, 342144, Note_on_c, 1, 50, 80
3, 342524, Note_off_c, 1, 50, 100
3, 342908, Note_off_c, 1, 43, 100
3, 342912, Note_on_c, 1, 43, 80
3, 343296, Note_on_c, 1, 48, 80
3, 343676, Note_off_c, 1, 48, 100
3, 343680, Note_on_c, 1, 54, 80
3, 344060, Note_off_c, 1, 54, 100
3, 344252, Note_off_c, 1, 43, 100
3, 344252, Note_off_c, 1, 55, 100
3, 344448, Note_on_c, 1, 48, 80
3, 344828, Note_off_c, 1, 48, 100
3, 344832, Note_on_c, 1, 43, 79
3, 345212, Note_off_c, 1, 43, 100
3, 345216, Note_on_c, 1, 36, 78
3, 345596, Note_off_c, 1, 36, 100
3, 345600, Note_on_c, 1, 31, 76
3, 345980, Note_off_c, 1, 31, 100
3, 345984, Note_on_c, 1, 36, 75
3, 346364, Note_off_c, 1, 36, 100
3, 346368, Note_on_c, 1, 31, 73
3, 346748, Note_off_c, 1, 31, 100
3, 346752, Note_on_c, 1, 36, 72
3, 347132, Note_off_c, 1, 36, 100
3, 347136, Note_on_c, 1, 31, 70
3, 347228, Note_off_c, 1, 31, 100
3, 347232, Note_on_c, 1, 36, 70
3, 347324, Note_off_c, 1, 36, 100
3, 347328, Note_on_c, 1, 35, 70
3, 347420, Note_off_c, 1, 35, 100
3, 347424, Note_on_c, 1, 33, 70
3, 347516, Note_off_c, 1, 33, 100
3, 347520, Note_on_c, 1, 31, 70
3, 347612, Note_off_c, 1, 31, 100
3, 347616, Note_on_c, 1, 36, 70
3, 347708, Note_off_c, 1, 36, 100
3, 347712, Note_on_c, 1, 35, 70
3, 347804, Note_off_c, 1, 35, 100
3, 347808, Note_on_c, 1, 33, 70
3, 347900, Note_off_c, 1, 33, 100
3, 347904, Note_on_c, 1, 31, 70
3, 347996, Note_off_c, 1, 31, 100
3, 348000, Note_on_c, 1, 36, 70
3, 348092, Note_off_c, 1, 36, 100
3, 348096, Note_on_c, 1, 35, 70
3, 348188, Note_off_c, 1, 35, 100
3, 348192, Note_on_c, 1, 33, 70
3, 348284, Note_off_c, 1, 33, 100
3, 348288, Note_on_c, 1, 31, 70
3, 348380, Note_off_c, 1, 31, 100
3, 348384, Note_on_c, 1, 36, 70
3, 348476, Note_off_c, 1, 36, 100
3, 348480, Note_on_c, 1, 35, 70
3, 348572, Note_off_c, 1, 35, 100
3, 348576, Note_on_c, 1, 33, 70
3, 348668, Note_off_c, 1, 33, 100
3, 348672, Note_on_c, 1, 31, 70
3, 350300, Note_off_c, 1, 31, 100
3, 350304, Note_on_c, 1, 36, 70
3, 350396, Note_off_c, 1, 36, 100
3, 350400, Note_on_c, 1, 35, 70
3, 350492, Note_off_c, 1, 35, 100
3, 350496, Note_on_c, 1, 33, 70
3, 350588, Note_off_c, 1, 33, 100
3, 350592, Note_on_c, 1, 31, 70
3, 350684, Note_off_c, 1, 31, 100
3, 350688, Note_on_c, 1, 36, 70
3, 350780, Note_off_c, 1, 36, 100
3, 350784, Note_on_c, 1, 35, 70
3, 350876, Note_off_c, 1, 35, 100
3, 350880, Note_on_c, 1, 33, 70
3, 350972, Note_off_c, 1, 33, 100
3, 350976, Note_on_c, 1, 31, 70
3, 351068, Note_off_c, 1, 31, 100
3, 351072, Note_on_c, 1, 36, 70
3, 351164, Note_off_c, 1, 36, 100
3, 351168, Note_on_c, 1, 35, 70
3, 351260, Note_off_c, 1, 35, 100
3, 351264, Note_on_c, 1, 33, 70
3, 351356, Note_off_c, 1, 33, 100
3, 351360, Note_on_c, 1, 31, 70
3, 351452, Note_off_c, 1, 31, 100
3, 351456, Note_on_c, 1, 36, 70
3, 351548, Note_off_c, 1, 36, 100
3, 351552, Note_on_c, 1, 35, 70
3, 351644, Note_off_c, 1, 35, 100
3, 351648, Note_on_c, 1, 33, 70
3, 351740, Note_off_c, 1, 33, 100
3, 351744, Note_on_c, 1, 31, 70
3, 353372, Note_off_c, 1, 31, 100
3, 353376, Note_on_c, 1, 36, 70
3, 353468, Note_off_c, 1, 36, 100
3, 353472, Note_on_c, 1, 35, 70
3, 353564, Note_off_c, 1, 35, 100
3, 353568, Note_on_c, 1, 33, 71
3, 353660, Note_off_c, 1, 33, 100
3, 353664, Note_on_c, 1, 31, 71
3, 353756, Note_off_c, 1, 31, 100
3, 353760, Note_on_c, 1, 36, 72
3, 353852, Note_off_c, 1, 36, 100
3, 353856, Note_on_c, 1, 35, 72
3, 353948, Note_off_c, 1, 35, 100
3, 353952, Note_on_c, 1, 33, 73
3, 354044, Note_off_c, 1, 33, 100
3, 354048, Note_on_c, 1, 31, 73
3, 354140, Note_off_c, 1, 31, 100
3, 354144, Note_on_c, 1, 36, 73
3, 354236, Note_off_c, 1, 36, 100
3, 354240, Note_on_c, 1, 35, 74
3, 354332, Note_off_c, 1, 35, 100
3, 354336, Note_on_c, 1, 33, 74
3, 354428, Note_off_c, 1, 33, 100
3, 354432, Note_on_c, 1, 31, 75
3, 354524, Note_off_c, 1, 31, 100
3, 354528, Note_on_c, 1, 36, 75
3, 354620, Note_off_c, 1, 36, 100
3, 354624, Note_on_c, 1, 35, 76
3, 354716, Note_off_c, 1, 35, 100
3, 354720, Note_on_c, 1, 33, 76
3, 354812, Note_off_c, 1, 33, 100
3, 354816, Note_on_c, 1, 31, 76
3, 354908, Note_off_c, 1, 31, 100
3, 354912, Note_on_c, 1, 36, 77
3, 355004, Note_off_c, 1, 36, 100
3, 355008, Note_on_c, 1, 35, 77
3, 355100, Note_off_c, 1, 35, 100
3, 355104, Note_on_c, 1, 33, 78
3, 355196, Note_off_c, 1, 33, 100
3, 355200, Note_on_c, 1, 31, 78
3, 355292, Note_off_c, 1, 31, 100
3, 355296, Note_on_c, 1, 36, 79
3, 355388, Note_off_c, 1, 36, 100
3, 355392, Note_on_c, 1, 35, 79
3, 355484, Note_off_c, 1, 35, 100
3, 355488, Note_on_c, 1, 33, 79
3, 355580, Note_off_c, 1, 33, 100
3, 355584, Note_on_c, 1, 31, 80
3, 355676, Note_off_c, 1, 31, 100
3, 355680, Note_on_c, 1, 36, 80
3, 355772, Note_off_c, 1, 36, 100
3, 355776, Note_on_c, 1, 35, 81
3, 355868, Note_off_c, 1, 35, 100
3, 355872, Note_on_c, 1, 33, 81
3, 355964, Note_off_c, 1, 33, 100
3, 355968, Note_on_c, 1, 31, 82
3, 356060, Note_off_c, 1, 31, 100
3, 356064, Note_on_c, 1, 36, 82
3, 356156, Note_off_c, 1, 36, 100
3, 356160, Note_on_c, 1, 35, 82
3, 356252, Note_off_c, 1, 35, 100
3, 356256, Note_on_c, 1, 33, 83
3, 356348, Note_off_c, 1, 33, 100
3, 356352, Note_on_c, 1, 31, 83
3, 356444, Note_off_c, 1, 31, 100
3, 356448, Note_on_c, 1, 36, 84
3, 356540, Note_off_c, 1, 36, 100
3, 356544, Note_on_c, 1, 35, 84
3, 356636, Note_off_c, 1, 35, 100
3, 356640, Note_on_c, 1, 33, 85
3, 356732, Note_off_c, 1, 33, 100
3, 356736, Note_on_c, 1, 31, 85
3, 356828, Note_off_c, 1, 31, 100
3, 356832, Note_on_c, 1, 36, 85
3, 356924, Note_off_c, 1, 36, 100
3, 356928, Note_on_c, 1, 35, 86
3, 357020, Note_off_c, 1, 35, 100
3, 357024, Note_on_c, 1, 33, 86
3, 357116, Note_off_c, 1, 33, 100
3, 357120, Note_on_c, 1, 31, 87
3, 357212, Note_off_c, 1, 31, 100
3, 357216, Note_on_c, 1, 36, 87
3, 357308, Note_off_c, 1, 36, 100
3, 357312, Note_on_c, 1, 35, 88
3, 357404, Note_off_c, 1, 35, 100
3, 357408, Note_on_c, 1, 33, 88
3, 357500, Note_off_c, 1, 33, 100
3, 357504, Note_on_c, 1, 31, 88
3, 357596, Note_off_c, 1, 31, 100
3, 357600, Note_on_c, 1, 36, 89
3, 357692, Note_off_c, 1, 36, 100
3, 357696, Note_on_c, 1, 35, 89
3, 357788, Note_off_c, 1, 35, 100
3, 357792, Note_on_c, 1, 33, 90
3, 357884, Note_off_c, 1, 33, 100
3, 357888, Note_on_c, 1, 31, 90
3, 357980, Note_off_c, 1, 31, 100
3, 357984, Note_on_c, 1, 36, 91
3, 358076, Note_off_c, 1, 36, 100
3, 358080, Note_on_c, 1, 35, 91
3, 358172, Note_off_c, 1, 35, 100
3, 358176, Note_on_c, 1, 33, 92
3, 358268, Note_off_c, 1, 33, 100
3, 358272, Note_on_c, 1, 31, 92
3, 358364, Note_off_c, 1, 31, 100
3, 358368, Note_on_c, 1, 36, 92
3, 358460, Note_off_c, 1, 36, 100
3, 358464, Note_on_c, 1, 35, 93
3, 358556, Note_off_c, 1, 35, 100
3, 358560, Note_on_c, 1, 33, 93
3, 358652, Note_off_c, 1, 33, 100
3, 358656, Note_on_c, 1, 31, 94
3, 358748, Note_off_c, 1, 31, 100
3, 358752, Note_on_c, 1, 36, 94
3, 358844, Note_off_c, 1, 36, 100
3, 358848, Note_on_c, 1, 35, 95
3, 358940, Note_off_c, 1, 35, 100
3, 358944, Note_on_c, 1, 33, 95
3, 359036, Note_off_c, 1, 33, 100
3, 359040, Note_on_c, 1, 31, 95
3, 359132, Note_off_c, 1, 31, 100
3, 359136, Note_on_c, 1, 36, 96
3, 359228, Note_off_c, 1, 36, 100
3, 359232, Note_on_c, 1, 35, 96
3, 359324, Note_off_c, 1, 35, 100
3, 359328, Note_on_c, 1, 33, 97
3, 359420, Note_off_c, 1, 33, 100
3, 359424, Note_on_c, 1, 31, 97
3, 359516, Note_off_c, 1, 31, 100
3, 359520, Note_on_c, 1, 36, 98
3, 359612, Note_off_c, 1, 36, 100
3, 359616, Note_on_c, 1, 35, 98
3, 359708, Note_off_c, 1, 35, 100
3, 359712, Note_on_c, 1, 33, 98
3, 359804, Note_off_c, 1, 33, 100
3, 359808, Note_on_c, 1, 31, 99
3, 359900, Note_off_c, 1, 31, 100
3, 359904, Note_on_c, 1, 36, 99
3, 359996, Note_off_c, 1, 36, 100
3, 360000, Note_on_c, 1, 35, 100
3, 360092, Note_off_c, 1, 35, 100
3, 360096, Note_on_c, 1, 33, 100
3, 360188, Note_off_c, 1, 33, 100
3, 360192, Note_on_c, 1, 31, 101
3, 360284, Note_off_c, 1, 31, 100
3, 360288, Note_on_c, 1, 36, 101
3, 360380, Note_off_c, 1, 36, 100
3, 360384, Note_on_c, 1, 35, 101
3, 360476, Note_off_c, 1, 35, 100
3, 360480, Note_on_c, 1, 33, 102
3, 360572, Note_off_c, 1, 33, 100
3, 360576, Note_on_c, 1, 31, 102
3, 360668, Note_off_c, 1, 31, 100
3, 360672, Note_on_c, 1, 36, 103
3, 360764, Note_off_c, 1, 36, 100
3, 360768, Note_on_c, 1, 35, 103
3, 360860, Note_off_c, 1, 35, 100
3, 360864, Note_on_c, 1, 33, 104
3, 360956, Note_off_c, 1, 33, 100
3, 360960, Note_on_c, 1, 31, 104
3, 361052, Note_off_c, 1, 31, 100
3, 361056, Note_on_c, 1, 36, 104
3, 361148, Note_off_c, 1, 36, 100
3, 361152, Note_on_c, 1, 35, 105
3, 361244, Note_off_c, 1, 35, 100
3, 361248, Note_on_c, 1, 33, 105
3, 361340, Note_off_c, 1, 33, 100
3, 361344, Note_on_c, 1, 31, 106
3, 361436, Note_off_c, 1, 31, 100
3, 361440, Note_on_c, 1, 36, 106
3, 361532, Note_off_c, 1, 36, 100
3, 361536, Note_on_c, 1, 35, 107
3, 361628, Note_off_c, 1, 35, 100
3, 361632, Note_on_c, 1, 33, 107
3, 361724, Note_off_c, 1, 33, 100
3, 361728, Note_on_c, 1, 31, 107
3, 361820, Note_off_c, 1, 31, 100
3, 361824, Note_on_c, 1, 36, 108
3, 361916, Note_off_c, 1, 36, 100
3, 361920, Note_on_c, 1, 35, 108
3, 362012, Note_off_c, 1, 35, 100
3, 362016, Note_on_c, 1, 33, 109
3, 362108, Note_off_c, 1, 33, 100
3, 362112, Note_on_c, 1, 31, 109
3, 362204, Note_off_c, 1, 31, 100
3, 362208, Note_on_c, 1, 36, 110
3, 362300, Note_off_c, 1, 36, 100
3, 362304, Note_on_c, 1, 35, 110
3, 362396, Note_off_c, 1, 35, 100
3, 362400, Note_on_c, 1, 33, 110
3, 362492, Note_off_c, 1, 33, 100
3, 362496, Note_on_c, 1, 31, 110
3, 362588, Note_off_c, 1, 31, 100
3, 362592, Note_on_c, 1, 37, 110
3, 362684, Note_off_c, 1, 37, 100
3, 362688, Note_on_c, 1, 35, 110
3, 362780, Note_off_c, 1, 35, 100
3, 362784, Note_on_c, 1, 33, 110
3, 362876, Note_off_c, 1, 33, 100
3, 362880, Note_on_c, 1, 31, 110
3, 362972, Note_off_c, 1, 31, 100
3, 362976, Note_on_c, 1, 37, 110
3, 363068, Note_off_c, 1, 37, 100
3, 363072, Note_on_c, 1, 35, 110
3, 363164, Note_off_c, 1, 35, 100
3, 363168, Note_on_c, 1, 33, 110
3, 363260, Note_off_c, 1, 33, 100
3, 363264, Note_on_c, 1, 31, 110
3, 363356, Note_off_c, 1, 31, 100
3, 363360, Note_on_c, 1, 37, 110
3, 363452, Note_off_c, 1, 37, 100
3, 363456, Note_on_c, 1, 35, 110
3, 363548, Note_off_c, 1, 35, 100
3, 363552, Note_on_c, 1, 33, 110
3, 363644, Note_off_c, 1, 33, 100
3, 363648, Note_on_c, 1, 31, 110
3, 363740, Note_off_c, 1, 31, 100
3, 363744, Note_on_c, 1, 37, 110
3, 363836, Note_off_c, 1, 37, 100
3, 363840, Note_on_c, 1, 35, 110
3, 363932, Note_off_c, 1, 35, 100
3, 363936, Note_on_c, 1, 33, 110
3, 364028, Note_off_c, 1, 33, 100
3, 364032, Note_on_c, 1, 31, 110
3, 364124, Note_off_c, 1, 31, 100
3, 364128, Note_on_c, 1, 38, 110
3, 364220, Note_off_c, 1, 38, 100
3, 364224, Note_on_c, 1, 35, 110
3, 364316, Note_off_c, 1, 35, 100
3, 364320, Note_on_c, 1, 33, 110
3, 364412, Note_off_c, 1, 33, 100
3, 364416, Note_on_c, 1, 31, 110
3, 364508, Note_off_c, 1, 31, 100
3, 364512, Note_on_c, 1, 38, 110
3, 364604, Note_off_c, 1, 38, 100
3, 364608, Note_on_c, 1, 35, 110
3, 364700, Note_off_c, 1, 35, 100
3, 364704, Note_on_c, 1, 33, 110
3, 364796, Note_off_c, 1, 33, 100
3, 364800, Note_on_c, 1, 31, 110
3, 364892, Note_off_c, 1, 31, 100
3, 364896, Note_on_c, 1, 38, 110
3, 364988, Note_off_c, 1, 38, 100
3, 364992, Note_on_c, 1, 35, 110
3, 365084, Note_off_c, 1, 35, 100
3, 365088, Note_on_c, 1, 33, 110
3, 365180, Note_off_c, 1, 33, 100
3, 365184, Note_on_c, 1, 31, 110
3, 365276, Note_off_c, 1, 31, 100
3, 365280, Note_on_c, 1, 38, 110
3, 365372, Note_off_c, 1, 38, 100
3, 365376, Note_on_c, 1, 35, 110
3, 365468, Note_off_c, 1, 35, 100
3, 365472, Note_on_c, 1, 33, 110
3, 365564, Note_off_c, 1, 33, 100
3, 365568, Note_on_c, 1, 31, 120
3, 365660, Note_off_c, 1, 31, 100
3, 365664, Note_on_c, 1, 33, 110
3, 365756, Note_off_c, 1, 33, 100
3, 365760, Note_on_c, 1, 35, 110
3, 365852, Note_off_c, 1, 35, 100
3, 365856, Note_on_c, 1, 36, 110
3, 365948, Note_off_c, 1, 36, 100
3, 365952, Note_on_c, 1, 38, 110
3, 366044, Note_off_c, 1, 38, 100
3, 366048, Note_on_c, 1, 36, 110
3, 366140, Note_off_c, 1, 36, 100
3, 366144, Note_on_c, 1, 35, 110
3, 366236, Note_off_c, 1, 35, 100
3, 366240, Note_on_c, 1, 33, 110
3, 366332, Note_off_c, 1, 33, 100
3, 366336, Note_on_c, 1, 31, 121
3, 366428, Note_off_c, 1, 31, 100
3, 366432, Note_on_c, 1, 33, 110
3, 366524, Note_off_c, 1, 33, 100
3, 366528, Note_on_c, 1, 35, 110
3, 366620, Note_off_c, 1, 35, 100
3, 366624, Note_on_c, 1, 36, 110
3, 366716, Note_off_c, 1, 36, 100
3, 366720, Note_on_c, 1, 38, 110
3, 366812, Note_off_c, 1, 38, 100
3, 366816, Note_on_c, 1, 36, 110
3, 366908, Note_off_c, 1, 36, 100
3, 366912, Note_on_c, 1, 35, 110
3, 367004, Note_off_c, 1, 35, 100
3, 367008, Note_on_c, 1, 33, 110
3, 367100, Note_off_c, 1, 33, 100
3, 367104, Note_on_c, 1, 31, 120
3, 367292, Note_off_c, 1, 31, 100
3, 367296, Note_on_c, 1, 33, 120
3, 367388, Note_off_c, 1, 33, 100
3, 367392, Note_on_c, 1, 35, 120
3, 367484, Note_off_c, 1, 35, 100
3, 367488, Note_on_c, 1, 36, 120
3, 367580, Note_off_c, 1, 36, 100
3, 367584, Note_on_c, 1, 38, 120
3, 367676, Note_off_c, 1, 38, 100
3, 367680, Note_on_c, 1, 40, 120
3, 367772, Note_off_c, 1, 40, 100
3, 367776, Note_on_c, 1, 41, 120
3, 367868, Note_off_c, 1, 41, 100
3, 367872, Note_on_c, 1, 43, 120
3, 367964, Note_off_c, 1, 43, 100
3, 367968, Note_on_c, 1, 45, 120
3, 368060, Note_off_c, 1, 45, 100
3, 368064, Note_on_c, 1, 47, 120
3, 368156, Note_off_c, 1, 47, 100
3, 368160, Note_on_c, 1, 48, 120
3, 368252, Note_off_c, 1, 48, 100
3, 368256, Note_on_c, 1, 50, 120
3, 368348, Note_off_c, 1, 50, 100
3, 368352, Note_on_c, 1, 52, 120
3, 368444, Note_off_c, 1, 52, 100
3, 368448, Note_on_c, 1, 53, 120
3, 368540, Note_off_c, 1, 53, 100
3, 368544, Note_on_c, 1, 55, 120
3, 368636, Note_off_c, 1, 55, 100
3, 368640, Note_on_c, 1, 48, 120
3, 368828, Note_off_c, 1, 48, 100
3, 368832, Note_on_c, 1, 43, 80
3, 368832, Note_on_c, 1, 36, 80
3, 369020, Note_off_c, 1, 43, 100
3, 369020, Note_off_c, 1, 36, 100
3, 369024, Note_on_c, 1, 36, 80
3, 369024, Note_on_c, 1, 43, 80
3, 369212, Note_off_c, 1, 36, 100
3, 369212, Note_off_c, 1, 43, 100
3, 369216, Note_on_c, 1, 43, 80
3, 369216, Note_on_c, 1, 36, 80
3, 369404, Note_off_c, 1, 43, 100
3, 369404, Note_off_c, 1, 36, 100
3, 369408, Note_on_c, 1, 36, 80
3, 369408, Note_on_c, 1, 43, 80
3, 369596, Note_off_c, 1, 36, 100
3, 369596, Note_off_c, 1, 43, 100
3, 369600, Note_on_c, 1, 43, 80
3, 369600, Note_on_c, 1, 36, 80
3, 369788, Note_off_c, 1, 43, 100
3, 369788, Note_off_c, 1, 36, 100
3, 369792, Note_on_c, 1, 36, 80
3, 369792, Note_on_c, 1, 43, 80
3, 369980, Note_off_c, 1, 36, 100
3, 369980, Note_off_c, 1, 43, 100
3, 369984, Note_on_c, 1, 43, 80
3, 369984, Note_on_c, 1, 36, 80
3, 370172, Note_off_c, 1, 43, 100
3, 370172, Note_off_c, 1, 36, 100
3, 370176, Note_on_c, 1, 36, 80
3, 370176, Note_on_c, 1, 43, 80
3, 370364, Note_off_c, 1, 36, 100
3, 370364, Note_off_c, 1, 43, 100
3, 370368, Note_on_c, 1, 43, 80
3, 370368, Note_on_c, 1, 36, 80
3, 370556, Note_off_c, 1, 43, 100
3, 370556, Note_off_c, 1, 36, 100
3, 370560, Note_on_c, 1, 36, 80
3, 370560, Note_on_c, 1, 43, 80
3, 370748, Note_off_c, 1, 36, 100
3, 370748, Note_off_c, 1, 43, 100
3, 370752, Note_on_c, 1, 43, 80
3, 370752, Note_on_c, 1, 36, 80
3, 370940, Note_off_c, 1, 43, 100
3, 370940, Note_off_c, 1, 36, 100
3, 370944, Note_on_c, 1, 36, 80
3, 370944, Note_on_c, 1, 43, 80
3, 371132, Note_off_c, 1, 36, 100
3, 371132, Note_off_c, 1, 43, 100
3, 371136, Note_on_c, 1, 43, 80
3, 371136, Note_on_c, 1, 36, 80
3, 371324, Note_off_c, 1, 43, 100
3, 371324, Note_off_c, 1, 36, 100
3, 371328, Note_on_c, 1, 36, 80
3, 371328, Note_on_c, 1, 45, 80
3, 371516, Note_off_c, 1, 36, 100
3, 371516, Note_off_c, 1, 45, 100
3, 371520, Note_on_c, 1, 36, 80
3, 371520, Note_on_c, 1, 45, 80
3, 371708, Note_off_c, 1, 36, 100
3, 371708, Note_off_c, 1, 45, 100
3, 371712, Note_on_c, 1, 43, 80
3, 371712, Note_on_c, 1, 35, 80
3, 371900, Note_off_c, 1, 43, 100
3, 371900, Note_off_c, 1, 35, 100
3, 371904, Note_on_c, 1, 43, 80
3, 371904, Note_on_c, 1, 35, 80
3, 372092, Note_off_c, 1, 43, 100
3, 372092, Note_off_c, 1, 35, 100
3, 372096, Note_on_c, 1, 35, 80
3, 372096, Note_on_c, 1, 43, 80
3, 372284, Note_off_c, 1, 35, 100
3, 372284, Note_off_c, 1, 43, 100
3, 372288, Note_on_c, 1, 43, 80
3, 372288, Note_on_c, 1, 35, 80
3, 372476, Note_off_c, 1, 43, 100
3, 372476, Note_off_c, 1, 35, 100
3, 372480, Note_on_c, 1, 43, 80
3, 372480, Note_on_c, 1, 35, 80
3, 372668, Note_off_c, 1, 43, 100
3, 372668, Note_off_c, 1, 35, 100
3, 372672, Note_on_c, 1, 43, 80
3, 372672, Note_on_c, 1, 35, 80
3, 372860, Note_off_c, 1, 43, 100
3, 372860, Note_off_c, 1, 35, 100
3, 372864, Note_on_c, 1, 35, 80
3, 372864, Note_on_c, 1, 43, 80
3, 373052, Note_off_c, 1, 35, 100
3, 373052, Note_off_c, 1, 43, 100
3, 373056, Note_on_c, 1, 43, 80
3, 373056, Note_on_c, 1, 35, 80
3, 373244, Note_off_c, 1, 43, 100
3, 373244, Note_off_c, 1, 35, 100
3, 373248, Note_on_c, 1, 43, 80
3, 373248, Note_on_c, 1, 35, 80
3, 373436, Note_off_c, 1, 43, 100
3, 373436, Note_off_c, 1, 35, 100
3, 373440, Note_on_c, 1, 43, 80
3, 373440, Note_on_c, 1, 35, 80
3, 373628, Note_off_c, 1, 43, 100
3, 373628, Note_off_c, 1, 35, 100
3, 373632, Note_on_c, 1, 35, 80
3, 373632, Note_on_c, 1, 43, 80
3, 373820, Note_off_c, 1, 35, 100
3, 373820, Note_off_c, 1, 43, 100
3, 373824, Note_on_c, 1, 43, 80
3, 373824, Note_on_c, 1, 35, 80
3, 374012, Note_off_c, 1, 43, 100
3, 374012, Note_off_c, 1, 35, 100
3, 374016, Note_on_c, 1, 43, 80
3, 374016, Note_on_c, 1, 35, 80
3, 374204, Note_off_c, 1, 43, 100
3, 374204, Note_off_c, 1, 35, 100
3, 374208, Note_on_c, 1, 43, 80
3, 374208, Note_on_c, 1, 35, 80
3, 374396, Note_off_c, 1, 43, 100
3, 374396, Note_off_c, 1, 35, 100
3, 374400, Note_on_c, 1, 35, 80
3, 374400, Note_on_c, 1, 43, 80
3, 374588, Note_off_c, 1, 35, 100
3, 374588, Note_off_c, 1, 43, 100
3, 374592, Note_on_c, 1, 43, 80
3, 374592, Note_on_c, 1, 35, 80
3, 374780, Note_off_c, 1, 43, 100
3, 374780, Note_off_c, 1, 35, 100
3, 374784, Note_on_c, 1, 41, 80
3, 374784, Note_on_c, 1, 34, 80
3, 374972, Note_off_c, 1, 41, 100
3, 374972, Note_off_c, 1, 34, 100
3, 374976, Note_on_c, 1, 41, 80
3, 374976, Note_on_c, 1, 34, 80
3, 375164, Note_off_c, 1, 41, 100
3, 375164, Note_off_c, 1, 34, 100
3, 375168, Note_on_c, 1, 41, 80
3, 375168, Note_on_c, 1, 34, 80
3, 375356, Note_off_c, 1, 41, 100
3, 375356, Note_off_c, 1, 34, 100
3, 375360, Note_on_c, 1, 41, 80
3, 375360, Note_on_c, 1, 34, 80
3, 375548, Note_off_c, 1, 41, 100
3, 375548, Note_off_c, 1, 34, 100
3, 375552, Note_on_c, 1, 41, 80
3, 375552, Note_on_c, 1, 34, 80
3, 375740, Note_off_c, 1, 41, 100
3, 375740, Note_off_c, 1, 34, 100
3, 375744, Note_on_c, 1, 41, 80
3, 375744, Note_on_c, 1, 34, 80
3, 375932, Note_off_c, 1, 41, 100
3, 375932, Note_off_c, 1, 34, 100
3, 375936, Note_on_c, 1, 41, 80
3, 375936, Note_on_c, 1, 34, 80
3, 376124, Note_off_c, 1, 41, 100
3, 376124, Note_off_c, 1, 34, 100
3, 376128, Note_on_c, 1, 41, 80
3, 376128, Note_on_c, 1, 34, 80
3, 376316, Note_off_c, 1, 41, 100
3, 376316, Note_off_c, 1, 34, 100
3, 376320, Note_on_c, 1, 41, 80
3, 376320, Note_on_c, 1, 34, 80
3, 376508, Note_off_c, 1, 41, 100
3, 376508, Note_off_c, 1, 34, 100
3, 376512, Note_on_c, 1, 41, 80
3, 376512, Note_on_c, 1, 34, 80
3, 376700, Note_off_c, 1, 41, 100
3, 376700, Note_off_c, 1, 34, 100
3, 376704, Note_on_c, 1, 41, 80
3, 376704, Note_on_c, 1, 34, 80
3, 376892, Note_off_c, 1, 41, 100
3, 376892, Note_off_c, 1, 34, 100
3, 376896, Note_on_c, 1, 41, 80
3, 376896, Note_on_c, 1, 34, 80
3, 377084, Note_off_c, 1, 41, 100
3, 377084, Note_off_c, 1, 34, 100
3, 377088, Note_on_c, 1, 41, 80
3, 377088, Note_on_c, 1, 34, 80
3, 377276, Note_off_c, 1, 41, 100
3, 377276, Note_off_c, 1, 34, 100
3, 377280, Note_on_c, 1, 41, 80
3, 377280, Note_on_c, 1, 34, 80
3, 377468, Note_off_c, 1, 41, 100
3, 377468, Note_off_c, 1, 34, 100
3, 377472, Note_on_c, 1, 34, 80
3, 377472, Note_on_c, 1, 43, 80
3, 377660, Note_off_c, 1, 34, 100
3, 377660, Note_off_c, 1, 43, 100
3, 377664, Note_on_c, 1, 34, 80
3, 377664, Note_on_c, 1, 43, 80
3, 377852, Note_off_c, 1, 34, 100
3, 377852, Note_off_c, 1, 43, 100
3, 377856, Note_on_c, 1, 41, 80
3, 377856, Note_on_c, 1, 33, 80
3, 378044, Note_off_c, 1, 41, 100
3, 378044, Note_off_c, 1, 33, 100
3, 378048, Note_on_c, 1, 41, 80
3, 378048, Note_on_c, 1, 33, 80
3, 378236, Note_off_c, 1, 41, 100
3, 378236, Note_off_c, 1, 33, 100
3, 378240, Note_on_c, 1, 41, 80
3, 378240, Note_on_c, 1, 33, 80
3, 378428, Note_off_c, 1, 41, 100
3, 378428, Note_off_c, 1, 33, 100
3, 378432, Note_on_c, 1, 33, 80
3, 378432, Note_on_c, 1, 41, 80
3, 378620, Note_off_c, 1, 33, 100
3, 378620, Note_off_c, 1, 41, 100
3, 378624, Note_on_c, 1, 41, 80
3, 378624, Note_on_c, 1, 33, 80
3, 378812, Note_off_c, 1, 41, 100
3, 378812, Note_off_c, 1, 33, 100
3, 378816, Note_on_c, 1, 41, 80
3, 378816, Note_on_c, 1, 33, 80
3, 379004, Note_off_c, 1, 41, 100
3, 379004, Note_off_c, 1, 33, 100
3, 379008, Note_on_c, 1, 41, 80
3, 379008, Note_on_c, 1, 33, 80
3, 379196, Note_off_c, 1, 41, 100
3, 379196, Note_off_c, 1, 33, 100
3, 379200, Note_on_c, 1, 33, 80
3, 379200, Note_on_c, 1, 41, 80
3, 379388, Note_off_c, 1, 33, 100
3, 379388, Note_off_c, 1, 41, 100
3, 379392, Note_on_c, 1, 41, 80
3, 379392, Note_on_c, 1, 31, 80
3, 379580, Note_off_c, 1, 41, 100
3, 379580, Note_off_c, 1, 31, 100
3, 379584, Note_on_c, 1, 41, 80
3, 379584, Note_on_c, 1, 31, 80
3, 379772, Note_off_c, 1, 41, 100
3, 379772, Note_off_c, 1, 31, 100
3, 379776, Note_on_c, 1, 41, 80
3, 379776, Note_on_c, 1, 31, 80
3, 379964, Note_off_c, 1, 41, 100
3, 379964, Note_off_c, 1, 31, 100
3, 379968, Note_on_c, 1, 41, 80
3, 379968, Note_on_c, 1, 31, 80
3, 380156, Note_off_c, 1, 41, 100
3, 380156, Note_off_c, 1, 31, 100
3, 380160, Note_on_c, 1, 41, 80
3, 380160, Note_on_c, 1, 31, 80
3, 380348, Note_off_c, 1, 41, 100
3, 380348, Note_off_c, 1, 31, 100
3, 380352, Note_on_c, 1, 41, 80
3, 380352, Note_on_c, 1, 31, 80
3, 380540, Note_off_c, 1, 41, 100
3, 380540, Note_off_c, 1, 31, 100
3, 380544, Note_on_c, 1, 41, 80
3, 380544, Note_on_c, 1, 32, 80
3, 380732, Note_off_c, 1, 41, 100
3, 380732, Note_off_c, 1, 32, 100
3, 380736, Note_on_c, 1, 41, 80
3, 380736, Note_on_c, 1, 32, 80
3, 380924, Note_off_c, 1, 41, 100
3, 380924, Note_off_c, 1, 32, 100
3, 380928, Note_on_c, 1, 41, 80
3, 380928, Note_on_c, 1, 31, 80
3, 381116, Note_off_c, 1, 41, 100
3, 381116, Note_off_c, 1, 31, 100
3, 381120, Note_on_c, 1, 41, 81
3, 381120, Note_on_c, 1, 31, 81
3, 381308, Note_off_c, 1, 41, 100
3, 381308, Note_off_c, 1, 31, 100
3, 381312, Note_on_c, 1, 41, 83
3, 381312, Note_on_c, 1, 31, 83
3, 381500, Note_off_c, 1, 41, 100
3, 381500, Note_off_c, 1, 31, 100
3, 381504, Note_on_c, 1, 41, 85
3, 381504, Note_on_c, 1, 31, 85
3, 381692, Note_off_c, 1, 41, 100
3, 381692, Note_off_c, 1, 31, 100
3, 381696, Note_on_c, 1, 41, 87
3, 381696, Note_on_c, 1, 31, 87
3, 381884, Note_off_c, 1, 41, 100
3, 381884, Note_off_c, 1, 31, 100
3, 381888, Note_on_c, 1, 41, 89
3, 381888, Note_on_c, 1, 31, 89
3, 382076, Note_off_c, 1, 41, 100
3, 382076, Note_off_c, 1, 31, 100
3, 382080, Note_on_c, 1, 41, 91
3, 382080, Note_on_c, 1, 32, 91
3, 382268, Note_off_c, 1, 41, 100
3, 382268, Note_off_c, 1, 32, 100
3, 382272, Note_on_c, 1, 41, 93
3, 382272, Note_on_c, 1, 32, 93
3, 382460, Note_off_c, 1, 41, 100
3, 382460, Note_off_c, 1, 32, 100
3, 382464, Note_on_c, 1, 41, 95
3, 382464, Note_on_c, 1, 31, 95
3, 382652, Note_off_c, 1, 41, 100
3, 382652, Note_off_c, 1, 31, 100
3, 382656, Note_on_c, 1, 41, 97
3, 382656, Note_on_c, 1, 31, 97
3, 382844, Note_off_c, 1, 41, 100
3, 382844, Note_off_c, 1, 31, 100
3, 382848, Note_on_c, 1, 41, 99
3, 382848, Note_on_c, 1, 31, 99
3, 383036, Note_off_c, 1, 41, 100
3, 383036, Note_off_c, 1, 31, 100
3, 383040, Note_on_c, 1, 41, 101
3, 383040, Note_on_c, 1, 31, 101
3, 383228, Note_off_c, 1, 41, 100
3, 383228, Note_off_c, 1, 31, 100
3, 383232, Note_on_c, 1, 41, 103
3, 383232, Note_on_c, 1, 31, 103
3, 383420, Note_off_c, 1, 41, 100
3, 383420, Note_off_c, 1, 31, 100
3, 383424, Note_on_c, 1, 41, 105
3, 383424, Note_on_c, 1, 31, 105
3, 383612, Note_off_c, 1, 41, 100
3, 383612, Note_off_c, 1, 31, 100
3, 383616, Note_on_c, 1, 41, 107
3, 383616, Note_on_c, 1, 32, 107
3, 383804, Note_off_c, 1, 41, 100
3, 383804, Note_off_c, 1, 32, 100
3, 383808, Note_on_c, 1, 41, 109
3, 383808, Note_on_c, 1, 32, 109
3, 383996, Note_off_c, 1, 41, 100
3, 383996, Note_off_c, 1, 32, 100
3, 384000, Note_on_c, 1, 41, 110
3, 384000, Note_on_c, 1, 31, 110
3, 384380, Note_off_c, 1, 41, 100
3, 384380, Note_off_c, 1, 31, 100
3, 384384, Note_on_c, 1, 55, 110
3, 384384, Note_on_c, 1, 43, 110
3, 385340, Note_off_c, 1, 55, 100
3, 385340, Note_off_c, 1, 43, 100
3, 385344, Note_on_c, 1, 57, 110
3, 385436, Note_off_c, 1, 57, 100
3, 385440, Note_on_c, 1, 59, 110
3, 385532, Note_off_c, 1, 59, 100
3, 385536, Note_on_c, 1, 60, 110
3, 385724, Note_off_c, 1, 60, 100
3, 385920, Note_on_c, 1, 55, 100
3, 385920, Note_on_c, 1, 43, 100
3, 386108, Note_off_c, 1, 55, 100
3, 386108, Note_off_c, 1, 43, 100
3, 386304, Note_on_c, 1, 51, 94
3, 386304, Note_on_c, 1, 39, 94
3, 386492, Note_off_c, 1, 51, 100
3, 386492, Note_off_c, 1, 39, 100
3, 386688, Note_on_c, 1, 48, 87
3, 386688, Note_on_c, 1, 36, 87
3, 386876, Note_off_c, 1, 48, 100
3, 386876, Note_off_c, 1, 36, 100
3, 387072, Note_on_c, 1, 44, 81
3, 387072, Note_on_c, 1, 32, 81
3, 388604, Note_off_c, 1, 44, 100
3, 388604, Note_off_c, 1, 32, 100
3, 388608, Note_on_c, 1, 61, 80
3, 388796, Note_off_c, 1, 61, 100
3, 388992, Note_on_c, 1, 56, 80
3, 389180, Note_off_c, 1, 56, 100
3, 389376, Note_on_c, 1, 53, 80
3, 389564, Note_off_c, 1, 53, 100
3, 389760, Note_on_c, 1, 49, 80
3, 389948, Note_off_c, 1, 49, 100
3, 390144, Note_on_c, 1, 46, 80
3, 390144, Note_on_c, 1, 34, 80
3, 391676, Note_off_c, 1, 46, 100
3, 391676, Note_off_c, 1, 34, 100
3, 391680, Note_on_c, 1, 63, 70
3, 391868, Note_off_c, 1, 63, 100
3, 392064, Note_on_c, 1, 58, 70
3, 392252, Note_off_c, 1, 58, 100
3, 392448, Note_on_c, 1, 55, 70
3, 392636, Note_off_c, 1, 55, 100
3, 392832, Note_on_c, 1, 51, 70
3, 393020, Note_off_c, 1, 51, 100
3, 393216, Note_on_c, 1, 53, 70
3, 393404, Note_off_c, 1, 53, 100
3, 393600, Note_on_c, 1, 56, 70
3, 393788, Note_off_c, 1, 56, 100
3, 393984, Note_on_c, 1, 57, 70
3, 394172, Note_off_c, 1, 57, 100
3, 394368, Note_on_c, 1, 54, 70
3, 394556, Note_off_c, 1, 54, 100
3, 394752, Note_on_c, 1, 55, 70
3, 394940, Note_off_c, 1, 55, 100
3, 395136, Note_on_c, 1, 54, 70
3, 395324, Note_off_c, 1, 54, 100
3, 395520, Note_on_c, 1, 55, 70
3, 395708, Note_off_c, 1, 55, 100
3, 395904, Note_on_c, 1, 43, 70
3, 396092, Note_off_c, 1, 43, 100
3, 396288, Control_c, 1, 64, 127
3, 396288, Note_on_c, 1, 48, 100
3, 396288, Note_on_c, 1, 36, 100
3, 396476, Note_off_c, 1, 48, 100
3, 396476, Note_off_c, 1, 36, 100
3, 396480, Note_on_c, 1, 48, 80
3, 396572, Note_off_c, 1, 48, 100
3, 396576, Note_on_c, 1, 55, 80
3, 396664, Control_c, 1, 64, 0
3, 396668, Note_off_c, 1, 55, 100
3, 396672, Control_c, 1, 64, 127
3, 396672, Note_on_c, 1, 48, 80
3, 396764, Note_off_c, 1, 48, 100
3, 396768, Note_on_c, 1, 55, 80
3, 396860, Note_off_c, 1, 55, 100
3, 396864, Note_on_c, 1, 48, 80
3, 396956, Note_off_c, 1, 48, 100
3, 396960, Note_on_c, 1, 55, 80
3, 397048, Control_c, 1, 64, 0
3, 397052, Note_off_c, 1, 55, 100
3, 397056, Control_c, 1, 64, 127
3, 397056, Note_on_c, 1, 48, 80
3, 397148, Note_off_c, 1, 48, 100
3, 397152, Note_on_c, 1, 55, 80
3, 397244, Note_off_c, 1, 55, 100
3, 397248, Note_on_c, 1, 48, 80
3, 397340, Note_off_c, 1, 48, 100
3, 397344, Note_on_c, 1, 55, 80
3, 397432, Control_c, 1, 64, 0
3, 397436, Note_off_c, 1, 55, 100
3, 397440, Control_c, 1, 64, 127
3, 397440, Note_on_c, 1, 48, 80
3, 397532, Note_off_c, 1, 48, 100
3, 397536, Note_on_c, 1, 55, 80
3, 397628, Note_off_c, 1, 55, 100
3, 397632, Note_on_c, 1, 48, 80
3, 397724, Note_off_c, 1, 48, 100
3, 397728, Note_on_c, 1, 55, 80
3, 397816, Control_c, 1, 64, 0
3, 397820, Note_off_c, 1, 55, 100
3, 397824, Control_c, 1, 64, 127
3, 397824, Note_on_c, 1, 48, 80
3, 397916, Note_off_c, 1, 48, 100
3, 397920, Note_on_c, 1, 55, 80
3, 398012, Note_off_c, 1, 55, 100
3, 398016, Note_on_c, 1, 48, 80
3, 398108, Note_off_c, 1, 48, 100
3, 398112, Note_on_c, 1, 55, 80
3, 398200, Control_c, 1, 64, 0
3, 398204, Note_off_c, 1, 55, 100
3, 398208, Control_c, 1, 64, 127
3, 398208, Note_on_c, 1, 48, 80
3, 398300, Note_off_c, 1, 48, 100
3, 398304, Note_on_c, 1, 55, 80
3, 398396, Note_off_c, 1, 55, 100
3, 398400, Note_on_c, 1, 48, 80
3, 398492, Note_off_c, 1, 48, 100
3, 398496, Note_on_c, 1, 55, 80
3, 398584, Control_c, 1, 64, 0
3, 398588, Note_off_c, 1, 55, 100
3, 398592, Control_c, 1, 64, 127
3, 398592, Note_on_c, 1, 48, 80
3, 398684, Note_off_c, 1, 48, 100
3, 398688, Note_on_c, 1, 55, 80
3, 398780, Note_off_c, 1, 55, 100
3, 398784, Note_on_c, 1, 48, 80
3, 398876, Note_off_c, 1, 48, 100
3, 398880, Note_on_c, 1, 55, 80
3, 398968, Control_c, 1, 64, 0
3, 398972, Note_off_c, 1, 55, 100
3, 398976, Control_c, 1, 64, 127
3, 398976, Note_on_c, 1, 48, 80
3, 399068, Note_off_c, 1, 48, 100
3, 399072, Note_on_c, 1, 57, 80
3, 399164, Note_off_c, 1, 57, 100
3, 399168, Note_on_c, 1, 48, 80
3, 399260, Note_off_c, 1, 48, 100
3, 399264, Note_on_c, 1, 57, 80
3, 399352, Control_c, 1, 64, 0
3, 399356, Note_off_c, 1, 57, 100
3, 399360, Control_c, 1, 64, 127
3, 399360, Note_on_c, 1, 50, 80
3, 399360, Note_on_c, 1, 47, 80
3, 399452, Note_off_c, 1, 50, 100
3, 399452, Note_off_c, 1, 47, 100
3, 399456, Note_on_c, 1, 55, 80
3, 399548, Note_off_c, 1, 55, 100
3, 399552, Note_on_c, 1, 50, 80
3, 399552, Note_on_c, 1, 47, 80
3, 399644, Note_off_c, 1, 50, 100
3, 399644, Note_off_c, 1, 47, 100
3, 399648, Note_on_c, 1, 55, 80
3, 399736, Control_c, 1, 64, 0
3, 399740, Note_off_c, 1, 55, 100
3, 399744, Control_c, 1, 64, 127
3, 399744, Note_on_c, 1, 50, 80
3, 399744, Note_on_c, 1, 47, 80
3, 399836, Note_off_c, 1, 50, 100
3, 399836, Note_off_c, 1, 47, 100
3, 399840, Note_on_c, 1, 55, 80
3, 399932, Note_off_c, 1, 55, 100
3, 399936, Note_on_c, 1, 50, 80
3, 399936, Note_on_c, 1, 47, 80
3, 400028, Note_off_c, 1, 50, 100
3, 400028, Note_off_c, 1, 47, 100
3, 400032, Note_on_c, 1, 55, 80
3, 400120, Control_c, 1, 64, 0
3, 400124, Note_off_c, 1, 55, 100
3, 400128, Control_c, 1, 64, 127
3, 400128, Note_on_c, 1, 50, 80
3, 400128, Note_on_c, 1, 47, 80
3, 400220, Note_off_c, 1, 50, 100
3, 400220, Note_off_c, 1, 47, 100
3, 400224, Note_on_c, 1, 55, 80
3, 400316, Note_off_c, 1, 55, 100
3, 400320, Note_on_c, 1, 50, 80
3, 400320, Note_on_c, 1, 47, 80
3, 400412, Note_off_c, 1, 50, 100
3, 400412, Note_off_c, 1, 47, 100
3, 400416, Note_on_c, 1, 55, 80
3, 400504, Control_c, 1, 64, 0
3, 400508, Note_off_c, 1, 55, 100
3, 400512, Control_c, 1, 64, 127
3, 400512, Note_on_c, 1, 50, 80
3, 400512, Note_on_c, 1, 47, 80
3, 400604, Note_off_c, 1, 50, 100
3, 400604, Note_off_c, 1, 47, 100
3, 400608, Note_on_c, 1, 55, 80
3, 400700, Note_off_c, 1, 55, 100
3, 400704, Note_on_c, 1, 50, 80
3, 400704, Note_on_c, 1, 47, 80
3, 400796, Note_off_c, 1, 50, 100
3, 400796, Note_off_c, 1, 47, 100
3, 400800, Note_on_c, 1, 55, 80
3, 400888, Control_c, 1, 64, 0
3, 400892, Note_off_c, 1, 55, 100
3, 400896, Control_c, 1, 64, 127
3, 400896, Note_on_c, 1, 50, 80
3, 400896, Note_on_c, 1, 47, 80
3, 400988, Note_off_c, 1, 50, 100
3, 400988, Note_off_c, 1, 47, 100
3, 400992, Note_on_c, 1, 55, 80
3, 401084, Note_off_c, 1, 55, 100
3, 401088, Note_on_c, 1, 50, 80
3, 401088, Note_on_c, 1, 47, 80
3, 401180, Note_off_c, 1, 50, 100
3, 401180, Note_off_c, 1, 47, 100
3, 401184, Note_on_c, 1, 55, 80
3, 401272, Control_c, 1, 64, 0
3, 401276, Note_off_c, 1, 55, 100
3, 401280, Control_c, 1, 64, 127
3, 401280, Note_on_c, 1, 50, 80
3, 401280, Note_on_c, 1, 47, 80
3, 401372, Note_off_c, 1, 50, 100
3, 401372, Note_off_c, 1, 47, 100
3, 401376, Note_on_c, 1, 55, 80
3, 401468, Note_off_c, 1, 55, 100
3, 401472, Note_on_c, 1, 50, 80
3, 401472, Note_on_c, 1, 47, 80
3, 401564, Note_off_c, 1, 50, 100
3, 401564, Note_off_c, 1, 47, 100
3, 401568, Note_on_c, 1, 55, 80
3, 401656, Control_c, 1, 64, 0
3, 401660, Note_off_c, 1, 55, 100
3, 401664, Control_c, 1, 64, 127
3, 401664, Note_on_c, 1, 50, 80
3, 401664, Note_on_c, 1, 47, 80
3, 401756, Note_off_c, 1, 50, 100
3, 401756, Note_off_c, 1, 47, 100
3, 401760, Note_on_c, 1, 55, 80
3, 401852, Note_off_c, 1, 55, 100
3, 401856, Note_on_c, 1, 50, 80
3, 401856, Note_on_c, 1, 47, 80
3, 401948, Note_off_c, 1, 50, 100
3, 401948, Note_off_c, 1, 47, 100
3, 401952, Note_on_c, 1, 55, 80
3, 402040, Control_c, 1, 64, 0
3, 402044, Note_off_c, 1, 55, 100
3, 402048, Control_c, 1, 64, 127
3, 402048, Note_on_c, 1, 50, 80
3, 402048, Note_on_c, 1, 47, 80
3, 402140, Note_off_c, 1, 50, 100
3, 402140, Note_off_c, 1, 47, 100
3, 402144, Note_on_c, 1, 55, 80
3, 402236, Note_off_c, 1, 55, 100
3, 402240, Note_on_c, 1, 50, 80
3, 402240, Note_on_c, 1, 47, 80
3, 402332, Note_off_c, 1, 50, 100
3, 402332, Note_off_c, 1, 47, 100
3, 402336, Note_on_c, 1, 55, 80
3, 402424, Control_c, 1, 64, 0
3, 402428, Note_off_c, 1, 55, 100
3, 402432, Control_c, 1, 64, 127
3, 402432, Note_on_c, 1, 50, 80
3, 402432, Note_on_c, 1, 38, 80
3, 402620, Note_off_c, 1, 50, 100
3, 402620, Note_off_c, 1, 38, 100
3, 402624, Note_on_c, 1, 50, 80
3, 402716, Note_off_c, 1, 50, 100
3, 402720, Note_on_c, 1, 57, 80
3, 402808, Control_c, 1, 64, 0
3, 402812, Note_off_c, 1, 57, 100
3, 402816, Control_c, 1, 64, 127
3, 402816, Note_on_c, 1, 50, 80
3, 402908, Note_off_c, 1, 50, 100
3, 402912, Note_on_c, 1, 57, 80
3, 403004, Note_off_c, 1, 57, 100
3, 403008, Note_on_c, 1, 50, 80
3, 403100, Note_off_c, 1, 50, 100
3, 403104, Note_on_c, 1, 57, 80
3, 403192, Control_c, 1, 64, 0
3, 403196, Note_off_c, 1, 57, 100
3, 403200, Control_c, 1, 64, 127
3, 403200, Note_on_c, 1, 50, 80
3, 403292, Note_off_c, 1, 50, 100
3, 403296, Note_on_c, 1, 57, 80
3, 403388, Note_off_c, 1, 57, 100
3, 403392, Note_on_c, 1, 50, 80
3, 403484, Note_off_c, 1, 50, 100
3, 403488, Note_on_c, 1, 57, 80
3, 403576, Control_c, 1, 64, 0
3, 403580, Note_off_c, 1, 57, 100
3, 403584, Control_c, 1, 64, 127
3, 403584, Note_on_c, 1, 50, 80
3, 403676, Note_off_c, 1, 50, 100
3, 403680, Note_on_c, 1, 57, 80
3, 403772, Note_off_c, 1, 57, 100
3, 403776, Note_on_c, 1, 50, 80
3, 403868, Note_off_c, 1, 50, 100
3, 403872, Note_on_c, 1, 57, 80
3, 403960, Control_c, 1, 64, 0
3, 403964, Note_off_c, 1, 57, 100
3, 403968, Control_c, 1, 64, 127
3, 403968, Note_on_c, 1, 50, 80
3, 404060, Note_off_c, 1, 50, 100
3, 404064, Note_on_c, 1, 57, 80
3, 404156, Note_off_c, 1, 57, 100
3, 404160, Note_on_c, 1, 50, 80
3, 404252, Note_off_c, 1, 50, 100
3, 404256, Note_on_c, 1, 57, 80
3, 404344, Control_c, 1, 64, 0
3, 404348, Note_off_c, 1, 57, 100
3, 404352, Control_c, 1, 64, 127
3, 404352, Note_on_c, 1, 50, 80
3, 404444, Note_off_c, 1, 50, 100
3, 404448, Note_on_c, 1, 57, 80
3, 404540, Note_off_c, 1, 57, 100
3, 404544, Note_on_c, 1, 50, 80
3, 404636, Note_off_c, 1, 50, 100
3, 404640, Note_on_c, 1, 57, 80
3, 404728, Control_c, 1, 64, 0
3, 404732, Note_off_c, 1, 57, 100
3, 404736, Control_c, 1, 64, 127
3, 404736, Note_on_c, 1, 50, 80
3, 404828, Note_off_c, 1, 50, 100
3, 404832, Note_on_c, 1, 57, 80
3, 404924, Note_off_c, 1, 57, 100
3, 404928, Note_on_c, 1, 50, 80
3, 405020, Note_off_c, 1, 50, 100
3, 405024, Note_on_c, 1, 57, 80
3, 405112, Control_c, 1, 64, 0
3, 405116, Note_off_c, 1, 57, 100
3, 405120, Control_c, 1, 64, 127
3, 405120, Note_on_c, 1, 50, 80
3, 405212, Note_off_c, 1, 50, 100
3, 405216, Note_on_c, 1, 59, 80
3, 405308, Note_off_c, 1, 59, 100
3, 405312, Note_on_c, 1, 50, 80
3, 405404, Note_off_c, 1, 50, 100
3, 405408, Note_on_c, 1, 59, 80
3, 405496, Control_c, 1, 64, 0
3, 405500, Note_off_c, 1, 59, 100
3, 405504, Control_c, 1, 64, 127
3, 405504, Note_on_c, 1, 48, 80
3, 405504, Note_on_c, 1, 52, 80
3, 405596, Note_off_c, 1, 48, 100
3, 405596, Note_off_c, 1, 52, 100
3, 405600, Note_on_c, 1, 57, 80
3, 405692, Note_off_c, 1, 57, 100
3, 405696, Note_on_c, 1, 48, 80
3, 405696, Note_on_c, 1, 52, 80
3, 405788, Note_off_c, 1, 48, 100
3, 405788, Note_off_c, 1, 52, 100
3, 405792, Note_on_c, 1, 57, 80
3, 405880, Control_c, 1, 64, 0
3, 405884, Note_off_c, 1, 57, 100
3, 405888, Control_c, 1, 64, 127
3, 405888, Note_on_c, 1, 48, 80
3, 405888, Note_on_c, 1, 52, 80
3, 405980, Note_off_c, 1, 48, 100
3, 405980, Note_off_c, 1, 52, 100
3, 405984, Note_on_c, 1, 57, 80
3, 406076, Note_off_c, 1, 57, 100
3, 406080, Note_on_c, 1, 48, 80
3, 406080, Note_on_c, 1, 52, 80
3, 406172, Note_off_c, 1, 48, 100
3, 406172, Note_off_c, 1, 52, 100
3, 406176, Note_on_c, 1, 57, 80
3, 406264, Control_c, 1, 64, 0
3, 406268, Note_off_c, 1, 57, 100
3, 406272, Control_c, 1, 64, 127
3, 406272, Note_on_c, 1, 48, 80
3, 406272, Note_on_c, 1, 52, 80
3, 406364, Note_off_c, 1, 48, 100
3, 406364, Note_off_c, 1, 52, 100
3, 406368, Note_on_c, 1, 57, 80
3, 406460, Note_off_c, 1, 57, 100
3, 406464, Note_on_c, 1, 48, 80
3, 406464, Note_on_c, 1, 52, 80
3, 406556, Note_off_c, 1, 48, 100
3, 406556, Note_off_c, 1, 52, 100
3, 406560, Note_on_c, 1, 57, 80
3, 406648, Control_c, 1, 64, 0
3, 406652, Note_off_c, 1, 57, 100
3, 406656, Control_c, 1, 64, 127
3, 406656, Note_on_c, 1, 48, 80
3, 406656, Note_on_c, 1, 52, 80
3, 406748, Note_off_c, 1, 48, 100
3, 406748, Note_off_c, 1, 52, 100
3, 406752, Note_on_c, 1, 57, 80
3, 406844, Note_off_c, 1, 57, 100
3, 406848, Note_on_c, 1, 48, 80
3, 406848, Note_on_c, 1, 52, 80
3, 406940, Note_off_c, 1, 48, 100
3, 406940, Note_off_c, 1, 52, 100
3, 406944, Note_on_c, 1, 57, 80
3, 407032, Control_c, 1, 64, 0
3, 407036, Note_off_c, 1, 57, 100
3, 407040, Control_c, 1, 64, 127
3, 407040, Note_on_c, 1, 48, 80
3, 407040, Note_on_c, 1, 52, 80
3, 407132, Note_off_c, 1, 48, 100
3, 407132, Note_off_c, 1, 52, 100
3, 407136, Note_on_c, 1, 57, 80
3, 407228, Note_off_c, 1, 57, 100
3, 407232, Note_on_c, 1, 48, 80
3, 407232, Note_on_c, 1, 52, 80
3, 407324, Note_off_c, 1, 48, 100
3, 407324, Note_off_c, 1, 52, 100
3, 407328, Note_on_c, 1, 57, 80
3, 407416, Control_c, 1, 64, 0
3, 407420, Note_off_c, 1, 57, 100
3, 407424, Control_c, 1, 64, 127
3, 407424, Note_on_c, 1, 48, 80
3, 407424, Note_on_c, 1, 52, 80
3, 407516, Note_off_c, 1, 48, 100
3, 407516, Note_off_c, 1, 52, 100
3, 407520, Note_on_c, 1, 57, 80
3, 407612, Note_off_c, 1, 57, 100
3, 407616, Note_on_c, 1, 48, 80
3, 407616, Note_on_c, 1, 52, 80
3, 407708, Note_off_c, 1, 48, 100
3, 407708, Note_off_c, 1, 52, 100
3, 407712, Note_on_c, 1, 57, 80
3, 407800, Control_c, 1, 64, 0
3, 407804, Note_off_c, 1, 57, 100
3, 407808, Control_c, 1, 64, 127
3, 407808, Note_on_c, 1, 48, 80
3, 407808, Note_on_c, 1, 52, 80
3, 407900, Note_off_c, 1, 48, 100
3, 407900, Note_off_c, 1, 52, 100
3, 407904, Note_on_c, 1, 57, 80
3, 407996, Note_off_c, 1, 57, 100
3, 408000, Note_on_c, 1, 48, 80
3, 408000, Note_on_c, 1, 52, 80
3, 408092, Note_off_c, 1, 48, 100
3, 408092, Note_off_c, 1, 52, 100
3, 408096, Note_on_c, 1, 57, 80
3, 408184, Control_c, 1, 64, 0
3, 408188, Note_off_c, 1, 57, 100
3, 408192, Control_c, 1, 64, 127
3, 408192, Note_on_c, 1, 48, 80
3, 408192, Note_on_c, 1, 52, 80
3, 408284, Note_off_c, 1, 48, 100
3, 408284, Note_off_c, 1, 52, 100
3, 408288, Note_on_c, 1, 57, 80
3, 408380, Note_off_c, 1, 57, 100
3, 408384, Note_on_c, 1, 48, 80
3, 408384, Note_on_c, 1, 52, 80
3, 408476, Note_off_c, 1, 48, 100
3, 408476, Note_off_c, 1, 52, 100
3, 408480, Note_on_c, 1, 57, 80
3, 408568, Control_c, 1, 64, 0
3, 408572, Note_off_c, 1, 57, 100
3, 408576, Control_c, 1, 64, 127
3, 408576, Note_on_c, 1, 57, 80
3, 408576, Note_on_c, 1, 53, 80
3, 408668, Note_off_c, 1, 57, 100
3, 408668, Note_off_c, 1, 53, 100
3, 408672, Note_on_c, 1, 60, 80
3, 408764, Note_off_c, 1, 60, 100
3, 408768, Note_on_c, 1, 57, 81
3, 408768, Note_on_c, 1, 53, 81
3, 408860, Note_off_c, 1, 57, 100
3, 408860, Note_off_c, 1, 53, 100
3, 408864, Note_on_c, 1, 60, 82
3, 408952, Control_c, 1, 64, 0
3, 408956, Note_off_c, 1, 60, 100
3, 408960, Control_c, 1, 64, 127
3, 408960, Note_on_c, 1, 57, 83
3, 408960, Note_on_c, 1, 53, 83
3, 409052, Note_off_c, 1, 57, 100
3, 409052, Note_off_c, 1, 53, 100
3, 409056, Note_on_c, 1, 60, 84
3, 409148, Note_off_c, 1, 60, 100
3, 409152, Note_on_c, 1, 57, 85
3, 409152, Note_on_c, 1, 53, 85
3, 409244, Note_off_c, 1, 57, 100
3, 409244, Note_off_c, 1, 53, 100
3, 409248, Note_on_c, 1, 60, 85
3, 409336, Control_c, 1, 64, 0
3, 409340, Note_off_c, 1, 60, 100
3, 409344, Control_c, 1, 64, 127
3, 409344, Note_on_c, 1, 57, 86
3, 409344, Note_on_c, 1, 53, 86
3, 409436, Note_off_c, 1, 57, 100
3, 409436, Note_off_c, 1, 53, 100
3, 409440, Note_on_c, 1, 62, 87
3, 409532, Note_off_c, 1, 62, 100
3, 409536, Note_on_c, 1, 57, 88
3, 409536, Note_on_c, 1, 53, 88
3, 409628, Note_off_c, 1, 57, 100
3, 409628, Note_off_c, 1, 53, 100
3, 409632, Note_on_c, 1, 62, 89
3, 409720, Control_c, 1, 64, 0
3, 409724, Note_off_c, 1, 62, 100
3, 409728, Control_c, 1, 64, 127
3, 409728, Note_on_c, 1, 57, 90
3, 409728, Note_on_c, 1, 53, 90
3, 409820, Note_off_c, 1, 57, 100
3, 409820, Note_off_c, 1, 53, 100
3, 409824, Note_on_c, 1, 62, 90
3, 409916, Note_off_c, 1, 62, 100
3, 409920, Note_on_c, 1, 57, 91
3, 409920, Note_on_c, 1, 53, 91
3, 410012, Note_off_c, 1, 57, 100
3, 410012, Note_off_c, 1, 53, 100
3, 410016, Note_on_c, 1, 62, 92
3, 410104, Control_c, 1, 64, 0
3, 410108, Note_off_c, 1, 62, 100
3, 410112, Control_c, 1, 64, 127
3, 410112, Note_on_c, 1, 57, 93
3, 410112, Note_on_c, 1, 53, 93
3, 410204, Note_off_c, 1, 57, 100
3, 410204, Note_off_c, 1, 53, 100
3, 410208, Note_on_c, 1, 63, 94
3, 410300, Note_off_c, 1, 63, 100
3, 410304, Note_on_c, 1, 57, 95
3, 410304, Note_on_c, 1, 53, 95
3, 410396, Note_off_c, 1, 57, 100
3, 410396, Note_off_c, 1, 53, 100
3, 410400, Note_on_c, 1, 63, 95
3, 410488, Control_c, 1, 64, 0
3, 410492, Note_off_c, 1, 63, 100
3, 410496, Control_c, 1, 64, 127
3, 410496, Note_on_c, 1, 57, 96
3, 410496, Note_on_c, 1, 53, 96
3, 410588, Note_off_c, 1, 57, 100
3, 410588, Note_off_c, 1, 53, 100
3, 410592, Note_on_c, 1, 63, 97
3, 410684, Note_off_c, 1, 63, 100
3, 410688, Note_on_c, 1, 57, 98
3, 410688, Note_on_c, 1, 53, 98
3, 410780, Note_off_c, 1, 57, 100
3, 410780, Note_off_c, 1, 53, 100
3, 410784, Note_on_c, 1, 63, 99
3, 410872, Control_c, 1, 64, 0
3, 410876, Note_off_c, 1, 63, 100
3, 410880, Control_c, 1, 64, 127
3, 410880, Note_on_c, 1, 57, 100
3, 410880, Note_on_c, 1, 53, 100
3, 410972, Note_off_c, 1, 57, 100
3, 410972, Note_off_c, 1, 53, 100
3, 410976, Note_on_c, 1, 60, 100
3, 411068, Note_off_c, 1, 60, 100
3, 411072, Note_on_c, 1, 57, 101
3, 411072, Note_on_c, 1, 53, 101
3, 411164, Note_off_c, 1, 57, 100
3, 411164, Note_off_c, 1, 53, 100
3, 411168, Note_on_c, 1, 60, 102
3, 411256, Control_c, 1, 64, 0
3, 411260, Note_off_c, 1, 60, 100
3, 411264, Control_c, 1, 64, 127
3, 411264, Note_on_c, 1, 53, 103
3, 411356, Note_off_c, 1, 53, 100
3, 411360, Note_on_c, 1, 57, 104
3, 411452, Note_off_c, 1, 57, 100
3, 411456, Note_on_c, 1, 53, 105
3, 411548, Note_off_c, 1, 53, 100
3, 411552, Note_on_c, 1, 57, 105
3, 411640, Control_c, 1, 64, 0
3, 411644, Note_off_c, 1, 57, 100
3, 411648, Control_c, 1, 64, 127
3, 411648, Note_on_c, 1, 52, 80
3, 411740, Note_off_c, 1, 52, 100
3, 411744, Note_on_c, 1, 56, 80
3, 411836, Note_off_c, 1, 56, 100
3, 411840, Note_on_c, 1, 59, 80
3, 411932, Note_off_c, 1, 59, 100
3, 411936, Note_on_c, 1, 64, 80
3, 412024, Control_c, 1, 64, 0
3, 412028, Note_off_c, 1, 64, 100
3, 412032, Control_c, 1, 64, 127
3, 412032, Note_on_c, 1, 52, 80
3, 412124, Note_off_c, 1, 52, 100
3, 412128, Note_on_c, 1, 56, 80
3, 412220, Note_off_c, 1, 56, 100
3, 412224, Note_on_c, 1, 59, 80
3, 412316, Note_off_c, 1, 59, 100
3, 412320, Note_on_c, 1, 64, 80
3, 412408, Control_c, 1, 64, 0
3, 412412, Note_off_c, 1, 64, 100
3, 412416, Control_c, 1, 64, 127
3, 412416, Note_on_c, 1, 52, 80
3, 412508, Note_off_c, 1, 52, 100
3, 412512, Note_on_c, 1, 57, 80
3, 412604, Note_off_c, 1, 57, 100
3, 412608, Note_on_c, 1, 60, 80
3, 412700, Note_off_c, 1, 60, 100
3, 412704, Note_on_c, 1, 64, 80
3, 412792, Control_c, 1, 64, 0
3, 412796, Note_off_c, 1, 64, 100
3, 412800, Control_c, 1, 64, 127
3, 412800, Note_on_c, 1, 52, 80
3, 412892, Note_off_c, 1, 52, 100
3, 412896, Note_on_c, 1, 57, 80
3, 412988, Note_off_c, 1, 57, 100
3, 412992, Note_on_c, 1, 60, 80
3, 413084, Note_off_c, 1, 60, 100
3, 413088, Note_on_c, 1, 64, 80
3, 413176, Control_c, 1, 64, 0
3, 413180, Note_off_c, 1, 64, 100
3, 413184, Control_c, 1, 64, 127
3, 413184, Note_on_c, 1, 52, 80
3, 413276, Note_off_c, 1, 52, 100
3, 413280, Note_on_c, 1, 59, 80
3, 413372, Note_off_c, 1, 59, 100
3, 413376, Note_on_c, 1, 62, 80
3, 413468, Note_off_c, 1, 62, 100
3, 413472, Note_on_c, 1, 64, 80
3, 413560, Control_c, 1, 64, 0
3, 413564, Note_off_c, 1, 64, 100
3, 413568, Control_c, 1, 64, 127
3, 413568, Note_on_c, 1, 52, 80
3, 413660, Note_off_c, 1, 52, 100
3, 413664, Note_on_c, 1, 59, 80
3, 413756, Note_off_c, 1, 59, 100
3, 413760, Note_on_c, 1, 62, 80
3, 413852, Note_off_c, 1, 62, 100
3, 413856, Note_on_c, 1, 64, 80
3, 413944, Control_c, 1, 64, 0
3, 413948, Note_off_c, 1, 64, 100
3, 413952, Control_c, 1, 64, 127
3, 413952, Note_on_c, 1, 52, 80
3, 414044, Note_off_c, 1, 52, 100
3, 414048, Note_on_c, 1, 57, 80
3, 414140, Note_off_c, 1, 57, 100
3, 414144, Note_on_c, 1, 60, 80
3, 414236, Note_off_c, 1, 60, 100
3, 414240, Note_on_c, 1, 64, 80
3, 414328, Control_c, 1, 64, 0
3, 414332, Note_off_c, 1, 64, 100
3, 414336, Control_c, 1, 64, 127
3, 414336, Note_on_c, 1, 52, 80
3, 414428, Note_off_c, 1, 52, 100
3, 414432, Note_on_c, 1, 57, 80
3, 414524, Note_off_c, 1, 57, 100
3, 414528, Note_on_c, 1, 60, 80
3, 414620, Note_off_c, 1, 60, 100
3, 414624, Note_on_c, 1, 64, 80
3, 414712, Control_c, 1, 64, 0
3, 414716, Note_off_c, 1, 64, 100
3, 414720, Control_c, 1, 64, 127
3, 414720, Note_on_c, 1, 52, 80
3, 414812, Note_off_c, 1, 52, 100
3, 414816, Note_on_c, 1, 56, 80
3, 414908, Note_off_c, 1, 56, 100
3, 414912, Note_on_c, 1, 59, 80
3, 415004, Note_off_c, 1, 59, 100
3, 415008, Note_on_c, 1, 64, 80
3, 415096, Control_c, 1, 64, 0
3, 415100, Note_off_c, 1, 64, 100
3, 415104, Control_c, 1, 64, 127
3, 415104, Note_on_c, 1, 52, 80
3, 415196, Note_off_c, 1, 52, 100
3, 415200, Note_on_c, 1, 56, 80
3, 415292, Note_off_c, 1, 56, 100
3, 415296, Note_on_c, 1, 59, 80
3, 415388, Note_off_c, 1, 59, 100
3, 415392, Note_on_c, 1, 64, 80
3, 415480, Control_c, 1, 64, 0
3, 415484, Note_off_c, 1, 64, 100
3, 415488, Control_c, 1, 64, 127
3, 415488, Note_on_c, 1, 52, 80
3, 415580, Note_off_c, 1, 52, 100
3, 415584, Note_on_c, 1, 57, 80
3, 415676, Note_off_c, 1, 57, 100
3, 415680, Note_on_c, 1, 60, 80
3, 415772, Note_off_c, 1, 60, 100
3, 415776, Note_on_c, 1, 64, 80
3, 415864, Control_c, 1, 64, 0
3, 415868, Note_off_c, 1, 64, 100
3, 415872, Control_c, 1, 64, 127
3, 415872, Note_on_c, 1, 52, 80
3, 415964, Note_off_c, 1, 52, 100
3, 415968, Note_on_c, 1, 57, 80
3, 416060, Note_off_c, 1, 57, 100
3, 416064, Note_on_c, 1, 60, 80
3, 416156, Note_off_c, 1, 60, 100
3, 416160, Note_on_c, 1, 64, 80
3, 416248, Control_c, 1, 64, 0
3, 416252, Note_off_c, 1, 64, 100
3, 416256, Control_c, 1, 64, 127
3, 416256, Note_on_c, 1, 52, 80
3, 416348, Note_off_c, 1, 52, 100
3, 416352, Note_on_c, 1, 59, 80
3, 416444, Note_off_c, 1, 59, 100
3, 416448, Note_on_c, 1, 62, 80
3, 416540, Note_off_c, 1, 62, 100
3, 416544, Note_on_c, 1, 64, 80
3, 416632, Control_c, 1, 64, 0
3, 416636, Note_off_c, 1, 64, 100
3, 416640, Control_c, 1, 64, 127
3, 416640, Note_on_c, 1, 52, 80
3, 416732, Note_off_c, 1, 52, 100
3, 416736, Note_on_c, 1, 59, 80
3, 416828, Note_off_c, 1, 59, 100
3, 416832, Note_on_c, 1, 62, 80
3, 416924, Note_off_c, 1, 62, 100
3, 416928, Note_on_c, 1, 64, 80
3, 417016, Control_c, 1, 64, 0
3, 417020, Note_off_c, 1, 64, 100
3, 417024, Control_c, 1, 64, 127
3, 417024, Note_on_c, 1, 52, 80
3, 417116, Note_off_c, 1, 52, 100
3, 417120, Note_on_c, 1, 57, 80
3, 417212, Note_off_c, 1, 57, 100
3, 417216, Note_on_c, 1, 60, 80
3, 417308, Note_off_c, 1, 60, 100
3, 417312, Note_on_c, 1, 64, 80
3, 417400, Control_c, 1, 64, 0
3, 417404, Note_off_c, 1, 64, 100
3, 417408, Control_c, 1, 64, 127
3, 417408, Note_on_c, 1, 52, 80
3, 417500, Note_off_c, 1, 52, 100
3, 417504, Note_on_c, 1, 57, 80
3, 417596, Note_off_c, 1, 57, 100
3, 417600, Note_on_c, 1, 60, 80
3, 417692, Note_off_c, 1, 60, 100
3, 417696, Note_on_c, 1, 64, 80
3, 417784, Control_c, 1, 64, 0
3, 417788, Note_off_c, 1, 64, 100
3, 417792, Control_c, 1, 64, 127
3, 417792, Note_on_c, 1, 52, 80
3, 417884, Note_off_c, 1, 52, 100
3, 417888, Note_on_c, 1, 56, 81
3, 417980, Note_off_c, 1, 56, 100
3, 417984, Note_on_c, 1, 59, 83
3, 418076, Note_off_c, 1, 59, 100
3, 418080, Note_on_c, 1, 64, 84
3, 418168, Control_c, 1, 64, 0
3, 418172, Note_off_c, 1, 64, 100
3, 418176, Control_c, 1, 64, 127
3, 418176, Note_on_c, 1, 63, 86
3, 418268, Note_off_c, 1, 63, 100
3, 418272, Note_on_c, 1, 64, 88
3, 418364, Note_off_c, 1, 64, 100
3, 418368, Note_on_c, 1, 60, 89
3, 418460, Note_off_c, 1, 60, 100
3, 418464, Note_on_c, 1, 57, 91
3, 418552, Control_c, 1, 64, 0
3, 418556, Note_off_c, 1, 57, 100
3, 418560, Control_c, 1, 64, 127
3, 418560, Note_on_c, 1, 52, 93
3, 418652, Note_off_c, 1, 52, 100
3, 418656, Note_on_c, 1, 56, 94
3, 418748, Note_off_c, 1, 56, 100
3, 418752, Note_on_c, 1, 59, 96
3, 418844, Note_off_c, 1, 59, 100
3, 418848, Note_on_c, 1, 64, 97
3, 418936, Control_c, 1, 64, 0
3, 418940, Note_off_c, 1, 64, 100
3, 418944, Control_c, 1, 64, 127
3, 418944, Note_on_c, 1, 63, 99
3, 419036, Note_off_c, 1, 63, 100
3, 419040, Note_on_c, 1, 64, 101
3, 419132, Note_off_c, 1, 64, 100
3, 419136, Note_on_c, 1, 60, 102
3, 419228, Note_off_c, 1, 60, 100
3, 419232, Note_on_c, 1, 57, 104
3, 419320, Control_c, 1, 64, 0
3, 419324, Note_off_c, 1, 57, 100
3, 419328, Control_c, 1, 64, 127
3, 419328, Note_on_c, 1, 52, 110
3, 419420, Note_off_c, 1, 52, 100
3, 419424, Note_on_c, 1, 56, 110
3, 419516, Note_off_c, 1, 56, 100
3, 419520, Note_on_c, 1, 59, 110
3, 419612, Note_off_c, 1, 59, 100
3, 419616, Note_on_c, 1, 64, 110
3, 419704, Control_c, 1, 64, 0
3, 419708, Note_off_c, 1, 64, 100
3, 419712, Control_c, 1, 64, 127
3, 419712, Note_on_c, 1, 52, 110
3, 419804, Note_off_c, 1, 52, 100
3, 419808, Note_on_c, 1, 57, 110
3, 419900, Note_off_c, 1, 57, 100
3, 419904, Note_on_c, 1, 60, 110
3, 419996, Note_off_c, 1, 60, 100
3, 420000, Note_on_c, 1, 64, 110
3, 420088, Control_c, 1, 64, 0
3, 420092, Note_off_c, 1, 64, 100
3, 420096, Control_c, 1, 64, 127
3, 420096, Note_on_c, 1, 52, 110
3, 420188, Note_off_c, 1, 52, 100
3, 420192, Note_on_c, 1, 56, 110
3, 420284, Note_off_c, 1, 56, 100
3, 420288, Note_on_c, 1, 59, 110
3, 420380, Note_off_c, 1, 59, 100
3, 420384, Note_on_c, 1, 64, 110
3, 420472, Control_c, 1, 64, 0
3, 420476, Note_off_c, 1, 64, 100
3, 420480, Control_c, 1, 64, 127
3, 420480, Note_on_c, 1, 52, 110
3, 420572, Note_off_c, 1, 52, 100
3, 420576, Note_on_c, 1, 57, 110
3, 420668, Note_off_c, 1, 57, 100
3, 420672, Note_on_c, 1, 60, 110
3, 420764, Note_off_c, 1, 60, 100
3, 420768, Note_on_c, 1, 64, 110
3, 420856, Control_c, 1, 64, 0
3, 420860, Note_off_c, 1, 64, 100
3, 420864, Note_on_c, 1, 64, 110
3, 420864, Note_on_c, 1, 59, 110
3, 420864, Note_on_c, 1, 56, 110
3, 420864, Note_on_c, 1, 52, 110
3, 421244, Note_off_c, 1, 64, 100
3, 421244, Note_off_c, 1, 59, 100
3, 421244, Note_off_c, 1, 56, 100
3, 421244, Note_off_c, 1, 52, 100
3, 422400, Control_c, 1, 64, 127
3, 422776, Control_c, 1, 64, 0
3, 422784, Control_c, 1, 64, 127
3, 423160, Control_c, 1, 64, 0
3, 423168, Control_c, 1, 64, 127
3, 423544, Control_c, 1, 64, 0
3, 423552, Control_c, 1, 64, 127
3, 423552, Note_on_c, 1, 40, 110
3, 423644, Note_off_c, 1, 40, 100
3, 423648, Note_on_c, 1, 44, 110
3, 423740, Note_off_c, 1, 44, 100
3, 423744, Note_on_c, 1, 47, 110
3, 423836, Note_off_c, 1, 47, 100
3, 423840, Note_on_c, 1, 52, 110
3, 423928, Control_c, 1, 64, 0
3, 423932, Note_off_c, 1, 52, 100
3, 423936, Note_on_c, 1, 40, 110
3, 424124, Note_off_c, 1, 40, 100
3, 424128, Note_on_c, 1, 52, 109
3, 424316, Note_off_c, 1, 52, 100
3, 424320, Note_on_c, 1, 42, 107
3, 424508, Note_off_c, 1, 42, 100
3, 424512, Note_on_c, 1, 54, 105
3, 424700, Note_off_c, 1, 54, 100
3, 424704, Note_on_c, 1, 44, 103
3, 424892, Note_off_c, 1, 44, 100
3, 424896, Note_on_c, 1, 56, 101
3, 425084, Note_off_c, 1, 56, 100
3, 425472, Note_on_c, 1, 44, 95
3, 425660, Note_off_c, 1, 44, 100
3, 425664, Note_on_c, 1, 56, 93
3, 425852, Note_off_c, 1, 56, 100
3, 425856, Note_on_c, 1, 45, 91
3, 426044, Note_off_c, 1, 45, 100
3, 426048, Note_on_c, 1, 57, 89
3, 426236, Note_off_c, 1, 57, 100
3, 426240, Note_on_c, 1, 47, 87
3, 426428, Note_off_c, 1, 47, 100
3, 426432, Note_on_c, 1, 59, 85
3, 426620, Note_off_c, 1, 59, 100
3, 427776, Note_on_c, 1, 47, 80
3, 427964, Note_off_c, 1, 47, 100
3, 427968, Note_on_c, 1, 59, 80
3, 428156, Note_off_c, 1, 59, 100
3, 428160, Note_on_c, 1, 49, 80
3, 428348, Note_off_c, 1, 49, 100
3, 428352, Note_on_c, 1, 61, 80
3, 428540, Note_off_c, 1, 61, 100
3, 428544, Note_on_c, 1, 50, 80
3, 428732, Note_off_c, 1, 50, 100
3, 428736, Note_on_c, 1, 62, 80
3, 428924, Note_off_c, 1, 62, 100
3, 428928, Note_on_c, 1, 52, 80
3, 429116, Note_off_c, 1, 52, 100
3, 429120, Note_on_c, 1, 64, 80
3, 429308, Note_off_c, 1, 64, 100
3, 429312, Note_on_c, 1, 54, 80
3, 429500, Note_off_c, 1, 54, 100
3, 429504, Note_on_c, 1, 66, 80
3, 429692, Note_off_c, 1, 66, 100
3, 429696, Note_on_c, 1, 56, 80
3, 429884, Note_off_c, 1, 56, 100
3, 429888, Note_on_c, 1, 68, 80
3, 430076, Note_off_c, 1, 68, 100
3, 430080, Note_on_c, 1, 69, 80
3, 430080, Note_on_c, 1, 64, 80
3, 430080, Note_on_c, 1, 61, 80
3, 430080, Note_on_c, 1, 57, 80
3, 430844, Note_off_c, 1, 69, 100
3, 430844, Note_off_c, 1, 64, 100
3, 430844, Note_off_c, 1, 61, 100
3, 430844, Note_off_c, 1, 57, 100
3, 430848, Note_on_c, 1, 64, 80
3, 430848, Note_on_c, 1, 59, 80
3, 430848, Note_on_c, 1, 56, 80
3, 430848, Note_on_c, 1, 52, 80
3, 431228, Note_off_c, 1, 64, 100
3, 431228, Note_off_c, 1, 59, 100
3, 431228, Note_off_c, 1, 56, 100
3, 431228, Note_off_c, 1, 52, 100
3, 431232, Note_on_c, 1, 66, 80
3, 431232, Note_on_c, 1, 61, 80
3, 431232, Note_on_c, 1, 57, 80
3, 431232, Note_on_c, 1, 54, 80
3, 431612, Note_off_c, 1, 66, 100
3, 431612, Note_off_c, 1, 61, 100
3, 431612, Note_off_c, 1, 57, 100
3, 431612, Note_off_c, 1, 54, 100
3, 431616, Note_on_c, 1, 61, 80
3, 431616, Note_on_c, 1, 56, 80
3, 431616, Note_on_c, 1, 53, 80
3, 431616, Note_on_c, 1, 49, 80
3, 432380, Note_off_c, 1, 61, 100
3, 432380, Note_off_c, 1, 56, 100
3, 432380, Note_off_c, 1, 53, 100
3, 432380, Note_off_c, 1, 49, 100
3, 432384, Note_on_c, 1, 62, 80
3, 432384, Note_on_c, 1, 57, 80
3, 432384, Note_on_c, 1, 54, 80
3, 432384, Note_on_c, 1, 50, 80
3, 433148, Note_off_c, 1, 62, 100
3, 433148, Note_off_c, 1, 57, 100
3, 433148, Note_off_c, 1, 54, 100
3, 433148, Note_off_c, 1, 50, 100
3, 433152, Note_on_c, 1, 59, 80
3, 433152, Note_on_c, 1, 56, 80
3, 433152, Note_on_c, 1, 52, 80
3, 433152, Note_on_c, 1, 47, 80
3, 433916, Note_off_c, 1, 59, 100
3, 433916, Note_off_c, 1, 56, 100
3, 433916, Note_off_c, 1, 52, 100
3, 433916, Note_off_c, 1, 47, 100
3, 433920, Note_on_c, 1, 61, 93
3, 433920, Note_on_c, 1, 57, 93
3, 433920, Note_on_c, 1, 52, 93
3, 433920, Note_on_c, 1, 49, 93
3, 434300, Note_off_c, 1, 61, 100
3, 434300, Note_off_c, 1, 57, 100
3, 434300, Note_off_c, 1, 52, 100
3, 434300, Note_off_c, 1, 49, 100
3, 434304, Note_on_c, 1, 62, 99
3, 434304, Note_on_c, 1, 59, 99
3, 434304, Note_on_c, 1, 54, 99
3, 434304, Note_on_c, 1, 50, 99
3, 434684, Note_off_c, 1, 62, 100
3, 434684, Note_off_c, 1, 59, 100
3, 434684, Note_off_c, 1, 54, 100
3, 434684, Note_off_c, 1, 50, 100
3, 434688, Note_on_c, 1, 64, 110
3, 434688, Note_on_c, 1, 61, 110
3, 434688, Note_on_c, 1, 57, 110
3, 434688, Note_on_c, 1, 52, 110
3, 435452, Note_off_c, 1, 64, 100
3, 435452, Note_off_c, 1, 61, 100
3, 435452, Note_off_c, 1, 57, 100
3, 435456, Note_on_c, 1, 64, 91
3, 435456, Note_on_c, 1, 59, 91
3, 435456, Note_on_c, 1, 56, 91
3, 436220, Note_off_c, 1, 52, 100
3, 436220, Note_off_c, 1, 64, 100
3, 436220, Note_off_c, 1, 59, 100
3, 436220, Note_off_c, 1, 56, 100
3, 436224, Note_on_c, 1, 60, 80
3, 436224, Note_on_c, 1, 57, 80
3, 436988, Note_off_c, 1, 60, 100
3, 436988, Note_off_c, 1, 57, 100
3, 436992, Note_on_c, 1, 59, 80
3, 436992, Note_on_c, 1, 55, 80
3, 436992, Note_on_c, 1, 52, 80
3, 437372, Note_off_c, 1, 59, 100
3, 437372, Note_off_c, 1, 55, 100
3, 437372, Note_off_c, 1, 52, 100
3, 437376, Note_on_c, 1, 57, 80
3, 437376, Note_on_c, 1, 53, 80
3, 437756, Note_off_c, 1, 57, 100
3, 437756, Note_off_c, 1, 53, 100
3, 437760, Note_on_c, 1, 55, 80
3, 437760, Note_on_c, 1, 52, 80
3, 437760, Note_on_c, 1, 48, 80
3, 438524, Note_off_c, 1, 55, 100
3, 438524, Note_off_c, 1, 52, 100
3, 438524, Note_off_c, 1, 48, 100
3, 438528, Note_on_c, 1, 53, 80
3, 438528, Note_on_c, 1, 50, 80
3, 439292, Note_off_c, 1, 53, 100
3, 439292, Note_off_c, 1, 50, 100
3, 439296, Note_on_c, 1, 43, 80
3, 439296, Note_on_c, 1, 52, 80
3, 439296, Note_on_c, 1, 48, 80
3, 439676, Note_off_c, 1, 52, 100
3, 439676, Note_off_c, 1, 48, 100
3, 439680, Note_on_c, 1, 53, 86
3, 439680, Note_on_c, 1, 50, 86
3, 440828, Note_off_c, 1, 43, 100
3, 440828, Note_off_c, 1, 53, 100
3, 440828, Note_off_c, 1, 50, 100
3, 440832, Note_on_c, 1, 52, 80
3, 440832, Note_on_c, 1, 48, 80
3, 441212, Note_off_c, 1, 52, 100
3, 441212, Note_off_c, 1, 48, 100
3, 442368, Note_on_c, 1, 76, 80
3, 442368, Note_on_c, 1, 72, 80
3, 443132, Note_off_c, 1, 76, 100
3, 443132, Note_off_c, 1, 72, 100
3, 443136, Note_on_c, 1, 77, 80
3, 443136, Note_on_c, 1, 74, 80
3, 443136, Note_on_c, 1, 71, 80
3, 443136, Note_on_c, 1, 68, 80
3, 443516, Note_off_c, 1, 77, 100
3, 443516, Note_off_c, 1, 74, 100
3, 443516, Note_off_c, 1, 71, 100
3, 443516, Note_off_c, 1, 68, 100
3, 443520, Note_on_c, 1, 76, 80
3, 443520, Note_on_c, 1, 72, 80
3, 443520, Note_on_c, 1, 69, 80
3, 443900, Note_off_c, 1, 76, 100
3, 443900, Note_off_c, 1, 72, 100
3, 443900, Note_off_c, 1, 69, 100
3, 443904, Note_on_c, 1, 74, 80
3, 443904, Note_on_c, 1, 71, 80
3, 443904, Note_on_c, 1, 68, 80
3, 443904, Note_on_c, 1, 64, 80
3, 444668, Note_off_c, 1, 74, 100
3, 444668, Note_off_c, 1, 71, 100
3, 444668, Note_off_c, 1, 68, 100
3, 444668, Note_off_c, 1, 64, 100
3, 444672, Note_on_c, 1, 72, 80
3, 444672, Note_on_c, 1, 69, 80
3, 444672, Note_on_c, 1, 65, 80
3, 445436, Note_off_c, 1, 72, 100
3, 445436, Note_off_c, 1, 69, 100
3, 445436, Note_off_c, 1, 65, 100
3, 445440, Note_on_c, 1, 71, 80
3, 445440, Note_on_c, 1, 67, 80
3, 445440, Note_on_c, 1, 65, 80
3, 445440, Note_on_c, 1, 62, 80
3, 446204, Note_off_c, 1, 71, 100
3, 446204, Note_off_c, 1, 67, 100
3, 446204, Note_off_c, 1, 65, 100
3, 446204, Note_off_c, 1, 62, 100
3, 446208, Note_on_c, 1, 72, 96
3, 446208, Note_on_c, 1, 67, 96
3, 446208, Note_on_c, 1, 64, 96
3, 446588, Note_off_c, 1, 72, 100
3, 446588, Note_off_c, 1, 67, 100
3, 446588, Note_off_c, 1, 64, 100
3, 446592, Note_on_c, 1, 74, 105
3, 446592, Note_on_c, 1, 72, 105
3, 446592, Note_on_c, 1, 69, 105
3, 446592, Note_on_c, 1, 65, 105
3, 446972, Note_off_c, 1, 74, 100
3, 446972, Note_off_c, 1, 72, 100
3, 446972, Note_off_c, 1, 69, 100
3, 446972, Note_off_c, 1, 65, 100
3, 446976, Note_on_c, 1, 76, 110
3, 446976, Note_on_c, 1, 72, 110
3, 446976, Note_on_c, 1, 67, 110
3, 447740, Note_off_c, 1, 76, 100
3, 447740, Note_off_c, 1, 72, 100
3, 447744, Note_on_c, 1, 74, 110
3, 447744, Note_on_c, 1, 71, 110
3, 448124, Note_off_c, 1, 67, 100
3, 448124, Note_off_c, 1, 74, 100
3, 448124, Note_off_c, 1, 71, 100
3, 448128, Note_on_c, 1, 55, 93
3, 448252, Note_off_c, 1, 55, 100
3, 448256, Note_on_c, 1, 57, 87
3, 448380, Note_off_c, 1, 57, 100
3, 448384, Note_on_c, 1, 59, 81
3, 448508, Note_off_c, 1, 59, 100
3, 448512, Note_on_c, 1, 64, 80
3, 448512, Note_on_c, 1, 60, 80
3, 449276, Note_off_c, 1, 64, 100
3, 449276, Note_off_c, 1, 60, 100
3, 449280, Note_on_c, 1, 62, 80
3, 449280, Note_on_c, 1, 59, 80
3, 449280, Note_on_c, 1, 56, 80
3, 449660, Note_off_c, 1, 62, 100
3, 449660, Note_off_c, 1, 59, 100
3, 449660, Note_off_c, 1, 56, 100
3, 449664, Note_on_c, 1, 60, 80
3, 449664, Note_on_c, 1, 57, 80
3, 450044, Note_off_c, 1, 60, 100
3, 450044, Note_off_c, 1, 57, 100
3, 450048, Note_on_c, 1, 59, 80
3, 450048, Note_on_c, 1, 56, 80
3, 450048, Note_on_c, 1, 52, 80
3, 450812, Note_off_c, 1, 59, 100
3, 450812, Note_off_c, 1, 56, 100
3, 450812, Note_off_c, 1, 52, 100
3, 450816, Note_on_c, 1, 57, 80
3, 450816, Note_on_c, 1, 53, 80
3, 451580, Note_off_c, 1, 57, 100
3, 451580, Note_off_c, 1, 53, 100
3, 451584, Note_on_c, 1, 52, 80
3, 451584, Note_on_c, 1, 48, 80
3, 451584, Note_on_c, 1, 43, 80
3, 451964, Note_off_c, 1, 52, 100
3, 451964, Note_off_c, 1, 48, 100
3, 451968, Note_on_c, 1, 53, 87
3, 451968, Note_on_c, 1, 50, 87
3, 453116, Note_off_c, 1, 43, 100
3, 453116, Note_off_c, 1, 53, 100
3, 453116, Note_off_c, 1, 50, 100
3, 453120, Note_on_c, 1, 48, 110
3, 453120, Note_on_c, 1, 36, 110
3, 453500, Note_off_c, 1, 48, 100
3, 453500, Note_off_c, 1, 36, 100
3, 453504, Note_on_c, 1, 43, 110
3, 454268, Note_off_c, 1, 43, 100
3, 454272, Note_on_c, 1, 43, 110
3, 455036, Note_off_c, 1, 43, 100
3, 455040, Note_on_c, 1, 43, 110
3, 455804, Note_off_c, 1, 43, 100
3, 455808, Note_on_c, 1, 43, 110
3, 456188, Note_off_c, 1, 43, 100
3, 456192, Note_on_c, 1, 48, 110
3, 456316, Note_off_c, 1, 48, 100
3, 456320, Note_on_c, 1, 43, 110
3, 456444, Note_off_c, 1, 43, 100
3, 456448, Note_on_c, 1, 40, 110
3, 456572, Note_off_c, 1, 40, 100
3, 456576, Note_on_c, 1, 43, 110
3, 456700, Note_off_c, 1, 43, 100
3, 456704, Note_on_c, 1, 48, 110
3, 456828, Note_off_c, 1, 48, 100
3, 456832, Note_on_c, 1, 52, 110
3, 456956, Note_off_c, 1, 52, 100
3, 456960, Note_on_c, 1, 50, 110
3, 457084, Note_off_c, 1, 50, 100
3, 457088, Note_on_c, 1, 47, 110
3, 457212, Note_off_c, 1, 47, 100
3, 457216, Note_on_c, 1, 43, 110
3, 457340, Note_off_c, 1, 43, 100
3, 457344, Note_on_c, 1, 47, 110
3, 457468, Note_off_c, 1, 47, 100
3, 457472, Note_on_c, 1, 50, 110
3, 457596, Note_off_c, 1, 50, 100
3, 457600, Note_on_c, 1, 53, 110
3, 457724, Note_off_c, 1, 53, 100
3, 457728, Note_on_c, 1, 52, 110
3, 457852, Note_off_c, 1, 52, 100
3, 457856, Note_on_c, 1, 48, 110
3, 457980, Note_off_c, 1, 48, 100
3, 457984, Note_on_c, 1, 43, 110
3, 458108, Note_off_c, 1, 43, 100
3, 458112, Note_on_c, 1, 48, 110
3, 458236, Note_off_c, 1, 48, 100
3, 458240, Note_on_c, 1, 52, 110
3, 458364, Note_off_c, 1, 52, 100
3, 458368, Note_on_c, 1, 55, 110
3, 458492, Note_off_c, 1, 55, 100
3, 458496, Note_on_c, 1, 53, 110
3, 458620, Note_off_c, 1, 53, 100
3, 458624, Note_on_c, 1, 50, 110
3, 458748, Note_off_c, 1, 50, 100
3, 458752, Note_on_c, 1, 47, 110
3, 458876, Note_off_c, 1, 47, 100
3, 458880, Note_on_c, 1, 59, 110
3, 459004, Note_off_c, 1, 59, 100
3, 459008, Note_on_c, 1, 53, 110
3, 459132, Note_off_c, 1, 53, 100
3, 459136, Note_on_c, 1, 50, 110
3, 459260, Note_off_c, 1, 50, 100
3, 459264, Note_on_c, 1, 52, 110
3, 459388, Note_off_c, 1, 52, 100
3, 459392, Note_on_c, 1, 55, 110
3, 459516, Note_off_c, 1, 55, 100
3, 459520, Note_on_c, 1, 60, 110
3, 459644, Note_off_c, 1, 60, 100
3, 459648, Note_on_c, 1, 55, 110
3, 459772, Note_off_c, 1, 55, 100
3, 459776, Note_on_c, 1, 52, 110
3, 459900, Note_off_c, 1, 52, 100
3, 459904, Note_on_c, 1, 48, 110
3, 460028, Note_off_c, 1, 48, 100
3, 460032, Note_on_c, 1, 47, 110
3, 460156, Note_off_c, 1, 47, 100
3, 460160, Note_on_c, 1, 50, 110
3, 460284, Note_off_c, 1, 50, 100
3, 460288, Note_on_c, 1, 53, 110
3, 460412, Note_off_c, 1, 53, 100
3, 460416, Note_on_c, 1, 50, 110
3, 460540, Note_off_c, 1, 50, 100
3, 460544, Note_on_c, 1, 47, 110
3, 460668, Note_off_c, 1, 47, 100
3, 460672, Note_on_c, 1, 43, 110
3, 460796, Note_off_c, 1, 43, 100
3, 460800, Note_on_c, 1, 48, 110
3, 460924, Note_off_c, 1, 48, 100
3, 460928, Note_on_c, 1, 52, 110
3, 461052, Note_off_c, 1, 52, 100
3, 461056, Note_on_c, 1, 55, 110
3, 461180, Note_off_c, 1, 55, 100
3, 461184, Note_on_c, 1, 52, 110
3, 461308, Note_off_c, 1, 52, 100
3, 461312, Note_on_c, 1, 48, 110
3, 461436, Note_off_c, 1, 48, 100
3, 461440, Note_on_c, 1, 43, 110
3, 461564, Note_off_c, 1, 43, 100
3, 461568, Note_on_c, 1, 50, 110
3, 461692, Note_off_c, 1, 50, 100
3, 461696, Note_on_c, 1, 53, 110
3, 461820, Note_off_c, 1, 53, 100
3, 461824, Note_on_c, 1, 55, 110
3, 461948, Note_off_c, 1, 55, 100
3, 461952, Note_on_c, 1, 53, 110
3, 462076, Note_off_c, 1, 53, 100
3, 462080, Note_on_c, 1, 55, 110
3, 462204, Note_off_c, 1, 55, 100
3, 462208, Note_on_c, 1, 62, 110
3, 462332, Note_off_c, 1, 62, 100
3, 462336, Note_on_c, 1, 52, 100
3, 462460, Note_off_c, 1, 52, 100
3, 462464, Note_on_c, 1, 55, 100
3, 462588, Note_off_c, 1, 55, 100
3, 462592, Note_on_c, 1, 60, 100
3, 462716, Note_off_c, 1, 60, 100
3, 462720, Note_on_c, 1, 48, 99
3, 462844, Note_off_c, 1, 48, 100
3, 462848, Note_on_c, 1, 52, 99
3, 462972, Note_off_c, 1, 52, 100
3, 462976, Note_on_c, 1, 55, 98
3, 463100, Note_off_c, 1, 55, 100
3, 463104, Note_on_c, 1, 50, 98
3, 463228, Note_off_c, 1, 50, 100
3, 463232, Note_on_c, 1, 53, 97
3, 463356, Note_off_c, 1, 53, 100
3, 463360, Note_on_c, 1, 55, 97
3, 463484, Note_off_c, 1, 55, 100
3, 463488, Note_on_c, 1, 53, 97
3, 463612, Note_off_c, 1, 53, 100
3, 463616, Note_on_c, 1, 55, 96
3, 463740, Note_off_c, 1, 55, 100
3, 463744, Note_on_c, 1, 62, 96
3, 463868, Note_off_c, 1, 62, 100
3, 463872, Note_on_c, 1, 52, 95
3, 463996, Note_off_c, 1, 52, 100
3, 464000, Note_on_c, 1, 55, 95
3, 464124, Note_off_c, 1, 55, 100
3, 464128, Note_on_c, 1, 60, 94
3, 464252, Note_off_c, 1, 60, 100
3, 464256, Note_on_c, 1, 48, 94
3, 464380, Note_off_c, 1, 48, 100
3, 464384, Note_on_c, 1, 52, 94
3, 464508, Note_off_c, 1, 52, 100
3, 464512, Note_on_c, 1, 55, 93
3, 464636, Note_off_c, 1, 55, 100
3, 464640, Note_on_c, 1, 50, 93
3, 464764, Note_off_c, 1, 50, 100
3, 464768, Note_on_c, 1, 53, 92
3, 464892, Note_off_c, 1, 53, 100
3, 464896, Note_on_c, 1, 55, 92
3, 465020, Note_off_c, 1, 55, 100
3, 465024, Note_on_c, 1, 53, 91
3, 465148, Note_off_c, 1, 53, 100
3, 465152, Note_on_c, 1, 55, 91
3, 465276, Note_off_c, 1, 55, 100
3, 465280, Note_on_c, 1, 62, 91
3, 465404, Note_off_c, 1, 62, 100
3, 465408, Control_c, 1, 64, 127
3, 465408, Note_on_c, 1, 52, 90
3, 465500, Note_off_c, 1, 52, 100
3, 465504, Note_on_c, 1, 55, 90
3, 465596, Note_off_c, 1, 55, 100
3, 465600, Note_on_c, 1, 48, 91
3, 465692, Note_off_c, 1, 48, 100
3, 465696, Note_on_c, 1, 55, 92
3, 465784, Control_c, 1, 64, 0
3, 465788, Note_off_c, 1, 55, 100
3, 465792, Control_c, 1, 64, 127
3, 465792, Note_on_c, 1, 50, 92
3, 465884, Note_off_c, 1, 50, 100
3, 465888, Note_on_c, 1, 55, 93
3, 465980, Note_off_c, 1, 55, 100
3, 465984, Note_on_c, 1, 53, 94
3, 466076, Note_off_c, 1, 53, 100
3, 466080, Note_on_c, 1, 55, 94
3, 466168, Control_c, 1, 64, 0
3, 466172, Note_off_c, 1, 55, 100
3, 466176, Control_c, 1, 64, 127
3, 466176, Note_on_c, 1, 52, 95
3, 466268, Note_off_c, 1, 52, 100
3, 466272, Note_on_c, 1, 55, 96
3, 466364, Note_off_c, 1, 55, 100
3, 466368, Note_on_c, 1, 48, 96
3, 466460, Note_off_c, 1, 48, 100
3, 466464, Note_on_c, 1, 55, 97
3, 466552, Control_c, 1, 64, 0
3, 466556, Note_off_c, 1, 55, 100
3, 466560, Control_c, 1, 64, 127
3, 466560, Note_on_c, 1, 50, 98
3, 466652, Note_off_c, 1, 50, 100
3, 466656, Note_on_c, 1, 55, 98
3, 466748, Note_off_c, 1, 55, 100
3, 466752, Note_on_c, 1, 53, 99
3, 466844, Note_off_c, 1, 53, 100
3, 466848, Note_on_c, 1, 55, 100
3, 466936, Control_c, 1, 64, 0
3, 466940, Note_off_c, 1, 55, 100
3, 466944, Control_c, 1, 64, 127
3, 466944, Note_on_c, 1, 52, 100
3, 467036, Note_off_c, 1, 52, 100
3, 467040, Note_on_c, 1, 55, 101
3, 467132, Note_off_c, 1, 55, 100
3, 467136, Note_on_c, 1, 53, 102
3, 467228, Note_off_c, 1, 53, 100
3, 467232, Note_on_c, 1, 55, 102
3, 467320, Control_c, 1, 64, 0
3, 467324, Note_off_c, 1, 55, 100
3, 467328, Control_c, 1, 64, 127
3, 467328, Note_on_c, 1, 52, 103
3, 467420, Note_off_c, 1, 52, 100
3, 467424, Note_on_c, 1, 55, 104
3, 467516, Note_off_c, 1, 55, 100
3, 467520, Note_on_c, 1, 53, 104
3, 467612, Note_off_c, 1, 53, 100
3, 467616, Note_on_c, 1, 55, 105
3, 467704, Control_c, 1, 64, 0
3, 467708, Note_off_c, 1, 55, 100
3, 467712, Control_c, 1, 64, 127
3, 467712, Note_on_c, 1, 52, 106
3, 467804, Note_off_c, 1, 52, 100
3, 467808, Note_on_c, 1, 55, 106
3, 467900, Note_off_c, 1, 55, 100
3, 467904, Note_on_c, 1, 53, 107
3, 467996, Note_off_c, 1, 53, 100
3, 468000, Note_on_c, 1, 55, 108
3, 468088, Control_c, 1, 64, 0
3, 468092, Note_off_c, 1, 55, 100
3, 468096, Control_c, 1, 64, 127
3, 468096, Note_on_c, 1, 52, 108
3, 468188, Note_off_c, 1, 52, 100
3, 468192, Note_on_c, 1, 55, 109
3, 468284, Note_off_c, 1, 55, 100
3, 468288, Note_on_c, 1, 53, 110
3, 468380, Note_off_c, 1, 53, 100
3, 468384, Note_on_c, 1, 55, 110
3, 468472, Control_c, 1, 64, 0
3, 468476, Note_off_c, 1, 55, 100
3, 468480, Control_c, 1, 64, 127
3, 468480, Note_on_c, 1, 52, 110
3, 468572, Note_off_c, 1, 52, 100
3, 468576, Note_on_c, 1, 55, 110
3, 468668, Note_off_c, 1, 55, 100
3, 468672, Note_on_c, 1, 40, 110
3, 468764, Note_off_c, 1, 40, 100
3, 468768, Note_on_c, 1, 48, 110
3, 468856, Control_c, 1, 64, 0
3, 468860, Note_off_c, 1, 48, 100
3, 468864, Control_c, 1, 64, 127
3, 468864, Note_on_c, 1, 40, 110
3, 468956, Note_off_c, 1, 40, 100
3, 468960, Note_on_c, 1, 48, 110
3, 469052, Note_off_c, 1, 48, 100
3, 469056, Note_on_c, 1, 40, 110
3, 469148, Note_off_c, 1, 40, 100
3, 469152, Note_on_c, 1, 48, 110
3, 469240, Control_c, 1, 64, 0
3, 469244, Note_off_c, 1, 48, 100
3, 469248, Control_c, 1, 64, 127
3, 469248, Note_on_c, 1, 40, 110
3, 469340, Note_off_c, 1, 40, 100
3, 469344, Note_on_c, 1, 48, 110
3, 469436, Note_off_c, 1, 48, 100
3, 469440, Note_on_c, 1, 40, 110
3, 469532, Note_off_c, 1, 40, 100
3, 469536, Note_on_c, 1, 48, 110
3, 469624, Control_c, 1, 64, 0
3, 469628, Note_off_c, 1, 48, 100
3, 469632, Control_c, 1, 64, 127
3, 469632, Note_on_c, 1, 40, 110
3, 469724, Note_off_c, 1, 40, 100
3, 469728, Note_on_c, 1, 48, 110
3, 469820, Note_off_c, 1, 48, 100
3, 469824, Note_on_c, 1, 40, 110
3, 469916, Note_off_c, 1, 40, 100
3, 469920, Note_on_c, 1, 48, 110
3, 470008, Control_c, 1, 64, 0
3, 470012, Note_off_c, 1, 48, 100
3, 470016, Control_c, 1, 64, 127
3, 470016, Note_on_c, 1, 40, 110
3, 470108, Note_off_c, 1, 40, 100
3, 470112, Note_on_c, 1, 48, 110
3, 470204, Note_off_c, 1, 48, 100
3, 470208, Note_on_c, 1, 40, 110
3, 470300, Note_off_c, 1, 40, 100
3, 470304, Note_on_c, 1, 48, 110
3, 470392, Control_c, 1, 64, 0
3, 470396, Note_off_c, 1, 48, 100
3, 470400, Control_c, 1, 64, 127
3, 470400, Note_on_c, 1, 40, 110
3, 470492, Note_off_c, 1, 40, 100
3, 470496, Note_on_c, 1, 48, 110
3, 470588, Note_off_c, 1, 48, 100
3, 470592, Note_on_c, 1, 40, 110
3, 470684, Note_off_c, 1, 40, 100
3, 470688, Note_on_c, 1, 48, 110
3, 470776, Control_c, 1, 64, 0
3, 470780, Note_off_c, 1, 48, 100
3, 470784, Control_c, 1, 64, 127
3, 470784, Note_on_c, 1, 40, 110
3, 470876, Note_off_c, 1, 40, 100
3, 470880, Note_on_c, 1, 48, 110
3, 470972, Note_off_c, 1, 48, 100
3, 470976, Note_on_c, 1, 40, 110
3, 471068, Note_off_c, 1, 40, 100
3, 471072, Note_on_c, 1, 48, 110
3, 471160, Control_c, 1, 64, 0
3, 471164, Note_off_c, 1, 48, 100
3, 471168, Control_c, 1, 64, 127
3, 471168, Note_on_c, 1, 40, 110
3, 471260, Note_off_c, 1, 40, 100
3, 471264, Note_on_c, 1, 48, 110
3, 471356, Note_off_c, 1, 48, 100
3, 471360, Note_on_c, 1, 40, 110
3, 471452, Note_off_c, 1, 40, 100
3, 471456, Note_on_c, 1, 48, 110
3, 471544, Control_c, 1, 64, 0
3, 471548, Note_off_c, 1, 48, 100
3, 471552, Note_on_c, 1, 48, 120
3, 471552, Note_on_c, 1, 45, 120
3, 471552, Note_on_c, 1, 41, 120
3, 471740, Note_off_c, 1, 48, 100
3, 471740, Note_off_c, 1, 45, 100
3, 471740, Note_off_c, 1, 41, 100
3, 471744, Note_on_c, 1, 48, 120
3, 471744, Note_on_c, 1, 45, 120
3, 471744, Note_on_c, 1, 41, 120
3, 471932, Note_off_c, 1, 48, 100
3, 471932, Note_off_c, 1, 45, 100
3, 471932, Note_off_c, 1, 41, 100
3, 472128, Note_on_c, 1, 48, 120
3, 472128, Note_on_c, 1, 45, 120
3, 472128, Note_on_c, 1, 41, 120
3, 472316, Note_off_c, 1, 48, 100
3, 472316, Note_off_c, 1, 45, 100
3, 472316, Note_off_c, 1, 41, 100
3, 472320, Note_on_c, 1, 48, 120
3, 472320, Note_on_c, 1, 45, 120
3, 472320, Note_on_c, 1, 41, 120
3, 472508, Note_off_c, 1, 48, 100
3, 472508, Note_off_c, 1, 45, 100
3, 472508, Note_off_c, 1, 41, 100
3, 472512, Note_on_c, 1, 48, 120
3, 472512, Note_on_c, 1, 45, 120
3, 472512, Note_on_c, 1, 41, 120
3, 472700, Note_off_c, 1, 48, 100
3, 472700, Note_off_c, 1, 45, 100
3, 472700, Note_off_c, 1, 41, 100
3, 472896, Note_on_c, 1, 48, 120
3, 472896, Note_on_c, 1, 45, 120
3, 472896, Note_on_c, 1, 41, 120
3, 473084, Note_off_c, 1, 48, 100
3, 473084, Note_off_c, 1, 45, 100
3, 473084, Note_off_c, 1, 41, 100
3, 473088, Note_on_c, 1, 48, 120
3, 473088, Note_on_c, 1, 45, 120
3, 473088, Note_on_c, 1, 41, 120
3, 473276, Note_off_c, 1, 48, 100
3, 473276, Note_off_c, 1, 45, 100
3, 473276, Note_off_c, 1, 41, 100
3, 473280, Note_on_c, 1, 48, 120
3, 473280, Note_on_c, 1, 45, 120
3, 473280, Note_on_c, 1, 41, 120
3, 473468, Note_off_c, 1, 48, 100
3, 473468, Note_off_c, 1, 45, 100
3, 473468, Note_off_c, 1, 41, 100
3, 473664, Note_on_c, 1, 48, 120
3, 473664, Note_on_c, 1, 45, 120
3, 473664, Note_on_c, 1, 41, 120
3, 473852, Note_off_c, 1, 48, 100
3, 473852, Note_off_c, 1, 45, 100
3, 473852, Note_off_c, 1, 41, 100
3, 473856, Note_on_c, 1, 48, 120
3, 473856, Note_on_c, 1, 45, 120
3, 473856, Note_on_c, 1, 41, 120
3, 474044, Note_off_c, 1, 48, 100
3, 474044, Note_off_c, 1, 45, 100
3, 474044, Note_off_c, 1, 41, 100
3, 474048, Note_on_c, 1, 48, 120
3, 474048, Note_on_c, 1, 45, 120
3, 474048, Note_on_c, 1, 41, 120
3, 474236, Note_off_c, 1, 48, 100
3, 474236, Note_off_c, 1, 45, 100
3, 474236, Note_off_c, 1, 41, 100
3, 474432, Note_on_c, 1, 48, 120
3, 474432, Note_on_c, 1, 45, 120
3, 474432, Note_on_c, 1, 41, 120
3, 474620, Note_off_c, 1, 48, 100
3, 474620, Note_off_c, 1, 45, 100
3, 474620, Note_off_c, 1, 41, 100
3, 474624, Note_on_c, 1, 50, 120
3, 474624, Note_on_c, 1, 48, 120
3, 474624, Note_on_c, 1, 45, 120
3, 474624, Note_on_c, 1, 42, 120
3, 474812, Note_off_c, 1, 50, 100
3, 474812, Note_off_c, 1, 48, 100
3, 474812, Note_off_c, 1, 45, 100
3, 474812, Note_off_c, 1, 42, 100
3, 474816, Note_on_c, 1, 50, 120
3, 474816, Note_on_c, 1, 48, 120
3, 474816, Note_on_c, 1, 45, 120
3, 474816, Note_on_c, 1, 42, 120
3, 475004, Note_off_c, 1, 50, 100
3, 475004, Note_off_c, 1, 48, 100
3, 475004, Note_off_c, 1, 45, 100
3, 475004, Note_off_c, 1, 42, 100
3, 475200, Note_on_c, 1, 50, 120
3, 475200, Note_on_c, 1, 48, 120
3, 475200, Note_on_c, 1, 45, 120
3, 475200, Note_on_c, 1, 42, 120
3, 475388, Note_off_c, 1, 50, 100
3, 475388, Note_off_c, 1, 48, 100
3, 475388, Note_off_c, 1, 45, 100
3, 475388, Note_off_c, 1, 42, 100
3, 475392, Note_on_c, 1, 50, 120
3, 475392, Note_on_c, 1, 48, 120
3, 475392, Note_on_c, 1, 45, 120
3, 475392, Note_on_c, 1, 42, 120
3, 475580, Note_off_c, 1, 50, 100
3, 475580, Note_off_c, 1, 48, 100
3, 475580, Note_off_c, 1, 45, 100
3, 475580, Note_off_c, 1, 42, 100
3, 475584, Note_on_c, 1, 50, 120
3, 475584, Note_on_c, 1, 48, 120
3, 475584, Note_on_c, 1, 45, 120
3, 475584, Note_on_c, 1, 42, 120
3, 475772, Note_off_c, 1, 50, 100
3, 475772, Note_off_c, 1, 48, 100
3, 475772, Note_off_c, 1, 45, 100
3, 475772, Note_off_c, 1, 42, 100
3, 475968, Note_on_c, 1, 50, 120
3, 475968, Note_on_c, 1, 48, 120
3, 475968, Note_on_c, 1, 45, 120
3, 475968, Note_on_c, 1, 42, 120
3, 476156, Note_off_c, 1, 50, 100
3, 476156, Note_off_c, 1, 48, 100
3, 476156, Note_off_c, 1, 45, 100
3, 476156, Note_off_c, 1, 42, 100
3, 476160, Note_on_c, 1, 50, 120
3, 476160, Note_on_c, 1, 48, 120
3, 476160, Note_on_c, 1, 45, 120
3, 476160, Note_on_c, 1, 42, 120
3, 476348, Note_off_c, 1, 50, 100
3, 476348, Note_off_c, 1, 48, 100
3, 476348, Note_off_c, 1, 45, 100
3, 476348, Note_off_c, 1, 42, 100
3, 476352, Note_on_c, 1, 50, 120
3, 476352, Note_on_c, 1, 48, 120
3, 476352, Note_on_c, 1, 45, 120
3, 476352, Note_on_c, 1, 42, 120
3, 476540, Note_off_c, 1, 50, 100
3, 476540, Note_off_c, 1, 48, 100
3, 476540, Note_off_c, 1, 45, 100
3, 476540, Note_off_c, 1, 42, 100
3, 476736, Note_on_c, 1, 50, 120
3, 476736, Note_on_c, 1, 48, 120
3, 476736, Note_on_c, 1, 45, 120
3, 476736, Note_on_c, 1, 42, 120
3, 476924, Note_off_c, 1, 50, 100
3, 476924, Note_off_c, 1, 48, 100
3, 476924, Note_off_c, 1, 45, 100
3, 476924, Note_off_c, 1, 42, 100
3, 476928, Note_on_c, 1, 50, 120
3, 476928, Note_on_c, 1, 48, 120
3, 476928, Note_on_c, 1, 45, 120
3, 476928, Note_on_c, 1, 42, 120
3, 477116, Note_off_c, 1, 50, 100
3, 477116, Note_off_c, 1, 48, 100
3, 477116, Note_off_c, 1, 45, 100
3, 477116, Note_off_c, 1, 42, 100
3, 477120, Note_on_c, 1, 50, 120
3, 477120, Note_on_c, 1, 48, 120
3, 477120, Note_on_c, 1, 45, 120
3, 477120, Note_on_c, 1, 42, 120
3, 477308, Note_off_c, 1, 50, 100
3, 477308, Note_off_c, 1, 48, 100
3, 477308, Note_off_c, 1, 45, 100
3, 477308, Note_off_c, 1, 42, 100
3, 477504, Note_on_c, 1, 50, 120
3, 477504, Note_on_c, 1, 48, 120
3, 477504, Note_on_c, 1, 45, 120
3, 477504, Note_on_c, 1, 42, 120
3, 477692, Note_off_c, 1, 50, 100
3, 477692, Note_off_c, 1, 48, 100
3, 477692, Note_off_c, 1, 45, 100
3, 477692, Note_off_c, 1, 42, 100
3, 477696, Note_on_c, 1, 43, 120
3, 477788, Note_off_c, 1, 43, 100
3, 477792, Note_on_c, 1, 48, 120
3, 477884, Note_off_c, 1, 48, 100
3, 477888, Note_on_c, 1, 52, 120
3, 477980, Note_off_c, 1, 52, 100
3, 477984, Note_on_c, 1, 55, 120
3, 478076, Note_off_c, 1, 55, 100
3, 478080, Note_on_c, 1, 43, 120
3, 478172, Note_off_c, 1, 43, 100
3, 478176, Note_on_c, 1, 48, 120
3, 478268, Note_off_c, 1, 48, 100
3, 478272, Note_on_c, 1, 52, 120
3, 478364, Note_off_c, 1, 52, 100
3, 478368, Note_on_c, 1, 55, 120
3, 478460, Note_off_c, 1, 55, 100
3, 478464, Note_on_c, 1, 43, 120
3, 478556, Note_off_c, 1, 43, 100
3, 478560, Note_on_c, 1, 48, 120
3, 478652, Note_off_c, 1, 48, 100
3, 478656, Note_on_c, 1, 52, 120
3, 478748, Note_off_c, 1, 52, 100
3, 478752, Note_on_c, 1, 55, 120
3, 478844, Note_off_c, 1, 55, 100
3, 478848, Note_on_c, 1, 43, 120
3, 478940, Note_off_c, 1, 43, 100
3, 478944, Note_on_c, 1, 48, 120
3, 479036, Note_off_c, 1, 48, 100
3, 479040, Note_on_c, 1, 52, 120
3, 479132, Note_off_c, 1, 52, 100
3, 479136, Note_on_c, 1, 55, 120
3, 479228, Note_off_c, 1, 55, 100
3, 479232, Note_on_c, 1, 43, 120
3, 479324, Note_off_c, 1, 43, 100
3, 479328, Note_on_c, 1, 48, 120
3, 479420, Note_off_c, 1, 48, 100
3, 479424, Note_on_c, 1, 52, 120
3, 479516, Note_off_c, 1, 52, 100
3, 479520, Note_on_c, 1, 55, 120
3, 479612, Note_off_c, 1, 55, 100
3, 479616, Note_on_c, 1, 43, 120
3, 479708, Note_off_c, 1, 43, 100
3, 479712, Note_on_c, 1, 48, 120
3, 479804, Note_off_c, 1, 48, 100
3, 479808, Note_on_c, 1, 52, 120
3, 479900, Note_off_c, 1, 52, 100
3, 479904, Note_on_c, 1, 55, 120
3, 479996, Note_off_c, 1, 55, 100
3, 480000, Note_on_c, 1, 52, 120
3, 480188, Note_off_c, 1, 52, 100
3, 480192, Note_on_c, 1, 52, 120
3, 480380, Note_off_c, 1, 52, 100
3, 480384, Note_on_c, 1, 48, 120
3, 480572, Note_off_c, 1, 48, 100
3, 480576, Note_on_c, 1, 43, 120
3, 480764, Note_off_c, 1, 43, 100
3, 480768, Note_on_c, 1, 55, 120
3, 480956, Note_off_c, 1, 55, 100
3, 480960, Note_on_c, 1, 52, 80
3, 481148, Note_off_c, 1, 52, 100
3, 481152, Note_on_c, 1, 60, 80
3, 481340, Note_off_c, 1, 60, 100
3, 481344, Note_on_c, 1, 55, 80
3, 481532, Note_off_c, 1, 55, 100
3, 481536, Note_on_c, 1, 64, 80
3, 481724, Note_off_c, 1, 64, 100
3, 481728, Note_on_c, 1, 60, 80
3, 481916, Note_off_c, 1, 60, 100
3, 481920, Note_on_c, 1, 67, 80
3, 482108, Note_off_c, 1, 67, 100
3, 482112, Note_on_c, 1, 64, 80
3, 482300, Note_off_c, 1, 64, 100
3, 482304, Note_on_c, 1, 72, 80
3, 482492, Note_off_c, 1, 72, 100
3, 482496, Note_on_c, 1, 67, 80
3, 482684, Note_off_c, 1, 67, 100
3, 482688, Note_on_c, 1, 76, 80
3, 482876, Note_off_c, 1, 76, 100
3, 482880, Note_on_c, 1, 72, 80
3, 483068, Note_off_c, 1, 72, 100
3, 483072, Note_on_c, 1, 79, 80
3, 483260, Note_off_c, 1, 79, 100
3, 483264, Note_on_c, 1, 76, 80
3, 483452, Note_off_c, 1, 76, 100
3, 483456, Note_on_c, 1, 84, 80
3, 483644, Note_off_c, 1, 84, 100
3, 483648, Note_on_c, 1, 79, 80
3, 483836, Note_off_c, 1, 79, 100
3, 483840, Note_on_c, 1, 83, 80
3, 484028, Note_off_c, 1, 83, 100
3, 484032, Note_on_c, 1, 79, 79
3, 484220, Note_off_c, 1, 79, 100
3, 484224, Note_on_c, 1, 83, 78
3, 484412, Note_off_c, 1, 83, 100
3, 484416, Note_on_c, 1, 79, 77
3, 484604, Note_off_c, 1, 79, 100
3, 484608, Note_on_c, 1, 83, 75
3, 484796, Note_off_c, 1, 83, 100
3, 484800, Note_on_c, 1, 79, 74
3, 484988, Note_off_c, 1, 79, 100
3, 484992, Note_on_c, 1, 83, 73
3, 485180, Note_off_c, 1, 83, 100
3, 485184, Note_on_c, 1, 79, 71
3, 485372, Note_off_c, 1, 79, 100
3, 485376, Note_on_c, 1, 83, 70
3, 485564, Note_off_c, 1, 83, 100
3, 485568, Note_on_c, 1, 79, 70
3, 485756, Note_off_c, 1, 79, 100
3, 485760, Note_on_c, 1, 83, 70
3, 485948, Note_off_c, 1, 83, 100
3, 485952, Note_on_c, 1, 79, 70
3, 486140, Note_off_c, 1, 79, 100
3, 486144, Note_on_c, 1, 83, 70
3, 486332, Note_off_c, 1, 83, 100
3, 486336, Note_on_c, 1, 79, 70
3, 486524, Note_off_c, 1, 79, 100
3, 486528, Note_on_c, 1, 83, 70
3, 486716, Note_off_c, 1, 83, 100
3, 486720, Note_on_c, 1, 79, 70
3, 486908, Note_off_c, 1, 79, 100
3, 486912, Note_on_c, 1, 83, 70
3, 486960, Note_on_c, 1, 84, 70
3, 486996, Note_off_c, 1, 83, 100
3, 487008, Note_on_c, 1, 83, 71
3, 487048, Note_off_c, 1, 84, 100
3, 487056, Note_on_c, 1, 84, 71
3, 487088, Note_off_c, 1, 83, 100
3, 487104, Note_on_c, 1, 83, 72
3, 487136, Note_off_c, 1, 84, 100
3, 487152, Note_on_c, 1, 84, 73
3, 487188, Note_off_c, 1, 83, 100
3, 487200, Note_on_c, 1, 83, 73
3, 487240, Note_off_c, 1, 84, 100
3, 487248, Note_on_c, 1, 84, 74
3, 487280, Note_off_c, 1, 83, 100
3, 487296, Note_on_c, 1, 83, 75
3, 487328, Note_off_c, 1, 84, 100
3, 487344, Note_on_c, 1, 84, 75
3, 487380, Note_off_c, 1, 83, 100
3, 487392, Note_on_c, 1, 83, 76
3, 487432, Note_off_c, 1, 84, 100
3, 487440, Note_on_c, 1, 84, 77
3, 487472, Note_off_c, 1, 83, 100
3, 487488, Note_on_c, 1, 83, 77
3, 487520, Note_off_c, 1, 84, 100
3, 487536, Note_on_c, 1, 84, 78
3, 487572, Note_off_c, 1, 83, 100
3, 487584, Note_on_c, 1, 83, 78
3, 487624, Note_off_c, 1, 84, 100
3, 487632, Note_on_c, 1, 84, 79
3, 487664, Note_off_c, 1, 83, 100
3, 487680, Note_on_c, 1, 83, 80
3, 487712, Note_off_c, 1, 84, 100
3, 487728, Note_on_c, 1, 84, 80
3, 487764, Note_off_c, 1, 83, 100
3, 487776, Note_on_c, 1, 83, 81
3, 487816, Note_off_c, 1, 84, 100
3, 487824, Note_on_c, 1, 84, 82
3, 487856, Note_off_c, 1, 83, 100
3, 487872, Note_on_c, 1, 83, 82
3, 487904, Note_off_c, 1, 84, 100
3, 487920, Note_on_c, 1, 84, 83
3, 487956, Note_off_c, 1, 83, 100
3, 487968, Note_on_c, 1, 83, 84
3, 488008, Note_off_c, 1, 84, 100
3, 488016, Note_on_c, 1, 84, 84
3, 488048, Note_off_c, 1, 83, 100
3, 488064, Note_on_c, 1, 83, 85
3, 488096, Note_off_c, 1, 84, 100
3, 488112, Note_on_c, 1, 84, 85
3, 488148, Note_off_c, 1, 83, 100
3, 488160, Note_on_c, 1, 83, 86
3, 488200, Note_off_c, 1, 84, 100
3, 488208, Note_on_c, 1, 84, 87
3, 488240, Note_off_c, 1, 83, 100
3, 488256, Note_on_c, 1, 83, 87
3, 488288, Note_off_c, 1, 84, 100
3, 488304, Note_on_c, 1, 84, 88
3, 488340, Note_off_c, 1, 83, 100
3, 488352, Note_on_c, 1, 83, 89
3, 488392, Note_off_c, 1, 84, 100
3, 488400, Note_on_c, 1, 84, 89
3, 488432, Note_off_c, 1, 83, 100
3, 488448, Note_on_c, 1, 83, 90
3, 488480, Note_off_c, 1, 84, 100
3, 488496, Note_on_c, 1, 84, 91
3, 488532, Note_off_c, 1, 83, 100
3, 488544, Note_on_c, 1, 83, 91
3, 488584, Note_off_c, 1, 84, 100
3, 488592, Note_on_c, 1, 84, 92
3, 488624, Note_off_c, 1, 83, 100
3, 488640, Note_on_c, 1, 83, 93
3, 488672, Note_off_c, 1, 84, 100
3, 488688, Note_on_c, 1, 84, 93
3, 488724, Note_off_c, 1, 83, 100
3, 488736, Note_on_c, 1, 83, 94
3, 488776, Note_off_c, 1, 84, 100
3, 488784, Note_on_c, 1, 84, 94
3, 488816, Note_off_c, 1, 83, 100
3, 488832, Note_on_c, 1, 83, 95
3, 488864, Note_off_c, 1, 84, 100
3, 488880, Note_on_c, 1, 84, 96
3, 488916, Note_off_c, 1, 83, 100
3, 488928, Note_on_c, 1, 83, 96
3, 488968, Note_off_c, 1, 84, 100
3, 488976, Note_on_c, 1, 84, 97
3, 489008, Note_off_c, 1, 83, 100
3, 489024, Note_on_c, 1, 83, 98
3, 489056, Note_off_c, 1, 84, 100
3, 489072, Note_on_c, 1, 84, 98
3, 489108, Note_off_c, 1, 83, 100
3, 489120, Note_on_c, 1, 83, 99
3, 489160, Note_off_c, 1, 84, 100
3, 489168, Note_on_c, 1, 84, 100
3, 489200, Note_off_c, 1, 83, 100
3, 489216, Note_on_c, 1, 83, 100
3, 489248, Note_off_c, 1, 84, 100
3, 489264, Note_on_c, 1, 84, 101
3, 489300, Note_off_c, 1, 83, 100
3, 489312, Note_on_c, 1, 83, 101
3, 489352, Note_off_c, 1, 84, 100
3, 489360, Note_on_c, 1, 84, 102
3, 489392, Note_off_c, 1, 83, 100
3, 489408, Note_on_c, 1, 83, 103
3, 489440, Note_off_c, 1, 84, 100
3, 489456, Note_on_c, 1, 84, 103
3, 489492, Note_off_c, 1, 83, 100
3, 489504, Note_on_c, 1, 83, 104
3, 489544, Note_off_c, 1, 84, 100
3, 489552, Note_on_c, 1, 84, 105
3, 489584, Note_off_c, 1, 83, 100
3, 489600, Note_on_c, 1, 83, 105
3, 489632, Note_off_c, 1, 84, 100
3, 489648, Note_on_c, 1, 84, 106
3, 489684, Note_off_c, 1, 83, 100
3, 489696, Note_on_c, 1, 83, 107
3, 489736, Note_off_c, 1, 84, 100
3, 489744, Note_on_c, 1, 84, 107
3, 489776, Note_off_c, 1, 83, 100
3, 489792, Note_on_c, 1, 83, 108
3, 489824, Note_off_c, 1, 84, 100
3, 489840, Note_on_c, 1, 84, 109
3, 489876, Note_off_c, 1, 83, 100
3, 489888, Note_on_c, 1, 81, 109
3, 489928, Note_off_c, 1, 84, 100
3, 489936, Note_on_c, 1, 83, 110
3, 489968, Note_off_c, 1, 81, 100
3, 489980, Note_off_c, 1, 83, 100
3, 489984, Note_on_c, 1, 72, 110
3, 489984, Note_on_c, 1, 60, 110
3, 490748, Note_off_c, 1, 72, 100
3, 490752, Note_on_c, 1, 70, 80
3, 490752, Note_on_c, 1, 67, 80
3, 490752, Note_on_c, 1, 64, 80
3, 491516, Note_off_c, 1, 70, 100
3, 491516, Note_off_c, 1, 67, 100
3, 491516, Note_off_c, 1, 64, 100
3, 491520, Note_on_c, 1, 68, 80
3, 491520, Note_on_c, 1, 65, 80
3, 492284, Note_off_c, 1, 68, 100
3, 492284, Note_off_c, 1, 65, 100
3, 492288, Note_on_c, 1, 70, 80
3, 492288, Note_on_c, 1, 67, 80
3, 492288, Note_on_c, 1, 64, 80
3, 493052, Note_off_c, 1, 60, 100
3, 493052, Note_off_c, 1, 70, 100
3, 493052, Note_off_c, 1, 67, 100
3, 493052, Note_off_c, 1, 64, 100
3, 493056, Note_on_c, 1, 68, 80
3, 493056, Note_on_c, 1, 65, 80
3, 493436, Note_off_c, 1, 68, 100
3, 493436, Note_off_c, 1, 65, 100
3, 493824, Note_on_c, 1, 65, 80
3, 493824, Note_on_c, 1, 61, 80
3, 493824, Note_on_c, 1, 56, 80
3, 493824, Note_on_c, 1, 53, 80
3, 494588, Note_off_c, 1, 65, 100
3, 494588, Note_off_c, 1, 61, 100
3, 494588, Note_off_c, 1, 56, 100
3, 494588, Note_off_c, 1, 53, 100
3, 494592, Note_on_c, 1, 63, 80
3, 494592, Note_on_c, 1, 60, 80
3, 494592, Note_on_c, 1, 55, 80
3, 495356, Note_off_c, 1, 63, 100
3, 495356, Note_off_c, 1, 60, 100
3, 495356, Note_off_c, 1, 55, 100
3, 495360, Note_on_c, 1, 62, 80
3, 495360, Note_on_c, 1, 59, 80
3, 495360, Note_on_c, 1, 55, 80
3, 496124, Note_off_c, 1, 62, 100
3, 496124, Note_off_c, 1, 59, 100
3, 496124, Note_off_c, 1, 55, 100
3, 496128, Note_on_c, 1, 60, 110
3, 496128, Note_on_c, 1, 48, 110
3, 496892, Note_off_c, 1, 60, 100
3, 496896, Note_on_c, 1, 58, 80
3, 496896, Note_on_c, 1, 55, 80
3, 496896, Note_on_c, 1, 52, 80
3, 497660, Note_off_c, 1, 58, 100
3, 497660, Note_off_c, 1, 55, 100
3, 497660, Note_off_c, 1, 52, 100
3, 497664, Note_on_c, 1, 57, 80
3, 497664, Note_on_c, 1, 53, 80
3, 498428, Note_off_c, 1, 57, 100
3, 498428, Note_off_c, 1, 53, 100
3, 498432, Note_on_c, 1, 58, 80
3, 498432, Note_on_c, 1, 55, 80
3, 498432, Note_on_c, 1, 52, 80
3, 499196, Note_off_c, 1, 48, 100
3, 499196, Note_off_c, 1, 58, 100
3, 499196, Note_off_c, 1, 55, 100
3, 499196, Note_off_c, 1, 52, 100
3, 499200, Note_on_c, 1, 57, 80
3, 499200, Note_on_c, 1, 53, 80
3, 499580, Note_off_c, 1, 57, 100
3, 499580, Note_off_c, 1, 53, 100
3, 499968, Note_on_c, 1, 53, 80
3, 499968, Note_on_c, 1, 50, 80
3, 499968, Note_on_c, 1, 45, 80
3, 499968, Note_on_c, 1, 41, 80
3, 500732, Note_off_c, 1, 53, 100
3, 500732, Note_off_c, 1, 50, 100
3, 500732, Note_off_c, 1, 45, 100
3, 500732, Note_off_c, 1, 41, 100
3, 500736, Note_on_c, 1, 52, 80
3, 500736, Note_on_c, 1, 48, 80
3, 500736, Note_on_c, 1, 43, 80
3, 501500, Note_off_c, 1, 52, 100
3, 501500, Note_off_c, 1, 48, 100
3, 501504, Note_on_c, 1, 50, 80
3, 501504, Note_on_c, 1, 47, 80
3, 502268, Note_off_c, 1, 43, 100
3, 502268, Note_off_c, 1, 50, 100
3, 502268, Note_off_c, 1, 47, 100
3, 502272, Note_on_c, 1, 52, 80
3, 502272, Note_on_c, 1, 48, 80
3, 502652, Note_off_c, 1, 52, 100
3, 502652, Note_off_c, 1, 48, 100
3, 502656, Note_on_c, 1, 40, 80
3, 502656, Note_on_c, 1, 48, 80
3, 503036, Note_off_c, 1, 40, 100
3, 503040, Note_on_c, 1, 41, 80
3, 503228, Note_off_c, 1, 48, 100
3, 503232, Note_on_c, 1, 50, 80
3, 503420, Note_off_c, 1, 50, 100
3, 503424, Note_on_c, 1, 52, 80
3, 503612, Note_off_c, 1, 52, 100
3, 503616, Note_on_c, 1, 53, 80
3, 503804, Note_off_c, 1, 41, 100
3, 503804, Note_off_c, 1, 53, 100
3, 503808, Note_on_c, 1, 55, 80
3, 503808, Note_on_c, 1, 52, 80
3, 504572, Note_off_c, 1, 55, 100
3, 504572, Note_off_c, 1, 52, 100
3, 504576, Note_on_c, 1, 53, 80
3, 504576, Note_on_c, 1, 50, 80
3, 505340, Note_off_c, 1, 53, 100
3, 505340, Note_off_c, 1, 50, 100
3, 505344, Note_on_c, 1, 52, 80
3, 505344, Note_on_c, 1, 48, 80
3, 505724, Note_off_c, 1, 52, 100
3, 505724, Note_off_c, 1, 48, 100
3, 505728, Note_on_c, 1, 45, 80
3, 505728, Note_on_c, 1, 53, 80
3, 506108, Note_off_c, 1, 45, 100
3, 506112, Note_on_c, 1, 46, 80
3, 506300, Note_off_c, 1, 53, 100
3, 506304, Note_on_c, 1, 55, 80
3, 506492, Note_off_c, 1, 55, 100
3, 506496, Note_on_c, 1, 57, 80
3, 506684, Note_off_c, 1, 57, 100
3, 506688, Note_on_c, 1, 58, 80
3, 506876, Note_off_c, 1, 46, 100
3, 506876, Note_off_c, 1, 58, 100
3, 506880, Note_on_c, 1, 48, 80
3, 506880, Note_on_c, 1, 60, 80
3, 506880, Note_on_c, 1, 57, 80
3, 507644, Note_off_c, 1, 60, 100
3, 507644, Note_off_c, 1, 57, 100
3, 507648, Note_on_c, 1, 58, 80
3, 507648, Note_on_c, 1, 55, 80
3, 508412, Note_off_c, 1, 48, 100
3, 508412, Note_off_c, 1, 58, 100
3, 508412, Note_off_c, 1, 55, 100
3, 508416, Note_on_c, 1, 56, 80
3, 508416, Note_on_c, 1, 53, 80
3, 508796, Note_off_c, 1, 56, 100
3, 508796, Note_off_c, 1, 53, 100
3, 508800, Note_on_c, 1, 44, 80
3, 508800, Note_on_c, 1, 53, 80
3, 509180, Note_off_c, 1, 44, 100
3, 509184, Note_on_c, 1, 46, 80
3, 509372, Note_off_c, 1, 53, 100
3, 509376, Note_on_c, 1, 55, 80
3, 509564, Note_off_c, 1, 55, 100
3, 509568, Note_on_c, 1, 56, 80
3, 509756, Note_off_c, 1, 56, 100
3, 509760, Note_on_c, 1, 58, 80
3, 509948, Note_off_c, 1, 46, 100
3, 509948, Note_off_c, 1, 58, 100
3, 509952, Note_on_c, 1, 48, 80
3, 509952, Note_on_c, 1, 60, 80
3, 509952, Note_on_c, 1, 56, 80
3, 510716, Note_off_c, 1, 60, 100
3, 510716, Note_off_c, 1, 56, 100
3, 510720, Note_on_c, 1, 58, 80
3, 510720, Note_on_c, 1, 55, 80
3, 511484, Note_off_c, 1, 48, 100
3, 511484, Note_off_c, 1, 58, 100
3, 511484, Note_off_c, 1, 55, 100
3, 511488, Note_on_c, 1, 56, 80
3, 511488, Note_on_c, 1, 53, 80
3, 511488, Note_on_c, 1, 49, 80
3, 511676, Note_off_c, 1, 56, 100
3, 511676, Note_off_c, 1, 53, 100
3, 511676, Note_off_c, 1, 49, 100
3, 511680, Note_on_c, 1, 44, 80
3, 511680, Note_on_c, 1, 37, 80
3, 511868, Note_off_c, 1, 44, 100
3, 511868, Note_off_c, 1, 37, 100
3, 511872, Note_on_c, 1, 44, 80
3, 511872, Note_on_c, 1, 37, 80
3, 512060, Note_off_c, 1, 44, 100
3, 512060, Note_off_c, 1, 37, 100
3, 512064, Note_on_c, 1, 44, 80
3, 512064, Note_on_c, 1, 37, 80
3, 512252, Note_off_c, 1, 44, 100
3, 512252, Note_off_c, 1, 37, 100
3, 512256, Note_on_c, 1, 44, 80
3, 512256, Note_on_c, 1, 37, 80
3, 512444, Note_off_c, 1, 44, 100
3, 512444, Note_off_c, 1, 37, 100
3, 512448, Note_on_c, 1, 44, 80
3, 512448, Note_on_c, 1, 37, 80
3, 512636, Note_off_c, 1, 44, 100
3, 512636, Note_off_c, 1, 37, 100
3, 512640, Note_on_c, 1, 44, 80
3, 512640, Note_on_c, 1, 37, 80
3, 512828, Note_off_c, 1, 44, 100
3, 512828, Note_off_c, 1, 37, 100
3, 512832, Note_on_c, 1, 44, 80
3, 512832, Note_on_c, 1, 37, 80
3, 513020, Note_off_c, 1, 44, 100
3, 513020, Note_off_c, 1, 37, 100
3, 513024, Note_on_c, 1, 44, 80
3, 513024, Note_on_c, 1, 37, 80
3, 513212, Note_off_c, 1, 44, 100
3, 513212, Note_off_c, 1, 37, 100
3, 513216, Note_on_c, 1, 44, 80
3, 513216, Note_on_c, 1, 37, 80
3, 513404, Note_off_c, 1, 44, 100
3, 513404, Note_off_c, 1, 37, 100
3, 513408, Note_on_c, 1, 44, 80
3, 513408, Note_on_c, 1, 37, 80
3, 513596, Note_off_c, 1, 44, 100
3, 513596, Note_off_c, 1, 37, 100
3, 513600, Note_on_c, 1, 44, 80
3, 513600, Note_on_c, 1, 37, 80
3, 513788, Note_off_c, 1, 44, 100
3, 513788, Note_off_c, 1, 37, 100
3, 513792, Note_on_c, 1, 44, 80
3, 513792, Note_on_c, 1, 37, 80
3, 513980, Note_off_c, 1, 44, 100
3, 513980, Note_off_c, 1, 37, 100
3, 513984, Note_on_c, 1, 44, 80
3, 513984, Note_on_c, 1, 37, 80
3, 514172, Note_off_c, 1, 44, 100
3, 514172, Note_off_c, 1, 37, 100
3, 514176, Note_on_c, 1, 37, 80
3, 514176, Note_on_c, 1, 46, 80
3, 514364, Note_off_c, 1, 37, 100
3, 514364, Note_off_c, 1, 46, 100
3, 514368, Note_on_c, 1, 37, 80
3, 514368, Note_on_c, 1, 46, 80
3, 514556, Note_off_c, 1, 37, 100
3, 514556, Note_off_c, 1, 46, 100
3, 514560, Note_on_c, 1, 44, 80
3, 514560, Note_on_c, 1, 39, 80
3, 514560, Note_on_c, 1, 36, 80
3, 514748, Note_off_c, 1, 44, 100
3, 514748, Note_off_c, 1, 39, 100
3, 514748, Note_off_c, 1, 36, 100
3, 514752, Note_on_c, 1, 44, 80
3, 514752, Note_on_c, 1, 39, 80
3, 514752, Note_on_c, 1, 36, 80
3, 514940, Note_off_c, 1, 44, 100
3, 514940, Note_off_c, 1, 39, 100
3, 514940, Note_off_c, 1, 36, 100
3, 514944, Note_on_c, 1, 44, 80
3, 514944, Note_on_c, 1, 39, 80
3, 514944, Note_on_c, 1, 36, 80
3, 515132, Note_off_c, 1, 44, 100
3, 515132, Note_off_c, 1, 39, 100
3, 515132, Note_off_c, 1, 36, 100
3, 515136, Note_on_c, 1, 44, 80
3, 515136, Note_on_c, 1, 39, 80
3, 515136, Note_on_c, 1, 36, 80
3, 515324, Note_off_c, 1, 44, 100
3, 515324, Note_off_c, 1, 39, 100
3, 515324, Note_off_c, 1, 36, 100
3, 515328, Note_on_c, 1, 44, 80
3, 515328, Note_on_c, 1, 39, 80
3, 515328, Note_on_c, 1, 36, 80
3, 515516, Note_off_c, 1, 44, 100
3, 515516, Note_off_c, 1, 39, 100
3, 515516, Note_off_c, 1, 36, 100
3, 515520, Note_on_c, 1, 44, 80
3, 515520, Note_on_c, 1, 39, 80
3, 515520, Note_on_c, 1, 36, 80
3, 515708, Note_off_c, 1, 44, 100
3, 515708, Note_off_c, 1, 39, 100
3, 515708, Note_off_c, 1, 36, 100
3, 515712, Note_on_c, 1, 44, 80
3, 515712, Note_on_c, 1, 39, 80
3, 515712, Note_on_c, 1, 36, 80
3, 515900, Note_off_c, 1, 44, 100
3, 515900, Note_off_c, 1, 39, 100
3, 515900, Note_off_c, 1, 36, 100
3, 515904, Note_on_c, 1, 44, 80
3, 515904, Note_on_c, 1, 39, 80
3, 515904, Note_on_c, 1, 36, 80
3, 516092, Note_off_c, 1, 44, 100
3, 516092, Note_off_c, 1, 39, 100
3, 516092, Note_off_c, 1, 36, 100
3, 516096, Note_on_c, 1, 45, 110
3, 516096, Note_on_c, 1, 41, 110
3, 516096, Note_on_c, 1, 39, 110
3, 516096, Note_on_c, 1, 36, 110
3, 516284, Note_off_c, 1, 45, 100
3, 516284, Note_off_c, 1, 41, 100
3, 516284, Note_off_c, 1, 39, 100
3, 516284, Note_off_c, 1, 36, 100
3, 516288, Note_on_c, 1, 45, 110
3, 516288, Note_on_c, 1, 41, 110
3, 516288, Note_on_c, 1, 39, 110
3, 516288, Note_on_c, 1, 36, 110
3, 516476, Note_off_c, 1, 45, 100
3, 516476, Note_off_c, 1, 41, 100
3, 516476, Note_off_c, 1, 39, 100
3, 516476, Note_off_c, 1, 36, 100
3, 516480, Note_on_c, 1, 45, 110
3, 516480, Note_on_c, 1, 41, 110
3, 516480, Note_on_c, 1, 39, 110
3, 516480, Note_on_c, 1, 36, 110
3, 516668, Note_off_c, 1, 45, 100
3, 516668, Note_off_c, 1, 41, 100
3, 516668, Note_off_c, 1, 39, 100
3, 516668, Note_off_c, 1, 36, 100
3, 516672, Note_on_c, 1, 45, 110
3, 516672, Note_on_c, 1, 41, 110
3, 516672, Note_on_c, 1, 39, 110
3, 516672, Note_on_c, 1, 36, 110
3, 516860, Note_off_c, 1, 45, 100
3, 516860, Note_off_c, 1, 41, 100
3, 516860, Note_off_c, 1, 39, 100
3, 516860, Note_off_c, 1, 36, 100
3, 516864, Note_on_c, 1, 45, 110
3, 516864, Note_on_c, 1, 41, 110
3, 516864, Note_on_c, 1, 39, 110
3, 516864, Note_on_c, 1, 36, 110
3, 517052, Note_off_c, 1, 45, 100
3, 517052, Note_off_c, 1, 41, 100
3, 517052, Note_off_c, 1, 39, 100
3, 517052, Note_off_c, 1, 36, 100
3, 517056, Note_on_c, 1, 45, 110
3, 517056, Note_on_c, 1, 41, 110
3, 517056, Note_on_c, 1, 39, 110
3, 517056, Note_on_c, 1, 36, 110
3, 517244, Note_off_c, 1, 45, 100
3, 517244, Note_off_c, 1, 41, 100
3, 517244, Note_off_c, 1, 39, 100
3, 517244, Note_off_c, 1, 36, 100
3, 517248, Note_on_c, 1, 45, 110
3, 517248, Note_on_c, 1, 41, 110
3, 517248, Note_on_c, 1, 39, 110
3, 517248, Note_on_c, 1, 36, 110
3, 517436, Note_off_c, 1, 45, 100
3, 517436, Note_off_c, 1, 41, 100
3, 517436, Note_off_c, 1, 39, 100
3, 517436, Note_off_c, 1, 36, 100
3, 517440, Note_on_c, 1, 45, 110
3, 517440, Note_on_c, 1, 41, 110
3, 517440, Note_on_c, 1, 39, 110
3, 517440, Note_on_c, 1, 36, 110
3, 517628, Note_off_c, 1, 45, 100
3, 517628, Note_off_c, 1, 41, 100
3, 517628, Note_off_c, 1, 39, 100
3, 517628, Note_off_c, 1, 36, 100
3, 517632, Note_on_c, 1, 46, 80
3, 517632, Note_on_c, 1, 41, 80
3, 517632, Note_on_c, 1, 37, 80
3, 517820, Note_off_c, 1, 46, 100
3, 517820, Note_off_c, 1, 41, 100
3, 517820, Note_off_c, 1, 37, 100
3, 517824, Note_on_c, 1, 46, 80
3, 517824, Note_on_c, 1, 41, 80
3, 517824, Note_on_c, 1, 37, 80
3, 518012, Note_off_c, 1, 46, 100
3, 518012, Note_off_c, 1, 41, 100
3, 518012, Note_off_c, 1, 37, 100
3, 518016, Note_on_c, 1, 46, 80
3, 518016, Note_on_c, 1, 41, 80
3, 518016, Note_on_c, 1, 37, 80
3, 518204, Note_off_c, 1, 46, 100
3, 518204, Note_off_c, 1, 41, 100
3, 518204, Note_off_c, 1, 37, 100
3, 518208, Note_on_c, 1, 46, 80
3, 518208, Note_on_c, 1, 41, 80
3, 518208, Note_on_c, 1, 37, 80
3, 518396, Note_off_c, 1, 46, 100
3, 518396, Note_off_c, 1, 41, 100
3, 518396, Note_off_c, 1, 37, 100
3, 518400, Note_on_c, 1, 46, 80
3, 518400, Note_on_c, 1, 41, 80
3, 518400, Note_on_c, 1, 37, 80
3, 518588, Note_off_c, 1, 46, 100
3, 518588, Note_off_c, 1, 41, 100
3, 518588, Note_off_c, 1, 37, 100
3, 518592, Note_on_c, 1, 46, 80
3, 518592, Note_on_c, 1, 41, 80
3, 518592, Note_on_c, 1, 37, 80
3, 518780, Note_off_c, 1, 46, 100
3, 518780, Note_off_c, 1, 41, 100
3, 518780, Note_off_c, 1, 37, 100
3, 518784, Note_on_c, 1, 46, 80
3, 518784, Note_on_c, 1, 41, 80
3, 518784, Note_on_c, 1, 37, 80
3, 518972, Note_off_c, 1, 46, 100
3, 518972, Note_off_c, 1, 41, 100
3, 518972, Note_off_c, 1, 37, 100
3, 518976, Note_on_c, 1, 46, 80
3, 518976, Note_on_c, 1, 41, 80
3, 518976, Note_on_c, 1, 37, 80
3, 519164, Note_off_c, 1, 46, 100
3, 519164, Note_off_c, 1, 41, 100
3, 519164, Note_off_c, 1, 37, 100
3, 519168, Note_on_c, 1, 47, 110
3, 519168, Note_on_c, 1, 41, 110
3, 519168, Note_on_c, 1, 38, 110
3, 519356, Note_off_c, 1, 47, 100
3, 519356, Note_off_c, 1, 41, 100
3, 519356, Note_off_c, 1, 38, 100
3, 519360, Note_on_c, 1, 47, 110
3, 519360, Note_on_c, 1, 41, 110
3, 519360, Note_on_c, 1, 38, 110
3, 519548, Note_off_c, 1, 47, 100
3, 519548, Note_off_c, 1, 41, 100
3, 519548, Note_off_c, 1, 38, 100
3, 519552, Note_on_c, 1, 47, 110
3, 519552, Note_on_c, 1, 41, 110
3, 519552, Note_on_c, 1, 38, 110
3, 519740, Note_off_c, 1, 47, 100
3, 519740, Note_off_c, 1, 41, 100
3, 519740, Note_off_c, 1, 38, 100
3, 519744, Note_on_c, 1, 47, 110
3, 519744, Note_on_c, 1, 41, 110
3, 519744, Note_on_c, 1, 38, 110
3, 519932, Note_off_c, 1, 47, 100
3, 519932, Note_off_c, 1, 41, 100
3, 519932, Note_off_c, 1, 38, 100
3, 519936, Note_on_c, 1, 47, 110
3, 519936, Note_on_c, 1, 41, 110
3, 519936, Note_on_c, 1, 38, 110
3, 520124, Note_off_c, 1, 47, 100
3, 520124, Note_off_c, 1, 41, 100
3, 520124, Note_off_c, 1, 38, 100
3, 520128, Note_on_c, 1, 47, 110
3, 520128, Note_on_c, 1, 41, 110
3, 520128, Note_on_c, 1, 38, 110
3, 520316, Note_off_c, 1, 47, 100
3, 520316, Note_off_c, 1, 41, 100
3, 520316, Note_off_c, 1, 38, 100
3, 520320, Note_on_c, 1, 47, 110
3, 520320, Note_on_c, 1, 41, 110
3, 520320, Note_on_c, 1, 38, 110
3, 520508, Note_off_c, 1, 47, 100
3, 520508, Note_off_c, 1, 41, 100
3, 520508, Note_off_c, 1, 38, 100
3, 520512, Note_on_c, 1, 47, 110
3, 520512, Note_on_c, 1, 41, 110
3, 520512, Note_on_c, 1, 38, 110
3, 520700, Note_off_c, 1, 47, 100
3, 520700, Note_off_c, 1, 41, 100
3, 520700, Note_off_c, 1, 38, 100
3, 520704, Note_on_c, 1, 47, 110
3, 520704, Note_on_c, 1, 43, 110
3, 520704, Note_on_c, 1, 39, 110
3, 520892, Note_off_c, 1, 47, 100
3, 520892, Note_off_c, 1, 43, 100
3, 520892, Note_off_c, 1, 39, 100
3, 520896, Note_on_c, 1, 47, 110
3, 520896, Note_on_c, 1, 43, 110
3, 520896, Note_on_c, 1, 39, 110
3, 521084, Note_off_c, 1, 47, 100
3, 521084, Note_off_c, 1, 43, 100
3, 521084, Note_off_c, 1, 39, 100
3, 521088, Note_on_c, 1, 48, 110
3, 521088, Note_on_c, 1, 43, 110
3, 521088, Note_on_c, 1, 39, 110
3, 521276, Note_off_c, 1, 48, 100
3, 521276, Note_off_c, 1, 43, 100
3, 521276, Note_off_c, 1, 39, 100
3, 521280, Note_on_c, 1, 48, 110
3, 521280, Note_on_c, 1, 43, 110
3, 521280, Note_on_c, 1, 39, 110
3, 521468, Note_off_c, 1, 48, 100
3, 521468, Note_off_c, 1, 43, 100
3, 521468, Note_off_c, 1, 39, 100
3, 521472, Note_on_c, 1, 48, 110
3, 521472, Note_on_c, 1, 44, 110
3, 521472, Note_on_c, 1, 41, 110
3, 521660, Note_off_c, 1, 48, 100
3, 521660, Note_off_c, 1, 44, 100
3, 521660, Note_off_c, 1, 41, 100
3, 521664, Note_on_c, 1, 48, 110
3, 521664, Note_on_c, 1, 44, 110
3, 521664, Note_on_c, 1, 41, 110
3, 521852, Note_off_c, 1, 48, 100
3, 521852, Note_off_c, 1, 44, 100
3, 521852, Note_off_c, 1, 41, 100
3, 521856, Note_on_c, 1, 50, 110
3, 521856, Note_on_c, 1, 44, 110
3, 521856, Note_on_c, 1, 41, 110
3, 522044, Note_off_c, 1, 50, 100
3, 522044, Note_off_c, 1, 44, 100
3, 522044, Note_off_c, 1, 41, 100
3, 522048, Note_on_c, 1, 50, 110
3, 522048, Note_on_c, 1, 44, 110
3, 522048, Note_on_c, 1, 41, 110
3, 522236, Note_off_c, 1, 50, 100
3, 522236, Note_off_c, 1, 44, 100
3, 522236, Note_off_c, 1, 41, 100
3, 522240, Note_on_c, 1, 50, 110
3, 522240, Note_on_c, 1, 46, 110
3, 522240, Note_on_c, 1, 43, 110
3, 522428, Note_off_c, 1, 50, 100
3, 522428, Note_off_c, 1, 46, 100
3, 522428, Note_off_c, 1, 43, 100
3, 522432, Note_on_c, 1, 50, 110
3, 522432, Note_on_c, 1, 46, 110
3, 522432, Note_on_c, 1, 43, 110
3, 522620, Note_off_c, 1, 50, 100
3, 522620, Note_off_c, 1, 46, 100
3, 522620, Note_off_c, 1, 43, 100
3, 522624, Note_on_c, 1, 52, 110
3, 522624, Note_on_c, 1, 46, 110
3, 522624, Note_on_c, 1, 43, 110
3, 522812, Note_off_c, 1, 52, 100
3, 522812, Note_off_c, 1, 46, 100
3, 522812, Note_off_c, 1, 43, 100
3, 522816, Note_on_c, 1, 52, 110
3, 522816, Note_on_c, 1, 46, 110
3, 522816, Note_on_c, 1, 43, 110
3, 523004, Note_off_c, 1, 52, 100
3, 523004, Note_off_c, 1, 46, 100
3, 523004, Note_off_c, 1, 43, 100
3, 523008, Note_on_c, 1, 52, 110
3, 523008, Note_on_c, 1, 48, 110
3, 523008, Note_on_c, 1, 44, 110
3, 523196, Note_off_c, 1, 52, 100
3, 523196, Note_off_c, 1, 48, 100
3, 523196, Note_off_c, 1, 44, 100
3, 523200, Note_on_c, 1, 52, 110
3, 523200, Note_on_c, 1, 48, 110
3, 523200, Note_on_c, 1, 44, 110
3, 523388, Note_off_c, 1, 52, 100
3, 523388, Note_off_c, 1, 48, 100
3, 523388, Note_off_c, 1, 44, 100
3, 523392, Note_on_c, 1, 48, 110
3, 523392, Note_on_c, 1, 44, 110
3, 523392, Note_on_c, 1, 53, 110
3, 523580, Note_off_c, 1, 48, 100
3, 523580, Note_off_c, 1, 44, 100
3, 523580, Note_off_c, 1, 53, 100
3, 523584, Note_on_c, 1, 48, 110
3, 523584, Note_on_c, 1, 44, 110
3, 523584, Note_on_c, 1, 53, 110
3, 523772, Note_off_c, 1, 48, 100
3, 523772, Note_off_c, 1, 44, 100
3, 523772, Note_off_c, 1, 53, 100
3, 523776, Note_on_c, 1, 54, 120
3, 523776, Note_on_c, 1, 48, 120
3, 523776, Note_on_c, 1, 45, 120
3, 523964, Note_off_c, 1, 54, 100
3, 523964, Note_off_c, 1, 48, 100
3, 523964, Note_off_c, 1, 45, 100
3, 523968, Note_on_c, 1, 54, 120
3, 523968, Note_on_c, 1, 48, 120
3, 523968, Note_on_c, 1, 45, 120
3, 524156, Note_off_c, 1, 54, 100
3, 524156, Note_off_c, 1, 48, 100
3, 524156, Note_off_c, 1, 45, 100
3, 524160, Note_on_c, 1, 54, 120
3, 524160, Note_on_c, 1, 48, 120
3, 524160, Note_on_c, 1, 45, 120
3, 524348, Note_off_c, 1, 54, 100
3, 524348, Note_off_c, 1, 48, 100
3, 524348, Note_off_c, 1, 45, 100
3, 524352, Note_on_c, 1, 54, 120
3, 524352, Note_on_c, 1, 48, 120
3, 524352, Note_on_c, 1, 45, 120
3, 524540, Note_off_c, 1, 54, 100
3, 524540, Note_off_c, 1, 48, 100
3, 524540, Note_off_c, 1, 45, 100
3, 524544, Note_on_c, 1, 54, 120
3, 524544, Note_on_c, 1, 48, 120
3, 524544, Note_on_c, 1, 45, 120
3, 524732, Note_off_c, 1, 54, 100
3, 524732, Note_off_c, 1, 48, 100
3, 524732, Note_off_c, 1, 45, 100
3, 524736, Note_on_c, 1, 54, 120
3, 524736, Note_on_c, 1, 48, 120
3, 524736, Note_on_c, 1, 45, 120
3, 524924, Note_off_c, 1, 54, 100
3, 524924, Note_off_c, 1, 48, 100
3, 524924, Note_off_c, 1, 45, 100
3, 524928, Note_on_c, 1, 54, 120
3, 524928, Note_on_c, 1, 48, 120
3, 524928, Note_on_c, 1, 45, 120
3, 525116, Note_off_c, 1, 54, 100
3, 525116, Note_off_c, 1, 48, 100
3, 525116, Note_off_c, 1, 45, 100
3, 525120, Note_on_c, 1, 54, 120
3, 525120, Note_on_c, 1, 48, 120
3, 525120, Note_on_c, 1, 45, 120
3, 525308, Note_off_c, 1, 54, 100
3, 525308, Note_off_c, 1, 48, 100
3, 525308, Note_off_c, 1, 45, 100
3, 525312, Note_on_c, 1, 54, 120
3, 525312, Note_on_c, 1, 48, 120
3, 525312, Note_on_c, 1, 44, 120
3, 525500, Note_off_c, 1, 54, 100
3, 525500, Note_off_c, 1, 48, 100
3, 525500, Note_off_c, 1, 44, 100
3, 525504, Note_on_c, 1, 54, 120
3, 525504, Note_on_c, 1, 48, 120
3, 525504, Note_on_c, 1, 44, 120
3, 525692, Note_off_c, 1, 54, 100
3, 525692, Note_off_c, 1, 48, 100
3, 525692, Note_off_c, 1, 44, 100
3, 525696, Note_on_c, 1, 54, 120
3, 525696, Note_on_c, 1, 48, 120
3, 525696, Note_on_c, 1, 44, 120
3, 525884, Note_off_c, 1, 54, 100
3, 525884, Note_off_c, 1, 48, 100
3, 525884, Note_off_c, 1, 44, 100
3, 525888, Note_on_c, 1, 54, 120
3, 525888, Note_on_c, 1, 48, 120
3, 525888, Note_on_c, 1, 44, 120
3, 526076, Note_off_c, 1, 54, 100
3, 526076, Note_off_c, 1, 48, 100
3, 526076, Note_off_c, 1, 44, 100
3, 526080, Note_on_c, 1, 51, 120
3, 526080, Note_on_c, 1, 48, 120
3, 526080, Note_on_c, 1, 44, 120
3, 526268, Note_off_c, 1, 51, 100
3, 526268, Note_off_c, 1, 48, 100
3, 526268, Note_off_c, 1, 44, 100
3, 526272, Note_on_c, 1, 44, 120
3, 526272, Note_on_c, 1, 48, 120
3, 526272, Note_on_c, 1, 51, 120
3, 526460, Note_off_c, 1, 44, 100
3, 526460, Note_off_c, 1, 48, 100
3, 526460, Note_off_c, 1, 51, 100
3, 526464, Note_on_c, 1, 48, 120
3, 526464, Note_on_c, 1, 44, 120
3, 526652, Note_off_c, 1, 48, 100
3, 526652, Note_off_c, 1, 44, 100
3, 526656, Note_on_c, 1, 48, 120
3, 526656, Note_on_c, 1, 44, 120
3, 526844, Note_off_c, 1, 48, 100
3, 526844, Note_off_c, 1, 44, 100
3, 526848, Note_on_c, 1, 47, 120
3, 526848, Note_on_c, 1, 43, 120
3, 527036, Note_off_c, 1, 47, 100
3, 527036, Note_off_c, 1, 43, 100
3, 529920, Note_on_c, 1, 47, 70
3, 529920, Note_on_c, 1, 50, 70
3, 530108, Note_off_c, 1, 47, 100
3, 530108, Note_off_c, 1, 50, 100
3, 530112, Note_on_c, 1, 47, 70
3, 530112, Note_on_c, 1, 50, 70
3, 530300, Note_off_c, 1, 47, 100
3, 530300, Note_off_c, 1, 50, 100
3, 530304, Note_on_c, 1, 47, 70
3, 530304, Note_on_c, 1, 50, 70
3, 530492, Note_off_c, 1, 47, 100
3, 530492, Note_off_c, 1, 50, 100
3, 530496, Note_on_c, 1, 47, 70
3, 530496, Note_on_c, 1, 50, 70
3, 530684, Note_off_c, 1, 47, 100
3, 530684, Note_off_c, 1, 50, 100
3, 530688, Note_on_c, 1, 47, 70
3, 530688, Note_on_c, 1, 50, 70
3, 530876, Note_off_c, 1, 47, 100
3, 530876, Note_off_c, 1, 50, 100
3, 530880, Note_on_c, 1, 47, 70
3, 530880, Note_on_c, 1, 50, 70
3, 531068, Note_off_c, 1, 47, 100
3, 531068, Note_off_c, 1, 50, 100
3, 531072, Note_on_c, 1, 47, 70
3, 531072, Note_on_c, 1, 50, 70
3, 531260, Note_off_c, 1, 47, 100
3, 531260, Note_off_c, 1, 50, 100
3, 531264, Note_on_c, 1, 47, 70
3, 531264, Note_on_c, 1, 50, 70
3, 531452, Note_off_c, 1, 47, 100
3, 531452, Note_off_c, 1, 50, 100
3, 531456, Note_on_c, 1, 47, 70
3, 531456, Note_on_c, 1, 50, 70
3, 531644, Note_off_c, 1, 47, 100
3, 531644, Note_off_c, 1, 50, 100
3, 531648, Note_on_c, 1, 47, 70
3, 531648, Note_on_c, 1, 50, 70
3, 531836, Note_off_c, 1, 47, 100
3, 531836, Note_off_c, 1, 50, 100
3, 531840, Note_on_c, 1, 47, 70
3, 531840, Note_on_c, 1, 50, 70
3, 532028, Note_off_c, 1, 47, 100
3, 532028, Note_off_c, 1, 50, 100
3, 532032, Note_on_c, 1, 47, 70
3, 532032, Note_on_c, 1, 50, 70
3, 532220, Note_off_c, 1, 47, 100
3, 532220, Note_off_c, 1, 50, 100
3, 532224, Note_on_c, 1, 47, 70
3, 532224, Note_on_c, 1, 50, 70
3, 532412, Note_off_c, 1, 47, 100
3, 532412, Note_off_c, 1, 50, 100
3, 532416, Note_on_c, 1, 47, 70
3, 532416, Note_on_c, 1, 50, 70
3, 532604, Note_off_c, 1, 47, 100
3, 532604, Note_off_c, 1, 50, 100
3, 532608, Note_on_c, 1, 52, 70
3, 532608, Note_on_c, 1, 49, 70
3, 532796, Note_off_c, 1, 52, 100
3, 532796, Note_off_c, 1, 49, 100
3, 532800, Note_on_c, 1, 52, 70
3, 532800, Note_on_c, 1, 49, 70
3, 532988, Note_off_c, 1, 52, 100
3, 532988, Note_off_c, 1, 49, 100
3, 532992, Note_on_c, 1, 53, 70
3, 532992, Note_on_c, 1, 50, 70
3, 533564, Note_off_c, 1, 53, 100
3, 533568, Note_on_c, 1, 57, 70
3, 533660, Note_off_c, 1, 57, 100
3, 533664, Note_on_c, 1, 55, 70
3, 533756, Note_off_c, 1, 55, 100
3, 533760, Note_on_c, 1, 53, 70
3, 533948, Note_off_c, 1, 50, 100
3, 533948, Note_off_c, 1, 53, 100
3, 534528, Note_on_c, 1, 69, 70
3, 535004, Note_off_c, 1, 69, 100
3, 535008, Note_on_c, 1, 67, 70
3, 535100, Note_off_c, 1, 67, 100
3, 535104, Note_on_c, 1, 65, 70
3, 535196, Note_off_c, 1, 65, 100
3, 535200, Note_on_c, 1, 64, 70
3, 535292, Note_off_c, 1, 64, 100
3, 535296, Note_on_c, 1, 62, 70
3, 535676, Note_off_c, 1, 62, 100
3, 536064, Note_on_c, 1, 48, 70
3, 536064, Note_on_c, 1, 45, 70
3, 536252, Note_off_c, 1, 48, 100
3, 536252, Note_off_c, 1, 45, 100
3, 536256, Note_on_c, 1, 48, 70
3, 536256, Note_on_c, 1, 45, 70
3, 536444, Note_off_c, 1, 48, 100
3, 536444, Note_off_c, 1, 45, 100
3, 536448, Note_on_c, 1, 48, 70
3, 536448, Note_on_c, 1, 45, 70
3, 536636, Note_off_c, 1, 48, 100
3, 536636, Note_off_c, 1, 45, 100
3, 536640, Note_on_c, 1, 48, 70
3, 536640, Note_on_c, 1, 45, 70
3, 536828, Note_off_c, 1, 48, 100
3, 536828, Note_off_c, 1, 45, 100
3, 536832, Note_on_c, 1, 48, 70
3, 536832, Note_on_c, 1, 45, 70
3, 537020, Note_off_c, 1, 48, 100
3, 537020, Note_off_c, 1, 45, 100
3, 537024, Note_on_c, 1, 48, 70
3, 537024, Note_on_c, 1, 45, 70
3, 537212, Note_off_c, 1, 48, 100
3, 537212, Note_off_c, 1, 45, 100
3, 537216, Note_on_c, 1, 48, 70
3, 537216, Note_on_c, 1, 45, 70
3, 537404, Note_off_c, 1, 48, 100
3, 537404, Note_off_c, 1, 45, 100
3, 537408, Note_on_c, 1, 48, 70
3, 537408, Note_on_c, 1, 45, 70
3, 537596, Note_off_c, 1, 48, 100
3, 537596, Note_off_c, 1, 45, 100
3, 537600, Note_on_c, 1, 48, 70
3, 537600, Note_on_c, 1, 45, 70
3, 537788, Note_off_c, 1, 48, 100
3, 537788, Note_off_c, 1, 45, 100
3, 537792, Note_on_c, 1, 48, 70
3, 537792, Note_on_c, 1, 45, 70
3, 537980, Note_off_c, 1, 48, 100
3, 537980, Note_off_c, 1, 45, 100
3, 537984, Note_on_c, 1, 48, 70
3, 537984, Note_on_c, 1, 45, 70
3, 538172, Note_off_c, 1, 48, 100
3, 538172, Note_off_c, 1, 45, 100
3, 538176, Note_on_c, 1, 48, 70
3, 538176, Note_on_c, 1, 45, 70
3, 538364, Note_off_c, 1, 48, 100
3, 538364, Note_off_c, 1, 45, 100
3, 538368, Note_on_c, 1, 48, 70
3, 538368, Note_on_c, 1, 45, 70
3, 538556, Note_off_c, 1, 48, 100
3, 538556, Note_off_c, 1, 45, 100
3, 538560, Note_on_c, 1, 48, 70
3, 538560, Note_on_c, 1, 45, 70
3, 538748, Note_off_c, 1, 48, 100
3, 538748, Note_off_c, 1, 45, 100
3, 538752, Note_on_c, 1, 50, 70
3, 538752, Note_on_c, 1, 47, 70
3, 538940, Note_off_c, 1, 50, 100
3, 538940, Note_off_c, 1, 47, 100
3, 538944, Note_on_c, 1, 50, 70
3, 538944, Note_on_c, 1, 47, 70
3, 539132, Note_off_c, 1, 50, 100
3, 539132, Note_off_c, 1, 47, 100
3, 539136, Note_on_c, 1, 52, 70
3, 539136, Note_on_c, 1, 48, 70
3, 539708, Note_off_c, 1, 52, 100
3, 539712, Note_on_c, 1, 55, 70
3, 539804, Note_off_c, 1, 55, 100
3, 539808, Note_on_c, 1, 53, 70
3, 539900, Note_off_c, 1, 53, 100
3, 539904, Note_on_c, 1, 52, 70
3, 540092, Note_off_c, 1, 48, 100
3, 540092, Note_off_c, 1, 52, 100
3, 540672, Note_on_c, 1, 48, 70
3, 540720, Note_on_c, 1, 64, 70
3, 540820, Note_off_c, 1, 48, 100
3, 541148, Note_off_c, 1, 64, 100
3, 541152, Note_on_c, 1, 62, 70
3, 541244, Note_off_c, 1, 62, 100
3, 541248, Note_on_c, 1, 60, 70
3, 541340, Note_off_c, 1, 60, 100
3, 541344, Note_on_c, 1, 59, 70
3, 541436, Note_off_c, 1, 59, 100
3, 541440, Note_on_c, 1, 57, 70
3, 541628, Note_off_c, 1, 57, 100
3, 542208, Note_on_c, 1, 53, 70
3, 542208, Note_on_c, 1, 50, 70
3, 542780, Note_off_c, 1, 53, 100
3, 542784, Note_on_c, 1, 57, 75
3, 542876, Note_off_c, 1, 57, 100
3, 542880, Note_on_c, 1, 55, 75
3, 542972, Note_off_c, 1, 55, 100
3, 542976, Note_on_c, 1, 53, 76
3, 543164, Note_off_c, 1, 50, 100
3, 543164, Note_off_c, 1, 53, 100
3, 543744, Note_on_c, 1, 50, 83
3, 543792, Note_on_c, 1, 65, 84
3, 543904, Note_off_c, 1, 50, 100
3, 544220, Note_off_c, 1, 65, 100
3, 544224, Note_on_c, 1, 64, 87
3, 544316, Note_off_c, 1, 64, 100
3, 544320, Note_on_c, 1, 62, 88
3, 544412, Note_off_c, 1, 62, 100
3, 544416, Note_on_c, 1, 60, 89
3, 544508, Note_off_c, 1, 60, 100
3, 544512, Note_on_c, 1, 59, 90
3, 544892, Note_off_c, 1, 59, 100
3, 545280, Note_on_c, 1, 52, 97
3, 545328, Note_on_c, 1, 67, 97
3, 545464, Note_off_c, 1, 52, 100
3, 545756, Note_off_c, 1, 67, 100
3, 545760, Note_on_c, 1, 65, 101
3, 545852, Note_off_c, 1, 65, 100
3, 545856, Note_on_c, 1, 64, 102
3, 545948, Note_off_c, 1, 64, 100
3, 545952, Note_on_c, 1, 62, 103
3, 546044, Note_off_c, 1, 62, 100
3, 546048, Note_on_c, 1, 61, 104
3, 546428, Note_off_c, 1, 61, 100
3, 546816, Note_on_c, 1, 53, 110
3, 546864, Note_on_c, 1, 69, 110
3, 547196, Note_off_c, 1, 69, 100
3, 547200, Note_on_c, 1, 67, 110
3, 547292, Note_off_c, 1, 67, 100
3, 547296, Note_on_c, 1, 65, 110
3, 547388, Note_off_c, 1, 65, 100
3, 547392, Note_on_c, 1, 64, 110
3, 547484, Note_off_c, 1, 64, 100
3, 547488, Note_on_c, 1, 62, 110
3, 547508, Note_off_c, 1, 53, 100
3, 547580, Note_off_c, 1, 62, 100
3, 547584, Note_on_c, 1, 55, 110
3, 547636, Note_on_c, 1, 71, 110
3, 547968, Note_off_c, 1, 71, 100
3, 547968, Note_on_c, 1, 69, 110
3, 548060, Note_off_c, 1, 69, 100
3, 548064, Note_on_c, 1, 67, 110
3, 548156, Note_off_c, 1, 67, 100
3, 548160, Note_on_c, 1, 65, 110
3, 548168, Note_off_c, 1, 55, 100
3, 548252, Note_off_c, 1, 65, 100
3, 548256, Note_on_c, 1, 64, 110
3, 548348, Note_off_c, 1, 64, 100
3, 548352, Note_on_c, 1, 57, 110
3, 548400, Note_on_c, 1, 72, 110
3, 548732, Note_off_c, 1, 72, 100
3, 548736, Note_on_c, 1, 71, 110
3, 548828, Note_off_c, 1, 71, 100
3, 548832, Note_on_c, 1, 69, 110
3, 548908, Note_off_c, 1, 57, 100
3, 548924, Note_off_c, 1, 69, 100
3, 548928, Note_on_c, 1, 67, 110
3, 549020, Note_off_c, 1, 67, 100
3, 549024, Note_on_c, 1, 65, 110
3, 549116, Note_off_c, 1, 65, 100
3, 549120, Note_on_c, 1, 59, 110
3, 549168, Note_on_c, 1, 74, 110
3, 549504, Note_on_c, 1, 72, 110
3, 549592, Note_off_c, 1, 74, 100
3, 549596, Note_off_c, 1, 72, 100
3, 549600, Note_on_c, 1, 71, 110
3, 549664, Note_off_c, 1, 59, 100
3, 549692, Note_off_c, 1, 71, 100
3, 549696, Note_on_c, 1, 69, 110
3, 549788, Note_off_c, 1, 69, 100
3, 549792, Note_on_c, 1, 67, 110
3, 549884, Note_off_c, 1, 67, 100
3, 549888, Note_on_c, 1, 60, 110
3, 549936, Note_on_c, 1, 76, 110
3, 550268, Note_off_c, 1, 76, 100
3, 550272, Note_on_c, 1, 74, 110
3, 550364, Note_off_c, 1, 74, 100
3, 550368, Note_on_c, 1, 72, 110
3, 550436, Note_off_c, 1, 60, 100
3, 550460, Note_off_c, 1, 72, 100
3, 550464, Note_on_c, 1, 71, 110
3, 550556, Note_off_c, 1, 71, 100
3, 550560, Note_on_c, 1, 69, 110
3, 550652, Note_off_c, 1, 69, 100
3, 550656, Note_on_c, 1, 62, 110
3, 550704, Note_on_c, 1, 77, 110
3, 551036, Note_off_c, 1, 77, 100
3, 551040, Note_on_c, 1, 76, 110
3, 551132, Note_off_c, 1, 76, 100
3, 551136, Note_on_c, 1, 74, 110
3, 551208, Note_off_c, 1, 62, 100
3, 551228, Note_off_c, 1, 74, 100
3, 551232, Note_on_c, 1, 72, 110
3, 551324, Note_off_c, 1, 72, 100
3, 551328, Note_on_c, 1, 71, 110
3, 551420, Note_off_c, 1, 71, 100
3, 551424, Control_c, 1, 64, 127
3, 551424, Note_on_c, 1, 64, 110
3, 551484, Note_off_c, 1, 64, 100
3, 551488, Note_on_c, 1, 72, 110
3, 551548, Note_off_c, 1, 72, 100
3, 551552, Note_on_c, 1, 76, 110
3, 551612, Note_off_c, 1, 76, 100
3, 551800, Control_c, 1, 64, 0
3, 551808, Control_c, 1, 64, 127
3, 551808, Note_on_c, 1, 64, 110
3, 551868, Note_off_c, 1, 64, 100
3, 551872, Note_on_c, 1, 72, 110
3, 551932, Note_off_c, 1, 72, 100
3, 551936, Note_on_c, 1, 76, 110
3, 551996, Note_off_c, 1, 76, 100
3, 552184, Control_c, 1, 64, 0
3, 552192, Control_c, 1, 64, 127
3, 552192, Note_on_c, 1, 64, 110
3, 552252, Note_off_c, 1, 64, 100
3, 552256, Note_on_c, 1, 72, 110
3, 552316, Note_off_c, 1, 72, 100
3, 552320, Note_on_c, 1, 76, 110
3, 552380, Note_off_c, 1, 76, 100
3, 552568, Control_c, 1, 64, 0
3, 552576, Control_c, 1, 64, 127
3, 552576, Note_on_c, 1, 64, 110
3, 552636, Note_off_c, 1, 64, 100
3, 552640, Note_on_c, 1, 72, 110
3, 552700, Note_off_c, 1, 72, 100
3, 552704, Note_on_c, 1, 76, 110
3, 552764, Note_off_c, 1, 76, 100
3, 552952, Control_c, 1, 64, 0
3, 552960, Note_on_c, 1, 77, 110
3, 552960, Note_on_c, 1, 72, 110
3, 552960, Note_on_c, 1, 65, 110
3, 553340, Note_off_c, 1, 77, 100
3, 553340, Note_off_c, 1, 72, 100
3, 553340, Note_off_c, 1, 65, 100
3, 554880, Note_on_c, 1, 29, 110
3, 555356, Note_off_c, 1, 29, 100
3, 555360, Note_on_c, 1, 31, 110
3, 555452, Note_off_c, 1, 31, 100
3, 555456, Note_on_c, 1, 33, 110
3, 555548, Note_off_c, 1, 33, 100
3, 555552, Note_on_c, 1, 35, 110
3, 555644, Note_off_c, 1, 35, 100
3, 555648, Note_on_c, 1, 36, 110
3, 555740, Note_off_c, 1, 36, 100
3, 555744, Note_on_c, 1, 38, 110
3, 555836, Note_off_c, 1, 38, 100
3, 555840, Note_on_c, 1, 40, 110
3, 555932, Note_off_c, 1, 40, 100
3, 555936, Note_on_c, 1, 41, 110
3, 556028, Note_off_c, 1, 41, 100
3, 556032, Note_on_c, 1, 40, 110
3, 556032, Note_on_c, 1, 36, 110
3, 556032, Note_on_c, 1, 31, 110
3, 556412, Note_off_c, 1, 40, 100
3, 556412, Note_off_c, 1, 36, 100
3, 556412, Note_off_c, 1, 31, 100
3, 559584, Note_on_c, 1, 76, 83
3, 559676, Note_off_c, 1, 76, 100
3, 559680, Note_on_c, 1, 75, 83
3, 559772, Note_off_c, 1, 75, 100
3, 559776, Note_on_c, 1, 76, 84
3, 559868, Note_off_c, 1, 76, 100
3, 559872, Note_on_c, 1, 67, 85
3, 559964, Note_off_c, 1, 67, 100
3, 559968, Note_on_c, 1, 72, 85
3, 560060, Note_off_c, 1, 72, 100
3, 560064, Note_on_c, 1, 71, 86
3, 560156, Note_off_c, 1, 71, 100
3, 560160, Note_on_c, 1, 72, 87
3, 560252, Note_off_c, 1, 72, 100
3, 560256, Note_on_c, 1, 67, 87
3, 560348, Note_off_c, 1, 67, 100
3, 560352, Note_on_c, 1, 76, 88
3, 560444, Note_off_c, 1, 76, 100
3, 560448, Note_on_c, 1, 75, 89
3, 560540, Note_off_c, 1, 75, 100
3, 560544, Note_on_c, 1, 76, 89
3, 560636, Note_off_c, 1, 76, 100
3, 560640, Note_on_c, 1, 67, 90
3, 560732, Note_off_c, 1, 67, 100
3, 560736, Note_on_c, 1, 72, 90
3, 560828, Note_off_c, 1, 72, 100
3, 560832, Note_on_c, 1, 71, 91
3, 560924, Note_off_c, 1, 71, 100
3, 560928, Note_on_c, 1, 72, 92
3, 561020, Note_off_c, 1, 72, 100
3, 561024, Note_on_c, 1, 67, 92
3, 561116, Note_off_c, 1, 67, 100
3, 561120, Note_on_c, 1, 76, 93
3, 561212, Note_off_c, 1, 76, 100
3, 561216, Note_on_c, 1, 75, 94
3, 561308, Note_off_c, 1, 75, 100
3, 561312, Note_on_c, 1, 76, 94
3, 561404, Note_off_c, 1, 76, 100
3, 561408, Note_on_c, 1, 67, 95
3, 561500, Note_off_c, 1, 67, 100
3, 561504, Note_on_c, 1, 72, 96
3, 561596, Note_off_c, 1, 72, 100
3, 561600, Note_on_c, 1, 71, 96
3, 561692, Note_off_c, 1, 71, 100
3, 561696, Note_on_c, 1, 72, 97
3, 561788, Note_off_c, 1, 72, 100
3, 561792, Note_on_c, 1, 67, 98
3, 561884, Note_off_c, 1, 67, 100
3, 561888, Note_on_c, 1, 76, 98
3, 561980, Note_off_c, 1, 76, 100
3, 561984, Note_on_c, 1, 75, 99
3, 562076, Note_off_c, 1, 75, 100
3, 562080, Note_on_c, 1, 76, 99
3, 562172, Note_off_c, 1, 76, 100
3, 562176, Note_on_c, 1, 77, 100
3, 562176, Note_on_c, 1, 74, 100
3, 562176, Note_on_c, 1, 67, 100
3, 563708, Note_off_c, 1, 77, 100
3, 563708, Note_off_c, 1, 74, 100
3, 563708, Note_off_c, 1, 67, 100
3, 563712, Note_on_c, 1, 65, 100
3, 563712, Note_on_c, 1, 62, 100
3, 563712, Note_on_c, 1, 55, 100
3, 565244, Note_off_c, 1, 65, 100
3, 565244, Note_off_c, 1, 62, 100
3, 565244, Note_off_c, 1, 55, 100
3, 565248, Note_on_c, 1, 48, 80
3, 565248, Note_on_c, 1, 36, 80
3, 566012, Note_off_c, 1, 48, 100
3, 566012, Note_off_c, 1, 36, 100
3, 566016, Note_on_c, 1, 44, 80
3, 566016, Note_on_c, 1, 32, 80
3, 566396, Note_off_c, 1, 44, 100
3, 566396, Note_off_c, 1, 32, 100
3, 566400, Note_on_c, 1, 45, 80
3, 566400, Note_on_c, 1, 33, 80
3, 566780, Note_off_c, 1, 45, 100
3, 566780, Note_off_c, 1, 33, 100
3, 566784, Note_on_c, 1, 40, 80
3, 566784, Note_on_c, 1, 28, 80
3, 567548, Note_off_c, 1, 40, 100
3, 567548, Note_off_c, 1, 28, 100
3, 567552, Note_on_c, 1, 41, 80
3, 567552, Note_on_c, 1, 29, 80
3, 568316, Note_off_c, 1, 41, 100
3, 568316, Note_off_c, 1, 29, 100
3, 568320, Note_on_c, 1, 59, 80
3, 568320, Note_on_c, 1, 55, 80
3, 568320, Note_on_c, 1, 53, 80
3, 568320, Note_on_c, 1, 50, 80
3, 569084, Note_off_c, 1, 59, 100
3, 569084, Note_off_c, 1, 55, 100
3, 569084, Note_off_c, 1, 53, 100
3, 569084, Note_off_c, 1, 50, 100
3, 569088, Note_on_c, 1, 60, 80
3, 569088, Note_on_c, 1, 55, 80
3, 569088, Note_on_c, 1, 52, 80
3, 569468, Note_off_c, 1, 60, 100
3, 569468, Note_off_c, 1, 55, 100
3, 569468, Note_off_c, 1, 52, 100
3, 569472, Note_on_c, 1, 60, 80
3, 569472, Note_on_c, 1, 62, 80
3, 569472, Note_on_c, 1, 57, 80
3, 569472, Note_on_c, 1, 53, 80
3, 569852, Note_off_c, 1, 60, 100
3, 569852, Note_off_c, 1, 62, 100
3, 569852, Note_off_c, 1, 57, 100
3, 569852, Note_off_c, 1, 53, 100
3, 569856, Note_on_c, 1, 64, 80
3, 569856, Note_on_c, 1, 60, 80
3, 569856, Note_on_c, 1, 55, 80
3, 570620, Note_off_c, 1, 64, 100
3, 570620, Note_off_c, 1, 60, 100
3, 570624, Note_on_c, 1, 62, 80
3, 570624, Note_on_c, 1, 59, 80
3, 571388, Note_off_c, 1, 55, 100
3, 571388, Note_off_c, 1, 62, 100
3, 571388, Note_off_c, 1, 59, 100
3, 571392, Note_on_c, 1, 76, 80
3, 571392, Note_on_c, 1, 72, 80
3, 572156, Note_off_c, 1, 76, 100
3, 572156, Note_off_c, 1, 72, 100
3, 572160, Note_on_c, 1, 74, 80
3, 572160, Note_on_c, 1, 71, 80
3, 572160, Note_on_c, 1, 68, 80
3, 572540, Note_off_c, 1, 74, 100
3, 572540, Note_off_c, 1, 71, 100
3, 572540, Note_off_c, 1, 68, 100
3, 572544, Note_on_c, 1, 69, 80
3, 572544, Note_on_c, 1, 72, 80
3, 572924, Note_off_c, 1, 69, 100
3, 572924, Note_off_c, 1, 72, 100
3, 572928, Note_on_c, 1, 71, 80
3, 572928, Note_on_c, 1, 68, 80
3, 572928, Note_on_c, 1, 64, 80
3, 573692, Note_off_c, 1, 71, 100
3, 573692, Note_off_c, 1, 68, 100
3, 573692, Note_off_c, 1, 64, 100
3, 573696, Note_on_c, 1, 69, 80
3, 573696, Note_on_c, 1, 65, 80
3, 574460, Note_off_c, 1, 69, 100
3, 574460, Note_off_c, 1, 65, 100
3, 574464, Note_on_c, 1, 64, 80
3, 574464, Note_on_c, 1, 60, 80
3, 574464, Note_on_c, 1, 55, 80
3, 574844, Note_off_c, 1, 64, 100
3, 574844, Note_off_c, 1, 60, 100
3, 574848, Note_on_c, 1, 65, 80
3, 574848, Note_on_c, 1, 62, 80
3, 575996, Note_off_c, 1, 55, 100
3, 575996, Note_off_c, 1, 65, 100
3, 575996, Note_off_c, 1, 62, 100
3, 576000, Note_on_c, 1, 43, 80
3, 576000, Note_on_c, 1, 52, 80
3, 576000, Note_on_c, 1, 48, 80
3, 576380, Note_off_c, 1, 52, 100
3, 576380, Note_off_c, 1, 48, 100
3, 576384, Note_on_c, 1, 53, 80
3, 576384, Note_on_c, 1, 50, 80
3, 579068, Note_off_c, 1, 43, 100
3, 579068, Note_off_c, 1, 50, 100
3, 579068, Note_off_c, 1, 53, 100
3, 579072, Note_on_c, 1, 40, 80
3, 579072, Note_on_c, 1, 36, 80
3, 579072, Note_on_c, 1, 31, 80
3, 579452, Note_off_c, 1, 40, 100
3, 579452, Note_off_c, 1, 36, 100
3, 579456, Note_on_c, 1, 38, 80
3, 579456, Note_on_c, 1, 41, 80
3, 582140, Note_off_c, 1, 31, 100
3, 582140, Note_off_c, 1, 38, 100
3, 582140, Note_off_c, 1, 41, 100
3, 582144, Note_on_c, 1, 48, 80
3, 582144, Note_on_c, 1, 36, 80
3, 582332, Note_off_c, 1, 48, 100
3, 582332, Note_off_c, 1, 36, 100
3, 582336, Note_on_c, 1, 55, 80
3, 582336, Note_on_c, 1, 48, 80
3, 582524, Note_off_c, 1, 55, 100
3, 582524, Note_off_c, 1, 48, 100
3, 582528, Note_on_c, 1, 55, 80
3, 582528, Note_on_c, 1, 48, 80
3, 582716, Note_off_c, 1, 55, 100
3, 582716, Note_off_c, 1, 48, 100
3, 582720, Note_on_c, 1, 55, 80
3, 582720, Note_on_c, 1, 48, 80
3, 582908, Note_off_c, 1, 55, 100
3, 582908, Note_off_c, 1, 48, 100
3, 582912, Note_on_c, 1, 55, 80
3, 582912, Note_on_c, 1, 48, 80
3, 583100, Note_off_c, 1, 55, 100
3, 583100, Note_off_c, 1, 48, 100
3, 583104, Note_on_c, 1, 55, 80
3, 583104, Note_on_c, 1, 48, 80
3, 583292, Note_off_c, 1, 55, 100
3, 583292, Note_off_c, 1, 48, 100
3, 583296, Note_on_c, 1, 55, 80
3, 583296, Note_on_c, 1, 48, 80
3, 583484, Note_off_c, 1, 55, 100
3, 583484, Note_off_c, 1, 48, 100
3, 583488, Note_on_c, 1, 55, 80
3, 583488, Note_on_c, 1, 48, 80
3, 583676, Note_off_c, 1, 55, 100
3, 583676, Note_off_c, 1, 48, 100
3, 583680, Note_on_c, 1, 55, 80
3, 583680, Note_on_c, 1, 48, 80
3, 583868, Note_off_c, 1, 55, 100
3, 583868, Note_off_c, 1, 48, 100
3, 583872, Note_on_c, 1, 55, 80
3, 583872, Note_on_c, 1, 48, 80
3, 584060, Note_off_c, 1, 55, 100
3, 584060, Note_off_c, 1, 48, 100
3, 584064, Note_on_c, 1, 55, 80
3, 584064, Note_on_c, 1, 48, 80
3, 584252, Note_off_c, 1, 55, 100
3, 584252, Note_off_c, 1, 48, 100
3, 584256, Note_on_c, 1, 55, 80
3, 584256, Note_on_c, 1, 48, 80
3, 584444, Note_off_c, 1, 55, 100
3, 584444, Note_off_c, 1, 48, 100
3, 584448, Note_on_c, 1, 55, 80
3, 584448, Note_on_c, 1, 48, 80
3, 584636, Note_off_c, 1, 55, 100
3, 584636, Note_off_c, 1, 48, 100
3, 584640, Note_on_c, 1, 55, 80
3, 584640, Note_on_c, 1, 48, 80
3, 584828, Note_off_c, 1, 55, 100
3, 584828, Note_off_c, 1, 48, 100
3, 584832, Note_on_c, 1, 48, 80
3, 584832, Note_on_c, 1, 57, 80
3, 585020, Note_off_c, 1, 48, 100
3, 585020, Note_off_c, 1, 57, 100
3, 585024, Note_on_c, 1, 48, 80
3, 585024, Note_on_c, 1, 57, 80
3, 585212, Note_off_c, 1, 48, 100
3, 585212, Note_off_c, 1, 57, 100
3, 585216, Note_on_c, 1, 55, 80
3, 585216, Note_on_c, 1, 50, 80
3, 585216, Note_on_c, 1, 47, 80
3, 585404, Note_off_c, 1, 55, 100
3, 585404, Note_off_c, 1, 50, 100
3, 585404, Note_off_c, 1, 47, 100
3, 585408, Note_on_c, 1, 55, 82
3, 585408, Note_on_c, 1, 50, 82
3, 585408, Note_on_c, 1, 47, 82
3, 585596, Note_off_c, 1, 55, 100
3, 585596, Note_off_c, 1, 50, 100
3, 585596, Note_off_c, 1, 47, 100
3, 585600, Note_on_c, 1, 55, 85
3, 585600, Note_on_c, 1, 50, 85
3, 585600, Note_on_c, 1, 47, 85
3, 585788, Note_off_c, 1, 55, 100
3, 585788, Note_off_c, 1, 50, 100
3, 585788, Note_off_c, 1, 47, 100
3, 585792, Note_on_c, 1, 55, 87
3, 585792, Note_on_c, 1, 50, 87
3, 585792, Note_on_c, 1, 47, 87
3, 585980, Note_off_c, 1, 55, 100
3, 585980, Note_off_c, 1, 50, 100
3, 585980, Note_off_c, 1, 47, 100
3, 585984, Note_on_c, 1, 55, 90
3, 585984, Note_on_c, 1, 48, 90
3, 585984, Note_on_c, 1, 46, 90
3, 586172, Note_off_c, 1, 55, 100
3, 586172, Note_off_c, 1, 48, 100
3, 586172, Note_off_c, 1, 46, 100
3, 586176, Note_on_c, 1, 55, 93
3, 586176, Note_on_c, 1, 48, 93
3, 586176, Note_on_c, 1, 46, 93
3, 586364, Note_off_c, 1, 55, 100
3, 586364, Note_off_c, 1, 48, 100
3, 586364, Note_off_c, 1, 46, 100
3, 586368, Note_on_c, 1, 55, 95
3, 586368, Note_on_c, 1, 48, 95
3, 586368, Note_on_c, 1, 46, 95
3, 586556, Note_off_c, 1, 55, 100
3, 586556, Note_off_c, 1, 48, 100
3, 586556, Note_off_c, 1, 46, 100
3, 586560, Note_on_c, 1, 55, 98
3, 586560, Note_on_c, 1, 48, 98
3, 586560, Note_on_c, 1, 46, 98
3, 586748, Note_off_c, 1, 55, 100
3, 586748, Note_off_c, 1, 48, 100
3, 586748, Note_off_c, 1, 46, 100
3, 586752, Note_on_c, 1, 53, 101
3, 586752, Note_on_c, 1, 45, 101
3, 586752, Note_on_c, 1, 48, 101
3, 586940, Note_off_c, 1, 53, 100
3, 586940, Note_off_c, 1, 45, 100
3, 586940, Note_off_c, 1, 48, 100
3, 586944, Note_on_c, 1, 53, 103
3, 586944, Note_on_c, 1, 48, 103
3, 586944, Note_on_c, 1, 45, 103
3, 587132, Note_off_c, 1, 53, 100
3, 587132, Note_off_c, 1, 48, 100
3, 587132, Note_off_c, 1, 45, 100
3, 587136, Note_on_c, 1, 53, 106
3, 587136, Note_on_c, 1, 45, 106
3, 587136, Note_on_c, 1, 48, 106
3, 587324, Note_off_c, 1, 53, 100
3, 587324, Note_off_c, 1, 45, 100
3, 587324, Note_off_c, 1, 48, 100
3, 587328, Note_on_c, 1, 53, 109
3, 587328, Note_on_c, 1, 48, 109
3, 587328, Note_on_c, 1, 45, 109
3, 587516, Note_off_c, 1, 53, 100
3, 587516, Note_off_c, 1, 48, 100
3, 587516, Note_off_c, 1, 45, 100
3, 587520, Note_on_c, 1, 53, 111
3, 587520, Note_on_c, 1, 48, 111
3, 587520, Note_on_c, 1, 44, 111
3, 587708, Note_off_c, 1, 53, 100
3, 587708, Note_off_c, 1, 48, 100
3, 587708, Note_off_c, 1, 44, 100
3, 587712, Note_on_c, 1, 44, 114
3, 587712, Note_on_c, 1, 32, 114
3, 587900, Note_off_c, 1, 44, 100
3, 587900, Note_off_c, 1, 32, 100
3, 587904, Note_on_c, 1, 44, 116
3, 587904, Note_on_c, 1, 32, 116
3, 588092, Note_off_c, 1, 44, 100
3, 588092, Note_off_c, 1, 32, 100
3, 588096, Note_on_c, 1, 44, 119
3, 588096, Note_on_c, 1, 32, 119
3, 588284, Note_off_c, 1, 44, 100
3, 588284, Note_off_c, 1, 32, 100
3, 588288, Note_on_c, 1, 43, 120
3, 588288, Note_on_c, 1, 31, 120
3, 588380, Note_off_c, 1, 43, 100
3, 588380, Note_off_c, 1, 31, 100
3, 588384, Note_on_c, 1, 33, 120
3, 588476, Note_off_c, 1, 33, 100
3, 588480, Note_on_c, 1, 35, 120
3, 588572, Note_off_c, 1, 35, 100
3, 588576, Note_on_c, 1, 36, 120
3, 588668, Note_off_c, 1, 36, 100
3, 588672, Note_on_c, 1, 38, 120
3, 588764, Note_off_c, 1, 38, 100
3, 588768, Note_on_c, 1, 40, 120
3, 588860, Note_off_c, 1, 40, 100
3, 588864, Note_on_c, 1, 41, 120
3, 588956, Note_off_c, 1, 41, 100
3, 588960, Note_on_c, 1, 43, 120
3, 589052, Note_off_c, 1, 43, 100
3, 589056, Note_on_c, 1, 45, 120
3, 589148, Note_off_c, 1, 45, 100
3, 589152, Note_on_c, 1, 47, 120
3, 589244, Note_off_c, 1, 47, 100
3, 589248, Note_on_c, 1, 48, 120
3, 589340, Note_off_c, 1, 48, 100
3, 589344, Note_on_c, 1, 50, 120
3, 589436, Note_off_c, 1, 50, 100
3, 589440, Note_on_c, 1, 52, 120
3, 589532, Note_off_c, 1, 52, 100
3, 589536, Note_on_c, 1, 53, 120
3, 589628, Note_off_c, 1, 53, 100
3, 589632, Note_on_c, 1, 55, 120
3, 589724, Note_off_c, 1, 55, 100
3, 589728, Note_on_c, 1, 57, 120
3, 589820, Note_off_c, 1, 57, 100
3, 589824, Note_on_c, 1, 53, 120
3, 589824, Note_on_c, 1, 41, 120
3, 590204, Note_off_c, 1, 53, 100
3, 590204, Note_off_c, 1, 41, 100
3, 590208, Note_on_c, 1, 55, 120
3, 590208, Note_on_c, 1, 50, 120
3, 590208, Note_on_c, 1, 47, 120
3, 590208, Note_on_c, 1, 43, 120
3, 590588, Note_off_c, 1, 55, 100
3, 590588, Note_off_c, 1, 50, 100
3, 590588, Note_off_c, 1, 47, 100
3, 590588, Note_off_c, 1, 43, 100
3, 591360, Note_on_c, 1, 60, 120
3, 591360, Note_on_c, 1, 55, 120
3, 591360, Note_on_c, 1, 52, 120
3, 591360, Note_on_c, 1, 48, 120
3, 591740, Note_off_c, 1, 60, 100
3, 591740, Note_off_c, 1, 55, 100
3, 591740, Note_off_c, 1, 52, 100
3, 591740, Note_off_c, 1, 48, 100
3, 592128, Note_on_c, 1, 55, 120
3, 592128, Note_on_c, 1, 50, 120
3, 592128, Note_on_c, 1, 47, 120
3, 592128, Note_on_c, 1, 43, 120
3, 592508, Note_off_c, 1, 55, 100
3, 592508, Note_off_c, 1, 50, 100
3, 592508, Note_off_c, 1, 47, 100
3, 592508, Note_off_c, 1, 43, 100
3, 592896, Note_on_c, 1, 48, 120
3, 592896, Note_on_c, 1, 43, 120
3, 592896, Note_on_c, 1, 40, 120
3, 592896, Note_on_c, 1, 36, 120
3, 594044, Note_off_c, 1, 48, 100
3, 594044, Note_off_c, 1, 43, 100
3, 594044, Note_off_c, 1, 40, 100
3, 594044, Note_off_c, 1, 36, 100
3, 594044, End_track
4, 0, Start_track
4, 0, Key_signature, 0, "major"
4, 0, Control_c, 0, 64, 127
4, 0, Control_c, 1, 7, 100
4, 376, Control_c, 0, 64, 0
4, 384, Control_c, 0, 64, 127
4, 760, Control_c, 0, 64, 0
4, 768, Control_c, 0, 64, 127
4, 1144, Control_c, 0, 64, 0
4, 1152, Control_c, 0, 64, 127
4, 1528, Control_c, 0, 64, 0
4, 1528, End_track
0, 0, End_of_file
