0, 0, Header, 1, 3, 384
1, 0, Start_track
1, 0, Title_t, "L.v.Beethoven 2-3mov - Piano Sonata No.21 in C Major Op.53\000"
1, 0, Copyright_t, "Copyright(C) 1995-2009, Suzuki Software\000"
1, 0, Sequencer_specific, 9, 67, 123, 0, 88, 70, 48, 50, 0, 1
1, 0, Text_t, "XFhd:2000/08/06:JP:Classical::::L.v.Beethoven:::Kaoru Suzuki\000"
1, 0, Text_t, "XFln:JP:\203s\203A\203m\203\\\203i\203^\221æ21\224Ô\203n\222·\222²\215ì\225i53\201`\221æ2¥3\212y\217Í:L.v.\203x\201[\203g\201[\203\224\203F\203\223:::\227é\202¿\202á\202ñ:\227é\202¿\202á\202ñ\000"
1, 0, Time_signature, 6, 3, 96, 8
1, 0, Sequencer_specific, 3, 0, 0, 65
1, 0, Sequencer_specific, 5, 0, 0, 119, 14, 0
1, 0, Tempo, 1714285
1, 12480, Tempo, 1875000
1, 12864, Tempo, 1714285
1, 14592, Tempo, 1875000
1, 14784, Tempo, 2000000
1, 15072, Tempo, 1714285
1, 16896, Tempo, 1875000
1, 17088, Tempo, 2000000
1, 18528, Tempo, 1714285
1, 20160, Tempo, 2222222
1, 20448, Tempo, 1875000
1, 20832, Tempo, 1714285
1, 22464, Tempo, 2222222
1, 22752, Tempo, 1875000
1, 23136, Tempo, 1714285
1, 29184, Tempo, 1875000
1, 29760, Tempo, 2000000
1, 29952, Tempo, 1714285
1, 30336, Tempo, 2000000
1, 31488, Tempo, 2400000
1, 31872, Tempo, 3000000
1, 32256, Time_signature, 2, 2, 96, 8
1, 33024, Tempo, 545454
1, 106752, Tempo, 582524
1, 107136, Tempo, 638297
1, 107328, Tempo, 705882
1, 107520, Tempo, 571428
1, 119808, Tempo, 545454
1, 198912, Tempo, 571428
1, 199296, Tempo, 600000
1, 200448, Tempo, 631578
1, 201984, Tempo, 571428
1, 215040, Tempo, 600000
1, 215808, Tempo, 545454
1, 337920, Tempo, 666666
1, 340224, Tempo, 750000
1, 340992, Tempo, 857142
1, 341376, Tempo, 2000000
1, 341760, Time_signature, 2, 1, 96, 8
1, 341760, Tempo, 214285
1, 365568, Tempo, 222222
1, 365952, Tempo, 230769
1, 366144, Tempo, 250000
1, 366528, Tempo, 214285
1, 549120, Tempo, 250000
1, 552192, Tempo, 230769
1, 555264, Tempo, 272727
1, 555264, End_track
2, 0, Start_track
2, 0, Title_t, "Right"
2, 0, Control_c, 0, 0, 0
2, 0, Program_c, 0, 0
2, 0, Control_c, 0, 7, 100
2, 0, Control_c, 0, 10, 78
2, 0, Control_c, 0, 91, 127
2, 0, Key_signature, -1, "major"
2, 192, Note_on_c, 0, 48, 80
2, 332, Note_off_c, 0, 48, 100
2, 336, Note_on_c, 0, 48, 80
2, 380, Note_off_c, 0, 48, 100
2, 384, Note_on_c, 0, 57, 80
2, 572, Note_off_c, 0, 57, 100
2, 768, Note_on_c, 0, 57, 80
2, 908, Note_off_c, 0, 57, 100
2, 912, Note_on_c, 0, 57, 80
2, 956, Note_off_c, 0, 57, 100
2, 960, Note_on_c, 0, 63, 80
2, 1148, Note_off_c, 0, 63, 100
2, 1344, Note_on_c, 0, 64, 80
2, 1344, Note_on_c, 0, 56, 80
2, 1532, Note_off_c, 0, 64, 100
2, 1532, Note_off_c, 0, 56, 100
2, 1536, Note_on_c, 0, 64, 80
2, 1536, Note_on_c, 0, 59, 80
2, 1536, Note_on_c, 0, 56, 80
2, 1724, Note_off_c, 0, 64, 100
2, 1724, Note_off_c, 0, 59, 100
2, 1724, Note_off_c, 0, 56, 100
2, 1728, Note_on_c, 0, 64, 80
2, 1728, Note_on_c, 0, 59, 80
2, 1728, Note_on_c, 0, 56, 80
2, 2108, Note_off_c, 0, 64, 100
2, 2108, Note_off_c, 0, 59, 100
2, 2108, Note_off_c, 0, 56, 100
2, 2496, Note_on_c, 0, 59, 80
2, 2636, Note_off_c, 0, 59, 100
2, 2640, Note_on_c, 0, 59, 80
2, 2684, Note_off_c, 0, 59, 100
2, 2688, Note_on_c, 0, 67, 80
2, 2876, Note_off_c, 0, 67, 100
2, 3072, Note_on_c, 0, 61, 80
2, 3212, Note_off_c, 0, 61, 100
2, 3216, Note_on_c, 0, 61, 80
2, 3260, Note_off_c, 0, 61, 100
2, 3264, Note_on_c, 0, 70, 80
2, 3452, Note_off_c, 0, 70, 100
2, 3648, Note_on_c, 0, 71, 80
2, 3648, Note_on_c, 0, 66, 80
2, 3648, Note_on_c, 0, 59, 80
2, 3836, Note_off_c, 0, 71, 100
2, 3836, Note_off_c, 0, 66, 100
2, 3836, Note_off_c, 0, 59, 100
2, 3840, Note_on_c, 0, 71, 80
2, 3840, Note_on_c, 0, 66, 80
2, 3840, Note_on_c, 0, 59, 80
2, 4028, Note_off_c, 0, 71, 100
2, 4028, Note_off_c, 0, 66, 100
2, 4028, Note_off_c, 0, 59, 100
2, 4032, Note_on_c, 0, 71, 80
2, 4032, Note_on_c, 0, 66, 80
2, 4032, Note_on_c, 0, 59, 80
2, 4412, Note_off_c, 0, 71, 100
2, 4412, Note_off_c, 0, 66, 100
2, 4412, Note_off_c, 0, 59, 100
2, 4800, Note_on_c, 0, 65, 80
2, 4940, Note_off_c, 0, 65, 100
2, 4944, Note_on_c, 0, 65, 80
2, 4988, Note_off_c, 0, 65, 100
2, 4992, Note_on_c, 0, 71, 80
2, 5180, Note_off_c, 0, 71, 100
2, 5376, Note_on_c, 0, 71, 80
2, 5516, Note_off_c, 0, 71, 100
2, 5520, Note_on_c, 0, 71, 80
2, 5564, Note_off_c, 0, 71, 100
2, 5568, Note_on_c, 0, 77, 80
2, 5948, Note_off_c, 0, 77, 100
2, 5952, Note_on_c, 0, 76, 80
2, 6140, Note_off_c, 0, 76, 100
2, 6144, Note_on_c, 0, 79, 80
2, 6332, Note_off_c, 0, 79, 100
2, 6336, Note_on_c, 0, 70, 80
2, 6336, Note_on_c, 0, 64, 80
2, 6716, Note_off_c, 0, 70, 100
2, 6716, Note_off_c, 0, 64, 100
2, 7104, Note_on_c, 0, 65, 80
2, 7104, Note_on_c, 0, 69, 80
2, 7292, Note_off_c, 0, 65, 100
2, 7292, Note_off_c, 0, 69, 100
2, 7296, Note_on_c, 0, 77, 80
2, 7296, Note_on_c, 0, 69, 80
2, 7484, Note_off_c, 0, 77, 100
2, 7484, Note_off_c, 0, 69, 100
2, 7488, Note_on_c, 0, 69, 80
2, 7488, Note_on_c, 0, 65, 80
2, 7868, Note_off_c, 0, 69, 100
2, 7868, Note_off_c, 0, 65, 100
2, 8256, Note_on_c, 0, 67, 78
2, 8256, Note_on_c, 0, 62, 78
2, 8256, Note_on_c, 0, 58, 78
2, 8444, Note_off_c, 0, 67, 100
2, 8444, Note_off_c, 0, 62, 100
2, 8444, Note_off_c, 0, 58, 100
2, 8832, Note_on_c, 0, 64, 71
2, 8832, Note_on_c, 0, 58, 71
2, 8832, Note_on_c, 0, 55, 71
2, 9020, Note_off_c, 0, 64, 100
2, 9020, Note_off_c, 0, 58, 100
2, 9020, Note_off_c, 0, 55, 100
2, 9408, Note_on_c, 0, 65, 70
2, 9408, Note_on_c, 0, 60, 70
2, 9408, Note_on_c, 0, 57, 70
2, 9596, Note_off_c, 0, 65, 100
2, 9596, Note_off_c, 0, 60, 100
2, 9596, Note_off_c, 0, 57, 100
2, 9600, Note_on_c, 0, 69, 70
2, 9600, Note_on_c, 0, 60, 70
2, 9600, Note_on_c, 0, 57, 70
2, 9788, Note_off_c, 0, 69, 100
2, 9788, Note_off_c, 0, 60, 100
2, 9788, Note_off_c, 0, 57, 100
2, 9792, Note_on_c, 0, 65, 70
2, 9792, Note_on_c, 0, 60, 70
2, 9792, Note_on_c, 0, 57, 70
2, 10172, Note_off_c, 0, 65, 100
2, 10172, Note_off_c, 0, 60, 100
2, 10172, Note_off_c, 0, 57, 100
2, 10176, Note_on_c, 0, 48, 80
2, 10316, Note_off_c, 0, 48, 100
2, 10320, Note_on_c, 0, 48, 80
2, 10364, Note_off_c, 0, 48, 100
2, 10368, Note_on_c, 0, 48, 80
2, 10412, Note_off_c, 0, 48, 100
2, 10416, Note_on_c, 0, 57, 80
2, 10652, Note_off_c, 0, 57, 100
2, 10656, Note_on_c, 0, 55, 80
2, 10748, Note_off_c, 0, 55, 100
2, 10752, Note_on_c, 0, 57, 80
2, 10844, Note_off_c, 0, 57, 100
2, 10848, Note_on_c, 0, 58, 80
2, 10940, Note_off_c, 0, 58, 100
2, 10944, Note_on_c, 0, 59, 80
2, 11036, Note_off_c, 0, 59, 100
2, 11040, Note_on_c, 0, 60, 80
2, 11228, Note_off_c, 0, 60, 100
2, 11232, Note_on_c, 0, 62, 80
2, 11420, Note_off_c, 0, 62, 100
2, 11424, Note_on_c, 0, 58, 80
2, 11468, Note_off_c, 0, 58, 100
2, 11472, Note_on_c, 0, 57, 80
2, 11516, Note_off_c, 0, 57, 100
2, 11520, Note_on_c, 0, 55, 80
2, 11612, Note_off_c, 0, 55, 100
2, 11616, Note_on_c, 0, 66, 80
2, 11708, Note_off_c, 0, 66, 100
2, 11712, Note_on_c, 0, 67, 80
2, 11804, Note_off_c, 0, 67, 100
2, 11808, Note_on_c, 0, 69, 80
2, 11900, Note_off_c, 0, 69, 100
2, 11904, Note_on_c, 0, 70, 80
2, 11996, Note_off_c, 0, 70, 100
2, 12000, Note_on_c, 0, 78, 80
2, 12092, Note_off_c, 0, 78, 100
2, 12096, Note_on_c, 0, 79, 80
2, 12188, Note_off_c, 0, 79, 100
2, 12192, Note_on_c, 0, 81, 80
2, 12284, Note_off_c, 0, 81, 100
2, 12288, Note_on_c, 0, 82, 80
2, 12380, Note_off_c, 0, 82, 100
2, 12480, Note_on_c, 0, 48, 80
2, 12620, Note_off_c, 0, 48, 100
2, 12624, Note_on_c, 0, 48, 80
2, 12668, Note_off_c, 0, 48, 100
2, 12672, Note_on_c, 0, 48, 80
2, 12716, Note_off_c, 0, 48, 100
2, 12720, Note_on_c, 0, 58, 80
2, 12956, Note_off_c, 0, 58, 100
2, 12960, Note_on_c, 0, 57, 80
2, 13052, Note_off_c, 0, 57, 100
2, 13056, Note_on_c, 0, 58, 80
2, 13148, Note_off_c, 0, 58, 100
2, 13152, Note_on_c, 0, 60, 80
2, 13244, Note_off_c, 0, 60, 100
2, 13248, Note_on_c, 0, 61, 80
2, 13340, Note_off_c, 0, 61, 100
2, 13344, Note_on_c, 0, 62, 80
2, 13532, Note_off_c, 0, 62, 100
2, 13536, Note_on_c, 0, 60, 80
2, 13536, Note_on_c, 0, 55, 80
2, 13724, Note_off_c, 0, 60, 100
2, 13724, Note_off_c, 0, 55, 100
2, 13728, Note_on_c, 0, 62, 80
2, 13728, Note_on_c, 0, 52, 80
2, 13772, Note_off_c, 0, 62, 100
2, 13776, Note_on_c, 0, 58, 80
2, 13820, Note_off_c, 0, 52, 100
2, 13820, Note_off_c, 0, 58, 100
2, 13824, Note_on_c, 0, 57, 80
2, 13824, Note_on_c, 0, 53, 80
2, 13916, Note_off_c, 0, 57, 100
2, 13916, Note_off_c, 0, 53, 100
2, 13920, Note_on_c, 0, 68, 80
2, 14012, Note_off_c, 0, 68, 100
2, 14016, Note_on_c, 0, 69, 80
2, 14108, Note_off_c, 0, 69, 100
2, 14112, Note_on_c, 0, 71, 80
2, 14204, Note_off_c, 0, 71, 100
2, 14208, Note_on_c, 0, 72, 80
2, 14300, Note_off_c, 0, 72, 100
2, 14304, Note_on_c, 0, 80, 80
2, 14396, Note_off_c, 0, 80, 100
2, 14400, Note_on_c, 0, 81, 80
2, 14492, Note_off_c, 0, 81, 100
2, 14496, Note_on_c, 0, 83, 80
2, 14588, Note_off_c, 0, 83, 100
2, 14592, Note_on_c, 0, 84, 80
2, 14780, Note_off_c, 0, 84, 100
2, 14784, Note_on_c, 0, 72, 80
2, 14924, Note_off_c, 0, 72, 100
2, 14928, Note_on_c, 0, 72, 80
2, 14972, Note_off_c, 0, 72, 100
2, 14976, Note_on_c, 0, 65, 80
2, 15168, Note_on_c, 0, 77, 81
2, 15308, Note_off_c, 0, 77, 100
2, 15312, Note_on_c, 0, 77, 83
2, 15356, Note_off_c, 0, 65, 100
2, 15356, Note_off_c, 0, 77, 100
2, 15360, Note_on_c, 0, 76, 83
2, 15360, Note_on_c, 0, 67, 83
2, 15548, Note_off_c, 0, 76, 100
2, 15552, Note_on_c, 0, 79, 85
2, 15740, Note_off_c, 0, 67, 100
2, 15740, Note_off_c, 0, 79, 100
2, 15744, Note_on_c, 0, 64, 86
2, 15744, Note_on_c, 0, 70, 86
2, 15884, Note_off_c, 0, 70, 100
2, 15888, Note_on_c, 0, 70, 88
2, 15932, Note_off_c, 0, 64, 100
2, 15932, Note_off_c, 0, 70, 100
2, 15936, Note_on_c, 0, 65, 88
2, 15936, Note_on_c, 0, 70, 88
2, 15950, Note_off_c, 0, 70, 100
2, 15952, Note_on_c, 0, 69, 88
2, 15982, Note_off_c, 0, 69, 100
2, 15984, Note_on_c, 0, 68, 89
2, 16028, Note_off_c, 0, 68, 100
2, 16032, Note_on_c, 0, 69, 89
2, 16076, Note_off_c, 0, 69, 100
2, 16080, Note_on_c, 0, 72, 89
2, 16124, Note_off_c, 0, 65, 100
2, 16124, Note_off_c, 0, 72, 100
2, 16128, Note_on_c, 0, 65, 90
2, 16320, Note_on_c, 0, 77, 92
2, 16460, Note_off_c, 0, 77, 100
2, 16464, Note_on_c, 0, 77, 93
2, 16508, Note_off_c, 0, 65, 100
2, 16508, Note_off_c, 0, 77, 100
2, 16512, Note_on_c, 0, 76, 93
2, 16512, Note_on_c, 0, 67, 93
2, 16700, Note_off_c, 0, 76, 100
2, 16704, Note_on_c, 0, 79, 95
2, 16892, Note_off_c, 0, 67, 100
2, 16892, Note_off_c, 0, 79, 100
2, 16896, Note_on_c, 0, 64, 97
2, 16896, Note_on_c, 0, 70, 97
2, 17036, Note_off_c, 0, 70, 100
2, 17040, Note_on_c, 0, 70, 98
2, 17084, Note_off_c, 0, 64, 100
2, 17084, Note_off_c, 0, 70, 100
2, 17088, Note_on_c, 0, 65, 99
2, 17088, Note_on_c, 0, 69, 99
2, 17276, Note_off_c, 0, 65, 100
2, 17276, Note_off_c, 0, 69, 100
2, 17472, Note_on_c, 0, 67, 87
2, 17472, Note_on_c, 0, 62, 87
2, 17472, Note_on_c, 0, 58, 87
2, 17660, Note_off_c, 0, 67, 100
2, 17660, Note_off_c, 0, 62, 100
2, 17660, Note_off_c, 0, 58, 100
2, 18048, Note_on_c, 0, 64, 75
2, 18048, Note_on_c, 0, 58, 75
2, 18048, Note_on_c, 0, 55, 75
2, 18236, Note_off_c, 0, 64, 100
2, 18236, Note_off_c, 0, 58, 100
2, 18236, Note_off_c, 0, 55, 100
2, 18624, Note_on_c, 0, 48, 70
2, 18764, Note_off_c, 0, 48, 100
2, 18768, Note_on_c, 0, 48, 70
2, 18812, Note_off_c, 0, 48, 100
2, 18816, Note_on_c, 0, 57, 70
2, 19004, Note_off_c, 0, 57, 100
2, 19200, Note_on_c, 0, 57, 70
2, 19340, Note_off_c, 0, 57, 100
2, 19344, Note_on_c, 0, 57, 70
2, 19388, Note_off_c, 0, 57, 100
2, 19392, Note_on_c, 0, 63, 70
2, 19580, Note_off_c, 0, 63, 100
2, 19584, Note_on_c, 0, 64, 70
2, 19772, Note_off_c, 0, 64, 100
2, 19776, Note_on_c, 0, 64, 70
2, 19776, Note_on_c, 0, 59, 70
2, 19776, Note_on_c, 0, 56, 70
2, 19964, Note_off_c, 0, 64, 100
2, 19964, Note_off_c, 0, 59, 100
2, 19964, Note_off_c, 0, 56, 100
2, 19968, Note_on_c, 0, 64, 70
2, 19968, Note_on_c, 0, 59, 70
2, 19968, Note_on_c, 0, 56, 70
2, 20156, Note_off_c, 0, 64, 100
2, 20156, Note_off_c, 0, 59, 100
2, 20156, Note_off_c, 0, 56, 100
2, 20160, Note_on_c, 0, 64, 70
2, 20160, Note_on_c, 0, 59, 70
2, 20160, Note_on_c, 0, 56, 70
2, 20348, Note_off_c, 0, 64, 100
2, 20348, Note_off_c, 0, 59, 100
2, 20348, Note_off_c, 0, 56, 100
2, 20352, Note_on_c, 0, 55, 80
2, 20540, Note_off_c, 0, 55, 100
2, 20544, Note_on_c, 0, 55, 90
2, 20732, Note_off_c, 0, 55, 100
2, 20736, Note_on_c, 0, 55, 70
2, 20928, Note_on_c, 0, 59, 70
2, 21068, Note_off_c, 0, 59, 100
2, 21072, Note_on_c, 0, 59, 70
2, 21116, Note_off_c, 0, 59, 100
2, 21120, Note_on_c, 0, 67, 70
2, 21308, Note_off_c, 0, 55, 100
2, 21308, Note_off_c, 0, 67, 100
2, 21504, Note_on_c, 0, 61, 70
2, 21644, Note_off_c, 0, 61, 100
2, 21648, Note_on_c, 0, 61, 70
2, 21692, Note_off_c, 0, 61, 100
2, 21696, Note_on_c, 0, 70, 70
2, 21884, Note_off_c, 0, 70, 100
2, 21888, Note_on_c, 0, 71, 70
2, 22076, Note_off_c, 0, 71, 100
2, 22080, Note_on_c, 0, 71, 70
2, 22080, Note_on_c, 0, 66, 70
2, 22080, Note_on_c, 0, 59, 70
2, 22268, Note_off_c, 0, 71, 100
2, 22268, Note_off_c, 0, 66, 100
2, 22268, Note_off_c, 0, 59, 100
2, 22272, Note_on_c, 0, 71, 70
2, 22272, Note_on_c, 0, 66, 70
2, 22272, Note_on_c, 0, 59, 70
2, 22460, Note_off_c, 0, 71, 100
2, 22460, Note_off_c, 0, 66, 100
2, 22460, Note_off_c, 0, 59, 100
2, 22464, Note_on_c, 0, 71, 70
2, 22464, Note_on_c, 0, 66, 70
2, 22464, Note_on_c, 0, 59, 70
2, 22652, Note_off_c, 0, 71, 100
2, 22652, Note_off_c, 0, 66, 100
2, 22652, Note_off_c, 0, 59, 100
2, 23040, Note_on_c, 0, 53, 70
2, 23228, Note_off_c, 0, 53, 100
2, 23232, Note_on_c, 0, 65, 72
2, 23372, Note_off_c, 0, 65, 100
2, 23376, Note_on_c, 0, 65, 74
2, 23420, Note_off_c, 0, 65, 100
2, 23424, Note_on_c, 0, 71, 75
2, 23804, Note_off_c, 0, 71, 100
2, 23808, Note_on_c, 0, 71, 81
2, 23948, Note_off_c, 0, 71, 100
2, 23952, Note_on_c, 0, 71, 83
2, 23996, Note_off_c, 0, 71, 100
2, 24000, Note_on_c, 0, 77, 84
2, 24380, Note_off_c, 0, 77, 100
2, 24384, Note_on_c, 0, 77, 89
2, 24524, Note_off_c, 0, 77, 100
2, 24528, Note_on_c, 0, 77, 92
2, 24572, Note_off_c, 0, 77, 100
2, 24576, Note_on_c, 0, 80, 92
2, 24956, Note_off_c, 0, 80, 100
2, 24960, Note_on_c, 0, 77, 98
2, 25100, Note_off_c, 0, 77, 100
2, 25104, Note_on_c, 0, 77, 100
2, 25148, Note_off_c, 0, 77, 100
2, 25152, Note_on_c, 0, 86, 101
2, 25532, Note_off_c, 0, 86, 100
2, 25536, Note_on_c, 0, 77, 107
2, 25676, Note_off_c, 0, 77, 100
2, 25680, Note_on_c, 0, 77, 109
2, 25724, Note_off_c, 0, 77, 100
2, 25728, Note_on_c, 0, 89, 109
2, 26108, Note_off_c, 0, 89, 100
2, 26112, Note_on_c, 0, 77, 110
2, 26252, Note_off_c, 0, 77, 100
2, 26256, Note_on_c, 0, 77, 110
2, 26300, Note_off_c, 0, 77, 100
2, 26304, Note_on_c, 0, 89, 110
2, 26684, Note_off_c, 0, 89, 100
2, 26688, Note_on_c, 0, 77, 110
2, 26828, Note_off_c, 0, 77, 100
2, 26832, Note_on_c, 0, 77, 110
2, 26876, Note_off_c, 0, 77, 100
2, 26880, Note_on_c, 0, 89, 110
2, 27212, Note_off_c, 0, 89, 100
2, 27216, Note_on_c, 0, 77, 110
2, 27260, Note_off_c, 0, 77, 100
2, 27264, Note_on_c, 0, 89, 110
2, 27356, Note_off_c, 0, 89, 100
2, 27408, Note_on_c, 0, 74, 108
2, 27452, Note_off_c, 0, 74, 100
2, 27456, Note_on_c, 0, 86, 107
2, 27544, Note_off_c, 0, 86, 100
2, 27600, Note_on_c, 0, 71, 103
2, 27644, Note_off_c, 0, 71, 100
2, 27648, Note_on_c, 0, 83, 101
2, 27736, Note_off_c, 0, 83, 100
2, 27792, Note_on_c, 0, 65, 97
2, 27836, Note_off_c, 0, 65, 100
2, 27840, Note_on_c, 0, 77, 96
2, 27924, Note_off_c, 0, 77, 100
2, 27984, Note_on_c, 0, 62, 92
2, 28028, Note_off_c, 0, 62, 100
2, 28032, Note_on_c, 0, 74, 91
2, 28118, Note_off_c, 0, 74, 100
2, 28176, Note_on_c, 0, 59, 87
2, 28220, Note_off_c, 0, 59, 100
2, 28224, Note_on_c, 0, 71, 85
2, 28318, Note_off_c, 0, 71, 100
2, 28368, Note_on_c, 0, 53, 81
2, 28412, Note_off_c, 0, 53, 100
2, 28416, Note_on_c, 0, 65, 80
2, 28504, Note_off_c, 0, 65, 100
2, 28560, Note_on_c, 0, 50, 76
2, 28604, Note_off_c, 0, 50, 100
2, 28608, Note_on_c, 0, 62, 75
2, 28700, Note_off_c, 0, 62, 100
2, 28752, Note_on_c, 0, 47, 71
2, 28796, Note_off_c, 0, 47, 100
2, 28800, Note_on_c, 0, 59, 80
2, 28988, Note_off_c, 0, 59, 100
2, 28992, Note_on_c, 0, 53, 80
2, 28992, Note_on_c, 0, 50, 80
2, 28992, Note_on_c, 0, 47, 80
2, 29180, Note_off_c, 0, 53, 100
2, 29180, Note_off_c, 0, 50, 100
2, 29180, Note_off_c, 0, 47, 100
2, 29184, Note_on_c, 0, 53, 80
2, 29184, Note_on_c, 0, 50, 80
2, 29184, Note_on_c, 0, 47, 80
2, 29372, Note_off_c, 0, 53, 100
2, 29372, Note_off_c, 0, 50, 100
2, 29372, Note_off_c, 0, 47, 100
2, 29376, Note_on_c, 0, 53, 80
2, 29376, Note_on_c, 0, 50, 80
2, 29376, Note_on_c, 0, 47, 80
2, 29756, Note_off_c, 0, 53, 100
2, 29756, Note_off_c, 0, 50, 100
2, 29756, Note_off_c, 0, 47, 100
2, 29760, Note_on_c, 0, 77, 80
2, 29948, Note_off_c, 0, 77, 100
2, 29952, Note_on_c, 0, 76, 80
2, 30140, Note_off_c, 0, 76, 100
2, 30144, Note_on_c, 0, 52, 80
2, 30144, Note_on_c, 0, 48, 80
2, 30332, Note_off_c, 0, 52, 100
2, 30332, Note_off_c, 0, 48, 100
2, 30336, Note_on_c, 0, 52, 80
2, 30336, Note_on_c, 0, 48, 80
2, 30524, Note_off_c, 0, 52, 100
2, 30524, Note_off_c, 0, 48, 100
2, 30528, Note_on_c, 0, 52, 80
2, 30528, Note_on_c, 0, 48, 80
2, 30908, Note_off_c, 0, 52, 100
2, 30908, Note_off_c, 0, 48, 100
2, 30912, Note_on_c, 0, 76, 80
2, 31100, Note_off_c, 0, 76, 100
2, 31104, Note_on_c, 0, 74, 80
2, 31292, Note_off_c, 0, 74, 100
2, 31296, Note_on_c, 0, 57, 80
2, 31296, Note_on_c, 0, 53, 80
2, 31296, Note_on_c, 0, 50, 80
2, 31484, Note_off_c, 0, 57, 100
2, 31484, Note_off_c, 0, 53, 100
2, 31484, Note_off_c, 0, 50, 100
2, 31488, Note_on_c, 0, 74, 80
2, 31676, Note_off_c, 0, 74, 100
2, 31680, Note_on_c, 0, 79, 80
2, 31868, Note_off_c, 0, 79, 100
2, 31872, Note_on_c, 0, 55, 80
2, 31872, Note_on_c, 0, 50, 80
2, 31872, Note_on_c, 0, 47, 80
2, 32060, Note_off_c, 0, 55, 100
2, 32060, Note_off_c, 0, 50, 100
2, 32060, Note_off_c, 0, 47, 100
2, 32064, Note_on_c, 0, 79, 80
2, 33020, Note_off_c, 0, 79, 100
2, 33024, Key_signature, 0, "major"
2, 33024, Control_c, 0, 64, 127
2, 33120, Note_on_c, 0, 52, 70
2, 33216, Note_on_c, 0, 55, 70
2, 33312, Note_on_c, 0, 60, 70
2, 33408, Note_off_c, 0, 52, 100
2, 33408, Note_on_c, 0, 64, 70
2, 33464, Note_off_c, 0, 55, 100
2, 33504, Note_on_c, 0, 52, 70
2, 33576, Note_off_c, 0, 60, 100
2, 33600, Note_on_c, 0, 55, 70
2, 33652, Note_off_c, 0, 64, 100
2, 33696, Note_on_c, 0, 60, 70
2, 33760, Note_off_c, 0, 52, 100
2, 33792, Note_on_c, 0, 64, 70
2, 33856, Note_off_c, 0, 55, 100
2, 33888, Note_on_c, 0, 52, 70
2, 33956, Note_off_c, 0, 60, 100
2, 33984, Note_on_c, 0, 55, 70
2, 34036, Note_off_c, 0, 64, 100
2, 34080, Note_on_c, 0, 60, 70
2, 34144, Note_off_c, 0, 52, 100
2, 34176, Note_on_c, 0, 64, 70
2, 34240, Note_off_c, 0, 55, 100
2, 34272, Note_on_c, 0, 52, 70
2, 34340, Note_off_c, 0, 60, 100
2, 34368, Note_on_c, 0, 55, 70
2, 34420, Note_off_c, 0, 64, 100
2, 34464, Note_on_c, 0, 60, 70
2, 34528, Note_off_c, 0, 52, 100
2, 34624, Note_off_c, 0, 55, 100
2, 34656, Note_on_c, 0, 53, 70
2, 34724, Note_off_c, 0, 60, 100
2, 34752, Note_on_c, 0, 55, 70
2, 34848, Note_on_c, 0, 59, 70
2, 34940, Note_off_c, 0, 53, 100
2, 34944, Note_on_c, 0, 62, 70
2, 35036, Note_off_c, 0, 55, 100
2, 35040, Note_on_c, 0, 53, 70
2, 35132, Note_off_c, 0, 59, 100
2, 35136, Note_on_c, 0, 55, 70
2, 35228, Note_off_c, 0, 62, 100
2, 35232, Note_on_c, 0, 59, 70
2, 35324, Note_off_c, 0, 53, 100
2, 35328, Note_on_c, 0, 64, 70
2, 35420, Note_off_c, 0, 55, 100
2, 35424, Note_on_c, 0, 52, 70
2, 35516, Note_off_c, 0, 59, 100
2, 35520, Note_on_c, 0, 55, 70
2, 35572, Note_off_c, 0, 64, 100
2, 35616, Note_on_c, 0, 60, 70
2, 35680, Note_off_c, 0, 52, 100
2, 35712, Note_on_c, 0, 64, 70
2, 35776, Note_off_c, 0, 55, 100
2, 35808, Note_on_c, 0, 52, 70
2, 35876, Note_off_c, 0, 60, 100
2, 35904, Note_on_c, 0, 55, 70
2, 35956, Note_off_c, 0, 64, 100
2, 36000, Note_on_c, 0, 60, 70
2, 36064, Note_off_c, 0, 52, 100
2, 36160, Note_off_c, 0, 55, 100
2, 36192, Note_on_c, 0, 52, 70
2, 36260, Note_off_c, 0, 60, 100
2, 36288, Note_on_c, 0, 55, 70
2, 36384, Note_on_c, 0, 60, 70
2, 36480, Note_off_c, 0, 52, 100
2, 36480, Note_on_c, 0, 64, 70
2, 36536, Note_off_c, 0, 55, 100
2, 36576, Note_on_c, 0, 52, 70
2, 36648, Note_off_c, 0, 60, 100
2, 36672, Note_on_c, 0, 55, 70
2, 36724, Note_off_c, 0, 64, 100
2, 36768, Note_on_c, 0, 60, 70
2, 36832, Note_off_c, 0, 52, 100
2, 36864, Note_on_c, 0, 64, 70
2, 36928, Note_off_c, 0, 55, 100
2, 36960, Note_on_c, 0, 52, 70
2, 37028, Note_off_c, 0, 60, 100
2, 37056, Note_on_c, 0, 55, 70
2, 37108, Note_off_c, 0, 64, 100
2, 37152, Note_on_c, 0, 60, 70
2, 37216, Note_off_c, 0, 52, 100
2, 37248, Note_on_c, 0, 64, 70
2, 37312, Note_off_c, 0, 55, 100
2, 37344, Note_on_c, 0, 52, 70
2, 37412, Note_off_c, 0, 60, 100
2, 37440, Note_on_c, 0, 55, 70
2, 37492, Note_off_c, 0, 64, 100
2, 37536, Note_on_c, 0, 60, 70
2, 37600, Note_off_c, 0, 52, 100
2, 37696, Note_off_c, 0, 55, 100
2, 37728, Note_on_c, 0, 53, 70
2, 37796, Note_off_c, 0, 60, 100
2, 37824, Note_on_c, 0, 55, 70
2, 37920, Note_on_c, 0, 59, 70
2, 38012, Note_off_c, 0, 53, 100
2, 38016, Note_on_c, 0, 62, 70
2, 38108, Note_off_c, 0, 55, 100
2, 38112, Note_on_c, 0, 53, 70
2, 38204, Note_off_c, 0, 59, 100
2, 38208, Note_on_c, 0, 55, 70
2, 38300, Note_off_c, 0, 62, 100
2, 38304, Note_on_c, 0, 59, 70
2, 38396, Note_off_c, 0, 53, 100
2, 38492, Note_off_c, 0, 55, 100
2, 38588, Note_off_c, 0, 59, 100
2, 38592, Note_on_c, 0, 52, 70
2, 38688, Note_on_c, 0, 55, 70
2, 38776, Control_c, 0, 64, 0
2, 38780, Note_off_c, 0, 52, 100
2, 38780, Note_off_c, 0, 55, 100
2, 38784, Note_on_c, 0, 60, 70
2, 38876, Note_off_c, 0, 60, 100
2, 38880, Note_on_c, 0, 64, 70
2, 38972, Note_off_c, 0, 64, 100
2, 38976, Note_on_c, 0, 62, 70
2, 39068, Note_off_c, 0, 62, 100
2, 39072, Note_on_c, 0, 60, 70
2, 39164, Note_off_c, 0, 60, 100
2, 39168, Control_c, 0, 64, 127
2, 39168, Note_on_c, 0, 59, 70
2, 39264, Note_on_c, 0, 55, 70
2, 39360, Note_on_c, 0, 59, 70
2, 39452, Note_off_c, 0, 59, 100
2, 39456, Note_on_c, 0, 62, 70
2, 39548, Note_off_c, 0, 55, 100
2, 39552, Note_on_c, 0, 67, 70
2, 39644, Note_off_c, 0, 59, 100
2, 39648, Note_on_c, 0, 55, 70
2, 39740, Note_off_c, 0, 62, 100
2, 39744, Note_on_c, 0, 59, 70
2, 39836, Note_off_c, 0, 67, 100
2, 39840, Note_on_c, 0, 62, 70
2, 39932, Note_off_c, 0, 55, 100
2, 39936, Note_on_c, 0, 67, 70
2, 40028, Note_off_c, 0, 59, 100
2, 40032, Note_on_c, 0, 55, 70
2, 40124, Note_off_c, 0, 62, 100
2, 40128, Note_on_c, 0, 59, 70
2, 40220, Note_off_c, 0, 67, 100
2, 40224, Note_on_c, 0, 62, 70
2, 40316, Note_off_c, 0, 55, 100
2, 40320, Note_on_c, 0, 67, 70
2, 40412, Note_off_c, 0, 59, 100
2, 40416, Note_on_c, 0, 55, 70
2, 40508, Note_off_c, 0, 62, 100
2, 40512, Note_on_c, 0, 59, 70
2, 40604, Note_off_c, 0, 67, 100
2, 40608, Note_on_c, 0, 67, 70
2, 40700, Note_off_c, 0, 55, 100
2, 40796, Note_off_c, 0, 59, 100
2, 40800, Note_on_c, 0, 55, 70
2, 40892, Note_off_c, 0, 67, 100
2, 40896, Note_on_c, 0, 60, 70
2, 40992, Note_on_c, 0, 67, 70
2, 41084, Note_off_c, 0, 55, 100
2, 41180, Note_off_c, 0, 60, 100
2, 41184, Note_on_c, 0, 55, 70
2, 41276, Note_off_c, 0, 67, 100
2, 41280, Note_on_c, 0, 64, 70
2, 41376, Note_on_c, 0, 67, 70
2, 41468, Note_off_c, 0, 55, 100
2, 41564, Note_off_c, 0, 64, 100
2, 41568, Note_on_c, 0, 55, 70
2, 41660, Note_off_c, 0, 67, 100
2, 41664, Note_on_c, 0, 62, 70
2, 41760, Note_on_c, 0, 67, 70
2, 41852, Note_off_c, 0, 55, 100
2, 41852, Note_off_c, 0, 62, 100
2, 41852, Note_off_c, 0, 67, 100
2, 41944, Control_c, 0, 64, 0
2, 41952, Note_on_c, 0, 55, 70
2, 42044, Note_off_c, 0, 55, 100
2, 42048, Note_on_c, 0, 59, 70
2, 42140, Note_off_c, 0, 59, 100
2, 42144, Note_on_c, 0, 67, 70
2, 42236, Note_off_c, 0, 67, 100
2, 42240, Control_c, 0, 64, 127
2, 42336, Note_on_c, 0, 55, 70
2, 42432, Note_on_c, 0, 59, 70
2, 42528, Note_on_c, 0, 62, 70
2, 42620, Note_off_c, 0, 55, 100
2, 42624, Note_on_c, 0, 67, 70
2, 42716, Note_off_c, 0, 59, 100
2, 42720, Note_on_c, 0, 55, 70
2, 42812, Note_off_c, 0, 62, 100
2, 42816, Note_on_c, 0, 59, 70
2, 42908, Note_off_c, 0, 67, 100
2, 42912, Note_on_c, 0, 62, 70
2, 43004, Note_off_c, 0, 55, 100
2, 43008, Note_on_c, 0, 67, 70
2, 43100, Note_off_c, 0, 59, 100
2, 43104, Note_on_c, 0, 55, 70
2, 43196, Note_off_c, 0, 62, 100
2, 43200, Note_on_c, 0, 59, 70
2, 43292, Note_off_c, 0, 67, 100
2, 43296, Note_on_c, 0, 62, 70
2, 43388, Note_off_c, 0, 55, 100
2, 43392, Note_on_c, 0, 67, 70
2, 43484, Note_off_c, 0, 59, 100
2, 43488, Note_on_c, 0, 55, 70
2, 43580, Note_off_c, 0, 62, 100
2, 43584, Note_on_c, 0, 59, 70
2, 43676, Note_off_c, 0, 67, 100
2, 43680, Note_on_c, 0, 67, 70
2, 43772, Note_off_c, 0, 55, 100
2, 43868, Note_off_c, 0, 59, 100
2, 43872, Note_on_c, 0, 55, 70
2, 43964, Note_off_c, 0, 67, 100
2, 43968, Note_on_c, 0, 60, 70
2, 44064, Note_on_c, 0, 67, 70
2, 44156, Note_off_c, 0, 55, 100
2, 44252, Note_off_c, 0, 60, 100
2, 44256, Note_on_c, 0, 55, 70
2, 44348, Note_off_c, 0, 67, 100
2, 44352, Note_on_c, 0, 63, 70
2, 44448, Note_on_c, 0, 67, 70
2, 44540, Note_off_c, 0, 55, 100
2, 44636, Note_off_c, 0, 63, 100
2, 44640, Note_on_c, 0, 55, 70
2, 44732, Note_off_c, 0, 67, 100
2, 44736, Note_on_c, 0, 62, 70
2, 44832, Note_on_c, 0, 67, 70
2, 44924, Note_off_c, 0, 55, 100
2, 45020, Note_off_c, 0, 62, 100
2, 45024, Note_on_c, 0, 55, 70
2, 45116, Note_off_c, 0, 67, 100
2, 45120, Note_on_c, 0, 59, 70
2, 45216, Note_on_c, 0, 67, 70
2, 45308, Note_off_c, 0, 55, 100
2, 45404, Note_off_c, 0, 59, 100
2, 45408, Note_on_c, 0, 55, 70
2, 45500, Note_off_c, 0, 67, 100
2, 45504, Note_on_c, 0, 60, 70
2, 45600, Note_on_c, 0, 67, 70
2, 45692, Note_off_c, 0, 55, 100
2, 45788, Note_off_c, 0, 60, 100
2, 45792, Note_on_c, 0, 55, 70
2, 45884, Note_off_c, 0, 67, 100
2, 45888, Note_on_c, 0, 64, 70
2, 45984, Note_on_c, 0, 67, 70
2, 46076, Note_off_c, 0, 55, 100
2, 46172, Note_off_c, 0, 64, 100
2, 46176, Note_on_c, 0, 55, 70
2, 46268, Note_off_c, 0, 67, 100
2, 46272, Note_on_c, 0, 62, 70
2, 46368, Note_on_c, 0, 67, 70
2, 46460, Note_off_c, 0, 55, 100
2, 46556, Note_off_c, 0, 62, 100
2, 46560, Note_on_c, 0, 55, 70
2, 46652, Note_off_c, 0, 67, 100
2, 46656, Note_on_c, 0, 59, 70
2, 46752, Note_on_c, 0, 67, 70
2, 46844, Note_off_c, 0, 55, 100
2, 46940, Note_off_c, 0, 59, 100
2, 46944, Note_on_c, 0, 55, 70
2, 47036, Note_off_c, 0, 67, 100
2, 47040, Note_on_c, 0, 60, 70
2, 47136, Note_on_c, 0, 67, 70
2, 47228, Note_off_c, 0, 55, 100
2, 47324, Note_off_c, 0, 60, 100
2, 47328, Note_on_c, 0, 55, 70
2, 47420, Note_off_c, 0, 67, 100
2, 47424, Note_on_c, 0, 60, 70
2, 47520, Note_on_c, 0, 63, 70
2, 47612, Note_off_c, 0, 55, 100
2, 47708, Note_off_c, 0, 60, 100
2, 47712, Note_on_c, 0, 55, 70
2, 47804, Note_off_c, 0, 63, 100
2, 47808, Note_on_c, 0, 59, 70
2, 47904, Note_on_c, 0, 62, 70
2, 47996, Note_off_c, 0, 55, 100
2, 48092, Note_off_c, 0, 59, 100
2, 48096, Note_on_c, 0, 55, 70
2, 48188, Note_off_c, 0, 62, 100
2, 48192, Note_on_c, 0, 60, 70
2, 48288, Note_on_c, 0, 63, 70
2, 48380, Note_off_c, 0, 55, 100
2, 48476, Note_off_c, 0, 60, 100
2, 48480, Note_on_c, 0, 55, 70
2, 48572, Note_off_c, 0, 63, 100
2, 48576, Note_on_c, 0, 59, 70
2, 48672, Note_on_c, 0, 62, 70
2, 48764, Note_off_c, 0, 55, 100
2, 48860, Note_off_c, 0, 59, 100
2, 48864, Note_on_c, 0, 55, 70
2, 48956, Note_off_c, 0, 62, 100
2, 48960, Note_on_c, 0, 60, 70
2, 49056, Note_on_c, 0, 63, 70
2, 49148, Note_off_c, 0, 55, 100
2, 49244, Note_off_c, 0, 60, 100
2, 49248, Note_on_c, 0, 55, 70
2, 49340, Note_off_c, 0, 63, 100
2, 49344, Note_on_c, 0, 59, 70
2, 49440, Note_on_c, 0, 62, 70
2, 49532, Note_off_c, 0, 55, 100
2, 49628, Note_off_c, 0, 59, 100
2, 49632, Note_on_c, 0, 55, 70
2, 49724, Note_off_c, 0, 62, 100
2, 49728, Note_on_c, 0, 57, 70
2, 49824, Note_on_c, 0, 60, 70
2, 49916, Note_off_c, 0, 55, 100
2, 49916, Note_off_c, 0, 57, 100
2, 49916, Note_off_c, 0, 60, 100
2, 50016, Note_on_c, 0, 55, 80
2, 50108, Note_off_c, 0, 55, 100
2, 50112, Note_on_c, 0, 59, 80
2, 50204, Note_off_c, 0, 59, 100
2, 50208, Note_on_c, 0, 62, 80
2, 50300, Note_off_c, 0, 62, 100
2, 50304, Note_on_c, 0, 67, 80
2, 50396, Note_off_c, 0, 67, 100
2, 50400, Note_on_c, 0, 71, 80
2, 50492, Note_off_c, 0, 71, 100
2, 50496, Note_on_c, 0, 69, 80
2, 50588, Note_off_c, 0, 69, 100
2, 50592, Note_on_c, 0, 66, 80
2, 50684, Note_off_c, 0, 66, 100
2, 50688, Note_on_c, 0, 67, 80
2, 50776, Control_c, 0, 64, 0
2, 50780, Note_off_c, 0, 67, 100
2, 50784, Note_on_c, 0, 59, 80
2, 50876, Note_off_c, 0, 59, 100
2, 50880, Note_on_c, 0, 62, 80
2, 50972, Note_off_c, 0, 62, 100
2, 50976, Note_on_c, 0, 67, 80
2, 51068, Note_off_c, 0, 67, 100
2, 51072, Note_on_c, 0, 71, 80
2, 51164, Note_off_c, 0, 71, 100
2, 51168, Note_on_c, 0, 74, 80
2, 51260, Note_off_c, 0, 74, 100
2, 51264, Note_on_c, 0, 72, 80
2, 51356, Note_off_c, 0, 72, 100
2, 51360, Note_on_c, 0, 69, 80
2, 51452, Note_off_c, 0, 69, 100
2, 51456, Note_on_c, 0, 71, 80
2, 51548, Note_off_c, 0, 71, 100
2, 51552, Note_on_c, 0, 67, 80
2, 51644, Note_off_c, 0, 67, 100
2, 51648, Note_on_c, 0, 71, 80
2, 51740, Note_off_c, 0, 71, 100
2, 51744, Note_on_c, 0, 74, 80
2, 51836, Note_off_c, 0, 74, 100
2, 51840, Note_on_c, 0, 79, 80
2, 51932, Note_off_c, 0, 79, 100
2, 51936, Note_on_c, 0, 83, 80
2, 52028, Note_off_c, 0, 83, 100
2, 52032, Note_on_c, 0, 81, 80
2, 52124, Note_off_c, 0, 81, 100
2, 52128, Note_on_c, 0, 78, 80
2, 52220, Note_off_c, 0, 78, 100
2, 52224, Note_on_c, 0, 79, 80
2, 52316, Note_off_c, 0, 79, 100
2, 52320, Note_on_c, 0, 83, 80
2, 52412, Note_off_c, 0, 83, 100
2, 52416, Note_on_c, 0, 81, 81
2, 52508, Note_off_c, 0, 81, 100
2, 52512, Note_on_c, 0, 84, 82
2, 52604, Note_off_c, 0, 84, 100
2, 52608, Note_on_c, 0, 83, 83
2, 52700, Note_off_c, 0, 83, 100
2, 52704, Note_on_c, 0, 86, 84
2, 52796, Note_off_c, 0, 86, 100
2, 52800, Note_on_c, 0, 85, 85
2, 52892, Note_off_c, 0, 85, 100
2, 52896, Note_on_c, 0, 88, 86
2, 52988, Note_off_c, 0, 88, 100
2, 52992, Note_on_c, 0, 86, 86
2, 53084, Note_off_c, 0, 86, 100
2, 53088, Note_on_c, 0, 89, 87
2, 53180, Note_off_c, 0, 89, 100
2, 53184, Note_on_c, 0, 88, 88
2, 53276, Note_off_c, 0, 88, 100
2, 53280, Note_on_c, 0, 91, 89
2, 53372, Note_off_c, 0, 91, 100
2, 53376, Note_on_c, 0, 89, 90
2, 53468, Note_off_c, 0, 89, 100
2, 53472, Note_on_c, 0, 93, 91
2, 53564, Note_off_c, 0, 93, 100
2, 53568, Note_on_c, 0, 91, 92
2, 53660, Note_off_c, 0, 91, 100
2, 53664, Note_on_c, 0, 88, 93
2, 53756, Note_off_c, 0, 88, 100
2, 53760, Note_on_c, 0, 86, 93
2, 53852, Note_off_c, 0, 86, 100
2, 53856, Note_on_c, 0, 89, 94
2, 53948, Note_off_c, 0, 89, 100
2, 53952, Note_on_c, 0, 88, 95
2, 54044, Note_off_c, 0, 88, 100
2, 54048, Note_on_c, 0, 91, 96
2, 54140, Note_off_c, 0, 91, 100
2, 54144, Note_on_c, 0, 89, 97
2, 54236, Note_off_c, 0, 89, 100
2, 54240, Note_on_c, 0, 93, 98
2, 54332, Note_off_c, 0, 93, 100
2, 54336, Note_on_c, 0, 91, 99
2, 54428, Note_off_c, 0, 91, 100
2, 54432, Note_on_c, 0, 88, 99
2, 54524, Note_off_c, 0, 88, 100
2, 54528, Note_on_c, 0, 86, 95
2, 54620, Note_off_c, 0, 86, 100
2, 54624, Note_on_c, 0, 89, 94
2, 54716, Note_off_c, 0, 89, 100
2, 54720, Note_on_c, 0, 88, 93
2, 54812, Note_off_c, 0, 88, 100
2, 54816, Note_on_c, 0, 84, 92
2, 54908, Note_off_c, 0, 84, 100
2, 54912, Note_on_c, 0, 83, 90
2, 55004, Note_off_c, 0, 83, 100
2, 55008, Note_on_c, 0, 86, 89
2, 55100, Note_off_c, 0, 86, 100
2, 55104, Note_on_c, 0, 84, 88
2, 55196, Note_off_c, 0, 84, 100
2, 55200, Note_on_c, 0, 81, 86
2, 55292, Note_off_c, 0, 81, 100
2, 55296, Note_on_c, 0, 79, 85
2, 55388, Note_off_c, 0, 79, 100
2, 55392, Note_on_c, 0, 83, 84
2, 55484, Note_off_c, 0, 83, 100
2, 55488, Note_on_c, 0, 81, 82
2, 55580, Note_off_c, 0, 81, 100
2, 55584, Note_on_c, 0, 77, 81
2, 55676, Note_off_c, 0, 77, 100
2, 55680, Note_on_c, 0, 76, 80
2, 55772, Note_off_c, 0, 76, 100
2, 55776, Note_on_c, 0, 79, 78
2, 55868, Note_off_c, 0, 79, 100
2, 55872, Note_on_c, 0, 77, 77
2, 55964, Note_off_c, 0, 77, 100
2, 55968, Note_on_c, 0, 74, 76
2, 56060, Note_off_c, 0, 74, 100
2, 56064, Control_c, 0, 64, 127
2, 56064, Note_on_c, 0, 72, 80
2, 56448, Note_on_c, 0, 91, 80
2, 56448, Note_on_c, 0, 79, 80
2, 56828, Note_off_c, 0, 72, 100
2, 56828, Note_off_c, 0, 91, 100
2, 56828, Note_off_c, 0, 79, 100
2, 56832, Note_on_c, 0, 79, 80
2, 56832, Note_on_c, 0, 91, 80
2, 57408, Note_on_c, 0, 76, 80
2, 57408, Note_on_c, 0, 88, 80
2, 57596, Note_off_c, 0, 79, 100
2, 57596, Note_off_c, 0, 91, 100
2, 57600, Note_on_c, 0, 74, 80
2, 57600, Note_on_c, 0, 86, 80
2, 57788, Note_off_c, 0, 76, 100
2, 57788, Note_off_c, 0, 88, 100
2, 57984, Note_on_c, 0, 67, 80
2, 57984, Note_on_c, 0, 79, 80
2, 58364, Note_off_c, 0, 74, 100
2, 58364, Note_off_c, 0, 86, 100
2, 58368, Note_on_c, 0, 72, 80
2, 58368, Note_on_c, 0, 84, 80
2, 58748, Note_off_c, 0, 67, 100
2, 58748, Note_off_c, 0, 79, 100
2, 58752, Note_on_c, 0, 76, 80
2, 58752, Note_on_c, 0, 88, 80
2, 59132, Note_off_c, 0, 72, 100
2, 59132, Note_off_c, 0, 84, 100
2, 59516, Note_off_c, 0, 76, 100
2, 59516, Note_off_c, 0, 88, 100
2, 59520, Note_on_c, 0, 91, 80
2, 59520, Note_on_c, 0, 79, 80
2, 59900, Note_off_c, 0, 91, 100
2, 59900, Note_off_c, 0, 79, 100
2, 59904, Note_on_c, 0, 79, 80
2, 59904, Note_on_c, 0, 91, 80
2, 60480, Note_on_c, 0, 76, 80
2, 60480, Note_on_c, 0, 88, 80
2, 60668, Note_off_c, 0, 79, 100
2, 60668, Note_off_c, 0, 91, 100
2, 60672, Note_on_c, 0, 86, 80
2, 60672, Note_on_c, 0, 74, 80
2, 60860, Note_off_c, 0, 76, 100
2, 60860, Note_off_c, 0, 88, 100
2, 61056, Note_on_c, 0, 67, 80
2, 61056, Note_on_c, 0, 79, 80
2, 61436, Note_off_c, 0, 86, 100
2, 61436, Note_off_c, 0, 74, 100
2, 61440, Note_on_c, 0, 84, 80
2, 61440, Note_on_c, 0, 72, 80
2, 61820, Note_off_c, 0, 67, 100
2, 61820, Note_off_c, 0, 79, 100
2, 61820, Note_off_c, 0, 84, 100
2, 61820, Note_off_c, 0, 72, 100
2, 62200, Control_c, 0, 64, 0
2, 62208, Control_c, 0, 64, 127
2, 62592, Note_on_c, 0, 77, 80
2, 62592, Note_on_c, 0, 89, 80
2, 62972, Note_off_c, 0, 77, 100
2, 62972, Note_off_c, 0, 89, 100
2, 62976, Note_on_c, 0, 77, 80
2, 62976, Note_on_c, 0, 89, 80
2, 63552, Note_on_c, 0, 74, 80
2, 63552, Note_on_c, 0, 86, 80
2, 63736, Control_c, 0, 64, 0
2, 63740, Note_off_c, 0, 77, 100
2, 63740, Note_off_c, 0, 89, 100
2, 63740, Note_off_c, 0, 74, 100
2, 63740, Note_off_c, 0, 86, 100
2, 63744, Note_on_c, 0, 76, 80
2, 63744, Note_on_c, 0, 88, 80
2, 64128, Note_on_c, 0, 84, 80
2, 64128, Note_on_c, 0, 72, 80
2, 64508, Note_off_c, 0, 76, 100
2, 64508, Note_off_c, 0, 88, 100
2, 64512, Note_on_c, 0, 71, 80
2, 64512, Note_on_c, 0, 83, 80
2, 64892, Note_off_c, 0, 72, 100
2, 64892, Note_off_c, 0, 84, 100
2, 64896, Note_on_c, 0, 86, 80
2, 64896, Note_on_c, 0, 74, 80
2, 65276, Note_off_c, 0, 71, 100
2, 65276, Note_off_c, 0, 83, 100
2, 65276, Note_off_c, 0, 86, 100
2, 65276, Note_off_c, 0, 74, 100
2, 65280, Control_c, 0, 64, 127
2, 65664, Note_on_c, 0, 77, 80
2, 65664, Note_on_c, 0, 89, 80
2, 66044, Note_off_c, 0, 77, 100
2, 66044, Note_off_c, 0, 89, 100
2, 66048, Note_on_c, 0, 77, 80
2, 66048, Note_on_c, 0, 89, 80
2, 66624, Note_on_c, 0, 74, 80
2, 66624, Note_on_c, 0, 86, 80
2, 66808, Control_c, 0, 64, 0
2, 66812, Note_off_c, 0, 77, 100
2, 66812, Note_off_c, 0, 89, 100
2, 66812, Note_off_c, 0, 74, 100
2, 66812, Note_off_c, 0, 86, 100
2, 66816, Note_on_c, 0, 75, 80
2, 66816, Note_on_c, 0, 87, 80
2, 67200, Note_on_c, 0, 84, 80
2, 67200, Note_on_c, 0, 72, 80
2, 67580, Note_off_c, 0, 75, 100
2, 67580, Note_off_c, 0, 87, 100
2, 67584, Note_on_c, 0, 71, 80
2, 67584, Note_on_c, 0, 83, 80
2, 67964, Note_off_c, 0, 72, 100
2, 67964, Note_off_c, 0, 84, 100
2, 67968, Note_on_c, 0, 86, 80
2, 67968, Note_on_c, 0, 74, 80
2, 68348, Note_off_c, 0, 71, 100
2, 68348, Note_off_c, 0, 83, 100
2, 68348, Note_off_c, 0, 86, 100
2, 68348, Note_off_c, 0, 74, 100
2, 68352, Note_on_c, 0, 76, 80
2, 68352, Note_on_c, 0, 88, 80
2, 68736, Note_on_c, 0, 84, 83
2, 68736, Note_on_c, 0, 72, 83
2, 69116, Note_off_c, 0, 76, 100
2, 69116, Note_off_c, 0, 88, 100
2, 69120, Note_on_c, 0, 71, 87
2, 69120, Note_on_c, 0, 83, 87
2, 69500, Note_off_c, 0, 72, 100
2, 69500, Note_off_c, 0, 84, 100
2, 69504, Note_on_c, 0, 86, 91
2, 69504, Note_on_c, 0, 74, 91
2, 69884, Note_off_c, 0, 71, 100
2, 69884, Note_off_c, 0, 83, 100
2, 69884, Note_off_c, 0, 86, 100
2, 69884, Note_off_c, 0, 74, 100
2, 69888, Note_on_c, 0, 87, 90
2, 69888, Note_on_c, 0, 75, 90
2, 70272, Note_on_c, 0, 84, 87
2, 70272, Note_on_c, 0, 72, 87
2, 70652, Note_off_c, 0, 87, 100
2, 70652, Note_off_c, 0, 75, 100
2, 70656, Note_on_c, 0, 79, 83
2, 71036, Note_off_c, 0, 72, 100
2, 71036, Note_off_c, 0, 84, 100
2, 71036, Note_off_c, 0, 79, 100
2, 71040, Note_on_c, 0, 79, 79
2, 71420, Note_off_c, 0, 79, 100
2, 71424, Note_on_c, 0, 81, 80
2, 71472, Note_on_c, 0, 79, 80
2, 71508, Note_off_c, 0, 81, 100
2, 71520, Note_on_c, 0, 81, 80
2, 71560, Note_off_c, 0, 79, 100
2, 71568, Note_on_c, 0, 79, 81
2, 71600, Note_off_c, 0, 81, 100
2, 71616, Note_on_c, 0, 81, 81
2, 71648, Note_off_c, 0, 79, 100
2, 71664, Note_on_c, 0, 79, 82
2, 71700, Note_off_c, 0, 81, 100
2, 71712, Note_on_c, 0, 81, 82
2, 71752, Note_off_c, 0, 79, 100
2, 71760, Note_on_c, 0, 79, 83
2, 71792, Note_off_c, 0, 81, 100
2, 71808, Note_on_c, 0, 81, 83
2, 71840, Note_off_c, 0, 79, 100
2, 71856, Note_on_c, 0, 79, 84
2, 71892, Note_off_c, 0, 81, 100
2, 71904, Note_on_c, 0, 81, 84
2, 71944, Note_off_c, 0, 79, 100
2, 71952, Note_on_c, 0, 79, 85
2, 71984, Note_off_c, 0, 81, 100
2, 72000, Note_on_c, 0, 81, 85
2, 72032, Note_off_c, 0, 79, 100
2, 72048, Note_on_c, 0, 79, 86
2, 72084, Note_off_c, 0, 81, 100
2, 72096, Note_on_c, 0, 81, 86
2, 72136, Note_off_c, 0, 79, 100
2, 72144, Note_on_c, 0, 79, 87
2, 72176, Note_off_c, 0, 81, 100
2, 72192, Note_on_c, 0, 81, 87
2, 72224, Note_off_c, 0, 79, 100
2, 72240, Note_on_c, 0, 79, 88
2, 72276, Note_off_c, 0, 81, 100
2, 72288, Note_on_c, 0, 81, 88
2, 72328, Note_off_c, 0, 79, 100
2, 72336, Note_on_c, 0, 79, 89
2, 72368, Note_off_c, 0, 81, 100
2, 72384, Note_on_c, 0, 81, 89
2, 72416, Note_off_c, 0, 79, 100
2, 72432, Note_on_c, 0, 79, 90
2, 72468, Note_off_c, 0, 81, 100
2, 72480, Note_on_c, 0, 81, 90
2, 72520, Note_off_c, 0, 79, 100
2, 72528, Note_on_c, 0, 79, 91
2, 72560, Note_off_c, 0, 81, 100
2, 72576, Note_on_c, 0, 81, 91
2, 72608, Note_off_c, 0, 79, 100
2, 72624, Note_on_c, 0, 79, 92
2, 72660, Note_off_c, 0, 81, 100
2, 72672, Note_on_c, 0, 81, 92
2, 72712, Note_off_c, 0, 79, 100
2, 72720, Note_on_c, 0, 79, 93
2, 72752, Note_off_c, 0, 81, 100
2, 72768, Note_on_c, 0, 81, 93
2, 72800, Note_off_c, 0, 79, 100
2, 72816, Note_on_c, 0, 79, 94
2, 72852, Note_off_c, 0, 81, 100
2, 72864, Note_on_c, 0, 81, 94
2, 72904, Note_off_c, 0, 79, 100
2, 72912, Note_on_c, 0, 79, 95
2, 72944, Note_off_c, 0, 81, 100
2, 72960, Note_on_c, 0, 81, 95
2, 72992, Note_off_c, 0, 79, 100
2, 73008, Note_on_c, 0, 79, 96
2, 73044, Note_off_c, 0, 81, 100
2, 73056, Note_on_c, 0, 81, 96
2, 73096, Note_off_c, 0, 79, 100
2, 73104, Note_on_c, 0, 79, 97
2, 73136, Note_off_c, 0, 81, 100
2, 73152, Note_on_c, 0, 81, 97
2, 73184, Note_off_c, 0, 79, 100
2, 73200, Note_on_c, 0, 79, 98
2, 73236, Note_off_c, 0, 81, 100
2, 73248, Note_on_c, 0, 81, 98
2, 73288, Note_off_c, 0, 79, 100
2, 73296, Note_on_c, 0, 79, 99
2, 73328, Note_off_c, 0, 81, 100
2, 73344, Note_on_c, 0, 81, 99
2, 73376, Note_off_c, 0, 79, 100
2, 73392, Note_on_c, 0, 79, 100
2, 73428, Note_off_c, 0, 81, 100
2, 73440, Note_on_c, 0, 81, 100
2, 73480, Note_off_c, 0, 79, 100
2, 73488, Note_on_c, 0, 79, 101
2, 73520, Note_off_c, 0, 81, 100
2, 73536, Note_on_c, 0, 81, 101
2, 73568, Note_off_c, 0, 79, 100
2, 73584, Note_on_c, 0, 79, 102
2, 73620, Note_off_c, 0, 81, 100
2, 73632, Note_on_c, 0, 81, 102
2, 73672, Note_off_c, 0, 79, 100
2, 73680, Note_on_c, 0, 79, 103
2, 73712, Note_off_c, 0, 81, 100
2, 73728, Note_on_c, 0, 81, 103
2, 73760, Note_off_c, 0, 79, 100
2, 73776, Note_on_c, 0, 79, 104
2, 73812, Note_off_c, 0, 81, 100
2, 73824, Note_on_c, 0, 81, 104
2, 73864, Note_off_c, 0, 79, 100
2, 73872, Note_on_c, 0, 79, 105
2, 73904, Note_off_c, 0, 81, 100
2, 73920, Note_on_c, 0, 81, 105
2, 73952, Note_off_c, 0, 79, 100
2, 73968, Note_on_c, 0, 79, 106
2, 74004, Note_off_c, 0, 81, 100
2, 74016, Note_on_c, 0, 81, 106
2, 74056, Note_off_c, 0, 79, 100
2, 74064, Note_on_c, 0, 79, 107
2, 74096, Note_off_c, 0, 81, 100
2, 74112, Note_on_c, 0, 81, 107
2, 74144, Note_off_c, 0, 79, 100
2, 74160, Note_on_c, 0, 79, 108
2, 74196, Note_off_c, 0, 81, 100
2, 74208, Note_on_c, 0, 81, 108
2, 74248, Note_off_c, 0, 79, 100
2, 74256, Note_on_c, 0, 79, 109
2, 74288, Note_off_c, 0, 81, 100
2, 74304, Note_on_c, 0, 81, 109
2, 74336, Note_off_c, 0, 79, 100
2, 74352, Note_on_c, 0, 79, 110
2, 74388, Note_off_c, 0, 81, 100
2, 74400, Note_on_c, 0, 81, 110
2, 74440, Note_off_c, 0, 79, 100
2, 74448, Note_on_c, 0, 79, 120
2, 74480, Note_off_c, 0, 81, 100
2, 74496, Control_c, 0, 64, 127
2, 74496, Note_on_c, 0, 81, 120
2, 74528, Note_off_c, 0, 79, 100
2, 74544, Note_on_c, 0, 79, 120
2, 74580, Note_off_c, 0, 81, 100
2, 74592, Note_on_c, 0, 81, 120
2, 74632, Note_off_c, 0, 79, 100
2, 74640, Note_on_c, 0, 79, 120
2, 74672, Note_off_c, 0, 81, 100
2, 74688, Note_on_c, 0, 81, 120
2, 74720, Note_off_c, 0, 79, 100
2, 74736, Note_on_c, 0, 79, 120
2, 74772, Note_off_c, 0, 81, 100
2, 74784, Note_on_c, 0, 81, 120
2, 74824, Note_off_c, 0, 79, 100
2, 74832, Note_on_c, 0, 79, 120
2, 74864, Note_off_c, 0, 81, 100
2, 74880, Note_on_c, 0, 81, 120
2, 74880, Note_on_c, 0, 91, 120
2, 74912, Note_off_c, 0, 79, 100
2, 74928, Note_on_c, 0, 79, 120
2, 74964, Note_off_c, 0, 81, 100
2, 74976, Note_on_c, 0, 81, 120
2, 75016, Note_off_c, 0, 79, 100
2, 75024, Note_on_c, 0, 79, 120
2, 75056, Note_off_c, 0, 81, 100
2, 75072, Note_on_c, 0, 81, 120
2, 75104, Note_off_c, 0, 79, 100
2, 75120, Note_on_c, 0, 79, 120
2, 75156, Note_off_c, 0, 81, 100
2, 75168, Note_on_c, 0, 81, 120
2, 75208, Note_off_c, 0, 79, 100
2, 75216, Note_on_c, 0, 79, 120
2, 75248, Note_off_c, 0, 81, 100
2, 75260, Note_off_c, 0, 91, 100
2, 75264, Note_on_c, 0, 81, 120
2, 75264, Note_on_c, 0, 91, 120
2, 75296, Note_off_c, 0, 79, 100
2, 75312, Note_on_c, 0, 79, 120
2, 75348, Note_off_c, 0, 81, 100
2, 75360, Note_on_c, 0, 81, 120
2, 75400, Note_off_c, 0, 79, 100
2, 75408, Note_on_c, 0, 79, 120
2, 75440, Note_off_c, 0, 81, 100
2, 75456, Note_on_c, 0, 81, 120
2, 75488, Note_off_c, 0, 79, 100
2, 75504, Note_on_c, 0, 79, 120
2, 75540, Note_off_c, 0, 81, 100
2, 75552, Note_on_c, 0, 81, 120
2, 75592, Note_off_c, 0, 79, 100
2, 75600, Note_on_c, 0, 79, 120
2, 75632, Note_off_c, 0, 81, 100
2, 75648, Note_on_c, 0, 81, 120
2, 75680, Note_off_c, 0, 79, 100
2, 75696, Note_on_c, 0, 79, 120
2, 75732, Note_off_c, 0, 81, 100
2, 75744, Note_on_c, 0, 81, 120
2, 75784, Note_off_c, 0, 79, 100
2, 75792, Note_on_c, 0, 79, 120
2, 75824, Note_off_c, 0, 81, 100
2, 75840, Note_on_c, 0, 81, 120
2, 75840, Note_on_c, 0, 88, 120
2, 75872, Note_off_c, 0, 79, 100
2, 75888, Note_on_c, 0, 79, 120
2, 75924, Note_off_c, 0, 81, 100
2, 75936, Note_on_c, 0, 81, 120
2, 75976, Note_off_c, 0, 79, 100
2, 75984, Note_on_c, 0, 79, 120
2, 76016, Note_off_c, 0, 81, 100
2, 76024, Control_c, 0, 64, 0
2, 76028, Note_off_c, 0, 91, 100
2, 76028, Note_off_c, 0, 88, 100
2, 76032, Note_on_c, 0, 81, 120
2, 76032, Note_on_c, 0, 86, 120
2, 76064, Note_off_c, 0, 79, 100
2, 76080, Note_on_c, 0, 79, 120
2, 76116, Note_off_c, 0, 81, 100
2, 76128, Note_on_c, 0, 81, 120
2, 76168, Note_off_c, 0, 79, 100
2, 76176, Note_on_c, 0, 79, 120
2, 76208, Note_off_c, 0, 81, 100
2, 76224, Note_on_c, 0, 81, 120
2, 76256, Note_off_c, 0, 79, 100
2, 76272, Note_on_c, 0, 79, 120
2, 76308, Note_off_c, 0, 81, 100
2, 76320, Note_on_c, 0, 81, 120
2, 76360, Note_off_c, 0, 79, 100
2, 76368, Note_on_c, 0, 79, 120
2, 76400, Note_off_c, 0, 81, 100
2, 76412, Note_off_c, 0, 86, 100
2, 76416, Note_on_c, 0, 81, 120
2, 76416, Note_on_c, 0, 79, 120
2, 76448, Note_off_c, 0, 79, 100
2, 76464, Note_on_c, 0, 79, 120
2, 76500, Note_off_c, 0, 81, 100
2, 76512, Note_on_c, 0, 81, 120
2, 76552, Note_off_c, 0, 79, 100
2, 76560, Note_on_c, 0, 79, 120
2, 76592, Note_off_c, 0, 81, 100
2, 76608, Note_on_c, 0, 81, 120
2, 76640, Note_off_c, 0, 79, 100
2, 76656, Note_on_c, 0, 79, 120
2, 76692, Note_off_c, 0, 81, 100
2, 76704, Note_on_c, 0, 81, 120
2, 76744, Note_off_c, 0, 79, 100
2, 76752, Note_on_c, 0, 79, 120
2, 76784, Note_off_c, 0, 81, 100
2, 76796, Note_off_c, 0, 79, 100
2, 76800, Note_on_c, 0, 81, 120
2, 76800, Note_on_c, 0, 84, 120
2, 76832, Note_off_c, 0, 79, 100
2, 76848, Note_on_c, 0, 79, 120
2, 76884, Note_off_c, 0, 81, 100
2, 76896, Note_on_c, 0, 81, 120
2, 76936, Note_off_c, 0, 79, 100
2, 76944, Note_on_c, 0, 79, 120
2, 76976, Note_off_c, 0, 81, 100
2, 76992, Note_on_c, 0, 81, 120
2, 77024, Note_off_c, 0, 79, 100
2, 77040, Note_on_c, 0, 79, 120
2, 77076, Note_off_c, 0, 81, 100
2, 77088, Note_on_c, 0, 81, 120
2, 77128, Note_off_c, 0, 79, 100
2, 77136, Note_on_c, 0, 79, 120
2, 77168, Note_off_c, 0, 81, 100
2, 77180, Note_off_c, 0, 84, 100
2, 77184, Note_on_c, 0, 81, 120
2, 77184, Note_on_c, 0, 88, 120
2, 77216, Note_off_c, 0, 79, 100
2, 77232, Note_on_c, 0, 79, 120
2, 77268, Note_off_c, 0, 81, 100
2, 77280, Note_on_c, 0, 81, 120
2, 77320, Note_off_c, 0, 79, 100
2, 77328, Note_on_c, 0, 79, 120
2, 77360, Note_off_c, 0, 81, 100
2, 77376, Note_on_c, 0, 81, 120
2, 77408, Note_off_c, 0, 79, 100
2, 77424, Note_on_c, 0, 79, 120
2, 77460, Note_off_c, 0, 81, 100
2, 77472, Note_on_c, 0, 81, 120
2, 77512, Note_off_c, 0, 79, 100
2, 77520, Note_on_c, 0, 79, 120
2, 77552, Note_off_c, 0, 81, 100
2, 77564, Note_off_c, 0, 88, 100
2, 77568, Control_c, 0, 64, 127
2, 77568, Note_on_c, 0, 81, 120
2, 77600, Note_off_c, 0, 79, 100
2, 77616, Note_on_c, 0, 79, 120
2, 77652, Note_off_c, 0, 81, 100
2, 77664, Note_on_c, 0, 81, 120
2, 77704, Note_off_c, 0, 79, 100
2, 77712, Note_on_c, 0, 79, 120
2, 77744, Note_off_c, 0, 81, 100
2, 77760, Note_on_c, 0, 81, 120
2, 77792, Note_off_c, 0, 79, 100
2, 77808, Note_on_c, 0, 79, 120
2, 77844, Note_off_c, 0, 81, 100
2, 77856, Note_on_c, 0, 81, 120
2, 77896, Note_off_c, 0, 79, 100
2, 77904, Note_on_c, 0, 79, 120
2, 77936, Note_off_c, 0, 81, 100
2, 77952, Note_on_c, 0, 81, 120
2, 77952, Note_on_c, 0, 91, 120
2, 77984, Note_off_c, 0, 79, 100
2, 78000, Note_on_c, 0, 79, 120
2, 78036, Note_off_c, 0, 81, 100
2, 78048, Note_on_c, 0, 81, 120
2, 78088, Note_off_c, 0, 79, 100
2, 78096, Note_on_c, 0, 79, 120
2, 78128, Note_off_c, 0, 81, 100
2, 78144, Note_on_c, 0, 81, 120
2, 78176, Note_off_c, 0, 79, 100
2, 78192, Note_on_c, 0, 79, 120
2, 78228, Note_off_c, 0, 81, 100
2, 78240, Note_on_c, 0, 81, 120
2, 78280, Note_off_c, 0, 79, 100
2, 78288, Note_on_c, 0, 79, 120
2, 78320, Note_off_c, 0, 81, 100
2, 78332, Note_off_c, 0, 91, 100
2, 78336, Note_on_c, 0, 81, 120
2, 78336, Note_on_c, 0, 91, 120
2, 78368, Note_off_c, 0, 79, 100
2, 78384, Note_on_c, 0, 79, 120
2, 78420, Note_off_c, 0, 81, 100
2, 78432, Note_on_c, 0, 81, 120
2, 78472, Note_off_c, 0, 79, 100
2, 78480, Note_on_c, 0, 79, 120
2, 78512, Note_off_c, 0, 81, 100
2, 78528, Note_on_c, 0, 81, 120
2, 78560, Note_off_c, 0, 79, 100
2, 78576, Note_on_c, 0, 79, 120
2, 78612, Note_off_c, 0, 81, 100
2, 78624, Note_on_c, 0, 81, 120
2, 78664, Note_off_c, 0, 79, 100
2, 78672, Note_on_c, 0, 79, 120
2, 78704, Note_off_c, 0, 81, 100
2, 78720, Note_on_c, 0, 81, 120
2, 78752, Note_off_c, 0, 79, 100
2, 78768, Note_on_c, 0, 79, 120
2, 78804, Note_off_c, 0, 81, 100
2, 78816, Note_on_c, 0, 81, 120
2, 78856, Note_off_c, 0, 79, 100
2, 78864, Note_on_c, 0, 79, 120
2, 78896, Note_off_c, 0, 81, 100
2, 78912, Note_on_c, 0, 81, 120
2, 78912, Note_on_c, 0, 88, 120
2, 78944, Note_off_c, 0, 79, 100
2, 78960, Note_on_c, 0, 79, 120
2, 78996, Note_off_c, 0, 81, 100
2, 79008, Note_on_c, 0, 81, 120
2, 79048, Note_off_c, 0, 79, 100
2, 79056, Note_on_c, 0, 79, 120
2, 79088, Note_off_c, 0, 81, 100
2, 79096, Control_c, 0, 64, 0
2, 79100, Note_off_c, 0, 91, 100
2, 79100, Note_off_c, 0, 88, 100
2, 79104, Note_on_c, 0, 81, 120
2, 79104, Note_on_c, 0, 86, 120
2, 79136, Note_off_c, 0, 79, 100
2, 79152, Note_on_c, 0, 79, 120
2, 79188, Note_off_c, 0, 81, 100
2, 79200, Note_on_c, 0, 81, 120
2, 79240, Note_off_c, 0, 79, 100
2, 79248, Note_on_c, 0, 79, 120
2, 79280, Note_off_c, 0, 81, 100
2, 79296, Note_on_c, 0, 81, 120
2, 79328, Note_off_c, 0, 79, 100
2, 79344, Note_on_c, 0, 79, 120
2, 79380, Note_off_c, 0, 81, 100
2, 79392, Note_on_c, 0, 81, 120
2, 79432, Note_off_c, 0, 79, 100
2, 79440, Note_on_c, 0, 79, 120
2, 79472, Note_off_c, 0, 81, 100
2, 79484, Note_off_c, 0, 86, 100
2, 79488, Note_on_c, 0, 81, 120
2, 79488, Note_on_c, 0, 79, 120
2, 79520, Note_off_c, 0, 79, 100
2, 79536, Note_on_c, 0, 79, 120
2, 79572, Note_off_c, 0, 81, 100
2, 79584, Note_on_c, 0, 81, 120
2, 79624, Note_off_c, 0, 79, 100
2, 79632, Note_on_c, 0, 79, 120
2, 79664, Note_off_c, 0, 81, 100
2, 79680, Note_on_c, 0, 81, 120
2, 79712, Note_off_c, 0, 79, 100
2, 79728, Note_on_c, 0, 79, 120
2, 79764, Note_off_c, 0, 81, 100
2, 79776, Note_on_c, 0, 78, 120
2, 79816, Note_off_c, 0, 79, 100
2, 79824, Note_on_c, 0, 79, 120
2, 79856, Note_off_c, 0, 78, 100
2, 79868, Note_off_c, 0, 79, 100
2, 79868, Note_off_c, 0, 79, 100
2, 79872, Note_on_c, 0, 84, 120
2, 80060, Note_off_c, 0, 84, 100
2, 80256, Note_on_c, 0, 60, 110
2, 80320, Note_on_c, 0, 64, 110
2, 80384, Note_on_c, 0, 60, 110
2, 80392, Note_off_c, 0, 60, 100
2, 80440, Note_off_c, 0, 64, 100
2, 80448, Note_on_c, 0, 55, 110
2, 80500, Note_off_c, 0, 60, 100
2, 80512, Note_on_c, 0, 52, 110
2, 80568, Note_off_c, 0, 55, 100
2, 80576, Note_on_c, 0, 55, 110
2, 80620, Note_off_c, 0, 52, 100
2, 80640, Note_on_c, 0, 60, 110
2, 80684, Note_off_c, 0, 55, 100
2, 80704, Note_on_c, 0, 65, 110
2, 80752, Note_off_c, 0, 60, 100
2, 80768, Note_on_c, 0, 60, 110
2, 80820, Note_off_c, 0, 65, 100
2, 80832, Note_on_c, 0, 57, 110
2, 80896, Note_off_c, 0, 60, 100
2, 80896, Note_on_c, 0, 53, 110
2, 80960, Note_off_c, 0, 57, 100
2, 80960, Note_on_c, 0, 57, 110
2, 81020, Note_off_c, 0, 53, 100
2, 81024, Note_on_c, 0, 60, 110
2, 81076, Note_off_c, 0, 57, 100
2, 81088, Note_on_c, 0, 64, 110
2, 81148, Note_off_c, 0, 60, 100
2, 81152, Note_on_c, 0, 60, 110
2, 81216, Note_on_c, 0, 55, 110
2, 81220, Note_off_c, 0, 64, 100
2, 81280, Note_on_c, 0, 52, 110
2, 81284, Note_off_c, 0, 60, 100
2, 81340, Note_off_c, 0, 55, 100
2, 81344, Note_on_c, 0, 55, 110
2, 81396, Note_off_c, 0, 52, 100
2, 81408, Note_on_c, 0, 60, 110
2, 81464, Note_off_c, 0, 55, 100
2, 81472, Note_on_c, 0, 62, 110
2, 81524, Note_off_c, 0, 60, 100
2, 81536, Note_on_c, 0, 60, 110
2, 81600, Note_on_c, 0, 53, 110
2, 81616, Note_off_c, 0, 62, 100
2, 81664, Note_on_c, 0, 50, 110
2, 81676, Note_off_c, 0, 60, 100
2, 81728, Note_off_c, 0, 53, 100
2, 81728, Note_on_c, 0, 53, 110
2, 81776, Note_off_c, 0, 50, 100
2, 81792, Note_on_c, 0, 60, 110
2, 81848, Note_off_c, 0, 53, 100
2, 81856, Note_on_c, 0, 63, 110
2, 81908, Note_off_c, 0, 60, 100
2, 81920, Note_on_c, 0, 60, 110
2, 81980, Note_off_c, 0, 63, 100
2, 81984, Note_on_c, 0, 54, 110
2, 82048, Note_on_c, 0, 51, 110
2, 82056, Note_off_c, 0, 60, 100
2, 82112, Note_on_c, 0, 54, 110
2, 82124, Note_off_c, 0, 54, 100
2, 82176, Note_off_c, 0, 51, 100
2, 82176, Note_on_c, 0, 60, 110
2, 82240, Note_on_c, 0, 64, 110
2, 82248, Note_off_c, 0, 54, 100
2, 82296, Note_off_c, 0, 60, 100
2, 82304, Note_on_c, 0, 60, 110
2, 82368, Note_on_c, 0, 55, 110
2, 82380, Note_off_c, 0, 64, 100
2, 82432, Note_on_c, 0, 52, 110
2, 82436, Note_off_c, 0, 60, 100
2, 82496, Note_on_c, 0, 55, 110
2, 82504, Note_off_c, 0, 55, 100
2, 82544, Note_off_c, 0, 52, 100
2, 82560, Note_on_c, 0, 59, 110
2, 82624, Note_on_c, 0, 62, 110
2, 82628, Note_off_c, 0, 55, 100
2, 82684, Note_off_c, 0, 59, 100
2, 82688, Note_on_c, 0, 59, 110
2, 82752, Note_on_c, 0, 53, 110
2, 82764, Note_off_c, 0, 62, 100
2, 82816, Note_on_c, 0, 50, 110
2, 82832, Note_off_c, 0, 59, 100
2, 82880, Note_on_c, 0, 53, 110
2, 82888, Note_off_c, 0, 53, 100
2, 82924, Note_off_c, 0, 50, 100
2, 82944, Note_on_c, 0, 55, 110
2, 83008, Note_on_c, 0, 60, 110
2, 83024, Note_off_c, 0, 53, 100
2, 83056, Note_off_c, 0, 55, 100
2, 83072, Note_on_c, 0, 55, 110
2, 83136, Note_on_c, 0, 52, 110
2, 83140, Note_off_c, 0, 60, 100
2, 83192, Note_off_c, 0, 55, 100
2, 83200, Note_on_c, 0, 48, 110
2, 83260, Note_off_c, 0, 52, 100
2, 83264, Note_on_c, 0, 52, 110
2, 83328, Note_off_c, 0, 48, 100
2, 83328, Note_on_c, 0, 64, 110
2, 83392, Note_off_c, 0, 52, 100
2, 83392, Note_on_c, 0, 67, 110
2, 83452, Note_off_c, 0, 64, 100
2, 83456, Note_on_c, 0, 64, 110
2, 83520, Note_on_c, 0, 60, 110
2, 83524, Note_off_c, 0, 67, 100
2, 83580, Note_off_c, 0, 64, 100
2, 83584, Note_on_c, 0, 55, 110
2, 83636, Note_off_c, 0, 60, 100
2, 83648, Note_on_c, 0, 60, 110
2, 83696, Note_off_c, 0, 55, 100
2, 83712, Note_on_c, 0, 65, 110
2, 83756, Note_off_c, 0, 60, 100
2, 83776, Note_on_c, 0, 69, 110
2, 83832, Note_off_c, 0, 65, 100
2, 83840, Note_on_c, 0, 65, 110
2, 83888, Note_off_c, 0, 69, 100
2, 83904, Note_on_c, 0, 60, 110
2, 83968, Note_on_c, 0, 57, 110
2, 83972, Note_off_c, 0, 65, 100
2, 84020, Note_off_c, 0, 60, 100
2, 84032, Note_on_c, 0, 60, 110
2, 84096, Note_on_c, 0, 64, 110
2, 84104, Note_off_c, 0, 57, 100
2, 84160, Note_on_c, 0, 67, 110
2, 84184, Note_off_c, 0, 60, 100
2, 84224, Note_off_c, 0, 64, 100
2, 84224, Note_on_c, 0, 64, 110
2, 84276, Note_off_c, 0, 67, 100
2, 84288, Note_on_c, 0, 60, 110
2, 84352, Note_on_c, 0, 55, 110
2, 84356, Note_off_c, 0, 64, 100
2, 84416, Note_off_c, 0, 60, 100
2, 84416, Note_on_c, 0, 60, 110
2, 84472, Note_off_c, 0, 55, 100
2, 84480, Note_on_c, 0, 62, 110
2, 84544, Note_off_c, 0, 60, 100
2, 84544, Note_on_c, 0, 65, 110
2, 84608, Note_off_c, 0, 62, 100
2, 84608, Note_on_c, 0, 62, 110
2, 84672, Note_off_c, 0, 65, 100
2, 84672, Note_on_c, 0, 60, 110
2, 84728, Note_off_c, 0, 62, 100
2, 84736, Note_on_c, 0, 53, 110
2, 84800, Note_off_c, 0, 60, 100
2, 84800, Note_on_c, 0, 60, 110
2, 84864, Note_on_c, 0, 63, 110
2, 84868, Note_off_c, 0, 53, 100
2, 84924, Note_off_c, 0, 60, 100
2, 84928, Note_on_c, 0, 66, 110
2, 84992, Note_on_c, 0, 63, 110
2, 84996, Note_off_c, 0, 63, 100
2, 85040, Note_off_c, 0, 66, 100
2, 85056, Note_on_c, 0, 60, 110
2, 85112, Note_off_c, 0, 63, 100
2, 85120, Note_on_c, 0, 54, 110
2, 85184, Note_on_c, 0, 60, 110
2, 85208, Note_off_c, 0, 60, 100
2, 85248, Note_on_c, 0, 64, 110
2, 85256, Note_off_c, 0, 54, 100
2, 85312, Note_on_c, 0, 67, 110
2, 85320, Note_off_c, 0, 60, 100
2, 85372, Note_off_c, 0, 64, 100
2, 85376, Note_on_c, 0, 64, 110
2, 85436, Note_off_c, 0, 67, 100
2, 85440, Note_on_c, 0, 60, 110
2, 85500, Note_off_c, 0, 64, 100
2, 85504, Note_on_c, 0, 55, 110
2, 85568, Note_off_c, 0, 60, 100
2, 85568, Note_on_c, 0, 60, 110
2, 85632, Note_on_c, 0, 62, 110
2, 85644, Note_off_c, 0, 55, 100
2, 85696, Note_on_c, 0, 65, 110
2, 85724, Note_off_c, 0, 60, 100
2, 85752, Note_off_c, 0, 62, 100
2, 85760, Note_on_c, 0, 62, 110
2, 85808, Note_off_c, 0, 65, 100
2, 85824, Note_on_c, 0, 59, 110
2, 85888, Note_on_c, 0, 53, 110
2, 85900, Note_off_c, 0, 62, 100
2, 85948, Note_off_c, 0, 59, 100
2, 85952, Note_on_c, 0, 59, 110
2, 86008, Note_off_c, 0, 53, 100
2, 86016, Note_on_c, 0, 60, 110
2, 86080, Note_on_c, 0, 64, 110
2, 86088, Note_off_c, 0, 59, 100
2, 86144, Note_off_c, 0, 60, 100
2, 86144, Note_on_c, 0, 60, 110
2, 86208, Note_on_c, 0, 52, 110
2, 86228, Note_off_c, 0, 64, 100
2, 86272, Note_on_c, 0, 64, 110
2, 86292, Note_off_c, 0, 60, 100
2, 86332, Note_off_c, 0, 52, 100
2, 86336, Note_on_c, 0, 52, 110
2, 86380, Note_off_c, 0, 64, 100
2, 86452, Note_off_c, 0, 52, 100
2, 86464, Note_on_c, 0, 52, 110
2, 86524, Note_off_c, 0, 52, 100
2, 86528, Note_on_c, 0, 64, 110
2, 86588, Note_off_c, 0, 64, 100
2, 86656, Note_on_c, 0, 52, 110
2, 86716, Note_off_c, 0, 52, 100
2, 86720, Note_on_c, 0, 64, 110
2, 86780, Note_off_c, 0, 64, 100
2, 86848, Note_on_c, 0, 57, 110
2, 86908, Note_off_c, 0, 57, 100
2, 86912, Note_on_c, 0, 69, 110
2, 86972, Note_off_c, 0, 69, 100
2, 87040, Note_on_c, 0, 59, 110
2, 87100, Note_off_c, 0, 59, 100
2, 87104, Note_on_c, 0, 71, 110
2, 87164, Note_off_c, 0, 71, 100
2, 87232, Note_on_c, 0, 60, 110
2, 87292, Note_off_c, 0, 60, 100
2, 87296, Note_on_c, 0, 72, 110
2, 87356, Note_off_c, 0, 72, 100
2, 87424, Note_on_c, 0, 62, 110
2, 87484, Note_off_c, 0, 62, 100
2, 87488, Note_on_c, 0, 74, 110
2, 87548, Note_off_c, 0, 74, 100
2, 87552, Note_on_c, 0, 76, 120
2, 87612, Note_off_c, 0, 76, 100
2, 87616, Note_on_c, 0, 64, 110
2, 87676, Note_off_c, 0, 64, 100
2, 87680, Note_on_c, 0, 76, 110
2, 87740, Note_off_c, 0, 76, 100
2, 87744, Note_on_c, 0, 64, 110
2, 87804, Note_off_c, 0, 64, 100
2, 87808, Note_on_c, 0, 76, 110
2, 87868, Note_off_c, 0, 76, 100
2, 87872, Note_on_c, 0, 64, 110
2, 87932, Note_off_c, 0, 64, 100
2, 88000, Note_on_c, 0, 64, 110
2, 88060, Note_off_c, 0, 64, 100
2, 88064, Note_on_c, 0, 76, 110
2, 88124, Note_off_c, 0, 76, 100
2, 88192, Note_on_c, 0, 62, 110
2, 88252, Note_off_c, 0, 62, 100
2, 88256, Note_on_c, 0, 74, 110
2, 88316, Note_off_c, 0, 74, 100
2, 88384, Note_on_c, 0, 60, 110
2, 88444, Note_off_c, 0, 60, 100
2, 88448, Note_on_c, 0, 72, 110
2, 88508, Note_off_c, 0, 72, 100
2, 88576, Note_on_c, 0, 59, 110
2, 88636, Note_off_c, 0, 59, 100
2, 88640, Note_on_c, 0, 71, 110
2, 88700, Note_off_c, 0, 71, 100
2, 88768, Note_on_c, 0, 60, 110
2, 88828, Note_off_c, 0, 60, 100
2, 88832, Note_on_c, 0, 72, 110
2, 88892, Note_off_c, 0, 72, 100
2, 88960, Note_on_c, 0, 57, 110
2, 89020, Note_off_c, 0, 57, 100
2, 89024, Note_on_c, 0, 69, 110
2, 89084, Note_off_c, 0, 69, 100
2, 89088, Note_on_c, 0, 64, 120
2, 89152, Note_on_c, 0, 52, 110
2, 89216, Note_off_c, 0, 64, 100
2, 89216, Note_on_c, 0, 64, 110
2, 89280, Note_on_c, 0, 52, 110
2, 89300, Note_off_c, 0, 52, 100
2, 89344, Note_on_c, 0, 64, 110
2, 89364, Note_off_c, 0, 64, 100
2, 89404, Note_off_c, 0, 52, 100
2, 89408, Note_on_c, 0, 52, 110
2, 89452, Note_off_c, 0, 64, 100
2, 89524, Note_off_c, 0, 52, 100
2, 89536, Note_on_c, 0, 64, 110
2, 89596, Note_off_c, 0, 64, 100
2, 89600, Note_on_c, 0, 76, 110
2, 89660, Note_off_c, 0, 76, 100
2, 89728, Note_on_c, 0, 64, 110
2, 89788, Note_off_c, 0, 64, 100
2, 89792, Note_on_c, 0, 76, 110
2, 89852, Note_off_c, 0, 76, 100
2, 89920, Note_on_c, 0, 69, 110
2, 89980, Note_off_c, 0, 69, 100
2, 89984, Note_on_c, 0, 81, 110
2, 90044, Note_off_c, 0, 81, 100
2, 90112, Note_on_c, 0, 71, 110
2, 90172, Note_off_c, 0, 71, 100
2, 90176, Note_on_c, 0, 83, 110
2, 90236, Note_off_c, 0, 83, 100
2, 90304, Note_on_c, 0, 72, 110
2, 90364, Note_off_c, 0, 72, 100
2, 90368, Note_on_c, 0, 84, 110
2, 90428, Note_off_c, 0, 84, 100
2, 90496, Note_on_c, 0, 74, 110
2, 90556, Note_off_c, 0, 74, 100
2, 90560, Note_on_c, 0, 86, 110
2, 90620, Note_off_c, 0, 86, 100
2, 90624, Note_on_c, 0, 88, 120
2, 90684, Note_off_c, 0, 88, 100
2, 90688, Note_on_c, 0, 76, 110
2, 90748, Note_off_c, 0, 76, 100
2, 90752, Note_on_c, 0, 88, 110
2, 90812, Note_off_c, 0, 88, 100
2, 90816, Note_on_c, 0, 76, 110
2, 90876, Note_off_c, 0, 76, 100
2, 90880, Note_on_c, 0, 88, 110
2, 90940, Note_off_c, 0, 88, 100
2, 90944, Note_on_c, 0, 76, 110
2, 91004, Note_off_c, 0, 76, 100
2, 91072, Note_on_c, 0, 76, 110
2, 91132, Note_off_c, 0, 76, 100
2, 91136, Note_on_c, 0, 88, 110
2, 91196, Note_off_c, 0, 88, 100
2, 91264, Note_on_c, 0, 74, 110
2, 91324, Note_off_c, 0, 74, 100
2, 91328, Note_on_c, 0, 86, 110
2, 91388, Note_off_c, 0, 86, 100
2, 91456, Note_on_c, 0, 72, 110
2, 91516, Note_off_c, 0, 72, 100
2, 91520, Note_on_c, 0, 84, 110
2, 91580, Note_off_c, 0, 84, 100
2, 91648, Note_on_c, 0, 71, 110
2, 91708, Note_off_c, 0, 71, 100
2, 91712, Note_on_c, 0, 83, 110
2, 91772, Note_off_c, 0, 83, 100
2, 91840, Note_on_c, 0, 72, 110
2, 91900, Note_off_c, 0, 72, 100
2, 91904, Note_on_c, 0, 84, 110
2, 91964, Note_off_c, 0, 84, 100
2, 92032, Note_on_c, 0, 69, 110
2, 92092, Note_off_c, 0, 69, 100
2, 92096, Note_on_c, 0, 81, 110
2, 92156, Note_off_c, 0, 81, 100
2, 92160, Control_c, 0, 64, 127
2, 92160, Note_on_c, 0, 76, 120
2, 92220, Note_off_c, 0, 76, 100
2, 92224, Note_on_c, 0, 64, 110
2, 92284, Note_off_c, 0, 64, 100
2, 92288, Note_on_c, 0, 76, 110
2, 92348, Note_off_c, 0, 76, 100
2, 92352, Note_on_c, 0, 64, 110
2, 92412, Note_off_c, 0, 64, 100
2, 92416, Note_on_c, 0, 76, 110
2, 92476, Note_off_c, 0, 76, 100
2, 92480, Note_on_c, 0, 64, 110
2, 92536, Control_c, 0, 64, 0
2, 92540, Note_off_c, 0, 64, 100
2, 92544, Control_c, 0, 64, 127
2, 92544, Note_on_c, 0, 81, 110
2, 92604, Note_off_c, 0, 81, 100
2, 92608, Note_on_c, 0, 69, 110
2, 92668, Note_off_c, 0, 69, 100
2, 92672, Note_on_c, 0, 81, 110
2, 92732, Note_off_c, 0, 81, 100
2, 92736, Note_on_c, 0, 69, 110
2, 92796, Note_off_c, 0, 69, 100
2, 92800, Note_on_c, 0, 81, 110
2, 92860, Note_off_c, 0, 81, 100
2, 92864, Note_on_c, 0, 69, 110
2, 92920, Control_c, 0, 64, 0
2, 92924, Note_off_c, 0, 69, 100
2, 92928, Control_c, 0, 64, 127
2, 92928, Note_on_c, 0, 81, 110
2, 92988, Note_off_c, 0, 81, 100
2, 92992, Note_on_c, 0, 69, 110
2, 93052, Note_off_c, 0, 69, 100
2, 93056, Note_on_c, 0, 81, 110
2, 93116, Note_off_c, 0, 81, 100
2, 93120, Note_on_c, 0, 69, 110
2, 93180, Note_off_c, 0, 69, 100
2, 93184, Note_on_c, 0, 81, 110
2, 93244, Note_off_c, 0, 81, 100
2, 93248, Note_on_c, 0, 69, 110
2, 93304, Control_c, 0, 64, 0
2, 93308, Note_off_c, 0, 69, 100
2, 93312, Control_c, 0, 64, 127
2, 93312, Note_on_c, 0, 81, 110
2, 93372, Note_off_c, 0, 81, 100
2, 93376, Note_on_c, 0, 69, 110
2, 93436, Note_off_c, 0, 69, 100
2, 93440, Note_on_c, 0, 81, 110
2, 93500, Note_off_c, 0, 81, 100
2, 93504, Note_on_c, 0, 69, 110
2, 93564, Note_off_c, 0, 69, 100
2, 93568, Note_on_c, 0, 81, 110
2, 93628, Note_off_c, 0, 81, 100
2, 93632, Note_on_c, 0, 69, 110
2, 93688, Control_c, 0, 64, 0
2, 93692, Note_off_c, 0, 69, 100
2, 93696, Control_c, 0, 64, 127
2, 93696, Note_on_c, 0, 81, 110
2, 93756, Note_off_c, 0, 81, 100
2, 93760, Note_on_c, 0, 69, 110
2, 93820, Note_off_c, 0, 69, 100
2, 93824, Note_on_c, 0, 81, 110
2, 93884, Note_off_c, 0, 81, 100
2, 93888, Note_on_c, 0, 69, 110
2, 93948, Note_off_c, 0, 69, 100
2, 93952, Note_on_c, 0, 81, 110
2, 94012, Note_off_c, 0, 81, 100
2, 94016, Note_on_c, 0, 69, 110
2, 94072, Control_c, 0, 64, 0
2, 94076, Note_off_c, 0, 69, 100
2, 94080, Control_c, 0, 64, 127
2, 94080, Note_on_c, 0, 77, 110
2, 94140, Note_off_c, 0, 77, 100
2, 94144, Note_on_c, 0, 79, 110
2, 94204, Note_off_c, 0, 79, 100
2, 94208, Note_on_c, 0, 81, 110
2, 94268, Note_off_c, 0, 81, 100
2, 94272, Note_on_c, 0, 77, 110
2, 94332, Note_off_c, 0, 77, 100
2, 94336, Note_on_c, 0, 76, 110
2, 94396, Note_off_c, 0, 76, 100
2, 94400, Note_on_c, 0, 74, 110
2, 94456, Control_c, 0, 64, 0
2, 94460, Note_off_c, 0, 74, 100
2, 94464, Note_on_c, 0, 72, 110
2, 94524, Note_off_c, 0, 72, 100
2, 94528, Note_on_c, 0, 74, 110
2, 94588, Note_off_c, 0, 74, 100
2, 94592, Note_on_c, 0, 76, 110
2, 94652, Note_off_c, 0, 76, 100
2, 94656, Note_on_c, 0, 72, 110
2, 94716, Note_off_c, 0, 72, 100
2, 94720, Note_on_c, 0, 71, 110
2, 94780, Note_off_c, 0, 71, 100
2, 94784, Note_on_c, 0, 69, 110
2, 94844, Note_off_c, 0, 69, 100
2, 94848, Note_on_c, 0, 71, 110
2, 94908, Note_off_c, 0, 71, 100
2, 94912, Note_on_c, 0, 72, 110
2, 94972, Note_off_c, 0, 72, 100
2, 94976, Note_on_c, 0, 74, 110
2, 95036, Note_off_c, 0, 74, 100
2, 95040, Note_on_c, 0, 71, 110
2, 95100, Note_off_c, 0, 71, 100
2, 95104, Note_on_c, 0, 69, 110
2, 95164, Note_off_c, 0, 69, 100
2, 95168, Note_on_c, 0, 68, 110
2, 95228, Note_off_c, 0, 68, 100
2, 95232, Control_c, 0, 64, 127
2, 95232, Note_on_c, 0, 69, 110
2, 95292, Note_off_c, 0, 69, 100
2, 95296, Note_on_c, 0, 57, 110
2, 95356, Note_off_c, 0, 57, 100
2, 95360, Note_on_c, 0, 69, 110
2, 95420, Note_off_c, 0, 69, 100
2, 95424, Note_on_c, 0, 57, 110
2, 95484, Note_off_c, 0, 57, 100
2, 95488, Note_on_c, 0, 69, 110
2, 95548, Note_off_c, 0, 69, 100
2, 95552, Note_on_c, 0, 57, 110
2, 95608, Control_c, 0, 64, 0
2, 95612, Note_off_c, 0, 57, 100
2, 95616, Control_c, 0, 64, 127
2, 95616, Note_on_c, 0, 69, 110
2, 95676, Note_off_c, 0, 69, 100
2, 95680, Note_on_c, 0, 57, 110
2, 95740, Note_off_c, 0, 57, 100
2, 95744, Note_on_c, 0, 69, 110
2, 95804, Note_off_c, 0, 69, 100
2, 95808, Note_on_c, 0, 57, 110
2, 95868, Note_off_c, 0, 57, 100
2, 95872, Note_on_c, 0, 69, 110
2, 95932, Note_off_c, 0, 69, 100
2, 95936, Note_on_c, 0, 57, 110
2, 95992, Control_c, 0, 64, 0
2, 95996, Note_off_c, 0, 57, 100
2, 96000, Control_c, 0, 64, 127
2, 96000, Note_on_c, 0, 69, 110
2, 96060, Note_off_c, 0, 69, 100
2, 96064, Note_on_c, 0, 57, 110
2, 96124, Note_off_c, 0, 57, 100
2, 96128, Note_on_c, 0, 69, 110
2, 96188, Note_off_c, 0, 69, 100
2, 96192, Note_on_c, 0, 57, 110
2, 96252, Note_off_c, 0, 57, 100
2, 96256, Note_on_c, 0, 69, 110
2, 96316, Note_off_c, 0, 69, 100
2, 96320, Note_on_c, 0, 57, 110
2, 96376, Control_c, 0, 64, 0
2, 96380, Note_off_c, 0, 57, 100
2, 96384, Control_c, 0, 64, 127
2, 96384, Note_on_c, 0, 69, 110
2, 96444, Note_off_c, 0, 69, 100
2, 96448, Note_on_c, 0, 57, 110
2, 96508, Note_off_c, 0, 57, 100
2, 96512, Note_on_c, 0, 69, 110
2, 96572, Note_off_c, 0, 69, 100
2, 96576, Note_on_c, 0, 57, 110
2, 96636, Note_off_c, 0, 57, 100
2, 96640, Note_on_c, 0, 69, 110
2, 96700, Note_off_c, 0, 69, 100
2, 96704, Note_on_c, 0, 57, 110
2, 96760, Control_c, 0, 64, 0
2, 96764, Note_off_c, 0, 57, 100
2, 96768, Control_c, 0, 64, 127
2, 96768, Note_on_c, 0, 69, 110
2, 96828, Note_off_c, 0, 69, 100
2, 96832, Note_on_c, 0, 57, 110
2, 96892, Note_off_c, 0, 57, 100
2, 96896, Note_on_c, 0, 69, 110
2, 96956, Note_off_c, 0, 69, 100
2, 96960, Note_on_c, 0, 57, 110
2, 97020, Note_off_c, 0, 57, 100
2, 97024, Note_on_c, 0, 69, 110
2, 97084, Note_off_c, 0, 69, 100
2, 97088, Note_on_c, 0, 57, 110
2, 97144, Control_c, 0, 64, 0
2, 97148, Note_off_c, 0, 57, 100
2, 97152, Control_c, 0, 64, 127
2, 97152, Note_on_c, 0, 65, 110
2, 97212, Note_off_c, 0, 65, 100
2, 97216, Note_on_c, 0, 67, 110
2, 97276, Note_off_c, 0, 67, 100
2, 97280, Note_on_c, 0, 69, 110
2, 97340, Note_off_c, 0, 69, 100
2, 97344, Note_on_c, 0, 65, 110
2, 97404, Note_off_c, 0, 65, 100
2, 97408, Note_on_c, 0, 64, 110
2, 97468, Note_off_c, 0, 64, 100
2, 97472, Note_on_c, 0, 62, 110
2, 97528, Control_c, 0, 64, 0
2, 97532, Note_off_c, 0, 62, 100
2, 97536, Note_on_c, 0, 60, 110
2, 97596, Note_off_c, 0, 60, 100
2, 97600, Note_on_c, 0, 62, 110
2, 97660, Note_off_c, 0, 62, 100
2, 97664, Note_on_c, 0, 64, 110
2, 97724, Note_off_c, 0, 64, 100
2, 97728, Note_on_c, 0, 60, 110
2, 97788, Note_off_c, 0, 60, 100
2, 97792, Note_on_c, 0, 59, 110
2, 97852, Note_off_c, 0, 59, 100
2, 97856, Note_on_c, 0, 57, 110
2, 97916, Note_off_c, 0, 57, 100
2, 97920, Note_on_c, 0, 59, 110
2, 97980, Note_off_c, 0, 59, 100
2, 97984, Note_on_c, 0, 60, 110
2, 98044, Note_off_c, 0, 60, 100
2, 98048, Note_on_c, 0, 62, 110
2, 98108, Note_off_c, 0, 62, 100
2, 98112, Note_on_c, 0, 59, 110
2, 98172, Note_off_c, 0, 59, 100
2, 98176, Note_on_c, 0, 57, 110
2, 98236, Note_off_c, 0, 57, 100
2, 98240, Note_on_c, 0, 56, 110
2, 98300, Note_off_c, 0, 56, 100
2, 98304, Note_on_c, 0, 57, 110
2, 98492, Note_off_c, 0, 57, 100
2, 98688, Note_on_c, 0, 76, 120
2, 98688, Note_on_c, 0, 88, 120
2, 98876, Note_off_c, 0, 76, 100
2, 98876, Note_off_c, 0, 88, 100
2, 98880, Note_on_c, 0, 88, 120
2, 98880, Note_on_c, 0, 76, 120
2, 99068, Note_off_c, 0, 88, 100
2, 99068, Note_off_c, 0, 76, 100
2, 99072, Note_on_c, 0, 76, 120
2, 99072, Note_on_c, 0, 64, 120
2, 99260, Note_off_c, 0, 76, 100
2, 99260, Note_off_c, 0, 64, 100
2, 99264, Note_on_c, 0, 76, 120
2, 99264, Note_on_c, 0, 64, 120
2, 99452, Note_off_c, 0, 76, 100
2, 99452, Note_off_c, 0, 64, 100
2, 99456, Note_on_c, 0, 76, 120
2, 99456, Note_on_c, 0, 64, 120
2, 99644, Note_off_c, 0, 76, 100
2, 99644, Note_off_c, 0, 64, 100
2, 99648, Note_on_c, 0, 68, 120
2, 99648, Note_on_c, 0, 80, 120
2, 99836, Note_off_c, 0, 68, 100
2, 99836, Note_off_c, 0, 80, 100
2, 99840, Note_on_c, 0, 81, 120
2, 99840, Note_on_c, 0, 69, 120
2, 100220, Note_off_c, 0, 81, 100
2, 100220, Note_off_c, 0, 69, 100
2, 100224, Note_on_c, 0, 83, 80
2, 100316, Note_off_c, 0, 83, 100
2, 100320, Note_on_c, 0, 86, 80
2, 100412, Note_off_c, 0, 86, 100
2, 100416, Note_on_c, 0, 84, 80
2, 100508, Note_off_c, 0, 84, 100
2, 100512, Note_on_c, 0, 83, 80
2, 100604, Note_off_c, 0, 83, 100
2, 100608, Note_on_c, 0, 84, 80
2, 100700, Note_off_c, 0, 84, 100
2, 100704, Note_on_c, 0, 88, 80
2, 100796, Note_off_c, 0, 88, 100
2, 100800, Note_on_c, 0, 86, 80
2, 100892, Note_off_c, 0, 86, 100
2, 100896, Note_on_c, 0, 84, 80
2, 100988, Note_off_c, 0, 84, 100
2, 100992, Note_on_c, 0, 83, 80
2, 101084, Note_off_c, 0, 83, 100
2, 101088, Note_on_c, 0, 86, 80
2, 101180, Note_off_c, 0, 86, 100
2, 101184, Note_on_c, 0, 84, 80
2, 101276, Note_off_c, 0, 84, 100
2, 101280, Note_on_c, 0, 83, 80
2, 101372, Note_off_c, 0, 83, 100
2, 101376, Note_on_c, 0, 81, 80
2, 101756, Note_off_c, 0, 81, 100
2, 101760, Note_on_c, 0, 76, 120
2, 101760, Note_on_c, 0, 88, 120
2, 101948, Note_off_c, 0, 76, 100
2, 101948, Note_off_c, 0, 88, 100
2, 101952, Note_on_c, 0, 88, 120
2, 101952, Note_on_c, 0, 76, 120
2, 102140, Note_off_c, 0, 88, 100
2, 102140, Note_off_c, 0, 76, 100
2, 102144, Note_on_c, 0, 76, 120
2, 102144, Note_on_c, 0, 64, 120
2, 102332, Note_off_c, 0, 76, 100
2, 102332, Note_off_c, 0, 64, 100
2, 102336, Note_on_c, 0, 76, 120
2, 102336, Note_on_c, 0, 64, 120
2, 102524, Note_off_c, 0, 76, 100
2, 102524, Note_off_c, 0, 64, 100
2, 102528, Note_on_c, 0, 76, 120
2, 102528, Note_on_c, 0, 64, 120
2, 102716, Note_off_c, 0, 76, 100
2, 102716, Note_off_c, 0, 64, 100
2, 102720, Note_on_c, 0, 68, 120
2, 102720, Note_on_c, 0, 80, 120
2, 102908, Note_off_c, 0, 68, 100
2, 102908, Note_off_c, 0, 80, 100
2, 102912, Note_on_c, 0, 81, 120
2, 102912, Note_on_c, 0, 69, 120
2, 103292, Note_off_c, 0, 81, 100
2, 103292, Note_off_c, 0, 69, 100
2, 103296, Note_on_c, 0, 83, 80
2, 103388, Note_off_c, 0, 83, 100
2, 103392, Note_on_c, 0, 86, 80
2, 103484, Note_off_c, 0, 86, 100
2, 103488, Note_on_c, 0, 84, 80
2, 103580, Note_off_c, 0, 84, 100
2, 103584, Note_on_c, 0, 83, 80
2, 103676, Note_off_c, 0, 83, 100
2, 103680, Note_on_c, 0, 84, 80
2, 103772, Note_off_c, 0, 84, 100
2, 103776, Note_on_c, 0, 88, 80
2, 103868, Note_off_c, 0, 88, 100
2, 103872, Note_on_c, 0, 86, 80
2, 103964, Note_off_c, 0, 86, 100
2, 103968, Note_on_c, 0, 84, 80
2, 104060, Note_off_c, 0, 84, 100
2, 104064, Note_on_c, 0, 83, 80
2, 104156, Note_off_c, 0, 83, 100
2, 104160, Note_on_c, 0, 86, 80
2, 104252, Note_off_c, 0, 86, 100
2, 104256, Note_on_c, 0, 84, 80
2, 104348, Note_off_c, 0, 84, 100
2, 104352, Note_on_c, 0, 83, 80
2, 104444, Note_off_c, 0, 83, 100
2, 104448, Note_on_c, 0, 81, 80
2, 104540, Note_off_c, 0, 81, 100
2, 104544, Note_on_c, 0, 84, 80
2, 104636, Note_off_c, 0, 84, 100
2, 104640, Note_on_c, 0, 83, 79
2, 104732, Note_off_c, 0, 83, 100
2, 104736, Note_on_c, 0, 81, 79
2, 104828, Note_off_c, 0, 81, 100
2, 104832, Note_on_c, 0, 83, 78
2, 104924, Note_off_c, 0, 83, 100
2, 104928, Note_on_c, 0, 86, 77
2, 105020, Note_off_c, 0, 86, 100
2, 105024, Note_on_c, 0, 84, 77
2, 105116, Note_off_c, 0, 84, 100
2, 105120, Note_on_c, 0, 83, 76
2, 105212, Note_off_c, 0, 83, 100
2, 105216, Note_on_c, 0, 84, 75
2, 105308, Note_off_c, 0, 84, 100
2, 105312, Note_on_c, 0, 88, 75
2, 105404, Note_off_c, 0, 88, 100
2, 105408, Note_on_c, 0, 86, 74
2, 105500, Note_off_c, 0, 86, 100
2, 105504, Note_on_c, 0, 84, 73
2, 105596, Note_off_c, 0, 84, 100
2, 105600, Note_on_c, 0, 83, 73
2, 105692, Note_off_c, 0, 83, 100
2, 105696, Note_on_c, 0, 86, 72
2, 105788, Note_off_c, 0, 86, 100
2, 105792, Note_on_c, 0, 84, 71
2, 105884, Note_off_c, 0, 84, 100
2, 105888, Note_on_c, 0, 83, 71
2, 105980, Note_off_c, 0, 83, 100
2, 105984, Note_on_c, 0, 81, 70
2, 106076, Note_off_c, 0, 81, 100
2, 106080, Note_on_c, 0, 84, 70
2, 106172, Note_off_c, 0, 84, 100
2, 106176, Note_on_c, 0, 83, 70
2, 106268, Note_off_c, 0, 83, 100
2, 106272, Note_on_c, 0, 81, 70
2, 106364, Note_off_c, 0, 81, 100
2, 106368, Note_on_c, 0, 83, 70
2, 106460, Note_off_c, 0, 83, 100
2, 106464, Note_on_c, 0, 86, 70
2, 106556, Note_off_c, 0, 86, 100
2, 106560, Note_on_c, 0, 84, 70
2, 106652, Note_off_c, 0, 84, 100
2, 106656, Note_on_c, 0, 83, 70
2, 106748, Note_off_c, 0, 83, 100
2, 106752, Note_on_c, 0, 81, 70
2, 106844, Note_off_c, 0, 81, 100
2, 106848, Note_on_c, 0, 84, 70
2, 106940, Note_off_c, 0, 84, 100
2, 106944, Note_on_c, 0, 83, 70
2, 107036, Note_off_c, 0, 83, 100
2, 107040, Note_on_c, 0, 81, 70
2, 107132, Note_off_c, 0, 81, 100
2, 107136, Note_on_c, 0, 83, 70
2, 107228, Note_off_c, 0, 83, 100
2, 107232, Note_on_c, 0, 86, 70
2, 107324, Note_off_c, 0, 86, 100
2, 107328, Note_on_c, 0, 84, 70
2, 107420, Note_off_c, 0, 84, 100
2, 107424, Note_on_c, 0, 83, 70
2, 107516, Note_off_c, 0, 83, 100
2, 107520, Control_c, 0, 64, 127
2, 107520, Note_on_c, 0, 81, 110
2, 107904, Note_on_c, 0, 76, 110
2, 108284, Note_off_c, 0, 81, 100
2, 108284, Note_off_c, 0, 76, 100
2, 108288, Note_on_c, 0, 76, 110
2, 108864, Note_on_c, 0, 72, 93
2, 109052, Note_off_c, 0, 76, 100
2, 109056, Note_on_c, 0, 71, 80
2, 109244, Note_off_c, 0, 72, 100
2, 109440, Note_on_c, 0, 64, 80
2, 109820, Note_off_c, 0, 71, 100
2, 109824, Note_on_c, 0, 69, 80
2, 110012, Note_off_c, 0, 64, 100
2, 110012, Control_c, 0, 64, 0
2, 110204, Note_off_c, 0, 69, 100
2, 110592, Control_c, 0, 64, 127
2, 110592, Note_on_c, 0, 53, 110
2, 110976, Note_on_c, 0, 84, 110
2, 110976, Note_on_c, 0, 72, 110
2, 111356, Note_off_c, 0, 53, 100
2, 111356, Note_off_c, 0, 84, 100
2, 111356, Note_off_c, 0, 72, 100
2, 111360, Note_on_c, 0, 84, 110
2, 111360, Note_on_c, 0, 72, 110
2, 111936, Note_on_c, 0, 81, 94
2, 111936, Note_on_c, 0, 69, 96
2, 112124, Note_off_c, 0, 84, 100
2, 112124, Note_off_c, 0, 72, 100
2, 112128, Note_on_c, 0, 79, 80
2, 112128, Note_on_c, 0, 67, 80
2, 112316, Note_off_c, 0, 69, 100
2, 112316, Note_off_c, 0, 81, 100
2, 112512, Note_on_c, 0, 72, 80
2, 112892, Note_off_c, 0, 79, 100
2, 112892, Note_off_c, 0, 67, 100
2, 112896, Note_on_c, 0, 77, 80
2, 112896, Note_on_c, 0, 65, 80
2, 113084, Control_c, 0, 64, 0
2, 113276, Note_off_c, 0, 72, 100
2, 113276, Note_off_c, 0, 77, 100
2, 113276, Note_off_c, 0, 65, 100
2, 113664, Control_c, 0, 64, 127
2, 113664, Note_on_c, 0, 55, 120
2, 114048, Note_on_c, 0, 89, 120
2, 114048, Note_on_c, 0, 77, 120
2, 114428, Note_off_c, 0, 55, 100
2, 114428, Note_off_c, 0, 89, 100
2, 114428, Note_off_c, 0, 77, 100
2, 114432, Note_on_c, 0, 89, 120
2, 114432, Note_on_c, 0, 77, 120
2, 115008, Note_on_c, 0, 86, 110
2, 115008, Note_on_c, 0, 74, 110
2, 115196, Note_off_c, 0, 89, 100
2, 115196, Note_off_c, 0, 77, 100
2, 115200, Note_on_c, 0, 83, 105
2, 115200, Note_on_c, 0, 71, 105
2, 115388, Note_off_c, 0, 74, 100
2, 115388, Note_off_c, 0, 86, 100
2, 115584, Note_on_c, 0, 79, 93
2, 115584, Note_on_c, 0, 67, 93
2, 115964, Note_off_c, 0, 83, 100
2, 115964, Note_off_c, 0, 71, 100
2, 115968, Note_on_c, 0, 77, 81
2, 115968, Note_on_c, 0, 65, 81
2, 116348, Note_off_c, 0, 67, 100
2, 116348, Note_off_c, 0, 79, 100
2, 116544, Note_on_c, 0, 74, 80
2, 116544, Note_on_c, 0, 62, 80
2, 116732, Note_off_c, 0, 77, 100
2, 116732, Note_off_c, 0, 65, 100
2, 116736, Note_on_c, 0, 71, 80
2, 116736, Note_on_c, 0, 59, 80
2, 117116, Note_off_c, 0, 62, 100
2, 117116, Note_off_c, 0, 74, 100
2, 117120, Note_on_c, 0, 55, 78
2, 117120, Note_on_c, 0, 67, 78
2, 117500, Note_off_c, 0, 71, 100
2, 117500, Note_off_c, 0, 59, 100
2, 117504, Note_on_c, 0, 65, 76
2, 117504, Note_on_c, 0, 53, 76
2, 117884, Note_off_c, 0, 55, 100
2, 117884, Note_off_c, 0, 67, 100
2, 118080, Note_on_c, 0, 62, 73
2, 118268, Note_off_c, 0, 65, 100
2, 118268, Note_off_c, 0, 53, 100
2, 118272, Note_on_c, 0, 59, 72
2, 118652, Note_off_c, 0, 62, 100
2, 119040, Note_on_c, 0, 55, 70
2, 119420, Note_off_c, 0, 59, 100
2, 119420, Note_off_c, 0, 55, 100
2, 119800, Control_c, 0, 64, 0
2, 119808, Control_c, 0, 64, 127
2, 119904, Note_on_c, 0, 52, 70
2, 120000, Note_on_c, 0, 55, 70
2, 120096, Note_on_c, 0, 60, 70
2, 120192, Note_off_c, 0, 52, 100
2, 120192, Note_on_c, 0, 64, 70
2, 120248, Note_off_c, 0, 55, 100
2, 120288, Note_on_c, 0, 52, 70
2, 120360, Note_off_c, 0, 60, 100
2, 120384, Note_on_c, 0, 55, 70
2, 120436, Note_off_c, 0, 64, 100
2, 120480, Note_on_c, 0, 60, 70
2, 120544, Note_off_c, 0, 52, 100
2, 120576, Note_on_c, 0, 64, 70
2, 120640, Note_off_c, 0, 55, 100
2, 120672, Note_on_c, 0, 52, 70
2, 120740, Note_off_c, 0, 60, 100
2, 120768, Note_on_c, 0, 55, 70
2, 120820, Note_off_c, 0, 64, 100
2, 120864, Note_on_c, 0, 60, 70
2, 120928, Note_off_c, 0, 52, 100
2, 120960, Note_on_c, 0, 64, 70
2, 121024, Note_off_c, 0, 55, 100
2, 121056, Note_on_c, 0, 52, 70
2, 121124, Note_off_c, 0, 60, 100
2, 121152, Note_on_c, 0, 55, 70
2, 121204, Note_off_c, 0, 64, 100
2, 121248, Note_on_c, 0, 60, 70
2, 121312, Note_off_c, 0, 52, 100
2, 121408, Note_off_c, 0, 55, 100
2, 121440, Note_on_c, 0, 53, 70
2, 121508, Note_off_c, 0, 60, 100
2, 121536, Note_on_c, 0, 55, 70
2, 121632, Note_on_c, 0, 59, 70
2, 121724, Note_off_c, 0, 53, 100
2, 121728, Note_on_c, 0, 62, 70
2, 121820, Note_off_c, 0, 55, 100
2, 121824, Note_on_c, 0, 53, 70
2, 121916, Note_off_c, 0, 59, 100
2, 121920, Note_on_c, 0, 55, 70
2, 122012, Note_off_c, 0, 62, 100
2, 122016, Note_on_c, 0, 59, 70
2, 122108, Note_off_c, 0, 53, 100
2, 122112, Note_on_c, 0, 64, 70
2, 122204, Note_off_c, 0, 55, 100
2, 122208, Note_on_c, 0, 52, 70
2, 122300, Note_off_c, 0, 59, 100
2, 122304, Note_on_c, 0, 55, 70
2, 122356, Note_off_c, 0, 64, 100
2, 122400, Note_on_c, 0, 60, 70
2, 122464, Note_off_c, 0, 52, 100
2, 122496, Note_on_c, 0, 64, 70
2, 122560, Note_off_c, 0, 55, 100
2, 122592, Note_on_c, 0, 52, 70
2, 122660, Note_off_c, 0, 60, 100
2, 122688, Note_on_c, 0, 55, 70
2, 122740, Note_off_c, 0, 64, 100
2, 122784, Note_on_c, 0, 60, 70
2, 122848, Note_off_c, 0, 52, 100
2, 122944, Note_off_c, 0, 55, 100
2, 122976, Note_on_c, 0, 52, 70
2, 123044, Note_off_c, 0, 60, 100
2, 123072, Note_on_c, 0, 55, 70
2, 123168, Note_on_c, 0, 60, 70
2, 123264, Note_off_c, 0, 52, 100
2, 123264, Note_on_c, 0, 64, 70
2, 123320, Note_off_c, 0, 55, 100
2, 123360, Note_on_c, 0, 52, 70
2, 123432, Note_off_c, 0, 60, 100
2, 123456, Note_on_c, 0, 55, 70
2, 123508, Note_off_c, 0, 64, 100
2, 123552, Note_on_c, 0, 60, 70
2, 123616, Note_off_c, 0, 52, 100
2, 123648, Note_on_c, 0, 64, 70
2, 123712, Note_off_c, 0, 55, 100
2, 123744, Note_on_c, 0, 52, 70
2, 123812, Note_off_c, 0, 60, 100
2, 123840, Note_on_c, 0, 55, 70
2, 123892, Note_off_c, 0, 64, 100
2, 123936, Note_on_c, 0, 60, 70
2, 124000, Note_off_c, 0, 52, 100
2, 124032, Note_on_c, 0, 64, 70
2, 124096, Note_off_c, 0, 55, 100
2, 124128, Note_on_c, 0, 52, 70
2, 124196, Note_off_c, 0, 60, 100
2, 124224, Note_on_c, 0, 55, 70
2, 124276, Note_off_c, 0, 64, 100
2, 124320, Note_on_c, 0, 60, 70
2, 124384, Note_off_c, 0, 52, 100
2, 124480, Note_off_c, 0, 55, 100
2, 124512, Note_on_c, 0, 53, 70
2, 124580, Note_off_c, 0, 60, 100
2, 124608, Note_on_c, 0, 55, 70
2, 124704, Note_on_c, 0, 59, 70
2, 124796, Note_off_c, 0, 53, 100
2, 124800, Note_on_c, 0, 62, 70
2, 124892, Note_off_c, 0, 55, 100
2, 124896, Note_on_c, 0, 53, 70
2, 124988, Note_off_c, 0, 59, 100
2, 124992, Note_on_c, 0, 55, 70
2, 125084, Note_off_c, 0, 62, 100
2, 125088, Note_on_c, 0, 59, 70
2, 125180, Note_off_c, 0, 53, 100
2, 125276, Note_off_c, 0, 55, 100
2, 125372, Note_off_c, 0, 59, 100
2, 125376, Note_on_c, 0, 52, 70
2, 125472, Note_on_c, 0, 55, 70
2, 125560, Control_c, 0, 64, 0
2, 125564, Note_off_c, 0, 52, 100
2, 125564, Note_off_c, 0, 55, 100
2, 125568, Note_on_c, 0, 60, 70
2, 125660, Note_off_c, 0, 60, 100
2, 125664, Note_on_c, 0, 64, 70
2, 125756, Note_off_c, 0, 64, 100
2, 125760, Note_on_c, 0, 62, 70
2, 125852, Note_off_c, 0, 62, 100
2, 125856, Note_on_c, 0, 60, 70
2, 125948, Note_off_c, 0, 60, 100
2, 125952, Control_c, 0, 64, 127
2, 125952, Note_on_c, 0, 59, 70
2, 126048, Note_on_c, 0, 55, 70
2, 126144, Note_on_c, 0, 59, 70
2, 126236, Note_off_c, 0, 59, 100
2, 126240, Note_on_c, 0, 62, 70
2, 126332, Note_off_c, 0, 55, 100
2, 126336, Note_on_c, 0, 67, 70
2, 126428, Note_off_c, 0, 59, 100
2, 126432, Note_on_c, 0, 55, 70
2, 126524, Note_off_c, 0, 62, 100
2, 126528, Note_on_c, 0, 59, 70
2, 126620, Note_off_c, 0, 67, 100
2, 126624, Note_on_c, 0, 62, 70
2, 126716, Note_off_c, 0, 55, 100
2, 126720, Note_on_c, 0, 67, 70
2, 126812, Note_off_c, 0, 59, 100
2, 126816, Note_on_c, 0, 55, 70
2, 126908, Note_off_c, 0, 62, 100
2, 126912, Note_on_c, 0, 59, 70
2, 127004, Note_off_c, 0, 67, 100
2, 127008, Note_on_c, 0, 62, 70
2, 127100, Note_off_c, 0, 55, 100
2, 127104, Note_on_c, 0, 67, 70
2, 127196, Note_off_c, 0, 59, 100
2, 127200, Note_on_c, 0, 55, 70
2, 127292, Note_off_c, 0, 62, 100
2, 127296, Note_on_c, 0, 59, 70
2, 127388, Note_off_c, 0, 67, 100
2, 127392, Note_on_c, 0, 67, 70
2, 127484, Note_off_c, 0, 55, 100
2, 127580, Note_off_c, 0, 59, 100
2, 127584, Note_on_c, 0, 55, 70
2, 127676, Note_off_c, 0, 67, 100
2, 127680, Note_on_c, 0, 60, 70
2, 127776, Note_on_c, 0, 67, 70
2, 127868, Note_off_c, 0, 55, 100
2, 127964, Note_off_c, 0, 60, 100
2, 127968, Note_on_c, 0, 55, 70
2, 128060, Note_off_c, 0, 67, 100
2, 128064, Note_on_c, 0, 64, 70
2, 128160, Note_on_c, 0, 67, 70
2, 128252, Note_off_c, 0, 55, 100
2, 128348, Note_off_c, 0, 64, 100
2, 128352, Note_on_c, 0, 55, 70
2, 128444, Note_off_c, 0, 67, 100
2, 128448, Note_on_c, 0, 62, 70
2, 128544, Note_on_c, 0, 67, 70
2, 128636, Note_off_c, 0, 55, 100
2, 128636, Note_off_c, 0, 62, 100
2, 128636, Note_off_c, 0, 67, 100
2, 128728, Control_c, 0, 64, 0
2, 128736, Note_on_c, 0, 55, 70
2, 128828, Note_off_c, 0, 55, 100
2, 128832, Note_on_c, 0, 59, 70
2, 128924, Note_off_c, 0, 59, 100
2, 128928, Note_on_c, 0, 67, 70
2, 129020, Note_off_c, 0, 67, 100
2, 129024, Control_c, 0, 64, 127
2, 129120, Note_on_c, 0, 55, 70
2, 129216, Note_on_c, 0, 59, 70
2, 129312, Note_on_c, 0, 62, 70
2, 129404, Note_off_c, 0, 55, 100
2, 129408, Note_on_c, 0, 67, 70
2, 129500, Note_off_c, 0, 59, 100
2, 129504, Note_on_c, 0, 55, 70
2, 129596, Note_off_c, 0, 62, 100
2, 129600, Note_on_c, 0, 59, 70
2, 129692, Note_off_c, 0, 67, 100
2, 129696, Note_on_c, 0, 62, 70
2, 129788, Note_off_c, 0, 55, 100
2, 129792, Note_on_c, 0, 67, 70
2, 129884, Note_off_c, 0, 59, 100
2, 129888, Note_on_c, 0, 55, 70
2, 129980, Note_off_c, 0, 62, 100
2, 129984, Note_on_c, 0, 59, 70
2, 130076, Note_off_c, 0, 67, 100
2, 130080, Note_on_c, 0, 62, 70
2, 130172, Note_off_c, 0, 55, 100
2, 130176, Note_on_c, 0, 67, 70
2, 130268, Note_off_c, 0, 59, 100
2, 130272, Note_on_c, 0, 55, 70
2, 130364, Note_off_c, 0, 62, 100
2, 130368, Note_on_c, 0, 59, 70
2, 130460, Note_off_c, 0, 67, 100
2, 130464, Note_on_c, 0, 67, 70
2, 130556, Note_off_c, 0, 55, 100
2, 130652, Note_off_c, 0, 59, 100
2, 130656, Note_on_c, 0, 55, 70
2, 130748, Note_off_c, 0, 67, 100
2, 130752, Note_on_c, 0, 60, 70
2, 130848, Note_on_c, 0, 67, 70
2, 130940, Note_off_c, 0, 55, 100
2, 131036, Note_off_c, 0, 60, 100
2, 131040, Note_on_c, 0, 55, 70
2, 131132, Note_off_c, 0, 67, 100
2, 131136, Note_on_c, 0, 63, 70
2, 131232, Note_on_c, 0, 67, 70
2, 131324, Note_off_c, 0, 55, 100
2, 131420, Note_off_c, 0, 63, 100
2, 131424, Note_on_c, 0, 55, 70
2, 131516, Note_off_c, 0, 67, 100
2, 131520, Note_on_c, 0, 62, 70
2, 131616, Note_on_c, 0, 67, 70
2, 131708, Note_off_c, 0, 55, 100
2, 131804, Note_off_c, 0, 62, 100
2, 131808, Note_on_c, 0, 55, 70
2, 131900, Note_off_c, 0, 67, 100
2, 131904, Note_on_c, 0, 59, 70
2, 132000, Note_on_c, 0, 67, 70
2, 132092, Note_off_c, 0, 55, 100
2, 132188, Note_off_c, 0, 59, 100
2, 132192, Note_on_c, 0, 55, 70
2, 132284, Note_off_c, 0, 67, 100
2, 132288, Note_on_c, 0, 60, 70
2, 132384, Note_on_c, 0, 67, 70
2, 132476, Note_off_c, 0, 55, 100
2, 132572, Note_off_c, 0, 60, 100
2, 132576, Note_on_c, 0, 55, 70
2, 132668, Note_off_c, 0, 67, 100
2, 132672, Note_on_c, 0, 64, 70
2, 132768, Note_on_c, 0, 67, 70
2, 132860, Note_off_c, 0, 55, 100
2, 132956, Note_off_c, 0, 64, 100
2, 132960, Note_on_c, 0, 55, 70
2, 133052, Note_off_c, 0, 67, 100
2, 133056, Note_on_c, 0, 62, 70
2, 133152, Note_on_c, 0, 67, 70
2, 133244, Note_off_c, 0, 55, 100
2, 133340, Note_off_c, 0, 62, 100
2, 133344, Note_on_c, 0, 55, 70
2, 133436, Note_off_c, 0, 67, 100
2, 133440, Note_on_c, 0, 59, 70
2, 133536, Note_on_c, 0, 67, 70
2, 133628, Note_off_c, 0, 55, 100
2, 133724, Note_off_c, 0, 59, 100
2, 133728, Note_on_c, 0, 55, 70
2, 133820, Note_off_c, 0, 67, 100
2, 133824, Note_on_c, 0, 60, 70
2, 133920, Note_on_c, 0, 67, 70
2, 134012, Note_off_c, 0, 55, 100
2, 134108, Note_off_c, 0, 60, 100
2, 134112, Note_on_c, 0, 55, 70
2, 134204, Note_off_c, 0, 67, 100
2, 134208, Note_on_c, 0, 60, 70
2, 134304, Note_on_c, 0, 63, 70
2, 134396, Note_off_c, 0, 55, 100
2, 134492, Note_off_c, 0, 60, 100
2, 134496, Note_on_c, 0, 55, 70
2, 134588, Note_off_c, 0, 63, 100
2, 134592, Note_on_c, 0, 59, 70
2, 134688, Note_on_c, 0, 62, 70
2, 134780, Note_off_c, 0, 55, 100
2, 134876, Note_off_c, 0, 59, 100
2, 134880, Note_on_c, 0, 55, 70
2, 134972, Note_off_c, 0, 62, 100
2, 134976, Note_on_c, 0, 60, 70
2, 135072, Note_on_c, 0, 63, 70
2, 135164, Note_off_c, 0, 55, 100
2, 135260, Note_off_c, 0, 60, 100
2, 135264, Note_on_c, 0, 55, 70
2, 135356, Note_off_c, 0, 63, 100
2, 135360, Note_on_c, 0, 59, 70
2, 135456, Note_on_c, 0, 62, 70
2, 135548, Note_off_c, 0, 55, 100
2, 135644, Note_off_c, 0, 59, 100
2, 135648, Note_on_c, 0, 55, 70
2, 135740, Note_off_c, 0, 62, 100
2, 135744, Note_on_c, 0, 60, 70
2, 135840, Note_on_c, 0, 63, 70
2, 135932, Note_off_c, 0, 55, 100
2, 136028, Note_off_c, 0, 60, 100
2, 136032, Note_on_c, 0, 55, 70
2, 136124, Note_off_c, 0, 63, 100
2, 136128, Note_on_c, 0, 59, 70
2, 136224, Note_on_c, 0, 62, 70
2, 136316, Note_off_c, 0, 55, 100
2, 136412, Note_off_c, 0, 59, 100
2, 136416, Note_on_c, 0, 55, 70
2, 136508, Note_off_c, 0, 62, 100
2, 136512, Note_on_c, 0, 57, 70
2, 136608, Note_on_c, 0, 60, 70
2, 136700, Note_off_c, 0, 55, 100
2, 136700, Note_off_c, 0, 57, 100
2, 136700, Note_off_c, 0, 60, 100
2, 136792, Control_c, 0, 64, 0
2, 136800, Note_on_c, 0, 55, 70
2, 136892, Note_off_c, 0, 55, 100
2, 136896, Note_on_c, 0, 59, 70
2, 136988, Note_off_c, 0, 59, 100
2, 136992, Note_on_c, 0, 62, 70
2, 137084, Note_off_c, 0, 62, 100
2, 137088, Note_on_c, 0, 67, 70
2, 137180, Note_off_c, 0, 67, 100
2, 137184, Note_on_c, 0, 71, 70
2, 137276, Note_off_c, 0, 71, 100
2, 137280, Note_on_c, 0, 69, 70
2, 137372, Note_off_c, 0, 69, 100
2, 137376, Note_on_c, 0, 66, 70
2, 137468, Note_off_c, 0, 66, 100
2, 137472, Note_on_c, 0, 67, 70
2, 137564, Note_off_c, 0, 67, 100
2, 137568, Note_on_c, 0, 59, 70
2, 137660, Note_off_c, 0, 59, 100
2, 137664, Note_on_c, 0, 62, 70
2, 137756, Note_off_c, 0, 62, 100
2, 137760, Note_on_c, 0, 67, 70
2, 137852, Note_off_c, 0, 67, 100
2, 137856, Note_on_c, 0, 71, 70
2, 137948, Note_off_c, 0, 71, 100
2, 137952, Note_on_c, 0, 74, 70
2, 138044, Note_off_c, 0, 74, 100
2, 138048, Note_on_c, 0, 72, 70
2, 138140, Note_off_c, 0, 72, 100
2, 138144, Note_on_c, 0, 69, 70
2, 138236, Note_off_c, 0, 69, 100
2, 138240, Note_on_c, 0, 71, 70
2, 138332, Note_off_c, 0, 71, 100
2, 138336, Note_on_c, 0, 67, 70
2, 138428, Note_off_c, 0, 67, 100
2, 138432, Note_on_c, 0, 71, 70
2, 138524, Note_off_c, 0, 71, 100
2, 138528, Note_on_c, 0, 74, 70
2, 138620, Note_off_c, 0, 74, 100
2, 138624, Note_on_c, 0, 79, 70
2, 138716, Note_off_c, 0, 79, 100
2, 138720, Note_on_c, 0, 83, 70
2, 138812, Note_off_c, 0, 83, 100
2, 138816, Note_on_c, 0, 81, 70
2, 138908, Note_off_c, 0, 81, 100
2, 138912, Note_on_c, 0, 78, 70
2, 139004, Note_off_c, 0, 78, 100
2, 139008, Note_on_c, 0, 79, 70
2, 139100, Note_off_c, 0, 79, 100
2, 139104, Note_on_c, 0, 83, 71
2, 139196, Note_off_c, 0, 83, 100
2, 139200, Note_on_c, 0, 81, 72
2, 139292, Note_off_c, 0, 81, 100
2, 139296, Note_on_c, 0, 84, 73
2, 139388, Note_off_c, 0, 84, 100
2, 139392, Note_on_c, 0, 83, 75
2, 139484, Note_off_c, 0, 83, 100
2, 139488, Note_on_c, 0, 86, 76
2, 139580, Note_off_c, 0, 86, 100
2, 139584, Note_on_c, 0, 85, 77
2, 139676, Note_off_c, 0, 85, 100
2, 139680, Note_on_c, 0, 88, 79
2, 139772, Note_off_c, 0, 88, 100
2, 139776, Note_on_c, 0, 86, 80
2, 139868, Note_off_c, 0, 86, 100
2, 139872, Note_on_c, 0, 89, 81
2, 139964, Note_off_c, 0, 89, 100
2, 139968, Note_on_c, 0, 88, 83
2, 140060, Note_off_c, 0, 88, 100
2, 140064, Note_on_c, 0, 91, 84
2, 140156, Note_off_c, 0, 91, 100
2, 140160, Note_on_c, 0, 89, 85
2, 140252, Note_off_c, 0, 89, 100
2, 140256, Note_on_c, 0, 93, 86
2, 140348, Note_off_c, 0, 93, 100
2, 140352, Note_on_c, 0, 91, 88
2, 140444, Note_off_c, 0, 91, 100
2, 140448, Note_on_c, 0, 88, 89
2, 140540, Note_off_c, 0, 88, 100
2, 140544, Note_on_c, 0, 86, 90
2, 140636, Note_off_c, 0, 86, 100
2, 140640, Note_on_c, 0, 89, 92
2, 140732, Note_off_c, 0, 89, 100
2, 140736, Note_on_c, 0, 88, 93
2, 140828, Note_off_c, 0, 88, 100
2, 140832, Note_on_c, 0, 91, 94
2, 140924, Note_off_c, 0, 91, 100
2, 140928, Note_on_c, 0, 89, 96
2, 141020, Note_off_c, 0, 89, 100
2, 141024, Note_on_c, 0, 93, 97
2, 141116, Note_off_c, 0, 93, 100
2, 141120, Note_on_c, 0, 91, 98
2, 141212, Note_off_c, 0, 91, 100
2, 141216, Note_on_c, 0, 88, 99
2, 141308, Note_off_c, 0, 88, 100
2, 141312, Note_on_c, 0, 86, 95
2, 141404, Note_off_c, 0, 86, 100
2, 141408, Note_on_c, 0, 89, 95
2, 141500, Note_off_c, 0, 89, 100
2, 141504, Note_on_c, 0, 88, 94
2, 141596, Note_off_c, 0, 88, 100
2, 141600, Note_on_c, 0, 84, 93
2, 141692, Note_off_c, 0, 84, 100
2, 141696, Note_on_c, 0, 83, 92
2, 141788, Note_off_c, 0, 83, 100
2, 141792, Note_on_c, 0, 86, 91
2, 141884, Note_off_c, 0, 86, 100
2, 141888, Note_on_c, 0, 84, 90
2, 141980, Note_off_c, 0, 84, 100
2, 141984, Note_on_c, 0, 81, 89
2, 142076, Note_off_c, 0, 81, 100
2, 142080, Note_on_c, 0, 79, 88
2, 142172, Note_off_c, 0, 79, 100
2, 142176, Note_on_c, 0, 83, 87
2, 142268, Note_off_c, 0, 83, 100
2, 142272, Note_on_c, 0, 81, 86
2, 142364, Note_off_c, 0, 81, 100
2, 142368, Note_on_c, 0, 77, 85
2, 142460, Note_off_c, 0, 77, 100
2, 142464, Note_on_c, 0, 76, 84
2, 142556, Note_off_c, 0, 76, 100
2, 142560, Note_on_c, 0, 79, 83
2, 142652, Note_off_c, 0, 79, 100
2, 142656, Note_on_c, 0, 77, 82
2, 142748, Note_off_c, 0, 77, 100
2, 142752, Note_on_c, 0, 74, 81
2, 142844, Note_off_c, 0, 74, 100
2, 142848, Control_c, 0, 64, 127
2, 142848, Note_on_c, 0, 72, 80
2, 143232, Note_on_c, 0, 91, 80
2, 143232, Note_on_c, 0, 79, 80
2, 143612, Note_off_c, 0, 72, 100
2, 143612, Note_off_c, 0, 91, 100
2, 143612, Note_off_c, 0, 79, 100
2, 143616, Note_on_c, 0, 79, 80
2, 143616, Note_on_c, 0, 91, 80
2, 144192, Note_on_c, 0, 76, 80
2, 144192, Note_on_c, 0, 88, 80
2, 144380, Note_off_c, 0, 79, 100
2, 144380, Note_off_c, 0, 91, 100
2, 144384, Note_on_c, 0, 74, 80
2, 144384, Note_on_c, 0, 86, 80
2, 144572, Note_off_c, 0, 76, 100
2, 144572, Note_off_c, 0, 88, 100
2, 144768, Note_on_c, 0, 67, 80
2, 144768, Note_on_c, 0, 79, 80
2, 145148, Note_off_c, 0, 74, 100
2, 145148, Note_off_c, 0, 86, 100
2, 145152, Note_on_c, 0, 72, 80
2, 145152, Note_on_c, 0, 84, 80
2, 145532, Note_off_c, 0, 67, 100
2, 145532, Note_off_c, 0, 79, 100
2, 145536, Note_on_c, 0, 76, 80
2, 145536, Note_on_c, 0, 88, 80
2, 145916, Note_off_c, 0, 72, 100
2, 145916, Note_off_c, 0, 84, 100
2, 146300, Note_off_c, 0, 76, 100
2, 146300, Note_off_c, 0, 88, 100
2, 146304, Note_on_c, 0, 91, 80
2, 146304, Note_on_c, 0, 79, 80
2, 146684, Note_off_c, 0, 91, 100
2, 146684, Note_off_c, 0, 79, 100
2, 146688, Note_on_c, 0, 79, 80
2, 146688, Note_on_c, 0, 91, 80
2, 147264, Note_on_c, 0, 76, 80
2, 147264, Note_on_c, 0, 88, 80
2, 147452, Note_off_c, 0, 79, 100
2, 147452, Note_off_c, 0, 91, 100
2, 147456, Note_on_c, 0, 86, 80
2, 147456, Note_on_c, 0, 74, 80
2, 147644, Note_off_c, 0, 76, 100
2, 147644, Note_off_c, 0, 88, 100
2, 147840, Note_on_c, 0, 67, 80
2, 147840, Note_on_c, 0, 79, 80
2, 148220, Note_off_c, 0, 86, 100
2, 148220, Note_off_c, 0, 74, 100
2, 148224, Note_on_c, 0, 84, 80
2, 148224, Note_on_c, 0, 72, 80
2, 148600, Control_c, 0, 64, 0
2, 148604, Note_off_c, 0, 67, 100
2, 148604, Note_off_c, 0, 79, 100
2, 148604, Note_off_c, 0, 84, 100
2, 148604, Note_off_c, 0, 72, 100
2, 148992, Control_c, 0, 64, 127
2, 149376, Note_on_c, 0, 77, 80
2, 149376, Note_on_c, 0, 89, 80
2, 149756, Note_off_c, 0, 77, 100
2, 149756, Note_off_c, 0, 89, 100
2, 149760, Note_on_c, 0, 77, 80
2, 149760, Note_on_c, 0, 89, 80
2, 150336, Note_on_c, 0, 74, 80
2, 150336, Note_on_c, 0, 86, 80
2, 150520, Control_c, 0, 64, 0
2, 150524, Note_off_c, 0, 77, 100
2, 150524, Note_off_c, 0, 89, 100
2, 150524, Note_off_c, 0, 74, 100
2, 150524, Note_off_c, 0, 86, 100
2, 150528, Note_on_c, 0, 76, 80
2, 150528, Note_on_c, 0, 88, 80
2, 150912, Note_on_c, 0, 84, 80
2, 150912, Note_on_c, 0, 72, 80
2, 151292, Note_off_c, 0, 76, 100
2, 151292, Note_off_c, 0, 88, 100
2, 151296, Note_on_c, 0, 71, 80
2, 151296, Note_on_c, 0, 83, 80
2, 151676, Note_off_c, 0, 72, 100
2, 151676, Note_off_c, 0, 84, 100
2, 151680, Note_on_c, 0, 86, 80
2, 151680, Note_on_c, 0, 74, 80
2, 152060, Note_off_c, 0, 71, 100
2, 152060, Note_off_c, 0, 83, 100
2, 152060, Note_off_c, 0, 86, 100
2, 152060, Note_off_c, 0, 74, 100
2, 152064, Control_c, 0, 64, 127
2, 152448, Note_on_c, 0, 77, 80
2, 152448, Note_on_c, 0, 89, 80
2, 152828, Note_off_c, 0, 77, 100
2, 152828, Note_off_c, 0, 89, 100
2, 152832, Note_on_c, 0, 77, 80
2, 152832, Note_on_c, 0, 89, 80
2, 153408, Note_on_c, 0, 74, 80
2, 153408, Note_on_c, 0, 86, 80
2, 153592, Control_c, 0, 64, 0
2, 153596, Note_off_c, 0, 77, 100
2, 153596, Note_off_c, 0, 89, 100
2, 153596, Note_off_c, 0, 74, 100
2, 153596, Note_off_c, 0, 86, 100
2, 153600, Note_on_c, 0, 75, 80
2, 153600, Note_on_c, 0, 87, 80
2, 153984, Note_on_c, 0, 84, 80
2, 153984, Note_on_c, 0, 72, 80
2, 154364, Note_off_c, 0, 75, 100
2, 154364, Note_off_c, 0, 87, 100
2, 154368, Note_on_c, 0, 71, 80
2, 154368, Note_on_c, 0, 83, 80
2, 154748, Note_off_c, 0, 72, 100
2, 154748, Note_off_c, 0, 84, 100
2, 154752, Note_on_c, 0, 86, 80
2, 154752, Note_on_c, 0, 74, 80
2, 155132, Note_off_c, 0, 71, 100
2, 155132, Note_off_c, 0, 83, 100
2, 155132, Note_off_c, 0, 86, 100
2, 155132, Note_off_c, 0, 74, 100
2, 155136, Note_on_c, 0, 76, 80
2, 155136, Note_on_c, 0, 88, 80
2, 155520, Note_on_c, 0, 84, 85
2, 155520, Note_on_c, 0, 72, 85
2, 155900, Note_off_c, 0, 76, 100
2, 155900, Note_off_c, 0, 88, 100
2, 155904, Note_on_c, 0, 71, 90
2, 155904, Note_on_c, 0, 83, 90
2, 156284, Note_off_c, 0, 72, 100
2, 156284, Note_off_c, 0, 84, 100
2, 156288, Note_on_c, 0, 86, 95
2, 156288, Note_on_c, 0, 74, 95
2, 156668, Note_off_c, 0, 71, 100
2, 156668, Note_off_c, 0, 83, 100
2, 156668, Note_off_c, 0, 86, 100
2, 156668, Note_off_c, 0, 74, 100
2, 156672, Note_on_c, 0, 87, 90
2, 156672, Note_on_c, 0, 75, 90
2, 157056, Note_on_c, 0, 84, 85
2, 157056, Note_on_c, 0, 72, 85
2, 157436, Note_off_c, 0, 87, 100
2, 157436, Note_off_c, 0, 75, 100
2, 157440, Note_on_c, 0, 79, 80
2, 157820, Note_off_c, 0, 72, 100
2, 157820, Note_off_c, 0, 84, 100
2, 157820, Note_off_c, 0, 79, 100
2, 157824, Note_on_c, 0, 79, 75
2, 158204, Note_off_c, 0, 79, 100
2, 158208, Note_on_c, 0, 81, 70
2, 158256, Note_on_c, 0, 79, 70
2, 158292, Note_off_c, 0, 81, 100
2, 158304, Note_on_c, 0, 81, 71
2, 158344, Note_off_c, 0, 79, 100
2, 158352, Note_on_c, 0, 79, 71
2, 158384, Note_off_c, 0, 81, 100
2, 158400, Note_on_c, 0, 81, 72
2, 158432, Note_off_c, 0, 79, 100
2, 158448, Note_on_c, 0, 79, 73
2, 158484, Note_off_c, 0, 81, 100
2, 158496, Note_on_c, 0, 81, 73
2, 158536, Note_off_c, 0, 79, 100
2, 158544, Note_on_c, 0, 79, 74
2, 158576, Note_off_c, 0, 81, 100
2, 158592, Note_on_c, 0, 81, 75
2, 158624, Note_off_c, 0, 79, 100
2, 158640, Note_on_c, 0, 79, 75
2, 158676, Note_off_c, 0, 81, 100
2, 158688, Note_on_c, 0, 81, 76
2, 158728, Note_off_c, 0, 79, 100
2, 158736, Note_on_c, 0, 79, 77
2, 158768, Note_off_c, 0, 81, 100
2, 158784, Note_on_c, 0, 81, 77
2, 158816, Note_off_c, 0, 79, 100
2, 158832, Note_on_c, 0, 79, 78
2, 158868, Note_off_c, 0, 81, 100
2, 158880, Note_on_c, 0, 81, 79
2, 158920, Note_off_c, 0, 79, 100
2, 158928, Note_on_c, 0, 79, 79
2, 158960, Note_off_c, 0, 81, 100
2, 158976, Note_on_c, 0, 81, 80
2, 159008, Note_off_c, 0, 79, 100
2, 159024, Note_on_c, 0, 79, 80
2, 159060, Note_off_c, 0, 81, 100
2, 159072, Note_on_c, 0, 81, 81
2, 159112, Note_off_c, 0, 79, 100
2, 159120, Note_on_c, 0, 79, 82
2, 159152, Note_off_c, 0, 81, 100
2, 159168, Note_on_c, 0, 81, 82
2, 159200, Note_off_c, 0, 79, 100
2, 159216, Note_on_c, 0, 79, 83
2, 159252, Note_off_c, 0, 81, 100
2, 159264, Note_on_c, 0, 81, 84
2, 159304, Note_off_c, 0, 79, 100
2, 159312, Note_on_c, 0, 79, 84
2, 159344, Note_off_c, 0, 81, 100
2, 159360, Note_on_c, 0, 81, 85
2, 159392, Note_off_c, 0, 79, 100
2, 159408, Note_on_c, 0, 79, 86
2, 159444, Note_off_c, 0, 81, 100
2, 159456, Note_on_c, 0, 81, 86
2, 159496, Note_off_c, 0, 79, 100
2, 159504, Note_on_c, 0, 79, 87
2, 159536, Note_off_c, 0, 81, 100
2, 159552, Note_on_c, 0, 81, 88
2, 159584, Note_off_c, 0, 79, 100
2, 159600, Note_on_c, 0, 79, 88
2, 159636, Note_off_c, 0, 81, 100
2, 159648, Note_on_c, 0, 81, 89
2, 159688, Note_off_c, 0, 79, 100
2, 159696, Note_on_c, 0, 79, 89
2, 159728, Note_off_c, 0, 81, 100
2, 159744, Note_on_c, 0, 81, 90
2, 159776, Note_off_c, 0, 79, 100
2, 159792, Note_on_c, 0, 79, 91
2, 159828, Note_off_c, 0, 81, 100
2, 159840, Note_on_c, 0, 81, 91
2, 159880, Note_off_c, 0, 79, 100
2, 159888, Note_on_c, 0, 79, 92
2, 159920, Note_off_c, 0, 81, 100
2, 159936, Note_on_c, 0, 81, 93
2, 159968, Note_off_c, 0, 79, 100
2, 159984, Note_on_c, 0, 79, 93
2, 160020, Note_off_c, 0, 81, 100
2, 160032, Note_on_c, 0, 81, 94
2, 160072, Note_off_c, 0, 79, 100
2, 160080, Note_on_c, 0, 79, 95
2, 160112, Note_off_c, 0, 81, 100
2, 160128, Note_on_c, 0, 81, 95
2, 160160, Note_off_c, 0, 79, 100
2, 160176, Note_on_c, 0, 79, 96
2, 160212, Note_off_c, 0, 81, 100
2, 160224, Note_on_c, 0, 81, 97
2, 160264, Note_off_c, 0, 79, 100
2, 160272, Note_on_c, 0, 79, 97
2, 160304, Note_off_c, 0, 81, 100
2, 160320, Note_on_c, 0, 81, 98
2, 160352, Note_off_c, 0, 79, 100
2, 160368, Note_on_c, 0, 79, 98
2, 160404, Note_off_c, 0, 81, 100
2, 160416, Note_on_c, 0, 81, 99
2, 160456, Note_off_c, 0, 79, 100
2, 160464, Note_on_c, 0, 79, 100
2, 160496, Note_off_c, 0, 81, 100
2, 160512, Note_on_c, 0, 81, 100
2, 160544, Note_off_c, 0, 79, 100
2, 160560, Note_on_c, 0, 79, 101
2, 160596, Note_off_c, 0, 81, 100
2, 160608, Note_on_c, 0, 81, 102
2, 160648, Note_off_c, 0, 79, 100
2, 160656, Note_on_c, 0, 79, 102
2, 160688, Note_off_c, 0, 81, 100
2, 160704, Note_on_c, 0, 81, 103
2, 160736, Note_off_c, 0, 79, 100
2, 160752, Note_on_c, 0, 79, 104
2, 160788, Note_off_c, 0, 81, 100
2, 160800, Note_on_c, 0, 81, 104
2, 160840, Note_off_c, 0, 79, 100
2, 160848, Note_on_c, 0, 79, 105
2, 160880, Note_off_c, 0, 81, 100
2, 160896, Note_on_c, 0, 81, 106
2, 160928, Note_off_c, 0, 79, 100
2, 160944, Note_on_c, 0, 79, 106
2, 160980, Note_off_c, 0, 81, 100
2, 160992, Note_on_c, 0, 81, 107
2, 161032, Note_off_c, 0, 79, 100
2, 161040, Note_on_c, 0, 79, 108
2, 161072, Note_off_c, 0, 81, 100
2, 161088, Note_on_c, 0, 81, 108
2, 161120, Note_off_c, 0, 79, 100
2, 161136, Note_on_c, 0, 79, 109
2, 161172, Note_off_c, 0, 81, 100
2, 161184, Note_on_c, 0, 81, 109
2, 161224, Note_off_c, 0, 79, 100
2, 161232, Note_on_c, 0, 79, 120
2, 161264, Note_off_c, 0, 81, 100
2, 161280, Control_c, 0, 64, 127
2, 161280, Note_on_c, 0, 81, 120
2, 161312, Note_off_c, 0, 79, 100
2, 161328, Note_on_c, 0, 79, 120
2, 161364, Note_off_c, 0, 81, 100
2, 161376, Note_on_c, 0, 81, 120
2, 161416, Note_off_c, 0, 79, 100
2, 161424, Note_on_c, 0, 79, 120
2, 161456, Note_off_c, 0, 81, 100
2, 161472, Note_on_c, 0, 81, 120
2, 161504, Note_off_c, 0, 79, 100
2, 161520, Note_on_c, 0, 79, 120
2, 161556, Note_off_c, 0, 81, 100
2, 161568, Note_on_c, 0, 81, 120
2, 161608, Note_off_c, 0, 79, 100
2, 161616, Note_on_c, 0, 79, 120
2, 161648, Note_off_c, 0, 81, 100
2, 161664, Note_on_c, 0, 81, 120
2, 161664, Note_on_c, 0, 91, 120
2, 161696, Note_off_c, 0, 79, 100
2, 161712, Note_on_c, 0, 79, 120
2, 161748, Note_off_c, 0, 81, 100
2, 161760, Note_on_c, 0, 81, 120
2, 161800, Note_off_c, 0, 79, 100
2, 161808, Note_on_c, 0, 79, 120
2, 161840, Note_off_c, 0, 81, 100
2, 161856, Note_on_c, 0, 81, 120
2, 161888, Note_off_c, 0, 79, 100
2, 161904, Note_on_c, 0, 79, 120
2, 161940, Note_off_c, 0, 81, 100
2, 161952, Note_on_c, 0, 81, 120
2, 161992, Note_off_c, 0, 79, 100
2, 162000, Note_on_c, 0, 79, 120
2, 162032, Note_off_c, 0, 81, 100
2, 162044, Note_off_c, 0, 91, 100
2, 162048, Note_on_c, 0, 81, 120
2, 162048, Note_on_c, 0, 91, 120
2, 162080, Note_off_c, 0, 79, 100
2, 162096, Note_on_c, 0, 79, 120
2, 162132, Note_off_c, 0, 81, 100
2, 162144, Note_on_c, 0, 81, 120
2, 162184, Note_off_c, 0, 79, 100
2, 162192, Note_on_c, 0, 79, 120
2, 162224, Note_off_c, 0, 81, 100
2, 162240, Note_on_c, 0, 81, 120
2, 162272, Note_off_c, 0, 79, 100
2, 162288, Note_on_c, 0, 79, 120
2, 162324, Note_off_c, 0, 81, 100
2, 162336, Note_on_c, 0, 81, 120
2, 162376, Note_off_c, 0, 79, 100
2, 162384, Note_on_c, 0, 79, 120
2, 162416, Note_off_c, 0, 81, 100
2, 162432, Note_on_c, 0, 81, 120
2, 162464, Note_off_c, 0, 79, 100
2, 162480, Note_on_c, 0, 79, 120
2, 162516, Note_off_c, 0, 81, 100
2, 162528, Note_on_c, 0, 81, 120
2, 162568, Note_off_c, 0, 79, 100
2, 162576, Note_on_c, 0, 79, 120
2, 162608, Note_off_c, 0, 81, 100
2, 162624, Note_on_c, 0, 81, 120
2, 162624, Note_on_c, 0, 88, 120
2, 162656, Note_off_c, 0, 79, 100
2, 162672, Note_on_c, 0, 79, 120
2, 162708, Note_off_c, 0, 81, 100
2, 162720, Note_on_c, 0, 81, 120
2, 162760, Note_off_c, 0, 79, 100
2, 162768, Note_on_c, 0, 79, 120
2, 162800, Note_off_c, 0, 81, 100
2, 162808, Control_c, 0, 64, 0
2, 162812, Note_off_c, 0, 91, 100
2, 162812, Note_off_c, 0, 88, 100
2, 162816, Note_on_c, 0, 81, 120
2, 162816, Note_on_c, 0, 86, 120
2, 162848, Note_off_c, 0, 79, 100
2, 162864, Note_on_c, 0, 79, 120
2, 162900, Note_off_c, 0, 81, 100
2, 162912, Note_on_c, 0, 81, 120
2, 162952, Note_off_c, 0, 79, 100
2, 162960, Note_on_c, 0, 79, 120
2, 162992, Note_off_c, 0, 81, 100
2, 163008, Note_on_c, 0, 81, 120
2, 163040, Note_off_c, 0, 79, 100
2, 163056, Note_on_c, 0, 79, 120
2, 163092, Note_off_c, 0, 81, 100
2, 163104, Note_on_c, 0, 81, 120
2, 163144, Note_off_c, 0, 79, 100
2, 163152, Note_on_c, 0, 79, 120
2, 163184, Note_off_c, 0, 81, 100
2, 163196, Note_off_c, 0, 86, 100
2, 163200, Note_on_c, 0, 81, 120
2, 163200, Note_on_c, 0, 79, 120
2, 163232, Note_off_c, 0, 79, 100
2, 163248, Note_on_c, 0, 79, 120
2, 163284, Note_off_c, 0, 81, 100
2, 163296, Note_on_c, 0, 81, 120
2, 163336, Note_off_c, 0, 79, 100
2, 163344, Note_on_c, 0, 79, 120
2, 163376, Note_off_c, 0, 81, 100
2, 163392, Note_on_c, 0, 81, 120
2, 163424, Note_off_c, 0, 79, 100
2, 163440, Note_on_c, 0, 79, 120
2, 163476, Note_off_c, 0, 81, 100
2, 163488, Note_on_c, 0, 81, 120
2, 163528, Note_off_c, 0, 79, 100
2, 163536, Note_on_c, 0, 79, 120
2, 163568, Note_off_c, 0, 81, 100
2, 163580, Note_off_c, 0, 79, 100
2, 163584, Note_on_c, 0, 81, 120
2, 163584, Note_on_c, 0, 84, 120
2, 163616, Note_off_c, 0, 79, 100
2, 163632, Note_on_c, 0, 79, 120
2, 163668, Note_off_c, 0, 81, 100
2, 163680, Note_on_c, 0, 81, 120
2, 163720, Note_off_c, 0, 79, 100
2, 163728, Note_on_c, 0, 79, 120
2, 163760, Note_off_c, 0, 81, 100
2, 163776, Note_on_c, 0, 81, 120
2, 163808, Note_off_c, 0, 79, 100
2, 163824, Note_on_c, 0, 79, 120
2, 163860, Note_off_c, 0, 81, 100
2, 163872, Note_on_c, 0, 81, 120
2, 163912, Note_off_c, 0, 79, 100
2, 163920, Note_on_c, 0, 79, 120
2, 163952, Note_off_c, 0, 81, 100
2, 163964, Note_off_c, 0, 84, 100
2, 163968, Note_on_c, 0, 81, 120
2, 163968, Note_on_c, 0, 88, 120
2, 164000, Note_off_c, 0, 79, 100
2, 164016, Note_on_c, 0, 79, 120
2, 164052, Note_off_c, 0, 81, 100
2, 164064, Note_on_c, 0, 81, 120
2, 164104, Note_off_c, 0, 79, 100
2, 164112, Note_on_c, 0, 79, 120
2, 164144, Note_off_c, 0, 81, 100
2, 164160, Note_on_c, 0, 81, 120
2, 164192, Note_off_c, 0, 79, 100
2, 164208, Note_on_c, 0, 79, 120
2, 164244, Note_off_c, 0, 81, 100
2, 164256, Note_on_c, 0, 81, 120
2, 164296, Note_off_c, 0, 79, 100
2, 164304, Note_on_c, 0, 79, 120
2, 164336, Note_off_c, 0, 81, 100
2, 164348, Note_off_c, 0, 88, 100
2, 164352, Control_c, 0, 64, 127
2, 164352, Note_on_c, 0, 81, 120
2, 164384, Note_off_c, 0, 79, 100
2, 164400, Note_on_c, 0, 79, 120
2, 164436, Note_off_c, 0, 81, 100
2, 164448, Note_on_c, 0, 81, 120
2, 164488, Note_off_c, 0, 79, 100
2, 164496, Note_on_c, 0, 79, 120
2, 164528, Note_off_c, 0, 81, 100
2, 164544, Note_on_c, 0, 81, 120
2, 164576, Note_off_c, 0, 79, 100
2, 164592, Note_on_c, 0, 79, 120
2, 164628, Note_off_c, 0, 81, 100
2, 164640, Note_on_c, 0, 81, 120
2, 164680, Note_off_c, 0, 79, 100
2, 164688, Note_on_c, 0, 79, 120
2, 164720, Note_off_c, 0, 81, 100
2, 164736, Note_on_c, 0, 81, 120
2, 164736, Note_on_c, 0, 91, 120
2, 164768, Note_off_c, 0, 79, 100
2, 164784, Note_on_c, 0, 79, 120
2, 164820, Note_off_c, 0, 81, 100
2, 164832, Note_on_c, 0, 81, 120
2, 164872, Note_off_c, 0, 79, 100
2, 164880, Note_on_c, 0, 79, 120
2, 164912, Note_off_c, 0, 81, 100
2, 164928, Note_on_c, 0, 81, 120
2, 164960, Note_off_c, 0, 79, 100
2, 164976, Note_on_c, 0, 79, 120
2, 165012, Note_off_c, 0, 81, 100
2, 165024, Note_on_c, 0, 81, 120
2, 165064, Note_off_c, 0, 79, 100
2, 165072, Note_on_c, 0, 79, 120
2, 165104, Note_off_c, 0, 81, 100
2, 165116, Note_off_c, 0, 91, 100
2, 165120, Note_on_c, 0, 81, 120
2, 165120, Note_on_c, 0, 91, 120
2, 165152, Note_off_c, 0, 79, 100
2, 165168, Note_on_c, 0, 79, 120
2, 165204, Note_off_c, 0, 81, 100
2, 165216, Note_on_c, 0, 81, 120
2, 165256, Note_off_c, 0, 79, 100
2, 165264, Note_on_c, 0, 79, 120
2, 165296, Note_off_c, 0, 81, 100
2, 165312, Note_on_c, 0, 81, 120
2, 165344, Note_off_c, 0, 79, 100
2, 165360, Note_on_c, 0, 79, 120
2, 165396, Note_off_c, 0, 81, 100
2, 165408, Note_on_c, 0, 81, 120
2, 165448, Note_off_c, 0, 79, 100
2, 165456, Note_on_c, 0, 79, 120
2, 165488, Note_off_c, 0, 81, 100
2, 165504, Note_on_c, 0, 81, 120
2, 165536, Note_off_c, 0, 79, 100
2, 165552, Note_on_c, 0, 79, 120
2, 165588, Note_off_c, 0, 81, 100
2, 165600, Note_on_c, 0, 81, 120
2, 165640, Note_off_c, 0, 79, 100
2, 165648, Note_on_c, 0, 79, 120
2, 165680, Note_off_c, 0, 81, 100
2, 165696, Note_on_c, 0, 81, 120
2, 165696, Note_on_c, 0, 88, 120
2, 165728, Note_off_c, 0, 79, 100
2, 165744, Note_on_c, 0, 79, 120
2, 165780, Note_off_c, 0, 81, 100
2, 165792, Note_on_c, 0, 81, 120
2, 165832, Note_off_c, 0, 79, 100
2, 165840, Note_on_c, 0, 79, 120
2, 165872, Note_off_c, 0, 81, 100
2, 165880, Control_c, 0, 64, 0
2, 165884, Note_off_c, 0, 91, 100
2, 165884, Note_off_c, 0, 88, 100
2, 165888, Note_on_c, 0, 81, 120
2, 165888, Note_on_c, 0, 86, 120
2, 165920, Note_off_c, 0, 79, 100
2, 165936, Note_on_c, 0, 79, 120
2, 165972, Note_off_c, 0, 81, 100
2, 165984, Note_on_c, 0, 81, 120
2, 166024, Note_off_c, 0, 79, 100
2, 166032, Note_on_c, 0, 79, 120
2, 166064, Note_off_c, 0, 81, 100
2, 166080, Note_on_c, 0, 81, 120
2, 166112, Note_off_c, 0, 79, 100
2, 166128, Note_on_c, 0, 79, 120
2, 166164, Note_off_c, 0, 81, 100
2, 166176, Note_on_c, 0, 81, 120
2, 166216, Note_off_c, 0, 79, 100
2, 166224, Note_on_c, 0, 79, 120
2, 166256, Note_off_c, 0, 81, 100
2, 166268, Note_off_c, 0, 86, 100
2, 166272, Note_on_c, 0, 81, 120
2, 166272, Note_on_c, 0, 79, 120
2, 166304, Note_off_c, 0, 79, 100
2, 166320, Note_on_c, 0, 79, 120
2, 166356, Note_off_c, 0, 81, 100
2, 166368, Note_on_c, 0, 81, 120
2, 166408, Note_off_c, 0, 79, 100
2, 166416, Note_on_c, 0, 79, 120
2, 166448, Note_off_c, 0, 81, 100
2, 166464, Note_on_c, 0, 81, 120
2, 166496, Note_off_c, 0, 79, 100
2, 166512, Note_on_c, 0, 79, 120
2, 166548, Note_off_c, 0, 81, 100
2, 166560, Note_on_c, 0, 78, 120
2, 166600, Note_off_c, 0, 79, 100
2, 166608, Note_on_c, 0, 79, 120
2, 166640, Note_off_c, 0, 78, 100
2, 166652, Note_off_c, 0, 79, 100
2, 166652, Note_off_c, 0, 79, 100
2, 166656, Note_on_c, 0, 84, 120
2, 166844, Note_off_c, 0, 84, 100
2, 166944, Note_on_c, 0, 55, 110
2, 167036, Note_off_c, 0, 55, 100
2, 167136, Note_on_c, 0, 63, 110
2, 167228, Note_off_c, 0, 63, 100
2, 167328, Note_on_c, 0, 62, 110
2, 167420, Note_off_c, 0, 62, 100
2, 167424, Key_signature, -3, "minor"
2, 167520, Note_on_c, 0, 60, 110
2, 167612, Note_off_c, 0, 60, 100
2, 167712, Note_on_c, 0, 55, 110
2, 167804, Note_off_c, 0, 55, 100
2, 167904, Note_on_c, 0, 57, 110
2, 167996, Note_off_c, 0, 57, 100
2, 168096, Note_on_c, 0, 59, 110
2, 168188, Note_off_c, 0, 59, 100
2, 168288, Note_on_c, 0, 60, 110
2, 168380, Note_off_c, 0, 60, 100
2, 168480, Note_on_c, 0, 60, 110
2, 168572, Note_off_c, 0, 60, 100
2, 168672, Note_on_c, 0, 68, 110
2, 168764, Note_off_c, 0, 68, 100
2, 168864, Note_on_c, 0, 67, 110
2, 168956, Note_off_c, 0, 67, 100
2, 169056, Note_on_c, 0, 65, 110
2, 169148, Note_off_c, 0, 65, 100
2, 169248, Note_on_c, 0, 60, 110
2, 169340, Note_off_c, 0, 60, 100
2, 169440, Note_on_c, 0, 62, 110
2, 169532, Note_off_c, 0, 62, 100
2, 169632, Note_on_c, 0, 64, 110
2, 169724, Note_off_c, 0, 64, 100
2, 169824, Note_on_c, 0, 65, 110
2, 169916, Note_off_c, 0, 65, 100
2, 170016, Note_on_c, 0, 65, 110
2, 170108, Note_off_c, 0, 65, 100
2, 170208, Note_on_c, 0, 73, 110
2, 170300, Note_off_c, 0, 73, 100
2, 170400, Note_on_c, 0, 72, 110
2, 170492, Note_off_c, 0, 72, 100
2, 170592, Note_on_c, 0, 70, 110
2, 170684, Note_off_c, 0, 70, 100
2, 170784, Note_on_c, 0, 68, 110
2, 170876, Note_off_c, 0, 68, 100
2, 170976, Note_on_c, 0, 67, 110
2, 171068, Note_off_c, 0, 67, 100
2, 171168, Note_on_c, 0, 65, 110
2, 171260, Note_off_c, 0, 65, 100
2, 171360, Note_on_c, 0, 63, 110
2, 171452, Note_off_c, 0, 63, 100
2, 171552, Note_on_c, 0, 63, 110
2, 171644, Note_off_c, 0, 63, 100
2, 171744, Note_on_c, 0, 63, 110
2, 171744, Note_on_c, 0, 55, 110
2, 171744, Note_on_c, 0, 51, 110
2, 171836, Note_off_c, 0, 63, 100
2, 171836, Note_off_c, 0, 55, 100
2, 171836, Note_off_c, 0, 51, 100
2, 171936, Note_on_c, 0, 63, 110
2, 171936, Note_on_c, 0, 56, 110
2, 171936, Note_on_c, 0, 53, 110
2, 172028, Note_off_c, 0, 63, 100
2, 172028, Note_off_c, 0, 56, 100
2, 172028, Note_off_c, 0, 53, 100
2, 172128, Note_on_c, 0, 63, 110
2, 172128, Note_on_c, 0, 58, 110
2, 172128, Note_on_c, 0, 55, 110
2, 172220, Note_off_c, 0, 63, 100
2, 172220, Note_off_c, 0, 58, 100
2, 172220, Note_off_c, 0, 55, 100
2, 172320, Note_on_c, 0, 63, 110
2, 172320, Note_on_c, 0, 60, 110
2, 172320, Note_on_c, 0, 56, 110
2, 172412, Note_off_c, 0, 63, 100
2, 172412, Note_off_c, 0, 60, 100
2, 172412, Note_off_c, 0, 56, 100
2, 172512, Note_on_c, 0, 63, 110
2, 172512, Note_on_c, 0, 61, 110
2, 172512, Note_on_c, 0, 58, 110
2, 172604, Note_off_c, 0, 63, 100
2, 172604, Note_off_c, 0, 61, 100
2, 172604, Note_off_c, 0, 58, 100
2, 172704, Note_on_c, 0, 63, 110
2, 172704, Note_on_c, 0, 58, 110
2, 172704, Note_on_c, 0, 55, 110
2, 172796, Note_off_c, 0, 63, 100
2, 172796, Note_off_c, 0, 58, 100
2, 172796, Note_off_c, 0, 55, 100
2, 172800, Note_on_c, 0, 60, 110
2, 172988, Note_off_c, 0, 60, 100
2, 172992, Note_on_c, 0, 67, 110
2, 172992, Note_on_c, 0, 55, 110
2, 173180, Note_off_c, 0, 67, 100
2, 173180, Note_off_c, 0, 55, 100
2, 173184, Note_on_c, 0, 75, 110
2, 173184, Note_on_c, 0, 63, 110
2, 173372, Note_off_c, 0, 75, 100
2, 173372, Note_off_c, 0, 63, 100
2, 173376, Note_on_c, 0, 74, 110
2, 173376, Note_on_c, 0, 62, 110
2, 173564, Note_off_c, 0, 74, 100
2, 173564, Note_off_c, 0, 62, 100
2, 173568, Note_on_c, 0, 72, 110
2, 173568, Note_on_c, 0, 60, 110
2, 173756, Note_off_c, 0, 72, 100
2, 173756, Note_off_c, 0, 60, 100
2, 173760, Note_on_c, 0, 67, 110
2, 173760, Note_on_c, 0, 55, 110
2, 173948, Note_off_c, 0, 67, 100
2, 173948, Note_off_c, 0, 55, 100
2, 173952, Note_on_c, 0, 69, 110
2, 173952, Note_on_c, 0, 57, 110
2, 174140, Note_off_c, 0, 69, 100
2, 174140, Note_off_c, 0, 57, 100
2, 174144, Note_on_c, 0, 71, 110
2, 174144, Note_on_c, 0, 59, 110
2, 174332, Note_off_c, 0, 71, 100
2, 174332, Note_off_c, 0, 59, 100
2, 174336, Note_on_c, 0, 72, 110
2, 174336, Note_on_c, 0, 60, 110
2, 174524, Note_off_c, 0, 72, 100
2, 174524, Note_off_c, 0, 60, 100
2, 174528, Note_on_c, 0, 72, 110
2, 174528, Note_on_c, 0, 60, 110
2, 174716, Note_off_c, 0, 72, 100
2, 174716, Note_off_c, 0, 60, 100
2, 174720, Note_on_c, 0, 80, 110
2, 174720, Note_on_c, 0, 68, 110
2, 174908, Note_off_c, 0, 80, 100
2, 174908, Note_off_c, 0, 68, 100
2, 174912, Note_on_c, 0, 79, 110
2, 174912, Note_on_c, 0, 67, 110
2, 175100, Note_off_c, 0, 79, 100
2, 175100, Note_off_c, 0, 67, 100
2, 175104, Note_on_c, 0, 77, 110
2, 175104, Note_on_c, 0, 65, 110
2, 175292, Note_off_c, 0, 77, 100
2, 175292, Note_off_c, 0, 65, 100
2, 175296, Note_on_c, 0, 72, 110
2, 175296, Note_on_c, 0, 60, 110
2, 175484, Note_off_c, 0, 72, 100
2, 175484, Note_off_c, 0, 60, 100
2, 175488, Note_on_c, 0, 74, 110
2, 175488, Note_on_c, 0, 62, 110
2, 175676, Note_off_c, 0, 74, 100
2, 175676, Note_off_c, 0, 62, 100
2, 175680, Note_on_c, 0, 76, 110
2, 175680, Note_on_c, 0, 64, 110
2, 175868, Note_off_c, 0, 76, 100
2, 175868, Note_off_c, 0, 64, 100
2, 175872, Note_on_c, 0, 77, 110
2, 175872, Note_on_c, 0, 65, 110
2, 176060, Note_off_c, 0, 77, 100
2, 176060, Note_off_c, 0, 65, 100
2, 176064, Note_on_c, 0, 77, 110
2, 176064, Note_on_c, 0, 65, 110
2, 176252, Note_off_c, 0, 77, 100
2, 176252, Note_off_c, 0, 65, 100
2, 176256, Note_on_c, 0, 85, 110
2, 176256, Note_on_c, 0, 73, 110
2, 176444, Note_off_c, 0, 85, 100
2, 176444, Note_off_c, 0, 73, 100
2, 176448, Note_on_c, 0, 84, 110
2, 176448, Note_on_c, 0, 72, 110
2, 176636, Note_off_c, 0, 84, 100
2, 176636, Note_off_c, 0, 72, 100
2, 176640, Note_on_c, 0, 82, 110
2, 176640, Note_on_c, 0, 70, 110
2, 176828, Note_off_c, 0, 82, 100
2, 176828, Note_off_c, 0, 70, 100
2, 176832, Note_on_c, 0, 80, 110
2, 176832, Note_on_c, 0, 68, 110
2, 177020, Note_off_c, 0, 80, 100
2, 177020, Note_off_c, 0, 68, 100
2, 177024, Note_on_c, 0, 79, 110
2, 177024, Note_on_c, 0, 67, 110
2, 177212, Note_off_c, 0, 79, 100
2, 177212, Note_off_c, 0, 67, 100
2, 177216, Note_on_c, 0, 77, 110
2, 177216, Note_on_c, 0, 65, 110
2, 177404, Note_off_c, 0, 77, 100
2, 177404, Note_off_c, 0, 65, 100
2, 177408, Note_on_c, 0, 75, 110
2, 177408, Note_on_c, 0, 63, 110
2, 177596, Note_off_c, 0, 75, 100
2, 177596, Note_off_c, 0, 63, 100
2, 177600, Note_on_c, 0, 75, 110
2, 177600, Note_on_c, 0, 63, 110
2, 177788, Note_off_c, 0, 75, 100
2, 177788, Note_off_c, 0, 63, 100
2, 177792, Note_on_c, 0, 75, 110
2, 177792, Note_on_c, 0, 67, 110
2, 177792, Note_on_c, 0, 63, 110
2, 177980, Note_off_c, 0, 75, 100
2, 177980, Note_off_c, 0, 67, 100
2, 177980, Note_off_c, 0, 63, 100
2, 177984, Note_on_c, 0, 75, 110
2, 177984, Note_on_c, 0, 68, 110
2, 177984, Note_on_c, 0, 65, 110
2, 178172, Note_off_c, 0, 75, 100
2, 178172, Note_off_c, 0, 68, 100
2, 178172, Note_off_c, 0, 65, 100
2, 178176, Note_on_c, 0, 75, 110
2, 178176, Note_on_c, 0, 67, 110
2, 178176, Note_on_c, 0, 70, 110
2, 178364, Note_off_c, 0, 75, 100
2, 178364, Note_off_c, 0, 67, 100
2, 178364, Note_off_c, 0, 70, 100
2, 178368, Note_on_c, 0, 75, 110
2, 178368, Note_on_c, 0, 72, 110
2, 178368, Note_on_c, 0, 68, 110
2, 178556, Note_off_c, 0, 75, 100
2, 178556, Note_off_c, 0, 72, 100
2, 178556, Note_off_c, 0, 68, 100
2, 178560, Note_on_c, 0, 75, 110
2, 178560, Note_on_c, 0, 73, 110
2, 178560, Note_on_c, 0, 70, 110
2, 178748, Note_off_c, 0, 75, 100
2, 178748, Note_off_c, 0, 73, 100
2, 178748, Note_off_c, 0, 70, 100
2, 178752, Note_on_c, 0, 75, 110
2, 178752, Note_on_c, 0, 70, 110
2, 178752, Note_on_c, 0, 67, 110
2, 178940, Note_off_c, 0, 75, 100
2, 178940, Note_off_c, 0, 70, 100
2, 178940, Note_off_c, 0, 67, 100
2, 178944, Note_on_c, 0, 72, 110
2, 178944, Note_on_c, 0, 68, 110
2, 179132, Note_off_c, 0, 72, 100
2, 179132, Note_off_c, 0, 68, 100
2, 179136, Note_on_c, 0, 67, 110
2, 179200, Note_on_c, 0, 65, 110
2, 179248, Note_off_c, 0, 67, 100
2, 179264, Note_on_c, 0, 67, 110
2, 179316, Note_off_c, 0, 65, 100
2, 179328, Note_on_c, 0, 68, 110
2, 179368, Note_off_c, 0, 67, 100
2, 179392, Note_on_c, 0, 72, 110
2, 179444, Note_off_c, 0, 68, 100
2, 179456, Note_on_c, 0, 73, 110
2, 179508, Note_off_c, 0, 72, 100
2, 179520, Note_on_c, 0, 75, 110
2, 179568, Note_off_c, 0, 73, 100
2, 179584, Note_on_c, 0, 77, 110
2, 179632, Note_off_c, 0, 75, 100
2, 179648, Note_on_c, 0, 79, 110
2, 179700, Note_off_c, 0, 77, 100
2, 179708, Note_off_c, 0, 79, 100
2, 179712, Note_on_c, 0, 80, 110
2, 179776, Note_on_c, 0, 82, 110
2, 179820, Note_off_c, 0, 80, 100
2, 179840, Note_on_c, 0, 84, 110
2, 179884, Note_off_c, 0, 82, 100
2, 179904, Note_on_c, 0, 85, 110
2, 179948, Note_off_c, 0, 84, 100
2, 179968, Note_on_c, 0, 84, 110
2, 180020, Note_off_c, 0, 85, 100
2, 180032, Note_on_c, 0, 82, 110
2, 180072, Note_off_c, 0, 84, 100
2, 180096, Note_on_c, 0, 85, 110
2, 180144, Note_off_c, 0, 82, 100
2, 180160, Note_on_c, 0, 84, 110
2, 180212, Note_off_c, 0, 85, 100
2, 180224, Note_on_c, 0, 82, 110
2, 180280, Note_off_c, 0, 84, 100
2, 180288, Note_on_c, 0, 85, 110
2, 180336, Note_off_c, 0, 82, 100
2, 180352, Note_on_c, 0, 84, 110
2, 180400, Note_off_c, 0, 85, 100
2, 180416, Note_on_c, 0, 82, 110
2, 180464, Note_off_c, 0, 84, 100
2, 180476, Note_off_c, 0, 82, 100
2, 180480, Note_on_c, 0, 80, 110
2, 180668, Note_off_c, 0, 80, 100
2, 180672, Note_on_c, 0, 64, 110
2, 180736, Note_on_c, 0, 62, 110
2, 180792, Note_off_c, 0, 64, 100
2, 180800, Note_on_c, 0, 64, 110
2, 180840, Note_off_c, 0, 62, 100
2, 180864, Note_on_c, 0, 65, 110
2, 180904, Note_off_c, 0, 64, 100
2, 180928, Note_on_c, 0, 68, 110
2, 180972, Note_off_c, 0, 65, 100
2, 180992, Note_on_c, 0, 70, 110
2, 181040, Note_off_c, 0, 68, 100
2, 181056, Note_on_c, 0, 72, 110
2, 181100, Note_off_c, 0, 70, 100
2, 181120, Note_on_c, 0, 74, 110
2, 181168, Note_off_c, 0, 72, 100
2, 181184, Note_on_c, 0, 76, 110
2, 181232, Note_off_c, 0, 74, 100
2, 181244, Note_off_c, 0, 76, 100
2, 181248, Note_on_c, 0, 77, 110
2, 181312, Note_on_c, 0, 79, 110
2, 181352, Note_off_c, 0, 77, 100
2, 181376, Note_on_c, 0, 80, 110
2, 181432, Note_off_c, 0, 79, 100
2, 181440, Note_on_c, 0, 82, 110
2, 181492, Note_off_c, 0, 80, 100
2, 181504, Note_on_c, 0, 80, 110
2, 181560, Note_off_c, 0, 82, 100
2, 181568, Note_on_c, 0, 79, 110
2, 181620, Note_off_c, 0, 80, 100
2, 181632, Note_on_c, 0, 82, 110
2, 181680, Note_off_c, 0, 79, 100
2, 181696, Note_on_c, 0, 80, 110
2, 181744, Note_off_c, 0, 82, 100
2, 181760, Note_on_c, 0, 79, 110
2, 181812, Note_off_c, 0, 80, 100
2, 181824, Note_on_c, 0, 82, 110
2, 181880, Note_off_c, 0, 79, 100
2, 181888, Note_on_c, 0, 80, 110
2, 181940, Note_off_c, 0, 82, 100
2, 181952, Note_on_c, 0, 79, 110
2, 182008, Note_off_c, 0, 80, 100
2, 182012, Note_off_c, 0, 79, 100
2, 182016, Note_on_c, 0, 80, 110
2, 182080, Note_on_c, 0, 82, 110
2, 182136, Note_off_c, 0, 80, 100
2, 182144, Note_on_c, 0, 80, 110
2, 182200, Note_off_c, 0, 82, 100
2, 182208, Note_on_c, 0, 79, 110
2, 182264, Note_off_c, 0, 80, 100
2, 182272, Note_on_c, 0, 80, 110
2, 182328, Note_off_c, 0, 79, 100
2, 182336, Note_on_c, 0, 79, 110
2, 182384, Note_off_c, 0, 80, 100
2, 182400, Note_on_c, 0, 77, 110
2, 182452, Note_off_c, 0, 79, 100
2, 182464, Note_on_c, 0, 79, 110
2, 182508, Note_off_c, 0, 77, 100
2, 182528, Note_on_c, 0, 77, 110
2, 182580, Note_off_c, 0, 79, 100
2, 182592, Note_on_c, 0, 75, 110
2, 182640, Note_off_c, 0, 77, 100
2, 182656, Note_on_c, 0, 77, 110
2, 182692, Note_off_c, 0, 75, 100
2, 182720, Note_on_c, 0, 75, 110
2, 182772, Note_off_c, 0, 77, 100
2, 182780, Note_off_c, 0, 75, 100
2, 182784, Note_on_c, 0, 74, 110
2, 182848, Note_on_c, 0, 75, 110
2, 182904, Note_off_c, 0, 74, 100
2, 182912, Note_on_c, 0, 74, 110
2, 182956, Note_off_c, 0, 75, 100
2, 182976, Note_on_c, 0, 75, 110
2, 183028, Note_off_c, 0, 74, 100
2, 183040, Note_on_c, 0, 77, 110
2, 183092, Note_off_c, 0, 75, 100
2, 183104, Note_on_c, 0, 75, 110
2, 183144, Note_off_c, 0, 77, 100
2, 183168, Note_on_c, 0, 77, 110
2, 183208, Note_off_c, 0, 75, 100
2, 183232, Note_on_c, 0, 79, 110
2, 183288, Note_off_c, 0, 77, 100
2, 183296, Note_on_c, 0, 77, 110
2, 183344, Note_off_c, 0, 79, 100
2, 183360, Note_on_c, 0, 78, 110
2, 183408, Note_off_c, 0, 77, 100
2, 183424, Note_on_c, 0, 79, 110
2, 183480, Note_off_c, 0, 78, 100
2, 183488, Note_on_c, 0, 78, 110
2, 183532, Note_off_c, 0, 79, 100
2, 183548, Note_off_c, 0, 78, 100
2, 183552, Note_on_c, 0, 79, 110
2, 183616, Note_on_c, 0, 80, 110
2, 183672, Note_off_c, 0, 79, 100
2, 183680, Note_on_c, 0, 79, 110
2, 183732, Note_off_c, 0, 80, 100
2, 183744, Note_on_c, 0, 78, 110
2, 183804, Note_off_c, 0, 79, 100
2, 183808, Note_on_c, 0, 79, 110
2, 183856, Note_off_c, 0, 78, 100
2, 183872, Note_on_c, 0, 78, 110
2, 183924, Note_off_c, 0, 79, 100
2, 183936, Note_on_c, 0, 79, 110
2, 183992, Note_off_c, 0, 78, 100
2, 184000, Note_on_c, 0, 80, 110
2, 184060, Note_off_c, 0, 79, 100
2, 184064, Note_on_c, 0, 79, 110
2, 184108, Note_off_c, 0, 80, 100
2, 184128, Note_on_c, 0, 78, 110
2, 184172, Note_off_c, 0, 79, 100
2, 184192, Note_on_c, 0, 79, 110
2, 184240, Note_off_c, 0, 78, 100
2, 184256, Note_on_c, 0, 78, 110
2, 184304, Note_off_c, 0, 79, 100
2, 184316, Note_off_c, 0, 78, 100
2, 184320, Note_on_c, 0, 79, 110
2, 184384, Note_on_c, 0, 80, 110
2, 184428, Note_off_c, 0, 79, 100
2, 184448, Note_on_c, 0, 79, 110
2, 184500, Note_off_c, 0, 80, 100
2, 184512, Note_on_c, 0, 77, 110
2, 184560, Note_off_c, 0, 79, 100
2, 184576, Note_on_c, 0, 79, 110
2, 184624, Note_off_c, 0, 77, 100
2, 184640, Note_on_c, 0, 77, 110
2, 184696, Note_off_c, 0, 79, 100
2, 184704, Note_on_c, 0, 75, 110
2, 184756, Note_off_c, 0, 77, 100
2, 184768, Note_on_c, 0, 77, 110
2, 184816, Note_off_c, 0, 75, 100
2, 184832, Note_on_c, 0, 75, 110
2, 184880, Note_off_c, 0, 77, 100
2, 184896, Note_on_c, 0, 74, 110
2, 184944, Note_off_c, 0, 75, 100
2, 184960, Note_on_c, 0, 75, 110
2, 185004, Note_off_c, 0, 74, 100
2, 185024, Note_on_c, 0, 74, 110
2, 185072, Note_off_c, 0, 75, 100
2, 185084, Note_off_c, 0, 74, 100
2, 185088, Note_on_c, 0, 72, 110
2, 185276, Note_off_c, 0, 72, 100
2, 185280, Note_on_c, 0, 75, 110
2, 185280, Note_on_c, 0, 63, 110
2, 185468, Note_off_c, 0, 75, 100
2, 185468, Note_off_c, 0, 63, 100
2, 185472, Note_on_c, 0, 84, 110
2, 185472, Note_on_c, 0, 72, 110
2, 185660, Note_off_c, 0, 84, 100
2, 185660, Note_off_c, 0, 72, 100
2, 185664, Note_on_c, 0, 82, 110
2, 185664, Note_on_c, 0, 70, 110
2, 185852, Note_off_c, 0, 82, 100
2, 185852, Note_off_c, 0, 70, 100
2, 185856, Note_on_c, 0, 80, 110
2, 185856, Note_on_c, 0, 68, 110
2, 186044, Note_off_c, 0, 80, 100
2, 186044, Note_off_c, 0, 68, 100
2, 186048, Note_on_c, 0, 75, 110
2, 186048, Note_on_c, 0, 63, 110
2, 186236, Note_off_c, 0, 75, 100
2, 186236, Note_off_c, 0, 63, 100
2, 186240, Note_on_c, 0, 77, 110
2, 186240, Note_on_c, 0, 65, 110
2, 186428, Note_off_c, 0, 77, 100
2, 186428, Note_off_c, 0, 65, 100
2, 186432, Note_on_c, 0, 79, 110
2, 186432, Note_on_c, 0, 67, 110
2, 186620, Note_off_c, 0, 79, 100
2, 186620, Note_off_c, 0, 67, 100
2, 186624, Note_on_c, 0, 80, 110
2, 186624, Note_on_c, 0, 68, 110
2, 186812, Note_off_c, 0, 80, 100
2, 186812, Note_off_c, 0, 68, 100
2, 186816, Note_on_c, 0, 72, 110
2, 186816, Note_on_c, 0, 60, 110
2, 187004, Note_off_c, 0, 72, 100
2, 187004, Note_off_c, 0, 60, 100
2, 187008, Note_on_c, 0, 80, 110
2, 187008, Note_on_c, 0, 68, 110
2, 187196, Note_off_c, 0, 80, 100
2, 187196, Note_off_c, 0, 68, 100
2, 187200, Note_on_c, 0, 79, 110
2, 187200, Note_on_c, 0, 67, 110
2, 187388, Note_off_c, 0, 79, 100
2, 187388, Note_off_c, 0, 67, 100
2, 187392, Note_on_c, 0, 77, 110
2, 187392, Note_on_c, 0, 65, 110
2, 187580, Note_off_c, 0, 77, 100
2, 187580, Note_off_c, 0, 65, 100
2, 187584, Note_on_c, 0, 72, 110
2, 187584, Note_on_c, 0, 60, 110
2, 187772, Note_off_c, 0, 72, 100
2, 187772, Note_off_c, 0, 60, 100
2, 187776, Note_on_c, 0, 74, 110
2, 187776, Note_on_c, 0, 62, 110
2, 187964, Note_off_c, 0, 74, 100
2, 187964, Note_off_c, 0, 62, 100
2, 187968, Note_on_c, 0, 76, 110
2, 187968, Note_on_c, 0, 64, 110
2, 188156, Note_off_c, 0, 76, 100
2, 188156, Note_off_c, 0, 64, 100
2, 188160, Note_on_c, 0, 77, 110
2, 188160, Note_on_c, 0, 65, 110
2, 188348, Note_off_c, 0, 77, 100
2, 188348, Note_off_c, 0, 65, 100
2, 188352, Note_on_c, 0, 89, 110
2, 188352, Note_on_c, 0, 77, 110
2, 188540, Note_off_c, 0, 89, 100
2, 188540, Note_off_c, 0, 77, 100
2, 188544, Note_on_c, 0, 92, 110
2, 188544, Note_on_c, 0, 80, 110
2, 188732, Note_off_c, 0, 92, 100
2, 188732, Note_off_c, 0, 80, 100
2, 188736, Note_on_c, 0, 79, 110
2, 188736, Note_on_c, 0, 91, 110
2, 188924, Note_off_c, 0, 79, 100
2, 188924, Note_off_c, 0, 91, 100
2, 188928, Note_on_c, 0, 89, 110
2, 188928, Note_on_c, 0, 77, 110
2, 189116, Note_off_c, 0, 89, 100
2, 189116, Note_off_c, 0, 77, 100
2, 189120, Note_on_c, 0, 87, 110
2, 189120, Note_on_c, 0, 75, 110
2, 189308, Note_off_c, 0, 87, 100
2, 189308, Note_off_c, 0, 75, 100
2, 189312, Note_on_c, 0, 86, 110
2, 189312, Note_on_c, 0, 74, 110
2, 189500, Note_off_c, 0, 86, 100
2, 189500, Note_off_c, 0, 74, 100
2, 189504, Note_on_c, 0, 72, 110
2, 189504, Note_on_c, 0, 84, 110
2, 189692, Note_off_c, 0, 72, 100
2, 189692, Note_off_c, 0, 84, 100
2, 189696, Note_on_c, 0, 83, 110
2, 189696, Note_on_c, 0, 71, 110
2, 190076, Note_off_c, 0, 83, 100
2, 190076, Note_off_c, 0, 71, 100
2, 190080, Note_on_c, 0, 79, 110
2, 190080, Note_on_c, 0, 67, 110
2, 190268, Note_off_c, 0, 79, 100
2, 190268, Note_off_c, 0, 67, 100
2, 190272, Note_on_c, 0, 79, 110
2, 190272, Note_on_c, 0, 67, 110
2, 190460, Note_off_c, 0, 79, 100
2, 190460, Note_off_c, 0, 67, 100
2, 190464, Note_on_c, 0, 79, 110
2, 190464, Note_on_c, 0, 67, 110
2, 190652, Note_off_c, 0, 79, 100
2, 190652, Note_off_c, 0, 67, 100
2, 190656, Note_on_c, 0, 79, 110
2, 190656, Note_on_c, 0, 67, 110
2, 190844, Note_off_c, 0, 79, 100
2, 190844, Note_off_c, 0, 67, 100
2, 190848, Note_on_c, 0, 79, 110
2, 190848, Note_on_c, 0, 67, 110
2, 191036, Note_off_c, 0, 79, 100
2, 191036, Note_off_c, 0, 67, 100
2, 191040, Note_on_c, 0, 79, 110
2, 191040, Note_on_c, 0, 67, 110
2, 191228, Note_off_c, 0, 79, 100
2, 191228, Note_off_c, 0, 67, 100
2, 191232, Note_on_c, 0, 72, 110
2, 191232, Note_on_c, 0, 84, 110
2, 191420, Note_off_c, 0, 72, 100
2, 191420, Note_off_c, 0, 84, 100
2, 191424, Note_on_c, 0, 72, 110
2, 191488, Note_on_c, 0, 74, 110
2, 191536, Note_off_c, 0, 72, 100
2, 191552, Note_on_c, 0, 75, 110
2, 191592, Note_off_c, 0, 74, 100
2, 191616, Note_on_c, 0, 77, 110
2, 191664, Note_off_c, 0, 75, 100
2, 191680, Note_on_c, 0, 75, 110
2, 191720, Note_off_c, 0, 77, 100
2, 191744, Note_on_c, 0, 77, 110
2, 191784, Note_off_c, 0, 75, 100
2, 191808, Note_on_c, 0, 79, 110
2, 191852, Note_off_c, 0, 77, 100
2, 191872, Note_on_c, 0, 77, 110
2, 191912, Note_off_c, 0, 79, 100
2, 191936, Note_on_c, 0, 79, 110
2, 191980, Note_off_c, 0, 77, 100
2, 192000, Note_on_c, 0, 80, 110
2, 192044, Note_off_c, 0, 79, 100
2, 192064, Note_on_c, 0, 82, 110
2, 192112, Note_off_c, 0, 80, 100
2, 192128, Note_on_c, 0, 80, 110
2, 192180, Note_off_c, 0, 82, 100
2, 192192, Note_on_c, 0, 79, 110
2, 192244, Note_off_c, 0, 80, 100
2, 192256, Note_on_c, 0, 80, 110
2, 192304, Note_off_c, 0, 79, 100
2, 192320, Note_on_c, 0, 79, 110
2, 192364, Note_off_c, 0, 80, 100
2, 192384, Note_on_c, 0, 77, 110
2, 192428, Note_off_c, 0, 79, 100
2, 192448, Note_on_c, 0, 79, 110
2, 192496, Note_off_c, 0, 77, 100
2, 192512, Note_on_c, 0, 77, 110
2, 192568, Note_off_c, 0, 79, 100
2, 192576, Note_on_c, 0, 78, 110
2, 192608, Note_off_c, 0, 77, 100
2, 192640, Note_on_c, 0, 79, 110
2, 192688, Note_off_c, 0, 78, 100
2, 192704, Note_on_c, 0, 78, 110
2, 192748, Note_off_c, 0, 79, 100
2, 192768, Note_on_c, 0, 79, 110
2, 192824, Note_off_c, 0, 78, 100
2, 192832, Note_on_c, 0, 80, 110
2, 192888, Note_off_c, 0, 79, 100
2, 192896, Note_on_c, 0, 79, 110
2, 192944, Note_off_c, 0, 80, 100
2, 192960, Note_on_c, 0, 78, 110
2, 193012, Note_off_c, 0, 79, 100
2, 193024, Note_on_c, 0, 79, 110
2, 193072, Note_off_c, 0, 78, 100
2, 193088, Note_on_c, 0, 78, 110
2, 193136, Note_off_c, 0, 79, 100
2, 193152, Note_on_c, 0, 79, 110
2, 193200, Note_off_c, 0, 78, 100
2, 193216, Note_on_c, 0, 80, 110
2, 193268, Note_off_c, 0, 79, 100
2, 193280, Note_on_c, 0, 79, 110
2, 193316, Note_off_c, 0, 80, 100
2, 193344, Note_on_c, 0, 78, 110
2, 193388, Note_off_c, 0, 79, 100
2, 193408, Note_on_c, 0, 79, 110
2, 193456, Note_off_c, 0, 78, 100
2, 193472, Note_on_c, 0, 78, 110
2, 193520, Note_off_c, 0, 79, 100
2, 193532, Note_off_c, 0, 78, 100
2, 193536, Note_on_c, 0, 79, 110
2, 193600, Note_on_c, 0, 80, 110
2, 193640, Note_off_c, 0, 79, 100
2, 193664, Note_on_c, 0, 79, 110
2, 193712, Note_off_c, 0, 80, 100
2, 193728, Note_on_c, 0, 77, 110
2, 193780, Note_off_c, 0, 79, 100
2, 193792, Note_on_c, 0, 79, 110
2, 193848, Note_off_c, 0, 77, 100
2, 193856, Note_on_c, 0, 77, 110
2, 193912, Note_off_c, 0, 79, 100
2, 193920, Note_on_c, 0, 75, 110
2, 193968, Note_off_c, 0, 77, 100
2, 193984, Note_on_c, 0, 77, 110
2, 194032, Note_off_c, 0, 75, 100
2, 194048, Note_on_c, 0, 75, 110
2, 194104, Note_off_c, 0, 77, 100
2, 194112, Note_on_c, 0, 74, 110
2, 194164, Note_off_c, 0, 75, 100
2, 194176, Note_on_c, 0, 75, 110
2, 194228, Note_off_c, 0, 74, 100
2, 194240, Note_on_c, 0, 74, 110
2, 194300, Note_off_c, 0, 75, 100
2, 194300, Note_off_c, 0, 74, 100
2, 194304, Note_on_c, 0, 72, 110
2, 194368, Note_on_c, 0, 71, 110
2, 194404, Note_off_c, 0, 72, 100
2, 194432, Note_on_c, 0, 72, 110
2, 194484, Note_off_c, 0, 71, 100
2, 194496, Note_on_c, 0, 74, 110
2, 194548, Note_off_c, 0, 72, 100
2, 194560, Note_on_c, 0, 72, 110
2, 194616, Note_off_c, 0, 74, 100
2, 194624, Note_on_c, 0, 74, 110
2, 194680, Note_off_c, 0, 72, 100
2, 194688, Note_on_c, 0, 75, 110
2, 194744, Note_off_c, 0, 74, 100
2, 194752, Note_on_c, 0, 74, 110
2, 194800, Note_off_c, 0, 75, 100
2, 194816, Note_on_c, 0, 75, 110
2, 194872, Note_off_c, 0, 74, 100
2, 194880, Note_on_c, 0, 77, 110
2, 194932, Note_off_c, 0, 75, 100
2, 194944, Note_on_c, 0, 75, 110
2, 194996, Note_off_c, 0, 77, 100
2, 195008, Note_on_c, 0, 77, 110
2, 195060, Note_off_c, 0, 75, 100
2, 195072, Note_on_c, 0, 79, 110
2, 195128, Note_off_c, 0, 77, 100
2, 195136, Note_on_c, 0, 80, 110
2, 195172, Note_off_c, 0, 79, 100
2, 195200, Note_on_c, 0, 79, 110
2, 195252, Note_off_c, 0, 80, 100
2, 195264, Note_on_c, 0, 77, 110
2, 195312, Note_off_c, 0, 79, 100
2, 195328, Note_on_c, 0, 79, 110
2, 195392, Note_off_c, 0, 77, 100
2, 195392, Note_on_c, 0, 77, 110
2, 195448, Note_off_c, 0, 79, 100
2, 195456, Note_on_c, 0, 75, 110
2, 195496, Note_off_c, 0, 77, 100
2, 195520, Note_on_c, 0, 77, 110
2, 195572, Note_off_c, 0, 75, 100
2, 195584, Note_on_c, 0, 75, 110
2, 195616, Note_off_c, 0, 77, 100
2, 195648, Note_on_c, 0, 74, 110
2, 195704, Note_off_c, 0, 75, 100
2, 195712, Note_on_c, 0, 75, 110
2, 195764, Note_off_c, 0, 74, 100
2, 195776, Note_on_c, 0, 74, 110
2, 195836, Note_off_c, 0, 75, 100
2, 195836, Note_off_c, 0, 74, 100
2, 195840, Note_on_c, 0, 72, 110
2, 195904, Note_on_c, 0, 71, 110
2, 195948, Note_off_c, 0, 72, 100
2, 195968, Note_on_c, 0, 72, 110
2, 196012, Note_off_c, 0, 71, 100
2, 196032, Note_on_c, 0, 74, 110
2, 196084, Note_off_c, 0, 72, 100
2, 196096, Note_on_c, 0, 72, 110
2, 196140, Note_off_c, 0, 74, 100
2, 196160, Note_on_c, 0, 74, 110
2, 196216, Note_off_c, 0, 72, 100
2, 196224, Note_on_c, 0, 75, 120
2, 196280, Note_off_c, 0, 74, 100
2, 196288, Note_on_c, 0, 74, 120
2, 196336, Note_off_c, 0, 75, 100
2, 196352, Note_on_c, 0, 75, 120
2, 196400, Note_off_c, 0, 74, 100
2, 196416, Note_on_c, 0, 77, 120
2, 196464, Note_off_c, 0, 75, 100
2, 196480, Note_on_c, 0, 75, 120
2, 196532, Note_off_c, 0, 77, 100
2, 196544, Note_on_c, 0, 77, 120
2, 196596, Note_off_c, 0, 75, 100
2, 196604, Note_off_c, 0, 77, 100
2, 196608, Note_on_c, 0, 79, 120
2, 196672, Note_on_c, 0, 80, 120
2, 196712, Note_off_c, 0, 79, 100
2, 196736, Note_on_c, 0, 79, 120
2, 196784, Note_off_c, 0, 80, 100
2, 196800, Note_on_c, 0, 77, 120
2, 196848, Note_off_c, 0, 79, 100
2, 196864, Note_on_c, 0, 79, 120
2, 196908, Note_off_c, 0, 77, 100
2, 196928, Note_on_c, 0, 77, 120
2, 196980, Note_off_c, 0, 79, 100
2, 196992, Note_on_c, 0, 75, 120
2, 197048, Note_off_c, 0, 77, 100
2, 197056, Note_on_c, 0, 77, 120
2, 197108, Note_off_c, 0, 75, 100
2, 197120, Note_on_c, 0, 75, 120
2, 197168, Note_off_c, 0, 77, 100
2, 197184, Note_on_c, 0, 74, 120
2, 197232, Note_off_c, 0, 75, 100
2, 197248, Note_on_c, 0, 75, 120
2, 197296, Note_off_c, 0, 74, 100
2, 197312, Note_on_c, 0, 74, 120
2, 197352, Note_off_c, 0, 75, 100
2, 197372, Note_off_c, 0, 74, 100
2, 197376, Note_on_c, 0, 72, 120
2, 197440, Note_on_c, 0, 71, 120
2, 197492, Note_off_c, 0, 72, 100
2, 197504, Note_on_c, 0, 72, 120
2, 197548, Note_off_c, 0, 71, 100
2, 197568, Note_on_c, 0, 74, 120
2, 197616, Note_off_c, 0, 72, 100
2, 197632, Note_on_c, 0, 75, 120
2, 197684, Note_off_c, 0, 74, 100
2, 197696, Note_on_c, 0, 77, 120
2, 197736, Note_off_c, 0, 75, 100
2, 197760, Note_on_c, 0, 79, 120
2, 197804, Note_off_c, 0, 77, 100
2, 197824, Note_on_c, 0, 80, 120
2, 197872, Note_off_c, 0, 79, 100
2, 197888, Note_on_c, 0, 79, 120
2, 197944, Note_off_c, 0, 80, 100
2, 197952, Note_on_c, 0, 77, 120
2, 197992, Note_off_c, 0, 79, 100
2, 198016, Note_on_c, 0, 75, 120
2, 198056, Note_off_c, 0, 77, 100
2, 198080, Note_on_c, 0, 74, 120
2, 198124, Note_off_c, 0, 75, 100
2, 198140, Note_off_c, 0, 74, 100
2, 198144, Note_on_c, 0, 72, 120
2, 198208, Note_on_c, 0, 71, 120
2, 198260, Note_off_c, 0, 72, 100
2, 198272, Note_on_c, 0, 72, 120
2, 198316, Note_off_c, 0, 71, 100
2, 198336, Note_on_c, 0, 74, 120
2, 198384, Note_off_c, 0, 72, 100
2, 198400, Note_on_c, 0, 75, 120
2, 198452, Note_off_c, 0, 74, 100
2, 198464, Note_on_c, 0, 77, 120
2, 198520, Note_off_c, 0, 75, 100
2, 198528, Note_on_c, 0, 79, 120
2, 198584, Note_off_c, 0, 77, 100
2, 198592, Note_on_c, 0, 80, 120
2, 198644, Note_off_c, 0, 79, 100
2, 198656, Note_on_c, 0, 79, 120
2, 198700, Note_off_c, 0, 80, 100
2, 198720, Note_on_c, 0, 77, 120
2, 198764, Note_off_c, 0, 79, 100
2, 198784, Note_on_c, 0, 75, 120
2, 198832, Note_off_c, 0, 77, 100
2, 198848, Note_on_c, 0, 74, 120
2, 198896, Note_off_c, 0, 75, 100
2, 198908, Note_off_c, 0, 74, 100
2, 198912, Note_on_c, 0, 72, 120
2, 198912, Note_on_c, 0, 60, 120
2, 199100, Note_off_c, 0, 72, 100
2, 199100, Note_off_c, 0, 60, 100
2, 199296, Note_on_c, 0, 72, 120
2, 199296, Note_on_c, 0, 60, 120
2, 199484, Note_off_c, 0, 72, 100
2, 199484, Note_off_c, 0, 60, 100
2, 199680, Note_on_c, 0, 72, 120
2, 199680, Note_on_c, 0, 60, 120
2, 199868, Note_off_c, 0, 72, 100
2, 199868, Note_off_c, 0, 60, 100
2, 200448, Note_on_c, 0, 72, 80
2, 200448, Note_on_c, 0, 60, 80
2, 200828, Note_off_c, 0, 72, 100
2, 200828, Note_off_c, 0, 60, 100
2, 201216, Note_on_c, 0, 72, 80
2, 201216, Note_on_c, 0, 60, 80
2, 201596, Note_off_c, 0, 72, 100
2, 201596, Note_off_c, 0, 60, 100
2, 201984, Control_c, 0, 64, 127
2, 201984, Note_on_c, 0, 60, 120
2, 202364, Note_off_c, 0, 60, 100
2, 202368, Note_on_c, 0, 75, 120
2, 202368, Note_on_c, 0, 68, 120
2, 202368, Note_on_c, 0, 63, 120
2, 202368, Note_on_c, 0, 72, 120
2, 202748, Note_off_c, 0, 75, 100
2, 202748, Note_off_c, 0, 68, 100
2, 202748, Note_off_c, 0, 63, 100
2, 202748, Note_off_c, 0, 72, 100
2, 202752, Note_on_c, 0, 87, 120
2, 202752, Note_on_c, 0, 84, 120
2, 202752, Note_on_c, 0, 80, 120
2, 202752, Note_on_c, 0, 75, 120
2, 203324, Note_off_c, 0, 87, 100
2, 203324, Note_off_c, 0, 84, 100
2, 203324, Note_off_c, 0, 80, 100
2, 203324, Note_off_c, 0, 75, 100
2, 203328, Note_on_c, 0, 84, 95
2, 203328, Note_on_c, 0, 75, 95
2, 203512, Control_c, 0, 64, 0
2, 203516, Note_off_c, 0, 84, 100
2, 203516, Note_off_c, 0, 75, 100
2, 203520, Note_on_c, 0, 82, 80
2, 203520, Note_on_c, 0, 73, 80
2, 203900, Note_off_c, 0, 82, 100
2, 203900, Note_off_c, 0, 73, 100
2, 203904, Note_on_c, 0, 75, 80
2, 203904, Note_on_c, 0, 73, 80
2, 204284, Note_off_c, 0, 75, 100
2, 204284, Note_off_c, 0, 73, 100
2, 204288, Note_on_c, 0, 80, 80
2, 204288, Note_on_c, 0, 72, 80
2, 204668, Note_off_c, 0, 80, 100
2, 204668, Note_off_c, 0, 72, 100
2, 205056, Control_c, 0, 64, 127
2, 205056, Note_on_c, 0, 53, 120
2, 205436, Note_off_c, 0, 53, 100
2, 205440, Note_on_c, 0, 72, 120
2, 205440, Note_on_c, 0, 68, 120
2, 205440, Note_on_c, 0, 65, 120
2, 205440, Note_on_c, 0, 60, 120
2, 205820, Note_off_c, 0, 72, 100
2, 205820, Note_off_c, 0, 68, 100
2, 205820, Note_off_c, 0, 65, 100
2, 205820, Note_off_c, 0, 60, 100
2, 205824, Note_on_c, 0, 84, 120
2, 205824, Note_on_c, 0, 80, 120
2, 205824, Note_on_c, 0, 77, 120
2, 205824, Note_on_c, 0, 72, 120
2, 206396, Note_off_c, 0, 84, 100
2, 206396, Note_off_c, 0, 80, 100
2, 206396, Note_off_c, 0, 77, 100
2, 206396, Note_off_c, 0, 72, 100
2, 206400, Note_on_c, 0, 80, 95
2, 206400, Note_on_c, 0, 72, 95
2, 206584, Control_c, 0, 64, 0
2, 206588, Note_off_c, 0, 80, 100
2, 206588, Note_off_c, 0, 72, 100
2, 206592, Note_on_c, 0, 70, 80
2, 206592, Note_on_c, 0, 79, 80
2, 206972, Note_off_c, 0, 70, 100
2, 206972, Note_off_c, 0, 79, 100
2, 206976, Note_on_c, 0, 72, 80
2, 206976, Note_on_c, 0, 70, 80
2, 207356, Note_off_c, 0, 72, 100
2, 207356, Note_off_c, 0, 70, 100
2, 207360, Note_on_c, 0, 77, 80
2, 207360, Note_on_c, 0, 68, 80
2, 207740, Note_off_c, 0, 77, 100
2, 207740, Note_off_c, 0, 68, 100
2, 208128, Control_c, 0, 64, 127
2, 208128, Note_on_c, 0, 61, 120
2, 208508, Note_off_c, 0, 61, 100
2, 208512, Note_on_c, 0, 80, 120
2, 208512, Note_on_c, 0, 77, 120
2, 208512, Note_on_c, 0, 73, 120
2, 208512, Note_on_c, 0, 68, 120
2, 208892, Note_off_c, 0, 80, 100
2, 208892, Note_off_c, 0, 77, 100
2, 208892, Note_off_c, 0, 73, 100
2, 208892, Note_off_c, 0, 68, 100
2, 208896, Note_on_c, 0, 89, 120
2, 208896, Note_on_c, 0, 85, 120
2, 208896, Note_on_c, 0, 92, 120
2, 208896, Note_on_c, 0, 80, 120
2, 209468, Note_off_c, 0, 89, 100
2, 209468, Note_off_c, 0, 85, 100
2, 209468, Note_off_c, 0, 92, 100
2, 209468, Note_off_c, 0, 80, 100
2, 209472, Note_on_c, 0, 80, 100
2, 209472, Note_on_c, 0, 89, 100
2, 209656, Control_c, 0, 64, 0
2, 209660, Note_off_c, 0, 80, 100
2, 209660, Note_off_c, 0, 89, 100
2, 209664, Note_on_c, 0, 87, 90
2, 209664, Note_on_c, 0, 78, 90
2, 210044, Note_off_c, 0, 87, 100
2, 210044, Note_off_c, 0, 78, 100
2, 210048, Note_on_c, 0, 80, 88
2, 210048, Note_on_c, 0, 78, 88
2, 210428, Note_off_c, 0, 80, 100
2, 210428, Note_off_c, 0, 78, 100
2, 210432, Note_on_c, 0, 85, 85
2, 210432, Note_on_c, 0, 77, 85
2, 211004, Note_off_c, 0, 85, 100
2, 211004, Note_off_c, 0, 77, 100
2, 211008, Note_on_c, 0, 77, 81
2, 211008, Note_on_c, 0, 68, 81
2, 211196, Note_off_c, 0, 77, 100
2, 211196, Note_off_c, 0, 68, 100
2, 211200, Note_on_c, 0, 66, 80
2, 211200, Note_on_c, 0, 75, 80
2, 211580, Note_off_c, 0, 66, 100
2, 211584, Note_on_c, 0, 66, 77
2, 211584, Note_on_c, 0, 68, 77
2, 211964, Note_off_c, 0, 75, 100
2, 211964, Note_off_c, 0, 66, 100
2, 211964, Note_off_c, 0, 68, 100
2, 211968, Note_on_c, 0, 73, 75
2, 211968, Note_on_c, 0, 65, 75
2, 212540, Note_off_c, 0, 73, 100
2, 212540, Note_off_c, 0, 65, 100
2, 212544, Note_on_c, 0, 65, 71
2, 212544, Note_on_c, 0, 56, 71
2, 212732, Note_off_c, 0, 65, 100
2, 212732, Note_off_c, 0, 56, 100
2, 212736, Control_c, 0, 64, 127
2, 212736, Note_on_c, 0, 54, 70
2, 212736, Note_on_c, 0, 63, 70
2, 213116, Note_off_c, 0, 54, 100
2, 213120, Note_on_c, 0, 56, 70
2, 213120, Note_on_c, 0, 54, 70
2, 213500, Note_off_c, 0, 63, 100
2, 213500, Note_off_c, 0, 56, 100
2, 213500, Note_off_c, 0, 54, 100
2, 213504, Note_on_c, 0, 61, 70
2, 213504, Note_on_c, 0, 53, 70
2, 213884, Note_off_c, 0, 53, 100
2, 213888, Note_on_c, 0, 56, 70
2, 213888, Note_on_c, 0, 53, 70
2, 214268, Note_off_c, 0, 61, 100
2, 214268, Note_off_c, 0, 56, 100
2, 214268, Note_off_c, 0, 53, 100
2, 214272, Note_on_c, 0, 54, 70
2, 214272, Note_on_c, 0, 63, 70
2, 214652, Note_off_c, 0, 54, 100
2, 214656, Note_on_c, 0, 56, 70
2, 214656, Note_on_c, 0, 54, 70
2, 215036, Note_off_c, 0, 63, 100
2, 215036, Note_off_c, 0, 56, 100
2, 215036, Note_off_c, 0, 54, 100
2, 215040, Note_on_c, 0, 54, 70
2, 215040, Note_on_c, 0, 63, 70
2, 215420, Note_off_c, 0, 54, 100
2, 215424, Note_on_c, 0, 56, 70
2, 215424, Note_on_c, 0, 54, 70
2, 215800, Control_c, 0, 64, 0
2, 215804, Note_off_c, 0, 63, 100
2, 215804, Note_off_c, 0, 56, 100
2, 215804, Note_off_c, 0, 54, 100
2, 215808, Note_on_c, 0, 61, 70
2, 215808, Note_on_c, 0, 53, 70
2, 215996, Note_off_c, 0, 61, 100
2, 215996, Note_off_c, 0, 53, 100
2, 216000, Note_on_c, 0, 65, 70
2, 216000, Note_on_c, 0, 61, 70
2, 216000, Note_on_c, 0, 56, 70
2, 216380, Note_off_c, 0, 65, 100
2, 216380, Note_off_c, 0, 61, 100
2, 216380, Note_off_c, 0, 56, 100
2, 216384, Note_on_c, 0, 65, 70
2, 216384, Note_on_c, 0, 61, 70
2, 216384, Note_on_c, 0, 56, 70
2, 216764, Note_off_c, 0, 56, 100
2, 216764, Note_off_c, 0, 61, 100
2, 216764, Note_off_c, 0, 65, 100
2, 216768, Note_on_c, 0, 65, 70
2, 216768, Note_on_c, 0, 61, 70
2, 216768, Note_on_c, 0, 56, 70
2, 217148, Note_off_c, 0, 65, 100
2, 217148, Note_off_c, 0, 61, 100
2, 217148, Note_off_c, 0, 56, 100
2, 217152, Note_on_c, 0, 61, 70
2, 217152, Note_on_c, 0, 56, 70
2, 217152, Note_on_c, 0, 65, 70
2, 217340, Note_off_c, 0, 65, 100
2, 217344, Note_on_c, 0, 63, 70
2, 217532, Note_off_c, 0, 56, 100
2, 217532, Note_off_c, 0, 61, 100
2, 217532, Note_off_c, 0, 63, 100
2, 217536, Note_on_c, 0, 63, 74
2, 217536, Note_on_c, 0, 60, 74
2, 217536, Note_on_c, 0, 56, 74
2, 217916, Note_off_c, 0, 63, 100
2, 217916, Note_off_c, 0, 60, 100
2, 217916, Note_off_c, 0, 56, 100
2, 217920, Note_on_c, 0, 63, 82
2, 217920, Note_on_c, 0, 56, 82
2, 217920, Note_on_c, 0, 60, 82
2, 218108, Note_off_c, 0, 60, 100
2, 218112, Note_on_c, 0, 59, 87
2, 218300, Note_off_c, 0, 56, 100
2, 218300, Note_off_c, 0, 63, 100
2, 218300, Note_off_c, 0, 59, 100
2, 218304, Note_on_c, 0, 63, 91
2, 218304, Note_on_c, 0, 59, 91
2, 218304, Note_on_c, 0, 56, 91
2, 218684, Note_off_c, 0, 63, 100
2, 218684, Note_off_c, 0, 59, 100
2, 218684, Note_off_c, 0, 56, 100
2, 218688, Note_on_c, 0, 65, 99
2, 218688, Note_on_c, 0, 62, 99
2, 218688, Note_on_c, 0, 59, 99
2, 218688, Note_on_c, 0, 56, 99
2, 218876, Note_off_c, 0, 65, 100
2, 218876, Note_off_c, 0, 62, 100
2, 218876, Note_off_c, 0, 59, 100
2, 218876, Note_off_c, 0, 56, 100
2, 218880, Note_on_c, 0, 66, 100
2, 218880, Note_on_c, 0, 63, 100
2, 218880, Note_on_c, 0, 58, 100
2, 218880, Note_on_c, 0, 54, 100
2, 219068, Note_off_c, 0, 66, 100
2, 219068, Note_off_c, 0, 63, 100
2, 219068, Note_off_c, 0, 58, 100
2, 219068, Note_off_c, 0, 54, 100
2, 219072, Note_on_c, 0, 66, 80
2, 219072, Note_on_c, 0, 63, 80
2, 219072, Note_on_c, 0, 58, 80
2, 219452, Note_off_c, 0, 66, 100
2, 219452, Note_off_c, 0, 63, 100
2, 219452, Note_off_c, 0, 58, 100
2, 219456, Note_on_c, 0, 66, 80
2, 219456, Note_on_c, 0, 63, 80
2, 219456, Note_on_c, 0, 58, 80
2, 219836, Note_off_c, 0, 58, 100
2, 219836, Note_off_c, 0, 63, 100
2, 219836, Note_off_c, 0, 66, 100
2, 219840, Note_on_c, 0, 66, 80
2, 219840, Note_on_c, 0, 63, 80
2, 219840, Note_on_c, 0, 58, 80
2, 220220, Note_off_c, 0, 66, 100
2, 220220, Note_off_c, 0, 63, 100
2, 220220, Note_off_c, 0, 58, 100
2, 220224, Note_on_c, 0, 63, 80
2, 220224, Note_on_c, 0, 58, 80
2, 220224, Note_on_c, 0, 66, 80
2, 220412, Note_off_c, 0, 66, 100
2, 220416, Note_on_c, 0, 65, 80
2, 220604, Note_off_c, 0, 58, 100
2, 220604, Note_off_c, 0, 63, 100
2, 220604, Note_off_c, 0, 65, 100
2, 220608, Note_on_c, 0, 65, 82
2, 220608, Note_on_c, 0, 62, 82
2, 220608, Note_on_c, 0, 58, 82
2, 220988, Note_off_c, 0, 65, 100
2, 220988, Note_off_c, 0, 62, 100
2, 220988, Note_off_c, 0, 58, 100
2, 220992, Note_on_c, 0, 65, 88
2, 220992, Note_on_c, 0, 58, 88
2, 220992, Note_on_c, 0, 62, 88
2, 221180, Note_off_c, 0, 62, 100
2, 221184, Note_on_c, 0, 61, 91
2, 221372, Note_off_c, 0, 58, 100
2, 221372, Note_off_c, 0, 65, 100
2, 221372, Note_off_c, 0, 61, 100
2, 221376, Note_on_c, 0, 65, 94
2, 221376, Note_on_c, 0, 61, 94
2, 221376, Note_on_c, 0, 58, 94
2, 221756, Note_off_c, 0, 65, 100
2, 221756, Note_off_c, 0, 61, 100
2, 221756, Note_off_c, 0, 58, 100
2, 221760, Note_on_c, 0, 67, 99
2, 221760, Note_on_c, 0, 64, 99
2, 221760, Note_on_c, 0, 61, 99
2, 221760, Note_on_c, 0, 58, 99
2, 221948, Note_off_c, 0, 67, 100
2, 221948, Note_off_c, 0, 64, 100
2, 221948, Note_off_c, 0, 61, 100
2, 221948, Note_off_c, 0, 58, 100
2, 221952, Note_on_c, 0, 68, 100
2, 221952, Note_on_c, 0, 65, 100
2, 221952, Note_on_c, 0, 60, 100
2, 221952, Note_on_c, 0, 56, 100
2, 222140, Note_off_c, 0, 68, 100
2, 222140, Note_off_c, 0, 65, 100
2, 222140, Note_off_c, 0, 60, 100
2, 222140, Note_off_c, 0, 56, 100
2, 222144, Note_on_c, 0, 68, 80
2, 222144, Note_on_c, 0, 65, 80
2, 222144, Note_on_c, 0, 60, 80
2, 222524, Note_off_c, 0, 68, 100
2, 222524, Note_off_c, 0, 65, 100
2, 222524, Note_off_c, 0, 60, 100
2, 222528, Note_on_c, 0, 68, 80
2, 222528, Note_on_c, 0, 65, 80
2, 222528, Note_on_c, 0, 60, 80
2, 222908, Note_off_c, 0, 60, 100
2, 222908, Note_off_c, 0, 65, 100
2, 222908, Note_off_c, 0, 68, 100
2, 222912, Note_on_c, 0, 68, 80
2, 222912, Note_on_c, 0, 65, 80
2, 222912, Note_on_c, 0, 60, 80
2, 223292, Note_off_c, 0, 68, 100
2, 223292, Note_off_c, 0, 65, 100
2, 223292, Note_off_c, 0, 60, 100
2, 223296, Note_on_c, 0, 65, 80
2, 223296, Note_on_c, 0, 60, 80
2, 223296, Note_on_c, 0, 68, 80
2, 223484, Note_off_c, 0, 68, 100
2, 223488, Note_on_c, 0, 67, 80
2, 223676, Note_off_c, 0, 60, 100
2, 223676, Note_off_c, 0, 65, 100
2, 223676, Note_off_c, 0, 67, 100
2, 223680, Note_on_c, 0, 67, 80
2, 223680, Note_on_c, 0, 64, 80
2, 223680, Note_on_c, 0, 60, 80
2, 224060, Note_off_c, 0, 67, 100
2, 224060, Note_off_c, 0, 64, 100
2, 224060, Note_off_c, 0, 60, 100
2, 224064, Note_on_c, 0, 60, 80
2, 224064, Note_on_c, 0, 67, 80
2, 224064, Note_on_c, 0, 64, 80
2, 224252, Note_off_c, 0, 67, 100
2, 224252, Note_off_c, 0, 64, 100
2, 224256, Note_on_c, 0, 68, 80
2, 224256, Note_on_c, 0, 65, 80
2, 224444, Note_off_c, 0, 60, 100
2, 224444, Note_off_c, 0, 68, 100
2, 224444, Note_off_c, 0, 65, 100
2, 224448, Note_on_c, 0, 65, 80
2, 224448, Note_on_c, 0, 60, 80
2, 224448, Note_on_c, 0, 68, 80
2, 224828, Note_off_c, 0, 65, 100
2, 224828, Note_off_c, 0, 60, 100
2, 224828, Note_off_c, 0, 68, 100
2, 224832, Note_on_c, 0, 68, 80
2, 224832, Note_on_c, 0, 65, 80
2, 224832, Note_on_c, 0, 60, 80
2, 225020, Note_off_c, 0, 68, 100
2, 225020, Note_off_c, 0, 65, 100
2, 225020, Note_off_c, 0, 60, 100
2, 225024, Control_c, 0, 64, 127
2, 225120, Note_on_c, 0, 60, 70
2, 225216, Note_on_c, 0, 64, 70
2, 225312, Note_on_c, 0, 67, 70
2, 225404, Note_off_c, 0, 60, 100
2, 225408, Note_on_c, 0, 71, 70
2, 225500, Note_off_c, 0, 64, 100
2, 225504, Note_on_c, 0, 72, 70
2, 225596, Note_off_c, 0, 67, 100
2, 225600, Note_on_c, 0, 76, 70
2, 225692, Note_off_c, 0, 71, 100
2, 225696, Note_on_c, 0, 79, 70
2, 225788, Note_off_c, 0, 72, 100
2, 225792, Note_on_c, 0, 83, 70
2, 225884, Note_off_c, 0, 76, 100
2, 225888, Note_on_c, 0, 84, 70
2, 225980, Note_off_c, 0, 79, 100
2, 225984, Note_on_c, 0, 79, 70
2, 226076, Note_off_c, 0, 83, 100
2, 226080, Note_on_c, 0, 76, 70
2, 226172, Note_off_c, 0, 84, 100
2, 226176, Note_on_c, 0, 72, 70
2, 226268, Note_off_c, 0, 79, 100
2, 226272, Note_on_c, 0, 67, 70
2, 226364, Note_off_c, 0, 76, 100
2, 226368, Note_on_c, 0, 64, 70
2, 226460, Note_off_c, 0, 72, 100
2, 226464, Note_on_c, 0, 60, 70
2, 226552, Control_c, 0, 64, 0
2, 226556, Note_off_c, 0, 67, 100
2, 226556, Note_off_c, 0, 64, 100
2, 226556, Note_off_c, 0, 60, 100
2, 226560, Control_c, 0, 64, 127
2, 226656, Note_on_c, 0, 61, 70
2, 226752, Note_on_c, 0, 65, 70
2, 226848, Note_on_c, 0, 68, 70
2, 226940, Note_off_c, 0, 61, 100
2, 226944, Note_on_c, 0, 72, 70
2, 227036, Note_off_c, 0, 65, 100
2, 227040, Note_on_c, 0, 73, 70
2, 227132, Note_off_c, 0, 68, 100
2, 227136, Note_on_c, 0, 77, 70
2, 227228, Note_off_c, 0, 72, 100
2, 227232, Note_on_c, 0, 80, 70
2, 227324, Note_off_c, 0, 73, 100
2, 227328, Note_on_c, 0, 84, 70
2, 227420, Note_off_c, 0, 77, 100
2, 227424, Note_on_c, 0, 85, 70
2, 227516, Note_off_c, 0, 80, 100
2, 227520, Note_on_c, 0, 80, 70
2, 227612, Note_off_c, 0, 84, 100
2, 227616, Note_on_c, 0, 77, 70
2, 227708, Note_off_c, 0, 85, 100
2, 227712, Note_on_c, 0, 73, 70
2, 227804, Note_off_c, 0, 80, 100
2, 227808, Note_on_c, 0, 68, 70
2, 227900, Note_off_c, 0, 77, 100
2, 227904, Note_on_c, 0, 65, 70
2, 227996, Note_off_c, 0, 73, 100
2, 228000, Note_on_c, 0, 61, 70
2, 228088, Control_c, 0, 64, 0
2, 228092, Note_off_c, 0, 68, 100
2, 228092, Note_off_c, 0, 65, 100
2, 228092, Note_off_c, 0, 61, 100
2, 228096, Control_c, 0, 64, 127
2, 228192, Note_on_c, 0, 64, 70
2, 228288, Note_on_c, 0, 67, 70
2, 228384, Note_on_c, 0, 70, 70
2, 228476, Note_off_c, 0, 64, 100
2, 228480, Note_on_c, 0, 75, 70
2, 228572, Note_off_c, 0, 67, 100
2, 228576, Note_on_c, 0, 76, 70
2, 228668, Note_off_c, 0, 70, 100
2, 228672, Note_on_c, 0, 79, 70
2, 228764, Note_off_c, 0, 75, 100
2, 228768, Note_on_c, 0, 82, 70
2, 228860, Note_off_c, 0, 76, 100
2, 228864, Note_on_c, 0, 87, 70
2, 228956, Note_off_c, 0, 79, 100
2, 228960, Note_on_c, 0, 88, 70
2, 229052, Note_off_c, 0, 82, 100
2, 229056, Note_on_c, 0, 82, 70
2, 229148, Note_off_c, 0, 87, 100
2, 229152, Note_on_c, 0, 79, 70
2, 229244, Note_off_c, 0, 88, 100
2, 229248, Note_on_c, 0, 76, 70
2, 229340, Note_off_c, 0, 82, 100
2, 229344, Note_on_c, 0, 70, 70
2, 229436, Note_off_c, 0, 79, 100
2, 229440, Note_on_c, 0, 67, 70
2, 229532, Note_off_c, 0, 76, 100
2, 229536, Note_on_c, 0, 64, 70
2, 229624, Control_c, 0, 64, 0
2, 229628, Note_off_c, 0, 70, 100
2, 229628, Note_off_c, 0, 67, 100
2, 229628, Note_off_c, 0, 64, 100
2, 229632, Control_c, 0, 64, 127
2, 229728, Note_on_c, 0, 65, 70
2, 229824, Note_on_c, 0, 69, 70
2, 229920, Note_on_c, 0, 72, 70
2, 230012, Note_off_c, 0, 65, 100
2, 230016, Note_on_c, 0, 76, 70
2, 230108, Note_off_c, 0, 69, 100
2, 230112, Note_on_c, 0, 77, 70
2, 230204, Note_off_c, 0, 72, 100
2, 230208, Note_on_c, 0, 81, 70
2, 230300, Note_off_c, 0, 76, 100
2, 230304, Note_on_c, 0, 84, 70
2, 230396, Note_off_c, 0, 77, 100
2, 230400, Note_on_c, 0, 88, 70
2, 230492, Note_off_c, 0, 81, 100
2, 230496, Note_on_c, 0, 89, 70
2, 230588, Note_off_c, 0, 84, 100
2, 230592, Note_on_c, 0, 84, 70
2, 230684, Note_off_c, 0, 88, 100
2, 230688, Note_on_c, 0, 81, 70
2, 230780, Note_off_c, 0, 89, 100
2, 230784, Note_on_c, 0, 77, 70
2, 230876, Note_off_c, 0, 84, 100
2, 230880, Note_on_c, 0, 72, 70
2, 230972, Note_off_c, 0, 81, 100
2, 230976, Note_on_c, 0, 69, 70
2, 231068, Note_off_c, 0, 77, 100
2, 231072, Note_on_c, 0, 65, 70
2, 231160, Control_c, 0, 64, 0
2, 231164, Note_off_c, 0, 72, 100
2, 231164, Note_off_c, 0, 69, 100
2, 231164, Note_off_c, 0, 65, 100
2, 231168, Control_c, 0, 64, 127
2, 231264, Note_on_c, 0, 66, 70
2, 231360, Note_on_c, 0, 70, 70
2, 231456, Note_on_c, 0, 73, 70
2, 231548, Note_off_c, 0, 66, 100
2, 231552, Note_on_c, 0, 77, 70
2, 231644, Note_off_c, 0, 70, 100
2, 231648, Note_on_c, 0, 78, 70
2, 231740, Note_off_c, 0, 73, 100
2, 231744, Note_on_c, 0, 82, 70
2, 231836, Note_off_c, 0, 77, 100
2, 231840, Note_on_c, 0, 85, 70
2, 231932, Note_off_c, 0, 78, 100
2, 231936, Note_on_c, 0, 89, 70
2, 232028, Note_off_c, 0, 82, 100
2, 232032, Note_on_c, 0, 90, 70
2, 232124, Note_off_c, 0, 85, 100
2, 232128, Note_on_c, 0, 85, 70
2, 232220, Note_off_c, 0, 89, 100
2, 232224, Note_on_c, 0, 82, 70
2, 232316, Note_off_c, 0, 90, 100
2, 232320, Note_on_c, 0, 78, 70
2, 232412, Note_off_c, 0, 85, 100
2, 232416, Note_on_c, 0, 73, 70
2, 232508, Note_off_c, 0, 82, 100
2, 232512, Note_on_c, 0, 70, 70
2, 232604, Note_off_c, 0, 78, 100
2, 232608, Note_on_c, 0, 66, 70
2, 232696, Control_c, 0, 64, 0
2, 232700, Note_off_c, 0, 73, 100
2, 232700, Note_off_c, 0, 70, 100
2, 232700, Note_off_c, 0, 66, 100
2, 232704, Control_c, 0, 64, 127
2, 232800, Note_on_c, 0, 69, 70
2, 232896, Note_on_c, 0, 72, 70
2, 232992, Note_on_c, 0, 75, 70
2, 233084, Note_off_c, 0, 69, 100
2, 233088, Note_on_c, 0, 80, 70
2, 233180, Note_off_c, 0, 72, 100
2, 233184, Note_on_c, 0, 81, 70
2, 233276, Note_off_c, 0, 75, 100
2, 233280, Note_on_c, 0, 84, 70
2, 233372, Note_off_c, 0, 80, 100
2, 233376, Note_on_c, 0, 87, 70
2, 233468, Note_off_c, 0, 81, 100
2, 233472, Note_on_c, 0, 92, 70
2, 233564, Note_off_c, 0, 84, 100
2, 233568, Note_on_c, 0, 93, 70
2, 233660, Note_off_c, 0, 87, 100
2, 233664, Note_on_c, 0, 87, 70
2, 233756, Note_off_c, 0, 92, 100
2, 233760, Note_on_c, 0, 84, 70
2, 233852, Note_off_c, 0, 93, 100
2, 233856, Note_on_c, 0, 81, 70
2, 233948, Note_off_c, 0, 87, 100
2, 233952, Note_on_c, 0, 75, 70
2, 234044, Note_off_c, 0, 84, 100
2, 234048, Note_on_c, 0, 72, 70
2, 234140, Note_off_c, 0, 81, 100
2, 234144, Note_on_c, 0, 69, 70
2, 234232, Control_c, 0, 64, 0
2, 234236, Note_off_c, 0, 75, 100
2, 234236, Note_off_c, 0, 72, 100
2, 234236, Note_off_c, 0, 69, 100
2, 234240, Control_c, 0, 64, 127
2, 234336, Note_on_c, 0, 70, 70
2, 234432, Note_on_c, 0, 74, 70
2, 234528, Note_on_c, 0, 77, 70
2, 234620, Note_off_c, 0, 70, 100
2, 234624, Note_on_c, 0, 81, 70
2, 234716, Note_off_c, 0, 74, 100
2, 234720, Note_on_c, 0, 82, 70
2, 234812, Note_off_c, 0, 77, 100
2, 234816, Note_on_c, 0, 77, 70
2, 234908, Note_off_c, 0, 81, 100
2, 234912, Note_on_c, 0, 74, 70
2, 235004, Note_off_c, 0, 82, 100
2, 235008, Note_on_c, 0, 70, 70
2, 235100, Note_off_c, 0, 74, 100
2, 235100, Note_off_c, 0, 77, 100
2, 235104, Note_on_c, 0, 74, 70
2, 235200, Note_on_c, 0, 77, 70
2, 235292, Note_off_c, 0, 70, 100
2, 235296, Note_on_c, 0, 81, 70
2, 235388, Note_off_c, 0, 74, 100
2, 235392, Note_on_c, 0, 82, 70
2, 235484, Note_off_c, 0, 77, 100
2, 235488, Note_on_c, 0, 77, 70
2, 235580, Note_off_c, 0, 81, 100
2, 235584, Note_on_c, 0, 74, 70
2, 235676, Note_off_c, 0, 82, 100
2, 235680, Note_on_c, 0, 70, 70
2, 235768, Control_c, 0, 64, 0
2, 235772, Note_off_c, 0, 77, 100
2, 235772, Note_off_c, 0, 74, 100
2, 235772, Note_off_c, 0, 70, 100
2, 235776, Control_c, 0, 64, 127
2, 235872, Note_on_c, 0, 71, 70
2, 235968, Note_on_c, 0, 75, 70
2, 236064, Note_on_c, 0, 78, 70
2, 236156, Note_off_c, 0, 71, 100
2, 236160, Note_on_c, 0, 82, 70
2, 236252, Note_off_c, 0, 75, 100
2, 236256, Note_on_c, 0, 83, 70
2, 236348, Note_off_c, 0, 78, 100
2, 236352, Note_on_c, 0, 78, 70
2, 236444, Note_off_c, 0, 82, 100
2, 236448, Note_on_c, 0, 75, 70
2, 236540, Note_off_c, 0, 83, 100
2, 236544, Note_on_c, 0, 71, 70
2, 236636, Note_off_c, 0, 75, 100
2, 236636, Note_off_c, 0, 78, 100
2, 236640, Note_on_c, 0, 75, 70
2, 236736, Note_on_c, 0, 78, 70
2, 236828, Note_off_c, 0, 71, 100
2, 236832, Note_on_c, 0, 82, 70
2, 236924, Note_off_c, 0, 75, 100
2, 236928, Note_on_c, 0, 83, 70
2, 237020, Note_off_c, 0, 78, 100
2, 237024, Note_on_c, 0, 78, 70
2, 237116, Note_off_c, 0, 82, 100
2, 237120, Note_on_c, 0, 75, 70
2, 237212, Note_off_c, 0, 83, 100
2, 237216, Note_on_c, 0, 71, 70
2, 237304, Control_c, 0, 64, 0
2, 237308, Note_off_c, 0, 78, 100
2, 237308, Note_off_c, 0, 75, 100
2, 237308, Note_off_c, 0, 71, 100
2, 237312, Control_c, 0, 64, 127
2, 237408, Note_on_c, 0, 74, 70
2, 237504, Note_on_c, 0, 77, 70
2, 237600, Note_on_c, 0, 80, 70
2, 237692, Note_off_c, 0, 74, 100
2, 237696, Note_on_c, 0, 85, 70
2, 237788, Note_off_c, 0, 77, 100
2, 237792, Note_on_c, 0, 86, 70
2, 237884, Note_off_c, 0, 80, 100
2, 237888, Note_on_c, 0, 80, 70
2, 237980, Note_off_c, 0, 85, 100
2, 237984, Note_on_c, 0, 77, 70
2, 238076, Note_off_c, 0, 86, 100
2, 238080, Note_on_c, 0, 74, 70
2, 238172, Note_off_c, 0, 77, 100
2, 238172, Note_off_c, 0, 80, 100
2, 238176, Note_on_c, 0, 77, 70
2, 238272, Note_on_c, 0, 80, 70
2, 238364, Note_off_c, 0, 74, 100
2, 238368, Note_on_c, 0, 85, 70
2, 238460, Note_off_c, 0, 77, 100
2, 238464, Note_on_c, 0, 86, 70
2, 238556, Note_off_c, 0, 80, 100
2, 238560, Note_on_c, 0, 80, 70
2, 238652, Note_off_c, 0, 85, 100
2, 238656, Note_on_c, 0, 77, 70
2, 238748, Note_off_c, 0, 86, 100
2, 238752, Note_on_c, 0, 74, 70
2, 238840, Control_c, 0, 64, 0
2, 238844, Note_off_c, 0, 80, 100
2, 238844, Note_off_c, 0, 77, 100
2, 238844, Note_off_c, 0, 74, 100
2, 238848, Control_c, 0, 64, 127
2, 238944, Note_on_c, 0, 78, 70
2, 239040, Note_on_c, 0, 77, 70
2, 239132, Note_off_c, 0, 78, 100
2, 239136, Note_on_c, 0, 78, 70
2, 239324, Note_off_c, 0, 77, 100
2, 239328, Note_on_c, 0, 82, 70
2, 239420, Note_off_c, 0, 78, 100
2, 239424, Note_on_c, 0, 81, 70
2, 239516, Note_off_c, 0, 82, 100
2, 239520, Note_on_c, 0, 82, 70
2, 239708, Note_off_c, 0, 81, 100
2, 239712, Note_on_c, 0, 87, 70
2, 239804, Note_off_c, 0, 82, 100
2, 239808, Note_on_c, 0, 86, 70
2, 239900, Note_off_c, 0, 87, 100
2, 239904, Note_on_c, 0, 87, 70
2, 239996, Note_off_c, 0, 86, 100
2, 240000, Note_on_c, 0, 90, 70
2, 240092, Note_off_c, 0, 87, 100
2, 240096, Note_on_c, 0, 87, 70
2, 240188, Note_off_c, 0, 90, 100
2, 240192, Note_on_c, 0, 90, 70
2, 240284, Note_off_c, 0, 87, 100
2, 240288, Note_on_c, 0, 87, 70
2, 240376, Control_c, 0, 64, 0
2, 240380, Note_off_c, 0, 90, 100
2, 240384, Control_c, 0, 64, 127
2, 240384, Note_on_c, 0, 90, 70
2, 240476, Note_off_c, 0, 87, 100
2, 240480, Note_on_c, 0, 89, 70
2, 240576, Note_on_c, 0, 87, 70
2, 240668, Note_off_c, 0, 90, 100
2, 240672, Note_on_c, 0, 85, 70
2, 240764, Note_off_c, 0, 89, 100
2, 240768, Note_on_c, 0, 84, 70
2, 240860, Note_off_c, 0, 87, 100
2, 240860, Note_off_c, 0, 85, 100
2, 240864, Note_on_c, 0, 85, 70
2, 240960, Note_on_c, 0, 87, 70
2, 241052, Note_off_c, 0, 84, 100
2, 241056, Note_on_c, 0, 89, 70
2, 241148, Note_off_c, 0, 85, 100
2, 241152, Note_on_c, 0, 90, 70
2, 241244, Note_off_c, 0, 87, 100
2, 241244, Note_off_c, 0, 89, 100
2, 241248, Note_on_c, 0, 89, 70
2, 241344, Note_on_c, 0, 87, 70
2, 241436, Note_off_c, 0, 90, 100
2, 241440, Note_on_c, 0, 85, 70
2, 241532, Note_off_c, 0, 89, 100
2, 241536, Note_on_c, 0, 84, 70
2, 241628, Note_off_c, 0, 87, 100
2, 241632, Note_on_c, 0, 82, 70
2, 241724, Note_off_c, 0, 85, 100
2, 241728, Note_on_c, 0, 80, 70
2, 241820, Note_off_c, 0, 84, 100
2, 241824, Note_on_c, 0, 78, 70
2, 241912, Control_c, 0, 64, 0
2, 241916, Note_off_c, 0, 82, 100
2, 241916, Note_off_c, 0, 80, 100
2, 241916, Note_off_c, 0, 78, 100
2, 241920, Control_c, 0, 64, 127
2, 242016, Note_on_c, 0, 77, 70
2, 242112, Note_on_c, 0, 76, 70
2, 242204, Note_off_c, 0, 77, 100
2, 242208, Note_on_c, 0, 77, 70
2, 242396, Note_off_c, 0, 76, 100
2, 242400, Note_on_c, 0, 80, 70
2, 242492, Note_off_c, 0, 77, 100
2, 242496, Note_on_c, 0, 79, 70
2, 242588, Note_off_c, 0, 80, 100
2, 242592, Note_on_c, 0, 80, 70
2, 242780, Note_off_c, 0, 79, 100
2, 242784, Note_on_c, 0, 85, 70
2, 242876, Note_off_c, 0, 80, 100
2, 242880, Note_on_c, 0, 84, 70
2, 242972, Note_off_c, 0, 85, 100
2, 242976, Note_on_c, 0, 85, 70
2, 243068, Note_off_c, 0, 84, 100
2, 243072, Note_on_c, 0, 89, 70
2, 243164, Note_off_c, 0, 85, 100
2, 243168, Note_on_c, 0, 85, 70
2, 243260, Note_off_c, 0, 89, 100
2, 243264, Note_on_c, 0, 89, 70
2, 243356, Note_off_c, 0, 85, 100
2, 243360, Note_on_c, 0, 85, 70
2, 243448, Control_c, 0, 64, 0
2, 243452, Note_off_c, 0, 89, 100
2, 243456, Control_c, 0, 64, 127
2, 243456, Note_on_c, 0, 89, 70
2, 243548, Note_off_c, 0, 85, 100
2, 243552, Note_on_c, 0, 87, 70
2, 243648, Note_on_c, 0, 86, 70
2, 243740, Note_off_c, 0, 89, 100
2, 243744, Note_on_c, 0, 84, 70
2, 243836, Note_off_c, 0, 87, 100
2, 243840, Note_on_c, 0, 83, 70
2, 243932, Note_off_c, 0, 86, 100
2, 243936, Note_on_c, 0, 84, 70
2, 244028, Note_off_c, 0, 84, 100
2, 244028, Note_off_c, 0, 83, 100
2, 244032, Note_on_c, 0, 86, 70
2, 244128, Note_on_c, 0, 87, 70
2, 244220, Note_off_c, 0, 84, 100
2, 244224, Note_on_c, 0, 89, 70
2, 244316, Note_off_c, 0, 86, 100
2, 244316, Note_off_c, 0, 87, 100
2, 244320, Note_on_c, 0, 87, 70
2, 244416, Note_on_c, 0, 86, 70
2, 244508, Note_off_c, 0, 89, 100
2, 244512, Note_on_c, 0, 84, 70
2, 244604, Note_off_c, 0, 87, 100
2, 244608, Note_on_c, 0, 83, 70
2, 244700, Note_off_c, 0, 86, 100
2, 244704, Note_on_c, 0, 80, 70
2, 244796, Note_off_c, 0, 84, 100
2, 244800, Note_on_c, 0, 79, 70
2, 244892, Note_off_c, 0, 83, 100
2, 244896, Note_on_c, 0, 77, 70
2, 244984, Control_c, 0, 64, 0
2, 244988, Note_off_c, 0, 80, 100
2, 244988, Note_off_c, 0, 79, 100
2, 244988, Note_off_c, 0, 77, 100
2, 244992, Control_c, 0, 64, 127
2, 244992, Control_c, 0, 64, 127
2, 245088, Note_on_c, 0, 75, 70
2, 245184, Note_on_c, 0, 74, 70
2, 245276, Note_off_c, 0, 75, 100
2, 245280, Note_on_c, 0, 75, 70
2, 245468, Note_off_c, 0, 74, 100
2, 245472, Note_on_c, 0, 79, 70
2, 245564, Note_off_c, 0, 75, 100
2, 245568, Note_on_c, 0, 78, 70
2, 245660, Note_off_c, 0, 79, 100
2, 245664, Note_on_c, 0, 79, 70
2, 245852, Note_off_c, 0, 78, 100
2, 245856, Note_on_c, 0, 83, 70
2, 245948, Note_off_c, 0, 79, 100
2, 245952, Note_on_c, 0, 84, 70
2, 246044, Note_off_c, 0, 83, 100
2, 246048, Note_on_c, 0, 83, 70
2, 246140, Note_off_c, 0, 84, 100
2, 246144, Note_on_c, 0, 84, 70
2, 246240, Note_on_c, 0, 86, 70
2, 246332, Note_off_c, 0, 83, 100
2, 246336, Note_on_c, 0, 87, 70
2, 246428, Note_off_c, 0, 84, 100
2, 246432, Note_on_c, 0, 90, 70
2, 246520, Control_c, 0, 64, 0
2, 246520, Control_c, 0, 64, 0
2, 246524, Note_off_c, 0, 86, 100
2, 246528, Control_c, 0, 64, 127
2, 246528, Note_on_c, 0, 91, 70
2, 246620, Note_off_c, 0, 87, 100
2, 246624, Note_on_c, 0, 86, 70
2, 246716, Note_off_c, 0, 90, 100
2, 246720, Note_on_c, 0, 83, 70
2, 246812, Note_off_c, 0, 91, 100
2, 246816, Note_on_c, 0, 79, 70
2, 246908, Note_off_c, 0, 86, 100
2, 246912, Note_on_c, 0, 78, 70
2, 247004, Note_off_c, 0, 83, 100
2, 247004, Note_off_c, 0, 79, 100
2, 247008, Note_on_c, 0, 79, 70
2, 247104, Note_on_c, 0, 83, 70
2, 247196, Note_off_c, 0, 78, 100
2, 247200, Note_on_c, 0, 86, 70
2, 247288, Control_c, 0, 64, 0
2, 247292, Note_off_c, 0, 79, 100
2, 247296, Control_c, 0, 64, 127
2, 247296, Note_on_c, 0, 87, 70
2, 247388, Note_off_c, 0, 83, 100
2, 247392, Note_on_c, 0, 84, 70
2, 247484, Note_off_c, 0, 86, 100
2, 247488, Note_on_c, 0, 79, 70
2, 247580, Note_off_c, 0, 87, 100
2, 247584, Note_on_c, 0, 75, 70
2, 247676, Note_off_c, 0, 84, 100
2, 247680, Note_on_c, 0, 84, 70
2, 247772, Note_off_c, 0, 79, 100
2, 247776, Note_on_c, 0, 79, 70
2, 247868, Note_off_c, 0, 75, 100
2, 247872, Note_on_c, 0, 75, 70
2, 247964, Note_off_c, 0, 84, 100
2, 247968, Note_on_c, 0, 72, 70
2, 248056, Control_c, 0, 64, 0
2, 248060, Note_off_c, 0, 79, 100
2, 248060, Note_off_c, 0, 75, 100
2, 248060, Note_off_c, 0, 72, 100
2, 248064, Control_c, 0, 64, 127
2, 248064, Note_on_c, 0, 83, 70
2, 248160, Note_on_c, 0, 79, 70
2, 248256, Note_on_c, 0, 74, 70
2, 248348, Note_off_c, 0, 83, 100
2, 248352, Note_on_c, 0, 71, 70
2, 248444, Note_off_c, 0, 79, 100
2, 248448, Note_on_c, 0, 79, 70
2, 248540, Note_off_c, 0, 74, 100
2, 248544, Note_on_c, 0, 74, 71
2, 248636, Note_off_c, 0, 71, 100
2, 248640, Note_on_c, 0, 71, 73
2, 248732, Note_off_c, 0, 79, 100
2, 248736, Note_on_c, 0, 67, 74
2, 248824, Control_c, 0, 64, 0
2, 248828, Note_off_c, 0, 74, 100
2, 248828, Note_off_c, 0, 71, 100
2, 248828, Note_off_c, 0, 67, 100
2, 248832, Control_c, 0, 64, 127
2, 248832, Note_on_c, 0, 75, 76
2, 248928, Note_on_c, 0, 72, 77
2, 249024, Note_on_c, 0, 67, 79
2, 249116, Note_off_c, 0, 75, 100
2, 249120, Note_on_c, 0, 63, 80
2, 249212, Note_off_c, 0, 72, 100
2, 249216, Note_on_c, 0, 72, 82
2, 249308, Note_off_c, 0, 67, 100
2, 249312, Note_on_c, 0, 67, 83
2, 249404, Note_off_c, 0, 63, 100
2, 249408, Note_on_c, 0, 63, 85
2, 249500, Note_off_c, 0, 72, 100
2, 249504, Note_on_c, 0, 60, 86
2, 249592, Control_c, 0, 64, 0
2, 249596, Note_off_c, 0, 67, 100
2, 249596, Note_off_c, 0, 63, 100
2, 249596, Note_off_c, 0, 60, 100
2, 249600, Control_c, 0, 64, 127
2, 249600, Note_on_c, 0, 71, 88
2, 249696, Note_on_c, 0, 67, 89
2, 249792, Note_on_c, 0, 62, 91
2, 249884, Note_off_c, 0, 71, 100
2, 249888, Note_on_c, 0, 59, 92
2, 249980, Note_off_c, 0, 67, 100
2, 249980, Note_off_c, 0, 62, 100
2, 249984, Note_on_c, 0, 62, 94
2, 250080, Note_on_c, 0, 65, 95
2, 250172, Note_off_c, 0, 59, 100
2, 250176, Note_on_c, 0, 71, 97
2, 250268, Note_off_c, 0, 62, 100
2, 250272, Note_on_c, 0, 74, 98
2, 250360, Control_c, 0, 64, 0
2, 250364, Note_off_c, 0, 65, 100
2, 250364, Note_off_c, 0, 71, 100
2, 250364, Note_off_c, 0, 74, 100
2, 250368, Control_c, 0, 64, 127
2, 250368, Note_on_c, 0, 72, 100
2, 250464, Note_on_c, 0, 67, 101
2, 250560, Note_on_c, 0, 63, 103
2, 250652, Note_off_c, 0, 72, 100
2, 250656, Note_on_c, 0, 60, 104
2, 250748, Note_off_c, 0, 67, 100
2, 250752, Note_on_c, 0, 67, 106
2, 250844, Note_off_c, 0, 63, 100
2, 250848, Note_on_c, 0, 63, 107
2, 250940, Note_off_c, 0, 60, 100
2, 250944, Note_on_c, 0, 60, 109
2, 251036, Note_off_c, 0, 67, 100
2, 251040, Note_on_c, 0, 55, 110
2, 251128, Control_c, 0, 64, 0
2, 251132, Note_off_c, 0, 63, 100
2, 251132, Note_off_c, 0, 60, 100
2, 251132, Note_off_c, 0, 55, 100
2, 251136, Note_on_c, 0, 67, 110
2, 251228, Note_off_c, 0, 67, 100
2, 251232, Note_on_c, 0, 63, 110
2, 251324, Note_off_c, 0, 63, 100
2, 251328, Note_on_c, 0, 59, 110
2, 251420, Note_off_c, 0, 59, 100
2, 251424, Note_on_c, 0, 55, 110
2, 251516, Note_off_c, 0, 55, 100
2, 251520, Note_on_c, 0, 59, 110
2, 251612, Note_off_c, 0, 59, 100
2, 251616, Note_on_c, 0, 62, 110
2, 251708, Note_off_c, 0, 62, 100
2, 251712, Note_on_c, 0, 59, 110
2, 251804, Note_off_c, 0, 59, 100
2, 251808, Note_on_c, 0, 55, 110
2, 251900, Note_off_c, 0, 55, 100
2, 251904, Note_on_c, 0, 60, 110
2, 251996, Note_off_c, 0, 60, 100
2, 252000, Note_on_c, 0, 55, 110
2, 252092, Note_off_c, 0, 55, 100
2, 252096, Note_on_c, 0, 51, 110
2, 252188, Note_off_c, 0, 51, 100
2, 252192, Note_on_c, 0, 55, 110
2, 252284, Note_off_c, 0, 55, 100
2, 252288, Note_on_c, 0, 51, 110
2, 252380, Note_off_c, 0, 51, 100
2, 252384, Note_on_c, 0, 55, 110
2, 252476, Note_off_c, 0, 55, 100
2, 252480, Note_on_c, 0, 51, 110
2, 252572, Note_off_c, 0, 51, 100
2, 252576, Note_on_c, 0, 48, 110
2, 252668, Note_off_c, 0, 48, 100
2, 252672, Control_c, 0, 64, 127
2, 252768, Note_on_c, 0, 55, 70
2, 252864, Note_on_c, 0, 50, 70
2, 252960, Note_on_c, 0, 47, 70
2, 253052, Note_off_c, 0, 55, 100
2, 253148, Note_off_c, 0, 50, 100
2, 253152, Note_on_c, 0, 55, 70
2, 253244, Note_off_c, 0, 47, 100
2, 253248, Note_on_c, 0, 50, 70
2, 253344, Note_on_c, 0, 47, 70
2, 253436, Note_off_c, 0, 55, 100
2, 253532, Note_off_c, 0, 50, 100
2, 253536, Note_on_c, 0, 55, 70
2, 253628, Note_off_c, 0, 47, 100
2, 253632, Note_on_c, 0, 50, 70
2, 253728, Note_on_c, 0, 47, 70
2, 253820, Note_off_c, 0, 55, 100
2, 253916, Note_off_c, 0, 50, 100
2, 253920, Note_on_c, 0, 55, 70
2, 254012, Note_off_c, 0, 47, 100
2, 254016, Note_on_c, 0, 50, 70
2, 254112, Note_on_c, 0, 47, 70
2, 254200, Control_c, 0, 64, 0
2, 254204, Note_off_c, 0, 55, 100
2, 254204, Note_off_c, 0, 50, 100
2, 254204, Note_off_c, 0, 47, 100
2, 254208, Control_c, 0, 64, 127
2, 254304, Note_on_c, 0, 57, 70
2, 254400, Note_on_c, 0, 51, 70
2, 254496, Note_on_c, 0, 48, 70
2, 254588, Note_off_c, 0, 57, 100
2, 254684, Note_off_c, 0, 51, 100
2, 254688, Note_on_c, 0, 57, 70
2, 254780, Note_off_c, 0, 48, 100
2, 254784, Note_on_c, 0, 51, 70
2, 254880, Note_on_c, 0, 48, 70
2, 254972, Note_off_c, 0, 57, 100
2, 255068, Note_off_c, 0, 51, 100
2, 255072, Note_on_c, 0, 57, 70
2, 255164, Note_off_c, 0, 48, 100
2, 255168, Note_on_c, 0, 51, 70
2, 255264, Note_on_c, 0, 48, 70
2, 255356, Note_off_c, 0, 57, 100
2, 255452, Note_off_c, 0, 51, 100
2, 255456, Note_on_c, 0, 57, 70
2, 255548, Note_off_c, 0, 48, 100
2, 255552, Note_on_c, 0, 51, 70
2, 255648, Note_on_c, 0, 48, 70
2, 255736, Control_c, 0, 64, 0
2, 255740, Note_off_c, 0, 57, 100
2, 255740, Note_off_c, 0, 51, 100
2, 255740, Note_off_c, 0, 48, 100
2, 255744, Control_c, 0, 64, 127
2, 255840, Note_on_c, 0, 55, 70
2, 255936, Note_on_c, 0, 50, 70
2, 256032, Note_on_c, 0, 47, 70
2, 256124, Note_off_c, 0, 55, 100
2, 256220, Note_off_c, 0, 50, 100
2, 256224, Note_on_c, 0, 55, 70
2, 256316, Note_off_c, 0, 47, 100
2, 256320, Note_on_c, 0, 50, 70
2, 256416, Note_on_c, 0, 47, 70
2, 256508, Note_off_c, 0, 55, 100
2, 256604, Note_off_c, 0, 50, 100
2, 256608, Note_on_c, 0, 55, 70
2, 256700, Note_off_c, 0, 47, 100
2, 256704, Note_on_c, 0, 50, 70
2, 256800, Note_on_c, 0, 47, 70
2, 256892, Note_off_c, 0, 55, 100
2, 256988, Note_off_c, 0, 50, 100
2, 256992, Note_on_c, 0, 55, 70
2, 257084, Note_off_c, 0, 47, 100
2, 257088, Note_on_c, 0, 50, 70
2, 257184, Note_on_c, 0, 47, 70
2, 257272, Control_c, 0, 64, 0
2, 257276, Note_off_c, 0, 55, 100
2, 257276, Note_off_c, 0, 50, 100
2, 257276, Note_off_c, 0, 47, 100
2, 257280, Control_c, 0, 64, 127
2, 257376, Note_on_c, 0, 57, 70
2, 257472, Note_on_c, 0, 51, 70
2, 257568, Note_on_c, 0, 48, 70
2, 257660, Note_off_c, 0, 57, 100
2, 257756, Note_off_c, 0, 51, 100
2, 257760, Note_on_c, 0, 57, 70
2, 257852, Note_off_c, 0, 48, 100
2, 257856, Note_on_c, 0, 51, 70
2, 257952, Note_on_c, 0, 48, 70
2, 258044, Note_off_c, 0, 57, 100
2, 258140, Note_off_c, 0, 51, 100
2, 258144, Note_on_c, 0, 57, 70
2, 258236, Note_off_c, 0, 48, 100
2, 258240, Note_on_c, 0, 51, 70
2, 258336, Note_on_c, 0, 48, 70
2, 258428, Note_off_c, 0, 57, 100
2, 258524, Note_off_c, 0, 51, 100
2, 258528, Note_on_c, 0, 57, 70
2, 258620, Note_off_c, 0, 48, 100
2, 258624, Note_on_c, 0, 51, 70
2, 258720, Note_on_c, 0, 48, 70
2, 258808, Control_c, 0, 64, 0
2, 258812, Note_off_c, 0, 57, 100
2, 258812, Note_off_c, 0, 51, 100
2, 258812, Note_off_c, 0, 48, 100
2, 258816, Control_c, 0, 64, 127
2, 258816, Note_on_c, 0, 55, 90
2, 258912, Note_on_c, 0, 50, 90
2, 259008, Note_on_c, 0, 47, 90
2, 259104, Note_on_c, 0, 50, 90
2, 259196, Note_off_c, 0, 55, 100
2, 259200, Note_on_c, 0, 55, 90
2, 259292, Note_off_c, 0, 50, 100
2, 259296, Note_on_c, 0, 50, 91
2, 259388, Note_off_c, 0, 47, 100
2, 259392, Note_on_c, 0, 47, 91
2, 259484, Note_off_c, 0, 50, 100
2, 259488, Note_on_c, 0, 50, 91
2, 259580, Note_off_c, 0, 55, 100
2, 259584, Note_on_c, 0, 55, 91
2, 259676, Note_off_c, 0, 50, 100
2, 259680, Note_on_c, 0, 50, 91
2, 259772, Note_off_c, 0, 47, 100
2, 259776, Note_on_c, 0, 47, 92
2, 259868, Note_off_c, 0, 50, 100
2, 259872, Note_on_c, 0, 50, 92
2, 259964, Note_off_c, 0, 55, 100
2, 259968, Note_on_c, 0, 55, 92
2, 260060, Note_off_c, 0, 50, 100
2, 260064, Note_on_c, 0, 50, 92
2, 260156, Note_off_c, 0, 47, 100
2, 260160, Note_on_c, 0, 47, 92
2, 260252, Note_off_c, 0, 50, 100
2, 260256, Note_on_c, 0, 50, 93
2, 260348, Note_off_c, 0, 55, 100
2, 260352, Note_on_c, 0, 59, 93
2, 260444, Note_off_c, 0, 50, 100
2, 260448, Note_on_c, 0, 55, 93
2, 260540, Note_off_c, 0, 47, 100
2, 260544, Note_on_c, 0, 50, 93
2, 260636, Note_off_c, 0, 50, 100
2, 260640, Note_on_c, 0, 55, 93
2, 260732, Note_off_c, 0, 59, 100
2, 260736, Note_on_c, 0, 59, 94
2, 260828, Note_off_c, 0, 55, 100
2, 260832, Note_on_c, 0, 55, 94
2, 260924, Note_off_c, 0, 50, 100
2, 260928, Note_on_c, 0, 50, 94
2, 261020, Note_off_c, 0, 55, 100
2, 261024, Note_on_c, 0, 55, 94
2, 261116, Note_off_c, 0, 59, 100
2, 261120, Note_on_c, 0, 59, 94
2, 261212, Note_off_c, 0, 55, 100
2, 261216, Note_on_c, 0, 55, 95
2, 261308, Note_off_c, 0, 50, 100
2, 261312, Note_on_c, 0, 50, 95
2, 261404, Note_off_c, 0, 55, 100
2, 261408, Note_on_c, 0, 55, 95
2, 261500, Note_off_c, 0, 59, 100
2, 261504, Note_on_c, 0, 59, 95
2, 261596, Note_off_c, 0, 55, 100
2, 261600, Note_on_c, 0, 55, 96
2, 261692, Note_off_c, 0, 50, 100
2, 261696, Note_on_c, 0, 50, 96
2, 261788, Note_off_c, 0, 55, 100
2, 261792, Note_on_c, 0, 55, 96
2, 261884, Note_off_c, 0, 59, 100
2, 261888, Note_on_c, 0, 62, 96
2, 261980, Note_off_c, 0, 55, 100
2, 261984, Note_on_c, 0, 59, 96
2, 262076, Note_off_c, 0, 50, 100
2, 262080, Note_on_c, 0, 55, 97
2, 262172, Note_off_c, 0, 55, 100
2, 262176, Note_on_c, 0, 59, 97
2, 262268, Note_off_c, 0, 62, 100
2, 262272, Note_on_c, 0, 62, 97
2, 262364, Note_off_c, 0, 59, 100
2, 262368, Note_on_c, 0, 59, 97
2, 262460, Note_off_c, 0, 55, 100
2, 262464, Note_on_c, 0, 55, 97
2, 262556, Note_off_c, 0, 59, 100
2, 262560, Note_on_c, 0, 59, 98
2, 262652, Note_off_c, 0, 62, 100
2, 262656, Note_on_c, 0, 62, 98
2, 262748, Note_off_c, 0, 59, 100
2, 262752, Note_on_c, 0, 59, 98
2, 262844, Note_off_c, 0, 55, 100
2, 262848, Note_on_c, 0, 55, 98
2, 262940, Note_off_c, 0, 59, 100
2, 262944, Note_on_c, 0, 59, 98
2, 263036, Note_off_c, 0, 62, 100
2, 263040, Note_on_c, 0, 62, 99
2, 263132, Note_off_c, 0, 59, 100
2, 263136, Note_on_c, 0, 59, 99
2, 263228, Note_off_c, 0, 55, 100
2, 263232, Note_on_c, 0, 55, 99
2, 263324, Note_off_c, 0, 59, 100
2, 263328, Note_on_c, 0, 59, 99
2, 263420, Note_off_c, 0, 62, 100
2, 263424, Note_on_c, 0, 65, 110
2, 263516, Note_off_c, 0, 59, 100
2, 263520, Note_on_c, 0, 62, 109
2, 263520, Note_on_c, 0, 59, 109
2, 263612, Note_off_c, 0, 55, 100
2, 263612, Note_off_c, 0, 65, 100
2, 263616, Note_on_c, 0, 55, 107
2, 263708, Note_off_c, 0, 59, 100
2, 263708, Note_off_c, 0, 62, 100
2, 263708, Note_off_c, 0, 59, 100
2, 263712, Note_on_c, 0, 62, 105
2, 263712, Note_on_c, 0, 59, 105
2, 263804, Note_off_c, 0, 55, 100
2, 263808, Note_on_c, 0, 65, 103
2, 263900, Note_off_c, 0, 62, 100
2, 263900, Note_off_c, 0, 59, 100
2, 263904, Note_on_c, 0, 62, 101
2, 263904, Note_on_c, 0, 59, 101
2, 263996, Note_off_c, 0, 65, 100
2, 264000, Note_on_c, 0, 55, 99
2, 264092, Note_off_c, 0, 62, 100
2, 264092, Note_off_c, 0, 59, 100
2, 264096, Note_on_c, 0, 62, 97
2, 264096, Note_on_c, 0, 59, 97
2, 264188, Note_off_c, 0, 55, 100
2, 264192, Note_on_c, 0, 65, 96
2, 264284, Note_off_c, 0, 59, 100
2, 264284, Note_off_c, 0, 62, 100
2, 264288, Note_on_c, 0, 62, 94
2, 264288, Note_on_c, 0, 59, 94
2, 264380, Note_off_c, 0, 65, 100
2, 264384, Note_on_c, 0, 55, 92
2, 264476, Note_off_c, 0, 62, 100
2, 264476, Note_off_c, 0, 59, 100
2, 264480, Note_on_c, 0, 62, 90
2, 264480, Note_on_c, 0, 59, 90
2, 264572, Note_off_c, 0, 55, 100
2, 264576, Note_on_c, 0, 65, 88
2, 264668, Note_off_c, 0, 62, 100
2, 264668, Note_off_c, 0, 59, 100
2, 264672, Note_on_c, 0, 62, 86
2, 264672, Note_on_c, 0, 59, 86
2, 264764, Note_off_c, 0, 65, 100
2, 264768, Note_on_c, 0, 55, 84
2, 264860, Note_off_c, 0, 62, 100
2, 264860, Note_off_c, 0, 59, 100
2, 264864, Note_on_c, 0, 62, 82
2, 264864, Note_on_c, 0, 59, 82
2, 264956, Note_off_c, 0, 55, 100
2, 264960, Note_on_c, 0, 65, 80
2, 265052, Note_off_c, 0, 59, 100
2, 265052, Note_off_c, 0, 62, 100
2, 265056, Note_on_c, 0, 62, 80
2, 265056, Note_on_c, 0, 59, 80
2, 265148, Note_off_c, 0, 65, 100
2, 265152, Note_on_c, 0, 55, 79
2, 265244, Note_off_c, 0, 62, 100
2, 265244, Note_off_c, 0, 59, 100
2, 265248, Note_on_c, 0, 62, 79
2, 265248, Note_on_c, 0, 59, 79
2, 265340, Note_off_c, 0, 55, 100
2, 265344, Note_on_c, 0, 65, 78
2, 265436, Note_off_c, 0, 62, 100
2, 265436, Note_off_c, 0, 59, 100
2, 265440, Note_on_c, 0, 62, 77
2, 265440, Note_on_c, 0, 59, 77
2, 265532, Note_off_c, 0, 65, 100
2, 265536, Note_on_c, 0, 55, 77
2, 265628, Note_off_c, 0, 62, 100
2, 265628, Note_off_c, 0, 59, 100
2, 265632, Note_on_c, 0, 62, 76
2, 265632, Note_on_c, 0, 59, 76
2, 265724, Note_off_c, 0, 55, 100
2, 265728, Note_on_c, 0, 65, 76
2, 265820, Note_off_c, 0, 59, 100
2, 265820, Note_off_c, 0, 62, 100
2, 265824, Note_on_c, 0, 62, 75
2, 265824, Note_on_c, 0, 59, 75
2, 265916, Note_off_c, 0, 65, 100
2, 265920, Note_on_c, 0, 55, 74
2, 266012, Note_off_c, 0, 62, 100
2, 266012, Note_off_c, 0, 59, 100
2, 266016, Note_on_c, 0, 62, 74
2, 266016, Note_on_c, 0, 59, 74
2, 266108, Note_off_c, 0, 55, 100
2, 266112, Note_on_c, 0, 65, 73
2, 266204, Note_off_c, 0, 62, 100
2, 266204, Note_off_c, 0, 59, 100
2, 266208, Note_on_c, 0, 62, 72
2, 266208, Note_on_c, 0, 59, 72
2, 266300, Note_off_c, 0, 65, 100
2, 266304, Note_on_c, 0, 55, 72
2, 266396, Note_off_c, 0, 62, 100
2, 266396, Note_off_c, 0, 59, 100
2, 266400, Note_on_c, 0, 62, 71
2, 266400, Note_on_c, 0, 59, 71
2, 266492, Note_off_c, 0, 55, 100
2, 266496, Note_on_c, 0, 65, 70
2, 266588, Note_off_c, 0, 59, 100
2, 266588, Note_off_c, 0, 62, 100
2, 266592, Note_on_c, 0, 62, 70
2, 266592, Note_on_c, 0, 59, 70
2, 266684, Note_off_c, 0, 65, 100
2, 266688, Note_on_c, 0, 55, 70
2, 266780, Note_off_c, 0, 62, 100
2, 266780, Note_off_c, 0, 59, 100
2, 266784, Note_on_c, 0, 62, 70
2, 266784, Note_on_c, 0, 59, 70
2, 266876, Note_off_c, 0, 55, 100
2, 266880, Note_on_c, 0, 65, 70
2, 266972, Note_off_c, 0, 62, 100
2, 266972, Note_off_c, 0, 59, 100
2, 266976, Note_on_c, 0, 62, 70
2, 266976, Note_on_c, 0, 59, 70
2, 267068, Note_off_c, 0, 65, 100
2, 267072, Note_on_c, 0, 55, 70
2, 267164, Note_off_c, 0, 62, 100
2, 267164, Note_off_c, 0, 59, 100
2, 267168, Note_on_c, 0, 62, 70
2, 267168, Note_on_c, 0, 59, 70
2, 267260, Note_off_c, 0, 55, 100
2, 267264, Note_on_c, 0, 65, 70
2, 267356, Note_off_c, 0, 59, 100
2, 267356, Note_off_c, 0, 62, 100
2, 267360, Note_on_c, 0, 62, 70
2, 267360, Note_on_c, 0, 59, 70
2, 267452, Note_off_c, 0, 65, 100
2, 267456, Note_on_c, 0, 55, 70
2, 267548, Note_off_c, 0, 62, 100
2, 267548, Note_off_c, 0, 59, 100
2, 267552, Note_on_c, 0, 62, 70
2, 267552, Note_on_c, 0, 59, 70
2, 267644, Note_off_c, 0, 55, 100
2, 267648, Note_on_c, 0, 65, 70
2, 267740, Note_off_c, 0, 62, 100
2, 267740, Note_off_c, 0, 59, 100
2, 267744, Note_on_c, 0, 62, 70
2, 267744, Note_on_c, 0, 59, 70
2, 267836, Note_off_c, 0, 65, 100
2, 267840, Note_on_c, 0, 55, 70
2, 267932, Note_off_c, 0, 62, 100
2, 267932, Note_off_c, 0, 59, 100
2, 267936, Note_on_c, 0, 62, 70
2, 267936, Note_on_c, 0, 59, 70
2, 268028, Note_off_c, 0, 55, 100
2, 268032, Note_on_c, 0, 65, 70
2, 268124, Note_off_c, 0, 59, 100
2, 268124, Note_off_c, 0, 62, 100
2, 268128, Note_on_c, 0, 62, 70
2, 268128, Note_on_c, 0, 59, 70
2, 268220, Note_off_c, 0, 65, 100
2, 268224, Note_on_c, 0, 55, 70
2, 268316, Note_off_c, 0, 62, 100
2, 268316, Note_off_c, 0, 59, 100
2, 268320, Note_on_c, 0, 62, 70
2, 268320, Note_on_c, 0, 59, 70
2, 268412, Note_off_c, 0, 55, 100
2, 268416, Note_on_c, 0, 65, 70
2, 268508, Note_off_c, 0, 62, 100
2, 268508, Note_off_c, 0, 59, 100
2, 268512, Note_on_c, 0, 62, 70
2, 268512, Note_on_c, 0, 59, 70
2, 268604, Note_off_c, 0, 65, 100
2, 268608, Note_on_c, 0, 55, 70
2, 268700, Note_off_c, 0, 62, 100
2, 268700, Note_off_c, 0, 59, 100
2, 268704, Note_on_c, 0, 62, 70
2, 268704, Note_on_c, 0, 59, 70
2, 268796, Note_off_c, 0, 55, 100
2, 268800, Note_on_c, 0, 65, 70
2, 268892, Note_off_c, 0, 59, 100
2, 268892, Note_off_c, 0, 62, 100
2, 268896, Note_on_c, 0, 62, 70
2, 268896, Note_on_c, 0, 59, 70
2, 268988, Note_off_c, 0, 65, 100
2, 268992, Note_on_c, 0, 55, 70
2, 269084, Note_off_c, 0, 62, 100
2, 269084, Note_off_c, 0, 59, 100
2, 269088, Note_on_c, 0, 62, 70
2, 269088, Note_on_c, 0, 59, 70
2, 269180, Note_off_c, 0, 55, 100
2, 269184, Note_on_c, 0, 65, 70
2, 269276, Note_off_c, 0, 62, 100
2, 269276, Note_off_c, 0, 59, 100
2, 269280, Note_on_c, 0, 62, 70
2, 269280, Note_on_c, 0, 59, 70
2, 269372, Note_off_c, 0, 65, 100
2, 269376, Note_on_c, 0, 55, 70
2, 269468, Note_off_c, 0, 62, 100
2, 269468, Note_off_c, 0, 59, 100
2, 269472, Note_on_c, 0, 62, 70
2, 269472, Note_on_c, 0, 59, 70
2, 269564, Note_off_c, 0, 55, 100
2, 269568, Note_on_c, 0, 65, 70
2, 269660, Note_off_c, 0, 59, 100
2, 269660, Note_off_c, 0, 62, 100
2, 269664, Note_on_c, 0, 62, 70
2, 269664, Note_on_c, 0, 59, 70
2, 269756, Note_off_c, 0, 65, 100
2, 269760, Note_on_c, 0, 55, 70
2, 269852, Note_off_c, 0, 62, 100
2, 269852, Note_off_c, 0, 59, 100
2, 269856, Note_on_c, 0, 62, 70
2, 269856, Note_on_c, 0, 59, 70
2, 269948, Note_off_c, 0, 55, 100
2, 269952, Note_on_c, 0, 65, 70
2, 270044, Note_off_c, 0, 62, 100
2, 270044, Note_off_c, 0, 59, 100
2, 270048, Note_on_c, 0, 62, 70
2, 270048, Note_on_c, 0, 59, 70
2, 270140, Note_off_c, 0, 65, 100
2, 270144, Note_on_c, 0, 55, 70
2, 270236, Note_off_c, 0, 62, 100
2, 270236, Note_off_c, 0, 59, 100
2, 270240, Note_on_c, 0, 62, 70
2, 270240, Note_on_c, 0, 59, 70
2, 270332, Note_off_c, 0, 55, 100
2, 270336, Note_on_c, 0, 65, 70
2, 270428, Note_off_c, 0, 59, 100
2, 270428, Note_off_c, 0, 62, 100
2, 270432, Note_on_c, 0, 62, 70
2, 270432, Note_on_c, 0, 59, 70
2, 270524, Note_off_c, 0, 65, 100
2, 270528, Note_on_c, 0, 55, 70
2, 270620, Note_off_c, 0, 62, 100
2, 270620, Note_off_c, 0, 59, 100
2, 270624, Note_on_c, 0, 62, 70
2, 270624, Note_on_c, 0, 59, 70
2, 270716, Note_off_c, 0, 55, 100
2, 270720, Note_on_c, 0, 65, 70
2, 270812, Note_off_c, 0, 62, 100
2, 270812, Note_off_c, 0, 59, 100
2, 270816, Note_on_c, 0, 62, 70
2, 270816, Note_on_c, 0, 59, 70
2, 270908, Note_off_c, 0, 65, 100
2, 270912, Note_on_c, 0, 55, 70
2, 271004, Note_off_c, 0, 62, 100
2, 271004, Note_off_c, 0, 59, 100
2, 271008, Note_on_c, 0, 62, 70
2, 271008, Note_on_c, 0, 59, 70
2, 271100, Note_off_c, 0, 55, 100
2, 271104, Note_on_c, 0, 65, 70
2, 271196, Note_off_c, 0, 59, 100
2, 271196, Note_off_c, 0, 62, 100
2, 271200, Note_on_c, 0, 62, 70
2, 271200, Note_on_c, 0, 59, 70
2, 271292, Note_off_c, 0, 65, 100
2, 271296, Note_on_c, 0, 55, 70
2, 271388, Note_off_c, 0, 62, 100
2, 271388, Note_off_c, 0, 59, 100
2, 271392, Note_on_c, 0, 62, 70
2, 271392, Note_on_c, 0, 59, 70
2, 271484, Note_off_c, 0, 55, 100
2, 271488, Note_on_c, 0, 65, 70
2, 271580, Note_off_c, 0, 62, 100
2, 271580, Note_off_c, 0, 59, 100
2, 271584, Note_on_c, 0, 62, 70
2, 271584, Note_on_c, 0, 59, 70
2, 271676, Note_off_c, 0, 65, 100
2, 271680, Note_on_c, 0, 55, 70
2, 271772, Note_off_c, 0, 62, 100
2, 271772, Note_off_c, 0, 59, 100
2, 271776, Note_on_c, 0, 62, 70
2, 271776, Note_on_c, 0, 59, 70
2, 271868, Note_off_c, 0, 55, 100
2, 271872, Note_on_c, 0, 65, 70
2, 271964, Note_off_c, 0, 59, 100
2, 271964, Note_off_c, 0, 62, 100
2, 271968, Note_on_c, 0, 62, 70
2, 271968, Note_on_c, 0, 59, 70
2, 272060, Note_off_c, 0, 65, 100
2, 272064, Note_on_c, 0, 55, 70
2, 272156, Note_off_c, 0, 62, 100
2, 272156, Note_off_c, 0, 59, 100
2, 272160, Note_on_c, 0, 62, 70
2, 272160, Note_on_c, 0, 59, 70
2, 272248, Control_c, 0, 64, 0
2, 272252, Note_off_c, 0, 55, 100
2, 272256, Note_on_c, 0, 59, 105
2, 272256, Note_on_c, 0, 71, 105
2, 272348, Note_off_c, 0, 62, 100
2, 272348, Note_off_c, 0, 59, 100
2, 272348, Note_off_c, 0, 59, 100
2, 272348, Note_off_c, 0, 71, 100
2, 272352, Note_on_c, 0, 65, 105
2, 272352, Note_on_c, 0, 62, 105
2, 272444, Note_off_c, 0, 65, 100
2, 272444, Note_off_c, 0, 62, 100
2, 272448, Note_on_c, 0, 71, 105
2, 272448, Note_on_c, 0, 59, 105
2, 272540, Note_off_c, 0, 71, 100
2, 272540, Note_off_c, 0, 59, 100
2, 272544, Note_on_c, 0, 65, 105
2, 272544, Note_on_c, 0, 62, 105
2, 272636, Note_off_c, 0, 65, 100
2, 272636, Note_off_c, 0, 62, 100
2, 272640, Key_signature, 0, "major"
2, 272640, Control_c, 0, 64, 127
2, 272640, Note_on_c, 0, 72, 120
2, 272640, Note_on_c, 0, 64, 120
2, 272640, Note_on_c, 0, 60, 120
2, 273020, Note_off_c, 0, 64, 100
2, 273020, Note_off_c, 0, 60, 100
2, 273024, Note_on_c, 0, 91, 120
2, 273024, Note_on_c, 0, 79, 120
2, 273404, Note_off_c, 0, 72, 100
2, 273404, Note_off_c, 0, 91, 100
2, 273404, Note_off_c, 0, 79, 100
2, 273408, Note_on_c, 0, 79, 120
2, 273408, Note_on_c, 0, 91, 120
2, 273984, Note_on_c, 0, 76, 120
2, 273984, Note_on_c, 0, 88, 120
2, 274172, Note_off_c, 0, 79, 100
2, 274172, Note_off_c, 0, 91, 100
2, 274176, Note_on_c, 0, 74, 120
2, 274176, Note_on_c, 0, 86, 120
2, 274364, Note_off_c, 0, 76, 100
2, 274364, Note_off_c, 0, 88, 100
2, 274560, Note_on_c, 0, 67, 120
2, 274560, Note_on_c, 0, 79, 120
2, 274940, Note_off_c, 0, 74, 100
2, 274940, Note_off_c, 0, 86, 100
2, 274944, Note_on_c, 0, 72, 120
2, 274944, Note_on_c, 0, 84, 120
2, 275324, Note_off_c, 0, 67, 100
2, 275324, Note_off_c, 0, 79, 100
2, 275328, Note_on_c, 0, 76, 120
2, 275328, Note_on_c, 0, 88, 120
2, 275708, Note_off_c, 0, 72, 100
2, 275708, Note_off_c, 0, 84, 100
2, 276092, Note_off_c, 0, 76, 100
2, 276092, Note_off_c, 0, 88, 100
2, 276096, Note_on_c, 0, 91, 120
2, 276096, Note_on_c, 0, 79, 120
2, 276476, Note_off_c, 0, 91, 100
2, 276476, Note_off_c, 0, 79, 100
2, 276480, Note_on_c, 0, 79, 120
2, 276480, Note_on_c, 0, 91, 120
2, 277056, Note_on_c, 0, 76, 120
2, 277056, Note_on_c, 0, 88, 120
2, 277244, Note_off_c, 0, 79, 100
2, 277244, Note_off_c, 0, 91, 100
2, 277248, Note_on_c, 0, 86, 120
2, 277248, Note_on_c, 0, 74, 120
2, 277436, Note_off_c, 0, 76, 100
2, 277436, Note_off_c, 0, 88, 100
2, 277632, Note_on_c, 0, 67, 120
2, 277632, Note_on_c, 0, 79, 120
2, 278012, Note_off_c, 0, 86, 100
2, 278012, Note_off_c, 0, 74, 100
2, 278016, Note_on_c, 0, 84, 120
2, 278016, Note_on_c, 0, 72, 120
2, 278396, Note_off_c, 0, 67, 100
2, 278396, Note_off_c, 0, 79, 100
2, 278396, Note_off_c, 0, 84, 100
2, 278396, Note_off_c, 0, 72, 100
2, 278776, Control_c, 0, 64, 0
2, 278784, Control_c, 0, 64, 127
2, 279168, Note_on_c, 0, 77, 80
2, 279168, Note_on_c, 0, 89, 80
2, 279548, Note_off_c, 0, 77, 100
2, 279548, Note_off_c, 0, 89, 100
2, 279552, Note_on_c, 0, 77, 80
2, 279552, Note_on_c, 0, 89, 80
2, 280128, Note_on_c, 0, 74, 80
2, 280128, Note_on_c, 0, 86, 80
2, 280312, Control_c, 0, 64, 0
2, 280316, Note_off_c, 0, 77, 100
2, 280316, Note_off_c, 0, 89, 100
2, 280316, Note_off_c, 0, 74, 100
2, 280316, Note_off_c, 0, 86, 100
2, 280320, Note_on_c, 0, 76, 80
2, 280320, Note_on_c, 0, 88, 80
2, 280704, Note_on_c, 0, 84, 80
2, 280704, Note_on_c, 0, 72, 80
2, 281084, Note_off_c, 0, 76, 100
2, 281084, Note_off_c, 0, 88, 100
2, 281088, Note_on_c, 0, 71, 80
2, 281088, Note_on_c, 0, 83, 80
2, 281468, Note_off_c, 0, 72, 100
2, 281468, Note_off_c, 0, 84, 100
2, 281472, Note_on_c, 0, 86, 80
2, 281472, Note_on_c, 0, 74, 80
2, 281852, Note_off_c, 0, 71, 100
2, 281852, Note_off_c, 0, 83, 100
2, 281852, Note_off_c, 0, 86, 100
2, 281852, Note_off_c, 0, 74, 100
2, 281856, Control_c, 0, 64, 127
2, 282240, Note_on_c, 0, 77, 80
2, 282240, Note_on_c, 0, 89, 80
2, 282620, Note_off_c, 0, 77, 100
2, 282620, Note_off_c, 0, 89, 100
2, 282624, Note_on_c, 0, 77, 80
2, 282624, Note_on_c, 0, 89, 80
2, 283200, Note_on_c, 0, 74, 80
2, 283200, Note_on_c, 0, 86, 80
2, 283384, Control_c, 0, 64, 0
2, 283388, Note_off_c, 0, 77, 100
2, 283388, Note_off_c, 0, 89, 100
2, 283388, Note_off_c, 0, 74, 100
2, 283388, Note_off_c, 0, 86, 100
2, 283392, Note_on_c, 0, 75, 80
2, 283392, Note_on_c, 0, 87, 80
2, 283776, Note_on_c, 0, 84, 80
2, 283776, Note_on_c, 0, 72, 80
2, 284156, Note_off_c, 0, 75, 100
2, 284156, Note_off_c, 0, 87, 100
2, 284160, Note_on_c, 0, 71, 80
2, 284160, Note_on_c, 0, 83, 80
2, 284540, Note_off_c, 0, 72, 100
2, 284540, Note_off_c, 0, 84, 100
2, 284544, Note_on_c, 0, 86, 80
2, 284544, Note_on_c, 0, 74, 80
2, 284924, Note_off_c, 0, 71, 100
2, 284924, Note_off_c, 0, 83, 100
2, 284924, Note_off_c, 0, 86, 100
2, 284924, Note_off_c, 0, 74, 100
2, 284928, Note_on_c, 0, 76, 80
2, 284928, Note_on_c, 0, 88, 80
2, 285312, Note_on_c, 0, 84, 85
2, 285312, Note_on_c, 0, 72, 85
2, 285692, Note_off_c, 0, 76, 100
2, 285692, Note_off_c, 0, 88, 100
2, 285696, Note_on_c, 0, 71, 90
2, 285696, Note_on_c, 0, 83, 90
2, 286076, Note_off_c, 0, 72, 100
2, 286076, Note_off_c, 0, 84, 100
2, 286080, Note_on_c, 0, 86, 95
2, 286080, Note_on_c, 0, 74, 95
2, 286460, Note_off_c, 0, 71, 100
2, 286460, Note_off_c, 0, 83, 100
2, 286460, Note_off_c, 0, 86, 100
2, 286460, Note_off_c, 0, 74, 100
2, 286464, Note_on_c, 0, 87, 90
2, 286464, Note_on_c, 0, 75, 90
2, 286848, Note_on_c, 0, 84, 85
2, 286848, Note_on_c, 0, 72, 85
2, 287228, Note_off_c, 0, 87, 100
2, 287228, Note_off_c, 0, 75, 100
2, 287232, Note_on_c, 0, 79, 80
2, 287612, Note_off_c, 0, 72, 100
2, 287612, Note_off_c, 0, 84, 100
2, 287612, Note_off_c, 0, 79, 100
2, 287616, Note_on_c, 0, 79, 75
2, 287996, Note_off_c, 0, 79, 100
2, 288000, Note_on_c, 0, 81, 70
2, 288048, Note_on_c, 0, 79, 70
2, 288084, Note_off_c, 0, 81, 100
2, 288096, Note_on_c, 0, 81, 71
2, 288136, Note_off_c, 0, 79, 100
2, 288144, Note_on_c, 0, 79, 71
2, 288176, Note_off_c, 0, 81, 100
2, 288192, Note_on_c, 0, 81, 72
2, 288224, Note_off_c, 0, 79, 100
2, 288240, Note_on_c, 0, 79, 73
2, 288276, Note_off_c, 0, 81, 100
2, 288288, Note_on_c, 0, 81, 73
2, 288328, Note_off_c, 0, 79, 100
2, 288336, Note_on_c, 0, 79, 74
2, 288368, Note_off_c, 0, 81, 100
2, 288384, Note_on_c, 0, 81, 75
2, 288416, Note_off_c, 0, 79, 100
2, 288432, Note_on_c, 0, 79, 75
2, 288468, Note_off_c, 0, 81, 100
2, 288480, Note_on_c, 0, 81, 76
2, 288520, Note_off_c, 0, 79, 100
2, 288528, Note_on_c, 0, 79, 77
2, 288560, Note_off_c, 0, 81, 100
2, 288576, Note_on_c, 0, 81, 77
2, 288608, Note_off_c, 0, 79, 100
2, 288624, Note_on_c, 0, 79, 78
2, 288660, Note_off_c, 0, 81, 100
2, 288672, Note_on_c, 0, 81, 79
2, 288712, Note_off_c, 0, 79, 100
2, 288720, Note_on_c, 0, 79, 79
2, 288752, Note_off_c, 0, 81, 100
2, 288768, Note_on_c, 0, 81, 80
2, 288800, Note_off_c, 0, 79, 100
2, 288816, Note_on_c, 0, 79, 80
2, 288852, Note_off_c, 0, 81, 100
2, 288864, Note_on_c, 0, 81, 81
2, 288904, Note_off_c, 0, 79, 100
2, 288912, Note_on_c, 0, 79, 82
2, 288944, Note_off_c, 0, 81, 100
2, 288960, Note_on_c, 0, 81, 82
2, 288992, Note_off_c, 0, 79, 100
2, 289008, Note_on_c, 0, 79, 83
2, 289044, Note_off_c, 0, 81, 100
2, 289056, Note_on_c, 0, 81, 84
2, 289096, Note_off_c, 0, 79, 100
2, 289104, Note_on_c, 0, 79, 84
2, 289136, Note_off_c, 0, 81, 100
2, 289152, Note_on_c, 0, 81, 85
2, 289184, Note_off_c, 0, 79, 100
2, 289200, Note_on_c, 0, 79, 86
2, 289236, Note_off_c, 0, 81, 100
2, 289248, Note_on_c, 0, 81, 86
2, 289288, Note_off_c, 0, 79, 100
2, 289296, Note_on_c, 0, 79, 87
2, 289328, Note_off_c, 0, 81, 100
2, 289344, Note_on_c, 0, 81, 88
2, 289376, Note_off_c, 0, 79, 100
2, 289392, Note_on_c, 0, 79, 88
2, 289428, Note_off_c, 0, 81, 100
2, 289440, Note_on_c, 0, 81, 89
2, 289480, Note_off_c, 0, 79, 100
2, 289488, Note_on_c, 0, 79, 89
2, 289520, Note_off_c, 0, 81, 100
2, 289536, Note_on_c, 0, 81, 90
2, 289568, Note_off_c, 0, 79, 100
2, 289584, Note_on_c, 0, 79, 91
2, 289620, Note_off_c, 0, 81, 100
2, 289632, Note_on_c, 0, 81, 91
2, 289672, Note_off_c, 0, 79, 100
2, 289680, Note_on_c, 0, 79, 92
2, 289712, Note_off_c, 0, 81, 100
2, 289728, Note_on_c, 0, 81, 93
2, 289760, Note_off_c, 0, 79, 100
2, 289776, Note_on_c, 0, 79, 93
2, 289812, Note_off_c, 0, 81, 100
2, 289824, Note_on_c, 0, 81, 94
2, 289864, Note_off_c, 0, 79, 100
2, 289872, Note_on_c, 0, 79, 95
2, 289904, Note_off_c, 0, 81, 100
2, 289920, Note_on_c, 0, 81, 95
2, 289952, Note_off_c, 0, 79, 100
2, 289968, Note_on_c, 0, 79, 96
2, 290004, Note_off_c, 0, 81, 100
2, 290016, Note_on_c, 0, 81, 97
2, 290056, Note_off_c, 0, 79, 100
2, 290064, Note_on_c, 0, 79, 97
2, 290096, Note_off_c, 0, 81, 100
2, 290112, Note_on_c, 0, 81, 98
2, 290144, Note_off_c, 0, 79, 100
2, 290160, Note_on_c, 0, 79, 98
2, 290196, Note_off_c, 0, 81, 100
2, 290208, Note_on_c, 0, 81, 99
2, 290248, Note_off_c, 0, 79, 100
2, 290256, Note_on_c, 0, 79, 100
2, 290288, Note_off_c, 0, 81, 100
2, 290304, Note_on_c, 0, 81, 100
2, 290336, Note_off_c, 0, 79, 100
2, 290352, Note_on_c, 0, 79, 101
2, 290388, Note_off_c, 0, 81, 100
2, 290400, Note_on_c, 0, 81, 102
2, 290440, Note_off_c, 0, 79, 100
2, 290448, Note_on_c, 0, 79, 102
2, 290480, Note_off_c, 0, 81, 100
2, 290496, Note_on_c, 0, 81, 103
2, 290528, Note_off_c, 0, 79, 100
2, 290544, Note_on_c, 0, 79, 104
2, 290580, Note_off_c, 0, 81, 100
2, 290592, Note_on_c, 0, 81, 104
2, 290632, Note_off_c, 0, 79, 100
2, 290640, Note_on_c, 0, 79, 105
2, 290672, Note_off_c, 0, 81, 100
2, 290688, Note_on_c, 0, 81, 106
2, 290720, Note_off_c, 0, 79, 100
2, 290736, Note_on_c, 0, 79, 106
2, 290772, Note_off_c, 0, 81, 100
2, 290784, Note_on_c, 0, 81, 107
2, 290824, Note_off_c, 0, 79, 100
2, 290832, Note_on_c, 0, 79, 108
2, 290864, Note_off_c, 0, 81, 100
2, 290880, Note_on_c, 0, 81, 108
2, 290912, Note_off_c, 0, 79, 100
2, 290928, Note_on_c, 0, 79, 109
2, 290964, Note_off_c, 0, 81, 100
2, 290976, Note_on_c, 0, 81, 109
2, 291016, Note_off_c, 0, 79, 100
2, 291024, Note_on_c, 0, 79, 120
2, 291056, Note_off_c, 0, 81, 100
2, 291072, Control_c, 0, 64, 127
2, 291072, Note_on_c, 0, 81, 120
2, 291104, Note_off_c, 0, 79, 100
2, 291120, Note_on_c, 0, 79, 120
2, 291156, Note_off_c, 0, 81, 100
2, 291168, Note_on_c, 0, 81, 120
2, 291208, Note_off_c, 0, 79, 100
2, 291216, Note_on_c, 0, 79, 120
2, 291248, Note_off_c, 0, 81, 100
2, 291264, Note_on_c, 0, 81, 120
2, 291296, Note_off_c, 0, 79, 100
2, 291312, Note_on_c, 0, 79, 120
2, 291348, Note_off_c, 0, 81, 100
2, 291360, Note_on_c, 0, 81, 120
2, 291400, Note_off_c, 0, 79, 100
2, 291408, Note_on_c, 0, 79, 120
2, 291440, Note_off_c, 0, 81, 100
2, 291456, Note_on_c, 0, 81, 120
2, 291456, Note_on_c, 0, 91, 120
2, 291488, Note_off_c, 0, 79, 100
2, 291504, Note_on_c, 0, 79, 120
2, 291540, Note_off_c, 0, 81, 100
2, 291552, Note_on_c, 0, 81, 120
2, 291592, Note_off_c, 0, 79, 100
2, 291600, Note_on_c, 0, 79, 120
2, 291632, Note_off_c, 0, 81, 100
2, 291648, Note_on_c, 0, 81, 120
2, 291680, Note_off_c, 0, 79, 100
2, 291696, Note_on_c, 0, 79, 120
2, 291732, Note_off_c, 0, 81, 100
2, 291744, Note_on_c, 0, 81, 120
2, 291784, Note_off_c, 0, 79, 100
2, 291792, Note_on_c, 0, 79, 120
2, 291824, Note_off_c, 0, 81, 100
2, 291836, Note_off_c, 0, 91, 100
2, 291840, Note_on_c, 0, 81, 120
2, 291840, Note_on_c, 0, 91, 120
2, 291872, Note_off_c, 0, 79, 100
2, 291888, Note_on_c, 0, 79, 120
2, 291924, Note_off_c, 0, 81, 100
2, 291936, Note_on_c, 0, 81, 120
2, 291976, Note_off_c, 0, 79, 100
2, 291984, Note_on_c, 0, 79, 120
2, 292016, Note_off_c, 0, 81, 100
2, 292032, Note_on_c, 0, 81, 120
2, 292064, Note_off_c, 0, 79, 100
2, 292080, Note_on_c, 0, 79, 120
2, 292116, Note_off_c, 0, 81, 100
2, 292128, Note_on_c, 0, 81, 120
2, 292168, Note_off_c, 0, 79, 100
2, 292176, Note_on_c, 0, 79, 120
2, 292208, Note_off_c, 0, 81, 100
2, 292224, Note_on_c, 0, 81, 120
2, 292256, Note_off_c, 0, 79, 100
2, 292272, Note_on_c, 0, 79, 120
2, 292308, Note_off_c, 0, 81, 100
2, 292320, Note_on_c, 0, 81, 120
2, 292360, Note_off_c, 0, 79, 100
2, 292368, Note_on_c, 0, 79, 120
2, 292400, Note_off_c, 0, 81, 100
2, 292416, Note_on_c, 0, 81, 120
2, 292416, Note_on_c, 0, 88, 120
2, 292448, Note_off_c, 0, 79, 100
2, 292464, Note_on_c, 0, 79, 120
2, 292500, Note_off_c, 0, 81, 100
2, 292512, Note_on_c, 0, 81, 120
2, 292552, Note_off_c, 0, 79, 100
2, 292560, Note_on_c, 0, 79, 120
2, 292592, Note_off_c, 0, 81, 100
2, 292600, Control_c, 0, 64, 0
2, 292604, Note_off_c, 0, 91, 100
2, 292604, Note_off_c, 0, 88, 100
2, 292608, Note_on_c, 0, 81, 120
2, 292608, Note_on_c, 0, 86, 120
2, 292640, Note_off_c, 0, 79, 100
2, 292656, Note_on_c, 0, 79, 120
2, 292692, Note_off_c, 0, 81, 100
2, 292704, Note_on_c, 0, 81, 120
2, 292744, Note_off_c, 0, 79, 100
2, 292752, Note_on_c, 0, 79, 120
2, 292784, Note_off_c, 0, 81, 100
2, 292800, Note_on_c, 0, 81, 120
2, 292832, Note_off_c, 0, 79, 100
2, 292848, Note_on_c, 0, 79, 120
2, 292884, Note_off_c, 0, 81, 100
2, 292896, Note_on_c, 0, 81, 120
2, 292936, Note_off_c, 0, 79, 100
2, 292944, Note_on_c, 0, 79, 120
2, 292976, Note_off_c, 0, 81, 100
2, 292988, Note_off_c, 0, 86, 100
2, 292992, Note_on_c, 0, 81, 120
2, 292992, Note_on_c, 0, 79, 120
2, 293024, Note_off_c, 0, 79, 100
2, 293040, Note_on_c, 0, 79, 120
2, 293076, Note_off_c, 0, 81, 100
2, 293088, Note_on_c, 0, 81, 120
2, 293128, Note_off_c, 0, 79, 100
2, 293136, Note_on_c, 0, 79, 120
2, 293168, Note_off_c, 0, 81, 100
2, 293184, Note_on_c, 0, 81, 120
2, 293216, Note_off_c, 0, 79, 100
2, 293232, Note_on_c, 0, 79, 120
2, 293268, Note_off_c, 0, 81, 100
2, 293280, Note_on_c, 0, 81, 120
2, 293320, Note_off_c, 0, 79, 100
2, 293328, Note_on_c, 0, 79, 120
2, 293360, Note_off_c, 0, 81, 100
2, 293372, Note_off_c, 0, 79, 100
2, 293376, Note_on_c, 0, 81, 120
2, 293376, Note_on_c, 0, 84, 120
2, 293408, Note_off_c, 0, 79, 100
2, 293424, Note_on_c, 0, 79, 120
2, 293460, Note_off_c, 0, 81, 100
2, 293472, Note_on_c, 0, 81, 120
2, 293512, Note_off_c, 0, 79, 100
2, 293520, Note_on_c, 0, 79, 120
2, 293552, Note_off_c, 0, 81, 100
2, 293568, Note_on_c, 0, 81, 120
2, 293600, Note_off_c, 0, 79, 100
2, 293616, Note_on_c, 0, 79, 120
2, 293652, Note_off_c, 0, 81, 100
2, 293664, Note_on_c, 0, 81, 120
2, 293704, Note_off_c, 0, 79, 100
2, 293712, Note_on_c, 0, 79, 120
2, 293744, Note_off_c, 0, 81, 100
2, 293756, Note_off_c, 0, 84, 100
2, 293760, Note_on_c, 0, 81, 120
2, 293760, Note_on_c, 0, 88, 120
2, 293792, Note_off_c, 0, 79, 100
2, 293808, Note_on_c, 0, 79, 120
2, 293844, Note_off_c, 0, 81, 100
2, 293856, Note_on_c, 0, 81, 120
2, 293896, Note_off_c, 0, 79, 100
2, 293904, Note_on_c, 0, 79, 120
2, 293936, Note_off_c, 0, 81, 100
2, 293952, Note_on_c, 0, 81, 120
2, 293984, Note_off_c, 0, 79, 100
2, 294000, Note_on_c, 0, 79, 120
2, 294036, Note_off_c, 0, 81, 100
2, 294048, Note_on_c, 0, 81, 120
2, 294088, Note_off_c, 0, 79, 100
2, 294096, Note_on_c, 0, 79, 120
2, 294128, Note_off_c, 0, 81, 100
2, 294140, Note_off_c, 0, 88, 100
2, 294144, Control_c, 0, 64, 127
2, 294144, Note_on_c, 0, 81, 120
2, 294176, Note_off_c, 0, 79, 100
2, 294192, Note_on_c, 0, 79, 120
2, 294228, Note_off_c, 0, 81, 100
2, 294240, Note_on_c, 0, 81, 120
2, 294280, Note_off_c, 0, 79, 100
2, 294288, Note_on_c, 0, 79, 120
2, 294320, Note_off_c, 0, 81, 100
2, 294336, Note_on_c, 0, 81, 120
2, 294368, Note_off_c, 0, 79, 100
2, 294384, Note_on_c, 0, 79, 120
2, 294420, Note_off_c, 0, 81, 100
2, 294432, Note_on_c, 0, 81, 120
2, 294472, Note_off_c, 0, 79, 100
2, 294480, Note_on_c, 0, 79, 120
2, 294512, Note_off_c, 0, 81, 100
2, 294528, Note_on_c, 0, 81, 120
2, 294528, Note_on_c, 0, 91, 120
2, 294560, Note_off_c, 0, 79, 100
2, 294576, Note_on_c, 0, 79, 120
2, 294612, Note_off_c, 0, 81, 100
2, 294624, Note_on_c, 0, 81, 120
2, 294664, Note_off_c, 0, 79, 100
2, 294672, Note_on_c, 0, 79, 120
2, 294704, Note_off_c, 0, 81, 100
2, 294720, Note_on_c, 0, 81, 120
2, 294752, Note_off_c, 0, 79, 100
2, 294768, Note_on_c, 0, 79, 120
2, 294804, Note_off_c, 0, 81, 100
2, 294816, Note_on_c, 0, 81, 120
2, 294856, Note_off_c, 0, 79, 100
2, 294864, Note_on_c, 0, 79, 120
2, 294896, Note_off_c, 0, 81, 100
2, 294908, Note_off_c, 0, 91, 100
2, 294912, Note_on_c, 0, 81, 120
2, 294912, Note_on_c, 0, 91, 120
2, 294944, Note_off_c, 0, 79, 100
2, 294960, Note_on_c, 0, 79, 120
2, 294996, Note_off_c, 0, 81, 100
2, 295008, Note_on_c, 0, 81, 120
2, 295048, Note_off_c, 0, 79, 100
2, 295056, Note_on_c, 0, 79, 120
2, 295088, Note_off_c, 0, 81, 100
2, 295104, Note_on_c, 0, 81, 120
2, 295136, Note_off_c, 0, 79, 100
2, 295152, Note_on_c, 0, 79, 120
2, 295188, Note_off_c, 0, 81, 100
2, 295200, Note_on_c, 0, 81, 120
2, 295240, Note_off_c, 0, 79, 100
2, 295248, Note_on_c, 0, 79, 120
2, 295280, Note_off_c, 0, 81, 100
2, 295296, Note_on_c, 0, 81, 120
2, 295328, Note_off_c, 0, 79, 100
2, 295344, Note_on_c, 0, 79, 120
2, 295380, Note_off_c, 0, 81, 100
2, 295392, Note_on_c, 0, 81, 120
2, 295432, Note_off_c, 0, 79, 100
2, 295440, Note_on_c, 0, 79, 120
2, 295472, Note_off_c, 0, 81, 100
2, 295488, Note_on_c, 0, 81, 120
2, 295488, Note_on_c, 0, 88, 120
2, 295520, Note_off_c, 0, 79, 100
2, 295536, Note_on_c, 0, 79, 120
2, 295572, Note_off_c, 0, 81, 100
2, 295584, Note_on_c, 0, 81, 120
2, 295624, Note_off_c, 0, 79, 100
2, 295632, Note_on_c, 0, 79, 120
2, 295664, Note_off_c, 0, 81, 100
2, 295672, Control_c, 0, 64, 0
2, 295676, Note_off_c, 0, 91, 100
2, 295676, Note_off_c, 0, 88, 100
2, 295680, Note_on_c, 0, 81, 120
2, 295680, Note_on_c, 0, 86, 120
2, 295712, Note_off_c, 0, 79, 100
2, 295728, Note_on_c, 0, 79, 120
2, 295764, Note_off_c, 0, 81, 100
2, 295776, Note_on_c, 0, 81, 120
2, 295816, Note_off_c, 0, 79, 100
2, 295824, Note_on_c, 0, 79, 120
2, 295856, Note_off_c, 0, 81, 100
2, 295872, Note_on_c, 0, 81, 120
2, 295904, Note_off_c, 0, 79, 100
2, 295920, Note_on_c, 0, 79, 120
2, 295956, Note_off_c, 0, 81, 100
2, 295968, Note_on_c, 0, 81, 120
2, 296008, Note_off_c, 0, 79, 100
2, 296016, Note_on_c, 0, 79, 120
2, 296048, Note_off_c, 0, 81, 100
2, 296060, Note_off_c, 0, 86, 100
2, 296064, Note_on_c, 0, 81, 120
2, 296064, Note_on_c, 0, 79, 120
2, 296096, Note_off_c, 0, 79, 100
2, 296112, Note_on_c, 0, 79, 120
2, 296148, Note_off_c, 0, 81, 100
2, 296160, Note_on_c, 0, 81, 120
2, 296200, Note_off_c, 0, 79, 100
2, 296208, Note_on_c, 0, 79, 120
2, 296240, Note_off_c, 0, 81, 100
2, 296256, Note_on_c, 0, 81, 120
2, 296288, Note_off_c, 0, 79, 100
2, 296304, Note_on_c, 0, 79, 120
2, 296340, Note_off_c, 0, 81, 100
2, 296352, Note_on_c, 0, 78, 120
2, 296392, Note_off_c, 0, 79, 100
2, 296400, Note_on_c, 0, 79, 120
2, 296432, Note_off_c, 0, 78, 100
2, 296444, Note_off_c, 0, 79, 100
2, 296444, Note_off_c, 0, 79, 100
2, 296448, Note_on_c, 0, 84, 120
2, 296636, Note_off_c, 0, 84, 100
2, 296832, Note_on_c, 0, 60, 110
2, 296896, Note_on_c, 0, 64, 110
2, 296960, Note_on_c, 0, 60, 110
2, 296968, Note_off_c, 0, 60, 100
2, 297016, Note_off_c, 0, 64, 100
2, 297024, Note_on_c, 0, 55, 110
2, 297076, Note_off_c, 0, 60, 100
2, 297088, Note_on_c, 0, 52, 110
2, 297144, Note_off_c, 0, 55, 100
2, 297152, Note_on_c, 0, 55, 110
2, 297196, Note_off_c, 0, 52, 100
2, 297216, Note_on_c, 0, 60, 110
2, 297260, Note_off_c, 0, 55, 100
2, 297280, Note_on_c, 0, 65, 110
2, 297328, Note_off_c, 0, 60, 100
2, 297344, Note_on_c, 0, 60, 110
2, 297396, Note_off_c, 0, 65, 100
2, 297408, Note_on_c, 0, 57, 110
2, 297472, Note_off_c, 0, 60, 100
2, 297472, Note_on_c, 0, 53, 110
2, 297536, Note_off_c, 0, 57, 100
2, 297536, Note_on_c, 0, 57, 110
2, 297596, Note_off_c, 0, 53, 100
2, 297600, Note_on_c, 0, 60, 110
2, 297652, Note_off_c, 0, 57, 100
2, 297664, Note_on_c, 0, 64, 110
2, 297724, Note_off_c, 0, 60, 100
2, 297728, Note_on_c, 0, 60, 110
2, 297792, Note_on_c, 0, 55, 110
2, 297796, Note_off_c, 0, 64, 100
2, 297856, Note_on_c, 0, 52, 110
2, 297860, Note_off_c, 0, 60, 100
2, 297916, Note_off_c, 0, 55, 100
2, 297920, Note_on_c, 0, 55, 110
2, 297972, Note_off_c, 0, 52, 100
2, 297984, Note_on_c, 0, 60, 110
2, 298040, Note_off_c, 0, 55, 100
2, 298048, Note_on_c, 0, 62, 110
2, 298100, Note_off_c, 0, 60, 100
2, 298112, Note_on_c, 0, 60, 110
2, 298176, Note_on_c, 0, 53, 110
2, 298192, Note_off_c, 0, 62, 100
2, 298240, Note_on_c, 0, 50, 110
2, 298252, Note_off_c, 0, 60, 100
2, 298304, Note_off_c, 0, 53, 100
2, 298304, Note_on_c, 0, 53, 110
2, 298352, Note_off_c, 0, 50, 100
2, 298368, Note_on_c, 0, 60, 110
2, 298424, Note_off_c, 0, 53, 100
2, 298432, Note_on_c, 0, 63, 110
2, 298484, Note_off_c, 0, 60, 100
2, 298496, Note_on_c, 0, 60, 110
2, 298556, Note_off_c, 0, 63, 100
2, 298560, Note_on_c, 0, 54, 110
2, 298624, Note_on_c, 0, 51, 110
2, 298632, Note_off_c, 0, 60, 100
2, 298688, Note_on_c, 0, 54, 110
2, 298700, Note_off_c, 0, 54, 100
2, 298752, Note_off_c, 0, 51, 100
2, 298752, Note_on_c, 0, 60, 110
2, 298816, Note_on_c, 0, 64, 110
2, 298824, Note_off_c, 0, 54, 100
2, 298872, Note_off_c, 0, 60, 100
2, 298880, Note_on_c, 0, 60, 110
2, 298944, Note_on_c, 0, 55, 110
2, 298956, Note_off_c, 0, 64, 100
2, 299008, Note_on_c, 0, 52, 110
2, 299012, Note_off_c, 0, 60, 100
2, 299072, Note_on_c, 0, 55, 110
2, 299080, Note_off_c, 0, 55, 100
2, 299120, Note_off_c, 0, 52, 100
2, 299136, Note_on_c, 0, 59, 110
2, 299200, Note_on_c, 0, 62, 110
2, 299204, Note_off_c, 0, 55, 100
2, 299260, Note_off_c, 0, 59, 100
2, 299264, Note_on_c, 0, 59, 110
2, 299328, Note_on_c, 0, 53, 110
2, 299340, Note_off_c, 0, 62, 100
2, 299392, Note_on_c, 0, 50, 110
2, 299408, Note_off_c, 0, 59, 100
2, 299456, Note_on_c, 0, 53, 110
2, 299464, Note_off_c, 0, 53, 100
2, 299500, Note_off_c, 0, 50, 100
2, 299520, Note_on_c, 0, 55, 110
2, 299584, Note_on_c, 0, 60, 110
2, 299600, Note_off_c, 0, 53, 100
2, 299632, Note_off_c, 0, 55, 100
2, 299648, Note_on_c, 0, 55, 110
2, 299712, Note_on_c, 0, 52, 110
2, 299716, Note_off_c, 0, 60, 100
2, 299768, Note_off_c, 0, 55, 100
2, 299776, Note_on_c, 0, 48, 110
2, 299836, Note_off_c, 0, 52, 100
2, 299840, Note_on_c, 0, 52, 110
2, 299904, Note_off_c, 0, 48, 100
2, 299904, Note_on_c, 0, 64, 110
2, 299968, Note_off_c, 0, 52, 100
2, 299968, Note_on_c, 0, 67, 110
2, 300028, Note_off_c, 0, 64, 100
2, 300032, Note_on_c, 0, 64, 110
2, 300096, Note_on_c, 0, 60, 110
2, 300100, Note_off_c, 0, 67, 100
2, 300156, Note_off_c, 0, 64, 100
2, 300160, Note_on_c, 0, 55, 110
2, 300212, Note_off_c, 0, 60, 100
2, 300224, Note_on_c, 0, 60, 110
2, 300272, Note_off_c, 0, 55, 100
2, 300288, Note_on_c, 0, 65, 110
2, 300332, Note_off_c, 0, 60, 100
2, 300352, Note_on_c, 0, 69, 110
2, 300408, Note_off_c, 0, 65, 100
2, 300416, Note_on_c, 0, 65, 110
2, 300464, Note_off_c, 0, 69, 100
2, 300480, Note_on_c, 0, 60, 110
2, 300544, Note_on_c, 0, 57, 110
2, 300548, Note_off_c, 0, 65, 100
2, 300596, Note_off_c, 0, 60, 100
2, 300608, Note_on_c, 0, 60, 110
2, 300672, Note_on_c, 0, 64, 110
2, 300680, Note_off_c, 0, 57, 100
2, 300736, Note_on_c, 0, 67, 110
2, 300760, Note_off_c, 0, 60, 100
2, 300800, Note_off_c, 0, 64, 100
2, 300800, Note_on_c, 0, 64, 110
2, 300852, Note_off_c, 0, 67, 100
2, 300864, Note_on_c, 0, 60, 110
2, 300928, Note_on_c, 0, 55, 110
2, 300932, Note_off_c, 0, 64, 100
2, 300992, Note_off_c, 0, 60, 100
2, 300992, Note_on_c, 0, 60, 110
2, 301048, Note_off_c, 0, 55, 100
2, 301056, Note_on_c, 0, 62, 110
2, 301120, Note_off_c, 0, 60, 100
2, 301120, Note_on_c, 0, 65, 110
2, 301184, Note_off_c, 0, 62, 100
2, 301184, Note_on_c, 0, 62, 110
2, 301248, Note_off_c, 0, 65, 100
2, 301248, Note_on_c, 0, 60, 110
2, 301304, Note_off_c, 0, 62, 100
2, 301312, Note_on_c, 0, 53, 110
2, 301376, Note_off_c, 0, 60, 100
2, 301376, Note_on_c, 0, 60, 110
2, 301440, Note_on_c, 0, 63, 110
2, 301444, Note_off_c, 0, 53, 100
2, 301500, Note_off_c, 0, 60, 100
2, 301504, Note_on_c, 0, 66, 110
2, 301568, Note_on_c, 0, 63, 110
2, 301572, Note_off_c, 0, 63, 100
2, 301616, Note_off_c, 0, 66, 100
2, 301632, Note_on_c, 0, 60, 110
2, 301688, Note_off_c, 0, 63, 100
2, 301696, Note_on_c, 0, 54, 110
2, 301760, Note_on_c, 0, 60, 110
2, 301784, Note_off_c, 0, 60, 100
2, 301824, Note_on_c, 0, 64, 110
2, 301832, Note_off_c, 0, 54, 100
2, 301888, Note_on_c, 0, 67, 110
2, 301896, Note_off_c, 0, 60, 100
2, 301948, Note_off_c, 0, 64, 100
2, 301952, Note_on_c, 0, 64, 110
2, 302012, Note_off_c, 0, 67, 100
2, 302016, Note_on_c, 0, 60, 110
2, 302076, Note_off_c, 0, 64, 100
2, 302080, Note_on_c, 0, 55, 110
2, 302144, Note_off_c, 0, 60, 100
2, 302144, Note_on_c, 0, 60, 110
2, 302208, Note_on_c, 0, 62, 110
2, 302220, Note_off_c, 0, 55, 100
2, 302272, Note_on_c, 0, 65, 110
2, 302300, Note_off_c, 0, 60, 100
2, 302328, Note_off_c, 0, 62, 100
2, 302336, Note_on_c, 0, 62, 110
2, 302384, Note_off_c, 0, 65, 100
2, 302400, Note_on_c, 0, 59, 110
2, 302464, Note_on_c, 0, 53, 110
2, 302476, Note_off_c, 0, 62, 100
2, 302524, Note_off_c, 0, 59, 100
2, 302528, Note_on_c, 0, 59, 110
2, 302584, Note_off_c, 0, 53, 100
2, 302592, Note_on_c, 0, 60, 110
2, 302656, Note_on_c, 0, 64, 110
2, 302664, Note_off_c, 0, 59, 100
2, 302720, Note_off_c, 0, 60, 100
2, 302720, Note_on_c, 0, 60, 110
2, 302784, Note_on_c, 0, 55, 110
2, 302804, Note_off_c, 0, 64, 100
2, 302848, Note_on_c, 0, 52, 110
2, 302868, Note_off_c, 0, 60, 100
2, 302908, Note_off_c, 0, 55, 100
2, 302912, Note_on_c, 0, 55, 110
2, 302956, Note_off_c, 0, 52, 100
2, 302976, Note_on_c, 0, 67, 110
2, 303028, Note_off_c, 0, 55, 100
2, 303040, Note_on_c, 0, 72, 110
2, 303080, Note_off_c, 0, 67, 100
2, 303104, Note_on_c, 0, 67, 110
2, 303148, Note_off_c, 0, 72, 100
2, 303168, Note_on_c, 0, 64, 110
2, 303220, Note_off_c, 0, 67, 100
2, 303232, Note_on_c, 0, 60, 110
2, 303276, Note_off_c, 0, 64, 100
2, 303296, Note_on_c, 0, 64, 110
2, 303340, Note_off_c, 0, 60, 100
2, 303360, Note_on_c, 0, 69, 110
2, 303408, Note_off_c, 0, 64, 100
2, 303424, Note_on_c, 0, 72, 110
2, 303472, Note_off_c, 0, 69, 100
2, 303488, Note_on_c, 0, 69, 110
2, 303528, Note_off_c, 0, 72, 100
2, 303552, Note_on_c, 0, 65, 110
2, 303596, Note_off_c, 0, 69, 100
2, 303616, Note_on_c, 0, 60, 110
2, 303672, Note_off_c, 0, 65, 100
2, 303680, Note_on_c, 0, 65, 110
2, 303720, Note_off_c, 0, 60, 100
2, 303744, Note_on_c, 0, 67, 110
2, 303776, Note_off_c, 0, 65, 100
2, 303808, Note_on_c, 0, 72, 110
2, 303848, Note_off_c, 0, 67, 100
2, 303872, Note_on_c, 0, 67, 110
2, 303920, Note_off_c, 0, 72, 100
2, 303936, Note_on_c, 0, 64, 110
2, 303976, Note_off_c, 0, 67, 100
2, 304000, Note_on_c, 0, 60, 110
2, 304044, Note_off_c, 0, 64, 100
2, 304064, Note_on_c, 0, 64, 110
2, 304112, Note_off_c, 0, 60, 100
2, 304128, Note_on_c, 0, 65, 110
2, 304172, Note_off_c, 0, 64, 100
2, 304192, Note_on_c, 0, 72, 110
2, 304236, Note_off_c, 0, 65, 100
2, 304256, Note_on_c, 0, 65, 110
2, 304300, Note_off_c, 0, 72, 100
2, 304320, Note_on_c, 0, 62, 110
2, 304376, Note_off_c, 0, 65, 100
2, 304384, Note_on_c, 0, 60, 110
2, 304436, Note_off_c, 0, 62, 100
2, 304448, Note_on_c, 0, 62, 110
2, 304496, Note_off_c, 0, 60, 100
2, 304512, Note_on_c, 0, 66, 110
2, 304572, Note_off_c, 0, 62, 100
2, 304576, Note_on_c, 0, 72, 110
2, 304624, Note_off_c, 0, 66, 100
2, 304640, Note_on_c, 0, 66, 110
2, 304684, Note_off_c, 0, 72, 100
2, 304704, Note_on_c, 0, 63, 110
2, 304748, Note_off_c, 0, 66, 100
2, 304768, Note_on_c, 0, 60, 110
2, 304816, Note_off_c, 0, 63, 100
2, 304832, Note_on_c, 0, 63, 110
2, 304888, Note_off_c, 0, 60, 100
2, 304896, Note_on_c, 0, 67, 110
2, 304956, Note_off_c, 0, 63, 100
2, 304960, Note_on_c, 0, 72, 110
2, 304996, Note_off_c, 0, 67, 100
2, 305024, Note_on_c, 0, 67, 110
2, 305064, Note_off_c, 0, 72, 100
2, 305088, Note_on_c, 0, 64, 110
2, 305140, Note_off_c, 0, 67, 100
2, 305152, Note_on_c, 0, 60, 110
2, 305196, Note_off_c, 0, 64, 100
2, 305216, Note_on_c, 0, 64, 110
2, 305268, Note_off_c, 0, 60, 100
2, 305280, Note_on_c, 0, 65, 110
2, 305336, Note_off_c, 0, 64, 100
2, 305344, Note_on_c, 0, 71, 110
2, 305380, Note_off_c, 0, 65, 100
2, 305408, Note_on_c, 0, 65, 110
2, 305464, Note_off_c, 0, 71, 100
2, 305472, Note_on_c, 0, 62, 110
2, 305524, Note_off_c, 0, 65, 100
2, 305536, Note_on_c, 0, 59, 110
2, 305588, Note_off_c, 0, 62, 100
2, 305600, Note_on_c, 0, 62, 110
2, 305648, Note_off_c, 0, 59, 100
2, 305664, Note_on_c, 0, 67, 110
2, 305708, Note_off_c, 0, 62, 100
2, 305728, Note_on_c, 0, 72, 110
2, 305776, Note_off_c, 0, 67, 100
2, 305792, Note_on_c, 0, 67, 110
2, 305840, Note_off_c, 0, 72, 100
2, 305856, Note_on_c, 0, 64, 110
2, 305896, Note_off_c, 0, 67, 100
2, 305920, Note_on_c, 0, 60, 110
2, 305964, Note_off_c, 0, 64, 100
2, 305984, Note_on_c, 0, 64, 110
2, 306028, Note_off_c, 0, 60, 100
2, 306048, Note_on_c, 0, 72, 110
2, 306100, Note_off_c, 0, 64, 100
2, 306112, Note_on_c, 0, 76, 110
2, 306164, Note_off_c, 0, 72, 100
2, 306176, Note_on_c, 0, 72, 110
2, 306236, Note_off_c, 0, 76, 100
2, 306240, Note_on_c, 0, 67, 110
2, 306292, Note_off_c, 0, 72, 100
2, 306304, Note_on_c, 0, 64, 110
2, 306360, Note_off_c, 0, 67, 100
2, 306368, Note_on_c, 0, 67, 110
2, 306416, Note_off_c, 0, 64, 100
2, 306432, Note_on_c, 0, 72, 110
2, 306484, Note_off_c, 0, 67, 100
2, 306496, Note_on_c, 0, 77, 110
2, 306556, Note_off_c, 0, 72, 100
2, 306560, Note_on_c, 0, 72, 110
2, 306608, Note_off_c, 0, 77, 100
2, 306624, Note_on_c, 0, 69, 110
2, 306676, Note_off_c, 0, 72, 100
2, 306688, Note_on_c, 0, 65, 110
2, 306740, Note_off_c, 0, 69, 100
2, 306752, Note_on_c, 0, 69, 110
2, 306796, Note_off_c, 0, 65, 100
2, 306816, Note_on_c, 0, 72, 110
2, 306868, Note_off_c, 0, 69, 100
2, 306880, Note_on_c, 0, 76, 110
2, 306932, Note_off_c, 0, 72, 100
2, 306944, Note_on_c, 0, 72, 110
2, 307000, Note_off_c, 0, 76, 100
2, 307008, Note_on_c, 0, 67, 110
2, 307060, Note_off_c, 0, 72, 100
2, 307072, Note_on_c, 0, 64, 110
2, 307128, Note_off_c, 0, 67, 100
2, 307136, Note_on_c, 0, 67, 110
2, 307188, Note_off_c, 0, 64, 100
2, 307200, Note_on_c, 0, 72, 110
2, 307260, Note_off_c, 0, 67, 100
2, 307264, Note_on_c, 0, 74, 110
2, 307292, Note_off_c, 0, 72, 100
2, 307328, Note_on_c, 0, 72, 110
2, 307364, Note_off_c, 0, 74, 100
2, 307392, Note_on_c, 0, 65, 110
2, 307436, Note_off_c, 0, 72, 100
2, 307456, Note_on_c, 0, 62, 110
2, 307500, Note_off_c, 0, 65, 100
2, 307520, Note_on_c, 0, 65, 110
2, 307560, Note_off_c, 0, 62, 100
2, 307584, Note_on_c, 0, 72, 110
2, 307628, Note_off_c, 0, 65, 100
2, 307648, Note_on_c, 0, 75, 110
2, 307704, Note_off_c, 0, 72, 100
2, 307712, Note_on_c, 0, 72, 110
2, 307764, Note_off_c, 0, 75, 100
2, 307776, Note_on_c, 0, 66, 110
2, 307820, Note_off_c, 0, 72, 100
2, 307840, Note_on_c, 0, 63, 110
2, 307880, Note_off_c, 0, 66, 100
2, 307904, Note_on_c, 0, 66, 110
2, 307948, Note_off_c, 0, 63, 100
2, 307968, Note_on_c, 0, 72, 110
2, 308012, Note_off_c, 0, 66, 100
2, 308032, Note_on_c, 0, 76, 110
2, 308080, Note_off_c, 0, 72, 100
2, 308096, Note_on_c, 0, 72, 110
2, 308136, Note_off_c, 0, 76, 100
2, 308160, Note_on_c, 0, 67, 110
2, 308204, Note_off_c, 0, 72, 100
2, 308224, Note_on_c, 0, 64, 110
2, 308264, Note_off_c, 0, 67, 100
2, 308288, Note_on_c, 0, 67, 110
2, 308336, Note_off_c, 0, 64, 100
2, 308352, Note_on_c, 0, 71, 110
2, 308388, Note_off_c, 0, 67, 100
2, 308416, Note_on_c, 0, 74, 110
2, 308472, Note_off_c, 0, 71, 100
2, 308480, Note_on_c, 0, 71, 110
2, 308532, Note_off_c, 0, 74, 100
2, 308544, Note_on_c, 0, 65, 110
2, 308596, Note_off_c, 0, 71, 100
2, 308608, Note_on_c, 0, 62, 110
2, 308660, Note_off_c, 0, 65, 100
2, 308672, Note_on_c, 0, 65, 110
2, 308728, Note_off_c, 0, 62, 100
2, 308736, Note_on_c, 0, 67, 110
2, 308776, Note_off_c, 0, 65, 100
2, 308800, Note_on_c, 0, 72, 110
2, 308840, Note_off_c, 0, 67, 100
2, 308864, Note_on_c, 0, 67, 110
2, 308904, Note_off_c, 0, 72, 100
2, 308928, Note_on_c, 0, 64, 110
2, 308968, Note_off_c, 0, 67, 100
2, 308992, Note_on_c, 0, 60, 110
2, 309036, Note_off_c, 0, 64, 100
2, 309056, Note_on_c, 0, 64, 110
2, 309096, Note_off_c, 0, 60, 100
2, 309120, Note_on_c, 0, 72, 110
2, 309172, Note_off_c, 0, 64, 100
2, 309184, Note_on_c, 0, 76, 110
2, 309236, Note_off_c, 0, 72, 100
2, 309248, Note_on_c, 0, 72, 110
2, 309304, Note_off_c, 0, 76, 100
2, 309312, Note_on_c, 0, 67, 110
2, 309364, Note_off_c, 0, 72, 100
2, 309376, Note_on_c, 0, 64, 110
2, 309436, Note_off_c, 0, 67, 100
2, 309440, Note_on_c, 0, 67, 110
2, 309484, Note_off_c, 0, 64, 100
2, 309504, Note_on_c, 0, 71, 110
2, 309556, Note_off_c, 0, 67, 100
2, 309568, Note_on_c, 0, 74, 110
2, 309624, Note_off_c, 0, 71, 100
2, 309632, Note_on_c, 0, 71, 110
2, 309688, Note_off_c, 0, 74, 100
2, 309696, Note_on_c, 0, 67, 110
2, 309744, Note_off_c, 0, 71, 100
2, 309760, Note_on_c, 0, 62, 110
2, 309800, Note_off_c, 0, 67, 100
2, 309824, Note_on_c, 0, 67, 110
2, 309864, Note_off_c, 0, 62, 100
2, 309888, Note_on_c, 0, 74, 110
2, 309940, Note_off_c, 0, 67, 100
2, 309952, Note_on_c, 0, 77, 110
2, 309996, Note_off_c, 0, 74, 100
2, 310016, Note_on_c, 0, 74, 110
2, 310056, Note_off_c, 0, 77, 100
2, 310080, Note_on_c, 0, 69, 110
2, 310132, Note_off_c, 0, 74, 100
2, 310144, Note_on_c, 0, 65, 110
2, 310196, Note_off_c, 0, 69, 100
2, 310208, Note_on_c, 0, 69, 110
2, 310260, Note_off_c, 0, 65, 100
2, 310272, Note_on_c, 0, 72, 110
2, 310328, Note_off_c, 0, 69, 100
2, 310336, Note_on_c, 0, 76, 110
2, 310388, Note_off_c, 0, 72, 100
2, 310400, Note_on_c, 0, 72, 110
2, 310452, Note_off_c, 0, 76, 100
2, 310464, Note_on_c, 0, 69, 110
2, 310524, Note_off_c, 0, 72, 100
2, 310528, Note_on_c, 0, 64, 110
2, 310560, Note_off_c, 0, 69, 100
2, 310592, Note_on_c, 0, 69, 110
2, 310648, Note_off_c, 0, 64, 100
2, 310656, Note_on_c, 0, 77, 110
2, 310704, Note_off_c, 0, 69, 100
2, 310720, Note_on_c, 0, 81, 110
2, 310768, Note_off_c, 0, 77, 100
2, 310784, Note_on_c, 0, 77, 110
2, 310824, Note_off_c, 0, 81, 100
2, 310848, Note_on_c, 0, 72, 110
2, 310892, Note_off_c, 0, 77, 100
2, 310912, Note_on_c, 0, 69, 110
2, 310964, Note_off_c, 0, 72, 100
2, 310976, Note_on_c, 0, 72, 110
2, 311024, Note_off_c, 0, 69, 100
2, 311040, Note_on_c, 0, 74, 110
2, 311080, Note_off_c, 0, 72, 100
2, 311104, Note_on_c, 0, 79, 110
2, 311152, Note_off_c, 0, 74, 100
2, 311168, Note_on_c, 0, 74, 110
2, 311224, Note_off_c, 0, 79, 100
2, 311232, Note_on_c, 0, 72, 110
2, 311288, Note_off_c, 0, 74, 100
2, 311296, Note_on_c, 0, 67, 110
2, 311344, Note_off_c, 0, 72, 100
2, 311360, Note_on_c, 0, 72, 110
2, 311412, Note_off_c, 0, 67, 100
2, 311424, Note_on_c, 0, 74, 110
2, 311480, Note_off_c, 0, 72, 100
2, 311488, Note_on_c, 0, 79, 110
2, 311528, Note_off_c, 0, 74, 100
2, 311552, Note_on_c, 0, 74, 110
2, 311596, Note_off_c, 0, 79, 100
2, 311616, Note_on_c, 0, 71, 110
2, 311664, Note_off_c, 0, 74, 100
2, 311680, Note_on_c, 0, 67, 110
2, 311728, Note_off_c, 0, 71, 100
2, 311744, Note_on_c, 0, 71, 110
2, 311792, Note_off_c, 0, 67, 100
2, 311808, Note_on_c, 0, 76, 110
2, 311844, Note_off_c, 0, 71, 100
2, 311872, Note_on_c, 0, 79, 110
2, 311912, Note_off_c, 0, 76, 100
2, 311936, Note_on_c, 0, 76, 110
2, 311984, Note_off_c, 0, 79, 100
2, 312000, Note_on_c, 0, 72, 110
2, 312036, Note_off_c, 0, 76, 100
2, 312064, Note_on_c, 0, 67, 110
2, 312104, Note_off_c, 0, 72, 100
2, 312128, Note_on_c, 0, 72, 110
2, 312168, Note_off_c, 0, 67, 100
2, 312192, Note_on_c, 0, 76, 110
2, 312236, Note_off_c, 0, 72, 100
2, 312256, Note_on_c, 0, 79, 110
2, 312304, Note_off_c, 0, 76, 100
2, 312320, Note_on_c, 0, 76, 110
2, 312364, Note_off_c, 0, 79, 100
2, 312384, Note_on_c, 0, 72, 110
2, 312428, Note_off_c, 0, 76, 100
2, 312448, Note_on_c, 0, 67, 110
2, 312488, Note_off_c, 0, 72, 100
2, 312512, Note_on_c, 0, 72, 110
2, 312552, Note_off_c, 0, 67, 100
2, 312576, Note_on_c, 0, 74, 110
2, 312624, Note_off_c, 0, 72, 100
2, 312640, Note_on_c, 0, 79, 110
2, 312688, Note_off_c, 0, 74, 100
2, 312704, Note_on_c, 0, 74, 110
2, 312756, Note_off_c, 0, 79, 100
2, 312768, Note_on_c, 0, 71, 110
2, 312824, Note_off_c, 0, 74, 100
2, 312832, Note_on_c, 0, 67, 110
2, 312880, Note_off_c, 0, 71, 100
2, 312896, Note_on_c, 0, 71, 110
2, 312952, Note_off_c, 0, 67, 100
2, 312960, Note_on_c, 0, 77, 110
2, 313004, Note_off_c, 0, 71, 100
2, 313024, Note_on_c, 0, 81, 110
2, 313060, Note_off_c, 0, 77, 100
2, 313088, Note_on_c, 0, 77, 110
2, 313132, Note_off_c, 0, 81, 100
2, 313152, Note_on_c, 0, 74, 110
2, 313196, Note_off_c, 0, 77, 100
2, 313216, Note_on_c, 0, 69, 110
2, 313264, Note_off_c, 0, 74, 100
2, 313280, Note_on_c, 0, 74, 110
2, 313320, Note_off_c, 0, 69, 100
2, 313344, Note_on_c, 0, 76, 110
2, 313400, Note_off_c, 0, 74, 100
2, 313408, Note_on_c, 0, 81, 110
2, 313452, Note_off_c, 0, 76, 100
2, 313472, Note_on_c, 0, 76, 110
2, 313532, Note_off_c, 0, 81, 100
2, 313536, Note_on_c, 0, 72, 110
2, 313592, Note_off_c, 0, 76, 100
2, 313600, Note_on_c, 0, 69, 110
2, 313644, Note_off_c, 0, 72, 100
2, 313664, Note_on_c, 0, 72, 110
2, 313708, Note_off_c, 0, 69, 100
2, 313728, Note_on_c, 0, 81, 110
2, 313776, Note_off_c, 0, 72, 100
2, 313792, Note_on_c, 0, 84, 110
2, 313848, Note_off_c, 0, 81, 100
2, 313856, Note_on_c, 0, 81, 110
2, 313896, Note_off_c, 0, 84, 100
2, 313920, Note_on_c, 0, 76, 110
2, 313976, Note_off_c, 0, 81, 100
2, 313984, Note_on_c, 0, 72, 110
2, 314032, Note_off_c, 0, 76, 100
2, 314048, Note_on_c, 0, 76, 110
2, 314088, Note_off_c, 0, 72, 100
2, 314112, Note_on_c, 0, 81, 110
2, 314156, Note_off_c, 0, 76, 100
2, 314176, Note_on_c, 0, 84, 110
2, 314228, Note_off_c, 0, 81, 100
2, 314240, Note_on_c, 0, 81, 110
2, 314284, Note_off_c, 0, 84, 100
2, 314304, Note_on_c, 0, 78, 110
2, 314356, Note_off_c, 0, 81, 100
2, 314368, Note_on_c, 0, 72, 110
2, 314408, Note_off_c, 0, 78, 100
2, 314432, Note_on_c, 0, 78, 110
2, 314472, Note_off_c, 0, 72, 100
2, 314496, Note_on_c, 0, 81, 110
2, 314536, Note_off_c, 0, 78, 100
2, 314560, Note_on_c, 0, 84, 110
2, 314600, Note_off_c, 0, 81, 100
2, 314624, Note_on_c, 0, 81, 110
2, 314664, Note_off_c, 0, 84, 100
2, 314688, Note_on_c, 0, 78, 110
2, 314736, Note_off_c, 0, 81, 100
2, 314752, Note_on_c, 0, 72, 110
2, 314808, Note_off_c, 0, 78, 100
2, 314816, Note_on_c, 0, 78, 110
2, 314852, Note_off_c, 0, 72, 100
2, 314880, Note_on_c, 0, 79, 110
2, 314924, Note_off_c, 0, 78, 100
2, 314944, Note_on_c, 0, 83, 110
2, 314996, Note_off_c, 0, 79, 100
2, 315008, Note_on_c, 0, 79, 110
2, 315056, Note_off_c, 0, 83, 100
2, 315072, Note_on_c, 0, 74, 110
2, 315116, Note_off_c, 0, 79, 100
2, 315136, Note_on_c, 0, 71, 110
2, 315180, Note_off_c, 0, 74, 100
2, 315200, Note_on_c, 0, 74, 110
2, 315248, Note_off_c, 0, 71, 100
2, 315264, Note_on_c, 0, 81, 110
2, 315300, Note_off_c, 0, 74, 100
2, 315328, Note_on_c, 0, 86, 110
2, 315376, Note_off_c, 0, 81, 100
2, 315392, Note_on_c, 0, 81, 110
2, 315440, Note_off_c, 0, 86, 100
2, 315456, Note_on_c, 0, 78, 110
2, 315512, Note_off_c, 0, 81, 100
2, 315520, Note_on_c, 0, 74, 110
2, 315572, Note_off_c, 0, 78, 100
2, 315584, Note_on_c, 0, 78, 110
2, 315636, Note_off_c, 0, 74, 100
2, 315648, Note_on_c, 0, 83, 110
2, 315704, Note_off_c, 0, 78, 100
2, 315712, Note_on_c, 0, 86, 110
2, 315760, Note_off_c, 0, 83, 100
2, 315776, Note_on_c, 0, 83, 110
2, 315836, Note_off_c, 0, 86, 100
2, 315840, Note_on_c, 0, 79, 110
2, 315900, Note_off_c, 0, 83, 100
2, 315904, Note_on_c, 0, 74, 110
2, 315956, Note_off_c, 0, 79, 100
2, 315968, Note_on_c, 0, 79, 110
2, 316016, Note_off_c, 0, 74, 100
2, 316032, Note_on_c, 0, 81, 110
2, 316088, Note_off_c, 0, 79, 100
2, 316096, Note_on_c, 0, 86, 110
2, 316148, Note_off_c, 0, 81, 100
2, 316160, Note_on_c, 0, 81, 110
2, 316204, Note_off_c, 0, 86, 100
2, 316224, Note_on_c, 0, 78, 110
2, 316276, Note_off_c, 0, 81, 100
2, 316288, Note_on_c, 0, 74, 110
2, 316348, Note_off_c, 0, 78, 100
2, 316352, Note_on_c, 0, 78, 110
2, 316404, Note_off_c, 0, 74, 100
2, 316416, Note_on_c, 0, 83, 110
2, 316472, Note_off_c, 0, 78, 100
2, 316480, Note_on_c, 0, 86, 110
2, 316528, Note_off_c, 0, 83, 100
2, 316544, Note_on_c, 0, 83, 110
2, 316596, Note_off_c, 0, 86, 100
2, 316608, Note_on_c, 0, 79, 110
2, 316652, Note_off_c, 0, 83, 100
2, 316672, Note_on_c, 0, 74, 110
2, 316720, Note_off_c, 0, 79, 100
2, 316736, Note_on_c, 0, 79, 110
2, 316792, Note_off_c, 0, 74, 100
2, 316800, Note_on_c, 0, 86, 80
2, 316856, Note_off_c, 0, 79, 100
2, 316864, Note_on_c, 0, 90, 80
2, 316920, Note_off_c, 0, 86, 100
2, 316928, Note_on_c, 0, 86, 80
2, 316984, Note_off_c, 0, 90, 100
2, 316992, Note_on_c, 0, 81, 80
2, 317048, Note_off_c, 0, 86, 100
2, 317056, Note_on_c, 0, 78, 80
2, 317108, Note_off_c, 0, 81, 100
2, 317120, Note_on_c, 0, 81, 80
2, 317172, Note_off_c, 0, 78, 100
2, 317184, Note_on_c, 0, 86, 80
2, 317244, Note_off_c, 0, 81, 100
2, 317248, Note_on_c, 0, 91, 80
2, 317296, Note_off_c, 0, 86, 100
2, 317312, Note_on_c, 0, 86, 80
2, 317360, Note_off_c, 0, 91, 100
2, 317376, Note_on_c, 0, 83, 80
2, 317428, Note_off_c, 0, 86, 100
2, 317440, Note_on_c, 0, 79, 80
2, 317496, Note_off_c, 0, 83, 100
2, 317504, Note_on_c, 0, 83, 80
2, 317556, Note_off_c, 0, 79, 100
2, 317568, Note_on_c, 0, 86, 80
2, 317620, Note_off_c, 0, 83, 100
2, 317632, Note_on_c, 0, 90, 80
2, 317688, Note_off_c, 0, 86, 100
2, 317696, Note_on_c, 0, 86, 80
2, 317748, Note_off_c, 0, 90, 100
2, 317760, Note_on_c, 0, 81, 80
2, 317816, Note_off_c, 0, 86, 100
2, 317824, Note_on_c, 0, 78, 80
2, 317880, Note_off_c, 0, 81, 100
2, 317888, Note_on_c, 0, 81, 80
2, 317936, Note_off_c, 0, 78, 100
2, 317952, Note_on_c, 0, 86, 80
2, 317992, Note_off_c, 0, 81, 100
2, 318016, Note_on_c, 0, 91, 80
2, 318064, Note_off_c, 0, 86, 100
2, 318080, Note_on_c, 0, 86, 80
2, 318128, Note_off_c, 0, 91, 100
2, 318144, Note_on_c, 0, 83, 80
2, 318196, Note_off_c, 0, 86, 100
2, 318208, Note_on_c, 0, 79, 80
2, 318264, Note_off_c, 0, 83, 100
2, 318272, Note_on_c, 0, 83, 80
2, 318324, Note_off_c, 0, 79, 100
2, 318336, Note_on_c, 0, 81, 120
2, 318388, Note_off_c, 0, 83, 100
2, 318400, Note_on_c, 0, 86, 120
2, 318448, Note_off_c, 0, 81, 100
2, 318464, Note_on_c, 0, 81, 120
2, 318512, Note_off_c, 0, 86, 100
2, 318528, Note_on_c, 0, 78, 120
2, 318584, Note_off_c, 0, 81, 100
2, 318592, Note_on_c, 0, 74, 120
2, 318644, Note_off_c, 0, 78, 100
2, 318656, Note_on_c, 0, 78, 120
2, 318708, Note_off_c, 0, 74, 100
2, 318720, Note_on_c, 0, 83, 120
2, 318776, Note_off_c, 0, 78, 100
2, 318784, Note_on_c, 0, 86, 120
2, 318832, Note_off_c, 0, 83, 100
2, 318848, Note_on_c, 0, 83, 120
2, 318900, Note_off_c, 0, 86, 100
2, 318912, Note_on_c, 0, 79, 120
2, 318956, Note_off_c, 0, 83, 100
2, 318976, Note_on_c, 0, 74, 120
2, 319024, Note_off_c, 0, 79, 100
2, 319040, Note_on_c, 0, 79, 120
2, 319096, Note_off_c, 0, 74, 100
2, 319104, Note_on_c, 0, 81, 120
2, 319160, Note_off_c, 0, 79, 100
2, 319168, Note_on_c, 0, 86, 120
2, 319216, Note_off_c, 0, 81, 100
2, 319232, Note_on_c, 0, 81, 120
2, 319280, Note_off_c, 0, 86, 100
2, 319296, Note_on_c, 0, 78, 120
2, 319352, Note_off_c, 0, 81, 100
2, 319360, Note_on_c, 0, 74, 120
2, 319412, Note_off_c, 0, 78, 100
2, 319424, Note_on_c, 0, 78, 120
2, 319476, Note_off_c, 0, 74, 100
2, 319488, Note_on_c, 0, 83, 120
2, 319544, Note_off_c, 0, 78, 100
2, 319552, Note_on_c, 0, 86, 120
2, 319600, Note_off_c, 0, 83, 100
2, 319616, Note_on_c, 0, 83, 120
2, 319668, Note_off_c, 0, 86, 100
2, 319680, Note_on_c, 0, 79, 120
2, 319724, Note_off_c, 0, 83, 100
2, 319744, Note_on_c, 0, 74, 120
2, 319792, Note_off_c, 0, 79, 100
2, 319808, Note_on_c, 0, 79, 120
2, 319864, Note_off_c, 0, 74, 100
2, 319872, Note_on_c, 0, 86, 80
2, 319928, Note_off_c, 0, 79, 100
2, 319936, Note_on_c, 0, 90, 80
2, 319992, Note_off_c, 0, 86, 100
2, 320000, Note_on_c, 0, 86, 80
2, 320056, Note_off_c, 0, 90, 100
2, 320064, Note_on_c, 0, 81, 80
2, 320120, Note_off_c, 0, 86, 100
2, 320128, Note_on_c, 0, 78, 80
2, 320180, Note_off_c, 0, 81, 100
2, 320192, Note_on_c, 0, 81, 80
2, 320244, Note_off_c, 0, 78, 100
2, 320256, Note_on_c, 0, 86, 80
2, 320300, Note_off_c, 0, 81, 100
2, 320320, Note_on_c, 0, 91, 80
2, 320368, Note_off_c, 0, 86, 100
2, 320384, Note_on_c, 0, 86, 80
2, 320432, Note_off_c, 0, 91, 100
2, 320448, Note_on_c, 0, 83, 80
2, 320500, Note_off_c, 0, 86, 100
2, 320512, Note_on_c, 0, 79, 80
2, 320568, Note_off_c, 0, 83, 100
2, 320576, Note_on_c, 0, 83, 80
2, 320628, Note_off_c, 0, 79, 100
2, 320640, Note_on_c, 0, 86, 80
2, 320692, Note_off_c, 0, 83, 100
2, 320704, Note_on_c, 0, 90, 80
2, 320760, Note_off_c, 0, 86, 100
2, 320768, Note_on_c, 0, 86, 80
2, 320820, Note_off_c, 0, 90, 100
2, 320832, Note_on_c, 0, 81, 80
2, 320888, Note_off_c, 0, 86, 100
2, 320896, Note_on_c, 0, 78, 80
2, 320952, Note_off_c, 0, 81, 100
2, 320960, Note_on_c, 0, 81, 80
2, 321008, Note_off_c, 0, 78, 100
2, 321024, Note_on_c, 0, 86, 90
2, 321076, Note_off_c, 0, 81, 100
2, 321088, Note_on_c, 0, 91, 91
2, 321136, Note_off_c, 0, 86, 100
2, 321152, Note_on_c, 0, 86, 92
2, 321200, Note_off_c, 0, 91, 100
2, 321216, Note_on_c, 0, 83, 93
2, 321268, Note_off_c, 0, 86, 100
2, 321280, Note_on_c, 0, 79, 95
2, 321336, Note_off_c, 0, 83, 100
2, 321344, Note_on_c, 0, 83, 96
2, 321396, Note_off_c, 0, 79, 100
2, 321408, Note_on_c, 0, 86, 97
2, 321460, Note_off_c, 0, 83, 100
2, 321472, Note_on_c, 0, 90, 99
2, 321528, Note_off_c, 0, 86, 100
2, 321536, Note_on_c, 0, 86, 100
2, 321588, Note_off_c, 0, 90, 100
2, 321600, Note_on_c, 0, 81, 101
2, 321656, Note_off_c, 0, 86, 100
2, 321664, Note_on_c, 0, 78, 103
2, 321720, Note_off_c, 0, 81, 100
2, 321728, Note_on_c, 0, 81, 104
2, 321776, Note_off_c, 0, 78, 100
2, 321792, Note_on_c, 0, 86, 105
2, 321836, Note_off_c, 0, 81, 100
2, 321856, Note_on_c, 0, 91, 106
2, 321904, Note_off_c, 0, 86, 100
2, 321920, Note_on_c, 0, 86, 108
2, 321968, Note_off_c, 0, 91, 100
2, 321984, Note_on_c, 0, 83, 109
2, 322036, Note_off_c, 0, 86, 100
2, 322048, Note_on_c, 0, 79, 110
2, 322104, Note_off_c, 0, 83, 100
2, 322112, Note_on_c, 0, 83, 112
2, 322164, Note_off_c, 0, 79, 100
2, 322176, Note_on_c, 0, 86, 113
2, 322228, Note_off_c, 0, 83, 100
2, 322240, Note_on_c, 0, 90, 114
2, 322296, Note_off_c, 0, 86, 100
2, 322304, Note_on_c, 0, 86, 116
2, 322356, Note_off_c, 0, 90, 100
2, 322368, Note_on_c, 0, 81, 117
2, 322424, Note_off_c, 0, 86, 100
2, 322432, Note_on_c, 0, 78, 118
2, 322488, Note_off_c, 0, 81, 100
2, 322496, Note_on_c, 0, 81, 119
2, 322544, Note_off_c, 0, 78, 100
2, 322556, Note_off_c, 0, 81, 100
2, 322560, Control_c, 0, 64, 127
2, 322560, Note_on_c, 0, 79, 120
2, 322560, Note_on_c, 0, 91, 120
2, 322940, Note_off_c, 0, 79, 100
2, 322944, Note_on_c, 0, 79, 120
2, 322944, Note_on_c, 0, 74, 120
2, 322944, Note_on_c, 0, 71, 120
2, 322944, Note_on_c, 0, 67, 120
2, 323324, Note_off_c, 0, 91, 100
2, 323324, Note_off_c, 0, 79, 100
2, 323324, Note_off_c, 0, 74, 100
2, 323324, Note_off_c, 0, 71, 100
2, 323324, Note_off_c, 0, 67, 100
2, 323328, Note_on_c, 0, 79, 120
2, 323328, Note_on_c, 0, 74, 120
2, 323328, Note_on_c, 0, 71, 120
2, 323328, Note_on_c, 0, 67, 120
2, 324092, Note_off_c, 0, 79, 100
2, 324092, Note_off_c, 0, 74, 100
2, 324092, Note_off_c, 0, 71, 100
2, 324092, Note_off_c, 0, 67, 100
2, 324480, Note_on_c, 0, 83, 120
2, 324480, Note_on_c, 0, 79, 120
2, 324480, Note_on_c, 0, 74, 120
2, 324480, Note_on_c, 0, 71, 120
2, 324860, Note_off_c, 0, 83, 100
2, 324860, Note_off_c, 0, 79, 100
2, 324860, Note_off_c, 0, 74, 100
2, 324860, Note_off_c, 0, 71, 100
2, 324864, Note_on_c, 0, 83, 120
2, 324864, Note_on_c, 0, 79, 120
2, 324864, Note_on_c, 0, 74, 120
2, 324864, Note_on_c, 0, 71, 120
2, 325628, Note_off_c, 0, 83, 100
2, 325628, Note_off_c, 0, 79, 100
2, 325628, Note_off_c, 0, 74, 100
2, 325628, Note_off_c, 0, 71, 100
2, 326016, Note_on_c, 0, 86, 120
2, 326016, Note_on_c, 0, 83, 120
2, 326016, Note_on_c, 0, 79, 120
2, 326016, Note_on_c, 0, 74, 120
2, 326396, Note_off_c, 0, 86, 100
2, 326396, Note_off_c, 0, 83, 100
2, 326396, Note_off_c, 0, 79, 100
2, 326396, Note_off_c, 0, 74, 100
2, 326400, Note_on_c, 0, 86, 120
2, 326400, Note_on_c, 0, 83, 120
2, 326400, Note_on_c, 0, 79, 120
2, 326400, Note_on_c, 0, 74, 120
2, 327164, Note_off_c, 0, 86, 100
2, 327164, Note_off_c, 0, 83, 100
2, 327164, Note_off_c, 0, 79, 100
2, 327164, Note_off_c, 0, 74, 100
2, 327552, Note_on_c, 0, 89, 120
2, 327552, Note_on_c, 0, 86, 120
2, 327552, Note_on_c, 0, 83, 120
2, 327552, Note_on_c, 0, 77, 120
2, 327932, Note_off_c, 0, 89, 100
2, 327932, Note_off_c, 0, 86, 100
2, 327932, Note_off_c, 0, 83, 100
2, 327932, Note_off_c, 0, 77, 100
2, 327936, Note_on_c, 0, 89, 120
2, 327936, Note_on_c, 0, 86, 120
2, 327936, Note_on_c, 0, 83, 120
2, 327936, Note_on_c, 0, 77, 120
2, 328700, Note_off_c, 0, 89, 100
2, 328700, Note_off_c, 0, 86, 100
2, 328700, Note_off_c, 0, 83, 100
2, 328700, Note_off_c, 0, 77, 100
2, 329088, Note_on_c, 0, 92, 120
2, 329088, Note_on_c, 0, 83, 120
2, 329088, Note_on_c, 0, 86, 120
2, 329088, Note_on_c, 0, 89, 120
2, 329852, Note_off_c, 0, 83, 100
2, 329852, Note_off_c, 0, 86, 100
2, 329852, Note_off_c, 0, 89, 100
2, 329852, Note_off_c, 0, 92, 100
2, 329856, Note_on_c, 0, 89, 109
2, 329856, Note_on_c, 0, 86, 109
2, 329856, Note_on_c, 0, 83, 109
2, 329856, Note_on_c, 0, 80, 109
2, 330620, Note_off_c, 0, 80, 100
2, 330620, Note_off_c, 0, 83, 100
2, 330620, Note_off_c, 0, 86, 100
2, 330620, Note_off_c, 0, 89, 100
2, 330624, Note_on_c, 0, 86, 98
2, 330624, Note_on_c, 0, 83, 98
2, 330624, Note_on_c, 0, 80, 98
2, 330624, Note_on_c, 0, 77, 98
2, 331388, Note_off_c, 0, 77, 100
2, 331388, Note_off_c, 0, 80, 100
2, 331388, Note_off_c, 0, 83, 100
2, 331388, Note_off_c, 0, 86, 100
2, 331392, Note_on_c, 0, 80, 86
2, 331392, Note_on_c, 0, 77, 86
2, 331392, Note_on_c, 0, 74, 86
2, 331392, Note_on_c, 0, 83, 86
2, 332156, Note_off_c, 0, 74, 100
2, 332156, Note_off_c, 0, 77, 100
2, 332156, Note_off_c, 0, 80, 100
2, 332156, Note_off_c, 0, 83, 100
2, 332160, Note_on_c, 0, 80, 80
2, 332160, Note_on_c, 0, 77, 80
2, 332160, Note_on_c, 0, 74, 80
2, 332160, Note_on_c, 0, 71, 80
2, 332924, Note_off_c, 0, 71, 100
2, 332924, Note_off_c, 0, 74, 100
2, 332924, Note_off_c, 0, 77, 100
2, 332924, Note_off_c, 0, 80, 100
2, 332928, Note_on_c, 0, 77, 80
2, 332928, Note_on_c, 0, 74, 80
2, 332928, Note_on_c, 0, 71, 80
2, 332928, Note_on_c, 0, 68, 80
2, 333692, Note_off_c, 0, 68, 100
2, 333692, Note_off_c, 0, 71, 100
2, 333692, Note_off_c, 0, 74, 100
2, 333692, Note_off_c, 0, 77, 100
2, 333696, Note_on_c, 0, 74, 80
2, 333696, Note_on_c, 0, 71, 80
2, 333696, Note_on_c, 0, 68, 80
2, 333696, Note_on_c, 0, 65, 80
2, 334460, Note_off_c, 0, 65, 100
2, 334460, Note_off_c, 0, 68, 100
2, 334460, Note_off_c, 0, 71, 100
2, 334460, Note_off_c, 0, 74, 100
2, 334464, Note_on_c, 0, 71, 70
2, 334464, Note_on_c, 0, 68, 70
2, 334464, Note_on_c, 0, 65, 70
2, 334464, Note_on_c, 0, 62, 70
2, 335228, Note_off_c, 0, 62, 100
2, 335228, Note_off_c, 0, 65, 100
2, 335228, Note_off_c, 0, 68, 100
2, 335228, Note_off_c, 0, 71, 100
2, 335232, Note_on_c, 0, 68, 70
2, 335232, Note_on_c, 0, 62, 70
2, 335232, Note_on_c, 0, 59, 70
2, 335232, Note_on_c, 0, 65, 70
2, 335996, Note_off_c, 0, 59, 100
2, 335996, Note_off_c, 0, 62, 100
2, 335996, Note_off_c, 0, 65, 100
2, 335996, Note_off_c, 0, 68, 100
2, 336376, Control_c, 0, 64, 0
2, 336768, Note_on_c, 0, 67, 70
2, 336768, Note_on_c, 0, 64, 70
2, 336768, Note_on_c, 0, 61, 70
2, 336768, Note_on_c, 0, 58, 70
2, 337532, Note_off_c, 0, 58, 100
2, 337532, Note_off_c, 0, 61, 100
2, 337532, Note_off_c, 0, 64, 100
2, 337532, Note_off_c, 0, 67, 100
2, 338304, Note_on_c, 0, 66, 70
2, 338304, Note_on_c, 0, 63, 70
2, 338304, Note_on_c, 0, 60, 70
2, 338304, Note_on_c, 0, 57, 70
2, 339068, Note_off_c, 0, 57, 100
2, 339068, Note_off_c, 0, 60, 100
2, 339068, Note_off_c, 0, 63, 100
2, 339068, Note_off_c, 0, 66, 100
2, 339456, Control_c, 0, 64, 127
2, 339840, Note_on_c, 0, 65, 60
2, 339840, Note_on_c, 0, 62, 60
2, 339840, Note_on_c, 0, 59, 60
2, 341752, Control_c, 0, 64, 0
2, 341756, Note_off_c, 0, 59, 100
2, 341756, Note_off_c, 0, 62, 100
2, 341756, Note_off_c, 0, 65, 100
2, 341760, Control_c, 0, 64, 127
2, 341760, Note_on_c, 0, 60, 110
2, 342136, Note_off_c, 0, 60, 100
2, 342144, Note_on_c, 0, 91, 80
2, 342520, Note_off_c, 0, 91, 100
2, 342528, Note_on_c, 0, 91, 80
2, 343104, Note_on_c, 0, 88, 80
2, 343288, Note_off_c, 0, 91, 100
2, 343288, Note_off_c, 0, 88, 100
2, 343296, Note_on_c, 0, 86, 80
2, 343680, Note_on_c, 0, 79, 80
2, 344056, Note_off_c, 0, 86, 100
2, 344064, Note_on_c, 0, 84, 80
2, 344440, Note_off_c, 0, 79, 100
2, 344448, Note_on_c, 0, 88, 80
2, 344824, Note_off_c, 0, 84, 100
2, 345208, Note_off_c, 0, 88, 100
2, 345216, Note_on_c, 0, 91, 80
2, 345592, Note_off_c, 0, 91, 100
2, 345600, Note_on_c, 0, 91, 80
2, 346176, Note_on_c, 0, 88, 80
2, 346360, Note_off_c, 0, 91, 100
2, 346368, Note_on_c, 0, 86, 80
2, 346552, Note_off_c, 0, 88, 100
2, 346752, Note_on_c, 0, 79, 80
2, 347128, Note_off_c, 0, 86, 100
2, 347136, Note_on_c, 0, 84, 80
2, 347512, Note_off_c, 0, 79, 100
2, 347896, Note_off_c, 0, 84, 100
2, 347904, Note_on_c, 0, 91, 80
2, 348096, Note_on_c, 0, 90, 80
2, 348280, Note_off_c, 0, 91, 100
2, 348288, Note_on_c, 0, 91, 80
2, 348472, Note_off_c, 0, 90, 100
2, 348480, Note_on_c, 0, 90, 80
2, 348664, Note_off_c, 0, 91, 100
2, 348672, Note_on_c, 0, 91, 80
2, 348856, Note_off_c, 0, 90, 100
2, 348864, Note_on_c, 0, 90, 80
2, 349048, Note_off_c, 0, 91, 100
2, 349056, Note_on_c, 0, 91, 80
2, 349240, Note_off_c, 0, 90, 100
2, 349248, Note_on_c, 0, 88, 80
2, 349432, Note_off_c, 0, 91, 100
2, 349440, Note_on_c, 0, 86, 80
2, 349624, Note_off_c, 0, 88, 100
2, 349632, Note_on_c, 0, 85, 80
2, 349816, Note_off_c, 0, 86, 100
2, 349824, Note_on_c, 0, 86, 80
2, 350008, Note_off_c, 0, 85, 100
2, 350016, Note_on_c, 0, 79, 80
2, 350200, Note_off_c, 0, 86, 100
2, 350208, Note_on_c, 0, 84, 80
2, 350392, Note_off_c, 0, 79, 100
2, 350400, Note_on_c, 0, 83, 80
2, 350584, Note_off_c, 0, 84, 100
2, 350592, Note_on_c, 0, 84, 80
2, 350776, Note_off_c, 0, 83, 100
2, 350784, Note_on_c, 0, 88, 80
2, 350968, Note_off_c, 0, 84, 100
2, 350976, Note_on_c, 0, 91, 80
2, 351160, Note_off_c, 0, 88, 100
2, 351168, Note_on_c, 0, 90, 80
2, 351352, Note_off_c, 0, 91, 100
2, 351360, Note_on_c, 0, 91, 80
2, 351544, Note_off_c, 0, 90, 100
2, 351552, Note_on_c, 0, 90, 80
2, 351736, Note_off_c, 0, 91, 100
2, 351744, Note_on_c, 0, 91, 80
2, 351928, Note_off_c, 0, 90, 100
2, 351936, Note_on_c, 0, 90, 80
2, 352120, Note_off_c, 0, 91, 100
2, 352128, Note_on_c, 0, 91, 80
2, 352312, Note_off_c, 0, 90, 100
2, 352320, Note_on_c, 0, 88, 80
2, 352504, Note_off_c, 0, 91, 100
2, 352512, Note_on_c, 0, 86, 80
2, 352696, Note_off_c, 0, 88, 100
2, 352704, Note_on_c, 0, 85, 80
2, 352888, Note_off_c, 0, 86, 100
2, 352896, Note_on_c, 0, 86, 80
2, 353080, Note_off_c, 0, 85, 100
2, 353088, Note_on_c, 0, 79, 80
2, 353272, Note_off_c, 0, 86, 100
2, 353280, Note_on_c, 0, 84, 80
2, 353464, Note_off_c, 0, 79, 100
2, 353472, Note_on_c, 0, 83, 80
2, 353656, Note_off_c, 0, 84, 100
2, 353664, Note_on_c, 0, 84, 80
2, 353848, Note_off_c, 0, 83, 100
2, 353856, Note_on_c, 0, 88, 80
2, 354040, Note_off_c, 0, 84, 100
2, 354048, Note_on_c, 0, 86, 80
2, 354232, Note_off_c, 0, 88, 100
2, 354240, Note_on_c, 0, 85, 84
2, 354424, Note_off_c, 0, 86, 100
2, 354432, Note_on_c, 0, 86, 89
2, 354616, Note_off_c, 0, 85, 100
2, 354624, Note_on_c, 0, 79, 94
2, 354800, Control_c, 0, 64, 0
2, 354808, Note_off_c, 0, 86, 100
2, 354808, Note_off_c, 0, 79, 100
2, 354816, Note_on_c, 0, 84, 99
2, 355000, Note_off_c, 0, 84, 100
2, 355008, Note_on_c, 0, 83, 110
2, 355192, Note_off_c, 0, 83, 100
2, 355200, Note_on_c, 0, 84, 110
2, 355384, Note_off_c, 0, 84, 100
2, 355392, Note_on_c, 0, 88, 110
2, 355576, Note_off_c, 0, 88, 100
2, 355584, Note_on_c, 0, 83, 110
2, 355768, Note_off_c, 0, 83, 100
2, 355776, Note_on_c, 0, 82, 110
2, 355960, Note_off_c, 0, 82, 100
2, 355968, Note_on_c, 0, 83, 110
2, 356152, Note_off_c, 0, 83, 100
2, 356160, Note_on_c, 0, 86, 110
2, 356344, Note_off_c, 0, 86, 100
2, 356352, Note_on_c, 0, 81, 110
2, 356536, Note_off_c, 0, 81, 100
2, 356544, Note_on_c, 0, 80, 110
2, 356728, Note_off_c, 0, 80, 100
2, 356736, Note_on_c, 0, 81, 110
2, 356920, Note_off_c, 0, 81, 100
2, 356928, Note_on_c, 0, 84, 110
2, 357112, Note_off_c, 0, 84, 100
2, 357120, Note_on_c, 0, 79, 110
2, 357304, Note_off_c, 0, 79, 100
2, 357312, Note_on_c, 0, 78, 110
2, 357496, Note_off_c, 0, 78, 100
2, 357504, Note_on_c, 0, 79, 110
2, 357688, Note_off_c, 0, 79, 100
2, 357696, Note_on_c, 0, 83, 110
2, 357880, Note_off_c, 0, 83, 100
2, 357888, Note_on_c, 0, 77, 110
2, 358072, Note_off_c, 0, 77, 100
2, 358080, Note_on_c, 0, 76, 110
2, 358264, Note_off_c, 0, 76, 100
2, 358272, Note_on_c, 0, 77, 110
2, 358456, Note_off_c, 0, 77, 100
2, 358464, Note_on_c, 0, 81, 110
2, 358648, Note_off_c, 0, 81, 100
2, 358656, Note_on_c, 0, 76, 110
2, 358840, Note_off_c, 0, 76, 100
2, 358848, Note_on_c, 0, 74, 110
2, 359032, Note_off_c, 0, 74, 100
2, 359040, Note_on_c, 0, 76, 110
2, 359224, Note_off_c, 0, 76, 100
2, 359232, Note_on_c, 0, 79, 110
2, 359416, Note_off_c, 0, 79, 100
2, 359424, Note_on_c, 0, 74, 110
2, 359608, Note_off_c, 0, 74, 100
2, 359616, Note_on_c, 0, 73, 110
2, 359800, Note_off_c, 0, 73, 100
2, 359808, Note_on_c, 0, 74, 110
2, 359992, Note_off_c, 0, 74, 100
2, 360000, Note_on_c, 0, 77, 110
2, 360184, Note_off_c, 0, 77, 100
2, 360192, Note_on_c, 0, 72, 110
2, 360376, Note_off_c, 0, 72, 100
2, 360384, Note_on_c, 0, 71, 110
2, 360568, Note_off_c, 0, 71, 100
2, 360576, Note_on_c, 0, 72, 110
2, 360760, Note_off_c, 0, 72, 100
2, 360768, Note_on_c, 0, 76, 110
2, 360952, Note_off_c, 0, 76, 100
2, 360960, Note_on_c, 0, 76, 110
2, 361144, Note_off_c, 0, 76, 100
2, 361152, Note_on_c, 0, 75, 110
2, 361336, Note_off_c, 0, 75, 100
2, 361344, Note_on_c, 0, 76, 110
2, 361528, Note_off_c, 0, 76, 100
2, 361536, Note_on_c, 0, 72, 110
2, 361720, Note_off_c, 0, 72, 100
2, 361728, Note_on_c, 0, 74, 110
2, 361912, Note_off_c, 0, 74, 100
2, 361920, Note_on_c, 0, 73, 110
2, 362104, Note_off_c, 0, 73, 100
2, 362112, Note_on_c, 0, 74, 110
2, 362296, Note_off_c, 0, 74, 100
2, 362304, Note_on_c, 0, 71, 110
2, 362488, Note_off_c, 0, 71, 100
2, 362496, Note_on_c, 0, 72, 110
2, 362680, Note_off_c, 0, 72, 100
2, 362688, Note_on_c, 0, 71, 110
2, 362872, Note_off_c, 0, 71, 100
2, 362880, Note_on_c, 0, 72, 110
2, 363064, Note_off_c, 0, 72, 100
2, 363072, Note_on_c, 0, 69, 110
2, 363256, Note_off_c, 0, 69, 100
2, 363264, Note_on_c, 0, 71, 110
2, 363448, Note_off_c, 0, 71, 100
2, 363456, Note_on_c, 0, 70, 110
2, 363640, Note_off_c, 0, 70, 100
2, 363648, Note_on_c, 0, 71, 110
2, 363832, Note_off_c, 0, 71, 100
2, 363840, Note_on_c, 0, 67, 110
2, 364024, Note_off_c, 0, 67, 100
2, 364032, Note_on_c, 0, 69, 110
2, 364216, Note_off_c, 0, 69, 100
2, 364224, Note_on_c, 0, 68, 110
2, 364408, Note_off_c, 0, 68, 100
2, 364416, Note_on_c, 0, 69, 110
2, 364600, Note_off_c, 0, 69, 100
2, 364608, Note_on_c, 0, 65, 110
2, 364792, Note_off_c, 0, 65, 100
2, 364800, Note_on_c, 0, 67, 110
2, 364984, Note_off_c, 0, 67, 100
2, 364992, Note_on_c, 0, 66, 110
2, 365176, Note_off_c, 0, 66, 100
2, 365184, Note_on_c, 0, 67, 110
2, 365368, Note_off_c, 0, 67, 100
2, 365376, Note_on_c, 0, 64, 110
2, 365560, Note_off_c, 0, 64, 100
2, 365568, Note_on_c, 0, 65, 110
2, 365752, Note_off_c, 0, 65, 100
2, 365760, Note_on_c, 0, 64, 110
2, 365944, Note_off_c, 0, 64, 100
2, 365952, Note_on_c, 0, 65, 110
2, 366136, Note_off_c, 0, 65, 100
2, 366144, Note_on_c, 0, 62, 110
2, 366328, Note_off_c, 0, 62, 100
2, 366336, Note_on_c, 0, 64, 120
2, 366520, Note_off_c, 0, 64, 100
2, 366528, Note_on_c, 0, 60, 110
2, 366712, Note_off_c, 0, 60, 100
2, 366720, Note_on_c, 0, 55, 110
2, 366904, Note_off_c, 0, 55, 100
2, 366912, Note_on_c, 0, 64, 120
2, 367096, Note_off_c, 0, 64, 100
2, 367104, Note_on_c, 0, 62, 120
2, 367288, Note_off_c, 0, 62, 100
2, 367296, Note_on_c, 0, 59, 110
2, 367480, Note_off_c, 0, 59, 100
2, 367488, Note_on_c, 0, 55, 110
2, 367672, Note_off_c, 0, 55, 100
2, 367680, Note_on_c, 0, 62, 120
2, 367864, Note_off_c, 0, 62, 100
2, 367872, Note_on_c, 0, 65, 120
2, 368056, Note_off_c, 0, 65, 100
2, 368064, Note_on_c, 0, 62, 110
2, 368248, Note_off_c, 0, 62, 100
2, 368256, Note_on_c, 0, 57, 110
2, 368440, Note_off_c, 0, 57, 100
2, 368448, Note_on_c, 0, 65, 120
2, 368632, Note_off_c, 0, 65, 100
2, 368640, Note_on_c, 0, 64, 120
2, 368824, Note_off_c, 0, 64, 100
2, 368832, Note_on_c, 0, 60, 110
2, 369016, Note_off_c, 0, 60, 100
2, 369024, Note_on_c, 0, 57, 110
2, 369208, Note_off_c, 0, 57, 100
2, 369216, Note_on_c, 0, 64, 120
2, 369400, Note_off_c, 0, 64, 100
2, 369408, Note_on_c, 0, 69, 120
2, 369592, Note_off_c, 0, 69, 100
2, 369600, Note_on_c, 0, 65, 110
2, 369784, Note_off_c, 0, 65, 100
2, 369792, Note_on_c, 0, 60, 110
2, 369976, Note_off_c, 0, 60, 100
2, 369984, Note_on_c, 0, 69, 120
2, 370168, Note_off_c, 0, 69, 100
2, 370176, Note_on_c, 0, 67, 120
2, 370360, Note_off_c, 0, 67, 100
2, 370368, Note_on_c, 0, 64, 110
2, 370552, Note_off_c, 0, 64, 100
2, 370560, Note_on_c, 0, 60, 110
2, 370744, Note_off_c, 0, 60, 100
2, 370752, Note_on_c, 0, 72, 120
2, 370936, Note_off_c, 0, 72, 100
2, 370944, Note_on_c, 0, 62, 120
2, 371128, Note_off_c, 0, 62, 100
2, 371136, Note_on_c, 0, 72, 110
2, 371320, Note_off_c, 0, 72, 100
2, 371328, Note_on_c, 0, 67, 110
2, 371512, Note_off_c, 0, 67, 100
2, 371520, Note_on_c, 0, 62, 120
2, 371704, Note_off_c, 0, 62, 100
2, 371712, Note_on_c, 0, 71, 120
2, 371896, Note_off_c, 0, 71, 100
2, 371904, Note_on_c, 0, 67, 110
2, 372088, Note_off_c, 0, 67, 100
2, 372096, Note_on_c, 0, 62, 110
2, 372280, Note_off_c, 0, 62, 100
2, 372288, Note_on_c, 0, 71, 120
2, 372472, Note_off_c, 0, 71, 100
2, 372480, Note_on_c, 0, 76, 120
2, 372664, Note_off_c, 0, 76, 100
2, 372672, Note_on_c, 0, 72, 110
2, 372856, Note_off_c, 0, 72, 100
2, 372864, Note_on_c, 0, 69, 110
2, 373048, Note_off_c, 0, 69, 100
2, 373056, Note_on_c, 0, 76, 120
2, 373240, Note_off_c, 0, 76, 100
2, 373248, Note_on_c, 0, 67, 120
2, 373432, Note_off_c, 0, 67, 100
2, 373440, Note_on_c, 0, 74, 110
2, 373624, Note_off_c, 0, 74, 100
2, 373632, Note_on_c, 0, 71, 110
2, 373816, Note_off_c, 0, 71, 100
2, 373824, Note_on_c, 0, 67, 120
2, 374008, Note_off_c, 0, 67, 100
2, 374016, Note_on_c, 0, 77, 120
2, 374200, Note_off_c, 0, 77, 100
2, 374208, Note_on_c, 0, 74, 110
2, 374392, Note_off_c, 0, 74, 100
2, 374400, Note_on_c, 0, 69, 110
2, 374584, Note_off_c, 0, 69, 100
2, 374592, Note_on_c, 0, 77, 120
2, 374776, Note_off_c, 0, 77, 100
2, 374784, Note_on_c, 0, 69, 120
2, 374968, Note_off_c, 0, 69, 100
2, 374976, Note_on_c, 0, 76, 110
2, 375160, Note_off_c, 0, 76, 100
2, 375168, Note_on_c, 0, 72, 110
2, 375352, Note_off_c, 0, 72, 100
2, 375360, Note_on_c, 0, 69, 120
2, 375544, Note_off_c, 0, 69, 100
2, 375552, Note_on_c, 0, 81, 120
2, 375736, Note_off_c, 0, 81, 100
2, 375744, Note_on_c, 0, 77, 110
2, 375928, Note_off_c, 0, 77, 100
2, 375936, Note_on_c, 0, 72, 110
2, 376120, Note_off_c, 0, 72, 100
2, 376128, Note_on_c, 0, 81, 120
2, 376312, Note_off_c, 0, 81, 100
2, 376320, Note_on_c, 0, 72, 120
2, 376504, Note_off_c, 0, 72, 100
2, 376512, Note_on_c, 0, 81, 110
2, 376696, Note_off_c, 0, 81, 100
2, 376704, Note_on_c, 0, 77, 110
2, 376888, Note_off_c, 0, 77, 100
2, 376896, Note_on_c, 0, 72, 120
2, 377080, Note_off_c, 0, 72, 100
2, 377088, Note_on_c, 0, 81, 120
2, 377272, Note_off_c, 0, 81, 100
2, 377280, Note_on_c, 0, 77, 110
2, 377464, Note_off_c, 0, 77, 100
2, 377472, Note_on_c, 0, 72, 110
2, 377656, Note_off_c, 0, 72, 100
2, 377664, Note_on_c, 0, 81, 120
2, 377848, Note_off_c, 0, 81, 100
2, 377856, Note_on_c, 0, 72, 120
2, 378040, Note_off_c, 0, 72, 100
2, 378048, Note_on_c, 0, 81, 110
2, 378232, Note_off_c, 0, 81, 100
2, 378240, Note_on_c, 0, 77, 110
2, 378424, Note_off_c, 0, 77, 100
2, 378432, Note_on_c, 0, 72, 120
2, 378616, Note_off_c, 0, 72, 100
2, 378624, Control_c, 0, 64, 127
2, 379008, Note_on_c, 0, 84, 80
2, 379384, Note_off_c, 0, 84, 100
2, 379392, Note_on_c, 0, 84, 80
2, 379968, Note_on_c, 0, 81, 80
2, 380152, Note_off_c, 0, 84, 100
2, 380160, Note_on_c, 0, 79, 80
2, 380344, Note_off_c, 0, 81, 100
2, 380544, Note_on_c, 0, 72, 80
2, 380920, Note_off_c, 0, 79, 100
2, 380928, Note_on_c, 0, 77, 80
2, 381304, Note_off_c, 0, 72, 100
2, 381312, Note_on_c, 0, 81, 80
2, 381688, Note_off_c, 0, 77, 100
2, 382072, Note_off_c, 0, 81, 100
2, 382080, Note_on_c, 0, 84, 80
2, 382272, Note_on_c, 0, 83, 80
2, 382456, Note_off_c, 0, 84, 100
2, 382464, Note_on_c, 0, 84, 80
2, 382648, Note_off_c, 0, 83, 100
2, 382656, Note_on_c, 0, 83, 80
2, 382840, Note_off_c, 0, 84, 100
2, 382848, Note_on_c, 0, 84, 80
2, 383032, Note_off_c, 0, 83, 100
2, 383040, Note_on_c, 0, 81, 80
2, 383224, Note_off_c, 0, 84, 100
2, 383232, Note_on_c, 0, 79, 80
2, 383416, Note_off_c, 0, 81, 100
2, 383424, Note_on_c, 0, 78, 80
2, 383608, Note_off_c, 0, 79, 100
2, 383616, Note_on_c, 0, 79, 80
2, 383800, Note_off_c, 0, 78, 100
2, 383808, Note_on_c, 0, 72, 80
2, 383992, Note_off_c, 0, 79, 100
2, 384000, Note_on_c, 0, 77, 80
2, 384184, Note_off_c, 0, 72, 100
2, 384192, Note_on_c, 0, 76, 80
2, 384376, Note_off_c, 0, 77, 100
2, 384384, Note_on_c, 0, 77, 80
2, 384568, Note_off_c, 0, 76, 100
2, 384576, Note_on_c, 0, 81, 80
2, 384752, Control_c, 0, 64, 0
2, 384760, Note_off_c, 0, 77, 100
2, 384760, Note_off_c, 0, 81, 100
2, 384768, Control_c, 0, 64, 127
2, 385152, Note_on_c, 0, 77, 70
2, 385152, Note_on_c, 0, 89, 70
2, 385528, Note_off_c, 0, 77, 100
2, 385528, Note_off_c, 0, 89, 100
2, 385536, Note_on_c, 0, 89, 70
2, 385536, Note_on_c, 0, 77, 70
2, 386112, Note_on_c, 0, 74, 70
2, 386112, Note_on_c, 0, 86, 70
2, 386296, Note_off_c, 0, 89, 100
2, 386296, Note_off_c, 0, 77, 100
2, 386304, Note_on_c, 0, 76, 70
2, 386304, Note_on_c, 0, 88, 70
2, 386488, Note_off_c, 0, 74, 100
2, 386488, Note_off_c, 0, 86, 100
2, 386688, Note_on_c, 0, 72, 70
2, 386688, Note_on_c, 0, 84, 70
2, 387064, Note_off_c, 0, 76, 100
2, 387064, Note_off_c, 0, 88, 100
2, 387072, Note_on_c, 0, 71, 70
2, 387072, Note_on_c, 0, 83, 70
2, 387448, Note_off_c, 0, 72, 100
2, 387448, Note_off_c, 0, 84, 100
2, 387456, Note_on_c, 0, 74, 70
2, 387456, Note_on_c, 0, 86, 70
2, 387832, Note_off_c, 0, 71, 100
2, 387832, Note_off_c, 0, 83, 100
2, 388216, Note_off_c, 0, 74, 100
2, 388216, Note_off_c, 0, 86, 100
2, 388224, Note_on_c, 0, 77, 70
2, 388224, Note_on_c, 0, 89, 70
2, 388600, Note_off_c, 0, 77, 100
2, 388600, Note_off_c, 0, 89, 100
2, 388608, Note_on_c, 0, 77, 70
2, 388608, Note_on_c, 0, 89, 70
2, 389184, Note_on_c, 0, 74, 70
2, 389184, Note_on_c, 0, 86, 70
2, 389360, Control_c, 0, 64, 0
2, 389368, Note_off_c, 0, 77, 100
2, 389368, Note_off_c, 0, 89, 100
2, 389368, Note_off_c, 0, 74, 100
2, 389368, Note_off_c, 0, 86, 100
2, 389376, Note_on_c, 0, 76, 70
2, 389376, Note_on_c, 0, 88, 70
2, 389752, Note_off_c, 0, 76, 100
2, 389752, Note_off_c, 0, 88, 100
2, 389760, Note_on_c, 0, 72, 70
2, 389760, Note_on_c, 0, 84, 70
2, 390136, Note_off_c, 0, 72, 100
2, 390136, Note_off_c, 0, 84, 100
2, 390144, Note_on_c, 0, 71, 70
2, 390144, Note_on_c, 0, 83, 70
2, 390520, Note_off_c, 0, 71, 100
2, 390520, Note_off_c, 0, 83, 100
2, 390528, Note_on_c, 0, 74, 70
2, 390528, Note_on_c, 0, 86, 70
2, 390904, Note_off_c, 0, 74, 100
2, 390904, Note_off_c, 0, 86, 100
2, 390912, Note_on_c, 0, 84, 70
2, 390912, Note_on_c, 0, 72, 70
2, 391288, Note_off_c, 0, 84, 100
2, 391288, Note_off_c, 0, 72, 100
2, 391296, Note_on_c, 0, 81, 70
2, 391296, Note_on_c, 0, 69, 70
2, 391672, Note_off_c, 0, 81, 100
2, 391672, Note_off_c, 0, 69, 100
2, 391680, Note_on_c, 0, 79, 70
2, 391680, Note_on_c, 0, 67, 70
2, 392056, Note_off_c, 0, 79, 100
2, 392056, Note_off_c, 0, 67, 100
2, 392064, Note_on_c, 0, 83, 70
2, 392064, Note_on_c, 0, 71, 70
2, 392440, Note_off_c, 0, 83, 100
2, 392440, Note_off_c, 0, 71, 100
2, 392448, Note_on_c, 0, 81, 70
2, 392448, Note_on_c, 0, 69, 70
2, 392824, Note_off_c, 0, 81, 100
2, 392824, Note_off_c, 0, 69, 100
2, 392832, Note_on_c, 0, 77, 70
2, 392832, Note_on_c, 0, 65, 70
2, 393208, Note_off_c, 0, 77, 100
2, 393208, Note_off_c, 0, 65, 100
2, 393216, Note_on_c, 0, 76, 70
2, 393216, Note_on_c, 0, 64, 70
2, 393592, Note_off_c, 0, 76, 100
2, 393592, Note_off_c, 0, 64, 100
2, 393600, Note_on_c, 0, 79, 70
2, 393600, Note_on_c, 0, 67, 70
2, 393976, Note_off_c, 0, 79, 100
2, 393976, Note_off_c, 0, 67, 100
2, 393984, Note_on_c, 0, 77, 70
2, 393984, Note_on_c, 0, 65, 70
2, 394360, Note_off_c, 0, 77, 100
2, 394360, Note_off_c, 0, 65, 100
2, 394368, Note_on_c, 0, 74, 70
2, 394368, Note_on_c, 0, 62, 70
2, 394744, Note_off_c, 0, 74, 100
2, 394744, Note_off_c, 0, 62, 100
2, 394752, Note_on_c, 0, 76, 70
2, 394752, Note_on_c, 0, 64, 70
2, 395128, Note_off_c, 0, 76, 100
2, 395128, Note_off_c, 0, 64, 100
2, 395136, Note_on_c, 0, 72, 70
2, 395136, Note_on_c, 0, 60, 70
2, 395512, Note_off_c, 0, 72, 100
2, 395512, Note_off_c, 0, 60, 100
2, 395520, Note_on_c, 0, 74, 70
2, 395520, Note_on_c, 0, 62, 70
2, 395896, Note_off_c, 0, 74, 100
2, 395896, Note_off_c, 0, 62, 100
2, 395904, Note_on_c, 0, 71, 70
2, 395904, Note_on_c, 0, 59, 70
2, 396280, Note_off_c, 0, 71, 100
2, 396280, Note_off_c, 0, 59, 100
2, 396288, Note_on_c, 0, 72, 70
2, 396288, Note_on_c, 0, 60, 70
2, 396664, Note_off_c, 0, 72, 100
2, 396664, Note_off_c, 0, 60, 100
2, 396672, Note_on_c, 0, 69, 70
2, 396672, Note_on_c, 0, 57, 70
2, 397048, Note_off_c, 0, 69, 100
2, 397048, Note_off_c, 0, 57, 100
2, 397056, Note_on_c, 0, 71, 70
2, 397056, Note_on_c, 0, 59, 70
2, 397432, Note_off_c, 0, 71, 100
2, 397432, Note_off_c, 0, 59, 100
2, 397440, Note_on_c, 0, 67, 72
2, 397440, Note_on_c, 0, 55, 72
2, 397816, Note_off_c, 0, 67, 100
2, 397816, Note_off_c, 0, 55, 100
2, 397824, Note_on_c, 0, 69, 75
2, 397824, Note_on_c, 0, 57, 75
2, 398200, Note_off_c, 0, 69, 100
2, 398200, Note_off_c, 0, 57, 100
2, 398208, Note_on_c, 0, 65, 78
2, 398208, Note_on_c, 0, 53, 78
2, 398584, Note_off_c, 0, 65, 100
2, 398584, Note_off_c, 0, 53, 100
2, 398592, Note_on_c, 0, 67, 81
2, 398592, Note_on_c, 0, 55, 81
2, 398968, Note_off_c, 0, 67, 100
2, 398968, Note_off_c, 0, 55, 100
2, 398976, Note_on_c, 0, 64, 84
2, 398976, Note_on_c, 0, 52, 84
2, 399352, Note_off_c, 0, 64, 100
2, 399352, Note_off_c, 0, 52, 100
2, 399360, Note_on_c, 0, 65, 87
2, 399360, Note_on_c, 0, 53, 87
2, 399736, Note_off_c, 0, 65, 100
2, 399736, Note_off_c, 0, 53, 100
2, 399744, Note_on_c, 0, 59, 89
2, 399744, Note_on_c, 0, 47, 89
2, 400120, Note_off_c, 0, 59, 100
2, 400120, Note_off_c, 0, 47, 100
2, 400128, Control_c, 0, 64, 127
2, 400128, Note_on_c, 0, 60, 120
2, 400128, Note_on_c, 0, 51, 120
2, 400128, Note_on_c, 0, 48, 120
2, 400888, Note_off_c, 0, 60, 100
2, 400888, Note_off_c, 0, 51, 100
2, 400888, Note_off_c, 0, 48, 100
2, 401920, Note_on_c, 0, 72, 120
2, 402176, Note_on_c, 0, 75, 120
2, 402352, Note_off_c, 0, 72, 100
2, 402432, Note_on_c, 0, 80, 120
2, 402600, Note_off_c, 0, 75, 100
2, 402688, Note_on_c, 0, 84, 120
2, 402872, Note_off_c, 0, 80, 100
2, 402944, Note_on_c, 0, 87, 120
2, 403096, Note_off_c, 0, 84, 100
2, 403184, Control_c, 0, 64, 0
2, 403192, Note_off_c, 0, 87, 100
2, 403200, Note_on_c, 0, 85, 96
2, 403448, Note_off_c, 0, 85, 100
2, 403456, Note_on_c, 0, 82, 80
2, 403704, Note_off_c, 0, 82, 100
2, 403712, Note_on_c, 0, 79, 80
2, 403960, Note_off_c, 0, 79, 100
2, 403968, Note_on_c, 0, 73, 80
2, 404216, Note_off_c, 0, 73, 100
2, 404224, Note_on_c, 0, 70, 80
2, 404472, Note_off_c, 0, 70, 100
2, 404480, Note_on_c, 0, 67, 80
2, 404728, Note_off_c, 0, 67, 100
2, 404736, Note_on_c, 0, 85, 80
2, 404984, Note_off_c, 0, 85, 100
2, 404992, Note_on_c, 0, 82, 80
2, 405240, Note_off_c, 0, 82, 100
2, 405248, Note_on_c, 0, 79, 80
2, 405496, Note_off_c, 0, 79, 100
2, 405504, Note_on_c, 0, 73, 80
2, 405752, Note_off_c, 0, 73, 100
2, 405760, Note_on_c, 0, 70, 80
2, 406008, Note_off_c, 0, 70, 100
2, 406016, Note_on_c, 0, 67, 80
2, 406264, Note_off_c, 0, 67, 100
2, 406272, Control_c, 0, 64, 127
2, 408064, Note_on_c, 0, 68, 120
2, 408320, Note_on_c, 0, 72, 120
2, 408544, Note_off_c, 0, 68, 100
2, 408576, Note_on_c, 0, 77, 120
2, 408760, Note_off_c, 0, 72, 100
2, 408832, Note_on_c, 0, 80, 120
2, 408976, Note_off_c, 0, 77, 100
2, 409088, Note_on_c, 0, 84, 120
2, 409272, Note_off_c, 0, 80, 100
2, 409328, Control_c, 0, 64, 0
2, 409336, Note_off_c, 0, 84, 100
2, 409344, Note_on_c, 0, 82, 96
2, 409592, Note_off_c, 0, 82, 100
2, 409600, Note_on_c, 0, 79, 80
2, 409848, Note_off_c, 0, 79, 100
2, 409856, Note_on_c, 0, 76, 80
2, 410104, Note_off_c, 0, 76, 100
2, 410112, Note_on_c, 0, 70, 80
2, 410360, Note_off_c, 0, 70, 100
2, 410368, Note_on_c, 0, 67, 80
2, 410616, Note_off_c, 0, 67, 100
2, 410624, Note_on_c, 0, 64, 80
2, 410872, Note_off_c, 0, 64, 100
2, 410880, Note_on_c, 0, 82, 80
2, 411128, Note_off_c, 0, 82, 100
2, 411136, Note_on_c, 0, 79, 80
2, 411384, Note_off_c, 0, 79, 100
2, 411392, Note_on_c, 0, 76, 80
2, 411640, Note_off_c, 0, 76, 100
2, 411648, Note_on_c, 0, 70, 80
2, 411896, Note_off_c, 0, 70, 100
2, 411904, Note_on_c, 0, 67, 80
2, 412152, Note_off_c, 0, 67, 100
2, 412160, Note_on_c, 0, 64, 80
2, 412408, Note_off_c, 0, 64, 100
2, 412416, Control_c, 0, 64, 127
2, 414208, Note_on_c, 0, 65, 120
2, 414464, Note_on_c, 0, 68, 120
2, 414672, Note_off_c, 0, 65, 100
2, 414720, Note_on_c, 0, 73, 120
2, 414944, Note_off_c, 0, 68, 100
2, 414976, Note_on_c, 0, 77, 120
2, 415176, Note_off_c, 0, 73, 100
2, 415232, Note_on_c, 0, 80, 120
2, 415448, Note_off_c, 0, 77, 100
2, 415472, Control_c, 0, 64, 0
2, 415480, Note_off_c, 0, 80, 100
2, 415488, Note_on_c, 0, 78, 102
2, 415736, Note_off_c, 0, 78, 100
2, 415744, Note_on_c, 0, 75, 80
2, 415992, Note_off_c, 0, 75, 100
2, 416000, Note_on_c, 0, 72, 80
2, 416248, Note_off_c, 0, 72, 100
2, 416256, Note_on_c, 0, 66, 80
2, 416504, Note_off_c, 0, 66, 100
2, 416512, Note_on_c, 0, 63, 80
2, 416760, Note_off_c, 0, 63, 100
2, 416768, Note_on_c, 0, 60, 80
2, 417016, Note_off_c, 0, 60, 100
2, 417024, Note_on_c, 0, 78, 80
2, 417272, Note_off_c, 0, 78, 100
2, 417280, Note_on_c, 0, 75, 80
2, 417528, Note_off_c, 0, 75, 100
2, 417536, Note_on_c, 0, 72, 80
2, 417784, Note_off_c, 0, 72, 100
2, 417792, Note_on_c, 0, 66, 80
2, 418040, Note_off_c, 0, 66, 100
2, 418048, Note_on_c, 0, 63, 80
2, 418296, Note_off_c, 0, 63, 100
2, 418304, Note_on_c, 0, 60, 80
2, 418552, Note_off_c, 0, 60, 100
2, 418560, Control_c, 0, 64, 127
2, 418816, Note_on_c, 0, 53, 70
2, 419072, Note_on_c, 0, 58, 70
2, 419240, Note_off_c, 0, 53, 100
2, 419328, Note_on_c, 0, 61, 70
2, 419552, Note_off_c, 0, 58, 100
2, 419584, Note_on_c, 0, 65, 70
2, 419784, Note_off_c, 0, 61, 100
2, 419840, Note_on_c, 0, 70, 70
2, 420072, Note_off_c, 0, 65, 100
2, 420096, Note_on_c, 0, 73, 70
2, 420280, Note_off_c, 0, 70, 100
2, 420352, Note_on_c, 0, 77, 70
2, 420592, Note_off_c, 0, 73, 100
2, 420608, Note_on_c, 0, 82, 70
2, 420784, Note_off_c, 0, 77, 100
2, 420864, Note_on_c, 0, 85, 70
2, 421056, Note_off_c, 0, 82, 100
2, 421120, Note_on_c, 0, 89, 70
2, 421304, Note_off_c, 0, 85, 100
2, 421376, Note_on_c, 0, 77, 70
2, 421576, Note_off_c, 0, 89, 100
2, 421616, Control_c, 0, 64, 0
2, 421624, Note_off_c, 0, 77, 100
2, 421632, Control_c, 0, 64, 127
2, 421888, Note_on_c, 0, 53, 70
2, 422144, Note_on_c, 0, 56, 70
2, 422352, Note_off_c, 0, 53, 100
2, 422400, Note_on_c, 0, 60, 70
2, 422592, Note_off_c, 0, 56, 100
2, 422656, Note_on_c, 0, 65, 70
2, 422848, Note_off_c, 0, 60, 100
2, 422912, Note_on_c, 0, 68, 70
2, 423104, Note_off_c, 0, 65, 100
2, 423168, Note_on_c, 0, 72, 70
2, 423352, Note_off_c, 0, 68, 100
2, 423424, Note_on_c, 0, 77, 70
2, 423608, Note_off_c, 0, 72, 100
2, 423688, Note_on_c, 0, 80, 70
2, 423880, Note_off_c, 0, 77, 100
2, 423936, Note_on_c, 0, 84, 70
2, 424152, Note_off_c, 0, 80, 100
2, 424192, Note_on_c, 0, 89, 70
2, 424400, Note_off_c, 0, 84, 100
2, 424448, Note_on_c, 0, 77, 70
2, 424600, Note_off_c, 0, 89, 100
2, 424688, Control_c, 0, 64, 0
2, 424696, Note_off_c, 0, 77, 100
2, 424704, Control_c, 0, 64, 127
2, 424960, Note_on_c, 0, 53, 70
2, 425216, Note_on_c, 0, 59, 70
2, 425408, Note_off_c, 0, 53, 100
2, 425472, Note_on_c, 0, 62, 70
2, 425672, Note_off_c, 0, 59, 100
2, 425728, Note_on_c, 0, 65, 70
2, 425896, Note_off_c, 0, 62, 100
2, 425984, Note_on_c, 0, 71, 70
2, 426184, Note_off_c, 0, 65, 100
2, 426240, Note_on_c, 0, 74, 70
2, 426432, Note_off_c, 0, 71, 100
2, 426496, Note_on_c, 0, 77, 70
2, 426648, Note_off_c, 0, 74, 100
2, 426752, Note_on_c, 0, 83, 70
2, 426944, Note_off_c, 0, 77, 100
2, 427008, Note_on_c, 0, 86, 70
2, 427200, Note_off_c, 0, 83, 100
2, 427264, Note_on_c, 0, 89, 70
2, 427432, Note_off_c, 0, 86, 100
2, 427520, Note_on_c, 0, 77, 70
2, 427720, Note_off_c, 0, 89, 100
2, 427760, Control_c, 0, 64, 0
2, 427768, Note_off_c, 0, 77, 100
2, 427776, Control_c, 0, 64, 127
2, 428032, Note_on_c, 0, 51, 70
2, 428288, Note_on_c, 0, 56, 70
2, 428480, Note_off_c, 0, 51, 100
2, 428544, Note_on_c, 0, 60, 70
2, 428688, Note_off_c, 0, 56, 100
2, 428800, Note_on_c, 0, 63, 70
2, 429008, Note_off_c, 0, 60, 100
2, 429056, Note_on_c, 0, 68, 70
2, 429256, Note_off_c, 0, 63, 100
2, 429312, Note_on_c, 0, 72, 70
2, 429496, Note_off_c, 0, 68, 100
2, 429568, Note_on_c, 0, 75, 70
2, 429760, Note_off_c, 0, 72, 100
2, 429824, Note_on_c, 0, 80, 70
2, 430016, Note_off_c, 0, 75, 100
2, 430080, Note_on_c, 0, 84, 70
2, 430288, Note_off_c, 0, 80, 100
2, 430336, Note_on_c, 0, 87, 70
2, 430504, Note_off_c, 0, 84, 100
2, 430592, Note_on_c, 0, 75, 70
2, 430768, Note_off_c, 0, 87, 100
2, 430832, Control_c, 0, 64, 0
2, 430840, Note_off_c, 0, 75, 100
2, 430848, Control_c, 0, 64, 127
2, 433152, Note_on_c, 0, 60, 60
2, 433408, Note_on_c, 0, 63, 60
2, 433664, Note_on_c, 0, 66, 60
2, 433920, Note_on_c, 0, 69, 60
2, 434168, Note_off_c, 0, 60, 100
2, 434176, Note_on_c, 0, 72, 60
2, 434424, Note_off_c, 0, 63, 100
2, 434432, Note_on_c, 0, 75, 60
2, 434680, Note_off_c, 0, 66, 100
2, 434688, Note_on_c, 0, 78, 60
2, 434936, Note_off_c, 0, 69, 100
2, 434944, Note_on_c, 0, 81, 60
2, 435192, Note_off_c, 0, 72, 100
2, 435200, Note_on_c, 0, 84, 60
2, 435448, Note_off_c, 0, 75, 100
2, 435456, Note_on_c, 0, 87, 60
2, 435704, Note_off_c, 0, 78, 100
2, 435712, Note_on_c, 0, 84, 60
2, 435960, Note_off_c, 0, 81, 100
2, 435968, Note_on_c, 0, 81, 60
2, 436216, Note_off_c, 0, 84, 100
2, 436224, Note_on_c, 0, 90, 60
2, 436472, Note_off_c, 0, 87, 100
2, 436480, Note_on_c, 0, 87, 60
2, 436728, Note_off_c, 0, 84, 100
2, 436736, Note_on_c, 0, 84, 60
2, 436976, Note_off_c, 0, 90, 100
2, 436976, Note_off_c, 0, 87, 100
2, 436976, Control_c, 0, 64, 0
2, 436984, Note_off_c, 0, 81, 100
2, 436984, Note_off_c, 0, 84, 100
2, 436992, Note_on_c, 0, 76, 70
2, 436992, Note_on_c, 0, 72, 70
2, 437176, Note_off_c, 0, 76, 100
2, 437176, Note_off_c, 0, 72, 100
2, 437184, Note_on_c, 0, 91, 70
2, 437184, Note_on_c, 0, 79, 70
2, 437368, Note_off_c, 0, 91, 100
2, 437368, Note_off_c, 0, 79, 100
2, 437376, Note_on_c, 0, 89, 70
2, 437376, Note_on_c, 0, 77, 70
2, 437560, Note_off_c, 0, 89, 100
2, 437560, Note_off_c, 0, 77, 100
2, 437568, Note_on_c, 0, 88, 70
2, 437568, Note_on_c, 0, 76, 70
2, 437752, Note_off_c, 0, 88, 100
2, 437752, Note_off_c, 0, 76, 100
2, 437760, Note_on_c, 0, 86, 70
2, 437760, Note_on_c, 0, 74, 70
2, 437944, Note_off_c, 0, 86, 100
2, 437944, Note_off_c, 0, 74, 100
2, 437952, Note_on_c, 0, 84, 70
2, 437952, Note_on_c, 0, 72, 70
2, 438136, Note_off_c, 0, 84, 100
2, 438136, Note_off_c, 0, 72, 100
2, 438144, Note_on_c, 0, 83, 70
2, 438144, Note_on_c, 0, 71, 70
2, 438328, Note_off_c, 0, 83, 100
2, 438328, Note_off_c, 0, 71, 100
2, 438336, Note_on_c, 0, 81, 70
2, 438336, Note_on_c, 0, 69, 70
2, 438520, Note_off_c, 0, 81, 100
2, 438520, Note_off_c, 0, 69, 100
2, 438528, Note_on_c, 0, 79, 70
2, 438528, Note_on_c, 0, 67, 70
2, 438904, Note_off_c, 0, 79, 100
2, 438904, Note_off_c, 0, 67, 100
2, 438912, Note_on_c, 0, 77, 70
2, 438912, Note_on_c, 0, 65, 70
2, 439096, Note_off_c, 0, 77, 100
2, 439096, Note_off_c, 0, 65, 100
2, 439104, Note_on_c, 0, 76, 70
2, 439104, Note_on_c, 0, 64, 70
2, 439288, Note_off_c, 0, 76, 100
2, 439288, Note_off_c, 0, 64, 100
2, 439296, Note_on_c, 0, 74, 70
2, 439296, Note_on_c, 0, 62, 70
2, 439480, Note_off_c, 0, 74, 100
2, 439480, Note_off_c, 0, 62, 100
2, 439488, Note_on_c, 0, 72, 70
2, 439488, Note_on_c, 0, 60, 70
2, 439672, Note_off_c, 0, 72, 100
2, 439672, Note_off_c, 0, 60, 100
2, 439680, Note_on_c, 0, 71, 70
2, 439680, Note_on_c, 0, 59, 70
2, 439864, Note_off_c, 0, 71, 100
2, 439864, Note_off_c, 0, 59, 100
2, 439872, Note_on_c, 0, 69, 70
2, 439872, Note_on_c, 0, 57, 70
2, 440056, Note_off_c, 0, 69, 100
2, 440056, Note_off_c, 0, 57, 100
2, 440064, Note_on_c, 0, 67, 70
2, 440064, Note_on_c, 0, 60, 70
2, 440064, Note_on_c, 0, 55, 70
2, 440064, Note_on_c, 0, 64, 70
2, 441592, Note_off_c, 0, 60, 100
2, 441592, Note_off_c, 0, 55, 100
2, 441592, Note_off_c, 0, 64, 100
2, 441600, Note_on_c, 0, 62, 70
2, 441600, Note_on_c, 0, 59, 70
2, 442360, Note_off_c, 0, 67, 100
2, 442360, Note_off_c, 0, 62, 100
2, 442360, Note_off_c, 0, 59, 100
2, 442368, Note_on_c, 0, 77, 70
2, 442368, Note_on_c, 0, 74, 70
2, 443128, Note_off_c, 0, 77, 100
2, 443128, Note_off_c, 0, 74, 100
2, 443136, Note_on_c, 0, 76, 70
2, 443136, Note_on_c, 0, 72, 70
2, 443320, Note_off_c, 0, 76, 100
2, 443320, Note_off_c, 0, 72, 100
2, 443328, Note_on_c, 0, 91, 70
2, 443328, Note_on_c, 0, 79, 70
2, 443512, Note_off_c, 0, 91, 100
2, 443512, Note_off_c, 0, 79, 100
2, 443520, Note_on_c, 0, 89, 70
2, 443520, Note_on_c, 0, 77, 70
2, 443704, Note_off_c, 0, 89, 100
2, 443704, Note_off_c, 0, 77, 100
2, 443712, Note_on_c, 0, 88, 70
2, 443712, Note_on_c, 0, 76, 70
2, 443896, Note_off_c, 0, 88, 100
2, 443896, Note_off_c, 0, 76, 100
2, 443904, Note_on_c, 0, 86, 70
2, 443904, Note_on_c, 0, 74, 70
2, 444088, Note_off_c, 0, 86, 100
2, 444088, Note_off_c, 0, 74, 100
2, 444096, Note_on_c, 0, 84, 70
2, 444096, Note_on_c, 0, 72, 70
2, 444280, Note_off_c, 0, 84, 100
2, 444280, Note_off_c, 0, 72, 100
2, 444288, Note_on_c, 0, 83, 70
2, 444288, Note_on_c, 0, 71, 70
2, 444472, Note_off_c, 0, 83, 100
2, 444472, Note_off_c, 0, 71, 100
2, 444480, Note_on_c, 0, 81, 70
2, 444480, Note_on_c, 0, 69, 70
2, 444664, Note_off_c, 0, 81, 100
2, 444664, Note_off_c, 0, 69, 100
2, 444672, Note_on_c, 0, 79, 70
2, 444672, Note_on_c, 0, 67, 70
2, 445048, Note_off_c, 0, 79, 100
2, 445048, Note_off_c, 0, 67, 100
2, 445056, Note_on_c, 0, 77, 70
2, 445056, Note_on_c, 0, 65, 70
2, 445240, Note_off_c, 0, 77, 100
2, 445240, Note_off_c, 0, 65, 100
2, 445248, Note_on_c, 0, 76, 70
2, 445248, Note_on_c, 0, 64, 70
2, 445432, Note_off_c, 0, 76, 100
2, 445432, Note_off_c, 0, 64, 100
2, 445440, Note_on_c, 0, 74, 70
2, 445440, Note_on_c, 0, 62, 70
2, 445624, Note_off_c, 0, 74, 100
2, 445624, Note_off_c, 0, 62, 100
2, 445632, Note_on_c, 0, 72, 70
2, 445632, Note_on_c, 0, 60, 70
2, 445816, Note_off_c, 0, 72, 100
2, 445816, Note_off_c, 0, 60, 100
2, 445824, Note_on_c, 0, 71, 70
2, 445824, Note_on_c, 0, 59, 70
2, 446008, Note_off_c, 0, 71, 100
2, 446008, Note_off_c, 0, 59, 100
2, 446016, Note_on_c, 0, 69, 70
2, 446016, Note_on_c, 0, 57, 70
2, 446200, Note_off_c, 0, 69, 100
2, 446200, Note_off_c, 0, 57, 100
2, 446208, Note_on_c, 0, 67, 70
2, 446208, Note_on_c, 0, 60, 70
2, 446208, Note_on_c, 0, 55, 70
2, 446208, Note_on_c, 0, 64, 70
2, 447736, Note_off_c, 0, 60, 100
2, 447736, Note_off_c, 0, 55, 100
2, 447736, Note_off_c, 0, 64, 100
2, 447744, Note_on_c, 0, 62, 70
2, 447744, Note_on_c, 0, 59, 70
2, 448504, Note_off_c, 0, 67, 100
2, 448504, Note_off_c, 0, 62, 100
2, 448504, Note_off_c, 0, 59, 100
2, 448512, Note_on_c, 0, 77, 70
2, 448512, Note_on_c, 0, 74, 70
2, 449272, Note_off_c, 0, 77, 100
2, 449272, Note_off_c, 0, 74, 100
2, 449280, Note_on_c, 0, 76, 70
2, 449280, Note_on_c, 0, 72, 70
2, 449464, Note_off_c, 0, 76, 100
2, 449464, Note_off_c, 0, 72, 100
2, 449472, Note_on_c, 0, 91, 70
2, 449472, Note_on_c, 0, 79, 70
2, 449656, Note_off_c, 0, 91, 100
2, 449656, Note_off_c, 0, 79, 100
2, 449664, Note_on_c, 0, 89, 70
2, 449664, Note_on_c, 0, 77, 70
2, 449848, Note_off_c, 0, 89, 100
2, 449848, Note_off_c, 0, 77, 100
2, 449856, Note_on_c, 0, 88, 70
2, 449856, Note_on_c, 0, 76, 70
2, 450040, Note_off_c, 0, 88, 100
2, 450040, Note_off_c, 0, 76, 100
2, 450048, Note_on_c, 0, 86, 70
2, 450048, Note_on_c, 0, 74, 70
2, 450232, Note_off_c, 0, 86, 100
2, 450232, Note_off_c, 0, 74, 100
2, 450240, Note_on_c, 0, 84, 70
2, 450240, Note_on_c, 0, 72, 70
2, 450424, Note_off_c, 0, 84, 100
2, 450424, Note_off_c, 0, 72, 100
2, 450432, Note_on_c, 0, 83, 70
2, 450432, Note_on_c, 0, 71, 70
2, 450616, Note_off_c, 0, 83, 100
2, 450616, Note_off_c, 0, 71, 100
2, 450624, Note_on_c, 0, 81, 70
2, 450624, Note_on_c, 0, 69, 70
2, 450808, Note_off_c, 0, 81, 100
2, 450808, Note_off_c, 0, 69, 100
2, 450816, Note_on_c, 0, 79, 70
2, 450816, Note_on_c, 0, 67, 70
2, 451192, Note_off_c, 0, 79, 100
2, 451192, Note_off_c, 0, 67, 100
2, 451200, Note_on_c, 0, 77, 70
2, 451200, Note_on_c, 0, 65, 70
2, 451384, Note_off_c, 0, 77, 100
2, 451384, Note_off_c, 0, 65, 100
2, 451392, Note_on_c, 0, 76, 70
2, 451392, Note_on_c, 0, 64, 70
2, 451576, Note_off_c, 0, 76, 100
2, 451576, Note_off_c, 0, 64, 100
2, 451584, Note_on_c, 0, 74, 70
2, 451584, Note_on_c, 0, 62, 70
2, 451768, Note_off_c, 0, 74, 100
2, 451768, Note_off_c, 0, 62, 100
2, 451776, Note_on_c, 0, 72, 70
2, 451776, Note_on_c, 0, 60, 70
2, 451960, Note_off_c, 0, 72, 100
2, 451960, Note_off_c, 0, 60, 100
2, 451968, Note_on_c, 0, 71, 70
2, 451968, Note_on_c, 0, 59, 70
2, 452152, Note_off_c, 0, 71, 100
2, 452152, Note_off_c, 0, 59, 100
2, 452160, Note_on_c, 0, 69, 70
2, 452160, Note_on_c, 0, 57, 70
2, 452344, Note_off_c, 0, 69, 100
2, 452344, Note_off_c, 0, 57, 100
2, 452352, Note_on_c, 0, 67, 70
2, 452352, Note_on_c, 0, 55, 70
2, 452536, Note_off_c, 0, 67, 100
2, 452536, Note_off_c, 0, 55, 100
2, 452544, Note_on_c, 0, 57, 72
2, 452728, Note_off_c, 0, 57, 100
2, 452736, Note_on_c, 0, 59, 74
2, 452920, Note_off_c, 0, 59, 100
2, 452928, Note_on_c, 0, 60, 76
2, 453112, Note_off_c, 0, 60, 100
2, 453120, Note_on_c, 0, 62, 79
2, 453304, Note_off_c, 0, 62, 100
2, 453312, Note_on_c, 0, 64, 81
2, 453496, Note_off_c, 0, 64, 100
2, 453504, Note_on_c, 0, 65, 83
2, 453688, Note_off_c, 0, 65, 100
2, 453696, Note_on_c, 0, 66, 86
2, 453880, Note_off_c, 0, 66, 100
2, 453888, Note_on_c, 0, 67, 88
2, 454072, Note_off_c, 0, 67, 100
2, 454080, Note_on_c, 0, 69, 90
2, 454264, Note_off_c, 0, 69, 100
2, 454272, Note_on_c, 0, 71, 93
2, 454456, Note_off_c, 0, 71, 100
2, 454464, Note_on_c, 0, 72, 95
2, 454648, Note_off_c, 0, 72, 100
2, 454656, Note_on_c, 0, 74, 97
2, 454840, Note_off_c, 0, 74, 100
2, 454848, Note_on_c, 0, 76, 100
2, 455032, Note_off_c, 0, 76, 100
2, 455040, Note_on_c, 0, 77, 102
2, 455224, Note_off_c, 0, 77, 100
2, 455232, Note_on_c, 0, 78, 104
2, 455416, Note_off_c, 0, 78, 100
2, 455424, Note_on_c, 0, 79, 110
2, 455520, Note_on_c, 0, 81, 110
2, 455584, Note_off_c, 0, 79, 100
2, 455616, Note_on_c, 0, 79, 110
2, 455688, Note_off_c, 0, 81, 100
2, 455712, Note_on_c, 0, 81, 110
2, 455776, Note_off_c, 0, 79, 100
2, 455808, Note_on_c, 0, 79, 110
2, 455864, Note_off_c, 0, 81, 100
2, 455904, Note_on_c, 0, 81, 110
2, 455968, Note_off_c, 0, 79, 100
2, 456000, Note_on_c, 0, 79, 110
2, 456072, Note_off_c, 0, 81, 100
2, 456096, Note_on_c, 0, 81, 110
2, 456160, Note_off_c, 0, 79, 100
2, 456192, Note_on_c, 0, 79, 110
2, 456248, Note_off_c, 0, 81, 100
2, 456288, Note_on_c, 0, 81, 110
2, 456352, Note_off_c, 0, 79, 100
2, 456384, Note_on_c, 0, 79, 110
2, 456456, Note_off_c, 0, 81, 100
2, 456480, Note_on_c, 0, 81, 110
2, 456544, Note_off_c, 0, 79, 100
2, 456576, Note_on_c, 0, 79, 110
2, 456632, Note_off_c, 0, 81, 100
2, 456672, Note_on_c, 0, 81, 110
2, 456736, Note_off_c, 0, 79, 100
2, 456768, Note_on_c, 0, 79, 110
2, 456840, Note_off_c, 0, 81, 100
2, 456864, Note_on_c, 0, 81, 110
2, 456928, Note_off_c, 0, 79, 100
2, 456960, Note_on_c, 0, 79, 110
2, 457016, Note_off_c, 0, 81, 100
2, 457056, Note_on_c, 0, 81, 110
2, 457120, Note_off_c, 0, 79, 100
2, 457152, Note_on_c, 0, 79, 110
2, 457224, Note_off_c, 0, 81, 100
2, 457248, Note_on_c, 0, 81, 110
2, 457312, Note_off_c, 0, 79, 100
2, 457344, Note_on_c, 0, 79, 110
2, 457400, Note_off_c, 0, 81, 100
2, 457440, Note_on_c, 0, 81, 110
2, 457504, Note_off_c, 0, 79, 100
2, 457536, Note_on_c, 0, 79, 110
2, 457608, Note_off_c, 0, 81, 100
2, 457632, Note_on_c, 0, 81, 110
2, 457696, Note_off_c, 0, 79, 100
2, 457728, Note_on_c, 0, 79, 110
2, 457784, Note_off_c, 0, 81, 100
2, 457824, Note_on_c, 0, 81, 110
2, 457888, Note_off_c, 0, 79, 100
2, 457920, Note_on_c, 0, 79, 110
2, 457992, Note_off_c, 0, 81, 100
2, 458016, Note_on_c, 0, 81, 110
2, 458080, Note_off_c, 0, 79, 100
2, 458112, Note_on_c, 0, 79, 110
2, 458168, Note_off_c, 0, 81, 100
2, 458208, Note_on_c, 0, 81, 110
2, 458272, Note_off_c, 0, 79, 100
2, 458304, Note_on_c, 0, 79, 110
2, 458376, Note_off_c, 0, 81, 100
2, 458400, Note_on_c, 0, 81, 110
2, 458464, Note_off_c, 0, 79, 100
2, 458496, Note_on_c, 0, 79, 110
2, 458552, Note_off_c, 0, 81, 100
2, 458592, Note_on_c, 0, 81, 110
2, 458656, Note_off_c, 0, 79, 100
2, 458688, Note_on_c, 0, 79, 110
2, 458760, Note_off_c, 0, 81, 100
2, 458784, Note_on_c, 0, 81, 110
2, 458848, Note_off_c, 0, 79, 100
2, 458880, Note_on_c, 0, 79, 110
2, 458936, Note_off_c, 0, 81, 100
2, 458976, Note_on_c, 0, 81, 110
2, 459040, Note_off_c, 0, 79, 100
2, 459072, Note_on_c, 0, 79, 110
2, 459144, Note_off_c, 0, 81, 100
2, 459168, Note_on_c, 0, 81, 110
2, 459232, Note_off_c, 0, 79, 100
2, 459264, Note_on_c, 0, 79, 109
2, 459320, Note_off_c, 0, 81, 100
2, 459360, Note_on_c, 0, 81, 108
2, 459424, Note_off_c, 0, 79, 100
2, 459456, Note_on_c, 0, 79, 107
2, 459528, Note_off_c, 0, 81, 100
2, 459552, Note_on_c, 0, 81, 106
2, 459616, Note_off_c, 0, 79, 100
2, 459648, Note_on_c, 0, 79, 105
2, 459704, Note_off_c, 0, 81, 100
2, 459744, Note_on_c, 0, 81, 103
2, 459808, Note_off_c, 0, 79, 100
2, 459840, Note_on_c, 0, 79, 102
2, 459912, Note_off_c, 0, 81, 100
2, 459936, Note_on_c, 0, 81, 101
2, 460000, Note_off_c, 0, 79, 100
2, 460032, Note_on_c, 0, 79, 100
2, 460088, Note_off_c, 0, 81, 100
2, 460128, Note_on_c, 0, 81, 99
2, 460192, Note_off_c, 0, 79, 100
2, 460224, Note_on_c, 0, 79, 97
2, 460296, Note_off_c, 0, 81, 100
2, 460320, Note_on_c, 0, 81, 96
2, 460384, Note_off_c, 0, 79, 100
2, 460416, Note_on_c, 0, 79, 95
2, 460472, Note_off_c, 0, 81, 100
2, 460512, Note_on_c, 0, 81, 94
2, 460576, Note_off_c, 0, 79, 100
2, 460608, Note_on_c, 0, 79, 93
2, 460680, Note_off_c, 0, 81, 100
2, 460704, Note_on_c, 0, 81, 91
2, 460768, Note_off_c, 0, 79, 100
2, 460800, Note_on_c, 0, 79, 90
2, 460856, Note_off_c, 0, 81, 100
2, 460896, Note_on_c, 0, 81, 89
2, 460960, Note_off_c, 0, 79, 100
2, 460992, Note_on_c, 0, 79, 88
2, 461064, Note_off_c, 0, 81, 100
2, 461088, Note_on_c, 0, 81, 87
2, 461152, Note_off_c, 0, 79, 100
2, 461184, Note_on_c, 0, 79, 85
2, 461240, Note_off_c, 0, 81, 100
2, 461280, Note_on_c, 0, 81, 84
2, 461344, Note_off_c, 0, 79, 100
2, 461376, Note_on_c, 0, 79, 83
2, 461448, Note_off_c, 0, 81, 100
2, 461472, Note_on_c, 0, 81, 82
2, 461536, Note_off_c, 0, 79, 100
2, 461568, Note_on_c, 0, 79, 81
2, 461624, Note_off_c, 0, 81, 100
2, 461664, Note_on_c, 0, 81, 80
2, 461728, Note_off_c, 0, 79, 100
2, 461760, Note_on_c, 0, 79, 80
2, 461832, Note_off_c, 0, 81, 100
2, 461856, Note_on_c, 0, 81, 80
2, 461920, Note_off_c, 0, 79, 100
2, 461952, Note_on_c, 0, 79, 80
2, 462008, Note_off_c, 0, 81, 100
2, 462048, Note_on_c, 0, 81, 80
2, 462112, Note_off_c, 0, 79, 100
2, 462144, Note_on_c, 0, 79, 80
2, 462216, Note_off_c, 0, 81, 100
2, 462240, Note_on_c, 0, 81, 80
2, 462304, Note_off_c, 0, 79, 100
2, 462336, Note_on_c, 0, 79, 80
2, 462392, Note_off_c, 0, 81, 100
2, 462432, Note_on_c, 0, 81, 80
2, 462496, Note_off_c, 0, 79, 100
2, 462528, Note_on_c, 0, 79, 80
2, 462600, Note_off_c, 0, 81, 100
2, 462624, Note_on_c, 0, 81, 80
2, 462688, Note_off_c, 0, 79, 100
2, 462720, Note_on_c, 0, 79, 80
2, 462776, Note_off_c, 0, 81, 100
2, 462816, Note_on_c, 0, 81, 80
2, 462880, Note_off_c, 0, 79, 100
2, 462912, Note_on_c, 0, 79, 80
2, 462984, Note_off_c, 0, 81, 100
2, 463008, Note_on_c, 0, 81, 80
2, 463072, Note_off_c, 0, 79, 100
2, 463104, Note_on_c, 0, 79, 80
2, 463160, Note_off_c, 0, 81, 100
2, 463200, Note_on_c, 0, 81, 80
2, 463264, Note_off_c, 0, 79, 100
2, 463296, Note_on_c, 0, 79, 80
2, 463368, Note_off_c, 0, 81, 100
2, 463392, Note_on_c, 0, 81, 80
2, 463456, Note_off_c, 0, 79, 100
2, 463488, Note_on_c, 0, 79, 80
2, 463544, Note_off_c, 0, 81, 100
2, 463584, Note_on_c, 0, 81, 80
2, 463648, Note_off_c, 0, 79, 100
2, 463680, Note_on_c, 0, 79, 80
2, 463752, Note_off_c, 0, 81, 100
2, 463776, Note_on_c, 0, 81, 80
2, 463840, Note_off_c, 0, 79, 100
2, 463872, Note_on_c, 0, 79, 80
2, 463928, Note_off_c, 0, 81, 100
2, 463968, Note_on_c, 0, 81, 80
2, 464032, Note_off_c, 0, 79, 100
2, 464064, Note_on_c, 0, 79, 80
2, 464136, Note_off_c, 0, 81, 100
2, 464160, Note_on_c, 0, 81, 80
2, 464224, Note_off_c, 0, 79, 100
2, 464256, Note_on_c, 0, 79, 80
2, 464312, Note_off_c, 0, 81, 100
2, 464352, Note_on_c, 0, 81, 80
2, 464416, Note_off_c, 0, 79, 100
2, 464448, Note_on_c, 0, 79, 80
2, 464520, Note_off_c, 0, 81, 100
2, 464544, Note_on_c, 0, 81, 80
2, 464608, Note_off_c, 0, 79, 100
2, 464640, Note_on_c, 0, 79, 80
2, 464696, Note_off_c, 0, 81, 100
2, 464736, Note_on_c, 0, 81, 80
2, 464800, Note_off_c, 0, 79, 100
2, 464832, Note_on_c, 0, 79, 81
2, 464904, Note_off_c, 0, 81, 100
2, 464928, Note_on_c, 0, 81, 81
2, 464992, Note_off_c, 0, 79, 100
2, 465024, Note_on_c, 0, 79, 82
2, 465080, Note_off_c, 0, 81, 100
2, 465120, Note_on_c, 0, 81, 83
2, 465184, Note_off_c, 0, 79, 100
2, 465216, Note_on_c, 0, 79, 83
2, 465288, Note_off_c, 0, 81, 100
2, 465312, Note_on_c, 0, 81, 84
2, 465376, Note_off_c, 0, 79, 100
2, 465408, Note_on_c, 0, 79, 84
2, 465464, Note_off_c, 0, 81, 100
2, 465504, Note_on_c, 0, 81, 85
2, 465568, Note_off_c, 0, 79, 100
2, 465600, Note_on_c, 0, 79, 86
2, 465672, Note_off_c, 0, 81, 100
2, 465696, Note_on_c, 0, 81, 86
2, 465760, Note_off_c, 0, 79, 100
2, 465792, Note_on_c, 0, 79, 87
2, 465848, Note_off_c, 0, 81, 100
2, 465888, Note_on_c, 0, 81, 88
2, 465952, Note_off_c, 0, 79, 100
2, 465984, Note_on_c, 0, 79, 88
2, 466056, Note_off_c, 0, 81, 100
2, 466080, Note_on_c, 0, 81, 89
2, 466144, Note_off_c, 0, 79, 100
2, 466176, Note_on_c, 0, 79, 89
2, 466232, Note_off_c, 0, 81, 100
2, 466272, Note_on_c, 0, 81, 90
2, 466336, Note_off_c, 0, 79, 100
2, 466368, Note_on_c, 0, 79, 91
2, 466440, Note_off_c, 0, 81, 100
2, 466464, Note_on_c, 0, 81, 91
2, 466528, Note_off_c, 0, 79, 100
2, 466560, Note_on_c, 0, 79, 92
2, 466616, Note_off_c, 0, 81, 100
2, 466656, Note_on_c, 0, 81, 93
2, 466720, Note_off_c, 0, 79, 100
2, 466752, Note_on_c, 0, 79, 93
2, 466824, Note_off_c, 0, 81, 100
2, 466848, Note_on_c, 0, 81, 94
2, 466912, Note_off_c, 0, 79, 100
2, 466944, Note_on_c, 0, 79, 94
2, 467000, Note_off_c, 0, 81, 100
2, 467040, Note_on_c, 0, 81, 95
2, 467104, Note_off_c, 0, 79, 100
2, 467136, Note_on_c, 0, 79, 96
2, 467208, Note_off_c, 0, 81, 100
2, 467232, Note_on_c, 0, 81, 96
2, 467296, Note_off_c, 0, 79, 100
2, 467328, Note_on_c, 0, 79, 97
2, 467384, Note_off_c, 0, 81, 100
2, 467424, Note_on_c, 0, 81, 98
2, 467488, Note_off_c, 0, 79, 100
2, 467520, Note_on_c, 0, 79, 98
2, 467592, Note_off_c, 0, 81, 100
2, 467616, Note_on_c, 0, 81, 99
2, 467680, Note_off_c, 0, 79, 100
2, 467712, Note_on_c, 0, 79, 99
2, 467768, Note_off_c, 0, 81, 100
2, 467808, Note_on_c, 0, 81, 80
2, 467872, Note_off_c, 0, 79, 100
2, 467904, Note_on_c, 0, 79, 80
2, 467976, Note_off_c, 0, 81, 100
2, 468000, Note_on_c, 0, 81, 80
2, 468064, Note_off_c, 0, 79, 100
2, 468096, Note_on_c, 0, 79, 80
2, 468152, Note_off_c, 0, 81, 100
2, 468192, Note_on_c, 0, 81, 80
2, 468256, Note_off_c, 0, 79, 100
2, 468288, Note_on_c, 0, 79, 80
2, 468360, Note_off_c, 0, 81, 100
2, 468384, Note_on_c, 0, 81, 80
2, 468448, Note_off_c, 0, 79, 100
2, 468480, Note_on_c, 0, 79, 80
2, 468480, Note_on_c, 0, 91, 80
2, 468536, Note_off_c, 0, 81, 100
2, 468576, Note_on_c, 0, 81, 80
2, 468640, Note_off_c, 0, 79, 100
2, 468672, Note_on_c, 0, 79, 80
2, 468744, Note_off_c, 0, 81, 100
2, 468768, Note_on_c, 0, 81, 80
2, 468832, Note_off_c, 0, 79, 100
2, 468864, Note_on_c, 0, 79, 80
2, 468920, Note_off_c, 0, 81, 100
2, 468960, Note_on_c, 0, 81, 80
2, 469024, Note_off_c, 0, 79, 100
2, 469056, Note_on_c, 0, 79, 80
2, 469128, Note_off_c, 0, 81, 100
2, 469152, Note_on_c, 0, 81, 80
2, 469216, Note_off_c, 0, 79, 100
2, 469240, Note_off_c, 0, 91, 100
2, 469248, Note_on_c, 0, 79, 80
2, 469248, Note_on_c, 0, 91, 80
2, 469304, Note_off_c, 0, 81, 100
2, 469344, Note_on_c, 0, 81, 80
2, 469408, Note_off_c, 0, 79, 100
2, 469440, Note_on_c, 0, 79, 80
2, 469512, Note_off_c, 0, 81, 100
2, 469536, Note_on_c, 0, 81, 80
2, 469600, Note_off_c, 0, 79, 100
2, 469632, Note_on_c, 0, 79, 80
2, 469688, Note_off_c, 0, 81, 100
2, 469728, Note_on_c, 0, 81, 80
2, 469792, Note_off_c, 0, 79, 100
2, 469824, Note_on_c, 0, 79, 80
2, 469896, Note_off_c, 0, 81, 100
2, 469920, Note_on_c, 0, 81, 80
2, 469984, Note_off_c, 0, 79, 100
2, 470016, Note_on_c, 0, 79, 80
2, 470072, Note_off_c, 0, 81, 100
2, 470112, Note_on_c, 0, 81, 80
2, 470176, Note_off_c, 0, 79, 100
2, 470208, Note_on_c, 0, 79, 80
2, 470280, Note_off_c, 0, 81, 100
2, 470304, Note_on_c, 0, 81, 80
2, 470368, Note_off_c, 0, 79, 100
2, 470392, Note_off_c, 0, 91, 100
2, 470400, Note_on_c, 0, 79, 80
2, 470400, Note_on_c, 0, 88, 80
2, 470456, Note_off_c, 0, 81, 100
2, 470496, Note_on_c, 0, 81, 80
2, 470560, Note_off_c, 0, 79, 100
2, 470592, Note_on_c, 0, 79, 80
2, 470664, Note_off_c, 0, 81, 100
2, 470688, Note_on_c, 0, 81, 80
2, 470752, Note_off_c, 0, 79, 100
2, 470776, Note_off_c, 0, 88, 100
2, 470784, Note_on_c, 0, 79, 80
2, 470784, Note_on_c, 0, 86, 80
2, 470840, Note_off_c, 0, 81, 100
2, 470880, Note_on_c, 0, 81, 80
2, 470944, Note_off_c, 0, 79, 100
2, 470976, Note_on_c, 0, 79, 80
2, 471048, Note_off_c, 0, 81, 100
2, 471072, Note_on_c, 0, 81, 80
2, 471136, Note_off_c, 0, 79, 100
2, 471168, Note_on_c, 0, 79, 80
2, 471224, Note_off_c, 0, 81, 100
2, 471264, Note_on_c, 0, 81, 80
2, 471328, Note_off_c, 0, 79, 100
2, 471360, Note_on_c, 0, 79, 80
2, 471432, Note_off_c, 0, 81, 100
2, 471456, Note_on_c, 0, 81, 80
2, 471520, Note_off_c, 0, 79, 100
2, 471544, Note_off_c, 0, 86, 100
2, 471552, Note_on_c, 0, 79, 100
2, 471608, Note_off_c, 0, 81, 100
2, 471648, Note_on_c, 0, 81, 80
2, 471712, Note_off_c, 0, 79, 100
2, 471744, Note_on_c, 0, 79, 80
2, 471816, Note_off_c, 0, 81, 100
2, 471840, Note_on_c, 0, 81, 80
2, 471928, Note_off_c, 0, 79, 100
2, 471936, Note_on_c, 0, 79, 80
2, 471992, Note_off_c, 0, 81, 100
2, 472032, Note_on_c, 0, 81, 80
2, 472112, Note_off_c, 0, 79, 100
2, 472128, Note_on_c, 0, 79, 80
2, 472200, Note_off_c, 0, 81, 100
2, 472224, Note_on_c, 0, 81, 80
2, 472312, Note_off_c, 0, 79, 100
2, 472320, Note_on_c, 0, 84, 80
2, 472320, Note_on_c, 0, 79, 80
2, 472376, Note_off_c, 0, 81, 100
2, 472416, Note_on_c, 0, 81, 80
2, 472480, Note_off_c, 0, 79, 100
2, 472512, Note_on_c, 0, 79, 80
2, 472584, Note_off_c, 0, 81, 100
2, 472608, Note_on_c, 0, 81, 80
2, 472672, Note_off_c, 0, 79, 100
2, 472704, Note_on_c, 0, 79, 80
2, 472760, Note_off_c, 0, 81, 100
2, 472800, Note_on_c, 0, 81, 80
2, 472864, Note_off_c, 0, 79, 100
2, 472896, Note_on_c, 0, 79, 80
2, 472968, Note_off_c, 0, 81, 100
2, 472992, Note_on_c, 0, 81, 80
2, 473056, Note_off_c, 0, 79, 100
2, 473080, Note_off_c, 0, 84, 100
2, 473088, Note_on_c, 0, 88, 80
2, 473088, Note_on_c, 0, 79, 80
2, 473144, Note_off_c, 0, 81, 100
2, 473184, Note_on_c, 0, 81, 80
2, 473248, Note_off_c, 0, 79, 100
2, 473280, Note_on_c, 0, 79, 80
2, 473352, Note_off_c, 0, 81, 100
2, 473376, Note_on_c, 0, 81, 80
2, 473440, Note_off_c, 0, 79, 100
2, 473472, Note_on_c, 0, 79, 80
2, 473528, Note_off_c, 0, 81, 100
2, 473568, Note_on_c, 0, 81, 80
2, 473632, Note_off_c, 0, 79, 100
2, 473664, Note_on_c, 0, 79, 80
2, 473736, Note_off_c, 0, 81, 100
2, 473760, Note_on_c, 0, 81, 80
2, 473824, Note_off_c, 0, 79, 100
2, 473848, Note_off_c, 0, 88, 100
2, 473856, Note_on_c, 0, 79, 80
2, 473912, Note_off_c, 0, 81, 100
2, 473952, Note_on_c, 0, 81, 80
2, 474016, Note_off_c, 0, 79, 100
2, 474048, Note_on_c, 0, 79, 80
2, 474120, Note_off_c, 0, 81, 100
2, 474144, Note_on_c, 0, 81, 80
2, 474208, Note_off_c, 0, 79, 100
2, 474240, Note_on_c, 0, 79, 80
2, 474296, Note_off_c, 0, 81, 100
2, 474336, Note_on_c, 0, 81, 80
2, 474400, Note_off_c, 0, 79, 100
2, 474432, Note_on_c, 0, 79, 80
2, 474504, Note_off_c, 0, 81, 100
2, 474528, Note_on_c, 0, 81, 80
2, 474592, Note_off_c, 0, 79, 100
2, 474624, Note_on_c, 0, 79, 80
2, 474624, Note_on_c, 0, 91, 80
2, 474680, Note_off_c, 0, 81, 100
2, 474720, Note_on_c, 0, 81, 80
2, 474784, Note_off_c, 0, 79, 100
2, 474816, Note_on_c, 0, 79, 80
2, 474888, Note_off_c, 0, 81, 100
2, 474912, Note_on_c, 0, 81, 80
2, 474976, Note_off_c, 0, 79, 100
2, 475008, Note_on_c, 0, 79, 80
2, 475064, Note_off_c, 0, 81, 100
2, 475104, Note_on_c, 0, 81, 80
2, 475168, Note_off_c, 0, 79, 100
2, 475200, Note_on_c, 0, 79, 80
2, 475272, Note_off_c, 0, 81, 100
2, 475296, Note_on_c, 0, 81, 80
2, 475360, Note_off_c, 0, 79, 100
2, 475384, Note_off_c, 0, 91, 100
2, 475392, Note_on_c, 0, 79, 80
2, 475392, Note_on_c, 0, 91, 80
2, 475448, Note_off_c, 0, 81, 100
2, 475488, Note_on_c, 0, 81, 80
2, 475552, Note_off_c, 0, 79, 100
2, 475584, Note_on_c, 0, 79, 80
2, 475656, Note_off_c, 0, 81, 100
2, 475680, Note_on_c, 0, 81, 80
2, 475744, Note_off_c, 0, 79, 100
2, 475776, Note_on_c, 0, 79, 80
2, 475832, Note_off_c, 0, 81, 100
2, 475872, Note_on_c, 0, 81, 80
2, 475936, Note_off_c, 0, 79, 100
2, 475968, Note_on_c, 0, 79, 80
2, 476040, Note_off_c, 0, 81, 100
2, 476064, Note_on_c, 0, 81, 80
2, 476128, Note_off_c, 0, 79, 100
2, 476160, Note_on_c, 0, 79, 80
2, 476216, Note_off_c, 0, 81, 100
2, 476256, Note_on_c, 0, 81, 80
2, 476320, Note_off_c, 0, 79, 100
2, 476352, Note_on_c, 0, 79, 80
2, 476424, Note_off_c, 0, 81, 100
2, 476448, Note_on_c, 0, 81, 80
2, 476512, Note_off_c, 0, 79, 100
2, 476536, Note_off_c, 0, 91, 100
2, 476544, Note_on_c, 0, 79, 80
2, 476544, Note_on_c, 0, 88, 80
2, 476600, Note_off_c, 0, 81, 100
2, 476640, Note_on_c, 0, 81, 80
2, 476704, Note_off_c, 0, 79, 100
2, 476736, Note_on_c, 0, 79, 80
2, 476808, Note_off_c, 0, 81, 100
2, 476832, Note_on_c, 0, 81, 80
2, 476896, Note_off_c, 0, 79, 100
2, 476920, Note_off_c, 0, 88, 100
2, 476928, Note_on_c, 0, 79, 80
2, 476928, Note_on_c, 0, 86, 80
2, 476984, Note_off_c, 0, 81, 100
2, 477024, Note_on_c, 0, 81, 80
2, 477088, Note_off_c, 0, 79, 100
2, 477120, Note_on_c, 0, 79, 80
2, 477192, Note_off_c, 0, 81, 100
2, 477216, Note_on_c, 0, 81, 80
2, 477280, Note_off_c, 0, 79, 100
2, 477312, Note_on_c, 0, 79, 80
2, 477368, Note_off_c, 0, 81, 100
2, 477408, Note_on_c, 0, 81, 80
2, 477472, Note_off_c, 0, 79, 100
2, 477504, Note_on_c, 0, 79, 80
2, 477576, Note_off_c, 0, 81, 100
2, 477600, Note_on_c, 0, 81, 80
2, 477664, Note_off_c, 0, 79, 100
2, 477688, Note_off_c, 0, 86, 100
2, 477696, Note_on_c, 0, 79, 101
2, 477752, Note_off_c, 0, 81, 100
2, 477792, Note_on_c, 0, 81, 80
2, 477856, Note_off_c, 0, 79, 100
2, 477888, Note_on_c, 0, 79, 80
2, 477960, Note_off_c, 0, 81, 100
2, 477984, Note_on_c, 0, 81, 80
2, 478072, Note_off_c, 0, 79, 100
2, 478080, Note_on_c, 0, 79, 80
2, 478136, Note_off_c, 0, 81, 100
2, 478176, Note_on_c, 0, 81, 80
2, 478264, Note_off_c, 0, 79, 100
2, 478272, Note_on_c, 0, 79, 80
2, 478344, Note_off_c, 0, 81, 100
2, 478368, Note_on_c, 0, 81, 80
2, 478456, Note_off_c, 0, 79, 100
2, 478464, Note_on_c, 0, 79, 80
2, 478464, Note_on_c, 0, 84, 80
2, 478520, Note_off_c, 0, 81, 100
2, 478560, Note_on_c, 0, 81, 80
2, 478624, Note_off_c, 0, 79, 100
2, 478656, Note_on_c, 0, 79, 80
2, 478728, Note_off_c, 0, 81, 100
2, 478752, Note_on_c, 0, 81, 80
2, 478816, Note_off_c, 0, 79, 100
2, 478840, Note_off_c, 0, 84, 100
2, 478848, Note_on_c, 0, 79, 80
2, 478904, Note_off_c, 0, 81, 100
2, 478944, Note_on_c, 0, 81, 80
2, 479008, Note_off_c, 0, 79, 100
2, 479040, Note_on_c, 0, 79, 80
2, 479112, Note_off_c, 0, 81, 100
2, 479136, Note_on_c, 0, 81, 80
2, 479200, Note_off_c, 0, 79, 100
2, 479232, Note_on_c, 0, 79, 80
2, 479288, Note_off_c, 0, 81, 100
2, 479328, Note_on_c, 0, 81, 80
2, 479392, Note_off_c, 0, 79, 100
2, 479424, Note_on_c, 0, 79, 80
2, 479496, Note_off_c, 0, 81, 100
2, 479520, Note_on_c, 0, 81, 80
2, 479584, Note_off_c, 0, 79, 100
2, 479616, Note_on_c, 0, 79, 80
2, 479672, Note_off_c, 0, 81, 100
2, 479712, Note_on_c, 0, 81, 80
2, 479776, Note_off_c, 0, 79, 100
2, 479808, Note_on_c, 0, 79, 80
2, 479880, Note_off_c, 0, 81, 100
2, 479904, Note_on_c, 0, 81, 80
2, 479968, Note_off_c, 0, 79, 100
2, 480000, Note_on_c, 0, 80, 80
2, 480056, Note_off_c, 0, 81, 100
2, 480096, Note_on_c, 0, 79, 80
2, 480176, Note_off_c, 0, 80, 100
2, 480192, Note_on_c, 0, 80, 80
2, 480272, Note_off_c, 0, 79, 100
2, 480288, Note_on_c, 0, 79, 80
2, 480352, Note_off_c, 0, 80, 100
2, 480384, Note_on_c, 0, 80, 80
2, 480448, Note_off_c, 0, 79, 100
2, 480480, Note_on_c, 0, 79, 80
2, 480560, Note_off_c, 0, 80, 100
2, 480576, Note_on_c, 0, 80, 80
2, 480656, Note_off_c, 0, 79, 100
2, 480672, Note_on_c, 0, 79, 80
2, 480736, Note_off_c, 0, 80, 100
2, 480768, Note_on_c, 0, 80, 80
2, 480768, Note_on_c, 0, 91, 80
2, 480832, Note_off_c, 0, 79, 100
2, 480864, Note_on_c, 0, 79, 80
2, 480944, Note_off_c, 0, 80, 100
2, 480960, Note_on_c, 0, 80, 80
2, 481040, Note_off_c, 0, 79, 100
2, 481056, Note_on_c, 0, 79, 80
2, 481120, Note_off_c, 0, 80, 100
2, 481152, Note_on_c, 0, 80, 80
2, 481216, Note_off_c, 0, 79, 100
2, 481248, Note_on_c, 0, 79, 80
2, 481328, Note_off_c, 0, 80, 100
2, 481344, Note_on_c, 0, 80, 80
2, 481424, Note_off_c, 0, 79, 100
2, 481440, Note_on_c, 0, 79, 80
2, 481504, Note_off_c, 0, 80, 100
2, 481528, Note_off_c, 0, 91, 100
2, 481536, Note_on_c, 0, 80, 80
2, 481536, Note_on_c, 0, 91, 80
2, 481600, Note_off_c, 0, 79, 100
2, 481632, Note_on_c, 0, 79, 80
2, 481712, Note_off_c, 0, 80, 100
2, 481728, Note_on_c, 0, 80, 80
2, 481808, Note_off_c, 0, 79, 100
2, 481824, Note_on_c, 0, 79, 80
2, 481888, Note_off_c, 0, 80, 100
2, 481920, Note_on_c, 0, 80, 80
2, 481984, Note_off_c, 0, 79, 100
2, 482016, Note_on_c, 0, 79, 80
2, 482096, Note_off_c, 0, 80, 100
2, 482112, Note_on_c, 0, 80, 80
2, 482192, Note_off_c, 0, 79, 100
2, 482208, Note_on_c, 0, 79, 80
2, 482272, Note_off_c, 0, 80, 100
2, 482304, Note_on_c, 0, 80, 80
2, 482368, Note_off_c, 0, 79, 100
2, 482400, Note_on_c, 0, 79, 80
2, 482480, Note_off_c, 0, 80, 100
2, 482496, Note_on_c, 0, 80, 80
2, 482576, Note_off_c, 0, 79, 100
2, 482592, Note_on_c, 0, 79, 80
2, 482656, Note_off_c, 0, 80, 100
2, 482680, Note_off_c, 0, 91, 100
2, 482688, Note_on_c, 0, 80, 80
2, 482688, Note_on_c, 0, 87, 80
2, 482752, Note_off_c, 0, 79, 100
2, 482784, Note_on_c, 0, 79, 80
2, 482864, Note_off_c, 0, 80, 100
2, 482880, Note_on_c, 0, 80, 80
2, 482960, Note_off_c, 0, 79, 100
2, 482976, Note_on_c, 0, 79, 80
2, 483040, Note_off_c, 0, 80, 100
2, 483064, Note_off_c, 0, 87, 100
2, 483072, Note_on_c, 0, 80, 80
2, 483072, Note_on_c, 0, 86, 80
2, 483136, Note_off_c, 0, 79, 100
2, 483168, Note_on_c, 0, 79, 80
2, 483248, Note_off_c, 0, 80, 100
2, 483264, Note_on_c, 0, 80, 80
2, 483344, Note_off_c, 0, 79, 100
2, 483360, Note_on_c, 0, 79, 80
2, 483424, Note_off_c, 0, 80, 100
2, 483456, Note_on_c, 0, 80, 80
2, 483520, Note_off_c, 0, 79, 100
2, 483552, Note_on_c, 0, 79, 80
2, 483632, Note_off_c, 0, 80, 100
2, 483648, Note_on_c, 0, 80, 80
2, 483728, Note_off_c, 0, 79, 100
2, 483744, Note_on_c, 0, 79, 80
2, 483808, Note_off_c, 0, 80, 100
2, 483832, Note_off_c, 0, 86, 100
2, 483832, Note_off_c, 0, 79, 100
2, 483840, Note_on_c, 0, 80, 80
2, 483840, Note_on_c, 0, 79, 94
2, 483928, Note_off_c, 0, 79, 100
2, 483936, Note_on_c, 0, 79, 80
2, 484016, Note_off_c, 0, 80, 100
2, 484032, Note_on_c, 0, 80, 80
2, 484120, Note_off_c, 0, 79, 100
2, 484128, Note_on_c, 0, 79, 80
2, 484192, Note_off_c, 0, 80, 100
2, 484224, Note_on_c, 0, 80, 80
2, 484304, Note_off_c, 0, 79, 100
2, 484320, Note_on_c, 0, 79, 80
2, 484400, Note_off_c, 0, 80, 100
2, 484416, Note_on_c, 0, 80, 80
2, 484504, Note_off_c, 0, 79, 100
2, 484512, Note_on_c, 0, 79, 80
2, 484576, Note_off_c, 0, 80, 100
2, 484608, Note_on_c, 0, 80, 80
2, 484608, Note_on_c, 0, 84, 80
2, 484672, Note_off_c, 0, 79, 100
2, 484704, Note_on_c, 0, 79, 80
2, 484784, Note_off_c, 0, 80, 100
2, 484800, Note_on_c, 0, 80, 80
2, 484880, Note_off_c, 0, 79, 100
2, 484896, Note_on_c, 0, 79, 80
2, 484960, Note_off_c, 0, 80, 100
2, 484984, Note_off_c, 0, 84, 100
2, 484992, Note_on_c, 0, 80, 80
2, 485056, Note_off_c, 0, 79, 100
2, 485088, Note_on_c, 0, 79, 80
2, 485168, Note_off_c, 0, 80, 100
2, 485184, Note_on_c, 0, 80, 80
2, 485264, Note_off_c, 0, 79, 100
2, 485280, Note_on_c, 0, 79, 80
2, 485344, Note_off_c, 0, 80, 100
2, 485376, Note_on_c, 0, 80, 80
2, 485440, Note_off_c, 0, 79, 100
2, 485472, Note_on_c, 0, 79, 80
2, 485552, Note_off_c, 0, 80, 100
2, 485568, Note_on_c, 0, 80, 80
2, 485648, Note_off_c, 0, 79, 100
2, 485664, Note_on_c, 0, 79, 80
2, 485728, Note_off_c, 0, 80, 100
2, 485760, Note_on_c, 0, 80, 80
2, 485824, Note_off_c, 0, 79, 100
2, 485856, Note_on_c, 0, 79, 80
2, 485936, Note_off_c, 0, 80, 100
2, 485952, Note_on_c, 0, 77, 80
2, 486032, Note_off_c, 0, 79, 100
2, 486048, Note_on_c, 0, 79, 80
2, 486112, Note_off_c, 0, 77, 100
2, 486144, Note_off_c, 0, 79, 100
2, 486144, Note_on_c, 0, 80, 80
2, 486240, Note_on_c, 0, 82, 80
2, 486328, Note_off_c, 0, 80, 100
2, 486336, Note_on_c, 0, 80, 80
2, 486416, Note_off_c, 0, 82, 100
2, 486432, Note_on_c, 0, 82, 80
2, 486504, Note_off_c, 0, 80, 100
2, 486528, Note_on_c, 0, 80, 80
2, 486592, Note_off_c, 0, 82, 100
2, 486624, Note_on_c, 0, 82, 80
2, 486712, Note_off_c, 0, 80, 100
2, 486720, Note_on_c, 0, 80, 80
2, 486800, Note_off_c, 0, 82, 100
2, 486816, Note_on_c, 0, 82, 80
2, 486888, Note_off_c, 0, 80, 100
2, 486912, Note_on_c, 0, 75, 80
2, 486912, Note_on_c, 0, 87, 80
2, 486976, Note_off_c, 0, 82, 100
2, 487008, Note_on_c, 0, 77, 80
2, 487088, Note_off_c, 0, 75, 100
2, 487104, Note_on_c, 0, 75, 80
2, 487160, Note_off_c, 0, 77, 100
2, 487200, Note_on_c, 0, 77, 80
2, 487256, Note_off_c, 0, 75, 100
2, 487296, Note_on_c, 0, 75, 80
2, 487368, Note_off_c, 0, 77, 100
2, 487392, Note_on_c, 0, 77, 80
2, 487472, Note_off_c, 0, 75, 100
2, 487488, Note_on_c, 0, 75, 80
2, 487544, Note_off_c, 0, 77, 100
2, 487584, Note_on_c, 0, 77, 80
2, 487640, Note_off_c, 0, 75, 100
2, 487672, Note_off_c, 0, 87, 100
2, 487680, Note_on_c, 0, 75, 80
2, 487680, Note_on_c, 0, 87, 80
2, 487752, Note_off_c, 0, 77, 100
2, 487776, Note_on_c, 0, 77, 80
2, 487856, Note_off_c, 0, 75, 100
2, 487872, Note_on_c, 0, 75, 80
2, 487928, Note_off_c, 0, 77, 100
2, 487968, Note_on_c, 0, 77, 80
2, 488024, Note_off_c, 0, 75, 100
2, 488064, Note_on_c, 0, 75, 80
2, 488136, Note_off_c, 0, 77, 100
2, 488160, Note_on_c, 0, 77, 80
2, 488240, Note_off_c, 0, 75, 100
2, 488256, Note_on_c, 0, 75, 80
2, 488312, Note_off_c, 0, 77, 100
2, 488352, Note_on_c, 0, 77, 80
2, 488408, Note_off_c, 0, 75, 100
2, 488448, Note_on_c, 0, 75, 80
2, 488520, Note_off_c, 0, 77, 100
2, 488544, Note_on_c, 0, 77, 80
2, 488624, Note_off_c, 0, 75, 100
2, 488640, Note_on_c, 0, 75, 80
2, 488696, Note_off_c, 0, 77, 100
2, 488736, Note_on_c, 0, 77, 80
2, 488792, Note_off_c, 0, 75, 100
2, 488832, Note_on_c, 0, 75, 80
2, 488832, Note_on_c, 0, 84, 80
2, 488904, Note_off_c, 0, 77, 100
2, 488928, Note_on_c, 0, 77, 80
2, 489008, Note_off_c, 0, 75, 100
2, 489024, Note_on_c, 0, 75, 80
2, 489080, Note_off_c, 0, 77, 100
2, 489120, Note_on_c, 0, 77, 80
2, 489176, Note_off_c, 0, 75, 100
2, 489208, Note_off_c, 0, 87, 100
2, 489216, Note_on_c, 0, 75, 80
2, 489216, Note_on_c, 0, 82, 80
2, 489288, Note_off_c, 0, 77, 100
2, 489312, Note_on_c, 0, 77, 80
2, 489392, Note_off_c, 0, 75, 100
2, 489408, Note_on_c, 0, 75, 80
2, 489464, Note_off_c, 0, 77, 100
2, 489504, Note_on_c, 0, 77, 80
2, 489560, Note_off_c, 0, 75, 100
2, 489592, Note_off_c, 0, 84, 100
2, 489600, Note_on_c, 0, 75, 80
2, 489672, Note_off_c, 0, 77, 100
2, 489696, Note_on_c, 0, 77, 80
2, 489776, Note_off_c, 0, 75, 100
2, 489792, Note_on_c, 0, 75, 80
2, 489848, Note_off_c, 0, 77, 100
2, 489888, Note_on_c, 0, 77, 80
2, 489944, Note_off_c, 0, 75, 100
2, 489984, Note_on_c, 0, 75, 97
2, 490056, Note_off_c, 0, 77, 100
2, 490080, Note_on_c, 0, 77, 80
2, 490160, Note_off_c, 0, 75, 100
2, 490176, Note_on_c, 0, 75, 80
2, 490232, Note_off_c, 0, 77, 100
2, 490272, Note_on_c, 0, 77, 80
2, 490360, Note_off_c, 0, 75, 100
2, 490368, Note_on_c, 0, 75, 80
2, 490440, Note_off_c, 0, 77, 100
2, 490464, Note_on_c, 0, 77, 80
2, 490552, Note_off_c, 0, 75, 100
2, 490560, Note_on_c, 0, 75, 80
2, 490616, Note_off_c, 0, 77, 100
2, 490656, Note_on_c, 0, 77, 80
2, 490744, Note_off_c, 0, 82, 100
2, 490744, Note_off_c, 0, 75, 100
2, 490752, Note_on_c, 0, 75, 80
2, 490752, Note_on_c, 0, 80, 80
2, 490824, Note_off_c, 0, 77, 100
2, 490848, Note_on_c, 0, 77, 80
2, 490928, Note_off_c, 0, 75, 100
2, 490944, Note_on_c, 0, 75, 80
2, 491000, Note_off_c, 0, 77, 100
2, 491040, Note_on_c, 0, 77, 80
2, 491096, Note_off_c, 0, 75, 100
2, 491136, Note_on_c, 0, 75, 80
2, 491208, Note_off_c, 0, 77, 100
2, 491232, Note_on_c, 0, 77, 80
2, 491312, Note_off_c, 0, 75, 100
2, 491328, Note_on_c, 0, 75, 80
2, 491384, Note_off_c, 0, 77, 100
2, 491424, Note_on_c, 0, 77, 80
2, 491480, Note_off_c, 0, 75, 100
2, 491512, Note_off_c, 0, 80, 100
2, 491520, Note_off_c, 0, 77, 100
2, 491520, Note_on_c, 0, 76, 80
2, 491616, Note_on_c, 0, 77, 80
2, 491680, Note_off_c, 0, 76, 100
2, 491712, Note_on_c, 0, 76, 80
2, 491768, Note_off_c, 0, 77, 100
2, 491808, Note_on_c, 0, 77, 80
2, 491864, Note_off_c, 0, 76, 100
2, 491904, Note_on_c, 0, 76, 80
2, 491976, Note_off_c, 0, 77, 100
2, 492000, Note_on_c, 0, 77, 80
2, 492080, Note_off_c, 0, 76, 100
2, 492096, Note_on_c, 0, 76, 80
2, 492152, Note_off_c, 0, 77, 100
2, 492192, Note_on_c, 0, 77, 80
2, 492248, Note_off_c, 0, 76, 100
2, 492288, Note_on_c, 0, 77, 80
2, 492360, Note_off_c, 0, 77, 100
2, 492384, Note_on_c, 0, 79, 80
2, 492464, Note_off_c, 0, 77, 100
2, 492480, Note_on_c, 0, 77, 80
2, 492528, Note_off_c, 0, 79, 100
2, 492576, Note_on_c, 0, 79, 80
2, 492632, Note_off_c, 0, 77, 100
2, 492672, Note_on_c, 0, 77, 80
2, 492736, Note_off_c, 0, 79, 100
2, 492768, Note_on_c, 0, 79, 80
2, 492848, Note_off_c, 0, 77, 100
2, 492864, Note_on_c, 0, 77, 80
2, 492912, Note_off_c, 0, 79, 100
2, 492960, Note_on_c, 0, 79, 80
2, 493016, Note_off_c, 0, 77, 100
2, 493056, Note_on_c, 0, 73, 80
2, 493056, Note_on_c, 0, 84, 80
2, 493120, Note_off_c, 0, 79, 100
2, 493152, Note_on_c, 0, 72, 80
2, 493240, Note_off_c, 0, 73, 100
2, 493248, Note_on_c, 0, 73, 80
2, 493328, Note_off_c, 0, 72, 100
2, 493344, Note_on_c, 0, 72, 80
2, 493416, Note_off_c, 0, 73, 100
2, 493440, Note_on_c, 0, 73, 80
2, 493504, Note_off_c, 0, 72, 100
2, 493536, Note_on_c, 0, 72, 80
2, 493624, Note_off_c, 0, 73, 100
2, 493632, Note_on_c, 0, 73, 80
2, 493712, Note_off_c, 0, 72, 100
2, 493728, Note_on_c, 0, 72, 80
2, 493800, Note_off_c, 0, 73, 100
2, 493816, Note_off_c, 0, 84, 100
2, 493824, Note_on_c, 0, 73, 80
2, 493824, Note_on_c, 0, 84, 80
2, 493888, Note_off_c, 0, 72, 100
2, 493920, Note_on_c, 0, 72, 80
2, 494008, Note_off_c, 0, 73, 100
2, 494016, Note_on_c, 0, 73, 80
2, 494096, Note_off_c, 0, 72, 100
2, 494112, Note_on_c, 0, 72, 80
2, 494184, Note_off_c, 0, 73, 100
2, 494208, Note_on_c, 0, 73, 80
2, 494272, Note_off_c, 0, 72, 100
2, 494304, Note_on_c, 0, 72, 80
2, 494392, Note_off_c, 0, 73, 100
2, 494400, Note_on_c, 0, 73, 80
2, 494480, Note_off_c, 0, 72, 100
2, 494496, Note_on_c, 0, 72, 80
2, 494568, Note_off_c, 0, 73, 100
2, 494592, Note_on_c, 0, 73, 80
2, 494656, Note_off_c, 0, 72, 100
2, 494688, Note_on_c, 0, 72, 80
2, 494776, Note_off_c, 0, 73, 100
2, 494784, Note_on_c, 0, 73, 80
2, 494864, Note_off_c, 0, 72, 100
2, 494880, Note_on_c, 0, 72, 80
2, 494952, Note_off_c, 0, 73, 100
2, 494968, Note_off_c, 0, 84, 100
2, 494976, Note_on_c, 0, 73, 80
2, 494976, Note_on_c, 0, 80, 80
2, 495040, Note_off_c, 0, 72, 100
2, 495072, Note_on_c, 0, 72, 80
2, 495160, Note_off_c, 0, 73, 100
2, 495168, Note_on_c, 0, 73, 80
2, 495248, Note_off_c, 0, 72, 100
2, 495264, Note_on_c, 0, 72, 80
2, 495336, Note_off_c, 0, 73, 100
2, 495352, Note_off_c, 0, 80, 100
2, 495360, Note_on_c, 0, 73, 80
2, 495360, Note_on_c, 0, 79, 80
2, 495424, Note_off_c, 0, 72, 100
2, 495456, Note_on_c, 0, 72, 80
2, 495544, Note_off_c, 0, 73, 100
2, 495552, Note_on_c, 0, 73, 80
2, 495632, Note_off_c, 0, 72, 100
2, 495648, Note_on_c, 0, 72, 80
2, 495720, Note_off_c, 0, 73, 100
2, 495744, Note_on_c, 0, 73, 80
2, 495808, Note_off_c, 0, 72, 100
2, 495840, Note_on_c, 0, 72, 80
2, 495928, Note_off_c, 0, 73, 100
2, 495936, Note_on_c, 0, 73, 80
2, 496016, Note_off_c, 0, 72, 100
2, 496032, Note_on_c, 0, 72, 80
2, 496104, Note_off_c, 0, 73, 100
2, 496120, Note_off_c, 0, 79, 100
2, 496128, Note_on_c, 0, 73, 80
2, 496128, Note_on_c, 0, 72, 100
2, 496136, Note_off_c, 0, 72, 100
2, 496224, Note_on_c, 0, 72, 80
2, 496232, Note_off_c, 0, 72, 100
2, 496312, Note_off_c, 0, 73, 100
2, 496320, Note_on_c, 0, 73, 80
2, 496400, Note_off_c, 0, 72, 100
2, 496416, Note_on_c, 0, 72, 80
2, 496488, Note_off_c, 0, 73, 100
2, 496512, Note_on_c, 0, 73, 80
2, 496600, Note_off_c, 0, 72, 100
2, 496608, Note_on_c, 0, 72, 80
2, 496688, Note_off_c, 0, 73, 100
2, 496704, Note_on_c, 0, 73, 80
2, 496792, Note_off_c, 0, 72, 100
2, 496800, Note_on_c, 0, 72, 80
2, 496872, Note_off_c, 0, 73, 100
2, 496896, Note_on_c, 0, 73, 80
2, 496896, Note_on_c, 0, 77, 80
2, 496960, Note_off_c, 0, 72, 100
2, 496992, Note_on_c, 0, 72, 80
2, 497080, Note_off_c, 0, 73, 100
2, 497088, Note_on_c, 0, 73, 80
2, 497168, Note_off_c, 0, 72, 100
2, 497184, Note_on_c, 0, 72, 80
2, 497256, Note_off_c, 0, 73, 100
2, 497280, Note_on_c, 0, 73, 80
2, 497344, Note_off_c, 0, 72, 100
2, 497376, Note_on_c, 0, 72, 80
2, 497464, Note_off_c, 0, 73, 100
2, 497472, Note_on_c, 0, 73, 80
2, 497552, Note_off_c, 0, 72, 100
2, 497568, Note_on_c, 0, 72, 80
2, 497640, Note_off_c, 0, 73, 100
2, 497664, Note_on_c, 0, 73, 80
2, 497728, Note_off_c, 0, 72, 100
2, 497760, Note_on_c, 0, 72, 80
2, 497848, Note_off_c, 0, 73, 100
2, 497856, Note_on_c, 0, 73, 80
2, 497936, Note_off_c, 0, 72, 100
2, 497952, Note_on_c, 0, 72, 80
2, 498024, Note_off_c, 0, 73, 100
2, 498040, Note_off_c, 0, 77, 100
2, 498048, Note_on_c, 0, 73, 80
2, 498048, Note_on_c, 0, 80, 80
2, 498112, Note_off_c, 0, 72, 100
2, 498144, Note_on_c, 0, 72, 80
2, 498232, Note_off_c, 0, 73, 100
2, 498240, Note_on_c, 0, 73, 80
2, 498320, Note_off_c, 0, 72, 100
2, 498336, Note_on_c, 0, 72, 80
2, 498408, Note_off_c, 0, 73, 100
2, 498424, Note_off_c, 0, 80, 100
2, 498432, Note_on_c, 0, 73, 80
2, 498432, Note_on_c, 0, 79, 80
2, 498496, Note_off_c, 0, 72, 100
2, 498528, Note_on_c, 0, 72, 80
2, 498616, Note_off_c, 0, 73, 100
2, 498624, Note_on_c, 0, 73, 80
2, 498704, Note_off_c, 0, 72, 100
2, 498720, Note_on_c, 0, 72, 80
2, 498792, Note_off_c, 0, 73, 100
2, 498816, Note_on_c, 0, 73, 80
2, 498880, Note_off_c, 0, 72, 100
2, 498912, Note_on_c, 0, 72, 80
2, 499000, Note_off_c, 0, 73, 100
2, 499008, Note_on_c, 0, 73, 80
2, 499088, Note_off_c, 0, 72, 100
2, 499104, Note_on_c, 0, 72, 80
2, 499176, Note_off_c, 0, 73, 100
2, 499192, Note_off_c, 0, 79, 100
2, 499200, Note_on_c, 0, 73, 80
2, 499200, Note_on_c, 0, 72, 100
2, 499208, Note_off_c, 0, 72, 100
2, 499296, Note_on_c, 0, 72, 80
2, 499304, Note_off_c, 0, 72, 100
2, 499384, Note_off_c, 0, 73, 100
2, 499392, Note_on_c, 0, 73, 80
2, 499480, Note_off_c, 0, 72, 100
2, 499488, Note_on_c, 0, 72, 80
2, 499560, Note_off_c, 0, 73, 100
2, 499584, Note_on_c, 0, 73, 80
2, 499672, Note_off_c, 0, 72, 100
2, 499680, Note_on_c, 0, 72, 80
2, 499768, Note_off_c, 0, 73, 100
2, 499776, Note_on_c, 0, 73, 80
2, 499864, Note_off_c, 0, 72, 100
2, 499872, Note_on_c, 0, 72, 80
2, 499944, Note_off_c, 0, 73, 100
2, 499968, Note_on_c, 0, 73, 80
2, 499968, Note_on_c, 0, 77, 80
2, 500032, Note_off_c, 0, 72, 100
2, 500064, Note_on_c, 0, 72, 80
2, 500152, Note_off_c, 0, 73, 100
2, 500160, Note_on_c, 0, 73, 80
2, 500240, Note_off_c, 0, 72, 100
2, 500256, Note_on_c, 0, 72, 80
2, 500328, Note_off_c, 0, 73, 100
2, 500352, Note_on_c, 0, 73, 80
2, 500416, Note_off_c, 0, 72, 100
2, 500448, Note_on_c, 0, 72, 80
2, 500536, Note_off_c, 0, 73, 100
2, 500544, Note_on_c, 0, 73, 80
2, 500624, Note_off_c, 0, 72, 100
2, 500640, Note_on_c, 0, 72, 80
2, 500712, Note_off_c, 0, 73, 100
2, 500728, Note_off_c, 0, 77, 100
2, 500736, Note_on_c, 0, 73, 80
2, 500736, Note_on_c, 0, 75, 80
2, 500800, Note_off_c, 0, 72, 100
2, 500832, Note_on_c, 0, 72, 80
2, 500920, Note_off_c, 0, 73, 100
2, 500928, Note_on_c, 0, 73, 80
2, 501008, Note_off_c, 0, 72, 100
2, 501024, Note_on_c, 0, 72, 80
2, 501096, Note_off_c, 0, 73, 100
2, 501120, Note_on_c, 0, 73, 80
2, 501184, Note_off_c, 0, 72, 100
2, 501216, Note_on_c, 0, 72, 80
2, 501304, Note_off_c, 0, 73, 100
2, 501312, Note_on_c, 0, 73, 80
2, 501392, Note_off_c, 0, 72, 100
2, 501408, Note_on_c, 0, 72, 80
2, 501480, Note_off_c, 0, 73, 100
2, 501496, Note_off_c, 0, 75, 100
2, 501504, Note_on_c, 0, 74, 80
2, 501568, Note_off_c, 0, 72, 100
2, 501600, Note_on_c, 0, 72, 80
2, 501680, Note_off_c, 0, 74, 100
2, 501696, Note_on_c, 0, 74, 80
2, 501752, Note_off_c, 0, 72, 100
2, 501792, Note_on_c, 0, 72, 80
2, 501840, Note_off_c, 0, 74, 100
2, 501888, Note_on_c, 0, 74, 80
2, 501968, Note_off_c, 0, 72, 100
2, 501984, Note_on_c, 0, 72, 80
2, 502064, Note_off_c, 0, 74, 100
2, 502080, Note_on_c, 0, 74, 80
2, 502136, Note_off_c, 0, 72, 100
2, 502176, Note_on_c, 0, 72, 80
2, 502224, Note_off_c, 0, 74, 100
2, 502272, Note_on_c, 0, 74, 80
2, 502352, Note_off_c, 0, 72, 100
2, 502368, Note_on_c, 0, 72, 80
2, 502448, Note_off_c, 0, 74, 100
2, 502464, Note_on_c, 0, 74, 80
2, 502520, Note_off_c, 0, 72, 100
2, 502560, Note_on_c, 0, 72, 80
2, 502608, Note_off_c, 0, 74, 100
2, 502656, Note_on_c, 0, 74, 80
2, 502736, Note_off_c, 0, 72, 100
2, 502752, Note_on_c, 0, 72, 80
2, 502832, Note_off_c, 0, 74, 100
2, 502848, Note_on_c, 0, 74, 80
2, 502904, Note_off_c, 0, 72, 100
2, 502944, Note_on_c, 0, 72, 80
2, 502992, Note_off_c, 0, 74, 100
2, 503040, Note_on_c, 0, 74, 80
2, 503120, Note_off_c, 0, 72, 100
2, 503136, Note_on_c, 0, 72, 80
2, 503216, Note_off_c, 0, 74, 100
2, 503232, Note_on_c, 0, 74, 80
2, 503288, Note_off_c, 0, 72, 100
2, 503328, Note_on_c, 0, 72, 80
2, 503376, Note_off_c, 0, 74, 100
2, 503424, Note_on_c, 0, 74, 80
2, 503504, Note_off_c, 0, 72, 100
2, 503520, Note_on_c, 0, 72, 80
2, 503600, Note_off_c, 0, 74, 100
2, 503616, Note_on_c, 0, 74, 80
2, 503672, Note_off_c, 0, 72, 100
2, 503712, Note_on_c, 0, 72, 80
2, 503760, Note_off_c, 0, 74, 100
2, 503808, Note_on_c, 0, 74, 80
2, 503888, Note_off_c, 0, 72, 100
2, 503904, Note_on_c, 0, 72, 80
2, 503984, Note_off_c, 0, 74, 100
2, 504000, Note_on_c, 0, 74, 80
2, 504056, Note_off_c, 0, 72, 100
2, 504096, Note_on_c, 0, 72, 80
2, 504144, Note_off_c, 0, 74, 100
2, 504192, Note_on_c, 0, 74, 80
2, 504272, Note_off_c, 0, 72, 100
2, 504288, Note_on_c, 0, 72, 80
2, 504368, Note_off_c, 0, 74, 100
2, 504384, Note_on_c, 0, 74, 80
2, 504440, Note_off_c, 0, 72, 100
2, 504480, Note_on_c, 0, 72, 80
2, 504528, Note_off_c, 0, 74, 100
2, 504576, Note_on_c, 0, 74, 80
2, 504656, Note_off_c, 0, 72, 100
2, 504672, Note_on_c, 0, 72, 80
2, 504752, Note_off_c, 0, 74, 100
2, 504768, Note_on_c, 0, 74, 80
2, 504824, Note_off_c, 0, 72, 100
2, 504864, Note_on_c, 0, 72, 80
2, 504912, Note_off_c, 0, 74, 100
2, 504960, Note_on_c, 0, 74, 80
2, 505040, Note_off_c, 0, 72, 100
2, 505056, Note_on_c, 0, 72, 80
2, 505136, Note_off_c, 0, 74, 100
2, 505152, Note_on_c, 0, 74, 80
2, 505208, Note_off_c, 0, 72, 100
2, 505248, Note_on_c, 0, 72, 80
2, 505296, Note_off_c, 0, 74, 100
2, 505344, Note_on_c, 0, 74, 80
2, 505424, Note_off_c, 0, 72, 100
2, 505440, Note_on_c, 0, 72, 80
2, 505520, Note_off_c, 0, 74, 100
2, 505536, Note_on_c, 0, 74, 80
2, 505592, Note_off_c, 0, 72, 100
2, 505632, Note_on_c, 0, 72, 80
2, 505680, Note_off_c, 0, 74, 100
2, 505728, Note_on_c, 0, 74, 80
2, 505808, Note_off_c, 0, 72, 100
2, 505824, Note_on_c, 0, 72, 80
2, 505904, Note_off_c, 0, 74, 100
2, 505920, Note_on_c, 0, 74, 80
2, 505976, Note_off_c, 0, 72, 100
2, 506016, Note_on_c, 0, 72, 80
2, 506064, Note_off_c, 0, 74, 100
2, 506112, Note_on_c, 0, 74, 80
2, 506192, Note_off_c, 0, 72, 100
2, 506208, Note_on_c, 0, 72, 80
2, 506288, Note_off_c, 0, 74, 100
2, 506304, Note_on_c, 0, 74, 80
2, 506360, Note_off_c, 0, 72, 100
2, 506400, Note_on_c, 0, 72, 80
2, 506448, Note_off_c, 0, 74, 100
2, 506496, Note_on_c, 0, 74, 80
2, 506576, Note_off_c, 0, 72, 100
2, 506592, Note_on_c, 0, 72, 80
2, 506672, Note_off_c, 0, 74, 100
2, 506688, Note_on_c, 0, 74, 80
2, 506744, Note_off_c, 0, 72, 100
2, 506784, Note_on_c, 0, 72, 80
2, 506832, Note_off_c, 0, 74, 100
2, 506880, Note_on_c, 0, 74, 80
2, 506960, Note_off_c, 0, 72, 100
2, 506976, Note_on_c, 0, 72, 80
2, 507056, Note_off_c, 0, 74, 100
2, 507072, Note_on_c, 0, 74, 80
2, 507128, Note_off_c, 0, 72, 100
2, 507168, Note_on_c, 0, 72, 80
2, 507216, Note_off_c, 0, 74, 100
2, 507264, Note_on_c, 0, 74, 80
2, 507344, Note_off_c, 0, 72, 100
2, 507360, Note_on_c, 0, 72, 80
2, 507440, Note_off_c, 0, 74, 100
2, 507456, Note_on_c, 0, 74, 80
2, 507512, Note_off_c, 0, 72, 100
2, 507552, Note_on_c, 0, 72, 80
2, 507600, Note_off_c, 0, 74, 100
2, 507648, Note_on_c, 0, 72, 80
2, 507728, Note_off_c, 0, 72, 100
2, 507744, Note_on_c, 0, 74, 80
2, 507808, Note_off_c, 0, 72, 100
2, 507840, Note_on_c, 0, 76, 80
2, 507896, Note_off_c, 0, 74, 100
2, 507936, Note_on_c, 0, 74, 80
2, 507992, Note_off_c, 0, 76, 100
2, 508032, Note_on_c, 0, 76, 80
2, 508120, Note_off_c, 0, 74, 100
2, 508128, Note_on_c, 0, 74, 80
2, 508176, Note_off_c, 0, 76, 100
2, 508224, Note_on_c, 0, 76, 80
2, 508272, Note_off_c, 0, 74, 100
2, 508320, Note_on_c, 0, 74, 80
2, 508368, Note_off_c, 0, 76, 100
2, 508416, Note_on_c, 0, 76, 80
2, 508472, Note_off_c, 0, 74, 100
2, 508512, Note_on_c, 0, 74, 80
2, 508560, Note_off_c, 0, 76, 100
2, 508608, Note_on_c, 0, 76, 80
2, 508656, Note_off_c, 0, 74, 100
2, 508704, Note_on_c, 0, 74, 80
2, 508752, Note_off_c, 0, 76, 100
2, 508800, Note_on_c, 0, 76, 80
2, 508856, Note_off_c, 0, 74, 100
2, 508896, Note_on_c, 0, 74, 80
2, 508944, Note_off_c, 0, 76, 100
2, 508992, Note_on_c, 0, 76, 80
2, 509040, Note_off_c, 0, 74, 100
2, 509088, Note_on_c, 0, 74, 80
2, 509136, Note_off_c, 0, 76, 100
2, 509184, Note_on_c, 0, 76, 80
2, 509240, Note_off_c, 0, 74, 100
2, 509280, Note_on_c, 0, 74, 80
2, 509328, Note_off_c, 0, 76, 100
2, 509376, Note_on_c, 0, 76, 81
2, 509424, Note_off_c, 0, 74, 100
2, 509472, Note_on_c, 0, 74, 81
2, 509520, Note_off_c, 0, 76, 100
2, 509568, Note_on_c, 0, 76, 82
2, 509624, Note_off_c, 0, 74, 100
2, 509664, Note_on_c, 0, 74, 83
2, 509712, Note_off_c, 0, 76, 100
2, 509760, Note_on_c, 0, 76, 83
2, 509808, Note_off_c, 0, 74, 100
2, 509856, Note_on_c, 0, 74, 84
2, 509904, Note_off_c, 0, 76, 100
2, 509952, Note_on_c, 0, 76, 84
2, 510008, Note_off_c, 0, 74, 100
2, 510048, Note_on_c, 0, 74, 85
2, 510096, Note_off_c, 0, 76, 100
2, 510144, Note_on_c, 0, 76, 86
2, 510192, Note_off_c, 0, 74, 100
2, 510240, Note_on_c, 0, 74, 86
2, 510288, Note_off_c, 0, 76, 100
2, 510336, Note_on_c, 0, 76, 87
2, 510392, Note_off_c, 0, 74, 100
2, 510432, Note_on_c, 0, 74, 88
2, 510480, Note_off_c, 0, 76, 100
2, 510528, Note_on_c, 0, 76, 88
2, 510576, Note_off_c, 0, 74, 100
2, 510624, Note_on_c, 0, 74, 89
2, 510672, Note_off_c, 0, 76, 100
2, 510720, Note_on_c, 0, 76, 89
2, 510776, Note_off_c, 0, 74, 100
2, 510816, Note_on_c, 0, 74, 90
2, 510864, Note_off_c, 0, 76, 100
2, 510912, Note_on_c, 0, 76, 91
2, 510960, Note_off_c, 0, 74, 100
2, 511008, Note_on_c, 0, 74, 91
2, 511056, Note_off_c, 0, 76, 100
2, 511104, Note_on_c, 0, 76, 92
2, 511104, Note_on_c, 0, 79, 92
2, 511160, Note_off_c, 0, 74, 100
2, 511200, Note_on_c, 0, 74, 93
2, 511248, Note_off_c, 0, 76, 100
2, 511296, Note_on_c, 0, 76, 93
2, 511344, Note_off_c, 0, 74, 100
2, 511392, Note_on_c, 0, 74, 94
2, 511440, Note_off_c, 0, 76, 100
2, 511480, Note_off_c, 0, 79, 100
2, 511488, Note_on_c, 0, 76, 94
2, 511488, Note_on_c, 0, 79, 94
2, 511544, Note_off_c, 0, 74, 100
2, 511584, Note_on_c, 0, 74, 95
2, 511632, Note_off_c, 0, 76, 100
2, 511680, Note_on_c, 0, 76, 96
2, 511728, Note_off_c, 0, 74, 100
2, 511776, Note_on_c, 0, 74, 96
2, 511824, Note_off_c, 0, 76, 100
2, 511864, Note_off_c, 0, 79, 100
2, 511872, Note_on_c, 0, 76, 97
2, 511872, Note_on_c, 0, 79, 97
2, 511928, Note_off_c, 0, 74, 100
2, 511968, Note_on_c, 0, 74, 98
2, 512016, Note_off_c, 0, 76, 100
2, 512064, Note_on_c, 0, 76, 98
2, 512112, Note_off_c, 0, 74, 100
2, 512160, Note_on_c, 0, 74, 99
2, 512208, Note_off_c, 0, 76, 100
2, 512248, Note_off_c, 0, 79, 100
2, 512256, Note_on_c, 0, 76, 99
2, 512256, Note_on_c, 0, 79, 99
2, 512312, Note_off_c, 0, 74, 100
2, 512352, Note_on_c, 0, 74, 100
2, 512400, Note_off_c, 0, 76, 100
2, 512448, Note_on_c, 0, 76, 101
2, 512496, Note_off_c, 0, 74, 100
2, 512544, Note_on_c, 0, 74, 101
2, 512592, Note_off_c, 0, 76, 100
2, 512632, Note_off_c, 0, 79, 100
2, 512640, Note_on_c, 0, 76, 102
2, 512640, Note_on_c, 0, 79, 102
2, 512696, Note_off_c, 0, 74, 100
2, 512736, Note_on_c, 0, 74, 103
2, 512784, Note_off_c, 0, 76, 100
2, 512832, Note_on_c, 0, 76, 103
2, 512880, Note_off_c, 0, 74, 100
2, 512928, Note_on_c, 0, 74, 104
2, 512976, Note_off_c, 0, 76, 100
2, 513016, Note_off_c, 0, 79, 100
2, 513024, Note_on_c, 0, 76, 104
2, 513024, Note_on_c, 0, 79, 104
2, 513080, Note_off_c, 0, 74, 100
2, 513120, Note_on_c, 0, 74, 105
2, 513168, Note_off_c, 0, 76, 100
2, 513216, Note_on_c, 0, 76, 106
2, 513264, Note_off_c, 0, 74, 100
2, 513312, Note_on_c, 0, 74, 106
2, 513360, Note_off_c, 0, 76, 100
2, 513400, Note_off_c, 0, 79, 100
2, 513408, Note_on_c, 0, 76, 107
2, 513408, Note_on_c, 0, 79, 107
2, 513464, Note_off_c, 0, 74, 100
2, 513504, Note_on_c, 0, 74, 108
2, 513552, Note_off_c, 0, 76, 100
2, 513600, Note_on_c, 0, 76, 108
2, 513648, Note_off_c, 0, 74, 100
2, 513696, Note_on_c, 0, 74, 109
2, 513744, Note_off_c, 0, 76, 100
2, 513784, Note_off_c, 0, 79, 100
2, 513784, Note_off_c, 0, 74, 64
2, 513792, Control_c, 0, 64, 127
2, 513792, Note_on_c, 0, 72, 120
2, 513792, Note_on_c, 0, 76, 120
2, 514168, Note_off_c, 0, 72, 100
2, 514168, Note_off_c, 0, 76, 100
2, 514176, Note_on_c, 0, 79, 120
2, 514176, Note_on_c, 0, 91, 120
2, 514552, Note_off_c, 0, 79, 100
2, 514552, Note_off_c, 0, 91, 100
2, 514560, Note_on_c, 0, 79, 120
2, 514560, Note_on_c, 0, 91, 120
2, 515128, Note_off_c, 0, 91, 100
2, 515136, Note_on_c, 0, 88, 120
2, 515320, Note_off_c, 0, 88, 100
2, 515328, Note_on_c, 0, 86, 120
2, 515704, Note_off_c, 0, 79, 100
2, 515704, Note_off_c, 0, 86, 100
2, 515712, Note_on_c, 0, 79, 120
2, 516096, Note_on_c, 0, 84, 120
2, 516472, Note_off_c, 0, 84, 100
2, 516480, Note_on_c, 0, 88, 120
2, 516848, Control_c, 0, 64, 0
2, 516856, Note_off_c, 0, 79, 100
2, 516856, Note_off_c, 0, 88, 100
2, 516864, Control_c, 0, 64, 127
2, 517248, Note_on_c, 0, 67, 80
2, 517248, Note_on_c, 0, 79, 80
2, 517624, Note_off_c, 0, 67, 100
2, 517624, Note_off_c, 0, 79, 100
2, 517632, Note_on_c, 0, 67, 80
2, 517632, Note_on_c, 0, 79, 80
2, 518200, Note_off_c, 0, 79, 100
2, 518208, Note_on_c, 0, 76, 80
2, 518392, Note_off_c, 0, 76, 100
2, 518400, Note_on_c, 0, 74, 80
2, 518776, Note_off_c, 0, 67, 100
2, 518776, Note_off_c, 0, 74, 100
2, 518784, Note_on_c, 0, 67, 80
2, 519168, Note_on_c, 0, 72, 80
2, 519544, Note_off_c, 0, 72, 100
2, 519552, Note_on_c, 0, 76, 80
2, 519920, Control_c, 0, 64, 0
2, 519928, Note_off_c, 0, 67, 100
2, 519928, Note_off_c, 0, 76, 100
2, 519936, Control_c, 0, 64, 127
2, 520320, Note_on_c, 0, 91, 120
2, 520512, Note_on_c, 0, 90, 120
2, 520688, Note_off_c, 0, 91, 100
2, 520704, Note_on_c, 0, 91, 120
2, 520840, Note_off_c, 0, 90, 100
2, 520896, Note_on_c, 0, 90, 120
2, 521072, Note_off_c, 0, 91, 100
2, 521088, Note_on_c, 0, 91, 120
2, 521240, Note_off_c, 0, 90, 100
2, 521280, Note_on_c, 0, 88, 120
2, 521432, Note_off_c, 0, 91, 100
2, 521472, Note_on_c, 0, 86, 120
2, 521624, Note_off_c, 0, 88, 100
2, 521664, Note_on_c, 0, 85, 120
2, 521808, Note_off_c, 0, 86, 100
2, 521856, Note_on_c, 0, 86, 120
2, 522032, Note_off_c, 0, 85, 100
2, 522048, Note_on_c, 0, 79, 120
2, 522192, Note_off_c, 0, 86, 100
2, 522240, Note_on_c, 0, 84, 120
2, 522376, Note_off_c, 0, 79, 100
2, 522432, Note_on_c, 0, 83, 120
2, 522608, Note_off_c, 0, 84, 100
2, 522624, Note_on_c, 0, 84, 120
2, 522768, Note_off_c, 0, 83, 100
2, 522816, Note_on_c, 0, 88, 120
2, 522968, Note_off_c, 0, 84, 100
2, 522992, Control_c, 0, 64, 0
2, 523000, Note_off_c, 0, 88, 100
2, 523008, Control_c, 0, 64, 127
2, 523392, Note_on_c, 0, 79, 80
2, 523584, Note_on_c, 0, 78, 80
2, 523760, Note_off_c, 0, 79, 100
2, 523776, Note_on_c, 0, 79, 80
2, 523912, Note_off_c, 0, 78, 100
2, 523968, Note_on_c, 0, 78, 80
2, 524144, Note_off_c, 0, 79, 100
2, 524160, Note_on_c, 0, 79, 80
2, 524312, Note_off_c, 0, 78, 100
2, 524352, Note_on_c, 0, 76, 80
2, 524504, Note_off_c, 0, 79, 100
2, 524544, Note_on_c, 0, 74, 80
2, 524696, Note_off_c, 0, 76, 100
2, 524736, Note_on_c, 0, 73, 80
2, 524880, Note_off_c, 0, 74, 100
2, 524928, Note_on_c, 0, 74, 80
2, 525104, Note_off_c, 0, 73, 100
2, 525120, Note_on_c, 0, 67, 80
2, 525264, Note_off_c, 0, 74, 100
2, 525312, Note_on_c, 0, 72, 80
2, 525448, Note_off_c, 0, 67, 100
2, 525504, Note_on_c, 0, 71, 80
2, 525680, Note_off_c, 0, 72, 100
2, 525696, Note_on_c, 0, 72, 80
2, 525840, Note_off_c, 0, 71, 100
2, 525888, Note_on_c, 0, 76, 80
2, 526040, Note_off_c, 0, 72, 100
2, 526064, Control_c, 0, 64, 0
2, 526072, Note_off_c, 0, 76, 100
2, 526080, Note_on_c, 0, 62, 80
2, 526264, Note_off_c, 0, 62, 100
2, 526272, Note_on_c, 0, 61, 80
2, 526456, Note_off_c, 0, 61, 100
2, 526464, Note_on_c, 0, 62, 80
2, 526648, Note_off_c, 0, 62, 100
2, 526656, Note_on_c, 0, 55, 80
2, 526840, Note_off_c, 0, 55, 100
2, 526848, Note_on_c, 0, 60, 80
2, 527032, Note_off_c, 0, 60, 100
2, 527040, Note_on_c, 0, 59, 80
2, 527224, Note_off_c, 0, 59, 100
2, 527232, Note_on_c, 0, 60, 80
2, 527416, Note_off_c, 0, 60, 100
2, 527424, Note_on_c, 0, 64, 80
2, 527608, Note_off_c, 0, 64, 100
2, 527616, Note_on_c, 0, 62, 80
2, 527800, Note_off_c, 0, 62, 100
2, 527808, Note_on_c, 0, 61, 80
2, 527992, Note_off_c, 0, 61, 100
2, 528000, Note_on_c, 0, 62, 80
2, 528184, Note_off_c, 0, 62, 100
2, 528192, Note_on_c, 0, 55, 80
2, 528376, Note_off_c, 0, 55, 100
2, 528384, Note_on_c, 0, 60, 80
2, 528568, Note_off_c, 0, 60, 100
2, 528576, Note_on_c, 0, 59, 80
2, 528760, Note_off_c, 0, 59, 100
2, 528768, Note_on_c, 0, 60, 80
2, 528952, Note_off_c, 0, 60, 100
2, 528960, Note_on_c, 0, 64, 80
2, 529144, Note_off_c, 0, 64, 100
2, 529152, Note_on_c, 0, 62, 80
2, 529336, Note_off_c, 0, 62, 100
2, 529344, Note_on_c, 0, 61, 81
2, 529528, Note_off_c, 0, 61, 100
2, 529536, Note_on_c, 0, 62, 83
2, 529720, Note_off_c, 0, 62, 100
2, 529728, Note_on_c, 0, 59, 85
2, 529912, Note_off_c, 0, 59, 100
2, 529920, Note_on_c, 0, 65, 87
2, 530104, Note_off_c, 0, 65, 100
2, 530112, Note_on_c, 0, 64, 89
2, 530296, Note_off_c, 0, 64, 100
2, 530304, Note_on_c, 0, 65, 91
2, 530488, Note_off_c, 0, 65, 100
2, 530496, Note_on_c, 0, 62, 93
2, 530680, Note_off_c, 0, 62, 100
2, 530688, Note_on_c, 0, 71, 95
2, 530872, Note_off_c, 0, 71, 100
2, 530880, Note_on_c, 0, 70, 97
2, 531064, Note_off_c, 0, 70, 100
2, 531072, Note_on_c, 0, 71, 99
2, 531256, Note_off_c, 0, 71, 100
2, 531264, Note_on_c, 0, 65, 101
2, 531448, Note_off_c, 0, 65, 100
2, 531456, Note_on_c, 0, 74, 103
2, 531640, Note_off_c, 0, 74, 100
2, 531648, Note_on_c, 0, 73, 105
2, 531832, Note_off_c, 0, 73, 100
2, 531840, Note_on_c, 0, 74, 107
2, 532024, Note_off_c, 0, 74, 100
2, 532032, Note_on_c, 0, 71, 109
2, 532216, Note_off_c, 0, 71, 100
2, 532224, Note_on_c, 0, 77, 110
2, 532408, Note_off_c, 0, 77, 100
2, 532416, Note_on_c, 0, 76, 110
2, 532600, Note_off_c, 0, 76, 100
2, 532608, Note_on_c, 0, 77, 110
2, 532792, Note_off_c, 0, 77, 100
2, 532800, Note_on_c, 0, 74, 110
2, 532984, Note_off_c, 0, 74, 100
2, 532992, Note_on_c, 0, 83, 110
2, 533176, Note_off_c, 0, 83, 100
2, 533184, Note_on_c, 0, 82, 110
2, 533368, Note_off_c, 0, 82, 100
2, 533376, Note_on_c, 0, 83, 110
2, 533560, Note_off_c, 0, 83, 100
2, 533568, Note_on_c, 0, 77, 110
2, 533752, Note_off_c, 0, 77, 100
2, 533760, Note_on_c, 0, 86, 110
2, 533944, Note_off_c, 0, 86, 100
2, 533952, Note_on_c, 0, 85, 110
2, 534136, Note_off_c, 0, 85, 100
2, 534144, Note_on_c, 0, 86, 110
2, 534328, Note_off_c, 0, 86, 100
2, 534336, Note_on_c, 0, 83, 110
2, 534520, Note_off_c, 0, 83, 100
2, 534528, Note_on_c, 0, 89, 110
2, 534712, Note_off_c, 0, 89, 100
2, 534720, Note_on_c, 0, 88, 110
2, 534904, Note_off_c, 0, 88, 100
2, 534912, Note_on_c, 0, 89, 110
2, 535096, Note_off_c, 0, 89, 100
2, 535104, Note_on_c, 0, 83, 110
2, 535288, Note_off_c, 0, 83, 100
2, 535296, Note_on_c, 0, 84, 120
2, 535680, Note_on_c, 0, 67, 120
2, 535680, Note_on_c, 0, 64, 120
2, 536056, Note_off_c, 0, 84, 100
2, 536056, Note_off_c, 0, 64, 100
2, 536064, Note_on_c, 0, 64, 120
2, 536064, Note_on_c, 0, 60, 120
2, 536440, Note_off_c, 0, 67, 100
2, 536448, Note_on_c, 0, 72, 120
2, 536448, Note_on_c, 0, 67, 120
2, 536824, Note_off_c, 0, 64, 100
2, 536824, Note_off_c, 0, 60, 100
2, 536824, Note_off_c, 0, 67, 100
2, 536832, Note_on_c, 0, 64, 120
2, 536832, Note_on_c, 0, 67, 120
2, 537208, Note_off_c, 0, 72, 100
2, 537216, Note_on_c, 0, 76, 120
2, 537216, Note_on_c, 0, 72, 120
2, 537592, Note_off_c, 0, 64, 100
2, 537592, Note_off_c, 0, 67, 100
2, 537592, Note_off_c, 0, 72, 100
2, 537600, Note_on_c, 0, 67, 120
2, 537600, Note_on_c, 0, 72, 120
2, 537976, Note_off_c, 0, 76, 100
2, 537984, Note_on_c, 0, 79, 120
2, 537984, Note_on_c, 0, 76, 120
2, 538360, Note_off_c, 0, 67, 100
2, 538360, Note_off_c, 0, 72, 100
2, 538360, Note_off_c, 0, 76, 100
2, 538368, Note_on_c, 0, 76, 120
2, 538368, Note_on_c, 0, 72, 120
2, 538744, Note_off_c, 0, 79, 100
2, 538752, Note_on_c, 0, 84, 120
2, 538752, Note_on_c, 0, 79, 120
2, 539128, Note_off_c, 0, 76, 100
2, 539128, Note_off_c, 0, 72, 100
2, 539136, Note_on_c, 0, 79, 120
2, 539136, Note_on_c, 0, 76, 120
2, 539512, Note_off_c, 0, 84, 100
2, 539512, Note_off_c, 0, 79, 100
2, 539520, Note_on_c, 0, 88, 120
2, 539520, Note_on_c, 0, 84, 120
2, 539896, Note_off_c, 0, 79, 100
2, 539896, Note_off_c, 0, 76, 100
2, 539904, Note_on_c, 0, 84, 120
2, 539904, Note_on_c, 0, 79, 120
2, 540280, Note_off_c, 0, 84, 100
2, 540280, Note_off_c, 0, 88, 100
2, 540288, Note_on_c, 0, 91, 120
2, 540288, Note_on_c, 0, 88, 120
2, 540664, Note_off_c, 0, 84, 100
2, 540664, Note_off_c, 0, 79, 100
2, 540672, Note_on_c, 0, 88, 120
2, 540672, Note_on_c, 0, 84, 120
2, 541048, Note_off_c, 0, 91, 100
2, 541048, Note_off_c, 0, 88, 100
2, 541056, Note_on_c, 0, 91, 120
2, 541056, Note_on_c, 0, 88, 120
2, 541432, Note_off_c, 0, 88, 100
2, 541432, Note_off_c, 0, 84, 100
2, 541432, Note_off_c, 0, 88, 100
2, 541440, Note_on_c, 0, 88, 120
2, 541440, Note_on_c, 0, 84, 120
2, 541816, Note_off_c, 0, 91, 100
2, 542968, Note_off_c, 0, 88, 100
2, 542968, Note_off_c, 0, 84, 100
2, 542976, Note_on_c, 0, 79, 100
2, 542976, Note_on_c, 0, 76, 100
2, 544504, Note_off_c, 0, 79, 100
2, 544504, Note_off_c, 0, 76, 100
2, 544512, Note_on_c, 0, 76, 90
2, 544512, Note_on_c, 0, 72, 90
2, 546040, Note_off_c, 0, 76, 100
2, 546040, Note_off_c, 0, 72, 100
2, 546048, Note_on_c, 0, 67, 80
2, 546048, Note_on_c, 0, 64, 80
2, 547576, Note_off_c, 0, 67, 100
2, 547576, Note_off_c, 0, 64, 100
2, 547584, Note_on_c, 0, 64, 80
2, 547584, Note_on_c, 0, 60, 80
2, 549112, Note_off_c, 0, 64, 100
2, 549112, Note_off_c, 0, 60, 100
2, 549120, Note_on_c, 0, 79, 70
2, 549120, Note_on_c, 0, 76, 70
2, 549880, Note_off_c, 0, 79, 100
2, 549880, Note_off_c, 0, 76, 100
2, 549888, Note_on_c, 0, 79, 70
2, 549888, Note_on_c, 0, 76, 70
2, 550648, Note_off_c, 0, 79, 100
2, 550648, Note_off_c, 0, 76, 100
2, 550656, Note_on_c, 0, 76, 70
2, 550656, Note_on_c, 0, 72, 70
2, 552184, Note_off_c, 0, 76, 100
2, 552184, Note_off_c, 0, 72, 100
2, 552192, Note_on_c, 0, 91, 120
2, 552192, Note_on_c, 0, 88, 120
2, 552192, Note_on_c, 0, 84, 120
2, 552192, Note_on_c, 0, 79, 120
2, 552952, Note_off_c, 0, 91, 100
2, 552952, Note_off_c, 0, 88, 100
2, 552952, Note_off_c, 0, 84, 100
2, 552952, Note_off_c, 0, 79, 100
2, 552960, Note_on_c, 0, 91, 120
2, 552960, Note_on_c, 0, 88, 120
2, 552960, Note_on_c, 0, 84, 120
2, 552960, Note_on_c, 0, 79, 120
2, 553720, Note_off_c, 0, 91, 100
2, 553720, Note_off_c, 0, 88, 100
2, 553720, Note_off_c, 0, 84, 100
2, 553720, Note_off_c, 0, 79, 100
2, 553728, Note_on_c, 0, 88, 120
2, 553728, Note_on_c, 0, 84, 120
2, 553728, Note_on_c, 0, 79, 120
2, 553728, Note_on_c, 0, 76, 120
2, 555256, Note_off_c, 0, 88, 100
2, 555256, Note_off_c, 0, 84, 100
2, 555256, Note_off_c, 0, 79, 100
2, 555256, Note_off_c, 0, 76, 100
2, 555264, Note_on_c, 0, 76, 110
2, 555264, Note_on_c, 0, 72, 110
2, 555264, Note_on_c, 0, 67, 110
2, 555264, Note_on_c, 0, 64, 110
2, 556792, Note_off_c, 0, 76, 100
2, 556792, Note_off_c, 0, 72, 100
2, 556792, Note_off_c, 0, 67, 100
2, 556792, Note_off_c, 0, 64, 100
2, 556800, Note_on_c, 0, 72, 110
2, 556800, Note_on_c, 0, 64, 110
2, 556800, Note_on_c, 0, 67, 110
2, 556800, Note_on_c, 0, 60, 110
2, 560632, Note_off_c, 0, 60, 100
2, 560632, Note_off_c, 0, 64, 100
2, 560632, Note_off_c, 0, 67, 100
2, 560632, Note_off_c, 0, 72, 100
2, 562944, Control_c, 0, 7, 0
2, 563328, Note_on_c, 0, 60, 1
2, 563512, Note_off_c, 0, 60, 100
2, 563512, End_track
3, 0, Start_track
3, 0, Title_t, "Left"
3, 0, Control_c, 1, 0, 0
3, 0, Program_c, 1, 0
3, 0, Control_c, 1, 7, 100
3, 0, Control_c, 1, 10, 59
3, 0, Control_c, 1, 91, 127
3, 0, Key_signature, -1, "major"
3, 0, Note_on_c, 1, 41, 80
3, 0, Note_on_c, 1, 29, 80
3, 572, Note_off_c, 1, 41, 100
3, 572, Note_off_c, 1, 29, 100
3, 576, Note_on_c, 1, 41, 80
3, 576, Note_on_c, 1, 29, 80
3, 1148, Note_off_c, 1, 41, 100
3, 1148, Note_off_c, 1, 29, 100
3, 1344, Note_on_c, 1, 40, 80
3, 1344, Note_on_c, 1, 28, 80
3, 1532, Note_off_c, 1, 40, 100
3, 1532, Note_off_c, 1, 28, 100
3, 1536, Note_on_c, 1, 40, 80
3, 1536, Note_on_c, 1, 28, 80
3, 1724, Note_off_c, 1, 40, 100
3, 1724, Note_off_c, 1, 28, 100
3, 1728, Note_on_c, 1, 40, 80
3, 1728, Note_on_c, 1, 28, 80
3, 2108, Note_off_c, 1, 40, 100
3, 2108, Note_off_c, 1, 28, 100
3, 2304, Note_on_c, 1, 52, 80
3, 2304, Note_on_c, 1, 40, 80
3, 2876, Note_off_c, 1, 52, 100
3, 2876, Note_off_c, 1, 40, 100
3, 2880, Note_on_c, 1, 52, 80
3, 2880, Note_on_c, 1, 40, 80
3, 3452, Note_off_c, 1, 52, 100
3, 3452, Note_off_c, 1, 40, 100
3, 3648, Note_on_c, 1, 51, 80
3, 3648, Note_on_c, 1, 47, 80
3, 3648, Note_on_c, 1, 39, 80
3, 3836, Note_off_c, 1, 51, 100
3, 3836, Note_off_c, 1, 47, 100
3, 3836, Note_off_c, 1, 39, 100
3, 3840, Note_on_c, 1, 51, 80
3, 3840, Note_on_c, 1, 47, 80
3, 3840, Note_on_c, 1, 39, 80
3, 4028, Note_off_c, 1, 51, 100
3, 4028, Note_off_c, 1, 47, 100
3, 4028, Note_off_c, 1, 39, 100
3, 4032, Note_on_c, 1, 51, 80
3, 4032, Note_on_c, 1, 47, 80
3, 4032, Note_on_c, 1, 39, 80
3, 4412, Note_off_c, 1, 51, 100
3, 4412, Note_off_c, 1, 47, 100
3, 4412, Note_off_c, 1, 39, 100
3, 4608, Note_on_c, 1, 50, 80
3, 4608, Note_on_c, 1, 38, 80
3, 5180, Note_off_c, 1, 50, 100
3, 5180, Note_off_c, 1, 38, 100
3, 5184, Note_on_c, 1, 49, 80
3, 5184, Note_on_c, 1, 37, 80
3, 5756, Note_off_c, 1, 49, 100
3, 5756, Note_off_c, 1, 37, 100
3, 5760, Note_on_c, 1, 48, 80
3, 5760, Note_on_c, 1, 36, 80
3, 5948, Note_off_c, 1, 48, 100
3, 5948, Note_off_c, 1, 36, 100
3, 5952, Note_on_c, 1, 48, 80
3, 5952, Note_on_c, 1, 36, 80
3, 6140, Note_off_c, 1, 48, 100
3, 6140, Note_off_c, 1, 36, 100
3, 6144, Note_on_c, 1, 48, 80
3, 6144, Note_on_c, 1, 36, 80
3, 6332, Note_off_c, 1, 48, 100
3, 6332, Note_off_c, 1, 36, 100
3, 6336, Note_on_c, 1, 36, 80
3, 6336, Note_on_c, 1, 48, 80
3, 6716, Note_off_c, 1, 36, 100
3, 6716, Note_off_c, 1, 48, 100
3, 7104, Note_on_c, 1, 50, 80
3, 7104, Note_on_c, 1, 38, 80
3, 7292, Note_off_c, 1, 50, 100
3, 7292, Note_off_c, 1, 38, 100
3, 7296, Note_on_c, 1, 50, 80
3, 7296, Note_on_c, 1, 38, 80
3, 7484, Note_off_c, 1, 50, 100
3, 7484, Note_off_c, 1, 38, 100
3, 7488, Note_on_c, 1, 50, 80
3, 7488, Note_on_c, 1, 38, 80
3, 7868, Note_off_c, 1, 50, 100
3, 7868, Note_off_c, 1, 38, 100
3, 8064, Note_on_c, 1, 46, 80
3, 8064, Note_on_c, 1, 34, 80
3, 8252, Note_off_c, 1, 46, 100
3, 8252, Note_off_c, 1, 34, 100
3, 8640, Note_on_c, 1, 48, 73
3, 8640, Note_on_c, 1, 36, 73
3, 8828, Note_off_c, 1, 48, 100
3, 8828, Note_off_c, 1, 36, 100
3, 9216, Note_on_c, 1, 41, 70
3, 9216, Note_on_c, 1, 29, 70
3, 9404, Note_off_c, 1, 41, 100
3, 9404, Note_off_c, 1, 29, 100
3, 9408, Note_on_c, 1, 41, 70
3, 9408, Note_on_c, 1, 29, 70
3, 9596, Note_off_c, 1, 41, 100
3, 9596, Note_off_c, 1, 29, 100
3, 9600, Note_on_c, 1, 41, 70
3, 9600, Note_on_c, 1, 29, 70
3, 9788, Note_off_c, 1, 41, 100
3, 9788, Note_off_c, 1, 29, 100
3, 9792, Note_on_c, 1, 41, 70
3, 9792, Note_on_c, 1, 29, 70
3, 10172, Note_off_c, 1, 41, 100
3, 10172, Note_off_c, 1, 29, 100
3, 10368, Note_on_c, 1, 48, 80
3, 10368, Note_on_c, 1, 41, 80
3, 10652, Note_off_c, 1, 48, 100
3, 10652, Note_off_c, 1, 41, 100
3, 10656, Note_on_c, 1, 48, 80
3, 10656, Note_on_c, 1, 40, 80
3, 10748, Note_off_c, 1, 48, 100
3, 10748, Note_off_c, 1, 40, 100
3, 10752, Note_on_c, 1, 48, 80
3, 10752, Note_on_c, 1, 41, 80
3, 10844, Note_off_c, 1, 48, 100
3, 10846, Note_off_c, 1, 41, 100
3, 10848, Note_on_c, 1, 48, 80
3, 10848, Note_on_c, 1, 43, 80
3, 10942, Note_off_c, 1, 48, 100
3, 10942, Note_off_c, 1, 43, 100
3, 10944, Note_on_c, 1, 48, 80
3, 10944, Note_on_c, 1, 44, 80
3, 11038, Note_off_c, 1, 48, 100
3, 11038, Note_off_c, 1, 44, 100
3, 11040, Note_on_c, 1, 45, 80
3, 11040, Note_on_c, 1, 48, 80
3, 11230, Note_off_c, 1, 45, 100
3, 11230, Note_off_c, 1, 48, 100
3, 11232, Note_on_c, 1, 48, 80
3, 11232, Note_on_c, 1, 46, 80
3, 11422, Note_off_c, 1, 48, 100
3, 11422, Note_off_c, 1, 46, 100
3, 11424, Note_on_c, 1, 48, 80
3, 11424, Note_on_c, 1, 43, 80
3, 11468, Note_off_c, 1, 43, 100
3, 11472, Note_on_c, 1, 41, 80
3, 11516, Note_off_c, 1, 41, 100
3, 11518, Note_off_c, 1, 48, 100
3, 11520, Note_on_c, 1, 48, 80
3, 11520, Note_on_c, 1, 40, 80
3, 11804, Note_off_c, 1, 48, 100
3, 11804, Note_off_c, 1, 40, 100
3, 11808, Note_on_c, 1, 60, 80
3, 11808, Note_on_c, 1, 54, 80
3, 11900, Note_off_c, 1, 60, 100
3, 11900, Note_off_c, 1, 54, 100
3, 11904, Note_on_c, 1, 60, 80
3, 11904, Note_on_c, 1, 55, 80
3, 11996, Note_off_c, 1, 60, 100
3, 11996, Note_off_c, 1, 55, 100
3, 12000, Note_on_c, 1, 60, 80
3, 12000, Note_on_c, 1, 57, 80
3, 12092, Note_off_c, 1, 60, 100
3, 12092, Note_off_c, 1, 57, 100
3, 12096, Note_on_c, 1, 58, 80
3, 12096, Note_on_c, 1, 60, 80
3, 12188, Note_off_c, 1, 58, 100
3, 12188, Note_off_c, 1, 60, 100
3, 12192, Note_on_c, 1, 42, 80
3, 12284, Note_off_c, 1, 42, 100
3, 12288, Note_on_c, 1, 43, 80
3, 12380, Note_off_c, 1, 43, 100
3, 12384, Note_on_c, 1, 45, 80
3, 12476, Note_off_c, 1, 45, 100
3, 12480, Note_on_c, 1, 46, 80
3, 12572, Note_off_c, 1, 46, 100
3, 12576, Note_on_c, 1, 43, 80
3, 12668, Note_off_c, 1, 43, 100
3, 12672, Note_on_c, 1, 40, 80
3, 12764, Note_off_c, 1, 40, 100
3, 12768, Note_on_c, 1, 43, 80
3, 12768, Note_on_c, 1, 48, 80
3, 12956, Note_off_c, 1, 43, 100
3, 12956, Note_off_c, 1, 48, 100
3, 12960, Note_on_c, 1, 48, 80
3, 12960, Note_on_c, 1, 42, 80
3, 13052, Note_off_c, 1, 48, 100
3, 13052, Note_off_c, 1, 42, 100
3, 13056, Note_on_c, 1, 48, 80
3, 13056, Note_on_c, 1, 43, 80
3, 13148, Note_off_c, 1, 48, 100
3, 13148, Note_off_c, 1, 43, 100
3, 13152, Note_on_c, 1, 48, 80
3, 13152, Note_on_c, 1, 45, 80
3, 13244, Note_off_c, 1, 48, 100
3, 13244, Note_off_c, 1, 45, 100
3, 13248, Note_on_c, 1, 48, 80
3, 13248, Note_on_c, 1, 46, 80
3, 13532, Note_off_c, 1, 48, 100
3, 13532, Note_off_c, 1, 46, 100
3, 13536, Note_on_c, 1, 40, 80
3, 13536, Note_on_c, 1, 48, 80
3, 13724, Note_off_c, 1, 40, 100
3, 13724, Note_off_c, 1, 48, 100
3, 13728, Note_on_c, 1, 48, 80
3, 13728, Note_on_c, 1, 36, 80
3, 13820, Note_off_c, 1, 48, 100
3, 13820, Note_off_c, 1, 36, 100
3, 13824, Note_on_c, 1, 48, 80
3, 13824, Note_on_c, 1, 41, 80
3, 14108, Note_off_c, 1, 48, 100
3, 14108, Note_off_c, 1, 41, 100
3, 14112, Note_on_c, 1, 56, 80
3, 14204, Note_off_c, 1, 56, 100
3, 14208, Note_on_c, 1, 57, 80
3, 14300, Note_off_c, 1, 57, 100
3, 14304, Note_on_c, 1, 59, 80
3, 14396, Note_off_c, 1, 59, 100
3, 14400, Note_on_c, 1, 60, 80
3, 14492, Note_off_c, 1, 60, 100
3, 14496, Note_on_c, 1, 44, 80
3, 14588, Note_off_c, 1, 44, 100
3, 14592, Note_on_c, 1, 45, 80
3, 14684, Note_off_c, 1, 45, 100
3, 14688, Note_on_c, 1, 47, 80
3, 14780, Note_off_c, 1, 47, 100
3, 14784, Note_on_c, 1, 48, 80
3, 14876, Note_off_c, 1, 48, 100
3, 14880, Note_on_c, 1, 46, 80
3, 14972, Note_off_c, 1, 46, 100
3, 14976, Note_on_c, 1, 45, 80
3, 15164, Note_off_c, 1, 45, 100
3, 15168, Note_on_c, 1, 60, 81
3, 15168, Note_on_c, 1, 57, 81
3, 15356, Note_off_c, 1, 60, 100
3, 15356, Note_off_c, 1, 57, 100
3, 15360, Note_on_c, 1, 58, 83
3, 15360, Note_on_c, 1, 60, 83
3, 15548, Note_off_c, 1, 58, 100
3, 15552, Note_on_c, 1, 52, 85
3, 15740, Note_off_c, 1, 60, 100
3, 15740, Note_off_c, 1, 52, 100
3, 15744, Note_on_c, 1, 55, 86
3, 15744, Note_on_c, 1, 48, 86
3, 15932, Note_off_c, 1, 55, 100
3, 15932, Note_off_c, 1, 48, 100
3, 15936, Note_on_c, 1, 57, 88
3, 15936, Note_on_c, 1, 53, 88
3, 16124, Note_off_c, 1, 57, 100
3, 16124, Note_off_c, 1, 53, 100
3, 16128, Note_on_c, 1, 45, 90
3, 16316, Note_off_c, 1, 45, 100
3, 16320, Note_on_c, 1, 60, 92
3, 16320, Note_on_c, 1, 57, 92
3, 16508, Note_off_c, 1, 60, 100
3, 16508, Note_off_c, 1, 57, 100
3, 16512, Note_on_c, 1, 58, 93
3, 16512, Note_on_c, 1, 60, 93
3, 16700, Note_off_c, 1, 58, 100
3, 16704, Note_on_c, 1, 52, 95
3, 16892, Note_off_c, 1, 60, 100
3, 16892, Note_off_c, 1, 52, 100
3, 16896, Note_on_c, 1, 55, 97
3, 16896, Note_on_c, 1, 48, 97
3, 17084, Note_off_c, 1, 55, 100
3, 17084, Note_off_c, 1, 48, 100
3, 17088, Note_on_c, 1, 53, 99
3, 17088, Note_on_c, 1, 50, 99
3, 17276, Note_off_c, 1, 53, 100
3, 17276, Note_off_c, 1, 50, 100
3, 17280, Note_on_c, 1, 46, 90
3, 17280, Note_on_c, 1, 34, 90
3, 17468, Note_off_c, 1, 46, 100
3, 17468, Note_off_c, 1, 34, 100
3, 17856, Note_on_c, 1, 48, 79
3, 17856, Note_on_c, 1, 36, 79
3, 18044, Note_off_c, 1, 48, 100
3, 18044, Note_off_c, 1, 36, 100
3, 18432, Note_on_c, 1, 41, 70
3, 18432, Note_on_c, 1, 29, 70
3, 19004, Note_off_c, 1, 41, 100
3, 19004, Note_off_c, 1, 29, 100
3, 19008, Note_on_c, 1, 41, 70
3, 19008, Note_on_c, 1, 29, 70
3, 19388, Note_off_c, 1, 29, 100
3, 19436, Note_off_c, 1, 41, 100
3, 19440, Note_on_c, 1, 45, 70
3, 19484, Note_off_c, 1, 45, 100
3, 19488, Note_on_c, 1, 48, 70
3, 19532, Note_off_c, 1, 48, 100
3, 19536, Note_on_c, 1, 45, 70
3, 19580, Note_off_c, 1, 45, 100
3, 19584, Note_on_c, 1, 40, 70
3, 19772, Note_off_c, 1, 40, 100
3, 19776, Note_on_c, 1, 40, 70
3, 19776, Note_on_c, 1, 28, 70
3, 19964, Note_off_c, 1, 40, 100
3, 19964, Note_off_c, 1, 28, 100
3, 19968, Note_on_c, 1, 40, 70
3, 19968, Note_on_c, 1, 28, 70
3, 20156, Note_off_c, 1, 40, 100
3, 20156, Note_off_c, 1, 28, 100
3, 20160, Note_on_c, 1, 40, 70
3, 20160, Note_on_c, 1, 28, 70
3, 20540, Note_off_c, 1, 40, 100
3, 20540, Note_off_c, 1, 28, 100
3, 20736, Note_on_c, 1, 52, 70
3, 20736, Note_on_c, 1, 40, 70
3, 21308, Note_off_c, 1, 52, 100
3, 21308, Note_off_c, 1, 40, 100
3, 21312, Note_on_c, 1, 52, 70
3, 21312, Note_on_c, 1, 40, 70
3, 21740, Note_off_c, 1, 52, 100
3, 21740, Note_off_c, 1, 40, 100
3, 21744, Note_on_c, 1, 52, 70
3, 21788, Note_off_c, 1, 52, 100
3, 21792, Note_on_c, 1, 55, 70
3, 21836, Note_off_c, 1, 55, 100
3, 21840, Note_on_c, 1, 52, 70
3, 21884, Note_off_c, 1, 52, 100
3, 21888, Note_on_c, 1, 51, 70
3, 22076, Note_off_c, 1, 51, 100
3, 22080, Note_on_c, 1, 51, 70
3, 22080, Note_on_c, 1, 47, 70
3, 22080, Note_on_c, 1, 39, 70
3, 22268, Note_off_c, 1, 51, 100
3, 22268, Note_off_c, 1, 47, 100
3, 22268, Note_off_c, 1, 39, 100
3, 22272, Note_on_c, 1, 51, 70
3, 22272, Note_on_c, 1, 47, 70
3, 22272, Note_on_c, 1, 39, 70
3, 22460, Note_off_c, 1, 51, 100
3, 22460, Note_off_c, 1, 47, 100
3, 22460, Note_off_c, 1, 39, 100
3, 22464, Note_on_c, 1, 51, 70
3, 22464, Note_on_c, 1, 47, 70
3, 22464, Note_on_c, 1, 39, 70
3, 22652, Note_off_c, 1, 51, 100
3, 22652, Note_off_c, 1, 47, 100
3, 22652, Note_off_c, 1, 39, 100
3, 22656, Note_on_c, 1, 53, 80
3, 22656, Note_on_c, 1, 50, 80
3, 22844, Note_off_c, 1, 53, 100
3, 22844, Note_off_c, 1, 50, 100
3, 22848, Note_on_c, 1, 53, 92
3, 22848, Note_on_c, 1, 50, 92
3, 23036, Note_off_c, 1, 53, 100
3, 23036, Note_off_c, 1, 50, 100
3, 23040, Note_on_c, 1, 50, 70
3, 23468, Note_off_c, 1, 50, 100
3, 23472, Note_on_c, 1, 53, 76
3, 23516, Note_off_c, 1, 53, 100
3, 23520, Note_on_c, 1, 56, 77
3, 23564, Note_off_c, 1, 56, 100
3, 23568, Note_on_c, 1, 53, 77
3, 23612, Note_off_c, 1, 53, 100
3, 23616, Note_on_c, 1, 49, 78
3, 24044, Note_off_c, 1, 49, 100
3, 24048, Note_on_c, 1, 53, 84
3, 24092, Note_off_c, 1, 53, 100
3, 24096, Note_on_c, 1, 56, 85
3, 24140, Note_off_c, 1, 56, 100
3, 24144, Note_on_c, 1, 53, 86
3, 24188, Note_off_c, 1, 53, 100
3, 24192, Note_on_c, 1, 48, 87
3, 24620, Note_off_c, 1, 48, 100
3, 24624, Note_on_c, 1, 53, 93
3, 24668, Note_off_c, 1, 53, 100
3, 24672, Note_on_c, 1, 56, 94
3, 24716, Note_off_c, 1, 56, 100
3, 24720, Note_on_c, 1, 53, 94
3, 24764, Note_off_c, 1, 53, 100
3, 24768, Note_on_c, 1, 47, 95
3, 25196, Note_off_c, 1, 47, 100
3, 25200, Note_on_c, 1, 53, 102
3, 25244, Note_off_c, 1, 53, 100
3, 25248, Note_on_c, 1, 56, 102
3, 25292, Note_off_c, 1, 56, 100
3, 25296, Note_on_c, 1, 53, 103
3, 25340, Note_off_c, 1, 53, 100
3, 25344, Note_on_c, 1, 44, 104
3, 25772, Note_off_c, 1, 44, 100
3, 25776, Note_on_c, 1, 53, 110
3, 25820, Note_off_c, 1, 53, 100
3, 25824, Note_on_c, 1, 59, 110
3, 25868, Note_off_c, 1, 59, 100
3, 25872, Note_on_c, 1, 53, 110
3, 25916, Note_off_c, 1, 53, 100
3, 25920, Note_on_c, 1, 43, 110
3, 26348, Note_off_c, 1, 43, 100
3, 26352, Note_on_c, 1, 53, 110
3, 26396, Note_off_c, 1, 53, 100
3, 26400, Note_on_c, 1, 59, 110
3, 26444, Note_off_c, 1, 59, 100
3, 26448, Note_on_c, 1, 53, 110
3, 26492, Note_off_c, 1, 53, 100
3, 26496, Note_on_c, 1, 44, 110
3, 26924, Note_off_c, 1, 44, 100
3, 26928, Note_on_c, 1, 53, 110
3, 26972, Note_off_c, 1, 53, 100
3, 26976, Note_on_c, 1, 59, 110
3, 27020, Note_off_c, 1, 59, 100
3, 27024, Note_on_c, 1, 53, 110
3, 27068, Note_off_c, 1, 53, 100
3, 27072, Note_on_c, 1, 44, 110
3, 27116, Note_off_c, 1, 44, 100
3, 27120, Note_on_c, 1, 53, 110
3, 27164, Note_off_c, 1, 53, 100
3, 27168, Note_on_c, 1, 59, 110
3, 27212, Note_off_c, 1, 59, 100
3, 27216, Note_on_c, 1, 53, 110
3, 27260, Note_off_c, 1, 53, 100
3, 27264, Note_on_c, 1, 44, 110
3, 27308, Note_off_c, 1, 44, 100
3, 27312, Note_on_c, 1, 53, 110
3, 27356, Note_off_c, 1, 53, 100
3, 27360, Note_on_c, 1, 59, 109
3, 27404, Note_off_c, 1, 59, 100
3, 27408, Note_on_c, 1, 53, 108
3, 27452, Note_off_c, 1, 53, 100
3, 27456, Note_on_c, 1, 44, 107
3, 27500, Note_off_c, 1, 44, 100
3, 27504, Note_on_c, 1, 53, 105
3, 27548, Note_off_c, 1, 53, 100
3, 27552, Note_on_c, 1, 59, 104
3, 27596, Note_off_c, 1, 59, 100
3, 27600, Note_on_c, 1, 53, 103
3, 27644, Note_off_c, 1, 53, 100
3, 27648, Note_on_c, 1, 43, 101
3, 27692, Note_off_c, 1, 43, 100
3, 27696, Note_on_c, 1, 53, 100
3, 27740, Note_off_c, 1, 53, 100
3, 27744, Note_on_c, 1, 59, 99
3, 27788, Note_off_c, 1, 59, 100
3, 27792, Note_on_c, 1, 53, 97
3, 27836, Note_off_c, 1, 53, 100
3, 27840, Note_on_c, 1, 43, 96
3, 27884, Note_off_c, 1, 43, 100
3, 27888, Note_on_c, 1, 50, 95
3, 27932, Note_off_c, 1, 50, 100
3, 27936, Note_on_c, 1, 53, 93
3, 27980, Note_off_c, 1, 53, 100
3, 27984, Note_on_c, 1, 50, 92
3, 28028, Note_off_c, 1, 50, 100
3, 28032, Note_on_c, 1, 43, 91
3, 28076, Note_off_c, 1, 43, 100
3, 28080, Note_on_c, 1, 47, 89
3, 28124, Note_off_c, 1, 47, 100
3, 28128, Note_on_c, 1, 50, 88
3, 28172, Note_off_c, 1, 50, 100
3, 28176, Note_on_c, 1, 47, 87
3, 28220, Note_off_c, 1, 47, 100
3, 28224, Note_on_c, 1, 43, 85
3, 28268, Note_off_c, 1, 43, 100
3, 28272, Note_on_c, 1, 47, 84
3, 28316, Note_off_c, 1, 47, 100
3, 28320, Note_on_c, 1, 50, 83
3, 28364, Note_off_c, 1, 50, 100
3, 28368, Note_on_c, 1, 47, 81
3, 28412, Note_off_c, 1, 47, 100
3, 28416, Note_on_c, 1, 43, 80
3, 28460, Note_off_c, 1, 43, 100
3, 28464, Note_on_c, 1, 47, 79
3, 28508, Note_off_c, 1, 47, 100
3, 28512, Note_on_c, 1, 50, 77
3, 28556, Note_off_c, 1, 50, 100
3, 28560, Note_on_c, 1, 47, 76
3, 28604, Note_off_c, 1, 47, 100
3, 28608, Note_on_c, 1, 43, 75
3, 28652, Note_off_c, 1, 43, 100
3, 28656, Note_on_c, 1, 38, 73
3, 28700, Note_off_c, 1, 38, 100
3, 28704, Note_on_c, 1, 35, 72
3, 28748, Note_off_c, 1, 35, 100
3, 28752, Note_on_c, 1, 38, 71
3, 28796, Note_off_c, 1, 38, 100
3, 28800, Note_on_c, 1, 31, 80
3, 28988, Note_off_c, 1, 31, 100
3, 28992, Note_on_c, 1, 31, 80
3, 28992, Note_on_c, 1, 43, 80
3, 29180, Note_off_c, 1, 31, 100
3, 29180, Note_off_c, 1, 43, 100
3, 29184, Note_on_c, 1, 43, 80
3, 29184, Note_on_c, 1, 31, 80
3, 29372, Note_off_c, 1, 43, 100
3, 29372, Note_off_c, 1, 31, 100
3, 29376, Note_on_c, 1, 44, 80
3, 29376, Note_on_c, 1, 32, 80
3, 29756, Note_off_c, 1, 44, 100
3, 29756, Note_off_c, 1, 32, 100
3, 30144, Note_on_c, 1, 45, 80
3, 30144, Note_on_c, 1, 33, 80
3, 30332, Note_off_c, 1, 45, 100
3, 30332, Note_off_c, 1, 33, 100
3, 30336, Note_on_c, 1, 45, 80
3, 30336, Note_on_c, 1, 33, 80
3, 30524, Note_off_c, 1, 45, 100
3, 30524, Note_off_c, 1, 33, 100
3, 30528, Note_on_c, 1, 45, 80
3, 30528, Note_on_c, 1, 33, 80
3, 30908, Note_off_c, 1, 45, 100
3, 30908, Note_off_c, 1, 33, 100
3, 31104, Note_on_c, 1, 41, 80
3, 31104, Note_on_c, 1, 29, 80
3, 31292, Note_off_c, 1, 41, 100
3, 31292, Note_off_c, 1, 29, 100
3, 31680, Note_on_c, 1, 43, 80
3, 31680, Note_on_c, 1, 31, 80
3, 31868, Note_off_c, 1, 43, 100
3, 31868, Note_off_c, 1, 31, 100
3, 33024, Key_signature, 0, "major"
3, 33024, Control_c, 1, 64, 127
3, 33024, Note_on_c, 1, 36, 80
3, 33408, Note_on_c, 1, 79, 80
3, 33596, Note_off_c, 1, 36, 100
3, 33788, Note_off_c, 1, 79, 100
3, 33792, Note_on_c, 1, 79, 80
3, 34368, Note_on_c, 1, 76, 80
3, 34556, Note_off_c, 1, 79, 100
3, 34560, Note_on_c, 1, 74, 80
3, 34748, Note_off_c, 1, 76, 100
3, 34944, Note_on_c, 1, 67, 80
3, 35324, Note_off_c, 1, 74, 100
3, 35328, Note_on_c, 1, 72, 80
3, 35708, Note_off_c, 1, 67, 100
3, 35712, Note_on_c, 1, 76, 80
3, 36000, Note_on_c, 1, 48, 80
3, 36092, Note_off_c, 1, 72, 100
3, 36096, Note_on_c, 1, 36, 80
3, 36188, Note_off_c, 1, 48, 100
3, 36284, Note_off_c, 1, 76, 64
3, 36480, Note_on_c, 1, 79, 80
3, 36860, Note_off_c, 1, 36, 100
3, 36860, Note_off_c, 1, 79, 100
3, 36864, Note_on_c, 1, 79, 80
3, 37440, Note_on_c, 1, 76, 80
3, 37628, Note_off_c, 1, 79, 100
3, 37628, Note_off_c, 1, 76, 64
3, 37632, Note_on_c, 1, 74, 80
3, 38016, Note_on_c, 1, 67, 80
3, 38396, Note_off_c, 1, 74, 100
3, 38400, Note_on_c, 1, 72, 80
3, 38776, Control_c, 1, 64, 0
3, 38780, Note_off_c, 1, 67, 100
3, 38780, Note_off_c, 1, 72, 100
3, 39072, Note_on_c, 1, 43, 80
3, 39168, Control_c, 1, 64, 127
3, 39168, Note_on_c, 1, 31, 80
3, 39260, Note_off_c, 1, 43, 100
3, 39552, Note_on_c, 1, 77, 80
3, 39932, Note_off_c, 1, 31, 100
3, 39932, Note_off_c, 1, 77, 100
3, 39936, Note_on_c, 1, 77, 80
3, 40512, Note_on_c, 1, 74, 80
3, 40700, Note_off_c, 1, 77, 100
3, 40704, Note_on_c, 1, 76, 80
3, 40892, Note_off_c, 1, 74, 100
3, 41088, Note_on_c, 1, 72, 80
3, 41468, Note_off_c, 1, 76, 64
3, 41472, Note_on_c, 1, 71, 80
3, 41852, Note_off_c, 1, 72, 100
3, 41856, Note_on_c, 1, 74, 80
3, 41944, Control_c, 1, 64, 0
3, 42044, Note_off_c, 1, 71, 100
3, 42044, Note_off_c, 1, 74, 100
3, 42144, Note_on_c, 1, 43, 80
3, 42236, Note_off_c, 1, 43, 100
3, 42240, Control_c, 1, 64, 127
3, 42240, Note_on_c, 1, 31, 80
3, 42624, Note_on_c, 1, 77, 80
3, 43004, Note_off_c, 1, 31, 100
3, 43004, Note_off_c, 1, 77, 100
3, 43008, Note_on_c, 1, 77, 80
3, 43584, Note_on_c, 1, 74, 80
3, 43772, Note_off_c, 1, 77, 100
3, 43776, Note_on_c, 1, 75, 80
3, 43964, Note_off_c, 1, 74, 100
3, 44160, Note_on_c, 1, 72, 80
3, 44540, Note_off_c, 1, 75, 100
3, 44544, Note_on_c, 1, 71, 80
3, 44924, Note_off_c, 1, 72, 100
3, 44928, Note_on_c, 1, 74, 80
3, 45116, Note_off_c, 1, 71, 100
3, 45312, Note_on_c, 1, 76, 80
3, 45500, Note_off_c, 1, 76, 64
3, 45692, Note_off_c, 1, 74, 100
3, 45696, Note_on_c, 1, 72, 80
3, 46080, Note_on_c, 1, 71, 80
3, 46460, Note_off_c, 1, 72, 100
3, 46464, Note_on_c, 1, 74, 80
3, 46652, Note_off_c, 1, 71, 100
3, 46848, Note_on_c, 1, 75, 80
3, 47228, Note_off_c, 1, 74, 100
3, 47232, Note_on_c, 1, 72, 80
3, 47612, Note_off_c, 1, 75, 100
3, 47616, Note_on_c, 1, 79, 80
3, 47996, Note_off_c, 1, 72, 100
3, 47996, Note_off_c, 1, 79, 100
3, 48000, Note_on_c, 1, 79, 80
3, 48380, Note_off_c, 1, 79, 100
3, 48384, Note_on_c, 1, 79, 80
3, 48764, Note_off_c, 1, 79, 100
3, 48768, Note_on_c, 1, 79, 80
3, 49148, Note_off_c, 1, 79, 100
3, 49152, Note_on_c, 1, 79, 80
3, 49532, Note_off_c, 1, 79, 100
3, 49536, Note_on_c, 1, 79, 80
3, 49916, Note_off_c, 1, 79, 100
3, 49920, Note_on_c, 1, 79, 80
3, 50300, Note_off_c, 1, 79, 100
3, 50776, Control_c, 1, 64, 0
3, 56064, Control_c, 1, 64, 127
3, 56064, Note_on_c, 1, 36, 80
3, 56160, Note_on_c, 1, 43, 80
3, 56252, Note_off_c, 1, 36, 100
3, 56256, Note_on_c, 1, 48, 80
3, 56348, Note_off_c, 1, 43, 100
3, 56352, Note_on_c, 1, 52, 80
3, 56444, Note_off_c, 1, 48, 100
3, 56448, Note_on_c, 1, 55, 80
3, 56540, Note_off_c, 1, 52, 100
3, 56544, Note_on_c, 1, 48, 80
3, 56636, Note_off_c, 1, 55, 100
3, 56640, Note_on_c, 1, 52, 80
3, 56732, Note_off_c, 1, 48, 100
3, 56736, Note_on_c, 1, 55, 80
3, 56828, Note_off_c, 1, 52, 100
3, 56832, Note_on_c, 1, 60, 80
3, 56924, Note_off_c, 1, 55, 100
3, 56928, Note_on_c, 1, 52, 80
3, 57020, Note_off_c, 1, 60, 100
3, 57024, Note_on_c, 1, 55, 80
3, 57116, Note_off_c, 1, 52, 100
3, 57120, Note_on_c, 1, 60, 80
3, 57212, Note_off_c, 1, 55, 100
3, 57216, Note_on_c, 1, 64, 80
3, 57308, Note_off_c, 1, 60, 100
3, 57312, Note_on_c, 1, 55, 80
3, 57404, Note_off_c, 1, 64, 100
3, 57408, Note_on_c, 1, 60, 80
3, 57500, Note_off_c, 1, 55, 100
3, 57504, Note_on_c, 1, 64, 80
3, 57596, Note_off_c, 1, 60, 100
3, 57600, Note_on_c, 1, 65, 80
3, 57692, Note_off_c, 1, 64, 100
3, 57696, Note_on_c, 1, 64, 80
3, 57788, Note_off_c, 1, 65, 100
3, 57792, Note_on_c, 1, 62, 80
3, 57884, Note_off_c, 1, 64, 100
3, 57888, Note_on_c, 1, 60, 80
3, 57980, Note_off_c, 1, 62, 100
3, 57984, Note_on_c, 1, 59, 80
3, 58076, Note_off_c, 1, 60, 100
3, 58080, Note_on_c, 1, 57, 80
3, 58172, Note_off_c, 1, 59, 100
3, 58176, Note_on_c, 1, 55, 80
3, 58268, Note_off_c, 1, 57, 100
3, 58272, Note_on_c, 1, 53, 80
3, 58364, Note_off_c, 1, 55, 100
3, 58368, Note_on_c, 1, 52, 80
3, 58460, Note_off_c, 1, 53, 100
3, 58464, Note_on_c, 1, 55, 80
3, 58556, Note_off_c, 1, 52, 100
3, 58560, Note_on_c, 1, 48, 80
3, 58652, Note_off_c, 1, 55, 100
3, 58656, Note_on_c, 1, 52, 80
3, 58748, Note_off_c, 1, 48, 100
3, 58752, Note_on_c, 1, 43, 80
3, 58844, Note_off_c, 1, 52, 100
3, 58848, Note_on_c, 1, 48, 80
3, 58940, Note_off_c, 1, 43, 100
3, 58944, Note_on_c, 1, 40, 80
3, 59036, Note_off_c, 1, 48, 100
3, 59040, Note_on_c, 1, 43, 80
3, 59132, Note_off_c, 1, 40, 100
3, 59136, Note_on_c, 1, 36, 80
3, 59228, Note_off_c, 1, 43, 100
3, 59232, Note_on_c, 1, 43, 80
3, 59324, Note_off_c, 1, 36, 100
3, 59328, Note_on_c, 1, 48, 80
3, 59420, Note_off_c, 1, 43, 100
3, 59424, Note_on_c, 1, 52, 80
3, 59516, Note_off_c, 1, 48, 100
3, 59520, Note_on_c, 1, 55, 80
3, 59612, Note_off_c, 1, 52, 100
3, 59616, Note_on_c, 1, 48, 80
3, 59708, Note_off_c, 1, 55, 100
3, 59712, Note_on_c, 1, 52, 80
3, 59804, Note_off_c, 1, 48, 100
3, 59808, Note_on_c, 1, 55, 80
3, 59900, Note_off_c, 1, 52, 100
3, 59904, Note_on_c, 1, 60, 80
3, 59996, Note_off_c, 1, 55, 100
3, 60000, Note_on_c, 1, 52, 80
3, 60092, Note_off_c, 1, 60, 100
3, 60096, Note_on_c, 1, 55, 80
3, 60188, Note_off_c, 1, 52, 100
3, 60192, Note_on_c, 1, 60, 80
3, 60284, Note_off_c, 1, 55, 100
3, 60288, Note_on_c, 1, 64, 80
3, 60380, Note_off_c, 1, 60, 100
3, 60384, Note_on_c, 1, 55, 80
3, 60476, Note_off_c, 1, 64, 100
3, 60480, Note_on_c, 1, 60, 80
3, 60572, Note_off_c, 1, 55, 100
3, 60576, Note_on_c, 1, 64, 80
3, 60668, Note_off_c, 1, 60, 100
3, 60672, Note_on_c, 1, 65, 80
3, 60764, Note_off_c, 1, 64, 100
3, 60768, Note_on_c, 1, 64, 80
3, 60860, Note_off_c, 1, 65, 100
3, 60864, Note_on_c, 1, 62, 80
3, 60956, Note_off_c, 1, 64, 100
3, 60960, Note_on_c, 1, 60, 80
3, 61052, Note_off_c, 1, 62, 100
3, 61056, Note_on_c, 1, 59, 80
3, 61148, Note_off_c, 1, 60, 100
3, 61152, Note_on_c, 1, 55, 80
3, 61244, Note_off_c, 1, 59, 100
3, 61248, Note_on_c, 1, 57, 80
3, 61340, Note_off_c, 1, 55, 100
3, 61344, Note_on_c, 1, 59, 80
3, 61436, Note_off_c, 1, 57, 100
3, 61440, Note_on_c, 1, 60, 80
3, 61532, Note_off_c, 1, 59, 100
3, 61536, Note_on_c, 1, 59, 80
3, 61628, Note_off_c, 1, 60, 100
3, 61632, Note_on_c, 1, 57, 80
3, 61724, Note_off_c, 1, 59, 100
3, 61728, Note_on_c, 1, 55, 80
3, 61820, Note_off_c, 1, 57, 100
3, 61820, Note_off_c, 1, 55, 100
3, 61824, Note_on_c, 1, 53, 80
3, 61916, Note_off_c, 1, 53, 100
3, 61920, Note_on_c, 1, 52, 80
3, 62012, Note_off_c, 1, 52, 100
3, 62016, Note_on_c, 1, 50, 80
3, 62108, Note_off_c, 1, 50, 100
3, 62112, Note_on_c, 1, 48, 80
3, 62200, Control_c, 1, 64, 0
3, 62204, Note_off_c, 1, 48, 100
3, 62208, Control_c, 1, 64, 127
3, 62208, Note_on_c, 1, 43, 80
3, 62304, Note_on_c, 1, 47, 80
3, 62396, Note_off_c, 1, 43, 100
3, 62400, Note_on_c, 1, 50, 80
3, 62492, Note_off_c, 1, 47, 100
3, 62496, Note_on_c, 1, 55, 80
3, 62588, Note_off_c, 1, 50, 100
3, 62592, Note_on_c, 1, 47, 80
3, 62684, Note_off_c, 1, 55, 100
3, 62688, Note_on_c, 1, 50, 80
3, 62780, Note_off_c, 1, 47, 100
3, 62784, Note_on_c, 1, 55, 80
3, 62876, Note_off_c, 1, 50, 100
3, 62880, Note_on_c, 1, 59, 80
3, 62972, Note_off_c, 1, 55, 100
3, 62976, Note_on_c, 1, 50, 80
3, 63068, Note_off_c, 1, 59, 100
3, 63072, Note_on_c, 1, 55, 80
3, 63164, Note_off_c, 1, 50, 100
3, 63168, Note_on_c, 1, 59, 80
3, 63260, Note_off_c, 1, 55, 100
3, 63264, Note_on_c, 1, 62, 80
3, 63356, Note_off_c, 1, 59, 100
3, 63360, Note_on_c, 1, 55, 80
3, 63452, Note_off_c, 1, 62, 100
3, 63456, Note_on_c, 1, 59, 80
3, 63548, Note_off_c, 1, 55, 100
3, 63552, Note_on_c, 1, 62, 80
3, 63644, Note_off_c, 1, 59, 100
3, 63648, Note_on_c, 1, 67, 80
3, 63736, Control_c, 1, 64, 0
3, 63740, Note_off_c, 1, 62, 100
3, 63740, Note_off_c, 1, 67, 100
3, 63744, Note_on_c, 1, 55, 80
3, 63840, Note_on_c, 1, 60, 80
3, 63932, Note_off_c, 1, 55, 100
3, 63936, Note_on_c, 1, 67, 80
3, 64028, Note_off_c, 1, 60, 100
3, 64032, Note_on_c, 1, 60, 80
3, 64124, Note_off_c, 1, 67, 100
3, 64128, Note_on_c, 1, 55, 80
3, 64220, Note_off_c, 1, 60, 100
3, 64224, Note_on_c, 1, 64, 80
3, 64316, Note_off_c, 1, 55, 100
3, 64320, Note_on_c, 1, 67, 80
3, 64412, Note_off_c, 1, 64, 100
3, 64416, Note_on_c, 1, 64, 80
3, 64508, Note_off_c, 1, 67, 100
3, 64512, Note_on_c, 1, 55, 80
3, 64604, Note_off_c, 1, 64, 100
3, 64608, Note_on_c, 1, 62, 80
3, 64700, Note_off_c, 1, 55, 100
3, 64704, Note_on_c, 1, 67, 80
3, 64796, Note_off_c, 1, 62, 100
3, 64800, Note_on_c, 1, 62, 80
3, 64892, Note_off_c, 1, 67, 100
3, 64896, Note_on_c, 1, 55, 80
3, 64988, Note_off_c, 1, 62, 100
3, 64992, Note_on_c, 1, 59, 80
3, 65084, Note_off_c, 1, 55, 100
3, 65088, Note_on_c, 1, 67, 80
3, 65180, Note_off_c, 1, 59, 100
3, 65184, Note_on_c, 1, 59, 80
3, 65276, Note_off_c, 1, 67, 100
3, 65276, Note_off_c, 1, 59, 100
3, 65280, Control_c, 1, 64, 127
3, 65280, Note_on_c, 1, 43, 80
3, 65376, Note_on_c, 1, 47, 80
3, 65468, Note_off_c, 1, 43, 100
3, 65472, Note_on_c, 1, 50, 80
3, 65564, Note_off_c, 1, 47, 100
3, 65568, Note_on_c, 1, 55, 80
3, 65660, Note_off_c, 1, 50, 100
3, 65664, Note_on_c, 1, 47, 80
3, 65756, Note_off_c, 1, 55, 100
3, 65760, Note_on_c, 1, 50, 80
3, 65852, Note_off_c, 1, 47, 100
3, 65856, Note_on_c, 1, 55, 80
3, 65948, Note_off_c, 1, 50, 100
3, 65952, Note_on_c, 1, 59, 80
3, 66044, Note_off_c, 1, 55, 100
3, 66048, Note_on_c, 1, 50, 80
3, 66140, Note_off_c, 1, 59, 100
3, 66144, Note_on_c, 1, 55, 80
3, 66236, Note_off_c, 1, 50, 100
3, 66240, Note_on_c, 1, 59, 80
3, 66332, Note_off_c, 1, 55, 100
3, 66336, Note_on_c, 1, 62, 80
3, 66428, Note_off_c, 1, 59, 100
3, 66432, Note_on_c, 1, 55, 80
3, 66524, Note_off_c, 1, 62, 100
3, 66528, Note_on_c, 1, 59, 80
3, 66620, Note_off_c, 1, 55, 100
3, 66624, Note_on_c, 1, 62, 80
3, 66716, Note_off_c, 1, 59, 100
3, 66720, Note_on_c, 1, 67, 80
3, 66808, Control_c, 1, 64, 0
3, 66812, Note_off_c, 1, 62, 100
3, 66812, Note_off_c, 1, 67, 100
3, 66816, Note_on_c, 1, 55, 80
3, 66912, Note_on_c, 1, 60, 80
3, 67004, Note_off_c, 1, 55, 100
3, 67008, Note_on_c, 1, 67, 80
3, 67100, Note_off_c, 1, 60, 100
3, 67104, Note_on_c, 1, 60, 80
3, 67196, Note_off_c, 1, 67, 100
3, 67200, Note_on_c, 1, 55, 80
3, 67292, Note_off_c, 1, 60, 100
3, 67296, Note_on_c, 1, 63, 80
3, 67388, Note_off_c, 1, 55, 100
3, 67392, Note_on_c, 1, 67, 80
3, 67484, Note_off_c, 1, 63, 100
3, 67488, Note_on_c, 1, 63, 80
3, 67580, Note_off_c, 1, 67, 100
3, 67584, Note_on_c, 1, 55, 80
3, 67676, Note_off_c, 1, 63, 100
3, 67680, Note_on_c, 1, 62, 80
3, 67772, Note_off_c, 1, 55, 100
3, 67776, Note_on_c, 1, 67, 80
3, 67868, Note_off_c, 1, 62, 100
3, 67872, Note_on_c, 1, 62, 80
3, 67964, Note_off_c, 1, 67, 100
3, 67968, Note_on_c, 1, 55, 80
3, 68060, Note_off_c, 1, 62, 100
3, 68064, Note_on_c, 1, 59, 80
3, 68156, Note_off_c, 1, 55, 100
3, 68160, Note_on_c, 1, 67, 80
3, 68252, Note_off_c, 1, 59, 100
3, 68256, Note_on_c, 1, 59, 80
3, 68348, Note_off_c, 1, 67, 100
3, 68348, Note_off_c, 1, 59, 100
3, 68352, Note_on_c, 1, 55, 80
3, 68448, Note_on_c, 1, 60, 80
3, 68540, Note_off_c, 1, 55, 100
3, 68544, Note_on_c, 1, 67, 81
3, 68636, Note_off_c, 1, 60, 100
3, 68640, Note_on_c, 1, 60, 82
3, 68732, Note_off_c, 1, 67, 100
3, 68736, Note_on_c, 1, 55, 83
3, 68828, Note_off_c, 1, 60, 100
3, 68832, Note_on_c, 1, 64, 84
3, 68924, Note_off_c, 1, 55, 100
3, 68928, Note_on_c, 1, 67, 85
3, 69020, Note_off_c, 1, 64, 100
3, 69024, Note_on_c, 1, 64, 86
3, 69116, Note_off_c, 1, 67, 100
3, 69120, Note_on_c, 1, 55, 87
3, 69212, Note_off_c, 1, 64, 100
3, 69216, Note_on_c, 1, 62, 88
3, 69308, Note_off_c, 1, 55, 100
3, 69312, Note_on_c, 1, 67, 89
3, 69404, Note_off_c, 1, 62, 100
3, 69408, Note_on_c, 1, 62, 90
3, 69500, Note_off_c, 1, 67, 100
3, 69504, Note_on_c, 1, 55, 91
3, 69596, Note_off_c, 1, 62, 100
3, 69600, Note_on_c, 1, 59, 92
3, 69692, Note_off_c, 1, 55, 100
3, 69696, Note_on_c, 1, 67, 93
3, 69788, Note_off_c, 1, 59, 100
3, 69792, Note_on_c, 1, 59, 94
3, 69884, Note_off_c, 1, 67, 100
3, 69884, Note_off_c, 1, 59, 100
3, 69888, Note_on_c, 1, 55, 90
3, 69984, Note_on_c, 1, 60, 90
3, 70076, Note_off_c, 1, 55, 100
3, 70080, Note_on_c, 1, 67, 89
3, 70172, Note_off_c, 1, 60, 100
3, 70176, Note_on_c, 1, 60, 88
3, 70268, Note_off_c, 1, 67, 100
3, 70272, Note_on_c, 1, 55, 87
3, 70364, Note_off_c, 1, 60, 100
3, 70368, Note_on_c, 1, 60, 86
3, 70460, Note_off_c, 1, 55, 100
3, 70464, Note_on_c, 1, 63, 85
3, 70556, Note_off_c, 1, 60, 100
3, 70560, Note_on_c, 1, 60, 84
3, 70652, Note_off_c, 1, 63, 100
3, 70656, Note_on_c, 1, 55, 83
3, 70748, Note_off_c, 1, 60, 100
3, 70752, Note_on_c, 1, 59, 82
3, 70844, Note_off_c, 1, 55, 100
3, 70848, Note_on_c, 1, 62, 81
3, 70940, Note_off_c, 1, 59, 100
3, 70944, Note_on_c, 1, 59, 80
3, 71036, Note_off_c, 1, 62, 100
3, 71040, Note_on_c, 1, 55, 79
3, 71132, Note_off_c, 1, 59, 100
3, 71136, Note_on_c, 1, 60, 78
3, 71228, Note_off_c, 1, 55, 100
3, 71232, Note_on_c, 1, 63, 77
3, 71324, Note_off_c, 1, 60, 100
3, 71328, Note_on_c, 1, 60, 76
3, 71420, Note_off_c, 1, 63, 100
3, 71420, Note_off_c, 1, 60, 100
3, 71424, Note_on_c, 1, 55, 80
3, 71520, Note_on_c, 1, 59, 80
3, 71616, Note_on_c, 1, 62, 81
3, 71708, Note_off_c, 1, 55, 100
3, 71712, Note_on_c, 1, 59, 82
3, 71804, Note_off_c, 1, 59, 100
3, 71808, Note_on_c, 1, 55, 83
3, 71900, Note_off_c, 1, 62, 100
3, 71904, Note_on_c, 1, 60, 84
3, 71996, Note_off_c, 1, 59, 100
3, 72000, Note_on_c, 1, 64, 85
3, 72092, Note_off_c, 1, 55, 100
3, 72096, Note_on_c, 1, 60, 86
3, 72188, Note_off_c, 1, 60, 100
3, 72192, Note_on_c, 1, 55, 87
3, 72284, Note_off_c, 1, 64, 100
3, 72288, Note_on_c, 1, 59, 88
3, 72380, Note_off_c, 1, 60, 100
3, 72384, Note_on_c, 1, 62, 89
3, 72476, Note_off_c, 1, 55, 100
3, 72480, Note_on_c, 1, 59, 90
3, 72572, Note_off_c, 1, 59, 100
3, 72576, Note_on_c, 1, 55, 91
3, 72668, Note_off_c, 1, 62, 100
3, 72672, Note_on_c, 1, 57, 92
3, 72764, Note_off_c, 1, 59, 100
3, 72768, Note_on_c, 1, 60, 93
3, 72860, Note_off_c, 1, 55, 100
3, 72864, Note_on_c, 1, 57, 94
3, 72956, Note_off_c, 1, 57, 100
3, 72960, Note_on_c, 1, 55, 95
3, 73052, Note_off_c, 1, 60, 100
3, 73056, Note_on_c, 1, 59, 96
3, 73148, Note_off_c, 1, 57, 100
3, 73152, Note_on_c, 1, 57, 97
3, 73244, Note_off_c, 1, 55, 100
3, 73248, Note_on_c, 1, 55, 98
3, 73340, Note_off_c, 1, 59, 100
3, 73344, Note_on_c, 1, 53, 99
3, 73436, Note_off_c, 1, 57, 100
3, 73440, Note_on_c, 1, 57, 100
3, 73532, Note_off_c, 1, 55, 100
3, 73536, Note_on_c, 1, 55, 101
3, 73628, Note_off_c, 1, 53, 100
3, 73632, Note_on_c, 1, 53, 102
3, 73724, Note_off_c, 1, 57, 100
3, 73728, Note_on_c, 1, 52, 103
3, 73820, Note_off_c, 1, 55, 100
3, 73824, Note_on_c, 1, 55, 104
3, 73916, Note_off_c, 1, 53, 100
3, 73920, Note_on_c, 1, 53, 105
3, 74012, Note_off_c, 1, 52, 100
3, 74016, Note_on_c, 1, 52, 106
3, 74108, Note_off_c, 1, 55, 100
3, 74112, Note_on_c, 1, 50, 107
3, 74204, Note_off_c, 1, 53, 100
3, 74208, Note_on_c, 1, 53, 108
3, 74300, Note_off_c, 1, 52, 100
3, 74304, Note_on_c, 1, 52, 109
3, 74396, Note_off_c, 1, 50, 100
3, 74400, Note_on_c, 1, 50, 110
3, 74492, Note_off_c, 1, 53, 100
3, 74492, Note_off_c, 1, 52, 100
3, 74492, Note_off_c, 1, 50, 100
3, 74496, Control_c, 1, 64, 127
3, 74496, Note_on_c, 1, 48, 120
3, 74496, Note_on_c, 1, 36, 120
3, 74588, Note_off_c, 1, 48, 100
3, 74588, Note_off_c, 1, 36, 100
3, 74592, Note_on_c, 1, 50, 120
3, 74640, Note_on_c, 1, 52, 120
3, 74684, Note_off_c, 1, 50, 100
3, 74688, Note_on_c, 1, 53, 120
3, 74732, Note_off_c, 1, 52, 100
3, 74736, Note_on_c, 1, 55, 120
3, 74780, Note_off_c, 1, 53, 100
3, 74784, Note_on_c, 1, 57, 120
3, 74828, Note_off_c, 1, 55, 100
3, 74832, Note_on_c, 1, 59, 120
3, 74876, Note_off_c, 1, 57, 100
3, 74880, Note_on_c, 1, 60, 120
3, 74924, Note_off_c, 1, 59, 100
3, 74976, Note_on_c, 1, 62, 120
3, 75024, Note_on_c, 1, 64, 120
3, 75068, Note_off_c, 1, 60, 100
3, 75068, Note_off_c, 1, 62, 100
3, 75072, Note_on_c, 1, 65, 120
3, 75116, Note_off_c, 1, 64, 100
3, 75120, Note_on_c, 1, 67, 120
3, 75164, Note_off_c, 1, 65, 100
3, 75168, Note_on_c, 1, 69, 120
3, 75212, Note_off_c, 1, 67, 100
3, 75216, Note_on_c, 1, 71, 120
3, 75260, Note_off_c, 1, 69, 100
3, 75264, Note_on_c, 1, 72, 120
3, 75308, Note_off_c, 1, 71, 100
3, 75360, Note_on_c, 1, 71, 120
3, 75452, Note_off_c, 1, 72, 100
3, 75456, Note_on_c, 1, 69, 120
3, 75548, Note_off_c, 1, 71, 100
3, 75552, Note_on_c, 1, 67, 120
3, 75644, Note_off_c, 1, 69, 100
3, 75648, Note_on_c, 1, 65, 120
3, 75740, Note_off_c, 1, 67, 100
3, 75744, Note_on_c, 1, 64, 120
3, 75836, Note_off_c, 1, 65, 100
3, 75840, Note_on_c, 1, 62, 120
3, 75932, Note_off_c, 1, 64, 100
3, 75936, Note_on_c, 1, 60, 120
3, 76024, Control_c, 1, 64, 0
3, 76028, Note_off_c, 1, 62, 100
3, 76028, Note_off_c, 1, 60, 100
3, 76032, Note_on_c, 1, 59, 120
3, 76124, Note_off_c, 1, 59, 100
3, 76128, Note_on_c, 1, 60, 120
3, 76220, Note_off_c, 1, 60, 100
3, 76224, Note_on_c, 1, 59, 120
3, 76316, Note_off_c, 1, 59, 100
3, 76320, Note_on_c, 1, 57, 120
3, 76412, Note_off_c, 1, 57, 100
3, 76416, Note_on_c, 1, 55, 120
3, 76508, Note_off_c, 1, 55, 100
3, 76512, Note_on_c, 1, 53, 120
3, 76604, Note_off_c, 1, 53, 100
3, 76608, Note_on_c, 1, 52, 120
3, 76700, Note_off_c, 1, 52, 100
3, 76704, Note_on_c, 1, 50, 120
3, 76796, Note_off_c, 1, 50, 100
3, 76800, Note_on_c, 1, 48, 120
3, 76892, Note_off_c, 1, 48, 100
3, 76896, Note_on_c, 1, 48, 120
3, 76988, Note_off_c, 1, 48, 100
3, 76992, Note_on_c, 1, 47, 120
3, 77084, Note_off_c, 1, 47, 100
3, 77088, Note_on_c, 1, 45, 120
3, 77180, Note_off_c, 1, 45, 100
3, 77184, Note_on_c, 1, 43, 120
3, 77276, Note_off_c, 1, 43, 100
3, 77280, Note_on_c, 1, 41, 120
3, 77372, Note_off_c, 1, 41, 100
3, 77376, Note_on_c, 1, 40, 120
3, 77468, Note_off_c, 1, 40, 100
3, 77472, Note_on_c, 1, 38, 120
3, 77564, Note_off_c, 1, 38, 100
3, 77568, Control_c, 1, 64, 127
3, 77568, Note_on_c, 1, 48, 120
3, 77568, Note_on_c, 1, 36, 120
3, 77660, Note_off_c, 1, 48, 100
3, 77660, Note_off_c, 1, 36, 100
3, 77664, Note_on_c, 1, 50, 120
3, 77712, Note_on_c, 1, 52, 120
3, 77756, Note_off_c, 1, 50, 100
3, 77760, Note_on_c, 1, 53, 120
3, 77804, Note_off_c, 1, 52, 100
3, 77808, Note_on_c, 1, 55, 120
3, 77852, Note_off_c, 1, 53, 100
3, 77856, Note_on_c, 1, 57, 120
3, 77900, Note_off_c, 1, 55, 100
3, 77904, Note_on_c, 1, 59, 120
3, 77948, Note_off_c, 1, 57, 100
3, 77952, Note_on_c, 1, 60, 120
3, 77996, Note_off_c, 1, 59, 100
3, 78048, Note_on_c, 1, 62, 120
3, 78096, Note_on_c, 1, 64, 120
3, 78140, Note_off_c, 1, 60, 100
3, 78140, Note_off_c, 1, 62, 100
3, 78144, Note_on_c, 1, 65, 120
3, 78188, Note_off_c, 1, 64, 100
3, 78192, Note_on_c, 1, 67, 120
3, 78236, Note_off_c, 1, 65, 100
3, 78240, Note_on_c, 1, 69, 120
3, 78284, Note_off_c, 1, 67, 100
3, 78288, Note_on_c, 1, 71, 120
3, 78332, Note_off_c, 1, 69, 100
3, 78336, Note_on_c, 1, 72, 120
3, 78380, Note_off_c, 1, 71, 100
3, 78432, Note_on_c, 1, 71, 120
3, 78524, Note_off_c, 1, 72, 100
3, 78528, Note_on_c, 1, 69, 120
3, 78620, Note_off_c, 1, 71, 100
3, 78624, Note_on_c, 1, 67, 120
3, 78716, Note_off_c, 1, 69, 100
3, 78720, Note_on_c, 1, 65, 120
3, 78812, Note_off_c, 1, 67, 100
3, 78816, Note_on_c, 1, 64, 120
3, 78908, Note_off_c, 1, 65, 100
3, 78912, Note_on_c, 1, 62, 120
3, 79004, Note_off_c, 1, 64, 100
3, 79008, Note_on_c, 1, 60, 120
3, 79096, Control_c, 1, 64, 0
3, 79100, Note_off_c, 1, 62, 100
3, 79100, Note_off_c, 1, 60, 100
3, 79104, Note_on_c, 1, 59, 120
3, 79196, Note_off_c, 1, 59, 100
3, 79200, Note_on_c, 1, 60, 120
3, 79292, Note_off_c, 1, 60, 100
3, 79296, Note_on_c, 1, 59, 120
3, 79388, Note_off_c, 1, 59, 100
3, 79392, Note_on_c, 1, 57, 120
3, 79484, Note_off_c, 1, 57, 100
3, 79488, Note_on_c, 1, 55, 120
3, 79580, Note_off_c, 1, 55, 100
3, 79584, Note_on_c, 1, 53, 120
3, 79676, Note_off_c, 1, 53, 100
3, 79680, Note_on_c, 1, 52, 120
3, 79772, Note_off_c, 1, 52, 100
3, 79776, Note_on_c, 1, 50, 120
3, 79868, Note_off_c, 1, 50, 100
3, 79872, Note_on_c, 1, 48, 120
3, 80060, Note_off_c, 1, 48, 100
3, 80064, Note_on_c, 1, 36, 120
3, 80252, Note_off_c, 1, 36, 100
3, 80448, Note_on_c, 1, 48, 110
3, 80448, Note_on_c, 1, 36, 110
3, 80636, Note_off_c, 1, 48, 100
3, 80636, Note_off_c, 1, 36, 100
3, 80832, Note_on_c, 1, 48, 110
3, 80832, Note_on_c, 1, 36, 110
3, 81020, Note_off_c, 1, 48, 100
3, 81020, Note_off_c, 1, 36, 100
3, 81216, Note_on_c, 1, 48, 110
3, 81216, Note_on_c, 1, 36, 110
3, 81404, Note_off_c, 1, 48, 100
3, 81404, Note_off_c, 1, 36, 100
3, 81600, Note_on_c, 1, 48, 110
3, 81600, Note_on_c, 1, 36, 110
3, 81788, Note_off_c, 1, 48, 100
3, 81788, Note_off_c, 1, 36, 100
3, 81984, Note_on_c, 1, 48, 110
3, 81984, Note_on_c, 1, 36, 110
3, 82172, Note_off_c, 1, 48, 100
3, 82172, Note_off_c, 1, 36, 100
3, 82368, Note_on_c, 1, 36, 110
3, 82368, Note_on_c, 1, 48, 110
3, 82556, Note_off_c, 1, 36, 100
3, 82556, Note_off_c, 1, 48, 100
3, 82752, Note_on_c, 1, 48, 110
3, 82752, Note_on_c, 1, 36, 110
3, 82940, Note_off_c, 1, 48, 100
3, 82940, Note_off_c, 1, 36, 100
3, 83136, Note_on_c, 1, 36, 110
3, 83324, Note_off_c, 1, 36, 100
3, 83520, Note_on_c, 1, 52, 110
3, 83520, Note_on_c, 1, 48, 110
3, 83520, Note_on_c, 1, 40, 110
3, 83708, Note_off_c, 1, 52, 100
3, 83708, Note_off_c, 1, 48, 100
3, 83708, Note_off_c, 1, 40, 100
3, 83904, Note_on_c, 1, 53, 110
3, 83904, Note_on_c, 1, 48, 110
3, 83904, Note_on_c, 1, 41, 110
3, 84092, Note_off_c, 1, 53, 100
3, 84092, Note_off_c, 1, 48, 100
3, 84092, Note_off_c, 1, 41, 100
3, 84288, Note_on_c, 1, 52, 110
3, 84288, Note_on_c, 1, 48, 110
3, 84288, Note_on_c, 1, 40, 110
3, 84476, Note_off_c, 1, 52, 100
3, 84476, Note_off_c, 1, 48, 100
3, 84476, Note_off_c, 1, 40, 100
3, 84672, Note_on_c, 1, 48, 110
3, 84672, Note_on_c, 1, 50, 110
3, 84672, Note_on_c, 1, 38, 110
3, 84860, Note_off_c, 1, 48, 100
3, 84860, Note_off_c, 1, 50, 100
3, 84860, Note_off_c, 1, 38, 100
3, 85056, Note_on_c, 1, 51, 110
3, 85056, Note_on_c, 1, 48, 110
3, 85056, Note_on_c, 1, 39, 110
3, 85244, Note_off_c, 1, 51, 100
3, 85244, Note_off_c, 1, 48, 100
3, 85244, Note_off_c, 1, 39, 100
3, 85440, Note_on_c, 1, 52, 110
3, 85440, Note_on_c, 1, 48, 110
3, 85440, Note_on_c, 1, 40, 110
3, 85628, Note_off_c, 1, 52, 100
3, 85628, Note_off_c, 1, 48, 100
3, 85628, Note_off_c, 1, 40, 100
3, 85824, Note_on_c, 1, 50, 110
3, 85824, Note_on_c, 1, 48, 110
3, 85824, Note_on_c, 1, 38, 110
3, 86012, Note_off_c, 1, 50, 100
3, 86012, Note_off_c, 1, 48, 100
3, 86012, Note_off_c, 1, 38, 100
3, 86208, Note_on_c, 1, 48, 110
3, 86208, Note_on_c, 1, 36, 110
3, 86396, Note_off_c, 1, 48, 100
3, 86396, Note_off_c, 1, 36, 100
3, 86400, Note_on_c, 1, 40, 110
3, 86400, Note_on_c, 1, 28, 110
3, 86588, Note_off_c, 1, 40, 100
3, 86588, Note_off_c, 1, 28, 100
3, 86592, Note_on_c, 1, 40, 110
3, 86592, Note_on_c, 1, 28, 110
3, 86780, Note_off_c, 1, 40, 100
3, 86780, Note_off_c, 1, 28, 100
3, 86784, Note_on_c, 1, 45, 110
3, 86784, Note_on_c, 1, 33, 110
3, 86972, Note_off_c, 1, 45, 100
3, 86972, Note_off_c, 1, 33, 100
3, 86976, Note_on_c, 1, 47, 110
3, 86976, Note_on_c, 1, 35, 110
3, 87164, Note_off_c, 1, 47, 100
3, 87164, Note_off_c, 1, 35, 100
3, 87168, Note_on_c, 1, 48, 110
3, 87168, Note_on_c, 1, 36, 110
3, 87356, Note_off_c, 1, 48, 100
3, 87356, Note_off_c, 1, 36, 100
3, 87360, Note_on_c, 1, 50, 110
3, 87360, Note_on_c, 1, 38, 110
3, 87548, Note_off_c, 1, 50, 100
3, 87548, Note_off_c, 1, 38, 100
3, 87552, Note_on_c, 1, 52, 120
3, 87552, Note_on_c, 1, 40, 120
3, 87932, Note_off_c, 1, 52, 100
3, 87932, Note_off_c, 1, 40, 100
3, 87936, Note_on_c, 1, 52, 110
3, 87936, Note_on_c, 1, 40, 110
3, 88124, Note_off_c, 1, 52, 100
3, 88124, Note_off_c, 1, 40, 100
3, 88128, Note_on_c, 1, 50, 110
3, 88128, Note_on_c, 1, 38, 110
3, 88316, Note_off_c, 1, 50, 100
3, 88316, Note_off_c, 1, 38, 100
3, 88320, Note_on_c, 1, 48, 110
3, 88320, Note_on_c, 1, 36, 110
3, 88508, Note_off_c, 1, 48, 100
3, 88508, Note_off_c, 1, 36, 100
3, 88512, Note_on_c, 1, 47, 110
3, 88512, Note_on_c, 1, 35, 110
3, 88700, Note_off_c, 1, 47, 100
3, 88700, Note_off_c, 1, 35, 100
3, 88704, Note_on_c, 1, 48, 110
3, 88704, Note_on_c, 1, 36, 110
3, 88892, Note_off_c, 1, 48, 100
3, 88892, Note_off_c, 1, 36, 100
3, 88896, Note_on_c, 1, 45, 110
3, 88896, Note_on_c, 1, 33, 110
3, 89084, Note_off_c, 1, 45, 100
3, 89084, Note_off_c, 1, 33, 100
3, 89088, Note_on_c, 1, 40, 120
3, 89088, Note_on_c, 1, 24, 120
3, 89468, Note_off_c, 1, 40, 100
3, 89468, Note_off_c, 1, 24, 100
3, 89472, Note_on_c, 1, 52, 110
3, 89472, Note_on_c, 1, 40, 110
3, 89660, Note_off_c, 1, 52, 100
3, 89660, Note_off_c, 1, 40, 100
3, 89664, Note_on_c, 1, 52, 110
3, 89664, Note_on_c, 1, 40, 110
3, 89852, Note_off_c, 1, 52, 100
3, 89852, Note_off_c, 1, 40, 100
3, 89856, Note_on_c, 1, 57, 110
3, 89856, Note_on_c, 1, 45, 110
3, 90044, Note_off_c, 1, 57, 100
3, 90044, Note_off_c, 1, 45, 100
3, 90048, Note_on_c, 1, 59, 110
3, 90048, Note_on_c, 1, 47, 110
3, 90236, Note_off_c, 1, 59, 100
3, 90236, Note_off_c, 1, 47, 100
3, 90240, Note_on_c, 1, 60, 110
3, 90240, Note_on_c, 1, 48, 110
3, 90428, Note_off_c, 1, 60, 100
3, 90428, Note_off_c, 1, 48, 100
3, 90432, Note_on_c, 1, 62, 110
3, 90432, Note_on_c, 1, 50, 110
3, 90620, Note_off_c, 1, 62, 100
3, 90620, Note_off_c, 1, 50, 100
3, 90624, Note_on_c, 1, 64, 120
3, 90624, Note_on_c, 1, 52, 120
3, 91004, Note_off_c, 1, 64, 100
3, 91004, Note_off_c, 1, 52, 100
3, 91008, Note_on_c, 1, 64, 110
3, 91008, Note_on_c, 1, 52, 110
3, 91196, Note_off_c, 1, 64, 100
3, 91196, Note_off_c, 1, 52, 100
3, 91200, Note_on_c, 1, 62, 110
3, 91200, Note_on_c, 1, 50, 110
3, 91388, Note_off_c, 1, 62, 100
3, 91388, Note_off_c, 1, 50, 100
3, 91392, Note_on_c, 1, 60, 110
3, 91392, Note_on_c, 1, 48, 110
3, 91580, Note_off_c, 1, 60, 100
3, 91580, Note_off_c, 1, 48, 100
3, 91584, Note_on_c, 1, 59, 110
3, 91584, Note_on_c, 1, 47, 110
3, 91772, Note_off_c, 1, 59, 100
3, 91772, Note_off_c, 1, 47, 100
3, 91776, Note_on_c, 1, 60, 110
3, 91776, Note_on_c, 1, 48, 110
3, 91964, Note_off_c, 1, 60, 100
3, 91964, Note_off_c, 1, 48, 100
3, 91968, Note_on_c, 1, 57, 110
3, 91968, Note_on_c, 1, 45, 110
3, 92156, Note_off_c, 1, 57, 100
3, 92156, Note_off_c, 1, 45, 100
3, 92160, Note_on_c, 1, 52, 120
3, 92160, Note_on_c, 1, 40, 120
3, 92540, Note_off_c, 1, 52, 100
3, 92540, Note_off_c, 1, 40, 100
3, 92544, Note_on_c, 1, 52, 110
3, 92544, Note_on_c, 1, 45, 110
3, 92544, Note_on_c, 1, 41, 110
3, 92732, Note_off_c, 1, 52, 100
3, 92732, Note_off_c, 1, 45, 100
3, 92732, Note_off_c, 1, 41, 100
3, 92736, Note_on_c, 1, 52, 110
3, 92736, Note_on_c, 1, 45, 110
3, 92736, Note_on_c, 1, 41, 110
3, 92924, Note_off_c, 1, 52, 100
3, 92924, Note_off_c, 1, 45, 100
3, 92924, Note_off_c, 1, 41, 100
3, 92928, Note_on_c, 1, 52, 110
3, 92928, Note_on_c, 1, 45, 110
3, 92928, Note_on_c, 1, 40, 110
3, 93116, Note_off_c, 1, 52, 100
3, 93116, Note_off_c, 1, 45, 100
3, 93116, Note_off_c, 1, 40, 100
3, 93120, Note_on_c, 1, 52, 110
3, 93120, Note_on_c, 1, 45, 110
3, 93120, Note_on_c, 1, 40, 110
3, 93308, Note_off_c, 1, 52, 100
3, 93308, Note_off_c, 1, 45, 100
3, 93308, Note_off_c, 1, 40, 100
3, 93312, Note_on_c, 1, 50, 110
3, 93312, Note_on_c, 1, 45, 110
3, 93312, Note_on_c, 1, 38, 110
3, 93500, Note_off_c, 1, 50, 100
3, 93500, Note_off_c, 1, 45, 100
3, 93500, Note_off_c, 1, 38, 100
3, 93504, Note_on_c, 1, 50, 110
3, 93504, Note_on_c, 1, 45, 110
3, 93504, Note_on_c, 1, 38, 110
3, 93692, Note_off_c, 1, 50, 100
3, 93692, Note_off_c, 1, 45, 100
3, 93692, Note_off_c, 1, 38, 100
3, 93696, Note_on_c, 1, 48, 110
3, 93696, Note_on_c, 1, 45, 110
3, 93696, Note_on_c, 1, 36, 110
3, 93884, Note_off_c, 1, 48, 100
3, 93884, Note_off_c, 1, 45, 100
3, 93884, Note_off_c, 1, 36, 100
3, 93888, Note_on_c, 1, 48, 110
3, 93888, Note_on_c, 1, 45, 110
3, 93888, Note_on_c, 1, 36, 110
3, 94076, Note_off_c, 1, 48, 100
3, 94076, Note_off_c, 1, 45, 100
3, 94076, Note_off_c, 1, 36, 100
3, 94080, Note_on_c, 1, 50, 110
3, 94080, Note_on_c, 1, 45, 110
3, 94080, Note_on_c, 1, 38, 110
3, 94268, Note_off_c, 1, 50, 100
3, 94268, Note_off_c, 1, 45, 100
3, 94268, Note_off_c, 1, 38, 100
3, 94272, Note_on_c, 1, 50, 110
3, 94272, Note_on_c, 1, 45, 110
3, 94272, Note_on_c, 1, 38, 110
3, 94460, Note_off_c, 1, 50, 100
3, 94460, Note_off_c, 1, 45, 100
3, 94460, Note_off_c, 1, 38, 100
3, 94464, Note_on_c, 1, 52, 110
3, 94464, Note_on_c, 1, 40, 110
3, 94464, Note_on_c, 1, 45, 110
3, 94652, Note_off_c, 1, 52, 100
3, 94652, Note_off_c, 1, 40, 100
3, 94652, Note_off_c, 1, 45, 100
3, 94656, Note_on_c, 1, 52, 110
3, 94656, Note_on_c, 1, 40, 110
3, 94844, Note_off_c, 1, 52, 100
3, 94844, Note_off_c, 1, 40, 100
3, 94848, Note_on_c, 1, 52, 110
3, 94848, Note_on_c, 1, 40, 110
3, 95036, Note_off_c, 1, 52, 100
3, 95036, Note_off_c, 1, 40, 100
3, 95040, Note_on_c, 1, 52, 110
3, 95040, Note_on_c, 1, 40, 110
3, 95228, Note_off_c, 1, 52, 100
3, 95228, Note_off_c, 1, 40, 100
3, 95232, Note_on_c, 1, 33, 110
3, 95324, Note_off_c, 1, 33, 100
3, 95328, Note_on_c, 1, 45, 110
3, 95420, Note_off_c, 1, 45, 100
3, 95424, Note_on_c, 1, 44, 110
3, 95516, Note_off_c, 1, 44, 100
3, 95520, Note_on_c, 1, 45, 110
3, 95612, Note_off_c, 1, 45, 100
3, 95616, Note_on_c, 1, 41, 110
3, 95708, Note_off_c, 1, 41, 100
3, 95712, Note_on_c, 1, 45, 110
3, 95804, Note_off_c, 1, 45, 100
3, 95808, Note_on_c, 1, 44, 110
3, 95900, Note_off_c, 1, 44, 100
3, 95904, Note_on_c, 1, 45, 110
3, 95996, Note_off_c, 1, 45, 100
3, 96000, Note_on_c, 1, 40, 110
3, 96092, Note_off_c, 1, 40, 100
3, 96096, Note_on_c, 1, 45, 110
3, 96188, Note_off_c, 1, 45, 100
3, 96192, Note_on_c, 1, 44, 110
3, 96284, Note_off_c, 1, 44, 100
3, 96288, Note_on_c, 1, 45, 110
3, 96380, Note_off_c, 1, 45, 100
3, 96384, Note_on_c, 1, 38, 110
3, 96476, Note_off_c, 1, 38, 100
3, 96480, Note_on_c, 1, 45, 110
3, 96572, Note_off_c, 1, 45, 100
3, 96576, Note_on_c, 1, 44, 110
3, 96668, Note_off_c, 1, 44, 100
3, 96672, Note_on_c, 1, 45, 110
3, 96764, Note_off_c, 1, 45, 100
3, 96768, Note_on_c, 1, 36, 110
3, 96860, Note_off_c, 1, 36, 100
3, 96864, Note_on_c, 1, 45, 110
3, 96956, Note_off_c, 1, 45, 100
3, 96960, Note_on_c, 1, 44, 110
3, 97052, Note_off_c, 1, 44, 100
3, 97056, Note_on_c, 1, 45, 110
3, 97148, Note_off_c, 1, 45, 100
3, 97152, Note_on_c, 1, 38, 110
3, 97244, Note_off_c, 1, 38, 100
3, 97248, Note_on_c, 1, 45, 110
3, 97340, Note_off_c, 1, 45, 100
3, 97344, Note_on_c, 1, 38, 110
3, 97436, Note_off_c, 1, 38, 100
3, 97440, Note_on_c, 1, 45, 110
3, 97532, Note_off_c, 1, 45, 100
3, 97536, Note_on_c, 1, 40, 110
3, 97628, Note_off_c, 1, 40, 100
3, 97632, Note_on_c, 1, 45, 110
3, 97724, Note_off_c, 1, 45, 100
3, 97728, Note_on_c, 1, 40, 110
3, 97820, Note_off_c, 1, 40, 100
3, 97824, Note_on_c, 1, 52, 110
3, 97916, Note_off_c, 1, 52, 100
3, 97920, Note_on_c, 1, 40, 110
3, 98012, Note_off_c, 1, 40, 100
3, 98016, Note_on_c, 1, 52, 110
3, 98108, Note_off_c, 1, 52, 100
3, 98112, Note_on_c, 1, 40, 110
3, 98204, Note_off_c, 1, 40, 100
3, 98208, Note_on_c, 1, 52, 110
3, 98300, Note_off_c, 1, 52, 100
3, 98304, Note_on_c, 1, 45, 110
3, 98396, Note_off_c, 1, 45, 100
3, 98400, Note_on_c, 1, 52, 110
3, 98492, Note_off_c, 1, 52, 100
3, 98496, Note_on_c, 1, 48, 110
3, 98588, Note_off_c, 1, 48, 100
3, 98592, Note_on_c, 1, 52, 110
3, 98684, Note_off_c, 1, 52, 100
3, 98688, Note_on_c, 1, 45, 120
3, 98688, Note_on_c, 1, 47, 120
3, 98780, Note_off_c, 1, 47, 100
3, 98784, Note_on_c, 1, 52, 120
3, 98876, Note_off_c, 1, 45, 100
3, 98876, Note_off_c, 1, 52, 100
3, 98880, Note_on_c, 1, 45, 120
3, 98880, Note_on_c, 1, 50, 120
3, 98972, Note_off_c, 1, 50, 100
3, 98976, Note_on_c, 1, 52, 120
3, 99068, Note_off_c, 1, 45, 100
3, 99068, Note_off_c, 1, 52, 100
3, 99072, Note_on_c, 1, 45, 120
3, 99072, Note_on_c, 1, 48, 120
3, 99164, Note_off_c, 1, 48, 100
3, 99168, Note_on_c, 1, 52, 120
3, 99260, Note_off_c, 1, 45, 100
3, 99260, Note_off_c, 1, 52, 100
3, 99264, Note_on_c, 1, 45, 120
3, 99264, Note_on_c, 1, 48, 120
3, 99356, Note_off_c, 1, 48, 100
3, 99360, Note_on_c, 1, 52, 120
3, 99452, Note_off_c, 1, 45, 100
3, 99452, Note_off_c, 1, 52, 100
3, 99456, Note_on_c, 1, 45, 120
3, 99456, Note_on_c, 1, 47, 120
3, 99548, Note_off_c, 1, 47, 100
3, 99552, Note_on_c, 1, 52, 120
3, 99644, Note_off_c, 1, 45, 100
3, 99644, Note_off_c, 1, 52, 100
3, 99648, Note_on_c, 1, 45, 120
3, 99648, Note_on_c, 1, 50, 120
3, 99740, Note_off_c, 1, 50, 100
3, 99744, Note_on_c, 1, 52, 120
3, 99836, Note_off_c, 1, 45, 100
3, 99836, Note_off_c, 1, 52, 100
3, 99840, Note_on_c, 1, 45, 120
3, 99840, Note_on_c, 1, 48, 120
3, 99932, Note_off_c, 1, 48, 100
3, 99936, Note_on_c, 1, 57, 120
3, 100028, Note_off_c, 1, 45, 100
3, 100028, Note_off_c, 1, 57, 100
3, 100032, Note_on_c, 1, 52, 120
3, 100124, Note_off_c, 1, 52, 100
3, 100128, Note_on_c, 1, 57, 120
3, 100220, Note_off_c, 1, 57, 100
3, 100224, Note_on_c, 1, 45, 80
3, 100224, Note_on_c, 1, 50, 80
3, 100316, Note_off_c, 1, 50, 100
3, 100320, Note_on_c, 1, 56, 80
3, 100412, Note_off_c, 1, 45, 100
3, 100412, Note_off_c, 1, 56, 100
3, 100416, Note_on_c, 1, 52, 80
3, 100508, Note_off_c, 1, 52, 100
3, 100512, Note_on_c, 1, 56, 80
3, 100604, Note_off_c, 1, 56, 100
3, 100608, Note_on_c, 1, 45, 80
3, 100608, Note_on_c, 1, 48, 80
3, 100700, Note_off_c, 1, 48, 100
3, 100704, Note_on_c, 1, 57, 80
3, 100796, Note_off_c, 1, 45, 100
3, 100796, Note_off_c, 1, 57, 100
3, 100800, Note_on_c, 1, 52, 80
3, 100892, Note_off_c, 1, 52, 100
3, 100896, Note_on_c, 1, 57, 80
3, 100988, Note_off_c, 1, 57, 100
3, 100992, Note_on_c, 1, 45, 80
3, 100992, Note_on_c, 1, 50, 80
3, 101084, Note_off_c, 1, 50, 100
3, 101088, Note_on_c, 1, 56, 80
3, 101180, Note_off_c, 1, 45, 100
3, 101180, Note_off_c, 1, 56, 100
3, 101184, Note_on_c, 1, 52, 80
3, 101276, Note_off_c, 1, 52, 100
3, 101280, Note_on_c, 1, 56, 80
3, 101372, Note_off_c, 1, 56, 100
3, 101376, Note_on_c, 1, 45, 80
3, 101376, Note_on_c, 1, 48, 80
3, 101468, Note_off_c, 1, 48, 100
3, 101472, Note_on_c, 1, 57, 80
3, 101564, Note_off_c, 1, 45, 100
3, 101564, Note_off_c, 1, 57, 100
3, 101568, Note_on_c, 1, 52, 80
3, 101660, Note_off_c, 1, 52, 100
3, 101664, Note_on_c, 1, 57, 80
3, 101756, Note_off_c, 1, 57, 100
3, 101760, Note_on_c, 1, 45, 120
3, 101760, Note_on_c, 1, 47, 120
3, 101852, Note_off_c, 1, 47, 100
3, 101856, Note_on_c, 1, 52, 120
3, 101948, Note_off_c, 1, 45, 100
3, 101948, Note_off_c, 1, 52, 100
3, 101952, Note_on_c, 1, 45, 120
3, 101952, Note_on_c, 1, 50, 120
3, 102044, Note_off_c, 1, 50, 100
3, 102048, Note_on_c, 1, 52, 120
3, 102140, Note_off_c, 1, 45, 100
3, 102140, Note_off_c, 1, 52, 100
3, 102144, Note_on_c, 1, 45, 120
3, 102144, Note_on_c, 1, 48, 120
3, 102236, Note_off_c, 1, 48, 100
3, 102240, Note_on_c, 1, 52, 120
3, 102332, Note_off_c, 1, 45, 100
3, 102332, Note_off_c, 1, 52, 100
3, 102336, Note_on_c, 1, 45, 120
3, 102336, Note_on_c, 1, 48, 120
3, 102428, Note_off_c, 1, 48, 100
3, 102432, Note_on_c, 1, 52, 120
3, 102524, Note_off_c, 1, 45, 100
3, 102524, Note_off_c, 1, 52, 100
3, 102528, Note_on_c, 1, 45, 120
3, 102528, Note_on_c, 1, 47, 120
3, 102620, Note_off_c, 1, 47, 100
3, 102624, Note_on_c, 1, 52, 120
3, 102716, Note_off_c, 1, 45, 100
3, 102716, Note_off_c, 1, 52, 100
3, 102720, Note_on_c, 1, 45, 120
3, 102720, Note_on_c, 1, 50, 120
3, 102812, Note_off_c, 1, 50, 100
3, 102816, Note_on_c, 1, 52, 120
3, 102908, Note_off_c, 1, 45, 100
3, 102908, Note_off_c, 1, 52, 100
3, 102912, Note_on_c, 1, 45, 120
3, 102912, Note_on_c, 1, 48, 120
3, 103004, Note_off_c, 1, 48, 100
3, 103008, Note_on_c, 1, 57, 120
3, 103100, Note_off_c, 1, 45, 100
3, 103100, Note_off_c, 1, 57, 100
3, 103104, Note_on_c, 1, 52, 120
3, 103196, Note_off_c, 1, 52, 100
3, 103200, Note_on_c, 1, 57, 120
3, 103292, Note_off_c, 1, 57, 100
3, 103296, Note_on_c, 1, 45, 80
3, 103296, Note_on_c, 1, 50, 80
3, 103388, Note_off_c, 1, 50, 100
3, 103392, Note_on_c, 1, 56, 80
3, 103484, Note_off_c, 1, 45, 100
3, 103484, Note_off_c, 1, 56, 100
3, 103488, Note_on_c, 1, 52, 80
3, 103580, Note_off_c, 1, 52, 100
3, 103584, Note_on_c, 1, 56, 80
3, 103676, Note_off_c, 1, 56, 100
3, 103680, Note_on_c, 1, 45, 80
3, 103680, Note_on_c, 1, 48, 80
3, 103772, Note_off_c, 1, 48, 100
3, 103776, Note_on_c, 1, 57, 80
3, 103868, Note_off_c, 1, 45, 100
3, 103868, Note_off_c, 1, 57, 100
3, 103872, Note_on_c, 1, 52, 80
3, 103964, Note_off_c, 1, 52, 100
3, 103968, Note_on_c, 1, 57, 80
3, 104060, Note_off_c, 1, 57, 100
3, 104064, Note_on_c, 1, 45, 80
3, 104064, Note_on_c, 1, 50, 80
3, 104156, Note_off_c, 1, 50, 100
3, 104160, Note_on_c, 1, 56, 80
3, 104252, Note_off_c, 1, 45, 100
3, 104252, Note_off_c, 1, 56, 100
3, 104256, Note_on_c, 1, 52, 80
3, 104348, Note_off_c, 1, 52, 100
3, 104352, Note_on_c, 1, 56, 80
3, 104444, Note_off_c, 1, 56, 100
3, 104448, Note_on_c, 1, 45, 80
3, 104448, Note_on_c, 1, 48, 80
3, 104540, Note_off_c, 1, 48, 100
3, 104544, Note_on_c, 1, 57, 80
3, 104636, Note_off_c, 1, 45, 100
3, 104636, Note_off_c, 1, 57, 100
3, 104640, Note_on_c, 1, 52, 79
3, 104732, Note_off_c, 1, 52, 100
3, 104736, Note_on_c, 1, 57, 79
3, 104828, Note_off_c, 1, 57, 100
3, 104832, Note_on_c, 1, 45, 78
3, 104832, Note_on_c, 1, 50, 78
3, 104924, Note_off_c, 1, 50, 100
3, 104928, Note_on_c, 1, 56, 77
3, 105020, Note_off_c, 1, 45, 100
3, 105020, Note_off_c, 1, 56, 100
3, 105024, Note_on_c, 1, 52, 77
3, 105116, Note_off_c, 1, 52, 100
3, 105120, Note_on_c, 1, 56, 76
3, 105212, Note_off_c, 1, 56, 100
3, 105216, Note_on_c, 1, 45, 75
3, 105216, Note_on_c, 1, 48, 75
3, 105308, Note_off_c, 1, 48, 100
3, 105312, Note_on_c, 1, 57, 75
3, 105404, Note_off_c, 1, 45, 100
3, 105404, Note_off_c, 1, 57, 100
3, 105408, Note_on_c, 1, 52, 74
3, 105500, Note_off_c, 1, 52, 100
3, 105504, Note_on_c, 1, 57, 73
3, 105596, Note_off_c, 1, 57, 100
3, 105600, Note_on_c, 1, 45, 73
3, 105600, Note_on_c, 1, 50, 73
3, 105692, Note_off_c, 1, 50, 100
3, 105696, Note_on_c, 1, 56, 72
3, 105788, Note_off_c, 1, 45, 100
3, 105788, Note_off_c, 1, 56, 100
3, 105792, Note_on_c, 1, 52, 71
3, 105884, Note_off_c, 1, 52, 100
3, 105888, Note_on_c, 1, 56, 71
3, 105980, Note_off_c, 1, 56, 100
3, 105984, Note_on_c, 1, 45, 70
3, 105984, Note_on_c, 1, 48, 70
3, 106076, Note_off_c, 1, 48, 100
3, 106080, Note_on_c, 1, 57, 70
3, 106172, Note_off_c, 1, 45, 100
3, 106172, Note_off_c, 1, 57, 100
3, 106176, Note_on_c, 1, 52, 70
3, 106268, Note_off_c, 1, 52, 100
3, 106272, Note_on_c, 1, 57, 70
3, 106364, Note_off_c, 1, 57, 100
3, 106368, Note_on_c, 1, 45, 70
3, 106368, Note_on_c, 1, 50, 70
3, 106460, Note_off_c, 1, 50, 100
3, 106464, Note_on_c, 1, 56, 70
3, 106556, Note_off_c, 1, 45, 100
3, 106556, Note_off_c, 1, 56, 100
3, 106560, Note_on_c, 1, 52, 70
3, 106652, Note_off_c, 1, 52, 100
3, 106656, Note_on_c, 1, 56, 70
3, 106748, Note_off_c, 1, 56, 100
3, 106752, Note_on_c, 1, 45, 70
3, 106752, Note_on_c, 1, 48, 70
3, 106844, Note_off_c, 1, 48, 100
3, 106848, Note_on_c, 1, 57, 70
3, 106940, Note_off_c, 1, 45, 100
3, 106940, Note_off_c, 1, 57, 100
3, 106944, Note_on_c, 1, 52, 70
3, 107036, Note_off_c, 1, 52, 100
3, 107040, Note_on_c, 1, 57, 70
3, 107132, Note_off_c, 1, 57, 100
3, 107136, Note_on_c, 1, 45, 70
3, 107136, Note_on_c, 1, 50, 70
3, 107228, Note_off_c, 1, 50, 100
3, 107232, Note_on_c, 1, 56, 70
3, 107324, Note_off_c, 1, 45, 100
3, 107324, Note_off_c, 1, 56, 100
3, 107328, Note_on_c, 1, 52, 70
3, 107420, Note_off_c, 1, 52, 100
3, 107424, Note_on_c, 1, 56, 70
3, 107516, Note_off_c, 1, 56, 100
3, 107520, Control_c, 1, 64, 127
3, 107520, Note_on_c, 1, 57, 110
3, 107520, Note_on_c, 1, 45, 110
3, 107904, Note_on_c, 1, 64, 110
3, 108284, Note_off_c, 1, 57, 100
3, 108284, Note_off_c, 1, 45, 100
3, 108284, Note_off_c, 1, 64, 100
3, 108288, Note_on_c, 1, 64, 110
3, 108864, Note_on_c, 1, 60, 95
3, 109052, Note_off_c, 1, 64, 100
3, 109056, Note_on_c, 1, 59, 80
3, 109244, Note_off_c, 1, 60, 100
3, 109440, Note_on_c, 1, 52, 80
3, 109820, Note_off_c, 1, 59, 100
3, 109824, Note_on_c, 1, 57, 80
3, 110012, Note_off_c, 1, 52, 100
3, 110012, Control_c, 1, 64, 0
3, 110204, Note_off_c, 1, 57, 100
3, 110592, Control_c, 1, 64, 127
3, 110592, Note_on_c, 1, 41, 110
3, 110592, Note_on_c, 1, 29, 110
3, 110976, Note_on_c, 1, 60, 110
3, 111356, Note_off_c, 1, 41, 100
3, 111356, Note_off_c, 1, 29, 100
3, 111356, Note_off_c, 1, 60, 100
3, 111360, Note_on_c, 1, 60, 110
3, 111936, Note_on_c, 1, 57, 98
3, 112124, Note_off_c, 1, 60, 100
3, 112128, Note_on_c, 1, 55, 80
3, 112316, Note_off_c, 1, 57, 100
3, 112512, Note_on_c, 1, 60, 80
3, 112512, Note_on_c, 1, 48, 80
3, 112892, Note_off_c, 1, 55, 100
3, 112896, Note_on_c, 1, 53, 80
3, 113084, Control_c, 1, 64, 0
3, 113276, Note_off_c, 1, 48, 100
3, 113276, Note_off_c, 1, 60, 100
3, 113276, Note_off_c, 1, 53, 100
3, 113664, Control_c, 1, 64, 127
3, 113664, Note_on_c, 1, 43, 120
3, 113664, Note_on_c, 1, 31, 120
3, 114048, Note_on_c, 1, 65, 120
3, 114428, Note_off_c, 1, 43, 100
3, 114428, Note_off_c, 1, 31, 100
3, 114428, Note_off_c, 1, 65, 100
3, 114432, Note_on_c, 1, 65, 120
3, 115008, Note_on_c, 1, 62, 110
3, 115196, Note_off_c, 1, 65, 100
3, 115200, Note_on_c, 1, 59, 105
3, 115388, Note_off_c, 1, 62, 100
3, 115584, Note_on_c, 1, 55, 93
3, 115964, Note_off_c, 1, 59, 100
3, 115968, Note_on_c, 1, 53, 81
3, 116348, Note_off_c, 1, 55, 100
3, 116544, Note_on_c, 1, 50, 80
3, 116732, Note_off_c, 1, 53, 100
3, 116736, Note_on_c, 1, 47, 80
3, 117116, Note_off_c, 1, 50, 100
3, 117120, Note_on_c, 1, 43, 78
3, 117500, Note_off_c, 1, 47, 100
3, 117504, Note_on_c, 1, 41, 76
3, 117884, Note_off_c, 1, 43, 100
3, 118080, Note_on_c, 1, 50, 73
3, 118080, Note_on_c, 1, 38, 73
3, 118268, Note_off_c, 1, 41, 100
3, 118272, Note_on_c, 1, 47, 72
3, 118272, Note_on_c, 1, 35, 72
3, 118652, Note_off_c, 1, 38, 100
3, 118652, Note_off_c, 1, 50, 100
3, 119040, Note_on_c, 1, 43, 70
3, 119040, Note_on_c, 1, 31, 70
3, 119420, Note_off_c, 1, 35, 100
3, 119420, Note_off_c, 1, 47, 100
3, 119420, Note_off_c, 1, 43, 100
3, 119420, Note_off_c, 1, 31, 100
3, 119800, Control_c, 1, 64, 0
3, 119808, Control_c, 1, 64, 127
3, 119808, Note_on_c, 1, 36, 80
3, 120192, Note_on_c, 1, 79, 80
3, 120380, Note_off_c, 1, 36, 100
3, 120572, Note_off_c, 1, 79, 100
3, 120576, Note_on_c, 1, 79, 80
3, 121152, Note_on_c, 1, 76, 80
3, 121340, Note_off_c, 1, 79, 100
3, 121344, Note_on_c, 1, 74, 80
3, 121348, Note_off_c, 1, 76, 64
3, 121728, Note_on_c, 1, 67, 80
3, 122108, Note_off_c, 1, 74, 100
3, 122112, Note_on_c, 1, 72, 80
3, 122492, Note_off_c, 1, 67, 100
3, 122496, Note_on_c, 1, 76, 80
3, 122784, Note_on_c, 1, 48, 80
3, 122876, Note_off_c, 1, 72, 100
3, 122880, Note_on_c, 1, 64, 80
3, 122880, Note_on_c, 1, 36, 80
3, 122972, Note_off_c, 1, 48, 100
3, 123068, Note_off_c, 1, 76, 64
3, 123260, Note_off_c, 1, 64, 100
3, 123264, Note_on_c, 1, 79, 80
3, 123644, Note_off_c, 1, 36, 100
3, 123644, Note_off_c, 1, 79, 100
3, 123648, Note_on_c, 1, 79, 80
3, 124224, Note_on_c, 1, 76, 80
3, 124412, Note_off_c, 1, 79, 100
3, 124412, Note_off_c, 1, 76, 64
3, 124416, Note_on_c, 1, 74, 80
3, 124800, Note_on_c, 1, 67, 80
3, 125180, Note_off_c, 1, 74, 100
3, 125184, Note_on_c, 1, 72, 80
3, 125560, Control_c, 1, 64, 0
3, 125564, Note_off_c, 1, 67, 100
3, 125564, Note_off_c, 1, 72, 100
3, 125856, Note_on_c, 1, 43, 80
3, 125952, Control_c, 1, 64, 127
3, 125952, Note_on_c, 1, 31, 80
3, 126044, Note_off_c, 1, 43, 100
3, 126332, Note_off_c, 1, 31, 100
3, 126336, Note_on_c, 1, 77, 80
3, 126716, Note_off_c, 1, 77, 100
3, 126720, Note_on_c, 1, 77, 80
3, 127296, Note_on_c, 1, 74, 80
3, 127484, Note_off_c, 1, 77, 100
3, 127488, Note_on_c, 1, 76, 80
3, 127676, Note_off_c, 1, 74, 100
3, 127872, Note_on_c, 1, 72, 80
3, 128252, Note_off_c, 1, 76, 64
3, 128256, Note_on_c, 1, 71, 80
3, 128636, Note_off_c, 1, 72, 100
3, 128640, Note_on_c, 1, 74, 80
3, 128728, Control_c, 1, 64, 0
3, 128828, Note_off_c, 1, 71, 100
3, 128828, Note_off_c, 1, 74, 100
3, 128928, Note_on_c, 1, 43, 80
3, 129020, Note_off_c, 1, 43, 100
3, 129024, Control_c, 1, 64, 127
3, 129024, Note_on_c, 1, 31, 80
3, 129408, Note_on_c, 1, 77, 80
3, 129788, Note_off_c, 1, 31, 100
3, 129788, Note_off_c, 1, 77, 100
3, 129792, Note_on_c, 1, 77, 80
3, 130368, Note_on_c, 1, 74, 80
3, 130556, Note_off_c, 1, 77, 100
3, 130560, Note_on_c, 1, 75, 80
3, 130748, Note_off_c, 1, 74, 100
3, 130944, Note_on_c, 1, 72, 80
3, 131324, Note_off_c, 1, 75, 100
3, 131328, Note_on_c, 1, 71, 80
3, 131708, Note_off_c, 1, 72, 100
3, 131712, Note_on_c, 1, 74, 80
3, 131900, Note_off_c, 1, 71, 100
3, 132096, Note_on_c, 1, 76, 80
3, 132412, Note_off_c, 1, 76, 64
3, 132476, Note_off_c, 1, 74, 100
3, 132480, Note_on_c, 1, 72, 80
3, 132864, Note_on_c, 1, 71, 80
3, 133244, Note_off_c, 1, 72, 100
3, 133248, Note_on_c, 1, 74, 80
3, 133436, Note_off_c, 1, 71, 100
3, 133632, Note_on_c, 1, 75, 80
3, 134012, Note_off_c, 1, 74, 100
3, 134016, Note_on_c, 1, 72, 80
3, 134396, Note_off_c, 1, 75, 100
3, 134400, Note_on_c, 1, 79, 80
3, 134780, Note_off_c, 1, 72, 100
3, 134780, Note_off_c, 1, 79, 100
3, 134784, Note_on_c, 1, 79, 80
3, 135164, Note_off_c, 1, 79, 100
3, 135168, Note_on_c, 1, 79, 80
3, 135548, Note_off_c, 1, 79, 100
3, 135552, Note_on_c, 1, 79, 80
3, 135932, Note_off_c, 1, 79, 100
3, 135936, Note_on_c, 1, 79, 80
3, 136316, Note_off_c, 1, 79, 100
3, 136320, Note_on_c, 1, 79, 80
3, 136700, Note_off_c, 1, 79, 100
3, 136704, Note_on_c, 1, 79, 80
3, 136792, Control_c, 1, 64, 0
3, 137084, Note_off_c, 1, 79, 100
3, 142848, Control_c, 1, 64, 127
3, 142848, Note_on_c, 1, 36, 80
3, 142944, Note_on_c, 1, 43, 80
3, 143036, Note_off_c, 1, 36, 100
3, 143040, Note_on_c, 1, 48, 80
3, 143132, Note_off_c, 1, 43, 100
3, 143136, Note_on_c, 1, 52, 80
3, 143228, Note_off_c, 1, 48, 100
3, 143232, Note_on_c, 1, 55, 80
3, 143324, Note_off_c, 1, 52, 100
3, 143328, Note_on_c, 1, 48, 80
3, 143420, Note_off_c, 1, 55, 100
3, 143424, Note_on_c, 1, 52, 80
3, 143516, Note_off_c, 1, 48, 100
3, 143520, Note_on_c, 1, 55, 80
3, 143612, Note_off_c, 1, 52, 100
3, 143616, Note_on_c, 1, 60, 80
3, 143708, Note_off_c, 1, 55, 100
3, 143712, Note_on_c, 1, 52, 80
3, 143804, Note_off_c, 1, 60, 100
3, 143808, Note_on_c, 1, 55, 80
3, 143900, Note_off_c, 1, 52, 100
3, 143904, Note_on_c, 1, 60, 80
3, 143996, Note_off_c, 1, 55, 100
3, 144000, Note_on_c, 1, 64, 80
3, 144092, Note_off_c, 1, 60, 100
3, 144096, Note_on_c, 1, 55, 80
3, 144188, Note_off_c, 1, 64, 100
3, 144192, Note_on_c, 1, 60, 80
3, 144284, Note_off_c, 1, 55, 100
3, 144288, Note_on_c, 1, 64, 80
3, 144380, Note_off_c, 1, 60, 100
3, 144384, Note_on_c, 1, 65, 80
3, 144476, Note_off_c, 1, 64, 100
3, 144480, Note_on_c, 1, 64, 80
3, 144572, Note_off_c, 1, 65, 100
3, 144576, Note_on_c, 1, 62, 80
3, 144668, Note_off_c, 1, 64, 100
3, 144672, Note_on_c, 1, 60, 80
3, 144764, Note_off_c, 1, 62, 100
3, 144768, Note_on_c, 1, 59, 80
3, 144860, Note_off_c, 1, 60, 100
3, 144864, Note_on_c, 1, 57, 80
3, 144956, Note_off_c, 1, 59, 100
3, 144960, Note_on_c, 1, 55, 80
3, 145052, Note_off_c, 1, 57, 100
3, 145056, Note_on_c, 1, 53, 80
3, 145148, Note_off_c, 1, 55, 100
3, 145152, Note_on_c, 1, 52, 80
3, 145244, Note_off_c, 1, 53, 100
3, 145248, Note_on_c, 1, 55, 80
3, 145340, Note_off_c, 1, 52, 100
3, 145344, Note_on_c, 1, 48, 80
3, 145436, Note_off_c, 1, 55, 100
3, 145440, Note_on_c, 1, 52, 80
3, 145532, Note_off_c, 1, 48, 100
3, 145536, Note_on_c, 1, 43, 80
3, 145628, Note_off_c, 1, 52, 100
3, 145632, Note_on_c, 1, 48, 80
3, 145724, Note_off_c, 1, 43, 100
3, 145728, Note_on_c, 1, 40, 80
3, 145820, Note_off_c, 1, 48, 100
3, 145824, Note_on_c, 1, 43, 80
3, 145916, Note_off_c, 1, 40, 100
3, 145920, Note_on_c, 1, 36, 80
3, 146012, Note_off_c, 1, 43, 100
3, 146016, Note_on_c, 1, 43, 80
3, 146108, Note_off_c, 1, 36, 100
3, 146112, Note_on_c, 1, 48, 80
3, 146204, Note_off_c, 1, 43, 100
3, 146208, Note_on_c, 1, 52, 80
3, 146300, Note_off_c, 1, 48, 100
3, 146304, Note_on_c, 1, 55, 80
3, 146396, Note_off_c, 1, 52, 100
3, 146400, Note_on_c, 1, 48, 80
3, 146492, Note_off_c, 1, 55, 100
3, 146496, Note_on_c, 1, 52, 80
3, 146588, Note_off_c, 1, 48, 100
3, 146592, Note_on_c, 1, 55, 80
3, 146684, Note_off_c, 1, 52, 100
3, 146688, Note_on_c, 1, 60, 80
3, 146780, Note_off_c, 1, 55, 100
3, 146784, Note_on_c, 1, 52, 80
3, 146876, Note_off_c, 1, 60, 100
3, 146880, Note_on_c, 1, 55, 80
3, 146972, Note_off_c, 1, 52, 100
3, 146976, Note_on_c, 1, 60, 80
3, 147068, Note_off_c, 1, 55, 100
3, 147072, Note_on_c, 1, 64, 80
3, 147164, Note_off_c, 1, 60, 100
3, 147168, Note_on_c, 1, 55, 80
3, 147260, Note_off_c, 1, 64, 100
3, 147264, Note_on_c, 1, 60, 80
3, 147356, Note_off_c, 1, 55, 100
3, 147360, Note_on_c, 1, 64, 80
3, 147452, Note_off_c, 1, 60, 100
3, 147456, Note_on_c, 1, 65, 80
3, 147548, Note_off_c, 1, 64, 100
3, 147552, Note_on_c, 1, 64, 80
3, 147644, Note_off_c, 1, 65, 100
3, 147648, Note_on_c, 1, 62, 80
3, 147740, Note_off_c, 1, 64, 100
3, 147744, Note_on_c, 1, 60, 80
3, 147836, Note_off_c, 1, 62, 100
3, 147840, Note_on_c, 1, 59, 80
3, 147932, Note_off_c, 1, 60, 100
3, 147936, Note_on_c, 1, 55, 80
3, 148028, Note_off_c, 1, 59, 100
3, 148032, Note_on_c, 1, 57, 80
3, 148124, Note_off_c, 1, 55, 100
3, 148128, Note_on_c, 1, 59, 80
3, 148220, Note_off_c, 1, 57, 100
3, 148224, Note_on_c, 1, 60, 80
3, 148316, Note_off_c, 1, 59, 100
3, 148320, Note_on_c, 1, 59, 80
3, 148412, Note_off_c, 1, 60, 100
3, 148416, Note_on_c, 1, 57, 80
3, 148508, Note_off_c, 1, 59, 100
3, 148512, Note_on_c, 1, 55, 80
3, 148600, Control_c, 1, 64, 0
3, 148604, Note_off_c, 1, 57, 100
3, 148604, Note_off_c, 1, 55, 100
3, 148608, Note_on_c, 1, 53, 80
3, 148700, Note_off_c, 1, 53, 100
3, 148704, Note_on_c, 1, 52, 80
3, 148796, Note_off_c, 1, 52, 100
3, 148800, Note_on_c, 1, 50, 80
3, 148892, Note_off_c, 1, 50, 100
3, 148896, Note_on_c, 1, 48, 80
3, 148988, Note_off_c, 1, 48, 100
3, 148992, Control_c, 1, 64, 127
3, 148992, Note_on_c, 1, 43, 80
3, 149088, Note_on_c, 1, 47, 80
3, 149180, Note_off_c, 1, 43, 100
3, 149184, Note_on_c, 1, 50, 80
3, 149276, Note_off_c, 1, 47, 100
3, 149280, Note_on_c, 1, 55, 80
3, 149372, Note_off_c, 1, 50, 100
3, 149376, Note_on_c, 1, 47, 80
3, 149468, Note_off_c, 1, 55, 100
3, 149472, Note_on_c, 1, 50, 80
3, 149564, Note_off_c, 1, 47, 100
3, 149568, Note_on_c, 1, 55, 80
3, 149660, Note_off_c, 1, 50, 100
3, 149664, Note_on_c, 1, 59, 80
3, 149756, Note_off_c, 1, 55, 100
3, 149760, Note_on_c, 1, 50, 80
3, 149852, Note_off_c, 1, 59, 100
3, 149856, Note_on_c, 1, 55, 80
3, 149948, Note_off_c, 1, 50, 100
3, 149952, Note_on_c, 1, 59, 80
3, 150044, Note_off_c, 1, 55, 100
3, 150048, Note_on_c, 1, 62, 80
3, 150140, Note_off_c, 1, 59, 100
3, 150144, Note_on_c, 1, 55, 80
3, 150236, Note_off_c, 1, 62, 100
3, 150240, Note_on_c, 1, 59, 80
3, 150332, Note_off_c, 1, 55, 100
3, 150336, Note_on_c, 1, 62, 80
3, 150428, Note_off_c, 1, 59, 100
3, 150432, Note_on_c, 1, 67, 80
3, 150520, Control_c, 1, 64, 0
3, 150524, Note_off_c, 1, 62, 100
3, 150524, Note_off_c, 1, 67, 100
3, 150528, Note_on_c, 1, 55, 80
3, 150624, Note_on_c, 1, 60, 80
3, 150716, Note_off_c, 1, 55, 100
3, 150720, Note_on_c, 1, 67, 80
3, 150812, Note_off_c, 1, 60, 100
3, 150816, Note_on_c, 1, 60, 80
3, 150908, Note_off_c, 1, 67, 100
3, 150912, Note_on_c, 1, 55, 80
3, 151004, Note_off_c, 1, 60, 100
3, 151008, Note_on_c, 1, 64, 80
3, 151100, Note_off_c, 1, 55, 100
3, 151104, Note_on_c, 1, 67, 80
3, 151196, Note_off_c, 1, 64, 100
3, 151200, Note_on_c, 1, 64, 80
3, 151292, Note_off_c, 1, 67, 100
3, 151296, Note_on_c, 1, 55, 80
3, 151388, Note_off_c, 1, 64, 100
3, 151392, Note_on_c, 1, 62, 80
3, 151484, Note_off_c, 1, 55, 100
3, 151488, Note_on_c, 1, 67, 80
3, 151580, Note_off_c, 1, 62, 100
3, 151584, Note_on_c, 1, 62, 80
3, 151676, Note_off_c, 1, 67, 100
3, 151680, Note_on_c, 1, 55, 80
3, 151772, Note_off_c, 1, 62, 100
3, 151776, Note_on_c, 1, 59, 80
3, 151868, Note_off_c, 1, 55, 100
3, 151872, Note_on_c, 1, 67, 80
3, 151964, Note_off_c, 1, 59, 100
3, 151968, Note_on_c, 1, 59, 80
3, 152060, Note_off_c, 1, 67, 100
3, 152060, Note_off_c, 1, 59, 100
3, 152064, Control_c, 1, 64, 127
3, 152064, Note_on_c, 1, 43, 80
3, 152160, Note_on_c, 1, 47, 80
3, 152252, Note_off_c, 1, 43, 100
3, 152256, Note_on_c, 1, 50, 80
3, 152348, Note_off_c, 1, 47, 100
3, 152352, Note_on_c, 1, 55, 80
3, 152444, Note_off_c, 1, 50, 100
3, 152448, Note_on_c, 1, 47, 80
3, 152540, Note_off_c, 1, 55, 100
3, 152544, Note_on_c, 1, 50, 80
3, 152636, Note_off_c, 1, 47, 100
3, 152640, Note_on_c, 1, 55, 80
3, 152732, Note_off_c, 1, 50, 100
3, 152736, Note_on_c, 1, 59, 80
3, 152828, Note_off_c, 1, 55, 100
3, 152832, Note_on_c, 1, 50, 80
3, 152924, Note_off_c, 1, 59, 100
3, 152928, Note_on_c, 1, 55, 80
3, 153020, Note_off_c, 1, 50, 100
3, 153024, Note_on_c, 1, 59, 80
3, 153116, Note_off_c, 1, 55, 100
3, 153120, Note_on_c, 1, 62, 80
3, 153212, Note_off_c, 1, 59, 100
3, 153216, Note_on_c, 1, 55, 80
3, 153308, Note_off_c, 1, 62, 100
3, 153312, Note_on_c, 1, 59, 80
3, 153404, Note_off_c, 1, 55, 100
3, 153408, Note_on_c, 1, 62, 80
3, 153500, Note_off_c, 1, 59, 100
3, 153504, Note_on_c, 1, 67, 80
3, 153592, Control_c, 1, 64, 0
3, 153596, Note_off_c, 1, 62, 100
3, 153596, Note_off_c, 1, 67, 100
3, 153600, Note_on_c, 1, 55, 80
3, 153696, Note_on_c, 1, 60, 80
3, 153788, Note_off_c, 1, 55, 100
3, 153792, Note_on_c, 1, 67, 80
3, 153884, Note_off_c, 1, 60, 100
3, 153888, Note_on_c, 1, 60, 80
3, 153980, Note_off_c, 1, 67, 100
3, 153984, Note_on_c, 1, 55, 80
3, 154076, Note_off_c, 1, 60, 100
3, 154080, Note_on_c, 1, 63, 80
3, 154172, Note_off_c, 1, 55, 100
3, 154176, Note_on_c, 1, 67, 80
3, 154268, Note_off_c, 1, 63, 100
3, 154272, Note_on_c, 1, 63, 80
3, 154364, Note_off_c, 1, 67, 100
3, 154368, Note_on_c, 1, 55, 80
3, 154460, Note_off_c, 1, 63, 100
3, 154464, Note_on_c, 1, 62, 80
3, 154556, Note_off_c, 1, 55, 100
3, 154560, Note_on_c, 1, 67, 80
3, 154652, Note_off_c, 1, 62, 100
3, 154656, Note_on_c, 1, 62, 80
3, 154748, Note_off_c, 1, 67, 100
3, 154752, Note_on_c, 1, 55, 80
3, 154844, Note_off_c, 1, 62, 100
3, 154848, Note_on_c, 1, 59, 80
3, 154940, Note_off_c, 1, 55, 100
3, 154944, Note_on_c, 1, 67, 80
3, 155036, Note_off_c, 1, 59, 100
3, 155040, Note_on_c, 1, 59, 80
3, 155132, Note_off_c, 1, 67, 100
3, 155132, Note_off_c, 1, 59, 100
3, 155136, Note_on_c, 1, 55, 80
3, 155232, Note_on_c, 1, 60, 81
3, 155324, Note_off_c, 1, 55, 100
3, 155328, Note_on_c, 1, 67, 82
3, 155420, Note_off_c, 1, 60, 100
3, 155424, Note_on_c, 1, 60, 83
3, 155516, Note_off_c, 1, 67, 100
3, 155520, Note_on_c, 1, 55, 85
3, 155612, Note_off_c, 1, 60, 100
3, 155616, Note_on_c, 1, 64, 86
3, 155708, Note_off_c, 1, 55, 100
3, 155712, Note_on_c, 1, 67, 87
3, 155804, Note_off_c, 1, 64, 100
3, 155808, Note_on_c, 1, 64, 89
3, 155900, Note_off_c, 1, 67, 100
3, 155904, Note_on_c, 1, 55, 90
3, 155996, Note_off_c, 1, 64, 100
3, 156000, Note_on_c, 1, 62, 91
3, 156092, Note_off_c, 1, 55, 100
3, 156096, Note_on_c, 1, 67, 93
3, 156188, Note_off_c, 1, 62, 100
3, 156192, Note_on_c, 1, 62, 94
3, 156284, Note_off_c, 1, 67, 100
3, 156288, Note_on_c, 1, 55, 95
3, 156380, Note_off_c, 1, 62, 100
3, 156384, Note_on_c, 1, 59, 97
3, 156476, Note_off_c, 1, 55, 100
3, 156480, Note_on_c, 1, 67, 98
3, 156572, Note_off_c, 1, 59, 100
3, 156576, Note_on_c, 1, 59, 99
3, 156668, Note_off_c, 1, 67, 100
3, 156668, Note_off_c, 1, 59, 100
3, 156672, Note_on_c, 1, 55, 90
3, 156768, Note_on_c, 1, 60, 89
3, 156860, Note_off_c, 1, 55, 100
3, 156864, Note_on_c, 1, 67, 88
3, 156956, Note_off_c, 1, 60, 100
3, 156960, Note_on_c, 1, 60, 87
3, 157052, Note_off_c, 1, 67, 100
3, 157056, Note_on_c, 1, 55, 85
3, 157148, Note_off_c, 1, 60, 100
3, 157152, Note_on_c, 1, 60, 84
3, 157244, Note_off_c, 1, 55, 100
3, 157248, Note_on_c, 1, 63, 83
3, 157340, Note_off_c, 1, 60, 100
3, 157344, Note_on_c, 1, 60, 81
3, 157436, Note_off_c, 1, 63, 100
3, 157440, Note_on_c, 1, 55, 80
3, 157532, Note_off_c, 1, 60, 100
3, 157536, Note_on_c, 1, 59, 79
3, 157628, Note_off_c, 1, 55, 100
3, 157632, Note_on_c, 1, 62, 77
3, 157724, Note_off_c, 1, 59, 100
3, 157728, Note_on_c, 1, 59, 76
3, 157820, Note_off_c, 1, 62, 100
3, 157824, Note_on_c, 1, 55, 75
3, 157916, Note_off_c, 1, 59, 100
3, 157920, Note_on_c, 1, 60, 73
3, 158012, Note_off_c, 1, 55, 100
3, 158016, Note_on_c, 1, 63, 72
3, 158108, Note_off_c, 1, 60, 100
3, 158112, Note_on_c, 1, 60, 71
3, 158204, Note_off_c, 1, 63, 100
3, 158204, Note_off_c, 1, 60, 100
3, 158208, Note_on_c, 1, 55, 70
3, 158304, Note_on_c, 1, 59, 71
3, 158400, Note_on_c, 1, 62, 72
3, 158492, Note_off_c, 1, 55, 100
3, 158496, Note_on_c, 1, 59, 73
3, 158588, Note_off_c, 1, 59, 100
3, 158592, Note_on_c, 1, 55, 75
3, 158684, Note_off_c, 1, 62, 100
3, 158688, Note_on_c, 1, 60, 76
3, 158780, Note_off_c, 1, 59, 100
3, 158784, Note_on_c, 1, 64, 77
3, 158876, Note_off_c, 1, 55, 100
3, 158880, Note_on_c, 1, 60, 79
3, 158972, Note_off_c, 1, 60, 100
3, 158976, Note_on_c, 1, 55, 80
3, 159068, Note_off_c, 1, 64, 100
3, 159072, Note_on_c, 1, 59, 81
3, 159164, Note_off_c, 1, 60, 100
3, 159168, Note_on_c, 1, 62, 82
3, 159260, Note_off_c, 1, 55, 100
3, 159264, Note_on_c, 1, 59, 84
3, 159356, Note_off_c, 1, 59, 100
3, 159360, Note_on_c, 1, 55, 85
3, 159452, Note_off_c, 1, 62, 100
3, 159456, Note_on_c, 1, 57, 86
3, 159548, Note_off_c, 1, 59, 100
3, 159552, Note_on_c, 1, 60, 88
3, 159644, Note_off_c, 1, 55, 100
3, 159648, Note_on_c, 1, 57, 89
3, 159740, Note_off_c, 1, 57, 100
3, 159744, Note_on_c, 1, 55, 90
3, 159836, Note_off_c, 1, 60, 100
3, 159840, Note_on_c, 1, 59, 91
3, 159932, Note_off_c, 1, 57, 100
3, 159936, Note_on_c, 1, 57, 93
3, 160028, Note_off_c, 1, 55, 100
3, 160032, Note_on_c, 1, 55, 94
3, 160124, Note_off_c, 1, 59, 100
3, 160128, Note_on_c, 1, 53, 95
3, 160220, Note_off_c, 1, 57, 100
3, 160224, Note_on_c, 1, 57, 97
3, 160316, Note_off_c, 1, 55, 100
3, 160320, Note_on_c, 1, 55, 98
3, 160412, Note_off_c, 1, 53, 100
3, 160416, Note_on_c, 1, 53, 99
3, 160508, Note_off_c, 1, 57, 100
3, 160512, Note_on_c, 1, 52, 100
3, 160604, Note_off_c, 1, 55, 100
3, 160608, Note_on_c, 1, 55, 102
3, 160700, Note_off_c, 1, 53, 100
3, 160704, Note_on_c, 1, 53, 103
3, 160796, Note_off_c, 1, 52, 100
3, 160800, Note_on_c, 1, 52, 104
3, 160892, Note_off_c, 1, 55, 100
3, 160896, Note_on_c, 1, 50, 106
3, 160988, Note_off_c, 1, 53, 100
3, 160992, Note_on_c, 1, 53, 107
3, 161084, Note_off_c, 1, 52, 100
3, 161088, Note_on_c, 1, 52, 108
3, 161180, Note_off_c, 1, 50, 100
3, 161184, Note_on_c, 1, 50, 109
3, 161276, Note_off_c, 1, 53, 100
3, 161276, Note_off_c, 1, 52, 100
3, 161276, Note_off_c, 1, 50, 100
3, 161280, Control_c, 1, 64, 127
3, 161280, Note_on_c, 1, 48, 120
3, 161280, Note_on_c, 1, 36, 120
3, 161372, Note_off_c, 1, 48, 100
3, 161372, Note_off_c, 1, 36, 100
3, 161376, Note_on_c, 1, 50, 120
3, 161424, Note_on_c, 1, 52, 120
3, 161468, Note_off_c, 1, 50, 100
3, 161472, Note_on_c, 1, 53, 120
3, 161516, Note_off_c, 1, 52, 100
3, 161520, Note_on_c, 1, 55, 120
3, 161564, Note_off_c, 1, 53, 100
3, 161568, Note_on_c, 1, 57, 120
3, 161612, Note_off_c, 1, 55, 100
3, 161616, Note_on_c, 1, 59, 120
3, 161660, Note_off_c, 1, 57, 100
3, 161664, Note_on_c, 1, 60, 120
3, 161708, Note_off_c, 1, 59, 100
3, 161760, Note_on_c, 1, 62, 120
3, 161808, Note_on_c, 1, 64, 120
3, 161852, Note_off_c, 1, 60, 100
3, 161852, Note_off_c, 1, 62, 100
3, 161856, Note_on_c, 1, 65, 120
3, 161900, Note_off_c, 1, 64, 100
3, 161904, Note_on_c, 1, 67, 120
3, 161948, Note_off_c, 1, 65, 100
3, 161952, Note_on_c, 1, 69, 120
3, 161996, Note_off_c, 1, 67, 100
3, 162000, Note_on_c, 1, 71, 120
3, 162044, Note_off_c, 1, 69, 100
3, 162048, Note_on_c, 1, 72, 120
3, 162092, Note_off_c, 1, 71, 100
3, 162144, Note_on_c, 1, 71, 120
3, 162236, Note_off_c, 1, 72, 100
3, 162240, Note_on_c, 1, 69, 120
3, 162332, Note_off_c, 1, 71, 100
3, 162336, Note_on_c, 1, 67, 120
3, 162428, Note_off_c, 1, 69, 100
3, 162432, Note_on_c, 1, 65, 120
3, 162524, Note_off_c, 1, 67, 100
3, 162528, Note_on_c, 1, 64, 120
3, 162620, Note_off_c, 1, 65, 100
3, 162624, Note_on_c, 1, 62, 120
3, 162716, Note_off_c, 1, 64, 100
3, 162720, Note_on_c, 1, 60, 120
3, 162808, Control_c, 1, 64, 0
3, 162812, Note_off_c, 1, 62, 100
3, 162812, Note_off_c, 1, 60, 100
3, 162816, Note_on_c, 1, 59, 120
3, 162908, Note_off_c, 1, 59, 100
3, 162912, Note_on_c, 1, 60, 120
3, 163004, Note_off_c, 1, 60, 100
3, 163008, Note_on_c, 1, 59, 120
3, 163100, Note_off_c, 1, 59, 100
3, 163104, Note_on_c, 1, 57, 120
3, 163196, Note_off_c, 1, 57, 100
3, 163200, Note_on_c, 1, 55, 120
3, 163292, Note_off_c, 1, 55, 100
3, 163296, Note_on_c, 1, 53, 120
3, 163388, Note_off_c, 1, 53, 100
3, 163392, Note_on_c, 1, 52, 120
3, 163484, Note_off_c, 1, 52, 100
3, 163488, Note_on_c, 1, 50, 120
3, 163580, Note_off_c, 1, 50, 100
3, 163584, Note_on_c, 1, 48, 120
3, 163676, Note_off_c, 1, 48, 100
3, 163680, Note_on_c, 1, 48, 120
3, 163772, Note_off_c, 1, 48, 100
3, 163776, Note_on_c, 1, 47, 120
3, 163868, Note_off_c, 1, 47, 100
3, 163872, Note_on_c, 1, 45, 120
3, 163964, Note_off_c, 1, 45, 100
3, 163968, Note_on_c, 1, 43, 120
3, 164060, Note_off_c, 1, 43, 100
3, 164064, Note_on_c, 1, 41, 120
3, 164156, Note_off_c, 1, 41, 100
3, 164160, Note_on_c, 1, 40, 120
3, 164252, Note_off_c, 1, 40, 100
3, 164256, Note_on_c, 1, 38, 120
3, 164348, Note_off_c, 1, 38, 100
3, 164352, Control_c, 1, 64, 127
3, 164352, Note_on_c, 1, 48, 120
3, 164352, Note_on_c, 1, 36, 120
3, 164444, Note_off_c, 1, 48, 100
3, 164444, Note_off_c, 1, 36, 100
3, 164448, Note_on_c, 1, 50, 120
3, 164496, Note_on_c, 1, 52, 120
3, 164540, Note_off_c, 1, 50, 100
3, 164544, Note_on_c, 1, 53, 120
3, 164588, Note_off_c, 1, 52, 100
3, 164592, Note_on_c, 1, 55, 120
3, 164636, Note_off_c, 1, 53, 100
3, 164640, Note_on_c, 1, 57, 120
3, 164684, Note_off_c, 1, 55, 100
3, 164688, Note_on_c, 1, 59, 120
3, 164732, Note_off_c, 1, 57, 100
3, 164736, Note_on_c, 1, 60, 120
3, 164780, Note_off_c, 1, 59, 100
3, 164832, Note_on_c, 1, 62, 120
3, 164880, Note_on_c, 1, 64, 120
3, 164924, Note_off_c, 1, 60, 100
3, 164924, Note_off_c, 1, 62, 100
3, 164928, Note_on_c, 1, 65, 120
3, 164972, Note_off_c, 1, 64, 100
3, 164976, Note_on_c, 1, 67, 120
3, 165020, Note_off_c, 1, 65, 100
3, 165024, Note_on_c, 1, 69, 120
3, 165068, Note_off_c, 1, 67, 100
3, 165072, Note_on_c, 1, 71, 120
3, 165116, Note_off_c, 1, 69, 100
3, 165120, Note_on_c, 1, 72, 120
3, 165164, Note_off_c, 1, 71, 100
3, 165216, Note_on_c, 1, 71, 120
3, 165308, Note_off_c, 1, 72, 100
3, 165312, Note_on_c, 1, 69, 120
3, 165404, Note_off_c, 1, 71, 100
3, 165408, Note_on_c, 1, 67, 120
3, 165500, Note_off_c, 1, 69, 100
3, 165504, Note_on_c, 1, 65, 120
3, 165596, Note_off_c, 1, 67, 100
3, 165600, Note_on_c, 1, 64, 120
3, 165692, Note_off_c, 1, 65, 100
3, 165696, Note_on_c, 1, 62, 120
3, 165788, Note_off_c, 1, 64, 100
3, 165792, Note_on_c, 1, 60, 120
3, 165880, Control_c, 1, 64, 0
3, 165884, Note_off_c, 1, 62, 100
3, 165884, Note_off_c, 1, 60, 100
3, 165888, Note_on_c, 1, 59, 120
3, 165980, Note_off_c, 1, 59, 100
3, 165984, Note_on_c, 1, 60, 120
3, 166076, Note_off_c, 1, 60, 100
3, 166080, Note_on_c, 1, 59, 120
3, 166172, Note_off_c, 1, 59, 100
3, 166176, Note_on_c, 1, 57, 120
3, 166268, Note_off_c, 1, 57, 100
3, 166272, Note_on_c, 1, 55, 120
3, 166364, Note_off_c, 1, 55, 100
3, 166368, Note_on_c, 1, 53, 120
3, 166460, Note_off_c, 1, 53, 100
3, 166464, Note_on_c, 1, 52, 120
3, 166556, Note_off_c, 1, 52, 100
3, 166560, Note_on_c, 1, 50, 120
3, 166652, Note_off_c, 1, 50, 100
3, 166656, Note_on_c, 1, 48, 120
3, 166844, Note_off_c, 1, 48, 100
3, 166848, Note_on_c, 1, 43, 110
3, 166848, Note_on_c, 1, 31, 110
3, 167036, Note_off_c, 1, 43, 100
3, 167036, Note_off_c, 1, 31, 100
3, 167040, Note_on_c, 1, 51, 110
3, 167040, Note_on_c, 1, 39, 110
3, 167228, Note_off_c, 1, 51, 100
3, 167228, Note_off_c, 1, 39, 100
3, 167232, Note_on_c, 1, 50, 110
3, 167232, Note_on_c, 1, 38, 110
3, 167420, Note_off_c, 1, 50, 100
3, 167420, Note_off_c, 1, 38, 100
3, 167424, Key_signature, -3, "minor"
3, 167424, Note_on_c, 1, 48, 110
3, 167424, Note_on_c, 1, 36, 110
3, 167612, Note_off_c, 1, 48, 100
3, 167612, Note_off_c, 1, 36, 100
3, 167616, Note_on_c, 1, 43, 110
3, 167616, Note_on_c, 1, 31, 110
3, 167804, Note_off_c, 1, 43, 100
3, 167804, Note_off_c, 1, 31, 100
3, 167808, Note_on_c, 1, 45, 110
3, 167808, Note_on_c, 1, 33, 110
3, 167996, Note_off_c, 1, 45, 100
3, 167996, Note_off_c, 1, 33, 100
3, 168000, Note_on_c, 1, 47, 110
3, 168000, Note_on_c, 1, 35, 110
3, 168188, Note_off_c, 1, 47, 100
3, 168188, Note_off_c, 1, 35, 100
3, 168192, Note_on_c, 1, 48, 110
3, 168192, Note_on_c, 1, 36, 110
3, 168380, Note_off_c, 1, 48, 100
3, 168380, Note_off_c, 1, 36, 100
3, 168384, Note_on_c, 1, 48, 110
3, 168384, Note_on_c, 1, 36, 110
3, 168572, Note_off_c, 1, 48, 100
3, 168572, Note_off_c, 1, 36, 100
3, 168576, Note_on_c, 1, 56, 110
3, 168576, Note_on_c, 1, 44, 110
3, 168764, Note_off_c, 1, 56, 100
3, 168764, Note_off_c, 1, 44, 100
3, 168768, Note_on_c, 1, 55, 110
3, 168768, Note_on_c, 1, 43, 110
3, 168956, Note_off_c, 1, 55, 100
3, 168956, Note_off_c, 1, 43, 100
3, 168960, Note_on_c, 1, 53, 110
3, 168960, Note_on_c, 1, 41, 110
3, 169148, Note_off_c, 1, 53, 100
3, 169148, Note_off_c, 1, 41, 100
3, 169152, Note_on_c, 1, 48, 110
3, 169152, Note_on_c, 1, 36, 110
3, 169340, Note_off_c, 1, 48, 100
3, 169340, Note_off_c, 1, 36, 100
3, 169344, Note_on_c, 1, 50, 110
3, 169344, Note_on_c, 1, 38, 110
3, 169532, Note_off_c, 1, 50, 100
3, 169532, Note_off_c, 1, 38, 100
3, 169536, Note_on_c, 1, 52, 110
3, 169536, Note_on_c, 1, 40, 110
3, 169724, Note_off_c, 1, 52, 100
3, 169724, Note_off_c, 1, 40, 100
3, 169728, Note_on_c, 1, 53, 110
3, 169728, Note_on_c, 1, 41, 110
3, 169916, Note_off_c, 1, 53, 100
3, 169916, Note_off_c, 1, 41, 100
3, 169920, Note_on_c, 1, 53, 110
3, 169920, Note_on_c, 1, 41, 110
3, 170108, Note_off_c, 1, 53, 100
3, 170108, Note_off_c, 1, 41, 100
3, 170112, Note_on_c, 1, 61, 110
3, 170112, Note_on_c, 1, 49, 110
3, 170300, Note_off_c, 1, 61, 100
3, 170300, Note_off_c, 1, 49, 100
3, 170304, Note_on_c, 1, 60, 110
3, 170304, Note_on_c, 1, 48, 110
3, 170492, Note_off_c, 1, 60, 100
3, 170492, Note_off_c, 1, 48, 100
3, 170496, Note_on_c, 1, 58, 110
3, 170496, Note_on_c, 1, 46, 110
3, 170684, Note_off_c, 1, 58, 100
3, 170684, Note_off_c, 1, 46, 100
3, 170688, Note_on_c, 1, 56, 110
3, 170688, Note_on_c, 1, 44, 110
3, 170876, Note_off_c, 1, 56, 100
3, 170876, Note_off_c, 1, 44, 100
3, 170880, Note_on_c, 1, 55, 110
3, 170880, Note_on_c, 1, 43, 110
3, 171068, Note_off_c, 1, 55, 100
3, 171068, Note_off_c, 1, 43, 100
3, 171072, Note_on_c, 1, 53, 110
3, 171072, Note_on_c, 1, 41, 110
3, 171260, Note_off_c, 1, 53, 100
3, 171260, Note_off_c, 1, 41, 100
3, 171264, Note_on_c, 1, 51, 110
3, 171264, Note_on_c, 1, 39, 110
3, 171452, Note_off_c, 1, 51, 100
3, 171452, Note_off_c, 1, 39, 100
3, 171456, Note_on_c, 1, 49, 110
3, 171456, Note_on_c, 1, 37, 110
3, 171644, Note_off_c, 1, 49, 100
3, 171644, Note_off_c, 1, 37, 100
3, 171648, Note_on_c, 1, 48, 110
3, 171648, Note_on_c, 1, 36, 110
3, 171836, Note_off_c, 1, 48, 100
3, 171836, Note_off_c, 1, 36, 100
3, 171840, Note_on_c, 1, 46, 110
3, 171840, Note_on_c, 1, 34, 110
3, 172028, Note_off_c, 1, 46, 100
3, 172028, Note_off_c, 1, 34, 100
3, 172032, Note_on_c, 1, 44, 110
3, 172032, Note_on_c, 1, 32, 110
3, 172220, Note_off_c, 1, 44, 100
3, 172220, Note_off_c, 1, 32, 100
3, 172224, Note_on_c, 1, 43, 110
3, 172224, Note_on_c, 1, 31, 110
3, 172412, Note_off_c, 1, 43, 100
3, 172412, Note_off_c, 1, 31, 100
3, 172416, Note_on_c, 1, 41, 110
3, 172416, Note_on_c, 1, 29, 110
3, 172604, Note_off_c, 1, 41, 100
3, 172604, Note_off_c, 1, 29, 100
3, 172608, Note_on_c, 1, 39, 110
3, 172608, Note_on_c, 1, 27, 110
3, 172796, Note_off_c, 1, 39, 100
3, 172796, Note_off_c, 1, 27, 100
3, 172800, Note_on_c, 1, 44, 110
3, 172800, Note_on_c, 1, 32, 110
3, 172988, Note_off_c, 1, 44, 100
3, 172988, Note_off_c, 1, 32, 100
3, 172992, Note_on_c, 1, 34, 110
3, 173056, Note_on_c, 1, 33, 110
3, 173116, Note_off_c, 1, 34, 100
3, 173120, Note_on_c, 1, 34, 110
3, 173176, Note_off_c, 1, 33, 100
3, 173184, Note_on_c, 1, 36, 110
3, 173240, Note_off_c, 1, 34, 100
3, 173248, Note_on_c, 1, 39, 110
3, 173304, Note_off_c, 1, 36, 100
3, 173312, Note_on_c, 1, 41, 110
3, 173368, Note_off_c, 1, 39, 100
3, 173376, Note_on_c, 1, 43, 110
3, 173412, Note_off_c, 1, 41, 100
3, 173440, Note_on_c, 1, 45, 110
3, 173480, Note_off_c, 1, 43, 100
3, 173504, Note_on_c, 1, 47, 110
3, 173556, Note_off_c, 1, 45, 100
3, 173564, Note_off_c, 1, 47, 100
3, 173568, Note_on_c, 1, 48, 110
3, 173632, Note_on_c, 1, 50, 110
3, 173688, Note_off_c, 1, 48, 100
3, 173696, Note_on_c, 1, 51, 110
3, 173740, Note_off_c, 1, 50, 100
3, 173760, Note_on_c, 1, 53, 110
3, 173808, Note_off_c, 1, 51, 100
3, 173824, Note_on_c, 1, 51, 110
3, 173876, Note_off_c, 1, 53, 100
3, 173888, Note_on_c, 1, 50, 110
3, 173944, Note_off_c, 1, 51, 100
3, 173952, Note_on_c, 1, 48, 110
3, 174004, Note_off_c, 1, 50, 100
3, 174016, Note_on_c, 1, 50, 110
3, 174068, Note_off_c, 1, 48, 100
3, 174080, Note_on_c, 1, 51, 110
3, 174128, Note_off_c, 1, 50, 100
3, 174144, Note_on_c, 1, 53, 110
3, 174196, Note_off_c, 1, 51, 100
3, 174208, Note_on_c, 1, 51, 110
3, 174260, Note_off_c, 1, 53, 100
3, 174272, Note_on_c, 1, 50, 110
3, 174316, Note_off_c, 1, 51, 100
3, 174332, Note_off_c, 1, 50, 100
3, 174336, Note_on_c, 1, 48, 110
3, 174520, Note_off_c, 1, 48, 100
3, 174528, Note_on_c, 1, 40, 110
3, 174592, Note_on_c, 1, 38, 110
3, 174644, Note_off_c, 1, 40, 100
3, 174656, Note_on_c, 1, 40, 110
3, 174708, Note_off_c, 1, 38, 100
3, 174720, Note_on_c, 1, 41, 110
3, 174776, Note_off_c, 1, 40, 100
3, 174784, Note_on_c, 1, 44, 110
3, 174836, Note_off_c, 1, 41, 100
3, 174848, Note_on_c, 1, 46, 110
3, 174900, Note_off_c, 1, 44, 100
3, 174912, Note_on_c, 1, 48, 110
3, 174960, Note_off_c, 1, 46, 100
3, 174976, Note_on_c, 1, 50, 110
3, 175032, Note_off_c, 1, 48, 100
3, 175040, Note_on_c, 1, 52, 110
3, 175092, Note_off_c, 1, 50, 100
3, 175100, Note_off_c, 1, 52, 100
3, 175104, Note_on_c, 1, 53, 110
3, 175168, Note_on_c, 1, 55, 110
3, 175220, Note_off_c, 1, 53, 100
3, 175232, Note_on_c, 1, 56, 110
3, 175288, Note_off_c, 1, 55, 100
3, 175296, Note_on_c, 1, 58, 110
3, 175348, Note_off_c, 1, 56, 100
3, 175360, Note_on_c, 1, 56, 110
3, 175416, Note_off_c, 1, 58, 100
3, 175424, Note_on_c, 1, 55, 110
3, 175480, Note_off_c, 1, 56, 100
3, 175488, Note_on_c, 1, 53, 110
3, 175548, Note_off_c, 1, 55, 100
3, 175552, Note_on_c, 1, 55, 110
3, 175608, Note_off_c, 1, 53, 100
3, 175616, Note_on_c, 1, 56, 110
3, 175668, Note_off_c, 1, 55, 100
3, 175680, Note_on_c, 1, 58, 110
3, 175728, Note_off_c, 1, 56, 100
3, 175744, Note_on_c, 1, 56, 110
3, 175796, Note_off_c, 1, 58, 100
3, 175808, Note_on_c, 1, 55, 110
3, 175860, Note_off_c, 1, 56, 100
3, 175868, Note_off_c, 1, 55, 100
3, 175872, Note_on_c, 1, 53, 110
3, 176060, Note_off_c, 1, 53, 100
3, 176064, Note_on_c, 1, 45, 110
3, 176128, Note_on_c, 1, 43, 110
3, 176176, Note_off_c, 1, 45, 100
3, 176192, Note_on_c, 1, 45, 110
3, 176240, Note_off_c, 1, 43, 100
3, 176256, Note_on_c, 1, 46, 110
3, 176312, Note_off_c, 1, 45, 100
3, 176320, Note_on_c, 1, 48, 110
3, 176368, Note_off_c, 1, 46, 100
3, 176384, Note_on_c, 1, 46, 110
3, 176432, Note_off_c, 1, 48, 100
3, 176448, Note_on_c, 1, 45, 110
3, 176492, Note_off_c, 1, 46, 100
3, 176512, Note_on_c, 1, 43, 110
3, 176568, Note_off_c, 1, 45, 100
3, 176576, Note_on_c, 1, 45, 110
3, 176624, Note_off_c, 1, 43, 100
3, 176636, Note_off_c, 1, 45, 100
3, 176640, Note_on_c, 1, 46, 110
3, 176704, Note_on_c, 1, 45, 110
3, 176748, Note_off_c, 1, 46, 100
3, 176768, Note_on_c, 1, 46, 110
3, 176816, Note_off_c, 1, 45, 100
3, 176832, Note_on_c, 1, 48, 110
3, 176880, Note_off_c, 1, 46, 100
3, 176896, Note_on_c, 1, 47, 110
3, 176952, Note_off_c, 1, 48, 100
3, 176960, Note_on_c, 1, 48, 110
3, 177008, Note_off_c, 1, 47, 100
3, 177024, Note_on_c, 1, 49, 110
3, 177076, Note_off_c, 1, 48, 100
3, 177088, Note_on_c, 1, 48, 110
3, 177144, Note_off_c, 1, 49, 100
3, 177152, Note_on_c, 1, 49, 110
3, 177204, Note_off_c, 1, 48, 100
3, 177216, Note_on_c, 1, 50, 110
3, 177264, Note_off_c, 1, 49, 100
3, 177280, Note_on_c, 1, 48, 110
3, 177336, Note_off_c, 1, 50, 100
3, 177344, Note_on_c, 1, 50, 110
3, 177400, Note_off_c, 1, 48, 100
3, 177404, Note_off_c, 1, 50, 100
3, 177408, Note_on_c, 1, 51, 110
3, 177472, Note_on_c, 1, 53, 110
3, 177524, Note_off_c, 1, 51, 100
3, 177536, Note_on_c, 1, 51, 110
3, 177584, Note_off_c, 1, 53, 100
3, 177600, Note_on_c, 1, 49, 110
3, 177656, Note_off_c, 1, 51, 100
3, 177664, Note_on_c, 1, 51, 110
3, 177708, Note_off_c, 1, 49, 100
3, 177728, Note_on_c, 1, 49, 110
3, 177780, Note_off_c, 1, 51, 100
3, 177792, Note_on_c, 1, 48, 110
3, 177848, Note_off_c, 1, 49, 100
3, 177856, Note_on_c, 1, 49, 110
3, 177912, Note_off_c, 1, 48, 100
3, 177920, Note_on_c, 1, 48, 110
3, 177972, Note_off_c, 1, 49, 100
3, 177984, Note_on_c, 1, 46, 110
3, 178032, Note_off_c, 1, 48, 100
3, 178048, Note_on_c, 1, 48, 110
3, 178100, Note_off_c, 1, 46, 100
3, 178112, Note_on_c, 1, 46, 110
3, 178160, Note_off_c, 1, 48, 100
3, 178172, Note_off_c, 1, 46, 100
3, 178176, Note_on_c, 1, 44, 110
3, 178240, Note_on_c, 1, 46, 110
3, 178288, Note_off_c, 1, 44, 100
3, 178304, Note_on_c, 1, 44, 110
3, 178356, Note_off_c, 1, 46, 100
3, 178368, Note_on_c, 1, 43, 110
3, 178416, Note_off_c, 1, 44, 100
3, 178432, Note_on_c, 1, 44, 110
3, 178472, Note_off_c, 1, 43, 100
3, 178496, Note_on_c, 1, 43, 110
3, 178536, Note_off_c, 1, 44, 100
3, 178560, Note_on_c, 1, 41, 110
3, 178616, Note_off_c, 1, 43, 100
3, 178624, Note_on_c, 1, 43, 110
3, 178672, Note_off_c, 1, 41, 100
3, 178688, Note_on_c, 1, 41, 110
3, 178728, Note_off_c, 1, 43, 100
3, 178752, Note_on_c, 1, 39, 110
3, 178796, Note_off_c, 1, 41, 100
3, 178816, Note_on_c, 1, 41, 110
3, 178864, Note_off_c, 1, 39, 100
3, 178880, Note_on_c, 1, 39, 110
3, 178932, Note_off_c, 1, 41, 100
3, 178940, Note_off_c, 1, 39, 100
3, 178944, Note_on_c, 1, 44, 110
3, 179132, Note_off_c, 1, 44, 100
3, 179136, Note_on_c, 1, 51, 110
3, 179136, Note_on_c, 1, 39, 110
3, 179324, Note_off_c, 1, 51, 100
3, 179324, Note_off_c, 1, 39, 100
3, 179328, Note_on_c, 1, 60, 110
3, 179328, Note_on_c, 1, 48, 110
3, 179516, Note_off_c, 1, 60, 100
3, 179516, Note_off_c, 1, 48, 100
3, 179520, Note_on_c, 1, 58, 110
3, 179520, Note_on_c, 1, 46, 110
3, 179708, Note_off_c, 1, 58, 100
3, 179708, Note_off_c, 1, 46, 100
3, 179712, Note_on_c, 1, 56, 110
3, 179712, Note_on_c, 1, 44, 110
3, 179900, Note_off_c, 1, 56, 100
3, 179900, Note_off_c, 1, 44, 100
3, 179904, Note_on_c, 1, 51, 110
3, 179904, Note_on_c, 1, 39, 110
3, 180092, Note_off_c, 1, 51, 100
3, 180092, Note_off_c, 1, 39, 100
3, 180096, Note_on_c, 1, 53, 110
3, 180096, Note_on_c, 1, 41, 110
3, 180284, Note_off_c, 1, 53, 100
3, 180284, Note_off_c, 1, 41, 100
3, 180288, Note_on_c, 1, 55, 110
3, 180288, Note_on_c, 1, 43, 110
3, 180476, Note_off_c, 1, 55, 100
3, 180476, Note_off_c, 1, 43, 100
3, 180480, Note_on_c, 1, 56, 110
3, 180480, Note_on_c, 1, 44, 110
3, 180668, Note_off_c, 1, 56, 100
3, 180668, Note_off_c, 1, 44, 100
3, 180672, Note_on_c, 1, 48, 110
3, 180672, Note_on_c, 1, 36, 110
3, 180860, Note_off_c, 1, 48, 100
3, 180860, Note_off_c, 1, 36, 100
3, 180864, Note_on_c, 1, 56, 110
3, 180864, Note_on_c, 1, 44, 110
3, 181052, Note_off_c, 1, 56, 100
3, 181052, Note_off_c, 1, 44, 100
3, 181056, Note_on_c, 1, 55, 110
3, 181056, Note_on_c, 1, 43, 110
3, 181244, Note_off_c, 1, 55, 100
3, 181244, Note_off_c, 1, 43, 100
3, 181248, Note_on_c, 1, 53, 110
3, 181248, Note_on_c, 1, 41, 110
3, 181436, Note_off_c, 1, 53, 100
3, 181436, Note_off_c, 1, 41, 100
3, 181440, Note_on_c, 1, 48, 110
3, 181440, Note_on_c, 1, 36, 110
3, 181628, Note_off_c, 1, 48, 100
3, 181628, Note_off_c, 1, 36, 100
3, 181632, Note_on_c, 1, 50, 110
3, 181632, Note_on_c, 1, 38, 110
3, 181820, Note_off_c, 1, 50, 100
3, 181820, Note_off_c, 1, 38, 100
3, 181824, Note_on_c, 1, 52, 110
3, 181824, Note_on_c, 1, 40, 110
3, 182012, Note_off_c, 1, 52, 100
3, 182012, Note_off_c, 1, 40, 100
3, 182016, Note_on_c, 1, 53, 110
3, 182016, Note_on_c, 1, 41, 110
3, 182204, Note_off_c, 1, 53, 100
3, 182204, Note_off_c, 1, 41, 100
3, 182208, Note_on_c, 1, 65, 110
3, 182208, Note_on_c, 1, 53, 110
3, 182396, Note_off_c, 1, 65, 100
3, 182396, Note_off_c, 1, 53, 100
3, 182400, Note_on_c, 1, 68, 110
3, 182400, Note_on_c, 1, 56, 110
3, 182588, Note_off_c, 1, 68, 100
3, 182588, Note_off_c, 1, 56, 100
3, 182592, Note_on_c, 1, 55, 110
3, 182592, Note_on_c, 1, 67, 110
3, 182780, Note_off_c, 1, 55, 100
3, 182780, Note_off_c, 1, 67, 100
3, 182784, Note_on_c, 1, 65, 110
3, 182784, Note_on_c, 1, 53, 110
3, 182972, Note_off_c, 1, 65, 100
3, 182972, Note_off_c, 1, 53, 100
3, 182976, Note_on_c, 1, 63, 110
3, 182976, Note_on_c, 1, 51, 110
3, 183164, Note_off_c, 1, 63, 100
3, 183164, Note_off_c, 1, 51, 100
3, 183168, Note_on_c, 1, 62, 110
3, 183168, Note_on_c, 1, 50, 110
3, 183356, Note_off_c, 1, 62, 100
3, 183356, Note_off_c, 1, 50, 100
3, 183360, Note_on_c, 1, 48, 110
3, 183360, Note_on_c, 1, 60, 110
3, 183548, Note_off_c, 1, 48, 100
3, 183548, Note_off_c, 1, 60, 100
3, 183552, Note_on_c, 1, 59, 110
3, 183552, Note_on_c, 1, 47, 110
3, 183932, Note_off_c, 1, 59, 100
3, 183932, Note_off_c, 1, 47, 100
3, 183936, Note_on_c, 1, 55, 110
3, 183936, Note_on_c, 1, 43, 110
3, 184124, Note_off_c, 1, 55, 100
3, 184124, Note_off_c, 1, 43, 100
3, 184128, Note_on_c, 1, 55, 110
3, 184128, Note_on_c, 1, 43, 110
3, 184316, Note_off_c, 1, 55, 100
3, 184316, Note_off_c, 1, 43, 100
3, 184320, Note_on_c, 1, 55, 110
3, 184320, Note_on_c, 1, 43, 110
3, 184508, Note_off_c, 1, 55, 100
3, 184508, Note_off_c, 1, 43, 100
3, 184512, Note_on_c, 1, 55, 110
3, 184512, Note_on_c, 1, 43, 110
3, 184700, Note_off_c, 1, 55, 100
3, 184700, Note_off_c, 1, 43, 100
3, 184704, Note_on_c, 1, 55, 110
3, 184704, Note_on_c, 1, 43, 110
3, 184892, Note_off_c, 1, 55, 100
3, 184892, Note_off_c, 1, 43, 100
3, 184896, Note_on_c, 1, 55, 110
3, 184896, Note_on_c, 1, 43, 110
3, 185084, Note_off_c, 1, 55, 100
3, 185084, Note_off_c, 1, 43, 100
3, 185088, Note_on_c, 1, 60, 110
3, 185088, Note_on_c, 1, 48, 110
3, 185276, Note_off_c, 1, 60, 100
3, 185276, Note_off_c, 1, 48, 100
3, 185280, Note_on_c, 1, 43, 110
3, 185344, Note_on_c, 1, 41, 110
3, 185392, Note_off_c, 1, 43, 100
3, 185408, Note_on_c, 1, 43, 110
3, 185448, Note_off_c, 1, 41, 100
3, 185472, Note_on_c, 1, 44, 110
3, 185508, Note_off_c, 1, 43, 100
3, 185536, Note_on_c, 1, 48, 110
3, 185580, Note_off_c, 1, 44, 100
3, 185600, Note_on_c, 1, 49, 110
3, 185648, Note_off_c, 1, 48, 100
3, 185664, Note_on_c, 1, 51, 110
3, 185700, Note_off_c, 1, 49, 100
3, 185728, Note_on_c, 1, 53, 110
3, 185760, Note_off_c, 1, 51, 100
3, 185792, Note_on_c, 1, 55, 110
3, 185832, Note_off_c, 1, 53, 100
3, 185856, Note_on_c, 1, 56, 110
3, 185892, Note_off_c, 1, 55, 100
3, 185920, Note_on_c, 1, 58, 110
3, 185964, Note_off_c, 1, 56, 100
3, 185984, Note_on_c, 1, 60, 110
3, 186020, Note_off_c, 1, 58, 100
3, 186048, Note_on_c, 1, 61, 110
3, 186100, Note_off_c, 1, 60, 100
3, 186112, Note_on_c, 1, 60, 110
3, 186156, Note_off_c, 1, 61, 100
3, 186176, Note_on_c, 1, 58, 110
3, 186220, Note_off_c, 1, 60, 100
3, 186240, Note_on_c, 1, 56, 110
3, 186288, Note_off_c, 1, 58, 100
3, 186304, Note_on_c, 1, 58, 110
3, 186356, Note_off_c, 1, 56, 100
3, 186368, Note_on_c, 1, 60, 110
3, 186416, Note_off_c, 1, 58, 100
3, 186432, Note_on_c, 1, 61, 110
3, 186480, Note_off_c, 1, 60, 100
3, 186496, Note_on_c, 1, 60, 110
3, 186540, Note_off_c, 1, 61, 100
3, 186560, Note_on_c, 1, 58, 110
3, 186584, Note_off_c, 1, 60, 100
3, 186620, Note_off_c, 1, 58, 100
3, 186624, Note_on_c, 1, 56, 110
3, 186812, Note_off_c, 1, 56, 100
3, 186816, Note_on_c, 1, 40, 110
3, 186880, Note_on_c, 1, 38, 110
3, 186936, Note_off_c, 1, 40, 100
3, 186944, Note_on_c, 1, 40, 110
3, 186988, Note_off_c, 1, 38, 100
3, 187008, Note_on_c, 1, 41, 110
3, 187044, Note_off_c, 1, 40, 100
3, 187072, Note_on_c, 1, 44, 110
3, 187116, Note_off_c, 1, 41, 100
3, 187136, Note_on_c, 1, 46, 110
3, 187168, Note_off_c, 1, 44, 100
3, 187200, Note_on_c, 1, 48, 110
3, 187232, Note_off_c, 1, 46, 100
3, 187264, Note_on_c, 1, 50, 110
3, 187300, Note_off_c, 1, 48, 100
3, 187328, Note_on_c, 1, 52, 110
3, 187372, Note_off_c, 1, 50, 100
3, 187392, Note_on_c, 1, 53, 110
3, 187440, Note_off_c, 1, 52, 100
3, 187456, Note_on_c, 1, 55, 110
3, 187512, Note_off_c, 1, 53, 100
3, 187520, Note_on_c, 1, 56, 110
3, 187568, Note_off_c, 1, 55, 100
3, 187584, Note_on_c, 1, 58, 110
3, 187632, Note_off_c, 1, 56, 100
3, 187648, Note_on_c, 1, 56, 110
3, 187684, Note_off_c, 1, 58, 100
3, 187712, Note_on_c, 1, 55, 110
3, 187756, Note_off_c, 1, 56, 100
3, 187776, Note_on_c, 1, 53, 110
3, 187820, Note_off_c, 1, 55, 100
3, 187840, Note_on_c, 1, 55, 110
3, 187896, Note_off_c, 1, 53, 100
3, 187904, Note_on_c, 1, 56, 110
3, 187944, Note_off_c, 1, 55, 100
3, 187968, Note_on_c, 1, 58, 110
3, 188020, Note_off_c, 1, 56, 100
3, 188032, Note_on_c, 1, 56, 110
3, 188080, Note_off_c, 1, 58, 100
3, 188096, Note_on_c, 1, 55, 110
3, 188140, Note_off_c, 1, 56, 100
3, 188156, Note_off_c, 1, 55, 100
3, 188160, Note_on_c, 1, 53, 110
3, 188316, Note_off_c, 1, 53, 100
3, 188352, Note_on_c, 1, 36, 110
3, 188416, Note_on_c, 1, 38, 110
3, 188468, Note_off_c, 1, 36, 100
3, 188480, Note_on_c, 1, 39, 110
3, 188524, Note_off_c, 1, 38, 100
3, 188544, Note_on_c, 1, 41, 110
3, 188592, Note_off_c, 1, 39, 100
3, 188608, Note_on_c, 1, 39, 110
3, 188656, Note_off_c, 1, 41, 100
3, 188672, Note_on_c, 1, 41, 110
3, 188720, Note_off_c, 1, 39, 100
3, 188736, Note_on_c, 1, 43, 110
3, 188788, Note_off_c, 1, 41, 100
3, 188800, Note_on_c, 1, 41, 110
3, 188848, Note_off_c, 1, 43, 100
3, 188864, Note_on_c, 1, 43, 110
3, 188900, Note_off_c, 1, 41, 100
3, 188924, Note_off_c, 1, 43, 100
3, 188928, Note_on_c, 1, 44, 110
3, 188992, Note_on_c, 1, 46, 110
3, 189048, Note_off_c, 1, 44, 100
3, 189056, Note_on_c, 1, 44, 110
3, 189076, Note_off_c, 1, 46, 100
3, 189120, Note_on_c, 1, 43, 110
3, 189172, Note_off_c, 1, 44, 100
3, 189184, Note_on_c, 1, 44, 110
3, 189224, Note_off_c, 1, 43, 100
3, 189248, Note_on_c, 1, 43, 110
3, 189300, Note_off_c, 1, 44, 100
3, 189312, Note_on_c, 1, 41, 110
3, 189352, Note_off_c, 1, 43, 100
3, 189376, Note_on_c, 1, 43, 110
3, 189424, Note_off_c, 1, 41, 100
3, 189440, Note_on_c, 1, 41, 110
3, 189492, Note_off_c, 1, 43, 100
3, 189504, Note_on_c, 1, 42, 110
3, 189552, Note_off_c, 1, 41, 100
3, 189568, Note_on_c, 1, 43, 110
3, 189616, Note_off_c, 1, 42, 100
3, 189632, Note_on_c, 1, 42, 110
3, 189672, Note_off_c, 1, 43, 100
3, 189692, Note_off_c, 1, 42, 100
3, 189696, Note_on_c, 1, 43, 110
3, 189760, Note_on_c, 1, 44, 110
3, 189800, Note_off_c, 1, 43, 100
3, 189824, Note_on_c, 1, 43, 110
3, 189872, Note_off_c, 1, 44, 100
3, 189888, Note_on_c, 1, 42, 110
3, 189944, Note_off_c, 1, 43, 100
3, 189952, Note_on_c, 1, 43, 110
3, 189992, Note_off_c, 1, 42, 100
3, 190016, Note_on_c, 1, 42, 110
3, 190060, Note_off_c, 1, 43, 100
3, 190080, Note_on_c, 1, 43, 110
3, 190128, Note_off_c, 1, 42, 100
3, 190144, Note_on_c, 1, 44, 110
3, 190200, Note_off_c, 1, 43, 100
3, 190208, Note_on_c, 1, 43, 110
3, 190256, Note_off_c, 1, 44, 100
3, 190272, Note_on_c, 1, 42, 110
3, 190324, Note_off_c, 1, 43, 100
3, 190336, Note_on_c, 1, 43, 110
3, 190380, Note_off_c, 1, 42, 100
3, 190400, Note_on_c, 1, 42, 110
3, 190448, Note_off_c, 1, 43, 100
3, 190460, Note_off_c, 1, 42, 100
3, 190464, Note_on_c, 1, 43, 110
3, 190528, Note_on_c, 1, 44, 110
3, 190584, Note_off_c, 1, 43, 100
3, 190592, Note_on_c, 1, 43, 110
3, 190648, Note_off_c, 1, 44, 100
3, 190656, Note_on_c, 1, 41, 110
3, 190712, Note_off_c, 1, 43, 100
3, 190720, Note_on_c, 1, 43, 110
3, 190768, Note_off_c, 1, 41, 100
3, 190784, Note_on_c, 1, 41, 110
3, 190824, Note_off_c, 1, 43, 100
3, 190848, Note_on_c, 1, 39, 110
3, 190892, Note_off_c, 1, 41, 100
3, 190912, Note_on_c, 1, 41, 110
3, 190956, Note_off_c, 1, 39, 100
3, 190976, Note_on_c, 1, 39, 110
3, 191024, Note_off_c, 1, 41, 100
3, 191040, Note_on_c, 1, 38, 110
3, 191092, Note_off_c, 1, 39, 100
3, 191104, Note_on_c, 1, 39, 110
3, 191148, Note_off_c, 1, 38, 100
3, 191168, Note_on_c, 1, 38, 110
3, 191212, Note_off_c, 1, 39, 100
3, 191228, Note_off_c, 1, 38, 100
3, 191232, Note_on_c, 1, 36, 110
3, 191420, Note_off_c, 1, 36, 100
3, 191424, Note_on_c, 1, 53, 110
3, 191424, Note_on_c, 1, 41, 110
3, 191612, Note_off_c, 1, 53, 100
3, 191612, Note_off_c, 1, 41, 100
3, 191616, Note_on_c, 1, 56, 110
3, 191616, Note_on_c, 1, 44, 110
3, 191804, Note_off_c, 1, 56, 100
3, 191804, Note_off_c, 1, 44, 100
3, 191808, Note_on_c, 1, 43, 110
3, 191808, Note_on_c, 1, 55, 110
3, 191996, Note_off_c, 1, 43, 100
3, 191996, Note_off_c, 1, 55, 100
3, 192000, Note_on_c, 1, 53, 110
3, 192000, Note_on_c, 1, 41, 110
3, 192188, Note_off_c, 1, 53, 100
3, 192188, Note_off_c, 1, 41, 100
3, 192192, Note_on_c, 1, 51, 110
3, 192192, Note_on_c, 1, 39, 110
3, 192380, Note_off_c, 1, 51, 100
3, 192380, Note_off_c, 1, 39, 100
3, 192384, Note_on_c, 1, 50, 110
3, 192384, Note_on_c, 1, 38, 110
3, 192572, Note_off_c, 1, 50, 100
3, 192572, Note_off_c, 1, 38, 100
3, 192576, Note_on_c, 1, 36, 110
3, 192576, Note_on_c, 1, 48, 110
3, 192764, Note_off_c, 1, 36, 100
3, 192764, Note_off_c, 1, 48, 100
3, 192768, Note_on_c, 1, 47, 110
3, 192768, Note_on_c, 1, 35, 110
3, 193148, Note_off_c, 1, 47, 100
3, 193148, Note_off_c, 1, 35, 100
3, 193152, Note_on_c, 1, 43, 110
3, 193152, Note_on_c, 1, 31, 110
3, 193340, Note_off_c, 1, 43, 100
3, 193340, Note_off_c, 1, 31, 100
3, 193344, Note_on_c, 1, 43, 110
3, 193344, Note_on_c, 1, 31, 110
3, 193532, Note_off_c, 1, 43, 100
3, 193532, Note_off_c, 1, 31, 100
3, 193536, Note_on_c, 1, 43, 110
3, 193536, Note_on_c, 1, 31, 110
3, 193724, Note_off_c, 1, 43, 100
3, 193724, Note_off_c, 1, 31, 100
3, 193728, Note_on_c, 1, 43, 110
3, 193728, Note_on_c, 1, 31, 110
3, 193916, Note_off_c, 1, 43, 100
3, 193916, Note_off_c, 1, 31, 100
3, 193920, Note_on_c, 1, 43, 110
3, 193920, Note_on_c, 1, 31, 110
3, 194108, Note_off_c, 1, 43, 100
3, 194108, Note_off_c, 1, 31, 100
3, 194112, Note_on_c, 1, 43, 110
3, 194112, Note_on_c, 1, 31, 110
3, 194300, Note_off_c, 1, 43, 100
3, 194300, Note_off_c, 1, 31, 100
3, 194304, Note_on_c, 1, 48, 110
3, 194304, Note_on_c, 1, 36, 110
3, 194492, Note_off_c, 1, 48, 100
3, 194492, Note_off_c, 1, 36, 100
3, 194688, Note_on_c, 1, 55, 110
3, 194688, Note_on_c, 1, 43, 110
3, 194876, Note_off_c, 1, 55, 100
3, 194876, Note_off_c, 1, 43, 100
3, 194880, Note_on_c, 1, 55, 110
3, 194880, Note_on_c, 1, 43, 110
3, 195068, Note_off_c, 1, 55, 100
3, 195068, Note_off_c, 1, 43, 100
3, 195072, Note_on_c, 1, 55, 110
3, 195072, Note_on_c, 1, 43, 110
3, 195260, Note_off_c, 1, 55, 100
3, 195260, Note_off_c, 1, 43, 100
3, 195264, Note_on_c, 1, 55, 110
3, 195264, Note_on_c, 1, 43, 110
3, 195452, Note_off_c, 1, 55, 100
3, 195452, Note_off_c, 1, 43, 100
3, 195456, Note_on_c, 1, 55, 110
3, 195456, Note_on_c, 1, 43, 110
3, 195644, Note_off_c, 1, 55, 100
3, 195644, Note_off_c, 1, 43, 100
3, 195648, Note_on_c, 1, 55, 110
3, 195648, Note_on_c, 1, 43, 110
3, 195836, Note_off_c, 1, 55, 100
3, 195836, Note_off_c, 1, 43, 100
3, 195840, Note_on_c, 1, 60, 110
3, 195840, Note_on_c, 1, 48, 110
3, 196028, Note_off_c, 1, 60, 100
3, 196028, Note_off_c, 1, 48, 100
3, 196224, Note_on_c, 1, 43, 120
3, 196224, Note_on_c, 1, 31, 120
3, 196412, Note_off_c, 1, 43, 100
3, 196412, Note_off_c, 1, 31, 100
3, 196416, Note_on_c, 1, 43, 120
3, 196416, Note_on_c, 1, 31, 120
3, 196604, Note_off_c, 1, 43, 100
3, 196604, Note_off_c, 1, 31, 100
3, 196608, Note_on_c, 1, 43, 120
3, 196608, Note_on_c, 1, 31, 120
3, 196796, Note_off_c, 1, 43, 100
3, 196796, Note_off_c, 1, 31, 100
3, 196800, Note_on_c, 1, 43, 120
3, 196800, Note_on_c, 1, 31, 120
3, 196988, Note_off_c, 1, 43, 100
3, 196988, Note_off_c, 1, 31, 100
3, 196992, Note_on_c, 1, 43, 120
3, 196992, Note_on_c, 1, 31, 120
3, 197180, Note_off_c, 1, 43, 100
3, 197180, Note_off_c, 1, 31, 100
3, 197184, Note_on_c, 1, 31, 120
3, 197184, Note_on_c, 1, 43, 120
3, 197372, Note_off_c, 1, 31, 100
3, 197372, Note_off_c, 1, 43, 100
3, 197376, Note_on_c, 1, 48, 120
3, 197376, Note_on_c, 1, 36, 120
3, 197564, Note_off_c, 1, 48, 100
3, 197564, Note_off_c, 1, 36, 100
3, 197760, Note_on_c, 1, 43, 120
3, 197760, Note_on_c, 1, 31, 120
3, 197948, Note_off_c, 1, 43, 100
3, 197948, Note_off_c, 1, 31, 100
3, 198144, Note_on_c, 1, 48, 120
3, 198144, Note_on_c, 1, 36, 120
3, 198332, Note_off_c, 1, 48, 100
3, 198332, Note_off_c, 1, 36, 100
3, 198528, Note_on_c, 1, 43, 120
3, 198528, Note_on_c, 1, 31, 120
3, 198716, Note_off_c, 1, 43, 100
3, 198716, Note_off_c, 1, 31, 100
3, 198912, Note_on_c, 1, 48, 120
3, 198912, Note_on_c, 1, 36, 120
3, 199100, Note_off_c, 1, 48, 100
3, 199100, Note_off_c, 1, 36, 100
3, 199296, Note_on_c, 1, 48, 120
3, 199296, Note_on_c, 1, 36, 120
3, 199484, Note_off_c, 1, 48, 100
3, 199484, Note_off_c, 1, 36, 100
3, 199680, Note_on_c, 1, 48, 120
3, 199680, Note_on_c, 1, 36, 120
3, 199868, Note_off_c, 1, 48, 100
3, 199868, Note_off_c, 1, 36, 100
3, 200448, Note_on_c, 1, 48, 80
3, 200448, Note_on_c, 1, 36, 80
3, 200828, Note_off_c, 1, 48, 100
3, 200828, Note_off_c, 1, 36, 100
3, 201216, Note_on_c, 1, 48, 80
3, 201216, Note_on_c, 1, 36, 80
3, 201596, Note_off_c, 1, 48, 100
3, 201596, Note_off_c, 1, 36, 100
3, 201984, Control_c, 1, 64, 127
3, 201984, Note_on_c, 1, 44, 120
3, 201984, Note_on_c, 1, 32, 120
3, 202364, Note_off_c, 1, 44, 100
3, 202364, Note_off_c, 1, 32, 100
3, 202368, Note_on_c, 1, 56, 120
3, 202368, Note_on_c, 1, 51, 120
3, 202368, Note_on_c, 1, 48, 120
3, 202368, Note_on_c, 1, 44, 120
3, 202748, Note_off_c, 1, 56, 100
3, 202748, Note_off_c, 1, 51, 100
3, 202748, Note_off_c, 1, 48, 100
3, 202748, Note_off_c, 1, 44, 100
3, 202752, Note_on_c, 1, 68, 120
3, 202752, Note_on_c, 1, 63, 120
3, 202752, Note_on_c, 1, 60, 120
3, 202752, Note_on_c, 1, 56, 120
3, 203324, Note_off_c, 1, 68, 100
3, 203324, Note_off_c, 1, 63, 100
3, 203324, Note_off_c, 1, 60, 100
3, 203324, Note_off_c, 1, 56, 100
3, 203328, Note_on_c, 1, 68, 95
3, 203328, Note_on_c, 1, 63, 95
3, 203328, Note_on_c, 1, 60, 95
3, 203328, Note_on_c, 1, 56, 95
3, 203512, Control_c, 1, 64, 0
3, 203516, Note_off_c, 1, 68, 100
3, 203516, Note_off_c, 1, 63, 100
3, 203516, Note_off_c, 1, 60, 100
3, 203516, Note_off_c, 1, 56, 100
3, 203520, Note_on_c, 1, 67, 80
3, 203520, Note_on_c, 1, 63, 80
3, 203520, Note_on_c, 1, 61, 80
3, 203520, Note_on_c, 1, 58, 80
3, 203520, Note_on_c, 1, 56, 80
3, 203900, Note_off_c, 1, 67, 100
3, 203900, Note_off_c, 1, 63, 100
3, 203900, Note_off_c, 1, 61, 100
3, 203900, Note_off_c, 1, 58, 100
3, 203900, Note_off_c, 1, 56, 100
3, 203904, Note_on_c, 1, 67, 80
3, 203904, Note_on_c, 1, 63, 80
3, 203904, Note_on_c, 1, 61, 80
3, 203904, Note_on_c, 1, 58, 80
3, 203904, Note_on_c, 1, 56, 80
3, 204284, Note_off_c, 1, 67, 100
3, 204284, Note_off_c, 1, 63, 100
3, 204284, Note_off_c, 1, 61, 100
3, 204284, Note_off_c, 1, 58, 100
3, 204284, Note_off_c, 1, 56, 100
3, 204288, Note_on_c, 1, 68, 80
3, 204288, Note_on_c, 1, 63, 80
3, 204288, Note_on_c, 1, 60, 80
3, 204288, Note_on_c, 1, 56, 80
3, 204668, Note_off_c, 1, 68, 100
3, 204668, Note_off_c, 1, 63, 100
3, 204668, Note_off_c, 1, 60, 100
3, 204668, Note_off_c, 1, 56, 100
3, 205056, Control_c, 1, 64, 127
3, 205056, Note_on_c, 1, 41, 120
3, 205056, Note_on_c, 1, 29, 120
3, 205436, Note_off_c, 1, 41, 100
3, 205436, Note_off_c, 1, 29, 100
3, 205440, Note_on_c, 1, 53, 120
3, 205440, Note_on_c, 1, 48, 120
3, 205440, Note_on_c, 1, 44, 120
3, 205440, Note_on_c, 1, 41, 120
3, 205820, Note_off_c, 1, 53, 100
3, 205820, Note_off_c, 1, 48, 100
3, 205820, Note_off_c, 1, 44, 100
3, 205820, Note_off_c, 1, 41, 100
3, 205824, Note_on_c, 1, 65, 120
3, 205824, Note_on_c, 1, 60, 120
3, 205824, Note_on_c, 1, 56, 120
3, 205824, Note_on_c, 1, 53, 120
3, 206396, Note_off_c, 1, 65, 100
3, 206396, Note_off_c, 1, 60, 100
3, 206396, Note_off_c, 1, 56, 100
3, 206396, Note_off_c, 1, 53, 100
3, 206400, Note_on_c, 1, 65, 95
3, 206400, Note_on_c, 1, 60, 95
3, 206400, Note_on_c, 1, 56, 95
3, 206400, Note_on_c, 1, 53, 95
3, 206584, Control_c, 1, 64, 0
3, 206588, Note_off_c, 1, 65, 100
3, 206588, Note_off_c, 1, 60, 100
3, 206588, Note_off_c, 1, 56, 100
3, 206588, Note_off_c, 1, 53, 100
3, 206592, Note_on_c, 1, 64, 80
3, 206592, Note_on_c, 1, 60, 80
3, 206592, Note_on_c, 1, 58, 80
3, 206592, Note_on_c, 1, 55, 80
3, 206592, Note_on_c, 1, 53, 80
3, 206972, Note_off_c, 1, 64, 100
3, 206972, Note_off_c, 1, 60, 100
3, 206972, Note_off_c, 1, 58, 100
3, 206972, Note_off_c, 1, 55, 100
3, 206972, Note_off_c, 1, 53, 100
3, 206976, Note_on_c, 1, 64, 80
3, 206976, Note_on_c, 1, 60, 80
3, 206976, Note_on_c, 1, 58, 80
3, 206976, Note_on_c, 1, 55, 80
3, 206976, Note_on_c, 1, 53, 80
3, 207356, Note_off_c, 1, 64, 100
3, 207356, Note_off_c, 1, 60, 100
3, 207356, Note_off_c, 1, 58, 100
3, 207356, Note_off_c, 1, 55, 100
3, 207356, Note_off_c, 1, 53, 100
3, 207360, Note_on_c, 1, 65, 80
3, 207360, Note_on_c, 1, 60, 80
3, 207360, Note_on_c, 1, 56, 80
3, 207360, Note_on_c, 1, 53, 80
3, 207740, Note_off_c, 1, 65, 100
3, 207740, Note_off_c, 1, 60, 100
3, 207740, Note_off_c, 1, 56, 100
3, 207740, Note_off_c, 1, 53, 100
3, 208128, Control_c, 1, 64, 127
3, 208128, Note_on_c, 1, 49, 120
3, 208128, Note_on_c, 1, 37, 120
3, 208508, Note_off_c, 1, 49, 100
3, 208508, Note_off_c, 1, 37, 100
3, 208512, Note_on_c, 1, 61, 120
3, 208512, Note_on_c, 1, 56, 120
3, 208512, Note_on_c, 1, 53, 120
3, 208512, Note_on_c, 1, 49, 120
3, 208892, Note_off_c, 1, 61, 100
3, 208892, Note_off_c, 1, 56, 100
3, 208892, Note_off_c, 1, 53, 100
3, 208892, Note_off_c, 1, 49, 100
3, 208896, Note_on_c, 1, 73, 120
3, 208896, Note_on_c, 1, 68, 120
3, 208896, Note_on_c, 1, 65, 120
3, 208896, Note_on_c, 1, 61, 120
3, 209468, Note_off_c, 1, 73, 100
3, 209468, Note_off_c, 1, 68, 100
3, 209468, Note_off_c, 1, 65, 100
3, 209468, Note_off_c, 1, 61, 100
3, 209472, Note_on_c, 1, 73, 100
3, 209472, Note_on_c, 1, 68, 100
3, 209472, Note_on_c, 1, 65, 100
3, 209472, Note_on_c, 1, 61, 100
3, 209656, Control_c, 1, 64, 0
3, 209660, Note_off_c, 1, 73, 100
3, 209660, Note_off_c, 1, 68, 100
3, 209660, Note_off_c, 1, 65, 100
3, 209660, Note_off_c, 1, 61, 100
3, 209664, Note_on_c, 1, 72, 90
3, 209664, Note_on_c, 1, 68, 90
3, 209664, Note_on_c, 1, 66, 90
3, 209664, Note_on_c, 1, 63, 90
3, 209664, Note_on_c, 1, 61, 90
3, 210044, Note_off_c, 1, 72, 100
3, 210044, Note_off_c, 1, 68, 100
3, 210044, Note_off_c, 1, 66, 100
3, 210044, Note_off_c, 1, 63, 100
3, 210044, Note_off_c, 1, 61, 100
3, 210048, Note_on_c, 1, 72, 88
3, 210048, Note_on_c, 1, 68, 88
3, 210048, Note_on_c, 1, 66, 88
3, 210048, Note_on_c, 1, 63, 88
3, 210048, Note_on_c, 1, 61, 88
3, 210428, Note_off_c, 1, 72, 100
3, 210428, Note_off_c, 1, 68, 100
3, 210428, Note_off_c, 1, 66, 100
3, 210428, Note_off_c, 1, 63, 100
3, 210428, Note_off_c, 1, 61, 100
3, 210432, Note_on_c, 1, 73, 85
3, 210432, Note_on_c, 1, 68, 85
3, 210432, Note_on_c, 1, 65, 85
3, 210432, Note_on_c, 1, 61, 85
3, 211004, Note_off_c, 1, 73, 100
3, 211004, Note_off_c, 1, 68, 100
3, 211004, Note_off_c, 1, 65, 100
3, 211004, Note_off_c, 1, 61, 100
3, 211008, Note_on_c, 1, 61, 81
3, 211008, Note_on_c, 1, 56, 81
3, 211008, Note_on_c, 1, 49, 81
3, 211196, Note_off_c, 1, 61, 100
3, 211196, Note_off_c, 1, 56, 100
3, 211196, Note_off_c, 1, 49, 100
3, 211200, Note_on_c, 1, 60, 80
3, 211200, Note_on_c, 1, 56, 80
3, 211200, Note_on_c, 1, 49, 80
3, 211580, Note_off_c, 1, 60, 100
3, 211580, Note_off_c, 1, 56, 100
3, 211580, Note_off_c, 1, 49, 100
3, 211584, Note_on_c, 1, 60, 77
3, 211584, Note_on_c, 1, 56, 77
3, 211584, Note_on_c, 1, 49, 77
3, 211964, Note_off_c, 1, 60, 100
3, 211964, Note_off_c, 1, 56, 100
3, 211964, Note_off_c, 1, 49, 100
3, 211968, Note_on_c, 1, 61, 75
3, 211968, Note_on_c, 1, 56, 75
3, 211968, Note_on_c, 1, 49, 75
3, 212540, Note_off_c, 1, 61, 100
3, 212540, Note_off_c, 1, 56, 100
3, 212540, Note_off_c, 1, 49, 100
3, 212544, Note_on_c, 1, 49, 71
3, 212544, Note_on_c, 1, 44, 71
3, 212544, Note_on_c, 1, 37, 71
3, 212732, Note_off_c, 1, 49, 100
3, 212732, Note_off_c, 1, 44, 100
3, 212732, Note_off_c, 1, 37, 100
3, 212736, Control_c, 1, 64, 127
3, 212736, Note_on_c, 1, 48, 70
3, 212736, Note_on_c, 1, 44, 70
3, 212736, Note_on_c, 1, 37, 70
3, 213116, Note_off_c, 1, 48, 100
3, 213116, Note_off_c, 1, 44, 100
3, 213116, Note_off_c, 1, 37, 100
3, 213120, Note_on_c, 1, 48, 70
3, 213120, Note_on_c, 1, 44, 70
3, 213120, Note_on_c, 1, 37, 70
3, 213500, Note_off_c, 1, 48, 100
3, 213500, Note_off_c, 1, 44, 100
3, 213500, Note_off_c, 1, 37, 100
3, 213504, Note_on_c, 1, 44, 70
3, 213504, Note_on_c, 1, 37, 70
3, 213504, Note_on_c, 1, 49, 70
3, 213884, Note_off_c, 1, 44, 100
3, 213884, Note_off_c, 1, 37, 100
3, 213884, Note_off_c, 1, 49, 100
3, 213888, Note_on_c, 1, 44, 70
3, 213888, Note_on_c, 1, 37, 70
3, 213888, Note_on_c, 1, 49, 70
3, 214268, Note_off_c, 1, 44, 100
3, 214268, Note_off_c, 1, 37, 100
3, 214268, Note_off_c, 1, 49, 100
3, 214272, Note_on_c, 1, 48, 70
3, 214272, Note_on_c, 1, 44, 70
3, 214272, Note_on_c, 1, 37, 70
3, 214652, Note_off_c, 1, 48, 100
3, 214652, Note_off_c, 1, 44, 100
3, 214652, Note_off_c, 1, 37, 100
3, 214656, Note_on_c, 1, 48, 70
3, 214656, Note_on_c, 1, 44, 70
3, 214656, Note_on_c, 1, 37, 70
3, 215036, Note_off_c, 1, 48, 100
3, 215036, Note_off_c, 1, 44, 100
3, 215036, Note_off_c, 1, 37, 100
3, 215040, Note_on_c, 1, 48, 70
3, 215040, Note_on_c, 1, 44, 70
3, 215040, Note_on_c, 1, 37, 70
3, 215420, Note_off_c, 1, 48, 100
3, 215420, Note_off_c, 1, 44, 100
3, 215420, Note_off_c, 1, 37, 100
3, 215424, Note_on_c, 1, 48, 70
3, 215424, Note_on_c, 1, 44, 70
3, 215424, Note_on_c, 1, 37, 70
3, 215800, Control_c, 1, 64, 0
3, 215804, Note_off_c, 1, 48, 100
3, 215804, Note_off_c, 1, 44, 100
3, 215804, Note_off_c, 1, 37, 100
3, 215808, Note_on_c, 1, 49, 70
3, 215808, Note_on_c, 1, 44, 70
3, 215808, Note_on_c, 1, 37, 70
3, 215996, Note_off_c, 1, 49, 100
3, 215996, Note_off_c, 1, 44, 100
3, 215996, Note_off_c, 1, 37, 100
3, 216192, Note_on_c, 1, 49, 70
3, 216572, Note_off_c, 1, 49, 100
3, 216576, Note_on_c, 1, 49, 70
3, 216956, Note_off_c, 1, 49, 100
3, 216960, Note_on_c, 1, 49, 70
3, 217340, Note_off_c, 1, 49, 100
3, 217344, Note_on_c, 1, 44, 70
3, 217724, Note_off_c, 1, 44, 100
3, 217728, Note_on_c, 1, 44, 78
3, 218108, Note_off_c, 1, 44, 100
3, 218112, Note_on_c, 1, 44, 87
3, 218492, Note_off_c, 1, 44, 100
3, 218496, Note_on_c, 1, 44, 95
3, 218876, Note_off_c, 1, 44, 100
3, 218880, Note_on_c, 1, 39, 100
3, 219260, Note_off_c, 1, 39, 100
3, 219264, Note_on_c, 1, 51, 80
3, 219644, Note_off_c, 1, 51, 100
3, 219648, Note_on_c, 1, 51, 80
3, 220028, Note_off_c, 1, 51, 100
3, 220032, Note_on_c, 1, 51, 80
3, 220412, Note_off_c, 1, 51, 100
3, 220416, Note_on_c, 1, 46, 80
3, 220796, Note_off_c, 1, 46, 100
3, 220800, Note_on_c, 1, 46, 85
3, 221180, Note_off_c, 1, 46, 100
3, 221184, Note_on_c, 1, 46, 91
3, 221564, Note_off_c, 1, 46, 100
3, 221568, Note_on_c, 1, 46, 97
3, 221948, Note_off_c, 1, 46, 100
3, 221952, Note_on_c, 1, 41, 100
3, 222332, Note_off_c, 1, 41, 100
3, 222336, Note_on_c, 1, 53, 80
3, 222716, Note_off_c, 1, 53, 100
3, 222720, Note_on_c, 1, 53, 80
3, 223100, Note_off_c, 1, 53, 100
3, 223104, Note_on_c, 1, 53, 80
3, 223484, Note_off_c, 1, 53, 100
3, 223488, Note_on_c, 1, 48, 80
3, 223868, Note_off_c, 1, 48, 100
3, 223872, Note_on_c, 1, 48, 80
3, 224252, Note_off_c, 1, 48, 100
3, 224256, Note_on_c, 1, 53, 80
3, 224636, Note_off_c, 1, 53, 100
3, 224640, Note_on_c, 1, 53, 80
3, 225020, Note_off_c, 1, 53, 100
3, 225024, Control_c, 1, 64, 127
3, 225024, Note_on_c, 1, 36, 70
3, 225408, Note_on_c, 1, 55, 70
3, 225408, Note_on_c, 1, 52, 70
3, 225788, Note_off_c, 1, 36, 100
3, 225788, Note_off_c, 1, 55, 100
3, 225788, Note_off_c, 1, 52, 100
3, 225792, Note_on_c, 1, 55, 70
3, 225792, Note_on_c, 1, 52, 70
3, 226552, Control_c, 1, 64, 0
3, 226556, Note_off_c, 1, 55, 100
3, 226556, Note_off_c, 1, 52, 100
3, 226560, Control_c, 1, 64, 127
3, 226560, Note_on_c, 1, 36, 70
3, 226944, Note_on_c, 1, 56, 70
3, 226944, Note_on_c, 1, 53, 70
3, 227324, Note_off_c, 1, 36, 100
3, 227324, Note_off_c, 1, 56, 100
3, 227324, Note_off_c, 1, 53, 100
3, 227328, Note_on_c, 1, 56, 70
3, 227328, Note_on_c, 1, 53, 70
3, 228088, Control_c, 1, 64, 0
3, 228092, Note_off_c, 1, 56, 100
3, 228092, Note_off_c, 1, 53, 100
3, 228096, Control_c, 1, 64, 127
3, 228096, Note_on_c, 1, 36, 70
3, 228480, Note_on_c, 1, 58, 70
3, 228480, Note_on_c, 1, 55, 70
3, 228860, Note_off_c, 1, 36, 100
3, 228860, Note_off_c, 1, 58, 100
3, 228860, Note_off_c, 1, 55, 100
3, 228864, Note_on_c, 1, 58, 70
3, 228864, Note_on_c, 1, 55, 70
3, 229624, Control_c, 1, 64, 0
3, 229628, Note_off_c, 1, 58, 100
3, 229628, Note_off_c, 1, 55, 100
3, 229632, Control_c, 1, 64, 127
3, 229632, Note_on_c, 1, 41, 70
3, 230016, Note_on_c, 1, 60, 70
3, 230016, Note_on_c, 1, 57, 70
3, 230396, Note_off_c, 1, 41, 100
3, 230396, Note_off_c, 1, 60, 100
3, 230396, Note_off_c, 1, 57, 100
3, 230400, Note_on_c, 1, 60, 70
3, 230400, Note_on_c, 1, 57, 70
3, 231160, Control_c, 1, 64, 0
3, 231164, Note_off_c, 1, 60, 100
3, 231164, Note_off_c, 1, 57, 100
3, 231168, Control_c, 1, 64, 127
3, 231168, Note_on_c, 1, 41, 70
3, 231552, Note_on_c, 1, 58, 70
3, 231552, Note_on_c, 1, 61, 70
3, 231932, Note_off_c, 1, 41, 100
3, 231932, Note_off_c, 1, 58, 100
3, 231932, Note_off_c, 1, 61, 100
3, 231936, Note_on_c, 1, 58, 70
3, 231936, Note_on_c, 1, 61, 70
3, 232696, Control_c, 1, 64, 0
3, 232700, Note_off_c, 1, 58, 100
3, 232700, Note_off_c, 1, 61, 100
3, 232704, Control_c, 1, 64, 127
3, 232704, Note_on_c, 1, 41, 70
3, 233088, Note_on_c, 1, 60, 70
3, 233088, Note_on_c, 1, 63, 70
3, 233468, Note_off_c, 1, 41, 100
3, 233468, Note_off_c, 1, 60, 100
3, 233468, Note_off_c, 1, 63, 100
3, 233472, Note_on_c, 1, 60, 70
3, 233472, Note_on_c, 1, 63, 70
3, 234232, Control_c, 1, 64, 0
3, 234236, Note_off_c, 1, 60, 100
3, 234236, Note_off_c, 1, 63, 100
3, 234240, Control_c, 1, 64, 127
3, 234240, Note_on_c, 1, 46, 70
3, 234624, Note_on_c, 1, 62, 70
3, 234624, Note_on_c, 1, 65, 70
3, 235004, Note_off_c, 1, 46, 100
3, 235004, Note_off_c, 1, 62, 100
3, 235004, Note_off_c, 1, 65, 100
3, 235008, Note_on_c, 1, 62, 70
3, 235008, Note_on_c, 1, 65, 70
3, 235768, Control_c, 1, 64, 0
3, 235772, Note_off_c, 1, 62, 100
3, 235772, Note_off_c, 1, 65, 100
3, 235776, Control_c, 1, 64, 127
3, 235776, Note_on_c, 1, 46, 70
3, 236160, Note_on_c, 1, 63, 70
3, 236160, Note_on_c, 1, 66, 70
3, 236540, Note_off_c, 1, 46, 100
3, 236540, Note_off_c, 1, 63, 100
3, 236540, Note_off_c, 1, 66, 100
3, 236544, Note_on_c, 1, 63, 70
3, 236544, Note_on_c, 1, 66, 70
3, 237304, Control_c, 1, 64, 0
3, 237308, Note_off_c, 1, 63, 100
3, 237308, Note_off_c, 1, 66, 100
3, 237312, Control_c, 1, 64, 127
3, 237312, Note_on_c, 1, 46, 70
3, 237696, Note_on_c, 1, 65, 70
3, 237696, Note_on_c, 1, 68, 70
3, 238076, Note_off_c, 1, 46, 100
3, 238076, Note_off_c, 1, 65, 100
3, 238076, Note_off_c, 1, 68, 100
3, 238080, Note_on_c, 1, 65, 70
3, 238080, Note_on_c, 1, 68, 70
3, 238840, Control_c, 1, 64, 0
3, 238844, Note_off_c, 1, 65, 100
3, 238844, Note_off_c, 1, 68, 100
3, 238848, Control_c, 1, 64, 127
3, 238848, Note_on_c, 1, 51, 70
3, 239232, Note_on_c, 1, 58, 70
3, 239232, Note_on_c, 1, 63, 70
3, 239232, Note_on_c, 1, 66, 70
3, 239612, Note_off_c, 1, 51, 100
3, 239612, Note_off_c, 1, 58, 100
3, 239612, Note_off_c, 1, 63, 100
3, 239612, Note_off_c, 1, 66, 100
3, 239616, Note_on_c, 1, 58, 70
3, 239616, Note_on_c, 1, 63, 70
3, 239616, Note_on_c, 1, 66, 70
3, 240376, Control_c, 1, 64, 0
3, 240380, Note_off_c, 1, 58, 100
3, 240380, Note_off_c, 1, 63, 100
3, 240380, Note_off_c, 1, 66, 100
3, 240384, Control_c, 1, 64, 127
3, 240384, Note_on_c, 1, 48, 70
3, 240768, Note_on_c, 1, 66, 70
3, 240768, Note_on_c, 1, 63, 70
3, 240768, Note_on_c, 1, 56, 70
3, 241148, Note_off_c, 1, 48, 100
3, 241148, Note_off_c, 1, 66, 100
3, 241148, Note_off_c, 1, 63, 100
3, 241148, Note_off_c, 1, 56, 100
3, 241152, Note_on_c, 1, 66, 70
3, 241152, Note_on_c, 1, 63, 70
3, 241152, Note_on_c, 1, 56, 70
3, 241912, Control_c, 1, 64, 0
3, 241916, Note_off_c, 1, 66, 100
3, 241916, Note_off_c, 1, 63, 100
3, 241916, Note_off_c, 1, 56, 100
3, 241920, Control_c, 1, 64, 127
3, 241920, Note_on_c, 1, 49, 70
3, 242300, Note_off_c, 1, 49, 100
3, 242304, Note_on_c, 1, 65, 70
3, 242304, Note_on_c, 1, 61, 70
3, 242304, Note_on_c, 1, 56, 70
3, 242684, Note_off_c, 1, 65, 100
3, 242684, Note_off_c, 1, 61, 100
3, 242684, Note_off_c, 1, 56, 100
3, 242688, Note_on_c, 1, 65, 70
3, 242688, Note_on_c, 1, 61, 70
3, 242688, Note_on_c, 1, 56, 70
3, 243448, Control_c, 1, 64, 0
3, 243452, Note_off_c, 1, 65, 100
3, 243452, Note_off_c, 1, 61, 100
3, 243452, Note_off_c, 1, 56, 100
3, 243456, Control_c, 1, 64, 127
3, 243456, Note_on_c, 1, 47, 70
3, 243836, Note_off_c, 1, 47, 100
3, 243840, Note_on_c, 1, 55, 70
3, 243840, Note_on_c, 1, 62, 70
3, 243840, Note_on_c, 1, 65, 70
3, 244220, Note_off_c, 1, 55, 100
3, 244220, Note_off_c, 1, 62, 100
3, 244220, Note_off_c, 1, 65, 100
3, 244224, Note_on_c, 1, 55, 70
3, 244224, Note_on_c, 1, 62, 70
3, 244224, Note_on_c, 1, 65, 70
3, 244984, Control_c, 1, 64, 0
3, 244988, Note_off_c, 1, 55, 100
3, 244988, Note_off_c, 1, 62, 100
3, 244988, Note_off_c, 1, 65, 100
3, 244992, Control_c, 1, 64, 127
3, 244992, Note_on_c, 1, 48, 70
3, 245372, Note_off_c, 1, 48, 100
3, 245376, Note_on_c, 1, 55, 70
3, 245376, Note_on_c, 1, 60, 70
3, 245376, Note_on_c, 1, 63, 70
3, 245756, Note_off_c, 1, 55, 100
3, 245756, Note_off_c, 1, 60, 100
3, 245756, Note_off_c, 1, 63, 100
3, 245760, Note_on_c, 1, 55, 70
3, 245760, Note_on_c, 1, 60, 70
3, 245760, Note_on_c, 1, 63, 70
3, 246140, Note_off_c, 1, 55, 100
3, 246140, Note_off_c, 1, 60, 100
3, 246140, Note_off_c, 1, 63, 100
3, 246144, Note_on_c, 1, 48, 70
3, 246520, Control_c, 1, 64, 0
3, 246524, Note_off_c, 1, 48, 100
3, 246528, Control_c, 1, 64, 127
3, 246528, Note_on_c, 1, 43, 70
3, 246908, Note_off_c, 1, 43, 100
3, 246912, Note_on_c, 1, 55, 70
3, 246912, Note_on_c, 1, 59, 70
3, 246912, Note_on_c, 1, 62, 70
3, 247288, Control_c, 1, 64, 0
3, 247292, Note_off_c, 1, 55, 100
3, 247292, Note_off_c, 1, 59, 100
3, 247292, Note_off_c, 1, 62, 100
3, 247296, Control_c, 1, 64, 127
3, 247296, Note_on_c, 1, 48, 70
3, 247676, Note_off_c, 1, 48, 100
3, 247680, Note_on_c, 1, 55, 70
3, 247680, Note_on_c, 1, 60, 70
3, 247680, Note_on_c, 1, 63, 70
3, 248056, Control_c, 1, 64, 0
3, 248060, Note_off_c, 1, 55, 100
3, 248060, Note_off_c, 1, 60, 100
3, 248060, Note_off_c, 1, 63, 100
3, 248064, Control_c, 1, 64, 127
3, 248064, Note_on_c, 1, 43, 70
3, 248444, Note_off_c, 1, 43, 100
3, 248448, Note_on_c, 1, 59, 70
3, 248448, Note_on_c, 1, 55, 70
3, 248448, Note_on_c, 1, 50, 70
3, 248824, Control_c, 1, 64, 0
3, 248828, Note_off_c, 1, 59, 100
3, 248828, Note_off_c, 1, 55, 100
3, 248828, Note_off_c, 1, 50, 100
3, 248832, Control_c, 1, 64, 127
3, 248832, Note_on_c, 1, 36, 76
3, 249212, Note_off_c, 1, 36, 100
3, 249216, Note_on_c, 1, 55, 82
3, 249216, Note_on_c, 1, 51, 82
3, 249216, Note_on_c, 1, 48, 82
3, 249592, Control_c, 1, 64, 0
3, 249596, Note_off_c, 1, 55, 100
3, 249596, Note_off_c, 1, 51, 100
3, 249596, Note_off_c, 1, 48, 100
3, 249600, Control_c, 1, 64, 127
3, 249600, Note_on_c, 1, 31, 88
3, 249980, Note_off_c, 1, 31, 100
3, 249984, Note_on_c, 1, 55, 94
3, 249984, Note_on_c, 1, 50, 94
3, 249984, Note_on_c, 1, 47, 94
3, 250360, Control_c, 1, 64, 0
3, 250364, Note_off_c, 1, 55, 100
3, 250364, Note_off_c, 1, 50, 100
3, 250364, Note_off_c, 1, 47, 100
3, 250368, Control_c, 1, 64, 127
3, 250368, Note_on_c, 1, 36, 100
3, 250748, Note_off_c, 1, 36, 100
3, 250752, Note_on_c, 1, 51, 106
3, 250752, Note_on_c, 1, 48, 106
3, 250752, Note_on_c, 1, 43, 106
3, 251128, Control_c, 1, 64, 0
3, 251132, Note_off_c, 1, 51, 100
3, 251132, Note_off_c, 1, 48, 100
3, 251132, Note_off_c, 1, 43, 100
3, 251136, Note_on_c, 1, 43, 110
3, 251136, Note_on_c, 1, 31, 110
3, 251324, Note_off_c, 1, 43, 100
3, 251324, Note_off_c, 1, 31, 100
3, 251520, Note_on_c, 1, 47, 110
3, 251612, Note_off_c, 1, 47, 100
3, 251616, Note_on_c, 1, 50, 110
3, 251708, Note_off_c, 1, 50, 100
3, 251712, Note_on_c, 1, 47, 110
3, 251804, Note_off_c, 1, 47, 100
3, 251808, Note_on_c, 1, 43, 110
3, 251900, Note_off_c, 1, 43, 100
3, 251904, Note_on_c, 1, 48, 110
3, 251996, Note_off_c, 1, 48, 100
3, 252000, Note_on_c, 1, 43, 110
3, 252092, Note_off_c, 1, 43, 100
3, 252096, Note_on_c, 1, 39, 110
3, 252188, Note_off_c, 1, 39, 100
3, 252192, Note_on_c, 1, 43, 110
3, 252284, Note_off_c, 1, 43, 100
3, 252288, Note_on_c, 1, 39, 110
3, 252380, Note_off_c, 1, 39, 100
3, 252384, Note_on_c, 1, 43, 110
3, 252476, Note_off_c, 1, 43, 100
3, 252480, Note_on_c, 1, 39, 110
3, 252572, Note_off_c, 1, 39, 100
3, 252576, Note_on_c, 1, 36, 110
3, 252668, Note_off_c, 1, 36, 100
3, 252672, Control_c, 1, 64, 127
3, 252672, Note_on_c, 1, 31, 80
3, 253056, Note_on_c, 1, 56, 80
3, 253436, Note_off_c, 1, 56, 100
3, 253440, Note_on_c, 1, 56, 80
3, 253820, Note_off_c, 1, 56, 100
3, 253824, Note_on_c, 1, 56, 80
3, 254200, Control_c, 1, 64, 0
3, 254204, Note_off_c, 1, 31, 100
3, 254204, Note_off_c, 1, 56, 100
3, 254208, Control_c, 1, 64, 127
3, 254208, Note_on_c, 1, 36, 80
3, 254592, Note_on_c, 1, 54, 80
3, 254972, Note_off_c, 1, 54, 100
3, 254976, Note_on_c, 1, 54, 80
3, 255356, Note_off_c, 1, 54, 100
3, 255360, Note_on_c, 1, 54, 80
3, 255736, Control_c, 1, 64, 0
3, 255740, Note_off_c, 1, 36, 100
3, 255740, Note_off_c, 1, 54, 100
3, 255744, Control_c, 1, 64, 127
3, 255744, Note_on_c, 1, 31, 80
3, 256128, Note_on_c, 1, 56, 80
3, 256508, Note_off_c, 1, 56, 100
3, 256512, Note_on_c, 1, 56, 80
3, 256892, Note_off_c, 1, 56, 100
3, 256896, Note_on_c, 1, 56, 80
3, 257272, Control_c, 1, 64, 0
3, 257276, Note_off_c, 1, 31, 100
3, 257276, Note_off_c, 1, 56, 100
3, 257280, Control_c, 1, 64, 127
3, 257280, Note_on_c, 1, 36, 80
3, 257664, Note_on_c, 1, 54, 80
3, 258044, Note_off_c, 1, 54, 100
3, 258048, Note_on_c, 1, 54, 80
3, 258428, Note_off_c, 1, 54, 100
3, 258432, Note_on_c, 1, 54, 80
3, 258808, Control_c, 1, 64, 0
3, 258812, Note_off_c, 1, 36, 100
3, 258812, Note_off_c, 1, 54, 100
3, 258816, Control_c, 1, 64, 127
3, 258816, Note_on_c, 1, 31, 100
3, 259200, Note_on_c, 1, 59, 100
3, 259580, Note_off_c, 1, 59, 100
3, 259584, Note_on_c, 1, 59, 101
3, 260348, Note_off_c, 1, 31, 100
3, 260348, Note_off_c, 1, 59, 100
3, 260352, Note_on_c, 1, 31, 103
3, 260736, Note_on_c, 1, 62, 104
3, 261116, Note_off_c, 1, 62, 100
3, 261120, Note_on_c, 1, 62, 104
3, 261884, Note_off_c, 1, 31, 100
3, 261884, Note_off_c, 1, 62, 100
3, 261888, Note_on_c, 1, 31, 106
3, 262272, Note_on_c, 1, 65, 107
3, 262652, Note_off_c, 1, 65, 100
3, 262656, Note_on_c, 1, 65, 108
3, 263420, Note_off_c, 1, 31, 100
3, 263420, Note_off_c, 1, 65, 100
3, 263808, Note_on_c, 1, 71, 103
3, 264572, Note_off_c, 1, 71, 100
3, 264576, Note_on_c, 1, 74, 88
3, 265340, Note_off_c, 1, 74, 100
3, 265344, Note_on_c, 1, 77, 78
3, 266108, Note_off_c, 1, 77, 100
3, 266112, Note_on_c, 1, 77, 73
3, 266492, Note_off_c, 1, 77, 100
3, 266496, Note_on_c, 1, 77, 70
3, 266876, Note_off_c, 1, 77, 100
3, 266880, Note_on_c, 1, 44, 70
3, 266880, Note_on_c, 1, 32, 70
3, 267260, Note_off_c, 1, 44, 100
3, 267260, Note_off_c, 1, 32, 100
3, 267264, Note_on_c, 1, 43, 70
3, 267264, Note_on_c, 1, 31, 70
3, 267644, Note_off_c, 1, 43, 100
3, 267644, Note_off_c, 1, 31, 100
3, 267648, Note_on_c, 1, 77, 70
3, 268028, Note_off_c, 1, 77, 100
3, 268032, Note_on_c, 1, 77, 70
3, 268412, Note_off_c, 1, 77, 100
3, 268416, Note_on_c, 1, 44, 70
3, 268416, Note_on_c, 1, 32, 70
3, 268796, Note_off_c, 1, 44, 100
3, 268796, Note_off_c, 1, 32, 100
3, 268800, Note_on_c, 1, 43, 70
3, 268800, Note_on_c, 1, 31, 70
3, 269180, Note_off_c, 1, 43, 100
3, 269180, Note_off_c, 1, 31, 100
3, 269184, Note_on_c, 1, 77, 70
3, 269948, Note_off_c, 1, 77, 100
3, 269952, Note_on_c, 1, 77, 70
3, 270716, Note_off_c, 1, 77, 100
3, 270720, Note_on_c, 1, 56, 70
3, 271484, Note_off_c, 1, 56, 100
3, 271488, Note_on_c, 1, 43, 70
3, 272248, Control_c, 1, 64, 0
3, 272252, Note_off_c, 1, 43, 100
3, 272256, Note_on_c, 1, 43, 105
3, 272256, Note_on_c, 1, 31, 105
3, 272444, Note_off_c, 1, 43, 100
3, 272444, Note_off_c, 1, 31, 100
3, 272448, Note_on_c, 1, 43, 105
3, 272448, Note_on_c, 1, 31, 105
3, 272636, Note_off_c, 1, 43, 100
3, 272636, Note_off_c, 1, 31, 100
3, 272640, Key_signature, 0, "major"
3, 272640, Control_c, 1, 64, 127
3, 272640, Note_on_c, 1, 36, 110
3, 272640, Note_on_c, 1, 48, 110
3, 272732, Note_off_c, 1, 48, 100
3, 272736, Note_on_c, 1, 43, 110
3, 272828, Note_off_c, 1, 36, 100
3, 272832, Note_on_c, 1, 48, 110
3, 272924, Note_off_c, 1, 43, 100
3, 272928, Note_on_c, 1, 52, 110
3, 273020, Note_off_c, 1, 48, 100
3, 273024, Note_on_c, 1, 55, 110
3, 273116, Note_off_c, 1, 52, 100
3, 273120, Note_on_c, 1, 48, 110
3, 273212, Note_off_c, 1, 55, 100
3, 273216, Note_on_c, 1, 52, 110
3, 273308, Note_off_c, 1, 48, 100
3, 273312, Note_on_c, 1, 55, 110
3, 273404, Note_off_c, 1, 52, 100
3, 273408, Note_on_c, 1, 60, 110
3, 273500, Note_off_c, 1, 55, 100
3, 273504, Note_on_c, 1, 52, 110
3, 273596, Note_off_c, 1, 60, 100
3, 273600, Note_on_c, 1, 55, 110
3, 273692, Note_off_c, 1, 52, 100
3, 273696, Note_on_c, 1, 60, 110
3, 273788, Note_off_c, 1, 55, 100
3, 273792, Note_on_c, 1, 64, 110
3, 273884, Note_off_c, 1, 60, 100
3, 273888, Note_on_c, 1, 55, 110
3, 273980, Note_off_c, 1, 64, 100
3, 273984, Note_on_c, 1, 60, 110
3, 274076, Note_off_c, 1, 55, 100
3, 274080, Note_on_c, 1, 64, 110
3, 274172, Note_off_c, 1, 60, 100
3, 274176, Note_on_c, 1, 65, 110
3, 274268, Note_off_c, 1, 64, 100
3, 274272, Note_on_c, 1, 64, 110
3, 274364, Note_off_c, 1, 65, 100
3, 274368, Note_on_c, 1, 62, 110
3, 274460, Note_off_c, 1, 64, 100
3, 274464, Note_on_c, 1, 60, 110
3, 274556, Note_off_c, 1, 62, 100
3, 274560, Note_on_c, 1, 59, 110
3, 274652, Note_off_c, 1, 60, 100
3, 274656, Note_on_c, 1, 57, 110
3, 274748, Note_off_c, 1, 59, 100
3, 274752, Note_on_c, 1, 55, 110
3, 274844, Note_off_c, 1, 57, 100
3, 274848, Note_on_c, 1, 55, 110
3, 274940, Note_off_c, 1, 55, 100
3, 274944, Note_on_c, 1, 52, 110
3, 275036, Note_off_c, 1, 55, 100
3, 275040, Note_on_c, 1, 55, 110
3, 275132, Note_off_c, 1, 52, 100
3, 275136, Note_on_c, 1, 48, 110
3, 275228, Note_off_c, 1, 55, 100
3, 275232, Note_on_c, 1, 52, 110
3, 275324, Note_off_c, 1, 48, 100
3, 275328, Note_on_c, 1, 43, 110
3, 275420, Note_off_c, 1, 52, 100
3, 275424, Note_on_c, 1, 48, 110
3, 275516, Note_off_c, 1, 43, 100
3, 275520, Note_on_c, 1, 40, 110
3, 275612, Note_off_c, 1, 48, 100
3, 275616, Note_on_c, 1, 43, 110
3, 275708, Note_off_c, 1, 40, 100
3, 275712, Note_on_c, 1, 36, 110
3, 275804, Note_off_c, 1, 43, 100
3, 275808, Note_on_c, 1, 43, 110
3, 275900, Note_off_c, 1, 36, 100
3, 275904, Note_on_c, 1, 48, 110
3, 275996, Note_off_c, 1, 43, 100
3, 276000, Note_on_c, 1, 52, 110
3, 276092, Note_off_c, 1, 48, 100
3, 276096, Note_on_c, 1, 55, 110
3, 276188, Note_off_c, 1, 52, 100
3, 276192, Note_on_c, 1, 48, 110
3, 276284, Note_off_c, 1, 55, 100
3, 276288, Note_on_c, 1, 52, 110
3, 276380, Note_off_c, 1, 48, 100
3, 276384, Note_on_c, 1, 55, 110
3, 276476, Note_off_c, 1, 52, 100
3, 276480, Note_on_c, 1, 60, 110
3, 276572, Note_off_c, 1, 55, 100
3, 276576, Note_on_c, 1, 52, 110
3, 276668, Note_off_c, 1, 60, 100
3, 276672, Note_on_c, 1, 55, 110
3, 276764, Note_off_c, 1, 52, 100
3, 276768, Note_on_c, 1, 60, 110
3, 276860, Note_off_c, 1, 55, 100
3, 276864, Note_on_c, 1, 64, 110
3, 276956, Note_off_c, 1, 60, 100
3, 276960, Note_on_c, 1, 55, 110
3, 277052, Note_off_c, 1, 64, 100
3, 277056, Note_on_c, 1, 60, 110
3, 277148, Note_off_c, 1, 55, 100
3, 277152, Note_on_c, 1, 64, 110
3, 277244, Note_off_c, 1, 60, 100
3, 277248, Note_on_c, 1, 65, 110
3, 277340, Note_off_c, 1, 64, 100
3, 277344, Note_on_c, 1, 64, 110
3, 277436, Note_off_c, 1, 65, 100
3, 277440, Note_on_c, 1, 62, 110
3, 277532, Note_off_c, 1, 64, 100
3, 277536, Note_on_c, 1, 60, 110
3, 277628, Note_off_c, 1, 62, 100
3, 277632, Note_on_c, 1, 59, 110
3, 277724, Note_off_c, 1, 60, 100
3, 277728, Note_on_c, 1, 55, 110
3, 277820, Note_off_c, 1, 59, 100
3, 277824, Note_on_c, 1, 57, 110
3, 277916, Note_off_c, 1, 55, 100
3, 277920, Note_on_c, 1, 59, 110
3, 278012, Note_off_c, 1, 57, 100
3, 278016, Note_on_c, 1, 60, 110
3, 278108, Note_off_c, 1, 59, 100
3, 278112, Note_on_c, 1, 59, 110
3, 278204, Note_off_c, 1, 60, 100
3, 278208, Note_on_c, 1, 57, 106
3, 278300, Note_off_c, 1, 59, 100
3, 278304, Note_on_c, 1, 55, 101
3, 278396, Note_off_c, 1, 57, 100
3, 278396, Note_off_c, 1, 55, 100
3, 278400, Note_on_c, 1, 53, 96
3, 278492, Note_off_c, 1, 53, 100
3, 278496, Note_on_c, 1, 52, 91
3, 278588, Note_off_c, 1, 52, 100
3, 278592, Note_on_c, 1, 50, 86
3, 278684, Note_off_c, 1, 50, 100
3, 278688, Note_on_c, 1, 48, 81
3, 278776, Control_c, 1, 64, 0
3, 278780, Note_off_c, 1, 48, 100
3, 278784, Control_c, 1, 64, 127
3, 278784, Note_on_c, 1, 43, 80
3, 278880, Note_on_c, 1, 47, 80
3, 278972, Note_off_c, 1, 43, 100
3, 278976, Note_on_c, 1, 50, 80
3, 279068, Note_off_c, 1, 47, 100
3, 279072, Note_on_c, 1, 55, 80
3, 279164, Note_off_c, 1, 50, 100
3, 279168, Note_on_c, 1, 47, 80
3, 279260, Note_off_c, 1, 55, 100
3, 279264, Note_on_c, 1, 50, 80
3, 279356, Note_off_c, 1, 47, 100
3, 279360, Note_on_c, 1, 55, 80
3, 279452, Note_off_c, 1, 50, 100
3, 279456, Note_on_c, 1, 59, 80
3, 279548, Note_off_c, 1, 55, 100
3, 279552, Note_on_c, 1, 50, 80
3, 279644, Note_off_c, 1, 59, 100
3, 279648, Note_on_c, 1, 55, 80
3, 279740, Note_off_c, 1, 50, 100
3, 279744, Note_on_c, 1, 59, 80
3, 279836, Note_off_c, 1, 55, 100
3, 279840, Note_on_c, 1, 62, 80
3, 279932, Note_off_c, 1, 59, 100
3, 279936, Note_on_c, 1, 55, 80
3, 280028, Note_off_c, 1, 62, 100
3, 280032, Note_on_c, 1, 59, 80
3, 280124, Note_off_c, 1, 55, 100
3, 280128, Note_on_c, 1, 62, 80
3, 280220, Note_off_c, 1, 59, 100
3, 280224, Note_on_c, 1, 67, 80
3, 280312, Control_c, 1, 64, 0
3, 280316, Note_off_c, 1, 62, 100
3, 280316, Note_off_c, 1, 67, 100
3, 280320, Note_on_c, 1, 55, 80
3, 280416, Note_on_c, 1, 60, 80
3, 280508, Note_off_c, 1, 55, 100
3, 280512, Note_on_c, 1, 67, 80
3, 280604, Note_off_c, 1, 60, 100
3, 280608, Note_on_c, 1, 60, 80
3, 280700, Note_off_c, 1, 67, 100
3, 280704, Note_on_c, 1, 55, 80
3, 280796, Note_off_c, 1, 60, 100
3, 280800, Note_on_c, 1, 64, 80
3, 280892, Note_off_c, 1, 55, 100
3, 280896, Note_on_c, 1, 67, 80
3, 280988, Note_off_c, 1, 64, 100
3, 280992, Note_on_c, 1, 64, 80
3, 281084, Note_off_c, 1, 67, 100
3, 281088, Note_on_c, 1, 55, 80
3, 281180, Note_off_c, 1, 64, 100
3, 281184, Note_on_c, 1, 62, 80
3, 281276, Note_off_c, 1, 55, 100
3, 281280, Note_on_c, 1, 67, 80
3, 281372, Note_off_c, 1, 62, 100
3, 281376, Note_on_c, 1, 62, 80
3, 281468, Note_off_c, 1, 67, 100
3, 281472, Note_on_c, 1, 55, 80
3, 281564, Note_off_c, 1, 62, 100
3, 281568, Note_on_c, 1, 59, 80
3, 281660, Note_off_c, 1, 55, 100
3, 281664, Note_on_c, 1, 67, 80
3, 281756, Note_off_c, 1, 59, 100
3, 281760, Note_on_c, 1, 59, 80
3, 281852, Note_off_c, 1, 67, 100
3, 281852, Note_off_c, 1, 59, 100
3, 281856, Control_c, 1, 64, 127
3, 281856, Note_on_c, 1, 43, 80
3, 281952, Note_on_c, 1, 47, 80
3, 282044, Note_off_c, 1, 43, 100
3, 282048, Note_on_c, 1, 50, 80
3, 282140, Note_off_c, 1, 47, 100
3, 282144, Note_on_c, 1, 55, 80
3, 282236, Note_off_c, 1, 50, 100
3, 282240, Note_on_c, 1, 47, 80
3, 282332, Note_off_c, 1, 55, 100
3, 282336, Note_on_c, 1, 50, 80
3, 282428, Note_off_c, 1, 47, 100
3, 282432, Note_on_c, 1, 55, 80
3, 282524, Note_off_c, 1, 50, 100
3, 282528, Note_on_c, 1, 59, 80
3, 282620, Note_off_c, 1, 55, 100
3, 282624, Note_on_c, 1, 50, 80
3, 282716, Note_off_c, 1, 59, 100
3, 282720, Note_on_c, 1, 55, 80
3, 282812, Note_off_c, 1, 50, 100
3, 282816, Note_on_c, 1, 59, 80
3, 282908, Note_off_c, 1, 55, 100
3, 282912, Note_on_c, 1, 62, 80
3, 283004, Note_off_c, 1, 59, 100
3, 283008, Note_on_c, 1, 55, 80
3, 283100, Note_off_c, 1, 62, 100
3, 283104, Note_on_c, 1, 59, 80
3, 283196, Note_off_c, 1, 55, 100
3, 283200, Note_on_c, 1, 62, 80
3, 283292, Note_off_c, 1, 59, 100
3, 283296, Note_on_c, 1, 67, 80
3, 283384, Control_c, 1, 64, 0
3, 283388, Note_off_c, 1, 62, 100
3, 283388, Note_off_c, 1, 67, 100
3, 283392, Note_on_c, 1, 55, 80
3, 283488, Note_on_c, 1, 60, 80
3, 283580, Note_off_c, 1, 55, 100
3, 283584, Note_on_c, 1, 67, 80
3, 283676, Note_off_c, 1, 60, 100
3, 283680, Note_on_c, 1, 60, 80
3, 283772, Note_off_c, 1, 67, 100
3, 283776, Note_on_c, 1, 55, 80
3, 283868, Note_off_c, 1, 60, 100
3, 283872, Note_on_c, 1, 63, 80
3, 283964, Note_off_c, 1, 55, 100
3, 283968, Note_on_c, 1, 67, 80
3, 284060, Note_off_c, 1, 63, 100
3, 284064, Note_on_c, 1, 63, 80
3, 284156, Note_off_c, 1, 67, 100
3, 284160, Note_on_c, 1, 55, 80
3, 284252, Note_off_c, 1, 63, 100
3, 284256, Note_on_c, 1, 62, 80
3, 284348, Note_off_c, 1, 55, 100
3, 284352, Note_on_c, 1, 67, 80
3, 284444, Note_off_c, 1, 62, 100
3, 284448, Note_on_c, 1, 62, 80
3, 284540, Note_off_c, 1, 67, 100
3, 284544, Note_on_c, 1, 55, 80
3, 284636, Note_off_c, 1, 62, 100
3, 284640, Note_on_c, 1, 59, 80
3, 284732, Note_off_c, 1, 55, 100
3, 284736, Note_on_c, 1, 67, 80
3, 284828, Note_off_c, 1, 59, 100
3, 284832, Note_on_c, 1, 59, 80
3, 284924, Note_off_c, 1, 67, 100
3, 284924, Note_off_c, 1, 59, 100
3, 284928, Note_on_c, 1, 55, 80
3, 285024, Note_on_c, 1, 60, 81
3, 285116, Note_off_c, 1, 55, 100
3, 285120, Note_on_c, 1, 67, 82
3, 285212, Note_off_c, 1, 60, 100
3, 285216, Note_on_c, 1, 60, 83
3, 285308, Note_off_c, 1, 67, 100
3, 285312, Note_on_c, 1, 55, 85
3, 285404, Note_off_c, 1, 60, 100
3, 285408, Note_on_c, 1, 64, 86
3, 285500, Note_off_c, 1, 55, 100
3, 285504, Note_on_c, 1, 67, 87
3, 285596, Note_off_c, 1, 64, 100
3, 285600, Note_on_c, 1, 64, 89
3, 285692, Note_off_c, 1, 67, 100
3, 285696, Note_on_c, 1, 55, 90
3, 285788, Note_off_c, 1, 64, 100
3, 285792, Note_on_c, 1, 62, 91
3, 285884, Note_off_c, 1, 55, 100
3, 285888, Note_on_c, 1, 67, 93
3, 285980, Note_off_c, 1, 62, 100
3, 285984, Note_on_c, 1, 62, 94
3, 286076, Note_off_c, 1, 67, 100
3, 286080, Note_on_c, 1, 55, 95
3, 286172, Note_off_c, 1, 62, 100
3, 286176, Note_on_c, 1, 59, 97
3, 286268, Note_off_c, 1, 55, 100
3, 286272, Note_on_c, 1, 67, 98
3, 286364, Note_off_c, 1, 59, 100
3, 286368, Note_on_c, 1, 59, 99
3, 286460, Note_off_c, 1, 67, 100
3, 286460, Note_off_c, 1, 59, 100
3, 286464, Note_on_c, 1, 55, 90
3, 286560, Note_on_c, 1, 60, 89
3, 286652, Note_off_c, 1, 55, 100
3, 286656, Note_on_c, 1, 67, 88
3, 286748, Note_off_c, 1, 60, 100
3, 286752, Note_on_c, 1, 60, 87
3, 286844, Note_off_c, 1, 67, 100
3, 286848, Note_on_c, 1, 55, 85
3, 286940, Note_off_c, 1, 60, 100
3, 286944, Note_on_c, 1, 60, 84
3, 287036, Note_off_c, 1, 55, 100
3, 287040, Note_on_c, 1, 63, 83
3, 287132, Note_off_c, 1, 60, 100
3, 287136, Note_on_c, 1, 60, 81
3, 287228, Note_off_c, 1, 63, 100
3, 287232, Note_on_c, 1, 55, 80
3, 287324, Note_off_c, 1, 60, 100
3, 287328, Note_on_c, 1, 59, 79
3, 287420, Note_off_c, 1, 55, 100
3, 287424, Note_on_c, 1, 62, 77
3, 287516, Note_off_c, 1, 59, 100
3, 287520, Note_on_c, 1, 59, 76
3, 287612, Note_off_c, 1, 62, 100
3, 287616, Note_on_c, 1, 55, 75
3, 287708, Note_off_c, 1, 59, 100
3, 287712, Note_on_c, 1, 60, 73
3, 287804, Note_off_c, 1, 55, 100
3, 287808, Note_on_c, 1, 63, 72
3, 287900, Note_off_c, 1, 60, 100
3, 287904, Note_on_c, 1, 60, 71
3, 287996, Note_off_c, 1, 63, 100
3, 287996, Note_off_c, 1, 60, 100
3, 288000, Note_on_c, 1, 55, 70
3, 288096, Note_on_c, 1, 59, 71
3, 288192, Note_on_c, 1, 62, 72
3, 288284, Note_off_c, 1, 55, 100
3, 288284, Note_off_c, 1, 59, 100
3, 288288, Note_on_c, 1, 59, 73
3, 288384, Note_on_c, 1, 55, 75
3, 288476, Note_off_c, 1, 62, 100
3, 288480, Note_on_c, 1, 60, 76
3, 288572, Note_off_c, 1, 59, 100
3, 288576, Note_on_c, 1, 64, 77
3, 288668, Note_off_c, 1, 55, 100
3, 288668, Note_off_c, 1, 60, 100
3, 288672, Note_on_c, 1, 60, 79
3, 288768, Note_on_c, 1, 55, 80
3, 288860, Note_off_c, 1, 64, 100
3, 288864, Note_on_c, 1, 59, 81
3, 288956, Note_off_c, 1, 60, 100
3, 288960, Note_on_c, 1, 62, 82
3, 289052, Note_off_c, 1, 55, 100
3, 289052, Note_off_c, 1, 59, 100
3, 289056, Note_on_c, 1, 59, 84
3, 289152, Note_on_c, 1, 55, 85
3, 289244, Note_off_c, 1, 62, 100
3, 289248, Note_on_c, 1, 57, 86
3, 289340, Note_off_c, 1, 59, 100
3, 289344, Note_on_c, 1, 60, 88
3, 289436, Note_off_c, 1, 55, 100
3, 289436, Note_off_c, 1, 57, 100
3, 289440, Note_on_c, 1, 57, 89
3, 289536, Note_on_c, 1, 55, 90
3, 289628, Note_off_c, 1, 57, 64
3, 289628, Note_off_c, 1, 60, 100
3, 289632, Note_on_c, 1, 59, 91
3, 289728, Note_on_c, 1, 57, 93
3, 289820, Note_off_c, 1, 55, 100
3, 289824, Note_on_c, 1, 55, 94
3, 289916, Note_off_c, 1, 59, 100
3, 289920, Note_on_c, 1, 53, 95
3, 290012, Note_off_c, 1, 57, 100
3, 290016, Note_on_c, 1, 57, 97
3, 290108, Note_off_c, 1, 55, 100
3, 290112, Note_on_c, 1, 55, 98
3, 290204, Note_off_c, 1, 53, 100
3, 290208, Note_on_c, 1, 53, 99
3, 290300, Note_off_c, 1, 57, 100
3, 290304, Note_on_c, 1, 52, 100
3, 290396, Note_off_c, 1, 55, 100
3, 290400, Note_on_c, 1, 55, 102
3, 290492, Note_off_c, 1, 53, 100
3, 290496, Note_on_c, 1, 53, 103
3, 290588, Note_off_c, 1, 52, 100
3, 290592, Note_on_c, 1, 52, 104
3, 290684, Note_off_c, 1, 55, 100
3, 290688, Note_on_c, 1, 50, 106
3, 290780, Note_off_c, 1, 53, 100
3, 290784, Note_on_c, 1, 53, 107
3, 290876, Note_off_c, 1, 52, 100
3, 290880, Note_on_c, 1, 52, 108
3, 290972, Note_off_c, 1, 50, 100
3, 290976, Note_on_c, 1, 50, 109
3, 291068, Note_off_c, 1, 53, 100
3, 291068, Note_off_c, 1, 52, 100
3, 291068, Note_off_c, 1, 50, 100
3, 291072, Control_c, 1, 64, 127
3, 291072, Note_on_c, 1, 48, 120
3, 291072, Note_on_c, 1, 36, 120
3, 291164, Note_off_c, 1, 48, 100
3, 291164, Note_off_c, 1, 36, 100
3, 291168, Note_on_c, 1, 50, 120
3, 291216, Note_on_c, 1, 52, 120
3, 291260, Note_off_c, 1, 50, 100
3, 291264, Note_on_c, 1, 53, 120
3, 291308, Note_off_c, 1, 52, 100
3, 291312, Note_on_c, 1, 55, 120
3, 291356, Note_off_c, 1, 53, 100
3, 291360, Note_on_c, 1, 57, 120
3, 291404, Note_off_c, 1, 55, 100
3, 291408, Note_on_c, 1, 59, 120
3, 291452, Note_off_c, 1, 57, 100
3, 291456, Note_on_c, 1, 60, 120
3, 291500, Note_off_c, 1, 59, 100
3, 291552, Note_on_c, 1, 62, 120
3, 291600, Note_on_c, 1, 64, 120
3, 291644, Note_off_c, 1, 60, 100
3, 291644, Note_off_c, 1, 62, 100
3, 291648, Note_on_c, 1, 65, 120
3, 291692, Note_off_c, 1, 64, 100
3, 291696, Note_on_c, 1, 67, 120
3, 291740, Note_off_c, 1, 65, 100
3, 291744, Note_on_c, 1, 69, 120
3, 291788, Note_off_c, 1, 67, 100
3, 291792, Note_on_c, 1, 71, 120
3, 291836, Note_off_c, 1, 69, 100
3, 291840, Note_on_c, 1, 72, 120
3, 291884, Note_off_c, 1, 71, 100
3, 291936, Note_on_c, 1, 71, 120
3, 292028, Note_off_c, 1, 72, 100
3, 292032, Note_on_c, 1, 69, 120
3, 292124, Note_off_c, 1, 71, 100
3, 292128, Note_on_c, 1, 67, 120
3, 292220, Note_off_c, 1, 69, 100
3, 292224, Note_on_c, 1, 65, 120
3, 292316, Note_off_c, 1, 67, 100
3, 292320, Note_on_c, 1, 64, 120
3, 292412, Note_off_c, 1, 65, 100
3, 292416, Note_on_c, 1, 62, 120
3, 292508, Note_off_c, 1, 64, 100
3, 292512, Note_on_c, 1, 60, 120
3, 292600, Control_c, 1, 64, 0
3, 292604, Note_off_c, 1, 62, 100
3, 292604, Note_off_c, 1, 60, 100
3, 292608, Note_on_c, 1, 59, 120
3, 292700, Note_off_c, 1, 59, 100
3, 292704, Note_on_c, 1, 60, 120
3, 292796, Note_off_c, 1, 60, 100
3, 292800, Note_on_c, 1, 59, 120
3, 292892, Note_off_c, 1, 59, 100
3, 292896, Note_on_c, 1, 57, 120
3, 292988, Note_off_c, 1, 57, 100
3, 292992, Note_on_c, 1, 55, 120
3, 293084, Note_off_c, 1, 55, 100
3, 293088, Note_on_c, 1, 53, 120
3, 293180, Note_off_c, 1, 53, 100
3, 293184, Note_on_c, 1, 52, 120
3, 293276, Note_off_c, 1, 52, 100
3, 293280, Note_on_c, 1, 50, 120
3, 293372, Note_off_c, 1, 50, 100
3, 293376, Note_on_c, 1, 48, 120
3, 293468, Note_off_c, 1, 48, 100
3, 293472, Note_on_c, 1, 48, 120
3, 293564, Note_off_c, 1, 48, 100
3, 293568, Note_on_c, 1, 47, 120
3, 293660, Note_off_c, 1, 47, 100
3, 293664, Note_on_c, 1, 45, 120
3, 293756, Note_off_c, 1, 45, 100
3, 293760, Note_on_c, 1, 43, 120
3, 293852, Note_off_c, 1, 43, 100
3, 293856, Note_on_c, 1, 41, 120
3, 293948, Note_off_c, 1, 41, 100
3, 293952, Note_on_c, 1, 40, 120
3, 294044, Note_off_c, 1, 40, 100
3, 294048, Note_on_c, 1, 38, 120
3, 294140, Note_off_c, 1, 38, 100
3, 294144, Control_c, 1, 64, 127
3, 294144, Note_on_c, 1, 48, 120
3, 294144, Note_on_c, 1, 36, 120
3, 294236, Note_off_c, 1, 48, 100
3, 294236, Note_off_c, 1, 36, 100
3, 294240, Note_on_c, 1, 50, 120
3, 294288, Note_on_c, 1, 52, 120
3, 294332, Note_off_c, 1, 50, 100
3, 294336, Note_on_c, 1, 53, 120
3, 294380, Note_off_c, 1, 52, 100
3, 294384, Note_on_c, 1, 55, 120
3, 294428, Note_off_c, 1, 53, 100
3, 294432, Note_on_c, 1, 57, 120
3, 294476, Note_off_c, 1, 55, 100
3, 294480, Note_on_c, 1, 59, 120
3, 294524, Note_off_c, 1, 57, 100
3, 294528, Note_on_c, 1, 60, 120
3, 294572, Note_off_c, 1, 59, 100
3, 294624, Note_on_c, 1, 62, 120
3, 294672, Note_on_c, 1, 64, 120
3, 294716, Note_off_c, 1, 60, 100
3, 294716, Note_off_c, 1, 62, 100
3, 294720, Note_on_c, 1, 65, 120
3, 294764, Note_off_c, 1, 64, 100
3, 294768, Note_on_c, 1, 67, 120
3, 294812, Note_off_c, 1, 65, 100
3, 294816, Note_on_c, 1, 69, 120
3, 294860, Note_off_c, 1, 67, 100
3, 294864, Note_on_c, 1, 71, 120
3, 294908, Note_off_c, 1, 69, 100
3, 294912, Note_on_c, 1, 72, 120
3, 294956, Note_off_c, 1, 71, 100
3, 295008, Note_on_c, 1, 71, 120
3, 295100, Note_off_c, 1, 72, 100
3, 295104, Note_on_c, 1, 69, 120
3, 295196, Note_off_c, 1, 71, 100
3, 295200, Note_on_c, 1, 67, 120
3, 295292, Note_off_c, 1, 69, 100
3, 295296, Note_on_c, 1, 65, 120
3, 295388, Note_off_c, 1, 67, 100
3, 295392, Note_on_c, 1, 64, 120
3, 295484, Note_off_c, 1, 65, 100
3, 295488, Note_on_c, 1, 62, 120
3, 295580, Note_off_c, 1, 64, 100
3, 295584, Note_on_c, 1, 60, 120
3, 295672, Control_c, 1, 64, 0
3, 295676, Note_off_c, 1, 62, 100
3, 295676, Note_off_c, 1, 60, 100
3, 295680, Note_on_c, 1, 59, 120
3, 295772, Note_off_c, 1, 59, 100
3, 295776, Note_on_c, 1, 60, 120
3, 295868, Note_off_c, 1, 60, 100
3, 295872, Note_on_c, 1, 59, 120
3, 295964, Note_off_c, 1, 59, 100
3, 295968, Note_on_c, 1, 57, 120
3, 296060, Note_off_c, 1, 57, 100
3, 296064, Note_on_c, 1, 55, 120
3, 296156, Note_off_c, 1, 55, 100
3, 296160, Note_on_c, 1, 53, 120
3, 296252, Note_off_c, 1, 53, 100
3, 296256, Note_on_c, 1, 52, 120
3, 296348, Note_off_c, 1, 52, 100
3, 296352, Note_on_c, 1, 50, 120
3, 296444, Note_off_c, 1, 50, 100
3, 296448, Note_on_c, 1, 48, 120
3, 296636, Note_off_c, 1, 48, 100
3, 296640, Note_on_c, 1, 36, 120
3, 296828, Note_off_c, 1, 36, 100
3, 297024, Note_on_c, 1, 48, 110
3, 297024, Note_on_c, 1, 36, 110
3, 297212, Note_off_c, 1, 48, 100
3, 297212, Note_off_c, 1, 36, 100
3, 297408, Note_on_c, 1, 48, 110
3, 297408, Note_on_c, 1, 36, 110
3, 297596, Note_off_c, 1, 48, 100
3, 297596, Note_off_c, 1, 36, 100
3, 297792, Note_on_c, 1, 48, 110
3, 297792, Note_on_c, 1, 36, 110
3, 297980, Note_off_c, 1, 48, 100
3, 297980, Note_off_c, 1, 36, 100
3, 298176, Note_on_c, 1, 48, 110
3, 298176, Note_on_c, 1, 36, 110
3, 298364, Note_off_c, 1, 48, 100
3, 298364, Note_off_c, 1, 36, 100
3, 298560, Note_on_c, 1, 48, 110
3, 298560, Note_on_c, 1, 36, 110
3, 298748, Note_off_c, 1, 48, 100
3, 298748, Note_off_c, 1, 36, 100
3, 298944, Note_on_c, 1, 36, 110
3, 298944, Note_on_c, 1, 48, 110
3, 299132, Note_off_c, 1, 36, 100
3, 299132, Note_off_c, 1, 48, 100
3, 299328, Note_on_c, 1, 48, 110
3, 299328, Note_on_c, 1, 36, 110
3, 299516, Note_off_c, 1, 48, 100
3, 299516, Note_off_c, 1, 36, 100
3, 299712, Note_on_c, 1, 36, 110
3, 299900, Note_off_c, 1, 36, 100
3, 300096, Note_on_c, 1, 52, 110
3, 300096, Note_on_c, 1, 48, 110
3, 300096, Note_on_c, 1, 40, 110
3, 300284, Note_off_c, 1, 52, 100
3, 300284, Note_off_c, 1, 48, 100
3, 300284, Note_off_c, 1, 40, 100
3, 300480, Note_on_c, 1, 53, 110
3, 300480, Note_on_c, 1, 48, 110
3, 300480, Note_on_c, 1, 41, 110
3, 300668, Note_off_c, 1, 53, 100
3, 300668, Note_off_c, 1, 48, 100
3, 300668, Note_off_c, 1, 41, 100
3, 300864, Note_on_c, 1, 52, 110
3, 300864, Note_on_c, 1, 48, 110
3, 300864, Note_on_c, 1, 40, 110
3, 301052, Note_off_c, 1, 52, 100
3, 301052, Note_off_c, 1, 48, 100
3, 301052, Note_off_c, 1, 40, 100
3, 301248, Note_on_c, 1, 48, 110
3, 301248, Note_on_c, 1, 50, 110
3, 301248, Note_on_c, 1, 38, 110
3, 301436, Note_off_c, 1, 48, 100
3, 301436, Note_off_c, 1, 50, 100
3, 301436, Note_off_c, 1, 38, 100
3, 301632, Note_on_c, 1, 51, 110
3, 301632, Note_on_c, 1, 48, 110
3, 301632, Note_on_c, 1, 39, 110
3, 301820, Note_off_c, 1, 51, 100
3, 301820, Note_off_c, 1, 48, 100
3, 301820, Note_off_c, 1, 39, 100
3, 302016, Note_on_c, 1, 52, 110
3, 302016, Note_on_c, 1, 48, 110
3, 302016, Note_on_c, 1, 40, 110
3, 302204, Note_off_c, 1, 52, 100
3, 302204, Note_off_c, 1, 48, 100
3, 302204, Note_off_c, 1, 40, 100
3, 302400, Note_on_c, 1, 50, 110
3, 302400, Note_on_c, 1, 48, 110
3, 302400, Note_on_c, 1, 38, 110
3, 302588, Note_off_c, 1, 50, 100
3, 302588, Note_off_c, 1, 48, 100
3, 302588, Note_off_c, 1, 38, 100
3, 302784, Note_on_c, 1, 48, 110
3, 302784, Note_on_c, 1, 36, 110
3, 302972, Note_off_c, 1, 48, 100
3, 302972, Note_off_c, 1, 36, 100
3, 302976, Note_on_c, 1, 36, 110
3, 303040, Note_on_c, 1, 40, 110
3, 303092, Note_off_c, 1, 36, 100
3, 303104, Note_on_c, 1, 43, 110
3, 303144, Note_off_c, 1, 40, 100
3, 303168, Note_on_c, 1, 48, 110
3, 303216, Note_off_c, 1, 43, 100
3, 303232, Note_on_c, 1, 43, 110
3, 303276, Note_off_c, 1, 48, 100
3, 303296, Note_on_c, 1, 40, 110
3, 303340, Note_off_c, 1, 43, 100
3, 303360, Note_on_c, 1, 36, 110
3, 303404, Note_off_c, 1, 40, 100
3, 303424, Note_on_c, 1, 41, 110
3, 303480, Note_off_c, 1, 36, 100
3, 303488, Note_on_c, 1, 45, 110
3, 303532, Note_off_c, 1, 41, 100
3, 303552, Note_on_c, 1, 48, 110
3, 303600, Note_off_c, 1, 45, 100
3, 303616, Note_on_c, 1, 45, 110
3, 303660, Note_off_c, 1, 48, 100
3, 303680, Note_on_c, 1, 41, 110
3, 303720, Note_off_c, 1, 45, 100
3, 303744, Note_on_c, 1, 36, 110
3, 303788, Note_off_c, 1, 41, 100
3, 303808, Note_on_c, 1, 40, 110
3, 303848, Note_off_c, 1, 36, 100
3, 303872, Note_on_c, 1, 43, 110
3, 303912, Note_off_c, 1, 40, 100
3, 303936, Note_on_c, 1, 48, 110
3, 303984, Note_off_c, 1, 43, 100
3, 304000, Note_on_c, 1, 43, 110
3, 304040, Note_off_c, 1, 48, 100
3, 304064, Note_on_c, 1, 40, 110
3, 304112, Note_off_c, 1, 43, 100
3, 304124, Note_off_c, 1, 40, 100
3, 304128, Note_on_c, 1, 36, 110
3, 304192, Note_on_c, 1, 38, 110
3, 304244, Note_off_c, 1, 36, 100
3, 304256, Note_on_c, 1, 41, 110
3, 304308, Note_off_c, 1, 38, 100
3, 304320, Note_on_c, 1, 48, 110
3, 304372, Note_off_c, 1, 41, 100
3, 304384, Note_on_c, 1, 41, 110
3, 304440, Note_off_c, 1, 48, 100
3, 304448, Note_on_c, 1, 38, 110
3, 304504, Note_off_c, 1, 41, 100
3, 304512, Note_on_c, 1, 36, 110
3, 304564, Note_off_c, 1, 38, 100
3, 304576, Note_on_c, 1, 39, 110
3, 304624, Note_off_c, 1, 36, 100
3, 304640, Note_on_c, 1, 42, 110
3, 304672, Note_off_c, 1, 39, 100
3, 304704, Note_on_c, 1, 48, 110
3, 304744, Note_off_c, 1, 42, 100
3, 304768, Note_on_c, 1, 42, 110
3, 304812, Note_off_c, 1, 48, 100
3, 304832, Note_on_c, 1, 39, 110
3, 304880, Note_off_c, 1, 42, 100
3, 304892, Note_off_c, 1, 39, 100
3, 304896, Note_on_c, 1, 36, 110
3, 304960, Note_on_c, 1, 40, 110
3, 305004, Note_off_c, 1, 36, 100
3, 305024, Note_on_c, 1, 43, 110
3, 305072, Note_off_c, 1, 40, 100
3, 305088, Note_on_c, 1, 48, 110
3, 305140, Note_off_c, 1, 43, 100
3, 305152, Note_on_c, 1, 43, 110
3, 305200, Note_off_c, 1, 48, 100
3, 305216, Note_on_c, 1, 40, 110
3, 305268, Note_off_c, 1, 43, 100
3, 305280, Note_on_c, 1, 36, 110
3, 305332, Note_off_c, 1, 40, 100
3, 305344, Note_on_c, 1, 38, 110
3, 305392, Note_off_c, 1, 36, 100
3, 305408, Note_on_c, 1, 41, 110
3, 305456, Note_off_c, 1, 38, 100
3, 305472, Note_on_c, 1, 48, 110
3, 305524, Note_off_c, 1, 41, 100
3, 305536, Note_on_c, 1, 41, 110
3, 305592, Note_off_c, 1, 48, 100
3, 305600, Note_on_c, 1, 38, 110
3, 305652, Note_off_c, 1, 41, 100
3, 305660, Note_off_c, 1, 38, 100
3, 305664, Note_on_c, 1, 36, 110
3, 305728, Note_on_c, 1, 40, 110
3, 305776, Note_off_c, 1, 36, 100
3, 305792, Note_on_c, 1, 43, 110
3, 305836, Note_off_c, 1, 40, 100
3, 305856, Note_on_c, 1, 48, 110
3, 305896, Note_off_c, 1, 43, 100
3, 305920, Note_on_c, 1, 43, 110
3, 305976, Note_off_c, 1, 48, 100
3, 305984, Note_on_c, 1, 40, 110
3, 306020, Note_off_c, 1, 43, 100
3, 306048, Note_on_c, 1, 36, 110
3, 306096, Note_off_c, 1, 40, 100
3, 306112, Note_on_c, 1, 48, 110
3, 306148, Note_off_c, 1, 36, 100
3, 306176, Note_on_c, 1, 52, 110
3, 306224, Note_off_c, 1, 48, 100
3, 306240, Note_on_c, 1, 55, 110
3, 306284, Note_off_c, 1, 52, 100
3, 306304, Note_on_c, 1, 52, 110
3, 306352, Note_off_c, 1, 55, 100
3, 306368, Note_on_c, 1, 48, 110
3, 306412, Note_off_c, 1, 52, 100
3, 306432, Note_on_c, 1, 38, 110
3, 306484, Note_off_c, 1, 48, 100
3, 306496, Note_on_c, 1, 48, 110
3, 306544, Note_off_c, 1, 38, 100
3, 306560, Note_on_c, 1, 53, 110
3, 306608, Note_off_c, 1, 48, 100
3, 306624, Note_on_c, 1, 57, 110
3, 306664, Note_off_c, 1, 53, 100
3, 306688, Note_on_c, 1, 53, 110
3, 306732, Note_off_c, 1, 57, 100
3, 306752, Note_on_c, 1, 48, 110
3, 306796, Note_off_c, 1, 53, 100
3, 306816, Note_on_c, 1, 36, 110
3, 306868, Note_off_c, 1, 48, 100
3, 306880, Note_on_c, 1, 48, 110
3, 306924, Note_off_c, 1, 36, 100
3, 306944, Note_on_c, 1, 52, 110
3, 307000, Note_off_c, 1, 48, 100
3, 307008, Note_on_c, 1, 55, 110
3, 307056, Note_off_c, 1, 52, 100
3, 307072, Note_on_c, 1, 52, 110
3, 307108, Note_off_c, 1, 55, 100
3, 307136, Note_on_c, 1, 48, 110
3, 307192, Note_off_c, 1, 52, 100
3, 307200, Note_on_c, 1, 36, 110
3, 307244, Note_off_c, 1, 48, 100
3, 307264, Note_on_c, 1, 48, 110
3, 307316, Note_off_c, 1, 36, 100
3, 307328, Note_on_c, 1, 50, 110
3, 307376, Note_off_c, 1, 48, 100
3, 307392, Note_on_c, 1, 53, 110
3, 307448, Note_off_c, 1, 50, 100
3, 307456, Note_on_c, 1, 50, 110
3, 307504, Note_off_c, 1, 53, 100
3, 307520, Note_on_c, 1, 48, 110
3, 307556, Note_off_c, 1, 50, 100
3, 307584, Note_on_c, 1, 36, 110
3, 307628, Note_off_c, 1, 48, 100
3, 307648, Note_on_c, 1, 48, 110
3, 307704, Note_off_c, 1, 36, 100
3, 307712, Note_on_c, 1, 51, 110
3, 307760, Note_off_c, 1, 48, 100
3, 307776, Note_on_c, 1, 54, 110
3, 307828, Note_off_c, 1, 51, 100
3, 307840, Note_on_c, 1, 51, 110
3, 307892, Note_off_c, 1, 54, 100
3, 307904, Note_on_c, 1, 48, 110
3, 307960, Note_off_c, 1, 51, 100
3, 307964, Note_off_c, 1, 48, 100
3, 307968, Note_on_c, 1, 36, 110
3, 308032, Note_on_c, 1, 48, 110
3, 308088, Note_off_c, 1, 36, 100
3, 308096, Note_on_c, 1, 52, 110
3, 308148, Note_off_c, 1, 48, 100
3, 308160, Note_on_c, 1, 55, 110
3, 308208, Note_off_c, 1, 52, 100
3, 308224, Note_on_c, 1, 52, 110
3, 308276, Note_off_c, 1, 55, 100
3, 308288, Note_on_c, 1, 48, 110
3, 308344, Note_off_c, 1, 52, 100
3, 308352, Note_on_c, 1, 36, 110
3, 308400, Note_off_c, 1, 48, 100
3, 308416, Note_on_c, 1, 48, 110
3, 308472, Note_off_c, 1, 36, 100
3, 308480, Note_on_c, 1, 50, 110
3, 308536, Note_off_c, 1, 48, 100
3, 308544, Note_on_c, 1, 53, 110
3, 308576, Note_off_c, 1, 50, 100
3, 308608, Note_on_c, 1, 50, 110
3, 308656, Note_off_c, 1, 53, 100
3, 308672, Note_on_c, 1, 48, 110
3, 308712, Note_off_c, 1, 50, 100
3, 308736, Note_on_c, 1, 36, 110
3, 308784, Note_off_c, 1, 48, 100
3, 308800, Note_on_c, 1, 48, 110
3, 308848, Note_off_c, 1, 36, 100
3, 308864, Note_on_c, 1, 52, 110
3, 308912, Note_off_c, 1, 48, 100
3, 308928, Note_on_c, 1, 55, 110
3, 308972, Note_off_c, 1, 52, 100
3, 308992, Note_on_c, 1, 52, 110
3, 309032, Note_off_c, 1, 55, 100
3, 309056, Note_on_c, 1, 48, 110
3, 309112, Note_off_c, 1, 52, 100
3, 309120, Note_on_c, 1, 36, 110
3, 309168, Note_off_c, 1, 48, 100
3, 309184, Note_on_c, 1, 48, 110
3, 309228, Note_off_c, 1, 36, 100
3, 309248, Note_on_c, 1, 52, 110
3, 309288, Note_off_c, 1, 48, 100
3, 309312, Note_on_c, 1, 55, 110
3, 309360, Note_off_c, 1, 52, 100
3, 309376, Note_on_c, 1, 52, 110
3, 309428, Note_off_c, 1, 55, 100
3, 309440, Note_on_c, 1, 48, 110
3, 309496, Note_off_c, 1, 52, 100
3, 309500, Note_off_c, 1, 48, 100
3, 309504, Note_on_c, 1, 43, 110
3, 309568, Note_on_c, 1, 47, 110
3, 309604, Note_off_c, 1, 43, 100
3, 309632, Note_on_c, 1, 50, 110
3, 309680, Note_off_c, 1, 47, 100
3, 309696, Note_on_c, 1, 55, 110
3, 309744, Note_off_c, 1, 50, 100
3, 309760, Note_on_c, 1, 50, 110
3, 309816, Note_off_c, 1, 55, 100
3, 309824, Note_on_c, 1, 47, 110
3, 309868, Note_off_c, 1, 50, 100
3, 309888, Note_on_c, 1, 38, 110
3, 309932, Note_off_c, 1, 47, 100
3, 309952, Note_on_c, 1, 50, 110
3, 310004, Note_off_c, 1, 38, 100
3, 310016, Note_on_c, 1, 53, 110
3, 310068, Note_off_c, 1, 50, 100
3, 310080, Note_on_c, 1, 57, 110
3, 310132, Note_off_c, 1, 53, 100
3, 310144, Note_on_c, 1, 53, 110
3, 310192, Note_off_c, 1, 57, 100
3, 310208, Note_on_c, 1, 50, 110
3, 310260, Note_off_c, 1, 53, 100
3, 310268, Note_off_c, 1, 50, 100
3, 310272, Note_on_c, 1, 45, 110
3, 310336, Note_on_c, 1, 48, 110
3, 310384, Note_off_c, 1, 45, 100
3, 310400, Note_on_c, 1, 52, 110
3, 310456, Note_off_c, 1, 48, 100
3, 310464, Note_on_c, 1, 57, 110
3, 310508, Note_off_c, 1, 52, 100
3, 310528, Note_on_c, 1, 52, 110
3, 310568, Note_off_c, 1, 57, 100
3, 310592, Note_on_c, 1, 48, 110
3, 310648, Note_off_c, 1, 52, 100
3, 310656, Note_on_c, 1, 41, 110
3, 310704, Note_off_c, 1, 48, 100
3, 310720, Note_on_c, 1, 48, 110
3, 310760, Note_off_c, 1, 41, 100
3, 310784, Note_on_c, 1, 50, 110
3, 310828, Note_off_c, 1, 48, 100
3, 310848, Note_on_c, 1, 53, 110
3, 310904, Note_off_c, 1, 50, 100
3, 310912, Note_on_c, 1, 50, 110
3, 310960, Note_off_c, 1, 53, 100
3, 310976, Note_on_c, 1, 48, 110
3, 311024, Note_off_c, 1, 50, 100
3, 311040, Note_on_c, 1, 43, 110
3, 311080, Note_off_c, 1, 48, 100
3, 311104, Note_on_c, 1, 48, 110
3, 311160, Note_off_c, 1, 43, 100
3, 311168, Note_on_c, 1, 50, 110
3, 311216, Note_off_c, 1, 48, 100
3, 311232, Note_on_c, 1, 55, 110
3, 311280, Note_off_c, 1, 50, 100
3, 311296, Note_on_c, 1, 50, 110
3, 311352, Note_off_c, 1, 55, 100
3, 311360, Note_on_c, 1, 48, 110
3, 311404, Note_off_c, 1, 50, 100
3, 311424, Note_on_c, 1, 43, 110
3, 311480, Note_off_c, 1, 48, 100
3, 311488, Note_on_c, 1, 47, 110
3, 311524, Note_off_c, 1, 43, 100
3, 311552, Note_on_c, 1, 50, 110
3, 311600, Note_off_c, 1, 47, 100
3, 311616, Note_on_c, 1, 55, 110
3, 311664, Note_off_c, 1, 50, 100
3, 311680, Note_on_c, 1, 50, 110
3, 311732, Note_off_c, 1, 55, 100
3, 311744, Note_on_c, 1, 47, 110
3, 311800, Note_off_c, 1, 50, 100
3, 311808, Note_on_c, 1, 36, 110
3, 311848, Note_off_c, 1, 47, 100
3, 311872, Note_on_c, 1, 48, 110
3, 311916, Note_off_c, 1, 36, 100
3, 311936, Note_on_c, 1, 52, 110
3, 311992, Note_off_c, 1, 48, 100
3, 312000, Note_on_c, 1, 55, 110
3, 312052, Note_off_c, 1, 52, 100
3, 312064, Note_on_c, 1, 52, 110
3, 312108, Note_off_c, 1, 55, 100
3, 312128, Note_on_c, 1, 48, 110
3, 312172, Note_off_c, 1, 52, 100
3, 312192, Note_on_c, 1, 36, 110
3, 312232, Note_off_c, 1, 48, 100
3, 312256, Note_on_c, 1, 48, 110
3, 312304, Note_off_c, 1, 36, 100
3, 312320, Note_on_c, 1, 52, 110
3, 312372, Note_off_c, 1, 48, 100
3, 312384, Note_on_c, 1, 55, 110
3, 312424, Note_off_c, 1, 52, 100
3, 312448, Note_on_c, 1, 52, 110
3, 312496, Note_off_c, 1, 55, 100
3, 312512, Note_on_c, 1, 48, 110
3, 312564, Note_off_c, 1, 52, 100
3, 312576, Note_on_c, 1, 43, 110
3, 312632, Note_off_c, 1, 48, 100
3, 312640, Note_on_c, 1, 47, 110
3, 312680, Note_off_c, 1, 43, 100
3, 312704, Note_on_c, 1, 50, 110
3, 312744, Note_off_c, 1, 47, 100
3, 312768, Note_on_c, 1, 55, 110
3, 312824, Note_off_c, 1, 50, 100
3, 312832, Note_on_c, 1, 50, 110
3, 312880, Note_off_c, 1, 55, 100
3, 312896, Note_on_c, 1, 47, 110
3, 312948, Note_off_c, 1, 50, 100
3, 312960, Note_on_c, 1, 38, 110
3, 312996, Note_off_c, 1, 47, 100
3, 313024, Note_on_c, 1, 50, 110
3, 313080, Note_off_c, 1, 38, 100
3, 313088, Note_on_c, 1, 53, 110
3, 313140, Note_off_c, 1, 50, 100
3, 313152, Note_on_c, 1, 57, 110
3, 313208, Note_off_c, 1, 53, 100
3, 313216, Note_on_c, 1, 53, 110
3, 313264, Note_off_c, 1, 57, 100
3, 313280, Note_on_c, 1, 52, 110
3, 313332, Note_off_c, 1, 53, 100
3, 313344, Note_on_c, 1, 45, 110
3, 313400, Note_off_c, 1, 52, 100
3, 313408, Note_on_c, 1, 48, 110
3, 313460, Note_off_c, 1, 45, 100
3, 313472, Note_on_c, 1, 52, 110
3, 313520, Note_off_c, 1, 48, 100
3, 313536, Note_on_c, 1, 57, 110
3, 313588, Note_off_c, 1, 52, 100
3, 313600, Note_on_c, 1, 52, 110
3, 313648, Note_off_c, 1, 57, 100
3, 313664, Note_on_c, 1, 48, 110
3, 313712, Note_off_c, 1, 52, 100
3, 313728, Note_on_c, 1, 45, 110
3, 313784, Note_off_c, 1, 48, 100
3, 313792, Note_on_c, 1, 48, 110
3, 313848, Note_off_c, 1, 45, 100
3, 313856, Note_on_c, 1, 52, 110
3, 313900, Note_off_c, 1, 48, 100
3, 313920, Note_on_c, 1, 57, 110
3, 313968, Note_off_c, 1, 52, 100
3, 313984, Note_on_c, 1, 52, 110
3, 314040, Note_off_c, 1, 57, 100
3, 314048, Note_on_c, 1, 48, 110
3, 314100, Note_off_c, 1, 52, 100
3, 314112, Note_on_c, 1, 38, 110
3, 314152, Note_off_c, 1, 48, 100
3, 314176, Note_on_c, 1, 45, 110
3, 314216, Note_off_c, 1, 38, 100
3, 314240, Note_on_c, 1, 48, 110
3, 314288, Note_off_c, 1, 45, 100
3, 314304, Note_on_c, 1, 50, 110
3, 314348, Note_off_c, 1, 48, 100
3, 314368, Note_on_c, 1, 48, 110
3, 314420, Note_off_c, 1, 50, 100
3, 314432, Note_on_c, 1, 45, 110
3, 314476, Note_off_c, 1, 48, 100
3, 314496, Note_on_c, 1, 38, 110
3, 314540, Note_off_c, 1, 45, 100
3, 314560, Note_on_c, 1, 45, 110
3, 314608, Note_off_c, 1, 38, 100
3, 314624, Note_on_c, 1, 48, 110
3, 314668, Note_off_c, 1, 45, 100
3, 314688, Note_on_c, 1, 50, 110
3, 314740, Note_off_c, 1, 48, 100
3, 314752, Note_on_c, 1, 48, 110
3, 314796, Note_off_c, 1, 50, 100
3, 314816, Note_on_c, 1, 45, 110
3, 314856, Note_off_c, 1, 48, 100
3, 314880, Note_on_c, 1, 43, 110
3, 314920, Note_off_c, 1, 45, 100
3, 314944, Note_on_c, 1, 50, 110
3, 314984, Note_off_c, 1, 43, 100
3, 315008, Note_on_c, 1, 55, 110
3, 315052, Note_off_c, 1, 50, 100
3, 315072, Note_on_c, 1, 43, 110
3, 315120, Note_off_c, 1, 55, 100
3, 315136, Note_on_c, 1, 50, 110
3, 315184, Note_off_c, 1, 43, 100
3, 315200, Note_on_c, 1, 55, 110
3, 315244, Note_off_c, 1, 50, 100
3, 315264, Note_on_c, 1, 43, 110
3, 315308, Note_off_c, 1, 55, 100
3, 315328, Note_on_c, 1, 48, 110
3, 315384, Note_off_c, 1, 43, 100
3, 315392, Note_on_c, 1, 50, 110
3, 315444, Note_off_c, 1, 48, 100
3, 315456, Note_on_c, 1, 43, 110
3, 315500, Note_off_c, 1, 50, 100
3, 315520, Note_on_c, 1, 48, 110
3, 315572, Note_off_c, 1, 43, 100
3, 315584, Note_on_c, 1, 50, 110
3, 315636, Note_off_c, 1, 48, 100
3, 315648, Note_on_c, 1, 43, 110
3, 315692, Note_off_c, 1, 50, 100
3, 315712, Note_on_c, 1, 48, 110
3, 315760, Note_off_c, 1, 43, 100
3, 315776, Note_on_c, 1, 50, 110
3, 315832, Note_off_c, 1, 48, 100
3, 315840, Note_on_c, 1, 43, 110
3, 315880, Note_off_c, 1, 50, 100
3, 315904, Note_on_c, 1, 48, 110
3, 315956, Note_off_c, 1, 43, 100
3, 315968, Note_on_c, 1, 50, 110
3, 316024, Note_off_c, 1, 48, 100
3, 316032, Note_on_c, 1, 43, 110
3, 316088, Note_off_c, 1, 50, 100
3, 316096, Note_on_c, 1, 48, 110
3, 316144, Note_off_c, 1, 43, 100
3, 316160, Note_on_c, 1, 50, 110
3, 316216, Note_off_c, 1, 48, 100
3, 316224, Note_on_c, 1, 43, 110
3, 316260, Note_off_c, 1, 50, 100
3, 316288, Note_on_c, 1, 48, 110
3, 316336, Note_off_c, 1, 43, 100
3, 316352, Note_on_c, 1, 50, 110
3, 316404, Note_off_c, 1, 48, 100
3, 316416, Note_on_c, 1, 43, 110
3, 316460, Note_off_c, 1, 50, 100
3, 316480, Note_on_c, 1, 47, 110
3, 316524, Note_off_c, 1, 43, 100
3, 316544, Note_on_c, 1, 50, 110
3, 316596, Note_off_c, 1, 47, 100
3, 316608, Note_on_c, 1, 43, 110
3, 316656, Note_off_c, 1, 50, 100
3, 316672, Note_on_c, 1, 47, 110
3, 316716, Note_off_c, 1, 43, 100
3, 316736, Note_on_c, 1, 50, 110
3, 316784, Note_off_c, 1, 47, 100
3, 316800, Note_on_c, 1, 43, 80
3, 316856, Note_off_c, 1, 50, 100
3, 316864, Note_on_c, 1, 48, 80
3, 316920, Note_off_c, 1, 43, 100
3, 316928, Note_on_c, 1, 50, 80
3, 316972, Note_off_c, 1, 48, 100
3, 316992, Note_on_c, 1, 57, 80
3, 317036, Note_off_c, 1, 50, 100
3, 317056, Note_on_c, 1, 50, 80
3, 317112, Note_off_c, 1, 57, 100
3, 317120, Note_on_c, 1, 48, 80
3, 317168, Note_off_c, 1, 50, 100
3, 317184, Note_on_c, 1, 43, 80
3, 317228, Note_off_c, 1, 48, 100
3, 317248, Note_on_c, 1, 47, 80
3, 317300, Note_off_c, 1, 43, 100
3, 317312, Note_on_c, 1, 50, 80
3, 317356, Note_off_c, 1, 47, 100
3, 317376, Note_on_c, 1, 55, 80
3, 317428, Note_off_c, 1, 50, 100
3, 317440, Note_on_c, 1, 50, 80
3, 317484, Note_off_c, 1, 55, 100
3, 317504, Note_on_c, 1, 47, 80
3, 317556, Note_off_c, 1, 50, 100
3, 317568, Note_on_c, 1, 43, 80
3, 317624, Note_off_c, 1, 47, 100
3, 317632, Note_on_c, 1, 48, 80
3, 317680, Note_off_c, 1, 43, 100
3, 317696, Note_on_c, 1, 50, 80
3, 317744, Note_off_c, 1, 48, 100
3, 317760, Note_on_c, 1, 57, 80
3, 317816, Note_off_c, 1, 50, 100
3, 317824, Note_on_c, 1, 50, 80
3, 317864, Note_off_c, 1, 57, 100
3, 317888, Note_on_c, 1, 48, 80
3, 317944, Note_off_c, 1, 50, 100
3, 317952, Note_on_c, 1, 43, 80
3, 318000, Note_off_c, 1, 48, 100
3, 318016, Note_on_c, 1, 47, 80
3, 318064, Note_off_c, 1, 43, 100
3, 318080, Note_on_c, 1, 50, 80
3, 318124, Note_off_c, 1, 47, 100
3, 318144, Note_on_c, 1, 55, 80
3, 318196, Note_off_c, 1, 50, 100
3, 318208, Note_on_c, 1, 50, 80
3, 318252, Note_off_c, 1, 55, 100
3, 318272, Note_on_c, 1, 47, 80
3, 318328, Note_off_c, 1, 50, 100
3, 318336, Note_on_c, 1, 43, 120
3, 318388, Note_off_c, 1, 47, 100
3, 318400, Note_on_c, 1, 48, 120
3, 318456, Note_off_c, 1, 43, 100
3, 318464, Note_on_c, 1, 50, 120
3, 318512, Note_off_c, 1, 48, 100
3, 318528, Note_on_c, 1, 43, 120
3, 318572, Note_off_c, 1, 50, 100
3, 318592, Note_on_c, 1, 48, 120
3, 318640, Note_off_c, 1, 43, 100
3, 318656, Note_on_c, 1, 50, 120
3, 318708, Note_off_c, 1, 48, 100
3, 318720, Note_on_c, 1, 43, 120
3, 318764, Note_off_c, 1, 50, 100
3, 318784, Note_on_c, 1, 47, 120
3, 318840, Note_off_c, 1, 43, 100
3, 318848, Note_on_c, 1, 50, 120
3, 318896, Note_off_c, 1, 47, 100
3, 318912, Note_on_c, 1, 43, 120
3, 318956, Note_off_c, 1, 50, 100
3, 318976, Note_on_c, 1, 47, 120
3, 319028, Note_off_c, 1, 43, 100
3, 319040, Note_on_c, 1, 50, 120
3, 319092, Note_off_c, 1, 47, 100
3, 319104, Note_on_c, 1, 43, 120
3, 319152, Note_off_c, 1, 50, 100
3, 319168, Note_on_c, 1, 48, 120
3, 319220, Note_off_c, 1, 43, 100
3, 319232, Note_on_c, 1, 50, 120
3, 319288, Note_off_c, 1, 48, 100
3, 319296, Note_on_c, 1, 43, 120
3, 319352, Note_off_c, 1, 50, 100
3, 319360, Note_on_c, 1, 48, 120
3, 319412, Note_off_c, 1, 43, 100
3, 319424, Note_on_c, 1, 50, 120
3, 319476, Note_off_c, 1, 48, 100
3, 319488, Note_on_c, 1, 43, 120
3, 319540, Note_off_c, 1, 50, 100
3, 319552, Note_on_c, 1, 47, 120
3, 319596, Note_off_c, 1, 43, 100
3, 319616, Note_on_c, 1, 50, 120
3, 319672, Note_off_c, 1, 47, 100
3, 319680, Note_on_c, 1, 43, 120
3, 319728, Note_off_c, 1, 50, 100
3, 319744, Note_on_c, 1, 47, 120
3, 319792, Note_off_c, 1, 43, 100
3, 319808, Note_on_c, 1, 50, 120
3, 319856, Note_off_c, 1, 47, 100
3, 319872, Note_on_c, 1, 43, 80
3, 319924, Note_off_c, 1, 50, 100
3, 319936, Note_on_c, 1, 48, 80
3, 319988, Note_off_c, 1, 43, 100
3, 320000, Note_on_c, 1, 50, 80
3, 320056, Note_off_c, 1, 48, 100
3, 320064, Note_on_c, 1, 57, 80
3, 320120, Note_off_c, 1, 50, 100
3, 320128, Note_on_c, 1, 50, 80
3, 320184, Note_off_c, 1, 57, 100
3, 320192, Note_on_c, 1, 48, 80
3, 320248, Note_off_c, 1, 50, 100
3, 320256, Note_on_c, 1, 43, 80
3, 320304, Note_off_c, 1, 48, 100
3, 320320, Note_on_c, 1, 47, 80
3, 320364, Note_off_c, 1, 43, 100
3, 320384, Note_on_c, 1, 50, 80
3, 320440, Note_off_c, 1, 47, 100
3, 320448, Note_on_c, 1, 55, 80
3, 320492, Note_off_c, 1, 50, 100
3, 320512, Note_on_c, 1, 50, 80
3, 320564, Note_off_c, 1, 55, 100
3, 320576, Note_on_c, 1, 47, 80
3, 320624, Note_off_c, 1, 50, 100
3, 320640, Note_on_c, 1, 43, 80
3, 320692, Note_off_c, 1, 47, 100
3, 320704, Note_on_c, 1, 48, 80
3, 320756, Note_off_c, 1, 43, 100
3, 320768, Note_on_c, 1, 50, 80
3, 320824, Note_off_c, 1, 48, 100
3, 320832, Note_on_c, 1, 57, 80
3, 320884, Note_off_c, 1, 50, 100
3, 320896, Note_on_c, 1, 50, 80
3, 320952, Note_off_c, 1, 57, 100
3, 320960, Note_on_c, 1, 48, 80
3, 321016, Note_off_c, 1, 50, 100
3, 321024, Note_on_c, 1, 43, 90
3, 321072, Note_off_c, 1, 48, 100
3, 321088, Note_on_c, 1, 47, 91
3, 321144, Note_off_c, 1, 43, 100
3, 321152, Note_on_c, 1, 50, 92
3, 321200, Note_off_c, 1, 47, 100
3, 321216, Note_on_c, 1, 55, 93
3, 321260, Note_off_c, 1, 50, 100
3, 321280, Note_on_c, 1, 50, 95
3, 321336, Note_off_c, 1, 55, 100
3, 321344, Note_on_c, 1, 47, 96
3, 321388, Note_off_c, 1, 50, 100
3, 321408, Note_on_c, 1, 43, 97
3, 321452, Note_off_c, 1, 47, 100
3, 321472, Note_on_c, 1, 48, 99
3, 321520, Note_off_c, 1, 43, 100
3, 321536, Note_on_c, 1, 50, 100
3, 321580, Note_off_c, 1, 48, 100
3, 321600, Note_on_c, 1, 57, 101
3, 321640, Note_off_c, 1, 50, 100
3, 321664, Note_on_c, 1, 50, 103
3, 321716, Note_off_c, 1, 57, 100
3, 321728, Note_on_c, 1, 48, 104
3, 321780, Note_off_c, 1, 50, 100
3, 321792, Note_on_c, 1, 43, 105
3, 321844, Note_off_c, 1, 48, 100
3, 321856, Note_on_c, 1, 47, 106
3, 321912, Note_off_c, 1, 43, 100
3, 321920, Note_on_c, 1, 50, 108
3, 321976, Note_off_c, 1, 47, 100
3, 321984, Note_on_c, 1, 55, 109
3, 322036, Note_off_c, 1, 50, 100
3, 322048, Note_on_c, 1, 50, 110
3, 322096, Note_off_c, 1, 55, 100
3, 322112, Note_on_c, 1, 47, 112
3, 322156, Note_off_c, 1, 50, 100
3, 322176, Note_on_c, 1, 43, 113
3, 322220, Note_off_c, 1, 47, 100
3, 322240, Note_on_c, 1, 48, 114
3, 322288, Note_off_c, 1, 43, 100
3, 322304, Note_on_c, 1, 50, 116
3, 322360, Note_off_c, 1, 48, 100
3, 322368, Note_on_c, 1, 57, 117
3, 322416, Note_off_c, 1, 50, 100
3, 322432, Note_on_c, 1, 50, 118
3, 322488, Note_off_c, 1, 57, 100
3, 322496, Note_on_c, 1, 48, 119
3, 322544, Note_off_c, 1, 50, 100
3, 322556, Note_off_c, 1, 48, 100
3, 322560, Control_c, 1, 64, 127
3, 322560, Note_on_c, 1, 55, 120
3, 322560, Note_on_c, 1, 50, 120
3, 322560, Note_on_c, 1, 47, 120
3, 322560, Note_on_c, 1, 43, 120
3, 322940, Note_off_c, 1, 55, 100
3, 322940, Note_off_c, 1, 50, 100
3, 322940, Note_off_c, 1, 47, 100
3, 323324, Note_off_c, 1, 43, 100
3, 323712, Note_on_c, 1, 55, 120
3, 323712, Note_on_c, 1, 50, 120
3, 323712, Note_on_c, 1, 47, 120
3, 323712, Note_on_c, 1, 43, 120
3, 324092, Note_off_c, 1, 55, 100
3, 324092, Note_off_c, 1, 50, 100
3, 324092, Note_off_c, 1, 47, 100
3, 324092, Note_off_c, 1, 43, 100
3, 324096, Note_on_c, 1, 43, 120
3, 324096, Note_on_c, 1, 31, 120
3, 324860, Note_off_c, 1, 43, 100
3, 324860, Note_off_c, 1, 31, 100
3, 325248, Note_on_c, 1, 55, 120
3, 325248, Note_on_c, 1, 50, 120
3, 325248, Note_on_c, 1, 47, 120
3, 325248, Note_on_c, 1, 43, 120
3, 325628, Note_off_c, 1, 55, 100
3, 325628, Note_off_c, 1, 50, 100
3, 325628, Note_off_c, 1, 47, 100
3, 325628, Note_off_c, 1, 43, 100
3, 325632, Note_on_c, 1, 43, 120
3, 325632, Note_on_c, 1, 31, 120
3, 326396, Note_off_c, 1, 43, 100
3, 326396, Note_off_c, 1, 31, 100
3, 326784, Note_on_c, 1, 55, 120
3, 326784, Note_on_c, 1, 50, 120
3, 326784, Note_on_c, 1, 47, 120
3, 326784, Note_on_c, 1, 43, 120
3, 327164, Note_off_c, 1, 55, 100
3, 327164, Note_off_c, 1, 50, 100
3, 327164, Note_off_c, 1, 47, 100
3, 327164, Note_off_c, 1, 43, 100
3, 327168, Note_on_c, 1, 43, 120
3, 327168, Note_on_c, 1, 31, 120
3, 327932, Note_off_c, 1, 43, 100
3, 327932, Note_off_c, 1, 31, 100
3, 328320, Note_on_c, 1, 55, 120
3, 328320, Note_on_c, 1, 50, 120
3, 328320, Note_on_c, 1, 47, 120
3, 328320, Note_on_c, 1, 43, 120
3, 328700, Note_off_c, 1, 55, 100
3, 328700, Note_off_c, 1, 50, 100
3, 328700, Note_off_c, 1, 47, 100
3, 328700, Note_off_c, 1, 43, 100
3, 328704, Note_on_c, 1, 43, 120
3, 328704, Note_on_c, 1, 31, 120
3, 329468, Note_off_c, 1, 43, 100
3, 329468, Note_off_c, 1, 31, 100
3, 329472, Note_on_c, 1, 65, 115
3, 329472, Note_on_c, 1, 62, 115
3, 329472, Note_on_c, 1, 59, 115
3, 329472, Note_on_c, 1, 55, 115
3, 330236, Note_off_c, 1, 65, 100
3, 330236, Note_off_c, 1, 62, 100
3, 330236, Note_off_c, 1, 59, 100
3, 330236, Note_off_c, 1, 55, 100
3, 330240, Note_on_c, 1, 65, 103
3, 330240, Note_on_c, 1, 62, 103
3, 330240, Note_on_c, 1, 59, 103
3, 330240, Note_on_c, 1, 55, 103
3, 331004, Note_off_c, 1, 65, 100
3, 331004, Note_off_c, 1, 62, 100
3, 331004, Note_off_c, 1, 59, 100
3, 331004, Note_off_c, 1, 55, 100
3, 331008, Note_on_c, 1, 65, 92
3, 331008, Note_on_c, 1, 62, 92
3, 331008, Note_on_c, 1, 59, 92
3, 331008, Note_on_c, 1, 55, 92
3, 331772, Note_off_c, 1, 65, 100
3, 331772, Note_off_c, 1, 62, 100
3, 331772, Note_off_c, 1, 59, 100
3, 331772, Note_off_c, 1, 55, 100
3, 331776, Note_on_c, 1, 65, 81
3, 331776, Note_on_c, 1, 62, 81
3, 331776, Note_on_c, 1, 59, 81
3, 331776, Note_on_c, 1, 55, 81
3, 332540, Note_off_c, 1, 65, 100
3, 332540, Note_off_c, 1, 62, 100
3, 332540, Note_off_c, 1, 59, 100
3, 332540, Note_off_c, 1, 55, 100
3, 332544, Note_on_c, 1, 53, 80
3, 332544, Note_on_c, 1, 50, 80
3, 332544, Note_on_c, 1, 47, 80
3, 332544, Note_on_c, 1, 43, 80
3, 333308, Note_off_c, 1, 53, 100
3, 333308, Note_off_c, 1, 50, 100
3, 333308, Note_off_c, 1, 47, 100
3, 333308, Note_off_c, 1, 43, 100
3, 333312, Note_on_c, 1, 53, 80
3, 333312, Note_on_c, 1, 50, 80
3, 333312, Note_on_c, 1, 47, 80
3, 333312, Note_on_c, 1, 43, 80
3, 334076, Note_off_c, 1, 53, 100
3, 334076, Note_off_c, 1, 50, 100
3, 334076, Note_off_c, 1, 47, 100
3, 334076, Note_off_c, 1, 43, 100
3, 334080, Note_on_c, 1, 53, 80
3, 334080, Note_on_c, 1, 50, 80
3, 334080, Note_on_c, 1, 47, 80
3, 334080, Note_on_c, 1, 43, 80
3, 334844, Note_off_c, 1, 53, 100
3, 334844, Note_off_c, 1, 50, 100
3, 334844, Note_off_c, 1, 47, 100
3, 334844, Note_off_c, 1, 43, 100
3, 334848, Note_on_c, 1, 53, 70
3, 334848, Note_on_c, 1, 50, 70
3, 334848, Note_on_c, 1, 47, 70
3, 334848, Note_on_c, 1, 43, 70
3, 335612, Note_off_c, 1, 53, 100
3, 335612, Note_off_c, 1, 50, 100
3, 335612, Note_off_c, 1, 47, 100
3, 335612, Note_off_c, 1, 43, 100
3, 336376, Control_c, 1, 64, 0
3, 336384, Note_on_c, 1, 52, 70
3, 336384, Note_on_c, 1, 49, 70
3, 336384, Note_on_c, 1, 46, 70
3, 336384, Note_on_c, 1, 43, 70
3, 337148, Note_off_c, 1, 52, 100
3, 337148, Note_off_c, 1, 49, 100
3, 337148, Note_off_c, 1, 46, 100
3, 337148, Note_off_c, 1, 43, 100
3, 337920, Note_on_c, 1, 51, 70
3, 337920, Note_on_c, 1, 48, 70
3, 337920, Note_on_c, 1, 45, 70
3, 337920, Note_on_c, 1, 43, 70
3, 338684, Note_off_c, 1, 51, 100
3, 338684, Note_off_c, 1, 48, 100
3, 338684, Note_off_c, 1, 45, 100
3, 338684, Note_off_c, 1, 43, 100
3, 339456, Control_c, 1, 64, 127
3, 339456, Note_on_c, 1, 43, 60
3, 340224, Note_on_c, 1, 79, 60
3, 340608, Note_on_c, 1, 55, 60
3, 340988, Note_off_c, 1, 43, 100
3, 340992, Note_on_c, 1, 43, 60
3, 341372, Note_off_c, 1, 79, 100
3, 341376, Note_on_c, 1, 31, 60
3, 341752, Control_c, 1, 64, 0
3, 341756, Note_off_c, 1, 55, 100
3, 341756, Note_off_c, 1, 43, 100
3, 341756, Note_off_c, 1, 31, 100
3, 341760, Control_c, 1, 64, 127
3, 341760, Note_on_c, 1, 48, 110
3, 341760, Note_on_c, 1, 36, 110
3, 342136, Note_off_c, 1, 48, 100
3, 342136, Note_off_c, 1, 36, 100
3, 342144, Note_on_c, 1, 64, 80
3, 342336, Note_on_c, 1, 67, 80
3, 342520, Note_off_c, 1, 64, 100
3, 342528, Note_on_c, 1, 64, 80
3, 342712, Note_off_c, 1, 67, 100
3, 342720, Note_on_c, 1, 67, 80
3, 342904, Note_off_c, 1, 64, 100
3, 342912, Note_on_c, 1, 64, 80
3, 343096, Note_off_c, 1, 67, 100
3, 343104, Note_on_c, 1, 67, 80
3, 343288, Note_off_c, 1, 64, 100
3, 343296, Note_on_c, 1, 64, 80
3, 343480, Note_off_c, 1, 67, 100
3, 343488, Note_on_c, 1, 67, 80
3, 343672, Note_off_c, 1, 64, 100
3, 343680, Note_on_c, 1, 64, 80
3, 343864, Note_off_c, 1, 67, 100
3, 343872, Note_on_c, 1, 67, 80
3, 344056, Note_off_c, 1, 64, 100
3, 344064, Note_on_c, 1, 64, 80
3, 344248, Note_off_c, 1, 67, 100
3, 344256, Note_on_c, 1, 67, 80
3, 344440, Note_off_c, 1, 64, 100
3, 344448, Note_on_c, 1, 64, 80
3, 344632, Note_off_c, 1, 67, 100
3, 344640, Note_on_c, 1, 67, 80
3, 344824, Note_off_c, 1, 64, 100
3, 344832, Note_on_c, 1, 65, 80
3, 345016, Note_off_c, 1, 67, 100
3, 345024, Note_on_c, 1, 67, 80
3, 345208, Note_off_c, 1, 65, 100
3, 345216, Note_on_c, 1, 65, 80
3, 345400, Note_off_c, 1, 67, 100
3, 345408, Note_on_c, 1, 67, 80
3, 345592, Note_off_c, 1, 65, 100
3, 345600, Note_on_c, 1, 64, 80
3, 345784, Note_off_c, 1, 67, 100
3, 345792, Note_on_c, 1, 67, 80
3, 345976, Note_off_c, 1, 64, 100
3, 345984, Note_on_c, 1, 64, 80
3, 346168, Note_off_c, 1, 67, 100
3, 346176, Note_on_c, 1, 67, 80
3, 346360, Note_off_c, 1, 64, 100
3, 346368, Note_on_c, 1, 65, 80
3, 346552, Note_off_c, 1, 67, 100
3, 346560, Note_on_c, 1, 67, 80
3, 346744, Note_off_c, 1, 65, 100
3, 346752, Note_on_c, 1, 65, 80
3, 346936, Note_off_c, 1, 67, 100
3, 346944, Note_on_c, 1, 67, 80
3, 347128, Note_off_c, 1, 65, 100
3, 347136, Note_on_c, 1, 64, 80
3, 347320, Note_off_c, 1, 67, 100
3, 347328, Note_on_c, 1, 67, 80
3, 347512, Note_off_c, 1, 64, 100
3, 347520, Note_on_c, 1, 64, 80
3, 347704, Note_off_c, 1, 67, 100
3, 347712, Note_on_c, 1, 67, 80
3, 347896, Note_off_c, 1, 64, 100
3, 347904, Note_on_c, 1, 60, 80
3, 347904, Note_on_c, 1, 64, 80
3, 348088, Note_off_c, 1, 67, 100
3, 348096, Note_on_c, 1, 67, 80
3, 348280, Note_off_c, 1, 60, 100
3, 348280, Note_off_c, 1, 64, 100
3, 348288, Note_on_c, 1, 60, 80
3, 348288, Note_on_c, 1, 64, 80
3, 348472, Note_off_c, 1, 67, 100
3, 348480, Note_on_c, 1, 67, 80
3, 348664, Note_off_c, 1, 60, 100
3, 348664, Note_off_c, 1, 64, 100
3, 348672, Note_on_c, 1, 60, 80
3, 348672, Note_on_c, 1, 64, 80
3, 348856, Note_off_c, 1, 67, 100
3, 348864, Note_on_c, 1, 67, 80
3, 349048, Note_off_c, 1, 60, 100
3, 349048, Note_off_c, 1, 64, 100
3, 349056, Note_on_c, 1, 60, 80
3, 349056, Note_on_c, 1, 64, 80
3, 349240, Note_off_c, 1, 67, 100
3, 349248, Note_on_c, 1, 67, 80
3, 349432, Note_off_c, 1, 60, 100
3, 349432, Note_off_c, 1, 64, 100
3, 349440, Note_on_c, 1, 60, 80
3, 349440, Note_on_c, 1, 65, 80
3, 349624, Note_off_c, 1, 67, 100
3, 349632, Note_on_c, 1, 67, 80
3, 349816, Note_off_c, 1, 60, 100
3, 349816, Note_off_c, 1, 65, 100
3, 349824, Note_on_c, 1, 60, 80
3, 349824, Note_on_c, 1, 65, 80
3, 350008, Note_off_c, 1, 67, 100
3, 350016, Note_on_c, 1, 67, 80
3, 350200, Note_off_c, 1, 60, 100
3, 350200, Note_off_c, 1, 65, 100
3, 350208, Note_on_c, 1, 60, 80
3, 350208, Note_on_c, 1, 64, 80
3, 350392, Note_off_c, 1, 67, 100
3, 350400, Note_on_c, 1, 67, 80
3, 350584, Note_off_c, 1, 60, 100
3, 350584, Note_off_c, 1, 64, 100
3, 350592, Note_on_c, 1, 60, 80
3, 350592, Note_on_c, 1, 64, 80
3, 350776, Note_off_c, 1, 67, 100
3, 350784, Note_on_c, 1, 67, 80
3, 350968, Note_off_c, 1, 60, 100
3, 350968, Note_off_c, 1, 64, 100
3, 350976, Note_on_c, 1, 60, 80
3, 350976, Note_on_c, 1, 64, 80
3, 351160, Note_off_c, 1, 67, 100
3, 351168, Note_on_c, 1, 67, 80
3, 351352, Note_off_c, 1, 60, 100
3, 351352, Note_off_c, 1, 64, 100
3, 351360, Note_on_c, 1, 60, 80
3, 351360, Note_on_c, 1, 64, 80
3, 351544, Note_off_c, 1, 67, 100
3, 351552, Note_on_c, 1, 67, 80
3, 351736, Note_off_c, 1, 60, 100
3, 351736, Note_off_c, 1, 64, 100
3, 351744, Note_on_c, 1, 60, 80
3, 351744, Note_on_c, 1, 64, 80
3, 351928, Note_off_c, 1, 67, 100
3, 351936, Note_on_c, 1, 67, 80
3, 352120, Note_off_c, 1, 60, 100
3, 352120, Note_off_c, 1, 64, 100
3, 352128, Note_on_c, 1, 60, 80
3, 352128, Note_on_c, 1, 64, 80
3, 352312, Note_off_c, 1, 67, 100
3, 352320, Note_on_c, 1, 67, 80
3, 352504, Note_off_c, 1, 60, 100
3, 352504, Note_off_c, 1, 64, 100
3, 352512, Note_on_c, 1, 60, 80
3, 352512, Note_on_c, 1, 65, 80
3, 352696, Note_off_c, 1, 67, 100
3, 352704, Note_on_c, 1, 67, 80
3, 352888, Note_off_c, 1, 60, 100
3, 352888, Note_off_c, 1, 65, 100
3, 352896, Note_on_c, 1, 60, 80
3, 352896, Note_on_c, 1, 65, 80
3, 353080, Note_off_c, 1, 67, 100
3, 353088, Note_on_c, 1, 67, 80
3, 353272, Note_off_c, 1, 60, 100
3, 353272, Note_off_c, 1, 65, 100
3, 353280, Note_on_c, 1, 60, 80
3, 353280, Note_on_c, 1, 64, 80
3, 353464, Note_off_c, 1, 67, 100
3, 353472, Note_on_c, 1, 67, 80
3, 353656, Note_off_c, 1, 60, 100
3, 353656, Note_off_c, 1, 64, 100
3, 353664, Note_on_c, 1, 60, 80
3, 353664, Note_on_c, 1, 64, 80
3, 353848, Note_off_c, 1, 67, 100
3, 353856, Note_on_c, 1, 67, 80
3, 354040, Note_off_c, 1, 60, 100
3, 354040, Note_off_c, 1, 64, 100
3, 354048, Note_on_c, 1, 65, 80
3, 354048, Note_on_c, 1, 60, 80
3, 354232, Note_off_c, 1, 67, 100
3, 354240, Note_on_c, 1, 67, 84
3, 354424, Note_off_c, 1, 65, 100
3, 354424, Note_off_c, 1, 60, 100
3, 354432, Note_on_c, 1, 65, 89
3, 354432, Note_on_c, 1, 60, 89
3, 354616, Note_off_c, 1, 67, 100
3, 354624, Note_on_c, 1, 67, 94
3, 354800, Control_c, 1, 64, 0
3, 354808, Note_off_c, 1, 65, 100
3, 354808, Note_off_c, 1, 60, 100
3, 354808, Note_off_c, 1, 67, 100
3, 354816, Note_on_c, 1, 64, 99
3, 355000, Note_off_c, 1, 64, 100
3, 355008, Note_on_c, 1, 63, 110
3, 355192, Note_off_c, 1, 63, 100
3, 355200, Note_on_c, 1, 64, 110
3, 355384, Note_off_c, 1, 64, 100
3, 355392, Note_on_c, 1, 60, 110
3, 355576, Note_off_c, 1, 60, 100
3, 355584, Note_on_c, 1, 62, 110
3, 355768, Note_off_c, 1, 62, 100
3, 355776, Note_on_c, 1, 61, 110
3, 355960, Note_off_c, 1, 61, 100
3, 355968, Note_on_c, 1, 62, 110
3, 356152, Note_off_c, 1, 62, 100
3, 356160, Note_on_c, 1, 59, 110
3, 356344, Note_off_c, 1, 59, 100
3, 356352, Note_on_c, 1, 60, 110
3, 356536, Note_off_c, 1, 60, 100
3, 356544, Note_on_c, 1, 59, 110
3, 356728, Note_off_c, 1, 59, 100
3, 356736, Note_on_c, 1, 60, 110
3, 356920, Note_off_c, 1, 60, 100
3, 356928, Note_on_c, 1, 57, 110
3, 357112, Note_off_c, 1, 57, 100
3, 357120, Note_on_c, 1, 59, 110
3, 357304, Note_off_c, 1, 59, 100
3, 357312, Note_on_c, 1, 58, 110
3, 357496, Note_off_c, 1, 58, 100
3, 357504, Note_on_c, 1, 59, 110
3, 357688, Note_off_c, 1, 59, 100
3, 357696, Note_on_c, 1, 55, 110
3, 357880, Note_off_c, 1, 55, 100
3, 357888, Note_on_c, 1, 57, 110
3, 358072, Note_off_c, 1, 57, 100
3, 358080, Note_on_c, 1, 56, 110
3, 358264, Note_off_c, 1, 56, 100
3, 358272, Note_on_c, 1, 57, 110
3, 358456, Note_off_c, 1, 57, 100
3, 358464, Note_on_c, 1, 53, 110
3, 358648, Note_off_c, 1, 53, 100
3, 358656, Note_on_c, 1, 55, 110
3, 358840, Note_off_c, 1, 55, 100
3, 358848, Note_on_c, 1, 54, 110
3, 359032, Note_off_c, 1, 54, 100
3, 359040, Note_on_c, 1, 55, 110
3, 359224, Note_off_c, 1, 55, 100
3, 359232, Note_on_c, 1, 52, 110
3, 359416, Note_off_c, 1, 52, 100
3, 359424, Note_on_c, 1, 53, 110
3, 359608, Note_off_c, 1, 53, 100
3, 359616, Note_on_c, 1, 52, 110
3, 359800, Note_off_c, 1, 52, 100
3, 359808, Note_on_c, 1, 53, 110
3, 359992, Note_off_c, 1, 53, 100
3, 360000, Note_on_c, 1, 50, 110
3, 360184, Note_off_c, 1, 50, 100
3, 360192, Note_on_c, 1, 52, 110
3, 360376, Note_off_c, 1, 52, 100
3, 360384, Note_on_c, 1, 51, 110
3, 360568, Note_off_c, 1, 51, 100
3, 360576, Note_on_c, 1, 52, 110
3, 360760, Note_off_c, 1, 52, 100
3, 360768, Note_on_c, 1, 48, 110
3, 360952, Note_off_c, 1, 48, 100
3, 360960, Note_on_c, 1, 60, 110
3, 361144, Note_off_c, 1, 60, 100
3, 361152, Note_on_c, 1, 59, 110
3, 361336, Note_off_c, 1, 59, 100
3, 361344, Note_on_c, 1, 60, 110
3, 361528, Note_off_c, 1, 60, 100
3, 361536, Note_on_c, 1, 64, 110
3, 361720, Note_off_c, 1, 64, 100
3, 361728, Note_on_c, 1, 59, 110
3, 361912, Note_off_c, 1, 59, 100
3, 361920, Note_on_c, 1, 58, 110
3, 362104, Note_off_c, 1, 58, 100
3, 362112, Note_on_c, 1, 59, 110
3, 362296, Note_off_c, 1, 59, 100
3, 362304, Note_on_c, 1, 62, 110
3, 362488, Note_off_c, 1, 62, 100
3, 362496, Note_on_c, 1, 57, 110
3, 362680, Note_off_c, 1, 57, 100
3, 362688, Note_on_c, 1, 56, 110
3, 362872, Note_off_c, 1, 56, 100
3, 362880, Note_on_c, 1, 57, 110
3, 363064, Note_off_c, 1, 57, 100
3, 363072, Note_on_c, 1, 60, 110
3, 363256, Note_off_c, 1, 60, 100
3, 363264, Note_on_c, 1, 55, 110
3, 363448, Note_off_c, 1, 55, 100
3, 363456, Note_on_c, 1, 54, 110
3, 363640, Note_off_c, 1, 54, 100
3, 363648, Note_on_c, 1, 55, 110
3, 363832, Note_off_c, 1, 55, 100
3, 363840, Note_on_c, 1, 59, 110
3, 364024, Note_off_c, 1, 59, 100
3, 364032, Note_on_c, 1, 53, 110
3, 364216, Note_off_c, 1, 53, 100
3, 364224, Note_on_c, 1, 52, 110
3, 364408, Note_off_c, 1, 52, 100
3, 364416, Note_on_c, 1, 53, 110
3, 364600, Note_off_c, 1, 53, 100
3, 364608, Note_on_c, 1, 57, 110
3, 364792, Note_off_c, 1, 57, 100
3, 364800, Note_on_c, 1, 52, 110
3, 364984, Note_off_c, 1, 52, 100
3, 364992, Note_on_c, 1, 51, 110
3, 365176, Note_off_c, 1, 51, 100
3, 365184, Note_on_c, 1, 52, 110
3, 365368, Note_off_c, 1, 52, 100
3, 365376, Note_on_c, 1, 55, 110
3, 365560, Note_off_c, 1, 55, 100
3, 365568, Note_on_c, 1, 50, 110
3, 365752, Note_off_c, 1, 50, 100
3, 365760, Note_on_c, 1, 49, 110
3, 365944, Note_off_c, 1, 49, 100
3, 365952, Note_on_c, 1, 50, 110
3, 366136, Note_off_c, 1, 50, 100
3, 366144, Note_on_c, 1, 53, 110
3, 366328, Note_off_c, 1, 53, 100
3, 366336, Note_on_c, 1, 48, 120
3, 366712, Note_off_c, 1, 48, 100
3, 366912, Note_on_c, 1, 48, 120
3, 367096, Note_off_c, 1, 48, 100
3, 367104, Note_on_c, 1, 43, 120
3, 367480, Note_off_c, 1, 43, 100
3, 367680, Note_on_c, 1, 43, 120
3, 367864, Note_off_c, 1, 43, 100
3, 367872, Note_on_c, 1, 50, 120
3, 368248, Note_off_c, 1, 50, 100
3, 368448, Note_on_c, 1, 50, 120
3, 368632, Note_off_c, 1, 50, 100
3, 368640, Note_on_c, 1, 45, 120
3, 369016, Note_off_c, 1, 45, 100
3, 369216, Note_on_c, 1, 45, 120
3, 369400, Note_off_c, 1, 45, 100
3, 369408, Note_on_c, 1, 53, 120
3, 369784, Note_off_c, 1, 53, 100
3, 369984, Note_on_c, 1, 53, 120
3, 370168, Note_off_c, 1, 53, 100
3, 370176, Note_on_c, 1, 48, 120
3, 370552, Note_off_c, 1, 48, 100
3, 370752, Note_on_c, 1, 48, 120
3, 370936, Note_off_c, 1, 48, 100
3, 370944, Note_on_c, 1, 55, 120
3, 371320, Note_off_c, 1, 55, 100
3, 371520, Note_on_c, 1, 55, 120
3, 371704, Note_off_c, 1, 55, 100
3, 371712, Note_on_c, 1, 43, 120
3, 372088, Note_off_c, 1, 43, 100
3, 372288, Note_on_c, 1, 43, 120
3, 372472, Note_off_c, 1, 43, 100
3, 372480, Note_on_c, 1, 48, 120
3, 372856, Note_off_c, 1, 48, 100
3, 373056, Note_on_c, 1, 60, 120
3, 373240, Note_off_c, 1, 60, 100
3, 373248, Note_on_c, 1, 55, 120
3, 373624, Note_off_c, 1, 55, 100
3, 373824, Note_on_c, 1, 55, 120
3, 374008, Note_off_c, 1, 55, 100
3, 374016, Note_on_c, 1, 50, 120
3, 374392, Note_off_c, 1, 50, 100
3, 374592, Note_on_c, 1, 62, 120
3, 374776, Note_off_c, 1, 62, 100
3, 374784, Note_on_c, 1, 57, 120
3, 375160, Note_off_c, 1, 57, 100
3, 375360, Note_on_c, 1, 57, 120
3, 375544, Note_off_c, 1, 57, 100
3, 375552, Note_on_c, 1, 53, 120
3, 375928, Note_off_c, 1, 53, 100
3, 376128, Note_on_c, 1, 65, 120
3, 376312, Note_off_c, 1, 65, 100
3, 376320, Note_on_c, 1, 53, 120
3, 376696, Note_off_c, 1, 53, 100
3, 376896, Note_on_c, 1, 65, 120
3, 377080, Note_off_c, 1, 65, 100
3, 377088, Note_on_c, 1, 53, 120
3, 377464, Note_off_c, 1, 53, 100
3, 377664, Note_on_c, 1, 65, 120
3, 377848, Note_off_c, 1, 65, 100
3, 377856, Note_on_c, 1, 53, 120
3, 378232, Note_off_c, 1, 53, 100
3, 378432, Note_on_c, 1, 65, 120
3, 378616, Note_off_c, 1, 65, 100
3, 378624, Control_c, 1, 64, 127
3, 378624, Note_on_c, 1, 41, 120
3, 379008, Note_on_c, 1, 57, 80
3, 379200, Note_on_c, 1, 60, 80
3, 379384, Note_off_c, 1, 41, 100
3, 379384, Note_off_c, 1, 57, 100
3, 379392, Note_on_c, 1, 57, 80
3, 379576, Note_off_c, 1, 60, 100
3, 379584, Note_on_c, 1, 60, 80
3, 379768, Note_off_c, 1, 57, 100
3, 379776, Note_on_c, 1, 57, 80
3, 379960, Note_off_c, 1, 60, 100
3, 379968, Note_on_c, 1, 60, 80
3, 380152, Note_off_c, 1, 57, 100
3, 380160, Note_on_c, 1, 58, 80
3, 380344, Note_off_c, 1, 60, 100
3, 380352, Note_on_c, 1, 60, 80
3, 380536, Note_off_c, 1, 58, 100
3, 380544, Note_on_c, 1, 58, 80
3, 380728, Note_off_c, 1, 60, 100
3, 380736, Note_on_c, 1, 60, 80
3, 380920, Note_off_c, 1, 58, 100
3, 380928, Note_on_c, 1, 57, 80
3, 381112, Note_off_c, 1, 60, 100
3, 381120, Note_on_c, 1, 60, 80
3, 381304, Note_off_c, 1, 57, 100
3, 381312, Note_on_c, 1, 57, 80
3, 381496, Note_off_c, 1, 60, 100
3, 381504, Note_on_c, 1, 60, 80
3, 381688, Note_off_c, 1, 57, 100
3, 381696, Note_on_c, 1, 57, 80
3, 381880, Note_off_c, 1, 60, 100
3, 381888, Note_on_c, 1, 60, 80
3, 382072, Note_off_c, 1, 57, 100
3, 382080, Note_on_c, 1, 57, 80
3, 382264, Note_off_c, 1, 60, 100
3, 382272, Note_on_c, 1, 60, 80
3, 382456, Note_off_c, 1, 57, 100
3, 382464, Note_on_c, 1, 57, 80
3, 382648, Note_off_c, 1, 60, 100
3, 382656, Note_on_c, 1, 60, 80
3, 382840, Note_off_c, 1, 57, 100
3, 382848, Note_on_c, 1, 57, 80
3, 383032, Note_off_c, 1, 60, 100
3, 383040, Note_on_c, 1, 60, 80
3, 383224, Note_off_c, 1, 57, 100
3, 383232, Note_on_c, 1, 58, 80
3, 383416, Note_off_c, 1, 60, 100
3, 383424, Note_on_c, 1, 60, 80
3, 383608, Note_off_c, 1, 58, 100
3, 383616, Note_on_c, 1, 58, 80
3, 383800, Note_off_c, 1, 60, 100
3, 383808, Note_on_c, 1, 60, 80
3, 383992, Note_off_c, 1, 58, 100
3, 384000, Note_on_c, 1, 57, 80
3, 384184, Note_off_c, 1, 60, 100
3, 384192, Note_on_c, 1, 60, 80
3, 384376, Note_off_c, 1, 57, 100
3, 384384, Note_on_c, 1, 57, 80
3, 384568, Note_off_c, 1, 60, 100
3, 384576, Note_on_c, 1, 60, 80
3, 384752, Control_c, 1, 64, 0
3, 384760, Note_off_c, 1, 57, 100
3, 384760, Note_off_c, 1, 60, 100
3, 384768, Control_c, 1, 64, 127
3, 384768, Note_on_c, 1, 43, 107
3, 385152, Note_on_c, 1, 59, 70
3, 385528, Note_off_c, 1, 43, 100
3, 385536, Note_on_c, 1, 62, 70
3, 385912, Note_off_c, 1, 59, 100
3, 385920, Note_on_c, 1, 59, 70
3, 386296, Note_off_c, 1, 62, 100
3, 386304, Note_on_c, 1, 60, 70
3, 386680, Note_off_c, 1, 59, 100
3, 386688, Note_on_c, 1, 64, 70
3, 387064, Note_off_c, 1, 60, 100
3, 387072, Note_on_c, 1, 62, 70
3, 387448, Note_off_c, 1, 64, 100
3, 387456, Note_on_c, 1, 59, 70
3, 387832, Note_off_c, 1, 62, 100
3, 387840, Note_on_c, 1, 55, 70
3, 388216, Note_off_c, 1, 59, 100
3, 388224, Note_on_c, 1, 59, 70
3, 388600, Note_off_c, 1, 55, 100
3, 388608, Note_on_c, 1, 62, 70
3, 388984, Note_off_c, 1, 59, 100
3, 388992, Note_on_c, 1, 59, 70
3, 389360, Control_c, 1, 64, 0
3, 389368, Note_off_c, 1, 62, 100
3, 389368, Note_off_c, 1, 59, 100
3, 389376, Note_on_c, 1, 60, 70
3, 389752, Note_off_c, 1, 60, 100
3, 389760, Note_on_c, 1, 64, 70
3, 390136, Note_off_c, 1, 64, 100
3, 390144, Note_on_c, 1, 62, 70
3, 390520, Note_off_c, 1, 62, 100
3, 390528, Note_on_c, 1, 59, 70
3, 390904, Note_off_c, 1, 59, 100
3, 390912, Note_on_c, 1, 57, 70
3, 391288, Note_off_c, 1, 57, 100
3, 391296, Note_on_c, 1, 60, 70
3, 391672, Note_off_c, 1, 60, 100
3, 391680, Note_on_c, 1, 59, 70
3, 392056, Note_off_c, 1, 59, 100
3, 392064, Note_on_c, 1, 55, 70
3, 392440, Note_off_c, 1, 55, 100
3, 392448, Note_on_c, 1, 53, 70
3, 392824, Note_off_c, 1, 53, 100
3, 392832, Note_on_c, 1, 57, 70
3, 393208, Note_off_c, 1, 57, 100
3, 393216, Note_on_c, 1, 55, 70
3, 393592, Note_off_c, 1, 55, 100
3, 393600, Note_on_c, 1, 52, 70
3, 393976, Note_off_c, 1, 52, 100
3, 393984, Note_on_c, 1, 50, 70
3, 394360, Note_off_c, 1, 50, 100
3, 394368, Note_on_c, 1, 53, 70
3, 394744, Note_off_c, 1, 53, 100
3, 394752, Note_on_c, 1, 48, 70
3, 395128, Note_off_c, 1, 48, 100
3, 395136, Note_on_c, 1, 52, 70
3, 395512, Note_off_c, 1, 52, 100
3, 395520, Note_on_c, 1, 47, 70
3, 395896, Note_off_c, 1, 47, 100
3, 395904, Note_on_c, 1, 52, 70
3, 396280, Note_off_c, 1, 52, 100
3, 396288, Note_on_c, 1, 45, 70
3, 396664, Note_off_c, 1, 45, 100
3, 396672, Note_on_c, 1, 48, 70
3, 397048, Note_off_c, 1, 48, 100
3, 397056, Note_on_c, 1, 43, 70
3, 397432, Note_off_c, 1, 43, 100
3, 397440, Note_on_c, 1, 47, 72
3, 397816, Note_off_c, 1, 47, 100
3, 397824, Note_on_c, 1, 41, 75
3, 398200, Note_off_c, 1, 41, 100
3, 398208, Note_on_c, 1, 45, 78
3, 398584, Note_off_c, 1, 45, 100
3, 398592, Note_on_c, 1, 40, 81
3, 398968, Note_off_c, 1, 40, 100
3, 398976, Note_on_c, 1, 43, 84
3, 399352, Note_off_c, 1, 43, 100
3, 399360, Note_on_c, 1, 38, 87
3, 399360, Note_on_c, 1, 31, 87
3, 399736, Note_off_c, 1, 38, 100
3, 399736, Note_off_c, 1, 31, 100
3, 399744, Note_on_c, 1, 43, 89
3, 400120, Note_off_c, 1, 43, 100
3, 400128, Control_c, 1, 64, 127
3, 400128, Note_on_c, 1, 44, 120
3, 400128, Note_on_c, 1, 32, 120
3, 400888, Note_off_c, 1, 44, 100
3, 400888, Note_off_c, 1, 32, 100
3, 400896, Note_on_c, 1, 60, 120
3, 400896, Note_on_c, 1, 56, 120
3, 400896, Note_on_c, 1, 63, 120
3, 401656, Note_off_c, 1, 60, 100
3, 401656, Note_off_c, 1, 56, 100
3, 401656, Note_off_c, 1, 63, 100
3, 401664, Note_on_c, 1, 63, 120
3, 401664, Note_on_c, 1, 60, 120
3, 401664, Note_on_c, 1, 56, 120
3, 403184, Control_c, 1, 64, 0
3, 403192, Note_off_c, 1, 63, 100
3, 403192, Note_off_c, 1, 60, 100
3, 403192, Note_off_c, 1, 56, 100
3, 403200, Note_on_c, 1, 39, 80
3, 403576, Note_off_c, 1, 39, 100
3, 403968, Note_on_c, 1, 61, 80
3, 403968, Note_on_c, 1, 58, 80
3, 403968, Note_on_c, 1, 55, 80
3, 403968, Note_on_c, 1, 51, 80
3, 404344, Note_off_c, 1, 61, 100
3, 404344, Note_off_c, 1, 58, 100
3, 404344, Note_off_c, 1, 55, 100
3, 404344, Note_off_c, 1, 51, 100
3, 404736, Note_on_c, 1, 39, 80
3, 405112, Note_off_c, 1, 39, 100
3, 405504, Note_on_c, 1, 61, 80
3, 405504, Note_on_c, 1, 58, 80
3, 405504, Note_on_c, 1, 55, 80
3, 405504, Note_on_c, 1, 51, 80
3, 405880, Note_off_c, 1, 61, 100
3, 405880, Note_off_c, 1, 58, 100
3, 405880, Note_off_c, 1, 55, 100
3, 405880, Note_off_c, 1, 51, 100
3, 406272, Control_c, 1, 64, 127
3, 406272, Note_on_c, 1, 41, 120
3, 407040, Note_on_c, 1, 60, 120
3, 407040, Note_on_c, 1, 56, 120
3, 407040, Note_on_c, 1, 53, 120
3, 407800, Note_off_c, 1, 41, 100
3, 407800, Note_off_c, 1, 60, 100
3, 407800, Note_off_c, 1, 56, 100
3, 407800, Note_off_c, 1, 53, 100
3, 407808, Note_on_c, 1, 60, 120
3, 407808, Note_on_c, 1, 56, 120
3, 407808, Note_on_c, 1, 53, 120
3, 409328, Control_c, 1, 64, 0
3, 409336, Note_off_c, 1, 60, 100
3, 409336, Note_off_c, 1, 56, 100
3, 409336, Note_off_c, 1, 53, 100
3, 409344, Note_on_c, 1, 36, 80
3, 410104, Note_off_c, 1, 36, 100
3, 410112, Note_on_c, 1, 58, 80
3, 410112, Note_on_c, 1, 55, 80
3, 410112, Note_on_c, 1, 52, 80
3, 410112, Note_on_c, 1, 48, 80
3, 410872, Note_off_c, 1, 58, 100
3, 410872, Note_off_c, 1, 55, 100
3, 410872, Note_off_c, 1, 52, 100
3, 410872, Note_off_c, 1, 48, 100
3, 410880, Note_on_c, 1, 36, 80
3, 411640, Note_off_c, 1, 36, 100
3, 411648, Note_on_c, 1, 58, 80
3, 411648, Note_on_c, 1, 55, 80
3, 411648, Note_on_c, 1, 52, 80
3, 411648, Note_on_c, 1, 48, 80
3, 412408, Note_off_c, 1, 58, 100
3, 412408, Note_off_c, 1, 55, 100
3, 412408, Note_off_c, 1, 52, 100
3, 412408, Note_off_c, 1, 48, 100
3, 412416, Control_c, 1, 64, 127
3, 412416, Note_on_c, 1, 37, 120
3, 413184, Note_on_c, 1, 56, 120
3, 413184, Note_on_c, 1, 53, 120
3, 413184, Note_on_c, 1, 49, 120
3, 413944, Note_off_c, 1, 37, 100
3, 413944, Note_off_c, 1, 56, 100
3, 413944, Note_off_c, 1, 53, 100
3, 413944, Note_off_c, 1, 49, 100
3, 413952, Note_on_c, 1, 56, 120
3, 413952, Note_on_c, 1, 53, 120
3, 413952, Note_on_c, 1, 49, 120
3, 415472, Control_c, 1, 64, 0
3, 415480, Note_off_c, 1, 56, 100
3, 415480, Note_off_c, 1, 53, 100
3, 415480, Note_off_c, 1, 49, 100
3, 415488, Note_on_c, 1, 32, 80
3, 415864, Note_off_c, 1, 32, 100
3, 416256, Note_on_c, 1, 54, 80
3, 416256, Note_on_c, 1, 51, 80
3, 416256, Note_on_c, 1, 48, 80
3, 416256, Note_on_c, 1, 44, 80
3, 416632, Note_off_c, 1, 54, 100
3, 416632, Note_off_c, 1, 51, 100
3, 416632, Note_off_c, 1, 48, 100
3, 416632, Note_off_c, 1, 44, 100
3, 417024, Note_on_c, 1, 32, 80
3, 417400, Note_off_c, 1, 32, 100
3, 417792, Note_on_c, 1, 54, 80
3, 417792, Note_on_c, 1, 51, 80
3, 417792, Note_on_c, 1, 48, 80
3, 417792, Note_on_c, 1, 44, 80
3, 418168, Note_off_c, 1, 54, 100
3, 418168, Note_off_c, 1, 51, 100
3, 418168, Note_off_c, 1, 48, 100
3, 418168, Note_off_c, 1, 44, 100
3, 418560, Control_c, 1, 64, 127
3, 418560, Note_on_c, 1, 34, 70
3, 419320, Note_off_c, 1, 34, 100
3, 419328, Note_on_c, 1, 53, 70
3, 419328, Note_on_c, 1, 49, 70
3, 419328, Note_on_c, 1, 46, 70
3, 420088, Note_off_c, 1, 53, 100
3, 420088, Note_off_c, 1, 49, 100
3, 420088, Note_off_c, 1, 46, 100
3, 420096, Note_on_c, 1, 53, 70
3, 420096, Note_on_c, 1, 49, 70
3, 420096, Note_on_c, 1, 46, 70
3, 421616, Control_c, 1, 64, 0
3, 421624, Note_off_c, 1, 53, 100
3, 421624, Note_off_c, 1, 49, 100
3, 421624, Note_off_c, 1, 46, 100
3, 421632, Control_c, 1, 64, 127
3, 421632, Note_on_c, 1, 32, 70
3, 422392, Note_off_c, 1, 32, 100
3, 422400, Note_on_c, 1, 53, 70
3, 422400, Note_on_c, 1, 48, 70
3, 422400, Note_on_c, 1, 44, 70
3, 423160, Note_off_c, 1, 53, 100
3, 423160, Note_off_c, 1, 48, 100
3, 423160, Note_off_c, 1, 44, 100
3, 423168, Note_on_c, 1, 53, 70
3, 423168, Note_on_c, 1, 48, 70
3, 423168, Note_on_c, 1, 44, 70
3, 424688, Control_c, 1, 64, 0
3, 424696, Note_off_c, 1, 53, 100
3, 424696, Note_off_c, 1, 48, 100
3, 424696, Note_off_c, 1, 44, 100
3, 424704, Control_c, 1, 64, 127
3, 424704, Note_on_c, 1, 31, 70
3, 425464, Note_off_c, 1, 31, 100
3, 425472, Note_on_c, 1, 53, 70
3, 425472, Note_on_c, 1, 50, 70
3, 425472, Note_on_c, 1, 47, 70
3, 425472, Note_on_c, 1, 43, 70
3, 426232, Note_off_c, 1, 53, 100
3, 426232, Note_off_c, 1, 50, 100
3, 426232, Note_off_c, 1, 47, 100
3, 426232, Note_off_c, 1, 43, 100
3, 426240, Note_on_c, 1, 53, 70
3, 426240, Note_on_c, 1, 50, 70
3, 426240, Note_on_c, 1, 47, 70
3, 426240, Note_on_c, 1, 43, 70
3, 427760, Control_c, 1, 64, 0
3, 427768, Note_off_c, 1, 53, 100
3, 427768, Note_off_c, 1, 50, 100
3, 427768, Note_off_c, 1, 47, 100
3, 427768, Note_off_c, 1, 43, 100
3, 427776, Control_c, 1, 64, 127
3, 427776, Note_on_c, 1, 32, 70
3, 428536, Note_off_c, 1, 32, 100
3, 428544, Note_on_c, 1, 51, 70
3, 428544, Note_on_c, 1, 48, 70
3, 428544, Note_on_c, 1, 44, 70
3, 429304, Note_off_c, 1, 51, 100
3, 429304, Note_off_c, 1, 48, 100
3, 429304, Note_off_c, 1, 44, 100
3, 429312, Note_on_c, 1, 51, 70
3, 429312, Note_on_c, 1, 48, 70
3, 429312, Note_on_c, 1, 44, 70
3, 430832, Control_c, 1, 64, 0
3, 430840, Note_off_c, 1, 51, 100
3, 430840, Note_off_c, 1, 48, 100
3, 430840, Note_off_c, 1, 44, 100
3, 430848, Control_c, 1, 64, 127
3, 430848, Note_on_c, 1, 33, 60
3, 431104, Note_on_c, 1, 36, 60
3, 431360, Note_on_c, 1, 39, 60
3, 431616, Note_on_c, 1, 42, 60
3, 431864, Note_off_c, 1, 33, 100
3, 431872, Note_on_c, 1, 45, 60
3, 432120, Note_off_c, 1, 36, 100
3, 432128, Note_on_c, 1, 48, 60
3, 432376, Note_off_c, 1, 39, 100
3, 432384, Note_on_c, 1, 51, 60
3, 432632, Note_off_c, 1, 42, 100
3, 432640, Note_on_c, 1, 54, 60
3, 432888, Note_off_c, 1, 45, 100
3, 432896, Note_on_c, 1, 57, 60
3, 433144, Note_off_c, 1, 48, 100
3, 433328, Note_off_c, 1, 51, 100
3, 433640, Note_off_c, 1, 54, 100
3, 433912, Note_off_c, 1, 57, 100
3, 436976, Control_c, 1, 64, 0
3, 436992, Note_on_c, 1, 43, 70
3, 436992, Note_on_c, 1, 40, 70
3, 436992, Note_on_c, 1, 36, 70
3, 436992, Note_on_c, 1, 31, 70
3, 437368, Note_off_c, 1, 43, 100
3, 437368, Note_off_c, 1, 40, 100
3, 437368, Note_off_c, 1, 36, 100
3, 437368, Note_off_c, 1, 31, 100
3, 440256, Note_on_c, 1, 43, 70
3, 440256, Note_on_c, 1, 31, 70
3, 440440, Note_off_c, 1, 43, 100
3, 440440, Note_off_c, 1, 31, 100
3, 440448, Note_on_c, 1, 45, 70
3, 440448, Note_on_c, 1, 33, 70
3, 440632, Note_off_c, 1, 45, 100
3, 440632, Note_off_c, 1, 33, 100
3, 440640, Note_on_c, 1, 47, 70
3, 440640, Note_on_c, 1, 35, 70
3, 440824, Note_off_c, 1, 47, 100
3, 440824, Note_off_c, 1, 35, 100
3, 440832, Note_on_c, 1, 48, 70
3, 440832, Note_on_c, 1, 36, 70
3, 441016, Note_off_c, 1, 48, 100
3, 441016, Note_off_c, 1, 36, 100
3, 441024, Note_on_c, 1, 50, 70
3, 441024, Note_on_c, 1, 38, 70
3, 441208, Note_off_c, 1, 50, 100
3, 441208, Note_off_c, 1, 38, 100
3, 441216, Note_on_c, 1, 52, 70
3, 441216, Note_on_c, 1, 40, 70
3, 441400, Note_off_c, 1, 52, 100
3, 441400, Note_off_c, 1, 40, 100
3, 441408, Note_on_c, 1, 53, 70
3, 441408, Note_on_c, 1, 41, 70
3, 441592, Note_off_c, 1, 53, 100
3, 441592, Note_off_c, 1, 41, 100
3, 441600, Note_on_c, 1, 55, 70
3, 441600, Note_on_c, 1, 43, 70
3, 441976, Note_off_c, 1, 55, 100
3, 441976, Note_off_c, 1, 43, 100
3, 441984, Note_on_c, 1, 57, 70
3, 441984, Note_on_c, 1, 45, 70
3, 442168, Note_off_c, 1, 57, 100
3, 442168, Note_off_c, 1, 45, 100
3, 442176, Note_on_c, 1, 59, 70
3, 442176, Note_on_c, 1, 47, 70
3, 442360, Note_off_c, 1, 59, 100
3, 442360, Note_off_c, 1, 47, 100
3, 442368, Note_on_c, 1, 60, 70
3, 442368, Note_on_c, 1, 48, 70
3, 442552, Note_off_c, 1, 60, 100
3, 442552, Note_off_c, 1, 48, 100
3, 442560, Note_on_c, 1, 62, 70
3, 442560, Note_on_c, 1, 50, 70
3, 442744, Note_off_c, 1, 62, 100
3, 442744, Note_off_c, 1, 50, 100
3, 442752, Note_on_c, 1, 64, 70
3, 442752, Note_on_c, 1, 52, 70
3, 442936, Note_off_c, 1, 64, 100
3, 442936, Note_off_c, 1, 52, 100
3, 442944, Note_on_c, 1, 65, 70
3, 442944, Note_on_c, 1, 53, 70
3, 443128, Note_off_c, 1, 65, 100
3, 443128, Note_off_c, 1, 53, 100
3, 443136, Note_on_c, 1, 55, 70
3, 443136, Note_on_c, 1, 67, 70
3, 443512, Note_off_c, 1, 55, 100
3, 443512, Note_off_c, 1, 67, 100
3, 446400, Note_on_c, 1, 43, 70
3, 446400, Note_on_c, 1, 31, 70
3, 446584, Note_off_c, 1, 43, 100
3, 446584, Note_off_c, 1, 31, 100
3, 446592, Note_on_c, 1, 45, 70
3, 446592, Note_on_c, 1, 33, 70
3, 446776, Note_off_c, 1, 45, 100
3, 446776, Note_off_c, 1, 33, 100
3, 446784, Note_on_c, 1, 47, 70
3, 446784, Note_on_c, 1, 35, 70
3, 446968, Note_off_c, 1, 47, 100
3, 446968, Note_off_c, 1, 35, 100
3, 446976, Note_on_c, 1, 48, 70
3, 446976, Note_on_c, 1, 36, 70
3, 447160, Note_off_c, 1, 48, 100
3, 447160, Note_off_c, 1, 36, 100
3, 447168, Note_on_c, 1, 50, 70
3, 447168, Note_on_c, 1, 38, 70
3, 447352, Note_off_c, 1, 50, 100
3, 447352, Note_off_c, 1, 38, 100
3, 447360, Note_on_c, 1, 52, 70
3, 447360, Note_on_c, 1, 40, 70
3, 447544, Note_off_c, 1, 52, 100
3, 447544, Note_off_c, 1, 40, 100
3, 447552, Note_on_c, 1, 53, 70
3, 447552, Note_on_c, 1, 41, 70
3, 447736, Note_off_c, 1, 53, 100
3, 447736, Note_off_c, 1, 41, 100
3, 447744, Note_on_c, 1, 55, 70
3, 447744, Note_on_c, 1, 43, 70
3, 448120, Note_off_c, 1, 55, 100
3, 448120, Note_off_c, 1, 43, 100
3, 448128, Note_on_c, 1, 57, 70
3, 448128, Note_on_c, 1, 45, 70
3, 448312, Note_off_c, 1, 57, 100
3, 448312, Note_off_c, 1, 45, 100
3, 448320, Note_on_c, 1, 59, 70
3, 448320, Note_on_c, 1, 47, 70
3, 448504, Note_off_c, 1, 59, 100
3, 448504, Note_off_c, 1, 47, 100
3, 448512, Note_on_c, 1, 60, 70
3, 448512, Note_on_c, 1, 48, 70
3, 448696, Note_off_c, 1, 60, 100
3, 448696, Note_off_c, 1, 48, 100
3, 448704, Note_on_c, 1, 62, 70
3, 448704, Note_on_c, 1, 50, 70
3, 448888, Note_off_c, 1, 62, 100
3, 448888, Note_off_c, 1, 50, 100
3, 448896, Note_on_c, 1, 64, 70
3, 448896, Note_on_c, 1, 52, 70
3, 449080, Note_off_c, 1, 64, 100
3, 449080, Note_off_c, 1, 52, 100
3, 449088, Note_on_c, 1, 65, 70
3, 449088, Note_on_c, 1, 53, 70
3, 449272, Note_off_c, 1, 65, 100
3, 449272, Note_off_c, 1, 53, 100
3, 449280, Note_on_c, 1, 55, 70
3, 449280, Note_on_c, 1, 67, 70
3, 449656, Note_off_c, 1, 55, 100
3, 449656, Note_off_c, 1, 67, 100
3, 452544, Note_on_c, 1, 55, 72
3, 452728, Note_off_c, 1, 55, 100
3, 452736, Note_on_c, 1, 53, 74
3, 452920, Note_off_c, 1, 53, 100
3, 452928, Note_on_c, 1, 52, 76
3, 453112, Note_off_c, 1, 52, 100
3, 453120, Note_on_c, 1, 50, 79
3, 453304, Note_off_c, 1, 50, 100
3, 453312, Note_on_c, 1, 48, 81
3, 453496, Note_off_c, 1, 48, 100
3, 453504, Note_on_c, 1, 47, 83
3, 453688, Note_off_c, 1, 47, 100
3, 453696, Note_on_c, 1, 45, 86
3, 453880, Note_off_c, 1, 45, 100
3, 453888, Note_on_c, 1, 43, 88
3, 454264, Note_off_c, 1, 43, 100
3, 454272, Note_on_c, 1, 41, 93
3, 454456, Note_off_c, 1, 41, 100
3, 454464, Note_on_c, 1, 40, 95
3, 454648, Note_off_c, 1, 40, 100
3, 454656, Note_on_c, 1, 38, 97
3, 454840, Note_off_c, 1, 38, 100
3, 454848, Note_on_c, 1, 36, 100
3, 455032, Note_off_c, 1, 36, 100
3, 455040, Note_on_c, 1, 35, 102
3, 455224, Note_off_c, 1, 35, 100
3, 455232, Note_on_c, 1, 33, 104
3, 455416, Note_off_c, 1, 33, 100
3, 455424, Note_on_c, 1, 31, 110
3, 455608, Note_off_c, 1, 31, 100
3, 455616, Note_on_c, 1, 33, 110
3, 455800, Note_off_c, 1, 33, 100
3, 455808, Note_on_c, 1, 35, 110
3, 455992, Note_off_c, 1, 35, 100
3, 456000, Note_on_c, 1, 36, 110
3, 456184, Note_off_c, 1, 36, 100
3, 456192, Note_on_c, 1, 38, 110
3, 456376, Note_off_c, 1, 38, 100
3, 456384, Note_on_c, 1, 40, 110
3, 456568, Note_off_c, 1, 40, 100
3, 456576, Note_on_c, 1, 41, 110
3, 456760, Note_off_c, 1, 41, 100
3, 456768, Note_on_c, 1, 42, 110
3, 456952, Note_off_c, 1, 42, 100
3, 456960, Note_on_c, 1, 43, 110
3, 457144, Note_off_c, 1, 43, 100
3, 457152, Note_on_c, 1, 45, 110
3, 457336, Note_off_c, 1, 45, 100
3, 457344, Note_on_c, 1, 47, 110
3, 457528, Note_off_c, 1, 47, 100
3, 457536, Note_on_c, 1, 48, 110
3, 457720, Note_off_c, 1, 48, 100
3, 457728, Note_on_c, 1, 50, 110
3, 457912, Note_off_c, 1, 50, 100
3, 457920, Note_on_c, 1, 52, 110
3, 458104, Note_off_c, 1, 52, 100
3, 458112, Note_on_c, 1, 53, 110
3, 458296, Note_off_c, 1, 53, 100
3, 458304, Note_on_c, 1, 54, 110
3, 458488, Note_off_c, 1, 54, 100
3, 458496, Note_on_c, 1, 55, 110
3, 458680, Note_off_c, 1, 55, 100
3, 458688, Note_on_c, 1, 57, 110
3, 458872, Note_off_c, 1, 57, 100
3, 458880, Note_on_c, 1, 59, 110
3, 459064, Note_off_c, 1, 59, 100
3, 459072, Note_on_c, 1, 60, 110
3, 459256, Note_off_c, 1, 60, 100
3, 459264, Note_on_c, 1, 62, 109
3, 459448, Note_off_c, 1, 62, 100
3, 459456, Note_on_c, 1, 64, 107
3, 459640, Note_off_c, 1, 64, 100
3, 459648, Note_on_c, 1, 65, 105
3, 459832, Note_off_c, 1, 65, 100
3, 459840, Note_on_c, 1, 66, 102
3, 460024, Note_off_c, 1, 66, 100
3, 460032, Note_on_c, 1, 67, 100
3, 460216, Note_off_c, 1, 67, 100
3, 460224, Note_on_c, 1, 69, 97
3, 460408, Note_off_c, 1, 69, 100
3, 460416, Note_on_c, 1, 71, 95
3, 460600, Note_off_c, 1, 71, 100
3, 460608, Note_on_c, 1, 72, 93
3, 460792, Note_off_c, 1, 72, 100
3, 460800, Note_on_c, 1, 74, 90
3, 460984, Note_off_c, 1, 74, 100
3, 460992, Note_on_c, 1, 76, 88
3, 461184, Note_on_c, 1, 77, 85
3, 461368, Note_off_c, 1, 77, 100
3, 461376, Note_on_c, 1, 76, 83
3, 461560, Note_off_c, 1, 76, 100
3, 461568, Note_on_c, 1, 77, 81
3, 461752, Note_off_c, 1, 76, 64
3, 462528, Note_on_c, 1, 76, 80
3, 462632, Note_off_c, 1, 77, 100
3, 462720, Note_on_c, 1, 77, 80
3, 462904, Note_off_c, 1, 76, 100
3, 462904, Note_off_c, 1, 77, 100
3, 462912, Note_on_c, 1, 76, 80
3, 463104, Note_on_c, 1, 77, 80
3, 464064, Note_on_c, 1, 76, 80
3, 464248, Note_off_c, 1, 76, 100
3, 464248, Note_off_c, 1, 77, 100
3, 464256, Note_on_c, 1, 77, 80
3, 464440, Note_off_c, 1, 76, 100
3, 464440, Note_off_c, 1, 77, 100
3, 464448, Note_on_c, 1, 76, 80
3, 464632, Note_off_c, 1, 76, 64
3, 464640, Note_on_c, 1, 77, 80
3, 467320, Note_off_c, 1, 77, 100
3, 467712, Control_c, 1, 64, 127
3, 467712, Note_on_c, 1, 48, 99
3, 467968, Note_on_c, 1, 55, 80
3, 468144, Note_off_c, 1, 48, 100
3, 468224, Note_on_c, 1, 60, 80
3, 468424, Note_off_c, 1, 55, 100
3, 468480, Note_on_c, 1, 64, 80
3, 468664, Note_off_c, 1, 60, 100
3, 468736, Note_on_c, 1, 60, 80
3, 468888, Note_off_c, 1, 64, 100
3, 468992, Note_on_c, 1, 64, 80
3, 469160, Note_off_c, 1, 60, 100
3, 469248, Note_on_c, 1, 67, 80
3, 469400, Note_off_c, 1, 64, 100
3, 469504, Note_on_c, 1, 64, 80
3, 469680, Note_off_c, 1, 67, 100
3, 469760, Note_on_c, 1, 67, 80
3, 469944, Note_off_c, 1, 64, 100
3, 470016, Note_on_c, 1, 64, 80
3, 470200, Note_off_c, 1, 67, 100
3, 470272, Note_on_c, 1, 60, 80
3, 470456, Note_off_c, 1, 64, 100
3, 470528, Note_on_c, 1, 64, 80
3, 470680, Note_off_c, 1, 60, 100
3, 470784, Note_on_c, 1, 65, 80
3, 470976, Note_off_c, 1, 64, 100
3, 471040, Note_on_c, 1, 62, 80
3, 471200, Note_off_c, 1, 65, 100
3, 471296, Note_on_c, 1, 65, 80
3, 471472, Note_off_c, 1, 62, 100
3, 471552, Note_on_c, 1, 62, 80
3, 471752, Note_off_c, 1, 65, 100
3, 471808, Note_on_c, 1, 59, 80
3, 472016, Note_off_c, 1, 62, 100
3, 472064, Note_on_c, 1, 62, 80
3, 472216, Note_off_c, 1, 59, 100
3, 472320, Note_on_c, 1, 64, 80
3, 472512, Note_off_c, 1, 62, 100
3, 472576, Note_on_c, 1, 60, 80
3, 472752, Note_off_c, 1, 64, 100
3, 472832, Note_on_c, 1, 55, 80
3, 472960, Note_off_c, 1, 60, 100
3, 473088, Note_on_c, 1, 60, 80
3, 473264, Note_off_c, 1, 55, 100
3, 473344, Note_on_c, 1, 55, 80
3, 473576, Note_off_c, 1, 60, 100
3, 473600, Note_on_c, 1, 52, 80
3, 473776, Note_off_c, 1, 55, 100
3, 473856, Note_on_c, 1, 48, 80
3, 474032, Note_off_c, 1, 52, 100
3, 474112, Note_on_c, 1, 55, 80
3, 474280, Note_off_c, 1, 48, 100
3, 474368, Note_on_c, 1, 60, 80
3, 474552, Note_off_c, 1, 55, 100
3, 474624, Note_on_c, 1, 64, 80
3, 474832, Note_off_c, 1, 60, 100
3, 474880, Note_on_c, 1, 60, 80
3, 475032, Note_off_c, 1, 64, 100
3, 475136, Note_on_c, 1, 64, 80
3, 475312, Note_off_c, 1, 60, 100
3, 475392, Note_on_c, 1, 67, 80
3, 475576, Note_off_c, 1, 64, 100
3, 475648, Note_on_c, 1, 64, 80
3, 475792, Note_off_c, 1, 67, 100
3, 475904, Note_on_c, 1, 67, 80
3, 476064, Note_off_c, 1, 64, 100
3, 476160, Note_on_c, 1, 64, 80
3, 476304, Note_off_c, 1, 67, 100
3, 476416, Note_on_c, 1, 60, 80
3, 476560, Note_off_c, 1, 64, 100
3, 476672, Note_on_c, 1, 64, 80
3, 476872, Note_off_c, 1, 60, 100
3, 476928, Note_on_c, 1, 65, 80
3, 477104, Note_off_c, 1, 64, 100
3, 477184, Note_on_c, 1, 62, 80
3, 477352, Note_off_c, 1, 65, 100
3, 477440, Note_on_c, 1, 65, 80
3, 477616, Note_off_c, 1, 62, 100
3, 477696, Note_on_c, 1, 59, 80
3, 477880, Note_off_c, 1, 65, 100
3, 477952, Note_on_c, 1, 62, 80
3, 478120, Note_off_c, 1, 59, 100
3, 478208, Note_on_c, 1, 59, 80
3, 478392, Note_off_c, 1, 62, 100
3, 478448, Control_c, 1, 64, 0
3, 478456, Note_off_c, 1, 59, 100
3, 478464, Note_on_c, 1, 60, 80
3, 478712, Note_off_c, 1, 60, 100
3, 478720, Note_on_c, 1, 57, 80
3, 478968, Note_off_c, 1, 57, 100
3, 478976, Note_on_c, 1, 55, 80
3, 479224, Note_off_c, 1, 55, 100
3, 479232, Note_on_c, 1, 53, 80
3, 479480, Note_off_c, 1, 53, 100
3, 479488, Note_on_c, 1, 52, 80
3, 479736, Note_off_c, 1, 52, 100
3, 479744, Note_on_c, 1, 50, 80
3, 479992, Note_off_c, 1, 50, 100
3, 480000, Control_c, 1, 64, 127
3, 480000, Note_on_c, 1, 48, 80
3, 480256, Note_on_c, 1, 55, 80
3, 480440, Note_off_c, 1, 48, 100
3, 480512, Note_on_c, 1, 60, 80
3, 480696, Note_off_c, 1, 55, 100
3, 480768, Note_on_c, 1, 63, 80
3, 480936, Note_off_c, 1, 60, 100
3, 481024, Note_on_c, 1, 60, 80
3, 481192, Note_off_c, 1, 63, 100
3, 481280, Note_on_c, 1, 63, 80
3, 481448, Note_off_c, 1, 60, 100
3, 481536, Note_on_c, 1, 67, 80
3, 481704, Note_off_c, 1, 63, 100
3, 481792, Note_on_c, 1, 63, 80
3, 481936, Note_off_c, 1, 67, 100
3, 482048, Note_on_c, 1, 67, 80
3, 482232, Note_off_c, 1, 63, 100
3, 482304, Note_on_c, 1, 63, 80
3, 482480, Note_off_c, 1, 67, 100
3, 482560, Note_on_c, 1, 60, 80
3, 482728, Note_off_c, 1, 63, 100
3, 482816, Note_on_c, 1, 63, 80
3, 482984, Note_off_c, 1, 60, 100
3, 483072, Note_on_c, 1, 65, 80
3, 483264, Note_off_c, 1, 63, 100
3, 483328, Note_on_c, 1, 62, 80
3, 483520, Note_off_c, 1, 65, 100
3, 483584, Note_on_c, 1, 65, 80
3, 483752, Note_off_c, 1, 62, 100
3, 483840, Note_on_c, 1, 62, 80
3, 484016, Note_off_c, 1, 65, 100
3, 484096, Note_on_c, 1, 59, 80
3, 484248, Note_off_c, 1, 62, 100
3, 484352, Note_on_c, 1, 62, 80
3, 484552, Note_off_c, 1, 59, 100
3, 484608, Note_on_c, 1, 63, 80
3, 484824, Note_off_c, 1, 62, 100
3, 484864, Note_on_c, 1, 60, 80
3, 485040, Note_off_c, 1, 63, 100
3, 485120, Note_on_c, 1, 63, 80
3, 485288, Note_off_c, 1, 60, 100
3, 485360, Control_c, 1, 64, 0
3, 485368, Note_off_c, 1, 63, 100
3, 485376, Note_on_c, 1, 51, 80
3, 485376, Note_on_c, 1, 58, 80
3, 485624, Note_off_c, 1, 51, 100
3, 485624, Note_off_c, 1, 58, 100
3, 485632, Note_on_c, 1, 61, 80
3, 485880, Note_off_c, 1, 61, 100
3, 485888, Note_on_c, 1, 58, 80
3, 486136, Note_off_c, 1, 58, 100
3, 486144, Control_c, 1, 64, 127
3, 486144, Note_on_c, 1, 44, 80
3, 486400, Note_on_c, 1, 51, 80
3, 486576, Note_off_c, 1, 44, 100
3, 486656, Note_on_c, 1, 56, 80
3, 486824, Note_off_c, 1, 51, 100
3, 486912, Note_on_c, 1, 60, 80
3, 487096, Note_off_c, 1, 56, 100
3, 487168, Note_on_c, 1, 56, 80
3, 487328, Note_off_c, 1, 60, 100
3, 487424, Note_on_c, 1, 60, 80
3, 487568, Note_off_c, 1, 56, 100
3, 487680, Note_on_c, 1, 63, 80
3, 487840, Note_off_c, 1, 60, 100
3, 487936, Note_on_c, 1, 60, 80
3, 488080, Note_off_c, 1, 63, 100
3, 488192, Note_on_c, 1, 63, 80
3, 488360, Note_off_c, 1, 60, 100
3, 488448, Note_on_c, 1, 60, 80
3, 488592, Note_off_c, 1, 63, 100
3, 488704, Note_on_c, 1, 56, 80
3, 488880, Note_off_c, 1, 60, 100
3, 488960, Note_on_c, 1, 60, 80
3, 489136, Note_off_c, 1, 56, 100
3, 489216, Note_on_c, 1, 61, 80
3, 489440, Note_off_c, 1, 60, 100
3, 489472, Note_on_c, 1, 58, 80
3, 489648, Note_off_c, 1, 61, 100
3, 489728, Note_on_c, 1, 61, 80
3, 489896, Note_off_c, 1, 58, 100
3, 489984, Note_on_c, 1, 58, 80
3, 490144, Note_off_c, 1, 61, 100
3, 490240, Note_on_c, 1, 55, 80
3, 490416, Note_off_c, 1, 58, 100
3, 490496, Note_on_c, 1, 58, 80
3, 490680, Note_off_c, 1, 55, 100
3, 490752, Note_on_c, 1, 60, 80
3, 490904, Note_off_c, 1, 58, 100
3, 491008, Note_on_c, 1, 56, 80
3, 491184, Note_off_c, 1, 60, 100
3, 491264, Note_on_c, 1, 60, 80
3, 491432, Note_off_c, 1, 56, 100
3, 491504, Control_c, 1, 64, 0
3, 491512, Note_off_c, 1, 60, 100
3, 491520, Note_on_c, 1, 55, 80
3, 491520, Note_on_c, 1, 48, 80
3, 491768, Note_off_c, 1, 55, 100
3, 491768, Note_off_c, 1, 48, 100
3, 491776, Note_on_c, 1, 58, 80
3, 492024, Note_off_c, 1, 58, 100
3, 492032, Note_on_c, 1, 55, 80
3, 492280, Note_off_c, 1, 55, 100
3, 492288, Control_c, 1, 64, 127
3, 492288, Note_on_c, 1, 41, 80
3, 492544, Note_on_c, 1, 48, 80
3, 492720, Note_off_c, 1, 41, 100
3, 492800, Note_on_c, 1, 53, 80
3, 492976, Note_off_c, 1, 48, 100
3, 493056, Note_on_c, 1, 56, 80
3, 493232, Note_off_c, 1, 53, 100
3, 493312, Note_on_c, 1, 53, 80
3, 493488, Note_off_c, 1, 56, 100
3, 493568, Note_on_c, 1, 56, 80
3, 493776, Note_off_c, 1, 53, 100
3, 493824, Note_on_c, 1, 60, 80
3, 493984, Note_off_c, 1, 56, 100
3, 494080, Note_on_c, 1, 56, 80
3, 494232, Note_off_c, 1, 60, 100
3, 494336, Note_on_c, 1, 60, 80
3, 494496, Note_off_c, 1, 56, 100
3, 494592, Note_on_c, 1, 56, 80
3, 494760, Note_off_c, 1, 60, 100
3, 494848, Note_on_c, 1, 53, 80
3, 495024, Note_off_c, 1, 56, 100
3, 495104, Note_on_c, 1, 56, 80
3, 495280, Note_off_c, 1, 53, 100
3, 495360, Note_on_c, 1, 58, 80
3, 495528, Note_off_c, 1, 56, 100
3, 495616, Note_on_c, 1, 55, 80
3, 495808, Note_off_c, 1, 58, 100
3, 495872, Note_on_c, 1, 58, 80
3, 496040, Note_off_c, 1, 55, 100
3, 496128, Note_on_c, 1, 55, 80
3, 496304, Note_off_c, 1, 58, 100
3, 496384, Note_on_c, 1, 52, 80
3, 496544, Note_off_c, 1, 55, 100
3, 496640, Note_on_c, 1, 55, 80
3, 496808, Note_off_c, 1, 52, 100
3, 496896, Note_on_c, 1, 56, 80
3, 497064, Note_off_c, 1, 55, 100
3, 497152, Note_on_c, 1, 53, 80
3, 497328, Note_off_c, 1, 56, 100
3, 497408, Note_on_c, 1, 56, 80
3, 497584, Note_off_c, 1, 53, 100
3, 497648, Control_c, 1, 64, 0
3, 497664, Note_on_c, 1, 53, 80
3, 497840, Note_off_c, 1, 56, 100
3, 497920, Note_on_c, 1, 48, 80
3, 498120, Note_off_c, 1, 53, 100
3, 498176, Note_on_c, 1, 53, 80
3, 498336, Note_off_c, 1, 48, 100
3, 498432, Note_on_c, 1, 58, 80
3, 498608, Note_off_c, 1, 53, 100
3, 498688, Note_on_c, 1, 55, 80
3, 498872, Note_off_c, 1, 58, 100
3, 498944, Note_on_c, 1, 58, 80
3, 499096, Note_off_c, 1, 55, 100
3, 499192, Note_off_c, 1, 58, 100
3, 499200, Note_on_c, 1, 52, 80
3, 499448, Note_off_c, 1, 52, 100
3, 499456, Note_on_c, 1, 55, 80
3, 499704, Note_off_c, 1, 55, 100
3, 499712, Note_on_c, 1, 52, 80
3, 499960, Note_off_c, 1, 52, 100
3, 499968, Note_on_c, 1, 53, 80
3, 500216, Note_off_c, 1, 53, 100
3, 500224, Note_on_c, 1, 56, 80
3, 500472, Note_off_c, 1, 56, 100
3, 500480, Note_on_c, 1, 53, 80
3, 500728, Note_off_c, 1, 53, 100
3, 500736, Note_on_c, 1, 55, 80
3, 500984, Note_off_c, 1, 55, 100
3, 500992, Note_on_c, 1, 60, 80
3, 501240, Note_off_c, 1, 60, 100
3, 501248, Note_on_c, 1, 55, 80
3, 501496, Note_off_c, 1, 55, 100
3, 501504, Note_on_c, 1, 65, 80
3, 501504, Note_on_c, 1, 56, 80
3, 501880, Note_off_c, 1, 65, 100
3, 501880, Note_off_c, 1, 56, 100
3, 502656, Note_on_c, 1, 65, 80
3, 502656, Note_on_c, 1, 56, 80
3, 503032, Note_off_c, 1, 65, 100
3, 503032, Note_off_c, 1, 56, 100
3, 503040, Note_on_c, 1, 65, 80
3, 503040, Note_on_c, 1, 56, 80
3, 503416, Note_off_c, 1, 65, 100
3, 503416, Note_off_c, 1, 56, 100
3, 504192, Note_on_c, 1, 65, 80
3, 504192, Note_on_c, 1, 56, 80
3, 504568, Note_off_c, 1, 65, 100
3, 504568, Note_off_c, 1, 56, 100
3, 504576, Note_on_c, 1, 66, 80
3, 504576, Note_on_c, 1, 56, 80
3, 504952, Note_off_c, 1, 66, 100
3, 504952, Note_off_c, 1, 56, 100
3, 505728, Note_on_c, 1, 66, 80
3, 505728, Note_on_c, 1, 56, 80
3, 506104, Note_off_c, 1, 66, 100
3, 506104, Note_off_c, 1, 56, 100
3, 506112, Note_on_c, 1, 66, 80
3, 506112, Note_on_c, 1, 56, 80
3, 506488, Note_off_c, 1, 66, 100
3, 506488, Note_off_c, 1, 56, 100
3, 507264, Note_on_c, 1, 66, 80
3, 507264, Note_on_c, 1, 56, 80
3, 507640, Note_off_c, 1, 66, 100
3, 507640, Note_off_c, 1, 56, 100
3, 507648, Note_on_c, 1, 67, 80
3, 507648, Note_on_c, 1, 55, 80
3, 508024, Note_off_c, 1, 67, 100
3, 508024, Note_off_c, 1, 55, 100
3, 508032, Note_on_c, 1, 67, 80
3, 508032, Note_on_c, 1, 72, 80
3, 508408, Note_off_c, 1, 67, 100
3, 508408, Note_off_c, 1, 72, 100
3, 508416, Note_on_c, 1, 67, 80
3, 508416, Note_on_c, 1, 72, 80
3, 508792, Note_off_c, 1, 67, 100
3, 508792, Note_off_c, 1, 72, 100
3, 508800, Note_on_c, 1, 67, 80
3, 508800, Note_on_c, 1, 72, 80
3, 509176, Note_off_c, 1, 67, 100
3, 509176, Note_off_c, 1, 72, 100
3, 509184, Note_on_c, 1, 67, 80
3, 509184, Note_on_c, 1, 72, 80
3, 509560, Note_off_c, 1, 67, 100
3, 509560, Note_off_c, 1, 72, 100
3, 509568, Note_on_c, 1, 67, 82
3, 509568, Note_on_c, 1, 72, 82
3, 509944, Note_off_c, 1, 67, 100
3, 509944, Note_off_c, 1, 72, 100
3, 509952, Note_on_c, 1, 67, 84
3, 509952, Note_on_c, 1, 72, 84
3, 510328, Note_off_c, 1, 67, 100
3, 510328, Note_off_c, 1, 72, 100
3, 510336, Note_on_c, 1, 67, 87
3, 510336, Note_on_c, 1, 72, 87
3, 510712, Note_off_c, 1, 67, 100
3, 510712, Note_off_c, 1, 72, 100
3, 510720, Note_on_c, 1, 72, 89
3, 510720, Note_on_c, 1, 67, 89
3, 510816, Note_on_c, 1, 71, 90
3, 510904, Note_off_c, 1, 72, 100
3, 510912, Note_on_c, 1, 72, 91
3, 510984, Note_off_c, 1, 71, 100
3, 511008, Note_on_c, 1, 71, 91
3, 511064, Note_off_c, 1, 72, 100
3, 511104, Note_on_c, 1, 72, 92
3, 511160, Note_off_c, 1, 71, 100
3, 511200, Note_on_c, 1, 71, 93
3, 511288, Note_off_c, 1, 72, 100
3, 511296, Note_on_c, 1, 72, 93
3, 511368, Note_off_c, 1, 71, 100
3, 511392, Note_on_c, 1, 71, 94
3, 511448, Note_off_c, 1, 72, 100
3, 511488, Note_on_c, 1, 72, 94
3, 511544, Note_off_c, 1, 71, 100
3, 511584, Note_on_c, 1, 71, 95
3, 511672, Note_off_c, 1, 72, 100
3, 511680, Note_on_c, 1, 72, 96
3, 511752, Note_off_c, 1, 71, 100
3, 511776, Note_on_c, 1, 71, 96
3, 511832, Note_off_c, 1, 72, 100
3, 511872, Note_on_c, 1, 72, 97
3, 511928, Note_off_c, 1, 71, 100
3, 511968, Note_on_c, 1, 71, 98
3, 512056, Note_off_c, 1, 72, 100
3, 512064, Note_on_c, 1, 72, 98
3, 512136, Note_off_c, 1, 71, 100
3, 512160, Note_on_c, 1, 71, 99
3, 512216, Note_off_c, 1, 72, 100
3, 512248, Note_off_c, 1, 67, 100
3, 512256, Note_on_c, 1, 72, 99
3, 512312, Note_off_c, 1, 71, 100
3, 512352, Note_on_c, 1, 71, 100
3, 512440, Note_off_c, 1, 72, 100
3, 512448, Note_on_c, 1, 72, 101
3, 512520, Note_off_c, 1, 71, 100
3, 512544, Note_on_c, 1, 71, 101
3, 512600, Note_off_c, 1, 72, 100
3, 512640, Note_on_c, 1, 72, 102
3, 512696, Note_off_c, 1, 71, 100
3, 512736, Note_on_c, 1, 71, 103
3, 512824, Note_off_c, 1, 72, 100
3, 512832, Note_on_c, 1, 72, 103
3, 512904, Note_off_c, 1, 71, 100
3, 512928, Note_on_c, 1, 71, 104
3, 512984, Note_off_c, 1, 72, 100
3, 513024, Note_on_c, 1, 72, 104
3, 513080, Note_off_c, 1, 71, 100
3, 513120, Note_on_c, 1, 71, 105
3, 513208, Note_off_c, 1, 72, 100
3, 513216, Note_on_c, 1, 72, 106
3, 513288, Note_off_c, 1, 71, 100
3, 513312, Note_on_c, 1, 71, 106
3, 513368, Note_off_c, 1, 72, 100
3, 513408, Note_on_c, 1, 72, 107
3, 513464, Note_off_c, 1, 71, 100
3, 513504, Note_on_c, 1, 71, 108
3, 513592, Note_off_c, 1, 72, 100
3, 513600, Note_on_c, 1, 72, 108
3, 513672, Note_off_c, 1, 71, 100
3, 513696, Note_on_c, 1, 71, 109
3, 513752, Note_off_c, 1, 72, 100
3, 513784, Note_off_c, 1, 71, 64
3, 513792, Control_c, 1, 64, 127
3, 513792, Note_on_c, 1, 36, 120
3, 514168, Note_off_c, 1, 36, 100
3, 514176, Note_on_c, 1, 48, 120
3, 514176, Note_on_c, 1, 52, 120
3, 514176, Note_on_c, 1, 55, 120
3, 514176, Note_on_c, 1, 60, 120
3, 514552, Note_off_c, 1, 48, 100
3, 514552, Note_off_c, 1, 52, 100
3, 514552, Note_off_c, 1, 55, 100
3, 514552, Note_off_c, 1, 60, 100
3, 514560, Note_on_c, 1, 48, 120
3, 514560, Note_on_c, 1, 55, 120
3, 514560, Note_on_c, 1, 60, 120
3, 514560, Note_on_c, 1, 52, 120
3, 515320, Note_off_c, 1, 55, 100
3, 515320, Note_off_c, 1, 60, 100
3, 515320, Note_off_c, 1, 52, 100
3, 515328, Note_on_c, 1, 59, 120
3, 515328, Note_on_c, 1, 55, 120
3, 515328, Note_on_c, 1, 53, 120
3, 516088, Note_off_c, 1, 59, 100
3, 516088, Note_off_c, 1, 55, 100
3, 516088, Note_off_c, 1, 53, 100
3, 516096, Note_on_c, 1, 60, 120
3, 516096, Note_on_c, 1, 55, 120
3, 516096, Note_on_c, 1, 52, 120
3, 516848, Control_c, 1, 64, 0
3, 516856, Note_off_c, 1, 48, 100
3, 516856, Note_off_c, 1, 60, 100
3, 516856, Note_off_c, 1, 55, 100
3, 516856, Note_off_c, 1, 52, 100
3, 516864, Control_c, 1, 64, 127
3, 516864, Note_on_c, 1, 36, 80
3, 517240, Note_off_c, 1, 36, 100
3, 517248, Note_on_c, 1, 48, 80
3, 517248, Note_on_c, 1, 52, 80
3, 517248, Note_on_c, 1, 55, 80
3, 517248, Note_on_c, 1, 60, 80
3, 517624, Note_off_c, 1, 48, 100
3, 517624, Note_off_c, 1, 52, 100
3, 517624, Note_off_c, 1, 55, 100
3, 517624, Note_off_c, 1, 60, 100
3, 517632, Note_on_c, 1, 48, 80
3, 517632, Note_on_c, 1, 55, 80
3, 517632, Note_on_c, 1, 60, 80
3, 517632, Note_on_c, 1, 52, 80
3, 518392, Note_off_c, 1, 55, 100
3, 518392, Note_off_c, 1, 60, 100
3, 518392, Note_off_c, 1, 52, 100
3, 518400, Note_on_c, 1, 59, 80
3, 518400, Note_on_c, 1, 55, 80
3, 518400, Note_on_c, 1, 53, 80
3, 519160, Note_off_c, 1, 59, 100
3, 519160, Note_off_c, 1, 55, 100
3, 519160, Note_off_c, 1, 53, 100
3, 519168, Note_on_c, 1, 60, 80
3, 519168, Note_on_c, 1, 55, 80
3, 519168, Note_on_c, 1, 52, 80
3, 519920, Control_c, 1, 64, 0
3, 519928, Note_off_c, 1, 48, 100
3, 519928, Note_off_c, 1, 60, 100
3, 519928, Note_off_c, 1, 55, 100
3, 519928, Note_off_c, 1, 52, 100
3, 519936, Control_c, 1, 64, 127
3, 519936, Note_on_c, 1, 36, 120
3, 520312, Note_off_c, 1, 36, 100
3, 520320, Note_on_c, 1, 48, 120
3, 520320, Note_on_c, 1, 52, 120
3, 520320, Note_on_c, 1, 55, 120
3, 520320, Note_on_c, 1, 60, 120
3, 520696, Note_off_c, 1, 48, 100
3, 520696, Note_off_c, 1, 52, 100
3, 520696, Note_off_c, 1, 55, 100
3, 520696, Note_off_c, 1, 60, 100
3, 520704, Note_on_c, 1, 48, 120
3, 520704, Note_on_c, 1, 55, 120
3, 520704, Note_on_c, 1, 60, 120
3, 520704, Note_on_c, 1, 52, 120
3, 521464, Note_off_c, 1, 55, 100
3, 521464, Note_off_c, 1, 60, 100
3, 521464, Note_off_c, 1, 52, 100
3, 521472, Note_on_c, 1, 59, 120
3, 521472, Note_on_c, 1, 55, 120
3, 521472, Note_on_c, 1, 53, 120
3, 522232, Note_off_c, 1, 59, 100
3, 522232, Note_off_c, 1, 55, 100
3, 522232, Note_off_c, 1, 53, 100
3, 522240, Note_on_c, 1, 60, 120
3, 522240, Note_on_c, 1, 55, 120
3, 522240, Note_on_c, 1, 52, 120
3, 522992, Control_c, 1, 64, 0
3, 523000, Note_off_c, 1, 48, 100
3, 523000, Note_off_c, 1, 60, 100
3, 523000, Note_off_c, 1, 55, 100
3, 523000, Note_off_c, 1, 52, 100
3, 523008, Control_c, 1, 64, 127
3, 523008, Note_on_c, 1, 36, 80
3, 523384, Note_off_c, 1, 36, 100
3, 523392, Note_on_c, 1, 48, 80
3, 523392, Note_on_c, 1, 52, 80
3, 523392, Note_on_c, 1, 55, 80
3, 523392, Note_on_c, 1, 60, 80
3, 523768, Note_off_c, 1, 48, 100
3, 523768, Note_off_c, 1, 52, 100
3, 523768, Note_off_c, 1, 55, 100
3, 523768, Note_off_c, 1, 60, 100
3, 523776, Note_on_c, 1, 48, 80
3, 523776, Note_on_c, 1, 55, 80
3, 523776, Note_on_c, 1, 60, 80
3, 523776, Note_on_c, 1, 52, 80
3, 524536, Note_off_c, 1, 55, 100
3, 524536, Note_off_c, 1, 60, 100
3, 524536, Note_off_c, 1, 52, 100
3, 524544, Note_on_c, 1, 59, 80
3, 524544, Note_on_c, 1, 55, 80
3, 524544, Note_on_c, 1, 53, 80
3, 525304, Note_off_c, 1, 59, 100
3, 525304, Note_off_c, 1, 55, 100
3, 525304, Note_off_c, 1, 53, 100
3, 525312, Note_on_c, 1, 60, 80
3, 525312, Note_on_c, 1, 55, 80
3, 525312, Note_on_c, 1, 52, 80
3, 526064, Control_c, 1, 64, 0
3, 526072, Note_off_c, 1, 48, 100
3, 526072, Note_off_c, 1, 60, 100
3, 526072, Note_off_c, 1, 55, 100
3, 526072, Note_off_c, 1, 52, 100
3, 526080, Note_on_c, 1, 53, 80
3, 526080, Note_on_c, 1, 48, 80
3, 526456, Note_off_c, 1, 53, 100
3, 526456, Note_off_c, 1, 48, 100
3, 526464, Note_on_c, 1, 53, 80
3, 526464, Note_on_c, 1, 48, 80
3, 526840, Note_off_c, 1, 53, 100
3, 526840, Note_off_c, 1, 48, 100
3, 526848, Note_on_c, 1, 52, 80
3, 526848, Note_on_c, 1, 48, 80
3, 527224, Note_off_c, 1, 52, 100
3, 527224, Note_off_c, 1, 48, 100
3, 527232, Note_on_c, 1, 52, 80
3, 527232, Note_on_c, 1, 48, 80
3, 527608, Note_off_c, 1, 52, 100
3, 527608, Note_off_c, 1, 48, 100
3, 527616, Note_on_c, 1, 53, 80
3, 527616, Note_on_c, 1, 48, 80
3, 527992, Note_off_c, 1, 53, 100
3, 527992, Note_off_c, 1, 48, 100
3, 528000, Note_on_c, 1, 53, 80
3, 528000, Note_on_c, 1, 48, 80
3, 528376, Note_off_c, 1, 53, 100
3, 528376, Note_off_c, 1, 48, 100
3, 528384, Note_on_c, 1, 52, 80
3, 528384, Note_on_c, 1, 48, 80
3, 528760, Note_off_c, 1, 52, 100
3, 528760, Note_off_c, 1, 48, 100
3, 528768, Note_on_c, 1, 52, 80
3, 528768, Note_on_c, 1, 48, 80
3, 529144, Note_off_c, 1, 52, 100
3, 529144, Note_off_c, 1, 48, 100
3, 529152, Note_on_c, 1, 53, 80
3, 529152, Note_on_c, 1, 48, 80
3, 529528, Note_off_c, 1, 53, 100
3, 529528, Note_off_c, 1, 48, 100
3, 529536, Note_on_c, 1, 48, 83
3, 529536, Note_on_c, 1, 53, 83
3, 529536, Note_on_c, 1, 55, 83
3, 529912, Note_off_c, 1, 48, 100
3, 529912, Note_off_c, 1, 53, 100
3, 529912, Note_off_c, 1, 55, 100
3, 529920, Note_on_c, 1, 59, 87
3, 529920, Note_on_c, 1, 55, 87
3, 529920, Note_on_c, 1, 53, 87
3, 529920, Note_on_c, 1, 50, 87
3, 529920, Note_on_c, 1, 48, 87
3, 530296, Note_off_c, 1, 59, 100
3, 530296, Note_off_c, 1, 55, 100
3, 530296, Note_off_c, 1, 53, 100
3, 530296, Note_off_c, 1, 50, 100
3, 530296, Note_off_c, 1, 48, 100
3, 530304, Note_on_c, 1, 59, 91
3, 530304, Note_on_c, 1, 55, 91
3, 530304, Note_on_c, 1, 53, 91
3, 530304, Note_on_c, 1, 50, 91
3, 530304, Note_on_c, 1, 48, 91
3, 530680, Note_off_c, 1, 59, 100
3, 530680, Note_off_c, 1, 55, 100
3, 530680, Note_off_c, 1, 53, 100
3, 530680, Note_off_c, 1, 50, 100
3, 530680, Note_off_c, 1, 48, 100
3, 530688, Note_on_c, 1, 59, 95
3, 530688, Note_on_c, 1, 55, 95
3, 530688, Note_on_c, 1, 53, 95
3, 530688, Note_on_c, 1, 50, 95
3, 530688, Note_on_c, 1, 48, 95
3, 531064, Note_off_c, 1, 59, 100
3, 531064, Note_off_c, 1, 55, 100
3, 531064, Note_off_c, 1, 53, 100
3, 531064, Note_off_c, 1, 50, 100
3, 531064, Note_off_c, 1, 48, 100
3, 531072, Note_on_c, 1, 59, 99
3, 531072, Note_on_c, 1, 55, 99
3, 531072, Note_on_c, 1, 53, 99
3, 531072, Note_on_c, 1, 50, 99
3, 531072, Note_on_c, 1, 48, 99
3, 531448, Note_off_c, 1, 59, 100
3, 531448, Note_off_c, 1, 55, 100
3, 531448, Note_off_c, 1, 53, 100
3, 531448, Note_off_c, 1, 50, 100
3, 531448, Note_off_c, 1, 48, 100
3, 531456, Note_on_c, 1, 59, 103
3, 531456, Note_on_c, 1, 55, 103
3, 531456, Note_on_c, 1, 53, 103
3, 531456, Note_on_c, 1, 50, 103
3, 531456, Note_on_c, 1, 48, 103
3, 531832, Note_off_c, 1, 59, 100
3, 531832, Note_off_c, 1, 55, 100
3, 531832, Note_off_c, 1, 53, 100
3, 531832, Note_off_c, 1, 50, 100
3, 531832, Note_off_c, 1, 48, 100
3, 531840, Note_on_c, 1, 59, 107
3, 531840, Note_on_c, 1, 55, 107
3, 531840, Note_on_c, 1, 53, 107
3, 531840, Note_on_c, 1, 50, 107
3, 531840, Note_on_c, 1, 48, 107
3, 532216, Note_off_c, 1, 59, 100
3, 532216, Note_off_c, 1, 55, 100
3, 532216, Note_off_c, 1, 53, 100
3, 532216, Note_off_c, 1, 50, 100
3, 532216, Note_off_c, 1, 48, 100
3, 532224, Note_on_c, 1, 59, 110
3, 532224, Note_on_c, 1, 55, 110
3, 532224, Note_on_c, 1, 53, 110
3, 532224, Note_on_c, 1, 50, 110
3, 532224, Note_on_c, 1, 48, 110
3, 532600, Note_off_c, 1, 59, 100
3, 532600, Note_off_c, 1, 55, 100
3, 532600, Note_off_c, 1, 53, 100
3, 532600, Note_off_c, 1, 50, 100
3, 532600, Note_off_c, 1, 48, 100
3, 532608, Note_on_c, 1, 59, 110
3, 532608, Note_on_c, 1, 55, 110
3, 532608, Note_on_c, 1, 53, 110
3, 532608, Note_on_c, 1, 50, 110
3, 532608, Note_on_c, 1, 48, 110
3, 532984, Note_off_c, 1, 59, 100
3, 532984, Note_off_c, 1, 55, 100
3, 532984, Note_off_c, 1, 53, 100
3, 532984, Note_off_c, 1, 50, 100
3, 532984, Note_off_c, 1, 48, 100
3, 532992, Note_on_c, 1, 59, 110
3, 532992, Note_on_c, 1, 55, 110
3, 532992, Note_on_c, 1, 53, 110
3, 532992, Note_on_c, 1, 50, 110
3, 532992, Note_on_c, 1, 48, 110
3, 533368, Note_off_c, 1, 59, 100
3, 533368, Note_off_c, 1, 55, 100
3, 533368, Note_off_c, 1, 53, 100
3, 533368, Note_off_c, 1, 50, 100
3, 533368, Note_off_c, 1, 48, 100
3, 533376, Note_on_c, 1, 59, 110
3, 533376, Note_on_c, 1, 55, 110
3, 533376, Note_on_c, 1, 53, 110
3, 533376, Note_on_c, 1, 50, 110
3, 533376, Note_on_c, 1, 48, 110
3, 533752, Note_off_c, 1, 59, 100
3, 533752, Note_off_c, 1, 55, 100
3, 533752, Note_off_c, 1, 53, 100
3, 533752, Note_off_c, 1, 50, 100
3, 533752, Note_off_c, 1, 48, 100
3, 533760, Note_on_c, 1, 59, 110
3, 533760, Note_on_c, 1, 55, 110
3, 533760, Note_on_c, 1, 53, 110
3, 533760, Note_on_c, 1, 50, 110
3, 533760, Note_on_c, 1, 48, 110
3, 534136, Note_off_c, 1, 59, 100
3, 534136, Note_off_c, 1, 55, 100
3, 534136, Note_off_c, 1, 53, 100
3, 534136, Note_off_c, 1, 50, 100
3, 534136, Note_off_c, 1, 48, 100
3, 534144, Note_on_c, 1, 59, 110
3, 534144, Note_on_c, 1, 55, 110
3, 534144, Note_on_c, 1, 53, 110
3, 534144, Note_on_c, 1, 50, 110
3, 534144, Note_on_c, 1, 48, 110
3, 534520, Note_off_c, 1, 59, 100
3, 534520, Note_off_c, 1, 55, 100
3, 534520, Note_off_c, 1, 53, 100
3, 534520, Note_off_c, 1, 50, 100
3, 534520, Note_off_c, 1, 48, 100
3, 534528, Note_on_c, 1, 59, 110
3, 534528, Note_on_c, 1, 55, 110
3, 534528, Note_on_c, 1, 53, 110
3, 534528, Note_on_c, 1, 50, 110
3, 534528, Note_on_c, 1, 48, 110
3, 534904, Note_off_c, 1, 59, 100
3, 534904, Note_off_c, 1, 55, 100
3, 534904, Note_off_c, 1, 53, 100
3, 534904, Note_off_c, 1, 50, 100
3, 534904, Note_off_c, 1, 48, 100
3, 534912, Note_on_c, 1, 59, 110
3, 534912, Note_on_c, 1, 55, 110
3, 534912, Note_on_c, 1, 53, 110
3, 534912, Note_on_c, 1, 50, 110
3, 534912, Note_on_c, 1, 48, 110
3, 535288, Note_off_c, 1, 59, 100
3, 535288, Note_off_c, 1, 55, 100
3, 535288, Note_off_c, 1, 53, 100
3, 535288, Note_off_c, 1, 50, 100
3, 535288, Note_off_c, 1, 48, 100
3, 535296, Note_on_c, 1, 36, 120
3, 535296, Note_on_c, 1, 48, 120
3, 535672, Note_off_c, 1, 36, 100
3, 535672, Note_off_c, 1, 48, 100
3, 535680, Note_on_c, 1, 55, 120
3, 535680, Note_on_c, 1, 52, 120
3, 536056, Note_off_c, 1, 55, 100
3, 536056, Note_off_c, 1, 52, 100
3, 536064, Note_on_c, 1, 52, 120
3, 536064, Note_on_c, 1, 48, 120
3, 536440, Note_off_c, 1, 52, 100
3, 536440, Note_off_c, 1, 48, 100
3, 536448, Note_on_c, 1, 60, 120
3, 536448, Note_on_c, 1, 55, 120
3, 536824, Note_off_c, 1, 60, 100
3, 536824, Note_off_c, 1, 55, 100
3, 536832, Note_on_c, 1, 55, 120
3, 536832, Note_on_c, 1, 52, 120
3, 537208, Note_off_c, 1, 55, 100
3, 537208, Note_off_c, 1, 52, 100
3, 537216, Note_on_c, 1, 64, 120
3, 537216, Note_on_c, 1, 60, 120
3, 537592, Note_off_c, 1, 64, 100
3, 537592, Note_off_c, 1, 60, 100
3, 537600, Note_on_c, 1, 60, 120
3, 537600, Note_on_c, 1, 55, 120
3, 537976, Note_off_c, 1, 60, 100
3, 537976, Note_off_c, 1, 55, 100
3, 537984, Note_on_c, 1, 67, 120
3, 537984, Note_on_c, 1, 64, 120
3, 538360, Note_off_c, 1, 67, 100
3, 538360, Note_off_c, 1, 64, 100
3, 538368, Note_on_c, 1, 64, 120
3, 538368, Note_on_c, 1, 60, 120
3, 538744, Note_off_c, 1, 64, 100
3, 538744, Note_off_c, 1, 60, 100
3, 538752, Note_on_c, 1, 67, 120
3, 538752, Note_on_c, 1, 72, 120
3, 539128, Note_off_c, 1, 67, 100
3, 539128, Note_off_c, 1, 72, 100
3, 539136, Note_on_c, 1, 67, 120
3, 539136, Note_on_c, 1, 64, 120
3, 539512, Note_off_c, 1, 67, 100
3, 539512, Note_off_c, 1, 64, 100
3, 539520, Note_on_c, 1, 76, 120
3, 539520, Note_on_c, 1, 72, 120
3, 539896, Note_off_c, 1, 72, 100
3, 539904, Note_on_c, 1, 72, 120
3, 539904, Note_on_c, 1, 67, 120
3, 540280, Note_off_c, 1, 72, 100
3, 540280, Note_off_c, 1, 67, 100
3, 540288, Note_on_c, 1, 79, 120
3, 540288, Note_on_c, 1, 76, 120
3, 540664, Note_off_c, 1, 76, 100
3, 540664, Note_off_c, 1, 79, 100
3, 540672, Note_on_c, 1, 76, 120
3, 540672, Note_on_c, 1, 72, 120
3, 541048, Note_off_c, 1, 76, 100
3, 541048, Note_off_c, 1, 72, 100
3, 541056, Note_on_c, 1, 79, 120
3, 541056, Note_on_c, 1, 76, 120
3, 541432, Note_off_c, 1, 76, 100
3, 541432, Note_off_c, 1, 79, 100
3, 541440, Note_on_c, 1, 76, 120
3, 541440, Note_on_c, 1, 72, 120
3, 541952, Note_off_c, 1, 76, 64
3, 542968, Note_off_c, 1, 76, 100
3, 542968, Note_off_c, 1, 72, 100
3, 542976, Note_on_c, 1, 67, 100
3, 542976, Note_on_c, 1, 64, 100
3, 544504, Note_off_c, 1, 67, 100
3, 544504, Note_off_c, 1, 64, 100
3, 544512, Note_on_c, 1, 64, 90
3, 544512, Note_on_c, 1, 60, 90
3, 546040, Note_off_c, 1, 64, 100
3, 546040, Note_off_c, 1, 60, 100
3, 546048, Note_on_c, 1, 55, 80
3, 546048, Note_on_c, 1, 52, 80
3, 547576, Note_off_c, 1, 55, 100
3, 547576, Note_off_c, 1, 52, 100
3, 547584, Note_on_c, 1, 52, 80
3, 547584, Note_on_c, 1, 48, 80
3, 549112, Note_off_c, 1, 52, 100
3, 549112, Note_off_c, 1, 48, 100
3, 549120, Note_on_c, 1, 64, 70
3, 549120, Note_on_c, 1, 67, 70
3, 549880, Note_off_c, 1, 64, 100
3, 549880, Note_off_c, 1, 67, 100
3, 549888, Note_on_c, 1, 67, 70
3, 549888, Note_on_c, 1, 64, 70
3, 550648, Note_off_c, 1, 67, 100
3, 550648, Note_off_c, 1, 64, 100
3, 550656, Note_on_c, 1, 64, 70
3, 550656, Note_on_c, 1, 60, 70
3, 552184, Note_off_c, 1, 64, 100
3, 552184, Note_off_c, 1, 60, 100
3, 552192, Note_on_c, 1, 48, 120
3, 552192, Note_on_c, 1, 43, 120
3, 552192, Note_on_c, 1, 40, 120
3, 552192, Note_on_c, 1, 36, 120
3, 552952, Note_off_c, 1, 48, 100
3, 552952, Note_off_c, 1, 43, 100
3, 552952, Note_off_c, 1, 40, 100
3, 552952, Note_off_c, 1, 36, 100
3, 552960, Note_on_c, 1, 48, 120
3, 552960, Note_on_c, 1, 43, 120
3, 552960, Note_on_c, 1, 40, 120
3, 552960, Note_on_c, 1, 36, 120
3, 553720, Note_off_c, 1, 48, 100
3, 553720, Note_off_c, 1, 43, 100
3, 553720, Note_off_c, 1, 40, 100
3, 553720, Note_off_c, 1, 36, 100
3, 553728, Note_on_c, 1, 48, 120
3, 553728, Note_on_c, 1, 43, 120
3, 553728, Note_on_c, 1, 40, 120
3, 553728, Note_on_c, 1, 36, 120
3, 555256, Note_off_c, 1, 48, 100
3, 555256, Note_off_c, 1, 43, 100
3, 555256, Note_off_c, 1, 40, 100
3, 555256, Note_off_c, 1, 36, 100
3, 555264, Note_on_c, 1, 48, 110
3, 555264, Note_on_c, 1, 43, 110
3, 555264, Note_on_c, 1, 40, 110
3, 555264, Note_on_c, 1, 36, 110
3, 556792, Note_off_c, 1, 48, 100
3, 556792, Note_off_c, 1, 43, 100
3, 556792, Note_off_c, 1, 40, 100
3, 556792, Note_off_c, 1, 36, 100
3, 556800, Note_on_c, 1, 48, 110
3, 556800, Note_on_c, 1, 43, 110
3, 556800, Note_on_c, 1, 36, 110
3, 556800, Note_on_c, 1, 40, 110
3, 560632, Note_off_c, 1, 36, 100
3, 560632, Note_off_c, 1, 40, 100
3, 560632, Note_off_c, 1, 43, 100
3, 560632, Note_off_c, 1, 48, 100
3, 560632, End_track
0, 0, End_of_file
