0, 0, Header, 1, 3, 384
1, 0, Start_track
1, 0, Title_t, "L.v.Beethoven 2mov - Piano Sonata No.22 in F Major Op.54\000"
1, 0, Copyright_t, "Copyright(C) 1995-2009, Suzuki Software\000"
1, 0, Sequencer_specific, 9, 67, 123, 0, 88, 70, 48, 50, 0, 1
1, 0, Text_t, "XFhd:2000/08/13:JP:Classical::::L.v.Beethoven:::Kaoru Suzuki\000"
1, 0, Text_t, "XFln:JP:\203s\203A\203m\203\\\203i\203^\221æ22\224Ô\203w\222·\222²\215ì\225i54\201`\221æ2\212y\217Í:L.v.\203x\201[\203g\201[\203\224\203F\203\223:::\227é\202¿\202á\202ñ:\227é\202¿\202á\202ñ\000"
1, 0, Time_signature, 2, 2, 96, 8
1, 0, Sequencer_specific, 3, 0, 0, 65
1, 0, Sequencer_specific, 5, 0, 0, 119, 14, 0
1, 0, Tempo, 400000
1, 48768, Tempo, 428571
1, 48960, Tempo, 500000
1, 49344, Tempo, 400000
1, 101760, Tempo, 428571
1, 101952, Tempo, 500000
1, 102336, Tempo, 400000
1, 156288, Tempo, 428571
1, 156480, Tempo, 500000
1, 156864, Tempo, 400000
1, 264960, Tempo, 428571
1, 265344, Tempo, 461538
1, 265728, Tempo, 600000
1, 265728, End_track
2, 0, Start_track
2, 0, Title_t, "Right"
2, 0, Control_c, 0, 0, 0
2, 0, Program_c, 0, 0
2, 0, Control_c, 0, 7, 100
2, 0, Control_c, 0, 10, 78
2, 0, Control_c, 0, 91, 127
2, 0, Key_signature, -1, "major"
2, 1632, Note_on_c, 0, 57, 80
2, 1724, Note_off_c, 0, 57, 100
2, 1728, Note_on_c, 0, 60, 80
2, 1820, Note_off_c, 0, 60, 100
2, 1824, Note_on_c, 0, 65, 80
2, 1916, Note_off_c, 0, 65, 100
2, 1920, Note_on_c, 0, 55, 80
2, 2012, Note_off_c, 0, 55, 100
2, 2016, Note_on_c, 0, 64, 80
2, 2108, Note_off_c, 0, 64, 100
2, 2112, Note_on_c, 0, 57, 80
2, 2204, Note_off_c, 0, 57, 100
2, 2208, Note_on_c, 0, 65, 80
2, 2300, Note_off_c, 0, 65, 100
2, 2304, Note_on_c, 0, 58, 80
2, 2396, Note_off_c, 0, 58, 100
2, 2400, Note_on_c, 0, 67, 80
2, 2492, Note_off_c, 0, 67, 100
2, 2496, Note_on_c, 0, 60, 80
2, 2588, Note_off_c, 0, 60, 100
2, 2592, Note_on_c, 0, 69, 80
2, 2684, Note_off_c, 0, 69, 100
2, 2688, Note_on_c, 0, 62, 80
2, 2780, Note_off_c, 0, 62, 100
2, 2784, Note_on_c, 0, 70, 80
2, 2876, Note_off_c, 0, 70, 100
2, 2880, Note_on_c, 0, 64, 80
2, 2972, Note_off_c, 0, 64, 100
2, 2976, Note_on_c, 0, 72, 80
2, 3068, Note_off_c, 0, 72, 100
2, 3072, Note_on_c, 0, 69, 80
2, 3164, Note_off_c, 0, 69, 100
2, 3168, Note_on_c, 0, 65, 80
2, 3260, Note_off_c, 0, 65, 100
2, 3264, Note_on_c, 0, 72, 101
2, 4604, Note_off_c, 0, 72, 100
2, 4704, Note_on_c, 0, 69, 80
2, 4796, Note_off_c, 0, 69, 100
2, 4800, Note_on_c, 0, 72, 80
2, 4892, Note_off_c, 0, 72, 100
2, 4896, Note_on_c, 0, 77, 80
2, 4988, Note_off_c, 0, 77, 100
2, 4992, Note_on_c, 0, 67, 80
2, 5084, Note_off_c, 0, 67, 100
2, 5088, Note_on_c, 0, 76, 80
2, 5180, Note_off_c, 0, 76, 100
2, 5184, Note_on_c, 0, 69, 80
2, 5276, Note_off_c, 0, 69, 100
2, 5280, Note_on_c, 0, 77, 80
2, 5372, Note_off_c, 0, 77, 100
2, 5376, Note_on_c, 0, 70, 80
2, 5468, Note_off_c, 0, 70, 100
2, 5472, Note_on_c, 0, 79, 80
2, 5564, Note_off_c, 0, 79, 100
2, 5568, Note_on_c, 0, 72, 80
2, 5660, Note_off_c, 0, 72, 100
2, 5664, Note_on_c, 0, 81, 80
2, 5756, Note_off_c, 0, 81, 100
2, 5760, Note_on_c, 0, 74, 80
2, 5852, Note_off_c, 0, 74, 100
2, 5856, Note_on_c, 0, 82, 80
2, 5948, Note_off_c, 0, 82, 100
2, 5952, Note_on_c, 0, 76, 80
2, 6044, Note_off_c, 0, 76, 100
2, 6048, Note_on_c, 0, 84, 80
2, 6140, Note_off_c, 0, 84, 100
2, 6144, Note_on_c, 0, 81, 80
2, 6236, Note_off_c, 0, 81, 100
2, 6240, Note_on_c, 0, 77, 80
2, 6332, Note_off_c, 0, 77, 100
2, 6336, Note_on_c, 0, 84, 80
2, 6428, Note_off_c, 0, 84, 100
2, 6432, Note_on_c, 0, 76, 80
2, 6524, Note_off_c, 0, 76, 100
2, 6528, Note_on_c, 0, 77, 80
2, 6620, Note_off_c, 0, 77, 100
2, 6624, Note_on_c, 0, 74, 80
2, 6716, Note_off_c, 0, 74, 100
2, 6720, Note_on_c, 0, 81, 80
2, 6812, Note_off_c, 0, 81, 100
2, 6816, Note_on_c, 0, 72, 80
2, 6908, Note_off_c, 0, 72, 100
2, 6912, Note_on_c, 0, 74, 80
2, 7004, Note_off_c, 0, 74, 100
2, 7008, Note_on_c, 0, 70, 80
2, 7100, Note_off_c, 0, 70, 100
2, 7104, Note_on_c, 0, 77, 80
2, 7196, Note_off_c, 0, 77, 100
2, 7200, Note_on_c, 0, 69, 80
2, 7292, Note_off_c, 0, 69, 100
2, 7296, Note_on_c, 0, 70, 80
2, 7388, Note_off_c, 0, 70, 100
2, 7392, Note_on_c, 0, 67, 80
2, 7484, Note_off_c, 0, 67, 100
2, 7488, Note_on_c, 0, 74, 80
2, 7580, Note_off_c, 0, 74, 100
2, 7584, Note_on_c, 0, 65, 80
2, 7676, Note_off_c, 0, 65, 100
2, 7680, Note_on_c, 0, 67, 80
2, 7772, Note_off_c, 0, 67, 100
2, 7776, Note_on_c, 0, 62, 80
2, 7868, Note_off_c, 0, 62, 100
2, 7872, Note_on_c, 0, 70, 81
2, 7964, Note_off_c, 0, 70, 100
2, 7968, Note_on_c, 0, 62, 81
2, 8060, Note_off_c, 0, 62, 100
2, 8064, Note_on_c, 0, 67, 82
2, 8156, Note_off_c, 0, 67, 100
2, 8160, Note_on_c, 0, 62, 83
2, 8252, Note_off_c, 0, 62, 100
2, 8256, Note_on_c, 0, 65, 83
2, 8348, Note_off_c, 0, 65, 100
2, 8352, Note_on_c, 0, 62, 84
2, 8444, Note_off_c, 0, 62, 100
2, 8448, Note_on_c, 0, 64, 85
2, 8540, Note_off_c, 0, 64, 100
2, 8544, Note_on_c, 0, 60, 85
2, 8636, Note_off_c, 0, 60, 100
2, 8640, Note_on_c, 0, 57, 86
2, 8732, Note_off_c, 0, 57, 100
2, 8736, Note_on_c, 0, 62, 87
2, 8828, Note_off_c, 0, 62, 100
2, 8832, Note_on_c, 0, 55, 87
2, 8924, Note_off_c, 0, 55, 100
2, 8928, Note_on_c, 0, 60, 88
2, 9020, Note_off_c, 0, 60, 100
2, 9024, Note_on_c, 0, 53, 89
2, 9116, Note_off_c, 0, 53, 100
2, 9120, Note_on_c, 0, 59, 89
2, 9212, Note_off_c, 0, 59, 100
2, 9216, Note_on_c, 0, 48, 80
2, 9308, Note_off_c, 0, 48, 100
2, 9312, Note_on_c, 0, 52, 80
2, 9404, Note_off_c, 0, 52, 100
2, 9408, Note_on_c, 0, 55, 80
2, 9500, Note_off_c, 0, 55, 100
2, 9504, Note_on_c, 0, 60, 80
2, 9596, Note_off_c, 0, 60, 100
2, 9600, Note_on_c, 0, 51, 80
2, 9692, Note_off_c, 0, 51, 100
2, 9696, Note_on_c, 0, 59, 80
2, 9788, Note_off_c, 0, 59, 100
2, 9792, Note_on_c, 0, 52, 80
2, 9884, Note_off_c, 0, 52, 100
2, 9888, Note_on_c, 0, 60, 80
2, 9980, Note_off_c, 0, 60, 100
2, 9984, Note_on_c, 0, 52, 80
2, 10076, Note_off_c, 0, 52, 100
2, 10080, Note_on_c, 0, 55, 80
2, 10172, Note_off_c, 0, 55, 100
2, 10176, Note_on_c, 0, 60, 80
2, 10268, Note_off_c, 0, 60, 100
2, 10272, Note_on_c, 0, 64, 80
2, 10364, Note_off_c, 0, 64, 100
2, 10368, Note_on_c, 0, 59, 80
2, 10460, Note_off_c, 0, 59, 100
2, 10464, Note_on_c, 0, 63, 80
2, 10556, Note_off_c, 0, 63, 100
2, 10560, Note_on_c, 0, 60, 80
2, 10652, Note_off_c, 0, 60, 100
2, 10656, Note_on_c, 0, 64, 80
2, 10748, Note_off_c, 0, 64, 100
2, 10752, Note_on_c, 0, 60, 80
2, 10844, Note_off_c, 0, 60, 100
2, 10848, Note_on_c, 0, 64, 80
2, 10940, Note_off_c, 0, 64, 100
2, 10944, Note_on_c, 0, 67, 81
2, 11036, Note_off_c, 0, 67, 100
2, 11040, Note_on_c, 0, 72, 81
2, 11132, Note_off_c, 0, 72, 100
2, 11136, Note_on_c, 0, 63, 82
2, 11228, Note_off_c, 0, 63, 100
2, 11232, Note_on_c, 0, 71, 83
2, 11324, Note_off_c, 0, 71, 100
2, 11328, Note_on_c, 0, 64, 83
2, 11420, Note_off_c, 0, 64, 100
2, 11424, Note_on_c, 0, 72, 84
2, 11516, Note_off_c, 0, 72, 100
2, 11520, Note_on_c, 0, 71, 85
2, 11612, Note_off_c, 0, 71, 100
2, 11616, Note_on_c, 0, 75, 85
2, 11708, Note_off_c, 0, 75, 100
2, 11712, Note_on_c, 0, 72, 86
2, 11804, Note_off_c, 0, 72, 100
2, 11808, Note_on_c, 0, 76, 87
2, 11900, Note_off_c, 0, 76, 100
2, 11904, Note_on_c, 0, 75, 87
2, 11996, Note_off_c, 0, 75, 100
2, 12000, Note_on_c, 0, 78, 88
2, 12092, Note_off_c, 0, 78, 100
2, 12096, Note_on_c, 0, 76, 89
2, 12188, Note_off_c, 0, 76, 100
2, 12192, Note_on_c, 0, 79, 89
2, 12284, Note_off_c, 0, 79, 100
2, 12288, Note_on_c, 0, 84, 80
2, 12380, Note_off_c, 0, 84, 100
2, 12384, Note_on_c, 0, 72, 80
2, 12476, Note_off_c, 0, 72, 100
2, 12480, Note_on_c, 0, 74, 80
2, 12572, Note_off_c, 0, 74, 100
2, 12576, Note_on_c, 0, 76, 80
2, 12668, Note_off_c, 0, 76, 100
2, 12672, Note_on_c, 0, 77, 80
2, 12764, Note_off_c, 0, 77, 100
2, 12768, Note_on_c, 0, 79, 80
2, 12860, Note_off_c, 0, 79, 100
2, 12864, Note_on_c, 0, 81, 80
2, 12956, Note_off_c, 0, 81, 100
2, 12960, Note_on_c, 0, 83, 80
2, 13052, Note_off_c, 0, 83, 100
2, 13056, Note_on_c, 0, 84, 80
2, 13148, Note_off_c, 0, 84, 100
2, 13152, Note_on_c, 0, 72, 80
2, 13244, Note_off_c, 0, 72, 100
2, 13248, Note_on_c, 0, 74, 80
2, 13340, Note_off_c, 0, 74, 100
2, 13344, Note_on_c, 0, 76, 80
2, 13436, Note_off_c, 0, 76, 100
2, 13440, Note_on_c, 0, 77, 80
2, 13532, Note_off_c, 0, 77, 100
2, 13536, Note_on_c, 0, 79, 80
2, 13628, Note_off_c, 0, 79, 100
2, 13632, Note_on_c, 0, 81, 80
2, 13724, Note_off_c, 0, 81, 100
2, 13728, Note_on_c, 0, 83, 80
2, 13820, Note_off_c, 0, 83, 100
2, 13824, Note_on_c, 0, 84, 80
2, 14012, Note_off_c, 0, 84, 100
2, 14208, Note_on_c, 0, 60, 80
2, 14208, Note_on_c, 0, 55, 80
2, 14208, Note_on_c, 0, 52, 80
2, 14396, Note_off_c, 0, 60, 100
2, 14396, Note_off_c, 0, 55, 100
2, 14396, Note_off_c, 0, 52, 100
2, 16992, Note_on_c, 0, 57, 80
2, 17084, Note_off_c, 0, 57, 100
2, 17088, Note_on_c, 0, 60, 80
2, 17180, Note_off_c, 0, 60, 100
2, 17184, Note_on_c, 0, 65, 80
2, 17276, Note_off_c, 0, 65, 100
2, 17280, Note_on_c, 0, 55, 80
2, 17372, Note_off_c, 0, 55, 100
2, 17376, Note_on_c, 0, 64, 80
2, 17468, Note_off_c, 0, 64, 100
2, 17472, Note_on_c, 0, 57, 80
2, 17564, Note_off_c, 0, 57, 100
2, 17568, Note_on_c, 0, 65, 80
2, 17660, Note_off_c, 0, 65, 100
2, 17664, Note_on_c, 0, 58, 80
2, 17756, Note_off_c, 0, 58, 100
2, 17760, Note_on_c, 0, 67, 80
2, 17852, Note_off_c, 0, 67, 100
2, 17856, Note_on_c, 0, 60, 80
2, 17948, Note_off_c, 0, 60, 100
2, 17952, Note_on_c, 0, 69, 80
2, 18044, Note_off_c, 0, 69, 100
2, 18048, Note_on_c, 0, 62, 80
2, 18140, Note_off_c, 0, 62, 100
2, 18144, Note_on_c, 0, 70, 80
2, 18236, Note_off_c, 0, 70, 100
2, 18240, Note_on_c, 0, 64, 80
2, 18332, Note_off_c, 0, 64, 100
2, 18336, Note_on_c, 0, 72, 80
2, 18428, Note_off_c, 0, 72, 100
2, 18432, Note_on_c, 0, 69, 80
2, 18524, Note_off_c, 0, 69, 100
2, 18528, Note_on_c, 0, 65, 80
2, 18620, Note_off_c, 0, 65, 100
2, 18624, Note_on_c, 0, 72, 103
2, 19964, Note_off_c, 0, 72, 100
2, 20064, Note_on_c, 0, 69, 80
2, 20156, Note_off_c, 0, 69, 100
2, 20160, Note_on_c, 0, 72, 80
2, 20252, Note_off_c, 0, 72, 100
2, 20256, Note_on_c, 0, 77, 80
2, 20348, Note_off_c, 0, 77, 100
2, 20352, Note_on_c, 0, 67, 80
2, 20444, Note_off_c, 0, 67, 100
2, 20448, Note_on_c, 0, 76, 80
2, 20540, Note_off_c, 0, 76, 100
2, 20544, Note_on_c, 0, 69, 80
2, 20636, Note_off_c, 0, 69, 100
2, 20640, Note_on_c, 0, 77, 80
2, 20732, Note_off_c, 0, 77, 100
2, 20736, Note_on_c, 0, 70, 80
2, 20828, Note_off_c, 0, 70, 100
2, 20832, Note_on_c, 0, 79, 80
2, 20924, Note_off_c, 0, 79, 100
2, 20928, Note_on_c, 0, 72, 80
2, 21020, Note_off_c, 0, 72, 100
2, 21024, Note_on_c, 0, 81, 80
2, 21116, Note_off_c, 0, 81, 100
2, 21120, Note_on_c, 0, 74, 80
2, 21212, Note_off_c, 0, 74, 100
2, 21216, Note_on_c, 0, 82, 80
2, 21308, Note_off_c, 0, 82, 100
2, 21312, Note_on_c, 0, 76, 80
2, 21404, Note_off_c, 0, 76, 100
2, 21408, Note_on_c, 0, 84, 80
2, 21500, Note_off_c, 0, 84, 100
2, 21504, Note_on_c, 0, 81, 80
2, 21596, Note_off_c, 0, 81, 100
2, 21600, Note_on_c, 0, 77, 80
2, 21692, Note_off_c, 0, 77, 100
2, 21696, Note_on_c, 0, 84, 80
2, 21788, Note_off_c, 0, 84, 100
2, 21792, Note_on_c, 0, 76, 80
2, 21884, Note_off_c, 0, 76, 100
2, 21888, Note_on_c, 0, 77, 80
2, 21980, Note_off_c, 0, 77, 100
2, 21984, Note_on_c, 0, 74, 80
2, 22076, Note_off_c, 0, 74, 100
2, 22080, Note_on_c, 0, 81, 80
2, 22172, Note_off_c, 0, 81, 100
2, 22176, Note_on_c, 0, 72, 80
2, 22268, Note_off_c, 0, 72, 100
2, 22272, Note_on_c, 0, 74, 80
2, 22364, Note_off_c, 0, 74, 100
2, 22368, Note_on_c, 0, 70, 80
2, 22460, Note_off_c, 0, 70, 100
2, 22464, Note_on_c, 0, 77, 80
2, 22556, Note_off_c, 0, 77, 100
2, 22560, Note_on_c, 0, 69, 80
2, 22652, Note_off_c, 0, 69, 100
2, 22656, Note_on_c, 0, 70, 80
2, 22748, Note_off_c, 0, 70, 100
2, 22752, Note_on_c, 0, 67, 80
2, 22844, Note_off_c, 0, 67, 100
2, 22848, Note_on_c, 0, 74, 80
2, 22940, Note_off_c, 0, 74, 100
2, 22944, Note_on_c, 0, 65, 80
2, 23036, Note_off_c, 0, 65, 100
2, 23040, Note_on_c, 0, 67, 80
2, 23132, Note_off_c, 0, 67, 100
2, 23136, Note_on_c, 0, 62, 80
2, 23228, Note_off_c, 0, 62, 100
2, 23232, Note_on_c, 0, 70, 80
2, 23324, Note_off_c, 0, 70, 100
2, 23328, Note_on_c, 0, 62, 80
2, 23420, Note_off_c, 0, 62, 100
2, 23424, Note_on_c, 0, 67, 80
2, 23516, Note_off_c, 0, 67, 100
2, 23520, Note_on_c, 0, 62, 80
2, 23612, Note_off_c, 0, 62, 100
2, 23616, Note_on_c, 0, 65, 80
2, 23708, Note_off_c, 0, 65, 100
2, 23712, Note_on_c, 0, 62, 80
2, 23804, Note_off_c, 0, 62, 100
2, 23808, Note_on_c, 0, 64, 80
2, 23900, Note_off_c, 0, 64, 100
2, 23904, Note_on_c, 0, 60, 80
2, 23996, Note_off_c, 0, 60, 100
2, 24000, Note_on_c, 0, 57, 80
2, 24092, Note_off_c, 0, 57, 100
2, 24096, Note_on_c, 0, 62, 80
2, 24188, Note_off_c, 0, 62, 100
2, 24192, Note_on_c, 0, 55, 80
2, 24284, Note_off_c, 0, 55, 100
2, 24288, Note_on_c, 0, 60, 80
2, 24380, Note_off_c, 0, 60, 100
2, 24384, Note_on_c, 0, 53, 80
2, 24476, Note_off_c, 0, 53, 100
2, 24480, Note_on_c, 0, 59, 80
2, 24572, Note_off_c, 0, 59, 100
2, 24576, Note_on_c, 0, 48, 80
2, 24668, Note_off_c, 0, 48, 100
2, 24672, Note_on_c, 0, 52, 80
2, 24764, Note_off_c, 0, 52, 100
2, 24768, Note_on_c, 0, 55, 80
2, 24860, Note_off_c, 0, 55, 100
2, 24864, Note_on_c, 0, 60, 80
2, 24956, Note_off_c, 0, 60, 100
2, 24960, Note_on_c, 0, 51, 80
2, 25052, Note_off_c, 0, 51, 100
2, 25056, Note_on_c, 0, 59, 80
2, 25148, Note_off_c, 0, 59, 100
2, 25152, Note_on_c, 0, 52, 80
2, 25244, Note_off_c, 0, 52, 100
2, 25248, Note_on_c, 0, 60, 80
2, 25340, Note_off_c, 0, 60, 100
2, 25344, Note_on_c, 0, 52, 80
2, 25436, Note_off_c, 0, 52, 100
2, 25440, Note_on_c, 0, 55, 80
2, 25532, Note_off_c, 0, 55, 100
2, 25536, Note_on_c, 0, 60, 80
2, 25628, Note_off_c, 0, 60, 100
2, 25632, Note_on_c, 0, 64, 80
2, 25724, Note_off_c, 0, 64, 100
2, 25728, Note_on_c, 0, 59, 80
2, 25820, Note_off_c, 0, 59, 100
2, 25824, Note_on_c, 0, 63, 80
2, 25916, Note_off_c, 0, 63, 100
2, 25920, Note_on_c, 0, 60, 80
2, 26012, Note_off_c, 0, 60, 100
2, 26016, Note_on_c, 0, 64, 80
2, 26108, Note_off_c, 0, 64, 100
2, 26112, Note_on_c, 0, 60, 80
2, 26204, Note_off_c, 0, 60, 100
2, 26208, Note_on_c, 0, 64, 81
2, 26300, Note_off_c, 0, 64, 100
2, 26304, Note_on_c, 0, 67, 82
2, 26396, Note_off_c, 0, 67, 100
2, 26400, Note_on_c, 0, 72, 83
2, 26492, Note_off_c, 0, 72, 100
2, 26496, Note_on_c, 0, 63, 85
2, 26588, Note_off_c, 0, 63, 100
2, 26592, Note_on_c, 0, 71, 86
2, 26684, Note_off_c, 0, 71, 100
2, 26688, Note_on_c, 0, 64, 87
2, 26780, Note_off_c, 0, 64, 100
2, 26784, Note_on_c, 0, 72, 89
2, 26876, Note_off_c, 0, 72, 100
2, 26880, Note_on_c, 0, 71, 90
2, 26972, Note_off_c, 0, 71, 100
2, 26976, Note_on_c, 0, 75, 91
2, 27068, Note_off_c, 0, 75, 100
2, 27072, Note_on_c, 0, 72, 93
2, 27164, Note_off_c, 0, 72, 100
2, 27168, Note_on_c, 0, 76, 94
2, 27260, Note_off_c, 0, 76, 100
2, 27264, Note_on_c, 0, 75, 95
2, 27356, Note_off_c, 0, 75, 100
2, 27360, Note_on_c, 0, 78, 97
2, 27452, Note_off_c, 0, 78, 100
2, 27456, Note_on_c, 0, 76, 98
2, 27548, Note_off_c, 0, 76, 100
2, 27552, Note_on_c, 0, 79, 99
2, 27644, Note_off_c, 0, 79, 100
2, 27648, Note_on_c, 0, 84, 80
2, 27740, Note_off_c, 0, 84, 100
2, 27744, Note_on_c, 0, 72, 80
2, 27836, Note_off_c, 0, 72, 100
2, 27840, Note_on_c, 0, 74, 80
2, 27932, Note_off_c, 0, 74, 100
2, 27936, Note_on_c, 0, 76, 80
2, 28028, Note_off_c, 0, 76, 100
2, 28032, Note_on_c, 0, 77, 80
2, 28124, Note_off_c, 0, 77, 100
2, 28128, Note_on_c, 0, 79, 80
2, 28220, Note_off_c, 0, 79, 100
2, 28224, Note_on_c, 0, 81, 80
2, 28316, Note_off_c, 0, 81, 100
2, 28320, Note_on_c, 0, 83, 80
2, 28412, Note_off_c, 0, 83, 100
2, 28416, Note_on_c, 0, 84, 80
2, 28508, Note_off_c, 0, 84, 100
2, 28512, Note_on_c, 0, 72, 80
2, 28604, Note_off_c, 0, 72, 100
2, 28608, Note_on_c, 0, 74, 80
2, 28700, Note_off_c, 0, 74, 100
2, 28704, Note_on_c, 0, 76, 80
2, 28796, Note_off_c, 0, 76, 100
2, 28800, Note_on_c, 0, 77, 80
2, 28892, Note_off_c, 0, 77, 100
2, 28896, Note_on_c, 0, 79, 80
2, 28988, Note_off_c, 0, 79, 100
2, 28992, Note_on_c, 0, 81, 80
2, 29084, Note_off_c, 0, 81, 100
2, 29088, Note_on_c, 0, 83, 80
2, 29180, Note_off_c, 0, 83, 100
2, 29184, Note_on_c, 0, 84, 80
2, 29372, Note_off_c, 0, 84, 100
2, 29568, Note_on_c, 0, 60, 80
2, 29568, Note_on_c, 0, 55, 80
2, 29568, Note_on_c, 0, 52, 80
2, 29756, Note_off_c, 0, 60, 100
2, 29756, Note_off_c, 0, 55, 100
2, 29756, Note_off_c, 0, 52, 100
2, 32256, Note_on_c, 0, 57, 80
2, 32348, Note_off_c, 0, 57, 100
2, 32352, Note_on_c, 0, 61, 80
2, 32444, Note_off_c, 0, 61, 100
2, 32448, Note_on_c, 0, 64, 80
2, 32540, Note_off_c, 0, 64, 100
2, 32544, Note_on_c, 0, 69, 80
2, 32636, Note_off_c, 0, 69, 100
2, 32640, Note_on_c, 0, 59, 80
2, 32732, Note_off_c, 0, 59, 100
2, 32736, Note_on_c, 0, 68, 80
2, 32828, Note_off_c, 0, 68, 100
2, 32832, Note_on_c, 0, 61, 80
2, 32924, Note_off_c, 0, 61, 100
2, 32928, Note_on_c, 0, 69, 80
2, 33020, Note_off_c, 0, 69, 100
2, 33024, Note_on_c, 0, 62, 80
2, 33116, Note_off_c, 0, 62, 100
2, 33120, Note_on_c, 0, 71, 80
2, 33212, Note_off_c, 0, 71, 100
2, 33216, Note_on_c, 0, 64, 80
2, 33308, Note_off_c, 0, 64, 100
2, 33312, Note_on_c, 0, 73, 80
2, 33404, Note_off_c, 0, 73, 100
2, 33408, Note_on_c, 0, 66, 80
2, 33500, Note_off_c, 0, 66, 100
2, 33504, Note_on_c, 0, 74, 80
2, 33596, Note_off_c, 0, 74, 100
2, 33600, Note_on_c, 0, 68, 80
2, 33692, Note_off_c, 0, 68, 100
2, 33696, Note_on_c, 0, 76, 80
2, 33788, Note_off_c, 0, 76, 100
2, 33792, Note_on_c, 0, 73, 80
2, 33884, Note_off_c, 0, 73, 100
2, 33888, Note_on_c, 0, 69, 80
2, 33980, Note_off_c, 0, 69, 100
2, 33984, Note_on_c, 0, 76, 101
2, 35324, Note_off_c, 0, 76, 100
2, 35424, Note_on_c, 0, 73, 80
2, 35516, Note_off_c, 0, 73, 100
2, 35520, Note_on_c, 0, 76, 80
2, 35612, Note_off_c, 0, 76, 100
2, 35616, Note_on_c, 0, 81, 80
2, 35708, Note_off_c, 0, 81, 100
2, 35712, Note_on_c, 0, 71, 80
2, 35804, Note_off_c, 0, 71, 100
2, 35808, Note_on_c, 0, 80, 80
2, 35900, Note_off_c, 0, 80, 100
2, 35904, Note_on_c, 0, 73, 80
2, 35996, Note_off_c, 0, 73, 100
2, 36000, Note_on_c, 0, 81, 80
2, 36092, Note_off_c, 0, 81, 100
2, 36096, Note_on_c, 0, 74, 80
2, 36188, Note_off_c, 0, 74, 100
2, 36192, Note_on_c, 0, 83, 80
2, 36284, Note_off_c, 0, 83, 100
2, 36288, Note_on_c, 0, 76, 80
2, 36380, Note_off_c, 0, 76, 100
2, 36384, Note_on_c, 0, 85, 80
2, 36476, Note_off_c, 0, 85, 100
2, 36480, Note_on_c, 0, 81, 80
2, 36572, Note_off_c, 0, 81, 100
2, 36576, Note_on_c, 0, 86, 80
2, 36668, Note_off_c, 0, 86, 100
2, 36672, Note_on_c, 0, 81, 80
2, 36764, Note_off_c, 0, 81, 100
2, 36768, Note_on_c, 0, 88, 80
2, 36860, Note_off_c, 0, 88, 100
2, 36864, Note_on_c, 0, 89, 80
2, 36956, Note_off_c, 0, 89, 100
2, 36960, Note_on_c, 0, 81, 80
2, 37052, Note_off_c, 0, 81, 100
2, 37056, Note_on_c, 0, 88, 80
2, 37148, Note_off_c, 0, 88, 100
2, 37152, Note_on_c, 0, 84, 80
2, 37244, Note_off_c, 0, 84, 100
2, 37248, Note_on_c, 0, 86, 80
2, 37340, Note_off_c, 0, 86, 100
2, 37344, Note_on_c, 0, 77, 80
2, 37436, Note_off_c, 0, 77, 100
2, 37440, Note_on_c, 0, 84, 80
2, 37532, Note_off_c, 0, 84, 100
2, 37536, Note_on_c, 0, 81, 80
2, 37628, Note_off_c, 0, 81, 100
2, 37632, Note_on_c, 0, 82, 80
2, 37724, Note_off_c, 0, 82, 100
2, 37728, Note_on_c, 0, 74, 80
2, 37820, Note_off_c, 0, 74, 100
2, 37824, Note_on_c, 0, 81, 80
2, 37916, Note_off_c, 0, 81, 100
2, 37920, Note_on_c, 0, 77, 80
2, 38012, Note_off_c, 0, 77, 100
2, 38016, Note_on_c, 0, 79, 80
2, 38108, Note_off_c, 0, 79, 100
2, 38112, Note_on_c, 0, 70, 80
2, 38204, Note_off_c, 0, 70, 100
2, 38208, Note_on_c, 0, 82, 80
2, 38300, Note_off_c, 0, 82, 100
2, 38304, Note_on_c, 0, 77, 80
2, 38396, Note_off_c, 0, 77, 100
2, 38400, Note_on_c, 0, 81, 80
2, 38492, Note_off_c, 0, 81, 100
2, 38496, Note_on_c, 0, 76, 80
2, 38588, Note_off_c, 0, 76, 100
2, 38592, Note_on_c, 0, 73, 80
2, 38684, Note_off_c, 0, 73, 100
2, 38688, Note_on_c, 0, 79, 80
2, 38780, Note_off_c, 0, 79, 100
2, 38784, Note_on_c, 0, 77, 80
2, 38876, Note_off_c, 0, 77, 100
2, 38880, Note_on_c, 0, 74, 80
2, 38972, Note_off_c, 0, 74, 100
2, 38976, Note_on_c, 0, 70, 80
2, 39068, Note_off_c, 0, 70, 100
2, 39072, Note_on_c, 0, 76, 80
2, 39164, Note_off_c, 0, 76, 100
2, 39168, Note_on_c, 0, 69, 80
2, 39260, Note_off_c, 0, 69, 100
2, 39264, Note_on_c, 0, 74, 80
2, 39356, Note_off_c, 0, 74, 100
2, 39360, Note_on_c, 0, 68, 80
2, 39452, Note_off_c, 0, 68, 100
2, 39456, Note_on_c, 0, 74, 80
2, 39548, Note_off_c, 0, 74, 100
2, 39552, Note_on_c, 0, 67, 80
2, 39644, Note_off_c, 0, 67, 100
2, 39648, Note_on_c, 0, 74, 80
2, 39740, Note_off_c, 0, 74, 100
2, 39744, Note_on_c, 0, 73, 80
2, 39836, Note_off_c, 0, 73, 100
2, 39840, Note_on_c, 0, 79, 80
2, 39932, Note_off_c, 0, 79, 100
2, 39936, Note_on_c, 0, 77, 80
2, 40028, Note_off_c, 0, 77, 100
2, 40032, Note_on_c, 0, 74, 80
2, 40124, Note_off_c, 0, 74, 100
2, 40128, Note_on_c, 0, 81, 80
2, 40220, Note_off_c, 0, 81, 100
2, 40224, Note_on_c, 0, 72, 80
2, 40316, Note_off_c, 0, 72, 100
2, 40320, Note_on_c, 0, 74, 80
2, 40412, Note_off_c, 0, 74, 100
2, 40416, Note_on_c, 0, 70, 80
2, 40508, Note_off_c, 0, 70, 100
2, 40512, Note_on_c, 0, 77, 80
2, 40604, Note_off_c, 0, 77, 100
2, 40608, Note_on_c, 0, 69, 80
2, 40700, Note_off_c, 0, 69, 100
2, 40704, Note_on_c, 0, 70, 80
2, 40796, Note_off_c, 0, 70, 100
2, 40800, Note_on_c, 0, 67, 80
2, 40892, Note_off_c, 0, 67, 100
2, 40896, Note_on_c, 0, 74, 80
2, 40988, Note_off_c, 0, 74, 100
2, 40992, Note_on_c, 0, 65, 80
2, 41084, Note_off_c, 0, 65, 100
2, 41088, Note_on_c, 0, 67, 80
2, 41180, Note_off_c, 0, 67, 100
2, 41184, Note_on_c, 0, 63, 80
2, 41276, Note_off_c, 0, 63, 100
2, 41280, Note_on_c, 0, 70, 80
2, 41372, Note_off_c, 0, 70, 100
2, 41376, Note_on_c, 0, 58, 80
2, 41468, Note_off_c, 0, 58, 100
2, 41472, Note_on_c, 0, 69, 80
2, 41564, Note_off_c, 0, 69, 100
2, 41568, Note_on_c, 0, 64, 81
2, 41660, Note_off_c, 0, 64, 100
2, 41664, Note_on_c, 0, 61, 82
2, 41756, Note_off_c, 0, 61, 100
2, 41760, Note_on_c, 0, 67, 83
2, 41852, Note_off_c, 0, 67, 100
2, 41856, Note_on_c, 0, 65, 85
2, 41948, Note_off_c, 0, 65, 100
2, 41952, Note_on_c, 0, 62, 86
2, 42044, Note_off_c, 0, 62, 100
2, 42048, Note_on_c, 0, 58, 87
2, 42140, Note_off_c, 0, 58, 100
2, 42144, Note_on_c, 0, 64, 89
2, 42236, Note_off_c, 0, 64, 100
2, 42240, Note_on_c, 0, 62, 90
2, 42332, Note_off_c, 0, 62, 100
2, 42336, Note_on_c, 0, 57, 91
2, 42428, Note_off_c, 0, 57, 100
2, 42432, Note_on_c, 0, 56, 93
2, 42524, Note_off_c, 0, 56, 100
2, 42528, Note_on_c, 0, 62, 94
2, 42620, Note_off_c, 0, 62, 100
2, 42624, Note_on_c, 0, 55, 95
2, 42716, Note_off_c, 0, 55, 100
2, 42720, Note_on_c, 0, 62, 97
2, 42812, Note_off_c, 0, 62, 100
2, 42816, Note_on_c, 0, 55, 98
2, 42908, Note_off_c, 0, 55, 100
2, 42912, Note_on_c, 0, 61, 99
2, 43004, Note_off_c, 0, 61, 100
2, 43008, Note_on_c, 0, 48, 110
2, 43100, Note_off_c, 0, 48, 100
2, 43104, Note_on_c, 0, 51, 110
2, 43196, Note_off_c, 0, 51, 100
2, 43200, Note_on_c, 0, 54, 110
2, 43292, Note_off_c, 0, 54, 100
2, 43296, Note_on_c, 0, 60, 110
2, 43388, Note_off_c, 0, 60, 100
2, 43392, Note_on_c, 0, 59, 110
2, 43484, Note_off_c, 0, 59, 100
2, 43488, Note_on_c, 0, 60, 110
2, 43580, Note_off_c, 0, 60, 100
2, 43584, Note_on_c, 0, 51, 110
2, 43676, Note_off_c, 0, 51, 100
2, 43680, Note_on_c, 0, 54, 110
2, 43772, Note_off_c, 0, 54, 100
2, 43776, Note_on_c, 0, 51, 110
2, 43868, Note_off_c, 0, 51, 100
2, 43872, Note_on_c, 0, 55, 110
2, 43964, Note_off_c, 0, 55, 100
2, 43968, Note_on_c, 0, 60, 110
2, 44060, Note_off_c, 0, 60, 100
2, 44064, Note_on_c, 0, 63, 110
2, 44156, Note_off_c, 0, 63, 100
2, 44160, Note_on_c, 0, 62, 110
2, 44252, Note_off_c, 0, 62, 100
2, 44256, Note_on_c, 0, 63, 110
2, 44348, Note_off_c, 0, 63, 100
2, 44352, Note_on_c, 0, 55, 110
2, 44444, Note_off_c, 0, 55, 100
2, 44448, Note_on_c, 0, 60, 110
2, 44540, Note_off_c, 0, 60, 100
2, 44544, Note_on_c, 0, 57, 110
2, 44636, Note_off_c, 0, 57, 100
2, 44640, Note_on_c, 0, 60, 110
2, 44732, Note_off_c, 0, 60, 100
2, 44736, Note_on_c, 0, 63, 110
2, 44828, Note_off_c, 0, 63, 100
2, 44832, Note_on_c, 0, 69, 110
2, 44924, Note_off_c, 0, 69, 100
2, 44928, Note_on_c, 0, 68, 110
2, 45020, Note_off_c, 0, 68, 100
2, 45024, Note_on_c, 0, 69, 110
2, 45116, Note_off_c, 0, 69, 100
2, 45120, Note_on_c, 0, 60, 110
2, 45212, Note_off_c, 0, 60, 100
2, 45216, Note_on_c, 0, 63, 110
2, 45308, Note_off_c, 0, 63, 100
2, 45312, Note_on_c, 0, 60, 110
2, 45404, Note_off_c, 0, 60, 100
2, 45408, Note_on_c, 0, 63, 110
2, 45500, Note_off_c, 0, 63, 100
2, 45504, Note_on_c, 0, 69, 110
2, 45596, Note_off_c, 0, 69, 100
2, 45600, Note_on_c, 0, 72, 110
2, 45692, Note_off_c, 0, 72, 100
2, 45696, Note_on_c, 0, 71, 110
2, 45788, Note_off_c, 0, 71, 100
2, 45792, Note_on_c, 0, 72, 110
2, 45884, Note_off_c, 0, 72, 100
2, 45888, Note_on_c, 0, 64, 110
2, 45980, Note_off_c, 0, 64, 100
2, 45984, Note_on_c, 0, 69, 110
2, 46076, Note_off_c, 0, 69, 100
2, 46080, Note_on_c, 0, 64, 110
2, 46172, Note_off_c, 0, 64, 100
2, 46176, Note_on_c, 0, 69, 110
2, 46268, Note_off_c, 0, 69, 100
2, 46272, Note_on_c, 0, 72, 110
2, 46364, Note_off_c, 0, 72, 100
2, 46368, Note_on_c, 0, 76, 110
2, 46460, Note_off_c, 0, 76, 100
2, 46464, Note_on_c, 0, 75, 110
2, 46556, Note_off_c, 0, 75, 100
2, 46560, Note_on_c, 0, 76, 110
2, 46652, Note_off_c, 0, 76, 100
2, 46656, Note_on_c, 0, 69, 110
2, 46748, Note_off_c, 0, 69, 100
2, 46752, Note_on_c, 0, 72, 110
2, 46844, Note_off_c, 0, 72, 100
2, 46848, Note_on_c, 0, 66, 110
2, 46940, Note_off_c, 0, 66, 100
2, 46944, Note_on_c, 0, 69, 110
2, 47036, Note_off_c, 0, 69, 100
2, 47040, Note_on_c, 0, 72, 110
2, 47132, Note_off_c, 0, 72, 100
2, 47136, Note_on_c, 0, 78, 110
2, 47228, Note_off_c, 0, 78, 100
2, 47232, Note_on_c, 0, 77, 110
2, 47324, Note_off_c, 0, 77, 100
2, 47328, Note_on_c, 0, 78, 110
2, 47420, Note_off_c, 0, 78, 100
2, 47424, Note_on_c, 0, 69, 110
2, 47516, Note_off_c, 0, 69, 100
2, 47520, Note_on_c, 0, 72, 110
2, 47612, Note_off_c, 0, 72, 100
2, 47616, Note_on_c, 0, 69, 110
2, 47708, Note_off_c, 0, 69, 100
2, 47712, Note_on_c, 0, 72, 110
2, 47804, Note_off_c, 0, 72, 100
2, 47808, Note_on_c, 0, 78, 110
2, 47900, Note_off_c, 0, 78, 100
2, 47904, Note_on_c, 0, 81, 110
2, 47996, Note_off_c, 0, 81, 100
2, 48000, Note_on_c, 0, 80, 110
2, 48092, Note_off_c, 0, 80, 100
2, 48096, Note_on_c, 0, 81, 110
2, 48188, Note_off_c, 0, 81, 100
2, 48192, Note_on_c, 0, 72, 110
2, 48284, Note_off_c, 0, 72, 100
2, 48288, Note_on_c, 0, 78, 110
2, 48380, Note_off_c, 0, 78, 100
2, 48384, Note_on_c, 0, 72, 110
2, 48476, Note_off_c, 0, 72, 100
2, 48480, Note_on_c, 0, 78, 110
2, 48572, Note_off_c, 0, 78, 100
2, 48576, Note_on_c, 0, 81, 110
2, 48668, Note_off_c, 0, 81, 100
2, 48672, Note_on_c, 0, 84, 110
2, 48764, Note_off_c, 0, 84, 100
2, 48768, Note_on_c, 0, 83, 110
2, 48860, Note_off_c, 0, 83, 100
2, 48864, Note_on_c, 0, 84, 110
2, 48956, Note_off_c, 0, 84, 100
2, 48960, Note_on_c, 0, 78, 110
2, 49052, Note_off_c, 0, 78, 100
2, 49056, Note_on_c, 0, 81, 110
2, 49148, Note_off_c, 0, 81, 100
2, 49152, Note_on_c, 0, 83, 110
2, 49152, Note_on_c, 0, 79, 110
2, 49152, Note_on_c, 0, 74, 110
2, 49152, Note_on_c, 0, 71, 110
2, 49340, Note_off_c, 0, 83, 100
2, 49340, Note_off_c, 0, 79, 100
2, 49340, Note_off_c, 0, 74, 100
2, 49340, Note_off_c, 0, 71, 100
2, 49536, Note_on_c, 0, 74, 110
2, 49536, Note_on_c, 0, 62, 110
2, 49724, Note_off_c, 0, 74, 100
2, 49724, Note_off_c, 0, 62, 100
2, 49728, Note_on_c, 0, 74, 110
2, 49728, Note_on_c, 0, 62, 110
2, 50108, Note_off_c, 0, 62, 100
2, 50108, Note_off_c, 0, 74, 100
2, 50112, Note_on_c, 0, 74, 110
2, 50112, Note_on_c, 0, 62, 110
2, 50492, Note_off_c, 0, 74, 100
2, 50492, Note_off_c, 0, 62, 100
2, 50496, Note_on_c, 0, 74, 110
2, 50496, Note_on_c, 0, 62, 110
2, 50684, Note_off_c, 0, 74, 100
2, 50684, Note_off_c, 0, 62, 100
2, 50688, Note_on_c, 0, 55, 80
2, 50780, Note_off_c, 0, 55, 100
2, 50784, Note_on_c, 0, 59, 80
2, 50876, Note_off_c, 0, 59, 100
2, 50880, Note_on_c, 0, 62, 80
2, 50972, Note_off_c, 0, 62, 100
2, 50976, Note_on_c, 0, 67, 80
2, 51068, Note_off_c, 0, 67, 100
2, 51072, Note_on_c, 0, 57, 80
2, 51164, Note_off_c, 0, 57, 100
2, 51168, Note_on_c, 0, 66, 80
2, 51260, Note_off_c, 0, 66, 100
2, 51264, Note_on_c, 0, 59, 80
2, 51356, Note_off_c, 0, 59, 100
2, 51360, Note_on_c, 0, 67, 80
2, 51452, Note_off_c, 0, 67, 100
2, 51456, Note_on_c, 0, 60, 80
2, 51548, Note_off_c, 0, 60, 100
2, 51552, Note_on_c, 0, 69, 80
2, 51644, Note_off_c, 0, 69, 100
2, 51648, Note_on_c, 0, 62, 80
2, 51740, Note_off_c, 0, 62, 100
2, 51744, Note_on_c, 0, 71, 80
2, 51836, Note_off_c, 0, 71, 100
2, 51840, Note_on_c, 0, 64, 80
2, 51932, Note_off_c, 0, 64, 100
2, 51936, Note_on_c, 0, 72, 80
2, 52028, Note_off_c, 0, 72, 100
2, 52032, Note_on_c, 0, 66, 80
2, 52124, Note_off_c, 0, 66, 100
2, 52128, Note_on_c, 0, 74, 80
2, 52220, Note_off_c, 0, 74, 100
2, 52224, Note_on_c, 0, 71, 110
2, 52316, Note_off_c, 0, 71, 100
2, 52320, Note_on_c, 0, 67, 110
2, 52412, Note_off_c, 0, 67, 100
2, 52416, Note_on_c, 0, 74, 121
2, 52796, Note_off_c, 0, 74, 100
2, 52800, Note_on_c, 0, 86, 110
2, 52800, Note_on_c, 0, 74, 110
2, 53180, Note_off_c, 0, 74, 100
2, 53180, Note_off_c, 0, 86, 100
2, 53184, Note_on_c, 0, 86, 110
2, 53184, Note_on_c, 0, 74, 110
2, 53564, Note_off_c, 0, 86, 100
2, 53564, Note_off_c, 0, 74, 100
2, 53568, Note_on_c, 0, 86, 110
2, 53568, Note_on_c, 0, 74, 110
2, 53756, Note_off_c, 0, 86, 100
2, 53756, Note_off_c, 0, 74, 100
2, 53760, Note_on_c, 0, 67, 80
2, 53852, Note_off_c, 0, 67, 100
2, 53856, Note_on_c, 0, 71, 80
2, 53948, Note_off_c, 0, 71, 100
2, 53952, Note_on_c, 0, 74, 80
2, 54044, Note_off_c, 0, 74, 100
2, 54048, Note_on_c, 0, 79, 80
2, 54140, Note_off_c, 0, 79, 100
2, 54144, Note_on_c, 0, 68, 80
2, 54236, Note_off_c, 0, 68, 100
2, 54240, Note_on_c, 0, 77, 80
2, 54332, Note_off_c, 0, 77, 100
2, 54336, Note_on_c, 0, 67, 80
2, 54428, Note_off_c, 0, 67, 100
2, 54432, Note_on_c, 0, 75, 80
2, 54524, Note_off_c, 0, 75, 100
2, 54528, Note_on_c, 0, 65, 80
2, 54620, Note_off_c, 0, 65, 100
2, 54624, Note_on_c, 0, 74, 80
2, 54716, Note_off_c, 0, 74, 100
2, 54720, Note_on_c, 0, 63, 80
2, 54812, Note_off_c, 0, 63, 100
2, 54816, Note_on_c, 0, 72, 80
2, 54908, Note_off_c, 0, 72, 100
2, 54912, Note_on_c, 0, 62, 80
2, 55004, Note_off_c, 0, 62, 100
2, 55008, Note_on_c, 0, 72, 80
2, 55100, Note_off_c, 0, 72, 100
2, 55104, Note_on_c, 0, 62, 80
2, 55196, Note_off_c, 0, 62, 100
2, 55200, Note_on_c, 0, 71, 80
2, 55292, Note_off_c, 0, 71, 100
2, 55296, Note_on_c, 0, 72, 110
2, 55296, Note_on_c, 0, 67, 110
2, 55296, Note_on_c, 0, 63, 110
2, 55296, Note_on_c, 0, 60, 110
2, 55484, Note_off_c, 0, 72, 100
2, 55484, Note_off_c, 0, 67, 100
2, 55484, Note_off_c, 0, 63, 100
2, 55484, Note_off_c, 0, 60, 100
2, 55680, Note_on_c, 0, 67, 110
2, 55868, Note_off_c, 0, 67, 100
2, 55872, Note_on_c, 0, 67, 110
2, 56252, Note_off_c, 0, 67, 100
2, 56256, Note_on_c, 0, 67, 110
2, 56636, Note_off_c, 0, 67, 100
2, 56640, Note_on_c, 0, 67, 110
2, 56828, Note_off_c, 0, 67, 100
2, 56832, Note_on_c, 0, 60, 100
2, 56924, Note_off_c, 0, 60, 100
2, 56928, Note_on_c, 0, 63, 94
2, 57020, Note_off_c, 0, 63, 100
2, 57024, Note_on_c, 0, 67, 87
2, 57116, Note_off_c, 0, 67, 100
2, 57120, Note_on_c, 0, 72, 81
2, 57212, Note_off_c, 0, 72, 100
2, 57216, Note_on_c, 0, 62, 80
2, 57308, Note_off_c, 0, 62, 100
2, 57312, Note_on_c, 0, 71, 80
2, 57404, Note_off_c, 0, 71, 100
2, 57408, Note_on_c, 0, 63, 80
2, 57500, Note_off_c, 0, 63, 100
2, 57504, Note_on_c, 0, 72, 80
2, 57596, Note_off_c, 0, 72, 100
2, 57600, Note_on_c, 0, 65, 80
2, 57692, Note_off_c, 0, 65, 100
2, 57696, Note_on_c, 0, 74, 80
2, 57788, Note_off_c, 0, 74, 100
2, 57792, Note_on_c, 0, 67, 80
2, 57884, Note_off_c, 0, 67, 100
2, 57888, Note_on_c, 0, 75, 80
2, 57980, Note_off_c, 0, 75, 100
2, 57984, Note_on_c, 0, 69, 80
2, 58076, Note_off_c, 0, 69, 100
2, 58080, Note_on_c, 0, 77, 80
2, 58172, Note_off_c, 0, 77, 100
2, 58176, Note_on_c, 0, 71, 80
2, 58268, Note_off_c, 0, 71, 100
2, 58272, Note_on_c, 0, 79, 80
2, 58364, Note_off_c, 0, 79, 100
2, 58368, Note_on_c, 0, 75, 110
2, 58460, Note_off_c, 0, 75, 100
2, 58464, Note_on_c, 0, 72, 110
2, 58556, Note_off_c, 0, 72, 100
2, 58560, Note_on_c, 0, 79, 110
2, 58940, Note_off_c, 0, 79, 100
2, 58944, Note_on_c, 0, 79, 110
2, 58944, Note_on_c, 0, 67, 110
2, 59324, Note_off_c, 0, 67, 100
2, 59324, Note_off_c, 0, 79, 100
2, 59328, Note_on_c, 0, 79, 110
2, 59328, Note_on_c, 0, 67, 110
2, 59708, Note_off_c, 0, 79, 100
2, 59708, Note_off_c, 0, 67, 100
2, 59712, Note_on_c, 0, 79, 110
2, 59900, Note_off_c, 0, 79, 100
2, 59904, Note_on_c, 0, 72, 110
2, 59996, Note_off_c, 0, 72, 100
2, 60000, Note_on_c, 0, 76, 110
2, 60092, Note_off_c, 0, 76, 100
2, 60096, Note_on_c, 0, 79, 110
2, 60188, Note_off_c, 0, 79, 100
2, 60192, Note_on_c, 0, 84, 110
2, 60284, Note_off_c, 0, 84, 100
2, 60288, Note_on_c, 0, 73, 110
2, 60380, Note_off_c, 0, 73, 100
2, 60384, Note_on_c, 0, 82, 110
2, 60476, Note_off_c, 0, 82, 100
2, 60480, Note_on_c, 0, 72, 110
2, 60572, Note_off_c, 0, 72, 100
2, 60576, Note_on_c, 0, 80, 110
2, 60668, Note_off_c, 0, 80, 100
2, 60672, Note_on_c, 0, 70, 110
2, 60764, Note_off_c, 0, 70, 100
2, 60768, Note_on_c, 0, 79, 110
2, 60860, Note_off_c, 0, 79, 100
2, 60864, Note_on_c, 0, 68, 110
2, 60956, Note_off_c, 0, 68, 100
2, 60960, Note_on_c, 0, 77, 110
2, 61052, Note_off_c, 0, 77, 100
2, 61056, Note_on_c, 0, 67, 110
2, 61148, Note_off_c, 0, 67, 100
2, 61152, Note_on_c, 0, 76, 110
2, 61244, Note_off_c, 0, 76, 100
2, 61248, Note_on_c, 0, 76, 110
2, 61340, Note_off_c, 0, 76, 100
2, 61344, Note_on_c, 0, 79, 110
2, 61436, Note_off_c, 0, 79, 100
2, 61440, Note_on_c, 0, 80, 110
2, 61532, Note_off_c, 0, 80, 100
2, 61536, Note_on_c, 0, 77, 110
2, 61628, Note_off_c, 0, 77, 100
2, 61632, Note_on_c, 0, 84, 110
2, 61724, Note_off_c, 0, 84, 100
2, 61728, Note_on_c, 0, 75, 110
2, 61820, Note_off_c, 0, 75, 100
2, 61824, Note_on_c, 0, 77, 110
2, 61916, Note_off_c, 0, 77, 100
2, 61920, Note_on_c, 0, 73, 110
2, 62012, Note_off_c, 0, 73, 100
2, 62016, Note_on_c, 0, 80, 110
2, 62108, Note_off_c, 0, 80, 100
2, 62112, Note_on_c, 0, 72, 110
2, 62204, Note_off_c, 0, 72, 100
2, 62208, Note_on_c, 0, 73, 110
2, 62300, Note_off_c, 0, 73, 100
2, 62304, Note_on_c, 0, 70, 110
2, 62396, Note_off_c, 0, 70, 100
2, 62400, Note_on_c, 0, 77, 110
2, 62492, Note_off_c, 0, 77, 100
2, 62496, Note_on_c, 0, 68, 110
2, 62588, Note_off_c, 0, 68, 100
2, 62592, Note_on_c, 0, 70, 110
2, 62684, Note_off_c, 0, 70, 100
2, 62688, Note_on_c, 0, 66, 110
2, 62780, Note_off_c, 0, 66, 100
2, 62784, Note_on_c, 0, 73, 110
2, 62876, Note_off_c, 0, 73, 100
2, 62880, Note_on_c, 0, 65, 110
2, 62972, Note_off_c, 0, 65, 100
2, 62976, Note_on_c, 0, 66, 110
2, 63068, Note_off_c, 0, 66, 100
2, 63072, Note_on_c, 0, 63, 110
2, 63164, Note_off_c, 0, 63, 100
2, 63168, Note_on_c, 0, 70, 111
2, 63260, Note_off_c, 0, 70, 100
2, 63264, Note_on_c, 0, 58, 111
2, 63356, Note_off_c, 0, 58, 100
2, 63360, Note_on_c, 0, 68, 112
2, 63452, Note_off_c, 0, 68, 100
2, 63456, Note_on_c, 0, 63, 113
2, 63548, Note_off_c, 0, 63, 100
2, 63552, Note_on_c, 0, 60, 113
2, 63644, Note_off_c, 0, 60, 100
2, 63648, Note_on_c, 0, 66, 114
2, 63740, Note_off_c, 0, 66, 100
2, 63744, Note_on_c, 0, 65, 115
2, 63836, Note_off_c, 0, 65, 100
2, 63840, Note_on_c, 0, 61, 115
2, 63932, Note_off_c, 0, 61, 100
2, 63936, Note_on_c, 0, 58, 116
2, 64028, Note_off_c, 0, 58, 100
2, 64032, Note_on_c, 0, 63, 117
2, 64124, Note_off_c, 0, 63, 100
2, 64128, Note_on_c, 0, 61, 117
2, 64220, Note_off_c, 0, 61, 100
2, 64224, Note_on_c, 0, 56, 118
2, 64316, Note_off_c, 0, 56, 100
2, 64320, Note_on_c, 0, 54, 119
2, 64412, Note_off_c, 0, 54, 100
2, 64416, Note_on_c, 0, 60, 119
2, 64508, Note_off_c, 0, 60, 100
2, 64512, Note_on_c, 0, 53, 120
2, 64604, Note_off_c, 0, 53, 100
2, 64608, Note_on_c, 0, 60, 119
2, 64700, Note_off_c, 0, 60, 100
2, 64704, Note_on_c, 0, 53, 118
2, 64796, Note_off_c, 0, 53, 100
2, 64800, Note_on_c, 0, 59, 116
2, 64892, Note_off_c, 0, 59, 100
2, 64896, Note_on_c, 0, 53, 115
2, 64988, Note_off_c, 0, 53, 100
2, 64992, Note_on_c, 0, 59, 113
2, 65084, Note_off_c, 0, 59, 100
2, 65088, Note_on_c, 0, 53, 112
2, 65180, Note_off_c, 0, 53, 100
2, 65184, Note_on_c, 0, 59, 111
2, 65276, Note_off_c, 0, 59, 100
2, 65280, Note_on_c, 0, 53, 80
2, 65372, Note_off_c, 0, 53, 100
2, 65376, Note_on_c, 0, 59, 80
2, 65468, Note_off_c, 0, 59, 100
2, 65472, Note_on_c, 0, 53, 80
2, 65564, Note_off_c, 0, 53, 100
2, 65568, Note_on_c, 0, 59, 80
2, 65660, Note_off_c, 0, 59, 100
2, 65664, Note_on_c, 0, 53, 80
2, 65756, Note_off_c, 0, 53, 100
2, 65760, Note_on_c, 0, 59, 80
2, 65852, Note_off_c, 0, 59, 100
2, 65856, Note_on_c, 0, 53, 80
2, 65948, Note_off_c, 0, 53, 100
2, 65952, Note_on_c, 0, 59, 80
2, 66044, Note_off_c, 0, 59, 100
2, 66048, Note_on_c, 0, 53, 110
2, 66140, Note_off_c, 0, 53, 100
2, 66144, Note_on_c, 0, 58, 110
2, 66236, Note_off_c, 0, 58, 100
2, 66240, Note_on_c, 0, 52, 110
2, 66332, Note_off_c, 0, 52, 100
2, 66336, Note_on_c, 0, 58, 110
2, 66428, Note_off_c, 0, 58, 100
2, 66432, Note_on_c, 0, 52, 110
2, 66524, Note_off_c, 0, 52, 100
2, 66528, Note_on_c, 0, 58, 110
2, 66620, Note_off_c, 0, 58, 100
2, 66624, Note_on_c, 0, 52, 110
2, 66716, Note_off_c, 0, 52, 100
2, 66720, Note_on_c, 0, 58, 110
2, 66812, Note_off_c, 0, 58, 100
2, 66816, Note_on_c, 0, 51, 80
2, 66908, Note_off_c, 0, 51, 100
2, 66912, Note_on_c, 0, 58, 80
2, 67004, Note_off_c, 0, 58, 100
2, 67008, Note_on_c, 0, 51, 80
2, 67100, Note_off_c, 0, 51, 100
2, 67104, Note_on_c, 0, 58, 80
2, 67196, Note_off_c, 0, 58, 100
2, 67200, Note_on_c, 0, 51, 80
2, 67292, Note_off_c, 0, 51, 100
2, 67296, Note_on_c, 0, 58, 80
2, 67388, Note_off_c, 0, 58, 100
2, 67392, Note_on_c, 0, 51, 80
2, 67484, Note_off_c, 0, 51, 100
2, 67488, Note_on_c, 0, 58, 80
2, 67580, Note_off_c, 0, 58, 100
2, 67584, Note_on_c, 0, 51, 80
2, 67676, Note_off_c, 0, 51, 100
2, 67680, Note_on_c, 0, 58, 80
2, 67772, Note_off_c, 0, 58, 100
2, 67776, Note_on_c, 0, 51, 80
2, 67868, Note_off_c, 0, 51, 100
2, 67872, Note_on_c, 0, 57, 80
2, 67964, Note_off_c, 0, 57, 100
2, 67968, Note_on_c, 0, 56, 80
2, 68060, Note_off_c, 0, 56, 100
2, 68064, Note_on_c, 0, 63, 80
2, 68156, Note_off_c, 0, 63, 100
2, 68160, Note_on_c, 0, 56, 80
2, 68252, Note_off_c, 0, 56, 100
2, 68256, Note_on_c, 0, 63, 80
2, 68348, Note_off_c, 0, 63, 100
2, 68352, Note_on_c, 0, 56, 80
2, 68444, Note_off_c, 0, 56, 100
2, 68448, Note_on_c, 0, 63, 80
2, 68540, Note_off_c, 0, 63, 100
2, 68544, Note_on_c, 0, 56, 80
2, 68636, Note_off_c, 0, 56, 100
2, 68640, Note_on_c, 0, 62, 80
2, 68732, Note_off_c, 0, 62, 100
2, 68736, Note_on_c, 0, 49, 80
2, 68828, Note_off_c, 0, 49, 100
2, 68832, Note_on_c, 0, 56, 80
2, 68924, Note_off_c, 0, 56, 100
2, 68928, Note_on_c, 0, 49, 80
2, 69020, Note_off_c, 0, 49, 100
2, 69024, Note_on_c, 0, 56, 80
2, 69116, Note_off_c, 0, 56, 100
2, 69120, Note_on_c, 0, 50, 80
2, 69212, Note_off_c, 0, 50, 100
2, 69216, Note_on_c, 0, 56, 80
2, 69308, Note_off_c, 0, 56, 100
2, 69312, Note_on_c, 0, 50, 80
2, 69404, Note_off_c, 0, 50, 100
2, 69408, Note_on_c, 0, 55, 80
2, 69500, Note_off_c, 0, 55, 100
2, 69504, Note_on_c, 0, 54, 80
2, 69596, Note_off_c, 0, 54, 100
2, 69600, Note_on_c, 0, 62, 80
2, 69692, Note_off_c, 0, 62, 100
2, 69696, Note_on_c, 0, 54, 80
2, 69788, Note_off_c, 0, 54, 100
2, 69792, Note_on_c, 0, 62, 80
2, 69884, Note_off_c, 0, 62, 100
2, 69888, Note_on_c, 0, 54, 80
2, 69980, Note_off_c, 0, 54, 100
2, 69984, Note_on_c, 0, 62, 80
2, 70076, Note_off_c, 0, 62, 100
2, 70080, Note_on_c, 0, 54, 80
2, 70172, Note_off_c, 0, 54, 100
2, 70176, Note_on_c, 0, 60, 80
2, 70268, Note_off_c, 0, 60, 100
2, 70272, Note_on_c, 0, 48, 80
2, 70364, Note_off_c, 0, 48, 100
2, 70368, Note_on_c, 0, 54, 80
2, 70460, Note_off_c, 0, 54, 100
2, 70464, Note_on_c, 0, 48, 80
2, 70556, Note_off_c, 0, 48, 100
2, 70560, Note_on_c, 0, 54, 80
2, 70652, Note_off_c, 0, 54, 100
2, 70656, Note_on_c, 0, 48, 80
2, 70748, Note_off_c, 0, 48, 100
2, 70752, Note_on_c, 0, 54, 80
2, 70844, Note_off_c, 0, 54, 100
2, 70848, Note_on_c, 0, 50, 80
2, 70940, Note_off_c, 0, 50, 100
2, 70944, Note_on_c, 0, 52, 80
2, 71036, Note_off_c, 0, 52, 100
2, 71040, Note_on_c, 0, 52, 110
2, 71132, Note_off_c, 0, 52, 100
2, 71136, Note_on_c, 0, 61, 110
2, 71228, Note_off_c, 0, 61, 100
2, 71232, Note_on_c, 0, 52, 110
2, 71324, Note_off_c, 0, 52, 100
2, 71328, Note_on_c, 0, 61, 110
2, 71420, Note_off_c, 0, 61, 100
2, 71424, Note_on_c, 0, 52, 110
2, 71516, Note_off_c, 0, 52, 100
2, 71520, Note_on_c, 0, 61, 110
2, 71612, Note_off_c, 0, 61, 100
2, 71616, Note_on_c, 0, 52, 110
2, 71708, Note_off_c, 0, 52, 100
2, 71712, Note_on_c, 0, 61, 110
2, 71804, Note_off_c, 0, 61, 100
2, 71808, Note_on_c, 0, 50, 110
2, 71900, Note_off_c, 0, 50, 100
2, 71904, Note_on_c, 0, 55, 110
2, 71996, Note_off_c, 0, 55, 100
2, 72000, Note_on_c, 0, 50, 110
2, 72092, Note_off_c, 0, 50, 100
2, 72096, Note_on_c, 0, 55, 110
2, 72188, Note_off_c, 0, 55, 100
2, 72192, Note_on_c, 0, 48, 110
2, 72192, Note_on_c, 0, 56, 110
2, 72284, Note_off_c, 0, 48, 100
2, 72284, Note_off_c, 0, 56, 100
2, 72288, Note_on_c, 0, 60, 104
2, 72380, Note_off_c, 0, 60, 100
2, 72384, Note_on_c, 0, 63, 97
2, 72476, Note_off_c, 0, 63, 100
2, 72480, Note_on_c, 0, 68, 91
2, 72572, Note_off_c, 0, 68, 100
2, 72576, Note_on_c, 0, 61, 80
2, 72668, Note_off_c, 0, 61, 100
2, 72672, Note_on_c, 0, 67, 80
2, 72764, Note_off_c, 0, 67, 100
2, 72768, Note_on_c, 0, 60, 80
2, 72860, Note_off_c, 0, 60, 100
2, 72864, Note_on_c, 0, 68, 80
2, 72956, Note_off_c, 0, 68, 100
2, 72960, Note_on_c, 0, 56, 80
2, 73052, Note_off_c, 0, 56, 100
2, 73056, Note_on_c, 0, 60, 80
2, 73148, Note_off_c, 0, 60, 100
2, 73152, Note_on_c, 0, 63, 80
2, 73244, Note_off_c, 0, 63, 100
2, 73248, Note_on_c, 0, 68, 80
2, 73340, Note_off_c, 0, 68, 100
2, 73344, Note_on_c, 0, 61, 80
2, 73436, Note_off_c, 0, 61, 100
2, 73440, Note_on_c, 0, 67, 80
2, 73532, Note_off_c, 0, 67, 100
2, 73536, Note_on_c, 0, 60, 80
2, 73628, Note_off_c, 0, 60, 100
2, 73632, Note_on_c, 0, 68, 80
2, 73724, Note_off_c, 0, 68, 100
2, 73728, Note_on_c, 0, 56, 80
2, 73820, Note_off_c, 0, 56, 100
2, 73824, Note_on_c, 0, 60, 80
2, 73916, Note_off_c, 0, 60, 100
2, 73920, Note_on_c, 0, 63, 80
2, 74012, Note_off_c, 0, 63, 100
2, 74016, Note_on_c, 0, 68, 80
2, 74108, Note_off_c, 0, 68, 100
2, 74112, Note_on_c, 0, 61, 80
2, 74204, Note_off_c, 0, 61, 100
2, 74208, Note_on_c, 0, 67, 80
2, 74300, Note_off_c, 0, 67, 100
2, 74304, Note_on_c, 0, 60, 80
2, 74396, Note_off_c, 0, 60, 100
2, 74400, Note_on_c, 0, 68, 80
2, 74492, Note_off_c, 0, 68, 100
2, 74496, Note_on_c, 0, 61, 80
2, 74588, Note_off_c, 0, 61, 100
2, 74592, Note_on_c, 0, 67, 80
2, 74684, Note_off_c, 0, 67, 100
2, 74688, Note_on_c, 0, 60, 80
2, 74780, Note_off_c, 0, 60, 100
2, 74784, Note_on_c, 0, 68, 80
2, 74876, Note_off_c, 0, 68, 100
2, 74880, Note_on_c, 0, 63, 80
2, 74972, Note_off_c, 0, 63, 100
2, 74976, Note_on_c, 0, 68, 80
2, 75068, Note_off_c, 0, 68, 100
2, 75072, Note_on_c, 0, 66, 80
2, 75164, Note_off_c, 0, 66, 100
2, 75168, Note_on_c, 0, 68, 80
2, 75260, Note_off_c, 0, 68, 100
2, 75264, Note_on_c, 0, 61, 80
2, 75356, Note_off_c, 0, 61, 100
2, 75360, Note_on_c, 0, 65, 80
2, 75452, Note_off_c, 0, 65, 100
2, 75456, Note_on_c, 0, 68, 80
2, 75548, Note_off_c, 0, 68, 100
2, 75552, Note_on_c, 0, 73, 80
2, 75644, Note_off_c, 0, 73, 100
2, 75648, Note_on_c, 0, 66, 80
2, 75740, Note_off_c, 0, 66, 100
2, 75744, Note_on_c, 0, 72, 80
2, 75836, Note_off_c, 0, 72, 100
2, 75840, Note_on_c, 0, 65, 80
2, 75932, Note_off_c, 0, 65, 100
2, 75936, Note_on_c, 0, 73, 80
2, 76028, Note_off_c, 0, 73, 100
2, 76032, Note_on_c, 0, 61, 80
2, 76124, Note_off_c, 0, 61, 100
2, 76128, Note_on_c, 0, 65, 80
2, 76220, Note_off_c, 0, 65, 100
2, 76224, Note_on_c, 0, 68, 80
2, 76316, Note_off_c, 0, 68, 100
2, 76320, Note_on_c, 0, 73, 80
2, 76412, Note_off_c, 0, 73, 100
2, 76416, Note_on_c, 0, 66, 80
2, 76508, Note_off_c, 0, 66, 100
2, 76512, Note_on_c, 0, 72, 80
2, 76604, Note_off_c, 0, 72, 100
2, 76608, Note_on_c, 0, 65, 80
2, 76700, Note_off_c, 0, 65, 100
2, 76704, Note_on_c, 0, 73, 80
2, 76796, Note_off_c, 0, 73, 100
2, 76800, Note_on_c, 0, 61, 80
2, 76892, Note_off_c, 0, 61, 100
2, 76896, Note_on_c, 0, 65, 80
2, 76988, Note_off_c, 0, 65, 100
2, 76992, Note_on_c, 0, 68, 80
2, 77084, Note_off_c, 0, 68, 100
2, 77088, Note_on_c, 0, 73, 80
2, 77180, Note_off_c, 0, 73, 100
2, 77184, Note_on_c, 0, 66, 80
2, 77276, Note_off_c, 0, 66, 100
2, 77280, Note_on_c, 0, 72, 80
2, 77372, Note_off_c, 0, 72, 100
2, 77376, Note_on_c, 0, 65, 80
2, 77468, Note_off_c, 0, 65, 100
2, 77472, Note_on_c, 0, 73, 80
2, 77564, Note_off_c, 0, 73, 100
2, 77568, Note_on_c, 0, 66, 80
2, 77660, Note_off_c, 0, 66, 100
2, 77664, Note_on_c, 0, 72, 80
2, 77756, Note_off_c, 0, 72, 100
2, 77760, Note_on_c, 0, 65, 80
2, 77852, Note_off_c, 0, 65, 100
2, 77856, Note_on_c, 0, 73, 80
2, 77948, Note_off_c, 0, 73, 100
2, 77952, Note_on_c, 0, 63, 80
2, 78044, Note_off_c, 0, 63, 100
2, 78048, Note_on_c, 0, 68, 80
2, 78140, Note_off_c, 0, 68, 100
2, 78144, Note_on_c, 0, 63, 80
2, 78236, Note_off_c, 0, 63, 100
2, 78240, Note_on_c, 0, 66, 80
2, 78332, Note_off_c, 0, 66, 100
2, 78336, Note_on_c, 0, 56, 80
2, 78428, Note_off_c, 0, 56, 100
2, 78432, Note_on_c, 0, 60, 80
2, 78524, Note_off_c, 0, 60, 100
2, 78528, Note_on_c, 0, 63, 80
2, 78620, Note_off_c, 0, 63, 100
2, 78624, Note_on_c, 0, 68, 80
2, 78716, Note_off_c, 0, 68, 100
2, 78720, Note_on_c, 0, 61, 80
2, 78812, Note_off_c, 0, 61, 100
2, 78816, Note_on_c, 0, 67, 80
2, 78908, Note_off_c, 0, 67, 100
2, 78912, Note_on_c, 0, 60, 80
2, 79004, Note_off_c, 0, 60, 100
2, 79008, Note_on_c, 0, 68, 80
2, 79100, Note_off_c, 0, 68, 100
2, 79104, Note_on_c, 0, 56, 80
2, 79196, Note_off_c, 0, 56, 100
2, 79200, Note_on_c, 0, 60, 80
2, 79292, Note_off_c, 0, 60, 100
2, 79296, Note_on_c, 0, 63, 80
2, 79388, Note_off_c, 0, 63, 100
2, 79392, Note_on_c, 0, 68, 80
2, 79484, Note_off_c, 0, 68, 100
2, 79488, Note_on_c, 0, 61, 80
2, 79580, Note_off_c, 0, 61, 100
2, 79584, Note_on_c, 0, 67, 80
2, 79676, Note_off_c, 0, 67, 100
2, 79680, Note_on_c, 0, 60, 80
2, 79772, Note_off_c, 0, 60, 100
2, 79776, Note_on_c, 0, 68, 80
2, 79868, Note_off_c, 0, 68, 100
2, 79872, Note_on_c, 0, 56, 80
2, 79964, Note_off_c, 0, 56, 100
2, 79968, Note_on_c, 0, 60, 80
2, 80060, Note_off_c, 0, 60, 100
2, 80064, Note_on_c, 0, 63, 80
2, 80156, Note_off_c, 0, 63, 100
2, 80160, Note_on_c, 0, 68, 80
2, 80252, Note_off_c, 0, 68, 100
2, 80256, Note_on_c, 0, 61, 80
2, 80348, Note_off_c, 0, 61, 100
2, 80352, Note_on_c, 0, 67, 80
2, 80444, Note_off_c, 0, 67, 100
2, 80448, Note_on_c, 0, 60, 80
2, 80540, Note_off_c, 0, 60, 100
2, 80544, Note_on_c, 0, 68, 80
2, 80636, Note_off_c, 0, 68, 100
2, 80640, Note_on_c, 0, 61, 80
2, 80732, Note_off_c, 0, 61, 100
2, 80736, Note_on_c, 0, 67, 80
2, 80828, Note_off_c, 0, 67, 100
2, 80832, Note_on_c, 0, 60, 80
2, 80924, Note_off_c, 0, 60, 100
2, 80928, Note_on_c, 0, 68, 80
2, 81020, Note_off_c, 0, 68, 100
2, 81024, Note_on_c, 0, 63, 80
2, 81116, Note_off_c, 0, 63, 100
2, 81120, Note_on_c, 0, 68, 80
2, 81212, Note_off_c, 0, 68, 100
2, 81216, Note_on_c, 0, 66, 80
2, 81308, Note_off_c, 0, 66, 100
2, 81312, Note_on_c, 0, 68, 80
2, 81404, Note_off_c, 0, 68, 100
2, 81408, Note_on_c, 0, 66, 80
2, 81500, Note_off_c, 0, 66, 100
2, 81504, Note_on_c, 0, 72, 80
2, 81596, Note_off_c, 0, 72, 100
2, 81600, Note_on_c, 0, 65, 80
2, 81692, Note_off_c, 0, 65, 100
2, 81696, Note_on_c, 0, 73, 80
2, 81788, Note_off_c, 0, 73, 100
2, 81792, Note_on_c, 0, 68, 80
2, 81884, Note_off_c, 0, 68, 100
2, 81888, Note_on_c, 0, 73, 80
2, 81980, Note_off_c, 0, 73, 100
2, 81984, Note_on_c, 0, 71, 80
2, 82076, Note_off_c, 0, 71, 100
2, 82080, Note_on_c, 0, 73, 80
2, 82172, Note_off_c, 0, 73, 100
2, 82176, Note_on_c, 0, 71, 80
2, 82268, Note_off_c, 0, 71, 100
2, 82272, Note_on_c, 0, 76, 80
2, 82364, Note_off_c, 0, 76, 100
2, 82368, Note_on_c, 0, 70, 80
2, 82460, Note_off_c, 0, 70, 100
2, 82464, Note_on_c, 0, 76, 80
2, 82556, Note_off_c, 0, 76, 100
2, 82560, Note_on_c, 0, 73, 80
2, 82652, Note_off_c, 0, 73, 100
2, 82656, Note_on_c, 0, 76, 80
2, 82748, Note_off_c, 0, 76, 100
2, 82752, Note_on_c, 0, 66, 80
2, 82844, Note_off_c, 0, 66, 100
2, 82848, Note_on_c, 0, 76, 80
2, 82940, Note_off_c, 0, 76, 100
2, 82944, Note_on_c, 0, 76, 80
2, 83036, Note_off_c, 0, 76, 100
2, 83040, Note_on_c, 0, 81, 80
2, 83132, Note_off_c, 0, 81, 100
2, 83136, Note_on_c, 0, 75, 80
2, 83228, Note_off_c, 0, 75, 100
2, 83232, Note_on_c, 0, 81, 80
2, 83324, Note_off_c, 0, 81, 100
2, 83328, Note_on_c, 0, 78, 80
2, 83420, Note_off_c, 0, 78, 100
2, 83424, Note_on_c, 0, 81, 80
2, 83516, Note_off_c, 0, 81, 100
2, 83520, Note_on_c, 0, 71, 80
2, 83612, Note_off_c, 0, 71, 100
2, 83616, Note_on_c, 0, 81, 80
2, 83708, Note_off_c, 0, 81, 100
2, 83712, Note_on_c, 0, 81, 80
2, 83804, Note_off_c, 0, 81, 100
2, 83808, Note_on_c, 0, 86, 80
2, 83900, Note_off_c, 0, 86, 100
2, 83904, Note_on_c, 0, 80, 80
2, 83996, Note_off_c, 0, 80, 100
2, 84000, Note_on_c, 0, 86, 80
2, 84092, Note_off_c, 0, 86, 100
2, 84096, Note_on_c, 0, 83, 80
2, 84188, Note_off_c, 0, 83, 100
2, 84192, Note_on_c, 0, 86, 80
2, 84284, Note_off_c, 0, 86, 100
2, 84288, Note_on_c, 0, 76, 80
2, 84380, Note_off_c, 0, 76, 100
2, 84384, Note_on_c, 0, 84, 80
2, 84476, Note_off_c, 0, 84, 100
2, 84480, Note_on_c, 0, 74, 80
2, 84572, Note_off_c, 0, 74, 100
2, 84576, Note_on_c, 0, 79, 80
2, 84668, Note_off_c, 0, 79, 100
2, 84672, Note_on_c, 0, 73, 80
2, 84764, Note_off_c, 0, 73, 100
2, 84768, Note_on_c, 0, 79, 80
2, 84860, Note_off_c, 0, 79, 100
2, 84864, Note_on_c, 0, 76, 80
2, 84956, Note_off_c, 0, 76, 100
2, 84960, Note_on_c, 0, 79, 80
2, 85052, Note_off_c, 0, 79, 100
2, 85056, Note_on_c, 0, 69, 80
2, 85148, Note_off_c, 0, 69, 100
2, 85152, Note_on_c, 0, 79, 80
2, 85244, Note_off_c, 0, 79, 100
2, 85248, Note_on_c, 0, 79, 80
2, 85340, Note_off_c, 0, 79, 100
2, 85344, Note_on_c, 0, 84, 80
2, 85436, Note_off_c, 0, 84, 100
2, 85440, Note_on_c, 0, 78, 80
2, 85532, Note_off_c, 0, 78, 100
2, 85536, Note_on_c, 0, 84, 80
2, 85628, Note_off_c, 0, 84, 100
2, 85632, Note_on_c, 0, 81, 80
2, 85724, Note_off_c, 0, 81, 100
2, 85728, Note_on_c, 0, 84, 80
2, 85820, Note_off_c, 0, 84, 100
2, 85824, Note_on_c, 0, 74, 80
2, 85916, Note_off_c, 0, 74, 100
2, 85920, Note_on_c, 0, 84, 80
2, 86012, Note_off_c, 0, 84, 100
2, 86016, Note_on_c, 0, 72, 80
2, 86108, Note_off_c, 0, 72, 100
2, 86112, Note_on_c, 0, 77, 80
2, 86204, Note_off_c, 0, 77, 100
2, 86208, Note_on_c, 0, 71, 80
2, 86300, Note_off_c, 0, 71, 100
2, 86304, Note_on_c, 0, 77, 80
2, 86396, Note_off_c, 0, 77, 100
2, 86400, Note_on_c, 0, 74, 80
2, 86492, Note_off_c, 0, 74, 100
2, 86496, Note_on_c, 0, 77, 80
2, 86588, Note_off_c, 0, 77, 100
2, 86592, Note_on_c, 0, 67, 80
2, 86684, Note_off_c, 0, 67, 100
2, 86688, Note_on_c, 0, 77, 80
2, 86780, Note_off_c, 0, 77, 100
2, 86784, Note_on_c, 0, 77, 80
2, 86876, Note_off_c, 0, 77, 100
2, 86880, Note_on_c, 0, 82, 80
2, 86972, Note_off_c, 0, 82, 100
2, 86976, Note_on_c, 0, 76, 80
2, 87068, Note_off_c, 0, 76, 100
2, 87072, Note_on_c, 0, 82, 80
2, 87164, Note_off_c, 0, 82, 100
2, 87168, Note_on_c, 0, 79, 80
2, 87260, Note_off_c, 0, 79, 100
2, 87264, Note_on_c, 0, 82, 80
2, 87356, Note_off_c, 0, 82, 100
2, 87360, Note_on_c, 0, 73, 80
2, 87452, Note_off_c, 0, 73, 100
2, 87456, Note_on_c, 0, 82, 80
2, 87548, Note_off_c, 0, 82, 100
2, 87552, Note_on_c, 0, 72, 80
2, 87644, Note_off_c, 0, 72, 100
2, 87648, Note_on_c, 0, 81, 81
2, 87740, Note_off_c, 0, 81, 100
2, 87744, Note_on_c, 0, 79, 82
2, 87836, Note_off_c, 0, 79, 100
2, 87840, Note_on_c, 0, 70, 83
2, 87932, Note_off_c, 0, 70, 100
2, 87936, Note_on_c, 0, 69, 85
2, 88028, Note_off_c, 0, 69, 100
2, 88032, Note_on_c, 0, 77, 86
2, 88124, Note_off_c, 0, 77, 100
2, 88128, Note_on_c, 0, 76, 87
2, 88220, Note_off_c, 0, 76, 100
2, 88224, Note_on_c, 0, 67, 89
2, 88316, Note_off_c, 0, 67, 100
2, 88320, Note_on_c, 0, 65, 90
2, 88412, Note_off_c, 0, 65, 100
2, 88416, Note_on_c, 0, 74, 91
2, 88508, Note_off_c, 0, 74, 100
2, 88512, Note_on_c, 0, 72, 93
2, 88604, Note_off_c, 0, 72, 100
2, 88608, Note_on_c, 0, 63, 94
2, 88700, Note_off_c, 0, 63, 100
2, 88704, Note_on_c, 0, 62, 95
2, 88796, Note_off_c, 0, 62, 100
2, 88800, Note_on_c, 0, 70, 96
2, 88892, Note_off_c, 0, 70, 100
2, 88896, Note_on_c, 0, 60, 98
2, 88988, Note_off_c, 0, 60, 100
2, 88992, Note_on_c, 0, 69, 99
2, 89084, Note_off_c, 0, 69, 100
2, 89088, Note_on_c, 0, 62, 100
2, 89180, Note_off_c, 0, 62, 100
2, 89184, Note_on_c, 0, 67, 102
2, 89276, Note_off_c, 0, 67, 100
2, 89280, Note_on_c, 0, 55, 103
2, 89372, Note_off_c, 0, 55, 100
2, 89376, Note_on_c, 0, 65, 104
2, 89468, Note_off_c, 0, 65, 100
2, 89472, Note_on_c, 0, 55, 106
2, 89564, Note_off_c, 0, 55, 100
2, 89568, Note_on_c, 0, 64, 107
2, 89660, Note_off_c, 0, 64, 100
2, 89664, Note_on_c, 0, 53, 108
2, 89756, Note_off_c, 0, 53, 100
2, 89760, Note_on_c, 0, 59, 109
2, 89852, Note_off_c, 0, 59, 100
2, 89856, Note_on_c, 0, 60, 110
2, 89856, Note_on_c, 0, 52, 110
2, 90044, Note_off_c, 0, 60, 100
2, 90044, Note_off_c, 0, 52, 100
2, 90240, Note_on_c, 0, 67, 110
2, 90428, Note_off_c, 0, 67, 100
2, 90432, Note_on_c, 0, 67, 110
2, 90812, Note_off_c, 0, 67, 100
2, 90816, Note_on_c, 0, 67, 110
2, 91196, Note_off_c, 0, 67, 100
2, 91200, Note_on_c, 0, 67, 110
2, 91388, Note_off_c, 0, 67, 100
2, 91392, Note_on_c, 0, 60, 100
2, 91484, Note_off_c, 0, 60, 100
2, 91488, Note_on_c, 0, 64, 94
2, 91580, Note_off_c, 0, 64, 100
2, 91584, Note_on_c, 0, 67, 87
2, 91676, Note_off_c, 0, 67, 100
2, 91680, Note_on_c, 0, 72, 81
2, 91772, Note_off_c, 0, 72, 100
2, 91776, Note_on_c, 0, 62, 80
2, 91868, Note_off_c, 0, 62, 100
2, 91872, Note_on_c, 0, 71, 80
2, 91964, Note_off_c, 0, 71, 100
2, 91968, Note_on_c, 0, 64, 80
2, 92060, Note_off_c, 0, 64, 100
2, 92064, Note_on_c, 0, 72, 80
2, 92156, Note_off_c, 0, 72, 100
2, 92160, Note_on_c, 0, 65, 80
2, 92252, Note_off_c, 0, 65, 100
2, 92256, Note_on_c, 0, 74, 80
2, 92348, Note_off_c, 0, 74, 100
2, 92352, Note_on_c, 0, 67, 80
2, 92444, Note_off_c, 0, 67, 100
2, 92448, Note_on_c, 0, 76, 80
2, 92540, Note_off_c, 0, 76, 100
2, 92544, Note_on_c, 0, 69, 80
2, 92636, Note_off_c, 0, 69, 100
2, 92640, Note_on_c, 0, 77, 80
2, 92732, Note_off_c, 0, 77, 100
2, 92736, Note_on_c, 0, 71, 80
2, 92828, Note_off_c, 0, 71, 100
2, 92832, Note_on_c, 0, 79, 80
2, 92924, Note_off_c, 0, 79, 100
2, 92928, Note_on_c, 0, 76, 110
2, 93020, Note_off_c, 0, 76, 100
2, 93024, Note_on_c, 0, 72, 110
2, 93116, Note_off_c, 0, 72, 100
2, 93120, Note_on_c, 0, 79, 110
2, 93500, Note_off_c, 0, 79, 100
2, 93504, Note_on_c, 0, 79, 110
2, 93884, Note_off_c, 0, 79, 100
2, 93888, Note_on_c, 0, 79, 110
2, 94268, Note_off_c, 0, 79, 100
2, 94272, Note_on_c, 0, 79, 110
2, 94460, Note_off_c, 0, 79, 100
2, 94464, Note_on_c, 0, 67, 100
2, 94556, Note_off_c, 0, 67, 100
2, 94560, Note_on_c, 0, 76, 94
2, 94652, Note_off_c, 0, 76, 100
2, 94656, Note_on_c, 0, 69, 87
2, 94748, Note_off_c, 0, 69, 100
2, 94752, Note_on_c, 0, 77, 81
2, 94844, Note_off_c, 0, 77, 100
2, 94848, Note_on_c, 0, 65, 80
2, 94940, Note_off_c, 0, 65, 100
2, 94944, Note_on_c, 0, 74, 80
2, 95036, Note_off_c, 0, 74, 100
2, 95040, Note_on_c, 0, 67, 80
2, 95132, Note_off_c, 0, 67, 100
2, 95136, Note_on_c, 0, 76, 80
2, 95228, Note_off_c, 0, 76, 100
2, 95232, Note_on_c, 0, 64, 80
2, 95324, Note_off_c, 0, 64, 100
2, 95328, Note_on_c, 0, 72, 80
2, 95420, Note_off_c, 0, 72, 100
2, 96000, Note_on_c, 0, 76, 80
2, 96092, Note_off_c, 0, 76, 100
2, 96096, Note_on_c, 0, 79, 80
2, 96188, Note_off_c, 0, 79, 100
2, 96192, Note_on_c, 0, 77, 80
2, 96284, Note_off_c, 0, 77, 100
2, 96288, Note_on_c, 0, 81, 80
2, 96380, Note_off_c, 0, 81, 100
2, 96384, Note_on_c, 0, 74, 80
2, 96476, Note_off_c, 0, 74, 100
2, 96480, Note_on_c, 0, 77, 80
2, 96572, Note_off_c, 0, 77, 100
2, 96576, Note_on_c, 0, 76, 80
2, 96668, Note_off_c, 0, 76, 100
2, 96672, Note_on_c, 0, 79, 80
2, 96764, Note_off_c, 0, 79, 100
2, 96768, Note_on_c, 0, 72, 80
2, 96860, Note_off_c, 0, 72, 100
2, 96864, Note_on_c, 0, 76, 80
2, 96956, Note_off_c, 0, 76, 100
2, 97536, Note_on_c, 0, 82, 80
2, 97628, Note_off_c, 0, 82, 100
2, 97632, Note_on_c, 0, 79, 80
2, 97724, Note_off_c, 0, 79, 100
2, 97728, Note_on_c, 0, 84, 80
2, 97820, Note_off_c, 0, 84, 100
2, 97824, Note_on_c, 0, 81, 80
2, 97916, Note_off_c, 0, 81, 100
2, 97920, Note_on_c, 0, 81, 80
2, 98012, Note_off_c, 0, 81, 100
2, 98016, Note_on_c, 0, 77, 80
2, 98108, Note_off_c, 0, 77, 100
2, 98112, Note_on_c, 0, 82, 80
2, 98204, Note_off_c, 0, 82, 100
2, 98208, Note_on_c, 0, 79, 80
2, 98300, Note_off_c, 0, 79, 100
2, 98304, Note_on_c, 0, 79, 80
2, 98396, Note_off_c, 0, 79, 100
2, 98400, Note_on_c, 0, 76, 80
2, 98492, Note_off_c, 0, 76, 100
2, 98496, Note_on_c, 0, 81, 80
2, 98588, Note_off_c, 0, 81, 100
2, 98592, Note_on_c, 0, 77, 80
2, 98684, Note_off_c, 0, 77, 100
2, 98688, Note_on_c, 0, 77, 80
2, 98780, Note_off_c, 0, 77, 100
2, 98784, Note_on_c, 0, 74, 80
2, 98876, Note_off_c, 0, 74, 100
2, 98880, Note_on_c, 0, 79, 80
2, 98972, Note_off_c, 0, 79, 100
2, 98976, Note_on_c, 0, 76, 80
2, 99068, Note_off_c, 0, 76, 100
2, 99072, Note_on_c, 0, 76, 80
2, 99164, Note_off_c, 0, 76, 100
2, 99168, Note_on_c, 0, 72, 80
2, 99260, Note_off_c, 0, 72, 100
2, 99264, Note_on_c, 0, 77, 81
2, 99356, Note_off_c, 0, 77, 100
2, 99360, Note_on_c, 0, 74, 82
2, 99452, Note_off_c, 0, 74, 100
2, 99456, Note_on_c, 0, 74, 83
2, 99548, Note_off_c, 0, 74, 100
2, 99552, Note_on_c, 0, 70, 84
2, 99644, Note_off_c, 0, 70, 100
2, 99648, Note_on_c, 0, 76, 85
2, 99740, Note_off_c, 0, 76, 100
2, 99744, Note_on_c, 0, 72, 86
2, 99836, Note_off_c, 0, 72, 100
2, 99840, Note_on_c, 0, 72, 86
2, 99932, Note_off_c, 0, 72, 100
2, 99936, Note_on_c, 0, 69, 87
2, 100028, Note_off_c, 0, 69, 100
2, 100032, Note_on_c, 0, 74, 88
2, 100124, Note_off_c, 0, 74, 100
2, 100128, Note_on_c, 0, 70, 89
2, 100220, Note_off_c, 0, 70, 100
2, 100224, Note_on_c, 0, 70, 90
2, 100316, Note_off_c, 0, 70, 100
2, 100320, Note_on_c, 0, 67, 91
2, 100412, Note_off_c, 0, 67, 100
2, 100416, Note_on_c, 0, 72, 92
2, 100508, Note_off_c, 0, 72, 100
2, 100512, Note_on_c, 0, 69, 93
2, 100604, Note_off_c, 0, 69, 100
2, 100608, Note_on_c, 0, 69, 93
2, 100700, Note_off_c, 0, 69, 100
2, 100704, Note_on_c, 0, 65, 94
2, 100796, Note_off_c, 0, 65, 100
2, 100800, Note_on_c, 0, 70, 95
2, 100892, Note_off_c, 0, 70, 100
2, 100896, Note_on_c, 0, 67, 96
2, 100988, Note_off_c, 0, 67, 100
2, 100992, Note_on_c, 0, 72, 97
2, 101084, Note_off_c, 0, 72, 100
2, 101088, Note_on_c, 0, 69, 98
2, 101180, Note_off_c, 0, 69, 100
2, 101184, Note_on_c, 0, 74, 99
2, 101276, Note_off_c, 0, 74, 100
2, 101280, Note_on_c, 0, 70, 99
2, 101372, Note_off_c, 0, 70, 100
2, 101376, Note_on_c, 0, 72, 100
2, 101468, Note_off_c, 0, 72, 100
2, 101472, Note_on_c, 0, 69, 98
2, 101564, Note_off_c, 0, 69, 100
2, 101568, Note_on_c, 0, 70, 95
2, 101660, Note_off_c, 0, 70, 100
2, 101664, Note_on_c, 0, 67, 92
2, 101756, Note_off_c, 0, 67, 100
2, 101760, Note_on_c, 0, 69, 89
2, 101852, Note_off_c, 0, 69, 100
2, 101856, Note_on_c, 0, 65, 86
2, 101948, Note_off_c, 0, 65, 100
2, 101952, Note_on_c, 0, 67, 83
2, 102044, Note_off_c, 0, 67, 100
2, 102048, Note_on_c, 0, 60, 81
2, 102140, Note_off_c, 0, 60, 100
2, 102144, Note_on_c, 0, 53, 80
2, 102236, Note_off_c, 0, 53, 100
2, 102240, Note_on_c, 0, 57, 80
2, 102332, Note_off_c, 0, 57, 100
2, 102336, Note_on_c, 0, 60, 81
2, 102428, Note_off_c, 0, 60, 100
2, 102432, Note_on_c, 0, 65, 82
2, 102524, Note_off_c, 0, 65, 100
2, 102528, Note_on_c, 0, 55, 83
2, 102620, Note_off_c, 0, 55, 100
2, 102624, Note_on_c, 0, 64, 84
2, 102716, Note_off_c, 0, 64, 100
2, 102720, Note_on_c, 0, 57, 85
2, 102812, Note_off_c, 0, 57, 100
2, 102816, Note_on_c, 0, 65, 86
2, 102908, Note_off_c, 0, 65, 100
2, 102912, Note_on_c, 0, 58, 87
2, 103004, Note_off_c, 0, 58, 100
2, 103008, Note_on_c, 0, 67, 88
2, 103100, Note_off_c, 0, 67, 100
2, 103104, Note_on_c, 0, 60, 89
2, 103196, Note_off_c, 0, 60, 100
2, 103200, Note_on_c, 0, 69, 90
2, 103292, Note_off_c, 0, 69, 100
2, 103296, Note_on_c, 0, 62, 91
2, 103388, Note_off_c, 0, 62, 100
2, 103392, Note_on_c, 0, 70, 92
2, 103484, Note_off_c, 0, 70, 100
2, 103488, Note_on_c, 0, 64, 93
2, 103580, Note_off_c, 0, 64, 100
2, 103584, Note_on_c, 0, 72, 94
2, 103676, Note_off_c, 0, 72, 100
2, 103680, Note_on_c, 0, 65, 95
2, 103772, Note_off_c, 0, 65, 100
2, 103776, Note_on_c, 0, 69, 96
2, 103868, Note_off_c, 0, 69, 100
2, 103872, Note_on_c, 0, 72, 97
2, 103964, Note_off_c, 0, 72, 100
2, 103968, Note_on_c, 0, 77, 98
2, 104060, Note_off_c, 0, 77, 100
2, 104064, Note_on_c, 0, 67, 99
2, 104156, Note_off_c, 0, 67, 100
2, 104160, Note_on_c, 0, 76, 100
2, 104252, Note_off_c, 0, 76, 100
2, 104256, Note_on_c, 0, 69, 101
2, 104348, Note_off_c, 0, 69, 100
2, 104352, Note_on_c, 0, 77, 102
2, 104444, Note_off_c, 0, 77, 100
2, 104448, Note_on_c, 0, 70, 103
2, 104540, Note_off_c, 0, 70, 100
2, 104544, Note_on_c, 0, 79, 104
2, 104636, Note_off_c, 0, 79, 100
2, 104640, Note_on_c, 0, 72, 105
2, 104732, Note_off_c, 0, 72, 100
2, 104736, Note_on_c, 0, 81, 106
2, 104828, Note_off_c, 0, 81, 100
2, 104832, Note_on_c, 0, 74, 107
2, 104924, Note_off_c, 0, 74, 100
2, 104928, Note_on_c, 0, 82, 108
2, 105020, Note_off_c, 0, 82, 100
2, 105024, Note_on_c, 0, 76, 108
2, 105116, Note_off_c, 0, 76, 100
2, 105120, Note_on_c, 0, 84, 109
2, 105212, Note_off_c, 0, 84, 100
2, 105216, Note_on_c, 0, 81, 110
2, 105308, Note_off_c, 0, 81, 100
2, 105312, Note_on_c, 0, 77, 110
2, 105404, Note_off_c, 0, 77, 100
2, 105408, Note_on_c, 0, 84, 110
2, 105500, Note_off_c, 0, 84, 100
2, 105504, Note_on_c, 0, 72, 110
2, 105596, Note_off_c, 0, 72, 100
2, 105600, Note_on_c, 0, 84, 110
2, 105692, Note_off_c, 0, 84, 100
2, 105696, Note_on_c, 0, 72, 110
2, 105788, Note_off_c, 0, 72, 100
2, 105792, Note_on_c, 0, 84, 110
2, 105884, Note_off_c, 0, 84, 100
2, 105888, Note_on_c, 0, 72, 110
2, 105980, Note_off_c, 0, 72, 100
2, 105984, Note_on_c, 0, 84, 110
2, 106076, Note_off_c, 0, 84, 100
2, 106080, Note_on_c, 0, 72, 110
2, 106172, Note_off_c, 0, 72, 100
2, 106176, Note_on_c, 0, 84, 110
2, 106268, Note_off_c, 0, 84, 100
2, 106272, Note_on_c, 0, 72, 110
2, 106364, Note_off_c, 0, 72, 100
2, 106368, Note_on_c, 0, 84, 110
2, 106460, Note_off_c, 0, 84, 100
2, 106464, Note_on_c, 0, 72, 110
2, 106556, Note_off_c, 0, 72, 100
2, 106560, Note_on_c, 0, 84, 110
2, 106652, Note_off_c, 0, 84, 100
2, 106656, Note_on_c, 0, 72, 110
2, 106748, Note_off_c, 0, 72, 100
2, 106752, Note_on_c, 0, 69, 110
2, 106844, Note_off_c, 0, 69, 100
2, 106848, Note_on_c, 0, 72, 110
2, 106940, Note_off_c, 0, 72, 100
2, 106944, Note_on_c, 0, 77, 110
2, 107036, Note_off_c, 0, 77, 100
2, 107040, Note_on_c, 0, 81, 110
2, 107132, Note_off_c, 0, 81, 100
2, 107136, Note_on_c, 0, 72, 110
2, 107228, Note_off_c, 0, 72, 100
2, 107232, Note_on_c, 0, 81, 110
2, 107324, Note_off_c, 0, 81, 100
2, 107328, Note_on_c, 0, 74, 110
2, 107420, Note_off_c, 0, 74, 100
2, 107424, Note_on_c, 0, 82, 110
2, 107516, Note_off_c, 0, 82, 100
2, 107520, Note_on_c, 0, 75, 110
2, 107612, Note_off_c, 0, 75, 100
2, 107616, Note_on_c, 0, 84, 110
2, 107708, Note_off_c, 0, 84, 100
2, 107712, Note_on_c, 0, 77, 110
2, 107804, Note_off_c, 0, 77, 100
2, 107808, Note_on_c, 0, 86, 110
2, 107900, Note_off_c, 0, 86, 100
2, 107904, Note_on_c, 0, 84, 110
2, 107996, Note_off_c, 0, 84, 100
2, 108000, Note_on_c, 0, 87, 110
2, 108092, Note_off_c, 0, 87, 100
2, 108096, Note_on_c, 0, 81, 110
2, 108188, Note_off_c, 0, 81, 100
2, 108192, Note_on_c, 0, 89, 110
2, 108284, Note_off_c, 0, 89, 100
2, 108288, Note_on_c, 0, 86, 100
2, 108380, Note_off_c, 0, 86, 100
2, 108384, Note_on_c, 0, 82, 94
2, 108476, Note_off_c, 0, 82, 100
2, 108480, Note_on_c, 0, 89, 87
2, 108572, Note_off_c, 0, 89, 100
2, 108576, Note_on_c, 0, 81, 81
2, 108668, Note_off_c, 0, 81, 100
2, 108672, Note_on_c, 0, 82, 80
2, 108764, Note_off_c, 0, 82, 100
2, 108768, Note_on_c, 0, 79, 80
2, 108860, Note_off_c, 0, 79, 100
2, 108864, Note_on_c, 0, 86, 80
2, 108956, Note_off_c, 0, 86, 100
2, 108960, Note_on_c, 0, 77, 80
2, 109052, Note_off_c, 0, 77, 100
2, 109056, Note_on_c, 0, 79, 80
2, 109148, Note_off_c, 0, 79, 100
2, 109152, Note_on_c, 0, 75, 80
2, 109244, Note_off_c, 0, 75, 100
2, 109248, Note_on_c, 0, 82, 80
2, 109340, Note_off_c, 0, 82, 100
2, 109344, Note_on_c, 0, 74, 80
2, 109436, Note_off_c, 0, 74, 100
2, 109440, Note_on_c, 0, 75, 80
2, 109532, Note_off_c, 0, 75, 100
2, 109536, Note_on_c, 0, 72, 80
2, 109628, Note_off_c, 0, 72, 100
2, 109632, Note_on_c, 0, 79, 80
2, 109724, Note_off_c, 0, 79, 100
2, 109728, Note_on_c, 0, 70, 80
2, 109820, Note_off_c, 0, 70, 100
2, 109824, Note_on_c, 0, 77, 80
2, 109916, Note_off_c, 0, 77, 100
2, 109920, Note_on_c, 0, 72, 81
2, 110012, Note_off_c, 0, 72, 100
2, 110016, Note_on_c, 0, 69, 83
2, 110108, Note_off_c, 0, 69, 100
2, 110112, Note_on_c, 0, 75, 85
2, 110204, Note_off_c, 0, 75, 100
2, 110208, Note_on_c, 0, 74, 87
2, 110300, Note_off_c, 0, 74, 100
2, 110304, Note_on_c, 0, 70, 89
2, 110396, Note_off_c, 0, 70, 100
2, 110400, Note_on_c, 0, 67, 91
2, 110492, Note_off_c, 0, 67, 100
2, 110496, Note_on_c, 0, 72, 93
2, 110588, Note_off_c, 0, 72, 100
2, 110592, Note_on_c, 0, 65, 95
2, 110592, Note_on_c, 0, 62, 95
2, 110684, Note_off_c, 0, 65, 100
2, 110684, Note_off_c, 0, 62, 100
2, 110688, Note_on_c, 0, 72, 97
2, 110780, Note_off_c, 0, 72, 100
2, 110784, Note_on_c, 0, 65, 99
2, 110784, Note_on_c, 0, 61, 99
2, 110876, Note_off_c, 0, 65, 100
2, 110876, Note_off_c, 0, 61, 100
2, 110880, Note_on_c, 0, 70, 101
2, 110972, Note_off_c, 0, 70, 100
2, 110976, Note_on_c, 0, 63, 103
2, 110976, Note_on_c, 0, 60, 103
2, 111068, Note_off_c, 0, 63, 100
2, 111068, Note_off_c, 0, 60, 100
2, 111072, Note_on_c, 0, 70, 105
2, 111164, Note_off_c, 0, 70, 100
2, 111168, Note_on_c, 0, 63, 107
2, 111168, Note_on_c, 0, 60, 107
2, 111260, Note_off_c, 0, 63, 100
2, 111260, Note_off_c, 0, 60, 100
2, 111264, Note_on_c, 0, 69, 109
2, 111356, Note_off_c, 0, 69, 100
2, 111360, Note_on_c, 0, 73, 80
2, 111452, Note_off_c, 0, 73, 100
2, 111456, Note_on_c, 0, 70, 80
2, 111548, Note_off_c, 0, 70, 100
2, 111552, Note_on_c, 0, 77, 80
2, 111644, Note_off_c, 0, 77, 100
2, 111648, Note_on_c, 0, 68, 80
2, 111740, Note_off_c, 0, 68, 100
2, 111744, Note_on_c, 0, 70, 80
2, 111836, Note_off_c, 0, 70, 100
2, 111840, Note_on_c, 0, 66, 80
2, 111932, Note_off_c, 0, 66, 100
2, 111936, Note_on_c, 0, 73, 80
2, 112028, Note_off_c, 0, 73, 100
2, 112032, Note_on_c, 0, 65, 80
2, 112124, Note_off_c, 0, 65, 100
2, 112128, Note_on_c, 0, 66, 80
2, 112220, Note_off_c, 0, 66, 100
2, 112224, Note_on_c, 0, 63, 80
2, 112316, Note_off_c, 0, 63, 100
2, 112320, Note_on_c, 0, 70, 80
2, 112412, Note_off_c, 0, 70, 100
2, 112416, Note_on_c, 0, 61, 80
2, 112508, Note_off_c, 0, 61, 100
2, 112512, Note_on_c, 0, 68, 80
2, 112604, Note_off_c, 0, 68, 100
2, 112608, Note_on_c, 0, 63, 80
2, 112700, Note_off_c, 0, 63, 100
2, 112704, Note_on_c, 0, 60, 80
2, 112796, Note_off_c, 0, 60, 100
2, 112800, Note_on_c, 0, 66, 80
2, 112892, Note_off_c, 0, 66, 100
2, 112896, Note_on_c, 0, 65, 80
2, 112988, Note_off_c, 0, 65, 100
2, 112992, Note_on_c, 0, 56, 84
2, 113084, Note_off_c, 0, 56, 100
2, 113088, Note_on_c, 0, 54, 88
2, 113088, Note_on_c, 0, 58, 88
2, 113180, Note_off_c, 0, 54, 100
2, 113180, Note_off_c, 0, 58, 100
2, 113184, Note_on_c, 0, 63, 92
2, 113276, Note_off_c, 0, 63, 100
2, 113280, Note_on_c, 0, 56, 97
2, 113280, Note_on_c, 0, 53, 97
2, 113372, Note_off_c, 0, 56, 100
2, 113372, Note_off_c, 0, 53, 100
2, 113376, Note_on_c, 0, 61, 101
2, 113468, Note_off_c, 0, 61, 100
2, 113472, Note_on_c, 0, 54, 105
2, 113472, Note_on_c, 0, 51, 105
2, 113564, Note_off_c, 0, 54, 100
2, 113564, Note_off_c, 0, 51, 100
2, 113568, Note_on_c, 0, 60, 109
2, 113660, Note_off_c, 0, 60, 100
2, 113664, Note_on_c, 0, 53, 110
2, 113756, Note_off_c, 0, 53, 100
2, 113760, Note_on_c, 0, 59, 110
2, 113852, Note_off_c, 0, 59, 100
2, 113856, Note_on_c, 0, 53, 110
2, 113948, Note_off_c, 0, 53, 100
2, 113952, Note_on_c, 0, 55, 110
2, 114044, Note_off_c, 0, 55, 100
2, 114048, Note_on_c, 0, 56, 110
2, 114140, Note_off_c, 0, 56, 100
2, 114144, Note_on_c, 0, 55, 110
2, 114236, Note_off_c, 0, 55, 100
2, 114240, Note_on_c, 0, 56, 110
2, 114332, Note_off_c, 0, 56, 100
2, 114336, Note_on_c, 0, 53, 110
2, 114428, Note_off_c, 0, 53, 100
2, 114528, Note_on_c, 0, 59, 110
2, 114620, Note_off_c, 0, 59, 100
2, 114624, Note_on_c, 0, 53, 110
2, 114716, Note_off_c, 0, 53, 100
2, 114720, Note_on_c, 0, 55, 110
2, 114812, Note_off_c, 0, 55, 100
2, 114816, Note_on_c, 0, 56, 110
2, 114908, Note_off_c, 0, 56, 100
2, 114912, Note_on_c, 0, 55, 110
2, 115004, Note_off_c, 0, 55, 100
2, 115008, Note_on_c, 0, 56, 110
2, 115100, Note_off_c, 0, 56, 100
2, 115104, Note_on_c, 0, 53, 110
2, 115196, Note_off_c, 0, 53, 100
2, 115296, Note_on_c, 0, 60, 110
2, 115388, Note_off_c, 0, 60, 100
2, 115392, Note_on_c, 0, 53, 110
2, 115484, Note_off_c, 0, 53, 100
2, 115488, Note_on_c, 0, 55, 110
2, 115580, Note_off_c, 0, 55, 100
2, 115584, Note_on_c, 0, 56, 110
2, 115676, Note_off_c, 0, 56, 100
2, 115680, Note_on_c, 0, 55, 110
2, 115772, Note_off_c, 0, 55, 100
2, 115776, Note_on_c, 0, 56, 110
2, 115868, Note_off_c, 0, 56, 100
2, 115872, Note_on_c, 0, 53, 110
2, 115964, Note_off_c, 0, 53, 100
2, 116064, Note_on_c, 0, 53, 110
2, 116156, Note_off_c, 0, 53, 100
2, 116160, Note_on_c, 0, 56, 110
2, 116252, Note_off_c, 0, 56, 100
2, 116256, Note_on_c, 0, 62, 110
2, 116348, Note_off_c, 0, 62, 100
2, 116448, Note_on_c, 0, 53, 110
2, 116540, Note_off_c, 0, 53, 100
2, 116544, Note_on_c, 0, 56, 110
2, 116636, Note_off_c, 0, 56, 100
2, 116640, Note_on_c, 0, 62, 110
2, 116732, Note_off_c, 0, 62, 100
2, 116736, Note_on_c, 0, 48, 100
2, 116828, Note_off_c, 0, 48, 100
2, 116832, Note_on_c, 0, 52, 94
2, 116924, Note_off_c, 0, 52, 100
2, 116928, Note_on_c, 0, 55, 87
2, 117020, Note_off_c, 0, 55, 100
2, 117024, Note_on_c, 0, 60, 81
2, 117116, Note_off_c, 0, 60, 100
2, 117120, Note_on_c, 0, 49, 80
2, 117212, Note_off_c, 0, 49, 100
2, 117216, Note_on_c, 0, 59, 80
2, 117308, Note_off_c, 0, 59, 100
2, 117312, Note_on_c, 0, 48, 80
2, 117404, Note_off_c, 0, 48, 100
2, 117408, Note_on_c, 0, 60, 80
2, 117500, Note_off_c, 0, 60, 100
2, 117504, Note_on_c, 0, 60, 80
2, 117596, Note_off_c, 0, 60, 100
2, 117600, Note_on_c, 0, 64, 80
2, 117692, Note_off_c, 0, 64, 100
2, 117696, Note_on_c, 0, 67, 80
2, 117788, Note_off_c, 0, 67, 100
2, 117792, Note_on_c, 0, 72, 80
2, 117884, Note_off_c, 0, 72, 100
2, 117888, Note_on_c, 0, 61, 80
2, 117980, Note_off_c, 0, 61, 100
2, 117984, Note_on_c, 0, 71, 80
2, 118076, Note_off_c, 0, 71, 100
2, 118080, Note_on_c, 0, 60, 80
2, 118172, Note_off_c, 0, 60, 100
2, 118176, Note_on_c, 0, 72, 80
2, 118268, Note_off_c, 0, 72, 100
2, 118272, Note_on_c, 0, 72, 80
2, 118364, Note_off_c, 0, 72, 100
2, 118368, Note_on_c, 0, 76, 80
2, 118460, Note_off_c, 0, 76, 100
2, 118464, Note_on_c, 0, 79, 80
2, 118556, Note_off_c, 0, 79, 100
2, 118560, Note_on_c, 0, 84, 80
2, 118652, Note_off_c, 0, 84, 100
2, 118656, Note_on_c, 0, 73, 80
2, 118748, Note_off_c, 0, 73, 100
2, 118752, Note_on_c, 0, 83, 80
2, 118844, Note_off_c, 0, 83, 100
2, 118848, Note_on_c, 0, 72, 80
2, 118940, Note_off_c, 0, 72, 100
2, 118944, Note_on_c, 0, 84, 80
2, 119036, Note_off_c, 0, 84, 100
2, 119040, Note_on_c, 0, 73, 80
2, 119132, Note_off_c, 0, 73, 100
2, 119136, Note_on_c, 0, 83, 80
2, 119228, Note_off_c, 0, 83, 100
2, 119232, Note_on_c, 0, 72, 80
2, 119324, Note_off_c, 0, 72, 100
2, 119328, Note_on_c, 0, 84, 80
2, 119420, Note_off_c, 0, 84, 100
2, 119424, Note_on_c, 0, 71, 80
2, 119516, Note_off_c, 0, 71, 100
2, 119520, Note_on_c, 0, 81, 80
2, 119612, Note_off_c, 0, 81, 100
2, 119616, Note_on_c, 0, 70, 80
2, 119708, Note_off_c, 0, 70, 100
2, 119712, Note_on_c, 0, 82, 80
2, 119804, Note_off_c, 0, 82, 100
2, 119808, Note_on_c, 0, 46, 80
2, 119900, Note_off_c, 0, 46, 100
2, 119904, Note_on_c, 0, 50, 80
2, 119996, Note_off_c, 0, 50, 100
2, 120000, Note_on_c, 0, 53, 80
2, 120092, Note_off_c, 0, 53, 100
2, 120096, Note_on_c, 0, 58, 80
2, 120188, Note_off_c, 0, 58, 100
2, 120192, Note_on_c, 0, 47, 80
2, 120284, Note_off_c, 0, 47, 100
2, 120288, Note_on_c, 0, 57, 80
2, 120380, Note_off_c, 0, 57, 100
2, 120384, Note_on_c, 0, 46, 80
2, 120476, Note_off_c, 0, 46, 100
2, 120480, Note_on_c, 0, 58, 80
2, 120572, Note_off_c, 0, 58, 100
2, 120576, Note_on_c, 0, 58, 80
2, 120668, Note_off_c, 0, 58, 100
2, 120672, Note_on_c, 0, 62, 80
2, 120764, Note_off_c, 0, 62, 100
2, 120768, Note_on_c, 0, 65, 80
2, 120860, Note_off_c, 0, 65, 100
2, 120864, Note_on_c, 0, 70, 80
2, 120956, Note_off_c, 0, 70, 100
2, 120960, Note_on_c, 0, 59, 80
2, 121052, Note_off_c, 0, 59, 100
2, 121056, Note_on_c, 0, 69, 80
2, 121148, Note_off_c, 0, 69, 100
2, 121152, Note_on_c, 0, 58, 80
2, 121244, Note_off_c, 0, 58, 100
2, 121248, Note_on_c, 0, 70, 80
2, 121340, Note_off_c, 0, 70, 100
2, 121344, Note_on_c, 0, 70, 80
2, 121436, Note_off_c, 0, 70, 100
2, 121440, Note_on_c, 0, 74, 80
2, 121532, Note_off_c, 0, 74, 100
2, 121536, Note_on_c, 0, 77, 80
2, 121628, Note_off_c, 0, 77, 100
2, 121632, Note_on_c, 0, 82, 80
2, 121724, Note_off_c, 0, 82, 100
2, 121728, Note_on_c, 0, 71, 80
2, 121820, Note_off_c, 0, 71, 100
2, 121824, Note_on_c, 0, 81, 80
2, 121916, Note_off_c, 0, 81, 100
2, 121920, Note_on_c, 0, 70, 80
2, 122012, Note_off_c, 0, 70, 100
2, 122016, Note_on_c, 0, 82, 80
2, 122108, Note_off_c, 0, 82, 100
2, 122112, Note_on_c, 0, 71, 80
2, 122204, Note_off_c, 0, 71, 100
2, 122208, Note_on_c, 0, 81, 80
2, 122300, Note_off_c, 0, 81, 100
2, 122304, Note_on_c, 0, 70, 80
2, 122396, Note_off_c, 0, 70, 100
2, 122400, Note_on_c, 0, 82, 80
2, 122492, Note_off_c, 0, 82, 100
2, 122496, Note_on_c, 0, 69, 80
2, 122588, Note_off_c, 0, 69, 100
2, 122592, Note_on_c, 0, 79, 80
2, 122684, Note_off_c, 0, 79, 100
2, 122688, Note_on_c, 0, 68, 80
2, 122780, Note_off_c, 0, 68, 100
2, 122784, Note_on_c, 0, 80, 80
2, 122876, Note_off_c, 0, 80, 100
2, 122880, Note_on_c, 0, 44, 80
2, 122972, Note_off_c, 0, 44, 100
2, 122976, Note_on_c, 0, 48, 80
2, 123068, Note_off_c, 0, 48, 100
2, 123072, Note_on_c, 0, 51, 80
2, 123164, Note_off_c, 0, 51, 100
2, 123168, Note_on_c, 0, 56, 80
2, 123260, Note_off_c, 0, 56, 100
2, 123264, Note_on_c, 0, 45, 80
2, 123356, Note_off_c, 0, 45, 100
2, 123360, Note_on_c, 0, 55, 80
2, 123452, Note_off_c, 0, 55, 100
2, 123456, Note_on_c, 0, 44, 80
2, 123548, Note_off_c, 0, 44, 100
2, 123552, Note_on_c, 0, 56, 80
2, 123644, Note_off_c, 0, 56, 100
2, 123648, Note_on_c, 0, 56, 80
2, 123740, Note_off_c, 0, 56, 100
2, 123744, Note_on_c, 0, 60, 80
2, 123836, Note_off_c, 0, 60, 100
2, 123840, Note_on_c, 0, 63, 80
2, 123932, Note_off_c, 0, 63, 100
2, 123936, Note_on_c, 0, 68, 80
2, 124028, Note_off_c, 0, 68, 100
2, 124032, Note_on_c, 0, 57, 80
2, 124124, Note_off_c, 0, 57, 100
2, 124128, Note_on_c, 0, 67, 80
2, 124220, Note_off_c, 0, 67, 100
2, 124224, Note_on_c, 0, 56, 80
2, 124316, Note_off_c, 0, 56, 100
2, 124320, Note_on_c, 0, 68, 80
2, 124412, Note_off_c, 0, 68, 100
2, 124416, Note_on_c, 0, 68, 80
2, 124508, Note_off_c, 0, 68, 100
2, 124512, Note_on_c, 0, 72, 81
2, 124604, Note_off_c, 0, 72, 100
2, 124608, Note_on_c, 0, 75, 82
2, 124700, Note_off_c, 0, 75, 100
2, 124704, Note_on_c, 0, 80, 83
2, 124796, Note_off_c, 0, 80, 100
2, 124800, Note_on_c, 0, 69, 85
2, 124892, Note_off_c, 0, 69, 100
2, 124896, Note_on_c, 0, 79, 86
2, 124988, Note_off_c, 0, 79, 100
2, 124992, Note_on_c, 0, 68, 87
2, 125084, Note_off_c, 0, 68, 100
2, 125088, Note_on_c, 0, 80, 89
2, 125180, Note_off_c, 0, 80, 100
2, 125184, Note_on_c, 0, 69, 90
2, 125276, Note_off_c, 0, 69, 100
2, 125280, Note_on_c, 0, 79, 91
2, 125372, Note_off_c, 0, 79, 100
2, 125376, Note_on_c, 0, 68, 93
2, 125468, Note_off_c, 0, 68, 100
2, 125472, Note_on_c, 0, 80, 94
2, 125564, Note_off_c, 0, 80, 100
2, 125568, Note_on_c, 0, 68, 95
2, 125660, Note_off_c, 0, 68, 100
2, 125664, Note_on_c, 0, 77, 96
2, 125756, Note_off_c, 0, 77, 100
2, 125760, Note_on_c, 0, 68, 98
2, 125852, Note_off_c, 0, 68, 100
2, 125856, Note_on_c, 0, 77, 99
2, 125948, Note_off_c, 0, 77, 100
2, 125952, Note_on_c, 0, 68, 100
2, 126044, Note_off_c, 0, 68, 100
2, 126048, Note_on_c, 0, 77, 102
2, 126140, Note_off_c, 0, 77, 100
2, 126144, Note_on_c, 0, 66, 103
2, 126236, Note_off_c, 0, 66, 100
2, 126240, Note_on_c, 0, 78, 104
2, 126332, Note_off_c, 0, 78, 100
2, 126336, Note_on_c, 0, 68, 106
2, 126428, Note_off_c, 0, 68, 100
2, 126432, Note_on_c, 0, 77, 107
2, 126524, Note_off_c, 0, 77, 100
2, 126528, Note_on_c, 0, 66, 108
2, 126620, Note_off_c, 0, 66, 100
2, 126624, Note_on_c, 0, 78, 109
2, 126716, Note_off_c, 0, 78, 100
2, 126720, Note_on_c, 0, 68, 110
2, 126812, Note_off_c, 0, 68, 100
2, 126816, Note_on_c, 0, 77, 110
2, 126908, Note_off_c, 0, 77, 100
2, 126912, Note_on_c, 0, 66, 110
2, 127004, Note_off_c, 0, 66, 100
2, 127008, Note_on_c, 0, 78, 110
2, 127100, Note_off_c, 0, 78, 100
2, 127104, Note_on_c, 0, 66, 110
2, 127196, Note_off_c, 0, 66, 100
2, 127200, Note_on_c, 0, 75, 110
2, 127292, Note_off_c, 0, 75, 100
2, 127296, Note_on_c, 0, 66, 110
2, 127388, Note_off_c, 0, 66, 100
2, 127392, Note_on_c, 0, 75, 110
2, 127484, Note_off_c, 0, 75, 100
2, 127488, Note_on_c, 0, 66, 110
2, 127580, Note_off_c, 0, 66, 100
2, 127584, Note_on_c, 0, 75, 110
2, 127676, Note_off_c, 0, 75, 100
2, 127680, Note_on_c, 0, 65, 110
2, 127772, Note_off_c, 0, 65, 100
2, 127776, Note_on_c, 0, 77, 110
2, 127868, Note_off_c, 0, 77, 100
2, 127872, Note_on_c, 0, 65, 110
2, 127964, Note_off_c, 0, 65, 100
2, 127968, Note_on_c, 0, 74, 110
2, 128060, Note_off_c, 0, 74, 100
2, 128064, Note_on_c, 0, 63, 110
2, 128156, Note_off_c, 0, 63, 100
2, 128160, Note_on_c, 0, 75, 110
2, 128252, Note_off_c, 0, 75, 100
2, 128256, Note_on_c, 0, 63, 110
2, 128348, Note_off_c, 0, 63, 100
2, 128352, Note_on_c, 0, 72, 110
2, 128444, Note_off_c, 0, 72, 100
2, 128448, Note_on_c, 0, 61, 110
2, 128540, Note_off_c, 0, 61, 100
2, 128544, Note_on_c, 0, 73, 110
2, 128636, Note_off_c, 0, 73, 100
2, 128640, Note_on_c, 0, 61, 110
2, 128732, Note_off_c, 0, 61, 100
2, 128736, Note_on_c, 0, 70, 110
2, 128828, Note_off_c, 0, 70, 100
2, 128832, Note_on_c, 0, 59, 110
2, 128924, Note_off_c, 0, 59, 100
2, 128928, Note_on_c, 0, 71, 110
2, 129020, Note_off_c, 0, 71, 100
2, 129024, Note_on_c, 0, 60, 110
2, 129116, Note_off_c, 0, 60, 100
2, 129120, Note_on_c, 0, 69, 110
2, 129212, Note_off_c, 0, 69, 100
2, 129216, Note_on_c, 0, 58, 110
2, 129308, Note_off_c, 0, 58, 100
2, 129312, Note_on_c, 0, 70, 110
2, 129404, Note_off_c, 0, 70, 100
2, 129408, Note_on_c, 0, 65, 120
2, 129500, Note_off_c, 0, 65, 100
2, 129504, Note_on_c, 0, 70, 120
2, 129596, Note_off_c, 0, 70, 100
2, 129600, Note_on_c, 0, 65, 120
2, 129692, Note_off_c, 0, 65, 100
2, 129696, Note_on_c, 0, 70, 120
2, 129788, Note_off_c, 0, 70, 100
2, 129792, Note_on_c, 0, 65, 120
2, 129884, Note_off_c, 0, 65, 100
2, 129888, Note_on_c, 0, 71, 120
2, 129980, Note_off_c, 0, 71, 100
2, 129984, Note_on_c, 0, 65, 120
2, 130076, Note_off_c, 0, 65, 100
2, 130080, Note_on_c, 0, 71, 120
2, 130172, Note_off_c, 0, 71, 100
2, 130176, Note_on_c, 0, 59, 120
2, 130268, Note_off_c, 0, 59, 100
2, 130272, Note_on_c, 0, 65, 120
2, 130364, Note_off_c, 0, 65, 100
2, 130368, Note_on_c, 0, 59, 120
2, 130460, Note_off_c, 0, 59, 100
2, 130464, Note_on_c, 0, 65, 120
2, 130556, Note_off_c, 0, 65, 100
2, 130656, Note_on_c, 0, 64, 80
2, 130656, Note_on_c, 0, 58, 80
2, 130656, Note_on_c, 0, 55, 80
2, 130748, Note_off_c, 0, 64, 100
2, 130748, Note_off_c, 0, 58, 100
2, 130748, Note_off_c, 0, 55, 100
2, 130848, Note_on_c, 0, 64, 80
2, 130848, Note_on_c, 0, 58, 80
2, 130848, Note_on_c, 0, 55, 80
2, 130940, Note_off_c, 0, 64, 100
2, 130940, Note_off_c, 0, 58, 100
2, 130940, Note_off_c, 0, 55, 100
2, 131040, Note_on_c, 0, 64, 80
2, 131040, Note_on_c, 0, 58, 80
2, 131040, Note_on_c, 0, 55, 80
2, 131132, Note_off_c, 0, 64, 100
2, 131132, Note_off_c, 0, 58, 100
2, 131132, Note_off_c, 0, 55, 100
2, 131232, Note_on_c, 0, 64, 80
2, 131232, Note_on_c, 0, 58, 80
2, 131232, Note_on_c, 0, 55, 80
2, 131324, Note_off_c, 0, 64, 100
2, 131324, Note_off_c, 0, 58, 100
2, 131324, Note_off_c, 0, 55, 100
2, 131424, Note_on_c, 0, 65, 80
2, 131424, Note_on_c, 0, 57, 80
2, 131516, Note_off_c, 0, 65, 100
2, 131516, Note_off_c, 0, 57, 100
2, 131616, Note_on_c, 0, 65, 80
2, 131616, Note_on_c, 0, 57, 80
2, 131708, Note_off_c, 0, 65, 100
2, 131708, Note_off_c, 0, 57, 100
2, 131808, Note_on_c, 0, 65, 80
2, 131808, Note_on_c, 0, 57, 80
2, 131900, Note_off_c, 0, 65, 100
2, 131900, Note_off_c, 0, 57, 100
2, 132000, Note_on_c, 0, 65, 80
2, 132000, Note_on_c, 0, 57, 80
2, 132092, Note_off_c, 0, 65, 100
2, 132092, Note_off_c, 0, 57, 100
2, 132192, Note_on_c, 0, 67, 80
2, 132192, Note_on_c, 0, 64, 80
2, 132192, Note_on_c, 0, 58, 80
2, 132284, Note_off_c, 0, 67, 100
2, 132284, Note_off_c, 0, 64, 100
2, 132284, Note_off_c, 0, 58, 100
2, 132384, Note_on_c, 0, 67, 80
2, 132384, Note_on_c, 0, 64, 80
2, 132384, Note_on_c, 0, 58, 80
2, 132476, Note_off_c, 0, 67, 100
2, 132476, Note_off_c, 0, 64, 100
2, 132476, Note_off_c, 0, 58, 100
2, 132576, Note_on_c, 0, 67, 80
2, 132576, Note_on_c, 0, 64, 80
2, 132576, Note_on_c, 0, 58, 80
2, 132668, Note_off_c, 0, 67, 100
2, 132668, Note_off_c, 0, 64, 100
2, 132668, Note_off_c, 0, 58, 100
2, 132768, Note_on_c, 0, 67, 80
2, 132768, Note_on_c, 0, 64, 80
2, 132768, Note_on_c, 0, 58, 80
2, 132860, Note_off_c, 0, 67, 100
2, 132860, Note_off_c, 0, 64, 100
2, 132860, Note_off_c, 0, 58, 100
2, 132960, Note_on_c, 0, 65, 80
2, 132960, Note_on_c, 0, 56, 80
2, 133052, Note_off_c, 0, 65, 100
2, 133052, Note_off_c, 0, 56, 100
2, 133152, Note_on_c, 0, 65, 80
2, 133152, Note_on_c, 0, 56, 80
2, 133244, Note_off_c, 0, 65, 100
2, 133244, Note_off_c, 0, 56, 100
2, 133344, Note_on_c, 0, 65, 80
2, 133344, Note_on_c, 0, 56, 80
2, 133436, Note_off_c, 0, 65, 100
2, 133436, Note_off_c, 0, 56, 100
2, 133536, Note_on_c, 0, 65, 80
2, 133536, Note_on_c, 0, 56, 80
2, 133628, Note_off_c, 0, 65, 100
2, 133628, Note_off_c, 0, 56, 100
2, 133728, Note_on_c, 0, 64, 80
2, 133728, Note_on_c, 0, 55, 80
2, 133728, Note_on_c, 0, 58, 80
2, 133820, Note_off_c, 0, 64, 100
2, 133820, Note_off_c, 0, 55, 100
2, 133820, Note_off_c, 0, 58, 100
2, 133920, Note_on_c, 0, 64, 80
2, 133920, Note_on_c, 0, 55, 80
2, 134012, Note_off_c, 0, 64, 100
2, 134012, Note_off_c, 0, 55, 100
2, 134112, Note_on_c, 0, 64, 80
2, 134112, Note_on_c, 0, 55, 80
2, 134204, Note_off_c, 0, 64, 100
2, 134204, Note_off_c, 0, 55, 100
2, 134304, Note_on_c, 0, 64, 80
2, 134304, Note_on_c, 0, 55, 80
2, 134396, Note_off_c, 0, 64, 100
2, 134396, Note_off_c, 0, 55, 100
2, 134496, Note_on_c, 0, 64, 80
2, 134496, Note_on_c, 0, 55, 80
2, 134588, Note_off_c, 0, 64, 100
2, 134588, Note_off_c, 0, 55, 100
2, 134688, Note_on_c, 0, 64, 80
2, 134688, Note_on_c, 0, 55, 80
2, 134780, Note_off_c, 0, 64, 100
2, 134780, Note_off_c, 0, 55, 100
2, 134880, Note_on_c, 0, 64, 80
2, 134880, Note_on_c, 0, 55, 80
2, 134972, Note_off_c, 0, 64, 100
2, 134972, Note_off_c, 0, 55, 100
2, 135072, Note_on_c, 0, 64, 80
2, 135072, Note_on_c, 0, 55, 80
2, 135164, Note_off_c, 0, 64, 100
2, 135164, Note_off_c, 0, 55, 100
2, 135264, Note_on_c, 0, 64, 80
2, 135264, Note_on_c, 0, 55, 80
2, 135356, Note_off_c, 0, 64, 100
2, 135356, Note_off_c, 0, 55, 100
2, 135456, Note_on_c, 0, 64, 80
2, 135456, Note_on_c, 0, 55, 80
2, 135548, Note_off_c, 0, 64, 100
2, 135548, Note_off_c, 0, 55, 100
2, 135648, Note_on_c, 0, 64, 80
2, 135648, Note_on_c, 0, 55, 80
2, 135740, Note_off_c, 0, 64, 100
2, 135740, Note_off_c, 0, 55, 100
2, 135840, Note_on_c, 0, 64, 80
2, 135840, Note_on_c, 0, 55, 80
2, 135932, Note_off_c, 0, 64, 100
2, 135932, Note_off_c, 0, 55, 100
2, 136032, Note_on_c, 0, 64, 80
2, 136032, Note_on_c, 0, 55, 80
2, 136124, Note_off_c, 0, 64, 100
2, 136124, Note_off_c, 0, 55, 100
2, 136224, Note_on_c, 0, 64, 80
2, 136224, Note_on_c, 0, 55, 80
2, 136316, Note_off_c, 0, 64, 100
2, 136316, Note_off_c, 0, 55, 100
2, 136416, Note_on_c, 0, 64, 80
2, 136416, Note_on_c, 0, 55, 80
2, 136508, Note_off_c, 0, 64, 100
2, 136508, Note_off_c, 0, 55, 100
2, 136608, Note_on_c, 0, 64, 80
2, 136608, Note_on_c, 0, 55, 80
2, 136700, Note_off_c, 0, 64, 100
2, 136700, Note_off_c, 0, 55, 100
2, 136704, Note_on_c, 0, 64, 80
2, 136704, Note_on_c, 0, 55, 80
2, 136892, Note_off_c, 0, 64, 100
2, 136892, Note_off_c, 0, 55, 100
2, 136896, Note_on_c, 0, 64, 80
2, 136896, Note_on_c, 0, 55, 80
2, 137084, Note_off_c, 0, 64, 100
2, 137084, Note_off_c, 0, 55, 100
2, 137088, Note_on_c, 0, 64, 80
2, 137088, Note_on_c, 0, 55, 80
2, 137276, Note_off_c, 0, 64, 100
2, 137276, Note_off_c, 0, 55, 100
2, 137280, Note_on_c, 0, 64, 80
2, 137280, Note_on_c, 0, 55, 80
2, 137468, Note_off_c, 0, 64, 100
2, 137468, Note_off_c, 0, 55, 100
2, 137472, Note_on_c, 0, 64, 80
2, 137472, Note_on_c, 0, 55, 80
2, 137660, Note_off_c, 0, 64, 100
2, 137660, Note_off_c, 0, 55, 100
2, 137664, Note_on_c, 0, 64, 80
2, 137664, Note_on_c, 0, 55, 80
2, 137852, Note_off_c, 0, 64, 100
2, 137852, Note_off_c, 0, 55, 100
2, 137856, Note_on_c, 0, 64, 80
2, 137856, Note_on_c, 0, 55, 80
2, 138044, Note_off_c, 0, 64, 100
2, 138044, Note_off_c, 0, 55, 100
2, 138048, Note_on_c, 0, 64, 80
2, 138048, Note_on_c, 0, 55, 80
2, 138236, Note_off_c, 0, 64, 100
2, 138236, Note_off_c, 0, 55, 100
2, 138240, Note_on_c, 0, 64, 80
2, 138240, Note_on_c, 0, 61, 80
2, 138428, Note_off_c, 0, 64, 100
2, 138428, Note_off_c, 0, 61, 100
2, 139776, Note_on_c, 0, 57, 80
2, 139868, Note_off_c, 0, 57, 100
2, 139872, Note_on_c, 0, 61, 80
2, 139964, Note_off_c, 0, 61, 100
2, 139968, Note_on_c, 0, 64, 80
2, 140060, Note_off_c, 0, 64, 100
2, 140064, Note_on_c, 0, 69, 80
2, 140156, Note_off_c, 0, 69, 100
2, 140160, Note_on_c, 0, 59, 80
2, 140252, Note_off_c, 0, 59, 100
2, 140256, Note_on_c, 0, 68, 80
2, 140348, Note_off_c, 0, 68, 100
2, 140352, Note_on_c, 0, 61, 80
2, 140444, Note_off_c, 0, 61, 100
2, 140448, Note_on_c, 0, 69, 80
2, 140540, Note_off_c, 0, 69, 100
2, 140544, Note_on_c, 0, 62, 80
2, 140636, Note_off_c, 0, 62, 100
2, 140640, Note_on_c, 0, 71, 80
2, 140732, Note_off_c, 0, 71, 100
2, 140736, Note_on_c, 0, 64, 80
2, 140828, Note_off_c, 0, 64, 100
2, 140832, Note_on_c, 0, 73, 80
2, 140924, Note_off_c, 0, 73, 100
2, 140928, Note_on_c, 0, 66, 80
2, 141020, Note_off_c, 0, 66, 100
2, 141024, Note_on_c, 0, 74, 80
2, 141116, Note_off_c, 0, 74, 100
2, 141120, Note_on_c, 0, 68, 80
2, 141212, Note_off_c, 0, 68, 100
2, 141216, Note_on_c, 0, 76, 80
2, 141308, Note_off_c, 0, 76, 100
2, 141312, Note_on_c, 0, 73, 80
2, 141404, Note_off_c, 0, 73, 100
2, 141408, Note_on_c, 0, 69, 80
2, 141500, Note_off_c, 0, 69, 100
2, 141504, Note_on_c, 0, 76, 101
2, 142844, Note_off_c, 0, 76, 64
2, 142944, Note_on_c, 0, 73, 80
2, 143036, Note_off_c, 0, 73, 100
2, 143040, Note_on_c, 0, 76, 80
2, 143132, Note_off_c, 0, 76, 100
2, 143136, Note_on_c, 0, 81, 80
2, 143228, Note_off_c, 0, 81, 100
2, 143232, Note_on_c, 0, 71, 80
2, 143324, Note_off_c, 0, 71, 100
2, 143328, Note_on_c, 0, 80, 80
2, 143420, Note_off_c, 0, 80, 100
2, 143424, Note_on_c, 0, 73, 80
2, 143516, Note_off_c, 0, 73, 100
2, 143520, Note_on_c, 0, 81, 80
2, 143612, Note_off_c, 0, 81, 100
2, 143616, Note_on_c, 0, 74, 80
2, 143708, Note_off_c, 0, 74, 100
2, 143712, Note_on_c, 0, 83, 80
2, 143804, Note_off_c, 0, 83, 100
2, 143808, Note_on_c, 0, 76, 80
2, 143900, Note_off_c, 0, 76, 100
2, 143904, Note_on_c, 0, 85, 80
2, 143996, Note_off_c, 0, 85, 100
2, 144000, Note_on_c, 0, 81, 80
2, 144092, Note_off_c, 0, 81, 100
2, 144096, Note_on_c, 0, 86, 80
2, 144188, Note_off_c, 0, 86, 100
2, 144192, Note_on_c, 0, 81, 80
2, 144284, Note_off_c, 0, 81, 100
2, 144288, Note_on_c, 0, 88, 80
2, 144380, Note_off_c, 0, 88, 100
2, 144384, Note_on_c, 0, 89, 80
2, 144476, Note_off_c, 0, 89, 100
2, 144480, Note_on_c, 0, 81, 80
2, 144572, Note_off_c, 0, 81, 100
2, 144576, Note_on_c, 0, 88, 80
2, 144668, Note_off_c, 0, 88, 100
2, 144672, Note_on_c, 0, 84, 80
2, 144764, Note_off_c, 0, 84, 100
2, 144768, Note_on_c, 0, 86, 80
2, 144860, Note_off_c, 0, 86, 100
2, 144864, Note_on_c, 0, 77, 80
2, 144956, Note_off_c, 0, 77, 100
2, 144960, Note_on_c, 0, 84, 80
2, 145052, Note_off_c, 0, 84, 100
2, 145056, Note_on_c, 0, 81, 80
2, 145148, Note_off_c, 0, 81, 100
2, 145152, Note_on_c, 0, 82, 80
2, 145244, Note_off_c, 0, 82, 100
2, 145248, Note_on_c, 0, 74, 80
2, 145340, Note_off_c, 0, 74, 100
2, 145344, Note_on_c, 0, 81, 80
2, 145436, Note_off_c, 0, 81, 100
2, 145440, Note_on_c, 0, 77, 80
2, 145532, Note_off_c, 0, 77, 100
2, 145536, Note_on_c, 0, 79, 80
2, 145628, Note_off_c, 0, 79, 100
2, 145632, Note_on_c, 0, 70, 80
2, 145724, Note_off_c, 0, 70, 100
2, 145728, Note_on_c, 0, 82, 80
2, 145820, Note_off_c, 0, 82, 100
2, 145824, Note_on_c, 0, 77, 80
2, 145916, Note_off_c, 0, 77, 100
2, 145920, Note_on_c, 0, 81, 80
2, 146012, Note_off_c, 0, 81, 100
2, 146016, Note_on_c, 0, 76, 80
2, 146108, Note_off_c, 0, 76, 100
2, 146112, Note_on_c, 0, 73, 80
2, 146204, Note_off_c, 0, 73, 100
2, 146208, Note_on_c, 0, 79, 80
2, 146300, Note_off_c, 0, 79, 100
2, 146304, Note_on_c, 0, 77, 80
2, 146396, Note_off_c, 0, 77, 100
2, 146400, Note_on_c, 0, 74, 80
2, 146492, Note_off_c, 0, 74, 100
2, 146496, Note_on_c, 0, 70, 80
2, 146588, Note_off_c, 0, 70, 100
2, 146592, Note_on_c, 0, 76, 80
2, 146684, Note_off_c, 0, 76, 100
2, 146688, Note_on_c, 0, 69, 80
2, 146780, Note_off_c, 0, 69, 100
2, 146784, Note_on_c, 0, 74, 80
2, 146876, Note_off_c, 0, 74, 100
2, 146880, Note_on_c, 0, 68, 80
2, 146972, Note_off_c, 0, 68, 100
2, 146976, Note_on_c, 0, 74, 80
2, 147068, Note_off_c, 0, 74, 100
2, 147072, Note_on_c, 0, 67, 80
2, 147164, Note_off_c, 0, 67, 100
2, 147168, Note_on_c, 0, 74, 80
2, 147260, Note_off_c, 0, 74, 100
2, 147264, Note_on_c, 0, 73, 80
2, 147356, Note_off_c, 0, 73, 100
2, 147360, Note_on_c, 0, 79, 80
2, 147452, Note_off_c, 0, 79, 100
2, 147456, Note_on_c, 0, 77, 80
2, 147548, Note_off_c, 0, 77, 100
2, 147552, Note_on_c, 0, 74, 80
2, 147644, Note_off_c, 0, 74, 100
2, 147648, Note_on_c, 0, 81, 80
2, 147740, Note_off_c, 0, 81, 100
2, 147744, Note_on_c, 0, 72, 80
2, 147836, Note_off_c, 0, 72, 100
2, 147840, Note_on_c, 0, 74, 80
2, 147932, Note_off_c, 0, 74, 100
2, 147936, Note_on_c, 0, 70, 80
2, 148028, Note_off_c, 0, 70, 100
2, 148032, Note_on_c, 0, 77, 80
2, 148124, Note_off_c, 0, 77, 100
2, 148128, Note_on_c, 0, 69, 80
2, 148220, Note_off_c, 0, 69, 100
2, 148224, Note_on_c, 0, 70, 80
2, 148316, Note_off_c, 0, 70, 100
2, 148320, Note_on_c, 0, 67, 80
2, 148412, Note_off_c, 0, 67, 100
2, 148416, Note_on_c, 0, 74, 80
2, 148508, Note_off_c, 0, 74, 100
2, 148512, Note_on_c, 0, 65, 80
2, 148604, Note_off_c, 0, 65, 100
2, 148608, Note_on_c, 0, 67, 80
2, 148700, Note_off_c, 0, 67, 100
2, 148704, Note_on_c, 0, 63, 80
2, 148796, Note_off_c, 0, 63, 100
2, 148800, Note_on_c, 0, 70, 80
2, 148892, Note_off_c, 0, 70, 100
2, 148896, Note_on_c, 0, 58, 80
2, 148988, Note_off_c, 0, 58, 100
2, 148992, Note_on_c, 0, 69, 80
2, 149084, Note_off_c, 0, 69, 100
2, 149088, Note_on_c, 0, 64, 81
2, 149180, Note_off_c, 0, 64, 100
2, 149184, Note_on_c, 0, 61, 82
2, 149276, Note_off_c, 0, 61, 100
2, 149280, Note_on_c, 0, 67, 83
2, 149372, Note_off_c, 0, 67, 100
2, 149376, Note_on_c, 0, 65, 85
2, 149468, Note_off_c, 0, 65, 100
2, 149472, Note_on_c, 0, 62, 86
2, 149564, Note_off_c, 0, 62, 100
2, 149568, Note_on_c, 0, 58, 87
2, 149660, Note_off_c, 0, 58, 100
2, 149664, Note_on_c, 0, 64, 89
2, 149756, Note_off_c, 0, 64, 100
2, 149760, Note_on_c, 0, 62, 90
2, 149852, Note_off_c, 0, 62, 100
2, 149856, Note_on_c, 0, 57, 91
2, 149948, Note_off_c, 0, 57, 100
2, 149952, Note_on_c, 0, 56, 93
2, 150044, Note_off_c, 0, 56, 100
2, 150048, Note_on_c, 0, 62, 94
2, 150140, Note_off_c, 0, 62, 100
2, 150144, Note_on_c, 0, 55, 95
2, 150236, Note_off_c, 0, 55, 100
2, 150240, Note_on_c, 0, 62, 97
2, 150332, Note_off_c, 0, 62, 100
2, 150336, Note_on_c, 0, 55, 98
2, 150428, Note_off_c, 0, 55, 100
2, 150432, Note_on_c, 0, 61, 99
2, 150524, Note_off_c, 0, 61, 100
2, 150528, Note_on_c, 0, 48, 110
2, 150620, Note_off_c, 0, 48, 100
2, 150624, Note_on_c, 0, 51, 110
2, 150716, Note_off_c, 0, 51, 100
2, 150720, Note_on_c, 0, 54, 110
2, 150812, Note_off_c, 0, 54, 100
2, 150816, Note_on_c, 0, 60, 110
2, 150908, Note_off_c, 0, 60, 100
2, 150912, Note_on_c, 0, 59, 110
2, 151004, Note_off_c, 0, 59, 100
2, 151008, Note_on_c, 0, 60, 110
2, 151100, Note_off_c, 0, 60, 100
2, 151104, Note_on_c, 0, 51, 110
2, 151196, Note_off_c, 0, 51, 100
2, 151200, Note_on_c, 0, 54, 110
2, 151292, Note_off_c, 0, 54, 100
2, 151296, Note_on_c, 0, 51, 110
2, 151388, Note_off_c, 0, 51, 100
2, 151392, Note_on_c, 0, 55, 110
2, 151484, Note_off_c, 0, 55, 100
2, 151488, Note_on_c, 0, 60, 110
2, 151580, Note_off_c, 0, 60, 100
2, 151584, Note_on_c, 0, 63, 110
2, 151676, Note_off_c, 0, 63, 100
2, 151680, Note_on_c, 0, 62, 110
2, 151772, Note_off_c, 0, 62, 100
2, 151776, Note_on_c, 0, 63, 110
2, 151868, Note_off_c, 0, 63, 100
2, 151872, Note_on_c, 0, 55, 110
2, 151964, Note_off_c, 0, 55, 100
2, 151968, Note_on_c, 0, 60, 110
2, 152060, Note_off_c, 0, 60, 100
2, 152064, Note_on_c, 0, 57, 110
2, 152156, Note_off_c, 0, 57, 100
2, 152160, Note_on_c, 0, 60, 110
2, 152252, Note_off_c, 0, 60, 100
2, 152256, Note_on_c, 0, 63, 110
2, 152348, Note_off_c, 0, 63, 100
2, 152352, Note_on_c, 0, 69, 110
2, 152444, Note_off_c, 0, 69, 100
2, 152448, Note_on_c, 0, 68, 110
2, 152540, Note_off_c, 0, 68, 100
2, 152544, Note_on_c, 0, 69, 110
2, 152636, Note_off_c, 0, 69, 100
2, 152640, Note_on_c, 0, 60, 110
2, 152732, Note_off_c, 0, 60, 100
2, 152736, Note_on_c, 0, 63, 110
2, 152828, Note_off_c, 0, 63, 100
2, 152832, Note_on_c, 0, 60, 110
2, 152924, Note_off_c, 0, 60, 100
2, 152928, Note_on_c, 0, 63, 110
2, 153020, Note_off_c, 0, 63, 100
2, 153024, Note_on_c, 0, 69, 110
2, 153116, Note_off_c, 0, 69, 100
2, 153120, Note_on_c, 0, 72, 110
2, 153212, Note_off_c, 0, 72, 100
2, 153216, Note_on_c, 0, 71, 110
2, 153308, Note_off_c, 0, 71, 100
2, 153312, Note_on_c, 0, 72, 110
2, 153404, Note_off_c, 0, 72, 100
2, 153408, Note_on_c, 0, 64, 110
2, 153500, Note_off_c, 0, 64, 100
2, 153504, Note_on_c, 0, 69, 110
2, 153596, Note_off_c, 0, 69, 100
2, 153600, Note_on_c, 0, 64, 110
2, 153692, Note_off_c, 0, 64, 100
2, 153696, Note_on_c, 0, 69, 110
2, 153788, Note_off_c, 0, 69, 100
2, 153792, Note_on_c, 0, 72, 110
2, 153884, Note_off_c, 0, 72, 100
2, 153888, Note_on_c, 0, 76, 110
2, 153980, Note_off_c, 0, 76, 100
2, 153984, Note_on_c, 0, 75, 110
2, 154076, Note_off_c, 0, 75, 100
2, 154080, Note_on_c, 0, 76, 110
2, 154172, Note_off_c, 0, 76, 100
2, 154176, Note_on_c, 0, 69, 110
2, 154268, Note_off_c, 0, 69, 100
2, 154272, Note_on_c, 0, 72, 110
2, 154364, Note_off_c, 0, 72, 100
2, 154368, Note_on_c, 0, 66, 110
2, 154460, Note_off_c, 0, 66, 100
2, 154464, Note_on_c, 0, 69, 110
2, 154556, Note_off_c, 0, 69, 100
2, 154560, Note_on_c, 0, 72, 110
2, 154652, Note_off_c, 0, 72, 100
2, 154656, Note_on_c, 0, 78, 110
2, 154748, Note_off_c, 0, 78, 100
2, 154752, Note_on_c, 0, 77, 110
2, 154844, Note_off_c, 0, 77, 100
2, 154848, Note_on_c, 0, 78, 110
2, 154940, Note_off_c, 0, 78, 100
2, 154944, Note_on_c, 0, 69, 110
2, 155036, Note_off_c, 0, 69, 100
2, 155040, Note_on_c, 0, 72, 110
2, 155132, Note_off_c, 0, 72, 100
2, 155136, Note_on_c, 0, 69, 110
2, 155228, Note_off_c, 0, 69, 100
2, 155232, Note_on_c, 0, 72, 110
2, 155324, Note_off_c, 0, 72, 100
2, 155328, Note_on_c, 0, 78, 110
2, 155420, Note_off_c, 0, 78, 100
2, 155424, Note_on_c, 0, 81, 110
2, 155516, Note_off_c, 0, 81, 100
2, 155520, Note_on_c, 0, 80, 110
2, 155612, Note_off_c, 0, 80, 100
2, 155616, Note_on_c, 0, 81, 110
2, 155708, Note_off_c, 0, 81, 100
2, 155712, Note_on_c, 0, 72, 110
2, 155804, Note_off_c, 0, 72, 100
2, 155808, Note_on_c, 0, 78, 110
2, 155900, Note_off_c, 0, 78, 100
2, 155904, Note_on_c, 0, 72, 110
2, 155996, Note_off_c, 0, 72, 100
2, 156000, Note_on_c, 0, 78, 110
2, 156092, Note_off_c, 0, 78, 100
2, 156096, Note_on_c, 0, 81, 110
2, 156188, Note_off_c, 0, 81, 100
2, 156192, Note_on_c, 0, 84, 110
2, 156284, Note_off_c, 0, 84, 100
2, 156288, Note_on_c, 0, 83, 110
2, 156380, Note_off_c, 0, 83, 100
2, 156384, Note_on_c, 0, 84, 110
2, 156476, Note_off_c, 0, 84, 100
2, 156480, Note_on_c, 0, 78, 110
2, 156572, Note_off_c, 0, 78, 100
2, 156576, Note_on_c, 0, 81, 110
2, 156668, Note_off_c, 0, 81, 100
2, 156672, Note_on_c, 0, 83, 110
2, 156672, Note_on_c, 0, 79, 110
2, 156672, Note_on_c, 0, 74, 110
2, 156672, Note_on_c, 0, 71, 110
2, 156860, Note_off_c, 0, 83, 100
2, 156860, Note_off_c, 0, 79, 100
2, 156860, Note_off_c, 0, 74, 100
2, 156860, Note_off_c, 0, 71, 100
2, 157056, Note_on_c, 0, 74, 110
2, 157056, Note_on_c, 0, 62, 110
2, 157244, Note_off_c, 0, 74, 100
2, 157244, Note_off_c, 0, 62, 100
2, 157248, Note_on_c, 0, 74, 110
2, 157248, Note_on_c, 0, 62, 110
2, 157628, Note_off_c, 0, 62, 64
2, 157628, Note_off_c, 0, 74, 64
2, 157632, Note_on_c, 0, 74, 110
2, 157632, Note_on_c, 0, 62, 110
2, 158012, Note_off_c, 0, 74, 100
2, 158012, Note_off_c, 0, 62, 100
2, 158016, Note_on_c, 0, 74, 110
2, 158016, Note_on_c, 0, 62, 110
2, 158204, Note_off_c, 0, 74, 100
2, 158204, Note_off_c, 0, 62, 100
2, 158208, Note_on_c, 0, 55, 80
2, 158300, Note_off_c, 0, 55, 100
2, 158304, Note_on_c, 0, 59, 80
2, 158396, Note_off_c, 0, 59, 100
2, 158400, Note_on_c, 0, 62, 80
2, 158492, Note_off_c, 0, 62, 100
2, 158496, Note_on_c, 0, 67, 80
2, 158588, Note_off_c, 0, 67, 100
2, 158592, Note_on_c, 0, 57, 80
2, 158684, Note_off_c, 0, 57, 100
2, 158688, Note_on_c, 0, 66, 80
2, 158780, Note_off_c, 0, 66, 100
2, 158784, Note_on_c, 0, 59, 80
2, 158876, Note_off_c, 0, 59, 100
2, 158880, Note_on_c, 0, 67, 80
2, 158972, Note_off_c, 0, 67, 100
2, 158976, Note_on_c, 0, 60, 80
2, 159068, Note_off_c, 0, 60, 100
2, 159072, Note_on_c, 0, 69, 80
2, 159164, Note_off_c, 0, 69, 100
2, 159168, Note_on_c, 0, 62, 80
2, 159260, Note_off_c, 0, 62, 100
2, 159264, Note_on_c, 0, 71, 80
2, 159356, Note_off_c, 0, 71, 100
2, 159360, Note_on_c, 0, 64, 80
2, 159452, Note_off_c, 0, 64, 100
2, 159456, Note_on_c, 0, 72, 80
2, 159548, Note_off_c, 0, 72, 100
2, 159552, Note_on_c, 0, 66, 80
2, 159644, Note_off_c, 0, 66, 100
2, 159648, Note_on_c, 0, 74, 80
2, 159740, Note_off_c, 0, 74, 100
2, 159744, Note_on_c, 0, 71, 110
2, 159836, Note_off_c, 0, 71, 100
2, 159840, Note_on_c, 0, 67, 110
2, 159932, Note_off_c, 0, 67, 100
2, 159936, Note_on_c, 0, 74, 121
2, 160316, Note_off_c, 0, 74, 100
2, 160320, Note_on_c, 0, 86, 110
2, 160320, Note_on_c, 0, 74, 110
2, 160700, Note_off_c, 0, 74, 64
2, 160700, Note_off_c, 0, 86, 64
2, 160704, Note_on_c, 0, 86, 110
2, 160704, Note_on_c, 0, 74, 110
2, 161084, Note_off_c, 0, 86, 100
2, 161084, Note_off_c, 0, 74, 100
2, 161088, Note_on_c, 0, 86, 110
2, 161088, Note_on_c, 0, 74, 110
2, 161276, Note_off_c, 0, 86, 100
2, 161276, Note_off_c, 0, 74, 100
2, 161280, Note_on_c, 0, 67, 80
2, 161372, Note_off_c, 0, 67, 100
2, 161376, Note_on_c, 0, 71, 80
2, 161468, Note_off_c, 0, 71, 100
2, 161472, Note_on_c, 0, 74, 80
2, 161564, Note_off_c, 0, 74, 100
2, 161568, Note_on_c, 0, 79, 80
2, 161660, Note_off_c, 0, 79, 100
2, 161664, Note_on_c, 0, 68, 80
2, 161756, Note_off_c, 0, 68, 100
2, 161760, Note_on_c, 0, 77, 80
2, 161852, Note_off_c, 0, 77, 100
2, 161856, Note_on_c, 0, 67, 80
2, 161948, Note_off_c, 0, 67, 100
2, 161952, Note_on_c, 0, 75, 80
2, 162044, Note_off_c, 0, 75, 100
2, 162048, Note_on_c, 0, 65, 80
2, 162140, Note_off_c, 0, 65, 100
2, 162144, Note_on_c, 0, 74, 80
2, 162236, Note_off_c, 0, 74, 100
2, 162240, Note_on_c, 0, 63, 80
2, 162332, Note_off_c, 0, 63, 100
2, 162336, Note_on_c, 0, 72, 80
2, 162428, Note_off_c, 0, 72, 100
2, 162432, Note_on_c, 0, 62, 80
2, 162524, Note_off_c, 0, 62, 100
2, 162528, Note_on_c, 0, 72, 80
2, 162620, Note_off_c, 0, 72, 100
2, 162624, Note_on_c, 0, 62, 80
2, 162716, Note_off_c, 0, 62, 100
2, 162720, Note_on_c, 0, 71, 80
2, 162812, Note_off_c, 0, 71, 100
2, 162816, Note_on_c, 0, 72, 110
2, 162816, Note_on_c, 0, 67, 110
2, 162816, Note_on_c, 0, 63, 110
2, 162816, Note_on_c, 0, 60, 110
2, 163004, Note_off_c, 0, 72, 100
2, 163004, Note_off_c, 0, 67, 100
2, 163004, Note_off_c, 0, 63, 100
2, 163004, Note_off_c, 0, 60, 100
2, 163200, Note_on_c, 0, 67, 110
2, 163388, Note_off_c, 0, 67, 100
2, 163392, Note_on_c, 0, 67, 110
2, 163772, Note_off_c, 0, 67, 64
2, 163776, Note_on_c, 0, 67, 110
2, 164156, Note_off_c, 0, 67, 100
2, 164160, Note_on_c, 0, 67, 110
2, 164348, Note_off_c, 0, 67, 100
2, 164352, Note_on_c, 0, 60, 100
2, 164444, Note_off_c, 0, 60, 100
2, 164448, Note_on_c, 0, 63, 94
2, 164540, Note_off_c, 0, 63, 100
2, 164544, Note_on_c, 0, 67, 87
2, 164636, Note_off_c, 0, 67, 100
2, 164640, Note_on_c, 0, 72, 81
2, 164732, Note_off_c, 0, 72, 100
2, 164736, Note_on_c, 0, 62, 80
2, 164828, Note_off_c, 0, 62, 100
2, 164832, Note_on_c, 0, 71, 80
2, 164924, Note_off_c, 0, 71, 100
2, 164928, Note_on_c, 0, 63, 80
2, 165020, Note_off_c, 0, 63, 100
2, 165024, Note_on_c, 0, 72, 80
2, 165116, Note_off_c, 0, 72, 100
2, 165120, Note_on_c, 0, 65, 80
2, 165212, Note_off_c, 0, 65, 100
2, 165216, Note_on_c, 0, 74, 80
2, 165308, Note_off_c, 0, 74, 100
2, 165312, Note_on_c, 0, 67, 80
2, 165404, Note_off_c, 0, 67, 100
2, 165408, Note_on_c, 0, 75, 80
2, 165500, Note_off_c, 0, 75, 100
2, 165504, Note_on_c, 0, 69, 80
2, 165596, Note_off_c, 0, 69, 100
2, 165600, Note_on_c, 0, 77, 80
2, 165692, Note_off_c, 0, 77, 100
2, 165696, Note_on_c, 0, 71, 80
2, 165788, Note_off_c, 0, 71, 100
2, 165792, Note_on_c, 0, 79, 80
2, 165884, Note_off_c, 0, 79, 100
2, 165888, Note_on_c, 0, 75, 110
2, 165980, Note_off_c, 0, 75, 100
2, 165984, Note_on_c, 0, 72, 110
2, 166076, Note_off_c, 0, 72, 100
2, 166080, Note_on_c, 0, 79, 110
2, 166460, Note_off_c, 0, 79, 100
2, 166464, Note_on_c, 0, 79, 110
2, 166464, Note_on_c, 0, 67, 110
2, 166844, Note_off_c, 0, 67, 64
2, 166844, Note_off_c, 0, 79, 64
2, 166848, Note_on_c, 0, 79, 110
2, 166848, Note_on_c, 0, 67, 110
2, 167228, Note_off_c, 0, 79, 100
2, 167228, Note_off_c, 0, 67, 100
2, 167232, Note_on_c, 0, 79, 110
2, 167420, Note_off_c, 0, 79, 100
2, 167424, Note_on_c, 0, 72, 110
2, 167516, Note_off_c, 0, 72, 100
2, 167520, Note_on_c, 0, 76, 110
2, 167612, Note_off_c, 0, 76, 100
2, 167616, Note_on_c, 0, 79, 110
2, 167708, Note_off_c, 0, 79, 100
2, 167712, Note_on_c, 0, 84, 110
2, 167804, Note_off_c, 0, 84, 100
2, 167808, Note_on_c, 0, 73, 110
2, 167900, Note_off_c, 0, 73, 100
2, 167904, Note_on_c, 0, 82, 110
2, 167996, Note_off_c, 0, 82, 100
2, 168000, Note_on_c, 0, 72, 110
2, 168092, Note_off_c, 0, 72, 100
2, 168096, Note_on_c, 0, 80, 110
2, 168188, Note_off_c, 0, 80, 100
2, 168192, Note_on_c, 0, 70, 110
2, 168284, Note_off_c, 0, 70, 100
2, 168288, Note_on_c, 0, 79, 110
2, 168380, Note_off_c, 0, 79, 100
2, 168384, Note_on_c, 0, 68, 110
2, 168476, Note_off_c, 0, 68, 100
2, 168480, Note_on_c, 0, 77, 110
2, 168572, Note_off_c, 0, 77, 100
2, 168576, Note_on_c, 0, 67, 110
2, 168668, Note_off_c, 0, 67, 100
2, 168672, Note_on_c, 0, 76, 110
2, 168764, Note_off_c, 0, 76, 100
2, 168768, Note_on_c, 0, 76, 110
2, 168860, Note_off_c, 0, 76, 100
2, 168864, Note_on_c, 0, 79, 110
2, 168956, Note_off_c, 0, 79, 100
2, 168960, Note_on_c, 0, 80, 110
2, 169052, Note_off_c, 0, 80, 100
2, 169056, Note_on_c, 0, 77, 110
2, 169148, Note_off_c, 0, 77, 100
2, 169152, Note_on_c, 0, 84, 110
2, 169244, Note_off_c, 0, 84, 100
2, 169248, Note_on_c, 0, 75, 110
2, 169340, Note_off_c, 0, 75, 100
2, 169344, Note_on_c, 0, 77, 110
2, 169436, Note_off_c, 0, 77, 100
2, 169440, Note_on_c, 0, 73, 110
2, 169532, Note_off_c, 0, 73, 100
2, 169536, Note_on_c, 0, 80, 110
2, 169628, Note_off_c, 0, 80, 100
2, 169632, Note_on_c, 0, 72, 110
2, 169724, Note_off_c, 0, 72, 100
2, 169728, Note_on_c, 0, 73, 110
2, 169820, Note_off_c, 0, 73, 100
2, 169824, Note_on_c, 0, 70, 110
2, 169916, Note_off_c, 0, 70, 100
2, 169920, Note_on_c, 0, 77, 110
2, 170012, Note_off_c, 0, 77, 100
2, 170016, Note_on_c, 0, 68, 110
2, 170108, Note_off_c, 0, 68, 100
2, 170112, Note_on_c, 0, 70, 110
2, 170204, Note_off_c, 0, 70, 100
2, 170208, Note_on_c, 0, 66, 110
2, 170300, Note_off_c, 0, 66, 100
2, 170304, Note_on_c, 0, 73, 110
2, 170396, Note_off_c, 0, 73, 100
2, 170400, Note_on_c, 0, 65, 110
2, 170492, Note_off_c, 0, 65, 100
2, 170496, Note_on_c, 0, 66, 110
2, 170588, Note_off_c, 0, 66, 100
2, 170592, Note_on_c, 0, 63, 110
2, 170684, Note_off_c, 0, 63, 100
2, 170688, Note_on_c, 0, 70, 111
2, 170780, Note_off_c, 0, 70, 100
2, 170784, Note_on_c, 0, 58, 111
2, 170876, Note_off_c, 0, 58, 100
2, 170880, Note_on_c, 0, 68, 112
2, 170972, Note_off_c, 0, 68, 100
2, 170976, Note_on_c, 0, 63, 113
2, 171068, Note_off_c, 0, 63, 100
2, 171072, Note_on_c, 0, 60, 113
2, 171164, Note_off_c, 0, 60, 100
2, 171168, Note_on_c, 0, 66, 114
2, 171260, Note_off_c, 0, 66, 100
2, 171264, Note_on_c, 0, 65, 115
2, 171356, Note_off_c, 0, 65, 100
2, 171360, Note_on_c, 0, 61, 115
2, 171452, Note_off_c, 0, 61, 100
2, 171456, Note_on_c, 0, 58, 116
2, 171548, Note_off_c, 0, 58, 100
2, 171552, Note_on_c, 0, 63, 117
2, 171644, Note_off_c, 0, 63, 100
2, 171648, Note_on_c, 0, 61, 117
2, 171740, Note_off_c, 0, 61, 100
2, 171744, Note_on_c, 0, 56, 118
2, 171836, Note_off_c, 0, 56, 100
2, 171840, Note_on_c, 0, 54, 119
2, 171932, Note_off_c, 0, 54, 100
2, 171936, Note_on_c, 0, 60, 119
2, 172028, Note_off_c, 0, 60, 100
2, 172032, Note_on_c, 0, 53, 120
2, 172124, Note_off_c, 0, 53, 100
2, 172128, Note_on_c, 0, 60, 119
2, 172220, Note_off_c, 0, 60, 100
2, 172224, Note_on_c, 0, 53, 118
2, 172316, Note_off_c, 0, 53, 100
2, 172320, Note_on_c, 0, 59, 116
2, 172412, Note_off_c, 0, 59, 100
2, 172416, Note_on_c, 0, 53, 115
2, 172508, Note_off_c, 0, 53, 100
2, 172512, Note_on_c, 0, 59, 113
2, 172604, Note_off_c, 0, 59, 100
2, 172608, Note_on_c, 0, 53, 112
2, 172700, Note_off_c, 0, 53, 100
2, 172704, Note_on_c, 0, 59, 111
2, 172796, Note_off_c, 0, 59, 100
2, 172800, Note_on_c, 0, 53, 80
2, 172892, Note_off_c, 0, 53, 100
2, 172896, Note_on_c, 0, 59, 80
2, 172988, Note_off_c, 0, 59, 100
2, 172992, Note_on_c, 0, 53, 80
2, 173084, Note_off_c, 0, 53, 100
2, 173088, Note_on_c, 0, 59, 80
2, 173180, Note_off_c, 0, 59, 100
2, 173184, Note_on_c, 0, 53, 80
2, 173276, Note_off_c, 0, 53, 100
2, 173280, Note_on_c, 0, 59, 80
2, 173372, Note_off_c, 0, 59, 100
2, 173376, Note_on_c, 0, 53, 80
2, 173468, Note_off_c, 0, 53, 100
2, 173472, Note_on_c, 0, 59, 80
2, 173564, Note_off_c, 0, 59, 100
2, 173568, Note_on_c, 0, 53, 110
2, 173660, Note_off_c, 0, 53, 100
2, 173664, Note_on_c, 0, 58, 110
2, 173756, Note_off_c, 0, 58, 100
2, 173760, Note_on_c, 0, 52, 110
2, 173852, Note_off_c, 0, 52, 100
2, 173856, Note_on_c, 0, 58, 110
2, 173948, Note_off_c, 0, 58, 100
2, 173952, Note_on_c, 0, 52, 110
2, 174044, Note_off_c, 0, 52, 100
2, 174048, Note_on_c, 0, 58, 110
2, 174140, Note_off_c, 0, 58, 100
2, 174144, Note_on_c, 0, 52, 110
2, 174236, Note_off_c, 0, 52, 100
2, 174240, Note_on_c, 0, 58, 110
2, 174332, Note_off_c, 0, 58, 100
2, 174336, Note_on_c, 0, 51, 80
2, 174428, Note_off_c, 0, 51, 100
2, 174432, Note_on_c, 0, 58, 80
2, 174524, Note_off_c, 0, 58, 100
2, 174528, Note_on_c, 0, 51, 80
2, 174620, Note_off_c, 0, 51, 100
2, 174624, Note_on_c, 0, 58, 80
2, 174716, Note_off_c, 0, 58, 100
2, 174720, Note_on_c, 0, 51, 80
2, 174812, Note_off_c, 0, 51, 100
2, 174816, Note_on_c, 0, 58, 80
2, 174908, Note_off_c, 0, 58, 100
2, 174912, Note_on_c, 0, 51, 80
2, 175004, Note_off_c, 0, 51, 100
2, 175008, Note_on_c, 0, 58, 80
2, 175100, Note_off_c, 0, 58, 100
2, 175104, Note_on_c, 0, 51, 80
2, 175196, Note_off_c, 0, 51, 100
2, 175200, Note_on_c, 0, 58, 80
2, 175292, Note_off_c, 0, 58, 100
2, 175296, Note_on_c, 0, 51, 80
2, 175388, Note_off_c, 0, 51, 100
2, 175392, Note_on_c, 0, 57, 80
2, 175484, Note_off_c, 0, 57, 100
2, 175488, Note_on_c, 0, 56, 80
2, 175580, Note_off_c, 0, 56, 100
2, 175584, Note_on_c, 0, 63, 80
2, 175676, Note_off_c, 0, 63, 100
2, 175680, Note_on_c, 0, 56, 80
2, 175772, Note_off_c, 0, 56, 100
2, 175776, Note_on_c, 0, 63, 80
2, 175868, Note_off_c, 0, 63, 100
2, 175872, Note_on_c, 0, 56, 80
2, 175964, Note_off_c, 0, 56, 100
2, 175968, Note_on_c, 0, 63, 80
2, 176060, Note_off_c, 0, 63, 100
2, 176064, Note_on_c, 0, 56, 80
2, 176156, Note_off_c, 0, 56, 100
2, 176160, Note_on_c, 0, 62, 80
2, 176252, Note_off_c, 0, 62, 100
2, 176256, Note_on_c, 0, 49, 80
2, 176348, Note_off_c, 0, 49, 100
2, 176352, Note_on_c, 0, 56, 80
2, 176444, Note_off_c, 0, 56, 100
2, 176448, Note_on_c, 0, 49, 80
2, 176540, Note_off_c, 0, 49, 100
2, 176544, Note_on_c, 0, 56, 80
2, 176636, Note_off_c, 0, 56, 100
2, 176640, Note_on_c, 0, 50, 80
2, 176732, Note_off_c, 0, 50, 100
2, 176736, Note_on_c, 0, 56, 80
2, 176828, Note_off_c, 0, 56, 100
2, 176832, Note_on_c, 0, 50, 80
2, 176924, Note_off_c, 0, 50, 100
2, 176928, Note_on_c, 0, 55, 80
2, 177020, Note_off_c, 0, 55, 100
2, 177024, Note_on_c, 0, 54, 80
2, 177116, Note_off_c, 0, 54, 100
2, 177120, Note_on_c, 0, 62, 80
2, 177212, Note_off_c, 0, 62, 100
2, 177216, Note_on_c, 0, 54, 80
2, 177308, Note_off_c, 0, 54, 100
2, 177312, Note_on_c, 0, 62, 80
2, 177404, Note_off_c, 0, 62, 100
2, 177408, Note_on_c, 0, 54, 80
2, 177500, Note_off_c, 0, 54, 100
2, 177504, Note_on_c, 0, 62, 80
2, 177596, Note_off_c, 0, 62, 100
2, 177600, Note_on_c, 0, 54, 80
2, 177692, Note_off_c, 0, 54, 100
2, 177696, Note_on_c, 0, 60, 80
2, 177788, Note_off_c, 0, 60, 100
2, 177792, Note_on_c, 0, 48, 80
2, 177884, Note_off_c, 0, 48, 100
2, 177888, Note_on_c, 0, 54, 80
2, 177980, Note_off_c, 0, 54, 100
2, 177984, Note_on_c, 0, 48, 80
2, 178076, Note_off_c, 0, 48, 100
2, 178080, Note_on_c, 0, 54, 80
2, 178172, Note_off_c, 0, 54, 100
2, 178176, Note_on_c, 0, 48, 80
2, 178268, Note_off_c, 0, 48, 100
2, 178272, Note_on_c, 0, 54, 80
2, 178364, Note_off_c, 0, 54, 100
2, 178368, Note_on_c, 0, 50, 80
2, 178460, Note_off_c, 0, 50, 100
2, 178464, Note_on_c, 0, 52, 80
2, 178556, Note_off_c, 0, 52, 100
2, 178560, Note_on_c, 0, 52, 110
2, 178652, Note_off_c, 0, 52, 100
2, 178656, Note_on_c, 0, 61, 110
2, 178748, Note_off_c, 0, 61, 100
2, 178752, Note_on_c, 0, 52, 110
2, 178844, Note_off_c, 0, 52, 100
2, 178848, Note_on_c, 0, 61, 110
2, 178940, Note_off_c, 0, 61, 100
2, 178944, Note_on_c, 0, 52, 110
2, 179036, Note_off_c, 0, 52, 100
2, 179040, Note_on_c, 0, 61, 110
2, 179132, Note_off_c, 0, 61, 100
2, 179136, Note_on_c, 0, 52, 110
2, 179228, Note_off_c, 0, 52, 100
2, 179232, Note_on_c, 0, 61, 110
2, 179324, Note_off_c, 0, 61, 100
2, 179328, Note_on_c, 0, 50, 110
2, 179420, Note_off_c, 0, 50, 100
2, 179424, Note_on_c, 0, 55, 110
2, 179516, Note_off_c, 0, 55, 100
2, 179520, Note_on_c, 0, 50, 110
2, 179612, Note_off_c, 0, 50, 100
2, 179616, Note_on_c, 0, 55, 110
2, 179708, Note_off_c, 0, 55, 100
2, 179712, Note_on_c, 0, 48, 110
2, 179712, Note_on_c, 0, 56, 110
2, 179804, Note_off_c, 0, 48, 100
2, 179804, Note_off_c, 0, 56, 100
2, 179808, Note_on_c, 0, 60, 104
2, 179900, Note_off_c, 0, 60, 100
2, 179904, Note_on_c, 0, 63, 97
2, 179996, Note_off_c, 0, 63, 100
2, 180000, Note_on_c, 0, 68, 91
2, 180092, Note_off_c, 0, 68, 100
2, 180096, Note_on_c, 0, 61, 80
2, 180188, Note_off_c, 0, 61, 100
2, 180192, Note_on_c, 0, 67, 80
2, 180284, Note_off_c, 0, 67, 100
2, 180288, Note_on_c, 0, 60, 80
2, 180380, Note_off_c, 0, 60, 100
2, 180384, Note_on_c, 0, 68, 80
2, 180476, Note_off_c, 0, 68, 100
2, 180480, Note_on_c, 0, 56, 80
2, 180572, Note_off_c, 0, 56, 100
2, 180576, Note_on_c, 0, 60, 80
2, 180668, Note_off_c, 0, 60, 100
2, 180672, Note_on_c, 0, 63, 80
2, 180764, Note_off_c, 0, 63, 100
2, 180768, Note_on_c, 0, 68, 80
2, 180860, Note_off_c, 0, 68, 100
2, 180864, Note_on_c, 0, 61, 80
2, 180956, Note_off_c, 0, 61, 100
2, 180960, Note_on_c, 0, 67, 80
2, 181052, Note_off_c, 0, 67, 100
2, 181056, Note_on_c, 0, 60, 80
2, 181148, Note_off_c, 0, 60, 100
2, 181152, Note_on_c, 0, 68, 80
2, 181244, Note_off_c, 0, 68, 100
2, 181248, Note_on_c, 0, 56, 80
2, 181340, Note_off_c, 0, 56, 100
2, 181344, Note_on_c, 0, 60, 80
2, 181436, Note_off_c, 0, 60, 100
2, 181440, Note_on_c, 0, 63, 80
2, 181532, Note_off_c, 0, 63, 100
2, 181536, Note_on_c, 0, 68, 80
2, 181628, Note_off_c, 0, 68, 100
2, 181632, Note_on_c, 0, 61, 80
2, 181724, Note_off_c, 0, 61, 100
2, 181728, Note_on_c, 0, 67, 80
2, 181820, Note_off_c, 0, 67, 100
2, 181824, Note_on_c, 0, 60, 80
2, 181916, Note_off_c, 0, 60, 100
2, 181920, Note_on_c, 0, 68, 80
2, 182012, Note_off_c, 0, 68, 100
2, 182016, Note_on_c, 0, 61, 80
2, 182108, Note_off_c, 0, 61, 100
2, 182112, Note_on_c, 0, 67, 80
2, 182204, Note_off_c, 0, 67, 100
2, 182208, Note_on_c, 0, 60, 80
2, 182300, Note_off_c, 0, 60, 100
2, 182304, Note_on_c, 0, 68, 80
2, 182396, Note_off_c, 0, 68, 100
2, 182400, Note_on_c, 0, 63, 80
2, 182492, Note_off_c, 0, 63, 100
2, 182496, Note_on_c, 0, 68, 80
2, 182588, Note_off_c, 0, 68, 100
2, 182592, Note_on_c, 0, 66, 80
2, 182684, Note_off_c, 0, 66, 100
2, 182688, Note_on_c, 0, 68, 80
2, 182780, Note_off_c, 0, 68, 100
2, 182784, Note_on_c, 0, 61, 80
2, 182876, Note_off_c, 0, 61, 100
2, 182880, Note_on_c, 0, 65, 80
2, 182972, Note_off_c, 0, 65, 100
2, 182976, Note_on_c, 0, 68, 80
2, 183068, Note_off_c, 0, 68, 100
2, 183072, Note_on_c, 0, 73, 80
2, 183164, Note_off_c, 0, 73, 100
2, 183168, Note_on_c, 0, 66, 80
2, 183260, Note_off_c, 0, 66, 100
2, 183264, Note_on_c, 0, 72, 80
2, 183356, Note_off_c, 0, 72, 100
2, 183360, Note_on_c, 0, 65, 80
2, 183452, Note_off_c, 0, 65, 100
2, 183456, Note_on_c, 0, 73, 80
2, 183548, Note_off_c, 0, 73, 100
2, 183552, Note_on_c, 0, 61, 80
2, 183644, Note_off_c, 0, 61, 100
2, 183648, Note_on_c, 0, 65, 80
2, 183740, Note_off_c, 0, 65, 100
2, 183744, Note_on_c, 0, 68, 80
2, 183836, Note_off_c, 0, 68, 100
2, 183840, Note_on_c, 0, 73, 80
2, 183932, Note_off_c, 0, 73, 100
2, 183936, Note_on_c, 0, 66, 80
2, 184028, Note_off_c, 0, 66, 100
2, 184032, Note_on_c, 0, 72, 80
2, 184124, Note_off_c, 0, 72, 100
2, 184128, Note_on_c, 0, 65, 80
2, 184220, Note_off_c, 0, 65, 100
2, 184224, Note_on_c, 0, 73, 80
2, 184316, Note_off_c, 0, 73, 100
2, 184320, Note_on_c, 0, 61, 80
2, 184412, Note_off_c, 0, 61, 100
2, 184416, Note_on_c, 0, 65, 80
2, 184508, Note_off_c, 0, 65, 100
2, 184512, Note_on_c, 0, 68, 80
2, 184604, Note_off_c, 0, 68, 100
2, 184608, Note_on_c, 0, 73, 80
2, 184700, Note_off_c, 0, 73, 100
2, 184704, Note_on_c, 0, 66, 80
2, 184796, Note_off_c, 0, 66, 100
2, 184800, Note_on_c, 0, 72, 80
2, 184892, Note_off_c, 0, 72, 100
2, 184896, Note_on_c, 0, 65, 80
2, 184988, Note_off_c, 0, 65, 100
2, 184992, Note_on_c, 0, 73, 80
2, 185084, Note_off_c, 0, 73, 100
2, 185088, Note_on_c, 0, 66, 80
2, 185180, Note_off_c, 0, 66, 100
2, 185184, Note_on_c, 0, 72, 80
2, 185276, Note_off_c, 0, 72, 100
2, 185280, Note_on_c, 0, 65, 80
2, 185372, Note_off_c, 0, 65, 100
2, 185376, Note_on_c, 0, 73, 80
2, 185468, Note_off_c, 0, 73, 100
2, 185472, Note_on_c, 0, 63, 80
2, 185564, Note_off_c, 0, 63, 100
2, 185568, Note_on_c, 0, 68, 80
2, 185660, Note_off_c, 0, 68, 100
2, 185664, Note_on_c, 0, 63, 80
2, 185756, Note_off_c, 0, 63, 100
2, 185760, Note_on_c, 0, 66, 80
2, 185852, Note_off_c, 0, 66, 100
2, 185856, Note_on_c, 0, 56, 80
2, 185948, Note_off_c, 0, 56, 100
2, 185952, Note_on_c, 0, 60, 80
2, 186044, Note_off_c, 0, 60, 100
2, 186048, Note_on_c, 0, 63, 80
2, 186140, Note_off_c, 0, 63, 100
2, 186144, Note_on_c, 0, 68, 80
2, 186236, Note_off_c, 0, 68, 100
2, 186240, Note_on_c, 0, 61, 80
2, 186332, Note_off_c, 0, 61, 100
2, 186336, Note_on_c, 0, 67, 80
2, 186428, Note_off_c, 0, 67, 100
2, 186432, Note_on_c, 0, 60, 80
2, 186524, Note_off_c, 0, 60, 100
2, 186528, Note_on_c, 0, 68, 80
2, 186620, Note_off_c, 0, 68, 100
2, 186624, Note_on_c, 0, 56, 80
2, 186716, Note_off_c, 0, 56, 100
2, 186720, Note_on_c, 0, 60, 80
2, 186812, Note_off_c, 0, 60, 100
2, 186816, Note_on_c, 0, 63, 80
2, 186908, Note_off_c, 0, 63, 100
2, 186912, Note_on_c, 0, 68, 80
2, 187004, Note_off_c, 0, 68, 100
2, 187008, Note_on_c, 0, 61, 80
2, 187100, Note_off_c, 0, 61, 100
2, 187104, Note_on_c, 0, 67, 80
2, 187196, Note_off_c, 0, 67, 100
2, 187200, Note_on_c, 0, 60, 80
2, 187292, Note_off_c, 0, 60, 100
2, 187296, Note_on_c, 0, 68, 80
2, 187388, Note_off_c, 0, 68, 100
2, 187392, Note_on_c, 0, 56, 80
2, 187484, Note_off_c, 0, 56, 100
2, 187488, Note_on_c, 0, 60, 80
2, 187580, Note_off_c, 0, 60, 100
2, 187584, Note_on_c, 0, 63, 80
2, 187676, Note_off_c, 0, 63, 100
2, 187680, Note_on_c, 0, 68, 80
2, 187772, Note_off_c, 0, 68, 100
2, 187776, Note_on_c, 0, 61, 80
2, 187868, Note_off_c, 0, 61, 100
2, 187872, Note_on_c, 0, 67, 80
2, 187964, Note_off_c, 0, 67, 100
2, 187968, Note_on_c, 0, 60, 80
2, 188060, Note_off_c, 0, 60, 100
2, 188064, Note_on_c, 0, 68, 80
2, 188156, Note_off_c, 0, 68, 100
2, 188160, Note_on_c, 0, 61, 80
2, 188252, Note_off_c, 0, 61, 100
2, 188256, Note_on_c, 0, 67, 80
2, 188348, Note_off_c, 0, 67, 100
2, 188352, Note_on_c, 0, 60, 80
2, 188444, Note_off_c, 0, 60, 100
2, 188448, Note_on_c, 0, 68, 80
2, 188540, Note_off_c, 0, 68, 100
2, 188544, Note_on_c, 0, 63, 80
2, 188636, Note_off_c, 0, 63, 100
2, 188640, Note_on_c, 0, 68, 80
2, 188732, Note_off_c, 0, 68, 100
2, 188736, Note_on_c, 0, 66, 80
2, 188828, Note_off_c, 0, 66, 100
2, 188832, Note_on_c, 0, 68, 80
2, 188924, Note_off_c, 0, 68, 100
2, 188928, Note_on_c, 0, 66, 80
2, 189020, Note_off_c, 0, 66, 100
2, 189024, Note_on_c, 0, 72, 80
2, 189116, Note_off_c, 0, 72, 100
2, 189120, Note_on_c, 0, 65, 80
2, 189212, Note_off_c, 0, 65, 100
2, 189216, Note_on_c, 0, 73, 80
2, 189308, Note_off_c, 0, 73, 100
2, 189312, Note_on_c, 0, 68, 80
2, 189404, Note_off_c, 0, 68, 100
2, 189408, Note_on_c, 0, 73, 80
2, 189500, Note_off_c, 0, 73, 100
2, 189504, Note_on_c, 0, 71, 80
2, 189596, Note_off_c, 0, 71, 100
2, 189600, Note_on_c, 0, 73, 80
2, 189692, Note_off_c, 0, 73, 100
2, 189696, Note_on_c, 0, 71, 80
2, 189788, Note_off_c, 0, 71, 100
2, 189792, Note_on_c, 0, 76, 80
2, 189884, Note_off_c, 0, 76, 100
2, 189888, Note_on_c, 0, 70, 80
2, 189980, Note_off_c, 0, 70, 100
2, 189984, Note_on_c, 0, 76, 80
2, 190076, Note_off_c, 0, 76, 100
2, 190080, Note_on_c, 0, 73, 80
2, 190172, Note_off_c, 0, 73, 100
2, 190176, Note_on_c, 0, 76, 80
2, 190268, Note_off_c, 0, 76, 100
2, 190272, Note_on_c, 0, 66, 80
2, 190364, Note_off_c, 0, 66, 100
2, 190368, Note_on_c, 0, 76, 80
2, 190460, Note_off_c, 0, 76, 100
2, 190464, Note_on_c, 0, 76, 80
2, 190556, Note_off_c, 0, 76, 100
2, 190560, Note_on_c, 0, 81, 80
2, 190652, Note_off_c, 0, 81, 100
2, 190656, Note_on_c, 0, 75, 80
2, 190748, Note_off_c, 0, 75, 100
2, 190752, Note_on_c, 0, 81, 80
2, 190844, Note_off_c, 0, 81, 100
2, 190848, Note_on_c, 0, 78, 80
2, 190940, Note_off_c, 0, 78, 100
2, 190944, Note_on_c, 0, 81, 80
2, 191036, Note_off_c, 0, 81, 100
2, 191040, Note_on_c, 0, 71, 80
2, 191132, Note_off_c, 0, 71, 100
2, 191136, Note_on_c, 0, 81, 80
2, 191228, Note_off_c, 0, 81, 100
2, 191232, Note_on_c, 0, 81, 80
2, 191324, Note_off_c, 0, 81, 100
2, 191328, Note_on_c, 0, 86, 80
2, 191420, Note_off_c, 0, 86, 100
2, 191424, Note_on_c, 0, 80, 80
2, 191516, Note_off_c, 0, 80, 100
2, 191520, Note_on_c, 0, 86, 80
2, 191612, Note_off_c, 0, 86, 100
2, 191616, Note_on_c, 0, 83, 80
2, 191708, Note_off_c, 0, 83, 100
2, 191712, Note_on_c, 0, 86, 80
2, 191804, Note_off_c, 0, 86, 100
2, 191808, Note_on_c, 0, 76, 80
2, 191900, Note_off_c, 0, 76, 100
2, 191904, Note_on_c, 0, 84, 80
2, 191996, Note_off_c, 0, 84, 100
2, 192000, Note_on_c, 0, 74, 80
2, 192092, Note_off_c, 0, 74, 100
2, 192096, Note_on_c, 0, 79, 80
2, 192188, Note_off_c, 0, 79, 100
2, 192192, Note_on_c, 0, 73, 80
2, 192284, Note_off_c, 0, 73, 100
2, 192288, Note_on_c, 0, 79, 80
2, 192380, Note_off_c, 0, 79, 100
2, 192384, Note_on_c, 0, 76, 80
2, 192476, Note_off_c, 0, 76, 100
2, 192480, Note_on_c, 0, 79, 80
2, 192572, Note_off_c, 0, 79, 100
2, 192576, Note_on_c, 0, 69, 80
2, 192668, Note_off_c, 0, 69, 100
2, 192672, Note_on_c, 0, 79, 80
2, 192764, Note_off_c, 0, 79, 100
2, 192768, Note_on_c, 0, 79, 80
2, 192860, Note_off_c, 0, 79, 100
2, 192864, Note_on_c, 0, 84, 80
2, 192956, Note_off_c, 0, 84, 100
2, 192960, Note_on_c, 0, 78, 80
2, 193052, Note_off_c, 0, 78, 100
2, 193056, Note_on_c, 0, 84, 80
2, 193148, Note_off_c, 0, 84, 100
2, 193152, Note_on_c, 0, 81, 80
2, 193244, Note_off_c, 0, 81, 100
2, 193248, Note_on_c, 0, 84, 80
2, 193340, Note_off_c, 0, 84, 100
2, 193344, Note_on_c, 0, 74, 80
2, 193436, Note_off_c, 0, 74, 100
2, 193440, Note_on_c, 0, 84, 80
2, 193532, Note_off_c, 0, 84, 100
2, 193536, Note_on_c, 0, 72, 80
2, 193628, Note_off_c, 0, 72, 100
2, 193632, Note_on_c, 0, 77, 80
2, 193724, Note_off_c, 0, 77, 100
2, 193728, Note_on_c, 0, 71, 80
2, 193820, Note_off_c, 0, 71, 100
2, 193824, Note_on_c, 0, 77, 80
2, 193916, Note_off_c, 0, 77, 100
2, 193920, Note_on_c, 0, 74, 80
2, 194012, Note_off_c, 0, 74, 100
2, 194016, Note_on_c, 0, 77, 80
2, 194108, Note_off_c, 0, 77, 100
2, 194112, Note_on_c, 0, 67, 80
2, 194204, Note_off_c, 0, 67, 100
2, 194208, Note_on_c, 0, 77, 80
2, 194300, Note_off_c, 0, 77, 100
2, 194304, Note_on_c, 0, 77, 80
2, 194396, Note_off_c, 0, 77, 100
2, 194400, Note_on_c, 0, 82, 80
2, 194492, Note_off_c, 0, 82, 100
2, 194496, Note_on_c, 0, 76, 80
2, 194588, Note_off_c, 0, 76, 100
2, 194592, Note_on_c, 0, 82, 80
2, 194684, Note_off_c, 0, 82, 100
2, 194688, Note_on_c, 0, 79, 80
2, 194780, Note_off_c, 0, 79, 100
2, 194784, Note_on_c, 0, 82, 80
2, 194876, Note_off_c, 0, 82, 100
2, 194880, Note_on_c, 0, 73, 80
2, 194972, Note_off_c, 0, 73, 100
2, 194976, Note_on_c, 0, 82, 80
2, 195068, Note_off_c, 0, 82, 100
2, 195072, Note_on_c, 0, 72, 80
2, 195164, Note_off_c, 0, 72, 100
2, 195168, Note_on_c, 0, 81, 81
2, 195260, Note_off_c, 0, 81, 100
2, 195264, Note_on_c, 0, 79, 82
2, 195356, Note_off_c, 0, 79, 100
2, 195360, Note_on_c, 0, 70, 83
2, 195452, Note_off_c, 0, 70, 100
2, 195456, Note_on_c, 0, 69, 85
2, 195548, Note_off_c, 0, 69, 100
2, 195552, Note_on_c, 0, 77, 86
2, 195644, Note_off_c, 0, 77, 100
2, 195648, Note_on_c, 0, 76, 87
2, 195740, Note_off_c, 0, 76, 100
2, 195744, Note_on_c, 0, 67, 89
2, 195836, Note_off_c, 0, 67, 100
2, 195840, Note_on_c, 0, 65, 90
2, 195932, Note_off_c, 0, 65, 100
2, 195936, Note_on_c, 0, 74, 91
2, 196028, Note_off_c, 0, 74, 100
2, 196032, Note_on_c, 0, 72, 93
2, 196124, Note_off_c, 0, 72, 100
2, 196128, Note_on_c, 0, 63, 94
2, 196220, Note_off_c, 0, 63, 100
2, 196224, Note_on_c, 0, 62, 95
2, 196316, Note_off_c, 0, 62, 100
2, 196320, Note_on_c, 0, 70, 96
2, 196412, Note_off_c, 0, 70, 100
2, 196416, Note_on_c, 0, 60, 98
2, 196508, Note_off_c, 0, 60, 100
2, 196512, Note_on_c, 0, 69, 99
2, 196604, Note_off_c, 0, 69, 100
2, 196608, Note_on_c, 0, 62, 100
2, 196700, Note_off_c, 0, 62, 100
2, 196704, Note_on_c, 0, 67, 102
2, 196796, Note_off_c, 0, 67, 100
2, 196800, Note_on_c, 0, 55, 103
2, 196892, Note_off_c, 0, 55, 100
2, 196896, Note_on_c, 0, 65, 104
2, 196988, Note_off_c, 0, 65, 100
2, 196992, Note_on_c, 0, 55, 106
2, 197084, Note_off_c, 0, 55, 100
2, 197088, Note_on_c, 0, 64, 107
2, 197180, Note_off_c, 0, 64, 100
2, 197184, Note_on_c, 0, 53, 108
2, 197276, Note_off_c, 0, 53, 100
2, 197280, Note_on_c, 0, 59, 109
2, 197372, Note_off_c, 0, 59, 100
2, 197376, Note_on_c, 0, 60, 110
2, 197376, Note_on_c, 0, 52, 110
2, 197564, Note_off_c, 0, 60, 100
2, 197564, Note_off_c, 0, 52, 100
2, 197760, Note_on_c, 0, 67, 110
2, 197948, Note_off_c, 0, 67, 100
2, 197952, Note_on_c, 0, 67, 110
2, 198332, Note_off_c, 0, 67, 64
2, 198336, Note_on_c, 0, 67, 110
2, 198716, Note_off_c, 0, 67, 100
2, 198720, Note_on_c, 0, 67, 110
2, 198908, Note_off_c, 0, 67, 100
2, 198912, Note_on_c, 0, 60, 100
2, 199004, Note_off_c, 0, 60, 100
2, 199008, Note_on_c, 0, 64, 94
2, 199100, Note_off_c, 0, 64, 100
2, 199104, Note_on_c, 0, 67, 87
2, 199196, Note_off_c, 0, 67, 100
2, 199200, Note_on_c, 0, 72, 81
2, 199292, Note_off_c, 0, 72, 100
2, 199296, Note_on_c, 0, 62, 80
2, 199388, Note_off_c, 0, 62, 100
2, 199392, Note_on_c, 0, 71, 80
2, 199484, Note_off_c, 0, 71, 100
2, 199488, Note_on_c, 0, 64, 80
2, 199580, Note_off_c, 0, 64, 100
2, 199584, Note_on_c, 0, 72, 80
2, 199676, Note_off_c, 0, 72, 100
2, 199680, Note_on_c, 0, 65, 80
2, 199772, Note_off_c, 0, 65, 100
2, 199776, Note_on_c, 0, 74, 80
2, 199868, Note_off_c, 0, 74, 100
2, 199872, Note_on_c, 0, 67, 80
2, 199964, Note_off_c, 0, 67, 100
2, 199968, Note_on_c, 0, 76, 80
2, 200060, Note_off_c, 0, 76, 100
2, 200064, Note_on_c, 0, 69, 80
2, 200156, Note_off_c, 0, 69, 100
2, 200160, Note_on_c, 0, 77, 80
2, 200252, Note_off_c, 0, 77, 100
2, 200256, Note_on_c, 0, 71, 80
2, 200348, Note_off_c, 0, 71, 100
2, 200352, Note_on_c, 0, 79, 80
2, 200444, Note_off_c, 0, 79, 100
2, 200448, Note_on_c, 0, 76, 110
2, 200540, Note_off_c, 0, 76, 100
2, 200544, Note_on_c, 0, 72, 110
2, 200636, Note_off_c, 0, 72, 100
2, 200640, Note_on_c, 0, 79, 110
2, 201020, Note_off_c, 0, 79, 100
2, 201024, Note_on_c, 0, 79, 110
2, 201404, Note_off_c, 0, 79, 64
2, 201408, Note_on_c, 0, 79, 110
2, 201788, Note_off_c, 0, 79, 100
2, 201792, Note_on_c, 0, 79, 110
2, 201980, Note_off_c, 0, 79, 100
2, 201984, Note_on_c, 0, 67, 100
2, 202076, Note_off_c, 0, 67, 100
2, 202080, Note_on_c, 0, 76, 94
2, 202172, Note_off_c, 0, 76, 100
2, 202176, Note_on_c, 0, 69, 87
2, 202268, Note_off_c, 0, 69, 100
2, 202272, Note_on_c, 0, 77, 81
2, 202364, Note_off_c, 0, 77, 100
2, 202368, Note_on_c, 0, 65, 80
2, 202460, Note_off_c, 0, 65, 100
2, 202464, Note_on_c, 0, 74, 80
2, 202556, Note_off_c, 0, 74, 100
2, 202560, Note_on_c, 0, 67, 80
2, 202652, Note_off_c, 0, 67, 100
2, 202656, Note_on_c, 0, 76, 80
2, 202748, Note_off_c, 0, 76, 100
2, 202752, Note_on_c, 0, 64, 80
2, 202844, Note_off_c, 0, 64, 100
2, 202848, Note_on_c, 0, 72, 80
2, 202940, Note_off_c, 0, 72, 100
2, 203520, Note_on_c, 0, 76, 80
2, 203612, Note_off_c, 0, 76, 100
2, 203616, Note_on_c, 0, 79, 80
2, 203708, Note_off_c, 0, 79, 100
2, 203712, Note_on_c, 0, 77, 80
2, 203804, Note_off_c, 0, 77, 100
2, 203808, Note_on_c, 0, 81, 80
2, 203900, Note_off_c, 0, 81, 100
2, 203904, Note_on_c, 0, 74, 80
2, 203996, Note_off_c, 0, 74, 100
2, 204000, Note_on_c, 0, 77, 80
2, 204092, Note_off_c, 0, 77, 100
2, 204096, Note_on_c, 0, 76, 80
2, 204188, Note_off_c, 0, 76, 100
2, 204192, Note_on_c, 0, 79, 80
2, 204284, Note_off_c, 0, 79, 100
2, 204288, Note_on_c, 0, 72, 80
2, 204380, Note_off_c, 0, 72, 100
2, 204384, Note_on_c, 0, 76, 80
2, 204476, Note_off_c, 0, 76, 100
2, 205056, Note_on_c, 0, 82, 80
2, 205148, Note_off_c, 0, 82, 100
2, 205152, Note_on_c, 0, 79, 80
2, 205244, Note_off_c, 0, 79, 100
2, 205248, Note_on_c, 0, 84, 80
2, 205340, Note_off_c, 0, 84, 100
2, 205344, Note_on_c, 0, 81, 80
2, 205436, Note_off_c, 0, 81, 100
2, 205440, Note_on_c, 0, 81, 80
2, 205532, Note_off_c, 0, 81, 100
2, 205536, Note_on_c, 0, 77, 80
2, 205628, Note_off_c, 0, 77, 100
2, 205632, Note_on_c, 0, 82, 80
2, 205724, Note_off_c, 0, 82, 100
2, 205728, Note_on_c, 0, 79, 80
2, 205820, Note_off_c, 0, 79, 100
2, 205824, Note_on_c, 0, 79, 80
2, 205916, Note_off_c, 0, 79, 100
2, 205920, Note_on_c, 0, 76, 80
2, 206012, Note_off_c, 0, 76, 100
2, 206016, Note_on_c, 0, 81, 80
2, 206108, Note_off_c, 0, 81, 100
2, 206112, Note_on_c, 0, 77, 80
2, 206204, Note_off_c, 0, 77, 100
2, 206208, Note_on_c, 0, 77, 80
2, 206300, Note_off_c, 0, 77, 100
2, 206304, Note_on_c, 0, 74, 80
2, 206396, Note_off_c, 0, 74, 100
2, 206400, Note_on_c, 0, 79, 80
2, 206492, Note_off_c, 0, 79, 100
2, 206496, Note_on_c, 0, 76, 80
2, 206588, Note_off_c, 0, 76, 100
2, 206592, Note_on_c, 0, 76, 80
2, 206684, Note_off_c, 0, 76, 100
2, 206688, Note_on_c, 0, 72, 80
2, 206780, Note_off_c, 0, 72, 100
2, 206784, Note_on_c, 0, 77, 81
2, 206876, Note_off_c, 0, 77, 100
2, 206880, Note_on_c, 0, 74, 82
2, 206972, Note_off_c, 0, 74, 100
2, 206976, Note_on_c, 0, 74, 83
2, 207068, Note_off_c, 0, 74, 100
2, 207072, Note_on_c, 0, 70, 84
2, 207164, Note_off_c, 0, 70, 100
2, 207168, Note_on_c, 0, 76, 85
2, 207260, Note_off_c, 0, 76, 100
2, 207264, Note_on_c, 0, 72, 86
2, 207356, Note_off_c, 0, 72, 100
2, 207360, Note_on_c, 0, 72, 86
2, 207452, Note_off_c, 0, 72, 100
2, 207456, Note_on_c, 0, 69, 87
2, 207548, Note_off_c, 0, 69, 100
2, 207552, Note_on_c, 0, 74, 88
2, 207644, Note_off_c, 0, 74, 100
2, 207648, Note_on_c, 0, 70, 89
2, 207740, Note_off_c, 0, 70, 100
2, 207744, Note_on_c, 0, 70, 90
2, 207836, Note_off_c, 0, 70, 100
2, 207840, Note_on_c, 0, 67, 91
2, 207932, Note_off_c, 0, 67, 100
2, 207936, Note_on_c, 0, 72, 92
2, 208028, Note_off_c, 0, 72, 100
2, 208032, Note_on_c, 0, 69, 93
2, 208124, Note_off_c, 0, 69, 100
2, 208128, Note_on_c, 0, 69, 93
2, 208220, Note_off_c, 0, 69, 100
2, 208224, Note_on_c, 0, 65, 94
2, 208316, Note_off_c, 0, 65, 100
2, 208320, Note_on_c, 0, 70, 95
2, 208412, Note_off_c, 0, 70, 100
2, 208416, Note_on_c, 0, 67, 96
2, 208508, Note_off_c, 0, 67, 100
2, 208512, Note_on_c, 0, 72, 97
2, 208604, Note_off_c, 0, 72, 100
2, 208608, Note_on_c, 0, 69, 98
2, 208700, Note_off_c, 0, 69, 100
2, 208704, Note_on_c, 0, 74, 99
2, 208796, Note_off_c, 0, 74, 100
2, 208800, Note_on_c, 0, 70, 99
2, 208892, Note_off_c, 0, 70, 100
2, 208896, Note_on_c, 0, 72, 100
2, 208988, Note_off_c, 0, 72, 100
2, 208992, Note_on_c, 0, 69, 98
2, 209084, Note_off_c, 0, 69, 100
2, 209088, Note_on_c, 0, 70, 95
2, 209180, Note_off_c, 0, 70, 100
2, 209184, Note_on_c, 0, 67, 92
2, 209276, Note_off_c, 0, 67, 100
2, 209280, Note_on_c, 0, 69, 89
2, 209372, Note_off_c, 0, 69, 100
2, 209376, Note_on_c, 0, 65, 86
2, 209468, Note_off_c, 0, 65, 100
2, 209472, Note_on_c, 0, 67, 83
2, 209564, Note_off_c, 0, 67, 100
2, 209568, Note_on_c, 0, 60, 81
2, 209660, Note_off_c, 0, 60, 100
2, 209664, Note_on_c, 0, 53, 80
2, 209756, Note_off_c, 0, 53, 100
2, 209760, Note_on_c, 0, 57, 80
2, 209852, Note_off_c, 0, 57, 100
2, 209856, Note_on_c, 0, 60, 81
2, 209948, Note_off_c, 0, 60, 100
2, 209952, Note_on_c, 0, 65, 82
2, 210044, Note_off_c, 0, 65, 100
2, 210048, Note_on_c, 0, 55, 83
2, 210140, Note_off_c, 0, 55, 100
2, 210144, Note_on_c, 0, 64, 84
2, 210236, Note_off_c, 0, 64, 100
2, 210240, Note_on_c, 0, 57, 85
2, 210332, Note_off_c, 0, 57, 100
2, 210336, Note_on_c, 0, 65, 86
2, 210428, Note_off_c, 0, 65, 100
2, 210432, Note_on_c, 0, 58, 87
2, 210524, Note_off_c, 0, 58, 100
2, 210528, Note_on_c, 0, 67, 88
2, 210620, Note_off_c, 0, 67, 100
2, 210624, Note_on_c, 0, 60, 89
2, 210716, Note_off_c, 0, 60, 100
2, 210720, Note_on_c, 0, 69, 90
2, 210812, Note_off_c, 0, 69, 100
2, 210816, Note_on_c, 0, 62, 91
2, 210908, Note_off_c, 0, 62, 100
2, 210912, Note_on_c, 0, 70, 92
2, 211004, Note_off_c, 0, 70, 100
2, 211008, Note_on_c, 0, 64, 93
2, 211100, Note_off_c, 0, 64, 100
2, 211104, Note_on_c, 0, 72, 94
2, 211196, Note_off_c, 0, 72, 100
2, 211200, Note_on_c, 0, 65, 95
2, 211292, Note_off_c, 0, 65, 100
2, 211296, Note_on_c, 0, 69, 96
2, 211388, Note_off_c, 0, 69, 100
2, 211392, Note_on_c, 0, 72, 97
2, 211484, Note_off_c, 0, 72, 100
2, 211488, Note_on_c, 0, 77, 98
2, 211580, Note_off_c, 0, 77, 100
2, 211584, Note_on_c, 0, 67, 99
2, 211676, Note_off_c, 0, 67, 100
2, 211680, Note_on_c, 0, 76, 100
2, 211772, Note_off_c, 0, 76, 100
2, 211776, Note_on_c, 0, 69, 101
2, 211868, Note_off_c, 0, 69, 100
2, 211872, Note_on_c, 0, 77, 102
2, 211964, Note_off_c, 0, 77, 100
2, 211968, Note_on_c, 0, 70, 103
2, 212060, Note_off_c, 0, 70, 100
2, 212064, Note_on_c, 0, 79, 104
2, 212156, Note_off_c, 0, 79, 100
2, 212160, Note_on_c, 0, 72, 105
2, 212252, Note_off_c, 0, 72, 100
2, 212256, Note_on_c, 0, 81, 106
2, 212348, Note_off_c, 0, 81, 100
2, 212352, Note_on_c, 0, 74, 107
2, 212444, Note_off_c, 0, 74, 100
2, 212448, Note_on_c, 0, 82, 108
2, 212540, Note_off_c, 0, 82, 100
2, 212544, Note_on_c, 0, 76, 108
2, 212636, Note_off_c, 0, 76, 100
2, 212640, Note_on_c, 0, 84, 109
2, 212732, Note_off_c, 0, 84, 100
2, 212736, Note_on_c, 0, 81, 110
2, 212828, Note_off_c, 0, 81, 100
2, 212832, Note_on_c, 0, 77, 110
2, 212924, Note_off_c, 0, 77, 100
2, 212928, Note_on_c, 0, 84, 110
2, 213020, Note_off_c, 0, 84, 100
2, 213024, Note_on_c, 0, 72, 110
2, 213116, Note_off_c, 0, 72, 100
2, 213120, Note_on_c, 0, 84, 110
2, 213212, Note_off_c, 0, 84, 100
2, 213216, Note_on_c, 0, 72, 110
2, 213308, Note_off_c, 0, 72, 100
2, 213312, Note_on_c, 0, 84, 110
2, 213404, Note_off_c, 0, 84, 100
2, 213408, Note_on_c, 0, 72, 110
2, 213500, Note_off_c, 0, 72, 100
2, 213504, Note_on_c, 0, 84, 110
2, 213596, Note_off_c, 0, 84, 100
2, 213600, Note_on_c, 0, 72, 110
2, 213692, Note_off_c, 0, 72, 100
2, 213696, Note_on_c, 0, 84, 110
2, 213788, Note_off_c, 0, 84, 100
2, 213792, Note_on_c, 0, 72, 110
2, 213884, Note_off_c, 0, 72, 100
2, 213888, Note_on_c, 0, 84, 110
2, 213980, Note_off_c, 0, 84, 100
2, 213984, Note_on_c, 0, 72, 110
2, 214076, Note_off_c, 0, 72, 100
2, 214080, Note_on_c, 0, 84, 110
2, 214172, Note_off_c, 0, 84, 100
2, 214176, Note_on_c, 0, 72, 110
2, 214268, Note_off_c, 0, 72, 100
2, 214272, Note_on_c, 0, 69, 110
2, 214364, Note_off_c, 0, 69, 100
2, 214368, Note_on_c, 0, 72, 110
2, 214460, Note_off_c, 0, 72, 100
2, 214464, Note_on_c, 0, 77, 110
2, 214556, Note_off_c, 0, 77, 100
2, 214560, Note_on_c, 0, 81, 110
2, 214652, Note_off_c, 0, 81, 100
2, 214656, Note_on_c, 0, 72, 110
2, 214748, Note_off_c, 0, 72, 100
2, 214752, Note_on_c, 0, 81, 110
2, 214844, Note_off_c, 0, 81, 100
2, 214848, Note_on_c, 0, 74, 110
2, 214940, Note_off_c, 0, 74, 100
2, 214944, Note_on_c, 0, 82, 110
2, 215036, Note_off_c, 0, 82, 100
2, 215040, Note_on_c, 0, 75, 110
2, 215132, Note_off_c, 0, 75, 100
2, 215136, Note_on_c, 0, 84, 110
2, 215228, Note_off_c, 0, 84, 100
2, 215232, Note_on_c, 0, 77, 110
2, 215324, Note_off_c, 0, 77, 100
2, 215328, Note_on_c, 0, 86, 110
2, 215420, Note_off_c, 0, 86, 100
2, 215424, Note_on_c, 0, 84, 110
2, 215516, Note_off_c, 0, 84, 100
2, 215520, Note_on_c, 0, 87, 110
2, 215612, Note_off_c, 0, 87, 100
2, 215616, Note_on_c, 0, 81, 110
2, 215708, Note_off_c, 0, 81, 100
2, 215712, Note_on_c, 0, 89, 110
2, 215804, Note_off_c, 0, 89, 100
2, 215808, Note_on_c, 0, 86, 100
2, 215900, Note_off_c, 0, 86, 100
2, 215904, Note_on_c, 0, 82, 94
2, 215996, Note_off_c, 0, 82, 100
2, 216000, Note_on_c, 0, 89, 87
2, 216092, Note_off_c, 0, 89, 100
2, 216096, Note_on_c, 0, 81, 81
2, 216188, Note_off_c, 0, 81, 100
2, 216192, Note_on_c, 0, 82, 80
2, 216284, Note_off_c, 0, 82, 100
2, 216288, Note_on_c, 0, 79, 80
2, 216380, Note_off_c, 0, 79, 100
2, 216384, Note_on_c, 0, 86, 80
2, 216476, Note_off_c, 0, 86, 100
2, 216480, Note_on_c, 0, 77, 80
2, 216572, Note_off_c, 0, 77, 100
2, 216576, Note_on_c, 0, 79, 80
2, 216668, Note_off_c, 0, 79, 100
2, 216672, Note_on_c, 0, 75, 80
2, 216764, Note_off_c, 0, 75, 100
2, 216768, Note_on_c, 0, 82, 80
2, 216860, Note_off_c, 0, 82, 100
2, 216864, Note_on_c, 0, 74, 80
2, 216956, Note_off_c, 0, 74, 100
2, 216960, Note_on_c, 0, 75, 80
2, 217052, Note_off_c, 0, 75, 100
2, 217056, Note_on_c, 0, 72, 80
2, 217148, Note_off_c, 0, 72, 100
2, 217152, Note_on_c, 0, 79, 80
2, 217244, Note_off_c, 0, 79, 100
2, 217248, Note_on_c, 0, 70, 80
2, 217340, Note_off_c, 0, 70, 100
2, 217344, Note_on_c, 0, 77, 80
2, 217436, Note_off_c, 0, 77, 100
2, 217440, Note_on_c, 0, 72, 81
2, 217532, Note_off_c, 0, 72, 100
2, 217536, Note_on_c, 0, 69, 83
2, 217628, Note_off_c, 0, 69, 100
2, 217632, Note_on_c, 0, 75, 85
2, 217724, Note_off_c, 0, 75, 100
2, 217728, Note_on_c, 0, 74, 87
2, 217820, Note_off_c, 0, 74, 100
2, 217824, Note_on_c, 0, 70, 89
2, 217916, Note_off_c, 0, 70, 100
2, 217920, Note_on_c, 0, 67, 91
2, 218012, Note_off_c, 0, 67, 100
2, 218016, Note_on_c, 0, 72, 93
2, 218108, Note_off_c, 0, 72, 100
2, 218112, Note_on_c, 0, 65, 95
2, 218112, Note_on_c, 0, 62, 95
2, 218204, Note_off_c, 0, 65, 100
2, 218204, Note_off_c, 0, 62, 100
2, 218208, Note_on_c, 0, 72, 97
2, 218300, Note_off_c, 0, 72, 100
2, 218304, Note_on_c, 0, 65, 99
2, 218304, Note_on_c, 0, 61, 99
2, 218396, Note_off_c, 0, 65, 100
2, 218396, Note_off_c, 0, 61, 100
2, 218400, Note_on_c, 0, 70, 101
2, 218492, Note_off_c, 0, 70, 100
2, 218496, Note_on_c, 0, 63, 103
2, 218496, Note_on_c, 0, 60, 103
2, 218588, Note_off_c, 0, 63, 100
2, 218588, Note_off_c, 0, 60, 100
2, 218592, Note_on_c, 0, 70, 105
2, 218684, Note_off_c, 0, 70, 100
2, 218688, Note_on_c, 0, 63, 107
2, 218688, Note_on_c, 0, 60, 107
2, 218780, Note_off_c, 0, 63, 100
2, 218780, Note_off_c, 0, 60, 100
2, 218784, Note_on_c, 0, 69, 109
2, 218876, Note_off_c, 0, 69, 100
2, 218880, Note_on_c, 0, 73, 80
2, 218972, Note_off_c, 0, 73, 100
2, 218976, Note_on_c, 0, 70, 80
2, 219068, Note_off_c, 0, 70, 100
2, 219072, Note_on_c, 0, 77, 80
2, 219164, Note_off_c, 0, 77, 100
2, 219168, Note_on_c, 0, 68, 80
2, 219260, Note_off_c, 0, 68, 100
2, 219264, Note_on_c, 0, 70, 80
2, 219356, Note_off_c, 0, 70, 100
2, 219360, Note_on_c, 0, 66, 80
2, 219452, Note_off_c, 0, 66, 100
2, 219456, Note_on_c, 0, 73, 80
2, 219548, Note_off_c, 0, 73, 100
2, 219552, Note_on_c, 0, 65, 80
2, 219644, Note_off_c, 0, 65, 100
2, 219648, Note_on_c, 0, 66, 80
2, 219740, Note_off_c, 0, 66, 100
2, 219744, Note_on_c, 0, 63, 80
2, 219836, Note_off_c, 0, 63, 100
2, 219840, Note_on_c, 0, 70, 80
2, 219932, Note_off_c, 0, 70, 100
2, 219936, Note_on_c, 0, 61, 80
2, 220028, Note_off_c, 0, 61, 100
2, 220032, Note_on_c, 0, 68, 80
2, 220124, Note_off_c, 0, 68, 100
2, 220128, Note_on_c, 0, 63, 80
2, 220220, Note_off_c, 0, 63, 100
2, 220224, Note_on_c, 0, 60, 80
2, 220316, Note_off_c, 0, 60, 100
2, 220320, Note_on_c, 0, 66, 80
2, 220412, Note_off_c, 0, 66, 100
2, 220416, Note_on_c, 0, 65, 80
2, 220508, Note_off_c, 0, 65, 100
2, 220512, Note_on_c, 0, 56, 84
2, 220604, Note_off_c, 0, 56, 100
2, 220608, Note_on_c, 0, 54, 88
2, 220608, Note_on_c, 0, 58, 88
2, 220700, Note_off_c, 0, 54, 100
2, 220700, Note_off_c, 0, 58, 100
2, 220704, Note_on_c, 0, 63, 92
2, 220796, Note_off_c, 0, 63, 100
2, 220800, Note_on_c, 0, 56, 97
2, 220800, Note_on_c, 0, 53, 97
2, 220892, Note_off_c, 0, 56, 100
2, 220892, Note_off_c, 0, 53, 100
2, 220896, Note_on_c, 0, 61, 101
2, 220988, Note_off_c, 0, 61, 100
2, 220992, Note_on_c, 0, 54, 105
2, 220992, Note_on_c, 0, 51, 105
2, 221084, Note_off_c, 0, 54, 100
2, 221084, Note_off_c, 0, 51, 100
2, 221088, Note_on_c, 0, 60, 109
2, 221180, Note_off_c, 0, 60, 100
2, 221184, Note_on_c, 0, 53, 110
2, 221276, Note_off_c, 0, 53, 100
2, 221280, Note_on_c, 0, 59, 110
2, 221372, Note_off_c, 0, 59, 100
2, 221376, Note_on_c, 0, 53, 110
2, 221468, Note_off_c, 0, 53, 100
2, 221472, Note_on_c, 0, 55, 110
2, 221564, Note_off_c, 0, 55, 100
2, 221568, Note_on_c, 0, 56, 110
2, 221660, Note_off_c, 0, 56, 100
2, 221664, Note_on_c, 0, 55, 110
2, 221756, Note_off_c, 0, 55, 100
2, 221760, Note_on_c, 0, 56, 110
2, 221852, Note_off_c, 0, 56, 100
2, 221856, Note_on_c, 0, 53, 110
2, 221948, Note_off_c, 0, 53, 100
2, 222048, Note_on_c, 0, 59, 110
2, 222140, Note_off_c, 0, 59, 100
2, 222144, Note_on_c, 0, 53, 110
2, 222236, Note_off_c, 0, 53, 100
2, 222240, Note_on_c, 0, 55, 110
2, 222332, Note_off_c, 0, 55, 100
2, 222336, Note_on_c, 0, 56, 110
2, 222428, Note_off_c, 0, 56, 100
2, 222432, Note_on_c, 0, 55, 110
2, 222524, Note_off_c, 0, 55, 100
2, 222528, Note_on_c, 0, 56, 110
2, 222620, Note_off_c, 0, 56, 100
2, 222624, Note_on_c, 0, 53, 110
2, 222716, Note_off_c, 0, 53, 100
2, 222816, Note_on_c, 0, 60, 110
2, 222908, Note_off_c, 0, 60, 100
2, 222912, Note_on_c, 0, 53, 110
2, 223004, Note_off_c, 0, 53, 100
2, 223008, Note_on_c, 0, 55, 110
2, 223100, Note_off_c, 0, 55, 100
2, 223104, Note_on_c, 0, 56, 110
2, 223196, Note_off_c, 0, 56, 100
2, 223200, Note_on_c, 0, 55, 110
2, 223292, Note_off_c, 0, 55, 100
2, 223296, Note_on_c, 0, 56, 110
2, 223388, Note_off_c, 0, 56, 100
2, 223392, Note_on_c, 0, 53, 110
2, 223484, Note_off_c, 0, 53, 100
2, 223584, Note_on_c, 0, 53, 110
2, 223676, Note_off_c, 0, 53, 100
2, 223680, Note_on_c, 0, 56, 110
2, 223772, Note_off_c, 0, 56, 100
2, 223776, Note_on_c, 0, 62, 110
2, 223868, Note_off_c, 0, 62, 100
2, 223968, Note_on_c, 0, 53, 110
2, 224060, Note_off_c, 0, 53, 100
2, 224064, Note_on_c, 0, 56, 110
2, 224156, Note_off_c, 0, 56, 100
2, 224160, Note_on_c, 0, 62, 110
2, 224252, Note_off_c, 0, 62, 100
2, 224256, Note_on_c, 0, 48, 100
2, 224348, Note_off_c, 0, 48, 100
2, 224352, Note_on_c, 0, 52, 94
2, 224444, Note_off_c, 0, 52, 100
2, 224448, Note_on_c, 0, 55, 87
2, 224540, Note_off_c, 0, 55, 100
2, 224544, Note_on_c, 0, 60, 81
2, 224636, Note_off_c, 0, 60, 100
2, 224640, Note_on_c, 0, 49, 80
2, 224732, Note_off_c, 0, 49, 100
2, 224736, Note_on_c, 0, 59, 80
2, 224828, Note_off_c, 0, 59, 100
2, 224832, Note_on_c, 0, 48, 80
2, 224924, Note_off_c, 0, 48, 100
2, 224928, Note_on_c, 0, 60, 80
2, 225020, Note_off_c, 0, 60, 100
2, 225024, Note_on_c, 0, 60, 80
2, 225116, Note_off_c, 0, 60, 100
2, 225120, Note_on_c, 0, 64, 80
2, 225212, Note_off_c, 0, 64, 100
2, 225216, Note_on_c, 0, 67, 80
2, 225308, Note_off_c, 0, 67, 100
2, 225312, Note_on_c, 0, 72, 80
2, 225404, Note_off_c, 0, 72, 100
2, 225408, Note_on_c, 0, 61, 80
2, 225500, Note_off_c, 0, 61, 100
2, 225504, Note_on_c, 0, 71, 80
2, 225596, Note_off_c, 0, 71, 100
2, 225600, Note_on_c, 0, 60, 80
2, 225692, Note_off_c, 0, 60, 100
2, 225696, Note_on_c, 0, 72, 80
2, 225788, Note_off_c, 0, 72, 100
2, 225792, Note_on_c, 0, 72, 80
2, 225884, Note_off_c, 0, 72, 100
2, 225888, Note_on_c, 0, 76, 80
2, 225980, Note_off_c, 0, 76, 100
2, 225984, Note_on_c, 0, 79, 80
2, 226076, Note_off_c, 0, 79, 100
2, 226080, Note_on_c, 0, 84, 80
2, 226172, Note_off_c, 0, 84, 100
2, 226176, Note_on_c, 0, 73, 80
2, 226268, Note_off_c, 0, 73, 100
2, 226272, Note_on_c, 0, 83, 80
2, 226364, Note_off_c, 0, 83, 100
2, 226368, Note_on_c, 0, 72, 80
2, 226460, Note_off_c, 0, 72, 100
2, 226464, Note_on_c, 0, 84, 80
2, 226556, Note_off_c, 0, 84, 100
2, 226560, Note_on_c, 0, 73, 80
2, 226652, Note_off_c, 0, 73, 100
2, 226656, Note_on_c, 0, 83, 80
2, 226748, Note_off_c, 0, 83, 100
2, 226752, Note_on_c, 0, 72, 80
2, 226844, Note_off_c, 0, 72, 100
2, 226848, Note_on_c, 0, 84, 80
2, 226940, Note_off_c, 0, 84, 100
2, 226944, Note_on_c, 0, 71, 80
2, 227036, Note_off_c, 0, 71, 100
2, 227040, Note_on_c, 0, 81, 80
2, 227132, Note_off_c, 0, 81, 100
2, 227136, Note_on_c, 0, 70, 80
2, 227228, Note_off_c, 0, 70, 100
2, 227232, Note_on_c, 0, 82, 80
2, 227324, Note_off_c, 0, 82, 100
2, 227328, Note_on_c, 0, 46, 80
2, 227420, Note_off_c, 0, 46, 100
2, 227424, Note_on_c, 0, 50, 80
2, 227516, Note_off_c, 0, 50, 100
2, 227520, Note_on_c, 0, 53, 80
2, 227612, Note_off_c, 0, 53, 100
2, 227616, Note_on_c, 0, 58, 80
2, 227708, Note_off_c, 0, 58, 100
2, 227712, Note_on_c, 0, 47, 80
2, 227804, Note_off_c, 0, 47, 100
2, 227808, Note_on_c, 0, 57, 80
2, 227900, Note_off_c, 0, 57, 100
2, 227904, Note_on_c, 0, 46, 80
2, 227996, Note_off_c, 0, 46, 100
2, 228000, Note_on_c, 0, 58, 80
2, 228092, Note_off_c, 0, 58, 100
2, 228096, Note_on_c, 0, 58, 80
2, 228188, Note_off_c, 0, 58, 100
2, 228192, Note_on_c, 0, 62, 80
2, 228284, Note_off_c, 0, 62, 100
2, 228288, Note_on_c, 0, 65, 80
2, 228380, Note_off_c, 0, 65, 100
2, 228384, Note_on_c, 0, 70, 80
2, 228476, Note_off_c, 0, 70, 100
2, 228480, Note_on_c, 0, 59, 80
2, 228572, Note_off_c, 0, 59, 100
2, 228576, Note_on_c, 0, 69, 80
2, 228668, Note_off_c, 0, 69, 100
2, 228672, Note_on_c, 0, 58, 80
2, 228764, Note_off_c, 0, 58, 100
2, 228768, Note_on_c, 0, 70, 80
2, 228860, Note_off_c, 0, 70, 100
2, 228864, Note_on_c, 0, 70, 80
2, 228956, Note_off_c, 0, 70, 100
2, 228960, Note_on_c, 0, 74, 80
2, 229052, Note_off_c, 0, 74, 100
2, 229056, Note_on_c, 0, 77, 80
2, 229148, Note_off_c, 0, 77, 100
2, 229152, Note_on_c, 0, 82, 80
2, 229244, Note_off_c, 0, 82, 100
2, 229248, Note_on_c, 0, 71, 80
2, 229340, Note_off_c, 0, 71, 100
2, 229344, Note_on_c, 0, 81, 80
2, 229436, Note_off_c, 0, 81, 100
2, 229440, Note_on_c, 0, 70, 80
2, 229532, Note_off_c, 0, 70, 100
2, 229536, Note_on_c, 0, 82, 80
2, 229628, Note_off_c, 0, 82, 100
2, 229632, Note_on_c, 0, 71, 80
2, 229724, Note_off_c, 0, 71, 100
2, 229728, Note_on_c, 0, 81, 80
2, 229820, Note_off_c, 0, 81, 100
2, 229824, Note_on_c, 0, 70, 80
2, 229916, Note_off_c, 0, 70, 100
2, 229920, Note_on_c, 0, 82, 80
2, 230012, Note_off_c, 0, 82, 100
2, 230016, Note_on_c, 0, 69, 80
2, 230108, Note_off_c, 0, 69, 100
2, 230112, Note_on_c, 0, 79, 80
2, 230204, Note_off_c, 0, 79, 100
2, 230208, Note_on_c, 0, 68, 80
2, 230300, Note_off_c, 0, 68, 100
2, 230304, Note_on_c, 0, 80, 80
2, 230396, Note_off_c, 0, 80, 100
2, 230400, Note_on_c, 0, 44, 80
2, 230492, Note_off_c, 0, 44, 100
2, 230496, Note_on_c, 0, 48, 80
2, 230588, Note_off_c, 0, 48, 100
2, 230592, Note_on_c, 0, 51, 80
2, 230684, Note_off_c, 0, 51, 100
2, 230688, Note_on_c, 0, 56, 80
2, 230780, Note_off_c, 0, 56, 100
2, 230784, Note_on_c, 0, 45, 80
2, 230876, Note_off_c, 0, 45, 100
2, 230880, Note_on_c, 0, 55, 80
2, 230972, Note_off_c, 0, 55, 100
2, 230976, Note_on_c, 0, 44, 80
2, 231068, Note_off_c, 0, 44, 100
2, 231072, Note_on_c, 0, 56, 80
2, 231164, Note_off_c, 0, 56, 100
2, 231168, Note_on_c, 0, 56, 80
2, 231260, Note_off_c, 0, 56, 100
2, 231264, Note_on_c, 0, 60, 80
2, 231356, Note_off_c, 0, 60, 100
2, 231360, Note_on_c, 0, 63, 80
2, 231452, Note_off_c, 0, 63, 100
2, 231456, Note_on_c, 0, 68, 80
2, 231548, Note_off_c, 0, 68, 100
2, 231552, Note_on_c, 0, 57, 80
2, 231644, Note_off_c, 0, 57, 100
2, 231648, Note_on_c, 0, 67, 80
2, 231740, Note_off_c, 0, 67, 100
2, 231744, Note_on_c, 0, 56, 80
2, 231836, Note_off_c, 0, 56, 100
2, 231840, Note_on_c, 0, 68, 80
2, 231932, Note_off_c, 0, 68, 100
2, 231936, Note_on_c, 0, 68, 80
2, 232028, Note_off_c, 0, 68, 100
2, 232032, Note_on_c, 0, 72, 81
2, 232124, Note_off_c, 0, 72, 100
2, 232128, Note_on_c, 0, 75, 82
2, 232220, Note_off_c, 0, 75, 100
2, 232224, Note_on_c, 0, 80, 83
2, 232316, Note_off_c, 0, 80, 100
2, 232320, Note_on_c, 0, 69, 85
2, 232412, Note_off_c, 0, 69, 100
2, 232416, Note_on_c, 0, 79, 86
2, 232508, Note_off_c, 0, 79, 100
2, 232512, Note_on_c, 0, 68, 87
2, 232604, Note_off_c, 0, 68, 100
2, 232608, Note_on_c, 0, 80, 89
2, 232700, Note_off_c, 0, 80, 100
2, 232704, Note_on_c, 0, 69, 90
2, 232796, Note_off_c, 0, 69, 100
2, 232800, Note_on_c, 0, 79, 91
2, 232892, Note_off_c, 0, 79, 100
2, 232896, Note_on_c, 0, 68, 93
2, 232988, Note_off_c, 0, 68, 100
2, 232992, Note_on_c, 0, 80, 94
2, 233084, Note_off_c, 0, 80, 100
2, 233088, Note_on_c, 0, 68, 95
2, 233180, Note_off_c, 0, 68, 100
2, 233184, Note_on_c, 0, 77, 96
2, 233276, Note_off_c, 0, 77, 100
2, 233280, Note_on_c, 0, 68, 98
2, 233372, Note_off_c, 0, 68, 100
2, 233376, Note_on_c, 0, 77, 99
2, 233468, Note_off_c, 0, 77, 100
2, 233472, Note_on_c, 0, 68, 100
2, 233564, Note_off_c, 0, 68, 100
2, 233568, Note_on_c, 0, 77, 102
2, 233660, Note_off_c, 0, 77, 100
2, 233664, Note_on_c, 0, 66, 103
2, 233756, Note_off_c, 0, 66, 100
2, 233760, Note_on_c, 0, 78, 104
2, 233852, Note_off_c, 0, 78, 100
2, 233856, Note_on_c, 0, 68, 106
2, 233948, Note_off_c, 0, 68, 100
2, 233952, Note_on_c, 0, 77, 107
2, 234044, Note_off_c, 0, 77, 100
2, 234048, Note_on_c, 0, 66, 108
2, 234140, Note_off_c, 0, 66, 100
2, 234144, Note_on_c, 0, 78, 109
2, 234236, Note_off_c, 0, 78, 100
2, 234240, Note_on_c, 0, 68, 110
2, 234332, Note_off_c, 0, 68, 100
2, 234336, Note_on_c, 0, 77, 110
2, 234428, Note_off_c, 0, 77, 100
2, 234432, Note_on_c, 0, 66, 110
2, 234524, Note_off_c, 0, 66, 100
2, 234528, Note_on_c, 0, 78, 110
2, 234620, Note_off_c, 0, 78, 100
2, 234624, Note_on_c, 0, 66, 110
2, 234716, Note_off_c, 0, 66, 100
2, 234720, Note_on_c, 0, 75, 110
2, 234812, Note_off_c, 0, 75, 100
2, 234816, Note_on_c, 0, 66, 110
2, 234908, Note_off_c, 0, 66, 100
2, 234912, Note_on_c, 0, 75, 110
2, 235004, Note_off_c, 0, 75, 100
2, 235008, Note_on_c, 0, 66, 110
2, 235100, Note_off_c, 0, 66, 100
2, 235104, Note_on_c, 0, 75, 110
2, 235196, Note_off_c, 0, 75, 100
2, 235200, Note_on_c, 0, 65, 110
2, 235292, Note_off_c, 0, 65, 100
2, 235296, Note_on_c, 0, 77, 110
2, 235388, Note_off_c, 0, 77, 100
2, 235392, Note_on_c, 0, 65, 110
2, 235484, Note_off_c, 0, 65, 100
2, 235488, Note_on_c, 0, 74, 110
2, 235580, Note_off_c, 0, 74, 100
2, 235584, Note_on_c, 0, 63, 110
2, 235676, Note_off_c, 0, 63, 100
2, 235680, Note_on_c, 0, 75, 110
2, 235772, Note_off_c, 0, 75, 100
2, 235776, Note_on_c, 0, 63, 110
2, 235868, Note_off_c, 0, 63, 100
2, 235872, Note_on_c, 0, 72, 110
2, 235964, Note_off_c, 0, 72, 100
2, 235968, Note_on_c, 0, 61, 110
2, 236060, Note_off_c, 0, 61, 100
2, 236064, Note_on_c, 0, 73, 110
2, 236156, Note_off_c, 0, 73, 100
2, 236160, Note_on_c, 0, 61, 110
2, 236252, Note_off_c, 0, 61, 100
2, 236256, Note_on_c, 0, 70, 110
2, 236348, Note_off_c, 0, 70, 100
2, 236352, Note_on_c, 0, 59, 110
2, 236444, Note_off_c, 0, 59, 100
2, 236448, Note_on_c, 0, 71, 110
2, 236540, Note_off_c, 0, 71, 100
2, 236544, Note_on_c, 0, 60, 110
2, 236636, Note_off_c, 0, 60, 100
2, 236640, Note_on_c, 0, 69, 110
2, 236732, Note_off_c, 0, 69, 100
2, 236736, Note_on_c, 0, 58, 110
2, 236828, Note_off_c, 0, 58, 100
2, 236832, Note_on_c, 0, 70, 110
2, 236924, Note_off_c, 0, 70, 100
2, 236928, Note_on_c, 0, 65, 120
2, 237020, Note_off_c, 0, 65, 100
2, 237024, Note_on_c, 0, 70, 120
2, 237116, Note_off_c, 0, 70, 100
2, 237120, Note_on_c, 0, 65, 120
2, 237212, Note_off_c, 0, 65, 100
2, 237216, Note_on_c, 0, 70, 120
2, 237308, Note_off_c, 0, 70, 100
2, 237312, Note_on_c, 0, 65, 120
2, 237404, Note_off_c, 0, 65, 100
2, 237408, Note_on_c, 0, 71, 120
2, 237500, Note_off_c, 0, 71, 100
2, 237504, Note_on_c, 0, 65, 120
2, 237596, Note_off_c, 0, 65, 100
2, 237600, Note_on_c, 0, 71, 120
2, 237692, Note_off_c, 0, 71, 100
2, 237696, Note_on_c, 0, 59, 120
2, 237788, Note_off_c, 0, 59, 100
2, 237792, Note_on_c, 0, 65, 120
2, 237884, Note_off_c, 0, 65, 100
2, 237888, Note_on_c, 0, 59, 120
2, 237980, Note_off_c, 0, 59, 100
2, 237984, Note_on_c, 0, 65, 120
2, 238076, Note_off_c, 0, 65, 100
2, 238176, Note_on_c, 0, 64, 80
2, 238176, Note_on_c, 0, 58, 80
2, 238176, Note_on_c, 0, 55, 80
2, 238268, Note_off_c, 0, 64, 100
2, 238268, Note_off_c, 0, 58, 100
2, 238268, Note_off_c, 0, 55, 100
2, 238368, Note_on_c, 0, 64, 80
2, 238368, Note_on_c, 0, 58, 80
2, 238368, Note_on_c, 0, 55, 80
2, 238460, Note_off_c, 0, 64, 100
2, 238460, Note_off_c, 0, 58, 100
2, 238460, Note_off_c, 0, 55, 100
2, 238560, Note_on_c, 0, 64, 80
2, 238560, Note_on_c, 0, 58, 80
2, 238560, Note_on_c, 0, 55, 80
2, 238652, Note_off_c, 0, 64, 100
2, 238652, Note_off_c, 0, 58, 100
2, 238652, Note_off_c, 0, 55, 100
2, 238752, Note_on_c, 0, 64, 80
2, 238752, Note_on_c, 0, 58, 80
2, 238752, Note_on_c, 0, 55, 80
2, 238844, Note_off_c, 0, 64, 100
2, 238844, Note_off_c, 0, 58, 100
2, 238844, Note_off_c, 0, 55, 100
2, 238944, Note_on_c, 0, 65, 80
2, 238944, Note_on_c, 0, 57, 80
2, 239036, Note_off_c, 0, 65, 100
2, 239036, Note_off_c, 0, 57, 100
2, 239136, Note_on_c, 0, 65, 80
2, 239136, Note_on_c, 0, 57, 80
2, 239228, Note_off_c, 0, 65, 100
2, 239228, Note_off_c, 0, 57, 100
2, 239328, Note_on_c, 0, 65, 80
2, 239328, Note_on_c, 0, 57, 80
2, 239420, Note_off_c, 0, 65, 100
2, 239420, Note_off_c, 0, 57, 100
2, 239520, Note_on_c, 0, 65, 80
2, 239520, Note_on_c, 0, 57, 80
2, 239612, Note_off_c, 0, 65, 100
2, 239612, Note_off_c, 0, 57, 100
2, 239712, Note_on_c, 0, 67, 80
2, 239712, Note_on_c, 0, 64, 80
2, 239712, Note_on_c, 0, 58, 80
2, 239804, Note_off_c, 0, 67, 100
2, 239804, Note_off_c, 0, 64, 100
2, 239804, Note_off_c, 0, 58, 100
2, 239904, Note_on_c, 0, 67, 80
2, 239904, Note_on_c, 0, 64, 80
2, 239904, Note_on_c, 0, 58, 80
2, 239996, Note_off_c, 0, 67, 100
2, 239996, Note_off_c, 0, 64, 100
2, 239996, Note_off_c, 0, 58, 100
2, 240096, Note_on_c, 0, 67, 80
2, 240096, Note_on_c, 0, 64, 80
2, 240096, Note_on_c, 0, 58, 80
2, 240188, Note_off_c, 0, 67, 100
2, 240188, Note_off_c, 0, 64, 100
2, 240188, Note_off_c, 0, 58, 100
2, 240288, Note_on_c, 0, 67, 80
2, 240288, Note_on_c, 0, 64, 80
2, 240288, Note_on_c, 0, 58, 80
2, 240380, Note_off_c, 0, 67, 100
2, 240380, Note_off_c, 0, 64, 100
2, 240380, Note_off_c, 0, 58, 100
2, 240480, Note_on_c, 0, 65, 80
2, 240480, Note_on_c, 0, 56, 80
2, 240572, Note_off_c, 0, 65, 100
2, 240572, Note_off_c, 0, 56, 100
2, 240672, Note_on_c, 0, 65, 80
2, 240672, Note_on_c, 0, 56, 80
2, 240764, Note_off_c, 0, 65, 100
2, 240764, Note_off_c, 0, 56, 100
2, 240864, Note_on_c, 0, 65, 80
2, 240864, Note_on_c, 0, 56, 80
2, 240956, Note_off_c, 0, 65, 100
2, 240956, Note_off_c, 0, 56, 100
2, 241056, Note_on_c, 0, 65, 80
2, 241056, Note_on_c, 0, 56, 80
2, 241148, Note_off_c, 0, 65, 100
2, 241148, Note_off_c, 0, 56, 100
2, 241248, Note_on_c, 0, 64, 80
2, 241248, Note_on_c, 0, 55, 80
2, 241248, Note_on_c, 0, 58, 80
2, 241340, Note_off_c, 0, 64, 100
2, 241340, Note_off_c, 0, 55, 100
2, 241340, Note_off_c, 0, 58, 100
2, 241440, Note_on_c, 0, 64, 80
2, 241440, Note_on_c, 0, 55, 80
2, 241532, Note_off_c, 0, 64, 100
2, 241532, Note_off_c, 0, 55, 100
2, 241632, Note_on_c, 0, 64, 80
2, 241632, Note_on_c, 0, 55, 80
2, 241724, Note_off_c, 0, 64, 100
2, 241724, Note_off_c, 0, 55, 100
2, 241824, Note_on_c, 0, 64, 80
2, 241824, Note_on_c, 0, 55, 80
2, 241916, Note_off_c, 0, 64, 100
2, 241916, Note_off_c, 0, 55, 100
2, 242016, Note_on_c, 0, 64, 80
2, 242016, Note_on_c, 0, 55, 80
2, 242108, Note_off_c, 0, 64, 100
2, 242108, Note_off_c, 0, 55, 100
2, 242208, Note_on_c, 0, 64, 80
2, 242208, Note_on_c, 0, 55, 80
2, 242300, Note_off_c, 0, 64, 100
2, 242300, Note_off_c, 0, 55, 100
2, 242400, Note_on_c, 0, 64, 80
2, 242400, Note_on_c, 0, 55, 80
2, 242492, Note_off_c, 0, 64, 100
2, 242492, Note_off_c, 0, 55, 100
2, 242592, Note_on_c, 0, 64, 80
2, 242592, Note_on_c, 0, 55, 80
2, 242684, Note_off_c, 0, 64, 100
2, 242684, Note_off_c, 0, 55, 100
2, 242784, Note_on_c, 0, 64, 80
2, 242784, Note_on_c, 0, 55, 80
2, 242876, Note_off_c, 0, 64, 100
2, 242876, Note_off_c, 0, 55, 100
2, 242976, Note_on_c, 0, 64, 80
2, 242976, Note_on_c, 0, 55, 80
2, 243068, Note_off_c, 0, 64, 100
2, 243068, Note_off_c, 0, 55, 100
2, 243168, Note_on_c, 0, 64, 80
2, 243168, Note_on_c, 0, 55, 80
2, 243260, Note_off_c, 0, 64, 100
2, 243260, Note_off_c, 0, 55, 100
2, 243360, Note_on_c, 0, 64, 80
2, 243360, Note_on_c, 0, 55, 80
2, 243452, Note_off_c, 0, 64, 100
2, 243452, Note_off_c, 0, 55, 100
2, 243552, Note_on_c, 0, 64, 80
2, 243552, Note_on_c, 0, 55, 80
2, 243644, Note_off_c, 0, 64, 100
2, 243644, Note_off_c, 0, 55, 100
2, 243744, Note_on_c, 0, 64, 80
2, 243744, Note_on_c, 0, 55, 80
2, 243836, Note_off_c, 0, 64, 100
2, 243836, Note_off_c, 0, 55, 100
2, 243936, Note_on_c, 0, 64, 80
2, 243936, Note_on_c, 0, 55, 80
2, 244028, Note_off_c, 0, 64, 100
2, 244028, Note_off_c, 0, 55, 100
2, 244128, Note_on_c, 0, 64, 80
2, 244128, Note_on_c, 0, 55, 80
2, 244220, Note_off_c, 0, 64, 100
2, 244220, Note_off_c, 0, 55, 100
2, 244224, Note_on_c, 0, 64, 80
2, 244224, Note_on_c, 0, 55, 80
2, 244412, Note_off_c, 0, 64, 100
2, 244412, Note_off_c, 0, 55, 100
2, 244416, Note_on_c, 0, 64, 80
2, 244416, Note_on_c, 0, 55, 80
2, 244604, Note_off_c, 0, 64, 100
2, 244604, Note_off_c, 0, 55, 100
2, 244608, Note_on_c, 0, 64, 80
2, 244608, Note_on_c, 0, 55, 80
2, 244796, Note_off_c, 0, 64, 100
2, 244796, Note_off_c, 0, 55, 100
2, 244800, Note_on_c, 0, 64, 80
2, 244800, Note_on_c, 0, 55, 80
2, 244988, Note_off_c, 0, 64, 100
2, 244988, Note_off_c, 0, 55, 100
2, 244992, Note_on_c, 0, 64, 80
2, 244992, Note_on_c, 0, 55, 80
2, 245180, Note_off_c, 0, 64, 100
2, 245180, Note_off_c, 0, 55, 100
2, 245184, Note_on_c, 0, 64, 80
2, 245184, Note_on_c, 0, 55, 80
2, 245372, Note_off_c, 0, 64, 100
2, 245372, Note_off_c, 0, 55, 100
2, 245376, Note_on_c, 0, 64, 80
2, 245376, Note_on_c, 0, 55, 80
2, 245564, Note_off_c, 0, 64, 100
2, 245564, Note_off_c, 0, 55, 100
2, 245568, Note_on_c, 0, 64, 80
2, 245568, Note_on_c, 0, 55, 80
2, 245756, Note_off_c, 0, 64, 100
2, 245756, Note_off_c, 0, 55, 100
2, 245760, Control_c, 0, 64, 127
2, 245760, Note_on_c, 0, 53, 110
2, 245852, Note_off_c, 0, 53, 100
2, 245856, Note_on_c, 0, 57, 110
2, 245948, Note_off_c, 0, 57, 100
2, 245952, Note_on_c, 0, 60, 110
2, 246044, Note_off_c, 0, 60, 100
2, 246048, Note_on_c, 0, 65, 110
2, 246136, Control_c, 0, 64, 0
2, 246140, Note_off_c, 0, 65, 100
2, 246144, Control_c, 0, 64, 127
2, 246144, Note_on_c, 0, 52, 110
2, 246144, Note_on_c, 0, 55, 110
2, 246236, Note_off_c, 0, 52, 100
2, 246236, Note_off_c, 0, 55, 100
2, 246240, Note_on_c, 0, 64, 110
2, 246332, Note_off_c, 0, 64, 100
2, 246336, Note_on_c, 0, 53, 110
2, 246336, Note_on_c, 0, 57, 110
2, 246428, Note_off_c, 0, 53, 100
2, 246428, Note_off_c, 0, 57, 100
2, 246432, Note_on_c, 0, 65, 110
2, 246520, Control_c, 0, 64, 0
2, 246524, Note_off_c, 0, 65, 100
2, 246528, Control_c, 0, 64, 127
2, 246528, Note_on_c, 0, 55, 110
2, 246528, Note_on_c, 0, 58, 110
2, 246620, Note_off_c, 0, 55, 100
2, 246620, Note_off_c, 0, 58, 100
2, 246624, Note_on_c, 0, 67, 110
2, 246716, Note_off_c, 0, 67, 100
2, 246720, Note_on_c, 0, 57, 110
2, 246720, Note_on_c, 0, 60, 110
2, 246812, Note_off_c, 0, 57, 100
2, 246812, Note_off_c, 0, 60, 100
2, 246816, Note_on_c, 0, 69, 110
2, 246904, Control_c, 0, 64, 0
2, 246908, Note_off_c, 0, 69, 100
2, 246912, Control_c, 0, 64, 127
2, 246912, Note_on_c, 0, 58, 110
2, 246912, Note_on_c, 0, 62, 110
2, 247004, Note_off_c, 0, 58, 100
2, 247004, Note_off_c, 0, 62, 100
2, 247008, Note_on_c, 0, 70, 110
2, 247100, Note_off_c, 0, 70, 100
2, 247104, Note_on_c, 0, 60, 110
2, 247104, Note_on_c, 0, 64, 110
2, 247196, Note_off_c, 0, 60, 100
2, 247196, Note_off_c, 0, 64, 100
2, 247200, Note_on_c, 0, 72, 110
2, 247288, Control_c, 0, 64, 0
2, 247292, Note_off_c, 0, 72, 100
2, 247296, Control_c, 0, 64, 127
2, 247296, Note_on_c, 0, 65, 110
2, 247388, Note_off_c, 0, 65, 100
2, 247392, Note_on_c, 0, 69, 110
2, 247484, Note_off_c, 0, 69, 100
2, 247488, Note_on_c, 0, 72, 110
2, 247580, Note_off_c, 0, 72, 100
2, 247584, Note_on_c, 0, 77, 110
2, 247672, Control_c, 0, 64, 0
2, 247676, Note_off_c, 0, 77, 100
2, 247680, Control_c, 0, 64, 127
2, 247680, Note_on_c, 0, 64, 110
2, 247680, Note_on_c, 0, 67, 110
2, 247772, Note_off_c, 0, 64, 100
2, 247772, Note_off_c, 0, 67, 100
2, 247776, Note_on_c, 0, 76, 110
2, 247868, Note_off_c, 0, 76, 100
2, 247872, Note_on_c, 0, 65, 110
2, 247872, Note_on_c, 0, 69, 110
2, 247964, Note_off_c, 0, 65, 100
2, 247964, Note_off_c, 0, 69, 100
2, 247968, Note_on_c, 0, 77, 110
2, 248056, Control_c, 0, 64, 0
2, 248060, Note_off_c, 0, 77, 100
2, 248064, Control_c, 0, 64, 127
2, 248064, Note_on_c, 0, 67, 110
2, 248064, Note_on_c, 0, 70, 110
2, 248156, Note_off_c, 0, 67, 100
2, 248156, Note_off_c, 0, 70, 100
2, 248160, Note_on_c, 0, 79, 110
2, 248252, Note_off_c, 0, 79, 100
2, 248256, Note_on_c, 0, 69, 110
2, 248256, Note_on_c, 0, 72, 110
2, 248348, Note_off_c, 0, 69, 100
2, 248348, Note_off_c, 0, 72, 100
2, 248352, Note_on_c, 0, 81, 110
2, 248440, Control_c, 0, 64, 0
2, 248444, Note_off_c, 0, 81, 100
2, 248448, Note_on_c, 0, 70, 110
2, 248448, Note_on_c, 0, 74, 110
2, 248540, Note_off_c, 0, 70, 100
2, 248540, Note_off_c, 0, 74, 100
2, 248544, Note_on_c, 0, 82, 110
2, 248636, Note_off_c, 0, 82, 100
2, 248640, Note_on_c, 0, 72, 110
2, 248640, Note_on_c, 0, 76, 110
2, 248732, Note_off_c, 0, 72, 100
2, 248732, Note_off_c, 0, 76, 100
2, 248736, Note_on_c, 0, 84, 110
2, 248828, Note_off_c, 0, 84, 100
2, 248832, Control_c, 0, 64, 127
2, 248832, Note_on_c, 0, 77, 110
2, 248924, Note_off_c, 0, 77, 100
2, 248928, Note_on_c, 0, 81, 110
2, 249020, Note_off_c, 0, 81, 100
2, 249024, Note_on_c, 0, 84, 110
2, 249116, Note_off_c, 0, 84, 100
2, 249120, Note_on_c, 0, 89, 110
2, 249208, Control_c, 0, 64, 0
2, 249212, Note_off_c, 0, 89, 100
2, 249216, Control_c, 0, 64, 127
2, 249216, Note_on_c, 0, 76, 110
2, 249308, Note_off_c, 0, 76, 100
2, 249312, Note_on_c, 0, 88, 110
2, 249404, Note_off_c, 0, 88, 100
2, 249408, Note_on_c, 0, 77, 110
2, 249500, Note_off_c, 0, 77, 100
2, 249504, Note_on_c, 0, 89, 110
2, 249592, Control_c, 0, 64, 0
2, 249596, Note_off_c, 0, 89, 100
2, 249600, Control_c, 0, 64, 127
2, 249600, Note_on_c, 0, 73, 110
2, 249692, Note_off_c, 0, 73, 100
2, 249696, Note_on_c, 0, 85, 110
2, 249788, Note_off_c, 0, 85, 100
2, 249792, Note_on_c, 0, 74, 110
2, 249884, Note_off_c, 0, 74, 100
2, 249888, Note_on_c, 0, 86, 110
2, 249976, Control_c, 0, 64, 0
2, 249980, Note_off_c, 0, 86, 100
2, 249984, Control_c, 0, 64, 127
2, 249984, Note_on_c, 0, 69, 110
2, 250076, Note_off_c, 0, 69, 100
2, 250080, Note_on_c, 0, 81, 110
2, 250172, Note_off_c, 0, 81, 100
2, 250176, Note_on_c, 0, 70, 110
2, 250268, Note_off_c, 0, 70, 100
2, 250272, Note_on_c, 0, 82, 110
2, 250360, Control_c, 0, 64, 0
2, 250364, Note_off_c, 0, 82, 100
2, 250368, Control_c, 0, 64, 127
2, 250368, Note_on_c, 0, 66, 110
2, 250460, Note_off_c, 0, 66, 100
2, 250464, Note_on_c, 0, 78, 110
2, 250556, Note_off_c, 0, 78, 100
2, 250560, Note_on_c, 0, 67, 110
2, 250652, Note_off_c, 0, 67, 100
2, 250656, Note_on_c, 0, 79, 110
2, 250744, Control_c, 0, 64, 0
2, 250748, Note_off_c, 0, 79, 100
2, 250752, Control_c, 0, 64, 127
2, 250752, Note_on_c, 0, 63, 110
2, 250844, Note_off_c, 0, 63, 100
2, 250848, Note_on_c, 0, 75, 110
2, 250940, Note_off_c, 0, 75, 100
2, 250944, Note_on_c, 0, 64, 110
2, 251036, Note_off_c, 0, 64, 100
2, 251040, Note_on_c, 0, 76, 110
2, 251128, Control_c, 0, 64, 0
2, 251132, Note_off_c, 0, 76, 100
2, 251136, Control_c, 0, 64, 127
2, 251136, Note_on_c, 0, 67, 110
2, 251136, Note_on_c, 0, 64, 110
2, 251228, Note_off_c, 0, 67, 100
2, 251228, Note_off_c, 0, 64, 100
2, 251232, Note_on_c, 0, 73, 110
2, 251324, Note_off_c, 0, 73, 100
2, 251328, Note_on_c, 0, 65, 110
2, 251328, Note_on_c, 0, 62, 110
2, 251420, Note_off_c, 0, 65, 100
2, 251420, Note_off_c, 0, 62, 100
2, 251424, Note_on_c, 0, 74, 110
2, 251512, Control_c, 0, 64, 0
2, 251516, Note_off_c, 0, 74, 100
2, 251520, Control_c, 0, 64, 127
2, 251520, Note_on_c, 0, 69, 110
2, 251520, Note_on_c, 0, 65, 110
2, 251612, Note_off_c, 0, 69, 100
2, 251612, Note_off_c, 0, 65, 100
2, 251616, Note_on_c, 0, 72, 110
2, 251708, Note_off_c, 0, 72, 100
2, 251712, Note_on_c, 0, 58, 110
2, 251712, Note_on_c, 0, 55, 110
2, 251804, Note_off_c, 0, 58, 100
2, 251804, Note_off_c, 0, 55, 100
2, 251808, Note_on_c, 0, 64, 110
2, 251896, Control_c, 0, 64, 0
2, 251900, Note_off_c, 0, 64, 100
2, 251904, Control_c, 0, 64, 127
2, 251904, Note_on_c, 0, 53, 110
2, 251996, Note_off_c, 0, 53, 100
2, 252000, Note_on_c, 0, 57, 110
2, 252092, Note_off_c, 0, 57, 100
2, 252096, Note_on_c, 0, 60, 110
2, 252188, Note_off_c, 0, 60, 100
2, 252192, Note_on_c, 0, 65, 110
2, 252280, Control_c, 0, 64, 0
2, 252284, Note_off_c, 0, 65, 100
2, 252288, Control_c, 0, 64, 127
2, 252288, Note_on_c, 0, 52, 110
2, 252288, Note_on_c, 0, 55, 110
2, 252380, Note_off_c, 0, 52, 100
2, 252380, Note_off_c, 0, 55, 100
2, 252384, Note_on_c, 0, 64, 110
2, 252476, Note_off_c, 0, 64, 100
2, 252480, Note_on_c, 0, 53, 110
2, 252480, Note_on_c, 0, 57, 110
2, 252572, Note_off_c, 0, 53, 100
2, 252572, Note_off_c, 0, 57, 100
2, 252576, Note_on_c, 0, 65, 110
2, 252664, Control_c, 0, 64, 0
2, 252668, Note_off_c, 0, 65, 100
2, 252672, Control_c, 0, 64, 127
2, 252672, Note_on_c, 0, 55, 110
2, 252672, Note_on_c, 0, 58, 110
2, 252764, Note_off_c, 0, 55, 100
2, 252764, Note_off_c, 0, 58, 100
2, 252768, Note_on_c, 0, 67, 110
2, 252860, Note_off_c, 0, 67, 100
2, 252864, Note_on_c, 0, 57, 110
2, 252864, Note_on_c, 0, 60, 110
2, 252956, Note_off_c, 0, 57, 100
2, 252956, Note_off_c, 0, 60, 100
2, 252960, Note_on_c, 0, 69, 110
2, 253048, Control_c, 0, 64, 0
2, 253052, Note_off_c, 0, 69, 100
2, 253056, Control_c, 0, 64, 127
2, 253056, Note_on_c, 0, 58, 110
2, 253056, Note_on_c, 0, 62, 110
2, 253148, Note_off_c, 0, 58, 100
2, 253148, Note_off_c, 0, 62, 100
2, 253152, Note_on_c, 0, 70, 110
2, 253244, Note_off_c, 0, 70, 100
2, 253248, Note_on_c, 0, 60, 110
2, 253248, Note_on_c, 0, 64, 110
2, 253340, Note_off_c, 0, 60, 100
2, 253340, Note_off_c, 0, 64, 100
2, 253344, Note_on_c, 0, 72, 110
2, 253432, Control_c, 0, 64, 0
2, 253436, Note_off_c, 0, 72, 100
2, 253440, Control_c, 0, 64, 127
2, 253440, Note_on_c, 0, 65, 110
2, 253532, Note_off_c, 0, 65, 100
2, 253536, Note_on_c, 0, 69, 110
2, 253628, Note_off_c, 0, 69, 100
2, 253632, Note_on_c, 0, 72, 110
2, 253724, Note_off_c, 0, 72, 100
2, 253728, Note_on_c, 0, 77, 110
2, 253816, Control_c, 0, 64, 0
2, 253820, Note_off_c, 0, 77, 100
2, 253824, Control_c, 0, 64, 127
2, 253824, Note_on_c, 0, 64, 110
2, 253824, Note_on_c, 0, 67, 110
2, 253916, Note_off_c, 0, 64, 100
2, 253916, Note_off_c, 0, 67, 100
2, 253920, Note_on_c, 0, 76, 110
2, 254012, Note_off_c, 0, 76, 100
2, 254016, Note_on_c, 0, 65, 110
2, 254016, Note_on_c, 0, 69, 110
2, 254108, Note_off_c, 0, 65, 100
2, 254108, Note_off_c, 0, 69, 100
2, 254112, Note_on_c, 0, 77, 110
2, 254200, Control_c, 0, 64, 0
2, 254204, Note_off_c, 0, 77, 100
2, 254208, Control_c, 0, 64, 127
2, 254208, Note_on_c, 0, 67, 110
2, 254208, Note_on_c, 0, 70, 110
2, 254300, Note_off_c, 0, 67, 100
2, 254300, Note_off_c, 0, 70, 100
2, 254304, Note_on_c, 0, 79, 110
2, 254396, Note_off_c, 0, 79, 100
2, 254400, Note_on_c, 0, 69, 110
2, 254400, Note_on_c, 0, 72, 110
2, 254492, Note_off_c, 0, 69, 100
2, 254492, Note_off_c, 0, 72, 100
2, 254496, Note_on_c, 0, 81, 110
2, 254584, Control_c, 0, 64, 0
2, 254588, Note_off_c, 0, 81, 100
2, 254592, Control_c, 0, 64, 127
2, 254592, Note_on_c, 0, 70, 110
2, 254592, Note_on_c, 0, 74, 110
2, 254684, Note_off_c, 0, 70, 100
2, 254684, Note_off_c, 0, 74, 100
2, 254688, Note_on_c, 0, 82, 110
2, 254780, Note_off_c, 0, 82, 100
2, 254784, Note_on_c, 0, 72, 110
2, 254784, Note_on_c, 0, 76, 110
2, 254876, Note_off_c, 0, 72, 100
2, 254876, Note_off_c, 0, 76, 100
2, 254880, Note_on_c, 0, 84, 110
2, 254968, Control_c, 0, 64, 0
2, 254972, Note_off_c, 0, 84, 100
2, 254976, Control_c, 0, 64, 127
2, 254976, Note_on_c, 0, 77, 110
2, 255068, Note_off_c, 0, 77, 100
2, 255072, Note_on_c, 0, 81, 110
2, 255164, Note_off_c, 0, 81, 100
2, 255168, Note_on_c, 0, 84, 110
2, 255260, Note_off_c, 0, 84, 100
2, 255264, Note_on_c, 0, 89, 110
2, 255352, Control_c, 0, 64, 0
2, 255356, Note_off_c, 0, 89, 100
2, 255360, Control_c, 0, 64, 127
2, 255360, Note_on_c, 0, 76, 110
2, 255452, Note_off_c, 0, 76, 100
2, 255456, Note_on_c, 0, 88, 110
2, 255548, Note_off_c, 0, 88, 100
2, 255552, Note_on_c, 0, 77, 110
2, 255644, Note_off_c, 0, 77, 100
2, 255648, Note_on_c, 0, 89, 110
2, 255736, Control_c, 0, 64, 0
2, 255740, Note_off_c, 0, 89, 100
2, 255744, Control_c, 0, 64, 127
2, 255744, Note_on_c, 0, 73, 110
2, 255836, Note_off_c, 0, 73, 100
2, 255840, Note_on_c, 0, 85, 110
2, 255932, Note_off_c, 0, 85, 100
2, 255936, Note_on_c, 0, 74, 110
2, 256028, Note_off_c, 0, 74, 100
2, 256032, Note_on_c, 0, 86, 110
2, 256120, Control_c, 0, 64, 0
2, 256124, Note_off_c, 0, 86, 100
2, 256128, Control_c, 0, 64, 127
2, 256128, Note_on_c, 0, 69, 110
2, 256220, Note_off_c, 0, 69, 100
2, 256224, Note_on_c, 0, 81, 110
2, 256316, Note_off_c, 0, 81, 100
2, 256320, Note_on_c, 0, 70, 110
2, 256412, Note_off_c, 0, 70, 100
2, 256416, Note_on_c, 0, 82, 110
2, 256504, Control_c, 0, 64, 0
2, 256508, Note_off_c, 0, 82, 100
2, 256512, Control_c, 0, 64, 127
2, 256512, Note_on_c, 0, 66, 110
2, 256604, Note_off_c, 0, 66, 100
2, 256608, Note_on_c, 0, 78, 110
2, 256700, Note_off_c, 0, 78, 100
2, 256704, Note_on_c, 0, 67, 110
2, 256796, Note_off_c, 0, 67, 100
2, 256800, Note_on_c, 0, 79, 110
2, 256888, Control_c, 0, 64, 0
2, 256892, Note_off_c, 0, 79, 100
2, 256896, Control_c, 0, 64, 127
2, 256896, Note_on_c, 0, 63, 110
2, 256988, Note_off_c, 0, 63, 100
2, 256992, Note_on_c, 0, 75, 110
2, 257084, Note_off_c, 0, 75, 100
2, 257088, Note_on_c, 0, 64, 110
2, 257180, Note_off_c, 0, 64, 100
2, 257184, Note_on_c, 0, 76, 110
2, 257272, Control_c, 0, 64, 0
2, 257276, Note_off_c, 0, 76, 100
2, 257280, Control_c, 0, 64, 127
2, 257280, Note_on_c, 0, 67, 110
2, 257280, Note_on_c, 0, 64, 110
2, 257372, Note_off_c, 0, 67, 100
2, 257372, Note_off_c, 0, 64, 100
2, 257376, Note_on_c, 0, 73, 110
2, 257468, Note_off_c, 0, 73, 100
2, 257472, Note_on_c, 0, 65, 110
2, 257472, Note_on_c, 0, 62, 110
2, 257564, Note_off_c, 0, 65, 100
2, 257564, Note_off_c, 0, 62, 100
2, 257568, Note_on_c, 0, 74, 110
2, 257656, Control_c, 0, 64, 0
2, 257660, Note_off_c, 0, 74, 100
2, 257664, Control_c, 0, 64, 127
2, 257664, Note_on_c, 0, 69, 110
2, 257664, Note_on_c, 0, 65, 110
2, 257756, Note_off_c, 0, 69, 100
2, 257756, Note_off_c, 0, 65, 100
2, 257760, Note_on_c, 0, 72, 110
2, 257852, Note_off_c, 0, 72, 100
2, 257856, Note_on_c, 0, 67, 110
2, 257856, Note_on_c, 0, 64, 110
2, 257948, Note_off_c, 0, 67, 100
2, 257948, Note_off_c, 0, 64, 100
2, 257952, Note_on_c, 0, 72, 110
2, 258040, Control_c, 0, 64, 0
2, 258044, Note_off_c, 0, 72, 100
2, 258048, Control_c, 0, 64, 127
2, 258048, Note_on_c, 0, 67, 110
2, 258048, Note_on_c, 0, 64, 110
2, 258140, Note_off_c, 0, 67, 100
2, 258140, Note_off_c, 0, 64, 100
2, 258144, Note_on_c, 0, 73, 110
2, 258236, Note_off_c, 0, 73, 100
2, 258240, Note_on_c, 0, 65, 110
2, 258240, Note_on_c, 0, 62, 110
2, 258332, Note_off_c, 0, 65, 100
2, 258332, Note_off_c, 0, 62, 100
2, 258336, Note_on_c, 0, 74, 110
2, 258424, Control_c, 0, 64, 0
2, 258428, Note_off_c, 0, 74, 100
2, 258432, Control_c, 0, 64, 127
2, 258432, Note_on_c, 0, 69, 110
2, 258432, Note_on_c, 0, 65, 110
2, 258524, Note_off_c, 0, 69, 100
2, 258524, Note_off_c, 0, 65, 100
2, 258528, Note_on_c, 0, 72, 110
2, 258620, Note_off_c, 0, 72, 100
2, 258624, Note_on_c, 0, 67, 110
2, 258624, Note_on_c, 0, 64, 110
2, 258716, Note_off_c, 0, 67, 100
2, 258716, Note_off_c, 0, 64, 100
2, 258720, Note_on_c, 0, 72, 110
2, 258808, Control_c, 0, 64, 0
2, 258812, Note_off_c, 0, 72, 100
2, 258816, Control_c, 0, 64, 127
2, 258816, Note_on_c, 0, 67, 110
2, 258816, Note_on_c, 0, 64, 110
2, 258908, Note_off_c, 0, 67, 100
2, 258908, Note_off_c, 0, 64, 100
2, 258912, Note_on_c, 0, 73, 110
2, 259004, Note_off_c, 0, 73, 100
2, 259008, Note_on_c, 0, 65, 110
2, 259008, Note_on_c, 0, 62, 110
2, 259100, Note_off_c, 0, 65, 100
2, 259100, Note_off_c, 0, 62, 100
2, 259104, Note_on_c, 0, 74, 110
2, 259192, Control_c, 0, 64, 0
2, 259196, Note_off_c, 0, 74, 100
2, 259200, Control_c, 0, 64, 127
2, 259200, Note_on_c, 0, 69, 110
2, 259200, Note_on_c, 0, 65, 110
2, 259292, Note_off_c, 0, 69, 100
2, 259292, Note_off_c, 0, 65, 100
2, 259296, Note_on_c, 0, 72, 110
2, 259388, Note_off_c, 0, 72, 100
2, 259392, Note_on_c, 0, 67, 110
2, 259392, Note_on_c, 0, 64, 110
2, 259484, Note_off_c, 0, 67, 100
2, 259484, Note_off_c, 0, 64, 100
2, 259488, Note_on_c, 0, 72, 110
2, 259576, Control_c, 0, 64, 0
2, 259580, Note_off_c, 0, 72, 100
2, 259584, Note_on_c, 0, 69, 110
2, 259584, Note_on_c, 0, 65, 110
2, 259772, Note_off_c, 0, 69, 100
2, 259772, Note_off_c, 0, 65, 100
2, 259968, Note_on_c, 0, 72, 110
2, 259968, Note_on_c, 0, 60, 110
2, 260156, Note_off_c, 0, 72, 100
2, 260156, Note_off_c, 0, 60, 100
2, 260160, Note_on_c, 0, 72, 110
2, 260160, Note_on_c, 0, 60, 110
2, 260732, Note_off_c, 0, 60, 100
2, 260732, Note_off_c, 0, 72, 100
2, 260736, Note_on_c, 0, 72, 110
2, 260736, Note_on_c, 0, 60, 110
2, 260924, Note_off_c, 0, 72, 100
2, 260924, Note_off_c, 0, 60, 100
2, 260928, Note_on_c, 0, 72, 110
2, 260928, Note_on_c, 0, 60, 110
2, 261312, Note_on_c, 0, 72, 110
2, 261312, Note_on_c, 0, 60, 110
2, 261500, Note_off_c, 0, 60, 100
2, 261500, Note_off_c, 0, 72, 100
2, 261692, Note_off_c, 0, 72, 100
2, 261692, Note_off_c, 0, 60, 100
2, 261696, Note_on_c, 0, 72, 110
2, 261696, Note_on_c, 0, 60, 110
2, 262076, Note_off_c, 0, 60, 100
2, 262076, Note_off_c, 0, 72, 100
2, 262080, Note_on_c, 0, 72, 110
2, 262080, Note_on_c, 0, 60, 110
2, 262460, Note_off_c, 0, 72, 100
2, 262460, Note_off_c, 0, 60, 100
2, 262464, Note_on_c, 0, 72, 110
2, 262464, Note_on_c, 0, 60, 110
2, 262652, Note_off_c, 0, 72, 100
2, 262652, Note_off_c, 0, 60, 100
2, 262656, Control_c, 0, 64, 127
2, 262656, Note_on_c, 0, 65, 110
2, 262748, Note_off_c, 0, 65, 100
2, 262752, Note_on_c, 0, 69, 110
2, 262844, Note_off_c, 0, 69, 100
2, 262848, Note_on_c, 0, 72, 110
2, 262940, Note_off_c, 0, 72, 100
2, 262944, Note_on_c, 0, 77, 110
2, 263032, Control_c, 0, 64, 0
2, 263036, Note_off_c, 0, 77, 100
2, 263040, Control_c, 0, 64, 127
2, 263040, Note_on_c, 0, 68, 110
2, 263132, Note_off_c, 0, 68, 100
2, 263136, Note_on_c, 0, 76, 110
2, 263228, Note_off_c, 0, 76, 100
2, 263232, Note_on_c, 0, 69, 110
2, 263324, Note_off_c, 0, 69, 100
2, 263328, Note_on_c, 0, 77, 110
2, 263416, Control_c, 0, 64, 0
2, 263420, Note_off_c, 0, 77, 100
2, 263424, Control_c, 0, 64, 127
2, 263424, Note_on_c, 0, 69, 110
2, 263516, Note_off_c, 0, 69, 100
2, 263520, Note_on_c, 0, 72, 110
2, 263612, Note_off_c, 0, 72, 100
2, 263616, Note_on_c, 0, 77, 110
2, 263708, Note_off_c, 0, 77, 100
2, 263712, Note_on_c, 0, 81, 110
2, 263800, Control_c, 0, 64, 0
2, 263804, Note_off_c, 0, 81, 100
2, 263808, Control_c, 0, 64, 127
2, 263808, Note_on_c, 0, 71, 110
2, 263900, Note_off_c, 0, 71, 100
2, 263904, Note_on_c, 0, 80, 110
2, 263996, Note_off_c, 0, 80, 100
2, 264000, Note_on_c, 0, 72, 110
2, 264092, Note_off_c, 0, 72, 100
2, 264096, Note_on_c, 0, 81, 110
2, 264184, Control_c, 0, 64, 0
2, 264188, Note_off_c, 0, 81, 100
2, 264192, Control_c, 0, 64, 127
2, 264192, Note_on_c, 0, 72, 110
2, 264284, Note_off_c, 0, 72, 100
2, 264288, Note_on_c, 0, 77, 110
2, 264380, Note_off_c, 0, 77, 100
2, 264384, Note_on_c, 0, 81, 110
2, 264476, Note_off_c, 0, 81, 100
2, 264480, Note_on_c, 0, 84, 110
2, 264568, Control_c, 0, 64, 0
2, 264572, Note_off_c, 0, 84, 100
2, 264576, Control_c, 0, 64, 127
2, 264576, Note_on_c, 0, 80, 120
2, 264668, Note_off_c, 0, 80, 100
2, 264672, Note_on_c, 0, 83, 120
2, 264764, Note_off_c, 0, 83, 100
2, 264768, Note_on_c, 0, 81, 120
2, 264860, Note_off_c, 0, 81, 100
2, 264864, Note_on_c, 0, 84, 120
2, 264952, Control_c, 0, 64, 0
2, 264956, Note_off_c, 0, 84, 100
2, 264960, Control_c, 0, 64, 127
2, 264960, Note_on_c, 0, 80, 120
2, 265052, Note_off_c, 0, 80, 100
2, 265056, Note_on_c, 0, 83, 120
2, 265148, Note_off_c, 0, 83, 100
2, 265152, Note_on_c, 0, 81, 120
2, 265244, Note_off_c, 0, 81, 100
2, 265248, Note_on_c, 0, 84, 120
2, 265336, Control_c, 0, 64, 0
2, 265340, Note_off_c, 0, 84, 100
2, 265344, Control_c, 0, 64, 127
2, 265344, Note_on_c, 0, 80, 120
2, 265436, Note_off_c, 0, 80, 100
2, 265440, Note_on_c, 0, 83, 120
2, 265532, Note_off_c, 0, 83, 100
2, 265536, Note_on_c, 0, 81, 120
2, 265628, Note_off_c, 0, 81, 100
2, 265632, Note_on_c, 0, 84, 120
2, 265720, Control_c, 0, 64, 0
2, 265724, Note_off_c, 0, 84, 100
2, 265728, Note_on_c, 0, 81, 120
2, 265728, Note_on_c, 0, 77, 120
2, 265916, Note_off_c, 0, 81, 100
2, 265916, Note_off_c, 0, 77, 100
2, 266112, Note_on_c, 0, 57, 120
2, 266112, Note_on_c, 0, 53, 120
2, 266492, Note_off_c, 0, 57, 100
2, 266492, Note_off_c, 0, 53, 100
2, 266880, Control_c, 0, 7, 0
2, 267072, Note_on_c, 0, 53, 1
2, 267260, Note_off_c, 0, 53, 100
2, 267260, End_track
3, 0, Start_track
3, 0, Title_t, "Left"
3, 0, Control_c, 1, 0, 0
3, 0, Program_c, 1, 0
3, 0, Control_c, 1, 7, 100
3, 0, Control_c, 1, 10, 59
3, 0, Control_c, 1, 91, 127
3, 0, Key_signature, -1, "major"
3, 0, Note_on_c, 1, 41, 80
3, 92, Note_off_c, 1, 41, 100
3, 96, Note_on_c, 1, 45, 80
3, 188, Note_off_c, 1, 45, 100
3, 192, Note_on_c, 1, 48, 80
3, 284, Note_off_c, 1, 48, 100
3, 288, Note_on_c, 1, 53, 80
3, 380, Note_off_c, 1, 53, 100
3, 384, Note_on_c, 1, 43, 80
3, 476, Note_off_c, 1, 43, 100
3, 480, Note_on_c, 1, 52, 80
3, 572, Note_off_c, 1, 52, 100
3, 576, Note_on_c, 1, 45, 80
3, 668, Note_off_c, 1, 45, 100
3, 672, Note_on_c, 1, 53, 80
3, 764, Note_off_c, 1, 53, 100
3, 768, Note_on_c, 1, 46, 80
3, 860, Note_off_c, 1, 46, 100
3, 864, Note_on_c, 1, 55, 80
3, 956, Note_off_c, 1, 55, 100
3, 960, Note_on_c, 1, 48, 80
3, 1052, Note_off_c, 1, 48, 100
3, 1056, Note_on_c, 1, 57, 80
3, 1148, Note_off_c, 1, 57, 100
3, 1152, Note_on_c, 1, 50, 80
3, 1244, Note_off_c, 1, 50, 100
3, 1248, Note_on_c, 1, 58, 80
3, 1340, Note_off_c, 1, 58, 100
3, 1344, Note_on_c, 1, 52, 80
3, 1436, Note_off_c, 1, 52, 100
3, 1440, Note_on_c, 1, 60, 80
3, 1532, Note_off_c, 1, 60, 100
3, 1536, Note_on_c, 1, 57, 80
3, 1628, Note_off_c, 1, 57, 100
3, 1632, Note_on_c, 1, 53, 101
3, 3068, Note_off_c, 1, 53, 100
3, 3072, Note_on_c, 1, 53, 80
3, 3164, Note_off_c, 1, 53, 100
3, 3168, Note_on_c, 1, 57, 80
3, 3260, Note_off_c, 1, 57, 100
3, 3264, Note_on_c, 1, 60, 80
3, 3356, Note_off_c, 1, 60, 100
3, 3360, Note_on_c, 1, 65, 80
3, 3452, Note_off_c, 1, 65, 100
3, 3456, Note_on_c, 1, 55, 80
3, 3548, Note_off_c, 1, 55, 100
3, 3552, Note_on_c, 1, 64, 80
3, 3644, Note_off_c, 1, 64, 100
3, 3648, Note_on_c, 1, 57, 80
3, 3740, Note_off_c, 1, 57, 100
3, 3744, Note_on_c, 1, 65, 80
3, 3836, Note_off_c, 1, 65, 100
3, 3840, Note_on_c, 1, 58, 80
3, 3932, Note_off_c, 1, 58, 100
3, 3936, Note_on_c, 1, 67, 80
3, 4028, Note_off_c, 1, 67, 100
3, 4032, Note_on_c, 1, 60, 80
3, 4124, Note_off_c, 1, 60, 100
3, 4128, Note_on_c, 1, 69, 80
3, 4220, Note_off_c, 1, 69, 100
3, 4224, Note_on_c, 1, 62, 80
3, 4316, Note_off_c, 1, 62, 100
3, 4320, Note_on_c, 1, 70, 80
3, 4412, Note_off_c, 1, 70, 100
3, 4416, Note_on_c, 1, 64, 80
3, 4508, Note_off_c, 1, 64, 100
3, 4512, Note_on_c, 1, 72, 80
3, 4604, Note_off_c, 1, 72, 100
3, 4608, Note_on_c, 1, 69, 80
3, 4700, Note_off_c, 1, 69, 100
3, 4704, Note_on_c, 1, 65, 100
3, 6140, Note_off_c, 1, 65, 100
3, 6144, Note_on_c, 1, 65, 80
3, 6236, Note_off_c, 1, 65, 100
3, 6240, Note_on_c, 1, 69, 80
3, 6332, Note_off_c, 1, 69, 100
3, 6336, Note_on_c, 1, 60, 80
3, 6428, Note_off_c, 1, 60, 100
3, 6432, Note_on_c, 1, 67, 80
3, 6524, Note_off_c, 1, 67, 100
3, 6528, Note_on_c, 1, 62, 80
3, 6620, Note_off_c, 1, 62, 100
3, 6624, Note_on_c, 1, 65, 80
3, 6716, Note_off_c, 1, 65, 100
3, 6720, Note_on_c, 1, 57, 80
3, 6812, Note_off_c, 1, 57, 100
3, 6816, Note_on_c, 1, 64, 80
3, 6908, Note_off_c, 1, 64, 100
3, 6912, Note_on_c, 1, 58, 80
3, 7004, Note_off_c, 1, 58, 100
3, 7008, Note_on_c, 1, 62, 80
3, 7100, Note_off_c, 1, 62, 100
3, 7104, Note_on_c, 1, 53, 80
3, 7196, Note_off_c, 1, 53, 100
3, 7200, Note_on_c, 1, 60, 80
3, 7292, Note_off_c, 1, 60, 100
3, 7296, Note_on_c, 1, 55, 80
3, 7388, Note_off_c, 1, 55, 100
3, 7392, Note_on_c, 1, 58, 80
3, 7484, Note_off_c, 1, 58, 100
3, 7488, Note_on_c, 1, 50, 80
3, 7580, Note_off_c, 1, 50, 100
3, 7584, Note_on_c, 1, 57, 80
3, 7676, Note_off_c, 1, 57, 100
3, 7680, Note_on_c, 1, 46, 80
3, 7772, Note_off_c, 1, 46, 100
3, 7776, Note_on_c, 1, 55, 80
3, 7868, Note_off_c, 1, 55, 100
3, 7872, Note_on_c, 1, 46, 81
3, 7964, Note_off_c, 1, 46, 100
3, 7968, Note_on_c, 1, 55, 81
3, 8060, Note_off_c, 1, 55, 100
3, 8064, Note_on_c, 1, 46, 82
3, 8156, Note_off_c, 1, 46, 100
3, 8160, Note_on_c, 1, 55, 83
3, 8252, Note_off_c, 1, 55, 100
3, 8256, Note_on_c, 1, 47, 83
3, 8348, Note_off_c, 1, 47, 100
3, 8352, Note_on_c, 1, 55, 84
3, 8444, Note_off_c, 1, 55, 100
3, 8448, Note_on_c, 1, 48, 85
3, 8540, Note_off_c, 1, 48, 100
3, 8544, Note_on_c, 1, 55, 85
3, 8636, Note_off_c, 1, 55, 100
3, 8640, Note_on_c, 1, 41, 86
3, 8732, Note_off_c, 1, 41, 100
3, 8736, Note_on_c, 1, 53, 87
3, 8828, Note_off_c, 1, 53, 100
3, 8832, Note_on_c, 1, 43, 87
3, 8924, Note_off_c, 1, 43, 100
3, 8928, Note_on_c, 1, 52, 88
3, 9020, Note_off_c, 1, 52, 100
3, 9024, Note_on_c, 1, 43, 89
3, 9116, Note_off_c, 1, 43, 100
3, 9120, Note_on_c, 1, 50, 89
3, 9212, Note_off_c, 1, 50, 100
3, 9216, Note_on_c, 1, 36, 80
3, 9308, Note_off_c, 1, 36, 100
3, 9312, Note_on_c, 1, 48, 100
3, 9980, Note_off_c, 1, 48, 100
3, 9984, Note_on_c, 1, 36, 80
3, 10076, Note_off_c, 1, 36, 100
3, 10080, Note_on_c, 1, 48, 101
3, 10748, Note_off_c, 1, 48, 100
3, 10752, Note_on_c, 1, 36, 80
3, 10844, Note_off_c, 1, 36, 100
3, 10848, Note_on_c, 1, 48, 100
3, 11132, Note_off_c, 1, 48, 100
3, 11136, Note_on_c, 1, 36, 83
3, 11228, Note_off_c, 1, 36, 100
3, 11232, Note_on_c, 1, 48, 102
3, 11516, Note_off_c, 1, 48, 100
3, 11520, Note_on_c, 1, 36, 80
3, 11612, Note_off_c, 1, 36, 100
3, 11616, Note_on_c, 1, 48, 101
3, 11900, Note_off_c, 1, 48, 100
3, 11904, Note_on_c, 1, 36, 80
3, 11996, Note_off_c, 1, 36, 100
3, 12000, Note_on_c, 1, 48, 100
3, 12284, Note_off_c, 1, 48, 100
3, 12288, Note_on_c, 1, 36, 80
3, 12764, Note_off_c, 1, 36, 100
3, 12768, Note_on_c, 1, 48, 80
3, 12860, Note_off_c, 1, 48, 100
3, 12864, Note_on_c, 1, 47, 80
3, 12956, Note_off_c, 1, 47, 100
3, 12960, Note_on_c, 1, 45, 80
3, 13052, Note_off_c, 1, 45, 100
3, 13056, Note_on_c, 1, 43, 80
3, 13148, Note_off_c, 1, 43, 100
3, 13152, Note_on_c, 1, 41, 80
3, 13244, Note_off_c, 1, 41, 100
3, 13248, Note_on_c, 1, 40, 80
3, 13340, Note_off_c, 1, 40, 100
3, 13344, Note_on_c, 1, 38, 80
3, 13436, Note_off_c, 1, 38, 100
3, 13440, Note_on_c, 1, 36, 80
3, 13532, Note_off_c, 1, 36, 100
3, 13536, Note_on_c, 1, 48, 80
3, 13628, Note_off_c, 1, 48, 100
3, 13632, Note_on_c, 1, 47, 80
3, 13724, Note_off_c, 1, 47, 100
3, 13728, Note_on_c, 1, 45, 80
3, 13820, Note_off_c, 1, 45, 100
3, 13824, Note_on_c, 1, 43, 80
3, 13916, Note_off_c, 1, 43, 100
3, 13920, Note_on_c, 1, 41, 80
3, 14012, Note_off_c, 1, 41, 100
3, 14016, Note_on_c, 1, 40, 80
3, 14108, Note_off_c, 1, 40, 100
3, 14112, Note_on_c, 1, 38, 80
3, 14204, Note_off_c, 1, 38, 100
3, 14208, Note_on_c, 1, 36, 80
3, 14300, Note_off_c, 1, 36, 100
3, 14304, Note_on_c, 1, 38, 80
3, 14396, Note_off_c, 1, 38, 100
3, 14400, Note_on_c, 1, 40, 80
3, 14492, Note_off_c, 1, 40, 100
3, 14496, Note_on_c, 1, 41, 80
3, 14588, Note_off_c, 1, 41, 100
3, 14592, Note_on_c, 1, 43, 80
3, 14684, Note_off_c, 1, 43, 100
3, 14688, Note_on_c, 1, 45, 80
3, 14780, Note_off_c, 1, 45, 100
3, 14784, Note_on_c, 1, 46, 80
3, 14876, Note_off_c, 1, 46, 100
3, 14880, Note_on_c, 1, 45, 80
3, 14972, Note_off_c, 1, 45, 100
3, 14976, Note_on_c, 1, 48, 80
3, 15068, Note_off_c, 1, 48, 100
3, 15072, Note_on_c, 1, 46, 80
3, 15164, Note_off_c, 1, 46, 100
3, 15168, Note_on_c, 1, 45, 80
3, 15260, Note_off_c, 1, 45, 100
3, 15264, Note_on_c, 1, 43, 80
3, 15356, Note_off_c, 1, 43, 100
3, 15360, Note_on_c, 1, 41, 80
3, 15452, Note_off_c, 1, 41, 100
3, 15456, Note_on_c, 1, 45, 80
3, 15548, Note_off_c, 1, 45, 100
3, 15552, Note_on_c, 1, 48, 80
3, 15644, Note_off_c, 1, 48, 100
3, 15648, Note_on_c, 1, 53, 80
3, 15740, Note_off_c, 1, 53, 100
3, 15744, Note_on_c, 1, 43, 80
3, 15836, Note_off_c, 1, 43, 100
3, 15840, Note_on_c, 1, 52, 80
3, 15932, Note_off_c, 1, 52, 100
3, 15936, Note_on_c, 1, 45, 80
3, 16028, Note_off_c, 1, 45, 100
3, 16032, Note_on_c, 1, 53, 80
3, 16124, Note_off_c, 1, 53, 100
3, 16128, Note_on_c, 1, 46, 80
3, 16220, Note_off_c, 1, 46, 100
3, 16224, Note_on_c, 1, 55, 80
3, 16316, Note_off_c, 1, 55, 100
3, 16320, Note_on_c, 1, 48, 80
3, 16412, Note_off_c, 1, 48, 100
3, 16416, Note_on_c, 1, 57, 80
3, 16508, Note_off_c, 1, 57, 100
3, 16512, Note_on_c, 1, 50, 80
3, 16604, Note_off_c, 1, 50, 100
3, 16608, Note_on_c, 1, 58, 80
3, 16700, Note_off_c, 1, 58, 100
3, 16704, Note_on_c, 1, 52, 80
3, 16796, Note_off_c, 1, 52, 100
3, 16800, Note_on_c, 1, 60, 80
3, 16892, Note_off_c, 1, 60, 100
3, 16896, Note_on_c, 1, 57, 80
3, 16988, Note_off_c, 1, 57, 100
3, 16992, Note_on_c, 1, 53, 101
3, 18428, Note_off_c, 1, 53, 100
3, 18432, Note_on_c, 1, 53, 80
3, 18524, Note_off_c, 1, 53, 100
3, 18528, Note_on_c, 1, 57, 80
3, 18620, Note_off_c, 1, 57, 100
3, 18624, Note_on_c, 1, 60, 80
3, 18716, Note_off_c, 1, 60, 100
3, 18720, Note_on_c, 1, 65, 80
3, 18812, Note_off_c, 1, 65, 100
3, 18816, Note_on_c, 1, 55, 80
3, 18908, Note_off_c, 1, 55, 100
3, 18912, Note_on_c, 1, 64, 80
3, 19004, Note_off_c, 1, 64, 100
3, 19008, Note_on_c, 1, 57, 80
3, 19100, Note_off_c, 1, 57, 100
3, 19104, Note_on_c, 1, 65, 80
3, 19196, Note_off_c, 1, 65, 100
3, 19200, Note_on_c, 1, 58, 80
3, 19292, Note_off_c, 1, 58, 100
3, 19296, Note_on_c, 1, 67, 80
3, 19388, Note_off_c, 1, 67, 100
3, 19392, Note_on_c, 1, 60, 80
3, 19484, Note_off_c, 1, 60, 100
3, 19488, Note_on_c, 1, 69, 80
3, 19580, Note_off_c, 1, 69, 100
3, 19584, Note_on_c, 1, 62, 80
3, 19676, Note_off_c, 1, 62, 100
3, 19680, Note_on_c, 1, 70, 80
3, 19772, Note_off_c, 1, 70, 100
3, 19776, Note_on_c, 1, 64, 80
3, 19868, Note_off_c, 1, 64, 100
3, 19872, Note_on_c, 1, 72, 80
3, 19964, Note_off_c, 1, 72, 100
3, 19968, Note_on_c, 1, 69, 80
3, 20060, Note_off_c, 1, 69, 100
3, 20064, Note_on_c, 1, 65, 102
3, 21500, Note_off_c, 1, 65, 100
3, 21504, Note_on_c, 1, 65, 80
3, 21596, Note_off_c, 1, 65, 100
3, 21600, Note_on_c, 1, 69, 80
3, 21692, Note_off_c, 1, 69, 100
3, 21696, Note_on_c, 1, 60, 80
3, 21788, Note_off_c, 1, 60, 100
3, 21792, Note_on_c, 1, 67, 80
3, 21884, Note_off_c, 1, 67, 100
3, 21888, Note_on_c, 1, 62, 80
3, 21980, Note_off_c, 1, 62, 100
3, 21984, Note_on_c, 1, 65, 80
3, 22076, Note_off_c, 1, 65, 100
3, 22080, Note_on_c, 1, 57, 80
3, 22172, Note_off_c, 1, 57, 100
3, 22176, Note_on_c, 1, 64, 80
3, 22268, Note_off_c, 1, 64, 100
3, 22272, Note_on_c, 1, 58, 80
3, 22364, Note_off_c, 1, 58, 100
3, 22368, Note_on_c, 1, 62, 80
3, 22460, Note_off_c, 1, 62, 100
3, 22464, Note_on_c, 1, 53, 80
3, 22556, Note_off_c, 1, 53, 100
3, 22560, Note_on_c, 1, 60, 80
3, 22652, Note_off_c, 1, 60, 100
3, 22656, Note_on_c, 1, 55, 80
3, 22748, Note_off_c, 1, 55, 100
3, 22752, Note_on_c, 1, 58, 80
3, 22844, Note_off_c, 1, 58, 100
3, 22848, Note_on_c, 1, 50, 80
3, 22940, Note_off_c, 1, 50, 100
3, 22944, Note_on_c, 1, 57, 80
3, 23036, Note_off_c, 1, 57, 100
3, 23040, Note_on_c, 1, 46, 80
3, 23132, Note_off_c, 1, 46, 100
3, 23136, Note_on_c, 1, 55, 80
3, 23228, Note_off_c, 1, 55, 100
3, 23232, Note_on_c, 1, 46, 80
3, 23324, Note_off_c, 1, 46, 100
3, 23328, Note_on_c, 1, 55, 80
3, 23420, Note_off_c, 1, 55, 100
3, 23424, Note_on_c, 1, 46, 80
3, 23516, Note_off_c, 1, 46, 100
3, 23520, Note_on_c, 1, 55, 80
3, 23612, Note_off_c, 1, 55, 100
3, 23616, Note_on_c, 1, 47, 80
3, 23708, Note_off_c, 1, 47, 100
3, 23712, Note_on_c, 1, 55, 80
3, 23804, Note_off_c, 1, 55, 100
3, 23808, Note_on_c, 1, 48, 80
3, 23900, Note_off_c, 1, 48, 100
3, 23904, Note_on_c, 1, 55, 80
3, 23996, Note_off_c, 1, 55, 100
3, 24000, Note_on_c, 1, 41, 80
3, 24092, Note_off_c, 1, 41, 100
3, 24096, Note_on_c, 1, 53, 80
3, 24188, Note_off_c, 1, 53, 100
3, 24192, Note_on_c, 1, 43, 80
3, 24284, Note_off_c, 1, 43, 100
3, 24288, Note_on_c, 1, 52, 80
3, 24380, Note_off_c, 1, 52, 100
3, 24384, Note_on_c, 1, 43, 80
3, 24476, Note_off_c, 1, 43, 100
3, 24480, Note_on_c, 1, 50, 80
3, 24572, Note_off_c, 1, 50, 100
3, 24576, Note_on_c, 1, 36, 80
3, 24668, Note_off_c, 1, 36, 100
3, 24672, Note_on_c, 1, 48, 95
3, 25340, Note_off_c, 1, 48, 100
3, 25344, Note_on_c, 1, 36, 80
3, 25436, Note_off_c, 1, 36, 100
3, 25440, Note_on_c, 1, 48, 95
3, 26108, Note_off_c, 1, 48, 100
3, 26112, Note_on_c, 1, 36, 80
3, 26204, Note_off_c, 1, 36, 100
3, 26208, Note_on_c, 1, 48, 90
3, 26492, Note_off_c, 1, 48, 100
3, 26496, Note_on_c, 1, 36, 85
3, 26588, Note_off_c, 1, 36, 100
3, 26592, Note_on_c, 1, 48, 98
3, 26876, Note_off_c, 1, 48, 100
3, 26880, Note_on_c, 1, 36, 90
3, 26972, Note_off_c, 1, 36, 100
3, 26976, Note_on_c, 1, 48, 103
3, 27260, Note_off_c, 1, 48, 100
3, 27264, Note_on_c, 1, 36, 95
3, 27356, Note_off_c, 1, 36, 100
3, 27360, Note_on_c, 1, 48, 110
3, 27644, Note_off_c, 1, 48, 100
3, 27648, Note_on_c, 1, 36, 80
3, 28124, Note_off_c, 1, 36, 100
3, 28128, Note_on_c, 1, 48, 80
3, 28220, Note_off_c, 1, 48, 100
3, 28224, Note_on_c, 1, 47, 80
3, 28316, Note_off_c, 1, 47, 100
3, 28320, Note_on_c, 1, 45, 80
3, 28412, Note_off_c, 1, 45, 100
3, 28416, Note_on_c, 1, 43, 80
3, 28508, Note_off_c, 1, 43, 100
3, 28512, Note_on_c, 1, 41, 80
3, 28604, Note_off_c, 1, 41, 100
3, 28608, Note_on_c, 1, 40, 80
3, 28700, Note_off_c, 1, 40, 100
3, 28704, Note_on_c, 1, 38, 80
3, 28796, Note_off_c, 1, 38, 100
3, 28800, Note_on_c, 1, 36, 80
3, 28892, Note_off_c, 1, 36, 100
3, 28896, Note_on_c, 1, 48, 80
3, 28988, Note_off_c, 1, 48, 100
3, 28992, Note_on_c, 1, 47, 80
3, 29084, Note_off_c, 1, 47, 100
3, 29088, Note_on_c, 1, 45, 80
3, 29180, Note_off_c, 1, 45, 100
3, 29184, Note_on_c, 1, 43, 80
3, 29276, Note_off_c, 1, 43, 100
3, 29280, Note_on_c, 1, 41, 80
3, 29372, Note_off_c, 1, 41, 100
3, 29376, Note_on_c, 1, 40, 80
3, 29468, Note_off_c, 1, 40, 100
3, 29472, Note_on_c, 1, 38, 80
3, 29564, Note_off_c, 1, 38, 100
3, 29568, Note_on_c, 1, 36, 80
3, 29660, Note_off_c, 1, 36, 100
3, 29664, Note_on_c, 1, 38, 80
3, 29756, Note_off_c, 1, 38, 100
3, 29760, Note_on_c, 1, 40, 80
3, 29852, Note_off_c, 1, 40, 100
3, 29856, Note_on_c, 1, 41, 80
3, 29948, Note_off_c, 1, 41, 100
3, 29952, Note_on_c, 1, 43, 80
3, 30044, Note_off_c, 1, 43, 100
3, 30048, Note_on_c, 1, 45, 80
3, 30140, Note_off_c, 1, 45, 100
3, 30144, Note_on_c, 1, 46, 80
3, 30236, Note_off_c, 1, 46, 100
3, 30240, Note_on_c, 1, 45, 80
3, 30332, Note_off_c, 1, 45, 100
3, 30336, Note_on_c, 1, 46, 80
3, 30384, Note_on_c, 1, 48, 80
3, 30400, Note_off_c, 1, 46, 100
3, 30432, Note_on_c, 1, 46, 80
3, 30460, Note_off_c, 1, 48, 100
3, 30480, Note_on_c, 1, 48, 80
3, 30504, Note_off_c, 1, 46, 100
3, 30528, Note_on_c, 1, 46, 80
3, 30552, Note_off_c, 1, 48, 100
3, 30576, Note_on_c, 1, 48, 80
3, 30600, Note_off_c, 1, 46, 100
3, 30624, Note_on_c, 1, 45, 80
3, 30656, Note_off_c, 1, 48, 100
3, 30672, Note_on_c, 1, 46, 80
3, 30704, Note_off_c, 1, 45, 100
3, 30716, Note_off_c, 1, 46, 100
3, 30720, Note_on_c, 1, 45, 80
3, 30812, Note_off_c, 1, 45, 100
3, 30816, Note_on_c, 1, 49, 80
3, 30908, Note_off_c, 1, 49, 100
3, 30912, Note_on_c, 1, 52, 80
3, 31004, Note_off_c, 1, 52, 100
3, 31008, Note_on_c, 1, 57, 80
3, 31100, Note_off_c, 1, 57, 100
3, 31104, Note_on_c, 1, 47, 80
3, 31196, Note_off_c, 1, 47, 100
3, 31200, Note_on_c, 1, 56, 80
3, 31292, Note_off_c, 1, 56, 100
3, 31296, Note_on_c, 1, 49, 80
3, 31388, Note_off_c, 1, 49, 100
3, 31392, Note_on_c, 1, 57, 80
3, 31484, Note_off_c, 1, 57, 100
3, 31488, Note_on_c, 1, 50, 80
3, 31580, Note_off_c, 1, 50, 100
3, 31584, Note_on_c, 1, 59, 80
3, 31676, Note_off_c, 1, 59, 100
3, 31680, Note_on_c, 1, 52, 80
3, 31772, Note_off_c, 1, 52, 100
3, 31776, Note_on_c, 1, 61, 80
3, 31868, Note_off_c, 1, 61, 100
3, 31872, Note_on_c, 1, 54, 80
3, 31964, Note_off_c, 1, 54, 100
3, 31968, Note_on_c, 1, 62, 80
3, 32060, Note_off_c, 1, 62, 100
3, 32064, Note_on_c, 1, 56, 80
3, 32156, Note_off_c, 1, 56, 100
3, 32160, Note_on_c, 1, 64, 80
3, 32252, Note_off_c, 1, 64, 100
3, 32256, Note_on_c, 1, 61, 80
3, 32348, Note_off_c, 1, 61, 100
3, 32352, Note_on_c, 1, 57, 103
3, 33788, Note_off_c, 1, 57, 100
3, 33792, Note_on_c, 1, 57, 80
3, 33884, Note_off_c, 1, 57, 100
3, 33888, Note_on_c, 1, 61, 80
3, 33980, Note_off_c, 1, 61, 100
3, 33984, Note_on_c, 1, 64, 80
3, 34076, Note_off_c, 1, 64, 100
3, 34080, Note_on_c, 1, 69, 80
3, 34172, Note_off_c, 1, 69, 100
3, 34176, Note_on_c, 1, 59, 80
3, 34268, Note_off_c, 1, 59, 100
3, 34272, Note_on_c, 1, 68, 80
3, 34364, Note_off_c, 1, 68, 100
3, 34368, Note_on_c, 1, 61, 80
3, 34460, Note_off_c, 1, 61, 100
3, 34464, Note_on_c, 1, 69, 80
3, 34556, Note_off_c, 1, 69, 100
3, 34560, Note_on_c, 1, 62, 80
3, 34652, Note_off_c, 1, 62, 100
3, 34656, Note_on_c, 1, 71, 80
3, 34748, Note_off_c, 1, 71, 100
3, 34752, Note_on_c, 1, 64, 80
3, 34844, Note_off_c, 1, 64, 100
3, 34848, Note_on_c, 1, 73, 80
3, 34940, Note_off_c, 1, 73, 100
3, 34944, Note_on_c, 1, 66, 80
3, 35036, Note_off_c, 1, 66, 100
3, 35040, Note_on_c, 1, 74, 80
3, 35132, Note_off_c, 1, 74, 100
3, 35136, Note_on_c, 1, 68, 80
3, 35228, Note_off_c, 1, 68, 100
3, 35232, Note_on_c, 1, 76, 80
3, 35324, Note_off_c, 1, 76, 100
3, 35328, Note_on_c, 1, 73, 80
3, 35420, Note_off_c, 1, 73, 100
3, 35424, Note_on_c, 1, 69, 80
3, 36284, Note_off_c, 1, 69, 100
3, 36288, Note_on_c, 1, 79, 80
3, 36476, Note_off_c, 1, 79, 100
3, 36480, Note_on_c, 1, 77, 80
3, 36668, Note_off_c, 1, 77, 100
3, 36672, Note_on_c, 1, 73, 80
3, 36860, Note_off_c, 1, 73, 100
3, 36864, Note_on_c, 1, 74, 80
3, 36956, Note_off_c, 1, 74, 100
3, 36960, Note_on_c, 1, 77, 80
3, 37052, Note_off_c, 1, 77, 100
3, 37056, Note_on_c, 1, 69, 80
3, 37148, Note_off_c, 1, 69, 100
3, 37152, Note_on_c, 1, 76, 80
3, 37244, Note_off_c, 1, 76, 100
3, 37248, Note_on_c, 1, 70, 80
3, 37340, Note_off_c, 1, 70, 100
3, 37344, Note_on_c, 1, 74, 80
3, 37436, Note_off_c, 1, 74, 100
3, 37440, Note_on_c, 1, 65, 80
3, 37532, Note_off_c, 1, 65, 100
3, 37536, Note_on_c, 1, 72, 80
3, 37628, Note_off_c, 1, 72, 100
3, 37632, Note_on_c, 1, 67, 80
3, 37724, Note_off_c, 1, 67, 100
3, 37728, Note_on_c, 1, 70, 80
3, 37820, Note_off_c, 1, 70, 100
3, 37824, Note_on_c, 1, 62, 80
3, 37916, Note_off_c, 1, 62, 100
3, 37920, Note_on_c, 1, 69, 80
3, 38012, Note_off_c, 1, 69, 100
3, 38016, Note_on_c, 1, 63, 80
3, 38108, Note_off_c, 1, 63, 100
3, 38112, Note_on_c, 1, 67, 80
3, 38204, Note_off_c, 1, 67, 100
3, 38208, Note_on_c, 1, 62, 80
3, 38300, Note_off_c, 1, 62, 100
3, 38304, Note_on_c, 1, 65, 80
3, 38396, Note_off_c, 1, 65, 100
3, 38400, Note_on_c, 1, 61, 80
3, 38492, Note_off_c, 1, 61, 100
3, 38496, Note_on_c, 1, 64, 80
3, 38588, Note_off_c, 1, 64, 100
3, 38592, Note_on_c, 1, 57, 80
3, 38684, Note_off_c, 1, 57, 100
3, 38688, Note_on_c, 1, 64, 80
3, 38780, Note_off_c, 1, 64, 100
3, 38784, Note_on_c, 1, 58, 80
3, 38876, Note_off_c, 1, 58, 100
3, 38880, Note_on_c, 1, 62, 80
3, 38972, Note_off_c, 1, 62, 100
3, 38976, Note_on_c, 1, 55, 80
3, 39068, Note_off_c, 1, 55, 100
3, 39072, Note_on_c, 1, 67, 80
3, 39164, Note_off_c, 1, 67, 100
3, 39168, Note_on_c, 1, 57, 80
3, 39260, Note_off_c, 1, 57, 100
3, 39264, Note_on_c, 1, 65, 80
3, 39356, Note_off_c, 1, 65, 100
3, 39360, Note_on_c, 1, 57, 80
3, 39452, Note_off_c, 1, 57, 100
3, 39456, Note_on_c, 1, 65, 80
3, 39548, Note_off_c, 1, 65, 100
3, 39552, Note_on_c, 1, 57, 80
3, 39644, Note_off_c, 1, 57, 100
3, 39648, Note_on_c, 1, 64, 80
3, 39740, Note_off_c, 1, 64, 100
3, 39744, Note_on_c, 1, 57, 80
3, 39836, Note_off_c, 1, 57, 100
3, 39840, Note_on_c, 1, 64, 80
3, 39932, Note_off_c, 1, 64, 100
3, 39936, Note_on_c, 1, 62, 80
3, 40028, Note_off_c, 1, 62, 100
3, 40032, Note_on_c, 1, 65, 80
3, 40124, Note_off_c, 1, 65, 100
3, 40128, Note_on_c, 1, 57, 80
3, 40220, Note_off_c, 1, 57, 100
3, 40224, Note_on_c, 1, 64, 80
3, 40316, Note_off_c, 1, 64, 100
3, 40320, Note_on_c, 1, 58, 80
3, 40412, Note_off_c, 1, 58, 100
3, 40416, Note_on_c, 1, 62, 80
3, 40508, Note_off_c, 1, 62, 100
3, 40512, Note_on_c, 1, 53, 80
3, 40604, Note_off_c, 1, 53, 100
3, 40608, Note_on_c, 1, 60, 80
3, 40700, Note_off_c, 1, 60, 100
3, 40704, Note_on_c, 1, 55, 80
3, 40796, Note_off_c, 1, 55, 100
3, 40800, Note_on_c, 1, 58, 80
3, 40892, Note_off_c, 1, 58, 100
3, 40896, Note_on_c, 1, 50, 80
3, 40988, Note_off_c, 1, 50, 100
3, 40992, Note_on_c, 1, 57, 80
3, 41084, Note_off_c, 1, 57, 100
3, 41088, Note_on_c, 1, 51, 80
3, 41180, Note_off_c, 1, 51, 100
3, 41184, Note_on_c, 1, 55, 80
3, 41276, Note_off_c, 1, 55, 100
3, 41280, Note_on_c, 1, 50, 80
3, 41372, Note_off_c, 1, 50, 100
3, 41376, Note_on_c, 1, 53, 80
3, 41468, Note_off_c, 1, 53, 100
3, 41472, Note_on_c, 1, 49, 80
3, 41564, Note_off_c, 1, 49, 100
3, 41568, Note_on_c, 1, 52, 81
3, 41660, Note_off_c, 1, 52, 100
3, 41664, Note_on_c, 1, 45, 82
3, 41756, Note_off_c, 1, 45, 100
3, 41760, Note_on_c, 1, 52, 83
3, 41852, Note_off_c, 1, 52, 100
3, 41856, Note_on_c, 1, 46, 85
3, 41948, Note_off_c, 1, 46, 100
3, 41952, Note_on_c, 1, 50, 86
3, 42044, Note_off_c, 1, 50, 100
3, 42048, Note_on_c, 1, 43, 87
3, 42140, Note_off_c, 1, 43, 100
3, 42144, Note_on_c, 1, 55, 89
3, 42236, Note_off_c, 1, 55, 100
3, 42240, Note_on_c, 1, 45, 90
3, 42332, Note_off_c, 1, 45, 100
3, 42336, Note_on_c, 1, 53, 91
3, 42428, Note_off_c, 1, 53, 100
3, 42432, Note_on_c, 1, 45, 93
3, 42524, Note_off_c, 1, 45, 100
3, 42528, Note_on_c, 1, 53, 94
3, 42620, Note_off_c, 1, 53, 100
3, 42624, Note_on_c, 1, 45, 95
3, 42716, Note_off_c, 1, 45, 100
3, 42720, Note_on_c, 1, 52, 97
3, 42812, Note_off_c, 1, 52, 100
3, 42816, Note_on_c, 1, 45, 98
3, 42908, Note_off_c, 1, 45, 100
3, 42912, Note_on_c, 1, 52, 99
3, 43004, Note_off_c, 1, 52, 100
3, 43008, Note_on_c, 1, 44, 110
3, 43008, Note_on_c, 1, 32, 110
3, 43772, Note_off_c, 1, 44, 100
3, 43772, Note_off_c, 1, 32, 100
3, 43776, Note_on_c, 1, 43, 110
3, 43776, Note_on_c, 1, 31, 110
3, 44540, Note_off_c, 1, 43, 100
3, 44540, Note_off_c, 1, 31, 100
3, 44544, Note_on_c, 1, 42, 110
3, 44544, Note_on_c, 1, 30, 110
3, 45308, Note_off_c, 1, 42, 100
3, 45308, Note_off_c, 1, 30, 100
3, 45312, Note_on_c, 1, 41, 110
3, 45312, Note_on_c, 1, 29, 110
3, 46076, Note_off_c, 1, 41, 100
3, 46076, Note_off_c, 1, 29, 100
3, 46080, Note_on_c, 1, 40, 110
3, 46080, Note_on_c, 1, 28, 110
3, 46844, Note_off_c, 1, 40, 100
3, 46844, Note_off_c, 1, 28, 100
3, 46848, Note_on_c, 1, 39, 110
3, 46848, Note_on_c, 1, 27, 110
3, 47612, Note_off_c, 1, 39, 100
3, 47612, Note_off_c, 1, 27, 100
3, 47616, Note_on_c, 1, 38, 110
3, 47616, Note_on_c, 1, 26, 110
3, 48380, Note_off_c, 1, 38, 100
3, 48380, Note_off_c, 1, 26, 100
3, 48384, Note_on_c, 1, 50, 110
3, 48384, Note_on_c, 1, 38, 110
3, 49148, Note_off_c, 1, 50, 100
3, 49148, Note_off_c, 1, 38, 100
3, 49152, Note_on_c, 1, 31, 110
3, 49244, Note_off_c, 1, 31, 100
3, 49248, Note_on_c, 1, 35, 110
3, 49340, Note_off_c, 1, 35, 100
3, 49344, Note_on_c, 1, 38, 110
3, 49436, Note_off_c, 1, 38, 100
3, 49440, Note_on_c, 1, 43, 110
3, 49532, Note_off_c, 1, 43, 100
3, 49536, Note_on_c, 1, 33, 110
3, 49628, Note_off_c, 1, 33, 100
3, 49632, Note_on_c, 1, 42, 110
3, 49724, Note_off_c, 1, 42, 100
3, 49728, Note_on_c, 1, 35, 110
3, 49820, Note_off_c, 1, 35, 100
3, 49824, Note_on_c, 1, 43, 110
3, 49916, Note_off_c, 1, 43, 100
3, 49920, Note_on_c, 1, 36, 110
3, 50012, Note_off_c, 1, 36, 100
3, 50016, Note_on_c, 1, 45, 110
3, 50108, Note_off_c, 1, 45, 100
3, 50112, Note_on_c, 1, 38, 110
3, 50204, Note_off_c, 1, 38, 100
3, 50208, Note_on_c, 1, 47, 110
3, 50300, Note_off_c, 1, 47, 100
3, 50304, Note_on_c, 1, 40, 110
3, 50396, Note_off_c, 1, 40, 100
3, 50400, Note_on_c, 1, 48, 110
3, 50492, Note_off_c, 1, 48, 100
3, 50496, Note_on_c, 1, 42, 110
3, 50588, Note_off_c, 1, 42, 100
3, 50592, Note_on_c, 1, 50, 110
3, 50684, Note_off_c, 1, 50, 100
3, 50688, Note_on_c, 1, 46, 80
3, 50780, Note_off_c, 1, 46, 100
3, 50784, Note_on_c, 1, 43, 80
3, 51068, Note_off_c, 1, 43, 100
3, 51072, Note_on_c, 1, 50, 80
3, 51260, Note_off_c, 1, 50, 100
3, 51264, Note_on_c, 1, 50, 80
3, 51644, Note_off_c, 1, 50, 100
3, 51648, Note_on_c, 1, 50, 80
3, 52028, Note_off_c, 1, 50, 100
3, 52032, Note_on_c, 1, 50, 80
3, 52220, Note_off_c, 1, 50, 100
3, 52224, Note_on_c, 1, 43, 110
3, 52316, Note_off_c, 1, 43, 100
3, 52320, Note_on_c, 1, 47, 110
3, 52412, Note_off_c, 1, 47, 100
3, 52416, Note_on_c, 1, 50, 110
3, 52508, Note_off_c, 1, 50, 100
3, 52512, Note_on_c, 1, 55, 110
3, 52604, Note_off_c, 1, 55, 100
3, 52608, Note_on_c, 1, 45, 110
3, 52700, Note_off_c, 1, 45, 100
3, 52704, Note_on_c, 1, 54, 110
3, 52796, Note_off_c, 1, 54, 100
3, 52800, Note_on_c, 1, 47, 110
3, 52892, Note_off_c, 1, 47, 100
3, 52896, Note_on_c, 1, 55, 110
3, 52988, Note_off_c, 1, 55, 100
3, 52992, Note_on_c, 1, 48, 110
3, 53084, Note_off_c, 1, 48, 100
3, 53088, Note_on_c, 1, 57, 110
3, 53180, Note_off_c, 1, 57, 100
3, 53184, Note_on_c, 1, 50, 110
3, 53276, Note_off_c, 1, 50, 100
3, 53280, Note_on_c, 1, 59, 110
3, 53372, Note_off_c, 1, 59, 100
3, 53376, Note_on_c, 1, 52, 110
3, 53468, Note_off_c, 1, 52, 100
3, 53472, Note_on_c, 1, 60, 110
3, 53564, Note_off_c, 1, 60, 100
3, 53568, Note_on_c, 1, 54, 110
3, 53660, Note_off_c, 1, 54, 100
3, 53664, Note_on_c, 1, 62, 110
3, 53756, Note_off_c, 1, 62, 100
3, 53760, Note_on_c, 1, 59, 80
3, 53852, Note_off_c, 1, 59, 100
3, 53856, Note_on_c, 1, 55, 80
3, 54332, Note_off_c, 1, 55, 100
3, 54336, Note_on_c, 1, 55, 80
3, 54716, Note_off_c, 1, 55, 100
3, 54720, Note_on_c, 1, 55, 80
3, 55100, Note_off_c, 1, 55, 100
3, 55104, Note_on_c, 1, 55, 80
3, 55292, Note_off_c, 1, 55, 100
3, 55296, Note_on_c, 1, 36, 110
3, 55388, Note_off_c, 1, 36, 100
3, 55392, Note_on_c, 1, 39, 110
3, 55484, Note_off_c, 1, 39, 100
3, 55488, Note_on_c, 1, 43, 110
3, 55580, Note_off_c, 1, 43, 100
3, 55584, Note_on_c, 1, 48, 110
3, 55676, Note_off_c, 1, 48, 100
3, 55680, Note_on_c, 1, 38, 110
3, 55772, Note_off_c, 1, 38, 100
3, 55776, Note_on_c, 1, 47, 110
3, 55868, Note_off_c, 1, 47, 100
3, 55872, Note_on_c, 1, 39, 110
3, 55964, Note_off_c, 1, 39, 100
3, 55968, Note_on_c, 1, 48, 110
3, 56060, Note_off_c, 1, 48, 100
3, 56064, Note_on_c, 1, 41, 110
3, 56156, Note_off_c, 1, 41, 100
3, 56160, Note_on_c, 1, 50, 110
3, 56252, Note_off_c, 1, 50, 100
3, 56256, Note_on_c, 1, 43, 110
3, 56348, Note_off_c, 1, 43, 100
3, 56352, Note_on_c, 1, 51, 110
3, 56444, Note_off_c, 1, 51, 100
3, 56448, Note_on_c, 1, 45, 110
3, 56540, Note_off_c, 1, 45, 100
3, 56544, Note_on_c, 1, 53, 110
3, 56636, Note_off_c, 1, 53, 100
3, 56640, Note_on_c, 1, 47, 110
3, 56732, Note_off_c, 1, 47, 100
3, 56736, Note_on_c, 1, 55, 110
3, 56828, Note_off_c, 1, 55, 100
3, 56832, Note_on_c, 1, 51, 100
3, 56924, Note_off_c, 1, 51, 100
3, 56928, Note_on_c, 1, 48, 94
3, 57212, Note_off_c, 1, 48, 100
3, 57216, Note_on_c, 1, 55, 80
3, 57404, Note_off_c, 1, 55, 100
3, 57408, Note_on_c, 1, 55, 80
3, 57788, Note_off_c, 1, 55, 100
3, 57792, Note_on_c, 1, 55, 80
3, 58172, Note_off_c, 1, 55, 100
3, 58176, Note_on_c, 1, 55, 80
3, 58364, Note_off_c, 1, 55, 100
3, 58368, Note_on_c, 1, 48, 110
3, 58460, Note_off_c, 1, 48, 100
3, 58464, Note_on_c, 1, 51, 110
3, 58556, Note_off_c, 1, 51, 100
3, 58560, Note_on_c, 1, 55, 110
3, 58652, Note_off_c, 1, 55, 100
3, 58656, Note_on_c, 1, 60, 110
3, 58748, Note_off_c, 1, 60, 100
3, 58752, Note_on_c, 1, 50, 110
3, 58844, Note_off_c, 1, 50, 100
3, 58848, Note_on_c, 1, 59, 110
3, 58940, Note_off_c, 1, 59, 100
3, 58944, Note_on_c, 1, 51, 110
3, 59036, Note_off_c, 1, 51, 100
3, 59040, Note_on_c, 1, 60, 110
3, 59132, Note_off_c, 1, 60, 100
3, 59136, Note_on_c, 1, 53, 110
3, 59228, Note_off_c, 1, 53, 100
3, 59232, Note_on_c, 1, 62, 110
3, 59324, Note_off_c, 1, 62, 100
3, 59328, Note_on_c, 1, 55, 110
3, 59420, Note_off_c, 1, 55, 100
3, 59424, Note_on_c, 1, 63, 110
3, 59516, Note_off_c, 1, 63, 100
3, 59520, Note_on_c, 1, 57, 110
3, 59612, Note_off_c, 1, 57, 100
3, 59616, Note_on_c, 1, 65, 110
3, 59708, Note_off_c, 1, 65, 100
3, 59712, Note_on_c, 1, 59, 110
3, 59804, Note_off_c, 1, 59, 100
3, 59808, Note_on_c, 1, 67, 110
3, 59900, Note_off_c, 1, 67, 100
3, 59904, Note_on_c, 1, 65, 110
3, 59996, Note_off_c, 1, 65, 100
3, 60000, Note_on_c, 1, 60, 110
3, 60476, Note_off_c, 1, 60, 100
3, 60480, Note_on_c, 1, 60, 110
3, 60860, Note_off_c, 1, 60, 100
3, 60864, Note_on_c, 1, 60, 110
3, 61244, Note_off_c, 1, 60, 100
3, 61248, Note_on_c, 1, 60, 110
3, 61340, Note_off_c, 1, 60, 100
3, 61344, Note_on_c, 1, 70, 110
3, 61436, Note_off_c, 1, 70, 100
3, 61440, Note_on_c, 1, 65, 110
3, 61532, Note_off_c, 1, 65, 100
3, 61536, Note_on_c, 1, 68, 110
3, 61628, Note_off_c, 1, 68, 100
3, 61632, Note_on_c, 1, 60, 110
3, 61724, Note_off_c, 1, 60, 100
3, 61728, Note_on_c, 1, 67, 110
3, 61820, Note_off_c, 1, 67, 100
3, 61824, Note_on_c, 1, 61, 110
3, 61916, Note_off_c, 1, 61, 100
3, 61920, Note_on_c, 1, 65, 110
3, 62012, Note_off_c, 1, 65, 100
3, 62016, Note_on_c, 1, 56, 110
3, 62108, Note_off_c, 1, 56, 100
3, 62112, Note_on_c, 1, 63, 110
3, 62204, Note_off_c, 1, 63, 100
3, 62208, Note_on_c, 1, 58, 110
3, 62300, Note_off_c, 1, 58, 100
3, 62304, Note_on_c, 1, 61, 110
3, 62396, Note_off_c, 1, 61, 100
3, 62400, Note_on_c, 1, 53, 110
3, 62492, Note_off_c, 1, 53, 100
3, 62496, Note_on_c, 1, 60, 110
3, 62588, Note_off_c, 1, 60, 100
3, 62592, Note_on_c, 1, 54, 110
3, 62684, Note_off_c, 1, 54, 100
3, 62688, Note_on_c, 1, 58, 110
3, 62780, Note_off_c, 1, 58, 100
3, 62784, Note_on_c, 1, 49, 110
3, 62876, Note_off_c, 1, 49, 100
3, 62880, Note_on_c, 1, 56, 110
3, 62972, Note_off_c, 1, 56, 100
3, 62976, Note_on_c, 1, 51, 110
3, 63068, Note_off_c, 1, 51, 100
3, 63072, Note_on_c, 1, 54, 110
3, 63164, Note_off_c, 1, 54, 100
3, 63168, Note_on_c, 1, 49, 111
3, 63260, Note_off_c, 1, 49, 100
3, 63264, Note_on_c, 1, 53, 111
3, 63356, Note_off_c, 1, 53, 100
3, 63360, Note_on_c, 1, 48, 112
3, 63452, Note_off_c, 1, 48, 100
3, 63456, Note_on_c, 1, 51, 113
3, 63548, Note_off_c, 1, 51, 100
3, 63552, Note_on_c, 1, 44, 113
3, 63644, Note_off_c, 1, 44, 100
3, 63648, Note_on_c, 1, 51, 114
3, 63740, Note_off_c, 1, 51, 100
3, 63744, Note_on_c, 1, 49, 115
3, 63836, Note_off_c, 1, 49, 100
3, 63840, Note_on_c, 1, 53, 115
3, 63932, Note_off_c, 1, 53, 100
3, 63936, Note_on_c, 1, 42, 116
3, 64028, Note_off_c, 1, 42, 100
3, 64032, Note_on_c, 1, 54, 117
3, 64124, Note_off_c, 1, 54, 100
3, 64128, Note_on_c, 1, 44, 117
3, 64220, Note_off_c, 1, 44, 100
3, 64224, Note_on_c, 1, 53, 118
3, 64316, Note_off_c, 1, 53, 100
3, 64320, Note_on_c, 1, 44, 119
3, 64412, Note_off_c, 1, 44, 100
3, 64416, Note_on_c, 1, 51, 119
3, 64508, Note_off_c, 1, 51, 100
3, 64512, Note_on_c, 1, 44, 120
3, 64604, Note_off_c, 1, 44, 100
3, 64608, Note_on_c, 1, 50, 119
3, 64700, Note_off_c, 1, 50, 100
3, 64704, Note_on_c, 1, 44, 118
3, 64796, Note_off_c, 1, 44, 100
3, 64800, Note_on_c, 1, 50, 116
3, 64892, Note_off_c, 1, 50, 100
3, 64896, Note_on_c, 1, 44, 115
3, 64988, Note_off_c, 1, 44, 100
3, 64992, Note_on_c, 1, 50, 113
3, 65084, Note_off_c, 1, 50, 100
3, 65088, Note_on_c, 1, 44, 112
3, 65180, Note_off_c, 1, 44, 100
3, 65184, Note_on_c, 1, 50, 111
3, 65276, Note_off_c, 1, 50, 100
3, 65280, Note_on_c, 1, 43, 80
3, 65372, Note_off_c, 1, 43, 100
3, 65376, Note_on_c, 1, 50, 80
3, 65468, Note_off_c, 1, 50, 100
3, 65472, Note_on_c, 1, 43, 80
3, 65564, Note_off_c, 1, 43, 100
3, 65568, Note_on_c, 1, 50, 80
3, 65660, Note_off_c, 1, 50, 100
3, 65664, Note_on_c, 1, 43, 80
3, 65756, Note_off_c, 1, 43, 100
3, 65760, Note_on_c, 1, 50, 80
3, 65852, Note_off_c, 1, 50, 100
3, 65856, Note_on_c, 1, 43, 80
3, 65948, Note_off_c, 1, 43, 100
3, 65952, Note_on_c, 1, 50, 80
3, 66044, Note_off_c, 1, 50, 100
3, 66048, Note_on_c, 1, 43, 110
3, 66140, Note_off_c, 1, 43, 100
3, 66144, Note_on_c, 1, 49, 110
3, 66236, Note_off_c, 1, 49, 100
3, 66240, Note_on_c, 1, 43, 110
3, 66332, Note_off_c, 1, 43, 100
3, 66336, Note_on_c, 1, 48, 110
3, 66428, Note_off_c, 1, 48, 100
3, 66432, Note_on_c, 1, 43, 110
3, 66524, Note_off_c, 1, 43, 100
3, 66528, Note_on_c, 1, 48, 110
3, 66620, Note_off_c, 1, 48, 100
3, 66624, Note_on_c, 1, 43, 110
3, 66716, Note_off_c, 1, 43, 100
3, 66720, Note_on_c, 1, 48, 110
3, 66812, Note_off_c, 1, 48, 100
3, 66816, Note_on_c, 1, 42, 80
3, 66908, Note_off_c, 1, 42, 100
3, 66912, Note_on_c, 1, 48, 80
3, 67004, Note_off_c, 1, 48, 100
3, 67008, Note_on_c, 1, 42, 80
3, 67100, Note_off_c, 1, 42, 100
3, 67104, Note_on_c, 1, 48, 80
3, 67196, Note_off_c, 1, 48, 100
3, 67200, Note_on_c, 1, 42, 80
3, 67292, Note_off_c, 1, 42, 100
3, 67296, Note_on_c, 1, 48, 80
3, 67388, Note_off_c, 1, 48, 100
3, 67392, Note_on_c, 1, 42, 80
3, 67484, Note_off_c, 1, 42, 100
3, 67488, Note_on_c, 1, 48, 80
3, 67580, Note_off_c, 1, 48, 100
3, 67584, Note_on_c, 1, 42, 80
3, 67676, Note_off_c, 1, 42, 100
3, 67680, Note_on_c, 1, 48, 80
3, 67772, Note_off_c, 1, 48, 100
3, 67776, Note_on_c, 1, 41, 80
3, 67868, Note_off_c, 1, 41, 100
3, 67872, Note_on_c, 1, 48, 80
3, 67964, Note_off_c, 1, 48, 100
3, 67968, Note_on_c, 1, 47, 80
3, 68060, Note_off_c, 1, 47, 100
3, 68064, Note_on_c, 1, 53, 80
3, 68156, Note_off_c, 1, 53, 100
3, 68160, Note_on_c, 1, 47, 80
3, 68252, Note_off_c, 1, 47, 100
3, 68256, Note_on_c, 1, 53, 80
3, 68348, Note_off_c, 1, 53, 100
3, 68352, Note_on_c, 1, 47, 80
3, 68444, Note_off_c, 1, 47, 100
3, 68448, Note_on_c, 1, 53, 80
3, 68540, Note_off_c, 1, 53, 100
3, 68544, Note_on_c, 1, 46, 80
3, 68636, Note_off_c, 1, 46, 100
3, 68640, Note_on_c, 1, 53, 80
3, 68732, Note_off_c, 1, 53, 100
3, 68736, Note_on_c, 1, 40, 80
3, 68828, Note_off_c, 1, 40, 100
3, 68832, Note_on_c, 1, 46, 80
3, 68924, Note_off_c, 1, 46, 100
3, 68928, Note_on_c, 1, 40, 80
3, 69020, Note_off_c, 1, 40, 100
3, 69024, Note_on_c, 1, 46, 80
3, 69116, Note_off_c, 1, 46, 100
3, 69120, Note_on_c, 1, 40, 80
3, 69212, Note_off_c, 1, 40, 100
3, 69216, Note_on_c, 1, 46, 80
3, 69308, Note_off_c, 1, 46, 100
3, 69312, Note_on_c, 1, 39, 80
3, 69404, Note_off_c, 1, 39, 100
3, 69408, Note_on_c, 1, 46, 80
3, 69500, Note_off_c, 1, 46, 100
3, 69504, Note_on_c, 1, 45, 80
3, 69596, Note_off_c, 1, 45, 100
3, 69600, Note_on_c, 1, 51, 80
3, 69692, Note_off_c, 1, 51, 100
3, 69696, Note_on_c, 1, 45, 80
3, 69788, Note_off_c, 1, 45, 100
3, 69792, Note_on_c, 1, 51, 80
3, 69884, Note_off_c, 1, 51, 100
3, 69888, Note_on_c, 1, 45, 80
3, 69980, Note_off_c, 1, 45, 100
3, 69984, Note_on_c, 1, 51, 80
3, 70076, Note_off_c, 1, 51, 100
3, 70080, Note_on_c, 1, 44, 80
3, 70172, Note_off_c, 1, 44, 100
3, 70176, Note_on_c, 1, 51, 80
3, 70268, Note_off_c, 1, 51, 100
3, 70272, Note_on_c, 1, 32, 80
3, 70364, Note_off_c, 1, 32, 100
3, 70368, Note_on_c, 1, 44, 80
3, 70460, Note_off_c, 1, 44, 100
3, 70464, Note_on_c, 1, 32, 80
3, 70556, Note_off_c, 1, 32, 100
3, 70560, Note_on_c, 1, 44, 80
3, 70652, Note_off_c, 1, 44, 100
3, 70656, Note_on_c, 1, 32, 80
3, 70748, Note_off_c, 1, 32, 100
3, 70752, Note_on_c, 1, 44, 80
3, 70844, Note_off_c, 1, 44, 100
3, 70848, Note_on_c, 1, 33, 80
3, 70940, Note_off_c, 1, 33, 100
3, 70944, Note_on_c, 1, 45, 80
3, 71036, Note_off_c, 1, 45, 100
3, 71040, Note_on_c, 1, 31, 110
3, 71132, Note_off_c, 1, 31, 100
3, 71136, Note_on_c, 1, 43, 110
3, 71228, Note_off_c, 1, 43, 100
3, 71232, Note_on_c, 1, 31, 110
3, 71324, Note_off_c, 1, 31, 100
3, 71328, Note_on_c, 1, 43, 110
3, 71420, Note_off_c, 1, 43, 100
3, 71424, Note_on_c, 1, 31, 110
3, 71516, Note_off_c, 1, 31, 100
3, 71520, Note_on_c, 1, 43, 110
3, 71612, Note_off_c, 1, 43, 100
3, 71616, Note_on_c, 1, 31, 110
3, 71708, Note_off_c, 1, 31, 100
3, 71712, Note_on_c, 1, 43, 110
3, 71804, Note_off_c, 1, 43, 100
3, 71808, Note_on_c, 1, 33, 110
3, 71900, Note_off_c, 1, 33, 100
3, 71904, Note_on_c, 1, 45, 110
3, 71996, Note_off_c, 1, 45, 100
3, 72000, Note_on_c, 1, 33, 110
3, 72092, Note_off_c, 1, 33, 100
3, 72096, Note_on_c, 1, 45, 110
3, 72188, Note_off_c, 1, 45, 100
3, 72192, Note_on_c, 1, 44, 110
3, 72380, Note_off_c, 1, 44, 100
3, 72576, Note_on_c, 1, 57, 80
3, 72764, Note_off_c, 1, 57, 100
3, 72768, Note_on_c, 1, 56, 80
3, 72956, Note_off_c, 1, 56, 100
3, 72960, Note_on_c, 1, 44, 80
3, 73148, Note_off_c, 1, 44, 100
3, 73344, Note_on_c, 1, 57, 80
3, 73532, Note_off_c, 1, 57, 100
3, 73536, Note_on_c, 1, 56, 80
3, 73724, Note_off_c, 1, 56, 100
3, 73728, Note_on_c, 1, 44, 80
3, 73916, Note_off_c, 1, 44, 100
3, 74112, Note_on_c, 1, 57, 80
3, 74300, Note_off_c, 1, 57, 100
3, 74304, Note_on_c, 1, 56, 80
3, 74492, Note_off_c, 1, 56, 100
3, 74496, Note_on_c, 1, 57, 80
3, 74684, Note_off_c, 1, 57, 100
3, 74688, Note_on_c, 1, 56, 80
3, 74876, Note_off_c, 1, 56, 100
3, 74880, Note_on_c, 1, 60, 80
3, 75068, Note_off_c, 1, 60, 100
3, 75072, Note_on_c, 1, 63, 80
3, 75260, Note_off_c, 1, 63, 100
3, 75264, Note_on_c, 1, 49, 80
3, 75452, Note_off_c, 1, 49, 100
3, 75648, Note_on_c, 1, 63, 80
3, 75836, Note_off_c, 1, 63, 100
3, 75840, Note_on_c, 1, 61, 80
3, 76028, Note_off_c, 1, 61, 100
3, 76032, Note_on_c, 1, 49, 80
3, 76220, Note_off_c, 1, 49, 100
3, 76416, Note_on_c, 1, 63, 80
3, 76604, Note_off_c, 1, 63, 100
3, 76608, Note_on_c, 1, 61, 80
3, 76796, Note_off_c, 1, 61, 100
3, 76800, Note_on_c, 1, 49, 80
3, 76988, Note_off_c, 1, 49, 100
3, 77184, Note_on_c, 1, 63, 80
3, 77372, Note_off_c, 1, 63, 100
3, 77376, Note_on_c, 1, 61, 80
3, 77564, Note_off_c, 1, 61, 100
3, 77568, Note_on_c, 1, 63, 80
3, 77756, Note_off_c, 1, 63, 100
3, 77760, Note_on_c, 1, 61, 80
3, 77948, Note_off_c, 1, 61, 100
3, 77952, Note_on_c, 1, 60, 80
3, 78140, Note_off_c, 1, 60, 100
3, 78144, Note_on_c, 1, 58, 80
3, 78332, Note_off_c, 1, 58, 100
3, 78336, Note_on_c, 1, 44, 80
3, 78524, Note_off_c, 1, 44, 100
3, 78720, Note_on_c, 1, 57, 80
3, 78908, Note_off_c, 1, 57, 100
3, 78912, Note_on_c, 1, 56, 80
3, 79100, Note_off_c, 1, 56, 100
3, 79104, Note_on_c, 1, 44, 80
3, 79292, Note_off_c, 1, 44, 100
3, 79488, Note_on_c, 1, 57, 80
3, 79676, Note_off_c, 1, 57, 100
3, 79680, Note_on_c, 1, 56, 80
3, 79868, Note_off_c, 1, 56, 100
3, 79872, Note_on_c, 1, 44, 80
3, 80060, Note_off_c, 1, 44, 100
3, 80256, Note_on_c, 1, 57, 80
3, 80444, Note_off_c, 1, 57, 100
3, 80448, Note_on_c, 1, 56, 80
3, 80636, Note_off_c, 1, 56, 100
3, 80640, Note_on_c, 1, 57, 80
3, 80828, Note_off_c, 1, 57, 100
3, 80832, Note_on_c, 1, 56, 80
3, 81020, Note_off_c, 1, 56, 100
3, 81024, Note_on_c, 1, 60, 80
3, 81212, Note_off_c, 1, 60, 100
3, 81216, Note_on_c, 1, 63, 80
3, 81404, Note_off_c, 1, 63, 100
3, 81408, Note_on_c, 1, 62, 80
3, 81596, Note_off_c, 1, 62, 100
3, 81600, Note_on_c, 1, 61, 80
3, 81788, Note_off_c, 1, 61, 100
3, 81792, Note_on_c, 1, 65, 80
3, 81980, Note_off_c, 1, 65, 100
3, 81984, Note_on_c, 1, 68, 80
3, 82172, Note_off_c, 1, 68, 100
3, 82176, Note_on_c, 1, 67, 80
3, 82364, Note_off_c, 1, 67, 100
3, 82368, Note_on_c, 1, 66, 80
3, 82556, Note_off_c, 1, 66, 100
3, 82560, Note_on_c, 1, 70, 80
3, 82748, Note_off_c, 1, 70, 100
3, 82752, Note_on_c, 1, 58, 80
3, 82940, Note_off_c, 1, 58, 100
3, 82944, Note_on_c, 1, 72, 80
3, 83132, Note_off_c, 1, 72, 100
3, 83136, Note_on_c, 1, 71, 80
3, 83324, Note_off_c, 1, 71, 100
3, 83328, Note_on_c, 1, 75, 80
3, 83516, Note_off_c, 1, 75, 100
3, 83520, Note_on_c, 1, 63, 80
3, 83708, Note_off_c, 1, 63, 100
3, 83712, Note_on_c, 1, 77, 80
3, 83900, Note_off_c, 1, 77, 100
3, 83904, Note_on_c, 1, 76, 80
3, 84092, Note_off_c, 1, 76, 100
3, 84096, Note_on_c, 1, 80, 80
3, 84284, Note_off_c, 1, 80, 100
3, 84288, Note_on_c, 1, 68, 80
3, 84476, Note_off_c, 1, 68, 100
3, 84480, Note_on_c, 1, 70, 80
3, 84668, Note_off_c, 1, 70, 100
3, 84672, Note_on_c, 1, 69, 80
3, 84860, Note_off_c, 1, 69, 100
3, 84864, Note_on_c, 1, 73, 80
3, 85052, Note_off_c, 1, 73, 100
3, 85056, Note_on_c, 1, 61, 80
3, 85244, Note_off_c, 1, 61, 100
3, 85248, Note_on_c, 1, 75, 80
3, 85436, Note_off_c, 1, 75, 100
3, 85440, Note_on_c, 1, 74, 80
3, 85628, Note_off_c, 1, 74, 100
3, 85632, Note_on_c, 1, 78, 80
3, 85820, Note_off_c, 1, 78, 100
3, 85824, Note_on_c, 1, 66, 80
3, 86012, Note_off_c, 1, 66, 100
3, 86016, Note_on_c, 1, 68, 80
3, 86204, Note_off_c, 1, 68, 100
3, 86208, Note_on_c, 1, 67, 80
3, 86396, Note_off_c, 1, 67, 100
3, 86400, Note_on_c, 1, 70, 80
3, 86588, Note_off_c, 1, 70, 100
3, 86592, Note_on_c, 1, 58, 80
3, 86780, Note_off_c, 1, 58, 100
3, 86784, Note_on_c, 1, 73, 80
3, 86972, Note_off_c, 1, 73, 100
3, 86976, Note_on_c, 1, 72, 80
3, 87164, Note_off_c, 1, 72, 100
3, 87168, Note_on_c, 1, 76, 80
3, 87356, Note_off_c, 1, 76, 100
3, 87360, Note_on_c, 1, 64, 80
3, 87548, Note_off_c, 1, 64, 100
3, 87552, Note_on_c, 1, 65, 80
3, 87740, Note_off_c, 1, 65, 100
3, 87744, Note_on_c, 1, 61, 82
3, 87932, Note_off_c, 1, 61, 100
3, 87936, Note_on_c, 1, 62, 85
3, 88124, Note_off_c, 1, 62, 100
3, 88128, Note_on_c, 1, 57, 87
3, 88316, Note_off_c, 1, 57, 100
3, 88320, Note_on_c, 1, 58, 90
3, 88508, Note_off_c, 1, 58, 100
3, 88512, Note_on_c, 1, 54, 93
3, 88700, Note_off_c, 1, 54, 100
3, 88704, Note_on_c, 1, 55, 95
3, 88892, Note_off_c, 1, 55, 100
3, 88896, Note_on_c, 1, 45, 98
3, 89084, Note_off_c, 1, 45, 100
3, 89088, Note_on_c, 1, 46, 100
3, 89276, Note_off_c, 1, 46, 100
3, 89280, Note_on_c, 1, 47, 103
3, 89468, Note_off_c, 1, 47, 100
3, 89472, Note_on_c, 1, 48, 106
3, 89660, Note_off_c, 1, 48, 100
3, 89664, Note_on_c, 1, 50, 108
3, 89852, Note_off_c, 1, 50, 100
3, 89856, Note_on_c, 1, 36, 110
3, 89948, Note_off_c, 1, 36, 100
3, 89952, Note_on_c, 1, 40, 110
3, 90044, Note_off_c, 1, 40, 100
3, 90048, Note_on_c, 1, 43, 110
3, 90140, Note_off_c, 1, 43, 100
3, 90144, Note_on_c, 1, 48, 110
3, 90236, Note_off_c, 1, 48, 100
3, 90240, Note_on_c, 1, 38, 110
3, 90332, Note_off_c, 1, 38, 100
3, 90336, Note_on_c, 1, 47, 110
3, 90428, Note_off_c, 1, 47, 100
3, 90432, Note_on_c, 1, 40, 110
3, 90524, Note_off_c, 1, 40, 100
3, 90528, Note_on_c, 1, 48, 110
3, 90620, Note_off_c, 1, 48, 100
3, 90624, Note_on_c, 1, 41, 110
3, 90716, Note_off_c, 1, 41, 100
3, 90720, Note_on_c, 1, 50, 110
3, 90812, Note_off_c, 1, 50, 100
3, 90816, Note_on_c, 1, 43, 110
3, 90908, Note_off_c, 1, 43, 100
3, 90912, Note_on_c, 1, 52, 110
3, 91004, Note_off_c, 1, 52, 100
3, 91008, Note_on_c, 1, 45, 110
3, 91100, Note_off_c, 1, 45, 100
3, 91104, Note_on_c, 1, 53, 110
3, 91196, Note_off_c, 1, 53, 100
3, 91200, Note_on_c, 1, 47, 110
3, 91292, Note_off_c, 1, 47, 100
3, 91296, Note_on_c, 1, 55, 110
3, 91388, Note_off_c, 1, 55, 100
3, 91392, Note_on_c, 1, 52, 100
3, 91484, Note_off_c, 1, 52, 100
3, 91488, Note_on_c, 1, 48, 94
3, 91772, Note_off_c, 1, 48, 100
3, 91776, Note_on_c, 1, 55, 80
3, 91964, Note_off_c, 1, 55, 100
3, 91968, Note_on_c, 1, 55, 80
3, 92348, Note_off_c, 1, 55, 100
3, 92352, Note_on_c, 1, 55, 80
3, 92732, Note_off_c, 1, 55, 100
3, 92736, Note_on_c, 1, 55, 80
3, 92924, Note_off_c, 1, 55, 100
3, 92928, Note_on_c, 1, 48, 110
3, 93020, Note_off_c, 1, 48, 100
3, 93024, Note_on_c, 1, 52, 110
3, 93116, Note_off_c, 1, 52, 100
3, 93120, Note_on_c, 1, 55, 110
3, 93212, Note_off_c, 1, 55, 100
3, 93216, Note_on_c, 1, 60, 110
3, 93308, Note_off_c, 1, 60, 100
3, 93312, Note_on_c, 1, 50, 110
3, 93404, Note_off_c, 1, 50, 100
3, 93408, Note_on_c, 1, 59, 110
3, 93500, Note_off_c, 1, 59, 100
3, 93504, Note_on_c, 1, 52, 110
3, 93596, Note_off_c, 1, 52, 100
3, 93600, Note_on_c, 1, 60, 110
3, 93692, Note_off_c, 1, 60, 100
3, 93696, Note_on_c, 1, 53, 110
3, 93788, Note_off_c, 1, 53, 100
3, 93792, Note_on_c, 1, 62, 110
3, 93884, Note_off_c, 1, 62, 100
3, 93888, Note_on_c, 1, 55, 110
3, 93980, Note_off_c, 1, 55, 100
3, 93984, Note_on_c, 1, 64, 110
3, 94076, Note_off_c, 1, 64, 100
3, 94080, Note_on_c, 1, 57, 110
3, 94172, Note_off_c, 1, 57, 100
3, 94176, Note_on_c, 1, 65, 110
3, 94268, Note_off_c, 1, 65, 100
3, 94272, Note_on_c, 1, 59, 110
3, 94364, Note_off_c, 1, 59, 100
3, 94368, Note_on_c, 1, 67, 110
3, 94460, Note_off_c, 1, 67, 100
3, 94464, Note_on_c, 1, 60, 100
3, 94464, Note_on_c, 1, 64, 100
3, 94652, Note_off_c, 1, 60, 100
3, 94652, Note_off_c, 1, 64, 100
3, 95232, Note_on_c, 1, 55, 80
3, 95324, Note_off_c, 1, 55, 100
3, 95328, Note_on_c, 1, 64, 80
3, 95420, Note_off_c, 1, 64, 100
3, 95424, Note_on_c, 1, 57, 80
3, 95516, Note_off_c, 1, 57, 100
3, 95520, Note_on_c, 1, 65, 80
3, 95612, Note_off_c, 1, 65, 100
3, 95616, Note_on_c, 1, 53, 80
3, 95708, Note_off_c, 1, 53, 100
3, 95712, Note_on_c, 1, 62, 80
3, 95804, Note_off_c, 1, 62, 100
3, 95808, Note_on_c, 1, 55, 80
3, 95900, Note_off_c, 1, 55, 100
3, 95904, Note_on_c, 1, 64, 80
3, 95996, Note_off_c, 1, 64, 100
3, 96000, Note_on_c, 1, 52, 80
3, 96092, Note_off_c, 1, 52, 100
3, 96096, Note_on_c, 1, 60, 80
3, 96188, Note_off_c, 1, 60, 100
3, 96768, Note_on_c, 1, 64, 80
3, 96860, Note_off_c, 1, 64, 100
3, 96864, Note_on_c, 1, 67, 80
3, 96956, Note_off_c, 1, 67, 100
3, 96960, Note_on_c, 1, 65, 80
3, 97052, Note_off_c, 1, 65, 100
3, 97056, Note_on_c, 1, 69, 80
3, 97148, Note_off_c, 1, 69, 100
3, 97152, Note_on_c, 1, 62, 80
3, 97244, Note_off_c, 1, 62, 100
3, 97248, Note_on_c, 1, 65, 80
3, 97340, Note_off_c, 1, 65, 100
3, 97344, Note_on_c, 1, 64, 80
3, 97436, Note_off_c, 1, 64, 100
3, 97440, Note_on_c, 1, 67, 80
3, 97532, Note_off_c, 1, 67, 100
3, 97536, Note_on_c, 1, 60, 80
3, 97628, Note_off_c, 1, 60, 100
3, 97632, Note_on_c, 1, 64, 80
3, 97724, Note_off_c, 1, 64, 100
3, 98304, Note_on_c, 1, 64, 80
3, 98396, Note_off_c, 1, 64, 100
3, 98400, Note_on_c, 1, 67, 80
3, 98492, Note_off_c, 1, 67, 100
3, 98496, Note_on_c, 1, 65, 80
3, 98588, Note_off_c, 1, 65, 100
3, 98592, Note_on_c, 1, 69, 80
3, 98684, Note_off_c, 1, 69, 100
3, 98688, Note_on_c, 1, 62, 80
3, 98780, Note_off_c, 1, 62, 100
3, 98784, Note_on_c, 1, 65, 80
3, 98876, Note_off_c, 1, 65, 100
3, 98880, Note_on_c, 1, 64, 80
3, 98972, Note_off_c, 1, 64, 100
3, 98976, Note_on_c, 1, 67, 80
3, 99068, Note_off_c, 1, 67, 100
3, 99072, Note_on_c, 1, 60, 80
3, 99164, Note_off_c, 1, 60, 100
3, 99168, Note_on_c, 1, 64, 80
3, 99260, Note_off_c, 1, 64, 100
3, 99264, Note_on_c, 1, 62, 81
3, 99356, Note_off_c, 1, 62, 100
3, 99360, Note_on_c, 1, 65, 82
3, 99452, Note_off_c, 1, 65, 100
3, 99456, Note_on_c, 1, 58, 83
3, 99548, Note_off_c, 1, 58, 100
3, 99552, Note_on_c, 1, 62, 84
3, 99644, Note_off_c, 1, 62, 100
3, 99648, Note_on_c, 1, 60, 85
3, 99740, Note_off_c, 1, 60, 100
3, 99744, Note_on_c, 1, 64, 86
3, 99836, Note_off_c, 1, 64, 100
3, 99840, Note_on_c, 1, 57, 86
3, 99932, Note_off_c, 1, 57, 100
3, 99936, Note_on_c, 1, 60, 87
3, 100028, Note_off_c, 1, 60, 100
3, 100032, Note_on_c, 1, 58, 88
3, 100124, Note_off_c, 1, 58, 100
3, 100128, Note_on_c, 1, 62, 89
3, 100220, Note_off_c, 1, 62, 100
3, 100224, Note_on_c, 1, 55, 90
3, 100316, Note_off_c, 1, 55, 100
3, 100320, Note_on_c, 1, 58, 91
3, 100412, Note_off_c, 1, 58, 100
3, 100416, Note_on_c, 1, 57, 92
3, 100508, Note_off_c, 1, 57, 100
3, 100512, Note_on_c, 1, 60, 93
3, 100604, Note_off_c, 1, 60, 100
3, 100608, Note_on_c, 1, 53, 93
3, 100700, Note_off_c, 1, 53, 100
3, 100704, Note_on_c, 1, 57, 94
3, 100796, Note_off_c, 1, 57, 100
3, 100800, Note_on_c, 1, 55, 95
3, 100892, Note_off_c, 1, 55, 100
3, 100896, Note_on_c, 1, 58, 96
3, 100988, Note_off_c, 1, 58, 100
3, 100992, Note_on_c, 1, 57, 97
3, 101084, Note_off_c, 1, 57, 100
3, 101088, Note_on_c, 1, 60, 98
3, 101180, Note_off_c, 1, 60, 100
3, 101184, Note_on_c, 1, 58, 99
3, 101276, Note_off_c, 1, 58, 100
3, 101280, Note_on_c, 1, 62, 99
3, 101372, Note_off_c, 1, 62, 100
3, 101376, Note_on_c, 1, 57, 100
3, 101468, Note_off_c, 1, 57, 100
3, 101472, Note_on_c, 1, 60, 98
3, 101564, Note_off_c, 1, 60, 100
3, 101568, Note_on_c, 1, 55, 95
3, 101660, Note_off_c, 1, 55, 100
3, 101664, Note_on_c, 1, 58, 92
3, 101756, Note_off_c, 1, 58, 100
3, 101760, Note_on_c, 1, 53, 89
3, 101852, Note_off_c, 1, 53, 100
3, 101856, Note_on_c, 1, 57, 86
3, 101948, Note_off_c, 1, 57, 100
3, 101952, Note_on_c, 1, 48, 83
3, 102044, Note_off_c, 1, 48, 100
3, 102048, Note_on_c, 1, 55, 81
3, 102140, Note_off_c, 1, 55, 100
3, 102144, Note_on_c, 1, 29, 80
3, 102236, Note_off_c, 1, 29, 100
3, 102240, Note_on_c, 1, 41, 80
3, 102332, Note_off_c, 1, 41, 100
3, 102336, Note_on_c, 1, 29, 81
3, 102428, Note_off_c, 1, 29, 100
3, 102432, Note_on_c, 1, 41, 82
3, 102524, Note_off_c, 1, 41, 100
3, 102528, Note_on_c, 1, 29, 83
3, 102620, Note_off_c, 1, 29, 100
3, 102624, Note_on_c, 1, 41, 84
3, 102716, Note_off_c, 1, 41, 100
3, 102720, Note_on_c, 1, 29, 85
3, 102812, Note_off_c, 1, 29, 100
3, 102816, Note_on_c, 1, 41, 86
3, 102908, Note_off_c, 1, 41, 100
3, 102912, Note_on_c, 1, 29, 87
3, 103004, Note_off_c, 1, 29, 100
3, 103008, Note_on_c, 1, 41, 88
3, 103100, Note_off_c, 1, 41, 100
3, 103104, Note_on_c, 1, 29, 89
3, 103196, Note_off_c, 1, 29, 100
3, 103200, Note_on_c, 1, 41, 90
3, 103292, Note_off_c, 1, 41, 100
3, 103296, Note_on_c, 1, 29, 91
3, 103388, Note_off_c, 1, 29, 100
3, 103392, Note_on_c, 1, 41, 92
3, 103484, Note_off_c, 1, 41, 100
3, 103488, Note_on_c, 1, 29, 93
3, 103580, Note_off_c, 1, 29, 100
3, 103584, Note_on_c, 1, 41, 94
3, 103676, Note_off_c, 1, 41, 100
3, 103680, Note_on_c, 1, 29, 95
3, 103772, Note_off_c, 1, 29, 100
3, 103776, Note_on_c, 1, 41, 96
3, 103868, Note_off_c, 1, 41, 100
3, 103872, Note_on_c, 1, 29, 97
3, 103964, Note_off_c, 1, 29, 100
3, 103968, Note_on_c, 1, 41, 98
3, 104060, Note_off_c, 1, 41, 100
3, 104064, Note_on_c, 1, 29, 99
3, 104156, Note_off_c, 1, 29, 100
3, 104160, Note_on_c, 1, 41, 100
3, 104252, Note_off_c, 1, 41, 100
3, 104256, Note_on_c, 1, 29, 101
3, 104348, Note_off_c, 1, 29, 100
3, 104352, Note_on_c, 1, 41, 102
3, 104444, Note_off_c, 1, 41, 100
3, 104448, Note_on_c, 1, 29, 103
3, 104540, Note_off_c, 1, 29, 100
3, 104544, Note_on_c, 1, 41, 104
3, 104636, Note_off_c, 1, 41, 100
3, 104640, Note_on_c, 1, 29, 105
3, 104732, Note_off_c, 1, 29, 100
3, 104736, Note_on_c, 1, 41, 106
3, 104828, Note_off_c, 1, 41, 100
3, 104832, Note_on_c, 1, 29, 107
3, 104924, Note_off_c, 1, 29, 100
3, 104928, Note_on_c, 1, 41, 108
3, 105020, Note_off_c, 1, 41, 100
3, 105024, Note_on_c, 1, 29, 108
3, 105116, Note_off_c, 1, 29, 100
3, 105120, Note_on_c, 1, 41, 109
3, 105212, Note_off_c, 1, 41, 100
3, 105216, Note_on_c, 1, 41, 110
3, 105308, Note_off_c, 1, 41, 100
3, 105312, Note_on_c, 1, 45, 110
3, 105404, Note_off_c, 1, 45, 100
3, 105408, Note_on_c, 1, 48, 110
3, 105500, Note_off_c, 1, 48, 100
3, 105504, Note_on_c, 1, 53, 110
3, 105596, Note_off_c, 1, 53, 100
3, 105600, Note_on_c, 1, 43, 110
3, 105692, Note_off_c, 1, 43, 100
3, 105696, Note_on_c, 1, 52, 110
3, 105788, Note_off_c, 1, 52, 100
3, 105792, Note_on_c, 1, 45, 110
3, 105884, Note_off_c, 1, 45, 100
3, 105888, Note_on_c, 1, 53, 110
3, 105980, Note_off_c, 1, 53, 100
3, 105984, Note_on_c, 1, 46, 110
3, 106076, Note_off_c, 1, 46, 100
3, 106080, Note_on_c, 1, 55, 110
3, 106172, Note_off_c, 1, 55, 100
3, 106176, Note_on_c, 1, 48, 110
3, 106268, Note_off_c, 1, 48, 100
3, 106272, Note_on_c, 1, 57, 110
3, 106364, Note_off_c, 1, 57, 100
3, 106368, Note_on_c, 1, 50, 110
3, 106460, Note_off_c, 1, 50, 100
3, 106464, Note_on_c, 1, 58, 110
3, 106556, Note_off_c, 1, 58, 100
3, 106560, Note_on_c, 1, 52, 110
3, 106652, Note_off_c, 1, 52, 100
3, 106656, Note_on_c, 1, 60, 110
3, 106748, Note_off_c, 1, 60, 100
3, 106752, Note_on_c, 1, 53, 110
3, 106844, Note_off_c, 1, 53, 100
3, 106848, Note_on_c, 1, 57, 110
3, 106940, Note_off_c, 1, 57, 100
3, 106944, Note_on_c, 1, 60, 110
3, 107036, Note_off_c, 1, 60, 100
3, 107040, Note_on_c, 1, 65, 110
3, 107132, Note_off_c, 1, 65, 100
3, 107136, Note_on_c, 1, 63, 110
3, 107228, Note_off_c, 1, 63, 100
3, 107232, Note_on_c, 1, 65, 110
3, 107324, Note_off_c, 1, 65, 100
3, 107328, Note_on_c, 1, 62, 110
3, 107420, Note_off_c, 1, 62, 100
3, 107424, Note_on_c, 1, 65, 110
3, 107516, Note_off_c, 1, 65, 100
3, 107520, Note_on_c, 1, 60, 110
3, 107612, Note_off_c, 1, 60, 100
3, 107616, Note_on_c, 1, 65, 110
3, 107708, Note_off_c, 1, 65, 100
3, 107712, Note_on_c, 1, 58, 110
3, 107804, Note_off_c, 1, 58, 100
3, 107808, Note_on_c, 1, 65, 110
3, 107900, Note_off_c, 1, 65, 100
3, 107904, Note_on_c, 1, 57, 110
3, 107996, Note_off_c, 1, 57, 100
3, 108000, Note_on_c, 1, 65, 110
3, 108092, Note_off_c, 1, 65, 100
3, 108096, Note_on_c, 1, 53, 110
3, 108188, Note_off_c, 1, 53, 100
3, 108192, Note_on_c, 1, 60, 110
3, 108284, Note_off_c, 1, 60, 100
3, 108288, Note_on_c, 1, 58, 100
3, 108380, Note_off_c, 1, 58, 100
3, 108384, Note_on_c, 1, 62, 94
3, 108476, Note_off_c, 1, 62, 100
3, 108480, Note_on_c, 1, 53, 87
3, 108572, Note_off_c, 1, 53, 100
3, 108576, Note_on_c, 1, 60, 81
3, 108668, Note_off_c, 1, 60, 100
3, 108672, Note_on_c, 1, 55, 80
3, 108764, Note_off_c, 1, 55, 100
3, 108768, Note_on_c, 1, 58, 80
3, 108860, Note_off_c, 1, 58, 100
3, 108864, Note_on_c, 1, 50, 80
3, 108956, Note_off_c, 1, 50, 100
3, 108960, Note_on_c, 1, 57, 80
3, 109052, Note_off_c, 1, 57, 100
3, 109056, Note_on_c, 1, 51, 80
3, 109148, Note_off_c, 1, 51, 100
3, 109152, Note_on_c, 1, 55, 80
3, 109244, Note_off_c, 1, 55, 100
3, 109248, Note_on_c, 1, 46, 80
3, 109340, Note_off_c, 1, 46, 100
3, 109344, Note_on_c, 1, 53, 80
3, 109436, Note_off_c, 1, 53, 100
3, 109440, Note_on_c, 1, 48, 80
3, 109532, Note_off_c, 1, 48, 100
3, 109536, Note_on_c, 1, 51, 80
3, 109628, Note_off_c, 1, 51, 100
3, 109632, Note_on_c, 1, 43, 80
3, 109724, Note_off_c, 1, 43, 100
3, 109728, Note_on_c, 1, 50, 80
3, 109820, Note_off_c, 1, 50, 100
3, 109824, Note_on_c, 1, 45, 80
3, 109916, Note_off_c, 1, 45, 100
3, 109920, Note_on_c, 1, 48, 81
3, 110012, Note_off_c, 1, 48, 100
3, 110016, Note_on_c, 1, 41, 83
3, 110108, Note_off_c, 1, 41, 100
3, 110112, Note_on_c, 1, 53, 85
3, 110204, Note_off_c, 1, 53, 100
3, 110208, Note_on_c, 1, 43, 87
3, 110300, Note_off_c, 1, 43, 100
3, 110304, Note_on_c, 1, 55, 89
3, 110396, Note_off_c, 1, 55, 100
3, 110400, Note_on_c, 1, 39, 91
3, 110492, Note_off_c, 1, 39, 100
3, 110496, Note_on_c, 1, 51, 93
3, 110588, Note_off_c, 1, 51, 100
3, 110592, Note_on_c, 1, 41, 95
3, 110684, Note_off_c, 1, 41, 100
3, 110688, Note_on_c, 1, 53, 97
3, 110780, Note_off_c, 1, 53, 100
3, 110784, Note_on_c, 1, 41, 99
3, 110876, Note_off_c, 1, 41, 100
3, 110880, Note_on_c, 1, 53, 101
3, 110972, Note_off_c, 1, 53, 100
3, 110976, Note_on_c, 1, 41, 103
3, 111068, Note_off_c, 1, 41, 100
3, 111072, Note_on_c, 1, 53, 105
3, 111164, Note_off_c, 1, 53, 100
3, 111168, Note_on_c, 1, 41, 107
3, 111260, Note_off_c, 1, 41, 100
3, 111264, Note_on_c, 1, 53, 109
3, 111356, Note_off_c, 1, 53, 100
3, 111360, Note_on_c, 1, 58, 80
3, 111452, Note_off_c, 1, 58, 100
3, 111456, Note_on_c, 1, 61, 80
3, 111548, Note_off_c, 1, 61, 100
3, 111552, Note_on_c, 1, 53, 80
3, 111644, Note_off_c, 1, 53, 100
3, 111648, Note_on_c, 1, 60, 80
3, 111740, Note_off_c, 1, 60, 100
3, 111744, Note_on_c, 1, 54, 80
3, 111836, Note_off_c, 1, 54, 100
3, 111840, Note_on_c, 1, 58, 80
3, 111932, Note_off_c, 1, 58, 100
3, 111936, Note_on_c, 1, 49, 80
3, 112028, Note_off_c, 1, 49, 100
3, 112032, Note_on_c, 1, 56, 80
3, 112124, Note_off_c, 1, 56, 100
3, 112128, Note_on_c, 1, 51, 80
3, 112220, Note_off_c, 1, 51, 100
3, 112224, Note_on_c, 1, 54, 80
3, 112316, Note_off_c, 1, 54, 100
3, 112320, Note_on_c, 1, 46, 80
3, 112412, Note_off_c, 1, 46, 100
3, 112416, Note_on_c, 1, 53, 80
3, 112508, Note_off_c, 1, 53, 100
3, 112512, Note_on_c, 1, 48, 80
3, 112604, Note_off_c, 1, 48, 100
3, 112608, Note_on_c, 1, 51, 80
3, 112700, Note_off_c, 1, 51, 100
3, 112704, Note_on_c, 1, 44, 80
3, 112796, Note_off_c, 1, 44, 100
3, 112800, Note_on_c, 1, 51, 80
3, 112892, Note_off_c, 1, 51, 100
3, 112896, Note_on_c, 1, 37, 80
3, 112988, Note_off_c, 1, 37, 100
3, 112992, Note_on_c, 1, 49, 84
3, 113084, Note_off_c, 1, 49, 100
3, 113088, Note_on_c, 1, 37, 88
3, 113180, Note_off_c, 1, 37, 100
3, 113184, Note_on_c, 1, 49, 92
3, 113276, Note_off_c, 1, 49, 100
3, 113280, Note_on_c, 1, 37, 97
3, 113372, Note_off_c, 1, 37, 100
3, 113376, Note_on_c, 1, 49, 101
3, 113468, Note_off_c, 1, 49, 100
3, 113472, Note_on_c, 1, 37, 105
3, 113564, Note_off_c, 1, 37, 100
3, 113568, Note_on_c, 1, 49, 109
3, 113660, Note_off_c, 1, 49, 100
3, 113664, Note_on_c, 1, 37, 110
3, 114428, Note_off_c, 1, 37, 100
3, 114432, Note_on_c, 1, 38, 110
3, 115196, Note_off_c, 1, 38, 100
3, 115200, Note_on_c, 1, 36, 110
3, 115964, Note_off_c, 1, 36, 100
3, 115968, Note_on_c, 1, 35, 110
3, 116348, Note_off_c, 1, 35, 100
3, 116352, Note_on_c, 1, 35, 110
3, 116732, Note_off_c, 1, 35, 100
3, 116832, Note_on_c, 1, 36, 94
3, 116924, Note_off_c, 1, 36, 100
3, 116928, Note_on_c, 1, 40, 87
3, 117020, Note_off_c, 1, 40, 100
3, 117024, Note_on_c, 1, 36, 81
3, 117116, Note_off_c, 1, 36, 100
3, 117120, Note_on_c, 1, 41, 80
3, 117212, Note_off_c, 1, 41, 100
3, 117216, Note_on_c, 1, 36, 80
3, 117308, Note_off_c, 1, 36, 100
3, 117312, Note_on_c, 1, 40, 80
3, 117404, Note_off_c, 1, 40, 100
3, 117408, Note_on_c, 1, 36, 80
3, 117500, Note_off_c, 1, 36, 100
3, 117600, Note_on_c, 1, 48, 80
3, 117692, Note_off_c, 1, 48, 100
3, 117696, Note_on_c, 1, 52, 80
3, 117788, Note_off_c, 1, 52, 100
3, 117792, Note_on_c, 1, 48, 80
3, 117884, Note_off_c, 1, 48, 100
3, 117888, Note_on_c, 1, 53, 80
3, 117980, Note_off_c, 1, 53, 100
3, 117984, Note_on_c, 1, 48, 80
3, 118076, Note_off_c, 1, 48, 100
3, 118080, Note_on_c, 1, 52, 80
3, 118172, Note_off_c, 1, 52, 100
3, 118176, Note_on_c, 1, 48, 80
3, 118268, Note_off_c, 1, 48, 100
3, 118368, Note_on_c, 1, 67, 80
3, 118460, Note_off_c, 1, 67, 100
3, 118464, Note_on_c, 1, 64, 80
3, 118556, Note_off_c, 1, 64, 100
3, 118560, Note_on_c, 1, 67, 80
3, 118652, Note_off_c, 1, 67, 100
3, 118656, Note_on_c, 1, 65, 80
3, 118748, Note_off_c, 1, 65, 100
3, 118752, Note_on_c, 1, 67, 80
3, 118844, Note_off_c, 1, 67, 100
3, 118848, Note_on_c, 1, 64, 80
3, 118940, Note_off_c, 1, 64, 100
3, 118944, Note_on_c, 1, 67, 80
3, 119036, Note_off_c, 1, 67, 100
3, 119040, Note_on_c, 1, 65, 80
3, 119132, Note_off_c, 1, 65, 100
3, 119136, Note_on_c, 1, 67, 80
3, 119228, Note_off_c, 1, 67, 100
3, 119232, Note_on_c, 1, 64, 80
3, 119324, Note_off_c, 1, 64, 100
3, 119328, Note_on_c, 1, 67, 80
3, 119420, Note_off_c, 1, 67, 100
3, 119424, Note_on_c, 1, 63, 80
3, 119516, Note_off_c, 1, 63, 100
3, 119520, Note_on_c, 1, 65, 80
3, 119612, Note_off_c, 1, 65, 100
3, 119616, Note_on_c, 1, 62, 80
3, 119708, Note_off_c, 1, 62, 100
3, 119712, Note_on_c, 1, 65, 80
3, 119804, Note_off_c, 1, 65, 100
3, 119904, Note_on_c, 1, 34, 80
3, 119996, Note_off_c, 1, 34, 100
3, 120000, Note_on_c, 1, 38, 80
3, 120092, Note_off_c, 1, 38, 100
3, 120096, Note_on_c, 1, 34, 80
3, 120188, Note_off_c, 1, 34, 100
3, 120192, Note_on_c, 1, 39, 80
3, 120284, Note_off_c, 1, 39, 100
3, 120288, Note_on_c, 1, 34, 80
3, 120380, Note_off_c, 1, 34, 100
3, 120384, Note_on_c, 1, 38, 80
3, 120476, Note_off_c, 1, 38, 100
3, 120480, Note_on_c, 1, 34, 80
3, 120572, Note_off_c, 1, 34, 100
3, 120672, Note_on_c, 1, 46, 80
3, 120764, Note_off_c, 1, 46, 100
3, 120768, Note_on_c, 1, 50, 80
3, 120860, Note_off_c, 1, 50, 100
3, 120864, Note_on_c, 1, 46, 80
3, 120956, Note_off_c, 1, 46, 100
3, 120960, Note_on_c, 1, 51, 80
3, 121052, Note_off_c, 1, 51, 100
3, 121056, Note_on_c, 1, 46, 80
3, 121148, Note_off_c, 1, 46, 100
3, 121152, Note_on_c, 1, 50, 80
3, 121244, Note_off_c, 1, 50, 100
3, 121248, Note_on_c, 1, 46, 80
3, 121340, Note_off_c, 1, 46, 100
3, 121440, Note_on_c, 1, 65, 80
3, 121532, Note_off_c, 1, 65, 100
3, 121536, Note_on_c, 1, 62, 80
3, 121628, Note_off_c, 1, 62, 100
3, 121632, Note_on_c, 1, 65, 80
3, 121724, Note_off_c, 1, 65, 100
3, 121728, Note_on_c, 1, 63, 80
3, 121820, Note_off_c, 1, 63, 100
3, 121824, Note_on_c, 1, 65, 80
3, 121916, Note_off_c, 1, 65, 100
3, 121920, Note_on_c, 1, 62, 80
3, 122012, Note_off_c, 1, 62, 100
3, 122016, Note_on_c, 1, 65, 80
3, 122108, Note_off_c, 1, 65, 100
3, 122112, Note_on_c, 1, 63, 80
3, 122204, Note_off_c, 1, 63, 100
3, 122208, Note_on_c, 1, 65, 80
3, 122300, Note_off_c, 1, 65, 100
3, 122304, Note_on_c, 1, 62, 80
3, 122396, Note_off_c, 1, 62, 100
3, 122400, Note_on_c, 1, 65, 80
3, 122492, Note_off_c, 1, 65, 100
3, 122496, Note_on_c, 1, 61, 80
3, 122588, Note_off_c, 1, 61, 100
3, 122592, Note_on_c, 1, 63, 80
3, 122684, Note_off_c, 1, 63, 100
3, 122688, Note_on_c, 1, 60, 80
3, 122780, Note_off_c, 1, 60, 100
3, 122784, Note_on_c, 1, 61, 80
3, 122876, Note_off_c, 1, 61, 100
3, 122976, Note_on_c, 1, 32, 80
3, 123068, Note_off_c, 1, 32, 100
3, 123072, Note_on_c, 1, 36, 80
3, 123164, Note_off_c, 1, 36, 100
3, 123168, Note_on_c, 1, 32, 80
3, 123260, Note_off_c, 1, 32, 100
3, 123264, Note_on_c, 1, 37, 80
3, 123356, Note_off_c, 1, 37, 100
3, 123360, Note_on_c, 1, 32, 80
3, 123452, Note_off_c, 1, 32, 100
3, 123456, Note_on_c, 1, 36, 80
3, 123548, Note_off_c, 1, 36, 100
3, 123552, Note_on_c, 1, 32, 80
3, 123644, Note_off_c, 1, 32, 100
3, 123744, Note_on_c, 1, 44, 80
3, 123836, Note_off_c, 1, 44, 100
3, 123840, Note_on_c, 1, 48, 80
3, 123932, Note_off_c, 1, 48, 100
3, 123936, Note_on_c, 1, 44, 80
3, 124028, Note_off_c, 1, 44, 100
3, 124032, Note_on_c, 1, 49, 80
3, 124124, Note_off_c, 1, 49, 100
3, 124128, Note_on_c, 1, 44, 80
3, 124220, Note_off_c, 1, 44, 100
3, 124224, Note_on_c, 1, 48, 80
3, 124316, Note_off_c, 1, 48, 100
3, 124320, Note_on_c, 1, 44, 80
3, 124412, Note_off_c, 1, 44, 100
3, 124512, Note_on_c, 1, 63, 81
3, 124604, Note_off_c, 1, 63, 100
3, 124608, Note_on_c, 1, 60, 82
3, 124700, Note_off_c, 1, 60, 100
3, 124704, Note_on_c, 1, 63, 83
3, 124796, Note_off_c, 1, 63, 100
3, 124800, Note_on_c, 1, 61, 85
3, 124892, Note_off_c, 1, 61, 100
3, 124896, Note_on_c, 1, 63, 86
3, 124988, Note_off_c, 1, 63, 100
3, 124992, Note_on_c, 1, 60, 87
3, 125084, Note_off_c, 1, 60, 100
3, 125088, Note_on_c, 1, 63, 89
3, 125180, Note_off_c, 1, 63, 100
3, 125184, Note_on_c, 1, 61, 90
3, 125276, Note_off_c, 1, 61, 100
3, 125280, Note_on_c, 1, 63, 91
3, 125372, Note_off_c, 1, 63, 100
3, 125376, Note_on_c, 1, 60, 93
3, 125468, Note_off_c, 1, 60, 100
3, 125472, Note_on_c, 1, 63, 94
3, 125564, Note_off_c, 1, 63, 100
3, 125568, Note_on_c, 1, 59, 95
3, 125660, Note_off_c, 1, 59, 100
3, 125664, Note_on_c, 1, 61, 96
3, 125756, Note_off_c, 1, 61, 100
3, 125760, Note_on_c, 1, 59, 98
3, 125852, Note_off_c, 1, 59, 100
3, 125856, Note_on_c, 1, 61, 99
3, 125948, Note_off_c, 1, 61, 100
3, 125952, Note_on_c, 1, 59, 100
3, 126044, Note_off_c, 1, 59, 100
3, 126048, Note_on_c, 1, 61, 102
3, 126140, Note_off_c, 1, 61, 100
3, 126144, Note_on_c, 1, 58, 103
3, 126236, Note_off_c, 1, 58, 100
3, 126240, Note_on_c, 1, 61, 104
3, 126332, Note_off_c, 1, 61, 100
3, 126336, Note_on_c, 1, 59, 106
3, 126428, Note_off_c, 1, 59, 100
3, 126432, Note_on_c, 1, 61, 107
3, 126524, Note_off_c, 1, 61, 100
3, 126528, Note_on_c, 1, 58, 108
3, 126620, Note_off_c, 1, 58, 100
3, 126624, Note_on_c, 1, 61, 109
3, 126716, Note_off_c, 1, 61, 100
3, 126720, Note_on_c, 1, 59, 110
3, 126812, Note_off_c, 1, 59, 100
3, 126816, Note_on_c, 1, 61, 110
3, 126908, Note_off_c, 1, 61, 100
3, 126912, Note_on_c, 1, 58, 110
3, 127004, Note_off_c, 1, 58, 100
3, 127008, Note_on_c, 1, 61, 110
3, 127100, Note_off_c, 1, 61, 100
3, 127104, Note_on_c, 1, 58, 110
3, 127196, Note_off_c, 1, 58, 100
3, 127200, Note_on_c, 1, 59, 110
3, 127292, Note_off_c, 1, 59, 100
3, 127296, Note_on_c, 1, 58, 110
3, 127388, Note_off_c, 1, 58, 100
3, 127392, Note_on_c, 1, 59, 110
3, 127484, Note_off_c, 1, 59, 100
3, 127488, Note_on_c, 1, 58, 110
3, 127580, Note_off_c, 1, 58, 100
3, 127584, Note_on_c, 1, 59, 110
3, 127676, Note_off_c, 1, 59, 100
3, 127680, Note_on_c, 1, 56, 110
3, 127772, Note_off_c, 1, 56, 100
3, 127776, Note_on_c, 1, 59, 110
3, 127868, Note_off_c, 1, 59, 100
3, 127872, Note_on_c, 1, 56, 110
3, 127964, Note_off_c, 1, 56, 100
3, 127968, Note_on_c, 1, 58, 110
3, 128060, Note_off_c, 1, 58, 100
3, 128064, Note_on_c, 1, 54, 110
3, 128156, Note_off_c, 1, 54, 100
3, 128160, Note_on_c, 1, 58, 110
3, 128252, Note_off_c, 1, 58, 100
3, 128256, Note_on_c, 1, 54, 110
3, 128348, Note_off_c, 1, 54, 100
3, 128352, Note_on_c, 1, 56, 110
3, 128444, Note_off_c, 1, 56, 100
3, 128448, Note_on_c, 1, 53, 110
3, 128540, Note_off_c, 1, 53, 100
3, 128544, Note_on_c, 1, 56, 110
3, 128636, Note_off_c, 1, 56, 100
3, 128640, Note_on_c, 1, 53, 110
3, 128732, Note_off_c, 1, 53, 100
3, 128736, Note_on_c, 1, 54, 110
3, 128828, Note_off_c, 1, 54, 100
3, 128832, Note_on_c, 1, 51, 110
3, 128924, Note_off_c, 1, 51, 100
3, 128928, Note_on_c, 1, 54, 110
3, 129020, Note_off_c, 1, 54, 100
3, 129024, Note_on_c, 1, 51, 110
3, 129116, Note_off_c, 1, 51, 100
3, 129120, Note_on_c, 1, 53, 110
3, 129212, Note_off_c, 1, 53, 100
3, 129216, Note_on_c, 1, 49, 110
3, 129308, Note_off_c, 1, 49, 100
3, 129312, Note_on_c, 1, 53, 110
3, 129404, Note_off_c, 1, 53, 100
3, 129408, Note_on_c, 1, 49, 120
3, 129500, Note_off_c, 1, 49, 100
3, 129504, Note_on_c, 1, 53, 120
3, 129596, Note_off_c, 1, 53, 100
3, 129600, Note_on_c, 1, 49, 120
3, 129692, Note_off_c, 1, 49, 100
3, 129696, Note_on_c, 1, 53, 120
3, 129788, Note_off_c, 1, 53, 100
3, 129792, Note_on_c, 1, 49, 120
3, 129884, Note_off_c, 1, 49, 100
3, 129888, Note_on_c, 1, 53, 120
3, 129980, Note_off_c, 1, 53, 100
3, 129984, Note_on_c, 1, 49, 120
3, 130076, Note_off_c, 1, 49, 100
3, 130080, Note_on_c, 1, 53, 120
3, 130172, Note_off_c, 1, 53, 100
3, 130176, Note_on_c, 1, 37, 120
3, 130268, Note_off_c, 1, 37, 100
3, 130272, Note_on_c, 1, 49, 120
3, 130364, Note_off_c, 1, 49, 100
3, 130368, Note_on_c, 1, 37, 120
3, 130460, Note_off_c, 1, 37, 100
3, 130464, Note_on_c, 1, 49, 120
3, 130556, Note_off_c, 1, 49, 100
3, 130560, Note_on_c, 1, 48, 120
3, 130560, Note_on_c, 1, 36, 120
3, 130748, Note_off_c, 1, 48, 100
3, 130748, Note_off_c, 1, 36, 100
3, 130752, Note_on_c, 1, 61, 80
3, 130940, Note_off_c, 1, 61, 100
3, 130944, Note_on_c, 1, 59, 80
3, 131132, Note_off_c, 1, 59, 100
3, 131136, Note_on_c, 1, 60, 80
3, 131324, Note_off_c, 1, 60, 100
3, 131328, Note_on_c, 1, 48, 80
3, 131516, Note_off_c, 1, 48, 100
3, 131520, Note_on_c, 1, 61, 80
3, 131708, Note_off_c, 1, 61, 100
3, 131712, Note_on_c, 1, 59, 80
3, 131900, Note_off_c, 1, 59, 100
3, 131904, Note_on_c, 1, 60, 80
3, 132092, Note_off_c, 1, 60, 100
3, 132096, Note_on_c, 1, 48, 80
3, 132284, Note_off_c, 1, 48, 100
3, 132288, Note_on_c, 1, 61, 80
3, 132476, Note_off_c, 1, 61, 100
3, 132480, Note_on_c, 1, 59, 80
3, 132668, Note_off_c, 1, 59, 100
3, 132672, Note_on_c, 1, 60, 80
3, 132860, Note_off_c, 1, 60, 100
3, 132864, Note_on_c, 1, 48, 80
3, 133052, Note_off_c, 1, 48, 100
3, 133056, Note_on_c, 1, 61, 80
3, 133244, Note_off_c, 1, 61, 100
3, 133248, Note_on_c, 1, 59, 80
3, 133436, Note_off_c, 1, 59, 100
3, 133440, Note_on_c, 1, 60, 80
3, 133628, Note_off_c, 1, 60, 100
3, 133632, Note_on_c, 1, 52, 80
3, 133820, Note_off_c, 1, 52, 100
3, 133824, Note_on_c, 1, 62, 80
3, 134012, Note_off_c, 1, 62, 100
3, 134016, Note_on_c, 1, 59, 80
3, 134108, Note_off_c, 1, 59, 100
3, 134208, Note_on_c, 1, 62, 80
3, 134396, Note_off_c, 1, 62, 100
3, 134400, Note_on_c, 1, 59, 80
3, 134492, Note_off_c, 1, 59, 100
3, 134592, Note_on_c, 1, 62, 80
3, 134780, Note_off_c, 1, 62, 100
3, 134784, Note_on_c, 1, 59, 80
3, 134876, Note_off_c, 1, 59, 100
3, 134976, Note_on_c, 1, 62, 80
3, 135164, Note_off_c, 1, 62, 100
3, 135168, Note_on_c, 1, 59, 80
3, 135260, Note_off_c, 1, 59, 100
3, 135360, Note_on_c, 1, 60, 80
3, 135548, Note_off_c, 1, 60, 100
3, 135552, Note_on_c, 1, 59, 80
3, 135644, Note_off_c, 1, 59, 100
3, 135744, Note_on_c, 1, 60, 80
3, 135932, Note_off_c, 1, 60, 100
3, 135936, Note_on_c, 1, 59, 80
3, 136028, Note_off_c, 1, 59, 100
3, 136128, Note_on_c, 1, 60, 80
3, 136316, Note_off_c, 1, 60, 100
3, 136320, Note_on_c, 1, 59, 80
3, 136412, Note_off_c, 1, 59, 100
3, 136512, Note_on_c, 1, 60, 80
3, 136700, Note_off_c, 1, 60, 100
3, 136704, Note_on_c, 1, 58, 80
3, 136752, Note_on_c, 1, 60, 80
3, 136796, Note_off_c, 1, 58, 100
3, 136800, Note_on_c, 1, 58, 80
3, 136828, Note_off_c, 1, 60, 100
3, 136848, Note_on_c, 1, 60, 80
3, 136880, Note_off_c, 1, 58, 100
3, 136896, Note_on_c, 1, 58, 80
3, 136932, Note_off_c, 1, 60, 100
3, 136944, Note_on_c, 1, 60, 80
3, 136988, Note_off_c, 1, 58, 100
3, 136992, Note_on_c, 1, 58, 80
3, 137020, Note_off_c, 1, 60, 100
3, 137040, Note_on_c, 1, 60, 80
3, 137072, Note_off_c, 1, 58, 100
3, 137088, Note_on_c, 1, 58, 80
3, 137124, Note_off_c, 1, 60, 100
3, 137136, Note_on_c, 1, 60, 80
3, 137180, Note_off_c, 1, 58, 100
3, 137184, Note_on_c, 1, 58, 80
3, 137212, Note_off_c, 1, 60, 100
3, 137232, Note_on_c, 1, 60, 80
3, 137264, Note_off_c, 1, 58, 100
3, 137280, Note_on_c, 1, 58, 80
3, 137316, Note_off_c, 1, 60, 100
3, 137328, Note_on_c, 1, 60, 80
3, 137372, Note_off_c, 1, 58, 100
3, 137376, Note_on_c, 1, 58, 80
3, 137404, Note_off_c, 1, 60, 100
3, 137424, Note_on_c, 1, 60, 80
3, 137456, Note_off_c, 1, 58, 100
3, 137472, Note_on_c, 1, 58, 80
3, 137508, Note_off_c, 1, 60, 100
3, 137520, Note_on_c, 1, 60, 80
3, 137564, Note_off_c, 1, 58, 100
3, 137568, Note_on_c, 1, 58, 80
3, 137596, Note_off_c, 1, 60, 100
3, 137616, Note_on_c, 1, 60, 80
3, 137648, Note_off_c, 1, 58, 100
3, 137664, Note_on_c, 1, 58, 80
3, 137700, Note_off_c, 1, 60, 100
3, 137712, Note_on_c, 1, 60, 80
3, 137756, Note_off_c, 1, 58, 100
3, 137760, Note_on_c, 1, 58, 80
3, 137788, Note_off_c, 1, 60, 100
3, 137808, Note_on_c, 1, 60, 80
3, 137840, Note_off_c, 1, 58, 100
3, 137856, Note_on_c, 1, 58, 80
3, 137892, Note_off_c, 1, 60, 100
3, 137904, Note_on_c, 1, 60, 80
3, 137948, Note_off_c, 1, 58, 100
3, 137952, Note_on_c, 1, 58, 80
3, 137980, Note_off_c, 1, 60, 100
3, 138000, Note_on_c, 1, 60, 80
3, 138032, Note_off_c, 1, 58, 100
3, 138048, Note_on_c, 1, 58, 80
3, 138084, Note_off_c, 1, 60, 100
3, 138096, Note_on_c, 1, 60, 80
3, 138140, Note_off_c, 1, 58, 100
3, 138144, Note_on_c, 1, 57, 80
3, 138172, Note_off_c, 1, 60, 100
3, 138192, Note_on_c, 1, 58, 80
3, 138224, Note_off_c, 1, 57, 100
3, 138236, Note_off_c, 1, 58, 100
3, 138240, Note_on_c, 1, 45, 80
3, 138332, Note_off_c, 1, 45, 100
3, 138336, Note_on_c, 1, 49, 80
3, 138428, Note_off_c, 1, 49, 100
3, 138432, Note_on_c, 1, 52, 80
3, 138524, Note_off_c, 1, 52, 100
3, 138528, Note_on_c, 1, 57, 80
3, 138620, Note_off_c, 1, 57, 100
3, 138624, Note_on_c, 1, 47, 80
3, 138716, Note_off_c, 1, 47, 100
3, 138720, Note_on_c, 1, 56, 80
3, 138812, Note_off_c, 1, 56, 100
3, 138816, Note_on_c, 1, 49, 80
3, 138908, Note_off_c, 1, 49, 100
3, 138912, Note_on_c, 1, 57, 80
3, 139004, Note_off_c, 1, 57, 100
3, 139008, Note_on_c, 1, 50, 80
3, 139100, Note_off_c, 1, 50, 100
3, 139104, Note_on_c, 1, 59, 80
3, 139196, Note_off_c, 1, 59, 100
3, 139200, Note_on_c, 1, 52, 80
3, 139292, Note_off_c, 1, 52, 100
3, 139296, Note_on_c, 1, 61, 80
3, 139388, Note_off_c, 1, 61, 100
3, 139392, Note_on_c, 1, 54, 80
3, 139484, Note_off_c, 1, 54, 100
3, 139488, Note_on_c, 1, 62, 80
3, 139580, Note_off_c, 1, 62, 100
3, 139584, Note_on_c, 1, 56, 80
3, 139676, Note_off_c, 1, 56, 100
3, 139680, Note_on_c, 1, 64, 80
3, 139772, Note_off_c, 1, 64, 100
3, 139776, Note_on_c, 1, 61, 80
3, 139868, Note_off_c, 1, 61, 100
3, 139872, Note_on_c, 1, 57, 103
3, 141308, Note_off_c, 1, 57, 64
3, 141312, Note_on_c, 1, 57, 80
3, 141404, Note_off_c, 1, 57, 100
3, 141408, Note_on_c, 1, 61, 80
3, 141500, Note_off_c, 1, 61, 100
3, 141504, Note_on_c, 1, 64, 80
3, 141596, Note_off_c, 1, 64, 100
3, 141600, Note_on_c, 1, 69, 80
3, 141692, Note_off_c, 1, 69, 100
3, 141696, Note_on_c, 1, 59, 80
3, 141788, Note_off_c, 1, 59, 100
3, 141792, Note_on_c, 1, 68, 80
3, 141884, Note_off_c, 1, 68, 100
3, 141888, Note_on_c, 1, 61, 80
3, 141980, Note_off_c, 1, 61, 100
3, 141984, Note_on_c, 1, 69, 80
3, 142076, Note_off_c, 1, 69, 100
3, 142080, Note_on_c, 1, 62, 80
3, 142172, Note_off_c, 1, 62, 100
3, 142176, Note_on_c, 1, 71, 80
3, 142268, Note_off_c, 1, 71, 100
3, 142272, Note_on_c, 1, 64, 80
3, 142364, Note_off_c, 1, 64, 100
3, 142368, Note_on_c, 1, 73, 80
3, 142460, Note_off_c, 1, 73, 100
3, 142464, Note_on_c, 1, 66, 80
3, 142556, Note_off_c, 1, 66, 100
3, 142560, Note_on_c, 1, 74, 80
3, 142652, Note_off_c, 1, 74, 100
3, 142656, Note_on_c, 1, 68, 80
3, 142748, Note_off_c, 1, 68, 100
3, 142752, Note_on_c, 1, 76, 80
3, 142844, Note_off_c, 1, 76, 100
3, 142848, Note_on_c, 1, 73, 80
3, 142940, Note_off_c, 1, 73, 100
3, 142944, Note_on_c, 1, 69, 80
3, 143804, Note_off_c, 1, 69, 64
3, 143808, Note_on_c, 1, 79, 80
3, 143996, Note_off_c, 1, 79, 100
3, 144000, Note_on_c, 1, 77, 80
3, 144188, Note_off_c, 1, 77, 100
3, 144192, Note_on_c, 1, 73, 80
3, 144380, Note_off_c, 1, 73, 100
3, 144384, Note_on_c, 1, 74, 80
3, 144476, Note_off_c, 1, 74, 100
3, 144480, Note_on_c, 1, 77, 80
3, 144572, Note_off_c, 1, 77, 100
3, 144576, Note_on_c, 1, 69, 80
3, 144668, Note_off_c, 1, 69, 100
3, 144672, Note_on_c, 1, 76, 80
3, 144764, Note_off_c, 1, 76, 100
3, 144768, Note_on_c, 1, 70, 80
3, 144860, Note_off_c, 1, 70, 100
3, 144864, Note_on_c, 1, 74, 80
3, 144956, Note_off_c, 1, 74, 100
3, 144960, Note_on_c, 1, 65, 80
3, 145052, Note_off_c, 1, 65, 100
3, 145056, Note_on_c, 1, 72, 80
3, 145148, Note_off_c, 1, 72, 100
3, 145152, Note_on_c, 1, 67, 80
3, 145244, Note_off_c, 1, 67, 100
3, 145248, Note_on_c, 1, 70, 80
3, 145340, Note_off_c, 1, 70, 100
3, 145344, Note_on_c, 1, 62, 80
3, 145436, Note_off_c, 1, 62, 100
3, 145440, Note_on_c, 1, 69, 80
3, 145532, Note_off_c, 1, 69, 100
3, 145536, Note_on_c, 1, 63, 80
3, 145628, Note_off_c, 1, 63, 100
3, 145632, Note_on_c, 1, 67, 80
3, 145724, Note_off_c, 1, 67, 100
3, 145728, Note_on_c, 1, 62, 80
3, 145820, Note_off_c, 1, 62, 100
3, 145824, Note_on_c, 1, 65, 80
3, 145916, Note_off_c, 1, 65, 100
3, 145920, Note_on_c, 1, 61, 80
3, 146012, Note_off_c, 1, 61, 100
3, 146016, Note_on_c, 1, 64, 80
3, 146108, Note_off_c, 1, 64, 100
3, 146112, Note_on_c, 1, 57, 80
3, 146204, Note_off_c, 1, 57, 100
3, 146208, Note_on_c, 1, 64, 80
3, 146300, Note_off_c, 1, 64, 100
3, 146304, Note_on_c, 1, 58, 80
3, 146396, Note_off_c, 1, 58, 100
3, 146400, Note_on_c, 1, 62, 80
3, 146492, Note_off_c, 1, 62, 100
3, 146496, Note_on_c, 1, 55, 80
3, 146588, Note_off_c, 1, 55, 100
3, 146592, Note_on_c, 1, 67, 80
3, 146684, Note_off_c, 1, 67, 100
3, 146688, Note_on_c, 1, 57, 80
3, 146780, Note_off_c, 1, 57, 100
3, 146784, Note_on_c, 1, 65, 80
3, 146876, Note_off_c, 1, 65, 100
3, 146880, Note_on_c, 1, 57, 80
3, 146972, Note_off_c, 1, 57, 100
3, 146976, Note_on_c, 1, 65, 80
3, 147068, Note_off_c, 1, 65, 100
3, 147072, Note_on_c, 1, 57, 80
3, 147164, Note_off_c, 1, 57, 100
3, 147168, Note_on_c, 1, 64, 80
3, 147260, Note_off_c, 1, 64, 100
3, 147264, Note_on_c, 1, 57, 80
3, 147356, Note_off_c, 1, 57, 100
3, 147360, Note_on_c, 1, 64, 80
3, 147452, Note_off_c, 1, 64, 100
3, 147456, Note_on_c, 1, 62, 80
3, 147548, Note_off_c, 1, 62, 100
3, 147552, Note_on_c, 1, 65, 80
3, 147644, Note_off_c, 1, 65, 100
3, 147648, Note_on_c, 1, 57, 80
3, 147740, Note_off_c, 1, 57, 100
3, 147744, Note_on_c, 1, 64, 80
3, 147836, Note_off_c, 1, 64, 100
3, 147840, Note_on_c, 1, 58, 80
3, 147932, Note_off_c, 1, 58, 100
3, 147936, Note_on_c, 1, 62, 80
3, 148028, Note_off_c, 1, 62, 100
3, 148032, Note_on_c, 1, 53, 80
3, 148124, Note_off_c, 1, 53, 100
3, 148128, Note_on_c, 1, 60, 80
3, 148220, Note_off_c, 1, 60, 100
3, 148224, Note_on_c, 1, 55, 80
3, 148316, Note_off_c, 1, 55, 100
3, 148320, Note_on_c, 1, 58, 80
3, 148412, Note_off_c, 1, 58, 100
3, 148416, Note_on_c, 1, 50, 80
3, 148508, Note_off_c, 1, 50, 100
3, 148512, Note_on_c, 1, 57, 80
3, 148604, Note_off_c, 1, 57, 100
3, 148608, Note_on_c, 1, 51, 80
3, 148700, Note_off_c, 1, 51, 100
3, 148704, Note_on_c, 1, 55, 80
3, 148796, Note_off_c, 1, 55, 100
3, 148800, Note_on_c, 1, 50, 80
3, 148892, Note_off_c, 1, 50, 100
3, 148896, Note_on_c, 1, 53, 80
3, 148988, Note_off_c, 1, 53, 100
3, 148992, Note_on_c, 1, 49, 80
3, 149084, Note_off_c, 1, 49, 100
3, 149088, Note_on_c, 1, 52, 81
3, 149180, Note_off_c, 1, 52, 100
3, 149184, Note_on_c, 1, 45, 82
3, 149276, Note_off_c, 1, 45, 100
3, 149280, Note_on_c, 1, 52, 83
3, 149372, Note_off_c, 1, 52, 100
3, 149376, Note_on_c, 1, 46, 85
3, 149468, Note_off_c, 1, 46, 100
3, 149472, Note_on_c, 1, 50, 86
3, 149564, Note_off_c, 1, 50, 100
3, 149568, Note_on_c, 1, 43, 87
3, 149660, Note_off_c, 1, 43, 100
3, 149664, Note_on_c, 1, 55, 89
3, 149756, Note_off_c, 1, 55, 100
3, 149760, Note_on_c, 1, 45, 90
3, 149852, Note_off_c, 1, 45, 100
3, 149856, Note_on_c, 1, 53, 91
3, 149948, Note_off_c, 1, 53, 100
3, 149952, Note_on_c, 1, 45, 93
3, 150044, Note_off_c, 1, 45, 100
3, 150048, Note_on_c, 1, 53, 94
3, 150140, Note_off_c, 1, 53, 100
3, 150144, Note_on_c, 1, 45, 95
3, 150236, Note_off_c, 1, 45, 100
3, 150240, Note_on_c, 1, 52, 97
3, 150332, Note_off_c, 1, 52, 100
3, 150336, Note_on_c, 1, 45, 98
3, 150428, Note_off_c, 1, 45, 100
3, 150432, Note_on_c, 1, 52, 99
3, 150524, Note_off_c, 1, 52, 100
3, 150528, Note_on_c, 1, 44, 110
3, 150528, Note_on_c, 1, 32, 110
3, 151292, Note_off_c, 1, 44, 100
3, 151292, Note_off_c, 1, 32, 100
3, 151296, Note_on_c, 1, 43, 110
3, 151296, Note_on_c, 1, 31, 110
3, 152060, Note_off_c, 1, 43, 100
3, 152060, Note_off_c, 1, 31, 100
3, 152064, Note_on_c, 1, 42, 110
3, 152064, Note_on_c, 1, 30, 110
3, 152828, Note_off_c, 1, 42, 100
3, 152828, Note_off_c, 1, 30, 100
3, 152832, Note_on_c, 1, 41, 110
3, 152832, Note_on_c, 1, 29, 110
3, 153596, Note_off_c, 1, 41, 100
3, 153596, Note_off_c, 1, 29, 100
3, 153600, Note_on_c, 1, 40, 110
3, 153600, Note_on_c, 1, 28, 110
3, 154364, Note_off_c, 1, 40, 100
3, 154364, Note_off_c, 1, 28, 100
3, 154368, Note_on_c, 1, 39, 110
3, 154368, Note_on_c, 1, 27, 110
3, 155132, Note_off_c, 1, 39, 100
3, 155132, Note_off_c, 1, 27, 100
3, 155136, Note_on_c, 1, 38, 110
3, 155136, Note_on_c, 1, 26, 110
3, 155900, Note_off_c, 1, 38, 100
3, 155900, Note_off_c, 1, 26, 100
3, 155904, Note_on_c, 1, 50, 110
3, 155904, Note_on_c, 1, 38, 110
3, 156668, Note_off_c, 1, 50, 100
3, 156668, Note_off_c, 1, 38, 100
3, 156672, Note_on_c, 1, 31, 110
3, 156764, Note_off_c, 1, 31, 100
3, 156768, Note_on_c, 1, 35, 110
3, 156860, Note_off_c, 1, 35, 100
3, 156864, Note_on_c, 1, 38, 110
3, 156956, Note_off_c, 1, 38, 100
3, 156960, Note_on_c, 1, 43, 110
3, 157052, Note_off_c, 1, 43, 100
3, 157056, Note_on_c, 1, 33, 110
3, 157148, Note_off_c, 1, 33, 100
3, 157152, Note_on_c, 1, 42, 110
3, 157244, Note_off_c, 1, 42, 100
3, 157248, Note_on_c, 1, 35, 110
3, 157340, Note_off_c, 1, 35, 100
3, 157344, Note_on_c, 1, 43, 110
3, 157436, Note_off_c, 1, 43, 100
3, 157440, Note_on_c, 1, 36, 110
3, 157532, Note_off_c, 1, 36, 100
3, 157536, Note_on_c, 1, 45, 110
3, 157628, Note_off_c, 1, 45, 100
3, 157632, Note_on_c, 1, 38, 110
3, 157724, Note_off_c, 1, 38, 100
3, 157728, Note_on_c, 1, 47, 110
3, 157820, Note_off_c, 1, 47, 100
3, 157824, Note_on_c, 1, 40, 110
3, 157916, Note_off_c, 1, 40, 100
3, 157920, Note_on_c, 1, 48, 110
3, 158012, Note_off_c, 1, 48, 100
3, 158016, Note_on_c, 1, 42, 110
3, 158108, Note_off_c, 1, 42, 100
3, 158112, Note_on_c, 1, 50, 110
3, 158204, Note_off_c, 1, 50, 100
3, 158208, Note_on_c, 1, 46, 80
3, 158300, Note_off_c, 1, 46, 100
3, 158304, Note_on_c, 1, 43, 80
3, 158588, Note_off_c, 1, 43, 100
3, 158592, Note_on_c, 1, 50, 80
3, 158780, Note_off_c, 1, 50, 100
3, 158784, Note_on_c, 1, 50, 80
3, 159164, Note_off_c, 1, 50, 64
3, 159168, Note_on_c, 1, 50, 80
3, 159548, Note_off_c, 1, 50, 100
3, 159552, Note_on_c, 1, 50, 80
3, 159740, Note_off_c, 1, 50, 100
3, 159744, Note_on_c, 1, 43, 110
3, 159836, Note_off_c, 1, 43, 100
3, 159840, Note_on_c, 1, 47, 110
3, 159932, Note_off_c, 1, 47, 100
3, 159936, Note_on_c, 1, 50, 110
3, 160028, Note_off_c, 1, 50, 100
3, 160032, Note_on_c, 1, 55, 110
3, 160124, Note_off_c, 1, 55, 100
3, 160128, Note_on_c, 1, 45, 110
3, 160220, Note_off_c, 1, 45, 100
3, 160224, Note_on_c, 1, 54, 110
3, 160316, Note_off_c, 1, 54, 100
3, 160320, Note_on_c, 1, 47, 110
3, 160412, Note_off_c, 1, 47, 100
3, 160416, Note_on_c, 1, 55, 110
3, 160508, Note_off_c, 1, 55, 100
3, 160512, Note_on_c, 1, 48, 110
3, 160604, Note_off_c, 1, 48, 100
3, 160608, Note_on_c, 1, 57, 110
3, 160700, Note_off_c, 1, 57, 100
3, 160704, Note_on_c, 1, 50, 110
3, 160796, Note_off_c, 1, 50, 100
3, 160800, Note_on_c, 1, 59, 110
3, 160892, Note_off_c, 1, 59, 100
3, 160896, Note_on_c, 1, 52, 110
3, 160988, Note_off_c, 1, 52, 100
3, 160992, Note_on_c, 1, 60, 110
3, 161084, Note_off_c, 1, 60, 100
3, 161088, Note_on_c, 1, 54, 110
3, 161180, Note_off_c, 1, 54, 100
3, 161184, Note_on_c, 1, 62, 110
3, 161276, Note_off_c, 1, 62, 100
3, 161280, Note_on_c, 1, 59, 80
3, 161372, Note_off_c, 1, 59, 100
3, 161376, Note_on_c, 1, 55, 80
3, 161852, Note_off_c, 1, 55, 100
3, 161856, Note_on_c, 1, 55, 80
3, 162236, Note_off_c, 1, 55, 64
3, 162240, Note_on_c, 1, 55, 80
3, 162620, Note_off_c, 1, 55, 100
3, 162624, Note_on_c, 1, 55, 80
3, 162812, Note_off_c, 1, 55, 100
3, 162816, Note_on_c, 1, 36, 110
3, 162908, Note_off_c, 1, 36, 100
3, 162912, Note_on_c, 1, 39, 110
3, 163004, Note_off_c, 1, 39, 100
3, 163008, Note_on_c, 1, 43, 110
3, 163100, Note_off_c, 1, 43, 100
3, 163104, Note_on_c, 1, 48, 110
3, 163196, Note_off_c, 1, 48, 100
3, 163200, Note_on_c, 1, 38, 110
3, 163292, Note_off_c, 1, 38, 100
3, 163296, Note_on_c, 1, 47, 110
3, 163388, Note_off_c, 1, 47, 100
3, 163392, Note_on_c, 1, 39, 110
3, 163484, Note_off_c, 1, 39, 100
3, 163488, Note_on_c, 1, 48, 110
3, 163580, Note_off_c, 1, 48, 100
3, 163584, Note_on_c, 1, 41, 110
3, 163676, Note_off_c, 1, 41, 100
3, 163680, Note_on_c, 1, 50, 110
3, 163772, Note_off_c, 1, 50, 100
3, 163776, Note_on_c, 1, 43, 110
3, 163868, Note_off_c, 1, 43, 100
3, 163872, Note_on_c, 1, 51, 110
3, 163964, Note_off_c, 1, 51, 100
3, 163968, Note_on_c, 1, 45, 110
3, 164060, Note_off_c, 1, 45, 100
3, 164064, Note_on_c, 1, 53, 110
3, 164156, Note_off_c, 1, 53, 100
3, 164160, Note_on_c, 1, 47, 110
3, 164252, Note_off_c, 1, 47, 100
3, 164256, Note_on_c, 1, 55, 110
3, 164348, Note_off_c, 1, 55, 100
3, 164352, Note_on_c, 1, 51, 100
3, 164444, Note_off_c, 1, 51, 100
3, 164448, Note_on_c, 1, 48, 94
3, 164732, Note_off_c, 1, 48, 100
3, 164736, Note_on_c, 1, 55, 80
3, 164924, Note_off_c, 1, 55, 100
3, 164928, Note_on_c, 1, 55, 80
3, 165308, Note_off_c, 1, 55, 64
3, 165312, Note_on_c, 1, 55, 80
3, 165692, Note_off_c, 1, 55, 100
3, 165696, Note_on_c, 1, 55, 80
3, 165884, Note_off_c, 1, 55, 100
3, 165888, Note_on_c, 1, 48, 110
3, 165980, Note_off_c, 1, 48, 100
3, 165984, Note_on_c, 1, 51, 110
3, 166076, Note_off_c, 1, 51, 100
3, 166080, Note_on_c, 1, 55, 110
3, 166172, Note_off_c, 1, 55, 100
3, 166176, Note_on_c, 1, 60, 110
3, 166268, Note_off_c, 1, 60, 100
3, 166272, Note_on_c, 1, 50, 110
3, 166364, Note_off_c, 1, 50, 100
3, 166368, Note_on_c, 1, 59, 110
3, 166460, Note_off_c, 1, 59, 100
3, 166464, Note_on_c, 1, 51, 110
3, 166556, Note_off_c, 1, 51, 100
3, 166560, Note_on_c, 1, 60, 110
3, 166652, Note_off_c, 1, 60, 100
3, 166656, Note_on_c, 1, 53, 110
3, 166748, Note_off_c, 1, 53, 100
3, 166752, Note_on_c, 1, 62, 110
3, 166844, Note_off_c, 1, 62, 100
3, 166848, Note_on_c, 1, 55, 110
3, 166940, Note_off_c, 1, 55, 100
3, 166944, Note_on_c, 1, 63, 110
3, 167036, Note_off_c, 1, 63, 100
3, 167040, Note_on_c, 1, 57, 110
3, 167132, Note_off_c, 1, 57, 100
3, 167136, Note_on_c, 1, 65, 110
3, 167228, Note_off_c, 1, 65, 100
3, 167232, Note_on_c, 1, 59, 110
3, 167324, Note_off_c, 1, 59, 100
3, 167328, Note_on_c, 1, 67, 110
3, 167420, Note_off_c, 1, 67, 100
3, 167424, Note_on_c, 1, 65, 110
3, 167516, Note_off_c, 1, 65, 100
3, 167520, Note_on_c, 1, 60, 110
3, 167996, Note_off_c, 1, 60, 100
3, 168000, Note_on_c, 1, 60, 110
3, 168380, Note_off_c, 1, 60, 64
3, 168384, Note_on_c, 1, 60, 110
3, 168764, Note_off_c, 1, 60, 100
3, 168768, Note_on_c, 1, 60, 110
3, 168860, Note_off_c, 1, 60, 100
3, 168864, Note_on_c, 1, 70, 110
3, 168956, Note_off_c, 1, 70, 100
3, 168960, Note_on_c, 1, 65, 110
3, 169052, Note_off_c, 1, 65, 100
3, 169056, Note_on_c, 1, 68, 110
3, 169148, Note_off_c, 1, 68, 100
3, 169152, Note_on_c, 1, 60, 110
3, 169244, Note_off_c, 1, 60, 100
3, 169248, Note_on_c, 1, 67, 110
3, 169340, Note_off_c, 1, 67, 100
3, 169344, Note_on_c, 1, 61, 110
3, 169436, Note_off_c, 1, 61, 100
3, 169440, Note_on_c, 1, 65, 110
3, 169532, Note_off_c, 1, 65, 100
3, 169536, Note_on_c, 1, 56, 110
3, 169628, Note_off_c, 1, 56, 100
3, 169632, Note_on_c, 1, 63, 110
3, 169724, Note_off_c, 1, 63, 100
3, 169728, Note_on_c, 1, 58, 110
3, 169820, Note_off_c, 1, 58, 100
3, 169824, Note_on_c, 1, 61, 110
3, 169916, Note_off_c, 1, 61, 100
3, 169920, Note_on_c, 1, 53, 110
3, 170012, Note_off_c, 1, 53, 100
3, 170016, Note_on_c, 1, 60, 110
3, 170108, Note_off_c, 1, 60, 100
3, 170112, Note_on_c, 1, 54, 110
3, 170204, Note_off_c, 1, 54, 100
3, 170208, Note_on_c, 1, 58, 110
3, 170300, Note_off_c, 1, 58, 100
3, 170304, Note_on_c, 1, 49, 110
3, 170396, Note_off_c, 1, 49, 100
3, 170400, Note_on_c, 1, 56, 110
3, 170492, Note_off_c, 1, 56, 100
3, 170496, Note_on_c, 1, 51, 110
3, 170588, Note_off_c, 1, 51, 100
3, 170592, Note_on_c, 1, 54, 110
3, 170684, Note_off_c, 1, 54, 100
3, 170688, Note_on_c, 1, 49, 111
3, 170780, Note_off_c, 1, 49, 100
3, 170784, Note_on_c, 1, 53, 111
3, 170876, Note_off_c, 1, 53, 100
3, 170880, Note_on_c, 1, 48, 112
3, 170972, Note_off_c, 1, 48, 100
3, 170976, Note_on_c, 1, 51, 113
3, 171068, Note_off_c, 1, 51, 100
3, 171072, Note_on_c, 1, 44, 113
3, 171164, Note_off_c, 1, 44, 100
3, 171168, Note_on_c, 1, 51, 114
3, 171260, Note_off_c, 1, 51, 100
3, 171264, Note_on_c, 1, 49, 115
3, 171356, Note_off_c, 1, 49, 100
3, 171360, Note_on_c, 1, 53, 115
3, 171452, Note_off_c, 1, 53, 100
3, 171456, Note_on_c, 1, 42, 116
3, 171548, Note_off_c, 1, 42, 100
3, 171552, Note_on_c, 1, 54, 117
3, 171644, Note_off_c, 1, 54, 100
3, 171648, Note_on_c, 1, 44, 117
3, 171740, Note_off_c, 1, 44, 100
3, 171744, Note_on_c, 1, 53, 118
3, 171836, Note_off_c, 1, 53, 100
3, 171840, Note_on_c, 1, 44, 119
3, 171932, Note_off_c, 1, 44, 100
3, 171936, Note_on_c, 1, 51, 119
3, 172028, Note_off_c, 1, 51, 100
3, 172032, Note_on_c, 1, 44, 120
3, 172124, Note_off_c, 1, 44, 100
3, 172128, Note_on_c, 1, 50, 119
3, 172220, Note_off_c, 1, 50, 100
3, 172224, Note_on_c, 1, 44, 118
3, 172316, Note_off_c, 1, 44, 100
3, 172320, Note_on_c, 1, 50, 116
3, 172412, Note_off_c, 1, 50, 100
3, 172416, Note_on_c, 1, 44, 115
3, 172508, Note_off_c, 1, 44, 100
3, 172512, Note_on_c, 1, 50, 113
3, 172604, Note_off_c, 1, 50, 100
3, 172608, Note_on_c, 1, 44, 112
3, 172700, Note_off_c, 1, 44, 100
3, 172704, Note_on_c, 1, 50, 111
3, 172796, Note_off_c, 1, 50, 100
3, 172800, Note_on_c, 1, 43, 80
3, 172892, Note_off_c, 1, 43, 100
3, 172896, Note_on_c, 1, 50, 80
3, 172988, Note_off_c, 1, 50, 100
3, 172992, Note_on_c, 1, 43, 80
3, 173084, Note_off_c, 1, 43, 100
3, 173088, Note_on_c, 1, 50, 80
3, 173180, Note_off_c, 1, 50, 100
3, 173184, Note_on_c, 1, 43, 80
3, 173276, Note_off_c, 1, 43, 100
3, 173280, Note_on_c, 1, 50, 80
3, 173372, Note_off_c, 1, 50, 100
3, 173376, Note_on_c, 1, 43, 80
3, 173468, Note_off_c, 1, 43, 100
3, 173472, Note_on_c, 1, 50, 80
3, 173564, Note_off_c, 1, 50, 100
3, 173568, Note_on_c, 1, 43, 110
3, 173660, Note_off_c, 1, 43, 100
3, 173664, Note_on_c, 1, 49, 110
3, 173756, Note_off_c, 1, 49, 100
3, 173760, Note_on_c, 1, 43, 110
3, 173852, Note_off_c, 1, 43, 100
3, 173856, Note_on_c, 1, 48, 110
3, 173948, Note_off_c, 1, 48, 100
3, 173952, Note_on_c, 1, 43, 110
3, 174044, Note_off_c, 1, 43, 100
3, 174048, Note_on_c, 1, 48, 110
3, 174140, Note_off_c, 1, 48, 100
3, 174144, Note_on_c, 1, 43, 110
3, 174236, Note_off_c, 1, 43, 100
3, 174240, Note_on_c, 1, 48, 110
3, 174332, Note_off_c, 1, 48, 100
3, 174336, Note_on_c, 1, 42, 80
3, 174428, Note_off_c, 1, 42, 100
3, 174432, Note_on_c, 1, 48, 80
3, 174524, Note_off_c, 1, 48, 100
3, 174528, Note_on_c, 1, 42, 80
3, 174620, Note_off_c, 1, 42, 100
3, 174624, Note_on_c, 1, 48, 80
3, 174716, Note_off_c, 1, 48, 100
3, 174720, Note_on_c, 1, 42, 80
3, 174812, Note_off_c, 1, 42, 100
3, 174816, Note_on_c, 1, 48, 80
3, 174908, Note_off_c, 1, 48, 100
3, 174912, Note_on_c, 1, 42, 80
3, 175004, Note_off_c, 1, 42, 100
3, 175008, Note_on_c, 1, 48, 80
3, 175100, Note_off_c, 1, 48, 100
3, 175104, Note_on_c, 1, 42, 80
3, 175196, Note_off_c, 1, 42, 100
3, 175200, Note_on_c, 1, 48, 80
3, 175292, Note_off_c, 1, 48, 100
3, 175296, Note_on_c, 1, 41, 80
3, 175388, Note_off_c, 1, 41, 100
3, 175392, Note_on_c, 1, 48, 80
3, 175484, Note_off_c, 1, 48, 100
3, 175488, Note_on_c, 1, 47, 80
3, 175580, Note_off_c, 1, 47, 100
3, 175584, Note_on_c, 1, 53, 80
3, 175676, Note_off_c, 1, 53, 100
3, 175680, Note_on_c, 1, 47, 80
3, 175772, Note_off_c, 1, 47, 100
3, 175776, Note_on_c, 1, 53, 80
3, 175868, Note_off_c, 1, 53, 100
3, 175872, Note_on_c, 1, 47, 80
3, 175964, Note_off_c, 1, 47, 100
3, 175968, Note_on_c, 1, 53, 80
3, 176060, Note_off_c, 1, 53, 100
3, 176064, Note_on_c, 1, 46, 80
3, 176156, Note_off_c, 1, 46, 100
3, 176160, Note_on_c, 1, 53, 80
3, 176252, Note_off_c, 1, 53, 100
3, 176256, Note_on_c, 1, 40, 80
3, 176348, Note_off_c, 1, 40, 100
3, 176352, Note_on_c, 1, 46, 80
3, 176444, Note_off_c, 1, 46, 100
3, 176448, Note_on_c, 1, 40, 80
3, 176540, Note_off_c, 1, 40, 100
3, 176544, Note_on_c, 1, 46, 80
3, 176636, Note_off_c, 1, 46, 100
3, 176640, Note_on_c, 1, 40, 80
3, 176732, Note_off_c, 1, 40, 100
3, 176736, Note_on_c, 1, 46, 80
3, 176828, Note_off_c, 1, 46, 100
3, 176832, Note_on_c, 1, 39, 80
3, 176924, Note_off_c, 1, 39, 100
3, 176928, Note_on_c, 1, 46, 80
3, 177020, Note_off_c, 1, 46, 100
3, 177024, Note_on_c, 1, 45, 80
3, 177116, Note_off_c, 1, 45, 100
3, 177120, Note_on_c, 1, 51, 80
3, 177212, Note_off_c, 1, 51, 100
3, 177216, Note_on_c, 1, 45, 80
3, 177308, Note_off_c, 1, 45, 100
3, 177312, Note_on_c, 1, 51, 80
3, 177404, Note_off_c, 1, 51, 100
3, 177408, Note_on_c, 1, 45, 80
3, 177500, Note_off_c, 1, 45, 100
3, 177504, Note_on_c, 1, 51, 80
3, 177596, Note_off_c, 1, 51, 100
3, 177600, Note_on_c, 1, 44, 80
3, 177692, Note_off_c, 1, 44, 100
3, 177696, Note_on_c, 1, 51, 80
3, 177788, Note_off_c, 1, 51, 100
3, 177792, Note_on_c, 1, 32, 80
3, 177884, Note_off_c, 1, 32, 100
3, 177888, Note_on_c, 1, 44, 80
3, 177980, Note_off_c, 1, 44, 100
3, 177984, Note_on_c, 1, 32, 80
3, 178076, Note_off_c, 1, 32, 100
3, 178080, Note_on_c, 1, 44, 80
3, 178172, Note_off_c, 1, 44, 100
3, 178176, Note_on_c, 1, 32, 80
3, 178268, Note_off_c, 1, 32, 100
3, 178272, Note_on_c, 1, 44, 80
3, 178364, Note_off_c, 1, 44, 100
3, 178368, Note_on_c, 1, 33, 80
3, 178460, Note_off_c, 1, 33, 100
3, 178464, Note_on_c, 1, 45, 80
3, 178556, Note_off_c, 1, 45, 100
3, 178560, Note_on_c, 1, 31, 110
3, 178652, Note_off_c, 1, 31, 100
3, 178656, Note_on_c, 1, 43, 110
3, 178748, Note_off_c, 1, 43, 100
3, 178752, Note_on_c, 1, 31, 110
3, 178844, Note_off_c, 1, 31, 100
3, 178848, Note_on_c, 1, 43, 110
3, 178940, Note_off_c, 1, 43, 100
3, 178944, Note_on_c, 1, 31, 110
3, 179036, Note_off_c, 1, 31, 100
3, 179040, Note_on_c, 1, 43, 110
3, 179132, Note_off_c, 1, 43, 100
3, 179136, Note_on_c, 1, 31, 110
3, 179228, Note_off_c, 1, 31, 100
3, 179232, Note_on_c, 1, 43, 110
3, 179324, Note_off_c, 1, 43, 100
3, 179328, Note_on_c, 1, 33, 110
3, 179420, Note_off_c, 1, 33, 100
3, 179424, Note_on_c, 1, 45, 110
3, 179516, Note_off_c, 1, 45, 100
3, 179520, Note_on_c, 1, 33, 110
3, 179612, Note_off_c, 1, 33, 100
3, 179616, Note_on_c, 1, 45, 110
3, 179708, Note_off_c, 1, 45, 100
3, 179712, Note_on_c, 1, 44, 110
3, 179900, Note_off_c, 1, 44, 100
3, 180096, Note_on_c, 1, 57, 80
3, 180284, Note_off_c, 1, 57, 100
3, 180288, Note_on_c, 1, 56, 80
3, 180476, Note_off_c, 1, 56, 100
3, 180480, Note_on_c, 1, 44, 80
3, 180668, Note_off_c, 1, 44, 100
3, 180864, Note_on_c, 1, 57, 80
3, 181052, Note_off_c, 1, 57, 100
3, 181056, Note_on_c, 1, 56, 80
3, 181244, Note_off_c, 1, 56, 100
3, 181248, Note_on_c, 1, 44, 80
3, 181436, Note_off_c, 1, 44, 100
3, 181632, Note_on_c, 1, 57, 80
3, 181820, Note_off_c, 1, 57, 100
3, 181824, Note_on_c, 1, 56, 80
3, 182012, Note_off_c, 1, 56, 100
3, 182016, Note_on_c, 1, 57, 80
3, 182204, Note_off_c, 1, 57, 100
3, 182208, Note_on_c, 1, 56, 80
3, 182396, Note_off_c, 1, 56, 100
3, 182400, Note_on_c, 1, 60, 80
3, 182588, Note_off_c, 1, 60, 100
3, 182592, Note_on_c, 1, 63, 80
3, 182780, Note_off_c, 1, 63, 100
3, 182784, Note_on_c, 1, 49, 80
3, 182972, Note_off_c, 1, 49, 100
3, 183168, Note_on_c, 1, 63, 80
3, 183356, Note_off_c, 1, 63, 100
3, 183360, Note_on_c, 1, 61, 80
3, 183548, Note_off_c, 1, 61, 100
3, 183552, Note_on_c, 1, 49, 80
3, 183740, Note_off_c, 1, 49, 100
3, 183936, Note_on_c, 1, 63, 80
3, 184124, Note_off_c, 1, 63, 100
3, 184128, Note_on_c, 1, 61, 80
3, 184316, Note_off_c, 1, 61, 100
3, 184320, Note_on_c, 1, 49, 80
3, 184508, Note_off_c, 1, 49, 100
3, 184704, Note_on_c, 1, 63, 80
3, 184892, Note_off_c, 1, 63, 100
3, 184896, Note_on_c, 1, 61, 80
3, 185084, Note_off_c, 1, 61, 100
3, 185088, Note_on_c, 1, 63, 80
3, 185276, Note_off_c, 1, 63, 100
3, 185280, Note_on_c, 1, 61, 80
3, 185468, Note_off_c, 1, 61, 100
3, 185472, Note_on_c, 1, 60, 80
3, 185660, Note_off_c, 1, 60, 100
3, 185664, Note_on_c, 1, 58, 80
3, 185852, Note_off_c, 1, 58, 100
3, 185856, Note_on_c, 1, 44, 80
3, 186044, Note_off_c, 1, 44, 100
3, 186240, Note_on_c, 1, 57, 80
3, 186428, Note_off_c, 1, 57, 100
3, 186432, Note_on_c, 1, 56, 80
3, 186620, Note_off_c, 1, 56, 100
3, 186624, Note_on_c, 1, 44, 80
3, 186812, Note_off_c, 1, 44, 100
3, 187008, Note_on_c, 1, 57, 80
3, 187196, Note_off_c, 1, 57, 100
3, 187200, Note_on_c, 1, 56, 80
3, 187388, Note_off_c, 1, 56, 100
3, 187392, Note_on_c, 1, 44, 80
3, 187580, Note_off_c, 1, 44, 100
3, 187776, Note_on_c, 1, 57, 80
3, 187964, Note_off_c, 1, 57, 100
3, 187968, Note_on_c, 1, 56, 80
3, 188156, Note_off_c, 1, 56, 100
3, 188160, Note_on_c, 1, 57, 80
3, 188348, Note_off_c, 1, 57, 100
3, 188352, Note_on_c, 1, 56, 80
3, 188540, Note_off_c, 1, 56, 100
3, 188544, Note_on_c, 1, 60, 80
3, 188732, Note_off_c, 1, 60, 100
3, 188736, Note_on_c, 1, 63, 80
3, 188924, Note_off_c, 1, 63, 100
3, 188928, Note_on_c, 1, 62, 80
3, 189116, Note_off_c, 1, 62, 100
3, 189120, Note_on_c, 1, 61, 80
3, 189308, Note_off_c, 1, 61, 100
3, 189312, Note_on_c, 1, 65, 80
3, 189500, Note_off_c, 1, 65, 100
3, 189504, Note_on_c, 1, 68, 80
3, 189692, Note_off_c, 1, 68, 100
3, 189696, Note_on_c, 1, 67, 80
3, 189884, Note_off_c, 1, 67, 100
3, 189888, Note_on_c, 1, 66, 80
3, 190076, Note_off_c, 1, 66, 100
3, 190080, Note_on_c, 1, 70, 80
3, 190268, Note_off_c, 1, 70, 100
3, 190272, Note_on_c, 1, 58, 80
3, 190460, Note_off_c, 1, 58, 100
3, 190464, Note_on_c, 1, 72, 80
3, 190652, Note_off_c, 1, 72, 100
3, 190656, Note_on_c, 1, 71, 80
3, 190844, Note_off_c, 1, 71, 100
3, 190848, Note_on_c, 1, 75, 80
3, 191036, Note_off_c, 1, 75, 100
3, 191040, Note_on_c, 1, 63, 80
3, 191228, Note_off_c, 1, 63, 100
3, 191232, Note_on_c, 1, 77, 80
3, 191420, Note_off_c, 1, 77, 100
3, 191424, Note_on_c, 1, 76, 80
3, 191612, Note_off_c, 1, 76, 100
3, 191616, Note_on_c, 1, 80, 80
3, 191804, Note_off_c, 1, 80, 100
3, 191808, Note_on_c, 1, 68, 80
3, 191996, Note_off_c, 1, 68, 100
3, 192000, Note_on_c, 1, 70, 80
3, 192188, Note_off_c, 1, 70, 100
3, 192192, Note_on_c, 1, 69, 80
3, 192380, Note_off_c, 1, 69, 100
3, 192384, Note_on_c, 1, 73, 80
3, 192572, Note_off_c, 1, 73, 100
3, 192576, Note_on_c, 1, 61, 80
3, 192764, Note_off_c, 1, 61, 100
3, 192768, Note_on_c, 1, 75, 80
3, 192956, Note_off_c, 1, 75, 100
3, 192960, Note_on_c, 1, 74, 80
3, 193148, Note_off_c, 1, 74, 100
3, 193152, Note_on_c, 1, 78, 80
3, 193340, Note_off_c, 1, 78, 100
3, 193344, Note_on_c, 1, 66, 80
3, 193532, Note_off_c, 1, 66, 100
3, 193536, Note_on_c, 1, 68, 80
3, 193724, Note_off_c, 1, 68, 100
3, 193728, Note_on_c, 1, 67, 80
3, 193916, Note_off_c, 1, 67, 100
3, 193920, Note_on_c, 1, 70, 80
3, 194108, Note_off_c, 1, 70, 100
3, 194112, Note_on_c, 1, 58, 80
3, 194300, Note_off_c, 1, 58, 100
3, 194304, Note_on_c, 1, 73, 80
3, 194492, Note_off_c, 1, 73, 100
3, 194496, Note_on_c, 1, 72, 80
3, 194684, Note_off_c, 1, 72, 100
3, 194688, Note_on_c, 1, 76, 80
3, 194876, Note_off_c, 1, 76, 100
3, 194880, Note_on_c, 1, 64, 80
3, 195068, Note_off_c, 1, 64, 100
3, 195072, Note_on_c, 1, 65, 80
3, 195260, Note_off_c, 1, 65, 100
3, 195264, Note_on_c, 1, 61, 82
3, 195452, Note_off_c, 1, 61, 100
3, 195456, Note_on_c, 1, 62, 85
3, 195644, Note_off_c, 1, 62, 100
3, 195648, Note_on_c, 1, 57, 87
3, 195836, Note_off_c, 1, 57, 100
3, 195840, Note_on_c, 1, 58, 90
3, 196028, Note_off_c, 1, 58, 100
3, 196032, Note_on_c, 1, 54, 93
3, 196220, Note_off_c, 1, 54, 100
3, 196224, Note_on_c, 1, 55, 95
3, 196412, Note_off_c, 1, 55, 100
3, 196416, Note_on_c, 1, 45, 98
3, 196604, Note_off_c, 1, 45, 100
3, 196608, Note_on_c, 1, 46, 100
3, 196796, Note_off_c, 1, 46, 100
3, 196800, Note_on_c, 1, 47, 103
3, 196988, Note_off_c, 1, 47, 100
3, 196992, Note_on_c, 1, 48, 106
3, 197180, Note_off_c, 1, 48, 100
3, 197184, Note_on_c, 1, 50, 108
3, 197372, Note_off_c, 1, 50, 100
3, 197376, Note_on_c, 1, 36, 110
3, 197468, Note_off_c, 1, 36, 100
3, 197472, Note_on_c, 1, 40, 110
3, 197564, Note_off_c, 1, 40, 100
3, 197568, Note_on_c, 1, 43, 110
3, 197660, Note_off_c, 1, 43, 100
3, 197664, Note_on_c, 1, 48, 110
3, 197756, Note_off_c, 1, 48, 100
3, 197760, Note_on_c, 1, 38, 110
3, 197852, Note_off_c, 1, 38, 100
3, 197856, Note_on_c, 1, 47, 110
3, 197948, Note_off_c, 1, 47, 100
3, 197952, Note_on_c, 1, 40, 110
3, 198044, Note_off_c, 1, 40, 100
3, 198048, Note_on_c, 1, 48, 110
3, 198140, Note_off_c, 1, 48, 100
3, 198144, Note_on_c, 1, 41, 110
3, 198236, Note_off_c, 1, 41, 100
3, 198240, Note_on_c, 1, 50, 110
3, 198332, Note_off_c, 1, 50, 100
3, 198336, Note_on_c, 1, 43, 110
3, 198428, Note_off_c, 1, 43, 100
3, 198432, Note_on_c, 1, 52, 110
3, 198524, Note_off_c, 1, 52, 100
3, 198528, Note_on_c, 1, 45, 110
3, 198620, Note_off_c, 1, 45, 100
3, 198624, Note_on_c, 1, 53, 110
3, 198716, Note_off_c, 1, 53, 100
3, 198720, Note_on_c, 1, 47, 110
3, 198812, Note_off_c, 1, 47, 100
3, 198816, Note_on_c, 1, 55, 110
3, 198908, Note_off_c, 1, 55, 100
3, 198912, Note_on_c, 1, 52, 100
3, 199004, Note_off_c, 1, 52, 100
3, 199008, Note_on_c, 1, 48, 94
3, 199292, Note_off_c, 1, 48, 100
3, 199296, Note_on_c, 1, 55, 80
3, 199484, Note_off_c, 1, 55, 100
3, 199488, Note_on_c, 1, 55, 80
3, 199868, Note_off_c, 1, 55, 64
3, 199872, Note_on_c, 1, 55, 80
3, 200252, Note_off_c, 1, 55, 100
3, 200256, Note_on_c, 1, 55, 80
3, 200444, Note_off_c, 1, 55, 100
3, 200448, Note_on_c, 1, 48, 110
3, 200540, Note_off_c, 1, 48, 100
3, 200544, Note_on_c, 1, 52, 110
3, 200636, Note_off_c, 1, 52, 100
3, 200640, Note_on_c, 1, 55, 110
3, 200732, Note_off_c, 1, 55, 100
3, 200736, Note_on_c, 1, 60, 110
3, 200828, Note_off_c, 1, 60, 100
3, 200832, Note_on_c, 1, 50, 110
3, 200924, Note_off_c, 1, 50, 100
3, 200928, Note_on_c, 1, 59, 110
3, 201020, Note_off_c, 1, 59, 100
3, 201024, Note_on_c, 1, 52, 110
3, 201116, Note_off_c, 1, 52, 100
3, 201120, Note_on_c, 1, 60, 110
3, 201212, Note_off_c, 1, 60, 100
3, 201216, Note_on_c, 1, 53, 110
3, 201308, Note_off_c, 1, 53, 100
3, 201312, Note_on_c, 1, 62, 110
3, 201404, Note_off_c, 1, 62, 100
3, 201408, Note_on_c, 1, 55, 110
3, 201500, Note_off_c, 1, 55, 100
3, 201504, Note_on_c, 1, 64, 110
3, 201596, Note_off_c, 1, 64, 100
3, 201600, Note_on_c, 1, 57, 110
3, 201692, Note_off_c, 1, 57, 100
3, 201696, Note_on_c, 1, 65, 110
3, 201788, Note_off_c, 1, 65, 100
3, 201792, Note_on_c, 1, 59, 110
3, 201884, Note_off_c, 1, 59, 100
3, 201888, Note_on_c, 1, 67, 110
3, 201980, Note_off_c, 1, 67, 100
3, 201984, Note_on_c, 1, 60, 100
3, 201984, Note_on_c, 1, 64, 100
3, 202172, Note_off_c, 1, 60, 100
3, 202172, Note_off_c, 1, 64, 100
3, 202752, Note_on_c, 1, 55, 80
3, 202844, Note_off_c, 1, 55, 100
3, 202848, Note_on_c, 1, 64, 80
3, 202940, Note_off_c, 1, 64, 100
3, 202944, Note_on_c, 1, 57, 80
3, 203036, Note_off_c, 1, 57, 100
3, 203040, Note_on_c, 1, 65, 80
3, 203132, Note_off_c, 1, 65, 100
3, 203136, Note_on_c, 1, 53, 80
3, 203228, Note_off_c, 1, 53, 100
3, 203232, Note_on_c, 1, 62, 80
3, 203324, Note_off_c, 1, 62, 100
3, 203328, Note_on_c, 1, 55, 80
3, 203420, Note_off_c, 1, 55, 100
3, 203424, Note_on_c, 1, 64, 80
3, 203516, Note_off_c, 1, 64, 100
3, 203520, Note_on_c, 1, 52, 80
3, 203612, Note_off_c, 1, 52, 100
3, 203616, Note_on_c, 1, 60, 80
3, 203708, Note_off_c, 1, 60, 100
3, 204288, Note_on_c, 1, 64, 80
3, 204380, Note_off_c, 1, 64, 100
3, 204384, Note_on_c, 1, 67, 80
3, 204476, Note_off_c, 1, 67, 100
3, 204480, Note_on_c, 1, 65, 80
3, 204572, Note_off_c, 1, 65, 100
3, 204576, Note_on_c, 1, 69, 80
3, 204668, Note_off_c, 1, 69, 100
3, 204672, Note_on_c, 1, 62, 80
3, 204764, Note_off_c, 1, 62, 100
3, 204768, Note_on_c, 1, 65, 80
3, 204860, Note_off_c, 1, 65, 100
3, 204864, Note_on_c, 1, 64, 80
3, 204956, Note_off_c, 1, 64, 100
3, 204960, Note_on_c, 1, 67, 80
3, 205052, Note_off_c, 1, 67, 100
3, 205056, Note_on_c, 1, 60, 80
3, 205148, Note_off_c, 1, 60, 100
3, 205152, Note_on_c, 1, 64, 80
3, 205244, Note_off_c, 1, 64, 100
3, 205824, Note_on_c, 1, 64, 80
3, 205916, Note_off_c, 1, 64, 100
3, 205920, Note_on_c, 1, 67, 80
3, 206012, Note_off_c, 1, 67, 100
3, 206016, Note_on_c, 1, 65, 80
3, 206108, Note_off_c, 1, 65, 100
3, 206112, Note_on_c, 1, 69, 80
3, 206204, Note_off_c, 1, 69, 100
3, 206208, Note_on_c, 1, 62, 80
3, 206300, Note_off_c, 1, 62, 100
3, 206304, Note_on_c, 1, 65, 80
3, 206396, Note_off_c, 1, 65, 100
3, 206400, Note_on_c, 1, 64, 80
3, 206492, Note_off_c, 1, 64, 100
3, 206496, Note_on_c, 1, 67, 80
3, 206588, Note_off_c, 1, 67, 100
3, 206592, Note_on_c, 1, 60, 80
3, 206684, Note_off_c, 1, 60, 100
3, 206688, Note_on_c, 1, 64, 80
3, 206780, Note_off_c, 1, 64, 100
3, 206784, Note_on_c, 1, 62, 81
3, 206876, Note_off_c, 1, 62, 100
3, 206880, Note_on_c, 1, 65, 82
3, 206972, Note_off_c, 1, 65, 100
3, 206976, Note_on_c, 1, 58, 83
3, 207068, Note_off_c, 1, 58, 100
3, 207072, Note_on_c, 1, 62, 84
3, 207164, Note_off_c, 1, 62, 100
3, 207168, Note_on_c, 1, 60, 85
3, 207260, Note_off_c, 1, 60, 100
3, 207264, Note_on_c, 1, 64, 86
3, 207356, Note_off_c, 1, 64, 100
3, 207360, Note_on_c, 1, 57, 86
3, 207452, Note_off_c, 1, 57, 100
3, 207456, Note_on_c, 1, 60, 87
3, 207548, Note_off_c, 1, 60, 100
3, 207552, Note_on_c, 1, 58, 88
3, 207644, Note_off_c, 1, 58, 100
3, 207648, Note_on_c, 1, 62, 89
3, 207740, Note_off_c, 1, 62, 100
3, 207744, Note_on_c, 1, 55, 90
3, 207836, Note_off_c, 1, 55, 100
3, 207840, Note_on_c, 1, 58, 91
3, 207932, Note_off_c, 1, 58, 100
3, 207936, Note_on_c, 1, 57, 92
3, 208028, Note_off_c, 1, 57, 100
3, 208032, Note_on_c, 1, 60, 93
3, 208124, Note_off_c, 1, 60, 100
3, 208128, Note_on_c, 1, 53, 93
3, 208220, Note_off_c, 1, 53, 100
3, 208224, Note_on_c, 1, 57, 94
3, 208316, Note_off_c, 1, 57, 100
3, 208320, Note_on_c, 1, 55, 95
3, 208412, Note_off_c, 1, 55, 100
3, 208416, Note_on_c, 1, 58, 96
3, 208508, Note_off_c, 1, 58, 100
3, 208512, Note_on_c, 1, 57, 97
3, 208604, Note_off_c, 1, 57, 100
3, 208608, Note_on_c, 1, 60, 98
3, 208700, Note_off_c, 1, 60, 100
3, 208704, Note_on_c, 1, 58, 99
3, 208796, Note_off_c, 1, 58, 100
3, 208800, Note_on_c, 1, 62, 99
3, 208892, Note_off_c, 1, 62, 100
3, 208896, Note_on_c, 1, 57, 100
3, 208988, Note_off_c, 1, 57, 100
3, 208992, Note_on_c, 1, 60, 98
3, 209084, Note_off_c, 1, 60, 100
3, 209088, Note_on_c, 1, 55, 95
3, 209180, Note_off_c, 1, 55, 100
3, 209184, Note_on_c, 1, 58, 92
3, 209276, Note_off_c, 1, 58, 100
3, 209280, Note_on_c, 1, 53, 89
3, 209372, Note_off_c, 1, 53, 100
3, 209376, Note_on_c, 1, 57, 86
3, 209468, Note_off_c, 1, 57, 100
3, 209472, Note_on_c, 1, 48, 83
3, 209564, Note_off_c, 1, 48, 100
3, 209568, Note_on_c, 1, 55, 81
3, 209660, Note_off_c, 1, 55, 100
3, 209664, Note_on_c, 1, 29, 80
3, 209756, Note_off_c, 1, 29, 100
3, 209760, Note_on_c, 1, 41, 80
3, 209852, Note_off_c, 1, 41, 100
3, 209856, Note_on_c, 1, 29, 81
3, 209948, Note_off_c, 1, 29, 100
3, 209952, Note_on_c, 1, 41, 82
3, 210044, Note_off_c, 1, 41, 100
3, 210048, Note_on_c, 1, 29, 83
3, 210140, Note_off_c, 1, 29, 100
3, 210144, Note_on_c, 1, 41, 84
3, 210236, Note_off_c, 1, 41, 100
3, 210240, Note_on_c, 1, 29, 85
3, 210332, Note_off_c, 1, 29, 100
3, 210336, Note_on_c, 1, 41, 86
3, 210428, Note_off_c, 1, 41, 100
3, 210432, Note_on_c, 1, 29, 87
3, 210524, Note_off_c, 1, 29, 100
3, 210528, Note_on_c, 1, 41, 88
3, 210620, Note_off_c, 1, 41, 100
3, 210624, Note_on_c, 1, 29, 89
3, 210716, Note_off_c, 1, 29, 100
3, 210720, Note_on_c, 1, 41, 90
3, 210812, Note_off_c, 1, 41, 100
3, 210816, Note_on_c, 1, 29, 91
3, 210908, Note_off_c, 1, 29, 100
3, 210912, Note_on_c, 1, 41, 92
3, 211004, Note_off_c, 1, 41, 100
3, 211008, Note_on_c, 1, 29, 93
3, 211100, Note_off_c, 1, 29, 100
3, 211104, Note_on_c, 1, 41, 94
3, 211196, Note_off_c, 1, 41, 100
3, 211200, Note_on_c, 1, 29, 95
3, 211292, Note_off_c, 1, 29, 100
3, 211296, Note_on_c, 1, 41, 96
3, 211388, Note_off_c, 1, 41, 100
3, 211392, Note_on_c, 1, 29, 97
3, 211484, Note_off_c, 1, 29, 100
3, 211488, Note_on_c, 1, 41, 98
3, 211580, Note_off_c, 1, 41, 100
3, 211584, Note_on_c, 1, 29, 99
3, 211676, Note_off_c, 1, 29, 100
3, 211680, Note_on_c, 1, 41, 100
3, 211772, Note_off_c, 1, 41, 100
3, 211776, Note_on_c, 1, 29, 101
3, 211868, Note_off_c, 1, 29, 100
3, 211872, Note_on_c, 1, 41, 102
3, 211964, Note_off_c, 1, 41, 100
3, 211968, Note_on_c, 1, 29, 103
3, 212060, Note_off_c, 1, 29, 100
3, 212064, Note_on_c, 1, 41, 104
3, 212156, Note_off_c, 1, 41, 100
3, 212160, Note_on_c, 1, 29, 105
3, 212252, Note_off_c, 1, 29, 100
3, 212256, Note_on_c, 1, 41, 106
3, 212348, Note_off_c, 1, 41, 100
3, 212352, Note_on_c, 1, 29, 107
3, 212444, Note_off_c, 1, 29, 100
3, 212448, Note_on_c, 1, 41, 108
3, 212540, Note_off_c, 1, 41, 100
3, 212544, Note_on_c, 1, 29, 108
3, 212636, Note_off_c, 1, 29, 100
3, 212640, Note_on_c, 1, 41, 109
3, 212732, Note_off_c, 1, 41, 100
3, 212736, Note_on_c, 1, 41, 110
3, 212828, Note_off_c, 1, 41, 100
3, 212832, Note_on_c, 1, 45, 110
3, 212924, Note_off_c, 1, 45, 100
3, 212928, Note_on_c, 1, 48, 110
3, 213020, Note_off_c, 1, 48, 100
3, 213024, Note_on_c, 1, 53, 110
3, 213116, Note_off_c, 1, 53, 100
3, 213120, Note_on_c, 1, 43, 110
3, 213212, Note_off_c, 1, 43, 100
3, 213216, Note_on_c, 1, 52, 110
3, 213308, Note_off_c, 1, 52, 100
3, 213312, Note_on_c, 1, 45, 110
3, 213404, Note_off_c, 1, 45, 100
3, 213408, Note_on_c, 1, 53, 110
3, 213500, Note_off_c, 1, 53, 100
3, 213504, Note_on_c, 1, 46, 110
3, 213596, Note_off_c, 1, 46, 100
3, 213600, Note_on_c, 1, 55, 110
3, 213692, Note_off_c, 1, 55, 100
3, 213696, Note_on_c, 1, 48, 110
3, 213788, Note_off_c, 1, 48, 100
3, 213792, Note_on_c, 1, 57, 110
3, 213884, Note_off_c, 1, 57, 100
3, 213888, Note_on_c, 1, 50, 110
3, 213980, Note_off_c, 1, 50, 100
3, 213984, Note_on_c, 1, 58, 110
3, 214076, Note_off_c, 1, 58, 100
3, 214080, Note_on_c, 1, 52, 110
3, 214172, Note_off_c, 1, 52, 100
3, 214176, Note_on_c, 1, 60, 110
3, 214268, Note_off_c, 1, 60, 100
3, 214272, Note_on_c, 1, 53, 110
3, 214364, Note_off_c, 1, 53, 100
3, 214368, Note_on_c, 1, 57, 110
3, 214460, Note_off_c, 1, 57, 100
3, 214464, Note_on_c, 1, 60, 110
3, 214556, Note_off_c, 1, 60, 100
3, 214560, Note_on_c, 1, 65, 110
3, 214652, Note_off_c, 1, 65, 100
3, 214656, Note_on_c, 1, 63, 110
3, 214748, Note_off_c, 1, 63, 100
3, 214752, Note_on_c, 1, 65, 110
3, 214844, Note_off_c, 1, 65, 100
3, 214848, Note_on_c, 1, 62, 110
3, 214940, Note_off_c, 1, 62, 100
3, 214944, Note_on_c, 1, 65, 110
3, 215036, Note_off_c, 1, 65, 100
3, 215040, Note_on_c, 1, 60, 110
3, 215132, Note_off_c, 1, 60, 100
3, 215136, Note_on_c, 1, 65, 110
3, 215228, Note_off_c, 1, 65, 100
3, 215232, Note_on_c, 1, 58, 110
3, 215324, Note_off_c, 1, 58, 100
3, 215328, Note_on_c, 1, 65, 110
3, 215420, Note_off_c, 1, 65, 100
3, 215424, Note_on_c, 1, 57, 110
3, 215516, Note_off_c, 1, 57, 100
3, 215520, Note_on_c, 1, 65, 110
3, 215612, Note_off_c, 1, 65, 100
3, 215616, Note_on_c, 1, 53, 110
3, 215708, Note_off_c, 1, 53, 100
3, 215712, Note_on_c, 1, 60, 110
3, 215804, Note_off_c, 1, 60, 100
3, 215808, Note_on_c, 1, 58, 100
3, 215900, Note_off_c, 1, 58, 100
3, 215904, Note_on_c, 1, 62, 94
3, 215996, Note_off_c, 1, 62, 100
3, 216000, Note_on_c, 1, 53, 87
3, 216092, Note_off_c, 1, 53, 100
3, 216096, Note_on_c, 1, 60, 81
3, 216188, Note_off_c, 1, 60, 100
3, 216192, Note_on_c, 1, 55, 80
3, 216284, Note_off_c, 1, 55, 100
3, 216288, Note_on_c, 1, 58, 80
3, 216380, Note_off_c, 1, 58, 100
3, 216384, Note_on_c, 1, 50, 80
3, 216476, Note_off_c, 1, 50, 100
3, 216480, Note_on_c, 1, 57, 80
3, 216572, Note_off_c, 1, 57, 100
3, 216576, Note_on_c, 1, 51, 80
3, 216668, Note_off_c, 1, 51, 100
3, 216672, Note_on_c, 1, 55, 80
3, 216764, Note_off_c, 1, 55, 100
3, 216768, Note_on_c, 1, 46, 80
3, 216860, Note_off_c, 1, 46, 100
3, 216864, Note_on_c, 1, 53, 80
3, 216956, Note_off_c, 1, 53, 100
3, 216960, Note_on_c, 1, 48, 80
3, 217052, Note_off_c, 1, 48, 100
3, 217056, Note_on_c, 1, 51, 80
3, 217148, Note_off_c, 1, 51, 100
3, 217152, Note_on_c, 1, 43, 80
3, 217244, Note_off_c, 1, 43, 100
3, 217248, Note_on_c, 1, 50, 80
3, 217340, Note_off_c, 1, 50, 100
3, 217344, Note_on_c, 1, 45, 80
3, 217436, Note_off_c, 1, 45, 100
3, 217440, Note_on_c, 1, 48, 81
3, 217532, Note_off_c, 1, 48, 100
3, 217536, Note_on_c, 1, 41, 83
3, 217628, Note_off_c, 1, 41, 100
3, 217632, Note_on_c, 1, 53, 85
3, 217724, Note_off_c, 1, 53, 100
3, 217728, Note_on_c, 1, 43, 87
3, 217820, Note_off_c, 1, 43, 100
3, 217824, Note_on_c, 1, 55, 89
3, 217916, Note_off_c, 1, 55, 100
3, 217920, Note_on_c, 1, 39, 91
3, 218012, Note_off_c, 1, 39, 100
3, 218016, Note_on_c, 1, 51, 93
3, 218108, Note_off_c, 1, 51, 100
3, 218112, Note_on_c, 1, 41, 95
3, 218204, Note_off_c, 1, 41, 100
3, 218208, Note_on_c, 1, 53, 97
3, 218300, Note_off_c, 1, 53, 100
3, 218304, Note_on_c, 1, 41, 99
3, 218396, Note_off_c, 1, 41, 100
3, 218400, Note_on_c, 1, 53, 101
3, 218492, Note_off_c, 1, 53, 100
3, 218496, Note_on_c, 1, 41, 103
3, 218588, Note_off_c, 1, 41, 100
3, 218592, Note_on_c, 1, 53, 105
3, 218684, Note_off_c, 1, 53, 100
3, 218688, Note_on_c, 1, 41, 107
3, 218780, Note_off_c, 1, 41, 100
3, 218784, Note_on_c, 1, 53, 109
3, 218876, Note_off_c, 1, 53, 100
3, 218880, Note_on_c, 1, 58, 80
3, 218972, Note_off_c, 1, 58, 100
3, 218976, Note_on_c, 1, 61, 80
3, 219068, Note_off_c, 1, 61, 100
3, 219072, Note_on_c, 1, 53, 80
3, 219164, Note_off_c, 1, 53, 100
3, 219168, Note_on_c, 1, 60, 80
3, 219260, Note_off_c, 1, 60, 100
3, 219264, Note_on_c, 1, 54, 80
3, 219356, Note_off_c, 1, 54, 100
3, 219360, Note_on_c, 1, 58, 80
3, 219452, Note_off_c, 1, 58, 100
3, 219456, Note_on_c, 1, 49, 80
3, 219548, Note_off_c, 1, 49, 100
3, 219552, Note_on_c, 1, 56, 80
3, 219644, Note_off_c, 1, 56, 100
3, 219648, Note_on_c, 1, 51, 80
3, 219740, Note_off_c, 1, 51, 100
3, 219744, Note_on_c, 1, 54, 80
3, 219836, Note_off_c, 1, 54, 100
3, 219840, Note_on_c, 1, 46, 80
3, 219932, Note_off_c, 1, 46, 100
3, 219936, Note_on_c, 1, 53, 80
3, 220028, Note_off_c, 1, 53, 100
3, 220032, Note_on_c, 1, 48, 80
3, 220124, Note_off_c, 1, 48, 100
3, 220128, Note_on_c, 1, 51, 80
3, 220220, Note_off_c, 1, 51, 100
3, 220224, Note_on_c, 1, 44, 80
3, 220316, Note_off_c, 1, 44, 100
3, 220320, Note_on_c, 1, 51, 80
3, 220412, Note_off_c, 1, 51, 100
3, 220416, Note_on_c, 1, 37, 80
3, 220508, Note_off_c, 1, 37, 100
3, 220512, Note_on_c, 1, 49, 84
3, 220604, Note_off_c, 1, 49, 100
3, 220608, Note_on_c, 1, 37, 88
3, 220700, Note_off_c, 1, 37, 100
3, 220704, Note_on_c, 1, 49, 92
3, 220796, Note_off_c, 1, 49, 100
3, 220800, Note_on_c, 1, 37, 97
3, 220892, Note_off_c, 1, 37, 100
3, 220896, Note_on_c, 1, 49, 101
3, 220988, Note_off_c, 1, 49, 100
3, 220992, Note_on_c, 1, 37, 105
3, 221084, Note_off_c, 1, 37, 100
3, 221088, Note_on_c, 1, 49, 109
3, 221180, Note_off_c, 1, 49, 100
3, 221184, Note_on_c, 1, 37, 110
3, 221948, Note_off_c, 1, 37, 100
3, 221952, Note_on_c, 1, 38, 110
3, 222716, Note_off_c, 1, 38, 100
3, 222720, Note_on_c, 1, 36, 110
3, 223484, Note_off_c, 1, 36, 100
3, 223488, Note_on_c, 1, 35, 110
3, 223868, Note_off_c, 1, 35, 100
3, 223872, Note_on_c, 1, 35, 110
3, 224252, Note_off_c, 1, 35, 100
3, 224352, Note_on_c, 1, 36, 94
3, 224444, Note_off_c, 1, 36, 100
3, 224448, Note_on_c, 1, 40, 87
3, 224540, Note_off_c, 1, 40, 100
3, 224544, Note_on_c, 1, 36, 81
3, 224636, Note_off_c, 1, 36, 100
3, 224640, Note_on_c, 1, 41, 80
3, 224732, Note_off_c, 1, 41, 100
3, 224736, Note_on_c, 1, 36, 80
3, 224828, Note_off_c, 1, 36, 100
3, 224832, Note_on_c, 1, 40, 80
3, 224924, Note_off_c, 1, 40, 100
3, 224928, Note_on_c, 1, 36, 80
3, 225020, Note_off_c, 1, 36, 100
3, 225120, Note_on_c, 1, 48, 80
3, 225212, Note_off_c, 1, 48, 100
3, 225216, Note_on_c, 1, 52, 80
3, 225308, Note_off_c, 1, 52, 100
3, 225312, Note_on_c, 1, 48, 80
3, 225404, Note_off_c, 1, 48, 100
3, 225408, Note_on_c, 1, 53, 80
3, 225500, Note_off_c, 1, 53, 100
3, 225504, Note_on_c, 1, 48, 80
3, 225596, Note_off_c, 1, 48, 100
3, 225600, Note_on_c, 1, 52, 80
3, 225692, Note_off_c, 1, 52, 100
3, 225696, Note_on_c, 1, 48, 80
3, 225788, Note_off_c, 1, 48, 100
3, 225888, Note_on_c, 1, 67, 80
3, 225980, Note_off_c, 1, 67, 100
3, 225984, Note_on_c, 1, 64, 80
3, 226076, Note_off_c, 1, 64, 100
3, 226080, Note_on_c, 1, 67, 80
3, 226172, Note_off_c, 1, 67, 100
3, 226176, Note_on_c, 1, 65, 80
3, 226268, Note_off_c, 1, 65, 100
3, 226272, Note_on_c, 1, 67, 80
3, 226364, Note_off_c, 1, 67, 100
3, 226368, Note_on_c, 1, 64, 80
3, 226460, Note_off_c, 1, 64, 100
3, 226464, Note_on_c, 1, 67, 80
3, 226556, Note_off_c, 1, 67, 100
3, 226560, Note_on_c, 1, 65, 80
3, 226652, Note_off_c, 1, 65, 100
3, 226656, Note_on_c, 1, 67, 80
3, 226748, Note_off_c, 1, 67, 100
3, 226752, Note_on_c, 1, 64, 80
3, 226844, Note_off_c, 1, 64, 100
3, 226848, Note_on_c, 1, 67, 80
3, 226940, Note_off_c, 1, 67, 100
3, 226944, Note_on_c, 1, 63, 80
3, 227036, Note_off_c, 1, 63, 100
3, 227040, Note_on_c, 1, 65, 80
3, 227132, Note_off_c, 1, 65, 100
3, 227136, Note_on_c, 1, 62, 80
3, 227228, Note_off_c, 1, 62, 100
3, 227232, Note_on_c, 1, 65, 80
3, 227324, Note_off_c, 1, 65, 100
3, 227424, Note_on_c, 1, 34, 80
3, 227516, Note_off_c, 1, 34, 100
3, 227520, Note_on_c, 1, 38, 80
3, 227612, Note_off_c, 1, 38, 100
3, 227616, Note_on_c, 1, 34, 80
3, 227708, Note_off_c, 1, 34, 100
3, 227712, Note_on_c, 1, 39, 80
3, 227804, Note_off_c, 1, 39, 100
3, 227808, Note_on_c, 1, 34, 80
3, 227900, Note_off_c, 1, 34, 100
3, 227904, Note_on_c, 1, 38, 80
3, 227996, Note_off_c, 1, 38, 100
3, 228000, Note_on_c, 1, 34, 80
3, 228092, Note_off_c, 1, 34, 100
3, 228192, Note_on_c, 1, 46, 80
3, 228284, Note_off_c, 1, 46, 100
3, 228288, Note_on_c, 1, 50, 80
3, 228380, Note_off_c, 1, 50, 100
3, 228384, Note_on_c, 1, 46, 80
3, 228476, Note_off_c, 1, 46, 100
3, 228480, Note_on_c, 1, 51, 80
3, 228572, Note_off_c, 1, 51, 100
3, 228576, Note_on_c, 1, 46, 80
3, 228668, Note_off_c, 1, 46, 100
3, 228672, Note_on_c, 1, 50, 80
3, 228764, Note_off_c, 1, 50, 100
3, 228768, Note_on_c, 1, 46, 80
3, 228860, Note_off_c, 1, 46, 100
3, 228960, Note_on_c, 1, 65, 80
3, 229052, Note_off_c, 1, 65, 100
3, 229056, Note_on_c, 1, 62, 80
3, 229148, Note_off_c, 1, 62, 100
3, 229152, Note_on_c, 1, 65, 80
3, 229244, Note_off_c, 1, 65, 100
3, 229248, Note_on_c, 1, 63, 80
3, 229340, Note_off_c, 1, 63, 100
3, 229344, Note_on_c, 1, 65, 80
3, 229436, Note_off_c, 1, 65, 100
3, 229440, Note_on_c, 1, 62, 80
3, 229532, Note_off_c, 1, 62, 100
3, 229536, Note_on_c, 1, 65, 80
3, 229628, Note_off_c, 1, 65, 100
3, 229632, Note_on_c, 1, 63, 80
3, 229724, Note_off_c, 1, 63, 100
3, 229728, Note_on_c, 1, 65, 80
3, 229820, Note_off_c, 1, 65, 100
3, 229824, Note_on_c, 1, 62, 80
3, 229916, Note_off_c, 1, 62, 100
3, 229920, Note_on_c, 1, 65, 80
3, 230012, Note_off_c, 1, 65, 100
3, 230016, Note_on_c, 1, 61, 80
3, 230108, Note_off_c, 1, 61, 100
3, 230112, Note_on_c, 1, 63, 80
3, 230204, Note_off_c, 1, 63, 100
3, 230208, Note_on_c, 1, 60, 80
3, 230300, Note_off_c, 1, 60, 100
3, 230304, Note_on_c, 1, 61, 80
3, 230396, Note_off_c, 1, 61, 100
3, 230496, Note_on_c, 1, 32, 80
3, 230588, Note_off_c, 1, 32, 100
3, 230592, Note_on_c, 1, 36, 80
3, 230684, Note_off_c, 1, 36, 100
3, 230688, Note_on_c, 1, 32, 80
3, 230780, Note_off_c, 1, 32, 100
3, 230784, Note_on_c, 1, 37, 80
3, 230876, Note_off_c, 1, 37, 100
3, 230880, Note_on_c, 1, 32, 80
3, 230972, Note_off_c, 1, 32, 100
3, 230976, Note_on_c, 1, 36, 80
3, 231068, Note_off_c, 1, 36, 100
3, 231072, Note_on_c, 1, 32, 80
3, 231164, Note_off_c, 1, 32, 100
3, 231264, Note_on_c, 1, 44, 80
3, 231356, Note_off_c, 1, 44, 100
3, 231360, Note_on_c, 1, 48, 80
3, 231452, Note_off_c, 1, 48, 100
3, 231456, Note_on_c, 1, 44, 80
3, 231548, Note_off_c, 1, 44, 100
3, 231552, Note_on_c, 1, 49, 80
3, 231644, Note_off_c, 1, 49, 100
3, 231648, Note_on_c, 1, 44, 80
3, 231740, Note_off_c, 1, 44, 100
3, 231744, Note_on_c, 1, 48, 80
3, 231836, Note_off_c, 1, 48, 100
3, 231840, Note_on_c, 1, 44, 80
3, 231932, Note_off_c, 1, 44, 100
3, 232032, Note_on_c, 1, 63, 81
3, 232124, Note_off_c, 1, 63, 100
3, 232128, Note_on_c, 1, 60, 82
3, 232220, Note_off_c, 1, 60, 100
3, 232224, Note_on_c, 1, 63, 83
3, 232316, Note_off_c, 1, 63, 100
3, 232320, Note_on_c, 1, 61, 85
3, 232412, Note_off_c, 1, 61, 100
3, 232416, Note_on_c, 1, 63, 86
3, 232508, Note_off_c, 1, 63, 100
3, 232512, Note_on_c, 1, 60, 87
3, 232604, Note_off_c, 1, 60, 100
3, 232608, Note_on_c, 1, 63, 89
3, 232700, Note_off_c, 1, 63, 100
3, 232704, Note_on_c, 1, 61, 90
3, 232796, Note_off_c, 1, 61, 100
3, 232800, Note_on_c, 1, 63, 91
3, 232892, Note_off_c, 1, 63, 100
3, 232896, Note_on_c, 1, 60, 93
3, 232988, Note_off_c, 1, 60, 100
3, 232992, Note_on_c, 1, 63, 94
3, 233084, Note_off_c, 1, 63, 100
3, 233088, Note_on_c, 1, 59, 95
3, 233180, Note_off_c, 1, 59, 100
3, 233184, Note_on_c, 1, 61, 96
3, 233276, Note_off_c, 1, 61, 100
3, 233280, Note_on_c, 1, 59, 98
3, 233372, Note_off_c, 1, 59, 100
3, 233376, Note_on_c, 1, 61, 99
3, 233468, Note_off_c, 1, 61, 100
3, 233472, Note_on_c, 1, 59, 100
3, 233564, Note_off_c, 1, 59, 100
3, 233568, Note_on_c, 1, 61, 102
3, 233660, Note_off_c, 1, 61, 100
3, 233664, Note_on_c, 1, 58, 103
3, 233756, Note_off_c, 1, 58, 100
3, 233760, Note_on_c, 1, 61, 104
3, 233852, Note_off_c, 1, 61, 100
3, 233856, Note_on_c, 1, 59, 106
3, 233948, Note_off_c, 1, 59, 100
3, 233952, Note_on_c, 1, 61, 107
3, 234044, Note_off_c, 1, 61, 100
3, 234048, Note_on_c, 1, 58, 108
3, 234140, Note_off_c, 1, 58, 100
3, 234144, Note_on_c, 1, 61, 109
3, 234236, Note_off_c, 1, 61, 100
3, 234240, Note_on_c, 1, 59, 110
3, 234332, Note_off_c, 1, 59, 100
3, 234336, Note_on_c, 1, 61, 110
3, 234428, Note_off_c, 1, 61, 100
3, 234432, Note_on_c, 1, 58, 110
3, 234524, Note_off_c, 1, 58, 100
3, 234528, Note_on_c, 1, 61, 110
3, 234620, Note_off_c, 1, 61, 100
3, 234624, Note_on_c, 1, 58, 110
3, 234716, Note_off_c, 1, 58, 100
3, 234720, Note_on_c, 1, 59, 110
3, 234812, Note_off_c, 1, 59, 100
3, 234816, Note_on_c, 1, 58, 110
3, 234908, Note_off_c, 1, 58, 100
3, 234912, Note_on_c, 1, 59, 110
3, 235004, Note_off_c, 1, 59, 100
3, 235008, Note_on_c, 1, 58, 110
3, 235100, Note_off_c, 1, 58, 100
3, 235104, Note_on_c, 1, 59, 110
3, 235196, Note_off_c, 1, 59, 100
3, 235200, Note_on_c, 1, 56, 110
3, 235292, Note_off_c, 1, 56, 100
3, 235296, Note_on_c, 1, 59, 110
3, 235388, Note_off_c, 1, 59, 100
3, 235392, Note_on_c, 1, 56, 110
3, 235484, Note_off_c, 1, 56, 100
3, 235488, Note_on_c, 1, 58, 110
3, 235580, Note_off_c, 1, 58, 100
3, 235584, Note_on_c, 1, 54, 110
3, 235676, Note_off_c, 1, 54, 100
3, 235680, Note_on_c, 1, 58, 110
3, 235772, Note_off_c, 1, 58, 100
3, 235776, Note_on_c, 1, 54, 110
3, 235868, Note_off_c, 1, 54, 100
3, 235872, Note_on_c, 1, 56, 110
3, 235964, Note_off_c, 1, 56, 100
3, 235968, Note_on_c, 1, 53, 110
3, 236060, Note_off_c, 1, 53, 100
3, 236064, Note_on_c, 1, 56, 110
3, 236156, Note_off_c, 1, 56, 100
3, 236160, Note_on_c, 1, 53, 110
3, 236252, Note_off_c, 1, 53, 100
3, 236256, Note_on_c, 1, 54, 110
3, 236348, Note_off_c, 1, 54, 100
3, 236352, Note_on_c, 1, 51, 110
3, 236444, Note_off_c, 1, 51, 100
3, 236448, Note_on_c, 1, 54, 110
3, 236540, Note_off_c, 1, 54, 100
3, 236544, Note_on_c, 1, 51, 110
3, 236636, Note_off_c, 1, 51, 100
3, 236640, Note_on_c, 1, 53, 110
3, 236732, Note_off_c, 1, 53, 100
3, 236736, Note_on_c, 1, 49, 110
3, 236828, Note_off_c, 1, 49, 100
3, 236832, Note_on_c, 1, 53, 110
3, 236924, Note_off_c, 1, 53, 100
3, 236928, Note_on_c, 1, 49, 120
3, 237020, Note_off_c, 1, 49, 100
3, 237024, Note_on_c, 1, 53, 120
3, 237116, Note_off_c, 1, 53, 100
3, 237120, Note_on_c, 1, 49, 120
3, 237212, Note_off_c, 1, 49, 100
3, 237216, Note_on_c, 1, 53, 120
3, 237308, Note_off_c, 1, 53, 100
3, 237312, Note_on_c, 1, 49, 120
3, 237404, Note_off_c, 1, 49, 100
3, 237408, Note_on_c, 1, 53, 120
3, 237500, Note_off_c, 1, 53, 100
3, 237504, Note_on_c, 1, 49, 120
3, 237596, Note_off_c, 1, 49, 100
3, 237600, Note_on_c, 1, 53, 120
3, 237692, Note_off_c, 1, 53, 100
3, 237696, Note_on_c, 1, 37, 120
3, 237788, Note_off_c, 1, 37, 100
3, 237792, Note_on_c, 1, 49, 120
3, 237884, Note_off_c, 1, 49, 100
3, 237888, Note_on_c, 1, 37, 120
3, 237980, Note_off_c, 1, 37, 100
3, 237984, Note_on_c, 1, 49, 120
3, 238076, Note_off_c, 1, 49, 100
3, 238080, Note_on_c, 1, 48, 120
3, 238080, Note_on_c, 1, 36, 120
3, 238268, Note_off_c, 1, 48, 100
3, 238268, Note_off_c, 1, 36, 100
3, 238272, Note_on_c, 1, 61, 80
3, 238460, Note_off_c, 1, 61, 100
3, 238464, Note_on_c, 1, 59, 80
3, 238652, Note_off_c, 1, 59, 100
3, 238656, Note_on_c, 1, 60, 80
3, 238844, Note_off_c, 1, 60, 100
3, 238848, Note_on_c, 1, 48, 80
3, 239036, Note_off_c, 1, 48, 100
3, 239040, Note_on_c, 1, 61, 80
3, 239228, Note_off_c, 1, 61, 100
3, 239232, Note_on_c, 1, 59, 80
3, 239420, Note_off_c, 1, 59, 100
3, 239424, Note_on_c, 1, 60, 80
3, 239612, Note_off_c, 1, 60, 100
3, 239616, Note_on_c, 1, 48, 80
3, 239804, Note_off_c, 1, 48, 100
3, 239808, Note_on_c, 1, 61, 80
3, 239996, Note_off_c, 1, 61, 100
3, 240000, Note_on_c, 1, 59, 80
3, 240188, Note_off_c, 1, 59, 100
3, 240192, Note_on_c, 1, 60, 80
3, 240380, Note_off_c, 1, 60, 100
3, 240384, Note_on_c, 1, 48, 80
3, 240572, Note_off_c, 1, 48, 100
3, 240576, Note_on_c, 1, 61, 80
3, 240764, Note_off_c, 1, 61, 100
3, 240768, Note_on_c, 1, 59, 80
3, 240956, Note_off_c, 1, 59, 100
3, 240960, Note_on_c, 1, 60, 80
3, 241148, Note_off_c, 1, 60, 100
3, 241152, Note_on_c, 1, 52, 80
3, 241340, Note_off_c, 1, 52, 100
3, 241344, Note_on_c, 1, 62, 80
3, 241532, Note_off_c, 1, 62, 100
3, 241536, Note_on_c, 1, 59, 80
3, 241628, Note_off_c, 1, 59, 100
3, 241728, Note_on_c, 1, 62, 80
3, 241916, Note_off_c, 1, 62, 100
3, 241920, Note_on_c, 1, 59, 80
3, 242012, Note_off_c, 1, 59, 100
3, 242112, Note_on_c, 1, 62, 80
3, 242300, Note_off_c, 1, 62, 100
3, 242304, Note_on_c, 1, 59, 80
3, 242396, Note_off_c, 1, 59, 100
3, 242496, Note_on_c, 1, 62, 80
3, 242684, Note_off_c, 1, 62, 100
3, 242688, Note_on_c, 1, 59, 80
3, 242780, Note_off_c, 1, 59, 100
3, 242880, Note_on_c, 1, 60, 80
3, 243068, Note_off_c, 1, 60, 100
3, 243072, Note_on_c, 1, 59, 80
3, 243164, Note_off_c, 1, 59, 100
3, 243264, Note_on_c, 1, 60, 80
3, 243452, Note_off_c, 1, 60, 100
3, 243456, Note_on_c, 1, 59, 80
3, 243548, Note_off_c, 1, 59, 100
3, 243648, Note_on_c, 1, 60, 80
3, 243836, Note_off_c, 1, 60, 100
3, 243840, Note_on_c, 1, 59, 80
3, 243932, Note_off_c, 1, 59, 100
3, 244032, Note_on_c, 1, 60, 80
3, 244220, Note_off_c, 1, 60, 100
3, 244224, Note_on_c, 1, 58, 80
3, 244272, Note_on_c, 1, 60, 80
3, 244316, Note_off_c, 1, 58, 100
3, 244320, Note_on_c, 1, 58, 80
3, 244348, Note_off_c, 1, 60, 100
3, 244368, Note_on_c, 1, 60, 80
3, 244400, Note_off_c, 1, 58, 100
3, 244416, Note_on_c, 1, 58, 80
3, 244452, Note_off_c, 1, 60, 100
3, 244464, Note_on_c, 1, 60, 80
3, 244508, Note_off_c, 1, 58, 100
3, 244512, Note_on_c, 1, 58, 80
3, 244540, Note_off_c, 1, 60, 100
3, 244560, Note_on_c, 1, 60, 80
3, 244592, Note_off_c, 1, 58, 100
3, 244608, Note_on_c, 1, 58, 80
3, 244644, Note_off_c, 1, 60, 100
3, 244656, Note_on_c, 1, 60, 80
3, 244700, Note_off_c, 1, 58, 100
3, 244704, Note_on_c, 1, 58, 80
3, 244732, Note_off_c, 1, 60, 100
3, 244752, Note_on_c, 1, 60, 80
3, 244784, Note_off_c, 1, 58, 100
3, 244800, Note_on_c, 1, 58, 80
3, 244836, Note_off_c, 1, 60, 100
3, 244848, Note_on_c, 1, 60, 80
3, 244892, Note_off_c, 1, 58, 100
3, 244896, Note_on_c, 1, 58, 80
3, 244924, Note_off_c, 1, 60, 100
3, 244944, Note_on_c, 1, 60, 80
3, 244976, Note_off_c, 1, 58, 100
3, 244992, Note_on_c, 1, 58, 80
3, 245028, Note_off_c, 1, 60, 64
3, 245040, Note_on_c, 1, 60, 80
3, 245084, Note_off_c, 1, 58, 100
3, 245088, Note_on_c, 1, 58, 80
3, 245116, Note_off_c, 1, 60, 100
3, 245136, Note_on_c, 1, 60, 80
3, 245168, Note_off_c, 1, 58, 100
3, 245184, Note_on_c, 1, 58, 80
3, 245220, Note_off_c, 1, 60, 100
3, 245232, Note_on_c, 1, 60, 80
3, 245276, Note_off_c, 1, 58, 100
3, 245280, Note_on_c, 1, 58, 80
3, 245308, Note_off_c, 1, 60, 100
3, 245328, Note_on_c, 1, 60, 80
3, 245360, Note_off_c, 1, 58, 100
3, 245376, Note_on_c, 1, 58, 80
3, 245412, Note_off_c, 1, 60, 100
3, 245424, Note_on_c, 1, 60, 80
3, 245468, Note_off_c, 1, 58, 100
3, 245472, Note_on_c, 1, 58, 80
3, 245500, Note_off_c, 1, 60, 100
3, 245520, Note_on_c, 1, 60, 80
3, 245552, Note_off_c, 1, 58, 100
3, 245568, Note_on_c, 1, 58, 80
3, 245604, Note_off_c, 1, 60, 100
3, 245616, Note_on_c, 1, 60, 80
3, 245660, Note_off_c, 1, 58, 100
3, 245664, Note_on_c, 1, 57, 80
3, 245692, Note_off_c, 1, 60, 100
3, 245712, Note_on_c, 1, 58, 80
3, 245744, Note_off_c, 1, 57, 100
3, 245756, Note_off_c, 1, 58, 100
3, 245760, Control_c, 1, 64, 127
3, 245760, Note_on_c, 1, 29, 110
3, 245852, Note_off_c, 1, 29, 100
3, 245856, Note_on_c, 1, 41, 110
3, 245948, Note_off_c, 1, 41, 100
3, 245952, Note_on_c, 1, 29, 110
3, 246044, Note_off_c, 1, 29, 100
3, 246048, Note_on_c, 1, 41, 110
3, 246136, Control_c, 1, 64, 0
3, 246140, Note_off_c, 1, 41, 100
3, 246144, Control_c, 1, 64, 127
3, 246144, Note_on_c, 1, 29, 110
3, 246236, Note_off_c, 1, 29, 100
3, 246240, Note_on_c, 1, 41, 110
3, 246332, Note_off_c, 1, 41, 100
3, 246336, Note_on_c, 1, 29, 110
3, 246428, Note_off_c, 1, 29, 100
3, 246432, Note_on_c, 1, 41, 110
3, 246520, Control_c, 1, 64, 0
3, 246524, Note_off_c, 1, 41, 99
3, 246528, Control_c, 1, 64, 127
3, 246528, Note_on_c, 1, 29, 110
3, 246620, Note_off_c, 1, 29, 100
3, 246624, Note_on_c, 1, 41, 110
3, 246716, Note_off_c, 1, 41, 100
3, 246720, Note_on_c, 1, 29, 110
3, 246812, Note_off_c, 1, 29, 100
3, 246816, Note_on_c, 1, 41, 110
3, 246904, Control_c, 1, 64, 0
3, 246908, Note_off_c, 1, 41, 100
3, 246912, Control_c, 1, 64, 127
3, 246912, Note_on_c, 1, 29, 110
3, 247004, Note_off_c, 1, 29, 100
3, 247008, Note_on_c, 1, 41, 110
3, 247100, Note_off_c, 1, 41, 100
3, 247104, Note_on_c, 1, 29, 110
3, 247196, Note_off_c, 1, 29, 100
3, 247200, Note_on_c, 1, 41, 110
3, 247288, Control_c, 1, 64, 0
3, 247292, Note_off_c, 1, 41, 100
3, 247296, Control_c, 1, 64, 127
3, 247296, Note_on_c, 1, 29, 110
3, 247388, Note_off_c, 1, 29, 100
3, 247392, Note_on_c, 1, 41, 110
3, 247484, Note_off_c, 1, 41, 100
3, 247488, Note_on_c, 1, 29, 110
3, 247580, Note_off_c, 1, 29, 100
3, 247584, Note_on_c, 1, 41, 110
3, 247672, Control_c, 1, 64, 0
3, 247676, Note_off_c, 1, 41, 100
3, 247680, Control_c, 1, 64, 127
3, 247680, Note_on_c, 1, 29, 110
3, 247772, Note_off_c, 1, 29, 100
3, 247776, Note_on_c, 1, 41, 110
3, 247868, Note_off_c, 1, 41, 100
3, 247872, Note_on_c, 1, 29, 110
3, 247964, Note_off_c, 1, 29, 100
3, 247968, Note_on_c, 1, 41, 110
3, 248056, Control_c, 1, 64, 0
3, 248060, Note_off_c, 1, 41, 100
3, 248064, Control_c, 1, 64, 127
3, 248064, Note_on_c, 1, 29, 110
3, 248156, Note_off_c, 1, 29, 100
3, 248160, Note_on_c, 1, 41, 110
3, 248252, Note_off_c, 1, 41, 100
3, 248256, Note_on_c, 1, 29, 110
3, 248348, Note_off_c, 1, 29, 100
3, 248352, Note_on_c, 1, 41, 110
3, 248440, Control_c, 1, 64, 0
3, 248444, Note_off_c, 1, 41, 100
3, 248448, Control_c, 1, 64, 127
3, 248448, Note_on_c, 1, 29, 110
3, 248540, Note_off_c, 1, 29, 100
3, 248544, Note_on_c, 1, 41, 110
3, 248636, Note_off_c, 1, 41, 100
3, 248640, Note_on_c, 1, 29, 110
3, 248732, Note_off_c, 1, 29, 100
3, 248736, Note_on_c, 1, 41, 110
3, 248824, Control_c, 1, 64, 0
3, 248828, Note_off_c, 1, 41, 100
3, 248832, Control_c, 1, 64, 127
3, 248832, Note_on_c, 1, 29, 110
3, 248924, Note_off_c, 1, 29, 100
3, 248928, Note_on_c, 1, 41, 110
3, 249020, Note_off_c, 1, 41, 100
3, 249024, Note_on_c, 1, 29, 110
3, 249116, Note_off_c, 1, 29, 100
3, 249120, Note_on_c, 1, 41, 110
3, 249208, Control_c, 1, 64, 0
3, 249212, Note_off_c, 1, 41, 100
3, 249216, Control_c, 1, 64, 127
3, 249216, Note_on_c, 1, 31, 110
3, 249308, Note_off_c, 1, 31, 100
3, 249312, Note_on_c, 1, 43, 110
3, 249404, Note_off_c, 1, 43, 100
3, 249408, Note_on_c, 1, 33, 110
3, 249500, Note_off_c, 1, 33, 100
3, 249504, Note_on_c, 1, 45, 110
3, 249592, Control_c, 1, 64, 0
3, 249596, Note_off_c, 1, 45, 100
3, 249600, Control_c, 1, 64, 127
3, 249600, Note_on_c, 1, 33, 110
3, 249692, Note_off_c, 1, 33, 100
3, 249696, Note_on_c, 1, 45, 110
3, 249788, Note_off_c, 1, 45, 100
3, 249792, Note_on_c, 1, 34, 110
3, 249884, Note_off_c, 1, 34, 100
3, 249888, Note_on_c, 1, 46, 110
3, 249976, Control_c, 1, 64, 0
3, 249980, Note_off_c, 1, 46, 100
3, 249984, Control_c, 1, 64, 127
3, 249984, Note_on_c, 1, 37, 110
3, 250076, Note_off_c, 1, 37, 100
3, 250080, Note_on_c, 1, 49, 110
3, 250172, Note_off_c, 1, 49, 100
3, 250176, Note_on_c, 1, 38, 110
3, 250268, Note_off_c, 1, 38, 100
3, 250272, Note_on_c, 1, 50, 110
3, 250360, Control_c, 1, 64, 0
3, 250364, Note_off_c, 1, 50, 100
3, 250368, Control_c, 1, 64, 127
3, 250368, Note_on_c, 1, 39, 110
3, 250460, Note_off_c, 1, 39, 100
3, 250464, Note_on_c, 1, 51, 110
3, 250556, Note_off_c, 1, 51, 100
3, 250560, Note_on_c, 1, 40, 110
3, 250652, Note_off_c, 1, 40, 100
3, 250656, Note_on_c, 1, 52, 110
3, 250744, Control_c, 1, 64, 0
3, 250748, Note_off_c, 1, 52, 100
3, 250752, Control_c, 1, 64, 127
3, 250752, Note_on_c, 1, 42, 110
3, 250844, Note_off_c, 1, 42, 100
3, 250848, Note_on_c, 1, 54, 110
3, 250940, Note_off_c, 1, 54, 100
3, 250944, Note_on_c, 1, 43, 110
3, 251036, Note_off_c, 1, 43, 100
3, 251040, Note_on_c, 1, 55, 110
3, 251128, Control_c, 1, 64, 0
3, 251132, Note_off_c, 1, 55, 100
3, 251136, Note_on_c, 1, 57, 110
3, 251136, Note_on_c, 1, 45, 110
3, 251324, Note_off_c, 1, 57, 100
3, 251324, Note_off_c, 1, 45, 100
3, 251328, Note_on_c, 1, 58, 110
3, 251328, Note_on_c, 1, 46, 110
3, 251516, Note_off_c, 1, 58, 100
3, 251516, Note_off_c, 1, 46, 100
3, 251520, Note_on_c, 1, 60, 110
3, 251520, Note_on_c, 1, 48, 110
3, 251708, Note_off_c, 1, 60, 100
3, 251708, Note_off_c, 1, 48, 100
3, 251712, Note_on_c, 1, 36, 110
3, 251900, Note_off_c, 1, 36, 100
3, 251904, Control_c, 1, 64, 127
3, 251904, Note_on_c, 1, 29, 110
3, 251996, Note_off_c, 1, 29, 100
3, 252000, Note_on_c, 1, 41, 110
3, 252092, Note_off_c, 1, 41, 100
3, 252096, Note_on_c, 1, 29, 110
3, 252188, Note_off_c, 1, 29, 100
3, 252192, Note_on_c, 1, 41, 110
3, 252280, Control_c, 1, 64, 0
3, 252284, Note_off_c, 1, 41, 100
3, 252288, Control_c, 1, 64, 127
3, 252288, Note_on_c, 1, 29, 110
3, 252380, Note_off_c, 1, 29, 100
3, 252384, Note_on_c, 1, 41, 110
3, 252476, Note_off_c, 1, 41, 100
3, 252480, Note_on_c, 1, 29, 110
3, 252572, Note_off_c, 1, 29, 100
3, 252576, Note_on_c, 1, 41, 110
3, 252664, Control_c, 1, 64, 0
3, 252668, Note_off_c, 1, 41, 100
3, 252672, Control_c, 1, 64, 127
3, 252672, Note_on_c, 1, 29, 110
3, 252764, Note_off_c, 1, 29, 100
3, 252768, Note_on_c, 1, 41, 110
3, 252860, Note_off_c, 1, 41, 100
3, 252864, Note_on_c, 1, 29, 110
3, 252956, Note_off_c, 1, 29, 100
3, 252960, Note_on_c, 1, 41, 110
3, 253048, Control_c, 1, 64, 0
3, 253052, Note_off_c, 1, 41, 100
3, 253056, Control_c, 1, 64, 127
3, 253056, Note_on_c, 1, 29, 110
3, 253148, Note_off_c, 1, 29, 100
3, 253152, Note_on_c, 1, 41, 110
3, 253244, Note_off_c, 1, 41, 100
3, 253248, Note_on_c, 1, 29, 110
3, 253340, Note_off_c, 1, 29, 100
3, 253344, Note_on_c, 1, 41, 110
3, 253432, Control_c, 1, 64, 0
3, 253436, Note_off_c, 1, 41, 100
3, 253440, Control_c, 1, 64, 127
3, 253440, Note_on_c, 1, 29, 110
3, 253532, Note_off_c, 1, 29, 100
3, 253536, Note_on_c, 1, 41, 110
3, 253628, Note_off_c, 1, 41, 100
3, 253632, Note_on_c, 1, 29, 110
3, 253724, Note_off_c, 1, 29, 100
3, 253728, Note_on_c, 1, 41, 110
3, 253816, Control_c, 1, 64, 0
3, 253820, Note_off_c, 1, 41, 100
3, 253824, Control_c, 1, 64, 127
3, 253824, Note_on_c, 1, 29, 110
3, 253916, Note_off_c, 1, 29, 100
3, 253920, Note_on_c, 1, 41, 110
3, 254012, Note_off_c, 1, 41, 100
3, 254016, Note_on_c, 1, 29, 110
3, 254108, Note_off_c, 1, 29, 100
3, 254112, Note_on_c, 1, 41, 110
3, 254200, Control_c, 1, 64, 0
3, 254204, Note_off_c, 1, 41, 100
3, 254208, Control_c, 1, 64, 127
3, 254208, Note_on_c, 1, 29, 110
3, 254300, Note_off_c, 1, 29, 100
3, 254304, Note_on_c, 1, 41, 110
3, 254396, Note_off_c, 1, 41, 100
3, 254400, Note_on_c, 1, 29, 110
3, 254492, Note_off_c, 1, 29, 100
3, 254496, Note_on_c, 1, 41, 110
3, 254584, Control_c, 1, 64, 0
3, 254588, Note_off_c, 1, 41, 100
3, 254592, Control_c, 1, 64, 127
3, 254592, Note_on_c, 1, 29, 110
3, 254684, Note_off_c, 1, 29, 100
3, 254688, Note_on_c, 1, 41, 110
3, 254780, Note_off_c, 1, 41, 100
3, 254784, Note_on_c, 1, 29, 110
3, 254876, Note_off_c, 1, 29, 100
3, 254880, Note_on_c, 1, 41, 110
3, 254968, Control_c, 1, 64, 0
3, 254972, Note_off_c, 1, 41, 100
3, 254976, Control_c, 1, 64, 127
3, 254976, Note_on_c, 1, 29, 110
3, 255068, Note_off_c, 1, 29, 100
3, 255072, Note_on_c, 1, 41, 110
3, 255164, Note_off_c, 1, 41, 100
3, 255168, Note_on_c, 1, 29, 110
3, 255260, Note_off_c, 1, 29, 100
3, 255264, Note_on_c, 1, 41, 110
3, 255352, Control_c, 1, 64, 0
3, 255356, Note_off_c, 1, 41, 100
3, 255360, Control_c, 1, 64, 127
3, 255360, Note_on_c, 1, 31, 110
3, 255452, Note_off_c, 1, 31, 100
3, 255456, Note_on_c, 1, 43, 110
3, 255548, Note_off_c, 1, 43, 100
3, 255552, Note_on_c, 1, 33, 110
3, 255644, Note_off_c, 1, 33, 100
3, 255648, Note_on_c, 1, 45, 110
3, 255736, Control_c, 1, 64, 0
3, 255740, Note_off_c, 1, 45, 100
3, 255744, Control_c, 1, 64, 127
3, 255744, Note_on_c, 1, 33, 110
3, 255836, Note_off_c, 1, 33, 100
3, 255840, Note_on_c, 1, 45, 110
3, 255932, Note_off_c, 1, 45, 100
3, 255936, Note_on_c, 1, 34, 110
3, 256028, Note_off_c, 1, 34, 100
3, 256032, Note_on_c, 1, 46, 110
3, 256120, Control_c, 1, 64, 0
3, 256124, Note_off_c, 1, 46, 100
3, 256128, Control_c, 1, 64, 127
3, 256128, Note_on_c, 1, 37, 110
3, 256220, Note_off_c, 1, 37, 100
3, 256224, Note_on_c, 1, 49, 110
3, 256316, Note_off_c, 1, 49, 100
3, 256320, Note_on_c, 1, 38, 110
3, 256412, Note_off_c, 1, 38, 100
3, 256416, Note_on_c, 1, 50, 110
3, 256504, Control_c, 1, 64, 0
3, 256508, Note_off_c, 1, 50, 100
3, 256512, Control_c, 1, 64, 127
3, 256512, Note_on_c, 1, 39, 110
3, 256604, Note_off_c, 1, 39, 100
3, 256608, Note_on_c, 1, 51, 110
3, 256700, Note_off_c, 1, 51, 100
3, 256704, Note_on_c, 1, 40, 110
3, 256796, Note_off_c, 1, 40, 100
3, 256800, Note_on_c, 1, 52, 110
3, 256888, Control_c, 1, 64, 0
3, 256892, Note_off_c, 1, 52, 100
3, 256896, Control_c, 1, 64, 127
3, 256896, Note_on_c, 1, 42, 110
3, 256988, Note_off_c, 1, 42, 100
3, 256992, Note_on_c, 1, 54, 110
3, 257084, Note_off_c, 1, 54, 100
3, 257088, Note_on_c, 1, 43, 110
3, 257180, Note_off_c, 1, 43, 100
3, 257184, Note_on_c, 1, 55, 110
3, 257272, Control_c, 1, 64, 0
3, 257276, Note_off_c, 1, 55, 100
3, 257280, Note_on_c, 1, 57, 110
3, 257280, Note_on_c, 1, 45, 110
3, 257468, Note_off_c, 1, 57, 100
3, 257468, Note_off_c, 1, 45, 100
3, 257472, Note_on_c, 1, 58, 110
3, 257472, Note_on_c, 1, 46, 110
3, 257660, Note_off_c, 1, 58, 100
3, 257660, Note_off_c, 1, 46, 100
3, 257664, Note_on_c, 1, 60, 110
3, 257664, Note_on_c, 1, 48, 110
3, 257852, Note_off_c, 1, 60, 100
3, 257852, Note_off_c, 1, 48, 100
3, 257856, Note_on_c, 1, 48, 110
3, 257856, Note_on_c, 1, 36, 110
3, 258044, Note_off_c, 1, 48, 100
3, 258044, Note_off_c, 1, 36, 100
3, 258048, Note_on_c, 1, 57, 110
3, 258048, Note_on_c, 1, 45, 110
3, 258236, Note_off_c, 1, 57, 100
3, 258236, Note_off_c, 1, 45, 100
3, 258240, Note_on_c, 1, 58, 110
3, 258240, Note_on_c, 1, 46, 110
3, 258428, Note_off_c, 1, 58, 100
3, 258428, Note_off_c, 1, 46, 100
3, 258432, Note_on_c, 1, 60, 110
3, 258432, Note_on_c, 1, 48, 110
3, 258620, Note_off_c, 1, 60, 100
3, 258620, Note_off_c, 1, 48, 100
3, 258624, Note_on_c, 1, 48, 110
3, 258624, Note_on_c, 1, 36, 110
3, 258812, Note_off_c, 1, 48, 100
3, 258812, Note_off_c, 1, 36, 100
3, 258816, Note_on_c, 1, 57, 110
3, 258816, Note_on_c, 1, 45, 110
3, 259004, Note_off_c, 1, 57, 100
3, 259004, Note_off_c, 1, 45, 100
3, 259008, Note_on_c, 1, 58, 110
3, 259008, Note_on_c, 1, 46, 110
3, 259196, Note_off_c, 1, 58, 100
3, 259196, Note_off_c, 1, 46, 100
3, 259200, Note_on_c, 1, 60, 110
3, 259200, Note_on_c, 1, 48, 110
3, 259388, Note_off_c, 1, 60, 100
3, 259388, Note_off_c, 1, 48, 100
3, 259392, Note_on_c, 1, 48, 110
3, 259392, Note_on_c, 1, 36, 110
3, 259580, Note_off_c, 1, 48, 100
3, 259580, Note_off_c, 1, 36, 100
3, 259584, Note_on_c, 1, 41, 110
3, 259680, Note_on_c, 1, 45, 110
3, 259756, Note_off_c, 1, 41, 100
3, 259776, Note_on_c, 1, 50, 110
3, 259868, Note_off_c, 1, 45, 100
3, 259872, Note_on_c, 1, 53, 110
3, 259944, Note_off_c, 1, 50, 100
3, 259968, Note_on_c, 1, 44, 110
3, 260048, Note_off_c, 1, 53, 100
3, 260064, Note_on_c, 1, 52, 110
3, 260148, Note_off_c, 1, 44, 100
3, 260160, Note_on_c, 1, 45, 110
3, 260244, Note_off_c, 1, 52, 100
3, 260256, Note_on_c, 1, 53, 110
3, 260340, Note_off_c, 1, 45, 100
3, 260348, Note_off_c, 1, 53, 100
3, 260352, Note_on_c, 1, 41, 110
3, 260448, Note_on_c, 1, 45, 110
3, 260524, Note_off_c, 1, 41, 100
3, 260544, Note_on_c, 1, 50, 110
3, 260636, Note_off_c, 1, 45, 100
3, 260640, Note_on_c, 1, 53, 110
3, 260712, Note_off_c, 1, 50, 100
3, 260736, Note_on_c, 1, 44, 110
3, 260816, Note_off_c, 1, 53, 100
3, 260832, Note_on_c, 1, 52, 110
3, 260916, Note_off_c, 1, 44, 100
3, 260928, Note_on_c, 1, 45, 110
3, 261012, Note_off_c, 1, 52, 100
3, 261024, Note_on_c, 1, 53, 110
3, 261108, Note_off_c, 1, 45, 100
3, 261116, Note_off_c, 1, 53, 100
3, 261120, Note_on_c, 1, 41, 110
3, 261216, Note_on_c, 1, 45, 110
3, 261292, Note_off_c, 1, 41, 100
3, 261312, Note_on_c, 1, 50, 110
3, 261404, Note_off_c, 1, 45, 100
3, 261408, Note_on_c, 1, 53, 110
3, 261480, Note_off_c, 1, 50, 100
3, 261504, Note_on_c, 1, 44, 110
3, 261584, Note_off_c, 1, 53, 100
3, 261600, Note_on_c, 1, 52, 110
3, 261684, Note_off_c, 1, 44, 100
3, 261696, Note_on_c, 1, 45, 110
3, 261780, Note_off_c, 1, 52, 100
3, 261792, Note_on_c, 1, 53, 110
3, 261876, Note_off_c, 1, 45, 100
3, 261884, Note_off_c, 1, 53, 100
3, 261888, Note_on_c, 1, 44, 110
3, 261984, Note_on_c, 1, 52, 110
3, 262068, Note_off_c, 1, 44, 100
3, 262080, Note_on_c, 1, 45, 110
3, 262164, Note_off_c, 1, 52, 100
3, 262176, Note_on_c, 1, 53, 110
3, 262260, Note_off_c, 1, 45, 100
3, 262268, Note_off_c, 1, 53, 100
3, 262272, Note_on_c, 1, 44, 110
3, 262368, Note_on_c, 1, 52, 110
3, 262452, Note_off_c, 1, 44, 100
3, 262464, Note_on_c, 1, 45, 110
3, 262548, Note_off_c, 1, 52, 100
3, 262560, Note_on_c, 1, 53, 110
3, 262644, Note_off_c, 1, 45, 100
3, 262652, Note_off_c, 1, 53, 100
3, 262656, Note_on_c, 1, 48, 110
3, 262656, Note_on_c, 1, 41, 110
3, 262844, Note_off_c, 1, 48, 100
3, 262844, Note_off_c, 1, 41, 100
3, 263040, Note_on_c, 1, 48, 110
3, 263040, Note_on_c, 1, 41, 110
3, 263228, Note_off_c, 1, 48, 100
3, 263228, Note_off_c, 1, 41, 100
3, 263232, Note_on_c, 1, 48, 110
3, 263232, Note_on_c, 1, 41, 110
3, 263804, Note_off_c, 1, 41, 100
3, 263804, Note_off_c, 1, 48, 100
3, 263808, Note_on_c, 1, 48, 110
3, 263808, Note_on_c, 1, 41, 110
3, 263996, Note_off_c, 1, 48, 100
3, 263996, Note_off_c, 1, 41, 100
3, 264000, Note_on_c, 1, 48, 110
3, 264000, Note_on_c, 1, 41, 110
3, 264572, Note_off_c, 1, 41, 100
3, 264572, Note_off_c, 1, 48, 100
3, 264576, Note_on_c, 1, 48, 120
3, 264576, Note_on_c, 1, 41, 120
3, 264764, Note_off_c, 1, 48, 100
3, 264764, Note_off_c, 1, 41, 100
3, 264768, Note_on_c, 1, 48, 120
3, 264768, Note_on_c, 1, 41, 120
3, 265148, Note_off_c, 1, 41, 100
3, 265148, Note_off_c, 1, 48, 100
3, 265152, Note_on_c, 1, 48, 120
3, 265152, Note_on_c, 1, 41, 120
3, 265532, Note_off_c, 1, 48, 100
3, 265532, Note_off_c, 1, 41, 100
3, 265536, Note_on_c, 1, 48, 120
3, 265536, Note_on_c, 1, 41, 120
3, 265916, Note_off_c, 1, 41, 100
3, 265916, Note_off_c, 1, 48, 100
3, 266112, Note_on_c, 1, 41, 120
3, 266112, Note_on_c, 1, 29, 120
3, 266492, Note_off_c, 1, 41, 100
3, 266492, Note_off_c, 1, 29, 100
3, 266492, End_track
0, 0, End_of_file
