0, 0, Header, 1, 3, 384
1, 0, Start_track
1, 0, Title_t, "L.v.Beethoven 1mov - Piano Sonata No.22 in F Major Op.54\000"
1, 0, Copyright_t, "Copyright(C) 1995-2009, Suzuki Software\000"
1, 0, Sequencer_specific, 9, 67, 123, 0, 88, 70, 48, 50, 0, 1
1, 0, Text_t, "XFhd:2000/08/13:JP:Classical::::L.v.Beethoven:::Kaoru Suzuki\000"
1, 0, Text_t, "XFln:JP:\203s\203A\203m\203\\\203i\203^\221æ22\224Ô\203w\222·\222²\215ì\225i54\201`\221æ1\212y\217Í:L.v.\203x\201[\203g\201[\203\224\203F\203\223:::\227é\202¿\202á\202ñ:\227é\202¿\202á\202ñ\000"
1, 0, Time_signature, 1, 2, 96, 8
1, 0, Sequencer_specific, 3, 0, 0, 65
1, 0, Sequencer_specific, 5, 0, 0, 119, 14, 0
1, 0, Tempo, 800000
1, 384, Time_signature, 3, 2, 96, 8
1, 17856, Tempo, 857142
1, 18048, Tempo, 923076
1, 18624, Tempo, 800000
1, 27072, Tempo, 857142
1, 27264, Tempo, 1000000
1, 27648, Tempo, 666666
1, 37824, Tempo, 750000
1, 38208, Tempo, 666666
1, 41280, Tempo, 750000
1, 41664, Tempo, 666666
1, 56256, Tempo, 750000
1, 56640, Tempo, 666666
1, 63936, Tempo, 750000
1, 64128, Tempo, 800000
1, 64320, Tempo, 689655
1, 69504, Tempo, 800000
1, 70656, Tempo, 705882
1, 78720, Tempo, 750000
1, 79296, Tempo, 800000
1, 106368, Tempo, 833333
1, 106560, Tempo, 923076
1, 107136, Tempo, 800000
1, 107328, Tempo, 666666
1, 115776, Tempo, 705882
1, 115968, Tempo, 750000
1, 116544, Tempo, 1000000
1, 116736, Tempo, 800000
1, 116928, Tempo, 750000
1, 117696, Tempo, 1000000
1, 119040, Tempo, 800000
1, 120000, Tempo, 1000000
1, 120960, Tempo, 769230
1, 138816, Tempo, 1000000
1, 139480, Tempo, 750000
1, 155904, Tempo, 1000000
1, 158208, Time_signature, 1, 2, 96, 8
1, 158208, Tempo, 857142
1, 158592, Time_signature, 3, 2, 96, 8
1, 158592, Tempo, 800000
1, 166272, Tempo, 833333
1, 166464, Tempo, 923076
1, 166848, Tempo, 857142
1, 167232, Tempo, 800000
1, 172416, Tempo, 666666
1, 173568, Tempo, 705882
1, 173952, Tempo, 750000
1, 174336, Tempo, 857142
1, 174528, Tempo, 1000000
1, 174528, End_track
2, 0, Start_track
2, 0, Title_t, "Right"
2, 0, Control_c, 0, 0, 0
2, 0, Program_c, 0, 0
2, 0, Control_c, 0, 7, 100
2, 0, Control_c, 0, 10, 75
2, 0, Control_c, 0, 91, 127
2, 0, Key_signature, -1, "major"
2, 0, Note_on_c, 0, 48, 80
2, 284, Note_off_c, 0, 48, 100
2, 288, Note_on_c, 0, 52, 80
2, 380, Note_off_c, 0, 52, 100
2, 384, Note_on_c, 0, 53, 80
2, 384, Note_on_c, 0, 45, 80
2, 764, Note_off_c, 0, 45, 100
2, 768, Note_on_c, 0, 46, 80
2, 956, Note_off_c, 0, 46, 100
2, 1148, Note_off_c, 0, 53, 100
2, 1152, Note_on_c, 0, 60, 80
2, 1436, Note_off_c, 0, 60, 100
2, 1440, Note_on_c, 0, 64, 80
2, 1532, Note_off_c, 0, 64, 100
2, 1536, Note_on_c, 0, 65, 80
2, 1536, Note_on_c, 0, 60, 80
2, 1916, Note_off_c, 0, 60, 100
2, 1920, Note_on_c, 0, 62, 80
2, 2108, Note_off_c, 0, 62, 100
2, 2300, Note_off_c, 0, 65, 100
2, 2304, Note_on_c, 0, 72, 80
2, 2588, Note_off_c, 0, 72, 100
2, 2592, Note_on_c, 0, 77, 80
2, 2684, Note_off_c, 0, 77, 100
2, 2688, Note_on_c, 0, 81, 80
2, 3356, Note_off_c, 0, 81, 100
2, 3360, Note_on_c, 0, 77, 80
2, 3452, Note_off_c, 0, 77, 100
2, 3456, Note_on_c, 0, 79, 80
2, 3740, Note_off_c, 0, 79, 100
2, 3744, Note_on_c, 0, 76, 80
2, 3836, Note_off_c, 0, 76, 100
2, 3840, Note_on_c, 0, 77, 80
2, 4220, Note_off_c, 0, 77, 100
2, 4608, Note_on_c, 0, 48, 80
2, 4892, Note_off_c, 0, 48, 100
2, 4896, Note_on_c, 0, 52, 80
2, 4988, Note_off_c, 0, 52, 100
2, 4992, Note_on_c, 0, 53, 80
2, 4992, Note_on_c, 0, 45, 80
2, 5372, Note_off_c, 0, 45, 100
2, 5376, Note_on_c, 0, 46, 80
2, 5564, Note_off_c, 0, 46, 100
2, 5756, Note_off_c, 0, 53, 100
2, 5760, Note_on_c, 0, 60, 80
2, 6044, Note_off_c, 0, 60, 100
2, 6048, Note_on_c, 0, 64, 80
2, 6140, Note_off_c, 0, 64, 100
2, 6144, Note_on_c, 0, 65, 80
2, 6144, Note_on_c, 0, 60, 80
2, 6524, Note_off_c, 0, 60, 100
2, 6528, Note_on_c, 0, 62, 80
2, 6716, Note_off_c, 0, 62, 100
2, 6908, Note_off_c, 0, 65, 100
2, 6912, Note_on_c, 0, 72, 80
2, 7196, Note_off_c, 0, 72, 100
2, 7200, Note_on_c, 0, 77, 80
2, 7292, Note_off_c, 0, 77, 100
2, 7296, Note_on_c, 0, 81, 80
2, 7964, Note_off_c, 0, 81, 100
2, 7968, Note_on_c, 0, 77, 80
2, 8060, Note_off_c, 0, 77, 100
2, 8064, Note_on_c, 0, 79, 80
2, 8348, Note_off_c, 0, 79, 100
2, 8352, Note_on_c, 0, 76, 80
2, 8444, Note_off_c, 0, 76, 100
2, 8448, Note_on_c, 0, 77, 80
2, 8828, Note_off_c, 0, 77, 100
2, 9216, Note_on_c, 0, 53, 80
2, 9500, Note_off_c, 0, 53, 100
2, 9504, Note_on_c, 0, 57, 80
2, 9596, Note_off_c, 0, 57, 100
2, 9600, Note_on_c, 0, 61, 80
2, 9980, Note_off_c, 0, 61, 100
2, 9984, Note_on_c, 0, 62, 80
2, 10652, Note_off_c, 0, 62, 100
2, 10656, Note_on_c, 0, 59, 80
2, 10748, Note_off_c, 0, 59, 100
2, 10752, Note_on_c, 0, 60, 80
2, 11036, Note_off_c, 0, 60, 100
2, 11040, Note_on_c, 0, 57, 80
2, 11132, Note_off_c, 0, 57, 100
2, 11136, Note_on_c, 0, 53, 80
2, 11324, Note_off_c, 0, 53, 100
2, 11520, Note_on_c, 0, 65, 80
2, 11804, Note_off_c, 0, 65, 100
2, 11808, Note_on_c, 0, 69, 80
2, 11900, Note_off_c, 0, 69, 100
2, 11904, Note_on_c, 0, 73, 80
2, 12284, Note_off_c, 0, 73, 100
2, 12288, Note_on_c, 0, 74, 80
2, 12956, Note_off_c, 0, 74, 100
2, 12960, Note_on_c, 0, 71, 80
2, 13052, Note_off_c, 0, 71, 100
2, 13056, Note_on_c, 0, 72, 80
2, 13340, Note_off_c, 0, 72, 100
2, 13344, Note_on_c, 0, 69, 80
2, 13436, Note_off_c, 0, 69, 100
2, 13440, Note_on_c, 0, 65, 80
2, 13628, Note_off_c, 0, 65, 100
2, 13824, Note_on_c, 0, 77, 80
2, 14108, Note_off_c, 0, 77, 100
2, 14112, Note_on_c, 0, 81, 80
2, 14204, Note_off_c, 0, 81, 100
2, 14208, Note_on_c, 0, 85, 80
2, 14588, Note_off_c, 0, 85, 100
2, 14592, Note_on_c, 0, 86, 83
2, 14592, Note_on_c, 0, 74, 83
2, 15260, Note_off_c, 0, 86, 100
2, 15260, Note_off_c, 0, 74, 100
2, 15264, Note_on_c, 0, 83, 89
2, 15264, Note_on_c, 0, 74, 89
2, 15356, Note_off_c, 0, 83, 100
2, 15356, Note_off_c, 0, 74, 100
2, 15360, Note_on_c, 0, 84, 90
2, 15360, Note_on_c, 0, 72, 90
2, 15644, Note_off_c, 0, 84, 100
2, 15644, Note_off_c, 0, 72, 100
2, 15648, Note_on_c, 0, 81, 93
2, 15648, Note_on_c, 0, 72, 93
2, 15740, Note_off_c, 0, 81, 100
2, 15740, Note_off_c, 0, 72, 100
2, 15744, Note_on_c, 0, 82, 93
2, 15744, Note_on_c, 0, 70, 93
2, 16412, Note_off_c, 0, 82, 100
2, 16412, Note_off_c, 0, 70, 100
2, 16416, Note_on_c, 0, 79, 99
2, 16416, Note_on_c, 0, 70, 99
2, 16508, Note_off_c, 0, 79, 100
2, 16508, Note_off_c, 0, 70, 100
2, 16512, Note_on_c, 0, 69, 100
2, 16512, Note_on_c, 0, 81, 100
2, 16796, Note_off_c, 0, 69, 100
2, 16796, Note_off_c, 0, 81, 100
2, 16800, Note_on_c, 0, 77, 100
2, 16800, Note_on_c, 0, 69, 100
2, 16892, Note_off_c, 0, 77, 100
2, 16892, Note_off_c, 0, 69, 100
2, 16896, Note_on_c, 0, 79, 100
2, 16896, Note_on_c, 0, 67, 100
2, 17276, Note_off_c, 0, 67, 100
2, 17280, Note_on_c, 0, 70, 100
2, 17564, Note_off_c, 0, 79, 100
2, 17568, Note_on_c, 0, 74, 100
2, 17660, Note_off_c, 0, 70, 100
2, 17660, Note_off_c, 0, 74, 100
2, 17664, Note_on_c, 0, 70, 90
2, 17664, Note_on_c, 0, 77, 90
2, 17708, Note_off_c, 0, 77, 100
2, 17712, Note_on_c, 0, 76, 89
2, 17756, Note_off_c, 0, 76, 100
2, 17760, Note_on_c, 0, 74, 88
2, 17804, Note_off_c, 0, 74, 100
2, 17808, Note_on_c, 0, 76, 87
2, 17948, Note_off_c, 0, 76, 100
2, 17952, Note_on_c, 0, 79, 83
2, 18044, Note_off_c, 0, 70, 100
2, 18044, Note_off_c, 0, 79, 100
2, 18048, Note_on_c, 0, 77, 81
2, 18048, Note_on_c, 0, 69, 81
2, 18236, Note_off_c, 0, 77, 100
2, 18236, Note_off_c, 0, 69, 100
2, 18432, Note_on_c, 0, 53, 80
2, 18716, Note_off_c, 0, 53, 100
2, 18720, Note_on_c, 0, 57, 80
2, 18812, Note_off_c, 0, 57, 100
2, 18816, Note_on_c, 0, 61, 80
2, 19196, Note_off_c, 0, 61, 100
2, 19200, Note_on_c, 0, 62, 80
2, 19868, Note_off_c, 0, 62, 100
2, 19872, Note_on_c, 0, 59, 80
2, 19964, Note_off_c, 0, 59, 100
2, 19968, Note_on_c, 0, 60, 80
2, 20252, Note_off_c, 0, 60, 100
2, 20256, Note_on_c, 0, 57, 80
2, 20348, Note_off_c, 0, 57, 100
2, 20352, Note_on_c, 0, 53, 80
2, 20540, Note_off_c, 0, 53, 100
2, 20736, Note_on_c, 0, 67, 80
2, 20780, Note_off_c, 0, 67, 100
2, 20784, Note_on_c, 0, 65, 80
2, 20828, Note_off_c, 0, 65, 100
2, 20832, Note_on_c, 0, 64, 80
2, 20876, Note_off_c, 0, 64, 100
2, 20880, Note_on_c, 0, 65, 80
2, 21020, Note_off_c, 0, 65, 100
2, 21024, Note_on_c, 0, 69, 80
2, 21116, Note_off_c, 0, 69, 100
2, 21120, Note_on_c, 0, 73, 80
2, 21500, Note_off_c, 0, 73, 100
2, 21504, Note_on_c, 0, 74, 80
2, 22172, Note_off_c, 0, 74, 100
2, 22176, Note_on_c, 0, 71, 80
2, 22268, Note_off_c, 0, 71, 100
2, 22272, Note_on_c, 0, 72, 80
2, 22556, Note_off_c, 0, 72, 100
2, 22560, Note_on_c, 0, 69, 80
2, 22652, Note_off_c, 0, 69, 100
2, 22656, Note_on_c, 0, 65, 80
2, 22844, Note_off_c, 0, 65, 100
2, 23040, Note_on_c, 0, 79, 80
2, 23084, Note_off_c, 0, 79, 100
2, 23088, Note_on_c, 0, 77, 80
2, 23132, Note_off_c, 0, 77, 100
2, 23136, Note_on_c, 0, 76, 80
2, 23180, Note_off_c, 0, 76, 100
2, 23184, Note_on_c, 0, 77, 80
2, 23324, Note_off_c, 0, 77, 100
2, 23328, Note_on_c, 0, 81, 80
2, 23420, Note_off_c, 0, 81, 100
2, 23424, Note_on_c, 0, 85, 80
2, 23804, Note_off_c, 0, 85, 100
2, 23808, Note_on_c, 0, 86, 84
2, 23808, Note_on_c, 0, 74, 84
2, 24476, Note_off_c, 0, 86, 100
2, 24476, Note_off_c, 0, 74, 100
2, 24480, Note_on_c, 0, 83, 92
2, 24480, Note_on_c, 0, 74, 92
2, 24572, Note_off_c, 0, 83, 100
2, 24572, Note_off_c, 0, 74, 100
2, 24576, Note_on_c, 0, 84, 93
2, 24576, Note_on_c, 0, 72, 93
2, 24860, Note_off_c, 0, 84, 100
2, 24860, Note_off_c, 0, 72, 100
2, 24864, Note_on_c, 0, 81, 96
2, 24864, Note_on_c, 0, 72, 96
2, 24956, Note_off_c, 0, 81, 100
2, 24956, Note_off_c, 0, 72, 100
2, 24960, Note_on_c, 0, 82, 97
2, 24960, Note_on_c, 0, 70, 97
2, 25628, Note_off_c, 0, 82, 100
2, 25628, Note_off_c, 0, 70, 100
2, 25632, Note_on_c, 0, 79, 105
2, 25632, Note_on_c, 0, 70, 105
2, 25724, Note_off_c, 0, 79, 100
2, 25724, Note_off_c, 0, 70, 100
2, 25728, Note_on_c, 0, 69, 106
2, 25728, Note_on_c, 0, 81, 106
2, 26012, Note_off_c, 0, 69, 100
2, 26012, Note_off_c, 0, 81, 100
2, 26016, Note_on_c, 0, 77, 109
2, 26016, Note_on_c, 0, 69, 109
2, 26108, Note_off_c, 0, 77, 100
2, 26108, Note_off_c, 0, 69, 100
2, 26112, Note_on_c, 0, 79, 110
2, 26112, Note_on_c, 0, 67, 110
2, 26492, Note_off_c, 0, 67, 100
2, 26496, Note_on_c, 0, 70, 99
2, 26780, Note_off_c, 0, 79, 100
2, 26784, Note_on_c, 0, 74, 91
2, 26876, Note_off_c, 0, 70, 100
2, 26876, Note_off_c, 0, 74, 100
2, 26880, Note_on_c, 0, 70, 80
2, 26880, Note_on_c, 0, 77, 80
2, 26924, Note_off_c, 0, 77, 100
2, 26928, Note_on_c, 0, 76, 80
2, 26972, Note_off_c, 0, 76, 100
2, 26976, Note_on_c, 0, 74, 80
2, 27020, Note_off_c, 0, 74, 100
2, 27024, Note_on_c, 0, 76, 80
2, 27164, Note_off_c, 0, 76, 100
2, 27168, Note_on_c, 0, 79, 80
2, 27260, Note_off_c, 0, 70, 100
2, 27260, Note_off_c, 0, 79, 100
2, 27264, Note_on_c, 0, 77, 80
2, 27264, Note_on_c, 0, 69, 80
2, 27452, Note_off_c, 0, 77, 100
2, 27452, Note_off_c, 0, 69, 100
2, 28800, Note_on_c, 0, 60, 110
2, 28800, Note_on_c, 0, 72, 110
2, 28924, Note_off_c, 0, 60, 100
2, 28924, Note_off_c, 0, 72, 100
2, 28928, Note_on_c, 0, 72, 110
2, 28928, Note_on_c, 0, 84, 110
2, 29052, Note_off_c, 0, 72, 100
2, 29052, Note_off_c, 0, 84, 100
2, 29056, Note_on_c, 0, 71, 110
2, 29056, Note_on_c, 0, 83, 110
2, 29180, Note_off_c, 0, 71, 100
2, 29180, Note_off_c, 0, 83, 100
2, 29184, Note_on_c, 0, 72, 110
2, 29184, Note_on_c, 0, 84, 110
2, 29308, Note_off_c, 0, 72, 100
2, 29308, Note_off_c, 0, 84, 100
2, 29312, Note_on_c, 0, 70, 110
2, 29312, Note_on_c, 0, 82, 110
2, 29436, Note_off_c, 0, 70, 100
2, 29436, Note_off_c, 0, 82, 100
2, 29440, Note_on_c, 0, 69, 110
2, 29440, Note_on_c, 0, 81, 110
2, 29564, Note_off_c, 0, 69, 100
2, 29564, Note_off_c, 0, 81, 100
2, 29568, Note_on_c, 0, 67, 110
2, 29568, Note_on_c, 0, 79, 110
2, 29692, Note_off_c, 0, 67, 100
2, 29692, Note_off_c, 0, 79, 100
2, 29696, Note_on_c, 0, 69, 110
2, 29696, Note_on_c, 0, 81, 110
2, 29820, Note_off_c, 0, 69, 100
2, 29820, Note_off_c, 0, 81, 100
2, 29824, Note_on_c, 0, 70, 110
2, 29824, Note_on_c, 0, 82, 110
2, 29948, Note_off_c, 0, 70, 100
2, 29948, Note_off_c, 0, 82, 100
2, 29952, Note_on_c, 0, 69, 110
2, 29952, Note_on_c, 0, 81, 110
2, 30076, Note_off_c, 0, 69, 100
2, 30076, Note_off_c, 0, 81, 100
2, 30080, Note_on_c, 0, 67, 110
2, 30080, Note_on_c, 0, 79, 110
2, 30204, Note_off_c, 0, 67, 100
2, 30204, Note_off_c, 0, 79, 100
2, 30208, Note_on_c, 0, 65, 110
2, 30208, Note_on_c, 0, 77, 110
2, 30332, Note_off_c, 0, 65, 100
2, 30332, Note_off_c, 0, 77, 100
2, 30336, Note_on_c, 0, 64, 110
2, 30336, Note_on_c, 0, 76, 110
2, 30460, Note_off_c, 0, 64, 100
2, 30460, Note_off_c, 0, 76, 100
2, 30464, Note_on_c, 0, 65, 110
2, 30464, Note_on_c, 0, 77, 110
2, 30588, Note_off_c, 0, 65, 100
2, 30588, Note_off_c, 0, 77, 100
2, 30592, Note_on_c, 0, 67, 110
2, 30592, Note_on_c, 0, 79, 110
2, 30716, Note_off_c, 0, 67, 100
2, 30716, Note_off_c, 0, 79, 100
2, 30720, Note_on_c, 0, 65, 110
2, 30720, Note_on_c, 0, 77, 110
2, 30844, Note_off_c, 0, 65, 100
2, 30844, Note_off_c, 0, 77, 100
2, 30848, Note_on_c, 0, 64, 110
2, 30848, Note_on_c, 0, 76, 110
2, 30972, Note_off_c, 0, 64, 100
2, 30972, Note_off_c, 0, 76, 100
2, 30976, Note_on_c, 0, 62, 110
2, 30976, Note_on_c, 0, 74, 110
2, 31100, Note_off_c, 0, 62, 100
2, 31100, Note_off_c, 0, 74, 100
2, 31104, Note_on_c, 0, 61, 110
2, 31104, Note_on_c, 0, 73, 110
2, 31228, Note_off_c, 0, 61, 100
2, 31228, Note_off_c, 0, 73, 100
2, 31232, Note_on_c, 0, 62, 110
2, 31232, Note_on_c, 0, 74, 110
2, 31356, Note_off_c, 0, 62, 100
2, 31356, Note_off_c, 0, 74, 100
2, 31360, Note_on_c, 0, 64, 110
2, 31360, Note_on_c, 0, 76, 110
2, 31484, Note_off_c, 0, 64, 100
2, 31484, Note_off_c, 0, 76, 100
2, 31488, Note_on_c, 0, 62, 110
2, 31488, Note_on_c, 0, 74, 110
2, 31612, Note_off_c, 0, 62, 100
2, 31612, Note_off_c, 0, 74, 100
2, 31616, Note_on_c, 0, 60, 110
2, 31616, Note_on_c, 0, 72, 110
2, 31740, Note_off_c, 0, 60, 100
2, 31740, Note_off_c, 0, 72, 100
2, 31744, Note_on_c, 0, 58, 110
2, 31744, Note_on_c, 0, 70, 110
2, 31868, Note_off_c, 0, 58, 100
2, 31868, Note_off_c, 0, 70, 100
2, 31872, Note_on_c, 0, 57, 110
2, 31872, Note_on_c, 0, 69, 110
2, 31996, Note_off_c, 0, 57, 100
2, 31996, Note_off_c, 0, 69, 100
2, 32000, Note_on_c, 0, 55, 110
2, 32000, Note_on_c, 0, 67, 110
2, 32124, Note_off_c, 0, 55, 100
2, 32124, Note_off_c, 0, 67, 100
2, 32128, Note_on_c, 0, 53, 110
2, 32128, Note_on_c, 0, 65, 110
2, 32252, Note_off_c, 0, 53, 100
2, 32252, Note_off_c, 0, 65, 100
2, 32256, Note_on_c, 0, 52, 110
2, 32256, Note_on_c, 0, 64, 110
2, 32380, Note_off_c, 0, 52, 100
2, 32380, Note_off_c, 0, 64, 100
2, 32384, Note_on_c, 0, 60, 110
2, 32384, Note_on_c, 0, 72, 110
2, 32508, Note_off_c, 0, 60, 100
2, 32508, Note_off_c, 0, 72, 100
2, 32512, Note_on_c, 0, 59, 110
2, 32512, Note_on_c, 0, 71, 110
2, 32636, Note_off_c, 0, 59, 100
2, 32636, Note_off_c, 0, 71, 100
2, 32640, Note_on_c, 0, 60, 110
2, 32640, Note_on_c, 0, 72, 110
2, 32764, Note_off_c, 0, 60, 100
2, 32764, Note_off_c, 0, 72, 100
2, 32768, Note_on_c, 0, 58, 110
2, 32768, Note_on_c, 0, 70, 110
2, 32892, Note_off_c, 0, 58, 100
2, 32892, Note_off_c, 0, 70, 100
2, 32896, Note_on_c, 0, 57, 110
2, 32896, Note_on_c, 0, 69, 110
2, 33020, Note_off_c, 0, 57, 100
2, 33020, Note_off_c, 0, 69, 100
2, 33024, Note_on_c, 0, 55, 110
2, 33024, Note_on_c, 0, 67, 110
2, 33148, Note_off_c, 0, 55, 100
2, 33148, Note_off_c, 0, 67, 100
2, 33152, Note_on_c, 0, 57, 110
2, 33152, Note_on_c, 0, 69, 110
2, 33276, Note_off_c, 0, 57, 100
2, 33276, Note_off_c, 0, 69, 100
2, 33280, Note_on_c, 0, 58, 110
2, 33280, Note_on_c, 0, 70, 110
2, 33404, Note_off_c, 0, 58, 100
2, 33404, Note_off_c, 0, 70, 100
2, 33408, Note_on_c, 0, 57, 110
2, 33408, Note_on_c, 0, 69, 110
2, 33532, Note_off_c, 0, 57, 100
2, 33532, Note_off_c, 0, 69, 100
2, 33536, Note_on_c, 0, 69, 110
2, 33536, Note_on_c, 0, 81, 110
2, 33660, Note_off_c, 0, 69, 100
2, 33660, Note_off_c, 0, 81, 100
2, 33664, Note_on_c, 0, 68, 110
2, 33664, Note_on_c, 0, 80, 110
2, 33788, Note_off_c, 0, 68, 100
2, 33788, Note_off_c, 0, 80, 100
2, 33792, Note_on_c, 0, 69, 110
2, 33792, Note_on_c, 0, 81, 110
2, 33916, Note_off_c, 0, 69, 100
2, 33916, Note_off_c, 0, 81, 100
2, 33920, Note_on_c, 0, 67, 110
2, 33920, Note_on_c, 0, 79, 110
2, 34044, Note_off_c, 0, 67, 100
2, 34044, Note_off_c, 0, 79, 100
2, 34048, Note_on_c, 0, 65, 110
2, 34048, Note_on_c, 0, 77, 110
2, 34172, Note_off_c, 0, 65, 100
2, 34172, Note_off_c, 0, 77, 100
2, 34176, Note_on_c, 0, 76, 110
2, 34176, Note_on_c, 0, 67, 110
2, 34300, Note_off_c, 0, 76, 100
2, 34300, Note_off_c, 0, 67, 100
2, 34304, Note_on_c, 0, 77, 110
2, 34304, Note_on_c, 0, 69, 110
2, 34428, Note_off_c, 0, 77, 100
2, 34428, Note_off_c, 0, 69, 100
2, 34432, Note_on_c, 0, 79, 110
2, 34432, Note_on_c, 0, 70, 110
2, 34556, Note_off_c, 0, 79, 100
2, 34556, Note_off_c, 0, 70, 100
2, 34560, Note_on_c, 0, 77, 110
2, 34560, Note_on_c, 0, 69, 110
2, 34684, Note_off_c, 0, 77, 100
2, 34684, Note_off_c, 0, 69, 100
2, 34688, Note_on_c, 0, 79, 110
2, 34688, Note_on_c, 0, 70, 110
2, 34812, Note_off_c, 0, 79, 100
2, 34812, Note_off_c, 0, 70, 100
2, 34816, Note_on_c, 0, 81, 110
2, 34816, Note_on_c, 0, 72, 110
2, 34940, Note_off_c, 0, 81, 100
2, 34940, Note_off_c, 0, 72, 100
2, 34944, Note_on_c, 0, 73, 110
2, 34944, Note_on_c, 0, 64, 110
2, 35068, Note_off_c, 0, 73, 100
2, 35068, Note_off_c, 0, 64, 100
2, 35072, Note_on_c, 0, 74, 110
2, 35072, Note_on_c, 0, 65, 110
2, 35196, Note_off_c, 0, 74, 100
2, 35196, Note_off_c, 0, 65, 100
2, 35200, Note_on_c, 0, 76, 110
2, 35200, Note_on_c, 0, 67, 110
2, 35324, Note_off_c, 0, 76, 100
2, 35324, Note_off_c, 0, 67, 100
2, 35328, Note_on_c, 0, 74, 110
2, 35328, Note_on_c, 0, 65, 110
2, 35452, Note_off_c, 0, 74, 100
2, 35452, Note_off_c, 0, 65, 100
2, 35456, Note_on_c, 0, 76, 110
2, 35456, Note_on_c, 0, 67, 110
2, 35580, Note_off_c, 0, 76, 100
2, 35580, Note_off_c, 0, 67, 100
2, 35584, Note_on_c, 0, 77, 110
2, 35584, Note_on_c, 0, 69, 110
2, 35708, Note_off_c, 0, 77, 100
2, 35708, Note_off_c, 0, 69, 100
2, 35712, Note_on_c, 0, 71, 110
2, 35712, Note_on_c, 0, 62, 110
2, 35836, Note_off_c, 0, 71, 100
2, 35836, Note_off_c, 0, 62, 100
2, 35840, Note_on_c, 0, 72, 110
2, 35840, Note_on_c, 0, 64, 110
2, 35964, Note_off_c, 0, 72, 100
2, 35964, Note_off_c, 0, 64, 100
2, 35968, Note_on_c, 0, 74, 110
2, 35968, Note_on_c, 0, 65, 110
2, 36092, Note_off_c, 0, 74, 100
2, 36092, Note_off_c, 0, 65, 100
2, 36096, Note_on_c, 0, 72, 110
2, 36096, Note_on_c, 0, 64, 110
2, 36220, Note_off_c, 0, 72, 100
2, 36220, Note_off_c, 0, 64, 100
2, 36224, Note_on_c, 0, 74, 110
2, 36224, Note_on_c, 0, 65, 110
2, 36348, Note_off_c, 0, 74, 100
2, 36348, Note_off_c, 0, 65, 100
2, 36352, Note_on_c, 0, 76, 110
2, 36352, Note_on_c, 0, 67, 110
2, 36476, Note_off_c, 0, 76, 100
2, 36476, Note_off_c, 0, 67, 100
2, 36480, Note_on_c, 0, 73, 110
2, 36480, Note_on_c, 0, 64, 110
2, 36604, Note_off_c, 0, 73, 100
2, 36604, Note_off_c, 0, 64, 100
2, 36608, Note_on_c, 0, 74, 110
2, 36608, Note_on_c, 0, 65, 110
2, 36732, Note_off_c, 0, 74, 100
2, 36732, Note_off_c, 0, 65, 100
2, 36736, Note_on_c, 0, 76, 110
2, 36736, Note_on_c, 0, 67, 110
2, 36860, Note_off_c, 0, 76, 100
2, 36860, Note_off_c, 0, 67, 100
2, 36864, Note_on_c, 0, 74, 110
2, 36864, Note_on_c, 0, 65, 110
2, 36988, Note_off_c, 0, 74, 100
2, 36988, Note_off_c, 0, 65, 100
2, 36992, Note_on_c, 0, 76, 110
2, 36992, Note_on_c, 0, 67, 110
2, 37116, Note_off_c, 0, 76, 100
2, 37116, Note_off_c, 0, 67, 100
2, 37120, Note_on_c, 0, 77, 110
2, 37120, Note_on_c, 0, 69, 110
2, 37244, Note_off_c, 0, 77, 100
2, 37244, Note_off_c, 0, 69, 100
2, 37248, Note_on_c, 0, 71, 110
2, 37248, Note_on_c, 0, 62, 110
2, 37372, Note_off_c, 0, 71, 100
2, 37372, Note_off_c, 0, 62, 100
2, 37376, Note_on_c, 0, 72, 110
2, 37376, Note_on_c, 0, 64, 110
2, 37500, Note_off_c, 0, 72, 100
2, 37500, Note_off_c, 0, 64, 100
2, 37504, Note_on_c, 0, 74, 110
2, 37504, Note_on_c, 0, 65, 110
2, 37628, Note_off_c, 0, 74, 100
2, 37628, Note_off_c, 0, 65, 100
2, 37632, Note_on_c, 0, 72, 110
2, 37632, Note_on_c, 0, 64, 110
2, 37756, Note_off_c, 0, 72, 100
2, 37756, Note_off_c, 0, 64, 100
2, 37760, Note_on_c, 0, 74, 110
2, 37760, Note_on_c, 0, 65, 110
2, 37884, Note_off_c, 0, 74, 100
2, 37884, Note_off_c, 0, 65, 100
2, 37888, Note_on_c, 0, 76, 110
2, 37888, Note_on_c, 0, 67, 110
2, 38012, Note_off_c, 0, 76, 100
2, 38012, Note_off_c, 0, 67, 100
2, 38016, Note_on_c, 0, 72, 110
2, 38016, Note_on_c, 0, 60, 110
2, 38140, Note_off_c, 0, 72, 100
2, 38140, Note_off_c, 0, 60, 100
2, 38144, Note_on_c, 0, 74, 110
2, 38144, Note_on_c, 0, 62, 110
2, 38268, Note_off_c, 0, 74, 100
2, 38268, Note_off_c, 0, 62, 100
2, 38272, Note_on_c, 0, 76, 110
2, 38272, Note_on_c, 0, 64, 110
2, 38396, Note_off_c, 0, 76, 100
2, 38396, Note_off_c, 0, 64, 100
2, 38400, Note_on_c, 0, 65, 110
2, 38400, Note_on_c, 0, 77, 110
2, 38524, Note_off_c, 0, 65, 100
2, 38524, Note_off_c, 0, 77, 100
2, 38528, Note_on_c, 0, 67, 110
2, 38528, Note_on_c, 0, 79, 110
2, 38652, Note_off_c, 0, 67, 100
2, 38652, Note_off_c, 0, 79, 100
2, 38656, Note_on_c, 0, 69, 110
2, 38656, Note_on_c, 0, 81, 110
2, 38780, Note_off_c, 0, 69, 100
2, 38780, Note_off_c, 0, 81, 100
2, 38784, Note_on_c, 0, 71, 110
2, 38784, Note_on_c, 0, 83, 110
2, 38908, Note_off_c, 0, 71, 100
2, 38908, Note_off_c, 0, 83, 100
2, 38912, Note_on_c, 0, 72, 110
2, 38912, Note_on_c, 0, 84, 110
2, 39036, Note_off_c, 0, 72, 100
2, 39036, Note_off_c, 0, 84, 100
2, 39040, Note_on_c, 0, 74, 110
2, 39040, Note_on_c, 0, 86, 110
2, 39164, Note_off_c, 0, 74, 100
2, 39164, Note_off_c, 0, 86, 100
2, 39168, Note_on_c, 0, 76, 110
2, 39168, Note_on_c, 0, 88, 110
2, 39292, Note_off_c, 0, 76, 100
2, 39292, Note_off_c, 0, 88, 100
2, 39296, Note_on_c, 0, 74, 110
2, 39296, Note_on_c, 0, 86, 110
2, 39420, Note_off_c, 0, 74, 100
2, 39420, Note_off_c, 0, 86, 100
2, 39424, Note_on_c, 0, 72, 110
2, 39424, Note_on_c, 0, 84, 110
2, 39548, Note_off_c, 0, 72, 100
2, 39548, Note_off_c, 0, 84, 100
2, 39552, Note_on_c, 0, 71, 110
2, 39552, Note_on_c, 0, 83, 110
2, 39676, Note_off_c, 0, 71, 100
2, 39676, Note_off_c, 0, 83, 100
2, 39680, Note_on_c, 0, 72, 110
2, 39680, Note_on_c, 0, 84, 110
2, 39804, Note_off_c, 0, 72, 100
2, 39804, Note_off_c, 0, 84, 100
2, 39808, Note_on_c, 0, 74, 110
2, 39808, Note_on_c, 0, 86, 110
2, 39932, Note_off_c, 0, 74, 100
2, 39932, Note_off_c, 0, 86, 100
2, 39936, Note_on_c, 0, 76, 110
2, 39936, Note_on_c, 0, 88, 110
2, 40060, Note_off_c, 0, 76, 100
2, 40060, Note_off_c, 0, 88, 100
2, 40064, Note_on_c, 0, 74, 110
2, 40064, Note_on_c, 0, 86, 110
2, 40188, Note_off_c, 0, 74, 100
2, 40188, Note_off_c, 0, 86, 100
2, 40192, Note_on_c, 0, 72, 110
2, 40192, Note_on_c, 0, 84, 110
2, 40316, Note_off_c, 0, 72, 100
2, 40316, Note_off_c, 0, 84, 100
2, 40320, Note_on_c, 0, 71, 110
2, 40320, Note_on_c, 0, 83, 110
2, 40444, Note_off_c, 0, 71, 100
2, 40444, Note_off_c, 0, 83, 100
2, 40448, Note_on_c, 0, 72, 110
2, 40448, Note_on_c, 0, 84, 110
2, 40572, Note_off_c, 0, 72, 100
2, 40572, Note_off_c, 0, 84, 100
2, 40576, Note_on_c, 0, 74, 110
2, 40576, Note_on_c, 0, 86, 110
2, 40700, Note_off_c, 0, 74, 100
2, 40700, Note_off_c, 0, 86, 100
2, 40704, Note_on_c, 0, 76, 110
2, 40704, Note_on_c, 0, 88, 110
2, 40828, Note_off_c, 0, 76, 100
2, 40828, Note_off_c, 0, 88, 100
2, 40832, Note_on_c, 0, 74, 110
2, 40832, Note_on_c, 0, 86, 110
2, 40956, Note_off_c, 0, 74, 100
2, 40956, Note_off_c, 0, 86, 100
2, 40960, Note_on_c, 0, 72, 110
2, 40960, Note_on_c, 0, 84, 110
2, 41084, Note_off_c, 0, 72, 100
2, 41084, Note_off_c, 0, 84, 100
2, 41088, Note_on_c, 0, 76, 110
2, 41088, Note_on_c, 0, 88, 110
2, 41212, Note_off_c, 0, 76, 100
2, 41212, Note_off_c, 0, 88, 100
2, 41216, Note_on_c, 0, 74, 110
2, 41216, Note_on_c, 0, 86, 110
2, 41340, Note_off_c, 0, 74, 100
2, 41340, Note_off_c, 0, 86, 100
2, 41344, Note_on_c, 0, 72, 110
2, 41344, Note_on_c, 0, 84, 110
2, 41468, Note_off_c, 0, 72, 100
2, 41468, Note_off_c, 0, 84, 100
2, 41472, Note_on_c, 0, 76, 110
2, 41472, Note_on_c, 0, 88, 110
2, 41596, Note_off_c, 0, 76, 100
2, 41596, Note_off_c, 0, 88, 100
2, 41600, Note_on_c, 0, 74, 110
2, 41600, Note_on_c, 0, 86, 110
2, 41724, Note_off_c, 0, 74, 100
2, 41724, Note_off_c, 0, 86, 100
2, 41728, Note_on_c, 0, 72, 110
2, 41728, Note_on_c, 0, 84, 110
2, 41852, Note_off_c, 0, 72, 100
2, 41852, Note_off_c, 0, 84, 100
2, 41856, Note_on_c, 0, 71, 110
2, 41856, Note_on_c, 0, 83, 110
2, 41980, Note_off_c, 0, 71, 100
2, 41980, Note_off_c, 0, 83, 100
2, 41984, Note_on_c, 0, 69, 110
2, 41984, Note_on_c, 0, 81, 110
2, 42108, Note_off_c, 0, 69, 100
2, 42108, Note_off_c, 0, 81, 100
2, 42112, Note_on_c, 0, 67, 110
2, 42112, Note_on_c, 0, 79, 110
2, 42236, Note_off_c, 0, 67, 100
2, 42236, Note_off_c, 0, 79, 100
2, 42240, Note_on_c, 0, 65, 110
2, 42240, Note_on_c, 0, 77, 110
2, 42364, Note_off_c, 0, 65, 100
2, 42364, Note_off_c, 0, 77, 100
2, 42368, Note_on_c, 0, 64, 110
2, 42368, Note_on_c, 0, 76, 110
2, 42492, Note_off_c, 0, 64, 100
2, 42492, Note_off_c, 0, 76, 100
2, 42496, Note_on_c, 0, 62, 110
2, 42496, Note_on_c, 0, 74, 110
2, 42620, Note_off_c, 0, 62, 100
2, 42620, Note_off_c, 0, 74, 100
2, 42624, Note_on_c, 0, 60, 110
2, 42624, Note_on_c, 0, 72, 110
2, 42748, Note_off_c, 0, 60, 100
2, 42748, Note_off_c, 0, 72, 100
2, 42752, Note_on_c, 0, 62, 110
2, 42752, Note_on_c, 0, 74, 110
2, 42876, Note_off_c, 0, 62, 100
2, 42876, Note_off_c, 0, 74, 100
2, 42880, Note_on_c, 0, 59, 110
2, 42880, Note_on_c, 0, 71, 110
2, 43004, Note_off_c, 0, 59, 100
2, 43004, Note_off_c, 0, 71, 100
2, 43008, Note_on_c, 0, 72, 110
2, 43132, Note_off_c, 0, 72, 100
2, 44928, Note_on_c, 0, 63, 110
2, 44928, Note_on_c, 0, 75, 110
2, 45052, Note_off_c, 0, 63, 100
2, 45052, Note_off_c, 0, 75, 100
2, 45056, Note_on_c, 0, 75, 110
2, 45056, Note_on_c, 0, 87, 110
2, 45180, Note_off_c, 0, 75, 100
2, 45180, Note_off_c, 0, 87, 100
2, 45184, Note_on_c, 0, 74, 110
2, 45184, Note_on_c, 0, 86, 110
2, 45308, Note_off_c, 0, 74, 100
2, 45308, Note_off_c, 0, 86, 100
2, 45312, Note_on_c, 0, 75, 110
2, 45312, Note_on_c, 0, 87, 110
2, 45436, Note_off_c, 0, 75, 100
2, 45436, Note_off_c, 0, 87, 100
2, 45440, Note_on_c, 0, 73, 110
2, 45440, Note_on_c, 0, 85, 110
2, 45564, Note_off_c, 0, 73, 100
2, 45564, Note_off_c, 0, 85, 100
2, 45568, Note_on_c, 0, 72, 110
2, 45568, Note_on_c, 0, 84, 110
2, 45692, Note_off_c, 0, 72, 100
2, 45692, Note_off_c, 0, 84, 100
2, 45696, Note_on_c, 0, 70, 110
2, 45696, Note_on_c, 0, 82, 110
2, 45820, Note_off_c, 0, 70, 100
2, 45820, Note_off_c, 0, 82, 100
2, 45824, Note_on_c, 0, 72, 110
2, 45824, Note_on_c, 0, 84, 110
2, 45948, Note_off_c, 0, 72, 100
2, 45948, Note_off_c, 0, 84, 100
2, 45952, Note_on_c, 0, 73, 110
2, 45952, Note_on_c, 0, 85, 110
2, 46076, Note_off_c, 0, 73, 100
2, 46076, Note_off_c, 0, 85, 100
2, 46080, Note_on_c, 0, 72, 110
2, 46080, Note_on_c, 0, 84, 110
2, 46204, Note_off_c, 0, 72, 100
2, 46204, Note_off_c, 0, 84, 100
2, 46208, Note_on_c, 0, 70, 110
2, 46208, Note_on_c, 0, 82, 110
2, 46332, Note_off_c, 0, 70, 100
2, 46332, Note_off_c, 0, 82, 100
2, 46336, Note_on_c, 0, 68, 110
2, 46336, Note_on_c, 0, 80, 110
2, 46460, Note_off_c, 0, 68, 100
2, 46460, Note_off_c, 0, 80, 100
2, 46464, Note_on_c, 0, 67, 110
2, 46464, Note_on_c, 0, 79, 110
2, 46588, Note_off_c, 0, 67, 100
2, 46588, Note_off_c, 0, 79, 100
2, 46592, Note_on_c, 0, 68, 110
2, 46592, Note_on_c, 0, 80, 110
2, 46716, Note_off_c, 0, 68, 100
2, 46716, Note_off_c, 0, 80, 100
2, 46720, Note_on_c, 0, 70, 110
2, 46720, Note_on_c, 0, 82, 110
2, 46844, Note_off_c, 0, 70, 100
2, 46844, Note_off_c, 0, 82, 100
2, 46848, Note_on_c, 0, 68, 110
2, 46848, Note_on_c, 0, 80, 110
2, 46972, Note_off_c, 0, 68, 100
2, 46972, Note_off_c, 0, 80, 100
2, 46976, Note_on_c, 0, 67, 110
2, 46976, Note_on_c, 0, 79, 110
2, 47100, Note_off_c, 0, 67, 100
2, 47100, Note_off_c, 0, 79, 100
2, 47104, Note_on_c, 0, 65, 110
2, 47104, Note_on_c, 0, 77, 110
2, 47228, Note_off_c, 0, 65, 100
2, 47228, Note_off_c, 0, 77, 100
2, 47232, Note_on_c, 0, 63, 110
2, 47232, Note_on_c, 0, 75, 110
2, 47356, Note_off_c, 0, 63, 100
2, 47356, Note_off_c, 0, 75, 100
2, 47360, Note_on_c, 0, 65, 110
2, 47360, Note_on_c, 0, 77, 110
2, 47484, Note_off_c, 0, 65, 100
2, 47484, Note_off_c, 0, 77, 100
2, 47488, Note_on_c, 0, 67, 110
2, 47488, Note_on_c, 0, 79, 110
2, 47612, Note_off_c, 0, 67, 100
2, 47612, Note_off_c, 0, 79, 100
2, 47616, Note_on_c, 0, 65, 110
2, 47616, Note_on_c, 0, 77, 110
2, 47740, Note_off_c, 0, 65, 100
2, 47740, Note_off_c, 0, 77, 100
2, 47744, Note_on_c, 0, 63, 110
2, 47744, Note_on_c, 0, 75, 110
2, 47868, Note_off_c, 0, 63, 100
2, 47868, Note_off_c, 0, 75, 100
2, 47872, Note_on_c, 0, 61, 110
2, 47872, Note_on_c, 0, 73, 110
2, 47996, Note_off_c, 0, 61, 100
2, 47996, Note_off_c, 0, 73, 100
2, 48000, Note_on_c, 0, 60, 110
2, 48000, Note_on_c, 0, 72, 110
2, 48124, Note_off_c, 0, 60, 100
2, 48124, Note_off_c, 0, 72, 100
2, 48128, Note_on_c, 0, 58, 110
2, 48128, Note_on_c, 0, 70, 110
2, 48252, Note_off_c, 0, 58, 100
2, 48252, Note_off_c, 0, 70, 100
2, 48256, Note_on_c, 0, 56, 110
2, 48256, Note_on_c, 0, 68, 110
2, 48380, Note_off_c, 0, 56, 100
2, 48380, Note_off_c, 0, 68, 100
2, 48384, Note_on_c, 0, 55, 110
2, 48384, Note_on_c, 0, 67, 110
2, 48508, Note_off_c, 0, 55, 100
2, 48508, Note_off_c, 0, 67, 100
2, 48512, Note_on_c, 0, 63, 110
2, 48512, Note_on_c, 0, 75, 110
2, 48636, Note_off_c, 0, 63, 100
2, 48636, Note_off_c, 0, 75, 100
2, 48640, Note_on_c, 0, 62, 110
2, 48640, Note_on_c, 0, 74, 110
2, 48764, Note_off_c, 0, 62, 100
2, 48764, Note_off_c, 0, 74, 100
2, 48768, Note_on_c, 0, 63, 110
2, 48768, Note_on_c, 0, 75, 110
2, 48892, Note_off_c, 0, 63, 100
2, 48892, Note_off_c, 0, 75, 100
2, 48896, Note_on_c, 0, 61, 110
2, 48896, Note_on_c, 0, 73, 110
2, 49020, Note_off_c, 0, 61, 100
2, 49020, Note_off_c, 0, 73, 100
2, 49024, Note_on_c, 0, 60, 110
2, 49024, Note_on_c, 0, 72, 110
2, 49148, Note_off_c, 0, 60, 100
2, 49148, Note_off_c, 0, 72, 100
2, 49152, Note_on_c, 0, 58, 110
2, 49152, Note_on_c, 0, 70, 110
2, 49276, Note_off_c, 0, 58, 100
2, 49276, Note_off_c, 0, 70, 100
2, 49280, Note_on_c, 0, 60, 110
2, 49280, Note_on_c, 0, 72, 110
2, 49404, Note_off_c, 0, 60, 100
2, 49404, Note_off_c, 0, 72, 100
2, 49408, Note_on_c, 0, 61, 110
2, 49408, Note_on_c, 0, 73, 110
2, 49532, Note_off_c, 0, 61, 100
2, 49532, Note_off_c, 0, 73, 100
2, 49536, Note_on_c, 0, 60, 110
2, 49536, Note_on_c, 0, 72, 110
2, 49660, Note_off_c, 0, 60, 100
2, 49660, Note_off_c, 0, 72, 100
2, 49664, Note_on_c, 0, 72, 110
2, 49664, Note_on_c, 0, 84, 110
2, 49788, Note_off_c, 0, 72, 100
2, 49788, Note_off_c, 0, 84, 100
2, 49792, Note_on_c, 0, 71, 110
2, 49792, Note_on_c, 0, 83, 110
2, 49916, Note_off_c, 0, 71, 100
2, 49916, Note_off_c, 0, 83, 100
2, 49920, Note_on_c, 0, 84, 110
2, 49920, Note_on_c, 0, 72, 110
2, 50044, Note_off_c, 0, 84, 100
2, 50044, Note_off_c, 0, 72, 100
2, 50048, Note_on_c, 0, 82, 110
2, 50048, Note_on_c, 0, 70, 110
2, 50172, Note_off_c, 0, 82, 100
2, 50172, Note_off_c, 0, 70, 100
2, 50176, Note_on_c, 0, 80, 110
2, 50176, Note_on_c, 0, 68, 110
2, 50300, Note_off_c, 0, 80, 100
2, 50300, Note_off_c, 0, 68, 100
2, 50304, Note_on_c, 0, 79, 110
2, 50304, Note_on_c, 0, 70, 110
2, 50428, Note_off_c, 0, 79, 100
2, 50428, Note_off_c, 0, 70, 100
2, 50432, Note_on_c, 0, 80, 110
2, 50432, Note_on_c, 0, 72, 110
2, 50556, Note_off_c, 0, 80, 100
2, 50556, Note_off_c, 0, 72, 100
2, 50560, Note_on_c, 0, 82, 110
2, 50560, Note_on_c, 0, 73, 110
2, 50684, Note_off_c, 0, 82, 100
2, 50684, Note_off_c, 0, 73, 100
2, 50688, Note_on_c, 0, 80, 110
2, 50688, Note_on_c, 0, 72, 110
2, 50812, Note_off_c, 0, 80, 100
2, 50812, Note_off_c, 0, 72, 100
2, 50816, Note_on_c, 0, 82, 110
2, 50816, Note_on_c, 0, 73, 110
2, 50940, Note_off_c, 0, 82, 100
2, 50940, Note_off_c, 0, 73, 100
2, 50944, Note_on_c, 0, 84, 110
2, 50944, Note_on_c, 0, 75, 110
2, 51068, Note_off_c, 0, 84, 100
2, 51068, Note_off_c, 0, 75, 100
2, 51072, Note_on_c, 0, 76, 110
2, 51072, Note_on_c, 0, 67, 110
2, 51196, Note_off_c, 0, 76, 100
2, 51196, Note_off_c, 0, 67, 100
2, 51200, Note_on_c, 0, 77, 110
2, 51200, Note_on_c, 0, 68, 110
2, 51324, Note_off_c, 0, 77, 100
2, 51324, Note_off_c, 0, 68, 100
2, 51328, Note_on_c, 0, 79, 110
2, 51328, Note_on_c, 0, 70, 110
2, 51452, Note_off_c, 0, 79, 100
2, 51452, Note_off_c, 0, 70, 100
2, 51456, Note_on_c, 0, 77, 110
2, 51456, Note_on_c, 0, 68, 110
2, 51580, Note_off_c, 0, 77, 100
2, 51580, Note_off_c, 0, 68, 100
2, 51584, Note_on_c, 0, 79, 110
2, 51584, Note_on_c, 0, 70, 110
2, 51708, Note_off_c, 0, 79, 100
2, 51708, Note_off_c, 0, 70, 100
2, 51712, Note_on_c, 0, 80, 110
2, 51712, Note_on_c, 0, 72, 110
2, 51836, Note_off_c, 0, 80, 100
2, 51836, Note_off_c, 0, 72, 100
2, 51840, Note_on_c, 0, 72, 110
2, 51840, Note_on_c, 0, 63, 110
2, 51964, Note_off_c, 0, 72, 100
2, 51964, Note_off_c, 0, 63, 100
2, 51968, Note_on_c, 0, 73, 110
2, 51968, Note_on_c, 0, 65, 110
2, 52092, Note_off_c, 0, 73, 100
2, 52092, Note_off_c, 0, 65, 100
2, 52096, Note_on_c, 0, 75, 110
2, 52096, Note_on_c, 0, 66, 110
2, 52220, Note_off_c, 0, 75, 100
2, 52220, Note_off_c, 0, 66, 100
2, 52224, Note_on_c, 0, 73, 110
2, 52224, Note_on_c, 0, 65, 110
2, 52348, Note_off_c, 0, 73, 100
2, 52348, Note_off_c, 0, 65, 100
2, 52352, Note_on_c, 0, 75, 110
2, 52352, Note_on_c, 0, 66, 110
2, 52476, Note_off_c, 0, 75, 100
2, 52476, Note_off_c, 0, 66, 100
2, 52480, Note_on_c, 0, 77, 110
2, 52480, Note_on_c, 0, 68, 110
2, 52604, Note_off_c, 0, 77, 100
2, 52604, Note_off_c, 0, 68, 100
2, 52608, Note_on_c, 0, 69, 110
2, 52608, Note_on_c, 0, 60, 110
2, 52732, Note_off_c, 0, 69, 100
2, 52732, Note_off_c, 0, 60, 100
2, 52736, Note_on_c, 0, 70, 110
2, 52736, Note_on_c, 0, 61, 110
2, 52860, Note_off_c, 0, 70, 100
2, 52860, Note_off_c, 0, 61, 100
2, 52864, Note_on_c, 0, 72, 110
2, 52864, Note_on_c, 0, 63, 110
2, 52988, Note_off_c, 0, 72, 100
2, 52988, Note_off_c, 0, 63, 100
2, 52992, Note_on_c, 0, 70, 110
2, 52992, Note_on_c, 0, 61, 110
2, 53116, Note_off_c, 0, 70, 100
2, 53116, Note_off_c, 0, 61, 100
2, 53120, Note_on_c, 0, 72, 110
2, 53120, Note_on_c, 0, 63, 110
2, 53244, Note_off_c, 0, 72, 100
2, 53244, Note_off_c, 0, 63, 100
2, 53248, Note_on_c, 0, 73, 110
2, 53248, Note_on_c, 0, 65, 110
2, 53372, Note_off_c, 0, 73, 100
2, 53372, Note_off_c, 0, 65, 100
2, 53376, Note_on_c, 0, 67, 110
2, 53376, Note_on_c, 0, 58, 110
2, 53500, Note_off_c, 0, 67, 100
2, 53500, Note_off_c, 0, 58, 100
2, 53504, Note_on_c, 0, 68, 110
2, 53504, Note_on_c, 0, 60, 110
2, 53628, Note_off_c, 0, 68, 100
2, 53628, Note_off_c, 0, 60, 100
2, 53632, Note_on_c, 0, 70, 110
2, 53632, Note_on_c, 0, 61, 110
2, 53756, Note_off_c, 0, 70, 100
2, 53756, Note_off_c, 0, 61, 100
2, 53760, Note_on_c, 0, 68, 110
2, 53760, Note_on_c, 0, 60, 110
2, 53884, Note_off_c, 0, 68, 100
2, 53884, Note_off_c, 0, 60, 100
2, 53888, Note_on_c, 0, 70, 110
2, 53888, Note_on_c, 0, 61, 110
2, 54012, Note_off_c, 0, 70, 100
2, 54012, Note_off_c, 0, 61, 100
2, 54016, Note_on_c, 0, 72, 110
2, 54016, Note_on_c, 0, 63, 110
2, 54140, Note_off_c, 0, 72, 100
2, 54140, Note_off_c, 0, 63, 100
2, 54144, Note_on_c, 0, 69, 110
2, 54144, Note_on_c, 0, 60, 110
2, 54268, Note_off_c, 0, 69, 100
2, 54268, Note_off_c, 0, 60, 100
2, 54272, Note_on_c, 0, 70, 110
2, 54272, Note_on_c, 0, 61, 110
2, 54396, Note_off_c, 0, 70, 100
2, 54396, Note_off_c, 0, 61, 100
2, 54400, Note_on_c, 0, 72, 110
2, 54400, Note_on_c, 0, 63, 110
2, 54524, Note_off_c, 0, 72, 100
2, 54524, Note_off_c, 0, 63, 100
2, 54528, Note_on_c, 0, 70, 110
2, 54528, Note_on_c, 0, 61, 110
2, 54652, Note_off_c, 0, 70, 100
2, 54652, Note_off_c, 0, 61, 100
2, 54656, Note_on_c, 0, 72, 110
2, 54656, Note_on_c, 0, 63, 110
2, 54780, Note_off_c, 0, 72, 100
2, 54780, Note_off_c, 0, 63, 100
2, 54784, Note_on_c, 0, 73, 110
2, 54784, Note_on_c, 0, 65, 110
2, 54908, Note_off_c, 0, 73, 100
2, 54908, Note_off_c, 0, 65, 100
2, 54912, Note_on_c, 0, 67, 110
2, 54912, Note_on_c, 0, 58, 110
2, 55036, Note_off_c, 0, 67, 100
2, 55036, Note_off_c, 0, 58, 100
2, 55040, Note_on_c, 0, 68, 110
2, 55040, Note_on_c, 0, 60, 110
2, 55164, Note_off_c, 0, 68, 100
2, 55164, Note_off_c, 0, 60, 100
2, 55168, Note_on_c, 0, 70, 110
2, 55168, Note_on_c, 0, 61, 110
2, 55292, Note_off_c, 0, 70, 100
2, 55292, Note_off_c, 0, 61, 100
2, 55296, Note_on_c, 0, 68, 110
2, 55296, Note_on_c, 0, 60, 110
2, 55420, Note_off_c, 0, 68, 100
2, 55420, Note_off_c, 0, 60, 100
2, 55424, Note_on_c, 0, 70, 110
2, 55424, Note_on_c, 0, 61, 110
2, 55548, Note_off_c, 0, 70, 100
2, 55548, Note_off_c, 0, 61, 100
2, 55552, Note_on_c, 0, 72, 110
2, 55552, Note_on_c, 0, 63, 110
2, 55676, Note_off_c, 0, 72, 100
2, 55676, Note_off_c, 0, 63, 100
2, 55680, Note_on_c, 0, 67, 110
2, 55680, Note_on_c, 0, 58, 110
2, 55804, Note_off_c, 0, 67, 100
2, 55804, Note_off_c, 0, 58, 100
2, 55808, Note_on_c, 0, 68, 110
2, 55808, Note_on_c, 0, 60, 110
2, 55932, Note_off_c, 0, 68, 100
2, 55932, Note_off_c, 0, 60, 100
2, 55936, Note_on_c, 0, 70, 110
2, 55936, Note_on_c, 0, 61, 110
2, 56060, Note_off_c, 0, 70, 100
2, 56060, Note_off_c, 0, 61, 100
2, 56064, Note_on_c, 0, 68, 110
2, 56064, Note_on_c, 0, 60, 110
2, 56188, Note_off_c, 0, 68, 100
2, 56188, Note_off_c, 0, 60, 100
2, 56192, Note_on_c, 0, 70, 110
2, 56192, Note_on_c, 0, 61, 110
2, 56316, Note_off_c, 0, 70, 100
2, 56316, Note_off_c, 0, 61, 100
2, 56320, Note_on_c, 0, 72, 110
2, 56320, Note_on_c, 0, 63, 110
2, 56444, Note_off_c, 0, 72, 100
2, 56444, Note_off_c, 0, 63, 100
2, 56448, Note_on_c, 0, 68, 110
2, 56448, Note_on_c, 0, 56, 110
2, 56572, Note_off_c, 0, 68, 100
2, 56572, Note_off_c, 0, 56, 100
2, 56576, Note_on_c, 0, 58, 110
2, 56576, Note_on_c, 0, 70, 110
2, 56700, Note_off_c, 0, 58, 100
2, 56700, Note_off_c, 0, 70, 100
2, 56704, Note_on_c, 0, 72, 110
2, 56704, Note_on_c, 0, 60, 110
2, 56828, Note_off_c, 0, 72, 100
2, 56828, Note_off_c, 0, 60, 100
2, 56832, Note_on_c, 0, 61, 110
2, 56832, Note_on_c, 0, 73, 110
2, 56956, Note_off_c, 0, 61, 100
2, 56956, Note_off_c, 0, 73, 100
2, 56960, Note_on_c, 0, 63, 110
2, 56960, Note_on_c, 0, 75, 110
2, 57084, Note_off_c, 0, 63, 100
2, 57084, Note_off_c, 0, 75, 100
2, 57088, Note_on_c, 0, 65, 110
2, 57088, Note_on_c, 0, 77, 110
2, 57212, Note_off_c, 0, 65, 100
2, 57212, Note_off_c, 0, 77, 100
2, 57216, Note_on_c, 0, 67, 110
2, 57216, Note_on_c, 0, 79, 110
2, 57340, Note_off_c, 0, 67, 100
2, 57340, Note_off_c, 0, 79, 100
2, 57344, Note_on_c, 0, 68, 110
2, 57344, Note_on_c, 0, 80, 110
2, 57468, Note_off_c, 0, 68, 100
2, 57468, Note_off_c, 0, 80, 100
2, 57472, Note_on_c, 0, 70, 110
2, 57472, Note_on_c, 0, 82, 110
2, 57596, Note_off_c, 0, 70, 100
2, 57596, Note_off_c, 0, 82, 100
2, 57600, Note_on_c, 0, 72, 110
2, 57600, Note_on_c, 0, 84, 110
2, 57724, Note_off_c, 0, 72, 100
2, 57724, Note_off_c, 0, 84, 100
2, 57728, Note_on_c, 0, 70, 110
2, 57728, Note_on_c, 0, 82, 110
2, 57852, Note_off_c, 0, 70, 100
2, 57852, Note_off_c, 0, 82, 100
2, 57856, Note_on_c, 0, 68, 110
2, 57856, Note_on_c, 0, 80, 110
2, 57980, Note_off_c, 0, 68, 100
2, 57980, Note_off_c, 0, 80, 100
2, 57984, Note_on_c, 0, 67, 110
2, 57984, Note_on_c, 0, 79, 110
2, 58108, Note_off_c, 0, 67, 100
2, 58108, Note_off_c, 0, 79, 100
2, 58112, Note_on_c, 0, 68, 110
2, 58112, Note_on_c, 0, 80, 110
2, 58236, Note_off_c, 0, 68, 100
2, 58236, Note_off_c, 0, 80, 100
2, 58240, Note_on_c, 0, 70, 110
2, 58240, Note_on_c, 0, 82, 110
2, 58364, Note_off_c, 0, 70, 100
2, 58364, Note_off_c, 0, 82, 100
2, 58368, Note_on_c, 0, 72, 110
2, 58368, Note_on_c, 0, 84, 110
2, 58492, Note_off_c, 0, 72, 100
2, 58492, Note_off_c, 0, 84, 100
2, 58496, Note_on_c, 0, 70, 110
2, 58496, Note_on_c, 0, 82, 110
2, 58620, Note_off_c, 0, 70, 100
2, 58620, Note_off_c, 0, 82, 100
2, 58624, Note_on_c, 0, 68, 110
2, 58624, Note_on_c, 0, 80, 110
2, 58748, Note_off_c, 0, 68, 100
2, 58748, Note_off_c, 0, 80, 100
2, 58752, Note_on_c, 0, 67, 110
2, 58752, Note_on_c, 0, 79, 110
2, 58876, Note_off_c, 0, 67, 100
2, 58876, Note_off_c, 0, 79, 100
2, 58880, Note_on_c, 0, 68, 110
2, 58880, Note_on_c, 0, 80, 110
2, 59004, Note_off_c, 0, 68, 100
2, 59004, Note_off_c, 0, 80, 100
2, 59008, Note_on_c, 0, 70, 110
2, 59008, Note_on_c, 0, 82, 110
2, 59132, Note_off_c, 0, 70, 100
2, 59132, Note_off_c, 0, 82, 100
2, 59136, Note_on_c, 0, 72, 110
2, 59136, Note_on_c, 0, 84, 110
2, 59260, Note_off_c, 0, 72, 100
2, 59260, Note_off_c, 0, 84, 100
2, 59264, Note_on_c, 0, 70, 110
2, 59264, Note_on_c, 0, 82, 110
2, 59388, Note_off_c, 0, 70, 100
2, 59388, Note_off_c, 0, 82, 100
2, 59392, Note_on_c, 0, 68, 110
2, 59392, Note_on_c, 0, 80, 110
2, 59516, Note_off_c, 0, 68, 100
2, 59516, Note_off_c, 0, 80, 100
2, 59520, Note_on_c, 0, 72, 110
2, 59520, Note_on_c, 0, 84, 110
2, 59644, Note_off_c, 0, 72, 100
2, 59644, Note_off_c, 0, 84, 100
2, 59648, Note_on_c, 0, 70, 110
2, 59648, Note_on_c, 0, 82, 110
2, 59772, Note_off_c, 0, 70, 100
2, 59772, Note_off_c, 0, 82, 100
2, 59776, Note_on_c, 0, 68, 110
2, 59776, Note_on_c, 0, 80, 110
2, 59900, Note_off_c, 0, 68, 100
2, 59900, Note_off_c, 0, 80, 100
2, 59904, Note_on_c, 0, 72, 110
2, 59904, Note_on_c, 0, 84, 110
2, 60028, Note_off_c, 0, 72, 100
2, 60028, Note_off_c, 0, 84, 100
2, 60032, Note_on_c, 0, 70, 110
2, 60032, Note_on_c, 0, 82, 110
2, 60156, Note_off_c, 0, 70, 100
2, 60156, Note_off_c, 0, 82, 100
2, 60160, Note_on_c, 0, 68, 110
2, 60160, Note_on_c, 0, 80, 110
2, 60284, Note_off_c, 0, 68, 100
2, 60284, Note_off_c, 0, 80, 100
2, 60288, Note_on_c, 0, 67, 110
2, 60288, Note_on_c, 0, 79, 110
2, 60412, Note_off_c, 0, 67, 100
2, 60412, Note_off_c, 0, 79, 100
2, 60416, Note_on_c, 0, 65, 110
2, 60416, Note_on_c, 0, 77, 110
2, 60540, Note_off_c, 0, 65, 100
2, 60540, Note_off_c, 0, 77, 100
2, 60544, Note_on_c, 0, 63, 110
2, 60544, Note_on_c, 0, 75, 110
2, 60668, Note_off_c, 0, 63, 100
2, 60668, Note_off_c, 0, 75, 100
2, 60672, Note_on_c, 0, 61, 110
2, 60672, Note_on_c, 0, 73, 110
2, 60796, Note_off_c, 0, 61, 100
2, 60796, Note_off_c, 0, 73, 100
2, 60800, Note_on_c, 0, 60, 110
2, 60800, Note_on_c, 0, 72, 110
2, 60924, Note_off_c, 0, 60, 100
2, 60924, Note_off_c, 0, 72, 100
2, 60928, Note_on_c, 0, 58, 110
2, 60928, Note_on_c, 0, 70, 110
2, 61052, Note_off_c, 0, 58, 100
2, 61052, Note_off_c, 0, 70, 100
2, 61056, Note_on_c, 0, 56, 110
2, 61056, Note_on_c, 0, 68, 110
2, 61180, Note_off_c, 0, 56, 100
2, 61180, Note_off_c, 0, 68, 100
2, 61184, Note_on_c, 0, 58, 110
2, 61184, Note_on_c, 0, 70, 110
2, 61308, Note_off_c, 0, 58, 100
2, 61308, Note_off_c, 0, 70, 100
2, 61312, Note_on_c, 0, 55, 110
2, 61312, Note_on_c, 0, 67, 110
2, 61436, Note_off_c, 0, 55, 100
2, 61436, Note_off_c, 0, 67, 100
2, 61440, Note_on_c, 0, 56, 110
2, 61440, Note_on_c, 0, 68, 110
2, 61564, Note_off_c, 0, 56, 100
2, 61564, Note_off_c, 0, 68, 100
2, 61952, Note_on_c, 0, 77, 110
2, 62076, Note_off_c, 0, 77, 100
2, 62080, Note_on_c, 0, 79, 110
2, 62204, Note_off_c, 0, 79, 100
2, 62208, Note_on_c, 0, 80, 80
2, 62332, Note_off_c, 0, 80, 100
2, 62336, Note_on_c, 0, 79, 80
2, 62460, Note_off_c, 0, 79, 100
2, 62464, Note_on_c, 0, 77, 80
2, 62588, Note_off_c, 0, 77, 100
2, 62592, Note_on_c, 0, 75, 80
2, 62716, Note_off_c, 0, 75, 100
2, 62720, Note_on_c, 0, 73, 80
2, 62844, Note_off_c, 0, 73, 100
2, 62848, Note_on_c, 0, 72, 80
2, 62972, Note_off_c, 0, 72, 100
2, 62976, Note_on_c, 0, 70, 80
2, 63100, Note_off_c, 0, 70, 100
2, 63104, Note_on_c, 0, 68, 80
2, 63228, Note_off_c, 0, 68, 100
2, 63232, Note_on_c, 0, 67, 80
2, 63356, Note_off_c, 0, 67, 100
2, 63360, Note_on_c, 0, 65, 80
2, 63484, Note_off_c, 0, 65, 100
2, 63488, Note_on_c, 0, 67, 80
2, 63612, Note_off_c, 0, 67, 100
2, 63616, Note_on_c, 0, 64, 80
2, 63740, Note_off_c, 0, 64, 100
2, 63744, Note_on_c, 0, 65, 80
2, 63868, Note_off_c, 0, 65, 100
2, 64256, Note_on_c, 0, 73, 80
2, 64380, Note_off_c, 0, 73, 100
2, 64384, Note_on_c, 0, 75, 80
2, 64508, Note_off_c, 0, 75, 100
2, 64512, Note_on_c, 0, 77, 80
2, 64636, Note_off_c, 0, 77, 100
2, 64640, Note_on_c, 0, 75, 80
2, 64764, Note_off_c, 0, 75, 100
2, 64768, Note_on_c, 0, 73, 80
2, 64892, Note_off_c, 0, 73, 100
2, 64896, Note_on_c, 0, 72, 80
2, 65020, Note_off_c, 0, 72, 100
2, 65024, Note_on_c, 0, 70, 80
2, 65148, Note_off_c, 0, 70, 100
2, 65152, Note_on_c, 0, 68, 80
2, 65276, Note_off_c, 0, 68, 100
2, 65280, Note_on_c, 0, 66, 80
2, 65404, Note_off_c, 0, 66, 100
2, 65408, Note_on_c, 0, 65, 80
2, 65532, Note_off_c, 0, 65, 100
2, 65536, Note_on_c, 0, 63, 80
2, 65660, Note_off_c, 0, 63, 100
2, 65664, Note_on_c, 0, 61, 80
2, 65788, Note_off_c, 0, 61, 100
2, 65792, Note_on_c, 0, 63, 80
2, 65916, Note_off_c, 0, 63, 100
2, 65920, Note_on_c, 0, 60, 80
2, 66044, Note_off_c, 0, 60, 100
2, 66048, Note_on_c, 0, 61, 80
2, 66236, Note_off_c, 0, 61, 100
2, 67200, Note_on_c, 0, 65, 80
2, 67200, Note_on_c, 0, 53, 80
2, 67580, Note_off_c, 0, 65, 100
2, 67580, Note_off_c, 0, 53, 100
2, 68352, Note_on_c, 0, 70, 80
2, 68352, Note_on_c, 0, 65, 80
2, 68352, Note_on_c, 0, 58, 80
2, 68732, Note_off_c, 0, 70, 100
2, 68732, Note_off_c, 0, 65, 100
2, 68732, Note_off_c, 0, 58, 100
2, 69504, Note_on_c, 0, 71, 80
2, 69504, Note_on_c, 0, 65, 80
2, 69504, Note_on_c, 0, 59, 80
2, 69884, Note_off_c, 0, 71, 100
2, 69884, Note_off_c, 0, 65, 100
2, 69884, Note_off_c, 0, 59, 100
2, 70656, Note_on_c, 0, 72, 80
2, 70656, Note_on_c, 0, 64, 80
2, 70656, Note_on_c, 0, 60, 80
2, 70780, Note_off_c, 0, 72, 100
2, 70780, Note_off_c, 0, 64, 100
2, 70780, Note_off_c, 0, 60, 100
2, 70784, Note_on_c, 0, 61, 80
2, 70908, Note_off_c, 0, 61, 100
2, 70912, Note_on_c, 0, 59, 80
2, 71036, Note_off_c, 0, 59, 100
2, 71040, Note_on_c, 0, 60, 80
2, 71164, Note_off_c, 0, 60, 100
2, 71168, Note_on_c, 0, 73, 80
2, 71292, Note_off_c, 0, 73, 100
2, 71296, Note_on_c, 0, 71, 80
2, 71420, Note_off_c, 0, 71, 100
2, 71424, Note_on_c, 0, 72, 80
2, 71548, Note_off_c, 0, 72, 100
2, 71552, Note_on_c, 0, 85, 80
2, 71676, Note_off_c, 0, 85, 100
2, 71680, Note_on_c, 0, 83, 80
2, 71804, Note_off_c, 0, 83, 100
2, 71808, Note_on_c, 0, 84, 80
2, 71932, Note_off_c, 0, 84, 100
2, 71936, Note_on_c, 0, 85, 80
2, 72060, Note_off_c, 0, 85, 100
2, 72064, Note_on_c, 0, 83, 80
2, 72188, Note_off_c, 0, 83, 100
2, 72192, Note_on_c, 0, 84, 80
2, 72316, Note_off_c, 0, 84, 100
2, 72320, Note_on_c, 0, 85, 80
2, 72444, Note_off_c, 0, 85, 100
2, 72448, Note_on_c, 0, 83, 80
2, 72572, Note_off_c, 0, 83, 100
2, 72576, Note_on_c, 0, 84, 80
2, 72700, Note_off_c, 0, 84, 100
2, 72704, Note_on_c, 0, 85, 80
2, 72828, Note_off_c, 0, 85, 100
2, 72832, Note_on_c, 0, 83, 80
2, 72956, Note_off_c, 0, 83, 100
2, 72960, Note_on_c, 0, 84, 80
2, 73340, Note_off_c, 0, 84, 100
2, 73728, Note_on_c, 0, 84, 80
2, 73852, Note_off_c, 0, 84, 100
2, 73856, Note_on_c, 0, 85, 80
2, 73980, Note_off_c, 0, 85, 100
2, 73984, Note_on_c, 0, 83, 80
2, 74108, Note_off_c, 0, 83, 100
2, 74112, Note_on_c, 0, 84, 80
2, 74492, Note_off_c, 0, 84, 100
2, 74880, Note_on_c, 0, 84, 80
2, 75004, Note_off_c, 0, 84, 100
2, 75008, Note_on_c, 0, 85, 80
2, 75132, Note_off_c, 0, 85, 100
2, 75136, Note_on_c, 0, 83, 80
2, 75260, Note_off_c, 0, 83, 100
2, 75264, Note_on_c, 0, 84, 80
2, 75644, Note_off_c, 0, 84, 100
2, 79488, Note_on_c, 0, 48, 80
2, 79772, Note_off_c, 0, 48, 100
2, 79776, Note_on_c, 0, 52, 80
2, 79868, Note_off_c, 0, 52, 100
2, 79872, Note_on_c, 0, 45, 80
2, 79872, Note_on_c, 0, 53, 80
2, 80252, Note_off_c, 0, 45, 100
2, 80256, Note_on_c, 0, 46, 80
2, 80444, Note_off_c, 0, 46, 100
2, 80636, Note_off_c, 0, 53, 100
2, 80640, Note_on_c, 0, 60, 80
2, 80828, Note_off_c, 0, 60, 100
2, 80928, Note_on_c, 0, 64, 80
2, 81020, Note_off_c, 0, 64, 100
2, 81024, Note_on_c, 0, 60, 80
2, 81024, Note_on_c, 0, 65, 80
2, 81404, Note_off_c, 0, 60, 100
2, 81408, Note_on_c, 0, 62, 80
2, 81596, Note_off_c, 0, 62, 100
2, 81788, Note_off_c, 0, 65, 100
2, 81792, Note_on_c, 0, 72, 80
2, 82076, Note_off_c, 0, 72, 100
2, 82080, Note_on_c, 0, 77, 80
2, 82172, Note_off_c, 0, 77, 100
2, 82176, Note_on_c, 0, 81, 80
2, 82844, Note_off_c, 0, 81, 100
2, 82848, Note_on_c, 0, 77, 80
2, 82940, Note_off_c, 0, 77, 100
2, 82944, Note_on_c, 0, 79, 80
2, 83228, Note_off_c, 0, 79, 100
2, 83232, Note_on_c, 0, 76, 80
2, 83324, Note_off_c, 0, 76, 100
2, 83328, Note_on_c, 0, 77, 80
2, 83708, Note_off_c, 0, 77, 100
2, 84096, Note_on_c, 0, 50, 80
2, 84132, Note_off_c, 0, 50, 100
2, 84136, Note_on_c, 0, 48, 80
2, 84188, Note_off_c, 0, 48, 100
2, 84192, Note_on_c, 0, 47, 80
2, 84284, Note_off_c, 0, 47, 100
2, 84288, Note_on_c, 0, 48, 80
2, 84380, Note_off_c, 0, 48, 100
2, 84384, Note_on_c, 0, 52, 80
2, 84476, Note_off_c, 0, 52, 100
2, 84480, Note_on_c, 0, 55, 80
2, 84668, Note_off_c, 0, 55, 100
2, 84672, Note_on_c, 0, 53, 80
2, 84864, Note_on_c, 0, 45, 80
2, 85052, Note_off_c, 0, 45, 100
2, 85056, Note_on_c, 0, 46, 80
2, 85244, Note_off_c, 0, 53, 100
2, 85244, Note_off_c, 0, 46, 100
2, 85248, Note_on_c, 0, 62, 80
2, 85284, Note_off_c, 0, 62, 100
2, 85288, Note_on_c, 0, 60, 80
2, 85340, Note_off_c, 0, 60, 100
2, 85344, Note_on_c, 0, 59, 80
2, 85436, Note_off_c, 0, 59, 100
2, 85440, Note_on_c, 0, 60, 80
2, 85532, Note_off_c, 0, 60, 100
2, 85536, Note_on_c, 0, 64, 80
2, 85628, Note_off_c, 0, 64, 100
2, 85632, Note_on_c, 0, 67, 80
2, 85820, Note_off_c, 0, 67, 100
2, 85824, Note_on_c, 0, 65, 80
2, 86016, Note_on_c, 0, 61, 80
2, 86204, Note_off_c, 0, 61, 100
2, 86208, Note_on_c, 0, 62, 80
2, 86396, Note_off_c, 0, 65, 100
2, 86396, Note_off_c, 0, 62, 100
2, 86400, Note_on_c, 0, 74, 80
2, 86436, Note_off_c, 0, 74, 100
2, 86440, Note_on_c, 0, 72, 80
2, 86492, Note_off_c, 0, 72, 100
2, 86496, Note_on_c, 0, 71, 80
2, 86588, Note_off_c, 0, 71, 100
2, 86592, Note_on_c, 0, 72, 80
2, 86684, Note_off_c, 0, 72, 100
2, 86688, Note_on_c, 0, 76, 80
2, 86780, Note_off_c, 0, 76, 100
2, 86784, Note_on_c, 0, 81, 80
2, 87260, Note_off_c, 0, 81, 100
2, 87264, Note_on_c, 0, 79, 80
2, 87356, Note_off_c, 0, 79, 100
2, 87360, Note_on_c, 0, 81, 80
2, 87452, Note_off_c, 0, 81, 100
2, 87456, Note_on_c, 0, 77, 80
2, 87548, Note_off_c, 0, 77, 100
2, 87552, Note_on_c, 0, 81, 80
2, 87608, Note_off_c, 0, 81, 100
2, 87612, Note_on_c, 0, 79, 80
2, 87644, Note_off_c, 0, 79, 100
2, 87648, Note_on_c, 0, 78, 80
2, 87740, Note_off_c, 0, 78, 100
2, 87744, Note_on_c, 0, 79, 80
2, 87836, Note_off_c, 0, 79, 100
2, 87840, Note_on_c, 0, 76, 80
2, 87932, Note_off_c, 0, 76, 100
2, 87936, Note_on_c, 0, 77, 80
2, 88316, Note_off_c, 0, 77, 100
2, 88704, Note_on_c, 0, 53, 80
2, 88988, Note_off_c, 0, 53, 100
2, 88992, Note_on_c, 0, 57, 80
2, 89084, Note_off_c, 0, 57, 100
2, 89088, Note_on_c, 0, 61, 80
2, 89468, Note_off_c, 0, 61, 100
2, 89472, Note_on_c, 0, 62, 80
2, 90140, Note_off_c, 0, 62, 100
2, 90144, Note_on_c, 0, 59, 80
2, 90236, Note_off_c, 0, 59, 100
2, 90240, Note_on_c, 0, 60, 80
2, 90524, Note_off_c, 0, 60, 100
2, 90528, Note_on_c, 0, 57, 80
2, 90620, Note_off_c, 0, 57, 100
2, 90624, Note_on_c, 0, 53, 80
2, 90812, Note_off_c, 0, 53, 100
2, 91008, Note_on_c, 0, 65, 80
2, 91292, Note_off_c, 0, 65, 100
2, 91296, Note_on_c, 0, 69, 80
2, 91388, Note_off_c, 0, 69, 100
2, 91392, Note_on_c, 0, 73, 80
2, 91772, Note_off_c, 0, 73, 100
2, 91776, Note_on_c, 0, 74, 80
2, 92444, Note_off_c, 0, 74, 100
2, 92448, Note_on_c, 0, 71, 80
2, 92540, Note_off_c, 0, 71, 100
2, 92544, Note_on_c, 0, 72, 80
2, 92828, Note_off_c, 0, 72, 100
2, 92832, Note_on_c, 0, 69, 80
2, 92924, Note_off_c, 0, 69, 100
2, 92928, Note_on_c, 0, 65, 80
2, 93116, Note_off_c, 0, 65, 100
2, 93312, Note_on_c, 0, 77, 80
2, 93596, Note_off_c, 0, 77, 100
2, 93600, Note_on_c, 0, 81, 80
2, 93692, Note_off_c, 0, 81, 100
2, 93696, Note_on_c, 0, 85, 80
2, 94076, Note_off_c, 0, 85, 100
2, 94080, Note_on_c, 0, 86, 80
2, 94080, Note_on_c, 0, 74, 80
2, 94748, Note_off_c, 0, 86, 100
2, 94748, Note_off_c, 0, 74, 100
2, 94752, Note_on_c, 0, 83, 80
2, 94752, Note_on_c, 0, 74, 80
2, 94844, Note_off_c, 0, 83, 100
2, 94844, Note_off_c, 0, 74, 100
2, 94848, Note_on_c, 0, 84, 80
2, 94848, Note_on_c, 0, 72, 80
2, 95132, Note_off_c, 0, 84, 100
2, 95132, Note_off_c, 0, 72, 100
2, 95136, Note_on_c, 0, 81, 80
2, 95136, Note_on_c, 0, 72, 80
2, 95228, Note_off_c, 0, 81, 100
2, 95228, Note_off_c, 0, 72, 100
2, 95232, Note_on_c, 0, 82, 80
2, 95232, Note_on_c, 0, 70, 80
2, 95900, Note_off_c, 0, 82, 100
2, 95900, Note_off_c, 0, 70, 100
2, 95904, Note_on_c, 0, 79, 80
2, 95904, Note_on_c, 0, 70, 80
2, 95996, Note_off_c, 0, 79, 100
2, 95996, Note_off_c, 0, 70, 100
2, 96000, Note_on_c, 0, 69, 80
2, 96000, Note_on_c, 0, 81, 80
2, 96284, Note_off_c, 0, 69, 100
2, 96284, Note_off_c, 0, 81, 100
2, 96288, Note_on_c, 0, 77, 80
2, 96288, Note_on_c, 0, 69, 80
2, 96380, Note_off_c, 0, 77, 100
2, 96380, Note_off_c, 0, 69, 100
2, 96384, Note_on_c, 0, 79, 80
2, 96384, Note_on_c, 0, 67, 80
2, 96764, Note_off_c, 0, 67, 100
2, 96768, Note_on_c, 0, 70, 80
2, 97052, Note_off_c, 0, 79, 100
2, 97056, Note_on_c, 0, 74, 80
2, 97148, Note_off_c, 0, 70, 100
2, 97148, Note_off_c, 0, 74, 100
2, 97152, Note_on_c, 0, 70, 80
2, 97152, Note_on_c, 0, 77, 80
2, 97196, Note_off_c, 0, 77, 100
2, 97200, Note_on_c, 0, 76, 80
2, 97244, Note_off_c, 0, 76, 100
2, 97248, Note_on_c, 0, 74, 80
2, 97292, Note_off_c, 0, 74, 100
2, 97296, Note_on_c, 0, 76, 80
2, 97436, Note_off_c, 0, 76, 100
2, 97440, Note_on_c, 0, 79, 80
2, 97532, Note_off_c, 0, 70, 100
2, 97532, Note_off_c, 0, 79, 100
2, 97536, Note_on_c, 0, 77, 80
2, 97536, Note_on_c, 0, 69, 80
2, 97724, Note_off_c, 0, 77, 100
2, 97724, Note_off_c, 0, 69, 100
2, 97920, Note_on_c, 0, 55, 80
2, 97976, Note_off_c, 0, 55, 100
2, 97980, Note_on_c, 0, 53, 80
2, 98012, Note_off_c, 0, 53, 100
2, 98016, Note_on_c, 0, 52, 80
2, 98108, Note_off_c, 0, 52, 100
2, 98112, Note_on_c, 0, 53, 80
2, 98204, Note_off_c, 0, 53, 100
2, 98208, Note_on_c, 0, 57, 80
2, 98300, Note_off_c, 0, 57, 100
2, 98304, Note_on_c, 0, 61, 80
2, 98492, Note_off_c, 0, 61, 100
2, 98496, Note_on_c, 0, 62, 80
2, 98876, Note_off_c, 0, 62, 100
2, 98880, Note_on_c, 0, 62, 80
2, 99164, Note_off_c, 0, 62, 100
2, 99168, Note_on_c, 0, 61, 80
2, 99260, Note_off_c, 0, 61, 100
2, 99264, Note_on_c, 0, 62, 80
2, 99356, Note_off_c, 0, 62, 100
2, 99360, Note_on_c, 0, 59, 80
2, 99452, Note_off_c, 0, 59, 100
2, 99456, Note_on_c, 0, 62, 80
2, 99492, Note_off_c, 0, 62, 100
2, 99492, Note_on_c, 0, 60, 80
2, 99552, Note_off_c, 0, 60, 100
2, 99552, Note_on_c, 0, 59, 80
2, 99644, Note_off_c, 0, 59, 100
2, 99648, Note_on_c, 0, 60, 80
2, 99740, Note_off_c, 0, 60, 100
2, 99744, Note_on_c, 0, 57, 80
2, 99836, Note_off_c, 0, 57, 100
2, 99840, Note_on_c, 0, 53, 80
2, 99932, Note_off_c, 0, 53, 100
2, 99936, Note_on_c, 0, 64, 80
2, 100028, Note_off_c, 0, 64, 100
2, 100032, Note_on_c, 0, 65, 80
2, 100124, Note_off_c, 0, 65, 100
2, 100128, Note_on_c, 0, 64, 80
2, 100220, Note_off_c, 0, 64, 100
2, 100224, Note_on_c, 0, 67, 80
2, 100260, Note_off_c, 0, 67, 100
2, 100260, Note_on_c, 0, 65, 80
2, 100320, Note_off_c, 0, 65, 100
2, 100320, Note_on_c, 0, 64, 80
2, 100412, Note_off_c, 0, 64, 100
2, 100416, Note_on_c, 0, 65, 80
2, 100508, Note_off_c, 0, 65, 100
2, 100512, Note_on_c, 0, 69, 80
2, 100604, Note_off_c, 0, 69, 100
2, 100608, Note_on_c, 0, 73, 80
2, 100700, Note_off_c, 0, 73, 100
2, 100704, Note_on_c, 0, 74, 80
2, 100892, Note_off_c, 0, 74, 100
2, 100896, Note_on_c, 0, 74, 80
2, 101084, Note_off_c, 0, 74, 100
2, 101088, Note_on_c, 0, 74, 80
2, 101276, Note_off_c, 0, 74, 100
2, 101280, Note_on_c, 0, 74, 80
2, 101468, Note_off_c, 0, 74, 100
2, 101472, Note_on_c, 0, 73, 80
2, 101564, Note_off_c, 0, 73, 100
2, 101568, Note_on_c, 0, 74, 80
2, 101660, Note_off_c, 0, 74, 100
2, 101664, Note_on_c, 0, 71, 80
2, 101756, Note_off_c, 0, 71, 100
2, 101760, Note_on_c, 0, 74, 80
2, 101796, Note_off_c, 0, 74, 100
2, 101796, Note_on_c, 0, 72, 80
2, 101856, Note_off_c, 0, 72, 100
2, 101856, Note_on_c, 0, 71, 80
2, 101948, Note_off_c, 0, 71, 100
2, 101952, Note_on_c, 0, 72, 80
2, 102044, Note_off_c, 0, 72, 100
2, 102048, Note_on_c, 0, 69, 80
2, 102140, Note_off_c, 0, 69, 100
2, 102144, Note_on_c, 0, 65, 80
2, 102236, Note_off_c, 0, 65, 100
2, 102240, Note_on_c, 0, 76, 80
2, 102332, Note_off_c, 0, 76, 100
2, 102336, Note_on_c, 0, 77, 80
2, 102428, Note_off_c, 0, 77, 100
2, 102432, Note_on_c, 0, 76, 80
2, 102524, Note_off_c, 0, 76, 100
2, 102528, Note_on_c, 0, 79, 80
2, 102564, Note_off_c, 0, 79, 100
2, 102564, Note_on_c, 0, 77, 80
2, 102624, Note_off_c, 0, 77, 100
2, 102624, Note_on_c, 0, 76, 80
2, 102716, Note_off_c, 0, 76, 100
2, 102720, Note_on_c, 0, 77, 80
2, 102812, Note_off_c, 0, 77, 100
2, 102816, Note_on_c, 0, 81, 80
2, 102908, Note_off_c, 0, 81, 100
2, 102912, Note_on_c, 0, 85, 80
2, 103004, Note_off_c, 0, 85, 100
2, 103008, Note_on_c, 0, 86, 81
2, 103196, Note_off_c, 0, 86, 100
2, 103200, Note_on_c, 0, 86, 83
2, 103388, Note_off_c, 0, 86, 100
2, 103392, Note_on_c, 0, 86, 86
2, 103580, Note_off_c, 0, 86, 100
2, 103584, Note_on_c, 0, 86, 89
2, 103676, Note_off_c, 0, 86, 100
2, 103680, Note_on_c, 0, 88, 90
2, 103716, Note_off_c, 0, 88, 100
2, 103716, Note_on_c, 0, 86, 90
2, 103776, Note_off_c, 0, 86, 100
2, 103776, Note_on_c, 0, 85, 91
2, 103868, Note_off_c, 0, 85, 100
2, 103872, Note_on_c, 0, 86, 93
2, 103964, Note_off_c, 0, 86, 100
2, 103968, Note_on_c, 0, 83, 94
2, 104060, Note_off_c, 0, 83, 100
2, 104064, Note_on_c, 0, 86, 95
2, 104100, Note_off_c, 0, 86, 100
2, 104100, Note_on_c, 0, 84, 96
2, 104160, Note_off_c, 0, 84, 100
2, 104160, Note_on_c, 0, 83, 96
2, 104252, Note_off_c, 0, 83, 100
2, 104256, Note_on_c, 0, 84, 98
2, 104348, Note_off_c, 0, 84, 100
2, 104352, Note_on_c, 0, 81, 99
2, 104444, Note_off_c, 0, 81, 100
2, 104448, Note_on_c, 0, 82, 100
2, 104540, Note_off_c, 0, 82, 100
2, 104544, Note_on_c, 0, 82, 102
2, 104732, Note_off_c, 0, 82, 100
2, 104736, Note_on_c, 0, 82, 104
2, 104828, Note_off_c, 0, 82, 100
2, 104832, Note_on_c, 0, 84, 106
2, 104868, Note_off_c, 0, 84, 100
2, 104868, Note_on_c, 0, 82, 106
2, 104928, Note_off_c, 0, 82, 100
2, 104928, Note_on_c, 0, 81, 107
2, 105020, Note_off_c, 0, 81, 100
2, 105024, Note_on_c, 0, 82, 108
2, 105116, Note_off_c, 0, 82, 100
2, 105120, Note_on_c, 0, 80, 109
2, 105212, Note_off_c, 0, 80, 100
2, 105216, Note_on_c, 0, 82, 110
2, 105252, Note_off_c, 0, 82, 100
2, 105252, Note_on_c, 0, 81, 110
2, 105312, Note_off_c, 0, 81, 100
2, 105312, Note_on_c, 0, 80, 110
2, 105404, Note_off_c, 0, 80, 100
2, 105408, Note_on_c, 0, 81, 110
2, 105500, Note_off_c, 0, 81, 100
2, 105504, Note_on_c, 0, 77, 110
2, 105596, Note_off_c, 0, 77, 100
2, 105600, Note_on_c, 0, 79, 110
2, 105692, Note_off_c, 0, 79, 100
2, 105696, Note_on_c, 0, 79, 110
2, 105884, Note_off_c, 0, 79, 100
2, 105888, Note_on_c, 0, 79, 110
2, 105980, Note_off_c, 0, 79, 100
2, 105984, Note_on_c, 0, 81, 100
2, 106020, Note_off_c, 0, 81, 100
2, 106020, Note_on_c, 0, 79, 99
2, 106080, Note_off_c, 0, 79, 100
2, 106080, Note_on_c, 0, 78, 97
2, 106172, Note_off_c, 0, 78, 100
2, 106176, Note_on_c, 0, 79, 94
2, 106268, Note_off_c, 0, 79, 100
2, 106272, Note_on_c, 0, 74, 91
2, 106364, Note_off_c, 0, 74, 100
2, 106368, Note_on_c, 0, 70, 80
2, 106368, Note_on_c, 0, 77, 80
2, 106404, Note_off_c, 0, 77, 100
2, 106404, Note_on_c, 0, 76, 80
2, 106464, Note_off_c, 0, 76, 100
2, 106464, Note_on_c, 0, 74, 80
2, 106556, Note_off_c, 0, 74, 100
2, 106560, Note_on_c, 0, 76, 80
2, 106652, Note_off_c, 0, 76, 100
2, 106656, Note_on_c, 0, 79, 80
2, 106748, Note_off_c, 0, 70, 100
2, 106748, Note_off_c, 0, 79, 100
2, 106752, Note_on_c, 0, 77, 80
2, 106752, Note_on_c, 0, 69, 80
2, 106940, Note_off_c, 0, 77, 100
2, 106940, Note_off_c, 0, 69, 100
2, 108288, Note_on_c, 0, 60, 110
2, 108288, Note_on_c, 0, 72, 110
2, 108412, Note_off_c, 0, 60, 100
2, 108412, Note_off_c, 0, 72, 100
2, 108416, Note_on_c, 0, 72, 110
2, 108416, Note_on_c, 0, 84, 110
2, 108540, Note_off_c, 0, 72, 100
2, 108540, Note_off_c, 0, 84, 100
2, 108544, Note_on_c, 0, 71, 110
2, 108544, Note_on_c, 0, 83, 110
2, 108668, Note_off_c, 0, 71, 100
2, 108668, Note_off_c, 0, 83, 100
2, 108672, Note_on_c, 0, 72, 110
2, 108672, Note_on_c, 0, 84, 110
2, 108796, Note_off_c, 0, 72, 100
2, 108796, Note_off_c, 0, 84, 100
2, 108800, Note_on_c, 0, 70, 110
2, 108800, Note_on_c, 0, 82, 110
2, 108924, Note_off_c, 0, 70, 100
2, 108924, Note_off_c, 0, 82, 100
2, 108928, Note_on_c, 0, 69, 110
2, 108928, Note_on_c, 0, 81, 110
2, 109052, Note_off_c, 0, 69, 100
2, 109052, Note_off_c, 0, 81, 100
2, 109056, Note_on_c, 0, 67, 110
2, 109056, Note_on_c, 0, 79, 110
2, 109180, Note_off_c, 0, 67, 100
2, 109180, Note_off_c, 0, 79, 100
2, 109184, Note_on_c, 0, 69, 110
2, 109184, Note_on_c, 0, 81, 110
2, 109308, Note_off_c, 0, 69, 100
2, 109308, Note_off_c, 0, 81, 100
2, 109312, Note_on_c, 0, 70, 110
2, 109312, Note_on_c, 0, 82, 110
2, 109436, Note_off_c, 0, 70, 100
2, 109436, Note_off_c, 0, 82, 100
2, 109440, Note_on_c, 0, 69, 110
2, 109440, Note_on_c, 0, 81, 110
2, 109564, Note_off_c, 0, 69, 100
2, 109564, Note_off_c, 0, 81, 100
2, 109568, Note_on_c, 0, 67, 110
2, 109568, Note_on_c, 0, 79, 110
2, 109692, Note_off_c, 0, 67, 100
2, 109692, Note_off_c, 0, 79, 100
2, 109696, Note_on_c, 0, 65, 110
2, 109696, Note_on_c, 0, 77, 110
2, 109820, Note_off_c, 0, 65, 100
2, 109820, Note_off_c, 0, 77, 100
2, 109824, Note_on_c, 0, 64, 110
2, 109824, Note_on_c, 0, 76, 110
2, 109948, Note_off_c, 0, 64, 100
2, 109948, Note_off_c, 0, 76, 100
2, 109952, Note_on_c, 0, 65, 110
2, 109952, Note_on_c, 0, 77, 110
2, 110076, Note_off_c, 0, 65, 100
2, 110076, Note_off_c, 0, 77, 100
2, 110080, Note_on_c, 0, 67, 110
2, 110080, Note_on_c, 0, 79, 110
2, 110204, Note_off_c, 0, 67, 100
2, 110204, Note_off_c, 0, 79, 100
2, 110208, Note_on_c, 0, 65, 110
2, 110208, Note_on_c, 0, 77, 110
2, 110332, Note_off_c, 0, 65, 100
2, 110332, Note_off_c, 0, 77, 100
2, 110336, Note_on_c, 0, 64, 110
2, 110336, Note_on_c, 0, 76, 110
2, 110460, Note_off_c, 0, 64, 100
2, 110460, Note_off_c, 0, 76, 100
2, 110464, Note_on_c, 0, 62, 110
2, 110464, Note_on_c, 0, 74, 110
2, 110588, Note_off_c, 0, 62, 100
2, 110588, Note_off_c, 0, 74, 100
2, 110592, Note_on_c, 0, 61, 110
2, 110592, Note_on_c, 0, 73, 110
2, 110716, Note_off_c, 0, 61, 100
2, 110716, Note_off_c, 0, 73, 100
2, 110720, Note_on_c, 0, 62, 110
2, 110720, Note_on_c, 0, 74, 110
2, 110844, Note_off_c, 0, 62, 100
2, 110844, Note_off_c, 0, 74, 100
2, 110848, Note_on_c, 0, 64, 110
2, 110848, Note_on_c, 0, 76, 110
2, 110972, Note_off_c, 0, 64, 100
2, 110972, Note_off_c, 0, 76, 100
2, 110976, Note_on_c, 0, 62, 110
2, 110976, Note_on_c, 0, 74, 110
2, 111100, Note_off_c, 0, 62, 100
2, 111100, Note_off_c, 0, 74, 100
2, 111104, Note_on_c, 0, 60, 110
2, 111104, Note_on_c, 0, 72, 110
2, 111228, Note_off_c, 0, 60, 100
2, 111228, Note_off_c, 0, 72, 100
2, 111232, Note_on_c, 0, 58, 110
2, 111232, Note_on_c, 0, 70, 110
2, 111356, Note_off_c, 0, 58, 100
2, 111356, Note_off_c, 0, 70, 100
2, 111360, Note_on_c, 0, 57, 110
2, 111360, Note_on_c, 0, 69, 110
2, 111484, Note_off_c, 0, 57, 100
2, 111484, Note_off_c, 0, 69, 100
2, 111488, Note_on_c, 0, 55, 110
2, 111488, Note_on_c, 0, 67, 110
2, 111612, Note_off_c, 0, 55, 100
2, 111612, Note_off_c, 0, 67, 100
2, 111616, Note_on_c, 0, 53, 110
2, 111616, Note_on_c, 0, 65, 110
2, 111740, Note_off_c, 0, 53, 100
2, 111740, Note_off_c, 0, 65, 100
2, 111744, Note_on_c, 0, 52, 110
2, 111744, Note_on_c, 0, 64, 110
2, 111868, Note_off_c, 0, 52, 100
2, 111868, Note_off_c, 0, 64, 100
2, 111872, Note_on_c, 0, 65, 110
2, 111872, Note_on_c, 0, 53, 110
2, 111996, Note_off_c, 0, 65, 100
2, 111996, Note_off_c, 0, 53, 100
2, 112000, Note_on_c, 0, 62, 110
2, 112000, Note_on_c, 0, 50, 110
2, 112124, Note_off_c, 0, 62, 100
2, 112124, Note_off_c, 0, 50, 100
2, 112128, Note_on_c, 0, 48, 110
2, 112128, Note_on_c, 0, 60, 110
2, 112252, Note_off_c, 0, 48, 100
2, 112252, Note_off_c, 0, 60, 100
2, 112256, Note_on_c, 0, 50, 110
2, 112256, Note_on_c, 0, 62, 110
2, 112380, Note_off_c, 0, 50, 100
2, 112380, Note_off_c, 0, 62, 100
2, 112384, Note_on_c, 0, 52, 110
2, 112384, Note_on_c, 0, 64, 110
2, 112508, Note_off_c, 0, 52, 100
2, 112508, Note_off_c, 0, 64, 100
2, 112512, Note_on_c, 0, 53, 110
2, 112512, Note_on_c, 0, 65, 110
2, 112636, Note_off_c, 0, 53, 100
2, 112636, Note_off_c, 0, 65, 100
2, 112640, Note_on_c, 0, 55, 110
2, 112640, Note_on_c, 0, 67, 110
2, 112764, Note_off_c, 0, 55, 100
2, 112764, Note_off_c, 0, 67, 100
2, 112768, Note_on_c, 0, 52, 110
2, 112768, Note_on_c, 0, 64, 110
2, 112892, Note_off_c, 0, 52, 100
2, 112892, Note_off_c, 0, 64, 100
2, 112896, Note_on_c, 0, 50, 110
2, 112896, Note_on_c, 0, 62, 110
2, 113020, Note_off_c, 0, 50, 100
2, 113020, Note_off_c, 0, 62, 100
2, 113024, Note_on_c, 0, 52, 110
2, 113024, Note_on_c, 0, 64, 110
2, 113148, Note_off_c, 0, 52, 100
2, 113148, Note_off_c, 0, 64, 100
2, 113152, Note_on_c, 0, 53, 110
2, 113152, Note_on_c, 0, 65, 110
2, 113276, Note_off_c, 0, 53, 100
2, 113276, Note_off_c, 0, 65, 100
2, 113280, Note_on_c, 0, 55, 110
2, 113280, Note_on_c, 0, 67, 110
2, 113404, Note_off_c, 0, 55, 100
2, 113404, Note_off_c, 0, 67, 100
2, 113408, Note_on_c, 0, 57, 110
2, 113408, Note_on_c, 0, 69, 110
2, 113532, Note_off_c, 0, 57, 100
2, 113532, Note_off_c, 0, 69, 100
2, 113536, Note_on_c, 0, 53, 110
2, 113536, Note_on_c, 0, 65, 110
2, 113660, Note_off_c, 0, 53, 100
2, 113660, Note_off_c, 0, 65, 100
2, 113664, Note_on_c, 0, 52, 110
2, 113664, Note_on_c, 0, 64, 110
2, 113788, Note_off_c, 0, 52, 100
2, 113788, Note_off_c, 0, 64, 100
2, 113792, Note_on_c, 0, 53, 110
2, 113792, Note_on_c, 0, 65, 110
2, 113916, Note_off_c, 0, 53, 100
2, 113916, Note_off_c, 0, 65, 100
2, 113920, Note_on_c, 0, 55, 110
2, 113920, Note_on_c, 0, 67, 110
2, 114044, Note_off_c, 0, 55, 100
2, 114044, Note_off_c, 0, 67, 100
2, 114048, Note_on_c, 0, 57, 110
2, 114048, Note_on_c, 0, 69, 110
2, 114172, Note_off_c, 0, 57, 100
2, 114172, Note_off_c, 0, 69, 100
2, 114176, Note_on_c, 0, 58, 110
2, 114176, Note_on_c, 0, 70, 110
2, 114300, Note_off_c, 0, 58, 100
2, 114300, Note_off_c, 0, 70, 100
2, 114304, Note_on_c, 0, 55, 110
2, 114304, Note_on_c, 0, 67, 110
2, 114428, Note_off_c, 0, 55, 100
2, 114428, Note_off_c, 0, 67, 100
2, 114432, Note_on_c, 0, 53, 110
2, 114432, Note_on_c, 0, 65, 110
2, 114556, Note_off_c, 0, 53, 100
2, 114556, Note_off_c, 0, 65, 100
2, 114560, Note_on_c, 0, 55, 110
2, 114560, Note_on_c, 0, 67, 110
2, 114684, Note_off_c, 0, 55, 100
2, 114684, Note_off_c, 0, 67, 100
2, 114688, Note_on_c, 0, 57, 110
2, 114688, Note_on_c, 0, 69, 110
2, 114812, Note_off_c, 0, 57, 100
2, 114812, Note_off_c, 0, 69, 100
2, 114816, Note_on_c, 0, 58, 110
2, 114816, Note_on_c, 0, 70, 110
2, 114940, Note_off_c, 0, 58, 100
2, 114940, Note_off_c, 0, 70, 100
2, 114944, Note_on_c, 0, 60, 110
2, 114944, Note_on_c, 0, 72, 110
2, 115068, Note_off_c, 0, 60, 100
2, 115068, Note_off_c, 0, 72, 100
2, 115072, Note_on_c, 0, 62, 110
2, 115072, Note_on_c, 0, 74, 110
2, 115196, Note_off_c, 0, 62, 100
2, 115196, Note_off_c, 0, 74, 100
2, 115200, Note_on_c, 0, 64, 110
2, 115200, Note_on_c, 0, 76, 110
2, 115324, Note_off_c, 0, 64, 100
2, 115324, Note_off_c, 0, 76, 100
2, 115328, Note_on_c, 0, 65, 110
2, 115328, Note_on_c, 0, 77, 110
2, 115452, Note_off_c, 0, 65, 100
2, 115452, Note_off_c, 0, 77, 100
2, 115456, Note_on_c, 0, 67, 110
2, 115456, Note_on_c, 0, 79, 110
2, 115580, Note_off_c, 0, 67, 100
2, 115580, Note_off_c, 0, 79, 100
2, 115584, Note_on_c, 0, 69, 110
2, 115584, Note_on_c, 0, 81, 110
2, 115708, Note_off_c, 0, 69, 100
2, 115708, Note_off_c, 0, 81, 100
2, 115712, Note_on_c, 0, 70, 110
2, 115712, Note_on_c, 0, 82, 110
2, 115836, Note_off_c, 0, 70, 100
2, 115836, Note_off_c, 0, 82, 100
2, 115840, Note_on_c, 0, 70, 80
2, 115840, Note_on_c, 0, 82, 80
2, 115964, Note_off_c, 0, 70, 100
2, 115964, Note_off_c, 0, 82, 100
2, 115968, Note_on_c, 0, 70, 80
2, 115968, Note_on_c, 0, 82, 80
2, 116092, Note_off_c, 0, 70, 100
2, 116092, Note_off_c, 0, 82, 100
2, 116096, Note_on_c, 0, 70, 80
2, 116096, Note_on_c, 0, 82, 80
2, 116220, Note_off_c, 0, 70, 100
2, 116220, Note_off_c, 0, 82, 100
2, 116224, Note_on_c, 0, 70, 80
2, 116224, Note_on_c, 0, 82, 80
2, 116348, Note_off_c, 0, 70, 100
2, 116348, Note_off_c, 0, 82, 100
2, 116352, Note_on_c, 0, 70, 80
2, 116352, Note_on_c, 0, 82, 80
2, 116476, Note_off_c, 0, 70, 100
2, 116476, Note_off_c, 0, 82, 100
2, 116480, Note_on_c, 0, 70, 80
2, 116480, Note_on_c, 0, 82, 80
2, 116604, Note_off_c, 0, 70, 100
2, 116604, Note_off_c, 0, 82, 100
2, 116608, Note_on_c, 0, 70, 80
2, 116608, Note_on_c, 0, 82, 80
2, 116732, Note_off_c, 0, 70, 100
2, 116732, Note_off_c, 0, 82, 100
2, 116736, Note_on_c, 0, 82, 120
2, 116736, Note_on_c, 0, 79, 120
2, 116736, Note_on_c, 0, 76, 120
2, 116736, Note_on_c, 0, 70, 120
2, 116860, Note_off_c, 0, 82, 100
2, 116860, Note_off_c, 0, 79, 100
2, 116860, Note_off_c, 0, 76, 100
2, 116860, Note_off_c, 0, 70, 100
2, 116864, Note_on_c, 0, 82, 120
2, 116864, Note_on_c, 0, 79, 120
2, 116864, Note_on_c, 0, 76, 120
2, 116864, Note_on_c, 0, 70, 120
2, 116988, Note_off_c, 0, 82, 100
2, 116988, Note_off_c, 0, 79, 100
2, 116988, Note_off_c, 0, 76, 100
2, 116988, Note_off_c, 0, 70, 100
2, 116992, Note_on_c, 0, 82, 120
2, 116992, Note_on_c, 0, 79, 120
2, 116992, Note_on_c, 0, 76, 120
2, 116992, Note_on_c, 0, 70, 120
2, 117116, Note_off_c, 0, 82, 100
2, 117116, Note_off_c, 0, 79, 100
2, 117116, Note_off_c, 0, 76, 100
2, 117116, Note_off_c, 0, 70, 100
2, 117120, Note_on_c, 0, 82, 120
2, 117120, Note_on_c, 0, 79, 120
2, 117120, Note_on_c, 0, 76, 120
2, 117120, Note_on_c, 0, 70, 120
2, 117244, Note_off_c, 0, 82, 100
2, 117244, Note_off_c, 0, 79, 100
2, 117244, Note_off_c, 0, 76, 100
2, 117244, Note_off_c, 0, 70, 100
2, 117248, Note_on_c, 0, 82, 120
2, 117248, Note_on_c, 0, 79, 120
2, 117248, Note_on_c, 0, 76, 120
2, 117248, Note_on_c, 0, 70, 120
2, 117372, Note_off_c, 0, 82, 100
2, 117372, Note_off_c, 0, 79, 100
2, 117372, Note_off_c, 0, 76, 100
2, 117372, Note_off_c, 0, 70, 100
2, 117376, Note_on_c, 0, 82, 120
2, 117376, Note_on_c, 0, 79, 120
2, 117376, Note_on_c, 0, 76, 120
2, 117376, Note_on_c, 0, 70, 120
2, 117500, Note_off_c, 0, 82, 100
2, 117500, Note_off_c, 0, 79, 100
2, 117500, Note_off_c, 0, 76, 100
2, 117500, Note_off_c, 0, 70, 100
2, 117504, Note_on_c, 0, 82, 120
2, 117504, Note_on_c, 0, 79, 120
2, 117504, Note_on_c, 0, 76, 120
2, 117504, Note_on_c, 0, 70, 120
2, 117628, Note_off_c, 0, 82, 100
2, 117628, Note_off_c, 0, 79, 100
2, 117628, Note_off_c, 0, 76, 100
2, 117628, Note_off_c, 0, 70, 100
2, 117632, Note_on_c, 0, 82, 120
2, 117632, Note_on_c, 0, 79, 120
2, 117632, Note_on_c, 0, 76, 120
2, 117632, Note_on_c, 0, 70, 120
2, 117756, Note_off_c, 0, 82, 100
2, 117756, Note_off_c, 0, 79, 100
2, 117756, Note_off_c, 0, 76, 100
2, 117756, Note_off_c, 0, 70, 100
2, 117760, Note_on_c, 0, 82, 120
2, 117760, Note_on_c, 0, 79, 120
2, 117760, Note_on_c, 0, 76, 120
2, 117760, Note_on_c, 0, 70, 120
2, 117884, Note_off_c, 0, 82, 100
2, 117884, Note_off_c, 0, 79, 100
2, 117884, Note_off_c, 0, 76, 100
2, 117884, Note_off_c, 0, 70, 100
2, 117888, Note_on_c, 0, 82, 120
2, 117888, Note_on_c, 0, 79, 120
2, 117888, Note_on_c, 0, 76, 120
2, 117888, Note_on_c, 0, 70, 120
2, 119036, Note_off_c, 0, 82, 100
2, 119036, Note_off_c, 0, 79, 100
2, 119036, Note_off_c, 0, 76, 100
2, 119036, Note_off_c, 0, 70, 100
2, 119424, Note_on_c, 0, 60, 80
2, 119424, Note_on_c, 0, 55, 80
2, 119424, Note_on_c, 0, 52, 80
2, 119424, Note_on_c, 0, 48, 80
2, 119548, Note_off_c, 0, 60, 100
2, 119548, Note_off_c, 0, 55, 100
2, 119548, Note_off_c, 0, 52, 100
2, 119548, Note_off_c, 0, 48, 100
2, 119552, Note_on_c, 0, 60, 80
2, 119552, Note_on_c, 0, 55, 80
2, 119552, Note_on_c, 0, 52, 80
2, 119552, Note_on_c, 0, 48, 80
2, 119676, Note_off_c, 0, 60, 100
2, 119676, Note_off_c, 0, 55, 100
2, 119676, Note_off_c, 0, 52, 100
2, 119676, Note_off_c, 0, 48, 100
2, 119680, Note_on_c, 0, 60, 80
2, 119680, Note_on_c, 0, 55, 80
2, 119680, Note_on_c, 0, 52, 80
2, 119680, Note_on_c, 0, 48, 80
2, 119804, Note_off_c, 0, 60, 100
2, 119804, Note_off_c, 0, 55, 100
2, 119804, Note_off_c, 0, 52, 100
2, 119804, Note_off_c, 0, 48, 100
2, 119808, Note_on_c, 0, 60, 80
2, 119808, Note_on_c, 0, 55, 80
2, 119808, Note_on_c, 0, 52, 80
2, 119808, Note_on_c, 0, 48, 80
2, 119932, Note_off_c, 0, 60, 100
2, 119932, Note_off_c, 0, 55, 100
2, 119932, Note_off_c, 0, 52, 100
2, 119932, Note_off_c, 0, 48, 100
2, 119936, Note_on_c, 0, 60, 80
2, 119936, Note_on_c, 0, 55, 80
2, 119936, Note_on_c, 0, 52, 80
2, 119936, Note_on_c, 0, 48, 80
2, 120060, Note_off_c, 0, 60, 100
2, 120060, Note_off_c, 0, 55, 100
2, 120060, Note_off_c, 0, 52, 100
2, 120060, Note_off_c, 0, 48, 100
2, 120064, Note_on_c, 0, 60, 80
2, 120064, Note_on_c, 0, 55, 80
2, 120064, Note_on_c, 0, 52, 80
2, 120064, Note_on_c, 0, 48, 80
2, 120188, Note_off_c, 0, 60, 100
2, 120188, Note_off_c, 0, 55, 100
2, 120188, Note_off_c, 0, 52, 100
2, 120188, Note_off_c, 0, 48, 100
2, 120192, Note_on_c, 0, 60, 80
2, 120192, Note_on_c, 0, 55, 80
2, 120192, Note_on_c, 0, 52, 80
2, 120192, Note_on_c, 0, 48, 80
2, 120956, Note_off_c, 0, 60, 100
2, 120956, Note_off_c, 0, 55, 100
2, 120956, Note_off_c, 0, 52, 100
2, 120956, Note_off_c, 0, 48, 100
2, 120960, Note_on_c, 0, 48, 80
2, 121244, Note_off_c, 0, 48, 100
2, 121248, Note_on_c, 0, 52, 80
2, 121340, Note_off_c, 0, 52, 100
2, 121344, Note_on_c, 0, 53, 80
2, 121344, Note_on_c, 0, 48, 80
2, 121724, Note_off_c, 0, 48, 100
2, 121728, Note_on_c, 0, 50, 80
2, 121916, Note_off_c, 0, 50, 100
2, 122108, Note_off_c, 0, 53, 100
2, 122112, Note_on_c, 0, 60, 80
2, 122396, Note_off_c, 0, 60, 100
2, 122400, Note_on_c, 0, 64, 80
2, 122492, Note_off_c, 0, 64, 100
2, 122496, Note_on_c, 0, 65, 80
2, 122496, Note_on_c, 0, 57, 80
2, 122876, Note_off_c, 0, 57, 100
2, 122880, Note_on_c, 0, 58, 80
2, 123068, Note_off_c, 0, 58, 100
2, 123260, Note_off_c, 0, 65, 100
2, 123264, Note_on_c, 0, 72, 80
2, 123548, Note_off_c, 0, 72, 100
2, 123552, Note_on_c, 0, 77, 80
2, 123644, Note_off_c, 0, 77, 100
2, 123648, Note_on_c, 0, 81, 80
2, 124316, Note_off_c, 0, 81, 100
2, 124320, Note_on_c, 0, 77, 80
2, 124412, Note_off_c, 0, 77, 100
2, 124416, Note_on_c, 0, 79, 80
2, 124700, Note_off_c, 0, 79, 100
2, 124704, Note_on_c, 0, 76, 80
2, 124796, Note_off_c, 0, 76, 100
2, 124800, Note_on_c, 0, 77, 80
2, 125180, Note_off_c, 0, 77, 100
2, 125568, Note_on_c, 0, 50, 80
2, 125604, Note_off_c, 0, 50, 100
2, 125604, Note_on_c, 0, 48, 80
2, 125664, Note_off_c, 0, 48, 100
2, 125664, Note_on_c, 0, 47, 80
2, 125756, Note_off_c, 0, 47, 100
2, 125760, Note_on_c, 0, 48, 80
2, 125852, Note_off_c, 0, 48, 100
2, 125856, Note_on_c, 0, 52, 80
2, 125948, Note_off_c, 0, 52, 100
2, 125952, Note_on_c, 0, 55, 80
2, 126044, Note_off_c, 0, 55, 100
2, 126048, Note_on_c, 0, 53, 80
2, 126140, Note_off_c, 0, 53, 100
2, 126144, Note_on_c, 0, 52, 80
2, 126236, Note_off_c, 0, 52, 100
2, 126240, Note_on_c, 0, 53, 80
2, 126336, Note_on_c, 0, 49, 80
2, 126428, Note_off_c, 0, 49, 100
2, 126432, Note_on_c, 0, 50, 80
2, 126524, Note_off_c, 0, 50, 100
2, 126528, Note_on_c, 0, 49, 80
2, 126620, Note_off_c, 0, 49, 100
2, 126624, Note_on_c, 0, 50, 80
2, 126716, Note_off_c, 0, 53, 100
2, 126716, Note_off_c, 0, 50, 100
2, 126720, Note_on_c, 0, 62, 80
2, 126756, Note_off_c, 0, 62, 100
2, 126756, Note_on_c, 0, 60, 80
2, 126816, Note_off_c, 0, 60, 100
2, 126816, Note_on_c, 0, 59, 80
2, 126908, Note_off_c, 0, 59, 100
2, 126912, Note_on_c, 0, 60, 80
2, 127004, Note_off_c, 0, 60, 100
2, 127008, Note_on_c, 0, 64, 80
2, 127100, Note_off_c, 0, 64, 100
2, 127104, Note_on_c, 0, 67, 80
2, 127196, Note_off_c, 0, 67, 100
2, 127200, Note_on_c, 0, 65, 80
2, 127292, Note_off_c, 0, 65, 100
2, 127296, Note_on_c, 0, 64, 80
2, 127388, Note_off_c, 0, 64, 100
2, 127392, Note_on_c, 0, 65, 80
2, 127488, Note_on_c, 0, 57, 80
2, 127580, Note_off_c, 0, 57, 100
2, 127584, Note_on_c, 0, 58, 80
2, 127676, Note_off_c, 0, 58, 100
2, 127680, Note_on_c, 0, 57, 80
2, 127772, Note_off_c, 0, 57, 100
2, 127776, Note_on_c, 0, 58, 80
2, 127868, Note_off_c, 0, 65, 100
2, 127868, Note_off_c, 0, 58, 100
2, 127872, Note_on_c, 0, 74, 80
2, 127908, Note_off_c, 0, 74, 100
2, 127908, Note_on_c, 0, 72, 80
2, 127968, Note_off_c, 0, 72, 100
2, 127968, Note_on_c, 0, 71, 80
2, 128060, Note_off_c, 0, 71, 100
2, 128064, Note_on_c, 0, 72, 80
2, 128156, Note_off_c, 0, 72, 100
2, 128160, Note_on_c, 0, 77, 80
2, 128252, Note_off_c, 0, 77, 100
2, 128256, Note_on_c, 0, 81, 80
2, 128732, Note_off_c, 0, 81, 100
2, 128736, Note_on_c, 0, 80, 80
2, 128828, Note_off_c, 0, 80, 100
2, 128832, Note_on_c, 0, 81, 80
2, 128924, Note_off_c, 0, 81, 100
2, 128928, Note_on_c, 0, 77, 80
2, 129020, Note_off_c, 0, 77, 100
2, 129024, Note_on_c, 0, 81, 80
2, 129060, Note_off_c, 0, 81, 100
2, 129060, Note_on_c, 0, 79, 80
2, 129120, Note_off_c, 0, 79, 100
2, 129120, Note_on_c, 0, 78, 80
2, 129212, Note_off_c, 0, 78, 100
2, 129216, Note_on_c, 0, 79, 80
2, 129308, Note_off_c, 0, 79, 100
2, 129312, Note_on_c, 0, 76, 80
2, 129404, Note_off_c, 0, 76, 100
2, 129408, Note_on_c, 0, 77, 80
2, 129408, Note_on_c, 0, 69, 80
2, 129788, Note_off_c, 0, 77, 100
2, 129788, Note_off_c, 0, 69, 100
2, 130176, Note_on_c, 0, 53, 80
2, 130220, Note_off_c, 0, 53, 100
2, 130224, Note_on_c, 0, 55, 80
2, 130268, Note_off_c, 0, 55, 100
2, 130272, Note_on_c, 0, 53, 80
2, 130316, Note_off_c, 0, 53, 100
2, 130320, Note_on_c, 0, 52, 80
2, 130364, Note_off_c, 0, 52, 100
2, 130368, Note_on_c, 0, 50, 80
2, 130412, Note_off_c, 0, 50, 100
2, 130416, Note_on_c, 0, 52, 80
2, 130460, Note_off_c, 0, 52, 100
2, 130464, Note_on_c, 0, 53, 80
2, 130508, Note_off_c, 0, 53, 100
2, 130512, Note_on_c, 0, 57, 80
2, 130556, Note_off_c, 0, 57, 100
2, 130560, Note_on_c, 0, 61, 80
2, 130940, Note_off_c, 0, 61, 100
2, 130944, Note_on_c, 0, 62, 80
2, 131612, Note_off_c, 0, 62, 100
2, 131616, Note_on_c, 0, 59, 80
2, 131708, Note_off_c, 0, 59, 100
2, 131712, Note_on_c, 0, 60, 80
2, 131996, Note_off_c, 0, 60, 100
2, 132000, Note_on_c, 0, 57, 80
2, 132092, Note_off_c, 0, 57, 100
2, 132096, Note_on_c, 0, 53, 80
2, 132284, Note_off_c, 0, 53, 100
2, 132480, Note_on_c, 0, 67, 80
2, 132516, Note_off_c, 0, 67, 100
2, 132516, Note_on_c, 0, 65, 80
2, 132576, Note_off_c, 0, 65, 100
2, 132576, Note_on_c, 0, 64, 80
2, 132668, Note_off_c, 0, 64, 100
2, 132672, Note_on_c, 0, 65, 80
2, 132764, Note_off_c, 0, 65, 100
2, 132768, Note_on_c, 0, 69, 80
2, 132860, Note_off_c, 0, 69, 100
2, 132864, Note_on_c, 0, 73, 80
2, 133052, Note_off_c, 0, 73, 100
2, 133056, Note_on_c, 0, 74, 80
2, 133436, Note_off_c, 0, 74, 100
2, 133440, Note_on_c, 0, 74, 80
2, 133724, Note_off_c, 0, 74, 100
2, 133728, Note_on_c, 0, 73, 80
2, 133820, Note_off_c, 0, 73, 100
2, 133824, Note_on_c, 0, 74, 80
2, 133916, Note_off_c, 0, 74, 100
2, 133920, Note_on_c, 0, 71, 80
2, 134012, Note_off_c, 0, 71, 100
2, 134016, Note_on_c, 0, 74, 80
2, 134052, Note_off_c, 0, 74, 100
2, 134052, Note_on_c, 0, 72, 80
2, 134112, Note_off_c, 0, 72, 100
2, 134112, Note_on_c, 0, 71, 80
2, 134204, Note_off_c, 0, 71, 100
2, 134208, Note_on_c, 0, 72, 80
2, 134300, Note_off_c, 0, 72, 100
2, 134304, Note_on_c, 0, 69, 80
2, 134396, Note_off_c, 0, 69, 100
2, 134400, Note_on_c, 0, 65, 80
2, 134492, Note_off_c, 0, 65, 100
2, 134496, Note_on_c, 0, 76, 80
2, 134588, Note_off_c, 0, 76, 100
2, 134592, Note_on_c, 0, 77, 80
2, 134684, Note_off_c, 0, 77, 100
2, 134688, Note_on_c, 0, 76, 80
2, 134780, Note_off_c, 0, 76, 100
2, 134784, Note_on_c, 0, 79, 80
2, 134820, Note_off_c, 0, 79, 100
2, 134820, Note_on_c, 0, 77, 80
2, 134880, Note_off_c, 0, 77, 100
2, 134880, Note_on_c, 0, 76, 80
2, 134972, Note_off_c, 0, 76, 100
2, 134976, Note_on_c, 0, 77, 80
2, 135068, Note_off_c, 0, 77, 100
2, 135072, Note_on_c, 0, 81, 80
2, 135164, Note_off_c, 0, 81, 100
2, 135168, Note_on_c, 0, 85, 80
2, 135260, Note_off_c, 0, 85, 100
2, 135264, Note_on_c, 0, 86, 81
2, 135356, Note_off_c, 0, 86, 100
2, 135360, Note_on_c, 0, 86, 82
2, 135452, Note_off_c, 0, 86, 100
2, 135456, Note_on_c, 0, 86, 83
2, 135548, Note_off_c, 0, 86, 100
2, 135552, Note_on_c, 0, 86, 85
2, 135644, Note_off_c, 0, 86, 100
2, 135648, Note_on_c, 0, 86, 86
2, 135740, Note_off_c, 0, 86, 100
2, 135744, Note_on_c, 0, 86, 87
2, 135836, Note_off_c, 0, 86, 100
2, 135840, Note_on_c, 0, 86, 89
2, 135932, Note_off_c, 0, 86, 100
2, 135936, Note_on_c, 0, 88, 90
2, 135972, Note_off_c, 0, 88, 100
2, 135972, Note_on_c, 0, 86, 90
2, 136032, Note_off_c, 0, 86, 100
2, 136032, Note_on_c, 0, 85, 91
2, 136124, Note_off_c, 0, 85, 100
2, 136128, Note_on_c, 0, 86, 93
2, 136220, Note_off_c, 0, 86, 100
2, 136224, Note_on_c, 0, 83, 94
2, 136316, Note_off_c, 0, 83, 100
2, 136320, Note_on_c, 0, 86, 95
2, 136356, Note_off_c, 0, 86, 100
2, 136356, Note_on_c, 0, 84, 96
2, 136416, Note_off_c, 0, 84, 100
2, 136416, Note_on_c, 0, 83, 96
2, 136508, Note_off_c, 0, 83, 100
2, 136512, Note_on_c, 0, 84, 98
2, 136604, Note_off_c, 0, 84, 100
2, 136608, Note_on_c, 0, 81, 99
2, 136700, Note_off_c, 0, 81, 100
2, 136704, Note_on_c, 0, 82, 100
2, 136796, Note_off_c, 0, 82, 100
2, 136800, Note_on_c, 0, 82, 102
2, 136892, Note_off_c, 0, 82, 100
2, 136896, Note_on_c, 0, 82, 103
2, 136988, Note_off_c, 0, 82, 100
2, 136992, Note_on_c, 0, 82, 104
2, 137084, Note_off_c, 0, 82, 100
2, 137088, Note_on_c, 0, 84, 106
2, 137124, Note_off_c, 0, 84, 100
2, 137124, Note_on_c, 0, 82, 106
2, 137184, Note_off_c, 0, 82, 100
2, 137184, Note_on_c, 0, 81, 107
2, 137276, Note_off_c, 0, 81, 100
2, 137280, Note_on_c, 0, 82, 108
2, 137372, Note_off_c, 0, 82, 100
2, 137376, Note_on_c, 0, 80, 109
2, 137468, Note_off_c, 0, 80, 100
2, 137472, Note_on_c, 0, 82, 110
2, 137508, Note_off_c, 0, 82, 100
2, 137508, Note_on_c, 0, 81, 110
2, 137568, Note_off_c, 0, 81, 100
2, 137568, Note_on_c, 0, 80, 110
2, 137660, Note_off_c, 0, 80, 100
2, 137664, Note_on_c, 0, 81, 110
2, 137756, Note_off_c, 0, 81, 100
2, 137760, Note_on_c, 0, 77, 110
2, 137852, Note_off_c, 0, 77, 100
2, 137856, Note_on_c, 0, 79, 110
2, 137948, Note_off_c, 0, 79, 100
2, 137952, Note_on_c, 0, 79, 110
2, 138044, Note_off_c, 0, 79, 100
2, 138048, Note_on_c, 0, 79, 110
2, 138140, Note_off_c, 0, 79, 100
2, 138144, Note_on_c, 0, 79, 110
2, 138236, Note_off_c, 0, 79, 100
2, 138240, Note_on_c, 0, 81, 100
2, 138276, Note_off_c, 0, 81, 100
2, 138276, Note_on_c, 0, 79, 99
2, 138336, Note_off_c, 0, 79, 100
2, 138336, Note_on_c, 0, 78, 97
2, 138428, Note_off_c, 0, 78, 100
2, 138432, Note_on_c, 0, 79, 94
2, 138524, Note_off_c, 0, 79, 100
2, 138528, Note_on_c, 0, 74, 91
2, 138620, Note_off_c, 0, 74, 100
2, 138624, Note_on_c, 0, 70, 80
2, 138624, Note_on_c, 0, 77, 80
2, 138660, Note_off_c, 0, 77, 100
2, 138660, Note_on_c, 0, 76, 80
2, 138720, Note_off_c, 0, 76, 100
2, 138720, Note_on_c, 0, 74, 80
2, 138812, Note_off_c, 0, 74, 100
2, 138816, Note_on_c, 0, 76, 80
2, 138908, Note_off_c, 0, 76, 100
2, 138912, Note_on_c, 0, 79, 80
2, 139004, Note_off_c, 0, 70, 100
2, 139004, Note_off_c, 0, 79, 100
2, 139008, Note_on_c, 0, 77, 80
2, 139008, Note_on_c, 0, 69, 80
2, 139196, Note_off_c, 0, 77, 100
2, 139196, Note_off_c, 0, 69, 100
2, 139392, Note_on_c, 0, 53, 80
2, 139436, Note_off_c, 0, 53, 100
2, 139440, Note_on_c, 0, 55, 80
2, 139484, Note_off_c, 0, 55, 100
2, 139488, Note_on_c, 0, 53, 80
2, 139532, Note_off_c, 0, 53, 100
2, 139536, Note_on_c, 0, 52, 80
2, 139580, Note_off_c, 0, 52, 100
2, 139584, Note_on_c, 0, 53, 80
2, 139616, Note_off_c, 0, 53, 100
2, 139620, Note_on_c, 0, 55, 80
2, 139652, Note_off_c, 0, 55, 100
2, 139656, Note_on_c, 0, 57, 80
2, 139692, Note_off_c, 0, 57, 100
2, 139696, Note_on_c, 0, 58, 80
2, 139732, Note_off_c, 0, 58, 100
2, 139740, Note_on_c, 0, 60, 80
2, 139776, Note_off_c, 0, 60, 100
2, 139776, Note_on_c, 0, 61, 80
2, 139868, Note_off_c, 0, 61, 100
2, 139872, Note_on_c, 0, 62, 80
2, 139964, Note_off_c, 0, 62, 100
2, 139968, Note_on_c, 0, 62, 80
2, 140060, Note_off_c, 0, 62, 100
2, 140064, Note_on_c, 0, 62, 80
2, 140156, Note_off_c, 0, 62, 100
2, 140160, Note_on_c, 0, 62, 80
2, 140252, Note_off_c, 0, 62, 100
2, 140256, Note_on_c, 0, 62, 80
2, 140348, Note_off_c, 0, 62, 100
2, 140352, Note_on_c, 0, 62, 80
2, 140444, Note_off_c, 0, 62, 100
2, 140448, Note_on_c, 0, 62, 80
2, 140540, Note_off_c, 0, 62, 100
2, 140544, Note_on_c, 0, 64, 80
2, 140580, Note_off_c, 0, 64, 100
2, 140580, Note_on_c, 0, 62, 80
2, 140640, Note_off_c, 0, 62, 100
2, 140640, Note_on_c, 0, 60, 80
2, 140732, Note_off_c, 0, 60, 100
2, 140736, Note_on_c, 0, 62, 80
2, 140828, Note_off_c, 0, 62, 100
2, 140832, Note_on_c, 0, 59, 80
2, 140924, Note_off_c, 0, 59, 100
2, 140928, Note_on_c, 0, 62, 80
2, 140964, Note_off_c, 0, 62, 100
2, 140964, Note_on_c, 0, 60, 80
2, 141024, Note_off_c, 0, 60, 100
2, 141024, Note_on_c, 0, 59, 80
2, 141116, Note_off_c, 0, 59, 100
2, 141120, Note_on_c, 0, 60, 80
2, 141212, Note_off_c, 0, 60, 100
2, 141216, Note_on_c, 0, 57, 80
2, 141308, Note_off_c, 0, 57, 100
2, 141312, Note_on_c, 0, 53, 80
2, 141372, Note_off_c, 0, 53, 100
2, 141376, Note_on_c, 0, 55, 80
2, 141436, Note_off_c, 0, 55, 100
2, 141440, Note_on_c, 0, 57, 80
2, 141500, Note_off_c, 0, 57, 100
2, 141504, Note_on_c, 0, 58, 80
2, 141564, Note_off_c, 0, 58, 100
2, 141568, Note_on_c, 0, 60, 80
2, 141628, Note_off_c, 0, 60, 100
2, 141632, Note_on_c, 0, 62, 80
2, 141692, Note_off_c, 0, 62, 100
2, 141696, Note_on_c, 0, 64, 80
2, 141756, Note_off_c, 0, 64, 100
2, 141760, Note_on_c, 0, 65, 80
2, 141820, Note_off_c, 0, 65, 100
2, 141824, Note_on_c, 0, 67, 80
2, 141884, Note_off_c, 0, 67, 100
2, 141888, Note_on_c, 0, 69, 80
2, 141948, Note_off_c, 0, 69, 100
2, 141952, Note_on_c, 0, 70, 80
2, 142012, Note_off_c, 0, 70, 100
2, 142016, Note_on_c, 0, 72, 80
2, 142076, Note_off_c, 0, 72, 100
2, 142080, Note_on_c, 0, 73, 80
2, 142140, Note_off_c, 0, 73, 100
2, 142144, Note_on_c, 0, 74, 80
2, 142204, Note_off_c, 0, 74, 100
2, 142208, Note_on_c, 0, 73, 80
2, 142268, Note_off_c, 0, 73, 100
2, 142272, Note_on_c, 0, 74, 80
2, 142332, Note_off_c, 0, 74, 100
2, 142336, Note_on_c, 0, 73, 80
2, 142396, Note_off_c, 0, 73, 100
2, 142400, Note_on_c, 0, 74, 80
2, 142460, Note_off_c, 0, 74, 100
2, 142464, Note_on_c, 0, 73, 80
2, 142524, Note_off_c, 0, 73, 100
2, 142528, Note_on_c, 0, 74, 80
2, 142588, Note_off_c, 0, 74, 100
2, 142592, Note_on_c, 0, 73, 80
2, 142652, Note_off_c, 0, 73, 100
2, 142656, Note_on_c, 0, 74, 80
2, 142700, Note_off_c, 0, 74, 100
2, 142704, Note_on_c, 0, 73, 80
2, 142748, Note_off_c, 0, 73, 100
2, 142752, Note_on_c, 0, 74, 80
2, 142796, Note_off_c, 0, 74, 100
2, 142800, Note_on_c, 0, 73, 80
2, 142844, Note_off_c, 0, 73, 100
2, 142848, Note_on_c, 0, 74, 80
2, 142908, Note_off_c, 0, 74, 100
2, 142912, Note_on_c, 0, 76, 80
2, 142972, Note_off_c, 0, 76, 100
2, 142976, Note_on_c, 0, 74, 80
2, 143036, Note_off_c, 0, 74, 100
2, 143040, Note_on_c, 0, 73, 80
2, 143100, Note_off_c, 0, 73, 100
2, 143104, Note_on_c, 0, 74, 80
2, 143164, Note_off_c, 0, 74, 100
2, 143168, Note_on_c, 0, 71, 80
2, 143228, Note_off_c, 0, 71, 100
2, 143232, Note_on_c, 0, 72, 80
2, 143292, Note_off_c, 0, 72, 100
2, 143296, Note_on_c, 0, 74, 80
2, 143356, Note_off_c, 0, 74, 100
2, 143360, Note_on_c, 0, 72, 80
2, 143420, Note_off_c, 0, 72, 100
2, 143424, Note_on_c, 0, 71, 80
2, 143484, Note_off_c, 0, 71, 100
2, 143488, Note_on_c, 0, 72, 80
2, 143548, Note_off_c, 0, 72, 100
2, 143552, Note_on_c, 0, 69, 80
2, 143612, Note_off_c, 0, 69, 100
2, 143616, Note_on_c, 0, 65, 80
2, 143676, Note_off_c, 0, 65, 100
2, 143680, Note_on_c, 0, 67, 80
2, 143740, Note_off_c, 0, 67, 100
2, 143744, Note_on_c, 0, 69, 80
2, 143804, Note_off_c, 0, 69, 100
2, 143808, Note_on_c, 0, 70, 80
2, 143868, Note_off_c, 0, 70, 100
2, 143872, Note_on_c, 0, 72, 80
2, 143932, Note_off_c, 0, 72, 100
2, 143936, Note_on_c, 0, 74, 80
2, 143996, Note_off_c, 0, 74, 100
2, 144000, Note_on_c, 0, 76, 80
2, 144060, Note_off_c, 0, 76, 100
2, 144064, Note_on_c, 0, 77, 80
2, 144124, Note_off_c, 0, 77, 100
2, 144128, Note_on_c, 0, 79, 80
2, 144188, Note_off_c, 0, 79, 100
2, 144192, Note_on_c, 0, 81, 80
2, 144252, Note_off_c, 0, 81, 100
2, 144256, Note_on_c, 0, 82, 80
2, 144316, Note_off_c, 0, 82, 100
2, 144320, Note_on_c, 0, 84, 80
2, 144380, Note_off_c, 0, 84, 100
2, 144384, Note_on_c, 0, 85, 80
2, 144444, Note_off_c, 0, 85, 100
2, 144448, Note_on_c, 0, 86, 80
2, 144508, Note_off_c, 0, 86, 100
2, 144512, Note_on_c, 0, 85, 81
2, 144572, Note_off_c, 0, 85, 100
2, 144576, Note_on_c, 0, 86, 81
2, 144636, Note_off_c, 0, 86, 100
2, 144640, Note_on_c, 0, 85, 82
2, 144700, Note_off_c, 0, 85, 100
2, 144704, Note_on_c, 0, 86, 82
2, 144764, Note_off_c, 0, 86, 100
2, 144768, Note_on_c, 0, 85, 83
2, 144828, Note_off_c, 0, 85, 100
2, 144832, Note_on_c, 0, 86, 83
2, 144892, Note_off_c, 0, 86, 100
2, 144896, Note_on_c, 0, 85, 84
2, 144956, Note_off_c, 0, 85, 100
2, 144960, Note_on_c, 0, 86, 85
2, 145004, Note_off_c, 0, 86, 100
2, 145008, Note_on_c, 0, 85, 85
2, 145052, Note_off_c, 0, 85, 100
2, 145056, Note_on_c, 0, 86, 85
2, 145100, Note_off_c, 0, 86, 100
2, 145104, Note_on_c, 0, 85, 86
2, 145148, Note_off_c, 0, 85, 100
2, 145152, Note_on_c, 0, 86, 86
2, 145212, Note_off_c, 0, 86, 100
2, 145216, Note_on_c, 0, 88, 87
2, 145276, Note_off_c, 0, 88, 100
2, 145280, Note_on_c, 0, 86, 87
2, 145340, Note_off_c, 0, 86, 100
2, 145344, Note_on_c, 0, 85, 88
2, 145404, Note_off_c, 0, 85, 100
2, 145408, Note_on_c, 0, 86, 89
2, 145468, Note_off_c, 0, 86, 100
2, 145472, Note_on_c, 0, 83, 89
2, 145532, Note_off_c, 0, 83, 100
2, 145536, Note_on_c, 0, 84, 90
2, 145596, Note_off_c, 0, 84, 100
2, 145600, Note_on_c, 0, 86, 90
2, 145660, Note_off_c, 0, 86, 100
2, 145664, Note_on_c, 0, 84, 91
2, 145724, Note_off_c, 0, 84, 100
2, 145728, Note_on_c, 0, 83, 91
2, 145788, Note_off_c, 0, 83, 100
2, 145792, Note_on_c, 0, 84, 92
2, 145852, Note_off_c, 0, 84, 100
2, 145856, Note_on_c, 0, 81, 93
2, 145916, Note_off_c, 0, 81, 100
2, 145920, Note_on_c, 0, 82, 93
2, 145980, Note_off_c, 0, 82, 100
2, 145984, Note_on_c, 0, 81, 94
2, 146044, Note_off_c, 0, 81, 100
2, 146048, Note_on_c, 0, 82, 94
2, 146108, Note_off_c, 0, 82, 100
2, 146112, Note_on_c, 0, 81, 95
2, 146172, Note_off_c, 0, 81, 100
2, 146176, Note_on_c, 0, 82, 95
2, 146236, Note_off_c, 0, 82, 100
2, 146240, Note_on_c, 0, 81, 96
2, 146300, Note_off_c, 0, 81, 100
2, 146304, Note_on_c, 0, 82, 96
2, 146364, Note_off_c, 0, 82, 100
2, 146368, Note_on_c, 0, 84, 97
2, 146428, Note_off_c, 0, 84, 100
2, 146432, Note_on_c, 0, 82, 98
2, 146492, Note_off_c, 0, 82, 100
2, 146496, Note_on_c, 0, 81, 98
2, 146556, Note_off_c, 0, 81, 100
2, 146560, Note_on_c, 0, 82, 99
2, 146620, Note_off_c, 0, 82, 100
2, 146624, Note_on_c, 0, 80, 99
2, 146684, Note_off_c, 0, 80, 100
2, 146688, Note_on_c, 0, 81, 100
2, 146748, Note_off_c, 0, 81, 100
2, 146752, Note_on_c, 0, 82, 100
2, 146812, Note_off_c, 0, 82, 100
2, 146816, Note_on_c, 0, 81, 101
2, 146876, Note_off_c, 0, 81, 100
2, 146880, Note_on_c, 0, 80, 102
2, 146940, Note_off_c, 0, 80, 100
2, 146944, Note_on_c, 0, 81, 102
2, 147004, Note_off_c, 0, 81, 100
2, 147008, Note_on_c, 0, 77, 103
2, 147068, Note_off_c, 0, 77, 100
2, 147072, Note_on_c, 0, 79, 103
2, 147132, Note_off_c, 0, 79, 100
2, 147136, Note_on_c, 0, 81, 104
2, 147196, Note_off_c, 0, 81, 100
2, 147200, Note_on_c, 0, 79, 104
2, 147260, Note_off_c, 0, 79, 100
2, 147264, Note_on_c, 0, 78, 105
2, 147324, Note_off_c, 0, 78, 100
2, 147328, Note_on_c, 0, 79, 106
2, 147388, Note_off_c, 0, 79, 100
2, 147392, Note_on_c, 0, 74, 106
2, 147452, Note_off_c, 0, 74, 100
2, 147456, Note_on_c, 0, 76, 107
2, 147516, Note_off_c, 0, 76, 100
2, 147520, Note_on_c, 0, 77, 107
2, 147580, Note_off_c, 0, 77, 100
2, 147584, Note_on_c, 0, 76, 108
2, 147644, Note_off_c, 0, 76, 100
2, 147648, Note_on_c, 0, 74, 108
2, 147708, Note_off_c, 0, 74, 100
2, 147712, Note_on_c, 0, 76, 109
2, 147772, Note_off_c, 0, 76, 100
2, 147776, Note_on_c, 0, 79, 109
2, 147836, Note_off_c, 0, 79, 100
2, 147840, Note_on_c, 0, 77, 110
2, 147900, Note_off_c, 0, 77, 100
2, 147904, Note_on_c, 0, 79, 110
2, 147964, Note_off_c, 0, 79, 100
2, 147968, Note_on_c, 0, 77, 110
2, 148028, Note_off_c, 0, 77, 100
2, 148032, Note_on_c, 0, 76, 110
2, 148092, Note_off_c, 0, 76, 100
2, 148096, Note_on_c, 0, 77, 110
2, 148156, Note_off_c, 0, 77, 100
2, 148160, Note_on_c, 0, 76, 110
2, 148220, Note_off_c, 0, 76, 100
2, 148224, Note_on_c, 0, 74, 110
2, 148284, Note_off_c, 0, 74, 100
2, 148288, Note_on_c, 0, 76, 110
2, 148348, Note_off_c, 0, 76, 100
2, 148352, Note_on_c, 0, 74, 110
2, 148412, Note_off_c, 0, 74, 100
2, 148416, Note_on_c, 0, 73, 110
2, 148476, Note_off_c, 0, 73, 100
2, 148480, Note_on_c, 0, 74, 110
2, 148540, Note_off_c, 0, 74, 100
2, 148544, Note_on_c, 0, 77, 110
2, 148604, Note_off_c, 0, 77, 100
2, 148608, Note_on_c, 0, 76, 110
2, 148668, Note_off_c, 0, 76, 100
2, 148672, Note_on_c, 0, 77, 110
2, 148732, Note_off_c, 0, 77, 100
2, 148736, Note_on_c, 0, 76, 110
2, 148796, Note_off_c, 0, 76, 100
2, 148800, Note_on_c, 0, 74, 110
2, 148860, Note_off_c, 0, 74, 100
2, 148864, Note_on_c, 0, 76, 110
2, 148924, Note_off_c, 0, 76, 100
2, 148928, Note_on_c, 0, 74, 110
2, 148988, Note_off_c, 0, 74, 100
2, 148992, Note_on_c, 0, 72, 110
2, 149052, Note_off_c, 0, 72, 100
2, 149056, Note_on_c, 0, 74, 110
2, 149116, Note_off_c, 0, 74, 100
2, 149120, Note_on_c, 0, 72, 110
2, 149180, Note_off_c, 0, 72, 100
2, 149184, Note_on_c, 0, 71, 110
2, 149244, Note_off_c, 0, 71, 100
2, 149248, Note_on_c, 0, 72, 110
2, 149308, Note_off_c, 0, 72, 100
2, 149312, Note_on_c, 0, 76, 110
2, 149372, Note_off_c, 0, 76, 100
2, 149376, Note_on_c, 0, 74, 110
2, 149436, Note_off_c, 0, 74, 100
2, 149440, Note_on_c, 0, 76, 110
2, 149500, Note_off_c, 0, 76, 100
2, 149504, Note_on_c, 0, 74, 110
2, 149564, Note_off_c, 0, 74, 100
2, 149568, Note_on_c, 0, 72, 110
2, 149628, Note_off_c, 0, 72, 100
2, 149632, Note_on_c, 0, 74, 110
2, 149692, Note_off_c, 0, 74, 100
2, 149696, Note_on_c, 0, 72, 110
2, 149756, Note_off_c, 0, 72, 100
2, 149760, Note_on_c, 0, 70, 110
2, 149820, Note_off_c, 0, 70, 100
2, 149824, Note_on_c, 0, 72, 110
2, 149884, Note_off_c, 0, 72, 100
2, 149888, Note_on_c, 0, 70, 110
2, 149948, Note_off_c, 0, 70, 100
2, 149952, Note_on_c, 0, 69, 110
2, 150012, Note_off_c, 0, 69, 100
2, 150016, Note_on_c, 0, 70, 110
2, 150076, Note_off_c, 0, 70, 100
2, 150080, Note_on_c, 0, 74, 110
2, 150140, Note_off_c, 0, 74, 100
2, 150144, Note_on_c, 0, 72, 110
2, 150204, Note_off_c, 0, 72, 100
2, 150208, Note_on_c, 0, 74, 110
2, 150268, Note_off_c, 0, 74, 100
2, 150272, Note_on_c, 0, 72, 110
2, 150332, Note_off_c, 0, 72, 100
2, 150336, Note_on_c, 0, 70, 110
2, 150396, Note_off_c, 0, 70, 100
2, 150400, Note_on_c, 0, 72, 110
2, 150460, Note_off_c, 0, 72, 100
2, 150464, Note_on_c, 0, 70, 110
2, 150524, Note_off_c, 0, 70, 100
2, 150528, Note_on_c, 0, 69, 110
2, 150588, Note_off_c, 0, 69, 100
2, 150592, Note_on_c, 0, 70, 110
2, 150652, Note_off_c, 0, 70, 100
2, 150656, Note_on_c, 0, 72, 110
2, 150716, Note_off_c, 0, 72, 100
2, 150720, Note_on_c, 0, 70, 110
2, 150780, Note_off_c, 0, 70, 100
2, 150784, Note_on_c, 0, 69, 110
2, 150844, Note_off_c, 0, 69, 100
2, 150848, Note_on_c, 0, 67, 110
2, 150908, Note_off_c, 0, 67, 100
2, 150912, Note_on_c, 0, 65, 110
2, 150972, Note_off_c, 0, 65, 100
2, 150976, Note_on_c, 0, 67, 110
2, 151036, Note_off_c, 0, 67, 100
2, 151040, Note_on_c, 0, 69, 110
2, 151100, Note_off_c, 0, 69, 100
2, 151104, Note_on_c, 0, 67, 110
2, 151164, Note_off_c, 0, 67, 100
2, 151168, Note_on_c, 0, 65, 110
2, 151228, Note_off_c, 0, 65, 100
2, 151232, Note_on_c, 0, 64, 110
2, 151292, Note_off_c, 0, 64, 100
2, 151296, Note_on_c, 0, 62, 110
2, 151328, Note_on_c, 0, 64, 80
2, 151344, Note_off_c, 0, 62, 100
2, 151360, Note_on_c, 0, 62, 80
2, 151380, Note_off_c, 0, 64, 100
2, 151392, Note_on_c, 0, 61, 80
2, 151412, Note_off_c, 0, 62, 100
2, 151440, Note_on_c, 0, 62, 80
2, 151480, Note_off_c, 0, 61, 100
2, 151488, Note_on_c, 0, 67, 80
2, 151516, Note_off_c, 0, 62, 100
2, 151520, Note_on_c, 0, 69, 80
2, 151552, Note_off_c, 0, 67, 100
2, 151552, Note_on_c, 0, 67, 80
2, 151576, Note_off_c, 0, 69, 100
2, 151584, Note_on_c, 0, 66, 80
2, 151608, Note_off_c, 0, 67, 100
2, 151632, Note_on_c, 0, 67, 80
2, 151648, Note_off_c, 0, 66, 100
2, 151680, Note_on_c, 0, 70, 80
2, 151708, Note_off_c, 0, 67, 100
2, 151712, Note_on_c, 0, 72, 80
2, 151724, Note_off_c, 0, 70, 100
2, 151744, Note_on_c, 0, 70, 80
2, 151764, Note_off_c, 0, 72, 100
2, 151776, Note_on_c, 0, 69, 80
2, 151792, Note_off_c, 0, 70, 100
2, 151824, Note_on_c, 0, 70, 80
2, 151836, Note_off_c, 0, 69, 100
2, 151872, Note_on_c, 0, 74, 80
2, 151884, Note_off_c, 0, 70, 100
2, 151904, Note_on_c, 0, 76, 80
2, 151920, Note_off_c, 0, 74, 100
2, 151936, Note_on_c, 0, 74, 80
2, 151952, Note_off_c, 0, 76, 100
2, 151968, Note_on_c, 0, 73, 80
2, 151988, Note_off_c, 0, 74, 100
2, 152016, Note_on_c, 0, 74, 80
2, 152032, Note_off_c, 0, 73, 100
2, 152064, Note_on_c, 0, 79, 80
2, 152096, Note_off_c, 0, 74, 100
2, 152096, Note_on_c, 0, 81, 80
2, 152116, Note_off_c, 0, 79, 100
2, 152128, Note_on_c, 0, 79, 80
2, 152148, Note_off_c, 0, 81, 100
2, 152160, Note_on_c, 0, 78, 80
2, 152180, Note_off_c, 0, 79, 100
2, 152208, Note_on_c, 0, 79, 80
2, 152228, Note_off_c, 0, 78, 100
2, 152256, Note_on_c, 0, 82, 80
2, 152284, Note_off_c, 0, 79, 100
2, 152288, Note_on_c, 0, 84, 80
2, 152312, Note_off_c, 0, 82, 100
2, 152320, Note_on_c, 0, 82, 80
2, 152340, Note_off_c, 0, 84, 100
2, 152352, Note_on_c, 0, 81, 80
2, 152376, Note_off_c, 0, 82, 100
2, 152400, Note_on_c, 0, 82, 80
2, 152440, Note_off_c, 0, 81, 100
2, 152444, Note_off_c, 0, 82, 100
2, 152448, Note_on_c, 0, 85, 80
2, 152496, Note_on_c, 0, 86, 80
2, 152520, Note_off_c, 0, 85, 100
2, 152544, Note_on_c, 0, 88, 80
2, 152576, Note_off_c, 0, 86, 100
2, 152592, Note_on_c, 0, 86, 80
2, 152628, Note_off_c, 0, 88, 100
2, 152640, Note_on_c, 0, 88, 80
2, 152672, Note_off_c, 0, 86, 100
2, 152688, Note_on_c, 0, 86, 80
2, 152720, Note_off_c, 0, 88, 100
2, 152736, Note_on_c, 0, 88, 80
2, 152772, Note_off_c, 0, 86, 100
2, 152784, Note_on_c, 0, 86, 80
2, 152820, Note_off_c, 0, 88, 100
2, 152832, Note_on_c, 0, 88, 80
2, 152864, Note_off_c, 0, 86, 100
2, 152880, Note_on_c, 0, 86, 80
2, 152912, Note_off_c, 0, 88, 100
2, 152928, Note_on_c, 0, 88, 80
2, 152964, Note_off_c, 0, 86, 100
2, 152976, Note_on_c, 0, 86, 80
2, 153012, Note_off_c, 0, 88, 100
2, 153024, Note_on_c, 0, 88, 80
2, 153056, Note_off_c, 0, 86, 100
2, 153072, Note_on_c, 0, 86, 80
2, 153104, Note_off_c, 0, 88, 100
2, 153120, Note_on_c, 0, 88, 80
2, 153156, Note_off_c, 0, 86, 100
2, 153168, Note_on_c, 0, 86, 80
2, 153204, Note_off_c, 0, 88, 100
2, 153216, Note_on_c, 0, 88, 80
2, 153248, Note_off_c, 0, 86, 100
2, 153264, Note_on_c, 0, 86, 80
2, 153296, Note_off_c, 0, 88, 100
2, 153312, Note_on_c, 0, 88, 80
2, 153348, Note_off_c, 0, 86, 100
2, 153360, Note_on_c, 0, 86, 80
2, 153396, Note_off_c, 0, 88, 100
2, 153408, Note_on_c, 0, 88, 80
2, 153440, Note_off_c, 0, 86, 100
2, 153456, Note_on_c, 0, 86, 80
2, 153488, Note_off_c, 0, 88, 100
2, 153504, Note_on_c, 0, 85, 80
2, 153540, Note_off_c, 0, 86, 100
2, 153552, Note_on_c, 0, 86, 80
2, 153588, Note_off_c, 0, 85, 100
2, 153596, Note_off_c, 0, 86, 100
2, 153600, Note_on_c, 0, 62, 80
2, 153648, Note_on_c, 0, 64, 80
2, 153680, Note_off_c, 0, 62, 100
2, 153696, Note_on_c, 0, 65, 80
2, 153740, Note_off_c, 0, 64, 100
2, 153744, Note_on_c, 0, 64, 80
2, 153780, Note_off_c, 0, 65, 100
2, 153792, Note_on_c, 0, 65, 80
2, 153820, Note_off_c, 0, 64, 100
2, 153840, Note_on_c, 0, 64, 80
2, 153880, Note_off_c, 0, 65, 100
2, 153888, Note_on_c, 0, 65, 80
2, 153924, Note_off_c, 0, 64, 100
2, 153936, Note_on_c, 0, 64, 80
2, 153980, Note_off_c, 0, 65, 100
2, 153984, Note_on_c, 0, 65, 80
2, 154024, Note_off_c, 0, 64, 100
2, 154032, Note_on_c, 0, 64, 80
2, 154072, Note_off_c, 0, 65, 100
2, 154080, Note_on_c, 0, 65, 80
2, 154116, Note_off_c, 0, 64, 100
2, 154128, Note_on_c, 0, 64, 80
2, 154172, Note_off_c, 0, 65, 100
2, 154176, Note_on_c, 0, 65, 80
2, 154216, Note_off_c, 0, 64, 100
2, 154224, Note_on_c, 0, 64, 80
2, 154264, Note_off_c, 0, 65, 100
2, 154272, Note_on_c, 0, 65, 80
2, 154308, Note_off_c, 0, 64, 100
2, 154320, Note_on_c, 0, 64, 80
2, 154364, Note_off_c, 0, 65, 100
2, 154368, Note_on_c, 0, 65, 80
2, 154408, Note_off_c, 0, 64, 100
2, 154416, Note_on_c, 0, 64, 80
2, 154456, Note_off_c, 0, 65, 100
2, 154464, Note_on_c, 0, 65, 80
2, 154500, Note_off_c, 0, 64, 100
2, 154512, Note_on_c, 0, 64, 80
2, 154556, Note_off_c, 0, 65, 100
2, 154560, Note_on_c, 0, 65, 80
2, 154600, Note_off_c, 0, 64, 100
2, 154608, Note_on_c, 0, 64, 80
2, 154648, Note_off_c, 0, 65, 100
2, 154656, Note_on_c, 0, 62, 80
2, 154692, Note_off_c, 0, 64, 100
2, 154704, Note_on_c, 0, 64, 80
2, 154748, Note_off_c, 0, 62, 100
2, 154748, Note_off_c, 0, 64, 100
2, 154752, Note_on_c, 0, 71, 80
2, 154800, Note_on_c, 0, 72, 80
2, 154820, Note_off_c, 0, 71, 100
2, 154848, Note_on_c, 0, 74, 80
2, 154876, Note_off_c, 0, 72, 100
2, 154896, Note_on_c, 0, 72, 80
2, 154924, Note_off_c, 0, 74, 100
2, 154944, Note_on_c, 0, 74, 80
2, 154972, Note_off_c, 0, 72, 100
2, 154992, Note_on_c, 0, 72, 80
2, 155024, Note_off_c, 0, 74, 100
2, 155040, Note_on_c, 0, 74, 80
2, 155068, Note_off_c, 0, 72, 100
2, 155088, Note_on_c, 0, 72, 80
2, 155124, Note_off_c, 0, 74, 100
2, 155136, Note_on_c, 0, 74, 80
2, 155172, Note_off_c, 0, 72, 100
2, 155184, Note_on_c, 0, 72, 80
2, 155216, Note_off_c, 0, 74, 100
2, 155232, Note_on_c, 0, 74, 80
2, 155260, Note_off_c, 0, 72, 100
2, 155280, Note_on_c, 0, 72, 80
2, 155316, Note_off_c, 0, 74, 100
2, 155328, Note_on_c, 0, 74, 80
2, 155364, Note_off_c, 0, 72, 100
2, 155376, Note_on_c, 0, 72, 80
2, 155408, Note_off_c, 0, 74, 100
2, 155424, Note_on_c, 0, 74, 80
2, 155452, Note_off_c, 0, 72, 100
2, 155472, Note_on_c, 0, 72, 80
2, 155508, Note_off_c, 0, 74, 100
2, 155520, Note_on_c, 0, 74, 80
2, 155556, Note_off_c, 0, 72, 100
2, 155568, Note_on_c, 0, 72, 80
2, 155600, Note_off_c, 0, 74, 100
2, 155616, Note_on_c, 0, 74, 80
2, 155644, Note_off_c, 0, 72, 100
2, 155664, Note_on_c, 0, 72, 80
2, 155700, Note_off_c, 0, 74, 100
2, 155712, Note_on_c, 0, 74, 80
2, 155748, Note_off_c, 0, 72, 100
2, 155760, Note_on_c, 0, 72, 80
2, 155792, Note_off_c, 0, 74, 100
2, 155808, Note_on_c, 0, 74, 80
2, 155836, Note_off_c, 0, 72, 100
2, 155856, Note_on_c, 0, 72, 80
2, 155892, Note_off_c, 0, 74, 100
2, 155900, Note_off_c, 0, 72, 100
2, 155904, Note_on_c, 0, 72, 80
2, 156284, Note_off_c, 0, 72, 100
2, 156288, Note_on_c, 0, 70, 80
2, 156348, Note_off_c, 0, 70, 100
2, 156352, Note_on_c, 0, 69, 80
2, 156412, Note_off_c, 0, 69, 100
2, 156416, Note_on_c, 0, 67, 80
2, 156476, Note_off_c, 0, 67, 100
2, 156480, Note_on_c, 0, 65, 80
2, 156540, Note_off_c, 0, 65, 100
2, 156544, Note_on_c, 0, 64, 80
2, 156604, Note_off_c, 0, 64, 100
2, 156608, Note_on_c, 0, 62, 80
2, 156668, Note_off_c, 0, 62, 100
2, 156672, Note_on_c, 0, 60, 80
2, 156796, Note_off_c, 0, 60, 100
2, 156800, Note_on_c, 0, 59, 80
2, 156924, Note_off_c, 0, 59, 100
2, 156928, Note_on_c, 0, 60, 80
2, 157052, Note_off_c, 0, 60, 100
2, 157056, Note_on_c, 0, 61, 80
2, 157148, Note_off_c, 0, 61, 100
2, 157152, Note_on_c, 0, 62, 80
2, 157292, Note_off_c, 0, 62, 100
2, 157296, Note_on_c, 0, 63, 80
2, 157628, Note_off_c, 0, 63, 100
2, 157632, Note_on_c, 0, 64, 80
2, 158204, Note_off_c, 0, 64, 100
2, 158208, Note_on_c, 0, 60, 80
2, 158492, Note_off_c, 0, 60, 100
2, 158496, Note_on_c, 0, 65, 80
2, 158588, Note_off_c, 0, 65, 100
2, 158592, Note_on_c, 0, 60, 80
2, 158592, Note_on_c, 0, 69, 80
2, 159260, Note_off_c, 0, 69, 100
2, 159264, Note_on_c, 0, 65, 80
2, 159356, Note_off_c, 0, 60, 100
2, 159356, Note_off_c, 0, 65, 100
2, 159360, Note_on_c, 0, 58, 80
2, 159360, Note_on_c, 0, 67, 80
2, 159644, Note_off_c, 0, 67, 100
2, 159648, Note_on_c, 0, 64, 80
2, 159740, Note_off_c, 0, 58, 100
2, 159740, Note_off_c, 0, 64, 100
2, 159744, Note_on_c, 0, 57, 80
2, 159744, Note_on_c, 0, 65, 80
2, 160124, Note_off_c, 0, 65, 100
2, 160128, Note_on_c, 0, 60, 80
2, 160316, Note_off_c, 0, 57, 100
2, 160316, Note_off_c, 0, 60, 100
2, 160512, Note_on_c, 0, 65, 80
2, 160796, Note_off_c, 0, 65, 100
2, 160800, Note_on_c, 0, 69, 80
2, 160892, Note_off_c, 0, 69, 100
2, 160896, Note_on_c, 0, 72, 80
2, 160896, Note_on_c, 0, 69, 80
2, 160896, Note_on_c, 0, 65, 80
2, 161564, Note_off_c, 0, 72, 100
2, 161564, Note_off_c, 0, 69, 100
2, 161564, Note_off_c, 0, 65, 100
2, 161568, Note_on_c, 0, 74, 80
2, 161568, Note_on_c, 0, 65, 80
2, 161568, Note_on_c, 0, 62, 80
2, 161660, Note_off_c, 0, 74, 100
2, 161660, Note_off_c, 0, 65, 100
2, 161660, Note_off_c, 0, 62, 100
2, 161664, Note_on_c, 0, 70, 80
2, 161664, Note_on_c, 0, 64, 80
2, 161664, Note_on_c, 0, 67, 80
2, 161948, Note_off_c, 0, 70, 100
2, 161948, Note_off_c, 0, 64, 100
2, 161948, Note_off_c, 0, 67, 100
2, 161952, Note_on_c, 0, 72, 80
2, 161952, Note_on_c, 0, 64, 80
2, 161952, Note_on_c, 0, 60, 80
2, 162044, Note_off_c, 0, 72, 100
2, 162044, Note_off_c, 0, 64, 100
2, 162044, Note_off_c, 0, 60, 100
2, 162048, Note_on_c, 0, 69, 80
2, 162048, Note_on_c, 0, 60, 80
2, 162048, Note_on_c, 0, 65, 80
2, 162428, Note_off_c, 0, 69, 100
2, 162428, Note_off_c, 0, 60, 100
2, 162428, Note_off_c, 0, 65, 100
2, 162816, Note_on_c, 0, 62, 80
2, 162852, Note_off_c, 0, 62, 100
2, 162852, Note_on_c, 0, 60, 80
2, 162912, Note_off_c, 0, 60, 100
2, 162912, Note_on_c, 0, 59, 80
2, 163004, Note_off_c, 0, 59, 100
2, 163008, Note_on_c, 0, 60, 80
2, 163100, Note_off_c, 0, 60, 100
2, 163104, Note_on_c, 0, 65, 80
2, 163196, Note_off_c, 0, 65, 100
2, 163200, Note_on_c, 0, 69, 80
2, 163200, Note_on_c, 0, 60, 80
2, 163292, Note_off_c, 0, 69, 100
2, 163296, Note_on_c, 0, 68, 80
2, 163388, Note_off_c, 0, 68, 100
2, 163392, Note_on_c, 0, 69, 80
2, 163484, Note_off_c, 0, 69, 100
2, 163488, Note_on_c, 0, 68, 80
2, 163580, Note_off_c, 0, 68, 100
2, 163584, Note_on_c, 0, 69, 80
2, 163676, Note_off_c, 0, 69, 100
2, 163680, Note_on_c, 0, 68, 80
2, 163772, Note_off_c, 0, 68, 100
2, 163776, Note_on_c, 0, 69, 80
2, 163868, Note_off_c, 0, 69, 100
2, 163872, Note_on_c, 0, 65, 80
2, 163964, Note_off_c, 0, 60, 100
2, 163964, Note_off_c, 0, 65, 100
2, 163968, Note_on_c, 0, 58, 80
2, 163968, Note_on_c, 0, 69, 80
2, 164004, Note_off_c, 0, 69, 100
2, 164004, Note_on_c, 0, 67, 80
2, 164064, Note_off_c, 0, 67, 100
2, 164064, Note_on_c, 0, 66, 80
2, 164156, Note_off_c, 0, 66, 100
2, 164160, Note_on_c, 0, 67, 80
2, 164252, Note_off_c, 0, 67, 100
2, 164256, Note_on_c, 0, 64, 80
2, 164348, Note_off_c, 0, 58, 100
2, 164348, Note_off_c, 0, 64, 100
2, 164352, Note_on_c, 0, 67, 80
2, 164352, Note_on_c, 0, 57, 80
2, 164388, Note_off_c, 0, 67, 100
2, 164388, Note_on_c, 0, 65, 80
2, 164448, Note_off_c, 0, 65, 100
2, 164448, Note_on_c, 0, 64, 80
2, 164540, Note_off_c, 0, 64, 100
2, 164544, Note_on_c, 0, 65, 80
2, 164636, Note_off_c, 0, 65, 100
2, 164640, Note_on_c, 0, 69, 80
2, 164732, Note_off_c, 0, 69, 100
2, 164736, Note_on_c, 0, 60, 80
2, 164924, Note_off_c, 0, 57, 100
2, 164924, Note_off_c, 0, 60, 100
2, 165120, Note_on_c, 0, 67, 80
2, 165156, Note_off_c, 0, 67, 100
2, 165156, Note_on_c, 0, 65, 80
2, 165216, Note_off_c, 0, 65, 100
2, 165216, Note_on_c, 0, 64, 80
2, 165308, Note_off_c, 0, 64, 100
2, 165312, Note_on_c, 0, 65, 80
2, 165404, Note_off_c, 0, 65, 100
2, 165408, Note_on_c, 0, 69, 80
2, 165500, Note_off_c, 0, 69, 100
2, 165504, Note_on_c, 0, 69, 80
2, 165504, Note_on_c, 0, 65, 80
2, 165504, Note_on_c, 0, 72, 80
2, 165596, Note_off_c, 0, 72, 100
2, 165600, Note_on_c, 0, 74, 80
2, 165692, Note_off_c, 0, 69, 100
2, 165692, Note_off_c, 0, 65, 100
2, 165692, Note_off_c, 0, 74, 100
2, 165696, Note_on_c, 0, 68, 80
2, 165696, Note_on_c, 0, 64, 80
2, 165696, Note_on_c, 0, 72, 80
2, 165788, Note_off_c, 0, 72, 100
2, 165792, Note_on_c, 0, 74, 80
2, 165884, Note_off_c, 0, 68, 100
2, 165884, Note_off_c, 0, 64, 100
2, 165884, Note_off_c, 0, 74, 100
2, 165888, Note_on_c, 0, 69, 80
2, 165888, Note_on_c, 0, 65, 80
2, 165888, Note_on_c, 0, 72, 80
2, 165980, Note_off_c, 0, 72, 100
2, 165984, Note_on_c, 0, 74, 80
2, 166076, Note_off_c, 0, 69, 100
2, 166076, Note_off_c, 0, 65, 100
2, 166076, Note_off_c, 0, 74, 100
2, 166080, Note_on_c, 0, 65, 80
2, 166080, Note_on_c, 0, 62, 80
2, 166080, Note_on_c, 0, 72, 80
2, 166172, Note_off_c, 0, 72, 100
2, 166176, Note_on_c, 0, 74, 80
2, 166268, Note_off_c, 0, 65, 100
2, 166268, Note_off_c, 0, 62, 100
2, 166268, Note_off_c, 0, 74, 100
2, 166272, Note_on_c, 0, 67, 80
2, 166272, Note_on_c, 0, 64, 80
2, 166272, Note_on_c, 0, 70, 80
2, 166364, Note_off_c, 0, 70, 100
2, 166368, Note_on_c, 0, 72, 80
2, 166460, Note_off_c, 0, 67, 100
2, 166460, Note_off_c, 0, 64, 100
2, 166460, Note_off_c, 0, 72, 100
2, 166464, Note_on_c, 0, 64, 80
2, 166464, Note_on_c, 0, 60, 80
2, 166464, Note_on_c, 0, 70, 80
2, 166556, Note_off_c, 0, 70, 100
2, 166560, Note_on_c, 0, 72, 80
2, 166652, Note_off_c, 0, 64, 100
2, 166652, Note_off_c, 0, 60, 100
2, 166652, Note_off_c, 0, 72, 100
2, 166656, Note_on_c, 0, 69, 80
2, 166656, Note_on_c, 0, 65, 80
2, 166656, Note_on_c, 0, 60, 80
2, 167036, Note_off_c, 0, 69, 100
2, 167036, Note_off_c, 0, 65, 100
2, 167036, Note_off_c, 0, 60, 100
2, 167424, Note_on_c, 0, 60, 80
2, 167708, Note_off_c, 0, 60, 100
2, 167712, Note_on_c, 0, 65, 80
2, 167804, Note_off_c, 0, 65, 100
2, 167808, Note_on_c, 0, 69, 80
2, 168572, Note_off_c, 0, 69, 100
2, 168576, Note_on_c, 0, 65, 80
2, 168576, Note_on_c, 0, 60, 80
2, 168860, Note_off_c, 0, 65, 100
2, 168860, Note_off_c, 0, 60, 100
2, 168864, Note_on_c, 0, 69, 80
2, 168864, Note_on_c, 0, 65, 80
2, 168956, Note_off_c, 0, 69, 100
2, 168956, Note_off_c, 0, 65, 100
2, 168960, Note_on_c, 0, 72, 80
2, 168960, Note_on_c, 0, 69, 80
2, 169724, Note_off_c, 0, 72, 100
2, 169724, Note_off_c, 0, 69, 100
2, 169728, Note_on_c, 0, 69, 80
2, 169728, Note_on_c, 0, 65, 80
2, 169728, Note_on_c, 0, 60, 80
2, 170012, Note_off_c, 0, 69, 100
2, 170012, Note_off_c, 0, 65, 100
2, 170012, Note_off_c, 0, 60, 100
2, 170016, Note_on_c, 0, 72, 86
2, 170016, Note_on_c, 0, 69, 86
2, 170016, Note_on_c, 0, 65, 86
2, 170108, Note_off_c, 0, 72, 100
2, 170108, Note_off_c, 0, 69, 100
2, 170108, Note_off_c, 0, 65, 100
2, 170112, Note_on_c, 0, 77, 88
2, 170112, Note_on_c, 0, 72, 88
2, 170112, Note_on_c, 0, 69, 88
2, 170684, Note_off_c, 0, 77, 100
2, 170684, Note_off_c, 0, 72, 100
2, 170684, Note_off_c, 0, 69, 100
2, 170688, Note_on_c, 0, 81, 100
2, 170688, Note_on_c, 0, 77, 100
2, 170688, Note_on_c, 0, 72, 100
2, 170876, Note_off_c, 0, 81, 100
2, 170876, Note_off_c, 0, 77, 100
2, 170876, Note_off_c, 0, 72, 100
2, 170880, Note_on_c, 0, 84, 104
2, 170880, Note_on_c, 0, 81, 104
2, 170880, Note_on_c, 0, 77, 104
2, 171068, Note_off_c, 0, 84, 100
2, 171068, Note_off_c, 0, 81, 100
2, 171068, Note_off_c, 0, 77, 100
2, 171072, Note_on_c, 0, 89, 108
2, 171072, Note_on_c, 0, 84, 108
2, 171072, Note_on_c, 0, 81, 108
2, 171260, Note_off_c, 0, 89, 100
2, 171260, Note_off_c, 0, 84, 100
2, 171260, Note_off_c, 0, 81, 100
2, 171264, Note_on_c, 0, 88, 120
2, 171264, Note_on_c, 0, 85, 120
2, 171264, Note_on_c, 0, 82, 120
2, 171264, Note_on_c, 0, 79, 120
2, 171388, Note_off_c, 0, 88, 100
2, 171388, Note_off_c, 0, 85, 100
2, 171388, Note_off_c, 0, 82, 100
2, 171388, Note_off_c, 0, 79, 100
2, 171392, Note_on_c, 0, 88, 120
2, 171392, Note_on_c, 0, 85, 120
2, 171392, Note_on_c, 0, 82, 120
2, 171392, Note_on_c, 0, 79, 120
2, 171516, Note_off_c, 0, 88, 100
2, 171516, Note_off_c, 0, 85, 100
2, 171516, Note_off_c, 0, 82, 100
2, 171516, Note_off_c, 0, 79, 100
2, 171520, Note_on_c, 0, 88, 120
2, 171520, Note_on_c, 0, 85, 120
2, 171520, Note_on_c, 0, 82, 120
2, 171520, Note_on_c, 0, 79, 120
2, 171644, Note_off_c, 0, 88, 100
2, 171644, Note_off_c, 0, 85, 100
2, 171644, Note_off_c, 0, 82, 100
2, 171644, Note_off_c, 0, 79, 100
2, 171648, Note_on_c, 0, 88, 120
2, 171648, Note_on_c, 0, 85, 120
2, 171648, Note_on_c, 0, 82, 120
2, 171648, Note_on_c, 0, 79, 120
2, 171772, Note_off_c, 0, 88, 100
2, 171772, Note_off_c, 0, 85, 100
2, 171772, Note_off_c, 0, 82, 100
2, 171772, Note_off_c, 0, 79, 100
2, 171776, Note_on_c, 0, 88, 120
2, 171776, Note_on_c, 0, 85, 120
2, 171776, Note_on_c, 0, 82, 120
2, 171776, Note_on_c, 0, 79, 120
2, 171900, Note_off_c, 0, 88, 100
2, 171900, Note_off_c, 0, 85, 100
2, 171900, Note_off_c, 0, 82, 100
2, 171900, Note_off_c, 0, 79, 100
2, 171904, Note_on_c, 0, 88, 120
2, 171904, Note_on_c, 0, 85, 120
2, 171904, Note_on_c, 0, 82, 120
2, 171904, Note_on_c, 0, 79, 120
2, 172028, Note_off_c, 0, 88, 100
2, 172028, Note_off_c, 0, 85, 100
2, 172028, Note_off_c, 0, 82, 100
2, 172028, Note_off_c, 0, 79, 100
2, 172032, Note_on_c, 0, 88, 120
2, 172032, Note_on_c, 0, 85, 120
2, 172032, Note_on_c, 0, 82, 120
2, 172032, Note_on_c, 0, 79, 120
2, 172156, Note_off_c, 0, 88, 100
2, 172156, Note_off_c, 0, 85, 100
2, 172156, Note_off_c, 0, 82, 100
2, 172156, Note_off_c, 0, 79, 100
2, 172160, Note_on_c, 0, 88, 120
2, 172160, Note_on_c, 0, 85, 120
2, 172160, Note_on_c, 0, 82, 120
2, 172160, Note_on_c, 0, 79, 120
2, 172284, Note_off_c, 0, 88, 100
2, 172284, Note_off_c, 0, 85, 100
2, 172284, Note_off_c, 0, 82, 100
2, 172284, Note_off_c, 0, 79, 100
2, 172288, Note_on_c, 0, 88, 120
2, 172288, Note_on_c, 0, 85, 120
2, 172288, Note_on_c, 0, 82, 120
2, 172288, Note_on_c, 0, 79, 120
2, 172412, Note_off_c, 0, 88, 100
2, 172412, Note_off_c, 0, 85, 100
2, 172412, Note_off_c, 0, 82, 100
2, 172412, Note_off_c, 0, 79, 100
2, 172416, Note_on_c, 0, 88, 115
2, 172416, Note_on_c, 0, 85, 115
2, 172416, Note_on_c, 0, 82, 115
2, 172416, Note_on_c, 0, 79, 115
2, 172604, Note_off_c, 0, 88, 100
2, 172604, Note_off_c, 0, 85, 100
2, 172604, Note_off_c, 0, 82, 100
2, 172604, Note_off_c, 0, 79, 100
2, 172608, Note_on_c, 0, 88, 111
2, 172608, Note_on_c, 0, 85, 111
2, 172608, Note_on_c, 0, 82, 111
2, 172608, Note_on_c, 0, 79, 111
2, 172796, Note_off_c, 0, 88, 100
2, 172796, Note_off_c, 0, 85, 100
2, 172796, Note_off_c, 0, 82, 100
2, 172796, Note_off_c, 0, 79, 100
2, 172800, Note_on_c, 0, 88, 107
2, 172800, Note_on_c, 0, 85, 107
2, 172800, Note_on_c, 0, 82, 107
2, 172800, Note_on_c, 0, 79, 107
2, 172988, Note_off_c, 0, 88, 100
2, 172988, Note_off_c, 0, 85, 100
2, 172988, Note_off_c, 0, 82, 100
2, 172988, Note_off_c, 0, 79, 100
2, 172992, Note_on_c, 0, 88, 103
2, 172992, Note_on_c, 0, 85, 103
2, 172992, Note_on_c, 0, 82, 103
2, 172992, Note_on_c, 0, 79, 103
2, 173180, Note_off_c, 0, 88, 100
2, 173180, Note_off_c, 0, 85, 100
2, 173180, Note_off_c, 0, 82, 100
2, 173180, Note_off_c, 0, 79, 100
2, 173184, Note_on_c, 0, 88, 99
2, 173184, Note_on_c, 0, 85, 99
2, 173184, Note_on_c, 0, 82, 99
2, 173184, Note_on_c, 0, 79, 99
2, 173372, Note_off_c, 0, 88, 100
2, 173372, Note_off_c, 0, 85, 100
2, 173372, Note_off_c, 0, 82, 100
2, 173372, Note_off_c, 0, 79, 100
2, 173376, Note_on_c, 0, 88, 95
2, 173376, Note_on_c, 0, 85, 95
2, 173376, Note_on_c, 0, 82, 95
2, 173376, Note_on_c, 0, 79, 95
2, 173564, Note_off_c, 0, 88, 100
2, 173564, Note_off_c, 0, 85, 100
2, 173564, Note_off_c, 0, 82, 100
2, 173564, Note_off_c, 0, 79, 100
2, 173568, Note_on_c, 0, 88, 91
2, 173568, Note_on_c, 0, 84, 91
2, 173568, Note_on_c, 0, 82, 91
2, 173568, Note_on_c, 0, 79, 91
2, 173756, Note_off_c, 0, 88, 100
2, 173756, Note_off_c, 0, 84, 100
2, 173756, Note_off_c, 0, 82, 100
2, 173756, Note_off_c, 0, 79, 100
2, 173760, Note_on_c, 0, 88, 87
2, 173760, Note_on_c, 0, 84, 87
2, 173760, Note_on_c, 0, 82, 87
2, 173760, Note_on_c, 0, 79, 87
2, 173948, Note_off_c, 0, 88, 100
2, 173948, Note_off_c, 0, 84, 100
2, 173948, Note_off_c, 0, 82, 100
2, 173948, Note_off_c, 0, 79, 100
2, 173952, Note_on_c, 0, 88, 83
2, 173952, Note_on_c, 0, 84, 83
2, 173952, Note_on_c, 0, 82, 83
2, 173952, Note_on_c, 0, 79, 83
2, 174140, Note_off_c, 0, 88, 100
2, 174140, Note_off_c, 0, 84, 100
2, 174140, Note_off_c, 0, 82, 100
2, 174140, Note_off_c, 0, 79, 100
2, 174144, Note_on_c, 0, 88, 79
2, 174144, Note_on_c, 0, 84, 79
2, 174144, Note_on_c, 0, 82, 79
2, 174144, Note_on_c, 0, 79, 79
2, 174332, Note_off_c, 0, 88, 100
2, 174332, Note_off_c, 0, 84, 100
2, 174332, Note_off_c, 0, 82, 100
2, 174332, Note_off_c, 0, 79, 100
2, 174336, Note_on_c, 0, 88, 75
2, 174336, Note_on_c, 0, 84, 75
2, 174336, Note_on_c, 0, 82, 75
2, 174336, Note_on_c, 0, 79, 75
2, 174524, Note_off_c, 0, 88, 100
2, 174524, Note_off_c, 0, 84, 100
2, 174524, Note_off_c, 0, 82, 100
2, 174524, Note_off_c, 0, 79, 100
2, 174528, Note_on_c, 0, 88, 71
2, 174528, Note_on_c, 0, 84, 71
2, 174528, Note_on_c, 0, 82, 71
2, 174528, Note_on_c, 0, 79, 71
2, 174716, Note_off_c, 0, 88, 100
2, 174716, Note_off_c, 0, 84, 100
2, 174716, Note_off_c, 0, 82, 100
2, 174716, Note_off_c, 0, 79, 100
2, 174720, Note_on_c, 0, 89, 70
2, 174720, Note_on_c, 0, 84, 70
2, 174720, Note_on_c, 0, 81, 70
2, 174720, Note_on_c, 0, 77, 70
2, 175100, Note_off_c, 0, 89, 100
2, 175100, Note_off_c, 0, 84, 100
2, 175100, Note_off_c, 0, 81, 100
2, 175100, Note_off_c, 0, 77, 100
2, 175488, Note_on_c, 0, 72, 70
2, 175488, Note_on_c, 0, 67, 70
2, 175488, Note_on_c, 0, 64, 70
2, 175488, Note_on_c, 0, 60, 70
2, 175868, Note_off_c, 0, 72, 100
2, 175868, Note_off_c, 0, 67, 100
2, 175868, Note_off_c, 0, 64, 100
2, 175868, Note_off_c, 0, 60, 100
2, 175872, Note_on_c, 0, 69, 70
2, 175872, Note_on_c, 0, 65, 70
2, 175872, Note_on_c, 0, 60, 70
2, 176252, Note_off_c, 0, 69, 100
2, 176252, Note_off_c, 0, 65, 100
2, 176252, Note_off_c, 0, 60, 100
2, 176640, Note_on_c, 0, 60, 70
2, 176640, Note_on_c, 0, 55, 70
2, 176640, Note_on_c, 0, 52, 70
2, 176640, Note_on_c, 0, 48, 70
2, 177020, Note_off_c, 0, 60, 100
2, 177020, Note_off_c, 0, 55, 100
2, 177020, Note_off_c, 0, 52, 100
2, 177020, Note_off_c, 0, 48, 100
2, 177024, Note_on_c, 0, 60, 70
2, 177024, Note_on_c, 0, 52, 70
2, 177024, Note_on_c, 0, 48, 70
2, 177024, Note_on_c, 0, 55, 70
2, 178172, Note_off_c, 0, 60, 100
2, 178172, Note_off_c, 0, 52, 100
2, 178172, Note_off_c, 0, 48, 100
2, 178172, Note_off_c, 0, 55, 100
2, 178176, Note_on_c, 0, 57, 70
2, 178176, Note_on_c, 0, 53, 70
2, 178176, Note_on_c, 0, 48, 70
2, 178748, Note_off_c, 0, 57, 100
2, 178748, Note_off_c, 0, 53, 100
2, 178748, Note_off_c, 0, 48, 100
2, 179712, Control_c, 0, 7, 0
2, 180096, Note_on_c, 0, 53, 1
2, 180284, Note_off_c, 0, 53, 100
2, 180284, End_track
3, 0, Start_track
3, 0, Title_t, "Left"
3, 0, Control_c, 1, 0, 0
3, 0, Program_c, 1, 0
3, 0, Control_c, 1, 7, 100
3, 0, Control_c, 1, 10, 58
3, 0, Control_c, 1, 91, 127
3, 0, Key_signature, -1, "major"
3, 384, Note_on_c, 1, 41, 80
3, 384, Note_on_c, 1, 29, 80
3, 764, Note_off_c, 1, 29, 100
3, 768, Note_on_c, 1, 31, 80
3, 956, Note_off_c, 1, 41, 100
3, 956, Note_off_c, 1, 31, 100
3, 1536, Note_on_c, 1, 53, 80
3, 1536, Note_on_c, 1, 45, 80
3, 1916, Note_off_c, 1, 45, 100
3, 1920, Note_on_c, 1, 46, 80
3, 2108, Note_off_c, 1, 53, 100
3, 2108, Note_off_c, 1, 46, 100
3, 2688, Note_on_c, 1, 60, 80
3, 2688, Note_on_c, 1, 65, 80
3, 2972, Note_off_c, 1, 65, 100
3, 2976, Note_on_c, 1, 69, 80
3, 3068, Note_off_c, 1, 69, 100
3, 3072, Note_on_c, 1, 72, 80
3, 3356, Note_off_c, 1, 72, 100
3, 3360, Note_on_c, 1, 69, 80
3, 3452, Note_off_c, 1, 60, 100
3, 3452, Note_off_c, 1, 69, 100
3, 3456, Note_on_c, 1, 60, 80
3, 3456, Note_on_c, 1, 70, 80
3, 3740, Note_off_c, 1, 70, 100
3, 3744, Note_on_c, 1, 67, 80
3, 3836, Note_off_c, 1, 60, 100
3, 3836, Note_off_c, 1, 67, 100
3, 3840, Note_on_c, 1, 65, 80
3, 3840, Note_on_c, 1, 69, 80
3, 4220, Note_off_c, 1, 65, 100
3, 4220, Note_off_c, 1, 69, 100
3, 4992, Note_on_c, 1, 41, 80
3, 4992, Note_on_c, 1, 29, 80
3, 5372, Note_off_c, 1, 29, 100
3, 5376, Note_on_c, 1, 31, 80
3, 5564, Note_off_c, 1, 41, 100
3, 5564, Note_off_c, 1, 31, 100
3, 6144, Note_on_c, 1, 53, 80
3, 6144, Note_on_c, 1, 45, 80
3, 6524, Note_off_c, 1, 45, 100
3, 6528, Note_on_c, 1, 46, 80
3, 6716, Note_off_c, 1, 53, 100
3, 6716, Note_off_c, 1, 46, 100
3, 7296, Note_on_c, 1, 60, 80
3, 7296, Note_on_c, 1, 65, 80
3, 7580, Note_off_c, 1, 65, 100
3, 7584, Note_on_c, 1, 69, 80
3, 7676, Note_off_c, 1, 69, 100
3, 7680, Note_on_c, 1, 72, 80
3, 7964, Note_off_c, 1, 72, 100
3, 7968, Note_on_c, 1, 69, 80
3, 8060, Note_off_c, 1, 60, 100
3, 8060, Note_off_c, 1, 69, 100
3, 8064, Note_on_c, 1, 60, 80
3, 8064, Note_on_c, 1, 70, 80
3, 8348, Note_off_c, 1, 70, 100
3, 8352, Note_on_c, 1, 67, 80
3, 8444, Note_off_c, 1, 60, 100
3, 8444, Note_off_c, 1, 67, 100
3, 8448, Note_on_c, 1, 65, 80
3, 8448, Note_on_c, 1, 69, 80
3, 8828, Note_off_c, 1, 65, 100
3, 8828, Note_off_c, 1, 69, 100
3, 9600, Note_on_c, 1, 41, 80
3, 9984, Note_on_c, 1, 46, 80
3, 10364, Note_off_c, 1, 46, 100
3, 10368, Note_on_c, 1, 52, 80
3, 10368, Note_on_c, 1, 43, 80
3, 10748, Note_off_c, 1, 41, 100
3, 10748, Note_off_c, 1, 52, 100
3, 10748, Note_off_c, 1, 43, 100
3, 10752, Note_on_c, 1, 45, 80
3, 10752, Note_on_c, 1, 41, 80
3, 11136, Note_on_c, 1, 48, 80
3, 11324, Note_off_c, 1, 45, 100
3, 11324, Note_off_c, 1, 41, 100
3, 11324, Note_off_c, 1, 48, 100
3, 11904, Note_on_c, 1, 53, 80
3, 12288, Note_on_c, 1, 58, 80
3, 12668, Note_off_c, 1, 58, 100
3, 12672, Note_on_c, 1, 64, 80
3, 12672, Note_on_c, 1, 55, 80
3, 13052, Note_off_c, 1, 53, 100
3, 13052, Note_off_c, 1, 64, 100
3, 13052, Note_off_c, 1, 55, 100
3, 13056, Note_on_c, 1, 57, 80
3, 13056, Note_on_c, 1, 53, 80
3, 13440, Note_on_c, 1, 60, 80
3, 13628, Note_off_c, 1, 57, 100
3, 13628, Note_off_c, 1, 53, 100
3, 13628, Note_off_c, 1, 60, 100
3, 14592, Note_on_c, 1, 70, 83
3, 14592, Note_on_c, 1, 65, 83
3, 14972, Note_off_c, 1, 65, 100
3, 14976, Note_on_c, 1, 67, 86
3, 15260, Note_off_c, 1, 70, 100
3, 15260, Note_off_c, 1, 67, 100
3, 15264, Note_on_c, 1, 67, 89
3, 15264, Note_on_c, 1, 65, 89
3, 15356, Note_off_c, 1, 67, 100
3, 15356, Note_off_c, 1, 65, 100
3, 15360, Note_on_c, 1, 67, 90
3, 15360, Note_on_c, 1, 64, 90
3, 15644, Note_off_c, 1, 67, 100
3, 15644, Note_off_c, 1, 64, 100
3, 15648, Note_on_c, 1, 69, 93
3, 15648, Note_on_c, 1, 65, 93
3, 15740, Note_off_c, 1, 69, 100
3, 15740, Note_off_c, 1, 65, 100
3, 15744, Note_on_c, 1, 65, 93
3, 15744, Note_on_c, 1, 62, 93
3, 16124, Note_off_c, 1, 65, 100
3, 16124, Note_off_c, 1, 62, 100
3, 16128, Note_on_c, 1, 67, 97
3, 16128, Note_on_c, 1, 64, 97
3, 16412, Note_off_c, 1, 67, 100
3, 16412, Note_off_c, 1, 64, 100
3, 16416, Note_on_c, 1, 65, 99
3, 16416, Note_on_c, 1, 62, 99
3, 16508, Note_off_c, 1, 65, 100
3, 16508, Note_off_c, 1, 62, 100
3, 16512, Note_on_c, 1, 64, 100
3, 16512, Note_on_c, 1, 61, 100
3, 16796, Note_off_c, 1, 64, 100
3, 16796, Note_off_c, 1, 61, 100
3, 16800, Note_on_c, 1, 65, 100
3, 16800, Note_on_c, 1, 62, 100
3, 16892, Note_off_c, 1, 65, 100
3, 16892, Note_off_c, 1, 62, 100
3, 16896, Note_on_c, 1, 62, 100
3, 16896, Note_on_c, 1, 58, 100
3, 17564, Note_off_c, 1, 62, 100
3, 17568, Note_on_c, 1, 67, 100
3, 17660, Note_off_c, 1, 58, 100
3, 17660, Note_off_c, 1, 67, 100
3, 17664, Note_on_c, 1, 60, 90
3, 17664, Note_on_c, 1, 67, 90
3, 17948, Note_off_c, 1, 67, 100
3, 17952, Note_on_c, 1, 64, 83
3, 18044, Note_off_c, 1, 60, 100
3, 18044, Note_off_c, 1, 64, 100
3, 18048, Note_on_c, 1, 65, 81
3, 18048, Note_on_c, 1, 53, 81
3, 18236, Note_off_c, 1, 65, 100
3, 18236, Note_off_c, 1, 53, 100
3, 18816, Note_on_c, 1, 41, 80
3, 19200, Note_on_c, 1, 46, 80
3, 19580, Note_off_c, 1, 46, 100
3, 19584, Note_on_c, 1, 52, 80
3, 19584, Note_on_c, 1, 43, 80
3, 19964, Note_off_c, 1, 41, 100
3, 19964, Note_off_c, 1, 52, 100
3, 19964, Note_off_c, 1, 43, 100
3, 19968, Note_on_c, 1, 45, 80
3, 19968, Note_on_c, 1, 41, 80
3, 20352, Note_on_c, 1, 48, 80
3, 20540, Note_off_c, 1, 45, 100
3, 20540, Note_off_c, 1, 41, 100
3, 20540, Note_off_c, 1, 48, 100
3, 21120, Note_on_c, 1, 53, 80
3, 21504, Note_on_c, 1, 58, 80
3, 21884, Note_off_c, 1, 58, 100
3, 21888, Note_on_c, 1, 64, 80
3, 21888, Note_on_c, 1, 55, 80
3, 22268, Note_off_c, 1, 53, 100
3, 22268, Note_off_c, 1, 64, 100
3, 22268, Note_off_c, 1, 55, 100
3, 22272, Note_on_c, 1, 57, 80
3, 22272, Note_on_c, 1, 53, 80
3, 22656, Note_on_c, 1, 60, 80
3, 22844, Note_off_c, 1, 57, 100
3, 22844, Note_off_c, 1, 53, 100
3, 22844, Note_off_c, 1, 60, 100
3, 23808, Note_on_c, 1, 70, 84
3, 23808, Note_on_c, 1, 65, 84
3, 24188, Note_off_c, 1, 65, 100
3, 24192, Note_on_c, 1, 67, 88
3, 24476, Note_off_c, 1, 70, 100
3, 24476, Note_off_c, 1, 67, 100
3, 24480, Note_on_c, 1, 67, 92
3, 24480, Note_on_c, 1, 65, 92
3, 24572, Note_off_c, 1, 67, 100
3, 24572, Note_off_c, 1, 65, 100
3, 24576, Note_on_c, 1, 67, 93
3, 24576, Note_on_c, 1, 64, 93
3, 24860, Note_off_c, 1, 67, 100
3, 24860, Note_off_c, 1, 64, 100
3, 24864, Note_on_c, 1, 69, 96
3, 24864, Note_on_c, 1, 65, 96
3, 24956, Note_off_c, 1, 69, 100
3, 24956, Note_off_c, 1, 65, 100
3, 24960, Note_on_c, 1, 65, 97
3, 24960, Note_on_c, 1, 62, 97
3, 25340, Note_off_c, 1, 65, 100
3, 25340, Note_off_c, 1, 62, 100
3, 25344, Note_on_c, 1, 67, 102
3, 25344, Note_on_c, 1, 64, 102
3, 25628, Note_off_c, 1, 67, 100
3, 25628, Note_off_c, 1, 64, 100
3, 25632, Note_on_c, 1, 65, 105
3, 25632, Note_on_c, 1, 62, 105
3, 25724, Note_off_c, 1, 65, 100
3, 25724, Note_off_c, 1, 62, 100
3, 25728, Note_on_c, 1, 64, 106
3, 25728, Note_on_c, 1, 61, 106
3, 26012, Note_off_c, 1, 64, 100
3, 26012, Note_off_c, 1, 61, 100
3, 26016, Note_on_c, 1, 65, 109
3, 26016, Note_on_c, 1, 62, 109
3, 26108, Note_off_c, 1, 65, 100
3, 26108, Note_off_c, 1, 62, 100
3, 26112, Note_on_c, 1, 62, 110
3, 26112, Note_on_c, 1, 58, 110
3, 26780, Note_off_c, 1, 62, 100
3, 26784, Note_on_c, 1, 67, 91
3, 26876, Note_off_c, 1, 58, 100
3, 26876, Note_off_c, 1, 67, 100
3, 26880, Note_on_c, 1, 60, 80
3, 26880, Note_on_c, 1, 67, 80
3, 27164, Note_off_c, 1, 67, 100
3, 27168, Note_on_c, 1, 64, 80
3, 27260, Note_off_c, 1, 60, 100
3, 27260, Note_off_c, 1, 64, 100
3, 27264, Note_on_c, 1, 65, 80
3, 27264, Note_on_c, 1, 53, 80
3, 27452, Note_off_c, 1, 65, 100
3, 27452, Note_off_c, 1, 53, 100
3, 27648, Note_on_c, 1, 36, 110
3, 27648, Note_on_c, 1, 48, 110
3, 27772, Note_off_c, 1, 36, 100
3, 27772, Note_off_c, 1, 48, 100
3, 27776, Note_on_c, 1, 48, 110
3, 27776, Note_on_c, 1, 60, 110
3, 27900, Note_off_c, 1, 48, 100
3, 27900, Note_off_c, 1, 60, 100
3, 27904, Note_on_c, 1, 47, 110
3, 27904, Note_on_c, 1, 59, 110
3, 28028, Note_off_c, 1, 47, 100
3, 28028, Note_off_c, 1, 59, 100
3, 28032, Note_on_c, 1, 48, 110
3, 28032, Note_on_c, 1, 60, 110
3, 28156, Note_off_c, 1, 48, 100
3, 28156, Note_off_c, 1, 60, 100
3, 28160, Note_on_c, 1, 46, 110
3, 28160, Note_on_c, 1, 58, 110
3, 28284, Note_off_c, 1, 46, 100
3, 28284, Note_off_c, 1, 58, 100
3, 28288, Note_on_c, 1, 45, 110
3, 28288, Note_on_c, 1, 57, 110
3, 28412, Note_off_c, 1, 45, 100
3, 28412, Note_off_c, 1, 57, 100
3, 28416, Note_on_c, 1, 43, 110
3, 28416, Note_on_c, 1, 55, 110
3, 28540, Note_off_c, 1, 43, 100
3, 28540, Note_off_c, 1, 55, 100
3, 28544, Note_on_c, 1, 45, 110
3, 28544, Note_on_c, 1, 57, 110
3, 28668, Note_off_c, 1, 45, 100
3, 28668, Note_off_c, 1, 57, 100
3, 28672, Note_on_c, 1, 46, 110
3, 28672, Note_on_c, 1, 58, 110
3, 28796, Note_off_c, 1, 46, 100
3, 28796, Note_off_c, 1, 58, 100
3, 28800, Note_on_c, 1, 45, 110
3, 28800, Note_on_c, 1, 57, 110
3, 28924, Note_off_c, 1, 45, 100
3, 28924, Note_off_c, 1, 57, 100
3, 28928, Note_on_c, 1, 45, 110
3, 28928, Note_on_c, 1, 57, 110
3, 29052, Note_off_c, 1, 45, 100
3, 29052, Note_off_c, 1, 57, 100
3, 29056, Note_on_c, 1, 44, 110
3, 29056, Note_on_c, 1, 56, 110
3, 29180, Note_off_c, 1, 44, 100
3, 29180, Note_off_c, 1, 56, 100
3, 29184, Note_on_c, 1, 45, 110
3, 29184, Note_on_c, 1, 57, 110
3, 29308, Note_off_c, 1, 45, 100
3, 29308, Note_off_c, 1, 57, 100
3, 29312, Note_on_c, 1, 46, 110
3, 29312, Note_on_c, 1, 58, 110
3, 29436, Note_off_c, 1, 46, 100
3, 29436, Note_off_c, 1, 58, 100
3, 29440, Note_on_c, 1, 48, 110
3, 29440, Note_on_c, 1, 60, 110
3, 29564, Note_off_c, 1, 48, 100
3, 29564, Note_off_c, 1, 60, 100
3, 29568, Note_on_c, 1, 46, 110
3, 29568, Note_on_c, 1, 58, 110
3, 29692, Note_off_c, 1, 46, 100
3, 29692, Note_off_c, 1, 58, 100
3, 29696, Note_on_c, 1, 45, 110
3, 29696, Note_on_c, 1, 57, 110
3, 29820, Note_off_c, 1, 45, 100
3, 29820, Note_off_c, 1, 57, 100
3, 29824, Note_on_c, 1, 43, 110
3, 29824, Note_on_c, 1, 55, 110
3, 29948, Note_off_c, 1, 43, 100
3, 29948, Note_off_c, 1, 55, 100
3, 29952, Note_on_c, 1, 41, 110
3, 29952, Note_on_c, 1, 53, 110
3, 30076, Note_off_c, 1, 41, 100
3, 30076, Note_off_c, 1, 53, 100
3, 30080, Note_on_c, 1, 43, 110
3, 30080, Note_on_c, 1, 55, 110
3, 30204, Note_off_c, 1, 43, 100
3, 30204, Note_off_c, 1, 55, 100
3, 30208, Note_on_c, 1, 45, 110
3, 30208, Note_on_c, 1, 57, 110
3, 30332, Note_off_c, 1, 45, 100
3, 30332, Note_off_c, 1, 57, 100
3, 30336, Note_on_c, 1, 43, 110
3, 30336, Note_on_c, 1, 55, 110
3, 30460, Note_off_c, 1, 43, 100
3, 30460, Note_off_c, 1, 55, 100
3, 30464, Note_on_c, 1, 41, 110
3, 30464, Note_on_c, 1, 53, 110
3, 30588, Note_off_c, 1, 41, 100
3, 30588, Note_off_c, 1, 53, 100
3, 30592, Note_on_c, 1, 40, 110
3, 30592, Note_on_c, 1, 52, 110
3, 30716, Note_off_c, 1, 40, 100
3, 30716, Note_off_c, 1, 52, 100
3, 30720, Note_on_c, 1, 38, 110
3, 30720, Note_on_c, 1, 50, 110
3, 30844, Note_off_c, 1, 38, 100
3, 30844, Note_off_c, 1, 50, 100
3, 30848, Note_on_c, 1, 40, 110
3, 30848, Note_on_c, 1, 52, 110
3, 30972, Note_off_c, 1, 40, 100
3, 30972, Note_off_c, 1, 52, 100
3, 30976, Note_on_c, 1, 41, 110
3, 30976, Note_on_c, 1, 53, 110
3, 31100, Note_off_c, 1, 41, 100
3, 31100, Note_off_c, 1, 53, 100
3, 31104, Note_on_c, 1, 40, 110
3, 31104, Note_on_c, 1, 52, 110
3, 31228, Note_off_c, 1, 40, 100
3, 31228, Note_off_c, 1, 52, 100
3, 31232, Note_on_c, 1, 38, 110
3, 31232, Note_on_c, 1, 50, 110
3, 31356, Note_off_c, 1, 38, 100
3, 31356, Note_off_c, 1, 50, 100
3, 31360, Note_on_c, 1, 36, 110
3, 31360, Note_on_c, 1, 48, 110
3, 31484, Note_off_c, 1, 36, 100
3, 31484, Note_off_c, 1, 48, 100
3, 31488, Note_on_c, 1, 34, 110
3, 31488, Note_on_c, 1, 46, 110
3, 31612, Note_off_c, 1, 34, 100
3, 31612, Note_off_c, 1, 46, 100
3, 31616, Note_on_c, 1, 33, 110
3, 31616, Note_on_c, 1, 45, 110
3, 31740, Note_off_c, 1, 33, 100
3, 31740, Note_off_c, 1, 45, 100
3, 31744, Note_on_c, 1, 34, 110
3, 31744, Note_on_c, 1, 46, 110
3, 31868, Note_off_c, 1, 34, 100
3, 31868, Note_off_c, 1, 46, 100
3, 31872, Note_on_c, 1, 35, 110
3, 31872, Note_on_c, 1, 47, 110
3, 31996, Note_off_c, 1, 35, 100
3, 31996, Note_off_c, 1, 47, 100
3, 32000, Note_on_c, 1, 33, 110
3, 32000, Note_on_c, 1, 45, 110
3, 32124, Note_off_c, 1, 33, 100
3, 32124, Note_off_c, 1, 45, 100
3, 32128, Note_on_c, 1, 35, 110
3, 32128, Note_on_c, 1, 47, 110
3, 32252, Note_off_c, 1, 35, 100
3, 32252, Note_off_c, 1, 47, 100
3, 32256, Note_on_c, 1, 36, 110
3, 32256, Note_on_c, 1, 48, 110
3, 32444, Note_off_c, 1, 36, 100
3, 32444, Note_off_c, 1, 48, 100
3, 33408, Note_on_c, 1, 48, 110
3, 33532, Note_off_c, 1, 48, 100
3, 33536, Note_on_c, 1, 60, 110
3, 33660, Note_off_c, 1, 60, 100
3, 33664, Note_on_c, 1, 60, 110
3, 33664, Note_on_c, 1, 59, 110
3, 33788, Note_off_c, 1, 60, 100
3, 33788, Note_off_c, 1, 59, 100
3, 33792, Note_on_c, 1, 60, 110
3, 33916, Note_off_c, 1, 60, 100
3, 33920, Note_on_c, 1, 60, 110
3, 33920, Note_on_c, 1, 58, 110
3, 34044, Note_off_c, 1, 60, 100
3, 34044, Note_off_c, 1, 58, 100
3, 34048, Note_on_c, 1, 60, 110
3, 34048, Note_on_c, 1, 57, 110
3, 34172, Note_off_c, 1, 60, 100
3, 34172, Note_off_c, 1, 57, 100
3, 34176, Note_on_c, 1, 60, 110
3, 34176, Note_on_c, 1, 58, 110
3, 34300, Note_off_c, 1, 60, 100
3, 34300, Note_off_c, 1, 58, 100
3, 34304, Note_on_c, 1, 60, 110
3, 34304, Note_on_c, 1, 57, 110
3, 34428, Note_off_c, 1, 60, 100
3, 34428, Note_off_c, 1, 57, 100
3, 34432, Note_on_c, 1, 60, 110
3, 34432, Note_on_c, 1, 55, 110
3, 34556, Note_off_c, 1, 60, 100
3, 34556, Note_off_c, 1, 55, 100
3, 34560, Note_on_c, 1, 60, 110
3, 34560, Note_on_c, 1, 57, 110
3, 34684, Note_off_c, 1, 60, 100
3, 34684, Note_off_c, 1, 57, 100
3, 34688, Note_on_c, 1, 60, 110
3, 34688, Note_on_c, 1, 55, 110
3, 34812, Note_off_c, 1, 60, 100
3, 34812, Note_off_c, 1, 55, 100
3, 34816, Note_on_c, 1, 60, 110
3, 34816, Note_on_c, 1, 53, 110
3, 34940, Note_off_c, 1, 60, 100
3, 34940, Note_off_c, 1, 53, 100
3, 34944, Note_on_c, 1, 57, 110
3, 34944, Note_on_c, 1, 55, 110
3, 35068, Note_off_c, 1, 57, 100
3, 35068, Note_off_c, 1, 55, 100
3, 35072, Note_on_c, 1, 57, 110
3, 35072, Note_on_c, 1, 53, 110
3, 35196, Note_off_c, 1, 57, 100
3, 35196, Note_off_c, 1, 53, 100
3, 35200, Note_on_c, 1, 57, 110
3, 35200, Note_on_c, 1, 52, 110
3, 35324, Note_off_c, 1, 57, 100
3, 35324, Note_off_c, 1, 52, 100
3, 35328, Note_on_c, 1, 57, 110
3, 35328, Note_on_c, 1, 53, 110
3, 35452, Note_off_c, 1, 57, 100
3, 35452, Note_off_c, 1, 53, 100
3, 35456, Note_on_c, 1, 57, 110
3, 35456, Note_on_c, 1, 52, 110
3, 35580, Note_off_c, 1, 57, 100
3, 35580, Note_off_c, 1, 52, 100
3, 35584, Note_on_c, 1, 57, 110
3, 35584, Note_on_c, 1, 50, 110
3, 35708, Note_off_c, 1, 57, 100
3, 35708, Note_off_c, 1, 50, 100
3, 35712, Note_on_c, 1, 55, 110
3, 35712, Note_on_c, 1, 53, 110
3, 35836, Note_off_c, 1, 55, 100
3, 35836, Note_off_c, 1, 53, 100
3, 35840, Note_on_c, 1, 55, 110
3, 35840, Note_on_c, 1, 52, 110
3, 35964, Note_off_c, 1, 55, 100
3, 35964, Note_off_c, 1, 52, 100
3, 35968, Note_on_c, 1, 55, 110
3, 35968, Note_on_c, 1, 50, 110
3, 36092, Note_off_c, 1, 55, 100
3, 36092, Note_off_c, 1, 50, 100
3, 36096, Note_on_c, 1, 55, 110
3, 36096, Note_on_c, 1, 52, 110
3, 36220, Note_off_c, 1, 55, 100
3, 36220, Note_off_c, 1, 52, 100
3, 36224, Note_on_c, 1, 55, 110
3, 36224, Note_on_c, 1, 50, 110
3, 36348, Note_off_c, 1, 55, 100
3, 36348, Note_off_c, 1, 50, 100
3, 36352, Note_on_c, 1, 48, 110
3, 36352, Note_on_c, 1, 55, 110
3, 36476, Note_off_c, 1, 48, 100
3, 36476, Note_off_c, 1, 55, 100
3, 36480, Note_on_c, 1, 57, 110
3, 36480, Note_on_c, 1, 55, 110
3, 36604, Note_off_c, 1, 57, 100
3, 36604, Note_off_c, 1, 55, 100
3, 36608, Note_on_c, 1, 57, 110
3, 36608, Note_on_c, 1, 53, 110
3, 36732, Note_off_c, 1, 57, 100
3, 36732, Note_off_c, 1, 53, 100
3, 36736, Note_on_c, 1, 57, 110
3, 36736, Note_on_c, 1, 52, 110
3, 36860, Note_off_c, 1, 57, 100
3, 36860, Note_off_c, 1, 52, 100
3, 36864, Note_on_c, 1, 57, 110
3, 36864, Note_on_c, 1, 53, 110
3, 36988, Note_off_c, 1, 57, 100
3, 36988, Note_off_c, 1, 53, 100
3, 36992, Note_on_c, 1, 57, 110
3, 36992, Note_on_c, 1, 52, 110
3, 37116, Note_off_c, 1, 57, 100
3, 37116, Note_off_c, 1, 52, 100
3, 37120, Note_on_c, 1, 57, 110
3, 37120, Note_on_c, 1, 50, 110
3, 37244, Note_off_c, 1, 57, 100
3, 37244, Note_off_c, 1, 50, 100
3, 37248, Note_on_c, 1, 55, 110
3, 37248, Note_on_c, 1, 53, 110
3, 37372, Note_off_c, 1, 55, 100
3, 37372, Note_off_c, 1, 53, 100
3, 37376, Note_on_c, 1, 55, 110
3, 37376, Note_on_c, 1, 52, 110
3, 37500, Note_off_c, 1, 55, 100
3, 37500, Note_off_c, 1, 52, 100
3, 37504, Note_on_c, 1, 55, 110
3, 37504, Note_on_c, 1, 50, 110
3, 37628, Note_off_c, 1, 55, 100
3, 37628, Note_off_c, 1, 50, 100
3, 37632, Note_on_c, 1, 55, 110
3, 37632, Note_on_c, 1, 52, 110
3, 37756, Note_off_c, 1, 55, 100
3, 37756, Note_off_c, 1, 52, 100
3, 37760, Note_on_c, 1, 55, 110
3, 37760, Note_on_c, 1, 50, 110
3, 37884, Note_off_c, 1, 55, 100
3, 37884, Note_off_c, 1, 50, 100
3, 37888, Note_on_c, 1, 48, 110
3, 37888, Note_on_c, 1, 55, 110
3, 38012, Note_off_c, 1, 48, 100
3, 38012, Note_off_c, 1, 55, 100
3, 38016, Note_on_c, 1, 52, 110
3, 38140, Note_off_c, 1, 52, 100
3, 38144, Note_on_c, 1, 50, 110
3, 38268, Note_off_c, 1, 50, 100
3, 38272, Note_on_c, 1, 48, 110
3, 38396, Note_off_c, 1, 48, 100
3, 38400, Note_on_c, 1, 47, 110
3, 38524, Note_off_c, 1, 47, 100
3, 38528, Note_on_c, 1, 45, 110
3, 38652, Note_off_c, 1, 45, 100
3, 38656, Note_on_c, 1, 43, 110
3, 38780, Note_off_c, 1, 43, 100
3, 38784, Note_on_c, 1, 41, 110
3, 38908, Note_off_c, 1, 41, 100
3, 38912, Note_on_c, 1, 40, 110
3, 39036, Note_off_c, 1, 40, 100
3, 39040, Note_on_c, 1, 38, 110
3, 39164, Note_off_c, 1, 38, 100
3, 39168, Note_on_c, 1, 43, 110
3, 39168, Note_on_c, 1, 36, 110
3, 39292, Note_off_c, 1, 43, 100
3, 39292, Note_off_c, 1, 36, 100
3, 39296, Note_on_c, 1, 43, 110
3, 39296, Note_on_c, 1, 38, 110
3, 39420, Note_off_c, 1, 43, 100
3, 39420, Note_off_c, 1, 38, 100
3, 39424, Note_on_c, 1, 43, 110
3, 39424, Note_on_c, 1, 40, 110
3, 39548, Note_off_c, 1, 43, 100
3, 39548, Note_off_c, 1, 40, 100
3, 39552, Note_on_c, 1, 43, 110
3, 39552, Note_on_c, 1, 41, 110
3, 39676, Note_off_c, 1, 43, 100
3, 39676, Note_off_c, 1, 41, 100
3, 39680, Note_on_c, 1, 43, 110
3, 39680, Note_on_c, 1, 40, 110
3, 39804, Note_off_c, 1, 43, 100
3, 39804, Note_off_c, 1, 40, 100
3, 39808, Note_on_c, 1, 43, 110
3, 39808, Note_on_c, 1, 38, 110
3, 39932, Note_off_c, 1, 43, 100
3, 39932, Note_off_c, 1, 38, 100
3, 39936, Note_on_c, 1, 43, 110
3, 39936, Note_on_c, 1, 36, 110
3, 40060, Note_off_c, 1, 43, 100
3, 40060, Note_off_c, 1, 36, 100
3, 40064, Note_on_c, 1, 43, 110
3, 40064, Note_on_c, 1, 38, 110
3, 40188, Note_off_c, 1, 43, 100
3, 40188, Note_off_c, 1, 38, 100
3, 40192, Note_on_c, 1, 43, 110
3, 40192, Note_on_c, 1, 40, 110
3, 40316, Note_off_c, 1, 43, 100
3, 40316, Note_off_c, 1, 40, 100
3, 40320, Note_on_c, 1, 43, 110
3, 40320, Note_on_c, 1, 41, 110
3, 40444, Note_off_c, 1, 43, 100
3, 40444, Note_off_c, 1, 41, 100
3, 40448, Note_on_c, 1, 43, 110
3, 40448, Note_on_c, 1, 40, 110
3, 40572, Note_off_c, 1, 43, 100
3, 40572, Note_off_c, 1, 40, 100
3, 40576, Note_on_c, 1, 43, 110
3, 40576, Note_on_c, 1, 38, 110
3, 40700, Note_off_c, 1, 43, 100
3, 40700, Note_off_c, 1, 38, 100
3, 40704, Note_on_c, 1, 36, 110
3, 40828, Note_off_c, 1, 36, 100
3, 40832, Note_on_c, 1, 38, 110
3, 40956, Note_off_c, 1, 38, 100
3, 40960, Note_on_c, 1, 40, 110
3, 41084, Note_off_c, 1, 40, 100
3, 41088, Note_on_c, 1, 41, 110
3, 41212, Note_off_c, 1, 41, 100
3, 41216, Note_on_c, 1, 42, 110
3, 41340, Note_off_c, 1, 42, 100
3, 41344, Note_on_c, 1, 43, 110
3, 41468, Note_off_c, 1, 43, 100
3, 41472, Note_on_c, 1, 44, 110
3, 41596, Note_off_c, 1, 44, 100
3, 41600, Note_on_c, 1, 45, 110
3, 41724, Note_off_c, 1, 45, 100
3, 41728, Note_on_c, 1, 44, 110
3, 41852, Note_off_c, 1, 44, 100
3, 41856, Note_on_c, 1, 43, 110
3, 41980, Note_off_c, 1, 43, 100
3, 41984, Note_on_c, 1, 43, 110
3, 42108, Note_off_c, 1, 43, 100
3, 42112, Note_on_c, 1, 45, 110
3, 42236, Note_off_c, 1, 45, 100
3, 42240, Note_on_c, 1, 47, 110
3, 42364, Note_off_c, 1, 47, 100
3, 42368, Note_on_c, 1, 48, 110
3, 42492, Note_off_c, 1, 48, 100
3, 42496, Note_on_c, 1, 50, 110
3, 42620, Note_off_c, 1, 50, 100
3, 42624, Note_on_c, 1, 52, 110
3, 42748, Note_off_c, 1, 52, 100
3, 42752, Note_on_c, 1, 53, 110
3, 42876, Note_off_c, 1, 53, 100
3, 42880, Note_on_c, 1, 55, 110
3, 43004, Note_off_c, 1, 55, 100
3, 43008, Note_on_c, 1, 60, 110
3, 43008, Note_on_c, 1, 48, 110
3, 43132, Note_off_c, 1, 60, 100
3, 43132, Note_off_c, 1, 48, 100
3, 43136, Note_on_c, 1, 50, 110
3, 43260, Note_off_c, 1, 50, 100
3, 43264, Note_on_c, 1, 47, 110
3, 43388, Note_off_c, 1, 47, 100
3, 43392, Note_on_c, 1, 48, 110
3, 43580, Note_off_c, 1, 48, 100
3, 43776, Note_on_c, 1, 39, 110
3, 43776, Note_on_c, 1, 51, 110
3, 43900, Note_off_c, 1, 39, 100
3, 43900, Note_off_c, 1, 51, 100
3, 43904, Note_on_c, 1, 51, 110
3, 43904, Note_on_c, 1, 63, 110
3, 44028, Note_off_c, 1, 51, 100
3, 44028, Note_off_c, 1, 63, 100
3, 44032, Note_on_c, 1, 50, 110
3, 44032, Note_on_c, 1, 62, 110
3, 44156, Note_off_c, 1, 50, 100
3, 44156, Note_off_c, 1, 62, 100
3, 44160, Note_on_c, 1, 51, 110
3, 44160, Note_on_c, 1, 63, 110
3, 44284, Note_off_c, 1, 51, 100
3, 44284, Note_off_c, 1, 63, 100
3, 44288, Note_on_c, 1, 49, 110
3, 44288, Note_on_c, 1, 61, 110
3, 44412, Note_off_c, 1, 49, 100
3, 44412, Note_off_c, 1, 61, 100
3, 44416, Note_on_c, 1, 48, 110
3, 44416, Note_on_c, 1, 60, 110
3, 44540, Note_off_c, 1, 48, 100
3, 44540, Note_off_c, 1, 60, 100
3, 44544, Note_on_c, 1, 46, 110
3, 44544, Note_on_c, 1, 58, 110
3, 44668, Note_off_c, 1, 46, 100
3, 44668, Note_off_c, 1, 58, 100
3, 44672, Note_on_c, 1, 48, 110
3, 44672, Note_on_c, 1, 60, 110
3, 44796, Note_off_c, 1, 48, 100
3, 44796, Note_off_c, 1, 60, 100
3, 44800, Note_on_c, 1, 49, 110
3, 44800, Note_on_c, 1, 61, 110
3, 44924, Note_off_c, 1, 49, 100
3, 44924, Note_off_c, 1, 61, 100
3, 44928, Note_on_c, 1, 48, 110
3, 44928, Note_on_c, 1, 60, 110
3, 45052, Note_off_c, 1, 48, 100
3, 45052, Note_off_c, 1, 60, 100
3, 45056, Note_on_c, 1, 48, 110
3, 45056, Note_on_c, 1, 60, 110
3, 45180, Note_off_c, 1, 48, 100
3, 45180, Note_off_c, 1, 60, 100
3, 45184, Note_on_c, 1, 47, 110
3, 45184, Note_on_c, 1, 59, 110
3, 45308, Note_off_c, 1, 47, 100
3, 45308, Note_off_c, 1, 59, 100
3, 45312, Note_on_c, 1, 48, 110
3, 45312, Note_on_c, 1, 60, 110
3, 45436, Note_off_c, 1, 48, 100
3, 45436, Note_off_c, 1, 60, 100
3, 45440, Note_on_c, 1, 49, 110
3, 45440, Note_on_c, 1, 61, 110
3, 45564, Note_off_c, 1, 49, 100
3, 45564, Note_off_c, 1, 61, 100
3, 45568, Note_on_c, 1, 51, 110
3, 45568, Note_on_c, 1, 63, 110
3, 45692, Note_off_c, 1, 51, 100
3, 45692, Note_off_c, 1, 63, 100
3, 45696, Note_on_c, 1, 49, 110
3, 45696, Note_on_c, 1, 61, 110
3, 45820, Note_off_c, 1, 49, 100
3, 45820, Note_off_c, 1, 61, 100
3, 45824, Note_on_c, 1, 48, 110
3, 45824, Note_on_c, 1, 60, 110
3, 45948, Note_off_c, 1, 48, 100
3, 45948, Note_off_c, 1, 60, 100
3, 45952, Note_on_c, 1, 46, 110
3, 45952, Note_on_c, 1, 58, 110
3, 46076, Note_off_c, 1, 46, 100
3, 46076, Note_off_c, 1, 58, 100
3, 46080, Note_on_c, 1, 44, 110
3, 46080, Note_on_c, 1, 56, 110
3, 46204, Note_off_c, 1, 44, 100
3, 46204, Note_off_c, 1, 56, 100
3, 46208, Note_on_c, 1, 46, 110
3, 46208, Note_on_c, 1, 58, 110
3, 46332, Note_off_c, 1, 46, 100
3, 46332, Note_off_c, 1, 58, 100
3, 46336, Note_on_c, 1, 48, 110
3, 46336, Note_on_c, 1, 60, 110
3, 46460, Note_off_c, 1, 48, 100
3, 46460, Note_off_c, 1, 60, 100
3, 46464, Note_on_c, 1, 46, 110
3, 46464, Note_on_c, 1, 58, 110
3, 46588, Note_off_c, 1, 46, 100
3, 46588, Note_off_c, 1, 58, 100
3, 46592, Note_on_c, 1, 44, 110
3, 46592, Note_on_c, 1, 56, 110
3, 46716, Note_off_c, 1, 44, 100
3, 46716, Note_off_c, 1, 56, 100
3, 46720, Note_on_c, 1, 43, 110
3, 46720, Note_on_c, 1, 55, 110
3, 46844, Note_off_c, 1, 43, 100
3, 46844, Note_off_c, 1, 55, 100
3, 46848, Note_on_c, 1, 41, 110
3, 46848, Note_on_c, 1, 53, 110
3, 46972, Note_off_c, 1, 41, 100
3, 46972, Note_off_c, 1, 53, 100
3, 46976, Note_on_c, 1, 43, 110
3, 46976, Note_on_c, 1, 55, 110
3, 47100, Note_off_c, 1, 43, 100
3, 47100, Note_off_c, 1, 55, 100
3, 47104, Note_on_c, 1, 44, 110
3, 47104, Note_on_c, 1, 56, 110
3, 47228, Note_off_c, 1, 44, 100
3, 47228, Note_off_c, 1, 56, 100
3, 47232, Note_on_c, 1, 43, 110
3, 47232, Note_on_c, 1, 55, 110
3, 47356, Note_off_c, 1, 43, 100
3, 47356, Note_off_c, 1, 55, 100
3, 47360, Note_on_c, 1, 41, 110
3, 47360, Note_on_c, 1, 53, 110
3, 47484, Note_off_c, 1, 41, 100
3, 47484, Note_off_c, 1, 53, 100
3, 47488, Note_on_c, 1, 39, 110
3, 47488, Note_on_c, 1, 51, 110
3, 47612, Note_off_c, 1, 39, 100
3, 47612, Note_off_c, 1, 51, 100
3, 47616, Note_on_c, 1, 37, 110
3, 47616, Note_on_c, 1, 49, 110
3, 47740, Note_off_c, 1, 37, 100
3, 47740, Note_off_c, 1, 49, 100
3, 47744, Note_on_c, 1, 36, 110
3, 47744, Note_on_c, 1, 48, 110
3, 47868, Note_off_c, 1, 36, 100
3, 47868, Note_off_c, 1, 48, 100
3, 47872, Note_on_c, 1, 37, 110
3, 47872, Note_on_c, 1, 49, 110
3, 47996, Note_off_c, 1, 37, 100
3, 47996, Note_off_c, 1, 49, 100
3, 48000, Note_on_c, 1, 38, 110
3, 48000, Note_on_c, 1, 50, 110
3, 48124, Note_off_c, 1, 38, 100
3, 48124, Note_off_c, 1, 50, 100
3, 48128, Note_on_c, 1, 36, 110
3, 48128, Note_on_c, 1, 48, 110
3, 48252, Note_off_c, 1, 36, 100
3, 48252, Note_off_c, 1, 48, 100
3, 48256, Note_on_c, 1, 38, 110
3, 48256, Note_on_c, 1, 50, 110
3, 48380, Note_off_c, 1, 38, 100
3, 48380, Note_off_c, 1, 50, 100
3, 48384, Note_on_c, 1, 39, 110
3, 48384, Note_on_c, 1, 51, 110
3, 48572, Note_off_c, 1, 39, 100
3, 48572, Note_off_c, 1, 51, 100
3, 49536, Note_on_c, 1, 39, 110
3, 49536, Note_on_c, 1, 51, 110
3, 49660, Note_off_c, 1, 39, 100
3, 49660, Note_off_c, 1, 51, 100
3, 49664, Note_on_c, 1, 51, 110
3, 49664, Note_on_c, 1, 63, 110
3, 49788, Note_off_c, 1, 51, 100
3, 49788, Note_off_c, 1, 63, 100
3, 49792, Note_on_c, 1, 51, 110
3, 49792, Note_on_c, 1, 50, 110
3, 49792, Note_on_c, 1, 63, 110
3, 49792, Note_on_c, 1, 62, 110
3, 49916, Note_off_c, 1, 51, 100
3, 49916, Note_off_c, 1, 50, 100
3, 49916, Note_off_c, 1, 63, 100
3, 49916, Note_off_c, 1, 62, 100
3, 49920, Note_on_c, 1, 63, 110
3, 50044, Note_off_c, 1, 63, 100
3, 50048, Note_on_c, 1, 63, 110
3, 50048, Note_on_c, 1, 61, 110
3, 50172, Note_off_c, 1, 63, 100
3, 50172, Note_off_c, 1, 61, 100
3, 50176, Note_on_c, 1, 63, 110
3, 50176, Note_on_c, 1, 60, 110
3, 50300, Note_off_c, 1, 63, 100
3, 50300, Note_off_c, 1, 60, 100
3, 50304, Note_on_c, 1, 63, 110
3, 50304, Note_on_c, 1, 61, 110
3, 50428, Note_off_c, 1, 63, 100
3, 50428, Note_off_c, 1, 61, 100
3, 50432, Note_on_c, 1, 63, 110
3, 50432, Note_on_c, 1, 60, 110
3, 50556, Note_off_c, 1, 63, 100
3, 50556, Note_off_c, 1, 60, 100
3, 50560, Note_on_c, 1, 63, 110
3, 50560, Note_on_c, 1, 58, 110
3, 50684, Note_off_c, 1, 63, 100
3, 50684, Note_off_c, 1, 58, 100
3, 50688, Note_on_c, 1, 63, 110
3, 50688, Note_on_c, 1, 60, 110
3, 50812, Note_off_c, 1, 63, 100
3, 50812, Note_off_c, 1, 60, 100
3, 50816, Note_on_c, 1, 63, 110
3, 50816, Note_on_c, 1, 58, 110
3, 50940, Note_off_c, 1, 63, 100
3, 50940, Note_off_c, 1, 58, 100
3, 50944, Note_on_c, 1, 63, 110
3, 50944, Note_on_c, 1, 56, 110
3, 51068, Note_off_c, 1, 63, 100
3, 51068, Note_off_c, 1, 56, 100
3, 51072, Note_on_c, 1, 60, 110
3, 51072, Note_on_c, 1, 58, 110
3, 51196, Note_off_c, 1, 60, 100
3, 51196, Note_off_c, 1, 58, 100
3, 51200, Note_on_c, 1, 60, 110
3, 51200, Note_on_c, 1, 56, 110
3, 51324, Note_off_c, 1, 60, 100
3, 51324, Note_off_c, 1, 56, 100
3, 51328, Note_on_c, 1, 60, 110
3, 51328, Note_on_c, 1, 55, 110
3, 51452, Note_off_c, 1, 60, 100
3, 51452, Note_off_c, 1, 55, 100
3, 51456, Note_on_c, 1, 60, 110
3, 51456, Note_on_c, 1, 56, 110
3, 51580, Note_off_c, 1, 60, 100
3, 51580, Note_off_c, 1, 56, 100
3, 51584, Note_on_c, 1, 60, 110
3, 51584, Note_on_c, 1, 55, 110
3, 51708, Note_off_c, 1, 60, 100
3, 51708, Note_off_c, 1, 55, 100
3, 51712, Note_on_c, 1, 60, 110
3, 51712, Note_on_c, 1, 53, 110
3, 51836, Note_off_c, 1, 60, 100
3, 51836, Note_off_c, 1, 53, 100
3, 51840, Note_on_c, 1, 56, 110
3, 51840, Note_on_c, 1, 54, 110
3, 51964, Note_off_c, 1, 56, 100
3, 51964, Note_off_c, 1, 54, 100
3, 51968, Note_on_c, 1, 56, 110
3, 51968, Note_on_c, 1, 53, 110
3, 52092, Note_off_c, 1, 56, 100
3, 52092, Note_off_c, 1, 53, 100
3, 52096, Note_on_c, 1, 56, 110
3, 52096, Note_on_c, 1, 51, 110
3, 52220, Note_off_c, 1, 56, 100
3, 52220, Note_off_c, 1, 51, 100
3, 52224, Note_on_c, 1, 56, 110
3, 52224, Note_on_c, 1, 53, 110
3, 52348, Note_off_c, 1, 56, 100
3, 52348, Note_off_c, 1, 53, 100
3, 52352, Note_on_c, 1, 56, 110
3, 52352, Note_on_c, 1, 51, 110
3, 52476, Note_off_c, 1, 56, 100
3, 52476, Note_off_c, 1, 51, 100
3, 52480, Note_on_c, 1, 56, 110
3, 52480, Note_on_c, 1, 49, 110
3, 52604, Note_off_c, 1, 56, 100
3, 52604, Note_off_c, 1, 49, 100
3, 52608, Note_on_c, 1, 53, 110
3, 52608, Note_on_c, 1, 51, 110
3, 52732, Note_off_c, 1, 53, 100
3, 52732, Note_off_c, 1, 51, 100
3, 52736, Note_on_c, 1, 53, 110
3, 52736, Note_on_c, 1, 49, 110
3, 52860, Note_off_c, 1, 53, 100
3, 52860, Note_off_c, 1, 49, 100
3, 52864, Note_on_c, 1, 53, 110
3, 52864, Note_on_c, 1, 48, 110
3, 52988, Note_off_c, 1, 53, 100
3, 52988, Note_off_c, 1, 48, 100
3, 52992, Note_on_c, 1, 53, 110
3, 52992, Note_on_c, 1, 49, 110
3, 53116, Note_off_c, 1, 53, 100
3, 53116, Note_off_c, 1, 49, 100
3, 53120, Note_on_c, 1, 53, 110
3, 53120, Note_on_c, 1, 48, 110
3, 53244, Note_off_c, 1, 53, 100
3, 53244, Note_off_c, 1, 48, 100
3, 53248, Note_on_c, 1, 53, 110
3, 53248, Note_on_c, 1, 46, 110
3, 53372, Note_off_c, 1, 53, 100
3, 53372, Note_off_c, 1, 46, 100
3, 53376, Note_on_c, 1, 51, 110
3, 53376, Note_on_c, 1, 49, 110
3, 53500, Note_off_c, 1, 51, 100
3, 53500, Note_off_c, 1, 49, 100
3, 53504, Note_on_c, 1, 51, 110
3, 53504, Note_on_c, 1, 48, 110
3, 53628, Note_off_c, 1, 51, 100
3, 53628, Note_off_c, 1, 48, 100
3, 53632, Note_on_c, 1, 51, 110
3, 53632, Note_on_c, 1, 46, 110
3, 53756, Note_off_c, 1, 51, 100
3, 53756, Note_off_c, 1, 46, 100
3, 53760, Note_on_c, 1, 51, 110
3, 53760, Note_on_c, 1, 48, 110
3, 53884, Note_off_c, 1, 51, 100
3, 53884, Note_off_c, 1, 48, 100
3, 53888, Note_on_c, 1, 51, 110
3, 53888, Note_on_c, 1, 46, 110
3, 54012, Note_off_c, 1, 51, 100
3, 54012, Note_off_c, 1, 46, 100
3, 54016, Note_on_c, 1, 51, 110
3, 54016, Note_on_c, 1, 44, 110
3, 54140, Note_off_c, 1, 51, 100
3, 54140, Note_off_c, 1, 44, 100
3, 54144, Note_on_c, 1, 53, 110
3, 54144, Note_on_c, 1, 51, 110
3, 54268, Note_off_c, 1, 53, 100
3, 54268, Note_off_c, 1, 51, 100
3, 54272, Note_on_c, 1, 53, 110
3, 54272, Note_on_c, 1, 49, 110
3, 54396, Note_off_c, 1, 53, 100
3, 54396, Note_off_c, 1, 49, 100
3, 54400, Note_on_c, 1, 53, 110
3, 54400, Note_on_c, 1, 48, 110
3, 54524, Note_off_c, 1, 53, 100
3, 54524, Note_off_c, 1, 48, 100
3, 54528, Note_on_c, 1, 53, 110
3, 54528, Note_on_c, 1, 49, 110
3, 54652, Note_off_c, 1, 53, 100
3, 54652, Note_off_c, 1, 49, 100
3, 54656, Note_on_c, 1, 53, 110
3, 54656, Note_on_c, 1, 48, 110
3, 54780, Note_off_c, 1, 53, 100
3, 54780, Note_off_c, 1, 48, 100
3, 54784, Note_on_c, 1, 53, 110
3, 54784, Note_on_c, 1, 46, 110
3, 54908, Note_off_c, 1, 53, 100
3, 54908, Note_off_c, 1, 46, 100
3, 54912, Note_on_c, 1, 51, 110
3, 54912, Note_on_c, 1, 49, 110
3, 55036, Note_off_c, 1, 51, 100
3, 55036, Note_off_c, 1, 49, 100
3, 55040, Note_on_c, 1, 51, 110
3, 55040, Note_on_c, 1, 48, 110
3, 55164, Note_off_c, 1, 51, 100
3, 55164, Note_off_c, 1, 48, 100
3, 55168, Note_on_c, 1, 51, 110
3, 55168, Note_on_c, 1, 46, 110
3, 55292, Note_off_c, 1, 51, 100
3, 55292, Note_off_c, 1, 46, 100
3, 55296, Note_on_c, 1, 51, 110
3, 55296, Note_on_c, 1, 48, 110
3, 55420, Note_off_c, 1, 51, 100
3, 55420, Note_off_c, 1, 48, 100
3, 55424, Note_on_c, 1, 51, 110
3, 55424, Note_on_c, 1, 46, 110
3, 55548, Note_off_c, 1, 51, 100
3, 55548, Note_off_c, 1, 46, 100
3, 55552, Note_on_c, 1, 51, 110
3, 55552, Note_on_c, 1, 44, 110
3, 55676, Note_off_c, 1, 51, 100
3, 55676, Note_off_c, 1, 44, 100
3, 55680, Note_on_c, 1, 51, 110
3, 55680, Note_on_c, 1, 49, 110
3, 55804, Note_off_c, 1, 51, 100
3, 55804, Note_off_c, 1, 49, 100
3, 55808, Note_on_c, 1, 51, 110
3, 55808, Note_on_c, 1, 48, 110
3, 55932, Note_off_c, 1, 51, 100
3, 55932, Note_off_c, 1, 48, 100
3, 55936, Note_on_c, 1, 51, 110
3, 55936, Note_on_c, 1, 46, 110
3, 56060, Note_off_c, 1, 51, 100
3, 56060, Note_off_c, 1, 46, 100
3, 56064, Note_on_c, 1, 51, 110
3, 56064, Note_on_c, 1, 48, 110
3, 56188, Note_off_c, 1, 51, 100
3, 56188, Note_off_c, 1, 48, 100
3, 56192, Note_on_c, 1, 51, 110
3, 56192, Note_on_c, 1, 46, 110
3, 56316, Note_off_c, 1, 51, 100
3, 56316, Note_off_c, 1, 46, 100
3, 56320, Note_on_c, 1, 51, 110
3, 56320, Note_on_c, 1, 44, 110
3, 56444, Note_off_c, 1, 51, 100
3, 56444, Note_off_c, 1, 44, 100
3, 56448, Note_on_c, 1, 51, 110
3, 56448, Note_on_c, 1, 48, 110
3, 56572, Note_off_c, 1, 51, 100
3, 56572, Note_off_c, 1, 48, 100
3, 56576, Note_on_c, 1, 51, 110
3, 56576, Note_on_c, 1, 46, 110
3, 56700, Note_off_c, 1, 51, 100
3, 56700, Note_off_c, 1, 46, 100
3, 56704, Note_on_c, 1, 51, 110
3, 56704, Note_on_c, 1, 44, 110
3, 56828, Note_off_c, 1, 51, 100
3, 56828, Note_off_c, 1, 44, 100
3, 56832, Note_on_c, 1, 43, 110
3, 56956, Note_off_c, 1, 43, 100
3, 56960, Note_on_c, 1, 41, 110
3, 57084, Note_off_c, 1, 41, 100
3, 57088, Note_on_c, 1, 39, 110
3, 57212, Note_off_c, 1, 39, 100
3, 57216, Note_on_c, 1, 37, 110
3, 57340, Note_off_c, 1, 37, 100
3, 57344, Note_on_c, 1, 36, 110
3, 57468, Note_off_c, 1, 36, 100
3, 57472, Note_on_c, 1, 34, 110
3, 57596, Note_off_c, 1, 34, 100
3, 57600, Note_on_c, 1, 39, 110
3, 57600, Note_on_c, 1, 32, 110
3, 57724, Note_off_c, 1, 39, 100
3, 57724, Note_off_c, 1, 32, 100
3, 57728, Note_on_c, 1, 39, 110
3, 57728, Note_on_c, 1, 34, 110
3, 57852, Note_off_c, 1, 39, 100
3, 57852, Note_off_c, 1, 34, 100
3, 57856, Note_on_c, 1, 39, 110
3, 57856, Note_on_c, 1, 36, 110
3, 57980, Note_off_c, 1, 39, 100
3, 57980, Note_off_c, 1, 36, 100
3, 57984, Note_on_c, 1, 39, 110
3, 57984, Note_on_c, 1, 37, 110
3, 58108, Note_off_c, 1, 39, 100
3, 58108, Note_off_c, 1, 37, 100
3, 58112, Note_on_c, 1, 39, 110
3, 58112, Note_on_c, 1, 36, 110
3, 58236, Note_off_c, 1, 39, 100
3, 58236, Note_off_c, 1, 36, 100
3, 58240, Note_on_c, 1, 39, 110
3, 58240, Note_on_c, 1, 34, 110
3, 58364, Note_off_c, 1, 39, 100
3, 58364, Note_off_c, 1, 34, 100
3, 58368, Note_on_c, 1, 39, 110
3, 58368, Note_on_c, 1, 32, 110
3, 58492, Note_off_c, 1, 39, 100
3, 58492, Note_off_c, 1, 32, 100
3, 58496, Note_on_c, 1, 39, 110
3, 58496, Note_on_c, 1, 34, 110
3, 58620, Note_off_c, 1, 39, 100
3, 58620, Note_off_c, 1, 34, 100
3, 58624, Note_on_c, 1, 39, 110
3, 58624, Note_on_c, 1, 36, 110
3, 58748, Note_off_c, 1, 39, 100
3, 58748, Note_off_c, 1, 36, 100
3, 58752, Note_on_c, 1, 39, 110
3, 58752, Note_on_c, 1, 37, 110
3, 58876, Note_off_c, 1, 39, 100
3, 58876, Note_off_c, 1, 37, 100
3, 58880, Note_on_c, 1, 39, 110
3, 58880, Note_on_c, 1, 36, 110
3, 59004, Note_off_c, 1, 39, 100
3, 59004, Note_off_c, 1, 36, 100
3, 59008, Note_on_c, 1, 39, 110
3, 59008, Note_on_c, 1, 34, 110
3, 59132, Note_off_c, 1, 39, 100
3, 59132, Note_off_c, 1, 34, 100
3, 59136, Note_on_c, 1, 32, 110
3, 59260, Note_off_c, 1, 32, 100
3, 59264, Note_on_c, 1, 34, 110
3, 59388, Note_off_c, 1, 34, 100
3, 59392, Note_on_c, 1, 36, 110
3, 59516, Note_off_c, 1, 36, 100
3, 59520, Note_on_c, 1, 37, 110
3, 59644, Note_off_c, 1, 37, 100
3, 59648, Note_on_c, 1, 38, 110
3, 59772, Note_off_c, 1, 38, 100
3, 59776, Note_on_c, 1, 39, 110
3, 59900, Note_off_c, 1, 39, 100
3, 59904, Note_on_c, 1, 40, 110
3, 60028, Note_off_c, 1, 40, 100
3, 60032, Note_on_c, 1, 41, 110
3, 60156, Note_off_c, 1, 41, 100
3, 60160, Note_on_c, 1, 38, 110
3, 60284, Note_off_c, 1, 38, 100
3, 60288, Note_on_c, 1, 39, 110
3, 60412, Note_off_c, 1, 39, 100
3, 60416, Note_on_c, 1, 39, 110
3, 60540, Note_off_c, 1, 39, 100
3, 60544, Note_on_c, 1, 41, 110
3, 60668, Note_off_c, 1, 41, 100
3, 60672, Note_on_c, 1, 43, 110
3, 60796, Note_off_c, 1, 43, 100
3, 60800, Note_on_c, 1, 44, 110
3, 60924, Note_off_c, 1, 44, 100
3, 60928, Note_on_c, 1, 46, 110
3, 61052, Note_off_c, 1, 46, 100
3, 61056, Note_on_c, 1, 48, 110
3, 61180, Note_off_c, 1, 48, 100
3, 61184, Note_on_c, 1, 49, 110
3, 61308, Note_off_c, 1, 49, 100
3, 61312, Note_on_c, 1, 51, 110
3, 61436, Note_off_c, 1, 51, 100
3, 61440, Note_on_c, 1, 44, 110
3, 61564, Note_off_c, 1, 44, 100
3, 61568, Note_on_c, 1, 46, 110
3, 61692, Note_off_c, 1, 46, 100
3, 61696, Note_on_c, 1, 43, 110
3, 61820, Note_off_c, 1, 43, 100
3, 61824, Note_on_c, 1, 44, 110
3, 61948, Note_off_c, 1, 44, 100
3, 62208, Note_on_c, 1, 41, 80
3, 62332, Note_off_c, 1, 41, 100
3, 62336, Note_on_c, 1, 43, 80
3, 62460, Note_off_c, 1, 43, 100
3, 62464, Note_on_c, 1, 44, 80
3, 62588, Note_off_c, 1, 44, 100
3, 62592, Note_on_c, 1, 46, 80
3, 62716, Note_off_c, 1, 46, 100
3, 62720, Note_on_c, 1, 48, 80
3, 62844, Note_off_c, 1, 48, 100
3, 62848, Note_on_c, 1, 49, 80
3, 62972, Note_off_c, 1, 49, 100
3, 62976, Note_on_c, 1, 51, 80
3, 63100, Note_off_c, 1, 51, 100
3, 63104, Note_on_c, 1, 53, 80
3, 63228, Note_off_c, 1, 53, 100
3, 63232, Note_on_c, 1, 55, 80
3, 63356, Note_off_c, 1, 55, 100
3, 63360, Note_on_c, 1, 56, 80
3, 63484, Note_off_c, 1, 56, 100
3, 63488, Note_on_c, 1, 58, 80
3, 63612, Note_off_c, 1, 58, 100
3, 63616, Note_on_c, 1, 60, 80
3, 63740, Note_off_c, 1, 60, 100
3, 63744, Note_on_c, 1, 53, 80
3, 63868, Note_off_c, 1, 53, 100
3, 63872, Note_on_c, 1, 43, 80
3, 63996, Note_off_c, 1, 43, 100
3, 64000, Note_on_c, 1, 40, 80
3, 64124, Note_off_c, 1, 40, 100
3, 64128, Note_on_c, 1, 41, 80
3, 64252, Note_off_c, 1, 41, 100
3, 64512, Note_on_c, 1, 37, 80
3, 64636, Note_off_c, 1, 37, 100
3, 64640, Note_on_c, 1, 39, 80
3, 64764, Note_off_c, 1, 39, 100
3, 64768, Note_on_c, 1, 41, 80
3, 64892, Note_off_c, 1, 41, 100
3, 64896, Note_on_c, 1, 42, 80
3, 65020, Note_off_c, 1, 42, 100
3, 65024, Note_on_c, 1, 44, 80
3, 65148, Note_off_c, 1, 44, 100
3, 65152, Note_on_c, 1, 46, 80
3, 65276, Note_off_c, 1, 46, 100
3, 65280, Note_on_c, 1, 48, 80
3, 65404, Note_off_c, 1, 48, 100
3, 65408, Note_on_c, 1, 49, 80
3, 65532, Note_off_c, 1, 49, 100
3, 65536, Note_on_c, 1, 51, 80
3, 65660, Note_off_c, 1, 51, 100
3, 65664, Note_on_c, 1, 53, 80
3, 65788, Note_off_c, 1, 53, 100
3, 65792, Note_on_c, 1, 54, 80
3, 65916, Note_off_c, 1, 54, 100
3, 65920, Note_on_c, 1, 56, 80
3, 66044, Note_off_c, 1, 56, 100
3, 66048, Note_on_c, 1, 49, 80
3, 66172, Note_off_c, 1, 49, 100
3, 66176, Note_on_c, 1, 39, 80
3, 66300, Note_off_c, 1, 39, 100
3, 66304, Note_on_c, 1, 36, 80
3, 66428, Note_off_c, 1, 36, 100
3, 66432, Note_on_c, 1, 37, 80
3, 66620, Note_off_c, 1, 37, 100
3, 67328, Note_on_c, 1, 39, 80
3, 67452, Note_off_c, 1, 39, 100
3, 67456, Note_on_c, 1, 36, 80
3, 67580, Note_off_c, 1, 36, 100
3, 67584, Note_on_c, 1, 37, 80
3, 67772, Note_off_c, 1, 37, 100
3, 68480, Note_on_c, 1, 51, 80
3, 68604, Note_off_c, 1, 51, 100
3, 68608, Note_on_c, 1, 48, 80
3, 68732, Note_off_c, 1, 48, 100
3, 68736, Note_on_c, 1, 49, 80
3, 68924, Note_off_c, 1, 49, 100
3, 69632, Note_on_c, 1, 39, 80
3, 69756, Note_off_c, 1, 39, 100
3, 69760, Note_on_c, 1, 36, 80
3, 69884, Note_off_c, 1, 36, 100
3, 69888, Note_on_c, 1, 37, 80
3, 70076, Note_off_c, 1, 37, 100
3, 75264, Note_on_c, 1, 36, 80
3, 75388, Note_off_c, 1, 36, 100
3, 75392, Note_on_c, 1, 37, 80
3, 75516, Note_off_c, 1, 37, 100
3, 75520, Note_on_c, 1, 35, 80
3, 75644, Note_off_c, 1, 35, 100
3, 75648, Note_on_c, 1, 36, 80
3, 75772, Note_off_c, 1, 36, 100
3, 75776, Note_on_c, 1, 37, 80
3, 75900, Note_off_c, 1, 37, 100
3, 75904, Note_on_c, 1, 35, 80
3, 76028, Note_off_c, 1, 35, 100
3, 76032, Note_on_c, 1, 36, 80
3, 76156, Note_off_c, 1, 36, 100
3, 76160, Note_on_c, 1, 37, 80
3, 76284, Note_off_c, 1, 37, 100
3, 76288, Note_on_c, 1, 35, 80
3, 76412, Note_off_c, 1, 35, 100
3, 76416, Note_on_c, 1, 36, 80
3, 76540, Note_off_c, 1, 36, 100
3, 76544, Note_on_c, 1, 37, 80
3, 76668, Note_off_c, 1, 37, 100
3, 76672, Note_on_c, 1, 35, 80
3, 76796, Note_off_c, 1, 35, 100
3, 76800, Note_on_c, 1, 36, 80
3, 76924, Note_off_c, 1, 36, 100
3, 76928, Note_on_c, 1, 37, 80
3, 77052, Note_off_c, 1, 37, 100
3, 77056, Note_on_c, 1, 35, 80
3, 77180, Note_off_c, 1, 35, 100
3, 77184, Note_on_c, 1, 36, 80
3, 77308, Note_off_c, 1, 36, 100
3, 77312, Note_on_c, 1, 38, 80
3, 77436, Note_off_c, 1, 38, 100
3, 77440, Note_on_c, 1, 35, 80
3, 77564, Note_off_c, 1, 35, 100
3, 77568, Note_on_c, 1, 36, 80
3, 77692, Note_off_c, 1, 36, 100
3, 77696, Note_on_c, 1, 38, 80
3, 77820, Note_off_c, 1, 38, 100
3, 77824, Note_on_c, 1, 35, 80
3, 77948, Note_off_c, 1, 35, 100
3, 77952, Note_on_c, 1, 36, 80
3, 78076, Note_off_c, 1, 36, 100
3, 78080, Note_on_c, 1, 38, 80
3, 78204, Note_off_c, 1, 38, 100
3, 78208, Note_on_c, 1, 35, 80
3, 78332, Note_off_c, 1, 35, 100
3, 78336, Note_on_c, 1, 36, 80
3, 78460, Note_off_c, 1, 36, 100
3, 78464, Note_on_c, 1, 38, 80
3, 78588, Note_off_c, 1, 38, 100
3, 78592, Note_on_c, 1, 33, 80
3, 78716, Note_off_c, 1, 33, 100
3, 78720, Note_on_c, 1, 34, 80
3, 78844, Note_off_c, 1, 34, 100
3, 78848, Note_on_c, 1, 36, 80
3, 78972, Note_off_c, 1, 36, 100
3, 78976, Note_on_c, 1, 33, 80
3, 79100, Note_off_c, 1, 33, 100
3, 79104, Note_on_c, 1, 34, 80
3, 79228, Note_off_c, 1, 34, 100
3, 79232, Note_on_c, 1, 38, 80
3, 79356, Note_off_c, 1, 38, 100
3, 79360, Note_on_c, 1, 36, 80
3, 79484, Note_off_c, 1, 36, 100
3, 79488, Note_on_c, 1, 34, 80
3, 79612, Note_off_c, 1, 34, 100
3, 79616, Note_on_c, 1, 33, 80
3, 79740, Note_off_c, 1, 33, 100
3, 79744, Note_on_c, 1, 31, 80
3, 79868, Note_off_c, 1, 31, 100
3, 79872, Note_on_c, 1, 41, 80
3, 79872, Note_on_c, 1, 29, 80
3, 80252, Note_off_c, 1, 29, 100
3, 80256, Note_on_c, 1, 31, 80
3, 80444, Note_off_c, 1, 41, 100
3, 80444, Note_off_c, 1, 31, 100
3, 81024, Note_on_c, 1, 53, 80
3, 81024, Note_on_c, 1, 45, 80
3, 81404, Note_off_c, 1, 45, 100
3, 81408, Note_on_c, 1, 46, 80
3, 81596, Note_off_c, 1, 53, 100
3, 81596, Note_off_c, 1, 46, 100
3, 82176, Note_on_c, 1, 65, 80
3, 82176, Note_on_c, 1, 60, 80
3, 82460, Note_off_c, 1, 65, 100
3, 82464, Note_on_c, 1, 69, 80
3, 82556, Note_off_c, 1, 69, 100
3, 82560, Note_on_c, 1, 72, 80
3, 82844, Note_off_c, 1, 72, 100
3, 82848, Note_on_c, 1, 69, 80
3, 82940, Note_off_c, 1, 60, 100
3, 82940, Note_off_c, 1, 69, 100
3, 82944, Note_on_c, 1, 70, 80
3, 82944, Note_on_c, 1, 60, 80
3, 83228, Note_off_c, 1, 70, 100
3, 83232, Note_on_c, 1, 67, 80
3, 83324, Note_off_c, 1, 60, 100
3, 83324, Note_off_c, 1, 67, 100
3, 83328, Note_on_c, 1, 69, 80
3, 83328, Note_on_c, 1, 65, 80
3, 83708, Note_off_c, 1, 69, 100
3, 83708, Note_off_c, 1, 65, 100
3, 84480, Note_on_c, 1, 41, 80
3, 84480, Note_on_c, 1, 29, 80
3, 84860, Note_off_c, 1, 29, 100
3, 84864, Note_on_c, 1, 31, 80
3, 85052, Note_off_c, 1, 41, 100
3, 85052, Note_off_c, 1, 31, 100
3, 85632, Note_on_c, 1, 53, 80
3, 85632, Note_on_c, 1, 41, 80
3, 86012, Note_off_c, 1, 41, 100
3, 86016, Note_on_c, 1, 43, 80
3, 86204, Note_off_c, 1, 53, 100
3, 86204, Note_off_c, 1, 43, 100
3, 86784, Note_on_c, 1, 67, 80
3, 86784, Note_on_c, 1, 60, 80
3, 86836, Note_off_c, 1, 67, 100
3, 86840, Note_on_c, 1, 65, 80
3, 86876, Note_off_c, 1, 65, 100
3, 86880, Note_on_c, 1, 64, 80
3, 86972, Note_off_c, 1, 64, 100
3, 86976, Note_on_c, 1, 65, 80
3, 87068, Note_off_c, 1, 65, 100
3, 87072, Note_on_c, 1, 69, 80
3, 87164, Note_off_c, 1, 69, 100
3, 87168, Note_on_c, 1, 72, 80
3, 87452, Note_off_c, 1, 72, 100
3, 87456, Note_on_c, 1, 69, 80
3, 87548, Note_off_c, 1, 60, 100
3, 87548, Note_off_c, 1, 69, 100
3, 87552, Note_on_c, 1, 70, 80
3, 87552, Note_on_c, 1, 60, 80
3, 87836, Note_off_c, 1, 70, 100
3, 87840, Note_on_c, 1, 67, 80
3, 87932, Note_off_c, 1, 60, 100
3, 87932, Note_off_c, 1, 67, 100
3, 87936, Note_on_c, 1, 69, 80
3, 87936, Note_on_c, 1, 65, 80
3, 88316, Note_off_c, 1, 69, 100
3, 88316, Note_off_c, 1, 65, 100
3, 89088, Note_on_c, 1, 41, 80
3, 89472, Note_on_c, 1, 46, 80
3, 89852, Note_off_c, 1, 46, 100
3, 89856, Note_on_c, 1, 52, 80
3, 89856, Note_on_c, 1, 43, 80
3, 90236, Note_off_c, 1, 41, 100
3, 90236, Note_off_c, 1, 52, 100
3, 90236, Note_off_c, 1, 43, 100
3, 90240, Note_on_c, 1, 45, 80
3, 90240, Note_on_c, 1, 41, 80
3, 90624, Note_on_c, 1, 48, 80
3, 90812, Note_off_c, 1, 45, 100
3, 90812, Note_off_c, 1, 41, 100
3, 90812, Note_off_c, 1, 48, 100
3, 91392, Note_on_c, 1, 53, 80
3, 91776, Note_on_c, 1, 58, 80
3, 92156, Note_off_c, 1, 58, 100
3, 92160, Note_on_c, 1, 64, 80
3, 92160, Note_on_c, 1, 55, 80
3, 92540, Note_off_c, 1, 53, 100
3, 92540, Note_off_c, 1, 64, 100
3, 92540, Note_off_c, 1, 55, 100
3, 92544, Note_on_c, 1, 57, 80
3, 92544, Note_on_c, 1, 53, 80
3, 92928, Note_on_c, 1, 60, 80
3, 93116, Note_off_c, 1, 57, 100
3, 93116, Note_off_c, 1, 53, 100
3, 93116, Note_off_c, 1, 60, 100
3, 94080, Note_on_c, 1, 70, 80
3, 94080, Note_on_c, 1, 65, 80
3, 94460, Note_off_c, 1, 65, 100
3, 94464, Note_on_c, 1, 67, 80
3, 94748, Note_off_c, 1, 70, 100
3, 94748, Note_off_c, 1, 67, 100
3, 94752, Note_on_c, 1, 67, 80
3, 94752, Note_on_c, 1, 65, 80
3, 94844, Note_off_c, 1, 67, 100
3, 94844, Note_off_c, 1, 65, 100
3, 94848, Note_on_c, 1, 67, 80
3, 94848, Note_on_c, 1, 64, 80
3, 95132, Note_off_c, 1, 67, 100
3, 95132, Note_off_c, 1, 64, 100
3, 95136, Note_on_c, 1, 69, 80
3, 95136, Note_on_c, 1, 65, 80
3, 95228, Note_off_c, 1, 69, 100
3, 95228, Note_off_c, 1, 65, 100
3, 95232, Note_on_c, 1, 65, 80
3, 95232, Note_on_c, 1, 62, 80
3, 95612, Note_off_c, 1, 65, 100
3, 95612, Note_off_c, 1, 62, 100
3, 95616, Note_on_c, 1, 67, 80
3, 95616, Note_on_c, 1, 64, 80
3, 95900, Note_off_c, 1, 67, 100
3, 95900, Note_off_c, 1, 64, 100
3, 95904, Note_on_c, 1, 65, 80
3, 95904, Note_on_c, 1, 62, 80
3, 95996, Note_off_c, 1, 65, 100
3, 95996, Note_off_c, 1, 62, 100
3, 96000, Note_on_c, 1, 64, 80
3, 96000, Note_on_c, 1, 61, 80
3, 96284, Note_off_c, 1, 64, 100
3, 96284, Note_off_c, 1, 61, 100
3, 96288, Note_on_c, 1, 65, 80
3, 96288, Note_on_c, 1, 62, 80
3, 96380, Note_off_c, 1, 65, 100
3, 96380, Note_off_c, 1, 62, 100
3, 96384, Note_on_c, 1, 62, 80
3, 96384, Note_on_c, 1, 58, 80
3, 97052, Note_off_c, 1, 62, 100
3, 97056, Note_on_c, 1, 67, 80
3, 97148, Note_off_c, 1, 58, 100
3, 97148, Note_off_c, 1, 67, 100
3, 97152, Note_on_c, 1, 60, 80
3, 97152, Note_on_c, 1, 67, 80
3, 97436, Note_off_c, 1, 67, 100
3, 97440, Note_on_c, 1, 64, 80
3, 97532, Note_off_c, 1, 60, 100
3, 97532, Note_off_c, 1, 64, 100
3, 97536, Note_on_c, 1, 65, 80
3, 97536, Note_on_c, 1, 53, 80
3, 97724, Note_off_c, 1, 65, 100
3, 97724, Note_off_c, 1, 53, 100
3, 98304, Note_on_c, 1, 41, 80
3, 98688, Note_on_c, 1, 46, 80
3, 99068, Note_off_c, 1, 46, 100
3, 99072, Note_on_c, 1, 52, 80
3, 99072, Note_on_c, 1, 43, 80
3, 99452, Note_off_c, 1, 41, 100
3, 99452, Note_off_c, 1, 52, 100
3, 99452, Note_off_c, 1, 43, 100
3, 99456, Note_on_c, 1, 45, 80
3, 99456, Note_on_c, 1, 41, 80
3, 99840, Note_on_c, 1, 48, 80
3, 100028, Note_off_c, 1, 45, 100
3, 100028, Note_off_c, 1, 41, 100
3, 100028, Note_off_c, 1, 48, 100
3, 100608, Note_on_c, 1, 53, 80
3, 100992, Note_on_c, 1, 58, 80
3, 101372, Note_off_c, 1, 58, 100
3, 101376, Note_on_c, 1, 64, 80
3, 101376, Note_on_c, 1, 55, 80
3, 101756, Note_off_c, 1, 53, 100
3, 101756, Note_off_c, 1, 64, 100
3, 101756, Note_off_c, 1, 55, 100
3, 101760, Note_on_c, 1, 57, 80
3, 101760, Note_on_c, 1, 53, 80
3, 102144, Note_on_c, 1, 60, 80
3, 102332, Note_off_c, 1, 57, 100
3, 102332, Note_off_c, 1, 53, 100
3, 102332, Note_off_c, 1, 60, 100
3, 103296, Note_on_c, 1, 74, 85
3, 103296, Note_on_c, 1, 65, 85
3, 103296, Note_on_c, 1, 70, 85
3, 103676, Note_off_c, 1, 65, 100
3, 103680, Note_on_c, 1, 67, 90
3, 103964, Note_off_c, 1, 70, 100
3, 103964, Note_off_c, 1, 67, 100
3, 103968, Note_on_c, 1, 65, 94
3, 103968, Note_on_c, 1, 67, 94
3, 104060, Note_off_c, 1, 74, 100
3, 104060, Note_off_c, 1, 65, 100
3, 104060, Note_off_c, 1, 67, 100
3, 104064, Note_on_c, 1, 72, 95
3, 104064, Note_on_c, 1, 67, 95
3, 104064, Note_on_c, 1, 64, 95
3, 104348, Note_off_c, 1, 67, 100
3, 104348, Note_off_c, 1, 64, 100
3, 104352, Note_on_c, 1, 69, 99
3, 104352, Note_on_c, 1, 65, 99
3, 104444, Note_off_c, 1, 72, 100
3, 104444, Note_off_c, 1, 69, 100
3, 104444, Note_off_c, 1, 65, 100
3, 104448, Note_on_c, 1, 65, 100
3, 104448, Note_on_c, 1, 62, 100
3, 104448, Note_on_c, 1, 70, 100
3, 104828, Note_off_c, 1, 65, 100
3, 104828, Note_off_c, 1, 62, 100
3, 104832, Note_on_c, 1, 67, 106
3, 104832, Note_on_c, 1, 64, 106
3, 105116, Note_off_c, 1, 67, 100
3, 105116, Note_off_c, 1, 64, 100
3, 105120, Note_on_c, 1, 65, 109
3, 105120, Note_on_c, 1, 62, 109
3, 105212, Note_off_c, 1, 70, 100
3, 105212, Note_off_c, 1, 65, 100
3, 105212, Note_off_c, 1, 62, 100
3, 105216, Note_on_c, 1, 69, 110
3, 105216, Note_on_c, 1, 64, 110
3, 105216, Note_on_c, 1, 61, 110
3, 105500, Note_off_c, 1, 64, 100
3, 105500, Note_off_c, 1, 61, 100
3, 105504, Note_on_c, 1, 65, 110
3, 105504, Note_on_c, 1, 62, 110
3, 105596, Note_off_c, 1, 69, 100
3, 105596, Note_off_c, 1, 65, 100
3, 105596, Note_off_c, 1, 62, 100
3, 105600, Note_on_c, 1, 67, 110
3, 105600, Note_on_c, 1, 62, 110
3, 105600, Note_on_c, 1, 58, 110
3, 105980, Note_off_c, 1, 67, 100
3, 105980, Note_off_c, 1, 62, 100
3, 105984, Note_on_c, 1, 62, 100
3, 106268, Note_off_c, 1, 62, 100
3, 106272, Note_on_c, 1, 67, 91
3, 106364, Note_off_c, 1, 58, 100
3, 106364, Note_off_c, 1, 67, 100
3, 106368, Note_on_c, 1, 60, 80
3, 106368, Note_on_c, 1, 67, 80
3, 106652, Note_off_c, 1, 67, 100
3, 106656, Note_on_c, 1, 64, 80
3, 106748, Note_off_c, 1, 60, 100
3, 106748, Note_off_c, 1, 64, 100
3, 106752, Note_on_c, 1, 65, 80
3, 106752, Note_on_c, 1, 53, 80
3, 106940, Note_off_c, 1, 65, 100
3, 106940, Note_off_c, 1, 53, 100
3, 107136, Note_on_c, 1, 36, 110
3, 107136, Note_on_c, 1, 48, 110
3, 107260, Note_off_c, 1, 36, 100
3, 107260, Note_off_c, 1, 48, 100
3, 107264, Note_on_c, 1, 48, 110
3, 107264, Note_on_c, 1, 60, 110
3, 107388, Note_off_c, 1, 48, 100
3, 107388, Note_off_c, 1, 60, 100
3, 107392, Note_on_c, 1, 47, 110
3, 107392, Note_on_c, 1, 59, 110
3, 107516, Note_off_c, 1, 47, 100
3, 107516, Note_off_c, 1, 59, 100
3, 107520, Note_on_c, 1, 48, 110
3, 107520, Note_on_c, 1, 60, 110
3, 107644, Note_off_c, 1, 48, 100
3, 107644, Note_off_c, 1, 60, 100
3, 107648, Note_on_c, 1, 46, 110
3, 107648, Note_on_c, 1, 58, 110
3, 107772, Note_off_c, 1, 46, 100
3, 107772, Note_off_c, 1, 58, 100
3, 107776, Note_on_c, 1, 45, 110
3, 107776, Note_on_c, 1, 57, 110
3, 107900, Note_off_c, 1, 45, 100
3, 107900, Note_off_c, 1, 57, 100
3, 107904, Note_on_c, 1, 43, 110
3, 107904, Note_on_c, 1, 55, 110
3, 108028, Note_off_c, 1, 43, 100
3, 108028, Note_off_c, 1, 55, 100
3, 108032, Note_on_c, 1, 45, 110
3, 108032, Note_on_c, 1, 57, 110
3, 108156, Note_off_c, 1, 45, 100
3, 108156, Note_off_c, 1, 57, 100
3, 108160, Note_on_c, 1, 46, 110
3, 108160, Note_on_c, 1, 58, 110
3, 108284, Note_off_c, 1, 46, 100
3, 108284, Note_off_c, 1, 58, 100
3, 108288, Note_on_c, 1, 45, 110
3, 108288, Note_on_c, 1, 57, 110
3, 108412, Note_off_c, 1, 45, 100
3, 108412, Note_off_c, 1, 57, 100
3, 108416, Note_on_c, 1, 45, 110
3, 108416, Note_on_c, 1, 57, 110
3, 108540, Note_off_c, 1, 45, 100
3, 108540, Note_off_c, 1, 57, 100
3, 108544, Note_on_c, 1, 44, 110
3, 108544, Note_on_c, 1, 56, 110
3, 108668, Note_off_c, 1, 44, 100
3, 108668, Note_off_c, 1, 56, 100
3, 108672, Note_on_c, 1, 45, 110
3, 108672, Note_on_c, 1, 57, 110
3, 108796, Note_off_c, 1, 45, 100
3, 108796, Note_off_c, 1, 57, 100
3, 108800, Note_on_c, 1, 46, 110
3, 108800, Note_on_c, 1, 58, 110
3, 108924, Note_off_c, 1, 46, 100
3, 108924, Note_off_c, 1, 58, 100
3, 108928, Note_on_c, 1, 48, 110
3, 108928, Note_on_c, 1, 60, 110
3, 109052, Note_off_c, 1, 48, 100
3, 109052, Note_off_c, 1, 60, 100
3, 109056, Note_on_c, 1, 46, 110
3, 109056, Note_on_c, 1, 58, 110
3, 109180, Note_off_c, 1, 46, 100
3, 109180, Note_off_c, 1, 58, 100
3, 109184, Note_on_c, 1, 45, 110
3, 109184, Note_on_c, 1, 57, 110
3, 109308, Note_off_c, 1, 45, 100
3, 109308, Note_off_c, 1, 57, 100
3, 109312, Note_on_c, 1, 43, 110
3, 109312, Note_on_c, 1, 55, 110
3, 109436, Note_off_c, 1, 43, 100
3, 109436, Note_off_c, 1, 55, 100
3, 109440, Note_on_c, 1, 41, 110
3, 109440, Note_on_c, 1, 53, 110
3, 109564, Note_off_c, 1, 41, 100
3, 109564, Note_off_c, 1, 53, 100
3, 109568, Note_on_c, 1, 43, 110
3, 109568, Note_on_c, 1, 55, 110
3, 109692, Note_off_c, 1, 43, 100
3, 109692, Note_off_c, 1, 55, 100
3, 109696, Note_on_c, 1, 45, 110
3, 109696, Note_on_c, 1, 57, 110
3, 109820, Note_off_c, 1, 45, 100
3, 109820, Note_off_c, 1, 57, 100
3, 109824, Note_on_c, 1, 43, 110
3, 109824, Note_on_c, 1, 55, 110
3, 109948, Note_off_c, 1, 43, 100
3, 109948, Note_off_c, 1, 55, 100
3, 109952, Note_on_c, 1, 41, 110
3, 109952, Note_on_c, 1, 53, 110
3, 110076, Note_off_c, 1, 41, 100
3, 110076, Note_off_c, 1, 53, 100
3, 110080, Note_on_c, 1, 40, 110
3, 110080, Note_on_c, 1, 52, 110
3, 110204, Note_off_c, 1, 40, 100
3, 110204, Note_off_c, 1, 52, 100
3, 110208, Note_on_c, 1, 38, 110
3, 110208, Note_on_c, 1, 50, 110
3, 110332, Note_off_c, 1, 38, 100
3, 110332, Note_off_c, 1, 50, 100
3, 110336, Note_on_c, 1, 40, 110
3, 110336, Note_on_c, 1, 52, 110
3, 110460, Note_off_c, 1, 40, 100
3, 110460, Note_off_c, 1, 52, 100
3, 110464, Note_on_c, 1, 41, 110
3, 110464, Note_on_c, 1, 53, 110
3, 110588, Note_off_c, 1, 41, 100
3, 110588, Note_off_c, 1, 53, 100
3, 110592, Note_on_c, 1, 40, 110
3, 110592, Note_on_c, 1, 52, 110
3, 110716, Note_off_c, 1, 40, 100
3, 110716, Note_off_c, 1, 52, 100
3, 110720, Note_on_c, 1, 38, 110
3, 110720, Note_on_c, 1, 50, 110
3, 110844, Note_off_c, 1, 38, 100
3, 110844, Note_off_c, 1, 50, 100
3, 110848, Note_on_c, 1, 36, 110
3, 110848, Note_on_c, 1, 48, 110
3, 110972, Note_off_c, 1, 36, 100
3, 110972, Note_off_c, 1, 48, 100
3, 110976, Note_on_c, 1, 34, 110
3, 110976, Note_on_c, 1, 46, 110
3, 111100, Note_off_c, 1, 34, 100
3, 111100, Note_off_c, 1, 46, 100
3, 111104, Note_on_c, 1, 33, 110
3, 111104, Note_on_c, 1, 45, 110
3, 111228, Note_off_c, 1, 33, 100
3, 111228, Note_off_c, 1, 45, 100
3, 111232, Note_on_c, 1, 34, 110
3, 111232, Note_on_c, 1, 46, 110
3, 111356, Note_off_c, 1, 34, 100
3, 111356, Note_off_c, 1, 46, 100
3, 111360, Note_on_c, 1, 35, 110
3, 111360, Note_on_c, 1, 47, 110
3, 111484, Note_off_c, 1, 35, 100
3, 111484, Note_off_c, 1, 47, 100
3, 111488, Note_on_c, 1, 33, 110
3, 111488, Note_on_c, 1, 45, 110
3, 111612, Note_off_c, 1, 33, 100
3, 111612, Note_off_c, 1, 45, 100
3, 111616, Note_on_c, 1, 35, 110
3, 111616, Note_on_c, 1, 47, 110
3, 111740, Note_off_c, 1, 35, 100
3, 111740, Note_off_c, 1, 47, 100
3, 111744, Note_on_c, 1, 36, 110
3, 111744, Note_on_c, 1, 48, 110
3, 111932, Note_off_c, 1, 36, 100
3, 111932, Note_off_c, 1, 48, 100
3, 113280, Note_on_c, 1, 40, 110
3, 113280, Note_on_c, 1, 52, 110
3, 113404, Note_off_c, 1, 40, 100
3, 113404, Note_off_c, 1, 52, 100
3, 113408, Note_on_c, 1, 41, 110
3, 113408, Note_on_c, 1, 53, 110
3, 113532, Note_off_c, 1, 41, 100
3, 113532, Note_off_c, 1, 53, 100
3, 113536, Note_on_c, 1, 38, 110
3, 113536, Note_on_c, 1, 50, 110
3, 113660, Note_off_c, 1, 38, 100
3, 113660, Note_off_c, 1, 50, 100
3, 113664, Note_on_c, 1, 36, 110
3, 113664, Note_on_c, 1, 48, 110
3, 113788, Note_off_c, 1, 36, 100
3, 113788, Note_off_c, 1, 48, 100
3, 113792, Note_on_c, 1, 38, 110
3, 113792, Note_on_c, 1, 50, 110
3, 113916, Note_off_c, 1, 38, 100
3, 113916, Note_off_c, 1, 50, 100
3, 113920, Note_on_c, 1, 40, 110
3, 113920, Note_on_c, 1, 52, 110
3, 114044, Note_off_c, 1, 40, 100
3, 114044, Note_off_c, 1, 52, 100
3, 114048, Note_on_c, 1, 41, 110
3, 114048, Note_on_c, 1, 53, 110
3, 114172, Note_off_c, 1, 41, 100
3, 114172, Note_off_c, 1, 53, 100
3, 114176, Note_on_c, 1, 43, 110
3, 114176, Note_on_c, 1, 55, 110
3, 114300, Note_off_c, 1, 43, 100
3, 114300, Note_off_c, 1, 55, 100
3, 114304, Note_on_c, 1, 40, 110
3, 114304, Note_on_c, 1, 52, 110
3, 114428, Note_off_c, 1, 40, 100
3, 114428, Note_off_c, 1, 52, 100
3, 114432, Note_on_c, 1, 38, 110
3, 114432, Note_on_c, 1, 50, 110
3, 114556, Note_off_c, 1, 38, 100
3, 114556, Note_off_c, 1, 50, 100
3, 114560, Note_on_c, 1, 40, 110
3, 114560, Note_on_c, 1, 52, 110
3, 114684, Note_off_c, 1, 40, 100
3, 114684, Note_off_c, 1, 52, 100
3, 114688, Note_on_c, 1, 41, 110
3, 114688, Note_on_c, 1, 53, 110
3, 114812, Note_off_c, 1, 41, 100
3, 114812, Note_off_c, 1, 53, 100
3, 114816, Note_on_c, 1, 43, 110
3, 114816, Note_on_c, 1, 55, 110
3, 114940, Note_off_c, 1, 43, 100
3, 114940, Note_off_c, 1, 55, 100
3, 114944, Note_on_c, 1, 45, 110
3, 114944, Note_on_c, 1, 57, 110
3, 115068, Note_off_c, 1, 45, 100
3, 115068, Note_off_c, 1, 57, 100
3, 115072, Note_on_c, 1, 46, 110
3, 115072, Note_on_c, 1, 58, 110
3, 115196, Note_off_c, 1, 46, 100
3, 115196, Note_off_c, 1, 58, 100
3, 115200, Note_on_c, 1, 48, 110
3, 115200, Note_on_c, 1, 60, 110
3, 115324, Note_off_c, 1, 48, 100
3, 115324, Note_off_c, 1, 60, 100
3, 115328, Note_on_c, 1, 50, 110
3, 115328, Note_on_c, 1, 62, 110
3, 115452, Note_off_c, 1, 50, 100
3, 115452, Note_off_c, 1, 62, 100
3, 115456, Note_on_c, 1, 52, 110
3, 115456, Note_on_c, 1, 64, 110
3, 115580, Note_off_c, 1, 52, 100
3, 115580, Note_off_c, 1, 64, 100
3, 115584, Note_on_c, 1, 53, 110
3, 115584, Note_on_c, 1, 65, 110
3, 115708, Note_off_c, 1, 53, 100
3, 115708, Note_off_c, 1, 65, 100
3, 115712, Note_on_c, 1, 55, 110
3, 115712, Note_on_c, 1, 67, 110
3, 115836, Note_off_c, 1, 55, 100
3, 115836, Note_off_c, 1, 67, 100
3, 115840, Note_on_c, 1, 64, 80
3, 115964, Note_off_c, 1, 64, 100
3, 115968, Note_on_c, 1, 60, 80
3, 116092, Note_off_c, 1, 60, 100
3, 116096, Note_on_c, 1, 55, 80
3, 116220, Note_off_c, 1, 55, 100
3, 116224, Note_on_c, 1, 52, 80
3, 116348, Note_off_c, 1, 52, 100
3, 116352, Note_on_c, 1, 48, 80
3, 116476, Note_off_c, 1, 48, 100
3, 116480, Note_on_c, 1, 43, 80
3, 116604, Note_off_c, 1, 43, 100
3, 116608, Note_on_c, 1, 40, 80
3, 116732, Note_off_c, 1, 40, 100
3, 116736, Note_on_c, 1, 36, 120
3, 116860, Note_off_c, 1, 36, 100
3, 116864, Note_on_c, 1, 40, 120
3, 116988, Note_off_c, 1, 40, 100
3, 116992, Note_on_c, 1, 43, 120
3, 117116, Note_off_c, 1, 43, 100
3, 117120, Note_on_c, 1, 48, 120
3, 117244, Note_off_c, 1, 48, 100
3, 117248, Note_on_c, 1, 43, 120
3, 117372, Note_off_c, 1, 43, 100
3, 117376, Note_on_c, 1, 40, 120
3, 117500, Note_off_c, 1, 40, 100
3, 117504, Note_on_c, 1, 36, 120
3, 117628, Note_off_c, 1, 36, 100
3, 117632, Note_on_c, 1, 40, 120
3, 117756, Note_off_c, 1, 40, 100
3, 117760, Note_on_c, 1, 43, 120
3, 117884, Note_off_c, 1, 43, 100
3, 117888, Note_on_c, 1, 48, 120
3, 117888, Note_on_c, 1, 36, 120
3, 119036, Note_off_c, 1, 48, 100
3, 119036, Note_off_c, 1, 36, 100
3, 119040, Note_on_c, 1, 34, 80
3, 119164, Note_off_c, 1, 34, 100
3, 119168, Note_on_c, 1, 40, 80
3, 119292, Note_off_c, 1, 40, 100
3, 119296, Note_on_c, 1, 43, 80
3, 119420, Note_off_c, 1, 43, 100
3, 119424, Note_on_c, 1, 46, 80
3, 119548, Note_off_c, 1, 46, 100
3, 119552, Note_on_c, 1, 43, 80
3, 119676, Note_off_c, 1, 43, 100
3, 119680, Note_on_c, 1, 40, 80
3, 119804, Note_off_c, 1, 40, 100
3, 119808, Note_on_c, 1, 34, 80
3, 119932, Note_off_c, 1, 34, 100
3, 119936, Note_on_c, 1, 40, 80
3, 120060, Note_off_c, 1, 40, 100
3, 120064, Note_on_c, 1, 43, 80
3, 120188, Note_off_c, 1, 43, 100
3, 120192, Note_on_c, 1, 46, 80
3, 120192, Note_on_c, 1, 34, 80
3, 120956, Note_off_c, 1, 46, 100
3, 120956, Note_off_c, 1, 34, 100
3, 121344, Note_on_c, 1, 41, 80
3, 121344, Note_on_c, 1, 33, 80
3, 121724, Note_off_c, 1, 33, 100
3, 121728, Note_on_c, 1, 34, 80
3, 121916, Note_off_c, 1, 41, 100
3, 121916, Note_off_c, 1, 34, 100
3, 122496, Note_on_c, 1, 53, 80
3, 122496, Note_on_c, 1, 48, 80
3, 122876, Note_off_c, 1, 48, 100
3, 122880, Note_on_c, 1, 49, 80
3, 123068, Note_off_c, 1, 53, 100
3, 123068, Note_off_c, 1, 49, 100
3, 123648, Note_on_c, 1, 60, 80
3, 123648, Note_on_c, 1, 65, 80
3, 123932, Note_off_c, 1, 65, 100
3, 123936, Note_on_c, 1, 69, 80
3, 124028, Note_off_c, 1, 69, 100
3, 124032, Note_on_c, 1, 72, 80
3, 124316, Note_off_c, 1, 72, 100
3, 124320, Note_on_c, 1, 69, 80
3, 124412, Note_off_c, 1, 60, 100
3, 124412, Note_off_c, 1, 69, 100
3, 124416, Note_on_c, 1, 60, 80
3, 124416, Note_on_c, 1, 70, 80
3, 124700, Note_off_c, 1, 70, 100
3, 124704, Note_on_c, 1, 67, 80
3, 124796, Note_off_c, 1, 60, 100
3, 124796, Note_off_c, 1, 67, 100
3, 124800, Note_on_c, 1, 65, 80
3, 124800, Note_on_c, 1, 69, 80
3, 125180, Note_off_c, 1, 65, 100
3, 125180, Note_off_c, 1, 69, 100
3, 125952, Note_on_c, 1, 41, 80
3, 125952, Note_on_c, 1, 33, 80
3, 126332, Note_off_c, 1, 33, 100
3, 126336, Note_on_c, 1, 34, 80
3, 126524, Note_off_c, 1, 41, 100
3, 126524, Note_off_c, 1, 34, 100
3, 127104, Note_on_c, 1, 53, 80
3, 127104, Note_on_c, 1, 48, 80
3, 127484, Note_off_c, 1, 48, 100
3, 127488, Note_on_c, 1, 49, 80
3, 127676, Note_off_c, 1, 53, 100
3, 127676, Note_off_c, 1, 49, 100
3, 128256, Note_on_c, 1, 67, 80
3, 128256, Note_on_c, 1, 60, 80
3, 128292, Note_off_c, 1, 67, 100
3, 128292, Note_on_c, 1, 65, 80
3, 128352, Note_off_c, 1, 65, 100
3, 128352, Note_on_c, 1, 64, 80
3, 128444, Note_off_c, 1, 64, 100
3, 128448, Note_on_c, 1, 65, 80
3, 128540, Note_off_c, 1, 65, 100
3, 128544, Note_on_c, 1, 69, 80
3, 128636, Note_off_c, 1, 69, 100
3, 128640, Note_on_c, 1, 72, 80
3, 128732, Note_off_c, 1, 72, 100
3, 128736, Note_on_c, 1, 71, 80
3, 128828, Note_off_c, 1, 71, 100
3, 128832, Note_on_c, 1, 72, 80
3, 128924, Note_off_c, 1, 72, 100
3, 128928, Note_on_c, 1, 69, 80
3, 129020, Note_off_c, 1, 60, 100
3, 129020, Note_off_c, 1, 69, 100
3, 129024, Note_on_c, 1, 70, 80
3, 129024, Note_on_c, 1, 60, 80
3, 129116, Note_off_c, 1, 70, 100
3, 129120, Note_on_c, 1, 69, 80
3, 129212, Note_off_c, 1, 69, 100
3, 129216, Note_on_c, 1, 70, 80
3, 129308, Note_off_c, 1, 70, 100
3, 129312, Note_on_c, 1, 67, 80
3, 129404, Note_off_c, 1, 60, 100
3, 129404, Note_off_c, 1, 67, 100
3, 129408, Note_on_c, 1, 65, 80
3, 129500, Note_off_c, 1, 65, 100
3, 129504, Note_on_c, 1, 60, 80
3, 129596, Note_off_c, 1, 60, 100
3, 129600, Note_on_c, 1, 57, 80
3, 129692, Note_off_c, 1, 57, 100
3, 129696, Note_on_c, 1, 60, 80
3, 129788, Note_off_c, 1, 60, 100
3, 129792, Note_on_c, 1, 53, 80
3, 129884, Note_off_c, 1, 53, 100
3, 129888, Note_on_c, 1, 48, 80
3, 129980, Note_off_c, 1, 48, 100
3, 129984, Note_on_c, 1, 45, 80
3, 130076, Note_off_c, 1, 45, 100
3, 130080, Note_on_c, 1, 48, 80
3, 130172, Note_off_c, 1, 48, 100
3, 130176, Note_on_c, 1, 41, 80
3, 130364, Note_off_c, 1, 41, 100
3, 130560, Note_on_c, 1, 41, 80
3, 130944, Note_on_c, 1, 46, 80
3, 131324, Note_off_c, 1, 46, 100
3, 131328, Note_on_c, 1, 52, 80
3, 131328, Note_on_c, 1, 43, 80
3, 131708, Note_off_c, 1, 41, 100
3, 131708, Note_off_c, 1, 52, 100
3, 131708, Note_off_c, 1, 43, 100
3, 131712, Note_on_c, 1, 45, 80
3, 131712, Note_on_c, 1, 41, 80
3, 132096, Note_on_c, 1, 48, 80
3, 132284, Note_off_c, 1, 45, 100
3, 132284, Note_off_c, 1, 41, 100
3, 132284, Note_off_c, 1, 48, 100
3, 132864, Note_on_c, 1, 53, 80
3, 133248, Note_on_c, 1, 58, 80
3, 133628, Note_off_c, 1, 58, 100
3, 133632, Note_on_c, 1, 64, 80
3, 133632, Note_on_c, 1, 55, 80
3, 134012, Note_off_c, 1, 53, 100
3, 134012, Note_off_c, 1, 64, 100
3, 134012, Note_off_c, 1, 55, 100
3, 134016, Note_on_c, 1, 57, 80
3, 134016, Note_on_c, 1, 53, 80
3, 134400, Note_on_c, 1, 60, 80
3, 134588, Note_off_c, 1, 57, 100
3, 134588, Note_off_c, 1, 53, 100
3, 134588, Note_off_c, 1, 60, 100
3, 135552, Note_on_c, 1, 74, 85
3, 135552, Note_on_c, 1, 65, 85
3, 135552, Note_on_c, 1, 70, 85
3, 135932, Note_off_c, 1, 65, 100
3, 135936, Note_on_c, 1, 67, 90
3, 136220, Note_off_c, 1, 70, 100
3, 136220, Note_off_c, 1, 67, 100
3, 136224, Note_on_c, 1, 65, 94
3, 136224, Note_on_c, 1, 67, 94
3, 136316, Note_off_c, 1, 74, 100
3, 136316, Note_off_c, 1, 65, 100
3, 136316, Note_off_c, 1, 67, 100
3, 136320, Note_on_c, 1, 72, 95
3, 136320, Note_on_c, 1, 67, 95
3, 136320, Note_on_c, 1, 64, 95
3, 136604, Note_off_c, 1, 67, 100
3, 136604, Note_off_c, 1, 64, 100
3, 136608, Note_on_c, 1, 69, 99
3, 136608, Note_on_c, 1, 65, 99
3, 136700, Note_off_c, 1, 72, 100
3, 136700, Note_off_c, 1, 69, 100
3, 136700, Note_off_c, 1, 65, 100
3, 136704, Note_on_c, 1, 65, 100
3, 136704, Note_on_c, 1, 62, 100
3, 136704, Note_on_c, 1, 70, 100
3, 137084, Note_off_c, 1, 65, 100
3, 137084, Note_off_c, 1, 62, 100
3, 137088, Note_on_c, 1, 67, 106
3, 137088, Note_on_c, 1, 64, 106
3, 137372, Note_off_c, 1, 67, 100
3, 137372, Note_off_c, 1, 64, 100
3, 137376, Note_on_c, 1, 65, 109
3, 137376, Note_on_c, 1, 62, 109
3, 137468, Note_off_c, 1, 70, 100
3, 137468, Note_off_c, 1, 65, 100
3, 137468, Note_off_c, 1, 62, 100
3, 137472, Note_on_c, 1, 69, 110
3, 137472, Note_on_c, 1, 64, 110
3, 137472, Note_on_c, 1, 61, 110
3, 137756, Note_off_c, 1, 64, 100
3, 137756, Note_off_c, 1, 61, 100
3, 137760, Note_on_c, 1, 65, 110
3, 137760, Note_on_c, 1, 62, 110
3, 137852, Note_off_c, 1, 69, 100
3, 137852, Note_off_c, 1, 65, 100
3, 137852, Note_off_c, 1, 62, 100
3, 137856, Note_on_c, 1, 67, 110
3, 137856, Note_on_c, 1, 62, 110
3, 137856, Note_on_c, 1, 58, 110
3, 138236, Note_off_c, 1, 67, 100
3, 138236, Note_off_c, 1, 62, 100
3, 138240, Note_on_c, 1, 62, 100
3, 138524, Note_off_c, 1, 62, 100
3, 138528, Note_on_c, 1, 67, 91
3, 138620, Note_off_c, 1, 58, 100
3, 138620, Note_off_c, 1, 67, 100
3, 138624, Note_on_c, 1, 60, 80
3, 138624, Note_on_c, 1, 67, 80
3, 138908, Note_off_c, 1, 67, 100
3, 138912, Note_on_c, 1, 64, 80
3, 139004, Note_off_c, 1, 60, 100
3, 139004, Note_off_c, 1, 64, 100
3, 139008, Note_on_c, 1, 65, 80
3, 139008, Note_on_c, 1, 53, 80
3, 139196, Note_off_c, 1, 65, 100
3, 139196, Note_off_c, 1, 53, 100
3, 139776, Note_on_c, 1, 41, 80
3, 140160, Note_on_c, 1, 46, 80
3, 140540, Note_off_c, 1, 46, 100
3, 140544, Note_on_c, 1, 52, 80
3, 140544, Note_on_c, 1, 43, 80
3, 140924, Note_off_c, 1, 41, 100
3, 140924, Note_off_c, 1, 52, 100
3, 140924, Note_off_c, 1, 43, 100
3, 140928, Note_on_c, 1, 45, 80
3, 140928, Note_on_c, 1, 41, 80
3, 141312, Note_on_c, 1, 48, 80
3, 141500, Note_off_c, 1, 45, 100
3, 141500, Note_off_c, 1, 41, 100
3, 141500, Note_off_c, 1, 48, 100
3, 142080, Note_on_c, 1, 53, 80
3, 142464, Note_on_c, 1, 58, 80
3, 142844, Note_off_c, 1, 58, 100
3, 142848, Note_on_c, 1, 55, 80
3, 142848, Note_on_c, 1, 64, 80
3, 143228, Note_off_c, 1, 53, 100
3, 143228, Note_off_c, 1, 55, 100
3, 143228, Note_off_c, 1, 64, 100
3, 143232, Note_on_c, 1, 53, 80
3, 143232, Note_on_c, 1, 57, 80
3, 143616, Note_on_c, 1, 60, 80
3, 143804, Note_off_c, 1, 53, 100
3, 143804, Note_off_c, 1, 57, 100
3, 143804, Note_off_c, 1, 60, 100
3, 144768, Note_on_c, 1, 74, 83
3, 144768, Note_on_c, 1, 70, 83
3, 144768, Note_on_c, 1, 65, 83
3, 145148, Note_off_c, 1, 65, 100
3, 145152, Note_on_c, 1, 67, 86
3, 145436, Note_off_c, 1, 70, 100
3, 145436, Note_off_c, 1, 67, 100
3, 145440, Note_on_c, 1, 67, 89
3, 145440, Note_on_c, 1, 65, 89
3, 145532, Note_off_c, 1, 74, 100
3, 145532, Note_off_c, 1, 67, 100
3, 145532, Note_off_c, 1, 65, 100
3, 145536, Note_on_c, 1, 72, 90
3, 145536, Note_on_c, 1, 67, 90
3, 145536, Note_on_c, 1, 64, 90
3, 145820, Note_off_c, 1, 67, 100
3, 145820, Note_off_c, 1, 64, 100
3, 145824, Note_on_c, 1, 69, 92
3, 145824, Note_on_c, 1, 65, 92
3, 145916, Note_off_c, 1, 72, 100
3, 145916, Note_off_c, 1, 69, 100
3, 145916, Note_off_c, 1, 65, 100
3, 145920, Note_on_c, 1, 65, 93
3, 145920, Note_on_c, 1, 62, 93
3, 145920, Note_on_c, 1, 70, 93
3, 146300, Note_off_c, 1, 65, 100
3, 146300, Note_off_c, 1, 62, 100
3, 146304, Note_on_c, 1, 67, 96
3, 146304, Note_on_c, 1, 64, 96
3, 146588, Note_off_c, 1, 67, 100
3, 146588, Note_off_c, 1, 64, 100
3, 146592, Note_on_c, 1, 65, 99
3, 146592, Note_on_c, 1, 62, 99
3, 146684, Note_off_c, 1, 70, 100
3, 146684, Note_off_c, 1, 65, 100
3, 146684, Note_off_c, 1, 62, 100
3, 146688, Note_on_c, 1, 69, 100
3, 146688, Note_on_c, 1, 64, 100
3, 146688, Note_on_c, 1, 61, 100
3, 146972, Note_off_c, 1, 64, 100
3, 146972, Note_off_c, 1, 61, 100
3, 146976, Note_on_c, 1, 65, 102
3, 146976, Note_on_c, 1, 62, 102
3, 147068, Note_off_c, 1, 69, 100
3, 147068, Note_off_c, 1, 65, 100
3, 147068, Note_off_c, 1, 62, 100
3, 147072, Note_on_c, 1, 67, 103
3, 147072, Note_on_c, 1, 62, 103
3, 147072, Note_on_c, 1, 59, 103
3, 147356, Note_off_c, 1, 67, 100
3, 147356, Note_off_c, 1, 62, 100
3, 147356, Note_off_c, 1, 59, 100
3, 147360, Note_on_c, 1, 62, 106
3, 147360, Note_on_c, 1, 59, 106
3, 147452, Note_off_c, 1, 62, 100
3, 147452, Note_off_c, 1, 59, 100
3, 147456, Note_on_c, 1, 64, 107
3, 147456, Note_on_c, 1, 60, 107
3, 147740, Note_off_c, 1, 64, 100
3, 147740, Note_off_c, 1, 60, 100
3, 147744, Note_on_c, 1, 67, 109
3, 147744, Note_on_c, 1, 58, 109
3, 147836, Note_off_c, 1, 67, 100
3, 147836, Note_off_c, 1, 58, 100
3, 147840, Note_on_c, 1, 65, 110
3, 147840, Note_on_c, 1, 57, 110
3, 148124, Note_off_c, 1, 65, 100
3, 148124, Note_off_c, 1, 57, 100
3, 148128, Note_on_c, 1, 64, 110
3, 148128, Note_on_c, 1, 60, 110
3, 148220, Note_off_c, 1, 64, 100
3, 148220, Note_off_c, 1, 60, 100
3, 148224, Note_on_c, 1, 58, 110
3, 148224, Note_on_c, 1, 62, 110
3, 148508, Note_off_c, 1, 58, 100
3, 148508, Note_off_c, 1, 62, 100
3, 148512, Note_on_c, 1, 57, 110
3, 148512, Note_on_c, 1, 65, 110
3, 148604, Note_off_c, 1, 57, 100
3, 148604, Note_off_c, 1, 65, 100
3, 148608, Note_on_c, 1, 55, 110
3, 148608, Note_on_c, 1, 64, 110
3, 148892, Note_off_c, 1, 55, 100
3, 148892, Note_off_c, 1, 64, 100
3, 148896, Note_on_c, 1, 62, 110
3, 148896, Note_on_c, 1, 58, 110
3, 148988, Note_off_c, 1, 62, 100
3, 148988, Note_off_c, 1, 58, 100
3, 148992, Note_on_c, 1, 60, 110
3, 148992, Note_on_c, 1, 57, 110
3, 149276, Note_off_c, 1, 60, 100
3, 149276, Note_off_c, 1, 57, 100
3, 149280, Note_on_c, 1, 64, 110
3, 149280, Note_on_c, 1, 55, 110
3, 149372, Note_off_c, 1, 64, 100
3, 149372, Note_off_c, 1, 55, 100
3, 149376, Note_on_c, 1, 54, 110
3, 149376, Note_on_c, 1, 62, 110
3, 149660, Note_off_c, 1, 54, 100
3, 149660, Note_off_c, 1, 62, 100
3, 149664, Note_on_c, 1, 60, 110
3, 149664, Note_on_c, 1, 57, 110
3, 149756, Note_off_c, 1, 60, 100
3, 149756, Note_off_c, 1, 57, 100
3, 149760, Note_on_c, 1, 55, 110
3, 149760, Note_on_c, 1, 58, 110
3, 150044, Note_off_c, 1, 55, 100
3, 150044, Note_off_c, 1, 58, 100
3, 150048, Note_on_c, 1, 62, 110
3, 150048, Note_on_c, 1, 53, 110
3, 150140, Note_off_c, 1, 62, 100
3, 150140, Note_off_c, 1, 53, 100
3, 150144, Note_on_c, 1, 60, 110
3, 150144, Note_on_c, 1, 52, 110
3, 150428, Note_off_c, 1, 60, 100
3, 150428, Note_off_c, 1, 52, 100
3, 150432, Note_on_c, 1, 58, 110
3, 150432, Note_on_c, 1, 55, 110
3, 150524, Note_off_c, 1, 58, 100
3, 150524, Note_off_c, 1, 55, 100
3, 150528, Note_on_c, 1, 57, 110
3, 150528, Note_on_c, 1, 53, 110
3, 150812, Note_off_c, 1, 57, 100
3, 150812, Note_off_c, 1, 53, 100
3, 150816, Note_on_c, 1, 58, 110
3, 150816, Note_on_c, 1, 55, 110
3, 150908, Note_off_c, 1, 58, 100
3, 150908, Note_off_c, 1, 55, 100
3, 150912, Note_on_c, 1, 60, 110
3, 150912, Note_on_c, 1, 57, 110
3, 151196, Note_off_c, 1, 60, 100
3, 151196, Note_off_c, 1, 57, 100
3, 151200, Note_on_c, 1, 45, 110
3, 151200, Note_on_c, 1, 48, 110
3, 151292, Note_off_c, 1, 45, 100
3, 151292, Note_off_c, 1, 48, 100
3, 151296, Note_on_c, 1, 50, 110
3, 151296, Note_on_c, 1, 46, 110
3, 151676, Note_off_c, 1, 50, 100
3, 151676, Note_off_c, 1, 46, 100
3, 152832, Note_on_c, 1, 67, 80
3, 152832, Note_on_c, 1, 62, 80
3, 152832, Note_on_c, 1, 58, 80
3, 153212, Note_off_c, 1, 67, 100
3, 153212, Note_off_c, 1, 62, 100
3, 153212, Note_off_c, 1, 58, 100
3, 153984, Note_on_c, 1, 58, 80
3, 153984, Note_on_c, 1, 55, 80
3, 153984, Note_on_c, 1, 48, 80
3, 154364, Note_off_c, 1, 58, 100
3, 154364, Note_off_c, 1, 55, 100
3, 154364, Note_off_c, 1, 48, 100
3, 158592, Note_on_c, 1, 29, 80
3, 158720, Note_on_c, 1, 41, 80
3, 158844, Note_off_c, 1, 41, 100
3, 158848, Note_on_c, 1, 41, 80
3, 158972, Note_off_c, 1, 41, 100
3, 158976, Note_on_c, 1, 41, 80
3, 159100, Note_off_c, 1, 41, 100
3, 159104, Note_on_c, 1, 41, 80
3, 159228, Note_off_c, 1, 41, 100
3, 159232, Note_on_c, 1, 41, 80
3, 159356, Note_off_c, 1, 41, 100
3, 159360, Note_on_c, 1, 41, 80
3, 159484, Note_off_c, 1, 41, 100
3, 159488, Note_on_c, 1, 41, 80
3, 159612, Note_off_c, 1, 41, 100
3, 159616, Note_on_c, 1, 41, 80
3, 159740, Note_off_c, 1, 29, 100
3, 159740, Note_off_c, 1, 41, 100
3, 159744, Note_on_c, 1, 29, 80
3, 159872, Note_on_c, 1, 41, 80
3, 159996, Note_off_c, 1, 41, 100
3, 160000, Note_on_c, 1, 41, 80
3, 160124, Note_off_c, 1, 41, 100
3, 160128, Note_on_c, 1, 41, 80
3, 160252, Note_off_c, 1, 41, 100
3, 160256, Note_on_c, 1, 41, 80
3, 160380, Note_off_c, 1, 41, 100
3, 160384, Note_on_c, 1, 41, 80
3, 160508, Note_off_c, 1, 41, 100
3, 160512, Note_on_c, 1, 41, 80
3, 160636, Note_off_c, 1, 41, 100
3, 160640, Note_on_c, 1, 41, 80
3, 160764, Note_off_c, 1, 41, 100
3, 160768, Note_on_c, 1, 41, 80
3, 160892, Note_off_c, 1, 29, 100
3, 160892, Note_off_c, 1, 41, 100
3, 160896, Note_on_c, 1, 29, 80
3, 161024, Note_on_c, 1, 41, 80
3, 161148, Note_off_c, 1, 41, 100
3, 161152, Note_on_c, 1, 41, 80
3, 161276, Note_off_c, 1, 41, 100
3, 161280, Note_on_c, 1, 41, 80
3, 161404, Note_off_c, 1, 41, 100
3, 161408, Note_on_c, 1, 41, 80
3, 161532, Note_off_c, 1, 41, 100
3, 161536, Note_on_c, 1, 41, 80
3, 161660, Note_off_c, 1, 41, 100
3, 161664, Note_on_c, 1, 41, 80
3, 161788, Note_off_c, 1, 41, 100
3, 161792, Note_on_c, 1, 41, 80
3, 161916, Note_off_c, 1, 41, 100
3, 161920, Note_on_c, 1, 41, 80
3, 162044, Note_off_c, 1, 29, 100
3, 162044, Note_off_c, 1, 41, 100
3, 162048, Note_on_c, 1, 29, 80
3, 162176, Note_on_c, 1, 41, 80
3, 162300, Note_off_c, 1, 41, 100
3, 162304, Note_on_c, 1, 41, 80
3, 162428, Note_off_c, 1, 41, 100
3, 162432, Note_on_c, 1, 41, 80
3, 162556, Note_off_c, 1, 41, 100
3, 162560, Note_on_c, 1, 41, 80
3, 162684, Note_off_c, 1, 41, 100
3, 162688, Note_on_c, 1, 41, 80
3, 162812, Note_off_c, 1, 41, 100
3, 162816, Note_on_c, 1, 41, 80
3, 162940, Note_off_c, 1, 41, 100
3, 162944, Note_on_c, 1, 41, 80
3, 163068, Note_off_c, 1, 41, 100
3, 163072, Note_on_c, 1, 41, 80
3, 163196, Note_off_c, 1, 29, 100
3, 163196, Note_off_c, 1, 41, 100
3, 163200, Note_on_c, 1, 29, 80
3, 163328, Note_on_c, 1, 41, 80
3, 163452, Note_off_c, 1, 41, 100
3, 163456, Note_on_c, 1, 41, 80
3, 163580, Note_off_c, 1, 41, 100
3, 163584, Note_on_c, 1, 41, 80
3, 163708, Note_off_c, 1, 41, 100
3, 163712, Note_on_c, 1, 41, 80
3, 163836, Note_off_c, 1, 41, 100
3, 163840, Note_on_c, 1, 41, 80
3, 163964, Note_off_c, 1, 41, 100
3, 163968, Note_on_c, 1, 41, 80
3, 164092, Note_off_c, 1, 41, 100
3, 164096, Note_on_c, 1, 41, 80
3, 164220, Note_off_c, 1, 41, 100
3, 164224, Note_on_c, 1, 41, 80
3, 164348, Note_off_c, 1, 29, 100
3, 164348, Note_off_c, 1, 41, 100
3, 164352, Note_on_c, 1, 29, 80
3, 164480, Note_on_c, 1, 41, 80
3, 164604, Note_off_c, 1, 41, 100
3, 164608, Note_on_c, 1, 41, 80
3, 164732, Note_off_c, 1, 41, 100
3, 164736, Note_on_c, 1, 41, 80
3, 164860, Note_off_c, 1, 41, 100
3, 164864, Note_on_c, 1, 41, 80
3, 164988, Note_off_c, 1, 41, 100
3, 164992, Note_on_c, 1, 41, 80
3, 165116, Note_off_c, 1, 41, 100
3, 165120, Note_on_c, 1, 41, 80
3, 165244, Note_off_c, 1, 41, 100
3, 165248, Note_on_c, 1, 41, 80
3, 165372, Note_off_c, 1, 41, 100
3, 165376, Note_on_c, 1, 41, 80
3, 165500, Note_off_c, 1, 29, 100
3, 165500, Note_off_c, 1, 41, 100
3, 165504, Note_on_c, 1, 29, 80
3, 165632, Note_on_c, 1, 41, 80
3, 165756, Note_off_c, 1, 41, 100
3, 165760, Note_on_c, 1, 41, 80
3, 165884, Note_off_c, 1, 41, 100
3, 165888, Note_on_c, 1, 41, 80
3, 166012, Note_off_c, 1, 41, 100
3, 166016, Note_on_c, 1, 41, 80
3, 166140, Note_off_c, 1, 41, 100
3, 166144, Note_on_c, 1, 41, 80
3, 166268, Note_off_c, 1, 41, 100
3, 166272, Note_on_c, 1, 41, 80
3, 166396, Note_off_c, 1, 41, 100
3, 166400, Note_on_c, 1, 41, 80
3, 166524, Note_off_c, 1, 41, 100
3, 166528, Note_on_c, 1, 41, 80
3, 166652, Note_off_c, 1, 29, 100
3, 166652, Note_off_c, 1, 41, 100
3, 166656, Note_on_c, 1, 29, 80
3, 166784, Note_on_c, 1, 41, 80
3, 166908, Note_off_c, 1, 41, 100
3, 166912, Note_on_c, 1, 41, 80
3, 167036, Note_off_c, 1, 29, 100
3, 167036, Note_off_c, 1, 41, 100
3, 167040, Note_on_c, 1, 33, 80
3, 167168, Note_on_c, 1, 41, 80
3, 167292, Note_off_c, 1, 41, 100
3, 167296, Note_on_c, 1, 41, 80
3, 167420, Note_off_c, 1, 33, 100
3, 167420, Note_off_c, 1, 41, 100
3, 167424, Note_on_c, 1, 36, 80
3, 167552, Note_on_c, 1, 41, 80
3, 167676, Note_off_c, 1, 41, 100
3, 167680, Note_on_c, 1, 41, 80
3, 167804, Note_off_c, 1, 36, 100
3, 167804, Note_off_c, 1, 41, 100
3, 167808, Note_on_c, 1, 29, 80
3, 167936, Note_on_c, 1, 41, 80
3, 168060, Note_off_c, 1, 41, 100
3, 168064, Note_on_c, 1, 41, 80
3, 168188, Note_off_c, 1, 29, 100
3, 168188, Note_off_c, 1, 41, 100
3, 168192, Note_on_c, 1, 33, 80
3, 168320, Note_on_c, 1, 41, 80
3, 168444, Note_off_c, 1, 41, 100
3, 168448, Note_on_c, 1, 41, 80
3, 168572, Note_off_c, 1, 33, 100
3, 168572, Note_off_c, 1, 41, 100
3, 168576, Note_on_c, 1, 36, 80
3, 168704, Note_on_c, 1, 41, 80
3, 168828, Note_off_c, 1, 41, 100
3, 168832, Note_on_c, 1, 41, 80
3, 168956, Note_off_c, 1, 36, 100
3, 168956, Note_off_c, 1, 41, 100
3, 168960, Note_on_c, 1, 29, 80
3, 169088, Note_on_c, 1, 41, 80
3, 169212, Note_off_c, 1, 41, 100
3, 169216, Note_on_c, 1, 41, 80
3, 169340, Note_off_c, 1, 29, 100
3, 169340, Note_off_c, 1, 41, 100
3, 169344, Note_on_c, 1, 33, 80
3, 169472, Note_on_c, 1, 41, 80
3, 169596, Note_off_c, 1, 41, 100
3, 169600, Note_on_c, 1, 41, 80
3, 169724, Note_off_c, 1, 33, 100
3, 169724, Note_off_c, 1, 41, 100
3, 169728, Note_on_c, 1, 36, 80
3, 169856, Note_on_c, 1, 41, 82
3, 169980, Note_off_c, 1, 41, 100
3, 169984, Note_on_c, 1, 41, 85
3, 170108, Note_off_c, 1, 36, 100
3, 170108, Note_off_c, 1, 41, 100
3, 170112, Note_on_c, 1, 41, 88
3, 170236, Note_off_c, 1, 41, 100
3, 170240, Note_on_c, 1, 60, 90
3, 170364, Note_off_c, 1, 60, 100
3, 170368, Note_on_c, 1, 57, 93
3, 170492, Note_off_c, 1, 57, 100
3, 170496, Note_on_c, 1, 53, 96
3, 170620, Note_off_c, 1, 53, 100
3, 170624, Note_on_c, 1, 48, 99
3, 170748, Note_off_c, 1, 48, 100
3, 170752, Note_on_c, 1, 45, 101
3, 170876, Note_off_c, 1, 45, 100
3, 170880, Note_on_c, 1, 41, 104
3, 171008, Note_on_c, 1, 53, 107
3, 171132, Note_off_c, 1, 53, 100
3, 171136, Note_on_c, 1, 53, 109
3, 171260, Note_off_c, 1, 41, 100
3, 171260, Note_off_c, 1, 53, 100
3, 171264, Note_on_c, 1, 41, 120
3, 171388, Note_off_c, 1, 41, 100
3, 171392, Note_on_c, 1, 64, 120
3, 171392, Note_on_c, 1, 61, 120
3, 171392, Note_on_c, 1, 58, 120
3, 171392, Note_on_c, 1, 55, 120
3, 171392, Note_on_c, 1, 53, 120
3, 171516, Note_off_c, 1, 64, 100
3, 171516, Note_off_c, 1, 61, 100
3, 171516, Note_off_c, 1, 58, 100
3, 171516, Note_off_c, 1, 55, 100
3, 171516, Note_off_c, 1, 53, 100
3, 171520, Note_on_c, 1, 64, 120
3, 171520, Note_on_c, 1, 61, 120
3, 171520, Note_on_c, 1, 58, 120
3, 171520, Note_on_c, 1, 55, 120
3, 171520, Note_on_c, 1, 53, 120
3, 171644, Note_off_c, 1, 64, 100
3, 171644, Note_off_c, 1, 61, 100
3, 171644, Note_off_c, 1, 58, 100
3, 171644, Note_off_c, 1, 55, 100
3, 171644, Note_off_c, 1, 53, 100
3, 171648, Note_on_c, 1, 64, 120
3, 171648, Note_on_c, 1, 61, 120
3, 171648, Note_on_c, 1, 58, 120
3, 171648, Note_on_c, 1, 55, 120
3, 171648, Note_on_c, 1, 53, 120
3, 171772, Note_off_c, 1, 64, 100
3, 171772, Note_off_c, 1, 61, 100
3, 171772, Note_off_c, 1, 58, 100
3, 171772, Note_off_c, 1, 55, 100
3, 171772, Note_off_c, 1, 53, 100
3, 171776, Note_on_c, 1, 64, 120
3, 171776, Note_on_c, 1, 61, 120
3, 171776, Note_on_c, 1, 58, 120
3, 171776, Note_on_c, 1, 55, 120
3, 171776, Note_on_c, 1, 53, 120
3, 171900, Note_off_c, 1, 64, 100
3, 171900, Note_off_c, 1, 61, 100
3, 171900, Note_off_c, 1, 58, 100
3, 171900, Note_off_c, 1, 55, 100
3, 171900, Note_off_c, 1, 53, 100
3, 171904, Note_on_c, 1, 64, 120
3, 171904, Note_on_c, 1, 61, 120
3, 171904, Note_on_c, 1, 58, 120
3, 171904, Note_on_c, 1, 55, 120
3, 171904, Note_on_c, 1, 53, 120
3, 172028, Note_off_c, 1, 64, 100
3, 172028, Note_off_c, 1, 61, 100
3, 172028, Note_off_c, 1, 58, 100
3, 172028, Note_off_c, 1, 55, 100
3, 172028, Note_off_c, 1, 53, 100
3, 172032, Note_on_c, 1, 64, 120
3, 172032, Note_on_c, 1, 61, 120
3, 172032, Note_on_c, 1, 58, 120
3, 172032, Note_on_c, 1, 55, 120
3, 172032, Note_on_c, 1, 53, 120
3, 172156, Note_off_c, 1, 64, 100
3, 172156, Note_off_c, 1, 61, 100
3, 172156, Note_off_c, 1, 58, 100
3, 172156, Note_off_c, 1, 55, 100
3, 172156, Note_off_c, 1, 53, 100
3, 172160, Note_on_c, 1, 64, 120
3, 172160, Note_on_c, 1, 61, 120
3, 172160, Note_on_c, 1, 58, 120
3, 172160, Note_on_c, 1, 55, 120
3, 172160, Note_on_c, 1, 53, 120
3, 172284, Note_off_c, 1, 64, 100
3, 172284, Note_off_c, 1, 61, 100
3, 172284, Note_off_c, 1, 58, 100
3, 172284, Note_off_c, 1, 55, 100
3, 172284, Note_off_c, 1, 53, 100
3, 172288, Note_on_c, 1, 64, 120
3, 172288, Note_on_c, 1, 61, 120
3, 172288, Note_on_c, 1, 58, 120
3, 172288, Note_on_c, 1, 55, 120
3, 172288, Note_on_c, 1, 53, 120
3, 172412, Note_off_c, 1, 64, 100
3, 172412, Note_off_c, 1, 61, 100
3, 172412, Note_off_c, 1, 58, 100
3, 172412, Note_off_c, 1, 55, 100
3, 172412, Note_off_c, 1, 53, 100
3, 172416, Note_on_c, 1, 64, 115
3, 172416, Note_on_c, 1, 61, 115
3, 172416, Note_on_c, 1, 58, 115
3, 172416, Note_on_c, 1, 55, 115
3, 172416, Note_on_c, 1, 53, 115
3, 172604, Note_off_c, 1, 64, 100
3, 172604, Note_off_c, 1, 61, 100
3, 172604, Note_off_c, 1, 58, 100
3, 172604, Note_off_c, 1, 55, 100
3, 172604, Note_off_c, 1, 53, 100
3, 172608, Note_on_c, 1, 64, 111
3, 172608, Note_on_c, 1, 61, 111
3, 172608, Note_on_c, 1, 58, 111
3, 172608, Note_on_c, 1, 55, 111
3, 172608, Note_on_c, 1, 53, 111
3, 172796, Note_off_c, 1, 64, 100
3, 172796, Note_off_c, 1, 61, 100
3, 172796, Note_off_c, 1, 58, 100
3, 172796, Note_off_c, 1, 55, 100
3, 172796, Note_off_c, 1, 53, 100
3, 172800, Note_on_c, 1, 64, 107
3, 172800, Note_on_c, 1, 61, 107
3, 172800, Note_on_c, 1, 58, 107
3, 172800, Note_on_c, 1, 55, 107
3, 172800, Note_on_c, 1, 53, 107
3, 172988, Note_off_c, 1, 64, 100
3, 172988, Note_off_c, 1, 61, 100
3, 172988, Note_off_c, 1, 58, 100
3, 172988, Note_off_c, 1, 55, 100
3, 172988, Note_off_c, 1, 53, 100
3, 172992, Note_on_c, 1, 64, 103
3, 172992, Note_on_c, 1, 61, 103
3, 172992, Note_on_c, 1, 58, 103
3, 172992, Note_on_c, 1, 55, 103
3, 172992, Note_on_c, 1, 53, 103
3, 173180, Note_off_c, 1, 64, 100
3, 173180, Note_off_c, 1, 61, 100
3, 173180, Note_off_c, 1, 58, 100
3, 173180, Note_off_c, 1, 55, 100
3, 173180, Note_off_c, 1, 53, 100
3, 173184, Note_on_c, 1, 64, 99
3, 173184, Note_on_c, 1, 61, 99
3, 173184, Note_on_c, 1, 58, 99
3, 173184, Note_on_c, 1, 55, 99
3, 173184, Note_on_c, 1, 53, 99
3, 173372, Note_off_c, 1, 64, 100
3, 173372, Note_off_c, 1, 61, 100
3, 173372, Note_off_c, 1, 58, 100
3, 173372, Note_off_c, 1, 55, 100
3, 173372, Note_off_c, 1, 53, 100
3, 173376, Note_on_c, 1, 64, 95
3, 173376, Note_on_c, 1, 61, 95
3, 173376, Note_on_c, 1, 58, 95
3, 173376, Note_on_c, 1, 55, 95
3, 173376, Note_on_c, 1, 53, 95
3, 173564, Note_off_c, 1, 64, 100
3, 173564, Note_off_c, 1, 61, 100
3, 173564, Note_off_c, 1, 58, 100
3, 173564, Note_off_c, 1, 55, 100
3, 173564, Note_off_c, 1, 53, 100
3, 173568, Note_on_c, 1, 64, 91
3, 173568, Note_on_c, 1, 60, 91
3, 173568, Note_on_c, 1, 58, 91
3, 173568, Note_on_c, 1, 55, 91
3, 173568, Note_on_c, 1, 53, 91
3, 173756, Note_off_c, 1, 64, 100
3, 173756, Note_off_c, 1, 60, 100
3, 173756, Note_off_c, 1, 58, 100
3, 173756, Note_off_c, 1, 55, 100
3, 173756, Note_off_c, 1, 53, 100
3, 173760, Note_on_c, 1, 64, 87
3, 173760, Note_on_c, 1, 60, 87
3, 173760, Note_on_c, 1, 58, 87
3, 173760, Note_on_c, 1, 55, 87
3, 173760, Note_on_c, 1, 53, 87
3, 173948, Note_off_c, 1, 64, 100
3, 173948, Note_off_c, 1, 60, 100
3, 173948, Note_off_c, 1, 58, 100
3, 173948, Note_off_c, 1, 55, 100
3, 173948, Note_off_c, 1, 53, 100
3, 173952, Note_on_c, 1, 64, 83
3, 173952, Note_on_c, 1, 60, 83
3, 173952, Note_on_c, 1, 58, 83
3, 173952, Note_on_c, 1, 55, 83
3, 173952, Note_on_c, 1, 53, 83
3, 174140, Note_off_c, 1, 64, 100
3, 174140, Note_off_c, 1, 60, 100
3, 174140, Note_off_c, 1, 58, 100
3, 174140, Note_off_c, 1, 55, 100
3, 174140, Note_off_c, 1, 53, 100
3, 174144, Note_on_c, 1, 64, 79
3, 174144, Note_on_c, 1, 60, 79
3, 174144, Note_on_c, 1, 58, 79
3, 174144, Note_on_c, 1, 55, 79
3, 174144, Note_on_c, 1, 53, 79
3, 174332, Note_off_c, 1, 64, 100
3, 174332, Note_off_c, 1, 60, 100
3, 174332, Note_off_c, 1, 58, 100
3, 174332, Note_off_c, 1, 55, 100
3, 174332, Note_off_c, 1, 53, 100
3, 174336, Note_on_c, 1, 64, 75
3, 174336, Note_on_c, 1, 60, 75
3, 174336, Note_on_c, 1, 58, 75
3, 174336, Note_on_c, 1, 55, 75
3, 174336, Note_on_c, 1, 53, 75
3, 174524, Note_off_c, 1, 64, 100
3, 174524, Note_off_c, 1, 60, 100
3, 174524, Note_off_c, 1, 58, 100
3, 174524, Note_off_c, 1, 55, 100
3, 174524, Note_off_c, 1, 53, 100
3, 174528, Note_on_c, 1, 64, 71
3, 174528, Note_on_c, 1, 60, 71
3, 174528, Note_on_c, 1, 58, 71
3, 174528, Note_on_c, 1, 55, 71
3, 174528, Note_on_c, 1, 53, 71
3, 174716, Note_off_c, 1, 64, 100
3, 174716, Note_off_c, 1, 60, 100
3, 174716, Note_off_c, 1, 58, 100
3, 174716, Note_off_c, 1, 55, 100
3, 174716, Note_off_c, 1, 53, 100
3, 174720, Note_on_c, 1, 65, 70
3, 174720, Note_on_c, 1, 60, 70
3, 174720, Note_on_c, 1, 57, 70
3, 174720, Note_on_c, 1, 53, 70
3, 175100, Note_off_c, 1, 65, 100
3, 175100, Note_off_c, 1, 60, 100
3, 175100, Note_off_c, 1, 57, 100
3, 175100, Note_off_c, 1, 53, 100
3, 175488, Note_on_c, 1, 55, 70
3, 175488, Note_on_c, 1, 48, 70
3, 175868, Note_off_c, 1, 55, 100
3, 175868, Note_off_c, 1, 48, 100
3, 175872, Note_on_c, 1, 57, 70
3, 175872, Note_on_c, 1, 53, 70
3, 176252, Note_off_c, 1, 57, 100
3, 176252, Note_off_c, 1, 53, 100
3, 176640, Note_on_c, 1, 36, 70
3, 177020, Note_off_c, 1, 36, 100
3, 177024, Note_on_c, 1, 36, 70
3, 178172, Note_off_c, 1, 36, 100
3, 178176, Note_on_c, 1, 41, 70
3, 178176, Note_on_c, 1, 29, 70
3, 178748, Note_off_c, 1, 41, 100
3, 178748, Note_off_c, 1, 29, 100
3, 178748, End_track
0, 0, End_of_file
