0, 0, Header, 1, 3, 384
1, 0, Start_track
1, 0, Title_t, "L.v.Beethoven 2-3mov - Piano Sonata No.23 in F minor Op.57\000"
1, 0, Copyright_t, "Copyright(C) 1995-2009, Suzuki Software\000"
1, 0, Sequencer_specific, 9, 67, 123, 0, 88, 70, 48, 50, 0, 1
1, 0, Text_t, "XFhd:2000/08/29:JP:Classical::::L.v.Beethoven:::Kaoru Suzuki\000"
1, 0, Text_t, "XFln:JP:\203s\203A\203m\203\\\203i\203^\221æ23\224Ô\203w\222Z\222²\215ì\225i57\201`\221æ2¥3\212y\217Í:L.v.\203x\201[\203g\201[\203\224\203F\203\223:::\227é\202¿\202á\202ñ:\227é\202¿\202á\202ñ\000"
1, 0, Time_signature, 2, 2, 96, 8
1, 0, Sequencer_specific, 3, 0, 0, 65
1, 0, Sequencer_specific, 5, 0, 0, 119, 14, 0
1, 0, Tempo, 1200000
1, 768, Tempo, 1333333
1, 1728, Tempo, 1200000
1, 3840, Tempo, 1276595
1, 4800, Tempo, 1200000
1, 6912, Tempo, 1304347
1, 7872, Tempo, 1200000
1, 9984, Tempo, 1276595
1, 10944, Tempo, 1200000
1, 13056, Tempo, 1276595
1, 13344, Tempo, 1200000
1, 14592, Tempo, 1333333
1, 14880, Tempo, 1200000
1, 15744, Tempo, 1276595
1, 16128, Tempo, 1333333
1, 16512, Tempo, 1276595
1, 16704, Tempo, 1395348
1, 16896, Tempo, 1200000
1, 20544, Tempo, 1304347
1, 21120, Tempo, 1363636
1, 21312, Tempo, 1428571
1, 21504, Tempo, 1200000
1, 21888, Tempo, 1276595
1, 22656, Tempo, 1333333
1, 22848, Tempo, 1428571
1, 23040, Tempo, 1200000
1, 48768, Tempo, 1333333
1, 48960, Tempo, 1714285
1, 49152, Tempo, 1000000
1, 71424, Tempo, 1090909
1, 71808, Tempo, 1052631
1, 72192, Tempo, 1000000
1, 73344, Tempo, 857142
1, 96576, Tempo, 1000000
1, 96960, Tempo, 857142
1, 97728, Tempo, 923076
1, 97920, Tempo, 1000000
1, 98112, Tempo, 1500000
1, 98200, Tempo, 2000000
1, 98304, Tempo, 1200000
1, 100992, Tempo, 1333333
1, 101184, Tempo, 1500000
1, 101280, Tempo, 2000000
1, 101472, Tempo, 1200000
1, 104064, Tempo, 1333333
1, 104256, Tempo, 1500000
1, 104352, Tempo, 2000000
1, 104448, Tempo, 1500000
1, 104640, Tempo, 1200000
1, 109056, Tempo, 1200000
1, 109440, Tempo, 2000000
1, 110592, Tempo, 428571
1, 112128, Tempo, 500000
1, 112896, Tempo, 400000
1, 177408, Tempo, 413793
1, 177792, Tempo, 428571
1, 177984, Tempo, 461538
1, 178368, Tempo, 400000
1, 208320, Tempo, 413793
1, 208512, Tempo, 428571
1, 208704, Tempo, 461538
1, 209088, Tempo, 400000
1, 246528, Tempo, 413793
1, 246912, Tempo, 428571
1, 247104, Tempo, 500000
1, 247488, Tempo, 400000
1, 274176, Tempo, 428571
1, 274944, Tempo, 400000
1, 285696, Tempo, 428571
1, 286464, Tempo, 461538
1, 287232, Tempo, 400000
1, 324864, Tempo, 413793
1, 325248, Tempo, 428571
1, 325440, Tempo, 461538
1, 325824, Tempo, 400000
1, 342912, Tempo, 413793
1, 343296, Tempo, 428571
1, 343680, Tempo, 444444
1, 343872, Tempo, 500000
1, 344256, Tempo, 400000
1, 353664, Tempo, 413793
1, 354048, Tempo, 428571
1, 354432, Tempo, 461538
1, 354624, Tempo, 500000
1, 354904, Tempo, 428571
1, 355008, Tempo, 400000
1, 392064, Tempo, 413793
1, 392448, Tempo, 437956
1, 392832, Tempo, 461538
1, 393024, Tempo, 500000
1, 393216, Tempo, 444444
1, 393408, Tempo, 413793
1, 393600, Tempo, 400000
1, 431616, Tempo, 428571
1, 432384, Tempo, 461538
1, 433152, Tempo, 400000
1, 489984, Tempo, 375000
1, 491520, Tempo, 363636
1, 492288, Tempo, 352941
1, 493056, Tempo, 333333
1, 493824, Tempo, 300000
1, 542208, Tempo, 315789
1, 542592, Tempo, 333333
1, 542784, Tempo, 375000
1, 543168, Tempo, 300000
1, 548352, Tempo, 333333
1, 548352, End_track
2, 0, Start_track
2, 0, Title_t, "Right"
2, 0, Control_c, 0, 0, 0
2, 0, Program_c, 0, 0
2, 0, Control_c, 0, 7, 100
2, 0, Control_c, 0, 10, 77
2, 0, Control_c, 0, 91, 127
2, 0, Key_signature, -5, "major"
2, 0, Note_on_c, 0, 56, 80
2, 0, Note_on_c, 0, 53, 80
2, 0, Note_on_c, 0, 49, 80
2, 380, Note_off_c, 0, 56, 100
2, 380, Note_off_c, 0, 53, 100
2, 380, Note_off_c, 0, 49, 100
2, 384, Note_on_c, 0, 58, 80
2, 384, Note_on_c, 0, 54, 80
2, 384, Note_on_c, 0, 49, 80
2, 764, Note_off_c, 0, 58, 100
2, 764, Note_off_c, 0, 54, 100
2, 764, Note_off_c, 0, 49, 100
2, 768, Note_on_c, 0, 56, 80
2, 768, Note_on_c, 0, 53, 80
2, 768, Note_on_c, 0, 49, 80
2, 1340, Note_off_c, 0, 56, 100
2, 1340, Note_off_c, 0, 53, 100
2, 1340, Note_off_c, 0, 49, 100
2, 1344, Note_on_c, 0, 58, 80
2, 1344, Note_on_c, 0, 51, 80
2, 1344, Note_on_c, 0, 49, 80
2, 1532, Note_off_c, 0, 58, 100
2, 1532, Note_off_c, 0, 51, 100
2, 1532, Note_off_c, 0, 49, 100
2, 1536, Note_on_c, 0, 56, 80
2, 1536, Note_on_c, 0, 51, 80
2, 1536, Note_on_c, 0, 49, 80
2, 1916, Note_off_c, 0, 56, 100
2, 1916, Note_off_c, 0, 51, 100
2, 1916, Note_off_c, 0, 49, 100
2, 1920, Note_on_c, 0, 56, 80
2, 1920, Note_on_c, 0, 51, 80
2, 1920, Note_on_c, 0, 48, 80
2, 2300, Note_off_c, 0, 56, 100
2, 2300, Note_off_c, 0, 51, 100
2, 2300, Note_off_c, 0, 48, 100
2, 2304, Note_on_c, 0, 56, 80
2, 2304, Note_on_c, 0, 53, 80
2, 2304, Note_on_c, 0, 49, 80
2, 3068, Note_off_c, 0, 56, 100
2, 3068, Note_off_c, 0, 53, 100
2, 3068, Note_off_c, 0, 49, 100
2, 3072, Note_on_c, 0, 61, 80
2, 3072, Note_on_c, 0, 56, 80
2, 3072, Note_on_c, 0, 53, 80
2, 3452, Note_off_c, 0, 61, 100
2, 3452, Note_off_c, 0, 56, 100
2, 3452, Note_off_c, 0, 53, 100
2, 3456, Note_on_c, 0, 61, 95
2, 3456, Note_on_c, 0, 58, 95
2, 3456, Note_on_c, 0, 54, 95
2, 3836, Note_off_c, 0, 61, 100
2, 3836, Note_off_c, 0, 58, 100
2, 3836, Note_off_c, 0, 54, 100
2, 3840, Note_on_c, 0, 61, 80
2, 3840, Note_on_c, 0, 56, 80
2, 3840, Note_on_c, 0, 53, 80
2, 4412, Note_off_c, 0, 61, 100
2, 4412, Note_off_c, 0, 56, 100
2, 4412, Note_off_c, 0, 53, 100
2, 4416, Note_on_c, 0, 61, 80
2, 4416, Note_on_c, 0, 55, 80
2, 4416, Note_on_c, 0, 52, 80
2, 4604, Note_off_c, 0, 61, 100
2, 4604, Note_off_c, 0, 55, 100
2, 4604, Note_off_c, 0, 52, 100
2, 4608, Note_on_c, 0, 61, 80
2, 4608, Note_on_c, 0, 54, 80
2, 4608, Note_on_c, 0, 51, 80
2, 4988, Note_off_c, 0, 61, 100
2, 4988, Note_off_c, 0, 54, 100
2, 4988, Note_off_c, 0, 51, 100
2, 4992, Note_on_c, 0, 60, 80
2, 4992, Note_on_c, 0, 54, 80
2, 4992, Note_on_c, 0, 51, 80
2, 5372, Note_off_c, 0, 60, 100
2, 5372, Note_off_c, 0, 54, 100
2, 5372, Note_off_c, 0, 51, 100
2, 5376, Note_on_c, 0, 61, 80
2, 5376, Note_on_c, 0, 53, 80
2, 5376, Note_on_c, 0, 49, 80
2, 5948, Note_off_c, 0, 61, 100
2, 5948, Note_off_c, 0, 53, 100
2, 5948, Note_off_c, 0, 49, 100
2, 6144, Note_on_c, 0, 56, 80
2, 6144, Note_on_c, 0, 53, 80
2, 6144, Note_on_c, 0, 49, 80
2, 6524, Note_off_c, 0, 56, 100
2, 6524, Note_off_c, 0, 53, 100
2, 6524, Note_off_c, 0, 49, 100
2, 6528, Note_on_c, 0, 58, 80
2, 6528, Note_on_c, 0, 54, 80
2, 6528, Note_on_c, 0, 49, 80
2, 6908, Note_off_c, 0, 58, 100
2, 6908, Note_off_c, 0, 54, 100
2, 6908, Note_off_c, 0, 49, 100
2, 6912, Note_on_c, 0, 56, 80
2, 6912, Note_on_c, 0, 53, 80
2, 6912, Note_on_c, 0, 49, 80
2, 7484, Note_off_c, 0, 56, 100
2, 7484, Note_off_c, 0, 53, 100
2, 7484, Note_off_c, 0, 49, 100
2, 7488, Note_on_c, 0, 58, 80
2, 7488, Note_on_c, 0, 51, 80
2, 7488, Note_on_c, 0, 49, 80
2, 7676, Note_off_c, 0, 58, 100
2, 7676, Note_off_c, 0, 51, 100
2, 7676, Note_off_c, 0, 49, 100
2, 7680, Note_on_c, 0, 56, 80
2, 7680, Note_on_c, 0, 51, 80
2, 7680, Note_on_c, 0, 49, 80
2, 8060, Note_off_c, 0, 56, 100
2, 8060, Note_off_c, 0, 51, 100
2, 8060, Note_off_c, 0, 49, 100
2, 8064, Note_on_c, 0, 56, 80
2, 8064, Note_on_c, 0, 51, 80
2, 8064, Note_on_c, 0, 48, 80
2, 8444, Note_off_c, 0, 56, 100
2, 8444, Note_off_c, 0, 51, 100
2, 8444, Note_off_c, 0, 48, 100
2, 8448, Note_on_c, 0, 56, 80
2, 8448, Note_on_c, 0, 53, 80
2, 8448, Note_on_c, 0, 49, 80
2, 9212, Note_off_c, 0, 56, 100
2, 9212, Note_off_c, 0, 53, 100
2, 9212, Note_off_c, 0, 49, 100
2, 9216, Note_on_c, 0, 61, 80
2, 9216, Note_on_c, 0, 56, 80
2, 9216, Note_on_c, 0, 53, 80
2, 9596, Note_off_c, 0, 61, 100
2, 9596, Note_off_c, 0, 56, 100
2, 9596, Note_off_c, 0, 53, 100
2, 9600, Note_on_c, 0, 61, 95
2, 9600, Note_on_c, 0, 58, 95
2, 9600, Note_on_c, 0, 54, 95
2, 9980, Note_off_c, 0, 61, 100
2, 9980, Note_off_c, 0, 58, 100
2, 9980, Note_off_c, 0, 54, 100
2, 9984, Note_on_c, 0, 61, 80
2, 9984, Note_on_c, 0, 56, 80
2, 9984, Note_on_c, 0, 53, 80
2, 10556, Note_off_c, 0, 61, 100
2, 10556, Note_off_c, 0, 56, 100
2, 10556, Note_off_c, 0, 53, 100
2, 10560, Note_on_c, 0, 61, 80
2, 10560, Note_on_c, 0, 55, 80
2, 10560, Note_on_c, 0, 52, 80
2, 10748, Note_off_c, 0, 61, 100
2, 10748, Note_off_c, 0, 55, 100
2, 10748, Note_off_c, 0, 52, 100
2, 10752, Note_on_c, 0, 61, 80
2, 10752, Note_on_c, 0, 54, 80
2, 10752, Note_on_c, 0, 51, 80
2, 11132, Note_off_c, 0, 61, 100
2, 11132, Note_off_c, 0, 54, 100
2, 11132, Note_off_c, 0, 51, 100
2, 11136, Note_on_c, 0, 60, 80
2, 11136, Note_on_c, 0, 54, 80
2, 11136, Note_on_c, 0, 51, 80
2, 11516, Note_off_c, 0, 60, 100
2, 11516, Note_off_c, 0, 54, 100
2, 11516, Note_off_c, 0, 51, 100
2, 11520, Note_on_c, 0, 61, 80
2, 11520, Note_on_c, 0, 53, 80
2, 11520, Note_on_c, 0, 49, 80
2, 12092, Note_off_c, 0, 61, 100
2, 12092, Note_off_c, 0, 53, 100
2, 12092, Note_off_c, 0, 49, 100
2, 12288, Note_on_c, 0, 56, 80
2, 12288, Note_on_c, 0, 51, 80
2, 12288, Note_on_c, 0, 48, 80
2, 12668, Note_off_c, 0, 56, 100
2, 12668, Note_off_c, 0, 51, 100
2, 12668, Note_off_c, 0, 48, 100
2, 12672, Note_on_c, 0, 56, 80
2, 12672, Note_on_c, 0, 54, 80
2, 12672, Note_on_c, 0, 48, 80
2, 12956, Note_off_c, 0, 56, 100
2, 12956, Note_off_c, 0, 54, 100
2, 12956, Note_off_c, 0, 48, 100
2, 13008, Note_on_c, 0, 56, 80
2, 13008, Note_on_c, 0, 51, 80
2, 13008, Note_on_c, 0, 48, 80
2, 13052, Note_off_c, 0, 56, 100
2, 13052, Note_off_c, 0, 51, 100
2, 13052, Note_off_c, 0, 48, 100
2, 13056, Note_on_c, 0, 56, 80
2, 13056, Note_on_c, 0, 53, 80
2, 13056, Note_on_c, 0, 49, 80
2, 13340, Note_off_c, 0, 56, 100
2, 13340, Note_off_c, 0, 53, 100
2, 13340, Note_off_c, 0, 49, 100
2, 13344, Note_on_c, 0, 61, 80
2, 13344, Note_on_c, 0, 56, 80
2, 13344, Note_on_c, 0, 53, 80
2, 13436, Note_off_c, 0, 61, 100
2, 13436, Note_off_c, 0, 56, 100
2, 13436, Note_off_c, 0, 53, 100
2, 13440, Note_on_c, 0, 60, 80
2, 13440, Note_on_c, 0, 56, 80
2, 13440, Note_on_c, 0, 54, 80
2, 13628, Note_off_c, 0, 60, 100
2, 13628, Note_off_c, 0, 56, 100
2, 13628, Note_off_c, 0, 54, 100
2, 13632, Note_on_c, 0, 61, 80
2, 13632, Note_on_c, 0, 56, 80
2, 13632, Note_on_c, 0, 53, 80
2, 13820, Note_off_c, 0, 61, 100
2, 13820, Note_off_c, 0, 56, 100
2, 13820, Note_off_c, 0, 53, 100
2, 13824, Note_on_c, 0, 56, 80
2, 13824, Note_on_c, 0, 51, 80
2, 13824, Note_on_c, 0, 48, 80
2, 14204, Note_off_c, 0, 56, 100
2, 14204, Note_off_c, 0, 51, 100
2, 14204, Note_off_c, 0, 48, 100
2, 14208, Note_on_c, 0, 56, 80
2, 14208, Note_on_c, 0, 54, 80
2, 14208, Note_on_c, 0, 48, 80
2, 14492, Note_off_c, 0, 56, 100
2, 14492, Note_off_c, 0, 54, 100
2, 14492, Note_off_c, 0, 48, 100
2, 14544, Note_on_c, 0, 56, 80
2, 14544, Note_on_c, 0, 51, 80
2, 14544, Note_on_c, 0, 48, 80
2, 14588, Note_off_c, 0, 56, 100
2, 14588, Note_off_c, 0, 51, 100
2, 14588, Note_off_c, 0, 48, 100
2, 14592, Note_on_c, 0, 56, 80
2, 14592, Note_on_c, 0, 53, 80
2, 14592, Note_on_c, 0, 49, 80
2, 14876, Note_off_c, 0, 56, 100
2, 14876, Note_off_c, 0, 53, 100
2, 14876, Note_off_c, 0, 49, 100
2, 14880, Note_on_c, 0, 56, 80
2, 14880, Note_on_c, 0, 53, 80
2, 14880, Note_on_c, 0, 65, 80
2, 14972, Note_off_c, 0, 56, 100
2, 14972, Note_off_c, 0, 53, 100
2, 14972, Note_off_c, 0, 65, 100
2, 14976, Note_on_c, 0, 56, 80
2, 14976, Note_on_c, 0, 54, 80
2, 14976, Note_on_c, 0, 65, 80
2, 15068, Note_off_c, 0, 65, 100
2, 15072, Note_on_c, 0, 63, 80
2, 15164, Note_off_c, 0, 56, 100
2, 15164, Note_off_c, 0, 54, 100
2, 15164, Note_off_c, 0, 63, 100
2, 15168, Note_on_c, 0, 56, 80
2, 15168, Note_on_c, 0, 53, 80
2, 15168, Note_on_c, 0, 61, 80
2, 15356, Note_off_c, 0, 56, 100
2, 15356, Note_off_c, 0, 53, 100
2, 15356, Note_off_c, 0, 61, 100
2, 15360, Note_on_c, 0, 56, 80
2, 15360, Note_on_c, 0, 51, 80
2, 15360, Note_on_c, 0, 48, 80
2, 15740, Note_off_c, 0, 56, 100
2, 15740, Note_off_c, 0, 51, 100
2, 15740, Note_off_c, 0, 48, 100
2, 15744, Note_on_c, 0, 56, 80
2, 15744, Note_on_c, 0, 54, 80
2, 15744, Note_on_c, 0, 48, 80
2, 16028, Note_off_c, 0, 56, 100
2, 16028, Note_off_c, 0, 54, 100
2, 16028, Note_off_c, 0, 48, 100
2, 16080, Note_on_c, 0, 56, 80
2, 16080, Note_on_c, 0, 51, 80
2, 16080, Note_on_c, 0, 48, 80
2, 16124, Note_off_c, 0, 56, 100
2, 16124, Note_off_c, 0, 51, 100
2, 16124, Note_off_c, 0, 48, 100
2, 16128, Note_on_c, 0, 68, 80
2, 16128, Note_on_c, 0, 61, 80
2, 16128, Note_on_c, 0, 56, 80
2, 16412, Note_off_c, 0, 68, 100
2, 16412, Note_off_c, 0, 61, 100
2, 16412, Note_off_c, 0, 56, 100
2, 16416, Note_on_c, 0, 68, 80
2, 16416, Note_on_c, 0, 65, 80
2, 16416, Note_on_c, 0, 61, 80
2, 16508, Note_off_c, 0, 68, 100
2, 16508, Note_off_c, 0, 65, 100
2, 16508, Note_off_c, 0, 61, 100
2, 16512, Note_on_c, 0, 68, 80
2, 16512, Note_on_c, 0, 63, 80
2, 16512, Note_on_c, 0, 60, 80
2, 16604, Note_off_c, 0, 68, 100
2, 16608, Note_on_c, 0, 66, 80
2, 16700, Note_off_c, 0, 63, 100
2, 16700, Note_off_c, 0, 60, 100
2, 16700, Note_off_c, 0, 66, 100
2, 16704, Note_on_c, 0, 65, 80
2, 16704, Note_on_c, 0, 61, 80
2, 16704, Note_on_c, 0, 56, 80
2, 16892, Note_off_c, 0, 65, 100
2, 16892, Note_off_c, 0, 61, 100
2, 16892, Note_off_c, 0, 56, 100
2, 16896, Note_on_c, 0, 63, 80
2, 16896, Note_on_c, 0, 58, 80
2, 16896, Note_on_c, 0, 54, 80
2, 17276, Note_off_c, 0, 63, 100
2, 17276, Note_off_c, 0, 58, 100
2, 17276, Note_off_c, 0, 54, 100
2, 17280, Note_on_c, 0, 56, 80
2, 17280, Note_on_c, 0, 51, 80
2, 17280, Note_on_c, 0, 48, 80
2, 17660, Note_off_c, 0, 56, 100
2, 17660, Note_off_c, 0, 51, 100
2, 17660, Note_off_c, 0, 48, 100
2, 17664, Note_on_c, 0, 61, 80
2, 17664, Note_on_c, 0, 53, 80
2, 17664, Note_on_c, 0, 49, 80
2, 18236, Note_off_c, 0, 61, 100
2, 18236, Note_off_c, 0, 53, 100
2, 18236, Note_off_c, 0, 49, 100
2, 18432, Note_on_c, 0, 56, 80
2, 18432, Note_on_c, 0, 51, 80
2, 18432, Note_on_c, 0, 48, 80
2, 18812, Note_off_c, 0, 56, 100
2, 18812, Note_off_c, 0, 51, 100
2, 18812, Note_off_c, 0, 48, 100
2, 18816, Note_on_c, 0, 56, 80
2, 18816, Note_on_c, 0, 54, 80
2, 18816, Note_on_c, 0, 48, 80
2, 19100, Note_off_c, 0, 56, 100
2, 19100, Note_off_c, 0, 54, 100
2, 19100, Note_off_c, 0, 48, 100
2, 19152, Note_on_c, 0, 56, 80
2, 19152, Note_on_c, 0, 51, 80
2, 19152, Note_on_c, 0, 48, 80
2, 19196, Note_off_c, 0, 56, 100
2, 19196, Note_off_c, 0, 51, 100
2, 19196, Note_off_c, 0, 48, 100
2, 19200, Note_on_c, 0, 56, 80
2, 19200, Note_on_c, 0, 53, 80
2, 19200, Note_on_c, 0, 49, 80
2, 19484, Note_off_c, 0, 56, 100
2, 19484, Note_off_c, 0, 53, 100
2, 19484, Note_off_c, 0, 49, 100
2, 19488, Note_on_c, 0, 61, 80
2, 19488, Note_on_c, 0, 56, 80
2, 19488, Note_on_c, 0, 53, 80
2, 19580, Note_off_c, 0, 61, 100
2, 19580, Note_off_c, 0, 56, 100
2, 19580, Note_off_c, 0, 53, 100
2, 19584, Note_on_c, 0, 60, 80
2, 19584, Note_on_c, 0, 56, 80
2, 19584, Note_on_c, 0, 54, 80
2, 19772, Note_off_c, 0, 60, 100
2, 19772, Note_off_c, 0, 56, 100
2, 19772, Note_off_c, 0, 54, 100
2, 19776, Note_on_c, 0, 61, 80
2, 19776, Note_on_c, 0, 56, 80
2, 19776, Note_on_c, 0, 53, 80
2, 19964, Note_off_c, 0, 61, 100
2, 19964, Note_off_c, 0, 56, 100
2, 19964, Note_off_c, 0, 53, 100
2, 19968, Note_on_c, 0, 56, 80
2, 19968, Note_on_c, 0, 51, 80
2, 19968, Note_on_c, 0, 48, 80
2, 20348, Note_off_c, 0, 56, 100
2, 20348, Note_off_c, 0, 51, 100
2, 20348, Note_off_c, 0, 48, 100
2, 20352, Note_on_c, 0, 56, 80
2, 20352, Note_on_c, 0, 54, 80
2, 20352, Note_on_c, 0, 48, 80
2, 20636, Note_off_c, 0, 56, 100
2, 20636, Note_off_c, 0, 54, 100
2, 20636, Note_off_c, 0, 48, 100
2, 20688, Note_on_c, 0, 56, 80
2, 20688, Note_on_c, 0, 51, 80
2, 20688, Note_on_c, 0, 48, 80
2, 20732, Note_off_c, 0, 56, 100
2, 20732, Note_off_c, 0, 51, 100
2, 20732, Note_off_c, 0, 48, 100
2, 20736, Note_on_c, 0, 56, 80
2, 20736, Note_on_c, 0, 53, 80
2, 20736, Note_on_c, 0, 49, 80
2, 21020, Note_off_c, 0, 56, 100
2, 21020, Note_off_c, 0, 53, 100
2, 21020, Note_off_c, 0, 49, 100
2, 21024, Note_on_c, 0, 56, 80
2, 21024, Note_on_c, 0, 53, 80
2, 21024, Note_on_c, 0, 65, 80
2, 21116, Note_off_c, 0, 56, 100
2, 21116, Note_off_c, 0, 53, 100
2, 21116, Note_off_c, 0, 65, 100
2, 21120, Note_on_c, 0, 56, 80
2, 21120, Note_on_c, 0, 54, 80
2, 21120, Note_on_c, 0, 65, 80
2, 21212, Note_off_c, 0, 65, 100
2, 21216, Note_on_c, 0, 63, 80
2, 21308, Note_off_c, 0, 56, 100
2, 21308, Note_off_c, 0, 54, 100
2, 21308, Note_off_c, 0, 63, 100
2, 21312, Note_on_c, 0, 56, 80
2, 21312, Note_on_c, 0, 53, 80
2, 21312, Note_on_c, 0, 61, 80
2, 21500, Note_off_c, 0, 56, 100
2, 21500, Note_off_c, 0, 53, 100
2, 21500, Note_off_c, 0, 61, 100
2, 21504, Note_on_c, 0, 56, 80
2, 21504, Note_on_c, 0, 51, 80
2, 21504, Note_on_c, 0, 48, 80
2, 21884, Note_off_c, 0, 56, 100
2, 21884, Note_off_c, 0, 51, 100
2, 21884, Note_off_c, 0, 48, 100
2, 21888, Note_on_c, 0, 56, 80
2, 21888, Note_on_c, 0, 54, 80
2, 21888, Note_on_c, 0, 48, 80
2, 22172, Note_off_c, 0, 56, 100
2, 22172, Note_off_c, 0, 54, 100
2, 22172, Note_off_c, 0, 48, 100
2, 22224, Note_on_c, 0, 56, 80
2, 22224, Note_on_c, 0, 51, 80
2, 22224, Note_on_c, 0, 48, 80
2, 22268, Note_off_c, 0, 56, 100
2, 22268, Note_off_c, 0, 51, 100
2, 22268, Note_off_c, 0, 48, 100
2, 22272, Note_on_c, 0, 68, 80
2, 22272, Note_on_c, 0, 61, 80
2, 22272, Note_on_c, 0, 56, 80
2, 22556, Note_off_c, 0, 68, 100
2, 22556, Note_off_c, 0, 61, 100
2, 22556, Note_off_c, 0, 56, 100
2, 22560, Note_on_c, 0, 68, 80
2, 22560, Note_on_c, 0, 65, 80
2, 22560, Note_on_c, 0, 61, 80
2, 22652, Note_off_c, 0, 68, 100
2, 22652, Note_off_c, 0, 65, 100
2, 22652, Note_off_c, 0, 61, 100
2, 22656, Note_on_c, 0, 68, 80
2, 22656, Note_on_c, 0, 63, 80
2, 22656, Note_on_c, 0, 60, 80
2, 22748, Note_off_c, 0, 68, 100
2, 22752, Note_on_c, 0, 66, 80
2, 22844, Note_off_c, 0, 63, 100
2, 22844, Note_off_c, 0, 60, 100
2, 22844, Note_off_c, 0, 66, 100
2, 22848, Note_on_c, 0, 65, 80
2, 22848, Note_on_c, 0, 61, 80
2, 22848, Note_on_c, 0, 56, 80
2, 23036, Note_off_c, 0, 65, 100
2, 23036, Note_off_c, 0, 61, 100
2, 23036, Note_off_c, 0, 56, 100
2, 23040, Note_on_c, 0, 63, 80
2, 23040, Note_on_c, 0, 58, 80
2, 23040, Note_on_c, 0, 54, 80
2, 23420, Note_off_c, 0, 63, 100
2, 23420, Note_off_c, 0, 58, 100
2, 23420, Note_off_c, 0, 54, 100
2, 23424, Note_on_c, 0, 56, 80
2, 23424, Note_on_c, 0, 51, 80
2, 23424, Note_on_c, 0, 48, 80
2, 23804, Note_off_c, 0, 56, 100
2, 23804, Note_off_c, 0, 51, 100
2, 23804, Note_off_c, 0, 48, 100
2, 23808, Note_on_c, 0, 61, 80
2, 23808, Note_on_c, 0, 53, 80
2, 23808, Note_on_c, 0, 49, 80
2, 24380, Note_off_c, 0, 61, 100
2, 24380, Note_off_c, 0, 53, 100
2, 24380, Note_off_c, 0, 49, 100
2, 24576, Note_on_c, 0, 56, 80
2, 24576, Note_on_c, 0, 49, 80
2, 24576, Note_on_c, 0, 53, 80
2, 24764, Note_off_c, 0, 56, 100
2, 24764, Note_off_c, 0, 49, 100
2, 24764, Note_off_c, 0, 53, 100
2, 24960, Note_on_c, 0, 58, 80
2, 24960, Note_on_c, 0, 54, 80
2, 24960, Note_on_c, 0, 49, 80
2, 25148, Note_off_c, 0, 58, 100
2, 25148, Note_off_c, 0, 54, 100
2, 25148, Note_off_c, 0, 49, 100
2, 25344, Note_on_c, 0, 56, 80
2, 25344, Note_on_c, 0, 53, 80
2, 25344, Note_on_c, 0, 49, 80
2, 25532, Note_off_c, 0, 56, 100
2, 25532, Note_off_c, 0, 53, 100
2, 25532, Note_off_c, 0, 49, 100
2, 25728, Note_on_c, 0, 58, 80
2, 25728, Note_on_c, 0, 51, 80
2, 25728, Note_on_c, 0, 49, 80
2, 25916, Note_off_c, 0, 58, 100
2, 25916, Note_off_c, 0, 51, 100
2, 25916, Note_off_c, 0, 49, 100
2, 26112, Note_on_c, 0, 56, 80
2, 26112, Note_on_c, 0, 51, 80
2, 26112, Note_on_c, 0, 49, 80
2, 26300, Note_off_c, 0, 56, 100
2, 26300, Note_off_c, 0, 51, 100
2, 26300, Note_off_c, 0, 49, 100
2, 26496, Note_on_c, 0, 56, 80
2, 26496, Note_on_c, 0, 51, 80
2, 26496, Note_on_c, 0, 48, 80
2, 26684, Note_off_c, 0, 56, 100
2, 26684, Note_off_c, 0, 51, 100
2, 26684, Note_off_c, 0, 48, 100
2, 26880, Note_on_c, 0, 54, 80
2, 26972, Note_off_c, 0, 54, 100
2, 27072, Note_on_c, 0, 53, 80
2, 27164, Note_off_c, 0, 53, 100
2, 27264, Note_on_c, 0, 51, 80
2, 27356, Note_off_c, 0, 51, 100
2, 27456, Note_on_c, 0, 49, 80
2, 27548, Note_off_c, 0, 49, 100
2, 27648, Note_on_c, 0, 61, 80
2, 27648, Note_on_c, 0, 56, 80
2, 27648, Note_on_c, 0, 53, 80
2, 27836, Note_off_c, 0, 61, 100
2, 27836, Note_off_c, 0, 56, 100
2, 27836, Note_off_c, 0, 53, 100
2, 28032, Note_on_c, 0, 61, 80
2, 28032, Note_on_c, 0, 58, 80
2, 28032, Note_on_c, 0, 54, 80
2, 28220, Note_off_c, 0, 61, 100
2, 28220, Note_off_c, 0, 58, 100
2, 28220, Note_off_c, 0, 54, 100
2, 28416, Note_on_c, 0, 61, 80
2, 28416, Note_on_c, 0, 56, 80
2, 28416, Note_on_c, 0, 53, 80
2, 28604, Note_off_c, 0, 61, 100
2, 28604, Note_off_c, 0, 56, 100
2, 28604, Note_off_c, 0, 53, 100
2, 28800, Note_on_c, 0, 61, 80
2, 28800, Note_on_c, 0, 55, 80
2, 28800, Note_on_c, 0, 52, 80
2, 28988, Note_off_c, 0, 61, 100
2, 28988, Note_off_c, 0, 55, 100
2, 28988, Note_off_c, 0, 52, 100
2, 29184, Note_on_c, 0, 61, 80
2, 29184, Note_on_c, 0, 54, 80
2, 29184, Note_on_c, 0, 51, 80
2, 29372, Note_off_c, 0, 61, 100
2, 29372, Note_off_c, 0, 54, 100
2, 29372, Note_off_c, 0, 51, 100
2, 29568, Note_on_c, 0, 60, 80
2, 29568, Note_on_c, 0, 54, 80
2, 29568, Note_on_c, 0, 51, 80
2, 29756, Note_off_c, 0, 60, 100
2, 29756, Note_off_c, 0, 54, 100
2, 29756, Note_off_c, 0, 51, 100
2, 29952, Note_on_c, 0, 61, 80
2, 29952, Note_on_c, 0, 53, 80
2, 29952, Note_on_c, 0, 49, 80
2, 30044, Note_off_c, 0, 61, 100
2, 30044, Note_off_c, 0, 53, 100
2, 30044, Note_off_c, 0, 49, 100
2, 30144, Note_on_c, 0, 56, 80
2, 30236, Note_off_c, 0, 56, 100
2, 30336, Note_on_c, 0, 53, 80
2, 30428, Note_off_c, 0, 53, 100
2, 30528, Note_on_c, 0, 51, 80
2, 30620, Note_off_c, 0, 51, 100
2, 30720, Note_on_c, 0, 56, 80
2, 30720, Note_on_c, 0, 49, 80
2, 30720, Note_on_c, 0, 53, 80
2, 30908, Note_off_c, 0, 56, 100
2, 30908, Note_off_c, 0, 49, 100
2, 30908, Note_off_c, 0, 53, 100
2, 31104, Note_on_c, 0, 58, 80
2, 31104, Note_on_c, 0, 54, 80
2, 31104, Note_on_c, 0, 49, 80
2, 31292, Note_off_c, 0, 58, 100
2, 31292, Note_off_c, 0, 54, 100
2, 31292, Note_off_c, 0, 49, 100
2, 31488, Note_on_c, 0, 56, 80
2, 31488, Note_on_c, 0, 53, 80
2, 31488, Note_on_c, 0, 49, 80
2, 31676, Note_off_c, 0, 56, 100
2, 31676, Note_off_c, 0, 53, 100
2, 31676, Note_off_c, 0, 49, 100
2, 31872, Note_on_c, 0, 58, 80
2, 31872, Note_on_c, 0, 51, 80
2, 31872, Note_on_c, 0, 49, 80
2, 32060, Note_off_c, 0, 58, 100
2, 32060, Note_off_c, 0, 51, 100
2, 32060, Note_off_c, 0, 49, 100
2, 32256, Note_on_c, 0, 56, 80
2, 32256, Note_on_c, 0, 51, 80
2, 32256, Note_on_c, 0, 49, 80
2, 32444, Note_off_c, 0, 56, 100
2, 32444, Note_off_c, 0, 51, 100
2, 32444, Note_off_c, 0, 49, 100
2, 32640, Note_on_c, 0, 56, 80
2, 32640, Note_on_c, 0, 51, 80
2, 32640, Note_on_c, 0, 48, 80
2, 32828, Note_off_c, 0, 56, 100
2, 32828, Note_off_c, 0, 51, 100
2, 32828, Note_off_c, 0, 48, 100
2, 33024, Note_on_c, 0, 54, 80
2, 33116, Note_off_c, 0, 54, 100
2, 33216, Note_on_c, 0, 53, 80
2, 33308, Note_off_c, 0, 53, 100
2, 33408, Note_on_c, 0, 51, 80
2, 33500, Note_off_c, 0, 51, 100
2, 33600, Note_on_c, 0, 49, 80
2, 33692, Note_off_c, 0, 49, 100
2, 33792, Note_on_c, 0, 61, 80
2, 33792, Note_on_c, 0, 56, 80
2, 33792, Note_on_c, 0, 53, 80
2, 33980, Note_off_c, 0, 61, 100
2, 33980, Note_off_c, 0, 56, 100
2, 33980, Note_off_c, 0, 53, 100
2, 34176, Note_on_c, 0, 61, 80
2, 34176, Note_on_c, 0, 58, 80
2, 34176, Note_on_c, 0, 54, 80
2, 34364, Note_off_c, 0, 61, 100
2, 34364, Note_off_c, 0, 58, 100
2, 34364, Note_off_c, 0, 54, 100
2, 34560, Note_on_c, 0, 61, 80
2, 34560, Note_on_c, 0, 56, 80
2, 34560, Note_on_c, 0, 53, 80
2, 34748, Note_off_c, 0, 61, 100
2, 34748, Note_off_c, 0, 56, 100
2, 34748, Note_off_c, 0, 53, 100
2, 34944, Note_on_c, 0, 61, 80
2, 34944, Note_on_c, 0, 55, 80
2, 34944, Note_on_c, 0, 52, 80
2, 35132, Note_off_c, 0, 61, 100
2, 35132, Note_off_c, 0, 55, 100
2, 35132, Note_off_c, 0, 52, 100
2, 35328, Note_on_c, 0, 61, 80
2, 35328, Note_on_c, 0, 54, 80
2, 35328, Note_on_c, 0, 51, 80
2, 35516, Note_off_c, 0, 61, 100
2, 35516, Note_off_c, 0, 54, 100
2, 35516, Note_off_c, 0, 51, 100
2, 35712, Note_on_c, 0, 60, 80
2, 35712, Note_on_c, 0, 54, 80
2, 35712, Note_on_c, 0, 51, 80
2, 35900, Note_off_c, 0, 60, 100
2, 35900, Note_off_c, 0, 54, 100
2, 35900, Note_off_c, 0, 51, 100
2, 36096, Note_on_c, 0, 61, 80
2, 36096, Note_on_c, 0, 53, 80
2, 36096, Note_on_c, 0, 49, 80
2, 36188, Note_off_c, 0, 61, 100
2, 36188, Note_off_c, 0, 53, 100
2, 36188, Note_off_c, 0, 49, 100
2, 36288, Note_on_c, 0, 56, 80
2, 36380, Note_off_c, 0, 56, 100
2, 36480, Note_on_c, 0, 53, 80
2, 36572, Note_off_c, 0, 53, 100
2, 36672, Note_on_c, 0, 51, 80
2, 36764, Note_off_c, 0, 51, 100
2, 36864, Note_on_c, 0, 56, 80
2, 36864, Note_on_c, 0, 51, 80
2, 36864, Note_on_c, 0, 48, 80
2, 37052, Note_off_c, 0, 56, 100
2, 37052, Note_off_c, 0, 51, 100
2, 37052, Note_off_c, 0, 48, 100
2, 37248, Note_on_c, 0, 56, 83
2, 37248, Note_on_c, 0, 51, 83
2, 37248, Note_on_c, 0, 48, 83
2, 37436, Note_off_c, 0, 56, 100
2, 37436, Note_off_c, 0, 51, 100
2, 37436, Note_off_c, 0, 48, 100
2, 37632, Note_on_c, 0, 56, 87
2, 37632, Note_on_c, 0, 53, 87
2, 37632, Note_on_c, 0, 49, 87
2, 37820, Note_off_c, 0, 56, 100
2, 37820, Note_off_c, 0, 53, 100
2, 37820, Note_off_c, 0, 49, 100
2, 37824, Note_on_c, 0, 53, 89
2, 37916, Note_off_c, 0, 53, 100
2, 38016, Note_on_c, 0, 54, 91
2, 38108, Note_off_c, 0, 54, 100
2, 38208, Note_on_c, 0, 56, 93
2, 38300, Note_off_c, 0, 56, 100
2, 38400, Note_on_c, 0, 56, 95
2, 38400, Note_on_c, 0, 51, 95
2, 38400, Note_on_c, 0, 48, 95
2, 38588, Note_off_c, 0, 56, 100
2, 38588, Note_off_c, 0, 51, 100
2, 38588, Note_off_c, 0, 48, 100
2, 38784, Note_on_c, 0, 60, 99
2, 38784, Note_on_c, 0, 56, 99
2, 38784, Note_on_c, 0, 51, 99
2, 38972, Note_off_c, 0, 60, 100
2, 38972, Note_off_c, 0, 56, 100
2, 38972, Note_off_c, 0, 51, 100
2, 39168, Note_on_c, 0, 61, 103
2, 39168, Note_on_c, 0, 56, 103
2, 39168, Note_on_c, 0, 53, 103
2, 39356, Note_off_c, 0, 61, 100
2, 39356, Note_off_c, 0, 56, 100
2, 39356, Note_off_c, 0, 53, 100
2, 39360, Note_on_c, 0, 56, 105
2, 39452, Note_off_c, 0, 56, 100
2, 39552, Note_on_c, 0, 60, 107
2, 39644, Note_off_c, 0, 60, 100
2, 39744, Note_on_c, 0, 61, 108
2, 39836, Note_off_c, 0, 61, 100
2, 39936, Note_on_c, 0, 56, 110
2, 39936, Note_on_c, 0, 51, 110
2, 39936, Note_on_c, 0, 48, 110
2, 40124, Note_off_c, 0, 56, 100
2, 40124, Note_off_c, 0, 51, 100
2, 40124, Note_off_c, 0, 48, 100
2, 40320, Note_on_c, 0, 63, 105
2, 40320, Note_on_c, 0, 60, 105
2, 40320, Note_on_c, 0, 54, 105
2, 40508, Note_off_c, 0, 63, 100
2, 40508, Note_off_c, 0, 60, 100
2, 40508, Note_off_c, 0, 54, 100
2, 40704, Note_on_c, 0, 65, 99
2, 40704, Note_on_c, 0, 61, 99
2, 40704, Note_on_c, 0, 53, 99
2, 40892, Note_off_c, 0, 65, 100
2, 40892, Note_off_c, 0, 61, 100
2, 40892, Note_off_c, 0, 53, 100
2, 40896, Note_on_c, 0, 65, 96
2, 40896, Note_on_c, 0, 53, 96
2, 40988, Note_off_c, 0, 65, 100
2, 40988, Note_off_c, 0, 53, 100
2, 41088, Note_on_c, 0, 66, 93
2, 41088, Note_on_c, 0, 54, 93
2, 41180, Note_off_c, 0, 66, 100
2, 41180, Note_off_c, 0, 54, 100
2, 41280, Note_on_c, 0, 68, 91
2, 41280, Note_on_c, 0, 56, 91
2, 41372, Note_off_c, 0, 68, 100
2, 41372, Note_off_c, 0, 56, 100
2, 41472, Note_on_c, 0, 70, 80
2, 41472, Note_on_c, 0, 58, 80
2, 41660, Note_off_c, 0, 70, 100
2, 41660, Note_off_c, 0, 58, 100
2, 41856, Note_on_c, 0, 56, 80
2, 41856, Note_on_c, 0, 51, 80
2, 41856, Note_on_c, 0, 48, 80
2, 42044, Note_off_c, 0, 56, 100
2, 42044, Note_off_c, 0, 51, 100
2, 42044, Note_off_c, 0, 48, 100
2, 42240, Note_on_c, 0, 54, 80
2, 42332, Note_off_c, 0, 54, 100
2, 42432, Note_on_c, 0, 53, 80
2, 42524, Note_off_c, 0, 53, 100
2, 42624, Note_on_c, 0, 51, 80
2, 42716, Note_off_c, 0, 51, 100
2, 42816, Note_on_c, 0, 49, 80
2, 42908, Note_off_c, 0, 49, 100
2, 43008, Note_on_c, 0, 56, 80
2, 43008, Note_on_c, 0, 51, 80
2, 43008, Note_on_c, 0, 48, 80
2, 43196, Note_off_c, 0, 56, 100
2, 43196, Note_off_c, 0, 51, 100
2, 43196, Note_off_c, 0, 48, 100
2, 43392, Note_on_c, 0, 56, 83
2, 43392, Note_on_c, 0, 51, 83
2, 43392, Note_on_c, 0, 48, 83
2, 43580, Note_off_c, 0, 56, 100
2, 43580, Note_off_c, 0, 51, 100
2, 43580, Note_off_c, 0, 48, 100
2, 43776, Note_on_c, 0, 56, 87
2, 43776, Note_on_c, 0, 53, 87
2, 43776, Note_on_c, 0, 49, 87
2, 43964, Note_off_c, 0, 56, 100
2, 43964, Note_off_c, 0, 53, 100
2, 43964, Note_off_c, 0, 49, 100
2, 43968, Note_on_c, 0, 53, 89
2, 44060, Note_off_c, 0, 53, 100
2, 44160, Note_on_c, 0, 54, 91
2, 44252, Note_off_c, 0, 54, 100
2, 44352, Note_on_c, 0, 56, 93
2, 44444, Note_off_c, 0, 56, 100
2, 44544, Note_on_c, 0, 56, 95
2, 44544, Note_on_c, 0, 51, 95
2, 44544, Note_on_c, 0, 48, 95
2, 44732, Note_off_c, 0, 56, 100
2, 44732, Note_off_c, 0, 51, 100
2, 44732, Note_off_c, 0, 48, 100
2, 44928, Note_on_c, 0, 60, 99
2, 44928, Note_on_c, 0, 56, 99
2, 44928, Note_on_c, 0, 51, 99
2, 45116, Note_off_c, 0, 60, 100
2, 45116, Note_off_c, 0, 56, 100
2, 45116, Note_off_c, 0, 51, 100
2, 45312, Note_on_c, 0, 61, 103
2, 45312, Note_on_c, 0, 56, 103
2, 45312, Note_on_c, 0, 53, 103
2, 45500, Note_off_c, 0, 61, 100
2, 45500, Note_off_c, 0, 56, 100
2, 45500, Note_off_c, 0, 53, 100
2, 45504, Note_on_c, 0, 56, 105
2, 45596, Note_off_c, 0, 56, 100
2, 45696, Note_on_c, 0, 60, 107
2, 45788, Note_off_c, 0, 60, 100
2, 45888, Note_on_c, 0, 61, 108
2, 45980, Note_off_c, 0, 61, 100
2, 46080, Note_on_c, 0, 56, 110
2, 46080, Note_on_c, 0, 51, 110
2, 46080, Note_on_c, 0, 48, 110
2, 46268, Note_off_c, 0, 56, 100
2, 46268, Note_off_c, 0, 51, 100
2, 46268, Note_off_c, 0, 48, 100
2, 46464, Note_on_c, 0, 63, 110
2, 46464, Note_on_c, 0, 60, 110
2, 46464, Note_on_c, 0, 54, 110
2, 46652, Note_off_c, 0, 63, 100
2, 46652, Note_off_c, 0, 60, 100
2, 46652, Note_off_c, 0, 54, 100
2, 46848, Note_on_c, 0, 65, 110
2, 46848, Note_on_c, 0, 61, 110
2, 46848, Note_on_c, 0, 53, 110
2, 47036, Note_off_c, 0, 65, 100
2, 47036, Note_off_c, 0, 61, 100
2, 47036, Note_off_c, 0, 53, 100
2, 47040, Note_on_c, 0, 65, 110
2, 47040, Note_on_c, 0, 53, 110
2, 47132, Note_off_c, 0, 65, 100
2, 47132, Note_off_c, 0, 53, 100
2, 47232, Note_on_c, 0, 66, 110
2, 47232, Note_on_c, 0, 54, 110
2, 47324, Note_off_c, 0, 66, 100
2, 47324, Note_off_c, 0, 54, 100
2, 47424, Note_on_c, 0, 68, 91
2, 47424, Note_on_c, 0, 56, 92
2, 47516, Note_off_c, 0, 68, 100
2, 47516, Note_off_c, 0, 56, 100
2, 47616, Note_on_c, 0, 70, 80
2, 47616, Note_on_c, 0, 58, 80
2, 47804, Note_off_c, 0, 70, 100
2, 47804, Note_off_c, 0, 58, 100
2, 48000, Note_on_c, 0, 56, 80
2, 48000, Note_on_c, 0, 51, 80
2, 48000, Note_on_c, 0, 48, 80
2, 48188, Note_off_c, 0, 56, 100
2, 48188, Note_off_c, 0, 51, 100
2, 48188, Note_off_c, 0, 48, 100
2, 48384, Note_on_c, 0, 53, 80
2, 48476, Note_off_c, 0, 53, 100
2, 48576, Note_on_c, 0, 51, 80
2, 48668, Note_off_c, 0, 51, 100
2, 48768, Note_on_c, 0, 49, 80
2, 48860, Note_off_c, 0, 49, 100
2, 49152, Note_on_c, 0, 68, 80
2, 49244, Note_off_c, 0, 68, 100
2, 49248, Note_on_c, 0, 65, 80
2, 49340, Note_off_c, 0, 65, 100
2, 49344, Note_on_c, 0, 61, 80
2, 49436, Note_off_c, 0, 61, 100
2, 49440, Note_on_c, 0, 68, 80
2, 49532, Note_off_c, 0, 68, 100
2, 49536, Note_on_c, 0, 61, 80
2, 49628, Note_off_c, 0, 61, 100
2, 49632, Note_on_c, 0, 70, 80
2, 49724, Note_off_c, 0, 70, 100
2, 49728, Note_on_c, 0, 66, 80
2, 49820, Note_off_c, 0, 66, 100
2, 49824, Note_on_c, 0, 61, 80
2, 49916, Note_off_c, 0, 61, 100
2, 49920, Note_on_c, 0, 68, 80
2, 50012, Note_off_c, 0, 68, 100
2, 50016, Note_on_c, 0, 65, 80
2, 50108, Note_off_c, 0, 65, 100
2, 50112, Note_on_c, 0, 61, 80
2, 50204, Note_off_c, 0, 61, 100
2, 50208, Note_on_c, 0, 68, 80
2, 50300, Note_off_c, 0, 68, 100
2, 50304, Note_on_c, 0, 61, 80
2, 50396, Note_off_c, 0, 61, 100
2, 50400, Note_on_c, 0, 68, 80
2, 50492, Note_off_c, 0, 68, 100
2, 50496, Note_on_c, 0, 63, 80
2, 50496, Note_on_c, 0, 61, 80
2, 50588, Note_off_c, 0, 63, 100
2, 50588, Note_off_c, 0, 61, 100
2, 50592, Note_on_c, 0, 70, 80
2, 50684, Note_off_c, 0, 70, 100
2, 50688, Note_on_c, 0, 68, 80
2, 50780, Note_off_c, 0, 68, 100
2, 50784, Note_on_c, 0, 63, 80
2, 50876, Note_off_c, 0, 63, 100
2, 50880, Note_on_c, 0, 61, 80
2, 50972, Note_off_c, 0, 61, 100
2, 50976, Note_on_c, 0, 68, 80
2, 51068, Note_off_c, 0, 68, 100
2, 51072, Note_on_c, 0, 60, 80
2, 51164, Note_off_c, 0, 60, 100
2, 51168, Note_on_c, 0, 68, 80
2, 51260, Note_off_c, 0, 68, 100
2, 51264, Note_on_c, 0, 63, 80
2, 51356, Note_off_c, 0, 63, 100
2, 51360, Note_on_c, 0, 60, 80
2, 51452, Note_off_c, 0, 60, 100
2, 51456, Note_on_c, 0, 68, 80
2, 51548, Note_off_c, 0, 68, 100
2, 51552, Note_on_c, 0, 65, 80
2, 51644, Note_off_c, 0, 65, 100
2, 51648, Note_on_c, 0, 61, 80
2, 51740, Note_off_c, 0, 61, 100
2, 51744, Note_on_c, 0, 68, 80
2, 51836, Note_off_c, 0, 68, 100
2, 51840, Note_on_c, 0, 65, 80
2, 51932, Note_off_c, 0, 65, 100
2, 51936, Note_on_c, 0, 73, 80
2, 52028, Note_off_c, 0, 73, 100
2, 52032, Note_on_c, 0, 68, 80
2, 52124, Note_off_c, 0, 68, 100
2, 52128, Note_on_c, 0, 65, 80
2, 52220, Note_off_c, 0, 65, 100
2, 52224, Note_on_c, 0, 73, 80
2, 52316, Note_off_c, 0, 73, 100
2, 52320, Note_on_c, 0, 68, 80
2, 52412, Note_off_c, 0, 68, 100
2, 52416, Note_on_c, 0, 65, 80
2, 52508, Note_off_c, 0, 65, 100
2, 52512, Note_on_c, 0, 73, 80
2, 52604, Note_off_c, 0, 73, 100
2, 52608, Note_on_c, 0, 66, 80
2, 52700, Note_off_c, 0, 66, 100
2, 52704, Note_on_c, 0, 73, 80
2, 52796, Note_off_c, 0, 73, 100
2, 52800, Note_on_c, 0, 70, 80
2, 52892, Note_off_c, 0, 70, 100
2, 52896, Note_on_c, 0, 66, 80
2, 52988, Note_off_c, 0, 66, 100
2, 52992, Note_on_c, 0, 73, 80
2, 53084, Note_off_c, 0, 73, 100
2, 53088, Note_on_c, 0, 68, 80
2, 53180, Note_off_c, 0, 68, 100
2, 53184, Note_on_c, 0, 65, 80
2, 53276, Note_off_c, 0, 65, 100
2, 53280, Note_on_c, 0, 73, 80
2, 53372, Note_off_c, 0, 73, 100
2, 53376, Note_on_c, 0, 65, 80
2, 53468, Note_off_c, 0, 65, 100
2, 53472, Note_on_c, 0, 73, 80
2, 53564, Note_off_c, 0, 73, 100
2, 53568, Note_on_c, 0, 67, 80
2, 53568, Note_on_c, 0, 64, 80
2, 53660, Note_off_c, 0, 67, 100
2, 53660, Note_off_c, 0, 64, 100
2, 53664, Note_on_c, 0, 73, 80
2, 53756, Note_off_c, 0, 73, 100
2, 53760, Note_on_c, 0, 63, 80
2, 53852, Note_off_c, 0, 63, 100
2, 53856, Note_on_c, 0, 73, 80
2, 53948, Note_off_c, 0, 73, 100
2, 53952, Note_on_c, 0, 66, 80
2, 54044, Note_off_c, 0, 66, 100
2, 54048, Note_on_c, 0, 63, 80
2, 54140, Note_off_c, 0, 63, 100
2, 54144, Note_on_c, 0, 72, 80
2, 54236, Note_off_c, 0, 72, 100
2, 54240, Note_on_c, 0, 66, 80
2, 54332, Note_off_c, 0, 66, 100
2, 54336, Note_on_c, 0, 63, 80
2, 54428, Note_off_c, 0, 63, 100
2, 54432, Note_on_c, 0, 72, 80
2, 54524, Note_off_c, 0, 72, 100
2, 54528, Note_on_c, 0, 73, 80
2, 54620, Note_off_c, 0, 73, 100
2, 54624, Note_on_c, 0, 68, 80
2, 54716, Note_off_c, 0, 68, 100
2, 54720, Note_on_c, 0, 65, 80
2, 54812, Note_off_c, 0, 65, 100
2, 54816, Note_on_c, 0, 73, 80
2, 54908, Note_off_c, 0, 73, 100
2, 54912, Note_on_c, 0, 68, 80
2, 55004, Note_off_c, 0, 68, 100
2, 55008, Note_on_c, 0, 65, 80
2, 55100, Note_off_c, 0, 65, 100
2, 55104, Note_on_c, 0, 61, 80
2, 55196, Note_off_c, 0, 61, 100
2, 55200, Note_on_c, 0, 68, 80
2, 55292, Note_off_c, 0, 68, 100
2, 55296, Note_on_c, 0, 68, 80
2, 55388, Note_off_c, 0, 68, 100
2, 55392, Note_on_c, 0, 65, 80
2, 55484, Note_off_c, 0, 65, 100
2, 55488, Note_on_c, 0, 61, 80
2, 55580, Note_off_c, 0, 61, 100
2, 55584, Note_on_c, 0, 68, 80
2, 55676, Note_off_c, 0, 68, 100
2, 55680, Note_on_c, 0, 61, 80
2, 55772, Note_off_c, 0, 61, 100
2, 55776, Note_on_c, 0, 70, 80
2, 55868, Note_off_c, 0, 70, 100
2, 55872, Note_on_c, 0, 66, 80
2, 55964, Note_off_c, 0, 66, 100
2, 55968, Note_on_c, 0, 61, 80
2, 56060, Note_off_c, 0, 61, 100
2, 56064, Note_on_c, 0, 68, 80
2, 56156, Note_off_c, 0, 68, 100
2, 56160, Note_on_c, 0, 65, 80
2, 56252, Note_off_c, 0, 65, 100
2, 56256, Note_on_c, 0, 61, 80
2, 56348, Note_off_c, 0, 61, 100
2, 56352, Note_on_c, 0, 68, 80
2, 56444, Note_off_c, 0, 68, 100
2, 56448, Note_on_c, 0, 61, 80
2, 56540, Note_off_c, 0, 61, 100
2, 56544, Note_on_c, 0, 68, 80
2, 56636, Note_off_c, 0, 68, 100
2, 56640, Note_on_c, 0, 63, 80
2, 56640, Note_on_c, 0, 61, 80
2, 56732, Note_off_c, 0, 63, 100
2, 56732, Note_off_c, 0, 61, 100
2, 56736, Note_on_c, 0, 70, 80
2, 56828, Note_off_c, 0, 70, 100
2, 56832, Note_on_c, 0, 68, 80
2, 56924, Note_off_c, 0, 68, 100
2, 56928, Note_on_c, 0, 63, 80
2, 57020, Note_off_c, 0, 63, 100
2, 57024, Note_on_c, 0, 61, 80
2, 57116, Note_off_c, 0, 61, 100
2, 57120, Note_on_c, 0, 68, 80
2, 57212, Note_off_c, 0, 68, 100
2, 57216, Note_on_c, 0, 60, 80
2, 57308, Note_off_c, 0, 60, 100
2, 57312, Note_on_c, 0, 68, 80
2, 57404, Note_off_c, 0, 68, 100
2, 57408, Note_on_c, 0, 63, 80
2, 57500, Note_off_c, 0, 63, 100
2, 57504, Note_on_c, 0, 60, 80
2, 57596, Note_off_c, 0, 60, 100
2, 57600, Note_on_c, 0, 68, 80
2, 57692, Note_off_c, 0, 68, 100
2, 57696, Note_on_c, 0, 65, 80
2, 57788, Note_off_c, 0, 65, 100
2, 57792, Note_on_c, 0, 61, 80
2, 57884, Note_off_c, 0, 61, 100
2, 57888, Note_on_c, 0, 68, 80
2, 57980, Note_off_c, 0, 68, 100
2, 57984, Note_on_c, 0, 65, 80
2, 58076, Note_off_c, 0, 65, 100
2, 58080, Note_on_c, 0, 73, 80
2, 58172, Note_off_c, 0, 73, 100
2, 58176, Note_on_c, 0, 68, 80
2, 58268, Note_off_c, 0, 68, 100
2, 58272, Note_on_c, 0, 65, 80
2, 58364, Note_off_c, 0, 65, 100
2, 58368, Note_on_c, 0, 73, 80
2, 58460, Note_off_c, 0, 73, 100
2, 58464, Note_on_c, 0, 68, 80
2, 58556, Note_off_c, 0, 68, 100
2, 58560, Note_on_c, 0, 65, 80
2, 58652, Note_off_c, 0, 65, 100
2, 58656, Note_on_c, 0, 73, 80
2, 58748, Note_off_c, 0, 73, 100
2, 58752, Note_on_c, 0, 66, 80
2, 58844, Note_off_c, 0, 66, 100
2, 58848, Note_on_c, 0, 73, 80
2, 58940, Note_off_c, 0, 73, 100
2, 58944, Note_on_c, 0, 70, 80
2, 59036, Note_off_c, 0, 70, 100
2, 59040, Note_on_c, 0, 66, 80
2, 59132, Note_off_c, 0, 66, 100
2, 59136, Note_on_c, 0, 73, 80
2, 59228, Note_off_c, 0, 73, 100
2, 59232, Note_on_c, 0, 68, 80
2, 59324, Note_off_c, 0, 68, 100
2, 59328, Note_on_c, 0, 65, 80
2, 59420, Note_off_c, 0, 65, 100
2, 59424, Note_on_c, 0, 73, 80
2, 59516, Note_off_c, 0, 73, 100
2, 59520, Note_on_c, 0, 65, 80
2, 59612, Note_off_c, 0, 65, 100
2, 59616, Note_on_c, 0, 73, 80
2, 59708, Note_off_c, 0, 73, 100
2, 59712, Note_on_c, 0, 67, 80
2, 59712, Note_on_c, 0, 64, 80
2, 59804, Note_off_c, 0, 67, 100
2, 59804, Note_off_c, 0, 64, 100
2, 59808, Note_on_c, 0, 73, 80
2, 59900, Note_off_c, 0, 73, 100
2, 59904, Note_on_c, 0, 63, 80
2, 59996, Note_off_c, 0, 63, 100
2, 60000, Note_on_c, 0, 73, 80
2, 60092, Note_off_c, 0, 73, 100
2, 60096, Note_on_c, 0, 66, 80
2, 60188, Note_off_c, 0, 66, 100
2, 60192, Note_on_c, 0, 63, 80
2, 60284, Note_off_c, 0, 63, 100
2, 60288, Note_on_c, 0, 72, 80
2, 60380, Note_off_c, 0, 72, 100
2, 60384, Note_on_c, 0, 66, 80
2, 60476, Note_off_c, 0, 66, 100
2, 60480, Note_on_c, 0, 63, 80
2, 60572, Note_off_c, 0, 63, 100
2, 60576, Note_on_c, 0, 72, 80
2, 60668, Note_off_c, 0, 72, 100
2, 60672, Note_on_c, 0, 73, 80
2, 60764, Note_off_c, 0, 73, 100
2, 60768, Note_on_c, 0, 68, 80
2, 60860, Note_off_c, 0, 68, 100
2, 60864, Note_on_c, 0, 65, 80
2, 60956, Note_off_c, 0, 65, 100
2, 60960, Note_on_c, 0, 73, 80
2, 61052, Note_off_c, 0, 73, 100
2, 61056, Note_on_c, 0, 68, 80
2, 61148, Note_off_c, 0, 68, 100
2, 61152, Note_on_c, 0, 65, 80
2, 61244, Note_off_c, 0, 65, 100
2, 61248, Note_on_c, 0, 61, 80
2, 61340, Note_off_c, 0, 61, 100
2, 61344, Note_on_c, 0, 68, 80
2, 61436, Note_off_c, 0, 68, 100
2, 61440, Note_on_c, 0, 68, 80
2, 61532, Note_off_c, 0, 68, 100
2, 61536, Note_on_c, 0, 63, 80
2, 61628, Note_off_c, 0, 63, 100
2, 61632, Note_on_c, 0, 60, 80
2, 61724, Note_off_c, 0, 60, 100
2, 61728, Note_on_c, 0, 68, 80
2, 61820, Note_off_c, 0, 68, 100
2, 61824, Note_on_c, 0, 60, 80
2, 61916, Note_off_c, 0, 60, 100
2, 61920, Note_on_c, 0, 68, 80
2, 62012, Note_off_c, 0, 68, 100
2, 62016, Note_on_c, 0, 66, 80
2, 62108, Note_off_c, 0, 66, 100
2, 62112, Note_on_c, 0, 60, 80
2, 62204, Note_off_c, 0, 60, 100
2, 62208, Note_on_c, 0, 61, 80
2, 62300, Note_off_c, 0, 61, 100
2, 62304, Note_on_c, 0, 65, 80
2, 62396, Note_off_c, 0, 65, 100
2, 62400, Note_on_c, 0, 68, 80
2, 62492, Note_off_c, 0, 68, 100
2, 62496, Note_on_c, 0, 73, 80
2, 62588, Note_off_c, 0, 73, 100
2, 62592, Note_on_c, 0, 72, 80
2, 62684, Note_off_c, 0, 72, 100
2, 62688, Note_on_c, 0, 66, 80
2, 62780, Note_off_c, 0, 66, 100
2, 62784, Note_on_c, 0, 73, 80
2, 62876, Note_off_c, 0, 73, 100
2, 62880, Note_on_c, 0, 65, 80
2, 62972, Note_off_c, 0, 65, 100
2, 62976, Note_on_c, 0, 68, 80
2, 63068, Note_off_c, 0, 68, 100
2, 63072, Note_on_c, 0, 63, 80
2, 63164, Note_off_c, 0, 63, 100
2, 63168, Note_on_c, 0, 60, 80
2, 63260, Note_off_c, 0, 60, 100
2, 63264, Note_on_c, 0, 68, 80
2, 63356, Note_off_c, 0, 68, 100
2, 63360, Note_on_c, 0, 60, 80
2, 63452, Note_off_c, 0, 60, 100
2, 63456, Note_on_c, 0, 68, 80
2, 63548, Note_off_c, 0, 68, 100
2, 63552, Note_on_c, 0, 66, 80
2, 63644, Note_off_c, 0, 66, 100
2, 63648, Note_on_c, 0, 60, 80
2, 63740, Note_off_c, 0, 60, 100
2, 63744, Note_on_c, 0, 61, 80
2, 63836, Note_off_c, 0, 61, 100
2, 63840, Note_on_c, 0, 65, 81
2, 63932, Note_off_c, 0, 65, 100
2, 63936, Note_on_c, 0, 68, 83
2, 64028, Note_off_c, 0, 68, 100
2, 64032, Note_on_c, 0, 77, 85
2, 64124, Note_off_c, 0, 77, 100
2, 64128, Note_on_c, 0, 75, 87
2, 64220, Note_off_c, 0, 75, 100
2, 64224, Note_on_c, 0, 68, 89
2, 64316, Note_off_c, 0, 68, 100
2, 64320, Note_on_c, 0, 73, 91
2, 64412, Note_off_c, 0, 73, 100
2, 64416, Note_on_c, 0, 65, 93
2, 64508, Note_off_c, 0, 65, 100
2, 64512, Note_on_c, 0, 68, 95
2, 64604, Note_off_c, 0, 68, 100
2, 64608, Note_on_c, 0, 63, 97
2, 64700, Note_off_c, 0, 63, 100
2, 64704, Note_on_c, 0, 60, 99
2, 64796, Note_off_c, 0, 60, 100
2, 64800, Note_on_c, 0, 68, 101
2, 64892, Note_off_c, 0, 68, 100
2, 64896, Note_on_c, 0, 60, 103
2, 64988, Note_off_c, 0, 60, 100
2, 64992, Note_on_c, 0, 68, 105
2, 65084, Note_off_c, 0, 68, 100
2, 65088, Note_on_c, 0, 66, 107
2, 65180, Note_off_c, 0, 66, 100
2, 65184, Note_on_c, 0, 60, 109
2, 65276, Note_off_c, 0, 60, 100
2, 65376, Note_on_c, 0, 80, 108
2, 65468, Note_off_c, 0, 80, 100
2, 65472, Note_on_c, 0, 68, 105
2, 65564, Note_off_c, 0, 68, 100
2, 65568, Note_on_c, 0, 80, 102
2, 65660, Note_off_c, 0, 80, 100
2, 65664, Note_on_c, 0, 78, 99
2, 65756, Note_off_c, 0, 78, 100
2, 65760, Note_on_c, 0, 68, 96
2, 65852, Note_off_c, 0, 68, 100
2, 65856, Note_on_c, 0, 77, 93
2, 65948, Note_off_c, 0, 77, 100
2, 65952, Note_on_c, 0, 68, 91
2, 66044, Note_off_c, 0, 68, 100
2, 66048, Note_on_c, 0, 75, 80
2, 66140, Note_off_c, 0, 75, 100
2, 66144, Note_on_c, 0, 70, 80
2, 66236, Note_off_c, 0, 70, 100
2, 66240, Note_on_c, 0, 66, 80
2, 66332, Note_off_c, 0, 66, 100
2, 66336, Note_on_c, 0, 75, 80
2, 66428, Note_off_c, 0, 75, 100
2, 66432, Note_on_c, 0, 68, 80
2, 66524, Note_off_c, 0, 68, 100
2, 66528, Note_on_c, 0, 66, 80
2, 66620, Note_off_c, 0, 66, 100
2, 66624, Note_on_c, 0, 63, 80
2, 66716, Note_off_c, 0, 63, 100
2, 66720, Note_on_c, 0, 68, 80
2, 66812, Note_off_c, 0, 68, 100
2, 66816, Note_on_c, 0, 65, 80
2, 66908, Note_off_c, 0, 65, 100
2, 66912, Note_on_c, 0, 73, 80
2, 67004, Note_off_c, 0, 73, 100
2, 67008, Note_on_c, 0, 68, 80
2, 67100, Note_off_c, 0, 68, 100
2, 67104, Note_on_c, 0, 65, 80
2, 67196, Note_off_c, 0, 65, 100
2, 67200, Note_on_c, 0, 61, 80
2, 67292, Note_off_c, 0, 61, 100
2, 67584, Note_on_c, 0, 68, 80
2, 67676, Note_off_c, 0, 68, 100
2, 67680, Note_on_c, 0, 63, 80
2, 67772, Note_off_c, 0, 63, 100
2, 67776, Note_on_c, 0, 60, 80
2, 67868, Note_off_c, 0, 60, 100
2, 67872, Note_on_c, 0, 68, 80
2, 67964, Note_off_c, 0, 68, 100
2, 67968, Note_on_c, 0, 60, 80
2, 68060, Note_off_c, 0, 60, 100
2, 68064, Note_on_c, 0, 68, 80
2, 68156, Note_off_c, 0, 68, 100
2, 68160, Note_on_c, 0, 66, 80
2, 68252, Note_off_c, 0, 66, 100
2, 68256, Note_on_c, 0, 60, 80
2, 68348, Note_off_c, 0, 60, 100
2, 68352, Note_on_c, 0, 61, 80
2, 68444, Note_off_c, 0, 61, 100
2, 68448, Note_on_c, 0, 65, 80
2, 68540, Note_off_c, 0, 65, 100
2, 68544, Note_on_c, 0, 68, 80
2, 68636, Note_off_c, 0, 68, 100
2, 68640, Note_on_c, 0, 73, 80
2, 68732, Note_off_c, 0, 73, 100
2, 68736, Note_on_c, 0, 72, 80
2, 68828, Note_off_c, 0, 72, 100
2, 68832, Note_on_c, 0, 66, 80
2, 68924, Note_off_c, 0, 66, 100
2, 68928, Note_on_c, 0, 73, 80
2, 69020, Note_off_c, 0, 73, 100
2, 69024, Note_on_c, 0, 65, 80
2, 69116, Note_off_c, 0, 65, 100
2, 69120, Note_on_c, 0, 68, 80
2, 69212, Note_off_c, 0, 68, 100
2, 69216, Note_on_c, 0, 63, 80
2, 69308, Note_off_c, 0, 63, 100
2, 69312, Note_on_c, 0, 60, 80
2, 69404, Note_off_c, 0, 60, 100
2, 69408, Note_on_c, 0, 68, 80
2, 69500, Note_off_c, 0, 68, 100
2, 69504, Note_on_c, 0, 60, 80
2, 69596, Note_off_c, 0, 60, 100
2, 69600, Note_on_c, 0, 68, 80
2, 69692, Note_off_c, 0, 68, 100
2, 69696, Note_on_c, 0, 66, 80
2, 69788, Note_off_c, 0, 66, 100
2, 69792, Note_on_c, 0, 60, 80
2, 69884, Note_off_c, 0, 60, 100
2, 69888, Note_on_c, 0, 61, 80
2, 69980, Note_off_c, 0, 61, 100
2, 69984, Note_on_c, 0, 65, 81
2, 70076, Note_off_c, 0, 65, 100
2, 70080, Note_on_c, 0, 68, 83
2, 70172, Note_off_c, 0, 68, 100
2, 70176, Note_on_c, 0, 77, 85
2, 70268, Note_off_c, 0, 77, 100
2, 70272, Note_on_c, 0, 75, 87
2, 70364, Note_off_c, 0, 75, 100
2, 70368, Note_on_c, 0, 68, 89
2, 70460, Note_off_c, 0, 68, 100
2, 70464, Note_on_c, 0, 73, 91
2, 70556, Note_off_c, 0, 73, 100
2, 70560, Note_on_c, 0, 65, 93
2, 70652, Note_off_c, 0, 65, 100
2, 70656, Note_on_c, 0, 68, 95
2, 70748, Note_off_c, 0, 68, 100
2, 70752, Note_on_c, 0, 63, 97
2, 70844, Note_off_c, 0, 63, 100
2, 70848, Note_on_c, 0, 60, 99
2, 70940, Note_off_c, 0, 60, 100
2, 70944, Note_on_c, 0, 68, 101
2, 71036, Note_off_c, 0, 68, 100
2, 71040, Note_on_c, 0, 60, 103
2, 71132, Note_off_c, 0, 60, 100
2, 71136, Note_on_c, 0, 68, 105
2, 71228, Note_off_c, 0, 68, 100
2, 71232, Note_on_c, 0, 66, 107
2, 71324, Note_off_c, 0, 66, 100
2, 71328, Note_on_c, 0, 60, 109
2, 71420, Note_off_c, 0, 60, 100
2, 71520, Note_on_c, 0, 80, 108
2, 71612, Note_off_c, 0, 80, 100
2, 71616, Note_on_c, 0, 68, 105
2, 71708, Note_off_c, 0, 68, 100
2, 71712, Note_on_c, 0, 80, 102
2, 71804, Note_off_c, 0, 80, 100
2, 71808, Note_on_c, 0, 78, 99
2, 71900, Note_off_c, 0, 78, 100
2, 71904, Note_on_c, 0, 68, 96
2, 71996, Note_off_c, 0, 68, 100
2, 72000, Note_on_c, 0, 77, 93
2, 72092, Note_off_c, 0, 77, 100
2, 72096, Note_on_c, 0, 68, 91
2, 72188, Note_off_c, 0, 68, 100
2, 72192, Note_on_c, 0, 75, 80
2, 72284, Note_off_c, 0, 75, 100
2, 72288, Note_on_c, 0, 70, 80
2, 72380, Note_off_c, 0, 70, 100
2, 72384, Note_on_c, 0, 66, 80
2, 72476, Note_off_c, 0, 66, 100
2, 72480, Note_on_c, 0, 75, 80
2, 72572, Note_off_c, 0, 75, 100
2, 72576, Note_on_c, 0, 68, 80
2, 72668, Note_off_c, 0, 68, 100
2, 72672, Note_on_c, 0, 66, 80
2, 72764, Note_off_c, 0, 66, 100
2, 72768, Note_on_c, 0, 63, 80
2, 72860, Note_off_c, 0, 63, 100
2, 72864, Note_on_c, 0, 68, 80
2, 72956, Note_off_c, 0, 68, 100
2, 72960, Note_on_c, 0, 65, 80
2, 73052, Note_off_c, 0, 65, 100
2, 73056, Note_on_c, 0, 73, 80
2, 73148, Note_off_c, 0, 73, 100
2, 73152, Note_on_c, 0, 68, 80
2, 73244, Note_off_c, 0, 68, 100
2, 73248, Note_on_c, 0, 65, 80
2, 73340, Note_off_c, 0, 65, 100
2, 73344, Note_on_c, 0, 61, 80
2, 73436, Note_off_c, 0, 61, 100
2, 73920, Note_on_c, 0, 80, 110
2, 74300, Note_off_c, 0, 80, 100
2, 74304, Note_on_c, 0, 82, 110
2, 74684, Note_off_c, 0, 82, 100
2, 74688, Note_on_c, 0, 80, 110
2, 75068, Note_off_c, 0, 80, 100
2, 75072, Note_on_c, 0, 82, 110
2, 75072, Note_on_c, 0, 75, 110
2, 75072, Note_on_c, 0, 73, 110
2, 75260, Note_off_c, 0, 82, 100
2, 75260, Note_off_c, 0, 75, 100
2, 75260, Note_off_c, 0, 73, 100
2, 75264, Note_on_c, 0, 80, 110
2, 75264, Note_on_c, 0, 75, 110
2, 75264, Note_on_c, 0, 73, 110
2, 75452, Note_off_c, 0, 80, 100
2, 75452, Note_off_c, 0, 75, 100
2, 75452, Note_off_c, 0, 73, 100
2, 75456, Note_on_c, 0, 80, 110
2, 75456, Note_on_c, 0, 75, 110
2, 75456, Note_on_c, 0, 73, 110
2, 75644, Note_off_c, 0, 80, 100
2, 75644, Note_off_c, 0, 75, 100
2, 75644, Note_off_c, 0, 73, 100
2, 75648, Note_on_c, 0, 80, 110
2, 75648, Note_on_c, 0, 75, 110
2, 75648, Note_on_c, 0, 72, 110
2, 75836, Note_off_c, 0, 80, 100
2, 75836, Note_off_c, 0, 75, 100
2, 75836, Note_off_c, 0, 72, 100
2, 75840, Note_on_c, 0, 80, 110
2, 75840, Note_on_c, 0, 75, 110
2, 75840, Note_on_c, 0, 72, 110
2, 76028, Note_off_c, 0, 80, 100
2, 76028, Note_off_c, 0, 75, 100
2, 76028, Note_off_c, 0, 72, 100
2, 76032, Note_on_c, 0, 80, 110
2, 76032, Note_on_c, 0, 77, 110
2, 76032, Note_on_c, 0, 73, 110
2, 76220, Note_off_c, 0, 80, 100
2, 76220, Note_off_c, 0, 77, 100
2, 76220, Note_off_c, 0, 73, 100
2, 76992, Note_on_c, 0, 85, 110
2, 76992, Note_on_c, 0, 80, 110
2, 77372, Note_off_c, 0, 85, 100
2, 77372, Note_off_c, 0, 80, 100
2, 77376, Note_on_c, 0, 85, 110
2, 77376, Note_on_c, 0, 82, 110
2, 77756, Note_off_c, 0, 82, 100
2, 77756, Note_off_c, 0, 85, 100
2, 77760, Note_on_c, 0, 85, 110
2, 77760, Note_on_c, 0, 80, 110
2, 78140, Note_off_c, 0, 85, 100
2, 78140, Note_off_c, 0, 80, 100
2, 78144, Note_on_c, 0, 85, 110
2, 78144, Note_on_c, 0, 79, 110
2, 78144, Note_on_c, 0, 73, 110
2, 78332, Note_off_c, 0, 85, 100
2, 78332, Note_off_c, 0, 79, 100
2, 78332, Note_off_c, 0, 73, 100
2, 78336, Note_on_c, 0, 85, 110
2, 78336, Note_on_c, 0, 78, 110
2, 78336, Note_on_c, 0, 73, 110
2, 78524, Note_off_c, 0, 85, 100
2, 78524, Note_off_c, 0, 78, 100
2, 78524, Note_off_c, 0, 73, 100
2, 78528, Note_on_c, 0, 85, 110
2, 78528, Note_on_c, 0, 78, 110
2, 78528, Note_on_c, 0, 73, 110
2, 78716, Note_off_c, 0, 85, 100
2, 78716, Note_off_c, 0, 78, 100
2, 78716, Note_off_c, 0, 73, 100
2, 78720, Note_on_c, 0, 78, 110
2, 78720, Note_on_c, 0, 72, 110
2, 78720, Note_on_c, 0, 84, 110
2, 78908, Note_off_c, 0, 78, 100
2, 78908, Note_off_c, 0, 72, 100
2, 78908, Note_off_c, 0, 84, 100
2, 78912, Note_on_c, 0, 78, 110
2, 78912, Note_on_c, 0, 72, 110
2, 78912, Note_on_c, 0, 84, 110
2, 79100, Note_off_c, 0, 78, 100
2, 79100, Note_off_c, 0, 72, 100
2, 79100, Note_off_c, 0, 84, 100
2, 79104, Note_on_c, 0, 85, 80
2, 79152, Note_on_c, 0, 87, 80
2, 79196, Note_off_c, 0, 85, 100
2, 79200, Note_on_c, 0, 89, 80
2, 79244, Note_off_c, 0, 87, 100
2, 79248, Note_on_c, 0, 84, 80
2, 79288, Note_off_c, 0, 89, 100
2, 79296, Note_on_c, 0, 85, 80
2, 79328, Note_off_c, 0, 84, 100
2, 79344, Note_on_c, 0, 80, 80
2, 79384, Note_off_c, 0, 85, 100
2, 79392, Note_on_c, 0, 82, 80
2, 79436, Note_off_c, 0, 80, 100
2, 79440, Note_on_c, 0, 78, 80
2, 79476, Note_off_c, 0, 82, 100
2, 79488, Note_on_c, 0, 77, 80
2, 79532, Note_off_c, 0, 78, 100
2, 79536, Note_on_c, 0, 80, 80
2, 79576, Note_off_c, 0, 77, 100
2, 79584, Note_on_c, 0, 78, 80
2, 79628, Note_off_c, 0, 80, 100
2, 79632, Note_on_c, 0, 75, 80
2, 79676, Note_off_c, 0, 78, 100
2, 79680, Note_on_c, 0, 73, 80
2, 79716, Note_off_c, 0, 75, 100
2, 79728, Note_on_c, 0, 77, 80
2, 79772, Note_off_c, 0, 73, 100
2, 79776, Note_on_c, 0, 75, 80
2, 79820, Note_off_c, 0, 77, 100
2, 79824, Note_on_c, 0, 72, 80
2, 79868, Note_off_c, 0, 75, 100
2, 79872, Note_on_c, 0, 73, 80
2, 79912, Note_off_c, 0, 72, 100
2, 79920, Note_on_c, 0, 75, 80
2, 79964, Note_off_c, 0, 73, 100
2, 79968, Note_on_c, 0, 73, 80
2, 80004, Note_off_c, 0, 75, 100
2, 80016, Note_on_c, 0, 72, 80
2, 80056, Note_off_c, 0, 73, 100
2, 80064, Note_on_c, 0, 73, 80
2, 80108, Note_off_c, 0, 72, 100
2, 80112, Note_on_c, 0, 80, 80
2, 80156, Note_off_c, 0, 73, 100
2, 80160, Note_on_c, 0, 79, 80
2, 80204, Note_off_c, 0, 80, 100
2, 80208, Note_on_c, 0, 80, 80
2, 80252, Note_off_c, 0, 79, 100
2, 80256, Note_on_c, 0, 73, 80
2, 80296, Note_off_c, 0, 80, 100
2, 80304, Note_on_c, 0, 75, 80
2, 80340, Note_off_c, 0, 73, 100
2, 80352, Note_on_c, 0, 73, 80
2, 80396, Note_off_c, 0, 75, 100
2, 80400, Note_on_c, 0, 72, 80
2, 80436, Note_off_c, 0, 73, 100
2, 80448, Note_on_c, 0, 73, 80
2, 80492, Note_off_c, 0, 72, 100
2, 80496, Note_on_c, 0, 82, 80
2, 80528, Note_off_c, 0, 73, 100
2, 80544, Note_on_c, 0, 81, 80
2, 80580, Note_off_c, 0, 82, 100
2, 80592, Note_on_c, 0, 82, 80
2, 80628, Note_off_c, 0, 81, 100
2, 80640, Note_on_c, 0, 73, 80
2, 80680, Note_off_c, 0, 82, 100
2, 80688, Note_on_c, 0, 75, 80
2, 80728, Note_off_c, 0, 73, 100
2, 80736, Note_on_c, 0, 73, 80
2, 80772, Note_off_c, 0, 75, 100
2, 80784, Note_on_c, 0, 72, 80
2, 80824, Note_off_c, 0, 73, 100
2, 80832, Note_on_c, 0, 73, 80
2, 80868, Note_off_c, 0, 72, 100
2, 80880, Note_on_c, 0, 80, 80
2, 80912, Note_off_c, 0, 73, 100
2, 80928, Note_on_c, 0, 79, 80
2, 80960, Note_off_c, 0, 80, 100
2, 80976, Note_on_c, 0, 80, 80
2, 81008, Note_off_c, 0, 79, 100
2, 81024, Note_on_c, 0, 73, 80
2, 81060, Note_off_c, 0, 80, 100
2, 81072, Note_on_c, 0, 80, 80
2, 81116, Note_off_c, 0, 73, 100
2, 81120, Note_on_c, 0, 79, 80
2, 81156, Note_off_c, 0, 80, 100
2, 81168, Note_on_c, 0, 80, 80
2, 81200, Note_off_c, 0, 79, 100
2, 81216, Note_on_c, 0, 73, 80
2, 81248, Note_off_c, 0, 80, 100
2, 81264, Note_on_c, 0, 82, 80
2, 81300, Note_off_c, 0, 73, 100
2, 81312, Note_on_c, 0, 81, 80
2, 81344, Note_off_c, 0, 82, 100
2, 81360, Note_on_c, 0, 82, 80
2, 81392, Note_off_c, 0, 81, 100
2, 81408, Note_on_c, 0, 73, 80
2, 81452, Note_off_c, 0, 82, 100
2, 81456, Note_on_c, 0, 80, 80
2, 81492, Note_off_c, 0, 73, 100
2, 81504, Note_on_c, 0, 79, 80
2, 81544, Note_off_c, 0, 80, 100
2, 81552, Note_on_c, 0, 80, 80
2, 81584, Note_off_c, 0, 79, 100
2, 81600, Note_on_c, 0, 73, 80
2, 81636, Note_off_c, 0, 80, 100
2, 81648, Note_on_c, 0, 80, 80
2, 81684, Note_off_c, 0, 73, 100
2, 81696, Note_on_c, 0, 79, 80
2, 81732, Note_off_c, 0, 80, 100
2, 81744, Note_on_c, 0, 80, 80
2, 81776, Note_off_c, 0, 79, 100
2, 81792, Note_on_c, 0, 73, 80
2, 81828, Note_off_c, 0, 80, 100
2, 81840, Note_on_c, 0, 80, 80
2, 81872, Note_off_c, 0, 73, 100
2, 81888, Note_on_c, 0, 79, 80
2, 81924, Note_off_c, 0, 80, 100
2, 81936, Note_on_c, 0, 80, 80
2, 81972, Note_off_c, 0, 79, 100
2, 81984, Note_on_c, 0, 73, 80
2, 82016, Note_off_c, 0, 80, 100
2, 82032, Note_on_c, 0, 80, 80
2, 82076, Note_off_c, 0, 73, 100
2, 82080, Note_on_c, 0, 79, 80
2, 82116, Note_off_c, 0, 80, 100
2, 82128, Note_on_c, 0, 80, 80
2, 82172, Note_off_c, 0, 79, 100
2, 82176, Note_on_c, 0, 80, 80
2, 82220, Note_off_c, 0, 80, 100
2, 82224, Note_on_c, 0, 78, 80
2, 82256, Note_off_c, 0, 80, 100
2, 82272, Note_on_c, 0, 77, 80
2, 82308, Note_off_c, 0, 78, 100
2, 82320, Note_on_c, 0, 75, 80
2, 82360, Note_off_c, 0, 77, 100
2, 82368, Note_on_c, 0, 73, 80
2, 82412, Note_off_c, 0, 75, 100
2, 82416, Note_on_c, 0, 75, 80
2, 82448, Note_off_c, 0, 73, 100
2, 82464, Note_on_c, 0, 77, 80
2, 82508, Note_off_c, 0, 75, 100
2, 82512, Note_on_c, 0, 78, 80
2, 82552, Note_off_c, 0, 77, 100
2, 82560, Note_on_c, 0, 80, 80
2, 82600, Note_off_c, 0, 78, 100
2, 82608, Note_on_c, 0, 78, 80
2, 82652, Note_off_c, 0, 80, 100
2, 82656, Note_on_c, 0, 77, 80
2, 82692, Note_off_c, 0, 78, 100
2, 82704, Note_on_c, 0, 78, 80
2, 82748, Note_off_c, 0, 77, 100
2, 82752, Note_on_c, 0, 80, 80
2, 82788, Note_off_c, 0, 78, 100
2, 82800, Note_on_c, 0, 82, 80
2, 82836, Note_off_c, 0, 80, 100
2, 82848, Note_on_c, 0, 84, 80
2, 82892, Note_off_c, 0, 82, 100
2, 82896, Note_on_c, 0, 85, 80
2, 82936, Note_off_c, 0, 84, 100
2, 82944, Note_on_c, 0, 77, 80
2, 82980, Note_off_c, 0, 85, 100
2, 82992, Note_on_c, 0, 78, 81
2, 83028, Note_off_c, 0, 77, 100
2, 83040, Note_on_c, 0, 77, 82
2, 83084, Note_off_c, 0, 78, 100
2, 83088, Note_on_c, 0, 76, 83
2, 83124, Note_off_c, 0, 77, 100
2, 83136, Note_on_c, 0, 77, 84
2, 83168, Note_off_c, 0, 76, 100
2, 83184, Note_on_c, 0, 85, 85
2, 83220, Note_off_c, 0, 77, 100
2, 83232, Note_on_c, 0, 84, 86
2, 83272, Note_off_c, 0, 85, 100
2, 83280, Note_on_c, 0, 85, 87
2, 83316, Note_off_c, 0, 84, 100
2, 83328, Note_on_c, 0, 78, 88
2, 83368, Note_off_c, 0, 85, 100
2, 83376, Note_on_c, 0, 80, 89
2, 83412, Note_off_c, 0, 78, 100
2, 83424, Note_on_c, 0, 78, 90
2, 83456, Note_off_c, 0, 80, 100
2, 83472, Note_on_c, 0, 77, 91
2, 83508, Note_off_c, 0, 78, 100
2, 83520, Note_on_c, 0, 78, 92
2, 83552, Note_off_c, 0, 77, 100
2, 83568, Note_on_c, 0, 85, 93
2, 83600, Note_off_c, 0, 78, 100
2, 83616, Note_on_c, 0, 84, 94
2, 83656, Note_off_c, 0, 85, 100
2, 83664, Note_on_c, 0, 85, 95
2, 83700, Note_off_c, 0, 84, 100
2, 83712, Note_on_c, 0, 77, 96
2, 83752, Note_off_c, 0, 85, 100
2, 83760, Note_on_c, 0, 78, 97
2, 83800, Note_off_c, 0, 77, 100
2, 83808, Note_on_c, 0, 77, 98
2, 83844, Note_off_c, 0, 78, 100
2, 83856, Note_on_c, 0, 76, 99
2, 83900, Note_off_c, 0, 77, 100
2, 83904, Note_on_c, 0, 77, 100
2, 83940, Note_off_c, 0, 76, 100
2, 83952, Note_on_c, 0, 85, 101
2, 83988, Note_off_c, 0, 77, 100
2, 84000, Note_on_c, 0, 84, 102
2, 84036, Note_off_c, 0, 85, 100
2, 84048, Note_on_c, 0, 85, 103
2, 84092, Note_off_c, 0, 84, 100
2, 84096, Note_on_c, 0, 77, 104
2, 84140, Note_off_c, 0, 85, 100
2, 84144, Note_on_c, 0, 85, 105
2, 84180, Note_off_c, 0, 77, 100
2, 84192, Note_on_c, 0, 84, 106
2, 84224, Note_off_c, 0, 85, 100
2, 84240, Note_on_c, 0, 85, 107
2, 84276, Note_off_c, 0, 84, 100
2, 84288, Note_on_c, 0, 79, 107
2, 84288, Note_on_c, 0, 76, 107
2, 84328, Note_off_c, 0, 85, 100
2, 84336, Note_on_c, 0, 85, 108
2, 84372, Note_off_c, 0, 76, 100
2, 84380, Note_off_c, 0, 79, 100
2, 84384, Note_on_c, 0, 84, 109
2, 84428, Note_off_c, 0, 85, 100
2, 84432, Note_on_c, 0, 85, 110
2, 84476, Note_off_c, 0, 84, 100
2, 84480, Note_on_c, 0, 78, 110
2, 84480, Note_on_c, 0, 75, 110
2, 84520, Note_off_c, 0, 85, 100
2, 84528, Note_on_c, 0, 85, 110
2, 84560, Note_off_c, 0, 75, 100
2, 84568, Note_off_c, 0, 78, 100
2, 84576, Note_on_c, 0, 84, 110
2, 84612, Note_off_c, 0, 85, 100
2, 84624, Note_on_c, 0, 85, 110
2, 84668, Note_off_c, 0, 84, 100
2, 84672, Note_on_c, 0, 78, 110
2, 84672, Note_on_c, 0, 75, 110
2, 84704, Note_off_c, 0, 85, 100
2, 84720, Note_on_c, 0, 85, 110
2, 84756, Note_off_c, 0, 78, 100
2, 84756, Note_off_c, 0, 75, 100
2, 84768, Note_on_c, 0, 84, 110
2, 84812, Note_off_c, 0, 85, 100
2, 84816, Note_on_c, 0, 85, 110
2, 84848, Note_off_c, 0, 84, 100
2, 84864, Note_on_c, 0, 78, 110
2, 84864, Note_on_c, 0, 75, 110
2, 84896, Note_off_c, 0, 85, 100
2, 84912, Note_on_c, 0, 84, 110
2, 84948, Note_off_c, 0, 78, 100
2, 84948, Note_off_c, 0, 75, 100
2, 84960, Note_on_c, 0, 83, 110
2, 84996, Note_off_c, 0, 84, 100
2, 85008, Note_on_c, 0, 84, 110
2, 85040, Note_off_c, 0, 83, 100
2, 85056, Note_on_c, 0, 78, 110
2, 85056, Note_on_c, 0, 75, 110
2, 85100, Note_off_c, 0, 84, 100
2, 85104, Note_on_c, 0, 84, 110
2, 85136, Note_off_c, 0, 78, 100
2, 85136, Note_off_c, 0, 75, 100
2, 85152, Note_on_c, 0, 83, 110
2, 85188, Note_off_c, 0, 84, 100
2, 85200, Note_on_c, 0, 84, 110
2, 85232, Note_off_c, 0, 83, 100
2, 85244, Note_off_c, 0, 84, 100
2, 85248, Note_on_c, 0, 85, 110
2, 85248, Note_on_c, 0, 77, 110
2, 85248, Note_on_c, 0, 73, 110
2, 85436, Note_off_c, 0, 85, 100
2, 85436, Note_off_c, 0, 77, 100
2, 85436, Note_off_c, 0, 73, 100
2, 86208, Note_on_c, 0, 80, 80
2, 86588, Note_off_c, 0, 80, 100
2, 86592, Note_on_c, 0, 80, 80
2, 86780, Note_off_c, 0, 80, 100
2, 86784, Note_on_c, 0, 80, 80
2, 86972, Note_off_c, 0, 80, 100
2, 86976, Note_on_c, 0, 80, 80
2, 87164, Note_off_c, 0, 80, 100
2, 87168, Note_on_c, 0, 80, 80
2, 87356, Note_off_c, 0, 80, 100
2, 87360, Note_on_c, 0, 80, 80
2, 87548, Note_off_c, 0, 80, 100
2, 87744, Note_on_c, 0, 80, 80
2, 88124, Note_off_c, 0, 80, 100
2, 88128, Note_on_c, 0, 80, 80
2, 88316, Note_off_c, 0, 80, 100
2, 88320, Note_on_c, 0, 80, 80
2, 88508, Note_off_c, 0, 80, 100
2, 88512, Note_on_c, 0, 80, 80
2, 88700, Note_off_c, 0, 80, 100
2, 88704, Note_on_c, 0, 80, 80
2, 88892, Note_off_c, 0, 80, 100
2, 88896, Note_on_c, 0, 80, 80
2, 89084, Note_off_c, 0, 80, 100
2, 89280, Note_on_c, 0, 84, 84
2, 89468, Note_off_c, 0, 84, 100
2, 89472, Note_on_c, 0, 83, 88
2, 89660, Note_off_c, 0, 83, 100
2, 89664, Note_on_c, 0, 84, 92
2, 89852, Note_off_c, 0, 84, 100
2, 89856, Note_on_c, 0, 85, 96
2, 90044, Note_off_c, 0, 85, 100
2, 90048, Note_on_c, 0, 89, 100
2, 90236, Note_off_c, 0, 89, 100
2, 90240, Note_on_c, 0, 87, 104
2, 90428, Note_off_c, 0, 87, 100
2, 90432, Note_on_c, 0, 85, 107
2, 90620, Note_off_c, 0, 85, 100
2, 90624, Note_on_c, 0, 90, 120
2, 91004, Note_off_c, 0, 90, 100
2, 91008, Note_on_c, 0, 80, 120
2, 91008, Note_on_c, 0, 78, 120
2, 91008, Note_on_c, 0, 75, 120
2, 91388, Note_off_c, 0, 80, 100
2, 91388, Note_off_c, 0, 78, 100
2, 91388, Note_off_c, 0, 75, 100
2, 91392, Note_on_c, 0, 80, 110
2, 91392, Note_on_c, 0, 77, 110
2, 91440, Note_on_c, 0, 82, 109
2, 91480, Note_off_c, 0, 80, 100
2, 91484, Note_off_c, 0, 77, 100
2, 91488, Note_on_c, 0, 80, 108
2, 91528, Note_off_c, 0, 82, 100
2, 91536, Note_on_c, 0, 78, 106
2, 91572, Note_off_c, 0, 80, 100
2, 91584, Note_on_c, 0, 77, 105
2, 91616, Note_off_c, 0, 78, 100
2, 91632, Note_on_c, 0, 78, 103
2, 91676, Note_off_c, 0, 77, 100
2, 91680, Note_on_c, 0, 80, 102
2, 91716, Note_off_c, 0, 78, 100
2, 91728, Note_on_c, 0, 82, 101
2, 91772, Note_off_c, 0, 80, 100
2, 91776, Note_on_c, 0, 84, 99
2, 91816, Note_off_c, 0, 82, 100
2, 91824, Note_on_c, 0, 85, 98
2, 91864, Note_off_c, 0, 84, 100
2, 91872, Note_on_c, 0, 80, 96
2, 91912, Note_off_c, 0, 85, 100
2, 91920, Note_on_c, 0, 78, 95
2, 91964, Note_off_c, 0, 80, 100
2, 91968, Note_on_c, 0, 77, 93
2, 92000, Note_off_c, 0, 78, 100
2, 92016, Note_on_c, 0, 80, 92
2, 92052, Note_off_c, 0, 77, 100
2, 92064, Note_on_c, 0, 77, 91
2, 92104, Note_off_c, 0, 80, 100
2, 92112, Note_on_c, 0, 73, 80
2, 92152, Note_off_c, 0, 77, 100
2, 92160, Note_on_c, 0, 72, 80
2, 92200, Note_off_c, 0, 73, 100
2, 92208, Note_on_c, 0, 80, 80
2, 92244, Note_off_c, 0, 72, 100
2, 92256, Note_on_c, 0, 82, 80
2, 92292, Note_off_c, 0, 80, 100
2, 92304, Note_on_c, 0, 80, 80
2, 92340, Note_off_c, 0, 82, 100
2, 92352, Note_on_c, 0, 84, 80
2, 92396, Note_off_c, 0, 80, 100
2, 92400, Note_on_c, 0, 80, 80
2, 92444, Note_off_c, 0, 84, 100
2, 92448, Note_on_c, 0, 82, 80
2, 92480, Note_off_c, 0, 80, 100
2, 92496, Note_on_c, 0, 80, 80
2, 92536, Note_off_c, 0, 82, 100
2, 92544, Note_on_c, 0, 87, 80
2, 92584, Note_off_c, 0, 80, 100
2, 92592, Note_on_c, 0, 80, 80
2, 92632, Note_off_c, 0, 87, 100
2, 92640, Note_on_c, 0, 82, 80
2, 92676, Note_off_c, 0, 80, 100
2, 92688, Note_on_c, 0, 80, 80
2, 92728, Note_off_c, 0, 82, 100
2, 92736, Note_on_c, 0, 84, 80
2, 92772, Note_off_c, 0, 80, 100
2, 92784, Note_on_c, 0, 80, 80
2, 92828, Note_off_c, 0, 84, 100
2, 92832, Note_on_c, 0, 82, 80
2, 92864, Note_off_c, 0, 80, 100
2, 92880, Note_on_c, 0, 80, 80
2, 92912, Note_off_c, 0, 82, 100
2, 92928, Note_on_c, 0, 85, 80
2, 92964, Note_off_c, 0, 80, 100
2, 92976, Note_on_c, 0, 80, 80
2, 93016, Note_off_c, 0, 85, 100
2, 93024, Note_on_c, 0, 82, 80
2, 93056, Note_off_c, 0, 80, 100
2, 93072, Note_on_c, 0, 80, 80
2, 93108, Note_off_c, 0, 82, 100
2, 93120, Note_on_c, 0, 85, 80
2, 93156, Note_off_c, 0, 80, 100
2, 93168, Note_on_c, 0, 80, 80
2, 93204, Note_off_c, 0, 85, 100
2, 93216, Note_on_c, 0, 82, 80
2, 93260, Note_off_c, 0, 80, 100
2, 93264, Note_on_c, 0, 80, 80
2, 93296, Note_off_c, 0, 82, 100
2, 93312, Note_on_c, 0, 78, 80
2, 93352, Note_off_c, 0, 80, 100
2, 93360, Note_on_c, 0, 80, 80
2, 93400, Note_off_c, 0, 78, 100
2, 93408, Note_on_c, 0, 82, 80
2, 93440, Note_off_c, 0, 80, 100
2, 93456, Note_on_c, 0, 80, 80
2, 93496, Note_off_c, 0, 82, 100
2, 93504, Note_on_c, 0, 77, 80
2, 93544, Note_off_c, 0, 80, 100
2, 93552, Note_on_c, 0, 80, 80
2, 93592, Note_off_c, 0, 77, 100
2, 93600, Note_on_c, 0, 82, 80
2, 93636, Note_off_c, 0, 80, 100
2, 93648, Note_on_c, 0, 80, 80
2, 93684, Note_off_c, 0, 82, 100
2, 93696, Note_on_c, 0, 72, 80
2, 93740, Note_off_c, 0, 80, 100
2, 93744, Note_on_c, 0, 80, 80
2, 93788, Note_off_c, 0, 72, 100
2, 93792, Note_on_c, 0, 82, 80
2, 93824, Note_off_c, 0, 80, 100
2, 93840, Note_on_c, 0, 80, 80
2, 93872, Note_off_c, 0, 82, 100
2, 93888, Note_on_c, 0, 84, 80
2, 93928, Note_off_c, 0, 80, 100
2, 93936, Note_on_c, 0, 80, 80
2, 93976, Note_off_c, 0, 84, 100
2, 93984, Note_on_c, 0, 82, 80
2, 94024, Note_off_c, 0, 80, 100
2, 94032, Note_on_c, 0, 80, 80
2, 94072, Note_off_c, 0, 82, 100
2, 94080, Note_on_c, 0, 87, 80
2, 94124, Note_off_c, 0, 80, 100
2, 94128, Note_on_c, 0, 80, 80
2, 94172, Note_off_c, 0, 87, 100
2, 94176, Note_on_c, 0, 82, 80
2, 94212, Note_off_c, 0, 80, 100
2, 94224, Note_on_c, 0, 80, 80
2, 94268, Note_off_c, 0, 82, 100
2, 94272, Note_on_c, 0, 84, 80
2, 94304, Note_off_c, 0, 80, 100
2, 94320, Note_on_c, 0, 80, 80
2, 94364, Note_off_c, 0, 84, 100
2, 94368, Note_on_c, 0, 82, 80
2, 94400, Note_off_c, 0, 80, 100
2, 94416, Note_on_c, 0, 80, 80
2, 94456, Note_off_c, 0, 82, 100
2, 94464, Note_on_c, 0, 82, 80
2, 94508, Note_off_c, 0, 80, 100
2, 94512, Note_on_c, 0, 80, 80
2, 94556, Note_off_c, 0, 82, 100
2, 94560, Note_on_c, 0, 82, 80
2, 94600, Note_off_c, 0, 80, 100
2, 94608, Note_on_c, 0, 80, 80
2, 94644, Note_off_c, 0, 82, 100
2, 94656, Note_on_c, 0, 85, 80
2, 94692, Note_off_c, 0, 80, 100
2, 94704, Note_on_c, 0, 80, 80
2, 94744, Note_off_c, 0, 85, 100
2, 94752, Note_on_c, 0, 82, 80
2, 94788, Note_off_c, 0, 80, 100
2, 94800, Note_on_c, 0, 80, 80
2, 94836, Note_off_c, 0, 82, 100
2, 94848, Note_on_c, 0, 87, 80
2, 94884, Note_off_c, 0, 80, 100
2, 94896, Note_on_c, 0, 80, 80
2, 94940, Note_off_c, 0, 87, 100
2, 94944, Note_on_c, 0, 82, 80
2, 94980, Note_off_c, 0, 80, 100
2, 94992, Note_on_c, 0, 80, 80
2, 95028, Note_off_c, 0, 82, 100
2, 95040, Note_on_c, 0, 89, 80
2, 95080, Note_off_c, 0, 80, 100
2, 95088, Note_on_c, 0, 80, 80
2, 95124, Note_off_c, 0, 89, 100
2, 95136, Note_on_c, 0, 82, 80
2, 95168, Note_off_c, 0, 80, 100
2, 95184, Note_on_c, 0, 80, 80
2, 95224, Note_off_c, 0, 82, 100
2, 95232, Note_on_c, 0, 87, 81
2, 95268, Note_off_c, 0, 80, 100
2, 95280, Note_on_c, 0, 84, 82
2, 95316, Note_off_c, 0, 87, 100
2, 95328, Note_on_c, 0, 85, 83
2, 95372, Note_off_c, 0, 84, 100
2, 95376, Note_on_c, 0, 84, 85
2, 95408, Note_off_c, 0, 85, 100
2, 95424, Note_on_c, 0, 87, 86
2, 95464, Note_off_c, 0, 84, 100
2, 95472, Note_on_c, 0, 84, 87
2, 95508, Note_off_c, 0, 87, 100
2, 95520, Note_on_c, 0, 85, 89
2, 95564, Note_off_c, 0, 84, 100
2, 95568, Note_on_c, 0, 84, 90
2, 95608, Note_off_c, 0, 85, 100
2, 95616, Note_on_c, 0, 92, 91
2, 95648, Note_off_c, 0, 84, 100
2, 95664, Note_on_c, 0, 84, 92
2, 95700, Note_off_c, 0, 92, 100
2, 95712, Note_on_c, 0, 85, 94
2, 95756, Note_off_c, 0, 84, 100
2, 95760, Note_on_c, 0, 84, 95
2, 95800, Note_off_c, 0, 85, 100
2, 95808, Note_on_c, 0, 92, 96
2, 95844, Note_off_c, 0, 84, 100
2, 95856, Note_on_c, 0, 84, 98
2, 95900, Note_off_c, 0, 92, 100
2, 95904, Note_on_c, 0, 85, 99
2, 95940, Note_off_c, 0, 84, 100
2, 95952, Note_on_c, 0, 84, 100
2, 95988, Note_off_c, 0, 85, 100
2, 96000, Note_on_c, 0, 92, 101
2, 96044, Note_off_c, 0, 84, 100
2, 96048, Note_on_c, 0, 84, 103
2, 96080, Note_off_c, 0, 92, 100
2, 96096, Note_on_c, 0, 85, 104
2, 96132, Note_off_c, 0, 84, 100
2, 96144, Note_on_c, 0, 84, 105
2, 96180, Note_off_c, 0, 85, 100
2, 96192, Note_on_c, 0, 92, 107
2, 96236, Note_off_c, 0, 84, 100
2, 96240, Note_on_c, 0, 85, 108
2, 96280, Note_off_c, 0, 92, 100
2, 96288, Note_on_c, 0, 87, 109
2, 96324, Note_off_c, 0, 85, 100
2, 96336, Note_on_c, 0, 85, 110
2, 96372, Note_off_c, 0, 87, 100
2, 96384, Note_on_c, 0, 92, 112
2, 96420, Note_off_c, 0, 85, 100
2, 96432, Note_on_c, 0, 87, 113
2, 96468, Note_off_c, 0, 92, 100
2, 96480, Note_on_c, 0, 89, 114
2, 96524, Note_off_c, 0, 87, 100
2, 96528, Note_on_c, 0, 87, 116
2, 96568, Note_off_c, 0, 89, 100
2, 96576, Note_on_c, 0, 92, 117
2, 96616, Note_off_c, 0, 87, 100
2, 96624, Note_on_c, 0, 89, 118
2, 96664, Note_off_c, 0, 92, 100
2, 96672, Note_on_c, 0, 90, 119
2, 96708, Note_off_c, 0, 89, 100
2, 96720, Note_on_c, 0, 89, 120
2, 96760, Note_off_c, 0, 90, 100
2, 96768, Note_on_c, 0, 94, 119
2, 96808, Note_off_c, 0, 89, 100
2, 96816, Note_on_c, 0, 90, 118
2, 96856, Note_off_c, 0, 94, 100
2, 96864, Note_on_c, 0, 94, 117
2, 96904, Note_off_c, 0, 90, 100
2, 96912, Note_on_c, 0, 92, 116
2, 96952, Note_off_c, 0, 94, 100
2, 96960, Note_on_c, 0, 90, 114
2, 96992, Note_off_c, 0, 92, 100
2, 97008, Note_on_c, 0, 89, 113
2, 97040, Note_off_c, 0, 90, 100
2, 97056, Note_on_c, 0, 87, 112
2, 97088, Note_off_c, 0, 89, 100
2, 97104, Note_on_c, 0, 85, 111
2, 97136, Note_off_c, 0, 87, 100
2, 97152, Note_on_c, 0, 84, 109
2, 97188, Note_off_c, 0, 85, 100
2, 97200, Note_on_c, 0, 82, 108
2, 97232, Note_off_c, 0, 84, 100
2, 97248, Note_on_c, 0, 80, 107
2, 97280, Note_off_c, 0, 82, 100
2, 97296, Note_on_c, 0, 78, 106
2, 97332, Note_off_c, 0, 80, 100
2, 97344, Note_on_c, 0, 77, 104
2, 97380, Note_off_c, 0, 78, 100
2, 97392, Note_on_c, 0, 75, 103
2, 97428, Note_off_c, 0, 77, 100
2, 97440, Note_on_c, 0, 73, 102
2, 97484, Note_off_c, 0, 75, 100
2, 97488, Note_on_c, 0, 72, 101
2, 97528, Note_off_c, 0, 73, 100
2, 97536, Note_on_c, 0, 73, 99
2, 97572, Note_off_c, 0, 72, 100
2, 97584, Note_on_c, 0, 70, 98
2, 97628, Note_off_c, 0, 73, 100
2, 97632, Note_on_c, 0, 68, 97
2, 97676, Note_off_c, 0, 70, 100
2, 97680, Note_on_c, 0, 66, 96
2, 97720, Note_off_c, 0, 68, 100
2, 97728, Note_on_c, 0, 65, 94
2, 97768, Note_off_c, 0, 66, 100
2, 97776, Note_on_c, 0, 63, 93
2, 97816, Note_off_c, 0, 65, 100
2, 97824, Note_on_c, 0, 61, 92
2, 97864, Note_off_c, 0, 63, 100
2, 97872, Note_on_c, 0, 60, 91
2, 97916, Note_off_c, 0, 61, 100
2, 97920, Note_on_c, 0, 58, 89
2, 97960, Note_off_c, 0, 60, 100
2, 97968, Note_on_c, 0, 56, 88
2, 98008, Note_off_c, 0, 58, 100
2, 98016, Note_on_c, 0, 54, 87
2, 98056, Note_off_c, 0, 56, 100
2, 98064, Note_on_c, 0, 53, 86
2, 98100, Note_off_c, 0, 54, 100
2, 98112, Note_on_c, 0, 51, 84
2, 98144, Note_off_c, 0, 53, 100
2, 98160, Note_on_c, 0, 49, 83
2, 98204, Note_off_c, 0, 51, 100
2, 98252, Note_off_c, 0, 49, 100
2, 98304, Note_on_c, 0, 56, 80
2, 98304, Note_on_c, 0, 53, 80
2, 98304, Note_on_c, 0, 49, 80
2, 98684, Note_off_c, 0, 56, 100
2, 98684, Note_off_c, 0, 53, 100
2, 98684, Note_off_c, 0, 49, 100
2, 98688, Note_on_c, 0, 58, 80
2, 98688, Note_on_c, 0, 54, 80
2, 98688, Note_on_c, 0, 49, 80
2, 99068, Note_off_c, 0, 58, 100
2, 99068, Note_off_c, 0, 54, 100
2, 99068, Note_off_c, 0, 49, 100
2, 99072, Note_on_c, 0, 56, 80
2, 99072, Note_on_c, 0, 53, 80
2, 99072, Note_on_c, 0, 49, 80
2, 99644, Note_off_c, 0, 56, 100
2, 99644, Note_off_c, 0, 53, 100
2, 99644, Note_off_c, 0, 49, 100
2, 99648, Note_on_c, 0, 70, 80
2, 99648, Note_on_c, 0, 63, 80
2, 99648, Note_on_c, 0, 61, 80
2, 99836, Note_off_c, 0, 70, 100
2, 99836, Note_off_c, 0, 63, 100
2, 99836, Note_off_c, 0, 61, 100
2, 99840, Note_on_c, 0, 63, 80
2, 99840, Note_on_c, 0, 61, 80
2, 99840, Note_on_c, 0, 68, 80
2, 100220, Note_off_c, 0, 63, 100
2, 100220, Note_off_c, 0, 61, 100
2, 100220, Note_off_c, 0, 68, 100
2, 100224, Note_on_c, 0, 68, 80
2, 100224, Note_on_c, 0, 63, 80
2, 100224, Note_on_c, 0, 60, 80
2, 100604, Note_off_c, 0, 68, 100
2, 100604, Note_off_c, 0, 63, 100
2, 100604, Note_off_c, 0, 60, 100
2, 100608, Note_on_c, 0, 68, 80
2, 100608, Note_on_c, 0, 65, 80
2, 100608, Note_on_c, 0, 61, 80
2, 100796, Note_off_c, 0, 68, 100
2, 100796, Note_off_c, 0, 65, 100
2, 100796, Note_off_c, 0, 61, 100
2, 101376, Note_on_c, 0, 61, 80
2, 101376, Note_on_c, 0, 56, 80
2, 101376, Note_on_c, 0, 53, 80
2, 101756, Note_off_c, 0, 61, 100
2, 101756, Note_off_c, 0, 56, 100
2, 101756, Note_off_c, 0, 53, 100
2, 101760, Note_on_c, 0, 61, 80
2, 101760, Note_on_c, 0, 58, 80
2, 101760, Note_on_c, 0, 54, 80
2, 102140, Note_off_c, 0, 61, 100
2, 102140, Note_off_c, 0, 58, 100
2, 102140, Note_off_c, 0, 54, 100
2, 102144, Note_on_c, 0, 61, 80
2, 102144, Note_on_c, 0, 56, 80
2, 102144, Note_on_c, 0, 53, 80
2, 102716, Note_off_c, 0, 61, 100
2, 102716, Note_off_c, 0, 56, 100
2, 102716, Note_off_c, 0, 53, 100
2, 102720, Note_on_c, 0, 73, 80
2, 102720, Note_on_c, 0, 67, 80
2, 102720, Note_on_c, 0, 64, 80
2, 102908, Note_off_c, 0, 73, 100
2, 102908, Note_off_c, 0, 67, 100
2, 102908, Note_off_c, 0, 64, 100
2, 102912, Note_on_c, 0, 73, 80
2, 102912, Note_on_c, 0, 66, 80
2, 102912, Note_on_c, 0, 63, 80
2, 103292, Note_off_c, 0, 73, 100
2, 103292, Note_off_c, 0, 66, 100
2, 103292, Note_off_c, 0, 63, 100
2, 103296, Note_on_c, 0, 66, 80
2, 103296, Note_on_c, 0, 63, 80
2, 103296, Note_on_c, 0, 72, 80
2, 103676, Note_off_c, 0, 66, 100
2, 103676, Note_off_c, 0, 63, 100
2, 103676, Note_off_c, 0, 72, 100
2, 103680, Note_on_c, 0, 73, 80
2, 103680, Note_on_c, 0, 65, 80
2, 103680, Note_on_c, 0, 61, 80
2, 103868, Note_off_c, 0, 73, 100
2, 103868, Note_off_c, 0, 65, 100
2, 103868, Note_off_c, 0, 61, 100
2, 104448, Note_on_c, 0, 56, 80
2, 104448, Note_on_c, 0, 51, 80
2, 104448, Note_on_c, 0, 48, 80
2, 104828, Note_off_c, 0, 56, 100
2, 104828, Note_off_c, 0, 51, 100
2, 104828, Note_off_c, 0, 48, 100
2, 104832, Note_on_c, 0, 56, 80
2, 104832, Note_on_c, 0, 54, 80
2, 104832, Note_on_c, 0, 48, 80
2, 105116, Note_off_c, 0, 56, 100
2, 105116, Note_off_c, 0, 54, 100
2, 105116, Note_off_c, 0, 48, 100
2, 105168, Note_on_c, 0, 56, 80
2, 105168, Note_on_c, 0, 51, 80
2, 105168, Note_on_c, 0, 48, 80
2, 105212, Note_off_c, 0, 56, 100
2, 105212, Note_off_c, 0, 51, 100
2, 105212, Note_off_c, 0, 48, 100
2, 105216, Note_on_c, 0, 56, 80
2, 105216, Note_on_c, 0, 53, 80
2, 105216, Note_on_c, 0, 49, 80
2, 105500, Note_off_c, 0, 56, 100
2, 105500, Note_off_c, 0, 53, 100
2, 105500, Note_off_c, 0, 49, 100
2, 105504, Note_on_c, 0, 73, 80
2, 105504, Note_on_c, 0, 68, 80
2, 105504, Note_on_c, 0, 65, 80
2, 105596, Note_off_c, 0, 73, 100
2, 105596, Note_off_c, 0, 68, 100
2, 105596, Note_off_c, 0, 65, 100
2, 105600, Note_on_c, 0, 72, 80
2, 105600, Note_on_c, 0, 68, 80
2, 105600, Note_on_c, 0, 66, 80
2, 105788, Note_off_c, 0, 72, 100
2, 105788, Note_off_c, 0, 68, 100
2, 105788, Note_off_c, 0, 66, 100
2, 105792, Note_on_c, 0, 73, 80
2, 105792, Note_on_c, 0, 68, 80
2, 105792, Note_on_c, 0, 65, 80
2, 105980, Note_off_c, 0, 73, 100
2, 105980, Note_off_c, 0, 68, 100
2, 105980, Note_off_c, 0, 65, 100
2, 105984, Note_on_c, 0, 48, 80
2, 105984, Note_on_c, 0, 56, 80
2, 105984, Note_on_c, 0, 51, 80
2, 106364, Note_off_c, 0, 48, 100
2, 106364, Note_off_c, 0, 56, 100
2, 106364, Note_off_c, 0, 51, 100
2, 106368, Note_on_c, 0, 56, 80
2, 106368, Note_on_c, 0, 54, 80
2, 106368, Note_on_c, 0, 48, 80
2, 106652, Note_off_c, 0, 56, 100
2, 106652, Note_off_c, 0, 54, 100
2, 106652, Note_off_c, 0, 48, 100
2, 106704, Note_on_c, 0, 56, 80
2, 106704, Note_on_c, 0, 51, 80
2, 106704, Note_on_c, 0, 48, 80
2, 106748, Note_off_c, 0, 56, 100
2, 106748, Note_off_c, 0, 51, 100
2, 106748, Note_off_c, 0, 48, 100
2, 106752, Note_on_c, 0, 56, 80
2, 106752, Note_on_c, 0, 53, 80
2, 106752, Note_on_c, 0, 49, 80
2, 107036, Note_off_c, 0, 56, 100
2, 107036, Note_off_c, 0, 53, 100
2, 107036, Note_off_c, 0, 49, 100
2, 107040, Note_on_c, 0, 77, 80
2, 107040, Note_on_c, 0, 68, 80
2, 107132, Note_off_c, 0, 77, 100
2, 107132, Note_off_c, 0, 68, 100
2, 107136, Note_on_c, 0, 77, 80
2, 107136, Note_on_c, 0, 68, 80
2, 107136, Note_on_c, 0, 66, 80
2, 107228, Note_off_c, 0, 77, 100
2, 107232, Note_on_c, 0, 75, 80
2, 107324, Note_off_c, 0, 68, 100
2, 107324, Note_off_c, 0, 66, 100
2, 107324, Note_off_c, 0, 75, 100
2, 107328, Note_on_c, 0, 73, 80
2, 107328, Note_on_c, 0, 68, 80
2, 107328, Note_on_c, 0, 65, 80
2, 107516, Note_off_c, 0, 73, 100
2, 107516, Note_off_c, 0, 68, 100
2, 107516, Note_off_c, 0, 65, 100
2, 107520, Note_on_c, 0, 48, 80
2, 107520, Note_on_c, 0, 56, 80
2, 107520, Note_on_c, 0, 51, 80
2, 107900, Note_off_c, 0, 48, 100
2, 107900, Note_off_c, 0, 56, 100
2, 107900, Note_off_c, 0, 51, 100
2, 107904, Note_on_c, 0, 56, 95
2, 107904, Note_on_c, 0, 54, 95
2, 107904, Note_on_c, 0, 48, 95
2, 108188, Note_off_c, 0, 56, 100
2, 108188, Note_off_c, 0, 54, 100
2, 108188, Note_off_c, 0, 48, 100
2, 108240, Note_on_c, 0, 56, 109
2, 108240, Note_on_c, 0, 51, 109
2, 108240, Note_on_c, 0, 48, 109
2, 108284, Note_off_c, 0, 56, 100
2, 108284, Note_off_c, 0, 51, 100
2, 108284, Note_off_c, 0, 48, 100
2, 108288, Note_on_c, 0, 80, 120
2, 108288, Note_on_c, 0, 73, 120
2, 108288, Note_on_c, 0, 68, 120
2, 108572, Note_off_c, 0, 80, 100
2, 108572, Note_off_c, 0, 73, 100
2, 108572, Note_off_c, 0, 68, 100
2, 108576, Note_on_c, 0, 80, 108
2, 108576, Note_on_c, 0, 77, 108
2, 108576, Note_on_c, 0, 73, 108
2, 108668, Note_off_c, 0, 80, 100
2, 108668, Note_off_c, 0, 77, 100
2, 108668, Note_off_c, 0, 73, 100
2, 108672, Note_on_c, 0, 80, 103
2, 108672, Note_on_c, 0, 75, 103
2, 108672, Note_on_c, 0, 72, 103
2, 108764, Note_off_c, 0, 80, 100
2, 108768, Note_on_c, 0, 78, 99
2, 108860, Note_off_c, 0, 75, 100
2, 108860, Note_off_c, 0, 72, 100
2, 108860, Note_off_c, 0, 78, 100
2, 108864, Note_on_c, 0, 77, 95
2, 108864, Note_on_c, 0, 73, 95
2, 109052, Note_off_c, 0, 77, 100
2, 109052, Note_off_c, 0, 73, 100
2, 109056, Note_on_c, 0, 75, 80
2, 109056, Note_on_c, 0, 70, 80
2, 109056, Note_on_c, 0, 66, 80
2, 109436, Note_off_c, 0, 75, 100
2, 109436, Note_off_c, 0, 70, 100
2, 109436, Note_off_c, 0, 66, 100
2, 109440, Note_on_c, 0, 68, 75
2, 109440, Note_on_c, 0, 63, 75
2, 109820, Note_off_c, 0, 68, 100
2, 109820, Note_off_c, 0, 63, 100
2, 109824, Control_c, 0, 64, 127
2, 110064, Note_on_c, 0, 61, 70
2, 110112, Note_on_c, 0, 64, 70
2, 110160, Note_on_c, 0, 67, 70
2, 110208, Note_on_c, 0, 73, 70
2, 111352, Control_c, 0, 64, 0
2, 111356, Note_off_c, 0, 61, 100
2, 111356, Note_off_c, 0, 64, 100
2, 111356, Note_off_c, 0, 67, 100
2, 111356, Note_off_c, 0, 73, 100
2, 111360, Control_c, 0, 64, 127
2, 111600, Note_on_c, 0, 73, 120
2, 111648, Note_on_c, 0, 76, 120
2, 111696, Note_on_c, 0, 79, 120
2, 111744, Note_on_c, 0, 85, 120
2, 112888, Control_c, 0, 64, 0
2, 112892, Note_off_c, 0, 73, 100
2, 112892, Note_off_c, 0, 76, 100
2, 112892, Note_off_c, 0, 79, 100
2, 112892, Note_off_c, 0, 85, 100
2, 112896, Key_signature, -4, "minor"
2, 112896, Control_c, 0, 64, 127
2, 112896, Note_on_c, 0, 73, 120
2, 112896, Note_on_c, 0, 64, 120
2, 113468, Note_off_c, 0, 73, 100
2, 113468, Note_off_c, 0, 64, 100
2, 113472, Note_on_c, 0, 73, 120
2, 113472, Note_on_c, 0, 64, 120
2, 113660, Note_off_c, 0, 73, 100
2, 113660, Note_off_c, 0, 64, 100
2, 113664, Note_on_c, 0, 73, 120
2, 113664, Note_on_c, 0, 64, 120
2, 114236, Note_off_c, 0, 73, 100
2, 114236, Note_off_c, 0, 64, 100
2, 114240, Note_on_c, 0, 73, 120
2, 114240, Note_on_c, 0, 64, 120
2, 114428, Note_off_c, 0, 73, 100
2, 114428, Note_off_c, 0, 64, 100
2, 114432, Note_on_c, 0, 73, 120
2, 114432, Note_on_c, 0, 64, 120
2, 114716, Note_off_c, 0, 73, 100
2, 114716, Note_off_c, 0, 64, 100
2, 114720, Note_on_c, 0, 73, 120
2, 114720, Note_on_c, 0, 64, 120
2, 114812, Note_off_c, 0, 73, 100
2, 114812, Note_off_c, 0, 64, 100
2, 114816, Note_on_c, 0, 73, 120
2, 114816, Note_on_c, 0, 64, 120
2, 115100, Note_off_c, 0, 73, 100
2, 115100, Note_off_c, 0, 64, 100
2, 115104, Note_on_c, 0, 73, 120
2, 115104, Note_on_c, 0, 64, 120
2, 115196, Note_off_c, 0, 73, 100
2, 115196, Note_off_c, 0, 64, 100
2, 115200, Note_on_c, 0, 73, 120
2, 115200, Note_on_c, 0, 64, 120
2, 115484, Note_off_c, 0, 73, 100
2, 115484, Note_off_c, 0, 64, 100
2, 115488, Note_on_c, 0, 73, 120
2, 115488, Note_on_c, 0, 64, 120
2, 115580, Note_off_c, 0, 73, 100
2, 115580, Note_off_c, 0, 64, 100
2, 115584, Note_on_c, 0, 73, 120
2, 115584, Note_on_c, 0, 64, 120
2, 115868, Note_off_c, 0, 73, 100
2, 115868, Note_off_c, 0, 64, 100
2, 115872, Note_on_c, 0, 73, 120
2, 115872, Note_on_c, 0, 64, 120
2, 115964, Note_off_c, 0, 73, 100
2, 115964, Note_off_c, 0, 64, 100
2, 115968, Note_on_c, 0, 73, 120
2, 115968, Note_on_c, 0, 64, 120
2, 116344, Control_c, 0, 64, 0
2, 116348, Note_off_c, 0, 73, 100
2, 116348, Note_off_c, 0, 64, 100
2, 116544, Note_on_c, 0, 85, 80
2, 116636, Note_off_c, 0, 85, 100
2, 116640, Note_on_c, 0, 84, 80
2, 116732, Note_off_c, 0, 84, 100
2, 116736, Note_on_c, 0, 82, 80
2, 116828, Note_off_c, 0, 82, 100
2, 116832, Note_on_c, 0, 84, 80
2, 116924, Note_off_c, 0, 84, 100
2, 116928, Note_on_c, 0, 82, 80
2, 117020, Note_off_c, 0, 82, 100
2, 117024, Note_on_c, 0, 80, 80
2, 117116, Note_off_c, 0, 80, 100
2, 117120, Note_on_c, 0, 79, 80
2, 117212, Note_off_c, 0, 79, 100
2, 117216, Note_on_c, 0, 80, 80
2, 117308, Note_off_c, 0, 80, 100
2, 117312, Note_on_c, 0, 79, 80
2, 117404, Note_off_c, 0, 79, 100
2, 117408, Note_on_c, 0, 77, 80
2, 117500, Note_off_c, 0, 77, 100
2, 117504, Note_on_c, 0, 76, 80
2, 117884, Note_off_c, 0, 76, 100
2, 118080, Note_on_c, 0, 73, 80
2, 118172, Note_off_c, 0, 73, 100
2, 118176, Note_on_c, 0, 72, 80
2, 118268, Note_off_c, 0, 72, 100
2, 118272, Note_on_c, 0, 70, 80
2, 118364, Note_off_c, 0, 70, 100
2, 118368, Note_on_c, 0, 72, 80
2, 118460, Note_off_c, 0, 72, 100
2, 118464, Note_on_c, 0, 70, 80
2, 118556, Note_off_c, 0, 70, 100
2, 118560, Note_on_c, 0, 68, 80
2, 118652, Note_off_c, 0, 68, 100
2, 118656, Note_on_c, 0, 67, 80
2, 118748, Note_off_c, 0, 67, 100
2, 118752, Note_on_c, 0, 68, 80
2, 118844, Note_off_c, 0, 68, 100
2, 118848, Note_on_c, 0, 67, 80
2, 118940, Note_off_c, 0, 67, 100
2, 118944, Note_on_c, 0, 65, 80
2, 119036, Note_off_c, 0, 65, 100
2, 119040, Note_on_c, 0, 64, 80
2, 119420, Note_off_c, 0, 64, 100
2, 119616, Note_on_c, 0, 73, 80
2, 119708, Note_off_c, 0, 73, 100
2, 119712, Note_on_c, 0, 72, 81
2, 119804, Note_off_c, 0, 72, 100
2, 119808, Note_on_c, 0, 70, 82
2, 119900, Note_off_c, 0, 70, 100
2, 119904, Note_on_c, 0, 72, 83
2, 119996, Note_off_c, 0, 72, 100
2, 120000, Note_on_c, 0, 70, 84
2, 120092, Note_off_c, 0, 70, 100
2, 120096, Note_on_c, 0, 68, 85
2, 120188, Note_off_c, 0, 68, 100
2, 120192, Note_on_c, 0, 67, 86
2, 120284, Note_off_c, 0, 67, 100
2, 120288, Note_on_c, 0, 68, 87
2, 120380, Note_off_c, 0, 68, 100
2, 120384, Note_on_c, 0, 67, 88
2, 120476, Note_off_c, 0, 67, 100
2, 120480, Note_on_c, 0, 65, 89
2, 120572, Note_off_c, 0, 65, 100
2, 120576, Note_on_c, 0, 64, 90
2, 120668, Note_off_c, 0, 64, 100
2, 120672, Note_on_c, 0, 65, 91
2, 120764, Note_off_c, 0, 65, 100
2, 120768, Note_on_c, 0, 64, 92
2, 120860, Note_off_c, 0, 64, 100
2, 120864, Note_on_c, 0, 61, 93
2, 120956, Note_off_c, 0, 61, 100
2, 120960, Note_on_c, 0, 60, 94
2, 121052, Note_off_c, 0, 60, 100
2, 121056, Note_on_c, 0, 61, 95
2, 121148, Note_off_c, 0, 61, 100
2, 121152, Note_on_c, 0, 60, 96
2, 121244, Note_off_c, 0, 60, 100
2, 121248, Note_on_c, 0, 59, 97
2, 121340, Note_off_c, 0, 59, 100
2, 121344, Note_on_c, 0, 58, 98
2, 121436, Note_off_c, 0, 58, 100
2, 121440, Note_on_c, 0, 60, 99
2, 121532, Note_off_c, 0, 60, 100
2, 121536, Note_on_c, 0, 58, 100
2, 121628, Note_off_c, 0, 58, 100
2, 121632, Note_on_c, 0, 56, 101
2, 121724, Note_off_c, 0, 56, 100
2, 121728, Note_on_c, 0, 55, 102
2, 121820, Note_off_c, 0, 55, 100
2, 121824, Note_on_c, 0, 56, 103
2, 121916, Note_off_c, 0, 56, 100
2, 121920, Note_on_c, 0, 55, 104
2, 122012, Note_off_c, 0, 55, 100
2, 122016, Note_on_c, 0, 53, 105
2, 122108, Note_off_c, 0, 53, 100
2, 122112, Note_on_c, 0, 52, 106
2, 122204, Note_off_c, 0, 52, 100
2, 122208, Note_on_c, 0, 53, 107
2, 122300, Note_off_c, 0, 53, 100
2, 122304, Note_on_c, 0, 52, 108
2, 122396, Note_off_c, 0, 52, 100
2, 122400, Note_on_c, 0, 49, 109
2, 122492, Note_off_c, 0, 49, 100
2, 122496, Note_on_c, 0, 48, 110
2, 122588, Note_off_c, 0, 48, 100
2, 122592, Note_on_c, 0, 49, 110
2, 122684, Note_off_c, 0, 49, 100
2, 122688, Note_on_c, 0, 48, 110
2, 122780, Note_off_c, 0, 48, 100
2, 122784, Note_on_c, 0, 47, 110
2, 122876, Note_off_c, 0, 47, 100
2, 122880, Note_on_c, 0, 48, 110
2, 122972, Note_off_c, 0, 48, 100
2, 122976, Note_on_c, 0, 49, 110
2, 123068, Note_off_c, 0, 49, 100
2, 123072, Note_on_c, 0, 48, 110
2, 123164, Note_off_c, 0, 48, 100
2, 123168, Note_on_c, 0, 47, 110
2, 123260, Note_off_c, 0, 47, 100
2, 123264, Note_on_c, 0, 48, 110
2, 123356, Note_off_c, 0, 48, 100
2, 123360, Note_on_c, 0, 49, 110
2, 123452, Note_off_c, 0, 49, 100
2, 123456, Note_on_c, 0, 48, 110
2, 123548, Note_off_c, 0, 48, 100
2, 123552, Note_on_c, 0, 47, 110
2, 123644, Note_off_c, 0, 47, 100
2, 123648, Note_on_c, 0, 48, 110
2, 123740, Note_off_c, 0, 48, 100
2, 123744, Note_on_c, 0, 49, 110
2, 123836, Note_off_c, 0, 49, 100
2, 123840, Note_on_c, 0, 48, 110
2, 123932, Note_off_c, 0, 48, 100
2, 123936, Note_on_c, 0, 47, 110
2, 124028, Note_off_c, 0, 47, 100
2, 124032, Note_on_c, 0, 48, 110
2, 124124, Note_off_c, 0, 48, 100
2, 124128, Note_on_c, 0, 49, 110
2, 124220, Note_off_c, 0, 49, 100
2, 124224, Note_on_c, 0, 48, 110
2, 124316, Note_off_c, 0, 48, 100
2, 124320, Note_on_c, 0, 47, 110
2, 124412, Note_off_c, 0, 47, 100
2, 124416, Note_on_c, 0, 46, 110
2, 124508, Note_off_c, 0, 46, 100
2, 124512, Note_on_c, 0, 48, 110
2, 124604, Note_off_c, 0, 48, 100
2, 124608, Note_on_c, 0, 46, 110
2, 124700, Note_off_c, 0, 46, 100
2, 124704, Note_on_c, 0, 45, 110
2, 124796, Note_off_c, 0, 45, 100
2, 124800, Note_on_c, 0, 46, 110
2, 124892, Note_off_c, 0, 46, 100
2, 124896, Note_on_c, 0, 48, 110
2, 124988, Note_off_c, 0, 48, 100
2, 124992, Note_on_c, 0, 46, 110
2, 125084, Note_off_c, 0, 46, 100
2, 125088, Note_on_c, 0, 45, 110
2, 125180, Note_off_c, 0, 45, 100
2, 125184, Note_on_c, 0, 46, 110
2, 125276, Note_off_c, 0, 46, 100
2, 125280, Note_on_c, 0, 48, 110
2, 125372, Note_off_c, 0, 48, 100
2, 125376, Note_on_c, 0, 46, 110
2, 125468, Note_off_c, 0, 46, 100
2, 125472, Note_on_c, 0, 45, 110
2, 125564, Note_off_c, 0, 45, 100
2, 125568, Note_on_c, 0, 46, 110
2, 125660, Note_off_c, 0, 46, 100
2, 125664, Note_on_c, 0, 48, 110
2, 125756, Note_off_c, 0, 48, 100
2, 125760, Note_on_c, 0, 46, 110
2, 125852, Note_off_c, 0, 46, 100
2, 125856, Note_on_c, 0, 45, 110
2, 125948, Note_off_c, 0, 45, 100
2, 125952, Note_on_c, 0, 46, 110
2, 126044, Note_off_c, 0, 46, 100
2, 126048, Note_on_c, 0, 48, 108
2, 126140, Note_off_c, 0, 48, 100
2, 126144, Note_on_c, 0, 46, 105
2, 126236, Note_off_c, 0, 46, 100
2, 126240, Note_on_c, 0, 45, 103
2, 126332, Note_off_c, 0, 45, 100
2, 126336, Note_on_c, 0, 46, 100
2, 126428, Note_off_c, 0, 46, 100
2, 126432, Note_on_c, 0, 48, 97
2, 126524, Note_off_c, 0, 48, 100
2, 126528, Note_on_c, 0, 46, 95
2, 126620, Note_off_c, 0, 46, 100
2, 126624, Note_on_c, 0, 45, 92
2, 126716, Note_off_c, 0, 45, 100
2, 126720, Note_on_c, 0, 46, 89
2, 126812, Note_off_c, 0, 46, 100
2, 126816, Note_on_c, 0, 43, 87
2, 126908, Note_off_c, 0, 43, 100
2, 126912, Note_on_c, 0, 44, 84
2, 127004, Note_off_c, 0, 44, 100
2, 127008, Note_on_c, 0, 46, 81
2, 127100, Note_off_c, 0, 46, 100
2, 127104, Note_on_c, 0, 48, 79
2, 127196, Note_off_c, 0, 48, 100
2, 127200, Note_on_c, 0, 46, 76
2, 127292, Note_off_c, 0, 46, 100
2, 127296, Note_on_c, 0, 44, 73
2, 127388, Note_off_c, 0, 44, 100
2, 127392, Note_on_c, 0, 43, 71
2, 127484, Note_off_c, 0, 43, 100
2, 127584, Note_on_c, 0, 48, 80
2, 127676, Note_off_c, 0, 48, 100
2, 127680, Note_on_c, 0, 53, 80
2, 127772, Note_off_c, 0, 53, 100
2, 127776, Note_on_c, 0, 56, 80
2, 127868, Note_off_c, 0, 56, 100
2, 127872, Note_on_c, 0, 60, 80
2, 127964, Note_off_c, 0, 60, 100
2, 127968, Note_on_c, 0, 61, 80
2, 128060, Note_off_c, 0, 61, 100
2, 128064, Note_on_c, 0, 60, 80
2, 128156, Note_off_c, 0, 60, 100
2, 128160, Note_on_c, 0, 58, 80
2, 128252, Note_off_c, 0, 58, 100
2, 128256, Note_on_c, 0, 56, 80
2, 128348, Note_off_c, 0, 56, 100
2, 128352, Note_on_c, 0, 58, 80
2, 128444, Note_off_c, 0, 58, 100
2, 128448, Note_on_c, 0, 56, 80
2, 128540, Note_off_c, 0, 56, 100
2, 128544, Note_on_c, 0, 55, 80
2, 128636, Note_off_c, 0, 55, 100
2, 128640, Note_on_c, 0, 53, 80
2, 128732, Note_off_c, 0, 53, 100
2, 128736, Note_on_c, 0, 55, 80
2, 128828, Note_off_c, 0, 55, 100
2, 128832, Note_on_c, 0, 56, 80
2, 128924, Note_off_c, 0, 56, 100
2, 128928, Note_on_c, 0, 53, 80
2, 129020, Note_off_c, 0, 53, 100
2, 129120, Note_on_c, 0, 48, 80
2, 129212, Note_off_c, 0, 48, 100
2, 129216, Note_on_c, 0, 53, 80
2, 129308, Note_off_c, 0, 53, 100
2, 129312, Note_on_c, 0, 56, 80
2, 129404, Note_off_c, 0, 56, 100
2, 129408, Note_on_c, 0, 60, 80
2, 129500, Note_off_c, 0, 60, 100
2, 129504, Note_on_c, 0, 61, 80
2, 129596, Note_off_c, 0, 61, 100
2, 129600, Note_on_c, 0, 60, 80
2, 129692, Note_off_c, 0, 60, 100
2, 129696, Note_on_c, 0, 58, 80
2, 129788, Note_off_c, 0, 58, 100
2, 129792, Note_on_c, 0, 56, 80
2, 129884, Note_off_c, 0, 56, 100
2, 129888, Note_on_c, 0, 58, 80
2, 129980, Note_off_c, 0, 58, 100
2, 129984, Note_on_c, 0, 56, 80
2, 130076, Note_off_c, 0, 56, 100
2, 130080, Note_on_c, 0, 55, 80
2, 130172, Note_off_c, 0, 55, 100
2, 130176, Note_on_c, 0, 53, 80
2, 130268, Note_off_c, 0, 53, 100
2, 130272, Note_on_c, 0, 55, 80
2, 130364, Note_off_c, 0, 55, 100
2, 130368, Note_on_c, 0, 56, 80
2, 130460, Note_off_c, 0, 56, 100
2, 130464, Note_on_c, 0, 53, 80
2, 130556, Note_off_c, 0, 53, 100
2, 130656, Note_on_c, 0, 49, 80
2, 130748, Note_off_c, 0, 49, 100
2, 130752, Note_on_c, 0, 54, 80
2, 130844, Note_off_c, 0, 54, 100
2, 130848, Note_on_c, 0, 58, 80
2, 130940, Note_off_c, 0, 58, 100
2, 130944, Note_on_c, 0, 61, 80
2, 131036, Note_off_c, 0, 61, 100
2, 131040, Note_on_c, 0, 63, 80
2, 131132, Note_off_c, 0, 63, 100
2, 131136, Note_on_c, 0, 61, 80
2, 131228, Note_off_c, 0, 61, 100
2, 131232, Note_on_c, 0, 60, 80
2, 131324, Note_off_c, 0, 60, 100
2, 131328, Note_on_c, 0, 58, 80
2, 131420, Note_off_c, 0, 58, 100
2, 131424, Note_on_c, 0, 60, 80
2, 131516, Note_off_c, 0, 60, 100
2, 131520, Note_on_c, 0, 58, 80
2, 131612, Note_off_c, 0, 58, 100
2, 131616, Note_on_c, 0, 56, 80
2, 131708, Note_off_c, 0, 56, 100
2, 131712, Note_on_c, 0, 55, 80
2, 131804, Note_off_c, 0, 55, 100
2, 131808, Note_on_c, 0, 56, 80
2, 131900, Note_off_c, 0, 56, 100
2, 131904, Note_on_c, 0, 54, 80
2, 131996, Note_off_c, 0, 54, 100
2, 132000, Note_on_c, 0, 53, 80
2, 132092, Note_off_c, 0, 53, 100
2, 132096, Note_on_c, 0, 52, 80
2, 132188, Note_off_c, 0, 52, 100
2, 132192, Note_on_c, 0, 53, 80
2, 132284, Note_off_c, 0, 53, 100
2, 132288, Note_on_c, 0, 55, 80
2, 132380, Note_off_c, 0, 55, 100
2, 132384, Note_on_c, 0, 52, 80
2, 132476, Note_off_c, 0, 52, 100
2, 132480, Note_on_c, 0, 53, 80
2, 132572, Note_off_c, 0, 53, 100
2, 132576, Note_on_c, 0, 55, 80
2, 132668, Note_off_c, 0, 55, 100
2, 132672, Note_on_c, 0, 56, 80
2, 132764, Note_off_c, 0, 56, 100
2, 132768, Note_on_c, 0, 53, 80
2, 132860, Note_off_c, 0, 53, 100
2, 132864, Note_on_c, 0, 55, 80
2, 132956, Note_off_c, 0, 55, 100
2, 132960, Note_on_c, 0, 56, 80
2, 133052, Note_off_c, 0, 56, 100
2, 133056, Note_on_c, 0, 58, 80
2, 133148, Note_off_c, 0, 58, 100
2, 133152, Note_on_c, 0, 55, 80
2, 133244, Note_off_c, 0, 55, 100
2, 133248, Note_on_c, 0, 52, 80
2, 133340, Note_off_c, 0, 52, 100
2, 133344, Note_on_c, 0, 53, 80
2, 133436, Note_off_c, 0, 53, 100
2, 133440, Note_on_c, 0, 55, 80
2, 133532, Note_off_c, 0, 55, 100
2, 133536, Note_on_c, 0, 52, 80
2, 133628, Note_off_c, 0, 52, 100
2, 133632, Note_on_c, 0, 53, 80
2, 133724, Note_off_c, 0, 53, 100
2, 133728, Note_on_c, 0, 48, 80
2, 133820, Note_off_c, 0, 48, 100
2, 133824, Note_on_c, 0, 53, 80
2, 133916, Note_off_c, 0, 53, 100
2, 133920, Note_on_c, 0, 56, 80
2, 134012, Note_off_c, 0, 56, 100
2, 134016, Note_on_c, 0, 60, 80
2, 134108, Note_off_c, 0, 60, 100
2, 134112, Note_on_c, 0, 61, 80
2, 134204, Note_off_c, 0, 61, 100
2, 134208, Note_on_c, 0, 60, 80
2, 134300, Note_off_c, 0, 60, 100
2, 134304, Note_on_c, 0, 58, 80
2, 134396, Note_off_c, 0, 58, 100
2, 134400, Note_on_c, 0, 56, 80
2, 134492, Note_off_c, 0, 56, 100
2, 134496, Note_on_c, 0, 58, 80
2, 134588, Note_off_c, 0, 58, 100
2, 134592, Note_on_c, 0, 56, 80
2, 134684, Note_off_c, 0, 56, 100
2, 134688, Note_on_c, 0, 55, 80
2, 134780, Note_off_c, 0, 55, 100
2, 134784, Note_on_c, 0, 53, 80
2, 134876, Note_off_c, 0, 53, 100
2, 134880, Note_on_c, 0, 55, 80
2, 134972, Note_off_c, 0, 55, 100
2, 134976, Note_on_c, 0, 56, 80
2, 135068, Note_off_c, 0, 56, 100
2, 135072, Note_on_c, 0, 53, 80
2, 135164, Note_off_c, 0, 53, 100
2, 135264, Note_on_c, 0, 48, 80
2, 135356, Note_off_c, 0, 48, 100
2, 135360, Note_on_c, 0, 53, 80
2, 135452, Note_off_c, 0, 53, 100
2, 135456, Note_on_c, 0, 56, 80
2, 135548, Note_off_c, 0, 56, 100
2, 135552, Note_on_c, 0, 60, 80
2, 135644, Note_off_c, 0, 60, 100
2, 135648, Note_on_c, 0, 61, 80
2, 135740, Note_off_c, 0, 61, 100
2, 135744, Note_on_c, 0, 60, 80
2, 135836, Note_off_c, 0, 60, 100
2, 135840, Note_on_c, 0, 58, 80
2, 135932, Note_off_c, 0, 58, 100
2, 135936, Note_on_c, 0, 56, 80
2, 136028, Note_off_c, 0, 56, 100
2, 136032, Note_on_c, 0, 58, 80
2, 136124, Note_off_c, 0, 58, 100
2, 136128, Note_on_c, 0, 56, 80
2, 136220, Note_off_c, 0, 56, 100
2, 136224, Note_on_c, 0, 55, 80
2, 136316, Note_off_c, 0, 55, 100
2, 136320, Note_on_c, 0, 53, 80
2, 136412, Note_off_c, 0, 53, 100
2, 136416, Note_on_c, 0, 55, 80
2, 136508, Note_off_c, 0, 55, 100
2, 136512, Note_on_c, 0, 56, 80
2, 136604, Note_off_c, 0, 56, 100
2, 136608, Note_on_c, 0, 53, 80
2, 136700, Note_off_c, 0, 53, 100
2, 136800, Note_on_c, 0, 49, 80
2, 136892, Note_off_c, 0, 49, 100
2, 136896, Note_on_c, 0, 54, 80
2, 136988, Note_off_c, 0, 54, 100
2, 136992, Note_on_c, 0, 58, 80
2, 137084, Note_off_c, 0, 58, 100
2, 137088, Note_on_c, 0, 61, 80
2, 137180, Note_off_c, 0, 61, 100
2, 137184, Note_on_c, 0, 63, 80
2, 137276, Note_off_c, 0, 63, 100
2, 137280, Note_on_c, 0, 61, 80
2, 137372, Note_off_c, 0, 61, 100
2, 137376, Note_on_c, 0, 60, 80
2, 137468, Note_off_c, 0, 60, 100
2, 137472, Note_on_c, 0, 58, 80
2, 137564, Note_off_c, 0, 58, 100
2, 137568, Note_on_c, 0, 60, 80
2, 137660, Note_off_c, 0, 60, 100
2, 137664, Note_on_c, 0, 58, 80
2, 137756, Note_off_c, 0, 58, 100
2, 137760, Note_on_c, 0, 56, 80
2, 137852, Note_off_c, 0, 56, 100
2, 137856, Note_on_c, 0, 55, 80
2, 137948, Note_off_c, 0, 55, 100
2, 137952, Note_on_c, 0, 56, 80
2, 138044, Note_off_c, 0, 56, 100
2, 138048, Note_on_c, 0, 54, 80
2, 138140, Note_off_c, 0, 54, 100
2, 138144, Note_on_c, 0, 53, 80
2, 138236, Note_off_c, 0, 53, 100
2, 138240, Note_on_c, 0, 52, 80
2, 138332, Note_off_c, 0, 52, 100
2, 138336, Note_on_c, 0, 53, 80
2, 138428, Note_off_c, 0, 53, 100
2, 138432, Note_on_c, 0, 55, 80
2, 138524, Note_off_c, 0, 55, 100
2, 138528, Note_on_c, 0, 52, 80
2, 138620, Note_off_c, 0, 52, 100
2, 138624, Note_on_c, 0, 53, 80
2, 138716, Note_off_c, 0, 53, 100
2, 138720, Note_on_c, 0, 55, 80
2, 138812, Note_off_c, 0, 55, 100
2, 138816, Note_on_c, 0, 56, 80
2, 138908, Note_off_c, 0, 56, 100
2, 138912, Note_on_c, 0, 53, 80
2, 139004, Note_off_c, 0, 53, 100
2, 139008, Note_on_c, 0, 55, 80
2, 139100, Note_off_c, 0, 55, 100
2, 139104, Note_on_c, 0, 56, 80
2, 139196, Note_off_c, 0, 56, 100
2, 139200, Note_on_c, 0, 58, 80
2, 139292, Note_off_c, 0, 58, 100
2, 139296, Note_on_c, 0, 55, 80
2, 139388, Note_off_c, 0, 55, 100
2, 139392, Note_on_c, 0, 52, 80
2, 139484, Note_off_c, 0, 52, 100
2, 139488, Note_on_c, 0, 53, 80
2, 139580, Note_off_c, 0, 53, 100
2, 139584, Note_on_c, 0, 55, 80
2, 139676, Note_off_c, 0, 55, 100
2, 139680, Note_on_c, 0, 52, 80
2, 139772, Note_off_c, 0, 52, 100
2, 139776, Note_on_c, 0, 53, 80
2, 139868, Note_off_c, 0, 53, 100
2, 139872, Note_on_c, 0, 60, 81
2, 139964, Note_off_c, 0, 60, 100
2, 139968, Note_on_c, 0, 65, 82
2, 140060, Note_off_c, 0, 65, 100
2, 140064, Note_on_c, 0, 68, 83
2, 140156, Note_off_c, 0, 68, 100
2, 140160, Note_on_c, 0, 72, 85
2, 140252, Note_off_c, 0, 72, 100
2, 140256, Note_on_c, 0, 60, 86
2, 140348, Note_off_c, 0, 60, 100
2, 140352, Note_on_c, 0, 65, 87
2, 140444, Note_off_c, 0, 65, 100
2, 140448, Note_on_c, 0, 68, 89
2, 140540, Note_off_c, 0, 68, 100
2, 140640, Note_on_c, 0, 60, 91
2, 140732, Note_off_c, 0, 60, 100
2, 140736, Note_on_c, 0, 65, 93
2, 140828, Note_off_c, 0, 65, 100
2, 140832, Note_on_c, 0, 68, 94
2, 140924, Note_off_c, 0, 68, 100
2, 140928, Note_on_c, 0, 72, 95
2, 141020, Note_off_c, 0, 72, 100
2, 141024, Note_on_c, 0, 60, 97
2, 141116, Note_off_c, 0, 60, 100
2, 141120, Note_on_c, 0, 65, 98
2, 141212, Note_off_c, 0, 65, 100
2, 141216, Note_on_c, 0, 68, 99
2, 141308, Note_off_c, 0, 68, 100
2, 141408, Note_on_c, 0, 59, 100
2, 141500, Note_off_c, 0, 59, 100
2, 141504, Note_on_c, 0, 62, 100
2, 141596, Note_off_c, 0, 62, 100
2, 141600, Note_on_c, 0, 68, 100
2, 141692, Note_off_c, 0, 68, 100
2, 141696, Note_on_c, 0, 71, 100
2, 141792, Note_on_c, 0, 59, 100
2, 141884, Note_off_c, 0, 59, 100
2, 141888, Note_on_c, 0, 62, 100
2, 141980, Note_off_c, 0, 62, 100
2, 141984, Note_on_c, 0, 68, 100
2, 142076, Note_off_c, 0, 71, 100
2, 142076, Note_off_c, 0, 68, 100
2, 142080, Note_on_c, 0, 71, 100
2, 142176, Note_on_c, 0, 59, 98
2, 142268, Note_off_c, 0, 59, 100
2, 142272, Note_on_c, 0, 64, 95
2, 142364, Note_off_c, 0, 64, 100
2, 142368, Note_on_c, 0, 67, 92
2, 142460, Note_off_c, 0, 71, 100
2, 142460, Note_off_c, 0, 67, 100
2, 142464, Note_on_c, 0, 72, 89
2, 142560, Note_on_c, 0, 60, 86
2, 142652, Note_off_c, 0, 60, 100
2, 142656, Note_on_c, 0, 64, 83
2, 142748, Note_off_c, 0, 64, 100
2, 142752, Note_on_c, 0, 67, 81
2, 142844, Note_off_c, 0, 72, 100
2, 142844, Note_off_c, 0, 67, 100
2, 142944, Note_on_c, 0, 60, 81
2, 143036, Note_off_c, 0, 60, 100
2, 143040, Note_on_c, 0, 64, 82
2, 143132, Note_off_c, 0, 64, 100
2, 143136, Note_on_c, 0, 67, 83
2, 143228, Note_off_c, 0, 67, 100
2, 143232, Note_on_c, 0, 72, 85
2, 143324, Note_off_c, 0, 72, 100
2, 143328, Note_on_c, 0, 60, 86
2, 143420, Note_off_c, 0, 60, 100
2, 143424, Note_on_c, 0, 64, 87
2, 143516, Note_off_c, 0, 64, 100
2, 143520, Note_on_c, 0, 67, 89
2, 143612, Note_off_c, 0, 67, 100
2, 143712, Note_on_c, 0, 60, 91
2, 143804, Note_off_c, 0, 60, 100
2, 143808, Note_on_c, 0, 64, 93
2, 143900, Note_off_c, 0, 64, 100
2, 143904, Note_on_c, 0, 67, 94
2, 143996, Note_off_c, 0, 67, 100
2, 144000, Note_on_c, 0, 72, 95
2, 144092, Note_off_c, 0, 72, 100
2, 144096, Note_on_c, 0, 60, 97
2, 144188, Note_off_c, 0, 60, 100
2, 144192, Note_on_c, 0, 64, 98
2, 144284, Note_off_c, 0, 64, 100
2, 144288, Note_on_c, 0, 67, 99
2, 144380, Note_off_c, 0, 67, 100
2, 144480, Note_on_c, 0, 60, 100
2, 144572, Note_off_c, 0, 60, 100
2, 144576, Note_on_c, 0, 64, 100
2, 144668, Note_off_c, 0, 64, 100
2, 144672, Note_on_c, 0, 67, 100
2, 144764, Note_off_c, 0, 67, 100
2, 144768, Note_on_c, 0, 72, 100
2, 144864, Note_on_c, 0, 60, 100
2, 144956, Note_off_c, 0, 60, 100
2, 144960, Note_on_c, 0, 64, 100
2, 145052, Note_off_c, 0, 64, 100
2, 145056, Note_on_c, 0, 67, 100
2, 145148, Note_off_c, 0, 72, 100
2, 145148, Note_off_c, 0, 67, 100
2, 145152, Note_on_c, 0, 72, 100
2, 145248, Note_on_c, 0, 60, 98
2, 145340, Note_off_c, 0, 60, 100
2, 145344, Note_on_c, 0, 64, 95
2, 145436, Note_off_c, 0, 64, 100
2, 145440, Note_on_c, 0, 67, 92
2, 145532, Note_off_c, 0, 72, 100
2, 145532, Note_off_c, 0, 67, 100
2, 145536, Note_on_c, 0, 72, 89
2, 145632, Note_on_c, 0, 60, 86
2, 145724, Note_off_c, 0, 60, 100
2, 145728, Note_on_c, 0, 65, 83
2, 145820, Note_off_c, 0, 65, 100
2, 145824, Note_on_c, 0, 68, 81
2, 145916, Note_off_c, 0, 72, 100
2, 145916, Note_off_c, 0, 68, 100
2, 146016, Note_on_c, 0, 65, 81
2, 146108, Note_off_c, 0, 65, 100
2, 146112, Note_on_c, 0, 69, 83
2, 146204, Note_off_c, 0, 69, 100
2, 146208, Note_on_c, 0, 72, 85
2, 146300, Note_off_c, 0, 72, 100
2, 146304, Note_on_c, 0, 77, 87
2, 146396, Note_off_c, 0, 77, 100
2, 146400, Note_on_c, 0, 65, 89
2, 146492, Note_off_c, 0, 65, 100
2, 146496, Note_on_c, 0, 69, 91
2, 146588, Note_off_c, 0, 69, 100
2, 146592, Note_on_c, 0, 72, 93
2, 146684, Note_off_c, 0, 72, 100
2, 146784, Note_on_c, 0, 65, 97
2, 146876, Note_off_c, 0, 65, 100
2, 146880, Note_on_c, 0, 69, 99
2, 146972, Note_off_c, 0, 69, 100
2, 146976, Note_on_c, 0, 72, 101
2, 147068, Note_off_c, 0, 72, 100
2, 147072, Note_on_c, 0, 77, 103
2, 147164, Note_off_c, 0, 77, 100
2, 147168, Note_on_c, 0, 65, 105
2, 147260, Note_off_c, 0, 65, 100
2, 147264, Note_on_c, 0, 69, 107
2, 147356, Note_off_c, 0, 69, 100
2, 147360, Note_on_c, 0, 72, 109
2, 147452, Note_off_c, 0, 72, 100
2, 147552, Note_on_c, 0, 65, 110
2, 147644, Note_off_c, 0, 65, 100
2, 147648, Note_on_c, 0, 69, 110
2, 147740, Note_off_c, 0, 69, 100
2, 147744, Note_on_c, 0, 72, 110
2, 147836, Note_off_c, 0, 72, 100
2, 147840, Note_on_c, 0, 77, 110
2, 147936, Note_on_c, 0, 65, 110
2, 148028, Note_off_c, 0, 65, 100
2, 148032, Note_on_c, 0, 69, 110
2, 148124, Note_off_c, 0, 69, 100
2, 148128, Note_on_c, 0, 72, 110
2, 148220, Note_off_c, 0, 77, 100
2, 148220, Note_off_c, 0, 72, 100
2, 148224, Note_on_c, 0, 69, 110
2, 148224, Note_on_c, 0, 65, 110
2, 148316, Note_off_c, 0, 69, 100
2, 148316, Note_off_c, 0, 65, 100
2, 148320, Note_on_c, 0, 77, 106
2, 148412, Note_off_c, 0, 77, 100
2, 148416, Note_on_c, 0, 70, 102
2, 148416, Note_on_c, 0, 65, 102
2, 148508, Note_off_c, 0, 70, 100
2, 148508, Note_off_c, 0, 65, 100
2, 148512, Note_on_c, 0, 77, 98
2, 148604, Note_off_c, 0, 77, 100
2, 148608, Note_on_c, 0, 72, 93
2, 148608, Note_on_c, 0, 65, 93
2, 148700, Note_off_c, 0, 72, 100
2, 148700, Note_off_c, 0, 65, 100
2, 148704, Note_on_c, 0, 77, 89
2, 148796, Note_off_c, 0, 77, 100
2, 148800, Note_on_c, 0, 73, 85
2, 148800, Note_on_c, 0, 65, 85
2, 148892, Note_off_c, 0, 73, 100
2, 148892, Note_off_c, 0, 65, 100
2, 148896, Note_on_c, 0, 77, 81
2, 148988, Note_off_c, 0, 77, 100
2, 149088, Note_on_c, 0, 60, 80
2, 149180, Note_off_c, 0, 60, 100
2, 149184, Note_on_c, 0, 65, 80
2, 149276, Note_off_c, 0, 65, 100
2, 149280, Note_on_c, 0, 68, 80
2, 149372, Note_off_c, 0, 68, 100
2, 149376, Note_on_c, 0, 72, 80
2, 149472, Note_on_c, 0, 60, 80
2, 149564, Note_off_c, 0, 60, 100
2, 149568, Note_on_c, 0, 65, 80
2, 149660, Note_off_c, 0, 65, 100
2, 149664, Note_on_c, 0, 68, 80
2, 149756, Note_off_c, 0, 72, 100
2, 149756, Note_off_c, 0, 68, 100
2, 149760, Note_on_c, 0, 72, 80
2, 149856, Note_on_c, 0, 60, 80
2, 149948, Note_off_c, 0, 60, 100
2, 149952, Note_on_c, 0, 67, 80
2, 150044, Note_off_c, 0, 67, 100
2, 150048, Note_on_c, 0, 70, 80
2, 150140, Note_off_c, 0, 72, 100
2, 150140, Note_off_c, 0, 70, 100
2, 150144, Note_on_c, 0, 72, 80
2, 150240, Note_on_c, 0, 60, 80
2, 150332, Note_off_c, 0, 60, 100
2, 150336, Note_on_c, 0, 64, 80
2, 150428, Note_off_c, 0, 64, 100
2, 150432, Note_on_c, 0, 67, 80
2, 150524, Note_off_c, 0, 72, 100
2, 150524, Note_off_c, 0, 67, 100
2, 150528, Note_on_c, 0, 72, 80
2, 150528, Note_on_c, 0, 68, 80
2, 150528, Note_on_c, 0, 65, 80
2, 150528, Note_on_c, 0, 60, 80
2, 150908, Note_off_c, 0, 72, 100
2, 150908, Note_off_c, 0, 68, 100
2, 150908, Note_off_c, 0, 65, 100
2, 150908, Note_off_c, 0, 60, 100
2, 151200, Note_on_c, 0, 80, 80
2, 151200, Note_on_c, 0, 77, 80
2, 151292, Note_off_c, 0, 80, 100
2, 151292, Note_off_c, 0, 77, 100
2, 151296, Note_on_c, 0, 80, 100
2, 151296, Note_on_c, 0, 77, 100
2, 151676, Note_off_c, 0, 80, 100
2, 151676, Note_off_c, 0, 77, 100
2, 151968, Note_on_c, 0, 80, 80
2, 151968, Note_on_c, 0, 77, 80
2, 152060, Note_off_c, 0, 80, 100
2, 152060, Note_off_c, 0, 77, 100
2, 152064, Note_on_c, 0, 80, 100
2, 152064, Note_on_c, 0, 77, 100
2, 152828, Note_off_c, 0, 80, 100
2, 152828, Note_off_c, 0, 77, 100
2, 152832, Note_on_c, 0, 79, 80
2, 152832, Note_on_c, 0, 76, 80
2, 153020, Note_off_c, 0, 79, 100
2, 153020, Note_off_c, 0, 76, 100
2, 154272, Note_on_c, 0, 82, 86
2, 154272, Note_on_c, 0, 79, 86
2, 154364, Note_off_c, 0, 82, 100
2, 154364, Note_off_c, 0, 79, 100
2, 154368, Note_on_c, 0, 82, 103
2, 154368, Note_on_c, 0, 79, 102
2, 154748, Note_off_c, 0, 82, 100
2, 154748, Note_off_c, 0, 79, 100
2, 155040, Note_on_c, 0, 82, 94
2, 155040, Note_on_c, 0, 79, 94
2, 155132, Note_off_c, 0, 82, 100
2, 155132, Note_off_c, 0, 79, 100
2, 155136, Note_on_c, 0, 82, 112
2, 155136, Note_on_c, 0, 79, 110
2, 155900, Note_off_c, 0, 82, 100
2, 155900, Note_off_c, 0, 79, 100
2, 155904, Note_on_c, 0, 80, 103
2, 155904, Note_on_c, 0, 77, 103
2, 156092, Note_off_c, 0, 80, 100
2, 156092, Note_off_c, 0, 77, 100
2, 157344, Note_on_c, 0, 87, 110
2, 157344, Note_on_c, 0, 84, 110
2, 157436, Note_off_c, 0, 87, 100
2, 157436, Note_off_c, 0, 84, 100
2, 157440, Note_on_c, 0, 87, 120
2, 157440, Note_on_c, 0, 84, 120
2, 157820, Note_off_c, 0, 87, 100
2, 157820, Note_off_c, 0, 84, 100
2, 158112, Note_on_c, 0, 87, 110
2, 158112, Note_on_c, 0, 84, 110
2, 158204, Note_off_c, 0, 87, 100
2, 158204, Note_off_c, 0, 84, 100
2, 158208, Note_on_c, 0, 87, 120
2, 158208, Note_on_c, 0, 84, 120
2, 159164, Note_off_c, 0, 84, 100
2, 159164, Note_off_c, 0, 87, 100
2, 159168, Note_on_c, 0, 85, 110
2, 159168, Note_on_c, 0, 82, 110
2, 159356, Note_off_c, 0, 85, 100
2, 159356, Note_off_c, 0, 82, 100
2, 159360, Note_on_c, 0, 84, 110
2, 159360, Note_on_c, 0, 80, 110
2, 159548, Note_off_c, 0, 84, 100
2, 159548, Note_off_c, 0, 80, 100
2, 159552, Note_on_c, 0, 82, 110
2, 159552, Note_on_c, 0, 79, 110
2, 159740, Note_off_c, 0, 82, 100
2, 159740, Note_off_c, 0, 79, 100
2, 159744, Note_on_c, 0, 80, 110
2, 159744, Note_on_c, 0, 77, 110
2, 160124, Note_off_c, 0, 80, 100
2, 160124, Note_off_c, 0, 77, 100
2, 160416, Note_on_c, 0, 89, 110
2, 160416, Note_on_c, 0, 80, 110
2, 160416, Note_on_c, 0, 77, 110
2, 160508, Note_off_c, 0, 89, 100
2, 160508, Note_off_c, 0, 80, 100
2, 160508, Note_off_c, 0, 77, 100
2, 160512, Note_on_c, 0, 91, 110
2, 160512, Note_on_c, 0, 82, 110
2, 160512, Note_on_c, 0, 79, 110
2, 160892, Note_off_c, 0, 91, 100
2, 160892, Note_off_c, 0, 82, 100
2, 160892, Note_off_c, 0, 79, 100
2, 161184, Note_on_c, 0, 88, 110
2, 161184, Note_on_c, 0, 79, 110
2, 161184, Note_on_c, 0, 76, 110
2, 161276, Note_off_c, 0, 88, 100
2, 161276, Note_off_c, 0, 79, 100
2, 161276, Note_off_c, 0, 76, 100
2, 161280, Note_on_c, 0, 89, 110
2, 161280, Note_on_c, 0, 77, 110
2, 161280, Note_on_c, 0, 80, 110
2, 161372, Note_off_c, 0, 89, 100
2, 161372, Note_off_c, 0, 77, 100
2, 161372, Note_off_c, 0, 80, 100
2, 161376, Note_on_c, 0, 72, 100
2, 161468, Note_off_c, 0, 72, 100
2, 161472, Note_on_c, 0, 77, 99
2, 161564, Note_off_c, 0, 77, 100
2, 161568, Note_on_c, 0, 80, 98
2, 161660, Note_off_c, 0, 80, 100
2, 161664, Note_on_c, 0, 84, 96
2, 161756, Note_off_c, 0, 84, 100
2, 161760, Note_on_c, 0, 85, 95
2, 161852, Note_off_c, 0, 85, 100
2, 161856, Note_on_c, 0, 84, 93
2, 161948, Note_off_c, 0, 84, 100
2, 161952, Note_on_c, 0, 82, 92
2, 162044, Note_off_c, 0, 82, 100
2, 162048, Note_on_c, 0, 80, 100
2, 162140, Note_off_c, 0, 80, 100
2, 162144, Note_on_c, 0, 82, 98
2, 162236, Note_off_c, 0, 82, 100
2, 162240, Note_on_c, 0, 80, 95
2, 162332, Note_off_c, 0, 80, 100
2, 162336, Note_on_c, 0, 79, 92
2, 162428, Note_off_c, 0, 79, 100
2, 162432, Note_on_c, 0, 77, 89
2, 162524, Note_off_c, 0, 77, 100
2, 162528, Note_on_c, 0, 79, 86
2, 162620, Note_off_c, 0, 79, 100
2, 162624, Note_on_c, 0, 80, 83
2, 162716, Note_off_c, 0, 80, 100
2, 162720, Note_on_c, 0, 77, 81
2, 162812, Note_off_c, 0, 77, 100
2, 162912, Note_on_c, 0, 72, 82
2, 163004, Note_off_c, 0, 72, 100
2, 163008, Note_on_c, 0, 77, 85
2, 163100, Note_off_c, 0, 77, 100
2, 163104, Note_on_c, 0, 80, 88
2, 163196, Note_off_c, 0, 80, 100
2, 163200, Note_on_c, 0, 84, 91
2, 163292, Note_off_c, 0, 84, 100
2, 163296, Note_on_c, 0, 85, 94
2, 163388, Note_off_c, 0, 85, 100
2, 163392, Note_on_c, 0, 84, 97
2, 163484, Note_off_c, 0, 84, 100
2, 163488, Note_on_c, 0, 82, 99
2, 163580, Note_off_c, 0, 82, 100
2, 163584, Note_on_c, 0, 80, 100
2, 163676, Note_off_c, 0, 80, 100
2, 163680, Note_on_c, 0, 82, 98
2, 163772, Note_off_c, 0, 82, 100
2, 163776, Note_on_c, 0, 80, 95
2, 163868, Note_off_c, 0, 80, 100
2, 163872, Note_on_c, 0, 79, 92
2, 163964, Note_off_c, 0, 79, 100
2, 163968, Note_on_c, 0, 77, 89
2, 164060, Note_off_c, 0, 77, 100
2, 164064, Note_on_c, 0, 79, 86
2, 164156, Note_off_c, 0, 79, 100
2, 164160, Note_on_c, 0, 80, 83
2, 164252, Note_off_c, 0, 80, 100
2, 164256, Note_on_c, 0, 77, 81
2, 164348, Note_off_c, 0, 77, 100
2, 164448, Note_on_c, 0, 77, 82
2, 164540, Note_off_c, 0, 77, 100
2, 164544, Note_on_c, 0, 83, 85
2, 164636, Note_off_c, 0, 83, 100
2, 164640, Note_on_c, 0, 86, 88
2, 164732, Note_off_c, 0, 86, 100
2, 164736, Note_on_c, 0, 89, 91
2, 164828, Note_off_c, 0, 89, 100
2, 164832, Note_on_c, 0, 91, 94
2, 164924, Note_off_c, 0, 91, 100
2, 164928, Note_on_c, 0, 89, 97
2, 165020, Note_off_c, 0, 89, 100
2, 165024, Note_on_c, 0, 87, 99
2, 165116, Note_off_c, 0, 87, 100
2, 165120, Note_on_c, 0, 86, 100
2, 165212, Note_off_c, 0, 86, 100
2, 165216, Note_on_c, 0, 87, 98
2, 165308, Note_off_c, 0, 87, 100
2, 165312, Note_on_c, 0, 86, 95
2, 165404, Note_off_c, 0, 86, 100
2, 165408, Note_on_c, 0, 84, 92
2, 165500, Note_off_c, 0, 84, 100
2, 165504, Note_on_c, 0, 83, 89
2, 165596, Note_off_c, 0, 83, 100
2, 165600, Note_on_c, 0, 84, 86
2, 165692, Note_off_c, 0, 84, 100
2, 165696, Note_on_c, 0, 86, 83
2, 165788, Note_off_c, 0, 86, 100
2, 165792, Note_on_c, 0, 83, 81
2, 165884, Note_off_c, 0, 83, 100
2, 165984, Note_on_c, 0, 77, 82
2, 166076, Note_off_c, 0, 77, 100
2, 166080, Note_on_c, 0, 83, 85
2, 166172, Note_off_c, 0, 83, 100
2, 166176, Note_on_c, 0, 86, 88
2, 166268, Note_off_c, 0, 86, 100
2, 166272, Note_on_c, 0, 89, 91
2, 166364, Note_off_c, 0, 89, 100
2, 166368, Note_on_c, 0, 91, 94
2, 166460, Note_off_c, 0, 91, 100
2, 166464, Note_on_c, 0, 89, 97
2, 166556, Note_off_c, 0, 89, 100
2, 166560, Note_on_c, 0, 87, 99
2, 166652, Note_off_c, 0, 87, 100
2, 166656, Note_on_c, 0, 86, 100
2, 166748, Note_off_c, 0, 86, 100
2, 166752, Note_on_c, 0, 87, 98
2, 166844, Note_off_c, 0, 87, 100
2, 166848, Note_on_c, 0, 86, 95
2, 166940, Note_off_c, 0, 86, 100
2, 166944, Note_on_c, 0, 84, 92
2, 167036, Note_off_c, 0, 84, 100
2, 167040, Note_on_c, 0, 83, 89
2, 167132, Note_off_c, 0, 83, 100
2, 167136, Note_on_c, 0, 84, 86
2, 167228, Note_off_c, 0, 84, 100
2, 167232, Note_on_c, 0, 86, 83
2, 167324, Note_off_c, 0, 86, 100
2, 167328, Note_on_c, 0, 83, 81
2, 167420, Note_off_c, 0, 83, 100
2, 167520, Note_on_c, 0, 79, 82
2, 167612, Note_off_c, 0, 79, 100
2, 167616, Note_on_c, 0, 84, 85
2, 167708, Note_off_c, 0, 84, 100
2, 167712, Note_on_c, 0, 87, 88
2, 167804, Note_off_c, 0, 87, 100
2, 167808, Note_on_c, 0, 91, 91
2, 167900, Note_off_c, 0, 91, 100
2, 167904, Note_on_c, 0, 92, 94
2, 167996, Note_off_c, 0, 92, 100
2, 168000, Note_on_c, 0, 91, 97
2, 168092, Note_off_c, 0, 91, 100
2, 168096, Note_on_c, 0, 89, 99
2, 168188, Note_off_c, 0, 89, 100
2, 168192, Note_on_c, 0, 87, 100
2, 168284, Note_off_c, 0, 87, 100
2, 168288, Note_on_c, 0, 89, 98
2, 168380, Note_off_c, 0, 89, 100
2, 168384, Note_on_c, 0, 87, 95
2, 168476, Note_off_c, 0, 87, 100
2, 168480, Note_on_c, 0, 86, 92
2, 168572, Note_off_c, 0, 86, 100
2, 168576, Note_on_c, 0, 84, 89
2, 168668, Note_off_c, 0, 84, 100
2, 168672, Note_on_c, 0, 86, 86
2, 168764, Note_off_c, 0, 86, 100
2, 168768, Note_on_c, 0, 87, 83
2, 168860, Note_off_c, 0, 87, 100
2, 168864, Note_on_c, 0, 84, 81
2, 168956, Note_off_c, 0, 84, 100
2, 169056, Note_on_c, 0, 79, 91
2, 169148, Note_off_c, 0, 79, 100
2, 169152, Note_on_c, 0, 84, 92
2, 169244, Note_off_c, 0, 84, 100
2, 169248, Note_on_c, 0, 87, 93
2, 169340, Note_off_c, 0, 87, 100
2, 169344, Note_on_c, 0, 91, 94
2, 169436, Note_off_c, 0, 91, 100
2, 169440, Note_on_c, 0, 92, 96
2, 169532, Note_off_c, 0, 92, 100
2, 169536, Note_on_c, 0, 91, 97
2, 169628, Note_off_c, 0, 91, 100
2, 169632, Note_on_c, 0, 89, 98
2, 169724, Note_off_c, 0, 89, 100
2, 169728, Note_on_c, 0, 87, 99
2, 169820, Note_off_c, 0, 87, 100
2, 169824, Note_on_c, 0, 89, 101
2, 169916, Note_off_c, 0, 89, 100
2, 169920, Note_on_c, 0, 87, 102
2, 170012, Note_off_c, 0, 87, 100
2, 170016, Note_on_c, 0, 86, 103
2, 170108, Note_off_c, 0, 86, 100
2, 170112, Note_on_c, 0, 84, 104
2, 170204, Note_off_c, 0, 84, 100
2, 170208, Note_on_c, 0, 86, 106
2, 170300, Note_off_c, 0, 86, 100
2, 170304, Note_on_c, 0, 87, 107
2, 170396, Note_off_c, 0, 87, 100
2, 170400, Note_on_c, 0, 84, 108
2, 170492, Note_off_c, 0, 84, 100
2, 170592, Note_on_c, 0, 85, 80
2, 170684, Note_off_c, 0, 85, 100
2, 170688, Note_on_c, 0, 87, 80
2, 170780, Note_off_c, 0, 87, 100
2, 170784, Note_on_c, 0, 85, 80
2, 170876, Note_off_c, 0, 85, 100
2, 170880, Note_on_c, 0, 87, 80
2, 170972, Note_off_c, 0, 87, 100
2, 170976, Note_on_c, 0, 85, 80
2, 171068, Note_off_c, 0, 85, 100
2, 171072, Note_on_c, 0, 84, 80
2, 171164, Note_off_c, 0, 84, 100
2, 171168, Note_on_c, 0, 85, 80
2, 171260, Note_off_c, 0, 85, 100
2, 171360, Note_on_c, 0, 83, 80
2, 171452, Note_off_c, 0, 83, 100
2, 171456, Note_on_c, 0, 84, 80
2, 171548, Note_off_c, 0, 84, 100
2, 171552, Note_on_c, 0, 83, 80
2, 171644, Note_off_c, 0, 83, 100
2, 171744, Note_on_c, 0, 84, 80
2, 171836, Note_off_c, 0, 84, 100
2, 171840, Note_on_c, 0, 86, 80
2, 171932, Note_off_c, 0, 86, 100
2, 171936, Note_on_c, 0, 84, 80
2, 172028, Note_off_c, 0, 84, 100
2, 172128, Note_on_c, 0, 85, 80
2, 172220, Note_off_c, 0, 85, 100
2, 172224, Note_on_c, 0, 87, 80
2, 172316, Note_off_c, 0, 87, 100
2, 172320, Note_on_c, 0, 85, 80
2, 172412, Note_off_c, 0, 85, 100
2, 172416, Note_on_c, 0, 87, 80
2, 172508, Note_off_c, 0, 87, 100
2, 172512, Note_on_c, 0, 85, 80
2, 172604, Note_off_c, 0, 85, 100
2, 172608, Note_on_c, 0, 84, 80
2, 172700, Note_off_c, 0, 84, 100
2, 172704, Note_on_c, 0, 85, 80
2, 172796, Note_off_c, 0, 85, 100
2, 172896, Note_on_c, 0, 83, 80
2, 172988, Note_off_c, 0, 83, 100
2, 172992, Note_on_c, 0, 84, 80
2, 173084, Note_off_c, 0, 84, 100
2, 173088, Note_on_c, 0, 83, 80
2, 173180, Note_off_c, 0, 83, 100
2, 173280, Note_on_c, 0, 84, 80
2, 173372, Note_off_c, 0, 84, 100
2, 173376, Note_on_c, 0, 86, 80
2, 173468, Note_off_c, 0, 86, 100
2, 173472, Note_on_c, 0, 84, 80
2, 173564, Note_off_c, 0, 84, 100
2, 173664, Note_on_c, 0, 85, 80
2, 173756, Note_off_c, 0, 85, 100
2, 173760, Note_on_c, 0, 87, 80
2, 173852, Note_off_c, 0, 87, 100
2, 173856, Note_on_c, 0, 85, 80
2, 173948, Note_off_c, 0, 85, 100
2, 173952, Note_on_c, 0, 87, 80
2, 174044, Note_off_c, 0, 87, 100
2, 174048, Note_on_c, 0, 85, 80
2, 174140, Note_off_c, 0, 85, 100
2, 174144, Note_on_c, 0, 84, 80
2, 174236, Note_off_c, 0, 84, 100
2, 174240, Note_on_c, 0, 86, 80
2, 174332, Note_off_c, 0, 86, 100
2, 174432, Note_on_c, 0, 83, 81
2, 174524, Note_off_c, 0, 83, 100
2, 174528, Note_on_c, 0, 84, 82
2, 174620, Note_off_c, 0, 84, 100
2, 174624, Note_on_c, 0, 83, 83
2, 174716, Note_off_c, 0, 83, 100
2, 174816, Note_on_c, 0, 80, 86
2, 174908, Note_off_c, 0, 80, 100
2, 174912, Note_on_c, 0, 82, 87
2, 175004, Note_off_c, 0, 82, 100
2, 175008, Note_on_c, 0, 80, 89
2, 175100, Note_off_c, 0, 80, 100
2, 175200, Note_on_c, 0, 79, 91
2, 175292, Note_off_c, 0, 79, 100
2, 175296, Note_on_c, 0, 80, 93
2, 175388, Note_off_c, 0, 80, 100
2, 175392, Note_on_c, 0, 79, 94
2, 175484, Note_off_c, 0, 79, 100
2, 175584, Note_on_c, 0, 78, 96
2, 175676, Note_off_c, 0, 78, 100
2, 175680, Note_on_c, 0, 79, 98
2, 175772, Note_off_c, 0, 79, 100
2, 175776, Note_on_c, 0, 78, 99
2, 175868, Note_off_c, 0, 78, 100
2, 175968, Note_on_c, 0, 77, 102
2, 176060, Note_off_c, 0, 77, 100
2, 176064, Note_on_c, 0, 79, 103
2, 176156, Note_off_c, 0, 79, 100
2, 176160, Note_on_c, 0, 77, 104
2, 176252, Note_off_c, 0, 77, 100
2, 176352, Note_on_c, 0, 75, 107
2, 176444, Note_off_c, 0, 75, 100
2, 176448, Note_on_c, 0, 77, 108
2, 176540, Note_off_c, 0, 77, 100
2, 176544, Note_on_c, 0, 75, 109
2, 176636, Note_off_c, 0, 75, 100
2, 176736, Note_on_c, 0, 75, 109
2, 176828, Note_off_c, 0, 75, 100
2, 176832, Note_on_c, 0, 77, 108
2, 176924, Note_off_c, 0, 77, 100
2, 176928, Note_on_c, 0, 75, 107
2, 177020, Note_off_c, 0, 75, 100
2, 177120, Note_on_c, 0, 74, 104
2, 177212, Note_off_c, 0, 74, 100
2, 177216, Note_on_c, 0, 75, 103
2, 177308, Note_off_c, 0, 75, 100
2, 177312, Note_on_c, 0, 74, 101
2, 177404, Note_off_c, 0, 74, 100
2, 177504, Note_on_c, 0, 72, 99
2, 177596, Note_off_c, 0, 72, 100
2, 177600, Note_on_c, 0, 74, 97
2, 177692, Note_off_c, 0, 74, 100
2, 177696, Note_on_c, 0, 72, 96
2, 177788, Note_off_c, 0, 72, 100
2, 177888, Note_on_c, 0, 71, 93
2, 177980, Note_off_c, 0, 71, 100
2, 177984, Note_on_c, 0, 72, 92
2, 178076, Note_off_c, 0, 72, 100
2, 178080, Note_on_c, 0, 71, 91
2, 178172, Note_off_c, 0, 71, 100
2, 178272, Note_on_c, 0, 68, 80
2, 178364, Note_off_c, 0, 68, 100
2, 178368, Note_on_c, 0, 80, 80
2, 178460, Note_off_c, 0, 80, 100
2, 178464, Note_on_c, 0, 68, 80
2, 178556, Note_off_c, 0, 68, 100
2, 178560, Note_on_c, 0, 80, 80
2, 178652, Note_off_c, 0, 80, 100
2, 178656, Note_on_c, 0, 68, 80
2, 178748, Note_off_c, 0, 68, 100
2, 178752, Note_on_c, 0, 80, 80
2, 178844, Note_off_c, 0, 80, 100
2, 178848, Note_on_c, 0, 68, 80
2, 178940, Note_off_c, 0, 68, 100
2, 179040, Note_on_c, 0, 68, 80
2, 179132, Note_off_c, 0, 68, 100
2, 179136, Note_on_c, 0, 80, 80
2, 179228, Note_off_c, 0, 80, 100
2, 179232, Note_on_c, 0, 79, 80
2, 179324, Note_off_c, 0, 79, 100
2, 179328, Note_on_c, 0, 77, 80
2, 179420, Note_off_c, 0, 77, 100
2, 179424, Note_on_c, 0, 75, 80
2, 179516, Note_off_c, 0, 75, 100
2, 179520, Note_on_c, 0, 74, 80
2, 179612, Note_off_c, 0, 74, 100
2, 179616, Note_on_c, 0, 72, 80
2, 179708, Note_off_c, 0, 72, 100
2, 179808, Note_on_c, 0, 80, 80
2, 179900, Note_off_c, 0, 80, 100
2, 179904, Note_on_c, 0, 92, 80
2, 179996, Note_off_c, 0, 92, 100
2, 180000, Note_on_c, 0, 80, 80
2, 180092, Note_off_c, 0, 80, 100
2, 180096, Note_on_c, 0, 92, 80
2, 180188, Note_off_c, 0, 92, 100
2, 180192, Note_on_c, 0, 80, 80
2, 180284, Note_off_c, 0, 80, 100
2, 180288, Note_on_c, 0, 92, 80
2, 180380, Note_off_c, 0, 92, 100
2, 180384, Note_on_c, 0, 80, 80
2, 180476, Note_off_c, 0, 80, 100
2, 180576, Note_on_c, 0, 80, 80
2, 180668, Note_off_c, 0, 80, 100
2, 180672, Note_on_c, 0, 92, 80
2, 180764, Note_off_c, 0, 92, 100
2, 180768, Note_on_c, 0, 91, 80
2, 180860, Note_off_c, 0, 91, 100
2, 180864, Note_on_c, 0, 89, 80
2, 180956, Note_off_c, 0, 89, 100
2, 180960, Note_on_c, 0, 87, 80
2, 181052, Note_off_c, 0, 87, 100
2, 181056, Note_on_c, 0, 86, 80
2, 181148, Note_off_c, 0, 86, 100
2, 181152, Note_on_c, 0, 84, 80
2, 181244, Note_off_c, 0, 84, 100
2, 181344, Note_on_c, 0, 68, 90
2, 181436, Note_off_c, 0, 68, 100
2, 181440, Note_on_c, 0, 80, 91
2, 181532, Note_off_c, 0, 80, 100
2, 181536, Note_on_c, 0, 68, 92
2, 181628, Note_off_c, 0, 68, 100
2, 181632, Note_on_c, 0, 80, 93
2, 181724, Note_off_c, 0, 80, 100
2, 181728, Note_on_c, 0, 68, 94
2, 181820, Note_off_c, 0, 68, 100
2, 181824, Note_on_c, 0, 80, 95
2, 181916, Note_off_c, 0, 80, 100
2, 181920, Note_on_c, 0, 68, 96
2, 182012, Note_off_c, 0, 68, 100
2, 182112, Note_on_c, 0, 80, 98
2, 182204, Note_off_c, 0, 80, 100
2, 182208, Note_on_c, 0, 68, 99
2, 182300, Note_off_c, 0, 68, 100
2, 182304, Note_on_c, 0, 80, 100
2, 182396, Note_off_c, 0, 80, 100
2, 182496, Note_on_c, 0, 92, 102
2, 182588, Note_off_c, 0, 92, 100
2, 182592, Note_on_c, 0, 80, 103
2, 182684, Note_off_c, 0, 80, 100
2, 182688, Note_on_c, 0, 92, 104
2, 182780, Note_off_c, 0, 92, 100
2, 182880, Note_on_c, 0, 91, 106
2, 182972, Note_off_c, 0, 91, 100
2, 182976, Note_on_c, 0, 79, 107
2, 183068, Note_off_c, 0, 79, 100
2, 183072, Note_on_c, 0, 91, 108
2, 183164, Note_off_c, 0, 91, 100
2, 183264, Note_on_c, 0, 90, 110
2, 183356, Note_off_c, 0, 90, 100
2, 183360, Note_on_c, 0, 78, 111
2, 183452, Note_off_c, 0, 78, 100
2, 183456, Note_on_c, 0, 90, 112
2, 183548, Note_off_c, 0, 90, 100
2, 183648, Note_on_c, 0, 89, 114
2, 183740, Note_off_c, 0, 89, 100
2, 183744, Note_on_c, 0, 77, 115
2, 183836, Note_off_c, 0, 77, 100
2, 183840, Note_on_c, 0, 89, 116
2, 183932, Note_off_c, 0, 89, 100
2, 184032, Note_on_c, 0, 87, 118
2, 184124, Note_off_c, 0, 87, 100
2, 184128, Note_on_c, 0, 79, 118
2, 184128, Note_on_c, 0, 75, 118
2, 184220, Note_off_c, 0, 79, 100
2, 184220, Note_off_c, 0, 75, 100
2, 184224, Note_on_c, 0, 87, 119
2, 184316, Note_off_c, 0, 87, 100
2, 184416, Note_on_c, 0, 87, 119
2, 184508, Note_off_c, 0, 87, 100
2, 184512, Note_on_c, 0, 81, 117
2, 184512, Note_on_c, 0, 75, 117
2, 184604, Note_off_c, 0, 81, 100
2, 184604, Note_off_c, 0, 75, 100
2, 184608, Note_on_c, 0, 87, 115
2, 184700, Note_off_c, 0, 87, 100
2, 184800, Note_on_c, 0, 86, 111
2, 184892, Note_off_c, 0, 86, 100
2, 184896, Note_on_c, 0, 81, 109
2, 184896, Note_on_c, 0, 74, 109
2, 184988, Note_off_c, 0, 81, 100
2, 184988, Note_off_c, 0, 74, 100
2, 184992, Note_on_c, 0, 86, 107
2, 185084, Note_off_c, 0, 86, 100
2, 185184, Note_on_c, 0, 84, 103
2, 185276, Note_off_c, 0, 84, 100
2, 185280, Note_on_c, 0, 75, 101
2, 185280, Note_on_c, 0, 72, 101
2, 185372, Note_off_c, 0, 75, 100
2, 185372, Note_off_c, 0, 72, 100
2, 185376, Note_on_c, 0, 84, 99
2, 185468, Note_off_c, 0, 84, 100
2, 185568, Note_on_c, 0, 83, 95
2, 185660, Note_off_c, 0, 83, 100
2, 185664, Note_on_c, 0, 74, 93
2, 185664, Note_on_c, 0, 71, 93
2, 185756, Note_off_c, 0, 74, 100
2, 185756, Note_off_c, 0, 71, 100
2, 185760, Note_on_c, 0, 83, 91
2, 185852, Note_off_c, 0, 83, 100
2, 185856, Note_on_c, 0, 84, 120
2, 185856, Note_on_c, 0, 79, 120
2, 185856, Note_on_c, 0, 75, 120
2, 185856, Note_on_c, 0, 72, 120
2, 185948, Note_off_c, 0, 84, 100
2, 185948, Note_off_c, 0, 79, 100
2, 185948, Note_off_c, 0, 75, 100
2, 185948, Note_off_c, 0, 72, 100
2, 185952, Note_on_c, 0, 67, 110
2, 186044, Note_off_c, 0, 67, 100
2, 186048, Note_on_c, 0, 72, 110
2, 186140, Note_off_c, 0, 72, 100
2, 186144, Note_on_c, 0, 75, 110
2, 186236, Note_off_c, 0, 75, 100
2, 186240, Note_on_c, 0, 79, 110
2, 186332, Note_off_c, 0, 79, 100
2, 186336, Note_on_c, 0, 80, 110
2, 186428, Note_off_c, 0, 80, 100
2, 186432, Note_on_c, 0, 79, 110
2, 186524, Note_off_c, 0, 79, 100
2, 186528, Note_on_c, 0, 77, 110
2, 186620, Note_off_c, 0, 77, 100
2, 186624, Note_on_c, 0, 75, 110
2, 186716, Note_off_c, 0, 75, 100
2, 186720, Note_on_c, 0, 77, 110
2, 186812, Note_off_c, 0, 77, 100
2, 186816, Note_on_c, 0, 75, 110
2, 186908, Note_off_c, 0, 75, 100
2, 186912, Note_on_c, 0, 74, 110
2, 187004, Note_off_c, 0, 74, 100
2, 187008, Note_on_c, 0, 72, 110
2, 187100, Note_off_c, 0, 72, 100
2, 187104, Note_on_c, 0, 70, 110
2, 187196, Note_off_c, 0, 70, 100
2, 187200, Note_on_c, 0, 68, 110
2, 187292, Note_off_c, 0, 68, 100
2, 187296, Note_on_c, 0, 67, 110
2, 187388, Note_off_c, 0, 67, 100
2, 187392, Note_on_c, 0, 65, 110
2, 187484, Note_off_c, 0, 65, 100
2, 187488, Note_on_c, 0, 63, 110
2, 187580, Note_off_c, 0, 63, 100
2, 187584, Note_on_c, 0, 62, 110
2, 187676, Note_off_c, 0, 62, 100
2, 187680, Note_on_c, 0, 60, 110
2, 187772, Note_off_c, 0, 60, 100
2, 187776, Note_on_c, 0, 59, 110
2, 187964, Note_off_c, 0, 59, 100
2, 187968, Note_on_c, 0, 67, 110
2, 187968, Note_on_c, 0, 62, 110
2, 187968, Note_on_c, 0, 59, 110
2, 187968, Note_on_c, 0, 55, 110
2, 188156, Note_off_c, 0, 67, 100
2, 188156, Note_off_c, 0, 62, 100
2, 188156, Note_off_c, 0, 59, 100
2, 188156, Note_off_c, 0, 55, 100
2, 188160, Note_on_c, 0, 67, 110
2, 188160, Note_on_c, 0, 65, 110
2, 188160, Note_on_c, 0, 59, 110
2, 188160, Note_on_c, 0, 55, 110
2, 188348, Note_off_c, 0, 67, 100
2, 188348, Note_off_c, 0, 65, 100
2, 188348, Note_off_c, 0, 59, 100
2, 188348, Note_off_c, 0, 55, 100
2, 188352, Note_on_c, 0, 67, 110
2, 188352, Note_on_c, 0, 65, 110
2, 188352, Note_on_c, 0, 59, 110
2, 188352, Note_on_c, 0, 55, 110
2, 188540, Note_off_c, 0, 67, 100
2, 188540, Note_off_c, 0, 65, 100
2, 188540, Note_off_c, 0, 59, 100
2, 188540, Note_off_c, 0, 55, 100
2, 188544, Note_on_c, 0, 67, 110
2, 188544, Note_on_c, 0, 65, 110
2, 188544, Note_on_c, 0, 59, 110
2, 188544, Note_on_c, 0, 55, 110
2, 188732, Note_off_c, 0, 67, 100
2, 188732, Note_off_c, 0, 65, 100
2, 188732, Note_off_c, 0, 59, 100
2, 188732, Note_off_c, 0, 55, 100
2, 188736, Note_on_c, 0, 67, 110
2, 188736, Note_on_c, 0, 65, 110
2, 188736, Note_on_c, 0, 59, 110
2, 188736, Note_on_c, 0, 55, 110
2, 188924, Note_off_c, 0, 67, 100
2, 188924, Note_off_c, 0, 65, 100
2, 188924, Note_off_c, 0, 59, 100
2, 188924, Note_off_c, 0, 55, 100
2, 188928, Note_on_c, 0, 67, 110
2, 188928, Note_on_c, 0, 63, 110
2, 188928, Note_on_c, 0, 60, 110
2, 188928, Note_on_c, 0, 55, 110
2, 189020, Note_off_c, 0, 67, 100
2, 189020, Note_off_c, 0, 63, 100
2, 189020, Note_off_c, 0, 60, 100
2, 189020, Note_off_c, 0, 55, 100
2, 189024, Note_on_c, 0, 79, 110
2, 189116, Note_off_c, 0, 79, 100
2, 189120, Note_on_c, 0, 84, 110
2, 189212, Note_off_c, 0, 84, 100
2, 189216, Note_on_c, 0, 87, 110
2, 189308, Note_off_c, 0, 87, 100
2, 189312, Note_on_c, 0, 91, 110
2, 189404, Note_off_c, 0, 91, 100
2, 189408, Note_on_c, 0, 92, 110
2, 189500, Note_off_c, 0, 92, 100
2, 189504, Note_on_c, 0, 91, 110
2, 189596, Note_off_c, 0, 91, 100
2, 189600, Note_on_c, 0, 89, 110
2, 189692, Note_off_c, 0, 89, 100
2, 189696, Note_on_c, 0, 87, 110
2, 189788, Note_off_c, 0, 87, 100
2, 189792, Note_on_c, 0, 89, 110
2, 189884, Note_off_c, 0, 89, 100
2, 189888, Note_on_c, 0, 87, 110
2, 189980, Note_off_c, 0, 87, 100
2, 189984, Note_on_c, 0, 86, 110
2, 190076, Note_off_c, 0, 86, 100
2, 190080, Note_on_c, 0, 84, 110
2, 190172, Note_off_c, 0, 84, 100
2, 190176, Note_on_c, 0, 82, 110
2, 190268, Note_off_c, 0, 82, 100
2, 190272, Note_on_c, 0, 80, 110
2, 190364, Note_off_c, 0, 80, 100
2, 190368, Note_on_c, 0, 79, 110
2, 190460, Note_off_c, 0, 79, 100
2, 190464, Note_on_c, 0, 77, 110
2, 190556, Note_off_c, 0, 77, 100
2, 190560, Note_on_c, 0, 75, 110
2, 190652, Note_off_c, 0, 75, 100
2, 190656, Note_on_c, 0, 74, 110
2, 190748, Note_off_c, 0, 74, 100
2, 190752, Note_on_c, 0, 72, 110
2, 190844, Note_off_c, 0, 72, 100
2, 190848, Note_on_c, 0, 71, 110
2, 191036, Note_off_c, 0, 71, 100
2, 191040, Note_on_c, 0, 79, 110
2, 191040, Note_on_c, 0, 74, 110
2, 191040, Note_on_c, 0, 71, 110
2, 191040, Note_on_c, 0, 67, 110
2, 191228, Note_off_c, 0, 79, 100
2, 191228, Note_off_c, 0, 74, 100
2, 191228, Note_off_c, 0, 71, 100
2, 191228, Note_off_c, 0, 67, 100
2, 191232, Note_on_c, 0, 79, 110
2, 191232, Note_on_c, 0, 77, 110
2, 191232, Note_on_c, 0, 71, 110
2, 191232, Note_on_c, 0, 67, 110
2, 191420, Note_off_c, 0, 79, 100
2, 191420, Note_off_c, 0, 77, 100
2, 191420, Note_off_c, 0, 71, 100
2, 191420, Note_off_c, 0, 67, 100
2, 191424, Note_on_c, 0, 79, 110
2, 191424, Note_on_c, 0, 77, 110
2, 191424, Note_on_c, 0, 71, 110
2, 191424, Note_on_c, 0, 67, 110
2, 191612, Note_off_c, 0, 79, 100
2, 191612, Note_off_c, 0, 77, 100
2, 191612, Note_off_c, 0, 71, 100
2, 191612, Note_off_c, 0, 67, 100
2, 191616, Note_on_c, 0, 79, 110
2, 191616, Note_on_c, 0, 77, 110
2, 191616, Note_on_c, 0, 71, 110
2, 191616, Note_on_c, 0, 67, 110
2, 191804, Note_off_c, 0, 79, 100
2, 191804, Note_off_c, 0, 77, 100
2, 191804, Note_off_c, 0, 71, 100
2, 191804, Note_off_c, 0, 67, 100
2, 191808, Note_on_c, 0, 79, 110
2, 191808, Note_on_c, 0, 77, 110
2, 191808, Note_on_c, 0, 71, 110
2, 191808, Note_on_c, 0, 67, 110
2, 191996, Note_off_c, 0, 79, 100
2, 191996, Note_off_c, 0, 77, 100
2, 191996, Note_off_c, 0, 71, 100
2, 191996, Note_off_c, 0, 67, 100
2, 192000, Note_on_c, 0, 79, 110
2, 192000, Note_on_c, 0, 75, 110
2, 192000, Note_on_c, 0, 72, 110
2, 192000, Note_on_c, 0, 67, 110
2, 192380, Note_off_c, 0, 79, 100
2, 192380, Note_off_c, 0, 75, 100
2, 192380, Note_off_c, 0, 72, 100
2, 192380, Note_off_c, 0, 67, 100
2, 192576, Note_on_c, 0, 91, 110
2, 192576, Note_on_c, 0, 87, 110
2, 192576, Note_on_c, 0, 84, 110
2, 192576, Note_on_c, 0, 79, 110
2, 192764, Note_off_c, 0, 91, 100
2, 192764, Note_off_c, 0, 87, 100
2, 192764, Note_off_c, 0, 84, 100
2, 192764, Note_off_c, 0, 79, 100
2, 192768, Note_on_c, 0, 91, 110
2, 192768, Note_on_c, 0, 89, 110
2, 192768, Note_on_c, 0, 83, 110
2, 192768, Note_on_c, 0, 79, 110
2, 192956, Note_off_c, 0, 91, 100
2, 192956, Note_off_c, 0, 89, 100
2, 192956, Note_off_c, 0, 83, 100
2, 192956, Note_off_c, 0, 79, 100
2, 192960, Note_on_c, 0, 91, 110
2, 192960, Note_on_c, 0, 89, 110
2, 192960, Note_on_c, 0, 83, 110
2, 192960, Note_on_c, 0, 79, 110
2, 193148, Note_off_c, 0, 91, 100
2, 193148, Note_off_c, 0, 89, 100
2, 193148, Note_off_c, 0, 83, 100
2, 193148, Note_off_c, 0, 79, 100
2, 193152, Note_on_c, 0, 91, 110
2, 193152, Note_on_c, 0, 89, 110
2, 193152, Note_on_c, 0, 83, 110
2, 193152, Note_on_c, 0, 79, 110
2, 193340, Note_off_c, 0, 91, 100
2, 193340, Note_off_c, 0, 89, 100
2, 193340, Note_off_c, 0, 83, 100
2, 193340, Note_off_c, 0, 79, 100
2, 193344, Note_on_c, 0, 91, 110
2, 193344, Note_on_c, 0, 89, 110
2, 193344, Note_on_c, 0, 83, 110
2, 193344, Note_on_c, 0, 79, 110
2, 193532, Note_off_c, 0, 91, 100
2, 193532, Note_off_c, 0, 89, 100
2, 193532, Note_off_c, 0, 83, 100
2, 193532, Note_off_c, 0, 79, 100
2, 193536, Note_on_c, 0, 91, 110
2, 193536, Note_on_c, 0, 87, 110
2, 193536, Note_on_c, 0, 84, 110
2, 193536, Note_on_c, 0, 79, 110
2, 193916, Note_off_c, 0, 91, 100
2, 193916, Note_off_c, 0, 87, 100
2, 193916, Note_off_c, 0, 84, 100
2, 193916, Note_off_c, 0, 79, 100
2, 194112, Note_on_c, 0, 79, 110
2, 194112, Note_on_c, 0, 75, 110
2, 194112, Note_on_c, 0, 72, 110
2, 194112, Note_on_c, 0, 67, 110
2, 194300, Note_off_c, 0, 79, 100
2, 194300, Note_off_c, 0, 75, 100
2, 194300, Note_off_c, 0, 72, 100
2, 194300, Note_off_c, 0, 67, 100
2, 194304, Note_on_c, 0, 79, 110
2, 194304, Note_on_c, 0, 77, 110
2, 194304, Note_on_c, 0, 71, 110
2, 194304, Note_on_c, 0, 67, 110
2, 194492, Note_off_c, 0, 79, 100
2, 194492, Note_off_c, 0, 77, 100
2, 194492, Note_off_c, 0, 71, 100
2, 194492, Note_off_c, 0, 67, 100
2, 194496, Note_on_c, 0, 79, 110
2, 194496, Note_on_c, 0, 77, 110
2, 194496, Note_on_c, 0, 71, 110
2, 194496, Note_on_c, 0, 67, 110
2, 194684, Note_off_c, 0, 79, 100
2, 194684, Note_off_c, 0, 77, 100
2, 194684, Note_off_c, 0, 71, 100
2, 194684, Note_off_c, 0, 67, 100
2, 194688, Note_on_c, 0, 79, 110
2, 194688, Note_on_c, 0, 77, 110
2, 194688, Note_on_c, 0, 71, 110
2, 194688, Note_on_c, 0, 67, 110
2, 194876, Note_off_c, 0, 79, 100
2, 194876, Note_off_c, 0, 77, 100
2, 194876, Note_off_c, 0, 71, 100
2, 194876, Note_off_c, 0, 67, 100
2, 194880, Note_on_c, 0, 79, 110
2, 194880, Note_on_c, 0, 77, 110
2, 194880, Note_on_c, 0, 71, 110
2, 194880, Note_on_c, 0, 67, 110
2, 195068, Note_off_c, 0, 79, 100
2, 195068, Note_off_c, 0, 77, 100
2, 195068, Note_off_c, 0, 71, 100
2, 195068, Note_off_c, 0, 67, 100
2, 195072, Note_on_c, 0, 79, 110
2, 195072, Note_on_c, 0, 75, 110
2, 195072, Note_on_c, 0, 72, 110
2, 195072, Note_on_c, 0, 67, 110
2, 195452, Note_off_c, 0, 79, 100
2, 195452, Note_off_c, 0, 75, 100
2, 195452, Note_off_c, 0, 72, 100
2, 195452, Note_off_c, 0, 67, 100
2, 195648, Note_on_c, 0, 84, 110
2, 195648, Note_on_c, 0, 79, 110
2, 195648, Note_on_c, 0, 75, 110
2, 195648, Note_on_c, 0, 72, 110
2, 195836, Note_off_c, 0, 84, 100
2, 195836, Note_off_c, 0, 79, 100
2, 195836, Note_off_c, 0, 75, 100
2, 195836, Note_off_c, 0, 72, 100
2, 195840, Note_on_c, 0, 84, 110
2, 195840, Note_on_c, 0, 79, 110
2, 195840, Note_on_c, 0, 76, 110
2, 195840, Note_on_c, 0, 72, 110
2, 196028, Note_off_c, 0, 84, 100
2, 196028, Note_off_c, 0, 79, 100
2, 196028, Note_off_c, 0, 76, 100
2, 196028, Note_off_c, 0, 72, 100
2, 196032, Note_on_c, 0, 84, 110
2, 196032, Note_on_c, 0, 79, 110
2, 196032, Note_on_c, 0, 76, 110
2, 196032, Note_on_c, 0, 72, 110
2, 196220, Note_off_c, 0, 84, 100
2, 196220, Note_off_c, 0, 79, 100
2, 196220, Note_off_c, 0, 76, 100
2, 196220, Note_off_c, 0, 72, 100
2, 196224, Note_on_c, 0, 84, 110
2, 196224, Note_on_c, 0, 79, 110
2, 196224, Note_on_c, 0, 76, 110
2, 196224, Note_on_c, 0, 72, 110
2, 196412, Note_off_c, 0, 84, 100
2, 196412, Note_off_c, 0, 79, 100
2, 196412, Note_off_c, 0, 76, 100
2, 196412, Note_off_c, 0, 72, 100
2, 196416, Note_on_c, 0, 84, 110
2, 196416, Note_on_c, 0, 79, 110
2, 196416, Note_on_c, 0, 76, 110
2, 196416, Note_on_c, 0, 72, 110
2, 196604, Note_off_c, 0, 84, 100
2, 196604, Note_off_c, 0, 79, 100
2, 196604, Note_off_c, 0, 76, 100
2, 196604, Note_off_c, 0, 72, 100
2, 196608, Note_on_c, 0, 84, 110
2, 196608, Note_on_c, 0, 80, 110
2, 196608, Note_on_c, 0, 77, 110
2, 196608, Note_on_c, 0, 72, 110
2, 196988, Note_off_c, 0, 84, 100
2, 196988, Note_off_c, 0, 80, 100
2, 196988, Note_off_c, 0, 77, 100
2, 196988, Note_off_c, 0, 72, 100
2, 197184, Note_on_c, 0, 72, 110
2, 197184, Note_on_c, 0, 68, 110
2, 197184, Note_on_c, 0, 65, 110
2, 197184, Note_on_c, 0, 60, 110
2, 197372, Note_off_c, 0, 72, 100
2, 197372, Note_off_c, 0, 68, 100
2, 197372, Note_off_c, 0, 65, 100
2, 197372, Note_off_c, 0, 60, 100
2, 197376, Note_on_c, 0, 72, 110
2, 197376, Note_on_c, 0, 70, 110
2, 197376, Note_on_c, 0, 64, 110
2, 197376, Note_on_c, 0, 60, 110
2, 197564, Note_off_c, 0, 72, 100
2, 197564, Note_off_c, 0, 70, 100
2, 197564, Note_off_c, 0, 64, 100
2, 197564, Note_off_c, 0, 60, 100
2, 197568, Note_on_c, 0, 72, 110
2, 197568, Note_on_c, 0, 70, 110
2, 197568, Note_on_c, 0, 64, 110
2, 197568, Note_on_c, 0, 60, 110
2, 197756, Note_off_c, 0, 72, 100
2, 197756, Note_off_c, 0, 70, 100
2, 197756, Note_off_c, 0, 64, 100
2, 197756, Note_off_c, 0, 60, 100
2, 197760, Note_on_c, 0, 72, 110
2, 197760, Note_on_c, 0, 70, 110
2, 197760, Note_on_c, 0, 64, 110
2, 197760, Note_on_c, 0, 60, 110
2, 197948, Note_off_c, 0, 72, 100
2, 197948, Note_off_c, 0, 70, 100
2, 197948, Note_off_c, 0, 64, 100
2, 197948, Note_off_c, 0, 60, 100
2, 197952, Note_on_c, 0, 72, 110
2, 197952, Note_on_c, 0, 70, 110
2, 197952, Note_on_c, 0, 64, 110
2, 197952, Note_on_c, 0, 60, 110
2, 198140, Note_off_c, 0, 72, 100
2, 198140, Note_off_c, 0, 70, 100
2, 198140, Note_off_c, 0, 64, 100
2, 198140, Note_off_c, 0, 60, 100
2, 198144, Note_on_c, 0, 72, 120
2, 198144, Note_on_c, 0, 69, 120
2, 198144, Note_on_c, 0, 63, 120
2, 198144, Note_on_c, 0, 60, 120
2, 198240, Note_on_c, 0, 57, 120
2, 198332, Note_off_c, 0, 60, 100
2, 198336, Note_on_c, 0, 60, 120
2, 198428, Note_off_c, 0, 63, 100
2, 198432, Note_on_c, 0, 63, 120
2, 198524, Note_off_c, 0, 69, 100
2, 198528, Note_on_c, 0, 66, 120
2, 198620, Note_off_c, 0, 72, 100
2, 198624, Note_on_c, 0, 69, 120
2, 198716, Note_off_c, 0, 57, 100
2, 198720, Note_on_c, 0, 72, 120
2, 198812, Note_off_c, 0, 60, 100
2, 198816, Note_on_c, 0, 75, 120
2, 198908, Note_off_c, 0, 63, 100
2, 198912, Note_on_c, 0, 78, 120
2, 199004, Note_off_c, 0, 66, 100
2, 199008, Note_on_c, 0, 81, 120
2, 199100, Note_off_c, 0, 69, 100
2, 199104, Note_on_c, 0, 84, 120
2, 199196, Note_off_c, 0, 72, 100
2, 199200, Note_on_c, 0, 87, 120
2, 199292, Note_off_c, 0, 75, 100
2, 199296, Note_on_c, 0, 90, 120
2, 199388, Note_off_c, 0, 78, 100
2, 199392, Note_on_c, 0, 87, 120
2, 199484, Note_off_c, 0, 81, 100
2, 199488, Note_on_c, 0, 84, 120
2, 199580, Note_off_c, 0, 84, 100
2, 199584, Note_on_c, 0, 81, 120
2, 199676, Note_off_c, 0, 87, 100
2, 199680, Note_on_c, 0, 78, 120
2, 199772, Note_off_c, 0, 90, 100
2, 199776, Note_on_c, 0, 75, 120
2, 199868, Note_off_c, 0, 87, 100
2, 199872, Note_on_c, 0, 72, 120
2, 199964, Note_off_c, 0, 84, 100
2, 199968, Note_on_c, 0, 69, 120
2, 200060, Note_off_c, 0, 81, 100
2, 200064, Note_on_c, 0, 66, 120
2, 200156, Note_off_c, 0, 78, 100
2, 200160, Note_on_c, 0, 63, 120
2, 200252, Note_off_c, 0, 75, 100
2, 200256, Note_on_c, 0, 60, 120
2, 200348, Note_off_c, 0, 72, 100
2, 200352, Note_on_c, 0, 57, 120
2, 200444, Note_off_c, 0, 69, 100
2, 200448, Note_on_c, 0, 54, 120
2, 200540, Note_off_c, 0, 66, 100
2, 200544, Note_on_c, 0, 51, 120
2, 200636, Note_off_c, 0, 63, 100
2, 200640, Note_on_c, 0, 48, 120
2, 200732, Note_off_c, 0, 60, 100
2, 200736, Note_on_c, 0, 45, 120
2, 200828, Note_off_c, 0, 57, 100
2, 200832, Note_on_c, 0, 42, 120
2, 200924, Note_off_c, 0, 54, 100
2, 201020, Note_off_c, 0, 51, 100
2, 201116, Note_off_c, 0, 48, 100
2, 201212, Note_off_c, 0, 45, 100
2, 201308, Note_off_c, 0, 42, 100
2, 202848, Note_on_c, 0, 57, 80
2, 202940, Note_off_c, 0, 57, 100
2, 202944, Note_on_c, 0, 60, 80
2, 203036, Note_off_c, 0, 60, 100
2, 203040, Note_on_c, 0, 63, 80
2, 203132, Note_off_c, 0, 63, 100
2, 203136, Note_on_c, 0, 66, 80
2, 203228, Note_off_c, 0, 66, 100
2, 203232, Note_on_c, 0, 68, 80
2, 203324, Note_off_c, 0, 68, 100
2, 203328, Note_on_c, 0, 66, 80
2, 203420, Note_off_c, 0, 66, 100
2, 203424, Note_on_c, 0, 65, 80
2, 203516, Note_off_c, 0, 65, 100
2, 203520, Note_on_c, 0, 63, 80
2, 203612, Note_off_c, 0, 63, 100
2, 203616, Note_on_c, 0, 65, 80
2, 203708, Note_off_c, 0, 65, 100
2, 203712, Note_on_c, 0, 63, 80
2, 203804, Note_off_c, 0, 63, 100
2, 203808, Note_on_c, 0, 61, 80
2, 203900, Note_off_c, 0, 61, 100
2, 203904, Note_on_c, 0, 60, 80
2, 203996, Note_off_c, 0, 60, 100
2, 204000, Note_on_c, 0, 61, 80
2, 204092, Note_off_c, 0, 61, 100
2, 204096, Note_on_c, 0, 63, 80
2, 204188, Note_off_c, 0, 63, 100
2, 204192, Note_on_c, 0, 60, 80
2, 204284, Note_off_c, 0, 60, 100
2, 204384, Note_on_c, 0, 57, 80
2, 204476, Note_off_c, 0, 57, 100
2, 204480, Note_on_c, 0, 60, 80
2, 204572, Note_off_c, 0, 60, 100
2, 204576, Note_on_c, 0, 63, 80
2, 204668, Note_off_c, 0, 63, 100
2, 204672, Note_on_c, 0, 66, 80
2, 204764, Note_off_c, 0, 66, 100
2, 204768, Note_on_c, 0, 68, 80
2, 204860, Note_off_c, 0, 68, 100
2, 204864, Note_on_c, 0, 66, 80
2, 204956, Note_off_c, 0, 66, 100
2, 204960, Note_on_c, 0, 65, 80
2, 205052, Note_off_c, 0, 65, 100
2, 205056, Note_on_c, 0, 63, 80
2, 205148, Note_off_c, 0, 63, 100
2, 205152, Note_on_c, 0, 65, 80
2, 205244, Note_off_c, 0, 65, 100
2, 205248, Note_on_c, 0, 63, 80
2, 205340, Note_off_c, 0, 63, 100
2, 205344, Note_on_c, 0, 61, 80
2, 205436, Note_off_c, 0, 61, 100
2, 205440, Note_on_c, 0, 60, 80
2, 205532, Note_off_c, 0, 60, 100
2, 205536, Note_on_c, 0, 61, 80
2, 205628, Note_off_c, 0, 61, 100
2, 205632, Note_on_c, 0, 63, 80
2, 205724, Note_off_c, 0, 63, 100
2, 205728, Note_on_c, 0, 60, 80
2, 205820, Note_off_c, 0, 60, 100
2, 205920, Note_on_c, 0, 57, 80
2, 206012, Note_off_c, 0, 57, 100
2, 206016, Note_on_c, 0, 60, 80
2, 206108, Note_off_c, 0, 60, 100
2, 206112, Note_on_c, 0, 63, 80
2, 206204, Note_off_c, 0, 63, 100
2, 206208, Note_on_c, 0, 66, 80
2, 206300, Note_off_c, 0, 66, 100
2, 206304, Note_on_c, 0, 68, 80
2, 206396, Note_off_c, 0, 68, 100
2, 206400, Note_on_c, 0, 66, 80
2, 206492, Note_off_c, 0, 66, 100
2, 206496, Note_on_c, 0, 65, 80
2, 206588, Note_off_c, 0, 65, 100
2, 206592, Note_on_c, 0, 63, 80
2, 206780, Note_off_c, 0, 63, 100
2, 206784, Note_on_c, 0, 63, 80
2, 206876, Note_off_c, 0, 63, 100
2, 206880, Note_on_c, 0, 65, 80
2, 206972, Note_off_c, 0, 65, 100
2, 206976, Note_on_c, 0, 66, 80
2, 207068, Note_off_c, 0, 66, 100
2, 207072, Note_on_c, 0, 68, 80
2, 207164, Note_off_c, 0, 68, 100
2, 207168, Note_on_c, 0, 66, 80
2, 207260, Note_off_c, 0, 66, 100
2, 207264, Note_on_c, 0, 65, 80
2, 207356, Note_off_c, 0, 65, 100
2, 207360, Note_on_c, 0, 63, 80
2, 207548, Note_off_c, 0, 63, 100
2, 207552, Note_on_c, 0, 63, 80
2, 207644, Note_off_c, 0, 63, 100
2, 207648, Note_on_c, 0, 65, 80
2, 207740, Note_off_c, 0, 65, 100
2, 207744, Note_on_c, 0, 66, 80
2, 207836, Note_off_c, 0, 66, 100
2, 207840, Note_on_c, 0, 68, 80
2, 207932, Note_off_c, 0, 68, 100
2, 207936, Note_on_c, 0, 66, 80
2, 208028, Note_off_c, 0, 66, 100
2, 208032, Note_on_c, 0, 65, 80
2, 208124, Note_off_c, 0, 65, 100
2, 208128, Note_on_c, 0, 63, 80
2, 208316, Note_off_c, 0, 63, 100
2, 208320, Note_on_c, 0, 78, 80
2, 208320, Note_on_c, 0, 66, 80
2, 208508, Note_off_c, 0, 78, 100
2, 208508, Note_off_c, 0, 66, 100
2, 208512, Note_on_c, 0, 77, 80
2, 208512, Note_on_c, 0, 65, 80
2, 208700, Note_off_c, 0, 77, 100
2, 208700, Note_off_c, 0, 65, 100
2, 208704, Note_on_c, 0, 81, 80
2, 208704, Note_on_c, 0, 69, 80
2, 208892, Note_off_c, 0, 81, 100
2, 208892, Note_off_c, 0, 69, 100
2, 208896, Note_on_c, 0, 82, 80
2, 208896, Note_on_c, 0, 70, 80
2, 208988, Note_off_c, 0, 82, 100
2, 208988, Note_off_c, 0, 70, 100
2, 208992, Note_on_c, 0, 65, 80
2, 209084, Note_off_c, 0, 65, 100
2, 209088, Note_on_c, 0, 70, 80
2, 209180, Note_off_c, 0, 70, 100
2, 209184, Note_on_c, 0, 73, 80
2, 209276, Note_off_c, 0, 73, 100
2, 209280, Note_on_c, 0, 77, 80
2, 209372, Note_off_c, 0, 77, 100
2, 209376, Note_on_c, 0, 78, 80
2, 209468, Note_off_c, 0, 78, 100
2, 209472, Note_on_c, 0, 77, 80
2, 209564, Note_off_c, 0, 77, 100
2, 209568, Note_on_c, 0, 75, 80
2, 209660, Note_off_c, 0, 75, 100
2, 209664, Note_on_c, 0, 73, 80
2, 209756, Note_off_c, 0, 73, 100
2, 209760, Note_on_c, 0, 75, 80
2, 209852, Note_off_c, 0, 75, 100
2, 209856, Note_on_c, 0, 73, 80
2, 209948, Note_off_c, 0, 73, 100
2, 209952, Note_on_c, 0, 72, 80
2, 210044, Note_off_c, 0, 72, 100
2, 210048, Note_on_c, 0, 70, 80
2, 210140, Note_off_c, 0, 70, 100
2, 210144, Note_on_c, 0, 72, 80
2, 210236, Note_off_c, 0, 72, 100
2, 210240, Note_on_c, 0, 73, 80
2, 210332, Note_off_c, 0, 73, 100
2, 210336, Note_on_c, 0, 70, 80
2, 210428, Note_off_c, 0, 70, 100
2, 210528, Note_on_c, 0, 65, 80
2, 210620, Note_off_c, 0, 65, 100
2, 210624, Note_on_c, 0, 70, 80
2, 210716, Note_off_c, 0, 70, 100
2, 210720, Note_on_c, 0, 73, 80
2, 210812, Note_off_c, 0, 73, 100
2, 210816, Note_on_c, 0, 77, 80
2, 210908, Note_off_c, 0, 77, 100
2, 210912, Note_on_c, 0, 78, 80
2, 211004, Note_off_c, 0, 78, 100
2, 211008, Note_on_c, 0, 77, 80
2, 211100, Note_off_c, 0, 77, 100
2, 211104, Note_on_c, 0, 75, 80
2, 211196, Note_off_c, 0, 75, 100
2, 211200, Note_on_c, 0, 73, 80
2, 211292, Note_off_c, 0, 73, 100
2, 211296, Note_on_c, 0, 75, 80
2, 211388, Note_off_c, 0, 75, 100
2, 211392, Note_on_c, 0, 73, 80
2, 211484, Note_off_c, 0, 73, 100
2, 211488, Note_on_c, 0, 72, 80
2, 211580, Note_off_c, 0, 72, 100
2, 211584, Note_on_c, 0, 70, 80
2, 211676, Note_off_c, 0, 70, 100
2, 211680, Note_on_c, 0, 72, 80
2, 211772, Note_off_c, 0, 72, 100
2, 211776, Note_on_c, 0, 73, 80
2, 211868, Note_off_c, 0, 73, 100
2, 211872, Note_on_c, 0, 70, 80
2, 211964, Note_off_c, 0, 70, 100
2, 212064, Note_on_c, 0, 66, 80
2, 212156, Note_off_c, 0, 66, 100
2, 212160, Note_on_c, 0, 71, 80
2, 212252, Note_off_c, 0, 71, 100
2, 212256, Note_on_c, 0, 75, 80
2, 212348, Note_off_c, 0, 75, 100
2, 212352, Note_on_c, 0, 78, 80
2, 212444, Note_off_c, 0, 78, 100
2, 212448, Note_on_c, 0, 80, 80
2, 212540, Note_off_c, 0, 80, 100
2, 212544, Note_on_c, 0, 78, 80
2, 212636, Note_off_c, 0, 78, 100
2, 212640, Note_on_c, 0, 77, 80
2, 212732, Note_off_c, 0, 77, 100
2, 212736, Note_on_c, 0, 75, 80
2, 212828, Note_off_c, 0, 75, 100
2, 212832, Note_on_c, 0, 77, 80
2, 212924, Note_off_c, 0, 77, 100
2, 212928, Note_on_c, 0, 75, 80
2, 213020, Note_off_c, 0, 75, 100
2, 213024, Note_on_c, 0, 73, 80
2, 213116, Note_off_c, 0, 73, 100
2, 213120, Note_on_c, 0, 71, 80
2, 213212, Note_off_c, 0, 71, 100
2, 213216, Note_on_c, 0, 73, 80
2, 213308, Note_off_c, 0, 73, 100
2, 213312, Note_on_c, 0, 75, 80
2, 213404, Note_off_c, 0, 75, 100
2, 213408, Note_on_c, 0, 71, 80
2, 213500, Note_off_c, 0, 71, 100
2, 213504, Note_on_c, 0, 70, 80
2, 213596, Note_off_c, 0, 70, 100
2, 213600, Note_on_c, 0, 72, 80
2, 213692, Note_off_c, 0, 72, 100
2, 213696, Note_on_c, 0, 70, 80
2, 213788, Note_off_c, 0, 70, 100
2, 213792, Note_on_c, 0, 69, 80
2, 213884, Note_off_c, 0, 69, 100
2, 213888, Note_on_c, 0, 70, 80
2, 213980, Note_off_c, 0, 70, 100
2, 213984, Note_on_c, 0, 72, 80
2, 214076, Note_off_c, 0, 72, 100
2, 214080, Note_on_c, 0, 73, 80
2, 214172, Note_off_c, 0, 73, 100
2, 214176, Note_on_c, 0, 70, 80
2, 214268, Note_off_c, 0, 70, 100
2, 214272, Note_on_c, 0, 69, 80
2, 214364, Note_off_c, 0, 69, 100
2, 214368, Note_on_c, 0, 70, 80
2, 214460, Note_off_c, 0, 70, 100
2, 214464, Note_on_c, 0, 69, 80
2, 214556, Note_off_c, 0, 69, 100
2, 214560, Note_on_c, 0, 67, 80
2, 214652, Note_off_c, 0, 67, 100
2, 214656, Note_on_c, 0, 69, 80
2, 214748, Note_off_c, 0, 69, 100
2, 214752, Note_on_c, 0, 70, 80
2, 214844, Note_off_c, 0, 70, 100
2, 214848, Note_on_c, 0, 72, 80
2, 214940, Note_off_c, 0, 72, 100
2, 214944, Note_on_c, 0, 69, 80
2, 215036, Note_off_c, 0, 69, 100
2, 215040, Note_on_c, 0, 70, 80
2, 215228, Note_off_c, 0, 70, 100
2, 215232, Note_on_c, 0, 70, 81
2, 215324, Note_off_c, 0, 70, 100
2, 215328, Note_on_c, 0, 73, 82
2, 215420, Note_off_c, 0, 73, 100
2, 215424, Note_on_c, 0, 77, 83
2, 215516, Note_off_c, 0, 77, 100
2, 215520, Note_on_c, 0, 78, 84
2, 215612, Note_off_c, 0, 78, 100
2, 215616, Note_on_c, 0, 77, 85
2, 215708, Note_off_c, 0, 77, 100
2, 215712, Note_on_c, 0, 75, 86
2, 215804, Note_off_c, 0, 75, 100
2, 215808, Note_on_c, 0, 73, 87
2, 215900, Note_off_c, 0, 73, 100
2, 215904, Note_on_c, 0, 75, 88
2, 215996, Note_off_c, 0, 75, 100
2, 216000, Note_on_c, 0, 73, 89
2, 216092, Note_off_c, 0, 73, 100
2, 216096, Note_on_c, 0, 72, 90
2, 216188, Note_off_c, 0, 72, 100
2, 216192, Note_on_c, 0, 70, 91
2, 216192, Note_on_c, 0, 82, 91
2, 216284, Note_off_c, 0, 70, 100
2, 216288, Note_on_c, 0, 72, 92
2, 216380, Note_off_c, 0, 72, 100
2, 216384, Note_on_c, 0, 73, 93
2, 216476, Note_off_c, 0, 73, 100
2, 216480, Note_on_c, 0, 70, 94
2, 216572, Note_off_c, 0, 82, 100
2, 216572, Note_off_c, 0, 70, 100
2, 216576, Note_on_c, 0, 81, 95
2, 216768, Note_on_c, 0, 70, 97
2, 216860, Note_off_c, 0, 70, 100
2, 216864, Note_on_c, 0, 73, 98
2, 216956, Note_off_c, 0, 81, 100
2, 216956, Note_off_c, 0, 73, 100
2, 216960, Note_on_c, 0, 82, 99
2, 216960, Note_on_c, 0, 77, 99
2, 217052, Note_off_c, 0, 77, 100
2, 217056, Note_on_c, 0, 78, 100
2, 217148, Note_off_c, 0, 78, 100
2, 217152, Note_on_c, 0, 77, 101
2, 217244, Note_off_c, 0, 77, 100
2, 217248, Note_on_c, 0, 75, 102
2, 217340, Note_off_c, 0, 82, 100
2, 217340, Note_off_c, 0, 75, 100
2, 217344, Note_on_c, 0, 73, 103
2, 217436, Note_off_c, 0, 73, 100
2, 217440, Note_on_c, 0, 75, 104
2, 217532, Note_off_c, 0, 75, 100
2, 217536, Note_on_c, 0, 73, 105
2, 217628, Note_off_c, 0, 73, 100
2, 217632, Note_on_c, 0, 72, 106
2, 217724, Note_off_c, 0, 72, 100
2, 217728, Note_on_c, 0, 70, 107
2, 217728, Note_on_c, 0, 82, 107
2, 217820, Note_off_c, 0, 70, 100
2, 217824, Note_on_c, 0, 72, 108
2, 217916, Note_off_c, 0, 72, 100
2, 217920, Note_on_c, 0, 73, 108
2, 218012, Note_off_c, 0, 73, 100
2, 218016, Note_on_c, 0, 70, 109
2, 218108, Note_off_c, 0, 82, 100
2, 218108, Note_off_c, 0, 70, 100
2, 218112, Note_on_c, 0, 83, 110
2, 218112, Note_on_c, 0, 71, 110
2, 218208, Note_on_c, 0, 78, 110
2, 218288, Note_off_c, 0, 83, 100
2, 218288, Note_off_c, 0, 71, 100
2, 218304, Note_on_c, 0, 83, 110
2, 218380, Note_off_c, 0, 78, 100
2, 218400, Note_on_c, 0, 87, 110
2, 218484, Note_off_c, 0, 83, 100
2, 218496, Note_on_c, 0, 90, 110
2, 218580, Note_off_c, 0, 87, 100
2, 218592, Note_on_c, 0, 92, 110
2, 218656, Note_off_c, 0, 90, 100
2, 218688, Note_on_c, 0, 90, 110
2, 218760, Note_off_c, 0, 92, 100
2, 218784, Note_on_c, 0, 89, 110
2, 218856, Note_off_c, 0, 90, 100
2, 218880, Note_on_c, 0, 87, 110
2, 218972, Note_off_c, 0, 89, 100
2, 218976, Note_on_c, 0, 89, 110
2, 219056, Note_off_c, 0, 87, 100
2, 219072, Note_on_c, 0, 87, 110
2, 219156, Note_off_c, 0, 89, 100
2, 219168, Note_on_c, 0, 85, 110
2, 219244, Note_off_c, 0, 87, 100
2, 219264, Note_on_c, 0, 83, 110
2, 219328, Note_off_c, 0, 85, 100
2, 219360, Note_on_c, 0, 85, 110
2, 219440, Note_off_c, 0, 83, 100
2, 219456, Note_on_c, 0, 83, 110
2, 219536, Note_off_c, 0, 85, 100
2, 219552, Note_on_c, 0, 82, 110
2, 219636, Note_off_c, 0, 83, 100
2, 219648, Note_on_c, 0, 81, 110
2, 219712, Note_off_c, 0, 82, 100
2, 219744, Note_on_c, 0, 84, 110
2, 219828, Note_off_c, 0, 81, 100
2, 219840, Note_on_c, 0, 87, 110
2, 219920, Note_off_c, 0, 84, 100
2, 219936, Note_on_c, 0, 85, 110
2, 220028, Note_off_c, 0, 87, 100
2, 220032, Note_on_c, 0, 84, 110
2, 220108, Note_off_c, 0, 85, 100
2, 220128, Note_on_c, 0, 85, 110
2, 220208, Note_off_c, 0, 84, 100
2, 220224, Note_on_c, 0, 84, 110
2, 220300, Note_off_c, 0, 85, 100
2, 220320, Note_on_c, 0, 82, 110
2, 220392, Note_off_c, 0, 84, 100
2, 220416, Note_on_c, 0, 81, 110
2, 220496, Note_off_c, 0, 82, 100
2, 220512, Note_on_c, 0, 82, 110
2, 220592, Note_off_c, 0, 81, 100
2, 220608, Note_on_c, 0, 81, 110
2, 220676, Note_off_c, 0, 82, 100
2, 220704, Note_on_c, 0, 78, 110
2, 220780, Note_off_c, 0, 81, 100
2, 220800, Note_on_c, 0, 77, 110
2, 220880, Note_off_c, 0, 78, 100
2, 220896, Note_on_c, 0, 75, 110
2, 220968, Note_off_c, 0, 77, 100
2, 220992, Note_on_c, 0, 73, 110
2, 221060, Note_off_c, 0, 75, 100
2, 221088, Note_on_c, 0, 72, 110
2, 221156, Note_off_c, 0, 73, 100
2, 221180, Note_off_c, 0, 72, 100
2, 221184, Note_on_c, 0, 70, 110
2, 221372, Note_off_c, 0, 70, 100
2, 221376, Note_on_c, 0, 77, 101
2, 221756, Note_off_c, 0, 77, 100
2, 221760, Note_on_c, 0, 77, 80
2, 221948, Note_off_c, 0, 77, 100
2, 221952, Note_on_c, 0, 77, 80
2, 222140, Note_off_c, 0, 77, 100
2, 222144, Note_on_c, 0, 78, 104
2, 222524, Note_off_c, 0, 78, 100
2, 222528, Note_on_c, 0, 78, 80
2, 222716, Note_off_c, 0, 78, 100
2, 222720, Note_on_c, 0, 78, 80
2, 222908, Note_off_c, 0, 78, 100
2, 222912, Note_on_c, 0, 77, 101
2, 223292, Note_off_c, 0, 77, 100
2, 223296, Note_on_c, 0, 77, 80
2, 223484, Note_off_c, 0, 77, 100
2, 223488, Note_on_c, 0, 77, 80
2, 223676, Note_off_c, 0, 77, 100
2, 223680, Note_on_c, 0, 72, 80
2, 223868, Note_off_c, 0, 72, 100
2, 223872, Note_on_c, 0, 73, 80
2, 224060, Note_off_c, 0, 73, 100
2, 224064, Note_on_c, 0, 75, 80
2, 224252, Note_off_c, 0, 75, 100
2, 224256, Note_on_c, 0, 73, 80
2, 224444, Note_off_c, 0, 73, 100
2, 224448, Note_on_c, 0, 89, 120
2, 224448, Note_on_c, 0, 77, 120
2, 224828, Note_off_c, 0, 89, 100
2, 224828, Note_off_c, 0, 77, 100
2, 224832, Note_on_c, 0, 89, 110
2, 224832, Note_on_c, 0, 77, 110
2, 225020, Note_off_c, 0, 89, 100
2, 225020, Note_off_c, 0, 77, 100
2, 225024, Note_on_c, 0, 89, 110
2, 225024, Note_on_c, 0, 77, 110
2, 225212, Note_off_c, 0, 89, 100
2, 225212, Note_off_c, 0, 77, 100
2, 225216, Note_on_c, 0, 90, 120
2, 225216, Note_on_c, 0, 78, 120
2, 225596, Note_off_c, 0, 90, 100
2, 225596, Note_off_c, 0, 78, 100
2, 225600, Note_on_c, 0, 90, 110
2, 225600, Note_on_c, 0, 78, 110
2, 225788, Note_off_c, 0, 90, 100
2, 225788, Note_off_c, 0, 78, 100
2, 225792, Note_on_c, 0, 90, 110
2, 225792, Note_on_c, 0, 78, 110
2, 225980, Note_off_c, 0, 90, 100
2, 225980, Note_off_c, 0, 78, 100
2, 225984, Note_on_c, 0, 89, 120
2, 225984, Note_on_c, 0, 77, 120
2, 226364, Note_off_c, 0, 89, 100
2, 226364, Note_off_c, 0, 77, 100
2, 226368, Note_on_c, 0, 89, 110
2, 226368, Note_on_c, 0, 77, 110
2, 226556, Note_off_c, 0, 89, 100
2, 226556, Note_off_c, 0, 77, 100
2, 226560, Note_on_c, 0, 89, 110
2, 226560, Note_on_c, 0, 77, 110
2, 226748, Note_off_c, 0, 89, 100
2, 226748, Note_off_c, 0, 77, 100
2, 226752, Note_on_c, 0, 84, 110
2, 226752, Note_on_c, 0, 72, 110
2, 226940, Note_off_c, 0, 84, 100
2, 226940, Note_off_c, 0, 72, 100
2, 226944, Note_on_c, 0, 85, 110
2, 226944, Note_on_c, 0, 73, 110
2, 227132, Note_off_c, 0, 85, 100
2, 227132, Note_off_c, 0, 73, 100
2, 227136, Note_on_c, 0, 87, 110
2, 227136, Note_on_c, 0, 75, 110
2, 227324, Note_off_c, 0, 87, 100
2, 227324, Note_off_c, 0, 75, 100
2, 227328, Note_on_c, 0, 85, 110
2, 227328, Note_on_c, 0, 73, 110
2, 227516, Note_off_c, 0, 85, 100
2, 227516, Note_off_c, 0, 73, 100
2, 227520, Note_on_c, 0, 72, 100
2, 227900, Note_off_c, 0, 72, 100
2, 227904, Note_on_c, 0, 72, 80
2, 228092, Note_off_c, 0, 72, 100
2, 228096, Note_on_c, 0, 72, 80
2, 228284, Note_off_c, 0, 72, 100
2, 228288, Note_on_c, 0, 71, 100
2, 228668, Note_off_c, 0, 71, 100
2, 228672, Note_on_c, 0, 71, 80
2, 228860, Note_off_c, 0, 71, 100
2, 228864, Note_on_c, 0, 71, 80
2, 229052, Note_off_c, 0, 71, 100
2, 229056, Note_on_c, 0, 72, 100
2, 229436, Note_off_c, 0, 72, 100
2, 229440, Note_on_c, 0, 72, 80
2, 229628, Note_off_c, 0, 72, 100
2, 229632, Note_on_c, 0, 72, 80
2, 229820, Note_off_c, 0, 72, 100
2, 229824, Note_on_c, 0, 67, 80
2, 230012, Note_off_c, 0, 67, 100
2, 230016, Note_on_c, 0, 68, 80
2, 230204, Note_off_c, 0, 68, 100
2, 230208, Note_on_c, 0, 70, 80
2, 230396, Note_off_c, 0, 70, 100
2, 230400, Note_on_c, 0, 68, 80
2, 230588, Note_off_c, 0, 68, 100
2, 230592, Note_on_c, 0, 84, 120
2, 230592, Note_on_c, 0, 72, 120
2, 230972, Note_off_c, 0, 84, 100
2, 230972, Note_off_c, 0, 72, 100
2, 230976, Note_on_c, 0, 84, 110
2, 230976, Note_on_c, 0, 72, 110
2, 231164, Note_off_c, 0, 84, 100
2, 231164, Note_off_c, 0, 72, 100
2, 231168, Note_on_c, 0, 84, 110
2, 231168, Note_on_c, 0, 72, 110
2, 231356, Note_off_c, 0, 84, 100
2, 231356, Note_off_c, 0, 72, 100
2, 231360, Note_on_c, 0, 83, 120
2, 231360, Note_on_c, 0, 71, 120
2, 231740, Note_off_c, 0, 83, 100
2, 231740, Note_off_c, 0, 71, 100
2, 231744, Note_on_c, 0, 83, 110
2, 231744, Note_on_c, 0, 71, 110
2, 231932, Note_off_c, 0, 83, 100
2, 231932, Note_off_c, 0, 71, 100
2, 231936, Note_on_c, 0, 83, 110
2, 231936, Note_on_c, 0, 71, 110
2, 232124, Note_off_c, 0, 83, 100
2, 232124, Note_off_c, 0, 71, 100
2, 232128, Note_on_c, 0, 84, 120
2, 232128, Note_on_c, 0, 72, 120
2, 232508, Note_off_c, 0, 84, 100
2, 232508, Note_off_c, 0, 72, 100
2, 232512, Note_on_c, 0, 84, 110
2, 232512, Note_on_c, 0, 72, 110
2, 232700, Note_off_c, 0, 84, 100
2, 232700, Note_off_c, 0, 72, 100
2, 232704, Note_on_c, 0, 84, 110
2, 232704, Note_on_c, 0, 72, 110
2, 232892, Note_off_c, 0, 84, 100
2, 232892, Note_off_c, 0, 72, 100
2, 232896, Note_on_c, 0, 79, 110
2, 232896, Note_on_c, 0, 67, 110
2, 233084, Note_off_c, 0, 79, 100
2, 233084, Note_off_c, 0, 67, 100
2, 233088, Note_on_c, 0, 80, 110
2, 233088, Note_on_c, 0, 68, 110
2, 233276, Note_off_c, 0, 80, 100
2, 233276, Note_off_c, 0, 68, 100
2, 233280, Note_on_c, 0, 82, 110
2, 233280, Note_on_c, 0, 70, 110
2, 233468, Note_off_c, 0, 82, 100
2, 233468, Note_off_c, 0, 70, 100
2, 233472, Note_on_c, 0, 80, 110
2, 233472, Note_on_c, 0, 68, 110
2, 233568, Note_on_c, 0, 60, 110
2, 233660, Note_off_c, 0, 80, 100
2, 233660, Note_off_c, 0, 68, 100
2, 233660, Note_off_c, 0, 60, 100
2, 233664, Note_on_c, 0, 65, 110
2, 233756, Note_off_c, 0, 65, 100
2, 233760, Note_on_c, 0, 68, 110
2, 233852, Note_off_c, 0, 68, 100
2, 233856, Note_on_c, 0, 72, 110
2, 233948, Note_off_c, 0, 72, 100
2, 233952, Note_on_c, 0, 73, 110
2, 234044, Note_off_c, 0, 73, 100
2, 234048, Note_on_c, 0, 72, 110
2, 234140, Note_off_c, 0, 72, 100
2, 234144, Note_on_c, 0, 70, 110
2, 234236, Note_off_c, 0, 70, 100
2, 234240, Note_on_c, 0, 68, 110
2, 234332, Note_off_c, 0, 68, 100
2, 234336, Note_on_c, 0, 70, 110
2, 234428, Note_off_c, 0, 70, 100
2, 234432, Note_on_c, 0, 68, 110
2, 234524, Note_off_c, 0, 68, 100
2, 234528, Note_on_c, 0, 67, 110
2, 234620, Note_off_c, 0, 67, 100
2, 234624, Note_on_c, 0, 65, 110
2, 234716, Note_off_c, 0, 65, 100
2, 234720, Note_on_c, 0, 67, 110
2, 234812, Note_off_c, 0, 67, 100
2, 234816, Note_on_c, 0, 68, 110
2, 234908, Note_off_c, 0, 68, 100
2, 234912, Note_on_c, 0, 65, 110
2, 235004, Note_off_c, 0, 65, 100
2, 235008, Note_on_c, 0, 66, 110
2, 235100, Note_off_c, 0, 66, 100
2, 235104, Note_on_c, 0, 61, 110
2, 235196, Note_off_c, 0, 61, 100
2, 235200, Note_on_c, 0, 66, 110
2, 235292, Note_off_c, 0, 66, 100
2, 235296, Note_on_c, 0, 70, 110
2, 235388, Note_off_c, 0, 70, 100
2, 235392, Note_on_c, 0, 73, 110
2, 235484, Note_off_c, 0, 73, 100
2, 235488, Note_on_c, 0, 75, 110
2, 235580, Note_off_c, 0, 75, 100
2, 235584, Note_on_c, 0, 73, 110
2, 235676, Note_off_c, 0, 73, 100
2, 235680, Note_on_c, 0, 72, 110
2, 235772, Note_off_c, 0, 72, 100
2, 235776, Note_on_c, 0, 70, 110
2, 235868, Note_off_c, 0, 70, 100
2, 235872, Note_on_c, 0, 72, 110
2, 235964, Note_off_c, 0, 72, 100
2, 235968, Note_on_c, 0, 70, 110
2, 236060, Note_off_c, 0, 70, 100
2, 236064, Note_on_c, 0, 68, 110
2, 236156, Note_off_c, 0, 68, 100
2, 236160, Note_on_c, 0, 66, 110
2, 236252, Note_off_c, 0, 66, 100
2, 236256, Note_on_c, 0, 68, 110
2, 236348, Note_off_c, 0, 68, 100
2, 236352, Note_on_c, 0, 70, 110
2, 236444, Note_off_c, 0, 70, 100
2, 236448, Note_on_c, 0, 66, 110
2, 236540, Note_off_c, 0, 66, 100
2, 236544, Note_on_c, 0, 69, 110
2, 236636, Note_off_c, 0, 69, 100
2, 236640, Note_on_c, 0, 63, 110
2, 236732, Note_off_c, 0, 63, 100
2, 236736, Note_on_c, 0, 69, 110
2, 236828, Note_off_c, 0, 69, 100
2, 236832, Note_on_c, 0, 72, 110
2, 236924, Note_off_c, 0, 72, 100
2, 236928, Note_on_c, 0, 75, 110
2, 237020, Note_off_c, 0, 75, 100
2, 237024, Note_on_c, 0, 77, 110
2, 237116, Note_off_c, 0, 77, 100
2, 237120, Note_on_c, 0, 75, 110
2, 237212, Note_off_c, 0, 75, 100
2, 237216, Note_on_c, 0, 73, 110
2, 237308, Note_off_c, 0, 73, 100
2, 237312, Note_on_c, 0, 72, 110
2, 237404, Note_off_c, 0, 72, 100
2, 237408, Note_on_c, 0, 73, 110
2, 237500, Note_off_c, 0, 73, 100
2, 237504, Note_on_c, 0, 72, 110
2, 237596, Note_off_c, 0, 72, 100
2, 237600, Note_on_c, 0, 70, 110
2, 237692, Note_off_c, 0, 70, 100
2, 237696, Note_on_c, 0, 69, 110
2, 237788, Note_off_c, 0, 69, 100
2, 237792, Note_on_c, 0, 70, 110
2, 237884, Note_off_c, 0, 70, 100
2, 237888, Note_on_c, 0, 72, 110
2, 237980, Note_off_c, 0, 72, 100
2, 237984, Note_on_c, 0, 69, 110
2, 238076, Note_off_c, 0, 69, 100
2, 238080, Note_on_c, 0, 70, 120
2, 238172, Note_off_c, 0, 70, 100
2, 238176, Note_on_c, 0, 65, 120
2, 238268, Note_off_c, 0, 65, 100
2, 238272, Note_on_c, 0, 70, 120
2, 238364, Note_off_c, 0, 70, 100
2, 238368, Note_on_c, 0, 73, 120
2, 238460, Note_off_c, 0, 73, 100
2, 238464, Note_on_c, 0, 77, 120
2, 238556, Note_off_c, 0, 77, 100
2, 238560, Note_on_c, 0, 78, 120
2, 238652, Note_off_c, 0, 78, 100
2, 238656, Note_on_c, 0, 77, 120
2, 238748, Note_off_c, 0, 77, 100
2, 238752, Note_on_c, 0, 75, 120
2, 238844, Note_off_c, 0, 75, 100
2, 238848, Note_on_c, 0, 73, 120
2, 238940, Note_off_c, 0, 73, 100
2, 238944, Note_on_c, 0, 72, 120
2, 239036, Note_off_c, 0, 72, 100
2, 239040, Note_on_c, 0, 70, 120
2, 239132, Note_off_c, 0, 70, 100
2, 239136, Note_on_c, 0, 68, 120
2, 239228, Note_off_c, 0, 68, 100
2, 239232, Note_on_c, 0, 66, 120
2, 239324, Note_off_c, 0, 66, 100
2, 239328, Note_on_c, 0, 65, 120
2, 239420, Note_off_c, 0, 65, 100
2, 239424, Note_on_c, 0, 63, 120
2, 239516, Note_off_c, 0, 63, 100
2, 239520, Note_on_c, 0, 61, 120
2, 239612, Note_off_c, 0, 61, 100
2, 239616, Note_on_c, 0, 60, 120
2, 239708, Note_off_c, 0, 60, 100
2, 239712, Note_on_c, 0, 58, 120
2, 239804, Note_off_c, 0, 58, 100
2, 239808, Note_on_c, 0, 56, 120
2, 239900, Note_off_c, 0, 56, 100
2, 239904, Note_on_c, 0, 54, 120
2, 239996, Note_off_c, 0, 54, 100
2, 240000, Note_on_c, 0, 53, 120
2, 240092, Note_off_c, 0, 53, 100
2, 240096, Note_on_c, 0, 51, 120
2, 240188, Note_off_c, 0, 51, 100
2, 240192, Note_on_c, 0, 49, 120
2, 240284, Note_off_c, 0, 49, 100
2, 240288, Note_on_c, 0, 48, 120
2, 240380, Note_off_c, 0, 48, 100
2, 240384, Note_on_c, 0, 46, 120
2, 240476, Note_off_c, 0, 46, 100
2, 240480, Note_on_c, 0, 48, 120
2, 240572, Note_off_c, 0, 48, 100
2, 240576, Note_on_c, 0, 49, 120
2, 240668, Note_off_c, 0, 49, 100
2, 240672, Note_on_c, 0, 48, 120
2, 240764, Note_off_c, 0, 48, 100
2, 240768, Note_on_c, 0, 46, 120
2, 240956, Note_off_c, 0, 46, 100
2, 240960, Note_on_c, 0, 56, 120
2, 240960, Note_on_c, 0, 53, 120
2, 240960, Note_on_c, 0, 50, 120
2, 240960, Note_on_c, 0, 47, 120
2, 241148, Note_off_c, 0, 56, 100
2, 241148, Note_off_c, 0, 53, 100
2, 241148, Note_off_c, 0, 50, 100
2, 241148, Note_off_c, 0, 47, 100
2, 241152, Note_on_c, 0, 55, 110
2, 241152, Note_on_c, 0, 52, 110
2, 241152, Note_on_c, 0, 48, 110
2, 241244, Note_off_c, 0, 55, 100
2, 241244, Note_off_c, 0, 52, 100
2, 241244, Note_off_c, 0, 48, 100
2, 241248, Note_on_c, 0, 60, 110
2, 241248, Note_on_c, 0, 48, 110
2, 241340, Note_off_c, 0, 60, 100
2, 241340, Note_off_c, 0, 48, 100
2, 241440, Note_on_c, 0, 60, 110
2, 241440, Note_on_c, 0, 48, 110
2, 241532, Note_off_c, 0, 60, 100
2, 241532, Note_off_c, 0, 48, 100
2, 241632, Note_on_c, 0, 60, 110
2, 241632, Note_on_c, 0, 48, 110
2, 241724, Note_off_c, 0, 60, 100
2, 241724, Note_off_c, 0, 48, 100
2, 241824, Note_on_c, 0, 60, 111
2, 241824, Note_on_c, 0, 48, 111
2, 241916, Note_off_c, 0, 60, 100
2, 241916, Note_off_c, 0, 48, 100
2, 242016, Note_on_c, 0, 60, 111
2, 242016, Note_on_c, 0, 48, 111
2, 242108, Note_off_c, 0, 60, 100
2, 242108, Note_off_c, 0, 48, 100
2, 242208, Note_on_c, 0, 60, 111
2, 242208, Note_on_c, 0, 48, 111
2, 242300, Note_off_c, 0, 60, 100
2, 242300, Note_off_c, 0, 48, 100
2, 242400, Note_on_c, 0, 60, 112
2, 242400, Note_on_c, 0, 48, 112
2, 242492, Note_off_c, 0, 60, 100
2, 242492, Note_off_c, 0, 48, 100
2, 242592, Note_on_c, 0, 60, 112
2, 242592, Note_on_c, 0, 48, 112
2, 242684, Note_off_c, 0, 60, 100
2, 242684, Note_off_c, 0, 48, 100
2, 242784, Note_on_c, 0, 72, 112
2, 242784, Note_on_c, 0, 60, 112
2, 242876, Note_off_c, 0, 72, 100
2, 242876, Note_off_c, 0, 60, 100
2, 242976, Note_on_c, 0, 72, 113
2, 242976, Note_on_c, 0, 60, 113
2, 243068, Note_off_c, 0, 72, 100
2, 243068, Note_off_c, 0, 60, 100
2, 243168, Note_on_c, 0, 72, 113
2, 243168, Note_on_c, 0, 60, 113
2, 243260, Note_off_c, 0, 72, 100
2, 243260, Note_off_c, 0, 60, 100
2, 243360, Note_on_c, 0, 72, 113
2, 243360, Note_on_c, 0, 60, 113
2, 243452, Note_off_c, 0, 72, 100
2, 243452, Note_off_c, 0, 60, 100
2, 243552, Note_on_c, 0, 72, 113
2, 243552, Note_on_c, 0, 60, 113
2, 243644, Note_off_c, 0, 72, 100
2, 243644, Note_off_c, 0, 60, 100
2, 243744, Note_on_c, 0, 72, 114
2, 243744, Note_on_c, 0, 60, 114
2, 243836, Note_off_c, 0, 72, 100
2, 243836, Note_off_c, 0, 60, 100
2, 243936, Note_on_c, 0, 72, 114
2, 243936, Note_on_c, 0, 60, 114
2, 244028, Note_off_c, 0, 72, 100
2, 244028, Note_off_c, 0, 60, 100
2, 244128, Note_on_c, 0, 72, 114
2, 244128, Note_on_c, 0, 60, 114
2, 244220, Note_off_c, 0, 72, 100
2, 244220, Note_off_c, 0, 60, 100
2, 244320, Note_on_c, 0, 84, 115
2, 244320, Note_on_c, 0, 72, 115
2, 244500, Note_off_c, 0, 84, 100
2, 244504, Note_off_c, 0, 72, 100
2, 244512, Note_on_c, 0, 84, 115
2, 244512, Note_on_c, 0, 72, 115
2, 244676, Note_off_c, 0, 84, 99
2, 244676, Note_off_c, 0, 72, 99
2, 244704, Note_on_c, 0, 84, 115
2, 244704, Note_on_c, 0, 72, 115
2, 244872, Note_off_c, 0, 72, 100
2, 244888, Note_off_c, 0, 84, 99
2, 244896, Note_on_c, 0, 72, 116
2, 244896, Note_on_c, 0, 84, 116
2, 245060, Note_off_c, 0, 84, 100
2, 245064, Note_off_c, 0, 72, 100
2, 245088, Note_on_c, 0, 84, 116
2, 245088, Note_on_c, 0, 72, 116
2, 245252, Note_off_c, 0, 84, 100
2, 245256, Note_off_c, 0, 72, 100
2, 245280, Note_on_c, 0, 84, 116
2, 245280, Note_on_c, 0, 72, 116
2, 245452, Note_off_c, 0, 72, 100
2, 245456, Note_off_c, 0, 84, 100
2, 245472, Note_on_c, 0, 84, 117
2, 245472, Note_on_c, 0, 72, 117
2, 245636, Note_off_c, 0, 84, 100
2, 245656, Note_off_c, 0, 72, 100
2, 245664, Note_on_c, 0, 84, 117
2, 245664, Note_on_c, 0, 72, 117
2, 245756, Note_off_c, 0, 84, 100
2, 245756, Note_off_c, 0, 72, 100
2, 245856, Note_on_c, 0, 96, 117
2, 245856, Note_on_c, 0, 84, 117
2, 246020, Note_off_c, 0, 96, 100
2, 246032, Note_off_c, 0, 84, 100
2, 246048, Note_on_c, 0, 96, 118
2, 246048, Note_on_c, 0, 84, 118
2, 246212, Note_off_c, 0, 96, 99
2, 246228, Note_off_c, 0, 84, 99
2, 246240, Note_on_c, 0, 96, 118
2, 246240, Note_on_c, 0, 84, 118
2, 246416, Note_off_c, 0, 96, 100
2, 246416, Note_off_c, 0, 84, 100
2, 246432, Note_on_c, 0, 96, 118
2, 246432, Note_on_c, 0, 84, 118
2, 246592, Note_off_c, 0, 96, 100
2, 246600, Note_off_c, 0, 84, 100
2, 246624, Note_on_c, 0, 96, 119
2, 246624, Note_on_c, 0, 84, 119
2, 246800, Note_off_c, 0, 84, 100
2, 246812, Note_off_c, 0, 96, 100
2, 246816, Note_on_c, 0, 96, 119
2, 246816, Note_on_c, 0, 84, 119
2, 246976, Note_off_c, 0, 96, 100
2, 247000, Note_off_c, 0, 84, 100
2, 247008, Note_on_c, 0, 96, 119
2, 247008, Note_on_c, 0, 84, 119
2, 247180, Note_off_c, 0, 96, 100
2, 247180, Note_off_c, 0, 84, 100
2, 247200, Note_on_c, 0, 96, 119
2, 247200, Note_on_c, 0, 84, 119
2, 247292, Note_off_c, 0, 96, 100
2, 247292, Note_off_c, 0, 84, 100
2, 247296, Control_c, 0, 64, 127
2, 247392, Note_on_c, 0, 49, 120
2, 247488, Note_on_c, 0, 54, 120
2, 247584, Note_on_c, 0, 58, 120
2, 247680, Note_on_c, 0, 61, 120
2, 247868, Note_off_c, 0, 49, 100
2, 247964, Note_off_c, 0, 54, 100
2, 248060, Note_off_c, 0, 58, 100
2, 248156, Note_off_c, 0, 61, 100
2, 248160, Note_on_c, 0, 61, 120
2, 248256, Note_on_c, 0, 66, 120
2, 248352, Note_on_c, 0, 70, 120
2, 248448, Note_on_c, 0, 73, 120
2, 248636, Note_off_c, 0, 61, 100
2, 248732, Note_off_c, 0, 66, 100
2, 248828, Note_off_c, 0, 70, 100
2, 248924, Note_off_c, 0, 73, 100
2, 248928, Note_on_c, 0, 73, 120
2, 249024, Note_on_c, 0, 78, 120
2, 249120, Note_on_c, 0, 82, 120
2, 249216, Note_on_c, 0, 85, 120
2, 249592, Control_c, 0, 64, 0
2, 249596, Note_off_c, 0, 73, 100
2, 249596, Note_off_c, 0, 78, 100
2, 249596, Note_off_c, 0, 82, 100
2, 249596, Note_off_c, 0, 85, 100
2, 250368, Control_c, 0, 64, 127
2, 250464, Note_on_c, 0, 52, 120
2, 250560, Note_on_c, 0, 55, 120
2, 250656, Note_on_c, 0, 58, 120
2, 250752, Note_on_c, 0, 64, 120
2, 250940, Note_off_c, 0, 52, 100
2, 251036, Note_off_c, 0, 55, 100
2, 251132, Note_off_c, 0, 58, 100
2, 251228, Note_off_c, 0, 64, 100
2, 251232, Note_on_c, 0, 64, 120
2, 251328, Note_on_c, 0, 67, 120
2, 251424, Note_on_c, 0, 70, 120
2, 251520, Note_on_c, 0, 76, 120
2, 251708, Note_off_c, 0, 64, 100
2, 251804, Note_off_c, 0, 67, 100
2, 251900, Note_off_c, 0, 70, 100
2, 251996, Note_off_c, 0, 76, 100
2, 252000, Note_on_c, 0, 76, 120
2, 252096, Note_on_c, 0, 79, 120
2, 252192, Note_on_c, 0, 82, 120
2, 252288, Note_on_c, 0, 88, 120
2, 252664, Control_c, 0, 64, 0
2, 252668, Note_off_c, 0, 76, 100
2, 252668, Note_off_c, 0, 79, 100
2, 252668, Note_off_c, 0, 82, 100
2, 252668, Note_off_c, 0, 88, 100
2, 253440, Control_c, 0, 64, 127
2, 253824, Note_on_c, 0, 55, 80
2, 253920, Note_on_c, 0, 58, 80
2, 254016, Note_on_c, 0, 61, 80
2, 254112, Note_on_c, 0, 64, 80
2, 254208, Note_on_c, 0, 67, 80
2, 254968, Control_c, 0, 64, 0
2, 254972, Note_off_c, 0, 55, 100
2, 254972, Note_off_c, 0, 58, 100
2, 254972, Note_off_c, 0, 61, 100
2, 254972, Note_off_c, 0, 64, 100
2, 254972, Note_off_c, 0, 67, 100
2, 254976, Control_c, 0, 64, 127
2, 255360, Note_on_c, 0, 58, 80
2, 255456, Note_on_c, 0, 61, 80
2, 255552, Note_on_c, 0, 64, 80
2, 255648, Note_on_c, 0, 67, 80
2, 255744, Note_on_c, 0, 70, 80
2, 255836, Note_off_c, 0, 58, 100
2, 255932, Note_off_c, 0, 61, 100
2, 256028, Note_off_c, 0, 64, 100
2, 256124, Note_off_c, 0, 67, 100
2, 256316, Note_off_c, 0, 70, 100
2, 256504, Control_c, 0, 64, 0
2, 256512, Control_c, 0, 64, 127
2, 256896, Note_on_c, 0, 61, 80
2, 256992, Note_on_c, 0, 64, 80
2, 257088, Note_on_c, 0, 67, 80
2, 257184, Note_on_c, 0, 70, 80
2, 257280, Note_on_c, 0, 73, 80
2, 257372, Note_off_c, 0, 61, 100
2, 257468, Note_off_c, 0, 64, 100
2, 257564, Note_off_c, 0, 67, 100
2, 257660, Note_off_c, 0, 70, 100
2, 257852, Note_off_c, 0, 73, 100
2, 258040, Control_c, 0, 64, 0
2, 258048, Control_c, 0, 64, 127
2, 258432, Note_on_c, 0, 64, 80
2, 258528, Note_on_c, 0, 67, 80
2, 258624, Note_on_c, 0, 70, 80
2, 258720, Note_on_c, 0, 73, 80
2, 258816, Note_on_c, 0, 76, 80
2, 259576, Control_c, 0, 64, 0
2, 259580, Note_off_c, 0, 64, 100
2, 259580, Note_off_c, 0, 67, 100
2, 259580, Note_off_c, 0, 70, 100
2, 259580, Note_off_c, 0, 73, 100
2, 259580, Note_off_c, 0, 76, 100
2, 260544, Note_on_c, 0, 64, 80
2, 260736, Note_on_c, 0, 67, 80
2, 260928, Note_on_c, 0, 70, 80
2, 261116, Note_off_c, 0, 64, 100
2, 261120, Note_on_c, 0, 73, 80
2, 261308, Note_off_c, 0, 67, 100
2, 261312, Note_on_c, 0, 76, 80
2, 261500, Note_off_c, 0, 70, 100
2, 261504, Note_on_c, 0, 79, 80
2, 261692, Note_off_c, 0, 73, 100
2, 261696, Note_on_c, 0, 82, 80
2, 261884, Note_off_c, 0, 76, 100
2, 261888, Note_on_c, 0, 85, 80
2, 262076, Note_off_c, 0, 79, 100
2, 262080, Note_on_c, 0, 88, 80
2, 262268, Note_off_c, 0, 82, 100
2, 262272, Note_on_c, 0, 91, 80
2, 262460, Note_off_c, 0, 85, 100
2, 262464, Note_on_c, 0, 94, 80
2, 262652, Note_off_c, 0, 88, 100
2, 262652, Note_off_c, 0, 91, 64
2, 262656, Note_on_c, 0, 91, 80
2, 262848, Note_on_c, 0, 88, 80
2, 263036, Note_off_c, 0, 94, 100
2, 263040, Note_on_c, 0, 85, 80
2, 263228, Note_off_c, 0, 91, 100
2, 263232, Note_on_c, 0, 82, 80
2, 263420, Note_off_c, 0, 88, 100
2, 263424, Note_on_c, 0, 79, 80
2, 263612, Note_off_c, 0, 85, 100
2, 263616, Note_on_c, 0, 76, 80
2, 263804, Note_off_c, 0, 82, 100
2, 263808, Note_on_c, 0, 73, 80
2, 263996, Note_off_c, 0, 79, 100
2, 264000, Note_on_c, 0, 70, 80
2, 264188, Note_off_c, 0, 76, 100
2, 264192, Note_on_c, 0, 67, 80
2, 264380, Note_off_c, 0, 73, 100
2, 264384, Note_on_c, 0, 64, 80
2, 264572, Note_off_c, 0, 70, 100
2, 264576, Note_on_c, 0, 61, 80
2, 264764, Note_off_c, 0, 67, 100
2, 264768, Note_on_c, 0, 58, 80
2, 264956, Note_off_c, 0, 64, 100
2, 264960, Note_on_c, 0, 55, 80
2, 265148, Note_off_c, 0, 61, 100
2, 265152, Note_on_c, 0, 52, 80
2, 265340, Note_off_c, 0, 58, 100
2, 265344, Note_on_c, 0, 49, 80
2, 265532, Note_off_c, 0, 55, 100
2, 265536, Note_on_c, 0, 46, 80
2, 265724, Note_off_c, 0, 52, 100
2, 265728, Note_on_c, 0, 43, 80
2, 265916, Note_off_c, 0, 49, 100
2, 266108, Note_off_c, 0, 46, 100
2, 267260, Note_off_c, 0, 43, 100
2, 270336, Control_c, 0, 64, 127
2, 270336, Note_on_c, 0, 52, 80
2, 270336, Note_on_c, 0, 48, 80
2, 270336, Note_on_c, 0, 46, 80
2, 270336, Note_on_c, 0, 43, 80
2, 271868, Note_off_c, 0, 43, 100
2, 271868, Note_off_c, 0, 46, 100
2, 271868, Note_off_c, 0, 48, 100
2, 271868, Note_off_c, 0, 52, 100
2, 271872, Note_on_c, 0, 64, 80
2, 271872, Note_on_c, 0, 60, 80
2, 271872, Note_on_c, 0, 58, 80
2, 271872, Note_on_c, 0, 55, 80
2, 272636, Note_off_c, 0, 64, 100
2, 272636, Note_off_c, 0, 60, 100
2, 272636, Note_off_c, 0, 58, 100
2, 272636, Note_off_c, 0, 55, 100
2, 272640, Note_on_c, 0, 76, 80
2, 272640, Note_on_c, 0, 72, 80
2, 272640, Note_on_c, 0, 70, 80
2, 272640, Note_on_c, 0, 67, 80
2, 273404, Note_off_c, 0, 76, 100
2, 273404, Note_off_c, 0, 72, 100
2, 273404, Note_off_c, 0, 70, 100
2, 273404, Note_off_c, 0, 67, 100
2, 273408, Note_on_c, 0, 88, 80
2, 273408, Note_on_c, 0, 84, 80
2, 273408, Note_on_c, 0, 82, 80
2, 273408, Note_on_c, 0, 79, 80
2, 274172, Note_off_c, 0, 88, 100
2, 274172, Note_off_c, 0, 84, 100
2, 274172, Note_off_c, 0, 82, 100
2, 274172, Note_off_c, 0, 79, 100
2, 274176, Note_on_c, 0, 52, 80
2, 274176, Note_on_c, 0, 48, 80
2, 274176, Note_on_c, 0, 46, 80
2, 274176, Note_on_c, 0, 43, 80
2, 274936, Control_c, 0, 64, 0
2, 274940, Note_off_c, 0, 52, 100
2, 274940, Note_off_c, 0, 48, 100
2, 274940, Note_off_c, 0, 46, 100
2, 274940, Note_off_c, 0, 43, 100
2, 275040, Note_on_c, 0, 48, 80
2, 275132, Note_off_c, 0, 48, 100
2, 275136, Note_on_c, 0, 53, 80
2, 275228, Note_off_c, 0, 53, 100
2, 275232, Note_on_c, 0, 56, 80
2, 275324, Note_off_c, 0, 56, 100
2, 275328, Note_on_c, 0, 60, 80
2, 275420, Note_off_c, 0, 60, 100
2, 275424, Note_on_c, 0, 61, 80
2, 275516, Note_off_c, 0, 61, 100
2, 275520, Note_on_c, 0, 60, 80
2, 275612, Note_off_c, 0, 60, 100
2, 275616, Note_on_c, 0, 58, 80
2, 275708, Note_off_c, 0, 58, 100
2, 275712, Note_on_c, 0, 56, 80
2, 275804, Note_off_c, 0, 56, 100
2, 275808, Note_on_c, 0, 58, 80
2, 275900, Note_off_c, 0, 58, 100
2, 275904, Note_on_c, 0, 56, 80
2, 275996, Note_off_c, 0, 56, 100
2, 276000, Note_on_c, 0, 55, 80
2, 276092, Note_off_c, 0, 55, 100
2, 276096, Note_on_c, 0, 53, 80
2, 276188, Note_off_c, 0, 53, 100
2, 276192, Note_on_c, 0, 55, 80
2, 276284, Note_off_c, 0, 55, 100
2, 276288, Note_on_c, 0, 56, 80
2, 276380, Note_off_c, 0, 56, 100
2, 276384, Note_on_c, 0, 53, 80
2, 276476, Note_off_c, 0, 53, 100
2, 276576, Note_on_c, 0, 48, 80
2, 276668, Note_off_c, 0, 48, 100
2, 276672, Note_on_c, 0, 53, 80
2, 276764, Note_off_c, 0, 53, 100
2, 276768, Note_on_c, 0, 56, 80
2, 276860, Note_off_c, 0, 56, 100
2, 276864, Note_on_c, 0, 60, 80
2, 276956, Note_off_c, 0, 60, 100
2, 276960, Note_on_c, 0, 61, 80
2, 277052, Note_off_c, 0, 61, 100
2, 277056, Note_on_c, 0, 60, 80
2, 277148, Note_off_c, 0, 60, 100
2, 277152, Note_on_c, 0, 58, 80
2, 277244, Note_off_c, 0, 58, 100
2, 277248, Note_on_c, 0, 56, 80
2, 277340, Note_off_c, 0, 56, 100
2, 277344, Note_on_c, 0, 58, 80
2, 277436, Note_off_c, 0, 58, 100
2, 277440, Note_on_c, 0, 56, 80
2, 277532, Note_off_c, 0, 56, 100
2, 277536, Note_on_c, 0, 55, 80
2, 277628, Note_off_c, 0, 55, 100
2, 277632, Note_on_c, 0, 53, 80
2, 277724, Note_off_c, 0, 53, 100
2, 277728, Note_on_c, 0, 55, 80
2, 277820, Note_off_c, 0, 55, 100
2, 277824, Note_on_c, 0, 56, 80
2, 277916, Note_off_c, 0, 56, 100
2, 277920, Note_on_c, 0, 53, 80
2, 278012, Note_off_c, 0, 53, 100
2, 278112, Note_on_c, 0, 49, 80
2, 278204, Note_off_c, 0, 49, 100
2, 278208, Note_on_c, 0, 54, 80
2, 278300, Note_off_c, 0, 54, 100
2, 278304, Note_on_c, 0, 58, 80
2, 278396, Note_off_c, 0, 58, 100
2, 278400, Note_on_c, 0, 61, 80
2, 278492, Note_off_c, 0, 61, 100
2, 278496, Note_on_c, 0, 63, 80
2, 278588, Note_off_c, 0, 63, 100
2, 278592, Note_on_c, 0, 61, 80
2, 278684, Note_off_c, 0, 61, 100
2, 278688, Note_on_c, 0, 60, 80
2, 278780, Note_off_c, 0, 60, 100
2, 278784, Note_on_c, 0, 58, 80
2, 278876, Note_off_c, 0, 58, 100
2, 278880, Note_on_c, 0, 60, 80
2, 278972, Note_off_c, 0, 60, 100
2, 278976, Note_on_c, 0, 58, 80
2, 279068, Note_off_c, 0, 58, 100
2, 279072, Note_on_c, 0, 56, 80
2, 279164, Note_off_c, 0, 56, 100
2, 279168, Note_on_c, 0, 55, 80
2, 279260, Note_off_c, 0, 55, 100
2, 279264, Note_on_c, 0, 56, 80
2, 279356, Note_off_c, 0, 56, 100
2, 279360, Note_on_c, 0, 54, 80
2, 279452, Note_off_c, 0, 54, 100
2, 279456, Note_on_c, 0, 53, 80
2, 279548, Note_off_c, 0, 53, 100
2, 279552, Note_on_c, 0, 52, 80
2, 279644, Note_off_c, 0, 52, 100
2, 279648, Note_on_c, 0, 53, 80
2, 279740, Note_off_c, 0, 53, 100
2, 279744, Note_on_c, 0, 55, 80
2, 279836, Note_off_c, 0, 55, 100
2, 279840, Note_on_c, 0, 52, 80
2, 279932, Note_off_c, 0, 52, 100
2, 279936, Note_on_c, 0, 53, 80
2, 280028, Note_off_c, 0, 53, 100
2, 280032, Note_on_c, 0, 55, 80
2, 280124, Note_off_c, 0, 55, 100
2, 280128, Note_on_c, 0, 56, 80
2, 280220, Note_off_c, 0, 56, 100
2, 280224, Note_on_c, 0, 53, 80
2, 280316, Note_off_c, 0, 53, 100
2, 280320, Note_on_c, 0, 55, 80
2, 280412, Note_off_c, 0, 55, 100
2, 280416, Note_on_c, 0, 56, 80
2, 280508, Note_off_c, 0, 56, 100
2, 280512, Note_on_c, 0, 58, 80
2, 280604, Note_off_c, 0, 58, 100
2, 280608, Note_on_c, 0, 55, 80
2, 280700, Note_off_c, 0, 55, 100
2, 280704, Note_on_c, 0, 52, 80
2, 280796, Note_off_c, 0, 52, 100
2, 280800, Note_on_c, 0, 53, 80
2, 280892, Note_off_c, 0, 53, 100
2, 280896, Note_on_c, 0, 55, 80
2, 280988, Note_off_c, 0, 55, 100
2, 280992, Note_on_c, 0, 52, 80
2, 281084, Note_off_c, 0, 52, 100
2, 281088, Note_on_c, 0, 53, 80
2, 281468, Note_off_c, 0, 53, 100
2, 281664, Note_on_c, 0, 64, 83
2, 281852, Note_off_c, 0, 64, 100
2, 281856, Note_on_c, 0, 65, 85
2, 282044, Note_off_c, 0, 65, 100
2, 282048, Note_on_c, 0, 67, 86
2, 282236, Note_off_c, 0, 67, 100
2, 282240, Note_on_c, 0, 68, 87
2, 282428, Note_off_c, 0, 68, 100
2, 282432, Note_on_c, 0, 65, 88
2, 282620, Note_off_c, 0, 65, 100
2, 283200, Note_on_c, 0, 76, 94
2, 283200, Note_on_c, 0, 64, 94
2, 283388, Note_off_c, 0, 76, 100
2, 283388, Note_off_c, 0, 64, 100
2, 283392, Note_on_c, 0, 77, 95
2, 283392, Note_on_c, 0, 65, 95
2, 283580, Note_off_c, 0, 77, 100
2, 283580, Note_off_c, 0, 65, 100
2, 283584, Note_on_c, 0, 79, 96
2, 283584, Note_on_c, 0, 67, 96
2, 283772, Note_off_c, 0, 79, 100
2, 283772, Note_off_c, 0, 67, 100
2, 283776, Note_on_c, 0, 80, 97
2, 283776, Note_on_c, 0, 68, 97
2, 283964, Note_off_c, 0, 80, 100
2, 283964, Note_off_c, 0, 68, 100
2, 283968, Note_on_c, 0, 77, 99
2, 283968, Note_on_c, 0, 65, 99
2, 284156, Note_off_c, 0, 77, 100
2, 284156, Note_off_c, 0, 65, 100
2, 284736, Note_on_c, 0, 77, 104
2, 284736, Note_on_c, 0, 65, 104
2, 284924, Note_off_c, 0, 77, 100
2, 284924, Note_off_c, 0, 65, 100
2, 284928, Note_on_c, 0, 78, 105
2, 284928, Note_on_c, 0, 66, 105
2, 285116, Note_off_c, 0, 78, 100
2, 285116, Note_off_c, 0, 66, 100
2, 285120, Note_on_c, 0, 82, 106
2, 285120, Note_on_c, 0, 70, 106
2, 285308, Note_off_c, 0, 82, 100
2, 285308, Note_off_c, 0, 70, 100
2, 285312, Note_on_c, 0, 85, 108
2, 285312, Note_on_c, 0, 73, 108
2, 285500, Note_off_c, 0, 85, 100
2, 285500, Note_off_c, 0, 73, 100
2, 285504, Note_on_c, 0, 85, 109
2, 285504, Note_on_c, 0, 73, 109
2, 285692, Note_off_c, 0, 85, 100
2, 285692, Note_off_c, 0, 73, 100
2, 285696, Note_on_c, 0, 85, 110
2, 285696, Note_on_c, 0, 73, 110
2, 286076, Note_off_c, 0, 85, 100
2, 286076, Note_off_c, 0, 73, 100
2, 286080, Note_on_c, 0, 84, 105
2, 286080, Note_on_c, 0, 72, 105
2, 286844, Note_off_c, 0, 72, 100
2, 286844, Note_off_c, 0, 84, 100
2, 286848, Note_on_c, 0, 76, 95
2, 286848, Note_on_c, 0, 64, 95
2, 287228, Note_off_c, 0, 76, 100
2, 287228, Note_off_c, 0, 64, 100
2, 287232, Note_on_c, 0, 77, 80
2, 287232, Note_on_c, 0, 65, 80
2, 287324, Note_off_c, 0, 77, 100
2, 287324, Note_off_c, 0, 65, 100
2, 287328, Note_on_c, 0, 60, 81
2, 287420, Note_off_c, 0, 60, 100
2, 287424, Note_on_c, 0, 65, 82
2, 287516, Note_off_c, 0, 65, 100
2, 287520, Note_on_c, 0, 68, 83
2, 287612, Note_off_c, 0, 68, 100
2, 287616, Note_on_c, 0, 72, 85
2, 287708, Note_off_c, 0, 72, 100
2, 287712, Note_on_c, 0, 60, 86
2, 287804, Note_off_c, 0, 60, 100
2, 287808, Note_on_c, 0, 65, 87
2, 287900, Note_off_c, 0, 65, 100
2, 287904, Note_on_c, 0, 68, 89
2, 287996, Note_off_c, 0, 68, 100
2, 288096, Note_on_c, 0, 60, 91
2, 288188, Note_off_c, 0, 60, 100
2, 288192, Note_on_c, 0, 65, 93
2, 288284, Note_off_c, 0, 65, 100
2, 288288, Note_on_c, 0, 68, 94
2, 288380, Note_off_c, 0, 68, 100
2, 288384, Note_on_c, 0, 72, 95
2, 288476, Note_off_c, 0, 72, 100
2, 288480, Note_on_c, 0, 60, 97
2, 288572, Note_off_c, 0, 60, 100
2, 288576, Note_on_c, 0, 65, 98
2, 288668, Note_off_c, 0, 65, 100
2, 288672, Note_on_c, 0, 68, 99
2, 288764, Note_off_c, 0, 68, 100
2, 288864, Note_on_c, 0, 59, 100
2, 288956, Note_off_c, 0, 59, 100
2, 288960, Note_on_c, 0, 62, 100
2, 289052, Note_off_c, 0, 62, 100
2, 289056, Note_on_c, 0, 68, 100
2, 289148, Note_off_c, 0, 68, 100
2, 289152, Note_on_c, 0, 71, 100
2, 289248, Note_on_c, 0, 59, 100
2, 289344, Note_on_c, 0, 62, 100
2, 289412, Note_off_c, 0, 59, 100
2, 289440, Note_on_c, 0, 68, 100
2, 289516, Note_off_c, 0, 62, 100
2, 289532, Note_off_c, 0, 71, 100
2, 289532, Note_off_c, 0, 68, 100
2, 289536, Note_on_c, 0, 71, 100
2, 289632, Note_on_c, 0, 59, 98
2, 289728, Note_on_c, 0, 64, 95
2, 289804, Note_off_c, 0, 59, 100
2, 289824, Note_on_c, 0, 67, 92
2, 289904, Note_off_c, 0, 64, 100
2, 289916, Note_off_c, 0, 71, 100
2, 289920, Note_on_c, 0, 72, 89
2, 290000, Note_off_c, 0, 67, 100
2, 290016, Note_on_c, 0, 60, 86
2, 290112, Note_on_c, 0, 64, 83
2, 290204, Note_off_c, 0, 60, 100
2, 290208, Note_on_c, 0, 67, 81
2, 290264, Note_off_c, 0, 64, 100
2, 290300, Note_off_c, 0, 72, 100
2, 290300, Note_off_c, 0, 67, 100
2, 290400, Note_on_c, 0, 60, 81
2, 290492, Note_off_c, 0, 60, 100
2, 290496, Note_on_c, 0, 64, 82
2, 290588, Note_off_c, 0, 64, 100
2, 290592, Note_on_c, 0, 67, 83
2, 290684, Note_off_c, 0, 67, 100
2, 290688, Note_on_c, 0, 72, 85
2, 290780, Note_off_c, 0, 72, 100
2, 290784, Note_on_c, 0, 60, 86
2, 290876, Note_off_c, 0, 60, 100
2, 290880, Note_on_c, 0, 64, 87
2, 290972, Note_off_c, 0, 64, 100
2, 290976, Note_on_c, 0, 67, 89
2, 291068, Note_off_c, 0, 67, 100
2, 291168, Note_on_c, 0, 60, 91
2, 291260, Note_off_c, 0, 60, 100
2, 291264, Note_on_c, 0, 64, 93
2, 291356, Note_off_c, 0, 64, 100
2, 291360, Note_on_c, 0, 67, 94
2, 291452, Note_off_c, 0, 67, 100
2, 291456, Note_on_c, 0, 72, 95
2, 291548, Note_off_c, 0, 72, 100
2, 291552, Note_on_c, 0, 60, 97
2, 291644, Note_off_c, 0, 60, 100
2, 291648, Note_on_c, 0, 64, 98
2, 291740, Note_off_c, 0, 64, 100
2, 291744, Note_on_c, 0, 67, 99
2, 291836, Note_off_c, 0, 67, 100
2, 291936, Note_on_c, 0, 60, 100
2, 292028, Note_off_c, 0, 60, 100
2, 292032, Note_on_c, 0, 64, 100
2, 292124, Note_off_c, 0, 64, 100
2, 292128, Note_on_c, 0, 67, 100
2, 292220, Note_off_c, 0, 67, 100
2, 292224, Note_on_c, 0, 72, 100
2, 292320, Note_on_c, 0, 60, 100
2, 292416, Note_on_c, 0, 64, 100
2, 292488, Note_off_c, 0, 60, 100
2, 292512, Note_on_c, 0, 67, 100
2, 292584, Note_off_c, 0, 64, 100
2, 292604, Note_off_c, 0, 72, 100
2, 292604, Note_off_c, 0, 67, 100
2, 292608, Note_on_c, 0, 72, 100
2, 292704, Note_on_c, 0, 60, 98
2, 292800, Note_on_c, 0, 64, 95
2, 292880, Note_off_c, 0, 60, 100
2, 292896, Note_on_c, 0, 67, 92
2, 292976, Note_off_c, 0, 64, 100
2, 292988, Note_off_c, 0, 72, 100
2, 292988, Note_off_c, 0, 67, 100
2, 292992, Note_on_c, 0, 72, 89
2, 293088, Note_on_c, 0, 60, 86
2, 293184, Note_on_c, 0, 65, 83
2, 293264, Note_off_c, 0, 60, 100
2, 293280, Note_on_c, 0, 68, 81
2, 293364, Note_off_c, 0, 65, 100
2, 293372, Note_off_c, 0, 72, 100
2, 293372, Note_off_c, 0, 68, 100
2, 293472, Note_on_c, 0, 65, 80
2, 293564, Note_off_c, 0, 65, 100
2, 293568, Note_on_c, 0, 69, 81
2, 293660, Note_off_c, 0, 69, 100
2, 293664, Note_on_c, 0, 72, 82
2, 293756, Note_off_c, 0, 72, 100
2, 293760, Note_on_c, 0, 77, 83
2, 293852, Note_off_c, 0, 77, 100
2, 293856, Note_on_c, 0, 65, 84
2, 293948, Note_off_c, 0, 65, 100
2, 293952, Note_on_c, 0, 69, 86
2, 294044, Note_off_c, 0, 69, 100
2, 294048, Note_on_c, 0, 72, 87
2, 294140, Note_off_c, 0, 72, 100
2, 294240, Note_on_c, 0, 65, 89
2, 294332, Note_off_c, 0, 65, 100
2, 294336, Note_on_c, 0, 69, 91
2, 294428, Note_off_c, 0, 69, 100
2, 294432, Note_on_c, 0, 72, 92
2, 294524, Note_off_c, 0, 72, 100
2, 294528, Note_on_c, 0, 77, 93
2, 294620, Note_off_c, 0, 77, 100
2, 294624, Note_on_c, 0, 65, 94
2, 294716, Note_off_c, 0, 65, 100
2, 294720, Note_on_c, 0, 69, 96
2, 294812, Note_off_c, 0, 69, 100
2, 294816, Note_on_c, 0, 72, 97
2, 294908, Note_off_c, 0, 72, 100
2, 295008, Note_on_c, 0, 65, 99
2, 295100, Note_off_c, 0, 65, 100
2, 295104, Note_on_c, 0, 69, 101
2, 295196, Note_off_c, 0, 69, 100
2, 295200, Note_on_c, 0, 72, 102
2, 295292, Note_off_c, 0, 72, 100
2, 295296, Note_on_c, 0, 77, 103
2, 295392, Note_on_c, 0, 65, 104
2, 295484, Note_off_c, 0, 65, 100
2, 295488, Note_on_c, 0, 69, 106
2, 295580, Note_off_c, 0, 69, 100
2, 295584, Note_on_c, 0, 72, 107
2, 295676, Note_off_c, 0, 77, 100
2, 295676, Note_off_c, 0, 72, 100
2, 295680, Note_on_c, 0, 69, 108
2, 295680, Note_on_c, 0, 65, 108
2, 295772, Note_off_c, 0, 69, 100
2, 295772, Note_off_c, 0, 65, 100
2, 295776, Note_on_c, 0, 77, 109
2, 295868, Note_off_c, 0, 77, 100
2, 295872, Note_on_c, 0, 70, 110
2, 295872, Note_on_c, 0, 65, 110
2, 295964, Note_off_c, 0, 70, 100
2, 295964, Note_off_c, 0, 65, 100
2, 295968, Note_on_c, 0, 77, 107
2, 296060, Note_off_c, 0, 77, 100
2, 296064, Note_on_c, 0, 72, 103
2, 296064, Note_on_c, 0, 65, 103
2, 296156, Note_off_c, 0, 72, 100
2, 296156, Note_off_c, 0, 65, 100
2, 296160, Note_on_c, 0, 77, 99
2, 296252, Note_off_c, 0, 77, 100
2, 296256, Note_on_c, 0, 73, 95
2, 296256, Note_on_c, 0, 65, 95
2, 296348, Note_off_c, 0, 73, 100
2, 296348, Note_off_c, 0, 65, 100
2, 296352, Note_on_c, 0, 77, 91
2, 296444, Note_off_c, 0, 77, 100
2, 296544, Note_on_c, 0, 60, 80
2, 296636, Note_off_c, 0, 60, 100
2, 296640, Note_on_c, 0, 65, 80
2, 296732, Note_off_c, 0, 65, 100
2, 296736, Note_on_c, 0, 68, 80
2, 296828, Note_off_c, 0, 68, 100
2, 296832, Note_on_c, 0, 72, 80
2, 296928, Note_on_c, 0, 60, 80
2, 297020, Note_off_c, 0, 60, 100
2, 297024, Note_on_c, 0, 65, 80
2, 297116, Note_off_c, 0, 65, 100
2, 297120, Note_on_c, 0, 68, 80
2, 297212, Note_off_c, 0, 72, 100
2, 297212, Note_off_c, 0, 68, 100
2, 297216, Note_on_c, 0, 72, 80
2, 297312, Note_on_c, 0, 60, 80
2, 297404, Note_off_c, 0, 60, 100
2, 297408, Note_on_c, 0, 67, 80
2, 297500, Note_off_c, 0, 67, 100
2, 297504, Note_on_c, 0, 70, 80
2, 297596, Note_off_c, 0, 72, 100
2, 297596, Note_off_c, 0, 70, 100
2, 297600, Note_on_c, 0, 72, 80
2, 297696, Note_on_c, 0, 60, 80
2, 297788, Note_off_c, 0, 60, 100
2, 297792, Note_on_c, 0, 64, 80
2, 297884, Note_off_c, 0, 64, 100
2, 297888, Note_on_c, 0, 67, 80
2, 297980, Note_off_c, 0, 72, 100
2, 297980, Note_off_c, 0, 67, 100
2, 297984, Note_on_c, 0, 72, 80
2, 297984, Note_on_c, 0, 68, 80
2, 297984, Note_on_c, 0, 65, 80
2, 297984, Note_on_c, 0, 60, 80
2, 298364, Note_off_c, 0, 72, 100
2, 298364, Note_off_c, 0, 68, 100
2, 298364, Note_off_c, 0, 65, 100
2, 298364, Note_off_c, 0, 60, 100
2, 298656, Note_on_c, 0, 80, 80
2, 298656, Note_on_c, 0, 77, 80
2, 298748, Note_off_c, 0, 80, 100
2, 298748, Note_off_c, 0, 77, 100
2, 298752, Note_on_c, 0, 80, 100
2, 298752, Note_on_c, 0, 77, 100
2, 299132, Note_off_c, 0, 80, 100
2, 299132, Note_off_c, 0, 77, 100
2, 299424, Note_on_c, 0, 80, 80
2, 299424, Note_on_c, 0, 77, 80
2, 299516, Note_off_c, 0, 80, 100
2, 299516, Note_off_c, 0, 77, 100
2, 299520, Note_on_c, 0, 80, 100
2, 299520, Note_on_c, 0, 77, 100
2, 300284, Note_off_c, 0, 80, 100
2, 300284, Note_off_c, 0, 77, 100
2, 300288, Note_on_c, 0, 79, 80
2, 300288, Note_on_c, 0, 76, 80
2, 300476, Note_off_c, 0, 79, 100
2, 300476, Note_off_c, 0, 76, 100
2, 301728, Note_on_c, 0, 82, 80
2, 301728, Note_on_c, 0, 79, 80
2, 301820, Note_off_c, 0, 82, 100
2, 301820, Note_off_c, 0, 79, 100
2, 301824, Note_on_c, 0, 82, 100
2, 301824, Note_on_c, 0, 79, 100
2, 302204, Note_off_c, 0, 82, 100
2, 302204, Note_off_c, 0, 79, 100
2, 302496, Note_on_c, 0, 82, 80
2, 302496, Note_on_c, 0, 79, 80
2, 302588, Note_off_c, 0, 82, 100
2, 302588, Note_off_c, 0, 79, 100
2, 302592, Note_on_c, 0, 82, 100
2, 302592, Note_on_c, 0, 79, 100
2, 303356, Note_off_c, 0, 82, 100
2, 303356, Note_off_c, 0, 79, 100
2, 303360, Note_on_c, 0, 80, 80
2, 303360, Note_on_c, 0, 77, 80
2, 303548, Note_off_c, 0, 80, 100
2, 303548, Note_off_c, 0, 77, 100
2, 304800, Note_on_c, 0, 87, 99
2, 304800, Note_on_c, 0, 84, 99
2, 304892, Note_off_c, 0, 87, 100
2, 304892, Note_off_c, 0, 84, 100
2, 304896, Note_on_c, 0, 87, 112
2, 304896, Note_on_c, 0, 84, 113
2, 305276, Note_off_c, 0, 87, 100
2, 305276, Note_off_c, 0, 84, 100
2, 305568, Note_on_c, 0, 87, 109
2, 305568, Note_on_c, 0, 84, 109
2, 305660, Note_off_c, 0, 87, 100
2, 305660, Note_off_c, 0, 84, 100
2, 305664, Note_on_c, 0, 87, 123
2, 305664, Note_on_c, 0, 84, 122
2, 306620, Note_off_c, 0, 84, 100
2, 306620, Note_off_c, 0, 87, 100
2, 306624, Note_on_c, 0, 85, 110
2, 306624, Note_on_c, 0, 82, 110
2, 306812, Note_off_c, 0, 85, 100
2, 306812, Note_off_c, 0, 82, 100
2, 306816, Note_on_c, 0, 84, 110
2, 306816, Note_on_c, 0, 80, 110
2, 307004, Note_off_c, 0, 84, 100
2, 307004, Note_off_c, 0, 80, 100
2, 307008, Note_on_c, 0, 82, 110
2, 307008, Note_on_c, 0, 79, 110
2, 307196, Note_off_c, 0, 82, 100
2, 307196, Note_off_c, 0, 79, 100
2, 307200, Note_on_c, 0, 80, 110
2, 307200, Note_on_c, 0, 77, 110
2, 307580, Note_off_c, 0, 80, 100
2, 307580, Note_off_c, 0, 77, 100
2, 307872, Note_on_c, 0, 89, 110
2, 307872, Note_on_c, 0, 80, 110
2, 307872, Note_on_c, 0, 77, 110
2, 307964, Note_off_c, 0, 89, 100
2, 307964, Note_off_c, 0, 80, 100
2, 307964, Note_off_c, 0, 77, 100
2, 307968, Note_on_c, 0, 91, 110
2, 307968, Note_on_c, 0, 82, 110
2, 307968, Note_on_c, 0, 79, 110
2, 308348, Note_off_c, 0, 91, 100
2, 308348, Note_off_c, 0, 82, 100
2, 308348, Note_off_c, 0, 79, 100
2, 308640, Note_on_c, 0, 88, 110
2, 308640, Note_on_c, 0, 79, 110
2, 308640, Note_on_c, 0, 76, 110
2, 308732, Note_off_c, 0, 88, 100
2, 308732, Note_off_c, 0, 79, 100
2, 308732, Note_off_c, 0, 76, 100
2, 308736, Note_on_c, 0, 89, 110
2, 308736, Note_on_c, 0, 77, 110
2, 308736, Note_on_c, 0, 80, 110
2, 308832, Note_on_c, 0, 72, 80
2, 308908, Note_off_c, 0, 80, 100
2, 308912, Note_off_c, 0, 89, 100
2, 308912, Note_off_c, 0, 77, 100
2, 308924, Note_off_c, 0, 72, 100
2, 308928, Note_on_c, 0, 77, 82
2, 309020, Note_off_c, 0, 77, 100
2, 309024, Note_on_c, 0, 80, 84
2, 309116, Note_off_c, 0, 80, 100
2, 309120, Note_on_c, 0, 84, 87
2, 309212, Note_off_c, 0, 84, 100
2, 309216, Note_on_c, 0, 85, 89
2, 309308, Note_off_c, 0, 85, 100
2, 309312, Note_on_c, 0, 84, 92
2, 309404, Note_off_c, 0, 84, 100
2, 309408, Note_on_c, 0, 82, 94
2, 309500, Note_off_c, 0, 82, 100
2, 309504, Note_on_c, 0, 80, 95
2, 309596, Note_off_c, 0, 80, 100
2, 309600, Note_on_c, 0, 82, 94
2, 309692, Note_off_c, 0, 82, 100
2, 309696, Note_on_c, 0, 80, 93
2, 309788, Note_off_c, 0, 80, 100
2, 309792, Note_on_c, 0, 79, 91
2, 309884, Note_off_c, 0, 79, 100
2, 309888, Note_on_c, 0, 77, 90
2, 309980, Note_off_c, 0, 77, 100
2, 309984, Note_on_c, 0, 79, 88
2, 310076, Note_off_c, 0, 79, 100
2, 310080, Note_on_c, 0, 80, 87
2, 310172, Note_off_c, 0, 80, 100
2, 310176, Note_on_c, 0, 77, 86
2, 310268, Note_off_c, 0, 77, 100
2, 310368, Note_on_c, 0, 72, 82
2, 310460, Note_off_c, 0, 72, 100
2, 310464, Note_on_c, 0, 77, 84
2, 310556, Note_off_c, 0, 77, 100
2, 310560, Note_on_c, 0, 80, 86
2, 310652, Note_off_c, 0, 80, 100
2, 310656, Note_on_c, 0, 84, 88
2, 310748, Note_off_c, 0, 84, 100
2, 310752, Note_on_c, 0, 85, 90
2, 310844, Note_off_c, 0, 85, 100
2, 310848, Note_on_c, 0, 84, 92
2, 310940, Note_off_c, 0, 84, 100
2, 310944, Note_on_c, 0, 82, 94
2, 311036, Note_off_c, 0, 82, 100
2, 311040, Note_on_c, 0, 80, 95
2, 311132, Note_off_c, 0, 80, 100
2, 311136, Note_on_c, 0, 82, 94
2, 311228, Note_off_c, 0, 82, 100
2, 311232, Note_on_c, 0, 80, 93
2, 311324, Note_off_c, 0, 80, 100
2, 311328, Note_on_c, 0, 79, 91
2, 311420, Note_off_c, 0, 79, 100
2, 311424, Note_on_c, 0, 77, 90
2, 311516, Note_off_c, 0, 77, 100
2, 311520, Note_on_c, 0, 79, 88
2, 311612, Note_off_c, 0, 79, 100
2, 311616, Note_on_c, 0, 80, 87
2, 311708, Note_off_c, 0, 80, 100
2, 311712, Note_on_c, 0, 77, 86
2, 311804, Note_off_c, 0, 77, 100
2, 311904, Note_on_c, 0, 78, 82
2, 311996, Note_off_c, 0, 78, 100
2, 312000, Note_on_c, 0, 84, 84
2, 312092, Note_off_c, 0, 84, 100
2, 312096, Note_on_c, 0, 87, 86
2, 312188, Note_off_c, 0, 87, 100
2, 312192, Note_on_c, 0, 90, 88
2, 312284, Note_off_c, 0, 90, 100
2, 312288, Note_on_c, 0, 92, 90
2, 312380, Note_off_c, 0, 92, 100
2, 312384, Note_on_c, 0, 90, 92
2, 312476, Note_off_c, 0, 90, 100
2, 312480, Note_on_c, 0, 89, 94
2, 312572, Note_off_c, 0, 89, 100
2, 312576, Note_on_c, 0, 87, 95
2, 312668, Note_off_c, 0, 87, 100
2, 312672, Note_on_c, 0, 89, 94
2, 312764, Note_off_c, 0, 89, 100
2, 312768, Note_on_c, 0, 87, 93
2, 312860, Note_off_c, 0, 87, 100
2, 312864, Note_on_c, 0, 85, 91
2, 312956, Note_off_c, 0, 85, 100
2, 312960, Note_on_c, 0, 84, 90
2, 313052, Note_off_c, 0, 84, 100
2, 313056, Note_on_c, 0, 85, 88
2, 313148, Note_off_c, 0, 85, 100
2, 313152, Note_on_c, 0, 87, 87
2, 313244, Note_off_c, 0, 87, 100
2, 313248, Note_on_c, 0, 84, 86
2, 313340, Note_off_c, 0, 84, 100
2, 313440, Note_on_c, 0, 78, 82
2, 313532, Note_off_c, 0, 78, 100
2, 313536, Note_on_c, 0, 84, 84
2, 313628, Note_off_c, 0, 84, 100
2, 313632, Note_on_c, 0, 87, 86
2, 313724, Note_off_c, 0, 87, 100
2, 313728, Note_on_c, 0, 90, 88
2, 313820, Note_off_c, 0, 90, 100
2, 313824, Note_on_c, 0, 92, 90
2, 313916, Note_off_c, 0, 92, 100
2, 313920, Note_on_c, 0, 90, 92
2, 314012, Note_off_c, 0, 90, 100
2, 314016, Note_on_c, 0, 89, 94
2, 314108, Note_off_c, 0, 89, 100
2, 314112, Note_on_c, 0, 87, 95
2, 314204, Note_off_c, 0, 87, 100
2, 314208, Note_on_c, 0, 89, 94
2, 314300, Note_off_c, 0, 89, 100
2, 314304, Note_on_c, 0, 87, 93
2, 314396, Note_off_c, 0, 87, 100
2, 314400, Note_on_c, 0, 85, 91
2, 314492, Note_off_c, 0, 85, 100
2, 314496, Note_on_c, 0, 84, 90
2, 314588, Note_off_c, 0, 84, 100
2, 314592, Note_on_c, 0, 85, 88
2, 314684, Note_off_c, 0, 85, 100
2, 314688, Note_on_c, 0, 87, 87
2, 314780, Note_off_c, 0, 87, 100
2, 314784, Note_on_c, 0, 84, 86
2, 314876, Note_off_c, 0, 84, 100
2, 314880, Note_on_c, 0, 77, 90
2, 314972, Note_off_c, 0, 77, 100
2, 314976, Note_on_c, 0, 80, 90
2, 315068, Note_off_c, 0, 80, 100
2, 315072, Note_on_c, 0, 85, 90
2, 315164, Note_off_c, 0, 85, 100
2, 315168, Note_on_c, 0, 89, 90
2, 315260, Note_off_c, 0, 89, 100
2, 315264, Note_on_c, 0, 92, 90
2, 315356, Note_off_c, 0, 92, 100
2, 315360, Note_on_c, 0, 94, 90
2, 315452, Note_off_c, 0, 94, 100
2, 315456, Note_on_c, 0, 92, 90
2, 315548, Note_off_c, 0, 92, 100
2, 315552, Note_on_c, 0, 90, 90
2, 315644, Note_off_c, 0, 90, 100
2, 315648, Note_on_c, 0, 89, 90
2, 315740, Note_off_c, 0, 89, 100
2, 315744, Note_on_c, 0, 90, 90
2, 315836, Note_off_c, 0, 90, 100
2, 315840, Note_on_c, 0, 89, 90
2, 315932, Note_off_c, 0, 89, 100
2, 315936, Note_on_c, 0, 87, 90
2, 316028, Note_off_c, 0, 87, 100
2, 316032, Note_on_c, 0, 85, 90
2, 316124, Note_off_c, 0, 85, 100
2, 316128, Note_on_c, 0, 87, 90
2, 316220, Note_off_c, 0, 87, 100
2, 316224, Note_on_c, 0, 89, 90
2, 316316, Note_off_c, 0, 89, 100
2, 316320, Note_on_c, 0, 85, 90
2, 316412, Note_off_c, 0, 85, 100
2, 316512, Note_on_c, 0, 80, 86
2, 316604, Note_off_c, 0, 80, 100
2, 316608, Note_on_c, 0, 85, 88
2, 316700, Note_off_c, 0, 85, 100
2, 316704, Note_on_c, 0, 89, 89
2, 316796, Note_off_c, 0, 89, 100
2, 316800, Note_on_c, 0, 92, 91
2, 316892, Note_off_c, 0, 92, 100
2, 316896, Note_on_c, 0, 94, 92
2, 316988, Note_off_c, 0, 94, 100
2, 316992, Note_on_c, 0, 92, 94
2, 317084, Note_off_c, 0, 92, 100
2, 317088, Note_on_c, 0, 90, 95
2, 317180, Note_off_c, 0, 90, 100
2, 317184, Note_on_c, 0, 89, 97
2, 317276, Note_off_c, 0, 89, 100
2, 317280, Note_on_c, 0, 90, 99
2, 317372, Note_off_c, 0, 90, 100
2, 317376, Note_on_c, 0, 89, 100
2, 317468, Note_off_c, 0, 89, 100
2, 317472, Note_on_c, 0, 87, 102
2, 317564, Note_off_c, 0, 87, 100
2, 317568, Note_on_c, 0, 85, 103
2, 317660, Note_off_c, 0, 85, 100
2, 317664, Note_on_c, 0, 87, 105
2, 317756, Note_off_c, 0, 87, 100
2, 317760, Note_on_c, 0, 89, 106
2, 317852, Note_off_c, 0, 89, 100
2, 317856, Note_on_c, 0, 85, 108
2, 317948, Note_off_c, 0, 85, 100
2, 318048, Note_on_c, 0, 90, 80
2, 318140, Note_off_c, 0, 90, 100
2, 318144, Note_on_c, 0, 92, 80
2, 318236, Note_off_c, 0, 92, 100
2, 318240, Note_on_c, 0, 90, 80
2, 318332, Note_off_c, 0, 90, 100
2, 318336, Note_on_c, 0, 92, 80
2, 318428, Note_off_c, 0, 92, 100
2, 318432, Note_on_c, 0, 90, 80
2, 318524, Note_off_c, 0, 90, 100
2, 318528, Note_on_c, 0, 89, 80
2, 318620, Note_off_c, 0, 89, 100
2, 318624, Note_on_c, 0, 90, 80
2, 318716, Note_off_c, 0, 90, 100
2, 318816, Note_on_c, 0, 88, 80
2, 318908, Note_off_c, 0, 88, 100
2, 318912, Note_on_c, 0, 89, 80
2, 319004, Note_off_c, 0, 89, 100
2, 319008, Note_on_c, 0, 88, 80
2, 319100, Note_off_c, 0, 88, 100
2, 319200, Note_on_c, 0, 89, 80
2, 319292, Note_off_c, 0, 89, 100
2, 319296, Note_on_c, 0, 91, 80
2, 319388, Note_off_c, 0, 91, 100
2, 319392, Note_on_c, 0, 89, 80
2, 319484, Note_off_c, 0, 89, 100
2, 319584, Note_on_c, 0, 90, 80
2, 319676, Note_off_c, 0, 90, 100
2, 319680, Note_on_c, 0, 92, 80
2, 319772, Note_off_c, 0, 92, 100
2, 319776, Note_on_c, 0, 90, 80
2, 319868, Note_off_c, 0, 90, 100
2, 319872, Note_on_c, 0, 92, 80
2, 319964, Note_off_c, 0, 92, 100
2, 319968, Note_on_c, 0, 90, 80
2, 320060, Note_off_c, 0, 90, 100
2, 320064, Note_on_c, 0, 89, 80
2, 320156, Note_off_c, 0, 89, 100
2, 320160, Note_on_c, 0, 90, 80
2, 320252, Note_off_c, 0, 90, 100
2, 320352, Note_on_c, 0, 88, 80
2, 320444, Note_off_c, 0, 88, 100
2, 320448, Note_on_c, 0, 89, 80
2, 320540, Note_off_c, 0, 89, 100
2, 320544, Note_on_c, 0, 88, 80
2, 320636, Note_off_c, 0, 88, 100
2, 320736, Note_on_c, 0, 89, 80
2, 320828, Note_off_c, 0, 89, 100
2, 320832, Note_on_c, 0, 91, 80
2, 320924, Note_off_c, 0, 91, 100
2, 320928, Note_on_c, 0, 89, 80
2, 321020, Note_off_c, 0, 89, 100
2, 321120, Note_on_c, 0, 90, 80
2, 321212, Note_off_c, 0, 90, 100
2, 321216, Note_on_c, 0, 92, 80
2, 321308, Note_off_c, 0, 92, 100
2, 321312, Note_on_c, 0, 90, 80
2, 321404, Note_off_c, 0, 90, 100
2, 321408, Note_on_c, 0, 92, 80
2, 321500, Note_off_c, 0, 92, 100
2, 321504, Note_on_c, 0, 90, 80
2, 321596, Note_off_c, 0, 90, 100
2, 321600, Note_on_c, 0, 89, 80
2, 321692, Note_off_c, 0, 89, 100
2, 321696, Note_on_c, 0, 90, 80
2, 321788, Note_off_c, 0, 90, 100
2, 321888, Note_on_c, 0, 88, 86
2, 321980, Note_off_c, 0, 88, 100
2, 321984, Note_on_c, 0, 89, 87
2, 322076, Note_off_c, 0, 89, 100
2, 322080, Note_on_c, 0, 88, 88
2, 322172, Note_off_c, 0, 88, 100
2, 322272, Note_on_c, 0, 85, 90
2, 322364, Note_off_c, 0, 85, 100
2, 322368, Note_on_c, 0, 87, 91
2, 322460, Note_off_c, 0, 87, 100
2, 322464, Note_on_c, 0, 85, 92
2, 322556, Note_off_c, 0, 85, 100
2, 322656, Note_on_c, 0, 84, 94
2, 322748, Note_off_c, 0, 84, 100
2, 322752, Note_on_c, 0, 85, 95
2, 322844, Note_off_c, 0, 85, 100
2, 322848, Note_on_c, 0, 84, 96
2, 322940, Note_off_c, 0, 84, 100
2, 323040, Note_on_c, 0, 83, 99
2, 323132, Note_off_c, 0, 83, 100
2, 323136, Note_on_c, 0, 84, 100
2, 323228, Note_off_c, 0, 84, 100
2, 323232, Note_on_c, 0, 83, 101
2, 323324, Note_off_c, 0, 83, 100
2, 323424, Note_on_c, 0, 82, 103
2, 323516, Note_off_c, 0, 82, 100
2, 323520, Note_on_c, 0, 84, 104
2, 323612, Note_off_c, 0, 84, 100
2, 323616, Note_on_c, 0, 82, 105
2, 323708, Note_off_c, 0, 82, 100
2, 323808, Note_on_c, 0, 80, 107
2, 323900, Note_off_c, 0, 80, 100
2, 323904, Note_on_c, 0, 82, 108
2, 323996, Note_off_c, 0, 82, 100
2, 324000, Note_on_c, 0, 80, 109
2, 324092, Note_off_c, 0, 80, 100
2, 324192, Note_on_c, 0, 80, 109
2, 324284, Note_off_c, 0, 80, 100
2, 324288, Note_on_c, 0, 82, 108
2, 324380, Note_off_c, 0, 82, 100
2, 324384, Note_on_c, 0, 80, 107
2, 324476, Note_off_c, 0, 80, 100
2, 324576, Note_on_c, 0, 79, 104
2, 324668, Note_off_c, 0, 79, 100
2, 324672, Note_on_c, 0, 80, 103
2, 324764, Note_off_c, 0, 80, 100
2, 324768, Note_on_c, 0, 79, 101
2, 324860, Note_off_c, 0, 79, 100
2, 324960, Note_on_c, 0, 77, 99
2, 325052, Note_off_c, 0, 77, 100
2, 325056, Note_on_c, 0, 79, 97
2, 325148, Note_off_c, 0, 79, 100
2, 325152, Note_on_c, 0, 77, 96
2, 325244, Note_off_c, 0, 77, 100
2, 325344, Note_on_c, 0, 76, 93
2, 325436, Note_off_c, 0, 76, 100
2, 325440, Note_on_c, 0, 77, 92
2, 325532, Note_off_c, 0, 77, 100
2, 325536, Note_on_c, 0, 76, 91
2, 325628, Note_off_c, 0, 76, 100
2, 325728, Note_on_c, 0, 61, 90
2, 325824, Note_on_c, 0, 73, 90
2, 325908, Note_off_c, 0, 61, 100
2, 325920, Note_on_c, 0, 61, 91
2, 325996, Note_off_c, 0, 73, 100
2, 326016, Note_on_c, 0, 73, 91
2, 326100, Note_off_c, 0, 61, 100
2, 326112, Note_on_c, 0, 61, 92
2, 326188, Note_off_c, 0, 73, 100
2, 326208, Note_on_c, 0, 73, 92
2, 326276, Note_off_c, 0, 61, 100
2, 326304, Note_on_c, 0, 61, 93
2, 326376, Note_off_c, 0, 73, 100
2, 326396, Note_off_c, 0, 61, 100
2, 326496, Note_on_c, 0, 61, 94
2, 326588, Note_off_c, 0, 61, 100
2, 326592, Note_on_c, 0, 73, 94
2, 326684, Note_off_c, 0, 73, 100
2, 326688, Note_on_c, 0, 72, 95
2, 326780, Note_off_c, 0, 72, 100
2, 326784, Note_on_c, 0, 70, 95
2, 326876, Note_off_c, 0, 70, 100
2, 326880, Note_on_c, 0, 68, 96
2, 326972, Note_off_c, 0, 68, 100
2, 326976, Note_on_c, 0, 67, 96
2, 327068, Note_off_c, 0, 67, 100
2, 327072, Note_on_c, 0, 65, 97
2, 327164, Note_off_c, 0, 65, 100
2, 327264, Note_on_c, 0, 73, 98
2, 327360, Note_on_c, 0, 85, 98
2, 327432, Note_off_c, 0, 73, 100
2, 327456, Note_on_c, 0, 73, 99
2, 327528, Note_off_c, 0, 85, 100
2, 327552, Note_on_c, 0, 85, 99
2, 327620, Note_off_c, 0, 73, 100
2, 327648, Note_on_c, 0, 73, 99
2, 327724, Note_off_c, 0, 85, 100
2, 327744, Note_on_c, 0, 85, 100
2, 327820, Note_off_c, 0, 73, 100
2, 327840, Note_on_c, 0, 73, 100
2, 327912, Note_off_c, 0, 85, 100
2, 327932, Note_off_c, 0, 73, 100
2, 328032, Note_on_c, 0, 73, 101
2, 328124, Note_off_c, 0, 73, 100
2, 328128, Note_on_c, 0, 85, 102
2, 328220, Note_off_c, 0, 85, 100
2, 328224, Note_on_c, 0, 84, 102
2, 328316, Note_off_c, 0, 84, 100
2, 328320, Note_on_c, 0, 82, 103
2, 328412, Note_off_c, 0, 82, 100
2, 328416, Note_on_c, 0, 80, 103
2, 328508, Note_off_c, 0, 80, 100
2, 328512, Note_on_c, 0, 79, 104
2, 328604, Note_off_c, 0, 79, 100
2, 328608, Note_on_c, 0, 77, 104
2, 328700, Note_off_c, 0, 77, 100
2, 328800, Note_on_c, 0, 61, 105
2, 328896, Note_on_c, 0, 73, 106
2, 328988, Note_off_c, 0, 61, 100
2, 328992, Note_on_c, 0, 61, 106
2, 329068, Note_off_c, 0, 73, 100
2, 329088, Note_on_c, 0, 73, 107
2, 329164, Note_off_c, 0, 61, 100
2, 329184, Note_on_c, 0, 61, 107
2, 329256, Note_off_c, 0, 73, 100
2, 329280, Note_on_c, 0, 73, 108
2, 329356, Note_off_c, 0, 61, 100
2, 329376, Note_on_c, 0, 61, 108
2, 329452, Note_off_c, 0, 73, 100
2, 329468, Note_off_c, 0, 61, 100
2, 329568, Note_on_c, 0, 73, 109
2, 329664, Note_on_c, 0, 61, 109
2, 329732, Note_off_c, 0, 73, 100
2, 329760, Note_on_c, 0, 73, 110
2, 329824, Note_off_c, 0, 61, 100
2, 329924, Note_off_c, 0, 73, 100
2, 329952, Note_on_c, 0, 85, 111
2, 330048, Note_on_c, 0, 73, 111
2, 330124, Note_off_c, 0, 85, 100
2, 330144, Note_on_c, 0, 85, 112
2, 330232, Note_off_c, 0, 73, 100
2, 330316, Note_off_c, 0, 85, 100
2, 330336, Note_on_c, 0, 84, 113
2, 330432, Note_on_c, 0, 72, 113
2, 330504, Note_off_c, 0, 84, 100
2, 330528, Note_on_c, 0, 84, 114
2, 330596, Note_off_c, 0, 72, 100
2, 330692, Note_off_c, 0, 84, 100
2, 330720, Note_on_c, 0, 83, 115
2, 330816, Note_on_c, 0, 71, 115
2, 330880, Note_off_c, 0, 83, 100
2, 330912, Note_on_c, 0, 83, 116
2, 330992, Note_off_c, 0, 71, 100
2, 331076, Note_off_c, 0, 83, 100
2, 331104, Note_on_c, 0, 82, 117
2, 331200, Note_on_c, 0, 70, 117
2, 331276, Note_off_c, 0, 82, 100
2, 331296, Note_on_c, 0, 82, 118
2, 331364, Note_off_c, 0, 70, 100
2, 331460, Note_off_c, 0, 82, 100
2, 331488, Note_on_c, 0, 80, 119
2, 331584, Note_on_c, 0, 72, 119
2, 331584, Note_on_c, 0, 68, 119
2, 331664, Note_off_c, 0, 80, 100
2, 331680, Note_on_c, 0, 80, 119
2, 331756, Note_off_c, 0, 72, 100
2, 331760, Note_off_c, 0, 68, 100
2, 331844, Note_off_c, 0, 80, 100
2, 331872, Note_on_c, 0, 80, 119
2, 331968, Note_on_c, 0, 74, 118
2, 331968, Note_on_c, 0, 68, 118
2, 332040, Note_off_c, 0, 80, 100
2, 332064, Note_on_c, 0, 80, 117
2, 332128, Note_off_c, 0, 74, 100
2, 332132, Note_off_c, 0, 68, 100
2, 332228, Note_off_c, 0, 80, 100
2, 332256, Note_on_c, 0, 79, 114
2, 332352, Note_on_c, 0, 74, 113
2, 332352, Note_on_c, 0, 67, 113
2, 332420, Note_off_c, 0, 79, 100
2, 332448, Note_on_c, 0, 79, 111
2, 332520, Note_off_c, 0, 67, 100
2, 332532, Note_off_c, 0, 74, 100
2, 332624, Note_off_c, 0, 79, 100
2, 332640, Note_on_c, 0, 77, 109
2, 332736, Note_on_c, 0, 68, 107
2, 332736, Note_on_c, 0, 65, 107
2, 332824, Note_off_c, 0, 77, 100
2, 332832, Note_on_c, 0, 77, 106
2, 332904, Note_off_c, 0, 65, 100
2, 332908, Note_off_c, 0, 68, 100
2, 333012, Note_off_c, 0, 77, 100
2, 333024, Note_on_c, 0, 76, 103
2, 333120, Note_on_c, 0, 67, 102
2, 333120, Note_on_c, 0, 64, 102
2, 333188, Note_off_c, 0, 76, 100
2, 333216, Note_on_c, 0, 76, 101
2, 333288, Note_off_c, 0, 64, 100
2, 333304, Note_off_c, 0, 67, 100
2, 333308, Note_off_c, 0, 76, 100
2, 333312, Note_on_c, 0, 77, 110
2, 333312, Note_on_c, 0, 68, 110
2, 333312, Note_on_c, 0, 65, 110
2, 333404, Note_off_c, 0, 77, 100
2, 333404, Note_off_c, 0, 68, 100
2, 333404, Note_off_c, 0, 65, 100
2, 333408, Note_on_c, 0, 60, 110
2, 333500, Note_off_c, 0, 60, 100
2, 333504, Note_on_c, 0, 65, 110
2, 333596, Note_off_c, 0, 65, 100
2, 333600, Note_on_c, 0, 68, 110
2, 333692, Note_off_c, 0, 68, 100
2, 333696, Note_on_c, 0, 72, 110
2, 333788, Note_off_c, 0, 72, 100
2, 333792, Note_on_c, 0, 73, 110
2, 333884, Note_off_c, 0, 73, 100
2, 333888, Note_on_c, 0, 72, 110
2, 333980, Note_off_c, 0, 72, 100
2, 333984, Note_on_c, 0, 70, 110
2, 334076, Note_off_c, 0, 70, 100
2, 334080, Note_on_c, 0, 68, 110
2, 334172, Note_off_c, 0, 68, 100
2, 334176, Note_on_c, 0, 70, 110
2, 334268, Note_off_c, 0, 70, 100
2, 334272, Note_on_c, 0, 68, 110
2, 334364, Note_off_c, 0, 68, 100
2, 334368, Note_on_c, 0, 67, 110
2, 334460, Note_off_c, 0, 67, 100
2, 334464, Note_on_c, 0, 65, 110
2, 334556, Note_off_c, 0, 65, 100
2, 334560, Note_on_c, 0, 63, 110
2, 334652, Note_off_c, 0, 63, 100
2, 334656, Note_on_c, 0, 61, 110
2, 334748, Note_off_c, 0, 61, 100
2, 334752, Note_on_c, 0, 60, 110
2, 334844, Note_off_c, 0, 60, 100
2, 334848, Note_on_c, 0, 58, 110
2, 334940, Note_off_c, 0, 58, 100
2, 334944, Note_on_c, 0, 56, 110
2, 335036, Note_off_c, 0, 56, 100
2, 335040, Note_on_c, 0, 55, 110
2, 335132, Note_off_c, 0, 55, 100
2, 335136, Note_on_c, 0, 53, 110
2, 335228, Note_off_c, 0, 53, 100
2, 335232, Note_on_c, 0, 52, 110
2, 335420, Note_off_c, 0, 52, 100
2, 335424, Note_on_c, 0, 60, 110
2, 335424, Note_on_c, 0, 55, 110
2, 335424, Note_on_c, 0, 52, 110
2, 335424, Note_on_c, 0, 48, 110
2, 335612, Note_off_c, 0, 60, 100
2, 335612, Note_off_c, 0, 55, 100
2, 335612, Note_off_c, 0, 52, 100
2, 335612, Note_off_c, 0, 48, 100
2, 335616, Note_on_c, 0, 60, 110
2, 335616, Note_on_c, 0, 58, 110
2, 335616, Note_on_c, 0, 52, 110
2, 335616, Note_on_c, 0, 48, 110
2, 335804, Note_off_c, 0, 60, 100
2, 335804, Note_off_c, 0, 58, 100
2, 335804, Note_off_c, 0, 52, 100
2, 335804, Note_off_c, 0, 48, 100
2, 335808, Note_on_c, 0, 60, 110
2, 335808, Note_on_c, 0, 58, 110
2, 335808, Note_on_c, 0, 52, 110
2, 335808, Note_on_c, 0, 48, 110
2, 335996, Note_off_c, 0, 60, 100
2, 335996, Note_off_c, 0, 58, 100
2, 335996, Note_off_c, 0, 52, 100
2, 335996, Note_off_c, 0, 48, 100
2, 336000, Note_on_c, 0, 60, 110
2, 336000, Note_on_c, 0, 58, 110
2, 336000, Note_on_c, 0, 52, 110
2, 336000, Note_on_c, 0, 48, 110
2, 336188, Note_off_c, 0, 60, 100
2, 336188, Note_off_c, 0, 58, 100
2, 336188, Note_off_c, 0, 52, 100
2, 336188, Note_off_c, 0, 48, 100
2, 336192, Note_on_c, 0, 60, 110
2, 336192, Note_on_c, 0, 58, 110
2, 336192, Note_on_c, 0, 52, 110
2, 336192, Note_on_c, 0, 48, 110
2, 336380, Note_off_c, 0, 60, 100
2, 336380, Note_off_c, 0, 58, 100
2, 336380, Note_off_c, 0, 52, 100
2, 336380, Note_off_c, 0, 48, 100
2, 336384, Note_on_c, 0, 60, 110
2, 336384, Note_on_c, 0, 56, 110
2, 336384, Note_on_c, 0, 53, 110
2, 336384, Note_on_c, 0, 48, 110
2, 336476, Note_off_c, 0, 60, 100
2, 336476, Note_off_c, 0, 56, 100
2, 336476, Note_off_c, 0, 53, 100
2, 336476, Note_off_c, 0, 48, 100
2, 336480, Note_on_c, 0, 72, 110
2, 336572, Note_off_c, 0, 72, 100
2, 336576, Note_on_c, 0, 77, 110
2, 336668, Note_off_c, 0, 77, 100
2, 336672, Note_on_c, 0, 80, 110
2, 336764, Note_off_c, 0, 80, 100
2, 336768, Note_on_c, 0, 84, 110
2, 336860, Note_off_c, 0, 84, 100
2, 336864, Note_on_c, 0, 85, 110
2, 336956, Note_off_c, 0, 85, 100
2, 336960, Note_on_c, 0, 84, 110
2, 337052, Note_off_c, 0, 84, 100
2, 337056, Note_on_c, 0, 82, 110
2, 337148, Note_off_c, 0, 82, 100
2, 337152, Note_on_c, 0, 80, 110
2, 337244, Note_off_c, 0, 80, 100
2, 337248, Note_on_c, 0, 82, 110
2, 337340, Note_off_c, 0, 82, 100
2, 337344, Note_on_c, 0, 80, 110
2, 337436, Note_off_c, 0, 80, 100
2, 337440, Note_on_c, 0, 79, 110
2, 337532, Note_off_c, 0, 79, 100
2, 337536, Note_on_c, 0, 77, 110
2, 337628, Note_off_c, 0, 77, 100
2, 337632, Note_on_c, 0, 75, 110
2, 337724, Note_off_c, 0, 75, 100
2, 337728, Note_on_c, 0, 73, 110
2, 337820, Note_off_c, 0, 73, 100
2, 337824, Note_on_c, 0, 72, 110
2, 337916, Note_off_c, 0, 72, 100
2, 337920, Note_on_c, 0, 70, 110
2, 338012, Note_off_c, 0, 70, 100
2, 338016, Note_on_c, 0, 68, 110
2, 338108, Note_off_c, 0, 68, 100
2, 338112, Note_on_c, 0, 67, 110
2, 338204, Note_off_c, 0, 67, 100
2, 338208, Note_on_c, 0, 65, 110
2, 338300, Note_off_c, 0, 65, 100
2, 338304, Note_on_c, 0, 64, 110
2, 338492, Note_off_c, 0, 64, 100
2, 338496, Note_on_c, 0, 72, 110
2, 338496, Note_on_c, 0, 67, 110
2, 338496, Note_on_c, 0, 64, 110
2, 338496, Note_on_c, 0, 60, 110
2, 338684, Note_off_c, 0, 72, 100
2, 338684, Note_off_c, 0, 67, 100
2, 338684, Note_off_c, 0, 64, 100
2, 338684, Note_off_c, 0, 60, 100
2, 338688, Note_on_c, 0, 72, 110
2, 338688, Note_on_c, 0, 70, 110
2, 338688, Note_on_c, 0, 64, 110
2, 338688, Note_on_c, 0, 60, 110
2, 338876, Note_off_c, 0, 72, 100
2, 338876, Note_off_c, 0, 70, 100
2, 338876, Note_off_c, 0, 64, 100
2, 338876, Note_off_c, 0, 60, 100
2, 338880, Note_on_c, 0, 72, 110
2, 338880, Note_on_c, 0, 70, 110
2, 338880, Note_on_c, 0, 64, 110
2, 338880, Note_on_c, 0, 60, 110
2, 339068, Note_off_c, 0, 72, 100
2, 339068, Note_off_c, 0, 70, 100
2, 339068, Note_off_c, 0, 64, 100
2, 339068, Note_off_c, 0, 60, 100
2, 339072, Note_on_c, 0, 72, 110
2, 339072, Note_on_c, 0, 70, 110
2, 339072, Note_on_c, 0, 64, 110
2, 339072, Note_on_c, 0, 60, 110
2, 339260, Note_off_c, 0, 72, 100
2, 339260, Note_off_c, 0, 70, 100
2, 339260, Note_off_c, 0, 64, 100
2, 339260, Note_off_c, 0, 60, 100
2, 339264, Note_on_c, 0, 72, 110
2, 339264, Note_on_c, 0, 70, 110
2, 339264, Note_on_c, 0, 64, 110
2, 339264, Note_on_c, 0, 60, 110
2, 339452, Note_off_c, 0, 72, 100
2, 339452, Note_off_c, 0, 70, 100
2, 339452, Note_off_c, 0, 64, 100
2, 339452, Note_off_c, 0, 60, 100
2, 339456, Note_on_c, 0, 72, 110
2, 339456, Note_on_c, 0, 68, 110
2, 339456, Note_on_c, 0, 65, 110
2, 339456, Note_on_c, 0, 60, 110
2, 339836, Note_off_c, 0, 72, 100
2, 339836, Note_off_c, 0, 68, 100
2, 339836, Note_off_c, 0, 65, 100
2, 339836, Note_off_c, 0, 60, 100
2, 340032, Note_on_c, 0, 84, 110
2, 340032, Note_on_c, 0, 79, 110
2, 340032, Note_on_c, 0, 76, 110
2, 340032, Note_on_c, 0, 72, 110
2, 340220, Note_off_c, 0, 84, 100
2, 340220, Note_off_c, 0, 79, 100
2, 340220, Note_off_c, 0, 76, 100
2, 340220, Note_off_c, 0, 72, 100
2, 340224, Note_on_c, 0, 84, 110
2, 340224, Note_on_c, 0, 82, 110
2, 340224, Note_on_c, 0, 76, 110
2, 340224, Note_on_c, 0, 72, 110
2, 340412, Note_off_c, 0, 84, 100
2, 340412, Note_off_c, 0, 82, 100
2, 340412, Note_off_c, 0, 76, 100
2, 340412, Note_off_c, 0, 72, 100
2, 340416, Note_on_c, 0, 84, 110
2, 340416, Note_on_c, 0, 82, 110
2, 340416, Note_on_c, 0, 76, 110
2, 340416, Note_on_c, 0, 72, 110
2, 340604, Note_off_c, 0, 84, 100
2, 340604, Note_off_c, 0, 82, 100
2, 340604, Note_off_c, 0, 76, 100
2, 340604, Note_off_c, 0, 72, 100
2, 340608, Note_on_c, 0, 84, 110
2, 340608, Note_on_c, 0, 82, 110
2, 340608, Note_on_c, 0, 76, 110
2, 340608, Note_on_c, 0, 72, 110
2, 340796, Note_off_c, 0, 84, 100
2, 340796, Note_off_c, 0, 82, 100
2, 340796, Note_off_c, 0, 76, 100
2, 340796, Note_off_c, 0, 72, 100
2, 340800, Note_on_c, 0, 84, 110
2, 340800, Note_on_c, 0, 82, 110
2, 340800, Note_on_c, 0, 76, 110
2, 340800, Note_on_c, 0, 72, 110
2, 340988, Note_off_c, 0, 84, 100
2, 340988, Note_off_c, 0, 82, 100
2, 340988, Note_off_c, 0, 76, 100
2, 340988, Note_off_c, 0, 72, 100
2, 340992, Note_on_c, 0, 84, 110
2, 340992, Note_on_c, 0, 80, 110
2, 340992, Note_on_c, 0, 77, 110
2, 340992, Note_on_c, 0, 72, 110
2, 341372, Note_off_c, 0, 84, 100
2, 341372, Note_off_c, 0, 80, 100
2, 341372, Note_off_c, 0, 77, 100
2, 341372, Note_off_c, 0, 72, 100
2, 341568, Note_on_c, 0, 72, 110
2, 341568, Note_on_c, 0, 67, 110
2, 341568, Note_on_c, 0, 64, 110
2, 341568, Note_on_c, 0, 60, 110
2, 341756, Note_off_c, 0, 72, 100
2, 341756, Note_off_c, 0, 67, 100
2, 341756, Note_off_c, 0, 64, 100
2, 341756, Note_off_c, 0, 60, 100
2, 341760, Note_on_c, 0, 72, 110
2, 341760, Note_on_c, 0, 70, 110
2, 341760, Note_on_c, 0, 64, 110
2, 341760, Note_on_c, 0, 60, 110
2, 341948, Note_off_c, 0, 72, 100
2, 341948, Note_off_c, 0, 70, 100
2, 341948, Note_off_c, 0, 64, 100
2, 341948, Note_off_c, 0, 60, 100
2, 341952, Note_on_c, 0, 72, 110
2, 341952, Note_on_c, 0, 70, 110
2, 341952, Note_on_c, 0, 64, 110
2, 341952, Note_on_c, 0, 60, 110
2, 342140, Note_off_c, 0, 72, 100
2, 342140, Note_off_c, 0, 70, 100
2, 342140, Note_off_c, 0, 64, 100
2, 342140, Note_off_c, 0, 60, 100
2, 342144, Note_on_c, 0, 72, 110
2, 342144, Note_on_c, 0, 70, 110
2, 342144, Note_on_c, 0, 64, 110
2, 342144, Note_on_c, 0, 60, 110
2, 342332, Note_off_c, 0, 72, 100
2, 342332, Note_off_c, 0, 70, 100
2, 342332, Note_off_c, 0, 64, 100
2, 342332, Note_off_c, 0, 60, 100
2, 342336, Note_on_c, 0, 72, 110
2, 342336, Note_on_c, 0, 70, 110
2, 342336, Note_on_c, 0, 64, 110
2, 342336, Note_on_c, 0, 60, 110
2, 342524, Note_off_c, 0, 72, 100
2, 342524, Note_off_c, 0, 70, 100
2, 342524, Note_off_c, 0, 64, 100
2, 342524, Note_off_c, 0, 60, 100
2, 342528, Note_on_c, 0, 72, 110
2, 342528, Note_on_c, 0, 68, 110
2, 342528, Note_on_c, 0, 65, 110
2, 342528, Note_on_c, 0, 60, 110
2, 342716, Note_off_c, 0, 72, 100
2, 342716, Note_off_c, 0, 68, 100
2, 342716, Note_off_c, 0, 65, 100
2, 342716, Note_off_c, 0, 60, 100
2, 342720, Note_on_c, 0, 84, 111
2, 342720, Note_on_c, 0, 80, 111
2, 342720, Note_on_c, 0, 77, 111
2, 342720, Note_on_c, 0, 72, 111
2, 342908, Note_off_c, 0, 84, 100
2, 342908, Note_off_c, 0, 80, 100
2, 342908, Note_off_c, 0, 77, 100
2, 342908, Note_off_c, 0, 72, 100
2, 342912, Note_on_c, 0, 84, 113
2, 342912, Note_on_c, 0, 80, 113
2, 342912, Note_on_c, 0, 77, 113
2, 342912, Note_on_c, 0, 72, 113
2, 343100, Note_off_c, 0, 84, 100
2, 343100, Note_off_c, 0, 80, 100
2, 343100, Note_off_c, 0, 77, 100
2, 343100, Note_off_c, 0, 72, 100
2, 343104, Note_on_c, 0, 84, 115
2, 343104, Note_on_c, 0, 80, 115
2, 343104, Note_on_c, 0, 77, 115
2, 343104, Note_on_c, 0, 72, 115
2, 343292, Note_off_c, 0, 84, 100
2, 343292, Note_off_c, 0, 80, 100
2, 343292, Note_off_c, 0, 77, 100
2, 343292, Note_off_c, 0, 72, 100
2, 343296, Note_on_c, 0, 84, 117
2, 343296, Note_on_c, 0, 82, 117
2, 343296, Note_on_c, 0, 76, 117
2, 343296, Note_on_c, 0, 72, 117
2, 343484, Note_off_c, 0, 84, 100
2, 343484, Note_off_c, 0, 82, 100
2, 343484, Note_off_c, 0, 76, 100
2, 343484, Note_off_c, 0, 72, 100
2, 343488, Note_on_c, 0, 84, 119
2, 343488, Note_on_c, 0, 82, 119
2, 343488, Note_on_c, 0, 76, 119
2, 343488, Note_on_c, 0, 72, 119
2, 343676, Note_off_c, 0, 84, 100
2, 343676, Note_off_c, 0, 82, 100
2, 343676, Note_off_c, 0, 76, 100
2, 343676, Note_off_c, 0, 72, 100
2, 343680, Note_on_c, 0, 84, 121
2, 343680, Note_on_c, 0, 82, 121
2, 343680, Note_on_c, 0, 76, 121
2, 343680, Note_on_c, 0, 72, 121
2, 343868, Note_off_c, 0, 84, 100
2, 343868, Note_off_c, 0, 82, 100
2, 343868, Note_off_c, 0, 76, 100
2, 343868, Note_off_c, 0, 72, 100
2, 343872, Note_on_c, 0, 84, 123
2, 343872, Note_on_c, 0, 82, 123
2, 343872, Note_on_c, 0, 76, 123
2, 343872, Note_on_c, 0, 72, 123
2, 344060, Note_off_c, 0, 84, 100
2, 344060, Note_off_c, 0, 82, 100
2, 344060, Note_off_c, 0, 76, 100
2, 344060, Note_off_c, 0, 72, 100
2, 344064, Note_on_c, 0, 84, 124
2, 344064, Note_on_c, 0, 81, 124
2, 344064, Note_on_c, 0, 75, 124
2, 344064, Note_on_c, 0, 72, 124
2, 344156, Note_off_c, 0, 75, 100
2, 344156, Note_off_c, 0, 72, 100
2, 344160, Note_on_c, 0, 57, 120
2, 344252, Note_off_c, 0, 81, 100
2, 344256, Note_on_c, 0, 60, 120
2, 344348, Note_off_c, 0, 84, 100
2, 344352, Note_on_c, 0, 63, 120
2, 344448, Note_on_c, 0, 66, 120
2, 344544, Note_on_c, 0, 69, 119
2, 344636, Note_off_c, 0, 57, 100
2, 344640, Note_on_c, 0, 72, 119
2, 344732, Note_off_c, 0, 60, 100
2, 344736, Note_on_c, 0, 75, 119
2, 344828, Note_off_c, 0, 63, 100
2, 344832, Note_on_c, 0, 78, 118
2, 344924, Note_off_c, 0, 66, 100
2, 344928, Note_on_c, 0, 81, 118
2, 345020, Note_off_c, 0, 69, 100
2, 345024, Note_on_c, 0, 84, 118
2, 345116, Note_off_c, 0, 72, 100
2, 345120, Note_on_c, 0, 87, 117
2, 345212, Note_off_c, 0, 75, 100
2, 345216, Note_on_c, 0, 90, 117
2, 345308, Note_off_c, 0, 78, 100
2, 345308, Note_off_c, 0, 87, 100
2, 345312, Note_on_c, 0, 87, 117
2, 345404, Note_off_c, 0, 81, 100
2, 345404, Note_off_c, 0, 84, 100
2, 345408, Note_on_c, 0, 84, 116
2, 345504, Note_on_c, 0, 81, 116
2, 345600, Note_on_c, 0, 78, 116
2, 345692, Note_off_c, 0, 90, 100
2, 345696, Note_on_c, 0, 75, 115
2, 345788, Note_off_c, 0, 87, 100
2, 345792, Note_on_c, 0, 72, 115
2, 345884, Note_off_c, 0, 84, 100
2, 345888, Note_on_c, 0, 69, 115
2, 345980, Note_off_c, 0, 81, 100
2, 345984, Note_on_c, 0, 66, 114
2, 346076, Note_off_c, 0, 78, 100
2, 346080, Note_on_c, 0, 63, 114
2, 346172, Note_off_c, 0, 75, 100
2, 346176, Note_on_c, 0, 60, 114
2, 346268, Note_off_c, 0, 72, 100
2, 346272, Note_on_c, 0, 57, 113
2, 346364, Note_off_c, 0, 69, 100
2, 346368, Note_on_c, 0, 54, 113
2, 346460, Note_off_c, 0, 66, 100
2, 346464, Note_on_c, 0, 51, 113
2, 346556, Note_off_c, 0, 63, 100
2, 346560, Note_on_c, 0, 48, 112
2, 346652, Note_off_c, 0, 60, 100
2, 346656, Note_on_c, 0, 45, 112
2, 346748, Note_off_c, 0, 57, 100
2, 346752, Note_on_c, 0, 42, 112
2, 346844, Note_off_c, 0, 54, 100
2, 346940, Note_off_c, 0, 51, 100
2, 347036, Note_off_c, 0, 48, 100
2, 347132, Note_off_c, 0, 45, 100
2, 347228, Note_off_c, 0, 42, 100
2, 348768, Note_on_c, 0, 57, 80
2, 348860, Note_off_c, 0, 57, 100
2, 348864, Note_on_c, 0, 60, 80
2, 348956, Note_off_c, 0, 60, 100
2, 348960, Note_on_c, 0, 63, 80
2, 349052, Note_off_c, 0, 63, 100
2, 349056, Note_on_c, 0, 66, 80
2, 349148, Note_off_c, 0, 66, 100
2, 349152, Note_on_c, 0, 68, 80
2, 349244, Note_off_c, 0, 68, 100
2, 349248, Note_on_c, 0, 66, 80
2, 349340, Note_off_c, 0, 66, 100
2, 349344, Note_on_c, 0, 65, 80
2, 349436, Note_off_c, 0, 65, 100
2, 349440, Note_on_c, 0, 63, 80
2, 349532, Note_off_c, 0, 63, 100
2, 349536, Note_on_c, 0, 65, 80
2, 349628, Note_off_c, 0, 65, 100
2, 349632, Note_on_c, 0, 63, 80
2, 349724, Note_off_c, 0, 63, 100
2, 349728, Note_on_c, 0, 61, 80
2, 349820, Note_off_c, 0, 61, 100
2, 349824, Note_on_c, 0, 60, 80
2, 349916, Note_off_c, 0, 60, 100
2, 349920, Note_on_c, 0, 61, 80
2, 350012, Note_off_c, 0, 61, 100
2, 350016, Note_on_c, 0, 63, 80
2, 350108, Note_off_c, 0, 63, 100
2, 350112, Note_on_c, 0, 60, 80
2, 350204, Note_off_c, 0, 60, 100
2, 350304, Note_on_c, 0, 57, 80
2, 350396, Note_off_c, 0, 57, 100
2, 350400, Note_on_c, 0, 60, 80
2, 350492, Note_off_c, 0, 60, 100
2, 350496, Note_on_c, 0, 63, 80
2, 350588, Note_off_c, 0, 63, 100
2, 350592, Note_on_c, 0, 66, 80
2, 350684, Note_off_c, 0, 66, 100
2, 350688, Note_on_c, 0, 68, 80
2, 350780, Note_off_c, 0, 68, 100
2, 350784, Note_on_c, 0, 66, 80
2, 350876, Note_off_c, 0, 66, 100
2, 350880, Note_on_c, 0, 65, 80
2, 350972, Note_off_c, 0, 65, 100
2, 350976, Note_on_c, 0, 63, 80
2, 351068, Note_off_c, 0, 63, 100
2, 351072, Note_on_c, 0, 65, 80
2, 351164, Note_off_c, 0, 65, 100
2, 351168, Note_on_c, 0, 63, 80
2, 351260, Note_off_c, 0, 63, 100
2, 351264, Note_on_c, 0, 61, 80
2, 351356, Note_off_c, 0, 61, 100
2, 351360, Note_on_c, 0, 60, 80
2, 351452, Note_off_c, 0, 60, 100
2, 351456, Note_on_c, 0, 61, 80
2, 351548, Note_off_c, 0, 61, 100
2, 351552, Note_on_c, 0, 63, 80
2, 351644, Note_off_c, 0, 63, 100
2, 351648, Note_on_c, 0, 60, 80
2, 351740, Note_off_c, 0, 60, 100
2, 351840, Note_on_c, 0, 57, 80
2, 351932, Note_off_c, 0, 57, 100
2, 351936, Note_on_c, 0, 60, 80
2, 352028, Note_off_c, 0, 60, 100
2, 352032, Note_on_c, 0, 63, 80
2, 352124, Note_off_c, 0, 63, 100
2, 352128, Note_on_c, 0, 66, 80
2, 352220, Note_off_c, 0, 66, 100
2, 352224, Note_on_c, 0, 68, 80
2, 352316, Note_off_c, 0, 68, 100
2, 352320, Note_on_c, 0, 66, 80
2, 352412, Note_off_c, 0, 66, 100
2, 352416, Note_on_c, 0, 65, 80
2, 352508, Note_off_c, 0, 65, 100
2, 352512, Note_on_c, 0, 63, 80
2, 352700, Note_off_c, 0, 63, 100
2, 352704, Note_on_c, 0, 63, 80
2, 352796, Note_off_c, 0, 63, 100
2, 352800, Note_on_c, 0, 65, 80
2, 352892, Note_off_c, 0, 65, 100
2, 352896, Note_on_c, 0, 66, 80
2, 352988, Note_off_c, 0, 66, 100
2, 352992, Note_on_c, 0, 68, 80
2, 353084, Note_off_c, 0, 68, 100
2, 353088, Note_on_c, 0, 66, 80
2, 353180, Note_off_c, 0, 66, 100
2, 353184, Note_on_c, 0, 65, 80
2, 353276, Note_off_c, 0, 65, 100
2, 353280, Note_on_c, 0, 63, 80
2, 353468, Note_off_c, 0, 63, 100
2, 353472, Note_on_c, 0, 63, 80
2, 353564, Note_off_c, 0, 63, 100
2, 353568, Note_on_c, 0, 65, 80
2, 353660, Note_off_c, 0, 65, 100
2, 353664, Note_on_c, 0, 66, 80
2, 353756, Note_off_c, 0, 66, 100
2, 353760, Note_on_c, 0, 68, 80
2, 353852, Note_off_c, 0, 68, 100
2, 353856, Note_on_c, 0, 66, 80
2, 353948, Note_off_c, 0, 66, 100
2, 353952, Note_on_c, 0, 65, 80
2, 354044, Note_off_c, 0, 65, 100
2, 354048, Note_on_c, 0, 63, 80
2, 354236, Note_off_c, 0, 63, 100
2, 354240, Note_on_c, 0, 78, 80
2, 354240, Note_on_c, 0, 66, 80
2, 354428, Note_off_c, 0, 78, 100
2, 354428, Note_off_c, 0, 66, 100
2, 354432, Note_on_c, 0, 77, 80
2, 354432, Note_on_c, 0, 65, 80
2, 354620, Note_off_c, 0, 77, 100
2, 354620, Note_off_c, 0, 65, 100
2, 354624, Note_on_c, 0, 81, 80
2, 354624, Note_on_c, 0, 69, 80
2, 354812, Note_off_c, 0, 81, 100
2, 354812, Note_off_c, 0, 69, 100
2, 354816, Note_on_c, 0, 82, 80
2, 354816, Note_on_c, 0, 70, 80
2, 354908, Note_off_c, 0, 82, 100
2, 354908, Note_off_c, 0, 70, 100
2, 354912, Note_on_c, 0, 65, 80
2, 355004, Note_off_c, 0, 65, 100
2, 355008, Note_on_c, 0, 70, 80
2, 355100, Note_off_c, 0, 70, 100
2, 355104, Note_on_c, 0, 73, 80
2, 355196, Note_off_c, 0, 73, 100
2, 355200, Note_on_c, 0, 77, 80
2, 355292, Note_off_c, 0, 77, 100
2, 355296, Note_on_c, 0, 78, 80
2, 355388, Note_off_c, 0, 78, 100
2, 355392, Note_on_c, 0, 77, 80
2, 355484, Note_off_c, 0, 77, 100
2, 355488, Note_on_c, 0, 75, 80
2, 355580, Note_off_c, 0, 75, 100
2, 355584, Note_on_c, 0, 73, 80
2, 355676, Note_off_c, 0, 73, 100
2, 355680, Note_on_c, 0, 75, 80
2, 355772, Note_off_c, 0, 75, 100
2, 355776, Note_on_c, 0, 73, 80
2, 355868, Note_off_c, 0, 73, 100
2, 355872, Note_on_c, 0, 72, 80
2, 355964, Note_off_c, 0, 72, 100
2, 355968, Note_on_c, 0, 70, 80
2, 356060, Note_off_c, 0, 70, 100
2, 356064, Note_on_c, 0, 72, 80
2, 356156, Note_off_c, 0, 72, 100
2, 356160, Note_on_c, 0, 73, 80
2, 356252, Note_off_c, 0, 73, 100
2, 356256, Note_on_c, 0, 70, 80
2, 356348, Note_off_c, 0, 70, 100
2, 356448, Note_on_c, 0, 65, 80
2, 356540, Note_off_c, 0, 65, 100
2, 356544, Note_on_c, 0, 70, 80
2, 356636, Note_off_c, 0, 70, 100
2, 356640, Note_on_c, 0, 73, 80
2, 356732, Note_off_c, 0, 73, 100
2, 356736, Note_on_c, 0, 77, 80
2, 356828, Note_off_c, 0, 77, 100
2, 356832, Note_on_c, 0, 78, 80
2, 356924, Note_off_c, 0, 78, 100
2, 356928, Note_on_c, 0, 77, 80
2, 357020, Note_off_c, 0, 77, 100
2, 357024, Note_on_c, 0, 75, 80
2, 357116, Note_off_c, 0, 75, 100
2, 357120, Note_on_c, 0, 73, 80
2, 357212, Note_off_c, 0, 73, 100
2, 357216, Note_on_c, 0, 75, 80
2, 357308, Note_off_c, 0, 75, 100
2, 357312, Note_on_c, 0, 73, 80
2, 357404, Note_off_c, 0, 73, 100
2, 357408, Note_on_c, 0, 72, 80
2, 357500, Note_off_c, 0, 72, 100
2, 357504, Note_on_c, 0, 70, 80
2, 357596, Note_off_c, 0, 70, 100
2, 357600, Note_on_c, 0, 72, 80
2, 357692, Note_off_c, 0, 72, 100
2, 357696, Note_on_c, 0, 73, 80
2, 357788, Note_off_c, 0, 73, 100
2, 357792, Note_on_c, 0, 70, 80
2, 357884, Note_off_c, 0, 70, 100
2, 357984, Note_on_c, 0, 66, 80
2, 358076, Note_off_c, 0, 66, 100
2, 358080, Note_on_c, 0, 71, 80
2, 358172, Note_off_c, 0, 71, 100
2, 358176, Note_on_c, 0, 75, 80
2, 358268, Note_off_c, 0, 75, 100
2, 358272, Note_on_c, 0, 78, 80
2, 358364, Note_off_c, 0, 78, 100
2, 358368, Note_on_c, 0, 80, 80
2, 358460, Note_off_c, 0, 80, 100
2, 358464, Note_on_c, 0, 78, 80
2, 358556, Note_off_c, 0, 78, 100
2, 358560, Note_on_c, 0, 77, 80
2, 358652, Note_off_c, 0, 77, 100
2, 358656, Note_on_c, 0, 75, 80
2, 358748, Note_off_c, 0, 75, 100
2, 358752, Note_on_c, 0, 77, 80
2, 358844, Note_off_c, 0, 77, 100
2, 358848, Note_on_c, 0, 75, 80
2, 358940, Note_off_c, 0, 75, 100
2, 358944, Note_on_c, 0, 73, 80
2, 359036, Note_off_c, 0, 73, 100
2, 359040, Note_on_c, 0, 71, 80
2, 359132, Note_off_c, 0, 71, 100
2, 359136, Note_on_c, 0, 73, 80
2, 359228, Note_off_c, 0, 73, 100
2, 359232, Note_on_c, 0, 75, 80
2, 359324, Note_off_c, 0, 75, 100
2, 359328, Note_on_c, 0, 71, 80
2, 359420, Note_off_c, 0, 71, 100
2, 359424, Note_on_c, 0, 70, 80
2, 359516, Note_off_c, 0, 70, 100
2, 359520, Note_on_c, 0, 72, 80
2, 359612, Note_off_c, 0, 72, 100
2, 359616, Note_on_c, 0, 70, 80
2, 359708, Note_off_c, 0, 70, 100
2, 359712, Note_on_c, 0, 69, 80
2, 359804, Note_off_c, 0, 69, 100
2, 359808, Note_on_c, 0, 70, 80
2, 359900, Note_off_c, 0, 70, 100
2, 359904, Note_on_c, 0, 72, 80
2, 359996, Note_off_c, 0, 72, 100
2, 360000, Note_on_c, 0, 73, 80
2, 360092, Note_off_c, 0, 73, 100
2, 360096, Note_on_c, 0, 70, 80
2, 360188, Note_off_c, 0, 70, 100
2, 360192, Note_on_c, 0, 69, 80
2, 360284, Note_off_c, 0, 69, 100
2, 360288, Note_on_c, 0, 70, 80
2, 360380, Note_off_c, 0, 70, 100
2, 360384, Note_on_c, 0, 69, 80
2, 360476, Note_off_c, 0, 69, 100
2, 360480, Note_on_c, 0, 67, 80
2, 360572, Note_off_c, 0, 67, 100
2, 360576, Note_on_c, 0, 69, 80
2, 360668, Note_off_c, 0, 69, 100
2, 360672, Note_on_c, 0, 70, 80
2, 360764, Note_off_c, 0, 70, 100
2, 360768, Note_on_c, 0, 72, 80
2, 360860, Note_off_c, 0, 72, 100
2, 360864, Note_on_c, 0, 69, 80
2, 360956, Note_off_c, 0, 69, 100
2, 360960, Note_on_c, 0, 70, 80
2, 361148, Note_off_c, 0, 70, 100
2, 361152, Note_on_c, 0, 70, 81
2, 361244, Note_off_c, 0, 70, 100
2, 361248, Note_on_c, 0, 73, 82
2, 361340, Note_off_c, 0, 73, 100
2, 361344, Note_on_c, 0, 77, 83
2, 361436, Note_off_c, 0, 77, 100
2, 361440, Note_on_c, 0, 78, 84
2, 361532, Note_off_c, 0, 78, 100
2, 361536, Note_on_c, 0, 77, 85
2, 361628, Note_off_c, 0, 77, 100
2, 361632, Note_on_c, 0, 75, 86
2, 361724, Note_off_c, 0, 75, 100
2, 361728, Note_on_c, 0, 73, 87
2, 361820, Note_off_c, 0, 73, 100
2, 361824, Note_on_c, 0, 75, 88
2, 361916, Note_off_c, 0, 75, 100
2, 361920, Note_on_c, 0, 73, 89
2, 362012, Note_off_c, 0, 73, 100
2, 362016, Note_on_c, 0, 72, 90
2, 362108, Note_off_c, 0, 72, 100
2, 362112, Note_on_c, 0, 70, 91
2, 362112, Note_on_c, 0, 82, 91
2, 362204, Note_off_c, 0, 70, 100
2, 362208, Note_on_c, 0, 72, 92
2, 362300, Note_off_c, 0, 72, 100
2, 362304, Note_on_c, 0, 73, 93
2, 362396, Note_off_c, 0, 73, 100
2, 362400, Note_on_c, 0, 70, 94
2, 362492, Note_off_c, 0, 82, 100
2, 362492, Note_off_c, 0, 70, 100
2, 362496, Note_on_c, 0, 81, 95
2, 362688, Note_on_c, 0, 70, 97
2, 362780, Note_off_c, 0, 70, 100
2, 362784, Note_on_c, 0, 73, 98
2, 362876, Note_off_c, 0, 81, 100
2, 362876, Note_off_c, 0, 73, 100
2, 362880, Note_on_c, 0, 82, 99
2, 362880, Note_on_c, 0, 77, 99
2, 362972, Note_off_c, 0, 77, 100
2, 362976, Note_on_c, 0, 78, 100
2, 363068, Note_off_c, 0, 78, 100
2, 363072, Note_on_c, 0, 77, 101
2, 363164, Note_off_c, 0, 77, 100
2, 363168, Note_on_c, 0, 75, 102
2, 363260, Note_off_c, 0, 82, 100
2, 363260, Note_off_c, 0, 75, 100
2, 363264, Note_on_c, 0, 73, 103
2, 363356, Note_off_c, 0, 73, 100
2, 363360, Note_on_c, 0, 75, 104
2, 363452, Note_off_c, 0, 75, 100
2, 363456, Note_on_c, 0, 73, 105
2, 363548, Note_off_c, 0, 73, 100
2, 363552, Note_on_c, 0, 72, 106
2, 363644, Note_off_c, 0, 72, 100
2, 363648, Note_on_c, 0, 70, 107
2, 363648, Note_on_c, 0, 82, 107
2, 363740, Note_off_c, 0, 70, 100
2, 363744, Note_on_c, 0, 72, 108
2, 363836, Note_off_c, 0, 72, 100
2, 363840, Note_on_c, 0, 73, 108
2, 363932, Note_off_c, 0, 73, 100
2, 363936, Note_on_c, 0, 70, 109
2, 364028, Note_off_c, 0, 82, 100
2, 364028, Note_off_c, 0, 70, 100
2, 364032, Note_on_c, 0, 83, 110
2, 364032, Note_on_c, 0, 71, 110
2, 364128, Note_on_c, 0, 78, 110
2, 364208, Note_off_c, 0, 83, 100
2, 364208, Note_off_c, 0, 71, 100
2, 364224, Note_on_c, 0, 83, 110
2, 364300, Note_off_c, 0, 78, 100
2, 364320, Note_on_c, 0, 87, 110
2, 364404, Note_off_c, 0, 83, 100
2, 364416, Note_on_c, 0, 90, 110
2, 364500, Note_off_c, 0, 87, 100
2, 364512, Note_on_c, 0, 92, 110
2, 364576, Note_off_c, 0, 90, 100
2, 364608, Note_on_c, 0, 90, 110
2, 364680, Note_off_c, 0, 92, 100
2, 364704, Note_on_c, 0, 89, 110
2, 364776, Note_off_c, 0, 90, 100
2, 364800, Note_on_c, 0, 87, 110
2, 364892, Note_off_c, 0, 89, 64
2, 364896, Note_on_c, 0, 89, 110
2, 364976, Note_off_c, 0, 87, 100
2, 364992, Note_on_c, 0, 87, 110
2, 365076, Note_off_c, 0, 89, 100
2, 365088, Note_on_c, 0, 85, 110
2, 365164, Note_off_c, 0, 87, 100
2, 365184, Note_on_c, 0, 83, 110
2, 365248, Note_off_c, 0, 85, 100
2, 365280, Note_on_c, 0, 85, 110
2, 365360, Note_off_c, 0, 83, 100
2, 365376, Note_on_c, 0, 83, 110
2, 365456, Note_off_c, 0, 85, 100
2, 365472, Note_on_c, 0, 82, 110
2, 365556, Note_off_c, 0, 83, 100
2, 365568, Note_on_c, 0, 81, 110
2, 365632, Note_off_c, 0, 82, 64
2, 365664, Note_on_c, 0, 84, 110
2, 365748, Note_off_c, 0, 81, 100
2, 365760, Note_on_c, 0, 87, 110
2, 365840, Note_off_c, 0, 84, 100
2, 365856, Note_on_c, 0, 85, 110
2, 365948, Note_off_c, 0, 87, 100
2, 365952, Note_on_c, 0, 84, 110
2, 366028, Note_off_c, 0, 85, 100
2, 366048, Note_on_c, 0, 85, 110
2, 366128, Note_off_c, 0, 84, 100
2, 366144, Note_on_c, 0, 84, 110
2, 366220, Note_off_c, 0, 85, 100
2, 366240, Note_on_c, 0, 82, 110
2, 366312, Note_off_c, 0, 84, 100
2, 366336, Note_on_c, 0, 81, 110
2, 366416, Note_off_c, 0, 82, 64
2, 366432, Note_on_c, 0, 82, 110
2, 366512, Note_off_c, 0, 81, 100
2, 366528, Note_on_c, 0, 81, 110
2, 366596, Note_off_c, 0, 82, 100
2, 366624, Note_on_c, 0, 78, 110
2, 366700, Note_off_c, 0, 81, 100
2, 366720, Note_on_c, 0, 77, 110
2, 366800, Note_off_c, 0, 78, 100
2, 366816, Note_on_c, 0, 75, 110
2, 366888, Note_off_c, 0, 77, 100
2, 366912, Note_on_c, 0, 73, 110
2, 366980, Note_off_c, 0, 75, 100
2, 367008, Note_on_c, 0, 72, 110
2, 367076, Note_off_c, 0, 73, 100
2, 367100, Note_off_c, 0, 72, 100
2, 367104, Note_on_c, 0, 70, 110
2, 367292, Note_off_c, 0, 70, 100
2, 367296, Note_on_c, 0, 77, 101
2, 367676, Note_off_c, 0, 77, 100
2, 367680, Note_on_c, 0, 77, 80
2, 367868, Note_off_c, 0, 77, 100
2, 367872, Note_on_c, 0, 77, 80
2, 368060, Note_off_c, 0, 77, 100
2, 368064, Note_on_c, 0, 78, 104
2, 368444, Note_off_c, 0, 78, 100
2, 368448, Note_on_c, 0, 78, 80
2, 368636, Note_off_c, 0, 78, 100
2, 368640, Note_on_c, 0, 78, 80
2, 368828, Note_off_c, 0, 78, 100
2, 368832, Note_on_c, 0, 77, 101
2, 369212, Note_off_c, 0, 77, 100
2, 369216, Note_on_c, 0, 77, 80
2, 369404, Note_off_c, 0, 77, 100
2, 369408, Note_on_c, 0, 77, 80
2, 369596, Note_off_c, 0, 77, 100
2, 369600, Note_on_c, 0, 72, 80
2, 369788, Note_off_c, 0, 72, 100
2, 369792, Note_on_c, 0, 73, 80
2, 369980, Note_off_c, 0, 73, 100
2, 369984, Note_on_c, 0, 75, 80
2, 370172, Note_off_c, 0, 75, 100
2, 370176, Note_on_c, 0, 73, 80
2, 370364, Note_off_c, 0, 73, 100
2, 370368, Note_on_c, 0, 89, 120
2, 370368, Note_on_c, 0, 77, 120
2, 370748, Note_off_c, 0, 89, 100
2, 370748, Note_off_c, 0, 77, 100
2, 370752, Note_on_c, 0, 89, 110
2, 370752, Note_on_c, 0, 77, 110
2, 370940, Note_off_c, 0, 89, 100
2, 370940, Note_off_c, 0, 77, 100
2, 370944, Note_on_c, 0, 89, 110
2, 370944, Note_on_c, 0, 77, 110
2, 371132, Note_off_c, 0, 89, 100
2, 371132, Note_off_c, 0, 77, 100
2, 371136, Note_on_c, 0, 90, 120
2, 371136, Note_on_c, 0, 78, 120
2, 371516, Note_off_c, 0, 90, 100
2, 371516, Note_off_c, 0, 78, 100
2, 371520, Note_on_c, 0, 90, 110
2, 371520, Note_on_c, 0, 78, 110
2, 371708, Note_off_c, 0, 90, 100
2, 371708, Note_off_c, 0, 78, 100
2, 371712, Note_on_c, 0, 90, 110
2, 371712, Note_on_c, 0, 78, 110
2, 371900, Note_off_c, 0, 90, 100
2, 371900, Note_off_c, 0, 78, 100
2, 371904, Note_on_c, 0, 89, 120
2, 371904, Note_on_c, 0, 77, 120
2, 372284, Note_off_c, 0, 89, 100
2, 372284, Note_off_c, 0, 77, 100
2, 372288, Note_on_c, 0, 89, 110
2, 372288, Note_on_c, 0, 77, 110
2, 372476, Note_off_c, 0, 89, 100
2, 372476, Note_off_c, 0, 77, 100
2, 372480, Note_on_c, 0, 89, 110
2, 372480, Note_on_c, 0, 77, 110
2, 372668, Note_off_c, 0, 89, 100
2, 372668, Note_off_c, 0, 77, 100
2, 372672, Note_on_c, 0, 84, 110
2, 372672, Note_on_c, 0, 72, 110
2, 372860, Note_off_c, 0, 84, 100
2, 372860, Note_off_c, 0, 72, 100
2, 372864, Note_on_c, 0, 85, 110
2, 372864, Note_on_c, 0, 73, 110
2, 373052, Note_off_c, 0, 85, 100
2, 373052, Note_off_c, 0, 73, 100
2, 373056, Note_on_c, 0, 87, 110
2, 373056, Note_on_c, 0, 75, 110
2, 373244, Note_off_c, 0, 87, 100
2, 373244, Note_off_c, 0, 75, 100
2, 373248, Note_on_c, 0, 85, 110
2, 373248, Note_on_c, 0, 73, 110
2, 373436, Note_off_c, 0, 85, 100
2, 373436, Note_off_c, 0, 73, 100
2, 373440, Note_on_c, 0, 72, 100
2, 373820, Note_off_c, 0, 72, 100
2, 373824, Note_on_c, 0, 72, 80
2, 374012, Note_off_c, 0, 72, 100
2, 374016, Note_on_c, 0, 72, 80
2, 374204, Note_off_c, 0, 72, 100
2, 374208, Note_on_c, 0, 71, 100
2, 374588, Note_off_c, 0, 71, 100
2, 374592, Note_on_c, 0, 71, 80
2, 374780, Note_off_c, 0, 71, 100
2, 374784, Note_on_c, 0, 71, 80
2, 374972, Note_off_c, 0, 71, 100
2, 374976, Note_on_c, 0, 72, 100
2, 375356, Note_off_c, 0, 72, 100
2, 375360, Note_on_c, 0, 72, 80
2, 375548, Note_off_c, 0, 72, 100
2, 375552, Note_on_c, 0, 72, 80
2, 375740, Note_off_c, 0, 72, 100
2, 375744, Note_on_c, 0, 67, 80
2, 375932, Note_off_c, 0, 67, 100
2, 375936, Note_on_c, 0, 68, 80
2, 376124, Note_off_c, 0, 68, 100
2, 376128, Note_on_c, 0, 70, 80
2, 376316, Note_off_c, 0, 70, 100
2, 376320, Note_on_c, 0, 68, 80
2, 376508, Note_off_c, 0, 68, 100
2, 376512, Note_on_c, 0, 84, 120
2, 376512, Note_on_c, 0, 72, 120
2, 376892, Note_off_c, 0, 84, 100
2, 376892, Note_off_c, 0, 72, 100
2, 376896, Note_on_c, 0, 84, 110
2, 376896, Note_on_c, 0, 72, 110
2, 377084, Note_off_c, 0, 84, 100
2, 377084, Note_off_c, 0, 72, 100
2, 377088, Note_on_c, 0, 84, 110
2, 377088, Note_on_c, 0, 72, 110
2, 377276, Note_off_c, 0, 84, 100
2, 377276, Note_off_c, 0, 72, 100
2, 377280, Note_on_c, 0, 83, 120
2, 377280, Note_on_c, 0, 71, 120
2, 377660, Note_off_c, 0, 83, 100
2, 377660, Note_off_c, 0, 71, 100
2, 377664, Note_on_c, 0, 83, 110
2, 377664, Note_on_c, 0, 71, 110
2, 377852, Note_off_c, 0, 83, 100
2, 377852, Note_off_c, 0, 71, 100
2, 377856, Note_on_c, 0, 83, 110
2, 377856, Note_on_c, 0, 71, 110
2, 378044, Note_off_c, 0, 83, 100
2, 378044, Note_off_c, 0, 71, 100
2, 378048, Note_on_c, 0, 84, 120
2, 378048, Note_on_c, 0, 72, 120
2, 378428, Note_off_c, 0, 84, 100
2, 378428, Note_off_c, 0, 72, 100
2, 378432, Note_on_c, 0, 84, 110
2, 378432, Note_on_c, 0, 72, 110
2, 378620, Note_off_c, 0, 84, 100
2, 378620, Note_off_c, 0, 72, 100
2, 378624, Note_on_c, 0, 84, 110
2, 378624, Note_on_c, 0, 72, 110
2, 378812, Note_off_c, 0, 84, 100
2, 378812, Note_off_c, 0, 72, 100
2, 378816, Note_on_c, 0, 79, 110
2, 378816, Note_on_c, 0, 67, 110
2, 379004, Note_off_c, 0, 79, 100
2, 379004, Note_off_c, 0, 67, 100
2, 379008, Note_on_c, 0, 80, 110
2, 379008, Note_on_c, 0, 68, 110
2, 379196, Note_off_c, 0, 80, 100
2, 379196, Note_off_c, 0, 68, 100
2, 379200, Note_on_c, 0, 82, 110
2, 379200, Note_on_c, 0, 70, 110
2, 379388, Note_off_c, 0, 82, 100
2, 379388, Note_off_c, 0, 70, 100
2, 379392, Note_on_c, 0, 80, 110
2, 379392, Note_on_c, 0, 68, 110
2, 379488, Note_on_c, 0, 60, 110
2, 379580, Note_off_c, 0, 80, 100
2, 379580, Note_off_c, 0, 68, 100
2, 379580, Note_off_c, 0, 60, 100
2, 379584, Note_on_c, 0, 65, 110
2, 379676, Note_off_c, 0, 65, 100
2, 379680, Note_on_c, 0, 68, 110
2, 379772, Note_off_c, 0, 68, 100
2, 379776, Note_on_c, 0, 72, 110
2, 379868, Note_off_c, 0, 72, 100
2, 379872, Note_on_c, 0, 73, 110
2, 379964, Note_off_c, 0, 73, 100
2, 379968, Note_on_c, 0, 72, 110
2, 380060, Note_off_c, 0, 72, 100
2, 380064, Note_on_c, 0, 70, 110
2, 380156, Note_off_c, 0, 70, 100
2, 380160, Note_on_c, 0, 68, 110
2, 380252, Note_off_c, 0, 68, 100
2, 380256, Note_on_c, 0, 70, 110
2, 380348, Note_off_c, 0, 70, 100
2, 380352, Note_on_c, 0, 68, 110
2, 380444, Note_off_c, 0, 68, 100
2, 380448, Note_on_c, 0, 67, 110
2, 380540, Note_off_c, 0, 67, 100
2, 380544, Note_on_c, 0, 65, 110
2, 380636, Note_off_c, 0, 65, 100
2, 380640, Note_on_c, 0, 67, 110
2, 380732, Note_off_c, 0, 67, 100
2, 380736, Note_on_c, 0, 68, 110
2, 380828, Note_off_c, 0, 68, 100
2, 380832, Note_on_c, 0, 65, 110
2, 380924, Note_off_c, 0, 65, 100
2, 380928, Note_on_c, 0, 66, 110
2, 381020, Note_off_c, 0, 66, 100
2, 381024, Note_on_c, 0, 61, 110
2, 381116, Note_off_c, 0, 61, 100
2, 381120, Note_on_c, 0, 66, 110
2, 381212, Note_off_c, 0, 66, 100
2, 381216, Note_on_c, 0, 70, 110
2, 381308, Note_off_c, 0, 70, 100
2, 381312, Note_on_c, 0, 73, 110
2, 381404, Note_off_c, 0, 73, 100
2, 381408, Note_on_c, 0, 75, 110
2, 381500, Note_off_c, 0, 75, 100
2, 381504, Note_on_c, 0, 73, 110
2, 381596, Note_off_c, 0, 73, 100
2, 381600, Note_on_c, 0, 72, 110
2, 381692, Note_off_c, 0, 72, 100
2, 381696, Note_on_c, 0, 70, 110
2, 381788, Note_off_c, 0, 70, 100
2, 381792, Note_on_c, 0, 72, 110
2, 381884, Note_off_c, 0, 72, 100
2, 381888, Note_on_c, 0, 70, 110
2, 381980, Note_off_c, 0, 70, 100
2, 381984, Note_on_c, 0, 68, 110
2, 382076, Note_off_c, 0, 68, 100
2, 382080, Note_on_c, 0, 66, 110
2, 382172, Note_off_c, 0, 66, 100
2, 382176, Note_on_c, 0, 68, 110
2, 382268, Note_off_c, 0, 68, 100
2, 382272, Note_on_c, 0, 70, 110
2, 382364, Note_off_c, 0, 70, 100
2, 382368, Note_on_c, 0, 66, 110
2, 382460, Note_off_c, 0, 66, 100
2, 382464, Note_on_c, 0, 69, 110
2, 382556, Note_off_c, 0, 69, 100
2, 382560, Note_on_c, 0, 63, 110
2, 382652, Note_off_c, 0, 63, 100
2, 382656, Note_on_c, 0, 69, 110
2, 382748, Note_off_c, 0, 69, 100
2, 382752, Note_on_c, 0, 72, 110
2, 382844, Note_off_c, 0, 72, 100
2, 382848, Note_on_c, 0, 75, 110
2, 382940, Note_off_c, 0, 75, 100
2, 382944, Note_on_c, 0, 77, 110
2, 383036, Note_off_c, 0, 77, 100
2, 383040, Note_on_c, 0, 75, 110
2, 383132, Note_off_c, 0, 75, 100
2, 383136, Note_on_c, 0, 73, 110
2, 383228, Note_off_c, 0, 73, 100
2, 383232, Note_on_c, 0, 72, 110
2, 383324, Note_off_c, 0, 72, 100
2, 383328, Note_on_c, 0, 73, 110
2, 383420, Note_off_c, 0, 73, 100
2, 383424, Note_on_c, 0, 72, 110
2, 383516, Note_off_c, 0, 72, 100
2, 383520, Note_on_c, 0, 70, 110
2, 383612, Note_off_c, 0, 70, 100
2, 383616, Note_on_c, 0, 69, 110
2, 383708, Note_off_c, 0, 69, 100
2, 383712, Note_on_c, 0, 70, 110
2, 383804, Note_off_c, 0, 70, 100
2, 383808, Note_on_c, 0, 72, 110
2, 383900, Note_off_c, 0, 72, 100
2, 383904, Note_on_c, 0, 69, 110
2, 383996, Note_off_c, 0, 69, 100
2, 384000, Note_on_c, 0, 70, 120
2, 384092, Note_off_c, 0, 70, 100
2, 384096, Note_on_c, 0, 65, 120
2, 384188, Note_off_c, 0, 65, 100
2, 384192, Note_on_c, 0, 70, 120
2, 384284, Note_off_c, 0, 70, 100
2, 384288, Note_on_c, 0, 73, 120
2, 384380, Note_off_c, 0, 73, 100
2, 384384, Note_on_c, 0, 77, 120
2, 384476, Note_off_c, 0, 77, 100
2, 384480, Note_on_c, 0, 78, 120
2, 384572, Note_off_c, 0, 78, 100
2, 384576, Note_on_c, 0, 77, 120
2, 384668, Note_off_c, 0, 77, 100
2, 384672, Note_on_c, 0, 75, 120
2, 384764, Note_off_c, 0, 75, 100
2, 384768, Note_on_c, 0, 73, 120
2, 384860, Note_off_c, 0, 73, 100
2, 384864, Note_on_c, 0, 72, 120
2, 384956, Note_off_c, 0, 72, 100
2, 384960, Note_on_c, 0, 70, 120
2, 385052, Note_off_c, 0, 70, 100
2, 385056, Note_on_c, 0, 68, 120
2, 385148, Note_off_c, 0, 68, 100
2, 385152, Note_on_c, 0, 66, 120
2, 385244, Note_off_c, 0, 66, 100
2, 385248, Note_on_c, 0, 65, 120
2, 385340, Note_off_c, 0, 65, 100
2, 385344, Note_on_c, 0, 63, 120
2, 385436, Note_off_c, 0, 63, 100
2, 385440, Note_on_c, 0, 61, 120
2, 385532, Note_off_c, 0, 61, 100
2, 385536, Note_on_c, 0, 60, 120
2, 385628, Note_off_c, 0, 60, 100
2, 385632, Note_on_c, 0, 58, 120
2, 385724, Note_off_c, 0, 58, 100
2, 385728, Note_on_c, 0, 56, 120
2, 385820, Note_off_c, 0, 56, 100
2, 385824, Note_on_c, 0, 54, 120
2, 385916, Note_off_c, 0, 54, 100
2, 385920, Note_on_c, 0, 53, 120
2, 386012, Note_off_c, 0, 53, 100
2, 386016, Note_on_c, 0, 51, 120
2, 386108, Note_off_c, 0, 51, 100
2, 386112, Note_on_c, 0, 49, 120
2, 386204, Note_off_c, 0, 49, 100
2, 386208, Note_on_c, 0, 48, 120
2, 386300, Note_off_c, 0, 48, 100
2, 386304, Note_on_c, 0, 46, 120
2, 386396, Note_off_c, 0, 46, 100
2, 386400, Note_on_c, 0, 48, 120
2, 386492, Note_off_c, 0, 48, 100
2, 386496, Note_on_c, 0, 49, 120
2, 386588, Note_off_c, 0, 49, 100
2, 386592, Note_on_c, 0, 48, 120
2, 386684, Note_off_c, 0, 48, 100
2, 386688, Note_on_c, 0, 46, 120
2, 386876, Note_off_c, 0, 46, 100
2, 386880, Note_on_c, 0, 56, 120
2, 386880, Note_on_c, 0, 53, 120
2, 386880, Note_on_c, 0, 50, 120
2, 386880, Note_on_c, 0, 47, 120
2, 387068, Note_off_c, 0, 56, 100
2, 387068, Note_off_c, 0, 53, 100
2, 387068, Note_off_c, 0, 50, 100
2, 387068, Note_off_c, 0, 47, 100
2, 387072, Note_on_c, 0, 55, 110
2, 387072, Note_on_c, 0, 52, 110
2, 387072, Note_on_c, 0, 48, 110
2, 387164, Note_off_c, 0, 55, 100
2, 387164, Note_off_c, 0, 52, 100
2, 387164, Note_off_c, 0, 48, 100
2, 387168, Note_on_c, 0, 60, 110
2, 387168, Note_on_c, 0, 48, 110
2, 387348, Note_off_c, 0, 60, 100
2, 387348, Note_off_c, 0, 48, 100
2, 387360, Note_on_c, 0, 60, 110
2, 387360, Note_on_c, 0, 48, 110
2, 387532, Note_off_c, 0, 60, 100
2, 387532, Note_off_c, 0, 48, 100
2, 387552, Note_on_c, 0, 60, 110
2, 387552, Note_on_c, 0, 48, 110
2, 387720, Note_off_c, 0, 60, 100
2, 387736, Note_off_c, 0, 48, 100
2, 387744, Note_on_c, 0, 48, 111
2, 387744, Note_on_c, 0, 60, 111
2, 387920, Note_off_c, 0, 48, 100
2, 387932, Note_off_c, 0, 60, 100
2, 387936, Note_on_c, 0, 60, 111
2, 387936, Note_on_c, 0, 48, 111
2, 388104, Note_off_c, 0, 48, 100
2, 388116, Note_off_c, 0, 60, 100
2, 388128, Note_on_c, 0, 60, 111
2, 388128, Note_on_c, 0, 48, 111
2, 388292, Note_off_c, 0, 48, 100
2, 388296, Note_off_c, 0, 60, 100
2, 388320, Note_on_c, 0, 60, 112
2, 388320, Note_on_c, 0, 48, 112
2, 388492, Note_off_c, 0, 48, 100
2, 388504, Note_off_c, 0, 60, 100
2, 388512, Note_on_c, 0, 60, 112
2, 388512, Note_on_c, 0, 48, 112
2, 388604, Note_off_c, 0, 60, 100
2, 388604, Note_off_c, 0, 48, 100
2, 388704, Note_on_c, 0, 72, 112
2, 388704, Note_on_c, 0, 60, 112
2, 388876, Note_off_c, 0, 72, 100
2, 388880, Note_off_c, 0, 60, 100
2, 388896, Note_on_c, 0, 72, 113
2, 388896, Note_on_c, 0, 60, 113
2, 389072, Note_off_c, 0, 72, 100
2, 389076, Note_off_c, 0, 60, 100
2, 389088, Note_on_c, 0, 72, 113
2, 389088, Note_on_c, 0, 60, 113
2, 389248, Note_off_c, 0, 60, 100
2, 389260, Note_off_c, 0, 72, 100
2, 389280, Note_on_c, 0, 72, 113
2, 389280, Note_on_c, 0, 60, 113
2, 389440, Note_off_c, 0, 72, 100
2, 389456, Note_off_c, 0, 60, 100
2, 389472, Note_on_c, 0, 72, 113
2, 389472, Note_on_c, 0, 60, 113
2, 389632, Note_off_c, 0, 60, 100
2, 389660, Note_off_c, 0, 72, 100
2, 389664, Note_on_c, 0, 72, 114
2, 389664, Note_on_c, 0, 60, 114
2, 389832, Note_off_c, 0, 60, 100
2, 389840, Note_off_c, 0, 72, 100
2, 389856, Note_on_c, 0, 72, 114
2, 389856, Note_on_c, 0, 60, 114
2, 390028, Note_off_c, 0, 60, 100
2, 390044, Note_off_c, 0, 72, 100
2, 390048, Note_on_c, 0, 72, 114
2, 390048, Note_on_c, 0, 60, 114
2, 390140, Note_off_c, 0, 72, 100
2, 390140, Note_off_c, 0, 60, 100
2, 390240, Note_on_c, 0, 84, 115
2, 390240, Note_on_c, 0, 72, 115
2, 390412, Note_off_c, 0, 84, 100
2, 390416, Note_off_c, 0, 72, 100
2, 390432, Note_on_c, 0, 84, 115
2, 390432, Note_on_c, 0, 72, 115
2, 390600, Note_off_c, 0, 84, 100
2, 390604, Note_off_c, 0, 72, 100
2, 390624, Note_on_c, 0, 84, 115
2, 390624, Note_on_c, 0, 72, 115
2, 390800, Note_off_c, 0, 84, 100
2, 390800, Note_off_c, 0, 72, 100
2, 390816, Note_on_c, 0, 72, 116
2, 390816, Note_on_c, 0, 84, 116
2, 390980, Note_off_c, 0, 84, 100
2, 390992, Note_off_c, 0, 72, 100
2, 391008, Note_on_c, 0, 84, 116
2, 391008, Note_on_c, 0, 72, 116
2, 391180, Note_off_c, 0, 72, 100
2, 391184, Note_off_c, 0, 84, 100
2, 391200, Note_on_c, 0, 84, 116
2, 391200, Note_on_c, 0, 72, 116
2, 391364, Note_off_c, 0, 84, 100
2, 391372, Note_off_c, 0, 72, 100
2, 391392, Note_on_c, 0, 84, 117
2, 391392, Note_on_c, 0, 72, 117
2, 391552, Note_off_c, 0, 84, 100
2, 391552, Note_off_c, 0, 72, 100
2, 391584, Note_on_c, 0, 84, 117
2, 391584, Note_on_c, 0, 72, 117
2, 391676, Note_off_c, 0, 84, 100
2, 391676, Note_off_c, 0, 72, 100
2, 391776, Note_on_c, 0, 96, 117
2, 391776, Note_on_c, 0, 84, 117
2, 391940, Note_off_c, 0, 96, 100
2, 391952, Note_off_c, 0, 84, 100
2, 391968, Note_on_c, 0, 96, 118
2, 391968, Note_on_c, 0, 84, 118
2, 392132, Note_off_c, 0, 96, 99
2, 392148, Note_off_c, 0, 84, 99
2, 392160, Note_on_c, 0, 96, 118
2, 392160, Note_on_c, 0, 84, 118
2, 392336, Note_off_c, 0, 96, 100
2, 392336, Note_off_c, 0, 84, 100
2, 392352, Note_on_c, 0, 96, 118
2, 392352, Note_on_c, 0, 84, 118
2, 392512, Note_off_c, 0, 96, 64
2, 392520, Note_off_c, 0, 84, 64
2, 392544, Note_on_c, 0, 96, 119
2, 392544, Note_on_c, 0, 84, 119
2, 392720, Note_off_c, 0, 84, 100
2, 392732, Note_off_c, 0, 96, 100
2, 392736, Note_on_c, 0, 96, 119
2, 392736, Note_on_c, 0, 84, 119
2, 392896, Note_off_c, 0, 96, 100
2, 392920, Note_off_c, 0, 84, 100
2, 392928, Note_on_c, 0, 96, 119
2, 392928, Note_on_c, 0, 84, 119
2, 393100, Note_off_c, 0, 96, 100
2, 393100, Note_off_c, 0, 84, 100
2, 393120, Note_on_c, 0, 96, 119
2, 393120, Note_on_c, 0, 84, 119
2, 393212, Note_off_c, 0, 96, 100
2, 393212, Note_off_c, 0, 84, 100
2, 393216, Control_c, 0, 64, 127
2, 393312, Note_on_c, 0, 49, 120
2, 393408, Note_on_c, 0, 54, 120
2, 393504, Note_on_c, 0, 58, 120
2, 393600, Note_on_c, 0, 61, 120
2, 393788, Note_off_c, 0, 49, 100
2, 393884, Note_off_c, 0, 54, 100
2, 393980, Note_off_c, 0, 58, 100
2, 394076, Note_off_c, 0, 61, 64
2, 394080, Note_on_c, 0, 61, 120
2, 394176, Note_on_c, 0, 66, 120
2, 394272, Note_on_c, 0, 70, 120
2, 394368, Note_on_c, 0, 73, 120
2, 394556, Note_off_c, 0, 61, 100
2, 394652, Note_off_c, 0, 66, 100
2, 394748, Note_off_c, 0, 70, 100
2, 394844, Note_off_c, 0, 73, 64
2, 394848, Note_on_c, 0, 73, 120
2, 394944, Note_on_c, 0, 78, 120
2, 395040, Note_on_c, 0, 82, 120
2, 395136, Note_on_c, 0, 85, 120
2, 395512, Control_c, 0, 64, 0
2, 395516, Note_off_c, 0, 73, 100
2, 395516, Note_off_c, 0, 78, 100
2, 395516, Note_off_c, 0, 82, 100
2, 395516, Note_off_c, 0, 85, 100
2, 396288, Control_c, 0, 64, 127
2, 396384, Note_on_c, 0, 52, 120
2, 396480, Note_on_c, 0, 55, 120
2, 396576, Note_on_c, 0, 58, 120
2, 396672, Note_on_c, 0, 64, 120
2, 396860, Note_off_c, 0, 52, 100
2, 396956, Note_off_c, 0, 55, 100
2, 397052, Note_off_c, 0, 58, 100
2, 397148, Note_off_c, 0, 64, 64
2, 397152, Note_on_c, 0, 64, 120
2, 397248, Note_on_c, 0, 67, 120
2, 397344, Note_on_c, 0, 70, 120
2, 397440, Note_on_c, 0, 76, 120
2, 397628, Note_off_c, 0, 64, 100
2, 397724, Note_off_c, 0, 67, 100
2, 397820, Note_off_c, 0, 70, 100
2, 397916, Note_off_c, 0, 76, 64
2, 397920, Note_on_c, 0, 76, 120
2, 398016, Note_on_c, 0, 79, 120
2, 398112, Note_on_c, 0, 82, 120
2, 398208, Note_on_c, 0, 88, 120
2, 398584, Control_c, 0, 64, 0
2, 398588, Note_off_c, 0, 76, 100
2, 398588, Note_off_c, 0, 79, 100
2, 398588, Note_off_c, 0, 82, 100
2, 398588, Note_off_c, 0, 88, 100
2, 399360, Control_c, 0, 64, 127
2, 399744, Note_on_c, 0, 55, 80
2, 399840, Note_on_c, 0, 58, 80
2, 399936, Note_on_c, 0, 61, 80
2, 400032, Note_on_c, 0, 64, 80
2, 400128, Note_on_c, 0, 67, 80
2, 400888, Control_c, 0, 64, 0
2, 400892, Note_off_c, 0, 55, 64
2, 400892, Note_off_c, 0, 58, 64
2, 400892, Note_off_c, 0, 61, 64
2, 400892, Note_off_c, 0, 64, 64
2, 400892, Note_off_c, 0, 67, 100
2, 400896, Control_c, 0, 64, 127
2, 401280, Note_on_c, 0, 58, 80
2, 401376, Note_on_c, 0, 61, 80
2, 401472, Note_on_c, 0, 64, 80
2, 401568, Note_on_c, 0, 67, 80
2, 401664, Note_on_c, 0, 70, 80
2, 401756, Note_off_c, 0, 58, 64
2, 401852, Note_off_c, 0, 61, 64
2, 401948, Note_off_c, 0, 64, 64
2, 402044, Note_off_c, 0, 67, 64
2, 402236, Note_off_c, 0, 70, 100
2, 402424, Control_c, 0, 64, 0
2, 402432, Control_c, 0, 64, 127
2, 402816, Note_on_c, 0, 61, 80
2, 402912, Note_on_c, 0, 64, 80
2, 403008, Note_on_c, 0, 67, 80
2, 403104, Note_on_c, 0, 70, 80
2, 403200, Note_on_c, 0, 73, 80
2, 403292, Note_off_c, 0, 61, 64
2, 403388, Note_off_c, 0, 64, 64
2, 403484, Note_off_c, 0, 67, 64
2, 403580, Note_off_c, 0, 70, 64
2, 403772, Note_off_c, 0, 73, 100
2, 403960, Control_c, 0, 64, 0
2, 403968, Control_c, 0, 64, 127
2, 404352, Note_on_c, 0, 64, 80
2, 404448, Note_on_c, 0, 67, 80
2, 404544, Note_on_c, 0, 70, 80
2, 404640, Note_on_c, 0, 73, 80
2, 404736, Note_on_c, 0, 76, 80
2, 405496, Control_c, 0, 64, 0
2, 405500, Note_off_c, 0, 64, 64
2, 405500, Note_off_c, 0, 67, 64
2, 405500, Note_off_c, 0, 70, 64
2, 405500, Note_off_c, 0, 73, 64
2, 405500, Note_off_c, 0, 76, 100
2, 406464, Note_on_c, 0, 64, 80
2, 406656, Note_on_c, 0, 67, 80
2, 406848, Note_on_c, 0, 70, 80
2, 407036, Note_off_c, 0, 64, 100
2, 407040, Note_on_c, 0, 73, 80
2, 407228, Note_off_c, 0, 67, 64
2, 407232, Note_on_c, 0, 76, 80
2, 407420, Note_off_c, 0, 70, 64
2, 407424, Note_on_c, 0, 79, 80
2, 407612, Note_off_c, 0, 73, 100
2, 407616, Note_on_c, 0, 82, 80
2, 407804, Note_off_c, 0, 76, 100
2, 407808, Note_on_c, 0, 85, 80
2, 407996, Note_off_c, 0, 79, 64
2, 408000, Note_on_c, 0, 88, 80
2, 408188, Note_off_c, 0, 82, 64
2, 408192, Note_on_c, 0, 91, 80
2, 408380, Note_off_c, 0, 85, 100
2, 408384, Note_on_c, 0, 94, 80
2, 408572, Note_off_c, 0, 88, 100
2, 408572, Note_off_c, 0, 91, 64
2, 408576, Note_on_c, 0, 91, 80
2, 408768, Note_on_c, 0, 88, 80
2, 408956, Note_off_c, 0, 94, 64
2, 408960, Note_on_c, 0, 85, 80
2, 409148, Note_off_c, 0, 91, 100
2, 409152, Note_on_c, 0, 82, 80
2, 409340, Note_off_c, 0, 88, 100
2, 409344, Note_on_c, 0, 79, 80
2, 409532, Note_off_c, 0, 85, 64
2, 409536, Note_on_c, 0, 76, 80
2, 409724, Note_off_c, 0, 82, 64
2, 409728, Note_on_c, 0, 73, 80
2, 409916, Note_off_c, 0, 79, 100
2, 409920, Note_on_c, 0, 70, 80
2, 410108, Note_off_c, 0, 76, 100
2, 410112, Note_on_c, 0, 67, 80
2, 410300, Note_off_c, 0, 73, 64
2, 410304, Note_on_c, 0, 64, 80
2, 410492, Note_off_c, 0, 70, 64
2, 410496, Note_on_c, 0, 61, 80
2, 410684, Note_off_c, 0, 67, 100
2, 410688, Note_on_c, 0, 58, 80
2, 410876, Note_off_c, 0, 64, 100
2, 410880, Note_on_c, 0, 55, 80
2, 411068, Note_off_c, 0, 61, 64
2, 411072, Note_on_c, 0, 52, 80
2, 411260, Note_off_c, 0, 58, 64
2, 411264, Note_on_c, 0, 49, 80
2, 411452, Note_off_c, 0, 55, 100
2, 411456, Note_on_c, 0, 46, 80
2, 411644, Note_off_c, 0, 52, 100
2, 411648, Note_on_c, 0, 43, 80
2, 411836, Note_off_c, 0, 49, 64
2, 412028, Note_off_c, 0, 46, 64
2, 413180, Note_off_c, 0, 43, 64
2, 416256, Control_c, 0, 64, 127
2, 416256, Note_on_c, 0, 52, 80
2, 416256, Note_on_c, 0, 48, 80
2, 416256, Note_on_c, 0, 46, 80
2, 416256, Note_on_c, 0, 43, 80
2, 417788, Note_off_c, 0, 43, 64
2, 417788, Note_off_c, 0, 46, 64
2, 417788, Note_off_c, 0, 48, 64
2, 417788, Note_off_c, 0, 52, 64
2, 417792, Note_on_c, 0, 64, 80
2, 417792, Note_on_c, 0, 60, 80
2, 417792, Note_on_c, 0, 58, 80
2, 417792, Note_on_c, 0, 55, 80
2, 418556, Note_off_c, 0, 64, 100
2, 418556, Note_off_c, 0, 60, 100
2, 418556, Note_off_c, 0, 58, 100
2, 418556, Note_off_c, 0, 55, 100
2, 418560, Note_on_c, 0, 76, 80
2, 418560, Note_on_c, 0, 72, 80
2, 418560, Note_on_c, 0, 70, 80
2, 418560, Note_on_c, 0, 67, 80
2, 419324, Note_off_c, 0, 76, 100
2, 419324, Note_off_c, 0, 72, 100
2, 419324, Note_off_c, 0, 70, 100
2, 419324, Note_off_c, 0, 67, 100
2, 419328, Note_on_c, 0, 88, 80
2, 419328, Note_on_c, 0, 84, 80
2, 419328, Note_on_c, 0, 82, 80
2, 419328, Note_on_c, 0, 79, 80
2, 420092, Note_off_c, 0, 88, 100
2, 420092, Note_off_c, 0, 84, 100
2, 420092, Note_off_c, 0, 82, 100
2, 420092, Note_off_c, 0, 79, 100
2, 420096, Note_on_c, 0, 52, 80
2, 420096, Note_on_c, 0, 48, 80
2, 420096, Note_on_c, 0, 46, 80
2, 420096, Note_on_c, 0, 43, 80
2, 420856, Control_c, 0, 64, 0
2, 420860, Note_off_c, 0, 52, 100
2, 420860, Note_off_c, 0, 48, 100
2, 420860, Note_off_c, 0, 46, 100
2, 420860, Note_off_c, 0, 43, 100
2, 420960, Note_on_c, 0, 48, 80
2, 421052, Note_off_c, 0, 48, 100
2, 421056, Note_on_c, 0, 53, 80
2, 421148, Note_off_c, 0, 53, 100
2, 421152, Note_on_c, 0, 56, 80
2, 421244, Note_off_c, 0, 56, 100
2, 421248, Note_on_c, 0, 60, 80
2, 421340, Note_off_c, 0, 60, 100
2, 421344, Note_on_c, 0, 61, 80
2, 421436, Note_off_c, 0, 61, 100
2, 421440, Note_on_c, 0, 60, 80
2, 421532, Note_off_c, 0, 60, 100
2, 421536, Note_on_c, 0, 58, 80
2, 421628, Note_off_c, 0, 58, 100
2, 421632, Note_on_c, 0, 56, 80
2, 421724, Note_off_c, 0, 56, 100
2, 421728, Note_on_c, 0, 58, 80
2, 421820, Note_off_c, 0, 58, 100
2, 421824, Note_on_c, 0, 56, 80
2, 421916, Note_off_c, 0, 56, 100
2, 421920, Note_on_c, 0, 55, 80
2, 422012, Note_off_c, 0, 55, 100
2, 422016, Note_on_c, 0, 53, 80
2, 422108, Note_off_c, 0, 53, 100
2, 422112, Note_on_c, 0, 55, 80
2, 422204, Note_off_c, 0, 55, 100
2, 422208, Note_on_c, 0, 56, 80
2, 422300, Note_off_c, 0, 56, 100
2, 422304, Note_on_c, 0, 53, 80
2, 422396, Note_off_c, 0, 53, 100
2, 422496, Note_on_c, 0, 48, 80
2, 422588, Note_off_c, 0, 48, 100
2, 422592, Note_on_c, 0, 53, 80
2, 422684, Note_off_c, 0, 53, 100
2, 422688, Note_on_c, 0, 56, 80
2, 422780, Note_off_c, 0, 56, 100
2, 422784, Note_on_c, 0, 60, 80
2, 422876, Note_off_c, 0, 60, 100
2, 422880, Note_on_c, 0, 61, 80
2, 422972, Note_off_c, 0, 61, 100
2, 422976, Note_on_c, 0, 60, 80
2, 423068, Note_off_c, 0, 60, 100
2, 423072, Note_on_c, 0, 58, 80
2, 423164, Note_off_c, 0, 58, 100
2, 423168, Note_on_c, 0, 56, 80
2, 423260, Note_off_c, 0, 56, 100
2, 423264, Note_on_c, 0, 58, 80
2, 423356, Note_off_c, 0, 58, 100
2, 423360, Note_on_c, 0, 56, 80
2, 423452, Note_off_c, 0, 56, 100
2, 423456, Note_on_c, 0, 55, 80
2, 423548, Note_off_c, 0, 55, 100
2, 423552, Note_on_c, 0, 53, 80
2, 423644, Note_off_c, 0, 53, 100
2, 423648, Note_on_c, 0, 55, 80
2, 423740, Note_off_c, 0, 55, 100
2, 423744, Note_on_c, 0, 56, 80
2, 423836, Note_off_c, 0, 56, 100
2, 423840, Note_on_c, 0, 53, 80
2, 423932, Note_off_c, 0, 53, 100
2, 424032, Note_on_c, 0, 49, 80
2, 424124, Note_off_c, 0, 49, 100
2, 424128, Note_on_c, 0, 54, 80
2, 424220, Note_off_c, 0, 54, 100
2, 424224, Note_on_c, 0, 58, 80
2, 424316, Note_off_c, 0, 58, 100
2, 424320, Note_on_c, 0, 61, 80
2, 424412, Note_off_c, 0, 61, 100
2, 424416, Note_on_c, 0, 63, 80
2, 424508, Note_off_c, 0, 63, 100
2, 424512, Note_on_c, 0, 61, 80
2, 424604, Note_off_c, 0, 61, 100
2, 424608, Note_on_c, 0, 60, 80
2, 424700, Note_off_c, 0, 60, 100
2, 424704, Note_on_c, 0, 58, 80
2, 424796, Note_off_c, 0, 58, 100
2, 424800, Note_on_c, 0, 60, 80
2, 424892, Note_off_c, 0, 60, 100
2, 424896, Note_on_c, 0, 58, 80
2, 424988, Note_off_c, 0, 58, 100
2, 424992, Note_on_c, 0, 56, 80
2, 425084, Note_off_c, 0, 56, 100
2, 425088, Note_on_c, 0, 55, 80
2, 425180, Note_off_c, 0, 55, 100
2, 425184, Note_on_c, 0, 56, 80
2, 425276, Note_off_c, 0, 56, 100
2, 425280, Note_on_c, 0, 54, 80
2, 425372, Note_off_c, 0, 54, 100
2, 425376, Note_on_c, 0, 53, 80
2, 425468, Note_off_c, 0, 53, 100
2, 425472, Note_on_c, 0, 52, 80
2, 425564, Note_off_c, 0, 52, 100
2, 425568, Note_on_c, 0, 53, 80
2, 425660, Note_off_c, 0, 53, 100
2, 425664, Note_on_c, 0, 55, 80
2, 425756, Note_off_c, 0, 55, 100
2, 425760, Note_on_c, 0, 52, 80
2, 425852, Note_off_c, 0, 52, 100
2, 425856, Note_on_c, 0, 53, 80
2, 425948, Note_off_c, 0, 53, 100
2, 425952, Note_on_c, 0, 55, 80
2, 426044, Note_off_c, 0, 55, 100
2, 426048, Note_on_c, 0, 56, 80
2, 426140, Note_off_c, 0, 56, 100
2, 426144, Note_on_c, 0, 53, 80
2, 426236, Note_off_c, 0, 53, 100
2, 426240, Note_on_c, 0, 55, 80
2, 426332, Note_off_c, 0, 55, 100
2, 426336, Note_on_c, 0, 56, 80
2, 426428, Note_off_c, 0, 56, 100
2, 426432, Note_on_c, 0, 58, 80
2, 426524, Note_off_c, 0, 58, 100
2, 426528, Note_on_c, 0, 55, 80
2, 426620, Note_off_c, 0, 55, 100
2, 426624, Note_on_c, 0, 52, 80
2, 426716, Note_off_c, 0, 52, 100
2, 426720, Note_on_c, 0, 53, 80
2, 426812, Note_off_c, 0, 53, 100
2, 426816, Note_on_c, 0, 55, 80
2, 426908, Note_off_c, 0, 55, 100
2, 426912, Note_on_c, 0, 52, 80
2, 427004, Note_off_c, 0, 52, 100
2, 427008, Note_on_c, 0, 53, 80
2, 427388, Note_off_c, 0, 53, 100
2, 427584, Note_on_c, 0, 64, 83
2, 427772, Note_off_c, 0, 64, 100
2, 427776, Note_on_c, 0, 65, 85
2, 427964, Note_off_c, 0, 65, 100
2, 427968, Note_on_c, 0, 67, 86
2, 428156, Note_off_c, 0, 67, 100
2, 428160, Note_on_c, 0, 68, 87
2, 428348, Note_off_c, 0, 68, 100
2, 428352, Note_on_c, 0, 65, 88
2, 428540, Note_off_c, 0, 65, 100
2, 429120, Note_on_c, 0, 76, 94
2, 429120, Note_on_c, 0, 64, 94
2, 429308, Note_off_c, 0, 76, 100
2, 429308, Note_off_c, 0, 64, 100
2, 429312, Note_on_c, 0, 77, 95
2, 429312, Note_on_c, 0, 65, 95
2, 429500, Note_off_c, 0, 77, 100
2, 429500, Note_off_c, 0, 65, 100
2, 429504, Note_on_c, 0, 79, 96
2, 429504, Note_on_c, 0, 67, 96
2, 429692, Note_off_c, 0, 79, 100
2, 429692, Note_off_c, 0, 67, 100
2, 429696, Note_on_c, 0, 80, 97
2, 429696, Note_on_c, 0, 68, 97
2, 429884, Note_off_c, 0, 80, 100
2, 429884, Note_off_c, 0, 68, 100
2, 429888, Note_on_c, 0, 77, 99
2, 429888, Note_on_c, 0, 65, 99
2, 430076, Note_off_c, 0, 77, 100
2, 430076, Note_off_c, 0, 65, 100
2, 430656, Note_on_c, 0, 77, 104
2, 430656, Note_on_c, 0, 65, 104
2, 430844, Note_off_c, 0, 77, 100
2, 430844, Note_off_c, 0, 65, 100
2, 430848, Note_on_c, 0, 78, 105
2, 430848, Note_on_c, 0, 66, 105
2, 431036, Note_off_c, 0, 78, 100
2, 431036, Note_off_c, 0, 66, 100
2, 431040, Note_on_c, 0, 82, 106
2, 431040, Note_on_c, 0, 70, 106
2, 431228, Note_off_c, 0, 82, 100
2, 431228, Note_off_c, 0, 70, 100
2, 431232, Note_on_c, 0, 85, 108
2, 431232, Note_on_c, 0, 73, 108
2, 431420, Note_off_c, 0, 85, 100
2, 431420, Note_off_c, 0, 73, 100
2, 431424, Note_on_c, 0, 85, 109
2, 431424, Note_on_c, 0, 73, 109
2, 431612, Note_off_c, 0, 85, 100
2, 431612, Note_off_c, 0, 73, 100
2, 431616, Note_on_c, 0, 85, 110
2, 431616, Note_on_c, 0, 73, 110
2, 431996, Note_off_c, 0, 85, 100
2, 431996, Note_off_c, 0, 73, 100
2, 432000, Note_on_c, 0, 84, 105
2, 432000, Note_on_c, 0, 72, 105
2, 432764, Note_off_c, 0, 72, 64
2, 432764, Note_off_c, 0, 84, 64
2, 432768, Note_on_c, 0, 76, 95
2, 432768, Note_on_c, 0, 64, 95
2, 433148, Note_off_c, 0, 76, 100
2, 433148, Note_off_c, 0, 64, 100
2, 433152, Note_on_c, 0, 77, 80
2, 433152, Note_on_c, 0, 65, 80
2, 433244, Note_off_c, 0, 77, 100
2, 433244, Note_off_c, 0, 65, 100
2, 433248, Note_on_c, 0, 60, 81
2, 433340, Note_off_c, 0, 60, 100
2, 433344, Note_on_c, 0, 65, 82
2, 433436, Note_off_c, 0, 65, 100
2, 433440, Note_on_c, 0, 68, 83
2, 433532, Note_off_c, 0, 68, 100
2, 433536, Note_on_c, 0, 72, 85
2, 433628, Note_off_c, 0, 72, 100
2, 433632, Note_on_c, 0, 60, 86
2, 433724, Note_off_c, 0, 60, 100
2, 433728, Note_on_c, 0, 65, 87
2, 433820, Note_off_c, 0, 65, 100
2, 433824, Note_on_c, 0, 68, 89
2, 433916, Note_off_c, 0, 68, 100
2, 434016, Note_on_c, 0, 60, 91
2, 434108, Note_off_c, 0, 60, 100
2, 434112, Note_on_c, 0, 65, 93
2, 434204, Note_off_c, 0, 65, 100
2, 434208, Note_on_c, 0, 68, 94
2, 434300, Note_off_c, 0, 68, 100
2, 434304, Note_on_c, 0, 72, 95
2, 434396, Note_off_c, 0, 72, 100
2, 434400, Note_on_c, 0, 60, 97
2, 434492, Note_off_c, 0, 60, 100
2, 434496, Note_on_c, 0, 65, 98
2, 434588, Note_off_c, 0, 65, 100
2, 434592, Note_on_c, 0, 68, 99
2, 434684, Note_off_c, 0, 68, 100
2, 434784, Note_on_c, 0, 59, 100
2, 434876, Note_off_c, 0, 59, 100
2, 434880, Note_on_c, 0, 62, 100
2, 434972, Note_off_c, 0, 62, 100
2, 434976, Note_on_c, 0, 68, 100
2, 435068, Note_off_c, 0, 68, 100
2, 435072, Note_on_c, 0, 71, 100
2, 435168, Note_on_c, 0, 59, 100
2, 435260, Note_off_c, 0, 59, 100
2, 435264, Note_on_c, 0, 62, 100
2, 435356, Note_off_c, 0, 62, 100
2, 435360, Note_on_c, 0, 68, 100
2, 435452, Note_off_c, 0, 71, 100
2, 435452, Note_off_c, 0, 68, 100
2, 435456, Note_on_c, 0, 71, 100
2, 435552, Note_on_c, 0, 59, 98
2, 435644, Note_off_c, 0, 59, 100
2, 435648, Note_on_c, 0, 64, 95
2, 435740, Note_off_c, 0, 64, 100
2, 435744, Note_on_c, 0, 67, 92
2, 435836, Note_off_c, 0, 71, 100
2, 435836, Note_off_c, 0, 67, 100
2, 435840, Note_on_c, 0, 72, 89
2, 435936, Note_on_c, 0, 60, 86
2, 436028, Note_off_c, 0, 60, 100
2, 436032, Note_on_c, 0, 64, 83
2, 436124, Note_off_c, 0, 64, 100
2, 436128, Note_on_c, 0, 67, 81
2, 436220, Note_off_c, 0, 72, 100
2, 436220, Note_off_c, 0, 67, 100
2, 436320, Note_on_c, 0, 60, 81
2, 436412, Note_off_c, 0, 60, 100
2, 436416, Note_on_c, 0, 64, 82
2, 436508, Note_off_c, 0, 64, 100
2, 436512, Note_on_c, 0, 67, 83
2, 436604, Note_off_c, 0, 67, 100
2, 436608, Note_on_c, 0, 72, 85
2, 436700, Note_off_c, 0, 72, 100
2, 436704, Note_on_c, 0, 60, 86
2, 436796, Note_off_c, 0, 60, 100
2, 436800, Note_on_c, 0, 64, 87
2, 436892, Note_off_c, 0, 64, 100
2, 436896, Note_on_c, 0, 67, 89
2, 436988, Note_off_c, 0, 67, 100
2, 437088, Note_on_c, 0, 60, 91
2, 437180, Note_off_c, 0, 60, 100
2, 437184, Note_on_c, 0, 64, 93
2, 437276, Note_off_c, 0, 64, 100
2, 437280, Note_on_c, 0, 67, 94
2, 437372, Note_off_c, 0, 67, 100
2, 437376, Note_on_c, 0, 72, 95
2, 437468, Note_off_c, 0, 72, 100
2, 437472, Note_on_c, 0, 60, 97
2, 437564, Note_off_c, 0, 60, 100
2, 437568, Note_on_c, 0, 64, 98
2, 437660, Note_off_c, 0, 64, 100
2, 437664, Note_on_c, 0, 67, 99
2, 437756, Note_off_c, 0, 67, 100
2, 437856, Note_on_c, 0, 60, 100
2, 437948, Note_off_c, 0, 60, 100
2, 437952, Note_on_c, 0, 64, 100
2, 438044, Note_off_c, 0, 64, 100
2, 438048, Note_on_c, 0, 67, 100
2, 438140, Note_off_c, 0, 67, 100
2, 438144, Note_on_c, 0, 72, 100
2, 438240, Note_on_c, 0, 60, 100
2, 438332, Note_off_c, 0, 60, 100
2, 438336, Note_on_c, 0, 64, 100
2, 438428, Note_off_c, 0, 64, 100
2, 438432, Note_on_c, 0, 67, 100
2, 438524, Note_off_c, 0, 72, 100
2, 438524, Note_off_c, 0, 67, 100
2, 438528, Note_on_c, 0, 72, 100
2, 438624, Note_on_c, 0, 60, 98
2, 438716, Note_off_c, 0, 60, 100
2, 438720, Note_on_c, 0, 64, 95
2, 438812, Note_off_c, 0, 64, 100
2, 438816, Note_on_c, 0, 67, 92
2, 438908, Note_off_c, 0, 72, 100
2, 438908, Note_off_c, 0, 67, 100
2, 438912, Note_on_c, 0, 72, 89
2, 439008, Note_on_c, 0, 60, 86
2, 439100, Note_off_c, 0, 60, 100
2, 439104, Note_on_c, 0, 65, 83
2, 439196, Note_off_c, 0, 65, 100
2, 439200, Note_on_c, 0, 68, 81
2, 439292, Note_off_c, 0, 72, 100
2, 439292, Note_off_c, 0, 68, 100
2, 439392, Note_on_c, 0, 65, 80
2, 439484, Note_off_c, 0, 65, 100
2, 439488, Note_on_c, 0, 69, 81
2, 439580, Note_off_c, 0, 69, 100
2, 439584, Note_on_c, 0, 72, 82
2, 439676, Note_off_c, 0, 72, 100
2, 439680, Note_on_c, 0, 77, 83
2, 439772, Note_off_c, 0, 77, 100
2, 439776, Note_on_c, 0, 65, 84
2, 439868, Note_off_c, 0, 65, 100
2, 439872, Note_on_c, 0, 69, 86
2, 439964, Note_off_c, 0, 69, 100
2, 439968, Note_on_c, 0, 72, 87
2, 440060, Note_off_c, 0, 72, 100
2, 440160, Note_on_c, 0, 65, 89
2, 440252, Note_off_c, 0, 65, 100
2, 440256, Note_on_c, 0, 69, 91
2, 440348, Note_off_c, 0, 69, 100
2, 440352, Note_on_c, 0, 72, 92
2, 440444, Note_off_c, 0, 72, 100
2, 440448, Note_on_c, 0, 77, 93
2, 440540, Note_off_c, 0, 77, 100
2, 440544, Note_on_c, 0, 65, 94
2, 440636, Note_off_c, 0, 65, 100
2, 440640, Note_on_c, 0, 69, 96
2, 440732, Note_off_c, 0, 69, 100
2, 440736, Note_on_c, 0, 72, 97
2, 440828, Note_off_c, 0, 72, 100
2, 440928, Note_on_c, 0, 65, 99
2, 441020, Note_off_c, 0, 65, 100
2, 441024, Note_on_c, 0, 69, 101
2, 441116, Note_off_c, 0, 69, 100
2, 441120, Note_on_c, 0, 72, 102
2, 441212, Note_off_c, 0, 72, 100
2, 441216, Note_on_c, 0, 77, 103
2, 441312, Note_on_c, 0, 65, 104
2, 441404, Note_off_c, 0, 65, 100
2, 441408, Note_on_c, 0, 69, 106
2, 441500, Note_off_c, 0, 69, 100
2, 441504, Note_on_c, 0, 72, 107
2, 441596, Note_off_c, 0, 77, 100
2, 441596, Note_off_c, 0, 72, 100
2, 441600, Note_on_c, 0, 69, 108
2, 441600, Note_on_c, 0, 65, 108
2, 441692, Note_off_c, 0, 69, 100
2, 441692, Note_off_c, 0, 65, 100
2, 441696, Note_on_c, 0, 77, 109
2, 441788, Note_off_c, 0, 77, 100
2, 441792, Note_on_c, 0, 70, 110
2, 441792, Note_on_c, 0, 65, 110
2, 441884, Note_off_c, 0, 70, 100
2, 441884, Note_off_c, 0, 65, 100
2, 441888, Note_on_c, 0, 77, 107
2, 441980, Note_off_c, 0, 77, 100
2, 441984, Note_on_c, 0, 72, 103
2, 441984, Note_on_c, 0, 65, 103
2, 442076, Note_off_c, 0, 72, 100
2, 442076, Note_off_c, 0, 65, 100
2, 442080, Note_on_c, 0, 77, 99
2, 442172, Note_off_c, 0, 77, 100
2, 442176, Note_on_c, 0, 73, 95
2, 442176, Note_on_c, 0, 65, 95
2, 442268, Note_off_c, 0, 73, 100
2, 442268, Note_off_c, 0, 65, 100
2, 442272, Note_on_c, 0, 77, 91
2, 442364, Note_off_c, 0, 77, 100
2, 442464, Note_on_c, 0, 60, 80
2, 442556, Note_off_c, 0, 60, 100
2, 442560, Note_on_c, 0, 65, 80
2, 442652, Note_off_c, 0, 65, 100
2, 442656, Note_on_c, 0, 68, 80
2, 442748, Note_off_c, 0, 68, 100
2, 442752, Note_on_c, 0, 72, 80
2, 442848, Note_on_c, 0, 60, 80
2, 442940, Note_off_c, 0, 60, 100
2, 442944, Note_on_c, 0, 65, 80
2, 443036, Note_off_c, 0, 65, 100
2, 443040, Note_on_c, 0, 68, 80
2, 443132, Note_off_c, 0, 72, 100
2, 443132, Note_off_c, 0, 68, 100
2, 443136, Note_on_c, 0, 72, 80
2, 443232, Note_on_c, 0, 60, 80
2, 443324, Note_off_c, 0, 60, 100
2, 443328, Note_on_c, 0, 67, 80
2, 443420, Note_off_c, 0, 67, 100
2, 443424, Note_on_c, 0, 70, 80
2, 443516, Note_off_c, 0, 72, 100
2, 443516, Note_off_c, 0, 70, 100
2, 443520, Note_on_c, 0, 72, 80
2, 443616, Note_on_c, 0, 60, 80
2, 443708, Note_off_c, 0, 60, 100
2, 443712, Note_on_c, 0, 64, 80
2, 443804, Note_off_c, 0, 64, 100
2, 443808, Note_on_c, 0, 67, 80
2, 443900, Note_off_c, 0, 72, 100
2, 443900, Note_off_c, 0, 67, 100
2, 443904, Note_on_c, 0, 72, 80
2, 443904, Note_on_c, 0, 68, 80
2, 443904, Note_on_c, 0, 65, 80
2, 443904, Note_on_c, 0, 60, 80
2, 444284, Note_off_c, 0, 72, 100
2, 444284, Note_off_c, 0, 68, 100
2, 444284, Note_off_c, 0, 65, 100
2, 444284, Note_off_c, 0, 60, 100
2, 444576, Note_on_c, 0, 80, 80
2, 444576, Note_on_c, 0, 77, 80
2, 444668, Note_off_c, 0, 80, 100
2, 444668, Note_off_c, 0, 77, 100
2, 444672, Note_on_c, 0, 80, 100
2, 444672, Note_on_c, 0, 77, 100
2, 445052, Note_off_c, 0, 80, 100
2, 445052, Note_off_c, 0, 77, 100
2, 445344, Note_on_c, 0, 80, 80
2, 445344, Note_on_c, 0, 77, 80
2, 445436, Note_off_c, 0, 80, 100
2, 445436, Note_off_c, 0, 77, 100
2, 445440, Note_on_c, 0, 80, 100
2, 445440, Note_on_c, 0, 77, 100
2, 446204, Note_off_c, 0, 80, 100
2, 446204, Note_off_c, 0, 77, 100
2, 446208, Note_on_c, 0, 79, 80
2, 446208, Note_on_c, 0, 76, 80
2, 446396, Note_off_c, 0, 79, 100
2, 446396, Note_off_c, 0, 76, 100
2, 447648, Note_on_c, 0, 82, 80
2, 447648, Note_on_c, 0, 79, 80
2, 447740, Note_off_c, 0, 82, 100
2, 447740, Note_off_c, 0, 79, 100
2, 447744, Note_on_c, 0, 82, 100
2, 447744, Note_on_c, 0, 79, 100
2, 448124, Note_off_c, 0, 82, 100
2, 448124, Note_off_c, 0, 79, 100
2, 448416, Note_on_c, 0, 82, 80
2, 448416, Note_on_c, 0, 79, 80
2, 448508, Note_off_c, 0, 82, 100
2, 448508, Note_off_c, 0, 79, 100
2, 448512, Note_on_c, 0, 82, 100
2, 448512, Note_on_c, 0, 79, 100
2, 449276, Note_off_c, 0, 82, 100
2, 449276, Note_off_c, 0, 79, 100
2, 449280, Note_on_c, 0, 80, 80
2, 449280, Note_on_c, 0, 77, 80
2, 449468, Note_off_c, 0, 80, 100
2, 449468, Note_off_c, 0, 77, 100
2, 450720, Note_on_c, 0, 87, 99
2, 450720, Note_on_c, 0, 84, 99
2, 450812, Note_off_c, 0, 87, 100
2, 450812, Note_off_c, 0, 84, 100
2, 450816, Note_on_c, 0, 87, 112
2, 450816, Note_on_c, 0, 84, 113
2, 451196, Note_off_c, 0, 87, 100
2, 451196, Note_off_c, 0, 84, 100
2, 451488, Note_on_c, 0, 87, 109
2, 451488, Note_on_c, 0, 84, 109
2, 451580, Note_off_c, 0, 87, 100
2, 451580, Note_off_c, 0, 84, 100
2, 451584, Note_on_c, 0, 87, 123
2, 451584, Note_on_c, 0, 84, 122
2, 452540, Note_off_c, 0, 84, 64
2, 452540, Note_off_c, 0, 87, 64
2, 452544, Note_on_c, 0, 85, 110
2, 452544, Note_on_c, 0, 82, 110
2, 452732, Note_off_c, 0, 85, 100
2, 452732, Note_off_c, 0, 82, 100
2, 452736, Note_on_c, 0, 84, 110
2, 452736, Note_on_c, 0, 80, 110
2, 452924, Note_off_c, 0, 84, 100
2, 452924, Note_off_c, 0, 80, 100
2, 452928, Note_on_c, 0, 82, 110
2, 452928, Note_on_c, 0, 79, 110
2, 453116, Note_off_c, 0, 82, 100
2, 453116, Note_off_c, 0, 79, 100
2, 453120, Note_on_c, 0, 80, 110
2, 453120, Note_on_c, 0, 77, 110
2, 453500, Note_off_c, 0, 80, 100
2, 453500, Note_off_c, 0, 77, 100
2, 453792, Note_on_c, 0, 89, 110
2, 453792, Note_on_c, 0, 80, 110
2, 453792, Note_on_c, 0, 77, 110
2, 453884, Note_off_c, 0, 89, 100
2, 453884, Note_off_c, 0, 80, 100
2, 453884, Note_off_c, 0, 77, 100
2, 453888, Note_on_c, 0, 91, 110
2, 453888, Note_on_c, 0, 82, 110
2, 453888, Note_on_c, 0, 79, 110
2, 454268, Note_off_c, 0, 91, 100
2, 454268, Note_off_c, 0, 82, 100
2, 454268, Note_off_c, 0, 79, 100
2, 454560, Note_on_c, 0, 88, 110
2, 454560, Note_on_c, 0, 79, 110
2, 454560, Note_on_c, 0, 76, 110
2, 454652, Note_off_c, 0, 88, 100
2, 454652, Note_off_c, 0, 79, 100
2, 454652, Note_off_c, 0, 76, 100
2, 454656, Note_on_c, 0, 89, 110
2, 454656, Note_on_c, 0, 77, 110
2, 454656, Note_on_c, 0, 80, 110
2, 454752, Note_on_c, 0, 72, 80
2, 454828, Note_off_c, 0, 80, 100
2, 454832, Note_off_c, 0, 89, 100
2, 454832, Note_off_c, 0, 77, 100
2, 454844, Note_off_c, 0, 72, 100
2, 454848, Note_on_c, 0, 77, 82
2, 454940, Note_off_c, 0, 77, 100
2, 454944, Note_on_c, 0, 80, 84
2, 455036, Note_off_c, 0, 80, 100
2, 455040, Note_on_c, 0, 84, 87
2, 455132, Note_off_c, 0, 84, 100
2, 455136, Note_on_c, 0, 85, 89
2, 455228, Note_off_c, 0, 85, 100
2, 455232, Note_on_c, 0, 84, 92
2, 455324, Note_off_c, 0, 84, 100
2, 455328, Note_on_c, 0, 82, 94
2, 455420, Note_off_c, 0, 82, 100
2, 455424, Note_on_c, 0, 80, 95
2, 455516, Note_off_c, 0, 80, 100
2, 455520, Note_on_c, 0, 82, 94
2, 455612, Note_off_c, 0, 82, 100
2, 455616, Note_on_c, 0, 80, 93
2, 455708, Note_off_c, 0, 80, 100
2, 455712, Note_on_c, 0, 79, 91
2, 455804, Note_off_c, 0, 79, 100
2, 455808, Note_on_c, 0, 77, 90
2, 455900, Note_off_c, 0, 77, 100
2, 455904, Note_on_c, 0, 79, 88
2, 455996, Note_off_c, 0, 79, 100
2, 456000, Note_on_c, 0, 80, 87
2, 456092, Note_off_c, 0, 80, 100
2, 456096, Note_on_c, 0, 77, 86
2, 456188, Note_off_c, 0, 77, 100
2, 456288, Note_on_c, 0, 72, 82
2, 456380, Note_off_c, 0, 72, 100
2, 456384, Note_on_c, 0, 77, 84
2, 456476, Note_off_c, 0, 77, 100
2, 456480, Note_on_c, 0, 80, 86
2, 456572, Note_off_c, 0, 80, 100
2, 456576, Note_on_c, 0, 84, 88
2, 456668, Note_off_c, 0, 84, 100
2, 456672, Note_on_c, 0, 85, 90
2, 456764, Note_off_c, 0, 85, 100
2, 456768, Note_on_c, 0, 84, 92
2, 456860, Note_off_c, 0, 84, 100
2, 456864, Note_on_c, 0, 82, 94
2, 456956, Note_off_c, 0, 82, 100
2, 456960, Note_on_c, 0, 80, 95
2, 457052, Note_off_c, 0, 80, 100
2, 457056, Note_on_c, 0, 82, 94
2, 457148, Note_off_c, 0, 82, 100
2, 457152, Note_on_c, 0, 80, 93
2, 457244, Note_off_c, 0, 80, 100
2, 457248, Note_on_c, 0, 79, 91
2, 457340, Note_off_c, 0, 79, 100
2, 457344, Note_on_c, 0, 77, 90
2, 457436, Note_off_c, 0, 77, 100
2, 457440, Note_on_c, 0, 79, 88
2, 457532, Note_off_c, 0, 79, 100
2, 457536, Note_on_c, 0, 80, 87
2, 457628, Note_off_c, 0, 80, 100
2, 457632, Note_on_c, 0, 77, 86
2, 457724, Note_off_c, 0, 77, 100
2, 457824, Note_on_c, 0, 78, 82
2, 457916, Note_off_c, 0, 78, 100
2, 457920, Note_on_c, 0, 84, 84
2, 458012, Note_off_c, 0, 84, 100
2, 458016, Note_on_c, 0, 87, 86
2, 458108, Note_off_c, 0, 87, 100
2, 458112, Note_on_c, 0, 90, 88
2, 458204, Note_off_c, 0, 90, 100
2, 458208, Note_on_c, 0, 92, 90
2, 458300, Note_off_c, 0, 92, 100
2, 458304, Note_on_c, 0, 90, 92
2, 458396, Note_off_c, 0, 90, 100
2, 458400, Note_on_c, 0, 89, 94
2, 458492, Note_off_c, 0, 89, 100
2, 458496, Note_on_c, 0, 87, 95
2, 458588, Note_off_c, 0, 87, 100
2, 458592, Note_on_c, 0, 89, 94
2, 458684, Note_off_c, 0, 89, 100
2, 458688, Note_on_c, 0, 87, 93
2, 458780, Note_off_c, 0, 87, 100
2, 458784, Note_on_c, 0, 85, 91
2, 458876, Note_off_c, 0, 85, 100
2, 458880, Note_on_c, 0, 84, 90
2, 458972, Note_off_c, 0, 84, 100
2, 458976, Note_on_c, 0, 85, 88
2, 459068, Note_off_c, 0, 85, 100
2, 459072, Note_on_c, 0, 87, 87
2, 459164, Note_off_c, 0, 87, 100
2, 459168, Note_on_c, 0, 84, 86
2, 459260, Note_off_c, 0, 84, 100
2, 459360, Note_on_c, 0, 78, 82
2, 459452, Note_off_c, 0, 78, 100
2, 459456, Note_on_c, 0, 84, 84
2, 459548, Note_off_c, 0, 84, 100
2, 459552, Note_on_c, 0, 87, 86
2, 459644, Note_off_c, 0, 87, 100
2, 459648, Note_on_c, 0, 90, 88
2, 459740, Note_off_c, 0, 90, 100
2, 459744, Note_on_c, 0, 92, 90
2, 459836, Note_off_c, 0, 92, 100
2, 459840, Note_on_c, 0, 90, 92
2, 459932, Note_off_c, 0, 90, 100
2, 459936, Note_on_c, 0, 89, 94
2, 460028, Note_off_c, 0, 89, 100
2, 460032, Note_on_c, 0, 87, 95
2, 460124, Note_off_c, 0, 87, 100
2, 460128, Note_on_c, 0, 89, 94
2, 460220, Note_off_c, 0, 89, 100
2, 460224, Note_on_c, 0, 87, 93
2, 460316, Note_off_c, 0, 87, 100
2, 460320, Note_on_c, 0, 85, 91
2, 460412, Note_off_c, 0, 85, 100
2, 460416, Note_on_c, 0, 84, 90
2, 460508, Note_off_c, 0, 84, 100
2, 460512, Note_on_c, 0, 85, 88
2, 460604, Note_off_c, 0, 85, 100
2, 460608, Note_on_c, 0, 87, 87
2, 460700, Note_off_c, 0, 87, 100
2, 460704, Note_on_c, 0, 84, 86
2, 460796, Note_off_c, 0, 84, 100
2, 460800, Note_on_c, 0, 77, 90
2, 460892, Note_off_c, 0, 77, 100
2, 460896, Note_on_c, 0, 80, 90
2, 460988, Note_off_c, 0, 80, 100
2, 460992, Note_on_c, 0, 85, 90
2, 461084, Note_off_c, 0, 85, 100
2, 461088, Note_on_c, 0, 89, 90
2, 461180, Note_off_c, 0, 89, 100
2, 461184, Note_on_c, 0, 92, 90
2, 461276, Note_off_c, 0, 92, 100
2, 461280, Note_on_c, 0, 94, 90
2, 461372, Note_off_c, 0, 94, 100
2, 461376, Note_on_c, 0, 92, 90
2, 461468, Note_off_c, 0, 92, 100
2, 461472, Note_on_c, 0, 90, 90
2, 461564, Note_off_c, 0, 90, 100
2, 461568, Note_on_c, 0, 89, 90
2, 461660, Note_off_c, 0, 89, 100
2, 461664, Note_on_c, 0, 90, 90
2, 461756, Note_off_c, 0, 90, 100
2, 461760, Note_on_c, 0, 89, 90
2, 461852, Note_off_c, 0, 89, 100
2, 461856, Note_on_c, 0, 87, 90
2, 461948, Note_off_c, 0, 87, 100
2, 461952, Note_on_c, 0, 85, 90
2, 462044, Note_off_c, 0, 85, 100
2, 462048, Note_on_c, 0, 87, 90
2, 462140, Note_off_c, 0, 87, 100
2, 462144, Note_on_c, 0, 89, 90
2, 462236, Note_off_c, 0, 89, 100
2, 462240, Note_on_c, 0, 85, 90
2, 462332, Note_off_c, 0, 85, 100
2, 462432, Note_on_c, 0, 80, 86
2, 462524, Note_off_c, 0, 80, 100
2, 462528, Note_on_c, 0, 85, 88
2, 462620, Note_off_c, 0, 85, 100
2, 462624, Note_on_c, 0, 89, 89
2, 462716, Note_off_c, 0, 89, 100
2, 462720, Note_on_c, 0, 92, 91
2, 462812, Note_off_c, 0, 92, 100
2, 462816, Note_on_c, 0, 94, 92
2, 462908, Note_off_c, 0, 94, 100
2, 462912, Note_on_c, 0, 92, 94
2, 463004, Note_off_c, 0, 92, 100
2, 463008, Note_on_c, 0, 90, 95
2, 463100, Note_off_c, 0, 90, 100
2, 463104, Note_on_c, 0, 89, 97
2, 463196, Note_off_c, 0, 89, 100
2, 463200, Note_on_c, 0, 90, 99
2, 463292, Note_off_c, 0, 90, 100
2, 463296, Note_on_c, 0, 89, 100
2, 463388, Note_off_c, 0, 89, 100
2, 463392, Note_on_c, 0, 87, 102
2, 463484, Note_off_c, 0, 87, 100
2, 463488, Note_on_c, 0, 85, 103
2, 463580, Note_off_c, 0, 85, 100
2, 463584, Note_on_c, 0, 87, 105
2, 463676, Note_off_c, 0, 87, 100
2, 463680, Note_on_c, 0, 89, 106
2, 463772, Note_off_c, 0, 89, 100
2, 463776, Note_on_c, 0, 85, 108
2, 463868, Note_off_c, 0, 85, 100
2, 463968, Note_on_c, 0, 90, 80
2, 464060, Note_off_c, 0, 90, 100
2, 464064, Note_on_c, 0, 92, 80
2, 464156, Note_off_c, 0, 92, 100
2, 464160, Note_on_c, 0, 90, 80
2, 464252, Note_off_c, 0, 90, 100
2, 464256, Note_on_c, 0, 92, 80
2, 464348, Note_off_c, 0, 92, 100
2, 464352, Note_on_c, 0, 90, 80
2, 464444, Note_off_c, 0, 90, 100
2, 464448, Note_on_c, 0, 89, 80
2, 464540, Note_off_c, 0, 89, 100
2, 464544, Note_on_c, 0, 90, 80
2, 464636, Note_off_c, 0, 90, 100
2, 464736, Note_on_c, 0, 88, 80
2, 464828, Note_off_c, 0, 88, 100
2, 464832, Note_on_c, 0, 89, 80
2, 464924, Note_off_c, 0, 89, 100
2, 464928, Note_on_c, 0, 88, 80
2, 465020, Note_off_c, 0, 88, 100
2, 465120, Note_on_c, 0, 89, 80
2, 465212, Note_off_c, 0, 89, 100
2, 465216, Note_on_c, 0, 91, 80
2, 465308, Note_off_c, 0, 91, 100
2, 465312, Note_on_c, 0, 89, 80
2, 465404, Note_off_c, 0, 89, 100
2, 465504, Note_on_c, 0, 90, 80
2, 465596, Note_off_c, 0, 90, 100
2, 465600, Note_on_c, 0, 92, 80
2, 465692, Note_off_c, 0, 92, 100
2, 465696, Note_on_c, 0, 90, 80
2, 465788, Note_off_c, 0, 90, 100
2, 465792, Note_on_c, 0, 92, 80
2, 465884, Note_off_c, 0, 92, 100
2, 465888, Note_on_c, 0, 90, 80
2, 465980, Note_off_c, 0, 90, 100
2, 465984, Note_on_c, 0, 89, 80
2, 466076, Note_off_c, 0, 89, 100
2, 466080, Note_on_c, 0, 90, 80
2, 466172, Note_off_c, 0, 90, 100
2, 466272, Note_on_c, 0, 88, 80
2, 466364, Note_off_c, 0, 88, 100
2, 466368, Note_on_c, 0, 89, 80
2, 466460, Note_off_c, 0, 89, 100
2, 466464, Note_on_c, 0, 88, 80
2, 466556, Note_off_c, 0, 88, 100
2, 466656, Note_on_c, 0, 89, 80
2, 466748, Note_off_c, 0, 89, 100
2, 466752, Note_on_c, 0, 91, 80
2, 466844, Note_off_c, 0, 91, 100
2, 466848, Note_on_c, 0, 89, 80
2, 466940, Note_off_c, 0, 89, 100
2, 467040, Note_on_c, 0, 90, 80
2, 467132, Note_off_c, 0, 90, 100
2, 467136, Note_on_c, 0, 92, 80
2, 467228, Note_off_c, 0, 92, 100
2, 467232, Note_on_c, 0, 90, 80
2, 467324, Note_off_c, 0, 90, 100
2, 467328, Note_on_c, 0, 92, 80
2, 467420, Note_off_c, 0, 92, 100
2, 467424, Note_on_c, 0, 90, 80
2, 467516, Note_off_c, 0, 90, 100
2, 467520, Note_on_c, 0, 89, 80
2, 467612, Note_off_c, 0, 89, 100
2, 467616, Note_on_c, 0, 90, 80
2, 467708, Note_off_c, 0, 90, 100
2, 467808, Note_on_c, 0, 88, 86
2, 467900, Note_off_c, 0, 88, 100
2, 467904, Note_on_c, 0, 89, 87
2, 467996, Note_off_c, 0, 89, 100
2, 468000, Note_on_c, 0, 88, 88
2, 468092, Note_off_c, 0, 88, 100
2, 468192, Note_on_c, 0, 85, 90
2, 468284, Note_off_c, 0, 85, 100
2, 468288, Note_on_c, 0, 87, 91
2, 468380, Note_off_c, 0, 87, 100
2, 468384, Note_on_c, 0, 85, 92
2, 468476, Note_off_c, 0, 85, 100
2, 468576, Note_on_c, 0, 84, 94
2, 468668, Note_off_c, 0, 84, 100
2, 468672, Note_on_c, 0, 85, 95
2, 468764, Note_off_c, 0, 85, 100
2, 468768, Note_on_c, 0, 84, 96
2, 468860, Note_off_c, 0, 84, 100
2, 468960, Note_on_c, 0, 83, 99
2, 469052, Note_off_c, 0, 83, 100
2, 469056, Note_on_c, 0, 84, 100
2, 469148, Note_off_c, 0, 84, 100
2, 469152, Note_on_c, 0, 83, 101
2, 469244, Note_off_c, 0, 83, 100
2, 469344, Note_on_c, 0, 82, 103
2, 469436, Note_off_c, 0, 82, 100
2, 469440, Note_on_c, 0, 84, 104
2, 469532, Note_off_c, 0, 84, 100
2, 469536, Note_on_c, 0, 82, 105
2, 469628, Note_off_c, 0, 82, 100
2, 469728, Note_on_c, 0, 80, 107
2, 469820, Note_off_c, 0, 80, 100
2, 469824, Note_on_c, 0, 82, 108
2, 469916, Note_off_c, 0, 82, 100
2, 469920, Note_on_c, 0, 80, 109
2, 470012, Note_off_c, 0, 80, 100
2, 470112, Note_on_c, 0, 80, 109
2, 470204, Note_off_c, 0, 80, 100
2, 470208, Note_on_c, 0, 82, 108
2, 470300, Note_off_c, 0, 82, 100
2, 470304, Note_on_c, 0, 80, 107
2, 470396, Note_off_c, 0, 80, 100
2, 470496, Note_on_c, 0, 79, 104
2, 470588, Note_off_c, 0, 79, 100
2, 470592, Note_on_c, 0, 80, 103
2, 470684, Note_off_c, 0, 80, 100
2, 470688, Note_on_c, 0, 79, 101
2, 470780, Note_off_c, 0, 79, 100
2, 470880, Note_on_c, 0, 77, 99
2, 470972, Note_off_c, 0, 77, 100
2, 470976, Note_on_c, 0, 79, 97
2, 471068, Note_off_c, 0, 79, 100
2, 471072, Note_on_c, 0, 77, 96
2, 471164, Note_off_c, 0, 77, 100
2, 471264, Note_on_c, 0, 76, 93
2, 471356, Note_off_c, 0, 76, 100
2, 471360, Note_on_c, 0, 77, 92
2, 471452, Note_off_c, 0, 77, 100
2, 471456, Note_on_c, 0, 76, 91
2, 471548, Note_off_c, 0, 76, 100
2, 471648, Note_on_c, 0, 61, 90
2, 471744, Note_on_c, 0, 73, 90
2, 471828, Note_off_c, 0, 61, 100
2, 471840, Note_on_c, 0, 61, 91
2, 471916, Note_off_c, 0, 73, 100
2, 471936, Note_on_c, 0, 73, 91
2, 472020, Note_off_c, 0, 61, 100
2, 472032, Note_on_c, 0, 61, 92
2, 472108, Note_off_c, 0, 73, 100
2, 472128, Note_on_c, 0, 73, 92
2, 472196, Note_off_c, 0, 61, 100
2, 472224, Note_on_c, 0, 61, 93
2, 472296, Note_off_c, 0, 73, 100
2, 472316, Note_off_c, 0, 61, 100
2, 472416, Note_on_c, 0, 61, 94
2, 472508, Note_off_c, 0, 61, 100
2, 472512, Note_on_c, 0, 73, 94
2, 472604, Note_off_c, 0, 73, 100
2, 472608, Note_on_c, 0, 72, 95
2, 472700, Note_off_c, 0, 72, 100
2, 472704, Note_on_c, 0, 70, 95
2, 472796, Note_off_c, 0, 70, 100
2, 472800, Note_on_c, 0, 68, 96
2, 472892, Note_off_c, 0, 68, 100
2, 472896, Note_on_c, 0, 67, 96
2, 472988, Note_off_c, 0, 67, 100
2, 472992, Note_on_c, 0, 65, 97
2, 473084, Note_off_c, 0, 65, 100
2, 473184, Note_on_c, 0, 73, 98
2, 473280, Note_on_c, 0, 85, 98
2, 473352, Note_off_c, 0, 73, 100
2, 473376, Note_on_c, 0, 73, 99
2, 473448, Note_off_c, 0, 85, 100
2, 473472, Note_on_c, 0, 85, 99
2, 473540, Note_off_c, 0, 73, 100
2, 473568, Note_on_c, 0, 73, 99
2, 473644, Note_off_c, 0, 85, 100
2, 473664, Note_on_c, 0, 85, 100
2, 473740, Note_off_c, 0, 73, 100
2, 473760, Note_on_c, 0, 73, 100
2, 473832, Note_off_c, 0, 85, 100
2, 473852, Note_off_c, 0, 73, 100
2, 473952, Note_on_c, 0, 73, 101
2, 474044, Note_off_c, 0, 73, 100
2, 474048, Note_on_c, 0, 85, 102
2, 474140, Note_off_c, 0, 85, 100
2, 474144, Note_on_c, 0, 84, 102
2, 474236, Note_off_c, 0, 84, 100
2, 474240, Note_on_c, 0, 82, 103
2, 474332, Note_off_c, 0, 82, 100
2, 474336, Note_on_c, 0, 80, 103
2, 474428, Note_off_c, 0, 80, 100
2, 474432, Note_on_c, 0, 79, 104
2, 474524, Note_off_c, 0, 79, 100
2, 474528, Note_on_c, 0, 77, 104
2, 474620, Note_off_c, 0, 77, 100
2, 474720, Note_on_c, 0, 61, 105
2, 474816, Note_on_c, 0, 73, 106
2, 474908, Note_off_c, 0, 61, 100
2, 474912, Note_on_c, 0, 61, 106
2, 474988, Note_off_c, 0, 73, 100
2, 475008, Note_on_c, 0, 73, 107
2, 475084, Note_off_c, 0, 61, 100
2, 475104, Note_on_c, 0, 61, 107
2, 475176, Note_off_c, 0, 73, 100
2, 475200, Note_on_c, 0, 73, 108
2, 475276, Note_off_c, 0, 61, 100
2, 475296, Note_on_c, 0, 61, 108
2, 475372, Note_off_c, 0, 73, 100
2, 475388, Note_off_c, 0, 61, 100
2, 475488, Note_on_c, 0, 73, 109
2, 475584, Note_on_c, 0, 61, 109
2, 475652, Note_off_c, 0, 73, 100
2, 475680, Note_on_c, 0, 73, 110
2, 475744, Note_off_c, 0, 61, 100
2, 475844, Note_off_c, 0, 73, 100
2, 475872, Note_on_c, 0, 85, 111
2, 475968, Note_on_c, 0, 73, 111
2, 476044, Note_off_c, 0, 85, 100
2, 476064, Note_on_c, 0, 85, 112
2, 476152, Note_off_c, 0, 73, 100
2, 476236, Note_off_c, 0, 85, 64
2, 476256, Note_on_c, 0, 84, 113
2, 476352, Note_on_c, 0, 72, 113
2, 476424, Note_off_c, 0, 84, 100
2, 476448, Note_on_c, 0, 84, 114
2, 476516, Note_off_c, 0, 72, 100
2, 476612, Note_off_c, 0, 84, 100
2, 476640, Note_on_c, 0, 83, 115
2, 476736, Note_on_c, 0, 71, 115
2, 476800, Note_off_c, 0, 83, 100
2, 476832, Note_on_c, 0, 83, 116
2, 476912, Note_off_c, 0, 71, 100
2, 476996, Note_off_c, 0, 83, 64
2, 477024, Note_on_c, 0, 82, 117
2, 477120, Note_on_c, 0, 70, 117
2, 477196, Note_off_c, 0, 82, 100
2, 477216, Note_on_c, 0, 82, 118
2, 477284, Note_off_c, 0, 70, 100
2, 477380, Note_off_c, 0, 82, 100
2, 477408, Note_on_c, 0, 80, 119
2, 477504, Note_on_c, 0, 72, 119
2, 477504, Note_on_c, 0, 68, 119
2, 477584, Note_off_c, 0, 80, 100
2, 477600, Note_on_c, 0, 80, 119
2, 477676, Note_off_c, 0, 72, 100
2, 477680, Note_off_c, 0, 68, 100
2, 477764, Note_off_c, 0, 80, 64
2, 477792, Note_on_c, 0, 80, 119
2, 477888, Note_on_c, 0, 74, 118
2, 477888, Note_on_c, 0, 68, 118
2, 477960, Note_off_c, 0, 80, 100
2, 477984, Note_on_c, 0, 80, 117
2, 478048, Note_off_c, 0, 74, 100
2, 478052, Note_off_c, 0, 68, 100
2, 478148, Note_off_c, 0, 80, 100
2, 478176, Note_on_c, 0, 79, 114
2, 478272, Note_on_c, 0, 74, 113
2, 478272, Note_on_c, 0, 67, 113
2, 478340, Note_off_c, 0, 79, 100
2, 478368, Note_on_c, 0, 79, 111
2, 478440, Note_off_c, 0, 67, 100
2, 478452, Note_off_c, 0, 74, 100
2, 478544, Note_off_c, 0, 79, 64
2, 478560, Note_on_c, 0, 77, 109
2, 478656, Note_on_c, 0, 68, 107
2, 478656, Note_on_c, 0, 65, 107
2, 478744, Note_off_c, 0, 77, 100
2, 478752, Note_on_c, 0, 77, 106
2, 478824, Note_off_c, 0, 65, 100
2, 478828, Note_off_c, 0, 68, 100
2, 478932, Note_off_c, 0, 77, 100
2, 478944, Note_on_c, 0, 76, 103
2, 479040, Note_on_c, 0, 67, 102
2, 479040, Note_on_c, 0, 64, 102
2, 479108, Note_off_c, 0, 76, 100
2, 479136, Note_on_c, 0, 76, 101
2, 479208, Note_off_c, 0, 64, 100
2, 479224, Note_off_c, 0, 67, 100
2, 479228, Note_off_c, 0, 76, 100
2, 479232, Note_on_c, 0, 77, 110
2, 479232, Note_on_c, 0, 68, 110
2, 479232, Note_on_c, 0, 65, 110
2, 479324, Note_off_c, 0, 77, 100
2, 479324, Note_off_c, 0, 68, 100
2, 479324, Note_off_c, 0, 65, 100
2, 479328, Note_on_c, 0, 60, 110
2, 479420, Note_off_c, 0, 60, 100
2, 479424, Note_on_c, 0, 65, 110
2, 479516, Note_off_c, 0, 65, 100
2, 479520, Note_on_c, 0, 68, 110
2, 479612, Note_off_c, 0, 68, 100
2, 479616, Note_on_c, 0, 72, 110
2, 479708, Note_off_c, 0, 72, 100
2, 479712, Note_on_c, 0, 73, 110
2, 479804, Note_off_c, 0, 73, 100
2, 479808, Note_on_c, 0, 72, 110
2, 479900, Note_off_c, 0, 72, 100
2, 479904, Note_on_c, 0, 70, 110
2, 479996, Note_off_c, 0, 70, 100
2, 480000, Note_on_c, 0, 68, 110
2, 480092, Note_off_c, 0, 68, 100
2, 480096, Note_on_c, 0, 70, 110
2, 480188, Note_off_c, 0, 70, 100
2, 480192, Note_on_c, 0, 68, 110
2, 480284, Note_off_c, 0, 68, 100
2, 480288, Note_on_c, 0, 67, 110
2, 480380, Note_off_c, 0, 67, 100
2, 480384, Note_on_c, 0, 65, 110
2, 480476, Note_off_c, 0, 65, 100
2, 480480, Note_on_c, 0, 63, 110
2, 480572, Note_off_c, 0, 63, 100
2, 480576, Note_on_c, 0, 61, 110
2, 480668, Note_off_c, 0, 61, 100
2, 480672, Note_on_c, 0, 60, 110
2, 480764, Note_off_c, 0, 60, 100
2, 480768, Note_on_c, 0, 58, 110
2, 480860, Note_off_c, 0, 58, 100
2, 480864, Note_on_c, 0, 56, 110
2, 480956, Note_off_c, 0, 56, 100
2, 480960, Note_on_c, 0, 55, 110
2, 481052, Note_off_c, 0, 55, 100
2, 481056, Note_on_c, 0, 53, 110
2, 481148, Note_off_c, 0, 53, 100
2, 481152, Note_on_c, 0, 52, 110
2, 481340, Note_off_c, 0, 52, 100
2, 481344, Note_on_c, 0, 60, 110
2, 481344, Note_on_c, 0, 55, 110
2, 481344, Note_on_c, 0, 52, 110
2, 481344, Note_on_c, 0, 48, 110
2, 481532, Note_off_c, 0, 60, 100
2, 481532, Note_off_c, 0, 55, 100
2, 481532, Note_off_c, 0, 52, 100
2, 481532, Note_off_c, 0, 48, 100
2, 481536, Note_on_c, 0, 60, 110
2, 481536, Note_on_c, 0, 58, 110
2, 481536, Note_on_c, 0, 52, 110
2, 481536, Note_on_c, 0, 48, 110
2, 481724, Note_off_c, 0, 60, 100
2, 481724, Note_off_c, 0, 58, 100
2, 481724, Note_off_c, 0, 52, 100
2, 481724, Note_off_c, 0, 48, 100
2, 481728, Note_on_c, 0, 60, 110
2, 481728, Note_on_c, 0, 58, 110
2, 481728, Note_on_c, 0, 52, 110
2, 481728, Note_on_c, 0, 48, 110
2, 481916, Note_off_c, 0, 60, 100
2, 481916, Note_off_c, 0, 58, 100
2, 481916, Note_off_c, 0, 52, 100
2, 481916, Note_off_c, 0, 48, 100
2, 481920, Note_on_c, 0, 60, 110
2, 481920, Note_on_c, 0, 58, 110
2, 481920, Note_on_c, 0, 52, 110
2, 481920, Note_on_c, 0, 48, 110
2, 482108, Note_off_c, 0, 60, 100
2, 482108, Note_off_c, 0, 58, 100
2, 482108, Note_off_c, 0, 52, 100
2, 482108, Note_off_c, 0, 48, 100
2, 482112, Note_on_c, 0, 60, 110
2, 482112, Note_on_c, 0, 58, 110
2, 482112, Note_on_c, 0, 52, 110
2, 482112, Note_on_c, 0, 48, 110
2, 482300, Note_off_c, 0, 60, 100
2, 482300, Note_off_c, 0, 58, 100
2, 482300, Note_off_c, 0, 52, 100
2, 482300, Note_off_c, 0, 48, 100
2, 482304, Note_on_c, 0, 60, 110
2, 482304, Note_on_c, 0, 56, 110
2, 482304, Note_on_c, 0, 53, 110
2, 482304, Note_on_c, 0, 48, 110
2, 482396, Note_off_c, 0, 60, 100
2, 482396, Note_off_c, 0, 56, 100
2, 482396, Note_off_c, 0, 53, 100
2, 482396, Note_off_c, 0, 48, 100
2, 482400, Note_on_c, 0, 72, 110
2, 482492, Note_off_c, 0, 72, 100
2, 482496, Note_on_c, 0, 77, 110
2, 482588, Note_off_c, 0, 77, 100
2, 482592, Note_on_c, 0, 80, 110
2, 482684, Note_off_c, 0, 80, 100
2, 482688, Note_on_c, 0, 84, 110
2, 482780, Note_off_c, 0, 84, 100
2, 482784, Note_on_c, 0, 85, 110
2, 482876, Note_off_c, 0, 85, 100
2, 482880, Note_on_c, 0, 84, 110
2, 482972, Note_off_c, 0, 84, 100
2, 482976, Note_on_c, 0, 82, 110
2, 483068, Note_off_c, 0, 82, 100
2, 483072, Note_on_c, 0, 80, 110
2, 483164, Note_off_c, 0, 80, 100
2, 483168, Note_on_c, 0, 82, 110
2, 483260, Note_off_c, 0, 82, 100
2, 483264, Note_on_c, 0, 80, 110
2, 483356, Note_off_c, 0, 80, 100
2, 483360, Note_on_c, 0, 79, 110
2, 483452, Note_off_c, 0, 79, 100
2, 483456, Note_on_c, 0, 77, 110
2, 483548, Note_off_c, 0, 77, 100
2, 483552, Note_on_c, 0, 75, 110
2, 483644, Note_off_c, 0, 75, 100
2, 483648, Note_on_c, 0, 73, 110
2, 483740, Note_off_c, 0, 73, 100
2, 483744, Note_on_c, 0, 72, 110
2, 483836, Note_off_c, 0, 72, 100
2, 483840, Note_on_c, 0, 70, 110
2, 483932, Note_off_c, 0, 70, 100
2, 483936, Note_on_c, 0, 68, 110
2, 484028, Note_off_c, 0, 68, 100
2, 484032, Note_on_c, 0, 67, 110
2, 484124, Note_off_c, 0, 67, 100
2, 484128, Note_on_c, 0, 65, 110
2, 484220, Note_off_c, 0, 65, 100
2, 484224, Note_on_c, 0, 64, 110
2, 484412, Note_off_c, 0, 64, 100
2, 484416, Note_on_c, 0, 72, 110
2, 484416, Note_on_c, 0, 67, 110
2, 484416, Note_on_c, 0, 64, 110
2, 484416, Note_on_c, 0, 60, 110
2, 484604, Note_off_c, 0, 72, 100
2, 484604, Note_off_c, 0, 67, 100
2, 484604, Note_off_c, 0, 64, 100
2, 484604, Note_off_c, 0, 60, 100
2, 484608, Note_on_c, 0, 72, 110
2, 484608, Note_on_c, 0, 70, 110
2, 484608, Note_on_c, 0, 64, 110
2, 484608, Note_on_c, 0, 60, 110
2, 484796, Note_off_c, 0, 72, 100
2, 484796, Note_off_c, 0, 70, 100
2, 484796, Note_off_c, 0, 64, 100
2, 484796, Note_off_c, 0, 60, 100
2, 484800, Note_on_c, 0, 72, 110
2, 484800, Note_on_c, 0, 70, 110
2, 484800, Note_on_c, 0, 64, 110
2, 484800, Note_on_c, 0, 60, 110
2, 484988, Note_off_c, 0, 72, 100
2, 484988, Note_off_c, 0, 70, 100
2, 484988, Note_off_c, 0, 64, 100
2, 484988, Note_off_c, 0, 60, 100
2, 484992, Note_on_c, 0, 72, 110
2, 484992, Note_on_c, 0, 70, 110
2, 484992, Note_on_c, 0, 64, 110
2, 484992, Note_on_c, 0, 60, 110
2, 485180, Note_off_c, 0, 72, 100
2, 485180, Note_off_c, 0, 70, 100
2, 485180, Note_off_c, 0, 64, 100
2, 485180, Note_off_c, 0, 60, 100
2, 485184, Note_on_c, 0, 72, 110
2, 485184, Note_on_c, 0, 70, 110
2, 485184, Note_on_c, 0, 64, 110
2, 485184, Note_on_c, 0, 60, 110
2, 485372, Note_off_c, 0, 72, 100
2, 485372, Note_off_c, 0, 70, 100
2, 485372, Note_off_c, 0, 64, 100
2, 485372, Note_off_c, 0, 60, 100
2, 485376, Note_on_c, 0, 72, 110
2, 485376, Note_on_c, 0, 68, 110
2, 485376, Note_on_c, 0, 65, 110
2, 485376, Note_on_c, 0, 60, 110
2, 485756, Note_off_c, 0, 72, 100
2, 485756, Note_off_c, 0, 68, 100
2, 485756, Note_off_c, 0, 65, 100
2, 485756, Note_off_c, 0, 60, 100
2, 485952, Note_on_c, 0, 84, 110
2, 485952, Note_on_c, 0, 79, 110
2, 485952, Note_on_c, 0, 76, 110
2, 485952, Note_on_c, 0, 72, 110
2, 486140, Note_off_c, 0, 84, 100
2, 486140, Note_off_c, 0, 79, 100
2, 486140, Note_off_c, 0, 76, 100
2, 486140, Note_off_c, 0, 72, 100
2, 486144, Note_on_c, 0, 84, 110
2, 486144, Note_on_c, 0, 82, 110
2, 486144, Note_on_c, 0, 76, 110
2, 486144, Note_on_c, 0, 72, 110
2, 486332, Note_off_c, 0, 84, 100
2, 486332, Note_off_c, 0, 82, 100
2, 486332, Note_off_c, 0, 76, 100
2, 486332, Note_off_c, 0, 72, 100
2, 486336, Note_on_c, 0, 84, 110
2, 486336, Note_on_c, 0, 82, 110
2, 486336, Note_on_c, 0, 76, 110
2, 486336, Note_on_c, 0, 72, 110
2, 486524, Note_off_c, 0, 84, 100
2, 486524, Note_off_c, 0, 82, 100
2, 486524, Note_off_c, 0, 76, 100
2, 486524, Note_off_c, 0, 72, 100
2, 486528, Note_on_c, 0, 84, 110
2, 486528, Note_on_c, 0, 82, 110
2, 486528, Note_on_c, 0, 76, 110
2, 486528, Note_on_c, 0, 72, 110
2, 486716, Note_off_c, 0, 84, 100
2, 486716, Note_off_c, 0, 82, 100
2, 486716, Note_off_c, 0, 76, 100
2, 486716, Note_off_c, 0, 72, 100
2, 486720, Note_on_c, 0, 84, 110
2, 486720, Note_on_c, 0, 82, 110
2, 486720, Note_on_c, 0, 76, 110
2, 486720, Note_on_c, 0, 72, 110
2, 486908, Note_off_c, 0, 84, 100
2, 486908, Note_off_c, 0, 82, 100
2, 486908, Note_off_c, 0, 76, 100
2, 486908, Note_off_c, 0, 72, 100
2, 486912, Note_on_c, 0, 84, 110
2, 486912, Note_on_c, 0, 80, 110
2, 486912, Note_on_c, 0, 77, 110
2, 486912, Note_on_c, 0, 72, 110
2, 487292, Note_off_c, 0, 84, 100
2, 487292, Note_off_c, 0, 80, 100
2, 487292, Note_off_c, 0, 77, 100
2, 487292, Note_off_c, 0, 72, 100
2, 487488, Note_on_c, 0, 72, 110
2, 487488, Note_on_c, 0, 67, 110
2, 487488, Note_on_c, 0, 64, 110
2, 487488, Note_on_c, 0, 60, 110
2, 487676, Note_off_c, 0, 72, 100
2, 487676, Note_off_c, 0, 67, 100
2, 487676, Note_off_c, 0, 64, 100
2, 487676, Note_off_c, 0, 60, 100
2, 487680, Note_on_c, 0, 72, 111
2, 487680, Note_on_c, 0, 70, 111
2, 487680, Note_on_c, 0, 64, 111
2, 487680, Note_on_c, 0, 60, 111
2, 487868, Note_off_c, 0, 72, 100
2, 487868, Note_off_c, 0, 70, 100
2, 487868, Note_off_c, 0, 64, 100
2, 487868, Note_off_c, 0, 60, 100
2, 487872, Note_on_c, 0, 72, 111
2, 487872, Note_on_c, 0, 70, 111
2, 487872, Note_on_c, 0, 64, 111
2, 487872, Note_on_c, 0, 60, 111
2, 488060, Note_off_c, 0, 72, 100
2, 488060, Note_off_c, 0, 70, 100
2, 488060, Note_off_c, 0, 64, 100
2, 488060, Note_off_c, 0, 60, 100
2, 488064, Note_on_c, 0, 72, 111
2, 488064, Note_on_c, 0, 70, 111
2, 488064, Note_on_c, 0, 64, 111
2, 488064, Note_on_c, 0, 60, 111
2, 488252, Note_off_c, 0, 72, 100
2, 488252, Note_off_c, 0, 70, 100
2, 488252, Note_off_c, 0, 64, 100
2, 488252, Note_off_c, 0, 60, 100
2, 488256, Note_on_c, 0, 72, 111
2, 488256, Note_on_c, 0, 70, 111
2, 488256, Note_on_c, 0, 64, 111
2, 488256, Note_on_c, 0, 60, 111
2, 488444, Note_off_c, 0, 72, 100
2, 488444, Note_off_c, 0, 70, 100
2, 488444, Note_off_c, 0, 64, 100
2, 488444, Note_off_c, 0, 60, 100
2, 488448, Note_on_c, 0, 72, 112
2, 488448, Note_on_c, 0, 68, 112
2, 488448, Note_on_c, 0, 65, 112
2, 488448, Note_on_c, 0, 60, 112
2, 488540, Note_off_c, 0, 72, 100
2, 488540, Note_off_c, 0, 68, 100
2, 488540, Note_off_c, 0, 65, 100
2, 488540, Note_off_c, 0, 60, 100
2, 488544, Note_on_c, 0, 67, 112
2, 488636, Note_off_c, 0, 67, 100
2, 488640, Note_on_c, 0, 68, 112
2, 488732, Note_off_c, 0, 68, 100
2, 488736, Note_on_c, 0, 70, 112
2, 488828, Note_off_c, 0, 70, 100
2, 488832, Note_on_c, 0, 72, 112
2, 488924, Note_off_c, 0, 72, 100
2, 488928, Note_on_c, 0, 74, 112
2, 489020, Note_off_c, 0, 74, 100
2, 489024, Note_on_c, 0, 76, 112
2, 489116, Note_off_c, 0, 76, 100
2, 489120, Note_on_c, 0, 77, 112
2, 489212, Note_off_c, 0, 77, 100
2, 489216, Note_on_c, 0, 79, 113
2, 489308, Note_off_c, 0, 79, 100
2, 489312, Note_on_c, 0, 77, 113
2, 489404, Note_off_c, 0, 77, 100
2, 489408, Note_on_c, 0, 76, 113
2, 489500, Note_off_c, 0, 76, 100
2, 489504, Note_on_c, 0, 74, 113
2, 489596, Note_off_c, 0, 74, 100
2, 489600, Note_on_c, 0, 72, 113
2, 489692, Note_off_c, 0, 72, 100
2, 489696, Note_on_c, 0, 70, 113
2, 489788, Note_off_c, 0, 70, 100
2, 489792, Note_on_c, 0, 68, 113
2, 489884, Note_off_c, 0, 68, 100
2, 489888, Note_on_c, 0, 67, 113
2, 489980, Note_off_c, 0, 67, 100
2, 489984, Note_on_c, 0, 65, 114
2, 490076, Note_off_c, 0, 65, 100
2, 490080, Note_on_c, 0, 67, 114
2, 490172, Note_off_c, 0, 67, 100
2, 490176, Note_on_c, 0, 68, 114
2, 490268, Note_off_c, 0, 68, 100
2, 490272, Note_on_c, 0, 70, 114
2, 490364, Note_off_c, 0, 70, 100
2, 490368, Note_on_c, 0, 72, 114
2, 490460, Note_off_c, 0, 72, 100
2, 490464, Note_on_c, 0, 74, 114
2, 490556, Note_off_c, 0, 74, 100
2, 490560, Note_on_c, 0, 76, 114
2, 490652, Note_off_c, 0, 76, 100
2, 490656, Note_on_c, 0, 77, 114
2, 490748, Note_off_c, 0, 77, 100
2, 490752, Note_on_c, 0, 79, 115
2, 490844, Note_off_c, 0, 79, 100
2, 490848, Note_on_c, 0, 77, 115
2, 490940, Note_off_c, 0, 77, 100
2, 490944, Note_on_c, 0, 76, 115
2, 491036, Note_off_c, 0, 76, 100
2, 491040, Note_on_c, 0, 74, 115
2, 491132, Note_off_c, 0, 74, 100
2, 491136, Note_on_c, 0, 72, 115
2, 491228, Note_off_c, 0, 72, 100
2, 491232, Note_on_c, 0, 70, 115
2, 491324, Note_off_c, 0, 70, 100
2, 491328, Note_on_c, 0, 68, 115
2, 491420, Note_off_c, 0, 68, 100
2, 491424, Note_on_c, 0, 67, 115
2, 491516, Note_off_c, 0, 67, 100
2, 491520, Note_on_c, 0, 65, 116
2, 491612, Note_off_c, 0, 65, 100
2, 491616, Note_on_c, 0, 67, 116
2, 491708, Note_off_c, 0, 67, 100
2, 491712, Note_on_c, 0, 68, 116
2, 491804, Note_off_c, 0, 68, 100
2, 491808, Note_on_c, 0, 70, 116
2, 491900, Note_off_c, 0, 70, 100
2, 491904, Note_on_c, 0, 72, 116
2, 491996, Note_off_c, 0, 72, 100
2, 492000, Note_on_c, 0, 74, 116
2, 492092, Note_off_c, 0, 74, 100
2, 492096, Note_on_c, 0, 76, 116
2, 492188, Note_off_c, 0, 76, 100
2, 492192, Note_on_c, 0, 77, 116
2, 492284, Note_off_c, 0, 77, 100
2, 492288, Note_on_c, 0, 79, 117
2, 492380, Note_off_c, 0, 79, 100
2, 492384, Note_on_c, 0, 78, 117
2, 492476, Note_off_c, 0, 78, 100
2, 492480, Note_on_c, 0, 79, 117
2, 492572, Note_off_c, 0, 79, 100
2, 492576, Note_on_c, 0, 78, 117
2, 492668, Note_off_c, 0, 78, 100
2, 492672, Note_on_c, 0, 79, 117
2, 492764, Note_off_c, 0, 79, 100
2, 492768, Note_on_c, 0, 78, 117
2, 492860, Note_off_c, 0, 78, 100
2, 492864, Note_on_c, 0, 79, 117
2, 492956, Note_off_c, 0, 79, 100
2, 492960, Note_on_c, 0, 78, 117
2, 493052, Note_off_c, 0, 78, 100
2, 493056, Note_on_c, 0, 79, 118
2, 493148, Note_off_c, 0, 79, 100
2, 493152, Note_on_c, 0, 78, 118
2, 493244, Note_off_c, 0, 78, 100
2, 493248, Note_on_c, 0, 79, 118
2, 493340, Note_off_c, 0, 79, 100
2, 493344, Note_on_c, 0, 78, 118
2, 493436, Note_off_c, 0, 78, 100
2, 493440, Note_on_c, 0, 79, 118
2, 493532, Note_off_c, 0, 79, 100
2, 493536, Note_on_c, 0, 78, 118
2, 493628, Note_off_c, 0, 78, 100
2, 493632, Note_on_c, 0, 79, 118
2, 493724, Note_off_c, 0, 79, 100
2, 493728, Note_on_c, 0, 78, 118
2, 493820, Note_off_c, 0, 78, 100
2, 493824, Note_on_c, 0, 79, 119
2, 493916, Note_off_c, 0, 79, 100
2, 493920, Note_on_c, 0, 77, 119
2, 494012, Note_off_c, 0, 77, 100
2, 494016, Note_on_c, 0, 76, 119
2, 494108, Note_off_c, 0, 76, 100
2, 494112, Note_on_c, 0, 73, 119
2, 494204, Note_off_c, 0, 73, 100
2, 494208, Note_on_c, 0, 72, 119
2, 494300, Note_off_c, 0, 72, 100
2, 494304, Note_on_c, 0, 70, 119
2, 494396, Note_off_c, 0, 70, 100
2, 494400, Note_on_c, 0, 68, 119
2, 494492, Note_off_c, 0, 68, 100
2, 494496, Note_on_c, 0, 67, 119
2, 494588, Note_off_c, 0, 67, 100
2, 494592, Note_on_c, 0, 65, 120
2, 494592, Note_on_c, 0, 60, 120
2, 494592, Note_on_c, 0, 56, 120
2, 495356, Note_off_c, 0, 65, 100
2, 495356, Note_off_c, 0, 60, 100
2, 495356, Note_off_c, 0, 56, 100
2, 495360, Note_on_c, 0, 68, 120
2, 495360, Note_on_c, 0, 60, 120
2, 495360, Note_on_c, 0, 56, 120
2, 496124, Note_off_c, 0, 68, 100
2, 496124, Note_off_c, 0, 60, 100
2, 496124, Note_off_c, 0, 56, 100
2, 496128, Note_on_c, 0, 67, 80
2, 496128, Note_on_c, 0, 58, 80
2, 496128, Note_on_c, 0, 55, 80
2, 496316, Note_off_c, 0, 67, 100
2, 496316, Note_off_c, 0, 58, 100
2, 496316, Note_off_c, 0, 55, 100
2, 496320, Note_on_c, 0, 58, 80
2, 496320, Note_on_c, 0, 55, 80
2, 496320, Note_on_c, 0, 64, 80
2, 496508, Note_off_c, 0, 58, 100
2, 496508, Note_off_c, 0, 55, 100
2, 496508, Note_off_c, 0, 64, 100
2, 496512, Note_on_c, 0, 60, 80
2, 496512, Note_on_c, 0, 58, 80
2, 496512, Note_on_c, 0, 55, 80
2, 496700, Note_off_c, 0, 60, 100
2, 496700, Note_off_c, 0, 58, 100
2, 496700, Note_off_c, 0, 55, 100
2, 496704, Note_on_c, 0, 64, 80
2, 496704, Note_on_c, 0, 58, 80
2, 496704, Note_on_c, 0, 55, 80
2, 496892, Note_off_c, 0, 64, 100
2, 496892, Note_off_c, 0, 58, 100
2, 496892, Note_off_c, 0, 55, 100
2, 496896, Note_on_c, 0, 65, 80
2, 496896, Note_on_c, 0, 60, 80
2, 496896, Note_on_c, 0, 56, 80
2, 497084, Note_off_c, 0, 65, 100
2, 497084, Note_off_c, 0, 60, 100
2, 497084, Note_off_c, 0, 56, 100
2, 497088, Note_on_c, 0, 60, 80
2, 497088, Note_on_c, 0, 56, 80
2, 497276, Note_off_c, 0, 60, 100
2, 497276, Note_off_c, 0, 56, 100
2, 497280, Note_on_c, 0, 65, 80
2, 497280, Note_on_c, 0, 60, 80
2, 497280, Note_on_c, 0, 56, 80
2, 497468, Note_off_c, 0, 65, 100
2, 497468, Note_off_c, 0, 60, 100
2, 497468, Note_off_c, 0, 56, 100
2, 497472, Note_on_c, 0, 68, 80
2, 497472, Note_on_c, 0, 60, 80
2, 497472, Note_on_c, 0, 56, 80
2, 497660, Note_off_c, 0, 68, 100
2, 497660, Note_off_c, 0, 60, 100
2, 497660, Note_off_c, 0, 56, 100
2, 497664, Note_on_c, 0, 67, 80
2, 497664, Note_on_c, 0, 58, 80
2, 497664, Note_on_c, 0, 55, 80
2, 497852, Note_off_c, 0, 67, 100
2, 497852, Note_off_c, 0, 58, 100
2, 497852, Note_off_c, 0, 55, 100
2, 497856, Note_on_c, 0, 58, 80
2, 497856, Note_on_c, 0, 55, 80
2, 497856, Note_on_c, 0, 64, 80
2, 498044, Note_off_c, 0, 58, 100
2, 498044, Note_off_c, 0, 55, 100
2, 498044, Note_off_c, 0, 64, 100
2, 498048, Note_on_c, 0, 60, 80
2, 498048, Note_on_c, 0, 58, 80
2, 498048, Note_on_c, 0, 55, 80
2, 498236, Note_off_c, 0, 60, 100
2, 498236, Note_off_c, 0, 58, 100
2, 498236, Note_off_c, 0, 55, 100
2, 498240, Note_on_c, 0, 64, 80
2, 498240, Note_on_c, 0, 58, 80
2, 498240, Note_on_c, 0, 55, 80
2, 498428, Note_off_c, 0, 64, 100
2, 498428, Note_off_c, 0, 58, 100
2, 498428, Note_off_c, 0, 55, 100
2, 498432, Note_on_c, 0, 65, 80
2, 498432, Note_on_c, 0, 60, 80
2, 498432, Note_on_c, 0, 56, 80
2, 498620, Note_off_c, 0, 65, 100
2, 498620, Note_off_c, 0, 60, 100
2, 498620, Note_off_c, 0, 56, 100
2, 498624, Note_on_c, 0, 60, 80
2, 498624, Note_on_c, 0, 56, 80
2, 498812, Note_off_c, 0, 60, 100
2, 498812, Note_off_c, 0, 56, 100
2, 498816, Note_on_c, 0, 65, 80
2, 498816, Note_on_c, 0, 60, 80
2, 498816, Note_on_c, 0, 56, 80
2, 499004, Note_off_c, 0, 65, 100
2, 499004, Note_off_c, 0, 60, 100
2, 499004, Note_off_c, 0, 56, 100
2, 499008, Note_on_c, 0, 68, 80
2, 499008, Note_on_c, 0, 60, 80
2, 499008, Note_on_c, 0, 56, 80
2, 499196, Note_off_c, 0, 68, 100
2, 499196, Note_off_c, 0, 60, 100
2, 499196, Note_off_c, 0, 56, 100
2, 499200, Note_on_c, 0, 67, 80
2, 499200, Note_on_c, 0, 60, 80
2, 499200, Note_on_c, 0, 55, 80
2, 499388, Note_off_c, 0, 67, 100
2, 499388, Note_off_c, 0, 60, 100
2, 499388, Note_off_c, 0, 55, 100
2, 499392, Note_on_c, 0, 63, 80
2, 499392, Note_on_c, 0, 60, 80
2, 499392, Note_on_c, 0, 55, 80
2, 499580, Note_off_c, 0, 63, 100
2, 499580, Note_off_c, 0, 60, 100
2, 499580, Note_off_c, 0, 55, 100
2, 499584, Note_on_c, 0, 62, 80
2, 499584, Note_on_c, 0, 59, 80
2, 499584, Note_on_c, 0, 55, 80
2, 499772, Note_off_c, 0, 62, 100
2, 499772, Note_off_c, 0, 59, 100
2, 499772, Note_off_c, 0, 55, 100
2, 499776, Note_on_c, 0, 67, 80
2, 499776, Note_on_c, 0, 59, 80
2, 499776, Note_on_c, 0, 55, 80
2, 499964, Note_off_c, 0, 67, 100
2, 499964, Note_off_c, 0, 59, 100
2, 499964, Note_off_c, 0, 55, 100
2, 499968, Note_on_c, 0, 60, 80
2, 500348, Note_off_c, 0, 60, 100
2, 500544, Note_on_c, 0, 60, 100
2, 500604, Note_off_c, 0, 60, 100
2, 500608, Note_on_c, 0, 62, 109
2, 500668, Note_off_c, 0, 62, 100
2, 500672, Note_on_c, 0, 64, 119
2, 500732, Note_off_c, 0, 64, 100
2, 500736, Note_on_c, 0, 65, 120
2, 500736, Note_on_c, 0, 60, 120
2, 500736, Note_on_c, 0, 56, 120
2, 501500, Note_off_c, 0, 65, 100
2, 501500, Note_off_c, 0, 60, 100
2, 501500, Note_off_c, 0, 56, 100
2, 501504, Note_on_c, 0, 68, 120
2, 501504, Note_on_c, 0, 60, 120
2, 501504, Note_on_c, 0, 56, 120
2, 502268, Note_off_c, 0, 68, 100
2, 502268, Note_off_c, 0, 60, 100
2, 502268, Note_off_c, 0, 56, 100
2, 502272, Note_on_c, 0, 67, 80
2, 502272, Note_on_c, 0, 58, 80
2, 502272, Note_on_c, 0, 55, 80
2, 502460, Note_off_c, 0, 67, 100
2, 502460, Note_off_c, 0, 58, 100
2, 502460, Note_off_c, 0, 55, 100
2, 502464, Note_on_c, 0, 58, 80
2, 502464, Note_on_c, 0, 55, 80
2, 502464, Note_on_c, 0, 64, 80
2, 502652, Note_off_c, 0, 58, 100
2, 502652, Note_off_c, 0, 55, 100
2, 502652, Note_off_c, 0, 64, 100
2, 502656, Note_on_c, 0, 60, 80
2, 502656, Note_on_c, 0, 58, 80
2, 502656, Note_on_c, 0, 55, 80
2, 502844, Note_off_c, 0, 60, 100
2, 502844, Note_off_c, 0, 58, 100
2, 502844, Note_off_c, 0, 55, 100
2, 502848, Note_on_c, 0, 64, 80
2, 502848, Note_on_c, 0, 58, 80
2, 502848, Note_on_c, 0, 55, 80
2, 503036, Note_off_c, 0, 64, 100
2, 503036, Note_off_c, 0, 58, 100
2, 503036, Note_off_c, 0, 55, 100
2, 503040, Note_on_c, 0, 65, 80
2, 503040, Note_on_c, 0, 60, 80
2, 503040, Note_on_c, 0, 56, 80
2, 503228, Note_off_c, 0, 65, 100
2, 503228, Note_off_c, 0, 60, 100
2, 503228, Note_off_c, 0, 56, 100
2, 503232, Note_on_c, 0, 60, 80
2, 503232, Note_on_c, 0, 56, 80
2, 503420, Note_off_c, 0, 60, 100
2, 503420, Note_off_c, 0, 56, 100
2, 503424, Note_on_c, 0, 65, 80
2, 503424, Note_on_c, 0, 60, 80
2, 503424, Note_on_c, 0, 56, 80
2, 503612, Note_off_c, 0, 65, 100
2, 503612, Note_off_c, 0, 60, 100
2, 503612, Note_off_c, 0, 56, 100
2, 503616, Note_on_c, 0, 68, 80
2, 503616, Note_on_c, 0, 60, 80
2, 503616, Note_on_c, 0, 56, 80
2, 503804, Note_off_c, 0, 68, 100
2, 503804, Note_off_c, 0, 60, 100
2, 503804, Note_off_c, 0, 56, 100
2, 503808, Note_on_c, 0, 67, 80
2, 503808, Note_on_c, 0, 58, 80
2, 503808, Note_on_c, 0, 55, 80
2, 503996, Note_off_c, 0, 67, 100
2, 503996, Note_off_c, 0, 58, 100
2, 503996, Note_off_c, 0, 55, 100
2, 504000, Note_on_c, 0, 58, 80
2, 504000, Note_on_c, 0, 55, 80
2, 504000, Note_on_c, 0, 64, 80
2, 504188, Note_off_c, 0, 58, 100
2, 504188, Note_off_c, 0, 55, 100
2, 504188, Note_off_c, 0, 64, 100
2, 504192, Note_on_c, 0, 60, 80
2, 504192, Note_on_c, 0, 58, 80
2, 504192, Note_on_c, 0, 55, 80
2, 504380, Note_off_c, 0, 60, 100
2, 504380, Note_off_c, 0, 58, 100
2, 504380, Note_off_c, 0, 55, 100
2, 504384, Note_on_c, 0, 64, 80
2, 504384, Note_on_c, 0, 58, 80
2, 504384, Note_on_c, 0, 55, 80
2, 504572, Note_off_c, 0, 64, 100
2, 504572, Note_off_c, 0, 58, 100
2, 504572, Note_off_c, 0, 55, 100
2, 504576, Note_on_c, 0, 65, 80
2, 504576, Note_on_c, 0, 60, 80
2, 504576, Note_on_c, 0, 56, 80
2, 504764, Note_off_c, 0, 65, 100
2, 504764, Note_off_c, 0, 60, 100
2, 504764, Note_off_c, 0, 56, 100
2, 504768, Note_on_c, 0, 60, 80
2, 504768, Note_on_c, 0, 56, 80
2, 504956, Note_off_c, 0, 60, 100
2, 504956, Note_off_c, 0, 56, 100
2, 504960, Note_on_c, 0, 65, 80
2, 504960, Note_on_c, 0, 60, 80
2, 504960, Note_on_c, 0, 56, 80
2, 505148, Note_off_c, 0, 65, 100
2, 505148, Note_off_c, 0, 60, 100
2, 505148, Note_off_c, 0, 56, 100
2, 505152, Note_on_c, 0, 68, 80
2, 505152, Note_on_c, 0, 60, 80
2, 505152, Note_on_c, 0, 56, 80
2, 505340, Note_off_c, 0, 68, 100
2, 505340, Note_off_c, 0, 60, 100
2, 505340, Note_off_c, 0, 56, 100
2, 505344, Note_on_c, 0, 67, 80
2, 505344, Note_on_c, 0, 60, 80
2, 505344, Note_on_c, 0, 55, 80
2, 505532, Note_off_c, 0, 67, 100
2, 505532, Note_off_c, 0, 60, 100
2, 505532, Note_off_c, 0, 55, 100
2, 505536, Note_on_c, 0, 63, 80
2, 505536, Note_on_c, 0, 60, 80
2, 505536, Note_on_c, 0, 55, 80
2, 505724, Note_off_c, 0, 63, 100
2, 505724, Note_off_c, 0, 60, 100
2, 505724, Note_off_c, 0, 55, 100
2, 505728, Note_on_c, 0, 62, 80
2, 505728, Note_on_c, 0, 59, 80
2, 505728, Note_on_c, 0, 55, 80
2, 505916, Note_off_c, 0, 62, 100
2, 505916, Note_off_c, 0, 59, 100
2, 505916, Note_off_c, 0, 55, 100
2, 505920, Note_on_c, 0, 67, 80
2, 505920, Note_on_c, 0, 59, 80
2, 505920, Note_on_c, 0, 55, 80
2, 506108, Note_off_c, 0, 67, 100
2, 506108, Note_off_c, 0, 59, 100
2, 506108, Note_off_c, 0, 55, 100
2, 506112, Note_on_c, 0, 60, 80
2, 506492, Note_off_c, 0, 60, 100
2, 506688, Note_on_c, 0, 63, 100
2, 506748, Note_off_c, 0, 63, 100
2, 506752, Note_on_c, 0, 65, 109
2, 506812, Note_off_c, 0, 65, 100
2, 506816, Note_on_c, 0, 67, 119
2, 506876, Note_off_c, 0, 67, 100
2, 506880, Note_on_c, 0, 68, 120
2, 506880, Note_on_c, 0, 63, 120
2, 506880, Note_on_c, 0, 60, 120
2, 507644, Note_off_c, 0, 68, 100
2, 507644, Note_off_c, 0, 63, 100
2, 507644, Note_off_c, 0, 60, 100
2, 507648, Note_on_c, 0, 72, 120
2, 507648, Note_on_c, 0, 63, 120
2, 507648, Note_on_c, 0, 60, 120
2, 508412, Note_off_c, 0, 72, 100
2, 508412, Note_off_c, 0, 63, 100
2, 508412, Note_off_c, 0, 60, 100
2, 508416, Note_on_c, 0, 70, 80
2, 508416, Note_on_c, 0, 61, 80
2, 508416, Note_on_c, 0, 58, 80
2, 508604, Note_off_c, 0, 70, 100
2, 508604, Note_off_c, 0, 61, 100
2, 508604, Note_off_c, 0, 58, 100
2, 508608, Note_on_c, 0, 67, 80
2, 508608, Note_on_c, 0, 61, 80
2, 508608, Note_on_c, 0, 58, 80
2, 508796, Note_off_c, 0, 67, 100
2, 508796, Note_off_c, 0, 61, 100
2, 508796, Note_off_c, 0, 58, 100
2, 508800, Note_on_c, 0, 63, 80
2, 508800, Note_on_c, 0, 61, 80
2, 508800, Note_on_c, 0, 58, 80
2, 508988, Note_off_c, 0, 63, 100
2, 508988, Note_off_c, 0, 61, 100
2, 508988, Note_off_c, 0, 58, 100
2, 508992, Note_on_c, 0, 67, 80
2, 508992, Note_on_c, 0, 61, 80
2, 508992, Note_on_c, 0, 58, 80
2, 509180, Note_off_c, 0, 67, 100
2, 509180, Note_off_c, 0, 61, 100
2, 509180, Note_off_c, 0, 58, 100
2, 509184, Note_on_c, 0, 68, 80
2, 509184, Note_on_c, 0, 63, 80
2, 509184, Note_on_c, 0, 60, 80
2, 509372, Note_off_c, 0, 68, 100
2, 509372, Note_off_c, 0, 63, 100
2, 509372, Note_off_c, 0, 60, 100
2, 509376, Note_on_c, 0, 63, 80
2, 509376, Note_on_c, 0, 60, 80
2, 509564, Note_off_c, 0, 63, 100
2, 509564, Note_off_c, 0, 60, 100
2, 509568, Note_on_c, 0, 68, 80
2, 509568, Note_on_c, 0, 63, 80
2, 509568, Note_on_c, 0, 60, 80
2, 509756, Note_off_c, 0, 68, 100
2, 509756, Note_off_c, 0, 63, 100
2, 509756, Note_off_c, 0, 60, 100
2, 509760, Note_on_c, 0, 63, 80
2, 509760, Note_on_c, 0, 60, 80
2, 509760, Note_on_c, 0, 72, 80
2, 509948, Note_off_c, 0, 63, 100
2, 509948, Note_off_c, 0, 60, 100
2, 509948, Note_off_c, 0, 72, 100
2, 509952, Note_on_c, 0, 70, 80
2, 509952, Note_on_c, 0, 61, 80
2, 509952, Note_on_c, 0, 58, 80
2, 510140, Note_off_c, 0, 70, 100
2, 510140, Note_off_c, 0, 61, 100
2, 510140, Note_off_c, 0, 58, 100
2, 510144, Note_on_c, 0, 67, 80
2, 510144, Note_on_c, 0, 61, 80
2, 510144, Note_on_c, 0, 58, 80
2, 510332, Note_off_c, 0, 67, 100
2, 510332, Note_off_c, 0, 61, 100
2, 510332, Note_off_c, 0, 58, 100
2, 510336, Note_on_c, 0, 63, 80
2, 510336, Note_on_c, 0, 61, 80
2, 510336, Note_on_c, 0, 58, 80
2, 510524, Note_off_c, 0, 63, 100
2, 510524, Note_off_c, 0, 61, 100
2, 510524, Note_off_c, 0, 58, 100
2, 510528, Note_on_c, 0, 67, 80
2, 510528, Note_on_c, 0, 61, 80
2, 510528, Note_on_c, 0, 58, 80
2, 510716, Note_off_c, 0, 67, 100
2, 510716, Note_off_c, 0, 61, 100
2, 510716, Note_off_c, 0, 58, 100
2, 510720, Note_on_c, 0, 68, 80
2, 510720, Note_on_c, 0, 63, 80
2, 510720, Note_on_c, 0, 60, 80
2, 510908, Note_off_c, 0, 68, 100
2, 510908, Note_off_c, 0, 63, 100
2, 510908, Note_off_c, 0, 60, 100
2, 510912, Note_on_c, 0, 63, 80
2, 510912, Note_on_c, 0, 60, 80
2, 511100, Note_off_c, 0, 63, 100
2, 511100, Note_off_c, 0, 60, 100
2, 511104, Note_on_c, 0, 68, 80
2, 511104, Note_on_c, 0, 63, 80
2, 511104, Note_on_c, 0, 60, 80
2, 511292, Note_off_c, 0, 68, 100
2, 511292, Note_off_c, 0, 63, 100
2, 511292, Note_off_c, 0, 60, 100
2, 511296, Note_on_c, 0, 63, 80
2, 511296, Note_on_c, 0, 60, 80
2, 511296, Note_on_c, 0, 72, 80
2, 511484, Note_off_c, 0, 63, 100
2, 511484, Note_off_c, 0, 60, 100
2, 511484, Note_off_c, 0, 72, 100
2, 511488, Note_on_c, 0, 69, 80
2, 511488, Note_on_c, 0, 63, 80
2, 511488, Note_on_c, 0, 60, 80
2, 511676, Note_off_c, 0, 69, 100
2, 511676, Note_off_c, 0, 63, 100
2, 511676, Note_off_c, 0, 60, 100
2, 511680, Note_on_c, 0, 65, 80
2, 511680, Note_on_c, 0, 63, 80
2, 511680, Note_on_c, 0, 60, 80
2, 511868, Note_off_c, 0, 65, 100
2, 511868, Note_off_c, 0, 63, 100
2, 511868, Note_off_c, 0, 60, 100
2, 511872, Note_on_c, 0, 69, 80
2, 511872, Note_on_c, 0, 63, 80
2, 511872, Note_on_c, 0, 60, 80
2, 512060, Note_off_c, 0, 69, 100
2, 512060, Note_off_c, 0, 63, 100
2, 512060, Note_off_c, 0, 60, 100
2, 512064, Note_on_c, 0, 72, 80
2, 512064, Note_on_c, 0, 63, 80
2, 512064, Note_on_c, 0, 60, 80
2, 512252, Note_off_c, 0, 72, 100
2, 512252, Note_off_c, 0, 63, 100
2, 512252, Note_off_c, 0, 60, 100
2, 512256, Note_on_c, 0, 70, 80
2, 512256, Note_on_c, 0, 65, 80
2, 512256, Note_on_c, 0, 61, 80
2, 512444, Note_off_c, 0, 70, 100
2, 512444, Note_off_c, 0, 65, 100
2, 512444, Note_off_c, 0, 61, 100
2, 512448, Note_on_c, 0, 65, 80
2, 512448, Note_on_c, 0, 61, 80
2, 512636, Note_off_c, 0, 65, 100
2, 512636, Note_off_c, 0, 61, 100
2, 512640, Note_on_c, 0, 70, 80
2, 512640, Note_on_c, 0, 65, 80
2, 512640, Note_on_c, 0, 61, 80
2, 512828, Note_off_c, 0, 70, 100
2, 512828, Note_off_c, 0, 65, 100
2, 512828, Note_off_c, 0, 61, 100
2, 512832, Note_on_c, 0, 73, 80
2, 512832, Note_on_c, 0, 65, 80
2, 512832, Note_on_c, 0, 61, 80
2, 513020, Note_off_c, 0, 73, 100
2, 513020, Note_off_c, 0, 65, 100
2, 513020, Note_off_c, 0, 61, 100
2, 513024, Note_on_c, 0, 72, 80
2, 513024, Note_on_c, 0, 65, 80
2, 513024, Note_on_c, 0, 60, 80
2, 513212, Note_off_c, 0, 72, 100
2, 513212, Note_off_c, 0, 65, 100
2, 513212, Note_off_c, 0, 60, 100
2, 513216, Note_on_c, 0, 68, 80
2, 513216, Note_on_c, 0, 65, 80
2, 513216, Note_on_c, 0, 60, 80
2, 513404, Note_off_c, 0, 68, 100
2, 513404, Note_off_c, 0, 65, 100
2, 513404, Note_off_c, 0, 60, 100
2, 513408, Note_on_c, 0, 67, 80
2, 513408, Note_on_c, 0, 64, 80
2, 513408, Note_on_c, 0, 60, 80
2, 513596, Note_off_c, 0, 67, 100
2, 513596, Note_off_c, 0, 64, 100
2, 513596, Note_off_c, 0, 60, 100
2, 513600, Note_on_c, 0, 72, 80
2, 513600, Note_on_c, 0, 64, 80
2, 513600, Note_on_c, 0, 60, 80
2, 513788, Note_off_c, 0, 72, 100
2, 513788, Note_off_c, 0, 64, 100
2, 513788, Note_off_c, 0, 60, 100
2, 513792, Note_on_c, 0, 65, 80
2, 514172, Note_off_c, 0, 65, 100
2, 514368, Note_on_c, 0, 63, 100
2, 514428, Note_off_c, 0, 63, 100
2, 514432, Note_on_c, 0, 65, 109
2, 514492, Note_off_c, 0, 65, 100
2, 514496, Note_on_c, 0, 67, 119
2, 514556, Note_off_c, 0, 67, 100
2, 514560, Note_on_c, 0, 68, 120
2, 514560, Note_on_c, 0, 63, 120
2, 514560, Note_on_c, 0, 60, 120
2, 515324, Note_off_c, 0, 68, 100
2, 515324, Note_off_c, 0, 63, 100
2, 515324, Note_off_c, 0, 60, 100
2, 515328, Note_on_c, 0, 72, 120
2, 515328, Note_on_c, 0, 63, 120
2, 515328, Note_on_c, 0, 60, 120
2, 516092, Note_off_c, 0, 72, 100
2, 516092, Note_off_c, 0, 63, 100
2, 516092, Note_off_c, 0, 60, 100
2, 516096, Note_on_c, 0, 70, 80
2, 516096, Note_on_c, 0, 61, 80
2, 516096, Note_on_c, 0, 58, 80
2, 516284, Note_off_c, 0, 70, 100
2, 516284, Note_off_c, 0, 61, 100
2, 516284, Note_off_c, 0, 58, 100
2, 516288, Note_on_c, 0, 67, 80
2, 516288, Note_on_c, 0, 61, 80
2, 516288, Note_on_c, 0, 58, 80
2, 516476, Note_off_c, 0, 67, 100
2, 516476, Note_off_c, 0, 61, 100
2, 516476, Note_off_c, 0, 58, 100
2, 516480, Note_on_c, 0, 63, 80
2, 516480, Note_on_c, 0, 61, 80
2, 516480, Note_on_c, 0, 58, 80
2, 516668, Note_off_c, 0, 63, 100
2, 516668, Note_off_c, 0, 61, 100
2, 516668, Note_off_c, 0, 58, 100
2, 516672, Note_on_c, 0, 67, 80
2, 516672, Note_on_c, 0, 61, 80
2, 516672, Note_on_c, 0, 58, 80
2, 516860, Note_off_c, 0, 67, 100
2, 516860, Note_off_c, 0, 61, 100
2, 516860, Note_off_c, 0, 58, 100
2, 516864, Note_on_c, 0, 68, 80
2, 516864, Note_on_c, 0, 63, 80
2, 516864, Note_on_c, 0, 60, 80
2, 517052, Note_off_c, 0, 68, 100
2, 517052, Note_off_c, 0, 63, 100
2, 517052, Note_off_c, 0, 60, 100
2, 517056, Note_on_c, 0, 63, 80
2, 517056, Note_on_c, 0, 60, 80
2, 517244, Note_off_c, 0, 63, 100
2, 517244, Note_off_c, 0, 60, 100
2, 517248, Note_on_c, 0, 68, 80
2, 517248, Note_on_c, 0, 63, 80
2, 517248, Note_on_c, 0, 60, 80
2, 517436, Note_off_c, 0, 68, 100
2, 517436, Note_off_c, 0, 63, 100
2, 517436, Note_off_c, 0, 60, 100
2, 517440, Note_on_c, 0, 63, 80
2, 517440, Note_on_c, 0, 60, 80
2, 517440, Note_on_c, 0, 72, 80
2, 517628, Note_off_c, 0, 63, 100
2, 517628, Note_off_c, 0, 60, 100
2, 517628, Note_off_c, 0, 72, 100
2, 517632, Note_on_c, 0, 70, 80
2, 517632, Note_on_c, 0, 61, 80
2, 517632, Note_on_c, 0, 58, 80
2, 517820, Note_off_c, 0, 70, 100
2, 517820, Note_off_c, 0, 61, 100
2, 517820, Note_off_c, 0, 58, 100
2, 517824, Note_on_c, 0, 67, 80
2, 517824, Note_on_c, 0, 61, 80
2, 517824, Note_on_c, 0, 58, 80
2, 518012, Note_off_c, 0, 67, 100
2, 518012, Note_off_c, 0, 61, 100
2, 518012, Note_off_c, 0, 58, 100
2, 518016, Note_on_c, 0, 63, 80
2, 518016, Note_on_c, 0, 61, 80
2, 518016, Note_on_c, 0, 58, 80
2, 518204, Note_off_c, 0, 63, 100
2, 518204, Note_off_c, 0, 61, 100
2, 518204, Note_off_c, 0, 58, 100
2, 518208, Note_on_c, 0, 67, 80
2, 518208, Note_on_c, 0, 61, 80
2, 518208, Note_on_c, 0, 58, 80
2, 518396, Note_off_c, 0, 67, 100
2, 518396, Note_off_c, 0, 61, 100
2, 518396, Note_off_c, 0, 58, 100
2, 518400, Note_on_c, 0, 68, 80
2, 518400, Note_on_c, 0, 63, 80
2, 518400, Note_on_c, 0, 60, 80
2, 518588, Note_off_c, 0, 68, 100
2, 518588, Note_off_c, 0, 63, 100
2, 518588, Note_off_c, 0, 60, 100
2, 518592, Note_on_c, 0, 63, 80
2, 518592, Note_on_c, 0, 60, 80
2, 518780, Note_off_c, 0, 63, 100
2, 518780, Note_off_c, 0, 60, 100
2, 518784, Note_on_c, 0, 68, 80
2, 518784, Note_on_c, 0, 63, 80
2, 518784, Note_on_c, 0, 60, 80
2, 518972, Note_off_c, 0, 68, 100
2, 518972, Note_off_c, 0, 63, 100
2, 518972, Note_off_c, 0, 60, 100
2, 518976, Note_on_c, 0, 63, 80
2, 518976, Note_on_c, 0, 60, 80
2, 518976, Note_on_c, 0, 72, 80
2, 519164, Note_off_c, 0, 63, 100
2, 519164, Note_off_c, 0, 60, 100
2, 519164, Note_off_c, 0, 72, 100
2, 519168, Note_on_c, 0, 69, 80
2, 519168, Note_on_c, 0, 63, 80
2, 519168, Note_on_c, 0, 60, 80
2, 519356, Note_off_c, 0, 69, 100
2, 519356, Note_off_c, 0, 63, 100
2, 519356, Note_off_c, 0, 60, 100
2, 519360, Note_on_c, 0, 65, 80
2, 519360, Note_on_c, 0, 63, 80
2, 519360, Note_on_c, 0, 60, 80
2, 519548, Note_off_c, 0, 65, 100
2, 519548, Note_off_c, 0, 63, 100
2, 519548, Note_off_c, 0, 60, 100
2, 519552, Note_on_c, 0, 69, 80
2, 519552, Note_on_c, 0, 63, 80
2, 519552, Note_on_c, 0, 60, 80
2, 519740, Note_off_c, 0, 69, 100
2, 519740, Note_off_c, 0, 63, 100
2, 519740, Note_off_c, 0, 60, 100
2, 519744, Note_on_c, 0, 72, 80
2, 519744, Note_on_c, 0, 63, 80
2, 519744, Note_on_c, 0, 60, 80
2, 519932, Note_off_c, 0, 72, 100
2, 519932, Note_off_c, 0, 63, 100
2, 519932, Note_off_c, 0, 60, 100
2, 519936, Note_on_c, 0, 70, 80
2, 519936, Note_on_c, 0, 65, 80
2, 519936, Note_on_c, 0, 61, 80
2, 520124, Note_off_c, 0, 70, 100
2, 520124, Note_off_c, 0, 65, 100
2, 520124, Note_off_c, 0, 61, 100
2, 520128, Note_on_c, 0, 65, 80
2, 520128, Note_on_c, 0, 61, 80
2, 520316, Note_off_c, 0, 65, 100
2, 520316, Note_off_c, 0, 61, 100
2, 520320, Note_on_c, 0, 70, 80
2, 520320, Note_on_c, 0, 65, 80
2, 520320, Note_on_c, 0, 61, 80
2, 520508, Note_off_c, 0, 70, 100
2, 520508, Note_off_c, 0, 65, 100
2, 520508, Note_off_c, 0, 61, 100
2, 520512, Note_on_c, 0, 73, 80
2, 520512, Note_on_c, 0, 65, 80
2, 520512, Note_on_c, 0, 61, 80
2, 520700, Note_off_c, 0, 73, 100
2, 520700, Note_off_c, 0, 65, 100
2, 520700, Note_off_c, 0, 61, 100
2, 520704, Note_on_c, 0, 72, 90
2, 520704, Note_on_c, 0, 65, 90
2, 520704, Note_on_c, 0, 60, 90
2, 520892, Note_off_c, 0, 72, 100
2, 520892, Note_off_c, 0, 65, 100
2, 520892, Note_off_c, 0, 60, 100
2, 520896, Note_on_c, 0, 68, 93
2, 520896, Note_on_c, 0, 65, 93
2, 520896, Note_on_c, 0, 60, 93
2, 521084, Note_off_c, 0, 68, 100
2, 521084, Note_off_c, 0, 65, 100
2, 521084, Note_off_c, 0, 60, 100
2, 521088, Note_on_c, 0, 67, 96
2, 521088, Note_on_c, 0, 64, 96
2, 521088, Note_on_c, 0, 60, 96
2, 521276, Note_off_c, 0, 67, 100
2, 521276, Note_off_c, 0, 64, 100
2, 521276, Note_off_c, 0, 60, 100
2, 521280, Note_on_c, 0, 72, 99
2, 521280, Note_on_c, 0, 64, 99
2, 521280, Note_on_c, 0, 60, 99
2, 521468, Note_off_c, 0, 72, 100
2, 521468, Note_off_c, 0, 64, 100
2, 521468, Note_off_c, 0, 60, 100
2, 521472, Note_on_c, 0, 65, 110
2, 521568, Note_on_c, 0, 60, 110
2, 521640, Note_off_c, 0, 65, 100
2, 521664, Note_on_c, 0, 65, 110
2, 521736, Note_off_c, 0, 60, 100
2, 521760, Note_on_c, 0, 68, 110
2, 521844, Note_off_c, 0, 65, 100
2, 521856, Note_on_c, 0, 72, 110
2, 521936, Note_off_c, 0, 68, 100
2, 521952, Note_on_c, 0, 73, 110
2, 522032, Note_off_c, 0, 72, 100
2, 522048, Note_on_c, 0, 72, 110
2, 522128, Note_off_c, 0, 73, 100
2, 522144, Note_on_c, 0, 70, 110
2, 522220, Note_off_c, 0, 72, 100
2, 522240, Note_on_c, 0, 68, 110
2, 522304, Note_off_c, 0, 70, 100
2, 522336, Note_on_c, 0, 70, 110
2, 522428, Note_off_c, 0, 68, 100
2, 522432, Note_on_c, 0, 68, 110
2, 522504, Note_off_c, 0, 70, 100
2, 522528, Note_on_c, 0, 67, 110
2, 522596, Note_off_c, 0, 68, 100
2, 522624, Note_on_c, 0, 65, 110
2, 522688, Note_off_c, 0, 67, 100
2, 522720, Note_on_c, 0, 67, 110
2, 522788, Note_off_c, 0, 65, 100
2, 522816, Note_on_c, 0, 68, 110
2, 522900, Note_off_c, 0, 67, 100
2, 522912, Note_on_c, 0, 65, 110
2, 522976, Note_off_c, 0, 68, 100
2, 523008, Note_on_c, 0, 68, 110
2, 523080, Note_off_c, 0, 65, 100
2, 523104, Note_on_c, 0, 60, 110
2, 523188, Note_off_c, 0, 68, 100
2, 523200, Note_on_c, 0, 65, 110
2, 523288, Note_off_c, 0, 60, 100
2, 523296, Note_on_c, 0, 68, 110
2, 523372, Note_off_c, 0, 65, 100
2, 523392, Note_on_c, 0, 72, 110
2, 523468, Note_off_c, 0, 68, 100
2, 523488, Note_on_c, 0, 73, 110
2, 523564, Note_off_c, 0, 72, 100
2, 523584, Note_on_c, 0, 72, 110
2, 523660, Note_off_c, 0, 73, 100
2, 523680, Note_on_c, 0, 70, 110
2, 523752, Note_off_c, 0, 72, 100
2, 523776, Note_on_c, 0, 68, 110
2, 523844, Note_off_c, 0, 70, 100
2, 523872, Note_on_c, 0, 70, 110
2, 523952, Note_off_c, 0, 68, 100
2, 523968, Note_on_c, 0, 68, 110
2, 524048, Note_off_c, 0, 70, 100
2, 524064, Note_on_c, 0, 67, 110
2, 524140, Note_off_c, 0, 68, 100
2, 524160, Note_on_c, 0, 65, 110
2, 524232, Note_off_c, 0, 67, 100
2, 524256, Note_on_c, 0, 67, 110
2, 524336, Note_off_c, 0, 65, 100
2, 524352, Note_on_c, 0, 68, 110
2, 524436, Note_off_c, 0, 67, 100
2, 524448, Note_on_c, 0, 65, 110
2, 524528, Note_off_c, 0, 68, 100
2, 524544, Note_on_c, 0, 66, 110
2, 524620, Note_off_c, 0, 65, 100
2, 524640, Note_on_c, 0, 61, 110
2, 524724, Note_off_c, 0, 66, 100
2, 524736, Note_on_c, 0, 66, 110
2, 524824, Note_off_c, 0, 61, 100
2, 524832, Note_on_c, 0, 70, 110
2, 524908, Note_off_c, 0, 66, 100
2, 524928, Note_on_c, 0, 73, 110
2, 525016, Note_off_c, 0, 70, 100
2, 525024, Note_on_c, 0, 75, 110
2, 525112, Note_off_c, 0, 73, 100
2, 525120, Note_on_c, 0, 73, 110
2, 525196, Note_off_c, 0, 75, 100
2, 525216, Note_on_c, 0, 72, 110
2, 525296, Note_off_c, 0, 73, 100
2, 525312, Note_on_c, 0, 70, 110
2, 525384, Note_off_c, 0, 72, 100
2, 525408, Note_on_c, 0, 72, 110
2, 525476, Note_off_c, 0, 70, 100
2, 525504, Note_on_c, 0, 70, 110
2, 525572, Note_off_c, 0, 72, 100
2, 525600, Note_on_c, 0, 68, 110
2, 525668, Note_off_c, 0, 70, 100
2, 525696, Note_on_c, 0, 66, 110
2, 525764, Note_off_c, 0, 68, 100
2, 525792, Note_on_c, 0, 68, 110
2, 525856, Note_off_c, 0, 66, 100
2, 525888, Note_on_c, 0, 66, 110
2, 525968, Note_off_c, 0, 68, 100
2, 525984, Note_on_c, 0, 65, 110
2, 526056, Note_off_c, 0, 66, 100
2, 526080, Note_on_c, 0, 64, 110
2, 526156, Note_off_c, 0, 65, 100
2, 526176, Note_on_c, 0, 65, 110
2, 526240, Note_off_c, 0, 64, 100
2, 526272, Note_on_c, 0, 67, 110
2, 526340, Note_off_c, 0, 65, 100
2, 526368, Note_on_c, 0, 68, 110
2, 526444, Note_off_c, 0, 67, 100
2, 526464, Note_on_c, 0, 70, 110
2, 526548, Note_off_c, 0, 68, 100
2, 526560, Note_on_c, 0, 68, 110
2, 526632, Note_off_c, 0, 70, 100
2, 526656, Note_on_c, 0, 67, 110
2, 526748, Note_off_c, 0, 68, 100
2, 526752, Note_on_c, 0, 65, 110
2, 526828, Note_off_c, 0, 67, 100
2, 526848, Note_on_c, 0, 64, 110
2, 526928, Note_off_c, 0, 65, 100
2, 526944, Note_on_c, 0, 65, 110
2, 527016, Note_off_c, 0, 64, 100
2, 527040, Note_on_c, 0, 67, 110
2, 527104, Note_off_c, 0, 65, 100
2, 527136, Note_on_c, 0, 68, 110
2, 527212, Note_off_c, 0, 67, 100
2, 527232, Note_on_c, 0, 70, 110
2, 527316, Note_off_c, 0, 68, 100
2, 527328, Note_on_c, 0, 72, 110
2, 527400, Note_off_c, 0, 70, 100
2, 527424, Note_on_c, 0, 74, 110
2, 527516, Note_off_c, 0, 72, 100
2, 527520, Note_on_c, 0, 76, 110
2, 527596, Note_off_c, 0, 74, 100
2, 527616, Note_on_c, 0, 77, 110
2, 527696, Note_off_c, 0, 76, 100
2, 527712, Note_on_c, 0, 72, 110
2, 527788, Note_off_c, 0, 77, 100
2, 527808, Note_on_c, 0, 77, 110
2, 527892, Note_off_c, 0, 72, 100
2, 527904, Note_on_c, 0, 80, 110
2, 527976, Note_off_c, 0, 77, 100
2, 528000, Note_on_c, 0, 84, 110
2, 528064, Note_off_c, 0, 80, 100
2, 528096, Note_on_c, 0, 85, 110
2, 528164, Note_off_c, 0, 84, 100
2, 528192, Note_on_c, 0, 84, 110
2, 528264, Note_off_c, 0, 85, 100
2, 528288, Note_on_c, 0, 82, 110
2, 528360, Note_off_c, 0, 84, 100
2, 528384, Note_on_c, 0, 80, 110
2, 528456, Note_off_c, 0, 82, 100
2, 528480, Note_on_c, 0, 82, 110
2, 528544, Note_off_c, 0, 80, 100
2, 528576, Note_on_c, 0, 80, 110
2, 528644, Note_off_c, 0, 82, 100
2, 528672, Note_on_c, 0, 79, 110
2, 528748, Note_off_c, 0, 80, 100
2, 528768, Note_on_c, 0, 77, 110
2, 528844, Note_off_c, 0, 79, 100
2, 528864, Note_on_c, 0, 79, 110
2, 528936, Note_off_c, 0, 77, 100
2, 528960, Note_on_c, 0, 80, 110
2, 529028, Note_off_c, 0, 79, 100
2, 529056, Note_on_c, 0, 77, 110
2, 529124, Note_off_c, 0, 80, 100
2, 529152, Note_on_c, 0, 80, 110
2, 529224, Note_off_c, 0, 77, 100
2, 529248, Note_on_c, 0, 72, 110
2, 529328, Note_off_c, 0, 80, 100
2, 529344, Note_on_c, 0, 77, 110
2, 529412, Note_off_c, 0, 72, 100
2, 529440, Note_on_c, 0, 80, 110
2, 529512, Note_off_c, 0, 77, 100
2, 529536, Note_on_c, 0, 84, 110
2, 529608, Note_off_c, 0, 80, 100
2, 529632, Note_on_c, 0, 85, 110
2, 529700, Note_off_c, 0, 84, 100
2, 529728, Note_on_c, 0, 84, 110
2, 529800, Note_off_c, 0, 85, 100
2, 529824, Note_on_c, 0, 82, 110
2, 529892, Note_off_c, 0, 84, 100
2, 529920, Note_on_c, 0, 80, 110
2, 530000, Note_off_c, 0, 82, 100
2, 530016, Note_on_c, 0, 82, 110
2, 530084, Note_off_c, 0, 80, 100
2, 530112, Note_on_c, 0, 80, 110
2, 530180, Note_off_c, 0, 82, 100
2, 530208, Note_on_c, 0, 79, 110
2, 530288, Note_off_c, 0, 80, 100
2, 530304, Note_on_c, 0, 77, 110
2, 530380, Note_off_c, 0, 79, 100
2, 530400, Note_on_c, 0, 79, 110
2, 530464, Note_off_c, 0, 77, 100
2, 530496, Note_on_c, 0, 80, 110
2, 530568, Note_off_c, 0, 79, 100
2, 530592, Note_on_c, 0, 77, 110
2, 530668, Note_off_c, 0, 80, 100
2, 530688, Note_on_c, 0, 78, 110
2, 530764, Note_off_c, 0, 77, 100
2, 530784, Note_on_c, 0, 73, 110
2, 530856, Note_off_c, 0, 78, 100
2, 530880, Note_on_c, 0, 78, 110
2, 530956, Note_off_c, 0, 73, 100
2, 530976, Note_on_c, 0, 82, 110
2, 531068, Note_off_c, 0, 78, 100
2, 531072, Note_on_c, 0, 85, 110
2, 531164, Note_off_c, 0, 82, 100
2, 531168, Note_on_c, 0, 87, 110
2, 531236, Note_off_c, 0, 85, 100
2, 531264, Note_on_c, 0, 85, 110
2, 531344, Note_off_c, 0, 87, 100
2, 531360, Note_on_c, 0, 84, 110
2, 531444, Note_off_c, 0, 85, 100
2, 531456, Note_on_c, 0, 82, 110
2, 531528, Note_off_c, 0, 84, 100
2, 531552, Note_on_c, 0, 84, 110
2, 531620, Note_off_c, 0, 82, 100
2, 531648, Note_on_c, 0, 82, 110
2, 531736, Note_off_c, 0, 84, 100
2, 531744, Note_on_c, 0, 80, 110
2, 531828, Note_off_c, 0, 82, 100
2, 531840, Note_on_c, 0, 78, 110
2, 531908, Note_off_c, 0, 80, 100
2, 531936, Note_on_c, 0, 80, 110
2, 532028, Note_off_c, 0, 78, 100
2, 532032, Note_on_c, 0, 78, 110
2, 532104, Note_off_c, 0, 80, 100
2, 532128, Note_on_c, 0, 77, 110
2, 532196, Note_off_c, 0, 78, 100
2, 532224, Note_on_c, 0, 76, 110
2, 532292, Note_off_c, 0, 77, 100
2, 532320, Note_on_c, 0, 77, 110
2, 532408, Note_off_c, 0, 76, 100
2, 532416, Note_on_c, 0, 79, 110
2, 532488, Note_off_c, 0, 77, 100
2, 532512, Note_on_c, 0, 80, 110
2, 532580, Note_off_c, 0, 79, 100
2, 532608, Note_on_c, 0, 82, 110
2, 532672, Note_off_c, 0, 80, 100
2, 532704, Note_on_c, 0, 80, 110
2, 532772, Note_off_c, 0, 82, 100
2, 532800, Note_on_c, 0, 79, 110
2, 532872, Note_off_c, 0, 80, 100
2, 532896, Note_on_c, 0, 77, 110
2, 532976, Note_off_c, 0, 79, 100
2, 532992, Note_on_c, 0, 76, 110
2, 533060, Note_off_c, 0, 77, 100
2, 533088, Note_on_c, 0, 77, 110
2, 533152, Note_off_c, 0, 76, 100
2, 533184, Note_on_c, 0, 79, 110
2, 533252, Note_off_c, 0, 77, 100
2, 533280, Note_on_c, 0, 80, 110
2, 533344, Note_off_c, 0, 79, 100
2, 533376, Note_on_c, 0, 82, 110
2, 533448, Note_off_c, 0, 80, 100
2, 533472, Note_on_c, 0, 84, 110
2, 533548, Note_off_c, 0, 82, 100
2, 533568, Note_on_c, 0, 86, 110
2, 533644, Note_off_c, 0, 84, 100
2, 533664, Note_on_c, 0, 88, 110
2, 533748, Note_off_c, 0, 86, 100
2, 533760, Note_on_c, 0, 89, 110
2, 533828, Note_off_c, 0, 88, 100
2, 533856, Note_on_c, 0, 80, 110
2, 533920, Note_off_c, 0, 89, 100
2, 533952, Note_on_c, 0, 84, 110
2, 534020, Note_off_c, 0, 80, 100
2, 534048, Note_on_c, 0, 89, 110
2, 534120, Note_off_c, 0, 84, 100
2, 534144, Note_on_c, 0, 92, 124
2, 534212, Note_off_c, 0, 89, 100
2, 534620, Note_off_c, 0, 92, 100
2, 534624, Note_on_c, 0, 84, 110
2, 534720, Note_on_c, 0, 89, 110
2, 534784, Note_off_c, 0, 84, 100
2, 534816, Note_on_c, 0, 92, 110
2, 534888, Note_off_c, 0, 89, 100
2, 534912, Note_on_c, 0, 96, 110
2, 534976, Note_off_c, 0, 92, 100
2, 535008, Note_on_c, 0, 92, 110
2, 535088, Note_off_c, 0, 96, 100
2, 535104, Note_on_c, 0, 91, 110
2, 535168, Note_off_c, 0, 92, 100
2, 535200, Note_on_c, 0, 88, 110
2, 535276, Note_off_c, 0, 91, 100
2, 535296, Note_on_c, 0, 89, 110
2, 535372, Note_off_c, 0, 88, 100
2, 535392, Note_on_c, 0, 80, 110
2, 535480, Note_off_c, 0, 89, 100
2, 535488, Note_on_c, 0, 84, 110
2, 535560, Note_off_c, 0, 80, 100
2, 535584, Note_on_c, 0, 89, 110
2, 535660, Note_off_c, 0, 84, 100
2, 535680, Note_on_c, 0, 92, 122
2, 535768, Note_off_c, 0, 89, 100
2, 536156, Note_off_c, 0, 92, 100
2, 536160, Note_on_c, 0, 84, 110
2, 536256, Note_on_c, 0, 89, 110
2, 536348, Note_off_c, 0, 84, 100
2, 536352, Note_on_c, 0, 92, 110
2, 536420, Note_off_c, 0, 89, 100
2, 536448, Note_on_c, 0, 96, 110
2, 536516, Note_off_c, 0, 92, 100
2, 536544, Note_on_c, 0, 92, 110
2, 536608, Note_off_c, 0, 96, 100
2, 536640, Note_on_c, 0, 91, 110
2, 536712, Note_off_c, 0, 92, 100
2, 536736, Note_on_c, 0, 88, 110
2, 536820, Note_off_c, 0, 91, 100
2, 536832, Note_on_c, 0, 89, 110
2, 536900, Note_off_c, 0, 88, 100
2, 536928, Note_on_c, 0, 80, 110
2, 537008, Note_off_c, 0, 89, 100
2, 537024, Note_on_c, 0, 84, 110
2, 537108, Note_off_c, 0, 80, 100
2, 537120, Note_on_c, 0, 89, 110
2, 537188, Note_off_c, 0, 84, 100
2, 537216, Note_on_c, 0, 92, 125
2, 537292, Note_off_c, 0, 89, 100
2, 537692, Note_off_c, 0, 92, 100
2, 537696, Note_on_c, 0, 84, 110
2, 537792, Note_on_c, 0, 89, 110
2, 537884, Note_off_c, 0, 84, 100
2, 537888, Note_on_c, 0, 92, 110
2, 537980, Note_off_c, 0, 89, 100
2, 537984, Note_on_c, 0, 96, 110
2, 538048, Note_off_c, 0, 92, 100
2, 538080, Note_on_c, 0, 92, 110
2, 538156, Note_off_c, 0, 96, 100
2, 538176, Note_on_c, 0, 91, 110
2, 538256, Note_off_c, 0, 92, 100
2, 538272, Note_on_c, 0, 88, 110
2, 538356, Note_off_c, 0, 91, 100
2, 538368, Note_on_c, 0, 89, 110
2, 538436, Note_off_c, 0, 88, 100
2, 538464, Note_on_c, 0, 80, 110
2, 538544, Note_off_c, 0, 89, 100
2, 538560, Note_on_c, 0, 84, 110
2, 538632, Note_off_c, 0, 80, 100
2, 538656, Note_on_c, 0, 89, 110
2, 538728, Note_off_c, 0, 84, 100
2, 538752, Note_on_c, 0, 92, 124
2, 538816, Note_off_c, 0, 89, 100
2, 539228, Note_off_c, 0, 92, 100
2, 539232, Note_on_c, 0, 84, 110
2, 539328, Note_on_c, 0, 89, 110
2, 539412, Note_off_c, 0, 84, 100
2, 539424, Note_on_c, 0, 92, 110
2, 539512, Note_off_c, 0, 89, 100
2, 539520, Note_on_c, 0, 96, 110
2, 539584, Note_off_c, 0, 92, 100
2, 539616, Note_on_c, 0, 92, 110
2, 539692, Note_off_c, 0, 96, 100
2, 539712, Note_on_c, 0, 91, 110
2, 539784, Note_off_c, 0, 92, 100
2, 539808, Note_on_c, 0, 88, 110
2, 539900, Note_off_c, 0, 91, 100
2, 539904, Note_on_c, 0, 89, 110
2, 539984, Note_off_c, 0, 88, 100
2, 539984, Note_on_c, 0, 84, 110
2, 540084, Note_off_c, 0, 89, 100
2, 540096, Note_on_c, 0, 89, 110
2, 540156, Note_off_c, 0, 84, 100
2, 540192, Note_on_c, 0, 92, 111
2, 540284, Note_off_c, 0, 89, 100
2, 540288, Note_on_c, 0, 96, 111
2, 540360, Note_off_c, 0, 92, 100
2, 540384, Note_on_c, 0, 92, 112
2, 540448, Note_off_c, 0, 96, 100
2, 540480, Note_on_c, 0, 91, 112
2, 540560, Note_off_c, 0, 92, 100
2, 540576, Note_on_c, 0, 88, 113
2, 540656, Note_off_c, 0, 91, 100
2, 540672, Note_on_c, 0, 89, 113
2, 540752, Note_on_c, 0, 84, 114
2, 540756, Note_off_c, 0, 88, 100
2, 540848, Note_off_c, 0, 89, 100
2, 540864, Note_on_c, 0, 89, 114
2, 540920, Note_off_c, 0, 84, 100
2, 540960, Note_on_c, 0, 92, 115
2, 541028, Note_off_c, 0, 89, 100
2, 541056, Note_on_c, 0, 96, 115
2, 541124, Note_off_c, 0, 92, 100
2, 541152, Note_on_c, 0, 92, 116
2, 541232, Note_off_c, 0, 96, 100
2, 541248, Note_on_c, 0, 91, 116
2, 541320, Note_off_c, 0, 92, 100
2, 541344, Note_on_c, 0, 88, 117
2, 541416, Note_off_c, 0, 91, 100
2, 541440, Note_on_c, 0, 89, 117
2, 541512, Note_off_c, 0, 88, 100
2, 541520, Note_on_c, 0, 84, 118
2, 541600, Note_off_c, 0, 89, 100
2, 541632, Note_on_c, 0, 89, 118
2, 541688, Note_off_c, 0, 84, 100
2, 541728, Note_on_c, 0, 92, 119
2, 541804, Note_off_c, 0, 89, 100
2, 541824, Note_on_c, 0, 96, 119
2, 541900, Note_off_c, 0, 92, 100
2, 541920, Note_on_c, 0, 92, 120
2, 541988, Note_off_c, 0, 96, 100
2, 542016, Note_on_c, 0, 91, 120
2, 542092, Note_off_c, 0, 92, 100
2, 542112, Note_on_c, 0, 88, 121
2, 542188, Note_off_c, 0, 91, 100
2, 542208, Note_on_c, 0, 96, 121
2, 542288, Note_off_c, 0, 88, 100
2, 542304, Note_on_c, 0, 92, 122
2, 542372, Note_off_c, 0, 96, 100
2, 542400, Note_on_c, 0, 91, 122
2, 542476, Note_off_c, 0, 92, 100
2, 542496, Note_on_c, 0, 88, 123
2, 542572, Note_off_c, 0, 91, 100
2, 542592, Note_on_c, 0, 96, 123
2, 542672, Note_off_c, 0, 88, 100
2, 542688, Note_on_c, 0, 92, 124
2, 542756, Note_off_c, 0, 96, 100
2, 542784, Note_on_c, 0, 91, 124
2, 542852, Note_off_c, 0, 92, 100
2, 542880, Note_on_c, 0, 88, 124
2, 542960, Note_off_c, 0, 91, 100
2, 542976, Note_on_c, 0, 96, 125
2, 543052, Note_off_c, 0, 88, 100
2, 543072, Note_on_c, 0, 92, 125
2, 543168, Note_on_c, 0, 89, 125
2, 543264, Note_on_c, 0, 84, 125
2, 543356, Note_off_c, 0, 92, 100
2, 543360, Note_on_c, 0, 92, 125
2, 543452, Note_off_c, 0, 96, 100
2, 543452, Note_off_c, 0, 89, 100
2, 543456, Note_on_c, 0, 89, 125
2, 543548, Note_off_c, 0, 84, 100
2, 543552, Note_on_c, 0, 84, 125
2, 543648, Note_on_c, 0, 80, 125
2, 543740, Note_off_c, 0, 89, 64
2, 543744, Note_on_c, 0, 89, 125
2, 543836, Note_off_c, 0, 84, 64
2, 543836, Note_off_c, 0, 92, 100
2, 543840, Note_on_c, 0, 84, 125
2, 543932, Note_off_c, 0, 80, 64
2, 543936, Note_on_c, 0, 80, 125
2, 544032, Note_on_c, 0, 77, 125
2, 544120, Note_off_c, 0, 84, 100
2, 544128, Note_on_c, 0, 84, 125
2, 544216, Note_off_c, 0, 80, 100
2, 544220, Note_off_c, 0, 89, 100
2, 544224, Note_on_c, 0, 80, 125
2, 544312, Note_off_c, 0, 77, 100
2, 544320, Note_on_c, 0, 77, 125
2, 544416, Note_on_c, 0, 72, 125
2, 544504, Note_off_c, 0, 80, 64
2, 544512, Note_on_c, 0, 80, 125
2, 544596, Note_off_c, 0, 77, 64
2, 544604, Note_off_c, 0, 84, 100
2, 544608, Note_on_c, 0, 77, 125
2, 544696, Note_off_c, 0, 72, 64
2, 544704, Note_on_c, 0, 72, 125
2, 544800, Note_on_c, 0, 68, 125
2, 544892, Note_off_c, 0, 77, 100
2, 544896, Note_on_c, 0, 77, 125
2, 544988, Note_off_c, 0, 80, 100
2, 544988, Note_off_c, 0, 72, 100
2, 544992, Note_on_c, 0, 72, 125
2, 545080, Note_off_c, 0, 68, 100
2, 545088, Note_on_c, 0, 68, 125
2, 545184, Note_on_c, 0, 65, 125
2, 545272, Note_off_c, 0, 72, 64
2, 545280, Note_on_c, 0, 72, 125
2, 545372, Note_off_c, 0, 68, 64
2, 545372, Note_off_c, 0, 77, 100
2, 545376, Note_on_c, 0, 68, 125
2, 545464, Note_off_c, 0, 65, 64
2, 545472, Note_on_c, 0, 65, 125
2, 545568, Note_on_c, 0, 60, 125
2, 545652, Note_off_c, 0, 68, 100
2, 545664, Note_on_c, 0, 68, 125
2, 545752, Note_off_c, 0, 65, 100
2, 545756, Note_off_c, 0, 72, 100
2, 545760, Note_on_c, 0, 65, 125
2, 545852, Note_off_c, 0, 60, 100
2, 545856, Note_on_c, 0, 60, 125
2, 545952, Note_on_c, 0, 56, 125
2, 546044, Note_off_c, 0, 65, 64
2, 546048, Note_on_c, 0, 65, 125
2, 546140, Note_off_c, 0, 60, 64
2, 546140, Note_off_c, 0, 68, 100
2, 546144, Note_on_c, 0, 60, 125
2, 546236, Note_off_c, 0, 56, 64
2, 546240, Note_on_c, 0, 56, 125
2, 546336, Note_on_c, 0, 53, 125
2, 546424, Note_off_c, 0, 60, 100
2, 546432, Note_on_c, 0, 60, 125
2, 546520, Note_off_c, 0, 56, 100
2, 546524, Note_off_c, 0, 65, 100
2, 546528, Note_on_c, 0, 56, 125
2, 546620, Note_off_c, 0, 53, 100
2, 546624, Note_on_c, 0, 53, 125
2, 546720, Note_on_c, 0, 48, 125
2, 546808, Note_off_c, 0, 56, 64
2, 546816, Control_c, 0, 64, 127
2, 546816, Note_on_c, 0, 56, 125
2, 546904, Note_off_c, 0, 53, 64
2, 546908, Note_off_c, 0, 60, 100
2, 546912, Note_on_c, 0, 53, 125
2, 547000, Note_off_c, 0, 48, 64
2, 547008, Note_on_c, 0, 48, 125
2, 547104, Note_on_c, 0, 44, 125
2, 547192, Note_off_c, 0, 53, 100
2, 547200, Note_on_c, 0, 53, 125
2, 547288, Note_off_c, 0, 48, 100
2, 547292, Note_off_c, 0, 56, 100
2, 547296, Note_on_c, 0, 48, 125
2, 547384, Note_off_c, 0, 44, 100
2, 547392, Note_on_c, 0, 44, 125
2, 547464, Note_off_c, 0, 48, 100
2, 547488, Note_on_c, 0, 48, 125
2, 547580, Note_off_c, 0, 53, 100
2, 547580, Note_off_c, 0, 44, 100
2, 547580, Note_off_c, 0, 48, 100
2, 547584, Note_on_c, 0, 53, 125
2, 547584, Note_on_c, 0, 48, 125
2, 547584, Note_on_c, 0, 44, 125
2, 548348, Note_off_c, 0, 53, 100
2, 548348, Note_off_c, 0, 48, 100
2, 548348, Note_off_c, 0, 44, 100
2, 548352, Note_on_c, 0, 77, 125
2, 548352, Note_on_c, 0, 72, 125
2, 548352, Note_on_c, 0, 68, 125
2, 548352, Note_on_c, 0, 65, 125
2, 549116, Note_off_c, 0, 77, 100
2, 549116, Note_off_c, 0, 72, 100
2, 549116, Note_off_c, 0, 68, 100
2, 549116, Note_off_c, 0, 65, 100
2, 549120, Note_on_c, 0, 65, 125
2, 549120, Note_on_c, 0, 60, 125
2, 549120, Note_on_c, 0, 56, 125
2, 549120, Note_on_c, 0, 53, 125
2, 549880, Control_c, 0, 64, 0
2, 549884, Note_off_c, 0, 65, 100
2, 549884, Note_off_c, 0, 60, 100
2, 549884, Note_off_c, 0, 56, 100
2, 549884, Note_off_c, 0, 53, 100
2, 551040, Control_c, 0, 7, 0
2, 551424, Note_on_c, 0, 65, 1
2, 551612, Note_off_c, 0, 65, 100
2, 551612, End_track
3, 0, Start_track
3, 0, Title_t, "Left"
3, 0, Control_c, 1, 0, 0
3, 0, Program_c, 1, 0
3, 0, Control_c, 1, 7, 100
3, 0, Control_c, 1, 10, 58
3, 0, Control_c, 1, 91, 127
3, 0, Key_signature, -5, "major"
3, 0, Note_on_c, 1, 37, 80
3, 380, Note_off_c, 1, 37, 100
3, 384, Note_on_c, 1, 30, 80
3, 764, Note_off_c, 1, 30, 100
3, 768, Note_on_c, 1, 37, 80
3, 1340, Note_off_c, 1, 37, 100
3, 1344, Note_on_c, 1, 30, 80
3, 1532, Note_off_c, 1, 30, 100
3, 1536, Note_on_c, 1, 32, 80
3, 1916, Note_off_c, 1, 32, 100
3, 1920, Note_on_c, 1, 44, 80
3, 2204, Note_off_c, 1, 44, 100
3, 2256, Note_on_c, 1, 42, 80
3, 2300, Note_off_c, 1, 42, 100
3, 2304, Note_on_c, 1, 41, 80
3, 2588, Note_off_c, 1, 41, 100
3, 2592, Note_on_c, 1, 42, 80
3, 2684, Note_off_c, 1, 42, 100
3, 2688, Note_on_c, 1, 44, 80
3, 2828, Note_off_c, 1, 44, 100
3, 2832, Note_on_c, 1, 42, 80
3, 2876, Note_off_c, 1, 42, 100
3, 2880, Note_on_c, 1, 41, 80
3, 3020, Note_off_c, 1, 41, 100
3, 3024, Note_on_c, 1, 39, 80
3, 3068, Note_off_c, 1, 39, 100
3, 3072, Note_on_c, 1, 49, 80
3, 3072, Note_on_c, 1, 37, 80
3, 3452, Note_off_c, 1, 49, 100
3, 3452, Note_off_c, 1, 37, 100
3, 3456, Note_on_c, 1, 42, 95
3, 3456, Note_on_c, 1, 30, 95
3, 3836, Note_off_c, 1, 42, 100
3, 3836, Note_off_c, 1, 30, 100
3, 3840, Note_on_c, 1, 49, 80
3, 3840, Note_on_c, 1, 37, 80
3, 4412, Note_off_c, 1, 49, 100
3, 4412, Note_off_c, 1, 37, 100
3, 4416, Note_on_c, 1, 45, 80
3, 4416, Note_on_c, 1, 33, 80
3, 4604, Note_off_c, 1, 45, 100
3, 4604, Note_off_c, 1, 33, 100
3, 4608, Note_on_c, 1, 44, 80
3, 4608, Note_on_c, 1, 32, 80
3, 4988, Note_off_c, 1, 44, 100
3, 4988, Note_off_c, 1, 32, 100
3, 4992, Note_on_c, 1, 44, 80
3, 5516, Note_off_c, 1, 44, 100
3, 5520, Note_on_c, 1, 42, 80
3, 5564, Note_off_c, 1, 42, 100
3, 5568, Note_on_c, 1, 41, 80
3, 5708, Note_off_c, 1, 41, 100
3, 5712, Note_on_c, 1, 39, 80
3, 5756, Note_off_c, 1, 39, 100
3, 5760, Note_on_c, 1, 37, 80
3, 5948, Note_off_c, 1, 37, 100
3, 6144, Note_on_c, 1, 37, 80
3, 6524, Note_off_c, 1, 37, 100
3, 6528, Note_on_c, 1, 30, 80
3, 6908, Note_off_c, 1, 30, 100
3, 6912, Note_on_c, 1, 37, 80
3, 7484, Note_off_c, 1, 37, 100
3, 7488, Note_on_c, 1, 30, 80
3, 7676, Note_off_c, 1, 30, 100
3, 7680, Note_on_c, 1, 32, 80
3, 8060, Note_off_c, 1, 32, 100
3, 8064, Note_on_c, 1, 44, 80
3, 8348, Note_off_c, 1, 44, 100
3, 8400, Note_on_c, 1, 42, 80
3, 8444, Note_off_c, 1, 42, 100
3, 8448, Note_on_c, 1, 41, 80
3, 8732, Note_off_c, 1, 41, 100
3, 8736, Note_on_c, 1, 42, 80
3, 8828, Note_off_c, 1, 42, 100
3, 8832, Note_on_c, 1, 44, 80
3, 8972, Note_off_c, 1, 44, 100
3, 8976, Note_on_c, 1, 42, 80
3, 9020, Note_off_c, 1, 42, 100
3, 9024, Note_on_c, 1, 41, 80
3, 9164, Note_off_c, 1, 41, 100
3, 9168, Note_on_c, 1, 39, 80
3, 9212, Note_off_c, 1, 39, 100
3, 9216, Note_on_c, 1, 49, 80
3, 9216, Note_on_c, 1, 37, 80
3, 9596, Note_off_c, 1, 49, 100
3, 9596, Note_off_c, 1, 37, 100
3, 9600, Note_on_c, 1, 42, 95
3, 9600, Note_on_c, 1, 30, 95
3, 9980, Note_off_c, 1, 42, 100
3, 9980, Note_off_c, 1, 30, 100
3, 9984, Note_on_c, 1, 49, 80
3, 9984, Note_on_c, 1, 37, 80
3, 10556, Note_off_c, 1, 49, 100
3, 10556, Note_off_c, 1, 37, 100
3, 10560, Note_on_c, 1, 45, 80
3, 10560, Note_on_c, 1, 33, 80
3, 10748, Note_off_c, 1, 45, 100
3, 10748, Note_off_c, 1, 33, 100
3, 10752, Note_on_c, 1, 44, 80
3, 10752, Note_on_c, 1, 32, 80
3, 11132, Note_off_c, 1, 44, 100
3, 11132, Note_off_c, 1, 32, 100
3, 11136, Note_on_c, 1, 44, 80
3, 11660, Note_off_c, 1, 44, 100
3, 11664, Note_on_c, 1, 42, 80
3, 11708, Note_off_c, 1, 42, 100
3, 11712, Note_on_c, 1, 41, 80
3, 11852, Note_off_c, 1, 41, 100
3, 11856, Note_on_c, 1, 39, 80
3, 11900, Note_off_c, 1, 39, 100
3, 11904, Note_on_c, 1, 37, 80
3, 12092, Note_off_c, 1, 37, 100
3, 12288, Note_on_c, 1, 44, 80
3, 12288, Note_on_c, 1, 42, 80
3, 12668, Note_off_c, 1, 44, 100
3, 12668, Note_off_c, 1, 42, 100
3, 12672, Note_on_c, 1, 44, 80
3, 12672, Note_on_c, 1, 39, 80
3, 12956, Note_off_c, 1, 44, 100
3, 12956, Note_off_c, 1, 39, 100
3, 13008, Note_on_c, 1, 44, 80
3, 13008, Note_on_c, 1, 42, 80
3, 13052, Note_off_c, 1, 44, 100
3, 13052, Note_off_c, 1, 42, 100
3, 13056, Note_on_c, 1, 44, 80
3, 13056, Note_on_c, 1, 41, 80
3, 13340, Note_off_c, 1, 44, 100
3, 13340, Note_off_c, 1, 41, 100
3, 13344, Note_on_c, 1, 44, 80
3, 13344, Note_on_c, 1, 37, 80
3, 13436, Note_off_c, 1, 44, 100
3, 13436, Note_off_c, 1, 37, 100
3, 13440, Note_on_c, 1, 44, 80
3, 13440, Note_on_c, 1, 39, 80
3, 13628, Note_off_c, 1, 44, 100
3, 13628, Note_off_c, 1, 39, 100
3, 13632, Note_on_c, 1, 44, 80
3, 13632, Note_on_c, 1, 37, 80
3, 13820, Note_off_c, 1, 44, 100
3, 13820, Note_off_c, 1, 37, 100
3, 13824, Note_on_c, 1, 44, 80
3, 13824, Note_on_c, 1, 42, 80
3, 14204, Note_off_c, 1, 44, 100
3, 14204, Note_off_c, 1, 42, 100
3, 14208, Note_on_c, 1, 44, 80
3, 14208, Note_on_c, 1, 39, 80
3, 14492, Note_off_c, 1, 44, 100
3, 14492, Note_off_c, 1, 39, 100
3, 14544, Note_on_c, 1, 44, 80
3, 14544, Note_on_c, 1, 42, 80
3, 14588, Note_off_c, 1, 44, 100
3, 14588, Note_off_c, 1, 42, 100
3, 14592, Note_on_c, 1, 44, 80
3, 14592, Note_on_c, 1, 41, 80
3, 14876, Note_off_c, 1, 44, 100
3, 14876, Note_off_c, 1, 41, 100
3, 14880, Note_on_c, 1, 44, 80
3, 14880, Note_on_c, 1, 37, 80
3, 14972, Note_off_c, 1, 44, 100
3, 14972, Note_off_c, 1, 37, 100
3, 14976, Note_on_c, 1, 44, 80
3, 14976, Note_on_c, 1, 36, 80
3, 15164, Note_off_c, 1, 44, 100
3, 15164, Note_off_c, 1, 36, 100
3, 15168, Note_on_c, 1, 44, 80
3, 15168, Note_on_c, 1, 37, 80
3, 15356, Note_off_c, 1, 44, 100
3, 15356, Note_off_c, 1, 37, 100
3, 15360, Note_on_c, 1, 44, 80
3, 15360, Note_on_c, 1, 42, 80
3, 15740, Note_off_c, 1, 44, 100
3, 15740, Note_off_c, 1, 42, 100
3, 15744, Note_on_c, 1, 44, 80
3, 15744, Note_on_c, 1, 39, 80
3, 16028, Note_off_c, 1, 44, 100
3, 16028, Note_off_c, 1, 39, 100
3, 16080, Note_on_c, 1, 44, 80
3, 16080, Note_on_c, 1, 42, 80
3, 16124, Note_off_c, 1, 44, 100
3, 16124, Note_off_c, 1, 42, 100
3, 16128, Note_on_c, 1, 53, 80
3, 16128, Note_on_c, 1, 41, 80
3, 16412, Note_off_c, 1, 53, 100
3, 16412, Note_off_c, 1, 41, 100
3, 16416, Note_on_c, 1, 49, 80
3, 16416, Note_on_c, 1, 37, 80
3, 16508, Note_off_c, 1, 49, 100
3, 16508, Note_off_c, 1, 37, 100
3, 16512, Note_on_c, 1, 51, 80
3, 16512, Note_on_c, 1, 39, 80
3, 16700, Note_off_c, 1, 51, 100
3, 16700, Note_off_c, 1, 39, 100
3, 16704, Note_on_c, 1, 53, 80
3, 16704, Note_on_c, 1, 41, 80
3, 16892, Note_off_c, 1, 53, 100
3, 16892, Note_off_c, 1, 41, 100
3, 16896, Note_on_c, 1, 42, 80
3, 17276, Note_off_c, 1, 42, 100
3, 17280, Note_on_c, 1, 44, 80
3, 17804, Note_off_c, 1, 44, 100
3, 17808, Note_on_c, 1, 42, 80
3, 17852, Note_off_c, 1, 42, 100
3, 17856, Note_on_c, 1, 41, 80
3, 17996, Note_off_c, 1, 41, 100
3, 18000, Note_on_c, 1, 39, 80
3, 18044, Note_off_c, 1, 39, 100
3, 18048, Note_on_c, 1, 37, 80
3, 18236, Note_off_c, 1, 37, 100
3, 18432, Note_on_c, 1, 44, 80
3, 18432, Note_on_c, 1, 42, 80
3, 18812, Note_off_c, 1, 44, 100
3, 18812, Note_off_c, 1, 42, 100
3, 18816, Note_on_c, 1, 44, 80
3, 18816, Note_on_c, 1, 39, 80
3, 19100, Note_off_c, 1, 44, 100
3, 19100, Note_off_c, 1, 39, 100
3, 19152, Note_on_c, 1, 44, 80
3, 19152, Note_on_c, 1, 42, 80
3, 19196, Note_off_c, 1, 44, 100
3, 19196, Note_off_c, 1, 42, 100
3, 19200, Note_on_c, 1, 44, 80
3, 19200, Note_on_c, 1, 41, 80
3, 19484, Note_off_c, 1, 44, 100
3, 19484, Note_off_c, 1, 41, 100
3, 19488, Note_on_c, 1, 44, 80
3, 19488, Note_on_c, 1, 37, 80
3, 19580, Note_off_c, 1, 44, 100
3, 19580, Note_off_c, 1, 37, 100
3, 19584, Note_on_c, 1, 44, 80
3, 19584, Note_on_c, 1, 39, 80
3, 19772, Note_off_c, 1, 44, 100
3, 19772, Note_off_c, 1, 39, 100
3, 19776, Note_on_c, 1, 44, 80
3, 19776, Note_on_c, 1, 37, 80
3, 19964, Note_off_c, 1, 44, 100
3, 19964, Note_off_c, 1, 37, 100
3, 19968, Note_on_c, 1, 44, 80
3, 19968, Note_on_c, 1, 42, 80
3, 20348, Note_off_c, 1, 44, 100
3, 20348, Note_off_c, 1, 42, 100
3, 20352, Note_on_c, 1, 44, 80
3, 20352, Note_on_c, 1, 39, 80
3, 20636, Note_off_c, 1, 44, 100
3, 20636, Note_off_c, 1, 39, 100
3, 20688, Note_on_c, 1, 44, 80
3, 20688, Note_on_c, 1, 42, 80
3, 20732, Note_off_c, 1, 44, 100
3, 20732, Note_off_c, 1, 42, 100
3, 20736, Note_on_c, 1, 44, 80
3, 20736, Note_on_c, 1, 41, 80
3, 21020, Note_off_c, 1, 44, 100
3, 21020, Note_off_c, 1, 41, 100
3, 21024, Note_on_c, 1, 44, 80
3, 21024, Note_on_c, 1, 37, 80
3, 21116, Note_off_c, 1, 44, 100
3, 21116, Note_off_c, 1, 37, 100
3, 21120, Note_on_c, 1, 44, 80
3, 21120, Note_on_c, 1, 36, 80
3, 21308, Note_off_c, 1, 44, 100
3, 21308, Note_off_c, 1, 36, 100
3, 21312, Note_on_c, 1, 44, 80
3, 21312, Note_on_c, 1, 37, 80
3, 21500, Note_off_c, 1, 44, 100
3, 21500, Note_off_c, 1, 37, 100
3, 21504, Note_on_c, 1, 44, 80
3, 21504, Note_on_c, 1, 42, 80
3, 21884, Note_off_c, 1, 44, 100
3, 21884, Note_off_c, 1, 42, 100
3, 21888, Note_on_c, 1, 44, 80
3, 21888, Note_on_c, 1, 39, 80
3, 22172, Note_off_c, 1, 44, 100
3, 22172, Note_off_c, 1, 39, 100
3, 22224, Note_on_c, 1, 44, 80
3, 22224, Note_on_c, 1, 42, 80
3, 22268, Note_off_c, 1, 44, 100
3, 22268, Note_off_c, 1, 42, 100
3, 22272, Note_on_c, 1, 53, 80
3, 22272, Note_on_c, 1, 41, 80
3, 22556, Note_off_c, 1, 53, 100
3, 22556, Note_off_c, 1, 41, 100
3, 22560, Note_on_c, 1, 49, 80
3, 22560, Note_on_c, 1, 37, 80
3, 22652, Note_off_c, 1, 49, 100
3, 22652, Note_off_c, 1, 37, 100
3, 22656, Note_on_c, 1, 51, 80
3, 22656, Note_on_c, 1, 39, 80
3, 22844, Note_off_c, 1, 51, 100
3, 22844, Note_off_c, 1, 39, 100
3, 22848, Note_on_c, 1, 53, 80
3, 22848, Note_on_c, 1, 41, 80
3, 23036, Note_off_c, 1, 53, 100
3, 23036, Note_off_c, 1, 41, 100
3, 23040, Note_on_c, 1, 42, 80
3, 23420, Note_off_c, 1, 42, 100
3, 23424, Note_on_c, 1, 44, 80
3, 23948, Note_off_c, 1, 44, 100
3, 23952, Note_on_c, 1, 42, 80
3, 23996, Note_off_c, 1, 42, 100
3, 24000, Note_on_c, 1, 41, 80
3, 24140, Note_off_c, 1, 41, 100
3, 24144, Note_on_c, 1, 39, 80
3, 24188, Note_off_c, 1, 39, 100
3, 24192, Note_on_c, 1, 37, 80
3, 24380, Note_off_c, 1, 37, 100
3, 24768, Note_on_c, 1, 37, 80
3, 25148, Note_off_c, 1, 37, 100
3, 25152, Note_on_c, 1, 30, 80
3, 25532, Note_off_c, 1, 30, 100
3, 25536, Note_on_c, 1, 32, 80
3, 25916, Note_off_c, 1, 32, 100
3, 25920, Note_on_c, 1, 31, 80
3, 26300, Note_off_c, 1, 31, 100
3, 26304, Note_on_c, 1, 32, 80
3, 26684, Note_off_c, 1, 32, 100
3, 26688, Note_on_c, 1, 42, 80
3, 26972, Note_off_c, 1, 42, 100
3, 26976, Note_on_c, 1, 41, 80
3, 27164, Note_off_c, 1, 41, 100
3, 27168, Note_on_c, 1, 39, 80
3, 27356, Note_off_c, 1, 39, 100
3, 27360, Note_on_c, 1, 37, 80
3, 27548, Note_off_c, 1, 37, 100
3, 27552, Note_on_c, 1, 36, 80
3, 27836, Note_off_c, 1, 36, 100
3, 27840, Note_on_c, 1, 37, 80
3, 28220, Note_off_c, 1, 37, 100
3, 28224, Note_on_c, 1, 42, 80
3, 28604, Note_off_c, 1, 42, 100
3, 28608, Note_on_c, 1, 44, 80
3, 28988, Note_off_c, 1, 44, 100
3, 28992, Note_on_c, 1, 45, 80
3, 29372, Note_off_c, 1, 45, 100
3, 29376, Note_on_c, 1, 44, 80
3, 29756, Note_off_c, 1, 44, 100
3, 29760, Note_on_c, 1, 32, 80
3, 30048, Note_on_c, 1, 37, 80
3, 30052, Note_off_c, 1, 32, 100
3, 30236, Note_off_c, 1, 37, 100
3, 30240, Note_on_c, 1, 44, 80
3, 30428, Note_off_c, 1, 44, 100
3, 30432, Note_on_c, 1, 41, 80
3, 30620, Note_off_c, 1, 41, 100
3, 30624, Note_on_c, 1, 39, 80
3, 30908, Note_off_c, 1, 39, 100
3, 30912, Note_on_c, 1, 37, 80
3, 31292, Note_off_c, 1, 37, 100
3, 31296, Note_on_c, 1, 30, 80
3, 31676, Note_off_c, 1, 30, 100
3, 31680, Note_on_c, 1, 32, 80
3, 32060, Note_off_c, 1, 32, 100
3, 32064, Note_on_c, 1, 31, 80
3, 32444, Note_off_c, 1, 31, 100
3, 32448, Note_on_c, 1, 32, 80
3, 32828, Note_off_c, 1, 32, 100
3, 32832, Note_on_c, 1, 42, 80
3, 33116, Note_off_c, 1, 42, 100
3, 33120, Note_on_c, 1, 41, 80
3, 33308, Note_off_c, 1, 41, 100
3, 33312, Note_on_c, 1, 39, 80
3, 33500, Note_off_c, 1, 39, 100
3, 33504, Note_on_c, 1, 37, 80
3, 33692, Note_off_c, 1, 37, 100
3, 33696, Note_on_c, 1, 36, 80
3, 33980, Note_off_c, 1, 36, 100
3, 33984, Note_on_c, 1, 37, 80
3, 34364, Note_off_c, 1, 37, 100
3, 34368, Note_on_c, 1, 42, 80
3, 34748, Note_off_c, 1, 42, 100
3, 34752, Note_on_c, 1, 44, 80
3, 35132, Note_off_c, 1, 44, 100
3, 35136, Note_on_c, 1, 45, 80
3, 35516, Note_off_c, 1, 45, 100
3, 35520, Note_on_c, 1, 44, 80
3, 35900, Note_off_c, 1, 44, 100
3, 35904, Note_on_c, 1, 32, 80
3, 36192, Note_on_c, 1, 37, 80
3, 36196, Note_off_c, 1, 32, 100
3, 36380, Note_off_c, 1, 37, 100
3, 36384, Note_on_c, 1, 44, 80
3, 36572, Note_off_c, 1, 44, 100
3, 36576, Note_on_c, 1, 41, 80
3, 36764, Note_off_c, 1, 41, 100
3, 36768, Note_on_c, 1, 37, 80
3, 36860, Note_off_c, 1, 37, 100
3, 37056, Note_on_c, 1, 42, 81
3, 37436, Note_off_c, 1, 42, 100
3, 37440, Note_on_c, 1, 66, 85
3, 37724, Note_off_c, 1, 66, 100
3, 37728, Note_on_c, 1, 65, 88
3, 37820, Note_off_c, 1, 65, 100
3, 37920, Note_on_c, 1, 49, 90
3, 38012, Note_off_c, 1, 49, 100
3, 38112, Note_on_c, 1, 51, 92
3, 38204, Note_off_c, 1, 51, 100
3, 38304, Note_on_c, 1, 53, 94
3, 38396, Note_off_c, 1, 53, 100
3, 38592, Note_on_c, 1, 42, 97
3, 38972, Note_off_c, 1, 42, 100
3, 38976, Note_on_c, 1, 66, 101
3, 38976, Note_on_c, 1, 68, 101
3, 39260, Note_off_c, 1, 66, 100
3, 39264, Note_on_c, 1, 65, 104
3, 39356, Note_off_c, 1, 68, 100
3, 39356, Note_off_c, 1, 65, 100
3, 39456, Note_on_c, 1, 53, 106
3, 39456, Note_on_c, 1, 49, 106
3, 39548, Note_off_c, 1, 53, 100
3, 39548, Note_off_c, 1, 49, 100
3, 39648, Note_on_c, 1, 54, 108
3, 39648, Note_on_c, 1, 51, 108
3, 39740, Note_off_c, 1, 54, 100
3, 39740, Note_off_c, 1, 51, 100
3, 39840, Note_on_c, 1, 56, 109
3, 39840, Note_on_c, 1, 53, 109
3, 39932, Note_off_c, 1, 56, 100
3, 39932, Note_off_c, 1, 53, 100
3, 40128, Note_on_c, 1, 42, 108
3, 40128, Note_on_c, 1, 30, 108
3, 40508, Note_off_c, 1, 42, 100
3, 40508, Note_off_c, 1, 30, 100
3, 40512, Note_on_c, 1, 75, 102
3, 40512, Note_on_c, 1, 72, 102
3, 40796, Note_off_c, 1, 72, 100
3, 40796, Note_off_c, 1, 75, 100
3, 40800, Note_on_c, 1, 77, 98
3, 40800, Note_on_c, 1, 73, 98
3, 40892, Note_off_c, 1, 77, 100
3, 40892, Note_off_c, 1, 73, 100
3, 40992, Note_on_c, 1, 49, 95
3, 40992, Note_on_c, 1, 37, 95
3, 41084, Note_off_c, 1, 49, 100
3, 41084, Note_off_c, 1, 37, 100
3, 41184, Note_on_c, 1, 51, 92
3, 41184, Note_on_c, 1, 39, 92
3, 41276, Note_off_c, 1, 51, 100
3, 41276, Note_off_c, 1, 39, 100
3, 41376, Note_on_c, 1, 53, 80
3, 41376, Note_on_c, 1, 41, 80
3, 41660, Note_off_c, 1, 41, 100
3, 41660, Note_off_c, 1, 53, 100
3, 41664, Note_on_c, 1, 42, 80
3, 42044, Note_off_c, 1, 42, 100
3, 42048, Note_on_c, 1, 44, 80
3, 42332, Note_off_c, 1, 44, 100
3, 42336, Note_on_c, 1, 42, 80
3, 42524, Note_off_c, 1, 42, 100
3, 42528, Note_on_c, 1, 41, 80
3, 42716, Note_off_c, 1, 41, 100
3, 42720, Note_on_c, 1, 39, 80
3, 42908, Note_off_c, 1, 39, 100
3, 42912, Note_on_c, 1, 37, 80
3, 43004, Note_off_c, 1, 37, 100
3, 43200, Note_on_c, 1, 42, 81
3, 43580, Note_off_c, 1, 42, 100
3, 43584, Note_on_c, 1, 66, 85
3, 43868, Note_off_c, 1, 66, 100
3, 43872, Note_on_c, 1, 65, 88
3, 43964, Note_off_c, 1, 65, 100
3, 44064, Note_on_c, 1, 49, 90
3, 44156, Note_off_c, 1, 49, 100
3, 44256, Note_on_c, 1, 51, 92
3, 44348, Note_off_c, 1, 51, 100
3, 44448, Note_on_c, 1, 53, 94
3, 44540, Note_off_c, 1, 53, 100
3, 44736, Note_on_c, 1, 42, 97
3, 45116, Note_off_c, 1, 42, 100
3, 45120, Note_on_c, 1, 66, 101
3, 45120, Note_on_c, 1, 68, 101
3, 45404, Note_off_c, 1, 66, 100
3, 45408, Note_on_c, 1, 65, 104
3, 45500, Note_off_c, 1, 68, 100
3, 45500, Note_off_c, 1, 65, 100
3, 45600, Note_on_c, 1, 53, 106
3, 45600, Note_on_c, 1, 49, 106
3, 45692, Note_off_c, 1, 53, 100
3, 45692, Note_off_c, 1, 49, 100
3, 45792, Note_on_c, 1, 54, 108
3, 45792, Note_on_c, 1, 51, 108
3, 45884, Note_off_c, 1, 54, 100
3, 45884, Note_off_c, 1, 51, 100
3, 45984, Note_on_c, 1, 56, 109
3, 45984, Note_on_c, 1, 53, 109
3, 46076, Note_off_c, 1, 56, 100
3, 46076, Note_off_c, 1, 53, 100
3, 46272, Note_on_c, 1, 42, 110
3, 46272, Note_on_c, 1, 30, 110
3, 46652, Note_off_c, 1, 42, 100
3, 46652, Note_off_c, 1, 30, 100
3, 46656, Note_on_c, 1, 75, 110
3, 46656, Note_on_c, 1, 72, 110
3, 46940, Note_off_c, 1, 72, 100
3, 46940, Note_off_c, 1, 75, 100
3, 46944, Note_on_c, 1, 77, 110
3, 46944, Note_on_c, 1, 73, 110
3, 47036, Note_off_c, 1, 77, 100
3, 47036, Note_off_c, 1, 73, 100
3, 47136, Note_on_c, 1, 49, 110
3, 47136, Note_on_c, 1, 37, 110
3, 47228, Note_off_c, 1, 49, 100
3, 47228, Note_off_c, 1, 37, 100
3, 47328, Note_on_c, 1, 51, 102
3, 47328, Note_on_c, 1, 39, 102
3, 47420, Note_off_c, 1, 51, 100
3, 47420, Note_off_c, 1, 39, 100
3, 47520, Note_on_c, 1, 53, 80
3, 47520, Note_on_c, 1, 41, 80
3, 47804, Note_off_c, 1, 41, 100
3, 47804, Note_off_c, 1, 53, 100
3, 47808, Note_on_c, 1, 42, 80
3, 48188, Note_off_c, 1, 42, 100
3, 48192, Note_on_c, 1, 44, 80
3, 48476, Note_off_c, 1, 44, 100
3, 48480, Note_on_c, 1, 41, 80
3, 48668, Note_off_c, 1, 41, 100
3, 48672, Note_on_c, 1, 39, 80
3, 48956, Note_off_c, 1, 39, 100
3, 48960, Note_on_c, 1, 37, 80
3, 49148, Note_off_c, 1, 37, 100
3, 49152, Note_on_c, 1, 49, 80
3, 49532, Note_off_c, 1, 49, 100
3, 49536, Note_on_c, 1, 42, 80
3, 49916, Note_off_c, 1, 42, 100
3, 49920, Note_on_c, 1, 49, 80
3, 50492, Note_off_c, 1, 49, 100
3, 50496, Note_on_c, 1, 42, 80
3, 50684, Note_off_c, 1, 42, 100
3, 50688, Note_on_c, 1, 44, 80
3, 51068, Note_off_c, 1, 44, 100
3, 51072, Note_on_c, 1, 56, 80
3, 51644, Note_off_c, 1, 56, 100
3, 51648, Note_on_c, 1, 54, 80
3, 51740, Note_off_c, 1, 54, 100
3, 51744, Note_on_c, 1, 53, 80
3, 51836, Note_off_c, 1, 53, 100
3, 51840, Note_on_c, 1, 51, 80
3, 52028, Note_off_c, 1, 51, 100
3, 52032, Note_on_c, 1, 49, 80
3, 52220, Note_off_c, 1, 49, 100
3, 52224, Note_on_c, 1, 61, 80
3, 52604, Note_off_c, 1, 61, 100
3, 52608, Note_on_c, 1, 54, 100
3, 52988, Note_off_c, 1, 54, 100
3, 52992, Note_on_c, 1, 61, 80
3, 53564, Note_off_c, 1, 61, 100
3, 53568, Note_on_c, 1, 57, 80
3, 53756, Note_off_c, 1, 57, 100
3, 53760, Note_on_c, 1, 56, 80
3, 54140, Note_off_c, 1, 56, 100
3, 54144, Note_on_c, 1, 44, 80
3, 54716, Note_off_c, 1, 44, 100
3, 54720, Note_on_c, 1, 37, 80
3, 54812, Note_off_c, 1, 37, 100
3, 54816, Note_on_c, 1, 41, 80
3, 54908, Note_off_c, 1, 41, 100
3, 54912, Note_on_c, 1, 44, 80
3, 55004, Note_off_c, 1, 44, 100
3, 55008, Note_on_c, 1, 49, 80
3, 55100, Note_off_c, 1, 49, 100
3, 55104, Note_on_c, 1, 53, 80
3, 55196, Note_off_c, 1, 53, 100
3, 55200, Note_on_c, 1, 51, 80
3, 55292, Note_off_c, 1, 51, 100
3, 55296, Note_on_c, 1, 49, 80
3, 55676, Note_off_c, 1, 49, 100
3, 55680, Note_on_c, 1, 42, 80
3, 56060, Note_off_c, 1, 42, 100
3, 56064, Note_on_c, 1, 49, 80
3, 56636, Note_off_c, 1, 49, 100
3, 56640, Note_on_c, 1, 42, 80
3, 56828, Note_off_c, 1, 42, 100
3, 56832, Note_on_c, 1, 44, 80
3, 57212, Note_off_c, 1, 44, 100
3, 57216, Note_on_c, 1, 56, 80
3, 57788, Note_off_c, 1, 56, 100
3, 57792, Note_on_c, 1, 54, 80
3, 57884, Note_off_c, 1, 54, 100
3, 57888, Note_on_c, 1, 53, 80
3, 57980, Note_off_c, 1, 53, 100
3, 57984, Note_on_c, 1, 51, 80
3, 58172, Note_off_c, 1, 51, 100
3, 58176, Note_on_c, 1, 49, 80
3, 58364, Note_off_c, 1, 49, 100
3, 58368, Note_on_c, 1, 61, 80
3, 58748, Note_off_c, 1, 61, 100
3, 58752, Note_on_c, 1, 54, 101
3, 59132, Note_off_c, 1, 54, 100
3, 59136, Note_on_c, 1, 61, 80
3, 59708, Note_off_c, 1, 61, 100
3, 59712, Note_on_c, 1, 57, 80
3, 59900, Note_off_c, 1, 57, 100
3, 59904, Note_on_c, 1, 56, 80
3, 60284, Note_off_c, 1, 56, 100
3, 60288, Note_on_c, 1, 44, 80
3, 60860, Note_off_c, 1, 44, 100
3, 60864, Note_on_c, 1, 49, 80
3, 60956, Note_off_c, 1, 49, 100
3, 60960, Note_on_c, 1, 53, 80
3, 61052, Note_off_c, 1, 53, 100
3, 61056, Note_on_c, 1, 53, 80
3, 61148, Note_off_c, 1, 53, 100
3, 61152, Note_on_c, 1, 49, 80
3, 61244, Note_off_c, 1, 49, 100
3, 61248, Note_on_c, 1, 53, 80
3, 61340, Note_off_c, 1, 53, 100
3, 61344, Note_on_c, 1, 56, 80
3, 61436, Note_off_c, 1, 56, 100
3, 61440, Note_on_c, 1, 56, 80
3, 61440, Note_on_c, 1, 54, 80
3, 61820, Note_off_c, 1, 54, 100
3, 61824, Note_on_c, 1, 51, 80
3, 62204, Note_off_c, 1, 56, 100
3, 62204, Note_off_c, 1, 51, 100
3, 62208, Note_on_c, 1, 56, 80
3, 62208, Note_on_c, 1, 53, 80
3, 62396, Note_off_c, 1, 56, 100
3, 62396, Note_off_c, 1, 53, 100
3, 62400, Note_on_c, 1, 56, 80
3, 62400, Note_on_c, 1, 51, 80
3, 62492, Note_off_c, 1, 56, 100
3, 62492, Note_off_c, 1, 51, 100
3, 62496, Note_on_c, 1, 56, 80
3, 62496, Note_on_c, 1, 53, 80
3, 62588, Note_off_c, 1, 56, 100
3, 62588, Note_off_c, 1, 53, 100
3, 62592, Note_on_c, 1, 56, 80
3, 62592, Note_on_c, 1, 51, 80
3, 62780, Note_off_c, 1, 56, 100
3, 62780, Note_off_c, 1, 51, 100
3, 62784, Note_on_c, 1, 56, 80
3, 62784, Note_on_c, 1, 49, 80
3, 62972, Note_off_c, 1, 56, 100
3, 62972, Note_off_c, 1, 49, 100
3, 62976, Note_on_c, 1, 56, 80
3, 62976, Note_on_c, 1, 54, 80
3, 63356, Note_off_c, 1, 54, 100
3, 63360, Note_on_c, 1, 51, 80
3, 63740, Note_off_c, 1, 56, 100
3, 63740, Note_off_c, 1, 51, 100
3, 63744, Note_on_c, 1, 56, 80
3, 63744, Note_on_c, 1, 53, 80
3, 63932, Note_off_c, 1, 56, 100
3, 63932, Note_off_c, 1, 53, 100
3, 63936, Note_on_c, 1, 56, 83
3, 63936, Note_on_c, 1, 51, 83
3, 64028, Note_off_c, 1, 56, 100
3, 64028, Note_off_c, 1, 51, 100
3, 64032, Note_on_c, 1, 56, 85
3, 64032, Note_on_c, 1, 49, 85
3, 64124, Note_off_c, 1, 56, 100
3, 64124, Note_off_c, 1, 49, 100
3, 64128, Note_on_c, 1, 56, 87
3, 64128, Note_on_c, 1, 48, 87
3, 64316, Note_off_c, 1, 56, 100
3, 64316, Note_off_c, 1, 48, 100
3, 64320, Note_on_c, 1, 56, 91
3, 64320, Note_on_c, 1, 49, 91
3, 64508, Note_off_c, 1, 56, 100
3, 64508, Note_off_c, 1, 49, 100
3, 64512, Note_on_c, 1, 56, 95
3, 64512, Note_on_c, 1, 54, 95
3, 64892, Note_off_c, 1, 54, 100
3, 64896, Note_on_c, 1, 51, 103
3, 65276, Note_off_c, 1, 56, 100
3, 65276, Note_off_c, 1, 51, 100
3, 65280, Note_on_c, 1, 61, 110
3, 65280, Note_on_c, 1, 56, 110
3, 65280, Note_on_c, 1, 53, 110
3, 65468, Note_off_c, 1, 61, 100
3, 65468, Note_off_c, 1, 56, 100
3, 65468, Note_off_c, 1, 53, 100
3, 65472, Note_on_c, 1, 61, 105
3, 65472, Note_on_c, 1, 54, 105
3, 65472, Note_on_c, 1, 51, 105
3, 65564, Note_off_c, 1, 61, 100
3, 65564, Note_off_c, 1, 54, 100
3, 65564, Note_off_c, 1, 51, 100
3, 65568, Note_on_c, 1, 61, 102
3, 65568, Note_on_c, 1, 53, 102
3, 65568, Note_on_c, 1, 49, 102
3, 65660, Note_off_c, 1, 61, 100
3, 65660, Note_off_c, 1, 53, 100
3, 65660, Note_off_c, 1, 49, 100
3, 65664, Note_on_c, 1, 60, 99
3, 65664, Note_on_c, 1, 54, 99
3, 65664, Note_on_c, 1, 51, 99
3, 65852, Note_off_c, 1, 60, 100
3, 65852, Note_off_c, 1, 54, 100
3, 65852, Note_off_c, 1, 51, 100
3, 65856, Note_on_c, 1, 61, 93
3, 65856, Note_on_c, 1, 56, 93
3, 65856, Note_on_c, 1, 53, 93
3, 66044, Note_off_c, 1, 61, 100
3, 66044, Note_off_c, 1, 56, 100
3, 66044, Note_off_c, 1, 53, 100
3, 66048, Note_on_c, 1, 63, 80
3, 66048, Note_on_c, 1, 58, 80
3, 66048, Note_on_c, 1, 54, 80
3, 66428, Note_off_c, 1, 63, 100
3, 66428, Note_off_c, 1, 58, 100
3, 66428, Note_off_c, 1, 54, 100
3, 66432, Note_on_c, 1, 60, 80
3, 66432, Note_on_c, 1, 56, 80
3, 66812, Note_off_c, 1, 60, 100
3, 66816, Note_on_c, 1, 61, 80
3, 67004, Note_off_c, 1, 56, 100
3, 67004, Note_off_c, 1, 61, 100
3, 67008, Note_on_c, 1, 49, 80
3, 67100, Note_off_c, 1, 49, 100
3, 67104, Note_on_c, 1, 51, 80
3, 67196, Note_off_c, 1, 51, 100
3, 67200, Note_on_c, 1, 53, 80
3, 67292, Note_off_c, 1, 53, 100
3, 67296, Note_on_c, 1, 56, 80
3, 67296, Note_on_c, 1, 49, 80
3, 67388, Note_off_c, 1, 56, 100
3, 67388, Note_off_c, 1, 49, 100
3, 67392, Note_on_c, 1, 56, 80
3, 67392, Note_on_c, 1, 51, 80
3, 67484, Note_off_c, 1, 56, 100
3, 67484, Note_off_c, 1, 51, 100
3, 67488, Note_on_c, 1, 56, 80
3, 67488, Note_on_c, 1, 53, 80
3, 67580, Note_off_c, 1, 56, 100
3, 67580, Note_off_c, 1, 53, 100
3, 67584, Note_on_c, 1, 56, 80
3, 67584, Note_on_c, 1, 54, 80
3, 67964, Note_off_c, 1, 54, 100
3, 67968, Note_on_c, 1, 51, 80
3, 68348, Note_off_c, 1, 56, 100
3, 68348, Note_off_c, 1, 51, 100
3, 68352, Note_on_c, 1, 56, 80
3, 68352, Note_on_c, 1, 53, 80
3, 68540, Note_off_c, 1, 56, 100
3, 68540, Note_off_c, 1, 53, 100
3, 68544, Note_on_c, 1, 56, 80
3, 68544, Note_on_c, 1, 51, 80
3, 68636, Note_off_c, 1, 56, 100
3, 68636, Note_off_c, 1, 51, 100
3, 68640, Note_on_c, 1, 56, 80
3, 68640, Note_on_c, 1, 53, 80
3, 68732, Note_off_c, 1, 56, 100
3, 68732, Note_off_c, 1, 53, 100
3, 68736, Note_on_c, 1, 56, 80
3, 68736, Note_on_c, 1, 51, 80
3, 68924, Note_off_c, 1, 56, 100
3, 68924, Note_off_c, 1, 51, 100
3, 68928, Note_on_c, 1, 56, 80
3, 68928, Note_on_c, 1, 49, 80
3, 69116, Note_off_c, 1, 56, 100
3, 69116, Note_off_c, 1, 49, 100
3, 69120, Note_on_c, 1, 56, 80
3, 69120, Note_on_c, 1, 54, 80
3, 69500, Note_off_c, 1, 54, 100
3, 69504, Note_on_c, 1, 51, 80
3, 69884, Note_off_c, 1, 56, 100
3, 69884, Note_off_c, 1, 51, 100
3, 69888, Note_on_c, 1, 56, 80
3, 69888, Note_on_c, 1, 53, 80
3, 70076, Note_off_c, 1, 56, 100
3, 70076, Note_off_c, 1, 53, 100
3, 70080, Note_on_c, 1, 56, 83
3, 70080, Note_on_c, 1, 51, 83
3, 70172, Note_off_c, 1, 56, 100
3, 70172, Note_off_c, 1, 51, 100
3, 70176, Note_on_c, 1, 56, 85
3, 70176, Note_on_c, 1, 49, 85
3, 70268, Note_off_c, 1, 56, 100
3, 70268, Note_off_c, 1, 49, 100
3, 70272, Note_on_c, 1, 56, 87
3, 70272, Note_on_c, 1, 48, 87
3, 70460, Note_off_c, 1, 56, 100
3, 70460, Note_off_c, 1, 48, 100
3, 70464, Note_on_c, 1, 56, 91
3, 70464, Note_on_c, 1, 49, 91
3, 70652, Note_off_c, 1, 56, 100
3, 70652, Note_off_c, 1, 49, 100
3, 70656, Note_on_c, 1, 56, 95
3, 70656, Note_on_c, 1, 54, 95
3, 71036, Note_off_c, 1, 54, 100
3, 71040, Note_on_c, 1, 51, 103
3, 71420, Note_off_c, 1, 56, 100
3, 71420, Note_off_c, 1, 51, 100
3, 71424, Note_on_c, 1, 61, 110
3, 71424, Note_on_c, 1, 56, 110
3, 71424, Note_on_c, 1, 53, 110
3, 71612, Note_off_c, 1, 61, 100
3, 71612, Note_off_c, 1, 56, 100
3, 71612, Note_off_c, 1, 53, 100
3, 71616, Note_on_c, 1, 61, 105
3, 71616, Note_on_c, 1, 54, 105
3, 71616, Note_on_c, 1, 51, 105
3, 71708, Note_off_c, 1, 61, 100
3, 71708, Note_off_c, 1, 54, 100
3, 71708, Note_off_c, 1, 51, 100
3, 71712, Note_on_c, 1, 61, 102
3, 71712, Note_on_c, 1, 53, 102
3, 71712, Note_on_c, 1, 49, 102
3, 71804, Note_off_c, 1, 61, 100
3, 71804, Note_off_c, 1, 53, 100
3, 71804, Note_off_c, 1, 49, 100
3, 71808, Note_on_c, 1, 60, 99
3, 71808, Note_on_c, 1, 54, 99
3, 71808, Note_on_c, 1, 51, 99
3, 71996, Note_off_c, 1, 60, 100
3, 71996, Note_off_c, 1, 54, 100
3, 71996, Note_off_c, 1, 51, 100
3, 72000, Note_on_c, 1, 61, 93
3, 72000, Note_on_c, 1, 56, 93
3, 72000, Note_on_c, 1, 53, 93
3, 72188, Note_off_c, 1, 61, 100
3, 72188, Note_off_c, 1, 56, 100
3, 72188, Note_off_c, 1, 53, 100
3, 72192, Note_on_c, 1, 63, 80
3, 72192, Note_on_c, 1, 58, 80
3, 72192, Note_on_c, 1, 54, 80
3, 72572, Note_off_c, 1, 63, 100
3, 72572, Note_off_c, 1, 58, 100
3, 72572, Note_off_c, 1, 54, 100
3, 72576, Note_on_c, 1, 60, 80
3, 72576, Note_on_c, 1, 56, 80
3, 72956, Note_off_c, 1, 60, 100
3, 72960, Note_on_c, 1, 61, 80
3, 73148, Note_off_c, 1, 56, 100
3, 73148, Note_off_c, 1, 61, 100
3, 73152, Note_on_c, 1, 49, 80
3, 73340, Note_off_c, 1, 49, 100
3, 73392, Note_on_c, 1, 68, 95
3, 73440, Note_on_c, 1, 65, 95
3, 73476, Note_off_c, 1, 68, 100
3, 73488, Note_on_c, 1, 68, 95
3, 73532, Note_off_c, 1, 65, 100
3, 73536, Note_on_c, 1, 64, 95
3, 73572, Note_off_c, 1, 68, 100
3, 73584, Note_on_c, 1, 68, 95
3, 73620, Note_off_c, 1, 64, 100
3, 73632, Note_on_c, 1, 65, 95
3, 73668, Note_off_c, 1, 68, 100
3, 73680, Note_on_c, 1, 68, 95
3, 73724, Note_off_c, 1, 65, 100
3, 73728, Note_on_c, 1, 61, 95
3, 73772, Note_off_c, 1, 68, 100
3, 73776, Note_on_c, 1, 68, 95
3, 73808, Note_off_c, 1, 61, 100
3, 73824, Note_on_c, 1, 65, 95
3, 73868, Note_off_c, 1, 68, 100
3, 73872, Note_on_c, 1, 68, 95
3, 73916, Note_off_c, 1, 65, 100
3, 73920, Note_on_c, 1, 73, 110
3, 73956, Note_off_c, 1, 68, 100
3, 73968, Note_on_c, 1, 68, 110
3, 74008, Note_off_c, 1, 73, 100
3, 74016, Note_on_c, 1, 65, 110
3, 74048, Note_off_c, 1, 68, 100
3, 74064, Note_on_c, 1, 68, 110
3, 74104, Note_off_c, 1, 65, 100
3, 74112, Note_on_c, 1, 61, 110
3, 74156, Note_off_c, 1, 68, 100
3, 74160, Note_on_c, 1, 70, 110
3, 74192, Note_off_c, 1, 61, 100
3, 74208, Note_on_c, 1, 66, 110
3, 74244, Note_off_c, 1, 70, 100
3, 74256, Note_on_c, 1, 70, 110
3, 74300, Note_off_c, 1, 66, 100
3, 74304, Note_on_c, 1, 73, 110
3, 74336, Note_off_c, 1, 70, 100
3, 74352, Note_on_c, 1, 70, 110
3, 74392, Note_off_c, 1, 73, 100
3, 74400, Note_on_c, 1, 66, 110
3, 74432, Note_off_c, 1, 70, 100
3, 74448, Note_on_c, 1, 70, 110
3, 74492, Note_off_c, 1, 66, 100
3, 74496, Note_on_c, 1, 61, 110
3, 74536, Note_off_c, 1, 70, 100
3, 74544, Note_on_c, 1, 68, 110
3, 74576, Note_off_c, 1, 61, 100
3, 74592, Note_on_c, 1, 65, 110
3, 74636, Note_off_c, 1, 68, 100
3, 74640, Note_on_c, 1, 68, 110
3, 74680, Note_off_c, 1, 65, 100
3, 74688, Note_on_c, 1, 73, 110
3, 74724, Note_off_c, 1, 68, 100
3, 74736, Note_on_c, 1, 68, 110
3, 74776, Note_off_c, 1, 73, 100
3, 74784, Note_on_c, 1, 65, 110
3, 74828, Note_off_c, 1, 68, 100
3, 74832, Note_on_c, 1, 68, 110
3, 74872, Note_off_c, 1, 65, 100
3, 74880, Note_on_c, 1, 61, 110
3, 74920, Note_off_c, 1, 68, 100
3, 74928, Note_on_c, 1, 68, 110
3, 74964, Note_off_c, 1, 61, 100
3, 74976, Note_on_c, 1, 65, 110
3, 75012, Note_off_c, 1, 68, 100
3, 75024, Note_on_c, 1, 68, 110
3, 75064, Note_off_c, 1, 65, 100
3, 75072, Note_on_c, 1, 54, 110
3, 75116, Note_off_c, 1, 68, 100
3, 75120, Note_on_c, 1, 66, 110
3, 75156, Note_off_c, 1, 54, 100
3, 75168, Note_on_c, 1, 63, 110
3, 75200, Note_off_c, 1, 66, 100
3, 75216, Note_on_c, 1, 66, 110
3, 75256, Note_off_c, 1, 63, 100
3, 75264, Note_on_c, 1, 56, 110
3, 75296, Note_off_c, 1, 66, 100
3, 75312, Note_on_c, 1, 66, 110
3, 75348, Note_off_c, 1, 56, 100
3, 75360, Note_on_c, 1, 63, 110
3, 75400, Note_off_c, 1, 66, 100
3, 75408, Note_on_c, 1, 66, 110
3, 75444, Note_off_c, 1, 63, 100
3, 75456, Note_on_c, 1, 56, 110
3, 75488, Note_off_c, 1, 66, 100
3, 75504, Note_on_c, 1, 66, 110
3, 75540, Note_off_c, 1, 56, 100
3, 75552, Note_on_c, 1, 63, 110
3, 75596, Note_off_c, 1, 66, 100
3, 75600, Note_on_c, 1, 66, 110
3, 75640, Note_off_c, 1, 63, 100
3, 75648, Note_on_c, 1, 56, 110
3, 75688, Note_off_c, 1, 66, 100
3, 75696, Note_on_c, 1, 66, 110
3, 75740, Note_off_c, 1, 56, 100
3, 75744, Note_on_c, 1, 63, 110
3, 75784, Note_off_c, 1, 66, 100
3, 75792, Note_on_c, 1, 66, 110
3, 75832, Note_off_c, 1, 63, 100
3, 75840, Note_on_c, 1, 56, 110
3, 75872, Note_off_c, 1, 66, 100
3, 75888, Note_on_c, 1, 66, 110
3, 75928, Note_off_c, 1, 56, 100
3, 75936, Note_on_c, 1, 63, 110
3, 75968, Note_off_c, 1, 66, 100
3, 75984, Note_on_c, 1, 66, 95
3, 76028, Note_off_c, 1, 63, 100
3, 76032, Note_on_c, 1, 61, 95
3, 76072, Note_off_c, 1, 66, 100
3, 76080, Note_on_c, 1, 63, 95
3, 76116, Note_off_c, 1, 61, 100
3, 76128, Note_on_c, 1, 65, 95
3, 76164, Note_off_c, 1, 63, 100
3, 76176, Note_on_c, 1, 66, 95
3, 76212, Note_off_c, 1, 65, 100
3, 76224, Note_on_c, 1, 68, 95
3, 76260, Note_off_c, 1, 66, 100
3, 76272, Note_on_c, 1, 70, 95
3, 76308, Note_off_c, 1, 68, 100
3, 76320, Note_on_c, 1, 68, 95
3, 76352, Note_off_c, 1, 70, 100
3, 76368, Note_on_c, 1, 66, 95
3, 76408, Note_off_c, 1, 68, 100
3, 76416, Note_on_c, 1, 65, 95
3, 76456, Note_off_c, 1, 66, 100
3, 76464, Note_on_c, 1, 66, 95
3, 76504, Note_off_c, 1, 65, 100
3, 76512, Note_on_c, 1, 68, 95
3, 76552, Note_off_c, 1, 66, 100
3, 76560, Note_on_c, 1, 70, 95
3, 76592, Note_off_c, 1, 68, 100
3, 76608, Note_on_c, 1, 72, 95
3, 76652, Note_off_c, 1, 70, 100
3, 76656, Note_on_c, 1, 73, 95
3, 76692, Note_off_c, 1, 72, 100
3, 76704, Note_on_c, 1, 68, 95
3, 76740, Note_off_c, 1, 73, 100
3, 76752, Note_on_c, 1, 66, 95
3, 76784, Note_off_c, 1, 68, 100
3, 76800, Note_on_c, 1, 65, 95
3, 76836, Note_off_c, 1, 66, 100
3, 76848, Note_on_c, 1, 73, 95
3, 76880, Note_off_c, 1, 65, 100
3, 76896, Note_on_c, 1, 68, 96
3, 76936, Note_off_c, 1, 73, 100
3, 76944, Note_on_c, 1, 73, 96
3, 76980, Note_off_c, 1, 68, 100
3, 76992, Note_on_c, 1, 77, 97
3, 77032, Note_off_c, 1, 73, 100
3, 77040, Note_on_c, 1, 73, 97
3, 77076, Note_off_c, 1, 77, 100
3, 77088, Note_on_c, 1, 68, 98
3, 77124, Note_off_c, 1, 73, 100
3, 77136, Note_on_c, 1, 73, 98
3, 77168, Note_off_c, 1, 68, 100
3, 77184, Note_on_c, 1, 66, 99
3, 77224, Note_off_c, 1, 73, 100
3, 77232, Note_on_c, 1, 73, 99
3, 77272, Note_off_c, 1, 66, 100
3, 77280, Note_on_c, 1, 70, 100
3, 77320, Note_off_c, 1, 73, 100
3, 77328, Note_on_c, 1, 73, 100
3, 77364, Note_off_c, 1, 70, 100
3, 77376, Note_on_c, 1, 78, 101
3, 77416, Note_off_c, 1, 73, 100
3, 77424, Note_on_c, 1, 73, 101
3, 77464, Note_off_c, 1, 78, 100
3, 77472, Note_on_c, 1, 70, 102
3, 77516, Note_off_c, 1, 73, 100
3, 77520, Note_on_c, 1, 73, 102
3, 77560, Note_off_c, 1, 70, 100
3, 77568, Note_on_c, 1, 65, 103
3, 77612, Note_off_c, 1, 73, 100
3, 77616, Note_on_c, 1, 73, 103
3, 77652, Note_off_c, 1, 65, 100
3, 77664, Note_on_c, 1, 68, 104
3, 77708, Note_off_c, 1, 73, 100
3, 77712, Note_on_c, 1, 73, 104
3, 77752, Note_off_c, 1, 68, 100
3, 77760, Note_on_c, 1, 77, 105
3, 77800, Note_off_c, 1, 73, 100
3, 77808, Note_on_c, 1, 73, 105
3, 77848, Note_off_c, 1, 77, 100
3, 77856, Note_on_c, 1, 68, 106
3, 77888, Note_off_c, 1, 73, 100
3, 77904, Note_on_c, 1, 73, 106
3, 77944, Note_off_c, 1, 68, 100
3, 77952, Note_on_c, 1, 65, 107
3, 77992, Note_off_c, 1, 73, 100
3, 78000, Note_on_c, 1, 73, 107
3, 78044, Note_off_c, 1, 65, 100
3, 78048, Note_on_c, 1, 68, 108
3, 78092, Note_off_c, 1, 73, 100
3, 78096, Note_on_c, 1, 73, 108
3, 78132, Note_off_c, 1, 68, 100
3, 78144, Note_on_c, 1, 64, 108
3, 78184, Note_off_c, 1, 73, 100
3, 78192, Note_on_c, 1, 70, 109
3, 78228, Note_off_c, 1, 64, 100
3, 78240, Note_on_c, 1, 67, 109
3, 78272, Note_off_c, 1, 70, 100
3, 78288, Note_on_c, 1, 70, 110
3, 78328, Note_off_c, 1, 67, 100
3, 78336, Note_on_c, 1, 63, 110
3, 78372, Note_off_c, 1, 70, 100
3, 78384, Note_on_c, 1, 69, 110
3, 78420, Note_off_c, 1, 63, 100
3, 78432, Note_on_c, 1, 66, 110
3, 78468, Note_off_c, 1, 69, 100
3, 78480, Note_on_c, 1, 69, 110
3, 78512, Note_off_c, 1, 66, 100
3, 78528, Note_on_c, 1, 63, 110
3, 78564, Note_off_c, 1, 69, 100
3, 78576, Note_on_c, 1, 69, 110
3, 78616, Note_off_c, 1, 63, 100
3, 78624, Note_on_c, 1, 66, 110
3, 78664, Note_off_c, 1, 69, 100
3, 78672, Note_on_c, 1, 69, 110
3, 78704, Note_off_c, 1, 66, 100
3, 78720, Note_on_c, 1, 63, 110
3, 78756, Note_off_c, 1, 69, 100
3, 78768, Note_on_c, 1, 68, 110
3, 78812, Note_off_c, 1, 63, 100
3, 78816, Note_on_c, 1, 66, 110
3, 78852, Note_off_c, 1, 68, 100
3, 78864, Note_on_c, 1, 68, 110
3, 78908, Note_off_c, 1, 66, 100
3, 78912, Note_on_c, 1, 63, 110
3, 78952, Note_off_c, 1, 68, 100
3, 78960, Note_on_c, 1, 68, 110
3, 78996, Note_off_c, 1, 63, 100
3, 79008, Note_on_c, 1, 66, 110
3, 79048, Note_off_c, 1, 68, 100
3, 79056, Note_on_c, 1, 68, 110
3, 79096, Note_off_c, 1, 66, 100
3, 79100, Note_off_c, 1, 68, 100
3, 79104, Note_on_c, 1, 68, 110
3, 79104, Note_on_c, 1, 65, 110
3, 79104, Note_on_c, 1, 61, 110
3, 79292, Note_off_c, 1, 68, 100
3, 79292, Note_off_c, 1, 65, 100
3, 79292, Note_off_c, 1, 61, 100
3, 80064, Note_on_c, 1, 68, 80
3, 80064, Note_on_c, 1, 65, 80
3, 80064, Note_on_c, 1, 61, 80
3, 80444, Note_off_c, 1, 68, 100
3, 80444, Note_off_c, 1, 65, 100
3, 80444, Note_off_c, 1, 61, 100
3, 80448, Note_on_c, 1, 70, 80
3, 80448, Note_on_c, 1, 66, 80
3, 80448, Note_on_c, 1, 61, 80
3, 80828, Note_off_c, 1, 61, 100
3, 80828, Note_off_c, 1, 66, 100
3, 80828, Note_off_c, 1, 70, 100
3, 80832, Note_on_c, 1, 68, 80
3, 80832, Note_on_c, 1, 65, 80
3, 80832, Note_on_c, 1, 61, 80
3, 81212, Note_off_c, 1, 68, 100
3, 81212, Note_off_c, 1, 65, 100
3, 81212, Note_off_c, 1, 61, 100
3, 81216, Note_on_c, 1, 66, 80
3, 81216, Note_on_c, 1, 63, 80
3, 81216, Note_on_c, 1, 61, 80
3, 81216, Note_on_c, 1, 54, 80
3, 81404, Note_off_c, 1, 66, 100
3, 81404, Note_off_c, 1, 63, 100
3, 81404, Note_off_c, 1, 61, 100
3, 81404, Note_off_c, 1, 54, 100
3, 81408, Note_on_c, 1, 66, 80
3, 81408, Note_on_c, 1, 63, 80
3, 81408, Note_on_c, 1, 61, 80
3, 81408, Note_on_c, 1, 56, 80
3, 81596, Note_off_c, 1, 66, 100
3, 81596, Note_off_c, 1, 63, 100
3, 81596, Note_off_c, 1, 61, 100
3, 81596, Note_off_c, 1, 56, 100
3, 81600, Note_on_c, 1, 66, 80
3, 81600, Note_on_c, 1, 63, 80
3, 81600, Note_on_c, 1, 61, 80
3, 81600, Note_on_c, 1, 56, 80
3, 81788, Note_off_c, 1, 66, 100
3, 81788, Note_off_c, 1, 63, 100
3, 81788, Note_off_c, 1, 61, 100
3, 81788, Note_off_c, 1, 56, 100
3, 81792, Note_on_c, 1, 66, 80
3, 81792, Note_on_c, 1, 63, 80
3, 81792, Note_on_c, 1, 60, 80
3, 81792, Note_on_c, 1, 56, 80
3, 81980, Note_off_c, 1, 66, 100
3, 81980, Note_off_c, 1, 63, 100
3, 81980, Note_off_c, 1, 60, 100
3, 81980, Note_off_c, 1, 56, 100
3, 81984, Note_on_c, 1, 66, 80
3, 81984, Note_on_c, 1, 63, 80
3, 81984, Note_on_c, 1, 60, 80
3, 81984, Note_on_c, 1, 56, 80
3, 82172, Note_off_c, 1, 66, 100
3, 82172, Note_off_c, 1, 63, 100
3, 82172, Note_off_c, 1, 60, 100
3, 82172, Note_off_c, 1, 56, 100
3, 82176, Note_on_c, 1, 65, 80
3, 82176, Note_on_c, 1, 61, 80
3, 82364, Note_off_c, 1, 65, 100
3, 82364, Note_off_c, 1, 61, 100
3, 83136, Note_on_c, 1, 73, 95
3, 83136, Note_on_c, 1, 68, 95
3, 83516, Note_off_c, 1, 73, 100
3, 83516, Note_off_c, 1, 68, 100
3, 83520, Note_on_c, 1, 73, 99
3, 83520, Note_on_c, 1, 70, 99
3, 83900, Note_off_c, 1, 70, 100
3, 83900, Note_off_c, 1, 73, 100
3, 83904, Note_on_c, 1, 73, 104
3, 83904, Note_on_c, 1, 68, 104
3, 84284, Note_off_c, 1, 73, 100
3, 84284, Note_off_c, 1, 68, 100
3, 84288, Note_on_c, 1, 69, 109
3, 84476, Note_off_c, 1, 69, 100
3, 84480, Note_on_c, 1, 68, 110
3, 84668, Note_off_c, 1, 68, 100
3, 84672, Note_on_c, 1, 68, 110
3, 84860, Note_off_c, 1, 68, 100
3, 84864, Note_on_c, 1, 56, 110
3, 85052, Note_off_c, 1, 56, 100
3, 85056, Note_on_c, 1, 56, 110
3, 85244, Note_off_c, 1, 56, 100
3, 85248, Note_on_c, 1, 56, 110
3, 85296, Note_on_c, 1, 58, 109
3, 85328, Note_off_c, 1, 56, 100
3, 85344, Note_on_c, 1, 60, 108
3, 85380, Note_off_c, 1, 58, 100
3, 85392, Note_on_c, 1, 61, 106
3, 85436, Note_off_c, 1, 60, 100
3, 85440, Note_on_c, 1, 60, 105
3, 85480, Note_off_c, 1, 61, 100
3, 85488, Note_on_c, 1, 61, 103
3, 85532, Note_off_c, 1, 60, 100
3, 85536, Note_on_c, 1, 63, 102
3, 85576, Note_off_c, 1, 61, 100
3, 85584, Note_on_c, 1, 65, 101
3, 85620, Note_off_c, 1, 63, 100
3, 85632, Note_on_c, 1, 63, 99
3, 85668, Note_off_c, 1, 65, 100
3, 85680, Note_on_c, 1, 65, 98
3, 85720, Note_off_c, 1, 63, 100
3, 85728, Note_on_c, 1, 66, 96
3, 85768, Note_off_c, 1, 65, 100
3, 85776, Note_on_c, 1, 68, 95
3, 85820, Note_off_c, 1, 66, 100
3, 85824, Note_on_c, 1, 70, 93
3, 85860, Note_off_c, 1, 68, 100
3, 85872, Note_on_c, 1, 72, 92
3, 85912, Note_off_c, 1, 70, 100
3, 85920, Note_on_c, 1, 73, 91
3, 85952, Note_off_c, 1, 72, 100
3, 85968, Note_on_c, 1, 68, 80
3, 86008, Note_off_c, 1, 73, 100
3, 86016, Note_on_c, 1, 66, 80
3, 86056, Note_off_c, 1, 68, 100
3, 86064, Note_on_c, 1, 75, 80
3, 86100, Note_off_c, 1, 66, 100
3, 86112, Note_on_c, 1, 72, 80
3, 86152, Note_off_c, 1, 75, 100
3, 86160, Note_on_c, 1, 75, 80
3, 86204, Note_off_c, 1, 72, 100
3, 86208, Note_on_c, 1, 71, 80
3, 86244, Note_off_c, 1, 75, 100
3, 86256, Note_on_c, 1, 75, 80
3, 86288, Note_off_c, 1, 71, 100
3, 86304, Note_on_c, 1, 72, 80
3, 86348, Note_off_c, 1, 75, 100
3, 86352, Note_on_c, 1, 75, 80
3, 86384, Note_off_c, 1, 72, 100
3, 86400, Note_on_c, 1, 78, 80
3, 86432, Note_off_c, 1, 75, 100
3, 86448, Note_on_c, 1, 75, 80
3, 86488, Note_off_c, 1, 78, 100
3, 86496, Note_on_c, 1, 72, 80
3, 86536, Note_off_c, 1, 75, 100
3, 86544, Note_on_c, 1, 75, 80
3, 86584, Note_off_c, 1, 72, 100
3, 86592, Note_on_c, 1, 66, 80
3, 86632, Note_off_c, 1, 75, 100
3, 86640, Note_on_c, 1, 75, 80
3, 86676, Note_off_c, 1, 66, 100
3, 86688, Note_on_c, 1, 72, 80
3, 86724, Note_off_c, 1, 75, 100
3, 86736, Note_on_c, 1, 75, 80
3, 86776, Note_off_c, 1, 72, 100
3, 86784, Note_on_c, 1, 65, 80
3, 86824, Note_off_c, 1, 75, 100
3, 86832, Note_on_c, 1, 73, 80
3, 86872, Note_off_c, 1, 65, 100
3, 86880, Note_on_c, 1, 68, 80
3, 86920, Note_off_c, 1, 73, 100
3, 86928, Note_on_c, 1, 73, 80
3, 86968, Note_off_c, 1, 68, 100
3, 86976, Note_on_c, 1, 65, 80
3, 87016, Note_off_c, 1, 73, 100
3, 87024, Note_on_c, 1, 73, 80
3, 87056, Note_off_c, 1, 65, 100
3, 87072, Note_on_c, 1, 68, 80
3, 87108, Note_off_c, 1, 73, 100
3, 87120, Note_on_c, 1, 73, 80
3, 87156, Note_off_c, 1, 68, 100
3, 87168, Note_on_c, 1, 63, 80
3, 87204, Note_off_c, 1, 73, 100
3, 87216, Note_on_c, 1, 72, 80
3, 87260, Note_off_c, 1, 63, 100
3, 87264, Note_on_c, 1, 66, 80
3, 87304, Note_off_c, 1, 72, 100
3, 87312, Note_on_c, 1, 72, 80
3, 87348, Note_off_c, 1, 66, 100
3, 87360, Note_on_c, 1, 61, 80
3, 87396, Note_off_c, 1, 72, 100
3, 87408, Note_on_c, 1, 73, 80
3, 87448, Note_off_c, 1, 61, 100
3, 87456, Note_on_c, 1, 65, 80
3, 87496, Note_off_c, 1, 73, 100
3, 87504, Note_on_c, 1, 73, 80
3, 87540, Note_off_c, 1, 65, 100
3, 87552, Note_on_c, 1, 66, 80
3, 87596, Note_off_c, 1, 73, 100
3, 87600, Note_on_c, 1, 75, 80
3, 87636, Note_off_c, 1, 66, 100
3, 87648, Note_on_c, 1, 72, 80
3, 87680, Note_off_c, 1, 75, 100
3, 87696, Note_on_c, 1, 75, 80
3, 87740, Note_off_c, 1, 72, 100
3, 87744, Note_on_c, 1, 71, 80
3, 87788, Note_off_c, 1, 75, 100
3, 87792, Note_on_c, 1, 75, 80
3, 87832, Note_off_c, 1, 71, 100
3, 87840, Note_on_c, 1, 72, 80
3, 87880, Note_off_c, 1, 75, 100
3, 87888, Note_on_c, 1, 75, 80
3, 87920, Note_off_c, 1, 72, 100
3, 87936, Note_on_c, 1, 78, 80
3, 87980, Note_off_c, 1, 75, 100
3, 87984, Note_on_c, 1, 75, 80
3, 88016, Note_off_c, 1, 78, 100
3, 88032, Note_on_c, 1, 72, 80
3, 88076, Note_off_c, 1, 75, 100
3, 88080, Note_on_c, 1, 75, 80
3, 88116, Note_off_c, 1, 72, 100
3, 88128, Note_on_c, 1, 66, 80
3, 88168, Note_off_c, 1, 75, 100
3, 88176, Note_on_c, 1, 75, 80
3, 88216, Note_off_c, 1, 66, 100
3, 88224, Note_on_c, 1, 72, 80
3, 88268, Note_off_c, 1, 75, 100
3, 88272, Note_on_c, 1, 75, 80
3, 88316, Note_off_c, 1, 72, 100
3, 88320, Note_on_c, 1, 65, 80
3, 88360, Note_off_c, 1, 75, 100
3, 88368, Note_on_c, 1, 77, 80
3, 88412, Note_off_c, 1, 65, 100
3, 88416, Note_on_c, 1, 73, 80
3, 88452, Note_off_c, 1, 77, 100
3, 88464, Note_on_c, 1, 77, 80
3, 88500, Note_off_c, 1, 73, 100
3, 88512, Note_on_c, 1, 68, 80
3, 88548, Note_off_c, 1, 77, 100
3, 88560, Note_on_c, 1, 77, 80
3, 88596, Note_off_c, 1, 68, 100
3, 88608, Note_on_c, 1, 73, 80
3, 88652, Note_off_c, 1, 77, 100
3, 88656, Note_on_c, 1, 77, 80
3, 88696, Note_off_c, 1, 73, 100
3, 88704, Note_on_c, 1, 66, 80
3, 88748, Note_off_c, 1, 77, 100
3, 88752, Note_on_c, 1, 75, 80
3, 88788, Note_off_c, 1, 66, 100
3, 88800, Note_on_c, 1, 72, 80
3, 88832, Note_off_c, 1, 75, 100
3, 88848, Note_on_c, 1, 75, 80
3, 88892, Note_off_c, 1, 72, 100
3, 88896, Note_on_c, 1, 65, 80
3, 88940, Note_off_c, 1, 75, 100
3, 88944, Note_on_c, 1, 73, 80
3, 88976, Note_off_c, 1, 65, 100
3, 88992, Note_on_c, 1, 68, 80
3, 89028, Note_off_c, 1, 73, 100
3, 89040, Note_on_c, 1, 73, 80
3, 89084, Note_off_c, 1, 68, 100
3, 89088, Note_on_c, 1, 72, 80
3, 89124, Note_off_c, 1, 73, 100
3, 89136, Note_on_c, 1, 78, 81
3, 89180, Note_off_c, 1, 72, 100
3, 89184, Note_on_c, 1, 75, 82
3, 89224, Note_off_c, 1, 78, 100
3, 89232, Note_on_c, 1, 78, 83
3, 89268, Note_off_c, 1, 75, 100
3, 89280, Note_on_c, 1, 80, 84
3, 89320, Note_off_c, 1, 78, 100
3, 89328, Note_on_c, 1, 78, 85
3, 89368, Note_off_c, 1, 80, 100
3, 89376, Note_on_c, 1, 75, 86
3, 89420, Note_off_c, 1, 78, 100
3, 89424, Note_on_c, 1, 78, 87
3, 89456, Note_off_c, 1, 75, 100
3, 89472, Note_on_c, 1, 80, 88
3, 89516, Note_off_c, 1, 78, 100
3, 89520, Note_on_c, 1, 78, 89
3, 89564, Note_off_c, 1, 80, 100
3, 89568, Note_on_c, 1, 75, 90
3, 89608, Note_off_c, 1, 78, 100
3, 89616, Note_on_c, 1, 78, 91
3, 89652, Note_off_c, 1, 75, 100
3, 89664, Note_on_c, 1, 80, 92
3, 89704, Note_off_c, 1, 78, 100
3, 89712, Note_on_c, 1, 78, 93
3, 89748, Note_off_c, 1, 80, 100
3, 89760, Note_on_c, 1, 75, 94
3, 89800, Note_off_c, 1, 78, 100
3, 89808, Note_on_c, 1, 78, 95
3, 89848, Note_off_c, 1, 75, 100
3, 89856, Note_on_c, 1, 77, 96
3, 89896, Note_off_c, 1, 78, 100
3, 89904, Note_on_c, 1, 80, 97
3, 89948, Note_off_c, 1, 77, 100
3, 89952, Note_on_c, 1, 77, 98
3, 89984, Note_off_c, 1, 80, 100
3, 90000, Note_on_c, 1, 80, 99
3, 90044, Note_off_c, 1, 77, 100
3, 90048, Note_on_c, 1, 85, 100
3, 90084, Note_off_c, 1, 80, 100
3, 90096, Note_on_c, 1, 80, 101
3, 90140, Note_off_c, 1, 85, 100
3, 90144, Note_on_c, 1, 85, 102
3, 90188, Note_off_c, 1, 80, 100
3, 90192, Note_on_c, 1, 80, 103
3, 90232, Note_off_c, 1, 85, 100
3, 90240, Note_on_c, 1, 84, 104
3, 90276, Note_off_c, 1, 80, 100
3, 90288, Note_on_c, 1, 78, 105
3, 90328, Note_off_c, 1, 84, 100
3, 90336, Note_on_c, 1, 84, 106
3, 90372, Note_off_c, 1, 78, 100
3, 90384, Note_on_c, 1, 78, 107
3, 90428, Note_off_c, 1, 84, 100
3, 90432, Note_on_c, 1, 77, 107
3, 90476, Note_off_c, 1, 78, 100
3, 90480, Note_on_c, 1, 80, 108
3, 90512, Note_off_c, 1, 77, 100
3, 90528, Note_on_c, 1, 77, 109
3, 90572, Note_off_c, 1, 80, 100
3, 90576, Note_on_c, 1, 80, 110
3, 90612, Note_off_c, 1, 77, 100
3, 90624, Note_on_c, 1, 82, 120
3, 90660, Note_off_c, 1, 80, 100
3, 90672, Note_on_c, 1, 78, 120
3, 90716, Note_off_c, 1, 82, 100
3, 90720, Note_on_c, 1, 82, 120
3, 90760, Note_off_c, 1, 78, 100
3, 90768, Note_on_c, 1, 80, 120
3, 90804, Note_off_c, 1, 82, 100
3, 90816, Note_on_c, 1, 78, 120
3, 90856, Note_off_c, 1, 80, 100
3, 90864, Note_on_c, 1, 77, 120
3, 90900, Note_off_c, 1, 78, 100
3, 90912, Note_on_c, 1, 75, 120
3, 90952, Note_off_c, 1, 77, 100
3, 90960, Note_on_c, 1, 73, 120
3, 90996, Note_off_c, 1, 75, 100
3, 91008, Note_on_c, 1, 72, 120
3, 91044, Note_off_c, 1, 73, 100
3, 91056, Note_on_c, 1, 70, 120
3, 91088, Note_off_c, 1, 72, 100
3, 91104, Note_on_c, 1, 68, 120
3, 91140, Note_off_c, 1, 70, 100
3, 91152, Note_on_c, 1, 66, 120
3, 91192, Note_off_c, 1, 68, 100
3, 91200, Note_on_c, 1, 65, 120
3, 91240, Note_off_c, 1, 66, 100
3, 91248, Note_on_c, 1, 63, 120
3, 91284, Note_off_c, 1, 65, 100
3, 91296, Note_on_c, 1, 61, 120
3, 91332, Note_off_c, 1, 63, 100
3, 91344, Note_on_c, 1, 60, 120
3, 91380, Note_off_c, 1, 61, 100
3, 91388, Note_off_c, 1, 60, 100
3, 91392, Note_on_c, 1, 61, 110
3, 91580, Note_off_c, 1, 61, 100
3, 92352, Note_on_c, 1, 54, 80
3, 92732, Note_off_c, 1, 54, 100
3, 92736, Note_on_c, 1, 75, 80
3, 92736, Note_on_c, 1, 68, 80
3, 92736, Note_on_c, 1, 66, 80
3, 93116, Note_off_c, 1, 66, 100
3, 93116, Note_off_c, 1, 68, 100
3, 93116, Note_off_c, 1, 75, 100
3, 93120, Note_on_c, 1, 73, 80
3, 93120, Note_on_c, 1, 68, 80
3, 93120, Note_on_c, 1, 65, 80
3, 93212, Note_off_c, 1, 73, 100
3, 93212, Note_off_c, 1, 68, 100
3, 93212, Note_off_c, 1, 65, 100
3, 93312, Note_on_c, 1, 72, 80
3, 93312, Note_on_c, 1, 68, 80
3, 93312, Note_on_c, 1, 63, 80
3, 93404, Note_off_c, 1, 72, 100
3, 93404, Note_off_c, 1, 68, 100
3, 93404, Note_off_c, 1, 63, 100
3, 93504, Note_on_c, 1, 73, 80
3, 93504, Note_on_c, 1, 68, 80
3, 93504, Note_on_c, 1, 61, 80
3, 93596, Note_off_c, 1, 73, 100
3, 93596, Note_off_c, 1, 68, 100
3, 93596, Note_off_c, 1, 61, 100
3, 93888, Note_on_c, 1, 54, 80
3, 94268, Note_off_c, 1, 54, 100
3, 94272, Note_on_c, 1, 78, 80
3, 94272, Note_on_c, 1, 75, 80
3, 94272, Note_on_c, 1, 72, 80
3, 94652, Note_off_c, 1, 72, 100
3, 94652, Note_off_c, 1, 75, 100
3, 94652, Note_off_c, 1, 78, 100
3, 94656, Note_on_c, 1, 77, 80
3, 94656, Note_on_c, 1, 73, 80
3, 94656, Note_on_c, 1, 68, 80
3, 94748, Note_off_c, 1, 77, 100
3, 94748, Note_off_c, 1, 73, 100
3, 94748, Note_off_c, 1, 68, 100
3, 94848, Note_on_c, 1, 75, 80
3, 94848, Note_on_c, 1, 72, 80
3, 94848, Note_on_c, 1, 66, 80
3, 94940, Note_off_c, 1, 75, 100
3, 94940, Note_off_c, 1, 72, 100
3, 94940, Note_off_c, 1, 66, 100
3, 95040, Note_on_c, 1, 73, 80
3, 95040, Note_on_c, 1, 68, 80
3, 95040, Note_on_c, 1, 65, 80
3, 95132, Note_off_c, 1, 73, 100
3, 95132, Note_off_c, 1, 68, 100
3, 95132, Note_off_c, 1, 65, 100
3, 95424, Note_on_c, 1, 75, 86
3, 95424, Note_on_c, 1, 72, 86
3, 95424, Note_on_c, 1, 66, 86
3, 95804, Note_off_c, 1, 75, 100
3, 95804, Note_off_c, 1, 72, 100
3, 95804, Note_off_c, 1, 66, 100
3, 95808, Note_on_c, 1, 80, 96
3, 95808, Note_on_c, 1, 78, 96
3, 95808, Note_on_c, 1, 75, 96
3, 96188, Note_off_c, 1, 75, 100
3, 96188, Note_off_c, 1, 78, 100
3, 96188, Note_off_c, 1, 80, 100
3, 96192, Note_on_c, 1, 80, 107
3, 96192, Note_on_c, 1, 77, 107
3, 96192, Note_on_c, 1, 73, 107
3, 96284, Note_off_c, 1, 80, 100
3, 96284, Note_off_c, 1, 77, 100
3, 96284, Note_off_c, 1, 73, 100
3, 96384, Note_on_c, 1, 78, 112
3, 96384, Note_on_c, 1, 75, 112
3, 96384, Note_on_c, 1, 72, 112
3, 96384, Note_on_c, 1, 66, 112
3, 96476, Note_off_c, 1, 78, 100
3, 96476, Note_off_c, 1, 75, 100
3, 96476, Note_off_c, 1, 72, 100
3, 96476, Note_off_c, 1, 66, 100
3, 96576, Note_on_c, 1, 77, 117
3, 96576, Note_on_c, 1, 73, 117
3, 96576, Note_on_c, 1, 68, 117
3, 96576, Note_on_c, 1, 65, 117
3, 96668, Note_off_c, 1, 77, 100
3, 96668, Note_off_c, 1, 73, 100
3, 96668, Note_off_c, 1, 68, 100
3, 96668, Note_off_c, 1, 65, 100
3, 96960, Note_on_c, 1, 73, 114
3, 96960, Note_on_c, 1, 70, 114
3, 96960, Note_on_c, 1, 66, 114
3, 96960, Note_on_c, 1, 63, 114
3, 97052, Note_off_c, 1, 73, 100
3, 97052, Note_off_c, 1, 70, 100
3, 97052, Note_off_c, 1, 66, 100
3, 97052, Note_off_c, 1, 63, 100
3, 97344, Note_on_c, 1, 66, 104
3, 97344, Note_on_c, 1, 63, 104
3, 97344, Note_on_c, 1, 60, 104
3, 97344, Note_on_c, 1, 56, 104
3, 97436, Note_off_c, 1, 66, 100
3, 97436, Note_off_c, 1, 63, 100
3, 97436, Note_off_c, 1, 60, 100
3, 97436, Note_off_c, 1, 56, 100
3, 98208, Note_on_c, 1, 44, 82
3, 98256, Note_on_c, 1, 41, 81
3, 98300, Note_off_c, 1, 44, 100
3, 98300, Note_off_c, 1, 41, 100
3, 98304, Note_on_c, 1, 37, 80
3, 98684, Note_off_c, 1, 37, 100
3, 98688, Note_on_c, 1, 30, 80
3, 99068, Note_off_c, 1, 30, 100
3, 99072, Note_on_c, 1, 37, 80
3, 99644, Note_off_c, 1, 37, 100
3, 99648, Note_on_c, 1, 54, 80
3, 99836, Note_off_c, 1, 54, 100
3, 99840, Note_on_c, 1, 56, 80
3, 100316, Note_off_c, 1, 56, 100
3, 100320, Note_on_c, 1, 54, 80
3, 100412, Note_off_c, 1, 54, 100
3, 100416, Note_on_c, 1, 53, 80
3, 100508, Note_off_c, 1, 53, 100
3, 100512, Note_on_c, 1, 51, 80
3, 100604, Note_off_c, 1, 51, 100
3, 100608, Note_on_c, 1, 49, 80
3, 100700, Note_off_c, 1, 49, 100
3, 100704, Note_on_c, 1, 46, 80
3, 100796, Note_off_c, 1, 46, 100
3, 100800, Note_on_c, 1, 44, 80
3, 100892, Note_off_c, 1, 44, 100
3, 100896, Note_on_c, 1, 42, 80
3, 100988, Note_off_c, 1, 42, 100
3, 100992, Note_on_c, 1, 41, 80
3, 101084, Note_off_c, 1, 41, 100
3, 101088, Note_on_c, 1, 44, 80
3, 101180, Note_off_c, 1, 44, 100
3, 101184, Note_on_c, 1, 42, 80
3, 101276, Note_off_c, 1, 42, 100
3, 101280, Note_on_c, 1, 39, 80
3, 101372, Note_off_c, 1, 39, 100
3, 101376, Note_on_c, 1, 49, 80
3, 101376, Note_on_c, 1, 37, 80
3, 101756, Note_off_c, 1, 49, 100
3, 101756, Note_off_c, 1, 37, 100
3, 101760, Note_on_c, 1, 42, 80
3, 101760, Note_on_c, 1, 30, 80
3, 102140, Note_off_c, 1, 42, 100
3, 102140, Note_off_c, 1, 30, 100
3, 102144, Note_on_c, 1, 49, 80
3, 102144, Note_on_c, 1, 37, 80
3, 102716, Note_off_c, 1, 49, 100
3, 102716, Note_off_c, 1, 37, 100
3, 102720, Note_on_c, 1, 57, 80
3, 102908, Note_off_c, 1, 57, 100
3, 102912, Note_on_c, 1, 56, 80
3, 103388, Note_off_c, 1, 56, 100
3, 103392, Note_on_c, 1, 54, 80
3, 103484, Note_off_c, 1, 54, 100
3, 103488, Note_on_c, 1, 51, 80
3, 103580, Note_off_c, 1, 51, 100
3, 103584, Note_on_c, 1, 48, 80
3, 103676, Note_off_c, 1, 48, 100
3, 103680, Note_on_c, 1, 44, 80
3, 103772, Note_off_c, 1, 44, 100
3, 103776, Note_on_c, 1, 41, 80
3, 103868, Note_off_c, 1, 41, 100
3, 103872, Note_on_c, 1, 39, 80
3, 103964, Note_off_c, 1, 39, 100
3, 103968, Note_on_c, 1, 37, 80
3, 104060, Note_off_c, 1, 37, 100
3, 104064, Note_on_c, 1, 36, 80
3, 104156, Note_off_c, 1, 36, 100
3, 104160, Note_on_c, 1, 37, 80
3, 104252, Note_off_c, 1, 37, 100
3, 104256, Note_on_c, 1, 41, 80
3, 104348, Note_off_c, 1, 41, 100
3, 104352, Note_on_c, 1, 37, 80
3, 104444, Note_off_c, 1, 37, 100
3, 104448, Note_on_c, 1, 44, 80
3, 104448, Note_on_c, 1, 42, 80
3, 104828, Note_off_c, 1, 44, 100
3, 104828, Note_off_c, 1, 42, 100
3, 104832, Note_on_c, 1, 44, 80
3, 104832, Note_on_c, 1, 39, 80
3, 105116, Note_off_c, 1, 44, 100
3, 105116, Note_off_c, 1, 39, 100
3, 105168, Note_on_c, 1, 44, 80
3, 105168, Note_on_c, 1, 42, 80
3, 105212, Note_off_c, 1, 44, 100
3, 105212, Note_off_c, 1, 42, 100
3, 105216, Note_on_c, 1, 44, 80
3, 105216, Note_on_c, 1, 41, 80
3, 105500, Note_off_c, 1, 44, 100
3, 105500, Note_off_c, 1, 41, 100
3, 105504, Note_on_c, 1, 61, 80
3, 105596, Note_off_c, 1, 61, 100
3, 105600, Note_on_c, 1, 63, 80
3, 105788, Note_off_c, 1, 63, 100
3, 105792, Note_on_c, 1, 61, 80
3, 105980, Note_off_c, 1, 61, 100
3, 105984, Note_on_c, 1, 44, 80
3, 105984, Note_on_c, 1, 42, 80
3, 106364, Note_off_c, 1, 44, 100
3, 106364, Note_off_c, 1, 42, 100
3, 106368, Note_on_c, 1, 44, 80
3, 106368, Note_on_c, 1, 39, 80
3, 106652, Note_off_c, 1, 44, 100
3, 106652, Note_off_c, 1, 39, 100
3, 106704, Note_on_c, 1, 44, 80
3, 106704, Note_on_c, 1, 42, 80
3, 106748, Note_off_c, 1, 44, 100
3, 106748, Note_off_c, 1, 42, 100
3, 106752, Note_on_c, 1, 44, 80
3, 106752, Note_on_c, 1, 41, 80
3, 107036, Note_off_c, 1, 44, 100
3, 107036, Note_off_c, 1, 41, 100
3, 107040, Note_on_c, 1, 61, 80
3, 107132, Note_off_c, 1, 61, 100
3, 107136, Note_on_c, 1, 60, 80
3, 107324, Note_off_c, 1, 60, 100
3, 107328, Note_on_c, 1, 61, 80
3, 107516, Note_off_c, 1, 61, 100
3, 107520, Note_on_c, 1, 44, 80
3, 107520, Note_on_c, 1, 42, 80
3, 107900, Note_off_c, 1, 44, 100
3, 107900, Note_off_c, 1, 42, 100
3, 107904, Note_on_c, 1, 44, 95
3, 107904, Note_on_c, 1, 39, 95
3, 108188, Note_off_c, 1, 44, 100
3, 108188, Note_off_c, 1, 39, 100
3, 108240, Note_on_c, 1, 44, 109
3, 108240, Note_on_c, 1, 42, 109
3, 108284, Note_off_c, 1, 44, 100
3, 108284, Note_off_c, 1, 42, 100
3, 108288, Note_on_c, 1, 65, 120
3, 108572, Note_off_c, 1, 65, 100
3, 108576, Note_on_c, 1, 65, 108
3, 108576, Note_on_c, 1, 61, 108
3, 108668, Note_off_c, 1, 65, 100
3, 108668, Note_off_c, 1, 61, 100
3, 108672, Note_on_c, 1, 66, 103
3, 108672, Note_on_c, 1, 63, 103
3, 108860, Note_off_c, 1, 66, 100
3, 108860, Note_off_c, 1, 63, 100
3, 108864, Note_on_c, 1, 65, 95
3, 108864, Note_on_c, 1, 68, 95
3, 108956, Note_off_c, 1, 65, 100
3, 108956, Note_off_c, 1, 68, 100
3, 108960, Note_on_c, 1, 65, 83
3, 108960, Note_on_c, 1, 61, 83
3, 109052, Note_off_c, 1, 65, 100
3, 109052, Note_off_c, 1, 61, 100
3, 109056, Note_on_c, 1, 58, 80
3, 109056, Note_on_c, 1, 54, 80
3, 109436, Note_off_c, 1, 58, 100
3, 109436, Note_off_c, 1, 54, 100
3, 109440, Note_on_c, 1, 60, 75
3, 109440, Note_on_c, 1, 56, 75
3, 109820, Note_off_c, 1, 60, 100
3, 109820, Note_off_c, 1, 56, 100
3, 109824, Control_c, 1, 64, 127
3, 109824, Note_on_c, 1, 46, 70
3, 109872, Note_on_c, 1, 49, 70
3, 109920, Note_on_c, 1, 52, 70
3, 109968, Note_on_c, 1, 55, 70
3, 110016, Note_on_c, 1, 58, 70
3, 111352, Control_c, 1, 64, 0
3, 111356, Note_off_c, 1, 46, 100
3, 111356, Note_off_c, 1, 49, 100
3, 111356, Note_off_c, 1, 52, 100
3, 111356, Note_off_c, 1, 55, 100
3, 111356, Note_off_c, 1, 58, 100
3, 111360, Control_c, 1, 64, 127
3, 111360, Note_on_c, 1, 58, 120
3, 111408, Note_on_c, 1, 61, 120
3, 111456, Note_on_c, 1, 64, 120
3, 111504, Note_on_c, 1, 67, 120
3, 111552, Note_on_c, 1, 70, 120
3, 112888, Control_c, 1, 64, 0
3, 112892, Note_off_c, 1, 58, 100
3, 112892, Note_off_c, 1, 61, 100
3, 112892, Note_off_c, 1, 64, 100
3, 112892, Note_off_c, 1, 67, 100
3, 112892, Note_off_c, 1, 70, 100
3, 112896, Key_signature, -4, "minor"
3, 112896, Control_c, 1, 64, 127
3, 112896, Note_on_c, 1, 55, 120
3, 112896, Note_on_c, 1, 46, 120
3, 113468, Note_off_c, 1, 55, 100
3, 113468, Note_off_c, 1, 46, 100
3, 113472, Note_on_c, 1, 46, 120
3, 113472, Note_on_c, 1, 55, 120
3, 113660, Note_off_c, 1, 46, 100
3, 113660, Note_off_c, 1, 55, 100
3, 113664, Note_on_c, 1, 55, 120
3, 113664, Note_on_c, 1, 46, 120
3, 114236, Note_off_c, 1, 55, 100
3, 114236, Note_off_c, 1, 46, 100
3, 114240, Note_on_c, 1, 46, 120
3, 114240, Note_on_c, 1, 55, 120
3, 114428, Note_off_c, 1, 46, 100
3, 114428, Note_off_c, 1, 55, 100
3, 114432, Note_on_c, 1, 55, 120
3, 114432, Note_on_c, 1, 46, 120
3, 114716, Note_off_c, 1, 55, 100
3, 114716, Note_off_c, 1, 46, 100
3, 114720, Note_on_c, 1, 55, 120
3, 114720, Note_on_c, 1, 46, 120
3, 114812, Note_off_c, 1, 55, 100
3, 114812, Note_off_c, 1, 46, 100
3, 114816, Note_on_c, 1, 55, 120
3, 114816, Note_on_c, 1, 46, 120
3, 115100, Note_off_c, 1, 55, 100
3, 115100, Note_off_c, 1, 46, 100
3, 115104, Note_on_c, 1, 55, 120
3, 115104, Note_on_c, 1, 46, 120
3, 115196, Note_off_c, 1, 55, 100
3, 115196, Note_off_c, 1, 46, 100
3, 115200, Note_on_c, 1, 55, 120
3, 115200, Note_on_c, 1, 46, 120
3, 115484, Note_off_c, 1, 55, 100
3, 115484, Note_off_c, 1, 46, 100
3, 115488, Note_on_c, 1, 55, 120
3, 115488, Note_on_c, 1, 46, 120
3, 115580, Note_off_c, 1, 55, 100
3, 115580, Note_off_c, 1, 46, 100
3, 115584, Note_on_c, 1, 55, 120
3, 115584, Note_on_c, 1, 46, 120
3, 115868, Note_off_c, 1, 55, 100
3, 115868, Note_off_c, 1, 46, 100
3, 115872, Note_on_c, 1, 55, 120
3, 115872, Note_on_c, 1, 46, 120
3, 115964, Note_off_c, 1, 55, 100
3, 115964, Note_off_c, 1, 46, 100
3, 115968, Note_on_c, 1, 55, 120
3, 115968, Note_on_c, 1, 46, 120
3, 116344, Control_c, 1, 64, 0
3, 116348, Note_off_c, 1, 55, 100
3, 116348, Note_off_c, 1, 46, 100
3, 122496, Note_on_c, 1, 36, 110
3, 122588, Note_off_c, 1, 36, 100
3, 122592, Note_on_c, 1, 37, 110
3, 122684, Note_off_c, 1, 37, 100
3, 122688, Note_on_c, 1, 36, 110
3, 122780, Note_off_c, 1, 36, 100
3, 122784, Note_on_c, 1, 35, 110
3, 122876, Note_off_c, 1, 35, 100
3, 122880, Note_on_c, 1, 36, 110
3, 122972, Note_off_c, 1, 36, 100
3, 122976, Note_on_c, 1, 37, 110
3, 123068, Note_off_c, 1, 37, 100
3, 123072, Note_on_c, 1, 36, 110
3, 123164, Note_off_c, 1, 36, 100
3, 123168, Note_on_c, 1, 35, 110
3, 123260, Note_off_c, 1, 35, 100
3, 123264, Note_on_c, 1, 36, 110
3, 123356, Note_off_c, 1, 36, 100
3, 123360, Note_on_c, 1, 37, 110
3, 123452, Note_off_c, 1, 37, 100
3, 123456, Note_on_c, 1, 36, 110
3, 123548, Note_off_c, 1, 36, 100
3, 123552, Note_on_c, 1, 35, 110
3, 123644, Note_off_c, 1, 35, 100
3, 123648, Note_on_c, 1, 36, 110
3, 123740, Note_off_c, 1, 36, 100
3, 123744, Note_on_c, 1, 37, 110
3, 123836, Note_off_c, 1, 37, 100
3, 123840, Note_on_c, 1, 36, 110
3, 123932, Note_off_c, 1, 36, 100
3, 123936, Note_on_c, 1, 35, 110
3, 124028, Note_off_c, 1, 35, 100
3, 124032, Note_on_c, 1, 36, 110
3, 124124, Note_off_c, 1, 36, 100
3, 124128, Note_on_c, 1, 37, 110
3, 124220, Note_off_c, 1, 37, 100
3, 124224, Note_on_c, 1, 36, 110
3, 124316, Note_off_c, 1, 36, 100
3, 124320, Note_on_c, 1, 35, 110
3, 124412, Note_off_c, 1, 35, 100
3, 124416, Note_on_c, 1, 34, 110
3, 124508, Note_off_c, 1, 34, 100
3, 124512, Note_on_c, 1, 36, 110
3, 124604, Note_off_c, 1, 36, 100
3, 124608, Note_on_c, 1, 34, 110
3, 124700, Note_off_c, 1, 34, 100
3, 124704, Note_on_c, 1, 33, 110
3, 124796, Note_off_c, 1, 33, 100
3, 124800, Note_on_c, 1, 34, 110
3, 124892, Note_off_c, 1, 34, 100
3, 124896, Note_on_c, 1, 36, 110
3, 124988, Note_off_c, 1, 36, 100
3, 124992, Note_on_c, 1, 34, 110
3, 125084, Note_off_c, 1, 34, 100
3, 125088, Note_on_c, 1, 33, 110
3, 125180, Note_off_c, 1, 33, 100
3, 125184, Note_on_c, 1, 34, 110
3, 125276, Note_off_c, 1, 34, 100
3, 125280, Note_on_c, 1, 36, 110
3, 125372, Note_off_c, 1, 36, 100
3, 125376, Note_on_c, 1, 34, 110
3, 125468, Note_off_c, 1, 34, 100
3, 125472, Note_on_c, 1, 33, 110
3, 125564, Note_off_c, 1, 33, 100
3, 125568, Note_on_c, 1, 34, 110
3, 125660, Note_off_c, 1, 34, 100
3, 125664, Note_on_c, 1, 36, 110
3, 125756, Note_off_c, 1, 36, 100
3, 125760, Note_on_c, 1, 34, 110
3, 125852, Note_off_c, 1, 34, 100
3, 125856, Note_on_c, 1, 33, 110
3, 125948, Note_off_c, 1, 33, 100
3, 125952, Note_on_c, 1, 34, 110
3, 126044, Note_off_c, 1, 34, 100
3, 126048, Note_on_c, 1, 36, 108
3, 126140, Note_off_c, 1, 36, 100
3, 126144, Note_on_c, 1, 34, 105
3, 126236, Note_off_c, 1, 34, 100
3, 126240, Note_on_c, 1, 33, 103
3, 126332, Note_off_c, 1, 33, 100
3, 126336, Note_on_c, 1, 34, 100
3, 126428, Note_off_c, 1, 34, 100
3, 126432, Note_on_c, 1, 36, 97
3, 126524, Note_off_c, 1, 36, 100
3, 126528, Note_on_c, 1, 34, 95
3, 126620, Note_off_c, 1, 34, 100
3, 126624, Note_on_c, 1, 33, 92
3, 126716, Note_off_c, 1, 33, 100
3, 126720, Note_on_c, 1, 34, 89
3, 126812, Note_off_c, 1, 34, 100
3, 126816, Note_on_c, 1, 31, 87
3, 126908, Note_off_c, 1, 31, 100
3, 126912, Note_on_c, 1, 32, 84
3, 127004, Note_off_c, 1, 32, 100
3, 127008, Note_on_c, 1, 34, 81
3, 127100, Note_off_c, 1, 34, 100
3, 127104, Note_on_c, 1, 36, 79
3, 127196, Note_off_c, 1, 36, 100
3, 127200, Note_on_c, 1, 34, 76
3, 127292, Note_off_c, 1, 34, 100
3, 127296, Note_on_c, 1, 32, 73
3, 127388, Note_off_c, 1, 32, 100
3, 127392, Note_on_c, 1, 31, 71
3, 127484, Note_off_c, 1, 31, 100
3, 127488, Note_on_c, 1, 29, 80
3, 127868, Note_off_c, 1, 29, 100
3, 128928, Note_on_c, 1, 41, 80
3, 129020, Note_off_c, 1, 41, 100
3, 129024, Note_on_c, 1, 29, 80
3, 129404, Note_off_c, 1, 29, 100
3, 130464, Note_on_c, 1, 41, 80
3, 130556, Note_off_c, 1, 41, 100
3, 130560, Note_on_c, 1, 34, 80
3, 130940, Note_off_c, 1, 34, 100
3, 132000, Note_on_c, 1, 37, 80
3, 132092, Note_off_c, 1, 37, 100
3, 132096, Note_on_c, 1, 36, 80
3, 132284, Note_off_c, 1, 36, 100
3, 132480, Note_on_c, 1, 37, 80
3, 132668, Note_off_c, 1, 37, 100
3, 132864, Note_on_c, 1, 34, 80
3, 133052, Note_off_c, 1, 34, 100
3, 133248, Note_on_c, 1, 36, 80
3, 133436, Note_off_c, 1, 36, 100
3, 133632, Note_on_c, 1, 41, 80
3, 133632, Note_on_c, 1, 29, 80
3, 134012, Note_off_c, 1, 41, 100
3, 134012, Note_off_c, 1, 29, 100
3, 134304, Note_on_c, 1, 72, 80
3, 134304, Note_on_c, 1, 68, 80
3, 134396, Note_off_c, 1, 72, 100
3, 134396, Note_off_c, 1, 68, 100
3, 134400, Note_on_c, 1, 72, 100
3, 134400, Note_on_c, 1, 68, 100
3, 134780, Note_off_c, 1, 72, 100
3, 134780, Note_off_c, 1, 68, 100
3, 134784, Note_on_c, 1, 68, 80
3, 134784, Note_on_c, 1, 65, 80
3, 135164, Note_off_c, 1, 68, 100
3, 135164, Note_off_c, 1, 65, 100
3, 135168, Note_on_c, 1, 41, 80
3, 135168, Note_on_c, 1, 29, 80
3, 135548, Note_off_c, 1, 41, 100
3, 135548, Note_off_c, 1, 29, 100
3, 135840, Note_on_c, 1, 72, 80
3, 135840, Note_on_c, 1, 68, 80
3, 135932, Note_off_c, 1, 72, 100
3, 135932, Note_off_c, 1, 68, 100
3, 135936, Note_on_c, 1, 72, 100
3, 135936, Note_on_c, 1, 68, 100
3, 136316, Note_off_c, 1, 72, 100
3, 136316, Note_off_c, 1, 68, 100
3, 136320, Note_on_c, 1, 68, 80
3, 136320, Note_on_c, 1, 65, 80
3, 136700, Note_off_c, 1, 68, 100
3, 136700, Note_off_c, 1, 65, 100
3, 136704, Note_on_c, 1, 46, 80
3, 136704, Note_on_c, 1, 34, 80
3, 137084, Note_off_c, 1, 46, 100
3, 137084, Note_off_c, 1, 34, 100
3, 137376, Note_on_c, 1, 73, 80
3, 137376, Note_on_c, 1, 70, 80
3, 137468, Note_off_c, 1, 73, 100
3, 137468, Note_off_c, 1, 70, 100
3, 137472, Note_on_c, 1, 73, 110
3, 137472, Note_on_c, 1, 70, 110
3, 138236, Note_off_c, 1, 73, 100
3, 138236, Note_off_c, 1, 70, 100
3, 138240, Note_on_c, 1, 72, 80
3, 138240, Note_on_c, 1, 70, 80
3, 138428, Note_off_c, 1, 72, 100
3, 138428, Note_off_c, 1, 70, 100
3, 138432, Note_on_c, 1, 48, 80
3, 138432, Note_on_c, 1, 36, 80
3, 138620, Note_off_c, 1, 48, 100
3, 138620, Note_off_c, 1, 36, 100
3, 138816, Note_on_c, 1, 49, 80
3, 138816, Note_on_c, 1, 37, 80
3, 139004, Note_off_c, 1, 49, 100
3, 139004, Note_off_c, 1, 37, 100
3, 139200, Note_on_c, 1, 46, 80
3, 139200, Note_on_c, 1, 34, 80
3, 139388, Note_off_c, 1, 46, 100
3, 139388, Note_off_c, 1, 34, 100
3, 139584, Note_on_c, 1, 48, 80
3, 139584, Note_on_c, 1, 36, 80
3, 139772, Note_off_c, 1, 48, 100
3, 139772, Note_off_c, 1, 36, 100
3, 139776, Note_on_c, 1, 41, 80
3, 139776, Note_on_c, 1, 29, 80
3, 140156, Note_off_c, 1, 41, 100
3, 140156, Note_off_c, 1, 29, 100
3, 140448, Note_on_c, 1, 56, 89
3, 140448, Note_on_c, 1, 53, 89
3, 140540, Note_off_c, 1, 56, 100
3, 140540, Note_off_c, 1, 53, 100
3, 140544, Note_on_c, 1, 56, 90
3, 140544, Note_on_c, 1, 53, 90
3, 140924, Note_off_c, 1, 56, 100
3, 140924, Note_off_c, 1, 53, 100
3, 141216, Note_on_c, 1, 56, 99
3, 141216, Note_on_c, 1, 53, 99
3, 141308, Note_off_c, 1, 56, 100
3, 141308, Note_off_c, 1, 53, 100
3, 141312, Note_on_c, 1, 56, 100
3, 141312, Note_on_c, 1, 53, 100
3, 141312, Note_on_c, 1, 48, 100
3, 142076, Note_off_c, 1, 56, 100
3, 142076, Note_off_c, 1, 53, 100
3, 142076, Note_off_c, 1, 48, 100
3, 142080, Note_on_c, 1, 55, 100
3, 142080, Note_on_c, 1, 52, 100
3, 142080, Note_on_c, 1, 48, 100
3, 142268, Note_off_c, 1, 55, 100
3, 142268, Note_off_c, 1, 52, 100
3, 142268, Note_off_c, 1, 48, 100
3, 142848, Note_on_c, 1, 48, 80
3, 142848, Note_on_c, 1, 36, 80
3, 143228, Note_off_c, 1, 48, 100
3, 143228, Note_off_c, 1, 36, 100
3, 143520, Note_on_c, 1, 58, 89
3, 143520, Note_on_c, 1, 55, 89
3, 143612, Note_off_c, 1, 58, 100
3, 143612, Note_off_c, 1, 55, 100
3, 143616, Note_on_c, 1, 58, 90
3, 143616, Note_on_c, 1, 55, 90
3, 143996, Note_off_c, 1, 58, 100
3, 143996, Note_off_c, 1, 55, 100
3, 144288, Note_on_c, 1, 58, 99
3, 144288, Note_on_c, 1, 55, 99
3, 144380, Note_off_c, 1, 58, 100
3, 144380, Note_off_c, 1, 55, 100
3, 144384, Note_on_c, 1, 58, 100
3, 144384, Note_on_c, 1, 55, 100
3, 144384, Note_on_c, 1, 53, 100
3, 145148, Note_off_c, 1, 58, 100
3, 145148, Note_off_c, 1, 55, 100
3, 145148, Note_off_c, 1, 53, 100
3, 145152, Note_on_c, 1, 56, 100
3, 145152, Note_on_c, 1, 53, 100
3, 145340, Note_off_c, 1, 56, 100
3, 145340, Note_off_c, 1, 53, 100
3, 145920, Note_on_c, 1, 53, 80
3, 145920, Note_on_c, 1, 41, 80
3, 146300, Note_off_c, 1, 53, 100
3, 146300, Note_off_c, 1, 41, 100
3, 146592, Note_on_c, 1, 63, 93
3, 146592, Note_on_c, 1, 60, 93
3, 146684, Note_off_c, 1, 63, 100
3, 146684, Note_off_c, 1, 60, 100
3, 146688, Note_on_c, 1, 63, 95
3, 146688, Note_on_c, 1, 60, 95
3, 147068, Note_off_c, 1, 63, 100
3, 147068, Note_off_c, 1, 60, 100
3, 147360, Note_on_c, 1, 63, 109
3, 147360, Note_on_c, 1, 60, 109
3, 147452, Note_off_c, 1, 63, 100
3, 147452, Note_off_c, 1, 60, 100
3, 147456, Note_on_c, 1, 63, 110
3, 147456, Note_on_c, 1, 60, 110
3, 147456, Note_on_c, 1, 58, 110
3, 148412, Note_off_c, 1, 58, 100
3, 148412, Note_off_c, 1, 60, 100
3, 148412, Note_off_c, 1, 63, 100
3, 148416, Note_on_c, 1, 61, 102
3, 148416, Note_on_c, 1, 58, 102
3, 148604, Note_off_c, 1, 61, 100
3, 148604, Note_off_c, 1, 58, 100
3, 148608, Note_on_c, 1, 60, 93
3, 148608, Note_on_c, 1, 56, 93
3, 148796, Note_off_c, 1, 60, 100
3, 148796, Note_off_c, 1, 56, 100
3, 148800, Note_on_c, 1, 58, 85
3, 148800, Note_on_c, 1, 55, 85
3, 148988, Note_off_c, 1, 58, 100
3, 148988, Note_off_c, 1, 55, 100
3, 148992, Note_on_c, 1, 56, 80
3, 148992, Note_on_c, 1, 53, 80
3, 148992, Note_on_c, 1, 48, 80
3, 149372, Note_off_c, 1, 56, 100
3, 149372, Note_off_c, 1, 53, 100
3, 149372, Note_off_c, 1, 48, 100
3, 149664, Note_on_c, 1, 56, 80
3, 149664, Note_on_c, 1, 53, 80
3, 149756, Note_off_c, 1, 56, 100
3, 149756, Note_off_c, 1, 53, 100
3, 149760, Note_on_c, 1, 55, 80
3, 149760, Note_on_c, 1, 48, 80
3, 149760, Note_on_c, 1, 58, 80
3, 150140, Note_off_c, 1, 55, 100
3, 150140, Note_off_c, 1, 48, 100
3, 150140, Note_off_c, 1, 58, 100
3, 150432, Note_on_c, 1, 55, 80
3, 150432, Note_on_c, 1, 52, 80
3, 150524, Note_off_c, 1, 55, 100
3, 150524, Note_off_c, 1, 52, 100
3, 150528, Note_on_c, 1, 53, 80
3, 150620, Note_off_c, 1, 53, 100
3, 150624, Note_on_c, 1, 60, 80
3, 150716, Note_off_c, 1, 60, 100
3, 150720, Note_on_c, 1, 56, 80
3, 150812, Note_off_c, 1, 56, 100
3, 150816, Note_on_c, 1, 53, 80
3, 150908, Note_off_c, 1, 53, 100
3, 150912, Note_on_c, 1, 48, 80
3, 151004, Note_off_c, 1, 48, 100
3, 151008, Note_on_c, 1, 56, 80
3, 151100, Note_off_c, 1, 56, 100
3, 151104, Note_on_c, 1, 53, 80
3, 151196, Note_off_c, 1, 53, 100
3, 151200, Note_on_c, 1, 49, 80
3, 151292, Note_off_c, 1, 49, 100
3, 151296, Note_on_c, 1, 44, 80
3, 151388, Note_off_c, 1, 44, 100
3, 151392, Note_on_c, 1, 53, 80
3, 151484, Note_off_c, 1, 53, 100
3, 151488, Note_on_c, 1, 48, 80
3, 151580, Note_off_c, 1, 48, 100
3, 151584, Note_on_c, 1, 44, 80
3, 151676, Note_off_c, 1, 44, 100
3, 151680, Note_on_c, 1, 41, 80
3, 151772, Note_off_c, 1, 41, 100
3, 151776, Note_on_c, 1, 48, 80
3, 151868, Note_off_c, 1, 48, 100
3, 151872, Note_on_c, 1, 44, 80
3, 151964, Note_off_c, 1, 44, 100
3, 151968, Note_on_c, 1, 41, 80
3, 152060, Note_off_c, 1, 41, 100
3, 152064, Note_on_c, 1, 36, 80
3, 152156, Note_off_c, 1, 36, 100
3, 152160, Note_on_c, 1, 41, 80
3, 152252, Note_off_c, 1, 41, 100
3, 152256, Note_on_c, 1, 44, 80
3, 152348, Note_off_c, 1, 44, 100
3, 152352, Note_on_c, 1, 48, 80
3, 152444, Note_off_c, 1, 48, 100
3, 152448, Note_on_c, 1, 47, 80
3, 152540, Note_off_c, 1, 47, 100
3, 152544, Note_on_c, 1, 48, 80
3, 152636, Note_off_c, 1, 48, 100
3, 152640, Note_on_c, 1, 47, 80
3, 152732, Note_off_c, 1, 47, 100
3, 152736, Note_on_c, 1, 48, 80
3, 152828, Note_off_c, 1, 48, 100
3, 152832, Note_on_c, 1, 47, 80
3, 152924, Note_off_c, 1, 47, 100
3, 152928, Note_on_c, 1, 48, 80
3, 153020, Note_off_c, 1, 48, 100
3, 153024, Note_on_c, 1, 43, 90
3, 153116, Note_off_c, 1, 43, 100
3, 153120, Note_on_c, 1, 48, 80
3, 153212, Note_off_c, 1, 48, 100
3, 153216, Note_on_c, 1, 40, 90
3, 153308, Note_off_c, 1, 40, 100
3, 153312, Note_on_c, 1, 48, 80
3, 153404, Note_off_c, 1, 48, 100
3, 153408, Note_on_c, 1, 43, 90
3, 153500, Note_off_c, 1, 43, 100
3, 153504, Note_on_c, 1, 48, 80
3, 153596, Note_off_c, 1, 48, 100
3, 153600, Note_on_c, 1, 36, 91
3, 153692, Note_off_c, 1, 36, 100
3, 153696, Note_on_c, 1, 40, 80
3, 153788, Note_off_c, 1, 40, 100
3, 153792, Note_on_c, 1, 43, 81
3, 153884, Note_off_c, 1, 43, 100
3, 153888, Note_on_c, 1, 48, 82
3, 153980, Note_off_c, 1, 48, 100
3, 153984, Note_on_c, 1, 40, 83
3, 154076, Note_off_c, 1, 40, 100
3, 154080, Note_on_c, 1, 43, 84
3, 154172, Note_off_c, 1, 43, 100
3, 154176, Note_on_c, 1, 48, 85
3, 154268, Note_off_c, 1, 48, 100
3, 154272, Note_on_c, 1, 52, 86
3, 154364, Note_off_c, 1, 52, 100
3, 154368, Note_on_c, 1, 43, 87
3, 154460, Note_off_c, 1, 43, 100
3, 154464, Note_on_c, 1, 48, 88
3, 154556, Note_off_c, 1, 48, 100
3, 154560, Note_on_c, 1, 52, 89
3, 154652, Note_off_c, 1, 52, 100
3, 154656, Note_on_c, 1, 55, 90
3, 154748, Note_off_c, 1, 55, 100
3, 154752, Note_on_c, 1, 48, 91
3, 154844, Note_off_c, 1, 48, 100
3, 154848, Note_on_c, 1, 52, 92
3, 154940, Note_off_c, 1, 52, 100
3, 154944, Note_on_c, 1, 55, 93
3, 155036, Note_off_c, 1, 55, 100
3, 155040, Note_on_c, 1, 60, 94
3, 155132, Note_off_c, 1, 60, 100
3, 155136, Note_on_c, 1, 53, 95
3, 155228, Note_off_c, 1, 53, 100
3, 155232, Note_on_c, 1, 56, 96
3, 155324, Note_off_c, 1, 56, 100
3, 155328, Note_on_c, 1, 60, 97
3, 155420, Note_off_c, 1, 60, 100
3, 155424, Note_on_c, 1, 65, 98
3, 155516, Note_off_c, 1, 65, 100
3, 155520, Note_on_c, 1, 64, 99
3, 155612, Note_off_c, 1, 64, 100
3, 155616, Note_on_c, 1, 65, 100
3, 155708, Note_off_c, 1, 65, 100
3, 155712, Note_on_c, 1, 64, 101
3, 155804, Note_off_c, 1, 64, 100
3, 155808, Note_on_c, 1, 65, 102
3, 155900, Note_off_c, 1, 65, 100
3, 155904, Note_on_c, 1, 64, 103
3, 155996, Note_off_c, 1, 64, 100
3, 156000, Note_on_c, 1, 65, 104
3, 156092, Note_off_c, 1, 65, 100
3, 156096, Note_on_c, 1, 60, 105
3, 156188, Note_off_c, 1, 60, 100
3, 156192, Note_on_c, 1, 65, 106
3, 156284, Note_off_c, 1, 65, 100
3, 156288, Note_on_c, 1, 56, 107
3, 156380, Note_off_c, 1, 56, 100
3, 156384, Note_on_c, 1, 65, 108
3, 156476, Note_off_c, 1, 65, 100
3, 156480, Note_on_c, 1, 60, 108
3, 156572, Note_off_c, 1, 60, 100
3, 156576, Note_on_c, 1, 65, 109
3, 156668, Note_off_c, 1, 65, 100
3, 156672, Note_on_c, 1, 53, 110
3, 156764, Note_off_c, 1, 53, 100
3, 156768, Note_on_c, 1, 57, 110
3, 156860, Note_off_c, 1, 57, 100
3, 156864, Note_on_c, 1, 60, 110
3, 156956, Note_off_c, 1, 60, 100
3, 156960, Note_on_c, 1, 65, 110
3, 157052, Note_off_c, 1, 65, 100
3, 157056, Note_on_c, 1, 57, 110
3, 157148, Note_off_c, 1, 57, 100
3, 157152, Note_on_c, 1, 60, 110
3, 157244, Note_off_c, 1, 60, 100
3, 157248, Note_on_c, 1, 65, 110
3, 157340, Note_off_c, 1, 65, 100
3, 157344, Note_on_c, 1, 69, 110
3, 157436, Note_off_c, 1, 69, 100
3, 157440, Note_on_c, 1, 60, 110
3, 157532, Note_off_c, 1, 60, 100
3, 157536, Note_on_c, 1, 65, 110
3, 157628, Note_off_c, 1, 65, 100
3, 157632, Note_on_c, 1, 69, 110
3, 157724, Note_off_c, 1, 69, 100
3, 157728, Note_on_c, 1, 72, 110
3, 157820, Note_off_c, 1, 72, 100
3, 157824, Note_on_c, 1, 65, 110
3, 157916, Note_off_c, 1, 65, 100
3, 157920, Note_on_c, 1, 69, 110
3, 158012, Note_off_c, 1, 69, 100
3, 158016, Note_on_c, 1, 72, 110
3, 158108, Note_off_c, 1, 72, 100
3, 158112, Note_on_c, 1, 77, 110
3, 158204, Note_off_c, 1, 77, 100
3, 158208, Note_on_c, 1, 69, 110
3, 158304, Note_on_c, 1, 77, 110
3, 158380, Note_off_c, 1, 69, 100
3, 158400, Note_on_c, 1, 76, 110
3, 158480, Note_off_c, 1, 77, 100
3, 158496, Note_on_c, 1, 77, 110
3, 158572, Note_off_c, 1, 76, 100
3, 158592, Note_on_c, 1, 69, 110
3, 158664, Note_off_c, 1, 77, 100
3, 158688, Note_on_c, 1, 77, 110
3, 158764, Note_off_c, 1, 69, 100
3, 158784, Note_on_c, 1, 69, 110
3, 158856, Note_off_c, 1, 77, 100
3, 158880, Note_on_c, 1, 77, 110
3, 158948, Note_off_c, 1, 69, 100
3, 158972, Note_off_c, 1, 77, 100
3, 158976, Note_on_c, 1, 69, 110
3, 159068, Note_off_c, 1, 69, 100
3, 159072, Note_on_c, 1, 77, 110
3, 159164, Note_off_c, 1, 77, 100
3, 159168, Note_on_c, 1, 70, 110
3, 159260, Note_off_c, 1, 70, 100
3, 159264, Note_on_c, 1, 77, 110
3, 159356, Note_off_c, 1, 77, 100
3, 159360, Note_on_c, 1, 72, 110
3, 159452, Note_off_c, 1, 72, 100
3, 159456, Note_on_c, 1, 77, 110
3, 159548, Note_off_c, 1, 77, 100
3, 159552, Note_on_c, 1, 73, 110
3, 159644, Note_off_c, 1, 73, 100
3, 159648, Note_on_c, 1, 77, 110
3, 159740, Note_off_c, 1, 77, 100
3, 159744, Note_on_c, 1, 60, 110
3, 159836, Note_off_c, 1, 60, 100
3, 159840, Note_on_c, 1, 65, 110
3, 159932, Note_off_c, 1, 65, 100
3, 159936, Note_on_c, 1, 68, 110
3, 160028, Note_off_c, 1, 68, 100
3, 160032, Note_on_c, 1, 72, 110
3, 160124, Note_off_c, 1, 72, 100
3, 160128, Note_on_c, 1, 71, 110
3, 160220, Note_off_c, 1, 71, 100
3, 160224, Note_on_c, 1, 72, 110
3, 160316, Note_off_c, 1, 72, 100
3, 160320, Note_on_c, 1, 71, 110
3, 160412, Note_off_c, 1, 71, 100
3, 160416, Note_on_c, 1, 72, 110
3, 160508, Note_off_c, 1, 72, 100
3, 160512, Note_on_c, 1, 60, 110
3, 160604, Note_off_c, 1, 60, 100
3, 160608, Note_on_c, 1, 64, 110
3, 160700, Note_off_c, 1, 64, 100
3, 160704, Note_on_c, 1, 67, 110
3, 160796, Note_off_c, 1, 67, 100
3, 160800, Note_on_c, 1, 72, 110
3, 160892, Note_off_c, 1, 72, 100
3, 160896, Note_on_c, 1, 60, 110
3, 160988, Note_off_c, 1, 60, 100
3, 160992, Note_on_c, 1, 67, 110
3, 161084, Note_off_c, 1, 67, 100
3, 161088, Note_on_c, 1, 70, 110
3, 161180, Note_off_c, 1, 70, 100
3, 161184, Note_on_c, 1, 72, 110
3, 161276, Note_off_c, 1, 72, 100
3, 161280, Note_on_c, 1, 53, 110
3, 161372, Note_off_c, 1, 53, 100
3, 161376, Note_on_c, 1, 68, 100
3, 161376, Note_on_c, 1, 65, 100
3, 161468, Note_off_c, 1, 68, 100
3, 161468, Note_off_c, 1, 65, 100
3, 161472, Note_on_c, 1, 72, 99
3, 161472, Note_on_c, 1, 60, 99
3, 161564, Note_off_c, 1, 72, 100
3, 161564, Note_off_c, 1, 60, 100
3, 161568, Note_on_c, 1, 68, 98
3, 161568, Note_on_c, 1, 65, 98
3, 161660, Note_off_c, 1, 68, 100
3, 161660, Note_off_c, 1, 65, 100
3, 161664, Note_on_c, 1, 72, 96
3, 161664, Note_on_c, 1, 60, 96
3, 161756, Note_off_c, 1, 72, 100
3, 161756, Note_off_c, 1, 60, 100
3, 161760, Note_on_c, 1, 68, 95
3, 161760, Note_on_c, 1, 65, 95
3, 161852, Note_off_c, 1, 68, 100
3, 161852, Note_off_c, 1, 65, 100
3, 161856, Note_on_c, 1, 72, 93
3, 161856, Note_on_c, 1, 60, 93
3, 161948, Note_off_c, 1, 72, 100
3, 161948, Note_off_c, 1, 60, 100
3, 161952, Note_on_c, 1, 68, 92
3, 161952, Note_on_c, 1, 65, 92
3, 162044, Note_off_c, 1, 68, 100
3, 162044, Note_off_c, 1, 65, 100
3, 162048, Note_on_c, 1, 72, 100
3, 162048, Note_on_c, 1, 60, 100
3, 162140, Note_off_c, 1, 72, 100
3, 162140, Note_off_c, 1, 60, 100
3, 162144, Note_on_c, 1, 68, 98
3, 162144, Note_on_c, 1, 65, 98
3, 162236, Note_off_c, 1, 68, 100
3, 162236, Note_off_c, 1, 65, 100
3, 162240, Note_on_c, 1, 72, 95
3, 162240, Note_on_c, 1, 60, 95
3, 162332, Note_off_c, 1, 72, 100
3, 162332, Note_off_c, 1, 60, 100
3, 162336, Note_on_c, 1, 68, 92
3, 162336, Note_on_c, 1, 65, 92
3, 162428, Note_off_c, 1, 68, 100
3, 162428, Note_off_c, 1, 65, 100
3, 162432, Note_on_c, 1, 72, 89
3, 162432, Note_on_c, 1, 60, 89
3, 162524, Note_off_c, 1, 72, 100
3, 162524, Note_off_c, 1, 60, 100
3, 162528, Note_on_c, 1, 68, 86
3, 162528, Note_on_c, 1, 65, 86
3, 162620, Note_off_c, 1, 68, 100
3, 162620, Note_off_c, 1, 65, 100
3, 162624, Note_on_c, 1, 72, 83
3, 162624, Note_on_c, 1, 60, 83
3, 162716, Note_off_c, 1, 72, 100
3, 162716, Note_off_c, 1, 60, 100
3, 162720, Note_on_c, 1, 68, 81
3, 162720, Note_on_c, 1, 65, 81
3, 162812, Note_off_c, 1, 68, 100
3, 162812, Note_off_c, 1, 65, 100
3, 162816, Note_on_c, 1, 53, 80
3, 162908, Note_off_c, 1, 53, 100
3, 162912, Note_on_c, 1, 68, 82
3, 162912, Note_on_c, 1, 65, 82
3, 163004, Note_off_c, 1, 68, 100
3, 163004, Note_off_c, 1, 65, 100
3, 163008, Note_on_c, 1, 72, 85
3, 163008, Note_on_c, 1, 60, 85
3, 163100, Note_off_c, 1, 72, 100
3, 163100, Note_off_c, 1, 60, 100
3, 163104, Note_on_c, 1, 68, 88
3, 163104, Note_on_c, 1, 65, 88
3, 163196, Note_off_c, 1, 68, 100
3, 163196, Note_off_c, 1, 65, 100
3, 163200, Note_on_c, 1, 72, 91
3, 163200, Note_on_c, 1, 60, 91
3, 163292, Note_off_c, 1, 72, 100
3, 163292, Note_off_c, 1, 60, 100
3, 163296, Note_on_c, 1, 68, 94
3, 163296, Note_on_c, 1, 65, 94
3, 163388, Note_off_c, 1, 68, 100
3, 163388, Note_off_c, 1, 65, 100
3, 163392, Note_on_c, 1, 72, 97
3, 163392, Note_on_c, 1, 60, 97
3, 163484, Note_off_c, 1, 72, 100
3, 163484, Note_off_c, 1, 60, 100
3, 163488, Note_on_c, 1, 68, 99
3, 163488, Note_on_c, 1, 65, 99
3, 163580, Note_off_c, 1, 68, 100
3, 163580, Note_off_c, 1, 65, 100
3, 163584, Note_on_c, 1, 72, 100
3, 163584, Note_on_c, 1, 60, 100
3, 163676, Note_off_c, 1, 72, 100
3, 163676, Note_off_c, 1, 60, 100
3, 163680, Note_on_c, 1, 68, 98
3, 163680, Note_on_c, 1, 65, 98
3, 163772, Note_off_c, 1, 68, 100
3, 163772, Note_off_c, 1, 65, 100
3, 163776, Note_on_c, 1, 72, 95
3, 163776, Note_on_c, 1, 60, 95
3, 163868, Note_off_c, 1, 72, 100
3, 163868, Note_off_c, 1, 60, 100
3, 163872, Note_on_c, 1, 68, 92
3, 163872, Note_on_c, 1, 65, 92
3, 163964, Note_off_c, 1, 68, 100
3, 163964, Note_off_c, 1, 65, 100
3, 163968, Note_on_c, 1, 72, 89
3, 163968, Note_on_c, 1, 60, 89
3, 164060, Note_off_c, 1, 72, 100
3, 164060, Note_off_c, 1, 60, 100
3, 164064, Note_on_c, 1, 68, 86
3, 164064, Note_on_c, 1, 65, 86
3, 164156, Note_off_c, 1, 68, 100
3, 164156, Note_off_c, 1, 65, 100
3, 164160, Note_on_c, 1, 72, 83
3, 164160, Note_on_c, 1, 60, 83
3, 164252, Note_off_c, 1, 72, 100
3, 164252, Note_off_c, 1, 60, 100
3, 164256, Note_on_c, 1, 68, 81
3, 164256, Note_on_c, 1, 65, 81
3, 164348, Note_off_c, 1, 68, 100
3, 164348, Note_off_c, 1, 65, 100
3, 164352, Note_on_c, 1, 43, 80
3, 164444, Note_off_c, 1, 43, 100
3, 164448, Note_on_c, 1, 55, 82
3, 164448, Note_on_c, 1, 53, 82
3, 164540, Note_off_c, 1, 55, 100
3, 164540, Note_off_c, 1, 53, 100
3, 164544, Note_on_c, 1, 59, 85
3, 164544, Note_on_c, 1, 50, 85
3, 164636, Note_off_c, 1, 59, 100
3, 164636, Note_off_c, 1, 50, 100
3, 164640, Note_on_c, 1, 55, 88
3, 164640, Note_on_c, 1, 53, 88
3, 164732, Note_off_c, 1, 55, 100
3, 164732, Note_off_c, 1, 53, 100
3, 164736, Note_on_c, 1, 59, 91
3, 164736, Note_on_c, 1, 50, 91
3, 164828, Note_off_c, 1, 59, 100
3, 164828, Note_off_c, 1, 50, 100
3, 164832, Note_on_c, 1, 55, 94
3, 164832, Note_on_c, 1, 53, 94
3, 164924, Note_off_c, 1, 55, 100
3, 164924, Note_off_c, 1, 53, 100
3, 164928, Note_on_c, 1, 59, 97
3, 164928, Note_on_c, 1, 50, 97
3, 165020, Note_off_c, 1, 59, 100
3, 165020, Note_off_c, 1, 50, 100
3, 165024, Note_on_c, 1, 55, 99
3, 165024, Note_on_c, 1, 53, 99
3, 165116, Note_off_c, 1, 55, 100
3, 165116, Note_off_c, 1, 53, 100
3, 165120, Note_on_c, 1, 59, 100
3, 165120, Note_on_c, 1, 50, 100
3, 165212, Note_off_c, 1, 59, 100
3, 165212, Note_off_c, 1, 50, 100
3, 165216, Note_on_c, 1, 55, 98
3, 165216, Note_on_c, 1, 53, 98
3, 165308, Note_off_c, 1, 55, 100
3, 165308, Note_off_c, 1, 53, 100
3, 165312, Note_on_c, 1, 59, 95
3, 165312, Note_on_c, 1, 50, 95
3, 165404, Note_off_c, 1, 59, 100
3, 165404, Note_off_c, 1, 50, 100
3, 165408, Note_on_c, 1, 55, 92
3, 165408, Note_on_c, 1, 53, 92
3, 165500, Note_off_c, 1, 55, 100
3, 165500, Note_off_c, 1, 53, 100
3, 165504, Note_on_c, 1, 59, 89
3, 165504, Note_on_c, 1, 50, 89
3, 165596, Note_off_c, 1, 59, 100
3, 165596, Note_off_c, 1, 50, 100
3, 165600, Note_on_c, 1, 55, 86
3, 165600, Note_on_c, 1, 53, 86
3, 165692, Note_off_c, 1, 55, 100
3, 165692, Note_off_c, 1, 53, 100
3, 165696, Note_on_c, 1, 59, 83
3, 165696, Note_on_c, 1, 50, 83
3, 165788, Note_off_c, 1, 59, 100
3, 165788, Note_off_c, 1, 50, 100
3, 165792, Note_on_c, 1, 55, 81
3, 165792, Note_on_c, 1, 53, 81
3, 165884, Note_off_c, 1, 55, 100
3, 165884, Note_off_c, 1, 53, 100
3, 165888, Note_on_c, 1, 43, 80
3, 165980, Note_off_c, 1, 43, 100
3, 165984, Note_on_c, 1, 55, 82
3, 165984, Note_on_c, 1, 53, 82
3, 166076, Note_off_c, 1, 55, 100
3, 166076, Note_off_c, 1, 53, 100
3, 166080, Note_on_c, 1, 59, 85
3, 166080, Note_on_c, 1, 50, 85
3, 166172, Note_off_c, 1, 59, 100
3, 166172, Note_off_c, 1, 50, 100
3, 166176, Note_on_c, 1, 55, 88
3, 166176, Note_on_c, 1, 53, 88
3, 166268, Note_off_c, 1, 55, 100
3, 166268, Note_off_c, 1, 53, 100
3, 166272, Note_on_c, 1, 59, 91
3, 166272, Note_on_c, 1, 50, 91
3, 166364, Note_off_c, 1, 59, 100
3, 166364, Note_off_c, 1, 50, 100
3, 166368, Note_on_c, 1, 55, 94
3, 166368, Note_on_c, 1, 53, 94
3, 166460, Note_off_c, 1, 55, 100
3, 166460, Note_off_c, 1, 53, 100
3, 166464, Note_on_c, 1, 59, 97
3, 166464, Note_on_c, 1, 50, 97
3, 166556, Note_off_c, 1, 59, 100
3, 166556, Note_off_c, 1, 50, 100
3, 166560, Note_on_c, 1, 55, 99
3, 166560, Note_on_c, 1, 53, 99
3, 166652, Note_off_c, 1, 55, 100
3, 166652, Note_off_c, 1, 53, 100
3, 166656, Note_on_c, 1, 59, 100
3, 166656, Note_on_c, 1, 50, 100
3, 166748, Note_off_c, 1, 59, 100
3, 166748, Note_off_c, 1, 50, 100
3, 166752, Note_on_c, 1, 55, 98
3, 166752, Note_on_c, 1, 53, 98
3, 166844, Note_off_c, 1, 55, 100
3, 166844, Note_off_c, 1, 53, 100
3, 166848, Note_on_c, 1, 59, 95
3, 166848, Note_on_c, 1, 50, 95
3, 166940, Note_off_c, 1, 59, 100
3, 166940, Note_off_c, 1, 50, 100
3, 166944, Note_on_c, 1, 55, 92
3, 166944, Note_on_c, 1, 53, 92
3, 167036, Note_off_c, 1, 55, 100
3, 167036, Note_off_c, 1, 53, 100
3, 167040, Note_on_c, 1, 59, 89
3, 167040, Note_on_c, 1, 50, 89
3, 167132, Note_off_c, 1, 59, 100
3, 167132, Note_off_c, 1, 50, 100
3, 167136, Note_on_c, 1, 55, 86
3, 167136, Note_on_c, 1, 53, 86
3, 167228, Note_off_c, 1, 55, 100
3, 167228, Note_off_c, 1, 53, 100
3, 167232, Note_on_c, 1, 59, 83
3, 167232, Note_on_c, 1, 50, 83
3, 167324, Note_off_c, 1, 59, 100
3, 167324, Note_off_c, 1, 50, 100
3, 167328, Note_on_c, 1, 55, 81
3, 167328, Note_on_c, 1, 53, 81
3, 167420, Note_off_c, 1, 55, 100
3, 167420, Note_off_c, 1, 53, 100
3, 167424, Note_on_c, 1, 48, 80
3, 167516, Note_off_c, 1, 48, 100
3, 167520, Note_on_c, 1, 63, 82
3, 167520, Note_on_c, 1, 60, 82
3, 167612, Note_off_c, 1, 63, 100
3, 167612, Note_off_c, 1, 60, 100
3, 167616, Note_on_c, 1, 67, 85
3, 167616, Note_on_c, 1, 55, 85
3, 167708, Note_off_c, 1, 67, 100
3, 167708, Note_off_c, 1, 55, 100
3, 167712, Note_on_c, 1, 63, 88
3, 167712, Note_on_c, 1, 60, 88
3, 167804, Note_off_c, 1, 63, 100
3, 167804, Note_off_c, 1, 60, 100
3, 167808, Note_on_c, 1, 67, 91
3, 167808, Note_on_c, 1, 55, 91
3, 167900, Note_off_c, 1, 67, 100
3, 167900, Note_off_c, 1, 55, 100
3, 167904, Note_on_c, 1, 63, 94
3, 167904, Note_on_c, 1, 60, 94
3, 167996, Note_off_c, 1, 63, 100
3, 167996, Note_off_c, 1, 60, 100
3, 168000, Note_on_c, 1, 67, 97
3, 168000, Note_on_c, 1, 55, 97
3, 168092, Note_off_c, 1, 67, 100
3, 168092, Note_off_c, 1, 55, 100
3, 168096, Note_on_c, 1, 63, 99
3, 168096, Note_on_c, 1, 60, 99
3, 168188, Note_off_c, 1, 63, 100
3, 168188, Note_off_c, 1, 60, 100
3, 168192, Note_on_c, 1, 67, 100
3, 168192, Note_on_c, 1, 55, 100
3, 168284, Note_off_c, 1, 67, 100
3, 168284, Note_off_c, 1, 55, 100
3, 168288, Note_on_c, 1, 63, 98
3, 168288, Note_on_c, 1, 60, 98
3, 168380, Note_off_c, 1, 63, 100
3, 168380, Note_off_c, 1, 60, 100
3, 168384, Note_on_c, 1, 67, 95
3, 168384, Note_on_c, 1, 55, 95
3, 168476, Note_off_c, 1, 67, 100
3, 168476, Note_off_c, 1, 55, 100
3, 168480, Note_on_c, 1, 63, 92
3, 168480, Note_on_c, 1, 60, 92
3, 168572, Note_off_c, 1, 63, 100
3, 168572, Note_off_c, 1, 60, 100
3, 168576, Note_on_c, 1, 67, 89
3, 168576, Note_on_c, 1, 55, 89
3, 168668, Note_off_c, 1, 67, 100
3, 168668, Note_off_c, 1, 55, 100
3, 168672, Note_on_c, 1, 63, 86
3, 168672, Note_on_c, 1, 60, 86
3, 168764, Note_off_c, 1, 63, 100
3, 168764, Note_off_c, 1, 60, 100
3, 168768, Note_on_c, 1, 67, 83
3, 168768, Note_on_c, 1, 55, 83
3, 168860, Note_off_c, 1, 67, 100
3, 168860, Note_off_c, 1, 55, 100
3, 168864, Note_on_c, 1, 63, 81
3, 168864, Note_on_c, 1, 60, 81
3, 168956, Note_off_c, 1, 63, 100
3, 168956, Note_off_c, 1, 60, 100
3, 168960, Note_on_c, 1, 48, 90
3, 169148, Note_off_c, 1, 48, 100
3, 169152, Note_on_c, 1, 67, 92
3, 169244, Note_off_c, 1, 67, 100
3, 169248, Note_on_c, 1, 63, 93
3, 169340, Note_off_c, 1, 63, 100
3, 169344, Note_on_c, 1, 72, 94
3, 169436, Note_off_c, 1, 72, 100
3, 169440, Note_on_c, 1, 67, 96
3, 169532, Note_off_c, 1, 67, 100
3, 169536, Note_on_c, 1, 72, 97
3, 169628, Note_off_c, 1, 72, 100
3, 169632, Note_on_c, 1, 67, 98
3, 169724, Note_off_c, 1, 67, 100
3, 169728, Note_on_c, 1, 75, 99
3, 169820, Note_off_c, 1, 75, 100
3, 169824, Note_on_c, 1, 72, 101
3, 169916, Note_off_c, 1, 72, 100
3, 169920, Note_on_c, 1, 75, 102
3, 170012, Note_off_c, 1, 75, 100
3, 170016, Note_on_c, 1, 72, 103
3, 170108, Note_off_c, 1, 72, 100
3, 170112, Note_on_c, 1, 79, 104
3, 170204, Note_off_c, 1, 79, 100
3, 170208, Note_on_c, 1, 75, 106
3, 170300, Note_off_c, 1, 75, 100
3, 170304, Note_on_c, 1, 79, 107
3, 170396, Note_off_c, 1, 79, 100
3, 170400, Note_on_c, 1, 75, 108
3, 170492, Note_off_c, 1, 75, 100
3, 170496, Note_on_c, 1, 80, 109
3, 170496, Note_on_c, 1, 77, 109
3, 171068, Note_off_c, 1, 80, 100
3, 171068, Note_off_c, 1, 77, 100
3, 171072, Note_on_c, 1, 79, 80
3, 171072, Note_on_c, 1, 75, 80
3, 171260, Note_off_c, 1, 79, 100
3, 171260, Note_off_c, 1, 75, 100
3, 171264, Note_on_c, 1, 77, 80
3, 171264, Note_on_c, 1, 73, 80
3, 171644, Note_off_c, 1, 77, 100
3, 171644, Note_off_c, 1, 73, 100
3, 171648, Note_on_c, 1, 79, 80
3, 171648, Note_on_c, 1, 75, 80
3, 172028, Note_off_c, 1, 79, 100
3, 172028, Note_off_c, 1, 75, 100
3, 172032, Note_on_c, 1, 80, 100
3, 172032, Note_on_c, 1, 77, 100
3, 172604, Note_off_c, 1, 80, 100
3, 172604, Note_off_c, 1, 77, 100
3, 172608, Note_on_c, 1, 79, 80
3, 172608, Note_on_c, 1, 75, 80
3, 172796, Note_off_c, 1, 79, 100
3, 172796, Note_off_c, 1, 75, 100
3, 172800, Note_on_c, 1, 77, 80
3, 172800, Note_on_c, 1, 73, 80
3, 173180, Note_off_c, 1, 77, 100
3, 173180, Note_off_c, 1, 73, 100
3, 173184, Note_on_c, 1, 79, 80
3, 173184, Note_on_c, 1, 75, 80
3, 173564, Note_off_c, 1, 79, 100
3, 173564, Note_off_c, 1, 75, 100
3, 173568, Note_on_c, 1, 80, 100
3, 173568, Note_on_c, 1, 77, 100
3, 174140, Note_off_c, 1, 80, 100
3, 174140, Note_off_c, 1, 77, 100
3, 174144, Note_on_c, 1, 79, 80
3, 174144, Note_on_c, 1, 75, 80
3, 174332, Note_off_c, 1, 79, 100
3, 174332, Note_off_c, 1, 75, 100
3, 174336, Note_on_c, 1, 77, 80
3, 174336, Note_on_c, 1, 74, 80
3, 174716, Note_off_c, 1, 77, 100
3, 174716, Note_off_c, 1, 74, 100
3, 174720, Note_on_c, 1, 75, 85
3, 174720, Note_on_c, 1, 72, 85
3, 175100, Note_off_c, 1, 75, 100
3, 175100, Note_off_c, 1, 72, 100
3, 175104, Note_on_c, 1, 74, 90
3, 175104, Note_on_c, 1, 71, 90
3, 175484, Note_off_c, 1, 74, 100
3, 175484, Note_off_c, 1, 71, 100
3, 175488, Note_on_c, 1, 72, 95
3, 175488, Note_on_c, 1, 69, 95
3, 175868, Note_off_c, 1, 72, 100
3, 175868, Note_off_c, 1, 69, 100
3, 175872, Note_on_c, 1, 72, 100
3, 175872, Note_on_c, 1, 68, 100
3, 176252, Note_off_c, 1, 72, 100
3, 176252, Note_off_c, 1, 68, 100
3, 176256, Note_on_c, 1, 72, 106
3, 176256, Note_on_c, 1, 67, 106
3, 176636, Note_off_c, 1, 72, 100
3, 176636, Note_off_c, 1, 67, 100
3, 176640, Note_on_c, 1, 66, 110
3, 177024, Note_on_c, 1, 69, 105
3, 177404, Note_off_c, 1, 66, 100
3, 177404, Note_off_c, 1, 69, 100
3, 177408, Note_on_c, 1, 67, 100
3, 177408, Note_on_c, 1, 55, 100
3, 177408, Note_on_c, 1, 63, 100
3, 177788, Note_off_c, 1, 63, 100
3, 177792, Note_on_c, 1, 62, 95
3, 178172, Note_off_c, 1, 67, 100
3, 178172, Note_off_c, 1, 55, 100
3, 178172, Note_off_c, 1, 62, 100
3, 178176, Note_on_c, 1, 61, 100
3, 178176, Note_on_c, 1, 56, 100
3, 178176, Note_on_c, 1, 53, 100
3, 178748, Note_off_c, 1, 61, 100
3, 178748, Note_off_c, 1, 56, 100
3, 178748, Note_off_c, 1, 53, 100
3, 178752, Note_on_c, 1, 60, 80
3, 178752, Note_on_c, 1, 55, 80
3, 178752, Note_on_c, 1, 51, 80
3, 178940, Note_off_c, 1, 60, 100
3, 178940, Note_off_c, 1, 55, 100
3, 178940, Note_off_c, 1, 51, 100
3, 178944, Note_on_c, 1, 59, 80
3, 178944, Note_on_c, 1, 53, 80
3, 178944, Note_on_c, 1, 50, 80
3, 179324, Note_off_c, 1, 59, 100
3, 179324, Note_off_c, 1, 53, 100
3, 179324, Note_off_c, 1, 50, 100
3, 179328, Note_on_c, 1, 60, 80
3, 179328, Note_on_c, 1, 55, 80
3, 179328, Note_on_c, 1, 51, 80
3, 179708, Note_off_c, 1, 60, 100
3, 179708, Note_off_c, 1, 55, 100
3, 179708, Note_off_c, 1, 51, 100
3, 179712, Note_on_c, 1, 61, 100
3, 179712, Note_on_c, 1, 56, 100
3, 179712, Note_on_c, 1, 53, 100
3, 180284, Note_off_c, 1, 61, 100
3, 180284, Note_off_c, 1, 56, 100
3, 180284, Note_off_c, 1, 53, 100
3, 180288, Note_on_c, 1, 60, 80
3, 180288, Note_on_c, 1, 55, 80
3, 180288, Note_on_c, 1, 51, 80
3, 180476, Note_off_c, 1, 60, 100
3, 180476, Note_off_c, 1, 55, 100
3, 180476, Note_off_c, 1, 51, 100
3, 180480, Note_on_c, 1, 59, 80
3, 180480, Note_on_c, 1, 53, 80
3, 180480, Note_on_c, 1, 50, 80
3, 180860, Note_off_c, 1, 59, 100
3, 180860, Note_off_c, 1, 53, 100
3, 180860, Note_off_c, 1, 50, 100
3, 180864, Note_on_c, 1, 60, 80
3, 180864, Note_on_c, 1, 55, 80
3, 180864, Note_on_c, 1, 51, 80
3, 181244, Note_off_c, 1, 60, 100
3, 181244, Note_off_c, 1, 55, 100
3, 181244, Note_off_c, 1, 51, 100
3, 181248, Note_on_c, 1, 61, 100
3, 181248, Note_on_c, 1, 56, 100
3, 181248, Note_on_c, 1, 53, 100
3, 181820, Note_off_c, 1, 61, 100
3, 181820, Note_off_c, 1, 56, 100
3, 181820, Note_off_c, 1, 53, 100
3, 181824, Note_on_c, 1, 60, 95
3, 181824, Note_on_c, 1, 55, 95
3, 181824, Note_on_c, 1, 51, 95
3, 182012, Note_off_c, 1, 60, 100
3, 182012, Note_off_c, 1, 55, 100
3, 182012, Note_off_c, 1, 51, 100
3, 182016, Note_on_c, 1, 59, 97
3, 182016, Note_on_c, 1, 53, 97
3, 182016, Note_on_c, 1, 50, 97
3, 182396, Note_off_c, 1, 59, 100
3, 182396, Note_off_c, 1, 53, 100
3, 182396, Note_off_c, 1, 50, 100
3, 182400, Note_on_c, 1, 56, 101
3, 182400, Note_on_c, 1, 51, 101
3, 182400, Note_on_c, 1, 48, 101
3, 182780, Note_off_c, 1, 56, 100
3, 182780, Note_off_c, 1, 51, 100
3, 182780, Note_off_c, 1, 48, 100
3, 182784, Note_on_c, 1, 55, 105
3, 182784, Note_on_c, 1, 50, 105
3, 182784, Note_on_c, 1, 47, 105
3, 183164, Note_off_c, 1, 55, 100
3, 183164, Note_off_c, 1, 50, 100
3, 183164, Note_off_c, 1, 47, 100
3, 183168, Note_on_c, 1, 54, 109
3, 183168, Note_on_c, 1, 51, 109
3, 183168, Note_on_c, 1, 48, 109
3, 183168, Note_on_c, 1, 45, 109
3, 183548, Note_off_c, 1, 54, 100
3, 183548, Note_off_c, 1, 51, 100
3, 183548, Note_off_c, 1, 48, 100
3, 183548, Note_off_c, 1, 45, 100
3, 183552, Note_on_c, 1, 53, 113
3, 183552, Note_on_c, 1, 50, 113
3, 183552, Note_on_c, 1, 47, 113
3, 183932, Note_off_c, 1, 53, 100
3, 183932, Note_off_c, 1, 50, 100
3, 183932, Note_off_c, 1, 47, 100
3, 183936, Note_on_c, 1, 51, 117
3, 183936, Note_on_c, 1, 48, 117
3, 184316, Note_off_c, 1, 51, 100
3, 184316, Note_off_c, 1, 48, 100
3, 184320, Note_on_c, 1, 51, 120
3, 184320, Note_on_c, 1, 45, 120
3, 184320, Note_on_c, 1, 42, 120
3, 184700, Note_off_c, 1, 51, 100
3, 184704, Note_on_c, 1, 50, 113
3, 185084, Note_off_c, 1, 45, 100
3, 185084, Note_off_c, 1, 42, 100
3, 185084, Note_off_c, 1, 50, 100
3, 185088, Note_on_c, 1, 43, 105
3, 185088, Note_on_c, 1, 48, 105
3, 185468, Note_off_c, 1, 48, 100
3, 185472, Note_on_c, 1, 47, 97
3, 185852, Note_off_c, 1, 43, 100
3, 185852, Note_off_c, 1, 47, 100
3, 185856, Note_on_c, 1, 48, 120
3, 185856, Note_on_c, 1, 43, 120
3, 185856, Note_on_c, 1, 39, 120
3, 185856, Note_on_c, 1, 36, 120
3, 186044, Note_off_c, 1, 48, 100
3, 186044, Note_off_c, 1, 43, 100
3, 186044, Note_off_c, 1, 39, 100
3, 186044, Note_off_c, 1, 36, 100
3, 186336, Note_on_c, 1, 55, 110
3, 186428, Note_off_c, 1, 55, 100
3, 186432, Note_on_c, 1, 60, 110
3, 186524, Note_off_c, 1, 60, 100
3, 186528, Note_on_c, 1, 63, 110
3, 186620, Note_off_c, 1, 63, 100
3, 186624, Note_on_c, 1, 67, 110
3, 186716, Note_off_c, 1, 67, 100
3, 186720, Note_on_c, 1, 68, 110
3, 186812, Note_off_c, 1, 68, 100
3, 186816, Note_on_c, 1, 67, 110
3, 186908, Note_off_c, 1, 67, 100
3, 186912, Note_on_c, 1, 65, 110
3, 187004, Note_off_c, 1, 65, 100
3, 187008, Note_on_c, 1, 63, 110
3, 187100, Note_off_c, 1, 63, 100
3, 187104, Note_on_c, 1, 62, 110
3, 187196, Note_off_c, 1, 62, 100
3, 187200, Note_on_c, 1, 60, 110
3, 187292, Note_off_c, 1, 60, 100
3, 187296, Note_on_c, 1, 58, 110
3, 187388, Note_off_c, 1, 58, 100
3, 187392, Note_on_c, 1, 56, 110
3, 187484, Note_off_c, 1, 56, 100
3, 187488, Note_on_c, 1, 55, 110
3, 187580, Note_off_c, 1, 55, 100
3, 187584, Note_on_c, 1, 53, 110
3, 187676, Note_off_c, 1, 53, 100
3, 187680, Note_on_c, 1, 51, 110
3, 187772, Note_off_c, 1, 51, 100
3, 187776, Note_on_c, 1, 50, 110
3, 187868, Note_off_c, 1, 50, 100
3, 187872, Note_on_c, 1, 51, 110
3, 187964, Note_off_c, 1, 51, 100
3, 187968, Note_on_c, 1, 53, 110
3, 188060, Note_off_c, 1, 53, 100
3, 188064, Note_on_c, 1, 51, 110
3, 188156, Note_off_c, 1, 51, 100
3, 188160, Note_on_c, 1, 50, 110
3, 188252, Note_off_c, 1, 50, 100
3, 188256, Note_on_c, 1, 48, 110
3, 188348, Note_off_c, 1, 48, 100
3, 188352, Note_on_c, 1, 47, 110
3, 188444, Note_off_c, 1, 47, 100
3, 188448, Note_on_c, 1, 45, 110
3, 188540, Note_off_c, 1, 45, 100
3, 188544, Note_on_c, 1, 43, 110
3, 188636, Note_off_c, 1, 43, 100
3, 188640, Note_on_c, 1, 41, 110
3, 188732, Note_off_c, 1, 41, 100
3, 188736, Note_on_c, 1, 39, 110
3, 188828, Note_off_c, 1, 39, 100
3, 188832, Note_on_c, 1, 38, 110
3, 188924, Note_off_c, 1, 38, 100
3, 188928, Note_on_c, 1, 48, 110
3, 188928, Note_on_c, 1, 43, 110
3, 188928, Note_on_c, 1, 39, 110
3, 188928, Note_on_c, 1, 36, 110
3, 189020, Note_off_c, 1, 48, 100
3, 189020, Note_off_c, 1, 43, 100
3, 189020, Note_off_c, 1, 39, 100
3, 189020, Note_off_c, 1, 36, 100
3, 189408, Note_on_c, 1, 67, 110
3, 189500, Note_off_c, 1, 67, 100
3, 189504, Note_on_c, 1, 72, 110
3, 189596, Note_off_c, 1, 72, 100
3, 189600, Note_on_c, 1, 75, 110
3, 189692, Note_off_c, 1, 75, 100
3, 189696, Note_on_c, 1, 79, 110
3, 189788, Note_off_c, 1, 79, 100
3, 189792, Note_on_c, 1, 80, 110
3, 189884, Note_off_c, 1, 80, 100
3, 189888, Note_on_c, 1, 79, 110
3, 189980, Note_off_c, 1, 79, 100
3, 189984, Note_on_c, 1, 77, 110
3, 190076, Note_off_c, 1, 77, 100
3, 190080, Note_on_c, 1, 75, 110
3, 190172, Note_off_c, 1, 75, 100
3, 190176, Note_on_c, 1, 74, 110
3, 190268, Note_off_c, 1, 74, 100
3, 190272, Note_on_c, 1, 72, 110
3, 190364, Note_off_c, 1, 72, 100
3, 190368, Note_on_c, 1, 70, 110
3, 190460, Note_off_c, 1, 70, 100
3, 190464, Note_on_c, 1, 68, 110
3, 190556, Note_off_c, 1, 68, 100
3, 190560, Note_on_c, 1, 67, 110
3, 190652, Note_off_c, 1, 67, 100
3, 190656, Note_on_c, 1, 65, 110
3, 190748, Note_off_c, 1, 65, 100
3, 190752, Note_on_c, 1, 63, 110
3, 190844, Note_off_c, 1, 63, 100
3, 190848, Note_on_c, 1, 62, 110
3, 190940, Note_off_c, 1, 62, 100
3, 190944, Note_on_c, 1, 63, 110
3, 191036, Note_off_c, 1, 63, 100
3, 191040, Note_on_c, 1, 65, 110
3, 191132, Note_off_c, 1, 65, 100
3, 191136, Note_on_c, 1, 63, 110
3, 191228, Note_off_c, 1, 63, 100
3, 191232, Note_on_c, 1, 62, 110
3, 191324, Note_off_c, 1, 62, 100
3, 191328, Note_on_c, 1, 60, 110
3, 191420, Note_off_c, 1, 60, 100
3, 191424, Note_on_c, 1, 59, 110
3, 191516, Note_off_c, 1, 59, 100
3, 191520, Note_on_c, 1, 57, 110
3, 191612, Note_off_c, 1, 57, 100
3, 191616, Note_on_c, 1, 55, 110
3, 191708, Note_off_c, 1, 55, 100
3, 191712, Note_on_c, 1, 53, 110
3, 191804, Note_off_c, 1, 53, 100
3, 191808, Note_on_c, 1, 51, 110
3, 191900, Note_off_c, 1, 51, 100
3, 191904, Note_on_c, 1, 50, 110
3, 191996, Note_off_c, 1, 50, 100
3, 192000, Note_on_c, 1, 48, 110
3, 192092, Note_off_c, 1, 48, 100
3, 192096, Note_on_c, 1, 50, 110
3, 192188, Note_off_c, 1, 50, 100
3, 192192, Note_on_c, 1, 51, 110
3, 192284, Note_off_c, 1, 51, 100
3, 192288, Note_on_c, 1, 53, 110
3, 192380, Note_off_c, 1, 53, 100
3, 192384, Note_on_c, 1, 55, 110
3, 192476, Note_off_c, 1, 55, 100
3, 192480, Note_on_c, 1, 57, 110
3, 192572, Note_off_c, 1, 57, 100
3, 192576, Note_on_c, 1, 59, 110
3, 192668, Note_off_c, 1, 59, 100
3, 192672, Note_on_c, 1, 60, 110
3, 192764, Note_off_c, 1, 60, 100
3, 192768, Note_on_c, 1, 62, 110
3, 192860, Note_off_c, 1, 62, 100
3, 192864, Note_on_c, 1, 60, 110
3, 192956, Note_off_c, 1, 60, 100
3, 192960, Note_on_c, 1, 59, 110
3, 193052, Note_off_c, 1, 59, 100
3, 193056, Note_on_c, 1, 57, 110
3, 193148, Note_off_c, 1, 57, 100
3, 193152, Note_on_c, 1, 55, 110
3, 193244, Note_off_c, 1, 55, 100
3, 193248, Note_on_c, 1, 53, 110
3, 193340, Note_off_c, 1, 53, 100
3, 193344, Note_on_c, 1, 51, 110
3, 193436, Note_off_c, 1, 51, 100
3, 193440, Note_on_c, 1, 50, 110
3, 193532, Note_off_c, 1, 50, 100
3, 193536, Note_on_c, 1, 48, 110
3, 193628, Note_off_c, 1, 48, 100
3, 193632, Note_on_c, 1, 50, 110
3, 193724, Note_off_c, 1, 50, 100
3, 193728, Note_on_c, 1, 51, 110
3, 193820, Note_off_c, 1, 51, 100
3, 193824, Note_on_c, 1, 53, 110
3, 193916, Note_off_c, 1, 53, 100
3, 193920, Note_on_c, 1, 55, 110
3, 194012, Note_off_c, 1, 55, 100
3, 194016, Note_on_c, 1, 57, 110
3, 194108, Note_off_c, 1, 57, 100
3, 194112, Note_on_c, 1, 59, 110
3, 194204, Note_off_c, 1, 59, 100
3, 194208, Note_on_c, 1, 60, 110
3, 194300, Note_off_c, 1, 60, 100
3, 194304, Note_on_c, 1, 62, 110
3, 194396, Note_off_c, 1, 62, 100
3, 194400, Note_on_c, 1, 60, 110
3, 194492, Note_off_c, 1, 60, 100
3, 194496, Note_on_c, 1, 59, 110
3, 194588, Note_off_c, 1, 59, 100
3, 194592, Note_on_c, 1, 57, 110
3, 194684, Note_off_c, 1, 57, 100
3, 194688, Note_on_c, 1, 55, 110
3, 194780, Note_off_c, 1, 55, 100
3, 194784, Note_on_c, 1, 53, 110
3, 194876, Note_off_c, 1, 53, 100
3, 194880, Note_on_c, 1, 51, 110
3, 194972, Note_off_c, 1, 51, 100
3, 194976, Note_on_c, 1, 50, 110
3, 195068, Note_off_c, 1, 50, 100
3, 195072, Note_on_c, 1, 48, 110
3, 195164, Note_off_c, 1, 48, 100
3, 195168, Note_on_c, 1, 50, 110
3, 195260, Note_off_c, 1, 50, 100
3, 195264, Note_on_c, 1, 51, 110
3, 195356, Note_off_c, 1, 51, 100
3, 195360, Note_on_c, 1, 53, 110
3, 195452, Note_off_c, 1, 53, 100
3, 195456, Note_on_c, 1, 55, 110
3, 195548, Note_off_c, 1, 55, 100
3, 195552, Note_on_c, 1, 57, 110
3, 195644, Note_off_c, 1, 57, 100
3, 195648, Note_on_c, 1, 59, 110
3, 195740, Note_off_c, 1, 59, 100
3, 195744, Note_on_c, 1, 60, 110
3, 195836, Note_off_c, 1, 60, 100
3, 195840, Note_on_c, 1, 58, 110
3, 195932, Note_off_c, 1, 58, 100
3, 195936, Note_on_c, 1, 56, 110
3, 196028, Note_off_c, 1, 56, 100
3, 196032, Note_on_c, 1, 55, 110
3, 196124, Note_off_c, 1, 55, 100
3, 196128, Note_on_c, 1, 53, 110
3, 196220, Note_off_c, 1, 53, 100
3, 196224, Note_on_c, 1, 52, 110
3, 196316, Note_off_c, 1, 52, 100
3, 196320, Note_on_c, 1, 49, 110
3, 196412, Note_off_c, 1, 49, 100
3, 196416, Note_on_c, 1, 48, 110
3, 196508, Note_off_c, 1, 48, 100
3, 196512, Note_on_c, 1, 46, 110
3, 196604, Note_off_c, 1, 46, 100
3, 196608, Note_on_c, 1, 44, 110
3, 196700, Note_off_c, 1, 44, 100
3, 196704, Note_on_c, 1, 46, 110
3, 196796, Note_off_c, 1, 46, 100
3, 196800, Note_on_c, 1, 48, 110
3, 196892, Note_off_c, 1, 48, 100
3, 196896, Note_on_c, 1, 50, 110
3, 196988, Note_off_c, 1, 50, 100
3, 196992, Note_on_c, 1, 52, 110
3, 197084, Note_off_c, 1, 52, 100
3, 197088, Note_on_c, 1, 53, 110
3, 197180, Note_off_c, 1, 53, 100
3, 197184, Note_on_c, 1, 55, 110
3, 197276, Note_off_c, 1, 55, 100
3, 197280, Note_on_c, 1, 56, 110
3, 197372, Note_off_c, 1, 56, 100
3, 197376, Note_on_c, 1, 55, 110
3, 197468, Note_off_c, 1, 55, 100
3, 197472, Note_on_c, 1, 53, 110
3, 197564, Note_off_c, 1, 53, 100
3, 197568, Note_on_c, 1, 52, 110
3, 197660, Note_off_c, 1, 52, 100
3, 197664, Note_on_c, 1, 49, 110
3, 197756, Note_off_c, 1, 49, 100
3, 197760, Note_on_c, 1, 48, 110
3, 197852, Note_off_c, 1, 48, 100
3, 197856, Note_on_c, 1, 46, 110
3, 197948, Note_off_c, 1, 46, 100
3, 197952, Note_on_c, 1, 44, 110
3, 198044, Note_off_c, 1, 44, 100
3, 198048, Note_on_c, 1, 43, 110
3, 198140, Note_off_c, 1, 43, 100
3, 198144, Note_on_c, 1, 42, 120
3, 198144, Note_on_c, 1, 30, 120
3, 198332, Note_off_c, 1, 42, 100
3, 198332, Note_off_c, 1, 30, 100
3, 200928, Note_on_c, 1, 39, 110
3, 201024, Note_on_c, 1, 36, 108
3, 201120, Note_on_c, 1, 33, 106
3, 201216, Note_on_c, 1, 30, 104
3, 201312, Note_on_c, 1, 33, 102
3, 201404, Note_off_c, 1, 39, 100
3, 201408, Note_on_c, 1, 36, 99
3, 201500, Note_off_c, 1, 36, 100
3, 201504, Note_on_c, 1, 39, 97
3, 201596, Note_off_c, 1, 33, 100
3, 201600, Note_on_c, 1, 30, 95
3, 201692, Note_off_c, 1, 30, 100
3, 201696, Note_on_c, 1, 33, 93
3, 201788, Note_off_c, 1, 33, 100
3, 201792, Note_on_c, 1, 36, 91
3, 201884, Note_off_c, 1, 36, 100
3, 201888, Note_on_c, 1, 39, 88
3, 201980, Note_off_c, 1, 39, 100
3, 201984, Note_on_c, 1, 30, 86
3, 202076, Note_off_c, 1, 30, 100
3, 202080, Note_on_c, 1, 33, 84
3, 202172, Note_off_c, 1, 33, 100
3, 202176, Note_on_c, 1, 36, 82
3, 202268, Note_off_c, 1, 36, 100
3, 202272, Note_on_c, 1, 39, 79
3, 202364, Note_off_c, 1, 39, 100
3, 202368, Note_on_c, 1, 30, 77
3, 202460, Note_off_c, 1, 30, 100
3, 202464, Note_on_c, 1, 33, 75
3, 202556, Note_off_c, 1, 33, 100
3, 202560, Note_on_c, 1, 36, 73
3, 202652, Note_off_c, 1, 36, 100
3, 202656, Note_on_c, 1, 39, 71
3, 202748, Note_off_c, 1, 39, 100
3, 202748, Note_off_c, 1, 30, 100
3, 202748, Note_off_c, 1, 33, 100
3, 202748, Note_off_c, 1, 36, 100
3, 202748, Note_off_c, 1, 39, 100
3, 202752, Note_on_c, 1, 29, 80
3, 203132, Note_off_c, 1, 29, 100
3, 204192, Note_on_c, 1, 41, 80
3, 204284, Note_off_c, 1, 41, 100
3, 204288, Note_on_c, 1, 29, 80
3, 204668, Note_off_c, 1, 29, 100
3, 205728, Note_on_c, 1, 41, 80
3, 205820, Note_off_c, 1, 41, 100
3, 205824, Note_on_c, 1, 29, 80
3, 206204, Note_off_c, 1, 29, 100
3, 206400, Note_on_c, 1, 57, 80
3, 206492, Note_off_c, 1, 57, 100
3, 206496, Note_on_c, 1, 58, 80
3, 206588, Note_off_c, 1, 58, 100
3, 206592, Note_on_c, 1, 60, 80
3, 206684, Note_off_c, 1, 60, 100
3, 206688, Note_on_c, 1, 61, 80
3, 206780, Note_off_c, 1, 61, 100
3, 206784, Note_on_c, 1, 60, 80
3, 206876, Note_off_c, 1, 60, 100
3, 206880, Note_on_c, 1, 58, 80
3, 206972, Note_off_c, 1, 58, 100
3, 206976, Note_on_c, 1, 57, 80
3, 207164, Note_off_c, 1, 57, 100
3, 207168, Note_on_c, 1, 57, 80
3, 207260, Note_off_c, 1, 57, 100
3, 207264, Note_on_c, 1, 58, 80
3, 207356, Note_off_c, 1, 58, 100
3, 207360, Note_on_c, 1, 60, 80
3, 207452, Note_off_c, 1, 60, 100
3, 207456, Note_on_c, 1, 61, 80
3, 207548, Note_off_c, 1, 61, 100
3, 207552, Note_on_c, 1, 60, 80
3, 207644, Note_off_c, 1, 60, 100
3, 207648, Note_on_c, 1, 58, 80
3, 207740, Note_off_c, 1, 58, 100
3, 207744, Note_on_c, 1, 57, 80
3, 207932, Note_off_c, 1, 57, 100
3, 207936, Note_on_c, 1, 57, 80
3, 208028, Note_off_c, 1, 57, 100
3, 208032, Note_on_c, 1, 58, 80
3, 208124, Note_off_c, 1, 58, 100
3, 208128, Note_on_c, 1, 60, 80
3, 208220, Note_off_c, 1, 60, 100
3, 208224, Note_on_c, 1, 61, 80
3, 208316, Note_off_c, 1, 61, 100
3, 208320, Note_on_c, 1, 60, 80
3, 208412, Note_off_c, 1, 60, 100
3, 208416, Note_on_c, 1, 58, 80
3, 208508, Note_off_c, 1, 58, 100
3, 208512, Note_on_c, 1, 57, 80
3, 208604, Note_off_c, 1, 57, 100
3, 208608, Note_on_c, 1, 54, 80
3, 208700, Note_off_c, 1, 54, 100
3, 208704, Note_on_c, 1, 53, 80
3, 208796, Note_off_c, 1, 53, 100
3, 208800, Note_on_c, 1, 51, 80
3, 208892, Note_off_c, 1, 51, 100
3, 208896, Note_on_c, 1, 49, 80
3, 208992, Note_on_c, 1, 53, 80
3, 209084, Note_off_c, 1, 53, 100
3, 209088, Note_on_c, 1, 58, 80
3, 209180, Note_off_c, 1, 58, 100
3, 209184, Note_on_c, 1, 53, 80
3, 209276, Note_off_c, 1, 53, 100
3, 209280, Note_on_c, 1, 58, 80
3, 209372, Note_off_c, 1, 58, 100
3, 209376, Note_on_c, 1, 53, 80
3, 209468, Note_off_c, 1, 53, 100
3, 209472, Note_on_c, 1, 58, 80
3, 209564, Note_off_c, 1, 58, 100
3, 209568, Note_on_c, 1, 53, 80
3, 209660, Note_off_c, 1, 53, 100
3, 209664, Note_on_c, 1, 58, 80
3, 209756, Note_off_c, 1, 58, 100
3, 209760, Note_on_c, 1, 53, 80
3, 209852, Note_off_c, 1, 53, 100
3, 209856, Note_on_c, 1, 58, 80
3, 209948, Note_off_c, 1, 58, 100
3, 209952, Note_on_c, 1, 53, 80
3, 210000, Note_on_c, 1, 58, 80
3, 210044, Note_off_c, 1, 53, 100
3, 210092, Note_off_c, 1, 58, 100
3, 210096, Note_on_c, 1, 53, 80
3, 210188, Note_off_c, 1, 53, 100
3, 210192, Note_on_c, 1, 58, 80
3, 210284, Note_off_c, 1, 58, 100
3, 210288, Note_on_c, 1, 53, 80
3, 210380, Note_off_c, 1, 53, 100
3, 210428, Note_off_c, 1, 49, 100
3, 210432, Note_on_c, 1, 49, 80
3, 210528, Note_on_c, 1, 53, 80
3, 210620, Note_off_c, 1, 53, 100
3, 210624, Note_on_c, 1, 58, 80
3, 210716, Note_off_c, 1, 58, 100
3, 210720, Note_on_c, 1, 53, 80
3, 210812, Note_off_c, 1, 53, 100
3, 210816, Note_on_c, 1, 58, 80
3, 210908, Note_off_c, 1, 58, 100
3, 210912, Note_on_c, 1, 53, 80
3, 211004, Note_off_c, 1, 53, 100
3, 211008, Note_on_c, 1, 58, 80
3, 211100, Note_off_c, 1, 58, 100
3, 211104, Note_on_c, 1, 53, 80
3, 211196, Note_off_c, 1, 53, 100
3, 211200, Note_on_c, 1, 58, 80
3, 211292, Note_off_c, 1, 58, 100
3, 211296, Note_on_c, 1, 53, 80
3, 211388, Note_off_c, 1, 53, 100
3, 211392, Note_on_c, 1, 58, 80
3, 211484, Note_off_c, 1, 58, 100
3, 211488, Note_on_c, 1, 53, 80
3, 211536, Note_on_c, 1, 58, 80
3, 211580, Note_off_c, 1, 53, 100
3, 211628, Note_off_c, 1, 58, 100
3, 211632, Note_on_c, 1, 53, 80
3, 211724, Note_off_c, 1, 53, 100
3, 211728, Note_on_c, 1, 58, 80
3, 211820, Note_off_c, 1, 58, 100
3, 211824, Note_on_c, 1, 53, 80
3, 211916, Note_off_c, 1, 53, 100
3, 211964, Note_off_c, 1, 49, 100
3, 211968, Note_on_c, 1, 51, 80
3, 212064, Note_on_c, 1, 54, 80
3, 212156, Note_off_c, 1, 54, 100
3, 212160, Note_on_c, 1, 59, 80
3, 212252, Note_off_c, 1, 59, 100
3, 212256, Note_on_c, 1, 54, 80
3, 212348, Note_off_c, 1, 54, 100
3, 212352, Note_on_c, 1, 59, 80
3, 212444, Note_off_c, 1, 59, 100
3, 212448, Note_on_c, 1, 54, 80
3, 212540, Note_off_c, 1, 54, 100
3, 212544, Note_on_c, 1, 59, 80
3, 212636, Note_off_c, 1, 59, 100
3, 212640, Note_on_c, 1, 54, 80
3, 212732, Note_off_c, 1, 54, 100
3, 212736, Note_on_c, 1, 59, 80
3, 212828, Note_off_c, 1, 59, 100
3, 212832, Note_on_c, 1, 54, 80
3, 212924, Note_off_c, 1, 54, 100
3, 212928, Note_on_c, 1, 59, 80
3, 213020, Note_off_c, 1, 59, 100
3, 213024, Note_on_c, 1, 54, 80
3, 213116, Note_off_c, 1, 54, 100
3, 213120, Note_on_c, 1, 59, 80
3, 213212, Note_off_c, 1, 59, 100
3, 213216, Note_on_c, 1, 54, 80
3, 213308, Note_off_c, 1, 54, 100
3, 213312, Note_on_c, 1, 59, 80
3, 213404, Note_off_c, 1, 59, 100
3, 213408, Note_on_c, 1, 54, 80
3, 213500, Note_off_c, 1, 51, 100
3, 213500, Note_off_c, 1, 54, 100
3, 213504, Note_on_c, 1, 53, 80
3, 213600, Note_on_c, 1, 58, 80
3, 213692, Note_off_c, 1, 58, 100
3, 213696, Note_on_c, 1, 61, 80
3, 213788, Note_off_c, 1, 61, 100
3, 213792, Note_on_c, 1, 58, 80
3, 213884, Note_off_c, 1, 58, 100
3, 213888, Note_on_c, 1, 61, 80
3, 213980, Note_off_c, 1, 61, 100
3, 213984, Note_on_c, 1, 58, 80
3, 214076, Note_off_c, 1, 58, 100
3, 214080, Note_on_c, 1, 61, 80
3, 214172, Note_off_c, 1, 61, 100
3, 214176, Note_on_c, 1, 58, 80
3, 214268, Note_off_c, 1, 53, 100
3, 214268, Note_off_c, 1, 58, 100
3, 214272, Note_on_c, 1, 51, 80
3, 214368, Note_on_c, 1, 53, 80
3, 214460, Note_off_c, 1, 53, 100
3, 214464, Note_on_c, 1, 60, 80
3, 214556, Note_off_c, 1, 60, 100
3, 214560, Note_on_c, 1, 53, 80
3, 214652, Note_off_c, 1, 53, 100
3, 214656, Note_on_c, 1, 60, 80
3, 214748, Note_off_c, 1, 60, 100
3, 214752, Note_on_c, 1, 53, 80
3, 214844, Note_off_c, 1, 53, 100
3, 214848, Note_on_c, 1, 60, 80
3, 214940, Note_off_c, 1, 60, 100
3, 214944, Note_on_c, 1, 53, 80
3, 215036, Note_off_c, 1, 51, 100
3, 215036, Note_off_c, 1, 53, 100
3, 215040, Note_on_c, 1, 49, 80
3, 215132, Note_off_c, 1, 49, 100
3, 215136, Note_on_c, 1, 65, 80
3, 215228, Note_off_c, 1, 65, 100
3, 215424, Note_on_c, 1, 58, 83
3, 215520, Note_on_c, 1, 61, 84
3, 215612, Note_off_c, 1, 61, 100
3, 215616, Note_on_c, 1, 65, 85
3, 215708, Note_off_c, 1, 65, 100
3, 215712, Note_on_c, 1, 61, 86
3, 215804, Note_off_c, 1, 58, 100
3, 215804, Note_off_c, 1, 61, 100
3, 215808, Note_on_c, 1, 57, 87
3, 215904, Note_on_c, 1, 61, 88
3, 215996, Note_off_c, 1, 61, 100
3, 216000, Note_on_c, 1, 65, 89
3, 216092, Note_off_c, 1, 65, 100
3, 216096, Note_on_c, 1, 61, 90
3, 216188, Note_off_c, 1, 57, 100
3, 216188, Note_off_c, 1, 61, 100
3, 216192, Note_on_c, 1, 58, 91
3, 216288, Note_on_c, 1, 61, 92
3, 216380, Note_off_c, 1, 61, 100
3, 216384, Note_on_c, 1, 65, 93
3, 216476, Note_off_c, 1, 65, 100
3, 216480, Note_on_c, 1, 61, 94
3, 216572, Note_off_c, 1, 58, 100
3, 216572, Note_off_c, 1, 61, 100
3, 216576, Note_on_c, 1, 49, 95
3, 216668, Note_off_c, 1, 49, 100
3, 216672, Note_on_c, 1, 65, 96
3, 216764, Note_off_c, 1, 65, 100
3, 216960, Note_on_c, 1, 58, 99
3, 217056, Note_on_c, 1, 61, 100
3, 217148, Note_off_c, 1, 61, 100
3, 217152, Note_on_c, 1, 65, 101
3, 217244, Note_off_c, 1, 65, 100
3, 217248, Note_on_c, 1, 61, 102
3, 217340, Note_off_c, 1, 58, 100
3, 217340, Note_off_c, 1, 61, 100
3, 217344, Note_on_c, 1, 57, 103
3, 217440, Note_on_c, 1, 61, 104
3, 217532, Note_off_c, 1, 61, 100
3, 217536, Note_on_c, 1, 65, 105
3, 217628, Note_off_c, 1, 65, 100
3, 217632, Note_on_c, 1, 61, 106
3, 217724, Note_off_c, 1, 57, 100
3, 217724, Note_off_c, 1, 61, 100
3, 217728, Note_on_c, 1, 58, 107
3, 217824, Note_on_c, 1, 61, 108
3, 217916, Note_off_c, 1, 61, 100
3, 217920, Note_on_c, 1, 65, 108
3, 218012, Note_off_c, 1, 65, 100
3, 218016, Note_on_c, 1, 61, 109
3, 218108, Note_off_c, 1, 58, 100
3, 218108, Note_off_c, 1, 61, 100
3, 218112, Note_on_c, 1, 51, 110
3, 218204, Note_off_c, 1, 51, 100
3, 218208, Note_on_c, 1, 71, 110
3, 218208, Note_on_c, 1, 66, 110
3, 218300, Note_off_c, 1, 71, 100
3, 218300, Note_off_c, 1, 66, 100
3, 218304, Note_on_c, 1, 63, 110
3, 218396, Note_off_c, 1, 63, 100
3, 218400, Note_on_c, 1, 71, 110
3, 218400, Note_on_c, 1, 66, 110
3, 218492, Note_off_c, 1, 71, 100
3, 218492, Note_off_c, 1, 66, 100
3, 218496, Note_on_c, 1, 63, 110
3, 218588, Note_off_c, 1, 63, 100
3, 218592, Note_on_c, 1, 71, 110
3, 218592, Note_on_c, 1, 66, 110
3, 218684, Note_off_c, 1, 71, 100
3, 218684, Note_off_c, 1, 66, 100
3, 218688, Note_on_c, 1, 63, 110
3, 218780, Note_off_c, 1, 63, 100
3, 218784, Note_on_c, 1, 71, 110
3, 218784, Note_on_c, 1, 66, 110
3, 218876, Note_off_c, 1, 71, 100
3, 218876, Note_off_c, 1, 66, 100
3, 218880, Note_on_c, 1, 63, 110
3, 218972, Note_off_c, 1, 63, 100
3, 218976, Note_on_c, 1, 71, 110
3, 218976, Note_on_c, 1, 66, 110
3, 219068, Note_off_c, 1, 71, 100
3, 219068, Note_off_c, 1, 66, 100
3, 219072, Note_on_c, 1, 63, 110
3, 219164, Note_off_c, 1, 63, 100
3, 219168, Note_on_c, 1, 71, 110
3, 219168, Note_on_c, 1, 66, 110
3, 219260, Note_off_c, 1, 71, 100
3, 219260, Note_off_c, 1, 66, 100
3, 219264, Note_on_c, 1, 63, 110
3, 219356, Note_off_c, 1, 63, 100
3, 219360, Note_on_c, 1, 71, 110
3, 219360, Note_on_c, 1, 66, 110
3, 219452, Note_off_c, 1, 71, 100
3, 219452, Note_off_c, 1, 66, 100
3, 219456, Note_on_c, 1, 63, 110
3, 219548, Note_off_c, 1, 63, 100
3, 219552, Note_on_c, 1, 71, 110
3, 219552, Note_on_c, 1, 66, 110
3, 219644, Note_off_c, 1, 71, 100
3, 219644, Note_off_c, 1, 66, 100
3, 219648, Note_on_c, 1, 65, 110
3, 219740, Note_off_c, 1, 65, 100
3, 219744, Note_on_c, 1, 75, 110
3, 219744, Note_on_c, 1, 72, 110
3, 219744, Note_on_c, 1, 69, 110
3, 219836, Note_off_c, 1, 75, 100
3, 219836, Note_off_c, 1, 72, 100
3, 219836, Note_off_c, 1, 69, 100
3, 219840, Note_on_c, 1, 65, 110
3, 219932, Note_off_c, 1, 65, 100
3, 219936, Note_on_c, 1, 75, 110
3, 219936, Note_on_c, 1, 72, 110
3, 219936, Note_on_c, 1, 69, 110
3, 220028, Note_off_c, 1, 75, 100
3, 220028, Note_off_c, 1, 72, 100
3, 220028, Note_off_c, 1, 69, 100
3, 220032, Note_on_c, 1, 65, 110
3, 220124, Note_off_c, 1, 65, 100
3, 220128, Note_on_c, 1, 75, 110
3, 220128, Note_on_c, 1, 72, 110
3, 220128, Note_on_c, 1, 69, 110
3, 220220, Note_off_c, 1, 75, 100
3, 220220, Note_off_c, 1, 72, 100
3, 220220, Note_off_c, 1, 69, 100
3, 220224, Note_on_c, 1, 65, 110
3, 220316, Note_off_c, 1, 65, 100
3, 220320, Note_on_c, 1, 75, 110
3, 220320, Note_on_c, 1, 72, 110
3, 220320, Note_on_c, 1, 69, 110
3, 220412, Note_off_c, 1, 75, 100
3, 220412, Note_off_c, 1, 72, 100
3, 220412, Note_off_c, 1, 69, 100
3, 220416, Note_on_c, 1, 65, 110
3, 220508, Note_off_c, 1, 65, 100
3, 220512, Note_on_c, 1, 69, 110
3, 220604, Note_off_c, 1, 69, 100
3, 220608, Note_on_c, 1, 65, 110
3, 220700, Note_off_c, 1, 65, 100
3, 220704, Note_on_c, 1, 69, 110
3, 220796, Note_off_c, 1, 69, 100
3, 220800, Note_on_c, 1, 53, 110
3, 220892, Note_off_c, 1, 53, 100
3, 220896, Note_on_c, 1, 65, 110
3, 220988, Note_off_c, 1, 65, 100
3, 220992, Note_on_c, 1, 53, 110
3, 221084, Note_off_c, 1, 53, 100
3, 221088, Note_on_c, 1, 65, 110
3, 221180, Note_off_c, 1, 65, 100
3, 221184, Note_on_c, 1, 46, 110
3, 221372, Note_off_c, 1, 46, 100
3, 221376, Note_on_c, 1, 58, 80
3, 221376, Note_on_c, 1, 61, 80
3, 221468, Note_off_c, 1, 58, 100
3, 221468, Note_off_c, 1, 61, 100
3, 221472, Note_on_c, 1, 65, 80
3, 221564, Note_off_c, 1, 65, 100
3, 221568, Note_on_c, 1, 61, 80
3, 221568, Note_on_c, 1, 58, 80
3, 221660, Note_off_c, 1, 61, 100
3, 221660, Note_off_c, 1, 58, 100
3, 221664, Note_on_c, 1, 65, 80
3, 221756, Note_off_c, 1, 65, 100
3, 221760, Note_on_c, 1, 61, 80
3, 221760, Note_on_c, 1, 58, 80
3, 221852, Note_off_c, 1, 61, 100
3, 221852, Note_off_c, 1, 58, 100
3, 221856, Note_on_c, 1, 65, 80
3, 221948, Note_off_c, 1, 65, 100
3, 221952, Note_on_c, 1, 61, 80
3, 221952, Note_on_c, 1, 58, 80
3, 222044, Note_off_c, 1, 61, 100
3, 222044, Note_off_c, 1, 58, 100
3, 222048, Note_on_c, 1, 65, 80
3, 222140, Note_off_c, 1, 65, 100
3, 222144, Note_on_c, 1, 61, 80
3, 222144, Note_on_c, 1, 58, 80
3, 222236, Note_off_c, 1, 61, 100
3, 222236, Note_off_c, 1, 58, 100
3, 222240, Note_on_c, 1, 64, 80
3, 222332, Note_off_c, 1, 64, 100
3, 222336, Note_on_c, 1, 61, 80
3, 222336, Note_on_c, 1, 58, 80
3, 222428, Note_off_c, 1, 61, 100
3, 222428, Note_off_c, 1, 58, 100
3, 222432, Note_on_c, 1, 64, 80
3, 222524, Note_off_c, 1, 64, 100
3, 222528, Note_on_c, 1, 61, 80
3, 222528, Note_on_c, 1, 58, 80
3, 222620, Note_off_c, 1, 61, 100
3, 222620, Note_off_c, 1, 58, 100
3, 222624, Note_on_c, 1, 64, 80
3, 222716, Note_off_c, 1, 64, 100
3, 222720, Note_on_c, 1, 60, 80
3, 222720, Note_on_c, 1, 57, 80
3, 222812, Note_off_c, 1, 60, 100
3, 222812, Note_off_c, 1, 57, 100
3, 222816, Note_on_c, 1, 64, 80
3, 222908, Note_off_c, 1, 64, 100
3, 222912, Note_on_c, 1, 60, 80
3, 222912, Note_on_c, 1, 57, 80
3, 223004, Note_off_c, 1, 60, 100
3, 223004, Note_off_c, 1, 57, 100
3, 223008, Note_on_c, 1, 65, 80
3, 223100, Note_off_c, 1, 65, 100
3, 223104, Note_on_c, 1, 60, 80
3, 223104, Note_on_c, 1, 57, 80
3, 223196, Note_off_c, 1, 60, 100
3, 223196, Note_off_c, 1, 57, 100
3, 223200, Note_on_c, 1, 65, 80
3, 223292, Note_off_c, 1, 65, 100
3, 223296, Note_on_c, 1, 60, 80
3, 223296, Note_on_c, 1, 57, 80
3, 223388, Note_off_c, 1, 60, 100
3, 223388, Note_off_c, 1, 57, 100
3, 223392, Note_on_c, 1, 65, 80
3, 223484, Note_off_c, 1, 65, 100
3, 223488, Note_on_c, 1, 60, 80
3, 223488, Note_on_c, 1, 57, 80
3, 223580, Note_off_c, 1, 60, 100
3, 223580, Note_off_c, 1, 57, 100
3, 223584, Note_on_c, 1, 65, 80
3, 223676, Note_off_c, 1, 65, 100
3, 223680, Note_on_c, 1, 60, 80
3, 223680, Note_on_c, 1, 57, 80
3, 223772, Note_off_c, 1, 60, 100
3, 223772, Note_off_c, 1, 57, 100
3, 223776, Note_on_c, 1, 65, 80
3, 223868, Note_off_c, 1, 65, 100
3, 223872, Note_on_c, 1, 60, 80
3, 223872, Note_on_c, 1, 57, 80
3, 223964, Note_off_c, 1, 60, 100
3, 223964, Note_off_c, 1, 57, 100
3, 223968, Note_on_c, 1, 65, 80
3, 224060, Note_off_c, 1, 65, 100
3, 224064, Note_on_c, 1, 60, 80
3, 224064, Note_on_c, 1, 57, 80
3, 224156, Note_off_c, 1, 60, 100
3, 224156, Note_off_c, 1, 57, 100
3, 224160, Note_on_c, 1, 65, 80
3, 224252, Note_off_c, 1, 65, 100
3, 224256, Note_on_c, 1, 58, 80
3, 224256, Note_on_c, 1, 61, 80
3, 224348, Note_off_c, 1, 58, 100
3, 224348, Note_off_c, 1, 61, 100
3, 224352, Note_on_c, 1, 65, 80
3, 224444, Note_off_c, 1, 65, 100
3, 224448, Note_on_c, 1, 58, 110
3, 224448, Note_on_c, 1, 61, 110
3, 224540, Note_off_c, 1, 58, 100
3, 224540, Note_off_c, 1, 61, 100
3, 224544, Note_on_c, 1, 65, 110
3, 224636, Note_off_c, 1, 65, 100
3, 224640, Note_on_c, 1, 61, 110
3, 224640, Note_on_c, 1, 58, 110
3, 224732, Note_off_c, 1, 61, 100
3, 224732, Note_off_c, 1, 58, 100
3, 224736, Note_on_c, 1, 65, 110
3, 224828, Note_off_c, 1, 65, 100
3, 224832, Note_on_c, 1, 61, 110
3, 224832, Note_on_c, 1, 58, 110
3, 224924, Note_off_c, 1, 61, 100
3, 224924, Note_off_c, 1, 58, 100
3, 224928, Note_on_c, 1, 65, 110
3, 225020, Note_off_c, 1, 65, 100
3, 225024, Note_on_c, 1, 61, 110
3, 225024, Note_on_c, 1, 58, 110
3, 225116, Note_off_c, 1, 61, 100
3, 225116, Note_off_c, 1, 58, 100
3, 225120, Note_on_c, 1, 65, 110
3, 225212, Note_off_c, 1, 65, 100
3, 225216, Note_on_c, 1, 61, 110
3, 225216, Note_on_c, 1, 58, 110
3, 225308, Note_off_c, 1, 61, 100
3, 225308, Note_off_c, 1, 58, 100
3, 225312, Note_on_c, 1, 64, 110
3, 225404, Note_off_c, 1, 64, 100
3, 225408, Note_on_c, 1, 61, 110
3, 225408, Note_on_c, 1, 58, 110
3, 225500, Note_off_c, 1, 61, 100
3, 225500, Note_off_c, 1, 58, 100
3, 225504, Note_on_c, 1, 64, 110
3, 225596, Note_off_c, 1, 64, 100
3, 225600, Note_on_c, 1, 61, 110
3, 225600, Note_on_c, 1, 58, 110
3, 225692, Note_off_c, 1, 61, 100
3, 225692, Note_off_c, 1, 58, 100
3, 225696, Note_on_c, 1, 64, 110
3, 225788, Note_off_c, 1, 64, 100
3, 225792, Note_on_c, 1, 60, 110
3, 225792, Note_on_c, 1, 57, 110
3, 225884, Note_off_c, 1, 60, 100
3, 225884, Note_off_c, 1, 57, 100
3, 225888, Note_on_c, 1, 64, 110
3, 225980, Note_off_c, 1, 64, 100
3, 225984, Note_on_c, 1, 60, 110
3, 225984, Note_on_c, 1, 57, 110
3, 226076, Note_off_c, 1, 60, 100
3, 226076, Note_off_c, 1, 57, 100
3, 226080, Note_on_c, 1, 65, 110
3, 226172, Note_off_c, 1, 65, 100
3, 226176, Note_on_c, 1, 60, 110
3, 226176, Note_on_c, 1, 57, 110
3, 226268, Note_off_c, 1, 60, 100
3, 226268, Note_off_c, 1, 57, 100
3, 226272, Note_on_c, 1, 65, 110
3, 226364, Note_off_c, 1, 65, 100
3, 226368, Note_on_c, 1, 60, 110
3, 226368, Note_on_c, 1, 57, 110
3, 226460, Note_off_c, 1, 60, 100
3, 226460, Note_off_c, 1, 57, 100
3, 226464, Note_on_c, 1, 65, 110
3, 226556, Note_off_c, 1, 65, 100
3, 226560, Note_on_c, 1, 60, 110
3, 226560, Note_on_c, 1, 57, 110
3, 226652, Note_off_c, 1, 60, 100
3, 226652, Note_off_c, 1, 57, 100
3, 226656, Note_on_c, 1, 65, 110
3, 226748, Note_off_c, 1, 65, 100
3, 226752, Note_on_c, 1, 60, 110
3, 226752, Note_on_c, 1, 57, 110
3, 226844, Note_off_c, 1, 60, 100
3, 226844, Note_off_c, 1, 57, 100
3, 226848, Note_on_c, 1, 65, 110
3, 226940, Note_off_c, 1, 65, 100
3, 226944, Note_on_c, 1, 60, 110
3, 226944, Note_on_c, 1, 57, 110
3, 227036, Note_off_c, 1, 60, 100
3, 227036, Note_off_c, 1, 57, 100
3, 227040, Note_on_c, 1, 65, 110
3, 227132, Note_off_c, 1, 65, 100
3, 227136, Note_on_c, 1, 60, 110
3, 227136, Note_on_c, 1, 57, 110
3, 227228, Note_off_c, 1, 60, 100
3, 227228, Note_off_c, 1, 57, 100
3, 227232, Note_on_c, 1, 65, 110
3, 227324, Note_off_c, 1, 65, 100
3, 227328, Note_on_c, 1, 61, 110
3, 227328, Note_on_c, 1, 58, 110
3, 227420, Note_off_c, 1, 61, 100
3, 227420, Note_off_c, 1, 58, 100
3, 227424, Note_on_c, 1, 65, 110
3, 227516, Note_off_c, 1, 65, 100
3, 227520, Note_on_c, 1, 55, 80
3, 227520, Note_on_c, 1, 52, 80
3, 227612, Note_off_c, 1, 55, 100
3, 227612, Note_off_c, 1, 52, 100
3, 227616, Note_on_c, 1, 60, 80
3, 227708, Note_off_c, 1, 60, 100
3, 227712, Note_on_c, 1, 55, 80
3, 227712, Note_on_c, 1, 52, 80
3, 227804, Note_off_c, 1, 55, 100
3, 227804, Note_off_c, 1, 52, 100
3, 227808, Note_on_c, 1, 60, 80
3, 227900, Note_off_c, 1, 60, 100
3, 227904, Note_on_c, 1, 55, 80
3, 227904, Note_on_c, 1, 52, 80
3, 227996, Note_off_c, 1, 55, 100
3, 227996, Note_off_c, 1, 52, 100
3, 228000, Note_on_c, 1, 60, 80
3, 228092, Note_off_c, 1, 60, 100
3, 228096, Note_on_c, 1, 56, 80
3, 228096, Note_on_c, 1, 53, 80
3, 228188, Note_off_c, 1, 56, 100
3, 228188, Note_off_c, 1, 53, 100
3, 228192, Note_on_c, 1, 60, 80
3, 228284, Note_off_c, 1, 60, 100
3, 228288, Note_on_c, 1, 56, 80
3, 228288, Note_on_c, 1, 53, 80
3, 228380, Note_off_c, 1, 56, 100
3, 228380, Note_off_c, 1, 53, 100
3, 228384, Note_on_c, 1, 62, 80
3, 228476, Note_off_c, 1, 62, 100
3, 228480, Note_on_c, 1, 56, 80
3, 228480, Note_on_c, 1, 53, 80
3, 228572, Note_off_c, 1, 56, 100
3, 228572, Note_off_c, 1, 53, 100
3, 228576, Note_on_c, 1, 62, 80
3, 228668, Note_off_c, 1, 62, 100
3, 228672, Note_on_c, 1, 56, 80
3, 228672, Note_on_c, 1, 53, 80
3, 228764, Note_off_c, 1, 56, 100
3, 228764, Note_off_c, 1, 53, 100
3, 228768, Note_on_c, 1, 62, 80
3, 228860, Note_off_c, 1, 62, 100
3, 228864, Note_on_c, 1, 55, 80
3, 228864, Note_on_c, 1, 52, 80
3, 228956, Note_off_c, 1, 55, 100
3, 228956, Note_off_c, 1, 52, 100
3, 228960, Note_on_c, 1, 62, 80
3, 229052, Note_off_c, 1, 62, 100
3, 229056, Note_on_c, 1, 52, 80
3, 229056, Note_on_c, 1, 55, 80
3, 229148, Note_off_c, 1, 52, 100
3, 229148, Note_off_c, 1, 55, 100
3, 229152, Note_on_c, 1, 60, 80
3, 229244, Note_off_c, 1, 60, 100
3, 229248, Note_on_c, 1, 52, 80
3, 229248, Note_on_c, 1, 55, 80
3, 229340, Note_off_c, 1, 52, 100
3, 229340, Note_off_c, 1, 55, 100
3, 229344, Note_on_c, 1, 60, 80
3, 229436, Note_off_c, 1, 60, 100
3, 229440, Note_on_c, 1, 52, 80
3, 229440, Note_on_c, 1, 55, 80
3, 229532, Note_off_c, 1, 52, 100
3, 229532, Note_off_c, 1, 55, 100
3, 229536, Note_on_c, 1, 60, 80
3, 229628, Note_off_c, 1, 60, 100
3, 229632, Note_on_c, 1, 52, 80
3, 229632, Note_on_c, 1, 55, 80
3, 229724, Note_off_c, 1, 52, 100
3, 229724, Note_off_c, 1, 55, 100
3, 229728, Note_on_c, 1, 60, 80
3, 229820, Note_off_c, 1, 60, 100
3, 229824, Note_on_c, 1, 52, 80
3, 229824, Note_on_c, 1, 55, 80
3, 229916, Note_off_c, 1, 52, 100
3, 229916, Note_off_c, 1, 55, 100
3, 229920, Note_on_c, 1, 60, 80
3, 230012, Note_off_c, 1, 60, 100
3, 230016, Note_on_c, 1, 52, 80
3, 230016, Note_on_c, 1, 55, 80
3, 230108, Note_off_c, 1, 52, 100
3, 230108, Note_off_c, 1, 55, 100
3, 230112, Note_on_c, 1, 60, 80
3, 230204, Note_off_c, 1, 60, 100
3, 230208, Note_on_c, 1, 52, 80
3, 230208, Note_on_c, 1, 55, 80
3, 230300, Note_off_c, 1, 52, 100
3, 230300, Note_off_c, 1, 55, 100
3, 230304, Note_on_c, 1, 60, 80
3, 230396, Note_off_c, 1, 60, 100
3, 230400, Note_on_c, 1, 56, 80
3, 230400, Note_on_c, 1, 53, 80
3, 230492, Note_off_c, 1, 56, 100
3, 230492, Note_off_c, 1, 53, 100
3, 230496, Note_on_c, 1, 60, 80
3, 230588, Note_off_c, 1, 60, 100
3, 230592, Note_on_c, 1, 56, 110
3, 230592, Note_on_c, 1, 53, 110
3, 230684, Note_off_c, 1, 56, 100
3, 230684, Note_off_c, 1, 53, 100
3, 230688, Note_on_c, 1, 60, 110
3, 230780, Note_off_c, 1, 60, 100
3, 230784, Note_on_c, 1, 56, 110
3, 230784, Note_on_c, 1, 53, 110
3, 230876, Note_off_c, 1, 56, 100
3, 230876, Note_off_c, 1, 53, 100
3, 230880, Note_on_c, 1, 60, 110
3, 230972, Note_off_c, 1, 60, 100
3, 230976, Note_on_c, 1, 56, 110
3, 230976, Note_on_c, 1, 53, 110
3, 231068, Note_off_c, 1, 56, 100
3, 231068, Note_off_c, 1, 53, 100
3, 231072, Note_on_c, 1, 60, 110
3, 231164, Note_off_c, 1, 60, 100
3, 231168, Note_on_c, 1, 56, 110
3, 231168, Note_on_c, 1, 53, 110
3, 231260, Note_off_c, 1, 56, 100
3, 231260, Note_off_c, 1, 53, 100
3, 231264, Note_on_c, 1, 60, 110
3, 231356, Note_off_c, 1, 60, 100
3, 231360, Note_on_c, 1, 56, 110
3, 231360, Note_on_c, 1, 53, 110
3, 231452, Note_off_c, 1, 56, 100
3, 231452, Note_off_c, 1, 53, 100
3, 231456, Note_on_c, 1, 62, 110
3, 231548, Note_off_c, 1, 62, 100
3, 231552, Note_on_c, 1, 56, 110
3, 231552, Note_on_c, 1, 53, 110
3, 231644, Note_off_c, 1, 56, 100
3, 231644, Note_off_c, 1, 53, 100
3, 231648, Note_on_c, 1, 62, 110
3, 231740, Note_off_c, 1, 62, 100
3, 231744, Note_on_c, 1, 56, 110
3, 231744, Note_on_c, 1, 53, 110
3, 231836, Note_off_c, 1, 56, 100
3, 231836, Note_off_c, 1, 53, 100
3, 231840, Note_on_c, 1, 62, 110
3, 231932, Note_off_c, 1, 62, 100
3, 231936, Note_on_c, 1, 55, 110
3, 231936, Note_on_c, 1, 52, 110
3, 232028, Note_off_c, 1, 55, 100
3, 232028, Note_off_c, 1, 52, 100
3, 232032, Note_on_c, 1, 62, 110
3, 232124, Note_off_c, 1, 62, 100
3, 232128, Note_on_c, 1, 52, 110
3, 232128, Note_on_c, 1, 55, 110
3, 232220, Note_off_c, 1, 52, 100
3, 232220, Note_off_c, 1, 55, 100
3, 232224, Note_on_c, 1, 60, 110
3, 232316, Note_off_c, 1, 60, 100
3, 232320, Note_on_c, 1, 52, 110
3, 232320, Note_on_c, 1, 55, 110
3, 232412, Note_off_c, 1, 52, 100
3, 232412, Note_off_c, 1, 55, 100
3, 232416, Note_on_c, 1, 60, 110
3, 232508, Note_off_c, 1, 60, 100
3, 232512, Note_on_c, 1, 52, 110
3, 232512, Note_on_c, 1, 55, 110
3, 232604, Note_off_c, 1, 52, 100
3, 232604, Note_off_c, 1, 55, 100
3, 232608, Note_on_c, 1, 60, 110
3, 232700, Note_off_c, 1, 60, 100
3, 232704, Note_on_c, 1, 52, 110
3, 232704, Note_on_c, 1, 55, 110
3, 232796, Note_off_c, 1, 52, 100
3, 232796, Note_off_c, 1, 55, 100
3, 232800, Note_on_c, 1, 60, 110
3, 232892, Note_off_c, 1, 60, 100
3, 232896, Note_on_c, 1, 52, 110
3, 232896, Note_on_c, 1, 55, 110
3, 232988, Note_off_c, 1, 52, 100
3, 232988, Note_off_c, 1, 55, 100
3, 232992, Note_on_c, 1, 60, 110
3, 233084, Note_off_c, 1, 60, 100
3, 233088, Note_on_c, 1, 52, 110
3, 233088, Note_on_c, 1, 55, 110
3, 233180, Note_off_c, 1, 52, 100
3, 233180, Note_off_c, 1, 55, 100
3, 233184, Note_on_c, 1, 60, 110
3, 233276, Note_off_c, 1, 60, 100
3, 233280, Note_on_c, 1, 52, 110
3, 233280, Note_on_c, 1, 55, 110
3, 233372, Note_off_c, 1, 52, 100
3, 233372, Note_off_c, 1, 55, 100
3, 233376, Note_on_c, 1, 60, 110
3, 233468, Note_off_c, 1, 60, 100
3, 233472, Note_on_c, 1, 53, 110
3, 233472, Note_on_c, 1, 48, 110
3, 233472, Note_on_c, 1, 44, 110
3, 233472, Note_on_c, 1, 41, 110
3, 233852, Note_off_c, 1, 53, 100
3, 233852, Note_off_c, 1, 48, 100
3, 233852, Note_off_c, 1, 44, 100
3, 233852, Note_off_c, 1, 41, 100
3, 233952, Note_on_c, 1, 48, 110
3, 234044, Note_off_c, 1, 48, 100
3, 234048, Note_on_c, 1, 53, 110
3, 234140, Note_off_c, 1, 53, 100
3, 234144, Note_on_c, 1, 56, 110
3, 234236, Note_off_c, 1, 56, 100
3, 234240, Note_on_c, 1, 60, 110
3, 234332, Note_off_c, 1, 60, 100
3, 234336, Note_on_c, 1, 61, 110
3, 234428, Note_off_c, 1, 61, 100
3, 234432, Note_on_c, 1, 60, 110
3, 234524, Note_off_c, 1, 60, 100
3, 234528, Note_on_c, 1, 58, 110
3, 234620, Note_off_c, 1, 58, 100
3, 234624, Note_on_c, 1, 56, 110
3, 234716, Note_off_c, 1, 56, 100
3, 234720, Note_on_c, 1, 58, 110
3, 234812, Note_off_c, 1, 58, 100
3, 234816, Note_on_c, 1, 60, 110
3, 234908, Note_off_c, 1, 60, 100
3, 234912, Note_on_c, 1, 56, 110
3, 235004, Note_off_c, 1, 56, 100
3, 235008, Note_on_c, 1, 58, 110
3, 235100, Note_off_c, 1, 58, 100
3, 235104, Note_on_c, 1, 60, 110
3, 235196, Note_off_c, 1, 60, 100
3, 235200, Note_on_c, 1, 58, 110
3, 235292, Note_off_c, 1, 58, 100
3, 235296, Note_on_c, 1, 56, 110
3, 235388, Note_off_c, 1, 56, 100
3, 235392, Note_on_c, 1, 54, 110
3, 235484, Note_off_c, 1, 54, 100
3, 235488, Note_on_c, 1, 49, 110
3, 235580, Note_off_c, 1, 49, 100
3, 235584, Note_on_c, 1, 54, 110
3, 235676, Note_off_c, 1, 54, 100
3, 235680, Note_on_c, 1, 58, 110
3, 235772, Note_off_c, 1, 58, 100
3, 235776, Note_on_c, 1, 61, 110
3, 235868, Note_off_c, 1, 61, 100
3, 235872, Note_on_c, 1, 63, 110
3, 235964, Note_off_c, 1, 63, 100
3, 235968, Note_on_c, 1, 61, 110
3, 236060, Note_off_c, 1, 61, 100
3, 236064, Note_on_c, 1, 60, 110
3, 236156, Note_off_c, 1, 60, 100
3, 236160, Note_on_c, 1, 58, 110
3, 236252, Note_off_c, 1, 58, 100
3, 236256, Note_on_c, 1, 60, 110
3, 236348, Note_off_c, 1, 60, 100
3, 236352, Note_on_c, 1, 61, 110
3, 236444, Note_off_c, 1, 61, 100
3, 236448, Note_on_c, 1, 58, 110
3, 236540, Note_off_c, 1, 58, 100
3, 236544, Note_on_c, 1, 60, 110
3, 236636, Note_off_c, 1, 60, 100
3, 236640, Note_on_c, 1, 61, 110
3, 236732, Note_off_c, 1, 61, 100
3, 236736, Note_on_c, 1, 60, 110
3, 236828, Note_off_c, 1, 60, 100
3, 236832, Note_on_c, 1, 58, 110
3, 236924, Note_off_c, 1, 58, 100
3, 236928, Note_on_c, 1, 57, 110
3, 237020, Note_off_c, 1, 57, 100
3, 237024, Note_on_c, 1, 51, 110
3, 237116, Note_off_c, 1, 51, 100
3, 237120, Note_on_c, 1, 57, 110
3, 237212, Note_off_c, 1, 57, 100
3, 237216, Note_on_c, 1, 60, 110
3, 237308, Note_off_c, 1, 60, 100
3, 237312, Note_on_c, 1, 63, 110
3, 237404, Note_off_c, 1, 63, 100
3, 237408, Note_on_c, 1, 65, 110
3, 237500, Note_off_c, 1, 65, 100
3, 237504, Note_on_c, 1, 63, 110
3, 237596, Note_off_c, 1, 63, 100
3, 237600, Note_on_c, 1, 61, 110
3, 237692, Note_off_c, 1, 61, 100
3, 237696, Note_on_c, 1, 60, 110
3, 237788, Note_off_c, 1, 60, 100
3, 237792, Note_on_c, 1, 61, 110
3, 237884, Note_off_c, 1, 61, 100
3, 237888, Note_on_c, 1, 63, 110
3, 237980, Note_off_c, 1, 63, 100
3, 237984, Note_on_c, 1, 60, 110
3, 238076, Note_off_c, 1, 60, 100
3, 238080, Note_on_c, 1, 61, 120
3, 238172, Note_off_c, 1, 61, 100
3, 238176, Note_on_c, 1, 53, 120
3, 238268, Note_off_c, 1, 53, 100
3, 238272, Note_on_c, 1, 58, 120
3, 238364, Note_off_c, 1, 58, 100
3, 238368, Note_on_c, 1, 61, 120
3, 238460, Note_off_c, 1, 61, 100
3, 238464, Note_on_c, 1, 65, 120
3, 238556, Note_off_c, 1, 65, 100
3, 238560, Note_on_c, 1, 66, 120
3, 238652, Note_off_c, 1, 66, 100
3, 238656, Note_on_c, 1, 65, 120
3, 238748, Note_off_c, 1, 65, 100
3, 238752, Note_on_c, 1, 63, 120
3, 238844, Note_off_c, 1, 63, 100
3, 238848, Note_on_c, 1, 61, 120
3, 238940, Note_off_c, 1, 61, 100
3, 238944, Note_on_c, 1, 60, 120
3, 239036, Note_off_c, 1, 60, 100
3, 239040, Note_on_c, 1, 58, 120
3, 239132, Note_off_c, 1, 58, 100
3, 239136, Note_on_c, 1, 56, 120
3, 239228, Note_off_c, 1, 56, 100
3, 239232, Note_on_c, 1, 54, 120
3, 239324, Note_off_c, 1, 54, 100
3, 239328, Note_on_c, 1, 53, 120
3, 239420, Note_off_c, 1, 53, 100
3, 239424, Note_on_c, 1, 51, 120
3, 239516, Note_off_c, 1, 51, 100
3, 239520, Note_on_c, 1, 49, 120
3, 239612, Note_off_c, 1, 49, 100
3, 239616, Note_on_c, 1, 48, 120
3, 239708, Note_off_c, 1, 48, 100
3, 239712, Note_on_c, 1, 46, 120
3, 239804, Note_off_c, 1, 46, 100
3, 239808, Note_on_c, 1, 44, 120
3, 239900, Note_off_c, 1, 44, 100
3, 239904, Note_on_c, 1, 42, 120
3, 239996, Note_off_c, 1, 42, 100
3, 240000, Note_on_c, 1, 41, 120
3, 240092, Note_off_c, 1, 41, 100
3, 240096, Note_on_c, 1, 39, 120
3, 240188, Note_off_c, 1, 39, 100
3, 240192, Note_on_c, 1, 37, 120
3, 240284, Note_off_c, 1, 37, 100
3, 240288, Note_on_c, 1, 36, 120
3, 240380, Note_off_c, 1, 36, 100
3, 240384, Note_on_c, 1, 34, 120
3, 240476, Note_off_c, 1, 34, 100
3, 240480, Note_on_c, 1, 36, 120
3, 240572, Note_off_c, 1, 36, 100
3, 240576, Note_on_c, 1, 37, 120
3, 240668, Note_off_c, 1, 37, 100
3, 240672, Note_on_c, 1, 36, 120
3, 240764, Note_off_c, 1, 36, 100
3, 240768, Note_on_c, 1, 34, 120
3, 240956, Note_off_c, 1, 34, 100
3, 240960, Note_on_c, 1, 35, 120
3, 241148, Note_off_c, 1, 35, 100
3, 241152, Note_on_c, 1, 36, 110
3, 241340, Note_off_c, 1, 36, 100
3, 241344, Note_on_c, 1, 40, 110
3, 241532, Note_off_c, 1, 40, 100
3, 241536, Note_on_c, 1, 36, 110
3, 241724, Note_off_c, 1, 36, 100
3, 241728, Note_on_c, 1, 41, 110
3, 241916, Note_off_c, 1, 41, 100
3, 241920, Note_on_c, 1, 36, 111
3, 242108, Note_off_c, 1, 36, 100
3, 242112, Note_on_c, 1, 43, 111
3, 242300, Note_off_c, 1, 43, 100
3, 242304, Note_on_c, 1, 36, 111
3, 242492, Note_off_c, 1, 36, 100
3, 242496, Note_on_c, 1, 44, 112
3, 242684, Note_off_c, 1, 44, 100
3, 242688, Note_on_c, 1, 36, 112
3, 242876, Note_off_c, 1, 36, 100
3, 242880, Note_on_c, 1, 46, 112
3, 243068, Note_off_c, 1, 46, 100
3, 243072, Note_on_c, 1, 36, 113
3, 243260, Note_off_c, 1, 36, 100
3, 243264, Note_on_c, 1, 44, 113
3, 243452, Note_off_c, 1, 44, 100
3, 243456, Note_on_c, 1, 36, 113
3, 243644, Note_off_c, 1, 36, 100
3, 243648, Note_on_c, 1, 43, 114
3, 243836, Note_off_c, 1, 43, 100
3, 243840, Note_on_c, 1, 36, 114
3, 244028, Note_off_c, 1, 36, 100
3, 244032, Note_on_c, 1, 41, 114
3, 244220, Note_off_c, 1, 41, 100
3, 244224, Note_on_c, 1, 36, 115
3, 244412, Note_off_c, 1, 36, 100
3, 244416, Note_on_c, 1, 40, 115
3, 244604, Note_off_c, 1, 40, 100
3, 244608, Note_on_c, 1, 36, 115
3, 244796, Note_off_c, 1, 36, 100
3, 244800, Note_on_c, 1, 41, 116
3, 244988, Note_off_c, 1, 41, 100
3, 244992, Note_on_c, 1, 36, 116
3, 245180, Note_off_c, 1, 36, 100
3, 245184, Note_on_c, 1, 43, 116
3, 245372, Note_off_c, 1, 43, 100
3, 245376, Note_on_c, 1, 36, 116
3, 245564, Note_off_c, 1, 36, 100
3, 245568, Note_on_c, 1, 44, 117
3, 245756, Note_off_c, 1, 44, 100
3, 245760, Note_on_c, 1, 36, 117
3, 245948, Note_off_c, 1, 36, 100
3, 245952, Note_on_c, 1, 45, 117
3, 246140, Note_off_c, 1, 45, 100
3, 246144, Note_on_c, 1, 36, 118
3, 246332, Note_off_c, 1, 36, 100
3, 246336, Note_on_c, 1, 46, 118
3, 246524, Note_off_c, 1, 46, 100
3, 246528, Note_on_c, 1, 36, 118
3, 246716, Note_off_c, 1, 36, 100
3, 246720, Note_on_c, 1, 47, 119
3, 246908, Note_off_c, 1, 47, 100
3, 246912, Note_on_c, 1, 36, 119
3, 247100, Note_off_c, 1, 36, 100
3, 247104, Note_on_c, 1, 48, 119
3, 247292, Note_off_c, 1, 48, 100
3, 247296, Control_c, 1, 64, 127
3, 247296, Note_on_c, 1, 46, 120
3, 247296, Note_on_c, 1, 42, 120
3, 247296, Note_on_c, 1, 37, 120
3, 247296, Note_on_c, 1, 34, 120
3, 247484, Note_off_c, 1, 42, 100
3, 247484, Note_off_c, 1, 37, 100
3, 247484, Note_off_c, 1, 34, 100
3, 247580, Note_off_c, 1, 46, 100
3, 247776, Note_on_c, 1, 46, 120
3, 247872, Note_on_c, 1, 49, 120
3, 247968, Note_on_c, 1, 54, 120
3, 248064, Note_on_c, 1, 58, 120
3, 248252, Note_off_c, 1, 46, 100
3, 248348, Note_off_c, 1, 49, 100
3, 248444, Note_off_c, 1, 54, 100
3, 248540, Note_off_c, 1, 58, 100
3, 248544, Note_on_c, 1, 58, 120
3, 248640, Note_on_c, 1, 61, 120
3, 248736, Note_on_c, 1, 66, 120
3, 248832, Note_on_c, 1, 70, 120
3, 249020, Note_off_c, 1, 58, 100
3, 249116, Note_off_c, 1, 61, 100
3, 249212, Note_off_c, 1, 66, 100
3, 249592, Control_c, 1, 64, 0
3, 249596, Note_off_c, 1, 70, 100
3, 250368, Control_c, 1, 64, 127
3, 250368, Note_on_c, 1, 48, 120
3, 250368, Note_on_c, 1, 46, 120
3, 250368, Note_on_c, 1, 43, 120
3, 250368, Note_on_c, 1, 36, 120
3, 250556, Note_off_c, 1, 46, 100
3, 250556, Note_off_c, 1, 43, 100
3, 250556, Note_off_c, 1, 36, 100
3, 250652, Note_off_c, 1, 48, 100
3, 250848, Note_on_c, 1, 48, 120
3, 250944, Note_on_c, 1, 55, 120
3, 251040, Note_on_c, 1, 58, 120
3, 251136, Note_on_c, 1, 60, 120
3, 251324, Note_off_c, 1, 48, 100
3, 251420, Note_off_c, 1, 55, 100
3, 251516, Note_off_c, 1, 58, 100
3, 251612, Note_off_c, 1, 60, 100
3, 251616, Note_on_c, 1, 60, 120
3, 251712, Note_on_c, 1, 67, 120
3, 251808, Note_on_c, 1, 70, 120
3, 251904, Note_on_c, 1, 72, 120
3, 252092, Note_off_c, 1, 60, 100
3, 252188, Note_off_c, 1, 67, 100
3, 252284, Note_off_c, 1, 70, 100
3, 252664, Control_c, 1, 64, 0
3, 252668, Note_off_c, 1, 72, 100
3, 253440, Control_c, 1, 64, 127
3, 253440, Note_on_c, 1, 37, 80
3, 253568, Note_on_c, 1, 49, 80
3, 253696, Note_on_c, 1, 52, 80
3, 254968, Control_c, 1, 64, 0
3, 254972, Note_off_c, 1, 37, 100
3, 254972, Note_off_c, 1, 49, 100
3, 254972, Note_off_c, 1, 52, 100
3, 254976, Control_c, 1, 64, 127
3, 254976, Note_on_c, 1, 40, 80
3, 255104, Note_on_c, 1, 52, 80
3, 255232, Note_on_c, 1, 55, 80
3, 255484, Note_off_c, 1, 40, 100
3, 255612, Note_off_c, 1, 52, 100
3, 255740, Note_off_c, 1, 55, 100
3, 256504, Control_c, 1, 64, 0
3, 256512, Control_c, 1, 64, 127
3, 256512, Note_on_c, 1, 43, 80
3, 256640, Note_on_c, 1, 55, 80
3, 256768, Note_on_c, 1, 58, 80
3, 257020, Note_off_c, 1, 43, 100
3, 257148, Note_off_c, 1, 55, 100
3, 257276, Note_off_c, 1, 58, 100
3, 258040, Control_c, 1, 64, 0
3, 258048, Control_c, 1, 64, 127
3, 258048, Note_on_c, 1, 46, 80
3, 258176, Note_on_c, 1, 58, 80
3, 258304, Note_on_c, 1, 61, 80
3, 258556, Note_off_c, 1, 46, 100
3, 258684, Note_off_c, 1, 58, 100
3, 259576, Control_c, 1, 64, 0
3, 259580, Note_off_c, 1, 61, 100
3, 259584, Note_on_c, 1, 49, 80
3, 259776, Note_on_c, 1, 52, 80
3, 259968, Note_on_c, 1, 55, 80
3, 260156, Note_off_c, 1, 49, 100
3, 260160, Note_on_c, 1, 58, 80
3, 260348, Note_off_c, 1, 52, 100
3, 260352, Note_on_c, 1, 61, 80
3, 260540, Note_off_c, 1, 55, 100
3, 260732, Note_off_c, 1, 58, 100
3, 260924, Note_off_c, 1, 61, 100
3, 266496, Note_on_c, 1, 40, 80
3, 267264, Note_on_c, 1, 37, 80
3, 268028, Note_off_c, 1, 40, 100
3, 268032, Note_on_c, 1, 34, 80
3, 268796, Note_off_c, 1, 37, 100
3, 268800, Note_on_c, 1, 31, 80
3, 269564, Note_off_c, 1, 34, 100
3, 270332, Note_off_c, 1, 31, 100
3, 270336, Control_c, 1, 64, 127
3, 270336, Note_on_c, 1, 36, 80
3, 274556, Note_off_c, 1, 36, 100
3, 274560, Note_on_c, 1, 36, 80
3, 274848, Note_on_c, 1, 36, 80
3, 274936, Control_c, 1, 64, 0
3, 274940, Note_off_c, 1, 36, 100
3, 274940, Note_off_c, 1, 36, 100
3, 274944, Note_on_c, 1, 41, 80
3, 274944, Note_on_c, 1, 32, 80
3, 275324, Note_off_c, 1, 41, 100
3, 275324, Note_off_c, 1, 32, 100
3, 276480, Note_on_c, 1, 41, 80
3, 276480, Note_on_c, 1, 29, 80
3, 276860, Note_off_c, 1, 41, 100
3, 276860, Note_off_c, 1, 29, 100
3, 277152, Note_on_c, 1, 72, 80
3, 277152, Note_on_c, 1, 68, 80
3, 277244, Note_off_c, 1, 72, 100
3, 277244, Note_off_c, 1, 68, 100
3, 277248, Note_on_c, 1, 72, 100
3, 277248, Note_on_c, 1, 68, 100
3, 277628, Note_off_c, 1, 72, 100
3, 277628, Note_off_c, 1, 68, 100
3, 277632, Note_on_c, 1, 68, 80
3, 277632, Note_on_c, 1, 65, 80
3, 277820, Note_off_c, 1, 68, 100
3, 277820, Note_off_c, 1, 65, 100
3, 278016, Note_on_c, 1, 46, 80
3, 278016, Note_on_c, 1, 34, 80
3, 278396, Note_off_c, 1, 46, 100
3, 278396, Note_off_c, 1, 34, 100
3, 278688, Note_on_c, 1, 73, 80
3, 278688, Note_on_c, 1, 70, 80
3, 278780, Note_off_c, 1, 73, 100
3, 278780, Note_off_c, 1, 70, 100
3, 278784, Note_on_c, 1, 73, 100
3, 278784, Note_on_c, 1, 70, 100
3, 279548, Note_off_c, 1, 73, 100
3, 279548, Note_off_c, 1, 70, 100
3, 279552, Note_on_c, 1, 72, 80
3, 279552, Note_on_c, 1, 70, 80
3, 279740, Note_off_c, 1, 72, 100
3, 279740, Note_off_c, 1, 70, 100
3, 279744, Note_on_c, 1, 48, 80
3, 279744, Note_on_c, 1, 36, 80
3, 279932, Note_off_c, 1, 48, 100
3, 279932, Note_off_c, 1, 36, 100
3, 280128, Note_on_c, 1, 49, 80
3, 280128, Note_on_c, 1, 37, 80
3, 280316, Note_off_c, 1, 49, 100
3, 280316, Note_off_c, 1, 37, 100
3, 280512, Note_on_c, 1, 46, 80
3, 280512, Note_on_c, 1, 34, 80
3, 280700, Note_off_c, 1, 46, 100
3, 280700, Note_off_c, 1, 34, 100
3, 280896, Note_on_c, 1, 48, 80
3, 280896, Note_on_c, 1, 36, 80
3, 281084, Note_off_c, 1, 48, 100
3, 281084, Note_off_c, 1, 36, 100
3, 281088, Note_on_c, 1, 41, 80
3, 281088, Note_on_c, 1, 29, 80
3, 281180, Note_off_c, 1, 41, 100
3, 281180, Note_off_c, 1, 29, 100
3, 281184, Note_on_c, 1, 48, 80
3, 281276, Note_off_c, 1, 48, 100
3, 281280, Note_on_c, 1, 53, 81
3, 281372, Note_off_c, 1, 53, 100
3, 281376, Note_on_c, 1, 56, 81
3, 281468, Note_off_c, 1, 56, 100
3, 281472, Note_on_c, 1, 60, 82
3, 281564, Note_off_c, 1, 60, 100
3, 281568, Note_on_c, 1, 61, 83
3, 281660, Note_off_c, 1, 61, 100
3, 281664, Note_on_c, 1, 60, 83
3, 281756, Note_off_c, 1, 60, 100
3, 281760, Note_on_c, 1, 58, 84
3, 281852, Note_off_c, 1, 58, 100
3, 281856, Note_on_c, 1, 56, 85
3, 281948, Note_off_c, 1, 56, 100
3, 281952, Note_on_c, 1, 58, 85
3, 282044, Note_off_c, 1, 58, 100
3, 282048, Note_on_c, 1, 56, 86
3, 282140, Note_off_c, 1, 56, 100
3, 282144, Note_on_c, 1, 55, 87
3, 282236, Note_off_c, 1, 55, 100
3, 282240, Note_on_c, 1, 53, 87
3, 282332, Note_off_c, 1, 53, 100
3, 282336, Note_on_c, 1, 55, 88
3, 282428, Note_off_c, 1, 55, 100
3, 282432, Note_on_c, 1, 56, 88
3, 282524, Note_off_c, 1, 56, 100
3, 282528, Note_on_c, 1, 53, 89
3, 282620, Note_off_c, 1, 53, 100
3, 282624, Note_on_c, 1, 56, 90
3, 282716, Note_off_c, 1, 56, 100
3, 282720, Note_on_c, 1, 48, 90
3, 282812, Note_off_c, 1, 48, 100
3, 282816, Note_on_c, 1, 53, 91
3, 282908, Note_off_c, 1, 53, 100
3, 282912, Note_on_c, 1, 56, 92
3, 283004, Note_off_c, 1, 56, 100
3, 283008, Note_on_c, 1, 60, 92
3, 283100, Note_off_c, 1, 60, 100
3, 283104, Note_on_c, 1, 61, 93
3, 283196, Note_off_c, 1, 61, 100
3, 283200, Note_on_c, 1, 60, 94
3, 283292, Note_off_c, 1, 60, 100
3, 283296, Note_on_c, 1, 58, 94
3, 283388, Note_off_c, 1, 58, 100
3, 283392, Note_on_c, 1, 56, 95
3, 283484, Note_off_c, 1, 56, 100
3, 283488, Note_on_c, 1, 58, 95
3, 283580, Note_off_c, 1, 58, 100
3, 283584, Note_on_c, 1, 56, 96
3, 283676, Note_off_c, 1, 56, 100
3, 283680, Note_on_c, 1, 55, 97
3, 283772, Note_off_c, 1, 55, 100
3, 283776, Note_on_c, 1, 53, 97
3, 283868, Note_off_c, 1, 53, 100
3, 283872, Note_on_c, 1, 55, 98
3, 283964, Note_off_c, 1, 55, 100
3, 283968, Note_on_c, 1, 56, 99
3, 284060, Note_off_c, 1, 56, 100
3, 284064, Note_on_c, 1, 53, 99
3, 284156, Note_off_c, 1, 53, 100
3, 284160, Note_on_c, 1, 58, 100
3, 284252, Note_off_c, 1, 58, 100
3, 284256, Note_on_c, 1, 49, 101
3, 284348, Note_off_c, 1, 49, 100
3, 284352, Note_on_c, 1, 54, 101
3, 284444, Note_off_c, 1, 54, 100
3, 284448, Note_on_c, 1, 58, 102
3, 284540, Note_off_c, 1, 58, 100
3, 284544, Note_on_c, 1, 61, 102
3, 284636, Note_off_c, 1, 61, 100
3, 284640, Note_on_c, 1, 63, 103
3, 284732, Note_off_c, 1, 63, 100
3, 284736, Note_on_c, 1, 61, 104
3, 284828, Note_off_c, 1, 61, 100
3, 284832, Note_on_c, 1, 60, 104
3, 284924, Note_off_c, 1, 60, 100
3, 284928, Note_on_c, 1, 58, 105
3, 285020, Note_off_c, 1, 58, 100
3, 285024, Note_on_c, 1, 60, 106
3, 285116, Note_off_c, 1, 60, 100
3, 285120, Note_on_c, 1, 58, 106
3, 285212, Note_off_c, 1, 58, 100
3, 285216, Note_on_c, 1, 56, 107
3, 285308, Note_off_c, 1, 56, 100
3, 285312, Note_on_c, 1, 54, 108
3, 285404, Note_off_c, 1, 54, 100
3, 285408, Note_on_c, 1, 56, 108
3, 285500, Note_off_c, 1, 56, 100
3, 285504, Note_on_c, 1, 54, 109
3, 285596, Note_off_c, 1, 54, 100
3, 285600, Note_on_c, 1, 53, 109
3, 285692, Note_off_c, 1, 53, 100
3, 285696, Note_on_c, 1, 52, 110
3, 285788, Note_off_c, 1, 52, 100
3, 285792, Note_on_c, 1, 53, 109
3, 285884, Note_off_c, 1, 53, 100
3, 285888, Note_on_c, 1, 55, 108
3, 285980, Note_off_c, 1, 55, 100
3, 285984, Note_on_c, 1, 56, 107
3, 286076, Note_off_c, 1, 56, 100
3, 286080, Note_on_c, 1, 58, 105
3, 286172, Note_off_c, 1, 58, 100
3, 286176, Note_on_c, 1, 56, 104
3, 286268, Note_off_c, 1, 56, 100
3, 286272, Note_on_c, 1, 55, 103
3, 286364, Note_off_c, 1, 55, 100
3, 286368, Note_on_c, 1, 53, 101
3, 286460, Note_off_c, 1, 53, 100
3, 286464, Note_on_c, 1, 52, 100
3, 286556, Note_off_c, 1, 52, 100
3, 286560, Note_on_c, 1, 53, 99
3, 286652, Note_off_c, 1, 53, 100
3, 286656, Note_on_c, 1, 52, 97
3, 286748, Note_off_c, 1, 52, 100
3, 286752, Note_on_c, 1, 49, 96
3, 286844, Note_off_c, 1, 49, 100
3, 286848, Note_on_c, 1, 48, 95
3, 286940, Note_off_c, 1, 48, 100
3, 286944, Note_on_c, 1, 46, 93
3, 287036, Note_off_c, 1, 46, 100
3, 287040, Note_on_c, 1, 44, 92
3, 287132, Note_off_c, 1, 44, 100
3, 287136, Note_on_c, 1, 43, 91
3, 287228, Note_off_c, 1, 43, 100
3, 287232, Note_on_c, 1, 41, 80
3, 287612, Note_off_c, 1, 41, 100
3, 287904, Note_on_c, 1, 56, 89
3, 287904, Note_on_c, 1, 53, 89
3, 287996, Note_off_c, 1, 56, 100
3, 287996, Note_off_c, 1, 53, 100
3, 288000, Note_on_c, 1, 56, 90
3, 288000, Note_on_c, 1, 53, 90
3, 288380, Note_off_c, 1, 56, 100
3, 288380, Note_off_c, 1, 53, 100
3, 288672, Note_on_c, 1, 56, 99
3, 288672, Note_on_c, 1, 53, 99
3, 288764, Note_off_c, 1, 56, 100
3, 288764, Note_off_c, 1, 53, 100
3, 288768, Note_on_c, 1, 56, 100
3, 288768, Note_on_c, 1, 53, 100
3, 288768, Note_on_c, 1, 48, 100
3, 289532, Note_off_c, 1, 56, 100
3, 289532, Note_off_c, 1, 53, 100
3, 289532, Note_off_c, 1, 48, 100
3, 289536, Note_on_c, 1, 55, 100
3, 289536, Note_on_c, 1, 52, 100
3, 289536, Note_on_c, 1, 48, 100
3, 289724, Note_off_c, 1, 55, 100
3, 289724, Note_off_c, 1, 52, 100
3, 289724, Note_off_c, 1, 48, 100
3, 290304, Note_on_c, 1, 48, 80
3, 290304, Note_on_c, 1, 36, 80
3, 290684, Note_off_c, 1, 48, 100
3, 290684, Note_off_c, 1, 36, 100
3, 290976, Note_on_c, 1, 58, 89
3, 290976, Note_on_c, 1, 55, 89
3, 291068, Note_off_c, 1, 58, 100
3, 291068, Note_off_c, 1, 55, 100
3, 291072, Note_on_c, 1, 58, 90
3, 291072, Note_on_c, 1, 55, 90
3, 291452, Note_off_c, 1, 58, 100
3, 291452, Note_off_c, 1, 55, 100
3, 291744, Note_on_c, 1, 58, 99
3, 291744, Note_on_c, 1, 55, 99
3, 291836, Note_off_c, 1, 58, 100
3, 291836, Note_off_c, 1, 55, 100
3, 291840, Note_on_c, 1, 58, 100
3, 291840, Note_on_c, 1, 55, 100
3, 291840, Note_on_c, 1, 53, 100
3, 292604, Note_off_c, 1, 58, 100
3, 292604, Note_off_c, 1, 55, 100
3, 292604, Note_off_c, 1, 53, 100
3, 292608, Note_on_c, 1, 56, 100
3, 292608, Note_on_c, 1, 53, 100
3, 292796, Note_off_c, 1, 56, 100
3, 292796, Note_off_c, 1, 53, 100
3, 293376, Note_on_c, 1, 53, 80
3, 293376, Note_on_c, 1, 41, 80
3, 293756, Note_off_c, 1, 53, 100
3, 293756, Note_off_c, 1, 41, 100
3, 294048, Note_on_c, 1, 63, 87
3, 294048, Note_on_c, 1, 60, 87
3, 294140, Note_off_c, 1, 63, 100
3, 294140, Note_off_c, 1, 60, 100
3, 294144, Note_on_c, 1, 63, 88
3, 294144, Note_on_c, 1, 60, 88
3, 294524, Note_off_c, 1, 63, 100
3, 294524, Note_off_c, 1, 60, 100
3, 294816, Note_on_c, 1, 63, 97
3, 294816, Note_on_c, 1, 60, 97
3, 294908, Note_off_c, 1, 63, 100
3, 294908, Note_off_c, 1, 60, 100
3, 294912, Note_on_c, 1, 63, 98
3, 294912, Note_on_c, 1, 60, 98
3, 294912, Note_on_c, 1, 58, 98
3, 295868, Note_off_c, 1, 58, 100
3, 295868, Note_off_c, 1, 60, 100
3, 295868, Note_off_c, 1, 63, 100
3, 295872, Note_on_c, 1, 61, 110
3, 295872, Note_on_c, 1, 58, 110
3, 296060, Note_off_c, 1, 61, 100
3, 296060, Note_off_c, 1, 58, 100
3, 296064, Note_on_c, 1, 60, 103
3, 296064, Note_on_c, 1, 56, 103
3, 296252, Note_off_c, 1, 60, 100
3, 296252, Note_off_c, 1, 56, 100
3, 296256, Note_on_c, 1, 58, 95
3, 296256, Note_on_c, 1, 55, 95
3, 296444, Note_off_c, 1, 58, 100
3, 296444, Note_off_c, 1, 55, 100
3, 296448, Note_on_c, 1, 56, 80
3, 296448, Note_on_c, 1, 53, 80
3, 296448, Note_on_c, 1, 48, 80
3, 296828, Note_off_c, 1, 56, 100
3, 296828, Note_off_c, 1, 53, 100
3, 296828, Note_off_c, 1, 48, 100
3, 297120, Note_on_c, 1, 56, 80
3, 297120, Note_on_c, 1, 53, 80
3, 297212, Note_off_c, 1, 56, 100
3, 297212, Note_off_c, 1, 53, 100
3, 297216, Note_on_c, 1, 55, 80
3, 297216, Note_on_c, 1, 48, 80
3, 297216, Note_on_c, 1, 58, 80
3, 297596, Note_off_c, 1, 55, 100
3, 297596, Note_off_c, 1, 48, 100
3, 297596, Note_off_c, 1, 58, 100
3, 297888, Note_on_c, 1, 55, 80
3, 297888, Note_on_c, 1, 52, 80
3, 297980, Note_off_c, 1, 55, 100
3, 297980, Note_off_c, 1, 52, 100
3, 297984, Note_on_c, 1, 53, 80
3, 298076, Note_off_c, 1, 53, 100
3, 298080, Note_on_c, 1, 60, 80
3, 298172, Note_off_c, 1, 60, 100
3, 298176, Note_on_c, 1, 56, 80
3, 298268, Note_off_c, 1, 56, 100
3, 298272, Note_on_c, 1, 53, 80
3, 298364, Note_off_c, 1, 53, 100
3, 298368, Note_on_c, 1, 48, 80
3, 298460, Note_off_c, 1, 48, 100
3, 298464, Note_on_c, 1, 56, 80
3, 298556, Note_off_c, 1, 56, 100
3, 298560, Note_on_c, 1, 53, 80
3, 298652, Note_off_c, 1, 53, 100
3, 298656, Note_on_c, 1, 49, 80
3, 298748, Note_off_c, 1, 49, 100
3, 298752, Note_on_c, 1, 44, 80
3, 298844, Note_off_c, 1, 44, 100
3, 298848, Note_on_c, 1, 53, 80
3, 298940, Note_off_c, 1, 53, 100
3, 298944, Note_on_c, 1, 48, 80
3, 299036, Note_off_c, 1, 48, 100
3, 299040, Note_on_c, 1, 44, 80
3, 299132, Note_off_c, 1, 44, 100
3, 299136, Note_on_c, 1, 41, 80
3, 299228, Note_off_c, 1, 41, 100
3, 299232, Note_on_c, 1, 48, 80
3, 299324, Note_off_c, 1, 48, 100
3, 299328, Note_on_c, 1, 44, 80
3, 299420, Note_off_c, 1, 44, 100
3, 299424, Note_on_c, 1, 41, 80
3, 299516, Note_off_c, 1, 41, 100
3, 299520, Note_on_c, 1, 36, 80
3, 299612, Note_off_c, 1, 36, 100
3, 299616, Note_on_c, 1, 41, 80
3, 299708, Note_off_c, 1, 41, 100
3, 299712, Note_on_c, 1, 44, 80
3, 299804, Note_off_c, 1, 44, 100
3, 299808, Note_on_c, 1, 48, 80
3, 299900, Note_off_c, 1, 48, 100
3, 299904, Note_on_c, 1, 47, 80
3, 299996, Note_off_c, 1, 47, 100
3, 300000, Note_on_c, 1, 48, 80
3, 300092, Note_off_c, 1, 48, 100
3, 300096, Note_on_c, 1, 47, 80
3, 300188, Note_off_c, 1, 47, 100
3, 300192, Note_on_c, 1, 48, 80
3, 300284, Note_off_c, 1, 48, 100
3, 300288, Note_on_c, 1, 47, 80
3, 300380, Note_off_c, 1, 47, 100
3, 300384, Note_on_c, 1, 48, 80
3, 300476, Note_off_c, 1, 48, 100
3, 300480, Note_on_c, 1, 43, 102
3, 300572, Note_off_c, 1, 43, 100
3, 300576, Note_on_c, 1, 48, 80
3, 300668, Note_off_c, 1, 48, 100
3, 300672, Note_on_c, 1, 40, 106
3, 300764, Note_off_c, 1, 40, 100
3, 300768, Note_on_c, 1, 48, 80
3, 300860, Note_off_c, 1, 48, 100
3, 300864, Note_on_c, 1, 43, 100
3, 300956, Note_off_c, 1, 43, 100
3, 300960, Note_on_c, 1, 48, 80
3, 301052, Note_off_c, 1, 48, 100
3, 301056, Note_on_c, 1, 36, 104
3, 301148, Note_off_c, 1, 36, 100
3, 301152, Note_on_c, 1, 40, 80
3, 301244, Note_off_c, 1, 40, 100
3, 301248, Note_on_c, 1, 43, 80
3, 301340, Note_off_c, 1, 43, 100
3, 301344, Note_on_c, 1, 48, 80
3, 301436, Note_off_c, 1, 48, 100
3, 301440, Note_on_c, 1, 40, 80
3, 301532, Note_off_c, 1, 40, 100
3, 301536, Note_on_c, 1, 43, 80
3, 301628, Note_off_c, 1, 43, 100
3, 301632, Note_on_c, 1, 48, 80
3, 301724, Note_off_c, 1, 48, 100
3, 301728, Note_on_c, 1, 52, 80
3, 301820, Note_off_c, 1, 52, 100
3, 301824, Note_on_c, 1, 43, 80
3, 301916, Note_off_c, 1, 43, 100
3, 301920, Note_on_c, 1, 48, 80
3, 302012, Note_off_c, 1, 48, 100
3, 302016, Note_on_c, 1, 52, 80
3, 302108, Note_off_c, 1, 52, 100
3, 302112, Note_on_c, 1, 55, 80
3, 302204, Note_off_c, 1, 55, 100
3, 302208, Note_on_c, 1, 48, 80
3, 302300, Note_off_c, 1, 48, 100
3, 302304, Note_on_c, 1, 52, 80
3, 302396, Note_off_c, 1, 52, 100
3, 302400, Note_on_c, 1, 55, 80
3, 302492, Note_off_c, 1, 55, 100
3, 302496, Note_on_c, 1, 60, 80
3, 302588, Note_off_c, 1, 60, 100
3, 302592, Note_on_c, 1, 53, 80
3, 302684, Note_off_c, 1, 53, 100
3, 302688, Note_on_c, 1, 56, 80
3, 302780, Note_off_c, 1, 56, 100
3, 302784, Note_on_c, 1, 60, 80
3, 302876, Note_off_c, 1, 60, 100
3, 302880, Note_on_c, 1, 65, 80
3, 302972, Note_off_c, 1, 65, 100
3, 302976, Note_on_c, 1, 64, 80
3, 303068, Note_off_c, 1, 64, 100
3, 303072, Note_on_c, 1, 65, 80
3, 303164, Note_off_c, 1, 65, 100
3, 303168, Note_on_c, 1, 64, 80
3, 303260, Note_off_c, 1, 64, 100
3, 303264, Note_on_c, 1, 65, 80
3, 303356, Note_off_c, 1, 65, 100
3, 303360, Note_on_c, 1, 64, 80
3, 303452, Note_off_c, 1, 64, 100
3, 303456, Note_on_c, 1, 65, 81
3, 303548, Note_off_c, 1, 65, 100
3, 303552, Note_on_c, 1, 60, 82
3, 303644, Note_off_c, 1, 60, 100
3, 303648, Note_on_c, 1, 65, 83
3, 303740, Note_off_c, 1, 65, 100
3, 303744, Note_on_c, 1, 56, 85
3, 303836, Note_off_c, 1, 56, 100
3, 303840, Note_on_c, 1, 65, 86
3, 303932, Note_off_c, 1, 65, 100
3, 303936, Note_on_c, 1, 60, 87
3, 304028, Note_off_c, 1, 60, 100
3, 304032, Note_on_c, 1, 65, 89
3, 304124, Note_off_c, 1, 65, 100
3, 304128, Note_on_c, 1, 53, 90
3, 304220, Note_off_c, 1, 53, 100
3, 304224, Note_on_c, 1, 57, 91
3, 304316, Note_off_c, 1, 57, 100
3, 304320, Note_on_c, 1, 60, 93
3, 304412, Note_off_c, 1, 60, 100
3, 304416, Note_on_c, 1, 65, 94
3, 304508, Note_off_c, 1, 65, 100
3, 304512, Note_on_c, 1, 57, 95
3, 304604, Note_off_c, 1, 57, 100
3, 304608, Note_on_c, 1, 60, 96
3, 304700, Note_off_c, 1, 60, 100
3, 304704, Note_on_c, 1, 65, 98
3, 304796, Note_off_c, 1, 65, 100
3, 304800, Note_on_c, 1, 69, 99
3, 304892, Note_off_c, 1, 69, 100
3, 304896, Note_on_c, 1, 60, 100
3, 304988, Note_off_c, 1, 60, 100
3, 304992, Note_on_c, 1, 65, 102
3, 305084, Note_off_c, 1, 65, 100
3, 305088, Note_on_c, 1, 69, 103
3, 305180, Note_off_c, 1, 69, 100
3, 305184, Note_on_c, 1, 72, 104
3, 305276, Note_off_c, 1, 72, 100
3, 305280, Note_on_c, 1, 65, 106
3, 305372, Note_off_c, 1, 65, 100
3, 305376, Note_on_c, 1, 69, 107
3, 305468, Note_off_c, 1, 69, 100
3, 305472, Note_on_c, 1, 72, 108
3, 305564, Note_off_c, 1, 72, 100
3, 305568, Note_on_c, 1, 77, 109
3, 305660, Note_off_c, 1, 77, 100
3, 305664, Note_on_c, 1, 69, 110
3, 305760, Note_on_c, 1, 77, 110
3, 305828, Note_off_c, 1, 69, 100
3, 305856, Note_on_c, 1, 76, 110
3, 305940, Note_off_c, 1, 77, 100
3, 305952, Note_on_c, 1, 77, 110
3, 306028, Note_off_c, 1, 76, 100
3, 306048, Note_on_c, 1, 69, 110
3, 306116, Note_off_c, 1, 77, 100
3, 306144, Note_on_c, 1, 77, 110
3, 306208, Note_off_c, 1, 69, 100
3, 306240, Note_on_c, 1, 69, 110
3, 306316, Note_off_c, 1, 77, 100
3, 306336, Note_on_c, 1, 77, 110
3, 306420, Note_off_c, 1, 69, 100
3, 306432, Note_on_c, 1, 69, 110
3, 306508, Note_off_c, 1, 77, 100
3, 306528, Note_on_c, 1, 77, 110
3, 306620, Note_off_c, 1, 69, 100
3, 306624, Note_on_c, 1, 70, 110
3, 306700, Note_off_c, 1, 77, 100
3, 306720, Note_on_c, 1, 77, 110
3, 306800, Note_off_c, 1, 70, 100
3, 306816, Note_on_c, 1, 72, 110
3, 306892, Note_off_c, 1, 77, 100
3, 306912, Note_on_c, 1, 77, 110
3, 306988, Note_off_c, 1, 72, 100
3, 307008, Note_on_c, 1, 73, 110
3, 307084, Note_off_c, 1, 77, 100
3, 307104, Note_on_c, 1, 77, 110
3, 307184, Note_off_c, 1, 73, 100
3, 307196, Note_off_c, 1, 77, 100
3, 307200, Note_on_c, 1, 60, 110
3, 307296, Note_on_c, 1, 65, 110
3, 307376, Note_off_c, 1, 60, 100
3, 307392, Note_on_c, 1, 68, 110
3, 307472, Note_off_c, 1, 65, 100
3, 307488, Note_on_c, 1, 72, 110
3, 307560, Note_off_c, 1, 68, 100
3, 307584, Note_on_c, 1, 71, 110
3, 307648, Note_off_c, 1, 72, 100
3, 307680, Note_on_c, 1, 72, 110
3, 307752, Note_off_c, 1, 71, 100
3, 307776, Note_on_c, 1, 71, 110
3, 307852, Note_off_c, 1, 72, 100
3, 307872, Note_on_c, 1, 72, 110
3, 307952, Note_off_c, 1, 71, 100
3, 307964, Note_off_c, 1, 72, 100
3, 307968, Note_on_c, 1, 60, 110
3, 308064, Note_on_c, 1, 64, 110
3, 308144, Note_off_c, 1, 60, 100
3, 308160, Note_on_c, 1, 67, 110
3, 308236, Note_off_c, 1, 64, 100
3, 308256, Note_on_c, 1, 72, 110
3, 308324, Note_off_c, 1, 67, 100
3, 308352, Note_on_c, 1, 60, 110
3, 308428, Note_off_c, 1, 72, 100
3, 308448, Note_on_c, 1, 67, 110
3, 308524, Note_off_c, 1, 60, 100
3, 308544, Note_on_c, 1, 70, 110
3, 308616, Note_off_c, 1, 67, 100
3, 308640, Note_on_c, 1, 72, 110
3, 308708, Note_off_c, 1, 70, 100
3, 308732, Note_off_c, 1, 72, 100
3, 308736, Note_on_c, 1, 53, 110
3, 308832, Note_on_c, 1, 68, 80
3, 308832, Note_on_c, 1, 65, 80
3, 308924, Note_off_c, 1, 53, 100
3, 308924, Note_off_c, 1, 68, 100
3, 308924, Note_off_c, 1, 65, 100
3, 308928, Note_on_c, 1, 72, 82
3, 308928, Note_on_c, 1, 60, 82
3, 309020, Note_off_c, 1, 72, 100
3, 309020, Note_off_c, 1, 60, 100
3, 309024, Note_on_c, 1, 68, 84
3, 309024, Note_on_c, 1, 65, 84
3, 309116, Note_off_c, 1, 68, 100
3, 309116, Note_off_c, 1, 65, 100
3, 309120, Note_on_c, 1, 72, 87
3, 309120, Note_on_c, 1, 60, 87
3, 309212, Note_off_c, 1, 72, 100
3, 309212, Note_off_c, 1, 60, 100
3, 309216, Note_on_c, 1, 68, 89
3, 309216, Note_on_c, 1, 65, 89
3, 309308, Note_off_c, 1, 68, 100
3, 309308, Note_off_c, 1, 65, 100
3, 309312, Note_on_c, 1, 72, 92
3, 309312, Note_on_c, 1, 60, 92
3, 309404, Note_off_c, 1, 72, 100
3, 309404, Note_off_c, 1, 60, 100
3, 309408, Note_on_c, 1, 68, 94
3, 309408, Note_on_c, 1, 65, 94
3, 309500, Note_off_c, 1, 68, 100
3, 309500, Note_off_c, 1, 65, 100
3, 309504, Note_on_c, 1, 72, 95
3, 309504, Note_on_c, 1, 60, 95
3, 309596, Note_off_c, 1, 72, 100
3, 309596, Note_off_c, 1, 60, 100
3, 309600, Note_on_c, 1, 68, 94
3, 309600, Note_on_c, 1, 65, 94
3, 309692, Note_off_c, 1, 68, 100
3, 309692, Note_off_c, 1, 65, 100
3, 309696, Note_on_c, 1, 72, 93
3, 309696, Note_on_c, 1, 60, 93
3, 309788, Note_off_c, 1, 72, 100
3, 309788, Note_off_c, 1, 60, 100
3, 309792, Note_on_c, 1, 68, 91
3, 309792, Note_on_c, 1, 65, 91
3, 309884, Note_off_c, 1, 68, 100
3, 309884, Note_off_c, 1, 65, 100
3, 309888, Note_on_c, 1, 72, 90
3, 309888, Note_on_c, 1, 60, 90
3, 309980, Note_off_c, 1, 72, 100
3, 309980, Note_off_c, 1, 60, 100
3, 309984, Note_on_c, 1, 68, 88
3, 309984, Note_on_c, 1, 65, 88
3, 310076, Note_off_c, 1, 68, 100
3, 310076, Note_off_c, 1, 65, 100
3, 310080, Note_on_c, 1, 72, 87
3, 310080, Note_on_c, 1, 60, 87
3, 310172, Note_off_c, 1, 72, 100
3, 310172, Note_off_c, 1, 60, 100
3, 310176, Note_on_c, 1, 68, 86
3, 310176, Note_on_c, 1, 65, 86
3, 310268, Note_off_c, 1, 68, 100
3, 310268, Note_off_c, 1, 65, 100
3, 310272, Note_on_c, 1, 53, 80
3, 310364, Note_off_c, 1, 53, 100
3, 310368, Note_on_c, 1, 68, 82
3, 310368, Note_on_c, 1, 65, 82
3, 310460, Note_off_c, 1, 68, 100
3, 310460, Note_off_c, 1, 65, 100
3, 310464, Note_on_c, 1, 72, 84
3, 310464, Note_on_c, 1, 60, 84
3, 310556, Note_off_c, 1, 72, 100
3, 310556, Note_off_c, 1, 60, 100
3, 310560, Note_on_c, 1, 68, 86
3, 310560, Note_on_c, 1, 65, 86
3, 310652, Note_off_c, 1, 68, 100
3, 310652, Note_off_c, 1, 65, 100
3, 310656, Note_on_c, 1, 72, 88
3, 310656, Note_on_c, 1, 60, 88
3, 310748, Note_off_c, 1, 72, 100
3, 310748, Note_off_c, 1, 60, 100
3, 310752, Note_on_c, 1, 68, 90
3, 310752, Note_on_c, 1, 65, 90
3, 310844, Note_off_c, 1, 68, 100
3, 310844, Note_off_c, 1, 65, 100
3, 310848, Note_on_c, 1, 72, 92
3, 310848, Note_on_c, 1, 60, 92
3, 310940, Note_off_c, 1, 72, 100
3, 310940, Note_off_c, 1, 60, 100
3, 310944, Note_on_c, 1, 68, 94
3, 310944, Note_on_c, 1, 65, 94
3, 311036, Note_off_c, 1, 68, 100
3, 311036, Note_off_c, 1, 65, 100
3, 311040, Note_on_c, 1, 72, 95
3, 311040, Note_on_c, 1, 60, 95
3, 311132, Note_off_c, 1, 72, 100
3, 311132, Note_off_c, 1, 60, 100
3, 311136, Note_on_c, 1, 68, 94
3, 311136, Note_on_c, 1, 65, 94
3, 311228, Note_off_c, 1, 68, 100
3, 311228, Note_off_c, 1, 65, 100
3, 311232, Note_on_c, 1, 72, 93
3, 311232, Note_on_c, 1, 60, 93
3, 311324, Note_off_c, 1, 72, 100
3, 311324, Note_off_c, 1, 60, 100
3, 311328, Note_on_c, 1, 68, 91
3, 311328, Note_on_c, 1, 65, 91
3, 311420, Note_off_c, 1, 68, 100
3, 311420, Note_off_c, 1, 65, 100
3, 311424, Note_on_c, 1, 72, 90
3, 311424, Note_on_c, 1, 60, 90
3, 311516, Note_off_c, 1, 72, 100
3, 311516, Note_off_c, 1, 60, 100
3, 311520, Note_on_c, 1, 68, 88
3, 311520, Note_on_c, 1, 65, 88
3, 311612, Note_off_c, 1, 68, 100
3, 311612, Note_off_c, 1, 65, 100
3, 311616, Note_on_c, 1, 72, 87
3, 311616, Note_on_c, 1, 60, 87
3, 311708, Note_off_c, 1, 72, 100
3, 311708, Note_off_c, 1, 60, 100
3, 311712, Note_on_c, 1, 68, 86
3, 311712, Note_on_c, 1, 65, 86
3, 311804, Note_off_c, 1, 68, 100
3, 311804, Note_off_c, 1, 65, 100
3, 311808, Note_on_c, 1, 44, 80
3, 311900, Note_off_c, 1, 44, 100
3, 311904, Note_on_c, 1, 56, 82
3, 311904, Note_on_c, 1, 54, 82
3, 311996, Note_off_c, 1, 56, 100
3, 311996, Note_off_c, 1, 54, 100
3, 312000, Note_on_c, 1, 60, 84
3, 312000, Note_on_c, 1, 51, 84
3, 312092, Note_off_c, 1, 60, 100
3, 312092, Note_off_c, 1, 51, 100
3, 312096, Note_on_c, 1, 56, 86
3, 312096, Note_on_c, 1, 54, 86
3, 312188, Note_off_c, 1, 56, 100
3, 312188, Note_off_c, 1, 54, 100
3, 312192, Note_on_c, 1, 60, 88
3, 312192, Note_on_c, 1, 51, 88
3, 312284, Note_off_c, 1, 60, 100
3, 312284, Note_off_c, 1, 51, 100
3, 312288, Note_on_c, 1, 56, 90
3, 312288, Note_on_c, 1, 54, 90
3, 312380, Note_off_c, 1, 56, 100
3, 312380, Note_off_c, 1, 54, 100
3, 312384, Note_on_c, 1, 60, 92
3, 312384, Note_on_c, 1, 51, 92
3, 312476, Note_off_c, 1, 60, 100
3, 312476, Note_off_c, 1, 51, 100
3, 312480, Note_on_c, 1, 56, 94
3, 312480, Note_on_c, 1, 54, 94
3, 312572, Note_off_c, 1, 56, 100
3, 312572, Note_off_c, 1, 54, 100
3, 312576, Note_on_c, 1, 60, 95
3, 312576, Note_on_c, 1, 51, 95
3, 312668, Note_off_c, 1, 60, 100
3, 312668, Note_off_c, 1, 51, 100
3, 312672, Note_on_c, 1, 56, 94
3, 312672, Note_on_c, 1, 54, 94
3, 312764, Note_off_c, 1, 56, 100
3, 312764, Note_off_c, 1, 54, 100
3, 312768, Note_on_c, 1, 60, 93
3, 312768, Note_on_c, 1, 51, 93
3, 312860, Note_off_c, 1, 60, 100
3, 312860, Note_off_c, 1, 51, 100
3, 312864, Note_on_c, 1, 56, 91
3, 312864, Note_on_c, 1, 54, 91
3, 312956, Note_off_c, 1, 56, 100
3, 312956, Note_off_c, 1, 54, 100
3, 312960, Note_on_c, 1, 60, 90
3, 312960, Note_on_c, 1, 51, 90
3, 313052, Note_off_c, 1, 60, 100
3, 313052, Note_off_c, 1, 51, 100
3, 313056, Note_on_c, 1, 56, 88
3, 313056, Note_on_c, 1, 54, 88
3, 313148, Note_off_c, 1, 56, 100
3, 313148, Note_off_c, 1, 54, 100
3, 313152, Note_on_c, 1, 60, 87
3, 313152, Note_on_c, 1, 51, 87
3, 313244, Note_off_c, 1, 60, 100
3, 313244, Note_off_c, 1, 51, 100
3, 313248, Note_on_c, 1, 56, 86
3, 313248, Note_on_c, 1, 54, 86
3, 313340, Note_off_c, 1, 56, 100
3, 313340, Note_off_c, 1, 54, 100
3, 313344, Note_on_c, 1, 44, 80
3, 313436, Note_off_c, 1, 44, 100
3, 313440, Note_on_c, 1, 56, 82
3, 313440, Note_on_c, 1, 54, 82
3, 313532, Note_off_c, 1, 56, 100
3, 313532, Note_off_c, 1, 54, 100
3, 313536, Note_on_c, 1, 60, 84
3, 313536, Note_on_c, 1, 51, 84
3, 313628, Note_off_c, 1, 60, 100
3, 313628, Note_off_c, 1, 51, 100
3, 313632, Note_on_c, 1, 56, 86
3, 313632, Note_on_c, 1, 54, 86
3, 313724, Note_off_c, 1, 56, 100
3, 313724, Note_off_c, 1, 54, 100
3, 313728, Note_on_c, 1, 60, 88
3, 313728, Note_on_c, 1, 51, 88
3, 313820, Note_off_c, 1, 60, 100
3, 313820, Note_off_c, 1, 51, 100
3, 313824, Note_on_c, 1, 56, 90
3, 313824, Note_on_c, 1, 54, 90
3, 313916, Note_off_c, 1, 56, 100
3, 313916, Note_off_c, 1, 54, 100
3, 313920, Note_on_c, 1, 60, 92
3, 313920, Note_on_c, 1, 51, 92
3, 314012, Note_off_c, 1, 60, 100
3, 314012, Note_off_c, 1, 51, 100
3, 314016, Note_on_c, 1, 56, 94
3, 314016, Note_on_c, 1, 54, 94
3, 314108, Note_off_c, 1, 56, 100
3, 314108, Note_off_c, 1, 54, 100
3, 314112, Note_on_c, 1, 60, 95
3, 314112, Note_on_c, 1, 51, 95
3, 314204, Note_off_c, 1, 60, 100
3, 314204, Note_off_c, 1, 51, 100
3, 314208, Note_on_c, 1, 56, 94
3, 314208, Note_on_c, 1, 54, 94
3, 314300, Note_off_c, 1, 56, 100
3, 314300, Note_off_c, 1, 54, 100
3, 314304, Note_on_c, 1, 60, 93
3, 314304, Note_on_c, 1, 51, 93
3, 314396, Note_off_c, 1, 60, 100
3, 314396, Note_off_c, 1, 51, 100
3, 314400, Note_on_c, 1, 56, 91
3, 314400, Note_on_c, 1, 54, 91
3, 314492, Note_off_c, 1, 56, 100
3, 314492, Note_off_c, 1, 54, 100
3, 314496, Note_on_c, 1, 60, 90
3, 314496, Note_on_c, 1, 51, 90
3, 314588, Note_off_c, 1, 60, 100
3, 314588, Note_off_c, 1, 51, 100
3, 314592, Note_on_c, 1, 56, 88
3, 314592, Note_on_c, 1, 54, 88
3, 314684, Note_off_c, 1, 56, 100
3, 314684, Note_off_c, 1, 54, 100
3, 314688, Note_on_c, 1, 60, 87
3, 314688, Note_on_c, 1, 51, 87
3, 314780, Note_off_c, 1, 60, 100
3, 314780, Note_off_c, 1, 51, 100
3, 314784, Note_on_c, 1, 56, 86
3, 314784, Note_on_c, 1, 54, 86
3, 314876, Note_off_c, 1, 56, 100
3, 314876, Note_off_c, 1, 54, 100
3, 314880, Note_on_c, 1, 49, 90
3, 314972, Note_off_c, 1, 49, 100
3, 314976, Note_on_c, 1, 65, 90
3, 314976, Note_on_c, 1, 61, 90
3, 315068, Note_off_c, 1, 65, 100
3, 315068, Note_off_c, 1, 61, 100
3, 315072, Note_on_c, 1, 68, 90
3, 315072, Note_on_c, 1, 56, 90
3, 315164, Note_off_c, 1, 68, 100
3, 315164, Note_off_c, 1, 56, 100
3, 315168, Note_on_c, 1, 65, 90
3, 315168, Note_on_c, 1, 61, 90
3, 315260, Note_off_c, 1, 65, 100
3, 315260, Note_off_c, 1, 61, 100
3, 315264, Note_on_c, 1, 68, 90
3, 315264, Note_on_c, 1, 56, 90
3, 315356, Note_off_c, 1, 68, 100
3, 315356, Note_off_c, 1, 56, 100
3, 315360, Note_on_c, 1, 65, 90
3, 315360, Note_on_c, 1, 61, 90
3, 315452, Note_off_c, 1, 65, 100
3, 315452, Note_off_c, 1, 61, 100
3, 315456, Note_on_c, 1, 68, 90
3, 315456, Note_on_c, 1, 56, 90
3, 315548, Note_off_c, 1, 68, 100
3, 315548, Note_off_c, 1, 56, 100
3, 315552, Note_on_c, 1, 65, 90
3, 315552, Note_on_c, 1, 61, 90
3, 315644, Note_off_c, 1, 65, 100
3, 315644, Note_off_c, 1, 61, 100
3, 315648, Note_on_c, 1, 68, 90
3, 315648, Note_on_c, 1, 56, 90
3, 315740, Note_off_c, 1, 68, 100
3, 315740, Note_off_c, 1, 56, 100
3, 315744, Note_on_c, 1, 65, 90
3, 315744, Note_on_c, 1, 61, 90
3, 315836, Note_off_c, 1, 65, 100
3, 315836, Note_off_c, 1, 61, 100
3, 315840, Note_on_c, 1, 68, 90
3, 315840, Note_on_c, 1, 56, 90
3, 315932, Note_off_c, 1, 68, 100
3, 315932, Note_off_c, 1, 56, 100
3, 315936, Note_on_c, 1, 65, 90
3, 315936, Note_on_c, 1, 61, 90
3, 316028, Note_off_c, 1, 65, 100
3, 316028, Note_off_c, 1, 61, 100
3, 316032, Note_on_c, 1, 68, 90
3, 316032, Note_on_c, 1, 56, 90
3, 316124, Note_off_c, 1, 68, 100
3, 316124, Note_off_c, 1, 56, 100
3, 316128, Note_on_c, 1, 65, 90
3, 316128, Note_on_c, 1, 61, 90
3, 316220, Note_off_c, 1, 65, 100
3, 316220, Note_off_c, 1, 61, 100
3, 316224, Note_on_c, 1, 68, 90
3, 316224, Note_on_c, 1, 56, 90
3, 316316, Note_off_c, 1, 68, 100
3, 316316, Note_off_c, 1, 56, 100
3, 316320, Note_on_c, 1, 65, 90
3, 316320, Note_on_c, 1, 61, 90
3, 316412, Note_off_c, 1, 65, 100
3, 316412, Note_off_c, 1, 61, 100
3, 316416, Note_on_c, 1, 49, 85
3, 316508, Note_off_c, 1, 49, 100
3, 316512, Note_on_c, 1, 65, 86
3, 316512, Note_on_c, 1, 61, 86
3, 316604, Note_off_c, 1, 65, 100
3, 316604, Note_off_c, 1, 61, 100
3, 316608, Note_on_c, 1, 68, 88
3, 316608, Note_on_c, 1, 56, 88
3, 316700, Note_off_c, 1, 68, 100
3, 316700, Note_off_c, 1, 56, 100
3, 316704, Note_on_c, 1, 65, 89
3, 316704, Note_on_c, 1, 61, 89
3, 316796, Note_off_c, 1, 65, 100
3, 316796, Note_off_c, 1, 61, 100
3, 316800, Note_on_c, 1, 68, 91
3, 316988, Note_off_c, 1, 68, 100
3, 316992, Note_on_c, 1, 73, 94
3, 317180, Note_off_c, 1, 73, 100
3, 317184, Note_on_c, 1, 77, 97
3, 317372, Note_off_c, 1, 77, 100
3, 317376, Note_on_c, 1, 80, 100
3, 317564, Note_off_c, 1, 80, 100
3, 317568, Note_on_c, 1, 85, 103
3, 317756, Note_off_c, 1, 85, 100
3, 317760, Note_on_c, 1, 85, 106
3, 317948, Note_off_c, 1, 85, 100
3, 317952, Note_on_c, 1, 85, 109
3, 317952, Note_on_c, 1, 82, 109
3, 318524, Note_off_c, 1, 85, 100
3, 318524, Note_off_c, 1, 82, 100
3, 318528, Note_on_c, 1, 84, 80
3, 318528, Note_on_c, 1, 80, 80
3, 318716, Note_off_c, 1, 84, 100
3, 318716, Note_off_c, 1, 80, 100
3, 318720, Note_on_c, 1, 82, 80
3, 318720, Note_on_c, 1, 79, 80
3, 319100, Note_off_c, 1, 82, 100
3, 319100, Note_off_c, 1, 79, 100
3, 319104, Note_on_c, 1, 84, 80
3, 319104, Note_on_c, 1, 80, 80
3, 319484, Note_off_c, 1, 84, 100
3, 319484, Note_off_c, 1, 80, 100
3, 319488, Note_on_c, 1, 85, 110
3, 319488, Note_on_c, 1, 82, 110
3, 320060, Note_off_c, 1, 85, 100
3, 320060, Note_off_c, 1, 82, 100
3, 320064, Note_on_c, 1, 84, 80
3, 320064, Note_on_c, 1, 80, 80
3, 320252, Note_off_c, 1, 84, 100
3, 320252, Note_off_c, 1, 80, 100
3, 320256, Note_on_c, 1, 82, 80
3, 320256, Note_on_c, 1, 79, 80
3, 320636, Note_off_c, 1, 82, 100
3, 320636, Note_off_c, 1, 79, 100
3, 320640, Note_on_c, 1, 84, 80
3, 320640, Note_on_c, 1, 80, 80
3, 321020, Note_off_c, 1, 84, 100
3, 321020, Note_off_c, 1, 80, 100
3, 321024, Note_on_c, 1, 85, 110
3, 321024, Note_on_c, 1, 82, 110
3, 321596, Note_off_c, 1, 85, 100
3, 321596, Note_off_c, 1, 82, 100
3, 321600, Note_on_c, 1, 84, 80
3, 321600, Note_on_c, 1, 80, 80
3, 321788, Note_off_c, 1, 84, 100
3, 321788, Note_off_c, 1, 80, 100
3, 321792, Note_on_c, 1, 82, 85
3, 321792, Note_on_c, 1, 79, 85
3, 322172, Note_off_c, 1, 82, 100
3, 322172, Note_off_c, 1, 79, 100
3, 322176, Note_on_c, 1, 80, 89
3, 322176, Note_on_c, 1, 77, 89
3, 322556, Note_off_c, 1, 80, 100
3, 322556, Note_off_c, 1, 77, 100
3, 322560, Note_on_c, 1, 79, 93
3, 322560, Note_on_c, 1, 76, 93
3, 322940, Note_off_c, 1, 79, 100
3, 322940, Note_off_c, 1, 76, 100
3, 322944, Note_on_c, 1, 77, 98
3, 322944, Note_on_c, 1, 74, 98
3, 323324, Note_off_c, 1, 77, 100
3, 323324, Note_off_c, 1, 74, 100
3, 323328, Note_on_c, 1, 77, 102
3, 323328, Note_on_c, 1, 73, 102
3, 323708, Note_off_c, 1, 77, 100
3, 323708, Note_off_c, 1, 73, 100
3, 323712, Note_on_c, 1, 77, 106
3, 323712, Note_on_c, 1, 72, 106
3, 324092, Note_off_c, 1, 77, 100
3, 324092, Note_off_c, 1, 72, 100
3, 324096, Note_on_c, 1, 71, 110
3, 324480, Note_on_c, 1, 74, 105
3, 324860, Note_off_c, 1, 71, 100
3, 324860, Note_off_c, 1, 74, 100
3, 324864, Note_on_c, 1, 72, 100
3, 324864, Note_on_c, 1, 60, 100
3, 324864, Note_on_c, 1, 68, 100
3, 325244, Note_off_c, 1, 68, 100
3, 325248, Note_on_c, 1, 67, 95
3, 325628, Note_off_c, 1, 72, 100
3, 325628, Note_off_c, 1, 60, 100
3, 325628, Note_off_c, 1, 67, 100
3, 325632, Note_on_c, 1, 54, 90
3, 325632, Note_on_c, 1, 49, 90
3, 325632, Note_on_c, 1, 46, 90
3, 326204, Note_off_c, 1, 54, 100
3, 326204, Note_off_c, 1, 49, 100
3, 326204, Note_off_c, 1, 46, 100
3, 326208, Note_on_c, 1, 53, 92
3, 326208, Note_on_c, 1, 48, 92
3, 326208, Note_on_c, 1, 44, 92
3, 326396, Note_off_c, 1, 53, 100
3, 326396, Note_off_c, 1, 48, 100
3, 326396, Note_off_c, 1, 44, 100
3, 326400, Note_on_c, 1, 52, 93
3, 326400, Note_on_c, 1, 46, 93
3, 326400, Note_on_c, 1, 43, 93
3, 326780, Note_off_c, 1, 52, 100
3, 326780, Note_off_c, 1, 46, 100
3, 326780, Note_off_c, 1, 43, 100
3, 326784, Note_on_c, 1, 53, 95
3, 326784, Note_on_c, 1, 48, 95
3, 326784, Note_on_c, 1, 44, 95
3, 327164, Note_off_c, 1, 53, 100
3, 327164, Note_off_c, 1, 48, 100
3, 327164, Note_off_c, 1, 44, 100
3, 327168, Note_on_c, 1, 54, 97
3, 327168, Note_on_c, 1, 49, 97
3, 327168, Note_on_c, 1, 46, 97
3, 327740, Note_off_c, 1, 54, 100
3, 327740, Note_off_c, 1, 49, 100
3, 327740, Note_off_c, 1, 46, 100
3, 327744, Note_on_c, 1, 53, 100
3, 327744, Note_on_c, 1, 48, 100
3, 327744, Note_on_c, 1, 44, 100
3, 327932, Note_off_c, 1, 53, 100
3, 327932, Note_off_c, 1, 48, 100
3, 327932, Note_off_c, 1, 44, 100
3, 327936, Note_on_c, 1, 52, 101
3, 327936, Note_on_c, 1, 46, 101
3, 327936, Note_on_c, 1, 43, 101
3, 328316, Note_off_c, 1, 52, 100
3, 328316, Note_off_c, 1, 46, 100
3, 328316, Note_off_c, 1, 43, 100
3, 328320, Note_on_c, 1, 53, 103
3, 328320, Note_on_c, 1, 48, 103
3, 328320, Note_on_c, 1, 44, 103
3, 328700, Note_off_c, 1, 53, 100
3, 328700, Note_off_c, 1, 48, 100
3, 328700, Note_off_c, 1, 44, 100
3, 328704, Note_on_c, 1, 54, 105
3, 328704, Note_on_c, 1, 49, 105
3, 328704, Note_on_c, 1, 46, 105
3, 329276, Note_off_c, 1, 54, 100
3, 329276, Note_off_c, 1, 49, 100
3, 329276, Note_off_c, 1, 46, 100
3, 329280, Note_on_c, 1, 53, 108
3, 329280, Note_on_c, 1, 48, 108
3, 329280, Note_on_c, 1, 44, 108
3, 329468, Note_off_c, 1, 53, 100
3, 329468, Note_off_c, 1, 48, 100
3, 329468, Note_off_c, 1, 44, 100
3, 329472, Note_on_c, 1, 52, 109
3, 329472, Note_on_c, 1, 46, 109
3, 329472, Note_on_c, 1, 43, 109
3, 329852, Note_off_c, 1, 52, 100
3, 329852, Note_off_c, 1, 46, 100
3, 329852, Note_off_c, 1, 43, 100
3, 329856, Note_on_c, 1, 44, 110
3, 329856, Note_on_c, 1, 41, 110
3, 329856, Note_on_c, 1, 49, 110
3, 330236, Note_off_c, 1, 44, 100
3, 330236, Note_off_c, 1, 41, 100
3, 330236, Note_off_c, 1, 49, 100
3, 330240, Note_on_c, 1, 48, 112
3, 330240, Note_on_c, 1, 43, 112
3, 330240, Note_on_c, 1, 40, 112
3, 330620, Note_off_c, 1, 48, 100
3, 330620, Note_off_c, 1, 43, 100
3, 330620, Note_off_c, 1, 40, 100
3, 330624, Note_on_c, 1, 47, 114
3, 330624, Note_on_c, 1, 44, 114
3, 330624, Note_on_c, 1, 41, 114
3, 330624, Note_on_c, 1, 38, 114
3, 331004, Note_off_c, 1, 47, 100
3, 331004, Note_off_c, 1, 44, 100
3, 331004, Note_off_c, 1, 41, 100
3, 331004, Note_off_c, 1, 38, 100
3, 331008, Note_on_c, 1, 46, 116
3, 331008, Note_on_c, 1, 43, 116
3, 331008, Note_on_c, 1, 40, 116
3, 331388, Note_off_c, 1, 46, 100
3, 331388, Note_off_c, 1, 43, 100
3, 331388, Note_off_c, 1, 40, 100
3, 331392, Note_on_c, 1, 44, 118
3, 331392, Note_on_c, 1, 41, 118
3, 331772, Note_off_c, 1, 44, 100
3, 331772, Note_off_c, 1, 41, 100
3, 331776, Note_on_c, 1, 44, 120
3, 331776, Note_on_c, 1, 35, 120
3, 332156, Note_off_c, 1, 44, 100
3, 332160, Note_on_c, 1, 43, 115
3, 332540, Note_off_c, 1, 35, 100
3, 332540, Note_off_c, 1, 43, 100
3, 332544, Note_on_c, 1, 36, 110
3, 332544, Note_on_c, 1, 41, 110
3, 332924, Note_off_c, 1, 41, 100
3, 332928, Note_on_c, 1, 40, 105
3, 333308, Note_off_c, 1, 36, 100
3, 333308, Note_off_c, 1, 40, 100
3, 333312, Note_on_c, 1, 41, 110
3, 333312, Note_on_c, 1, 36, 110
3, 333312, Note_on_c, 1, 32, 110
3, 333312, Note_on_c, 1, 29, 110
3, 333500, Note_off_c, 1, 41, 100
3, 333500, Note_off_c, 1, 36, 100
3, 333500, Note_off_c, 1, 32, 100
3, 333500, Note_off_c, 1, 29, 100
3, 333792, Note_on_c, 1, 48, 110
3, 333884, Note_off_c, 1, 48, 100
3, 333888, Note_on_c, 1, 53, 110
3, 333980, Note_off_c, 1, 53, 100
3, 333984, Note_on_c, 1, 56, 110
3, 334076, Note_off_c, 1, 56, 100
3, 334080, Note_on_c, 1, 60, 110
3, 334172, Note_off_c, 1, 60, 100
3, 334176, Note_on_c, 1, 61, 110
3, 334268, Note_off_c, 1, 61, 100
3, 334272, Note_on_c, 1, 60, 110
3, 334364, Note_off_c, 1, 60, 100
3, 334368, Note_on_c, 1, 58, 110
3, 334460, Note_off_c, 1, 58, 100
3, 334464, Note_on_c, 1, 56, 110
3, 334556, Note_off_c, 1, 56, 100
3, 334560, Note_on_c, 1, 55, 110
3, 334652, Note_off_c, 1, 55, 100
3, 334656, Note_on_c, 1, 53, 110
3, 334748, Note_off_c, 1, 53, 100
3, 334752, Note_on_c, 1, 51, 110
3, 334844, Note_off_c, 1, 51, 100
3, 334848, Note_on_c, 1, 49, 110
3, 334940, Note_off_c, 1, 49, 100
3, 334944, Note_on_c, 1, 48, 110
3, 335036, Note_off_c, 1, 48, 100
3, 335040, Note_on_c, 1, 46, 110
3, 335132, Note_off_c, 1, 46, 100
3, 335136, Note_on_c, 1, 44, 110
3, 335228, Note_off_c, 1, 44, 100
3, 335232, Note_on_c, 1, 43, 110
3, 335324, Note_off_c, 1, 43, 100
3, 335328, Note_on_c, 1, 44, 110
3, 335420, Note_off_c, 1, 44, 100
3, 335424, Note_on_c, 1, 46, 110
3, 335516, Note_off_c, 1, 46, 100
3, 335520, Note_on_c, 1, 44, 110
3, 335612, Note_off_c, 1, 44, 100
3, 335616, Note_on_c, 1, 43, 110
3, 335708, Note_off_c, 1, 43, 100
3, 335712, Note_on_c, 1, 41, 110
3, 335804, Note_off_c, 1, 41, 100
3, 335808, Note_on_c, 1, 40, 110
3, 335900, Note_off_c, 1, 40, 100
3, 335904, Note_on_c, 1, 38, 110
3, 335996, Note_off_c, 1, 38, 100
3, 336000, Note_on_c, 1, 36, 110
3, 336092, Note_off_c, 1, 36, 100
3, 336096, Note_on_c, 1, 34, 110
3, 336188, Note_off_c, 1, 34, 100
3, 336192, Note_on_c, 1, 32, 110
3, 336284, Note_off_c, 1, 32, 100
3, 336288, Note_on_c, 1, 31, 110
3, 336380, Note_off_c, 1, 31, 100
3, 336384, Note_on_c, 1, 41, 110
3, 336384, Note_on_c, 1, 36, 110
3, 336384, Note_on_c, 1, 32, 110
3, 336384, Note_on_c, 1, 29, 110
3, 336572, Note_off_c, 1, 41, 100
3, 336572, Note_off_c, 1, 36, 100
3, 336572, Note_off_c, 1, 32, 100
3, 336572, Note_off_c, 1, 29, 100
3, 336864, Note_on_c, 1, 60, 110
3, 336956, Note_off_c, 1, 60, 100
3, 336960, Note_on_c, 1, 65, 110
3, 337052, Note_off_c, 1, 65, 100
3, 337056, Note_on_c, 1, 68, 110
3, 337148, Note_off_c, 1, 68, 100
3, 337152, Note_on_c, 1, 72, 110
3, 337244, Note_off_c, 1, 72, 100
3, 337248, Note_on_c, 1, 73, 110
3, 337340, Note_off_c, 1, 73, 100
3, 337344, Note_on_c, 1, 72, 110
3, 337436, Note_off_c, 1, 72, 100
3, 337440, Note_on_c, 1, 70, 110
3, 337532, Note_off_c, 1, 70, 100
3, 337536, Note_on_c, 1, 68, 110
3, 337628, Note_off_c, 1, 68, 100
3, 337632, Note_on_c, 1, 67, 110
3, 337724, Note_off_c, 1, 67, 100
3, 337728, Note_on_c, 1, 65, 110
3, 337820, Note_off_c, 1, 65, 100
3, 337824, Note_on_c, 1, 63, 110
3, 337916, Note_off_c, 1, 63, 100
3, 337920, Note_on_c, 1, 61, 110
3, 338012, Note_off_c, 1, 61, 100
3, 338016, Note_on_c, 1, 60, 110
3, 338108, Note_off_c, 1, 60, 100
3, 338112, Note_on_c, 1, 58, 110
3, 338204, Note_off_c, 1, 58, 100
3, 338208, Note_on_c, 1, 56, 110
3, 338300, Note_off_c, 1, 56, 100
3, 338304, Note_on_c, 1, 55, 110
3, 338396, Note_off_c, 1, 55, 100
3, 338400, Note_on_c, 1, 56, 110
3, 338492, Note_off_c, 1, 56, 100
3, 338496, Note_on_c, 1, 58, 110
3, 338588, Note_off_c, 1, 58, 100
3, 338592, Note_on_c, 1, 56, 110
3, 338684, Note_off_c, 1, 56, 100
3, 338688, Note_on_c, 1, 55, 110
3, 338780, Note_off_c, 1, 55, 100
3, 338784, Note_on_c, 1, 53, 110
3, 338876, Note_off_c, 1, 53, 100
3, 338880, Note_on_c, 1, 52, 110
3, 338972, Note_off_c, 1, 52, 100
3, 338976, Note_on_c, 1, 50, 110
3, 339068, Note_off_c, 1, 50, 100
3, 339072, Note_on_c, 1, 48, 110
3, 339164, Note_off_c, 1, 48, 100
3, 339168, Note_on_c, 1, 46, 110
3, 339260, Note_off_c, 1, 46, 100
3, 339264, Note_on_c, 1, 44, 110
3, 339356, Note_off_c, 1, 44, 100
3, 339360, Note_on_c, 1, 43, 110
3, 339452, Note_off_c, 1, 43, 100
3, 339456, Note_on_c, 1, 41, 110
3, 339548, Note_off_c, 1, 41, 100
3, 339552, Note_on_c, 1, 43, 110
3, 339644, Note_off_c, 1, 43, 100
3, 339648, Note_on_c, 1, 44, 110
3, 339740, Note_off_c, 1, 44, 100
3, 339744, Note_on_c, 1, 46, 110
3, 339836, Note_off_c, 1, 46, 100
3, 339840, Note_on_c, 1, 48, 110
3, 339932, Note_off_c, 1, 48, 100
3, 339936, Note_on_c, 1, 50, 110
3, 340028, Note_off_c, 1, 50, 100
3, 340032, Note_on_c, 1, 52, 110
3, 340124, Note_off_c, 1, 52, 100
3, 340128, Note_on_c, 1, 53, 110
3, 340220, Note_off_c, 1, 53, 100
3, 340224, Note_on_c, 1, 55, 110
3, 340316, Note_off_c, 1, 55, 100
3, 340320, Note_on_c, 1, 53, 110
3, 340412, Note_off_c, 1, 53, 100
3, 340416, Note_on_c, 1, 52, 110
3, 340508, Note_off_c, 1, 52, 100
3, 340512, Note_on_c, 1, 50, 110
3, 340604, Note_off_c, 1, 50, 100
3, 340608, Note_on_c, 1, 48, 110
3, 340700, Note_off_c, 1, 48, 100
3, 340704, Note_on_c, 1, 46, 110
3, 340796, Note_off_c, 1, 46, 100
3, 340800, Note_on_c, 1, 44, 110
3, 340892, Note_off_c, 1, 44, 100
3, 340896, Note_on_c, 1, 43, 110
3, 340988, Note_off_c, 1, 43, 100
3, 340992, Note_on_c, 1, 41, 110
3, 341084, Note_off_c, 1, 41, 100
3, 341088, Note_on_c, 1, 43, 110
3, 341180, Note_off_c, 1, 43, 100
3, 341184, Note_on_c, 1, 44, 110
3, 341276, Note_off_c, 1, 44, 100
3, 341280, Note_on_c, 1, 46, 110
3, 341372, Note_off_c, 1, 46, 100
3, 341376, Note_on_c, 1, 48, 110
3, 341468, Note_off_c, 1, 48, 100
3, 341472, Note_on_c, 1, 50, 110
3, 341564, Note_off_c, 1, 50, 100
3, 341568, Note_on_c, 1, 52, 110
3, 341660, Note_off_c, 1, 52, 100
3, 341664, Note_on_c, 1, 53, 110
3, 341756, Note_off_c, 1, 53, 100
3, 341760, Note_on_c, 1, 55, 110
3, 341852, Note_off_c, 1, 55, 100
3, 341856, Note_on_c, 1, 53, 110
3, 341948, Note_off_c, 1, 53, 100
3, 341952, Note_on_c, 1, 52, 110
3, 342044, Note_off_c, 1, 52, 100
3, 342048, Note_on_c, 1, 50, 110
3, 342140, Note_off_c, 1, 50, 100
3, 342144, Note_on_c, 1, 48, 110
3, 342236, Note_off_c, 1, 48, 100
3, 342240, Note_on_c, 1, 46, 110
3, 342332, Note_off_c, 1, 46, 100
3, 342336, Note_on_c, 1, 44, 110
3, 342428, Note_off_c, 1, 44, 100
3, 342432, Note_on_c, 1, 43, 80
3, 342524, Note_off_c, 1, 43, 100
3, 342528, Note_on_c, 1, 41, 110
3, 342620, Note_off_c, 1, 41, 100
3, 342624, Note_on_c, 1, 40, 110
3, 342716, Note_off_c, 1, 40, 100
3, 342720, Note_on_c, 1, 38, 111
3, 342812, Note_off_c, 1, 38, 100
3, 342816, Note_on_c, 1, 36, 112
3, 342908, Note_off_c, 1, 36, 100
3, 342912, Note_on_c, 1, 34, 113
3, 343004, Note_off_c, 1, 34, 100
3, 343008, Note_on_c, 1, 32, 114
3, 343100, Note_off_c, 1, 32, 100
3, 343104, Note_on_c, 1, 31, 115
3, 343196, Note_off_c, 1, 31, 100
3, 343200, Note_on_c, 1, 29, 116
3, 343292, Note_off_c, 1, 29, 100
3, 343296, Note_on_c, 1, 31, 117
3, 343388, Note_off_c, 1, 31, 100
3, 343392, Note_on_c, 1, 32, 118
3, 343484, Note_off_c, 1, 32, 100
3, 343488, Note_on_c, 1, 34, 119
3, 343580, Note_off_c, 1, 34, 100
3, 343584, Note_on_c, 1, 36, 120
3, 343676, Note_off_c, 1, 36, 100
3, 343680, Note_on_c, 1, 38, 121
3, 343772, Note_off_c, 1, 38, 100
3, 343776, Note_on_c, 1, 40, 122
3, 343868, Note_off_c, 1, 40, 100
3, 343872, Note_on_c, 1, 41, 123
3, 343964, Note_off_c, 1, 41, 100
3, 343968, Note_on_c, 1, 43, 124
3, 344060, Note_off_c, 1, 43, 100
3, 344064, Note_on_c, 1, 42, 124
3, 344064, Note_on_c, 1, 30, 124
3, 344636, Note_off_c, 1, 42, 100
3, 344636, Note_off_c, 1, 30, 100
3, 346848, Note_on_c, 1, 39, 111
3, 346944, Note_on_c, 1, 36, 111
3, 347040, Note_on_c, 1, 33, 111
3, 347136, Note_on_c, 1, 30, 111
3, 347224, Note_off_c, 1, 39, 64
3, 347232, Note_on_c, 1, 39, 110
3, 347324, Note_off_c, 1, 36, 64
3, 347328, Note_on_c, 1, 36, 108
3, 347420, Note_off_c, 1, 33, 64
3, 347424, Note_on_c, 1, 33, 105
3, 347500, Note_off_c, 1, 30, 100
3, 347520, Note_on_c, 1, 30, 102
3, 347612, Note_off_c, 1, 39, 100
3, 347616, Note_on_c, 1, 39, 99
3, 347704, Note_off_c, 1, 36, 100
3, 347712, Note_on_c, 1, 36, 96
3, 347804, Note_off_c, 1, 33, 100
3, 347808, Note_on_c, 1, 33, 93
3, 347900, Note_off_c, 1, 30, 64
3, 347904, Note_on_c, 1, 30, 91
3, 347996, Note_off_c, 1, 39, 64
3, 348000, Note_on_c, 1, 39, 88
3, 348092, Note_off_c, 1, 36, 64
3, 348096, Note_on_c, 1, 36, 85
3, 348188, Note_off_c, 1, 33, 64
3, 348192, Note_on_c, 1, 33, 82
3, 348280, Note_off_c, 1, 30, 100
3, 348288, Note_on_c, 1, 30, 79
3, 348372, Note_off_c, 1, 39, 100
3, 348384, Note_on_c, 1, 39, 76
3, 348464, Note_off_c, 1, 36, 100
3, 348480, Note_on_c, 1, 36, 73
3, 348568, Note_off_c, 1, 33, 100
3, 348576, Note_on_c, 1, 33, 71
3, 348668, Note_off_c, 1, 30, 100
3, 348668, Note_off_c, 1, 39, 100
3, 348668, Note_off_c, 1, 36, 100
3, 348668, Note_off_c, 1, 33, 100
3, 348672, Note_on_c, 1, 29, 80
3, 349052, Note_off_c, 1, 29, 100
3, 350112, Note_on_c, 1, 41, 80
3, 350204, Note_off_c, 1, 41, 100
3, 350208, Note_on_c, 1, 29, 80
3, 350588, Note_off_c, 1, 29, 100
3, 351648, Note_on_c, 1, 41, 80
3, 351740, Note_off_c, 1, 41, 100
3, 351744, Note_on_c, 1, 29, 80
3, 352124, Note_off_c, 1, 29, 100
3, 352320, Note_on_c, 1, 57, 80
3, 352412, Note_off_c, 1, 57, 100
3, 352416, Note_on_c, 1, 58, 80
3, 352508, Note_off_c, 1, 58, 100
3, 352512, Note_on_c, 1, 60, 80
3, 352604, Note_off_c, 1, 60, 100
3, 352608, Note_on_c, 1, 61, 80
3, 352700, Note_off_c, 1, 61, 100
3, 352704, Note_on_c, 1, 60, 80
3, 352796, Note_off_c, 1, 60, 100
3, 352800, Note_on_c, 1, 58, 80
3, 352892, Note_off_c, 1, 58, 100
3, 352896, Note_on_c, 1, 57, 80
3, 353084, Note_off_c, 1, 57, 100
3, 353088, Note_on_c, 1, 57, 80
3, 353180, Note_off_c, 1, 57, 100
3, 353184, Note_on_c, 1, 58, 80
3, 353276, Note_off_c, 1, 58, 100
3, 353280, Note_on_c, 1, 60, 80
3, 353372, Note_off_c, 1, 60, 100
3, 353376, Note_on_c, 1, 61, 80
3, 353468, Note_off_c, 1, 61, 100
3, 353472, Note_on_c, 1, 60, 80
3, 353564, Note_off_c, 1, 60, 100
3, 353568, Note_on_c, 1, 58, 80
3, 353660, Note_off_c, 1, 58, 100
3, 353664, Note_on_c, 1, 57, 80
3, 353852, Note_off_c, 1, 57, 100
3, 353856, Note_on_c, 1, 57, 80
3, 353948, Note_off_c, 1, 57, 100
3, 353952, Note_on_c, 1, 58, 80
3, 354044, Note_off_c, 1, 58, 100
3, 354048, Note_on_c, 1, 60, 80
3, 354140, Note_off_c, 1, 60, 100
3, 354144, Note_on_c, 1, 61, 80
3, 354236, Note_off_c, 1, 61, 100
3, 354240, Note_on_c, 1, 60, 80
3, 354332, Note_off_c, 1, 60, 100
3, 354336, Note_on_c, 1, 58, 80
3, 354428, Note_off_c, 1, 58, 100
3, 354432, Note_on_c, 1, 57, 80
3, 354524, Note_off_c, 1, 57, 100
3, 354528, Note_on_c, 1, 54, 80
3, 354620, Note_off_c, 1, 54, 100
3, 354624, Note_on_c, 1, 53, 80
3, 354716, Note_off_c, 1, 53, 100
3, 354720, Note_on_c, 1, 51, 80
3, 354812, Note_off_c, 1, 51, 100
3, 354816, Note_on_c, 1, 49, 80
3, 354912, Note_on_c, 1, 53, 80
3, 355004, Note_off_c, 1, 53, 100
3, 355008, Note_on_c, 1, 58, 80
3, 355100, Note_off_c, 1, 58, 100
3, 355104, Note_on_c, 1, 53, 80
3, 355196, Note_off_c, 1, 53, 100
3, 355200, Note_on_c, 1, 58, 80
3, 355292, Note_off_c, 1, 58, 100
3, 355296, Note_on_c, 1, 53, 80
3, 355388, Note_off_c, 1, 53, 100
3, 355392, Note_on_c, 1, 58, 80
3, 355484, Note_off_c, 1, 58, 100
3, 355488, Note_on_c, 1, 53, 80
3, 355580, Note_off_c, 1, 53, 100
3, 355584, Note_on_c, 1, 58, 80
3, 355676, Note_off_c, 1, 58, 100
3, 355680, Note_on_c, 1, 53, 80
3, 355772, Note_off_c, 1, 53, 100
3, 355776, Note_on_c, 1, 58, 80
3, 355868, Note_off_c, 1, 58, 100
3, 355872, Note_on_c, 1, 53, 80
3, 355920, Note_on_c, 1, 58, 80
3, 355964, Note_off_c, 1, 53, 100
3, 356012, Note_off_c, 1, 58, 100
3, 356016, Note_on_c, 1, 53, 80
3, 356108, Note_off_c, 1, 53, 100
3, 356112, Note_on_c, 1, 58, 80
3, 356204, Note_off_c, 1, 58, 100
3, 356208, Note_on_c, 1, 53, 80
3, 356300, Note_off_c, 1, 53, 100
3, 356348, Note_off_c, 1, 49, 64
3, 356352, Note_on_c, 1, 49, 80
3, 356448, Note_on_c, 1, 53, 80
3, 356540, Note_off_c, 1, 53, 100
3, 356544, Note_on_c, 1, 58, 80
3, 356636, Note_off_c, 1, 58, 100
3, 356640, Note_on_c, 1, 53, 80
3, 356732, Note_off_c, 1, 53, 100
3, 356736, Note_on_c, 1, 58, 80
3, 356828, Note_off_c, 1, 58, 100
3, 356832, Note_on_c, 1, 53, 80
3, 356924, Note_off_c, 1, 53, 100
3, 356928, Note_on_c, 1, 58, 80
3, 357020, Note_off_c, 1, 58, 100
3, 357024, Note_on_c, 1, 53, 80
3, 357116, Note_off_c, 1, 53, 100
3, 357120, Note_on_c, 1, 58, 80
3, 357212, Note_off_c, 1, 58, 100
3, 357216, Note_on_c, 1, 53, 80
3, 357308, Note_off_c, 1, 53, 100
3, 357312, Note_on_c, 1, 58, 80
3, 357404, Note_off_c, 1, 58, 100
3, 357408, Note_on_c, 1, 53, 80
3, 357456, Note_on_c, 1, 58, 80
3, 357500, Note_off_c, 1, 53, 100
3, 357548, Note_off_c, 1, 58, 100
3, 357552, Note_on_c, 1, 53, 80
3, 357644, Note_off_c, 1, 53, 100
3, 357648, Note_on_c, 1, 58, 80
3, 357740, Note_off_c, 1, 58, 100
3, 357744, Note_on_c, 1, 53, 80
3, 357836, Note_off_c, 1, 53, 100
3, 357884, Note_off_c, 1, 49, 64
3, 357888, Note_on_c, 1, 51, 80
3, 357984, Note_on_c, 1, 54, 80
3, 358076, Note_off_c, 1, 54, 100
3, 358080, Note_on_c, 1, 59, 80
3, 358172, Note_off_c, 1, 59, 100
3, 358176, Note_on_c, 1, 54, 80
3, 358268, Note_off_c, 1, 54, 100
3, 358272, Note_on_c, 1, 59, 80
3, 358364, Note_off_c, 1, 59, 100
3, 358368, Note_on_c, 1, 54, 80
3, 358460, Note_off_c, 1, 54, 100
3, 358464, Note_on_c, 1, 59, 80
3, 358556, Note_off_c, 1, 59, 100
3, 358560, Note_on_c, 1, 54, 80
3, 358652, Note_off_c, 1, 54, 100
3, 358656, Note_on_c, 1, 59, 80
3, 358748, Note_off_c, 1, 59, 100
3, 358752, Note_on_c, 1, 54, 80
3, 358844, Note_off_c, 1, 54, 100
3, 358848, Note_on_c, 1, 59, 80
3, 358940, Note_off_c, 1, 59, 100
3, 358944, Note_on_c, 1, 54, 80
3, 359036, Note_off_c, 1, 54, 100
3, 359040, Note_on_c, 1, 59, 80
3, 359132, Note_off_c, 1, 59, 100
3, 359136, Note_on_c, 1, 54, 80
3, 359228, Note_off_c, 1, 54, 100
3, 359232, Note_on_c, 1, 59, 80
3, 359324, Note_off_c, 1, 59, 100
3, 359328, Note_on_c, 1, 54, 80
3, 359420, Note_off_c, 1, 51, 64
3, 359420, Note_off_c, 1, 54, 100
3, 359424, Note_on_c, 1, 53, 80
3, 359520, Note_on_c, 1, 58, 80
3, 359612, Note_off_c, 1, 58, 100
3, 359616, Note_on_c, 1, 61, 80
3, 359708, Note_off_c, 1, 61, 100
3, 359712, Note_on_c, 1, 58, 80
3, 359804, Note_off_c, 1, 58, 100
3, 359808, Note_on_c, 1, 61, 80
3, 359900, Note_off_c, 1, 61, 100
3, 359904, Note_on_c, 1, 58, 80
3, 359996, Note_off_c, 1, 58, 100
3, 360000, Note_on_c, 1, 61, 80
3, 360092, Note_off_c, 1, 61, 100
3, 360096, Note_on_c, 1, 58, 80
3, 360188, Note_off_c, 1, 53, 100
3, 360188, Note_off_c, 1, 58, 100
3, 360192, Note_on_c, 1, 51, 80
3, 360288, Note_on_c, 1, 53, 80
3, 360380, Note_off_c, 1, 53, 100
3, 360384, Note_on_c, 1, 60, 80
3, 360476, Note_off_c, 1, 60, 100
3, 360480, Note_on_c, 1, 53, 80
3, 360572, Note_off_c, 1, 53, 100
3, 360576, Note_on_c, 1, 60, 80
3, 360668, Note_off_c, 1, 60, 100
3, 360672, Note_on_c, 1, 53, 80
3, 360764, Note_off_c, 1, 53, 100
3, 360768, Note_on_c, 1, 60, 80
3, 360860, Note_off_c, 1, 60, 100
3, 360864, Note_on_c, 1, 53, 80
3, 360956, Note_off_c, 1, 51, 100
3, 360956, Note_off_c, 1, 53, 100
3, 360960, Note_on_c, 1, 49, 80
3, 361052, Note_off_c, 1, 49, 100
3, 361056, Note_on_c, 1, 65, 80
3, 361148, Note_off_c, 1, 65, 100
3, 361344, Note_on_c, 1, 58, 83
3, 361440, Note_on_c, 1, 61, 84
3, 361532, Note_off_c, 1, 61, 100
3, 361536, Note_on_c, 1, 65, 85
3, 361628, Note_off_c, 1, 65, 100
3, 361632, Note_on_c, 1, 61, 86
3, 361724, Note_off_c, 1, 58, 100
3, 361724, Note_off_c, 1, 61, 100
3, 361728, Note_on_c, 1, 57, 87
3, 361824, Note_on_c, 1, 61, 88
3, 361916, Note_off_c, 1, 61, 100
3, 361920, Note_on_c, 1, 65, 89
3, 362012, Note_off_c, 1, 65, 100
3, 362016, Note_on_c, 1, 61, 90
3, 362108, Note_off_c, 1, 57, 100
3, 362108, Note_off_c, 1, 61, 100
3, 362112, Note_on_c, 1, 58, 91
3, 362208, Note_on_c, 1, 61, 92
3, 362300, Note_off_c, 1, 61, 100
3, 362304, Note_on_c, 1, 65, 93
3, 362396, Note_off_c, 1, 65, 100
3, 362400, Note_on_c, 1, 61, 94
3, 362492, Note_off_c, 1, 58, 100
3, 362492, Note_off_c, 1, 61, 100
3, 362496, Note_on_c, 1, 49, 95
3, 362588, Note_off_c, 1, 49, 100
3, 362592, Note_on_c, 1, 65, 96
3, 362684, Note_off_c, 1, 65, 100
3, 362880, Note_on_c, 1, 58, 99
3, 362976, Note_on_c, 1, 61, 100
3, 363068, Note_off_c, 1, 61, 100
3, 363072, Note_on_c, 1, 65, 101
3, 363164, Note_off_c, 1, 65, 100
3, 363168, Note_on_c, 1, 61, 102
3, 363260, Note_off_c, 1, 58, 100
3, 363260, Note_off_c, 1, 61, 100
3, 363264, Note_on_c, 1, 57, 103
3, 363360, Note_on_c, 1, 61, 104
3, 363452, Note_off_c, 1, 61, 100
3, 363456, Note_on_c, 1, 65, 105
3, 363548, Note_off_c, 1, 65, 100
3, 363552, Note_on_c, 1, 61, 106
3, 363644, Note_off_c, 1, 57, 100
3, 363644, Note_off_c, 1, 61, 100
3, 363648, Note_on_c, 1, 58, 107
3, 363744, Note_on_c, 1, 61, 108
3, 363836, Note_off_c, 1, 61, 100
3, 363840, Note_on_c, 1, 65, 108
3, 363932, Note_off_c, 1, 65, 100
3, 363936, Note_on_c, 1, 61, 109
3, 364028, Note_off_c, 1, 58, 100
3, 364028, Note_off_c, 1, 61, 100
3, 364032, Note_on_c, 1, 51, 110
3, 364124, Note_off_c, 1, 51, 100
3, 364128, Note_on_c, 1, 71, 110
3, 364128, Note_on_c, 1, 66, 110
3, 364220, Note_off_c, 1, 71, 100
3, 364220, Note_off_c, 1, 66, 100
3, 364224, Note_on_c, 1, 63, 110
3, 364316, Note_off_c, 1, 63, 100
3, 364320, Note_on_c, 1, 71, 110
3, 364320, Note_on_c, 1, 66, 110
3, 364412, Note_off_c, 1, 71, 100
3, 364412, Note_off_c, 1, 66, 100
3, 364416, Note_on_c, 1, 63, 110
3, 364508, Note_off_c, 1, 63, 100
3, 364512, Note_on_c, 1, 71, 110
3, 364512, Note_on_c, 1, 66, 110
3, 364604, Note_off_c, 1, 71, 100
3, 364604, Note_off_c, 1, 66, 100
3, 364608, Note_on_c, 1, 63, 110
3, 364700, Note_off_c, 1, 63, 100
3, 364704, Note_on_c, 1, 71, 110
3, 364704, Note_on_c, 1, 66, 110
3, 364796, Note_off_c, 1, 71, 100
3, 364796, Note_off_c, 1, 66, 100
3, 364800, Note_on_c, 1, 63, 110
3, 364892, Note_off_c, 1, 63, 100
3, 364896, Note_on_c, 1, 71, 110
3, 364896, Note_on_c, 1, 66, 110
3, 364988, Note_off_c, 1, 71, 100
3, 364988, Note_off_c, 1, 66, 100
3, 364992, Note_on_c, 1, 63, 110
3, 365084, Note_off_c, 1, 63, 100
3, 365088, Note_on_c, 1, 71, 110
3, 365088, Note_on_c, 1, 66, 110
3, 365180, Note_off_c, 1, 71, 100
3, 365180, Note_off_c, 1, 66, 100
3, 365184, Note_on_c, 1, 63, 110
3, 365276, Note_off_c, 1, 63, 100
3, 365280, Note_on_c, 1, 71, 110
3, 365280, Note_on_c, 1, 66, 110
3, 365372, Note_off_c, 1, 71, 100
3, 365372, Note_off_c, 1, 66, 100
3, 365376, Note_on_c, 1, 63, 110
3, 365468, Note_off_c, 1, 63, 100
3, 365472, Note_on_c, 1, 71, 110
3, 365472, Note_on_c, 1, 66, 110
3, 365564, Note_off_c, 1, 71, 100
3, 365564, Note_off_c, 1, 66, 100
3, 365568, Note_on_c, 1, 65, 110
3, 365660, Note_off_c, 1, 65, 100
3, 365664, Note_on_c, 1, 75, 110
3, 365664, Note_on_c, 1, 72, 110
3, 365664, Note_on_c, 1, 69, 110
3, 365756, Note_off_c, 1, 75, 100
3, 365756, Note_off_c, 1, 72, 100
3, 365756, Note_off_c, 1, 69, 100
3, 365760, Note_on_c, 1, 65, 110
3, 365852, Note_off_c, 1, 65, 100
3, 365856, Note_on_c, 1, 75, 110
3, 365856, Note_on_c, 1, 72, 110
3, 365856, Note_on_c, 1, 69, 110
3, 365948, Note_off_c, 1, 75, 100
3, 365948, Note_off_c, 1, 72, 100
3, 365948, Note_off_c, 1, 69, 100
3, 365952, Note_on_c, 1, 65, 110
3, 366044, Note_off_c, 1, 65, 100
3, 366048, Note_on_c, 1, 75, 110
3, 366048, Note_on_c, 1, 72, 110
3, 366048, Note_on_c, 1, 69, 110
3, 366140, Note_off_c, 1, 75, 100
3, 366140, Note_off_c, 1, 72, 100
3, 366140, Note_off_c, 1, 69, 100
3, 366144, Note_on_c, 1, 65, 110
3, 366236, Note_off_c, 1, 65, 100
3, 366240, Note_on_c, 1, 75, 110
3, 366240, Note_on_c, 1, 72, 110
3, 366240, Note_on_c, 1, 69, 110
3, 366332, Note_off_c, 1, 75, 100
3, 366332, Note_off_c, 1, 72, 100
3, 366332, Note_off_c, 1, 69, 100
3, 366336, Note_on_c, 1, 65, 110
3, 366428, Note_off_c, 1, 65, 100
3, 366432, Note_on_c, 1, 69, 110
3, 366524, Note_off_c, 1, 69, 100
3, 366528, Note_on_c, 1, 65, 110
3, 366620, Note_off_c, 1, 65, 100
3, 366624, Note_on_c, 1, 69, 110
3, 366716, Note_off_c, 1, 69, 100
3, 366720, Note_on_c, 1, 53, 110
3, 366812, Note_off_c, 1, 53, 100
3, 366816, Note_on_c, 1, 65, 110
3, 366908, Note_off_c, 1, 65, 100
3, 366912, Note_on_c, 1, 53, 110
3, 367004, Note_off_c, 1, 53, 100
3, 367008, Note_on_c, 1, 65, 110
3, 367100, Note_off_c, 1, 65, 100
3, 367104, Note_on_c, 1, 46, 110
3, 367292, Note_off_c, 1, 46, 100
3, 367296, Note_on_c, 1, 58, 80
3, 367296, Note_on_c, 1, 61, 80
3, 367388, Note_off_c, 1, 58, 100
3, 367388, Note_off_c, 1, 61, 100
3, 367392, Note_on_c, 1, 65, 80
3, 367484, Note_off_c, 1, 65, 100
3, 367488, Note_on_c, 1, 61, 80
3, 367488, Note_on_c, 1, 58, 80
3, 367580, Note_off_c, 1, 61, 100
3, 367580, Note_off_c, 1, 58, 100
3, 367584, Note_on_c, 1, 65, 80
3, 367676, Note_off_c, 1, 65, 100
3, 367680, Note_on_c, 1, 61, 80
3, 367680, Note_on_c, 1, 58, 80
3, 367772, Note_off_c, 1, 61, 100
3, 367772, Note_off_c, 1, 58, 100
3, 367776, Note_on_c, 1, 65, 80
3, 367868, Note_off_c, 1, 65, 100
3, 367872, Note_on_c, 1, 61, 80
3, 367872, Note_on_c, 1, 58, 80
3, 367964, Note_off_c, 1, 61, 100
3, 367964, Note_off_c, 1, 58, 100
3, 367968, Note_on_c, 1, 65, 80
3, 368060, Note_off_c, 1, 65, 100
3, 368064, Note_on_c, 1, 61, 80
3, 368064, Note_on_c, 1, 58, 80
3, 368156, Note_off_c, 1, 61, 100
3, 368156, Note_off_c, 1, 58, 100
3, 368160, Note_on_c, 1, 64, 80
3, 368252, Note_off_c, 1, 64, 100
3, 368256, Note_on_c, 1, 61, 80
3, 368256, Note_on_c, 1, 58, 80
3, 368348, Note_off_c, 1, 61, 100
3, 368348, Note_off_c, 1, 58, 100
3, 368352, Note_on_c, 1, 64, 80
3, 368444, Note_off_c, 1, 64, 100
3, 368448, Note_on_c, 1, 61, 80
3, 368448, Note_on_c, 1, 58, 80
3, 368540, Note_off_c, 1, 61, 100
3, 368540, Note_off_c, 1, 58, 100
3, 368544, Note_on_c, 1, 64, 80
3, 368636, Note_off_c, 1, 64, 100
3, 368640, Note_on_c, 1, 60, 80
3, 368640, Note_on_c, 1, 57, 80
3, 368732, Note_off_c, 1, 60, 100
3, 368732, Note_off_c, 1, 57, 100
3, 368736, Note_on_c, 1, 64, 80
3, 368828, Note_off_c, 1, 64, 100
3, 368832, Note_on_c, 1, 60, 80
3, 368832, Note_on_c, 1, 57, 80
3, 368924, Note_off_c, 1, 60, 100
3, 368924, Note_off_c, 1, 57, 100
3, 368928, Note_on_c, 1, 65, 80
3, 369020, Note_off_c, 1, 65, 100
3, 369024, Note_on_c, 1, 60, 80
3, 369024, Note_on_c, 1, 57, 80
3, 369116, Note_off_c, 1, 60, 100
3, 369116, Note_off_c, 1, 57, 100
3, 369120, Note_on_c, 1, 65, 80
3, 369212, Note_off_c, 1, 65, 100
3, 369216, Note_on_c, 1, 60, 80
3, 369216, Note_on_c, 1, 57, 80
3, 369308, Note_off_c, 1, 60, 100
3, 369308, Note_off_c, 1, 57, 100
3, 369312, Note_on_c, 1, 65, 80
3, 369404, Note_off_c, 1, 65, 100
3, 369408, Note_on_c, 1, 60, 80
3, 369408, Note_on_c, 1, 57, 80
3, 369500, Note_off_c, 1, 60, 100
3, 369500, Note_off_c, 1, 57, 100
3, 369504, Note_on_c, 1, 65, 80
3, 369596, Note_off_c, 1, 65, 100
3, 369600, Note_on_c, 1, 60, 80
3, 369600, Note_on_c, 1, 57, 80
3, 369692, Note_off_c, 1, 60, 100
3, 369692, Note_off_c, 1, 57, 100
3, 369696, Note_on_c, 1, 65, 80
3, 369788, Note_off_c, 1, 65, 100
3, 369792, Note_on_c, 1, 60, 80
3, 369792, Note_on_c, 1, 57, 80
3, 369884, Note_off_c, 1, 60, 100
3, 369884, Note_off_c, 1, 57, 100
3, 369888, Note_on_c, 1, 65, 80
3, 369980, Note_off_c, 1, 65, 100
3, 369984, Note_on_c, 1, 60, 80
3, 369984, Note_on_c, 1, 57, 80
3, 370076, Note_off_c, 1, 60, 100
3, 370076, Note_off_c, 1, 57, 100
3, 370080, Note_on_c, 1, 65, 80
3, 370172, Note_off_c, 1, 65, 100
3, 370176, Note_on_c, 1, 58, 80
3, 370176, Note_on_c, 1, 61, 80
3, 370268, Note_off_c, 1, 58, 100
3, 370268, Note_off_c, 1, 61, 100
3, 370272, Note_on_c, 1, 65, 80
3, 370364, Note_off_c, 1, 65, 100
3, 370368, Note_on_c, 1, 58, 110
3, 370368, Note_on_c, 1, 61, 110
3, 370460, Note_off_c, 1, 58, 100
3, 370460, Note_off_c, 1, 61, 100
3, 370464, Note_on_c, 1, 65, 110
3, 370556, Note_off_c, 1, 65, 100
3, 370560, Note_on_c, 1, 61, 110
3, 370560, Note_on_c, 1, 58, 110
3, 370652, Note_off_c, 1, 61, 100
3, 370652, Note_off_c, 1, 58, 100
3, 370656, Note_on_c, 1, 65, 110
3, 370748, Note_off_c, 1, 65, 100
3, 370752, Note_on_c, 1, 61, 110
3, 370752, Note_on_c, 1, 58, 110
3, 370844, Note_off_c, 1, 61, 100
3, 370844, Note_off_c, 1, 58, 100
3, 370848, Note_on_c, 1, 65, 110
3, 370940, Note_off_c, 1, 65, 100
3, 370944, Note_on_c, 1, 61, 110
3, 370944, Note_on_c, 1, 58, 110
3, 371036, Note_off_c, 1, 61, 100
3, 371036, Note_off_c, 1, 58, 100
3, 371040, Note_on_c, 1, 65, 110
3, 371132, Note_off_c, 1, 65, 100
3, 371136, Note_on_c, 1, 61, 110
3, 371136, Note_on_c, 1, 58, 110
3, 371228, Note_off_c, 1, 61, 100
3, 371228, Note_off_c, 1, 58, 100
3, 371232, Note_on_c, 1, 64, 110
3, 371324, Note_off_c, 1, 64, 100
3, 371328, Note_on_c, 1, 61, 110
3, 371328, Note_on_c, 1, 58, 110
3, 371420, Note_off_c, 1, 61, 100
3, 371420, Note_off_c, 1, 58, 100
3, 371424, Note_on_c, 1, 64, 110
3, 371516, Note_off_c, 1, 64, 100
3, 371520, Note_on_c, 1, 61, 110
3, 371520, Note_on_c, 1, 58, 110
3, 371612, Note_off_c, 1, 61, 100
3, 371612, Note_off_c, 1, 58, 100
3, 371616, Note_on_c, 1, 64, 110
3, 371708, Note_off_c, 1, 64, 100
3, 371712, Note_on_c, 1, 60, 110
3, 371712, Note_on_c, 1, 57, 110
3, 371804, Note_off_c, 1, 60, 100
3, 371804, Note_off_c, 1, 57, 100
3, 371808, Note_on_c, 1, 64, 110
3, 371900, Note_off_c, 1, 64, 100
3, 371904, Note_on_c, 1, 60, 110
3, 371904, Note_on_c, 1, 57, 110
3, 371996, Note_off_c, 1, 60, 100
3, 371996, Note_off_c, 1, 57, 100
3, 372000, Note_on_c, 1, 65, 110
3, 372092, Note_off_c, 1, 65, 100
3, 372096, Note_on_c, 1, 60, 110
3, 372096, Note_on_c, 1, 57, 110
3, 372188, Note_off_c, 1, 60, 100
3, 372188, Note_off_c, 1, 57, 100
3, 372192, Note_on_c, 1, 65, 110
3, 372284, Note_off_c, 1, 65, 100
3, 372288, Note_on_c, 1, 60, 110
3, 372288, Note_on_c, 1, 57, 110
3, 372380, Note_off_c, 1, 60, 100
3, 372380, Note_off_c, 1, 57, 100
3, 372384, Note_on_c, 1, 65, 110
3, 372476, Note_off_c, 1, 65, 100
3, 372480, Note_on_c, 1, 60, 110
3, 372480, Note_on_c, 1, 57, 110
3, 372572, Note_off_c, 1, 60, 100
3, 372572, Note_off_c, 1, 57, 100
3, 372576, Note_on_c, 1, 65, 110
3, 372668, Note_off_c, 1, 65, 100
3, 372672, Note_on_c, 1, 60, 110
3, 372672, Note_on_c, 1, 57, 110
3, 372764, Note_off_c, 1, 60, 100
3, 372764, Note_off_c, 1, 57, 100
3, 372768, Note_on_c, 1, 65, 110
3, 372860, Note_off_c, 1, 65, 100
3, 372864, Note_on_c, 1, 60, 110
3, 372864, Note_on_c, 1, 57, 110
3, 372956, Note_off_c, 1, 60, 100
3, 372956, Note_off_c, 1, 57, 100
3, 372960, Note_on_c, 1, 65, 110
3, 373052, Note_off_c, 1, 65, 100
3, 373056, Note_on_c, 1, 60, 110
3, 373056, Note_on_c, 1, 57, 110
3, 373148, Note_off_c, 1, 60, 100
3, 373148, Note_off_c, 1, 57, 100
3, 373152, Note_on_c, 1, 65, 110
3, 373244, Note_off_c, 1, 65, 100
3, 373248, Note_on_c, 1, 61, 110
3, 373248, Note_on_c, 1, 58, 110
3, 373340, Note_off_c, 1, 61, 100
3, 373340, Note_off_c, 1, 58, 100
3, 373344, Note_on_c, 1, 65, 110
3, 373436, Note_off_c, 1, 65, 100
3, 373440, Note_on_c, 1, 55, 80
3, 373440, Note_on_c, 1, 52, 80
3, 373532, Note_off_c, 1, 55, 100
3, 373532, Note_off_c, 1, 52, 100
3, 373536, Note_on_c, 1, 60, 80
3, 373628, Note_off_c, 1, 60, 100
3, 373632, Note_on_c, 1, 55, 80
3, 373632, Note_on_c, 1, 52, 80
3, 373724, Note_off_c, 1, 55, 100
3, 373724, Note_off_c, 1, 52, 100
3, 373728, Note_on_c, 1, 60, 80
3, 373820, Note_off_c, 1, 60, 100
3, 373824, Note_on_c, 1, 55, 80
3, 373824, Note_on_c, 1, 52, 80
3, 373916, Note_off_c, 1, 55, 100
3, 373916, Note_off_c, 1, 52, 100
3, 373920, Note_on_c, 1, 60, 80
3, 374012, Note_off_c, 1, 60, 100
3, 374016, Note_on_c, 1, 56, 80
3, 374016, Note_on_c, 1, 53, 80
3, 374108, Note_off_c, 1, 56, 100
3, 374108, Note_off_c, 1, 53, 100
3, 374112, Note_on_c, 1, 60, 80
3, 374204, Note_off_c, 1, 60, 100
3, 374208, Note_on_c, 1, 56, 80
3, 374208, Note_on_c, 1, 53, 80
3, 374300, Note_off_c, 1, 56, 100
3, 374300, Note_off_c, 1, 53, 100
3, 374304, Note_on_c, 1, 62, 80
3, 374396, Note_off_c, 1, 62, 100
3, 374400, Note_on_c, 1, 56, 80
3, 374400, Note_on_c, 1, 53, 80
3, 374492, Note_off_c, 1, 56, 100
3, 374492, Note_off_c, 1, 53, 100
3, 374496, Note_on_c, 1, 62, 80
3, 374588, Note_off_c, 1, 62, 100
3, 374592, Note_on_c, 1, 56, 80
3, 374592, Note_on_c, 1, 53, 80
3, 374684, Note_off_c, 1, 56, 100
3, 374684, Note_off_c, 1, 53, 100
3, 374688, Note_on_c, 1, 62, 80
3, 374780, Note_off_c, 1, 62, 100
3, 374784, Note_on_c, 1, 55, 80
3, 374784, Note_on_c, 1, 52, 80
3, 374876, Note_off_c, 1, 55, 100
3, 374876, Note_off_c, 1, 52, 100
3, 374880, Note_on_c, 1, 62, 80
3, 374972, Note_off_c, 1, 62, 100
3, 374976, Note_on_c, 1, 52, 80
3, 374976, Note_on_c, 1, 55, 80
3, 375068, Note_off_c, 1, 52, 100
3, 375068, Note_off_c, 1, 55, 100
3, 375072, Note_on_c, 1, 60, 80
3, 375164, Note_off_c, 1, 60, 100
3, 375168, Note_on_c, 1, 52, 80
3, 375168, Note_on_c, 1, 55, 80
3, 375260, Note_off_c, 1, 52, 100
3, 375260, Note_off_c, 1, 55, 100
3, 375264, Note_on_c, 1, 60, 80
3, 375356, Note_off_c, 1, 60, 100
3, 375360, Note_on_c, 1, 52, 80
3, 375360, Note_on_c, 1, 55, 80
3, 375452, Note_off_c, 1, 52, 100
3, 375452, Note_off_c, 1, 55, 100
3, 375456, Note_on_c, 1, 60, 80
3, 375548, Note_off_c, 1, 60, 100
3, 375552, Note_on_c, 1, 52, 80
3, 375552, Note_on_c, 1, 55, 80
3, 375644, Note_off_c, 1, 52, 100
3, 375644, Note_off_c, 1, 55, 100
3, 375648, Note_on_c, 1, 60, 80
3, 375740, Note_off_c, 1, 60, 100
3, 375744, Note_on_c, 1, 52, 80
3, 375744, Note_on_c, 1, 55, 80
3, 375836, Note_off_c, 1, 52, 100
3, 375836, Note_off_c, 1, 55, 100
3, 375840, Note_on_c, 1, 60, 80
3, 375932, Note_off_c, 1, 60, 100
3, 375936, Note_on_c, 1, 52, 80
3, 375936, Note_on_c, 1, 55, 80
3, 376028, Note_off_c, 1, 52, 100
3, 376028, Note_off_c, 1, 55, 100
3, 376032, Note_on_c, 1, 60, 80
3, 376124, Note_off_c, 1, 60, 100
3, 376128, Note_on_c, 1, 52, 80
3, 376128, Note_on_c, 1, 55, 80
3, 376220, Note_off_c, 1, 52, 100
3, 376220, Note_off_c, 1, 55, 100
3, 376224, Note_on_c, 1, 60, 80
3, 376316, Note_off_c, 1, 60, 100
3, 376320, Note_on_c, 1, 56, 80
3, 376320, Note_on_c, 1, 53, 80
3, 376412, Note_off_c, 1, 56, 100
3, 376412, Note_off_c, 1, 53, 100
3, 376416, Note_on_c, 1, 60, 80
3, 376508, Note_off_c, 1, 60, 100
3, 376512, Note_on_c, 1, 56, 110
3, 376512, Note_on_c, 1, 53, 110
3, 376604, Note_off_c, 1, 56, 100
3, 376604, Note_off_c, 1, 53, 100
3, 376608, Note_on_c, 1, 60, 110
3, 376700, Note_off_c, 1, 60, 100
3, 376704, Note_on_c, 1, 56, 110
3, 376704, Note_on_c, 1, 53, 110
3, 376796, Note_off_c, 1, 56, 100
3, 376796, Note_off_c, 1, 53, 100
3, 376800, Note_on_c, 1, 60, 110
3, 376892, Note_off_c, 1, 60, 100
3, 376896, Note_on_c, 1, 56, 110
3, 376896, Note_on_c, 1, 53, 110
3, 376988, Note_off_c, 1, 56, 100
3, 376988, Note_off_c, 1, 53, 100
3, 376992, Note_on_c, 1, 60, 110
3, 377084, Note_off_c, 1, 60, 100
3, 377088, Note_on_c, 1, 56, 110
3, 377088, Note_on_c, 1, 53, 110
3, 377180, Note_off_c, 1, 56, 100
3, 377180, Note_off_c, 1, 53, 100
3, 377184, Note_on_c, 1, 60, 110
3, 377276, Note_off_c, 1, 60, 100
3, 377280, Note_on_c, 1, 56, 110
3, 377280, Note_on_c, 1, 53, 110
3, 377372, Note_off_c, 1, 56, 100
3, 377372, Note_off_c, 1, 53, 100
3, 377376, Note_on_c, 1, 62, 110
3, 377468, Note_off_c, 1, 62, 100
3, 377472, Note_on_c, 1, 56, 110
3, 377472, Note_on_c, 1, 53, 110
3, 377564, Note_off_c, 1, 56, 100
3, 377564, Note_off_c, 1, 53, 100
3, 377568, Note_on_c, 1, 62, 110
3, 377660, Note_off_c, 1, 62, 100
3, 377664, Note_on_c, 1, 56, 110
3, 377664, Note_on_c, 1, 53, 110
3, 377756, Note_off_c, 1, 56, 100
3, 377756, Note_off_c, 1, 53, 100
3, 377760, Note_on_c, 1, 62, 110
3, 377852, Note_off_c, 1, 62, 100
3, 377856, Note_on_c, 1, 55, 110
3, 377856, Note_on_c, 1, 52, 110
3, 377948, Note_off_c, 1, 55, 100
3, 377948, Note_off_c, 1, 52, 100
3, 377952, Note_on_c, 1, 62, 110
3, 378044, Note_off_c, 1, 62, 100
3, 378048, Note_on_c, 1, 52, 110
3, 378048, Note_on_c, 1, 55, 110
3, 378140, Note_off_c, 1, 52, 100
3, 378140, Note_off_c, 1, 55, 100
3, 378144, Note_on_c, 1, 60, 110
3, 378236, Note_off_c, 1, 60, 100
3, 378240, Note_on_c, 1, 52, 110
3, 378240, Note_on_c, 1, 55, 110
3, 378332, Note_off_c, 1, 52, 100
3, 378332, Note_off_c, 1, 55, 100
3, 378336, Note_on_c, 1, 60, 110
3, 378428, Note_off_c, 1, 60, 100
3, 378432, Note_on_c, 1, 52, 110
3, 378432, Note_on_c, 1, 55, 110
3, 378524, Note_off_c, 1, 52, 100
3, 378524, Note_off_c, 1, 55, 100
3, 378528, Note_on_c, 1, 60, 110
3, 378620, Note_off_c, 1, 60, 100
3, 378624, Note_on_c, 1, 52, 110
3, 378624, Note_on_c, 1, 55, 110
3, 378716, Note_off_c, 1, 52, 100
3, 378716, Note_off_c, 1, 55, 100
3, 378720, Note_on_c, 1, 60, 110
3, 378812, Note_off_c, 1, 60, 100
3, 378816, Note_on_c, 1, 52, 110
3, 378816, Note_on_c, 1, 55, 110
3, 378908, Note_off_c, 1, 52, 100
3, 378908, Note_off_c, 1, 55, 100
3, 378912, Note_on_c, 1, 60, 110
3, 379004, Note_off_c, 1, 60, 100
3, 379008, Note_on_c, 1, 52, 110
3, 379008, Note_on_c, 1, 55, 110
3, 379100, Note_off_c, 1, 52, 100
3, 379100, Note_off_c, 1, 55, 100
3, 379104, Note_on_c, 1, 60, 110
3, 379196, Note_off_c, 1, 60, 100
3, 379200, Note_on_c, 1, 52, 110
3, 379200, Note_on_c, 1, 55, 110
3, 379292, Note_off_c, 1, 52, 100
3, 379292, Note_off_c, 1, 55, 100
3, 379296, Note_on_c, 1, 60, 110
3, 379388, Note_off_c, 1, 60, 100
3, 379392, Note_on_c, 1, 53, 110
3, 379392, Note_on_c, 1, 48, 110
3, 379392, Note_on_c, 1, 44, 110
3, 379392, Note_on_c, 1, 41, 110
3, 379772, Note_off_c, 1, 53, 100
3, 379772, Note_off_c, 1, 48, 100
3, 379772, Note_off_c, 1, 44, 100
3, 379772, Note_off_c, 1, 41, 100
3, 379872, Note_on_c, 1, 48, 110
3, 379964, Note_off_c, 1, 48, 100
3, 379968, Note_on_c, 1, 53, 110
3, 380060, Note_off_c, 1, 53, 100
3, 380064, Note_on_c, 1, 56, 110
3, 380156, Note_off_c, 1, 56, 100
3, 380160, Note_on_c, 1, 60, 110
3, 380252, Note_off_c, 1, 60, 100
3, 380256, Note_on_c, 1, 61, 110
3, 380348, Note_off_c, 1, 61, 100
3, 380352, Note_on_c, 1, 60, 110
3, 380444, Note_off_c, 1, 60, 100
3, 380448, Note_on_c, 1, 58, 110
3, 380540, Note_off_c, 1, 58, 100
3, 380544, Note_on_c, 1, 56, 110
3, 380636, Note_off_c, 1, 56, 100
3, 380640, Note_on_c, 1, 58, 110
3, 380732, Note_off_c, 1, 58, 100
3, 380736, Note_on_c, 1, 60, 110
3, 380828, Note_off_c, 1, 60, 100
3, 380832, Note_on_c, 1, 56, 110
3, 380924, Note_off_c, 1, 56, 100
3, 380928, Note_on_c, 1, 58, 110
3, 381020, Note_off_c, 1, 58, 100
3, 381024, Note_on_c, 1, 60, 110
3, 381116, Note_off_c, 1, 60, 100
3, 381120, Note_on_c, 1, 58, 110
3, 381212, Note_off_c, 1, 58, 100
3, 381216, Note_on_c, 1, 56, 110
3, 381308, Note_off_c, 1, 56, 100
3, 381312, Note_on_c, 1, 54, 110
3, 381404, Note_off_c, 1, 54, 100
3, 381408, Note_on_c, 1, 49, 110
3, 381500, Note_off_c, 1, 49, 100
3, 381504, Note_on_c, 1, 54, 110
3, 381596, Note_off_c, 1, 54, 100
3, 381600, Note_on_c, 1, 58, 110
3, 381692, Note_off_c, 1, 58, 100
3, 381696, Note_on_c, 1, 61, 110
3, 381788, Note_off_c, 1, 61, 100
3, 381792, Note_on_c, 1, 63, 110
3, 381884, Note_off_c, 1, 63, 100
3, 381888, Note_on_c, 1, 61, 110
3, 381980, Note_off_c, 1, 61, 100
3, 381984, Note_on_c, 1, 60, 110
3, 382076, Note_off_c, 1, 60, 100
3, 382080, Note_on_c, 1, 58, 110
3, 382172, Note_off_c, 1, 58, 100
3, 382176, Note_on_c, 1, 60, 110
3, 382268, Note_off_c, 1, 60, 100
3, 382272, Note_on_c, 1, 61, 110
3, 382364, Note_off_c, 1, 61, 100
3, 382368, Note_on_c, 1, 58, 110
3, 382460, Note_off_c, 1, 58, 100
3, 382464, Note_on_c, 1, 60, 110
3, 382556, Note_off_c, 1, 60, 100
3, 382560, Note_on_c, 1, 61, 110
3, 382652, Note_off_c, 1, 61, 100
3, 382656, Note_on_c, 1, 60, 110
3, 382748, Note_off_c, 1, 60, 100
3, 382752, Note_on_c, 1, 58, 110
3, 382844, Note_off_c, 1, 58, 100
3, 382848, Note_on_c, 1, 57, 110
3, 382940, Note_off_c, 1, 57, 100
3, 382944, Note_on_c, 1, 51, 110
3, 383036, Note_off_c, 1, 51, 100
3, 383040, Note_on_c, 1, 57, 110
3, 383132, Note_off_c, 1, 57, 100
3, 383136, Note_on_c, 1, 60, 110
3, 383228, Note_off_c, 1, 60, 100
3, 383232, Note_on_c, 1, 63, 110
3, 383324, Note_off_c, 1, 63, 100
3, 383328, Note_on_c, 1, 65, 110
3, 383420, Note_off_c, 1, 65, 100
3, 383424, Note_on_c, 1, 63, 110
3, 383516, Note_off_c, 1, 63, 100
3, 383520, Note_on_c, 1, 61, 110
3, 383612, Note_off_c, 1, 61, 100
3, 383616, Note_on_c, 1, 60, 110
3, 383708, Note_off_c, 1, 60, 100
3, 383712, Note_on_c, 1, 61, 110
3, 383804, Note_off_c, 1, 61, 100
3, 383808, Note_on_c, 1, 63, 110
3, 383900, Note_off_c, 1, 63, 100
3, 383904, Note_on_c, 1, 60, 110
3, 383996, Note_off_c, 1, 60, 100
3, 384000, Note_on_c, 1, 61, 120
3, 384092, Note_off_c, 1, 61, 100
3, 384096, Note_on_c, 1, 53, 120
3, 384188, Note_off_c, 1, 53, 100
3, 384192, Note_on_c, 1, 58, 120
3, 384284, Note_off_c, 1, 58, 100
3, 384288, Note_on_c, 1, 61, 120
3, 384380, Note_off_c, 1, 61, 100
3, 384384, Note_on_c, 1, 65, 120
3, 384476, Note_off_c, 1, 65, 100
3, 384480, Note_on_c, 1, 66, 120
3, 384572, Note_off_c, 1, 66, 100
3, 384576, Note_on_c, 1, 65, 120
3, 384668, Note_off_c, 1, 65, 100
3, 384672, Note_on_c, 1, 63, 120
3, 384764, Note_off_c, 1, 63, 100
3, 384768, Note_on_c, 1, 61, 120
3, 384860, Note_off_c, 1, 61, 100
3, 384864, Note_on_c, 1, 60, 120
3, 384956, Note_off_c, 1, 60, 100
3, 384960, Note_on_c, 1, 58, 120
3, 385052, Note_off_c, 1, 58, 100
3, 385056, Note_on_c, 1, 56, 120
3, 385148, Note_off_c, 1, 56, 100
3, 385152, Note_on_c, 1, 54, 120
3, 385244, Note_off_c, 1, 54, 100
3, 385248, Note_on_c, 1, 53, 120
3, 385340, Note_off_c, 1, 53, 100
3, 385344, Note_on_c, 1, 51, 120
3, 385436, Note_off_c, 1, 51, 100
3, 385440, Note_on_c, 1, 49, 120
3, 385532, Note_off_c, 1, 49, 100
3, 385536, Note_on_c, 1, 48, 120
3, 385628, Note_off_c, 1, 48, 100
3, 385632, Note_on_c, 1, 46, 120
3, 385724, Note_off_c, 1, 46, 100
3, 385728, Note_on_c, 1, 44, 120
3, 385820, Note_off_c, 1, 44, 100
3, 385824, Note_on_c, 1, 42, 120
3, 385916, Note_off_c, 1, 42, 100
3, 385920, Note_on_c, 1, 41, 120
3, 386012, Note_off_c, 1, 41, 100
3, 386016, Note_on_c, 1, 39, 120
3, 386108, Note_off_c, 1, 39, 100
3, 386112, Note_on_c, 1, 37, 120
3, 386204, Note_off_c, 1, 37, 100
3, 386208, Note_on_c, 1, 36, 120
3, 386300, Note_off_c, 1, 36, 100
3, 386304, Note_on_c, 1, 34, 120
3, 386396, Note_off_c, 1, 34, 100
3, 386400, Note_on_c, 1, 36, 120
3, 386492, Note_off_c, 1, 36, 100
3, 386496, Note_on_c, 1, 37, 120
3, 386588, Note_off_c, 1, 37, 100
3, 386592, Note_on_c, 1, 36, 120
3, 386684, Note_off_c, 1, 36, 100
3, 386688, Note_on_c, 1, 34, 120
3, 386876, Note_off_c, 1, 34, 100
3, 386880, Note_on_c, 1, 35, 120
3, 387068, Note_off_c, 1, 35, 100
3, 387072, Note_on_c, 1, 36, 110
3, 387260, Note_off_c, 1, 36, 100
3, 387264, Note_on_c, 1, 40, 110
3, 387452, Note_off_c, 1, 40, 100
3, 387456, Note_on_c, 1, 36, 110
3, 387644, Note_off_c, 1, 36, 100
3, 387648, Note_on_c, 1, 41, 110
3, 387836, Note_off_c, 1, 41, 100
3, 387840, Note_on_c, 1, 36, 111
3, 388028, Note_off_c, 1, 36, 100
3, 388032, Note_on_c, 1, 43, 111
3, 388220, Note_off_c, 1, 43, 100
3, 388224, Note_on_c, 1, 36, 111
3, 388412, Note_off_c, 1, 36, 100
3, 388416, Note_on_c, 1, 44, 112
3, 388604, Note_off_c, 1, 44, 100
3, 388608, Note_on_c, 1, 36, 112
3, 388796, Note_off_c, 1, 36, 100
3, 388800, Note_on_c, 1, 46, 112
3, 388988, Note_off_c, 1, 46, 100
3, 388992, Note_on_c, 1, 36, 113
3, 389180, Note_off_c, 1, 36, 100
3, 389184, Note_on_c, 1, 44, 113
3, 389372, Note_off_c, 1, 44, 100
3, 389376, Note_on_c, 1, 36, 113
3, 389564, Note_off_c, 1, 36, 100
3, 389568, Note_on_c, 1, 43, 114
3, 389756, Note_off_c, 1, 43, 100
3, 389760, Note_on_c, 1, 36, 114
3, 389948, Note_off_c, 1, 36, 100
3, 389952, Note_on_c, 1, 41, 114
3, 390140, Note_off_c, 1, 41, 100
3, 390144, Note_on_c, 1, 36, 115
3, 390332, Note_off_c, 1, 36, 100
3, 390336, Note_on_c, 1, 40, 115
3, 390524, Note_off_c, 1, 40, 100
3, 390528, Note_on_c, 1, 36, 115
3, 390716, Note_off_c, 1, 36, 100
3, 390720, Note_on_c, 1, 41, 116
3, 390908, Note_off_c, 1, 41, 100
3, 390912, Note_on_c, 1, 36, 116
3, 391100, Note_off_c, 1, 36, 100
3, 391104, Note_on_c, 1, 43, 116
3, 391292, Note_off_c, 1, 43, 100
3, 391296, Note_on_c, 1, 36, 116
3, 391484, Note_off_c, 1, 36, 100
3, 391488, Note_on_c, 1, 44, 117
3, 391676, Note_off_c, 1, 44, 100
3, 391680, Note_on_c, 1, 36, 117
3, 391868, Note_off_c, 1, 36, 100
3, 391872, Note_on_c, 1, 45, 117
3, 392060, Note_off_c, 1, 45, 100
3, 392064, Note_on_c, 1, 36, 118
3, 392252, Note_off_c, 1, 36, 100
3, 392256, Note_on_c, 1, 46, 118
3, 392444, Note_off_c, 1, 46, 100
3, 392448, Note_on_c, 1, 36, 118
3, 392636, Note_off_c, 1, 36, 100
3, 392640, Note_on_c, 1, 47, 119
3, 392828, Note_off_c, 1, 47, 100
3, 392832, Note_on_c, 1, 36, 119
3, 393020, Note_off_c, 1, 36, 100
3, 393024, Note_on_c, 1, 48, 119
3, 393212, Note_off_c, 1, 48, 100
3, 393216, Control_c, 1, 64, 127
3, 393216, Note_on_c, 1, 46, 120
3, 393216, Note_on_c, 1, 42, 120
3, 393216, Note_on_c, 1, 37, 120
3, 393216, Note_on_c, 1, 34, 120
3, 393404, Note_off_c, 1, 42, 100
3, 393404, Note_off_c, 1, 37, 100
3, 393404, Note_off_c, 1, 34, 100
3, 393500, Note_off_c, 1, 46, 100
3, 393696, Note_on_c, 1, 46, 120
3, 393792, Note_on_c, 1, 49, 120
3, 393888, Note_on_c, 1, 54, 120
3, 393984, Note_on_c, 1, 58, 120
3, 394172, Note_off_c, 1, 46, 64
3, 394268, Note_off_c, 1, 49, 64
3, 394364, Note_off_c, 1, 54, 64
3, 394460, Note_off_c, 1, 58, 100
3, 394464, Note_on_c, 1, 58, 120
3, 394560, Note_on_c, 1, 61, 120
3, 394656, Note_on_c, 1, 66, 120
3, 394752, Note_on_c, 1, 70, 120
3, 394940, Note_off_c, 1, 58, 64
3, 395036, Note_off_c, 1, 61, 64
3, 395132, Note_off_c, 1, 66, 64
3, 395512, Control_c, 1, 64, 0
3, 395516, Note_off_c, 1, 70, 100
3, 396288, Control_c, 1, 64, 127
3, 396288, Note_on_c, 1, 48, 120
3, 396288, Note_on_c, 1, 46, 120
3, 396288, Note_on_c, 1, 43, 120
3, 396288, Note_on_c, 1, 36, 120
3, 396476, Note_off_c, 1, 46, 100
3, 396476, Note_off_c, 1, 43, 100
3, 396476, Note_off_c, 1, 36, 100
3, 396572, Note_off_c, 1, 48, 100
3, 396768, Note_on_c, 1, 48, 120
3, 396864, Note_on_c, 1, 55, 120
3, 396960, Note_on_c, 1, 58, 120
3, 397056, Note_on_c, 1, 60, 120
3, 397244, Note_off_c, 1, 48, 64
3, 397340, Note_off_c, 1, 55, 64
3, 397436, Note_off_c, 1, 58, 64
3, 397532, Note_off_c, 1, 60, 100
3, 397536, Note_on_c, 1, 60, 120
3, 397632, Note_on_c, 1, 67, 120
3, 397728, Note_on_c, 1, 70, 120
3, 397824, Note_on_c, 1, 72, 120
3, 398012, Note_off_c, 1, 60, 64
3, 398108, Note_off_c, 1, 67, 64
3, 398204, Note_off_c, 1, 70, 64
3, 398584, Control_c, 1, 64, 0
3, 398588, Note_off_c, 1, 72, 100
3, 399360, Control_c, 1, 64, 127
3, 399360, Note_on_c, 1, 37, 80
3, 399488, Note_on_c, 1, 49, 80
3, 399616, Note_on_c, 1, 52, 80
3, 400888, Control_c, 1, 64, 0
3, 400892, Note_off_c, 1, 37, 64
3, 400892, Note_off_c, 1, 49, 64
3, 400892, Note_off_c, 1, 52, 64
3, 400896, Control_c, 1, 64, 127
3, 400896, Note_on_c, 1, 40, 80
3, 401024, Note_on_c, 1, 52, 80
3, 401152, Note_on_c, 1, 55, 80
3, 401404, Note_off_c, 1, 40, 100
3, 401532, Note_off_c, 1, 52, 100
3, 401660, Note_off_c, 1, 55, 100
3, 402424, Control_c, 1, 64, 0
3, 402432, Control_c, 1, 64, 127
3, 402432, Note_on_c, 1, 43, 80
3, 402560, Note_on_c, 1, 55, 80
3, 402688, Note_on_c, 1, 58, 80
3, 402940, Note_off_c, 1, 43, 100
3, 403068, Note_off_c, 1, 55, 100
3, 403196, Note_off_c, 1, 58, 100
3, 403960, Control_c, 1, 64, 0
3, 403968, Control_c, 1, 64, 127
3, 403968, Note_on_c, 1, 46, 80
3, 404096, Note_on_c, 1, 58, 80
3, 404224, Note_on_c, 1, 61, 80
3, 404476, Note_off_c, 1, 46, 100
3, 404604, Note_off_c, 1, 58, 100
3, 405496, Control_c, 1, 64, 0
3, 405500, Note_off_c, 1, 61, 64
3, 405504, Note_on_c, 1, 49, 80
3, 405696, Note_on_c, 1, 52, 80
3, 405888, Note_on_c, 1, 55, 80
3, 406076, Note_off_c, 1, 49, 100
3, 406080, Note_on_c, 1, 58, 80
3, 406268, Note_off_c, 1, 52, 100
3, 406272, Note_on_c, 1, 61, 80
3, 406460, Note_off_c, 1, 55, 64
3, 406652, Note_off_c, 1, 58, 64
3, 406844, Note_off_c, 1, 61, 100
3, 412416, Note_on_c, 1, 40, 80
3, 413184, Note_on_c, 1, 37, 80
3, 413948, Note_off_c, 1, 40, 64
3, 413952, Note_on_c, 1, 34, 80
3, 414716, Note_off_c, 1, 37, 64
3, 414720, Note_on_c, 1, 31, 80
3, 415484, Note_off_c, 1, 34, 64
3, 416252, Note_off_c, 1, 31, 64
3, 416256, Control_c, 1, 64, 127
3, 416256, Note_on_c, 1, 36, 80
3, 420476, Note_off_c, 1, 36, 64
3, 420480, Note_on_c, 1, 36, 80
3, 420768, Note_on_c, 1, 36, 80
3, 420856, Control_c, 1, 64, 0
3, 420860, Note_off_c, 1, 36, 100
3, 420860, Note_off_c, 1, 36, 100
3, 420864, Note_on_c, 1, 41, 80
3, 420864, Note_on_c, 1, 32, 80
3, 421244, Note_off_c, 1, 41, 100
3, 421244, Note_off_c, 1, 32, 100
3, 422400, Note_on_c, 1, 41, 80
3, 422400, Note_on_c, 1, 29, 80
3, 422780, Note_off_c, 1, 41, 100
3, 422780, Note_off_c, 1, 29, 100
3, 423072, Note_on_c, 1, 72, 80
3, 423072, Note_on_c, 1, 68, 80
3, 423164, Note_off_c, 1, 72, 100
3, 423164, Note_off_c, 1, 68, 100
3, 423168, Note_on_c, 1, 72, 100
3, 423168, Note_on_c, 1, 68, 100
3, 423548, Note_off_c, 1, 72, 100
3, 423548, Note_off_c, 1, 68, 100
3, 423552, Note_on_c, 1, 68, 80
3, 423552, Note_on_c, 1, 65, 80
3, 423740, Note_off_c, 1, 68, 100
3, 423740, Note_off_c, 1, 65, 100
3, 423936, Note_on_c, 1, 46, 80
3, 423936, Note_on_c, 1, 34, 80
3, 424316, Note_off_c, 1, 46, 100
3, 424316, Note_off_c, 1, 34, 100
3, 424608, Note_on_c, 1, 73, 80
3, 424608, Note_on_c, 1, 70, 80
3, 424700, Note_off_c, 1, 73, 100
3, 424700, Note_off_c, 1, 70, 100
3, 424704, Note_on_c, 1, 73, 100
3, 424704, Note_on_c, 1, 70, 100
3, 425468, Note_off_c, 1, 73, 100
3, 425468, Note_off_c, 1, 70, 100
3, 425472, Note_on_c, 1, 72, 80
3, 425472, Note_on_c, 1, 70, 80
3, 425660, Note_off_c, 1, 72, 100
3, 425660, Note_off_c, 1, 70, 100
3, 425664, Note_on_c, 1, 48, 80
3, 425664, Note_on_c, 1, 36, 80
3, 425852, Note_off_c, 1, 48, 100
3, 425852, Note_off_c, 1, 36, 100
3, 426048, Note_on_c, 1, 49, 80
3, 426048, Note_on_c, 1, 37, 80
3, 426236, Note_off_c, 1, 49, 100
3, 426236, Note_off_c, 1, 37, 100
3, 426432, Note_on_c, 1, 46, 80
3, 426432, Note_on_c, 1, 34, 80
3, 426620, Note_off_c, 1, 46, 100
3, 426620, Note_off_c, 1, 34, 100
3, 426816, Note_on_c, 1, 48, 80
3, 426816, Note_on_c, 1, 36, 80
3, 427004, Note_off_c, 1, 48, 100
3, 427004, Note_off_c, 1, 36, 100
3, 427008, Note_on_c, 1, 41, 80
3, 427008, Note_on_c, 1, 29, 80
3, 427100, Note_off_c, 1, 41, 100
3, 427100, Note_off_c, 1, 29, 100
3, 427104, Note_on_c, 1, 48, 80
3, 427196, Note_off_c, 1, 48, 100
3, 427200, Note_on_c, 1, 53, 81
3, 427292, Note_off_c, 1, 53, 100
3, 427296, Note_on_c, 1, 56, 81
3, 427388, Note_off_c, 1, 56, 100
3, 427392, Note_on_c, 1, 60, 82
3, 427484, Note_off_c, 1, 60, 100
3, 427488, Note_on_c, 1, 61, 83
3, 427580, Note_off_c, 1, 61, 100
3, 427584, Note_on_c, 1, 60, 83
3, 427676, Note_off_c, 1, 60, 100
3, 427680, Note_on_c, 1, 58, 84
3, 427772, Note_off_c, 1, 58, 100
3, 427776, Note_on_c, 1, 56, 85
3, 427868, Note_off_c, 1, 56, 100
3, 427872, Note_on_c, 1, 58, 85
3, 427964, Note_off_c, 1, 58, 100
3, 427968, Note_on_c, 1, 56, 86
3, 428060, Note_off_c, 1, 56, 100
3, 428064, Note_on_c, 1, 55, 87
3, 428156, Note_off_c, 1, 55, 100
3, 428160, Note_on_c, 1, 53, 87
3, 428252, Note_off_c, 1, 53, 100
3, 428256, Note_on_c, 1, 55, 88
3, 428348, Note_off_c, 1, 55, 100
3, 428352, Note_on_c, 1, 56, 88
3, 428444, Note_off_c, 1, 56, 100
3, 428448, Note_on_c, 1, 53, 89
3, 428540, Note_off_c, 1, 53, 100
3, 428544, Note_on_c, 1, 56, 90
3, 428636, Note_off_c, 1, 56, 100
3, 428640, Note_on_c, 1, 48, 90
3, 428732, Note_off_c, 1, 48, 100
3, 428736, Note_on_c, 1, 53, 91
3, 428828, Note_off_c, 1, 53, 100
3, 428832, Note_on_c, 1, 56, 92
3, 428924, Note_off_c, 1, 56, 100
3, 428928, Note_on_c, 1, 60, 92
3, 429020, Note_off_c, 1, 60, 100
3, 429024, Note_on_c, 1, 61, 93
3, 429116, Note_off_c, 1, 61, 100
3, 429120, Note_on_c, 1, 60, 94
3, 429212, Note_off_c, 1, 60, 100
3, 429216, Note_on_c, 1, 58, 94
3, 429308, Note_off_c, 1, 58, 100
3, 429312, Note_on_c, 1, 56, 95
3, 429404, Note_off_c, 1, 56, 100
3, 429408, Note_on_c, 1, 58, 95
3, 429500, Note_off_c, 1, 58, 100
3, 429504, Note_on_c, 1, 56, 96
3, 429596, Note_off_c, 1, 56, 100
3, 429600, Note_on_c, 1, 55, 97
3, 429692, Note_off_c, 1, 55, 100
3, 429696, Note_on_c, 1, 53, 97
3, 429788, Note_off_c, 1, 53, 100
3, 429792, Note_on_c, 1, 55, 98
3, 429884, Note_off_c, 1, 55, 100
3, 429888, Note_on_c, 1, 56, 99
3, 429980, Note_off_c, 1, 56, 100
3, 429984, Note_on_c, 1, 53, 99
3, 430076, Note_off_c, 1, 53, 100
3, 430080, Note_on_c, 1, 58, 100
3, 430172, Note_off_c, 1, 58, 100
3, 430176, Note_on_c, 1, 49, 101
3, 430268, Note_off_c, 1, 49, 100
3, 430272, Note_on_c, 1, 54, 101
3, 430364, Note_off_c, 1, 54, 100
3, 430368, Note_on_c, 1, 58, 102
3, 430460, Note_off_c, 1, 58, 100
3, 430464, Note_on_c, 1, 61, 102
3, 430556, Note_off_c, 1, 61, 100
3, 430560, Note_on_c, 1, 63, 103
3, 430652, Note_off_c, 1, 63, 100
3, 430656, Note_on_c, 1, 61, 104
3, 430748, Note_off_c, 1, 61, 100
3, 430752, Note_on_c, 1, 60, 104
3, 430844, Note_off_c, 1, 60, 100
3, 430848, Note_on_c, 1, 58, 105
3, 430940, Note_off_c, 1, 58, 100
3, 430944, Note_on_c, 1, 60, 106
3, 431036, Note_off_c, 1, 60, 100
3, 431040, Note_on_c, 1, 58, 106
3, 431132, Note_off_c, 1, 58, 100
3, 431136, Note_on_c, 1, 56, 107
3, 431228, Note_off_c, 1, 56, 100
3, 431232, Note_on_c, 1, 54, 108
3, 431324, Note_off_c, 1, 54, 100
3, 431328, Note_on_c, 1, 56, 108
3, 431420, Note_off_c, 1, 56, 100
3, 431424, Note_on_c, 1, 54, 109
3, 431516, Note_off_c, 1, 54, 100
3, 431520, Note_on_c, 1, 53, 109
3, 431612, Note_off_c, 1, 53, 100
3, 431616, Note_on_c, 1, 52, 110
3, 431708, Note_off_c, 1, 52, 100
3, 431712, Note_on_c, 1, 53, 109
3, 431804, Note_off_c, 1, 53, 100
3, 431808, Note_on_c, 1, 55, 108
3, 431900, Note_off_c, 1, 55, 100
3, 431904, Note_on_c, 1, 56, 107
3, 431996, Note_off_c, 1, 56, 100
3, 432000, Note_on_c, 1, 58, 105
3, 432092, Note_off_c, 1, 58, 100
3, 432096, Note_on_c, 1, 56, 104
3, 432188, Note_off_c, 1, 56, 100
3, 432192, Note_on_c, 1, 55, 103
3, 432284, Note_off_c, 1, 55, 100
3, 432288, Note_on_c, 1, 53, 101
3, 432380, Note_off_c, 1, 53, 100
3, 432384, Note_on_c, 1, 52, 100
3, 432476, Note_off_c, 1, 52, 100
3, 432480, Note_on_c, 1, 53, 99
3, 432572, Note_off_c, 1, 53, 100
3, 432576, Note_on_c, 1, 52, 97
3, 432668, Note_off_c, 1, 52, 100
3, 432672, Note_on_c, 1, 49, 96
3, 432764, Note_off_c, 1, 49, 100
3, 432768, Note_on_c, 1, 48, 95
3, 432860, Note_off_c, 1, 48, 100
3, 432864, Note_on_c, 1, 46, 93
3, 432956, Note_off_c, 1, 46, 100
3, 432960, Note_on_c, 1, 44, 92
3, 433052, Note_off_c, 1, 44, 100
3, 433056, Note_on_c, 1, 43, 91
3, 433148, Note_off_c, 1, 43, 100
3, 433152, Note_on_c, 1, 41, 80
3, 433532, Note_off_c, 1, 41, 100
3, 433824, Note_on_c, 1, 56, 89
3, 433824, Note_on_c, 1, 53, 89
3, 433916, Note_off_c, 1, 56, 100
3, 433916, Note_off_c, 1, 53, 100
3, 433920, Note_on_c, 1, 56, 90
3, 433920, Note_on_c, 1, 53, 90
3, 434300, Note_off_c, 1, 56, 100
3, 434300, Note_off_c, 1, 53, 100
3, 434592, Note_on_c, 1, 56, 99
3, 434592, Note_on_c, 1, 53, 99
3, 434684, Note_off_c, 1, 56, 100
3, 434684, Note_off_c, 1, 53, 100
3, 434688, Note_on_c, 1, 56, 100
3, 434688, Note_on_c, 1, 53, 100
3, 434688, Note_on_c, 1, 48, 100
3, 435452, Note_off_c, 1, 56, 100
3, 435452, Note_off_c, 1, 53, 100
3, 435452, Note_off_c, 1, 48, 100
3, 435456, Note_on_c, 1, 55, 100
3, 435456, Note_on_c, 1, 52, 100
3, 435456, Note_on_c, 1, 48, 100
3, 435644, Note_off_c, 1, 55, 100
3, 435644, Note_off_c, 1, 52, 100
3, 435644, Note_off_c, 1, 48, 100
3, 436224, Note_on_c, 1, 48, 80
3, 436224, Note_on_c, 1, 36, 80
3, 436604, Note_off_c, 1, 48, 100
3, 436604, Note_off_c, 1, 36, 100
3, 436896, Note_on_c, 1, 58, 89
3, 436896, Note_on_c, 1, 55, 89
3, 436988, Note_off_c, 1, 58, 100
3, 436988, Note_off_c, 1, 55, 100
3, 436992, Note_on_c, 1, 58, 90
3, 436992, Note_on_c, 1, 55, 90
3, 437372, Note_off_c, 1, 58, 100
3, 437372, Note_off_c, 1, 55, 100
3, 437664, Note_on_c, 1, 58, 99
3, 437664, Note_on_c, 1, 55, 99
3, 437756, Note_off_c, 1, 58, 100
3, 437756, Note_off_c, 1, 55, 100
3, 437760, Note_on_c, 1, 58, 100
3, 437760, Note_on_c, 1, 55, 100
3, 437760, Note_on_c, 1, 53, 100
3, 438524, Note_off_c, 1, 58, 100
3, 438524, Note_off_c, 1, 55, 100
3, 438524, Note_off_c, 1, 53, 100
3, 438528, Note_on_c, 1, 56, 100
3, 438528, Note_on_c, 1, 53, 100
3, 438716, Note_off_c, 1, 56, 100
3, 438716, Note_off_c, 1, 53, 100
3, 439296, Note_on_c, 1, 53, 80
3, 439296, Note_on_c, 1, 41, 80
3, 439676, Note_off_c, 1, 53, 100
3, 439676, Note_off_c, 1, 41, 100
3, 439968, Note_on_c, 1, 63, 87
3, 439968, Note_on_c, 1, 60, 87
3, 440060, Note_off_c, 1, 63, 100
3, 440060, Note_off_c, 1, 60, 100
3, 440064, Note_on_c, 1, 63, 88
3, 440064, Note_on_c, 1, 60, 88
3, 440444, Note_off_c, 1, 63, 100
3, 440444, Note_off_c, 1, 60, 100
3, 440736, Note_on_c, 1, 63, 97
3, 440736, Note_on_c, 1, 60, 97
3, 440828, Note_off_c, 1, 63, 100
3, 440828, Note_off_c, 1, 60, 100
3, 440832, Note_on_c, 1, 63, 98
3, 440832, Note_on_c, 1, 60, 98
3, 440832, Note_on_c, 1, 58, 98
3, 441788, Note_off_c, 1, 58, 64
3, 441788, Note_off_c, 1, 60, 64
3, 441788, Note_off_c, 1, 63, 64
3, 441792, Note_on_c, 1, 61, 110
3, 441792, Note_on_c, 1, 58, 110
3, 441980, Note_off_c, 1, 61, 100
3, 441980, Note_off_c, 1, 58, 100
3, 441984, Note_on_c, 1, 60, 103
3, 441984, Note_on_c, 1, 56, 103
3, 442172, Note_off_c, 1, 60, 100
3, 442172, Note_off_c, 1, 56, 100
3, 442176, Note_on_c, 1, 58, 95
3, 442176, Note_on_c, 1, 55, 95
3, 442364, Note_off_c, 1, 58, 100
3, 442364, Note_off_c, 1, 55, 100
3, 442368, Note_on_c, 1, 56, 80
3, 442368, Note_on_c, 1, 53, 80
3, 442368, Note_on_c, 1, 48, 80
3, 442748, Note_off_c, 1, 56, 100
3, 442748, Note_off_c, 1, 53, 100
3, 442748, Note_off_c, 1, 48, 100
3, 443040, Note_on_c, 1, 56, 80
3, 443040, Note_on_c, 1, 53, 80
3, 443132, Note_off_c, 1, 56, 100
3, 443132, Note_off_c, 1, 53, 100
3, 443136, Note_on_c, 1, 55, 80
3, 443136, Note_on_c, 1, 48, 80
3, 443136, Note_on_c, 1, 58, 80
3, 443516, Note_off_c, 1, 55, 100
3, 443516, Note_off_c, 1, 48, 100
3, 443516, Note_off_c, 1, 58, 100
3, 443808, Note_on_c, 1, 55, 80
3, 443808, Note_on_c, 1, 52, 80
3, 443900, Note_off_c, 1, 55, 100
3, 443900, Note_off_c, 1, 52, 100
3, 443904, Note_on_c, 1, 53, 80
3, 443996, Note_off_c, 1, 53, 100
3, 444000, Note_on_c, 1, 60, 80
3, 444092, Note_off_c, 1, 60, 100
3, 444096, Note_on_c, 1, 56, 80
3, 444188, Note_off_c, 1, 56, 100
3, 444192, Note_on_c, 1, 53, 80
3, 444284, Note_off_c, 1, 53, 100
3, 444288, Note_on_c, 1, 48, 80
3, 444380, Note_off_c, 1, 48, 100
3, 444384, Note_on_c, 1, 56, 80
3, 444476, Note_off_c, 1, 56, 100
3, 444480, Note_on_c, 1, 53, 80
3, 444572, Note_off_c, 1, 53, 100
3, 444576, Note_on_c, 1, 49, 80
3, 444668, Note_off_c, 1, 49, 100
3, 444672, Note_on_c, 1, 44, 80
3, 444764, Note_off_c, 1, 44, 100
3, 444768, Note_on_c, 1, 53, 80
3, 444860, Note_off_c, 1, 53, 100
3, 444864, Note_on_c, 1, 48, 80
3, 444956, Note_off_c, 1, 48, 100
3, 444960, Note_on_c, 1, 44, 80
3, 445052, Note_off_c, 1, 44, 100
3, 445056, Note_on_c, 1, 41, 80
3, 445148, Note_off_c, 1, 41, 100
3, 445152, Note_on_c, 1, 48, 80
3, 445244, Note_off_c, 1, 48, 100
3, 445248, Note_on_c, 1, 44, 80
3, 445340, Note_off_c, 1, 44, 100
3, 445344, Note_on_c, 1, 41, 80
3, 445436, Note_off_c, 1, 41, 100
3, 445440, Note_on_c, 1, 36, 80
3, 445532, Note_off_c, 1, 36, 100
3, 445536, Note_on_c, 1, 41, 80
3, 445628, Note_off_c, 1, 41, 100
3, 445632, Note_on_c, 1, 44, 80
3, 445724, Note_off_c, 1, 44, 100
3, 445728, Note_on_c, 1, 48, 80
3, 445820, Note_off_c, 1, 48, 100
3, 445824, Note_on_c, 1, 47, 80
3, 445916, Note_off_c, 1, 47, 100
3, 445920, Note_on_c, 1, 48, 80
3, 446012, Note_off_c, 1, 48, 100
3, 446016, Note_on_c, 1, 47, 80
3, 446108, Note_off_c, 1, 47, 100
3, 446112, Note_on_c, 1, 48, 80
3, 446204, Note_off_c, 1, 48, 100
3, 446208, Note_on_c, 1, 47, 80
3, 446300, Note_off_c, 1, 47, 100
3, 446304, Note_on_c, 1, 48, 80
3, 446396, Note_off_c, 1, 48, 100
3, 446400, Note_on_c, 1, 43, 97
3, 446492, Note_off_c, 1, 43, 100
3, 446496, Note_on_c, 1, 48, 80
3, 446588, Note_off_c, 1, 48, 100
3, 446592, Note_on_c, 1, 40, 100
3, 446684, Note_off_c, 1, 40, 100
3, 446688, Note_on_c, 1, 48, 80
3, 446780, Note_off_c, 1, 48, 100
3, 446784, Note_on_c, 1, 43, 102
3, 446876, Note_off_c, 1, 43, 100
3, 446880, Note_on_c, 1, 48, 80
3, 446972, Note_off_c, 1, 48, 100
3, 446976, Note_on_c, 1, 36, 103
3, 447068, Note_off_c, 1, 36, 100
3, 447072, Note_on_c, 1, 40, 80
3, 447164, Note_off_c, 1, 40, 100
3, 447168, Note_on_c, 1, 43, 80
3, 447260, Note_off_c, 1, 43, 100
3, 447264, Note_on_c, 1, 48, 80
3, 447356, Note_off_c, 1, 48, 100
3, 447360, Note_on_c, 1, 40, 80
3, 447452, Note_off_c, 1, 40, 100
3, 447456, Note_on_c, 1, 43, 80
3, 447548, Note_off_c, 1, 43, 100
3, 447552, Note_on_c, 1, 48, 80
3, 447644, Note_off_c, 1, 48, 100
3, 447648, Note_on_c, 1, 52, 80
3, 447740, Note_off_c, 1, 52, 100
3, 447744, Note_on_c, 1, 43, 80
3, 447836, Note_off_c, 1, 43, 100
3, 447840, Note_on_c, 1, 48, 80
3, 447932, Note_off_c, 1, 48, 100
3, 447936, Note_on_c, 1, 52, 80
3, 448028, Note_off_c, 1, 52, 100
3, 448032, Note_on_c, 1, 55, 80
3, 448124, Note_off_c, 1, 55, 100
3, 448128, Note_on_c, 1, 48, 80
3, 448220, Note_off_c, 1, 48, 100
3, 448224, Note_on_c, 1, 52, 80
3, 448316, Note_off_c, 1, 52, 100
3, 448320, Note_on_c, 1, 55, 80
3, 448412, Note_off_c, 1, 55, 100
3, 448416, Note_on_c, 1, 60, 80
3, 448508, Note_off_c, 1, 60, 100
3, 448512, Note_on_c, 1, 53, 80
3, 448604, Note_off_c, 1, 53, 100
3, 448608, Note_on_c, 1, 56, 80
3, 448700, Note_off_c, 1, 56, 100
3, 448704, Note_on_c, 1, 60, 80
3, 448796, Note_off_c, 1, 60, 100
3, 448800, Note_on_c, 1, 65, 80
3, 448892, Note_off_c, 1, 65, 100
3, 448896, Note_on_c, 1, 64, 80
3, 448988, Note_off_c, 1, 64, 100
3, 448992, Note_on_c, 1, 65, 80
3, 449084, Note_off_c, 1, 65, 100
3, 449088, Note_on_c, 1, 64, 80
3, 449180, Note_off_c, 1, 64, 100
3, 449184, Note_on_c, 1, 65, 80
3, 449276, Note_off_c, 1, 65, 100
3, 449280, Note_on_c, 1, 64, 80
3, 449372, Note_off_c, 1, 64, 100
3, 449376, Note_on_c, 1, 65, 81
3, 449468, Note_off_c, 1, 65, 100
3, 449472, Note_on_c, 1, 60, 82
3, 449564, Note_off_c, 1, 60, 100
3, 449568, Note_on_c, 1, 65, 83
3, 449660, Note_off_c, 1, 65, 100
3, 449664, Note_on_c, 1, 56, 85
3, 449756, Note_off_c, 1, 56, 100
3, 449760, Note_on_c, 1, 65, 86
3, 449852, Note_off_c, 1, 65, 100
3, 449856, Note_on_c, 1, 60, 87
3, 449948, Note_off_c, 1, 60, 100
3, 449952, Note_on_c, 1, 65, 89
3, 450044, Note_off_c, 1, 65, 100
3, 450048, Note_on_c, 1, 53, 90
3, 450140, Note_off_c, 1, 53, 100
3, 450144, Note_on_c, 1, 57, 91
3, 450236, Note_off_c, 1, 57, 100
3, 450240, Note_on_c, 1, 60, 93
3, 450332, Note_off_c, 1, 60, 100
3, 450336, Note_on_c, 1, 65, 94
3, 450428, Note_off_c, 1, 65, 100
3, 450432, Note_on_c, 1, 57, 95
3, 450524, Note_off_c, 1, 57, 100
3, 450528, Note_on_c, 1, 60, 96
3, 450620, Note_off_c, 1, 60, 100
3, 450624, Note_on_c, 1, 65, 98
3, 450716, Note_off_c, 1, 65, 100
3, 450720, Note_on_c, 1, 69, 99
3, 450812, Note_off_c, 1, 69, 100
3, 450816, Note_on_c, 1, 60, 100
3, 450908, Note_off_c, 1, 60, 100
3, 450912, Note_on_c, 1, 65, 102
3, 451004, Note_off_c, 1, 65, 100
3, 451008, Note_on_c, 1, 69, 103
3, 451100, Note_off_c, 1, 69, 100
3, 451104, Note_on_c, 1, 72, 104
3, 451196, Note_off_c, 1, 72, 100
3, 451200, Note_on_c, 1, 65, 106
3, 451292, Note_off_c, 1, 65, 100
3, 451296, Note_on_c, 1, 69, 107
3, 451388, Note_off_c, 1, 69, 100
3, 451392, Note_on_c, 1, 72, 108
3, 451484, Note_off_c, 1, 72, 100
3, 451488, Note_on_c, 1, 77, 109
3, 451580, Note_off_c, 1, 77, 100
3, 451584, Note_on_c, 1, 69, 110
3, 451680, Note_on_c, 1, 77, 110
3, 451748, Note_off_c, 1, 69, 100
3, 451776, Note_on_c, 1, 76, 110
3, 451860, Note_off_c, 1, 77, 100
3, 451872, Note_on_c, 1, 77, 110
3, 451948, Note_off_c, 1, 76, 100
3, 451968, Note_on_c, 1, 69, 110
3, 452036, Note_off_c, 1, 77, 100
3, 452064, Note_on_c, 1, 77, 110
3, 452128, Note_off_c, 1, 69, 100
3, 452160, Note_on_c, 1, 69, 110
3, 452236, Note_off_c, 1, 77, 100
3, 452256, Note_on_c, 1, 77, 110
3, 452340, Note_off_c, 1, 69, 100
3, 452352, Note_on_c, 1, 69, 110
3, 452428, Note_off_c, 1, 77, 64
3, 452448, Note_on_c, 1, 77, 110
3, 452540, Note_off_c, 1, 69, 100
3, 452544, Note_on_c, 1, 70, 110
3, 452620, Note_off_c, 1, 77, 100
3, 452640, Note_on_c, 1, 77, 110
3, 452720, Note_off_c, 1, 70, 100
3, 452736, Note_on_c, 1, 72, 110
3, 452812, Note_off_c, 1, 77, 100
3, 452832, Note_on_c, 1, 77, 110
3, 452908, Note_off_c, 1, 72, 100
3, 452928, Note_on_c, 1, 73, 110
3, 453004, Note_off_c, 1, 77, 100
3, 453024, Note_on_c, 1, 77, 110
3, 453104, Note_off_c, 1, 73, 100
3, 453120, Note_on_c, 1, 60, 110
3, 453208, Note_off_c, 1, 77, 100
3, 453216, Note_on_c, 1, 65, 110
3, 453300, Note_off_c, 1, 60, 100
3, 453312, Note_on_c, 1, 68, 110
3, 453384, Note_off_c, 1, 65, 100
3, 453408, Note_on_c, 1, 72, 110
3, 453496, Note_off_c, 1, 68, 100
3, 453504, Note_on_c, 1, 71, 110
3, 453580, Note_off_c, 1, 72, 100
3, 453600, Note_on_c, 1, 72, 110
3, 453680, Note_off_c, 1, 71, 100
3, 453696, Note_on_c, 1, 71, 110
3, 453784, Note_off_c, 1, 72, 90
3, 453792, Note_on_c, 1, 72, 110
3, 453860, Note_off_c, 1, 71, 100
3, 453888, Note_on_c, 1, 60, 110
3, 453964, Note_off_c, 1, 72, 100
3, 453984, Note_on_c, 1, 64, 110
3, 454064, Note_off_c, 1, 60, 100
3, 454080, Note_on_c, 1, 67, 110
3, 454148, Note_off_c, 1, 64, 100
3, 454176, Note_on_c, 1, 72, 110
3, 454256, Note_off_c, 1, 67, 100
3, 454272, Note_on_c, 1, 60, 110
3, 454356, Note_off_c, 1, 72, 100
3, 454368, Note_on_c, 1, 67, 110
3, 454444, Note_off_c, 1, 60, 100
3, 454464, Note_on_c, 1, 70, 110
3, 454556, Note_off_c, 1, 67, 100
3, 454560, Note_on_c, 1, 72, 110
3, 454624, Note_off_c, 1, 70, 100
3, 454652, Note_off_c, 1, 72, 100
3, 454656, Note_on_c, 1, 53, 110
3, 454752, Note_on_c, 1, 68, 80
3, 454752, Note_on_c, 1, 65, 80
3, 454844, Note_off_c, 1, 53, 100
3, 454844, Note_off_c, 1, 68, 100
3, 454844, Note_off_c, 1, 65, 100
3, 454848, Note_on_c, 1, 72, 82
3, 454848, Note_on_c, 1, 60, 82
3, 454940, Note_off_c, 1, 72, 100
3, 454940, Note_off_c, 1, 60, 100
3, 454944, Note_on_c, 1, 68, 84
3, 454944, Note_on_c, 1, 65, 84
3, 455036, Note_off_c, 1, 68, 100
3, 455036, Note_off_c, 1, 65, 100
3, 455040, Note_on_c, 1, 72, 87
3, 455040, Note_on_c, 1, 60, 87
3, 455132, Note_off_c, 1, 72, 100
3, 455132, Note_off_c, 1, 60, 100
3, 455136, Note_on_c, 1, 68, 89
3, 455136, Note_on_c, 1, 65, 89
3, 455228, Note_off_c, 1, 68, 100
3, 455228, Note_off_c, 1, 65, 100
3, 455232, Note_on_c, 1, 72, 92
3, 455232, Note_on_c, 1, 60, 92
3, 455324, Note_off_c, 1, 72, 100
3, 455324, Note_off_c, 1, 60, 100
3, 455328, Note_on_c, 1, 68, 94
3, 455328, Note_on_c, 1, 65, 94
3, 455420, Note_off_c, 1, 68, 100
3, 455420, Note_off_c, 1, 65, 100
3, 455424, Note_on_c, 1, 72, 95
3, 455424, Note_on_c, 1, 60, 95
3, 455516, Note_off_c, 1, 72, 100
3, 455516, Note_off_c, 1, 60, 100
3, 455520, Note_on_c, 1, 68, 94
3, 455520, Note_on_c, 1, 65, 94
3, 455612, Note_off_c, 1, 68, 100
3, 455612, Note_off_c, 1, 65, 100
3, 455616, Note_on_c, 1, 72, 93
3, 455616, Note_on_c, 1, 60, 93
3, 455708, Note_off_c, 1, 72, 100
3, 455708, Note_off_c, 1, 60, 100
3, 455712, Note_on_c, 1, 68, 91
3, 455712, Note_on_c, 1, 65, 91
3, 455804, Note_off_c, 1, 68, 100
3, 455804, Note_off_c, 1, 65, 100
3, 455808, Note_on_c, 1, 72, 90
3, 455808, Note_on_c, 1, 60, 90
3, 455900, Note_off_c, 1, 72, 100
3, 455900, Note_off_c, 1, 60, 100
3, 455904, Note_on_c, 1, 68, 88
3, 455904, Note_on_c, 1, 65, 88
3, 455996, Note_off_c, 1, 68, 100
3, 455996, Note_off_c, 1, 65, 100
3, 456000, Note_on_c, 1, 72, 87
3, 456000, Note_on_c, 1, 60, 87
3, 456092, Note_off_c, 1, 72, 100
3, 456092, Note_off_c, 1, 60, 100
3, 456096, Note_on_c, 1, 68, 86
3, 456096, Note_on_c, 1, 65, 86
3, 456188, Note_off_c, 1, 68, 100
3, 456188, Note_off_c, 1, 65, 100
3, 456192, Note_on_c, 1, 53, 80
3, 456284, Note_off_c, 1, 53, 100
3, 456288, Note_on_c, 1, 68, 82
3, 456288, Note_on_c, 1, 65, 82
3, 456380, Note_off_c, 1, 68, 100
3, 456380, Note_off_c, 1, 65, 100
3, 456384, Note_on_c, 1, 72, 84
3, 456384, Note_on_c, 1, 60, 84
3, 456476, Note_off_c, 1, 72, 100
3, 456476, Note_off_c, 1, 60, 100
3, 456480, Note_on_c, 1, 68, 86
3, 456480, Note_on_c, 1, 65, 86
3, 456572, Note_off_c, 1, 68, 100
3, 456572, Note_off_c, 1, 65, 100
3, 456576, Note_on_c, 1, 72, 88
3, 456576, Note_on_c, 1, 60, 88
3, 456668, Note_off_c, 1, 72, 100
3, 456668, Note_off_c, 1, 60, 100
3, 456672, Note_on_c, 1, 68, 90
3, 456672, Note_on_c, 1, 65, 90
3, 456764, Note_off_c, 1, 68, 100
3, 456764, Note_off_c, 1, 65, 100
3, 456768, Note_on_c, 1, 72, 92
3, 456768, Note_on_c, 1, 60, 92
3, 456860, Note_off_c, 1, 72, 100
3, 456860, Note_off_c, 1, 60, 100
3, 456864, Note_on_c, 1, 68, 94
3, 456864, Note_on_c, 1, 65, 94
3, 456956, Note_off_c, 1, 68, 100
3, 456956, Note_off_c, 1, 65, 100
3, 456960, Note_on_c, 1, 72, 95
3, 456960, Note_on_c, 1, 60, 95
3, 457052, Note_off_c, 1, 72, 100
3, 457052, Note_off_c, 1, 60, 100
3, 457056, Note_on_c, 1, 68, 94
3, 457056, Note_on_c, 1, 65, 94
3, 457148, Note_off_c, 1, 68, 100
3, 457148, Note_off_c, 1, 65, 100
3, 457152, Note_on_c, 1, 72, 93
3, 457152, Note_on_c, 1, 60, 93
3, 457244, Note_off_c, 1, 72, 100
3, 457244, Note_off_c, 1, 60, 100
3, 457248, Note_on_c, 1, 68, 91
3, 457248, Note_on_c, 1, 65, 91
3, 457340, Note_off_c, 1, 68, 100
3, 457340, Note_off_c, 1, 65, 100
3, 457344, Note_on_c, 1, 72, 90
3, 457344, Note_on_c, 1, 60, 90
3, 457436, Note_off_c, 1, 72, 100
3, 457436, Note_off_c, 1, 60, 100
3, 457440, Note_on_c, 1, 68, 88
3, 457440, Note_on_c, 1, 65, 88
3, 457532, Note_off_c, 1, 68, 100
3, 457532, Note_off_c, 1, 65, 100
3, 457536, Note_on_c, 1, 72, 87
3, 457536, Note_on_c, 1, 60, 87
3, 457628, Note_off_c, 1, 72, 100
3, 457628, Note_off_c, 1, 60, 100
3, 457632, Note_on_c, 1, 68, 86
3, 457632, Note_on_c, 1, 65, 86
3, 457724, Note_off_c, 1, 68, 100
3, 457724, Note_off_c, 1, 65, 100
3, 457728, Note_on_c, 1, 44, 80
3, 457820, Note_off_c, 1, 44, 100
3, 457824, Note_on_c, 1, 56, 82
3, 457824, Note_on_c, 1, 54, 82
3, 457916, Note_off_c, 1, 56, 100
3, 457916, Note_off_c, 1, 54, 100
3, 457920, Note_on_c, 1, 60, 84
3, 457920, Note_on_c, 1, 51, 84
3, 458012, Note_off_c, 1, 60, 100
3, 458012, Note_off_c, 1, 51, 100
3, 458016, Note_on_c, 1, 56, 86
3, 458016, Note_on_c, 1, 54, 86
3, 458108, Note_off_c, 1, 56, 100
3, 458108, Note_off_c, 1, 54, 100
3, 458112, Note_on_c, 1, 60, 88
3, 458112, Note_on_c, 1, 51, 88
3, 458204, Note_off_c, 1, 60, 100
3, 458204, Note_off_c, 1, 51, 100
3, 458208, Note_on_c, 1, 56, 90
3, 458208, Note_on_c, 1, 54, 90
3, 458300, Note_off_c, 1, 56, 100
3, 458300, Note_off_c, 1, 54, 100
3, 458304, Note_on_c, 1, 60, 92
3, 458304, Note_on_c, 1, 51, 92
3, 458396, Note_off_c, 1, 60, 100
3, 458396, Note_off_c, 1, 51, 100
3, 458400, Note_on_c, 1, 56, 94
3, 458400, Note_on_c, 1, 54, 94
3, 458492, Note_off_c, 1, 56, 100
3, 458492, Note_off_c, 1, 54, 100
3, 458496, Note_on_c, 1, 60, 95
3, 458496, Note_on_c, 1, 51, 95
3, 458588, Note_off_c, 1, 60, 100
3, 458588, Note_off_c, 1, 51, 100
3, 458592, Note_on_c, 1, 56, 94
3, 458592, Note_on_c, 1, 54, 94
3, 458684, Note_off_c, 1, 56, 100
3, 458684, Note_off_c, 1, 54, 100
3, 458688, Note_on_c, 1, 60, 93
3, 458688, Note_on_c, 1, 51, 93
3, 458780, Note_off_c, 1, 60, 100
3, 458780, Note_off_c, 1, 51, 100
3, 458784, Note_on_c, 1, 56, 91
3, 458784, Note_on_c, 1, 54, 91
3, 458876, Note_off_c, 1, 56, 100
3, 458876, Note_off_c, 1, 54, 100
3, 458880, Note_on_c, 1, 60, 90
3, 458880, Note_on_c, 1, 51, 90
3, 458972, Note_off_c, 1, 60, 100
3, 458972, Note_off_c, 1, 51, 100
3, 458976, Note_on_c, 1, 56, 88
3, 458976, Note_on_c, 1, 54, 88
3, 459068, Note_off_c, 1, 56, 100
3, 459068, Note_off_c, 1, 54, 100
3, 459072, Note_on_c, 1, 60, 87
3, 459072, Note_on_c, 1, 51, 87
3, 459164, Note_off_c, 1, 60, 100
3, 459164, Note_off_c, 1, 51, 100
3, 459168, Note_on_c, 1, 56, 86
3, 459168, Note_on_c, 1, 54, 86
3, 459260, Note_off_c, 1, 56, 100
3, 459260, Note_off_c, 1, 54, 100
3, 459264, Note_on_c, 1, 44, 80
3, 459356, Note_off_c, 1, 44, 100
3, 459360, Note_on_c, 1, 56, 82
3, 459360, Note_on_c, 1, 54, 82
3, 459452, Note_off_c, 1, 56, 100
3, 459452, Note_off_c, 1, 54, 100
3, 459456, Note_on_c, 1, 60, 84
3, 459456, Note_on_c, 1, 51, 84
3, 459548, Note_off_c, 1, 60, 100
3, 459548, Note_off_c, 1, 51, 100
3, 459552, Note_on_c, 1, 56, 86
3, 459552, Note_on_c, 1, 54, 86
3, 459644, Note_off_c, 1, 56, 100
3, 459644, Note_off_c, 1, 54, 100
3, 459648, Note_on_c, 1, 60, 88
3, 459648, Note_on_c, 1, 51, 88
3, 459740, Note_off_c, 1, 60, 100
3, 459740, Note_off_c, 1, 51, 100
3, 459744, Note_on_c, 1, 56, 90
3, 459744, Note_on_c, 1, 54, 90
3, 459836, Note_off_c, 1, 56, 100
3, 459836, Note_off_c, 1, 54, 100
3, 459840, Note_on_c, 1, 60, 92
3, 459840, Note_on_c, 1, 51, 92
3, 459932, Note_off_c, 1, 60, 100
3, 459932, Note_off_c, 1, 51, 100
3, 459936, Note_on_c, 1, 56, 94
3, 459936, Note_on_c, 1, 54, 94
3, 460028, Note_off_c, 1, 56, 100
3, 460028, Note_off_c, 1, 54, 100
3, 460032, Note_on_c, 1, 60, 95
3, 460032, Note_on_c, 1, 51, 95
3, 460124, Note_off_c, 1, 60, 100
3, 460124, Note_off_c, 1, 51, 100
3, 460128, Note_on_c, 1, 56, 94
3, 460128, Note_on_c, 1, 54, 94
3, 460220, Note_off_c, 1, 56, 100
3, 460220, Note_off_c, 1, 54, 100
3, 460224, Note_on_c, 1, 60, 93
3, 460224, Note_on_c, 1, 51, 93
3, 460316, Note_off_c, 1, 60, 100
3, 460316, Note_off_c, 1, 51, 100
3, 460320, Note_on_c, 1, 56, 91
3, 460320, Note_on_c, 1, 54, 91
3, 460412, Note_off_c, 1, 56, 100
3, 460412, Note_off_c, 1, 54, 100
3, 460416, Note_on_c, 1, 60, 90
3, 460416, Note_on_c, 1, 51, 90
3, 460508, Note_off_c, 1, 60, 100
3, 460508, Note_off_c, 1, 51, 100
3, 460512, Note_on_c, 1, 56, 88
3, 460512, Note_on_c, 1, 54, 88
3, 460604, Note_off_c, 1, 56, 100
3, 460604, Note_off_c, 1, 54, 100
3, 460608, Note_on_c, 1, 60, 87
3, 460608, Note_on_c, 1, 51, 87
3, 460700, Note_off_c, 1, 60, 100
3, 460700, Note_off_c, 1, 51, 100
3, 460704, Note_on_c, 1, 56, 86
3, 460704, Note_on_c, 1, 54, 86
3, 460796, Note_off_c, 1, 56, 100
3, 460796, Note_off_c, 1, 54, 100
3, 460800, Note_on_c, 1, 49, 90
3, 460892, Note_off_c, 1, 49, 100
3, 460896, Note_on_c, 1, 65, 90
3, 460896, Note_on_c, 1, 61, 90
3, 460988, Note_off_c, 1, 65, 100
3, 460988, Note_off_c, 1, 61, 100
3, 460992, Note_on_c, 1, 68, 90
3, 460992, Note_on_c, 1, 56, 90
3, 461084, Note_off_c, 1, 68, 100
3, 461084, Note_off_c, 1, 56, 100
3, 461088, Note_on_c, 1, 65, 90
3, 461088, Note_on_c, 1, 61, 90
3, 461180, Note_off_c, 1, 65, 100
3, 461180, Note_off_c, 1, 61, 100
3, 461184, Note_on_c, 1, 68, 90
3, 461184, Note_on_c, 1, 56, 90
3, 461276, Note_off_c, 1, 68, 100
3, 461276, Note_off_c, 1, 56, 100
3, 461280, Note_on_c, 1, 65, 90
3, 461280, Note_on_c, 1, 61, 90
3, 461372, Note_off_c, 1, 65, 100
3, 461372, Note_off_c, 1, 61, 100
3, 461376, Note_on_c, 1, 68, 90
3, 461376, Note_on_c, 1, 56, 90
3, 461468, Note_off_c, 1, 68, 100
3, 461468, Note_off_c, 1, 56, 100
3, 461472, Note_on_c, 1, 65, 90
3, 461472, Note_on_c, 1, 61, 90
3, 461564, Note_off_c, 1, 65, 100
3, 461564, Note_off_c, 1, 61, 100
3, 461568, Note_on_c, 1, 68, 90
3, 461568, Note_on_c, 1, 56, 90
3, 461660, Note_off_c, 1, 68, 100
3, 461660, Note_off_c, 1, 56, 100
3, 461664, Note_on_c, 1, 65, 90
3, 461664, Note_on_c, 1, 61, 90
3, 461756, Note_off_c, 1, 65, 100
3, 461756, Note_off_c, 1, 61, 100
3, 461760, Note_on_c, 1, 68, 90
3, 461760, Note_on_c, 1, 56, 90
3, 461852, Note_off_c, 1, 68, 100
3, 461852, Note_off_c, 1, 56, 100
3, 461856, Note_on_c, 1, 65, 90
3, 461856, Note_on_c, 1, 61, 90
3, 461948, Note_off_c, 1, 65, 100
3, 461948, Note_off_c, 1, 61, 100
3, 461952, Note_on_c, 1, 68, 90
3, 461952, Note_on_c, 1, 56, 90
3, 462044, Note_off_c, 1, 68, 100
3, 462044, Note_off_c, 1, 56, 100
3, 462048, Note_on_c, 1, 65, 90
3, 462048, Note_on_c, 1, 61, 90
3, 462140, Note_off_c, 1, 65, 100
3, 462140, Note_off_c, 1, 61, 100
3, 462144, Note_on_c, 1, 68, 90
3, 462144, Note_on_c, 1, 56, 90
3, 462236, Note_off_c, 1, 68, 100
3, 462236, Note_off_c, 1, 56, 100
3, 462240, Note_on_c, 1, 65, 90
3, 462240, Note_on_c, 1, 61, 90
3, 462332, Note_off_c, 1, 65, 100
3, 462332, Note_off_c, 1, 61, 100
3, 462336, Note_on_c, 1, 49, 85
3, 462428, Note_off_c, 1, 49, 100
3, 462432, Note_on_c, 1, 65, 86
3, 462432, Note_on_c, 1, 61, 86
3, 462524, Note_off_c, 1, 65, 100
3, 462524, Note_off_c, 1, 61, 100
3, 462528, Note_on_c, 1, 68, 88
3, 462528, Note_on_c, 1, 56, 88
3, 462620, Note_off_c, 1, 68, 100
3, 462620, Note_off_c, 1, 56, 100
3, 462624, Note_on_c, 1, 65, 89
3, 462624, Note_on_c, 1, 61, 89
3, 462716, Note_off_c, 1, 65, 100
3, 462716, Note_off_c, 1, 61, 100
3, 462720, Note_on_c, 1, 68, 91
3, 462908, Note_off_c, 1, 68, 100
3, 462912, Note_on_c, 1, 73, 94
3, 463100, Note_off_c, 1, 73, 100
3, 463104, Note_on_c, 1, 77, 97
3, 463292, Note_off_c, 1, 77, 100
3, 463296, Note_on_c, 1, 80, 100
3, 463484, Note_off_c, 1, 80, 100
3, 463488, Note_on_c, 1, 85, 103
3, 463676, Note_off_c, 1, 85, 100
3, 463680, Note_on_c, 1, 85, 106
3, 463868, Note_off_c, 1, 85, 100
3, 463872, Note_on_c, 1, 85, 109
3, 463872, Note_on_c, 1, 82, 109
3, 464444, Note_off_c, 1, 85, 100
3, 464444, Note_off_c, 1, 82, 100
3, 464448, Note_on_c, 1, 84, 80
3, 464448, Note_on_c, 1, 80, 80
3, 464636, Note_off_c, 1, 84, 100
3, 464636, Note_off_c, 1, 80, 100
3, 464640, Note_on_c, 1, 82, 80
3, 464640, Note_on_c, 1, 79, 80
3, 465020, Note_off_c, 1, 82, 100
3, 465020, Note_off_c, 1, 79, 100
3, 465024, Note_on_c, 1, 84, 80
3, 465024, Note_on_c, 1, 80, 80
3, 465404, Note_off_c, 1, 84, 100
3, 465404, Note_off_c, 1, 80, 100
3, 465408, Note_on_c, 1, 85, 110
3, 465408, Note_on_c, 1, 82, 110
3, 465980, Note_off_c, 1, 85, 100
3, 465980, Note_off_c, 1, 82, 100
3, 465984, Note_on_c, 1, 84, 80
3, 465984, Note_on_c, 1, 80, 80
3, 466172, Note_off_c, 1, 84, 100
3, 466172, Note_off_c, 1, 80, 100
3, 466176, Note_on_c, 1, 82, 80
3, 466176, Note_on_c, 1, 79, 80
3, 466556, Note_off_c, 1, 82, 100
3, 466556, Note_off_c, 1, 79, 100
3, 466560, Note_on_c, 1, 84, 80
3, 466560, Note_on_c, 1, 80, 80
3, 466940, Note_off_c, 1, 84, 100
3, 466940, Note_off_c, 1, 80, 100
3, 466944, Note_on_c, 1, 85, 110
3, 466944, Note_on_c, 1, 82, 110
3, 467516, Note_off_c, 1, 85, 100
3, 467516, Note_off_c, 1, 82, 100
3, 467520, Note_on_c, 1, 84, 80
3, 467520, Note_on_c, 1, 80, 80
3, 467708, Note_off_c, 1, 84, 100
3, 467708, Note_off_c, 1, 80, 100
3, 467712, Note_on_c, 1, 82, 85
3, 467712, Note_on_c, 1, 79, 85
3, 468092, Note_off_c, 1, 82, 100
3, 468092, Note_off_c, 1, 79, 100
3, 468096, Note_on_c, 1, 80, 89
3, 468096, Note_on_c, 1, 77, 89
3, 468476, Note_off_c, 1, 80, 100
3, 468476, Note_off_c, 1, 77, 100
3, 468480, Note_on_c, 1, 79, 93
3, 468480, Note_on_c, 1, 76, 93
3, 468860, Note_off_c, 1, 79, 100
3, 468860, Note_off_c, 1, 76, 100
3, 468864, Note_on_c, 1, 77, 98
3, 468864, Note_on_c, 1, 74, 98
3, 469244, Note_off_c, 1, 77, 100
3, 469244, Note_off_c, 1, 74, 100
3, 469248, Note_on_c, 1, 77, 102
3, 469248, Note_on_c, 1, 73, 102
3, 469628, Note_off_c, 1, 77, 100
3, 469628, Note_off_c, 1, 73, 100
3, 469632, Note_on_c, 1, 77, 106
3, 469632, Note_on_c, 1, 72, 106
3, 470012, Note_off_c, 1, 77, 100
3, 470012, Note_off_c, 1, 72, 100
3, 470016, Note_on_c, 1, 71, 110
3, 470400, Note_on_c, 1, 74, 105
3, 470780, Note_off_c, 1, 71, 100
3, 470780, Note_off_c, 1, 74, 100
3, 470784, Note_on_c, 1, 72, 100
3, 470784, Note_on_c, 1, 60, 100
3, 470784, Note_on_c, 1, 68, 100
3, 471164, Note_off_c, 1, 68, 100
3, 471168, Note_on_c, 1, 67, 95
3, 471548, Note_off_c, 1, 72, 100
3, 471548, Note_off_c, 1, 60, 100
3, 471548, Note_off_c, 1, 67, 100
3, 471552, Note_on_c, 1, 54, 90
3, 471552, Note_on_c, 1, 49, 90
3, 471552, Note_on_c, 1, 46, 90
3, 472124, Note_off_c, 1, 54, 100
3, 472124, Note_off_c, 1, 49, 100
3, 472124, Note_off_c, 1, 46, 100
3, 472128, Note_on_c, 1, 53, 92
3, 472128, Note_on_c, 1, 48, 92
3, 472128, Note_on_c, 1, 44, 92
3, 472316, Note_off_c, 1, 53, 100
3, 472316, Note_off_c, 1, 48, 100
3, 472316, Note_off_c, 1, 44, 100
3, 472320, Note_on_c, 1, 52, 93
3, 472320, Note_on_c, 1, 46, 93
3, 472320, Note_on_c, 1, 43, 93
3, 472700, Note_off_c, 1, 52, 100
3, 472700, Note_off_c, 1, 46, 100
3, 472700, Note_off_c, 1, 43, 100
3, 472704, Note_on_c, 1, 53, 95
3, 472704, Note_on_c, 1, 48, 95
3, 472704, Note_on_c, 1, 44, 95
3, 473084, Note_off_c, 1, 53, 100
3, 473084, Note_off_c, 1, 48, 100
3, 473084, Note_off_c, 1, 44, 100
3, 473088, Note_on_c, 1, 54, 97
3, 473088, Note_on_c, 1, 49, 97
3, 473088, Note_on_c, 1, 46, 97
3, 473660, Note_off_c, 1, 54, 100
3, 473660, Note_off_c, 1, 49, 100
3, 473660, Note_off_c, 1, 46, 100
3, 473664, Note_on_c, 1, 53, 100
3, 473664, Note_on_c, 1, 48, 100
3, 473664, Note_on_c, 1, 44, 100
3, 473852, Note_off_c, 1, 53, 100
3, 473852, Note_off_c, 1, 48, 100
3, 473852, Note_off_c, 1, 44, 100
3, 473856, Note_on_c, 1, 52, 101
3, 473856, Note_on_c, 1, 46, 101
3, 473856, Note_on_c, 1, 43, 101
3, 474236, Note_off_c, 1, 52, 100
3, 474236, Note_off_c, 1, 46, 100
3, 474236, Note_off_c, 1, 43, 100
3, 474240, Note_on_c, 1, 53, 103
3, 474240, Note_on_c, 1, 48, 103
3, 474240, Note_on_c, 1, 44, 103
3, 474620, Note_off_c, 1, 53, 100
3, 474620, Note_off_c, 1, 48, 100
3, 474620, Note_off_c, 1, 44, 100
3, 474624, Note_on_c, 1, 54, 105
3, 474624, Note_on_c, 1, 49, 105
3, 474624, Note_on_c, 1, 46, 105
3, 475196, Note_off_c, 1, 54, 100
3, 475196, Note_off_c, 1, 49, 100
3, 475196, Note_off_c, 1, 46, 100
3, 475200, Note_on_c, 1, 53, 108
3, 475200, Note_on_c, 1, 48, 108
3, 475200, Note_on_c, 1, 44, 108
3, 475388, Note_off_c, 1, 53, 100
3, 475388, Note_off_c, 1, 48, 100
3, 475388, Note_off_c, 1, 44, 100
3, 475392, Note_on_c, 1, 52, 109
3, 475392, Note_on_c, 1, 46, 109
3, 475392, Note_on_c, 1, 43, 109
3, 475772, Note_off_c, 1, 52, 100
3, 475772, Note_off_c, 1, 46, 100
3, 475772, Note_off_c, 1, 43, 100
3, 475776, Note_on_c, 1, 44, 110
3, 475776, Note_on_c, 1, 41, 110
3, 475776, Note_on_c, 1, 49, 110
3, 476156, Note_off_c, 1, 44, 100
3, 476156, Note_off_c, 1, 41, 100
3, 476156, Note_off_c, 1, 49, 100
3, 476160, Note_on_c, 1, 48, 112
3, 476160, Note_on_c, 1, 43, 112
3, 476160, Note_on_c, 1, 40, 112
3, 476540, Note_off_c, 1, 48, 100
3, 476540, Note_off_c, 1, 43, 100
3, 476540, Note_off_c, 1, 40, 100
3, 476544, Note_on_c, 1, 47, 114
3, 476544, Note_on_c, 1, 44, 114
3, 476544, Note_on_c, 1, 41, 114
3, 476544, Note_on_c, 1, 38, 114
3, 476924, Note_off_c, 1, 47, 100
3, 476924, Note_off_c, 1, 44, 100
3, 476924, Note_off_c, 1, 41, 100
3, 476924, Note_off_c, 1, 38, 100
3, 476928, Note_on_c, 1, 46, 116
3, 476928, Note_on_c, 1, 43, 116
3, 476928, Note_on_c, 1, 40, 116
3, 477308, Note_off_c, 1, 46, 100
3, 477308, Note_off_c, 1, 43, 100
3, 477308, Note_off_c, 1, 40, 100
3, 477312, Note_on_c, 1, 44, 118
3, 477312, Note_on_c, 1, 41, 118
3, 477692, Note_off_c, 1, 44, 100
3, 477692, Note_off_c, 1, 41, 100
3, 477696, Note_on_c, 1, 44, 120
3, 477696, Note_on_c, 1, 35, 120
3, 478076, Note_off_c, 1, 44, 100
3, 478080, Note_on_c, 1, 43, 115
3, 478460, Note_off_c, 1, 35, 100
3, 478460, Note_off_c, 1, 43, 100
3, 478464, Note_on_c, 1, 36, 110
3, 478464, Note_on_c, 1, 41, 110
3, 478844, Note_off_c, 1, 41, 100
3, 478848, Note_on_c, 1, 40, 105
3, 479228, Note_off_c, 1, 36, 100
3, 479228, Note_off_c, 1, 40, 100
3, 479232, Note_on_c, 1, 41, 110
3, 479232, Note_on_c, 1, 36, 110
3, 479232, Note_on_c, 1, 32, 110
3, 479232, Note_on_c, 1, 29, 110
3, 479420, Note_off_c, 1, 41, 100
3, 479420, Note_off_c, 1, 36, 100
3, 479420, Note_off_c, 1, 32, 100
3, 479420, Note_off_c, 1, 29, 100
3, 479712, Note_on_c, 1, 48, 110
3, 479804, Note_off_c, 1, 48, 100
3, 479808, Note_on_c, 1, 53, 110
3, 479900, Note_off_c, 1, 53, 100
3, 479904, Note_on_c, 1, 56, 110
3, 479996, Note_off_c, 1, 56, 100
3, 480000, Note_on_c, 1, 60, 110
3, 480092, Note_off_c, 1, 60, 100
3, 480096, Note_on_c, 1, 61, 110
3, 480188, Note_off_c, 1, 61, 100
3, 480192, Note_on_c, 1, 60, 110
3, 480284, Note_off_c, 1, 60, 100
3, 480288, Note_on_c, 1, 58, 110
3, 480380, Note_off_c, 1, 58, 100
3, 480384, Note_on_c, 1, 56, 110
3, 480476, Note_off_c, 1, 56, 100
3, 480480, Note_on_c, 1, 55, 110
3, 480572, Note_off_c, 1, 55, 100
3, 480576, Note_on_c, 1, 53, 110
3, 480668, Note_off_c, 1, 53, 100
3, 480672, Note_on_c, 1, 51, 110
3, 480764, Note_off_c, 1, 51, 100
3, 480768, Note_on_c, 1, 49, 110
3, 480860, Note_off_c, 1, 49, 100
3, 480864, Note_on_c, 1, 48, 110
3, 480956, Note_off_c, 1, 48, 100
3, 480960, Note_on_c, 1, 46, 110
3, 481052, Note_off_c, 1, 46, 100
3, 481056, Note_on_c, 1, 44, 110
3, 481148, Note_off_c, 1, 44, 100
3, 481152, Note_on_c, 1, 43, 110
3, 481244, Note_off_c, 1, 43, 100
3, 481248, Note_on_c, 1, 44, 110
3, 481340, Note_off_c, 1, 44, 100
3, 481344, Note_on_c, 1, 46, 110
3, 481436, Note_off_c, 1, 46, 100
3, 481440, Note_on_c, 1, 44, 110
3, 481532, Note_off_c, 1, 44, 100
3, 481536, Note_on_c, 1, 43, 110
3, 481628, Note_off_c, 1, 43, 100
3, 481632, Note_on_c, 1, 41, 110
3, 481724, Note_off_c, 1, 41, 100
3, 481728, Note_on_c, 1, 40, 110
3, 481820, Note_off_c, 1, 40, 100
3, 481824, Note_on_c, 1, 38, 110
3, 481916, Note_off_c, 1, 38, 100
3, 481920, Note_on_c, 1, 36, 110
3, 482012, Note_off_c, 1, 36, 100
3, 482016, Note_on_c, 1, 34, 110
3, 482108, Note_off_c, 1, 34, 100
3, 482112, Note_on_c, 1, 32, 110
3, 482204, Note_off_c, 1, 32, 100
3, 482208, Note_on_c, 1, 31, 110
3, 482300, Note_off_c, 1, 31, 100
3, 482304, Note_on_c, 1, 41, 110
3, 482304, Note_on_c, 1, 36, 110
3, 482304, Note_on_c, 1, 32, 110
3, 482304, Note_on_c, 1, 29, 110
3, 482492, Note_off_c, 1, 41, 100
3, 482492, Note_off_c, 1, 36, 100
3, 482492, Note_off_c, 1, 32, 100
3, 482492, Note_off_c, 1, 29, 100
3, 482784, Note_on_c, 1, 60, 110
3, 482876, Note_off_c, 1, 60, 100
3, 482880, Note_on_c, 1, 65, 110
3, 482972, Note_off_c, 1, 65, 100
3, 482976, Note_on_c, 1, 68, 110
3, 483068, Note_off_c, 1, 68, 100
3, 483072, Note_on_c, 1, 72, 110
3, 483164, Note_off_c, 1, 72, 100
3, 483168, Note_on_c, 1, 73, 110
3, 483260, Note_off_c, 1, 73, 100
3, 483264, Note_on_c, 1, 72, 110
3, 483356, Note_off_c, 1, 72, 100
3, 483360, Note_on_c, 1, 70, 110
3, 483452, Note_off_c, 1, 70, 100
3, 483456, Note_on_c, 1, 68, 110
3, 483548, Note_off_c, 1, 68, 100
3, 483552, Note_on_c, 1, 67, 110
3, 483644, Note_off_c, 1, 67, 100
3, 483648, Note_on_c, 1, 65, 110
3, 483740, Note_off_c, 1, 65, 100
3, 483744, Note_on_c, 1, 63, 110
3, 483836, Note_off_c, 1, 63, 100
3, 483840, Note_on_c, 1, 61, 110
3, 483932, Note_off_c, 1, 61, 100
3, 483936, Note_on_c, 1, 60, 110
3, 484028, Note_off_c, 1, 60, 100
3, 484032, Note_on_c, 1, 58, 110
3, 484124, Note_off_c, 1, 58, 100
3, 484128, Note_on_c, 1, 56, 110
3, 484220, Note_off_c, 1, 56, 100
3, 484224, Note_on_c, 1, 55, 110
3, 484316, Note_off_c, 1, 55, 100
3, 484320, Note_on_c, 1, 56, 110
3, 484412, Note_off_c, 1, 56, 100
3, 484416, Note_on_c, 1, 58, 110
3, 484508, Note_off_c, 1, 58, 100
3, 484512, Note_on_c, 1, 56, 110
3, 484604, Note_off_c, 1, 56, 100
3, 484608, Note_on_c, 1, 55, 110
3, 484700, Note_off_c, 1, 55, 100
3, 484704, Note_on_c, 1, 53, 110
3, 484796, Note_off_c, 1, 53, 100
3, 484800, Note_on_c, 1, 52, 110
3, 484892, Note_off_c, 1, 52, 100
3, 484896, Note_on_c, 1, 50, 110
3, 484988, Note_off_c, 1, 50, 100
3, 484992, Note_on_c, 1, 48, 110
3, 485084, Note_off_c, 1, 48, 100
3, 485088, Note_on_c, 1, 46, 110
3, 485180, Note_off_c, 1, 46, 100
3, 485184, Note_on_c, 1, 44, 110
3, 485276, Note_off_c, 1, 44, 100
3, 485280, Note_on_c, 1, 43, 110
3, 485372, Note_off_c, 1, 43, 100
3, 485376, Note_on_c, 1, 41, 110
3, 485468, Note_off_c, 1, 41, 100
3, 485472, Note_on_c, 1, 43, 110
3, 485564, Note_off_c, 1, 43, 100
3, 485568, Note_on_c, 1, 44, 110
3, 485660, Note_off_c, 1, 44, 100
3, 485664, Note_on_c, 1, 46, 110
3, 485756, Note_off_c, 1, 46, 100
3, 485760, Note_on_c, 1, 48, 110
3, 485852, Note_off_c, 1, 48, 100
3, 485856, Note_on_c, 1, 50, 110
3, 485948, Note_off_c, 1, 50, 100
3, 485952, Note_on_c, 1, 52, 110
3, 486044, Note_off_c, 1, 52, 100
3, 486048, Note_on_c, 1, 53, 110
3, 486140, Note_off_c, 1, 53, 100
3, 486144, Note_on_c, 1, 55, 110
3, 486236, Note_off_c, 1, 55, 100
3, 486240, Note_on_c, 1, 53, 110
3, 486332, Note_off_c, 1, 53, 100
3, 486336, Note_on_c, 1, 52, 110
3, 486428, Note_off_c, 1, 52, 100
3, 486432, Note_on_c, 1, 50, 110
3, 486524, Note_off_c, 1, 50, 100
3, 486528, Note_on_c, 1, 48, 110
3, 486620, Note_off_c, 1, 48, 100
3, 486624, Note_on_c, 1, 46, 110
3, 486716, Note_off_c, 1, 46, 100
3, 486720, Note_on_c, 1, 44, 110
3, 486812, Note_off_c, 1, 44, 100
3, 486816, Note_on_c, 1, 43, 110
3, 486908, Note_off_c, 1, 43, 100
3, 486912, Note_on_c, 1, 41, 110
3, 487004, Note_off_c, 1, 41, 100
3, 487008, Note_on_c, 1, 43, 110
3, 487100, Note_off_c, 1, 43, 100
3, 487104, Note_on_c, 1, 44, 110
3, 487196, Note_off_c, 1, 44, 100
3, 487200, Note_on_c, 1, 46, 110
3, 487292, Note_off_c, 1, 46, 100
3, 487296, Note_on_c, 1, 48, 110
3, 487388, Note_off_c, 1, 48, 100
3, 487392, Note_on_c, 1, 50, 110
3, 487484, Note_off_c, 1, 50, 100
3, 487488, Note_on_c, 1, 52, 110
3, 487580, Note_off_c, 1, 52, 100
3, 487584, Note_on_c, 1, 53, 110
3, 487676, Note_off_c, 1, 53, 100
3, 487680, Note_on_c, 1, 55, 111
3, 487772, Note_off_c, 1, 55, 100
3, 487776, Note_on_c, 1, 53, 111
3, 487868, Note_off_c, 1, 53, 100
3, 487872, Note_on_c, 1, 52, 111
3, 487964, Note_off_c, 1, 52, 100
3, 487968, Note_on_c, 1, 50, 111
3, 488060, Note_off_c, 1, 50, 100
3, 488064, Note_on_c, 1, 48, 111
3, 488156, Note_off_c, 1, 48, 100
3, 488160, Note_on_c, 1, 46, 111
3, 488252, Note_off_c, 1, 46, 100
3, 488256, Note_on_c, 1, 44, 111
3, 488348, Note_off_c, 1, 44, 100
3, 488352, Note_on_c, 1, 43, 111
3, 488444, Note_off_c, 1, 43, 100
3, 488448, Note_on_c, 1, 41, 112
3, 488828, Note_off_c, 1, 41, 100
3, 489024, Note_on_c, 1, 48, 112
3, 489024, Note_on_c, 1, 44, 112
3, 489024, Note_on_c, 1, 41, 112
3, 489024, Note_on_c, 1, 36, 112
3, 489212, Note_off_c, 1, 48, 100
3, 489212, Note_off_c, 1, 44, 100
3, 489212, Note_off_c, 1, 41, 100
3, 489212, Note_off_c, 1, 36, 100
3, 489216, Note_on_c, 1, 48, 113
3, 489216, Note_on_c, 1, 46, 113
3, 489216, Note_on_c, 1, 43, 113
3, 489216, Note_on_c, 1, 40, 113
3, 489216, Note_on_c, 1, 36, 113
3, 489404, Note_off_c, 1, 48, 100
3, 489404, Note_off_c, 1, 46, 100
3, 489404, Note_off_c, 1, 43, 100
3, 489404, Note_off_c, 1, 40, 100
3, 489404, Note_off_c, 1, 36, 100
3, 489408, Note_on_c, 1, 48, 113
3, 489408, Note_on_c, 1, 46, 113
3, 489408, Note_on_c, 1, 43, 113
3, 489408, Note_on_c, 1, 40, 113
3, 489408, Note_on_c, 1, 36, 113
3, 489596, Note_off_c, 1, 48, 100
3, 489596, Note_off_c, 1, 46, 100
3, 489596, Note_off_c, 1, 43, 100
3, 489596, Note_off_c, 1, 40, 100
3, 489596, Note_off_c, 1, 36, 100
3, 489600, Note_on_c, 1, 48, 113
3, 489600, Note_on_c, 1, 46, 113
3, 489600, Note_on_c, 1, 43, 113
3, 489600, Note_on_c, 1, 40, 113
3, 489600, Note_on_c, 1, 36, 113
3, 489788, Note_off_c, 1, 48, 100
3, 489788, Note_off_c, 1, 46, 100
3, 489788, Note_off_c, 1, 43, 100
3, 489788, Note_off_c, 1, 40, 100
3, 489788, Note_off_c, 1, 36, 100
3, 489792, Note_on_c, 1, 48, 113
3, 489792, Note_on_c, 1, 46, 113
3, 489792, Note_on_c, 1, 43, 113
3, 489792, Note_on_c, 1, 40, 113
3, 489792, Note_on_c, 1, 36, 113
3, 489980, Note_off_c, 1, 48, 100
3, 489980, Note_off_c, 1, 46, 100
3, 489980, Note_off_c, 1, 43, 100
3, 489980, Note_off_c, 1, 40, 100
3, 489980, Note_off_c, 1, 36, 100
3, 489984, Note_on_c, 1, 48, 114
3, 489984, Note_on_c, 1, 44, 114
3, 489984, Note_on_c, 1, 41, 114
3, 489984, Note_on_c, 1, 36, 114
3, 490364, Note_off_c, 1, 48, 100
3, 490364, Note_off_c, 1, 44, 100
3, 490364, Note_off_c, 1, 41, 100
3, 490364, Note_off_c, 1, 36, 100
3, 490560, Note_on_c, 1, 60, 114
3, 490560, Note_on_c, 1, 56, 114
3, 490560, Note_on_c, 1, 53, 114
3, 490560, Note_on_c, 1, 48, 114
3, 490748, Note_off_c, 1, 60, 100
3, 490748, Note_off_c, 1, 56, 100
3, 490748, Note_off_c, 1, 53, 100
3, 490748, Note_off_c, 1, 48, 100
3, 490752, Note_on_c, 1, 60, 115
3, 490752, Note_on_c, 1, 58, 115
3, 490752, Note_on_c, 1, 55, 115
3, 490752, Note_on_c, 1, 52, 115
3, 490752, Note_on_c, 1, 48, 115
3, 490940, Note_off_c, 1, 60, 100
3, 490940, Note_off_c, 1, 58, 100
3, 490940, Note_off_c, 1, 55, 100
3, 490940, Note_off_c, 1, 52, 100
3, 490940, Note_off_c, 1, 48, 100
3, 490944, Note_on_c, 1, 60, 115
3, 490944, Note_on_c, 1, 58, 115
3, 490944, Note_on_c, 1, 55, 115
3, 490944, Note_on_c, 1, 52, 115
3, 490944, Note_on_c, 1, 48, 115
3, 491132, Note_off_c, 1, 60, 100
3, 491132, Note_off_c, 1, 58, 100
3, 491132, Note_off_c, 1, 55, 100
3, 491132, Note_off_c, 1, 52, 100
3, 491132, Note_off_c, 1, 48, 100
3, 491136, Note_on_c, 1, 60, 115
3, 491136, Note_on_c, 1, 58, 115
3, 491136, Note_on_c, 1, 55, 115
3, 491136, Note_on_c, 1, 52, 115
3, 491136, Note_on_c, 1, 48, 115
3, 491324, Note_off_c, 1, 60, 100
3, 491324, Note_off_c, 1, 58, 100
3, 491324, Note_off_c, 1, 55, 100
3, 491324, Note_off_c, 1, 52, 100
3, 491324, Note_off_c, 1, 48, 100
3, 491328, Note_on_c, 1, 60, 115
3, 491328, Note_on_c, 1, 58, 115
3, 491328, Note_on_c, 1, 55, 115
3, 491328, Note_on_c, 1, 52, 115
3, 491328, Note_on_c, 1, 48, 115
3, 491516, Note_off_c, 1, 60, 100
3, 491516, Note_off_c, 1, 58, 100
3, 491516, Note_off_c, 1, 55, 100
3, 491516, Note_off_c, 1, 52, 100
3, 491516, Note_off_c, 1, 48, 100
3, 491520, Note_on_c, 1, 60, 116
3, 491520, Note_on_c, 1, 56, 116
3, 491520, Note_on_c, 1, 53, 116
3, 491520, Note_on_c, 1, 48, 116
3, 491900, Note_off_c, 1, 60, 100
3, 491900, Note_off_c, 1, 56, 100
3, 491900, Note_off_c, 1, 53, 100
3, 491900, Note_off_c, 1, 48, 100
3, 492096, Note_on_c, 1, 48, 116
3, 492096, Note_on_c, 1, 44, 116
3, 492096, Note_on_c, 1, 41, 116
3, 492096, Note_on_c, 1, 36, 116
3, 492284, Note_off_c, 1, 48, 100
3, 492284, Note_off_c, 1, 44, 100
3, 492284, Note_off_c, 1, 41, 100
3, 492284, Note_off_c, 1, 36, 100
3, 492288, Note_on_c, 1, 48, 117
3, 492288, Note_on_c, 1, 46, 117
3, 492288, Note_on_c, 1, 43, 117
3, 492288, Note_on_c, 1, 40, 117
3, 492288, Note_on_c, 1, 36, 117
3, 492476, Note_off_c, 1, 48, 100
3, 492476, Note_off_c, 1, 46, 100
3, 492476, Note_off_c, 1, 43, 100
3, 492476, Note_off_c, 1, 40, 100
3, 492476, Note_off_c, 1, 36, 100
3, 492480, Note_on_c, 1, 48, 117
3, 492480, Note_on_c, 1, 46, 117
3, 492480, Note_on_c, 1, 43, 117
3, 492480, Note_on_c, 1, 40, 117
3, 492480, Note_on_c, 1, 36, 117
3, 492668, Note_off_c, 1, 48, 100
3, 492668, Note_off_c, 1, 46, 100
3, 492668, Note_off_c, 1, 43, 100
3, 492668, Note_off_c, 1, 40, 100
3, 492668, Note_off_c, 1, 36, 100
3, 492672, Note_on_c, 1, 48, 117
3, 492672, Note_on_c, 1, 46, 117
3, 492672, Note_on_c, 1, 43, 117
3, 492672, Note_on_c, 1, 40, 117
3, 492672, Note_on_c, 1, 36, 117
3, 492860, Note_off_c, 1, 48, 100
3, 492860, Note_off_c, 1, 46, 100
3, 492860, Note_off_c, 1, 43, 100
3, 492860, Note_off_c, 1, 40, 100
3, 492860, Note_off_c, 1, 36, 100
3, 492864, Note_on_c, 1, 48, 117
3, 492864, Note_on_c, 1, 46, 117
3, 492864, Note_on_c, 1, 43, 117
3, 492864, Note_on_c, 1, 40, 117
3, 492864, Note_on_c, 1, 36, 117
3, 493052, Note_off_c, 1, 48, 100
3, 493052, Note_off_c, 1, 46, 100
3, 493052, Note_off_c, 1, 43, 100
3, 493052, Note_off_c, 1, 40, 100
3, 493052, Note_off_c, 1, 36, 100
3, 493056, Note_on_c, 1, 48, 118
3, 493056, Note_on_c, 1, 46, 118
3, 493056, Note_on_c, 1, 43, 118
3, 493056, Note_on_c, 1, 40, 118
3, 493056, Note_on_c, 1, 36, 118
3, 493244, Note_off_c, 1, 48, 100
3, 493244, Note_off_c, 1, 46, 100
3, 493244, Note_off_c, 1, 43, 100
3, 493244, Note_off_c, 1, 40, 100
3, 493244, Note_off_c, 1, 36, 100
3, 493248, Note_on_c, 1, 48, 118
3, 493248, Note_on_c, 1, 46, 118
3, 493248, Note_on_c, 1, 43, 118
3, 493248, Note_on_c, 1, 40, 118
3, 493248, Note_on_c, 1, 36, 118
3, 493436, Note_off_c, 1, 48, 100
3, 493436, Note_off_c, 1, 46, 100
3, 493436, Note_off_c, 1, 43, 100
3, 493436, Note_off_c, 1, 40, 100
3, 493436, Note_off_c, 1, 36, 100
3, 493440, Note_on_c, 1, 48, 118
3, 493440, Note_on_c, 1, 46, 118
3, 493440, Note_on_c, 1, 43, 118
3, 493440, Note_on_c, 1, 40, 118
3, 493440, Note_on_c, 1, 36, 118
3, 493628, Note_off_c, 1, 48, 100
3, 493628, Note_off_c, 1, 46, 100
3, 493628, Note_off_c, 1, 43, 100
3, 493628, Note_off_c, 1, 40, 100
3, 493628, Note_off_c, 1, 36, 100
3, 493632, Note_on_c, 1, 48, 118
3, 493632, Note_on_c, 1, 46, 118
3, 493632, Note_on_c, 1, 43, 118
3, 493632, Note_on_c, 1, 40, 118
3, 493632, Note_on_c, 1, 36, 118
3, 493820, Note_off_c, 1, 48, 100
3, 493820, Note_off_c, 1, 46, 100
3, 493820, Note_off_c, 1, 43, 100
3, 493820, Note_off_c, 1, 40, 100
3, 493820, Note_off_c, 1, 36, 100
3, 493824, Note_on_c, 1, 48, 119
3, 493824, Note_on_c, 1, 46, 119
3, 493824, Note_on_c, 1, 43, 119
3, 493824, Note_on_c, 1, 40, 119
3, 493824, Note_on_c, 1, 36, 119
3, 494012, Note_off_c, 1, 48, 100
3, 494012, Note_off_c, 1, 46, 100
3, 494012, Note_off_c, 1, 43, 100
3, 494012, Note_off_c, 1, 40, 100
3, 494012, Note_off_c, 1, 36, 100
3, 494016, Note_on_c, 1, 48, 119
3, 494016, Note_on_c, 1, 46, 119
3, 494016, Note_on_c, 1, 43, 119
3, 494016, Note_on_c, 1, 40, 119
3, 494016, Note_on_c, 1, 36, 119
3, 494204, Note_off_c, 1, 48, 100
3, 494204, Note_off_c, 1, 46, 100
3, 494204, Note_off_c, 1, 43, 100
3, 494204, Note_off_c, 1, 40, 100
3, 494204, Note_off_c, 1, 36, 100
3, 494208, Note_on_c, 1, 48, 119
3, 494208, Note_on_c, 1, 46, 119
3, 494208, Note_on_c, 1, 43, 119
3, 494208, Note_on_c, 1, 40, 119
3, 494208, Note_on_c, 1, 36, 119
3, 494396, Note_off_c, 1, 48, 100
3, 494396, Note_off_c, 1, 46, 100
3, 494396, Note_off_c, 1, 43, 100
3, 494396, Note_off_c, 1, 40, 100
3, 494396, Note_off_c, 1, 36, 100
3, 494400, Note_on_c, 1, 48, 119
3, 494400, Note_on_c, 1, 46, 119
3, 494400, Note_on_c, 1, 43, 119
3, 494400, Note_on_c, 1, 40, 119
3, 494400, Note_on_c, 1, 36, 119
3, 494588, Note_off_c, 1, 48, 100
3, 494588, Note_off_c, 1, 46, 100
3, 494588, Note_off_c, 1, 43, 100
3, 494588, Note_off_c, 1, 40, 100
3, 494588, Note_off_c, 1, 36, 100
3, 494592, Note_on_c, 1, 41, 120
3, 494592, Note_on_c, 1, 36, 120
3, 494592, Note_on_c, 1, 32, 120
3, 494592, Note_on_c, 1, 29, 120
3, 495356, Note_off_c, 1, 41, 100
3, 495356, Note_off_c, 1, 36, 100
3, 495356, Note_off_c, 1, 32, 100
3, 495356, Note_off_c, 1, 29, 100
3, 495360, Note_on_c, 1, 41, 120
3, 495360, Note_on_c, 1, 36, 120
3, 495360, Note_on_c, 1, 32, 120
3, 495360, Note_on_c, 1, 31, 120
3, 496124, Note_off_c, 1, 41, 100
3, 496124, Note_off_c, 1, 36, 100
3, 496124, Note_off_c, 1, 32, 100
3, 496124, Note_off_c, 1, 31, 100
3, 496128, Note_on_c, 1, 48, 80
3, 496128, Note_on_c, 1, 36, 80
3, 496316, Note_off_c, 1, 48, 100
3, 496316, Note_off_c, 1, 36, 100
3, 496320, Note_on_c, 1, 36, 80
3, 496508, Note_off_c, 1, 36, 100
3, 496512, Note_on_c, 1, 36, 80
3, 496700, Note_off_c, 1, 36, 100
3, 496704, Note_on_c, 1, 36, 80
3, 496892, Note_off_c, 1, 36, 100
3, 496896, Note_on_c, 1, 41, 80
3, 496896, Note_on_c, 1, 29, 80
3, 497084, Note_off_c, 1, 41, 100
3, 497084, Note_off_c, 1, 29, 100
3, 497088, Note_on_c, 1, 41, 80
3, 497276, Note_off_c, 1, 41, 100
3, 497280, Note_on_c, 1, 41, 80
3, 497468, Note_off_c, 1, 41, 100
3, 497472, Note_on_c, 1, 41, 80
3, 497660, Note_off_c, 1, 41, 100
3, 497664, Note_on_c, 1, 48, 80
3, 497664, Note_on_c, 1, 36, 80
3, 497852, Note_off_c, 1, 48, 100
3, 497852, Note_off_c, 1, 36, 100
3, 497856, Note_on_c, 1, 36, 80
3, 498044, Note_off_c, 1, 36, 100
3, 498048, Note_on_c, 1, 36, 80
3, 498236, Note_off_c, 1, 36, 100
3, 498240, Note_on_c, 1, 36, 80
3, 498428, Note_off_c, 1, 36, 100
3, 498432, Note_on_c, 1, 41, 80
3, 498620, Note_off_c, 1, 41, 100
3, 498624, Note_on_c, 1, 41, 80
3, 498812, Note_off_c, 1, 41, 100
3, 498816, Note_on_c, 1, 41, 80
3, 499004, Note_off_c, 1, 41, 100
3, 499008, Note_on_c, 1, 41, 80
3, 499196, Note_off_c, 1, 41, 100
3, 499200, Note_on_c, 1, 31, 80
3, 499388, Note_off_c, 1, 31, 100
3, 499392, Note_on_c, 1, 43, 80
3, 499580, Note_off_c, 1, 43, 100
3, 499584, Note_on_c, 1, 31, 80
3, 499772, Note_off_c, 1, 31, 100
3, 499776, Note_on_c, 1, 31, 80
3, 499964, Note_off_c, 1, 31, 100
3, 499968, Note_on_c, 1, 36, 80
3, 500348, Note_off_c, 1, 36, 100
3, 500544, Note_on_c, 1, 36, 100
3, 500588, Note_off_c, 1, 36, 100
3, 500592, Note_on_c, 1, 34, 107
3, 500636, Note_off_c, 1, 34, 100
3, 500640, Note_on_c, 1, 32, 114
3, 500672, Note_on_c, 1, 31, 119
3, 500684, Note_off_c, 1, 32, 100
3, 500716, Note_off_c, 1, 31, 100
3, 500736, Note_on_c, 1, 41, 120
3, 500736, Note_on_c, 1, 36, 120
3, 500736, Note_on_c, 1, 32, 120
3, 500736, Note_on_c, 1, 29, 120
3, 501500, Note_off_c, 1, 41, 100
3, 501500, Note_off_c, 1, 36, 100
3, 501500, Note_off_c, 1, 32, 100
3, 501500, Note_off_c, 1, 29, 100
3, 501504, Note_on_c, 1, 41, 120
3, 501504, Note_on_c, 1, 36, 120
3, 501504, Note_on_c, 1, 32, 120
3, 501504, Note_on_c, 1, 31, 120
3, 502268, Note_off_c, 1, 41, 100
3, 502268, Note_off_c, 1, 36, 100
3, 502268, Note_off_c, 1, 32, 100
3, 502268, Note_off_c, 1, 31, 100
3, 502272, Note_on_c, 1, 48, 80
3, 502272, Note_on_c, 1, 36, 80
3, 502460, Note_off_c, 1, 48, 100
3, 502460, Note_off_c, 1, 36, 100
3, 502464, Note_on_c, 1, 36, 80
3, 502652, Note_off_c, 1, 36, 100
3, 502656, Note_on_c, 1, 36, 80
3, 502844, Note_off_c, 1, 36, 100
3, 502848, Note_on_c, 1, 36, 80
3, 503036, Note_off_c, 1, 36, 100
3, 503040, Note_on_c, 1, 41, 80
3, 503040, Note_on_c, 1, 29, 80
3, 503228, Note_off_c, 1, 41, 100
3, 503228, Note_off_c, 1, 29, 100
3, 503232, Note_on_c, 1, 41, 80
3, 503420, Note_off_c, 1, 41, 100
3, 503424, Note_on_c, 1, 41, 80
3, 503612, Note_off_c, 1, 41, 100
3, 503616, Note_on_c, 1, 41, 80
3, 503804, Note_off_c, 1, 41, 100
3, 503808, Note_on_c, 1, 48, 80
3, 503808, Note_on_c, 1, 36, 80
3, 503996, Note_off_c, 1, 48, 100
3, 503996, Note_off_c, 1, 36, 100
3, 504000, Note_on_c, 1, 36, 80
3, 504188, Note_off_c, 1, 36, 100
3, 504192, Note_on_c, 1, 36, 80
3, 504380, Note_off_c, 1, 36, 100
3, 504384, Note_on_c, 1, 36, 80
3, 504572, Note_off_c, 1, 36, 100
3, 504576, Note_on_c, 1, 41, 80
3, 504764, Note_off_c, 1, 41, 100
3, 504768, Note_on_c, 1, 41, 80
3, 504956, Note_off_c, 1, 41, 100
3, 504960, Note_on_c, 1, 41, 80
3, 505148, Note_off_c, 1, 41, 100
3, 505152, Note_on_c, 1, 41, 80
3, 505340, Note_off_c, 1, 41, 100
3, 505344, Note_on_c, 1, 31, 80
3, 505532, Note_off_c, 1, 31, 100
3, 505536, Note_on_c, 1, 43, 80
3, 505724, Note_off_c, 1, 43, 100
3, 505728, Note_on_c, 1, 31, 80
3, 505916, Note_off_c, 1, 31, 100
3, 505920, Note_on_c, 1, 31, 80
3, 506108, Note_off_c, 1, 31, 100
3, 506112, Note_on_c, 1, 36, 80
3, 506492, Note_off_c, 1, 36, 100
3, 506688, Note_on_c, 1, 39, 100
3, 506748, Note_off_c, 1, 39, 100
3, 506752, Note_on_c, 1, 41, 109
3, 506812, Note_off_c, 1, 41, 100
3, 506816, Note_on_c, 1, 43, 119
3, 506876, Note_off_c, 1, 43, 100
3, 506880, Note_on_c, 1, 44, 120
3, 506880, Note_on_c, 1, 39, 120
3, 506880, Note_on_c, 1, 36, 120
3, 506880, Note_on_c, 1, 32, 120
3, 507644, Note_off_c, 1, 44, 100
3, 507644, Note_off_c, 1, 39, 100
3, 507644, Note_off_c, 1, 36, 100
3, 507644, Note_off_c, 1, 32, 100
3, 507648, Note_on_c, 1, 44, 120
3, 507648, Note_on_c, 1, 39, 120
3, 507648, Note_on_c, 1, 36, 120
3, 507648, Note_on_c, 1, 32, 120
3, 508412, Note_off_c, 1, 44, 100
3, 508412, Note_off_c, 1, 39, 100
3, 508412, Note_off_c, 1, 36, 100
3, 508412, Note_off_c, 1, 32, 100
3, 508416, Note_on_c, 1, 51, 80
3, 508416, Note_on_c, 1, 39, 80
3, 508604, Note_off_c, 1, 51, 100
3, 508604, Note_off_c, 1, 39, 100
3, 508608, Note_on_c, 1, 39, 80
3, 508796, Note_off_c, 1, 39, 100
3, 508800, Note_on_c, 1, 39, 80
3, 508988, Note_off_c, 1, 39, 100
3, 508992, Note_on_c, 1, 39, 80
3, 509180, Note_off_c, 1, 39, 100
3, 509184, Note_on_c, 1, 44, 80
3, 509184, Note_on_c, 1, 32, 80
3, 509372, Note_off_c, 1, 44, 100
3, 509372, Note_off_c, 1, 32, 100
3, 509376, Note_on_c, 1, 44, 80
3, 509564, Note_off_c, 1, 44, 100
3, 509568, Note_on_c, 1, 44, 80
3, 509756, Note_off_c, 1, 44, 100
3, 509760, Note_on_c, 1, 44, 80
3, 509948, Note_off_c, 1, 44, 100
3, 509952, Note_on_c, 1, 51, 80
3, 509952, Note_on_c, 1, 39, 80
3, 510140, Note_off_c, 1, 51, 100
3, 510140, Note_off_c, 1, 39, 100
3, 510144, Note_on_c, 1, 39, 80
3, 510332, Note_off_c, 1, 39, 100
3, 510336, Note_on_c, 1, 39, 80
3, 510524, Note_off_c, 1, 39, 100
3, 510528, Note_on_c, 1, 39, 80
3, 510716, Note_off_c, 1, 39, 100
3, 510720, Note_on_c, 1, 44, 80
3, 510720, Note_on_c, 1, 32, 80
3, 510908, Note_off_c, 1, 44, 100
3, 510908, Note_off_c, 1, 32, 100
3, 510912, Note_on_c, 1, 44, 80
3, 511100, Note_off_c, 1, 44, 100
3, 511104, Note_on_c, 1, 44, 80
3, 511292, Note_off_c, 1, 44, 100
3, 511296, Note_on_c, 1, 44, 80
3, 511484, Note_off_c, 1, 44, 100
3, 511488, Note_on_c, 1, 41, 80
3, 511488, Note_on_c, 1, 29, 80
3, 511676, Note_off_c, 1, 41, 100
3, 511676, Note_off_c, 1, 29, 100
3, 511680, Note_on_c, 1, 29, 80
3, 511868, Note_off_c, 1, 29, 100
3, 511872, Note_on_c, 1, 29, 80
3, 512060, Note_off_c, 1, 29, 100
3, 512064, Note_on_c, 1, 29, 80
3, 512252, Note_off_c, 1, 29, 100
3, 512256, Note_on_c, 1, 34, 80
3, 512256, Note_on_c, 1, 46, 80
3, 512444, Note_off_c, 1, 34, 100
3, 512444, Note_off_c, 1, 46, 100
3, 512448, Note_on_c, 1, 46, 80
3, 512636, Note_off_c, 1, 46, 100
3, 512640, Note_on_c, 1, 46, 80
3, 512828, Note_off_c, 1, 46, 100
3, 512832, Note_on_c, 1, 46, 80
3, 513020, Note_off_c, 1, 46, 100
3, 513024, Note_on_c, 1, 36, 80
3, 513212, Note_off_c, 1, 36, 100
3, 513216, Note_on_c, 1, 48, 80
3, 513404, Note_off_c, 1, 48, 100
3, 513408, Note_on_c, 1, 36, 80
3, 513596, Note_off_c, 1, 36, 100
3, 513600, Note_on_c, 1, 36, 80
3, 513788, Note_off_c, 1, 36, 100
3, 513792, Note_on_c, 1, 41, 80
3, 513792, Note_on_c, 1, 29, 80
3, 514172, Note_off_c, 1, 41, 100
3, 514172, Note_off_c, 1, 29, 100
3, 514368, Note_on_c, 1, 39, 100
3, 514428, Note_off_c, 1, 39, 100
3, 514432, Note_on_c, 1, 41, 109
3, 514492, Note_off_c, 1, 41, 100
3, 514496, Note_on_c, 1, 43, 119
3, 514556, Note_off_c, 1, 43, 100
3, 514560, Note_on_c, 1, 44, 120
3, 514560, Note_on_c, 1, 39, 120
3, 514560, Note_on_c, 1, 36, 120
3, 514560, Note_on_c, 1, 32, 120
3, 515324, Note_off_c, 1, 44, 100
3, 515324, Note_off_c, 1, 39, 100
3, 515324, Note_off_c, 1, 36, 100
3, 515324, Note_off_c, 1, 32, 100
3, 515328, Note_on_c, 1, 44, 120
3, 515328, Note_on_c, 1, 39, 120
3, 515328, Note_on_c, 1, 36, 120
3, 515328, Note_on_c, 1, 32, 120
3, 516092, Note_off_c, 1, 44, 100
3, 516092, Note_off_c, 1, 39, 100
3, 516092, Note_off_c, 1, 36, 100
3, 516092, Note_off_c, 1, 32, 100
3, 516096, Note_on_c, 1, 51, 80
3, 516096, Note_on_c, 1, 39, 80
3, 516284, Note_off_c, 1, 51, 100
3, 516284, Note_off_c, 1, 39, 100
3, 516288, Note_on_c, 1, 39, 80
3, 516476, Note_off_c, 1, 39, 100
3, 516480, Note_on_c, 1, 39, 80
3, 516668, Note_off_c, 1, 39, 100
3, 516672, Note_on_c, 1, 39, 80
3, 516860, Note_off_c, 1, 39, 100
3, 516864, Note_on_c, 1, 44, 80
3, 516864, Note_on_c, 1, 32, 80
3, 517052, Note_off_c, 1, 44, 100
3, 517052, Note_off_c, 1, 32, 100
3, 517056, Note_on_c, 1, 44, 80
3, 517244, Note_off_c, 1, 44, 100
3, 517248, Note_on_c, 1, 44, 80
3, 517436, Note_off_c, 1, 44, 100
3, 517440, Note_on_c, 1, 44, 80
3, 517628, Note_off_c, 1, 44, 100
3, 517632, Note_on_c, 1, 51, 80
3, 517632, Note_on_c, 1, 39, 80
3, 517820, Note_off_c, 1, 51, 100
3, 517820, Note_off_c, 1, 39, 100
3, 517824, Note_on_c, 1, 39, 80
3, 518012, Note_off_c, 1, 39, 100
3, 518016, Note_on_c, 1, 39, 80
3, 518204, Note_off_c, 1, 39, 100
3, 518208, Note_on_c, 1, 39, 80
3, 518396, Note_off_c, 1, 39, 100
3, 518400, Note_on_c, 1, 44, 80
3, 518400, Note_on_c, 1, 32, 80
3, 518588, Note_off_c, 1, 44, 100
3, 518588, Note_off_c, 1, 32, 100
3, 518592, Note_on_c, 1, 44, 80
3, 518780, Note_off_c, 1, 44, 100
3, 518784, Note_on_c, 1, 44, 80
3, 518972, Note_off_c, 1, 44, 100
3, 518976, Note_on_c, 1, 44, 80
3, 519164, Note_off_c, 1, 44, 100
3, 519168, Note_on_c, 1, 41, 80
3, 519168, Note_on_c, 1, 29, 80
3, 519356, Note_off_c, 1, 41, 100
3, 519356, Note_off_c, 1, 29, 100
3, 519360, Note_on_c, 1, 29, 80
3, 519548, Note_off_c, 1, 29, 100
3, 519552, Note_on_c, 1, 29, 80
3, 519740, Note_off_c, 1, 29, 100
3, 519744, Note_on_c, 1, 29, 80
3, 519932, Note_off_c, 1, 29, 100
3, 519936, Note_on_c, 1, 34, 80
3, 519936, Note_on_c, 1, 46, 80
3, 520124, Note_off_c, 1, 34, 100
3, 520124, Note_off_c, 1, 46, 100
3, 520128, Note_on_c, 1, 46, 80
3, 520316, Note_off_c, 1, 46, 100
3, 520320, Note_on_c, 1, 46, 80
3, 520508, Note_off_c, 1, 46, 100
3, 520512, Note_on_c, 1, 46, 80
3, 520700, Note_off_c, 1, 46, 100
3, 520704, Note_on_c, 1, 36, 90
3, 520892, Note_off_c, 1, 36, 100
3, 520896, Note_on_c, 1, 48, 93
3, 521084, Note_off_c, 1, 48, 100
3, 521088, Note_on_c, 1, 36, 96
3, 521276, Note_off_c, 1, 36, 100
3, 521280, Note_on_c, 1, 36, 99
3, 521468, Note_off_c, 1, 36, 100
3, 521472, Note_on_c, 1, 41, 110
3, 521472, Note_on_c, 1, 29, 110
3, 521564, Note_off_c, 1, 41, 100
3, 521564, Note_off_c, 1, 29, 100
3, 521568, Note_on_c, 1, 41, 110
3, 521664, Note_on_c, 1, 44, 110
3, 521760, Note_on_c, 1, 48, 110
3, 521856, Note_on_c, 1, 53, 110
3, 522320, Note_on_c, 1, 41, 110
3, 522332, Note_off_c, 1, 41, 100
3, 522332, Note_off_c, 1, 44, 100
3, 522332, Note_off_c, 1, 48, 100
3, 522332, Note_off_c, 1, 53, 100
3, 522416, Note_on_c, 1, 44, 110
3, 522512, Note_on_c, 1, 48, 110
3, 522608, Note_on_c, 1, 53, 110
3, 523084, Note_off_c, 1, 41, 100
3, 523084, Note_off_c, 1, 44, 100
3, 523084, Note_off_c, 1, 48, 100
3, 523084, Note_off_c, 1, 53, 100
3, 523104, Note_on_c, 1, 41, 110
3, 523200, Note_on_c, 1, 44, 110
3, 523296, Note_on_c, 1, 48, 110
3, 523392, Note_on_c, 1, 53, 110
3, 523868, Note_off_c, 1, 41, 100
3, 523868, Note_off_c, 1, 44, 100
3, 523868, Note_off_c, 1, 48, 100
3, 523868, Note_off_c, 1, 53, 100
3, 523872, Note_on_c, 1, 41, 110
3, 523968, Note_on_c, 1, 44, 110
3, 524064, Note_on_c, 1, 48, 110
3, 524160, Note_on_c, 1, 53, 110
3, 524624, Note_on_c, 1, 46, 110
3, 524636, Note_off_c, 1, 41, 100
3, 524636, Note_off_c, 1, 44, 100
3, 524636, Note_off_c, 1, 48, 100
3, 524636, Note_off_c, 1, 53, 100
3, 524736, Note_on_c, 1, 49, 110
3, 524816, Note_on_c, 1, 54, 110
3, 524928, Note_on_c, 1, 58, 110
3, 525388, Note_off_c, 1, 46, 100
3, 525388, Note_off_c, 1, 54, 100
3, 525392, Note_on_c, 1, 46, 110
3, 525404, Note_off_c, 1, 49, 100
3, 525404, Note_off_c, 1, 58, 100
3, 525504, Note_on_c, 1, 49, 110
3, 525584, Note_on_c, 1, 54, 110
3, 525696, Note_on_c, 1, 58, 110
3, 526156, Note_off_c, 1, 46, 100
3, 526156, Note_off_c, 1, 54, 100
3, 526172, Note_off_c, 1, 49, 100
3, 526172, Note_off_c, 1, 58, 100
3, 526176, Note_on_c, 1, 48, 110
3, 526272, Note_on_c, 1, 55, 110
3, 526368, Note_on_c, 1, 58, 110
3, 526464, Note_on_c, 1, 60, 110
3, 526940, Note_off_c, 1, 48, 100
3, 526940, Note_off_c, 1, 55, 100
3, 526940, Note_off_c, 1, 58, 100
3, 526940, Note_off_c, 1, 60, 100
3, 526944, Note_on_c, 1, 48, 110
3, 527040, Note_on_c, 1, 55, 110
3, 527136, Note_on_c, 1, 58, 110
3, 527232, Note_on_c, 1, 60, 110
3, 527708, Note_off_c, 1, 48, 100
3, 527708, Note_off_c, 1, 55, 100
3, 527708, Note_off_c, 1, 58, 100
3, 527708, Note_off_c, 1, 60, 100
3, 527712, Note_on_c, 1, 53, 110
3, 527808, Note_on_c, 1, 56, 110
3, 527904, Note_on_c, 1, 60, 110
3, 528000, Note_on_c, 1, 65, 110
3, 528464, Note_on_c, 1, 53, 110
3, 528476, Note_off_c, 1, 53, 100
3, 528476, Note_off_c, 1, 56, 100
3, 528476, Note_off_c, 1, 60, 100
3, 528476, Note_off_c, 1, 65, 100
3, 528560, Note_on_c, 1, 56, 110
3, 528656, Note_on_c, 1, 60, 110
3, 528752, Note_on_c, 1, 65, 110
3, 529228, Note_off_c, 1, 53, 100
3, 529228, Note_off_c, 1, 56, 100
3, 529228, Note_off_c, 1, 60, 100
3, 529228, Note_off_c, 1, 65, 100
3, 529248, Note_on_c, 1, 53, 110
3, 529344, Note_on_c, 1, 56, 110
3, 529440, Note_on_c, 1, 60, 110
3, 529536, Note_on_c, 1, 65, 110
3, 530012, Note_off_c, 1, 53, 100
3, 530012, Note_off_c, 1, 56, 100
3, 530012, Note_off_c, 1, 60, 100
3, 530012, Note_off_c, 1, 65, 100
3, 530016, Note_on_c, 1, 53, 110
3, 530112, Note_on_c, 1, 56, 110
3, 530208, Note_on_c, 1, 60, 110
3, 530304, Note_on_c, 1, 65, 110
3, 530768, Note_on_c, 1, 58, 110
3, 530780, Note_off_c, 1, 53, 100
3, 530780, Note_off_c, 1, 56, 100
3, 530780, Note_off_c, 1, 60, 100
3, 530780, Note_off_c, 1, 65, 100
3, 530880, Note_on_c, 1, 61, 110
3, 530960, Note_on_c, 1, 66, 110
3, 531072, Note_on_c, 1, 70, 110
3, 531532, Note_off_c, 1, 58, 100
3, 531532, Note_off_c, 1, 66, 100
3, 531548, Note_off_c, 1, 61, 100
3, 531548, Note_off_c, 1, 70, 100
3, 531552, Note_on_c, 1, 58, 110
3, 531648, Note_on_c, 1, 61, 110
3, 531728, Note_on_c, 1, 66, 110
3, 531840, Note_on_c, 1, 70, 110
3, 532300, Note_off_c, 1, 66, 100
3, 532316, Note_off_c, 1, 58, 100
3, 532316, Note_off_c, 1, 61, 100
3, 532316, Note_off_c, 1, 70, 100
3, 532320, Note_on_c, 1, 60, 110
3, 532416, Note_on_c, 1, 67, 110
3, 532512, Note_on_c, 1, 70, 110
3, 532608, Note_on_c, 1, 72, 110
3, 533084, Note_off_c, 1, 60, 100
3, 533084, Note_off_c, 1, 67, 100
3, 533084, Note_off_c, 1, 70, 100
3, 533084, Note_off_c, 1, 72, 100
3, 533088, Note_on_c, 1, 60, 110
3, 533184, Note_on_c, 1, 67, 110
3, 533280, Note_on_c, 1, 70, 110
3, 533376, Note_on_c, 1, 72, 110
3, 533760, Note_off_c, 1, 60, 100
3, 533760, Note_off_c, 1, 67, 100
3, 533760, Note_off_c, 1, 70, 100
3, 533760, Note_off_c, 1, 72, 100
3, 533760, Note_on_c, 1, 53, 110
3, 533760, Note_on_c, 1, 41, 110
3, 533948, Note_off_c, 1, 53, 100
3, 533948, Note_off_c, 1, 41, 100
3, 534336, Note_on_c, 1, 72, 110
3, 534432, Note_on_c, 1, 77, 110
3, 534528, Note_on_c, 1, 80, 110
3, 535100, Note_off_c, 1, 72, 100
3, 535100, Note_off_c, 1, 77, 100
3, 535100, Note_off_c, 1, 80, 100
3, 535104, Note_on_c, 1, 60, 110
3, 535292, Note_off_c, 1, 60, 100
3, 535296, Note_on_c, 1, 65, 110
3, 535868, Note_off_c, 1, 65, 100
3, 535872, Note_on_c, 1, 72, 110
3, 535968, Note_on_c, 1, 77, 110
3, 536064, Note_on_c, 1, 80, 110
3, 536636, Note_off_c, 1, 72, 100
3, 536636, Note_off_c, 1, 77, 100
3, 536636, Note_off_c, 1, 80, 100
3, 536640, Note_on_c, 1, 60, 110
3, 536828, Note_off_c, 1, 60, 100
3, 536832, Note_on_c, 1, 65, 110
3, 537408, Note_on_c, 1, 72, 110
3, 537420, Note_off_c, 1, 65, 100
3, 537504, Note_on_c, 1, 77, 110
3, 537600, Note_on_c, 1, 80, 110
3, 538172, Note_off_c, 1, 72, 100
3, 538172, Note_off_c, 1, 77, 100
3, 538172, Note_off_c, 1, 80, 100
3, 538176, Note_on_c, 1, 60, 110
3, 538364, Note_off_c, 1, 60, 100
3, 538368, Note_on_c, 1, 65, 110
3, 538940, Note_off_c, 1, 65, 100
3, 538944, Note_on_c, 1, 72, 110
3, 539040, Note_on_c, 1, 77, 110
3, 539136, Note_on_c, 1, 80, 110
3, 539708, Note_off_c, 1, 72, 100
3, 539708, Note_off_c, 1, 77, 100
3, 539708, Note_off_c, 1, 80, 100
3, 539712, Note_on_c, 1, 60, 110
3, 539900, Note_off_c, 1, 60, 100
3, 539904, Note_on_c, 1, 65, 110
3, 540476, Note_off_c, 1, 65, 100
3, 540480, Note_on_c, 1, 60, 112
3, 540668, Note_off_c, 1, 60, 100
3, 540672, Note_on_c, 1, 53, 113
3, 541052, Note_off_c, 1, 53, 100
3, 541248, Note_on_c, 1, 48, 116
3, 541436, Note_off_c, 1, 48, 100
3, 541440, Note_on_c, 1, 41, 117
3, 541820, Note_off_c, 1, 41, 100
3, 542016, Note_on_c, 1, 36, 120
3, 542204, Note_off_c, 1, 36, 100
3, 542208, Note_on_c, 1, 29, 121
3, 542396, Note_off_c, 1, 29, 100
3, 542400, Note_on_c, 1, 36, 122
3, 542588, Note_off_c, 1, 36, 100
3, 542592, Note_on_c, 1, 29, 123
3, 542780, Note_off_c, 1, 29, 100
3, 542784, Note_on_c, 1, 36, 124
3, 542972, Note_off_c, 1, 36, 100
3, 542976, Note_on_c, 1, 29, 125
3, 543072, Note_on_c, 1, 32, 125
3, 543164, Note_off_c, 1, 29, 100
3, 543168, Note_on_c, 1, 36, 125
3, 543260, Note_off_c, 1, 32, 100
3, 543264, Note_on_c, 1, 41, 125
3, 543356, Note_off_c, 1, 36, 100
3, 543360, Note_on_c, 1, 29, 125
3, 543452, Note_off_c, 1, 41, 100
3, 543456, Note_on_c, 1, 32, 125
3, 543548, Note_off_c, 1, 29, 100
3, 543552, Note_on_c, 1, 36, 125
3, 543644, Note_off_c, 1, 32, 100
3, 543648, Note_on_c, 1, 41, 125
3, 543740, Note_off_c, 1, 36, 100
3, 543744, Note_on_c, 1, 29, 125
3, 543836, Note_off_c, 1, 41, 100
3, 543840, Note_on_c, 1, 32, 125
3, 543932, Note_off_c, 1, 29, 100
3, 543936, Note_on_c, 1, 36, 125
3, 544028, Note_off_c, 1, 32, 100
3, 544032, Note_on_c, 1, 41, 125
3, 544124, Note_off_c, 1, 36, 100
3, 544128, Note_on_c, 1, 29, 125
3, 544220, Note_off_c, 1, 41, 100
3, 544224, Note_on_c, 1, 32, 125
3, 544316, Note_off_c, 1, 29, 100
3, 544320, Note_on_c, 1, 36, 125
3, 544412, Note_off_c, 1, 32, 100
3, 544416, Note_on_c, 1, 41, 125
3, 544508, Note_off_c, 1, 36, 100
3, 544512, Note_on_c, 1, 29, 125
3, 544604, Note_off_c, 1, 41, 100
3, 544608, Note_on_c, 1, 32, 125
3, 544700, Note_off_c, 1, 29, 100
3, 544704, Note_on_c, 1, 36, 125
3, 544796, Note_off_c, 1, 32, 100
3, 544800, Note_on_c, 1, 41, 125
3, 544880, Note_on_c, 1, 29, 125
3, 544892, Note_off_c, 1, 36, 100
3, 544976, Note_on_c, 1, 32, 125
3, 544988, Note_off_c, 1, 41, 100
3, 545068, Note_off_c, 1, 29, 100
3, 545072, Note_on_c, 1, 36, 125
3, 545164, Note_off_c, 1, 32, 100
3, 545168, Note_on_c, 1, 41, 125
3, 545260, Note_off_c, 1, 36, 100
3, 545280, Note_on_c, 1, 29, 125
3, 545356, Note_off_c, 1, 41, 100
3, 545376, Note_on_c, 1, 32, 125
3, 545468, Note_off_c, 1, 29, 100
3, 545472, Note_on_c, 1, 36, 125
3, 545564, Note_off_c, 1, 32, 100
3, 545568, Note_on_c, 1, 41, 125
3, 545660, Note_off_c, 1, 36, 100
3, 545664, Note_on_c, 1, 29, 125
3, 545756, Note_off_c, 1, 41, 100
3, 545760, Note_on_c, 1, 32, 125
3, 545852, Note_off_c, 1, 29, 100
3, 545856, Note_on_c, 1, 36, 125
3, 545948, Note_off_c, 1, 32, 100
3, 545952, Note_on_c, 1, 41, 125
3, 546044, Note_off_c, 1, 36, 100
3, 546048, Note_on_c, 1, 29, 125
3, 546140, Note_off_c, 1, 41, 100
3, 546144, Note_on_c, 1, 32, 125
3, 546236, Note_off_c, 1, 29, 100
3, 546240, Note_on_c, 1, 36, 125
3, 546332, Note_off_c, 1, 32, 100
3, 546336, Note_on_c, 1, 41, 125
3, 546428, Note_off_c, 1, 36, 100
3, 546432, Note_on_c, 1, 29, 125
3, 546524, Note_off_c, 1, 41, 100
3, 546528, Note_on_c, 1, 32, 125
3, 546620, Note_off_c, 1, 29, 100
3, 546624, Note_on_c, 1, 36, 125
3, 546716, Note_off_c, 1, 32, 100
3, 546720, Note_on_c, 1, 41, 125
3, 546812, Note_off_c, 1, 36, 100
3, 546816, Control_c, 1, 64, 127
3, 546816, Note_on_c, 1, 29, 125
3, 546908, Note_off_c, 1, 41, 100
3, 546912, Note_on_c, 1, 32, 125
3, 547004, Note_off_c, 1, 29, 100
3, 547008, Note_on_c, 1, 36, 125
3, 547100, Note_off_c, 1, 32, 100
3, 547104, Note_on_c, 1, 41, 125
3, 547196, Note_off_c, 1, 36, 100
3, 547200, Note_on_c, 1, 29, 125
3, 547292, Note_off_c, 1, 41, 100
3, 547296, Note_on_c, 1, 32, 125
3, 547388, Note_off_c, 1, 29, 100
3, 547392, Note_on_c, 1, 36, 125
3, 547484, Note_off_c, 1, 32, 100
3, 547488, Note_on_c, 1, 41, 125
3, 547580, Note_off_c, 1, 36, 100
3, 547580, Note_off_c, 1, 41, 100
3, 547584, Note_on_c, 1, 41, 125
3, 547584, Note_on_c, 1, 36, 125
3, 547584, Note_on_c, 1, 32, 125
3, 547584, Note_on_c, 1, 29, 125
3, 548348, Note_off_c, 1, 41, 100
3, 548348, Note_off_c, 1, 36, 100
3, 548348, Note_off_c, 1, 32, 100
3, 548348, Note_off_c, 1, 29, 100
3, 548352, Note_on_c, 1, 41, 125
3, 548352, Note_on_c, 1, 36, 125
3, 548352, Note_on_c, 1, 32, 125
3, 548352, Note_on_c, 1, 29, 125
3, 549116, Note_off_c, 1, 41, 100
3, 549116, Note_off_c, 1, 36, 100
3, 549116, Note_off_c, 1, 32, 100
3, 549116, Note_off_c, 1, 29, 100
3, 549120, Note_on_c, 1, 41, 125
3, 549120, Note_on_c, 1, 36, 125
3, 549120, Note_on_c, 1, 32, 125
3, 549120, Note_on_c, 1, 29, 125
3, 549880, Control_c, 1, 64, 0
3, 549884, Note_off_c, 1, 41, 100
3, 549884, Note_off_c, 1, 36, 100
3, 549884, Note_off_c, 1, 32, 100
3, 549884, Note_off_c, 1, 29, 100
3, 549884, End_track
0, 0, End_of_file
