0, 0, Header, 1, 4, 384
1, 0, Start_track
1, 0, Title_t, "L.v.Beethoven 1mov - Piano Sonata No.23 in F minor Op.57\000"
1, 0, Copyright_t, "Copyright(C) 1995-2009, Suzuki Software\000"
1, 0, Sequencer_specific, 9, 67, 123, 0, 88, 70, 48, 50, 0, 1
1, 0, Text_t, "XFhd:2000/08/19:JP:Classical::::L.v.Beethoven:::Kaoru Suzuki\000"
1, 0, Text_t, "XFln:JP:\203s\203A\203m\203\\\203i\203^\221æ23\224Ô\203w\222Z\222²\215ì\225i57\201`\221æ1\212y\217Í:L.v.\203x\201[\203g\201[\203\224\203F\203\223:::\227é\202¿\202á\202ñ:\227é\202¿\202á\202ñ\000"
1, 0, Time_signature, 3, 3, 96, 8
1, 0, Sequencer_specific, 3, 0, 0, 65
1, 0, Sequencer_specific, 5, 0, 0, 119, 14, 0
1, 0, Tempo, 500000
1, 576, Time_signature, 3, 2, 96, 8
1, 576, Tempo, 500000
1, 27264, Tempo, 666666
1, 28416, Tempo, 800000
1, 29184, Tempo, 1000000
1, 29376, Tempo, 1500000
1, 29952, Tempo, 333333
1, 36480, Tempo, 352941
1, 37440, Tempo, 400000
1, 53568, Tempo, 333333
1, 78912, Tempo, 400000
1, 115776, Tempo, 333333
1, 145728, Tempo, 352941
1, 146880, Tempo, 375000
1, 147648, Tempo, 500000
1, 147840, Tempo, 750000
1, 148032, Tempo, 500000
1, 149760, Tempo, 400000
1, 179712, Tempo, 333333
1, 197568, Tempo, 375000
1, 198144, Tempo, 413793
1, 198528, Tempo, 500000
1, 198720, Tempo, 400000
1, 198912, Tempo, 333333
1, 240192, Tempo, 375000
1, 241344, Tempo, 352941
1, 244800, Tempo, 333333
1, 248256, Tempo, 342857
1, 248640, Tempo, 352941
1, 249024, Tempo, 375000
1, 249600, Tempo, 333333
1, 345600, Tempo, 375000
1, 345792, Tempo, 400000
1, 345984, Tempo, 500000
1, 346176, Tempo, 413793
1, 348480, Tempo, 333333
1, 371520, Tempo, 400000
1, 373824, Tempo, 333333
1, 399168, Tempo, 375000
1, 412224, Tempo, 413793
1, 412608, Tempo, 461538
1, 415296, Tempo, 375000
1, 436032, Tempo, 342857
1, 480960, Tempo, 352941
1, 481344, Tempo, 375000
1, 481728, Tempo, 400000
1, 481920, Tempo, 461538
1, 482008, Tempo, 600000
1, 482112, Tempo, 428571
1, 482304, Tempo, 342857
1, 542584, Tempo, 400000
1, 543736, Tempo, 461538
1, 544888, Tempo, 545454
1, 545472, Tempo, 666666
1, 546624, Tempo, 750000
1, 547200, Tempo, 1500000
1, 547584, Tempo, 2000000
1, 547776, Tempo, 857142
1, 548928, Tempo, 300000
1, 573120, Tempo, 285714
1, 591168, Tempo, 333333
1, 591360, Tempo, 375000
1, 591552, Tempo, 315789
1, 600768, Tempo, 315789
1, 600996, Tempo, 324324
1, 601224, Tempo, 333333
1, 601452, Tempo, 352941
1, 601680, Tempo, 375000
1, 601908, Tempo, 400000
1, 602136, Tempo, 461538
1, 602364, Tempo, 545454
1, 602592, Tempo, 666666
1, 602820, Tempo, 857142
1, 603048, Tempo, 1500000
1, 603072, Tempo, 750000
1, 603072, End_track
2, 0, Start_track
2, 0, Title_t, "Right"
2, 0, Control_c, 0, 0, 0
2, 0, Program_c, 0, 0
2, 0, Control_c, 0, 7, 100
2, 0, Control_c, 0, 10, 74
2, 0, Control_c, 0, 91, 127
2, 0, Key_signature, -4, "minor"
2, 0, Note_on_c, 0, 60, 70
2, 476, Note_off_c, 0, 60, 100
2, 480, Note_on_c, 0, 56, 70
2, 572, Note_off_c, 0, 56, 100
2, 576, Note_on_c, 0, 53, 70
2, 2300, Note_off_c, 0, 53, 100
2, 2304, Note_on_c, 0, 56, 70
2, 2780, Note_off_c, 0, 56, 100
2, 2784, Note_on_c, 0, 60, 70
2, 2876, Note_off_c, 0, 60, 100
2, 2880, Note_on_c, 0, 65, 70
2, 3452, Note_off_c, 0, 65, 100
2, 3456, Note_on_c, 0, 68, 70
2, 3932, Note_off_c, 0, 68, 100
2, 3936, Note_on_c, 0, 72, 70
2, 4028, Note_off_c, 0, 72, 100
2, 4032, Note_on_c, 0, 77, 70
2, 4604, Note_off_c, 0, 77, 100
2, 4608, Note_on_c, 0, 65, 70
2, 5180, Note_off_c, 0, 65, 100
2, 5184, Note_on_c, 0, 72, 70
2, 6140, Note_off_c, 0, 72, 100
2, 6144, Note_on_c, 0, 74, 70
2, 6332, Note_off_c, 0, 74, 100
2, 6336, Note_on_c, 0, 72, 70
2, 6384, Note_on_c, 0, 74, 70
2, 6424, Note_off_c, 0, 72, 100
2, 6432, Note_on_c, 0, 76, 70
2, 6472, Note_off_c, 0, 74, 100
2, 6480, Note_on_c, 0, 74, 70
2, 6520, Note_off_c, 0, 76, 100
2, 6528, Note_on_c, 0, 76, 70
2, 6568, Note_off_c, 0, 74, 100
2, 6576, Note_on_c, 0, 74, 70
2, 6616, Note_off_c, 0, 76, 100
2, 6624, Note_on_c, 0, 76, 70
2, 6664, Note_off_c, 0, 74, 100
2, 6672, Note_on_c, 0, 74, 70
2, 6712, Note_off_c, 0, 76, 100
2, 6720, Note_on_c, 0, 76, 70
2, 6760, Note_off_c, 0, 74, 100
2, 6768, Note_on_c, 0, 74, 70
2, 6808, Note_off_c, 0, 76, 100
2, 6816, Note_on_c, 0, 76, 70
2, 6856, Note_off_c, 0, 74, 100
2, 6864, Note_on_c, 0, 74, 70
2, 6904, Note_off_c, 0, 76, 100
2, 6912, Note_on_c, 0, 76, 70
2, 6952, Note_off_c, 0, 74, 100
2, 6960, Note_on_c, 0, 74, 70
2, 7000, Note_off_c, 0, 76, 100
2, 7008, Note_on_c, 0, 76, 70
2, 7048, Note_off_c, 0, 74, 100
2, 7056, Note_on_c, 0, 74, 70
2, 7096, Note_off_c, 0, 76, 100
2, 7104, Note_on_c, 0, 76, 70
2, 7144, Note_off_c, 0, 74, 100
2, 7152, Note_on_c, 0, 74, 70
2, 7192, Note_off_c, 0, 76, 100
2, 7200, Note_on_c, 0, 72, 70
2, 7240, Note_off_c, 0, 74, 100
2, 7288, Note_off_c, 0, 72, 100
2, 7296, Note_on_c, 0, 76, 70
2, 7388, Note_off_c, 0, 76, 100
2, 7392, Note_on_c, 0, 74, 70
2, 7484, Note_off_c, 0, 74, 100
2, 7488, Note_on_c, 0, 72, 70
2, 7868, Note_off_c, 0, 72, 100
2, 9216, Note_on_c, 0, 61, 70
2, 9692, Note_off_c, 0, 61, 100
2, 9696, Note_on_c, 0, 58, 70
2, 9788, Note_off_c, 0, 58, 100
2, 9792, Note_on_c, 0, 54, 70
2, 11516, Note_off_c, 0, 54, 100
2, 11520, Note_on_c, 0, 58, 70
2, 11996, Note_off_c, 0, 58, 100
2, 12000, Note_on_c, 0, 61, 70
2, 12092, Note_off_c, 0, 61, 100
2, 12096, Note_on_c, 0, 66, 70
2, 12668, Note_off_c, 0, 66, 100
2, 12672, Note_on_c, 0, 70, 70
2, 13148, Note_off_c, 0, 70, 100
2, 13152, Note_on_c, 0, 73, 70
2, 13244, Note_off_c, 0, 73, 100
2, 13248, Note_on_c, 0, 78, 70
2, 13820, Note_off_c, 0, 78, 100
2, 13824, Note_on_c, 0, 66, 70
2, 14396, Note_off_c, 0, 66, 100
2, 14400, Note_on_c, 0, 73, 70
2, 15356, Note_off_c, 0, 73, 100
2, 15360, Note_on_c, 0, 75, 70
2, 15548, Note_off_c, 0, 75, 100
2, 15552, Note_on_c, 0, 73, 70
2, 15600, Note_on_c, 0, 75, 70
2, 15640, Note_off_c, 0, 73, 100
2, 15648, Note_on_c, 0, 77, 70
2, 15688, Note_off_c, 0, 75, 100
2, 15696, Note_on_c, 0, 75, 70
2, 15736, Note_off_c, 0, 77, 100
2, 15744, Note_on_c, 0, 77, 70
2, 15784, Note_off_c, 0, 75, 100
2, 15792, Note_on_c, 0, 75, 70
2, 15832, Note_off_c, 0, 77, 100
2, 15840, Note_on_c, 0, 77, 70
2, 15880, Note_off_c, 0, 75, 100
2, 15888, Note_on_c, 0, 75, 70
2, 15928, Note_off_c, 0, 77, 100
2, 15936, Note_on_c, 0, 77, 70
2, 15976, Note_off_c, 0, 75, 100
2, 15984, Note_on_c, 0, 75, 70
2, 16024, Note_off_c, 0, 77, 100
2, 16032, Note_on_c, 0, 77, 70
2, 16072, Note_off_c, 0, 75, 100
2, 16080, Note_on_c, 0, 75, 70
2, 16120, Note_off_c, 0, 77, 100
2, 16128, Note_on_c, 0, 77, 70
2, 16168, Note_off_c, 0, 75, 100
2, 16176, Note_on_c, 0, 75, 70
2, 16216, Note_off_c, 0, 77, 100
2, 16224, Note_on_c, 0, 77, 70
2, 16264, Note_off_c, 0, 75, 100
2, 16272, Note_on_c, 0, 75, 70
2, 16312, Note_off_c, 0, 77, 100
2, 16320, Note_on_c, 0, 77, 70
2, 16360, Note_off_c, 0, 75, 100
2, 16368, Note_on_c, 0, 75, 70
2, 16408, Note_off_c, 0, 77, 100
2, 16416, Note_on_c, 0, 73, 70
2, 16456, Note_off_c, 0, 75, 100
2, 16508, Note_off_c, 0, 73, 100
2, 16512, Note_on_c, 0, 77, 70
2, 16604, Note_off_c, 0, 77, 100
2, 16608, Note_on_c, 0, 75, 70
2, 16700, Note_off_c, 0, 75, 100
2, 16704, Note_on_c, 0, 73, 70
2, 17084, Note_off_c, 0, 73, 100
2, 19008, Note_on_c, 0, 72, 70
2, 19964, Note_off_c, 0, 72, 100
2, 19968, Note_on_c, 0, 74, 79
2, 20156, Note_off_c, 0, 74, 100
2, 20160, Note_on_c, 0, 72, 80
2, 20208, Note_on_c, 0, 74, 80
2, 20248, Note_off_c, 0, 72, 100
2, 20256, Note_on_c, 0, 76, 80
2, 20296, Note_off_c, 0, 74, 100
2, 20304, Note_on_c, 0, 74, 79
2, 20344, Note_off_c, 0, 76, 100
2, 20352, Note_on_c, 0, 76, 79
2, 20392, Note_off_c, 0, 74, 100
2, 20400, Note_on_c, 0, 74, 78
2, 20440, Note_off_c, 0, 76, 100
2, 20448, Note_on_c, 0, 76, 78
2, 20488, Note_off_c, 0, 74, 100
2, 20496, Note_on_c, 0, 74, 77
2, 20536, Note_off_c, 0, 76, 100
2, 20544, Note_on_c, 0, 76, 77
2, 20584, Note_off_c, 0, 74, 100
2, 20592, Note_on_c, 0, 74, 76
2, 20632, Note_off_c, 0, 76, 100
2, 20640, Note_on_c, 0, 76, 76
2, 20680, Note_off_c, 0, 74, 100
2, 20688, Note_on_c, 0, 74, 76
2, 20728, Note_off_c, 0, 76, 100
2, 20736, Note_on_c, 0, 76, 75
2, 20776, Note_off_c, 0, 74, 100
2, 20784, Note_on_c, 0, 74, 75
2, 20824, Note_off_c, 0, 76, 100
2, 20832, Note_on_c, 0, 76, 74
2, 20872, Note_off_c, 0, 74, 100
2, 20880, Note_on_c, 0, 74, 74
2, 20920, Note_off_c, 0, 76, 100
2, 20928, Note_on_c, 0, 76, 73
2, 20968, Note_off_c, 0, 74, 100
2, 20976, Note_on_c, 0, 74, 73
2, 21016, Note_off_c, 0, 76, 100
2, 21024, Note_on_c, 0, 72, 72
2, 21064, Note_off_c, 0, 74, 100
2, 21112, Note_off_c, 0, 72, 100
2, 21120, Note_on_c, 0, 76, 71
2, 21212, Note_off_c, 0, 76, 100
2, 21216, Note_on_c, 0, 74, 71
2, 21308, Note_off_c, 0, 74, 100
2, 21312, Note_on_c, 0, 72, 70
2, 21692, Note_off_c, 0, 72, 100
2, 23616, Note_on_c, 0, 76, 70
2, 24572, Note_off_c, 0, 76, 100
2, 24576, Note_on_c, 0, 77, 89
2, 24764, Note_off_c, 0, 77, 100
2, 24768, Note_on_c, 0, 79, 90
2, 24816, Note_on_c, 0, 77, 90
2, 24856, Note_off_c, 0, 79, 100
2, 24864, Note_on_c, 0, 79, 89
2, 24904, Note_off_c, 0, 77, 100
2, 24912, Note_on_c, 0, 77, 88
2, 24952, Note_off_c, 0, 79, 100
2, 24960, Note_on_c, 0, 79, 87
2, 25000, Note_off_c, 0, 77, 100
2, 25008, Note_on_c, 0, 77, 86
2, 25048, Note_off_c, 0, 79, 100
2, 25056, Note_on_c, 0, 79, 85
2, 25096, Note_off_c, 0, 77, 100
2, 25104, Note_on_c, 0, 77, 84
2, 25144, Note_off_c, 0, 79, 100
2, 25152, Note_on_c, 0, 79, 83
2, 25192, Note_off_c, 0, 77, 100
2, 25200, Note_on_c, 0, 77, 82
2, 25240, Note_off_c, 0, 79, 100
2, 25248, Note_on_c, 0, 79, 81
2, 25288, Note_off_c, 0, 77, 100
2, 25296, Note_on_c, 0, 77, 81
2, 25336, Note_off_c, 0, 79, 100
2, 25344, Note_on_c, 0, 79, 80
2, 25384, Note_off_c, 0, 77, 100
2, 25392, Note_on_c, 0, 77, 79
2, 25432, Note_off_c, 0, 79, 100
2, 25440, Note_on_c, 0, 79, 78
2, 25480, Note_off_c, 0, 77, 100
2, 25488, Note_on_c, 0, 77, 77
2, 25528, Note_off_c, 0, 79, 100
2, 25536, Note_on_c, 0, 79, 76
2, 25576, Note_off_c, 0, 77, 100
2, 25584, Note_on_c, 0, 77, 75
2, 25624, Note_off_c, 0, 79, 100
2, 25632, Note_on_c, 0, 76, 74
2, 25672, Note_off_c, 0, 77, 100
2, 25724, Note_off_c, 0, 76, 100
2, 25728, Note_on_c, 0, 79, 72
2, 25820, Note_off_c, 0, 79, 100
2, 25824, Note_on_c, 0, 77, 71
2, 25916, Note_off_c, 0, 77, 100
2, 25920, Note_on_c, 0, 76, 70
2, 26300, Note_off_c, 0, 76, 100
2, 27648, Note_on_c, 0, 79, 70
2, 27648, Note_on_c, 0, 76, 70
2, 27836, Note_off_c, 0, 79, 100
2, 27836, Note_off_c, 0, 76, 100
2, 27840, Note_on_c, 0, 79, 70
2, 27840, Note_on_c, 0, 76, 70
2, 28028, Note_off_c, 0, 79, 100
2, 28028, Note_off_c, 0, 76, 100
2, 28032, Note_on_c, 0, 79, 70
2, 28032, Note_on_c, 0, 76, 70
2, 28220, Note_off_c, 0, 79, 100
2, 28220, Note_off_c, 0, 76, 100
2, 28224, Note_on_c, 0, 82, 70
2, 28224, Note_on_c, 0, 79, 70
2, 28604, Note_off_c, 0, 82, 100
2, 28604, Note_off_c, 0, 79, 100
2, 29952, Note_on_c, 0, 82, 110
2, 29952, Note_on_c, 0, 79, 110
2, 30140, Note_off_c, 0, 82, 100
2, 30140, Note_off_c, 0, 79, 100
2, 30144, Note_on_c, 0, 82, 110
2, 30144, Note_on_c, 0, 79, 110
2, 30332, Note_off_c, 0, 82, 100
2, 30332, Note_off_c, 0, 79, 100
2, 30336, Note_on_c, 0, 82, 110
2, 30336, Note_on_c, 0, 79, 110
2, 30524, Note_off_c, 0, 82, 100
2, 30524, Note_off_c, 0, 79, 100
2, 30528, Note_on_c, 0, 88, 110
2, 30624, Note_on_c, 0, 82, 110
2, 30716, Note_off_c, 0, 88, 100
2, 30720, Note_on_c, 0, 91, 110
2, 30812, Note_off_c, 0, 82, 100
2, 30816, Note_on_c, 0, 88, 110
2, 30908, Note_off_c, 0, 91, 100
2, 30912, Note_on_c, 0, 94, 110
2, 31004, Note_off_c, 0, 88, 100
2, 31008, Note_on_c, 0, 91, 110
2, 31100, Note_off_c, 0, 94, 100
2, 31104, Note_on_c, 0, 88, 110
2, 31196, Note_off_c, 0, 91, 100
2, 31200, Note_on_c, 0, 91, 110
2, 31292, Note_off_c, 0, 88, 100
2, 31296, Note_on_c, 0, 82, 110
2, 31388, Note_off_c, 0, 91, 100
2, 31392, Note_on_c, 0, 88, 110
2, 31484, Note_off_c, 0, 82, 100
2, 31488, Note_on_c, 0, 79, 110
2, 31580, Note_off_c, 0, 88, 100
2, 31584, Note_on_c, 0, 82, 110
2, 31676, Note_off_c, 0, 79, 100
2, 31680, Note_on_c, 0, 76, 110
2, 31772, Note_off_c, 0, 82, 100
2, 31776, Note_on_c, 0, 79, 110
2, 31868, Note_off_c, 0, 76, 100
2, 31872, Note_on_c, 0, 70, 110
2, 31964, Note_off_c, 0, 79, 100
2, 31968, Note_on_c, 0, 76, 110
2, 32060, Note_off_c, 0, 70, 100
2, 32064, Note_on_c, 0, 67, 110
2, 32156, Note_off_c, 0, 76, 100
2, 32160, Note_on_c, 0, 70, 110
2, 32252, Note_off_c, 0, 67, 100
2, 32256, Note_on_c, 0, 64, 110
2, 32348, Note_off_c, 0, 70, 100
2, 32352, Note_on_c, 0, 67, 110
2, 32444, Note_off_c, 0, 64, 100
2, 32448, Note_on_c, 0, 58, 110
2, 32540, Note_off_c, 0, 67, 100
2, 32544, Note_on_c, 0, 64, 110
2, 32636, Note_off_c, 0, 58, 100
2, 32640, Note_on_c, 0, 55, 110
2, 32732, Note_off_c, 0, 64, 100
2, 32736, Note_on_c, 0, 58, 110
2, 32828, Note_off_c, 0, 55, 100
2, 32832, Note_on_c, 0, 52, 110
2, 32924, Note_off_c, 0, 58, 100
2, 32928, Note_on_c, 0, 55, 110
2, 33020, Note_off_c, 0, 52, 100
2, 33024, Note_on_c, 0, 46, 110
2, 33116, Note_off_c, 0, 55, 100
2, 33120, Note_on_c, 0, 52, 110
2, 33212, Note_off_c, 0, 46, 100
2, 33308, Note_off_c, 0, 52, 100
2, 34560, Note_on_c, 0, 61, 110
2, 34560, Note_on_c, 0, 56, 110
2, 34560, Note_on_c, 0, 49, 110
2, 34748, Note_off_c, 0, 61, 100
2, 34748, Note_off_c, 0, 56, 100
2, 34748, Note_off_c, 0, 49, 100
2, 35136, Note_on_c, 0, 55, 80
2, 35136, Note_on_c, 0, 52, 80
2, 35136, Note_on_c, 0, 60, 80
2, 36860, Note_off_c, 0, 52, 100
2, 36860, Note_off_c, 0, 55, 100
2, 36860, Note_off_c, 0, 60, 100
2, 36864, Note_on_c, 0, 60, 70
2, 37340, Note_off_c, 0, 60, 100
2, 37344, Note_on_c, 0, 56, 70
2, 37436, Note_off_c, 0, 56, 100
2, 37440, Note_on_c, 0, 53, 120
2, 37628, Note_off_c, 0, 53, 100
2, 37632, Note_on_c, 0, 65, 120
2, 37632, Note_on_c, 0, 60, 120
2, 37632, Note_on_c, 0, 56, 120
2, 37632, Note_on_c, 0, 53, 120
2, 38012, Note_off_c, 0, 65, 100
2, 38012, Note_off_c, 0, 60, 100
2, 38012, Note_off_c, 0, 56, 100
2, 38012, Note_off_c, 0, 53, 100
2, 38016, Note_on_c, 0, 68, 120
2, 38016, Note_on_c, 0, 65, 120
2, 38016, Note_on_c, 0, 60, 120
2, 38016, Note_on_c, 0, 56, 120
2, 38396, Note_off_c, 0, 68, 100
2, 38396, Note_off_c, 0, 65, 100
2, 38396, Note_off_c, 0, 60, 100
2, 38396, Note_off_c, 0, 56, 100
2, 38400, Note_on_c, 0, 72, 120
2, 38400, Note_on_c, 0, 68, 120
2, 38400, Note_on_c, 0, 65, 120
2, 38400, Note_on_c, 0, 60, 120
2, 38780, Note_off_c, 0, 60, 100
2, 38780, Note_off_c, 0, 65, 100
2, 38780, Note_off_c, 0, 68, 100
2, 38780, Note_off_c, 0, 72, 100
2, 38784, Note_on_c, 0, 77, 120
2, 38784, Note_on_c, 0, 72, 120
2, 38784, Note_on_c, 0, 68, 120
2, 38784, Note_on_c, 0, 65, 120
2, 39164, Note_off_c, 0, 77, 100
2, 39164, Note_off_c, 0, 72, 100
2, 39164, Note_off_c, 0, 68, 100
2, 39164, Note_off_c, 0, 65, 100
2, 39168, Note_on_c, 0, 80, 120
2, 39168, Note_on_c, 0, 77, 120
2, 39168, Note_on_c, 0, 72, 120
2, 39168, Note_on_c, 0, 68, 120
2, 39548, Note_off_c, 0, 80, 100
2, 39548, Note_off_c, 0, 77, 100
2, 39548, Note_off_c, 0, 72, 100
2, 39548, Note_off_c, 0, 68, 100
2, 39552, Note_on_c, 0, 84, 120
2, 39552, Note_on_c, 0, 80, 120
2, 39552, Note_on_c, 0, 77, 120
2, 39552, Note_on_c, 0, 72, 120
2, 39740, Note_off_c, 0, 84, 100
2, 39740, Note_off_c, 0, 80, 100
2, 39740, Note_off_c, 0, 77, 100
2, 39740, Note_off_c, 0, 72, 100
2, 39744, Note_on_c, 0, 89, 120
2, 39744, Note_on_c, 0, 84, 120
2, 39744, Note_on_c, 0, 80, 120
2, 39744, Note_on_c, 0, 77, 120
2, 41468, Note_off_c, 0, 77, 100
2, 41468, Note_off_c, 0, 80, 100
2, 41468, Note_off_c, 0, 84, 100
2, 41468, Note_off_c, 0, 89, 100
2, 41472, Note_on_c, 0, 56, 80
2, 41948, Note_off_c, 0, 56, 100
2, 41952, Note_on_c, 0, 60, 80
2, 42044, Note_off_c, 0, 60, 100
2, 42048, Note_on_c, 0, 65, 80
2, 42620, Note_off_c, 0, 65, 100
2, 42624, Note_on_c, 0, 68, 80
2, 43100, Note_off_c, 0, 68, 100
2, 43104, Note_on_c, 0, 72, 80
2, 43196, Note_off_c, 0, 72, 100
2, 43200, Note_on_c, 0, 77, 80
2, 43772, Note_off_c, 0, 77, 100
2, 43776, Note_on_c, 0, 65, 80
2, 44348, Note_off_c, 0, 65, 100
2, 44352, Note_on_c, 0, 60, 120
2, 44352, Note_on_c, 0, 55, 120
2, 44352, Note_on_c, 0, 52, 120
2, 44540, Note_off_c, 0, 60, 100
2, 44540, Note_off_c, 0, 55, 100
2, 44540, Note_off_c, 0, 52, 100
2, 44544, Note_on_c, 0, 64, 120
2, 44544, Note_on_c, 0, 60, 120
2, 44544, Note_on_c, 0, 55, 120
2, 44924, Note_off_c, 0, 64, 100
2, 44924, Note_off_c, 0, 60, 100
2, 44924, Note_off_c, 0, 55, 100
2, 44928, Note_on_c, 0, 67, 120
2, 44928, Note_on_c, 0, 64, 120
2, 44928, Note_on_c, 0, 60, 120
2, 45308, Note_off_c, 0, 67, 100
2, 45308, Note_off_c, 0, 64, 100
2, 45308, Note_off_c, 0, 60, 100
2, 45312, Note_on_c, 0, 72, 120
2, 45312, Note_on_c, 0, 67, 120
2, 45312, Note_on_c, 0, 64, 120
2, 45692, Note_off_c, 0, 64, 100
2, 45692, Note_off_c, 0, 67, 100
2, 45692, Note_off_c, 0, 72, 100
2, 45696, Note_on_c, 0, 76, 120
2, 45696, Note_on_c, 0, 72, 120
2, 45696, Note_on_c, 0, 67, 120
2, 46076, Note_off_c, 0, 76, 100
2, 46076, Note_off_c, 0, 72, 100
2, 46076, Note_off_c, 0, 67, 100
2, 46080, Note_on_c, 0, 79, 120
2, 46080, Note_on_c, 0, 76, 120
2, 46080, Note_on_c, 0, 72, 120
2, 46460, Note_off_c, 0, 79, 100
2, 46460, Note_off_c, 0, 76, 100
2, 46460, Note_off_c, 0, 72, 100
2, 46464, Note_on_c, 0, 84, 120
2, 46464, Note_on_c, 0, 79, 120
2, 46464, Note_on_c, 0, 76, 120
2, 46652, Note_off_c, 0, 84, 100
2, 46652, Note_off_c, 0, 79, 100
2, 46652, Note_off_c, 0, 76, 100
2, 46656, Note_on_c, 0, 72, 80
2, 47612, Note_off_c, 0, 72, 100
2, 47616, Note_on_c, 0, 74, 80
2, 47804, Note_off_c, 0, 74, 100
2, 47808, Note_on_c, 0, 71, 80
2, 47808, Note_on_c, 0, 76, 80
2, 47856, Note_on_c, 0, 74, 80
2, 47896, Note_off_c, 0, 76, 100
2, 47904, Note_on_c, 0, 76, 80
2, 47944, Note_off_c, 0, 74, 100
2, 47952, Note_on_c, 0, 74, 80
2, 47992, Note_off_c, 0, 76, 100
2, 48000, Note_on_c, 0, 76, 80
2, 48040, Note_off_c, 0, 74, 100
2, 48048, Note_on_c, 0, 74, 80
2, 48088, Note_off_c, 0, 76, 100
2, 48096, Note_on_c, 0, 76, 80
2, 48136, Note_off_c, 0, 74, 100
2, 48144, Note_on_c, 0, 74, 80
2, 48184, Note_off_c, 0, 76, 100
2, 48192, Note_on_c, 0, 76, 80
2, 48232, Note_off_c, 0, 74, 100
2, 48240, Note_on_c, 0, 74, 80
2, 48280, Note_off_c, 0, 76, 100
2, 48288, Note_on_c, 0, 76, 80
2, 48328, Note_off_c, 0, 74, 100
2, 48336, Note_on_c, 0, 74, 80
2, 48376, Note_off_c, 0, 76, 100
2, 48384, Note_on_c, 0, 76, 80
2, 48424, Note_off_c, 0, 74, 100
2, 48432, Note_on_c, 0, 74, 80
2, 48472, Note_off_c, 0, 76, 100
2, 48480, Note_on_c, 0, 76, 80
2, 48520, Note_off_c, 0, 74, 100
2, 48528, Note_on_c, 0, 74, 80
2, 48568, Note_off_c, 0, 76, 100
2, 48576, Note_on_c, 0, 76, 80
2, 48616, Note_off_c, 0, 74, 100
2, 48624, Note_on_c, 0, 74, 80
2, 48664, Note_off_c, 0, 76, 100
2, 48672, Note_on_c, 0, 72, 80
2, 48712, Note_off_c, 0, 74, 100
2, 48760, Note_off_c, 0, 72, 100
2, 48768, Note_on_c, 0, 76, 80
2, 48860, Note_off_c, 0, 76, 100
2, 48864, Note_on_c, 0, 74, 80
2, 48956, Note_off_c, 0, 71, 100
2, 48956, Note_off_c, 0, 74, 100
2, 48960, Note_on_c, 0, 60, 120
2, 48960, Note_on_c, 0, 55, 120
2, 48960, Note_on_c, 0, 52, 120
2, 49148, Note_off_c, 0, 60, 100
2, 49148, Note_off_c, 0, 55, 100
2, 49148, Note_off_c, 0, 52, 100
2, 49152, Note_on_c, 0, 64, 120
2, 49152, Note_on_c, 0, 60, 120
2, 49152, Note_on_c, 0, 55, 120
2, 49532, Note_off_c, 0, 64, 100
2, 49532, Note_off_c, 0, 60, 100
2, 49532, Note_off_c, 0, 55, 100
2, 49536, Note_on_c, 0, 67, 120
2, 49536, Note_on_c, 0, 64, 120
2, 49536, Note_on_c, 0, 60, 120
2, 49916, Note_off_c, 0, 67, 100
2, 49916, Note_off_c, 0, 64, 100
2, 49916, Note_off_c, 0, 60, 100
2, 49920, Note_on_c, 0, 72, 120
2, 49920, Note_on_c, 0, 67, 120
2, 49920, Note_on_c, 0, 64, 120
2, 50300, Note_off_c, 0, 64, 100
2, 50300, Note_off_c, 0, 67, 100
2, 50300, Note_off_c, 0, 72, 100
2, 50304, Note_on_c, 0, 76, 120
2, 50304, Note_on_c, 0, 72, 120
2, 50304, Note_on_c, 0, 67, 120
2, 50684, Note_off_c, 0, 76, 100
2, 50684, Note_off_c, 0, 72, 100
2, 50684, Note_off_c, 0, 67, 100
2, 50688, Note_on_c, 0, 79, 120
2, 50688, Note_on_c, 0, 76, 120
2, 50688, Note_on_c, 0, 72, 120
2, 51068, Note_off_c, 0, 79, 100
2, 51068, Note_off_c, 0, 76, 100
2, 51068, Note_off_c, 0, 72, 100
2, 51072, Note_on_c, 0, 84, 120
2, 51072, Note_on_c, 0, 79, 120
2, 51072, Note_on_c, 0, 76, 120
2, 51260, Note_off_c, 0, 84, 100
2, 51260, Note_off_c, 0, 79, 100
2, 51260, Note_off_c, 0, 76, 100
2, 51264, Note_on_c, 0, 72, 80
2, 52220, Note_off_c, 0, 72, 100
2, 52224, Note_on_c, 0, 73, 80
2, 52412, Note_off_c, 0, 73, 100
2, 52416, Note_on_c, 0, 72, 80
2, 52464, Note_on_c, 0, 73, 80
2, 52504, Note_off_c, 0, 72, 100
2, 52512, Note_on_c, 0, 75, 80
2, 52552, Note_off_c, 0, 73, 100
2, 52560, Note_on_c, 0, 73, 80
2, 52600, Note_off_c, 0, 75, 100
2, 52608, Note_on_c, 0, 75, 80
2, 52648, Note_off_c, 0, 73, 100
2, 52656, Note_on_c, 0, 73, 80
2, 52696, Note_off_c, 0, 75, 100
2, 52704, Note_on_c, 0, 75, 80
2, 52744, Note_off_c, 0, 73, 100
2, 52752, Note_on_c, 0, 73, 80
2, 52792, Note_off_c, 0, 75, 100
2, 52800, Note_on_c, 0, 75, 80
2, 52840, Note_off_c, 0, 73, 100
2, 52848, Note_on_c, 0, 73, 80
2, 52888, Note_off_c, 0, 75, 100
2, 52896, Note_on_c, 0, 75, 80
2, 52936, Note_off_c, 0, 73, 100
2, 52944, Note_on_c, 0, 73, 80
2, 52984, Note_off_c, 0, 75, 100
2, 52992, Note_on_c, 0, 75, 80
2, 53032, Note_off_c, 0, 73, 100
2, 53040, Note_on_c, 0, 73, 80
2, 53080, Note_off_c, 0, 75, 100
2, 53088, Note_on_c, 0, 75, 80
2, 53128, Note_off_c, 0, 73, 100
2, 53136, Note_on_c, 0, 73, 80
2, 53176, Note_off_c, 0, 75, 100
2, 53184, Note_on_c, 0, 75, 80
2, 53224, Note_off_c, 0, 73, 100
2, 53232, Note_on_c, 0, 73, 80
2, 53272, Note_off_c, 0, 75, 100
2, 53280, Note_on_c, 0, 75, 80
2, 53320, Note_off_c, 0, 73, 100
2, 53328, Note_on_c, 0, 73, 80
2, 53368, Note_off_c, 0, 75, 100
2, 53376, Note_on_c, 0, 72, 80
2, 53416, Note_off_c, 0, 73, 100
2, 53468, Note_off_c, 0, 72, 100
2, 53472, Note_on_c, 0, 73, 80
2, 53564, Note_off_c, 0, 73, 100
2, 53568, Note_on_c, 0, 82, 80
2, 53568, Note_on_c, 0, 79, 80
2, 54140, Note_off_c, 0, 82, 100
2, 54140, Note_off_c, 0, 79, 100
2, 55872, Note_on_c, 0, 80, 80
2, 55872, Note_on_c, 0, 83, 80
2, 56444, Note_off_c, 0, 80, 100
2, 56444, Note_off_c, 0, 83, 100
2, 58176, Note_on_c, 0, 83, 110
2, 58176, Note_on_c, 0, 80, 110
2, 58176, Note_on_c, 0, 88, 110
2, 60476, Note_off_c, 0, 80, 100
2, 60476, Note_off_c, 0, 83, 100
2, 60476, Note_off_c, 0, 88, 100
2, 60480, Note_on_c, 0, 87, 80
2, 60480, Note_on_c, 0, 82, 80
2, 60480, Note_on_c, 0, 79, 80
2, 60860, Note_off_c, 0, 87, 100
2, 60860, Note_off_c, 0, 82, 100
2, 60860, Note_off_c, 0, 79, 100
2, 62208, Note_on_c, 0, 82, 80
2, 62208, Note_on_c, 0, 79, 80
2, 62684, Note_off_c, 0, 82, 100
2, 62684, Note_off_c, 0, 79, 100
2, 62688, Note_on_c, 0, 82, 80
2, 62688, Note_on_c, 0, 79, 80
2, 62780, Note_off_c, 0, 82, 100
2, 62780, Note_off_c, 0, 79, 100
2, 62784, Note_on_c, 0, 83, 80
2, 62784, Note_on_c, 0, 80, 80
2, 63164, Note_off_c, 0, 83, 100
2, 63164, Note_off_c, 0, 80, 100
2, 63168, Note_on_c, 0, 82, 80
2, 63168, Note_on_c, 0, 79, 80
2, 63356, Note_off_c, 0, 82, 100
2, 63356, Note_off_c, 0, 79, 100
2, 63744, Note_on_c, 0, 70, 80
2, 63744, Note_on_c, 0, 67, 80
2, 63932, Note_off_c, 0, 70, 100
2, 63932, Note_off_c, 0, 67, 100
2, 64320, Note_on_c, 0, 58, 80
2, 64320, Note_on_c, 0, 55, 80
2, 64508, Note_off_c, 0, 58, 100
2, 64508, Note_off_c, 0, 55, 100
2, 64992, Note_on_c, 0, 82, 80
2, 64992, Note_on_c, 0, 79, 80
2, 65084, Note_off_c, 0, 82, 100
2, 65084, Note_off_c, 0, 79, 100
2, 65088, Note_on_c, 0, 85, 80
2, 65088, Note_on_c, 0, 82, 80
2, 65468, Note_off_c, 0, 85, 100
2, 65468, Note_off_c, 0, 82, 100
2, 65472, Note_on_c, 0, 83, 80
2, 65472, Note_on_c, 0, 80, 80
2, 65660, Note_off_c, 0, 83, 100
2, 65660, Note_off_c, 0, 80, 100
2, 66048, Note_on_c, 0, 71, 80
2, 66048, Note_on_c, 0, 68, 80
2, 66236, Note_off_c, 0, 71, 100
2, 66236, Note_off_c, 0, 68, 100
2, 66624, Note_on_c, 0, 59, 80
2, 66624, Note_on_c, 0, 56, 80
2, 66812, Note_off_c, 0, 59, 100
2, 66812, Note_off_c, 0, 56, 100
2, 67296, Note_on_c, 0, 83, 80
2, 67296, Note_on_c, 0, 80, 80
2, 67388, Note_off_c, 0, 83, 100
2, 67388, Note_off_c, 0, 80, 100
2, 67392, Note_on_c, 0, 88, 110
2, 67392, Note_on_c, 0, 83, 110
2, 67392, Note_on_c, 0, 80, 110
2, 69692, Note_off_c, 0, 80, 100
2, 69692, Note_off_c, 0, 83, 100
2, 69692, Note_off_c, 0, 88, 100
2, 69696, Note_on_c, 0, 87, 80
2, 69696, Note_on_c, 0, 82, 80
2, 69696, Note_on_c, 0, 79, 80
2, 70076, Note_off_c, 0, 87, 100
2, 70076, Note_off_c, 0, 82, 100
2, 70076, Note_off_c, 0, 79, 100
2, 70848, Note_on_c, 0, 75, 80
2, 70848, Note_on_c, 0, 69, 80
2, 70848, Note_on_c, 0, 66, 80
2, 71996, Note_off_c, 0, 75, 100
2, 71996, Note_off_c, 0, 69, 100
2, 71996, Note_off_c, 0, 66, 100
2, 72000, Note_on_c, 0, 74, 77
2, 72000, Note_on_c, 0, 68, 77
2, 72000, Note_on_c, 0, 65, 77
2, 72380, Note_off_c, 0, 74, 100
2, 72380, Note_off_c, 0, 68, 100
2, 72380, Note_off_c, 0, 65, 100
2, 73152, Note_on_c, 0, 73, 73
2, 73152, Note_on_c, 0, 67, 73
2, 73152, Note_on_c, 0, 64, 73
2, 73532, Note_off_c, 0, 73, 100
2, 73532, Note_off_c, 0, 67, 100
2, 73532, Note_off_c, 0, 64, 100
2, 74304, Note_on_c, 0, 73, 70
2, 74304, Note_on_c, 0, 67, 70
2, 74304, Note_on_c, 0, 63, 70
2, 74876, Note_off_c, 0, 73, 100
2, 74876, Note_off_c, 0, 67, 100
2, 74876, Note_off_c, 0, 63, 100
2, 76608, Note_on_c, 0, 61, 70
2, 76608, Note_on_c, 0, 58, 70
2, 76608, Note_on_c, 0, 55, 70
2, 77180, Note_off_c, 0, 61, 100
2, 77180, Note_off_c, 0, 58, 100
2, 77180, Note_off_c, 0, 55, 100
2, 80640, Note_on_c, 0, 60, 70
2, 80640, Note_on_c, 0, 48, 70
2, 81116, Note_off_c, 0, 60, 100
2, 81116, Note_off_c, 0, 48, 100
2, 81120, Note_on_c, 0, 63, 70
2, 81120, Note_on_c, 0, 51, 70
2, 81212, Note_off_c, 0, 63, 100
2, 81212, Note_off_c, 0, 51, 100
2, 81216, Note_on_c, 0, 68, 70
2, 81216, Note_on_c, 0, 56, 70
2, 81788, Note_off_c, 0, 68, 100
2, 81788, Note_off_c, 0, 56, 100
2, 81792, Note_on_c, 0, 72, 70
2, 81792, Note_on_c, 0, 60, 70
2, 82268, Note_off_c, 0, 72, 100
2, 82268, Note_off_c, 0, 60, 100
2, 82272, Note_on_c, 0, 68, 70
2, 82272, Note_on_c, 0, 56, 70
2, 82364, Note_off_c, 0, 68, 100
2, 82364, Note_off_c, 0, 56, 100
2, 82368, Note_on_c, 0, 67, 70
2, 82368, Note_on_c, 0, 55, 70
2, 82940, Note_off_c, 0, 67, 100
2, 82940, Note_off_c, 0, 55, 100
2, 82944, Note_on_c, 0, 70, 70
2, 82944, Note_on_c, 0, 58, 70
2, 83420, Note_off_c, 0, 70, 100
2, 83420, Note_off_c, 0, 58, 100
2, 83424, Note_on_c, 0, 67, 70
2, 83424, Note_on_c, 0, 55, 70
2, 83516, Note_off_c, 0, 67, 100
2, 83516, Note_off_c, 0, 55, 100
2, 83520, Note_on_c, 0, 68, 70
2, 83520, Note_on_c, 0, 56, 70
2, 84092, Note_off_c, 0, 68, 100
2, 84092, Note_off_c, 0, 56, 100
2, 84096, Note_on_c, 0, 63, 70
2, 84096, Note_on_c, 0, 51, 70
2, 85244, Note_off_c, 0, 51, 100
2, 85244, Note_off_c, 0, 63, 100
2, 85248, Note_on_c, 0, 65, 70
2, 85248, Note_on_c, 0, 53, 70
2, 85724, Note_off_c, 0, 65, 100
2, 85724, Note_off_c, 0, 53, 100
2, 85728, Note_on_c, 0, 61, 70
2, 85728, Note_on_c, 0, 49, 70
2, 85820, Note_off_c, 0, 61, 100
2, 85820, Note_off_c, 0, 49, 100
2, 85824, Note_on_c, 0, 60, 70
2, 85824, Note_on_c, 0, 48, 70
2, 86396, Note_off_c, 0, 60, 100
2, 86396, Note_off_c, 0, 48, 100
2, 86400, Note_on_c, 0, 63, 70
2, 86400, Note_on_c, 0, 51, 70
2, 86876, Note_off_c, 0, 63, 100
2, 86876, Note_off_c, 0, 51, 100
2, 86880, Note_on_c, 0, 60, 70
2, 86880, Note_on_c, 0, 48, 70
2, 86972, Note_off_c, 0, 60, 100
2, 86972, Note_off_c, 0, 48, 100
2, 86976, Note_on_c, 0, 58, 70
2, 86976, Note_on_c, 0, 46, 70
2, 87548, Note_off_c, 0, 58, 100
2, 87548, Note_off_c, 0, 46, 100
2, 87552, Note_on_c, 0, 63, 70
2, 87552, Note_on_c, 0, 51, 70
2, 88028, Note_off_c, 0, 63, 100
2, 88028, Note_off_c, 0, 51, 100
2, 88032, Note_on_c, 0, 61, 70
2, 88032, Note_on_c, 0, 49, 70
2, 88124, Note_off_c, 0, 61, 100
2, 88124, Note_off_c, 0, 49, 100
2, 88128, Note_on_c, 0, 60, 70
2, 88700, Note_off_c, 0, 60, 100
2, 88704, Note_on_c, 0, 63, 72
2, 89852, Note_off_c, 0, 63, 100
2, 89856, Note_on_c, 0, 72, 77
2, 89856, Note_on_c, 0, 60, 77
2, 90332, Note_off_c, 0, 72, 100
2, 90332, Note_off_c, 0, 60, 100
2, 90336, Note_on_c, 0, 75, 79
2, 90336, Note_on_c, 0, 63, 79
2, 90428, Note_off_c, 0, 75, 100
2, 90428, Note_off_c, 0, 63, 100
2, 90432, Note_on_c, 0, 80, 80
2, 90432, Note_on_c, 0, 68, 80
2, 91004, Note_off_c, 0, 80, 100
2, 91004, Note_off_c, 0, 68, 100
2, 91008, Note_on_c, 0, 84, 80
2, 91008, Note_on_c, 0, 72, 80
2, 91484, Note_off_c, 0, 84, 100
2, 91484, Note_off_c, 0, 72, 100
2, 91488, Note_on_c, 0, 80, 80
2, 91488, Note_on_c, 0, 68, 80
2, 91580, Note_off_c, 0, 80, 100
2, 91580, Note_off_c, 0, 68, 100
2, 91584, Note_on_c, 0, 79, 80
2, 91584, Note_on_c, 0, 67, 80
2, 92156, Note_off_c, 0, 79, 100
2, 92156, Note_off_c, 0, 67, 100
2, 92160, Note_on_c, 0, 82, 80
2, 92160, Note_on_c, 0, 70, 80
2, 92636, Note_off_c, 0, 82, 100
2, 92636, Note_off_c, 0, 70, 100
2, 92640, Note_on_c, 0, 79, 80
2, 92640, Note_on_c, 0, 67, 80
2, 92732, Note_off_c, 0, 79, 100
2, 92732, Note_off_c, 0, 67, 100
2, 92736, Note_on_c, 0, 80, 80
2, 92736, Note_on_c, 0, 68, 80
2, 93308, Note_off_c, 0, 80, 100
2, 93308, Note_off_c, 0, 68, 100
2, 93312, Note_on_c, 0, 75, 80
2, 93312, Note_on_c, 0, 63, 80
2, 95036, Note_off_c, 0, 63, 100
2, 95036, Note_off_c, 0, 75, 100
2, 95040, Note_on_c, 0, 76, 110
2, 95040, Note_on_c, 0, 64, 110
2, 95612, Note_off_c, 0, 76, 100
2, 95612, Note_off_c, 0, 64, 100
2, 95616, Note_on_c, 0, 73, 110
2, 95616, Note_on_c, 0, 61, 110
2, 97340, Note_off_c, 0, 61, 100
2, 97340, Note_off_c, 0, 73, 100
2, 97344, Note_on_c, 0, 71, 80
2, 99068, Note_off_c, 0, 71, 100
2, 99072, Note_on_c, 0, 70, 80
2, 99452, Note_off_c, 0, 70, 100
2, 99456, Note_on_c, 0, 68, 80
2, 99644, Note_off_c, 0, 68, 100
2, 99648, Note_on_c, 0, 69, 70
2, 99696, Note_on_c, 0, 70, 70
2, 99740, Note_off_c, 0, 69, 100
2, 99744, Note_on_c, 0, 71, 70
2, 99788, Note_off_c, 0, 70, 100
2, 99792, Note_on_c, 0, 70, 70
2, 99836, Note_off_c, 0, 71, 100
2, 99840, Note_on_c, 0, 71, 70
2, 99884, Note_off_c, 0, 70, 100
2, 99888, Note_on_c, 0, 70, 70
2, 99932, Note_off_c, 0, 71, 100
2, 99936, Note_on_c, 0, 71, 70
2, 99980, Note_off_c, 0, 70, 100
2, 99984, Note_on_c, 0, 70, 70
2, 100028, Note_off_c, 0, 71, 100
2, 100032, Note_on_c, 0, 71, 70
2, 100076, Note_off_c, 0, 70, 100
2, 100080, Note_on_c, 0, 70, 70
2, 100124, Note_off_c, 0, 71, 100
2, 100128, Note_on_c, 0, 71, 70
2, 100172, Note_off_c, 0, 70, 100
2, 100176, Note_on_c, 0, 70, 70
2, 100220, Note_off_c, 0, 71, 100
2, 100224, Note_on_c, 0, 71, 70
2, 100268, Note_off_c, 0, 70, 100
2, 100272, Note_on_c, 0, 70, 70
2, 100316, Note_off_c, 0, 71, 100
2, 100320, Note_on_c, 0, 71, 70
2, 100364, Note_off_c, 0, 70, 100
2, 100368, Note_on_c, 0, 70, 70
2, 100412, Note_off_c, 0, 71, 100
2, 100416, Note_on_c, 0, 71, 70
2, 100460, Note_off_c, 0, 70, 100
2, 100464, Note_on_c, 0, 70, 70
2, 100508, Note_off_c, 0, 71, 100
2, 100512, Note_on_c, 0, 71, 70
2, 100556, Note_off_c, 0, 70, 100
2, 100560, Note_on_c, 0, 70, 70
2, 100604, Note_off_c, 0, 71, 100
2, 100608, Note_on_c, 0, 71, 70
2, 100652, Note_off_c, 0, 70, 100
2, 100656, Note_on_c, 0, 70, 70
2, 100700, Note_off_c, 0, 71, 100
2, 100704, Note_on_c, 0, 71, 70
2, 100748, Note_off_c, 0, 70, 100
2, 100752, Note_on_c, 0, 70, 70
2, 100796, Note_off_c, 0, 71, 100
2, 100800, Note_off_c, 0, 70, 100
2, 100800, Note_on_c, 0, 71, 70
2, 100848, Note_on_c, 0, 70, 70
2, 100892, Note_off_c, 0, 71, 100
2, 100896, Note_on_c, 0, 71, 70
2, 100940, Note_off_c, 0, 70, 100
2, 100944, Note_on_c, 0, 70, 70
2, 100988, Note_off_c, 0, 71, 100
2, 100992, Note_on_c, 0, 71, 70
2, 101036, Note_off_c, 0, 70, 100
2, 101040, Note_on_c, 0, 70, 70
2, 101084, Note_off_c, 0, 71, 100
2, 101088, Note_on_c, 0, 71, 70
2, 101132, Note_off_c, 0, 70, 100
2, 101136, Note_on_c, 0, 70, 70
2, 101180, Note_off_c, 0, 71, 100
2, 101184, Note_on_c, 0, 71, 70
2, 101228, Note_off_c, 0, 70, 100
2, 101232, Note_on_c, 0, 70, 70
2, 101276, Note_off_c, 0, 71, 100
2, 101280, Note_on_c, 0, 71, 70
2, 101324, Note_off_c, 0, 70, 100
2, 101328, Note_on_c, 0, 70, 70
2, 101372, Note_off_c, 0, 71, 100
2, 101376, Note_on_c, 0, 71, 70
2, 101420, Note_off_c, 0, 70, 100
2, 101424, Note_on_c, 0, 70, 70
2, 101468, Note_off_c, 0, 71, 100
2, 101472, Note_on_c, 0, 71, 70
2, 101516, Note_off_c, 0, 70, 100
2, 101520, Note_on_c, 0, 70, 70
2, 101564, Note_off_c, 0, 71, 100
2, 101568, Note_on_c, 0, 71, 70
2, 101612, Note_off_c, 0, 70, 100
2, 101616, Note_on_c, 0, 70, 70
2, 101660, Note_off_c, 0, 71, 100
2, 101664, Note_on_c, 0, 71, 70
2, 101708, Note_off_c, 0, 70, 100
2, 101712, Note_on_c, 0, 70, 70
2, 101756, Note_off_c, 0, 71, 100
2, 101760, Note_on_c, 0, 71, 70
2, 101804, Note_off_c, 0, 70, 100
2, 101808, Note_on_c, 0, 70, 70
2, 101852, Note_off_c, 0, 71, 100
2, 101856, Note_on_c, 0, 71, 70
2, 101900, Note_off_c, 0, 70, 100
2, 101904, Note_on_c, 0, 70, 70
2, 101948, Note_off_c, 0, 71, 100
2, 101952, Note_off_c, 0, 70, 100
2, 101952, Note_on_c, 0, 76, 70
2, 102000, Note_on_c, 0, 75, 70
2, 102044, Note_off_c, 0, 76, 100
2, 102048, Note_on_c, 0, 76, 70
2, 102092, Note_off_c, 0, 75, 100
2, 102096, Note_on_c, 0, 75, 70
2, 102140, Note_off_c, 0, 76, 100
2, 102144, Note_on_c, 0, 76, 71
2, 102188, Note_off_c, 0, 75, 100
2, 102192, Note_on_c, 0, 75, 71
2, 102236, Note_off_c, 0, 76, 100
2, 102240, Note_on_c, 0, 76, 71
2, 102284, Note_off_c, 0, 75, 100
2, 102288, Note_on_c, 0, 75, 72
2, 102332, Note_off_c, 0, 76, 100
2, 102336, Note_on_c, 0, 76, 72
2, 102380, Note_off_c, 0, 75, 100
2, 102384, Note_on_c, 0, 75, 72
2, 102428, Note_off_c, 0, 76, 100
2, 102432, Note_on_c, 0, 76, 73
2, 102476, Note_off_c, 0, 75, 100
2, 102480, Note_on_c, 0, 75, 73
2, 102524, Note_off_c, 0, 76, 100
2, 102528, Note_on_c, 0, 76, 73
2, 102572, Note_off_c, 0, 75, 100
2, 102576, Note_on_c, 0, 75, 74
2, 102620, Note_off_c, 0, 76, 100
2, 102624, Note_on_c, 0, 76, 74
2, 102668, Note_off_c, 0, 75, 100
2, 102672, Note_on_c, 0, 75, 74
2, 102716, Note_off_c, 0, 76, 100
2, 102720, Note_on_c, 0, 76, 75
2, 102764, Note_off_c, 0, 75, 100
2, 102768, Note_on_c, 0, 75, 75
2, 102812, Note_off_c, 0, 76, 100
2, 102816, Note_on_c, 0, 76, 75
2, 102860, Note_off_c, 0, 75, 100
2, 102864, Note_on_c, 0, 75, 76
2, 102908, Note_off_c, 0, 76, 100
2, 102912, Note_on_c, 0, 76, 76
2, 102956, Note_off_c, 0, 75, 100
2, 102960, Note_on_c, 0, 75, 76
2, 103004, Note_off_c, 0, 76, 100
2, 103008, Note_on_c, 0, 76, 77
2, 103052, Note_off_c, 0, 75, 100
2, 103056, Note_on_c, 0, 75, 77
2, 103100, Note_off_c, 0, 76, 100
2, 103104, Note_on_c, 0, 76, 77
2, 103148, Note_off_c, 0, 75, 100
2, 103152, Note_on_c, 0, 75, 77
2, 103196, Note_off_c, 0, 76, 100
2, 103200, Note_on_c, 0, 76, 78
2, 103244, Note_off_c, 0, 75, 100
2, 103248, Note_on_c, 0, 75, 78
2, 103292, Note_off_c, 0, 76, 100
2, 103296, Note_on_c, 0, 76, 78
2, 103340, Note_off_c, 0, 75, 100
2, 103344, Note_on_c, 0, 75, 79
2, 103388, Note_off_c, 0, 76, 100
2, 103392, Note_on_c, 0, 76, 79
2, 103436, Note_off_c, 0, 75, 100
2, 103440, Note_on_c, 0, 75, 79
2, 103484, Note_off_c, 0, 76, 100
2, 103488, Note_on_c, 0, 76, 80
2, 103532, Note_off_c, 0, 75, 100
2, 103536, Note_on_c, 0, 75, 80
2, 103580, Note_off_c, 0, 76, 100
2, 103584, Note_on_c, 0, 76, 80
2, 103628, Note_off_c, 0, 75, 100
2, 103632, Note_on_c, 0, 75, 81
2, 103676, Note_off_c, 0, 76, 100
2, 103680, Note_on_c, 0, 76, 81
2, 103724, Note_off_c, 0, 75, 100
2, 103728, Note_on_c, 0, 75, 81
2, 103772, Note_off_c, 0, 76, 100
2, 103776, Note_on_c, 0, 76, 82
2, 103820, Note_off_c, 0, 75, 100
2, 103824, Note_on_c, 0, 75, 82
2, 103868, Note_off_c, 0, 76, 100
2, 103872, Note_on_c, 0, 76, 82
2, 103916, Note_off_c, 0, 75, 100
2, 103920, Note_on_c, 0, 75, 83
2, 103964, Note_off_c, 0, 76, 100
2, 103968, Note_on_c, 0, 76, 83
2, 104012, Note_off_c, 0, 75, 100
2, 104016, Note_on_c, 0, 75, 83
2, 104060, Note_off_c, 0, 76, 100
2, 104064, Note_on_c, 0, 76, 84
2, 104108, Note_off_c, 0, 75, 100
2, 104112, Note_on_c, 0, 75, 84
2, 104156, Note_off_c, 0, 76, 100
2, 104160, Note_on_c, 0, 74, 84
2, 104204, Note_off_c, 0, 75, 100
2, 104208, Note_on_c, 0, 75, 84
2, 104252, Note_off_c, 0, 74, 100
2, 104252, Note_off_c, 0, 75, 100
2, 104256, Note_on_c, 0, 87, 85
2, 104256, Note_on_c, 0, 88, 85
2, 104300, Note_off_c, 0, 87, 100
2, 104304, Note_on_c, 0, 87, 85
2, 104348, Note_off_c, 0, 88, 100
2, 104352, Note_on_c, 0, 88, 85
2, 104396, Note_off_c, 0, 87, 100
2, 104400, Note_on_c, 0, 87, 85
2, 104444, Note_off_c, 0, 88, 100
2, 104448, Note_on_c, 0, 88, 84
2, 104492, Note_off_c, 0, 87, 100
2, 104496, Note_on_c, 0, 87, 84
2, 104540, Note_off_c, 0, 88, 100
2, 104544, Note_on_c, 0, 88, 84
2, 104588, Note_off_c, 0, 87, 100
2, 104592, Note_on_c, 0, 87, 83
2, 104636, Note_off_c, 0, 88, 100
2, 104640, Note_on_c, 0, 88, 83
2, 104684, Note_off_c, 0, 87, 100
2, 104688, Note_on_c, 0, 87, 83
2, 104732, Note_off_c, 0, 88, 100
2, 104736, Note_on_c, 0, 88, 82
2, 104780, Note_off_c, 0, 87, 100
2, 104784, Note_on_c, 0, 87, 82
2, 104828, Note_off_c, 0, 88, 100
2, 104832, Note_on_c, 0, 88, 82
2, 104876, Note_off_c, 0, 87, 100
2, 104880, Note_on_c, 0, 87, 81
2, 104924, Note_off_c, 0, 88, 100
2, 104928, Note_on_c, 0, 88, 81
2, 104972, Note_off_c, 0, 87, 100
2, 104976, Note_on_c, 0, 87, 81
2, 105020, Note_off_c, 0, 88, 100
2, 105024, Note_on_c, 0, 88, 80
2, 105068, Note_off_c, 0, 87, 100
2, 105072, Note_on_c, 0, 87, 80
2, 105116, Note_off_c, 0, 88, 100
2, 105120, Note_on_c, 0, 88, 80
2, 105164, Note_off_c, 0, 87, 100
2, 105168, Note_on_c, 0, 87, 79
2, 105212, Note_off_c, 0, 88, 100
2, 105216, Note_on_c, 0, 88, 79
2, 105260, Note_off_c, 0, 87, 100
2, 105264, Note_on_c, 0, 87, 79
2, 105308, Note_off_c, 0, 88, 100
2, 105312, Note_on_c, 0, 88, 78
2, 105356, Note_off_c, 0, 87, 100
2, 105360, Note_on_c, 0, 87, 78
2, 105404, Note_off_c, 0, 88, 100
2, 105408, Note_on_c, 0, 88, 78
2, 105452, Note_off_c, 0, 87, 100
2, 105456, Note_on_c, 0, 87, 78
2, 105500, Note_off_c, 0, 88, 100
2, 105504, Note_on_c, 0, 88, 77
2, 105548, Note_off_c, 0, 87, 100
2, 105552, Note_on_c, 0, 87, 77
2, 105596, Note_off_c, 0, 88, 100
2, 105600, Note_on_c, 0, 88, 77
2, 105644, Note_off_c, 0, 87, 100
2, 105648, Note_on_c, 0, 87, 76
2, 105692, Note_off_c, 0, 88, 100
2, 105696, Note_on_c, 0, 88, 76
2, 105740, Note_off_c, 0, 87, 100
2, 105744, Note_on_c, 0, 87, 76
2, 105788, Note_off_c, 0, 88, 100
2, 105792, Note_on_c, 0, 88, 75
2, 105836, Note_off_c, 0, 87, 100
2, 105840, Note_on_c, 0, 87, 75
2, 105884, Note_off_c, 0, 88, 100
2, 105888, Note_on_c, 0, 88, 75
2, 105932, Note_off_c, 0, 87, 100
2, 105936, Note_on_c, 0, 87, 74
2, 105980, Note_off_c, 0, 88, 100
2, 105984, Note_on_c, 0, 88, 74
2, 106028, Note_off_c, 0, 87, 100
2, 106032, Note_on_c, 0, 87, 74
2, 106076, Note_off_c, 0, 88, 100
2, 106080, Note_on_c, 0, 88, 73
2, 106124, Note_off_c, 0, 87, 100
2, 106128, Note_on_c, 0, 87, 73
2, 106172, Note_off_c, 0, 88, 100
2, 106176, Note_on_c, 0, 88, 73
2, 106220, Note_off_c, 0, 87, 100
2, 106224, Note_on_c, 0, 87, 72
2, 106268, Note_off_c, 0, 88, 100
2, 106272, Note_on_c, 0, 88, 72
2, 106316, Note_off_c, 0, 87, 100
2, 106320, Note_on_c, 0, 87, 72
2, 106364, Note_off_c, 0, 88, 100
2, 106368, Note_on_c, 0, 88, 71
2, 106412, Note_off_c, 0, 87, 100
2, 106416, Note_on_c, 0, 87, 71
2, 106460, Note_off_c, 0, 88, 100
2, 106464, Note_on_c, 0, 86, 71
2, 106508, Note_off_c, 0, 87, 100
2, 106512, Note_on_c, 0, 87, 71
2, 106556, Note_off_c, 0, 86, 100
2, 106556, Note_off_c, 0, 87, 100
2, 106560, Note_on_c, 0, 88, 70
2, 106752, Note_on_c, 0, 87, 70
2, 106944, Note_on_c, 0, 85, 70
2, 107132, Note_off_c, 0, 88, 100
2, 107136, Note_on_c, 0, 83, 70
2, 107324, Note_off_c, 0, 87, 100
2, 107328, Note_on_c, 0, 82, 70
2, 107516, Note_off_c, 0, 85, 100
2, 107520, Note_on_c, 0, 80, 70
2, 107708, Note_off_c, 0, 83, 100
2, 107712, Note_on_c, 0, 79, 70
2, 107900, Note_off_c, 0, 82, 100
2, 107904, Note_on_c, 0, 78, 70
2, 108092, Note_off_c, 0, 80, 100
2, 108096, Note_on_c, 0, 76, 70
2, 108284, Note_off_c, 0, 79, 100
2, 108288, Note_on_c, 0, 75, 70
2, 108476, Note_off_c, 0, 78, 100
2, 108480, Note_on_c, 0, 73, 70
2, 108668, Note_off_c, 0, 76, 100
2, 108672, Note_on_c, 0, 71, 70
2, 108860, Note_off_c, 0, 75, 100
2, 108864, Note_on_c, 0, 70, 70
2, 109052, Note_off_c, 0, 73, 100
2, 109056, Note_on_c, 0, 68, 70
2, 109244, Note_off_c, 0, 71, 100
2, 109248, Note_on_c, 0, 67, 70
2, 109436, Note_off_c, 0, 70, 100
2, 109440, Note_on_c, 0, 66, 70
2, 109628, Note_off_c, 0, 68, 100
2, 109632, Note_on_c, 0, 64, 70
2, 109820, Note_off_c, 0, 67, 100
2, 109824, Note_on_c, 0, 63, 70
2, 110012, Note_off_c, 0, 66, 100
2, 110016, Note_on_c, 0, 61, 70
2, 110204, Note_off_c, 0, 64, 100
2, 110208, Note_on_c, 0, 59, 70
2, 110396, Note_off_c, 0, 63, 100
2, 110400, Note_on_c, 0, 58, 70
2, 110588, Note_off_c, 0, 61, 100
2, 110592, Note_on_c, 0, 56, 70
2, 110780, Note_off_c, 0, 59, 100
2, 110784, Note_on_c, 0, 55, 70
2, 110972, Note_off_c, 0, 58, 100
2, 110976, Note_on_c, 0, 54, 70
2, 111164, Note_off_c, 0, 56, 100
2, 111168, Note_on_c, 0, 52, 70
2, 111356, Note_off_c, 0, 55, 100
2, 111360, Note_on_c, 0, 51, 70
2, 111548, Note_off_c, 0, 54, 100
2, 111552, Note_on_c, 0, 49, 70
2, 111740, Note_off_c, 0, 52, 100
2, 111744, Note_on_c, 0, 47, 70
2, 111932, Note_off_c, 0, 51, 100
2, 111936, Note_on_c, 0, 46, 70
2, 112124, Note_off_c, 0, 49, 100
2, 112128, Note_on_c, 0, 44, 70
2, 112316, Note_off_c, 0, 47, 100
2, 112320, Note_on_c, 0, 43, 70
2, 112508, Note_off_c, 0, 46, 100
2, 112512, Note_on_c, 0, 42, 70
2, 112700, Note_off_c, 0, 44, 100
2, 112704, Note_on_c, 0, 41, 70
2, 112892, Note_off_c, 0, 43, 100
2, 113084, Note_off_c, 0, 42, 100
2, 113276, Note_off_c, 0, 41, 100
2, 115776, Note_on_c, 0, 56, 110
2, 115872, Note_on_c, 0, 51, 110
2, 115964, Note_off_c, 0, 56, 100
2, 115968, Note_on_c, 0, 47, 110
2, 116060, Note_off_c, 0, 51, 100
2, 116064, Note_on_c, 0, 51, 110
2, 116156, Note_off_c, 0, 47, 100
2, 116160, Note_on_c, 0, 56, 110
2, 116252, Note_off_c, 0, 51, 100
2, 116256, Note_on_c, 0, 51, 110
2, 116348, Note_off_c, 0, 56, 100
2, 116352, Note_on_c, 0, 59, 110
2, 116444, Note_off_c, 0, 51, 100
2, 116448, Note_on_c, 0, 51, 110
2, 116540, Note_off_c, 0, 59, 100
2, 116544, Note_on_c, 0, 58, 110
2, 116548, Note_off_c, 0, 51, 64
2, 116640, Note_on_c, 0, 51, 110
2, 116732, Note_off_c, 0, 58, 64
2, 116736, Note_on_c, 0, 56, 110
2, 116744, Note_off_c, 0, 51, 64
2, 116832, Note_on_c, 0, 51, 110
2, 116924, Note_off_c, 0, 56, 64
2, 116928, Note_on_c, 0, 56, 110
2, 116944, Note_off_c, 0, 51, 64
2, 117024, Note_on_c, 0, 51, 110
2, 117116, Note_off_c, 0, 56, 100
2, 117120, Note_on_c, 0, 47, 110
2, 117212, Note_off_c, 0, 51, 100
2, 117216, Note_on_c, 0, 51, 110
2, 117308, Note_off_c, 0, 47, 100
2, 117312, Note_on_c, 0, 56, 110
2, 117404, Note_off_c, 0, 51, 100
2, 117408, Note_on_c, 0, 51, 110
2, 117500, Note_off_c, 0, 56, 100
2, 117504, Note_on_c, 0, 59, 110
2, 117596, Note_off_c, 0, 51, 100
2, 117600, Note_on_c, 0, 51, 110
2, 117692, Note_off_c, 0, 59, 100
2, 117696, Note_on_c, 0, 58, 110
2, 117788, Note_off_c, 0, 51, 100
2, 117792, Note_on_c, 0, 51, 110
2, 117884, Note_off_c, 0, 58, 100
2, 117888, Note_on_c, 0, 56, 110
2, 117980, Note_off_c, 0, 51, 100
2, 117984, Note_on_c, 0, 51, 110
2, 118076, Note_off_c, 0, 56, 100
2, 118080, Note_on_c, 0, 64, 110
2, 118172, Note_off_c, 0, 51, 100
2, 118176, Note_on_c, 0, 59, 110
2, 118268, Note_off_c, 0, 64, 100
2, 118272, Note_on_c, 0, 56, 110
2, 118364, Note_off_c, 0, 59, 100
2, 118368, Note_on_c, 0, 59, 110
2, 118460, Note_off_c, 0, 56, 100
2, 118464, Note_on_c, 0, 64, 110
2, 118556, Note_off_c, 0, 59, 100
2, 118560, Note_on_c, 0, 59, 110
2, 118652, Note_off_c, 0, 64, 100
2, 118656, Note_on_c, 0, 68, 110
2, 118748, Note_off_c, 0, 59, 100
2, 118752, Note_on_c, 0, 59, 110
2, 118844, Note_off_c, 0, 68, 100
2, 118848, Note_on_c, 0, 66, 110
2, 118940, Note_off_c, 0, 59, 100
2, 118944, Note_on_c, 0, 59, 110
2, 119036, Note_off_c, 0, 66, 100
2, 119040, Note_on_c, 0, 64, 110
2, 119132, Note_off_c, 0, 59, 100
2, 119136, Note_on_c, 0, 59, 110
2, 119228, Note_off_c, 0, 64, 100
2, 119228, Note_off_c, 0, 59, 100
2, 119232, Note_on_c, 0, 64, 110
2, 119328, Note_on_c, 0, 59, 110
2, 119420, Note_off_c, 0, 64, 100
2, 119424, Note_on_c, 0, 56, 110
2, 119516, Note_off_c, 0, 59, 100
2, 119520, Note_on_c, 0, 59, 110
2, 119612, Note_off_c, 0, 56, 100
2, 119616, Note_on_c, 0, 64, 110
2, 119708, Note_off_c, 0, 59, 100
2, 119712, Note_on_c, 0, 59, 110
2, 119804, Note_off_c, 0, 64, 100
2, 119808, Note_on_c, 0, 68, 110
2, 119900, Note_off_c, 0, 59, 100
2, 119904, Note_on_c, 0, 59, 110
2, 119996, Note_off_c, 0, 68, 100
2, 120000, Note_on_c, 0, 66, 110
2, 120092, Note_off_c, 0, 59, 100
2, 120096, Note_on_c, 0, 59, 110
2, 120188, Note_off_c, 0, 66, 100
2, 120192, Note_on_c, 0, 64, 110
2, 120284, Note_off_c, 0, 59, 100
2, 120288, Note_on_c, 0, 59, 110
2, 120380, Note_off_c, 0, 64, 100
2, 120380, Note_off_c, 0, 59, 100
2, 120384, Note_on_c, 0, 73, 110
2, 120480, Note_on_c, 0, 76, 110
2, 120572, Note_off_c, 0, 73, 100
2, 120576, Note_on_c, 0, 73, 110
2, 120668, Note_off_c, 0, 76, 100
2, 120672, Note_on_c, 0, 76, 110
2, 120764, Note_off_c, 0, 73, 100
2, 120768, Note_on_c, 0, 73, 110
2, 120860, Note_off_c, 0, 76, 100
2, 120864, Note_on_c, 0, 76, 110
2, 120956, Note_off_c, 0, 73, 100
2, 120960, Note_on_c, 0, 73, 110
2, 121052, Note_off_c, 0, 76, 100
2, 121056, Note_on_c, 0, 76, 110
2, 121148, Note_off_c, 0, 73, 100
2, 121152, Note_on_c, 0, 73, 110
2, 121244, Note_off_c, 0, 76, 100
2, 121248, Note_on_c, 0, 76, 110
2, 121340, Note_off_c, 0, 73, 100
2, 121344, Note_on_c, 0, 73, 110
2, 121436, Note_off_c, 0, 76, 100
2, 121440, Note_on_c, 0, 76, 110
2, 121532, Note_off_c, 0, 73, 100
2, 121536, Note_on_c, 0, 73, 110
2, 121628, Note_off_c, 0, 76, 100
2, 121632, Note_on_c, 0, 76, 110
2, 121724, Note_off_c, 0, 73, 100
2, 121728, Note_on_c, 0, 73, 110
2, 121820, Note_off_c, 0, 76, 100
2, 121824, Note_on_c, 0, 76, 110
2, 121916, Note_off_c, 0, 73, 100
2, 121920, Note_on_c, 0, 73, 110
2, 122012, Note_off_c, 0, 76, 100
2, 122016, Note_on_c, 0, 76, 110
2, 122108, Note_off_c, 0, 73, 100
2, 122112, Note_on_c, 0, 73, 110
2, 122204, Note_off_c, 0, 76, 100
2, 122208, Note_on_c, 0, 76, 110
2, 122300, Note_off_c, 0, 73, 100
2, 122304, Note_on_c, 0, 70, 110
2, 122396, Note_off_c, 0, 76, 100
2, 122400, Note_on_c, 0, 73, 110
2, 122492, Note_off_c, 0, 70, 100
2, 122496, Note_on_c, 0, 67, 110
2, 122588, Note_off_c, 0, 73, 100
2, 122592, Note_on_c, 0, 70, 110
2, 122684, Note_off_c, 0, 67, 100
2, 122688, Note_on_c, 0, 64, 110
2, 122780, Note_off_c, 0, 70, 100
2, 122784, Note_on_c, 0, 67, 110
2, 122876, Note_off_c, 0, 64, 100
2, 122880, Note_on_c, 0, 61, 110
2, 122972, Note_off_c, 0, 67, 100
2, 122976, Note_on_c, 0, 64, 110
2, 123068, Note_off_c, 0, 61, 100
2, 123072, Note_on_c, 0, 58, 110
2, 123164, Note_off_c, 0, 64, 100
2, 123168, Note_on_c, 0, 61, 110
2, 123260, Note_off_c, 0, 58, 100
2, 123264, Note_on_c, 0, 56, 110
2, 123356, Note_off_c, 0, 61, 100
2, 123360, Note_on_c, 0, 58, 110
2, 123452, Note_off_c, 0, 56, 100
2, 123456, Note_on_c, 0, 61, 110
2, 123548, Note_off_c, 0, 58, 100
2, 123552, Note_on_c, 0, 58, 110
2, 123644, Note_off_c, 0, 61, 100
2, 123648, Note_on_c, 0, 56, 110
2, 123740, Note_off_c, 0, 58, 100
2, 123744, Note_on_c, 0, 58, 110
2, 123836, Note_off_c, 0, 56, 100
2, 123932, Note_off_c, 0, 58, 100
2, 123936, Note_on_c, 0, 56, 110
2, 124032, Note_on_c, 0, 61, 110
2, 124124, Note_off_c, 0, 56, 100
2, 124128, Note_on_c, 0, 58, 110
2, 124220, Note_off_c, 0, 61, 100
2, 124224, Note_on_c, 0, 56, 110
2, 124316, Note_off_c, 0, 58, 100
2, 124320, Note_on_c, 0, 61, 110
2, 124412, Note_off_c, 0, 56, 100
2, 124508, Note_off_c, 0, 61, 100
2, 124512, Note_on_c, 0, 55, 110
2, 124608, Note_on_c, 0, 61, 110
2, 124700, Note_off_c, 0, 55, 100
2, 124704, Note_on_c, 0, 58, 110
2, 124796, Note_off_c, 0, 61, 100
2, 124800, Note_on_c, 0, 55, 110
2, 124892, Note_off_c, 0, 58, 100
2, 124896, Note_on_c, 0, 61, 110
2, 124988, Note_off_c, 0, 55, 100
2, 124988, Note_off_c, 0, 61, 100
2, 124992, Note_on_c, 0, 68, 110
2, 125088, Note_on_c, 0, 63, 110
2, 125180, Note_off_c, 0, 68, 100
2, 125184, Note_on_c, 0, 59, 110
2, 125276, Note_off_c, 0, 63, 100
2, 125280, Note_on_c, 0, 63, 110
2, 125372, Note_off_c, 0, 59, 100
2, 125376, Note_on_c, 0, 68, 110
2, 125468, Note_off_c, 0, 63, 100
2, 125472, Note_on_c, 0, 63, 110
2, 125564, Note_off_c, 0, 68, 100
2, 125568, Note_on_c, 0, 71, 110
2, 125660, Note_off_c, 0, 63, 100
2, 125664, Note_on_c, 0, 63, 110
2, 125756, Note_off_c, 0, 71, 100
2, 125760, Note_on_c, 0, 70, 110
2, 125852, Note_off_c, 0, 63, 100
2, 125856, Note_on_c, 0, 63, 110
2, 125948, Note_off_c, 0, 70, 100
2, 125952, Note_on_c, 0, 68, 110
2, 126044, Note_off_c, 0, 63, 100
2, 126048, Note_on_c, 0, 63, 110
2, 126140, Note_off_c, 0, 68, 100
2, 126144, Note_on_c, 0, 68, 110
2, 126236, Note_off_c, 0, 63, 100
2, 126240, Note_on_c, 0, 63, 110
2, 126332, Note_off_c, 0, 68, 100
2, 126336, Note_on_c, 0, 59, 110
2, 126428, Note_off_c, 0, 63, 100
2, 126432, Note_on_c, 0, 63, 110
2, 126524, Note_off_c, 0, 59, 100
2, 126528, Note_on_c, 0, 68, 110
2, 126620, Note_off_c, 0, 63, 100
2, 126624, Note_on_c, 0, 63, 110
2, 126716, Note_off_c, 0, 68, 100
2, 126720, Note_on_c, 0, 71, 110
2, 126812, Note_off_c, 0, 63, 100
2, 126816, Note_on_c, 0, 63, 110
2, 126908, Note_off_c, 0, 71, 100
2, 126912, Note_on_c, 0, 70, 110
2, 127004, Note_off_c, 0, 63, 100
2, 127008, Note_on_c, 0, 63, 110
2, 127100, Note_off_c, 0, 70, 100
2, 127104, Note_on_c, 0, 68, 110
2, 127196, Note_off_c, 0, 63, 100
2, 127200, Note_on_c, 0, 63, 110
2, 127292, Note_off_c, 0, 68, 100
2, 127292, Note_off_c, 0, 63, 100
2, 127296, Note_on_c, 0, 76, 110
2, 127392, Note_on_c, 0, 71, 110
2, 127484, Note_off_c, 0, 76, 100
2, 127488, Note_on_c, 0, 68, 110
2, 127580, Note_off_c, 0, 71, 100
2, 127584, Note_on_c, 0, 71, 110
2, 127676, Note_off_c, 0, 68, 100
2, 127680, Note_on_c, 0, 76, 110
2, 127772, Note_off_c, 0, 71, 100
2, 127776, Note_on_c, 0, 71, 110
2, 127868, Note_off_c, 0, 76, 100
2, 127872, Note_on_c, 0, 80, 110
2, 127964, Note_off_c, 0, 71, 100
2, 127968, Note_on_c, 0, 71, 110
2, 128060, Note_off_c, 0, 80, 100
2, 128064, Note_on_c, 0, 78, 110
2, 128156, Note_off_c, 0, 71, 100
2, 128160, Note_on_c, 0, 71, 110
2, 128252, Note_off_c, 0, 78, 100
2, 128256, Note_on_c, 0, 76, 110
2, 128348, Note_off_c, 0, 71, 100
2, 128352, Note_on_c, 0, 71, 110
2, 128444, Note_off_c, 0, 76, 100
2, 128444, Note_off_c, 0, 71, 100
2, 128448, Note_on_c, 0, 76, 110
2, 128544, Note_on_c, 0, 71, 110
2, 128636, Note_off_c, 0, 76, 100
2, 128640, Note_on_c, 0, 68, 110
2, 128732, Note_off_c, 0, 71, 100
2, 128736, Note_on_c, 0, 71, 110
2, 128828, Note_off_c, 0, 68, 100
2, 128832, Note_on_c, 0, 76, 110
2, 128924, Note_off_c, 0, 71, 100
2, 128928, Note_on_c, 0, 71, 110
2, 129020, Note_off_c, 0, 76, 100
2, 129024, Note_on_c, 0, 80, 110
2, 129116, Note_off_c, 0, 71, 100
2, 129120, Note_on_c, 0, 71, 110
2, 129212, Note_off_c, 0, 80, 100
2, 129216, Note_on_c, 0, 78, 110
2, 129308, Note_off_c, 0, 71, 100
2, 129312, Note_on_c, 0, 71, 110
2, 129404, Note_off_c, 0, 78, 100
2, 129408, Note_on_c, 0, 76, 110
2, 129500, Note_off_c, 0, 71, 100
2, 129504, Note_on_c, 0, 71, 110
2, 129596, Note_off_c, 0, 76, 100
2, 129596, Note_off_c, 0, 71, 100
2, 129600, Note_on_c, 0, 85, 110
2, 129696, Note_on_c, 0, 88, 110
2, 129788, Note_off_c, 0, 85, 100
2, 129792, Note_on_c, 0, 85, 110
2, 129884, Note_off_c, 0, 88, 100
2, 129888, Note_on_c, 0, 88, 110
2, 129980, Note_off_c, 0, 85, 100
2, 129984, Note_on_c, 0, 85, 110
2, 130076, Note_off_c, 0, 88, 100
2, 130080, Note_on_c, 0, 88, 110
2, 130172, Note_off_c, 0, 85, 100
2, 130176, Note_on_c, 0, 85, 110
2, 130268, Note_off_c, 0, 88, 100
2, 130272, Note_on_c, 0, 88, 110
2, 130364, Note_off_c, 0, 85, 100
2, 130368, Note_on_c, 0, 85, 110
2, 130460, Note_off_c, 0, 88, 100
2, 130464, Note_on_c, 0, 88, 110
2, 130556, Note_off_c, 0, 85, 100
2, 130560, Note_on_c, 0, 85, 110
2, 130652, Note_off_c, 0, 88, 100
2, 130656, Note_on_c, 0, 88, 110
2, 130748, Note_off_c, 0, 85, 100
2, 130752, Note_on_c, 0, 85, 110
2, 130844, Note_off_c, 0, 88, 100
2, 130848, Note_on_c, 0, 88, 110
2, 130940, Note_off_c, 0, 85, 100
2, 130944, Note_on_c, 0, 85, 110
2, 131036, Note_off_c, 0, 88, 100
2, 131040, Note_on_c, 0, 88, 110
2, 131132, Note_off_c, 0, 85, 100
2, 131136, Note_on_c, 0, 85, 110
2, 131228, Note_off_c, 0, 88, 100
2, 131232, Note_on_c, 0, 88, 110
2, 131324, Note_off_c, 0, 85, 100
2, 131328, Note_on_c, 0, 85, 110
2, 131420, Note_off_c, 0, 88, 100
2, 131424, Note_on_c, 0, 88, 110
2, 131516, Note_off_c, 0, 85, 100
2, 131520, Note_on_c, 0, 85, 110
2, 131612, Note_off_c, 0, 88, 100
2, 131616, Note_on_c, 0, 88, 110
2, 131708, Note_off_c, 0, 85, 100
2, 131712, Note_on_c, 0, 85, 110
2, 131804, Note_off_c, 0, 88, 100
2, 131808, Note_on_c, 0, 88, 110
2, 131900, Note_off_c, 0, 85, 100
2, 131904, Note_on_c, 0, 85, 110
2, 131996, Note_off_c, 0, 88, 100
2, 132000, Note_on_c, 0, 88, 110
2, 132092, Note_off_c, 0, 85, 100
2, 132096, Note_on_c, 0, 82, 110
2, 132188, Note_off_c, 0, 88, 100
2, 132192, Note_on_c, 0, 85, 110
2, 132284, Note_off_c, 0, 82, 100
2, 132288, Note_on_c, 0, 80, 110
2, 132380, Note_off_c, 0, 85, 100
2, 132384, Note_on_c, 0, 82, 110
2, 132476, Note_off_c, 0, 80, 100
2, 132480, Note_on_c, 0, 80, 110
2, 132572, Note_off_c, 0, 82, 100
2, 132576, Note_on_c, 0, 82, 110
2, 132668, Note_off_c, 0, 80, 100
2, 132672, Note_on_c, 0, 85, 110
2, 132764, Note_off_c, 0, 82, 100
2, 132768, Note_on_c, 0, 82, 110
2, 132860, Note_off_c, 0, 85, 100
2, 132864, Note_on_c, 0, 80, 110
2, 132956, Note_off_c, 0, 82, 100
2, 132960, Note_on_c, 0, 82, 110
2, 133052, Note_off_c, 0, 80, 100
2, 133148, Note_off_c, 0, 82, 100
2, 133152, Note_on_c, 0, 80, 110
2, 133248, Note_on_c, 0, 85, 110
2, 133340, Note_off_c, 0, 80, 100
2, 133344, Note_on_c, 0, 82, 110
2, 133436, Note_off_c, 0, 85, 100
2, 133440, Note_on_c, 0, 80, 110
2, 133532, Note_off_c, 0, 82, 100
2, 133536, Note_on_c, 0, 85, 110
2, 133628, Note_off_c, 0, 80, 100
2, 133724, Note_off_c, 0, 85, 100
2, 133728, Note_on_c, 0, 79, 110
2, 133824, Note_on_c, 0, 85, 110
2, 133916, Note_off_c, 0, 79, 100
2, 133920, Note_on_c, 0, 82, 110
2, 134012, Note_off_c, 0, 85, 100
2, 134016, Note_on_c, 0, 79, 110
2, 134108, Note_off_c, 0, 82, 100
2, 134112, Note_on_c, 0, 85, 110
2, 134204, Note_off_c, 0, 79, 100
2, 134300, Note_off_c, 0, 85, 100
2, 134304, Note_on_c, 0, 76, 110
2, 134400, Note_on_c, 0, 85, 110
2, 134492, Note_off_c, 0, 76, 100
2, 134496, Note_on_c, 0, 82, 110
2, 134588, Note_off_c, 0, 85, 100
2, 134592, Note_on_c, 0, 76, 110
2, 134684, Note_off_c, 0, 82, 100
2, 134688, Note_on_c, 0, 85, 110
2, 134780, Note_off_c, 0, 76, 100
2, 134876, Note_off_c, 0, 85, 100
2, 134880, Note_on_c, 0, 75, 110
2, 134976, Note_on_c, 0, 85, 110
2, 135068, Note_off_c, 0, 75, 100
2, 135072, Note_on_c, 0, 82, 110
2, 135164, Note_off_c, 0, 85, 100
2, 135168, Note_on_c, 0, 75, 110
2, 135260, Note_off_c, 0, 82, 100
2, 135264, Note_on_c, 0, 85, 110
2, 135356, Note_off_c, 0, 75, 100
2, 135452, Note_off_c, 0, 85, 100
2, 135456, Note_on_c, 0, 80, 110
2, 135552, Note_on_c, 0, 85, 110
2, 135644, Note_off_c, 0, 80, 100
2, 135648, Note_on_c, 0, 82, 110
2, 135740, Note_off_c, 0, 85, 100
2, 135744, Note_on_c, 0, 80, 110
2, 135836, Note_off_c, 0, 82, 100
2, 135840, Note_on_c, 0, 85, 110
2, 135932, Note_off_c, 0, 80, 100
2, 136028, Note_off_c, 0, 85, 100
2, 136032, Note_on_c, 0, 79, 110
2, 136128, Note_on_c, 0, 85, 110
2, 136220, Note_off_c, 0, 79, 100
2, 136224, Note_on_c, 0, 82, 110
2, 136316, Note_off_c, 0, 85, 100
2, 136320, Note_on_c, 0, 79, 110
2, 136412, Note_off_c, 0, 82, 100
2, 136416, Note_on_c, 0, 85, 110
2, 136508, Note_off_c, 0, 79, 100
2, 136508, Note_off_c, 0, 85, 100
2, 136800, Note_on_c, 0, 83, 120
2, 136896, Note_on_c, 0, 86, 120
2, 136988, Note_off_c, 0, 83, 100
2, 136992, Note_on_c, 0, 89, 120
2, 137084, Note_off_c, 0, 86, 100
2, 137088, Note_on_c, 0, 92, 120
2, 137180, Note_off_c, 0, 89, 100
2, 137184, Note_on_c, 0, 89, 120
2, 137276, Note_off_c, 0, 92, 100
2, 137280, Note_on_c, 0, 86, 120
2, 137372, Note_off_c, 0, 89, 100
2, 137376, Note_on_c, 0, 95, 120
2, 137468, Note_off_c, 0, 86, 100
2, 137472, Note_on_c, 0, 94, 120
2, 137564, Note_off_c, 0, 95, 100
2, 137568, Note_on_c, 0, 92, 120
2, 137660, Note_off_c, 0, 94, 100
2, 137664, Note_on_c, 0, 91, 120
2, 137756, Note_off_c, 0, 92, 100
2, 137760, Note_on_c, 0, 94, 120
2, 137852, Note_off_c, 0, 91, 100
2, 137856, Note_on_c, 0, 92, 120
2, 137948, Note_off_c, 0, 94, 100
2, 137952, Note_on_c, 0, 91, 120
2, 138044, Note_off_c, 0, 92, 100
2, 138048, Note_on_c, 0, 88, 120
2, 138140, Note_off_c, 0, 91, 100
2, 138144, Note_on_c, 0, 87, 120
2, 138236, Note_off_c, 0, 88, 100
2, 138240, Note_on_c, 0, 85, 120
2, 138332, Note_off_c, 0, 87, 100
2, 138336, Note_on_c, 0, 88, 120
2, 138428, Note_off_c, 0, 85, 100
2, 138432, Note_on_c, 0, 87, 120
2, 138524, Note_off_c, 0, 88, 100
2, 138528, Note_on_c, 0, 85, 120
2, 138620, Note_off_c, 0, 87, 100
2, 138624, Note_on_c, 0, 83, 120
2, 138716, Note_off_c, 0, 85, 100
2, 138720, Note_on_c, 0, 82, 120
2, 138812, Note_off_c, 0, 83, 100
2, 138908, Note_off_c, 0, 82, 100
2, 138912, Note_on_c, 0, 80, 80
2, 139008, Note_on_c, 0, 83, 80
2, 139100, Note_off_c, 0, 80, 100
2, 139104, Note_on_c, 0, 87, 80
2, 139196, Note_off_c, 0, 83, 100
2, 139200, Note_on_c, 0, 92, 80
2, 139292, Note_off_c, 0, 87, 100
2, 139296, Note_on_c, 0, 80, 80
2, 139388, Note_off_c, 0, 92, 100
2, 139484, Note_off_c, 0, 80, 100
2, 139680, Note_on_c, 0, 92, 80
2, 139776, Note_on_c, 0, 80, 80
2, 139868, Note_off_c, 0, 92, 100
2, 139872, Note_on_c, 0, 92, 80
2, 139964, Note_off_c, 0, 80, 100
2, 140060, Note_off_c, 0, 92, 100
2, 140256, Note_on_c, 0, 92, 80
2, 140352, Note_on_c, 0, 80, 80
2, 140444, Note_off_c, 0, 92, 100
2, 140448, Note_on_c, 0, 92, 80
2, 140540, Note_off_c, 0, 80, 100
2, 140636, Note_off_c, 0, 92, 100
2, 140832, Note_on_c, 0, 91, 100
2, 140928, Note_on_c, 0, 79, 100
2, 141020, Note_off_c, 0, 91, 100
2, 141024, Note_on_c, 0, 91, 100
2, 141116, Note_off_c, 0, 79, 100
2, 141212, Note_off_c, 0, 91, 100
2, 141216, Note_on_c, 0, 68, 80
2, 141312, Note_on_c, 0, 71, 80
2, 141404, Note_off_c, 0, 68, 100
2, 141408, Note_on_c, 0, 75, 80
2, 141500, Note_off_c, 0, 71, 100
2, 141504, Note_on_c, 0, 80, 80
2, 141596, Note_off_c, 0, 75, 100
2, 141600, Note_on_c, 0, 68, 80
2, 141692, Note_off_c, 0, 80, 100
2, 141788, Note_off_c, 0, 68, 100
2, 141984, Note_on_c, 0, 80, 80
2, 142080, Note_on_c, 0, 68, 80
2, 142172, Note_off_c, 0, 80, 100
2, 142176, Note_on_c, 0, 80, 80
2, 142268, Note_off_c, 0, 68, 100
2, 142364, Note_off_c, 0, 80, 100
2, 142560, Note_on_c, 0, 80, 80
2, 142656, Note_on_c, 0, 68, 80
2, 142748, Note_off_c, 0, 80, 100
2, 142752, Note_on_c, 0, 80, 80
2, 142844, Note_off_c, 0, 68, 100
2, 142940, Note_off_c, 0, 80, 100
2, 143136, Note_on_c, 0, 79, 100
2, 143232, Note_on_c, 0, 67, 100
2, 143324, Note_off_c, 0, 79, 100
2, 143328, Note_on_c, 0, 79, 100
2, 143420, Note_off_c, 0, 67, 100
2, 143516, Note_off_c, 0, 79, 100
2, 143520, Note_on_c, 0, 80, 80
2, 143616, Note_on_c, 0, 83, 80
2, 143708, Note_off_c, 0, 80, 100
2, 143712, Note_on_c, 0, 87, 80
2, 143804, Note_off_c, 0, 83, 100
2, 143808, Note_on_c, 0, 92, 80
2, 143900, Note_off_c, 0, 87, 100
2, 143904, Note_on_c, 0, 80, 80
2, 143996, Note_off_c, 0, 92, 100
2, 144092, Note_off_c, 0, 80, 100
2, 144288, Note_on_c, 0, 92, 80
2, 144384, Note_on_c, 0, 80, 80
2, 144476, Note_off_c, 0, 92, 100
2, 144480, Note_on_c, 0, 92, 80
2, 144572, Note_off_c, 0, 80, 100
2, 144668, Note_off_c, 0, 92, 100
2, 144864, Note_on_c, 0, 92, 80
2, 144960, Note_on_c, 0, 80, 80
2, 145052, Note_off_c, 0, 92, 100
2, 145056, Note_on_c, 0, 92, 80
2, 145148, Note_off_c, 0, 80, 100
2, 145244, Note_off_c, 0, 92, 100
2, 145440, Note_on_c, 0, 91, 100
2, 145536, Note_on_c, 0, 79, 100
2, 145628, Note_off_c, 0, 91, 100
2, 145632, Note_on_c, 0, 91, 100
2, 145724, Note_off_c, 0, 79, 100
2, 145728, Note_on_c, 0, 92, 80
2, 145820, Note_off_c, 0, 91, 100
2, 145824, Note_on_c, 0, 87, 80
2, 145916, Note_off_c, 0, 92, 100
2, 145920, Note_on_c, 0, 83, 80
2, 146012, Note_off_c, 0, 87, 100
2, 146016, Note_on_c, 0, 87, 79
2, 146108, Note_off_c, 0, 83, 100
2, 146112, Note_on_c, 0, 92, 79
2, 146204, Note_off_c, 0, 87, 100
2, 146208, Note_on_c, 0, 87, 78
2, 146300, Note_off_c, 0, 92, 100
2, 146304, Note_on_c, 0, 83, 78
2, 146396, Note_off_c, 0, 87, 100
2, 146400, Note_on_c, 0, 87, 78
2, 146492, Note_off_c, 0, 83, 100
2, 146496, Note_on_c, 0, 92, 77
2, 146588, Note_off_c, 0, 87, 100
2, 146592, Note_on_c, 0, 87, 77
2, 146684, Note_off_c, 0, 92, 100
2, 146688, Note_on_c, 0, 83, 76
2, 146780, Note_off_c, 0, 87, 100
2, 146784, Note_on_c, 0, 87, 76
2, 146876, Note_off_c, 0, 83, 100
2, 146880, Note_on_c, 0, 92, 76
2, 146972, Note_off_c, 0, 87, 100
2, 146976, Note_on_c, 0, 87, 75
2, 147068, Note_off_c, 0, 92, 100
2, 147072, Note_on_c, 0, 83, 75
2, 147164, Note_off_c, 0, 87, 100
2, 147168, Note_on_c, 0, 87, 74
2, 147260, Note_off_c, 0, 83, 100
2, 147264, Note_on_c, 0, 92, 74
2, 147356, Note_off_c, 0, 87, 100
2, 147360, Note_on_c, 0, 87, 73
2, 147452, Note_off_c, 0, 92, 100
2, 147456, Note_on_c, 0, 92, 73
2, 147548, Note_off_c, 0, 87, 100
2, 147552, Note_on_c, 0, 87, 73
2, 147644, Note_off_c, 0, 92, 100
2, 147648, Note_on_c, 0, 92, 72
2, 147740, Note_off_c, 0, 87, 100
2, 147744, Note_on_c, 0, 87, 72
2, 147836, Note_off_c, 0, 92, 100
2, 147840, Note_on_c, 0, 92, 71
2, 147932, Note_off_c, 0, 87, 100
2, 147936, Note_on_c, 0, 87, 71
2, 148028, Note_off_c, 0, 92, 100
2, 148032, Note_on_c, 0, 92, 71
2, 148124, Note_off_c, 0, 87, 100
2, 149756, Note_off_c, 0, 92, 100
2, 149760, Note_on_c, 0, 59, 80
2, 150236, Note_off_c, 0, 59, 100
2, 150240, Note_on_c, 0, 56, 80
2, 150332, Note_off_c, 0, 56, 100
2, 150336, Note_on_c, 0, 51, 80
2, 152060, Note_off_c, 0, 51, 100
2, 152064, Note_on_c, 0, 59, 80
2, 152540, Note_off_c, 0, 59, 100
2, 152544, Note_on_c, 0, 56, 80
2, 152636, Note_off_c, 0, 56, 100
2, 152640, Note_on_c, 0, 52, 80
2, 154364, Note_off_c, 0, 52, 100
2, 154368, Note_on_c, 0, 56, 80
2, 154844, Note_off_c, 0, 56, 100
2, 154848, Note_on_c, 0, 59, 80
2, 154940, Note_off_c, 0, 59, 100
2, 154944, Note_on_c, 0, 64, 80
2, 155516, Note_off_c, 0, 64, 100
2, 155520, Note_on_c, 0, 68, 80
2, 155996, Note_off_c, 0, 68, 100
2, 156000, Note_on_c, 0, 71, 80
2, 156092, Note_off_c, 0, 71, 100
2, 156096, Note_on_c, 0, 76, 80
2, 156668, Note_off_c, 0, 76, 100
2, 156672, Note_on_c, 0, 64, 80
2, 157244, Note_off_c, 0, 64, 100
2, 157248, Note_on_c, 0, 71, 80
2, 158204, Note_off_c, 0, 71, 100
2, 158208, Note_on_c, 0, 73, 80
2, 158396, Note_off_c, 0, 73, 100
2, 158400, Note_on_c, 0, 71, 80
2, 158448, Note_on_c, 0, 73, 80
2, 158492, Note_off_c, 0, 71, 100
2, 158496, Note_on_c, 0, 75, 80
2, 158540, Note_off_c, 0, 73, 100
2, 158544, Note_on_c, 0, 73, 80
2, 158588, Note_off_c, 0, 75, 100
2, 158592, Note_on_c, 0, 75, 80
2, 158636, Note_off_c, 0, 73, 100
2, 158640, Note_on_c, 0, 73, 80
2, 158684, Note_off_c, 0, 75, 100
2, 158688, Note_on_c, 0, 75, 80
2, 158732, Note_off_c, 0, 73, 100
2, 158736, Note_on_c, 0, 73, 80
2, 158780, Note_off_c, 0, 75, 100
2, 158784, Note_on_c, 0, 75, 80
2, 158828, Note_off_c, 0, 73, 100
2, 158832, Note_on_c, 0, 73, 80
2, 158876, Note_off_c, 0, 75, 100
2, 158880, Note_on_c, 0, 75, 80
2, 158924, Note_off_c, 0, 73, 100
2, 158928, Note_on_c, 0, 73, 80
2, 158972, Note_off_c, 0, 75, 100
2, 158976, Note_on_c, 0, 75, 80
2, 159020, Note_off_c, 0, 73, 100
2, 159024, Note_on_c, 0, 73, 80
2, 159068, Note_off_c, 0, 75, 100
2, 159072, Note_on_c, 0, 75, 80
2, 159116, Note_off_c, 0, 73, 100
2, 159120, Note_on_c, 0, 73, 80
2, 159164, Note_off_c, 0, 75, 100
2, 159168, Note_on_c, 0, 75, 80
2, 159212, Note_off_c, 0, 73, 100
2, 159216, Note_on_c, 0, 73, 80
2, 159260, Note_off_c, 0, 75, 100
2, 159264, Note_on_c, 0, 71, 80
2, 159308, Note_off_c, 0, 73, 100
2, 159356, Note_off_c, 0, 71, 100
2, 159360, Note_on_c, 0, 75, 80
2, 159452, Note_off_c, 0, 75, 100
2, 159456, Note_on_c, 0, 73, 80
2, 159548, Note_off_c, 0, 73, 100
2, 159552, Note_on_c, 0, 71, 80
2, 159932, Note_off_c, 0, 71, 100
2, 161856, Key_signature, 0, "major"
2, 161856, Note_on_c, 0, 78, 80
2, 162812, Note_off_c, 0, 78, 100
2, 162816, Note_on_c, 0, 80, 80
2, 163004, Note_off_c, 0, 80, 100
2, 163008, Note_on_c, 0, 81, 80
2, 163056, Note_on_c, 0, 80, 80
2, 163100, Note_off_c, 0, 81, 100
2, 163104, Note_on_c, 0, 81, 80
2, 163148, Note_off_c, 0, 80, 100
2, 163152, Note_on_c, 0, 80, 80
2, 163196, Note_off_c, 0, 81, 100
2, 163200, Note_on_c, 0, 81, 80
2, 163244, Note_off_c, 0, 80, 100
2, 163248, Note_on_c, 0, 80, 80
2, 163292, Note_off_c, 0, 81, 100
2, 163296, Note_on_c, 0, 81, 80
2, 163340, Note_off_c, 0, 80, 100
2, 163344, Note_on_c, 0, 80, 80
2, 163388, Note_off_c, 0, 81, 100
2, 163392, Note_on_c, 0, 81, 80
2, 163436, Note_off_c, 0, 80, 100
2, 163440, Note_on_c, 0, 80, 80
2, 163484, Note_off_c, 0, 81, 100
2, 163488, Note_on_c, 0, 81, 80
2, 163532, Note_off_c, 0, 80, 100
2, 163536, Note_on_c, 0, 80, 80
2, 163580, Note_off_c, 0, 81, 100
2, 163584, Note_on_c, 0, 81, 80
2, 163628, Note_off_c, 0, 80, 100
2, 163632, Note_on_c, 0, 80, 80
2, 163676, Note_off_c, 0, 81, 100
2, 163680, Note_on_c, 0, 81, 80
2, 163724, Note_off_c, 0, 80, 100
2, 163728, Note_on_c, 0, 80, 80
2, 163772, Note_off_c, 0, 81, 100
2, 163776, Note_on_c, 0, 81, 80
2, 163820, Note_off_c, 0, 80, 100
2, 163824, Note_on_c, 0, 80, 80
2, 163868, Note_off_c, 0, 81, 100
2, 163872, Note_on_c, 0, 78, 80
2, 163916, Note_off_c, 0, 80, 100
2, 163964, Note_off_c, 0, 78, 100
2, 163968, Note_on_c, 0, 81, 80
2, 164060, Note_off_c, 0, 81, 100
2, 164064, Note_on_c, 0, 80, 80
2, 164156, Note_off_c, 0, 80, 100
2, 164160, Note_on_c, 0, 78, 80
2, 164540, Note_off_c, 0, 78, 100
2, 166464, Note_on_c, 0, 64, 80
2, 167420, Note_off_c, 0, 64, 100
2, 167424, Note_on_c, 0, 66, 80
2, 167612, Note_off_c, 0, 66, 100
2, 167616, Note_on_c, 0, 68, 80
2, 167664, Note_on_c, 0, 66, 80
2, 167708, Note_off_c, 0, 68, 100
2, 167712, Note_on_c, 0, 68, 80
2, 167756, Note_off_c, 0, 66, 100
2, 167760, Note_on_c, 0, 66, 80
2, 167804, Note_off_c, 0, 68, 100
2, 167808, Note_on_c, 0, 68, 80
2, 167852, Note_off_c, 0, 66, 100
2, 167856, Note_on_c, 0, 66, 80
2, 167900, Note_off_c, 0, 68, 100
2, 167904, Note_on_c, 0, 68, 80
2, 167948, Note_off_c, 0, 66, 100
2, 167952, Note_on_c, 0, 66, 80
2, 167996, Note_off_c, 0, 68, 100
2, 168000, Note_on_c, 0, 68, 80
2, 168044, Note_off_c, 0, 66, 100
2, 168048, Note_on_c, 0, 66, 80
2, 168092, Note_off_c, 0, 68, 100
2, 168096, Note_on_c, 0, 68, 80
2, 168140, Note_off_c, 0, 66, 100
2, 168144, Note_on_c, 0, 66, 80
2, 168188, Note_off_c, 0, 68, 100
2, 168192, Note_on_c, 0, 68, 80
2, 168236, Note_off_c, 0, 66, 100
2, 168240, Note_on_c, 0, 66, 80
2, 168284, Note_off_c, 0, 68, 100
2, 168288, Note_on_c, 0, 68, 80
2, 168332, Note_off_c, 0, 66, 100
2, 168336, Note_on_c, 0, 66, 80
2, 168380, Note_off_c, 0, 68, 100
2, 168384, Note_on_c, 0, 68, 80
2, 168428, Note_off_c, 0, 66, 100
2, 168432, Note_on_c, 0, 66, 80
2, 168476, Note_off_c, 0, 68, 100
2, 168480, Note_on_c, 0, 64, 80
2, 168524, Note_off_c, 0, 66, 100
2, 168572, Note_off_c, 0, 64, 100
2, 168576, Note_on_c, 0, 68, 80
2, 168668, Note_off_c, 0, 68, 100
2, 168672, Note_on_c, 0, 66, 80
2, 168764, Note_off_c, 0, 66, 100
2, 168768, Note_on_c, 0, 64, 80
2, 169340, Note_off_c, 0, 64, 100
2, 169344, Note_on_c, 0, 69, 100
2, 169344, Note_on_c, 0, 61, 100
2, 169344, Note_on_c, 0, 57, 100
2, 170492, Note_off_c, 0, 57, 100
2, 170492, Note_off_c, 0, 61, 100
2, 170492, Note_off_c, 0, 69, 100
2, 170496, Note_on_c, 0, 61, 79
2, 170496, Note_on_c, 0, 57, 79
2, 170496, Note_on_c, 0, 66, 79
2, 170972, Note_off_c, 0, 66, 100
2, 170976, Note_on_c, 0, 68, 71
2, 171068, Note_off_c, 0, 61, 100
2, 171068, Note_off_c, 0, 57, 100
2, 171068, Note_off_c, 0, 68, 100
2, 171072, Note_on_c, 0, 64, 70
2, 171072, Note_on_c, 0, 59, 70
2, 171072, Note_on_c, 0, 56, 70
2, 172220, Note_off_c, 0, 64, 100
2, 172220, Note_off_c, 0, 59, 100
2, 172220, Note_off_c, 0, 56, 100
2, 172224, Note_on_c, 0, 63, 70
2, 172224, Note_on_c, 0, 57, 70
2, 172224, Note_on_c, 0, 54, 70
2, 173372, Note_off_c, 0, 63, 100
2, 173372, Note_off_c, 0, 57, 100
2, 173372, Note_off_c, 0, 54, 100
2, 173376, Note_on_c, 0, 76, 80
2, 174332, Note_off_c, 0, 76, 100
2, 174336, Note_on_c, 0, 78, 80
2, 174524, Note_off_c, 0, 78, 100
2, 174528, Note_on_c, 0, 80, 80
2, 174576, Note_on_c, 0, 78, 80
2, 174620, Note_off_c, 0, 80, 100
2, 174624, Note_on_c, 0, 80, 80
2, 174668, Note_off_c, 0, 78, 100
2, 174672, Note_on_c, 0, 78, 80
2, 174716, Note_off_c, 0, 80, 100
2, 174720, Note_on_c, 0, 80, 80
2, 174764, Note_off_c, 0, 78, 100
2, 174768, Note_on_c, 0, 78, 80
2, 174812, Note_off_c, 0, 80, 100
2, 174816, Note_on_c, 0, 80, 80
2, 174860, Note_off_c, 0, 78, 100
2, 174864, Note_on_c, 0, 78, 80
2, 174908, Note_off_c, 0, 80, 100
2, 174912, Note_on_c, 0, 80, 80
2, 174956, Note_off_c, 0, 78, 100
2, 174960, Note_on_c, 0, 78, 80
2, 175004, Note_off_c, 0, 80, 100
2, 175008, Note_on_c, 0, 80, 80
2, 175052, Note_off_c, 0, 78, 100
2, 175056, Note_on_c, 0, 78, 80
2, 175100, Note_off_c, 0, 80, 100
2, 175104, Note_on_c, 0, 80, 80
2, 175148, Note_off_c, 0, 78, 100
2, 175152, Note_on_c, 0, 78, 80
2, 175196, Note_off_c, 0, 80, 100
2, 175200, Note_on_c, 0, 80, 80
2, 175244, Note_off_c, 0, 78, 100
2, 175248, Note_on_c, 0, 78, 80
2, 175292, Note_off_c, 0, 80, 100
2, 175296, Note_on_c, 0, 80, 80
2, 175340, Note_off_c, 0, 78, 100
2, 175344, Note_on_c, 0, 78, 80
2, 175388, Note_off_c, 0, 80, 100
2, 175392, Note_on_c, 0, 76, 80
2, 175436, Note_off_c, 0, 78, 100
2, 175484, Note_off_c, 0, 76, 100
2, 175488, Note_on_c, 0, 80, 80
2, 175580, Note_off_c, 0, 80, 100
2, 175584, Note_on_c, 0, 78, 80
2, 175676, Note_off_c, 0, 78, 100
2, 175680, Note_on_c, 0, 76, 80
2, 176252, Note_off_c, 0, 76, 100
2, 176256, Note_on_c, 0, 81, 100
2, 176256, Note_on_c, 0, 73, 100
2, 176256, Note_on_c, 0, 69, 100
2, 177404, Note_off_c, 0, 69, 100
2, 177404, Note_off_c, 0, 73, 100
2, 177404, Note_off_c, 0, 81, 100
2, 177408, Note_on_c, 0, 73, 79
2, 177408, Note_on_c, 0, 69, 79
2, 177408, Note_on_c, 0, 78, 79
2, 177884, Note_off_c, 0, 78, 100
2, 177888, Note_on_c, 0, 80, 71
2, 177980, Note_off_c, 0, 73, 100
2, 177980, Note_off_c, 0, 69, 100
2, 177980, Note_off_c, 0, 80, 100
2, 177984, Note_on_c, 0, 76, 70
2, 177984, Note_on_c, 0, 71, 70
2, 177984, Note_on_c, 0, 68, 70
2, 179132, Note_off_c, 0, 76, 100
2, 179132, Note_off_c, 0, 71, 100
2, 179132, Note_off_c, 0, 68, 100
2, 179136, Note_on_c, 0, 75, 70
2, 179136, Note_on_c, 0, 69, 70
2, 179136, Note_on_c, 0, 66, 70
2, 179516, Note_off_c, 0, 75, 100
2, 179516, Note_off_c, 0, 69, 100
2, 179516, Note_off_c, 0, 66, 100
2, 180288, Note_on_c, 0, 71, 110
2, 180384, Note_on_c, 0, 67, 110
2, 180476, Note_off_c, 0, 71, 100
2, 180480, Note_on_c, 0, 71, 110
2, 180572, Note_off_c, 0, 67, 100
2, 180576, Note_on_c, 0, 67, 110
2, 180668, Note_off_c, 0, 71, 100
2, 180672, Note_on_c, 0, 71, 110
2, 180764, Note_off_c, 0, 67, 100
2, 180768, Note_on_c, 0, 67, 110
2, 180860, Note_off_c, 0, 71, 100
2, 180864, Note_on_c, 0, 71, 110
2, 180956, Note_off_c, 0, 67, 100
2, 180960, Note_on_c, 0, 67, 110
2, 181052, Note_off_c, 0, 71, 100
2, 181056, Note_on_c, 0, 71, 110
2, 181148, Note_off_c, 0, 67, 100
2, 181152, Note_on_c, 0, 67, 110
2, 181244, Note_off_c, 0, 71, 100
2, 181248, Note_on_c, 0, 71, 110
2, 181340, Note_off_c, 0, 67, 100
2, 181344, Note_on_c, 0, 67, 110
2, 181436, Note_off_c, 0, 71, 100
2, 181440, Note_on_c, 0, 71, 110
2, 181532, Note_off_c, 0, 67, 100
2, 181536, Note_on_c, 0, 67, 110
2, 181628, Note_off_c, 0, 71, 100
2, 181632, Note_on_c, 0, 71, 110
2, 181724, Note_off_c, 0, 67, 100
2, 181728, Note_on_c, 0, 67, 110
2, 181820, Note_off_c, 0, 71, 100
2, 181824, Note_on_c, 0, 71, 110
2, 181916, Note_off_c, 0, 67, 100
2, 181920, Note_on_c, 0, 67, 110
2, 182012, Note_off_c, 0, 71, 100
2, 182016, Note_on_c, 0, 71, 110
2, 182108, Note_off_c, 0, 67, 100
2, 182112, Note_on_c, 0, 67, 110
2, 182204, Note_off_c, 0, 71, 100
2, 182208, Note_on_c, 0, 71, 110
2, 182300, Note_off_c, 0, 67, 100
2, 182304, Note_on_c, 0, 67, 110
2, 182396, Note_off_c, 0, 71, 100
2, 182400, Note_on_c, 0, 71, 110
2, 182492, Note_off_c, 0, 67, 100
2, 182496, Note_on_c, 0, 67, 110
2, 182588, Note_off_c, 0, 71, 100
2, 182592, Note_on_c, 0, 71, 110
2, 182684, Note_off_c, 0, 67, 100
2, 182688, Note_on_c, 0, 67, 110
2, 182780, Note_off_c, 0, 71, 100
2, 182784, Note_on_c, 0, 71, 110
2, 182876, Note_off_c, 0, 67, 100
2, 182880, Note_on_c, 0, 67, 110
2, 182972, Note_off_c, 0, 71, 100
2, 182976, Note_on_c, 0, 71, 110
2, 183068, Note_off_c, 0, 67, 100
2, 183072, Note_on_c, 0, 67, 110
2, 183164, Note_off_c, 0, 71, 100
2, 183168, Note_on_c, 0, 71, 110
2, 183260, Note_off_c, 0, 67, 100
2, 183264, Note_on_c, 0, 67, 110
2, 183356, Note_off_c, 0, 71, 100
2, 183360, Note_on_c, 0, 71, 110
2, 183452, Note_off_c, 0, 67, 100
2, 183456, Note_on_c, 0, 67, 110
2, 183548, Note_off_c, 0, 71, 100
2, 183552, Note_on_c, 0, 71, 110
2, 183644, Note_off_c, 0, 67, 100
2, 183648, Note_on_c, 0, 67, 110
2, 183740, Note_off_c, 0, 71, 100
2, 183744, Note_on_c, 0, 71, 110
2, 183836, Note_off_c, 0, 67, 100
2, 183840, Note_on_c, 0, 67, 110
2, 183932, Note_off_c, 0, 71, 100
2, 183936, Note_on_c, 0, 71, 110
2, 184028, Note_off_c, 0, 67, 100
2, 184032, Note_on_c, 0, 67, 110
2, 184124, Note_off_c, 0, 71, 100
2, 184128, Note_on_c, 0, 71, 110
2, 184220, Note_off_c, 0, 67, 100
2, 184224, Note_on_c, 0, 67, 110
2, 184316, Note_off_c, 0, 71, 100
2, 184320, Note_on_c, 0, 71, 110
2, 184412, Note_off_c, 0, 67, 100
2, 184416, Note_on_c, 0, 67, 110
2, 184508, Note_off_c, 0, 71, 100
2, 184512, Note_on_c, 0, 71, 110
2, 184604, Note_off_c, 0, 67, 100
2, 184608, Note_on_c, 0, 67, 110
2, 184700, Note_off_c, 0, 71, 100
2, 184704, Note_on_c, 0, 71, 110
2, 184796, Note_off_c, 0, 67, 100
2, 184800, Note_on_c, 0, 67, 110
2, 184892, Note_off_c, 0, 71, 100
2, 184892, Note_off_c, 0, 67, 100
2, 186624, Note_on_c, 0, 71, 110
2, 187100, Note_off_c, 0, 71, 100
2, 187104, Note_on_c, 0, 74, 110
2, 187196, Note_off_c, 0, 74, 100
2, 187200, Note_on_c, 0, 79, 110
2, 187772, Note_off_c, 0, 79, 100
2, 187776, Note_on_c, 0, 83, 110
2, 188252, Note_off_c, 0, 83, 100
2, 188256, Note_on_c, 0, 86, 110
2, 188348, Note_off_c, 0, 86, 100
2, 188352, Note_on_c, 0, 91, 110
2, 188352, Note_on_c, 0, 79, 110
2, 188924, Note_off_c, 0, 91, 100
2, 188924, Note_off_c, 0, 79, 100
2, 188928, Note_on_c, 0, 91, 110
2, 188928, Note_on_c, 0, 79, 110
2, 189500, Note_off_c, 0, 91, 100
2, 189500, Note_off_c, 0, 79, 100
2, 189504, Note_on_c, 0, 79, 110
2, 189504, Note_on_c, 0, 91, 110
2, 189616, Note_on_c, 0, 87, 110
2, 189724, Note_off_c, 0, 79, 100
2, 189724, Note_off_c, 0, 91, 100
2, 189732, Note_on_c, 0, 91, 110
2, 189836, Note_off_c, 0, 87, 100
2, 189848, Note_on_c, 0, 87, 110
2, 189952, Note_off_c, 0, 91, 100
2, 189964, Note_on_c, 0, 84, 110
2, 190068, Note_off_c, 0, 87, 100
2, 190080, Note_on_c, 0, 79, 110
2, 190184, Note_off_c, 0, 84, 100
2, 190192, Note_on_c, 0, 84, 110
2, 190300, Note_off_c, 0, 79, 100
2, 190308, Note_on_c, 0, 87, 110
2, 190412, Note_off_c, 0, 84, 100
2, 190424, Note_on_c, 0, 84, 110
2, 190528, Note_off_c, 0, 87, 100
2, 190536, Note_on_c, 0, 79, 110
2, 190644, Note_off_c, 0, 84, 100
2, 190656, Note_on_c, 0, 75, 110
2, 190756, Note_off_c, 0, 79, 100
2, 190768, Note_on_c, 0, 79, 110
2, 190876, Note_off_c, 0, 75, 100
2, 190884, Note_on_c, 0, 84, 110
2, 190988, Note_off_c, 0, 79, 100
2, 191000, Note_on_c, 0, 79, 110
2, 191104, Note_off_c, 0, 84, 100
2, 191116, Note_on_c, 0, 75, 110
2, 191220, Note_off_c, 0, 79, 100
2, 191232, Note_on_c, 0, 72, 110
2, 191336, Note_off_c, 0, 75, 100
2, 191344, Note_on_c, 0, 75, 110
2, 191452, Note_off_c, 0, 72, 100
2, 191460, Note_on_c, 0, 79, 110
2, 191564, Note_off_c, 0, 75, 100
2, 191576, Note_on_c, 0, 75, 110
2, 191680, Note_off_c, 0, 79, 100
2, 191688, Note_on_c, 0, 72, 110
2, 191796, Note_off_c, 0, 75, 100
2, 191808, Note_on_c, 0, 67, 110
2, 191832, Note_off_c, 0, 72, 100
2, 191920, Note_on_c, 0, 72, 110
2, 192028, Note_off_c, 0, 67, 100
2, 192036, Note_on_c, 0, 75, 110
2, 192140, Note_off_c, 0, 72, 100
2, 192152, Note_on_c, 0, 72, 110
2, 192256, Note_off_c, 0, 75, 100
2, 192268, Note_on_c, 0, 67, 110
2, 192372, Note_off_c, 0, 72, 100
2, 192384, Note_on_c, 0, 63, 110
2, 192488, Note_off_c, 0, 67, 100
2, 192496, Note_on_c, 0, 67, 110
2, 192604, Note_off_c, 0, 63, 100
2, 192612, Note_on_c, 0, 72, 110
2, 192716, Note_off_c, 0, 67, 100
2, 192728, Note_on_c, 0, 67, 110
2, 192832, Note_off_c, 0, 72, 100
2, 192840, Note_on_c, 0, 63, 110
2, 192948, Note_off_c, 0, 67, 100
2, 192960, Note_on_c, 0, 63, 110
2, 193060, Note_off_c, 0, 63, 100
2, 193072, Note_on_c, 0, 67, 110
2, 193180, Note_off_c, 0, 63, 100
2, 193188, Note_on_c, 0, 72, 110
2, 193292, Note_off_c, 0, 67, 100
2, 193304, Note_on_c, 0, 67, 110
2, 193408, Note_off_c, 0, 72, 100
2, 193420, Note_on_c, 0, 63, 110
2, 193524, Note_off_c, 0, 67, 100
2, 193536, Note_on_c, 0, 63, 110
2, 193640, Note_off_c, 0, 63, 100
2, 193648, Note_on_c, 0, 67, 110
2, 193756, Note_off_c, 0, 63, 100
2, 193764, Note_on_c, 0, 72, 110
2, 193868, Note_off_c, 0, 67, 100
2, 193880, Note_on_c, 0, 67, 110
2, 193984, Note_off_c, 0, 72, 100
2, 193992, Note_on_c, 0, 63, 110
2, 194100, Note_off_c, 0, 67, 100
2, 194212, Note_off_c, 0, 63, 100
2, 195840, Note_on_c, 0, 67, 110
2, 196316, Note_off_c, 0, 67, 100
2, 196320, Note_on_c, 0, 70, 110
2, 196412, Note_off_c, 0, 70, 100
2, 196416, Note_on_c, 0, 75, 110
2, 196988, Note_off_c, 0, 75, 100
2, 196992, Note_on_c, 0, 79, 110
2, 197468, Note_off_c, 0, 79, 100
2, 197472, Note_on_c, 0, 82, 110
2, 197564, Note_off_c, 0, 82, 100
2, 197568, Note_on_c, 0, 87, 110
2, 197568, Note_on_c, 0, 75, 110
2, 198140, Note_off_c, 0, 87, 100
2, 198140, Note_off_c, 0, 75, 100
2, 198144, Note_on_c, 0, 87, 110
2, 198144, Note_on_c, 0, 75, 110
2, 198716, Note_off_c, 0, 87, 100
2, 198716, Note_off_c, 0, 75, 100
2, 198720, Note_on_c, 0, 87, 110
2, 198832, Note_on_c, 0, 92, 110
2, 198940, Note_off_c, 0, 87, 100
2, 198948, Note_on_c, 0, 96, 110
2, 199052, Note_off_c, 0, 92, 100
2, 199064, Note_on_c, 0, 92, 110
2, 199168, Note_off_c, 0, 96, 100
2, 199180, Note_on_c, 0, 87, 110
2, 199284, Note_off_c, 0, 92, 100
2, 199296, Note_on_c, 0, 84, 110
2, 199400, Note_off_c, 0, 87, 100
2, 199408, Note_on_c, 0, 87, 110
2, 199516, Note_off_c, 0, 84, 100
2, 199524, Note_on_c, 0, 92, 110
2, 199628, Note_off_c, 0, 87, 100
2, 199640, Note_on_c, 0, 87, 110
2, 199744, Note_off_c, 0, 92, 100
2, 199752, Note_on_c, 0, 84, 110
2, 199860, Note_off_c, 0, 87, 100
2, 199872, Note_on_c, 0, 80, 110
2, 199972, Note_off_c, 0, 84, 100
2, 199984, Note_on_c, 0, 84, 110
2, 200092, Note_off_c, 0, 80, 100
2, 200100, Note_on_c, 0, 87, 110
2, 200204, Note_off_c, 0, 84, 100
2, 200216, Note_on_c, 0, 84, 110
2, 200320, Note_off_c, 0, 87, 100
2, 200332, Note_on_c, 0, 80, 110
2, 200436, Note_off_c, 0, 84, 100
2, 200448, Note_on_c, 0, 75, 110
2, 200552, Note_off_c, 0, 80, 100
2, 200560, Note_on_c, 0, 80, 110
2, 200668, Note_off_c, 0, 75, 100
2, 200676, Note_on_c, 0, 84, 110
2, 200780, Note_off_c, 0, 80, 100
2, 200792, Note_on_c, 0, 80, 110
2, 200896, Note_off_c, 0, 84, 100
2, 200904, Note_on_c, 0, 75, 110
2, 201012, Note_off_c, 0, 80, 100
2, 201024, Note_on_c, 0, 72, 110
2, 201124, Note_off_c, 0, 75, 100
2, 201136, Note_on_c, 0, 75, 110
2, 201244, Note_off_c, 0, 72, 100
2, 201252, Note_on_c, 0, 80, 110
2, 201356, Note_off_c, 0, 75, 100
2, 201368, Note_on_c, 0, 75, 110
2, 201472, Note_off_c, 0, 80, 100
2, 201484, Note_on_c, 0, 72, 110
2, 201588, Note_off_c, 0, 75, 100
2, 201600, Note_on_c, 0, 68, 110
2, 201704, Note_off_c, 0, 72, 100
2, 201712, Note_on_c, 0, 72, 110
2, 201820, Note_off_c, 0, 68, 100
2, 201828, Note_on_c, 0, 75, 110
2, 201932, Note_off_c, 0, 72, 100
2, 201944, Note_on_c, 0, 72, 110
2, 202048, Note_off_c, 0, 75, 100
2, 202056, Note_on_c, 0, 68, 110
2, 202164, Note_off_c, 0, 72, 100
2, 202176, Note_on_c, 0, 63, 110
2, 202276, Note_off_c, 0, 68, 100
2, 202288, Note_on_c, 0, 68, 110
2, 202396, Note_off_c, 0, 63, 100
2, 202404, Note_on_c, 0, 72, 110
2, 202508, Note_off_c, 0, 68, 100
2, 202520, Note_on_c, 0, 68, 110
2, 202624, Note_off_c, 0, 72, 100
2, 202636, Note_on_c, 0, 63, 110
2, 202740, Note_off_c, 0, 68, 100
2, 202752, Note_on_c, 0, 60, 110
2, 202856, Note_off_c, 0, 63, 100
2, 202864, Note_on_c, 0, 63, 110
2, 202972, Note_off_c, 0, 60, 100
2, 202980, Note_on_c, 0, 68, 110
2, 203084, Note_off_c, 0, 63, 100
2, 203096, Note_on_c, 0, 63, 110
2, 203200, Note_off_c, 0, 68, 100
2, 203208, Note_on_c, 0, 60, 110
2, 203300, Note_off_c, 0, 60, 100
2, 203316, Note_off_c, 0, 63, 100
2, 203328, Note_on_c, 0, 66, 110
2, 205052, Note_off_c, 0, 66, 100
2, 205056, Note_on_c, 0, 72, 110
2, 205532, Note_off_c, 0, 72, 100
2, 205536, Note_on_c, 0, 75, 110
2, 205628, Note_off_c, 0, 75, 100
2, 205632, Key_signature, -4, "minor"
2, 205632, Note_on_c, 0, 78, 110
2, 206204, Note_off_c, 0, 78, 100
2, 206208, Note_on_c, 0, 84, 110
2, 206684, Note_off_c, 0, 84, 100
2, 206688, Note_on_c, 0, 87, 110
2, 206780, Note_off_c, 0, 87, 100
2, 206784, Note_on_c, 0, 90, 110
2, 207356, Note_off_c, 0, 90, 100
2, 207360, Note_on_c, 0, 90, 110
2, 207932, Note_off_c, 0, 90, 100
2, 207936, Note_on_c, 0, 90, 126
2, 208700, Note_off_c, 0, 90, 100
2, 208704, Note_on_c, 0, 90, 110
2, 208800, Note_on_c, 0, 87, 110
2, 208892, Note_off_c, 0, 90, 100
2, 208896, Note_on_c, 0, 84, 110
2, 208988, Note_off_c, 0, 87, 100
2, 208992, Note_on_c, 0, 78, 110
2, 209084, Note_off_c, 0, 84, 100
2, 209088, Note_on_c, 0, 90, 126
2, 209180, Note_off_c, 0, 78, 100
2, 209852, Note_off_c, 0, 90, 100
2, 209856, Note_on_c, 0, 78, 110
2, 209952, Note_on_c, 0, 75, 110
2, 210044, Note_off_c, 0, 78, 100
2, 210048, Note_on_c, 0, 72, 110
2, 210140, Note_off_c, 0, 75, 100
2, 210144, Note_on_c, 0, 66, 110
2, 210236, Note_off_c, 0, 72, 100
2, 210236, Note_off_c, 0, 66, 100
2, 210240, Note_on_c, 0, 78, 126
2, 211004, Note_off_c, 0, 78, 100
2, 211008, Note_on_c, 0, 66, 110
2, 211104, Note_on_c, 0, 63, 110
2, 211196, Note_off_c, 0, 66, 100
2, 211200, Note_on_c, 0, 60, 110
2, 211292, Note_off_c, 0, 63, 100
2, 211296, Note_on_c, 0, 54, 110
2, 211388, Note_off_c, 0, 60, 100
2, 211388, Note_off_c, 0, 54, 100
2, 211392, Note_on_c, 0, 66, 126
2, 211580, Note_off_c, 0, 66, 100
2, 211584, Note_on_c, 0, 66, 110
2, 211680, Note_on_c, 0, 63, 110
2, 211772, Note_off_c, 0, 66, 100
2, 211776, Note_on_c, 0, 60, 110
2, 211868, Note_off_c, 0, 63, 100
2, 211872, Note_on_c, 0, 54, 110
2, 211964, Note_off_c, 0, 60, 100
2, 211964, Note_off_c, 0, 54, 100
2, 211968, Note_on_c, 0, 66, 126
2, 212156, Note_off_c, 0, 66, 100
2, 212160, Note_on_c, 0, 66, 110
2, 212256, Note_on_c, 0, 63, 110
2, 212348, Note_off_c, 0, 66, 100
2, 212352, Note_on_c, 0, 60, 110
2, 212444, Note_off_c, 0, 63, 100
2, 212448, Note_on_c, 0, 54, 110
2, 212540, Note_off_c, 0, 60, 100
2, 212540, Note_off_c, 0, 54, 100
2, 212544, Note_on_c, 0, 66, 125
2, 212924, Note_off_c, 0, 66, 100
2, 214848, Note_on_c, 0, 63, 80
2, 214848, Note_on_c, 0, 60, 80
2, 215420, Note_off_c, 0, 63, 100
2, 215420, Note_off_c, 0, 60, 100
2, 216000, Note_on_c, 0, 75, 80
2, 216000, Note_on_c, 0, 72, 80
2, 216572, Note_off_c, 0, 75, 100
2, 216572, Note_off_c, 0, 72, 100
2, 217152, Note_on_c, 0, 65, 80
2, 217152, Note_on_c, 0, 61, 80
2, 217724, Note_off_c, 0, 65, 100
2, 217724, Note_off_c, 0, 61, 100
2, 218304, Note_on_c, 0, 77, 80
2, 218304, Note_on_c, 0, 73, 80
2, 218876, Note_off_c, 0, 77, 100
2, 218876, Note_off_c, 0, 73, 100
2, 219456, Note_on_c, 0, 70, 100
2, 219456, Note_on_c, 0, 65, 100
2, 219456, Note_on_c, 0, 61, 100
2, 221756, Note_off_c, 0, 61, 100
2, 221756, Note_off_c, 0, 65, 100
2, 221756, Note_off_c, 0, 70, 100
2, 221760, Note_on_c, 0, 68, 80
2, 221760, Note_on_c, 0, 63, 80
2, 221760, Note_on_c, 0, 60, 80
2, 222140, Note_off_c, 0, 68, 100
2, 222140, Note_off_c, 0, 63, 100
2, 222140, Note_off_c, 0, 60, 100
2, 223488, Note_on_c, 0, 63, 80
2, 223488, Note_on_c, 0, 60, 80
2, 223964, Note_off_c, 0, 63, 100
2, 223964, Note_off_c, 0, 60, 100
2, 223968, Note_on_c, 0, 63, 80
2, 223968, Note_on_c, 0, 60, 80
2, 224060, Note_off_c, 0, 63, 100
2, 224060, Note_off_c, 0, 60, 100
2, 224064, Note_on_c, 0, 65, 80
2, 224064, Note_on_c, 0, 61, 80
2, 224444, Note_off_c, 0, 65, 100
2, 224444, Note_off_c, 0, 61, 100
2, 224448, Note_on_c, 0, 63, 80
2, 224448, Note_on_c, 0, 60, 80
2, 224636, Note_off_c, 0, 63, 100
2, 224636, Note_off_c, 0, 60, 100
2, 225024, Note_on_c, 0, 75, 80
2, 225024, Note_on_c, 0, 72, 80
2, 225212, Note_off_c, 0, 75, 100
2, 225212, Note_off_c, 0, 72, 100
2, 225600, Note_on_c, 0, 84, 80
2, 225600, Note_on_c, 0, 87, 80
2, 225788, Note_off_c, 0, 84, 100
2, 225788, Note_off_c, 0, 87, 100
2, 226272, Note_on_c, 0, 63, 80
2, 226272, Note_on_c, 0, 60, 80
2, 226364, Note_off_c, 0, 63, 100
2, 226364, Note_off_c, 0, 60, 100
2, 226368, Note_on_c, 0, 66, 80
2, 226368, Note_on_c, 0, 63, 80
2, 226748, Note_off_c, 0, 66, 100
2, 226748, Note_off_c, 0, 63, 100
2, 226752, Note_on_c, 0, 65, 80
2, 226752, Note_on_c, 0, 61, 80
2, 226940, Note_off_c, 0, 65, 100
2, 226940, Note_off_c, 0, 61, 100
2, 227328, Note_on_c, 0, 77, 80
2, 227328, Note_on_c, 0, 73, 80
2, 227516, Note_off_c, 0, 77, 100
2, 227516, Note_off_c, 0, 73, 100
2, 227904, Note_on_c, 0, 89, 80
2, 227904, Note_on_c, 0, 85, 80
2, 228092, Note_off_c, 0, 89, 100
2, 228092, Note_off_c, 0, 85, 100
2, 228576, Note_on_c, 0, 65, 80
2, 228576, Note_on_c, 0, 61, 80
2, 228668, Note_off_c, 0, 65, 100
2, 228668, Note_off_c, 0, 61, 100
2, 228672, Note_on_c, 0, 70, 100
2, 228672, Note_on_c, 0, 65, 100
2, 228672, Note_on_c, 0, 61, 100
2, 230972, Note_off_c, 0, 61, 100
2, 230972, Note_off_c, 0, 65, 100
2, 230972, Note_off_c, 0, 70, 100
2, 230976, Note_on_c, 0, 68, 80
2, 230976, Note_on_c, 0, 63, 80
2, 230976, Note_on_c, 0, 60, 80
2, 231356, Note_off_c, 0, 68, 100
2, 231356, Note_off_c, 0, 63, 100
2, 231356, Note_off_c, 0, 60, 100
2, 232128, Note_on_c, 0, 69, 80
2, 232128, Note_on_c, 0, 64, 80
2, 232128, Note_on_c, 0, 61, 80
2, 233276, Note_off_c, 0, 69, 100
2, 233276, Note_off_c, 0, 64, 100
2, 233276, Note_off_c, 0, 61, 100
2, 233280, Note_on_c, 0, 68, 78
2, 233280, Note_on_c, 0, 63, 78
2, 233280, Note_on_c, 0, 60, 78
2, 233660, Note_off_c, 0, 68, 100
2, 233660, Note_off_c, 0, 63, 100
2, 233660, Note_off_c, 0, 60, 100
2, 234432, Note_on_c, 0, 81, 76
2, 234432, Note_on_c, 0, 76, 76
2, 234432, Note_on_c, 0, 73, 76
2, 235580, Note_off_c, 0, 81, 100
2, 235580, Note_off_c, 0, 76, 100
2, 235580, Note_off_c, 0, 73, 100
2, 235584, Note_on_c, 0, 80, 74
2, 235584, Note_on_c, 0, 75, 74
2, 235584, Note_on_c, 0, 72, 74
2, 236156, Note_off_c, 0, 80, 100
2, 236156, Note_off_c, 0, 75, 100
2, 236156, Note_off_c, 0, 72, 100
2, 236736, Note_on_c, 0, 68, 72
2, 236736, Note_on_c, 0, 62, 72
2, 236736, Note_on_c, 0, 59, 72
2, 237308, Note_off_c, 0, 68, 100
2, 237308, Note_off_c, 0, 62, 100
2, 237308, Note_off_c, 0, 59, 100
2, 237888, Note_on_c, 0, 67, 70
2, 237888, Note_on_c, 0, 61, 70
2, 237888, Note_on_c, 0, 58, 70
2, 238460, Note_off_c, 0, 67, 100
2, 238460, Note_off_c, 0, 61, 100
2, 238460, Note_off_c, 0, 58, 100
2, 239040, Note_on_c, 0, 66, 70
2, 239040, Note_on_c, 0, 60, 70
2, 239040, Note_on_c, 0, 57, 70
2, 239612, Note_off_c, 0, 66, 100
2, 239612, Note_off_c, 0, 60, 100
2, 239612, Note_off_c, 0, 57, 100
2, 240192, Note_on_c, 0, 66, 70
2, 240192, Note_on_c, 0, 60, 70
2, 240192, Note_on_c, 0, 56, 70
2, 240572, Note_off_c, 0, 66, 100
2, 240572, Note_off_c, 0, 60, 100
2, 240572, Note_off_c, 0, 56, 100
2, 241344, Note_on_c, 0, 75, 76
2, 241536, Note_on_c, 0, 77, 77
2, 241584, Note_off_c, 0, 75, 100
2, 241728, Note_on_c, 0, 75, 79
2, 241776, Note_off_c, 0, 77, 100
2, 241920, Note_on_c, 0, 73, 80
2, 241968, Note_off_c, 0, 75, 100
2, 242112, Note_on_c, 0, 75, 81
2, 242160, Note_off_c, 0, 73, 100
2, 242304, Note_on_c, 0, 73, 82
2, 242352, Note_off_c, 0, 75, 100
2, 242496, Note_on_c, 0, 72, 83
2, 242544, Note_off_c, 0, 73, 100
2, 242688, Note_on_c, 0, 78, 84
2, 242736, Note_off_c, 0, 72, 100
2, 243068, Note_off_c, 0, 78, 100
2, 243648, Note_on_c, 0, 78, 90
2, 243836, Note_off_c, 0, 78, 100
2, 243840, Note_on_c, 0, 80, 91
2, 244028, Note_off_c, 0, 80, 100
2, 244032, Note_on_c, 0, 78, 92
2, 244220, Note_off_c, 0, 78, 100
2, 244224, Note_on_c, 0, 77, 93
2, 244412, Note_off_c, 0, 77, 100
2, 244416, Note_on_c, 0, 78, 95
2, 244604, Note_off_c, 0, 78, 100
2, 244608, Note_on_c, 0, 77, 96
2, 244796, Note_off_c, 0, 77, 100
2, 244800, Note_on_c, 0, 75, 97
2, 244988, Note_off_c, 0, 75, 100
2, 244992, Note_on_c, 0, 87, 98
2, 245372, Note_off_c, 0, 87, 100
2, 245952, Note_on_c, 0, 87, 104
2, 246140, Note_off_c, 0, 87, 100
2, 246144, Note_on_c, 0, 89, 105
2, 246332, Note_off_c, 0, 89, 100
2, 246336, Note_on_c, 0, 87, 106
2, 246524, Note_off_c, 0, 87, 100
2, 246528, Note_on_c, 0, 85, 107
2, 246716, Note_off_c, 0, 85, 100
2, 246720, Note_on_c, 0, 87, 108
2, 246908, Note_off_c, 0, 87, 100
2, 246912, Note_on_c, 0, 85, 109
2, 247100, Note_off_c, 0, 85, 100
2, 247104, Note_on_c, 0, 84, 110
2, 247292, Note_off_c, 0, 84, 100
2, 247296, Note_on_c, 0, 85, 110
2, 247484, Note_off_c, 0, 85, 100
2, 247488, Note_on_c, 0, 84, 110
2, 247676, Note_off_c, 0, 84, 100
2, 247680, Note_on_c, 0, 82, 110
2, 247868, Note_off_c, 0, 82, 100
2, 247872, Note_on_c, 0, 84, 110
2, 248060, Note_off_c, 0, 84, 100
2, 248064, Note_on_c, 0, 82, 110
2, 248252, Note_off_c, 0, 82, 100
2, 248256, Note_on_c, 0, 80, 110
2, 248444, Note_off_c, 0, 80, 100
2, 248448, Note_on_c, 0, 82, 110
2, 248636, Note_off_c, 0, 82, 100
2, 248640, Note_on_c, 0, 80, 110
2, 248828, Note_off_c, 0, 80, 100
2, 248832, Note_on_c, 0, 78, 110
2, 249020, Note_off_c, 0, 78, 100
2, 249024, Note_on_c, 0, 80, 110
2, 249212, Note_off_c, 0, 80, 100
2, 249216, Note_on_c, 0, 78, 110
2, 249404, Note_off_c, 0, 78, 100
2, 249408, Note_on_c, 0, 77, 103
2, 249788, Note_off_c, 0, 77, 100
2, 251136, Note_on_c, 0, 65, 80
2, 251136, Note_on_c, 0, 53, 80
2, 251612, Note_off_c, 0, 65, 100
2, 251612, Note_off_c, 0, 53, 100
2, 251616, Note_on_c, 0, 68, 80
2, 251616, Note_on_c, 0, 56, 80
2, 251708, Note_off_c, 0, 68, 100
2, 251708, Note_off_c, 0, 56, 100
2, 251712, Note_on_c, 0, 73, 80
2, 251712, Note_on_c, 0, 61, 80
2, 252284, Note_off_c, 0, 73, 100
2, 252284, Note_off_c, 0, 61, 100
2, 252288, Note_on_c, 0, 77, 80
2, 252288, Note_on_c, 0, 65, 80
2, 252764, Note_off_c, 0, 77, 100
2, 252764, Note_off_c, 0, 65, 100
2, 252768, Note_on_c, 0, 73, 80
2, 252768, Note_on_c, 0, 61, 80
2, 252860, Note_off_c, 0, 73, 100
2, 252860, Note_off_c, 0, 61, 100
2, 252864, Note_on_c, 0, 72, 80
2, 252864, Note_on_c, 0, 60, 80
2, 253436, Note_off_c, 0, 72, 100
2, 253436, Note_off_c, 0, 60, 100
2, 253440, Note_on_c, 0, 75, 80
2, 253440, Note_on_c, 0, 63, 80
2, 253916, Note_off_c, 0, 75, 100
2, 253916, Note_off_c, 0, 63, 100
2, 253920, Note_on_c, 0, 72, 80
2, 253920, Note_on_c, 0, 60, 80
2, 254012, Note_off_c, 0, 72, 100
2, 254012, Note_off_c, 0, 60, 100
2, 254016, Note_on_c, 0, 73, 80
2, 254016, Note_on_c, 0, 61, 80
2, 254588, Note_off_c, 0, 73, 100
2, 254588, Note_off_c, 0, 61, 100
2, 254592, Note_on_c, 0, 68, 80
2, 254592, Note_on_c, 0, 56, 80
2, 255740, Note_off_c, 0, 56, 100
2, 255740, Note_off_c, 0, 68, 100
2, 255744, Note_on_c, 0, 70, 80
2, 255744, Note_on_c, 0, 58, 80
2, 256220, Note_off_c, 0, 70, 100
2, 256224, Note_on_c, 0, 66, 80
2, 256316, Note_off_c, 0, 58, 100
2, 256316, Note_off_c, 0, 66, 100
2, 256320, Note_on_c, 0, 65, 80
2, 256892, Note_off_c, 0, 65, 100
2, 256896, Note_on_c, 0, 68, 87
2, 257372, Note_off_c, 0, 68, 100
2, 257376, Note_on_c, 0, 65, 94
2, 257468, Note_off_c, 0, 65, 100
2, 257472, Note_on_c, 0, 63, 95
2, 258044, Note_off_c, 0, 63, 100
2, 258048, Note_on_c, 0, 66, 103
2, 258524, Note_off_c, 0, 66, 100
2, 258528, Note_on_c, 0, 63, 109
2, 258620, Note_off_c, 0, 63, 100
2, 258624, Note_on_c, 0, 60, 110
2, 259196, Note_off_c, 0, 60, 100
2, 259200, Note_on_c, 0, 65, 110
2, 260348, Note_off_c, 0, 65, 100
2, 260352, Note_on_c, 0, 73, 80
2, 260352, Note_on_c, 0, 61, 80
2, 260828, Note_off_c, 0, 73, 100
2, 260828, Note_off_c, 0, 61, 100
2, 260832, Note_on_c, 0, 77, 80
2, 260832, Note_on_c, 0, 65, 80
2, 260924, Note_off_c, 0, 77, 100
2, 260924, Note_off_c, 0, 65, 100
2, 260928, Note_on_c, 0, 82, 80
2, 260928, Note_on_c, 0, 70, 80
2, 261500, Note_off_c, 0, 82, 100
2, 261500, Note_off_c, 0, 70, 100
2, 261504, Note_on_c, 0, 85, 80
2, 261504, Note_on_c, 0, 73, 80
2, 261980, Note_off_c, 0, 85, 100
2, 261980, Note_off_c, 0, 73, 100
2, 261984, Note_on_c, 0, 82, 80
2, 261984, Note_on_c, 0, 70, 80
2, 262076, Note_off_c, 0, 82, 100
2, 262076, Note_off_c, 0, 70, 100
2, 262080, Note_on_c, 0, 81, 80
2, 262080, Note_on_c, 0, 69, 80
2, 262652, Note_off_c, 0, 81, 100
2, 262652, Note_off_c, 0, 69, 100
2, 262656, Note_on_c, 0, 84, 80
2, 262656, Note_on_c, 0, 72, 80
2, 263132, Note_off_c, 0, 84, 100
2, 263132, Note_off_c, 0, 72, 100
2, 263136, Note_on_c, 0, 81, 80
2, 263136, Note_on_c, 0, 69, 80
2, 263228, Note_off_c, 0, 81, 100
2, 263228, Note_off_c, 0, 69, 100
2, 263232, Note_on_c, 0, 82, 80
2, 263232, Note_on_c, 0, 70, 80
2, 263804, Note_off_c, 0, 82, 100
2, 263804, Note_off_c, 0, 70, 100
2, 263808, Note_on_c, 0, 77, 80
2, 263808, Note_on_c, 0, 65, 80
2, 264956, Note_off_c, 0, 65, 100
2, 264956, Note_off_c, 0, 77, 100
2, 264960, Note_on_c, 0, 78, 80
2, 264960, Note_on_c, 0, 66, 80
2, 265436, Note_off_c, 0, 78, 100
2, 265440, Note_on_c, 0, 75, 80
2, 265532, Note_off_c, 0, 66, 100
2, 265532, Note_off_c, 0, 75, 100
2, 265536, Note_on_c, 0, 73, 80
2, 266108, Note_off_c, 0, 73, 100
2, 266112, Note_on_c, 0, 77, 87
2, 266588, Note_off_c, 0, 77, 100
2, 266592, Note_on_c, 0, 73, 94
2, 266684, Note_off_c, 0, 73, 100
2, 266688, Note_on_c, 0, 72, 95
2, 267260, Note_off_c, 0, 72, 100
2, 267264, Note_on_c, 0, 75, 103
2, 267740, Note_off_c, 0, 75, 100
2, 267744, Note_on_c, 0, 72, 109
2, 267836, Note_off_c, 0, 72, 100
2, 267840, Note_on_c, 0, 70, 110
2, 268412, Note_off_c, 0, 70, 100
2, 268416, Note_on_c, 0, 73, 110
2, 269564, Note_off_c, 0, 73, 100
2, 269568, Note_on_c, 0, 82, 110
2, 269568, Note_on_c, 0, 70, 110
2, 270044, Note_off_c, 0, 82, 100
2, 270044, Note_off_c, 0, 70, 100
2, 270048, Note_on_c, 0, 85, 110
2, 270048, Note_on_c, 0, 73, 110
2, 270140, Note_off_c, 0, 85, 100
2, 270140, Note_off_c, 0, 73, 100
2, 270144, Note_on_c, 0, 90, 110
2, 270144, Note_on_c, 0, 78, 110
2, 270716, Note_off_c, 0, 90, 100
2, 270716, Note_off_c, 0, 78, 100
2, 270720, Note_on_c, 0, 94, 110
2, 270720, Note_on_c, 0, 82, 110
2, 271196, Note_off_c, 0, 94, 100
2, 271196, Note_off_c, 0, 82, 100
2, 271200, Note_on_c, 0, 90, 110
2, 271200, Note_on_c, 0, 78, 110
2, 271292, Note_off_c, 0, 90, 100
2, 271292, Note_off_c, 0, 78, 100
2, 271296, Note_on_c, 0, 89, 110
2, 271296, Note_on_c, 0, 77, 110
2, 271868, Note_off_c, 0, 89, 100
2, 271868, Note_off_c, 0, 77, 100
2, 271872, Note_on_c, 0, 92, 110
2, 271872, Note_on_c, 0, 80, 110
2, 272348, Note_off_c, 0, 92, 100
2, 272348, Note_off_c, 0, 80, 100
2, 272352, Note_on_c, 0, 89, 110
2, 272352, Note_on_c, 0, 77, 110
2, 272444, Note_off_c, 0, 89, 100
2, 272444, Note_off_c, 0, 77, 100
2, 272448, Note_on_c, 0, 90, 110
2, 272448, Note_on_c, 0, 78, 110
2, 273020, Note_off_c, 0, 90, 100
2, 273020, Note_off_c, 0, 78, 100
2, 273024, Note_on_c, 0, 85, 110
2, 273024, Note_on_c, 0, 73, 110
2, 274748, Note_off_c, 0, 73, 100
2, 274748, Note_off_c, 0, 85, 100
2, 274752, Note_on_c, 0, 90, 110
2, 274752, Note_on_c, 0, 78, 110
2, 275324, Note_off_c, 0, 90, 100
2, 275324, Note_off_c, 0, 78, 100
2, 275328, Note_on_c, 0, 86, 110
2, 275328, Note_on_c, 0, 74, 110
2, 277052, Note_off_c, 0, 74, 100
2, 277052, Note_off_c, 0, 86, 100
2, 277056, Note_on_c, 0, 91, 110
2, 277056, Note_on_c, 0, 79, 110
2, 277628, Note_off_c, 0, 91, 100
2, 277628, Note_off_c, 0, 79, 100
2, 277632, Note_on_c, 0, 86, 110
2, 277632, Note_on_c, 0, 74, 110
2, 279356, Note_off_c, 0, 74, 100
2, 279356, Note_off_c, 0, 86, 100
2, 279360, Note_on_c, 0, 91, 110
2, 279360, Note_on_c, 0, 79, 110
2, 279932, Note_off_c, 0, 91, 100
2, 279932, Note_off_c, 0, 79, 100
2, 279936, Note_on_c, 0, 88, 110
2, 279936, Note_on_c, 0, 76, 110
2, 281660, Note_off_c, 0, 76, 100
2, 281660, Note_off_c, 0, 88, 100
2, 281664, Control_c, 0, 64, 127
2, 282240, Note_on_c, 0, 79, 110
2, 282336, Note_on_c, 0, 82, 110
2, 282432, Note_on_c, 0, 85, 110
2, 282528, Note_on_c, 0, 88, 110
2, 282624, Note_on_c, 0, 91, 110
2, 282716, Note_off_c, 0, 79, 100
2, 282720, Note_on_c, 0, 79, 110
2, 282808, Control_c, 0, 64, 0
2, 282812, Note_off_c, 0, 82, 100
2, 282816, Control_c, 0, 64, 127
2, 282908, Note_off_c, 0, 85, 100
2, 283004, Note_off_c, 0, 88, 100
2, 283100, Note_off_c, 0, 91, 100
2, 283196, Note_off_c, 0, 79, 100
2, 283392, Note_on_c, 0, 79, 110
2, 283488, Note_on_c, 0, 82, 110
2, 283584, Note_on_c, 0, 85, 110
2, 283680, Note_on_c, 0, 88, 110
2, 283776, Note_on_c, 0, 91, 110
2, 283868, Note_off_c, 0, 79, 100
2, 283872, Note_on_c, 0, 79, 110
2, 283960, Control_c, 0, 64, 0
2, 283964, Note_off_c, 0, 82, 100
2, 283968, Control_c, 0, 64, 127
2, 284060, Note_off_c, 0, 85, 100
2, 284156, Note_off_c, 0, 88, 100
2, 284252, Note_off_c, 0, 91, 100
2, 284348, Note_off_c, 0, 79, 100
2, 284544, Note_on_c, 0, 79, 110
2, 284640, Note_on_c, 0, 82, 110
2, 284736, Note_on_c, 0, 85, 110
2, 284832, Note_on_c, 0, 88, 110
2, 284928, Note_on_c, 0, 91, 110
2, 285020, Note_off_c, 0, 79, 100
2, 285024, Note_on_c, 0, 79, 110
2, 285112, Control_c, 0, 64, 0
2, 285116, Note_off_c, 0, 82, 100
2, 285120, Control_c, 0, 64, 127
2, 285212, Note_off_c, 0, 85, 100
2, 285308, Note_off_c, 0, 88, 100
2, 285404, Note_off_c, 0, 91, 100
2, 285500, Note_off_c, 0, 79, 100
2, 285696, Note_on_c, 0, 79, 110
2, 285792, Note_on_c, 0, 82, 110
2, 285888, Note_on_c, 0, 85, 110
2, 285984, Note_on_c, 0, 88, 110
2, 286080, Note_on_c, 0, 91, 110
2, 286172, Note_off_c, 0, 79, 100
2, 286176, Note_on_c, 0, 79, 110
2, 286264, Control_c, 0, 64, 0
2, 286268, Note_off_c, 0, 82, 100
2, 286364, Note_off_c, 0, 85, 100
2, 286460, Note_off_c, 0, 88, 100
2, 286464, Note_on_c, 0, 82, 110
2, 286556, Note_off_c, 0, 91, 100
2, 286560, Note_on_c, 0, 85, 110
2, 286652, Note_off_c, 0, 79, 100
2, 286656, Note_on_c, 0, 88, 110
2, 286752, Note_on_c, 0, 91, 110
2, 286940, Note_off_c, 0, 82, 100
2, 287036, Note_off_c, 0, 85, 100
2, 287040, Note_on_c, 0, 85, 110
2, 287132, Note_off_c, 0, 88, 100
2, 287136, Note_on_c, 0, 88, 110
2, 287228, Note_off_c, 0, 91, 100
2, 287232, Note_on_c, 0, 91, 110
2, 287328, Note_on_c, 0, 94, 110
2, 287516, Note_off_c, 0, 85, 100
2, 287612, Note_off_c, 0, 88, 100
2, 287708, Note_off_c, 0, 91, 100
2, 287712, Note_on_c, 0, 88, 110
2, 287804, Note_off_c, 0, 94, 100
2, 287808, Note_on_c, 0, 91, 110
2, 287904, Note_on_c, 0, 94, 110
2, 288188, Note_off_c, 0, 88, 100
2, 288284, Note_off_c, 0, 91, 100
2, 288288, Note_on_c, 0, 88, 110
2, 288380, Note_off_c, 0, 94, 100
2, 288384, Note_on_c, 0, 91, 110
2, 288480, Note_on_c, 0, 94, 110
2, 288764, Note_off_c, 0, 88, 100
2, 288768, Note_on_c, 0, 88, 110
2, 288860, Note_off_c, 0, 91, 100
2, 288864, Note_on_c, 0, 91, 110
2, 288956, Note_off_c, 0, 94, 100
2, 288960, Note_on_c, 0, 94, 110
2, 289244, Note_off_c, 0, 88, 100
2, 289340, Note_off_c, 0, 91, 100
2, 289344, Note_on_c, 0, 85, 110
2, 289436, Note_off_c, 0, 94, 100
2, 289440, Note_on_c, 0, 88, 110
2, 289536, Note_on_c, 0, 91, 110
2, 289820, Note_off_c, 0, 85, 100
2, 289916, Note_off_c, 0, 88, 100
2, 289920, Note_on_c, 0, 82, 110
2, 290012, Note_off_c, 0, 91, 100
2, 290016, Note_on_c, 0, 85, 110
2, 290112, Note_on_c, 0, 88, 110
2, 290396, Note_off_c, 0, 82, 100
2, 290492, Note_off_c, 0, 85, 100
2, 290496, Note_on_c, 0, 79, 110
2, 290588, Note_off_c, 0, 88, 100
2, 290592, Note_on_c, 0, 82, 110
2, 290688, Note_on_c, 0, 85, 110
2, 290880, Note_off_c, 0, 79, 100
2, 290880, Note_off_c, 0, 82, 100
2, 290880, Note_off_c, 0, 85, 100
2, 291072, Note_on_c, 0, 76, 110
2, 291168, Note_on_c, 0, 79, 110
2, 291264, Note_on_c, 0, 82, 110
2, 291548, Note_off_c, 0, 76, 100
2, 291644, Note_off_c, 0, 79, 100
2, 291648, Note_on_c, 0, 73, 110
2, 291740, Note_off_c, 0, 82, 100
2, 291744, Note_on_c, 0, 76, 110
2, 291840, Note_on_c, 0, 79, 110
2, 292124, Note_off_c, 0, 73, 100
2, 292220, Note_off_c, 0, 76, 100
2, 292224, Note_on_c, 0, 70, 110
2, 292316, Note_off_c, 0, 79, 100
2, 292320, Note_on_c, 0, 73, 110
2, 292416, Note_on_c, 0, 76, 110
2, 292700, Note_off_c, 0, 70, 100
2, 292796, Note_off_c, 0, 73, 100
2, 292800, Note_on_c, 0, 67, 110
2, 292892, Note_off_c, 0, 76, 100
2, 292896, Note_on_c, 0, 70, 110
2, 292992, Note_on_c, 0, 73, 110
2, 293184, Note_off_c, 0, 67, 100
2, 293184, Note_off_c, 0, 70, 100
2, 293184, Note_off_c, 0, 73, 100
2, 293376, Note_on_c, 0, 64, 110
2, 293472, Note_on_c, 0, 67, 110
2, 293568, Note_on_c, 0, 70, 110
2, 293852, Note_off_c, 0, 64, 100
2, 293948, Note_off_c, 0, 67, 100
2, 293952, Note_on_c, 0, 61, 110
2, 294044, Note_off_c, 0, 70, 100
2, 294048, Note_on_c, 0, 64, 110
2, 294144, Note_on_c, 0, 67, 110
2, 294428, Note_off_c, 0, 61, 100
2, 294524, Note_off_c, 0, 64, 100
2, 294528, Note_on_c, 0, 58, 110
2, 294620, Note_off_c, 0, 67, 100
2, 294624, Note_on_c, 0, 61, 110
2, 294720, Note_on_c, 0, 64, 110
2, 295004, Note_off_c, 0, 58, 100
2, 295100, Note_off_c, 0, 61, 100
2, 295104, Note_on_c, 0, 55, 110
2, 295196, Note_off_c, 0, 64, 100
2, 295200, Note_on_c, 0, 58, 110
2, 295296, Note_on_c, 0, 61, 110
2, 295488, Note_off_c, 0, 55, 100
2, 295488, Note_off_c, 0, 58, 100
2, 295488, Note_off_c, 0, 61, 100
2, 295680, Note_on_c, 0, 52, 110
2, 295776, Note_on_c, 0, 55, 110
2, 295872, Note_on_c, 0, 58, 110
2, 296156, Note_off_c, 0, 52, 100
2, 296252, Note_off_c, 0, 55, 100
2, 296256, Note_on_c, 0, 49, 110
2, 296348, Note_off_c, 0, 58, 100
2, 296352, Note_on_c, 0, 52, 110
2, 296448, Note_on_c, 0, 55, 110
2, 296732, Note_off_c, 0, 49, 100
2, 296828, Note_off_c, 0, 52, 100
2, 296832, Note_on_c, 0, 46, 110
2, 296924, Note_off_c, 0, 55, 100
2, 296928, Note_on_c, 0, 49, 110
2, 297024, Note_on_c, 0, 52, 110
2, 297308, Note_off_c, 0, 46, 100
2, 297404, Note_off_c, 0, 49, 100
2, 297408, Note_on_c, 0, 43, 110
2, 297500, Note_off_c, 0, 52, 100
2, 297504, Note_on_c, 0, 46, 110
2, 297600, Note_on_c, 0, 49, 110
2, 297792, Note_off_c, 0, 43, 100
2, 297792, Note_off_c, 0, 46, 100
2, 297792, Note_off_c, 0, 49, 100
2, 297792, Note_on_c, 0, 46, 110
2, 297792, Note_on_c, 0, 43, 110
2, 297888, Note_on_c, 0, 52, 110
2, 297980, Note_off_c, 0, 46, 100
2, 297980, Note_off_c, 0, 43, 100
2, 297984, Note_on_c, 0, 46, 110
2, 297984, Note_on_c, 0, 43, 110
2, 298076, Note_off_c, 0, 52, 100
2, 298080, Note_on_c, 0, 52, 110
2, 298172, Note_off_c, 0, 46, 100
2, 298172, Note_off_c, 0, 43, 100
2, 298176, Note_on_c, 0, 46, 110
2, 298176, Note_on_c, 0, 43, 110
2, 298268, Note_off_c, 0, 52, 100
2, 298272, Note_on_c, 0, 52, 110
2, 298364, Note_off_c, 0, 46, 100
2, 298364, Note_off_c, 0, 43, 100
2, 298368, Note_on_c, 0, 46, 110
2, 298368, Note_on_c, 0, 43, 110
2, 298460, Note_off_c, 0, 52, 100
2, 298464, Note_on_c, 0, 52, 110
2, 298556, Note_off_c, 0, 46, 100
2, 298556, Note_off_c, 0, 43, 100
2, 298560, Note_on_c, 0, 46, 110
2, 298560, Note_on_c, 0, 43, 110
2, 298652, Note_off_c, 0, 52, 100
2, 298656, Note_on_c, 0, 52, 110
2, 298748, Note_off_c, 0, 46, 100
2, 298748, Note_off_c, 0, 43, 100
2, 298752, Note_on_c, 0, 46, 110
2, 298752, Note_on_c, 0, 43, 110
2, 298844, Note_off_c, 0, 52, 100
2, 298848, Note_on_c, 0, 52, 110
2, 298940, Note_off_c, 0, 46, 100
2, 298940, Note_off_c, 0, 43, 100
2, 298944, Note_on_c, 0, 46, 110
2, 298944, Note_on_c, 0, 43, 110
2, 299036, Note_off_c, 0, 52, 100
2, 299040, Note_on_c, 0, 52, 110
2, 299132, Note_off_c, 0, 46, 100
2, 299132, Note_off_c, 0, 43, 100
2, 299136, Note_on_c, 0, 46, 110
2, 299136, Note_on_c, 0, 43, 110
2, 299228, Note_off_c, 0, 52, 100
2, 299232, Note_on_c, 0, 52, 110
2, 299324, Note_off_c, 0, 46, 100
2, 299324, Note_off_c, 0, 43, 100
2, 299328, Note_on_c, 0, 46, 110
2, 299328, Note_on_c, 0, 43, 110
2, 299420, Note_off_c, 0, 52, 100
2, 299424, Note_on_c, 0, 52, 110
2, 299516, Note_off_c, 0, 46, 100
2, 299516, Note_off_c, 0, 43, 100
2, 299520, Note_on_c, 0, 46, 110
2, 299520, Note_on_c, 0, 43, 110
2, 299612, Note_off_c, 0, 52, 100
2, 299616, Note_on_c, 0, 52, 110
2, 299708, Note_off_c, 0, 46, 100
2, 299708, Note_off_c, 0, 43, 100
2, 299712, Note_on_c, 0, 46, 110
2, 299712, Note_on_c, 0, 43, 110
2, 299804, Note_off_c, 0, 52, 100
2, 299808, Note_on_c, 0, 52, 110
2, 299900, Note_off_c, 0, 46, 100
2, 299900, Note_off_c, 0, 43, 100
2, 299904, Note_on_c, 0, 46, 110
2, 299904, Note_on_c, 0, 43, 110
2, 299996, Note_off_c, 0, 52, 100
2, 300000, Note_on_c, 0, 52, 110
2, 300092, Note_off_c, 0, 46, 100
2, 300092, Note_off_c, 0, 43, 100
2, 300096, Note_on_c, 0, 46, 110
2, 300096, Note_on_c, 0, 43, 110
2, 300188, Note_off_c, 0, 52, 100
2, 300192, Note_on_c, 0, 52, 110
2, 300284, Note_off_c, 0, 46, 100
2, 300284, Note_off_c, 0, 43, 100
2, 300288, Note_on_c, 0, 46, 110
2, 300288, Note_on_c, 0, 43, 110
2, 300380, Note_off_c, 0, 52, 100
2, 300384, Note_on_c, 0, 52, 110
2, 300476, Note_off_c, 0, 46, 100
2, 300476, Note_off_c, 0, 43, 100
2, 300480, Note_on_c, 0, 46, 110
2, 300480, Note_on_c, 0, 43, 110
2, 300572, Note_off_c, 0, 52, 100
2, 300576, Note_on_c, 0, 52, 110
2, 300668, Note_off_c, 0, 46, 100
2, 300668, Note_off_c, 0, 43, 100
2, 300672, Note_on_c, 0, 46, 110
2, 300672, Note_on_c, 0, 43, 110
2, 300764, Note_off_c, 0, 52, 100
2, 300768, Note_on_c, 0, 52, 110
2, 300860, Note_off_c, 0, 46, 100
2, 300860, Note_off_c, 0, 43, 100
2, 300864, Note_on_c, 0, 46, 110
2, 300864, Note_on_c, 0, 43, 110
2, 300956, Note_off_c, 0, 52, 100
2, 300960, Note_on_c, 0, 52, 110
2, 301052, Note_off_c, 0, 46, 100
2, 301052, Note_off_c, 0, 43, 100
2, 301056, Note_on_c, 0, 46, 110
2, 301056, Note_on_c, 0, 43, 110
2, 301148, Note_off_c, 0, 52, 100
2, 301152, Note_on_c, 0, 52, 110
2, 301244, Note_off_c, 0, 46, 100
2, 301244, Note_off_c, 0, 43, 100
2, 301248, Note_on_c, 0, 46, 110
2, 301248, Note_on_c, 0, 43, 110
2, 301340, Note_off_c, 0, 52, 100
2, 301344, Note_on_c, 0, 52, 110
2, 301436, Note_off_c, 0, 46, 100
2, 301436, Note_off_c, 0, 43, 100
2, 301440, Note_on_c, 0, 46, 110
2, 301440, Note_on_c, 0, 43, 110
2, 301532, Note_off_c, 0, 52, 100
2, 301536, Note_on_c, 0, 52, 110
2, 301628, Note_off_c, 0, 46, 100
2, 301628, Note_off_c, 0, 43, 100
2, 301632, Note_on_c, 0, 46, 110
2, 301632, Note_on_c, 0, 43, 110
2, 301724, Note_off_c, 0, 52, 100
2, 301728, Note_on_c, 0, 52, 110
2, 301820, Note_off_c, 0, 46, 100
2, 301820, Note_off_c, 0, 43, 100
2, 301824, Note_on_c, 0, 46, 110
2, 301824, Note_on_c, 0, 43, 110
2, 301916, Note_off_c, 0, 52, 100
2, 301920, Note_on_c, 0, 52, 110
2, 302012, Note_off_c, 0, 46, 100
2, 302012, Note_off_c, 0, 43, 100
2, 302016, Note_on_c, 0, 46, 110
2, 302016, Note_on_c, 0, 43, 110
2, 302108, Note_off_c, 0, 52, 100
2, 302112, Note_on_c, 0, 52, 110
2, 302204, Note_off_c, 0, 46, 100
2, 302204, Note_off_c, 0, 43, 100
2, 302208, Note_on_c, 0, 46, 110
2, 302208, Note_on_c, 0, 43, 110
2, 302300, Note_off_c, 0, 52, 100
2, 302304, Note_on_c, 0, 52, 110
2, 302396, Note_off_c, 0, 46, 100
2, 302396, Note_off_c, 0, 43, 100
2, 302400, Note_on_c, 0, 46, 110
2, 302400, Note_on_c, 0, 43, 110
2, 302492, Note_off_c, 0, 52, 100
2, 302496, Note_on_c, 0, 52, 110
2, 302588, Note_off_c, 0, 46, 100
2, 302588, Note_off_c, 0, 43, 100
2, 302592, Note_on_c, 0, 46, 110
2, 302592, Note_on_c, 0, 43, 110
2, 302684, Note_off_c, 0, 52, 100
2, 302688, Note_on_c, 0, 52, 110
2, 302780, Note_off_c, 0, 46, 100
2, 302780, Note_off_c, 0, 43, 100
2, 302784, Note_on_c, 0, 46, 110
2, 302784, Note_on_c, 0, 43, 110
2, 302876, Note_off_c, 0, 52, 100
2, 302880, Note_on_c, 0, 52, 110
2, 302972, Note_off_c, 0, 46, 100
2, 302972, Note_off_c, 0, 43, 100
2, 302976, Note_on_c, 0, 46, 110
2, 302976, Note_on_c, 0, 43, 110
2, 303068, Note_off_c, 0, 52, 100
2, 303072, Note_on_c, 0, 52, 110
2, 303164, Note_off_c, 0, 46, 100
2, 303164, Note_off_c, 0, 43, 100
2, 303168, Note_on_c, 0, 46, 110
2, 303168, Note_on_c, 0, 43, 110
2, 303260, Note_off_c, 0, 52, 100
2, 303264, Note_on_c, 0, 52, 110
2, 303356, Note_off_c, 0, 46, 100
2, 303356, Note_off_c, 0, 43, 100
2, 303360, Note_on_c, 0, 46, 110
2, 303360, Note_on_c, 0, 43, 110
2, 303452, Note_off_c, 0, 52, 100
2, 303456, Note_on_c, 0, 52, 110
2, 303548, Note_off_c, 0, 46, 100
2, 303548, Note_off_c, 0, 43, 100
2, 303552, Note_on_c, 0, 46, 110
2, 303552, Note_on_c, 0, 43, 110
2, 303644, Note_off_c, 0, 52, 100
2, 303648, Note_on_c, 0, 52, 110
2, 303740, Note_off_c, 0, 46, 100
2, 303740, Note_off_c, 0, 43, 100
2, 303744, Note_on_c, 0, 46, 110
2, 303744, Note_on_c, 0, 43, 110
2, 303836, Note_off_c, 0, 52, 100
2, 303840, Note_on_c, 0, 52, 110
2, 303932, Note_off_c, 0, 46, 100
2, 303932, Note_off_c, 0, 43, 100
2, 303936, Note_on_c, 0, 46, 110
2, 303936, Note_on_c, 0, 43, 110
2, 304028, Note_off_c, 0, 52, 100
2, 304032, Note_on_c, 0, 52, 110
2, 304124, Note_off_c, 0, 46, 100
2, 304124, Note_off_c, 0, 43, 100
2, 304128, Note_on_c, 0, 46, 110
2, 304128, Note_on_c, 0, 43, 110
2, 304220, Note_off_c, 0, 52, 100
2, 304224, Note_on_c, 0, 52, 110
2, 304316, Note_off_c, 0, 46, 100
2, 304316, Note_off_c, 0, 43, 100
2, 304320, Note_on_c, 0, 46, 110
2, 304320, Note_on_c, 0, 43, 110
2, 304412, Note_off_c, 0, 52, 100
2, 304416, Note_on_c, 0, 52, 110
2, 304508, Note_off_c, 0, 46, 100
2, 304508, Note_off_c, 0, 43, 100
2, 304512, Note_on_c, 0, 46, 110
2, 304512, Note_on_c, 0, 43, 110
2, 304604, Note_off_c, 0, 52, 100
2, 304608, Note_on_c, 0, 52, 110
2, 304700, Note_off_c, 0, 46, 100
2, 304700, Note_off_c, 0, 43, 100
2, 304704, Note_on_c, 0, 46, 110
2, 304704, Note_on_c, 0, 43, 110
2, 304796, Note_off_c, 0, 52, 100
2, 304800, Note_on_c, 0, 52, 110
2, 304892, Note_off_c, 0, 46, 100
2, 304892, Note_off_c, 0, 43, 100
2, 304896, Note_on_c, 0, 46, 110
2, 304896, Note_on_c, 0, 43, 110
2, 304988, Note_off_c, 0, 52, 100
2, 304992, Note_on_c, 0, 52, 110
2, 305084, Note_off_c, 0, 46, 100
2, 305084, Note_off_c, 0, 43, 100
2, 305088, Note_on_c, 0, 46, 110
2, 305088, Note_on_c, 0, 43, 110
2, 305180, Note_off_c, 0, 52, 100
2, 305184, Note_on_c, 0, 52, 110
2, 305276, Note_off_c, 0, 46, 100
2, 305276, Note_off_c, 0, 43, 100
2, 305280, Note_on_c, 0, 46, 110
2, 305280, Note_on_c, 0, 43, 110
2, 305372, Note_off_c, 0, 52, 100
2, 305376, Note_on_c, 0, 52, 110
2, 305468, Note_off_c, 0, 46, 100
2, 305468, Note_off_c, 0, 43, 100
2, 305472, Note_on_c, 0, 46, 110
2, 305472, Note_on_c, 0, 43, 110
2, 305564, Note_off_c, 0, 52, 100
2, 305568, Note_on_c, 0, 52, 110
2, 305660, Note_off_c, 0, 46, 100
2, 305660, Note_off_c, 0, 43, 100
2, 305664, Note_on_c, 0, 46, 110
2, 305664, Note_on_c, 0, 43, 110
2, 305756, Note_off_c, 0, 52, 100
2, 305760, Note_on_c, 0, 52, 110
2, 305852, Note_off_c, 0, 46, 100
2, 305852, Note_off_c, 0, 43, 100
2, 305856, Note_on_c, 0, 43, 110
2, 305856, Note_on_c, 0, 46, 110
2, 305948, Note_off_c, 0, 52, 100
2, 305952, Note_on_c, 0, 52, 110
2, 306044, Note_off_c, 0, 43, 100
2, 306044, Note_off_c, 0, 46, 100
2, 306048, Note_on_c, 0, 46, 110
2, 306048, Note_on_c, 0, 43, 110
2, 306140, Note_off_c, 0, 52, 100
2, 306144, Note_on_c, 0, 52, 110
2, 306236, Note_off_c, 0, 46, 100
2, 306236, Note_off_c, 0, 43, 100
2, 306240, Note_on_c, 0, 46, 110
2, 306240, Note_on_c, 0, 43, 110
2, 306332, Note_off_c, 0, 52, 100
2, 306336, Note_on_c, 0, 52, 110
2, 306428, Note_off_c, 0, 46, 100
2, 306428, Note_off_c, 0, 43, 100
2, 306432, Note_on_c, 0, 46, 110
2, 306432, Note_on_c, 0, 43, 110
2, 306524, Note_off_c, 0, 52, 100
2, 306528, Note_on_c, 0, 52, 110
2, 306620, Note_off_c, 0, 46, 100
2, 306620, Note_off_c, 0, 43, 100
2, 306624, Note_on_c, 0, 46, 110
2, 306624, Note_on_c, 0, 43, 110
2, 306716, Note_off_c, 0, 52, 100
2, 306720, Note_on_c, 0, 52, 110
2, 306812, Note_off_c, 0, 46, 100
2, 306812, Note_off_c, 0, 43, 100
2, 306816, Note_on_c, 0, 46, 110
2, 306816, Note_on_c, 0, 43, 110
2, 306908, Note_off_c, 0, 52, 100
2, 306912, Note_on_c, 0, 52, 110
2, 307004, Note_off_c, 0, 46, 100
2, 307004, Note_off_c, 0, 43, 100
2, 307004, Note_off_c, 0, 52, 100
2, 307008, Note_on_c, 0, 52, 110
2, 307008, Note_on_c, 0, 46, 110
2, 307008, Note_on_c, 0, 43, 110
2, 307388, Note_off_c, 0, 52, 100
2, 307388, Note_off_c, 0, 46, 100
2, 307388, Note_off_c, 0, 43, 100
2, 311040, Note_on_c, 0, 60, 70
2, 311040, Note_on_c, 0, 48, 70
2, 311516, Note_off_c, 0, 60, 100
2, 311516, Note_off_c, 0, 48, 100
2, 311520, Note_on_c, 0, 44, 70
2, 311520, Note_on_c, 0, 56, 70
2, 311612, Note_off_c, 0, 44, 100
2, 311612, Note_off_c, 0, 56, 100
2, 311616, Note_on_c, 0, 53, 70
2, 311616, Note_on_c, 0, 41, 70
2, 313340, Note_off_c, 0, 41, 100
2, 313340, Note_off_c, 0, 53, 100
2, 313344, Note_on_c, 0, 56, 70
2, 313344, Note_on_c, 0, 44, 70
2, 313820, Note_off_c, 0, 56, 100
2, 313820, Note_off_c, 0, 44, 100
2, 313824, Note_on_c, 0, 48, 70
2, 313824, Note_on_c, 0, 60, 70
2, 313916, Note_off_c, 0, 48, 100
2, 313916, Note_off_c, 0, 60, 100
2, 313920, Note_on_c, 0, 65, 70
2, 313920, Note_on_c, 0, 53, 70
2, 314492, Note_off_c, 0, 65, 100
2, 314492, Note_off_c, 0, 53, 100
2, 314496, Note_on_c, 0, 68, 70
2, 314496, Note_on_c, 0, 56, 70
2, 314972, Note_off_c, 0, 68, 100
2, 314972, Note_off_c, 0, 56, 100
2, 314976, Note_on_c, 0, 72, 70
2, 314976, Note_on_c, 0, 60, 70
2, 315068, Note_off_c, 0, 72, 100
2, 315068, Note_off_c, 0, 60, 100
2, 315072, Note_on_c, 0, 77, 70
2, 315072, Note_on_c, 0, 65, 70
2, 315644, Note_off_c, 0, 77, 100
2, 315644, Note_off_c, 0, 65, 100
2, 315648, Note_on_c, 0, 65, 70
2, 315648, Note_on_c, 0, 53, 70
2, 316220, Note_off_c, 0, 65, 100
2, 316220, Note_off_c, 0, 53, 100
2, 316224, Note_on_c, 0, 72, 70
2, 316224, Note_on_c, 0, 67, 70
2, 316224, Note_on_c, 0, 64, 70
2, 317180, Note_off_c, 0, 72, 100
2, 317184, Note_on_c, 0, 74, 70
2, 317372, Note_off_c, 0, 67, 100
2, 317372, Note_off_c, 0, 64, 100
2, 317372, Note_off_c, 0, 74, 100
2, 317376, Note_on_c, 0, 72, 70
2, 317376, Note_on_c, 0, 71, 70
2, 317376, Note_on_c, 0, 65, 70
2, 317424, Note_on_c, 0, 74, 70
2, 317464, Note_off_c, 0, 72, 100
2, 317472, Note_on_c, 0, 76, 70
2, 317512, Note_off_c, 0, 74, 100
2, 317520, Note_on_c, 0, 74, 70
2, 317560, Note_off_c, 0, 76, 100
2, 317568, Note_on_c, 0, 76, 70
2, 317608, Note_off_c, 0, 74, 100
2, 317616, Note_on_c, 0, 74, 70
2, 317656, Note_off_c, 0, 76, 100
2, 317664, Note_on_c, 0, 76, 70
2, 317704, Note_off_c, 0, 74, 100
2, 317712, Note_on_c, 0, 74, 70
2, 317752, Note_off_c, 0, 76, 100
2, 317760, Note_on_c, 0, 76, 70
2, 317800, Note_off_c, 0, 74, 100
2, 317808, Note_on_c, 0, 74, 70
2, 317848, Note_off_c, 0, 76, 100
2, 317856, Note_on_c, 0, 76, 70
2, 317896, Note_off_c, 0, 74, 100
2, 317904, Note_on_c, 0, 74, 70
2, 317944, Note_off_c, 0, 76, 100
2, 317952, Note_on_c, 0, 76, 70
2, 317992, Note_off_c, 0, 74, 100
2, 318000, Note_on_c, 0, 74, 70
2, 318040, Note_off_c, 0, 76, 100
2, 318048, Note_on_c, 0, 76, 70
2, 318088, Note_off_c, 0, 74, 100
2, 318096, Note_on_c, 0, 74, 70
2, 318136, Note_off_c, 0, 76, 100
2, 318144, Note_on_c, 0, 76, 70
2, 318184, Note_off_c, 0, 74, 100
2, 318192, Note_on_c, 0, 74, 70
2, 318232, Note_off_c, 0, 76, 100
2, 318240, Note_on_c, 0, 72, 70
2, 318280, Note_off_c, 0, 74, 100
2, 318328, Note_off_c, 0, 72, 100
2, 318336, Note_on_c, 0, 76, 70
2, 318428, Note_off_c, 0, 76, 100
2, 318432, Note_on_c, 0, 74, 70
2, 318524, Note_off_c, 0, 71, 100
2, 318524, Note_off_c, 0, 65, 100
2, 318524, Note_off_c, 0, 74, 100
2, 318528, Note_on_c, 0, 72, 70
2, 318528, Note_on_c, 0, 67, 70
2, 318528, Note_on_c, 0, 64, 70
2, 318908, Note_off_c, 0, 72, 100
2, 318908, Note_off_c, 0, 67, 100
2, 318908, Note_off_c, 0, 64, 100
2, 320256, Note_on_c, 0, 61, 70
2, 320256, Note_on_c, 0, 49, 70
2, 320732, Note_off_c, 0, 61, 100
2, 320732, Note_off_c, 0, 49, 100
2, 320736, Note_on_c, 0, 58, 70
2, 320736, Note_on_c, 0, 46, 70
2, 320828, Note_off_c, 0, 58, 100
2, 320828, Note_off_c, 0, 46, 100
2, 320832, Note_on_c, 0, 54, 70
2, 320832, Note_on_c, 0, 42, 70
2, 322556, Note_off_c, 0, 42, 100
2, 322556, Note_off_c, 0, 54, 100
2, 322560, Note_on_c, 0, 58, 70
2, 322560, Note_on_c, 0, 46, 70
2, 323036, Note_off_c, 0, 58, 100
2, 323036, Note_off_c, 0, 46, 100
2, 323040, Note_on_c, 0, 61, 70
2, 323040, Note_on_c, 0, 49, 70
2, 323132, Note_off_c, 0, 61, 100
2, 323132, Note_off_c, 0, 49, 100
2, 323136, Note_on_c, 0, 66, 70
2, 323136, Note_on_c, 0, 54, 70
2, 323708, Note_off_c, 0, 66, 100
2, 323708, Note_off_c, 0, 54, 100
2, 323712, Note_on_c, 0, 70, 70
2, 323712, Note_on_c, 0, 58, 70
2, 324188, Note_off_c, 0, 70, 100
2, 324188, Note_off_c, 0, 58, 100
2, 324192, Note_on_c, 0, 73, 70
2, 324192, Note_on_c, 0, 61, 70
2, 324284, Note_off_c, 0, 73, 100
2, 324284, Note_off_c, 0, 61, 100
2, 324288, Note_on_c, 0, 78, 70
2, 324288, Note_on_c, 0, 66, 70
2, 324860, Note_off_c, 0, 78, 100
2, 324860, Note_off_c, 0, 66, 100
2, 324864, Note_on_c, 0, 66, 70
2, 324864, Note_on_c, 0, 54, 70
2, 325436, Note_off_c, 0, 66, 100
2, 325436, Note_off_c, 0, 54, 100
2, 325440, Note_on_c, 0, 73, 70
2, 325440, Note_on_c, 0, 68, 70
2, 325440, Note_on_c, 0, 65, 70
2, 326396, Note_off_c, 0, 73, 100
2, 326400, Note_on_c, 0, 75, 70
2, 326588, Note_off_c, 0, 68, 100
2, 326588, Note_off_c, 0, 65, 100
2, 326588, Note_off_c, 0, 75, 100
2, 326592, Note_on_c, 0, 73, 70
2, 326592, Note_on_c, 0, 72, 70
2, 326592, Note_on_c, 0, 66, 70
2, 326640, Note_on_c, 0, 75, 70
2, 326680, Note_off_c, 0, 73, 100
2, 326688, Note_on_c, 0, 77, 70
2, 326728, Note_off_c, 0, 75, 100
2, 326736, Note_on_c, 0, 75, 70
2, 326776, Note_off_c, 0, 77, 100
2, 326784, Note_on_c, 0, 77, 70
2, 326824, Note_off_c, 0, 75, 100
2, 326832, Note_on_c, 0, 75, 70
2, 326872, Note_off_c, 0, 77, 100
2, 326880, Note_on_c, 0, 77, 70
2, 326920, Note_off_c, 0, 75, 100
2, 326928, Note_on_c, 0, 75, 70
2, 326968, Note_off_c, 0, 77, 100
2, 326976, Note_on_c, 0, 77, 70
2, 327016, Note_off_c, 0, 75, 100
2, 327024, Note_on_c, 0, 75, 70
2, 327064, Note_off_c, 0, 77, 100
2, 327072, Note_on_c, 0, 77, 70
2, 327112, Note_off_c, 0, 75, 100
2, 327120, Note_on_c, 0, 75, 70
2, 327160, Note_off_c, 0, 77, 100
2, 327168, Note_on_c, 0, 77, 70
2, 327208, Note_off_c, 0, 75, 100
2, 327216, Note_on_c, 0, 75, 70
2, 327256, Note_off_c, 0, 77, 100
2, 327264, Note_on_c, 0, 77, 70
2, 327304, Note_off_c, 0, 75, 100
2, 327312, Note_on_c, 0, 75, 70
2, 327352, Note_off_c, 0, 77, 100
2, 327360, Note_on_c, 0, 77, 70
2, 327400, Note_off_c, 0, 75, 100
2, 327408, Note_on_c, 0, 75, 70
2, 327448, Note_off_c, 0, 77, 100
2, 327456, Note_on_c, 0, 73, 70
2, 327496, Note_off_c, 0, 75, 100
2, 327548, Note_off_c, 0, 73, 100
2, 327552, Note_on_c, 0, 77, 70
2, 327644, Note_off_c, 0, 77, 100
2, 327648, Note_on_c, 0, 75, 70
2, 327740, Note_off_c, 0, 72, 100
2, 327740, Note_off_c, 0, 66, 100
2, 327740, Note_off_c, 0, 75, 100
2, 327744, Note_on_c, 0, 73, 70
2, 327744, Note_on_c, 0, 68, 70
2, 327744, Note_on_c, 0, 65, 70
2, 328124, Note_off_c, 0, 73, 100
2, 328124, Note_off_c, 0, 68, 100
2, 328124, Note_off_c, 0, 65, 100
2, 330048, Note_on_c, 0, 72, 70
2, 331004, Note_off_c, 0, 72, 100
2, 331008, Note_on_c, 0, 74, 70
2, 331196, Note_off_c, 0, 74, 100
2, 331200, Note_on_c, 0, 72, 70
2, 331248, Note_on_c, 0, 74, 70
2, 331288, Note_off_c, 0, 72, 100
2, 331296, Note_on_c, 0, 76, 70
2, 331336, Note_off_c, 0, 74, 100
2, 331344, Note_on_c, 0, 74, 70
2, 331384, Note_off_c, 0, 76, 100
2, 331392, Note_on_c, 0, 76, 70
2, 331432, Note_off_c, 0, 74, 100
2, 331440, Note_on_c, 0, 74, 70
2, 331480, Note_off_c, 0, 76, 100
2, 331488, Note_on_c, 0, 76, 70
2, 331528, Note_off_c, 0, 74, 100
2, 331536, Note_on_c, 0, 74, 70
2, 331576, Note_off_c, 0, 76, 100
2, 331584, Note_on_c, 0, 76, 70
2, 331624, Note_off_c, 0, 74, 100
2, 331632, Note_on_c, 0, 74, 70
2, 331672, Note_off_c, 0, 76, 100
2, 331680, Note_on_c, 0, 76, 70
2, 331720, Note_off_c, 0, 74, 100
2, 331728, Note_on_c, 0, 74, 70
2, 331768, Note_off_c, 0, 76, 100
2, 331776, Note_on_c, 0, 76, 70
2, 331816, Note_off_c, 0, 74, 100
2, 331824, Note_on_c, 0, 74, 70
2, 331864, Note_off_c, 0, 76, 100
2, 331872, Note_on_c, 0, 76, 70
2, 331912, Note_off_c, 0, 74, 100
2, 331920, Note_on_c, 0, 74, 70
2, 331960, Note_off_c, 0, 76, 100
2, 331968, Note_on_c, 0, 76, 70
2, 332008, Note_off_c, 0, 74, 100
2, 332016, Note_on_c, 0, 74, 70
2, 332056, Note_off_c, 0, 76, 100
2, 332064, Note_on_c, 0, 72, 70
2, 332104, Note_off_c, 0, 74, 100
2, 332152, Note_off_c, 0, 72, 100
2, 332160, Note_on_c, 0, 76, 70
2, 332252, Note_off_c, 0, 76, 100
2, 332256, Note_on_c, 0, 74, 70
2, 332348, Note_off_c, 0, 74, 100
2, 332352, Note_on_c, 0, 72, 70
2, 332732, Note_off_c, 0, 72, 100
2, 334656, Note_on_c, 0, 76, 70
2, 335612, Note_off_c, 0, 76, 100
2, 335616, Note_on_c, 0, 77, 70
2, 335804, Note_off_c, 0, 77, 100
2, 335808, Note_on_c, 0, 79, 70
2, 335856, Note_on_c, 0, 77, 70
2, 335896, Note_off_c, 0, 79, 100
2, 335904, Note_on_c, 0, 79, 70
2, 335944, Note_off_c, 0, 77, 100
2, 335952, Note_on_c, 0, 77, 70
2, 335992, Note_off_c, 0, 79, 100
2, 336000, Note_on_c, 0, 79, 70
2, 336040, Note_off_c, 0, 77, 100
2, 336048, Note_on_c, 0, 77, 70
2, 336088, Note_off_c, 0, 79, 100
2, 336096, Note_on_c, 0, 79, 70
2, 336136, Note_off_c, 0, 77, 100
2, 336144, Note_on_c, 0, 77, 70
2, 336184, Note_off_c, 0, 79, 100
2, 336192, Note_on_c, 0, 79, 70
2, 336232, Note_off_c, 0, 77, 100
2, 336240, Note_on_c, 0, 77, 70
2, 336280, Note_off_c, 0, 79, 100
2, 336288, Note_on_c, 0, 79, 70
2, 336328, Note_off_c, 0, 77, 100
2, 336336, Note_on_c, 0, 77, 70
2, 336376, Note_off_c, 0, 79, 100
2, 336384, Note_on_c, 0, 79, 70
2, 336424, Note_off_c, 0, 77, 100
2, 336432, Note_on_c, 0, 77, 70
2, 336472, Note_off_c, 0, 79, 100
2, 336480, Note_on_c, 0, 79, 70
2, 336520, Note_off_c, 0, 77, 100
2, 336528, Note_on_c, 0, 77, 70
2, 336568, Note_off_c, 0, 79, 100
2, 336576, Note_on_c, 0, 79, 70
2, 336616, Note_off_c, 0, 77, 100
2, 336624, Note_on_c, 0, 77, 70
2, 336664, Note_off_c, 0, 79, 100
2, 336672, Note_on_c, 0, 76, 70
2, 336712, Note_off_c, 0, 77, 100
2, 336764, Note_off_c, 0, 76, 100
2, 336768, Note_on_c, 0, 79, 70
2, 336860, Note_off_c, 0, 79, 100
2, 336864, Note_on_c, 0, 77, 70
2, 336956, Note_off_c, 0, 77, 100
2, 336960, Note_on_c, 0, 76, 70
2, 337340, Note_off_c, 0, 76, 100
2, 338688, Note_on_c, 0, 79, 70
2, 338688, Note_on_c, 0, 76, 70
2, 338876, Note_off_c, 0, 79, 100
2, 338876, Note_off_c, 0, 76, 100
2, 338880, Note_on_c, 0, 79, 70
2, 338880, Note_on_c, 0, 76, 70
2, 339068, Note_off_c, 0, 79, 100
2, 339068, Note_off_c, 0, 76, 100
2, 339072, Note_on_c, 0, 79, 70
2, 339072, Note_on_c, 0, 76, 70
2, 339260, Note_off_c, 0, 79, 100
2, 339260, Note_off_c, 0, 76, 100
2, 339264, Note_on_c, 0, 82, 70
2, 339264, Note_on_c, 0, 79, 70
2, 339644, Note_off_c, 0, 82, 100
2, 339644, Note_off_c, 0, 79, 100
2, 340992, Note_on_c, 0, 82, 78
2, 340992, Note_on_c, 0, 79, 78
2, 341180, Note_off_c, 0, 82, 100
2, 341180, Note_off_c, 0, 79, 100
2, 341184, Note_on_c, 0, 82, 79
2, 341184, Note_on_c, 0, 79, 79
2, 341372, Note_off_c, 0, 82, 100
2, 341372, Note_off_c, 0, 79, 100
2, 341376, Note_on_c, 0, 82, 79
2, 341376, Note_on_c, 0, 79, 79
2, 341564, Note_off_c, 0, 82, 100
2, 341564, Note_off_c, 0, 79, 100
2, 341568, Note_on_c, 0, 88, 80
2, 341664, Note_on_c, 0, 82, 81
2, 341756, Note_off_c, 0, 88, 100
2, 341760, Note_on_c, 0, 91, 82
2, 341852, Note_off_c, 0, 82, 100
2, 341856, Note_on_c, 0, 88, 83
2, 341948, Note_off_c, 0, 91, 100
2, 341952, Note_on_c, 0, 94, 84
2, 342044, Note_off_c, 0, 88, 100
2, 342048, Note_on_c, 0, 91, 86
2, 342140, Note_off_c, 0, 94, 100
2, 342144, Note_on_c, 0, 88, 87
2, 342236, Note_off_c, 0, 91, 100
2, 342240, Note_on_c, 0, 91, 88
2, 342332, Note_off_c, 0, 88, 100
2, 342336, Note_on_c, 0, 82, 89
2, 342428, Note_off_c, 0, 91, 100
2, 342432, Note_on_c, 0, 88, 91
2, 342524, Note_off_c, 0, 82, 100
2, 342528, Note_on_c, 0, 79, 92
2, 342620, Note_off_c, 0, 88, 100
2, 342624, Note_on_c, 0, 82, 93
2, 342716, Note_off_c, 0, 79, 100
2, 342720, Note_on_c, 0, 76, 94
2, 342812, Note_off_c, 0, 82, 100
2, 342816, Note_on_c, 0, 79, 96
2, 342908, Note_off_c, 0, 76, 100
2, 342912, Note_on_c, 0, 70, 97
2, 343004, Note_off_c, 0, 79, 100
2, 343008, Note_on_c, 0, 76, 98
2, 343100, Note_off_c, 0, 70, 100
2, 343104, Note_on_c, 0, 67, 99
2, 343196, Note_off_c, 0, 76, 100
2, 343200, Note_on_c, 0, 70, 101
2, 343292, Note_off_c, 0, 67, 100
2, 343296, Note_on_c, 0, 64, 102
2, 343388, Note_off_c, 0, 70, 100
2, 343392, Note_on_c, 0, 67, 103
2, 343484, Note_off_c, 0, 64, 100
2, 343488, Note_on_c, 0, 58, 104
2, 343580, Note_off_c, 0, 67, 100
2, 343584, Note_on_c, 0, 64, 106
2, 343676, Note_off_c, 0, 58, 100
2, 343680, Note_on_c, 0, 55, 107
2, 343772, Note_off_c, 0, 64, 100
2, 343776, Note_on_c, 0, 58, 108
2, 343868, Note_off_c, 0, 55, 100
2, 343872, Note_on_c, 0, 52, 110
2, 343964, Note_off_c, 0, 58, 100
2, 343968, Note_on_c, 0, 55, 110
2, 344060, Note_off_c, 0, 52, 100
2, 344064, Note_on_c, 0, 46, 110
2, 344156, Note_off_c, 0, 55, 100
2, 344160, Note_on_c, 0, 52, 110
2, 344252, Note_off_c, 0, 46, 100
2, 344256, Note_on_c, 0, 43, 110
2, 344348, Note_off_c, 0, 52, 100
2, 344352, Note_on_c, 0, 46, 110
2, 344444, Note_off_c, 0, 43, 100
2, 344448, Note_on_c, 0, 49, 110
2, 344540, Note_off_c, 0, 46, 100
2, 344544, Note_on_c, 0, 46, 110
2, 344636, Note_off_c, 0, 49, 100
2, 344640, Note_on_c, 0, 52, 110
2, 344732, Note_off_c, 0, 46, 100
2, 344736, Note_on_c, 0, 49, 110
2, 344828, Note_off_c, 0, 52, 100
2, 344832, Note_on_c, 0, 55, 110
2, 344924, Note_off_c, 0, 49, 100
2, 344928, Note_on_c, 0, 52, 110
2, 345020, Note_off_c, 0, 55, 100
2, 345020, Note_off_c, 0, 52, 100
2, 345024, Note_on_c, 0, 58, 110
2, 345212, Note_off_c, 0, 58, 100
2, 345600, Note_on_c, 0, 61, 110
2, 345600, Note_on_c, 0, 56, 110
2, 345600, Note_on_c, 0, 49, 110
2, 345788, Note_off_c, 0, 61, 100
2, 345788, Note_off_c, 0, 56, 100
2, 345788, Note_off_c, 0, 49, 100
2, 346176, Note_on_c, 0, 60, 80
2, 346176, Note_on_c, 0, 55, 80
2, 346176, Note_on_c, 0, 52, 80
2, 347900, Note_off_c, 0, 52, 100
2, 347900, Note_off_c, 0, 55, 100
2, 347900, Note_off_c, 0, 60, 100
2, 347904, Note_on_c, 0, 60, 80
2, 348380, Note_off_c, 0, 60, 100
2, 348384, Note_on_c, 0, 57, 80
2, 348476, Note_off_c, 0, 57, 100
2, 348480, Note_on_c, 0, 53, 120
2, 348668, Note_off_c, 0, 53, 100
2, 348672, Note_on_c, 0, 65, 120
2, 348672, Note_on_c, 0, 60, 120
2, 348672, Note_on_c, 0, 57, 120
2, 348672, Note_on_c, 0, 53, 120
2, 349052, Note_off_c, 0, 65, 100
2, 349052, Note_off_c, 0, 60, 100
2, 349052, Note_off_c, 0, 57, 100
2, 349052, Note_off_c, 0, 53, 100
2, 349056, Note_on_c, 0, 69, 120
2, 349056, Note_on_c, 0, 65, 120
2, 349056, Note_on_c, 0, 60, 120
2, 349056, Note_on_c, 0, 57, 120
2, 349436, Note_off_c, 0, 69, 100
2, 349436, Note_off_c, 0, 65, 100
2, 349436, Note_off_c, 0, 60, 100
2, 349436, Note_off_c, 0, 57, 100
2, 349440, Note_on_c, 0, 72, 120
2, 349440, Note_on_c, 0, 69, 120
2, 349440, Note_on_c, 0, 65, 120
2, 349440, Note_on_c, 0, 60, 120
2, 349820, Note_off_c, 0, 60, 100
2, 349820, Note_off_c, 0, 65, 100
2, 349820, Note_off_c, 0, 69, 100
2, 349820, Note_off_c, 0, 72, 100
2, 349824, Note_on_c, 0, 77, 120
2, 349824, Note_on_c, 0, 72, 120
2, 349824, Note_on_c, 0, 69, 120
2, 349824, Note_on_c, 0, 65, 120
2, 350204, Note_off_c, 0, 77, 100
2, 350204, Note_off_c, 0, 72, 100
2, 350204, Note_off_c, 0, 69, 100
2, 350204, Note_off_c, 0, 65, 100
2, 350208, Note_on_c, 0, 81, 120
2, 350208, Note_on_c, 0, 77, 120
2, 350208, Note_on_c, 0, 72, 120
2, 350208, Note_on_c, 0, 69, 120
2, 350588, Note_off_c, 0, 81, 100
2, 350588, Note_off_c, 0, 77, 100
2, 350588, Note_off_c, 0, 72, 100
2, 350588, Note_off_c, 0, 69, 100
2, 350592, Note_on_c, 0, 84, 120
2, 350592, Note_on_c, 0, 81, 120
2, 350592, Note_on_c, 0, 77, 120
2, 350592, Note_on_c, 0, 72, 120
2, 350780, Note_off_c, 0, 84, 100
2, 350780, Note_off_c, 0, 81, 100
2, 350780, Note_off_c, 0, 77, 100
2, 350780, Note_off_c, 0, 72, 100
2, 350784, Note_on_c, 0, 89, 120
2, 350784, Note_on_c, 0, 84, 120
2, 350784, Note_on_c, 0, 81, 120
2, 350784, Note_on_c, 0, 77, 120
2, 352508, Note_off_c, 0, 77, 100
2, 352508, Note_off_c, 0, 81, 100
2, 352508, Note_off_c, 0, 84, 100
2, 352508, Note_off_c, 0, 89, 100
2, 352512, Note_on_c, 0, 57, 80
2, 352988, Note_off_c, 0, 57, 100
2, 352992, Note_on_c, 0, 60, 80
2, 353084, Note_off_c, 0, 60, 100
2, 353088, Note_on_c, 0, 65, 80
2, 353660, Note_off_c, 0, 65, 100
2, 353664, Note_on_c, 0, 69, 80
2, 354140, Note_off_c, 0, 69, 100
2, 354144, Note_on_c, 0, 72, 80
2, 354236, Note_off_c, 0, 72, 100
2, 354240, Note_on_c, 0, 77, 80
2, 354812, Note_off_c, 0, 77, 100
2, 354816, Note_on_c, 0, 65, 80
2, 355388, Note_off_c, 0, 65, 100
2, 355392, Note_on_c, 0, 60, 120
2, 355392, Note_on_c, 0, 55, 120
2, 355392, Note_on_c, 0, 52, 120
2, 355580, Note_off_c, 0, 60, 100
2, 355580, Note_off_c, 0, 55, 100
2, 355580, Note_off_c, 0, 52, 100
2, 355584, Note_on_c, 0, 64, 120
2, 355584, Note_on_c, 0, 60, 120
2, 355584, Note_on_c, 0, 55, 120
2, 355964, Note_off_c, 0, 64, 100
2, 355964, Note_off_c, 0, 60, 100
2, 355964, Note_off_c, 0, 55, 100
2, 355968, Note_on_c, 0, 67, 120
2, 355968, Note_on_c, 0, 64, 120
2, 355968, Note_on_c, 0, 60, 120
2, 356348, Note_off_c, 0, 67, 100
2, 356348, Note_off_c, 0, 64, 100
2, 356348, Note_off_c, 0, 60, 100
2, 356352, Note_on_c, 0, 72, 120
2, 356352, Note_on_c, 0, 67, 120
2, 356352, Note_on_c, 0, 64, 120
2, 356732, Note_off_c, 0, 64, 100
2, 356732, Note_off_c, 0, 67, 100
2, 356732, Note_off_c, 0, 72, 100
2, 356736, Note_on_c, 0, 76, 120
2, 356736, Note_on_c, 0, 72, 120
2, 356736, Note_on_c, 0, 67, 120
2, 357116, Note_off_c, 0, 76, 100
2, 357116, Note_off_c, 0, 72, 100
2, 357116, Note_off_c, 0, 67, 100
2, 357120, Note_on_c, 0, 79, 120
2, 357120, Note_on_c, 0, 76, 120
2, 357120, Note_on_c, 0, 72, 120
2, 357500, Note_off_c, 0, 79, 100
2, 357500, Note_off_c, 0, 76, 100
2, 357500, Note_off_c, 0, 72, 100
2, 357504, Note_on_c, 0, 84, 120
2, 357504, Note_on_c, 0, 79, 120
2, 357504, Note_on_c, 0, 76, 120
2, 357692, Note_off_c, 0, 84, 100
2, 357692, Note_off_c, 0, 79, 100
2, 357692, Note_off_c, 0, 76, 100
2, 357696, Note_on_c, 0, 72, 80
2, 358652, Note_off_c, 0, 72, 100
2, 358656, Note_on_c, 0, 74, 80
2, 358844, Note_off_c, 0, 74, 100
2, 358848, Note_on_c, 0, 76, 80
2, 358896, Note_on_c, 0, 74, 80
2, 358940, Note_off_c, 0, 76, 100
2, 358944, Note_on_c, 0, 76, 80
2, 358988, Note_off_c, 0, 74, 100
2, 358992, Note_on_c, 0, 74, 80
2, 359036, Note_off_c, 0, 76, 100
2, 359040, Note_on_c, 0, 76, 80
2, 359084, Note_off_c, 0, 74, 100
2, 359088, Note_on_c, 0, 74, 80
2, 359132, Note_off_c, 0, 76, 100
2, 359136, Note_on_c, 0, 76, 80
2, 359180, Note_off_c, 0, 74, 100
2, 359184, Note_on_c, 0, 74, 80
2, 359228, Note_off_c, 0, 76, 100
2, 359232, Note_on_c, 0, 76, 80
2, 359276, Note_off_c, 0, 74, 100
2, 359280, Note_on_c, 0, 74, 80
2, 359324, Note_off_c, 0, 76, 100
2, 359328, Note_on_c, 0, 76, 80
2, 359372, Note_off_c, 0, 74, 100
2, 359376, Note_on_c, 0, 74, 80
2, 359420, Note_off_c, 0, 76, 100
2, 359424, Note_on_c, 0, 76, 80
2, 359468, Note_off_c, 0, 74, 100
2, 359472, Note_on_c, 0, 74, 80
2, 359516, Note_off_c, 0, 76, 100
2, 359520, Note_on_c, 0, 76, 80
2, 359564, Note_off_c, 0, 74, 100
2, 359568, Note_on_c, 0, 74, 80
2, 359612, Note_off_c, 0, 76, 100
2, 359616, Note_on_c, 0, 76, 80
2, 359660, Note_off_c, 0, 74, 100
2, 359664, Note_on_c, 0, 74, 80
2, 359708, Note_off_c, 0, 76, 100
2, 359712, Note_on_c, 0, 72, 80
2, 359756, Note_off_c, 0, 74, 100
2, 359804, Note_off_c, 0, 72, 100
2, 359808, Note_on_c, 0, 76, 80
2, 359900, Note_off_c, 0, 76, 100
2, 359904, Note_on_c, 0, 74, 80
2, 359996, Note_off_c, 0, 74, 100
2, 360000, Note_on_c, 0, 60, 120
2, 360000, Note_on_c, 0, 55, 120
2, 360000, Note_on_c, 0, 52, 120
2, 360188, Note_off_c, 0, 60, 100
2, 360188, Note_off_c, 0, 55, 100
2, 360188, Note_off_c, 0, 52, 100
2, 360192, Note_on_c, 0, 64, 120
2, 360192, Note_on_c, 0, 60, 120
2, 360192, Note_on_c, 0, 55, 120
2, 360572, Note_off_c, 0, 64, 100
2, 360572, Note_off_c, 0, 60, 100
2, 360572, Note_off_c, 0, 55, 100
2, 360576, Note_on_c, 0, 67, 120
2, 360576, Note_on_c, 0, 64, 120
2, 360576, Note_on_c, 0, 60, 120
2, 360956, Note_off_c, 0, 67, 100
2, 360956, Note_off_c, 0, 64, 100
2, 360956, Note_off_c, 0, 60, 100
2, 360960, Note_on_c, 0, 72, 120
2, 360960, Note_on_c, 0, 67, 120
2, 360960, Note_on_c, 0, 64, 120
2, 361340, Note_off_c, 0, 64, 100
2, 361340, Note_off_c, 0, 67, 100
2, 361340, Note_off_c, 0, 72, 100
2, 361344, Note_on_c, 0, 76, 120
2, 361344, Note_on_c, 0, 72, 120
2, 361344, Note_on_c, 0, 67, 120
2, 361724, Note_off_c, 0, 76, 100
2, 361724, Note_off_c, 0, 72, 100
2, 361724, Note_off_c, 0, 67, 100
2, 361728, Note_on_c, 0, 79, 120
2, 361728, Note_on_c, 0, 76, 120
2, 361728, Note_on_c, 0, 72, 120
2, 362108, Note_off_c, 0, 79, 100
2, 362108, Note_off_c, 0, 76, 100
2, 362108, Note_off_c, 0, 72, 100
2, 362112, Note_on_c, 0, 84, 120
2, 362112, Note_on_c, 0, 79, 120
2, 362112, Note_on_c, 0, 76, 120
2, 362300, Note_off_c, 0, 84, 100
2, 362300, Note_off_c, 0, 79, 100
2, 362300, Note_off_c, 0, 76, 100
2, 362304, Note_on_c, 0, 72, 80
2, 363260, Note_off_c, 0, 72, 100
2, 363264, Note_on_c, 0, 74, 80
2, 363452, Note_off_c, 0, 74, 100
2, 363456, Note_on_c, 0, 76, 80
2, 363504, Note_on_c, 0, 74, 80
2, 363548, Note_off_c, 0, 76, 100
2, 363552, Note_on_c, 0, 76, 80
2, 363596, Note_off_c, 0, 74, 100
2, 363600, Note_on_c, 0, 74, 80
2, 363644, Note_off_c, 0, 76, 100
2, 363648, Note_on_c, 0, 76, 80
2, 363692, Note_off_c, 0, 74, 100
2, 363696, Note_on_c, 0, 74, 80
2, 363740, Note_off_c, 0, 76, 100
2, 363744, Note_on_c, 0, 76, 80
2, 363788, Note_off_c, 0, 74, 100
2, 363792, Note_on_c, 0, 74, 80
2, 363836, Note_off_c, 0, 76, 100
2, 363840, Note_on_c, 0, 76, 80
2, 363884, Note_off_c, 0, 74, 100
2, 363888, Note_on_c, 0, 74, 80
2, 363932, Note_off_c, 0, 76, 100
2, 363936, Note_on_c, 0, 76, 80
2, 363980, Note_off_c, 0, 74, 100
2, 363984, Note_on_c, 0, 74, 80
2, 364028, Note_off_c, 0, 76, 100
2, 364032, Note_on_c, 0, 76, 80
2, 364076, Note_off_c, 0, 74, 100
2, 364080, Note_on_c, 0, 74, 80
2, 364124, Note_off_c, 0, 76, 100
2, 364128, Note_on_c, 0, 76, 80
2, 364172, Note_off_c, 0, 74, 100
2, 364176, Note_on_c, 0, 74, 80
2, 364220, Note_off_c, 0, 76, 100
2, 364224, Note_on_c, 0, 76, 80
2, 364268, Note_off_c, 0, 74, 100
2, 364272, Note_on_c, 0, 74, 80
2, 364316, Note_off_c, 0, 76, 100
2, 364320, Note_on_c, 0, 76, 80
2, 364364, Note_off_c, 0, 74, 100
2, 364368, Note_on_c, 0, 74, 80
2, 364412, Note_off_c, 0, 76, 100
2, 364416, Note_on_c, 0, 72, 80
2, 364460, Note_off_c, 0, 74, 100
2, 364508, Note_off_c, 0, 72, 100
2, 364512, Note_on_c, 0, 74, 80
2, 364604, Note_off_c, 0, 74, 100
2, 364608, Note_on_c, 0, 64, 120
2, 364608, Note_on_c, 0, 58, 120
2, 364608, Note_on_c, 0, 55, 120
2, 364796, Note_off_c, 0, 64, 100
2, 364796, Note_off_c, 0, 58, 100
2, 364796, Note_off_c, 0, 55, 100
2, 364800, Note_on_c, 0, 67, 120
2, 364800, Note_on_c, 0, 64, 120
2, 364800, Note_on_c, 0, 58, 120
2, 365180, Note_off_c, 0, 67, 100
2, 365180, Note_off_c, 0, 64, 100
2, 365180, Note_off_c, 0, 58, 100
2, 365184, Note_on_c, 0, 70, 120
2, 365184, Note_on_c, 0, 67, 120
2, 365184, Note_on_c, 0, 64, 120
2, 365564, Note_off_c, 0, 70, 100
2, 365564, Note_off_c, 0, 67, 100
2, 365564, Note_off_c, 0, 64, 100
2, 365568, Note_on_c, 0, 76, 120
2, 365568, Note_on_c, 0, 70, 120
2, 365568, Note_on_c, 0, 67, 120
2, 365948, Note_off_c, 0, 67, 100
2, 365948, Note_off_c, 0, 70, 100
2, 365948, Note_off_c, 0, 76, 100
2, 365952, Note_on_c, 0, 79, 120
2, 365952, Note_on_c, 0, 76, 120
2, 365952, Note_on_c, 0, 70, 120
2, 366332, Note_off_c, 0, 79, 100
2, 366332, Note_off_c, 0, 76, 100
2, 366332, Note_off_c, 0, 70, 100
2, 366336, Note_on_c, 0, 82, 120
2, 366336, Note_on_c, 0, 79, 120
2, 366336, Note_on_c, 0, 76, 120
2, 366716, Note_off_c, 0, 82, 100
2, 366716, Note_off_c, 0, 79, 100
2, 366716, Note_off_c, 0, 76, 100
2, 366720, Note_on_c, 0, 88, 120
2, 366720, Note_on_c, 0, 82, 120
2, 366720, Note_on_c, 0, 79, 120
2, 366908, Note_off_c, 0, 88, 100
2, 366908, Note_off_c, 0, 82, 100
2, 366908, Note_off_c, 0, 79, 100
2, 366912, Note_on_c, 0, 76, 80
2, 367868, Note_off_c, 0, 76, 100
2, 367872, Note_on_c, 0, 77, 80
2, 368060, Note_off_c, 0, 77, 100
2, 368064, Note_on_c, 0, 79, 80
2, 368112, Note_on_c, 0, 77, 80
2, 368156, Note_off_c, 0, 79, 100
2, 368160, Note_on_c, 0, 79, 80
2, 368204, Note_off_c, 0, 77, 100
2, 368208, Note_on_c, 0, 77, 80
2, 368252, Note_off_c, 0, 79, 100
2, 368256, Note_on_c, 0, 79, 80
2, 368300, Note_off_c, 0, 77, 100
2, 368304, Note_on_c, 0, 77, 80
2, 368348, Note_off_c, 0, 79, 100
2, 368352, Note_on_c, 0, 79, 80
2, 368396, Note_off_c, 0, 77, 100
2, 368400, Note_on_c, 0, 77, 80
2, 368444, Note_off_c, 0, 79, 100
2, 368448, Note_on_c, 0, 79, 80
2, 368492, Note_off_c, 0, 77, 100
2, 368496, Note_on_c, 0, 77, 80
2, 368540, Note_off_c, 0, 79, 100
2, 368544, Note_on_c, 0, 79, 80
2, 368588, Note_off_c, 0, 77, 100
2, 368592, Note_on_c, 0, 77, 80
2, 368636, Note_off_c, 0, 79, 100
2, 368640, Note_on_c, 0, 79, 80
2, 368684, Note_off_c, 0, 77, 100
2, 368688, Note_on_c, 0, 77, 80
2, 368732, Note_off_c, 0, 79, 100
2, 368736, Note_on_c, 0, 79, 80
2, 368780, Note_off_c, 0, 77, 100
2, 368784, Note_on_c, 0, 77, 80
2, 368828, Note_off_c, 0, 79, 100
2, 368832, Note_on_c, 0, 79, 80
2, 368876, Note_off_c, 0, 77, 100
2, 368880, Note_on_c, 0, 77, 80
2, 368924, Note_off_c, 0, 79, 100
2, 368928, Note_on_c, 0, 79, 80
2, 368972, Note_off_c, 0, 77, 100
2, 368976, Note_on_c, 0, 77, 80
2, 369020, Note_off_c, 0, 79, 100
2, 369024, Note_on_c, 0, 79, 80
2, 369024, Note_on_c, 0, 76, 80
2, 369068, Note_off_c, 0, 77, 100
2, 369116, Note_off_c, 0, 79, 100
2, 369116, Note_off_c, 0, 76, 100
2, 369120, Note_on_c, 0, 77, 80
2, 369212, Note_off_c, 0, 77, 100
2, 369216, Note_on_c, 0, 67, 120
2, 369216, Note_on_c, 0, 63, 120
2, 369404, Note_off_c, 0, 67, 100
2, 369404, Note_off_c, 0, 63, 100
2, 369408, Note_on_c, 0, 76, 120
2, 369408, Note_on_c, 0, 73, 120
2, 369788, Note_off_c, 0, 76, 100
2, 369788, Note_off_c, 0, 73, 100
2, 369792, Note_on_c, 0, 79, 120
2, 369792, Note_on_c, 0, 76, 120
2, 370172, Note_off_c, 0, 79, 100
2, 370172, Note_off_c, 0, 76, 100
2, 370176, Note_on_c, 0, 82, 120
2, 370176, Note_on_c, 0, 79, 120
2, 370556, Note_off_c, 0, 79, 100
2, 370556, Note_off_c, 0, 82, 100
2, 370560, Note_on_c, 0, 85, 120
2, 370560, Note_on_c, 0, 82, 120
2, 370940, Note_off_c, 0, 85, 100
2, 370940, Note_off_c, 0, 82, 100
2, 370944, Note_on_c, 0, 88, 120
2, 370944, Note_on_c, 0, 85, 120
2, 371324, Note_off_c, 0, 88, 100
2, 371324, Note_off_c, 0, 85, 100
2, 371328, Note_on_c, 0, 91, 120
2, 371328, Note_on_c, 0, 88, 120
2, 371516, Note_off_c, 0, 91, 100
2, 371516, Note_off_c, 0, 88, 100
2, 371520, Note_on_c, 0, 79, 120
2, 371520, Note_on_c, 0, 76, 120
2, 372476, Note_off_c, 0, 79, 100
2, 372480, Note_on_c, 0, 80, 120
2, 372668, Note_off_c, 0, 76, 100
2, 372668, Note_off_c, 0, 80, 100
2, 372672, Note_on_c, 0, 82, 120
2, 372672, Note_on_c, 0, 77, 120
2, 372720, Note_on_c, 0, 80, 120
2, 372764, Note_off_c, 0, 82, 100
2, 372768, Note_on_c, 0, 82, 120
2, 372812, Note_off_c, 0, 80, 100
2, 372816, Note_on_c, 0, 80, 120
2, 372860, Note_off_c, 0, 82, 100
2, 372864, Note_on_c, 0, 82, 120
2, 372908, Note_off_c, 0, 80, 100
2, 372912, Note_on_c, 0, 80, 120
2, 372956, Note_off_c, 0, 82, 100
2, 372960, Note_on_c, 0, 82, 120
2, 373004, Note_off_c, 0, 80, 100
2, 373008, Note_on_c, 0, 80, 120
2, 373052, Note_off_c, 0, 82, 100
2, 373056, Note_on_c, 0, 82, 120
2, 373100, Note_off_c, 0, 80, 100
2, 373104, Note_on_c, 0, 80, 120
2, 373148, Note_off_c, 0, 82, 100
2, 373152, Note_on_c, 0, 82, 120
2, 373196, Note_off_c, 0, 80, 100
2, 373200, Note_on_c, 0, 80, 120
2, 373244, Note_off_c, 0, 82, 100
2, 373248, Note_on_c, 0, 82, 120
2, 373292, Note_off_c, 0, 80, 100
2, 373296, Note_on_c, 0, 80, 120
2, 373340, Note_off_c, 0, 82, 100
2, 373344, Note_on_c, 0, 82, 120
2, 373388, Note_off_c, 0, 80, 100
2, 373392, Note_on_c, 0, 80, 120
2, 373436, Note_off_c, 0, 82, 100
2, 373440, Note_on_c, 0, 82, 120
2, 373484, Note_off_c, 0, 80, 100
2, 373488, Note_on_c, 0, 80, 120
2, 373532, Note_off_c, 0, 82, 100
2, 373536, Note_on_c, 0, 79, 120
2, 373580, Note_off_c, 0, 80, 100
2, 373628, Note_off_c, 0, 79, 100
2, 373632, Note_on_c, 0, 82, 120
2, 373724, Note_off_c, 0, 82, 100
2, 373728, Note_on_c, 0, 80, 120
2, 373820, Note_off_c, 0, 77, 100
2, 373820, Note_off_c, 0, 80, 100
2, 373824, Note_on_c, 0, 79, 120
2, 373824, Note_on_c, 0, 76, 120
2, 374396, Note_off_c, 0, 79, 100
2, 374396, Note_off_c, 0, 76, 100
2, 376128, Note_on_c, 0, 80, 80
2, 376128, Note_on_c, 0, 77, 80
2, 376700, Note_off_c, 0, 80, 100
2, 376700, Note_off_c, 0, 77, 100
2, 378432, Note_on_c, 0, 85, 110
2, 378432, Note_on_c, 0, 80, 110
2, 378432, Note_on_c, 0, 77, 110
2, 380732, Note_off_c, 0, 77, 100
2, 380732, Note_off_c, 0, 80, 100
2, 380732, Note_off_c, 0, 85, 100
2, 380736, Note_on_c, 0, 84, 80
2, 380736, Note_on_c, 0, 79, 80
2, 380736, Note_on_c, 0, 76, 80
2, 381116, Note_off_c, 0, 84, 100
2, 381116, Note_off_c, 0, 79, 100
2, 381116, Note_off_c, 0, 76, 100
2, 382464, Note_on_c, 0, 79, 80
2, 382464, Note_on_c, 0, 76, 80
2, 382940, Note_off_c, 0, 79, 100
2, 382940, Note_off_c, 0, 76, 100
2, 382944, Note_on_c, 0, 79, 80
2, 382944, Note_on_c, 0, 76, 80
2, 383036, Note_off_c, 0, 79, 100
2, 383036, Note_off_c, 0, 76, 100
2, 383040, Note_on_c, 0, 80, 80
2, 383040, Note_on_c, 0, 77, 80
2, 383420, Note_off_c, 0, 80, 100
2, 383420, Note_off_c, 0, 77, 100
2, 383424, Note_on_c, 0, 79, 80
2, 383424, Note_on_c, 0, 76, 80
2, 383612, Note_off_c, 0, 79, 100
2, 383612, Note_off_c, 0, 76, 100
2, 384000, Note_on_c, 0, 67, 80
2, 384000, Note_on_c, 0, 64, 80
2, 384188, Note_off_c, 0, 67, 100
2, 384188, Note_off_c, 0, 64, 100
2, 384576, Note_on_c, 0, 55, 80
2, 384576, Note_on_c, 0, 52, 80
2, 384764, Note_off_c, 0, 55, 100
2, 384764, Note_off_c, 0, 52, 100
2, 385248, Note_on_c, 0, 79, 80
2, 385248, Note_on_c, 0, 76, 80
2, 385340, Note_off_c, 0, 79, 100
2, 385340, Note_off_c, 0, 76, 100
2, 385344, Note_on_c, 0, 82, 80
2, 385344, Note_on_c, 0, 79, 80
2, 385724, Note_off_c, 0, 82, 100
2, 385724, Note_off_c, 0, 79, 100
2, 385728, Note_on_c, 0, 80, 80
2, 385728, Note_on_c, 0, 77, 80
2, 385916, Note_off_c, 0, 80, 100
2, 385916, Note_off_c, 0, 77, 100
2, 386304, Note_on_c, 0, 68, 80
2, 386304, Note_on_c, 0, 65, 80
2, 386492, Note_off_c, 0, 68, 100
2, 386492, Note_off_c, 0, 65, 100
2, 386880, Note_on_c, 0, 56, 80
2, 386880, Note_on_c, 0, 53, 80
2, 387068, Note_off_c, 0, 56, 100
2, 387068, Note_off_c, 0, 53, 100
2, 387552, Note_on_c, 0, 80, 80
2, 387552, Note_on_c, 0, 77, 80
2, 387644, Note_off_c, 0, 80, 100
2, 387644, Note_off_c, 0, 77, 100
2, 387648, Note_on_c, 0, 85, 110
2, 387648, Note_on_c, 0, 80, 110
2, 387648, Note_on_c, 0, 77, 110
2, 389948, Note_off_c, 0, 77, 100
2, 389948, Note_off_c, 0, 80, 100
2, 389948, Note_off_c, 0, 85, 100
2, 389952, Note_on_c, 0, 84, 80
2, 389952, Note_on_c, 0, 79, 80
2, 389952, Note_on_c, 0, 76, 80
2, 390332, Note_off_c, 0, 84, 100
2, 390332, Note_off_c, 0, 79, 100
2, 390332, Note_off_c, 0, 76, 100
2, 391104, Note_on_c, 0, 72, 80
2, 391104, Note_on_c, 0, 66, 80
2, 391104, Note_on_c, 0, 63, 80
2, 392252, Note_off_c, 0, 72, 100
2, 392252, Note_off_c, 0, 66, 100
2, 392252, Note_off_c, 0, 63, 100
2, 392256, Note_on_c, 0, 71, 77
2, 392256, Note_on_c, 0, 65, 77
2, 392256, Note_on_c, 0, 62, 77
2, 392636, Note_off_c, 0, 71, 100
2, 392636, Note_off_c, 0, 65, 100
2, 392636, Note_off_c, 0, 62, 100
2, 393408, Note_on_c, 0, 70, 73
2, 393408, Note_on_c, 0, 65, 73
2, 393408, Note_on_c, 0, 61, 73
2, 393788, Note_off_c, 0, 70, 100
2, 393788, Note_off_c, 0, 65, 100
2, 393788, Note_off_c, 0, 61, 100
2, 394560, Note_on_c, 0, 68, 70
2, 394560, Note_on_c, 0, 65, 70
2, 394560, Note_on_c, 0, 60, 70
2, 395132, Note_off_c, 0, 68, 100
2, 395132, Note_off_c, 0, 65, 100
2, 395132, Note_off_c, 0, 60, 100
2, 396864, Note_on_c, 0, 55, 70
2, 396864, Note_on_c, 0, 52, 70
2, 396864, Note_on_c, 0, 48, 70
2, 396864, Note_on_c, 0, 46, 70
2, 397436, Note_off_c, 0, 55, 100
2, 397436, Note_off_c, 0, 52, 100
2, 397436, Note_off_c, 0, 48, 100
2, 397436, Note_off_c, 0, 46, 100
2, 400896, Note_on_c, 0, 57, 70
2, 400896, Note_on_c, 0, 45, 70
2, 401372, Note_off_c, 0, 57, 100
2, 401372, Note_off_c, 0, 45, 100
2, 401376, Note_on_c, 0, 60, 70
2, 401376, Note_on_c, 0, 48, 70
2, 401468, Note_off_c, 0, 60, 100
2, 401468, Note_off_c, 0, 48, 100
2, 401472, Note_on_c, 0, 65, 70
2, 401472, Note_on_c, 0, 53, 70
2, 402044, Note_off_c, 0, 65, 100
2, 402044, Note_off_c, 0, 53, 100
2, 402048, Note_on_c, 0, 69, 70
2, 402048, Note_on_c, 0, 57, 70
2, 402524, Note_off_c, 0, 69, 100
2, 402524, Note_off_c, 0, 57, 100
2, 402528, Note_on_c, 0, 65, 70
2, 402528, Note_on_c, 0, 53, 70
2, 402620, Note_off_c, 0, 65, 100
2, 402620, Note_off_c, 0, 53, 100
2, 402624, Note_on_c, 0, 64, 70
2, 402624, Note_on_c, 0, 52, 70
2, 403196, Note_off_c, 0, 64, 100
2, 403196, Note_off_c, 0, 52, 100
2, 403200, Note_on_c, 0, 67, 70
2, 403200, Note_on_c, 0, 55, 70
2, 403676, Note_off_c, 0, 67, 100
2, 403676, Note_off_c, 0, 55, 100
2, 403680, Note_on_c, 0, 64, 70
2, 403680, Note_on_c, 0, 52, 70
2, 403772, Note_off_c, 0, 64, 100
2, 403772, Note_off_c, 0, 52, 100
2, 403776, Note_on_c, 0, 65, 70
2, 403776, Note_on_c, 0, 53, 70
2, 404348, Note_off_c, 0, 65, 100
2, 404348, Note_off_c, 0, 53, 100
2, 404352, Note_on_c, 0, 60, 70
2, 404352, Note_on_c, 0, 48, 70
2, 405500, Note_off_c, 0, 48, 100
2, 405500, Note_off_c, 0, 60, 100
2, 405504, Note_on_c, 0, 62, 70
2, 405504, Note_on_c, 0, 50, 70
2, 405980, Note_off_c, 0, 62, 100
2, 405980, Note_off_c, 0, 50, 100
2, 405984, Note_on_c, 0, 58, 70
2, 405984, Note_on_c, 0, 46, 70
2, 406076, Note_off_c, 0, 58, 100
2, 406076, Note_off_c, 0, 46, 100
2, 406080, Note_on_c, 0, 57, 70
2, 406080, Note_on_c, 0, 45, 70
2, 406652, Note_off_c, 0, 57, 100
2, 406652, Note_off_c, 0, 45, 100
2, 406656, Note_on_c, 0, 60, 70
2, 406656, Note_on_c, 0, 48, 70
2, 407132, Note_off_c, 0, 60, 100
2, 407132, Note_off_c, 0, 48, 100
2, 407136, Note_on_c, 0, 57, 70
2, 407136, Note_on_c, 0, 45, 70
2, 407228, Note_off_c, 0, 57, 100
2, 407228, Note_off_c, 0, 45, 100
2, 407232, Note_on_c, 0, 55, 70
2, 407232, Note_on_c, 0, 43, 70
2, 407804, Note_off_c, 0, 55, 100
2, 407804, Note_off_c, 0, 43, 100
2, 407808, Note_on_c, 0, 60, 70
2, 407808, Note_on_c, 0, 48, 70
2, 408284, Note_off_c, 0, 60, 100
2, 408284, Note_off_c, 0, 48, 100
2, 408288, Note_on_c, 0, 58, 70
2, 408288, Note_on_c, 0, 46, 70
2, 408380, Note_off_c, 0, 58, 100
2, 408380, Note_off_c, 0, 46, 100
2, 408384, Note_on_c, 0, 57, 70
2, 408956, Note_off_c, 0, 57, 100
2, 408960, Note_on_c, 0, 60, 73
2, 410108, Note_off_c, 0, 60, 100
2, 410112, Note_on_c, 0, 57, 80
2, 410112, Note_on_c, 0, 69, 80
2, 410588, Note_off_c, 0, 57, 100
2, 410588, Note_off_c, 0, 69, 100
2, 410592, Note_on_c, 0, 72, 83
2, 410592, Note_on_c, 0, 60, 83
2, 410684, Note_off_c, 0, 72, 100
2, 410684, Note_off_c, 0, 60, 100
2, 410688, Note_on_c, 0, 77, 83
2, 410688, Note_on_c, 0, 65, 83
2, 411260, Note_off_c, 0, 77, 100
2, 411260, Note_off_c, 0, 65, 100
2, 411264, Note_on_c, 0, 81, 87
2, 411264, Note_on_c, 0, 69, 87
2, 411740, Note_off_c, 0, 81, 100
2, 411740, Note_off_c, 0, 69, 100
2, 411744, Note_on_c, 0, 77, 89
2, 411744, Note_on_c, 0, 65, 89
2, 411836, Note_off_c, 0, 77, 100
2, 411836, Note_off_c, 0, 65, 100
2, 411840, Note_on_c, 0, 76, 90
2, 411840, Note_on_c, 0, 64, 90
2, 412412, Note_off_c, 0, 76, 100
2, 412412, Note_off_c, 0, 64, 100
2, 412416, Note_on_c, 0, 79, 90
2, 412416, Note_on_c, 0, 67, 90
2, 412892, Note_off_c, 0, 79, 100
2, 412892, Note_off_c, 0, 67, 100
2, 412896, Note_on_c, 0, 76, 90
2, 412896, Note_on_c, 0, 64, 90
2, 412988, Note_off_c, 0, 76, 100
2, 412988, Note_off_c, 0, 64, 100
2, 412992, Note_on_c, 0, 77, 80
2, 412992, Note_on_c, 0, 65, 80
2, 413564, Note_off_c, 0, 77, 100
2, 413564, Note_off_c, 0, 65, 100
2, 413568, Note_on_c, 0, 72, 80
2, 413568, Note_on_c, 0, 60, 80
2, 415292, Note_off_c, 0, 60, 100
2, 415292, Note_off_c, 0, 72, 100
2, 415296, Note_on_c, 0, 73, 110
2, 415296, Note_on_c, 0, 61, 110
2, 415868, Note_off_c, 0, 73, 100
2, 415868, Note_off_c, 0, 61, 100
2, 415872, Note_on_c, 0, 70, 110
2, 415872, Note_on_c, 0, 58, 110
2, 417596, Note_off_c, 0, 58, 100
2, 417596, Note_off_c, 0, 70, 100
2, 417600, Note_on_c, 0, 68, 80
2, 419324, Note_off_c, 0, 68, 100
2, 419328, Note_on_c, 0, 67, 80
2, 419708, Note_off_c, 0, 67, 100
2, 419712, Note_on_c, 0, 65, 80
2, 419900, Note_off_c, 0, 65, 100
2, 419904, Note_on_c, 0, 67, 80
2, 419952, Note_on_c, 0, 68, 80
2, 419996, Note_off_c, 0, 67, 100
2, 420000, Note_on_c, 0, 67, 80
2, 420044, Note_off_c, 0, 68, 100
2, 420048, Note_on_c, 0, 68, 80
2, 420092, Note_off_c, 0, 67, 100
2, 420096, Note_on_c, 0, 67, 80
2, 420140, Note_off_c, 0, 68, 100
2, 420144, Note_on_c, 0, 68, 80
2, 420188, Note_off_c, 0, 67, 100
2, 420192, Note_on_c, 0, 67, 80
2, 420236, Note_off_c, 0, 68, 100
2, 420240, Note_on_c, 0, 68, 80
2, 420284, Note_off_c, 0, 67, 100
2, 420288, Note_on_c, 0, 67, 80
2, 420332, Note_off_c, 0, 68, 100
2, 420336, Note_on_c, 0, 68, 80
2, 420380, Note_off_c, 0, 67, 100
2, 420384, Note_on_c, 0, 67, 80
2, 420428, Note_off_c, 0, 68, 100
2, 420432, Note_on_c, 0, 68, 80
2, 420476, Note_off_c, 0, 67, 100
2, 420480, Note_on_c, 0, 67, 80
2, 420524, Note_off_c, 0, 68, 100
2, 420528, Note_on_c, 0, 68, 80
2, 420572, Note_off_c, 0, 67, 100
2, 420576, Note_on_c, 0, 67, 80
2, 420620, Note_off_c, 0, 68, 100
2, 420624, Note_on_c, 0, 68, 80
2, 420668, Note_off_c, 0, 67, 100
2, 420672, Note_on_c, 0, 67, 80
2, 420716, Note_off_c, 0, 68, 100
2, 420720, Note_on_c, 0, 68, 80
2, 420764, Note_off_c, 0, 67, 100
2, 420768, Note_on_c, 0, 67, 80
2, 420812, Note_off_c, 0, 68, 100
2, 420816, Note_on_c, 0, 68, 80
2, 420860, Note_off_c, 0, 67, 100
2, 420864, Note_on_c, 0, 67, 80
2, 420908, Note_off_c, 0, 68, 100
2, 420912, Note_on_c, 0, 68, 80
2, 420956, Note_off_c, 0, 67, 100
2, 420960, Note_on_c, 0, 67, 80
2, 421004, Note_off_c, 0, 68, 100
2, 421008, Note_on_c, 0, 68, 80
2, 421052, Note_off_c, 0, 67, 100
2, 421056, Note_on_c, 0, 67, 80
2, 421100, Note_off_c, 0, 68, 100
2, 421104, Note_on_c, 0, 68, 80
2, 421148, Note_off_c, 0, 67, 100
2, 421152, Note_on_c, 0, 67, 80
2, 421196, Note_off_c, 0, 68, 100
2, 421200, Note_on_c, 0, 68, 80
2, 421244, Note_off_c, 0, 67, 100
2, 421248, Note_on_c, 0, 67, 80
2, 421292, Note_off_c, 0, 68, 100
2, 421296, Note_on_c, 0, 68, 80
2, 421340, Note_off_c, 0, 67, 100
2, 421344, Note_on_c, 0, 67, 80
2, 421388, Note_off_c, 0, 68, 100
2, 421392, Note_on_c, 0, 68, 80
2, 421436, Note_off_c, 0, 67, 100
2, 421440, Note_on_c, 0, 67, 80
2, 421484, Note_off_c, 0, 68, 100
2, 421488, Note_on_c, 0, 68, 80
2, 421532, Note_off_c, 0, 67, 100
2, 421536, Note_on_c, 0, 67, 80
2, 421580, Note_off_c, 0, 68, 100
2, 421584, Note_on_c, 0, 68, 80
2, 421628, Note_off_c, 0, 67, 100
2, 421632, Note_on_c, 0, 67, 80
2, 421676, Note_off_c, 0, 68, 100
2, 421680, Note_on_c, 0, 68, 80
2, 421724, Note_off_c, 0, 67, 100
2, 421728, Note_on_c, 0, 67, 80
2, 421772, Note_off_c, 0, 68, 100
2, 421776, Note_on_c, 0, 68, 80
2, 421820, Note_off_c, 0, 67, 100
2, 421824, Note_on_c, 0, 67, 80
2, 421868, Note_off_c, 0, 68, 100
2, 421872, Note_on_c, 0, 68, 80
2, 421916, Note_off_c, 0, 67, 100
2, 421920, Note_on_c, 0, 67, 80
2, 421964, Note_off_c, 0, 68, 100
2, 421968, Note_on_c, 0, 68, 80
2, 422012, Note_off_c, 0, 67, 100
2, 422016, Note_on_c, 0, 67, 80
2, 422060, Note_off_c, 0, 68, 100
2, 422064, Note_on_c, 0, 68, 80
2, 422108, Note_off_c, 0, 67, 100
2, 422112, Note_on_c, 0, 67, 80
2, 422156, Note_off_c, 0, 68, 100
2, 422160, Note_on_c, 0, 68, 80
2, 422204, Note_off_c, 0, 67, 100
2, 422208, Note_on_c, 0, 73, 80
2, 422252, Note_off_c, 0, 68, 100
2, 422256, Note_on_c, 0, 72, 80
2, 422300, Note_off_c, 0, 73, 100
2, 422304, Note_on_c, 0, 73, 80
2, 422348, Note_off_c, 0, 72, 100
2, 422352, Note_on_c, 0, 72, 80
2, 422396, Note_off_c, 0, 73, 100
2, 422400, Note_on_c, 0, 73, 80
2, 422444, Note_off_c, 0, 72, 100
2, 422448, Note_on_c, 0, 72, 81
2, 422492, Note_off_c, 0, 73, 100
2, 422496, Note_on_c, 0, 73, 81
2, 422540, Note_off_c, 0, 72, 100
2, 422544, Note_on_c, 0, 72, 81
2, 422588, Note_off_c, 0, 73, 100
2, 422592, Note_on_c, 0, 73, 81
2, 422636, Note_off_c, 0, 72, 100
2, 422640, Note_on_c, 0, 72, 81
2, 422684, Note_off_c, 0, 73, 100
2, 422688, Note_on_c, 0, 73, 82
2, 422732, Note_off_c, 0, 72, 100
2, 422736, Note_on_c, 0, 72, 82
2, 422780, Note_off_c, 0, 73, 100
2, 422784, Note_on_c, 0, 73, 82
2, 422828, Note_off_c, 0, 72, 100
2, 422832, Note_on_c, 0, 72, 82
2, 422876, Note_off_c, 0, 73, 100
2, 422880, Note_on_c, 0, 73, 82
2, 422924, Note_off_c, 0, 72, 100
2, 422928, Note_on_c, 0, 72, 83
2, 422972, Note_off_c, 0, 73, 100
2, 422976, Note_on_c, 0, 73, 83
2, 423020, Note_off_c, 0, 72, 100
2, 423024, Note_on_c, 0, 72, 83
2, 423068, Note_off_c, 0, 73, 100
2, 423072, Note_on_c, 0, 73, 83
2, 423116, Note_off_c, 0, 72, 100
2, 423120, Note_on_c, 0, 72, 84
2, 423164, Note_off_c, 0, 73, 100
2, 423168, Note_on_c, 0, 73, 84
2, 423212, Note_off_c, 0, 72, 100
2, 423216, Note_on_c, 0, 72, 84
2, 423260, Note_off_c, 0, 73, 100
2, 423264, Note_on_c, 0, 73, 84
2, 423308, Note_off_c, 0, 72, 100
2, 423312, Note_on_c, 0, 72, 84
2, 423356, Note_off_c, 0, 73, 100
2, 423360, Note_on_c, 0, 73, 85
2, 423404, Note_off_c, 0, 72, 100
2, 423408, Note_on_c, 0, 72, 85
2, 423452, Note_off_c, 0, 73, 100
2, 423456, Note_on_c, 0, 73, 85
2, 423500, Note_off_c, 0, 72, 100
2, 423504, Note_on_c, 0, 72, 85
2, 423548, Note_off_c, 0, 73, 100
2, 423552, Note_on_c, 0, 73, 85
2, 423596, Note_off_c, 0, 72, 100
2, 423600, Note_on_c, 0, 72, 86
2, 423644, Note_off_c, 0, 73, 100
2, 423648, Note_on_c, 0, 73, 86
2, 423692, Note_off_c, 0, 72, 100
2, 423696, Note_on_c, 0, 72, 86
2, 423740, Note_off_c, 0, 73, 100
2, 423744, Note_on_c, 0, 73, 86
2, 423788, Note_off_c, 0, 72, 100
2, 423792, Note_on_c, 0, 72, 87
2, 423836, Note_off_c, 0, 73, 100
2, 423840, Note_on_c, 0, 73, 87
2, 423884, Note_off_c, 0, 72, 100
2, 423888, Note_on_c, 0, 72, 87
2, 423932, Note_off_c, 0, 73, 100
2, 423936, Note_on_c, 0, 73, 87
2, 423980, Note_off_c, 0, 72, 100
2, 423984, Note_on_c, 0, 72, 87
2, 424028, Note_off_c, 0, 73, 100
2, 424032, Note_on_c, 0, 73, 88
2, 424076, Note_off_c, 0, 72, 100
2, 424080, Note_on_c, 0, 72, 88
2, 424124, Note_off_c, 0, 73, 100
2, 424128, Note_on_c, 0, 73, 88
2, 424172, Note_off_c, 0, 72, 100
2, 424176, Note_on_c, 0, 72, 88
2, 424220, Note_off_c, 0, 73, 100
2, 424224, Note_on_c, 0, 73, 88
2, 424268, Note_off_c, 0, 72, 100
2, 424272, Note_on_c, 0, 72, 89
2, 424316, Note_off_c, 0, 73, 100
2, 424320, Note_on_c, 0, 73, 89
2, 424364, Note_off_c, 0, 72, 100
2, 424368, Note_on_c, 0, 72, 89
2, 424412, Note_off_c, 0, 73, 100
2, 424416, Note_on_c, 0, 71, 89
2, 424460, Note_off_c, 0, 72, 100
2, 424460, Note_off_c, 0, 71, 100
2, 424464, Note_on_c, 0, 72, 89
2, 424508, Note_off_c, 0, 72, 100
2, 424512, Note_on_c, 0, 85, 90
2, 424560, Note_on_c, 0, 84, 90
2, 424604, Note_off_c, 0, 85, 100
2, 424608, Note_on_c, 0, 85, 90
2, 424652, Note_off_c, 0, 84, 100
2, 424656, Note_on_c, 0, 84, 90
2, 424700, Note_off_c, 0, 85, 100
2, 424704, Note_on_c, 0, 85, 90
2, 424748, Note_off_c, 0, 84, 100
2, 424752, Note_on_c, 0, 84, 89
2, 424796, Note_off_c, 0, 85, 100
2, 424800, Note_on_c, 0, 85, 89
2, 424844, Note_off_c, 0, 84, 100
2, 424848, Note_on_c, 0, 84, 89
2, 424892, Note_off_c, 0, 85, 100
2, 424896, Note_on_c, 0, 85, 89
2, 424940, Note_off_c, 0, 84, 100
2, 424944, Note_on_c, 0, 84, 89
2, 424988, Note_off_c, 0, 85, 100
2, 424992, Note_on_c, 0, 85, 88
2, 425036, Note_off_c, 0, 84, 100
2, 425040, Note_on_c, 0, 84, 88
2, 425084, Note_off_c, 0, 85, 100
2, 425088, Note_on_c, 0, 85, 88
2, 425132, Note_off_c, 0, 84, 100
2, 425136, Note_on_c, 0, 84, 88
2, 425180, Note_off_c, 0, 85, 100
2, 425184, Note_on_c, 0, 85, 88
2, 425228, Note_off_c, 0, 84, 100
2, 425232, Note_on_c, 0, 84, 87
2, 425276, Note_off_c, 0, 85, 100
2, 425280, Note_on_c, 0, 85, 87
2, 425324, Note_off_c, 0, 84, 100
2, 425328, Note_on_c, 0, 84, 87
2, 425372, Note_off_c, 0, 85, 100
2, 425376, Note_on_c, 0, 85, 87
2, 425420, Note_off_c, 0, 84, 100
2, 425424, Note_on_c, 0, 84, 86
2, 425468, Note_off_c, 0, 85, 100
2, 425472, Note_on_c, 0, 85, 86
2, 425516, Note_off_c, 0, 84, 100
2, 425520, Note_on_c, 0, 84, 86
2, 425564, Note_off_c, 0, 85, 100
2, 425568, Note_on_c, 0, 85, 86
2, 425612, Note_off_c, 0, 84, 100
2, 425616, Note_on_c, 0, 84, 86
2, 425660, Note_off_c, 0, 85, 100
2, 425664, Note_on_c, 0, 85, 85
2, 425708, Note_off_c, 0, 84, 100
2, 425712, Note_on_c, 0, 84, 85
2, 425756, Note_off_c, 0, 85, 100
2, 425760, Note_on_c, 0, 85, 85
2, 425804, Note_off_c, 0, 84, 100
2, 425808, Note_on_c, 0, 84, 85
2, 425852, Note_off_c, 0, 85, 100
2, 425856, Note_on_c, 0, 85, 85
2, 425900, Note_off_c, 0, 84, 100
2, 425904, Note_on_c, 0, 84, 84
2, 425948, Note_off_c, 0, 85, 100
2, 425952, Note_on_c, 0, 85, 84
2, 425996, Note_off_c, 0, 84, 100
2, 426000, Note_on_c, 0, 84, 84
2, 426044, Note_off_c, 0, 85, 100
2, 426048, Note_on_c, 0, 85, 84
2, 426092, Note_off_c, 0, 84, 100
2, 426096, Note_on_c, 0, 84, 83
2, 426140, Note_off_c, 0, 85, 100
2, 426144, Note_on_c, 0, 85, 83
2, 426188, Note_off_c, 0, 84, 100
2, 426192, Note_on_c, 0, 84, 83
2, 426236, Note_off_c, 0, 85, 100
2, 426240, Note_on_c, 0, 85, 83
2, 426284, Note_off_c, 0, 84, 100
2, 426288, Note_on_c, 0, 84, 83
2, 426332, Note_off_c, 0, 85, 100
2, 426336, Note_on_c, 0, 85, 82
2, 426380, Note_off_c, 0, 84, 100
2, 426384, Note_on_c, 0, 84, 82
2, 426428, Note_off_c, 0, 85, 100
2, 426432, Note_on_c, 0, 85, 82
2, 426476, Note_off_c, 0, 84, 100
2, 426480, Note_on_c, 0, 84, 82
2, 426524, Note_off_c, 0, 85, 100
2, 426528, Note_on_c, 0, 85, 82
2, 426572, Note_off_c, 0, 84, 100
2, 426576, Note_on_c, 0, 84, 81
2, 426620, Note_off_c, 0, 85, 100
2, 426624, Note_on_c, 0, 85, 81
2, 426668, Note_off_c, 0, 84, 100
2, 426672, Note_on_c, 0, 84, 81
2, 426716, Note_off_c, 0, 85, 100
2, 426720, Note_on_c, 0, 83, 81
2, 426764, Note_off_c, 0, 84, 100
2, 426764, Note_off_c, 0, 83, 100
2, 426768, Note_on_c, 0, 84, 81
2, 426812, Note_off_c, 0, 84, 100
2, 426816, Note_on_c, 0, 85, 80
2, 427008, Note_on_c, 0, 84, 80
2, 427200, Note_on_c, 0, 82, 80
2, 427388, Note_off_c, 0, 85, 100
2, 427392, Note_on_c, 0, 80, 80
2, 427580, Note_off_c, 0, 84, 100
2, 427584, Note_on_c, 0, 79, 80
2, 427772, Note_off_c, 0, 82, 100
2, 427776, Note_on_c, 0, 78, 80
2, 427964, Note_off_c, 0, 80, 100
2, 427968, Note_on_c, 0, 77, 80
2, 428156, Note_off_c, 0, 79, 100
2, 428160, Note_on_c, 0, 76, 80
2, 428348, Note_off_c, 0, 78, 100
2, 428352, Note_on_c, 0, 75, 80
2, 428540, Note_off_c, 0, 77, 100
2, 428544, Note_on_c, 0, 73, 80
2, 428732, Note_off_c, 0, 76, 100
2, 428736, Note_on_c, 0, 72, 80
2, 428924, Note_off_c, 0, 75, 100
2, 428928, Note_on_c, 0, 70, 80
2, 429116, Note_off_c, 0, 73, 100
2, 429120, Note_on_c, 0, 68, 80
2, 429308, Note_off_c, 0, 72, 100
2, 429312, Note_on_c, 0, 67, 80
2, 429500, Note_off_c, 0, 70, 100
2, 429504, Note_on_c, 0, 66, 80
2, 429692, Note_off_c, 0, 68, 100
2, 429696, Note_on_c, 0, 65, 80
2, 429884, Note_off_c, 0, 67, 100
2, 429888, Note_on_c, 0, 64, 80
2, 430076, Note_off_c, 0, 66, 100
2, 430080, Note_on_c, 0, 63, 80
2, 430268, Note_off_c, 0, 65, 100
2, 430272, Note_on_c, 0, 61, 80
2, 430460, Note_off_c, 0, 64, 100
2, 430464, Note_on_c, 0, 60, 80
2, 430652, Note_off_c, 0, 63, 100
2, 430656, Note_on_c, 0, 58, 80
2, 430844, Note_off_c, 0, 61, 100
2, 430848, Note_on_c, 0, 56, 80
2, 431036, Note_off_c, 0, 60, 100
2, 431040, Note_on_c, 0, 55, 80
2, 431228, Note_off_c, 0, 58, 100
2, 431232, Note_on_c, 0, 54, 80
2, 431420, Note_off_c, 0, 56, 100
2, 431424, Note_on_c, 0, 53, 80
2, 431612, Note_off_c, 0, 55, 100
2, 431616, Note_on_c, 0, 52, 80
2, 431804, Note_off_c, 0, 54, 100
2, 431808, Note_on_c, 0, 51, 80
2, 431996, Note_off_c, 0, 53, 100
2, 432000, Note_on_c, 0, 49, 80
2, 432188, Note_off_c, 0, 52, 100
2, 432192, Note_on_c, 0, 48, 80
2, 432380, Note_off_c, 0, 51, 100
2, 432384, Note_on_c, 0, 46, 80
2, 432572, Note_off_c, 0, 49, 100
2, 432576, Note_on_c, 0, 44, 80
2, 432764, Note_off_c, 0, 48, 100
2, 432768, Note_on_c, 0, 43, 80
2, 432956, Note_off_c, 0, 46, 100
2, 432960, Note_on_c, 0, 42, 80
2, 433148, Note_off_c, 0, 44, 100
2, 433340, Note_off_c, 0, 43, 100
2, 433532, Note_off_c, 0, 42, 100
2, 436032, Note_on_c, 0, 53, 110
2, 436128, Note_on_c, 0, 48, 110
2, 436220, Note_off_c, 0, 53, 100
2, 436224, Note_on_c, 0, 44, 110
2, 436316, Note_off_c, 0, 48, 100
2, 436320, Note_on_c, 0, 48, 110
2, 436412, Note_off_c, 0, 44, 100
2, 436416, Note_on_c, 0, 53, 110
2, 436508, Note_off_c, 0, 48, 100
2, 436512, Note_on_c, 0, 48, 110
2, 436604, Note_off_c, 0, 53, 100
2, 436608, Note_on_c, 0, 56, 110
2, 436700, Note_off_c, 0, 48, 100
2, 436704, Note_on_c, 0, 48, 110
2, 436796, Note_off_c, 0, 56, 100
2, 436800, Note_on_c, 0, 55, 110
2, 436892, Note_off_c, 0, 48, 100
2, 436896, Note_on_c, 0, 48, 110
2, 436988, Note_off_c, 0, 55, 100
2, 436992, Note_on_c, 0, 53, 110
2, 437084, Note_off_c, 0, 48, 100
2, 437088, Note_on_c, 0, 48, 110
2, 437180, Note_off_c, 0, 53, 100
2, 437184, Note_on_c, 0, 53, 110
2, 437276, Note_off_c, 0, 48, 100
2, 437280, Note_on_c, 0, 48, 110
2, 437372, Note_off_c, 0, 53, 100
2, 437376, Note_on_c, 0, 44, 110
2, 437468, Note_off_c, 0, 48, 100
2, 437472, Note_on_c, 0, 48, 110
2, 437564, Note_off_c, 0, 44, 100
2, 437568, Note_on_c, 0, 53, 110
2, 437660, Note_off_c, 0, 48, 100
2, 437664, Note_on_c, 0, 48, 110
2, 437756, Note_off_c, 0, 53, 100
2, 437760, Note_on_c, 0, 56, 110
2, 437852, Note_off_c, 0, 48, 100
2, 437856, Note_on_c, 0, 48, 110
2, 437948, Note_off_c, 0, 56, 100
2, 437952, Note_on_c, 0, 55, 110
2, 438044, Note_off_c, 0, 48, 100
2, 438048, Note_on_c, 0, 48, 110
2, 438140, Note_off_c, 0, 55, 100
2, 438144, Note_on_c, 0, 53, 110
2, 438236, Note_off_c, 0, 48, 100
2, 438240, Note_on_c, 0, 48, 110
2, 438332, Note_off_c, 0, 53, 100
2, 438336, Note_on_c, 0, 61, 110
2, 438428, Note_off_c, 0, 48, 100
2, 438432, Note_on_c, 0, 56, 110
2, 438524, Note_off_c, 0, 61, 100
2, 438528, Note_on_c, 0, 53, 110
2, 438620, Note_off_c, 0, 56, 100
2, 438624, Note_on_c, 0, 56, 110
2, 438716, Note_off_c, 0, 53, 100
2, 438720, Note_on_c, 0, 61, 110
2, 438812, Note_off_c, 0, 56, 100
2, 438816, Note_on_c, 0, 56, 110
2, 438908, Note_off_c, 0, 61, 100
2, 438912, Note_on_c, 0, 65, 110
2, 439004, Note_off_c, 0, 56, 100
2, 439008, Note_on_c, 0, 56, 110
2, 439100, Note_off_c, 0, 65, 100
2, 439104, Note_on_c, 0, 63, 110
2, 439196, Note_off_c, 0, 56, 100
2, 439200, Note_on_c, 0, 56, 110
2, 439292, Note_off_c, 0, 63, 100
2, 439296, Note_on_c, 0, 61, 110
2, 439388, Note_off_c, 0, 56, 100
2, 439392, Note_on_c, 0, 56, 110
2, 439484, Note_off_c, 0, 61, 100
2, 439484, Note_off_c, 0, 56, 100
2, 439488, Note_on_c, 0, 61, 110
2, 439584, Note_on_c, 0, 56, 110
2, 439676, Note_off_c, 0, 61, 100
2, 439680, Note_on_c, 0, 53, 110
2, 439772, Note_off_c, 0, 56, 100
2, 439776, Note_on_c, 0, 56, 110
2, 439868, Note_off_c, 0, 53, 100
2, 439872, Note_on_c, 0, 61, 110
2, 439964, Note_off_c, 0, 56, 100
2, 439968, Note_on_c, 0, 56, 110
2, 440060, Note_off_c, 0, 61, 100
2, 440064, Note_on_c, 0, 65, 110
2, 440156, Note_off_c, 0, 56, 100
2, 440160, Note_on_c, 0, 56, 110
2, 440252, Note_off_c, 0, 65, 100
2, 440256, Note_on_c, 0, 63, 110
2, 440348, Note_off_c, 0, 56, 100
2, 440352, Note_on_c, 0, 56, 110
2, 440444, Note_off_c, 0, 63, 100
2, 440448, Note_on_c, 0, 61, 110
2, 440540, Note_off_c, 0, 56, 100
2, 440544, Note_on_c, 0, 56, 110
2, 440636, Note_off_c, 0, 61, 100
2, 440636, Note_off_c, 0, 56, 100
2, 440640, Note_on_c, 0, 70, 110
2, 440736, Note_on_c, 0, 73, 110
2, 440828, Note_off_c, 0, 70, 100
2, 440832, Note_on_c, 0, 70, 110
2, 440924, Note_off_c, 0, 73, 100
2, 440928, Note_on_c, 0, 73, 110
2, 441020, Note_off_c, 0, 70, 100
2, 441024, Note_on_c, 0, 70, 110
2, 441116, Note_off_c, 0, 73, 100
2, 441120, Note_on_c, 0, 73, 110
2, 441212, Note_off_c, 0, 70, 100
2, 441216, Note_on_c, 0, 70, 110
2, 441308, Note_off_c, 0, 73, 100
2, 441312, Note_on_c, 0, 73, 110
2, 441404, Note_off_c, 0, 70, 100
2, 441408, Note_on_c, 0, 70, 110
2, 441500, Note_off_c, 0, 73, 100
2, 441504, Note_on_c, 0, 73, 110
2, 441596, Note_off_c, 0, 70, 100
2, 441600, Note_on_c, 0, 70, 110
2, 441692, Note_off_c, 0, 73, 100
2, 441696, Note_on_c, 0, 73, 110
2, 441788, Note_off_c, 0, 70, 100
2, 441792, Note_on_c, 0, 70, 110
2, 441884, Note_off_c, 0, 73, 100
2, 441888, Note_on_c, 0, 73, 110
2, 441980, Note_off_c, 0, 70, 100
2, 441984, Note_on_c, 0, 70, 110
2, 442076, Note_off_c, 0, 73, 100
2, 442080, Note_on_c, 0, 73, 110
2, 442172, Note_off_c, 0, 70, 100
2, 442176, Note_on_c, 0, 70, 110
2, 442268, Note_off_c, 0, 73, 100
2, 442272, Note_on_c, 0, 73, 110
2, 442364, Note_off_c, 0, 70, 100
2, 442368, Note_on_c, 0, 70, 110
2, 442460, Note_off_c, 0, 73, 100
2, 442464, Note_on_c, 0, 73, 110
2, 442556, Note_off_c, 0, 70, 100
2, 442560, Note_on_c, 0, 67, 110
2, 442652, Note_off_c, 0, 73, 100
2, 442656, Note_on_c, 0, 70, 110
2, 442748, Note_off_c, 0, 67, 100
2, 442752, Note_on_c, 0, 64, 110
2, 442844, Note_off_c, 0, 70, 100
2, 442848, Note_on_c, 0, 67, 110
2, 442940, Note_off_c, 0, 64, 100
2, 442944, Note_on_c, 0, 61, 110
2, 443036, Note_off_c, 0, 67, 100
2, 443040, Note_on_c, 0, 64, 110
2, 443132, Note_off_c, 0, 61, 100
2, 443136, Note_on_c, 0, 58, 110
2, 443228, Note_off_c, 0, 64, 100
2, 443232, Note_on_c, 0, 61, 110
2, 443324, Note_off_c, 0, 58, 100
2, 443328, Note_on_c, 0, 55, 110
2, 443420, Note_off_c, 0, 61, 100
2, 443424, Note_on_c, 0, 58, 110
2, 443516, Note_off_c, 0, 55, 100
2, 443520, Note_on_c, 0, 53, 110
2, 443612, Note_off_c, 0, 58, 100
2, 443616, Note_on_c, 0, 55, 110
2, 443708, Note_off_c, 0, 53, 100
2, 443712, Note_on_c, 0, 58, 110
2, 443804, Note_off_c, 0, 55, 100
2, 443808, Note_on_c, 0, 55, 110
2, 443900, Note_off_c, 0, 58, 100
2, 443904, Note_on_c, 0, 53, 110
2, 443996, Note_off_c, 0, 55, 100
2, 444000, Note_on_c, 0, 55, 110
2, 444092, Note_off_c, 0, 53, 100
2, 444188, Note_off_c, 0, 55, 100
2, 444192, Note_on_c, 0, 53, 110
2, 444288, Note_on_c, 0, 58, 110
2, 444380, Note_off_c, 0, 53, 100
2, 444384, Note_on_c, 0, 55, 110
2, 444476, Note_off_c, 0, 58, 100
2, 444480, Note_on_c, 0, 53, 110
2, 444572, Note_off_c, 0, 55, 100
2, 444576, Note_on_c, 0, 58, 110
2, 444668, Note_off_c, 0, 53, 100
2, 444764, Note_off_c, 0, 58, 100
2, 444768, Note_on_c, 0, 52, 110
2, 444864, Note_on_c, 0, 58, 110
2, 444956, Note_off_c, 0, 52, 100
2, 444960, Note_on_c, 0, 55, 110
2, 445052, Note_off_c, 0, 58, 100
2, 445056, Note_on_c, 0, 52, 110
2, 445148, Note_off_c, 0, 55, 100
2, 445152, Note_on_c, 0, 58, 110
2, 445244, Note_off_c, 0, 52, 100
2, 445244, Note_off_c, 0, 58, 100
2, 445248, Note_on_c, 0, 65, 110
2, 445344, Note_on_c, 0, 60, 110
2, 445436, Note_off_c, 0, 65, 100
2, 445440, Note_on_c, 0, 56, 110
2, 445532, Note_off_c, 0, 60, 100
2, 445536, Note_on_c, 0, 60, 110
2, 445628, Note_off_c, 0, 56, 100
2, 445632, Note_on_c, 0, 65, 110
2, 445724, Note_off_c, 0, 60, 100
2, 445728, Note_on_c, 0, 60, 110
2, 445820, Note_off_c, 0, 65, 100
2, 445824, Note_on_c, 0, 68, 110
2, 445916, Note_off_c, 0, 60, 100
2, 445920, Note_on_c, 0, 60, 110
2, 446012, Note_off_c, 0, 68, 100
2, 446016, Note_on_c, 0, 67, 110
2, 446108, Note_off_c, 0, 60, 100
2, 446112, Note_on_c, 0, 60, 110
2, 446204, Note_off_c, 0, 67, 100
2, 446208, Note_on_c, 0, 65, 110
2, 446300, Note_off_c, 0, 60, 100
2, 446304, Note_on_c, 0, 60, 110
2, 446396, Note_off_c, 0, 65, 100
2, 446400, Note_on_c, 0, 65, 110
2, 446492, Note_off_c, 0, 60, 100
2, 446496, Note_on_c, 0, 60, 110
2, 446588, Note_off_c, 0, 65, 100
2, 446592, Note_on_c, 0, 56, 110
2, 446684, Note_off_c, 0, 60, 100
2, 446688, Note_on_c, 0, 60, 110
2, 446780, Note_off_c, 0, 56, 100
2, 446784, Note_on_c, 0, 65, 110
2, 446876, Note_off_c, 0, 60, 100
2, 446880, Note_on_c, 0, 60, 110
2, 446972, Note_off_c, 0, 65, 100
2, 446976, Note_on_c, 0, 68, 110
2, 447068, Note_off_c, 0, 60, 100
2, 447072, Note_on_c, 0, 60, 110
2, 447164, Note_off_c, 0, 68, 100
2, 447168, Note_on_c, 0, 67, 110
2, 447260, Note_off_c, 0, 60, 100
2, 447264, Note_on_c, 0, 60, 110
2, 447356, Note_off_c, 0, 67, 100
2, 447360, Note_on_c, 0, 65, 110
2, 447452, Note_off_c, 0, 60, 100
2, 447456, Note_on_c, 0, 60, 110
2, 447548, Note_off_c, 0, 65, 100
2, 447552, Note_on_c, 0, 73, 110
2, 447644, Note_off_c, 0, 60, 100
2, 447648, Note_on_c, 0, 68, 110
2, 447740, Note_off_c, 0, 73, 100
2, 447744, Note_on_c, 0, 65, 110
2, 447836, Note_off_c, 0, 68, 100
2, 447840, Note_on_c, 0, 68, 110
2, 447932, Note_off_c, 0, 65, 100
2, 447936, Note_on_c, 0, 73, 110
2, 448028, Note_off_c, 0, 68, 100
2, 448032, Note_on_c, 0, 68, 110
2, 448124, Note_off_c, 0, 73, 100
2, 448128, Note_on_c, 0, 77, 110
2, 448220, Note_off_c, 0, 68, 100
2, 448224, Note_on_c, 0, 68, 110
2, 448316, Note_off_c, 0, 77, 100
2, 448320, Note_on_c, 0, 75, 110
2, 448412, Note_off_c, 0, 68, 100
2, 448416, Note_on_c, 0, 68, 110
2, 448508, Note_off_c, 0, 75, 100
2, 448512, Note_on_c, 0, 73, 110
2, 448604, Note_off_c, 0, 68, 100
2, 448608, Note_on_c, 0, 68, 110
2, 448700, Note_off_c, 0, 73, 100
2, 448700, Note_off_c, 0, 68, 100
2, 448704, Note_on_c, 0, 73, 110
2, 448800, Note_on_c, 0, 68, 110
2, 448892, Note_off_c, 0, 73, 100
2, 448896, Note_on_c, 0, 65, 110
2, 448988, Note_off_c, 0, 68, 100
2, 448992, Note_on_c, 0, 68, 110
2, 449084, Note_off_c, 0, 65, 100
2, 449088, Note_on_c, 0, 73, 110
2, 449180, Note_off_c, 0, 68, 100
2, 449184, Note_on_c, 0, 68, 110
2, 449276, Note_off_c, 0, 73, 100
2, 449280, Note_on_c, 0, 77, 110
2, 449372, Note_off_c, 0, 68, 100
2, 449376, Note_on_c, 0, 68, 110
2, 449468, Note_off_c, 0, 77, 100
2, 449472, Note_on_c, 0, 75, 110
2, 449564, Note_off_c, 0, 68, 100
2, 449568, Note_on_c, 0, 68, 110
2, 449660, Note_off_c, 0, 75, 100
2, 449664, Note_on_c, 0, 73, 110
2, 449756, Note_off_c, 0, 68, 100
2, 449760, Note_on_c, 0, 68, 110
2, 449852, Note_off_c, 0, 73, 100
2, 449852, Note_off_c, 0, 68, 100
2, 449856, Note_on_c, 0, 82, 110
2, 449952, Note_on_c, 0, 85, 110
2, 450044, Note_off_c, 0, 82, 100
2, 450048, Note_on_c, 0, 82, 110
2, 450140, Note_off_c, 0, 85, 100
2, 450144, Note_on_c, 0, 85, 110
2, 450236, Note_off_c, 0, 82, 100
2, 450240, Note_on_c, 0, 82, 110
2, 450332, Note_off_c, 0, 85, 100
2, 450336, Note_on_c, 0, 85, 110
2, 450428, Note_off_c, 0, 82, 100
2, 450432, Note_on_c, 0, 82, 110
2, 450524, Note_off_c, 0, 85, 100
2, 450528, Note_on_c, 0, 85, 110
2, 450620, Note_off_c, 0, 82, 100
2, 450624, Note_on_c, 0, 82, 110
2, 450716, Note_off_c, 0, 85, 100
2, 450720, Note_on_c, 0, 85, 110
2, 450812, Note_off_c, 0, 82, 100
2, 450816, Note_on_c, 0, 82, 110
2, 450908, Note_off_c, 0, 85, 100
2, 450912, Note_on_c, 0, 85, 110
2, 451004, Note_off_c, 0, 82, 100
2, 451008, Note_on_c, 0, 82, 110
2, 451100, Note_off_c, 0, 85, 100
2, 451104, Note_on_c, 0, 85, 110
2, 451196, Note_off_c, 0, 82, 100
2, 451200, Note_on_c, 0, 82, 110
2, 451292, Note_off_c, 0, 85, 100
2, 451296, Note_on_c, 0, 85, 110
2, 451388, Note_off_c, 0, 82, 100
2, 451392, Note_on_c, 0, 82, 110
2, 451484, Note_off_c, 0, 85, 100
2, 451488, Note_on_c, 0, 85, 110
2, 451580, Note_off_c, 0, 82, 100
2, 451584, Note_on_c, 0, 82, 110
2, 451676, Note_off_c, 0, 85, 100
2, 451680, Note_on_c, 0, 85, 110
2, 451772, Note_off_c, 0, 82, 100
2, 451776, Note_on_c, 0, 82, 110
2, 451868, Note_off_c, 0, 85, 100
2, 451872, Note_on_c, 0, 85, 110
2, 451964, Note_off_c, 0, 82, 100
2, 451968, Note_on_c, 0, 82, 110
2, 452060, Note_off_c, 0, 85, 100
2, 452064, Note_on_c, 0, 85, 110
2, 452156, Note_off_c, 0, 82, 100
2, 452160, Note_on_c, 0, 82, 110
2, 452252, Note_off_c, 0, 85, 100
2, 452256, Note_on_c, 0, 85, 110
2, 452348, Note_off_c, 0, 82, 100
2, 452352, Note_on_c, 0, 79, 110
2, 452444, Note_off_c, 0, 85, 100
2, 452448, Note_on_c, 0, 82, 110
2, 452540, Note_off_c, 0, 79, 100
2, 452544, Note_on_c, 0, 77, 110
2, 452636, Note_off_c, 0, 82, 100
2, 452640, Note_on_c, 0, 79, 110
2, 452732, Note_off_c, 0, 77, 100
2, 452736, Note_on_c, 0, 77, 110
2, 452828, Note_off_c, 0, 79, 100
2, 452832, Note_on_c, 0, 79, 110
2, 452924, Note_off_c, 0, 77, 100
2, 452928, Note_on_c, 0, 82, 110
2, 453020, Note_off_c, 0, 79, 100
2, 453024, Note_on_c, 0, 79, 110
2, 453116, Note_off_c, 0, 82, 100
2, 453120, Note_on_c, 0, 77, 110
2, 453212, Note_off_c, 0, 79, 100
2, 453216, Note_on_c, 0, 79, 110
2, 453308, Note_off_c, 0, 77, 100
2, 453312, Note_off_c, 0, 79, 100
2, 453408, Note_on_c, 0, 77, 110
2, 453504, Note_on_c, 0, 82, 110
2, 453596, Note_off_c, 0, 77, 100
2, 453600, Note_on_c, 0, 79, 110
2, 453692, Note_off_c, 0, 82, 100
2, 453696, Note_on_c, 0, 77, 110
2, 453788, Note_off_c, 0, 79, 100
2, 453792, Note_on_c, 0, 82, 110
2, 453884, Note_off_c, 0, 77, 100
2, 453980, Note_off_c, 0, 82, 100
2, 453984, Note_on_c, 0, 76, 110
2, 454080, Note_on_c, 0, 82, 110
2, 454172, Note_off_c, 0, 76, 100
2, 454176, Note_on_c, 0, 79, 110
2, 454268, Note_off_c, 0, 82, 100
2, 454272, Note_on_c, 0, 76, 110
2, 454364, Note_off_c, 0, 79, 100
2, 454368, Note_on_c, 0, 82, 110
2, 454460, Note_off_c, 0, 76, 100
2, 454556, Note_off_c, 0, 82, 100
2, 454560, Note_on_c, 0, 73, 110
2, 454656, Note_on_c, 0, 82, 110
2, 454748, Note_off_c, 0, 73, 100
2, 454752, Note_on_c, 0, 79, 110
2, 454844, Note_off_c, 0, 82, 100
2, 454848, Note_on_c, 0, 73, 110
2, 454940, Note_off_c, 0, 79, 100
2, 454944, Note_on_c, 0, 82, 110
2, 455036, Note_off_c, 0, 73, 100
2, 455132, Note_off_c, 0, 82, 100
2, 455136, Note_on_c, 0, 72, 110
2, 455232, Note_on_c, 0, 82, 110
2, 455324, Note_off_c, 0, 72, 100
2, 455328, Note_on_c, 0, 79, 110
2, 455420, Note_off_c, 0, 82, 100
2, 455424, Note_on_c, 0, 72, 110
2, 455516, Note_off_c, 0, 79, 100
2, 455520, Note_on_c, 0, 82, 110
2, 455612, Note_off_c, 0, 72, 100
2, 455708, Note_off_c, 0, 82, 100
2, 455712, Note_on_c, 0, 77, 110
2, 455808, Note_on_c, 0, 82, 110
2, 455900, Note_off_c, 0, 77, 100
2, 455904, Note_on_c, 0, 79, 110
2, 455996, Note_off_c, 0, 82, 100
2, 456000, Note_on_c, 0, 77, 110
2, 456092, Note_off_c, 0, 79, 100
2, 456096, Note_on_c, 0, 82, 110
2, 456188, Note_off_c, 0, 77, 100
2, 456284, Note_off_c, 0, 82, 100
2, 456288, Note_on_c, 0, 76, 110
2, 456384, Note_on_c, 0, 82, 110
2, 456476, Note_off_c, 0, 76, 100
2, 456480, Note_on_c, 0, 79, 110
2, 456572, Note_off_c, 0, 82, 100
2, 456576, Note_on_c, 0, 76, 110
2, 456668, Note_off_c, 0, 79, 100
2, 456672, Note_on_c, 0, 82, 110
2, 456764, Note_off_c, 0, 76, 100
2, 456764, Note_off_c, 0, 82, 100
2, 457152, Note_on_c, 0, 83, 120
2, 457248, Note_on_c, 0, 86, 120
2, 457340, Note_off_c, 0, 83, 100
2, 457344, Note_on_c, 0, 89, 120
2, 457436, Note_off_c, 0, 86, 100
2, 457440, Note_on_c, 0, 86, 120
2, 457532, Note_off_c, 0, 89, 100
2, 457536, Note_on_c, 0, 83, 120
2, 457628, Note_off_c, 0, 86, 100
2, 457632, Note_on_c, 0, 92, 120
2, 457724, Note_off_c, 0, 83, 100
2, 457728, Note_on_c, 0, 91, 120
2, 457820, Note_off_c, 0, 92, 100
2, 457824, Note_on_c, 0, 89, 120
2, 457916, Note_off_c, 0, 91, 100
2, 457920, Note_on_c, 0, 88, 120
2, 458012, Note_off_c, 0, 89, 100
2, 458016, Note_on_c, 0, 91, 120
2, 458108, Note_off_c, 0, 88, 100
2, 458112, Note_on_c, 0, 89, 120
2, 458204, Note_off_c, 0, 91, 100
2, 458208, Note_on_c, 0, 88, 120
2, 458300, Note_off_c, 0, 89, 100
2, 458304, Note_on_c, 0, 85, 120
2, 458396, Note_off_c, 0, 88, 100
2, 458400, Note_on_c, 0, 84, 120
2, 458492, Note_off_c, 0, 85, 100
2, 458496, Note_on_c, 0, 82, 120
2, 458588, Note_off_c, 0, 84, 100
2, 458592, Note_on_c, 0, 85, 120
2, 458684, Note_off_c, 0, 82, 100
2, 458688, Note_on_c, 0, 84, 120
2, 458780, Note_off_c, 0, 85, 100
2, 458784, Note_on_c, 0, 82, 120
2, 458876, Note_off_c, 0, 84, 100
2, 458880, Note_on_c, 0, 80, 120
2, 458972, Note_off_c, 0, 82, 100
2, 458976, Note_on_c, 0, 79, 120
2, 459068, Note_off_c, 0, 80, 100
2, 459068, Note_off_c, 0, 79, 100
2, 459168, Note_on_c, 0, 77, 80
2, 459264, Note_on_c, 0, 80, 80
2, 459356, Note_off_c, 0, 77, 100
2, 459360, Note_on_c, 0, 84, 80
2, 459452, Note_off_c, 0, 80, 100
2, 459456, Note_on_c, 0, 89, 80
2, 459548, Note_off_c, 0, 84, 100
2, 459552, Note_on_c, 0, 77, 80
2, 459644, Note_off_c, 0, 89, 100
2, 459740, Note_off_c, 0, 77, 100
2, 459936, Note_on_c, 0, 89, 80
2, 460032, Note_on_c, 0, 77, 80
2, 460124, Note_off_c, 0, 89, 99
2, 460128, Note_on_c, 0, 89, 80
2, 460220, Note_off_c, 0, 77, 100
2, 460316, Note_off_c, 0, 89, 100
2, 460512, Note_on_c, 0, 89, 80
2, 460608, Note_on_c, 0, 77, 80
2, 460700, Note_off_c, 0, 89, 99
2, 460704, Note_on_c, 0, 89, 80
2, 460796, Note_off_c, 0, 77, 100
2, 460892, Note_off_c, 0, 89, 100
2, 461088, Note_on_c, 0, 88, 100
2, 461184, Note_on_c, 0, 76, 100
2, 461276, Note_off_c, 0, 88, 100
2, 461280, Note_on_c, 0, 88, 100
2, 461372, Note_off_c, 0, 76, 100
2, 461468, Note_off_c, 0, 88, 100
2, 461472, Note_on_c, 0, 77, 80
2, 461568, Note_on_c, 0, 80, 80
2, 461660, Note_off_c, 0, 77, 100
2, 461664, Note_on_c, 0, 84, 80
2, 461756, Note_off_c, 0, 80, 100
2, 461760, Note_on_c, 0, 89, 80
2, 461852, Note_off_c, 0, 84, 100
2, 461856, Note_on_c, 0, 77, 80
2, 461948, Note_off_c, 0, 89, 100
2, 462044, Note_off_c, 0, 77, 100
2, 462240, Note_on_c, 0, 77, 80
2, 462336, Note_on_c, 0, 65, 80
2, 462428, Note_off_c, 0, 77, 99
2, 462432, Note_on_c, 0, 77, 80
2, 462524, Note_off_c, 0, 65, 100
2, 462620, Note_off_c, 0, 77, 100
2, 462816, Note_on_c, 0, 77, 80
2, 462912, Note_on_c, 0, 65, 80
2, 463004, Note_off_c, 0, 77, 99
2, 463008, Note_on_c, 0, 77, 80
2, 463100, Note_off_c, 0, 65, 100
2, 463196, Note_off_c, 0, 77, 100
2, 463392, Note_on_c, 0, 76, 100
2, 463488, Note_on_c, 0, 64, 100
2, 463580, Note_off_c, 0, 76, 100
2, 463584, Note_on_c, 0, 76, 100
2, 463676, Note_off_c, 0, 64, 100
2, 463772, Note_off_c, 0, 76, 100
2, 463776, Note_on_c, 0, 77, 80
2, 463872, Note_on_c, 0, 80, 80
2, 463964, Note_off_c, 0, 77, 100
2, 463968, Note_on_c, 0, 84, 80
2, 464060, Note_off_c, 0, 80, 100
2, 464064, Note_on_c, 0, 89, 80
2, 464156, Note_off_c, 0, 84, 100
2, 464160, Note_on_c, 0, 77, 80
2, 464252, Note_off_c, 0, 89, 100
2, 464544, Note_on_c, 0, 89, 80
2, 464636, Note_off_c, 0, 77, 100
2, 464640, Note_on_c, 0, 77, 80
2, 464732, Note_off_c, 0, 89, 99
2, 464736, Note_on_c, 0, 89, 80
2, 464828, Note_off_c, 0, 77, 100
2, 464924, Note_off_c, 0, 89, 100
2, 465120, Note_on_c, 0, 89, 80
2, 465216, Note_on_c, 0, 77, 80
2, 465308, Note_off_c, 0, 89, 99
2, 465312, Note_on_c, 0, 89, 80
2, 465404, Note_off_c, 0, 77, 100
2, 465500, Note_off_c, 0, 89, 100
2, 465696, Note_on_c, 0, 88, 100
2, 465792, Note_on_c, 0, 76, 100
2, 465884, Note_off_c, 0, 88, 100
2, 465888, Note_on_c, 0, 88, 100
2, 465980, Note_off_c, 0, 76, 100
2, 465984, Note_on_c, 0, 89, 80
2, 466076, Note_off_c, 0, 88, 100
2, 466080, Note_on_c, 0, 84, 80
2, 466172, Note_off_c, 0, 89, 100
2, 466176, Note_on_c, 0, 80, 80
2, 466268, Note_off_c, 0, 84, 100
2, 466272, Note_on_c, 0, 84, 79
2, 466364, Note_off_c, 0, 80, 100
2, 466368, Note_on_c, 0, 89, 79
2, 466460, Note_off_c, 0, 84, 100
2, 466464, Note_on_c, 0, 84, 78
2, 466556, Note_off_c, 0, 89, 100
2, 466560, Note_on_c, 0, 80, 78
2, 466652, Note_off_c, 0, 84, 100
2, 466656, Note_on_c, 0, 84, 78
2, 466748, Note_off_c, 0, 80, 100
2, 466752, Note_on_c, 0, 89, 77
2, 466844, Note_off_c, 0, 84, 100
2, 466848, Note_on_c, 0, 84, 77
2, 466940, Note_off_c, 0, 89, 100
2, 466944, Note_on_c, 0, 80, 76
2, 467036, Note_off_c, 0, 84, 100
2, 467040, Note_on_c, 0, 84, 76
2, 467132, Note_off_c, 0, 80, 100
2, 467136, Note_on_c, 0, 89, 76
2, 467228, Note_off_c, 0, 84, 100
2, 467232, Note_on_c, 0, 84, 75
2, 467324, Note_off_c, 0, 89, 100
2, 467328, Note_on_c, 0, 80, 75
2, 467420, Note_off_c, 0, 84, 100
2, 467424, Note_on_c, 0, 84, 74
2, 467516, Note_off_c, 0, 80, 100
2, 467520, Note_on_c, 0, 89, 74
2, 467612, Note_off_c, 0, 84, 100
2, 467616, Note_on_c, 0, 84, 73
2, 467708, Note_off_c, 0, 89, 100
2, 467712, Note_on_c, 0, 89, 73
2, 467804, Note_off_c, 0, 84, 100
2, 467808, Note_on_c, 0, 84, 73
2, 467900, Note_off_c, 0, 89, 100
2, 467904, Note_on_c, 0, 89, 72
2, 467996, Note_off_c, 0, 84, 100
2, 468000, Note_on_c, 0, 84, 72
2, 468092, Note_off_c, 0, 89, 100
2, 468096, Note_on_c, 0, 89, 71
2, 468188, Note_off_c, 0, 84, 100
2, 468192, Note_on_c, 0, 84, 70
2, 468284, Note_off_c, 0, 89, 100
2, 468288, Note_on_c, 0, 89, 70
2, 468380, Note_off_c, 0, 84, 100
2, 468384, Note_on_c, 0, 84, 70
2, 468476, Note_off_c, 0, 89, 100
2, 468480, Note_on_c, 0, 80, 70
2, 468572, Note_off_c, 0, 84, 100
2, 468576, Note_on_c, 0, 84, 70
2, 468668, Note_off_c, 0, 80, 100
2, 468672, Note_on_c, 0, 89, 70
2, 468764, Note_off_c, 0, 84, 100
2, 468768, Note_on_c, 0, 84, 70
2, 468860, Note_off_c, 0, 89, 100
2, 468864, Note_on_c, 0, 80, 70
2, 468956, Note_off_c, 0, 84, 100
2, 468960, Note_on_c, 0, 84, 70
2, 469052, Note_off_c, 0, 80, 100
2, 469056, Note_on_c, 0, 89, 70
2, 469148, Note_off_c, 0, 84, 100
2, 469152, Note_on_c, 0, 84, 70
2, 469244, Note_off_c, 0, 89, 100
2, 469248, Note_on_c, 0, 80, 70
2, 469340, Note_off_c, 0, 84, 100
2, 469344, Note_on_c, 0, 84, 70
2, 469436, Note_off_c, 0, 80, 100
2, 469440, Note_on_c, 0, 89, 70
2, 469532, Note_off_c, 0, 84, 100
2, 469536, Note_on_c, 0, 84, 70
2, 469628, Note_off_c, 0, 89, 100
2, 469632, Note_on_c, 0, 80, 70
2, 469724, Note_off_c, 0, 84, 100
2, 469728, Note_on_c, 0, 84, 70
2, 469820, Note_off_c, 0, 80, 100
2, 469824, Note_on_c, 0, 89, 70
2, 469916, Note_off_c, 0, 84, 100
2, 469920, Note_on_c, 0, 84, 70
2, 470012, Note_off_c, 0, 89, 100
2, 470016, Note_on_c, 0, 89, 70
2, 470108, Note_off_c, 0, 84, 100
2, 470112, Note_on_c, 0, 84, 70
2, 470204, Note_off_c, 0, 89, 100
2, 470208, Note_on_c, 0, 80, 70
2, 470300, Note_off_c, 0, 84, 100
2, 470304, Note_on_c, 0, 84, 70
2, 470396, Note_off_c, 0, 80, 100
2, 470400, Note_on_c, 0, 89, 70
2, 470492, Note_off_c, 0, 84, 100
2, 470496, Note_on_c, 0, 84, 70
2, 470588, Note_off_c, 0, 89, 100
2, 470592, Note_on_c, 0, 89, 70
2, 470684, Note_off_c, 0, 84, 100
2, 470688, Note_on_c, 0, 84, 70
2, 470780, Note_off_c, 0, 89, 100
2, 470784, Note_on_c, 0, 80, 70
2, 470876, Note_off_c, 0, 84, 100
2, 470880, Note_on_c, 0, 84, 70
2, 470972, Note_off_c, 0, 80, 100
2, 470976, Note_on_c, 0, 89, 70
2, 471068, Note_off_c, 0, 84, 100
2, 471072, Note_on_c, 0, 84, 70
2, 471164, Note_off_c, 0, 89, 100
2, 471168, Note_on_c, 0, 89, 70
2, 471260, Note_off_c, 0, 84, 100
2, 471264, Note_on_c, 0, 84, 70
2, 471356, Note_off_c, 0, 89, 100
2, 471360, Note_on_c, 0, 80, 70
2, 471452, Note_off_c, 0, 84, 100
2, 471456, Note_on_c, 0, 84, 70
2, 471548, Note_off_c, 0, 80, 100
2, 471552, Note_on_c, 0, 89, 70
2, 471644, Note_off_c, 0, 84, 100
2, 471648, Note_on_c, 0, 84, 70
2, 471740, Note_off_c, 0, 89, 100
2, 471744, Note_on_c, 0, 89, 70
2, 471836, Note_off_c, 0, 84, 100
2, 471840, Note_on_c, 0, 84, 70
2, 471932, Note_off_c, 0, 89, 100
2, 471936, Note_on_c, 0, 80, 70
2, 472028, Note_off_c, 0, 84, 100
2, 472032, Note_on_c, 0, 84, 70
2, 472124, Note_off_c, 0, 80, 100
2, 472128, Note_on_c, 0, 89, 70
2, 472220, Note_off_c, 0, 84, 100
2, 472224, Note_on_c, 0, 84, 70
2, 472316, Note_off_c, 0, 89, 100
2, 472320, Note_on_c, 0, 89, 70
2, 472412, Note_off_c, 0, 84, 100
2, 472416, Note_on_c, 0, 84, 70
2, 472508, Note_off_c, 0, 89, 100
2, 472512, Note_on_c, 0, 80, 70
2, 472604, Note_off_c, 0, 84, 100
2, 472608, Note_on_c, 0, 84, 70
2, 472700, Note_off_c, 0, 80, 100
2, 472704, Note_on_c, 0, 89, 70
2, 472796, Note_off_c, 0, 84, 100
2, 472800, Note_on_c, 0, 84, 70
2, 472892, Note_off_c, 0, 89, 100
2, 472896, Note_on_c, 0, 87, 70
2, 472988, Note_off_c, 0, 84, 100
2, 472992, Note_on_c, 0, 84, 70
2, 473084, Note_off_c, 0, 87, 100
2, 473088, Note_on_c, 0, 80, 70
2, 473180, Note_off_c, 0, 84, 100
2, 473184, Note_on_c, 0, 84, 70
2, 473276, Note_off_c, 0, 80, 100
2, 473280, Note_on_c, 0, 87, 70
2, 473372, Note_off_c, 0, 84, 100
2, 473376, Note_on_c, 0, 84, 70
2, 473468, Note_off_c, 0, 87, 100
2, 473472, Note_on_c, 0, 80, 70
2, 473564, Note_off_c, 0, 84, 100
2, 473568, Note_on_c, 0, 84, 70
2, 473660, Note_off_c, 0, 80, 100
2, 473664, Note_on_c, 0, 87, 70
2, 473756, Note_off_c, 0, 84, 100
2, 473760, Note_on_c, 0, 84, 70
2, 473852, Note_off_c, 0, 87, 100
2, 473856, Note_on_c, 0, 80, 70
2, 473948, Note_off_c, 0, 84, 100
2, 473952, Note_on_c, 0, 84, 70
2, 474044, Note_off_c, 0, 80, 100
2, 474048, Note_on_c, 0, 87, 70
2, 474140, Note_off_c, 0, 84, 100
2, 474144, Note_on_c, 0, 84, 70
2, 474236, Note_off_c, 0, 87, 100
2, 474240, Note_on_c, 0, 80, 70
2, 474332, Note_off_c, 0, 84, 100
2, 474336, Note_on_c, 0, 84, 70
2, 474428, Note_off_c, 0, 80, 100
2, 474432, Note_on_c, 0, 87, 70
2, 474524, Note_off_c, 0, 84, 100
2, 474528, Note_on_c, 0, 84, 70
2, 474620, Note_off_c, 0, 87, 100
2, 474624, Note_on_c, 0, 87, 70
2, 474716, Note_off_c, 0, 84, 100
2, 474720, Note_on_c, 0, 84, 70
2, 474812, Note_off_c, 0, 87, 100
2, 474816, Note_on_c, 0, 80, 70
2, 474908, Note_off_c, 0, 84, 100
2, 474912, Note_on_c, 0, 84, 70
2, 475004, Note_off_c, 0, 80, 100
2, 475008, Note_on_c, 0, 87, 70
2, 475100, Note_off_c, 0, 84, 100
2, 475104, Note_on_c, 0, 84, 70
2, 475196, Note_off_c, 0, 87, 100
2, 475200, Note_on_c, 0, 87, 70
2, 475292, Note_off_c, 0, 84, 100
2, 475296, Note_on_c, 0, 84, 70
2, 475388, Note_off_c, 0, 87, 100
2, 475392, Note_on_c, 0, 80, 70
2, 475484, Note_off_c, 0, 84, 100
2, 475488, Note_on_c, 0, 84, 70
2, 475580, Note_off_c, 0, 80, 100
2, 475584, Note_on_c, 0, 87, 70
2, 475676, Note_off_c, 0, 84, 100
2, 475680, Note_on_c, 0, 84, 70
2, 475772, Note_off_c, 0, 87, 100
2, 475776, Note_on_c, 0, 87, 70
2, 475868, Note_off_c, 0, 84, 100
2, 475872, Note_on_c, 0, 84, 70
2, 475964, Note_off_c, 0, 87, 100
2, 475968, Note_on_c, 0, 80, 70
2, 476060, Note_off_c, 0, 84, 100
2, 476064, Note_on_c, 0, 84, 70
2, 476156, Note_off_c, 0, 80, 100
2, 476160, Note_on_c, 0, 87, 70
2, 476252, Note_off_c, 0, 84, 100
2, 476256, Note_on_c, 0, 84, 70
2, 476348, Note_off_c, 0, 87, 100
2, 476352, Note_on_c, 0, 87, 70
2, 476444, Note_off_c, 0, 84, 100
2, 476448, Note_on_c, 0, 84, 70
2, 476540, Note_off_c, 0, 87, 100
2, 476544, Note_on_c, 0, 80, 70
2, 476636, Note_off_c, 0, 84, 100
2, 476640, Note_on_c, 0, 84, 70
2, 476732, Note_off_c, 0, 80, 100
2, 476736, Note_on_c, 0, 87, 70
2, 476828, Note_off_c, 0, 84, 100
2, 476832, Note_on_c, 0, 84, 70
2, 476924, Note_off_c, 0, 87, 100
2, 476928, Note_on_c, 0, 87, 70
2, 477020, Note_off_c, 0, 84, 100
2, 477024, Note_on_c, 0, 84, 70
2, 477116, Note_off_c, 0, 87, 100
2, 477120, Note_on_c, 0, 80, 70
2, 477212, Note_off_c, 0, 84, 100
2, 477216, Note_on_c, 0, 84, 70
2, 477308, Note_off_c, 0, 80, 100
2, 477312, Note_on_c, 0, 87, 70
2, 477404, Note_off_c, 0, 84, 100
2, 477408, Note_on_c, 0, 84, 70
2, 477500, Note_off_c, 0, 87, 100
2, 477504, Note_on_c, 0, 89, 70
2, 477596, Note_off_c, 0, 84, 100
2, 477600, Note_on_c, 0, 85, 70
2, 477692, Note_off_c, 0, 89, 100
2, 477696, Note_on_c, 0, 80, 71
2, 477788, Note_off_c, 0, 85, 100
2, 477792, Note_on_c, 0, 85, 71
2, 477884, Note_off_c, 0, 80, 100
2, 477888, Note_on_c, 0, 89, 72
2, 477980, Note_off_c, 0, 85, 100
2, 477984, Note_on_c, 0, 85, 72
2, 478076, Note_off_c, 0, 89, 100
2, 478080, Note_on_c, 0, 89, 73
2, 478172, Note_off_c, 0, 85, 100
2, 478176, Note_on_c, 0, 85, 73
2, 478268, Note_off_c, 0, 89, 100
2, 478272, Note_on_c, 0, 80, 74
2, 478364, Note_off_c, 0, 85, 100
2, 478368, Note_on_c, 0, 85, 74
2, 478460, Note_off_c, 0, 80, 100
2, 478464, Note_on_c, 0, 89, 75
2, 478556, Note_off_c, 0, 85, 100
2, 478560, Note_on_c, 0, 85, 75
2, 478652, Note_off_c, 0, 89, 100
2, 478656, Note_on_c, 0, 89, 76
2, 478748, Note_off_c, 0, 85, 100
2, 478752, Note_on_c, 0, 85, 76
2, 478844, Note_off_c, 0, 89, 100
2, 478848, Note_on_c, 0, 80, 77
2, 478940, Note_off_c, 0, 85, 100
2, 478944, Note_on_c, 0, 85, 77
2, 479036, Note_off_c, 0, 80, 100
2, 479040, Note_on_c, 0, 89, 78
2, 479132, Note_off_c, 0, 85, 100
2, 479136, Note_on_c, 0, 85, 78
2, 479228, Note_off_c, 0, 89, 100
2, 479232, Note_on_c, 0, 89, 79
2, 479324, Note_off_c, 0, 85, 100
2, 479328, Note_on_c, 0, 85, 79
2, 479420, Note_off_c, 0, 89, 100
2, 479424, Note_on_c, 0, 80, 79
2, 479516, Note_off_c, 0, 85, 100
2, 479520, Note_on_c, 0, 85, 80
2, 479612, Note_off_c, 0, 80, 100
2, 479616, Note_on_c, 0, 89, 80
2, 479708, Note_off_c, 0, 85, 100
2, 479712, Note_on_c, 0, 85, 81
2, 479804, Note_off_c, 0, 89, 100
2, 479808, Note_on_c, 0, 90, 81
2, 479900, Note_off_c, 0, 85, 100
2, 479904, Note_on_c, 0, 84, 82
2, 479996, Note_off_c, 0, 90, 100
2, 480000, Note_on_c, 0, 80, 82
2, 480092, Note_off_c, 0, 84, 100
2, 480096, Note_on_c, 0, 84, 83
2, 480188, Note_off_c, 0, 80, 100
2, 480192, Note_on_c, 0, 90, 83
2, 480284, Note_off_c, 0, 84, 100
2, 480288, Note_on_c, 0, 84, 84
2, 480380, Note_off_c, 0, 90, 100
2, 480384, Note_on_c, 0, 90, 84
2, 480476, Note_off_c, 0, 84, 100
2, 480480, Note_on_c, 0, 87, 85
2, 480572, Note_off_c, 0, 90, 100
2, 480576, Note_on_c, 0, 80, 85
2, 480668, Note_off_c, 0, 87, 100
2, 480672, Note_on_c, 0, 87, 86
2, 480764, Note_off_c, 0, 80, 100
2, 480768, Note_on_c, 0, 90, 86
2, 480860, Note_off_c, 0, 87, 100
2, 480864, Note_on_c, 0, 87, 87
2, 480956, Note_off_c, 0, 90, 100
2, 480960, Note_on_c, 0, 90, 87
2, 481052, Note_off_c, 0, 87, 100
2, 481056, Note_on_c, 0, 84, 88
2, 481148, Note_off_c, 0, 90, 100
2, 481152, Note_on_c, 0, 80, 88
2, 481244, Note_off_c, 0, 84, 100
2, 481248, Note_on_c, 0, 84, 89
2, 481340, Note_off_c, 0, 80, 100
2, 481344, Note_on_c, 0, 90, 89
2, 481436, Note_off_c, 0, 84, 100
2, 481440, Note_on_c, 0, 84, 89
2, 481532, Note_off_c, 0, 90, 100
2, 481536, Note_on_c, 0, 90, 90
2, 481628, Note_off_c, 0, 84, 100
2, 481632, Note_on_c, 0, 87, 89
2, 481724, Note_off_c, 0, 90, 100
2, 481728, Note_on_c, 0, 80, 87
2, 481820, Note_off_c, 0, 87, 100
2, 481824, Note_on_c, 0, 87, 86
2, 481916, Note_off_c, 0, 80, 100
2, 481920, Note_on_c, 0, 90, 84
2, 482012, Note_off_c, 0, 87, 100
2, 482016, Note_on_c, 0, 87, 82
2, 482108, Note_off_c, 0, 90, 100
2, 482112, Note_on_c, 0, 89, 81
2, 482204, Note_off_c, 0, 87, 100
2, 482492, Note_off_c, 0, 89, 100
2, 483840, Note_on_c, 0, 77, 80
2, 484316, Note_off_c, 0, 77, 100
2, 484320, Note_on_c, 0, 80, 80
2, 484412, Note_off_c, 0, 80, 100
2, 484416, Note_on_c, 0, 85, 80
2, 484988, Note_off_c, 0, 85, 100
2, 484992, Note_on_c, 0, 89, 80
2, 485468, Note_off_c, 0, 89, 100
2, 485472, Note_on_c, 0, 85, 80
2, 485564, Note_off_c, 0, 85, 100
2, 485568, Note_on_c, 0, 84, 80
2, 486140, Note_off_c, 0, 84, 100
2, 486144, Note_on_c, 0, 87, 80
2, 486620, Note_off_c, 0, 87, 100
2, 486624, Note_on_c, 0, 84, 80
2, 486716, Note_off_c, 0, 84, 100
2, 486720, Note_on_c, 0, 85, 80
2, 487292, Note_off_c, 0, 85, 100
2, 487296, Note_on_c, 0, 80, 80
2, 488444, Note_off_c, 0, 80, 100
2, 488448, Note_on_c, 0, 77, 80
2, 488924, Note_off_c, 0, 77, 100
2, 488928, Note_on_c, 0, 80, 80
2, 489020, Note_off_c, 0, 80, 100
2, 489024, Note_on_c, 0, 85, 80
2, 489596, Note_off_c, 0, 85, 100
2, 489600, Note_on_c, 0, 89, 82
2, 490076, Note_off_c, 0, 89, 100
2, 490080, Note_on_c, 0, 85, 84
2, 490172, Note_off_c, 0, 85, 100
2, 490176, Note_on_c, 0, 84, 85
2, 490748, Note_off_c, 0, 84, 100
2, 490752, Note_on_c, 0, 87, 87
2, 491228, Note_off_c, 0, 87, 100
2, 491232, Note_on_c, 0, 84, 89
2, 491324, Note_off_c, 0, 84, 100
2, 491328, Note_on_c, 0, 83, 90
2, 491900, Note_off_c, 0, 83, 100
2, 491904, Note_on_c, 0, 86, 92
2, 493052, Note_off_c, 0, 86, 100
2, 493056, Note_on_c, 0, 86, 97
2, 493532, Note_off_c, 0, 86, 100
2, 493536, Note_on_c, 0, 83, 99
2, 493628, Note_off_c, 0, 83, 100
2, 493632, Note_on_c, 0, 84, 100
2, 494204, Note_off_c, 0, 84, 100
2, 494208, Note_on_c, 0, 88, 100
2, 495356, Note_off_c, 0, 88, 100
2, 495360, Note_on_c, 0, 91, 102
2, 495360, Note_on_c, 0, 79, 102
2, 495836, Note_off_c, 0, 91, 100
2, 495836, Note_off_c, 0, 79, 100
2, 495840, Note_on_c, 0, 89, 103
2, 495840, Note_on_c, 0, 77, 103
2, 495932, Note_off_c, 0, 89, 100
2, 495932, Note_off_c, 0, 77, 100
2, 495936, Note_on_c, 0, 76, 103
2, 495936, Note_on_c, 0, 88, 103
2, 496508, Note_off_c, 0, 76, 100
2, 496508, Note_off_c, 0, 88, 100
2, 496512, Note_on_c, 0, 91, 104
2, 496512, Note_on_c, 0, 79, 104
2, 497660, Note_off_c, 0, 79, 100
2, 497660, Note_off_c, 0, 91, 100
2, 497664, Note_on_c, 0, 91, 105
2, 497664, Note_on_c, 0, 79, 105
2, 498140, Note_off_c, 0, 91, 100
2, 498140, Note_off_c, 0, 79, 100
2, 498144, Note_on_c, 0, 88, 106
2, 498144, Note_on_c, 0, 76, 106
2, 498236, Note_off_c, 0, 88, 100
2, 498236, Note_off_c, 0, 76, 100
2, 498240, Note_on_c, 0, 89, 106
2, 498240, Note_on_c, 0, 77, 106
2, 498812, Note_off_c, 0, 89, 100
2, 498812, Note_off_c, 0, 77, 100
2, 498816, Note_on_c, 0, 92, 107
2, 498816, Note_on_c, 0, 80, 107
2, 499964, Note_off_c, 0, 80, 100
2, 499964, Note_off_c, 0, 92, 100
2, 499968, Note_on_c, 0, 92, 109
2, 499968, Note_on_c, 0, 80, 109
2, 500444, Note_off_c, 0, 92, 100
2, 500444, Note_off_c, 0, 80, 100
2, 500448, Note_on_c, 0, 89, 109
2, 500448, Note_on_c, 0, 77, 109
2, 500540, Note_off_c, 0, 89, 100
2, 500540, Note_off_c, 0, 77, 100
2, 500544, Control_c, 0, 64, 127
2, 500640, Note_on_c, 0, 61, 120
2, 500736, Note_on_c, 0, 58, 120
2, 500832, Note_on_c, 0, 66, 120
2, 501116, Note_off_c, 0, 61, 100
2, 501212, Note_off_c, 0, 58, 100
2, 501216, Note_on_c, 0, 66, 120
2, 501308, Note_off_c, 0, 66, 100
2, 501312, Note_on_c, 0, 61, 120
2, 501408, Note_on_c, 0, 70, 120
2, 501692, Note_off_c, 0, 66, 100
2, 501788, Note_off_c, 0, 61, 100
2, 501792, Note_on_c, 0, 70, 120
2, 501884, Note_off_c, 0, 70, 100
2, 501888, Note_on_c, 0, 66, 120
2, 501984, Note_on_c, 0, 73, 120
2, 502268, Note_off_c, 0, 70, 100
2, 502364, Note_off_c, 0, 66, 100
2, 502368, Note_on_c, 0, 73, 120
2, 502460, Note_off_c, 0, 73, 100
2, 502464, Note_on_c, 0, 70, 120
2, 502560, Note_on_c, 0, 78, 120
2, 502844, Note_off_c, 0, 73, 100
2, 502940, Note_off_c, 0, 70, 100
2, 502944, Note_on_c, 0, 78, 120
2, 503036, Note_off_c, 0, 78, 100
2, 503040, Note_on_c, 0, 73, 120
2, 503136, Note_on_c, 0, 82, 120
2, 503420, Note_off_c, 0, 78, 100
2, 503516, Note_off_c, 0, 73, 100
2, 503520, Note_on_c, 0, 82, 120
2, 503612, Note_off_c, 0, 82, 100
2, 503616, Note_on_c, 0, 78, 120
2, 503712, Note_on_c, 0, 85, 120
2, 503996, Note_off_c, 0, 82, 100
2, 504092, Note_off_c, 0, 78, 100
2, 504096, Note_on_c, 0, 85, 120
2, 504188, Note_off_c, 0, 85, 100
2, 504192, Note_on_c, 0, 82, 120
2, 504288, Note_on_c, 0, 90, 120
2, 504572, Note_off_c, 0, 85, 100
2, 504668, Note_off_c, 0, 82, 100
2, 504764, Note_off_c, 0, 90, 100
2, 504768, Note_on_c, 0, 90, 120
2, 504864, Note_on_c, 0, 85, 120
2, 504960, Note_on_c, 0, 94, 120
2, 505144, Control_c, 0, 64, 0
2, 505148, Note_off_c, 0, 90, 100
2, 505148, Note_off_c, 0, 94, 100
2, 505152, Control_c, 0, 64, 127
2, 505156, Note_off_c, 0, 85, 100
2, 505248, Note_on_c, 0, 63, 120
2, 505344, Note_on_c, 0, 60, 120
2, 505440, Note_on_c, 0, 69, 120
2, 505724, Note_off_c, 0, 63, 100
2, 505820, Note_off_c, 0, 60, 100
2, 505824, Note_on_c, 0, 69, 120
2, 505916, Note_off_c, 0, 69, 100
2, 505920, Note_on_c, 0, 63, 120
2, 506016, Note_on_c, 0, 72, 120
2, 506300, Note_off_c, 0, 69, 100
2, 506396, Note_off_c, 0, 63, 100
2, 506400, Note_on_c, 0, 72, 120
2, 506492, Note_off_c, 0, 72, 100
2, 506496, Note_on_c, 0, 69, 120
2, 506592, Note_on_c, 0, 75, 120
2, 506876, Note_off_c, 0, 72, 100
2, 506972, Note_off_c, 0, 69, 100
2, 506976, Note_on_c, 0, 75, 120
2, 507068, Note_off_c, 0, 75, 100
2, 507072, Note_on_c, 0, 72, 120
2, 507168, Note_on_c, 0, 81, 120
2, 507452, Note_off_c, 0, 75, 100
2, 507548, Note_off_c, 0, 72, 100
2, 507552, Note_on_c, 0, 81, 120
2, 507644, Note_off_c, 0, 81, 100
2, 507648, Note_on_c, 0, 75, 120
2, 507744, Note_on_c, 0, 84, 120
2, 508028, Note_off_c, 0, 81, 100
2, 508124, Note_off_c, 0, 75, 100
2, 508128, Note_on_c, 0, 84, 120
2, 508220, Note_off_c, 0, 84, 100
2, 508224, Note_on_c, 0, 81, 120
2, 508320, Note_on_c, 0, 87, 120
2, 508604, Note_off_c, 0, 84, 100
2, 508700, Note_off_c, 0, 81, 100
2, 508704, Note_on_c, 0, 87, 120
2, 508796, Note_off_c, 0, 87, 100
2, 508800, Note_on_c, 0, 84, 120
2, 508896, Note_on_c, 0, 93, 120
2, 509180, Note_off_c, 0, 87, 100
2, 509276, Note_off_c, 0, 84, 100
2, 509372, Note_off_c, 0, 93, 100
2, 509376, Note_on_c, 0, 93, 120
2, 509472, Note_on_c, 0, 87, 120
2, 509568, Note_on_c, 0, 96, 120
2, 509752, Control_c, 0, 64, 0
2, 509756, Note_off_c, 0, 93, 100
2, 509756, Note_off_c, 0, 96, 100
2, 509760, Note_off_c, 0, 87, 100
2, 509760, Control_c, 0, 64, 127
2, 509856, Note_on_c, 0, 65, 120
2, 509952, Note_on_c, 0, 61, 120
2, 510048, Note_on_c, 0, 70, 120
2, 510332, Note_off_c, 0, 65, 100
2, 510428, Note_off_c, 0, 61, 100
2, 510524, Note_off_c, 0, 70, 100
2, 510528, Note_on_c, 0, 70, 120
2, 510624, Note_on_c, 0, 65, 120
2, 510720, Note_on_c, 0, 73, 120
2, 510904, Control_c, 0, 64, 0
2, 510908, Note_off_c, 0, 70, 100
2, 510908, Note_off_c, 0, 73, 100
2, 510912, Control_c, 0, 64, 127
2, 510916, Note_off_c, 0, 65, 100
2, 511008, Note_on_c, 0, 67, 120
2, 511104, Note_on_c, 0, 64, 120
2, 511200, Note_on_c, 0, 72, 120
2, 511484, Note_off_c, 0, 67, 100
2, 511580, Note_off_c, 0, 64, 100
2, 511676, Note_off_c, 0, 72, 100
2, 511680, Note_on_c, 0, 72, 120
2, 511776, Note_on_c, 0, 67, 120
2, 511872, Note_on_c, 0, 76, 120
2, 512056, Control_c, 0, 64, 0
2, 512060, Note_off_c, 0, 72, 100
2, 512060, Note_off_c, 0, 76, 100
2, 512064, Control_c, 0, 64, 127
2, 512068, Note_off_c, 0, 67, 100
2, 512160, Note_on_c, 0, 68, 120
2, 512256, Note_on_c, 0, 65, 120
2, 512352, Note_on_c, 0, 73, 120
2, 512636, Note_off_c, 0, 68, 100
2, 512732, Note_off_c, 0, 65, 100
2, 512828, Note_off_c, 0, 73, 100
2, 512832, Note_on_c, 0, 73, 120
2, 512928, Note_on_c, 0, 68, 120
2, 513024, Note_on_c, 0, 77, 120
2, 513208, Control_c, 0, 64, 0
2, 513212, Note_off_c, 0, 73, 100
2, 513212, Note_off_c, 0, 77, 100
2, 513220, Note_off_c, 0, 68, 100
2, 513312, Note_on_c, 0, 70, 120
2, 513408, Note_on_c, 0, 67, 120
2, 513504, Note_on_c, 0, 76, 120
2, 513788, Note_off_c, 0, 70, 100
2, 513884, Note_off_c, 0, 67, 100
2, 513980, Note_off_c, 0, 76, 100
2, 513984, Note_on_c, 0, 76, 120
2, 514080, Note_on_c, 0, 70, 120
2, 514176, Note_on_c, 0, 79, 120
2, 514364, Note_off_c, 0, 76, 100
2, 514364, Note_off_c, 0, 79, 100
2, 514372, Note_off_c, 0, 70, 100
2, 514464, Note_on_c, 0, 72, 120
2, 514560, Note_on_c, 0, 68, 120
2, 514656, Note_on_c, 0, 77, 120
2, 514940, Note_off_c, 0, 72, 100
2, 515036, Note_off_c, 0, 68, 100
2, 515040, Note_on_c, 0, 73, 120
2, 515132, Note_off_c, 0, 77, 100
2, 515136, Note_on_c, 0, 70, 120
2, 515232, Note_on_c, 0, 79, 120
2, 515516, Note_off_c, 0, 73, 100
2, 515612, Note_off_c, 0, 70, 100
2, 515616, Note_on_c, 0, 75, 120
2, 515708, Note_off_c, 0, 79, 100
2, 515712, Note_on_c, 0, 72, 120
2, 515808, Note_on_c, 0, 81, 120
2, 516092, Note_off_c, 0, 75, 100
2, 516188, Note_off_c, 0, 72, 100
2, 516192, Note_on_c, 0, 77, 120
2, 516284, Note_off_c, 0, 81, 100
2, 516288, Note_on_c, 0, 73, 120
2, 516384, Note_on_c, 0, 82, 120
2, 516668, Note_off_c, 0, 77, 100
2, 516764, Note_off_c, 0, 73, 100
2, 516768, Note_on_c, 0, 79, 120
2, 516860, Note_off_c, 0, 82, 100
2, 516864, Note_on_c, 0, 76, 120
2, 516960, Note_on_c, 0, 84, 120
2, 517244, Note_off_c, 0, 79, 100
2, 517340, Note_off_c, 0, 76, 100
2, 517344, Note_on_c, 0, 80, 120
2, 517436, Note_off_c, 0, 84, 100
2, 517440, Note_on_c, 0, 77, 120
2, 517536, Note_on_c, 0, 85, 120
2, 517820, Note_off_c, 0, 80, 100
2, 517916, Note_off_c, 0, 77, 100
2, 517920, Note_on_c, 0, 82, 120
2, 518012, Note_off_c, 0, 85, 100
2, 518016, Note_on_c, 0, 79, 120
2, 518112, Note_on_c, 0, 88, 120
2, 518396, Note_off_c, 0, 82, 100
2, 518492, Note_off_c, 0, 79, 100
2, 518496, Note_on_c, 0, 84, 120
2, 518588, Note_off_c, 0, 88, 100
2, 518592, Note_on_c, 0, 80, 120
2, 518688, Note_on_c, 0, 89, 120
2, 518972, Note_off_c, 0, 84, 100
2, 519068, Note_off_c, 0, 80, 100
2, 519072, Note_on_c, 0, 85, 120
2, 519164, Note_off_c, 0, 89, 100
2, 519168, Note_on_c, 0, 82, 120
2, 519264, Note_on_c, 0, 91, 120
2, 519548, Note_off_c, 0, 85, 100
2, 519644, Note_off_c, 0, 82, 100
2, 519648, Note_on_c, 0, 87, 120
2, 519740, Note_off_c, 0, 91, 100
2, 519744, Note_on_c, 0, 84, 120
2, 519840, Note_on_c, 0, 93, 120
2, 520124, Note_off_c, 0, 87, 100
2, 520220, Note_off_c, 0, 84, 100
2, 520224, Note_on_c, 0, 89, 120
2, 520316, Note_off_c, 0, 93, 100
2, 520320, Note_on_c, 0, 85, 120
2, 520416, Note_on_c, 0, 94, 120
2, 520700, Note_off_c, 0, 89, 100
2, 520796, Note_off_c, 0, 85, 100
2, 520800, Note_on_c, 0, 89, 120
2, 520892, Note_off_c, 0, 94, 100
2, 520896, Note_on_c, 0, 85, 120
2, 520992, Note_on_c, 0, 94, 120
2, 521276, Note_off_c, 0, 89, 100
2, 521280, Control_c, 0, 64, 127
2, 521284, Note_off_c, 0, 94, 100
2, 521568, Note_on_c, 0, 89, 120
2, 521660, Note_off_c, 0, 85, 100
2, 521664, Note_on_c, 0, 85, 120
2, 521760, Note_on_c, 0, 94, 120
2, 521848, Note_off_c, 0, 89, 100
2, 521856, Note_on_c, 0, 89, 120
2, 521944, Note_off_c, 0, 85, 100
2, 521952, Note_on_c, 0, 85, 120
2, 522048, Note_on_c, 0, 82, 120
2, 522140, Note_off_c, 0, 94, 100
2, 522144, Note_on_c, 0, 77, 120
2, 522236, Note_off_c, 0, 89, 100
2, 522236, Note_off_c, 0, 85, 100
2, 522240, Note_on_c, 0, 73, 120
2, 522332, Note_off_c, 0, 82, 100
2, 522336, Note_on_c, 0, 82, 120
2, 522428, Note_off_c, 0, 77, 100
2, 522432, Note_on_c, 0, 77, 120
2, 522524, Note_off_c, 0, 73, 100
2, 522528, Note_on_c, 0, 73, 120
2, 522620, Note_off_c, 0, 82, 100
2, 522624, Note_on_c, 0, 70, 120
2, 522716, Note_off_c, 0, 77, 100
2, 522720, Note_on_c, 0, 65, 120
2, 522812, Note_off_c, 0, 73, 100
2, 522816, Note_on_c, 0, 61, 120
2, 522908, Note_off_c, 0, 70, 100
2, 522912, Note_on_c, 0, 70, 120
2, 523004, Note_off_c, 0, 65, 100
2, 523008, Note_on_c, 0, 65, 120
2, 523100, Note_off_c, 0, 61, 100
2, 523104, Note_on_c, 0, 61, 120
2, 523196, Note_off_c, 0, 70, 100
2, 523200, Note_on_c, 0, 58, 120
2, 523292, Note_off_c, 0, 65, 100
2, 523296, Note_on_c, 0, 53, 120
2, 523388, Note_off_c, 0, 61, 100
2, 523392, Note_on_c, 0, 49, 120
2, 523484, Note_off_c, 0, 58, 100
2, 523488, Note_on_c, 0, 58, 120
2, 523772, Note_off_c, 0, 53, 100
2, 523772, Note_off_c, 0, 58, 100
2, 523868, Note_off_c, 0, 49, 100
2, 524160, Note_on_c, 0, 61, 120
2, 524256, Note_on_c, 0, 65, 120
2, 524352, Note_on_c, 0, 70, 120
2, 524444, Note_off_c, 0, 61, 100
2, 524448, Note_on_c, 0, 73, 120
2, 524540, Note_off_c, 0, 65, 100
2, 524544, Note_on_c, 0, 77, 120
2, 524636, Note_off_c, 0, 70, 100
2, 524636, Note_off_c, 0, 73, 100
2, 524640, Note_on_c, 0, 73, 120
2, 524736, Note_on_c, 0, 70, 120
2, 524828, Note_off_c, 0, 73, 100
2, 524828, Note_off_c, 0, 77, 100
2, 524832, Note_on_c, 0, 73, 120
2, 524928, Note_on_c, 0, 77, 120
2, 525020, Note_off_c, 0, 70, 100
2, 525024, Note_on_c, 0, 82, 120
2, 525116, Note_off_c, 0, 73, 100
2, 525120, Note_on_c, 0, 85, 120
2, 525212, Note_off_c, 0, 77, 100
2, 525212, Note_off_c, 0, 82, 100
2, 525216, Note_on_c, 0, 82, 120
2, 525312, Note_on_c, 0, 89, 120
2, 525404, Note_off_c, 0, 85, 100
2, 525408, Note_on_c, 0, 85, 120
2, 525500, Note_off_c, 0, 82, 100
2, 525504, Note_on_c, 0, 94, 120
2, 525596, Note_off_c, 0, 89, 100
2, 525600, Note_on_c, 0, 89, 120
2, 525692, Note_off_c, 0, 85, 100
2, 525696, Note_on_c, 0, 85, 120
2, 525788, Note_off_c, 0, 94, 100
2, 525792, Note_on_c, 0, 82, 120
2, 525880, Control_c, 0, 64, 0
2, 525884, Note_off_c, 0, 89, 100
2, 525884, Note_off_c, 0, 85, 100
2, 525884, Note_off_c, 0, 82, 100
2, 525888, Control_c, 0, 64, 127
2, 526176, Note_on_c, 0, 92, 120
2, 526272, Note_on_c, 0, 89, 120
2, 526368, Note_on_c, 0, 95, 120
2, 526460, Note_off_c, 0, 92, 64
2, 526464, Note_on_c, 0, 92, 120
2, 526556, Note_off_c, 0, 89, 100
2, 526560, Note_on_c, 0, 89, 120
2, 526652, Note_off_c, 0, 95, 64
2, 526656, Note_on_c, 0, 86, 120
2, 526748, Note_off_c, 0, 92, 64
2, 526752, Note_on_c, 0, 83, 120
2, 526844, Note_off_c, 0, 89, 64
2, 526848, Note_on_c, 0, 80, 120
2, 526940, Note_off_c, 0, 86, 64
2, 526944, Note_on_c, 0, 77, 120
2, 527036, Note_off_c, 0, 83, 64
2, 527040, Note_on_c, 0, 83, 120
2, 527132, Note_off_c, 0, 80, 64
2, 527136, Note_on_c, 0, 80, 120
2, 527228, Note_off_c, 0, 77, 64
2, 527232, Note_on_c, 0, 77, 120
2, 527324, Note_off_c, 0, 83, 100
2, 527328, Note_on_c, 0, 74, 120
2, 527420, Note_off_c, 0, 80, 100
2, 527424, Note_on_c, 0, 71, 120
2, 527516, Note_off_c, 0, 77, 100
2, 527520, Note_on_c, 0, 68, 120
2, 527612, Note_off_c, 0, 74, 100
2, 527616, Note_on_c, 0, 74, 120
2, 527708, Note_off_c, 0, 71, 64
2, 527712, Note_on_c, 0, 71, 120
2, 527804, Note_off_c, 0, 68, 64
2, 527808, Note_on_c, 0, 68, 120
2, 527900, Note_off_c, 0, 74, 64
2, 527904, Note_on_c, 0, 65, 120
2, 527996, Note_off_c, 0, 71, 64
2, 528000, Note_on_c, 0, 62, 120
2, 528092, Note_off_c, 0, 68, 64
2, 528096, Note_on_c, 0, 59, 120
2, 528188, Note_off_c, 0, 65, 64
2, 528192, Note_on_c, 0, 68, 120
2, 528284, Note_off_c, 0, 62, 64
2, 528288, Note_on_c, 0, 65, 120
2, 528380, Note_off_c, 0, 59, 64
2, 528384, Note_on_c, 0, 62, 120
2, 528476, Note_off_c, 0, 68, 100
2, 528480, Note_on_c, 0, 59, 120
2, 528572, Note_off_c, 0, 65, 100
2, 528576, Note_on_c, 0, 56, 120
2, 528668, Note_off_c, 0, 62, 100
2, 528672, Note_on_c, 0, 53, 120
2, 528764, Note_off_c, 0, 59, 100
2, 528860, Note_off_c, 0, 56, 64
2, 528956, Note_off_c, 0, 53, 64
2, 529344, Note_on_c, 0, 62, 120
2, 529440, Note_on_c, 0, 65, 120
2, 529536, Note_on_c, 0, 68, 120
2, 529628, Note_off_c, 0, 62, 100
2, 529632, Note_on_c, 0, 71, 120
2, 529724, Note_off_c, 0, 65, 100
2, 529728, Note_on_c, 0, 74, 120
2, 529820, Note_off_c, 0, 68, 100
2, 529824, Note_on_c, 0, 77, 120
2, 529916, Note_off_c, 0, 71, 100
2, 529920, Note_on_c, 0, 80, 120
2, 530012, Note_off_c, 0, 74, 64
2, 530016, Note_on_c, 0, 83, 120
2, 530108, Note_off_c, 0, 77, 64
2, 530112, Note_on_c, 0, 86, 120
2, 530204, Note_off_c, 0, 80, 64
2, 530208, Note_on_c, 0, 89, 120
2, 530300, Note_off_c, 0, 83, 64
2, 530304, Note_on_c, 0, 92, 120
2, 530396, Note_off_c, 0, 86, 64
2, 530400, Note_on_c, 0, 95, 120
2, 530488, Control_c, 0, 64, 0
2, 530492, Note_off_c, 0, 89, 64
2, 530492, Note_off_c, 0, 92, 64
2, 530492, Note_off_c, 0, 95, 64
2, 530496, Control_c, 0, 64, 127
2, 530784, Note_on_c, 0, 92, 120
2, 530880, Note_on_c, 0, 89, 120
2, 530976, Note_on_c, 0, 96, 120
2, 531068, Note_off_c, 0, 92, 100
2, 531072, Note_on_c, 0, 92, 120
2, 531164, Note_off_c, 0, 89, 64
2, 531168, Note_on_c, 0, 89, 120
2, 531260, Note_off_c, 0, 96, 64
2, 531264, Note_on_c, 0, 84, 120
2, 531356, Note_off_c, 0, 92, 64
2, 531360, Note_on_c, 0, 80, 120
2, 531452, Note_off_c, 0, 89, 64
2, 531456, Note_on_c, 0, 77, 120
2, 531548, Note_off_c, 0, 84, 64
2, 531552, Note_on_c, 0, 84, 120
2, 531644, Note_off_c, 0, 80, 64
2, 531648, Note_on_c, 0, 80, 120
2, 531740, Note_off_c, 0, 77, 64
2, 531744, Note_on_c, 0, 77, 120
2, 531836, Note_off_c, 0, 84, 64
2, 531840, Note_on_c, 0, 72, 120
2, 531932, Note_off_c, 0, 80, 100
2, 531936, Note_on_c, 0, 68, 120
2, 532028, Note_off_c, 0, 77, 100
2, 532032, Note_on_c, 0, 65, 120
2, 532124, Note_off_c, 0, 72, 100
2, 532128, Note_on_c, 0, 72, 120
2, 532220, Note_off_c, 0, 68, 100
2, 532224, Note_on_c, 0, 68, 120
2, 532316, Note_off_c, 0, 65, 64
2, 532320, Note_on_c, 0, 65, 120
2, 532412, Note_off_c, 0, 72, 64
2, 532416, Note_on_c, 0, 60, 120
2, 532508, Note_off_c, 0, 68, 64
2, 532512, Note_on_c, 0, 56, 120
2, 532604, Note_off_c, 0, 65, 64
2, 532608, Note_on_c, 0, 53, 120
2, 532700, Note_off_c, 0, 60, 64
2, 532704, Note_on_c, 0, 60, 120
2, 532796, Note_off_c, 0, 56, 64
2, 532892, Note_off_c, 0, 53, 64
2, 532988, Note_off_c, 0, 60, 64
2, 533376, Note_on_c, 0, 41, 120
2, 533472, Note_on_c, 0, 44, 120
2, 533568, Note_on_c, 0, 48, 120
2, 533660, Note_off_c, 0, 41, 64
2, 533664, Note_on_c, 0, 53, 120
2, 533756, Note_off_c, 0, 44, 64
2, 533760, Note_on_c, 0, 56, 120
2, 533852, Note_off_c, 0, 48, 64
2, 533856, Note_on_c, 0, 60, 120
2, 533948, Note_off_c, 0, 53, 64
2, 533952, Note_on_c, 0, 65, 120
2, 534044, Note_off_c, 0, 56, 64
2, 534048, Note_on_c, 0, 68, 120
2, 534140, Note_off_c, 0, 60, 64
2, 534144, Note_on_c, 0, 72, 120
2, 534236, Note_off_c, 0, 65, 100
2, 534240, Note_on_c, 0, 77, 120
2, 534332, Note_off_c, 0, 68, 100
2, 534336, Note_on_c, 0, 80, 120
2, 534428, Note_off_c, 0, 72, 100
2, 534432, Note_on_c, 0, 84, 120
2, 534524, Note_off_c, 0, 77, 100
2, 534528, Note_on_c, 0, 89, 120
2, 534620, Note_off_c, 0, 80, 64
2, 534624, Note_on_c, 0, 92, 120
2, 534716, Note_off_c, 0, 84, 64
2, 534720, Note_on_c, 0, 96, 120
2, 534812, Note_off_c, 0, 89, 64
2, 534816, Note_on_c, 0, 92, 120
2, 534908, Note_off_c, 0, 92, 64
2, 534912, Note_on_c, 0, 89, 120
2, 535004, Note_off_c, 0, 96, 64
2, 535008, Note_on_c, 0, 84, 120
2, 535096, Control_c, 0, 64, 0
2, 535100, Note_off_c, 0, 92, 64
2, 535100, Note_off_c, 0, 89, 64
2, 535100, Note_off_c, 0, 84, 64
2, 535104, Control_c, 0, 64, 127
2, 535392, Note_on_c, 0, 91, 120
2, 535488, Note_on_c, 0, 88, 120
2, 535584, Note_on_c, 0, 94, 120
2, 535676, Note_off_c, 0, 91, 100
2, 535680, Note_on_c, 0, 91, 120
2, 535772, Note_off_c, 0, 88, 64
2, 535776, Note_on_c, 0, 88, 120
2, 535868, Note_off_c, 0, 94, 64
2, 535872, Note_on_c, 0, 84, 120
2, 535964, Note_off_c, 0, 91, 64
2, 535968, Note_on_c, 0, 82, 120
2, 536060, Note_off_c, 0, 88, 64
2, 536064, Note_on_c, 0, 79, 120
2, 536156, Note_off_c, 0, 84, 64
2, 536160, Note_on_c, 0, 76, 120
2, 536252, Note_off_c, 0, 82, 64
2, 536256, Note_on_c, 0, 72, 120
2, 536348, Note_off_c, 0, 79, 64
2, 536352, Note_on_c, 0, 70, 120
2, 536444, Note_off_c, 0, 76, 64
2, 536448, Note_on_c, 0, 67, 120
2, 536540, Note_off_c, 0, 72, 100
2, 536544, Note_on_c, 0, 64, 120
2, 536636, Note_off_c, 0, 70, 100
2, 536640, Note_on_c, 0, 60, 120
2, 536732, Note_off_c, 0, 67, 100
2, 536736, Note_on_c, 0, 58, 120
2, 536828, Note_off_c, 0, 64, 100
2, 536924, Note_off_c, 0, 60, 64
2, 537020, Note_off_c, 0, 58, 64
2, 537408, Note_on_c, 0, 36, 120
2, 537504, Note_on_c, 0, 40, 120
2, 537600, Note_on_c, 0, 43, 120
2, 537692, Note_off_c, 0, 36, 100
2, 537696, Note_on_c, 0, 46, 120
2, 537788, Note_off_c, 0, 40, 100
2, 537792, Note_on_c, 0, 48, 120
2, 537884, Note_off_c, 0, 43, 100
2, 537888, Note_on_c, 0, 52, 120
2, 537980, Note_off_c, 0, 46, 100
2, 537984, Note_on_c, 0, 55, 120
2, 538076, Note_off_c, 0, 48, 64
2, 538080, Note_on_c, 0, 58, 120
2, 538172, Note_off_c, 0, 52, 64
2, 538176, Note_on_c, 0, 60, 120
2, 538268, Note_off_c, 0, 55, 64
2, 538272, Note_on_c, 0, 64, 120
2, 538364, Note_off_c, 0, 58, 64
2, 538368, Note_on_c, 0, 67, 119
2, 538460, Note_off_c, 0, 60, 64
2, 538464, Note_on_c, 0, 70, 119
2, 538556, Note_off_c, 0, 64, 64
2, 538560, Note_on_c, 0, 72, 118
2, 538652, Note_off_c, 0, 67, 64
2, 538656, Note_on_c, 0, 76, 117
2, 538748, Note_off_c, 0, 70, 64
2, 538752, Note_on_c, 0, 79, 117
2, 538844, Note_off_c, 0, 72, 100
2, 538844, Note_off_c, 0, 76, 100
2, 538848, Note_on_c, 0, 76, 116
2, 538944, Note_on_c, 0, 72, 116
2, 539036, Note_off_c, 0, 79, 100
2, 539036, Note_off_c, 0, 76, 100
2, 539040, Note_on_c, 0, 76, 115
2, 539136, Note_on_c, 0, 79, 114
2, 539228, Note_off_c, 0, 72, 64
2, 539228, Note_off_c, 0, 76, 100
2, 539232, Note_on_c, 0, 76, 114
2, 539328, Note_on_c, 0, 82, 113
2, 539420, Note_off_c, 0, 79, 100
2, 539424, Note_on_c, 0, 79, 112
2, 539516, Note_off_c, 0, 76, 100
2, 539520, Note_on_c, 0, 76, 112
2, 539612, Note_off_c, 0, 79, 64
2, 539616, Note_on_c, 0, 79, 111
2, 539704, Control_c, 0, 64, 0
2, 539708, Note_off_c, 0, 82, 64
2, 539712, Note_on_c, 0, 82, 111
2, 541052, Note_off_c, 0, 76, 64
2, 541148, Note_off_c, 0, 79, 64
2, 541244, Note_off_c, 0, 82, 100
2, 541440, Note_on_c, 0, 76, 80
2, 541440, Note_on_c, 0, 79, 80
2, 541628, Note_off_c, 0, 76, 100
2, 541628, Note_off_c, 0, 79, 100
2, 541632, Note_on_c, 0, 76, 80
2, 541632, Note_on_c, 0, 79, 80
2, 541820, Note_off_c, 0, 76, 100
2, 541820, Note_off_c, 0, 79, 100
2, 541824, Note_on_c, 0, 79, 80
2, 541824, Note_on_c, 0, 76, 80
2, 542012, Note_off_c, 0, 79, 100
2, 542016, Note_on_c, 0, 82, 80
2, 542016, Note_on_c, 0, 79, 80
2, 542016, Note_on_c, 0, 79, 80
2, 542204, Note_off_c, 0, 76, 100
2, 542396, Note_off_c, 0, 79, 100
2, 543164, Note_off_c, 0, 82, 100
2, 543164, Note_off_c, 0, 79, 100
2, 543744, Note_on_c, 0, 64, 80
2, 543744, Note_on_c, 0, 67, 80
2, 543932, Note_off_c, 0, 64, 100
2, 543932, Note_off_c, 0, 67, 100
2, 543936, Note_on_c, 0, 67, 80
2, 543936, Note_on_c, 0, 64, 80
2, 544124, Note_off_c, 0, 67, 100
2, 544124, Note_off_c, 0, 64, 100
2, 544128, Note_on_c, 0, 67, 80
2, 544128, Note_on_c, 0, 64, 80
2, 544316, Note_off_c, 0, 67, 100
2, 544316, Note_off_c, 0, 64, 100
2, 544320, Note_on_c, 0, 70, 80
2, 544320, Note_on_c, 0, 67, 80
2, 545468, Note_off_c, 0, 70, 100
2, 545468, Note_off_c, 0, 67, 100
2, 547200, Note_on_c, 0, 76, 80
2, 547200, Note_on_c, 0, 70, 80
2, 547200, Note_on_c, 0, 67, 80
2, 547388, Note_off_c, 0, 76, 100
2, 547388, Note_off_c, 0, 70, 100
2, 547388, Note_off_c, 0, 67, 100
2, 547392, Note_on_c, 0, 76, 80
2, 547392, Note_on_c, 0, 70, 80
2, 547392, Note_on_c, 0, 67, 80
2, 547580, Note_off_c, 0, 76, 100
2, 547580, Note_off_c, 0, 70, 100
2, 547580, Note_off_c, 0, 67, 100
2, 547584, Note_on_c, 0, 76, 80
2, 547584, Note_on_c, 0, 70, 80
2, 547584, Note_on_c, 0, 67, 80
2, 547772, Note_off_c, 0, 76, 100
2, 547772, Note_off_c, 0, 70, 100
2, 547772, Note_off_c, 0, 67, 100
2, 547776, Note_on_c, 0, 76, 80
2, 547776, Note_on_c, 0, 67, 80
2, 547776, Note_on_c, 0, 70, 80
2, 549500, Note_off_c, 0, 67, 100
2, 549500, Note_off_c, 0, 70, 100
2, 549500, Note_off_c, 0, 76, 100
2, 549504, Note_on_c, 0, 88, 127
2, 549504, Note_on_c, 0, 84, 127
2, 549504, Note_on_c, 0, 82, 127
2, 549504, Note_on_c, 0, 79, 127
2, 549504, Note_on_c, 0, 76, 127
2, 549692, Note_off_c, 0, 88, 100
2, 549692, Note_off_c, 0, 84, 100
2, 549692, Note_off_c, 0, 82, 100
2, 549692, Note_off_c, 0, 79, 100
2, 549692, Note_off_c, 0, 76, 100
2, 549696, Note_on_c, 0, 88, 127
2, 549696, Note_on_c, 0, 84, 127
2, 549696, Note_on_c, 0, 82, 127
2, 549696, Note_on_c, 0, 79, 127
2, 549696, Note_on_c, 0, 76, 127
2, 549884, Note_off_c, 0, 88, 100
2, 549884, Note_off_c, 0, 84, 100
2, 549884, Note_off_c, 0, 82, 100
2, 549884, Note_off_c, 0, 79, 100
2, 549884, Note_off_c, 0, 76, 100
2, 549888, Note_on_c, 0, 88, 127
2, 549888, Note_on_c, 0, 84, 127
2, 549888, Note_on_c, 0, 82, 127
2, 549888, Note_on_c, 0, 79, 127
2, 549888, Note_on_c, 0, 76, 127
2, 550076, Note_off_c, 0, 88, 100
2, 550076, Note_off_c, 0, 84, 100
2, 550076, Note_off_c, 0, 82, 100
2, 550076, Note_off_c, 0, 79, 100
2, 550076, Note_off_c, 0, 76, 100
2, 550080, Note_on_c, 0, 89, 127
2, 550080, Note_on_c, 0, 84, 127
2, 550080, Note_on_c, 0, 80, 127
2, 550080, Note_on_c, 0, 77, 127
2, 550460, Note_off_c, 0, 89, 100
2, 550460, Note_off_c, 0, 84, 100
2, 550460, Note_off_c, 0, 80, 100
2, 550460, Note_off_c, 0, 77, 100
2, 551808, Note_on_c, 0, 68, 80
2, 552284, Note_off_c, 0, 68, 100
2, 552288, Note_on_c, 0, 72, 80
2, 552380, Note_off_c, 0, 72, 100
2, 552384, Note_on_c, 0, 77, 80
2, 552956, Note_off_c, 0, 77, 100
2, 552960, Note_on_c, 0, 80, 80
2, 553436, Note_off_c, 0, 80, 100
2, 553440, Note_on_c, 0, 77, 80
2, 553532, Note_off_c, 0, 77, 100
2, 553536, Note_on_c, 0, 76, 80
2, 554108, Note_off_c, 0, 76, 100
2, 554112, Note_on_c, 0, 79, 80
2, 554588, Note_off_c, 0, 79, 100
2, 554592, Note_on_c, 0, 76, 80
2, 554684, Note_off_c, 0, 76, 100
2, 554688, Note_on_c, 0, 77, 80
2, 555260, Note_off_c, 0, 77, 100
2, 555264, Note_on_c, 0, 72, 80
2, 556412, Note_off_c, 0, 72, 100
2, 556416, Note_on_c, 0, 80, 80
2, 556416, Note_on_c, 0, 68, 80
2, 556892, Note_off_c, 0, 80, 100
2, 556892, Note_off_c, 0, 68, 100
2, 556896, Note_on_c, 0, 84, 80
2, 556896, Note_on_c, 0, 72, 80
2, 556988, Note_off_c, 0, 84, 100
2, 556988, Note_off_c, 0, 72, 100
2, 556992, Note_on_c, 0, 89, 80
2, 556992, Note_on_c, 0, 77, 80
2, 557564, Note_off_c, 0, 89, 100
2, 557564, Note_off_c, 0, 77, 100
2, 557568, Note_on_c, 0, 92, 82
2, 557568, Note_on_c, 0, 80, 82
2, 558044, Note_off_c, 0, 92, 100
2, 558044, Note_off_c, 0, 80, 100
2, 558048, Note_on_c, 0, 89, 84
2, 558048, Note_on_c, 0, 77, 84
2, 558140, Note_off_c, 0, 89, 100
2, 558140, Note_off_c, 0, 77, 100
2, 558144, Note_on_c, 0, 88, 85
2, 558144, Note_on_c, 0, 76, 85
2, 558716, Note_off_c, 0, 88, 100
2, 558716, Note_off_c, 0, 76, 100
2, 558720, Note_on_c, 0, 91, 87
2, 558720, Note_on_c, 0, 79, 87
2, 559196, Note_off_c, 0, 91, 100
2, 559196, Note_off_c, 0, 79, 100
2, 559200, Note_on_c, 0, 88, 89
2, 559200, Note_on_c, 0, 76, 89
2, 559292, Note_off_c, 0, 88, 100
2, 559292, Note_off_c, 0, 76, 100
2, 559296, Note_on_c, 0, 90, 110
2, 559296, Note_on_c, 0, 78, 110
2, 559868, Note_off_c, 0, 90, 100
2, 559868, Note_off_c, 0, 78, 100
2, 559872, Note_on_c, 0, 84, 92
2, 559872, Note_on_c, 0, 72, 92
2, 561020, Note_off_c, 0, 72, 100
2, 561020, Note_off_c, 0, 84, 100
2, 561024, Note_on_c, 0, 87, 97
2, 561024, Note_on_c, 0, 75, 97
2, 561500, Note_off_c, 0, 87, 100
2, 561500, Note_off_c, 0, 75, 100
2, 561504, Note_on_c, 0, 84, 99
2, 561504, Note_on_c, 0, 72, 99
2, 561596, Note_off_c, 0, 84, 100
2, 561596, Note_off_c, 0, 72, 100
2, 561600, Note_on_c, 0, 89, 100
2, 561600, Note_on_c, 0, 77, 100
2, 562172, Note_off_c, 0, 89, 100
2, 562172, Note_off_c, 0, 77, 100
2, 562176, Note_on_c, 0, 82, 100
2, 562176, Note_on_c, 0, 70, 100
2, 563324, Note_off_c, 0, 70, 100
2, 563324, Note_off_c, 0, 82, 100
2, 563328, Note_on_c, 0, 85, 100
2, 563328, Note_on_c, 0, 73, 100
2, 563804, Note_off_c, 0, 85, 100
2, 563804, Note_off_c, 0, 73, 100
2, 563808, Note_on_c, 0, 82, 100
2, 563808, Note_on_c, 0, 70, 100
2, 563900, Note_off_c, 0, 82, 100
2, 563900, Note_off_c, 0, 70, 100
2, 563904, Note_on_c, 0, 80, 100
2, 563904, Note_on_c, 0, 68, 100
2, 564476, Note_off_c, 0, 80, 100
2, 564476, Note_off_c, 0, 68, 100
2, 564480, Note_on_c, 0, 84, 100
2, 564480, Note_on_c, 0, 72, 100
2, 564956, Note_off_c, 0, 84, 100
2, 564956, Note_off_c, 0, 72, 100
2, 564960, Note_on_c, 0, 80, 100
2, 564960, Note_on_c, 0, 68, 100
2, 565052, Note_off_c, 0, 80, 100
2, 565052, Note_off_c, 0, 68, 100
2, 565056, Note_on_c, 0, 79, 100
2, 565056, Note_on_c, 0, 67, 100
2, 565628, Note_off_c, 0, 79, 100
2, 565628, Note_off_c, 0, 67, 100
2, 565632, Note_on_c, 0, 91, 100
2, 565632, Note_on_c, 0, 79, 100
2, 566108, Note_off_c, 0, 91, 100
2, 566108, Note_off_c, 0, 79, 100
2, 566112, Note_on_c, 0, 88, 100
2, 566112, Note_on_c, 0, 76, 100
2, 566204, Note_off_c, 0, 88, 100
2, 566204, Note_off_c, 0, 76, 100
2, 566208, Note_on_c, 0, 90, 120
2, 566208, Note_on_c, 0, 78, 120
2, 566780, Note_off_c, 0, 90, 100
2, 566780, Note_off_c, 0, 78, 100
2, 566784, Note_on_c, 0, 84, 100
2, 566784, Note_on_c, 0, 72, 100
2, 567932, Note_off_c, 0, 72, 100
2, 567932, Note_off_c, 0, 84, 100
2, 567936, Note_on_c, 0, 87, 100
2, 567936, Note_on_c, 0, 75, 100
2, 568412, Note_off_c, 0, 87, 100
2, 568412, Note_off_c, 0, 75, 100
2, 568416, Note_on_c, 0, 84, 100
2, 568416, Note_on_c, 0, 72, 100
2, 568508, Note_off_c, 0, 84, 100
2, 568508, Note_off_c, 0, 72, 100
2, 568512, Note_on_c, 0, 89, 100
2, 568512, Note_on_c, 0, 77, 100
2, 569084, Note_off_c, 0, 89, 100
2, 569084, Note_off_c, 0, 77, 100
2, 569088, Note_on_c, 0, 82, 101
2, 569088, Note_on_c, 0, 70, 101
2, 570236, Note_off_c, 0, 70, 100
2, 570236, Note_off_c, 0, 82, 100
2, 570240, Note_on_c, 0, 85, 103
2, 570240, Note_on_c, 0, 73, 103
2, 570716, Note_off_c, 0, 85, 100
2, 570716, Note_off_c, 0, 73, 100
2, 570720, Note_on_c, 0, 82, 104
2, 570720, Note_on_c, 0, 70, 104
2, 570812, Note_off_c, 0, 82, 100
2, 570812, Note_off_c, 0, 70, 100
2, 570816, Note_on_c, 0, 80, 104
2, 570816, Note_on_c, 0, 68, 104
2, 571388, Note_off_c, 0, 80, 100
2, 571388, Note_off_c, 0, 68, 100
2, 571392, Note_on_c, 0, 84, 106
2, 571392, Note_on_c, 0, 72, 106
2, 571868, Note_off_c, 0, 84, 100
2, 571868, Note_off_c, 0, 72, 100
2, 571872, Note_on_c, 0, 80, 107
2, 571872, Note_on_c, 0, 68, 107
2, 571964, Note_off_c, 0, 80, 100
2, 571964, Note_off_c, 0, 68, 100
2, 571968, Note_on_c, 0, 79, 107
2, 571968, Note_on_c, 0, 67, 107
2, 572540, Note_off_c, 0, 79, 100
2, 572540, Note_off_c, 0, 67, 100
2, 572544, Note_on_c, 0, 84, 108
2, 572544, Note_on_c, 0, 72, 108
2, 572924, Note_off_c, 0, 84, 100
2, 572924, Note_off_c, 0, 72, 100
2, 572928, Note_on_c, 0, 84, 109
2, 572928, Note_on_c, 0, 72, 109
2, 573116, Note_off_c, 0, 84, 100
2, 573116, Note_off_c, 0, 72, 100
2, 573120, Note_on_c, 0, 72, 110
2, 573120, Note_on_c, 0, 84, 110
2, 573308, Note_off_c, 0, 72, 100
2, 573308, Note_off_c, 0, 84, 100
2, 573312, Note_on_c, 0, 72, 110
2, 573312, Note_on_c, 0, 68, 110
2, 573312, Note_on_c, 0, 65, 110
2, 573312, Note_on_c, 0, 60, 110
2, 573500, Note_off_c, 0, 72, 100
2, 573500, Note_off_c, 0, 68, 100
2, 573500, Note_off_c, 0, 65, 100
2, 573500, Note_off_c, 0, 60, 100
2, 573504, Note_on_c, 0, 72, 110
2, 573504, Note_on_c, 0, 68, 110
2, 573504, Note_on_c, 0, 65, 110
2, 573504, Note_on_c, 0, 60, 110
2, 573692, Note_off_c, 0, 72, 100
2, 573692, Note_off_c, 0, 68, 100
2, 573692, Note_off_c, 0, 65, 100
2, 573692, Note_off_c, 0, 60, 100
2, 573696, Note_on_c, 0, 72, 120
2, 573696, Note_on_c, 0, 68, 120
2, 573696, Note_on_c, 0, 65, 120
2, 573696, Note_on_c, 0, 60, 120
2, 574268, Note_off_c, 0, 72, 100
2, 574268, Note_off_c, 0, 68, 100
2, 574268, Note_off_c, 0, 65, 100
2, 574268, Note_off_c, 0, 60, 100
2, 574464, Note_on_c, 0, 72, 110
2, 574464, Note_on_c, 0, 67, 110
2, 574464, Note_on_c, 0, 64, 110
2, 574464, Note_on_c, 0, 60, 110
2, 574652, Note_off_c, 0, 72, 100
2, 574652, Note_off_c, 0, 67, 100
2, 574652, Note_off_c, 0, 64, 100
2, 574652, Note_off_c, 0, 60, 100
2, 574656, Note_on_c, 0, 72, 110
2, 574656, Note_on_c, 0, 67, 110
2, 574656, Note_on_c, 0, 64, 110
2, 574656, Note_on_c, 0, 60, 110
2, 574844, Note_off_c, 0, 72, 100
2, 574844, Note_off_c, 0, 67, 100
2, 574844, Note_off_c, 0, 64, 100
2, 574844, Note_off_c, 0, 60, 100
2, 574848, Note_on_c, 0, 72, 120
2, 574848, Note_on_c, 0, 70, 120
2, 574848, Note_on_c, 0, 67, 120
2, 574848, Note_on_c, 0, 60, 120
2, 575420, Note_off_c, 0, 72, 100
2, 575420, Note_off_c, 0, 70, 100
2, 575420, Note_off_c, 0, 67, 100
2, 575420, Note_off_c, 0, 60, 100
2, 575616, Note_on_c, 0, 72, 110
2, 575616, Note_on_c, 0, 68, 110
2, 575616, Note_on_c, 0, 65, 110
2, 575616, Note_on_c, 0, 60, 110
2, 575804, Note_off_c, 0, 72, 100
2, 575804, Note_off_c, 0, 68, 100
2, 575804, Note_off_c, 0, 65, 100
2, 575804, Note_off_c, 0, 60, 100
2, 575808, Note_on_c, 0, 72, 110
2, 575808, Note_on_c, 0, 68, 110
2, 575808, Note_on_c, 0, 65, 110
2, 575808, Note_on_c, 0, 60, 110
2, 575996, Note_off_c, 0, 72, 100
2, 575996, Note_off_c, 0, 68, 100
2, 575996, Note_off_c, 0, 65, 100
2, 575996, Note_off_c, 0, 60, 100
2, 576000, Note_on_c, 0, 72, 120
2, 576000, Note_on_c, 0, 68, 120
2, 576000, Note_on_c, 0, 65, 120
2, 576000, Note_on_c, 0, 60, 120
2, 576572, Note_off_c, 0, 72, 100
2, 576572, Note_off_c, 0, 68, 100
2, 576572, Note_off_c, 0, 65, 100
2, 576572, Note_off_c, 0, 60, 100
2, 576576, Note_on_c, 0, 65, 110
2, 576764, Note_off_c, 0, 65, 100
2, 576768, Note_on_c, 0, 72, 110
2, 576768, Note_on_c, 0, 67, 110
2, 576768, Note_on_c, 0, 64, 110
2, 576768, Note_on_c, 0, 60, 110
2, 576956, Note_off_c, 0, 72, 100
2, 576956, Note_off_c, 0, 67, 100
2, 576956, Note_off_c, 0, 64, 100
2, 576956, Note_off_c, 0, 60, 100
2, 576960, Note_on_c, 0, 72, 110
2, 576960, Note_on_c, 0, 67, 110
2, 576960, Note_on_c, 0, 64, 110
2, 576960, Note_on_c, 0, 60, 110
2, 577148, Note_off_c, 0, 72, 100
2, 577148, Note_off_c, 0, 67, 100
2, 577148, Note_off_c, 0, 64, 100
2, 577148, Note_off_c, 0, 60, 100
2, 577152, Note_on_c, 0, 72, 120
2, 577152, Note_on_c, 0, 70, 120
2, 577152, Note_on_c, 0, 67, 120
2, 577152, Note_on_c, 0, 60, 120
2, 577724, Note_off_c, 0, 72, 100
2, 577724, Note_off_c, 0, 70, 100
2, 577724, Note_off_c, 0, 67, 100
2, 577724, Note_off_c, 0, 60, 100
2, 577920, Note_on_c, 0, 72, 110
2, 577920, Note_on_c, 0, 68, 110
2, 577920, Note_on_c, 0, 65, 110
2, 577920, Note_on_c, 0, 60, 110
2, 578108, Note_off_c, 0, 72, 100
2, 578108, Note_off_c, 0, 68, 100
2, 578108, Note_off_c, 0, 65, 100
2, 578108, Note_off_c, 0, 60, 100
2, 578304, Note_on_c, 0, 73, 110
2, 578304, Note_on_c, 0, 67, 110
2, 578304, Note_on_c, 0, 65, 110
2, 578304, Note_on_c, 0, 61, 110
2, 578492, Note_off_c, 0, 73, 100
2, 578492, Note_off_c, 0, 67, 100
2, 578492, Note_off_c, 0, 65, 100
2, 578492, Note_off_c, 0, 61, 100
2, 578688, Note_on_c, 0, 73, 110
2, 578688, Note_on_c, 0, 67, 110
2, 578688, Note_on_c, 0, 65, 110
2, 578688, Note_on_c, 0, 61, 110
2, 578876, Note_off_c, 0, 73, 100
2, 578876, Note_off_c, 0, 67, 100
2, 578876, Note_off_c, 0, 65, 100
2, 578876, Note_off_c, 0, 61, 100
2, 579072, Note_on_c, 0, 72, 110
2, 579072, Note_on_c, 0, 68, 110
2, 579072, Note_on_c, 0, 65, 110
2, 579072, Note_on_c, 0, 60, 110
2, 579260, Note_off_c, 0, 72, 100
2, 579260, Note_off_c, 0, 68, 100
2, 579260, Note_off_c, 0, 65, 100
2, 579260, Note_off_c, 0, 60, 100
2, 579456, Note_on_c, 0, 72, 110
2, 579456, Note_on_c, 0, 67, 110
2, 579456, Note_on_c, 0, 64, 110
2, 579456, Note_on_c, 0, 60, 110
2, 579644, Note_off_c, 0, 72, 100
2, 579644, Note_off_c, 0, 67, 100
2, 579644, Note_off_c, 0, 64, 100
2, 579644, Note_off_c, 0, 60, 100
2, 579840, Note_on_c, 0, 72, 110
2, 579840, Note_on_c, 0, 67, 110
2, 579840, Note_on_c, 0, 64, 110
2, 579840, Note_on_c, 0, 60, 110
2, 580028, Note_off_c, 0, 72, 100
2, 580028, Note_off_c, 0, 67, 100
2, 580028, Note_off_c, 0, 64, 100
2, 580028, Note_off_c, 0, 60, 100
2, 580032, Note_on_c, 0, 72, 110
2, 580032, Note_on_c, 0, 60, 110
2, 580032, Note_on_c, 0, 68, 110
2, 580032, Note_on_c, 0, 65, 110
2, 580220, Note_off_c, 0, 72, 100
2, 580220, Note_off_c, 0, 60, 100
2, 580220, Note_off_c, 0, 68, 100
2, 580220, Note_off_c, 0, 65, 100
2, 580224, Note_on_c, 0, 60, 110
2, 580224, Note_on_c, 0, 56, 110
2, 580224, Note_on_c, 0, 53, 110
2, 580224, Note_on_c, 0, 48, 110
2, 580412, Note_off_c, 0, 60, 100
2, 580412, Note_off_c, 0, 56, 100
2, 580412, Note_off_c, 0, 53, 100
2, 580412, Note_off_c, 0, 48, 100
2, 580416, Note_on_c, 0, 60, 110
2, 580416, Note_on_c, 0, 56, 110
2, 580416, Note_on_c, 0, 53, 110
2, 580416, Note_on_c, 0, 48, 110
2, 580604, Note_off_c, 0, 60, 100
2, 580604, Note_off_c, 0, 56, 100
2, 580604, Note_off_c, 0, 53, 100
2, 580604, Note_off_c, 0, 48, 100
2, 580608, Note_on_c, 0, 60, 120
2, 580608, Note_on_c, 0, 56, 120
2, 580608, Note_on_c, 0, 53, 120
2, 580608, Note_on_c, 0, 48, 120
2, 581180, Note_off_c, 0, 60, 100
2, 581180, Note_off_c, 0, 56, 100
2, 581180, Note_off_c, 0, 53, 100
2, 581180, Note_off_c, 0, 48, 100
2, 581376, Note_on_c, 0, 60, 110
2, 581376, Note_on_c, 0, 55, 110
2, 581376, Note_on_c, 0, 52, 110
2, 581376, Note_on_c, 0, 48, 110
2, 581564, Note_off_c, 0, 60, 100
2, 581564, Note_off_c, 0, 55, 100
2, 581564, Note_off_c, 0, 52, 100
2, 581564, Note_off_c, 0, 48, 100
2, 581568, Note_on_c, 0, 60, 110
2, 581568, Note_on_c, 0, 55, 110
2, 581568, Note_on_c, 0, 52, 110
2, 581568, Note_on_c, 0, 48, 110
2, 581756, Note_off_c, 0, 60, 100
2, 581756, Note_off_c, 0, 55, 100
2, 581756, Note_off_c, 0, 52, 100
2, 581756, Note_off_c, 0, 48, 100
2, 581760, Note_on_c, 0, 60, 120
2, 581760, Note_on_c, 0, 58, 120
2, 581760, Note_on_c, 0, 55, 120
2, 581760, Note_on_c, 0, 48, 120
2, 582332, Note_off_c, 0, 60, 100
2, 582332, Note_off_c, 0, 58, 100
2, 582332, Note_off_c, 0, 55, 100
2, 582332, Note_off_c, 0, 48, 100
2, 582528, Note_on_c, 0, 60, 110
2, 582528, Note_on_c, 0, 56, 110
2, 582528, Note_on_c, 0, 53, 110
2, 582528, Note_on_c, 0, 48, 110
2, 582716, Note_off_c, 0, 60, 100
2, 582716, Note_off_c, 0, 56, 100
2, 582716, Note_off_c, 0, 53, 100
2, 582716, Note_off_c, 0, 48, 100
2, 582720, Note_on_c, 0, 60, 110
2, 582720, Note_on_c, 0, 56, 110
2, 582720, Note_on_c, 0, 53, 110
2, 582720, Note_on_c, 0, 48, 110
2, 582908, Note_off_c, 0, 60, 100
2, 582908, Note_off_c, 0, 56, 100
2, 582908, Note_off_c, 0, 53, 100
2, 582908, Note_off_c, 0, 48, 100
2, 582912, Note_on_c, 0, 60, 120
2, 582912, Note_on_c, 0, 56, 120
2, 582912, Note_on_c, 0, 53, 120
2, 582912, Note_on_c, 0, 48, 120
2, 583484, Note_off_c, 0, 60, 100
2, 583484, Note_off_c, 0, 56, 100
2, 583484, Note_off_c, 0, 53, 100
2, 583484, Note_off_c, 0, 48, 100
2, 583488, Note_on_c, 0, 53, 110
2, 583676, Note_off_c, 0, 53, 100
2, 583680, Note_on_c, 0, 60, 110
2, 583680, Note_on_c, 0, 55, 110
2, 583680, Note_on_c, 0, 52, 110
2, 583680, Note_on_c, 0, 48, 110
2, 583868, Note_off_c, 0, 60, 100
2, 583868, Note_off_c, 0, 55, 100
2, 583868, Note_off_c, 0, 52, 100
2, 583868, Note_off_c, 0, 48, 100
2, 583872, Note_on_c, 0, 60, 110
2, 583872, Note_on_c, 0, 55, 110
2, 583872, Note_on_c, 0, 52, 110
2, 583872, Note_on_c, 0, 48, 110
2, 584060, Note_off_c, 0, 60, 100
2, 584060, Note_off_c, 0, 55, 100
2, 584060, Note_off_c, 0, 52, 100
2, 584060, Note_off_c, 0, 48, 100
2, 584064, Note_on_c, 0, 60, 120
2, 584064, Note_on_c, 0, 58, 120
2, 584064, Note_on_c, 0, 55, 120
2, 584064, Note_on_c, 0, 48, 120
2, 584636, Note_off_c, 0, 60, 100
2, 584636, Note_off_c, 0, 58, 100
2, 584636, Note_off_c, 0, 55, 100
2, 584636, Note_off_c, 0, 48, 100
2, 584832, Note_on_c, 0, 60, 110
2, 584832, Note_on_c, 0, 56, 110
2, 584832, Note_on_c, 0, 53, 110
2, 584832, Note_on_c, 0, 48, 110
2, 585020, Note_off_c, 0, 60, 100
2, 585020, Note_off_c, 0, 56, 100
2, 585020, Note_off_c, 0, 53, 100
2, 585020, Note_off_c, 0, 48, 100
2, 585216, Note_on_c, 0, 61, 110
2, 585216, Note_on_c, 0, 55, 110
2, 585216, Note_on_c, 0, 53, 110
2, 585216, Note_on_c, 0, 49, 110
2, 585404, Note_off_c, 0, 61, 100
2, 585404, Note_off_c, 0, 55, 100
2, 585404, Note_off_c, 0, 53, 100
2, 585404, Note_off_c, 0, 49, 100
2, 585600, Note_on_c, 0, 61, 110
2, 585600, Note_on_c, 0, 55, 110
2, 585600, Note_on_c, 0, 53, 110
2, 585600, Note_on_c, 0, 49, 110
2, 585788, Note_off_c, 0, 61, 100
2, 585788, Note_off_c, 0, 55, 100
2, 585788, Note_off_c, 0, 53, 100
2, 585788, Note_off_c, 0, 49, 100
2, 585984, Note_on_c, 0, 60, 110
2, 585984, Note_on_c, 0, 56, 110
2, 585984, Note_on_c, 0, 53, 110
2, 585984, Note_on_c, 0, 48, 110
2, 586172, Note_off_c, 0, 60, 100
2, 586172, Note_off_c, 0, 56, 100
2, 586172, Note_off_c, 0, 53, 100
2, 586172, Note_off_c, 0, 48, 100
2, 586368, Note_on_c, 0, 60, 110
2, 586368, Note_on_c, 0, 55, 110
2, 586368, Note_on_c, 0, 52, 110
2, 586368, Note_on_c, 0, 48, 110
2, 586556, Note_off_c, 0, 60, 100
2, 586556, Note_off_c, 0, 55, 100
2, 586556, Note_off_c, 0, 52, 100
2, 586556, Note_off_c, 0, 48, 100
2, 586752, Note_on_c, 0, 60, 110
2, 586752, Note_on_c, 0, 55, 110
2, 586752, Note_on_c, 0, 52, 110
2, 586752, Note_on_c, 0, 48, 110
2, 586940, Note_off_c, 0, 60, 100
2, 586940, Note_off_c, 0, 55, 100
2, 586940, Note_off_c, 0, 52, 100
2, 586940, Note_off_c, 0, 48, 100
2, 587136, Note_on_c, 0, 72, 110
2, 587136, Note_on_c, 0, 68, 110
2, 587136, Note_on_c, 0, 65, 110
2, 587136, Note_on_c, 0, 60, 110
2, 587324, Note_off_c, 0, 72, 100
2, 587324, Note_off_c, 0, 68, 100
2, 587324, Note_off_c, 0, 65, 100
2, 587324, Note_off_c, 0, 60, 100
2, 587520, Note_on_c, 0, 73, 110
2, 587520, Note_on_c, 0, 67, 110
2, 587520, Note_on_c, 0, 65, 110
2, 587520, Note_on_c, 0, 61, 110
2, 587708, Note_off_c, 0, 73, 100
2, 587708, Note_off_c, 0, 67, 100
2, 587708, Note_off_c, 0, 65, 100
2, 587708, Note_off_c, 0, 61, 100
2, 587904, Note_on_c, 0, 73, 110
2, 587904, Note_on_c, 0, 67, 110
2, 587904, Note_on_c, 0, 65, 110
2, 587904, Note_on_c, 0, 61, 110
2, 588092, Note_off_c, 0, 73, 100
2, 588092, Note_off_c, 0, 67, 100
2, 588092, Note_off_c, 0, 65, 100
2, 588092, Note_off_c, 0, 61, 100
2, 588288, Note_on_c, 0, 72, 110
2, 588288, Note_on_c, 0, 68, 110
2, 588288, Note_on_c, 0, 65, 110
2, 588288, Note_on_c, 0, 60, 110
2, 588476, Note_off_c, 0, 72, 100
2, 588476, Note_off_c, 0, 68, 100
2, 588476, Note_off_c, 0, 65, 100
2, 588476, Note_off_c, 0, 60, 100
2, 588672, Note_on_c, 0, 72, 110
2, 588672, Note_on_c, 0, 67, 110
2, 588672, Note_on_c, 0, 64, 110
2, 588672, Note_on_c, 0, 60, 110
2, 588860, Note_off_c, 0, 72, 100
2, 588860, Note_off_c, 0, 67, 100
2, 588860, Note_off_c, 0, 64, 100
2, 588860, Note_off_c, 0, 60, 100
2, 589056, Note_on_c, 0, 72, 110
2, 589056, Note_on_c, 0, 67, 110
2, 589056, Note_on_c, 0, 64, 110
2, 589056, Note_on_c, 0, 60, 110
2, 589244, Note_off_c, 0, 72, 100
2, 589244, Note_off_c, 0, 67, 100
2, 589244, Note_off_c, 0, 64, 100
2, 589244, Note_off_c, 0, 60, 100
2, 589440, Note_on_c, 0, 84, 120
2, 589440, Note_on_c, 0, 80, 120
2, 589440, Note_on_c, 0, 77, 120
2, 589440, Note_on_c, 0, 72, 120
2, 589628, Note_off_c, 0, 84, 100
2, 589628, Note_off_c, 0, 80, 100
2, 589628, Note_off_c, 0, 77, 100
2, 589628, Note_off_c, 0, 72, 100
2, 589824, Note_on_c, 0, 85, 120
2, 589824, Note_on_c, 0, 79, 120
2, 589824, Note_on_c, 0, 77, 120
2, 589824, Note_on_c, 0, 73, 120
2, 590012, Note_off_c, 0, 85, 100
2, 590012, Note_off_c, 0, 79, 100
2, 590012, Note_off_c, 0, 77, 100
2, 590012, Note_off_c, 0, 73, 100
2, 590208, Note_on_c, 0, 85, 120
2, 590208, Note_on_c, 0, 79, 120
2, 590208, Note_on_c, 0, 77, 120
2, 590208, Note_on_c, 0, 73, 120
2, 590396, Note_off_c, 0, 85, 100
2, 590396, Note_off_c, 0, 79, 100
2, 590396, Note_off_c, 0, 77, 100
2, 590396, Note_off_c, 0, 73, 100
2, 590592, Note_on_c, 0, 84, 120
2, 590592, Note_on_c, 0, 80, 120
2, 590592, Note_on_c, 0, 77, 120
2, 590592, Note_on_c, 0, 72, 120
2, 590780, Note_off_c, 0, 84, 100
2, 590780, Note_off_c, 0, 80, 100
2, 590780, Note_off_c, 0, 77, 100
2, 590780, Note_off_c, 0, 72, 100
2, 590976, Note_on_c, 0, 84, 120
2, 590976, Note_on_c, 0, 79, 120
2, 590976, Note_on_c, 0, 76, 120
2, 590976, Note_on_c, 0, 72, 120
2, 591164, Note_off_c, 0, 84, 100
2, 591164, Note_off_c, 0, 79, 100
2, 591164, Note_off_c, 0, 76, 100
2, 591164, Note_off_c, 0, 72, 100
2, 591360, Note_on_c, 0, 84, 120
2, 591360, Note_on_c, 0, 79, 120
2, 591360, Note_on_c, 0, 76, 120
2, 591360, Note_on_c, 0, 72, 120
2, 591548, Note_off_c, 0, 84, 100
2, 591548, Note_off_c, 0, 79, 100
2, 591548, Note_off_c, 0, 76, 100
2, 591548, Note_off_c, 0, 72, 100
2, 591552, Note_on_c, 0, 60, 110
2, 591648, Note_on_c, 0, 56, 105
2, 591740, Note_off_c, 0, 60, 100
2, 591744, Note_on_c, 0, 60, 99
2, 591836, Note_off_c, 0, 56, 100
2, 591840, Note_on_c, 0, 56, 93
2, 591932, Note_off_c, 0, 60, 100
2, 591936, Note_on_c, 0, 60, 87
2, 592028, Note_off_c, 0, 56, 100
2, 592032, Note_on_c, 0, 56, 81
2, 592124, Note_off_c, 0, 60, 100
2, 592128, Note_on_c, 0, 60, 80
2, 592220, Note_off_c, 0, 56, 100
2, 592224, Note_on_c, 0, 56, 80
2, 592316, Note_off_c, 0, 60, 100
2, 592320, Note_on_c, 0, 60, 80
2, 592412, Note_off_c, 0, 56, 100
2, 592416, Note_on_c, 0, 56, 80
2, 592508, Note_off_c, 0, 60, 100
2, 592512, Note_on_c, 0, 60, 80
2, 592604, Note_off_c, 0, 56, 100
2, 592608, Note_on_c, 0, 56, 80
2, 592700, Note_off_c, 0, 60, 100
2, 592704, Note_on_c, 0, 60, 80
2, 592796, Note_off_c, 0, 56, 100
2, 592800, Note_on_c, 0, 56, 80
2, 592892, Note_off_c, 0, 60, 100
2, 592896, Note_on_c, 0, 60, 79
2, 592988, Note_off_c, 0, 56, 100
2, 592992, Note_on_c, 0, 56, 79
2, 593084, Note_off_c, 0, 60, 100
2, 593088, Note_on_c, 0, 60, 79
2, 593180, Note_off_c, 0, 56, 100
2, 593184, Note_on_c, 0, 56, 79
2, 593276, Note_off_c, 0, 60, 100
2, 593280, Note_on_c, 0, 60, 79
2, 593372, Note_off_c, 0, 56, 100
2, 593376, Note_on_c, 0, 56, 79
2, 593468, Note_off_c, 0, 60, 100
2, 593472, Note_on_c, 0, 60, 79
2, 593564, Note_off_c, 0, 56, 100
2, 593568, Note_on_c, 0, 56, 79
2, 593660, Note_off_c, 0, 60, 100
2, 593664, Note_on_c, 0, 60, 78
2, 593756, Note_off_c, 0, 56, 100
2, 593760, Note_on_c, 0, 56, 78
2, 593852, Note_off_c, 0, 60, 100
2, 593856, Note_on_c, 0, 56, 78
2, 593856, Note_on_c, 0, 60, 78
2, 593948, Note_off_c, 0, 56, 100
2, 593948, Note_off_c, 0, 56, 100
2, 593952, Note_on_c, 0, 56, 78
2, 594044, Note_off_c, 0, 60, 100
2, 594048, Note_on_c, 0, 60, 78
2, 594140, Note_off_c, 0, 56, 100
2, 594144, Note_on_c, 0, 56, 78
2, 594236, Note_off_c, 0, 60, 100
2, 594240, Note_on_c, 0, 60, 78
2, 594332, Note_off_c, 0, 56, 100
2, 594336, Note_on_c, 0, 56, 78
2, 594428, Note_off_c, 0, 60, 100
2, 594432, Note_on_c, 0, 60, 77
2, 594524, Note_off_c, 0, 56, 100
2, 594528, Note_on_c, 0, 56, 77
2, 594620, Note_off_c, 0, 60, 100
2, 594624, Note_on_c, 0, 60, 77
2, 594716, Note_off_c, 0, 56, 100
2, 594720, Note_on_c, 0, 56, 77
2, 594812, Note_off_c, 0, 60, 100
2, 594816, Note_on_c, 0, 60, 77
2, 594908, Note_off_c, 0, 56, 100
2, 594912, Note_on_c, 0, 56, 77
2, 595004, Note_off_c, 0, 60, 100
2, 595008, Note_on_c, 0, 60, 77
2, 595100, Note_off_c, 0, 56, 100
2, 595104, Note_on_c, 0, 56, 77
2, 595196, Note_off_c, 0, 60, 100
2, 595200, Note_on_c, 0, 60, 76
2, 595292, Note_off_c, 0, 56, 100
2, 595296, Note_on_c, 0, 56, 76
2, 595388, Note_off_c, 0, 60, 100
2, 595392, Note_on_c, 0, 60, 76
2, 595484, Note_off_c, 0, 56, 100
2, 595488, Note_on_c, 0, 56, 76
2, 595580, Note_off_c, 0, 60, 100
2, 595584, Note_on_c, 0, 60, 76
2, 595676, Note_off_c, 0, 56, 100
2, 595680, Note_on_c, 0, 56, 76
2, 595772, Note_off_c, 0, 60, 100
2, 595776, Note_on_c, 0, 60, 76
2, 595868, Note_off_c, 0, 56, 100
2, 595872, Note_on_c, 0, 56, 76
2, 595964, Note_off_c, 0, 60, 100
2, 595968, Note_on_c, 0, 60, 75
2, 596060, Note_off_c, 0, 56, 100
2, 596064, Note_on_c, 0, 56, 75
2, 596156, Note_off_c, 0, 60, 100
2, 596160, Note_on_c, 0, 60, 75
2, 596252, Note_off_c, 0, 56, 100
2, 596256, Note_on_c, 0, 56, 75
2, 596348, Note_off_c, 0, 60, 100
2, 596352, Note_on_c, 0, 60, 75
2, 596444, Note_off_c, 0, 56, 100
2, 596448, Note_on_c, 0, 56, 75
2, 596540, Note_off_c, 0, 60, 100
2, 596544, Note_on_c, 0, 60, 75
2, 596636, Note_off_c, 0, 56, 100
2, 596640, Note_on_c, 0, 56, 74
2, 596732, Note_off_c, 0, 60, 100
2, 596736, Note_on_c, 0, 68, 74
2, 596828, Note_off_c, 0, 56, 100
2, 596832, Note_on_c, 0, 65, 74
2, 596924, Note_off_c, 0, 68, 100
2, 596928, Note_on_c, 0, 68, 74
2, 597020, Note_off_c, 0, 65, 100
2, 597024, Note_on_c, 0, 65, 74
2, 597116, Note_off_c, 0, 68, 100
2, 597120, Note_on_c, 0, 68, 74
2, 597212, Note_off_c, 0, 65, 100
2, 597216, Note_on_c, 0, 65, 74
2, 597308, Note_off_c, 0, 68, 100
2, 597312, Note_on_c, 0, 72, 74
2, 597404, Note_off_c, 0, 65, 100
2, 597408, Note_on_c, 0, 68, 73
2, 597500, Note_off_c, 0, 72, 100
2, 597504, Note_on_c, 0, 72, 73
2, 597596, Note_off_c, 0, 68, 100
2, 597600, Note_on_c, 0, 68, 73
2, 597692, Note_off_c, 0, 72, 100
2, 597696, Note_on_c, 0, 72, 73
2, 597788, Note_off_c, 0, 68, 100
2, 597792, Note_on_c, 0, 68, 73
2, 597884, Note_off_c, 0, 72, 100
2, 597888, Note_on_c, 0, 72, 73
2, 597980, Note_off_c, 0, 68, 100
2, 597984, Note_on_c, 0, 68, 73
2, 598076, Note_off_c, 0, 72, 100
2, 598080, Note_on_c, 0, 72, 73
2, 598172, Note_off_c, 0, 68, 100
2, 598176, Note_on_c, 0, 68, 72
2, 598268, Note_off_c, 0, 72, 100
2, 598272, Note_on_c, 0, 72, 72
2, 598364, Note_off_c, 0, 68, 100
2, 598368, Note_on_c, 0, 68, 72
2, 598460, Note_off_c, 0, 72, 100
2, 598464, Note_on_c, 0, 72, 72
2, 598556, Note_off_c, 0, 68, 100
2, 598560, Note_on_c, 0, 68, 72
2, 598652, Note_off_c, 0, 72, 100
2, 598656, Note_on_c, 0, 72, 72
2, 598748, Note_off_c, 0, 68, 100
2, 598752, Note_on_c, 0, 68, 72
2, 598844, Note_off_c, 0, 72, 100
2, 598848, Note_on_c, 0, 72, 72
2, 598940, Note_off_c, 0, 68, 100
2, 598944, Note_on_c, 0, 68, 71
2, 599036, Note_off_c, 0, 72, 100
2, 599040, Note_on_c, 0, 72, 71
2, 599132, Note_off_c, 0, 68, 100
2, 599136, Note_on_c, 0, 68, 71
2, 599228, Note_off_c, 0, 72, 100
2, 599232, Note_on_c, 0, 72, 71
2, 599324, Note_off_c, 0, 68, 100
2, 599328, Note_on_c, 0, 68, 71
2, 599420, Note_off_c, 0, 72, 100
2, 599424, Note_on_c, 0, 72, 71
2, 599516, Note_off_c, 0, 68, 100
2, 599520, Note_on_c, 0, 68, 71
2, 599612, Note_off_c, 0, 72, 100
2, 599616, Note_on_c, 0, 72, 70
2, 599708, Note_off_c, 0, 68, 100
2, 599712, Note_on_c, 0, 68, 70
2, 599804, Note_off_c, 0, 72, 100
2, 599808, Note_on_c, 0, 72, 69
2, 599900, Note_off_c, 0, 68, 100
2, 599904, Note_on_c, 0, 68, 68
2, 599996, Note_off_c, 0, 72, 100
2, 600000, Note_on_c, 0, 72, 67
2, 600092, Note_off_c, 0, 68, 100
2, 600096, Note_on_c, 0, 68, 66
2, 600188, Note_off_c, 0, 72, 100
2, 600192, Note_on_c, 0, 72, 66
2, 600284, Note_off_c, 0, 68, 100
2, 600288, Note_on_c, 0, 68, 65
2, 600380, Note_off_c, 0, 72, 100
2, 600384, Note_on_c, 0, 72, 64
2, 600476, Note_off_c, 0, 68, 100
2, 600480, Note_on_c, 0, 68, 63
2, 600572, Note_off_c, 0, 72, 100
2, 600576, Note_on_c, 0, 72, 62
2, 600668, Note_off_c, 0, 68, 100
2, 600672, Note_on_c, 0, 68, 61
2, 600764, Note_off_c, 0, 72, 100
2, 600768, Note_on_c, 0, 72, 60
2, 600860, Note_off_c, 0, 68, 100
2, 600864, Note_on_c, 0, 68, 60
2, 600956, Note_off_c, 0, 72, 100
2, 600960, Note_on_c, 0, 72, 60
2, 601052, Note_off_c, 0, 68, 100
2, 601056, Note_on_c, 0, 68, 60
2, 601148, Note_off_c, 0, 72, 100
2, 601152, Note_on_c, 0, 72, 60
2, 601244, Note_off_c, 0, 68, 100
2, 601248, Note_on_c, 0, 68, 60
2, 601340, Note_off_c, 0, 72, 100
2, 601344, Note_on_c, 0, 72, 60
2, 601436, Note_off_c, 0, 68, 100
2, 601440, Note_on_c, 0, 68, 60
2, 601532, Note_off_c, 0, 72, 100
2, 601536, Note_on_c, 0, 72, 60
2, 601628, Note_off_c, 0, 68, 100
2, 601632, Note_on_c, 0, 68, 60
2, 601724, Note_off_c, 0, 72, 100
2, 601728, Note_on_c, 0, 72, 60
2, 601820, Note_off_c, 0, 68, 100
2, 601824, Note_on_c, 0, 68, 60
2, 601916, Note_off_c, 0, 72, 100
2, 601920, Note_on_c, 0, 72, 60
2, 602012, Note_off_c, 0, 68, 100
2, 602016, Note_on_c, 0, 68, 60
2, 602108, Note_off_c, 0, 72, 100
2, 602112, Note_on_c, 0, 72, 60
2, 602204, Note_off_c, 0, 68, 100
2, 602208, Note_on_c, 0, 68, 60
2, 602300, Note_off_c, 0, 72, 100
2, 602304, Note_on_c, 0, 72, 60
2, 602396, Note_off_c, 0, 68, 100
2, 602400, Note_on_c, 0, 68, 60
2, 602492, Note_off_c, 0, 72, 100
2, 602496, Note_on_c, 0, 72, 60
2, 602588, Note_off_c, 0, 68, 100
2, 602592, Note_on_c, 0, 68, 60
2, 602684, Note_off_c, 0, 72, 100
2, 602688, Note_on_c, 0, 72, 60
2, 602780, Note_off_c, 0, 68, 100
2, 602784, Note_on_c, 0, 68, 60
2, 602876, Note_off_c, 0, 72, 100
2, 602880, Note_on_c, 0, 72, 60
2, 602972, Note_off_c, 0, 68, 100
2, 602976, Note_on_c, 0, 68, 60
2, 603164, Note_off_c, 0, 68, 100
2, 603164, Note_off_c, 0, 72, 64
2, 603168, Note_on_c, 0, 72, 60
2, 603168, Note_on_c, 0, 68, 60
2, 605468, Note_off_c, 0, 68, 100
2, 605468, Note_off_c, 0, 72, 100
2, 605760, Control_c, 0, 7, 0
2, 605952, Note_on_c, 0, 65, 1
2, 606140, Note_off_c, 0, 65, 100
2, 606140, End_track
3, 0, Start_track
3, 0, Title_t, "Left"
3, 0, Control_c, 1, 0, 0
3, 0, Program_c, 1, 0
3, 0, Control_c, 1, 7, 100
3, 0, Control_c, 1, 10, 54
3, 0, Control_c, 1, 91, 127
3, 0, Key_signature, -4, "minor"
3, 0, Note_on_c, 1, 36, 70
3, 476, Note_off_c, 1, 36, 100
3, 480, Note_on_c, 1, 32, 70
3, 572, Note_off_c, 1, 32, 100
3, 576, Note_on_c, 1, 29, 70
3, 2300, Note_off_c, 1, 29, 100
3, 2304, Note_on_c, 1, 32, 70
3, 2780, Note_off_c, 1, 32, 100
3, 2784, Note_on_c, 1, 36, 70
3, 2876, Note_off_c, 1, 36, 100
3, 2880, Note_on_c, 1, 41, 70
3, 3452, Note_off_c, 1, 41, 100
3, 3456, Note_on_c, 1, 44, 70
3, 3932, Note_off_c, 1, 44, 100
3, 3936, Note_on_c, 1, 48, 70
3, 4028, Note_off_c, 1, 48, 100
3, 4032, Note_on_c, 1, 53, 70
3, 4604, Note_off_c, 1, 53, 100
3, 4608, Note_on_c, 1, 56, 70
3, 5180, Note_off_c, 1, 56, 100
3, 5184, Note_on_c, 1, 60, 70
3, 5184, Note_on_c, 1, 55, 70
3, 5184, Note_on_c, 1, 52, 70
3, 6332, Note_off_c, 1, 60, 100
3, 6332, Note_off_c, 1, 55, 100
3, 6332, Note_off_c, 1, 52, 100
3, 6336, Note_on_c, 1, 59, 70
3, 6336, Note_on_c, 1, 56, 70
3, 6336, Note_on_c, 1, 53, 70
3, 7484, Note_off_c, 1, 59, 100
3, 7484, Note_off_c, 1, 56, 100
3, 7484, Note_off_c, 1, 53, 100
3, 7488, Note_on_c, 1, 60, 70
3, 7488, Note_on_c, 1, 55, 70
3, 7488, Note_on_c, 1, 52, 70
3, 7868, Note_off_c, 1, 60, 100
3, 7868, Note_off_c, 1, 55, 100
3, 7868, Note_off_c, 1, 52, 100
3, 9216, Note_on_c, 1, 37, 70
3, 9692, Note_off_c, 1, 37, 100
3, 9696, Note_on_c, 1, 34, 70
3, 9788, Note_off_c, 1, 34, 100
3, 9792, Note_on_c, 1, 30, 70
3, 11516, Note_off_c, 1, 30, 100
3, 11520, Note_on_c, 1, 34, 70
3, 11996, Note_off_c, 1, 34, 100
3, 12000, Note_on_c, 1, 37, 70
3, 12092, Note_off_c, 1, 37, 100
3, 12096, Note_on_c, 1, 42, 70
3, 12668, Note_off_c, 1, 42, 100
3, 12672, Note_on_c, 1, 46, 70
3, 13148, Note_off_c, 1, 46, 100
3, 13152, Note_on_c, 1, 49, 70
3, 13244, Note_off_c, 1, 49, 100
3, 13248, Note_on_c, 1, 54, 70
3, 13820, Note_off_c, 1, 54, 100
3, 13824, Note_on_c, 1, 58, 70
3, 14396, Note_off_c, 1, 58, 100
3, 14400, Note_on_c, 1, 61, 70
3, 14400, Note_on_c, 1, 56, 70
3, 14400, Note_on_c, 1, 53, 70
3, 15548, Note_off_c, 1, 61, 100
3, 15548, Note_off_c, 1, 56, 100
3, 15548, Note_off_c, 1, 53, 100
3, 15552, Note_on_c, 1, 60, 70
3, 15552, Note_on_c, 1, 57, 70
3, 15552, Note_on_c, 1, 54, 70
3, 16700, Note_off_c, 1, 60, 100
3, 16700, Note_off_c, 1, 57, 100
3, 16700, Note_off_c, 1, 54, 100
3, 16704, Note_on_c, 1, 61, 70
3, 16704, Note_on_c, 1, 56, 70
3, 16704, Note_on_c, 1, 53, 70
3, 17084, Note_off_c, 1, 61, 100
3, 17084, Note_off_c, 1, 56, 100
3, 17084, Note_off_c, 1, 53, 100
3, 19008, Note_on_c, 1, 67, 70
3, 19008, Note_on_c, 1, 64, 70
3, 20156, Note_off_c, 1, 67, 100
3, 20156, Note_off_c, 1, 64, 100
3, 20160, Note_on_c, 1, 71, 80
3, 20160, Note_on_c, 1, 68, 80
3, 20160, Note_on_c, 1, 65, 80
3, 21308, Note_off_c, 1, 71, 100
3, 21308, Note_off_c, 1, 68, 100
3, 21308, Note_off_c, 1, 65, 100
3, 21312, Note_on_c, 1, 67, 70
3, 21312, Note_on_c, 1, 64, 70
3, 21692, Note_off_c, 1, 67, 100
3, 21692, Note_off_c, 1, 64, 100
3, 21888, Note_on_c, 1, 37, 70
3, 22076, Note_off_c, 1, 37, 100
3, 22080, Note_on_c, 1, 37, 70
3, 22268, Note_off_c, 1, 37, 100
3, 22272, Note_on_c, 1, 37, 70
3, 22460, Note_off_c, 1, 37, 100
3, 22464, Note_on_c, 1, 36, 70
3, 22844, Note_off_c, 1, 36, 100
3, 23616, Note_on_c, 1, 73, 70
3, 23616, Note_on_c, 1, 70, 70
3, 23616, Note_on_c, 1, 67, 70
3, 24764, Note_off_c, 1, 73, 100
3, 24764, Note_off_c, 1, 70, 100
3, 24764, Note_off_c, 1, 67, 100
3, 24768, Note_on_c, 1, 73, 90
3, 24768, Note_on_c, 1, 70, 90
3, 24768, Note_on_c, 1, 68, 90
3, 25916, Note_off_c, 1, 73, 100
3, 25916, Note_off_c, 1, 70, 100
3, 25916, Note_off_c, 1, 68, 100
3, 25920, Note_on_c, 1, 73, 70
3, 25920, Note_on_c, 1, 70, 70
3, 25920, Note_on_c, 1, 67, 70
3, 26300, Note_off_c, 1, 73, 100
3, 26300, Note_off_c, 1, 70, 100
3, 26300, Note_off_c, 1, 67, 100
3, 26496, Note_on_c, 1, 37, 70
3, 26684, Note_off_c, 1, 37, 100
3, 26688, Note_on_c, 1, 37, 70
3, 26876, Note_off_c, 1, 37, 100
3, 26880, Note_on_c, 1, 37, 70
3, 27068, Note_off_c, 1, 37, 100
3, 27072, Note_on_c, 1, 36, 70
3, 27452, Note_off_c, 1, 36, 100
3, 28800, Note_on_c, 1, 37, 70
3, 28988, Note_off_c, 1, 37, 100
3, 28992, Note_on_c, 1, 37, 70
3, 29180, Note_off_c, 1, 37, 100
3, 29184, Note_on_c, 1, 37, 70
3, 29372, Note_off_c, 1, 37, 100
3, 29376, Note_on_c, 1, 36, 70
3, 29756, Note_off_c, 1, 36, 100
3, 33216, Note_on_c, 1, 31, 110
3, 33312, Note_on_c, 1, 34, 110
3, 33404, Note_off_c, 1, 31, 100
3, 33408, Note_on_c, 1, 40, 110
3, 33500, Note_off_c, 1, 34, 100
3, 33504, Note_on_c, 1, 43, 110
3, 33596, Note_off_c, 1, 40, 100
3, 33600, Note_on_c, 1, 46, 110
3, 33692, Note_off_c, 1, 43, 100
3, 33696, Note_on_c, 1, 49, 110
3, 33788, Note_off_c, 1, 46, 100
3, 33792, Note_on_c, 1, 52, 110
3, 33884, Note_off_c, 1, 49, 100
3, 33888, Note_on_c, 1, 55, 110
3, 33980, Note_off_c, 1, 52, 100
3, 33980, Note_off_c, 1, 55, 100
3, 33984, Note_on_c, 1, 58, 110
3, 34172, Note_off_c, 1, 58, 100
3, 34560, Note_on_c, 1, 41, 110
3, 34560, Note_on_c, 1, 29, 110
3, 34748, Note_off_c, 1, 41, 100
3, 34748, Note_off_c, 1, 29, 100
3, 35136, Note_on_c, 1, 40, 80
3, 35136, Note_on_c, 1, 48, 80
3, 36860, Note_off_c, 1, 40, 100
3, 36860, Note_off_c, 1, 48, 100
3, 36864, Note_on_c, 1, 36, 70
3, 37340, Note_off_c, 1, 36, 100
3, 37344, Note_on_c, 1, 32, 70
3, 37436, Note_off_c, 1, 32, 100
3, 37440, Note_on_c, 1, 29, 120
3, 37628, Note_off_c, 1, 29, 100
3, 37824, Note_on_c, 1, 41, 120
3, 37824, Note_on_c, 1, 36, 120
3, 37824, Note_on_c, 1, 32, 120
3, 37824, Note_on_c, 1, 29, 120
3, 38204, Note_off_c, 1, 41, 100
3, 38204, Note_off_c, 1, 36, 100
3, 38204, Note_off_c, 1, 32, 100
3, 38204, Note_off_c, 1, 29, 100
3, 38208, Note_on_c, 1, 41, 120
3, 38208, Note_on_c, 1, 36, 120
3, 38208, Note_on_c, 1, 32, 120
3, 38208, Note_on_c, 1, 29, 120
3, 38588, Note_off_c, 1, 41, 100
3, 38588, Note_off_c, 1, 36, 100
3, 38588, Note_off_c, 1, 32, 100
3, 38588, Note_off_c, 1, 29, 100
3, 38592, Note_on_c, 1, 41, 120
3, 38592, Note_on_c, 1, 36, 120
3, 38592, Note_on_c, 1, 32, 120
3, 38592, Note_on_c, 1, 29, 120
3, 38972, Note_off_c, 1, 41, 100
3, 38972, Note_off_c, 1, 36, 100
3, 38972, Note_off_c, 1, 32, 100
3, 38972, Note_off_c, 1, 29, 100
3, 38976, Note_on_c, 1, 41, 120
3, 38976, Note_on_c, 1, 36, 120
3, 38976, Note_on_c, 1, 32, 120
3, 38976, Note_on_c, 1, 29, 120
3, 39356, Note_off_c, 1, 41, 100
3, 39356, Note_off_c, 1, 36, 100
3, 39356, Note_off_c, 1, 32, 100
3, 39356, Note_off_c, 1, 29, 100
3, 39360, Note_on_c, 1, 41, 120
3, 39360, Note_on_c, 1, 36, 120
3, 39360, Note_on_c, 1, 32, 120
3, 39360, Note_on_c, 1, 29, 120
3, 39740, Note_off_c, 1, 41, 100
3, 39740, Note_off_c, 1, 36, 100
3, 39740, Note_off_c, 1, 32, 100
3, 39740, Note_off_c, 1, 29, 100
3, 39744, Note_on_c, 1, 41, 120
3, 39744, Note_on_c, 1, 36, 120
3, 39744, Note_on_c, 1, 32, 120
3, 39744, Note_on_c, 1, 29, 120
3, 41468, Note_off_c, 1, 29, 100
3, 41468, Note_off_c, 1, 32, 100
3, 41468, Note_off_c, 1, 36, 100
3, 41468, Note_off_c, 1, 41, 100
3, 41472, Note_on_c, 1, 32, 80
3, 41948, Note_off_c, 1, 32, 100
3, 41952, Note_on_c, 1, 36, 80
3, 42044, Note_off_c, 1, 36, 100
3, 42048, Note_on_c, 1, 41, 80
3, 42620, Note_off_c, 1, 41, 100
3, 42624, Note_on_c, 1, 44, 80
3, 43100, Note_off_c, 1, 44, 100
3, 43104, Note_on_c, 1, 48, 80
3, 43196, Note_off_c, 1, 48, 100
3, 43200, Note_on_c, 1, 53, 80
3, 43772, Note_off_c, 1, 53, 100
3, 43776, Note_on_c, 1, 41, 80
3, 44348, Note_off_c, 1, 41, 100
3, 44736, Note_on_c, 1, 48, 120
3, 44736, Note_on_c, 1, 43, 120
3, 44736, Note_on_c, 1, 40, 120
3, 45116, Note_off_c, 1, 48, 100
3, 45116, Note_off_c, 1, 43, 100
3, 45116, Note_off_c, 1, 40, 100
3, 45120, Note_on_c, 1, 48, 120
3, 45120, Note_on_c, 1, 43, 120
3, 45120, Note_on_c, 1, 40, 120
3, 45500, Note_off_c, 1, 48, 100
3, 45500, Note_off_c, 1, 43, 100
3, 45500, Note_off_c, 1, 40, 100
3, 45504, Note_on_c, 1, 48, 120
3, 45504, Note_on_c, 1, 43, 120
3, 45504, Note_on_c, 1, 40, 120
3, 45884, Note_off_c, 1, 48, 100
3, 45884, Note_off_c, 1, 43, 100
3, 45884, Note_off_c, 1, 40, 100
3, 45888, Note_on_c, 1, 48, 120
3, 45888, Note_on_c, 1, 43, 120
3, 45888, Note_on_c, 1, 40, 120
3, 46268, Note_off_c, 1, 48, 100
3, 46268, Note_off_c, 1, 43, 100
3, 46268, Note_off_c, 1, 40, 100
3, 46272, Note_on_c, 1, 48, 120
3, 46272, Note_on_c, 1, 43, 120
3, 46272, Note_on_c, 1, 40, 120
3, 46652, Note_off_c, 1, 48, 100
3, 46652, Note_off_c, 1, 43, 100
3, 46652, Note_off_c, 1, 40, 100
3, 46656, Note_on_c, 1, 67, 80
3, 46656, Note_on_c, 1, 64, 80
3, 47804, Note_off_c, 1, 67, 100
3, 47804, Note_off_c, 1, 64, 100
3, 47808, Note_on_c, 1, 68, 80
3, 47808, Note_on_c, 1, 65, 80
3, 48956, Note_off_c, 1, 68, 100
3, 48956, Note_off_c, 1, 65, 100
3, 49344, Note_on_c, 1, 48, 120
3, 49344, Note_on_c, 1, 43, 120
3, 49344, Note_on_c, 1, 40, 120
3, 49724, Note_off_c, 1, 48, 100
3, 49724, Note_off_c, 1, 43, 100
3, 49724, Note_off_c, 1, 40, 100
3, 49728, Note_on_c, 1, 48, 120
3, 49728, Note_on_c, 1, 43, 120
3, 49728, Note_on_c, 1, 40, 120
3, 50108, Note_off_c, 1, 48, 100
3, 50108, Note_off_c, 1, 43, 100
3, 50108, Note_off_c, 1, 40, 100
3, 50112, Note_on_c, 1, 48, 120
3, 50112, Note_on_c, 1, 43, 120
3, 50112, Note_on_c, 1, 40, 120
3, 50492, Note_off_c, 1, 48, 100
3, 50492, Note_off_c, 1, 43, 100
3, 50492, Note_off_c, 1, 40, 100
3, 50496, Note_on_c, 1, 48, 120
3, 50496, Note_on_c, 1, 43, 120
3, 50496, Note_on_c, 1, 40, 120
3, 50876, Note_off_c, 1, 48, 100
3, 50876, Note_off_c, 1, 43, 100
3, 50876, Note_off_c, 1, 40, 100
3, 50880, Note_on_c, 1, 48, 120
3, 50880, Note_on_c, 1, 43, 120
3, 50880, Note_on_c, 1, 40, 120
3, 51260, Note_off_c, 1, 48, 100
3, 51260, Note_off_c, 1, 43, 100
3, 51260, Note_off_c, 1, 40, 100
3, 51264, Note_on_c, 1, 67, 80
3, 51264, Note_on_c, 1, 64, 80
3, 52412, Note_off_c, 1, 67, 100
3, 52412, Note_off_c, 1, 64, 100
3, 52416, Note_on_c, 1, 67, 80
3, 52416, Note_on_c, 1, 63, 80
3, 53756, Note_off_c, 1, 63, 100
3, 53756, Note_off_c, 1, 67, 100
3, 53760, Note_on_c, 1, 75, 80
3, 53948, Note_off_c, 1, 75, 100
3, 53952, Note_on_c, 1, 75, 80
3, 54140, Note_off_c, 1, 75, 100
3, 54144, Note_on_c, 1, 75, 80
3, 54332, Note_off_c, 1, 75, 100
3, 54336, Note_on_c, 1, 75, 80
3, 54524, Note_off_c, 1, 75, 100
3, 54528, Note_on_c, 1, 75, 80
3, 54716, Note_off_c, 1, 75, 100
3, 54720, Note_on_c, 1, 75, 80
3, 54908, Note_off_c, 1, 75, 100
3, 54912, Note_on_c, 1, 75, 80
3, 55100, Note_off_c, 1, 75, 100
3, 55104, Note_on_c, 1, 75, 80
3, 55292, Note_off_c, 1, 75, 100
3, 55296, Note_on_c, 1, 75, 80
3, 55484, Note_off_c, 1, 75, 100
3, 55488, Note_on_c, 1, 75, 80
3, 55676, Note_off_c, 1, 75, 100
3, 55680, Note_on_c, 1, 75, 80
3, 55868, Note_off_c, 1, 75, 100
3, 56064, Note_on_c, 1, 75, 80
3, 56252, Note_off_c, 1, 75, 100
3, 56256, Note_on_c, 1, 75, 80
3, 56444, Note_off_c, 1, 75, 100
3, 56448, Note_on_c, 1, 71, 80
3, 56448, Note_on_c, 1, 68, 80
3, 56636, Note_off_c, 1, 71, 100
3, 56636, Note_off_c, 1, 68, 100
3, 56640, Note_on_c, 1, 75, 80
3, 56828, Note_off_c, 1, 75, 100
3, 56832, Note_on_c, 1, 75, 80
3, 57020, Note_off_c, 1, 75, 100
3, 57024, Note_on_c, 1, 75, 80
3, 57212, Note_off_c, 1, 75, 100
3, 57216, Note_on_c, 1, 75, 80
3, 57404, Note_off_c, 1, 75, 100
3, 57408, Note_on_c, 1, 75, 80
3, 57596, Note_off_c, 1, 75, 100
3, 57600, Note_on_c, 1, 75, 80
3, 57788, Note_off_c, 1, 75, 100
3, 57792, Note_on_c, 1, 75, 80
3, 57980, Note_off_c, 1, 75, 100
3, 57984, Note_on_c, 1, 75, 80
3, 58172, Note_off_c, 1, 75, 100
3, 58368, Note_on_c, 1, 75, 80
3, 58556, Note_off_c, 1, 75, 100
3, 58560, Note_on_c, 1, 75, 80
3, 58748, Note_off_c, 1, 75, 100
3, 58752, Note_on_c, 1, 71, 80
3, 58752, Note_on_c, 1, 68, 80
3, 58944, Note_on_c, 1, 75, 80
3, 59132, Note_off_c, 1, 71, 100
3, 59132, Note_off_c, 1, 68, 100
3, 59132, Note_off_c, 1, 75, 100
3, 59136, Note_on_c, 1, 75, 80
3, 59324, Note_off_c, 1, 75, 100
3, 59328, Note_on_c, 1, 71, 80
3, 59328, Note_on_c, 1, 68, 80
3, 59516, Note_off_c, 1, 71, 100
3, 59516, Note_off_c, 1, 68, 100
3, 59520, Note_on_c, 1, 75, 80
3, 59708, Note_off_c, 1, 75, 100
3, 59712, Note_on_c, 1, 75, 80
3, 59900, Note_off_c, 1, 75, 100
3, 59904, Note_on_c, 1, 71, 80
3, 59904, Note_on_c, 1, 68, 80
3, 60092, Note_off_c, 1, 71, 100
3, 60092, Note_off_c, 1, 68, 100
3, 60096, Note_on_c, 1, 75, 80
3, 60284, Note_off_c, 1, 75, 100
3, 60288, Note_on_c, 1, 75, 80
3, 60476, Note_off_c, 1, 75, 100
3, 60480, Note_on_c, 1, 70, 80
3, 60480, Note_on_c, 1, 67, 80
3, 60668, Note_off_c, 1, 70, 100
3, 60668, Note_off_c, 1, 67, 100
3, 60672, Note_on_c, 1, 63, 80
3, 60860, Note_off_c, 1, 63, 100
3, 60864, Note_on_c, 1, 63, 80
3, 61052, Note_off_c, 1, 63, 100
3, 61056, Note_on_c, 1, 63, 80
3, 61244, Note_off_c, 1, 63, 100
3, 61248, Note_on_c, 1, 63, 80
3, 61436, Note_off_c, 1, 63, 100
3, 61440, Note_on_c, 1, 63, 80
3, 61628, Note_off_c, 1, 63, 100
3, 61632, Note_on_c, 1, 63, 80
3, 61820, Note_off_c, 1, 63, 100
3, 61824, Note_on_c, 1, 63, 80
3, 62012, Note_off_c, 1, 63, 100
3, 62016, Note_on_c, 1, 63, 80
3, 62204, Note_off_c, 1, 63, 100
3, 62208, Note_on_c, 1, 63, 80
3, 62396, Note_off_c, 1, 63, 100
3, 62400, Note_on_c, 1, 63, 80
3, 62588, Note_off_c, 1, 63, 100
3, 62592, Note_on_c, 1, 63, 80
3, 62780, Note_off_c, 1, 63, 100
3, 62784, Note_on_c, 1, 63, 80
3, 62972, Note_off_c, 1, 63, 100
3, 62976, Note_on_c, 1, 63, 80
3, 63164, Note_off_c, 1, 63, 100
3, 63168, Note_on_c, 1, 63, 80
3, 63356, Note_off_c, 1, 63, 100
3, 63360, Note_on_c, 1, 63, 80
3, 63548, Note_off_c, 1, 63, 100
3, 63552, Note_on_c, 1, 63, 80
3, 63740, Note_off_c, 1, 63, 100
3, 63744, Note_on_c, 1, 63, 80
3, 63932, Note_off_c, 1, 63, 100
3, 63936, Note_on_c, 1, 63, 80
3, 64124, Note_off_c, 1, 63, 100
3, 64128, Note_on_c, 1, 63, 80
3, 64316, Note_off_c, 1, 63, 100
3, 64320, Note_on_c, 1, 63, 80
3, 64508, Note_off_c, 1, 63, 100
3, 64512, Note_on_c, 1, 61, 80
3, 64512, Note_on_c, 1, 58, 80
3, 64700, Note_off_c, 1, 61, 100
3, 64700, Note_off_c, 1, 58, 100
3, 64704, Note_on_c, 1, 63, 80
3, 64892, Note_off_c, 1, 63, 100
3, 64896, Note_on_c, 1, 63, 80
3, 65084, Note_off_c, 1, 63, 100
3, 65088, Note_on_c, 1, 63, 80
3, 65276, Note_off_c, 1, 63, 100
3, 65280, Note_on_c, 1, 63, 80
3, 65468, Note_off_c, 1, 63, 100
3, 65472, Note_on_c, 1, 63, 80
3, 65660, Note_off_c, 1, 63, 100
3, 65664, Note_on_c, 1, 63, 80
3, 65852, Note_off_c, 1, 63, 100
3, 65856, Note_on_c, 1, 63, 80
3, 66044, Note_off_c, 1, 63, 100
3, 66048, Note_on_c, 1, 63, 80
3, 66236, Note_off_c, 1, 63, 100
3, 66240, Note_on_c, 1, 63, 80
3, 66428, Note_off_c, 1, 63, 100
3, 66432, Note_on_c, 1, 63, 80
3, 66620, Note_off_c, 1, 63, 100
3, 66624, Note_on_c, 1, 63, 80
3, 66812, Note_off_c, 1, 63, 100
3, 66816, Note_on_c, 1, 59, 80
3, 66816, Note_on_c, 1, 56, 80
3, 67004, Note_off_c, 1, 59, 100
3, 67004, Note_off_c, 1, 56, 100
3, 67008, Note_on_c, 1, 63, 80
3, 67196, Note_off_c, 1, 63, 100
3, 67200, Note_on_c, 1, 63, 80
3, 67388, Note_off_c, 1, 63, 100
3, 67584, Note_on_c, 1, 63, 80
3, 67772, Note_off_c, 1, 63, 100
3, 67776, Note_on_c, 1, 63, 80
3, 67964, Note_off_c, 1, 63, 100
3, 67968, Note_on_c, 1, 59, 80
3, 67968, Note_on_c, 1, 56, 80
3, 68156, Note_off_c, 1, 59, 100
3, 68156, Note_off_c, 1, 56, 100
3, 68160, Note_on_c, 1, 63, 80
3, 68348, Note_off_c, 1, 63, 100
3, 68352, Note_on_c, 1, 63, 80
3, 68540, Note_off_c, 1, 63, 100
3, 68544, Note_on_c, 1, 59, 80
3, 68544, Note_on_c, 1, 56, 80
3, 68732, Note_off_c, 1, 59, 100
3, 68732, Note_off_c, 1, 56, 100
3, 68736, Note_on_c, 1, 63, 80
3, 68924, Note_off_c, 1, 63, 100
3, 68928, Note_on_c, 1, 63, 80
3, 69116, Note_off_c, 1, 63, 100
3, 69120, Note_on_c, 1, 59, 80
3, 69120, Note_on_c, 1, 56, 80
3, 69308, Note_off_c, 1, 59, 100
3, 69308, Note_off_c, 1, 56, 100
3, 69312, Note_on_c, 1, 63, 80
3, 69500, Note_off_c, 1, 63, 100
3, 69504, Note_on_c, 1, 63, 80
3, 69692, Note_off_c, 1, 63, 100
3, 69888, Note_on_c, 1, 63, 80
3, 70076, Note_off_c, 1, 63, 100
3, 70080, Note_on_c, 1, 63, 80
3, 70268, Note_off_c, 1, 63, 100
3, 70272, Note_on_c, 1, 58, 80
3, 70272, Note_on_c, 1, 55, 80
3, 70460, Note_off_c, 1, 58, 100
3, 70460, Note_off_c, 1, 55, 100
3, 70464, Note_on_c, 1, 63, 80
3, 70652, Note_off_c, 1, 63, 100
3, 70656, Note_on_c, 1, 63, 80
3, 70844, Note_off_c, 1, 63, 100
3, 71040, Note_on_c, 1, 63, 80
3, 71228, Note_off_c, 1, 63, 100
3, 71232, Note_on_c, 1, 63, 79
3, 71420, Note_off_c, 1, 63, 100
3, 71424, Note_on_c, 1, 57, 79
3, 71424, Note_on_c, 1, 54, 79
3, 71612, Note_off_c, 1, 57, 100
3, 71612, Note_off_c, 1, 54, 100
3, 71616, Note_on_c, 1, 63, 78
3, 71804, Note_off_c, 1, 63, 100
3, 71808, Note_on_c, 1, 63, 78
3, 71996, Note_off_c, 1, 63, 100
3, 72192, Note_on_c, 1, 63, 76
3, 72380, Note_off_c, 1, 63, 100
3, 72384, Note_on_c, 1, 63, 76
3, 72572, Note_off_c, 1, 63, 100
3, 72576, Note_on_c, 1, 56, 75
3, 72576, Note_on_c, 1, 53, 75
3, 72764, Note_off_c, 1, 56, 100
3, 72764, Note_off_c, 1, 53, 100
3, 72768, Note_on_c, 1, 63, 75
3, 72956, Note_off_c, 1, 63, 100
3, 72960, Note_on_c, 1, 63, 74
3, 73148, Note_off_c, 1, 63, 100
3, 73344, Note_on_c, 1, 63, 73
3, 73532, Note_off_c, 1, 63, 100
3, 73536, Note_on_c, 1, 63, 72
3, 73724, Note_off_c, 1, 63, 100
3, 73728, Note_on_c, 1, 55, 72
3, 73728, Note_on_c, 1, 52, 72
3, 73916, Note_off_c, 1, 55, 100
3, 73916, Note_off_c, 1, 52, 100
3, 73920, Note_on_c, 1, 63, 71
3, 74108, Note_off_c, 1, 63, 100
3, 74112, Note_on_c, 1, 63, 71
3, 74300, Note_off_c, 1, 63, 100
3, 74496, Note_on_c, 1, 51, 70
3, 74684, Note_off_c, 1, 51, 100
3, 74688, Note_on_c, 1, 51, 70
3, 74876, Note_off_c, 1, 51, 100
3, 74880, Note_on_c, 1, 51, 70
3, 75068, Note_off_c, 1, 51, 100
3, 75072, Note_on_c, 1, 51, 70
3, 75260, Note_off_c, 1, 51, 100
3, 75264, Note_on_c, 1, 51, 70
3, 75452, Note_off_c, 1, 51, 100
3, 75456, Note_on_c, 1, 51, 70
3, 75644, Note_off_c, 1, 51, 100
3, 75648, Note_on_c, 1, 51, 70
3, 75836, Note_off_c, 1, 51, 100
3, 75840, Note_on_c, 1, 51, 70
3, 76028, Note_off_c, 1, 51, 100
3, 76032, Note_on_c, 1, 51, 70
3, 76220, Note_off_c, 1, 51, 100
3, 76224, Note_on_c, 1, 51, 70
3, 76412, Note_off_c, 1, 51, 100
3, 76416, Note_on_c, 1, 51, 70
3, 76604, Note_off_c, 1, 51, 100
3, 76800, Note_on_c, 1, 39, 70
3, 76988, Note_off_c, 1, 39, 100
3, 76992, Note_on_c, 1, 39, 70
3, 77180, Note_off_c, 1, 39, 100
3, 77184, Note_on_c, 1, 39, 70
3, 77372, Note_off_c, 1, 39, 100
3, 77376, Note_on_c, 1, 39, 70
3, 77564, Note_off_c, 1, 39, 100
3, 77568, Note_on_c, 1, 39, 70
3, 77756, Note_off_c, 1, 39, 100
3, 77760, Note_on_c, 1, 39, 70
3, 77948, Note_off_c, 1, 39, 100
3, 77952, Note_on_c, 1, 39, 70
3, 78140, Note_off_c, 1, 39, 100
3, 78144, Note_on_c, 1, 39, 70
3, 78332, Note_off_c, 1, 39, 100
3, 78336, Note_on_c, 1, 39, 70
3, 78524, Note_off_c, 1, 39, 100
3, 78528, Note_on_c, 1, 39, 70
3, 78716, Note_off_c, 1, 39, 100
3, 78720, Note_on_c, 1, 39, 70
3, 78908, Note_off_c, 1, 39, 100
3, 78912, Note_on_c, 1, 32, 70
3, 79100, Note_off_c, 1, 32, 100
3, 79104, Note_on_c, 1, 44, 70
3, 79104, Note_on_c, 1, 39, 70
3, 79104, Note_on_c, 1, 36, 70
3, 79292, Note_off_c, 1, 44, 100
3, 79292, Note_off_c, 1, 39, 100
3, 79292, Note_off_c, 1, 36, 100
3, 79296, Note_on_c, 1, 32, 70
3, 79484, Note_off_c, 1, 32, 100
3, 79488, Note_on_c, 1, 44, 70
3, 79488, Note_on_c, 1, 39, 70
3, 79488, Note_on_c, 1, 36, 70
3, 79676, Note_off_c, 1, 44, 100
3, 79676, Note_off_c, 1, 39, 100
3, 79676, Note_off_c, 1, 36, 100
3, 79680, Note_on_c, 1, 32, 70
3, 79868, Note_off_c, 1, 32, 100
3, 79872, Note_on_c, 1, 44, 70
3, 79872, Note_on_c, 1, 39, 70
3, 79872, Note_on_c, 1, 36, 70
3, 80060, Note_off_c, 1, 44, 100
3, 80060, Note_off_c, 1, 39, 100
3, 80060, Note_off_c, 1, 36, 100
3, 80064, Note_on_c, 1, 32, 70
3, 80252, Note_off_c, 1, 32, 100
3, 80256, Note_on_c, 1, 44, 70
3, 80256, Note_on_c, 1, 39, 70
3, 80256, Note_on_c, 1, 36, 70
3, 80444, Note_off_c, 1, 44, 100
3, 80444, Note_off_c, 1, 39, 100
3, 80444, Note_off_c, 1, 36, 100
3, 80448, Note_on_c, 1, 32, 70
3, 80636, Note_off_c, 1, 32, 100
3, 80640, Note_on_c, 1, 44, 70
3, 80640, Note_on_c, 1, 39, 70
3, 80640, Note_on_c, 1, 36, 70
3, 80828, Note_off_c, 1, 44, 100
3, 80828, Note_off_c, 1, 39, 100
3, 80828, Note_off_c, 1, 36, 100
3, 80832, Note_on_c, 1, 32, 70
3, 81020, Note_off_c, 1, 32, 100
3, 81024, Note_on_c, 1, 44, 70
3, 81024, Note_on_c, 1, 39, 70
3, 81024, Note_on_c, 1, 36, 70
3, 81212, Note_off_c, 1, 44, 100
3, 81212, Note_off_c, 1, 39, 100
3, 81212, Note_off_c, 1, 36, 100
3, 81216, Note_on_c, 1, 32, 70
3, 81404, Note_off_c, 1, 32, 100
3, 81408, Note_on_c, 1, 44, 70
3, 81408, Note_on_c, 1, 39, 70
3, 81408, Note_on_c, 1, 36, 70
3, 81596, Note_off_c, 1, 44, 100
3, 81596, Note_off_c, 1, 39, 100
3, 81596, Note_off_c, 1, 36, 100
3, 81600, Note_on_c, 1, 32, 70
3, 81788, Note_off_c, 1, 32, 100
3, 81792, Note_on_c, 1, 44, 70
3, 81792, Note_on_c, 1, 39, 70
3, 81792, Note_on_c, 1, 36, 70
3, 81980, Note_off_c, 1, 44, 100
3, 81980, Note_off_c, 1, 39, 100
3, 81980, Note_off_c, 1, 36, 100
3, 81984, Note_on_c, 1, 32, 70
3, 82172, Note_off_c, 1, 32, 100
3, 82176, Note_on_c, 1, 44, 70
3, 82176, Note_on_c, 1, 39, 70
3, 82176, Note_on_c, 1, 36, 70
3, 82364, Note_off_c, 1, 44, 100
3, 82364, Note_off_c, 1, 39, 100
3, 82364, Note_off_c, 1, 36, 100
3, 82368, Note_on_c, 1, 34, 70
3, 82556, Note_off_c, 1, 34, 100
3, 82560, Note_on_c, 1, 46, 70
3, 82560, Note_on_c, 1, 39, 70
3, 82560, Note_on_c, 1, 37, 70
3, 82748, Note_off_c, 1, 46, 100
3, 82748, Note_off_c, 1, 39, 100
3, 82748, Note_off_c, 1, 37, 100
3, 82752, Note_on_c, 1, 34, 70
3, 82940, Note_off_c, 1, 34, 100
3, 82944, Note_on_c, 1, 46, 70
3, 82944, Note_on_c, 1, 39, 70
3, 82944, Note_on_c, 1, 37, 70
3, 83132, Note_off_c, 1, 46, 100
3, 83132, Note_off_c, 1, 39, 100
3, 83132, Note_off_c, 1, 37, 100
3, 83136, Note_on_c, 1, 34, 70
3, 83324, Note_off_c, 1, 34, 100
3, 83328, Note_on_c, 1, 46, 70
3, 83328, Note_on_c, 1, 39, 70
3, 83328, Note_on_c, 1, 37, 70
3, 83516, Note_off_c, 1, 46, 100
3, 83516, Note_off_c, 1, 39, 100
3, 83516, Note_off_c, 1, 37, 100
3, 83520, Note_on_c, 1, 36, 70
3, 83708, Note_off_c, 1, 36, 100
3, 83712, Note_on_c, 1, 48, 70
3, 83712, Note_on_c, 1, 44, 70
3, 83712, Note_on_c, 1, 39, 70
3, 83900, Note_off_c, 1, 48, 100
3, 83900, Note_off_c, 1, 44, 100
3, 83900, Note_off_c, 1, 39, 100
3, 83904, Note_on_c, 1, 36, 70
3, 84092, Note_off_c, 1, 36, 100
3, 84096, Note_on_c, 1, 48, 70
3, 84096, Note_on_c, 1, 44, 70
3, 84096, Note_on_c, 1, 39, 70
3, 84284, Note_off_c, 1, 48, 100
3, 84284, Note_off_c, 1, 44, 100
3, 84284, Note_off_c, 1, 39, 100
3, 84288, Note_on_c, 1, 36, 70
3, 84476, Note_off_c, 1, 36, 100
3, 84480, Note_on_c, 1, 48, 70
3, 84480, Note_on_c, 1, 44, 70
3, 84480, Note_on_c, 1, 39, 70
3, 84668, Note_off_c, 1, 48, 100
3, 84668, Note_off_c, 1, 44, 100
3, 84668, Note_off_c, 1, 39, 100
3, 84672, Note_on_c, 1, 36, 70
3, 84860, Note_off_c, 1, 36, 100
3, 84864, Note_on_c, 1, 48, 70
3, 84864, Note_on_c, 1, 44, 70
3, 84864, Note_on_c, 1, 39, 70
3, 85052, Note_off_c, 1, 48, 100
3, 85052, Note_off_c, 1, 44, 100
3, 85052, Note_off_c, 1, 39, 100
3, 85056, Note_on_c, 1, 36, 70
3, 85244, Note_off_c, 1, 36, 100
3, 85248, Note_on_c, 1, 44, 70
3, 85436, Note_off_c, 1, 44, 100
3, 85440, Note_on_c, 1, 37, 70
3, 85628, Note_off_c, 1, 37, 100
3, 85632, Note_on_c, 1, 44, 70
3, 85820, Note_off_c, 1, 44, 100
3, 85824, Note_on_c, 1, 39, 70
3, 86012, Note_off_c, 1, 39, 100
3, 86016, Note_on_c, 1, 44, 70
3, 86204, Note_off_c, 1, 44, 100
3, 86208, Note_on_c, 1, 39, 70
3, 86396, Note_off_c, 1, 39, 100
3, 86400, Note_on_c, 1, 44, 70
3, 86588, Note_off_c, 1, 44, 100
3, 86592, Note_on_c, 1, 39, 70
3, 86780, Note_off_c, 1, 39, 100
3, 86784, Note_on_c, 1, 44, 70
3, 86972, Note_off_c, 1, 44, 100
3, 86976, Note_on_c, 1, 39, 70
3, 87164, Note_off_c, 1, 39, 100
3, 87168, Note_on_c, 1, 43, 70
3, 87356, Note_off_c, 1, 43, 100
3, 87360, Note_on_c, 1, 39, 70
3, 87548, Note_off_c, 1, 39, 100
3, 87552, Note_on_c, 1, 43, 70
3, 87740, Note_off_c, 1, 43, 100
3, 87744, Note_on_c, 1, 39, 70
3, 87932, Note_off_c, 1, 39, 100
3, 87936, Note_on_c, 1, 43, 70
3, 88124, Note_off_c, 1, 43, 100
3, 88128, Note_on_c, 1, 44, 70
3, 88316, Note_off_c, 1, 44, 100
3, 88320, Note_on_c, 1, 56, 70
3, 88320, Note_on_c, 1, 51, 70
3, 88320, Note_on_c, 1, 48, 70
3, 88508, Note_off_c, 1, 56, 100
3, 88508, Note_off_c, 1, 51, 100
3, 88508, Note_off_c, 1, 48, 100
3, 88512, Note_on_c, 1, 44, 71
3, 88700, Note_off_c, 1, 44, 100
3, 88704, Note_on_c, 1, 56, 72
3, 88704, Note_on_c, 1, 51, 72
3, 88704, Note_on_c, 1, 48, 72
3, 88892, Note_off_c, 1, 56, 100
3, 88892, Note_off_c, 1, 51, 100
3, 88892, Note_off_c, 1, 48, 100
3, 88896, Note_on_c, 1, 44, 73
3, 89084, Note_off_c, 1, 44, 100
3, 89088, Note_on_c, 1, 56, 74
3, 89088, Note_on_c, 1, 51, 74
3, 89088, Note_on_c, 1, 48, 74
3, 89276, Note_off_c, 1, 56, 100
3, 89276, Note_off_c, 1, 51, 100
3, 89276, Note_off_c, 1, 48, 100
3, 89280, Note_on_c, 1, 44, 75
3, 89468, Note_off_c, 1, 44, 100
3, 89472, Note_on_c, 1, 56, 76
3, 89472, Note_on_c, 1, 51, 76
3, 89472, Note_on_c, 1, 48, 76
3, 89660, Note_off_c, 1, 56, 100
3, 89660, Note_off_c, 1, 51, 100
3, 89660, Note_off_c, 1, 48, 100
3, 89664, Note_on_c, 1, 44, 76
3, 89852, Note_off_c, 1, 44, 100
3, 89856, Note_on_c, 1, 56, 77
3, 89856, Note_on_c, 1, 51, 77
3, 89856, Note_on_c, 1, 48, 77
3, 90044, Note_off_c, 1, 56, 100
3, 90044, Note_off_c, 1, 51, 100
3, 90044, Note_off_c, 1, 48, 100
3, 90048, Note_on_c, 1, 44, 78
3, 90236, Note_off_c, 1, 44, 100
3, 90240, Note_on_c, 1, 56, 79
3, 90240, Note_on_c, 1, 51, 79
3, 90240, Note_on_c, 1, 48, 79
3, 90428, Note_off_c, 1, 56, 100
3, 90428, Note_off_c, 1, 51, 100
3, 90428, Note_off_c, 1, 48, 100
3, 90432, Note_on_c, 1, 44, 80
3, 90620, Note_off_c, 1, 44, 100
3, 90624, Note_on_c, 1, 56, 80
3, 90624, Note_on_c, 1, 51, 80
3, 90624, Note_on_c, 1, 48, 80
3, 90812, Note_off_c, 1, 56, 100
3, 90812, Note_off_c, 1, 51, 100
3, 90812, Note_off_c, 1, 48, 100
3, 90816, Note_on_c, 1, 44, 80
3, 91004, Note_off_c, 1, 44, 100
3, 91008, Note_on_c, 1, 56, 80
3, 91008, Note_on_c, 1, 51, 80
3, 91008, Note_on_c, 1, 48, 80
3, 91196, Note_off_c, 1, 56, 100
3, 91196, Note_off_c, 1, 51, 100
3, 91196, Note_off_c, 1, 48, 100
3, 91200, Note_on_c, 1, 44, 80
3, 91388, Note_off_c, 1, 44, 100
3, 91392, Note_on_c, 1, 56, 80
3, 91392, Note_on_c, 1, 51, 80
3, 91392, Note_on_c, 1, 48, 80
3, 91580, Note_off_c, 1, 56, 100
3, 91580, Note_off_c, 1, 51, 100
3, 91580, Note_off_c, 1, 48, 100
3, 91584, Note_on_c, 1, 46, 80
3, 91772, Note_off_c, 1, 46, 100
3, 91776, Note_on_c, 1, 58, 80
3, 91776, Note_on_c, 1, 51, 80
3, 91776, Note_on_c, 1, 49, 80
3, 91964, Note_off_c, 1, 58, 100
3, 91964, Note_off_c, 1, 51, 100
3, 91964, Note_off_c, 1, 49, 100
3, 91968, Note_on_c, 1, 46, 80
3, 92156, Note_off_c, 1, 46, 100
3, 92160, Note_on_c, 1, 58, 80
3, 92160, Note_on_c, 1, 51, 80
3, 92160, Note_on_c, 1, 49, 80
3, 92348, Note_off_c, 1, 58, 100
3, 92348, Note_off_c, 1, 51, 100
3, 92348, Note_off_c, 1, 49, 100
3, 92352, Note_on_c, 1, 46, 80
3, 92540, Note_off_c, 1, 46, 100
3, 92544, Note_on_c, 1, 58, 80
3, 92544, Note_on_c, 1, 51, 80
3, 92544, Note_on_c, 1, 49, 80
3, 92732, Note_off_c, 1, 58, 100
3, 92732, Note_off_c, 1, 51, 100
3, 92732, Note_off_c, 1, 49, 100
3, 92736, Note_on_c, 1, 60, 80
3, 92736, Note_on_c, 1, 51, 80
3, 92736, Note_on_c, 1, 48, 80
3, 92736, Note_on_c, 1, 56, 80
3, 95036, Note_off_c, 1, 48, 100
3, 95036, Note_off_c, 1, 51, 100
3, 95036, Note_off_c, 1, 56, 100
3, 95036, Note_off_c, 1, 60, 100
3, 95040, Note_on_c, 1, 56, 110
3, 95040, Note_on_c, 1, 52, 110
3, 95040, Note_on_c, 1, 49, 110
3, 95612, Note_off_c, 1, 56, 100
3, 95616, Note_on_c, 1, 57, 110
3, 97340, Note_off_c, 1, 49, 100
3, 97340, Note_off_c, 1, 52, 100
3, 97340, Note_off_c, 1, 57, 100
3, 97344, Note_on_c, 1, 59, 80
3, 97344, Note_on_c, 1, 56, 80
3, 97344, Note_on_c, 1, 51, 80
3, 99644, Note_off_c, 1, 51, 100
3, 99644, Note_off_c, 1, 56, 100
3, 99644, Note_off_c, 1, 59, 100
3, 99648, Note_on_c, 1, 61, 70
3, 99648, Note_on_c, 1, 55, 70
3, 99648, Note_on_c, 1, 51, 70
3, 101948, Note_off_c, 1, 51, 100
3, 101948, Note_off_c, 1, 55, 100
3, 101948, Note_off_c, 1, 61, 100
3, 112896, Note_on_c, 1, 39, 70
3, 113084, Note_off_c, 1, 39, 100
3, 113088, Note_on_c, 1, 37, 70
3, 113276, Note_off_c, 1, 37, 100
3, 113280, Note_on_c, 1, 35, 70
3, 113468, Note_off_c, 1, 35, 100
3, 113472, Note_on_c, 1, 34, 70
3, 113660, Note_off_c, 1, 34, 100
3, 113664, Note_on_c, 1, 35, 70
3, 113852, Note_off_c, 1, 35, 100
3, 113856, Note_on_c, 1, 37, 70
3, 114044, Note_off_c, 1, 37, 100
3, 114048, Note_on_c, 1, 39, 70
3, 114236, Note_off_c, 1, 39, 100
3, 114240, Note_on_c, 1, 40, 70
3, 114428, Note_off_c, 1, 40, 100
3, 114432, Note_on_c, 1, 39, 70
3, 114620, Note_off_c, 1, 39, 100
3, 114624, Note_on_c, 1, 37, 70
3, 114812, Note_off_c, 1, 37, 100
3, 114816, Note_on_c, 1, 35, 70
3, 115004, Note_off_c, 1, 35, 100
3, 115008, Note_on_c, 1, 34, 70
3, 115196, Note_off_c, 1, 34, 100
3, 115200, Note_on_c, 1, 39, 70
3, 115388, Note_off_c, 1, 39, 100
3, 115392, Note_on_c, 1, 37, 70
3, 115580, Note_off_c, 1, 37, 100
3, 115584, Note_on_c, 1, 39, 70
3, 115772, Note_off_c, 1, 39, 100
3, 115776, Note_on_c, 1, 32, 110
3, 115872, Note_on_c, 1, 39, 110
3, 115964, Note_off_c, 1, 32, 100
3, 115968, Note_on_c, 1, 44, 110
3, 116060, Note_off_c, 1, 39, 100
3, 116064, Note_on_c, 1, 39, 110
3, 116156, Note_off_c, 1, 44, 100
3, 116160, Note_on_c, 1, 32, 110
3, 116252, Note_off_c, 1, 39, 100
3, 116256, Note_on_c, 1, 39, 110
3, 116348, Note_off_c, 1, 32, 100
3, 116352, Note_on_c, 1, 32, 110
3, 116444, Note_off_c, 1, 39, 100
3, 116448, Note_on_c, 1, 39, 110
3, 116540, Note_off_c, 1, 32, 100
3, 116544, Note_on_c, 1, 32, 110
3, 116636, Note_off_c, 1, 39, 100
3, 116640, Note_on_c, 1, 39, 110
3, 116732, Note_off_c, 1, 32, 100
3, 116736, Note_on_c, 1, 32, 110
3, 116828, Note_off_c, 1, 39, 100
3, 116832, Note_on_c, 1, 39, 110
3, 116924, Note_off_c, 1, 32, 100
3, 116928, Note_on_c, 1, 32, 110
3, 117020, Note_off_c, 1, 39, 100
3, 117024, Note_on_c, 1, 39, 110
3, 117116, Note_off_c, 1, 32, 100
3, 117120, Note_on_c, 1, 44, 110
3, 117212, Note_off_c, 1, 39, 100
3, 117216, Note_on_c, 1, 39, 110
3, 117308, Note_off_c, 1, 44, 100
3, 117312, Note_on_c, 1, 32, 110
3, 117404, Note_off_c, 1, 39, 100
3, 117408, Note_on_c, 1, 39, 110
3, 117500, Note_off_c, 1, 32, 100
3, 117504, Note_on_c, 1, 32, 110
3, 117596, Note_off_c, 1, 39, 100
3, 117600, Note_on_c, 1, 39, 110
3, 117692, Note_off_c, 1, 32, 100
3, 117696, Note_on_c, 1, 32, 110
3, 117788, Note_off_c, 1, 39, 100
3, 117792, Note_on_c, 1, 39, 110
3, 117884, Note_off_c, 1, 32, 100
3, 117888, Note_on_c, 1, 32, 110
3, 117980, Note_off_c, 1, 39, 100
3, 117984, Note_on_c, 1, 39, 110
3, 118076, Note_off_c, 1, 32, 100
3, 118076, Note_off_c, 1, 39, 100
3, 118080, Note_on_c, 1, 32, 110
3, 118176, Note_on_c, 1, 40, 110
3, 118268, Note_off_c, 1, 32, 100
3, 118272, Note_on_c, 1, 44, 110
3, 118364, Note_off_c, 1, 40, 100
3, 118368, Note_on_c, 1, 40, 110
3, 118460, Note_off_c, 1, 44, 100
3, 118464, Note_on_c, 1, 32, 110
3, 118556, Note_off_c, 1, 40, 100
3, 118560, Note_on_c, 1, 40, 110
3, 118652, Note_off_c, 1, 32, 100
3, 118656, Note_on_c, 1, 32, 110
3, 118748, Note_off_c, 1, 40, 100
3, 118752, Note_on_c, 1, 40, 110
3, 118844, Note_off_c, 1, 32, 100
3, 118848, Note_on_c, 1, 32, 110
3, 118940, Note_off_c, 1, 40, 100
3, 118944, Note_on_c, 1, 40, 110
3, 119036, Note_off_c, 1, 32, 100
3, 119040, Note_on_c, 1, 32, 110
3, 119132, Note_off_c, 1, 40, 100
3, 119136, Note_on_c, 1, 40, 110
3, 119228, Note_off_c, 1, 32, 100
3, 119228, Note_off_c, 1, 40, 100
3, 119232, Note_on_c, 1, 32, 110
3, 119328, Note_on_c, 1, 40, 110
3, 119420, Note_off_c, 1, 32, 100
3, 119424, Note_on_c, 1, 44, 110
3, 119516, Note_off_c, 1, 40, 100
3, 119520, Note_on_c, 1, 40, 110
3, 119612, Note_off_c, 1, 44, 100
3, 119616, Note_on_c, 1, 32, 110
3, 119708, Note_off_c, 1, 40, 100
3, 119712, Note_on_c, 1, 40, 110
3, 119804, Note_off_c, 1, 32, 100
3, 119808, Note_on_c, 1, 32, 110
3, 119900, Note_off_c, 1, 40, 100
3, 119904, Note_on_c, 1, 40, 110
3, 119996, Note_off_c, 1, 32, 100
3, 120000, Note_on_c, 1, 32, 110
3, 120092, Note_off_c, 1, 40, 100
3, 120096, Note_on_c, 1, 40, 110
3, 120188, Note_off_c, 1, 32, 100
3, 120192, Note_on_c, 1, 32, 110
3, 120284, Note_off_c, 1, 40, 100
3, 120288, Note_on_c, 1, 40, 110
3, 120380, Note_off_c, 1, 32, 100
3, 120380, Note_off_c, 1, 40, 100
3, 120384, Note_on_c, 1, 45, 125
3, 120384, Note_on_c, 1, 33, 125
3, 122108, Note_off_c, 1, 33, 100
3, 122108, Note_off_c, 1, 45, 100
3, 122112, Note_on_c, 1, 46, 125
3, 122112, Note_on_c, 1, 34, 125
3, 122304, Note_on_c, 1, 37, 125
3, 122496, Note_on_c, 1, 40, 125
3, 122684, Note_off_c, 1, 46, 100
3, 122684, Note_off_c, 1, 34, 100
3, 122688, Note_on_c, 1, 43, 125
3, 122876, Note_off_c, 1, 37, 100
3, 122880, Note_on_c, 1, 46, 125
3, 123068, Note_off_c, 1, 40, 100
3, 123072, Note_on_c, 1, 49, 125
3, 123260, Note_off_c, 1, 43, 100
3, 123264, Note_on_c, 1, 52, 125
3, 123452, Note_off_c, 1, 46, 100
3, 123452, Note_off_c, 1, 52, 100
3, 123456, Note_on_c, 1, 52, 125
3, 123644, Note_off_c, 1, 49, 100
3, 123644, Note_off_c, 1, 52, 100
3, 123648, Note_on_c, 1, 52, 125
3, 123836, Note_off_c, 1, 52, 100
3, 123840, Note_on_c, 1, 52, 125
3, 124412, Note_off_c, 1, 52, 100
3, 124416, Note_on_c, 1, 51, 125
3, 124988, Note_off_c, 1, 51, 100
3, 124992, Note_on_c, 1, 44, 110
3, 125088, Note_on_c, 1, 51, 110
3, 125180, Note_off_c, 1, 44, 100
3, 125184, Note_on_c, 1, 56, 110
3, 125276, Note_off_c, 1, 51, 100
3, 125280, Note_on_c, 1, 51, 110
3, 125372, Note_off_c, 1, 56, 100
3, 125376, Note_on_c, 1, 44, 110
3, 125468, Note_off_c, 1, 51, 100
3, 125472, Note_on_c, 1, 51, 110
3, 125564, Note_off_c, 1, 44, 100
3, 125568, Note_on_c, 1, 44, 110
3, 125660, Note_off_c, 1, 51, 100
3, 125664, Note_on_c, 1, 51, 110
3, 125756, Note_off_c, 1, 44, 100
3, 125760, Note_on_c, 1, 44, 110
3, 125852, Note_off_c, 1, 51, 100
3, 125856, Note_on_c, 1, 51, 110
3, 125948, Note_off_c, 1, 44, 100
3, 125952, Note_on_c, 1, 44, 110
3, 126044, Note_off_c, 1, 51, 100
3, 126048, Note_on_c, 1, 51, 110
3, 126140, Note_off_c, 1, 44, 100
3, 126144, Note_on_c, 1, 44, 110
3, 126236, Note_off_c, 1, 51, 100
3, 126240, Note_on_c, 1, 51, 110
3, 126332, Note_off_c, 1, 44, 100
3, 126336, Note_on_c, 1, 56, 110
3, 126428, Note_off_c, 1, 51, 100
3, 126432, Note_on_c, 1, 51, 110
3, 126524, Note_off_c, 1, 56, 100
3, 126528, Note_on_c, 1, 44, 110
3, 126620, Note_off_c, 1, 51, 100
3, 126624, Note_on_c, 1, 51, 110
3, 126716, Note_off_c, 1, 44, 100
3, 126720, Note_on_c, 1, 44, 110
3, 126812, Note_off_c, 1, 51, 100
3, 126816, Note_on_c, 1, 51, 110
3, 126908, Note_off_c, 1, 44, 100
3, 126912, Note_on_c, 1, 44, 110
3, 127004, Note_off_c, 1, 51, 100
3, 127008, Note_on_c, 1, 51, 110
3, 127100, Note_off_c, 1, 44, 100
3, 127104, Note_on_c, 1, 44, 110
3, 127196, Note_off_c, 1, 51, 100
3, 127200, Note_on_c, 1, 51, 110
3, 127292, Note_off_c, 1, 44, 100
3, 127292, Note_off_c, 1, 51, 100
3, 127296, Note_on_c, 1, 44, 110
3, 127392, Note_on_c, 1, 52, 110
3, 127484, Note_off_c, 1, 44, 100
3, 127488, Note_on_c, 1, 56, 110
3, 127580, Note_off_c, 1, 52, 100
3, 127584, Note_on_c, 1, 52, 110
3, 127676, Note_off_c, 1, 56, 100
3, 127680, Note_on_c, 1, 44, 110
3, 127772, Note_off_c, 1, 52, 100
3, 127776, Note_on_c, 1, 52, 110
3, 127868, Note_off_c, 1, 44, 100
3, 127872, Note_on_c, 1, 44, 110
3, 127964, Note_off_c, 1, 52, 100
3, 127968, Note_on_c, 1, 52, 110
3, 128060, Note_off_c, 1, 44, 100
3, 128064, Note_on_c, 1, 44, 110
3, 128156, Note_off_c, 1, 52, 100
3, 128160, Note_on_c, 1, 52, 110
3, 128252, Note_off_c, 1, 44, 100
3, 128256, Note_on_c, 1, 44, 110
3, 128348, Note_off_c, 1, 52, 100
3, 128352, Note_on_c, 1, 52, 110
3, 128444, Note_off_c, 1, 44, 100
3, 128444, Note_off_c, 1, 52, 100
3, 128448, Note_on_c, 1, 44, 110
3, 128544, Note_on_c, 1, 52, 110
3, 128636, Note_off_c, 1, 44, 100
3, 128640, Note_on_c, 1, 56, 110
3, 128732, Note_off_c, 1, 52, 100
3, 128736, Note_on_c, 1, 52, 110
3, 128828, Note_off_c, 1, 56, 100
3, 128832, Note_on_c, 1, 44, 110
3, 128924, Note_off_c, 1, 52, 100
3, 128928, Note_on_c, 1, 52, 110
3, 129020, Note_off_c, 1, 44, 100
3, 129024, Note_on_c, 1, 44, 110
3, 129116, Note_off_c, 1, 52, 100
3, 129120, Note_on_c, 1, 52, 110
3, 129212, Note_off_c, 1, 44, 100
3, 129216, Note_on_c, 1, 44, 110
3, 129308, Note_off_c, 1, 52, 100
3, 129312, Note_on_c, 1, 52, 110
3, 129404, Note_off_c, 1, 44, 100
3, 129408, Note_on_c, 1, 44, 110
3, 129500, Note_off_c, 1, 52, 100
3, 129504, Note_on_c, 1, 52, 110
3, 129596, Note_off_c, 1, 44, 100
3, 129596, Note_off_c, 1, 52, 100
3, 129600, Note_on_c, 1, 57, 125
3, 129600, Note_on_c, 1, 45, 125
3, 131324, Note_off_c, 1, 45, 100
3, 131324, Note_off_c, 1, 57, 100
3, 131328, Note_on_c, 1, 58, 125
3, 131328, Note_on_c, 1, 46, 125
3, 131520, Note_on_c, 1, 49, 125
3, 131520, Note_on_c, 1, 61, 125
3, 131712, Note_on_c, 1, 64, 125
3, 131712, Note_on_c, 1, 52, 125
3, 131900, Note_off_c, 1, 58, 100
3, 131900, Note_off_c, 1, 46, 100
3, 131904, Note_on_c, 1, 67, 125
3, 131904, Note_on_c, 1, 55, 125
3, 132092, Note_off_c, 1, 49, 100
3, 132092, Note_off_c, 1, 61, 100
3, 132096, Note_on_c, 1, 70, 125
3, 132096, Note_on_c, 1, 58, 125
3, 132284, Note_off_c, 1, 52, 100
3, 132284, Note_off_c, 1, 64, 100
3, 132288, Note_on_c, 1, 73, 125
3, 132288, Note_on_c, 1, 61, 125
3, 132476, Note_off_c, 1, 67, 100
3, 132476, Note_off_c, 1, 55, 100
3, 132480, Note_on_c, 1, 76, 125
3, 132480, Note_on_c, 1, 64, 125
3, 132668, Note_off_c, 1, 70, 100
3, 132668, Note_off_c, 1, 58, 100
3, 132668, Note_off_c, 1, 76, 100
3, 132668, Note_off_c, 1, 64, 100
3, 132672, Note_on_c, 1, 76, 125
3, 132672, Note_on_c, 1, 64, 125
3, 132860, Note_off_c, 1, 73, 100
3, 132860, Note_off_c, 1, 61, 100
3, 132860, Note_off_c, 1, 76, 100
3, 132860, Note_off_c, 1, 64, 100
3, 132864, Note_on_c, 1, 76, 125
3, 132864, Note_on_c, 1, 64, 125
3, 133052, Note_off_c, 1, 76, 100
3, 133052, Note_off_c, 1, 64, 100
3, 133056, Note_on_c, 1, 76, 125
3, 133056, Note_on_c, 1, 64, 125
3, 133628, Note_off_c, 1, 76, 100
3, 133628, Note_off_c, 1, 64, 100
3, 133632, Note_on_c, 1, 75, 125
3, 133632, Note_on_c, 1, 63, 125
3, 134204, Note_off_c, 1, 75, 100
3, 134204, Note_off_c, 1, 63, 100
3, 134208, Note_on_c, 1, 68, 125
3, 134780, Note_off_c, 1, 68, 100
3, 134784, Note_on_c, 1, 67, 110
3, 135356, Note_off_c, 1, 67, 100
3, 135360, Note_on_c, 1, 76, 122
3, 135932, Note_off_c, 1, 76, 100
3, 135936, Note_on_c, 1, 75, 110
3, 136508, Note_off_c, 1, 75, 100
3, 136512, Note_on_c, 1, 74, 120
3, 136608, Note_on_c, 1, 77, 120
3, 136704, Note_on_c, 1, 80, 120
3, 137660, Note_off_c, 1, 74, 100
3, 137660, Note_off_c, 1, 77, 100
3, 137660, Note_off_c, 1, 80, 100
3, 137664, Note_on_c, 1, 75, 120
3, 137760, Note_on_c, 1, 79, 120
3, 138812, Note_off_c, 1, 75, 100
3, 138812, Note_off_c, 1, 79, 100
3, 138816, Note_on_c, 1, 71, 80
3, 138816, Note_on_c, 1, 68, 80
3, 139388, Note_off_c, 1, 71, 100
3, 139388, Note_off_c, 1, 68, 100
3, 139392, Note_on_c, 1, 76, 80
3, 139392, Note_on_c, 1, 73, 80
3, 139964, Note_off_c, 1, 76, 100
3, 139964, Note_off_c, 1, 73, 100
3, 139968, Note_on_c, 1, 75, 80
3, 139968, Note_on_c, 1, 71, 80
3, 140540, Note_off_c, 1, 75, 100
3, 140540, Note_off_c, 1, 71, 100
3, 140544, Note_on_c, 1, 75, 100
3, 140544, Note_on_c, 1, 73, 100
3, 140544, Note_on_c, 1, 70, 100
3, 141116, Note_off_c, 1, 75, 100
3, 141116, Note_off_c, 1, 73, 100
3, 141116, Note_off_c, 1, 70, 100
3, 141120, Note_on_c, 1, 71, 80
3, 141120, Note_on_c, 1, 68, 80
3, 141692, Note_off_c, 1, 71, 100
3, 141692, Note_off_c, 1, 68, 100
3, 141696, Note_on_c, 1, 64, 80
3, 141696, Note_on_c, 1, 61, 80
3, 142268, Note_off_c, 1, 64, 100
3, 142268, Note_off_c, 1, 61, 100
3, 142272, Note_on_c, 1, 63, 80
3, 142272, Note_on_c, 1, 59, 80
3, 142844, Note_off_c, 1, 63, 100
3, 142844, Note_off_c, 1, 59, 100
3, 142848, Note_on_c, 1, 63, 100
3, 142848, Note_on_c, 1, 61, 100
3, 142848, Note_on_c, 1, 58, 100
3, 143420, Note_off_c, 1, 63, 100
3, 143420, Note_off_c, 1, 61, 100
3, 143420, Note_off_c, 1, 58, 100
3, 143424, Note_on_c, 1, 59, 80
3, 143424, Note_on_c, 1, 56, 80
3, 143996, Note_off_c, 1, 59, 100
3, 143996, Note_off_c, 1, 56, 100
3, 144000, Note_on_c, 1, 52, 80
3, 144000, Note_on_c, 1, 49, 80
3, 144572, Note_off_c, 1, 52, 100
3, 144572, Note_off_c, 1, 49, 100
3, 144576, Note_on_c, 1, 51, 80
3, 144576, Note_on_c, 1, 47, 80
3, 145148, Note_off_c, 1, 51, 100
3, 145148, Note_off_c, 1, 47, 100
3, 145152, Note_on_c, 1, 51, 100
3, 145152, Note_on_c, 1, 49, 100
3, 145152, Note_on_c, 1, 46, 100
3, 145724, Note_off_c, 1, 51, 100
3, 145724, Note_off_c, 1, 49, 100
3, 145724, Note_off_c, 1, 46, 100
3, 145728, Note_on_c, 1, 44, 80
3, 146876, Note_off_c, 1, 44, 100
3, 146880, Note_on_c, 1, 39, 76
3, 147456, Note_on_c, 1, 35, 73
3, 148028, Note_off_c, 1, 39, 100
3, 148028, Note_off_c, 1, 35, 100
3, 148032, Note_on_c, 1, 32, 71
3, 149756, Note_off_c, 1, 32, 100
3, 149760, Note_on_c, 1, 47, 80
3, 150236, Note_off_c, 1, 47, 100
3, 150240, Note_on_c, 1, 44, 80
3, 150332, Note_off_c, 1, 44, 100
3, 150336, Note_on_c, 1, 39, 80
3, 152060, Note_off_c, 1, 39, 100
3, 152064, Note_on_c, 1, 47, 80
3, 152540, Note_off_c, 1, 47, 100
3, 152544, Note_on_c, 1, 44, 80
3, 152636, Note_off_c, 1, 44, 100
3, 152640, Note_on_c, 1, 40, 80
3, 154364, Note_off_c, 1, 40, 100
3, 154368, Note_on_c, 1, 44, 80
3, 154844, Note_off_c, 1, 44, 100
3, 154848, Note_on_c, 1, 47, 80
3, 154940, Note_off_c, 1, 47, 100
3, 154944, Note_on_c, 1, 52, 80
3, 155516, Note_off_c, 1, 52, 100
3, 155520, Note_on_c, 1, 56, 80
3, 155996, Note_off_c, 1, 56, 100
3, 156000, Note_on_c, 1, 59, 80
3, 156092, Note_off_c, 1, 59, 100
3, 156096, Note_on_c, 1, 64, 80
3, 156668, Note_off_c, 1, 64, 100
3, 156672, Note_on_c, 1, 52, 80
3, 157244, Note_off_c, 1, 52, 100
3, 157248, Note_on_c, 1, 59, 80
3, 157248, Note_on_c, 1, 54, 80
3, 157248, Note_on_c, 1, 51, 80
3, 158396, Note_off_c, 1, 59, 100
3, 158396, Note_off_c, 1, 54, 100
3, 158396, Note_off_c, 1, 51, 100
3, 158400, Note_on_c, 1, 58, 80
3, 158400, Note_on_c, 1, 55, 80
3, 158400, Note_on_c, 1, 52, 80
3, 159548, Note_off_c, 1, 58, 100
3, 159548, Note_off_c, 1, 55, 100
3, 159548, Note_off_c, 1, 52, 100
3, 159552, Note_on_c, 1, 59, 80
3, 159552, Note_on_c, 1, 54, 80
3, 159552, Note_on_c, 1, 51, 80
3, 159932, Note_off_c, 1, 59, 100
3, 159932, Note_off_c, 1, 54, 100
3, 159932, Note_off_c, 1, 51, 100
3, 161856, Key_signature, 0, "major"
3, 161856, Note_on_c, 1, 73, 80
3, 161856, Note_on_c, 1, 69, 80
3, 163004, Note_off_c, 1, 73, 100
3, 163004, Note_off_c, 1, 69, 100
3, 163008, Note_on_c, 1, 74, 80
3, 163008, Note_on_c, 1, 71, 80
3, 164156, Note_off_c, 1, 74, 100
3, 164156, Note_off_c, 1, 71, 100
3, 164160, Note_on_c, 1, 73, 80
3, 164160, Note_on_c, 1, 69, 80
3, 164540, Note_off_c, 1, 73, 100
3, 164540, Note_off_c, 1, 69, 100
3, 166464, Note_on_c, 1, 59, 80
3, 166464, Note_on_c, 1, 56, 80
3, 167612, Note_off_c, 1, 59, 100
3, 167612, Note_off_c, 1, 56, 100
3, 167616, Note_on_c, 1, 60, 80
3, 167616, Note_on_c, 1, 57, 80
3, 168764, Note_off_c, 1, 60, 100
3, 168764, Note_off_c, 1, 57, 100
3, 168768, Note_on_c, 1, 59, 80
3, 168768, Note_on_c, 1, 56, 80
3, 169340, Note_off_c, 1, 59, 100
3, 169340, Note_off_c, 1, 56, 100
3, 169344, Note_on_c, 1, 42, 100
3, 170492, Note_off_c, 1, 42, 100
3, 170496, Note_on_c, 1, 45, 79
3, 171068, Note_off_c, 1, 45, 100
3, 171072, Note_on_c, 1, 47, 70
3, 172220, Note_off_c, 1, 47, 100
3, 172224, Note_on_c, 1, 35, 70
3, 173372, Note_off_c, 1, 35, 100
3, 173376, Note_on_c, 1, 71, 80
3, 173376, Note_on_c, 1, 68, 80
3, 174524, Note_off_c, 1, 71, 100
3, 174524, Note_off_c, 1, 68, 100
3, 174528, Note_on_c, 1, 72, 80
3, 174528, Note_on_c, 1, 69, 80
3, 175676, Note_off_c, 1, 72, 100
3, 175676, Note_off_c, 1, 69, 100
3, 175680, Note_on_c, 1, 71, 80
3, 175680, Note_on_c, 1, 68, 80
3, 176252, Note_off_c, 1, 71, 100
3, 176252, Note_off_c, 1, 68, 100
3, 176256, Note_on_c, 1, 54, 100
3, 176256, Note_on_c, 1, 66, 100
3, 177404, Note_off_c, 1, 54, 100
3, 177404, Note_off_c, 1, 66, 100
3, 177408, Note_on_c, 1, 57, 79
3, 177980, Note_off_c, 1, 57, 100
3, 177984, Note_on_c, 1, 59, 70
3, 179132, Note_off_c, 1, 59, 100
3, 179136, Note_on_c, 1, 47, 70
3, 179516, Note_off_c, 1, 47, 100
3, 179712, Note_on_c, 1, 47, 110
3, 180188, Note_off_c, 1, 47, 100
3, 180192, Note_on_c, 1, 43, 110
3, 180284, Note_off_c, 1, 43, 100
3, 180288, Note_on_c, 1, 40, 110
3, 182012, Note_off_c, 1, 40, 100
3, 182016, Note_on_c, 1, 43, 110
3, 182492, Note_off_c, 1, 43, 100
3, 182496, Note_on_c, 1, 47, 110
3, 182588, Note_off_c, 1, 47, 100
3, 182592, Note_on_c, 1, 52, 110
3, 183164, Note_off_c, 1, 52, 100
3, 183168, Note_on_c, 1, 55, 110
3, 183644, Note_off_c, 1, 55, 100
3, 183648, Note_on_c, 1, 59, 110
3, 183740, Note_off_c, 1, 59, 100
3, 183744, Note_on_c, 1, 64, 110
3, 184316, Note_off_c, 1, 64, 100
3, 184320, Note_on_c, 1, 64, 110
3, 184892, Note_off_c, 1, 64, 100
3, 184896, Note_on_c, 1, 65, 110
3, 185008, Note_on_c, 1, 67, 110
3, 185116, Note_off_c, 1, 65, 100
3, 185124, Note_on_c, 1, 71, 110
3, 185228, Note_off_c, 1, 67, 100
3, 185240, Note_on_c, 1, 67, 110
3, 185344, Note_off_c, 1, 71, 100
3, 185356, Note_on_c, 1, 65, 110
3, 185460, Note_off_c, 1, 67, 100
3, 185472, Note_on_c, 1, 62, 110
3, 185576, Note_off_c, 1, 65, 100
3, 185584, Note_on_c, 1, 65, 110
3, 185692, Note_off_c, 1, 62, 100
3, 185700, Note_on_c, 1, 67, 110
3, 185804, Note_off_c, 1, 65, 100
3, 185816, Note_on_c, 1, 65, 110
3, 185920, Note_off_c, 1, 67, 100
3, 185928, Note_on_c, 1, 62, 110
3, 186036, Note_off_c, 1, 65, 100
3, 186048, Note_on_c, 1, 59, 110
3, 186148, Note_off_c, 1, 62, 100
3, 186160, Note_on_c, 1, 62, 110
3, 186268, Note_off_c, 1, 59, 100
3, 186276, Note_on_c, 1, 65, 110
3, 186380, Note_off_c, 1, 62, 100
3, 186392, Note_on_c, 1, 62, 110
3, 186496, Note_off_c, 1, 65, 100
3, 186508, Note_on_c, 1, 59, 110
3, 186612, Note_off_c, 1, 62, 100
3, 186624, Note_on_c, 1, 55, 110
3, 186728, Note_off_c, 1, 59, 100
3, 186736, Note_on_c, 1, 59, 110
3, 186844, Note_off_c, 1, 55, 100
3, 186852, Note_on_c, 1, 62, 110
3, 186956, Note_off_c, 1, 59, 100
3, 186968, Note_on_c, 1, 59, 110
3, 187072, Note_off_c, 1, 62, 100
3, 187080, Note_on_c, 1, 55, 110
3, 187188, Note_off_c, 1, 59, 100
3, 187200, Note_on_c, 1, 53, 110
3, 187300, Note_off_c, 1, 55, 100
3, 187312, Note_on_c, 1, 55, 110
3, 187420, Note_off_c, 1, 53, 100
3, 187428, Note_on_c, 1, 59, 110
3, 187532, Note_off_c, 1, 55, 100
3, 187544, Note_on_c, 1, 55, 110
3, 187648, Note_off_c, 1, 59, 100
3, 187660, Note_on_c, 1, 53, 110
3, 187764, Note_off_c, 1, 55, 100
3, 187776, Note_on_c, 1, 50, 110
3, 187848, Note_on_c, 1, 53, 110
3, 187880, Note_off_c, 1, 53, 100
3, 187996, Note_off_c, 1, 50, 100
3, 188004, Note_on_c, 1, 55, 110
3, 188068, Note_off_c, 1, 53, 100
3, 188120, Note_on_c, 1, 53, 110
3, 188224, Note_off_c, 1, 55, 100
3, 188232, Note_on_c, 1, 50, 110
3, 188340, Note_off_c, 1, 53, 100
3, 188352, Note_on_c, 1, 47, 110
3, 188452, Note_off_c, 1, 50, 100
3, 188464, Note_on_c, 1, 50, 110
3, 188572, Note_off_c, 1, 47, 100
3, 188580, Note_on_c, 1, 53, 110
3, 188684, Note_off_c, 1, 50, 100
3, 188696, Note_on_c, 1, 50, 110
3, 188800, Note_off_c, 1, 53, 100
3, 188812, Note_on_c, 1, 47, 110
3, 188916, Note_off_c, 1, 50, 100
3, 188928, Note_on_c, 1, 43, 110
3, 189032, Note_off_c, 1, 47, 100
3, 189040, Note_on_c, 1, 47, 110
3, 189148, Note_off_c, 1, 43, 100
3, 189156, Note_on_c, 1, 50, 110
3, 189260, Note_off_c, 1, 47, 100
3, 189272, Note_on_c, 1, 47, 110
3, 189376, Note_off_c, 1, 50, 100
3, 189384, Note_on_c, 1, 43, 110
3, 189492, Note_off_c, 1, 47, 100
3, 189504, Note_on_c, 1, 36, 110
3, 189512, Note_off_c, 1, 43, 100
3, 191228, Note_off_c, 1, 36, 100
3, 191232, Note_on_c, 1, 39, 110
3, 191708, Note_off_c, 1, 39, 100
3, 191712, Note_on_c, 1, 43, 110
3, 191804, Note_off_c, 1, 43, 100
3, 191808, Note_on_c, 1, 48, 110
3, 192380, Note_off_c, 1, 48, 100
3, 192384, Note_on_c, 1, 51, 110
3, 192860, Note_off_c, 1, 51, 100
3, 192864, Note_on_c, 1, 55, 110
3, 192956, Note_off_c, 1, 55, 100
3, 192960, Note_on_c, 1, 60, 110
3, 193532, Note_off_c, 1, 60, 100
3, 193536, Note_on_c, 1, 60, 110
3, 194108, Note_off_c, 1, 60, 100
3, 194112, Note_on_c, 1, 61, 110
3, 194224, Note_on_c, 1, 63, 110
3, 194332, Note_off_c, 1, 61, 100
3, 194340, Note_on_c, 1, 67, 110
3, 194444, Note_off_c, 1, 63, 100
3, 194456, Note_on_c, 1, 63, 110
3, 194560, Note_off_c, 1, 67, 100
3, 194572, Note_on_c, 1, 61, 110
3, 194676, Note_off_c, 1, 63, 100
3, 194688, Note_on_c, 1, 58, 110
3, 194792, Note_off_c, 1, 61, 100
3, 194800, Note_on_c, 1, 61, 110
3, 194908, Note_off_c, 1, 58, 100
3, 194916, Note_on_c, 1, 63, 110
3, 195020, Note_off_c, 1, 61, 100
3, 195032, Note_on_c, 1, 61, 110
3, 195136, Note_off_c, 1, 63, 100
3, 195144, Note_on_c, 1, 58, 110
3, 195252, Note_off_c, 1, 61, 100
3, 195264, Note_on_c, 1, 55, 110
3, 195364, Note_off_c, 1, 58, 100
3, 195376, Note_on_c, 1, 58, 110
3, 195484, Note_off_c, 1, 55, 100
3, 195492, Note_on_c, 1, 61, 110
3, 195596, Note_off_c, 1, 58, 100
3, 195608, Note_on_c, 1, 58, 110
3, 195712, Note_off_c, 1, 61, 100
3, 195724, Note_on_c, 1, 55, 110
3, 195828, Note_off_c, 1, 58, 100
3, 195840, Note_on_c, 1, 51, 110
3, 195944, Note_off_c, 1, 55, 100
3, 195952, Note_on_c, 1, 55, 110
3, 196060, Note_off_c, 1, 51, 100
3, 196068, Note_on_c, 1, 58, 110
3, 196172, Note_off_c, 1, 55, 100
3, 196184, Note_on_c, 1, 55, 110
3, 196288, Note_off_c, 1, 58, 100
3, 196296, Note_on_c, 1, 51, 110
3, 196404, Note_off_c, 1, 55, 100
3, 196416, Note_on_c, 1, 49, 110
3, 196440, Note_off_c, 1, 51, 100
3, 196528, Note_on_c, 1, 51, 110
3, 196636, Note_off_c, 1, 49, 100
3, 196644, Note_on_c, 1, 55, 110
3, 196748, Note_off_c, 1, 51, 100
3, 196760, Note_on_c, 1, 51, 110
3, 196864, Note_off_c, 1, 55, 100
3, 196876, Note_on_c, 1, 49, 110
3, 196980, Note_off_c, 1, 51, 100
3, 196992, Note_on_c, 1, 46, 110
3, 197096, Note_off_c, 1, 49, 100
3, 197104, Note_on_c, 1, 49, 110
3, 197212, Note_off_c, 1, 46, 100
3, 197220, Note_on_c, 1, 51, 110
3, 197324, Note_off_c, 1, 49, 100
3, 197336, Note_on_c, 1, 49, 110
3, 197440, Note_off_c, 1, 51, 100
3, 197448, Note_on_c, 1, 46, 110
3, 197556, Note_off_c, 1, 49, 100
3, 197568, Note_on_c, 1, 43, 110
3, 197664, Note_on_c, 1, 46, 110
3, 197668, Note_off_c, 1, 46, 100
3, 197756, Note_off_c, 1, 43, 100
3, 197760, Note_on_c, 1, 49, 110
3, 197852, Note_off_c, 1, 46, 100
3, 197856, Note_on_c, 1, 46, 110
3, 197948, Note_off_c, 1, 49, 100
3, 197952, Note_on_c, 1, 43, 110
3, 198044, Note_off_c, 1, 46, 100
3, 198048, Note_on_c, 1, 39, 110
3, 198140, Note_off_c, 1, 43, 100
3, 198144, Note_on_c, 1, 37, 110
3, 198236, Note_off_c, 1, 39, 100
3, 198240, Note_on_c, 1, 39, 110
3, 198332, Note_off_c, 1, 37, 100
3, 198336, Note_on_c, 1, 43, 110
3, 198428, Note_off_c, 1, 39, 100
3, 198432, Note_on_c, 1, 39, 110
3, 198524, Note_off_c, 1, 43, 100
3, 198528, Note_on_c, 1, 37, 110
3, 198620, Note_off_c, 1, 39, 100
3, 198624, Note_on_c, 1, 34, 110
3, 198716, Note_off_c, 1, 37, 100
3, 198716, Note_off_c, 1, 34, 100
3, 198720, Note_on_c, 1, 32, 110
3, 200444, Note_off_c, 1, 32, 100
3, 200448, Note_on_c, 1, 36, 110
3, 200924, Note_off_c, 1, 36, 100
3, 200928, Note_on_c, 1, 39, 110
3, 201020, Note_off_c, 1, 39, 100
3, 201024, Note_on_c, 1, 44, 110
3, 201596, Note_off_c, 1, 44, 100
3, 201600, Note_on_c, 1, 48, 110
3, 202076, Note_off_c, 1, 48, 100
3, 202080, Note_on_c, 1, 51, 110
3, 202172, Note_off_c, 1, 51, 100
3, 202176, Note_on_c, 1, 56, 110
3, 202748, Note_off_c, 1, 56, 100
3, 202752, Note_on_c, 1, 56, 110
3, 203324, Note_off_c, 1, 56, 100
3, 203328, Note_on_c, 1, 57, 110
3, 203440, Note_on_c, 1, 60, 110
3, 203548, Note_off_c, 1, 57, 100
3, 203556, Note_on_c, 1, 63, 110
3, 203660, Note_off_c, 1, 60, 100
3, 203672, Note_on_c, 1, 60, 110
3, 203764, Note_on_c, 1, 57, 110
3, 203776, Note_off_c, 1, 63, 100
3, 203892, Note_off_c, 1, 60, 100
3, 203904, Note_on_c, 1, 54, 110
3, 203984, Note_off_c, 1, 57, 100
3, 204016, Note_on_c, 1, 57, 110
3, 204124, Note_off_c, 1, 54, 100
3, 204132, Note_on_c, 1, 60, 110
3, 204236, Note_off_c, 1, 57, 100
3, 204248, Note_on_c, 1, 57, 110
3, 204340, Note_on_c, 1, 54, 110
3, 204352, Note_off_c, 1, 60, 100
3, 204468, Note_off_c, 1, 57, 100
3, 204480, Note_on_c, 1, 51, 110
3, 204560, Note_off_c, 1, 54, 100
3, 204592, Note_on_c, 1, 54, 110
3, 204700, Note_off_c, 1, 51, 100
3, 204708, Note_on_c, 1, 57, 110
3, 204812, Note_off_c, 1, 54, 100
3, 204824, Note_on_c, 1, 54, 110
3, 204916, Note_on_c, 1, 51, 110
3, 204928, Note_off_c, 1, 57, 100
3, 205044, Note_off_c, 1, 54, 100
3, 205056, Note_on_c, 1, 48, 110
3, 205136, Note_off_c, 1, 51, 100
3, 205168, Note_on_c, 1, 51, 110
3, 205276, Note_off_c, 1, 48, 100
3, 205284, Note_on_c, 1, 54, 110
3, 205388, Note_off_c, 1, 51, 100
3, 205400, Note_on_c, 1, 51, 110
3, 205492, Note_on_c, 1, 48, 110
3, 205504, Note_off_c, 1, 54, 100
3, 205620, Note_off_c, 1, 51, 100
3, 205632, Key_signature, -4, "minor"
3, 205632, Note_on_c, 1, 45, 110
3, 205712, Note_off_c, 1, 48, 100
3, 205744, Note_on_c, 1, 48, 110
3, 205852, Note_off_c, 1, 45, 100
3, 205860, Note_on_c, 1, 51, 110
3, 205964, Note_off_c, 1, 48, 100
3, 205976, Note_on_c, 1, 48, 110
3, 206068, Note_on_c, 1, 45, 110
3, 206080, Note_off_c, 1, 51, 100
3, 206196, Note_off_c, 1, 48, 100
3, 206208, Note_on_c, 1, 42, 110
3, 206288, Note_off_c, 1, 45, 100
3, 206320, Note_on_c, 1, 45, 110
3, 206428, Note_off_c, 1, 42, 100
3, 206436, Note_on_c, 1, 48, 110
3, 206540, Note_off_c, 1, 45, 100
3, 206552, Note_on_c, 1, 45, 110
3, 206644, Note_on_c, 1, 42, 110
3, 206656, Note_off_c, 1, 48, 100
3, 206772, Note_off_c, 1, 45, 100
3, 206784, Note_on_c, 1, 39, 110
3, 206864, Note_off_c, 1, 42, 100
3, 206880, Note_on_c, 1, 42, 110
3, 206972, Note_off_c, 1, 39, 100
3, 206976, Note_on_c, 1, 44, 110
3, 207068, Note_off_c, 1, 42, 100
3, 207072, Note_on_c, 1, 42, 110
3, 207164, Note_off_c, 1, 44, 100
3, 207168, Note_on_c, 1, 39, 110
3, 207260, Note_off_c, 1, 42, 100
3, 207264, Note_on_c, 1, 36, 110
3, 207356, Note_off_c, 1, 39, 100
3, 207360, Note_on_c, 1, 33, 110
3, 207452, Note_off_c, 1, 36, 100
3, 207456, Note_on_c, 1, 36, 110
3, 207548, Note_off_c, 1, 33, 100
3, 207552, Note_on_c, 1, 39, 110
3, 207644, Note_off_c, 1, 36, 100
3, 207648, Note_on_c, 1, 42, 110
3, 207740, Note_off_c, 1, 39, 100
3, 207744, Note_on_c, 1, 39, 110
3, 207836, Note_off_c, 1, 42, 100
3, 207840, Note_on_c, 1, 36, 110
3, 207932, Note_off_c, 1, 39, 100
3, 207936, Note_on_c, 1, 32, 110
3, 208028, Note_off_c, 1, 36, 100
3, 208032, Note_on_c, 1, 36, 110
3, 208124, Note_off_c, 1, 32, 100
3, 208128, Note_on_c, 1, 39, 110
3, 208220, Note_off_c, 1, 36, 100
3, 208224, Note_on_c, 1, 42, 110
3, 208316, Note_off_c, 1, 39, 100
3, 208320, Note_on_c, 1, 39, 110
3, 208412, Note_off_c, 1, 42, 100
3, 208416, Note_on_c, 1, 36, 110
3, 208508, Note_off_c, 1, 39, 100
3, 208512, Note_on_c, 1, 33, 110
3, 208604, Note_off_c, 1, 36, 100
3, 208608, Note_on_c, 1, 36, 110
3, 208700, Note_off_c, 1, 33, 100
3, 208704, Note_on_c, 1, 39, 110
3, 208796, Note_off_c, 1, 36, 100
3, 208800, Note_on_c, 1, 42, 110
3, 208892, Note_off_c, 1, 39, 100
3, 208896, Note_on_c, 1, 39, 110
3, 208988, Note_off_c, 1, 42, 100
3, 208992, Note_on_c, 1, 36, 110
3, 209084, Note_off_c, 1, 39, 100
3, 209088, Note_on_c, 1, 32, 110
3, 209180, Note_off_c, 1, 36, 100
3, 209184, Note_on_c, 1, 36, 110
3, 209276, Note_off_c, 1, 32, 100
3, 209280, Note_on_c, 1, 39, 110
3, 209372, Note_off_c, 1, 36, 100
3, 209376, Note_on_c, 1, 42, 110
3, 209468, Note_off_c, 1, 39, 100
3, 209472, Note_on_c, 1, 39, 110
3, 209564, Note_off_c, 1, 42, 100
3, 209568, Note_on_c, 1, 36, 110
3, 209660, Note_off_c, 1, 39, 100
3, 209664, Note_on_c, 1, 33, 110
3, 209756, Note_off_c, 1, 36, 100
3, 209760, Note_on_c, 1, 36, 110
3, 209852, Note_off_c, 1, 33, 100
3, 209856, Note_on_c, 1, 39, 110
3, 209948, Note_off_c, 1, 36, 100
3, 209952, Note_on_c, 1, 42, 110
3, 210044, Note_off_c, 1, 39, 100
3, 210048, Note_on_c, 1, 39, 110
3, 210140, Note_off_c, 1, 42, 100
3, 210144, Note_on_c, 1, 36, 110
3, 210236, Note_off_c, 1, 39, 100
3, 210240, Note_on_c, 1, 32, 110
3, 210332, Note_off_c, 1, 36, 100
3, 210336, Note_on_c, 1, 36, 110
3, 210428, Note_off_c, 1, 32, 100
3, 210432, Note_on_c, 1, 39, 110
3, 210524, Note_off_c, 1, 36, 100
3, 210528, Note_on_c, 1, 42, 110
3, 210620, Note_off_c, 1, 39, 100
3, 210624, Note_on_c, 1, 39, 110
3, 210716, Note_off_c, 1, 42, 100
3, 210720, Note_on_c, 1, 36, 110
3, 210812, Note_off_c, 1, 39, 100
3, 210816, Note_on_c, 1, 33, 110
3, 210908, Note_off_c, 1, 36, 100
3, 210912, Note_on_c, 1, 36, 110
3, 211004, Note_off_c, 1, 33, 100
3, 211008, Note_on_c, 1, 39, 110
3, 211100, Note_off_c, 1, 36, 100
3, 211104, Note_on_c, 1, 42, 110
3, 211196, Note_off_c, 1, 39, 100
3, 211200, Note_on_c, 1, 39, 110
3, 211292, Note_off_c, 1, 42, 100
3, 211296, Note_on_c, 1, 36, 110
3, 211388, Note_off_c, 1, 39, 100
3, 211392, Note_on_c, 1, 32, 110
3, 211484, Note_off_c, 1, 36, 100
3, 211488, Note_on_c, 1, 36, 110
3, 211580, Note_off_c, 1, 32, 100
3, 211584, Note_on_c, 1, 39, 110
3, 211676, Note_off_c, 1, 36, 100
3, 211680, Note_on_c, 1, 42, 110
3, 211772, Note_off_c, 1, 39, 100
3, 211776, Note_on_c, 1, 39, 110
3, 211868, Note_off_c, 1, 42, 100
3, 211872, Note_on_c, 1, 36, 110
3, 211964, Note_off_c, 1, 39, 100
3, 211968, Note_on_c, 1, 33, 110
3, 212060, Note_off_c, 1, 36, 100
3, 212064, Note_on_c, 1, 36, 110
3, 212156, Note_off_c, 1, 33, 100
3, 212160, Note_on_c, 1, 39, 110
3, 212252, Note_off_c, 1, 36, 100
3, 212256, Note_on_c, 1, 42, 110
3, 212348, Note_off_c, 1, 39, 100
3, 212352, Note_on_c, 1, 39, 110
3, 212444, Note_off_c, 1, 42, 100
3, 212448, Note_on_c, 1, 36, 110
3, 212540, Note_off_c, 1, 39, 100
3, 212540, Note_off_c, 1, 36, 100
3, 212544, Note_on_c, 1, 44, 125
3, 212544, Note_on_c, 1, 32, 125
3, 212732, Note_off_c, 1, 44, 100
3, 212732, Note_off_c, 1, 32, 100
3, 212736, Note_on_c, 1, 56, 80
3, 212924, Note_off_c, 1, 56, 100
3, 212928, Note_on_c, 1, 56, 80
3, 213116, Note_off_c, 1, 56, 100
3, 213120, Note_on_c, 1, 56, 80
3, 213308, Note_off_c, 1, 56, 100
3, 213312, Note_on_c, 1, 56, 80
3, 213500, Note_off_c, 1, 56, 100
3, 213504, Note_on_c, 1, 56, 80
3, 213692, Note_off_c, 1, 56, 100
3, 213696, Note_on_c, 1, 56, 80
3, 213884, Note_off_c, 1, 56, 100
3, 213888, Note_on_c, 1, 56, 80
3, 214076, Note_off_c, 1, 56, 100
3, 214080, Note_on_c, 1, 56, 80
3, 214268, Note_off_c, 1, 56, 100
3, 214272, Note_on_c, 1, 56, 80
3, 214460, Note_off_c, 1, 56, 100
3, 214464, Note_on_c, 1, 56, 80
3, 214652, Note_off_c, 1, 56, 100
3, 214656, Note_on_c, 1, 56, 80
3, 214844, Note_off_c, 1, 56, 100
3, 215040, Note_on_c, 1, 56, 80
3, 215228, Note_off_c, 1, 56, 100
3, 215232, Note_on_c, 1, 56, 80
3, 215420, Note_off_c, 1, 56, 100
3, 215424, Note_on_c, 1, 56, 80
3, 215612, Note_off_c, 1, 56, 100
3, 215616, Note_on_c, 1, 56, 80
3, 215804, Note_off_c, 1, 56, 100
3, 215808, Note_on_c, 1, 56, 80
3, 215996, Note_off_c, 1, 56, 100
3, 216000, Note_on_c, 1, 54, 80
3, 216188, Note_off_c, 1, 54, 100
3, 216192, Note_on_c, 1, 56, 80
3, 216380, Note_off_c, 1, 56, 100
3, 216384, Note_on_c, 1, 56, 80
3, 216572, Note_off_c, 1, 56, 100
3, 216576, Note_on_c, 1, 56, 80
3, 216764, Note_off_c, 1, 56, 100
3, 216768, Note_on_c, 1, 56, 80
3, 216956, Note_off_c, 1, 56, 100
3, 216960, Note_on_c, 1, 56, 80
3, 217148, Note_off_c, 1, 56, 100
3, 217344, Note_on_c, 1, 56, 80
3, 217532, Note_off_c, 1, 56, 100
3, 217536, Note_on_c, 1, 56, 80
3, 217724, Note_off_c, 1, 56, 100
3, 217728, Note_on_c, 1, 56, 80
3, 217916, Note_off_c, 1, 56, 100
3, 217920, Note_on_c, 1, 56, 80
3, 218108, Note_off_c, 1, 56, 100
3, 218112, Note_on_c, 1, 56, 80
3, 218300, Note_off_c, 1, 56, 100
3, 218304, Note_on_c, 1, 53, 80
3, 218492, Note_off_c, 1, 53, 100
3, 218496, Note_on_c, 1, 56, 80
3, 218684, Note_off_c, 1, 56, 100
3, 218688, Note_on_c, 1, 56, 80
3, 218876, Note_off_c, 1, 56, 100
3, 218880, Note_on_c, 1, 56, 80
3, 219068, Note_off_c, 1, 56, 100
3, 219072, Note_on_c, 1, 56, 80
3, 219260, Note_off_c, 1, 56, 100
3, 219264, Note_on_c, 1, 56, 80
3, 219452, Note_off_c, 1, 56, 100
3, 219648, Note_on_c, 1, 56, 80
3, 219836, Note_off_c, 1, 56, 100
3, 219840, Note_on_c, 1, 56, 80
3, 220028, Note_off_c, 1, 56, 100
3, 220032, Note_on_c, 1, 49, 80
3, 220032, Note_on_c, 1, 53, 80
3, 220224, Note_on_c, 1, 56, 80
3, 220312, Note_off_c, 1, 49, 100
3, 220312, Note_off_c, 1, 53, 100
3, 220412, Note_off_c, 1, 56, 100
3, 220416, Note_on_c, 1, 56, 80
3, 220604, Note_off_c, 1, 56, 100
3, 220608, Note_on_c, 1, 49, 80
3, 220608, Note_on_c, 1, 53, 80
3, 220800, Note_on_c, 1, 56, 80
3, 220888, Note_off_c, 1, 49, 100
3, 220888, Note_off_c, 1, 53, 100
3, 220988, Note_off_c, 1, 56, 100
3, 220992, Note_on_c, 1, 56, 80
3, 221180, Note_off_c, 1, 56, 100
3, 221184, Note_on_c, 1, 49, 80
3, 221184, Note_on_c, 1, 53, 80
3, 221376, Note_on_c, 1, 56, 80
3, 221464, Note_off_c, 1, 49, 100
3, 221464, Note_off_c, 1, 53, 100
3, 221564, Note_off_c, 1, 56, 100
3, 221568, Note_on_c, 1, 56, 80
3, 221756, Note_off_c, 1, 56, 100
3, 221760, Note_on_c, 1, 48, 80
3, 221760, Note_on_c, 1, 51, 80
3, 221952, Note_on_c, 1, 56, 80
3, 222040, Note_off_c, 1, 48, 100
3, 222040, Note_off_c, 1, 51, 100
3, 222140, Note_off_c, 1, 56, 100
3, 222144, Note_on_c, 1, 56, 80
3, 222332, Note_off_c, 1, 56, 100
3, 222336, Note_on_c, 1, 56, 80
3, 222524, Note_off_c, 1, 56, 100
3, 222528, Note_on_c, 1, 56, 80
3, 222716, Note_off_c, 1, 56, 100
3, 222720, Note_on_c, 1, 56, 80
3, 222908, Note_off_c, 1, 56, 100
3, 222912, Note_on_c, 1, 56, 80
3, 223100, Note_off_c, 1, 56, 100
3, 223104, Note_on_c, 1, 56, 80
3, 223292, Note_off_c, 1, 56, 100
3, 223296, Note_on_c, 1, 56, 80
3, 223484, Note_off_c, 1, 56, 100
3, 223488, Note_on_c, 1, 56, 80
3, 223676, Note_off_c, 1, 56, 100
3, 223680, Note_on_c, 1, 56, 80
3, 223868, Note_off_c, 1, 56, 100
3, 223872, Note_on_c, 1, 56, 80
3, 224060, Note_off_c, 1, 56, 100
3, 224064, Note_on_c, 1, 56, 80
3, 224252, Note_off_c, 1, 56, 100
3, 224256, Note_on_c, 1, 56, 80
3, 224444, Note_off_c, 1, 56, 100
3, 224448, Note_on_c, 1, 56, 80
3, 224636, Note_off_c, 1, 56, 100
3, 224640, Note_on_c, 1, 56, 80
3, 224828, Note_off_c, 1, 56, 100
3, 224832, Note_on_c, 1, 56, 80
3, 225020, Note_off_c, 1, 56, 100
3, 225024, Note_on_c, 1, 56, 80
3, 225212, Note_off_c, 1, 56, 100
3, 225216, Note_on_c, 1, 56, 80
3, 225404, Note_off_c, 1, 56, 100
3, 225408, Note_on_c, 1, 56, 80
3, 225596, Note_off_c, 1, 56, 100
3, 225600, Note_on_c, 1, 56, 80
3, 225788, Note_off_c, 1, 56, 100
3, 225792, Note_on_c, 1, 54, 80
3, 225792, Note_on_c, 1, 51, 80
3, 225980, Note_off_c, 1, 54, 100
3, 225980, Note_off_c, 1, 51, 100
3, 225984, Note_on_c, 1, 56, 80
3, 226172, Note_off_c, 1, 56, 100
3, 226176, Note_on_c, 1, 56, 80
3, 226364, Note_off_c, 1, 56, 100
3, 226368, Note_on_c, 1, 56, 80
3, 226556, Note_off_c, 1, 56, 100
3, 226560, Note_on_c, 1, 56, 80
3, 226748, Note_off_c, 1, 56, 100
3, 226752, Note_on_c, 1, 56, 80
3, 226940, Note_off_c, 1, 56, 100
3, 226944, Note_on_c, 1, 56, 80
3, 227132, Note_off_c, 1, 56, 100
3, 227136, Note_on_c, 1, 56, 80
3, 227324, Note_off_c, 1, 56, 100
3, 227328, Note_on_c, 1, 56, 80
3, 227516, Note_off_c, 1, 56, 100
3, 227520, Note_on_c, 1, 56, 80
3, 227708, Note_off_c, 1, 56, 100
3, 227712, Note_on_c, 1, 56, 80
3, 227900, Note_off_c, 1, 56, 100
3, 227904, Note_on_c, 1, 56, 80
3, 228092, Note_off_c, 1, 56, 100
3, 228096, Note_on_c, 1, 53, 80
3, 228096, Note_on_c, 1, 49, 80
3, 228284, Note_off_c, 1, 53, 100
3, 228284, Note_off_c, 1, 49, 100
3, 228288, Note_on_c, 1, 56, 80
3, 228476, Note_off_c, 1, 56, 100
3, 228480, Note_on_c, 1, 56, 80
3, 228668, Note_off_c, 1, 56, 100
3, 228864, Note_on_c, 1, 56, 80
3, 229052, Note_off_c, 1, 56, 100
3, 229056, Note_on_c, 1, 56, 80
3, 229244, Note_off_c, 1, 56, 100
3, 229248, Note_on_c, 1, 53, 80
3, 229248, Note_on_c, 1, 49, 80
3, 229436, Note_off_c, 1, 53, 100
3, 229436, Note_off_c, 1, 49, 100
3, 229440, Note_on_c, 1, 56, 80
3, 229628, Note_off_c, 1, 56, 100
3, 229632, Note_on_c, 1, 56, 80
3, 229820, Note_off_c, 1, 56, 100
3, 229824, Note_on_c, 1, 53, 80
3, 229824, Note_on_c, 1, 49, 80
3, 230012, Note_off_c, 1, 53, 100
3, 230012, Note_off_c, 1, 49, 100
3, 230016, Note_on_c, 1, 56, 80
3, 230204, Note_off_c, 1, 56, 100
3, 230208, Note_on_c, 1, 56, 80
3, 230396, Note_off_c, 1, 56, 100
3, 230400, Note_on_c, 1, 53, 80
3, 230400, Note_on_c, 1, 49, 80
3, 230588, Note_off_c, 1, 53, 100
3, 230588, Note_off_c, 1, 49, 100
3, 230592, Note_on_c, 1, 56, 80
3, 230780, Note_off_c, 1, 56, 100
3, 230784, Note_on_c, 1, 56, 80
3, 230972, Note_off_c, 1, 56, 100
3, 231168, Note_on_c, 1, 56, 80
3, 231356, Note_off_c, 1, 56, 100
3, 231360, Note_on_c, 1, 56, 80
3, 231548, Note_off_c, 1, 56, 100
3, 231552, Note_on_c, 1, 51, 80
3, 231552, Note_on_c, 1, 48, 80
3, 231740, Note_off_c, 1, 51, 100
3, 231740, Note_off_c, 1, 48, 100
3, 231744, Note_on_c, 1, 56, 80
3, 231932, Note_off_c, 1, 56, 100
3, 231936, Note_on_c, 1, 56, 80
3, 232124, Note_off_c, 1, 56, 100
3, 232320, Note_on_c, 1, 56, 80
3, 232508, Note_off_c, 1, 56, 100
3, 232512, Note_on_c, 1, 56, 80
3, 232700, Note_off_c, 1, 56, 100
3, 232704, Note_on_c, 1, 52, 79
3, 232704, Note_on_c, 1, 49, 79
3, 232892, Note_off_c, 1, 52, 100
3, 232892, Note_off_c, 1, 49, 100
3, 232896, Note_on_c, 1, 56, 79
3, 233084, Note_off_c, 1, 56, 100
3, 233088, Note_on_c, 1, 56, 79
3, 233276, Note_off_c, 1, 56, 100
3, 233472, Note_on_c, 1, 56, 78
3, 233660, Note_off_c, 1, 56, 100
3, 233664, Note_on_c, 1, 56, 78
3, 233852, Note_off_c, 1, 56, 100
3, 233856, Note_on_c, 1, 51, 77
3, 233856, Note_on_c, 1, 48, 77
3, 234044, Note_off_c, 1, 51, 100
3, 234044, Note_off_c, 1, 48, 100
3, 234048, Note_on_c, 1, 56, 77
3, 234236, Note_off_c, 1, 56, 100
3, 234240, Note_on_c, 1, 56, 77
3, 234428, Note_off_c, 1, 56, 100
3, 234624, Note_on_c, 1, 56, 76
3, 234812, Note_off_c, 1, 56, 100
3, 234816, Note_on_c, 1, 56, 76
3, 235004, Note_off_c, 1, 56, 100
3, 235008, Note_on_c, 1, 49, 75
3, 235008, Note_on_c, 1, 52, 75
3, 235196, Note_off_c, 1, 49, 100
3, 235196, Note_off_c, 1, 52, 100
3, 235200, Note_on_c, 1, 56, 75
3, 235388, Note_off_c, 1, 56, 100
3, 235392, Note_on_c, 1, 56, 75
3, 235580, Note_off_c, 1, 56, 100
3, 235776, Note_on_c, 1, 56, 74
3, 235964, Note_off_c, 1, 56, 100
3, 235968, Note_on_c, 1, 56, 74
3, 236156, Note_off_c, 1, 56, 100
3, 236160, Note_on_c, 1, 51, 73
3, 236160, Note_on_c, 1, 48, 73
3, 236348, Note_off_c, 1, 51, 100
3, 236348, Note_off_c, 1, 48, 100
3, 236352, Note_on_c, 1, 56, 73
3, 236540, Note_off_c, 1, 56, 100
3, 236544, Note_on_c, 1, 56, 73
3, 236732, Note_off_c, 1, 56, 100
3, 236928, Note_on_c, 1, 56, 72
3, 237116, Note_off_c, 1, 56, 100
3, 237120, Note_on_c, 1, 56, 72
3, 237308, Note_off_c, 1, 56, 100
3, 237312, Note_on_c, 1, 50, 71
3, 237312, Note_on_c, 1, 47, 71
3, 237500, Note_off_c, 1, 50, 100
3, 237500, Note_off_c, 1, 47, 100
3, 237504, Note_on_c, 1, 56, 71
3, 237692, Note_off_c, 1, 56, 100
3, 237696, Note_on_c, 1, 56, 71
3, 237884, Note_off_c, 1, 56, 100
3, 238080, Note_on_c, 1, 56, 70
3, 238268, Note_off_c, 1, 56, 100
3, 238272, Note_on_c, 1, 56, 70
3, 238460, Note_off_c, 1, 56, 100
3, 238464, Note_on_c, 1, 46, 70
3, 238464, Note_on_c, 1, 49, 70
3, 238652, Note_off_c, 1, 46, 100
3, 238652, Note_off_c, 1, 49, 100
3, 238656, Note_on_c, 1, 56, 70
3, 238844, Note_off_c, 1, 56, 100
3, 238848, Note_on_c, 1, 56, 70
3, 239036, Note_off_c, 1, 56, 100
3, 239232, Note_on_c, 1, 56, 70
3, 239420, Note_off_c, 1, 56, 100
3, 239424, Note_on_c, 1, 56, 70
3, 239612, Note_off_c, 1, 56, 100
3, 239616, Note_on_c, 1, 48, 70
3, 239616, Note_on_c, 1, 45, 70
3, 239804, Note_off_c, 1, 48, 100
3, 239804, Note_off_c, 1, 45, 100
3, 239808, Note_on_c, 1, 56, 70
3, 239996, Note_off_c, 1, 56, 100
3, 240000, Note_on_c, 1, 56, 70
3, 240188, Note_off_c, 1, 56, 100
3, 240384, Note_on_c, 1, 44, 71
3, 240576, Note_on_c, 1, 43, 72
3, 240764, Note_off_c, 1, 44, 100
3, 240764, Note_off_c, 1, 43, 100
3, 240768, Note_on_c, 1, 44, 73
3, 240960, Note_on_c, 1, 46, 74
3, 241148, Note_off_c, 1, 44, 100
3, 241148, Note_off_c, 1, 46, 100
3, 241152, Note_on_c, 1, 44, 75
3, 241344, Note_on_c, 1, 42, 76
3, 241532, Note_off_c, 1, 42, 100
3, 241536, Note_on_c, 1, 44, 77
3, 241724, Note_off_c, 1, 44, 100
3, 241728, Note_on_c, 1, 42, 79
3, 241916, Note_off_c, 1, 42, 100
3, 241920, Note_on_c, 1, 41, 80
3, 242108, Note_off_c, 1, 41, 100
3, 242112, Note_on_c, 1, 42, 81
3, 242300, Note_off_c, 1, 42, 100
3, 242304, Note_on_c, 1, 41, 82
3, 242492, Note_off_c, 1, 44, 100
3, 242492, Note_off_c, 1, 41, 100
3, 242496, Note_on_c, 1, 39, 83
3, 242684, Note_off_c, 1, 39, 100
3, 242688, Note_on_c, 1, 44, 84
3, 242880, Note_on_c, 1, 43, 85
3, 243068, Note_off_c, 1, 44, 100
3, 243068, Note_off_c, 1, 43, 100
3, 243072, Note_on_c, 1, 44, 87
3, 243264, Note_on_c, 1, 46, 88
3, 243452, Note_off_c, 1, 44, 100
3, 243452, Note_off_c, 1, 46, 100
3, 243456, Note_on_c, 1, 44, 89
3, 243648, Note_on_c, 1, 39, 90
3, 243836, Note_off_c, 1, 39, 100
3, 243840, Note_on_c, 1, 41, 91
3, 244028, Note_off_c, 1, 41, 100
3, 244032, Note_on_c, 1, 39, 92
3, 244220, Note_off_c, 1, 39, 100
3, 244224, Note_on_c, 1, 37, 93
3, 244412, Note_off_c, 1, 37, 100
3, 244416, Note_on_c, 1, 39, 95
3, 244604, Note_off_c, 1, 39, 100
3, 244608, Note_on_c, 1, 37, 96
3, 244796, Note_off_c, 1, 44, 100
3, 244796, Note_off_c, 1, 37, 100
3, 244800, Note_on_c, 1, 36, 97
3, 244988, Note_off_c, 1, 36, 100
3, 244992, Note_on_c, 1, 44, 98
3, 245184, Note_on_c, 1, 43, 99
3, 245372, Note_off_c, 1, 44, 100
3, 245372, Note_off_c, 1, 43, 100
3, 245376, Note_on_c, 1, 44, 100
3, 245568, Note_on_c, 1, 46, 101
3, 245756, Note_off_c, 1, 44, 100
3, 245756, Note_off_c, 1, 46, 100
3, 245760, Note_on_c, 1, 44, 103
3, 245952, Note_on_c, 1, 36, 104
3, 246140, Note_off_c, 1, 36, 100
3, 246144, Note_on_c, 1, 37, 105
3, 246332, Note_off_c, 1, 37, 100
3, 246336, Note_on_c, 1, 36, 106
3, 246524, Note_off_c, 1, 36, 100
3, 246528, Note_on_c, 1, 34, 107
3, 246716, Note_off_c, 1, 34, 100
3, 246720, Note_on_c, 1, 36, 108
3, 246908, Note_off_c, 1, 36, 100
3, 246912, Note_on_c, 1, 34, 109
3, 247100, Note_off_c, 1, 44, 100
3, 247100, Note_off_c, 1, 34, 100
3, 247104, Note_on_c, 1, 32, 110
3, 247292, Note_off_c, 1, 32, 100
3, 247296, Note_on_c, 1, 31, 110
3, 247484, Note_off_c, 1, 31, 100
3, 247488, Note_on_c, 1, 32, 110
3, 247676, Note_off_c, 1, 32, 100
3, 247680, Note_on_c, 1, 34, 110
3, 247868, Note_off_c, 1, 34, 100
3, 247872, Note_on_c, 1, 32, 110
3, 248060, Note_off_c, 1, 32, 100
3, 248064, Note_on_c, 1, 34, 110
3, 248252, Note_off_c, 1, 34, 100
3, 248256, Note_on_c, 1, 35, 110
3, 248444, Note_off_c, 1, 35, 100
3, 248448, Note_on_c, 1, 34, 110
3, 248636, Note_off_c, 1, 34, 100
3, 248640, Note_on_c, 1, 35, 110
3, 248828, Note_off_c, 1, 35, 100
3, 248832, Note_on_c, 1, 36, 110
3, 249020, Note_off_c, 1, 36, 100
3, 249024, Note_on_c, 1, 35, 110
3, 249212, Note_off_c, 1, 35, 100
3, 249216, Note_on_c, 1, 36, 110
3, 249404, Note_off_c, 1, 36, 100
3, 249408, Note_on_c, 1, 37, 80
3, 249596, Note_off_c, 1, 37, 100
3, 249600, Note_on_c, 1, 49, 80
3, 249600, Note_on_c, 1, 44, 80
3, 249600, Note_on_c, 1, 41, 80
3, 249788, Note_off_c, 1, 49, 100
3, 249788, Note_off_c, 1, 44, 100
3, 249788, Note_off_c, 1, 41, 100
3, 249792, Note_on_c, 1, 37, 80
3, 249980, Note_off_c, 1, 37, 100
3, 249984, Note_on_c, 1, 49, 80
3, 249984, Note_on_c, 1, 44, 80
3, 249984, Note_on_c, 1, 41, 80
3, 250172, Note_off_c, 1, 49, 100
3, 250172, Note_off_c, 1, 44, 100
3, 250172, Note_off_c, 1, 41, 100
3, 250176, Note_on_c, 1, 37, 80
3, 250364, Note_off_c, 1, 37, 100
3, 250368, Note_on_c, 1, 49, 80
3, 250368, Note_on_c, 1, 44, 80
3, 250368, Note_on_c, 1, 41, 80
3, 250556, Note_off_c, 1, 49, 100
3, 250556, Note_off_c, 1, 44, 100
3, 250556, Note_off_c, 1, 41, 100
3, 250560, Note_on_c, 1, 37, 80
3, 250748, Note_off_c, 1, 37, 100
3, 250752, Note_on_c, 1, 49, 80
3, 250752, Note_on_c, 1, 44, 80
3, 250752, Note_on_c, 1, 41, 80
3, 250940, Note_off_c, 1, 49, 100
3, 250940, Note_off_c, 1, 44, 100
3, 250940, Note_off_c, 1, 41, 100
3, 250944, Note_on_c, 1, 37, 80
3, 251132, Note_off_c, 1, 37, 100
3, 251136, Note_on_c, 1, 49, 80
3, 251136, Note_on_c, 1, 44, 80
3, 251136, Note_on_c, 1, 41, 80
3, 251324, Note_off_c, 1, 49, 100
3, 251324, Note_off_c, 1, 44, 100
3, 251324, Note_off_c, 1, 41, 100
3, 251328, Note_on_c, 1, 37, 80
3, 251516, Note_off_c, 1, 37, 100
3, 251520, Note_on_c, 1, 49, 80
3, 251520, Note_on_c, 1, 44, 80
3, 251520, Note_on_c, 1, 41, 80
3, 251708, Note_off_c, 1, 49, 100
3, 251708, Note_off_c, 1, 44, 100
3, 251708, Note_off_c, 1, 41, 100
3, 251712, Note_on_c, 1, 37, 80
3, 251900, Note_off_c, 1, 37, 100
3, 251904, Note_on_c, 1, 49, 80
3, 251904, Note_on_c, 1, 44, 80
3, 251904, Note_on_c, 1, 41, 80
3, 252092, Note_off_c, 1, 49, 100
3, 252092, Note_off_c, 1, 44, 100
3, 252092, Note_off_c, 1, 41, 100
3, 252096, Note_on_c, 1, 37, 80
3, 252284, Note_off_c, 1, 37, 100
3, 252288, Note_on_c, 1, 49, 80
3, 252288, Note_on_c, 1, 44, 80
3, 252288, Note_on_c, 1, 41, 80
3, 252476, Note_off_c, 1, 49, 100
3, 252476, Note_off_c, 1, 44, 100
3, 252476, Note_off_c, 1, 41, 100
3, 252480, Note_on_c, 1, 37, 80
3, 252668, Note_off_c, 1, 37, 100
3, 252672, Note_on_c, 1, 49, 80
3, 252672, Note_on_c, 1, 44, 80
3, 252672, Note_on_c, 1, 41, 80
3, 252860, Note_off_c, 1, 49, 100
3, 252860, Note_off_c, 1, 44, 100
3, 252860, Note_off_c, 1, 41, 100
3, 252864, Note_on_c, 1, 39, 80
3, 253052, Note_off_c, 1, 39, 100
3, 253056, Note_on_c, 1, 51, 80
3, 253056, Note_on_c, 1, 44, 80
3, 253056, Note_on_c, 1, 42, 80
3, 253244, Note_off_c, 1, 51, 100
3, 253244, Note_off_c, 1, 44, 100
3, 253244, Note_off_c, 1, 42, 100
3, 253248, Note_on_c, 1, 39, 80
3, 253436, Note_off_c, 1, 39, 100
3, 253440, Note_on_c, 1, 51, 80
3, 253440, Note_on_c, 1, 44, 80
3, 253440, Note_on_c, 1, 42, 80
3, 253628, Note_off_c, 1, 51, 100
3, 253628, Note_off_c, 1, 44, 100
3, 253628, Note_off_c, 1, 42, 100
3, 253632, Note_on_c, 1, 39, 80
3, 253820, Note_off_c, 1, 39, 100
3, 253824, Note_on_c, 1, 51, 80
3, 253824, Note_on_c, 1, 44, 80
3, 253824, Note_on_c, 1, 42, 80
3, 254012, Note_off_c, 1, 51, 100
3, 254012, Note_off_c, 1, 44, 100
3, 254012, Note_off_c, 1, 42, 100
3, 254016, Note_on_c, 1, 41, 80
3, 254204, Note_off_c, 1, 41, 100
3, 254208, Note_on_c, 1, 53, 80
3, 254208, Note_on_c, 1, 49, 80
3, 254208, Note_on_c, 1, 44, 80
3, 254396, Note_off_c, 1, 53, 100
3, 254396, Note_off_c, 1, 49, 100
3, 254396, Note_off_c, 1, 44, 100
3, 254400, Note_on_c, 1, 41, 80
3, 254588, Note_off_c, 1, 41, 100
3, 254592, Note_on_c, 1, 53, 80
3, 254592, Note_on_c, 1, 49, 80
3, 254592, Note_on_c, 1, 44, 80
3, 254780, Note_off_c, 1, 53, 100
3, 254780, Note_off_c, 1, 49, 100
3, 254780, Note_off_c, 1, 44, 100
3, 254784, Note_on_c, 1, 41, 80
3, 254972, Note_off_c, 1, 41, 100
3, 254976, Note_on_c, 1, 53, 80
3, 254976, Note_on_c, 1, 49, 80
3, 254976, Note_on_c, 1, 44, 80
3, 255164, Note_off_c, 1, 53, 100
3, 255164, Note_off_c, 1, 49, 100
3, 255164, Note_off_c, 1, 44, 100
3, 255168, Note_on_c, 1, 41, 80
3, 255356, Note_off_c, 1, 41, 100
3, 255360, Note_on_c, 1, 53, 80
3, 255360, Note_on_c, 1, 49, 80
3, 255360, Note_on_c, 1, 44, 80
3, 255548, Note_off_c, 1, 53, 100
3, 255548, Note_off_c, 1, 49, 100
3, 255548, Note_off_c, 1, 44, 100
3, 255552, Note_on_c, 1, 41, 80
3, 255740, Note_off_c, 1, 41, 100
3, 255744, Note_on_c, 1, 54, 80
3, 255744, Note_on_c, 1, 51, 80
3, 255744, Note_on_c, 1, 49, 80
3, 255932, Note_off_c, 1, 54, 100
3, 255932, Note_off_c, 1, 51, 100
3, 255932, Note_off_c, 1, 49, 100
3, 255936, Note_on_c, 1, 42, 80
3, 256124, Note_off_c, 1, 42, 100
3, 256128, Note_on_c, 1, 54, 80
3, 256128, Note_on_c, 1, 51, 80
3, 256128, Note_on_c, 1, 49, 80
3, 256316, Note_off_c, 1, 54, 100
3, 256316, Note_off_c, 1, 51, 100
3, 256316, Note_off_c, 1, 49, 100
3, 256320, Note_on_c, 1, 44, 80
3, 256508, Note_off_c, 1, 44, 100
3, 256512, Note_on_c, 1, 56, 82
3, 256512, Note_on_c, 1, 53, 82
3, 256512, Note_on_c, 1, 49, 82
3, 256700, Note_off_c, 1, 56, 100
3, 256700, Note_off_c, 1, 53, 100
3, 256700, Note_off_c, 1, 49, 100
3, 256704, Note_on_c, 1, 44, 85
3, 256892, Note_off_c, 1, 44, 100
3, 256896, Note_on_c, 1, 56, 87
3, 256896, Note_on_c, 1, 53, 87
3, 256896, Note_on_c, 1, 49, 87
3, 257084, Note_off_c, 1, 56, 100
3, 257084, Note_off_c, 1, 53, 100
3, 257084, Note_off_c, 1, 49, 100
3, 257088, Note_on_c, 1, 44, 90
3, 257276, Note_off_c, 1, 44, 100
3, 257280, Note_on_c, 1, 56, 93
3, 257280, Note_on_c, 1, 53, 93
3, 257280, Note_on_c, 1, 49, 93
3, 257468, Note_off_c, 1, 56, 100
3, 257468, Note_off_c, 1, 53, 100
3, 257468, Note_off_c, 1, 49, 100
3, 257472, Note_on_c, 1, 44, 95
3, 257660, Note_off_c, 1, 44, 100
3, 257664, Note_on_c, 1, 56, 98
3, 257664, Note_on_c, 1, 51, 98
3, 257664, Note_on_c, 1, 48, 98
3, 257852, Note_off_c, 1, 56, 100
3, 257852, Note_off_c, 1, 51, 100
3, 257852, Note_off_c, 1, 48, 100
3, 257856, Note_on_c, 1, 44, 100
3, 258044, Note_off_c, 1, 44, 100
3, 258048, Note_on_c, 1, 56, 103
3, 258048, Note_on_c, 1, 51, 103
3, 258048, Note_on_c, 1, 48, 103
3, 258236, Note_off_c, 1, 56, 100
3, 258236, Note_off_c, 1, 51, 100
3, 258236, Note_off_c, 1, 48, 100
3, 258240, Note_on_c, 1, 44, 106
3, 258428, Note_off_c, 1, 44, 100
3, 258432, Note_on_c, 1, 56, 108
3, 258432, Note_on_c, 1, 51, 108
3, 258432, Note_on_c, 1, 48, 108
3, 258620, Note_off_c, 1, 56, 100
3, 258620, Note_off_c, 1, 51, 100
3, 258620, Note_off_c, 1, 48, 100
3, 258624, Note_on_c, 1, 45, 110
3, 258812, Note_off_c, 1, 45, 100
3, 258816, Note_on_c, 1, 57, 110
3, 258816, Note_on_c, 1, 53, 110
3, 258816, Note_on_c, 1, 48, 110
3, 259004, Note_off_c, 1, 57, 100
3, 259004, Note_off_c, 1, 53, 100
3, 259004, Note_off_c, 1, 48, 100
3, 259008, Note_on_c, 1, 45, 110
3, 259196, Note_off_c, 1, 45, 100
3, 259200, Note_on_c, 1, 57, 110
3, 259200, Note_on_c, 1, 53, 110
3, 259200, Note_on_c, 1, 48, 110
3, 259388, Note_off_c, 1, 57, 100
3, 259388, Note_off_c, 1, 53, 100
3, 259388, Note_off_c, 1, 48, 100
3, 259392, Note_on_c, 1, 45, 110
3, 259580, Note_off_c, 1, 45, 100
3, 259584, Note_on_c, 1, 57, 110
3, 259584, Note_on_c, 1, 53, 110
3, 259584, Note_on_c, 1, 48, 110
3, 259772, Note_off_c, 1, 57, 100
3, 259772, Note_off_c, 1, 53, 100
3, 259772, Note_off_c, 1, 48, 100
3, 259776, Note_on_c, 1, 45, 110
3, 259964, Note_off_c, 1, 45, 100
3, 259968, Note_on_c, 1, 57, 96
3, 259968, Note_on_c, 1, 53, 96
3, 259968, Note_on_c, 1, 48, 96
3, 260156, Note_off_c, 1, 57, 100
3, 260156, Note_off_c, 1, 53, 100
3, 260156, Note_off_c, 1, 48, 100
3, 260160, Note_on_c, 1, 45, 81
3, 260348, Note_off_c, 1, 45, 100
3, 260352, Note_on_c, 1, 58, 80
3, 260352, Note_on_c, 1, 53, 80
3, 260352, Note_on_c, 1, 49, 80
3, 260540, Note_off_c, 1, 58, 100
3, 260540, Note_off_c, 1, 53, 100
3, 260540, Note_off_c, 1, 49, 100
3, 260544, Note_on_c, 1, 46, 80
3, 260732, Note_off_c, 1, 46, 100
3, 260736, Note_on_c, 1, 58, 80
3, 260736, Note_on_c, 1, 53, 80
3, 260736, Note_on_c, 1, 49, 80
3, 260924, Note_off_c, 1, 58, 100
3, 260924, Note_off_c, 1, 53, 100
3, 260924, Note_off_c, 1, 49, 100
3, 260928, Note_on_c, 1, 46, 80
3, 261116, Note_off_c, 1, 46, 100
3, 261120, Note_on_c, 1, 58, 80
3, 261120, Note_on_c, 1, 53, 80
3, 261120, Note_on_c, 1, 49, 80
3, 261308, Note_off_c, 1, 58, 100
3, 261308, Note_off_c, 1, 53, 100
3, 261308, Note_off_c, 1, 49, 100
3, 261312, Note_on_c, 1, 46, 80
3, 261500, Note_off_c, 1, 46, 100
3, 261504, Note_on_c, 1, 58, 80
3, 261504, Note_on_c, 1, 53, 80
3, 261504, Note_on_c, 1, 49, 80
3, 261692, Note_off_c, 1, 58, 100
3, 261692, Note_off_c, 1, 53, 100
3, 261692, Note_off_c, 1, 49, 100
3, 261696, Note_on_c, 1, 46, 80
3, 261884, Note_off_c, 1, 46, 100
3, 261888, Note_on_c, 1, 58, 80
3, 261888, Note_on_c, 1, 53, 80
3, 261888, Note_on_c, 1, 49, 80
3, 262076, Note_off_c, 1, 58, 100
3, 262076, Note_off_c, 1, 53, 100
3, 262076, Note_off_c, 1, 49, 100
3, 262080, Note_on_c, 1, 48, 80
3, 262268, Note_off_c, 1, 48, 100
3, 262272, Note_on_c, 1, 60, 80
3, 262272, Note_on_c, 1, 53, 80
3, 262272, Note_on_c, 1, 51, 80
3, 262460, Note_off_c, 1, 60, 100
3, 262460, Note_off_c, 1, 53, 100
3, 262460, Note_off_c, 1, 51, 100
3, 262464, Note_on_c, 1, 48, 80
3, 262652, Note_off_c, 1, 48, 100
3, 262656, Note_on_c, 1, 60, 80
3, 262656, Note_on_c, 1, 53, 80
3, 262656, Note_on_c, 1, 51, 80
3, 262844, Note_off_c, 1, 60, 100
3, 262844, Note_off_c, 1, 53, 100
3, 262844, Note_off_c, 1, 51, 100
3, 262848, Note_on_c, 1, 48, 80
3, 263036, Note_off_c, 1, 48, 100
3, 263040, Note_on_c, 1, 60, 80
3, 263040, Note_on_c, 1, 53, 80
3, 263040, Note_on_c, 1, 51, 80
3, 263228, Note_off_c, 1, 60, 100
3, 263228, Note_off_c, 1, 53, 100
3, 263228, Note_off_c, 1, 51, 100
3, 263232, Note_on_c, 1, 49, 80
3, 263420, Note_off_c, 1, 49, 100
3, 263424, Note_on_c, 1, 61, 80
3, 263424, Note_on_c, 1, 58, 80
3, 263424, Note_on_c, 1, 53, 80
3, 263612, Note_off_c, 1, 61, 100
3, 263612, Note_off_c, 1, 58, 100
3, 263612, Note_off_c, 1, 53, 100
3, 263616, Note_on_c, 1, 49, 80
3, 263804, Note_off_c, 1, 49, 100
3, 263808, Note_on_c, 1, 61, 80
3, 263808, Note_on_c, 1, 58, 80
3, 263808, Note_on_c, 1, 53, 80
3, 263996, Note_off_c, 1, 61, 100
3, 263996, Note_off_c, 1, 58, 100
3, 263996, Note_off_c, 1, 53, 100
3, 264000, Note_on_c, 1, 49, 80
3, 264188, Note_off_c, 1, 49, 100
3, 264192, Note_on_c, 1, 61, 80
3, 264192, Note_on_c, 1, 58, 80
3, 264192, Note_on_c, 1, 53, 80
3, 264380, Note_off_c, 1, 61, 100
3, 264380, Note_off_c, 1, 58, 100
3, 264380, Note_off_c, 1, 53, 100
3, 264384, Note_on_c, 1, 49, 80
3, 264572, Note_off_c, 1, 49, 100
3, 264576, Note_on_c, 1, 61, 80
3, 264576, Note_on_c, 1, 58, 80
3, 264576, Note_on_c, 1, 53, 80
3, 264764, Note_off_c, 1, 61, 100
3, 264764, Note_off_c, 1, 58, 100
3, 264764, Note_off_c, 1, 53, 100
3, 264768, Note_on_c, 1, 49, 80
3, 264956, Note_off_c, 1, 49, 100
3, 264960, Note_on_c, 1, 63, 80
3, 264960, Note_on_c, 1, 58, 80
3, 264960, Note_on_c, 1, 54, 80
3, 265148, Note_off_c, 1, 63, 100
3, 265148, Note_off_c, 1, 58, 100
3, 265148, Note_off_c, 1, 54, 100
3, 265152, Note_on_c, 1, 51, 80
3, 265340, Note_off_c, 1, 51, 100
3, 265344, Note_on_c, 1, 63, 80
3, 265344, Note_on_c, 1, 58, 80
3, 265344, Note_on_c, 1, 54, 80
3, 265532, Note_off_c, 1, 63, 100
3, 265532, Note_off_c, 1, 58, 100
3, 265532, Note_off_c, 1, 54, 100
3, 265536, Note_on_c, 1, 53, 80
3, 265724, Note_off_c, 1, 53, 100
3, 265728, Note_on_c, 1, 65, 82
3, 265728, Note_on_c, 1, 61, 82
3, 265728, Note_on_c, 1, 58, 82
3, 265916, Note_off_c, 1, 65, 100
3, 265916, Note_off_c, 1, 61, 100
3, 265916, Note_off_c, 1, 58, 100
3, 265920, Note_on_c, 1, 53, 85
3, 266108, Note_off_c, 1, 53, 100
3, 266112, Note_on_c, 1, 65, 87
3, 266112, Note_on_c, 1, 61, 87
3, 266112, Note_on_c, 1, 58, 87
3, 266300, Note_off_c, 1, 65, 100
3, 266300, Note_off_c, 1, 61, 100
3, 266300, Note_off_c, 1, 58, 100
3, 266304, Note_on_c, 1, 53, 90
3, 266492, Note_off_c, 1, 53, 100
3, 266496, Note_on_c, 1, 65, 93
3, 266496, Note_on_c, 1, 61, 93
3, 266496, Note_on_c, 1, 58, 93
3, 266684, Note_off_c, 1, 65, 100
3, 266684, Note_off_c, 1, 61, 100
3, 266684, Note_off_c, 1, 58, 100
3, 266688, Note_on_c, 1, 53, 95
3, 266876, Note_off_c, 1, 53, 100
3, 266880, Note_on_c, 1, 57, 98
3, 266880, Note_on_c, 1, 60, 98
3, 266880, Note_on_c, 1, 63, 98
3, 267068, Note_off_c, 1, 57, 100
3, 267068, Note_off_c, 1, 60, 100
3, 267068, Note_off_c, 1, 63, 100
3, 267072, Note_on_c, 1, 53, 100
3, 267260, Note_off_c, 1, 53, 100
3, 267264, Note_on_c, 1, 57, 103
3, 267264, Note_on_c, 1, 60, 103
3, 267264, Note_on_c, 1, 63, 103
3, 267452, Note_off_c, 1, 57, 100
3, 267452, Note_off_c, 1, 60, 100
3, 267452, Note_off_c, 1, 63, 100
3, 267456, Note_on_c, 1, 53, 106
3, 267644, Note_off_c, 1, 53, 100
3, 267648, Note_on_c, 1, 57, 108
3, 267648, Note_on_c, 1, 60, 108
3, 267648, Note_on_c, 1, 63, 108
3, 267836, Note_off_c, 1, 57, 100
3, 267836, Note_off_c, 1, 60, 100
3, 267836, Note_off_c, 1, 63, 100
3, 267840, Note_on_c, 1, 54, 110
3, 268028, Note_off_c, 1, 54, 100
3, 268032, Note_on_c, 1, 66, 110
3, 268032, Note_on_c, 1, 61, 110
3, 268032, Note_on_c, 1, 58, 110
3, 268220, Note_off_c, 1, 66, 100
3, 268220, Note_off_c, 1, 61, 100
3, 268220, Note_off_c, 1, 58, 100
3, 268224, Note_on_c, 1, 54, 110
3, 268412, Note_off_c, 1, 54, 100
3, 268416, Note_on_c, 1, 66, 110
3, 268416, Note_on_c, 1, 61, 110
3, 268416, Note_on_c, 1, 58, 110
3, 268604, Note_off_c, 1, 66, 100
3, 268604, Note_off_c, 1, 61, 100
3, 268604, Note_off_c, 1, 58, 100
3, 268608, Note_on_c, 1, 54, 110
3, 268796, Note_off_c, 1, 54, 100
3, 268800, Note_on_c, 1, 66, 110
3, 268800, Note_on_c, 1, 61, 110
3, 268800, Note_on_c, 1, 58, 110
3, 268988, Note_off_c, 1, 66, 100
3, 268988, Note_off_c, 1, 61, 100
3, 268988, Note_off_c, 1, 58, 100
3, 268992, Note_on_c, 1, 54, 110
3, 269180, Note_off_c, 1, 54, 100
3, 269184, Note_on_c, 1, 66, 110
3, 269184, Note_on_c, 1, 61, 110
3, 269184, Note_on_c, 1, 58, 110
3, 269372, Note_off_c, 1, 66, 100
3, 269372, Note_off_c, 1, 61, 100
3, 269372, Note_off_c, 1, 58, 100
3, 269376, Note_on_c, 1, 54, 110
3, 269564, Note_off_c, 1, 54, 100
3, 269568, Note_on_c, 1, 66, 110
3, 269568, Note_on_c, 1, 61, 110
3, 269568, Note_on_c, 1, 58, 110
3, 269756, Note_off_c, 1, 66, 100
3, 269756, Note_off_c, 1, 61, 100
3, 269756, Note_off_c, 1, 58, 100
3, 269760, Note_on_c, 1, 54, 110
3, 269948, Note_off_c, 1, 54, 100
3, 269952, Note_on_c, 1, 66, 110
3, 269952, Note_on_c, 1, 61, 110
3, 269952, Note_on_c, 1, 58, 110
3, 270140, Note_off_c, 1, 66, 100
3, 270140, Note_off_c, 1, 61, 100
3, 270140, Note_off_c, 1, 58, 100
3, 270144, Note_on_c, 1, 54, 110
3, 270332, Note_off_c, 1, 54, 100
3, 270336, Note_on_c, 1, 66, 110
3, 270336, Note_on_c, 1, 61, 110
3, 270336, Note_on_c, 1, 58, 110
3, 270524, Note_off_c, 1, 66, 100
3, 270524, Note_off_c, 1, 61, 100
3, 270524, Note_off_c, 1, 58, 100
3, 270528, Note_on_c, 1, 54, 110
3, 270716, Note_off_c, 1, 54, 100
3, 270720, Note_on_c, 1, 66, 110
3, 270720, Note_on_c, 1, 61, 110
3, 270720, Note_on_c, 1, 58, 110
3, 270908, Note_off_c, 1, 66, 100
3, 270908, Note_off_c, 1, 61, 100
3, 270908, Note_off_c, 1, 58, 100
3, 270912, Note_on_c, 1, 54, 110
3, 271100, Note_off_c, 1, 54, 100
3, 271104, Note_on_c, 1, 66, 110
3, 271104, Note_on_c, 1, 61, 110
3, 271104, Note_on_c, 1, 58, 110
3, 271292, Note_off_c, 1, 66, 100
3, 271292, Note_off_c, 1, 61, 100
3, 271292, Note_off_c, 1, 58, 100
3, 271296, Note_on_c, 1, 58, 110
3, 271484, Note_off_c, 1, 58, 100
3, 271488, Note_on_c, 1, 68, 110
3, 271488, Note_on_c, 1, 61, 110
3, 271488, Note_on_c, 1, 59, 110
3, 271676, Note_off_c, 1, 68, 100
3, 271676, Note_off_c, 1, 61, 100
3, 271676, Note_off_c, 1, 59, 100
3, 271680, Note_on_c, 1, 58, 110
3, 271868, Note_off_c, 1, 58, 100
3, 271872, Note_on_c, 1, 68, 110
3, 271872, Note_on_c, 1, 61, 110
3, 271872, Note_on_c, 1, 59, 110
3, 272060, Note_off_c, 1, 68, 100
3, 272060, Note_off_c, 1, 61, 100
3, 272060, Note_off_c, 1, 59, 100
3, 272064, Note_on_c, 1, 58, 110
3, 272252, Note_off_c, 1, 58, 100
3, 272256, Note_on_c, 1, 68, 110
3, 272256, Note_on_c, 1, 61, 110
3, 272256, Note_on_c, 1, 59, 110
3, 272444, Note_off_c, 1, 68, 100
3, 272444, Note_off_c, 1, 61, 100
3, 272444, Note_off_c, 1, 59, 100
3, 272448, Note_on_c, 1, 58, 110
3, 272636, Note_off_c, 1, 58, 100
3, 272640, Note_on_c, 1, 61, 110
3, 272640, Note_on_c, 1, 66, 110
3, 272640, Note_on_c, 1, 70, 110
3, 272828, Note_off_c, 1, 61, 100
3, 272828, Note_off_c, 1, 66, 100
3, 272828, Note_off_c, 1, 70, 100
3, 272832, Note_on_c, 1, 58, 110
3, 273020, Note_off_c, 1, 58, 100
3, 273024, Note_on_c, 1, 61, 110
3, 273024, Note_on_c, 1, 66, 110
3, 273024, Note_on_c, 1, 70, 110
3, 273212, Note_off_c, 1, 61, 100
3, 273212, Note_off_c, 1, 66, 100
3, 273212, Note_off_c, 1, 70, 100
3, 273216, Note_on_c, 1, 58, 110
3, 273404, Note_off_c, 1, 58, 100
3, 273408, Note_on_c, 1, 61, 110
3, 273408, Note_on_c, 1, 66, 110
3, 273408, Note_on_c, 1, 70, 110
3, 273596, Note_off_c, 1, 61, 100
3, 273596, Note_off_c, 1, 66, 100
3, 273596, Note_off_c, 1, 70, 100
3, 273600, Note_on_c, 1, 58, 110
3, 273788, Note_off_c, 1, 58, 100
3, 273792, Note_on_c, 1, 61, 110
3, 273792, Note_on_c, 1, 66, 110
3, 273792, Note_on_c, 1, 70, 110
3, 273980, Note_off_c, 1, 61, 100
3, 273980, Note_off_c, 1, 66, 100
3, 273980, Note_off_c, 1, 70, 100
3, 273984, Note_on_c, 1, 58, 110
3, 274172, Note_off_c, 1, 58, 100
3, 274176, Note_on_c, 1, 61, 110
3, 274176, Note_on_c, 1, 66, 110
3, 274176, Note_on_c, 1, 70, 110
3, 274364, Note_off_c, 1, 61, 100
3, 274364, Note_off_c, 1, 66, 100
3, 274364, Note_off_c, 1, 70, 100
3, 274368, Note_on_c, 1, 58, 110
3, 274556, Note_off_c, 1, 58, 100
3, 274560, Note_on_c, 1, 61, 110
3, 274560, Note_on_c, 1, 66, 110
3, 274560, Note_on_c, 1, 70, 110
3, 274748, Note_off_c, 1, 61, 100
3, 274748, Note_off_c, 1, 66, 100
3, 274748, Note_off_c, 1, 70, 100
3, 274752, Note_on_c, 1, 59, 110
3, 274940, Note_off_c, 1, 59, 100
3, 274944, Note_on_c, 1, 71, 110
3, 274944, Note_on_c, 1, 66, 110
3, 274944, Note_on_c, 1, 62, 110
3, 275132, Note_off_c, 1, 71, 100
3, 275132, Note_off_c, 1, 66, 100
3, 275132, Note_off_c, 1, 62, 100
3, 275136, Note_on_c, 1, 59, 110
3, 275324, Note_off_c, 1, 59, 100
3, 275328, Note_on_c, 1, 71, 110
3, 275328, Note_on_c, 1, 66, 110
3, 275328, Note_on_c, 1, 62, 110
3, 275516, Note_off_c, 1, 71, 100
3, 275516, Note_off_c, 1, 66, 100
3, 275516, Note_off_c, 1, 62, 100
3, 275520, Note_on_c, 1, 59, 110
3, 275708, Note_off_c, 1, 59, 100
3, 275712, Note_on_c, 1, 71, 110
3, 275712, Note_on_c, 1, 66, 110
3, 275712, Note_on_c, 1, 62, 110
3, 275900, Note_off_c, 1, 71, 100
3, 275900, Note_off_c, 1, 66, 100
3, 275900, Note_off_c, 1, 62, 100
3, 275904, Note_on_c, 1, 59, 110
3, 276092, Note_off_c, 1, 59, 100
3, 276096, Note_on_c, 1, 71, 110
3, 276096, Note_on_c, 1, 66, 110
3, 276096, Note_on_c, 1, 62, 110
3, 276284, Note_off_c, 1, 71, 100
3, 276284, Note_off_c, 1, 66, 100
3, 276284, Note_off_c, 1, 62, 100
3, 276288, Note_on_c, 1, 59, 110
3, 276476, Note_off_c, 1, 59, 100
3, 276480, Note_on_c, 1, 71, 110
3, 276480, Note_on_c, 1, 66, 110
3, 276480, Note_on_c, 1, 62, 110
3, 276668, Note_off_c, 1, 71, 100
3, 276668, Note_off_c, 1, 66, 100
3, 276668, Note_off_c, 1, 62, 100
3, 276672, Note_on_c, 1, 59, 110
3, 276860, Note_off_c, 1, 59, 100
3, 276864, Note_on_c, 1, 71, 110
3, 276864, Note_on_c, 1, 66, 110
3, 276864, Note_on_c, 1, 62, 110
3, 277052, Note_off_c, 1, 71, 100
3, 277052, Note_off_c, 1, 66, 100
3, 277052, Note_off_c, 1, 62, 100
3, 277056, Note_on_c, 1, 59, 110
3, 277244, Note_off_c, 1, 59, 100
3, 277248, Note_on_c, 1, 62, 110
3, 277248, Note_on_c, 1, 67, 110
3, 277248, Note_on_c, 1, 71, 110
3, 277436, Note_off_c, 1, 62, 100
3, 277436, Note_off_c, 1, 67, 100
3, 277436, Note_off_c, 1, 71, 100
3, 277440, Note_on_c, 1, 59, 110
3, 277628, Note_off_c, 1, 59, 100
3, 277632, Note_on_c, 1, 62, 110
3, 277632, Note_on_c, 1, 67, 110
3, 277632, Note_on_c, 1, 71, 110
3, 277820, Note_off_c, 1, 62, 100
3, 277820, Note_off_c, 1, 67, 100
3, 277820, Note_off_c, 1, 71, 100
3, 277824, Note_on_c, 1, 59, 110
3, 278012, Note_off_c, 1, 59, 100
3, 278016, Note_on_c, 1, 62, 110
3, 278016, Note_on_c, 1, 67, 110
3, 278016, Note_on_c, 1, 71, 110
3, 278204, Note_off_c, 1, 62, 100
3, 278204, Note_off_c, 1, 67, 100
3, 278204, Note_off_c, 1, 71, 100
3, 278208, Note_on_c, 1, 59, 110
3, 278396, Note_off_c, 1, 59, 100
3, 278400, Note_on_c, 1, 62, 110
3, 278400, Note_on_c, 1, 67, 110
3, 278400, Note_on_c, 1, 71, 110
3, 278588, Note_off_c, 1, 62, 100
3, 278588, Note_off_c, 1, 67, 100
3, 278588, Note_off_c, 1, 71, 100
3, 278592, Note_on_c, 1, 59, 110
3, 278780, Note_off_c, 1, 59, 100
3, 278784, Note_on_c, 1, 62, 110
3, 278784, Note_on_c, 1, 67, 110
3, 278784, Note_on_c, 1, 71, 110
3, 278972, Note_off_c, 1, 62, 100
3, 278972, Note_off_c, 1, 67, 100
3, 278972, Note_off_c, 1, 71, 100
3, 278976, Note_on_c, 1, 59, 110
3, 279164, Note_off_c, 1, 59, 100
3, 279168, Note_on_c, 1, 62, 110
3, 279168, Note_on_c, 1, 67, 110
3, 279168, Note_on_c, 1, 71, 110
3, 279356, Note_off_c, 1, 62, 100
3, 279356, Note_off_c, 1, 67, 100
3, 279356, Note_off_c, 1, 71, 100
3, 279360, Note_on_c, 1, 60, 110
3, 279548, Note_off_c, 1, 60, 100
3, 279552, Note_on_c, 1, 67, 110
3, 279552, Note_on_c, 1, 64, 110
3, 279552, Note_on_c, 1, 72, 110
3, 279740, Note_off_c, 1, 67, 100
3, 279740, Note_off_c, 1, 64, 100
3, 279740, Note_off_c, 1, 72, 100
3, 279744, Note_on_c, 1, 60, 110
3, 279932, Note_off_c, 1, 60, 100
3, 279936, Note_on_c, 1, 67, 110
3, 279936, Note_on_c, 1, 64, 110
3, 279936, Note_on_c, 1, 72, 110
3, 280124, Note_off_c, 1, 67, 100
3, 280124, Note_off_c, 1, 64, 100
3, 280124, Note_off_c, 1, 72, 100
3, 280128, Note_on_c, 1, 60, 110
3, 280316, Note_off_c, 1, 60, 100
3, 280320, Note_on_c, 1, 67, 110
3, 280320, Note_on_c, 1, 64, 110
3, 280320, Note_on_c, 1, 72, 110
3, 280508, Note_off_c, 1, 67, 100
3, 280508, Note_off_c, 1, 64, 100
3, 280508, Note_off_c, 1, 72, 100
3, 280512, Note_on_c, 1, 60, 110
3, 280700, Note_off_c, 1, 60, 100
3, 280704, Note_on_c, 1, 67, 110
3, 280704, Note_on_c, 1, 64, 110
3, 280704, Note_on_c, 1, 72, 110
3, 280892, Note_off_c, 1, 67, 100
3, 280892, Note_off_c, 1, 64, 100
3, 280892, Note_off_c, 1, 72, 100
3, 280896, Note_on_c, 1, 60, 110
3, 281084, Note_off_c, 1, 60, 100
3, 281088, Note_on_c, 1, 67, 110
3, 281088, Note_on_c, 1, 64, 110
3, 281088, Note_on_c, 1, 72, 110
3, 281276, Note_off_c, 1, 67, 100
3, 281276, Note_off_c, 1, 64, 100
3, 281276, Note_off_c, 1, 72, 100
3, 281280, Note_on_c, 1, 60, 110
3, 281468, Note_off_c, 1, 60, 100
3, 281472, Note_on_c, 1, 67, 110
3, 281472, Note_on_c, 1, 64, 110
3, 281472, Note_on_c, 1, 72, 110
3, 281660, Note_off_c, 1, 67, 100
3, 281660, Note_off_c, 1, 64, 100
3, 281660, Note_off_c, 1, 72, 100
3, 281664, Control_c, 1, 64, 127
3, 281664, Note_on_c, 1, 61, 110
3, 281760, Note_on_c, 1, 64, 110
3, 281856, Note_on_c, 1, 67, 110
3, 281952, Note_on_c, 1, 70, 110
3, 282048, Note_on_c, 1, 73, 110
3, 282140, Note_off_c, 1, 61, 100
3, 282236, Note_off_c, 1, 64, 100
3, 282332, Note_off_c, 1, 67, 100
3, 282428, Note_off_c, 1, 70, 100
3, 282524, Note_off_c, 1, 73, 100
3, 282808, Control_c, 1, 64, 0
3, 282816, Control_c, 1, 64, 127
3, 282816, Note_on_c, 1, 64, 110
3, 282912, Note_on_c, 1, 67, 110
3, 283008, Note_on_c, 1, 70, 110
3, 283104, Note_on_c, 1, 73, 110
3, 283200, Note_on_c, 1, 76, 110
3, 283292, Note_off_c, 1, 64, 100
3, 283388, Note_off_c, 1, 67, 100
3, 283484, Note_off_c, 1, 70, 100
3, 283580, Note_off_c, 1, 73, 100
3, 283676, Note_off_c, 1, 76, 100
3, 283960, Control_c, 1, 64, 0
3, 283968, Control_c, 1, 64, 127
3, 283968, Note_on_c, 1, 67, 110
3, 284064, Note_on_c, 1, 70, 110
3, 284160, Note_on_c, 1, 73, 110
3, 284256, Note_on_c, 1, 76, 110
3, 284444, Note_off_c, 1, 67, 100
3, 284540, Note_off_c, 1, 70, 100
3, 284636, Note_off_c, 1, 73, 100
3, 284732, Note_off_c, 1, 76, 100
3, 285112, Control_c, 1, 64, 0
3, 285120, Control_c, 1, 64, 127
3, 285120, Note_on_c, 1, 70, 110
3, 285216, Note_on_c, 1, 73, 110
3, 285312, Note_on_c, 1, 76, 110
3, 285596, Note_off_c, 1, 70, 100
3, 285692, Note_off_c, 1, 73, 100
3, 285788, Note_off_c, 1, 76, 100
3, 286264, Control_c, 1, 64, 0
3, 286272, Note_on_c, 1, 73, 110
3, 286368, Note_on_c, 1, 76, 110
3, 286464, Note_on_c, 1, 79, 110
3, 286748, Note_off_c, 1, 73, 100
3, 286844, Note_off_c, 1, 76, 100
3, 286848, Note_on_c, 1, 76, 110
3, 286940, Note_off_c, 1, 79, 100
3, 286944, Note_on_c, 1, 79, 110
3, 287040, Note_on_c, 1, 82, 110
3, 287324, Note_off_c, 1, 76, 100
3, 287420, Note_off_c, 1, 79, 100
3, 287424, Note_on_c, 1, 79, 110
3, 287516, Note_off_c, 1, 82, 100
3, 287520, Note_on_c, 1, 82, 110
3, 287616, Note_on_c, 1, 85, 110
3, 287900, Note_off_c, 1, 79, 100
3, 287996, Note_off_c, 1, 82, 100
3, 288000, Note_on_c, 1, 82, 110
3, 288092, Note_off_c, 1, 85, 100
3, 288096, Note_on_c, 1, 85, 110
3, 288192, Note_on_c, 1, 88, 110
3, 288476, Note_off_c, 1, 82, 100
3, 288572, Note_off_c, 1, 85, 100
3, 288576, Note_on_c, 1, 85, 110
3, 288668, Note_off_c, 1, 88, 100
3, 288672, Note_on_c, 1, 88, 110
3, 289052, Note_off_c, 1, 85, 100
3, 289148, Note_off_c, 1, 88, 100
3, 289152, Note_on_c, 1, 82, 110
3, 289248, Note_on_c, 1, 85, 110
3, 289628, Note_off_c, 1, 82, 100
3, 289724, Note_off_c, 1, 85, 100
3, 289728, Note_on_c, 1, 79, 110
3, 289824, Note_on_c, 1, 82, 110
3, 290204, Note_off_c, 1, 79, 100
3, 290300, Note_off_c, 1, 82, 100
3, 290304, Note_on_c, 1, 76, 110
3, 290400, Note_on_c, 1, 79, 110
3, 290780, Note_off_c, 1, 76, 100
3, 290876, Note_off_c, 1, 79, 100
3, 290880, Note_on_c, 1, 73, 110
3, 290976, Note_on_c, 1, 76, 110
3, 291356, Note_off_c, 1, 73, 100
3, 291452, Note_off_c, 1, 76, 100
3, 291456, Note_on_c, 1, 70, 110
3, 291552, Note_on_c, 1, 73, 110
3, 291932, Note_off_c, 1, 70, 100
3, 292028, Note_off_c, 1, 73, 100
3, 292032, Note_on_c, 1, 67, 110
3, 292128, Note_on_c, 1, 70, 110
3, 292508, Note_off_c, 1, 67, 100
3, 292604, Note_off_c, 1, 70, 100
3, 292608, Note_on_c, 1, 64, 110
3, 292704, Note_on_c, 1, 67, 110
3, 293084, Note_off_c, 1, 64, 100
3, 293180, Note_off_c, 1, 67, 100
3, 293184, Note_on_c, 1, 61, 110
3, 293280, Note_on_c, 1, 64, 110
3, 293660, Note_off_c, 1, 61, 100
3, 293756, Note_off_c, 1, 64, 100
3, 293760, Note_on_c, 1, 58, 110
3, 293856, Note_on_c, 1, 61, 110
3, 294236, Note_off_c, 1, 58, 100
3, 294332, Note_off_c, 1, 61, 100
3, 294336, Note_on_c, 1, 55, 110
3, 294432, Note_on_c, 1, 58, 110
3, 294812, Note_off_c, 1, 55, 100
3, 294908, Note_off_c, 1, 58, 100
3, 294912, Note_on_c, 1, 52, 110
3, 295008, Note_on_c, 1, 55, 110
3, 295388, Note_off_c, 1, 52, 100
3, 295484, Note_off_c, 1, 55, 100
3, 295488, Note_on_c, 1, 49, 110
3, 295584, Note_on_c, 1, 52, 110
3, 295964, Note_off_c, 1, 49, 100
3, 296060, Note_off_c, 1, 52, 100
3, 296064, Note_on_c, 1, 46, 110
3, 296160, Note_on_c, 1, 49, 110
3, 296540, Note_off_c, 1, 46, 100
3, 296636, Note_off_c, 1, 49, 100
3, 296640, Note_on_c, 1, 43, 110
3, 296736, Note_on_c, 1, 46, 110
3, 297116, Note_off_c, 1, 43, 100
3, 297212, Note_off_c, 1, 46, 100
3, 297216, Note_on_c, 1, 40, 110
3, 297312, Note_on_c, 1, 43, 110
3, 297692, Note_off_c, 1, 40, 100
3, 297788, Note_off_c, 1, 43, 100
3, 297792, Note_on_c, 1, 37, 120
3, 298172, Note_off_c, 1, 37, 100
3, 298368, Note_on_c, 1, 73, 120
3, 298556, Note_off_c, 1, 73, 100
3, 298560, Note_on_c, 1, 73, 120
3, 298748, Note_off_c, 1, 73, 100
3, 298752, Note_on_c, 1, 73, 120
3, 298940, Note_off_c, 1, 73, 100
3, 298944, Note_on_c, 1, 73, 120
3, 299324, Note_off_c, 1, 73, 100
3, 299520, Note_on_c, 1, 37, 120
3, 299708, Note_off_c, 1, 37, 100
3, 299712, Note_on_c, 1, 37, 120
3, 299900, Note_off_c, 1, 37, 100
3, 299904, Note_on_c, 1, 37, 120
3, 300092, Note_off_c, 1, 37, 100
3, 300096, Note_on_c, 1, 37, 120
3, 300476, Note_off_c, 1, 37, 100
3, 300672, Note_on_c, 1, 73, 120
3, 300860, Note_off_c, 1, 73, 100
3, 300864, Note_on_c, 1, 73, 120
3, 301052, Note_off_c, 1, 73, 100
3, 301056, Note_on_c, 1, 73, 120
3, 301244, Note_off_c, 1, 73, 100
3, 301248, Note_on_c, 1, 73, 120
3, 301628, Note_off_c, 1, 73, 100
3, 301824, Note_on_c, 1, 37, 120
3, 302012, Note_off_c, 1, 37, 100
3, 302016, Note_on_c, 1, 37, 120
3, 302204, Note_off_c, 1, 37, 100
3, 302208, Note_on_c, 1, 37, 120
3, 302396, Note_off_c, 1, 37, 100
3, 302400, Note_on_c, 1, 36, 120
3, 302780, Note_off_c, 1, 36, 100
3, 302976, Note_on_c, 1, 73, 120
3, 303164, Note_off_c, 1, 73, 100
3, 303168, Note_on_c, 1, 73, 120
3, 303356, Note_off_c, 1, 73, 100
3, 303360, Note_on_c, 1, 73, 120
3, 303548, Note_off_c, 1, 73, 100
3, 303552, Note_on_c, 1, 72, 120
3, 303932, Note_off_c, 1, 72, 100
3, 304128, Note_on_c, 1, 37, 120
3, 304316, Note_off_c, 1, 37, 100
3, 304320, Note_on_c, 1, 37, 120
3, 304508, Note_off_c, 1, 37, 100
3, 304512, Note_on_c, 1, 37, 120
3, 304700, Note_off_c, 1, 37, 100
3, 304704, Note_on_c, 1, 36, 120
3, 305084, Note_off_c, 1, 36, 100
3, 305280, Note_on_c, 1, 73, 120
3, 305468, Note_off_c, 1, 73, 100
3, 305472, Note_on_c, 1, 73, 120
3, 305660, Note_off_c, 1, 73, 100
3, 305664, Note_on_c, 1, 73, 120
3, 305852, Note_off_c, 1, 73, 100
3, 305856, Note_on_c, 1, 72, 120
3, 306236, Note_off_c, 1, 72, 100
3, 306432, Note_on_c, 1, 37, 120
3, 306620, Note_off_c, 1, 37, 100
3, 306624, Note_on_c, 1, 37, 120
3, 306812, Note_off_c, 1, 37, 100
3, 306816, Note_on_c, 1, 37, 120
3, 307004, Note_off_c, 1, 37, 100
3, 307008, Note_on_c, 1, 36, 120
3, 307196, Note_off_c, 1, 36, 100
3, 307200, Note_on_c, 1, 36, 80
3, 307388, Note_off_c, 1, 36, 100
3, 307392, Note_on_c, 1, 36, 80
3, 307580, Note_off_c, 1, 36, 100
3, 307584, Note_on_c, 1, 36, 79
3, 307772, Note_off_c, 1, 36, 100
3, 307776, Note_on_c, 1, 36, 79
3, 307964, Note_off_c, 1, 36, 100
3, 307968, Note_on_c, 1, 36, 78
3, 308156, Note_off_c, 1, 36, 100
3, 308160, Note_on_c, 1, 36, 78
3, 308348, Note_off_c, 1, 36, 100
3, 308352, Note_on_c, 1, 36, 77
3, 308540, Note_off_c, 1, 36, 100
3, 308544, Note_on_c, 1, 36, 77
3, 308732, Note_off_c, 1, 36, 100
3, 308736, Note_on_c, 1, 36, 76
3, 308924, Note_off_c, 1, 36, 100
3, 308928, Note_on_c, 1, 36, 76
3, 309116, Note_off_c, 1, 36, 100
3, 309120, Note_on_c, 1, 36, 75
3, 309308, Note_off_c, 1, 36, 100
3, 309312, Note_on_c, 1, 36, 75
3, 309500, Note_off_c, 1, 36, 100
3, 309504, Note_on_c, 1, 36, 74
3, 309692, Note_off_c, 1, 36, 100
3, 309696, Note_on_c, 1, 36, 74
3, 309884, Note_off_c, 1, 36, 100
3, 309888, Note_on_c, 1, 36, 73
3, 310076, Note_off_c, 1, 36, 100
3, 310080, Note_on_c, 1, 36, 73
3, 310268, Note_off_c, 1, 36, 100
3, 310272, Note_on_c, 1, 36, 72
3, 310460, Note_off_c, 1, 36, 100
3, 310464, Note_on_c, 1, 36, 72
3, 310652, Note_off_c, 1, 36, 100
3, 310656, Note_on_c, 1, 36, 71
3, 310844, Note_off_c, 1, 36, 100
3, 310848, Note_on_c, 1, 36, 71
3, 311036, Note_off_c, 1, 36, 100
3, 311040, Note_on_c, 1, 36, 70
3, 311228, Note_off_c, 1, 36, 100
3, 311232, Note_on_c, 1, 36, 70
3, 311420, Note_off_c, 1, 36, 100
3, 311424, Note_on_c, 1, 36, 70
3, 311612, Note_off_c, 1, 36, 100
3, 311616, Note_on_c, 1, 36, 70
3, 311804, Note_off_c, 1, 36, 100
3, 311808, Note_on_c, 1, 36, 70
3, 311996, Note_off_c, 1, 36, 100
3, 312000, Note_on_c, 1, 36, 70
3, 312188, Note_off_c, 1, 36, 100
3, 312192, Note_on_c, 1, 36, 70
3, 312380, Note_off_c, 1, 36, 100
3, 312384, Note_on_c, 1, 36, 70
3, 312572, Note_off_c, 1, 36, 100
3, 312576, Note_on_c, 1, 36, 70
3, 312764, Note_off_c, 1, 36, 100
3, 312768, Note_on_c, 1, 36, 70
3, 312956, Note_off_c, 1, 36, 100
3, 312960, Note_on_c, 1, 36, 70
3, 313148, Note_off_c, 1, 36, 100
3, 313152, Note_on_c, 1, 36, 70
3, 313340, Note_off_c, 1, 36, 100
3, 313344, Note_on_c, 1, 36, 70
3, 313532, Note_off_c, 1, 36, 100
3, 313536, Note_on_c, 1, 36, 70
3, 313724, Note_off_c, 1, 36, 100
3, 313728, Note_on_c, 1, 36, 70
3, 313916, Note_off_c, 1, 36, 100
3, 313920, Note_on_c, 1, 36, 70
3, 314108, Note_off_c, 1, 36, 100
3, 314112, Note_on_c, 1, 36, 70
3, 314300, Note_off_c, 1, 36, 100
3, 314304, Note_on_c, 1, 36, 70
3, 314492, Note_off_c, 1, 36, 100
3, 314496, Note_on_c, 1, 36, 70
3, 314684, Note_off_c, 1, 36, 100
3, 314688, Note_on_c, 1, 36, 70
3, 314876, Note_off_c, 1, 36, 100
3, 314880, Note_on_c, 1, 36, 70
3, 315068, Note_off_c, 1, 36, 100
3, 315072, Note_on_c, 1, 36, 70
3, 315260, Note_off_c, 1, 36, 100
3, 315264, Note_on_c, 1, 36, 70
3, 315452, Note_off_c, 1, 36, 100
3, 315456, Note_on_c, 1, 36, 70
3, 315644, Note_off_c, 1, 36, 100
3, 315648, Note_on_c, 1, 36, 70
3, 315836, Note_off_c, 1, 36, 100
3, 315840, Note_on_c, 1, 36, 70
3, 316028, Note_off_c, 1, 36, 100
3, 316032, Note_on_c, 1, 36, 70
3, 316220, Note_off_c, 1, 36, 100
3, 316224, Note_on_c, 1, 36, 70
3, 316412, Note_off_c, 1, 36, 100
3, 316416, Note_on_c, 1, 36, 70
3, 316604, Note_off_c, 1, 36, 100
3, 316608, Note_on_c, 1, 36, 70
3, 316796, Note_off_c, 1, 36, 100
3, 316800, Note_on_c, 1, 36, 70
3, 316988, Note_off_c, 1, 36, 100
3, 316992, Note_on_c, 1, 36, 70
3, 317180, Note_off_c, 1, 36, 100
3, 317184, Note_on_c, 1, 36, 70
3, 317372, Note_off_c, 1, 36, 100
3, 317376, Note_on_c, 1, 36, 70
3, 317564, Note_off_c, 1, 36, 100
3, 317568, Note_on_c, 1, 36, 70
3, 317756, Note_off_c, 1, 36, 100
3, 317760, Note_on_c, 1, 36, 70
3, 317948, Note_off_c, 1, 36, 100
3, 317952, Note_on_c, 1, 36, 70
3, 318140, Note_off_c, 1, 36, 100
3, 318144, Note_on_c, 1, 36, 70
3, 318332, Note_off_c, 1, 36, 100
3, 318336, Note_on_c, 1, 36, 70
3, 318524, Note_off_c, 1, 36, 100
3, 318528, Note_on_c, 1, 36, 70
3, 318716, Note_off_c, 1, 36, 100
3, 318720, Note_on_c, 1, 36, 70
3, 318908, Note_off_c, 1, 36, 100
3, 318912, Note_on_c, 1, 36, 70
3, 319100, Note_off_c, 1, 36, 100
3, 319104, Note_on_c, 1, 36, 70
3, 319292, Note_off_c, 1, 36, 100
3, 319296, Note_on_c, 1, 36, 70
3, 319484, Note_off_c, 1, 36, 100
3, 319488, Note_on_c, 1, 36, 70
3, 319676, Note_off_c, 1, 36, 100
3, 319680, Note_on_c, 1, 36, 70
3, 319868, Note_off_c, 1, 36, 100
3, 319872, Note_on_c, 1, 37, 70
3, 320060, Note_off_c, 1, 37, 100
3, 320064, Note_on_c, 1, 37, 70
3, 320252, Note_off_c, 1, 37, 100
3, 320256, Note_on_c, 1, 37, 70
3, 320444, Note_off_c, 1, 37, 100
3, 320448, Note_on_c, 1, 37, 70
3, 320636, Note_off_c, 1, 37, 100
3, 320640, Note_on_c, 1, 37, 70
3, 320828, Note_off_c, 1, 37, 100
3, 320832, Note_on_c, 1, 37, 70
3, 321020, Note_off_c, 1, 37, 100
3, 321024, Note_on_c, 1, 37, 70
3, 321212, Note_off_c, 1, 37, 100
3, 321216, Note_on_c, 1, 37, 70
3, 321404, Note_off_c, 1, 37, 100
3, 321408, Note_on_c, 1, 37, 70
3, 321596, Note_off_c, 1, 37, 100
3, 321600, Note_on_c, 1, 37, 70
3, 321788, Note_off_c, 1, 37, 100
3, 321792, Note_on_c, 1, 37, 70
3, 321980, Note_off_c, 1, 37, 100
3, 321984, Note_on_c, 1, 37, 70
3, 322172, Note_off_c, 1, 37, 100
3, 322176, Note_on_c, 1, 37, 70
3, 322364, Note_off_c, 1, 37, 100
3, 322368, Note_on_c, 1, 37, 70
3, 322556, Note_off_c, 1, 37, 100
3, 322560, Note_on_c, 1, 37, 70
3, 322748, Note_off_c, 1, 37, 100
3, 322752, Note_on_c, 1, 37, 70
3, 322940, Note_off_c, 1, 37, 100
3, 322944, Note_on_c, 1, 37, 70
3, 323132, Note_off_c, 1, 37, 100
3, 323136, Note_on_c, 1, 37, 70
3, 323324, Note_off_c, 1, 37, 100
3, 323328, Note_on_c, 1, 37, 70
3, 323516, Note_off_c, 1, 37, 100
3, 323520, Note_on_c, 1, 37, 70
3, 323708, Note_off_c, 1, 37, 100
3, 323712, Note_on_c, 1, 37, 70
3, 323900, Note_off_c, 1, 37, 100
3, 323904, Note_on_c, 1, 37, 70
3, 324092, Note_off_c, 1, 37, 100
3, 324096, Note_on_c, 1, 37, 70
3, 324284, Note_off_c, 1, 37, 100
3, 324288, Note_on_c, 1, 37, 70
3, 324476, Note_off_c, 1, 37, 100
3, 324480, Note_on_c, 1, 37, 70
3, 324668, Note_off_c, 1, 37, 100
3, 324672, Note_on_c, 1, 37, 70
3, 324860, Note_off_c, 1, 37, 100
3, 324864, Note_on_c, 1, 37, 70
3, 325052, Note_off_c, 1, 37, 100
3, 325056, Note_on_c, 1, 37, 70
3, 325244, Note_off_c, 1, 37, 100
3, 325248, Note_on_c, 1, 37, 70
3, 325436, Note_off_c, 1, 37, 100
3, 325440, Note_on_c, 1, 37, 70
3, 325628, Note_off_c, 1, 37, 100
3, 325632, Note_on_c, 1, 37, 70
3, 325820, Note_off_c, 1, 37, 100
3, 325824, Note_on_c, 1, 37, 70
3, 326012, Note_off_c, 1, 37, 100
3, 326016, Note_on_c, 1, 37, 70
3, 326204, Note_off_c, 1, 37, 100
3, 326208, Note_on_c, 1, 37, 70
3, 326396, Note_off_c, 1, 37, 100
3, 326400, Note_on_c, 1, 37, 70
3, 326588, Note_off_c, 1, 37, 100
3, 326592, Note_on_c, 1, 37, 70
3, 326780, Note_off_c, 1, 37, 100
3, 326784, Note_on_c, 1, 37, 70
3, 326972, Note_off_c, 1, 37, 100
3, 326976, Note_on_c, 1, 37, 70
3, 327164, Note_off_c, 1, 37, 100
3, 327168, Note_on_c, 1, 37, 70
3, 327356, Note_off_c, 1, 37, 100
3, 327360, Note_on_c, 1, 37, 70
3, 327548, Note_off_c, 1, 37, 100
3, 327552, Note_on_c, 1, 37, 70
3, 327740, Note_off_c, 1, 37, 100
3, 327744, Note_on_c, 1, 37, 70
3, 327932, Note_off_c, 1, 37, 100
3, 327936, Note_on_c, 1, 41, 70
3, 327936, Note_on_c, 1, 35, 70
3, 328124, Note_off_c, 1, 41, 100
3, 328124, Note_off_c, 1, 35, 100
3, 328128, Note_on_c, 1, 41, 70
3, 328128, Note_on_c, 1, 35, 70
3, 328316, Note_off_c, 1, 41, 100
3, 328316, Note_off_c, 1, 35, 100
3, 328320, Note_on_c, 1, 41, 70
3, 328320, Note_on_c, 1, 35, 70
3, 328508, Note_off_c, 1, 41, 100
3, 328508, Note_off_c, 1, 35, 100
3, 328512, Note_on_c, 1, 41, 70
3, 328512, Note_on_c, 1, 35, 70
3, 328700, Note_off_c, 1, 41, 100
3, 328700, Note_off_c, 1, 35, 100
3, 328704, Note_on_c, 1, 41, 70
3, 328704, Note_on_c, 1, 35, 70
3, 328892, Note_off_c, 1, 41, 100
3, 328892, Note_off_c, 1, 35, 100
3, 328896, Note_on_c, 1, 41, 70
3, 328896, Note_on_c, 1, 35, 70
3, 329084, Note_off_c, 1, 41, 100
3, 329084, Note_off_c, 1, 35, 100
3, 329088, Note_on_c, 1, 41, 70
3, 329088, Note_on_c, 1, 35, 70
3, 329276, Note_off_c, 1, 41, 100
3, 329276, Note_off_c, 1, 35, 100
3, 329280, Note_on_c, 1, 41, 70
3, 329280, Note_on_c, 1, 35, 70
3, 329468, Note_off_c, 1, 41, 100
3, 329468, Note_off_c, 1, 35, 100
3, 329472, Note_on_c, 1, 41, 70
3, 329472, Note_on_c, 1, 35, 70
3, 329660, Note_off_c, 1, 41, 100
3, 329660, Note_off_c, 1, 35, 100
3, 329664, Note_on_c, 1, 41, 70
3, 329664, Note_on_c, 1, 35, 70
3, 329852, Note_off_c, 1, 41, 100
3, 329852, Note_off_c, 1, 35, 100
3, 329856, Note_on_c, 1, 41, 70
3, 329856, Note_on_c, 1, 35, 70
3, 330044, Note_off_c, 1, 41, 100
3, 330044, Note_off_c, 1, 35, 100
3, 330048, Note_on_c, 1, 40, 70
3, 330240, Note_on_c, 1, 36, 70
3, 330428, Note_off_c, 1, 36, 100
3, 330432, Note_on_c, 1, 36, 70
3, 330620, Note_off_c, 1, 36, 100
3, 330624, Note_on_c, 1, 36, 70
3, 330812, Note_off_c, 1, 36, 100
3, 330816, Note_on_c, 1, 36, 70
3, 331004, Note_off_c, 1, 36, 100
3, 331008, Note_on_c, 1, 36, 70
3, 331196, Note_off_c, 1, 40, 100
3, 331196, Note_off_c, 1, 36, 100
3, 331200, Note_on_c, 1, 41, 70
3, 331392, Note_on_c, 1, 36, 70
3, 331580, Note_off_c, 1, 36, 100
3, 331584, Note_on_c, 1, 36, 70
3, 331772, Note_off_c, 1, 36, 100
3, 331776, Note_on_c, 1, 36, 70
3, 331964, Note_off_c, 1, 36, 100
3, 331968, Note_on_c, 1, 36, 70
3, 332156, Note_off_c, 1, 36, 100
3, 332160, Note_on_c, 1, 36, 70
3, 332348, Note_off_c, 1, 41, 100
3, 332348, Note_off_c, 1, 36, 100
3, 332352, Note_on_c, 1, 40, 70
3, 332540, Note_off_c, 1, 40, 100
3, 332544, Note_on_c, 1, 36, 70
3, 332732, Note_off_c, 1, 36, 100
3, 332736, Note_on_c, 1, 36, 70
3, 332924, Note_off_c, 1, 36, 100
3, 332928, Note_on_c, 1, 36, 70
3, 332928, Note_on_c, 1, 49, 70
3, 333116, Note_off_c, 1, 36, 100
3, 333116, Note_off_c, 1, 49, 100
3, 333120, Note_on_c, 1, 36, 70
3, 333120, Note_on_c, 1, 49, 70
3, 333308, Note_off_c, 1, 36, 100
3, 333308, Note_off_c, 1, 49, 100
3, 333312, Note_on_c, 1, 36, 70
3, 333312, Note_on_c, 1, 49, 70
3, 333500, Note_off_c, 1, 36, 100
3, 333500, Note_off_c, 1, 49, 100
3, 333504, Note_on_c, 1, 48, 70
3, 333504, Note_on_c, 1, 36, 70
3, 333692, Note_off_c, 1, 36, 100
3, 333696, Note_on_c, 1, 36, 70
3, 333884, Note_off_c, 1, 48, 100
3, 333884, Note_off_c, 1, 36, 100
3, 333888, Note_on_c, 1, 36, 70
3, 334076, Note_off_c, 1, 36, 100
3, 334080, Note_on_c, 1, 36, 70
3, 334268, Note_off_c, 1, 36, 100
3, 334272, Note_on_c, 1, 36, 70
3, 334460, Note_off_c, 1, 36, 100
3, 334464, Note_on_c, 1, 36, 70
3, 334652, Note_off_c, 1, 36, 100
3, 334656, Note_on_c, 1, 43, 70
3, 334848, Note_on_c, 1, 36, 70
3, 335036, Note_off_c, 1, 36, 100
3, 335040, Note_on_c, 1, 36, 70
3, 335228, Note_off_c, 1, 36, 100
3, 335232, Note_on_c, 1, 36, 70
3, 335420, Note_off_c, 1, 36, 100
3, 335424, Note_on_c, 1, 36, 70
3, 335612, Note_off_c, 1, 36, 100
3, 335616, Note_on_c, 1, 36, 70
3, 335804, Note_off_c, 1, 43, 100
3, 335804, Note_off_c, 1, 36, 100
3, 335808, Note_on_c, 1, 44, 70
3, 336000, Note_on_c, 1, 36, 70
3, 336188, Note_off_c, 1, 36, 100
3, 336192, Note_on_c, 1, 36, 70
3, 336380, Note_off_c, 1, 36, 100
3, 336384, Note_on_c, 1, 36, 70
3, 336572, Note_off_c, 1, 36, 100
3, 336576, Note_on_c, 1, 36, 70
3, 336764, Note_off_c, 1, 36, 100
3, 336768, Note_on_c, 1, 36, 70
3, 336956, Note_off_c, 1, 44, 100
3, 336956, Note_off_c, 1, 36, 100
3, 336960, Note_on_c, 1, 46, 70
3, 337148, Note_off_c, 1, 46, 100
3, 337152, Note_on_c, 1, 36, 70
3, 337340, Note_off_c, 1, 36, 100
3, 337344, Note_on_c, 1, 36, 70
3, 337532, Note_off_c, 1, 36, 100
3, 337536, Note_on_c, 1, 36, 70
3, 337536, Note_on_c, 1, 49, 70
3, 337724, Note_off_c, 1, 36, 100
3, 337724, Note_off_c, 1, 49, 100
3, 337728, Note_on_c, 1, 36, 70
3, 337728, Note_on_c, 1, 49, 70
3, 337916, Note_off_c, 1, 36, 100
3, 337916, Note_off_c, 1, 49, 100
3, 337920, Note_on_c, 1, 36, 70
3, 337920, Note_on_c, 1, 49, 70
3, 338108, Note_off_c, 1, 36, 100
3, 338108, Note_off_c, 1, 49, 100
3, 338112, Note_on_c, 1, 36, 70
3, 338112, Note_on_c, 1, 48, 70
3, 338300, Note_off_c, 1, 36, 100
3, 338304, Note_on_c, 1, 36, 70
3, 338492, Note_off_c, 1, 48, 100
3, 338492, Note_off_c, 1, 36, 100
3, 338496, Note_on_c, 1, 36, 70
3, 338684, Note_off_c, 1, 36, 100
3, 338688, Note_on_c, 1, 36, 70
3, 338876, Note_off_c, 1, 36, 100
3, 338880, Note_on_c, 1, 36, 70
3, 339068, Note_off_c, 1, 36, 100
3, 339072, Note_on_c, 1, 36, 70
3, 339260, Note_off_c, 1, 36, 100
3, 339264, Note_on_c, 1, 36, 70
3, 339452, Note_off_c, 1, 36, 100
3, 339456, Note_on_c, 1, 36, 70
3, 339644, Note_off_c, 1, 36, 100
3, 339648, Note_on_c, 1, 36, 71
3, 339836, Note_off_c, 1, 36, 100
3, 339840, Note_on_c, 1, 36, 72
3, 339840, Note_on_c, 1, 49, 72
3, 340028, Note_off_c, 1, 36, 100
3, 340028, Note_off_c, 1, 49, 100
3, 340032, Note_on_c, 1, 36, 73
3, 340032, Note_on_c, 1, 49, 73
3, 340220, Note_off_c, 1, 36, 100
3, 340220, Note_off_c, 1, 49, 100
3, 340224, Note_on_c, 1, 36, 74
3, 340224, Note_on_c, 1, 49, 74
3, 340412, Note_off_c, 1, 36, 100
3, 340412, Note_off_c, 1, 49, 100
3, 340416, Note_on_c, 1, 36, 75
3, 340416, Note_on_c, 1, 48, 75
3, 340604, Note_off_c, 1, 36, 100
3, 340608, Note_on_c, 1, 36, 76
3, 340796, Note_off_c, 1, 48, 100
3, 340796, Note_off_c, 1, 36, 100
3, 340800, Note_on_c, 1, 36, 77
3, 340988, Note_off_c, 1, 36, 100
3, 340992, Note_on_c, 1, 36, 78
3, 341180, Note_off_c, 1, 36, 100
3, 341184, Note_on_c, 1, 36, 79
3, 341372, Note_off_c, 1, 36, 100
3, 341376, Note_on_c, 1, 36, 79
3, 341564, Note_off_c, 1, 36, 100
3, 341568, Note_on_c, 1, 36, 80
3, 341756, Note_off_c, 1, 36, 100
3, 341760, Note_on_c, 1, 36, 82
3, 341948, Note_off_c, 1, 36, 100
3, 341952, Note_on_c, 1, 36, 84
3, 342140, Note_off_c, 1, 36, 100
3, 342144, Note_on_c, 1, 36, 87
3, 342332, Note_off_c, 1, 36, 100
3, 342336, Note_on_c, 1, 36, 89
3, 342524, Note_off_c, 1, 36, 100
3, 342528, Note_on_c, 1, 36, 92
3, 342716, Note_off_c, 1, 36, 100
3, 342720, Note_on_c, 1, 36, 94
3, 342908, Note_off_c, 1, 36, 100
3, 342912, Note_on_c, 1, 36, 97
3, 343100, Note_off_c, 1, 36, 100
3, 343104, Note_on_c, 1, 36, 99
3, 343292, Note_off_c, 1, 36, 100
3, 343296, Note_on_c, 1, 36, 102
3, 343484, Note_off_c, 1, 36, 100
3, 343488, Note_on_c, 1, 36, 104
3, 343676, Note_off_c, 1, 36, 100
3, 343680, Note_on_c, 1, 36, 107
3, 343868, Note_off_c, 1, 36, 100
3, 343872, Note_on_c, 1, 36, 110
3, 344060, Note_off_c, 1, 36, 100
3, 344064, Note_on_c, 1, 36, 110
3, 344252, Note_off_c, 1, 36, 100
3, 344256, Note_on_c, 1, 36, 110
3, 344444, Note_off_c, 1, 36, 100
3, 344448, Note_on_c, 1, 36, 110
3, 344636, Note_off_c, 1, 36, 100
3, 344640, Note_on_c, 1, 36, 110
3, 344828, Note_off_c, 1, 36, 100
3, 344832, Note_on_c, 1, 36, 110
3, 345020, Note_off_c, 1, 36, 100
3, 345024, Note_on_c, 1, 43, 110
3, 345024, Note_on_c, 1, 31, 110
3, 345212, Note_off_c, 1, 43, 100
3, 345212, Note_off_c, 1, 31, 100
3, 345216, Note_on_c, 1, 36, 110
3, 345404, Note_off_c, 1, 36, 100
3, 345408, Note_on_c, 1, 36, 110
3, 345596, Note_off_c, 1, 36, 100
3, 345600, Note_on_c, 1, 41, 110
3, 345600, Note_on_c, 1, 29, 110
3, 345788, Note_off_c, 1, 41, 100
3, 345788, Note_off_c, 1, 29, 100
3, 345792, Note_on_c, 1, 36, 100
3, 345980, Note_off_c, 1, 36, 100
3, 345984, Note_on_c, 1, 36, 90
3, 346172, Note_off_c, 1, 36, 100
3, 346176, Note_on_c, 1, 40, 80
3, 346176, Note_on_c, 1, 36, 80
3, 347900, Note_off_c, 1, 36, 100
3, 347900, Note_off_c, 1, 40, 100
3, 347904, Note_on_c, 1, 36, 80
3, 348380, Note_off_c, 1, 36, 100
3, 348384, Note_on_c, 1, 33, 80
3, 348476, Note_off_c, 1, 33, 100
3, 348480, Note_on_c, 1, 29, 120
3, 348668, Note_off_c, 1, 29, 100
3, 348864, Note_on_c, 1, 41, 120
3, 348864, Note_on_c, 1, 36, 120
3, 348864, Note_on_c, 1, 33, 120
3, 348864, Note_on_c, 1, 29, 120
3, 349244, Note_off_c, 1, 41, 100
3, 349244, Note_off_c, 1, 36, 100
3, 349244, Note_off_c, 1, 33, 100
3, 349244, Note_off_c, 1, 29, 100
3, 349248, Note_on_c, 1, 41, 120
3, 349248, Note_on_c, 1, 36, 120
3, 349248, Note_on_c, 1, 33, 120
3, 349248, Note_on_c, 1, 29, 120
3, 349628, Note_off_c, 1, 41, 100
3, 349628, Note_off_c, 1, 36, 100
3, 349628, Note_off_c, 1, 33, 100
3, 349628, Note_off_c, 1, 29, 100
3, 349632, Note_on_c, 1, 41, 120
3, 349632, Note_on_c, 1, 36, 120
3, 349632, Note_on_c, 1, 33, 120
3, 349632, Note_on_c, 1, 29, 120
3, 350012, Note_off_c, 1, 41, 100
3, 350012, Note_off_c, 1, 36, 100
3, 350012, Note_off_c, 1, 33, 100
3, 350012, Note_off_c, 1, 29, 100
3, 350016, Note_on_c, 1, 41, 120
3, 350016, Note_on_c, 1, 36, 120
3, 350016, Note_on_c, 1, 33, 120
3, 350016, Note_on_c, 1, 29, 120
3, 350396, Note_off_c, 1, 41, 100
3, 350396, Note_off_c, 1, 36, 100
3, 350396, Note_off_c, 1, 33, 100
3, 350396, Note_off_c, 1, 29, 100
3, 350400, Note_on_c, 1, 41, 120
3, 350400, Note_on_c, 1, 36, 120
3, 350400, Note_on_c, 1, 33, 120
3, 350400, Note_on_c, 1, 29, 120
3, 350780, Note_off_c, 1, 41, 100
3, 350780, Note_off_c, 1, 36, 100
3, 350780, Note_off_c, 1, 33, 100
3, 350780, Note_off_c, 1, 29, 100
3, 350784, Note_on_c, 1, 41, 120
3, 350784, Note_on_c, 1, 36, 120
3, 350784, Note_on_c, 1, 33, 120
3, 350784, Note_on_c, 1, 29, 120
3, 352508, Note_off_c, 1, 29, 100
3, 352508, Note_off_c, 1, 33, 100
3, 352508, Note_off_c, 1, 36, 100
3, 352508, Note_off_c, 1, 41, 100
3, 352512, Note_on_c, 1, 33, 80
3, 352988, Note_off_c, 1, 33, 100
3, 352992, Note_on_c, 1, 36, 80
3, 353084, Note_off_c, 1, 36, 100
3, 353088, Note_on_c, 1, 41, 80
3, 353660, Note_off_c, 1, 41, 100
3, 353664, Note_on_c, 1, 45, 80
3, 354140, Note_off_c, 1, 45, 100
3, 354144, Note_on_c, 1, 48, 80
3, 354236, Note_off_c, 1, 48, 100
3, 354240, Note_on_c, 1, 53, 80
3, 354812, Note_off_c, 1, 53, 100
3, 354816, Note_on_c, 1, 41, 80
3, 355388, Note_off_c, 1, 41, 100
3, 355776, Note_on_c, 1, 48, 120
3, 355776, Note_on_c, 1, 43, 120
3, 355776, Note_on_c, 1, 40, 120
3, 356156, Note_off_c, 1, 48, 100
3, 356156, Note_off_c, 1, 43, 100
3, 356156, Note_off_c, 1, 40, 100
3, 356160, Note_on_c, 1, 48, 120
3, 356160, Note_on_c, 1, 43, 120
3, 356160, Note_on_c, 1, 40, 120
3, 356540, Note_off_c, 1, 48, 100
3, 356540, Note_off_c, 1, 43, 100
3, 356540, Note_off_c, 1, 40, 100
3, 356544, Note_on_c, 1, 48, 120
3, 356544, Note_on_c, 1, 43, 120
3, 356544, Note_on_c, 1, 40, 120
3, 356924, Note_off_c, 1, 48, 100
3, 356924, Note_off_c, 1, 43, 100
3, 356924, Note_off_c, 1, 40, 100
3, 356928, Note_on_c, 1, 48, 120
3, 356928, Note_on_c, 1, 43, 120
3, 356928, Note_on_c, 1, 40, 120
3, 357308, Note_off_c, 1, 48, 100
3, 357308, Note_off_c, 1, 43, 100
3, 357308, Note_off_c, 1, 40, 100
3, 357312, Note_on_c, 1, 48, 120
3, 357312, Note_on_c, 1, 43, 120
3, 357312, Note_on_c, 1, 40, 120
3, 357692, Note_off_c, 1, 48, 100
3, 357692, Note_off_c, 1, 43, 100
3, 357692, Note_off_c, 1, 40, 100
3, 357696, Note_on_c, 1, 67, 80
3, 357696, Note_on_c, 1, 64, 80
3, 358844, Note_off_c, 1, 67, 100
3, 358844, Note_off_c, 1, 64, 100
3, 358848, Note_on_c, 1, 68, 80
3, 358848, Note_on_c, 1, 65, 80
3, 359996, Note_off_c, 1, 68, 100
3, 359996, Note_off_c, 1, 65, 100
3, 360384, Note_on_c, 1, 48, 120
3, 360384, Note_on_c, 1, 43, 120
3, 360384, Note_on_c, 1, 40, 120
3, 360764, Note_off_c, 1, 48, 100
3, 360764, Note_off_c, 1, 43, 100
3, 360764, Note_off_c, 1, 40, 100
3, 360768, Note_on_c, 1, 48, 120
3, 360768, Note_on_c, 1, 43, 120
3, 360768, Note_on_c, 1, 40, 120
3, 361148, Note_off_c, 1, 48, 100
3, 361148, Note_off_c, 1, 43, 100
3, 361148, Note_off_c, 1, 40, 100
3, 361152, Note_on_c, 1, 48, 120
3, 361152, Note_on_c, 1, 43, 120
3, 361152, Note_on_c, 1, 40, 120
3, 361532, Note_off_c, 1, 48, 100
3, 361532, Note_off_c, 1, 43, 100
3, 361532, Note_off_c, 1, 40, 100
3, 361536, Note_on_c, 1, 48, 120
3, 361536, Note_on_c, 1, 43, 120
3, 361536, Note_on_c, 1, 40, 120
3, 361916, Note_off_c, 1, 48, 100
3, 361916, Note_off_c, 1, 43, 100
3, 361916, Note_off_c, 1, 40, 100
3, 361920, Note_on_c, 1, 48, 120
3, 361920, Note_on_c, 1, 43, 120
3, 361920, Note_on_c, 1, 40, 120
3, 362300, Note_off_c, 1, 48, 100
3, 362300, Note_off_c, 1, 43, 100
3, 362300, Note_off_c, 1, 40, 100
3, 362304, Note_on_c, 1, 67, 80
3, 362304, Note_on_c, 1, 64, 80
3, 363452, Note_off_c, 1, 67, 100
3, 363452, Note_off_c, 1, 64, 100
3, 363456, Note_on_c, 1, 68, 80
3, 363456, Note_on_c, 1, 65, 80
3, 364604, Note_off_c, 1, 68, 100
3, 364604, Note_off_c, 1, 65, 100
3, 364992, Note_on_c, 1, 52, 120
3, 364992, Note_on_c, 1, 46, 120
3, 364992, Note_on_c, 1, 43, 120
3, 365372, Note_off_c, 1, 52, 100
3, 365372, Note_off_c, 1, 46, 100
3, 365372, Note_off_c, 1, 43, 100
3, 365376, Note_on_c, 1, 52, 120
3, 365376, Note_on_c, 1, 46, 120
3, 365376, Note_on_c, 1, 43, 120
3, 365756, Note_off_c, 1, 52, 100
3, 365756, Note_off_c, 1, 46, 100
3, 365756, Note_off_c, 1, 43, 100
3, 365760, Note_on_c, 1, 52, 120
3, 365760, Note_on_c, 1, 46, 120
3, 365760, Note_on_c, 1, 43, 120
3, 366140, Note_off_c, 1, 52, 100
3, 366140, Note_off_c, 1, 46, 100
3, 366140, Note_off_c, 1, 43, 100
3, 366144, Note_on_c, 1, 52, 120
3, 366144, Note_on_c, 1, 46, 120
3, 366144, Note_on_c, 1, 43, 120
3, 366524, Note_off_c, 1, 52, 100
3, 366524, Note_off_c, 1, 46, 100
3, 366524, Note_off_c, 1, 43, 100
3, 366528, Note_on_c, 1, 52, 120
3, 366528, Note_on_c, 1, 46, 120
3, 366528, Note_on_c, 1, 43, 120
3, 366908, Note_off_c, 1, 52, 100
3, 366908, Note_off_c, 1, 46, 100
3, 366908, Note_off_c, 1, 43, 100
3, 366912, Note_on_c, 1, 70, 80
3, 366912, Note_on_c, 1, 67, 80
3, 368060, Note_off_c, 1, 70, 100
3, 368060, Note_off_c, 1, 67, 100
3, 368064, Note_on_c, 1, 72, 80
3, 368064, Note_on_c, 1, 68, 80
3, 369212, Note_off_c, 1, 72, 100
3, 369212, Note_off_c, 1, 68, 100
3, 369600, Note_on_c, 1, 55, 120
3, 369600, Note_on_c, 1, 52, 120
3, 369600, Note_on_c, 1, 49, 120
3, 369600, Note_on_c, 1, 46, 120
3, 369980, Note_off_c, 1, 55, 100
3, 369980, Note_off_c, 1, 52, 100
3, 369980, Note_off_c, 1, 49, 100
3, 369980, Note_off_c, 1, 46, 100
3, 369984, Note_on_c, 1, 67, 120
3, 369984, Note_on_c, 1, 64, 120
3, 369984, Note_on_c, 1, 61, 120
3, 369984, Note_on_c, 1, 58, 120
3, 370364, Note_off_c, 1, 67, 100
3, 370364, Note_off_c, 1, 64, 100
3, 370364, Note_off_c, 1, 61, 100
3, 370364, Note_off_c, 1, 58, 100
3, 370368, Note_on_c, 1, 67, 120
3, 370368, Note_on_c, 1, 64, 120
3, 370368, Note_on_c, 1, 61, 120
3, 370368, Note_on_c, 1, 58, 120
3, 370748, Note_off_c, 1, 67, 100
3, 370748, Note_off_c, 1, 64, 100
3, 370748, Note_off_c, 1, 61, 100
3, 370748, Note_off_c, 1, 58, 100
3, 370752, Note_on_c, 1, 67, 120
3, 370752, Note_on_c, 1, 64, 120
3, 370752, Note_on_c, 1, 61, 120
3, 370752, Note_on_c, 1, 58, 120
3, 371132, Note_off_c, 1, 67, 100
3, 371132, Note_off_c, 1, 64, 100
3, 371132, Note_off_c, 1, 61, 100
3, 371132, Note_off_c, 1, 58, 100
3, 371136, Note_on_c, 1, 67, 120
3, 371136, Note_on_c, 1, 64, 120
3, 371136, Note_on_c, 1, 61, 120
3, 371136, Note_on_c, 1, 58, 120
3, 371516, Note_off_c, 1, 67, 100
3, 371516, Note_off_c, 1, 64, 100
3, 371516, Note_off_c, 1, 61, 100
3, 371516, Note_off_c, 1, 58, 100
3, 371520, Note_on_c, 1, 73, 120
3, 371520, Note_on_c, 1, 70, 120
3, 372668, Note_off_c, 1, 73, 100
3, 372668, Note_off_c, 1, 70, 100
3, 372672, Note_on_c, 1, 74, 120
3, 372672, Note_on_c, 1, 71, 120
3, 373820, Note_off_c, 1, 74, 100
3, 373820, Note_off_c, 1, 71, 100
3, 373824, Note_on_c, 1, 60, 120
3, 374012, Note_off_c, 1, 60, 100
3, 374016, Note_on_c, 1, 72, 80
3, 374204, Note_off_c, 1, 72, 100
3, 374208, Note_on_c, 1, 72, 80
3, 374396, Note_off_c, 1, 72, 100
3, 374400, Note_on_c, 1, 72, 80
3, 374588, Note_off_c, 1, 72, 100
3, 374592, Note_on_c, 1, 72, 80
3, 374780, Note_off_c, 1, 72, 100
3, 374784, Note_on_c, 1, 72, 80
3, 374972, Note_off_c, 1, 72, 100
3, 374976, Note_on_c, 1, 72, 80
3, 375164, Note_off_c, 1, 72, 100
3, 375168, Note_on_c, 1, 72, 80
3, 375356, Note_off_c, 1, 72, 100
3, 375360, Note_on_c, 1, 72, 80
3, 375548, Note_off_c, 1, 72, 100
3, 375552, Note_on_c, 1, 72, 80
3, 375740, Note_off_c, 1, 72, 100
3, 375744, Note_on_c, 1, 72, 80
3, 375932, Note_off_c, 1, 72, 100
3, 375936, Note_on_c, 1, 72, 80
3, 376124, Note_off_c, 1, 72, 100
3, 376320, Note_on_c, 1, 72, 80
3, 376508, Note_off_c, 1, 72, 100
3, 376512, Note_on_c, 1, 72, 80
3, 376700, Note_off_c, 1, 72, 100
3, 376704, Note_on_c, 1, 68, 80
3, 376704, Note_on_c, 1, 65, 80
3, 376892, Note_off_c, 1, 68, 100
3, 376892, Note_off_c, 1, 65, 100
3, 376896, Note_on_c, 1, 72, 80
3, 377084, Note_off_c, 1, 72, 100
3, 377088, Note_on_c, 1, 72, 80
3, 377276, Note_off_c, 1, 72, 100
3, 377280, Note_on_c, 1, 72, 80
3, 377468, Note_off_c, 1, 72, 100
3, 377472, Note_on_c, 1, 72, 80
3, 377660, Note_off_c, 1, 72, 100
3, 377664, Note_on_c, 1, 72, 80
3, 377852, Note_off_c, 1, 72, 100
3, 377856, Note_on_c, 1, 72, 80
3, 378044, Note_off_c, 1, 72, 100
3, 378048, Note_on_c, 1, 72, 80
3, 378236, Note_off_c, 1, 72, 100
3, 378240, Note_on_c, 1, 72, 80
3, 378428, Note_off_c, 1, 72, 100
3, 378624, Note_on_c, 1, 72, 80
3, 378812, Note_off_c, 1, 72, 100
3, 378816, Note_on_c, 1, 72, 80
3, 379004, Note_off_c, 1, 72, 100
3, 379008, Note_on_c, 1, 68, 80
3, 379008, Note_on_c, 1, 65, 80
3, 379196, Note_off_c, 1, 68, 100
3, 379196, Note_off_c, 1, 65, 100
3, 379200, Note_on_c, 1, 72, 80
3, 379388, Note_off_c, 1, 72, 100
3, 379392, Note_on_c, 1, 72, 80
3, 379580, Note_off_c, 1, 72, 100
3, 379584, Note_on_c, 1, 68, 80
3, 379584, Note_on_c, 1, 65, 80
3, 379772, Note_off_c, 1, 68, 100
3, 379772, Note_off_c, 1, 65, 100
3, 379776, Note_on_c, 1, 72, 80
3, 379964, Note_off_c, 1, 72, 100
3, 379968, Note_on_c, 1, 72, 80
3, 380156, Note_off_c, 1, 72, 100
3, 380160, Note_on_c, 1, 68, 80
3, 380160, Note_on_c, 1, 65, 80
3, 380348, Note_off_c, 1, 68, 100
3, 380348, Note_off_c, 1, 65, 100
3, 380352, Note_on_c, 1, 72, 80
3, 380540, Note_off_c, 1, 72, 100
3, 380544, Note_on_c, 1, 72, 80
3, 380732, Note_off_c, 1, 72, 100
3, 380736, Note_on_c, 1, 67, 80
3, 380736, Note_on_c, 1, 64, 80
3, 380924, Note_off_c, 1, 67, 100
3, 380924, Note_off_c, 1, 64, 100
3, 380928, Note_on_c, 1, 60, 80
3, 381116, Note_off_c, 1, 60, 100
3, 381120, Note_on_c, 1, 60, 80
3, 381308, Note_off_c, 1, 60, 100
3, 381312, Note_on_c, 1, 60, 80
3, 381500, Note_off_c, 1, 60, 100
3, 381504, Note_on_c, 1, 60, 80
3, 381692, Note_off_c, 1, 60, 100
3, 381696, Note_on_c, 1, 60, 80
3, 381884, Note_off_c, 1, 60, 100
3, 381888, Note_on_c, 1, 60, 80
3, 382076, Note_off_c, 1, 60, 100
3, 382080, Note_on_c, 1, 60, 80
3, 382268, Note_off_c, 1, 60, 100
3, 382272, Note_on_c, 1, 60, 80
3, 382460, Note_off_c, 1, 60, 100
3, 382464, Note_on_c, 1, 60, 80
3, 382652, Note_off_c, 1, 60, 100
3, 382656, Note_on_c, 1, 60, 80
3, 382844, Note_off_c, 1, 60, 100
3, 382848, Note_on_c, 1, 60, 80
3, 383036, Note_off_c, 1, 60, 100
3, 383040, Note_on_c, 1, 60, 80
3, 383228, Note_off_c, 1, 60, 100
3, 383232, Note_on_c, 1, 60, 80
3, 383420, Note_off_c, 1, 60, 100
3, 383424, Note_on_c, 1, 60, 80
3, 383612, Note_off_c, 1, 60, 100
3, 383616, Note_on_c, 1, 60, 80
3, 383804, Note_off_c, 1, 60, 100
3, 383808, Note_on_c, 1, 60, 80
3, 383996, Note_off_c, 1, 60, 100
3, 384000, Note_on_c, 1, 60, 80
3, 384188, Note_off_c, 1, 60, 100
3, 384192, Note_on_c, 1, 60, 80
3, 384380, Note_off_c, 1, 60, 100
3, 384384, Note_on_c, 1, 60, 80
3, 384572, Note_off_c, 1, 60, 100
3, 384576, Note_on_c, 1, 60, 80
3, 384764, Note_off_c, 1, 60, 100
3, 384768, Note_on_c, 1, 58, 80
3, 384768, Note_on_c, 1, 55, 80
3, 384956, Note_off_c, 1, 58, 100
3, 384956, Note_off_c, 1, 55, 100
3, 384960, Note_on_c, 1, 60, 80
3, 385148, Note_off_c, 1, 60, 100
3, 385152, Note_on_c, 1, 60, 80
3, 385340, Note_off_c, 1, 60, 100
3, 385344, Note_on_c, 1, 60, 80
3, 385532, Note_off_c, 1, 60, 100
3, 385536, Note_on_c, 1, 60, 80
3, 385724, Note_off_c, 1, 60, 100
3, 385728, Note_on_c, 1, 60, 80
3, 385916, Note_off_c, 1, 60, 100
3, 385920, Note_on_c, 1, 60, 80
3, 386108, Note_off_c, 1, 60, 100
3, 386112, Note_on_c, 1, 60, 80
3, 386300, Note_off_c, 1, 60, 100
3, 386304, Note_on_c, 1, 60, 80
3, 386492, Note_off_c, 1, 60, 100
3, 386496, Note_on_c, 1, 60, 80
3, 386684, Note_off_c, 1, 60, 100
3, 386688, Note_on_c, 1, 60, 80
3, 386876, Note_off_c, 1, 60, 100
3, 386880, Note_on_c, 1, 60, 80
3, 387068, Note_off_c, 1, 60, 100
3, 387072, Note_on_c, 1, 56, 80
3, 387072, Note_on_c, 1, 53, 80
3, 387260, Note_off_c, 1, 56, 100
3, 387260, Note_off_c, 1, 53, 100
3, 387264, Note_on_c, 1, 60, 80
3, 387452, Note_off_c, 1, 60, 100
3, 387456, Note_on_c, 1, 60, 80
3, 387644, Note_off_c, 1, 60, 100
3, 387840, Note_on_c, 1, 60, 80
3, 388028, Note_off_c, 1, 60, 100
3, 388032, Note_on_c, 1, 60, 80
3, 388220, Note_off_c, 1, 60, 100
3, 388224, Note_on_c, 1, 56, 80
3, 388224, Note_on_c, 1, 53, 80
3, 388412, Note_off_c, 1, 56, 100
3, 388412, Note_off_c, 1, 53, 100
3, 388416, Note_on_c, 1, 60, 80
3, 388604, Note_off_c, 1, 60, 100
3, 388608, Note_on_c, 1, 60, 80
3, 388796, Note_off_c, 1, 60, 100
3, 388800, Note_on_c, 1, 56, 80
3, 388800, Note_on_c, 1, 53, 80
3, 388988, Note_off_c, 1, 56, 100
3, 388988, Note_off_c, 1, 53, 100
3, 388992, Note_on_c, 1, 60, 80
3, 389180, Note_off_c, 1, 60, 100
3, 389184, Note_on_c, 1, 60, 80
3, 389372, Note_off_c, 1, 60, 100
3, 389376, Note_on_c, 1, 56, 80
3, 389376, Note_on_c, 1, 53, 80
3, 389564, Note_off_c, 1, 56, 100
3, 389564, Note_off_c, 1, 53, 100
3, 389568, Note_on_c, 1, 60, 80
3, 389756, Note_off_c, 1, 60, 100
3, 389760, Note_on_c, 1, 60, 80
3, 389948, Note_off_c, 1, 60, 100
3, 390144, Note_on_c, 1, 60, 80
3, 390332, Note_off_c, 1, 60, 100
3, 390336, Note_on_c, 1, 60, 80
3, 390524, Note_off_c, 1, 60, 100
3, 390528, Note_on_c, 1, 55, 80
3, 390528, Note_on_c, 1, 52, 80
3, 390716, Note_off_c, 1, 55, 100
3, 390716, Note_off_c, 1, 52, 100
3, 390720, Note_on_c, 1, 60, 80
3, 390908, Note_off_c, 1, 60, 100
3, 390912, Note_on_c, 1, 60, 80
3, 391100, Note_off_c, 1, 60, 100
3, 391296, Note_on_c, 1, 60, 80
3, 391484, Note_off_c, 1, 60, 100
3, 391488, Note_on_c, 1, 60, 79
3, 391676, Note_off_c, 1, 60, 100
3, 391680, Note_on_c, 1, 54, 79
3, 391680, Note_on_c, 1, 51, 79
3, 391868, Note_off_c, 1, 54, 100
3, 391868, Note_off_c, 1, 51, 100
3, 391872, Note_on_c, 1, 60, 78
3, 392060, Note_off_c, 1, 60, 100
3, 392064, Note_on_c, 1, 60, 78
3, 392252, Note_off_c, 1, 60, 100
3, 392448, Note_on_c, 1, 60, 76
3, 392636, Note_off_c, 1, 60, 100
3, 392640, Note_on_c, 1, 60, 76
3, 392828, Note_off_c, 1, 60, 100
3, 392832, Note_on_c, 1, 53, 75
3, 392832, Note_on_c, 1, 50, 75
3, 393020, Note_off_c, 1, 53, 100
3, 393020, Note_off_c, 1, 50, 100
3, 393024, Note_on_c, 1, 60, 75
3, 393212, Note_off_c, 1, 60, 100
3, 393216, Note_on_c, 1, 60, 74
3, 393404, Note_off_c, 1, 60, 100
3, 393600, Note_on_c, 1, 60, 73
3, 393788, Note_off_c, 1, 60, 100
3, 393792, Note_on_c, 1, 60, 72
3, 393980, Note_off_c, 1, 60, 100
3, 393984, Note_on_c, 1, 53, 72
3, 393984, Note_on_c, 1, 49, 72
3, 394172, Note_off_c, 1, 53, 100
3, 394172, Note_off_c, 1, 49, 100
3, 394176, Note_on_c, 1, 60, 71
3, 394364, Note_off_c, 1, 60, 100
3, 394368, Note_on_c, 1, 60, 71
3, 394556, Note_off_c, 1, 60, 100
3, 394752, Note_on_c, 1, 48, 70
3, 394940, Note_off_c, 1, 48, 100
3, 394944, Note_on_c, 1, 48, 70
3, 395132, Note_off_c, 1, 48, 100
3, 395136, Note_on_c, 1, 48, 70
3, 395324, Note_off_c, 1, 48, 100
3, 395328, Note_on_c, 1, 48, 70
3, 395516, Note_off_c, 1, 48, 100
3, 395520, Note_on_c, 1, 48, 70
3, 395708, Note_off_c, 1, 48, 100
3, 395712, Note_on_c, 1, 48, 70
3, 395900, Note_off_c, 1, 48, 100
3, 395904, Note_on_c, 1, 48, 70
3, 396092, Note_off_c, 1, 48, 100
3, 396096, Note_on_c, 1, 48, 70
3, 396284, Note_off_c, 1, 48, 100
3, 396288, Note_on_c, 1, 48, 70
3, 396476, Note_off_c, 1, 48, 100
3, 396480, Note_on_c, 1, 48, 70
3, 396668, Note_off_c, 1, 48, 100
3, 396672, Note_on_c, 1, 48, 70
3, 396860, Note_off_c, 1, 48, 100
3, 397056, Note_on_c, 1, 36, 70
3, 397244, Note_off_c, 1, 36, 100
3, 397248, Note_on_c, 1, 36, 70
3, 397436, Note_off_c, 1, 36, 100
3, 397440, Note_on_c, 1, 36, 70
3, 397628, Note_off_c, 1, 36, 100
3, 397632, Note_on_c, 1, 36, 70
3, 397820, Note_off_c, 1, 36, 100
3, 397824, Note_on_c, 1, 36, 70
3, 398012, Note_off_c, 1, 36, 100
3, 398016, Note_on_c, 1, 36, 70
3, 398204, Note_off_c, 1, 36, 100
3, 398208, Note_on_c, 1, 36, 70
3, 398396, Note_off_c, 1, 36, 100
3, 398400, Note_on_c, 1, 36, 70
3, 398588, Note_off_c, 1, 36, 100
3, 398592, Note_on_c, 1, 36, 70
3, 398780, Note_off_c, 1, 36, 100
3, 398784, Note_on_c, 1, 36, 70
3, 398972, Note_off_c, 1, 36, 100
3, 398976, Note_on_c, 1, 36, 70
3, 399164, Note_off_c, 1, 36, 100
3, 399168, Note_on_c, 1, 29, 70
3, 399356, Note_off_c, 1, 29, 100
3, 399360, Note_on_c, 1, 41, 70
3, 399360, Note_on_c, 1, 36, 70
3, 399360, Note_on_c, 1, 33, 70
3, 399548, Note_off_c, 1, 41, 100
3, 399548, Note_off_c, 1, 36, 100
3, 399548, Note_off_c, 1, 33, 100
3, 399552, Note_on_c, 1, 29, 70
3, 399740, Note_off_c, 1, 29, 100
3, 399744, Note_on_c, 1, 41, 70
3, 399744, Note_on_c, 1, 36, 70
3, 399744, Note_on_c, 1, 33, 70
3, 399932, Note_off_c, 1, 41, 100
3, 399932, Note_off_c, 1, 36, 100
3, 399932, Note_off_c, 1, 33, 100
3, 399936, Note_on_c, 1, 29, 70
3, 400124, Note_off_c, 1, 29, 100
3, 400128, Note_on_c, 1, 41, 70
3, 400128, Note_on_c, 1, 36, 70
3, 400128, Note_on_c, 1, 33, 70
3, 400316, Note_off_c, 1, 41, 100
3, 400316, Note_off_c, 1, 36, 100
3, 400316, Note_off_c, 1, 33, 100
3, 400320, Note_on_c, 1, 29, 70
3, 400508, Note_off_c, 1, 29, 100
3, 400512, Note_on_c, 1, 41, 70
3, 400512, Note_on_c, 1, 36, 70
3, 400512, Note_on_c, 1, 33, 70
3, 400700, Note_off_c, 1, 41, 100
3, 400700, Note_off_c, 1, 36, 100
3, 400700, Note_off_c, 1, 33, 100
3, 400704, Note_on_c, 1, 29, 70
3, 400892, Note_off_c, 1, 29, 100
3, 400896, Note_on_c, 1, 41, 70
3, 400896, Note_on_c, 1, 36, 70
3, 400896, Note_on_c, 1, 33, 70
3, 401084, Note_off_c, 1, 41, 100
3, 401084, Note_off_c, 1, 36, 100
3, 401084, Note_off_c, 1, 33, 100
3, 401088, Note_on_c, 1, 29, 70
3, 401276, Note_off_c, 1, 29, 100
3, 401280, Note_on_c, 1, 41, 70
3, 401280, Note_on_c, 1, 36, 70
3, 401280, Note_on_c, 1, 33, 70
3, 401468, Note_off_c, 1, 41, 100
3, 401468, Note_off_c, 1, 36, 100
3, 401468, Note_off_c, 1, 33, 100
3, 401472, Note_on_c, 1, 29, 70
3, 401660, Note_off_c, 1, 29, 100
3, 401664, Note_on_c, 1, 41, 70
3, 401664, Note_on_c, 1, 36, 70
3, 401664, Note_on_c, 1, 33, 70
3, 401852, Note_off_c, 1, 41, 100
3, 401852, Note_off_c, 1, 36, 100
3, 401852, Note_off_c, 1, 33, 100
3, 401856, Note_on_c, 1, 29, 70
3, 402044, Note_off_c, 1, 29, 100
3, 402048, Note_on_c, 1, 41, 70
3, 402048, Note_on_c, 1, 36, 70
3, 402048, Note_on_c, 1, 33, 70
3, 402236, Note_off_c, 1, 41, 100
3, 402236, Note_off_c, 1, 36, 100
3, 402236, Note_off_c, 1, 33, 100
3, 402240, Note_on_c, 1, 29, 70
3, 402428, Note_off_c, 1, 29, 100
3, 402432, Note_on_c, 1, 41, 70
3, 402432, Note_on_c, 1, 36, 70
3, 402432, Note_on_c, 1, 33, 70
3, 402620, Note_off_c, 1, 41, 100
3, 402620, Note_off_c, 1, 36, 100
3, 402620, Note_off_c, 1, 33, 100
3, 402624, Note_on_c, 1, 31, 70
3, 402812, Note_off_c, 1, 31, 100
3, 402816, Note_on_c, 1, 43, 70
3, 402816, Note_on_c, 1, 40, 70
3, 402816, Note_on_c, 1, 34, 70
3, 403004, Note_off_c, 1, 43, 100
3, 403004, Note_off_c, 1, 40, 100
3, 403004, Note_off_c, 1, 34, 100
3, 403008, Note_on_c, 1, 31, 70
3, 403196, Note_off_c, 1, 31, 100
3, 403200, Note_on_c, 1, 43, 70
3, 403200, Note_on_c, 1, 40, 70
3, 403200, Note_on_c, 1, 34, 70
3, 403388, Note_off_c, 1, 43, 100
3, 403388, Note_off_c, 1, 40, 100
3, 403388, Note_off_c, 1, 34, 100
3, 403392, Note_on_c, 1, 31, 70
3, 403580, Note_off_c, 1, 31, 100
3, 403584, Note_on_c, 1, 43, 70
3, 403584, Note_on_c, 1, 40, 70
3, 403584, Note_on_c, 1, 34, 70
3, 403772, Note_off_c, 1, 43, 100
3, 403772, Note_off_c, 1, 40, 100
3, 403772, Note_off_c, 1, 34, 100
3, 403776, Note_on_c, 1, 33, 70
3, 403964, Note_off_c, 1, 33, 100
3, 403968, Note_on_c, 1, 45, 70
3, 403968, Note_on_c, 1, 41, 70
3, 403968, Note_on_c, 1, 36, 70
3, 404156, Note_off_c, 1, 45, 100
3, 404156, Note_off_c, 1, 41, 100
3, 404156, Note_off_c, 1, 36, 100
3, 404160, Note_on_c, 1, 33, 70
3, 404348, Note_off_c, 1, 33, 100
3, 404352, Note_on_c, 1, 45, 70
3, 404352, Note_on_c, 1, 41, 70
3, 404352, Note_on_c, 1, 36, 70
3, 404540, Note_off_c, 1, 45, 100
3, 404540, Note_off_c, 1, 41, 100
3, 404540, Note_off_c, 1, 36, 100
3, 404544, Note_on_c, 1, 33, 70
3, 404732, Note_off_c, 1, 33, 100
3, 404736, Note_on_c, 1, 45, 70
3, 404736, Note_on_c, 1, 41, 70
3, 404736, Note_on_c, 1, 36, 70
3, 404924, Note_off_c, 1, 45, 100
3, 404924, Note_off_c, 1, 41, 100
3, 404924, Note_off_c, 1, 36, 100
3, 404928, Note_on_c, 1, 33, 70
3, 405116, Note_off_c, 1, 33, 100
3, 405120, Note_on_c, 1, 45, 70
3, 405120, Note_on_c, 1, 41, 70
3, 405120, Note_on_c, 1, 36, 70
3, 405308, Note_off_c, 1, 45, 100
3, 405308, Note_off_c, 1, 41, 100
3, 405308, Note_off_c, 1, 36, 100
3, 405312, Note_on_c, 1, 33, 70
3, 405500, Note_off_c, 1, 33, 100
3, 405504, Note_on_c, 1, 41, 70
3, 405692, Note_off_c, 1, 41, 100
3, 405696, Note_on_c, 1, 34, 70
3, 405884, Note_off_c, 1, 34, 100
3, 405888, Note_on_c, 1, 41, 70
3, 406076, Note_off_c, 1, 41, 100
3, 406080, Note_on_c, 1, 36, 70
3, 406268, Note_off_c, 1, 36, 100
3, 406272, Note_on_c, 1, 41, 70
3, 406460, Note_off_c, 1, 41, 100
3, 406464, Note_on_c, 1, 36, 70
3, 406652, Note_off_c, 1, 36, 100
3, 406656, Note_on_c, 1, 41, 70
3, 406844, Note_off_c, 1, 41, 100
3, 406848, Note_on_c, 1, 36, 70
3, 407036, Note_off_c, 1, 36, 100
3, 407040, Note_on_c, 1, 41, 70
3, 407228, Note_off_c, 1, 41, 100
3, 407232, Note_on_c, 1, 36, 70
3, 407420, Note_off_c, 1, 36, 100
3, 407424, Note_on_c, 1, 40, 70
3, 407612, Note_off_c, 1, 40, 100
3, 407616, Note_on_c, 1, 36, 70
3, 407804, Note_off_c, 1, 36, 100
3, 407808, Note_on_c, 1, 40, 70
3, 407996, Note_off_c, 1, 40, 100
3, 408000, Note_on_c, 1, 36, 70
3, 408188, Note_off_c, 1, 36, 100
3, 408192, Note_on_c, 1, 40, 70
3, 408380, Note_off_c, 1, 40, 100
3, 408384, Note_on_c, 1, 41, 70
3, 408572, Note_off_c, 1, 41, 100
3, 408576, Note_on_c, 1, 45, 71
3, 408576, Note_on_c, 1, 48, 71
3, 408576, Note_on_c, 1, 53, 71
3, 408764, Note_off_c, 1, 45, 100
3, 408764, Note_off_c, 1, 48, 100
3, 408764, Note_off_c, 1, 53, 100
3, 408768, Note_on_c, 1, 41, 72
3, 408956, Note_off_c, 1, 41, 100
3, 408960, Note_on_c, 1, 45, 73
3, 408960, Note_on_c, 1, 48, 73
3, 408960, Note_on_c, 1, 53, 73
3, 409148, Note_off_c, 1, 45, 100
3, 409148, Note_off_c, 1, 48, 100
3, 409148, Note_off_c, 1, 53, 100
3, 409152, Note_on_c, 1, 41, 74
3, 409340, Note_off_c, 1, 41, 100
3, 409344, Note_on_c, 1, 45, 75
3, 409344, Note_on_c, 1, 48, 75
3, 409344, Note_on_c, 1, 53, 75
3, 409532, Note_off_c, 1, 45, 100
3, 409532, Note_off_c, 1, 48, 100
3, 409532, Note_off_c, 1, 53, 100
3, 409536, Note_on_c, 1, 41, 76
3, 409724, Note_off_c, 1, 41, 100
3, 409728, Note_on_c, 1, 45, 77
3, 409728, Note_on_c, 1, 48, 77
3, 409728, Note_on_c, 1, 53, 77
3, 409916, Note_off_c, 1, 45, 100
3, 409916, Note_off_c, 1, 48, 100
3, 409916, Note_off_c, 1, 53, 100
3, 409920, Note_on_c, 1, 41, 79
3, 410108, Note_off_c, 1, 41, 100
3, 410112, Note_on_c, 1, 45, 80
3, 410112, Note_on_c, 1, 48, 80
3, 410112, Note_on_c, 1, 53, 80
3, 410300, Note_off_c, 1, 45, 100
3, 410300, Note_off_c, 1, 48, 100
3, 410300, Note_off_c, 1, 53, 100
3, 410304, Note_on_c, 1, 41, 81
3, 410492, Note_off_c, 1, 41, 100
3, 410496, Note_on_c, 1, 45, 82
3, 410496, Note_on_c, 1, 48, 82
3, 410496, Note_on_c, 1, 53, 82
3, 410684, Note_off_c, 1, 45, 100
3, 410684, Note_off_c, 1, 48, 100
3, 410684, Note_off_c, 1, 53, 100
3, 410688, Note_on_c, 1, 41, 83
3, 410876, Note_off_c, 1, 41, 100
3, 410880, Note_on_c, 1, 45, 84
3, 410880, Note_on_c, 1, 48, 84
3, 410880, Note_on_c, 1, 53, 84
3, 411068, Note_off_c, 1, 45, 100
3, 411068, Note_off_c, 1, 48, 100
3, 411068, Note_off_c, 1, 53, 100
3, 411072, Note_on_c, 1, 41, 85
3, 411260, Note_off_c, 1, 41, 100
3, 411264, Note_on_c, 1, 45, 87
3, 411264, Note_on_c, 1, 48, 87
3, 411264, Note_on_c, 1, 53, 87
3, 411452, Note_off_c, 1, 45, 100
3, 411452, Note_off_c, 1, 48, 100
3, 411452, Note_off_c, 1, 53, 100
3, 411456, Note_on_c, 1, 41, 88
3, 411644, Note_off_c, 1, 41, 100
3, 411648, Note_on_c, 1, 45, 89
3, 411648, Note_on_c, 1, 48, 89
3, 411648, Note_on_c, 1, 53, 89
3, 411836, Note_off_c, 1, 45, 100
3, 411836, Note_off_c, 1, 48, 100
3, 411836, Note_off_c, 1, 53, 100
3, 411840, Note_on_c, 1, 43, 90
3, 412028, Note_off_c, 1, 43, 100
3, 412032, Note_on_c, 1, 46, 90
3, 412032, Note_on_c, 1, 48, 90
3, 412032, Note_on_c, 1, 55, 90
3, 412220, Note_off_c, 1, 46, 100
3, 412220, Note_off_c, 1, 48, 100
3, 412220, Note_off_c, 1, 55, 100
3, 412224, Note_on_c, 1, 43, 90
3, 412412, Note_off_c, 1, 43, 100
3, 412416, Note_on_c, 1, 46, 90
3, 412416, Note_on_c, 1, 48, 90
3, 412416, Note_on_c, 1, 55, 90
3, 412604, Note_off_c, 1, 46, 100
3, 412604, Note_off_c, 1, 48, 100
3, 412604, Note_off_c, 1, 55, 100
3, 412608, Note_on_c, 1, 43, 90
3, 412796, Note_off_c, 1, 43, 100
3, 412800, Note_on_c, 1, 46, 90
3, 412800, Note_on_c, 1, 48, 90
3, 412800, Note_on_c, 1, 55, 90
3, 412988, Note_off_c, 1, 46, 100
3, 412988, Note_off_c, 1, 48, 100
3, 412988, Note_off_c, 1, 55, 100
3, 412992, Note_on_c, 1, 57, 80
3, 412992, Note_on_c, 1, 53, 80
3, 412992, Note_on_c, 1, 48, 80
3, 412992, Note_on_c, 1, 45, 80
3, 415292, Note_off_c, 1, 45, 100
3, 415292, Note_off_c, 1, 48, 100
3, 415292, Note_off_c, 1, 53, 100
3, 415292, Note_off_c, 1, 57, 100
3, 415296, Note_on_c, 1, 53, 110
3, 415296, Note_on_c, 1, 49, 110
3, 415296, Note_on_c, 1, 46, 110
3, 415868, Note_off_c, 1, 53, 100
3, 415872, Note_on_c, 1, 54, 110
3, 417596, Note_off_c, 1, 46, 100
3, 417596, Note_off_c, 1, 49, 100
3, 417596, Note_off_c, 1, 54, 100
3, 417600, Note_on_c, 1, 56, 80
3, 417600, Note_on_c, 1, 53, 80
3, 417600, Note_on_c, 1, 48, 80
3, 419900, Note_off_c, 1, 48, 100
3, 419900, Note_off_c, 1, 53, 100
3, 419900, Note_off_c, 1, 56, 100
3, 419904, Note_on_c, 1, 58, 80
3, 419904, Note_on_c, 1, 52, 80
3, 419904, Note_on_c, 1, 48, 80
3, 422204, Note_off_c, 1, 48, 100
3, 422204, Note_off_c, 1, 52, 100
3, 422204, Note_off_c, 1, 58, 100
3, 433152, Note_on_c, 1, 41, 80
3, 433344, Note_on_c, 1, 40, 80
3, 433536, Note_on_c, 1, 39, 80
3, 433724, Note_off_c, 1, 41, 100
3, 433728, Note_on_c, 1, 37, 80
3, 433916, Note_off_c, 1, 40, 100
3, 433916, Note_off_c, 1, 37, 100
3, 433920, Note_on_c, 1, 36, 80
3, 434108, Note_off_c, 1, 39, 100
3, 434108, Note_off_c, 1, 36, 100
3, 434112, Note_on_c, 1, 34, 80
3, 434300, Note_off_c, 1, 34, 100
3, 434304, Note_on_c, 1, 32, 80
3, 434492, Note_off_c, 1, 32, 100
3, 434496, Note_on_c, 1, 31, 80
3, 434684, Note_off_c, 1, 31, 100
3, 434688, Note_on_c, 1, 32, 80
3, 434876, Note_off_c, 1, 32, 100
3, 434880, Note_on_c, 1, 34, 80
3, 435068, Note_off_c, 1, 34, 100
3, 435072, Note_on_c, 1, 36, 80
3, 435260, Note_off_c, 1, 36, 100
3, 435264, Note_on_c, 1, 35, 80
3, 435452, Note_off_c, 1, 35, 100
3, 435456, Note_on_c, 1, 36, 80
3, 435644, Note_off_c, 1, 36, 100
3, 435648, Note_on_c, 1, 35, 80
3, 435836, Note_off_c, 1, 35, 100
3, 435840, Note_on_c, 1, 36, 80
3, 436028, Note_off_c, 1, 36, 100
3, 436032, Note_on_c, 1, 29, 110
3, 436128, Note_on_c, 1, 36, 110
3, 436220, Note_off_c, 1, 29, 100
3, 436224, Note_on_c, 1, 41, 110
3, 436316, Note_off_c, 1, 36, 100
3, 436320, Note_on_c, 1, 36, 110
3, 436412, Note_off_c, 1, 41, 100
3, 436416, Note_on_c, 1, 29, 110
3, 436508, Note_off_c, 1, 36, 100
3, 436512, Note_on_c, 1, 36, 110
3, 436604, Note_off_c, 1, 29, 100
3, 436608, Note_on_c, 1, 29, 110
3, 436700, Note_off_c, 1, 36, 100
3, 436704, Note_on_c, 1, 36, 110
3, 436796, Note_off_c, 1, 29, 100
3, 436800, Note_on_c, 1, 29, 110
3, 436892, Note_off_c, 1, 36, 100
3, 436896, Note_on_c, 1, 36, 110
3, 436988, Note_off_c, 1, 29, 100
3, 436992, Note_on_c, 1, 29, 110
3, 437084, Note_off_c, 1, 36, 100
3, 437088, Note_on_c, 1, 36, 110
3, 437180, Note_off_c, 1, 29, 100
3, 437184, Note_on_c, 1, 29, 110
3, 437276, Note_off_c, 1, 36, 100
3, 437280, Note_on_c, 1, 36, 110
3, 437372, Note_off_c, 1, 29, 100
3, 437376, Note_on_c, 1, 41, 110
3, 437468, Note_off_c, 1, 36, 100
3, 437472, Note_on_c, 1, 36, 110
3, 437564, Note_off_c, 1, 41, 100
3, 437568, Note_on_c, 1, 29, 110
3, 437660, Note_off_c, 1, 36, 100
3, 437664, Note_on_c, 1, 36, 110
3, 437756, Note_off_c, 1, 29, 100
3, 437760, Note_on_c, 1, 29, 110
3, 437852, Note_off_c, 1, 36, 100
3, 437856, Note_on_c, 1, 36, 110
3, 437948, Note_off_c, 1, 29, 100
3, 437952, Note_on_c, 1, 29, 110
3, 438044, Note_off_c, 1, 36, 100
3, 438048, Note_on_c, 1, 36, 110
3, 438140, Note_off_c, 1, 29, 100
3, 438144, Note_on_c, 1, 29, 110
3, 438236, Note_off_c, 1, 36, 100
3, 438240, Note_on_c, 1, 36, 110
3, 438332, Note_off_c, 1, 29, 100
3, 438332, Note_off_c, 1, 36, 100
3, 438336, Note_on_c, 1, 29, 110
3, 438432, Note_on_c, 1, 37, 110
3, 438524, Note_off_c, 1, 29, 100
3, 438528, Note_on_c, 1, 41, 110
3, 438620, Note_off_c, 1, 37, 100
3, 438624, Note_on_c, 1, 37, 110
3, 438716, Note_off_c, 1, 41, 100
3, 438720, Note_on_c, 1, 29, 110
3, 438812, Note_off_c, 1, 37, 100
3, 438816, Note_on_c, 1, 37, 110
3, 438908, Note_off_c, 1, 29, 100
3, 438912, Note_on_c, 1, 29, 110
3, 439004, Note_off_c, 1, 37, 100
3, 439008, Note_on_c, 1, 37, 110
3, 439100, Note_off_c, 1, 29, 100
3, 439104, Note_on_c, 1, 29, 110
3, 439196, Note_off_c, 1, 37, 100
3, 439200, Note_on_c, 1, 37, 110
3, 439292, Note_off_c, 1, 29, 100
3, 439296, Note_on_c, 1, 29, 110
3, 439388, Note_off_c, 1, 37, 100
3, 439392, Note_on_c, 1, 37, 110
3, 439484, Note_off_c, 1, 29, 100
3, 439488, Note_on_c, 1, 29, 110
3, 439580, Note_off_c, 1, 37, 100
3, 439584, Note_on_c, 1, 37, 110
3, 439676, Note_off_c, 1, 29, 100
3, 439680, Note_on_c, 1, 41, 110
3, 439772, Note_off_c, 1, 37, 100
3, 439776, Note_on_c, 1, 37, 110
3, 439868, Note_off_c, 1, 41, 100
3, 439872, Note_on_c, 1, 29, 110
3, 439964, Note_off_c, 1, 37, 100
3, 439968, Note_on_c, 1, 37, 110
3, 440060, Note_off_c, 1, 29, 100
3, 440064, Note_on_c, 1, 29, 110
3, 440156, Note_off_c, 1, 37, 100
3, 440160, Note_on_c, 1, 37, 110
3, 440252, Note_off_c, 1, 29, 100
3, 440256, Note_on_c, 1, 29, 110
3, 440348, Note_off_c, 1, 37, 100
3, 440352, Note_on_c, 1, 37, 110
3, 440444, Note_off_c, 1, 29, 100
3, 440448, Note_on_c, 1, 29, 110
3, 440540, Note_off_c, 1, 37, 100
3, 440544, Note_on_c, 1, 37, 110
3, 440636, Note_off_c, 1, 29, 100
3, 440636, Note_off_c, 1, 37, 100
3, 440640, Note_on_c, 1, 42, 125
3, 440640, Note_on_c, 1, 30, 125
3, 442364, Note_off_c, 1, 30, 100
3, 442364, Note_off_c, 1, 42, 100
3, 442368, Note_on_c, 1, 43, 125
3, 442368, Note_on_c, 1, 31, 125
3, 442560, Note_on_c, 1, 34, 125
3, 442752, Note_on_c, 1, 37, 125
3, 442940, Note_off_c, 1, 43, 100
3, 442940, Note_off_c, 1, 31, 100
3, 442944, Note_on_c, 1, 40, 125
3, 443132, Note_off_c, 1, 34, 100
3, 443136, Note_on_c, 1, 43, 125
3, 443324, Note_off_c, 1, 37, 100
3, 443328, Note_on_c, 1, 46, 125
3, 443516, Note_off_c, 1, 40, 100
3, 443516, Note_off_c, 1, 43, 100
3, 443516, Note_off_c, 1, 46, 100
3, 443520, Note_on_c, 1, 49, 125
3, 443708, Note_off_c, 1, 49, 100
3, 443712, Note_on_c, 1, 49, 125
3, 443900, Note_off_c, 1, 49, 100
3, 443904, Note_on_c, 1, 49, 125
3, 444092, Note_off_c, 1, 49, 100
3, 444096, Note_on_c, 1, 49, 125
3, 444668, Note_off_c, 1, 49, 100
3, 444672, Note_on_c, 1, 48, 125
3, 445244, Note_off_c, 1, 48, 100
3, 445248, Note_on_c, 1, 41, 110
3, 445344, Note_on_c, 1, 48, 110
3, 445436, Note_off_c, 1, 41, 100
3, 445440, Note_on_c, 1, 53, 110
3, 445532, Note_off_c, 1, 48, 100
3, 445536, Note_on_c, 1, 48, 110
3, 445628, Note_off_c, 1, 53, 100
3, 445632, Note_on_c, 1, 41, 110
3, 445724, Note_off_c, 1, 48, 100
3, 445728, Note_on_c, 1, 48, 110
3, 445820, Note_off_c, 1, 41, 100
3, 445824, Note_on_c, 1, 41, 110
3, 445916, Note_off_c, 1, 48, 100
3, 445920, Note_on_c, 1, 48, 110
3, 446012, Note_off_c, 1, 41, 100
3, 446016, Note_on_c, 1, 41, 110
3, 446108, Note_off_c, 1, 48, 100
3, 446112, Note_on_c, 1, 48, 110
3, 446204, Note_off_c, 1, 41, 100
3, 446208, Note_on_c, 1, 41, 110
3, 446300, Note_off_c, 1, 48, 100
3, 446304, Note_on_c, 1, 48, 110
3, 446396, Note_off_c, 1, 41, 100
3, 446400, Note_on_c, 1, 41, 110
3, 446492, Note_off_c, 1, 48, 100
3, 446496, Note_on_c, 1, 48, 110
3, 446588, Note_off_c, 1, 41, 100
3, 446592, Note_on_c, 1, 53, 110
3, 446684, Note_off_c, 1, 48, 100
3, 446688, Note_on_c, 1, 48, 110
3, 446780, Note_off_c, 1, 53, 100
3, 446784, Note_on_c, 1, 41, 110
3, 446876, Note_off_c, 1, 48, 100
3, 446880, Note_on_c, 1, 48, 110
3, 446972, Note_off_c, 1, 41, 100
3, 446976, Note_on_c, 1, 41, 110
3, 447068, Note_off_c, 1, 48, 100
3, 447072, Note_on_c, 1, 48, 110
3, 447164, Note_off_c, 1, 41, 100
3, 447168, Note_on_c, 1, 41, 110
3, 447260, Note_off_c, 1, 48, 100
3, 447264, Note_on_c, 1, 48, 110
3, 447356, Note_off_c, 1, 41, 100
3, 447360, Note_on_c, 1, 41, 110
3, 447452, Note_off_c, 1, 48, 100
3, 447456, Note_on_c, 1, 48, 110
3, 447548, Note_off_c, 1, 41, 100
3, 447548, Note_off_c, 1, 48, 100
3, 447552, Note_on_c, 1, 41, 110
3, 447648, Note_on_c, 1, 49, 110
3, 447740, Note_off_c, 1, 41, 100
3, 447744, Note_on_c, 1, 53, 110
3, 447836, Note_off_c, 1, 49, 100
3, 447840, Note_on_c, 1, 49, 110
3, 447932, Note_off_c, 1, 53, 100
3, 447936, Note_on_c, 1, 41, 110
3, 448028, Note_off_c, 1, 49, 100
3, 448032, Note_on_c, 1, 49, 110
3, 448124, Note_off_c, 1, 41, 100
3, 448128, Note_on_c, 1, 41, 110
3, 448220, Note_off_c, 1, 49, 100
3, 448224, Note_on_c, 1, 49, 110
3, 448316, Note_off_c, 1, 41, 100
3, 448320, Note_on_c, 1, 41, 110
3, 448412, Note_off_c, 1, 49, 100
3, 448416, Note_on_c, 1, 49, 110
3, 448508, Note_off_c, 1, 41, 100
3, 448512, Note_on_c, 1, 41, 110
3, 448604, Note_off_c, 1, 49, 100
3, 448608, Note_on_c, 1, 49, 110
3, 448700, Note_off_c, 1, 41, 100
3, 448704, Note_on_c, 1, 41, 110
3, 448796, Note_off_c, 1, 49, 100
3, 448800, Note_on_c, 1, 49, 110
3, 448892, Note_off_c, 1, 41, 100
3, 448896, Note_on_c, 1, 53, 110
3, 448988, Note_off_c, 1, 49, 100
3, 448992, Note_on_c, 1, 49, 110
3, 449084, Note_off_c, 1, 53, 100
3, 449088, Note_on_c, 1, 41, 110
3, 449180, Note_off_c, 1, 49, 100
3, 449184, Note_on_c, 1, 49, 110
3, 449276, Note_off_c, 1, 41, 100
3, 449280, Note_on_c, 1, 41, 110
3, 449372, Note_off_c, 1, 49, 100
3, 449376, Note_on_c, 1, 49, 110
3, 449468, Note_off_c, 1, 41, 100
3, 449472, Note_on_c, 1, 41, 110
3, 449564, Note_off_c, 1, 49, 100
3, 449568, Note_on_c, 1, 49, 110
3, 449660, Note_off_c, 1, 41, 100
3, 449664, Note_on_c, 1, 41, 110
3, 449756, Note_off_c, 1, 49, 100
3, 449760, Note_on_c, 1, 49, 110
3, 449852, Note_off_c, 1, 41, 100
3, 449852, Note_off_c, 1, 49, 100
3, 449856, Note_on_c, 1, 54, 125
3, 449856, Note_on_c, 1, 42, 125
3, 451580, Note_off_c, 1, 42, 100
3, 451580, Note_off_c, 1, 54, 100
3, 451584, Note_on_c, 1, 55, 125
3, 451584, Note_on_c, 1, 43, 125
3, 451776, Note_on_c, 1, 58, 125
3, 451776, Note_on_c, 1, 46, 125
3, 451968, Note_on_c, 1, 61, 125
3, 451968, Note_on_c, 1, 49, 125
3, 452156, Note_off_c, 1, 55, 100
3, 452156, Note_off_c, 1, 43, 100
3, 452160, Note_on_c, 1, 64, 125
3, 452160, Note_on_c, 1, 52, 125
3, 452348, Note_off_c, 1, 46, 100
3, 452348, Note_off_c, 1, 58, 100
3, 452352, Note_on_c, 1, 67, 125
3, 452352, Note_on_c, 1, 55, 125
3, 452540, Note_off_c, 1, 49, 100
3, 452540, Note_off_c, 1, 61, 100
3, 452544, Note_on_c, 1, 70, 125
3, 452544, Note_on_c, 1, 58, 125
3, 452732, Note_off_c, 1, 64, 100
3, 452732, Note_off_c, 1, 52, 100
3, 452736, Note_on_c, 1, 73, 125
3, 452736, Note_on_c, 1, 61, 125
3, 452924, Note_off_c, 1, 67, 100
3, 452924, Note_off_c, 1, 55, 100
3, 452924, Note_off_c, 1, 73, 100
3, 452924, Note_off_c, 1, 61, 100
3, 452928, Note_on_c, 1, 73, 125
3, 452928, Note_on_c, 1, 61, 125
3, 453116, Note_off_c, 1, 70, 100
3, 453116, Note_off_c, 1, 58, 100
3, 453116, Note_off_c, 1, 73, 100
3, 453116, Note_off_c, 1, 61, 100
3, 453120, Note_on_c, 1, 73, 125
3, 453120, Note_on_c, 1, 61, 125
3, 453308, Note_off_c, 1, 73, 100
3, 453308, Note_off_c, 1, 61, 100
3, 453312, Note_on_c, 1, 73, 125
3, 453312, Note_on_c, 1, 61, 125
3, 453884, Note_off_c, 1, 73, 100
3, 453884, Note_off_c, 1, 61, 100
3, 453888, Note_on_c, 1, 72, 125
3, 453888, Note_on_c, 1, 60, 125
3, 454460, Note_off_c, 1, 72, 100
3, 454460, Note_off_c, 1, 60, 100
3, 454464, Note_on_c, 1, 65, 121
3, 455036, Note_off_c, 1, 65, 100
3, 455040, Note_on_c, 1, 64, 110
3, 455612, Note_off_c, 1, 64, 100
3, 455616, Note_on_c, 1, 73, 121
3, 456188, Note_off_c, 1, 73, 100
3, 456192, Note_on_c, 1, 72, 110
3, 456764, Note_off_c, 1, 72, 100
3, 456768, Note_on_c, 1, 71, 120
3, 456864, Note_on_c, 1, 74, 120
3, 456960, Note_on_c, 1, 77, 120
3, 457056, Note_on_c, 1, 80, 120
3, 457916, Note_off_c, 1, 71, 100
3, 457916, Note_off_c, 1, 74, 100
3, 457916, Note_off_c, 1, 77, 100
3, 457916, Note_off_c, 1, 80, 100
3, 457920, Note_on_c, 1, 72, 120
3, 458016, Note_on_c, 1, 76, 120
3, 458112, Note_on_c, 1, 79, 120
3, 459068, Note_off_c, 1, 72, 100
3, 459068, Note_off_c, 1, 76, 100
3, 459068, Note_off_c, 1, 79, 100
3, 459072, Note_on_c, 1, 68, 80
3, 459072, Note_on_c, 1, 65, 80
3, 459644, Note_off_c, 1, 68, 100
3, 459644, Note_off_c, 1, 65, 100
3, 459648, Note_on_c, 1, 73, 80
3, 459648, Note_on_c, 1, 70, 80
3, 460220, Note_off_c, 1, 73, 100
3, 460220, Note_off_c, 1, 70, 100
3, 460224, Note_on_c, 1, 72, 80
3, 460224, Note_on_c, 1, 68, 80
3, 460796, Note_off_c, 1, 72, 100
3, 460796, Note_off_c, 1, 68, 100
3, 460800, Note_on_c, 1, 72, 100
3, 460800, Note_on_c, 1, 70, 100
3, 460800, Note_on_c, 1, 67, 100
3, 461372, Note_off_c, 1, 72, 100
3, 461372, Note_off_c, 1, 70, 100
3, 461372, Note_off_c, 1, 67, 100
3, 461376, Note_on_c, 1, 68, 80
3, 461376, Note_on_c, 1, 65, 80
3, 461948, Note_off_c, 1, 68, 100
3, 461948, Note_off_c, 1, 65, 100
3, 461952, Note_on_c, 1, 61, 80
3, 461952, Note_on_c, 1, 58, 80
3, 462524, Note_off_c, 1, 61, 100
3, 462524, Note_off_c, 1, 58, 100
3, 462528, Note_on_c, 1, 60, 80
3, 462528, Note_on_c, 1, 56, 80
3, 463100, Note_off_c, 1, 60, 100
3, 463100, Note_off_c, 1, 56, 100
3, 463104, Note_on_c, 1, 60, 100
3, 463104, Note_on_c, 1, 58, 100
3, 463104, Note_on_c, 1, 55, 100
3, 463676, Note_off_c, 1, 60, 100
3, 463676, Note_off_c, 1, 58, 100
3, 463676, Note_off_c, 1, 55, 100
3, 463680, Note_on_c, 1, 56, 80
3, 463680, Note_on_c, 1, 53, 80
3, 464252, Note_off_c, 1, 56, 100
3, 464252, Note_off_c, 1, 53, 100
3, 464256, Note_on_c, 1, 49, 80
3, 464256, Note_on_c, 1, 46, 80
3, 464828, Note_off_c, 1, 49, 100
3, 464828, Note_off_c, 1, 46, 100
3, 464832, Note_on_c, 1, 48, 80
3, 464832, Note_on_c, 1, 44, 80
3, 465404, Note_off_c, 1, 48, 100
3, 465404, Note_off_c, 1, 44, 100
3, 465408, Note_on_c, 1, 48, 100
3, 465408, Note_on_c, 1, 46, 100
3, 465408, Note_on_c, 1, 43, 100
3, 465980, Note_off_c, 1, 48, 100
3, 465980, Note_off_c, 1, 46, 100
3, 465980, Note_off_c, 1, 43, 100
3, 465984, Note_on_c, 1, 41, 80
3, 467132, Note_off_c, 1, 41, 100
3, 467136, Note_on_c, 1, 36, 76
3, 467708, Note_off_c, 1, 36, 100
3, 467712, Note_on_c, 1, 32, 73
3, 468284, Note_off_c, 1, 32, 100
3, 468288, Note_on_c, 1, 29, 70
3, 470012, Note_off_c, 1, 29, 100
3, 470016, Note_on_c, 1, 32, 70
3, 470492, Note_off_c, 1, 32, 100
3, 470496, Note_on_c, 1, 36, 70
3, 470588, Note_off_c, 1, 36, 100
3, 470592, Note_on_c, 1, 41, 70
3, 471164, Note_off_c, 1, 41, 100
3, 471168, Note_on_c, 1, 44, 70
3, 471644, Note_off_c, 1, 44, 100
3, 471648, Note_on_c, 1, 48, 70
3, 471740, Note_off_c, 1, 48, 100
3, 471744, Note_on_c, 1, 53, 70
3, 472316, Note_off_c, 1, 53, 100
3, 472320, Note_on_c, 1, 41, 70
3, 472892, Note_off_c, 1, 41, 100
3, 472896, Note_on_c, 1, 42, 70
3, 474620, Note_off_c, 1, 42, 100
3, 474624, Note_on_c, 1, 48, 70
3, 475100, Note_off_c, 1, 48, 100
3, 475104, Note_on_c, 1, 51, 70
3, 475196, Note_off_c, 1, 51, 100
3, 475200, Note_on_c, 1, 54, 70
3, 475772, Note_off_c, 1, 54, 100
3, 475776, Note_on_c, 1, 60, 70
3, 476252, Note_off_c, 1, 60, 100
3, 476256, Note_on_c, 1, 63, 70
3, 476348, Note_off_c, 1, 63, 100
3, 476352, Note_on_c, 1, 66, 70
3, 476924, Note_off_c, 1, 66, 100
3, 476928, Note_on_c, 1, 54, 70
3, 477500, Note_off_c, 1, 54, 100
3, 477504, Note_on_c, 1, 53, 70
3, 478076, Note_off_c, 1, 53, 100
3, 478080, Note_on_c, 1, 56, 73
3, 478556, Note_off_c, 1, 56, 100
3, 478560, Note_on_c, 1, 61, 75
3, 478652, Note_off_c, 1, 61, 100
3, 478656, Note_on_c, 1, 65, 76
3, 479228, Note_off_c, 1, 65, 100
3, 479232, Note_on_c, 1, 53, 79
3, 479804, Note_off_c, 1, 53, 100
3, 479856, Note_on_c, 1, 51, 82
3, 480288, Note_on_c, 1, 54, 84
3, 480332, Note_off_c, 1, 51, 100
3, 480380, Note_off_c, 1, 54, 100
3, 480384, Note_on_c, 1, 56, 84
3, 480860, Note_off_c, 1, 56, 100
3, 480864, Note_on_c, 1, 60, 87
3, 480956, Note_off_c, 1, 60, 100
3, 480960, Note_on_c, 1, 63, 87
3, 481436, Note_off_c, 1, 63, 100
3, 481440, Note_on_c, 1, 66, 89
3, 481532, Note_off_c, 1, 66, 100
3, 481536, Note_on_c, 1, 68, 90
3, 482012, Note_off_c, 1, 68, 100
3, 482016, Note_on_c, 1, 72, 82
3, 482108, Note_off_c, 1, 72, 100
3, 482112, Note_on_c, 1, 61, 81
3, 482300, Note_off_c, 1, 61, 100
3, 482304, Note_on_c, 1, 73, 80
3, 482304, Note_on_c, 1, 68, 80
3, 482304, Note_on_c, 1, 65, 80
3, 482492, Note_off_c, 1, 73, 100
3, 482492, Note_off_c, 1, 68, 100
3, 482492, Note_off_c, 1, 65, 100
3, 482496, Note_on_c, 1, 61, 80
3, 482684, Note_off_c, 1, 61, 100
3, 482688, Note_on_c, 1, 73, 80
3, 482688, Note_on_c, 1, 68, 80
3, 482688, Note_on_c, 1, 65, 80
3, 482876, Note_off_c, 1, 73, 100
3, 482876, Note_off_c, 1, 68, 100
3, 482876, Note_off_c, 1, 65, 100
3, 482880, Note_on_c, 1, 61, 80
3, 483068, Note_off_c, 1, 61, 100
3, 483072, Note_on_c, 1, 73, 80
3, 483072, Note_on_c, 1, 68, 80
3, 483072, Note_on_c, 1, 65, 80
3, 483260, Note_off_c, 1, 73, 100
3, 483260, Note_off_c, 1, 68, 100
3, 483260, Note_off_c, 1, 65, 100
3, 483264, Note_on_c, 1, 61, 80
3, 483452, Note_off_c, 1, 61, 100
3, 483456, Note_on_c, 1, 73, 80
3, 483456, Note_on_c, 1, 68, 80
3, 483456, Note_on_c, 1, 65, 80
3, 483644, Note_off_c, 1, 73, 100
3, 483644, Note_off_c, 1, 68, 100
3, 483644, Note_off_c, 1, 65, 100
3, 483648, Note_on_c, 1, 61, 80
3, 483836, Note_off_c, 1, 61, 100
3, 483840, Note_on_c, 1, 73, 80
3, 483840, Note_on_c, 1, 68, 80
3, 483840, Note_on_c, 1, 65, 80
3, 484028, Note_off_c, 1, 73, 100
3, 484028, Note_off_c, 1, 68, 100
3, 484028, Note_off_c, 1, 65, 100
3, 484032, Note_on_c, 1, 61, 80
3, 484220, Note_off_c, 1, 61, 100
3, 484224, Note_on_c, 1, 73, 80
3, 484224, Note_on_c, 1, 68, 80
3, 484224, Note_on_c, 1, 65, 80
3, 484412, Note_off_c, 1, 73, 100
3, 484412, Note_off_c, 1, 68, 100
3, 484412, Note_off_c, 1, 65, 100
3, 484416, Note_on_c, 1, 61, 80
3, 484604, Note_off_c, 1, 61, 100
3, 484608, Note_on_c, 1, 73, 80
3, 484608, Note_on_c, 1, 68, 80
3, 484608, Note_on_c, 1, 65, 80
3, 484796, Note_off_c, 1, 73, 100
3, 484796, Note_off_c, 1, 68, 100
3, 484796, Note_off_c, 1, 65, 100
3, 484800, Note_on_c, 1, 61, 80
3, 484988, Note_off_c, 1, 61, 100
3, 484992, Note_on_c, 1, 73, 80
3, 484992, Note_on_c, 1, 68, 80
3, 484992, Note_on_c, 1, 65, 80
3, 485180, Note_off_c, 1, 73, 100
3, 485180, Note_off_c, 1, 68, 100
3, 485180, Note_off_c, 1, 65, 100
3, 485184, Note_on_c, 1, 61, 80
3, 485372, Note_off_c, 1, 61, 100
3, 485376, Note_on_c, 1, 73, 80
3, 485376, Note_on_c, 1, 68, 80
3, 485376, Note_on_c, 1, 65, 80
3, 485564, Note_off_c, 1, 73, 100
3, 485564, Note_off_c, 1, 68, 100
3, 485564, Note_off_c, 1, 65, 100
3, 485568, Note_on_c, 1, 63, 80
3, 485756, Note_off_c, 1, 63, 100
3, 485760, Note_on_c, 1, 75, 80
3, 485760, Note_on_c, 1, 68, 80
3, 485760, Note_on_c, 1, 66, 80
3, 485948, Note_off_c, 1, 75, 100
3, 485948, Note_off_c, 1, 68, 100
3, 485948, Note_off_c, 1, 66, 100
3, 485952, Note_on_c, 1, 63, 80
3, 486140, Note_off_c, 1, 63, 100
3, 486144, Note_on_c, 1, 75, 80
3, 486144, Note_on_c, 1, 68, 80
3, 486144, Note_on_c, 1, 66, 80
3, 486332, Note_off_c, 1, 75, 100
3, 486332, Note_off_c, 1, 68, 100
3, 486332, Note_off_c, 1, 66, 100
3, 486336, Note_on_c, 1, 63, 80
3, 486524, Note_off_c, 1, 63, 100
3, 486528, Note_on_c, 1, 75, 80
3, 486528, Note_on_c, 1, 68, 80
3, 486528, Note_on_c, 1, 66, 80
3, 486716, Note_off_c, 1, 75, 100
3, 486716, Note_off_c, 1, 68, 100
3, 486716, Note_off_c, 1, 66, 100
3, 486720, Note_on_c, 1, 65, 80
3, 486908, Note_off_c, 1, 65, 100
3, 486912, Note_on_c, 1, 77, 80
3, 486912, Note_on_c, 1, 73, 80
3, 486912, Note_on_c, 1, 68, 80
3, 487100, Note_off_c, 1, 77, 100
3, 487100, Note_off_c, 1, 73, 100
3, 487100, Note_off_c, 1, 68, 100
3, 487104, Note_on_c, 1, 65, 80
3, 487292, Note_off_c, 1, 65, 100
3, 487296, Note_on_c, 1, 77, 80
3, 487296, Note_on_c, 1, 73, 80
3, 487296, Note_on_c, 1, 68, 80
3, 487484, Note_off_c, 1, 77, 100
3, 487484, Note_off_c, 1, 73, 100
3, 487484, Note_off_c, 1, 68, 100
3, 487488, Note_on_c, 1, 65, 80
3, 487676, Note_off_c, 1, 65, 100
3, 487680, Note_on_c, 1, 77, 80
3, 487680, Note_on_c, 1, 73, 80
3, 487680, Note_on_c, 1, 68, 80
3, 487868, Note_off_c, 1, 77, 100
3, 487868, Note_off_c, 1, 73, 100
3, 487868, Note_off_c, 1, 68, 100
3, 487872, Note_on_c, 1, 65, 80
3, 488060, Note_off_c, 1, 65, 100
3, 488064, Note_on_c, 1, 77, 80
3, 488064, Note_on_c, 1, 73, 80
3, 488064, Note_on_c, 1, 68, 80
3, 488252, Note_off_c, 1, 77, 100
3, 488252, Note_off_c, 1, 73, 100
3, 488252, Note_off_c, 1, 68, 100
3, 488256, Note_on_c, 1, 65, 80
3, 488444, Note_off_c, 1, 65, 100
3, 488448, Note_on_c, 1, 73, 80
3, 488448, Note_on_c, 1, 68, 80
3, 488636, Note_off_c, 1, 73, 100
3, 488636, Note_off_c, 1, 68, 100
3, 488640, Note_on_c, 1, 65, 80
3, 488828, Note_off_c, 1, 65, 100
3, 488832, Note_on_c, 1, 73, 80
3, 488832, Note_on_c, 1, 68, 80
3, 489020, Note_off_c, 1, 73, 100
3, 489020, Note_off_c, 1, 68, 100
3, 489024, Note_on_c, 1, 65, 80
3, 489212, Note_off_c, 1, 65, 100
3, 489216, Note_on_c, 1, 77, 80
3, 489216, Note_on_c, 1, 73, 80
3, 489216, Note_on_c, 1, 68, 80
3, 489404, Note_off_c, 1, 77, 100
3, 489404, Note_off_c, 1, 73, 100
3, 489404, Note_off_c, 1, 68, 100
3, 489408, Note_on_c, 1, 65, 81
3, 489596, Note_off_c, 1, 65, 100
3, 489600, Note_on_c, 1, 77, 82
3, 489600, Note_on_c, 1, 73, 82
3, 489600, Note_on_c, 1, 68, 82
3, 489788, Note_off_c, 1, 77, 100
3, 489788, Note_off_c, 1, 73, 100
3, 489788, Note_off_c, 1, 68, 100
3, 489792, Note_on_c, 1, 65, 83
3, 489980, Note_off_c, 1, 65, 100
3, 489984, Note_on_c, 1, 77, 84
3, 489984, Note_on_c, 1, 73, 84
3, 489984, Note_on_c, 1, 68, 84
3, 490172, Note_off_c, 1, 77, 100
3, 490172, Note_off_c, 1, 73, 100
3, 490172, Note_off_c, 1, 68, 100
3, 490176, Note_on_c, 1, 66, 85
3, 490364, Note_off_c, 1, 66, 100
3, 490368, Note_on_c, 1, 75, 85
3, 490368, Note_on_c, 1, 72, 85
3, 490368, Note_on_c, 1, 69, 85
3, 490556, Note_off_c, 1, 75, 100
3, 490556, Note_off_c, 1, 72, 100
3, 490556, Note_off_c, 1, 69, 100
3, 490560, Note_on_c, 1, 66, 86
3, 490748, Note_off_c, 1, 66, 100
3, 490752, Note_on_c, 1, 75, 87
3, 490752, Note_on_c, 1, 72, 87
3, 490752, Note_on_c, 1, 69, 87
3, 490940, Note_off_c, 1, 75, 100
3, 490940, Note_off_c, 1, 72, 100
3, 490940, Note_off_c, 1, 69, 100
3, 490944, Note_on_c, 1, 66, 88
3, 491132, Note_off_c, 1, 66, 100
3, 491136, Note_on_c, 1, 75, 89
3, 491136, Note_on_c, 1, 72, 89
3, 491136, Note_on_c, 1, 69, 89
3, 491324, Note_off_c, 1, 75, 100
3, 491324, Note_off_c, 1, 72, 100
3, 491324, Note_off_c, 1, 69, 100
3, 491328, Note_on_c, 1, 65, 90
3, 491516, Note_off_c, 1, 65, 100
3, 491520, Note_on_c, 1, 68, 91
3, 491520, Note_on_c, 1, 71, 91
3, 491520, Note_on_c, 1, 74, 91
3, 491708, Note_off_c, 1, 68, 100
3, 491708, Note_off_c, 1, 71, 100
3, 491708, Note_off_c, 1, 74, 100
3, 491712, Note_on_c, 1, 65, 91
3, 491900, Note_off_c, 1, 65, 100
3, 491904, Note_on_c, 1, 68, 92
3, 491904, Note_on_c, 1, 71, 92
3, 491904, Note_on_c, 1, 74, 92
3, 492092, Note_off_c, 1, 68, 100
3, 492092, Note_off_c, 1, 71, 100
3, 492092, Note_off_c, 1, 74, 100
3, 492096, Note_on_c, 1, 65, 93
3, 492284, Note_off_c, 1, 65, 100
3, 492288, Note_on_c, 1, 68, 94
3, 492288, Note_on_c, 1, 71, 94
3, 492288, Note_on_c, 1, 74, 94
3, 492476, Note_off_c, 1, 68, 100
3, 492476, Note_off_c, 1, 71, 100
3, 492476, Note_off_c, 1, 74, 100
3, 492480, Note_on_c, 1, 65, 95
3, 492668, Note_off_c, 1, 65, 100
3, 492672, Note_on_c, 1, 68, 96
3, 492672, Note_on_c, 1, 71, 96
3, 492672, Note_on_c, 1, 74, 96
3, 492860, Note_off_c, 1, 68, 100
3, 492860, Note_off_c, 1, 71, 100
3, 492860, Note_off_c, 1, 74, 100
3, 492864, Note_on_c, 1, 65, 97
3, 493052, Note_off_c, 1, 65, 100
3, 493056, Note_on_c, 1, 68, 97
3, 493056, Note_on_c, 1, 71, 97
3, 493056, Note_on_c, 1, 74, 97
3, 493244, Note_off_c, 1, 68, 100
3, 493244, Note_off_c, 1, 71, 100
3, 493244, Note_off_c, 1, 74, 100
3, 493248, Note_on_c, 1, 65, 98
3, 493436, Note_off_c, 1, 65, 100
3, 493440, Note_on_c, 1, 68, 99
3, 493440, Note_on_c, 1, 71, 99
3, 493440, Note_on_c, 1, 74, 99
3, 493628, Note_off_c, 1, 68, 100
3, 493628, Note_off_c, 1, 71, 100
3, 493628, Note_off_c, 1, 74, 100
3, 493632, Note_on_c, 1, 64, 100
3, 493820, Note_off_c, 1, 64, 100
3, 493824, Note_on_c, 1, 67, 100
3, 493824, Note_on_c, 1, 72, 100
3, 493824, Note_on_c, 1, 76, 100
3, 494012, Note_off_c, 1, 67, 100
3, 494012, Note_off_c, 1, 72, 100
3, 494012, Note_off_c, 1, 76, 100
3, 494016, Note_on_c, 1, 64, 100
3, 494204, Note_off_c, 1, 64, 100
3, 494208, Note_on_c, 1, 67, 100
3, 494208, Note_on_c, 1, 72, 100
3, 494208, Note_on_c, 1, 76, 100
3, 494396, Note_off_c, 1, 67, 100
3, 494396, Note_off_c, 1, 72, 100
3, 494396, Note_off_c, 1, 76, 100
3, 494400, Note_on_c, 1, 64, 101
3, 494588, Note_off_c, 1, 64, 100
3, 494592, Note_on_c, 1, 67, 101
3, 494592, Note_on_c, 1, 72, 101
3, 494592, Note_on_c, 1, 76, 101
3, 494780, Note_off_c, 1, 67, 100
3, 494780, Note_off_c, 1, 72, 100
3, 494780, Note_off_c, 1, 76, 100
3, 494784, Note_on_c, 1, 64, 101
3, 494972, Note_off_c, 1, 64, 100
3, 494976, Note_on_c, 1, 67, 101
3, 494976, Note_on_c, 1, 72, 101
3, 494976, Note_on_c, 1, 76, 101
3, 495164, Note_off_c, 1, 67, 100
3, 495164, Note_off_c, 1, 72, 100
3, 495164, Note_off_c, 1, 76, 100
3, 495168, Note_on_c, 1, 64, 102
3, 495356, Note_off_c, 1, 64, 100
3, 495360, Note_on_c, 1, 67, 102
3, 495360, Note_on_c, 1, 72, 102
3, 495360, Note_on_c, 1, 76, 102
3, 495548, Note_off_c, 1, 67, 100
3, 495548, Note_off_c, 1, 72, 100
3, 495548, Note_off_c, 1, 76, 100
3, 495552, Note_on_c, 1, 64, 102
3, 495740, Note_off_c, 1, 64, 100
3, 495744, Note_on_c, 1, 67, 103
3, 495744, Note_on_c, 1, 72, 103
3, 495744, Note_on_c, 1, 76, 103
3, 495932, Note_off_c, 1, 67, 100
3, 495932, Note_off_c, 1, 72, 100
3, 495932, Note_off_c, 1, 76, 100
3, 495936, Note_on_c, 1, 58, 103
3, 496124, Note_off_c, 1, 58, 100
3, 496128, Note_on_c, 1, 61, 103
3, 496128, Note_on_c, 1, 64, 103
3, 496128, Note_on_c, 1, 67, 103
3, 496316, Note_off_c, 1, 61, 100
3, 496316, Note_off_c, 1, 64, 100
3, 496316, Note_off_c, 1, 67, 100
3, 496320, Note_on_c, 1, 58, 103
3, 496508, Note_off_c, 1, 58, 100
3, 496512, Note_on_c, 1, 61, 104
3, 496512, Note_on_c, 1, 64, 104
3, 496512, Note_on_c, 1, 67, 104
3, 496700, Note_off_c, 1, 61, 100
3, 496700, Note_off_c, 1, 64, 100
3, 496700, Note_off_c, 1, 67, 100
3, 496704, Note_on_c, 1, 58, 104
3, 496892, Note_off_c, 1, 58, 100
3, 496896, Note_on_c, 1, 61, 104
3, 496896, Note_on_c, 1, 64, 104
3, 496896, Note_on_c, 1, 67, 104
3, 497084, Note_off_c, 1, 61, 100
3, 497084, Note_off_c, 1, 64, 100
3, 497084, Note_off_c, 1, 67, 100
3, 497088, Note_on_c, 1, 58, 105
3, 497276, Note_off_c, 1, 58, 100
3, 497280, Note_on_c, 1, 61, 105
3, 497280, Note_on_c, 1, 64, 105
3, 497280, Note_on_c, 1, 67, 105
3, 497468, Note_off_c, 1, 61, 100
3, 497468, Note_off_c, 1, 64, 100
3, 497468, Note_off_c, 1, 67, 100
3, 497472, Note_on_c, 1, 58, 105
3, 497660, Note_off_c, 1, 58, 100
3, 497664, Note_on_c, 1, 61, 105
3, 497664, Note_on_c, 1, 64, 105
3, 497664, Note_on_c, 1, 67, 105
3, 497852, Note_off_c, 1, 61, 100
3, 497852, Note_off_c, 1, 64, 100
3, 497852, Note_off_c, 1, 67, 100
3, 497856, Note_on_c, 1, 58, 106
3, 498044, Note_off_c, 1, 58, 100
3, 498048, Note_on_c, 1, 61, 106
3, 498048, Note_on_c, 1, 64, 106
3, 498048, Note_on_c, 1, 67, 106
3, 498236, Note_off_c, 1, 61, 100
3, 498236, Note_off_c, 1, 64, 100
3, 498236, Note_off_c, 1, 67, 100
3, 498240, Note_on_c, 1, 56, 106
3, 498428, Note_off_c, 1, 56, 100
3, 498432, Note_on_c, 1, 68, 107
3, 498432, Note_on_c, 1, 65, 107
3, 498432, Note_on_c, 1, 60, 107
3, 498620, Note_off_c, 1, 68, 100
3, 498620, Note_off_c, 1, 65, 100
3, 498620, Note_off_c, 1, 60, 100
3, 498624, Note_on_c, 1, 56, 107
3, 498812, Note_off_c, 1, 56, 100
3, 498816, Note_on_c, 1, 68, 107
3, 498816, Note_on_c, 1, 65, 107
3, 498816, Note_on_c, 1, 60, 107
3, 499004, Note_off_c, 1, 68, 100
3, 499004, Note_off_c, 1, 65, 100
3, 499004, Note_off_c, 1, 60, 100
3, 499008, Note_on_c, 1, 56, 107
3, 499196, Note_off_c, 1, 56, 100
3, 499200, Note_on_c, 1, 68, 108
3, 499200, Note_on_c, 1, 65, 108
3, 499200, Note_on_c, 1, 60, 108
3, 499388, Note_off_c, 1, 68, 100
3, 499388, Note_off_c, 1, 65, 100
3, 499388, Note_off_c, 1, 60, 100
3, 499392, Note_on_c, 1, 56, 108
3, 499580, Note_off_c, 1, 56, 100
3, 499584, Note_on_c, 1, 68, 108
3, 499584, Note_on_c, 1, 65, 108
3, 499584, Note_on_c, 1, 60, 108
3, 499772, Note_off_c, 1, 68, 100
3, 499772, Note_off_c, 1, 65, 100
3, 499772, Note_off_c, 1, 60, 100
3, 499776, Note_on_c, 1, 56, 109
3, 499964, Note_off_c, 1, 56, 100
3, 499968, Note_on_c, 1, 68, 109
3, 499968, Note_on_c, 1, 65, 109
3, 499968, Note_on_c, 1, 60, 109
3, 500156, Note_off_c, 1, 68, 100
3, 500156, Note_off_c, 1, 65, 100
3, 500156, Note_off_c, 1, 60, 100
3, 500160, Note_on_c, 1, 56, 109
3, 500348, Note_off_c, 1, 56, 100
3, 500352, Note_on_c, 1, 68, 109
3, 500352, Note_on_c, 1, 65, 109
3, 500352, Note_on_c, 1, 60, 109
3, 500540, Note_off_c, 1, 68, 100
3, 500540, Note_off_c, 1, 65, 100
3, 500540, Note_off_c, 1, 60, 100
3, 500544, Control_c, 1, 64, 127
3, 500544, Note_on_c, 1, 46, 120
3, 500544, Note_on_c, 1, 34, 120
3, 500928, Note_on_c, 1, 49, 120
3, 501024, Note_on_c, 1, 54, 120
3, 501116, Note_off_c, 1, 46, 100
3, 501116, Note_off_c, 1, 34, 100
3, 501120, Note_on_c, 1, 58, 120
3, 501404, Note_off_c, 1, 49, 100
3, 501500, Note_off_c, 1, 54, 100
3, 501504, Note_on_c, 1, 54, 120
3, 501596, Note_off_c, 1, 58, 100
3, 501600, Note_on_c, 1, 58, 120
3, 501696, Note_on_c, 1, 61, 120
3, 501980, Note_off_c, 1, 54, 100
3, 502076, Note_off_c, 1, 58, 100
3, 502080, Note_on_c, 1, 58, 120
3, 502172, Note_off_c, 1, 61, 100
3, 502176, Note_on_c, 1, 61, 120
3, 502272, Note_on_c, 1, 66, 120
3, 502556, Note_off_c, 1, 58, 100
3, 502652, Note_off_c, 1, 61, 100
3, 502656, Note_on_c, 1, 61, 120
3, 502748, Note_off_c, 1, 66, 100
3, 502752, Note_on_c, 1, 66, 120
3, 502848, Note_on_c, 1, 70, 120
3, 503132, Note_off_c, 1, 61, 100
3, 503228, Note_off_c, 1, 66, 100
3, 503232, Note_on_c, 1, 66, 120
3, 503324, Note_off_c, 1, 70, 100
3, 503328, Note_on_c, 1, 70, 120
3, 503424, Note_on_c, 1, 73, 120
3, 503708, Note_off_c, 1, 66, 100
3, 503804, Note_off_c, 1, 70, 100
3, 503808, Note_on_c, 1, 70, 120
3, 503900, Note_off_c, 1, 73, 100
3, 503904, Note_on_c, 1, 73, 120
3, 504000, Note_on_c, 1, 78, 120
3, 504284, Note_off_c, 1, 70, 100
3, 504380, Note_off_c, 1, 73, 100
3, 504384, Note_on_c, 1, 73, 120
3, 504476, Note_off_c, 1, 78, 100
3, 504480, Note_on_c, 1, 78, 120
3, 504576, Note_on_c, 1, 82, 120
3, 504860, Note_off_c, 1, 73, 100
3, 504956, Note_off_c, 1, 78, 100
3, 505052, Note_off_c, 1, 82, 100
3, 505144, Control_c, 1, 64, 0
3, 505152, Control_c, 1, 64, 127
3, 505152, Note_on_c, 1, 51, 120
3, 505152, Note_on_c, 1, 39, 120
3, 505536, Note_on_c, 1, 51, 120
3, 505632, Note_on_c, 1, 57, 120
3, 505724, Note_off_c, 1, 51, 100
3, 505724, Note_off_c, 1, 39, 100
3, 505728, Note_on_c, 1, 60, 120
3, 506012, Note_off_c, 1, 51, 100
3, 506108, Note_off_c, 1, 57, 100
3, 506112, Note_on_c, 1, 57, 120
3, 506204, Note_off_c, 1, 60, 100
3, 506208, Note_on_c, 1, 60, 120
3, 506304, Note_on_c, 1, 63, 120
3, 506588, Note_off_c, 1, 57, 100
3, 506684, Note_off_c, 1, 60, 100
3, 506688, Note_on_c, 1, 60, 120
3, 506780, Note_off_c, 1, 63, 100
3, 506784, Note_on_c, 1, 63, 120
3, 506880, Note_on_c, 1, 69, 120
3, 507164, Note_off_c, 1, 60, 100
3, 507260, Note_off_c, 1, 63, 100
3, 507264, Note_on_c, 1, 63, 120
3, 507356, Note_off_c, 1, 69, 100
3, 507360, Note_on_c, 1, 69, 120
3, 507456, Note_on_c, 1, 72, 120
3, 507740, Note_off_c, 1, 63, 100
3, 507836, Note_off_c, 1, 69, 100
3, 507840, Note_on_c, 1, 69, 120
3, 507932, Note_off_c, 1, 72, 100
3, 507936, Note_on_c, 1, 72, 120
3, 508032, Note_on_c, 1, 75, 120
3, 508316, Note_off_c, 1, 69, 100
3, 508412, Note_off_c, 1, 72, 100
3, 508416, Note_on_c, 1, 72, 120
3, 508508, Note_off_c, 1, 75, 100
3, 508512, Note_on_c, 1, 75, 120
3, 508608, Note_on_c, 1, 81, 120
3, 508892, Note_off_c, 1, 72, 100
3, 508988, Note_off_c, 1, 75, 100
3, 508992, Note_on_c, 1, 75, 120
3, 509084, Note_off_c, 1, 81, 100
3, 509088, Note_on_c, 1, 81, 120
3, 509184, Note_on_c, 1, 84, 120
3, 509468, Note_off_c, 1, 75, 100
3, 509564, Note_off_c, 1, 81, 100
3, 509660, Note_off_c, 1, 84, 100
3, 509752, Control_c, 1, 64, 0
3, 509760, Control_c, 1, 64, 127
3, 509760, Note_on_c, 1, 49, 120
3, 509760, Note_on_c, 1, 37, 120
3, 510144, Note_on_c, 1, 53, 120
3, 510240, Note_on_c, 1, 58, 120
3, 510332, Note_off_c, 1, 49, 100
3, 510332, Note_off_c, 1, 37, 100
3, 510336, Note_on_c, 1, 61, 120
3, 510620, Note_off_c, 1, 53, 100
3, 510716, Note_off_c, 1, 58, 100
3, 510812, Note_off_c, 1, 61, 100
3, 510904, Control_c, 1, 64, 0
3, 510912, Control_c, 1, 64, 127
3, 510912, Note_on_c, 1, 52, 120
3, 510912, Note_on_c, 1, 40, 120
3, 511296, Note_on_c, 1, 55, 120
3, 511392, Note_on_c, 1, 60, 120
3, 511484, Note_off_c, 1, 52, 100
3, 511484, Note_off_c, 1, 40, 100
3, 511488, Note_on_c, 1, 64, 120
3, 511772, Note_off_c, 1, 55, 100
3, 511868, Note_off_c, 1, 60, 100
3, 511964, Note_off_c, 1, 64, 100
3, 512056, Control_c, 1, 64, 0
3, 512064, Control_c, 1, 64, 127
3, 512064, Note_on_c, 1, 53, 120
3, 512064, Note_on_c, 1, 41, 120
3, 512448, Note_on_c, 1, 56, 120
3, 512544, Note_on_c, 1, 61, 120
3, 512636, Note_off_c, 1, 53, 100
3, 512636, Note_off_c, 1, 41, 100
3, 512640, Note_on_c, 1, 65, 120
3, 512924, Note_off_c, 1, 56, 100
3, 513020, Note_off_c, 1, 61, 100
3, 513116, Note_off_c, 1, 65, 100
3, 513208, Control_c, 1, 64, 0
3, 513216, Control_c, 1, 64, 127
3, 513216, Note_on_c, 1, 55, 120
3, 513216, Note_on_c, 1, 43, 120
3, 513600, Note_on_c, 1, 58, 120
3, 513696, Note_on_c, 1, 64, 120
3, 513788, Note_off_c, 1, 55, 100
3, 513788, Note_off_c, 1, 43, 100
3, 513792, Note_on_c, 1, 67, 120
3, 514076, Note_off_c, 1, 58, 100
3, 514172, Note_off_c, 1, 64, 100
3, 514268, Note_off_c, 1, 67, 100
3, 514360, Control_c, 1, 64, 0
3, 514368, Note_on_c, 1, 44, 120
3, 514752, Note_on_c, 1, 56, 120
3, 514844, Note_off_c, 1, 44, 100
3, 514848, Note_on_c, 1, 60, 120
3, 514944, Note_on_c, 1, 46, 120
3, 515228, Note_off_c, 1, 56, 100
3, 515324, Note_off_c, 1, 60, 100
3, 515328, Note_on_c, 1, 58, 120
3, 515420, Note_off_c, 1, 46, 100
3, 515424, Note_on_c, 1, 61, 120
3, 515520, Note_on_c, 1, 48, 120
3, 515804, Note_off_c, 1, 58, 100
3, 515900, Note_off_c, 1, 61, 100
3, 515904, Note_on_c, 1, 60, 120
3, 515996, Note_off_c, 1, 48, 100
3, 516000, Note_on_c, 1, 63, 120
3, 516096, Note_on_c, 1, 49, 120
3, 516380, Note_off_c, 1, 60, 100
3, 516476, Note_off_c, 1, 63, 100
3, 516480, Note_on_c, 1, 61, 120
3, 516572, Note_off_c, 1, 49, 100
3, 516576, Note_on_c, 1, 65, 120
3, 516672, Note_on_c, 1, 52, 120
3, 516956, Note_off_c, 1, 61, 100
3, 517052, Note_off_c, 1, 65, 100
3, 517056, Note_on_c, 1, 64, 120
3, 517148, Note_off_c, 1, 52, 100
3, 517152, Note_on_c, 1, 67, 120
3, 517248, Note_on_c, 1, 53, 120
3, 517532, Note_off_c, 1, 64, 100
3, 517628, Note_off_c, 1, 67, 100
3, 517632, Note_on_c, 1, 65, 120
3, 517724, Note_off_c, 1, 53, 100
3, 517728, Note_on_c, 1, 68, 120
3, 517824, Note_on_c, 1, 55, 120
3, 518108, Note_off_c, 1, 65, 100
3, 518204, Note_off_c, 1, 68, 100
3, 518208, Note_on_c, 1, 67, 120
3, 518300, Note_off_c, 1, 55, 100
3, 518304, Note_on_c, 1, 70, 120
3, 518400, Note_on_c, 1, 56, 120
3, 518684, Note_off_c, 1, 67, 100
3, 518780, Note_off_c, 1, 70, 100
3, 518784, Note_on_c, 1, 68, 120
3, 518876, Note_off_c, 1, 56, 100
3, 518880, Note_on_c, 1, 72, 120
3, 518976, Note_on_c, 1, 58, 120
3, 519260, Note_off_c, 1, 68, 100
3, 519356, Note_off_c, 1, 72, 100
3, 519360, Note_on_c, 1, 70, 120
3, 519452, Note_off_c, 1, 58, 100
3, 519456, Note_on_c, 1, 73, 120
3, 519552, Note_on_c, 1, 60, 120
3, 519836, Note_off_c, 1, 70, 100
3, 519932, Note_off_c, 1, 73, 100
3, 519936, Note_on_c, 1, 72, 120
3, 520028, Note_off_c, 1, 60, 100
3, 520032, Note_on_c, 1, 75, 120
3, 520128, Note_on_c, 1, 61, 120
3, 520412, Note_off_c, 1, 72, 100
3, 520508, Note_off_c, 1, 75, 100
3, 520512, Note_on_c, 1, 73, 120
3, 520604, Note_off_c, 1, 61, 100
3, 520608, Note_on_c, 1, 77, 120
3, 520704, Note_on_c, 1, 61, 120
3, 520988, Note_off_c, 1, 73, 100
3, 521084, Note_off_c, 1, 77, 100
3, 521088, Note_on_c, 1, 73, 120
3, 521180, Note_off_c, 1, 61, 100
3, 521184, Note_on_c, 1, 77, 120
3, 521276, Note_off_c, 1, 73, 100
3, 521276, Note_off_c, 1, 77, 100
3, 521280, Control_c, 1, 64, 127
3, 521280, Note_on_c, 1, 61, 120
3, 521376, Note_on_c, 1, 73, 120
3, 521472, Note_on_c, 1, 77, 120
3, 522908, Note_off_c, 1, 61, 100
3, 523004, Note_off_c, 1, 73, 100
3, 523100, Note_off_c, 1, 77, 100
3, 523584, Note_on_c, 1, 53, 120
3, 523680, Note_on_c, 1, 49, 120
3, 523772, Note_off_c, 1, 53, 100
3, 523776, Note_on_c, 1, 46, 120
3, 523868, Note_off_c, 1, 49, 100
3, 523872, Note_on_c, 1, 49, 120
3, 523968, Note_on_c, 1, 53, 120
3, 524064, Note_on_c, 1, 58, 120
3, 524156, Note_off_c, 1, 46, 100
3, 524156, Note_off_c, 1, 49, 100
3, 524252, Note_off_c, 1, 53, 100
3, 525692, Note_off_c, 1, 58, 100
3, 525880, Control_c, 1, 64, 0
3, 525888, Control_c, 1, 64, 127
3, 525888, Note_on_c, 1, 62, 120
3, 525984, Note_on_c, 1, 74, 120
3, 526080, Note_on_c, 1, 77, 120
3, 527516, Note_off_c, 1, 62, 100
3, 527612, Note_off_c, 1, 74, 100
3, 527708, Note_off_c, 1, 77, 100
3, 528768, Note_on_c, 1, 50, 120
3, 528864, Note_on_c, 1, 47, 120
3, 528956, Note_off_c, 1, 50, 64
3, 528960, Note_on_c, 1, 50, 120
3, 529056, Note_on_c, 1, 53, 120
3, 529148, Note_off_c, 1, 47, 64
3, 529152, Note_on_c, 1, 56, 120
3, 529244, Note_off_c, 1, 50, 64
3, 529248, Note_on_c, 1, 59, 120
3, 529340, Note_off_c, 1, 53, 64
3, 529436, Note_off_c, 1, 56, 64
3, 529532, Note_off_c, 1, 59, 64
3, 530488, Control_c, 1, 64, 0
3, 530496, Control_c, 1, 64, 127
3, 530496, Note_on_c, 1, 36, 120
3, 532220, Note_off_c, 1, 36, 100
3, 532800, Note_on_c, 1, 56, 120
3, 532896, Note_on_c, 1, 53, 120
3, 532992, Note_on_c, 1, 48, 120
3, 533088, Note_on_c, 1, 44, 120
3, 533184, Note_on_c, 1, 41, 120
3, 533280, Note_on_c, 1, 36, 120
3, 534428, Note_off_c, 1, 56, 100
3, 534524, Note_off_c, 1, 53, 100
3, 534620, Note_off_c, 1, 48, 100
3, 534716, Note_off_c, 1, 44, 100
3, 534812, Note_off_c, 1, 41, 100
3, 534908, Note_off_c, 1, 36, 100
3, 535096, Control_c, 1, 64, 0
3, 535104, Control_c, 1, 64, 127
3, 535104, Note_on_c, 1, 36, 120
3, 535200, Note_on_c, 1, 48, 120
3, 535296, Note_on_c, 1, 52, 120
3, 535392, Note_on_c, 1, 55, 120
3, 535488, Note_on_c, 1, 58, 120
3, 536828, Note_off_c, 1, 36, 64
3, 536828, Note_off_c, 1, 48, 100
3, 536828, Note_off_c, 1, 52, 64
3, 536828, Note_off_c, 1, 55, 64
3, 536828, Note_off_c, 1, 58, 64
3, 536832, Note_on_c, 1, 55, 120
3, 536928, Note_on_c, 1, 52, 120
3, 537024, Note_on_c, 1, 48, 120
3, 537120, Note_on_c, 1, 46, 120
3, 537216, Note_on_c, 1, 43, 120
3, 537312, Note_on_c, 1, 40, 120
3, 538460, Note_off_c, 1, 55, 100
3, 538556, Note_off_c, 1, 52, 100
3, 538652, Note_off_c, 1, 48, 100
3, 538748, Note_off_c, 1, 46, 100
3, 538844, Note_off_c, 1, 43, 100
3, 538940, Note_off_c, 1, 40, 100
3, 539704, Control_c, 1, 64, 0
3, 540288, Note_on_c, 1, 49, 80
3, 540476, Note_off_c, 1, 49, 100
3, 540480, Note_on_c, 1, 49, 80
3, 540668, Note_off_c, 1, 49, 100
3, 540672, Note_on_c, 1, 49, 80
3, 540864, Note_on_c, 1, 48, 80
3, 542012, Note_off_c, 1, 48, 100
3, 542592, Note_on_c, 1, 49, 80
3, 542780, Note_off_c, 1, 49, 100
3, 542780, Note_off_c, 1, 49, 100
3, 542784, Note_on_c, 1, 49, 80
3, 542972, Note_off_c, 1, 49, 100
3, 542976, Note_on_c, 1, 49, 80
3, 543168, Note_on_c, 1, 48, 80
3, 543548, Note_off_c, 1, 49, 100
3, 544316, Note_off_c, 1, 48, 100
3, 544896, Note_on_c, 1, 37, 80
3, 545084, Note_off_c, 1, 37, 100
3, 545088, Note_on_c, 1, 37, 80
3, 545276, Note_off_c, 1, 37, 100
3, 545280, Note_on_c, 1, 37, 80
3, 545468, Note_off_c, 1, 37, 100
3, 545472, Note_on_c, 1, 36, 80
3, 545852, Note_off_c, 1, 36, 100
3, 546048, Note_on_c, 1, 37, 80
3, 546236, Note_off_c, 1, 37, 100
3, 546240, Note_on_c, 1, 37, 80
3, 546428, Note_off_c, 1, 37, 100
3, 546432, Note_on_c, 1, 37, 80
3, 546620, Note_off_c, 1, 37, 100
3, 546624, Note_on_c, 1, 36, 80
3, 547004, Note_off_c, 1, 36, 100
3, 547200, Note_on_c, 1, 37, 80
3, 547388, Note_off_c, 1, 37, 100
3, 547392, Note_on_c, 1, 37, 80
3, 547580, Note_off_c, 1, 37, 100
3, 547584, Note_on_c, 1, 37, 80
3, 547772, Note_off_c, 1, 37, 100
3, 547776, Note_on_c, 1, 36, 80
3, 549500, Note_off_c, 1, 36, 100
3, 549504, Note_on_c, 1, 48, 127
3, 549504, Note_on_c, 1, 36, 127
3, 549692, Note_off_c, 1, 48, 100
3, 549692, Note_off_c, 1, 36, 100
3, 549696, Note_on_c, 1, 48, 127
3, 549696, Note_on_c, 1, 36, 127
3, 549884, Note_off_c, 1, 48, 100
3, 549884, Note_off_c, 1, 36, 100
3, 549888, Note_on_c, 1, 48, 127
3, 549888, Note_on_c, 1, 36, 127
3, 550076, Note_off_c, 1, 48, 100
3, 550076, Note_off_c, 1, 36, 100
3, 550080, Note_on_c, 1, 41, 127
3, 550080, Note_on_c, 1, 29, 127
3, 550268, Note_off_c, 1, 41, 100
3, 550268, Note_off_c, 1, 29, 100
3, 550272, Note_on_c, 1, 65, 80
3, 550272, Note_on_c, 1, 60, 80
3, 550460, Note_off_c, 1, 65, 100
3, 550460, Note_off_c, 1, 60, 100
3, 550464, Note_on_c, 1, 56, 80
3, 550652, Note_off_c, 1, 56, 100
3, 550656, Note_on_c, 1, 65, 80
3, 550656, Note_on_c, 1, 60, 80
3, 550844, Note_off_c, 1, 65, 100
3, 550844, Note_off_c, 1, 60, 100
3, 550848, Note_on_c, 1, 56, 80
3, 551036, Note_off_c, 1, 56, 100
3, 551040, Note_on_c, 1, 65, 80
3, 551040, Note_on_c, 1, 60, 80
3, 551228, Note_off_c, 1, 65, 100
3, 551228, Note_off_c, 1, 60, 100
3, 551232, Note_on_c, 1, 56, 80
3, 551420, Note_off_c, 1, 56, 100
3, 551424, Note_on_c, 1, 65, 80
3, 551424, Note_on_c, 1, 60, 80
3, 551612, Note_off_c, 1, 65, 100
3, 551612, Note_off_c, 1, 60, 100
3, 551616, Note_on_c, 1, 56, 80
3, 551804, Note_off_c, 1, 56, 100
3, 551808, Note_on_c, 1, 65, 80
3, 551808, Note_on_c, 1, 60, 80
3, 551996, Note_off_c, 1, 65, 100
3, 551996, Note_off_c, 1, 60, 100
3, 552000, Note_on_c, 1, 56, 80
3, 552188, Note_off_c, 1, 56, 100
3, 552192, Note_on_c, 1, 65, 80
3, 552192, Note_on_c, 1, 60, 80
3, 552380, Note_off_c, 1, 65, 100
3, 552380, Note_off_c, 1, 60, 100
3, 552384, Note_on_c, 1, 56, 80
3, 552572, Note_off_c, 1, 56, 100
3, 552576, Note_on_c, 1, 65, 80
3, 552576, Note_on_c, 1, 60, 80
3, 552764, Note_off_c, 1, 65, 100
3, 552764, Note_off_c, 1, 60, 100
3, 552768, Note_on_c, 1, 56, 80
3, 552956, Note_off_c, 1, 56, 100
3, 552960, Note_on_c, 1, 65, 80
3, 552960, Note_on_c, 1, 60, 80
3, 553148, Note_off_c, 1, 65, 100
3, 553148, Note_off_c, 1, 60, 100
3, 553152, Note_on_c, 1, 56, 80
3, 553340, Note_off_c, 1, 56, 100
3, 553344, Note_on_c, 1, 65, 80
3, 553344, Note_on_c, 1, 60, 80
3, 553532, Note_off_c, 1, 65, 100
3, 553532, Note_off_c, 1, 60, 100
3, 553536, Note_on_c, 1, 58, 80
3, 553724, Note_off_c, 1, 58, 100
3, 553728, Note_on_c, 1, 67, 80
3, 553728, Note_on_c, 1, 60, 80
3, 553916, Note_off_c, 1, 67, 100
3, 553916, Note_off_c, 1, 60, 100
3, 553920, Note_on_c, 1, 58, 80
3, 554108, Note_off_c, 1, 58, 100
3, 554112, Note_on_c, 1, 67, 80
3, 554112, Note_on_c, 1, 60, 80
3, 554300, Note_off_c, 1, 67, 100
3, 554300, Note_off_c, 1, 60, 100
3, 554304, Note_on_c, 1, 58, 80
3, 554492, Note_off_c, 1, 58, 100
3, 554496, Note_on_c, 1, 67, 80
3, 554496, Note_on_c, 1, 60, 80
3, 554684, Note_off_c, 1, 67, 100
3, 554684, Note_off_c, 1, 60, 100
3, 554688, Note_on_c, 1, 56, 80
3, 554876, Note_off_c, 1, 56, 100
3, 554880, Note_on_c, 1, 60, 80
3, 554880, Note_on_c, 1, 65, 80
3, 555068, Note_off_c, 1, 60, 100
3, 555068, Note_off_c, 1, 65, 100
3, 555072, Note_on_c, 1, 56, 80
3, 555260, Note_off_c, 1, 56, 100
3, 555264, Note_on_c, 1, 60, 80
3, 555264, Note_on_c, 1, 65, 80
3, 555452, Note_off_c, 1, 60, 100
3, 555452, Note_off_c, 1, 65, 100
3, 555456, Note_on_c, 1, 56, 80
3, 555644, Note_off_c, 1, 56, 100
3, 555648, Note_on_c, 1, 60, 80
3, 555648, Note_on_c, 1, 65, 80
3, 555836, Note_off_c, 1, 60, 100
3, 555836, Note_off_c, 1, 65, 100
3, 555840, Note_on_c, 1, 56, 80
3, 556028, Note_off_c, 1, 56, 100
3, 556032, Note_on_c, 1, 60, 80
3, 556032, Note_on_c, 1, 65, 80
3, 556220, Note_off_c, 1, 60, 100
3, 556220, Note_off_c, 1, 65, 100
3, 556224, Note_on_c, 1, 56, 80
3, 556412, Note_off_c, 1, 56, 100
3, 556416, Note_on_c, 1, 60, 80
3, 556416, Note_on_c, 1, 65, 80
3, 556604, Note_off_c, 1, 60, 100
3, 556604, Note_off_c, 1, 65, 100
3, 556608, Note_on_c, 1, 56, 80
3, 556796, Note_off_c, 1, 56, 100
3, 556800, Note_on_c, 1, 60, 80
3, 556800, Note_on_c, 1, 65, 80
3, 556988, Note_off_c, 1, 60, 100
3, 556988, Note_off_c, 1, 65, 100
3, 556992, Note_on_c, 1, 56, 80
3, 557180, Note_off_c, 1, 56, 100
3, 557184, Note_on_c, 1, 60, 80
3, 557184, Note_on_c, 1, 65, 80
3, 557184, Note_on_c, 1, 68, 80
3, 557372, Note_off_c, 1, 60, 100
3, 557372, Note_off_c, 1, 65, 100
3, 557372, Note_off_c, 1, 68, 100
3, 557376, Note_on_c, 1, 56, 81
3, 557564, Note_off_c, 1, 56, 100
3, 557568, Note_on_c, 1, 60, 82
3, 557568, Note_on_c, 1, 65, 82
3, 557568, Note_on_c, 1, 68, 82
3, 557756, Note_off_c, 1, 60, 100
3, 557756, Note_off_c, 1, 65, 100
3, 557756, Note_off_c, 1, 68, 100
3, 557760, Note_on_c, 1, 56, 83
3, 557948, Note_off_c, 1, 56, 100
3, 557952, Note_on_c, 1, 60, 84
3, 557952, Note_on_c, 1, 65, 84
3, 557952, Note_on_c, 1, 68, 84
3, 558140, Note_off_c, 1, 60, 100
3, 558140, Note_off_c, 1, 65, 100
3, 558140, Note_off_c, 1, 68, 100
3, 558144, Note_on_c, 1, 58, 85
3, 558332, Note_off_c, 1, 58, 100
3, 558336, Note_on_c, 1, 60, 85
3, 558336, Note_on_c, 1, 64, 85
3, 558336, Note_on_c, 1, 67, 85
3, 558524, Note_off_c, 1, 60, 100
3, 558524, Note_off_c, 1, 64, 100
3, 558524, Note_off_c, 1, 67, 100
3, 558528, Note_on_c, 1, 58, 86
3, 558716, Note_off_c, 1, 58, 100
3, 558720, Note_on_c, 1, 60, 87
3, 558720, Note_on_c, 1, 64, 87
3, 558720, Note_on_c, 1, 67, 87
3, 558908, Note_off_c, 1, 60, 100
3, 558908, Note_off_c, 1, 64, 100
3, 558908, Note_off_c, 1, 67, 100
3, 558912, Note_on_c, 1, 58, 88
3, 559100, Note_off_c, 1, 58, 100
3, 559104, Note_on_c, 1, 60, 89
3, 559104, Note_on_c, 1, 64, 89
3, 559104, Note_on_c, 1, 67, 89
3, 559292, Note_off_c, 1, 60, 100
3, 559292, Note_off_c, 1, 64, 100
3, 559292, Note_off_c, 1, 67, 100
3, 559296, Note_on_c, 1, 57, 90
3, 559484, Note_off_c, 1, 57, 100
3, 559488, Note_on_c, 1, 63, 91
3, 559488, Note_on_c, 1, 66, 91
3, 559488, Note_on_c, 1, 60, 91
3, 559676, Note_off_c, 1, 63, 100
3, 559676, Note_off_c, 1, 66, 100
3, 559676, Note_off_c, 1, 60, 100
3, 559680, Note_on_c, 1, 57, 91
3, 559868, Note_off_c, 1, 57, 100
3, 559872, Note_on_c, 1, 63, 92
3, 559872, Note_on_c, 1, 66, 92
3, 559872, Note_on_c, 1, 60, 92
3, 560060, Note_off_c, 1, 63, 100
3, 560060, Note_off_c, 1, 66, 100
3, 560060, Note_off_c, 1, 60, 100
3, 560064, Note_on_c, 1, 57, 93
3, 560252, Note_off_c, 1, 57, 100
3, 560256, Note_on_c, 1, 63, 94
3, 560256, Note_on_c, 1, 66, 94
3, 560256, Note_on_c, 1, 60, 94
3, 560444, Note_off_c, 1, 63, 100
3, 560444, Note_off_c, 1, 66, 100
3, 560444, Note_off_c, 1, 60, 100
3, 560448, Note_on_c, 1, 57, 95
3, 560636, Note_off_c, 1, 57, 100
3, 560640, Note_on_c, 1, 63, 96
3, 560640, Note_on_c, 1, 66, 96
3, 560640, Note_on_c, 1, 60, 96
3, 560828, Note_off_c, 1, 63, 100
3, 560828, Note_off_c, 1, 66, 100
3, 560828, Note_off_c, 1, 60, 100
3, 560832, Note_on_c, 1, 57, 97
3, 561020, Note_off_c, 1, 57, 100
3, 561024, Note_on_c, 1, 63, 97
3, 561024, Note_on_c, 1, 66, 97
3, 561024, Note_on_c, 1, 60, 97
3, 561212, Note_off_c, 1, 63, 100
3, 561212, Note_off_c, 1, 66, 100
3, 561212, Note_off_c, 1, 60, 100
3, 561216, Note_on_c, 1, 57, 98
3, 561404, Note_off_c, 1, 57, 100
3, 561408, Note_on_c, 1, 63, 99
3, 561408, Note_on_c, 1, 66, 99
3, 561408, Note_on_c, 1, 60, 99
3, 561596, Note_off_c, 1, 63, 100
3, 561596, Note_off_c, 1, 66, 100
3, 561596, Note_off_c, 1, 60, 100
3, 561600, Note_on_c, 1, 57, 100
3, 561788, Note_off_c, 1, 57, 100
3, 561792, Note_on_c, 1, 60, 100
3, 561792, Note_on_c, 1, 63, 100
3, 561792, Note_on_c, 1, 65, 100
3, 561980, Note_off_c, 1, 60, 100
3, 561980, Note_off_c, 1, 63, 100
3, 561980, Note_off_c, 1, 65, 100
3, 561984, Note_on_c, 1, 57, 100
3, 562172, Note_off_c, 1, 57, 100
3, 562176, Note_on_c, 1, 61, 100
3, 562176, Note_on_c, 1, 65, 100
3, 562364, Note_off_c, 1, 61, 100
3, 562364, Note_off_c, 1, 65, 100
3, 562368, Note_on_c, 1, 58, 100
3, 562556, Note_off_c, 1, 58, 100
3, 562560, Note_on_c, 1, 61, 100
3, 562560, Note_on_c, 1, 65, 100
3, 562748, Note_off_c, 1, 61, 100
3, 562748, Note_off_c, 1, 65, 100
3, 562752, Note_on_c, 1, 58, 100
3, 562940, Note_off_c, 1, 58, 100
3, 562944, Note_on_c, 1, 61, 100
3, 562944, Note_on_c, 1, 65, 100
3, 563132, Note_off_c, 1, 61, 100
3, 563132, Note_off_c, 1, 65, 100
3, 563136, Note_on_c, 1, 58, 100
3, 563324, Note_off_c, 1, 58, 100
3, 563328, Note_on_c, 1, 64, 100
3, 563328, Note_on_c, 1, 67, 100
3, 563516, Note_off_c, 1, 64, 100
3, 563516, Note_off_c, 1, 67, 100
3, 563520, Note_on_c, 1, 58, 100
3, 563708, Note_off_c, 1, 58, 100
3, 563712, Note_on_c, 1, 64, 100
3, 563712, Note_on_c, 1, 67, 100
3, 563900, Note_off_c, 1, 64, 100
3, 563900, Note_off_c, 1, 67, 100
3, 563904, Note_on_c, 1, 48, 100
3, 564092, Note_off_c, 1, 48, 100
3, 564096, Note_on_c, 1, 53, 100
3, 564096, Note_on_c, 1, 56, 100
3, 564096, Note_on_c, 1, 60, 100
3, 564284, Note_off_c, 1, 53, 100
3, 564284, Note_off_c, 1, 56, 100
3, 564284, Note_off_c, 1, 60, 100
3, 564288, Note_on_c, 1, 48, 100
3, 564476, Note_off_c, 1, 48, 100
3, 564480, Note_on_c, 1, 53, 100
3, 564480, Note_on_c, 1, 56, 100
3, 564480, Note_on_c, 1, 60, 100
3, 564668, Note_off_c, 1, 53, 100
3, 564668, Note_off_c, 1, 56, 100
3, 564668, Note_off_c, 1, 60, 100
3, 564672, Note_on_c, 1, 48, 100
3, 564860, Note_off_c, 1, 48, 100
3, 564864, Note_on_c, 1, 53, 100
3, 564864, Note_on_c, 1, 56, 100
3, 564864, Note_on_c, 1, 60, 100
3, 565052, Note_off_c, 1, 53, 100
3, 565052, Note_off_c, 1, 56, 100
3, 565052, Note_off_c, 1, 60, 100
3, 565056, Note_on_c, 1, 46, 100
3, 565244, Note_off_c, 1, 46, 100
3, 565248, Note_on_c, 1, 48, 100
3, 565248, Note_on_c, 1, 52, 100
3, 565248, Note_on_c, 1, 55, 100
3, 565436, Note_off_c, 1, 48, 100
3, 565436, Note_off_c, 1, 52, 100
3, 565436, Note_off_c, 1, 55, 100
3, 565440, Note_on_c, 1, 46, 100
3, 565628, Note_off_c, 1, 46, 100
3, 565632, Note_on_c, 1, 48, 100
3, 565632, Note_on_c, 1, 52, 100
3, 565632, Note_on_c, 1, 55, 100
3, 565820, Note_off_c, 1, 48, 100
3, 565820, Note_off_c, 1, 52, 100
3, 565820, Note_off_c, 1, 55, 100
3, 565824, Note_on_c, 1, 46, 100
3, 566012, Note_off_c, 1, 46, 100
3, 566016, Note_on_c, 1, 48, 100
3, 566016, Note_on_c, 1, 52, 100
3, 566016, Note_on_c, 1, 55, 100
3, 566204, Note_off_c, 1, 48, 100
3, 566204, Note_off_c, 1, 52, 100
3, 566204, Note_off_c, 1, 55, 100
3, 566208, Note_on_c, 1, 45, 100
3, 566396, Note_off_c, 1, 45, 100
3, 566400, Note_on_c, 1, 51, 100
3, 566400, Note_on_c, 1, 54, 100
3, 566400, Note_on_c, 1, 57, 100
3, 566588, Note_off_c, 1, 51, 100
3, 566588, Note_off_c, 1, 54, 100
3, 566588, Note_off_c, 1, 57, 100
3, 566592, Note_on_c, 1, 45, 100
3, 566780, Note_off_c, 1, 45, 100
3, 566784, Note_on_c, 1, 51, 100
3, 566784, Note_on_c, 1, 54, 100
3, 566784, Note_on_c, 1, 57, 100
3, 566972, Note_off_c, 1, 51, 100
3, 566972, Note_off_c, 1, 54, 100
3, 566972, Note_off_c, 1, 57, 100
3, 566976, Note_on_c, 1, 45, 100
3, 567164, Note_off_c, 1, 45, 100
3, 567168, Note_on_c, 1, 51, 100
3, 567168, Note_on_c, 1, 54, 100
3, 567168, Note_on_c, 1, 57, 100
3, 567356, Note_off_c, 1, 51, 100
3, 567356, Note_off_c, 1, 54, 100
3, 567356, Note_off_c, 1, 57, 100
3, 567360, Note_on_c, 1, 45, 100
3, 567548, Note_off_c, 1, 45, 100
3, 567552, Note_on_c, 1, 51, 100
3, 567552, Note_on_c, 1, 54, 100
3, 567552, Note_on_c, 1, 57, 100
3, 567740, Note_off_c, 1, 51, 100
3, 567740, Note_off_c, 1, 54, 100
3, 567740, Note_off_c, 1, 57, 100
3, 567744, Note_on_c, 1, 45, 100
3, 567932, Note_off_c, 1, 45, 100
3, 567936, Note_on_c, 1, 51, 100
3, 567936, Note_on_c, 1, 54, 100
3, 567936, Note_on_c, 1, 57, 100
3, 568124, Note_off_c, 1, 51, 100
3, 568124, Note_off_c, 1, 54, 100
3, 568124, Note_off_c, 1, 57, 100
3, 568128, Note_on_c, 1, 45, 100
3, 568316, Note_off_c, 1, 45, 100
3, 568320, Note_on_c, 1, 51, 100
3, 568320, Note_on_c, 1, 54, 100
3, 568320, Note_on_c, 1, 57, 100
3, 568508, Note_off_c, 1, 51, 100
3, 568508, Note_off_c, 1, 54, 100
3, 568508, Note_off_c, 1, 57, 100
3, 568512, Note_on_c, 1, 45, 100
3, 568700, Note_off_c, 1, 45, 100
3, 568704, Note_on_c, 1, 51, 100
3, 568704, Note_on_c, 1, 53, 100
3, 568704, Note_on_c, 1, 57, 100
3, 568892, Note_off_c, 1, 51, 100
3, 568892, Note_off_c, 1, 53, 100
3, 568892, Note_off_c, 1, 57, 100
3, 568896, Note_on_c, 1, 45, 100
3, 569084, Note_off_c, 1, 45, 100
3, 569088, Note_on_c, 1, 49, 101
3, 569088, Note_on_c, 1, 53, 101
3, 569088, Note_on_c, 1, 58, 101
3, 569276, Note_off_c, 1, 49, 100
3, 569276, Note_off_c, 1, 53, 100
3, 569276, Note_off_c, 1, 58, 100
3, 569280, Note_on_c, 1, 46, 101
3, 569468, Note_off_c, 1, 46, 100
3, 569472, Note_on_c, 1, 49, 102
3, 569472, Note_on_c, 1, 53, 102
3, 569472, Note_on_c, 1, 58, 102
3, 569660, Note_off_c, 1, 49, 100
3, 569660, Note_off_c, 1, 53, 100
3, 569660, Note_off_c, 1, 58, 100
3, 569664, Note_on_c, 1, 46, 102
3, 569852, Note_off_c, 1, 46, 100
3, 569856, Note_on_c, 1, 49, 102
3, 569856, Note_on_c, 1, 53, 102
3, 569856, Note_on_c, 1, 58, 102
3, 570044, Note_off_c, 1, 49, 100
3, 570044, Note_off_c, 1, 53, 100
3, 570044, Note_off_c, 1, 58, 100
3, 570048, Note_on_c, 1, 46, 103
3, 570236, Note_off_c, 1, 46, 100
3, 570240, Note_on_c, 1, 58, 103
3, 570240, Note_on_c, 1, 55, 103
3, 570240, Note_on_c, 1, 52, 103
3, 570428, Note_off_c, 1, 58, 100
3, 570428, Note_off_c, 1, 55, 100
3, 570428, Note_off_c, 1, 52, 100
3, 570432, Note_on_c, 1, 46, 104
3, 570620, Note_off_c, 1, 46, 100
3, 570624, Note_on_c, 1, 58, 104
3, 570624, Note_on_c, 1, 55, 104
3, 570624, Note_on_c, 1, 52, 104
3, 570812, Note_off_c, 1, 58, 100
3, 570812, Note_off_c, 1, 55, 100
3, 570812, Note_off_c, 1, 52, 100
3, 570816, Note_on_c, 1, 48, 104
3, 571004, Note_off_c, 1, 48, 100
3, 571008, Note_on_c, 1, 53, 105
3, 571008, Note_on_c, 1, 56, 105
3, 571008, Note_on_c, 1, 60, 105
3, 571196, Note_off_c, 1, 53, 100
3, 571196, Note_off_c, 1, 56, 100
3, 571196, Note_off_c, 1, 60, 100
3, 571200, Note_on_c, 1, 48, 105
3, 571388, Note_off_c, 1, 48, 100
3, 571392, Note_on_c, 1, 53, 106
3, 571392, Note_on_c, 1, 56, 106
3, 571392, Note_on_c, 1, 60, 106
3, 571580, Note_off_c, 1, 53, 100
3, 571580, Note_off_c, 1, 56, 100
3, 571580, Note_off_c, 1, 60, 100
3, 571584, Note_on_c, 1, 48, 106
3, 571772, Note_off_c, 1, 48, 100
3, 571776, Note_on_c, 1, 53, 107
3, 571776, Note_on_c, 1, 56, 107
3, 571776, Note_on_c, 1, 60, 107
3, 571964, Note_off_c, 1, 53, 100
3, 571964, Note_off_c, 1, 56, 100
3, 571964, Note_off_c, 1, 60, 100
3, 571968, Note_on_c, 1, 48, 107
3, 572156, Note_off_c, 1, 48, 100
3, 572160, Note_on_c, 1, 52, 107
3, 572160, Note_on_c, 1, 55, 107
3, 572160, Note_on_c, 1, 60, 107
3, 572348, Note_off_c, 1, 52, 100
3, 572348, Note_off_c, 1, 55, 100
3, 572348, Note_off_c, 1, 60, 100
3, 572352, Note_on_c, 1, 48, 108
3, 572540, Note_off_c, 1, 48, 100
3, 572544, Note_on_c, 1, 52, 108
3, 572544, Note_on_c, 1, 55, 108
3, 572544, Note_on_c, 1, 60, 108
3, 572732, Note_off_c, 1, 52, 100
3, 572732, Note_off_c, 1, 55, 100
3, 572732, Note_off_c, 1, 60, 100
3, 572736, Note_on_c, 1, 48, 109
3, 572924, Note_off_c, 1, 48, 100
3, 572928, Note_on_c, 1, 52, 109
3, 572928, Note_on_c, 1, 55, 109
3, 572928, Note_on_c, 1, 60, 109
3, 573116, Note_off_c, 1, 52, 100
3, 573116, Note_off_c, 1, 55, 100
3, 573116, Note_off_c, 1, 60, 100
3, 573120, Note_on_c, 1, 53, 110
3, 573120, Note_on_c, 1, 48, 110
3, 573120, Note_on_c, 1, 44, 110
3, 573120, Note_on_c, 1, 41, 110
3, 573500, Note_off_c, 1, 53, 100
3, 573500, Note_off_c, 1, 48, 100
3, 573500, Note_off_c, 1, 44, 100
3, 573500, Note_off_c, 1, 41, 100
3, 573888, Note_on_c, 1, 56, 110
3, 573888, Note_on_c, 1, 53, 110
3, 574076, Note_off_c, 1, 56, 100
3, 574076, Note_off_c, 1, 53, 100
3, 574080, Note_on_c, 1, 56, 110
3, 574080, Note_on_c, 1, 53, 110
3, 574268, Note_off_c, 1, 56, 100
3, 574268, Note_off_c, 1, 53, 100
3, 574272, Note_on_c, 1, 55, 110
3, 574272, Note_on_c, 1, 52, 110
3, 574652, Note_off_c, 1, 55, 100
3, 574652, Note_off_c, 1, 52, 100
3, 575040, Note_on_c, 1, 58, 110
3, 575040, Note_on_c, 1, 55, 110
3, 575228, Note_off_c, 1, 58, 100
3, 575228, Note_off_c, 1, 55, 100
3, 575232, Note_on_c, 1, 58, 110
3, 575232, Note_on_c, 1, 55, 110
3, 575420, Note_off_c, 1, 58, 100
3, 575420, Note_off_c, 1, 55, 100
3, 575424, Note_on_c, 1, 56, 110
3, 575424, Note_on_c, 1, 53, 110
3, 575804, Note_off_c, 1, 56, 100
3, 575804, Note_off_c, 1, 53, 100
3, 576192, Note_on_c, 1, 56, 110
3, 576192, Note_on_c, 1, 53, 110
3, 576380, Note_off_c, 1, 56, 100
3, 576380, Note_off_c, 1, 53, 100
3, 576384, Note_on_c, 1, 56, 110
3, 576384, Note_on_c, 1, 53, 110
3, 576572, Note_off_c, 1, 56, 100
3, 576572, Note_off_c, 1, 53, 100
3, 576576, Note_on_c, 1, 55, 110
3, 576576, Note_on_c, 1, 52, 110
3, 576956, Note_off_c, 1, 55, 100
3, 576956, Note_off_c, 1, 52, 100
3, 577344, Note_on_c, 1, 58, 110
3, 577344, Note_on_c, 1, 55, 110
3, 577532, Note_off_c, 1, 58, 100
3, 577532, Note_off_c, 1, 55, 100
3, 577536, Note_on_c, 1, 58, 110
3, 577536, Note_on_c, 1, 55, 110
3, 577724, Note_off_c, 1, 58, 100
3, 577724, Note_off_c, 1, 55, 100
3, 577728, Note_on_c, 1, 56, 110
3, 577728, Note_on_c, 1, 53, 110
3, 577916, Note_off_c, 1, 56, 100
3, 577916, Note_off_c, 1, 53, 100
3, 578112, Note_on_c, 1, 56, 110
3, 578112, Note_on_c, 1, 53, 110
3, 578300, Note_off_c, 1, 56, 100
3, 578300, Note_off_c, 1, 53, 100
3, 578496, Note_on_c, 1, 55, 110
3, 578496, Note_on_c, 1, 53, 110
3, 578496, Note_on_c, 1, 46, 110
3, 578684, Note_off_c, 1, 55, 100
3, 578684, Note_off_c, 1, 53, 100
3, 578684, Note_off_c, 1, 46, 100
3, 578880, Note_on_c, 1, 56, 110
3, 578880, Note_on_c, 1, 53, 110
3, 578880, Note_on_c, 1, 48, 110
3, 579068, Note_off_c, 1, 56, 100
3, 579068, Note_off_c, 1, 53, 100
3, 579068, Note_off_c, 1, 48, 100
3, 579264, Note_on_c, 1, 56, 110
3, 579264, Note_on_c, 1, 53, 110
3, 579264, Note_on_c, 1, 48, 110
3, 579452, Note_off_c, 1, 56, 100
3, 579452, Note_off_c, 1, 53, 100
3, 579452, Note_off_c, 1, 48, 100
3, 579648, Note_on_c, 1, 55, 110
3, 579648, Note_on_c, 1, 52, 110
3, 579648, Note_on_c, 1, 48, 110
3, 579836, Note_off_c, 1, 55, 100
3, 579836, Note_off_c, 1, 52, 100
3, 579836, Note_off_c, 1, 48, 100
3, 580032, Note_on_c, 1, 53, 110
3, 580032, Note_on_c, 1, 48, 110
3, 580032, Note_on_c, 1, 44, 110
3, 580032, Note_on_c, 1, 41, 110
3, 580220, Note_off_c, 1, 53, 100
3, 580220, Note_off_c, 1, 48, 100
3, 580220, Note_off_c, 1, 44, 100
3, 580220, Note_off_c, 1, 41, 100
3, 580800, Note_on_c, 1, 44, 110
3, 580800, Note_on_c, 1, 41, 110
3, 580988, Note_off_c, 1, 44, 100
3, 580988, Note_off_c, 1, 41, 100
3, 580992, Note_on_c, 1, 44, 110
3, 580992, Note_on_c, 1, 41, 110
3, 581180, Note_off_c, 1, 44, 100
3, 581180, Note_off_c, 1, 41, 100
3, 581184, Note_on_c, 1, 43, 110
3, 581184, Note_on_c, 1, 40, 110
3, 581564, Note_off_c, 1, 43, 100
3, 581564, Note_off_c, 1, 40, 100
3, 581952, Note_on_c, 1, 46, 110
3, 581952, Note_on_c, 1, 43, 110
3, 582140, Note_off_c, 1, 46, 100
3, 582140, Note_off_c, 1, 43, 100
3, 582144, Note_on_c, 1, 46, 110
3, 582144, Note_on_c, 1, 43, 110
3, 582332, Note_off_c, 1, 46, 100
3, 582332, Note_off_c, 1, 43, 100
3, 582336, Note_on_c, 1, 44, 110
3, 582336, Note_on_c, 1, 41, 110
3, 582716, Note_off_c, 1, 44, 100
3, 582716, Note_off_c, 1, 41, 100
3, 583104, Note_on_c, 1, 44, 110
3, 583104, Note_on_c, 1, 41, 110
3, 583292, Note_off_c, 1, 44, 100
3, 583292, Note_off_c, 1, 41, 100
3, 583296, Note_on_c, 1, 44, 110
3, 583296, Note_on_c, 1, 41, 110
3, 583484, Note_off_c, 1, 44, 100
3, 583484, Note_off_c, 1, 41, 100
3, 583488, Note_on_c, 1, 43, 110
3, 583488, Note_on_c, 1, 40, 110
3, 583868, Note_off_c, 1, 43, 100
3, 583868, Note_off_c, 1, 40, 100
3, 584256, Note_on_c, 1, 46, 110
3, 584256, Note_on_c, 1, 43, 110
3, 584444, Note_off_c, 1, 46, 100
3, 584444, Note_off_c, 1, 43, 100
3, 584448, Note_on_c, 1, 46, 110
3, 584448, Note_on_c, 1, 43, 110
3, 584636, Note_off_c, 1, 46, 100
3, 584636, Note_off_c, 1, 43, 100
3, 584640, Note_on_c, 1, 44, 110
3, 584640, Note_on_c, 1, 41, 110
3, 584828, Note_off_c, 1, 44, 100
3, 584828, Note_off_c, 1, 41, 100
3, 585024, Note_on_c, 1, 44, 110
3, 585024, Note_on_c, 1, 41, 110
3, 585212, Note_off_c, 1, 44, 100
3, 585212, Note_off_c, 1, 41, 100
3, 585408, Note_on_c, 1, 43, 110
3, 585408, Note_on_c, 1, 41, 110
3, 585408, Note_on_c, 1, 34, 110
3, 585596, Note_off_c, 1, 43, 100
3, 585596, Note_off_c, 1, 41, 100
3, 585596, Note_off_c, 1, 34, 100
3, 585792, Note_on_c, 1, 44, 110
3, 585792, Note_on_c, 1, 41, 110
3, 585792, Note_on_c, 1, 36, 110
3, 585980, Note_off_c, 1, 44, 100
3, 585980, Note_off_c, 1, 41, 100
3, 585980, Note_off_c, 1, 36, 100
3, 586176, Note_on_c, 1, 44, 110
3, 586176, Note_on_c, 1, 41, 110
3, 586176, Note_on_c, 1, 36, 110
3, 586364, Note_off_c, 1, 44, 100
3, 586364, Note_off_c, 1, 41, 100
3, 586364, Note_off_c, 1, 36, 100
3, 586560, Note_on_c, 1, 43, 110
3, 586560, Note_on_c, 1, 40, 110
3, 586560, Note_on_c, 1, 36, 110
3, 586748, Note_off_c, 1, 43, 100
3, 586748, Note_off_c, 1, 40, 100
3, 586748, Note_off_c, 1, 36, 100
3, 586944, Note_on_c, 1, 44, 110
3, 586944, Note_on_c, 1, 41, 110
3, 586944, Note_on_c, 1, 36, 110
3, 586944, Note_on_c, 1, 32, 110
3, 587132, Note_off_c, 1, 44, 100
3, 587132, Note_off_c, 1, 41, 100
3, 587132, Note_off_c, 1, 36, 100
3, 587132, Note_off_c, 1, 32, 100
3, 587328, Note_on_c, 1, 44, 110
3, 587328, Note_on_c, 1, 41, 110
3, 587328, Note_on_c, 1, 36, 110
3, 587328, Note_on_c, 1, 32, 110
3, 587516, Note_off_c, 1, 44, 100
3, 587516, Note_off_c, 1, 41, 100
3, 587516, Note_off_c, 1, 36, 100
3, 587516, Note_off_c, 1, 32, 100
3, 587712, Note_on_c, 1, 46, 110
3, 587712, Note_on_c, 1, 43, 110
3, 587712, Note_on_c, 1, 41, 110
3, 587712, Note_on_c, 1, 34, 110
3, 587900, Note_off_c, 1, 46, 100
3, 587900, Note_off_c, 1, 43, 100
3, 587900, Note_off_c, 1, 41, 100
3, 587900, Note_off_c, 1, 34, 100
3, 588096, Note_on_c, 1, 48, 110
3, 588096, Note_on_c, 1, 44, 110
3, 588096, Note_on_c, 1, 41, 110
3, 588096, Note_on_c, 1, 36, 110
3, 588284, Note_off_c, 1, 48, 100
3, 588284, Note_off_c, 1, 44, 100
3, 588284, Note_off_c, 1, 41, 100
3, 588284, Note_off_c, 1, 36, 100
3, 588480, Note_on_c, 1, 48, 110
3, 588480, Note_on_c, 1, 44, 110
3, 588480, Note_on_c, 1, 41, 110
3, 588480, Note_on_c, 1, 36, 110
3, 588668, Note_off_c, 1, 48, 100
3, 588668, Note_off_c, 1, 44, 100
3, 588668, Note_off_c, 1, 41, 100
3, 588668, Note_off_c, 1, 36, 100
3, 588864, Note_on_c, 1, 46, 110
3, 588864, Note_on_c, 1, 43, 110
3, 588864, Note_on_c, 1, 40, 110
3, 588864, Note_on_c, 1, 34, 110
3, 589052, Note_off_c, 1, 46, 100
3, 589052, Note_off_c, 1, 43, 100
3, 589052, Note_off_c, 1, 40, 100
3, 589052, Note_off_c, 1, 34, 100
3, 589248, Note_on_c, 1, 44, 120
3, 589248, Note_on_c, 1, 41, 120
3, 589248, Note_on_c, 1, 36, 120
3, 589248, Note_on_c, 1, 32, 120
3, 589436, Note_off_c, 1, 44, 100
3, 589436, Note_off_c, 1, 41, 100
3, 589436, Note_off_c, 1, 36, 100
3, 589436, Note_off_c, 1, 32, 100
3, 589632, Note_on_c, 1, 44, 120
3, 589632, Note_on_c, 1, 41, 120
3, 589632, Note_on_c, 1, 36, 120
3, 589632, Note_on_c, 1, 32, 120
3, 589820, Note_off_c, 1, 44, 100
3, 589820, Note_off_c, 1, 41, 100
3, 589820, Note_off_c, 1, 36, 100
3, 589820, Note_off_c, 1, 32, 100
3, 590016, Note_on_c, 1, 46, 120
3, 590016, Note_on_c, 1, 43, 120
3, 590016, Note_on_c, 1, 41, 120
3, 590016, Note_on_c, 1, 34, 120
3, 590396, Note_off_c, 1, 46, 100
3, 590396, Note_off_c, 1, 43, 100
3, 590396, Note_off_c, 1, 41, 100
3, 590396, Note_off_c, 1, 34, 100
3, 590400, Note_on_c, 1, 48, 120
3, 590400, Note_on_c, 1, 44, 120
3, 590400, Note_on_c, 1, 41, 120
3, 590400, Note_on_c, 1, 36, 120
3, 590588, Note_off_c, 1, 48, 100
3, 590588, Note_off_c, 1, 44, 100
3, 590588, Note_off_c, 1, 41, 100
3, 590588, Note_off_c, 1, 36, 100
3, 590784, Note_on_c, 1, 48, 120
3, 590784, Note_on_c, 1, 44, 120
3, 590784, Note_on_c, 1, 41, 120
3, 590784, Note_on_c, 1, 36, 120
3, 590972, Note_off_c, 1, 48, 100
3, 590972, Note_off_c, 1, 44, 100
3, 590972, Note_off_c, 1, 41, 100
3, 590972, Note_off_c, 1, 36, 100
3, 591168, Note_on_c, 1, 48, 120
3, 591168, Note_on_c, 1, 43, 120
3, 591168, Note_on_c, 1, 40, 120
3, 591168, Note_on_c, 1, 36, 120
3, 591356, Note_off_c, 1, 48, 100
3, 591356, Note_off_c, 1, 43, 100
3, 591356, Note_off_c, 1, 40, 100
3, 591356, Note_off_c, 1, 36, 100
3, 591552, Note_on_c, 1, 41, 110
3, 591552, Note_on_c, 1, 29, 110
3, 592124, Note_off_c, 1, 41, 100
3, 592124, Note_off_c, 1, 29, 100
3, 592128, Note_on_c, 1, 68, 80
3, 592608, Note_on_c, 1, 72, 80
3, 592700, Note_off_c, 1, 68, 100
3, 592704, Note_on_c, 1, 77, 80
3, 592796, Note_off_c, 1, 72, 100
3, 593280, Note_on_c, 1, 80, 79
3, 593468, Note_off_c, 1, 77, 100
3, 593760, Note_on_c, 1, 84, 78
3, 593852, Note_off_c, 1, 80, 100
3, 593856, Note_on_c, 1, 89, 78
3, 593948, Note_off_c, 1, 84, 100
3, 594432, Note_on_c, 1, 84, 77
3, 594620, Note_off_c, 1, 89, 100
3, 594912, Note_on_c, 1, 80, 77
3, 595004, Note_off_c, 1, 84, 100
3, 595008, Note_on_c, 1, 77, 77
3, 595100, Note_off_c, 1, 80, 100
3, 595584, Note_on_c, 1, 72, 76
3, 595772, Note_off_c, 1, 77, 100
3, 596064, Note_on_c, 1, 68, 75
3, 596156, Note_off_c, 1, 72, 100
3, 596160, Note_on_c, 1, 65, 75
3, 596252, Note_off_c, 1, 68, 100
3, 596732, Note_off_c, 1, 65, 100
3, 596736, Note_on_c, 1, 60, 74
3, 597216, Note_on_c, 1, 56, 74
3, 597308, Note_off_c, 1, 60, 100
3, 597312, Note_on_c, 1, 53, 74
3, 597404, Note_off_c, 1, 56, 100
3, 597888, Note_on_c, 1, 48, 73
3, 598076, Note_off_c, 1, 53, 100
3, 598368, Note_on_c, 1, 44, 72
3, 598460, Note_off_c, 1, 48, 100
3, 598464, Note_on_c, 1, 41, 72
3, 598556, Note_off_c, 1, 44, 100
3, 599040, Note_on_c, 1, 36, 71
3, 599228, Note_off_c, 1, 41, 100
3, 599520, Note_on_c, 1, 32, 71
3, 599612, Note_off_c, 1, 36, 100
3, 599616, Note_on_c, 1, 29, 70
3, 599708, Note_off_c, 1, 32, 100
3, 600188, Note_off_c, 1, 29, 100
3, 600192, Note_on_c, 1, 29, 66
3, 600764, Note_off_c, 1, 29, 100
3, 600768, Note_on_c, 1, 29, 60
3, 601916, Note_off_c, 1, 29, 100
3, 601920, Note_on_c, 1, 29, 60
3, 603068, Note_off_c, 1, 29, 100
3, 603168, Note_on_c, 1, 29, 60
3, 605468, Note_off_c, 1, 29, 100
3, 605468, End_track
4, 0, Start_track
4, 0, Control_c, 0, 0, 0
4, 0, Program_c, 0, 0
4, 0, Control_c, 0, 7, 100
4, 0, Control_c, 0, 10, 74
4, 0, Control_c, 0, 91, 127
4, 0, Key_signature, -4, "minor"
4, 0, Control_c, 0, 64, 127
4, 572, Control_c, 0, 64, 0
4, 572, End_track
0, 0, End_of_file
