0, 0, Header, 1, 3, 384
1, 0, Start_track
1, 0, Title_t, "L.v.Beethoven 2mov - Piano Sonata No.24 in C# Major Op.78\000"
1, 0, Copyright_t, "Copyright(C) 1995-2009, Suzuki Software\000"
1, 0, Sequencer_specific, 9, 67, 123, 0, 88, 70, 48, 50, 0, 1
1, 0, Text_t, "XFhd:2000/09/03:JP:Classical::::L.v.Beethoven:::Kaoru Suzuki\000"
1, 0, Text_t, "XFln:JP:\203s\203A\203m\203\\\203i\203^\221æ24\224Ô\211d\203w\222·\222²\215ì\225i78\201`\221æ2\212y\217Í:L.v.\203x\201[\203g\201[\203\224\203F\203\223:::\227é\202¿\202á\202ñ:\227é\202¿\202á\202ñ\000"
1, 0, Time_signature, 2, 2, 96, 8
1, 0, Sequencer_specific, 3, 0, 0, 65
1, 0, Sequencer_specific, 5, 0, 0, 119, 14, 0
1, 0, Tempo, 400000
1, 1152, Tempo, 428571
1, 3072, Tempo, 400000
1, 4608, Tempo, 413793
1, 4992, Tempo, 428571
1, 6144, Tempo, 444444
1, 7488, Tempo, 375000
1, 15360, Tempo, 400000
1, 15744, Tempo, 428571
1, 16320, Tempo, 375000
1, 23040, Tempo, 400000
1, 23424, Tempo, 428571
1, 23808, Tempo, 375000
1, 25344, Tempo, 387096
1, 25728, Tempo, 428571
1, 26880, Tempo, 375000
1, 28416, Tempo, 392156
1, 28800, Tempo, 428571
1, 29952, Tempo, 444444
1, 32064, Tempo, 375000
1, 41472, Tempo, 392156
1, 42240, Tempo, 410958
1, 42624, Tempo, 428571
1, 43008, Tempo, 375000
1, 66048, Tempo, 392156
1, 66816, Tempo, 413793
1, 67200, Tempo, 444444
1, 67584, Tempo, 400000
1, 69120, Tempo, 413793
1, 69504, Tempo, 444444
1, 70656, Tempo, 400000
1, 72192, Tempo, 413793
1, 72576, Tempo, 434782
1, 73728, Tempo, 444444
1, 75072, Tempo, 375000
1, 82560, Tempo, 387096
1, 82944, Tempo, 400000
1, 83328, Tempo, 428571
1, 83520, Tempo, 500000
1, 83904, Tempo, 375000
1, 87168, Tempo, 387096
1, 87552, Tempo, 400000
1, 87936, Tempo, 428571
1, 88512, Tempo, 375000
1, 99840, Tempo, 387096
1, 100608, Tempo, 400000
1, 100992, Tempo, 428571
1, 101184, Tempo, 500000
1, 101760, Tempo, 428571
1, 102144, Tempo, 375000
1, 112896, Tempo, 387096
1, 113664, Tempo, 400000
1, 114048, Tempo, 428571
1, 114240, Tempo, 500000
1, 114432, Tempo, 400000
1, 115968, Tempo, 408163
1, 116352, Tempo, 419580
1, 117504, Tempo, 392156
1, 119040, Tempo, 405405
1, 119424, Tempo, 428571
1, 120576, Tempo, 444444
1, 121152, Tempo, 500000
1, 122112, Tempo, 419580
1, 122304, Tempo, 400000
1, 132096, Tempo, 428571
1, 132480, Tempo, 461538
1, 132864, Tempo, 500000
1, 133248, Tempo, 600000
1, 134400, Tempo, 750000
1, 135168, Tempo, 444444
1, 137472, Tempo, 352941
1, 140544, Tempo, 387096
1, 141120, Tempo, 500000
1, 141216, Tempo, 750000
1, 141216, End_track
2, 0, Start_track
2, 0, Title_t, "Right"
2, 0, Control_c, 0, 0, 0
2, 0, Program_c, 0, 0
2, 0, Control_c, 0, 7, 100
2, 0, Control_c, 0, 10, 74
2, 0, Control_c, 0, 91, 127
2, 0, Key_signature, 6, "major"
2, 0, Note_on_c, 0, 72, 110
2, 0, Note_on_c, 0, 66, 110
2, 572, Note_off_c, 0, 72, 100
2, 572, Note_off_c, 0, 66, 100
2, 576, Note_on_c, 0, 73, 110
2, 576, Note_on_c, 0, 65, 110
2, 764, Note_off_c, 0, 73, 100
2, 764, Note_off_c, 0, 65, 100
2, 768, Note_on_c, 0, 68, 110
2, 768, Note_on_c, 0, 65, 110
2, 956, Note_off_c, 0, 68, 100
2, 956, Note_off_c, 0, 65, 100
2, 1344, Note_on_c, 0, 70, 80
2, 1344, Note_on_c, 0, 66, 80
2, 1532, Note_off_c, 0, 70, 100
2, 1532, Note_off_c, 0, 66, 100
2, 1536, Note_on_c, 0, 71, 80
2, 1536, Note_on_c, 0, 63, 80
2, 1820, Note_off_c, 0, 71, 100
2, 1820, Note_off_c, 0, 63, 100
2, 1824, Note_on_c, 0, 70, 80
2, 1824, Note_on_c, 0, 61, 80
2, 1916, Note_off_c, 0, 70, 100
2, 1916, Note_off_c, 0, 61, 100
2, 1920, Note_on_c, 0, 68, 80
2, 1920, Note_on_c, 0, 59, 80
2, 2108, Note_off_c, 0, 68, 100
2, 2108, Note_off_c, 0, 59, 100
2, 2112, Note_on_c, 0, 66, 80
2, 2112, Note_on_c, 0, 58, 80
2, 2300, Note_off_c, 0, 66, 100
2, 2300, Note_off_c, 0, 58, 100
2, 2304, Note_on_c, 0, 65, 80
2, 2304, Note_on_c, 0, 56, 80
2, 2684, Note_off_c, 0, 65, 100
2, 2684, Note_off_c, 0, 56, 100
2, 3072, Note_on_c, 0, 73, 110
2, 3072, Note_on_c, 0, 70, 110
2, 3644, Note_off_c, 0, 73, 100
2, 3644, Note_off_c, 0, 70, 100
2, 3648, Note_on_c, 0, 75, 110
2, 3648, Note_on_c, 0, 71, 110
2, 3836, Note_off_c, 0, 75, 100
2, 3836, Note_off_c, 0, 71, 100
2, 3840, Note_on_c, 0, 76, 110
2, 3840, Note_on_c, 0, 73, 110
2, 4220, Note_off_c, 0, 76, 100
2, 4220, Note_off_c, 0, 73, 100
2, 4416, Note_on_c, 0, 78, 80
2, 4416, Note_on_c, 0, 75, 80
2, 4604, Note_off_c, 0, 78, 100
2, 4604, Note_off_c, 0, 75, 100
2, 4608, Note_on_c, 0, 80, 80
2, 4608, Note_on_c, 0, 76, 80
2, 4892, Note_off_c, 0, 80, 100
2, 4892, Note_off_c, 0, 76, 100
2, 4896, Note_on_c, 0, 76, 80
2, 4896, Note_on_c, 0, 73, 80
2, 4988, Note_off_c, 0, 76, 100
2, 4988, Note_off_c, 0, 73, 100
2, 4992, Note_on_c, 0, 71, 80
2, 4992, Note_on_c, 0, 75, 80
2, 5180, Note_off_c, 0, 71, 100
2, 5180, Note_off_c, 0, 75, 100
2, 5184, Note_on_c, 0, 73, 80
2, 5184, Note_on_c, 0, 70, 80
2, 5372, Note_off_c, 0, 73, 100
2, 5372, Note_off_c, 0, 70, 100
2, 5376, Note_on_c, 0, 75, 80
2, 5376, Note_on_c, 0, 71, 80
2, 5756, Note_off_c, 0, 75, 100
2, 5756, Note_off_c, 0, 71, 100
2, 6144, Note_on_c, 0, 71, 80
2, 6144, Note_on_c, 0, 66, 80
2, 6716, Note_off_c, 0, 71, 100
2, 6716, Note_off_c, 0, 66, 100
2, 6720, Note_on_c, 0, 70, 80
2, 6720, Note_on_c, 0, 66, 80
2, 6908, Note_off_c, 0, 70, 100
2, 6908, Note_off_c, 0, 66, 100
2, 6912, Note_on_c, 0, 75, 80
2, 6912, Note_on_c, 0, 66, 80
2, 7292, Note_off_c, 0, 75, 100
2, 7292, Note_off_c, 0, 66, 100
2, 7488, Note_on_c, 0, 73, 80
2, 7488, Note_on_c, 0, 66, 80
2, 7676, Note_off_c, 0, 73, 100
2, 7676, Note_off_c, 0, 66, 100
2, 7680, Note_on_c, 0, 71, 80
2, 7680, Note_on_c, 0, 66, 80
2, 7964, Note_off_c, 0, 71, 100
2, 7968, Note_on_c, 0, 70, 80
2, 8060, Note_off_c, 0, 66, 100
2, 8060, Note_off_c, 0, 70, 100
2, 8064, Note_on_c, 0, 68, 80
2, 8064, Note_on_c, 0, 66, 80
2, 8252, Note_off_c, 0, 68, 100
2, 8252, Note_off_c, 0, 66, 100
2, 8256, Note_on_c, 0, 73, 80
2, 8256, Note_on_c, 0, 65, 80
2, 8444, Note_off_c, 0, 73, 100
2, 8444, Note_off_c, 0, 65, 100
2, 8448, Note_on_c, 0, 70, 80
2, 8540, Note_off_c, 0, 70, 100
2, 8544, Note_on_c, 0, 66, 81
2, 8636, Note_off_c, 0, 66, 100
2, 8640, Note_on_c, 0, 65, 82
2, 8732, Note_off_c, 0, 65, 100
2, 8736, Note_on_c, 0, 66, 83
2, 8828, Note_off_c, 0, 66, 100
2, 8832, Note_on_c, 0, 71, 85
2, 8924, Note_off_c, 0, 71, 100
2, 8928, Note_on_c, 0, 78, 86
2, 9020, Note_off_c, 0, 78, 100
2, 9024, Note_on_c, 0, 70, 87
2, 9116, Note_off_c, 0, 70, 100
2, 9120, Note_on_c, 0, 78, 89
2, 9212, Note_off_c, 0, 78, 100
2, 9216, Note_on_c, 0, 75, 90
2, 9308, Note_off_c, 0, 75, 100
2, 9312, Note_on_c, 0, 78, 91
2, 9404, Note_off_c, 0, 78, 100
2, 9408, Note_on_c, 0, 73, 93
2, 9500, Note_off_c, 0, 73, 100
2, 9504, Note_on_c, 0, 78, 94
2, 9596, Note_off_c, 0, 78, 100
2, 9600, Note_on_c, 0, 77, 95
2, 9692, Note_off_c, 0, 77, 100
2, 9696, Note_on_c, 0, 80, 97
2, 9788, Note_off_c, 0, 80, 100
2, 9792, Note_on_c, 0, 77, 98
2, 9884, Note_off_c, 0, 77, 100
2, 9888, Note_on_c, 0, 85, 99
2, 9980, Note_off_c, 0, 85, 100
2, 9984, Note_on_c, 0, 78, 110
2, 10076, Note_off_c, 0, 78, 100
2, 10080, Note_on_c, 0, 82, 110
2, 10172, Note_off_c, 0, 82, 100
2, 10176, Note_on_c, 0, 78, 110
2, 10268, Note_off_c, 0, 78, 100
2, 10272, Note_on_c, 0, 85, 110
2, 10364, Note_off_c, 0, 85, 100
2, 10368, Note_on_c, 0, 78, 110
2, 10460, Note_off_c, 0, 78, 100
2, 10464, Note_on_c, 0, 85, 110
2, 10556, Note_off_c, 0, 85, 100
2, 10560, Note_on_c, 0, 82, 110
2, 10652, Note_off_c, 0, 82, 100
2, 10656, Note_on_c, 0, 85, 110
2, 10748, Note_off_c, 0, 85, 100
2, 10752, Note_on_c, 0, 82, 110
2, 10844, Note_off_c, 0, 82, 100
2, 10848, Note_on_c, 0, 85, 110
2, 10940, Note_off_c, 0, 85, 100
2, 10944, Note_on_c, 0, 82, 110
2, 11036, Note_off_c, 0, 82, 100
2, 11040, Note_on_c, 0, 85, 110
2, 11132, Note_off_c, 0, 85, 100
2, 11136, Note_on_c, 0, 80, 110
2, 11228, Note_off_c, 0, 80, 100
2, 11232, Note_on_c, 0, 83, 110
2, 11324, Note_off_c, 0, 83, 100
2, 11328, Note_on_c, 0, 77, 110
2, 11420, Note_off_c, 0, 77, 100
2, 11424, Note_on_c, 0, 85, 110
2, 11516, Note_off_c, 0, 85, 100
2, 11520, Note_on_c, 0, 82, 110
2, 11612, Note_off_c, 0, 82, 100
2, 11616, Note_on_c, 0, 78, 110
2, 11708, Note_off_c, 0, 78, 100
2, 11712, Note_on_c, 0, 70, 110
2, 11804, Note_off_c, 0, 70, 100
2, 11808, Note_on_c, 0, 78, 110
2, 11900, Note_off_c, 0, 78, 100
2, 11904, Note_on_c, 0, 71, 110
2, 11996, Note_off_c, 0, 71, 100
2, 12000, Note_on_c, 0, 78, 110
2, 12092, Note_off_c, 0, 78, 100
2, 12096, Note_on_c, 0, 70, 110
2, 12188, Note_off_c, 0, 70, 100
2, 12192, Note_on_c, 0, 78, 110
2, 12284, Note_off_c, 0, 78, 100
2, 12288, Note_on_c, 0, 75, 110
2, 12380, Note_off_c, 0, 75, 100
2, 12384, Note_on_c, 0, 78, 110
2, 12476, Note_off_c, 0, 78, 100
2, 12480, Note_on_c, 0, 73, 110
2, 12572, Note_off_c, 0, 73, 100
2, 12576, Note_on_c, 0, 78, 110
2, 12668, Note_off_c, 0, 78, 100
2, 12672, Note_on_c, 0, 77, 110
2, 12764, Note_off_c, 0, 77, 100
2, 12768, Note_on_c, 0, 80, 110
2, 12860, Note_off_c, 0, 80, 100
2, 12864, Note_on_c, 0, 77, 110
2, 12956, Note_off_c, 0, 77, 100
2, 12960, Note_on_c, 0, 85, 110
2, 13052, Note_off_c, 0, 85, 100
2, 13056, Note_on_c, 0, 78, 110
2, 13148, Note_off_c, 0, 78, 100
2, 13152, Note_on_c, 0, 82, 110
2, 13244, Note_off_c, 0, 82, 100
2, 13248, Note_on_c, 0, 78, 110
2, 13340, Note_off_c, 0, 78, 100
2, 13344, Note_on_c, 0, 85, 110
2, 13436, Note_off_c, 0, 85, 100
2, 13440, Note_on_c, 0, 78, 110
2, 13532, Note_off_c, 0, 78, 100
2, 13536, Note_on_c, 0, 85, 110
2, 13628, Note_off_c, 0, 85, 100
2, 13632, Note_on_c, 0, 82, 110
2, 13724, Note_off_c, 0, 82, 100
2, 13728, Note_on_c, 0, 85, 110
2, 13820, Note_off_c, 0, 85, 100
2, 13824, Note_on_c, 0, 82, 110
2, 13916, Note_off_c, 0, 82, 100
2, 13920, Note_on_c, 0, 85, 110
2, 14012, Note_off_c, 0, 85, 100
2, 14016, Note_on_c, 0, 82, 110
2, 14108, Note_off_c, 0, 82, 100
2, 14112, Note_on_c, 0, 85, 110
2, 14204, Note_off_c, 0, 85, 100
2, 14208, Note_on_c, 0, 80, 110
2, 14300, Note_off_c, 0, 80, 100
2, 14304, Note_on_c, 0, 83, 110
2, 14396, Note_off_c, 0, 83, 100
2, 14400, Note_on_c, 0, 77, 110
2, 14492, Note_off_c, 0, 77, 100
2, 14496, Note_on_c, 0, 85, 110
2, 14588, Note_off_c, 0, 85, 100
2, 14592, Note_on_c, 0, 82, 110
2, 14684, Note_off_c, 0, 82, 100
2, 14688, Note_on_c, 0, 85, 110
2, 14780, Note_off_c, 0, 85, 100
2, 14784, Note_on_c, 0, 82, 110
2, 14784, Note_on_c, 0, 78, 110
2, 14876, Note_off_c, 0, 82, 100
2, 14876, Note_off_c, 0, 78, 100
2, 14880, Note_on_c, 0, 85, 110
2, 14972, Note_off_c, 0, 85, 100
2, 14976, Note_on_c, 0, 78, 110
2, 15068, Note_off_c, 0, 78, 100
2, 15072, Note_on_c, 0, 80, 110
2, 15164, Note_off_c, 0, 80, 100
2, 15168, Note_on_c, 0, 78, 110
2, 15260, Note_off_c, 0, 78, 100
2, 15264, Note_on_c, 0, 83, 110
2, 15356, Note_off_c, 0, 83, 100
2, 15360, Note_on_c, 0, 78, 110
2, 15452, Note_off_c, 0, 78, 100
2, 15456, Note_on_c, 0, 80, 110
2, 15548, Note_off_c, 0, 80, 100
2, 15552, Note_on_c, 0, 78, 110
2, 15644, Note_off_c, 0, 78, 100
2, 15648, Note_on_c, 0, 87, 110
2, 15740, Note_off_c, 0, 87, 100
2, 15744, Note_on_c, 0, 78, 110
2, 15836, Note_off_c, 0, 78, 100
2, 15840, Note_on_c, 0, 80, 110
2, 15932, Note_off_c, 0, 80, 100
2, 15936, Note_on_c, 0, 78, 110
2, 16028, Note_off_c, 0, 78, 100
2, 16032, Note_on_c, 0, 87, 110
2, 16124, Note_off_c, 0, 87, 100
2, 16128, Note_on_c, 0, 85, 110
2, 16128, Note_on_c, 0, 80, 110
2, 16128, Note_on_c, 0, 77, 110
2, 16316, Note_off_c, 0, 85, 100
2, 16316, Note_off_c, 0, 80, 100
2, 16316, Note_off_c, 0, 77, 100
2, 16320, Note_on_c, 0, 60, 110
2, 16412, Note_off_c, 0, 60, 100
2, 16416, Note_on_c, 0, 61, 110
2, 16508, Note_off_c, 0, 61, 100
2, 16704, Note_on_c, 0, 64, 110
2, 16796, Note_off_c, 0, 64, 100
2, 16800, Note_on_c, 0, 65, 110
2, 16892, Note_off_c, 0, 65, 100
2, 17088, Note_on_c, 0, 67, 110
2, 17180, Note_off_c, 0, 67, 100
2, 17184, Note_on_c, 0, 68, 110
2, 17276, Note_off_c, 0, 68, 100
2, 17472, Note_on_c, 0, 72, 110
2, 17564, Note_off_c, 0, 72, 100
2, 17568, Note_on_c, 0, 73, 110
2, 17660, Note_off_c, 0, 73, 100
2, 17856, Note_on_c, 0, 76, 110
2, 17948, Note_off_c, 0, 76, 100
2, 17952, Note_on_c, 0, 77, 110
2, 18044, Note_off_c, 0, 77, 100
2, 18240, Note_on_c, 0, 79, 110
2, 18332, Note_off_c, 0, 79, 100
2, 18336, Note_on_c, 0, 80, 110
2, 18428, Note_off_c, 0, 80, 100
2, 18624, Note_on_c, 0, 84, 110
2, 18716, Note_off_c, 0, 84, 100
2, 18720, Note_on_c, 0, 85, 110
2, 18812, Note_off_c, 0, 85, 100
2, 19008, Note_on_c, 0, 88, 110
2, 19100, Note_off_c, 0, 88, 100
2, 19104, Note_on_c, 0, 89, 110
2, 19196, Note_off_c, 0, 89, 100
2, 19392, Note_on_c, 0, 91, 80
2, 19484, Note_off_c, 0, 91, 100
2, 19488, Note_on_c, 0, 92, 80
2, 19580, Note_off_c, 0, 92, 100
2, 19776, Note_on_c, 0, 88, 80
2, 19868, Note_off_c, 0, 88, 100
2, 19872, Note_on_c, 0, 89, 80
2, 19964, Note_off_c, 0, 89, 100
2, 20160, Note_on_c, 0, 84, 80
2, 20252, Note_off_c, 0, 84, 100
2, 20256, Note_on_c, 0, 85, 80
2, 20348, Note_off_c, 0, 85, 100
2, 20544, Note_on_c, 0, 79, 80
2, 20636, Note_off_c, 0, 79, 100
2, 20640, Note_on_c, 0, 80, 80
2, 20732, Note_off_c, 0, 80, 100
2, 20928, Note_on_c, 0, 76, 80
2, 21020, Note_off_c, 0, 76, 100
2, 21024, Note_on_c, 0, 77, 80
2, 21116, Note_off_c, 0, 77, 100
2, 21312, Note_on_c, 0, 72, 80
2, 21404, Note_off_c, 0, 72, 100
2, 21408, Note_on_c, 0, 73, 80
2, 21500, Note_off_c, 0, 73, 100
2, 21696, Note_on_c, 0, 72, 80
2, 21788, Note_off_c, 0, 72, 100
2, 21792, Note_on_c, 0, 73, 80
2, 21884, Note_off_c, 0, 73, 100
2, 22080, Note_on_c, 0, 72, 80
2, 22172, Note_off_c, 0, 72, 100
2, 22176, Note_on_c, 0, 73, 80
2, 22268, Note_off_c, 0, 73, 100
2, 22464, Note_on_c, 0, 72, 70
2, 22556, Note_off_c, 0, 72, 100
2, 22560, Note_on_c, 0, 73, 70
2, 22652, Note_off_c, 0, 73, 100
2, 22848, Note_on_c, 0, 60, 70
2, 22940, Note_off_c, 0, 60, 100
2, 22944, Note_on_c, 0, 61, 70
2, 23036, Note_off_c, 0, 61, 100
2, 23232, Note_on_c, 0, 72, 70
2, 23324, Note_off_c, 0, 72, 100
2, 23328, Note_on_c, 0, 73, 70
2, 23420, Note_off_c, 0, 73, 100
2, 23616, Note_on_c, 0, 60, 70
2, 23708, Note_off_c, 0, 60, 100
2, 23712, Note_on_c, 0, 61, 70
2, 23804, Note_off_c, 0, 61, 100
2, 23808, Note_on_c, 0, 72, 110
2, 23808, Note_on_c, 0, 66, 110
2, 24380, Note_off_c, 0, 72, 100
2, 24380, Note_off_c, 0, 66, 100
2, 24384, Note_on_c, 0, 73, 110
2, 24384, Note_on_c, 0, 65, 110
2, 24572, Note_off_c, 0, 73, 100
2, 24572, Note_off_c, 0, 65, 100
2, 24576, Note_on_c, 0, 68, 110
2, 24576, Note_on_c, 0, 65, 110
2, 24956, Note_off_c, 0, 68, 100
2, 24956, Note_off_c, 0, 65, 100
2, 25152, Note_on_c, 0, 70, 80
2, 25152, Note_on_c, 0, 66, 80
2, 25340, Note_off_c, 0, 70, 100
2, 25340, Note_off_c, 0, 66, 100
2, 25344, Note_on_c, 0, 71, 80
2, 25344, Note_on_c, 0, 63, 80
2, 25628, Note_off_c, 0, 71, 100
2, 25628, Note_off_c, 0, 63, 100
2, 25632, Note_on_c, 0, 70, 80
2, 25632, Note_on_c, 0, 61, 80
2, 25724, Note_off_c, 0, 70, 100
2, 25724, Note_off_c, 0, 61, 100
2, 25728, Note_on_c, 0, 68, 80
2, 25728, Note_on_c, 0, 59, 80
2, 25916, Note_off_c, 0, 68, 100
2, 25916, Note_off_c, 0, 59, 100
2, 25920, Note_on_c, 0, 66, 80
2, 25920, Note_on_c, 0, 58, 80
2, 26108, Note_off_c, 0, 66, 100
2, 26108, Note_off_c, 0, 58, 100
2, 26112, Note_on_c, 0, 65, 80
2, 26112, Note_on_c, 0, 56, 80
2, 26492, Note_off_c, 0, 65, 100
2, 26492, Note_off_c, 0, 56, 100
2, 26880, Note_on_c, 0, 73, 110
2, 26880, Note_on_c, 0, 70, 110
2, 27452, Note_off_c, 0, 73, 100
2, 27452, Note_off_c, 0, 70, 100
2, 27456, Note_on_c, 0, 75, 110
2, 27456, Note_on_c, 0, 71, 110
2, 27644, Note_off_c, 0, 75, 100
2, 27644, Note_off_c, 0, 71, 100
2, 27648, Note_on_c, 0, 76, 110
2, 27648, Note_on_c, 0, 73, 110
2, 28028, Note_off_c, 0, 76, 100
2, 28028, Note_off_c, 0, 73, 100
2, 28224, Note_on_c, 0, 78, 80
2, 28224, Note_on_c, 0, 75, 80
2, 28412, Note_off_c, 0, 78, 100
2, 28412, Note_off_c, 0, 75, 100
2, 28416, Note_on_c, 0, 80, 80
2, 28416, Note_on_c, 0, 76, 80
2, 28700, Note_off_c, 0, 80, 100
2, 28700, Note_off_c, 0, 76, 100
2, 28704, Note_on_c, 0, 76, 80
2, 28704, Note_on_c, 0, 73, 80
2, 28796, Note_off_c, 0, 76, 100
2, 28796, Note_off_c, 0, 73, 100
2, 28800, Note_on_c, 0, 71, 80
2, 28800, Note_on_c, 0, 75, 80
2, 28988, Note_off_c, 0, 71, 100
2, 28988, Note_off_c, 0, 75, 100
2, 28992, Note_on_c, 0, 73, 80
2, 28992, Note_on_c, 0, 70, 80
2, 29180, Note_off_c, 0, 73, 100
2, 29180, Note_off_c, 0, 70, 100
2, 29184, Note_on_c, 0, 75, 80
2, 29184, Note_on_c, 0, 71, 80
2, 29564, Note_off_c, 0, 75, 100
2, 29564, Note_off_c, 0, 71, 100
2, 29952, Note_on_c, 0, 71, 70
2, 29952, Note_on_c, 0, 66, 70
2, 30524, Note_off_c, 0, 71, 100
2, 30524, Note_off_c, 0, 66, 100
2, 30528, Note_on_c, 0, 70, 70
2, 30528, Note_on_c, 0, 66, 70
2, 30716, Note_off_c, 0, 70, 100
2, 30716, Note_off_c, 0, 66, 100
2, 30720, Note_on_c, 0, 75, 70
2, 30720, Note_on_c, 0, 66, 70
2, 31100, Note_off_c, 0, 75, 100
2, 31100, Note_off_c, 0, 66, 100
2, 31296, Note_on_c, 0, 73, 70
2, 31296, Note_on_c, 0, 66, 70
2, 31484, Note_off_c, 0, 73, 100
2, 31484, Note_off_c, 0, 66, 100
2, 31488, Note_on_c, 0, 71, 70
2, 31488, Note_on_c, 0, 66, 70
2, 31772, Note_off_c, 0, 71, 100
2, 31776, Note_on_c, 0, 70, 70
2, 31868, Note_off_c, 0, 66, 100
2, 31868, Note_off_c, 0, 70, 100
2, 31872, Note_on_c, 0, 68, 70
2, 31872, Note_on_c, 0, 66, 70
2, 32060, Note_off_c, 0, 68, 100
2, 32060, Note_off_c, 0, 66, 100
2, 32064, Note_on_c, 0, 73, 80
2, 32064, Note_on_c, 0, 65, 80
2, 32252, Note_off_c, 0, 73, 100
2, 32252, Note_off_c, 0, 65, 100
2, 32256, Note_on_c, 0, 70, 70
2, 32348, Note_off_c, 0, 70, 100
2, 32352, Note_on_c, 0, 66, 72
2, 32444, Note_off_c, 0, 66, 100
2, 32448, Note_on_c, 0, 65, 75
2, 32540, Note_off_c, 0, 65, 100
2, 32544, Note_on_c, 0, 66, 77
2, 32636, Note_off_c, 0, 66, 100
2, 32640, Note_on_c, 0, 71, 80
2, 32732, Note_off_c, 0, 71, 100
2, 32736, Note_on_c, 0, 78, 83
2, 32828, Note_off_c, 0, 78, 100
2, 32832, Note_on_c, 0, 70, 85
2, 32924, Note_off_c, 0, 70, 100
2, 32928, Note_on_c, 0, 78, 88
2, 33020, Note_off_c, 0, 78, 100
2, 33024, Note_on_c, 0, 75, 91
2, 33116, Note_off_c, 0, 75, 100
2, 33120, Note_on_c, 0, 78, 93
2, 33212, Note_off_c, 0, 78, 100
2, 33216, Note_on_c, 0, 73, 96
2, 33308, Note_off_c, 0, 73, 100
2, 33312, Note_on_c, 0, 78, 99
2, 33404, Note_off_c, 0, 78, 100
2, 33408, Note_on_c, 0, 77, 101
2, 33500, Note_off_c, 0, 77, 100
2, 33504, Note_on_c, 0, 80, 104
2, 33596, Note_off_c, 0, 80, 100
2, 33600, Note_on_c, 0, 77, 107
2, 33692, Note_off_c, 0, 77, 100
2, 33696, Note_on_c, 0, 85, 109
2, 33788, Note_off_c, 0, 85, 100
2, 33792, Note_on_c, 0, 78, 110
2, 33884, Note_off_c, 0, 78, 100
2, 33888, Note_on_c, 0, 82, 110
2, 33980, Note_off_c, 0, 82, 100
2, 33984, Note_on_c, 0, 78, 110
2, 34076, Note_off_c, 0, 78, 100
2, 34080, Note_on_c, 0, 85, 110
2, 34172, Note_off_c, 0, 85, 100
2, 34176, Note_on_c, 0, 78, 110
2, 34268, Note_off_c, 0, 78, 100
2, 34272, Note_on_c, 0, 85, 110
2, 34364, Note_off_c, 0, 85, 100
2, 34368, Note_on_c, 0, 82, 110
2, 34460, Note_off_c, 0, 82, 100
2, 34464, Note_on_c, 0, 85, 110
2, 34556, Note_off_c, 0, 85, 100
2, 34560, Note_on_c, 0, 82, 110
2, 34652, Note_off_c, 0, 82, 100
2, 34656, Note_on_c, 0, 85, 110
2, 34748, Note_off_c, 0, 85, 100
2, 34752, Note_on_c, 0, 82, 110
2, 34844, Note_off_c, 0, 82, 100
2, 34848, Note_on_c, 0, 85, 110
2, 34940, Note_off_c, 0, 85, 100
2, 34944, Note_on_c, 0, 80, 110
2, 35036, Note_off_c, 0, 80, 100
2, 35040, Note_on_c, 0, 83, 110
2, 35132, Note_off_c, 0, 83, 100
2, 35136, Note_on_c, 0, 77, 110
2, 35228, Note_off_c, 0, 77, 100
2, 35232, Note_on_c, 0, 85, 110
2, 35324, Note_off_c, 0, 85, 100
2, 35328, Note_on_c, 0, 82, 110
2, 35420, Note_off_c, 0, 82, 100
2, 35424, Note_on_c, 0, 78, 110
2, 35516, Note_off_c, 0, 78, 100
2, 35520, Note_on_c, 0, 70, 110
2, 35612, Note_off_c, 0, 70, 100
2, 35616, Note_on_c, 0, 78, 110
2, 35708, Note_off_c, 0, 78, 100
2, 35712, Note_on_c, 0, 71, 110
2, 35804, Note_off_c, 0, 71, 100
2, 35808, Note_on_c, 0, 78, 110
2, 35900, Note_off_c, 0, 78, 100
2, 35904, Note_on_c, 0, 70, 110
2, 35996, Note_off_c, 0, 70, 100
2, 36000, Note_on_c, 0, 78, 110
2, 36092, Note_off_c, 0, 78, 100
2, 36096, Note_on_c, 0, 75, 110
2, 36188, Note_off_c, 0, 75, 100
2, 36192, Note_on_c, 0, 78, 110
2, 36284, Note_off_c, 0, 78, 100
2, 36288, Note_on_c, 0, 73, 110
2, 36380, Note_off_c, 0, 73, 100
2, 36384, Note_on_c, 0, 78, 110
2, 36476, Note_off_c, 0, 78, 100
2, 36480, Note_on_c, 0, 77, 110
2, 36572, Note_off_c, 0, 77, 100
2, 36576, Note_on_c, 0, 80, 110
2, 36668, Note_off_c, 0, 80, 100
2, 36672, Note_on_c, 0, 77, 110
2, 36764, Note_off_c, 0, 77, 100
2, 36768, Note_on_c, 0, 85, 110
2, 36860, Note_off_c, 0, 85, 100
2, 36864, Note_on_c, 0, 78, 110
2, 36956, Note_off_c, 0, 78, 100
2, 36960, Note_on_c, 0, 82, 110
2, 37052, Note_off_c, 0, 82, 100
2, 37056, Note_on_c, 0, 78, 110
2, 37148, Note_off_c, 0, 78, 100
2, 37152, Note_on_c, 0, 85, 110
2, 37244, Note_off_c, 0, 85, 100
2, 37248, Note_on_c, 0, 78, 110
2, 37340, Note_off_c, 0, 78, 100
2, 37344, Note_on_c, 0, 82, 110
2, 37436, Note_off_c, 0, 82, 100
2, 37440, Note_on_c, 0, 78, 110
2, 37532, Note_off_c, 0, 78, 100
2, 37536, Note_on_c, 0, 87, 110
2, 37628, Note_off_c, 0, 87, 100
2, 37632, Note_on_c, 0, 78, 110
2, 37724, Note_off_c, 0, 78, 100
2, 37728, Note_on_c, 0, 87, 110
2, 37820, Note_off_c, 0, 87, 100
2, 37824, Note_on_c, 0, 78, 110
2, 37916, Note_off_c, 0, 78, 100
2, 37920, Note_on_c, 0, 87, 110
2, 38012, Note_off_c, 0, 87, 100
2, 38016, Note_on_c, 0, 78, 110
2, 38108, Note_off_c, 0, 78, 100
2, 38112, Note_on_c, 0, 87, 110
2, 38204, Note_off_c, 0, 87, 100
2, 38208, Note_on_c, 0, 78, 110
2, 38300, Note_off_c, 0, 78, 100
2, 38304, Note_on_c, 0, 87, 110
2, 38396, Note_off_c, 0, 87, 100
2, 38400, Note_on_c, 0, 77, 110
2, 38400, Note_on_c, 0, 86, 110
2, 38588, Note_off_c, 0, 77, 100
2, 38588, Note_off_c, 0, 86, 100
2, 38592, Note_on_c, 0, 71, 110
2, 38688, Note_on_c, 0, 70, 110
2, 38756, Note_off_c, 0, 71, 100
2, 38780, Note_off_c, 0, 70, 100
2, 38976, Note_on_c, 0, 70, 110
2, 39072, Note_on_c, 0, 68, 110
2, 39152, Note_off_c, 0, 70, 100
2, 39164, Note_off_c, 0, 68, 100
2, 39360, Note_on_c, 0, 68, 110
2, 39456, Note_on_c, 0, 66, 110
2, 39532, Note_off_c, 0, 68, 100
2, 39548, Note_off_c, 0, 66, 100
2, 39744, Note_on_c, 0, 66, 110
2, 39840, Note_on_c, 0, 65, 110
2, 39920, Note_off_c, 0, 66, 100
2, 39932, Note_off_c, 0, 65, 100
2, 40128, Note_on_c, 0, 65, 110
2, 40224, Note_on_c, 0, 63, 110
2, 40312, Note_off_c, 0, 65, 100
2, 40316, Note_off_c, 0, 63, 100
2, 40512, Note_on_c, 0, 63, 110
2, 40608, Note_on_c, 0, 61, 110
2, 40692, Note_off_c, 0, 63, 100
2, 40700, Note_off_c, 0, 61, 100
2, 40896, Note_on_c, 0, 61, 110
2, 40992, Note_on_c, 0, 59, 110
2, 41068, Note_off_c, 0, 61, 100
2, 41084, Note_off_c, 0, 59, 100
2, 41280, Note_on_c, 0, 59, 110
2, 41376, Note_on_c, 0, 58, 110
2, 41452, Note_off_c, 0, 59, 100
2, 41468, Note_off_c, 0, 58, 100
2, 41664, Note_on_c, 0, 58, 107
2, 41760, Note_on_c, 0, 57, 105
2, 41852, Note_off_c, 0, 58, 100
2, 41852, Note_off_c, 0, 57, 100
2, 42048, Note_on_c, 0, 58, 99
2, 42144, Note_on_c, 0, 56, 97
2, 42220, Note_off_c, 0, 58, 100
2, 42236, Note_off_c, 0, 56, 100
2, 42432, Note_on_c, 0, 58, 91
2, 42524, Note_off_c, 0, 58, 100
2, 42528, Note_on_c, 0, 54, 89
2, 42620, Note_off_c, 0, 54, 100
2, 42816, Note_on_c, 0, 58, 83
2, 42908, Note_off_c, 0, 58, 100
2, 42912, Note_on_c, 0, 53, 81
2, 43004, Note_off_c, 0, 53, 100
2, 43200, Note_on_c, 0, 58, 110
2, 43296, Note_on_c, 0, 63, 110
2, 43388, Note_off_c, 0, 58, 100
2, 43388, Note_off_c, 0, 63, 100
2, 43392, Note_on_c, 0, 63, 110
2, 43488, Note_on_c, 0, 67, 110
2, 43580, Note_off_c, 0, 63, 100
2, 43580, Note_off_c, 0, 67, 100
2, 43584, Note_on_c, 0, 67, 110
2, 43680, Note_on_c, 0, 70, 110
2, 43772, Note_off_c, 0, 67, 100
2, 43772, Note_off_c, 0, 70, 100
2, 43776, Note_on_c, 0, 70, 110
2, 43872, Note_on_c, 0, 75, 110
2, 43964, Note_off_c, 0, 70, 100
2, 43964, Note_off_c, 0, 75, 100
2, 43968, Note_on_c, 0, 75, 110
2, 44064, Note_on_c, 0, 79, 110
2, 44156, Note_off_c, 0, 75, 100
2, 44156, Note_off_c, 0, 79, 100
2, 44160, Note_on_c, 0, 79, 110
2, 44256, Note_on_c, 0, 82, 110
2, 44348, Note_off_c, 0, 79, 100
2, 44348, Note_off_c, 0, 82, 100
2, 44352, Note_on_c, 0, 82, 110
2, 44448, Note_on_c, 0, 87, 110
2, 44540, Note_off_c, 0, 82, 100
2, 44544, Note_on_c, 0, 91, 110
2, 44636, Note_off_c, 0, 87, 100
2, 44732, Note_off_c, 0, 91, 100
2, 44736, Note_on_c, 0, 66, 80
2, 44828, Note_off_c, 0, 66, 100
2, 44832, Note_on_c, 0, 70, 80
2, 44924, Note_off_c, 0, 70, 100
2, 44928, Note_on_c, 0, 63, 80
2, 45020, Note_off_c, 0, 63, 100
2, 45024, Note_on_c, 0, 70, 80
2, 45116, Note_off_c, 0, 70, 100
2, 45120, Note_on_c, 0, 66, 80
2, 45212, Note_off_c, 0, 66, 100
2, 45216, Note_on_c, 0, 70, 80
2, 45308, Note_off_c, 0, 70, 100
2, 45312, Note_on_c, 0, 63, 80
2, 45404, Note_off_c, 0, 63, 100
2, 45408, Note_on_c, 0, 70, 80
2, 45500, Note_off_c, 0, 70, 100
2, 45504, Note_on_c, 0, 66, 80
2, 45596, Note_off_c, 0, 66, 100
2, 45600, Note_on_c, 0, 70, 80
2, 45692, Note_off_c, 0, 70, 100
2, 45696, Note_on_c, 0, 68, 80
2, 45788, Note_off_c, 0, 68, 100
2, 45792, Note_on_c, 0, 70, 80
2, 45884, Note_off_c, 0, 70, 100
2, 45888, Note_on_c, 0, 65, 80
2, 45980, Note_off_c, 0, 65, 100
2, 45984, Note_on_c, 0, 70, 80
2, 46076, Note_off_c, 0, 70, 100
2, 46272, Note_on_c, 0, 58, 110
2, 46368, Note_on_c, 0, 63, 110
2, 46460, Note_off_c, 0, 58, 100
2, 46460, Note_off_c, 0, 63, 100
2, 46464, Note_on_c, 0, 63, 110
2, 46560, Note_on_c, 0, 67, 110
2, 46652, Note_off_c, 0, 63, 100
2, 46652, Note_off_c, 0, 67, 100
2, 46656, Note_on_c, 0, 67, 110
2, 46752, Note_on_c, 0, 70, 110
2, 46844, Note_off_c, 0, 67, 100
2, 46844, Note_off_c, 0, 70, 100
2, 46848, Note_on_c, 0, 70, 110
2, 46944, Note_on_c, 0, 75, 110
2, 47036, Note_off_c, 0, 70, 100
2, 47036, Note_off_c, 0, 75, 100
2, 47040, Note_on_c, 0, 75, 110
2, 47136, Note_on_c, 0, 79, 110
2, 47228, Note_off_c, 0, 75, 100
2, 47228, Note_off_c, 0, 79, 100
2, 47232, Note_on_c, 0, 79, 110
2, 47328, Note_on_c, 0, 82, 110
2, 47420, Note_off_c, 0, 79, 100
2, 47420, Note_off_c, 0, 82, 100
2, 47424, Note_on_c, 0, 82, 110
2, 47520, Note_on_c, 0, 87, 110
2, 47612, Note_off_c, 0, 82, 100
2, 47616, Note_on_c, 0, 91, 110
2, 47708, Note_off_c, 0, 87, 100
2, 47804, Note_off_c, 0, 91, 100
2, 47808, Note_on_c, 0, 66, 80
2, 47900, Note_off_c, 0, 66, 100
2, 47904, Note_on_c, 0, 70, 80
2, 47996, Note_off_c, 0, 70, 100
2, 48000, Note_on_c, 0, 63, 80
2, 48092, Note_off_c, 0, 63, 100
2, 48096, Note_on_c, 0, 70, 80
2, 48188, Note_off_c, 0, 70, 100
2, 48192, Note_on_c, 0, 66, 80
2, 48284, Note_off_c, 0, 66, 100
2, 48288, Note_on_c, 0, 70, 80
2, 48380, Note_off_c, 0, 70, 100
2, 48384, Note_on_c, 0, 63, 80
2, 48476, Note_off_c, 0, 63, 100
2, 48480, Note_on_c, 0, 70, 80
2, 48572, Note_off_c, 0, 70, 100
2, 48576, Note_on_c, 0, 66, 80
2, 48668, Note_off_c, 0, 66, 100
2, 48672, Note_on_c, 0, 70, 80
2, 48764, Note_off_c, 0, 70, 100
2, 48768, Note_on_c, 0, 68, 80
2, 48860, Note_off_c, 0, 68, 100
2, 48864, Note_on_c, 0, 70, 80
2, 48956, Note_off_c, 0, 70, 100
2, 48960, Note_on_c, 0, 65, 80
2, 49052, Note_off_c, 0, 65, 100
2, 49056, Note_on_c, 0, 70, 80
2, 49148, Note_off_c, 0, 70, 100
2, 49152, Note_on_c, 0, 63, 80
2, 49244, Note_off_c, 0, 63, 100
2, 49248, Note_on_c, 0, 66, 81
2, 49340, Note_off_c, 0, 66, 100
2, 49344, Note_on_c, 0, 66, 83
2, 49436, Note_off_c, 0, 66, 100
2, 49440, Note_on_c, 0, 75, 85
2, 49532, Note_off_c, 0, 75, 100
2, 49536, Note_on_c, 0, 65, 87
2, 49628, Note_off_c, 0, 65, 100
2, 49632, Note_on_c, 0, 74, 89
2, 49724, Note_off_c, 0, 74, 100
2, 49728, Note_on_c, 0, 74, 91
2, 49820, Note_off_c, 0, 74, 100
2, 49824, Note_on_c, 0, 77, 93
2, 49916, Note_off_c, 0, 77, 100
2, 49920, Note_on_c, 0, 66, 95
2, 50012, Note_off_c, 0, 66, 100
2, 50016, Note_on_c, 0, 75, 97
2, 50108, Note_off_c, 0, 75, 100
2, 50112, Note_on_c, 0, 75, 99
2, 50204, Note_off_c, 0, 75, 100
2, 50208, Note_on_c, 0, 78, 101
2, 50300, Note_off_c, 0, 78, 100
2, 50304, Note_on_c, 0, 74, 103
2, 50396, Note_off_c, 0, 74, 100
2, 50400, Note_on_c, 0, 77, 105
2, 50492, Note_off_c, 0, 77, 100
2, 50496, Note_on_c, 0, 77, 107
2, 50588, Note_off_c, 0, 77, 100
2, 50592, Note_on_c, 0, 80, 109
2, 50684, Note_off_c, 0, 80, 100
2, 50688, Note_on_c, 0, 66, 110
2, 50780, Note_off_c, 0, 66, 100
2, 50784, Note_on_c, 0, 75, 110
2, 50876, Note_off_c, 0, 75, 100
2, 50880, Note_on_c, 0, 75, 110
2, 50972, Note_off_c, 0, 75, 100
2, 50976, Note_on_c, 0, 78, 110
2, 51068, Note_off_c, 0, 78, 100
2, 51072, Note_on_c, 0, 74, 110
2, 51164, Note_off_c, 0, 74, 100
2, 51168, Note_on_c, 0, 77, 110
2, 51260, Note_off_c, 0, 77, 100
2, 51264, Note_on_c, 0, 77, 110
2, 51356, Note_off_c, 0, 77, 100
2, 51360, Note_on_c, 0, 80, 110
2, 51452, Note_off_c, 0, 80, 100
2, 51456, Note_on_c, 0, 75, 110
2, 51548, Note_off_c, 0, 75, 100
2, 51552, Note_on_c, 0, 78, 110
2, 51644, Note_off_c, 0, 78, 100
2, 51648, Note_on_c, 0, 78, 110
2, 51740, Note_off_c, 0, 78, 100
2, 51744, Note_on_c, 0, 87, 110
2, 51836, Note_off_c, 0, 87, 100
2, 51840, Note_on_c, 0, 77, 110
2, 51932, Note_off_c, 0, 77, 100
2, 51936, Note_on_c, 0, 86, 110
2, 52028, Note_off_c, 0, 86, 100
2, 52032, Note_on_c, 0, 80, 110
2, 52124, Note_off_c, 0, 80, 100
2, 52128, Note_on_c, 0, 89, 110
2, 52220, Note_off_c, 0, 89, 100
2, 52224, Note_on_c, 0, 63, 80
2, 52316, Note_off_c, 0, 63, 100
2, 52320, Note_on_c, 0, 66, 81
2, 52412, Note_off_c, 0, 66, 100
2, 52416, Note_on_c, 0, 66, 83
2, 52508, Note_off_c, 0, 66, 100
2, 52512, Note_on_c, 0, 75, 85
2, 52604, Note_off_c, 0, 75, 100
2, 52608, Note_on_c, 0, 65, 87
2, 52700, Note_off_c, 0, 65, 100
2, 52704, Note_on_c, 0, 74, 89
2, 52796, Note_off_c, 0, 74, 100
2, 52800, Note_on_c, 0, 74, 91
2, 52892, Note_off_c, 0, 74, 100
2, 52896, Note_on_c, 0, 77, 93
2, 52988, Note_off_c, 0, 77, 100
2, 52992, Note_on_c, 0, 66, 95
2, 53084, Note_off_c, 0, 66, 100
2, 53088, Note_on_c, 0, 75, 97
2, 53180, Note_off_c, 0, 75, 100
2, 53184, Note_on_c, 0, 75, 99
2, 53276, Note_off_c, 0, 75, 100
2, 53280, Note_on_c, 0, 78, 101
2, 53372, Note_off_c, 0, 78, 100
2, 53376, Note_on_c, 0, 74, 103
2, 53468, Note_off_c, 0, 74, 100
2, 53472, Note_on_c, 0, 77, 105
2, 53564, Note_off_c, 0, 77, 100
2, 53568, Note_on_c, 0, 77, 107
2, 53660, Note_off_c, 0, 77, 100
2, 53664, Note_on_c, 0, 80, 109
2, 53756, Note_off_c, 0, 80, 100
2, 53760, Note_on_c, 0, 66, 110
2, 53852, Note_off_c, 0, 66, 100
2, 53856, Note_on_c, 0, 75, 110
2, 53948, Note_off_c, 0, 75, 100
2, 53952, Note_on_c, 0, 75, 110
2, 54044, Note_off_c, 0, 75, 100
2, 54048, Note_on_c, 0, 78, 110
2, 54140, Note_off_c, 0, 78, 100
2, 54144, Note_on_c, 0, 74, 110
2, 54236, Note_off_c, 0, 74, 100
2, 54240, Note_on_c, 0, 77, 110
2, 54332, Note_off_c, 0, 77, 100
2, 54336, Note_on_c, 0, 77, 110
2, 54428, Note_off_c, 0, 77, 100
2, 54432, Note_on_c, 0, 80, 110
2, 54524, Note_off_c, 0, 80, 100
2, 54528, Note_on_c, 0, 75, 110
2, 54620, Note_off_c, 0, 75, 100
2, 54624, Note_on_c, 0, 78, 110
2, 54716, Note_off_c, 0, 78, 100
2, 54720, Note_on_c, 0, 78, 110
2, 54812, Note_off_c, 0, 78, 100
2, 54816, Note_on_c, 0, 87, 110
2, 54908, Note_off_c, 0, 87, 100
2, 54912, Note_on_c, 0, 76, 110
2, 55004, Note_off_c, 0, 76, 100
2, 55008, Note_on_c, 0, 78, 110
2, 55100, Note_off_c, 0, 78, 100
2, 55104, Note_on_c, 0, 78, 110
2, 55196, Note_off_c, 0, 78, 100
2, 55200, Note_on_c, 0, 88, 110
2, 55292, Note_off_c, 0, 88, 100
2, 55296, Note_on_c, 0, 75, 110
2, 55392, Note_on_c, 0, 78, 110
2, 55480, Note_off_c, 0, 75, 100
2, 55488, Note_on_c, 0, 83, 110
2, 55560, Note_off_c, 0, 78, 100
2, 55584, Note_on_c, 0, 87, 110
2, 55664, Note_off_c, 0, 83, 100
2, 55680, Note_on_c, 0, 83, 110
2, 55764, Note_off_c, 0, 87, 100
2, 55776, Note_on_c, 0, 87, 110
2, 55852, Note_off_c, 0, 83, 100
2, 55872, Note_on_c, 0, 83, 110
2, 55952, Note_off_c, 0, 87, 100
2, 55968, Note_on_c, 0, 87, 110
2, 56044, Note_off_c, 0, 83, 100
2, 56060, Note_off_c, 0, 87, 100
2, 56064, Note_on_c, 0, 89, 120
2, 56064, Note_on_c, 0, 86, 120
2, 56064, Note_on_c, 0, 83, 120
2, 56064, Note_on_c, 0, 77, 120
2, 56636, Note_off_c, 0, 89, 100
2, 56636, Note_off_c, 0, 86, 100
2, 56636, Note_off_c, 0, 83, 100
2, 56636, Note_off_c, 0, 77, 100
2, 56640, Note_on_c, 0, 58, 120
2, 56736, Note_on_c, 0, 59, 120
2, 56820, Note_off_c, 0, 58, 100
2, 56908, Note_off_c, 0, 59, 100
2, 57024, Note_on_c, 0, 58, 120
2, 57120, Note_on_c, 0, 59, 120
2, 57200, Note_off_c, 0, 58, 100
2, 57292, Note_off_c, 0, 59, 100
2, 57408, Note_on_c, 0, 61, 120
2, 57504, Note_on_c, 0, 62, 120
2, 57584, Note_off_c, 0, 61, 100
2, 57684, Note_off_c, 0, 62, 100
2, 57792, Note_on_c, 0, 64, 120
2, 57888, Note_on_c, 0, 65, 120
2, 57976, Note_off_c, 0, 64, 100
2, 58068, Note_off_c, 0, 65, 100
2, 58176, Note_on_c, 0, 70, 120
2, 58272, Note_on_c, 0, 71, 120
2, 58336, Note_off_c, 0, 70, 100
2, 58440, Note_off_c, 0, 71, 100
2, 58560, Note_on_c, 0, 73, 120
2, 58656, Note_on_c, 0, 74, 120
2, 58736, Note_off_c, 0, 73, 100
2, 58820, Note_off_c, 0, 74, 100
2, 58944, Note_on_c, 0, 76, 120
2, 59040, Note_on_c, 0, 77, 120
2, 59128, Note_off_c, 0, 76, 100
2, 59204, Note_off_c, 0, 77, 100
2, 59328, Note_on_c, 0, 82, 120
2, 59424, Note_on_c, 0, 83, 120
2, 59488, Note_off_c, 0, 82, 100
2, 59592, Note_off_c, 0, 83, 100
2, 59712, Note_on_c, 0, 85, 120
2, 59808, Note_on_c, 0, 86, 120
2, 59872, Note_off_c, 0, 85, 100
2, 59976, Note_off_c, 0, 86, 100
2, 60096, Note_on_c, 0, 88, 80
2, 60192, Note_on_c, 0, 89, 80
2, 60272, Note_off_c, 0, 88, 100
2, 60352, Note_off_c, 0, 89, 100
2, 60480, Note_on_c, 0, 86, 80
2, 60576, Note_on_c, 0, 89, 80
2, 60664, Note_off_c, 0, 86, 100
2, 60744, Note_off_c, 0, 89, 100
2, 60864, Note_on_c, 0, 88, 80
2, 60960, Note_on_c, 0, 89, 80
2, 61028, Note_off_c, 0, 88, 100
2, 61144, Note_off_c, 0, 89, 100
2, 61248, Note_on_c, 0, 86, 80
2, 61344, Note_on_c, 0, 89, 80
2, 61424, Note_off_c, 0, 86, 100
2, 61524, Note_off_c, 0, 89, 100
2, 61632, Note_on_c, 0, 88, 80
2, 61728, Note_on_c, 0, 89, 80
2, 61796, Note_off_c, 0, 88, 100
2, 61908, Note_off_c, 0, 89, 100
2, 62016, Note_on_c, 0, 86, 80
2, 62112, Note_on_c, 0, 89, 80
2, 62180, Note_off_c, 0, 86, 100
2, 62292, Note_off_c, 0, 89, 100
2, 62400, Note_on_c, 0, 86, 80
2, 62496, Note_on_c, 0, 89, 80
2, 62580, Note_off_c, 0, 86, 100
2, 62668, Note_off_c, 0, 89, 100
2, 62784, Note_on_c, 0, 76, 80
2, 62880, Note_on_c, 0, 77, 80
2, 62960, Note_off_c, 0, 76, 100
2, 63044, Note_off_c, 0, 77, 100
2, 63168, Note_on_c, 0, 76, 80
2, 63264, Note_on_c, 0, 77, 80
2, 63332, Note_off_c, 0, 76, 100
2, 63448, Note_off_c, 0, 77, 100
2, 63552, Note_on_c, 0, 74, 80
2, 63648, Note_on_c, 0, 77, 80
2, 63724, Note_off_c, 0, 74, 100
2, 63816, Note_off_c, 0, 77, 100
2, 63936, Note_on_c, 0, 76, 80
2, 64032, Note_on_c, 0, 77, 80
2, 64116, Note_off_c, 0, 76, 100
2, 64208, Note_off_c, 0, 77, 100
2, 64320, Note_on_c, 0, 74, 80
2, 64416, Note_on_c, 0, 77, 80
2, 64492, Note_off_c, 0, 74, 100
2, 64592, Note_off_c, 0, 77, 100
2, 64704, Note_on_c, 0, 76, 70
2, 64800, Note_on_c, 0, 77, 70
2, 64892, Note_off_c, 0, 76, 100
2, 64980, Note_off_c, 0, 77, 100
2, 65088, Note_on_c, 0, 74, 70
2, 65184, Note_on_c, 0, 77, 70
2, 65260, Note_off_c, 0, 74, 100
2, 65360, Note_off_c, 0, 77, 100
2, 65472, Note_on_c, 0, 74, 70
2, 65568, Note_on_c, 0, 77, 70
2, 65644, Note_off_c, 0, 74, 100
2, 65756, Note_off_c, 0, 77, 100
2, 65856, Note_on_c, 0, 74, 70
2, 65952, Note_on_c, 0, 77, 70
2, 66032, Note_off_c, 0, 74, 100
2, 66128, Note_off_c, 0, 77, 100
2, 66240, Note_on_c, 0, 85, 70
2, 66336, Note_on_c, 0, 86, 70
2, 66424, Note_off_c, 0, 85, 100
2, 66504, Note_off_c, 0, 86, 100
2, 66624, Note_on_c, 0, 82, 70
2, 66720, Note_on_c, 0, 83, 70
2, 66804, Note_off_c, 0, 82, 100
2, 66888, Note_off_c, 0, 83, 100
2, 67008, Note_on_c, 0, 85, 70
2, 67104, Note_on_c, 0, 86, 70
2, 67192, Note_off_c, 0, 85, 100
2, 67268, Note_off_c, 0, 86, 100
2, 67392, Note_on_c, 0, 82, 70
2, 67488, Note_on_c, 0, 83, 70
2, 67552, Note_off_c, 0, 82, 100
2, 67580, Note_off_c, 0, 83, 100
2, 67584, Note_on_c, 0, 89, 110
2, 67584, Note_on_c, 0, 83, 110
2, 67584, Note_on_c, 0, 77, 110
2, 68156, Note_off_c, 0, 89, 100
2, 68156, Note_off_c, 0, 83, 100
2, 68156, Note_off_c, 0, 77, 100
2, 68160, Note_on_c, 0, 90, 110
2, 68160, Note_on_c, 0, 82, 110
2, 68160, Note_on_c, 0, 78, 110
2, 68348, Note_off_c, 0, 90, 100
2, 68348, Note_off_c, 0, 82, 100
2, 68348, Note_off_c, 0, 78, 100
2, 68352, Note_on_c, 0, 85, 110
2, 68352, Note_on_c, 0, 82, 110
2, 68352, Note_on_c, 0, 78, 110
2, 68540, Note_off_c, 0, 85, 100
2, 68540, Note_off_c, 0, 82, 100
2, 68540, Note_off_c, 0, 78, 100
2, 68928, Note_on_c, 0, 63, 80
2, 68928, Note_on_c, 0, 59, 80
2, 69116, Note_off_c, 0, 63, 100
2, 69116, Note_off_c, 0, 59, 100
2, 69120, Note_on_c, 0, 64, 80
2, 69120, Note_on_c, 0, 56, 80
2, 69404, Note_off_c, 0, 64, 100
2, 69404, Note_off_c, 0, 56, 100
2, 69408, Note_on_c, 0, 63, 80
2, 69408, Note_on_c, 0, 54, 80
2, 69500, Note_off_c, 0, 63, 100
2, 69500, Note_off_c, 0, 54, 100
2, 69504, Note_on_c, 0, 61, 80
2, 69504, Note_on_c, 0, 52, 80
2, 69692, Note_off_c, 0, 61, 100
2, 69692, Note_off_c, 0, 52, 100
2, 69696, Note_on_c, 0, 59, 80
2, 69696, Note_on_c, 0, 51, 80
2, 69884, Note_off_c, 0, 59, 100
2, 69884, Note_off_c, 0, 51, 100
2, 69888, Note_on_c, 0, 49, 80
2, 69888, Note_on_c, 0, 58, 80
2, 70268, Note_off_c, 0, 49, 100
2, 70268, Note_off_c, 0, 58, 100
2, 70656, Note_on_c, 0, 87, 110
2, 70656, Note_on_c, 0, 83, 110
2, 70656, Note_on_c, 0, 78, 110
2, 70656, Note_on_c, 0, 75, 110
2, 71228, Note_off_c, 0, 87, 100
2, 71228, Note_off_c, 0, 83, 100
2, 71228, Note_off_c, 0, 78, 100
2, 71228, Note_off_c, 0, 75, 100
2, 71232, Note_on_c, 0, 88, 110
2, 71232, Note_on_c, 0, 83, 110
2, 71232, Note_on_c, 0, 80, 110
2, 71232, Note_on_c, 0, 76, 110
2, 71420, Note_off_c, 0, 88, 100
2, 71420, Note_off_c, 0, 83, 100
2, 71420, Note_off_c, 0, 80, 100
2, 71420, Note_off_c, 0, 76, 100
2, 71424, Note_on_c, 0, 90, 110
2, 71424, Note_on_c, 0, 87, 110
2, 71424, Note_on_c, 0, 81, 110
2, 71424, Note_on_c, 0, 78, 110
2, 71804, Note_off_c, 0, 90, 100
2, 71804, Note_off_c, 0, 87, 100
2, 71804, Note_off_c, 0, 81, 100
2, 71804, Note_off_c, 0, 78, 100
2, 72000, Note_on_c, 0, 59, 80
2, 72000, Note_on_c, 0, 56, 80
2, 72188, Note_off_c, 0, 59, 100
2, 72188, Note_off_c, 0, 56, 100
2, 72192, Note_on_c, 0, 61, 80
2, 72192, Note_on_c, 0, 57, 80
2, 72476, Note_off_c, 0, 61, 100
2, 72476, Note_off_c, 0, 57, 100
2, 72480, Note_on_c, 0, 57, 80
2, 72480, Note_on_c, 0, 54, 80
2, 72572, Note_off_c, 0, 57, 100
2, 72572, Note_off_c, 0, 54, 100
2, 72576, Note_on_c, 0, 56, 80
2, 72576, Note_on_c, 0, 52, 80
2, 72764, Note_off_c, 0, 56, 100
2, 72764, Note_off_c, 0, 52, 100
2, 72768, Note_on_c, 0, 54, 80
2, 72768, Note_on_c, 0, 51, 80
2, 72956, Note_off_c, 0, 54, 100
2, 72956, Note_off_c, 0, 51, 100
2, 72960, Note_on_c, 0, 56, 80
2, 72960, Note_on_c, 0, 52, 80
2, 73340, Note_off_c, 0, 56, 100
2, 73340, Note_off_c, 0, 52, 100
2, 73728, Note_on_c, 0, 88, 110
2, 73728, Note_on_c, 0, 83, 110
2, 73728, Note_on_c, 0, 76, 110
2, 74300, Note_off_c, 0, 88, 100
2, 74300, Note_off_c, 0, 83, 100
2, 74300, Note_off_c, 0, 76, 100
2, 74304, Note_on_c, 0, 87, 110
2, 74304, Note_on_c, 0, 83, 110
2, 74304, Note_on_c, 0, 75, 110
2, 74492, Note_off_c, 0, 87, 100
2, 74492, Note_off_c, 0, 83, 100
2, 74492, Note_off_c, 0, 75, 100
2, 74496, Note_on_c, 0, 92, 110
2, 74496, Note_on_c, 0, 83, 110
2, 74496, Note_on_c, 0, 80, 110
2, 74684, Note_off_c, 0, 92, 100
2, 74684, Note_off_c, 0, 83, 100
2, 74684, Note_off_c, 0, 80, 100
2, 75072, Note_on_c, 0, 66, 80
2, 75072, Note_on_c, 0, 59, 80
2, 75072, Note_on_c, 0, 54, 80
2, 75260, Note_off_c, 0, 66, 100
2, 75260, Note_off_c, 0, 59, 100
2, 75260, Note_off_c, 0, 54, 100
2, 75264, Note_on_c, 0, 59, 80
2, 75264, Note_on_c, 0, 56, 80
2, 75264, Note_on_c, 0, 64, 80
2, 75548, Note_off_c, 0, 64, 100
2, 75552, Note_on_c, 0, 63, 80
2, 75644, Note_off_c, 0, 59, 100
2, 75644, Note_off_c, 0, 56, 100
2, 75644, Note_off_c, 0, 63, 100
2, 75648, Note_on_c, 0, 61, 80
2, 75648, Note_on_c, 0, 59, 80
2, 75648, Note_on_c, 0, 56, 80
2, 75836, Note_off_c, 0, 61, 100
2, 75836, Note_off_c, 0, 59, 100
2, 75836, Note_off_c, 0, 56, 100
2, 75840, Note_on_c, 0, 58, 80
2, 75840, Note_on_c, 0, 66, 80
2, 76028, Note_off_c, 0, 58, 100
2, 76028, Note_off_c, 0, 66, 100
2, 76032, Note_on_c, 0, 63, 80
2, 76124, Note_off_c, 0, 63, 100
2, 76128, Note_on_c, 0, 59, 81
2, 76220, Note_off_c, 0, 59, 100
2, 76224, Note_on_c, 0, 58, 83
2, 76316, Note_off_c, 0, 58, 100
2, 76320, Note_on_c, 0, 59, 85
2, 76412, Note_off_c, 0, 59, 100
2, 76416, Note_on_c, 0, 64, 87
2, 76508, Note_off_c, 0, 64, 100
2, 76512, Note_on_c, 0, 71, 89
2, 76604, Note_off_c, 0, 71, 100
2, 76608, Note_on_c, 0, 63, 91
2, 76700, Note_off_c, 0, 63, 100
2, 76704, Note_on_c, 0, 71, 93
2, 76796, Note_off_c, 0, 71, 100
2, 76800, Note_on_c, 0, 68, 95
2, 76892, Note_off_c, 0, 68, 100
2, 76896, Note_on_c, 0, 71, 97
2, 76988, Note_off_c, 0, 71, 100
2, 76992, Note_on_c, 0, 66, 99
2, 77084, Note_off_c, 0, 66, 100
2, 77088, Note_on_c, 0, 71, 101
2, 77180, Note_off_c, 0, 71, 100
2, 77184, Note_on_c, 0, 70, 103
2, 77276, Note_off_c, 0, 70, 100
2, 77280, Note_on_c, 0, 73, 105
2, 77372, Note_off_c, 0, 73, 100
2, 77376, Note_on_c, 0, 70, 107
2, 77468, Note_off_c, 0, 70, 100
2, 77472, Note_on_c, 0, 78, 109
2, 77564, Note_off_c, 0, 78, 100
2, 77568, Note_on_c, 0, 71, 110
2, 77660, Note_off_c, 0, 71, 100
2, 77664, Note_on_c, 0, 75, 110
2, 77756, Note_off_c, 0, 75, 100
2, 77760, Note_on_c, 0, 71, 110
2, 77852, Note_off_c, 0, 71, 100
2, 77856, Note_on_c, 0, 78, 110
2, 77948, Note_off_c, 0, 78, 100
2, 77952, Note_on_c, 0, 71, 110
2, 78044, Note_off_c, 0, 71, 100
2, 78048, Note_on_c, 0, 78, 110
2, 78140, Note_off_c, 0, 78, 100
2, 78144, Note_on_c, 0, 75, 110
2, 78236, Note_off_c, 0, 75, 100
2, 78240, Note_on_c, 0, 78, 110
2, 78332, Note_off_c, 0, 78, 100
2, 78336, Note_on_c, 0, 75, 110
2, 78428, Note_off_c, 0, 75, 100
2, 78432, Note_on_c, 0, 78, 110
2, 78524, Note_off_c, 0, 78, 100
2, 78528, Note_on_c, 0, 75, 110
2, 78620, Note_off_c, 0, 75, 100
2, 78624, Note_on_c, 0, 78, 110
2, 78716, Note_off_c, 0, 78, 100
2, 78720, Note_on_c, 0, 73, 110
2, 78812, Note_off_c, 0, 73, 100
2, 78816, Note_on_c, 0, 76, 110
2, 78908, Note_off_c, 0, 76, 100
2, 78912, Note_on_c, 0, 73, 110
2, 79004, Note_off_c, 0, 73, 100
2, 79008, Note_on_c, 0, 78, 110
2, 79100, Note_off_c, 0, 78, 100
2, 79104, Note_on_c, 0, 75, 110
2, 79196, Note_off_c, 0, 75, 100
2, 79200, Note_on_c, 0, 71, 110
2, 79292, Note_off_c, 0, 71, 100
2, 79296, Note_on_c, 0, 63, 110
2, 79388, Note_off_c, 0, 63, 100
2, 79392, Note_on_c, 0, 71, 110
2, 79484, Note_off_c, 0, 71, 100
2, 79488, Note_on_c, 0, 64, 110
2, 79580, Note_off_c, 0, 64, 100
2, 79584, Note_on_c, 0, 71, 110
2, 79676, Note_off_c, 0, 71, 100
2, 79680, Note_on_c, 0, 63, 110
2, 79772, Note_off_c, 0, 63, 100
2, 79776, Note_on_c, 0, 71, 110
2, 79868, Note_off_c, 0, 71, 100
2, 79872, Note_on_c, 0, 68, 110
2, 79964, Note_off_c, 0, 68, 100
2, 79968, Note_on_c, 0, 71, 110
2, 80060, Note_off_c, 0, 71, 100
2, 80064, Note_on_c, 0, 66, 110
2, 80156, Note_off_c, 0, 66, 100
2, 80160, Note_on_c, 0, 71, 110
2, 80252, Note_off_c, 0, 71, 100
2, 80256, Note_on_c, 0, 70, 110
2, 80348, Note_off_c, 0, 70, 100
2, 80352, Note_on_c, 0, 73, 110
2, 80444, Note_off_c, 0, 73, 100
2, 80448, Note_on_c, 0, 70, 110
2, 80540, Note_off_c, 0, 70, 100
2, 80544, Note_on_c, 0, 78, 110
2, 80636, Note_off_c, 0, 78, 100
2, 80640, Note_on_c, 0, 71, 110
2, 80732, Note_off_c, 0, 71, 100
2, 80736, Note_on_c, 0, 75, 110
2, 80828, Note_off_c, 0, 75, 100
2, 80832, Note_on_c, 0, 71, 110
2, 80924, Note_off_c, 0, 71, 100
2, 80928, Note_on_c, 0, 78, 110
2, 81020, Note_off_c, 0, 78, 100
2, 81024, Note_on_c, 0, 71, 110
2, 81116, Note_off_c, 0, 71, 100
2, 81120, Note_on_c, 0, 78, 110
2, 81212, Note_off_c, 0, 78, 100
2, 81216, Note_on_c, 0, 74, 110
2, 81308, Note_off_c, 0, 74, 100
2, 81312, Note_on_c, 0, 78, 110
2, 81404, Note_off_c, 0, 78, 100
2, 81408, Note_on_c, 0, 74, 110
2, 81500, Note_off_c, 0, 74, 100
2, 81504, Note_on_c, 0, 83, 110
2, 81596, Note_off_c, 0, 83, 100
2, 81600, Note_on_c, 0, 74, 110
2, 81692, Note_off_c, 0, 74, 100
2, 81696, Note_on_c, 0, 83, 110
2, 81788, Note_off_c, 0, 83, 100
2, 81792, Note_on_c, 0, 73, 110
2, 81792, Note_on_c, 0, 77, 110
2, 81884, Note_off_c, 0, 73, 100
2, 81884, Note_off_c, 0, 77, 100
2, 81888, Note_on_c, 0, 83, 110
2, 81980, Note_off_c, 0, 83, 100
2, 81984, Note_on_c, 0, 80, 110
2, 81984, Note_on_c, 0, 73, 110
2, 82076, Note_off_c, 0, 80, 100
2, 82076, Note_off_c, 0, 73, 100
2, 82080, Note_on_c, 0, 83, 110
2, 82172, Note_off_c, 0, 83, 100
2, 82176, Note_on_c, 0, 78, 110
2, 82176, Note_on_c, 0, 73, 110
2, 82268, Note_off_c, 0, 78, 100
2, 82268, Note_off_c, 0, 73, 100
2, 82272, Note_on_c, 0, 81, 110
2, 82364, Note_off_c, 0, 81, 100
2, 82368, Note_on_c, 0, 78, 110
2, 82368, Note_on_c, 0, 73, 110
2, 82460, Note_off_c, 0, 78, 100
2, 82460, Note_off_c, 0, 73, 100
2, 82464, Note_on_c, 0, 81, 110
2, 82556, Note_off_c, 0, 81, 100
2, 82560, Note_on_c, 0, 78, 110
2, 82560, Note_on_c, 0, 73, 110
2, 82652, Note_off_c, 0, 78, 100
2, 82652, Note_off_c, 0, 73, 100
2, 82656, Note_on_c, 0, 81, 110
2, 82748, Note_off_c, 0, 81, 100
2, 82752, Note_on_c, 0, 78, 110
2, 82752, Note_on_c, 0, 73, 110
2, 82844, Note_off_c, 0, 78, 100
2, 82844, Note_off_c, 0, 73, 100
2, 82848, Note_on_c, 0, 81, 110
2, 82940, Note_off_c, 0, 81, 100
2, 82944, Note_on_c, 0, 78, 110
2, 82944, Note_on_c, 0, 73, 110
2, 83036, Note_off_c, 0, 78, 100
2, 83036, Note_off_c, 0, 73, 100
2, 83040, Note_on_c, 0, 81, 110
2, 83132, Note_off_c, 0, 81, 100
2, 83136, Note_on_c, 0, 73, 110
2, 83136, Note_on_c, 0, 69, 110
2, 83228, Note_off_c, 0, 73, 100
2, 83228, Note_off_c, 0, 69, 100
2, 83232, Note_on_c, 0, 78, 110
2, 83324, Note_off_c, 0, 78, 100
2, 83328, Note_on_c, 0, 73, 110
2, 83328, Note_on_c, 0, 66, 110
2, 83420, Note_off_c, 0, 73, 100
2, 83420, Note_off_c, 0, 66, 100
2, 83424, Note_on_c, 0, 78, 110
2, 83516, Note_off_c, 0, 78, 100
2, 83520, Note_on_c, 0, 72, 110
2, 83520, Note_on_c, 0, 66, 110
2, 83612, Note_off_c, 0, 72, 100
2, 83612, Note_off_c, 0, 66, 100
2, 83616, Note_on_c, 0, 78, 110
2, 83708, Note_off_c, 0, 78, 100
2, 83712, Note_on_c, 0, 73, 110
2, 83712, Note_on_c, 0, 65, 110
2, 83712, Note_on_c, 0, 77, 110
2, 83900, Note_off_c, 0, 73, 100
2, 83900, Note_off_c, 0, 65, 100
2, 83900, Note_off_c, 0, 77, 100
2, 83904, Note_on_c, 0, 73, 110
2, 84000, Note_on_c, 0, 71, 110
2, 84068, Note_off_c, 0, 73, 100
2, 84092, Note_off_c, 0, 71, 100
2, 84288, Note_on_c, 0, 71, 110
2, 84384, Note_on_c, 0, 69, 110
2, 84456, Note_off_c, 0, 71, 100
2, 84476, Note_off_c, 0, 69, 100
2, 84672, Note_on_c, 0, 69, 110
2, 84768, Note_on_c, 0, 68, 110
2, 84852, Note_off_c, 0, 69, 100
2, 84860, Note_off_c, 0, 68, 100
2, 85056, Note_on_c, 0, 68, 110
2, 85152, Note_on_c, 0, 66, 110
2, 85228, Note_off_c, 0, 68, 100
2, 85244, Note_off_c, 0, 66, 100
2, 85440, Note_on_c, 0, 66, 110
2, 85536, Note_on_c, 0, 65, 110
2, 85616, Note_off_c, 0, 66, 100
2, 85628, Note_off_c, 0, 65, 100
2, 85824, Note_on_c, 0, 65, 110
2, 85920, Note_on_c, 0, 62, 110
2, 86008, Note_off_c, 0, 65, 100
2, 86012, Note_off_c, 0, 62, 100
2, 86208, Note_on_c, 0, 62, 110
2, 86304, Note_on_c, 0, 61, 110
2, 86384, Note_off_c, 0, 62, 100
2, 86396, Note_off_c, 0, 61, 100
2, 86592, Note_on_c, 0, 61, 110
2, 86688, Note_on_c, 0, 60, 110
2, 86776, Note_off_c, 0, 61, 100
2, 86780, Note_off_c, 0, 60, 100
2, 86976, Note_on_c, 0, 61, 98
2, 87072, Note_on_c, 0, 60, 96
2, 87152, Note_off_c, 0, 61, 100
2, 87164, Note_off_c, 0, 60, 100
2, 87360, Note_on_c, 0, 61, 92
2, 87456, Note_on_c, 0, 59, 91
2, 87540, Note_off_c, 0, 61, 100
2, 87548, Note_off_c, 0, 59, 100
2, 87744, Note_on_c, 0, 61, 80
2, 87840, Note_on_c, 0, 57, 80
2, 87920, Note_off_c, 0, 61, 100
2, 87932, Note_off_c, 0, 57, 100
2, 88128, Note_on_c, 0, 61, 80
2, 88224, Note_on_c, 0, 56, 80
2, 88312, Note_off_c, 0, 61, 100
2, 88316, Note_off_c, 0, 56, 100
2, 88512, Note_on_c, 0, 58, 110
2, 88608, Note_on_c, 0, 66, 110
2, 88700, Note_off_c, 0, 58, 100
2, 88700, Note_off_c, 0, 66, 100
2, 88704, Note_on_c, 0, 66, 110
2, 88800, Note_on_c, 0, 70, 110
2, 88892, Note_off_c, 0, 66, 100
2, 88892, Note_off_c, 0, 70, 100
2, 88896, Note_on_c, 0, 70, 110
2, 88992, Note_on_c, 0, 73, 110
2, 89084, Note_off_c, 0, 70, 100
2, 89084, Note_off_c, 0, 73, 100
2, 89088, Note_on_c, 0, 73, 110
2, 89184, Note_on_c, 0, 78, 110
2, 89276, Note_off_c, 0, 73, 100
2, 89276, Note_off_c, 0, 78, 100
2, 89280, Note_on_c, 0, 78, 110
2, 89376, Note_on_c, 0, 82, 110
2, 89468, Note_off_c, 0, 78, 100
2, 89468, Note_off_c, 0, 82, 100
2, 89472, Note_on_c, 0, 82, 110
2, 89568, Note_on_c, 0, 85, 110
2, 89660, Note_off_c, 0, 82, 100
2, 89660, Note_off_c, 0, 85, 100
2, 89664, Note_on_c, 0, 85, 110
2, 89760, Note_on_c, 0, 94, 110
2, 89852, Note_off_c, 0, 85, 100
2, 89852, Note_off_c, 0, 94, 100
2, 89856, Note_on_c, 0, 94, 110
2, 90044, Note_off_c, 0, 94, 100
2, 90048, Note_on_c, 0, 70, 80
2, 90140, Note_off_c, 0, 70, 100
2, 90144, Note_on_c, 0, 73, 80
2, 90236, Note_off_c, 0, 73, 100
2, 90240, Note_on_c, 0, 66, 80
2, 90332, Note_off_c, 0, 66, 100
2, 90336, Note_on_c, 0, 73, 80
2, 90428, Note_off_c, 0, 73, 100
2, 90432, Note_on_c, 0, 69, 80
2, 90524, Note_off_c, 0, 69, 100
2, 90528, Note_on_c, 0, 73, 80
2, 90620, Note_off_c, 0, 73, 100
2, 90624, Note_on_c, 0, 66, 80
2, 90716, Note_off_c, 0, 66, 100
2, 90720, Note_on_c, 0, 73, 80
2, 90812, Note_off_c, 0, 73, 100
2, 90816, Note_on_c, 0, 69, 80
2, 90908, Note_off_c, 0, 69, 100
2, 90912, Note_on_c, 0, 73, 80
2, 91004, Note_off_c, 0, 73, 100
2, 91008, Note_on_c, 0, 71, 80
2, 91100, Note_off_c, 0, 71, 100
2, 91104, Note_on_c, 0, 73, 80
2, 91196, Note_off_c, 0, 73, 100
2, 91200, Note_on_c, 0, 68, 80
2, 91292, Note_off_c, 0, 68, 100
2, 91296, Note_on_c, 0, 73, 80
2, 91388, Note_off_c, 0, 73, 100
2, 91584, Note_on_c, 0, 58, 110
2, 91680, Note_on_c, 0, 66, 110
2, 91772, Note_off_c, 0, 58, 100
2, 91772, Note_off_c, 0, 66, 100
2, 91776, Note_on_c, 0, 66, 110
2, 91872, Note_on_c, 0, 70, 110
2, 91964, Note_off_c, 0, 66, 100
2, 91964, Note_off_c, 0, 70, 100
2, 91968, Note_on_c, 0, 70, 110
2, 92064, Note_on_c, 0, 73, 110
2, 92156, Note_off_c, 0, 70, 100
2, 92156, Note_off_c, 0, 73, 100
2, 92160, Note_on_c, 0, 73, 110
2, 92256, Note_on_c, 0, 78, 110
2, 92348, Note_off_c, 0, 73, 100
2, 92348, Note_off_c, 0, 78, 100
2, 92352, Note_on_c, 0, 78, 110
2, 92448, Note_on_c, 0, 82, 110
2, 92540, Note_off_c, 0, 78, 100
2, 92540, Note_off_c, 0, 82, 100
2, 92544, Note_on_c, 0, 82, 110
2, 92640, Note_on_c, 0, 85, 110
2, 92732, Note_off_c, 0, 82, 100
2, 92732, Note_off_c, 0, 85, 100
2, 92736, Note_on_c, 0, 85, 110
2, 92832, Note_on_c, 0, 94, 110
2, 92924, Note_off_c, 0, 85, 100
2, 92924, Note_off_c, 0, 94, 100
2, 92928, Note_on_c, 0, 94, 110
2, 93116, Note_off_c, 0, 94, 100
2, 93120, Note_on_c, 0, 70, 80
2, 93212, Note_off_c, 0, 70, 100
2, 93216, Note_on_c, 0, 73, 80
2, 93308, Note_off_c, 0, 73, 100
2, 93312, Note_on_c, 0, 66, 80
2, 93404, Note_off_c, 0, 66, 100
2, 93408, Note_on_c, 0, 73, 80
2, 93500, Note_off_c, 0, 73, 100
2, 93504, Note_on_c, 0, 69, 80
2, 93596, Note_off_c, 0, 69, 100
2, 93600, Note_on_c, 0, 73, 80
2, 93692, Note_off_c, 0, 73, 100
2, 93696, Note_on_c, 0, 66, 80
2, 93788, Note_off_c, 0, 66, 100
2, 93792, Note_on_c, 0, 73, 80
2, 93884, Note_off_c, 0, 73, 100
2, 93888, Note_on_c, 0, 69, 80
2, 93980, Note_off_c, 0, 69, 100
2, 93984, Note_on_c, 0, 73, 80
2, 94076, Note_off_c, 0, 73, 100
2, 94080, Note_on_c, 0, 71, 80
2, 94172, Note_off_c, 0, 71, 100
2, 94176, Note_on_c, 0, 73, 80
2, 94268, Note_off_c, 0, 73, 100
2, 94272, Note_on_c, 0, 68, 80
2, 94364, Note_off_c, 0, 68, 100
2, 94368, Note_on_c, 0, 73, 80
2, 94460, Note_off_c, 0, 73, 100
2, 94464, Note_on_c, 0, 66, 80
2, 94556, Note_off_c, 0, 66, 100
2, 94560, Note_on_c, 0, 69, 81
2, 94652, Note_off_c, 0, 69, 100
2, 94656, Note_on_c, 0, 69, 83
2, 94748, Note_off_c, 0, 69, 100
2, 94752, Note_on_c, 0, 78, 85
2, 94844, Note_off_c, 0, 78, 100
2, 94848, Note_on_c, 0, 68, 87
2, 94940, Note_off_c, 0, 68, 100
2, 94944, Note_on_c, 0, 77, 89
2, 95036, Note_off_c, 0, 77, 100
2, 95040, Note_on_c, 0, 77, 91
2, 95132, Note_off_c, 0, 77, 100
2, 95136, Note_on_c, 0, 80, 93
2, 95228, Note_off_c, 0, 80, 100
2, 95232, Note_on_c, 0, 69, 95
2, 95324, Note_off_c, 0, 69, 100
2, 95328, Note_on_c, 0, 78, 97
2, 95420, Note_off_c, 0, 78, 100
2, 95424, Note_on_c, 0, 78, 99
2, 95516, Note_off_c, 0, 78, 100
2, 95520, Note_on_c, 0, 81, 101
2, 95612, Note_off_c, 0, 81, 100
2, 95616, Note_on_c, 0, 77, 103
2, 95708, Note_off_c, 0, 77, 100
2, 95712, Note_on_c, 0, 80, 105
2, 95804, Note_off_c, 0, 80, 100
2, 95808, Note_on_c, 0, 80, 107
2, 95900, Note_off_c, 0, 80, 100
2, 95904, Note_on_c, 0, 83, 109
2, 95996, Note_off_c, 0, 83, 100
2, 96000, Note_on_c, 0, 69, 110
2, 96092, Note_off_c, 0, 69, 100
2, 96096, Note_on_c, 0, 78, 110
2, 96188, Note_off_c, 0, 78, 100
2, 96192, Note_on_c, 0, 78, 110
2, 96284, Note_off_c, 0, 78, 100
2, 96288, Note_on_c, 0, 81, 110
2, 96380, Note_off_c, 0, 81, 100
2, 96384, Note_on_c, 0, 77, 110
2, 96476, Note_off_c, 0, 77, 100
2, 96480, Note_on_c, 0, 80, 110
2, 96572, Note_off_c, 0, 80, 100
2, 96576, Note_on_c, 0, 80, 110
2, 96668, Note_off_c, 0, 80, 100
2, 96672, Note_on_c, 0, 83, 110
2, 96764, Note_off_c, 0, 83, 100
2, 96768, Note_on_c, 0, 78, 110
2, 96860, Note_off_c, 0, 78, 100
2, 96864, Note_on_c, 0, 81, 110
2, 96956, Note_off_c, 0, 81, 100
2, 96960, Note_on_c, 0, 81, 110
2, 97052, Note_off_c, 0, 81, 100
2, 97056, Note_on_c, 0, 90, 110
2, 97148, Note_off_c, 0, 90, 100
2, 97152, Note_on_c, 0, 80, 110
2, 97244, Note_off_c, 0, 80, 100
2, 97248, Note_on_c, 0, 89, 110
2, 97340, Note_off_c, 0, 89, 100
2, 97344, Note_on_c, 0, 83, 110
2, 97436, Note_off_c, 0, 83, 100
2, 97440, Note_on_c, 0, 92, 110
2, 97532, Note_off_c, 0, 92, 100
2, 97536, Note_on_c, 0, 66, 80
2, 97628, Note_off_c, 0, 66, 100
2, 97632, Note_on_c, 0, 69, 81
2, 97724, Note_off_c, 0, 69, 100
2, 97728, Note_on_c, 0, 69, 83
2, 97820, Note_off_c, 0, 69, 100
2, 97824, Note_on_c, 0, 78, 85
2, 97916, Note_off_c, 0, 78, 100
2, 97920, Note_on_c, 0, 68, 87
2, 98012, Note_off_c, 0, 68, 100
2, 98016, Note_on_c, 0, 77, 89
2, 98108, Note_off_c, 0, 77, 100
2, 98112, Note_on_c, 0, 77, 91
2, 98204, Note_off_c, 0, 77, 100
2, 98208, Note_on_c, 0, 80, 93
2, 98300, Note_off_c, 0, 80, 100
2, 98304, Note_on_c, 0, 69, 95
2, 98396, Note_off_c, 0, 69, 100
2, 98400, Note_on_c, 0, 78, 97
2, 98492, Note_off_c, 0, 78, 100
2, 98496, Note_on_c, 0, 78, 99
2, 98588, Note_off_c, 0, 78, 100
2, 98592, Note_on_c, 0, 81, 101
2, 98684, Note_off_c, 0, 81, 100
2, 98688, Note_on_c, 0, 77, 103
2, 98780, Note_off_c, 0, 77, 100
2, 98784, Note_on_c, 0, 80, 105
2, 98876, Note_off_c, 0, 80, 100
2, 98880, Note_on_c, 0, 80, 107
2, 98972, Note_off_c, 0, 80, 100
2, 98976, Note_on_c, 0, 83, 109
2, 99068, Note_off_c, 0, 83, 100
2, 99072, Note_on_c, 0, 69, 110
2, 99164, Note_off_c, 0, 69, 100
2, 99168, Note_on_c, 0, 78, 110
2, 99260, Note_off_c, 0, 78, 100
2, 99264, Note_on_c, 0, 78, 110
2, 99356, Note_off_c, 0, 78, 100
2, 99360, Note_on_c, 0, 81, 110
2, 99452, Note_off_c, 0, 81, 100
2, 99456, Note_on_c, 0, 77, 110
2, 99548, Note_off_c, 0, 77, 100
2, 99552, Note_on_c, 0, 80, 110
2, 99644, Note_off_c, 0, 80, 100
2, 99648, Note_on_c, 0, 80, 110
2, 99740, Note_off_c, 0, 80, 100
2, 99744, Note_on_c, 0, 83, 110
2, 99836, Note_off_c, 0, 83, 100
2, 99840, Note_on_c, 0, 78, 110
2, 99932, Note_off_c, 0, 78, 100
2, 99936, Note_on_c, 0, 81, 110
2, 100028, Note_off_c, 0, 81, 100
2, 100032, Note_on_c, 0, 81, 110
2, 100124, Note_off_c, 0, 81, 100
2, 100128, Note_on_c, 0, 90, 110
2, 100220, Note_off_c, 0, 90, 100
2, 100224, Note_on_c, 0, 78, 110
2, 100316, Note_off_c, 0, 78, 100
2, 100320, Note_on_c, 0, 81, 110
2, 100412, Note_off_c, 0, 81, 100
2, 100416, Note_on_c, 0, 81, 110
2, 100508, Note_off_c, 0, 81, 100
2, 100512, Note_on_c, 0, 90, 110
2, 100604, Note_off_c, 0, 90, 100
2, 100608, Note_on_c, 0, 78, 110
2, 100700, Note_off_c, 0, 78, 100
2, 100704, Note_on_c, 0, 81, 110
2, 100796, Note_off_c, 0, 81, 100
2, 100800, Note_on_c, 0, 81, 110
2, 100892, Note_off_c, 0, 81, 100
2, 100896, Note_on_c, 0, 90, 110
2, 100988, Note_off_c, 0, 90, 100
2, 100992, Note_on_c, 0, 78, 110
2, 101084, Note_off_c, 0, 78, 100
2, 101088, Note_on_c, 0, 81, 110
2, 101180, Note_off_c, 0, 81, 100
2, 101184, Note_on_c, 0, 81, 110
2, 101276, Note_off_c, 0, 81, 100
2, 101280, Note_on_c, 0, 90, 110
2, 101372, Note_off_c, 0, 90, 100
2, 101376, Note_on_c, 0, 90, 120
2, 101376, Note_on_c, 0, 84, 120
2, 101376, Note_on_c, 0, 78, 120
2, 101376, Note_on_c, 0, 81, 120
2, 101948, Note_off_c, 0, 90, 100
2, 101948, Note_off_c, 0, 84, 100
2, 101948, Note_off_c, 0, 78, 100
2, 101948, Note_off_c, 0, 81, 100
2, 101952, Note_on_c, 0, 59, 120
2, 102048, Note_on_c, 0, 60, 120
2, 102132, Note_off_c, 0, 59, 100
2, 102232, Note_off_c, 0, 60, 100
2, 102336, Note_on_c, 0, 59, 119
2, 102432, Note_on_c, 0, 60, 119
2, 102524, Note_off_c, 0, 59, 100
2, 102600, Note_off_c, 0, 60, 100
2, 102720, Note_on_c, 0, 65, 118
2, 102816, Note_on_c, 0, 66, 118
2, 102892, Note_off_c, 0, 65, 100
2, 102984, Note_off_c, 0, 66, 100
2, 103104, Note_on_c, 0, 68, 117
2, 103200, Note_on_c, 0, 69, 117
2, 103284, Note_off_c, 0, 68, 100
2, 103368, Note_off_c, 0, 69, 100
2, 103488, Note_on_c, 0, 71, 116
2, 103584, Note_on_c, 0, 72, 115
2, 103672, Note_off_c, 0, 71, 100
2, 103760, Note_off_c, 0, 72, 100
2, 103872, Note_on_c, 0, 77, 114
2, 103968, Note_on_c, 0, 78, 114
2, 104040, Note_off_c, 0, 77, 100
2, 104128, Note_off_c, 0, 78, 100
2, 104256, Note_on_c, 0, 80, 113
2, 104352, Note_on_c, 0, 81, 113
2, 104420, Note_off_c, 0, 80, 100
2, 104524, Note_off_c, 0, 81, 100
2, 104640, Note_on_c, 0, 83, 112
2, 104736, Note_on_c, 0, 84, 112
2, 104808, Note_off_c, 0, 83, 100
2, 104912, Note_off_c, 0, 84, 100
2, 105024, Note_on_c, 0, 89, 111
2, 105120, Note_on_c, 0, 90, 111
2, 105196, Note_off_c, 0, 89, 100
2, 105304, Note_off_c, 0, 90, 100
2, 105408, Note_on_c, 0, 92, 80
2, 105504, Note_on_c, 0, 93, 80
2, 105592, Note_off_c, 0, 92, 100
2, 105664, Note_off_c, 0, 93, 100
2, 105792, Note_on_c, 0, 89, 80
2, 105888, Note_on_c, 0, 90, 80
2, 105952, Note_off_c, 0, 89, 100
2, 106052, Note_off_c, 0, 90, 100
2, 106176, Note_on_c, 0, 92, 80
2, 106272, Note_on_c, 0, 93, 80
2, 106336, Note_off_c, 0, 92, 100
2, 106460, Note_off_c, 0, 93, 100
2, 106560, Note_on_c, 0, 89, 80
2, 106656, Note_on_c, 0, 90, 80
2, 106736, Note_off_c, 0, 89, 100
2, 106836, Note_off_c, 0, 90, 100
2, 106944, Note_on_c, 0, 83, 80
2, 107040, Note_on_c, 0, 84, 80
2, 107112, Note_off_c, 0, 83, 100
2, 107224, Note_off_c, 0, 84, 100
2, 107328, Note_on_c, 0, 81, 80
2, 107424, Note_on_c, 0, 84, 80
2, 107504, Note_off_c, 0, 81, 100
2, 107608, Note_off_c, 0, 84, 100
2, 107712, Note_on_c, 0, 83, 80
2, 107808, Note_on_c, 0, 84, 80
2, 107876, Note_off_c, 0, 83, 100
2, 107976, Note_off_c, 0, 84, 100
2, 108096, Note_on_c, 0, 83, 80
2, 108192, Note_on_c, 0, 84, 80
2, 108256, Note_off_c, 0, 83, 100
2, 108356, Note_off_c, 0, 84, 100
2, 108480, Note_on_c, 0, 81, 80
2, 108576, Note_on_c, 0, 84, 80
2, 108648, Note_off_c, 0, 81, 100
2, 108752, Note_off_c, 0, 84, 100
2, 108864, Note_on_c, 0, 83, 80
2, 108960, Note_on_c, 0, 84, 80
2, 109028, Note_off_c, 0, 83, 100
2, 109128, Note_off_c, 0, 84, 100
2, 109248, Note_on_c, 0, 81, 80
2, 109344, Note_on_c, 0, 84, 80
2, 109424, Note_off_c, 0, 81, 100
2, 109516, Note_off_c, 0, 84, 100
2, 109632, Note_on_c, 0, 71, 80
2, 109728, Note_on_c, 0, 72, 80
2, 109808, Note_off_c, 0, 71, 100
2, 109900, Note_off_c, 0, 72, 100
2, 110016, Note_on_c, 0, 69, 80
2, 110112, Note_on_c, 0, 72, 80
2, 110180, Note_off_c, 0, 69, 100
2, 110272, Note_off_c, 0, 72, 100
2, 110400, Note_on_c, 0, 71, 80
2, 110496, Note_on_c, 0, 72, 80
2, 110588, Note_off_c, 0, 71, 100
2, 110664, Note_off_c, 0, 72, 100
2, 110784, Note_on_c, 0, 69, 80
2, 110880, Note_on_c, 0, 72, 80
2, 110956, Note_off_c, 0, 69, 100
2, 111044, Note_off_c, 0, 72, 100
2, 111168, Note_on_c, 0, 71, 80
2, 111264, Note_on_c, 0, 72, 80
2, 111352, Note_off_c, 0, 71, 100
2, 111436, Note_off_c, 0, 72, 100
2, 111552, Note_on_c, 0, 69, 80
2, 111648, Note_on_c, 0, 72, 80
2, 111736, Note_off_c, 0, 69, 100
2, 111828, Note_off_c, 0, 72, 100
2, 111936, Note_on_c, 0, 69, 80
2, 112032, Note_on_c, 0, 72, 80
2, 112108, Note_off_c, 0, 69, 100
2, 112216, Note_off_c, 0, 72, 100
2, 112320, Note_on_c, 0, 69, 80
2, 112416, Note_on_c, 0, 72, 80
2, 112500, Note_off_c, 0, 69, 100
2, 112580, Note_off_c, 0, 72, 100
2, 112704, Note_on_c, 0, 69, 80
2, 112800, Note_on_c, 0, 72, 80
2, 112884, Note_off_c, 0, 69, 100
2, 112972, Note_off_c, 0, 72, 100
2, 113088, Note_on_c, 0, 80, 70
2, 113184, Note_on_c, 0, 81, 70
2, 113272, Note_off_c, 0, 80, 100
2, 113348, Note_off_c, 0, 81, 100
2, 113472, Note_on_c, 0, 83, 70
2, 113568, Note_on_c, 0, 84, 70
2, 113660, Note_off_c, 0, 83, 100
2, 113752, Note_off_c, 0, 84, 100
2, 113856, Note_on_c, 0, 80, 70
2, 113952, Note_on_c, 0, 81, 70
2, 114020, Note_off_c, 0, 80, 100
2, 114128, Note_off_c, 0, 81, 100
2, 114240, Note_on_c, 0, 83, 70
2, 114336, Note_on_c, 0, 84, 70
2, 114416, Note_off_c, 0, 83, 100
2, 114428, Note_off_c, 0, 84, 100
2, 114432, Note_on_c, 0, 84, 110
2, 114432, Note_on_c, 0, 78, 110
2, 114432, Note_on_c, 0, 72, 110
2, 115004, Note_off_c, 0, 84, 100
2, 115004, Note_off_c, 0, 78, 100
2, 115004, Note_off_c, 0, 72, 100
2, 115008, Note_on_c, 0, 85, 110
2, 115008, Note_on_c, 0, 77, 110
2, 115008, Note_on_c, 0, 73, 110
2, 115196, Note_off_c, 0, 85, 100
2, 115196, Note_off_c, 0, 77, 100
2, 115196, Note_off_c, 0, 73, 100
2, 115200, Note_on_c, 0, 80, 110
2, 115200, Note_on_c, 0, 77, 110
2, 115200, Note_on_c, 0, 73, 110
2, 115580, Note_off_c, 0, 80, 100
2, 115580, Note_off_c, 0, 77, 100
2, 115580, Note_off_c, 0, 73, 100
2, 115776, Note_on_c, 0, 58, 80
2, 115776, Note_on_c, 0, 49, 80
2, 115964, Note_off_c, 0, 58, 100
2, 115964, Note_off_c, 0, 49, 100
2, 115968, Note_on_c, 0, 59, 80
2, 115968, Note_on_c, 0, 51, 80
2, 116252, Note_off_c, 0, 59, 100
2, 116252, Note_off_c, 0, 51, 100
2, 116256, Note_on_c, 0, 58, 80
2, 116256, Note_on_c, 0, 49, 80
2, 116348, Note_off_c, 0, 58, 100
2, 116348, Note_off_c, 0, 49, 100
2, 116352, Note_on_c, 0, 56, 80
2, 116352, Note_on_c, 0, 47, 80
2, 116540, Note_off_c, 0, 56, 100
2, 116540, Note_off_c, 0, 47, 100
2, 116544, Note_on_c, 0, 54, 80
2, 116544, Note_on_c, 0, 46, 80
2, 116732, Note_off_c, 0, 54, 100
2, 116732, Note_off_c, 0, 46, 100
2, 116736, Note_on_c, 0, 53, 80
2, 116736, Note_on_c, 0, 44, 80
2, 117116, Note_off_c, 0, 53, 100
2, 117116, Note_off_c, 0, 44, 100
2, 117504, Note_on_c, 0, 85, 110
2, 117504, Note_on_c, 0, 82, 110
2, 117504, Note_on_c, 0, 73, 110
2, 118076, Note_off_c, 0, 85, 100
2, 118076, Note_off_c, 0, 82, 100
2, 118076, Note_off_c, 0, 73, 100
2, 118080, Note_on_c, 0, 87, 110
2, 118080, Note_on_c, 0, 83, 110
2, 118080, Note_on_c, 0, 75, 110
2, 118268, Note_off_c, 0, 87, 100
2, 118268, Note_off_c, 0, 83, 100
2, 118268, Note_off_c, 0, 75, 100
2, 118272, Note_on_c, 0, 88, 110
2, 118272, Note_on_c, 0, 85, 110
2, 118272, Note_on_c, 0, 76, 110
2, 118652, Note_off_c, 0, 88, 100
2, 118652, Note_off_c, 0, 85, 100
2, 118652, Note_off_c, 0, 76, 100
2, 118848, Note_on_c, 0, 54, 80
2, 118848, Note_on_c, 0, 51, 80
2, 119036, Note_off_c, 0, 54, 100
2, 119036, Note_off_c, 0, 51, 100
2, 119040, Note_on_c, 0, 56, 80
2, 119040, Note_on_c, 0, 52, 80
2, 119324, Note_off_c, 0, 56, 100
2, 119324, Note_off_c, 0, 52, 100
2, 119328, Note_on_c, 0, 52, 80
2, 119328, Note_on_c, 0, 49, 80
2, 119420, Note_off_c, 0, 52, 100
2, 119420, Note_off_c, 0, 49, 100
2, 119424, Note_on_c, 0, 51, 80
2, 119424, Note_on_c, 0, 47, 80
2, 119612, Note_off_c, 0, 51, 100
2, 119612, Note_off_c, 0, 47, 100
2, 119616, Note_on_c, 0, 49, 80
2, 119616, Note_on_c, 0, 46, 80
2, 119804, Note_off_c, 0, 49, 100
2, 119804, Note_off_c, 0, 46, 100
2, 119808, Note_on_c, 0, 51, 80
2, 119808, Note_on_c, 0, 47, 80
2, 120188, Note_off_c, 0, 51, 100
2, 120188, Note_off_c, 0, 47, 100
2, 120576, Note_on_c, 0, 83, 80
2, 120576, Note_on_c, 0, 71, 80
2, 121148, Note_off_c, 0, 83, 100
2, 121148, Note_off_c, 0, 71, 100
2, 121152, Note_on_c, 0, 82, 80
2, 121152, Note_on_c, 0, 70, 80
2, 121340, Note_off_c, 0, 82, 100
2, 121340, Note_off_c, 0, 70, 100
2, 121344, Note_on_c, 0, 87, 80
2, 121344, Note_on_c, 0, 75, 80
2, 121724, Note_off_c, 0, 87, 100
2, 121724, Note_off_c, 0, 75, 100
2, 121920, Note_on_c, 0, 61, 80
2, 121920, Note_on_c, 0, 54, 80
2, 122108, Note_off_c, 0, 61, 100
2, 122108, Note_off_c, 0, 54, 100
2, 122112, Note_on_c, 0, 59, 80
2, 122112, Note_on_c, 0, 54, 80
2, 122396, Note_off_c, 0, 59, 100
2, 122400, Note_on_c, 0, 58, 80
2, 122492, Note_off_c, 0, 58, 100
2, 122496, Note_on_c, 0, 56, 80
2, 122684, Note_off_c, 0, 54, 100
2, 122684, Note_off_c, 0, 56, 100
2, 122688, Note_on_c, 0, 61, 80
2, 122688, Note_on_c, 0, 53, 80
2, 122876, Note_off_c, 0, 61, 100
2, 122876, Note_off_c, 0, 53, 100
2, 122880, Note_on_c, 0, 58, 80
2, 122880, Note_on_c, 0, 54, 80
2, 123452, Note_off_c, 0, 58, 100
2, 123452, Note_off_c, 0, 54, 100
2, 123456, Note_on_c, 0, 63, 80
2, 123456, Note_on_c, 0, 54, 80
2, 123644, Note_off_c, 0, 63, 100
2, 123644, Note_off_c, 0, 54, 100
2, 123648, Note_on_c, 0, 59, 80
2, 123648, Note_on_c, 0, 54, 80
2, 123932, Note_off_c, 0, 59, 100
2, 123936, Note_on_c, 0, 58, 80
2, 124028, Note_off_c, 0, 58, 100
2, 124032, Note_on_c, 0, 56, 80
2, 124220, Note_off_c, 0, 54, 100
2, 124220, Note_off_c, 0, 56, 100
2, 124224, Note_on_c, 0, 61, 80
2, 124224, Note_on_c, 0, 53, 80
2, 124412, Note_off_c, 0, 61, 100
2, 124412, Note_off_c, 0, 53, 100
2, 124416, Note_on_c, 0, 58, 80
2, 124416, Note_on_c, 0, 54, 80
2, 124988, Note_off_c, 0, 58, 100
2, 124988, Note_off_c, 0, 54, 100
2, 124992, Note_on_c, 0, 54, 80
2, 124992, Note_on_c, 0, 66, 80
2, 124992, Note_on_c, 0, 63, 80
2, 125180, Note_off_c, 0, 54, 100
2, 125180, Note_off_c, 0, 66, 100
2, 125180, Note_off_c, 0, 63, 100
2, 125184, Note_on_c, 0, 64, 82
2, 125184, Note_on_c, 0, 58, 82
2, 125184, Note_on_c, 0, 54, 82
2, 125468, Note_off_c, 0, 64, 100
2, 125472, Note_on_c, 0, 63, 86
2, 125564, Note_off_c, 0, 63, 100
2, 125568, Note_on_c, 0, 61, 87
2, 125756, Note_off_c, 0, 58, 100
2, 125756, Note_off_c, 0, 54, 100
2, 125756, Note_off_c, 0, 61, 100
2, 125760, Note_on_c, 0, 66, 89
2, 125760, Note_on_c, 0, 61, 89
2, 125760, Note_on_c, 0, 58, 89
2, 125948, Note_off_c, 0, 66, 100
2, 125948, Note_off_c, 0, 61, 100
2, 125948, Note_off_c, 0, 58, 100
2, 125952, Note_on_c, 0, 64, 92
2, 125952, Note_on_c, 0, 61, 92
2, 125952, Note_on_c, 0, 58, 92
2, 126524, Note_off_c, 0, 64, 100
2, 126524, Note_off_c, 0, 61, 100
2, 126524, Note_off_c, 0, 58, 100
2, 126528, Note_on_c, 0, 78, 99
2, 126528, Note_on_c, 0, 76, 99
2, 126528, Note_on_c, 0, 70, 99
2, 126716, Note_off_c, 0, 78, 100
2, 126716, Note_off_c, 0, 76, 100
2, 126716, Note_off_c, 0, 70, 100
2, 126720, Note_on_c, 0, 78, 102
2, 126720, Note_on_c, 0, 75, 102
2, 126720, Note_on_c, 0, 71, 102
2, 127004, Note_off_c, 0, 78, 100
2, 127008, Note_on_c, 0, 76, 106
2, 127100, Note_off_c, 0, 76, 100
2, 127104, Note_on_c, 0, 75, 107
2, 127292, Note_off_c, 0, 75, 100
2, 127292, Note_off_c, 0, 71, 100
2, 127292, Note_off_c, 0, 75, 100
2, 127296, Note_on_c, 0, 78, 109
2, 127296, Note_on_c, 0, 75, 109
2, 127484, Note_off_c, 0, 78, 100
2, 127484, Note_off_c, 0, 75, 100
2, 127488, Note_on_c, 0, 80, 110
2, 127488, Note_on_c, 0, 73, 110
2, 127488, Note_on_c, 0, 71, 110
2, 127772, Note_off_c, 0, 80, 100
2, 127776, Note_on_c, 0, 78, 110
2, 127868, Note_off_c, 0, 78, 100
2, 127872, Note_on_c, 0, 77, 110
2, 128060, Note_off_c, 0, 73, 100
2, 128060, Note_off_c, 0, 71, 100
2, 128060, Note_off_c, 0, 77, 100
2, 128064, Note_on_c, 0, 80, 110
2, 128064, Note_on_c, 0, 77, 110
2, 128252, Note_off_c, 0, 80, 100
2, 128252, Note_off_c, 0, 77, 100
2, 128256, Note_on_c, 0, 80, 110
2, 128540, Note_off_c, 0, 80, 100
2, 128544, Note_on_c, 0, 78, 110
2, 128636, Note_off_c, 0, 78, 100
2, 128640, Note_on_c, 0, 77, 110
2, 128828, Note_off_c, 0, 77, 100
2, 128832, Note_on_c, 0, 85, 110
2, 129020, Note_off_c, 0, 85, 100
2, 129024, Note_on_c, 0, 82, 110
2, 129308, Note_off_c, 0, 82, 100
2, 129312, Note_on_c, 0, 80, 110
2, 129404, Note_off_c, 0, 80, 100
2, 129408, Note_on_c, 0, 78, 110
2, 129596, Note_off_c, 0, 78, 100
2, 129600, Note_on_c, 0, 85, 110
2, 129788, Note_off_c, 0, 85, 100
2, 129792, Note_on_c, 0, 80, 110
2, 130076, Note_off_c, 0, 80, 100
2, 130080, Note_on_c, 0, 78, 110
2, 130172, Note_off_c, 0, 78, 100
2, 130176, Note_on_c, 0, 77, 110
2, 130364, Note_off_c, 0, 77, 100
2, 130368, Note_on_c, 0, 85, 110
2, 130556, Note_off_c, 0, 85, 100
2, 130560, Note_on_c, 0, 78, 110
2, 130844, Note_off_c, 0, 78, 100
2, 130848, Note_on_c, 0, 77, 110
2, 130940, Note_off_c, 0, 77, 100
2, 130944, Note_on_c, 0, 75, 110
2, 131132, Note_off_c, 0, 75, 100
2, 131136, Note_on_c, 0, 85, 110
2, 131324, Note_off_c, 0, 85, 100
2, 131328, Note_on_c, 0, 77, 110
2, 131612, Note_off_c, 0, 77, 100
2, 131616, Note_on_c, 0, 75, 110
2, 131708, Note_off_c, 0, 75, 100
2, 131712, Note_on_c, 0, 85, 110
2, 131712, Note_on_c, 0, 73, 110
2, 131900, Note_off_c, 0, 85, 100
2, 131900, Note_off_c, 0, 73, 100
2, 131904, Note_on_c, 0, 83, 110
2, 131904, Note_on_c, 0, 71, 110
2, 132092, Note_off_c, 0, 83, 100
2, 132092, Note_off_c, 0, 71, 100
2, 132096, Note_on_c, 0, 83, 110
2, 132096, Note_on_c, 0, 73, 110
2, 132380, Note_off_c, 0, 83, 100
2, 132384, Note_on_c, 0, 82, 80
2, 132476, Note_off_c, 0, 82, 100
2, 132480, Note_on_c, 0, 80, 80
2, 132668, Note_off_c, 0, 73, 100
2, 132668, Note_off_c, 0, 80, 100
2, 132672, Note_on_c, 0, 73, 80
2, 132672, Note_on_c, 0, 71, 80
2, 132860, Note_off_c, 0, 73, 100
2, 132860, Note_off_c, 0, 71, 100
2, 132864, Note_on_c, 0, 71, 80
2, 132864, Note_on_c, 0, 73, 80
2, 133148, Note_off_c, 0, 71, 100
2, 133152, Note_on_c, 0, 70, 80
2, 133244, Note_off_c, 0, 73, 100
2, 133244, Note_off_c, 0, 70, 100
2, 133248, Note_on_c, 0, 73, 80
2, 133248, Note_on_c, 0, 71, 80
2, 133248, Note_on_c, 0, 68, 80
2, 133436, Note_off_c, 0, 73, 100
2, 133436, Note_off_c, 0, 71, 100
2, 133436, Note_off_c, 0, 68, 100
2, 133440, Note_on_c, 0, 73, 80
2, 133440, Note_on_c, 0, 70, 80
2, 133440, Note_on_c, 0, 66, 80
2, 133628, Note_off_c, 0, 73, 100
2, 133628, Note_off_c, 0, 70, 100
2, 133628, Note_off_c, 0, 66, 100
2, 133632, Note_on_c, 0, 73, 80
2, 133632, Note_on_c, 0, 68, 80
2, 133632, Note_on_c, 0, 65, 80
2, 134396, Note_off_c, 0, 73, 100
2, 134396, Note_off_c, 0, 68, 100
2, 134396, Note_off_c, 0, 65, 100
2, 134400, Note_on_c, 0, 75, 70
2, 134400, Note_on_c, 0, 69, 70
2, 134400, Note_on_c, 0, 66, 70
2, 135164, Note_off_c, 0, 75, 100
2, 135164, Note_off_c, 0, 69, 100
2, 135164, Note_off_c, 0, 66, 100
2, 135168, Control_c, 0, 64, 127
2, 135936, Note_on_c, 0, 68, 99
2, 135984, Note_on_c, 0, 71, 100
2, 136032, Note_on_c, 0, 73, 101
2, 136080, Note_on_c, 0, 77, 101
2, 136124, Note_off_c, 0, 68, 100
2, 136128, Note_on_c, 0, 61, 102
2, 136176, Note_on_c, 0, 65, 103
2, 136180, Note_off_c, 0, 71, 100
2, 136224, Note_on_c, 0, 68, 103
2, 136236, Note_off_c, 0, 73, 100
2, 136252, Note_off_c, 0, 77, 100
2, 136272, Note_on_c, 0, 71, 104
2, 136308, Note_off_c, 0, 61, 100
2, 136320, Note_on_c, 0, 73, 104
2, 136368, Note_off_c, 0, 65, 100
2, 136368, Note_on_c, 0, 77, 105
2, 136416, Note_off_c, 0, 68, 100
2, 136416, Note_on_c, 0, 80, 106
2, 136464, Note_on_c, 0, 83, 106
2, 136468, Note_off_c, 0, 71, 100
2, 136512, Note_on_c, 0, 85, 107
2, 136560, Note_on_c, 0, 89, 108
2, 137448, Note_off_c, 0, 85, 100
2, 137464, Control_c, 0, 64, 0
2, 137468, Note_off_c, 0, 73, 100
2, 137468, Note_off_c, 0, 77, 100
2, 137468, Note_off_c, 0, 80, 100
2, 137468, Note_off_c, 0, 83, 100
2, 137468, Note_off_c, 0, 89, 100
2, 137472, Note_on_c, 0, 57, 110
2, 137568, Note_on_c, 0, 66, 110
2, 137656, Note_off_c, 0, 57, 100
2, 137664, Note_on_c, 0, 57, 110
2, 137748, Note_off_c, 0, 66, 100
2, 137760, Note_on_c, 0, 66, 110
2, 137848, Note_off_c, 0, 57, 100
2, 137856, Note_on_c, 0, 57, 110
2, 137948, Note_off_c, 0, 66, 100
2, 137952, Note_on_c, 0, 66, 110
2, 138036, Note_off_c, 0, 57, 100
2, 138048, Note_on_c, 0, 58, 110
2, 138124, Note_off_c, 0, 66, 100
2, 138144, Note_on_c, 0, 66, 110
2, 138232, Note_off_c, 0, 58, 100
2, 138240, Note_on_c, 0, 59, 110
2, 138320, Note_off_c, 0, 66, 100
2, 138336, Note_on_c, 0, 66, 110
2, 138416, Note_off_c, 0, 59, 100
2, 138432, Note_on_c, 0, 63, 110
2, 138520, Note_off_c, 0, 66, 100
2, 138528, Note_on_c, 0, 71, 110
2, 138608, Note_off_c, 0, 63, 100
2, 138624, Note_on_c, 0, 68, 110
2, 138696, Note_off_c, 0, 71, 100
2, 138720, Note_on_c, 0, 71, 110
2, 138800, Note_off_c, 0, 68, 100
2, 138816, Note_on_c, 0, 65, 110
2, 138900, Note_off_c, 0, 71, 100
2, 138912, Note_on_c, 0, 73, 110
2, 139000, Note_off_c, 0, 65, 100
2, 139008, Note_on_c, 0, 69, 120
2, 139088, Note_off_c, 0, 73, 100
2, 139104, Note_on_c, 0, 78, 120
2, 139192, Note_off_c, 0, 69, 100
2, 139200, Note_on_c, 0, 69, 120
2, 139284, Note_off_c, 0, 78, 100
2, 139296, Note_on_c, 0, 78, 120
2, 139384, Note_off_c, 0, 69, 100
2, 139392, Note_on_c, 0, 69, 120
2, 139472, Note_off_c, 0, 78, 100
2, 139488, Note_on_c, 0, 78, 120
2, 139580, Note_off_c, 0, 69, 100
2, 139584, Note_on_c, 0, 70, 120
2, 139652, Note_off_c, 0, 78, 100
2, 139680, Note_on_c, 0, 78, 120
2, 139756, Note_off_c, 0, 70, 100
2, 139776, Note_on_c, 0, 71, 120
2, 139860, Note_off_c, 0, 78, 100
2, 139872, Note_on_c, 0, 78, 120
2, 139936, Note_off_c, 0, 71, 100
2, 139968, Note_on_c, 0, 75, 120
2, 140044, Note_off_c, 0, 78, 100
2, 140064, Note_on_c, 0, 83, 120
2, 140148, Note_off_c, 0, 75, 100
2, 140160, Note_on_c, 0, 80, 120
2, 140232, Note_off_c, 0, 83, 100
2, 140256, Note_on_c, 0, 83, 120
2, 140332, Note_off_c, 0, 80, 100
2, 140352, Note_on_c, 0, 77, 120
2, 140428, Note_off_c, 0, 83, 100
2, 140448, Note_on_c, 0, 85, 120
2, 140520, Note_off_c, 0, 77, 100
2, 140544, Note_on_c, 0, 78, 120
2, 140620, Note_off_c, 0, 85, 100
2, 140640, Note_on_c, 0, 82, 120
2, 140720, Note_off_c, 0, 78, 100
2, 140736, Note_on_c, 0, 82, 120
2, 140812, Note_off_c, 0, 82, 100
2, 140832, Note_on_c, 0, 85, 120
2, 140912, Note_off_c, 0, 82, 100
2, 140928, Note_on_c, 0, 82, 120
2, 141004, Note_off_c, 0, 85, 100
2, 141024, Note_on_c, 0, 85, 120
2, 141096, Note_off_c, 0, 82, 100
2, 141120, Note_on_c, 0, 83, 120
2, 141120, Note_on_c, 0, 80, 120
2, 141200, Note_off_c, 0, 85, 100
2, 141216, Note_on_c, 0, 89, 120
2, 141296, Note_off_c, 0, 83, 100
2, 141304, Note_off_c, 0, 80, 100
2, 141308, Note_off_c, 0, 89, 100
2, 141312, Note_on_c, 0, 90, 120
2, 141312, Note_on_c, 0, 82, 120
2, 141312, Note_on_c, 0, 78, 120
2, 141884, Note_off_c, 0, 90, 100
2, 141884, Note_off_c, 0, 82, 100
2, 141884, Note_off_c, 0, 78, 100
2, 142464, Control_c, 0, 7, 0
2, 142848, Note_on_c, 0, 66, 1
2, 143036, Note_off_c, 0, 66, 100
2, 143036, End_track
3, 0, Start_track
3, 0, Title_t, "Left"
3, 0, Control_c, 1, 0, 0
3, 0, Program_c, 1, 0
3, 0, Control_c, 1, 7, 100
3, 0, Control_c, 1, 10, 53
3, 0, Control_c, 1, 91, 127
3, 0, Key_signature, 6, "major"
3, 0, Note_on_c, 1, 54, 110
3, 0, Note_on_c, 1, 50, 110
3, 572, Note_off_c, 1, 54, 100
3, 572, Note_off_c, 1, 50, 100
3, 576, Note_on_c, 1, 56, 110
3, 576, Note_on_c, 1, 49, 110
3, 764, Note_off_c, 1, 56, 100
3, 764, Note_off_c, 1, 49, 100
3, 768, Note_on_c, 1, 49, 110
3, 768, Note_on_c, 1, 47, 110
3, 956, Note_off_c, 1, 49, 100
3, 956, Note_off_c, 1, 47, 100
3, 1344, Note_on_c, 1, 49, 80
3, 1344, Note_on_c, 1, 46, 80
3, 1532, Note_off_c, 1, 49, 100
3, 1532, Note_off_c, 1, 46, 100
3, 1536, Note_on_c, 1, 44, 80
3, 1820, Note_off_c, 1, 44, 100
3, 1824, Note_on_c, 1, 46, 80
3, 1916, Note_off_c, 1, 46, 100
3, 1920, Note_on_c, 1, 47, 80
3, 2108, Note_off_c, 1, 47, 100
3, 2112, Note_on_c, 1, 48, 80
3, 2300, Note_off_c, 1, 48, 100
3, 2304, Note_on_c, 1, 49, 80
3, 2684, Note_off_c, 1, 49, 100
3, 3072, Note_on_c, 1, 67, 110
3, 3072, Note_on_c, 1, 64, 110
3, 3644, Note_off_c, 1, 67, 100
3, 3644, Note_off_c, 1, 64, 100
3, 3648, Note_on_c, 1, 66, 110
3, 3648, Note_on_c, 1, 63, 110
3, 3836, Note_off_c, 1, 66, 100
3, 3836, Note_off_c, 1, 63, 100
3, 3840, Note_on_c, 1, 64, 110
3, 3840, Note_on_c, 1, 61, 110
3, 4220, Note_off_c, 1, 64, 100
3, 4220, Note_off_c, 1, 61, 100
3, 4416, Note_on_c, 1, 63, 80
3, 4416, Note_on_c, 1, 59, 80
3, 4604, Note_off_c, 1, 63, 100
3, 4604, Note_off_c, 1, 59, 100
3, 4608, Note_on_c, 1, 56, 80
3, 4608, Note_on_c, 1, 52, 80
3, 4892, Note_off_c, 1, 56, 100
3, 4896, Note_on_c, 1, 61, 80
3, 4988, Note_off_c, 1, 52, 100
3, 4988, Note_off_c, 1, 61, 100
3, 4992, Note_on_c, 1, 63, 80
3, 4992, Note_on_c, 1, 54, 80
3, 5180, Note_off_c, 1, 63, 100
3, 5180, Note_off_c, 1, 54, 100
3, 5184, Note_on_c, 1, 64, 80
3, 5184, Note_on_c, 1, 54, 80
3, 5372, Note_off_c, 1, 64, 100
3, 5372, Note_off_c, 1, 54, 100
3, 5376, Note_on_c, 1, 63, 80
3, 5376, Note_on_c, 1, 59, 80
3, 5756, Note_off_c, 1, 63, 100
3, 5756, Note_off_c, 1, 59, 100
3, 6144, Note_on_c, 1, 63, 80
3, 6716, Note_off_c, 1, 63, 100
3, 6720, Note_on_c, 1, 61, 80
3, 6908, Note_off_c, 1, 61, 100
3, 6912, Note_on_c, 1, 59, 80
3, 7292, Note_off_c, 1, 59, 100
3, 7488, Note_on_c, 1, 58, 80
3, 7676, Note_off_c, 1, 58, 100
3, 7680, Note_on_c, 1, 56, 80
3, 7964, Note_off_c, 1, 56, 100
3, 7968, Note_on_c, 1, 58, 80
3, 8060, Note_off_c, 1, 58, 100
3, 8064, Note_on_c, 1, 59, 80
3, 8252, Note_off_c, 1, 59, 100
3, 8256, Note_on_c, 1, 49, 80
3, 8444, Note_off_c, 1, 49, 100
3, 8448, Note_on_c, 1, 54, 80
3, 8636, Note_off_c, 1, 54, 100
3, 8640, Note_on_c, 1, 61, 82
3, 8828, Note_off_c, 1, 61, 100
3, 8832, Note_on_c, 1, 63, 85
3, 9020, Note_off_c, 1, 63, 100
3, 9024, Note_on_c, 1, 61, 87
3, 9212, Note_off_c, 1, 61, 100
3, 9216, Note_on_c, 1, 59, 90
3, 9404, Note_off_c, 1, 59, 100
3, 9408, Note_on_c, 1, 58, 93
3, 9596, Note_off_c, 1, 58, 100
3, 9600, Note_on_c, 1, 56, 95
3, 9788, Note_off_c, 1, 56, 100
3, 9792, Note_on_c, 1, 49, 98
3, 9980, Note_off_c, 1, 49, 100
3, 9984, Note_on_c, 1, 54, 110
3, 10172, Note_off_c, 1, 54, 100
3, 10176, Note_on_c, 1, 49, 110
3, 10364, Note_off_c, 1, 49, 100
3, 10368, Note_on_c, 1, 46, 110
3, 10556, Note_off_c, 1, 46, 100
3, 10560, Note_on_c, 1, 49, 110
3, 10748, Note_off_c, 1, 49, 100
3, 10752, Note_on_c, 1, 42, 110
3, 10940, Note_off_c, 1, 42, 100
3, 10944, Note_on_c, 1, 49, 110
3, 11132, Note_off_c, 1, 49, 100
3, 11136, Note_on_c, 1, 37, 110
3, 11324, Note_off_c, 1, 37, 100
3, 11328, Note_on_c, 1, 49, 110
3, 11516, Note_off_c, 1, 49, 100
3, 11520, Note_on_c, 1, 42, 110
3, 11708, Note_off_c, 1, 42, 100
3, 11712, Note_on_c, 1, 61, 110
3, 11900, Note_off_c, 1, 61, 100
3, 11904, Note_on_c, 1, 63, 110
3, 12092, Note_off_c, 1, 63, 100
3, 12096, Note_on_c, 1, 61, 110
3, 12284, Note_off_c, 1, 61, 100
3, 12288, Note_on_c, 1, 59, 110
3, 12476, Note_off_c, 1, 59, 100
3, 12480, Note_on_c, 1, 58, 110
3, 12668, Note_off_c, 1, 58, 100
3, 12672, Note_on_c, 1, 56, 110
3, 12860, Note_off_c, 1, 56, 100
3, 12864, Note_on_c, 1, 49, 110
3, 13052, Note_off_c, 1, 49, 100
3, 13056, Note_on_c, 1, 54, 110
3, 13244, Note_off_c, 1, 54, 100
3, 13248, Note_on_c, 1, 49, 110
3, 13436, Note_off_c, 1, 49, 100
3, 13440, Note_on_c, 1, 46, 110
3, 13628, Note_off_c, 1, 46, 100
3, 13632, Note_on_c, 1, 49, 110
3, 13820, Note_off_c, 1, 49, 100
3, 13824, Note_on_c, 1, 42, 110
3, 14012, Note_off_c, 1, 42, 100
3, 14016, Note_on_c, 1, 49, 110
3, 14204, Note_off_c, 1, 49, 100
3, 14208, Note_on_c, 1, 37, 110
3, 14396, Note_off_c, 1, 37, 100
3, 14400, Note_on_c, 1, 49, 110
3, 14588, Note_off_c, 1, 49, 100
3, 14592, Note_on_c, 1, 42, 110
3, 14780, Note_off_c, 1, 42, 100
3, 14784, Note_on_c, 1, 54, 110
3, 14972, Note_off_c, 1, 54, 100
3, 14976, Note_on_c, 1, 39, 110
3, 15164, Note_off_c, 1, 39, 100
3, 15168, Note_on_c, 1, 51, 110
3, 15356, Note_off_c, 1, 51, 100
3, 15360, Note_on_c, 1, 35, 110
3, 15548, Note_off_c, 1, 35, 100
3, 15552, Note_on_c, 1, 47, 110
3, 15740, Note_off_c, 1, 47, 100
3, 15744, Note_on_c, 1, 32, 110
3, 15932, Note_off_c, 1, 32, 100
3, 15936, Note_on_c, 1, 44, 110
3, 16124, Note_off_c, 1, 44, 100
3, 16128, Note_on_c, 1, 49, 110
3, 16128, Note_on_c, 1, 37, 110
3, 16316, Note_off_c, 1, 49, 100
3, 16316, Note_off_c, 1, 37, 100
3, 16512, Note_on_c, 1, 60, 110
3, 16604, Note_off_c, 1, 60, 100
3, 16608, Note_on_c, 1, 61, 110
3, 16700, Note_off_c, 1, 61, 100
3, 16896, Note_on_c, 1, 64, 110
3, 16988, Note_off_c, 1, 64, 100
3, 16992, Note_on_c, 1, 65, 110
3, 17084, Note_off_c, 1, 65, 100
3, 17280, Note_on_c, 1, 67, 110
3, 17372, Note_off_c, 1, 67, 100
3, 17376, Note_on_c, 1, 68, 110
3, 17468, Note_off_c, 1, 68, 100
3, 17664, Note_on_c, 1, 72, 110
3, 17756, Note_off_c, 1, 72, 100
3, 17760, Note_on_c, 1, 73, 110
3, 17852, Note_off_c, 1, 73, 100
3, 18048, Note_on_c, 1, 76, 110
3, 18140, Note_off_c, 1, 76, 100
3, 18144, Note_on_c, 1, 77, 110
3, 18236, Note_off_c, 1, 77, 100
3, 18432, Note_on_c, 1, 79, 110
3, 18524, Note_off_c, 1, 79, 100
3, 18528, Note_on_c, 1, 80, 110
3, 18620, Note_off_c, 1, 80, 100
3, 18816, Note_on_c, 1, 84, 110
3, 18908, Note_off_c, 1, 84, 100
3, 18912, Note_on_c, 1, 85, 110
3, 19004, Note_off_c, 1, 85, 100
3, 19200, Note_on_c, 1, 88, 80
3, 19292, Note_off_c, 1, 88, 100
3, 19296, Note_on_c, 1, 89, 80
3, 19388, Note_off_c, 1, 89, 100
3, 19584, Note_on_c, 1, 84, 80
3, 19676, Note_off_c, 1, 84, 100
3, 19680, Note_on_c, 1, 85, 80
3, 19772, Note_off_c, 1, 85, 100
3, 19968, Note_on_c, 1, 79, 80
3, 20060, Note_off_c, 1, 79, 100
3, 20064, Note_on_c, 1, 80, 80
3, 20156, Note_off_c, 1, 80, 100
3, 20352, Note_on_c, 1, 76, 80
3, 20444, Note_off_c, 1, 76, 100
3, 20448, Note_on_c, 1, 77, 80
3, 20540, Note_off_c, 1, 77, 100
3, 20736, Note_on_c, 1, 72, 80
3, 20828, Note_off_c, 1, 72, 100
3, 20832, Note_on_c, 1, 73, 80
3, 20924, Note_off_c, 1, 73, 100
3, 21120, Note_on_c, 1, 67, 80
3, 21212, Note_off_c, 1, 67, 100
3, 21216, Note_on_c, 1, 68, 80
3, 21308, Note_off_c, 1, 68, 100
3, 21504, Note_on_c, 1, 64, 80
3, 21596, Note_off_c, 1, 64, 100
3, 21600, Note_on_c, 1, 65, 80
3, 21692, Note_off_c, 1, 65, 100
3, 21888, Note_on_c, 1, 60, 80
3, 21980, Note_off_c, 1, 60, 100
3, 21984, Note_on_c, 1, 61, 80
3, 22076, Note_off_c, 1, 61, 100
3, 22272, Note_on_c, 1, 60, 70
3, 22364, Note_off_c, 1, 60, 100
3, 22368, Note_on_c, 1, 61, 70
3, 22460, Note_off_c, 1, 61, 100
3, 22656, Note_on_c, 1, 48, 70
3, 22748, Note_off_c, 1, 48, 100
3, 22752, Note_on_c, 1, 49, 70
3, 22844, Note_off_c, 1, 49, 100
3, 23040, Note_on_c, 1, 60, 70
3, 23132, Note_off_c, 1, 60, 100
3, 23136, Note_on_c, 1, 61, 70
3, 23228, Note_off_c, 1, 61, 100
3, 23424, Note_on_c, 1, 48, 70
3, 23516, Note_off_c, 1, 48, 100
3, 23520, Note_on_c, 1, 49, 70
3, 23612, Note_off_c, 1, 49, 100
3, 23808, Note_on_c, 1, 54, 110
3, 23808, Note_on_c, 1, 50, 110
3, 24380, Note_off_c, 1, 54, 100
3, 24380, Note_off_c, 1, 50, 100
3, 24384, Note_on_c, 1, 56, 110
3, 24384, Note_on_c, 1, 49, 110
3, 24572, Note_off_c, 1, 56, 100
3, 24572, Note_off_c, 1, 49, 100
3, 24576, Note_on_c, 1, 49, 110
3, 24576, Note_on_c, 1, 47, 110
3, 24956, Note_off_c, 1, 49, 100
3, 24956, Note_off_c, 1, 47, 100
3, 25152, Note_on_c, 1, 49, 80
3, 25152, Note_on_c, 1, 46, 80
3, 25340, Note_off_c, 1, 49, 100
3, 25340, Note_off_c, 1, 46, 100
3, 25344, Note_on_c, 1, 44, 80
3, 25628, Note_off_c, 1, 44, 100
3, 25632, Note_on_c, 1, 46, 80
3, 25724, Note_off_c, 1, 46, 100
3, 25728, Note_on_c, 1, 47, 80
3, 25916, Note_off_c, 1, 47, 100
3, 25920, Note_on_c, 1, 48, 80
3, 26108, Note_off_c, 1, 48, 100
3, 26112, Note_on_c, 1, 49, 80
3, 26492, Note_off_c, 1, 49, 100
3, 26880, Note_on_c, 1, 67, 110
3, 26880, Note_on_c, 1, 64, 110
3, 27452, Note_off_c, 1, 67, 100
3, 27452, Note_off_c, 1, 64, 100
3, 27456, Note_on_c, 1, 66, 110
3, 27456, Note_on_c, 1, 63, 110
3, 27644, Note_off_c, 1, 66, 100
3, 27644, Note_off_c, 1, 63, 100
3, 27648, Note_on_c, 1, 64, 110
3, 27648, Note_on_c, 1, 61, 110
3, 28028, Note_off_c, 1, 64, 100
3, 28028, Note_off_c, 1, 61, 100
3, 28224, Note_on_c, 1, 63, 80
3, 28224, Note_on_c, 1, 59, 80
3, 28412, Note_off_c, 1, 63, 100
3, 28412, Note_off_c, 1, 59, 100
3, 28416, Note_on_c, 1, 56, 80
3, 28416, Note_on_c, 1, 52, 80
3, 28700, Note_off_c, 1, 56, 100
3, 28704, Note_on_c, 1, 61, 80
3, 28796, Note_off_c, 1, 52, 100
3, 28796, Note_off_c, 1, 61, 100
3, 28800, Note_on_c, 1, 63, 80
3, 28800, Note_on_c, 1, 54, 80
3, 28988, Note_off_c, 1, 63, 100
3, 28988, Note_off_c, 1, 54, 100
3, 28992, Note_on_c, 1, 64, 80
3, 28992, Note_on_c, 1, 54, 80
3, 29180, Note_off_c, 1, 64, 100
3, 29180, Note_off_c, 1, 54, 100
3, 29184, Note_on_c, 1, 63, 80
3, 29184, Note_on_c, 1, 59, 80
3, 29564, Note_off_c, 1, 63, 100
3, 29564, Note_off_c, 1, 59, 100
3, 29952, Note_on_c, 1, 63, 70
3, 30524, Note_off_c, 1, 63, 100
3, 30528, Note_on_c, 1, 61, 70
3, 30716, Note_off_c, 1, 61, 100
3, 30720, Note_on_c, 1, 59, 70
3, 31100, Note_off_c, 1, 59, 100
3, 31296, Note_on_c, 1, 58, 70
3, 31484, Note_off_c, 1, 58, 100
3, 31488, Note_on_c, 1, 56, 70
3, 31772, Note_off_c, 1, 56, 100
3, 31776, Note_on_c, 1, 58, 70
3, 31868, Note_off_c, 1, 58, 100
3, 31872, Note_on_c, 1, 59, 70
3, 32060, Note_off_c, 1, 59, 100
3, 32064, Note_on_c, 1, 49, 80
3, 32252, Note_off_c, 1, 49, 100
3, 32256, Note_on_c, 1, 54, 70
3, 32444, Note_off_c, 1, 54, 100
3, 32448, Note_on_c, 1, 61, 75
3, 32636, Note_off_c, 1, 61, 100
3, 32640, Note_on_c, 1, 63, 80
3, 32828, Note_off_c, 1, 63, 100
3, 32832, Note_on_c, 1, 61, 85
3, 33020, Note_off_c, 1, 61, 100
3, 33024, Note_on_c, 1, 59, 91
3, 33212, Note_off_c, 1, 59, 100
3, 33216, Note_on_c, 1, 58, 96
3, 33404, Note_off_c, 1, 58, 100
3, 33408, Note_on_c, 1, 56, 101
3, 33596, Note_off_c, 1, 56, 100
3, 33600, Note_on_c, 1, 49, 107
3, 33788, Note_off_c, 1, 49, 100
3, 33792, Note_on_c, 1, 54, 110
3, 33980, Note_off_c, 1, 54, 100
3, 33984, Note_on_c, 1, 49, 110
3, 34172, Note_off_c, 1, 49, 100
3, 34176, Note_on_c, 1, 46, 110
3, 34364, Note_off_c, 1, 46, 100
3, 34368, Note_on_c, 1, 49, 110
3, 34556, Note_off_c, 1, 49, 100
3, 34560, Note_on_c, 1, 42, 110
3, 34748, Note_off_c, 1, 42, 100
3, 34752, Note_on_c, 1, 49, 110
3, 34940, Note_off_c, 1, 49, 100
3, 34944, Note_on_c, 1, 37, 110
3, 35132, Note_off_c, 1, 37, 100
3, 35136, Note_on_c, 1, 49, 110
3, 35324, Note_off_c, 1, 49, 100
3, 35328, Note_on_c, 1, 42, 110
3, 35516, Note_off_c, 1, 42, 100
3, 35520, Note_on_c, 1, 61, 110
3, 35708, Note_off_c, 1, 61, 100
3, 35712, Note_on_c, 1, 63, 110
3, 35900, Note_off_c, 1, 63, 100
3, 35904, Note_on_c, 1, 61, 110
3, 36092, Note_off_c, 1, 61, 100
3, 36096, Note_on_c, 1, 59, 110
3, 36284, Note_off_c, 1, 59, 100
3, 36288, Note_on_c, 1, 58, 110
3, 36476, Note_off_c, 1, 58, 100
3, 36480, Note_on_c, 1, 56, 110
3, 36668, Note_off_c, 1, 56, 100
3, 36672, Note_on_c, 1, 49, 110
3, 36860, Note_off_c, 1, 49, 100
3, 36864, Note_on_c, 1, 54, 110
3, 37052, Note_off_c, 1, 54, 100
3, 37056, Note_on_c, 1, 42, 110
3, 37244, Note_off_c, 1, 42, 100
3, 37248, Note_on_c, 1, 51, 110
3, 37436, Note_off_c, 1, 51, 100
3, 37440, Note_on_c, 1, 39, 110
3, 37628, Note_off_c, 1, 39, 100
3, 37632, Note_on_c, 1, 47, 110
3, 37820, Note_off_c, 1, 47, 100
3, 37824, Note_on_c, 1, 35, 110
3, 38012, Note_off_c, 1, 35, 100
3, 38016, Note_on_c, 1, 45, 110
3, 38204, Note_off_c, 1, 45, 100
3, 38208, Note_on_c, 1, 33, 110
3, 38396, Note_off_c, 1, 33, 100
3, 38400, Note_on_c, 1, 46, 110
3, 38400, Note_on_c, 1, 34, 110
3, 38588, Note_off_c, 1, 46, 100
3, 38588, Note_off_c, 1, 34, 100
3, 38784, Note_on_c, 1, 70, 110
3, 38880, Note_on_c, 1, 68, 110
3, 38972, Note_off_c, 1, 70, 100
3, 38972, Note_off_c, 1, 68, 100
3, 39168, Note_on_c, 1, 68, 110
3, 39264, Note_on_c, 1, 66, 110
3, 39344, Note_off_c, 1, 68, 100
3, 39356, Note_off_c, 1, 66, 100
3, 39552, Note_on_c, 1, 66, 110
3, 39648, Note_on_c, 1, 65, 110
3, 39732, Note_off_c, 1, 66, 100
3, 39740, Note_off_c, 1, 65, 100
3, 39936, Note_on_c, 1, 65, 110
3, 40032, Note_on_c, 1, 63, 110
3, 40112, Note_off_c, 1, 65, 100
3, 40124, Note_off_c, 1, 63, 100
3, 40320, Note_on_c, 1, 63, 110
3, 40416, Note_on_c, 1, 61, 110
3, 40500, Note_off_c, 1, 63, 100
3, 40508, Note_off_c, 1, 61, 100
3, 40704, Note_on_c, 1, 61, 110
3, 40800, Note_on_c, 1, 59, 110
3, 40872, Note_off_c, 1, 61, 100
3, 40892, Note_off_c, 1, 59, 100
3, 41088, Note_on_c, 1, 59, 110
3, 41184, Note_on_c, 1, 58, 110
3, 41252, Note_off_c, 1, 59, 100
3, 41276, Note_off_c, 1, 58, 100
3, 41472, Note_on_c, 1, 58, 110
3, 41564, Note_off_c, 1, 58, 100
3, 41568, Note_on_c, 1, 57, 109
3, 41660, Note_off_c, 1, 57, 100
3, 41856, Note_on_c, 1, 58, 103
3, 41948, Note_off_c, 1, 58, 100
3, 41952, Note_on_c, 1, 56, 101
3, 42044, Note_off_c, 1, 56, 100
3, 42240, Note_on_c, 1, 58, 95
3, 42332, Note_off_c, 1, 58, 100
3, 42336, Note_on_c, 1, 54, 93
3, 42428, Note_off_c, 1, 54, 100
3, 42624, Note_on_c, 1, 58, 87
3, 42716, Note_off_c, 1, 58, 100
3, 42720, Note_on_c, 1, 53, 85
3, 42812, Note_off_c, 1, 53, 100
3, 43008, Note_on_c, 1, 39, 110
3, 43200, Note_on_c, 1, 55, 110
3, 43392, Note_on_c, 1, 58, 110
3, 43584, Note_on_c, 1, 63, 110
3, 43772, Note_off_c, 1, 39, 100
3, 43772, Note_off_c, 1, 55, 100
3, 43776, Note_on_c, 1, 67, 110
3, 43964, Note_off_c, 1, 58, 100
3, 43968, Note_on_c, 1, 70, 110
3, 44156, Note_off_c, 1, 63, 100
3, 44160, Note_on_c, 1, 75, 110
3, 44348, Note_off_c, 1, 67, 100
3, 44352, Note_on_c, 1, 79, 110
3, 44540, Note_off_c, 1, 70, 100
3, 44540, Note_off_c, 1, 75, 100
3, 44544, Note_on_c, 1, 82, 110
3, 44732, Note_off_c, 1, 79, 100
3, 44732, Note_off_c, 1, 82, 100
3, 44736, Note_on_c, 1, 51, 80
3, 44924, Note_off_c, 1, 51, 100
3, 44928, Note_on_c, 1, 54, 80
3, 45116, Note_off_c, 1, 54, 100
3, 45120, Note_on_c, 1, 51, 80
3, 45308, Note_off_c, 1, 51, 100
3, 45312, Note_on_c, 1, 54, 80
3, 45500, Note_off_c, 1, 54, 100
3, 45504, Note_on_c, 1, 51, 80
3, 45692, Note_off_c, 1, 51, 100
3, 45696, Note_on_c, 1, 53, 80
3, 45696, Note_on_c, 1, 46, 80
3, 45884, Note_off_c, 1, 53, 100
3, 45888, Note_on_c, 1, 50, 80
3, 46076, Note_off_c, 1, 46, 100
3, 46076, Note_off_c, 1, 50, 100
3, 46080, Note_on_c, 1, 39, 110
3, 46272, Note_on_c, 1, 55, 110
3, 46464, Note_on_c, 1, 58, 110
3, 46656, Note_on_c, 1, 63, 110
3, 46844, Note_off_c, 1, 39, 100
3, 46844, Note_off_c, 1, 55, 100
3, 46848, Note_on_c, 1, 67, 110
3, 47036, Note_off_c, 1, 58, 100
3, 47040, Note_on_c, 1, 70, 110
3, 47228, Note_off_c, 1, 63, 100
3, 47232, Note_on_c, 1, 75, 110
3, 47420, Note_off_c, 1, 67, 100
3, 47424, Note_on_c, 1, 79, 110
3, 47612, Note_off_c, 1, 70, 100
3, 47612, Note_off_c, 1, 75, 100
3, 47616, Note_on_c, 1, 82, 110
3, 47804, Note_off_c, 1, 79, 100
3, 47804, Note_off_c, 1, 82, 100
3, 47808, Note_on_c, 1, 51, 80
3, 47996, Note_off_c, 1, 51, 100
3, 48000, Note_on_c, 1, 54, 80
3, 48188, Note_off_c, 1, 54, 100
3, 48192, Note_on_c, 1, 51, 80
3, 48380, Note_off_c, 1, 51, 100
3, 48384, Note_on_c, 1, 54, 80
3, 48572, Note_off_c, 1, 54, 100
3, 48576, Note_on_c, 1, 51, 80
3, 48764, Note_off_c, 1, 51, 100
3, 48768, Note_on_c, 1, 53, 80
3, 48768, Note_on_c, 1, 46, 80
3, 48956, Note_off_c, 1, 53, 100
3, 48960, Note_on_c, 1, 50, 80
3, 49148, Note_off_c, 1, 46, 100
3, 49148, Note_off_c, 1, 50, 100
3, 49152, Note_on_c, 1, 51, 80
3, 49340, Note_off_c, 1, 51, 100
3, 49344, Note_on_c, 1, 51, 83
3, 49532, Note_off_c, 1, 51, 100
3, 49536, Note_on_c, 1, 58, 87
3, 49724, Note_off_c, 1, 58, 100
3, 49728, Note_on_c, 1, 46, 91
3, 49916, Note_off_c, 1, 46, 100
3, 49920, Note_on_c, 1, 51, 95
3, 50108, Note_off_c, 1, 51, 100
3, 50112, Note_on_c, 1, 39, 99
3, 50300, Note_off_c, 1, 39, 100
3, 50304, Note_on_c, 1, 46, 103
3, 50492, Note_off_c, 1, 46, 100
3, 50496, Note_on_c, 1, 34, 107
3, 50684, Note_off_c, 1, 34, 100
3, 50688, Note_on_c, 1, 39, 110
3, 50876, Note_off_c, 1, 39, 100
3, 50880, Note_on_c, 1, 51, 110
3, 51068, Note_off_c, 1, 51, 100
3, 51072, Note_on_c, 1, 58, 110
3, 51260, Note_off_c, 1, 58, 100
3, 51264, Note_on_c, 1, 46, 110
3, 51452, Note_off_c, 1, 46, 100
3, 51456, Note_on_c, 1, 51, 110
3, 51644, Note_off_c, 1, 51, 100
3, 51648, Note_on_c, 1, 39, 110
3, 51836, Note_off_c, 1, 39, 100
3, 51840, Note_on_c, 1, 46, 110
3, 52028, Note_off_c, 1, 46, 100
3, 52032, Note_on_c, 1, 34, 110
3, 52220, Note_off_c, 1, 34, 100
3, 52224, Note_on_c, 1, 39, 80
3, 52412, Note_off_c, 1, 39, 100
3, 52416, Note_on_c, 1, 51, 83
3, 52604, Note_off_c, 1, 51, 100
3, 52608, Note_on_c, 1, 58, 87
3, 52796, Note_off_c, 1, 58, 100
3, 52800, Note_on_c, 1, 46, 91
3, 52988, Note_off_c, 1, 46, 100
3, 52992, Note_on_c, 1, 51, 95
3, 53180, Note_off_c, 1, 51, 100
3, 53184, Note_on_c, 1, 39, 99
3, 53372, Note_off_c, 1, 39, 100
3, 53376, Note_on_c, 1, 46, 103
3, 53564, Note_off_c, 1, 46, 100
3, 53568, Note_on_c, 1, 34, 107
3, 53756, Note_off_c, 1, 34, 100
3, 53760, Note_on_c, 1, 39, 110
3, 53948, Note_off_c, 1, 39, 100
3, 53952, Note_on_c, 1, 51, 110
3, 54140, Note_off_c, 1, 51, 100
3, 54144, Note_on_c, 1, 58, 110
3, 54332, Note_off_c, 1, 58, 100
3, 54336, Note_on_c, 1, 46, 110
3, 54524, Note_off_c, 1, 46, 100
3, 54528, Note_on_c, 1, 51, 110
3, 54716, Note_off_c, 1, 51, 100
3, 54720, Note_on_c, 1, 39, 110
3, 54908, Note_off_c, 1, 39, 100
3, 54912, Note_on_c, 1, 49, 110
3, 55100, Note_off_c, 1, 49, 100
3, 55104, Note_on_c, 1, 37, 110
3, 55292, Note_off_c, 1, 37, 100
3, 55296, Note_on_c, 1, 47, 110
3, 55484, Note_off_c, 1, 47, 100
3, 55488, Note_on_c, 1, 35, 110
3, 55676, Note_off_c, 1, 35, 100
3, 55680, Note_on_c, 1, 47, 110
3, 55868, Note_off_c, 1, 47, 100
3, 55872, Note_on_c, 1, 35, 110
3, 56060, Note_off_c, 1, 35, 100
3, 56064, Note_on_c, 1, 43, 120
3, 56064, Note_on_c, 1, 31, 120
3, 56636, Note_off_c, 1, 43, 100
3, 56636, Note_off_c, 1, 31, 100
3, 56832, Note_on_c, 1, 58, 120
3, 56928, Note_on_c, 1, 59, 120
3, 57008, Note_off_c, 1, 58, 100
3, 57104, Note_off_c, 1, 59, 100
3, 57216, Note_on_c, 1, 61, 120
3, 57312, Note_on_c, 1, 62, 120
3, 57388, Note_off_c, 1, 61, 100
3, 57492, Note_off_c, 1, 62, 100
3, 57600, Note_on_c, 1, 64, 120
3, 57696, Note_on_c, 1, 65, 120
3, 57780, Note_off_c, 1, 64, 100
3, 57868, Note_off_c, 1, 65, 100
3, 57984, Note_on_c, 1, 70, 120
3, 58080, Note_on_c, 1, 71, 120
3, 58156, Note_off_c, 1, 70, 100
3, 58248, Note_off_c, 1, 71, 100
3, 58368, Note_on_c, 1, 73, 120
3, 58464, Note_on_c, 1, 74, 120
3, 58536, Note_off_c, 1, 73, 100
3, 58624, Note_off_c, 1, 74, 100
3, 58752, Note_on_c, 1, 76, 120
3, 58848, Note_on_c, 1, 77, 120
3, 58936, Note_off_c, 1, 76, 100
3, 59012, Note_off_c, 1, 77, 100
3, 59136, Note_on_c, 1, 82, 120
3, 59232, Note_on_c, 1, 83, 120
3, 59296, Note_off_c, 1, 82, 100
3, 59408, Note_off_c, 1, 83, 100
3, 59520, Note_on_c, 1, 85, 120
3, 59616, Note_on_c, 1, 86, 120
3, 59704, Note_off_c, 1, 85, 100
3, 59788, Note_off_c, 1, 86, 100
3, 59904, Note_on_c, 1, 85, 80
3, 60000, Note_on_c, 1, 86, 80
3, 60080, Note_off_c, 1, 85, 100
3, 60172, Note_off_c, 1, 86, 100
3, 60288, Note_on_c, 1, 82, 80
3, 60384, Note_on_c, 1, 83, 80
3, 60452, Note_off_c, 1, 82, 100
3, 60572, Note_off_c, 1, 83, 100
3, 60672, Note_on_c, 1, 85, 80
3, 60768, Note_on_c, 1, 86, 80
3, 60840, Note_off_c, 1, 85, 100
3, 60944, Note_off_c, 1, 86, 100
3, 61056, Note_on_c, 1, 82, 80
3, 61152, Note_on_c, 1, 83, 80
3, 61216, Note_off_c, 1, 82, 100
3, 61324, Note_off_c, 1, 83, 100
3, 61440, Note_on_c, 1, 85, 80
3, 61536, Note_on_c, 1, 86, 80
3, 61604, Note_off_c, 1, 85, 100
3, 61708, Note_off_c, 1, 86, 100
3, 61824, Note_on_c, 1, 82, 80
3, 61920, Note_on_c, 1, 83, 80
3, 61988, Note_off_c, 1, 82, 100
3, 62100, Note_off_c, 1, 83, 100
3, 62208, Note_on_c, 1, 78, 80
3, 62304, Note_on_c, 1, 79, 80
3, 62384, Note_off_c, 1, 78, 100
3, 62468, Note_off_c, 1, 79, 100
3, 62592, Note_on_c, 1, 76, 80
3, 62688, Note_on_c, 1, 77, 80
3, 62752, Note_off_c, 1, 76, 100
3, 62860, Note_off_c, 1, 77, 100
3, 62976, Note_on_c, 1, 73, 80
3, 63072, Note_on_c, 1, 74, 80
3, 63148, Note_off_c, 1, 73, 100
3, 63248, Note_off_c, 1, 74, 100
3, 63360, Note_on_c, 1, 70, 80
3, 63456, Note_on_c, 1, 71, 80
3, 63532, Note_off_c, 1, 70, 100
3, 63640, Note_off_c, 1, 71, 100
3, 63744, Note_on_c, 1, 73, 80
3, 63840, Note_on_c, 1, 74, 80
3, 63912, Note_off_c, 1, 73, 100
3, 64008, Note_off_c, 1, 74, 100
3, 64128, Note_on_c, 1, 70, 80
3, 64224, Note_on_c, 1, 71, 80
3, 64312, Note_off_c, 1, 70, 100
3, 64388, Note_off_c, 1, 71, 100
3, 64512, Note_on_c, 1, 73, 70
3, 64608, Note_on_c, 1, 74, 70
3, 64684, Note_off_c, 1, 73, 100
3, 64772, Note_off_c, 1, 74, 100
3, 64896, Note_on_c, 1, 82, 70
3, 64992, Note_on_c, 1, 83, 70
3, 65064, Note_off_c, 1, 82, 100
3, 65164, Note_off_c, 1, 83, 100
3, 65280, Note_on_c, 1, 85, 70
3, 65376, Note_on_c, 1, 86, 70
3, 65452, Note_off_c, 1, 85, 100
3, 65552, Note_off_c, 1, 86, 100
3, 65664, Note_on_c, 1, 82, 70
3, 65760, Note_on_c, 1, 83, 70
3, 65852, Note_off_c, 1, 82, 100
3, 65936, Note_off_c, 1, 83, 100
3, 66048, Note_on_c, 1, 73, 70
3, 66144, Note_on_c, 1, 74, 70
3, 66232, Note_off_c, 1, 73, 100
3, 66316, Note_off_c, 1, 74, 100
3, 66432, Note_on_c, 1, 70, 70
3, 66528, Note_on_c, 1, 71, 70
3, 66604, Note_off_c, 1, 70, 100
3, 66692, Note_off_c, 1, 71, 100
3, 66816, Note_on_c, 1, 73, 70
3, 66912, Note_on_c, 1, 74, 70
3, 66992, Note_off_c, 1, 73, 100
3, 67088, Note_off_c, 1, 74, 100
3, 67200, Note_on_c, 1, 70, 70
3, 67296, Note_on_c, 1, 71, 70
3, 67372, Note_off_c, 1, 70, 100
3, 67468, Note_off_c, 1, 71, 100
3, 67584, Note_on_c, 1, 71, 110
3, 67584, Note_on_c, 1, 67, 110
3, 68156, Note_off_c, 1, 71, 100
3, 68156, Note_off_c, 1, 67, 100
3, 68160, Note_on_c, 1, 73, 110
3, 68160, Note_on_c, 1, 70, 110
3, 68160, Note_on_c, 1, 66, 110
3, 68348, Note_off_c, 1, 73, 100
3, 68348, Note_off_c, 1, 70, 100
3, 68348, Note_off_c, 1, 66, 100
3, 68352, Note_on_c, 1, 73, 110
3, 68352, Note_on_c, 1, 70, 110
3, 68352, Note_on_c, 1, 66, 110
3, 68540, Note_off_c, 1, 73, 100
3, 68540, Note_off_c, 1, 70, 100
3, 68540, Note_off_c, 1, 66, 100
3, 68928, Note_on_c, 1, 35, 80
3, 69116, Note_off_c, 1, 35, 100
3, 69120, Note_on_c, 1, 37, 80
3, 69404, Note_off_c, 1, 37, 100
3, 69408, Note_on_c, 1, 39, 80
3, 69500, Note_off_c, 1, 39, 100
3, 69504, Note_on_c, 1, 40, 80
3, 69692, Note_off_c, 1, 40, 100
3, 69696, Note_on_c, 1, 41, 80
3, 69884, Note_off_c, 1, 41, 100
3, 69888, Note_on_c, 1, 42, 80
3, 70268, Note_off_c, 1, 42, 100
3, 70656, Note_on_c, 1, 71, 110
3, 70656, Note_on_c, 1, 69, 110
3, 71228, Note_off_c, 1, 71, 100
3, 71228, Note_off_c, 1, 69, 100
3, 71232, Note_on_c, 1, 71, 110
3, 71232, Note_on_c, 1, 68, 110
3, 71420, Note_off_c, 1, 71, 100
3, 71420, Note_off_c, 1, 68, 100
3, 71424, Note_on_c, 1, 71, 110
3, 71424, Note_on_c, 1, 69, 110
3, 71424, Note_on_c, 1, 66, 110
3, 71804, Note_off_c, 1, 71, 100
3, 71804, Note_off_c, 1, 69, 100
3, 71804, Note_off_c, 1, 66, 100
3, 72000, Note_on_c, 1, 40, 80
3, 72188, Note_off_c, 1, 40, 100
3, 72192, Note_on_c, 1, 33, 80
3, 72476, Note_off_c, 1, 33, 100
3, 72480, Note_on_c, 1, 45, 80
3, 72572, Note_off_c, 1, 45, 100
3, 72576, Note_on_c, 1, 47, 80
3, 72764, Note_off_c, 1, 47, 100
3, 72768, Note_on_c, 1, 35, 80
3, 72956, Note_off_c, 1, 35, 100
3, 72960, Note_on_c, 1, 40, 80
3, 73340, Note_off_c, 1, 40, 100
3, 73728, Note_on_c, 1, 71, 110
3, 73728, Note_on_c, 1, 68, 110
3, 74300, Note_off_c, 1, 71, 100
3, 74300, Note_off_c, 1, 68, 100
3, 74304, Note_on_c, 1, 71, 110
3, 74304, Note_on_c, 1, 66, 110
3, 74492, Note_off_c, 1, 71, 100
3, 74492, Note_off_c, 1, 66, 100
3, 74496, Note_on_c, 1, 71, 110
3, 74496, Note_on_c, 1, 64, 110
3, 74684, Note_off_c, 1, 71, 100
3, 74684, Note_off_c, 1, 64, 100
3, 75072, Note_on_c, 1, 39, 80
3, 75260, Note_off_c, 1, 39, 100
3, 75264, Note_on_c, 1, 37, 80
3, 75548, Note_off_c, 1, 37, 100
3, 75552, Note_on_c, 1, 39, 80
3, 75644, Note_off_c, 1, 39, 100
3, 75648, Note_on_c, 1, 40, 80
3, 75836, Note_off_c, 1, 40, 100
3, 75840, Note_on_c, 1, 42, 80
3, 76028, Note_off_c, 1, 42, 100
3, 76032, Note_on_c, 1, 47, 80
3, 76220, Note_off_c, 1, 47, 100
3, 76224, Note_on_c, 1, 54, 83
3, 76412, Note_off_c, 1, 54, 100
3, 76416, Note_on_c, 1, 56, 87
3, 76604, Note_off_c, 1, 56, 100
3, 76608, Note_on_c, 1, 54, 91
3, 76796, Note_off_c, 1, 54, 100
3, 76800, Note_on_c, 1, 52, 95
3, 76988, Note_off_c, 1, 52, 100
3, 76992, Note_on_c, 1, 51, 99
3, 77180, Note_off_c, 1, 51, 100
3, 77184, Note_on_c, 1, 49, 103
3, 77372, Note_off_c, 1, 49, 100
3, 77376, Note_on_c, 1, 42, 107
3, 77564, Note_off_c, 1, 42, 100
3, 77568, Note_on_c, 1, 47, 110
3, 77756, Note_off_c, 1, 47, 100
3, 77760, Note_on_c, 1, 42, 110
3, 77948, Note_off_c, 1, 42, 100
3, 77952, Note_on_c, 1, 39, 110
3, 78140, Note_off_c, 1, 39, 100
3, 78144, Note_on_c, 1, 42, 110
3, 78332, Note_off_c, 1, 42, 100
3, 78336, Note_on_c, 1, 35, 110
3, 78524, Note_off_c, 1, 35, 100
3, 78528, Note_on_c, 1, 42, 110
3, 78716, Note_off_c, 1, 42, 100
3, 78720, Note_on_c, 1, 30, 110
3, 78908, Note_off_c, 1, 30, 100
3, 78912, Note_on_c, 1, 42, 110
3, 79100, Note_off_c, 1, 42, 100
3, 79104, Note_on_c, 1, 35, 110
3, 79292, Note_off_c, 1, 35, 100
3, 79296, Note_on_c, 1, 54, 110
3, 79484, Note_off_c, 1, 54, 100
3, 79488, Note_on_c, 1, 56, 110
3, 79676, Note_off_c, 1, 56, 100
3, 79680, Note_on_c, 1, 54, 110
3, 79868, Note_off_c, 1, 54, 100
3, 79872, Note_on_c, 1, 52, 110
3, 80060, Note_off_c, 1, 52, 100
3, 80064, Note_on_c, 1, 51, 110
3, 80252, Note_off_c, 1, 51, 100
3, 80256, Note_on_c, 1, 49, 110
3, 80444, Note_off_c, 1, 49, 100
3, 80448, Note_on_c, 1, 42, 110
3, 80636, Note_off_c, 1, 42, 100
3, 80640, Note_on_c, 1, 47, 110
3, 80828, Note_off_c, 1, 47, 100
3, 80832, Note_on_c, 1, 42, 110
3, 81020, Note_off_c, 1, 42, 100
3, 81024, Note_on_c, 1, 38, 110
3, 81212, Note_off_c, 1, 38, 100
3, 81216, Note_on_c, 1, 42, 110
3, 81404, Note_off_c, 1, 42, 100
3, 81408, Note_on_c, 1, 35, 110
3, 81596, Note_off_c, 1, 35, 100
3, 81600, Note_on_c, 1, 42, 110
3, 81788, Note_off_c, 1, 42, 100
3, 81792, Note_on_c, 1, 37, 110
3, 81980, Note_off_c, 1, 37, 100
3, 81984, Note_on_c, 1, 41, 110
3, 82172, Note_off_c, 1, 41, 100
3, 82176, Note_on_c, 1, 42, 110
3, 82364, Note_off_c, 1, 42, 100
3, 82368, Note_on_c, 1, 49, 110
3, 82556, Note_off_c, 1, 49, 100
3, 82560, Note_on_c, 1, 45, 110
3, 82748, Note_off_c, 1, 45, 100
3, 82752, Note_on_c, 1, 49, 110
3, 82940, Note_off_c, 1, 49, 100
3, 82944, Note_on_c, 1, 42, 110
3, 83132, Note_off_c, 1, 42, 100
3, 83136, Note_on_c, 1, 54, 110
3, 83324, Note_off_c, 1, 54, 100
3, 83328, Note_on_c, 1, 38, 110
3, 83516, Note_off_c, 1, 38, 100
3, 83520, Note_on_c, 1, 50, 110
3, 83708, Note_off_c, 1, 50, 100
3, 83712, Note_on_c, 1, 49, 110
3, 83712, Note_on_c, 1, 37, 110
3, 83900, Note_off_c, 1, 49, 100
3, 83900, Note_off_c, 1, 37, 100
3, 84096, Note_on_c, 1, 71, 110
3, 84192, Note_on_c, 1, 69, 110
3, 84260, Note_off_c, 1, 71, 100
3, 84284, Note_off_c, 1, 69, 100
3, 84480, Note_on_c, 1, 69, 110
3, 84576, Note_on_c, 1, 68, 110
3, 84656, Note_off_c, 1, 69, 100
3, 84668, Note_off_c, 1, 68, 100
3, 84864, Note_on_c, 1, 68, 110
3, 84960, Note_on_c, 1, 66, 110
3, 85044, Note_off_c, 1, 68, 100
3, 85052, Note_off_c, 1, 66, 100
3, 85248, Note_on_c, 1, 66, 110
3, 85344, Note_on_c, 1, 65, 110
3, 85416, Note_off_c, 1, 66, 100
3, 85436, Note_off_c, 1, 65, 100
3, 85632, Note_on_c, 1, 65, 110
3, 85728, Note_on_c, 1, 62, 110
3, 85796, Note_off_c, 1, 65, 100
3, 85820, Note_off_c, 1, 62, 100
3, 86016, Note_on_c, 1, 62, 110
3, 86112, Note_on_c, 1, 61, 110
3, 86200, Note_off_c, 1, 62, 100
3, 86204, Note_off_c, 1, 61, 100
3, 86400, Note_on_c, 1, 61, 110
3, 86496, Note_on_c, 1, 60, 110
3, 86584, Note_off_c, 1, 61, 100
3, 86588, Note_off_c, 1, 60, 100
3, 86784, Note_on_c, 1, 61, 100
3, 86880, Note_on_c, 1, 60, 99
3, 86948, Note_off_c, 1, 61, 100
3, 86972, Note_off_c, 1, 60, 100
3, 87168, Note_on_c, 1, 61, 95
3, 87264, Note_on_c, 1, 59, 93
3, 87356, Note_off_c, 1, 61, 100
3, 87356, Note_off_c, 1, 59, 100
3, 87552, Note_on_c, 1, 61, 80
3, 87648, Note_on_c, 1, 57, 80
3, 87732, Note_off_c, 1, 61, 100
3, 87740, Note_off_c, 1, 57, 100
3, 87936, Note_on_c, 1, 61, 80
3, 88032, Note_on_c, 1, 56, 80
3, 88108, Note_off_c, 1, 61, 100
3, 88124, Note_off_c, 1, 56, 100
3, 88320, Note_on_c, 1, 42, 110
3, 88512, Note_on_c, 1, 58, 110
3, 88704, Note_on_c, 1, 61, 110
3, 88896, Note_on_c, 1, 66, 110
3, 89084, Note_off_c, 1, 42, 100
3, 89084, Note_off_c, 1, 58, 100
3, 89088, Note_on_c, 1, 70, 110
3, 89276, Note_off_c, 1, 61, 100
3, 89280, Note_on_c, 1, 73, 110
3, 89468, Note_off_c, 1, 66, 100
3, 89472, Note_on_c, 1, 78, 110
3, 89660, Note_off_c, 1, 70, 100
3, 89664, Note_on_c, 1, 82, 110
3, 89852, Note_off_c, 1, 73, 100
3, 89852, Note_off_c, 1, 78, 100
3, 89856, Note_on_c, 1, 85, 110
3, 90044, Note_off_c, 1, 82, 100
3, 90044, Note_off_c, 1, 85, 100
3, 90048, Note_on_c, 1, 54, 80
3, 90236, Note_off_c, 1, 54, 100
3, 90240, Note_on_c, 1, 57, 80
3, 90428, Note_off_c, 1, 57, 100
3, 90432, Note_on_c, 1, 54, 80
3, 90620, Note_off_c, 1, 54, 100
3, 90624, Note_on_c, 1, 57, 80
3, 90812, Note_off_c, 1, 57, 100
3, 90816, Note_on_c, 1, 54, 80
3, 91004, Note_off_c, 1, 54, 100
3, 91008, Note_on_c, 1, 56, 80
3, 91008, Note_on_c, 1, 49, 80
3, 91196, Note_off_c, 1, 56, 100
3, 91200, Note_on_c, 1, 53, 80
3, 91388, Note_off_c, 1, 49, 100
3, 91388, Note_off_c, 1, 53, 100
3, 91392, Note_on_c, 1, 42, 110
3, 91584, Note_on_c, 1, 58, 110
3, 91776, Note_on_c, 1, 61, 110
3, 91968, Note_on_c, 1, 66, 110
3, 92156, Note_off_c, 1, 42, 100
3, 92156, Note_off_c, 1, 58, 100
3, 92160, Note_on_c, 1, 70, 110
3, 92348, Note_off_c, 1, 61, 100
3, 92352, Note_on_c, 1, 73, 110
3, 92540, Note_off_c, 1, 66, 100
3, 92544, Note_on_c, 1, 78, 110
3, 92732, Note_off_c, 1, 70, 100
3, 92736, Note_on_c, 1, 82, 110
3, 92924, Note_off_c, 1, 73, 100
3, 92924, Note_off_c, 1, 78, 100
3, 92928, Note_on_c, 1, 85, 110
3, 93116, Note_off_c, 1, 82, 100
3, 93116, Note_off_c, 1, 85, 100
3, 93120, Note_on_c, 1, 54, 80
3, 93308, Note_off_c, 1, 54, 100
3, 93312, Note_on_c, 1, 57, 80
3, 93500, Note_off_c, 1, 57, 100
3, 93504, Note_on_c, 1, 54, 80
3, 93692, Note_off_c, 1, 54, 100
3, 93696, Note_on_c, 1, 57, 80
3, 93884, Note_off_c, 1, 57, 100
3, 93888, Note_on_c, 1, 54, 80
3, 94076, Note_off_c, 1, 54, 100
3, 94080, Note_on_c, 1, 56, 80
3, 94080, Note_on_c, 1, 49, 80
3, 94268, Note_off_c, 1, 56, 100
3, 94272, Note_on_c, 1, 53, 80
3, 94460, Note_off_c, 1, 49, 100
3, 94460, Note_off_c, 1, 53, 100
3, 94464, Note_on_c, 1, 54, 80
3, 94652, Note_off_c, 1, 54, 100
3, 94656, Note_on_c, 1, 54, 83
3, 94844, Note_off_c, 1, 54, 100
3, 94848, Note_on_c, 1, 61, 87
3, 95036, Note_off_c, 1, 61, 100
3, 95040, Note_on_c, 1, 49, 91
3, 95228, Note_off_c, 1, 49, 100
3, 95232, Note_on_c, 1, 54, 95
3, 95420, Note_off_c, 1, 54, 100
3, 95424, Note_on_c, 1, 42, 99
3, 95612, Note_off_c, 1, 42, 100
3, 95616, Note_on_c, 1, 49, 103
3, 95804, Note_off_c, 1, 49, 100
3, 95808, Note_on_c, 1, 37, 107
3, 95996, Note_off_c, 1, 37, 100
3, 96000, Note_on_c, 1, 42, 110
3, 96188, Note_off_c, 1, 42, 100
3, 96192, Note_on_c, 1, 54, 110
3, 96380, Note_off_c, 1, 54, 100
3, 96384, Note_on_c, 1, 61, 110
3, 96572, Note_off_c, 1, 61, 100
3, 96576, Note_on_c, 1, 49, 110
3, 96764, Note_off_c, 1, 49, 100
3, 96768, Note_on_c, 1, 54, 110
3, 96956, Note_off_c, 1, 54, 100
3, 96960, Note_on_c, 1, 42, 110
3, 97148, Note_off_c, 1, 42, 100
3, 97152, Note_on_c, 1, 49, 110
3, 97340, Note_off_c, 1, 49, 100
3, 97344, Note_on_c, 1, 37, 110
3, 97532, Note_off_c, 1, 37, 100
3, 97536, Note_on_c, 1, 42, 80
3, 97724, Note_off_c, 1, 42, 100
3, 97728, Note_on_c, 1, 54, 83
3, 97916, Note_off_c, 1, 54, 100
3, 97920, Note_on_c, 1, 61, 87
3, 98108, Note_off_c, 1, 61, 100
3, 98112, Note_on_c, 1, 49, 91
3, 98300, Note_off_c, 1, 49, 100
3, 98304, Note_on_c, 1, 54, 95
3, 98492, Note_off_c, 1, 54, 100
3, 98496, Note_on_c, 1, 42, 99
3, 98684, Note_off_c, 1, 42, 100
3, 98688, Note_on_c, 1, 49, 103
3, 98876, Note_off_c, 1, 49, 100
3, 98880, Note_on_c, 1, 37, 107
3, 99068, Note_off_c, 1, 37, 100
3, 99072, Note_on_c, 1, 42, 110
3, 99260, Note_off_c, 1, 42, 100
3, 99264, Note_on_c, 1, 54, 110
3, 99452, Note_off_c, 1, 54, 100
3, 99456, Note_on_c, 1, 61, 110
3, 99644, Note_off_c, 1, 61, 100
3, 99648, Note_on_c, 1, 49, 110
3, 99836, Note_off_c, 1, 49, 100
3, 99840, Note_on_c, 1, 54, 110
3, 100028, Note_off_c, 1, 54, 100
3, 100032, Note_on_c, 1, 42, 110
3, 100220, Note_off_c, 1, 42, 100
3, 100224, Note_on_c, 1, 52, 110
3, 100412, Note_off_c, 1, 52, 100
3, 100416, Note_on_c, 1, 40, 110
3, 100604, Note_off_c, 1, 40, 100
3, 100608, Note_on_c, 1, 50, 110
3, 100796, Note_off_c, 1, 50, 100
3, 100800, Note_on_c, 1, 38, 110
3, 100988, Note_off_c, 1, 38, 100
3, 100992, Note_on_c, 1, 50, 110
3, 101180, Note_off_c, 1, 50, 100
3, 101184, Note_on_c, 1, 38, 110
3, 101372, Note_off_c, 1, 38, 100
3, 101376, Note_on_c, 1, 50, 120
3, 101376, Note_on_c, 1, 38, 120
3, 101948, Note_off_c, 1, 50, 100
3, 101948, Note_off_c, 1, 38, 100
3, 102144, Note_on_c, 1, 59, 120
3, 102240, Note_on_c, 1, 60, 120
3, 102324, Note_off_c, 1, 59, 100
3, 102412, Note_off_c, 1, 60, 100
3, 102528, Note_on_c, 1, 65, 119
3, 102624, Note_on_c, 1, 66, 118
3, 102688, Note_off_c, 1, 65, 100
3, 102796, Note_off_c, 1, 66, 100
3, 102912, Note_on_c, 1, 68, 117
3, 103008, Note_on_c, 1, 69, 117
3, 103096, Note_off_c, 1, 68, 100
3, 103184, Note_off_c, 1, 69, 100
3, 103296, Note_on_c, 1, 71, 116
3, 103392, Note_on_c, 1, 72, 116
3, 103472, Note_off_c, 1, 71, 100
3, 103560, Note_off_c, 1, 72, 100
3, 103680, Note_on_c, 1, 77, 115
3, 103776, Note_on_c, 1, 78, 115
3, 103852, Note_off_c, 1, 77, 100
3, 103964, Note_off_c, 1, 78, 100
3, 104064, Note_on_c, 1, 80, 114
3, 104160, Note_on_c, 1, 81, 114
3, 104244, Note_off_c, 1, 80, 100
3, 104328, Note_off_c, 1, 81, 100
3, 104448, Note_on_c, 1, 83, 113
3, 104544, Note_on_c, 1, 84, 112
3, 104628, Note_off_c, 1, 83, 100
3, 104716, Note_off_c, 1, 84, 100
3, 104832, Note_on_c, 1, 89, 111
3, 104928, Note_on_c, 1, 90, 111
3, 104996, Note_off_c, 1, 89, 100
3, 105104, Note_off_c, 1, 90, 100
3, 105216, Note_on_c, 1, 92, 80
3, 105312, Note_on_c, 1, 93, 80
3, 105380, Note_off_c, 1, 92, 100
3, 105492, Note_off_c, 1, 93, 100
3, 105600, Note_on_c, 1, 89, 80
3, 105696, Note_on_c, 1, 90, 80
3, 105772, Note_off_c, 1, 89, 100
3, 105876, Note_off_c, 1, 90, 100
3, 105984, Note_on_c, 1, 83, 80
3, 106080, Note_on_c, 1, 84, 80
3, 106160, Note_off_c, 1, 83, 100
3, 106260, Note_off_c, 1, 84, 100
3, 106368, Note_on_c, 1, 80, 80
3, 106464, Note_on_c, 1, 81, 80
3, 106552, Note_off_c, 1, 80, 100
3, 106652, Note_off_c, 1, 81, 100
3, 106752, Note_on_c, 1, 80, 80
3, 106848, Note_on_c, 1, 81, 80
3, 106932, Note_off_c, 1, 80, 100
3, 107016, Note_off_c, 1, 81, 100
3, 107136, Note_on_c, 1, 77, 80
3, 107232, Note_on_c, 1, 78, 80
3, 107312, Note_off_c, 1, 77, 100
3, 107404, Note_off_c, 1, 78, 100
3, 107520, Note_on_c, 1, 71, 80
3, 107616, Note_on_c, 1, 72, 80
3, 107692, Note_off_c, 1, 71, 100
3, 107792, Note_off_c, 1, 72, 100
3, 107904, Note_on_c, 1, 68, 80
3, 108000, Note_on_c, 1, 69, 80
3, 108084, Note_off_c, 1, 68, 100
3, 108164, Note_off_c, 1, 69, 100
3, 108288, Note_on_c, 1, 65, 80
3, 108384, Note_on_c, 1, 66, 80
3, 108460, Note_off_c, 1, 65, 100
3, 108564, Note_off_c, 1, 66, 100
3, 108672, Note_on_c, 1, 68, 80
3, 108768, Note_on_c, 1, 69, 80
3, 108852, Note_off_c, 1, 68, 100
3, 108956, Note_off_c, 1, 69, 100
3, 109056, Note_on_c, 1, 65, 80
3, 109152, Note_on_c, 1, 66, 80
3, 109228, Note_off_c, 1, 65, 100
3, 109328, Note_off_c, 1, 66, 100
3, 109440, Note_on_c, 1, 80, 80
3, 109536, Note_on_c, 1, 81, 80
3, 109620, Note_off_c, 1, 80, 100
3, 109712, Note_off_c, 1, 81, 100
3, 109824, Note_on_c, 1, 77, 80
3, 109920, Note_on_c, 1, 78, 80
3, 110012, Note_off_c, 1, 77, 100
3, 110104, Note_off_c, 1, 78, 100
3, 110208, Note_on_c, 1, 80, 80
3, 110304, Note_on_c, 1, 81, 80
3, 110384, Note_off_c, 1, 80, 100
3, 110492, Note_off_c, 1, 81, 100
3, 110592, Note_on_c, 1, 77, 80
3, 110688, Note_on_c, 1, 78, 80
3, 110760, Note_off_c, 1, 77, 100
3, 110860, Note_off_c, 1, 78, 100
3, 110976, Note_on_c, 1, 80, 80
3, 111072, Note_on_c, 1, 81, 80
3, 111140, Note_off_c, 1, 80, 100
3, 111244, Note_off_c, 1, 81, 100
3, 111360, Note_on_c, 1, 77, 80
3, 111456, Note_on_c, 1, 78, 80
3, 111536, Note_off_c, 1, 77, 100
3, 111632, Note_off_c, 1, 78, 100
3, 111744, Note_on_c, 1, 80, 80
3, 111840, Note_on_c, 1, 81, 80
3, 111912, Note_off_c, 1, 80, 100
3, 112012, Note_off_c, 1, 81, 100
3, 112128, Note_on_c, 1, 77, 80
3, 112224, Note_on_c, 1, 78, 80
3, 112316, Note_off_c, 1, 77, 100
3, 112384, Note_off_c, 1, 78, 100
3, 112512, Note_on_c, 1, 80, 80
3, 112608, Note_on_c, 1, 81, 80
3, 112684, Note_off_c, 1, 80, 100
3, 112776, Note_off_c, 1, 81, 100
3, 112896, Note_on_c, 1, 68, 70
3, 112992, Note_on_c, 1, 69, 70
3, 113072, Note_off_c, 1, 68, 100
3, 113180, Note_off_c, 1, 69, 100
3, 113280, Note_on_c, 1, 71, 70
3, 113376, Note_on_c, 1, 72, 70
3, 113464, Note_off_c, 1, 71, 100
3, 113556, Note_off_c, 1, 72, 100
3, 113664, Note_on_c, 1, 68, 70
3, 113760, Note_on_c, 1, 69, 70
3, 113832, Note_off_c, 1, 68, 100
3, 113936, Note_off_c, 1, 69, 100
3, 114048, Note_on_c, 1, 71, 70
3, 114144, Note_on_c, 1, 72, 70
3, 114220, Note_off_c, 1, 71, 100
3, 114308, Note_off_c, 1, 72, 100
3, 114432, Note_on_c, 1, 66, 110
3, 114432, Note_on_c, 1, 62, 110
3, 115004, Note_off_c, 1, 66, 100
3, 115004, Note_off_c, 1, 62, 100
3, 115008, Note_on_c, 1, 68, 110
3, 115008, Note_on_c, 1, 65, 110
3, 115008, Note_on_c, 1, 61, 110
3, 115196, Note_off_c, 1, 68, 100
3, 115196, Note_off_c, 1, 65, 100
3, 115196, Note_off_c, 1, 61, 100
3, 115200, Note_on_c, 1, 68, 110
3, 115200, Note_on_c, 1, 61, 110
3, 115200, Note_on_c, 1, 65, 110
3, 115580, Note_off_c, 1, 68, 100
3, 115580, Note_off_c, 1, 61, 100
3, 115580, Note_off_c, 1, 65, 100
3, 115776, Note_on_c, 1, 42, 80
3, 115964, Note_off_c, 1, 42, 100
3, 115968, Note_on_c, 1, 35, 80
3, 116252, Note_off_c, 1, 35, 100
3, 116256, Note_on_c, 1, 37, 80
3, 116348, Note_off_c, 1, 37, 100
3, 116352, Note_on_c, 1, 39, 80
3, 116540, Note_off_c, 1, 39, 100
3, 116544, Note_on_c, 1, 36, 80
3, 116732, Note_off_c, 1, 36, 100
3, 116736, Note_on_c, 1, 37, 80
3, 117116, Note_off_c, 1, 37, 100
3, 117504, Note_on_c, 1, 66, 110
3, 117504, Note_on_c, 1, 61, 110
3, 117504, Note_on_c, 1, 64, 110
3, 118076, Note_off_c, 1, 66, 100
3, 118076, Note_off_c, 1, 61, 100
3, 118076, Note_off_c, 1, 64, 100
3, 118080, Note_on_c, 1, 66, 110
3, 118080, Note_on_c, 1, 63, 110
3, 118080, Note_on_c, 1, 59, 110
3, 118268, Note_off_c, 1, 66, 100
3, 118268, Note_off_c, 1, 63, 100
3, 118268, Note_off_c, 1, 59, 100
3, 118272, Note_on_c, 1, 66, 110
3, 118272, Note_on_c, 1, 61, 110
3, 118272, Note_on_c, 1, 58, 110
3, 118652, Note_off_c, 1, 66, 100
3, 118652, Note_off_c, 1, 61, 100
3, 118652, Note_off_c, 1, 58, 100
3, 118848, Note_on_c, 1, 35, 80
3, 119036, Note_off_c, 1, 35, 100
3, 119040, Note_on_c, 1, 40, 80
3, 119324, Note_off_c, 1, 40, 100
3, 119328, Note_on_c, 1, 37, 80
3, 119420, Note_off_c, 1, 37, 100
3, 119424, Note_on_c, 1, 42, 80
3, 119612, Note_off_c, 1, 42, 100
3, 119616, Note_on_c, 1, 42, 80
3, 119804, Note_off_c, 1, 42, 100
3, 119808, Note_on_c, 1, 35, 80
3, 120188, Note_off_c, 1, 35, 100
3, 120576, Note_on_c, 1, 66, 80
3, 120576, Note_on_c, 1, 63, 80
3, 121148, Note_off_c, 1, 66, 100
3, 121148, Note_off_c, 1, 63, 100
3, 121152, Note_on_c, 1, 66, 80
3, 121152, Note_on_c, 1, 61, 80
3, 121340, Note_off_c, 1, 66, 100
3, 121340, Note_off_c, 1, 61, 100
3, 121344, Note_on_c, 1, 66, 80
3, 121344, Note_on_c, 1, 59, 80
3, 121724, Note_off_c, 1, 66, 100
3, 121724, Note_off_c, 1, 59, 100
3, 121920, Note_on_c, 1, 46, 80
3, 122108, Note_off_c, 1, 46, 100
3, 122112, Note_on_c, 1, 44, 80
3, 122396, Note_off_c, 1, 44, 100
3, 122400, Note_on_c, 1, 46, 80
3, 122492, Note_off_c, 1, 46, 100
3, 122496, Note_on_c, 1, 47, 80
3, 122684, Note_off_c, 1, 47, 100
3, 122688, Note_on_c, 1, 49, 80
3, 122876, Note_off_c, 1, 49, 100
3, 122880, Note_on_c, 1, 42, 80
3, 123164, Note_off_c, 1, 42, 100
3, 123168, Note_on_c, 1, 44, 80
3, 123260, Note_off_c, 1, 44, 100
3, 123264, Note_on_c, 1, 46, 80
3, 123452, Note_off_c, 1, 46, 100
3, 123456, Note_on_c, 1, 47, 80
3, 123644, Note_off_c, 1, 47, 100
3, 123648, Note_on_c, 1, 44, 80
3, 123932, Note_off_c, 1, 44, 100
3, 123936, Note_on_c, 1, 46, 80
3, 124028, Note_off_c, 1, 46, 100
3, 124032, Note_on_c, 1, 47, 80
3, 124220, Note_off_c, 1, 47, 100
3, 124224, Note_on_c, 1, 49, 80
3, 124412, Note_off_c, 1, 49, 100
3, 124416, Note_on_c, 1, 42, 80
3, 124700, Note_off_c, 1, 42, 100
3, 124704, Note_on_c, 1, 44, 80
3, 124796, Note_off_c, 1, 44, 100
3, 124800, Note_on_c, 1, 46, 80
3, 124988, Note_off_c, 1, 46, 100
3, 124992, Note_on_c, 1, 47, 80
3, 125180, Note_off_c, 1, 47, 100
3, 125184, Note_on_c, 1, 49, 82
3, 125468, Note_off_c, 1, 49, 100
3, 125472, Note_on_c, 1, 51, 86
3, 125564, Note_off_c, 1, 51, 100
3, 125568, Note_on_c, 1, 52, 87
3, 125756, Note_off_c, 1, 52, 100
3, 125760, Note_on_c, 1, 54, 89
3, 125948, Note_off_c, 1, 54, 100
3, 125952, Note_on_c, 1, 56, 92
3, 126236, Note_off_c, 1, 56, 100
3, 126240, Note_on_c, 1, 58, 96
3, 126332, Note_off_c, 1, 58, 100
3, 126336, Note_on_c, 1, 59, 97
3, 126524, Note_off_c, 1, 59, 100
3, 126528, Note_on_c, 1, 61, 99
3, 126716, Note_off_c, 1, 61, 100
3, 126720, Note_on_c, 1, 63, 102
3, 127004, Note_off_c, 1, 63, 100
3, 127008, Note_on_c, 1, 64, 106
3, 127100, Note_off_c, 1, 64, 100
3, 127104, Note_on_c, 1, 66, 107
3, 127292, Note_off_c, 1, 66, 100
3, 127296, Note_on_c, 1, 71, 109
3, 127484, Note_off_c, 1, 71, 100
3, 127488, Note_on_c, 1, 65, 110
3, 127772, Note_off_c, 1, 65, 100
3, 127776, Note_on_c, 1, 66, 110
3, 127868, Note_off_c, 1, 66, 100
3, 127872, Note_on_c, 1, 68, 110
3, 128060, Note_off_c, 1, 68, 100
3, 128064, Note_on_c, 1, 73, 110
3, 128252, Note_off_c, 1, 73, 100
3, 128256, Note_on_c, 1, 65, 110
3, 128540, Note_off_c, 1, 65, 100
3, 128544, Note_on_c, 1, 66, 110
3, 128636, Note_off_c, 1, 66, 100
3, 128640, Note_on_c, 1, 68, 110
3, 128828, Note_off_c, 1, 68, 100
3, 128832, Note_on_c, 1, 73, 110
3, 129020, Note_off_c, 1, 73, 100
3, 129024, Note_on_c, 1, 66, 110
3, 129308, Note_off_c, 1, 66, 100
3, 129312, Note_on_c, 1, 68, 110
3, 129404, Note_off_c, 1, 68, 100
3, 129408, Note_on_c, 1, 70, 110
3, 129596, Note_off_c, 1, 70, 100
3, 129600, Note_on_c, 1, 73, 110
3, 129788, Note_off_c, 1, 73, 100
3, 129792, Note_on_c, 1, 65, 110
3, 130076, Note_off_c, 1, 65, 100
3, 130080, Note_on_c, 1, 66, 110
3, 130172, Note_off_c, 1, 66, 100
3, 130176, Note_on_c, 1, 68, 110
3, 130364, Note_off_c, 1, 68, 100
3, 130368, Note_on_c, 1, 73, 110
3, 130556, Note_off_c, 1, 73, 100
3, 130560, Note_on_c, 1, 63, 110
3, 130844, Note_off_c, 1, 63, 100
3, 130848, Note_on_c, 1, 65, 110
3, 130940, Note_off_c, 1, 65, 100
3, 130944, Note_on_c, 1, 66, 110
3, 131132, Note_off_c, 1, 66, 100
3, 131136, Note_on_c, 1, 73, 110
3, 131324, Note_off_c, 1, 73, 100
3, 131328, Note_on_c, 1, 61, 110
3, 131612, Note_off_c, 1, 61, 100
3, 131616, Note_on_c, 1, 63, 110
3, 131708, Note_off_c, 1, 63, 100
3, 131712, Note_on_c, 1, 65, 110
3, 131900, Note_off_c, 1, 65, 100
3, 131904, Note_on_c, 1, 65, 110
3, 131904, Note_on_c, 1, 68, 110
3, 132092, Note_off_c, 1, 65, 100
3, 132092, Note_off_c, 1, 68, 100
3, 132096, Note_on_c, 1, 68, 110
3, 132096, Note_on_c, 1, 65, 110
3, 132380, Note_off_c, 1, 68, 100
3, 132380, Note_off_c, 1, 65, 100
3, 132384, Note_on_c, 1, 70, 80
3, 132384, Note_on_c, 1, 66, 80
3, 132476, Note_off_c, 1, 70, 100
3, 132476, Note_off_c, 1, 66, 100
3, 132480, Note_on_c, 1, 71, 80
3, 132480, Note_on_c, 1, 68, 80
3, 132668, Note_off_c, 1, 71, 100
3, 132668, Note_off_c, 1, 68, 100
3, 132672, Note_on_c, 1, 56, 80
3, 132672, Note_on_c, 1, 53, 80
3, 132860, Note_off_c, 1, 56, 100
3, 132860, Note_off_c, 1, 53, 100
3, 132864, Note_on_c, 1, 56, 80
3, 132864, Note_on_c, 1, 53, 80
3, 133148, Note_off_c, 1, 56, 100
3, 133148, Note_off_c, 1, 53, 100
3, 133152, Note_on_c, 1, 58, 80
3, 133152, Note_on_c, 1, 54, 80
3, 133244, Note_off_c, 1, 58, 100
3, 133244, Note_off_c, 1, 54, 100
3, 133248, Note_on_c, 1, 59, 80
3, 133248, Note_on_c, 1, 56, 80
3, 133436, Note_off_c, 1, 59, 100
3, 133436, Note_off_c, 1, 56, 100
3, 133440, Note_on_c, 1, 61, 80
3, 133440, Note_on_c, 1, 58, 80
3, 133628, Note_off_c, 1, 61, 100
3, 133628, Note_off_c, 1, 58, 100
3, 133632, Note_on_c, 1, 61, 80
3, 133632, Note_on_c, 1, 59, 80
3, 134396, Note_off_c, 1, 61, 100
3, 134396, Note_off_c, 1, 59, 100
3, 134400, Note_on_c, 1, 60, 70
3, 134400, Note_on_c, 1, 57, 70
3, 135164, Note_off_c, 1, 60, 100
3, 135164, Note_off_c, 1, 57, 100
3, 135168, Control_c, 1, 64, 127
3, 135168, Note_on_c, 1, 37, 90
3, 135216, Note_on_c, 1, 41, 90
3, 135264, Note_on_c, 1, 44, 91
3, 135312, Note_on_c, 1, 47, 91
3, 135332, Note_off_c, 1, 37, 100
3, 135360, Note_on_c, 1, 49, 92
3, 135404, Note_off_c, 1, 41, 100
3, 135408, Note_on_c, 1, 53, 93
3, 135456, Note_off_c, 1, 44, 100
3, 135456, Note_on_c, 1, 56, 93
3, 135500, Note_off_c, 1, 47, 100
3, 135504, Note_on_c, 1, 59, 94
3, 135536, Note_off_c, 1, 49, 100
3, 135552, Note_on_c, 1, 61, 94
3, 135584, Note_off_c, 1, 53, 100
3, 135600, Note_on_c, 1, 65, 95
3, 135648, Note_on_c, 1, 49, 96
3, 135652, Note_off_c, 1, 56, 100
3, 135696, Note_on_c, 1, 53, 96
3, 135712, Note_off_c, 1, 59, 100
3, 135744, Note_off_c, 1, 61, 100
3, 135744, Note_on_c, 1, 56, 97
3, 135776, Note_off_c, 1, 65, 100
3, 135792, Note_on_c, 1, 59, 98
3, 135828, Note_off_c, 1, 49, 100
3, 135840, Note_on_c, 1, 61, 98
3, 135884, Note_off_c, 1, 53, 100
3, 135888, Note_on_c, 1, 65, 99
3, 135936, Note_off_c, 1, 56, 100
3, 135964, Note_off_c, 1, 59, 100
3, 136028, Note_off_c, 1, 61, 100
3, 136080, Note_off_c, 1, 65, 100
3, 137464, Control_c, 1, 64, 0
3, 137472, Note_on_c, 1, 42, 110
3, 137472, Note_on_c, 1, 48, 110
3, 138044, Note_off_c, 1, 48, 100
3, 138048, Note_on_c, 1, 49, 110
3, 138236, Note_off_c, 1, 49, 100
3, 138240, Note_on_c, 1, 51, 110
3, 138428, Note_off_c, 1, 51, 100
3, 138432, Note_on_c, 1, 47, 110
3, 138620, Note_off_c, 1, 47, 100
3, 138624, Note_on_c, 1, 53, 110
3, 138812, Note_off_c, 1, 53, 100
3, 138816, Note_on_c, 1, 49, 110
3, 139004, Note_off_c, 1, 42, 100
3, 139004, Note_off_c, 1, 49, 100
3, 139008, Note_on_c, 1, 54, 120
3, 139008, Note_on_c, 1, 60, 120
3, 139580, Note_off_c, 1, 60, 100
3, 139584, Note_on_c, 1, 61, 120
3, 139772, Note_off_c, 1, 61, 100
3, 139776, Note_on_c, 1, 63, 120
3, 139964, Note_off_c, 1, 63, 100
3, 139968, Note_on_c, 1, 59, 120
3, 140156, Note_off_c, 1, 59, 100
3, 140160, Note_on_c, 1, 65, 120
3, 140348, Note_off_c, 1, 65, 100
3, 140352, Note_on_c, 1, 61, 120
3, 140540, Note_off_c, 1, 54, 100
3, 140540, Note_off_c, 1, 61, 100
3, 140544, Note_on_c, 1, 66, 120
3, 140732, Note_off_c, 1, 66, 100
3, 140736, Note_on_c, 1, 61, 120
3, 140924, Note_off_c, 1, 61, 100
3, 140928, Note_on_c, 1, 54, 120
3, 141116, Note_off_c, 1, 54, 100
3, 141120, Note_on_c, 1, 49, 120
3, 141308, Note_off_c, 1, 49, 100
3, 141312, Note_on_c, 1, 42, 120
3, 141884, Note_off_c, 1, 42, 100
3, 141884, End_track
0, 0, End_of_file
