0, 0, Header, 1, 3, 384
1, 0, Start_track
1, 0, Title_t, "L.v.Beethoven 1mov - Piano Sonata No.24 in C# Major Op.78\000"
1, 0, Copyright_t, "Copyright(C) 1995-2009, Suzuki Software\000"
1, 0, Sequencer_specific, 9, 67, 123, 0, 88, 70, 48, 50, 0, 1
1, 0, Text_t, "XFhd:2000/09/03:JP:Classical::::L.v.Beethoven:::Kaoru Suzuki\000"
1, 0, Text_t, "XFln:JP:\203s\203A\203m\203\\\203i\203^\221æ24\224Ô\211d\203w\222·\222²\215ì\225i78\201`\221æ1\212y\217Í:L.v.\203x\201[\203g\201[\203\224\203F\203\223:::\227é\202¿\202á\202ñ:\227é\202¿\202á\202ñ\000"
1, 0, Time_signature, 2, 2, 96, 8
1, 0, Sequencer_specific, 3, 0, 0, 65
1, 0, Sequencer_specific, 5, 0, 0, 119, 14, 0
1, 0, Tempo, 1666666
1, 2304, Tempo, 2000000
1, 2688, Tempo, 1666666
1, 3072, Time_signature, 1, 2, 96, 8
1, 3072, Tempo, 461538
1, 3456, Time_signature, 4, 2, 96, 8
1, 15744, Tempo, 480000
1, 17280, Tempo, 461538
1, 18816, Tempo, 495867
1, 20544, Tempo, 461538
1, 37632, Tempo, 476190
1, 38016, Tempo, 487804
1, 38400, Tempo, 500000
1, 38592, Tempo, 600000
1, 38688, Tempo, 750000
1, 38784, Tempo, 461538
1, 47616, Tempo, 545454
1, 48768, Tempo, 461538
1, 134400, Tempo, 480000
1, 134784, Tempo, 545454
1, 135552, Tempo, 461538
1, 147456, Tempo, 545454
1, 147840, Tempo, 461538
1, 158592, Tempo, 476190
1, 160128, Tempo, 461538
1, 190464, Tempo, 491803
1, 191616, Tempo, 461538
1, 209280, Tempo, 500000
1, 210816, Tempo, 461538
1, 237312, Tempo, 480000
1, 237696, Tempo, 545454
1, 238464, Tempo, 461538
1, 311424, Tempo, 480000
1, 311808, Tempo, 545454
1, 311808, End_track
2, 0, Start_track
2, 0, Title_t, "Right"
2, 0, Control_c, 0, 0, 0
2, 0, Program_c, 0, 0
2, 0, Control_c, 0, 7, 100
2, 0, Control_c, 0, 10, 70
2, 0, Control_c, 0, 91, 127
2, 0, Key_signature, 6, "major"
2, 0, Note_on_c, 0, 61, 80
2, 0, Note_on_c, 0, 58, 80
2, 380, Note_off_c, 0, 61, 100
2, 380, Note_off_c, 0, 58, 100
2, 384, Note_on_c, 0, 66, 80
2, 384, Note_on_c, 0, 61, 80
2, 384, Note_on_c, 0, 58, 80
2, 668, Note_off_c, 0, 66, 100
2, 668, Note_off_c, 0, 61, 100
2, 668, Note_off_c, 0, 58, 100
2, 672, Note_on_c, 0, 68, 80
2, 672, Note_on_c, 0, 65, 80
2, 672, Note_on_c, 0, 59, 80
2, 764, Note_off_c, 0, 68, 100
2, 764, Note_off_c, 0, 65, 100
2, 764, Note_off_c, 0, 59, 100
2, 768, Note_on_c, 0, 68, 80
2, 768, Note_on_c, 0, 65, 80
2, 768, Note_on_c, 0, 59, 80
2, 1148, Note_off_c, 0, 68, 100
2, 1148, Note_off_c, 0, 65, 100
2, 1148, Note_off_c, 0, 59, 100
2, 1152, Note_on_c, 0, 70, 80
2, 1152, Note_on_c, 0, 66, 80
2, 1152, Note_on_c, 0, 61, 80
2, 1340, Note_off_c, 0, 70, 100
2, 1340, Note_off_c, 0, 66, 100
2, 1340, Note_off_c, 0, 61, 100
2, 1344, Note_on_c, 0, 70, 80
2, 1344, Note_on_c, 0, 64, 80
2, 1344, Note_on_c, 0, 61, 80
2, 1532, Note_off_c, 0, 70, 100
2, 1532, Note_off_c, 0, 64, 100
2, 1532, Note_off_c, 0, 61, 100
2, 1536, Note_on_c, 0, 66, 80
2, 1536, Note_on_c, 0, 63, 80
2, 1536, Note_on_c, 0, 71, 80
2, 1724, Note_off_c, 0, 71, 100
2, 1728, Note_on_c, 0, 73, 80
2, 1772, Note_off_c, 0, 73, 100
2, 1776, Note_on_c, 0, 71, 80
2, 1820, Note_off_c, 0, 71, 100
2, 1824, Note_on_c, 0, 70, 80
2, 1868, Note_off_c, 0, 70, 100
2, 1872, Note_on_c, 0, 71, 80
2, 1916, Note_off_c, 0, 66, 100
2, 1916, Note_off_c, 0, 63, 100
2, 1916, Note_off_c, 0, 71, 100
2, 1920, Note_on_c, 0, 68, 80
2, 1920, Note_on_c, 0, 65, 80
2, 1920, Note_on_c, 0, 75, 80
2, 2204, Note_off_c, 0, 75, 100
2, 2208, Note_on_c, 0, 73, 80
2, 2300, Note_off_c, 0, 68, 100
2, 2300, Note_off_c, 0, 65, 100
2, 2300, Note_off_c, 0, 73, 100
2, 2304, Note_on_c, 0, 71, 80
2, 2304, Note_on_c, 0, 66, 80
2, 2348, Note_off_c, 0, 71, 100
2, 2352, Note_on_c, 0, 70, 80
2, 2396, Note_off_c, 0, 70, 100
2, 2400, Note_on_c, 0, 75, 80
2, 2444, Note_off_c, 0, 75, 100
2, 2448, Note_on_c, 0, 73, 80
2, 2492, Note_off_c, 0, 66, 100
2, 2492, Note_off_c, 0, 73, 100
2, 2496, Note_on_c, 0, 73, 80
2, 3068, Note_off_c, 0, 73, 100
2, 3072, Note_on_c, 0, 70, 80
2, 3356, Note_off_c, 0, 70, 100
2, 3360, Note_on_c, 0, 71, 80
2, 3452, Note_off_c, 0, 71, 100
2, 3456, Note_on_c, 0, 73, 80
2, 3836, Note_off_c, 0, 73, 100
2, 3840, Note_on_c, 0, 66, 80
2, 3840, Note_on_c, 0, 61, 80
2, 4220, Note_off_c, 0, 66, 100
2, 4220, Note_off_c, 0, 61, 100
2, 4224, Note_on_c, 0, 65, 80
2, 4224, Note_on_c, 0, 61, 80
2, 4604, Note_off_c, 0, 65, 100
2, 4604, Note_off_c, 0, 61, 100
2, 4608, Note_on_c, 0, 66, 80
2, 4608, Note_on_c, 0, 61, 80
2, 4988, Note_off_c, 0, 66, 100
2, 4988, Note_off_c, 0, 61, 100
2, 4992, Note_on_c, 0, 71, 80
2, 4992, Note_on_c, 0, 65, 80
2, 4992, Note_on_c, 0, 59, 80
2, 4992, Note_on_c, 0, 61, 80
2, 6140, Note_off_c, 0, 71, 100
2, 6140, Note_off_c, 0, 65, 100
2, 6140, Note_off_c, 0, 59, 100
2, 6140, Note_off_c, 0, 61, 100
2, 6144, Note_on_c, 0, 61, 80
2, 6144, Note_on_c, 0, 56, 80
2, 6144, Note_on_c, 0, 68, 80
2, 6524, Note_off_c, 0, 61, 100
2, 6524, Note_off_c, 0, 56, 100
2, 6524, Note_off_c, 0, 68, 100
2, 6528, Note_on_c, 0, 70, 80
2, 6528, Note_on_c, 0, 61, 80
2, 6528, Note_on_c, 0, 58, 80
2, 6908, Note_off_c, 0, 70, 100
2, 6908, Note_off_c, 0, 61, 100
2, 6908, Note_off_c, 0, 58, 100
2, 6912, Note_on_c, 0, 75, 80
2, 6912, Note_on_c, 0, 63, 80
2, 7292, Note_off_c, 0, 75, 100
2, 7292, Note_off_c, 0, 63, 100
2, 7296, Note_on_c, 0, 73, 80
2, 7296, Note_on_c, 0, 61, 80
2, 7676, Note_off_c, 0, 73, 100
2, 7676, Note_off_c, 0, 61, 100
2, 7680, Note_on_c, 0, 78, 80
2, 7680, Note_on_c, 0, 66, 80
2, 8060, Note_off_c, 0, 78, 100
2, 8060, Note_off_c, 0, 66, 100
2, 8064, Note_on_c, 0, 77, 80
2, 8064, Note_on_c, 0, 65, 80
2, 8444, Note_off_c, 0, 77, 100
2, 8444, Note_off_c, 0, 65, 100
2, 8448, Note_on_c, 0, 75, 80
2, 8448, Note_on_c, 0, 63, 80
2, 8828, Note_off_c, 0, 75, 100
2, 8828, Note_off_c, 0, 63, 100
2, 8832, Note_on_c, 0, 73, 80
2, 8832, Note_on_c, 0, 61, 80
2, 9212, Note_off_c, 0, 73, 100
2, 9212, Note_off_c, 0, 61, 100
2, 9216, Note_on_c, 0, 70, 80
2, 9308, Note_off_c, 0, 70, 100
2, 9312, Note_on_c, 0, 71, 80
2, 9404, Note_off_c, 0, 71, 100
2, 9408, Note_on_c, 0, 70, 80
2, 9500, Note_off_c, 0, 70, 100
2, 9504, Note_on_c, 0, 66, 80
2, 9596, Note_off_c, 0, 66, 100
2, 9600, Note_on_c, 0, 71, 80
2, 9692, Note_off_c, 0, 71, 100
2, 9696, Note_on_c, 0, 73, 80
2, 9788, Note_off_c, 0, 73, 100
2, 9792, Note_on_c, 0, 71, 80
2, 9884, Note_off_c, 0, 71, 100
2, 9888, Note_on_c, 0, 68, 80
2, 9980, Note_off_c, 0, 68, 100
2, 9984, Note_on_c, 0, 65, 80
2, 10364, Note_off_c, 0, 65, 100
2, 10752, Note_on_c, 0, 71, 80
2, 10844, Note_off_c, 0, 71, 100
2, 10848, Note_on_c, 0, 73, 80
2, 10940, Note_off_c, 0, 73, 100
2, 10944, Note_on_c, 0, 71, 80
2, 11036, Note_off_c, 0, 71, 100
2, 11040, Note_on_c, 0, 68, 80
2, 11132, Note_off_c, 0, 68, 100
2, 11136, Note_on_c, 0, 73, 80
2, 11228, Note_off_c, 0, 73, 100
2, 11232, Note_on_c, 0, 75, 80
2, 11324, Note_off_c, 0, 75, 100
2, 11328, Note_on_c, 0, 73, 80
2, 11420, Note_off_c, 0, 73, 100
2, 11424, Note_on_c, 0, 70, 80
2, 11516, Note_off_c, 0, 70, 100
2, 11520, Note_on_c, 0, 66, 80
2, 11900, Note_off_c, 0, 66, 100
2, 12288, Note_on_c, 0, 78, 80
2, 12412, Note_off_c, 0, 78, 100
2, 12416, Note_on_c, 0, 77, 80
2, 12540, Note_off_c, 0, 77, 100
2, 12544, Note_on_c, 0, 75, 80
2, 12668, Note_off_c, 0, 75, 100
2, 12672, Note_on_c, 0, 73, 80
2, 12796, Note_off_c, 0, 73, 100
2, 12800, Note_on_c, 0, 71, 81
2, 12924, Note_off_c, 0, 71, 100
2, 12928, Note_on_c, 0, 70, 83
2, 13052, Note_off_c, 0, 70, 100
2, 13056, Note_on_c, 0, 68, 85
2, 13180, Note_off_c, 0, 68, 100
2, 13184, Note_on_c, 0, 66, 87
2, 13308, Note_off_c, 0, 66, 100
2, 13312, Note_on_c, 0, 65, 89
2, 13436, Note_off_c, 0, 65, 100
2, 13440, Note_on_c, 0, 63, 90
2, 13564, Note_off_c, 0, 63, 100
2, 13568, Note_on_c, 0, 61, 92
2, 13692, Note_off_c, 0, 61, 100
2, 13696, Note_on_c, 0, 60, 94
2, 13820, Note_off_c, 0, 60, 100
2, 13824, Note_on_c, 0, 61, 96
2, 13948, Note_off_c, 0, 61, 100
2, 13952, Note_on_c, 0, 63, 98
2, 14076, Note_off_c, 0, 63, 100
2, 14080, Note_on_c, 0, 65, 99
2, 14204, Note_off_c, 0, 65, 100
2, 14208, Note_on_c, 0, 66, 80
2, 14208, Note_on_c, 0, 61, 80
2, 14588, Note_off_c, 0, 66, 100
2, 14588, Note_off_c, 0, 61, 100
2, 14592, Note_on_c, 0, 68, 80
2, 14592, Note_on_c, 0, 65, 80
2, 14592, Note_on_c, 0, 61, 80
2, 14972, Note_off_c, 0, 68, 100
2, 14972, Note_off_c, 0, 65, 100
2, 14972, Note_off_c, 0, 61, 100
2, 14976, Note_on_c, 0, 70, 80
2, 14976, Note_on_c, 0, 61, 80
2, 14976, Note_on_c, 0, 66, 80
2, 15356, Note_off_c, 0, 70, 100
2, 15356, Note_off_c, 0, 61, 100
2, 15356, Note_off_c, 0, 66, 100
2, 15744, Note_on_c, 0, 70, 80
2, 15744, Note_on_c, 0, 66, 80
2, 15744, Note_on_c, 0, 61, 80
2, 16124, Note_off_c, 0, 70, 100
2, 16124, Note_off_c, 0, 66, 100
2, 16124, Note_off_c, 0, 61, 100
2, 16512, Note_on_c, 0, 71, 80
2, 16512, Note_on_c, 0, 68, 80
2, 16512, Note_on_c, 0, 63, 80
2, 16892, Note_off_c, 0, 71, 100
2, 16892, Note_off_c, 0, 68, 100
2, 16892, Note_off_c, 0, 63, 100
2, 17280, Note_on_c, 0, 68, 80
2, 17280, Note_on_c, 0, 65, 80
2, 17280, Note_on_c, 0, 61, 80
2, 17660, Note_off_c, 0, 68, 100
2, 17660, Note_off_c, 0, 65, 100
2, 17660, Note_off_c, 0, 61, 100
2, 17664, Note_on_c, 0, 70, 80
2, 17664, Note_on_c, 0, 66, 80
2, 17664, Note_on_c, 0, 61, 80
2, 18044, Note_off_c, 0, 70, 100
2, 18044, Note_off_c, 0, 66, 100
2, 18044, Note_off_c, 0, 61, 100
2, 18048, Note_on_c, 0, 71, 80
2, 18048, Note_on_c, 0, 68, 80
2, 18048, Note_on_c, 0, 61, 80
2, 18428, Note_off_c, 0, 71, 100
2, 18428, Note_off_c, 0, 68, 100
2, 18428, Note_off_c, 0, 61, 100
2, 18816, Note_on_c, 0, 71, 80
2, 18816, Note_on_c, 0, 68, 80
2, 18816, Note_on_c, 0, 61, 80
2, 19196, Note_off_c, 0, 71, 100
2, 19196, Note_off_c, 0, 68, 100
2, 19196, Note_off_c, 0, 61, 100
2, 19584, Note_on_c, 0, 73, 80
2, 19584, Note_on_c, 0, 68, 80
2, 19584, Note_on_c, 0, 65, 80
2, 19584, Note_on_c, 0, 61, 80
2, 19964, Note_off_c, 0, 73, 100
2, 19964, Note_off_c, 0, 68, 100
2, 19964, Note_off_c, 0, 65, 100
2, 19964, Note_off_c, 0, 61, 100
2, 20352, Note_on_c, 0, 70, 80
2, 20352, Note_on_c, 0, 66, 80
2, 20352, Note_on_c, 0, 61, 80
2, 20732, Note_off_c, 0, 70, 100
2, 20732, Note_off_c, 0, 66, 100
2, 20732, Note_off_c, 0, 61, 100
2, 20736, Note_on_c, 0, 73, 80
2, 20828, Note_off_c, 0, 73, 100
2, 20832, Note_on_c, 0, 75, 80
2, 20924, Note_off_c, 0, 75, 100
2, 20928, Note_on_c, 0, 73, 80
2, 21020, Note_off_c, 0, 73, 100
2, 21024, Note_on_c, 0, 70, 80
2, 21116, Note_off_c, 0, 70, 100
2, 21120, Note_on_c, 0, 78, 80
2, 22268, Note_off_c, 0, 78, 100
2, 22272, Note_on_c, 0, 78, 90
2, 22300, Note_off_c, 0, 78, 100
2, 22304, Note_on_c, 0, 77, 90
2, 22332, Note_off_c, 0, 77, 100
2, 22336, Note_on_c, 0, 75, 91
2, 22364, Note_off_c, 0, 75, 100
2, 22368, Note_on_c, 0, 77, 92
2, 22556, Note_off_c, 0, 77, 100
2, 22560, Note_on_c, 0, 78, 97
2, 22652, Note_off_c, 0, 78, 100
2, 22656, Note_on_c, 0, 80, 110
2, 23036, Note_off_c, 0, 80, 100
2, 23040, Note_on_c, 0, 77, 109
2, 23420, Note_off_c, 0, 77, 100
2, 23424, Note_on_c, 0, 74, 80
2, 23520, Note_on_c, 0, 83, 80
2, 23596, Note_off_c, 0, 74, 100
2, 23616, Note_on_c, 0, 82, 80
2, 23680, Note_off_c, 0, 83, 100
2, 23712, Note_on_c, 0, 74, 80
2, 23780, Note_off_c, 0, 82, 100
2, 23804, Note_off_c, 0, 74, 100
2, 23808, Note_on_c, 0, 74, 80
2, 23904, Note_on_c, 0, 83, 80
2, 23980, Note_off_c, 0, 74, 100
2, 24000, Note_on_c, 0, 82, 80
2, 24064, Note_off_c, 0, 83, 100
2, 24096, Note_on_c, 0, 74, 80
2, 24164, Note_off_c, 0, 82, 100
2, 24188, Note_off_c, 0, 74, 100
2, 24192, Note_on_c, 0, 74, 80
2, 24288, Note_on_c, 0, 83, 80
2, 24364, Note_off_c, 0, 74, 100
2, 24384, Note_on_c, 0, 82, 80
2, 24448, Note_off_c, 0, 83, 100
2, 24480, Note_on_c, 0, 74, 80
2, 24548, Note_off_c, 0, 82, 100
2, 24572, Note_off_c, 0, 74, 100
2, 24576, Note_on_c, 0, 74, 80
2, 24672, Note_on_c, 0, 83, 80
2, 24748, Note_off_c, 0, 74, 100
2, 24768, Note_on_c, 0, 82, 80
2, 24832, Note_off_c, 0, 83, 100
2, 24864, Note_on_c, 0, 74, 80
2, 24932, Note_off_c, 0, 82, 100
2, 24956, Note_off_c, 0, 74, 100
2, 24960, Note_on_c, 0, 75, 80
2, 25056, Note_on_c, 0, 83, 80
2, 25132, Note_off_c, 0, 75, 100
2, 25152, Note_on_c, 0, 82, 80
2, 25228, Note_off_c, 0, 83, 100
2, 25248, Note_on_c, 0, 75, 80
2, 25340, Note_off_c, 0, 82, 100
2, 25344, Note_on_c, 0, 77, 80
2, 25436, Note_off_c, 0, 75, 100
2, 25440, Note_on_c, 0, 83, 80
2, 25520, Note_off_c, 0, 77, 100
2, 25536, Note_on_c, 0, 82, 80
2, 25628, Note_off_c, 0, 83, 100
2, 25632, Note_on_c, 0, 77, 80
2, 25700, Note_off_c, 0, 82, 100
2, 25728, Note_on_c, 0, 78, 80
2, 25816, Note_off_c, 0, 77, 100
2, 25824, Note_on_c, 0, 83, 80
2, 25912, Note_off_c, 0, 78, 100
2, 25920, Note_on_c, 0, 82, 80
2, 26004, Note_off_c, 0, 83, 100
2, 26016, Note_on_c, 0, 78, 80
2, 26084, Note_off_c, 0, 82, 100
2, 26112, Note_on_c, 0, 87, 80
2, 26184, Note_off_c, 0, 78, 100
2, 26208, Note_on_c, 0, 82, 80
2, 26280, Note_off_c, 0, 87, 100
2, 26304, Note_on_c, 0, 78, 80
2, 26376, Note_off_c, 0, 82, 100
2, 26400, Note_on_c, 0, 75, 80
2, 26480, Note_off_c, 0, 78, 100
2, 26492, Note_off_c, 0, 75, 100
2, 26496, Note_on_c, 0, 84, 80
2, 26592, Note_on_c, 0, 78, 80
2, 26660, Note_off_c, 0, 84, 100
2, 26688, Note_on_c, 0, 75, 80
2, 26764, Note_off_c, 0, 78, 100
2, 26784, Note_on_c, 0, 84, 80
2, 26860, Note_off_c, 0, 75, 100
2, 26880, Note_on_c, 0, 87, 80
2, 26964, Note_off_c, 0, 84, 100
2, 26976, Note_on_c, 0, 78, 80
2, 27052, Note_off_c, 0, 87, 100
2, 27072, Note_on_c, 0, 75, 80
2, 27152, Note_off_c, 0, 78, 100
2, 27168, Note_on_c, 0, 85, 80
2, 27248, Note_off_c, 0, 75, 100
2, 27264, Note_on_c, 0, 84, 80
2, 27348, Note_off_c, 0, 85, 100
2, 27360, Note_on_c, 0, 78, 80
2, 27452, Note_off_c, 0, 84, 100
2, 27456, Note_on_c, 0, 75, 80
2, 27548, Note_off_c, 0, 78, 100
2, 27552, Note_on_c, 0, 84, 80
2, 27644, Note_off_c, 0, 75, 100
2, 27648, Note_on_c, 0, 87, 80
2, 27740, Note_off_c, 0, 84, 100
2, 27744, Note_on_c, 0, 78, 80
2, 27836, Note_off_c, 0, 87, 100
2, 27840, Note_on_c, 0, 75, 80
2, 27932, Note_off_c, 0, 78, 100
2, 27936, Note_on_c, 0, 85, 80
2, 28020, Note_off_c, 0, 75, 100
2, 28028, Note_off_c, 0, 85, 100
2, 28032, Note_on_c, 0, 84, 80
2, 28128, Note_on_c, 0, 78, 80
2, 28216, Note_off_c, 0, 84, 100
2, 28224, Note_on_c, 0, 75, 80
2, 28312, Note_off_c, 0, 78, 100
2, 28320, Note_on_c, 0, 84, 80
2, 28412, Note_off_c, 0, 75, 100
2, 28416, Note_on_c, 0, 87, 80
2, 28504, Note_off_c, 0, 84, 100
2, 28512, Note_on_c, 0, 78, 80
2, 28600, Note_off_c, 0, 87, 100
2, 28608, Note_on_c, 0, 75, 80
2, 28700, Note_off_c, 0, 78, 100
2, 28704, Note_on_c, 0, 87, 80
2, 28776, Note_off_c, 0, 75, 100
2, 28800, Note_on_c, 0, 80, 80
2, 28876, Note_off_c, 0, 87, 100
2, 28896, Note_on_c, 0, 78, 80
2, 28988, Note_off_c, 0, 80, 100
2, 28992, Note_on_c, 0, 75, 80
2, 29068, Note_off_c, 0, 78, 100
2, 29088, Note_on_c, 0, 80, 80
2, 29160, Note_off_c, 0, 75, 100
2, 29184, Note_on_c, 0, 82, 80
2, 29256, Note_off_c, 0, 80, 100
2, 29280, Note_on_c, 0, 78, 80
2, 29360, Note_off_c, 0, 82, 100
2, 29376, Note_on_c, 0, 75, 80
2, 29464, Note_off_c, 0, 78, 100
2, 29472, Note_on_c, 0, 82, 80
2, 29552, Note_off_c, 0, 75, 100
2, 29564, Note_off_c, 0, 82, 100
2, 29568, Note_on_c, 0, 84, 80
2, 29664, Note_on_c, 0, 78, 80
2, 29732, Note_off_c, 0, 84, 100
2, 29760, Note_on_c, 0, 75, 80
2, 29836, Note_off_c, 0, 78, 100
2, 29856, Note_on_c, 0, 84, 80
2, 29932, Note_off_c, 0, 75, 100
2, 29952, Note_on_c, 0, 87, 80
2, 30036, Note_off_c, 0, 84, 100
2, 30048, Note_on_c, 0, 78, 80
2, 30124, Note_off_c, 0, 87, 100
2, 30144, Note_on_c, 0, 75, 80
2, 30224, Note_off_c, 0, 78, 100
2, 30240, Note_on_c, 0, 85, 80
2, 30320, Note_off_c, 0, 75, 100
2, 30336, Note_on_c, 0, 84, 80
2, 30420, Note_off_c, 0, 85, 100
2, 30432, Note_on_c, 0, 78, 80
2, 30524, Note_off_c, 0, 84, 100
2, 30528, Note_on_c, 0, 75, 80
2, 30620, Note_off_c, 0, 78, 100
2, 30624, Note_on_c, 0, 84, 80
2, 30716, Note_off_c, 0, 75, 100
2, 30720, Note_on_c, 0, 87, 80
2, 30812, Note_off_c, 0, 84, 100
2, 30816, Note_on_c, 0, 78, 80
2, 30908, Note_off_c, 0, 87, 100
2, 30912, Note_on_c, 0, 75, 80
2, 31004, Note_off_c, 0, 78, 100
2, 31008, Note_on_c, 0, 85, 80
2, 31092, Note_off_c, 0, 75, 100
2, 31100, Note_off_c, 0, 85, 100
2, 31104, Note_on_c, 0, 84, 80
2, 31200, Note_on_c, 0, 78, 80
2, 31288, Note_off_c, 0, 84, 100
2, 31296, Note_on_c, 0, 75, 80
2, 31384, Note_off_c, 0, 78, 100
2, 31392, Note_on_c, 0, 84, 80
2, 31484, Note_off_c, 0, 75, 100
2, 31488, Note_on_c, 0, 87, 80
2, 31576, Note_off_c, 0, 84, 100
2, 31584, Note_on_c, 0, 78, 80
2, 31672, Note_off_c, 0, 87, 100
2, 31680, Note_on_c, 0, 75, 80
2, 31772, Note_off_c, 0, 78, 100
2, 31776, Note_on_c, 0, 87, 80
2, 31848, Note_off_c, 0, 75, 100
2, 31872, Note_on_c, 0, 80, 80
2, 31948, Note_off_c, 0, 87, 100
2, 31968, Note_on_c, 0, 78, 80
2, 32060, Note_off_c, 0, 80, 100
2, 32064, Note_on_c, 0, 75, 80
2, 32140, Note_off_c, 0, 78, 100
2, 32160, Note_on_c, 0, 80, 80
2, 32232, Note_off_c, 0, 75, 100
2, 32256, Note_on_c, 0, 82, 80
2, 32328, Note_off_c, 0, 80, 100
2, 32352, Note_on_c, 0, 78, 80
2, 32432, Note_off_c, 0, 82, 100
2, 32448, Note_on_c, 0, 75, 80
2, 32536, Note_off_c, 0, 78, 100
2, 32544, Note_on_c, 0, 82, 80
2, 32624, Note_off_c, 0, 75, 100
2, 32636, Note_off_c, 0, 82, 100
2, 32640, Note_on_c, 0, 84, 80
2, 32736, Note_on_c, 0, 80, 80
2, 32808, Note_off_c, 0, 84, 100
2, 32832, Note_on_c, 0, 75, 81
2, 32924, Note_off_c, 0, 80, 100
2, 32928, Note_on_c, 0, 84, 82
2, 32996, Note_off_c, 0, 75, 100
2, 33024, Note_on_c, 0, 85, 83
2, 33100, Note_off_c, 0, 84, 100
2, 33120, Note_on_c, 0, 80, 84
2, 33212, Note_off_c, 0, 85, 100
2, 33216, Note_on_c, 0, 73, 85
2, 33300, Note_off_c, 0, 80, 100
2, 33312, Note_on_c, 0, 85, 86
2, 33380, Note_off_c, 0, 73, 100
2, 33404, Note_off_c, 0, 85, 100
2, 33408, Note_on_c, 0, 85, 87
2, 33504, Note_on_c, 0, 80, 88
2, 33596, Note_off_c, 0, 85, 100
2, 33600, Note_on_c, 0, 73, 89
2, 33688, Note_off_c, 0, 80, 100
2, 33696, Note_on_c, 0, 85, 90
2, 33776, Note_off_c, 0, 73, 100
2, 33788, Note_off_c, 0, 85, 100
2, 33792, Note_on_c, 0, 85, 91
2, 33888, Note_on_c, 0, 80, 92
2, 33976, Note_off_c, 0, 85, 100
2, 33984, Note_on_c, 0, 73, 93
2, 34060, Note_off_c, 0, 80, 100
2, 34080, Note_on_c, 0, 85, 94
2, 34164, Note_off_c, 0, 73, 100
2, 34172, Note_off_c, 0, 85, 100
2, 34176, Note_on_c, 0, 85, 95
2, 34272, Note_on_c, 0, 79, 96
2, 34364, Note_off_c, 0, 85, 100
2, 34368, Note_on_c, 0, 73, 97
2, 34440, Note_off_c, 0, 79, 100
2, 34464, Note_on_c, 0, 85, 98
2, 34540, Note_off_c, 0, 73, 100
2, 34556, Note_off_c, 0, 85, 100
2, 34560, Note_on_c, 0, 85, 99
2, 34656, Note_on_c, 0, 79, 100
2, 34728, Note_off_c, 0, 85, 100
2, 34752, Note_on_c, 0, 73, 101
2, 34824, Note_off_c, 0, 79, 100
2, 34848, Note_on_c, 0, 85, 102
2, 34924, Note_off_c, 0, 73, 100
2, 34940, Note_off_c, 0, 85, 100
2, 34944, Note_on_c, 0, 85, 103
2, 35040, Note_on_c, 0, 79, 104
2, 35124, Note_off_c, 0, 85, 100
2, 35136, Note_on_c, 0, 73, 105
2, 35212, Note_off_c, 0, 79, 100
2, 35232, Note_on_c, 0, 85, 106
2, 35312, Note_off_c, 0, 73, 100
2, 35324, Note_off_c, 0, 85, 100
2, 35328, Note_on_c, 0, 85, 107
2, 35424, Note_on_c, 0, 79, 108
2, 35500, Note_off_c, 0, 85, 100
2, 35520, Note_on_c, 0, 73, 108
2, 35600, Note_off_c, 0, 79, 100
2, 35616, Note_on_c, 0, 85, 109
2, 35700, Note_off_c, 0, 73, 100
2, 35708, Note_off_c, 0, 85, 100
2, 35712, Note_on_c, 0, 85, 110
2, 35808, Note_on_c, 0, 79, 110
2, 35900, Note_off_c, 0, 85, 100
2, 35904, Note_on_c, 0, 73, 110
2, 35976, Note_off_c, 0, 79, 100
2, 36000, Note_on_c, 0, 85, 110
2, 36076, Note_off_c, 0, 73, 100
2, 36092, Note_off_c, 0, 85, 100
2, 36096, Note_on_c, 0, 85, 111
2, 36192, Note_on_c, 0, 79, 111
2, 36264, Note_off_c, 0, 85, 100
2, 36288, Note_on_c, 0, 73, 111
2, 36360, Note_off_c, 0, 79, 100
2, 36384, Note_on_c, 0, 85, 112
2, 36460, Note_off_c, 0, 73, 100
2, 36476, Note_off_c, 0, 85, 100
2, 36480, Note_on_c, 0, 85, 112
2, 36576, Note_on_c, 0, 79, 112
2, 36660, Note_off_c, 0, 85, 100
2, 36672, Note_on_c, 0, 73, 113
2, 36748, Note_off_c, 0, 79, 100
2, 36768, Note_on_c, 0, 85, 113
2, 36848, Note_off_c, 0, 73, 100
2, 36860, Note_off_c, 0, 85, 100
2, 36864, Note_on_c, 0, 85, 113
2, 36960, Note_on_c, 0, 79, 114
2, 37036, Note_off_c, 0, 85, 100
2, 37056, Note_on_c, 0, 73, 114
2, 37136, Note_off_c, 0, 79, 100
2, 37152, Note_on_c, 0, 85, 114
2, 37236, Note_off_c, 0, 73, 100
2, 37244, Note_off_c, 0, 85, 100
2, 37248, Note_on_c, 0, 85, 120
2, 37344, Note_on_c, 0, 78, 120
2, 37412, Note_off_c, 0, 85, 100
2, 37440, Note_on_c, 0, 73, 120
2, 37520, Note_off_c, 0, 78, 100
2, 37536, Note_on_c, 0, 85, 120
2, 37604, Note_off_c, 0, 73, 100
2, 37628, Note_off_c, 0, 85, 100
2, 37632, Note_on_c, 0, 85, 120
2, 37728, Note_on_c, 0, 78, 120
2, 37816, Note_off_c, 0, 85, 100
2, 37824, Note_on_c, 0, 73, 120
2, 37908, Note_off_c, 0, 78, 100
2, 37920, Note_on_c, 0, 85, 120
2, 38000, Note_off_c, 0, 73, 100
2, 38016, Note_on_c, 0, 84, 120
2, 38088, Note_off_c, 0, 85, 100
2, 38112, Note_on_c, 0, 78, 120
2, 38188, Note_off_c, 0, 84, 100
2, 38208, Note_on_c, 0, 72, 120
2, 38288, Note_off_c, 0, 78, 100
2, 38304, Note_on_c, 0, 84, 120
2, 38380, Note_off_c, 0, 72, 100
2, 38396, Note_off_c, 0, 84, 100
2, 38400, Note_on_c, 0, 84, 120
2, 38496, Note_on_c, 0, 78, 120
2, 38572, Note_off_c, 0, 84, 100
2, 38592, Note_on_c, 0, 72, 120
2, 38664, Note_off_c, 0, 78, 100
2, 38688, Note_on_c, 0, 84, 120
2, 38756, Note_off_c, 0, 72, 100
2, 38780, Note_off_c, 0, 84, 100
2, 38784, Note_on_c, 0, 85, 120
2, 38784, Note_on_c, 0, 80, 120
2, 38784, Note_on_c, 0, 77, 120
2, 39164, Note_off_c, 0, 85, 100
2, 39164, Note_off_c, 0, 80, 100
2, 39164, Note_off_c, 0, 77, 100
2, 39552, Note_on_c, 0, 77, 80
2, 39676, Note_off_c, 0, 77, 100
2, 39680, Note_on_c, 0, 73, 80
2, 39804, Note_off_c, 0, 73, 100
2, 39808, Note_on_c, 0, 68, 80
2, 39932, Note_off_c, 0, 68, 100
2, 39936, Note_on_c, 0, 70, 80
2, 40060, Note_off_c, 0, 70, 100
2, 40064, Note_on_c, 0, 73, 80
2, 40188, Note_off_c, 0, 73, 100
2, 40192, Note_on_c, 0, 70, 80
2, 40316, Note_off_c, 0, 70, 100
2, 40320, Note_on_c, 0, 68, 80
2, 40444, Note_off_c, 0, 68, 100
2, 40448, Note_on_c, 0, 73, 80
2, 40572, Note_off_c, 0, 73, 100
2, 40576, Note_on_c, 0, 75, 80
2, 40700, Note_off_c, 0, 75, 100
2, 40704, Note_on_c, 0, 77, 80
2, 40828, Note_off_c, 0, 77, 100
2, 40832, Note_on_c, 0, 73, 80
2, 40956, Note_off_c, 0, 73, 100
2, 40960, Note_on_c, 0, 80, 80
2, 41084, Note_off_c, 0, 80, 100
2, 41088, Note_on_c, 0, 77, 80
2, 41212, Note_off_c, 0, 77, 100
2, 41216, Note_on_c, 0, 73, 80
2, 41340, Note_off_c, 0, 73, 100
2, 41344, Note_on_c, 0, 68, 80
2, 41468, Note_off_c, 0, 68, 100
2, 41472, Note_on_c, 0, 66, 80
2, 41596, Note_off_c, 0, 66, 100
2, 41600, Note_on_c, 0, 63, 80
2, 41724, Note_off_c, 0, 63, 100
2, 41728, Note_on_c, 0, 68, 80
2, 41852, Note_off_c, 0, 68, 100
2, 41856, Note_on_c, 0, 65, 80
2, 42236, Note_off_c, 0, 65, 100
2, 42240, Note_on_c, 0, 68, 80
2, 42364, Note_off_c, 0, 68, 100
2, 42368, Note_on_c, 0, 73, 81
2, 42492, Note_off_c, 0, 73, 100
2, 42496, Note_on_c, 0, 75, 82
2, 42620, Note_off_c, 0, 75, 100
2, 42624, Note_on_c, 0, 77, 84
2, 42748, Note_off_c, 0, 77, 100
2, 42752, Note_on_c, 0, 73, 85
2, 42876, Note_off_c, 0, 73, 100
2, 42880, Note_on_c, 0, 68, 87
2, 43004, Note_off_c, 0, 68, 100
2, 43008, Note_on_c, 0, 70, 88
2, 43132, Note_off_c, 0, 70, 100
2, 43136, Note_on_c, 0, 73, 89
2, 43260, Note_off_c, 0, 73, 100
2, 43264, Note_on_c, 0, 70, 91
2, 43388, Note_off_c, 0, 70, 100
2, 43392, Note_on_c, 0, 68, 92
2, 43516, Note_off_c, 0, 68, 100
2, 43520, Note_on_c, 0, 73, 94
2, 43644, Note_off_c, 0, 73, 100
2, 43648, Note_on_c, 0, 75, 95
2, 43772, Note_off_c, 0, 75, 100
2, 43776, Note_on_c, 0, 77, 97
2, 43900, Note_off_c, 0, 77, 100
2, 43904, Note_on_c, 0, 73, 98
2, 44028, Note_off_c, 0, 73, 100
2, 44032, Note_on_c, 0, 80, 99
2, 44156, Note_off_c, 0, 80, 100
2, 44160, Note_on_c, 0, 74, 110
2, 44160, Note_on_c, 0, 68, 110
2, 44540, Note_off_c, 0, 74, 100
2, 44540, Note_off_c, 0, 68, 100
2, 44544, Note_on_c, 0, 75, 110
2, 44544, Note_on_c, 0, 66, 110
2, 44924, Note_off_c, 0, 75, 100
2, 44924, Note_off_c, 0, 66, 100
2, 44928, Note_on_c, 0, 72, 110
2, 44928, Note_on_c, 0, 66, 110
2, 45692, Note_off_c, 0, 72, 100
2, 45692, Note_off_c, 0, 66, 100
2, 45696, Note_on_c, 0, 66, 80
2, 45788, Note_off_c, 0, 66, 100
2, 45792, Note_on_c, 0, 68, 80
2, 45884, Note_off_c, 0, 68, 100
2, 45888, Note_on_c, 0, 66, 80
2, 45980, Note_off_c, 0, 66, 100
2, 45984, Note_on_c, 0, 65, 80
2, 46076, Note_off_c, 0, 65, 100
2, 46080, Note_on_c, 0, 66, 80
2, 46172, Note_off_c, 0, 66, 100
2, 46176, Note_on_c, 0, 75, 80
2, 46268, Note_off_c, 0, 75, 100
2, 46272, Note_on_c, 0, 73, 80
2, 46364, Note_off_c, 0, 73, 100
2, 46368, Note_on_c, 0, 72, 80
2, 46460, Note_off_c, 0, 72, 100
2, 46464, Note_on_c, 0, 73, 80
2, 46556, Note_off_c, 0, 73, 100
2, 46560, Note_on_c, 0, 68, 80
2, 46652, Note_off_c, 0, 68, 100
2, 46656, Note_on_c, 0, 73, 80
2, 46748, Note_off_c, 0, 73, 100
2, 46752, Note_on_c, 0, 77, 80
2, 46844, Note_off_c, 0, 77, 100
2, 46848, Note_on_c, 0, 80, 80
2, 46940, Note_off_c, 0, 80, 100
2, 46944, Note_on_c, 0, 85, 80
2, 47036, Note_off_c, 0, 85, 100
2, 47040, Note_on_c, 0, 89, 80
2, 47132, Note_off_c, 0, 89, 100
2, 47136, Note_on_c, 0, 87, 80
2, 47228, Note_off_c, 0, 87, 100
2, 47232, Note_on_c, 0, 86, 110
2, 47232, Note_on_c, 0, 80, 110
2, 47612, Note_off_c, 0, 86, 100
2, 47612, Note_off_c, 0, 80, 100
2, 47616, Note_on_c, 0, 87, 110
2, 47616, Note_on_c, 0, 78, 110
2, 47996, Note_off_c, 0, 87, 100
2, 47996, Note_off_c, 0, 78, 100
2, 48000, Note_on_c, 0, 84, 110
2, 48000, Note_on_c, 0, 78, 110
2, 48764, Note_off_c, 0, 84, 100
2, 48764, Note_off_c, 0, 78, 100
2, 48768, Note_on_c, 0, 78, 80
2, 48860, Note_off_c, 0, 78, 100
2, 48864, Note_on_c, 0, 80, 80
2, 48956, Note_off_c, 0, 80, 100
2, 48960, Note_on_c, 0, 78, 80
2, 49052, Note_off_c, 0, 78, 100
2, 49056, Note_on_c, 0, 77, 80
2, 49148, Note_off_c, 0, 77, 100
2, 49152, Note_on_c, 0, 78, 80
2, 49244, Note_off_c, 0, 78, 100
2, 49248, Note_on_c, 0, 87, 80
2, 49340, Note_off_c, 0, 87, 100
2, 49344, Note_on_c, 0, 85, 80
2, 49436, Note_off_c, 0, 85, 100
2, 49440, Note_on_c, 0, 84, 80
2, 49532, Note_off_c, 0, 84, 100
2, 49536, Note_on_c, 0, 85, 80
2, 49628, Note_off_c, 0, 85, 100
2, 49632, Note_on_c, 0, 80, 80
2, 49724, Note_off_c, 0, 80, 100
2, 49728, Note_on_c, 0, 77, 80
2, 49820, Note_off_c, 0, 77, 100
2, 49824, Note_on_c, 0, 73, 80
2, 49916, Note_off_c, 0, 73, 100
2, 49920, Note_on_c, 0, 68, 80
2, 50012, Note_off_c, 0, 68, 100
2, 50016, Note_on_c, 0, 73, 80
2, 50108, Note_off_c, 0, 73, 100
2, 50112, Note_on_c, 0, 68, 80
2, 50204, Note_off_c, 0, 68, 100
2, 50208, Note_on_c, 0, 65, 80
2, 50300, Note_off_c, 0, 65, 100
2, 50304, Note_on_c, 0, 66, 80
2, 50396, Note_off_c, 0, 66, 100
2, 50400, Note_on_c, 0, 68, 80
2, 50492, Note_off_c, 0, 68, 100
2, 50496, Note_on_c, 0, 66, 80
2, 50588, Note_off_c, 0, 66, 100
2, 50592, Note_on_c, 0, 65, 80
2, 50684, Note_off_c, 0, 65, 100
2, 50688, Note_on_c, 0, 66, 80
2, 50780, Note_off_c, 0, 66, 100
2, 50784, Note_on_c, 0, 75, 80
2, 50876, Note_off_c, 0, 75, 100
2, 50880, Note_on_c, 0, 73, 80
2, 50972, Note_off_c, 0, 73, 100
2, 50976, Note_on_c, 0, 72, 80
2, 51068, Note_off_c, 0, 72, 100
2, 51072, Note_on_c, 0, 73, 80
2, 51164, Note_off_c, 0, 73, 100
2, 51168, Note_on_c, 0, 68, 80
2, 51260, Note_off_c, 0, 68, 100
2, 51264, Note_on_c, 0, 65, 80
2, 51356, Note_off_c, 0, 65, 100
2, 51360, Note_on_c, 0, 61, 80
2, 51452, Note_off_c, 0, 61, 100
2, 51456, Note_on_c, 0, 56, 80
2, 51548, Note_off_c, 0, 56, 100
2, 51552, Note_on_c, 0, 61, 80
2, 51644, Note_off_c, 0, 61, 100
2, 51648, Note_on_c, 0, 56, 80
2, 51740, Note_off_c, 0, 56, 100
2, 51744, Note_on_c, 0, 53, 80
2, 51836, Note_off_c, 0, 53, 100
2, 52224, Note_on_c, 0, 66, 80
2, 52224, Note_on_c, 0, 63, 80
2, 52224, Note_on_c, 0, 60, 80
2, 52224, Note_on_c, 0, 56, 80
2, 52604, Note_off_c, 0, 66, 100
2, 52604, Note_off_c, 0, 63, 100
2, 52604, Note_off_c, 0, 60, 100
2, 52604, Note_off_c, 0, 56, 100
2, 52992, Note_on_c, 0, 66, 80
2, 52992, Note_on_c, 0, 63, 80
2, 52992, Note_on_c, 0, 60, 80
2, 53372, Note_off_c, 0, 66, 100
2, 53372, Note_off_c, 0, 63, 100
2, 53372, Note_off_c, 0, 60, 100
2, 53760, Note_on_c, 0, 68, 80
2, 53760, Note_on_c, 0, 66, 80
2, 53760, Note_on_c, 0, 63, 80
2, 53760, Note_on_c, 0, 60, 80
2, 54140, Note_off_c, 0, 68, 100
2, 54140, Note_off_c, 0, 66, 100
2, 54140, Note_off_c, 0, 63, 100
2, 54140, Note_off_c, 0, 60, 100
2, 54528, Note_on_c, 0, 68, 80
2, 54528, Note_on_c, 0, 65, 80
2, 54528, Note_on_c, 0, 61, 80
2, 54528, Note_on_c, 0, 59, 80
2, 54908, Note_off_c, 0, 68, 100
2, 54908, Note_off_c, 0, 65, 100
2, 54908, Note_off_c, 0, 61, 100
2, 54908, Note_off_c, 0, 59, 100
2, 55296, Note_on_c, 0, 70, 80
2, 55296, Note_on_c, 0, 58, 80
2, 55580, Note_off_c, 0, 70, 100
2, 55580, Note_off_c, 0, 58, 100
2, 55584, Note_on_c, 0, 71, 80
2, 55584, Note_on_c, 0, 59, 80
2, 55676, Note_off_c, 0, 71, 100
2, 55676, Note_off_c, 0, 59, 100
2, 55680, Note_on_c, 0, 73, 80
2, 56060, Note_off_c, 0, 73, 100
2, 56064, Note_on_c, 0, 66, 80
2, 56064, Note_on_c, 0, 61, 80
2, 56444, Note_off_c, 0, 66, 100
2, 56444, Note_off_c, 0, 61, 100
2, 56448, Note_on_c, 0, 65, 80
2, 56448, Note_on_c, 0, 61, 80
2, 56828, Note_off_c, 0, 65, 100
2, 56828, Note_off_c, 0, 61, 100
2, 56832, Note_on_c, 0, 66, 80
2, 56832, Note_on_c, 0, 61, 80
2, 57212, Note_off_c, 0, 66, 100
2, 57212, Note_off_c, 0, 61, 100
2, 57216, Note_on_c, 0, 71, 80
2, 57216, Note_on_c, 0, 65, 80
2, 57216, Note_on_c, 0, 59, 80
2, 57216, Note_on_c, 0, 61, 80
2, 58364, Note_off_c, 0, 71, 100
2, 58364, Note_off_c, 0, 65, 100
2, 58364, Note_off_c, 0, 59, 100
2, 58364, Note_off_c, 0, 61, 100
2, 58368, Note_on_c, 0, 61, 80
2, 58368, Note_on_c, 0, 56, 80
2, 58368, Note_on_c, 0, 68, 80
2, 58748, Note_off_c, 0, 61, 100
2, 58748, Note_off_c, 0, 56, 100
2, 58748, Note_off_c, 0, 68, 100
2, 58752, Note_on_c, 0, 70, 80
2, 58752, Note_on_c, 0, 61, 80
2, 58752, Note_on_c, 0, 58, 80
2, 59132, Note_off_c, 0, 70, 100
2, 59132, Note_off_c, 0, 61, 100
2, 59132, Note_off_c, 0, 58, 100
2, 59136, Note_on_c, 0, 75, 80
2, 59136, Note_on_c, 0, 63, 80
2, 59516, Note_off_c, 0, 75, 100
2, 59516, Note_off_c, 0, 63, 100
2, 59520, Note_on_c, 0, 73, 80
2, 59520, Note_on_c, 0, 61, 80
2, 59900, Note_off_c, 0, 73, 100
2, 59900, Note_off_c, 0, 61, 100
2, 59904, Note_on_c, 0, 78, 80
2, 59904, Note_on_c, 0, 66, 80
2, 60284, Note_off_c, 0, 78, 100
2, 60284, Note_off_c, 0, 66, 100
2, 60288, Note_on_c, 0, 77, 80
2, 60288, Note_on_c, 0, 65, 80
2, 60668, Note_off_c, 0, 77, 100
2, 60668, Note_off_c, 0, 65, 100
2, 60672, Note_on_c, 0, 75, 80
2, 60672, Note_on_c, 0, 63, 80
2, 61052, Note_off_c, 0, 75, 100
2, 61052, Note_off_c, 0, 63, 100
2, 61056, Note_on_c, 0, 73, 80
2, 61056, Note_on_c, 0, 61, 80
2, 61436, Note_off_c, 0, 73, 100
2, 61436, Note_off_c, 0, 61, 100
2, 61440, Note_on_c, 0, 70, 80
2, 61532, Note_off_c, 0, 70, 100
2, 61536, Note_on_c, 0, 71, 80
2, 61628, Note_off_c, 0, 71, 100
2, 61632, Note_on_c, 0, 70, 80
2, 61724, Note_off_c, 0, 70, 100
2, 61728, Note_on_c, 0, 66, 80
2, 61820, Note_off_c, 0, 66, 100
2, 61824, Note_on_c, 0, 71, 80
2, 61916, Note_off_c, 0, 71, 100
2, 61920, Note_on_c, 0, 73, 80
2, 62012, Note_off_c, 0, 73, 100
2, 62016, Note_on_c, 0, 71, 80
2, 62108, Note_off_c, 0, 71, 100
2, 62112, Note_on_c, 0, 68, 80
2, 62204, Note_off_c, 0, 68, 100
2, 62208, Note_on_c, 0, 65, 80
2, 62588, Note_off_c, 0, 65, 100
2, 62976, Note_on_c, 0, 71, 80
2, 63068, Note_off_c, 0, 71, 100
2, 63072, Note_on_c, 0, 73, 80
2, 63164, Note_off_c, 0, 73, 100
2, 63168, Note_on_c, 0, 71, 80
2, 63260, Note_off_c, 0, 71, 100
2, 63264, Note_on_c, 0, 68, 80
2, 63356, Note_off_c, 0, 68, 100
2, 63360, Note_on_c, 0, 73, 80
2, 63452, Note_off_c, 0, 73, 100
2, 63456, Note_on_c, 0, 75, 80
2, 63548, Note_off_c, 0, 75, 100
2, 63552, Note_on_c, 0, 73, 80
2, 63644, Note_off_c, 0, 73, 100
2, 63648, Note_on_c, 0, 70, 80
2, 63740, Note_off_c, 0, 70, 100
2, 63744, Note_on_c, 0, 66, 80
2, 64124, Note_off_c, 0, 66, 100
2, 64512, Note_on_c, 0, 78, 80
2, 64636, Note_off_c, 0, 78, 100
2, 64640, Note_on_c, 0, 77, 80
2, 64764, Note_off_c, 0, 77, 100
2, 64768, Note_on_c, 0, 75, 80
2, 64892, Note_off_c, 0, 75, 100
2, 64896, Note_on_c, 0, 73, 80
2, 65020, Note_off_c, 0, 73, 100
2, 65024, Note_on_c, 0, 71, 81
2, 65148, Note_off_c, 0, 71, 100
2, 65152, Note_on_c, 0, 70, 83
2, 65276, Note_off_c, 0, 70, 100
2, 65280, Note_on_c, 0, 68, 85
2, 65404, Note_off_c, 0, 68, 100
2, 65408, Note_on_c, 0, 66, 87
2, 65532, Note_off_c, 0, 66, 100
2, 65536, Note_on_c, 0, 65, 89
2, 65660, Note_off_c, 0, 65, 100
2, 65664, Note_on_c, 0, 63, 90
2, 65788, Note_off_c, 0, 63, 100
2, 65792, Note_on_c, 0, 61, 92
2, 65916, Note_off_c, 0, 61, 100
2, 65920, Note_on_c, 0, 60, 94
2, 66044, Note_off_c, 0, 60, 100
2, 66048, Note_on_c, 0, 61, 96
2, 66172, Note_off_c, 0, 61, 100
2, 66176, Note_on_c, 0, 63, 98
2, 66300, Note_off_c, 0, 63, 100
2, 66304, Note_on_c, 0, 65, 99
2, 66428, Note_off_c, 0, 65, 100
2, 66432, Note_on_c, 0, 66, 80
2, 66432, Note_on_c, 0, 61, 80
2, 66812, Note_off_c, 0, 66, 100
2, 66812, Note_off_c, 0, 61, 100
2, 66816, Note_on_c, 0, 68, 80
2, 66816, Note_on_c, 0, 65, 80
2, 66816, Note_on_c, 0, 61, 80
2, 67196, Note_off_c, 0, 68, 100
2, 67196, Note_off_c, 0, 65, 100
2, 67196, Note_off_c, 0, 61, 100
2, 67200, Note_on_c, 0, 70, 80
2, 67200, Note_on_c, 0, 61, 80
2, 67200, Note_on_c, 0, 66, 80
2, 67580, Note_off_c, 0, 70, 100
2, 67580, Note_off_c, 0, 61, 100
2, 67580, Note_off_c, 0, 66, 100
2, 67968, Note_on_c, 0, 70, 80
2, 67968, Note_on_c, 0, 66, 80
2, 67968, Note_on_c, 0, 61, 80
2, 68348, Note_off_c, 0, 70, 100
2, 68348, Note_off_c, 0, 66, 100
2, 68348, Note_off_c, 0, 61, 100
2, 68736, Note_on_c, 0, 71, 80
2, 68736, Note_on_c, 0, 68, 80
2, 68736, Note_on_c, 0, 63, 80
2, 69116, Note_off_c, 0, 71, 100
2, 69116, Note_off_c, 0, 68, 100
2, 69116, Note_off_c, 0, 63, 100
2, 69504, Note_on_c, 0, 68, 80
2, 69504, Note_on_c, 0, 65, 80
2, 69504, Note_on_c, 0, 61, 80
2, 69884, Note_off_c, 0, 68, 100
2, 69884, Note_off_c, 0, 65, 100
2, 69884, Note_off_c, 0, 61, 100
2, 69888, Note_on_c, 0, 70, 80
2, 69888, Note_on_c, 0, 66, 80
2, 69888, Note_on_c, 0, 61, 80
2, 70268, Note_off_c, 0, 70, 100
2, 70268, Note_off_c, 0, 66, 100
2, 70268, Note_off_c, 0, 61, 100
2, 70272, Note_on_c, 0, 71, 80
2, 70272, Note_on_c, 0, 68, 80
2, 70272, Note_on_c, 0, 61, 80
2, 70652, Note_off_c, 0, 71, 100
2, 70652, Note_off_c, 0, 68, 100
2, 70652, Note_off_c, 0, 61, 100
2, 71040, Note_on_c, 0, 71, 80
2, 71040, Note_on_c, 0, 68, 80
2, 71040, Note_on_c, 0, 61, 80
2, 71420, Note_off_c, 0, 71, 100
2, 71420, Note_off_c, 0, 68, 100
2, 71420, Note_off_c, 0, 61, 100
2, 71808, Note_on_c, 0, 73, 80
2, 71808, Note_on_c, 0, 68, 80
2, 71808, Note_on_c, 0, 65, 80
2, 71808, Note_on_c, 0, 61, 80
2, 72188, Note_off_c, 0, 73, 100
2, 72188, Note_off_c, 0, 68, 100
2, 72188, Note_off_c, 0, 65, 100
2, 72188, Note_off_c, 0, 61, 100
2, 72576, Note_on_c, 0, 70, 80
2, 72576, Note_on_c, 0, 66, 80
2, 72576, Note_on_c, 0, 61, 80
2, 72956, Note_off_c, 0, 70, 100
2, 72956, Note_off_c, 0, 66, 100
2, 72956, Note_off_c, 0, 61, 100
2, 72960, Note_on_c, 0, 73, 80
2, 73052, Note_off_c, 0, 73, 100
2, 73056, Note_on_c, 0, 75, 80
2, 73148, Note_off_c, 0, 75, 100
2, 73152, Note_on_c, 0, 73, 80
2, 73244, Note_off_c, 0, 73, 100
2, 73248, Note_on_c, 0, 70, 80
2, 73340, Note_off_c, 0, 70, 100
2, 73344, Note_on_c, 0, 78, 80
2, 74492, Note_off_c, 0, 78, 64
2, 74496, Note_on_c, 0, 78, 90
2, 74524, Note_off_c, 0, 78, 100
2, 74528, Note_on_c, 0, 77, 90
2, 74556, Note_off_c, 0, 77, 100
2, 74560, Note_on_c, 0, 75, 91
2, 74588, Note_off_c, 0, 75, 100
2, 74592, Note_on_c, 0, 77, 92
2, 74780, Note_off_c, 0, 77, 100
2, 74784, Note_on_c, 0, 78, 97
2, 74876, Note_off_c, 0, 78, 100
2, 74880, Note_on_c, 0, 80, 110
2, 75260, Note_off_c, 0, 80, 100
2, 75264, Note_on_c, 0, 77, 109
2, 75644, Note_off_c, 0, 77, 100
2, 75648, Note_on_c, 0, 74, 80
2, 75744, Note_on_c, 0, 83, 80
2, 75820, Note_off_c, 0, 74, 100
2, 75840, Note_on_c, 0, 82, 80
2, 75904, Note_off_c, 0, 83, 100
2, 75936, Note_on_c, 0, 74, 80
2, 76004, Note_off_c, 0, 82, 100
2, 76028, Note_off_c, 0, 74, 100
2, 76032, Note_on_c, 0, 74, 80
2, 76128, Note_on_c, 0, 83, 80
2, 76204, Note_off_c, 0, 74, 100
2, 76224, Note_on_c, 0, 82, 80
2, 76288, Note_off_c, 0, 83, 100
2, 76320, Note_on_c, 0, 74, 80
2, 76388, Note_off_c, 0, 82, 100
2, 76412, Note_off_c, 0, 74, 100
2, 76416, Note_on_c, 0, 74, 80
2, 76512, Note_on_c, 0, 83, 80
2, 76588, Note_off_c, 0, 74, 100
2, 76608, Note_on_c, 0, 82, 80
2, 76672, Note_off_c, 0, 83, 100
2, 76704, Note_on_c, 0, 74, 80
2, 76772, Note_off_c, 0, 82, 100
2, 76796, Note_off_c, 0, 74, 100
2, 76800, Note_on_c, 0, 74, 80
2, 76896, Note_on_c, 0, 83, 80
2, 76972, Note_off_c, 0, 74, 100
2, 76992, Note_on_c, 0, 82, 80
2, 77056, Note_off_c, 0, 83, 100
2, 77088, Note_on_c, 0, 74, 80
2, 77156, Note_off_c, 0, 82, 100
2, 77180, Note_off_c, 0, 74, 100
2, 77184, Note_on_c, 0, 75, 80
2, 77280, Note_on_c, 0, 83, 80
2, 77356, Note_off_c, 0, 75, 100
2, 77376, Note_on_c, 0, 82, 80
2, 77452, Note_off_c, 0, 83, 100
2, 77472, Note_on_c, 0, 75, 80
2, 77564, Note_off_c, 0, 82, 100
2, 77568, Note_on_c, 0, 77, 80
2, 77660, Note_off_c, 0, 75, 100
2, 77664, Note_on_c, 0, 83, 80
2, 77744, Note_off_c, 0, 77, 100
2, 77760, Note_on_c, 0, 82, 80
2, 77852, Note_off_c, 0, 83, 100
2, 77856, Note_on_c, 0, 77, 80
2, 77924, Note_off_c, 0, 82, 100
2, 77952, Note_on_c, 0, 78, 80
2, 78040, Note_off_c, 0, 77, 100
2, 78048, Note_on_c, 0, 83, 80
2, 78136, Note_off_c, 0, 78, 100
2, 78144, Note_on_c, 0, 82, 80
2, 78228, Note_off_c, 0, 83, 100
2, 78240, Note_on_c, 0, 78, 80
2, 78308, Note_off_c, 0, 82, 100
2, 78336, Note_on_c, 0, 87, 80
2, 78408, Note_off_c, 0, 78, 100
2, 78432, Note_on_c, 0, 82, 80
2, 78504, Note_off_c, 0, 87, 100
2, 78528, Note_on_c, 0, 78, 80
2, 78600, Note_off_c, 0, 82, 100
2, 78624, Note_on_c, 0, 75, 80
2, 78704, Note_off_c, 0, 78, 100
2, 78716, Note_off_c, 0, 75, 100
2, 78720, Note_on_c, 0, 84, 80
2, 78816, Note_on_c, 0, 78, 80
2, 78884, Note_off_c, 0, 84, 100
2, 78912, Note_on_c, 0, 75, 80
2, 78988, Note_off_c, 0, 78, 100
2, 79008, Note_on_c, 0, 84, 80
2, 79084, Note_off_c, 0, 75, 100
2, 79104, Note_on_c, 0, 87, 80
2, 79188, Note_off_c, 0, 84, 100
2, 79200, Note_on_c, 0, 78, 80
2, 79276, Note_off_c, 0, 87, 100
2, 79296, Note_on_c, 0, 75, 80
2, 79376, Note_off_c, 0, 78, 100
2, 79392, Note_on_c, 0, 85, 80
2, 79472, Note_off_c, 0, 75, 100
2, 79488, Note_on_c, 0, 84, 80
2, 79572, Note_off_c, 0, 85, 100
2, 79584, Note_on_c, 0, 78, 80
2, 79676, Note_off_c, 0, 84, 100
2, 79680, Note_on_c, 0, 75, 80
2, 79772, Note_off_c, 0, 78, 100
2, 79776, Note_on_c, 0, 84, 80
2, 79868, Note_off_c, 0, 75, 100
2, 79872, Note_on_c, 0, 87, 80
2, 79964, Note_off_c, 0, 84, 100
2, 79968, Note_on_c, 0, 78, 80
2, 80060, Note_off_c, 0, 87, 100
2, 80064, Note_on_c, 0, 75, 80
2, 80156, Note_off_c, 0, 78, 100
2, 80160, Note_on_c, 0, 85, 80
2, 80244, Note_off_c, 0, 75, 100
2, 80252, Note_off_c, 0, 85, 100
2, 80256, Note_on_c, 0, 84, 80
2, 80352, Note_on_c, 0, 78, 80
2, 80440, Note_off_c, 0, 84, 100
2, 80448, Note_on_c, 0, 75, 80
2, 80536, Note_off_c, 0, 78, 100
2, 80544, Note_on_c, 0, 84, 80
2, 80636, Note_off_c, 0, 75, 100
2, 80640, Note_on_c, 0, 87, 80
2, 80728, Note_off_c, 0, 84, 100
2, 80736, Note_on_c, 0, 78, 80
2, 80824, Note_off_c, 0, 87, 100
2, 80832, Note_on_c, 0, 75, 80
2, 80924, Note_off_c, 0, 78, 100
2, 80928, Note_on_c, 0, 87, 80
2, 81000, Note_off_c, 0, 75, 100
2, 81024, Note_on_c, 0, 80, 80
2, 81100, Note_off_c, 0, 87, 100
2, 81120, Note_on_c, 0, 78, 80
2, 81212, Note_off_c, 0, 80, 100
2, 81216, Note_on_c, 0, 75, 80
2, 81292, Note_off_c, 0, 78, 100
2, 81312, Note_on_c, 0, 80, 80
2, 81384, Note_off_c, 0, 75, 100
2, 81408, Note_on_c, 0, 82, 80
2, 81480, Note_off_c, 0, 80, 100
2, 81504, Note_on_c, 0, 78, 80
2, 81584, Note_off_c, 0, 82, 100
2, 81600, Note_on_c, 0, 75, 80
2, 81688, Note_off_c, 0, 78, 100
2, 81696, Note_on_c, 0, 82, 80
2, 81776, Note_off_c, 0, 75, 100
2, 81788, Note_off_c, 0, 82, 100
2, 81792, Note_on_c, 0, 84, 80
2, 81888, Note_on_c, 0, 78, 80
2, 81956, Note_off_c, 0, 84, 100
2, 81984, Note_on_c, 0, 75, 80
2, 82060, Note_off_c, 0, 78, 100
2, 82080, Note_on_c, 0, 84, 80
2, 82156, Note_off_c, 0, 75, 100
2, 82176, Note_on_c, 0, 87, 80
2, 82260, Note_off_c, 0, 84, 100
2, 82272, Note_on_c, 0, 78, 80
2, 82348, Note_off_c, 0, 87, 100
2, 82368, Note_on_c, 0, 75, 80
2, 82448, Note_off_c, 0, 78, 100
2, 82464, Note_on_c, 0, 85, 80
2, 82544, Note_off_c, 0, 75, 100
2, 82560, Note_on_c, 0, 84, 80
2, 82644, Note_off_c, 0, 85, 100
2, 82656, Note_on_c, 0, 78, 80
2, 82748, Note_off_c, 0, 84, 100
2, 82752, Note_on_c, 0, 75, 80
2, 82844, Note_off_c, 0, 78, 100
2, 82848, Note_on_c, 0, 84, 80
2, 82940, Note_off_c, 0, 75, 100
2, 82944, Note_on_c, 0, 87, 80
2, 83036, Note_off_c, 0, 84, 100
2, 83040, Note_on_c, 0, 78, 80
2, 83132, Note_off_c, 0, 87, 100
2, 83136, Note_on_c, 0, 75, 80
2, 83228, Note_off_c, 0, 78, 100
2, 83232, Note_on_c, 0, 85, 80
2, 83316, Note_off_c, 0, 75, 100
2, 83324, Note_off_c, 0, 85, 100
2, 83328, Note_on_c, 0, 84, 80
2, 83424, Note_on_c, 0, 78, 80
2, 83512, Note_off_c, 0, 84, 100
2, 83520, Note_on_c, 0, 75, 80
2, 83608, Note_off_c, 0, 78, 100
2, 83616, Note_on_c, 0, 84, 80
2, 83708, Note_off_c, 0, 75, 100
2, 83712, Note_on_c, 0, 87, 80
2, 83800, Note_off_c, 0, 84, 100
2, 83808, Note_on_c, 0, 78, 80
2, 83896, Note_off_c, 0, 87, 100
2, 83904, Note_on_c, 0, 75, 80
2, 83996, Note_off_c, 0, 78, 100
2, 84000, Note_on_c, 0, 87, 80
2, 84072, Note_off_c, 0, 75, 100
2, 84096, Note_on_c, 0, 80, 80
2, 84172, Note_off_c, 0, 87, 100
2, 84192, Note_on_c, 0, 78, 80
2, 84284, Note_off_c, 0, 80, 100
2, 84288, Note_on_c, 0, 75, 80
2, 84364, Note_off_c, 0, 78, 100
2, 84384, Note_on_c, 0, 80, 80
2, 84456, Note_off_c, 0, 75, 100
2, 84480, Note_on_c, 0, 82, 80
2, 84552, Note_off_c, 0, 80, 100
2, 84576, Note_on_c, 0, 78, 80
2, 84656, Note_off_c, 0, 82, 100
2, 84672, Note_on_c, 0, 75, 80
2, 84760, Note_off_c, 0, 78, 100
2, 84768, Note_on_c, 0, 82, 80
2, 84848, Note_off_c, 0, 75, 100
2, 84860, Note_off_c, 0, 82, 100
2, 84864, Note_on_c, 0, 84, 80
2, 84960, Note_on_c, 0, 80, 80
2, 85032, Note_off_c, 0, 84, 100
2, 85056, Note_on_c, 0, 75, 81
2, 85148, Note_off_c, 0, 80, 100
2, 85152, Note_on_c, 0, 84, 82
2, 85220, Note_off_c, 0, 75, 100
2, 85248, Note_on_c, 0, 85, 83
2, 85324, Note_off_c, 0, 84, 100
2, 85344, Note_on_c, 0, 80, 84
2, 85436, Note_off_c, 0, 85, 100
2, 85440, Note_on_c, 0, 73, 85
2, 85524, Note_off_c, 0, 80, 100
2, 85536, Note_on_c, 0, 85, 86
2, 85604, Note_off_c, 0, 73, 100
2, 85628, Note_off_c, 0, 85, 100
2, 85632, Note_on_c, 0, 85, 87
2, 85728, Note_on_c, 0, 80, 88
2, 85820, Note_off_c, 0, 85, 100
2, 85824, Note_on_c, 0, 73, 89
2, 85912, Note_off_c, 0, 80, 100
2, 85920, Note_on_c, 0, 85, 90
2, 86000, Note_off_c, 0, 73, 100
2, 86012, Note_off_c, 0, 85, 100
2, 86016, Note_on_c, 0, 85, 91
2, 86112, Note_on_c, 0, 80, 92
2, 86200, Note_off_c, 0, 85, 100
2, 86208, Note_on_c, 0, 73, 93
2, 86284, Note_off_c, 0, 80, 100
2, 86304, Note_on_c, 0, 85, 94
2, 86388, Note_off_c, 0, 73, 100
2, 86396, Note_off_c, 0, 85, 100
2, 86400, Note_on_c, 0, 85, 95
2, 86496, Note_on_c, 0, 79, 96
2, 86588, Note_off_c, 0, 85, 100
2, 86592, Note_on_c, 0, 73, 97
2, 86664, Note_off_c, 0, 79, 100
2, 86688, Note_on_c, 0, 85, 98
2, 86764, Note_off_c, 0, 73, 100
2, 86780, Note_off_c, 0, 85, 100
2, 86784, Note_on_c, 0, 85, 99
2, 86880, Note_on_c, 0, 79, 100
2, 86952, Note_off_c, 0, 85, 100
2, 86976, Note_on_c, 0, 73, 101
2, 87048, Note_off_c, 0, 79, 100
2, 87072, Note_on_c, 0, 85, 102
2, 87148, Note_off_c, 0, 73, 100
2, 87164, Note_off_c, 0, 85, 100
2, 87168, Note_on_c, 0, 85, 103
2, 87264, Note_on_c, 0, 79, 104
2, 87348, Note_off_c, 0, 85, 100
2, 87360, Note_on_c, 0, 73, 105
2, 87436, Note_off_c, 0, 79, 100
2, 87456, Note_on_c, 0, 85, 106
2, 87536, Note_off_c, 0, 73, 100
2, 87548, Note_off_c, 0, 85, 100
2, 87552, Note_on_c, 0, 85, 107
2, 87648, Note_on_c, 0, 79, 108
2, 87724, Note_off_c, 0, 85, 100
2, 87744, Note_on_c, 0, 73, 108
2, 87824, Note_off_c, 0, 79, 100
2, 87840, Note_on_c, 0, 85, 109
2, 87924, Note_off_c, 0, 73, 100
2, 87932, Note_off_c, 0, 85, 100
2, 87936, Note_on_c, 0, 85, 110
2, 88032, Note_on_c, 0, 79, 110
2, 88124, Note_off_c, 0, 85, 100
2, 88128, Note_on_c, 0, 73, 110
2, 88200, Note_off_c, 0, 79, 100
2, 88224, Note_on_c, 0, 85, 110
2, 88300, Note_off_c, 0, 73, 100
2, 88316, Note_off_c, 0, 85, 100
2, 88320, Note_on_c, 0, 85, 111
2, 88416, Note_on_c, 0, 79, 111
2, 88488, Note_off_c, 0, 85, 100
2, 88512, Note_on_c, 0, 73, 111
2, 88584, Note_off_c, 0, 79, 100
2, 88608, Note_on_c, 0, 85, 112
2, 88684, Note_off_c, 0, 73, 100
2, 88700, Note_off_c, 0, 85, 100
2, 88704, Note_on_c, 0, 85, 112
2, 88800, Note_on_c, 0, 79, 112
2, 88884, Note_off_c, 0, 85, 100
2, 88896, Note_on_c, 0, 73, 113
2, 88972, Note_off_c, 0, 79, 100
2, 88992, Note_on_c, 0, 85, 113
2, 89072, Note_off_c, 0, 73, 100
2, 89084, Note_off_c, 0, 85, 100
2, 89088, Note_on_c, 0, 85, 113
2, 89184, Note_on_c, 0, 79, 114
2, 89260, Note_off_c, 0, 85, 100
2, 89280, Note_on_c, 0, 73, 114
2, 89360, Note_off_c, 0, 79, 100
2, 89376, Note_on_c, 0, 85, 114
2, 89460, Note_off_c, 0, 73, 100
2, 89468, Note_off_c, 0, 85, 100
2, 89472, Note_on_c, 0, 85, 120
2, 89568, Note_on_c, 0, 78, 120
2, 89636, Note_off_c, 0, 85, 100
2, 89664, Note_on_c, 0, 73, 120
2, 89744, Note_off_c, 0, 78, 100
2, 89760, Note_on_c, 0, 85, 120
2, 89828, Note_off_c, 0, 73, 100
2, 89852, Note_off_c, 0, 85, 100
2, 89856, Note_on_c, 0, 85, 120
2, 89952, Note_on_c, 0, 78, 120
2, 90040, Note_off_c, 0, 85, 100
2, 90048, Note_on_c, 0, 73, 120
2, 90132, Note_off_c, 0, 78, 100
2, 90144, Note_on_c, 0, 85, 120
2, 90224, Note_off_c, 0, 73, 100
2, 90240, Note_on_c, 0, 84, 120
2, 90312, Note_off_c, 0, 85, 100
2, 90336, Note_on_c, 0, 78, 120
2, 90412, Note_off_c, 0, 84, 100
2, 90432, Note_on_c, 0, 72, 120
2, 90512, Note_off_c, 0, 78, 100
2, 90528, Note_on_c, 0, 84, 120
2, 90604, Note_off_c, 0, 72, 100
2, 90620, Note_off_c, 0, 84, 100
2, 90624, Note_on_c, 0, 84, 120
2, 90720, Note_on_c, 0, 78, 120
2, 90796, Note_off_c, 0, 84, 100
2, 90816, Note_on_c, 0, 72, 120
2, 90888, Note_off_c, 0, 78, 100
2, 90912, Note_on_c, 0, 84, 120
2, 90980, Note_off_c, 0, 72, 100
2, 91004, Note_off_c, 0, 84, 100
2, 91008, Note_on_c, 0, 85, 120
2, 91008, Note_on_c, 0, 80, 120
2, 91008, Note_on_c, 0, 77, 120
2, 91388, Note_off_c, 0, 85, 100
2, 91388, Note_off_c, 0, 80, 100
2, 91388, Note_off_c, 0, 77, 100
2, 91776, Note_on_c, 0, 77, 80
2, 91900, Note_off_c, 0, 77, 100
2, 91904, Note_on_c, 0, 73, 80
2, 92028, Note_off_c, 0, 73, 100
2, 92032, Note_on_c, 0, 68, 80
2, 92156, Note_off_c, 0, 68, 100
2, 92160, Note_on_c, 0, 70, 80
2, 92284, Note_off_c, 0, 70, 100
2, 92288, Note_on_c, 0, 73, 80
2, 92412, Note_off_c, 0, 73, 100
2, 92416, Note_on_c, 0, 70, 80
2, 92540, Note_off_c, 0, 70, 100
2, 92544, Note_on_c, 0, 68, 80
2, 92668, Note_off_c, 0, 68, 100
2, 92672, Note_on_c, 0, 73, 80
2, 92796, Note_off_c, 0, 73, 100
2, 92800, Note_on_c, 0, 75, 80
2, 92924, Note_off_c, 0, 75, 100
2, 92928, Note_on_c, 0, 77, 80
2, 93052, Note_off_c, 0, 77, 100
2, 93056, Note_on_c, 0, 73, 80
2, 93180, Note_off_c, 0, 73, 100
2, 93184, Note_on_c, 0, 80, 80
2, 93308, Note_off_c, 0, 80, 100
2, 93312, Note_on_c, 0, 77, 80
2, 93436, Note_off_c, 0, 77, 100
2, 93440, Note_on_c, 0, 73, 80
2, 93564, Note_off_c, 0, 73, 100
2, 93568, Note_on_c, 0, 68, 80
2, 93692, Note_off_c, 0, 68, 100
2, 93696, Note_on_c, 0, 66, 80
2, 93820, Note_off_c, 0, 66, 100
2, 93824, Note_on_c, 0, 63, 80
2, 93948, Note_off_c, 0, 63, 100
2, 93952, Note_on_c, 0, 68, 80
2, 94076, Note_off_c, 0, 68, 100
2, 94080, Note_on_c, 0, 65, 80
2, 94460, Note_off_c, 0, 65, 100
2, 94464, Note_on_c, 0, 68, 80
2, 94588, Note_off_c, 0, 68, 100
2, 94592, Note_on_c, 0, 73, 81
2, 94716, Note_off_c, 0, 73, 100
2, 94720, Note_on_c, 0, 75, 82
2, 94844, Note_off_c, 0, 75, 100
2, 94848, Note_on_c, 0, 77, 84
2, 94972, Note_off_c, 0, 77, 100
2, 94976, Note_on_c, 0, 73, 85
2, 95100, Note_off_c, 0, 73, 100
2, 95104, Note_on_c, 0, 68, 87
2, 95228, Note_off_c, 0, 68, 100
2, 95232, Note_on_c, 0, 70, 88
2, 95356, Note_off_c, 0, 70, 100
2, 95360, Note_on_c, 0, 73, 89
2, 95484, Note_off_c, 0, 73, 100
2, 95488, Note_on_c, 0, 70, 91
2, 95612, Note_off_c, 0, 70, 100
2, 95616, Note_on_c, 0, 68, 92
2, 95740, Note_off_c, 0, 68, 100
2, 95744, Note_on_c, 0, 73, 94
2, 95868, Note_off_c, 0, 73, 100
2, 95872, Note_on_c, 0, 75, 95
2, 95996, Note_off_c, 0, 75, 100
2, 96000, Note_on_c, 0, 77, 97
2, 96124, Note_off_c, 0, 77, 100
2, 96128, Note_on_c, 0, 73, 98
2, 96252, Note_off_c, 0, 73, 100
2, 96256, Note_on_c, 0, 80, 99
2, 96380, Note_off_c, 0, 80, 100
2, 96384, Note_on_c, 0, 74, 110
2, 96384, Note_on_c, 0, 68, 110
2, 96764, Note_off_c, 0, 74, 100
2, 96764, Note_off_c, 0, 68, 100
2, 96768, Note_on_c, 0, 75, 110
2, 96768, Note_on_c, 0, 66, 110
2, 97148, Note_off_c, 0, 75, 100
2, 97148, Note_off_c, 0, 66, 100
2, 97152, Note_on_c, 0, 72, 110
2, 97152, Note_on_c, 0, 66, 110
2, 97916, Note_off_c, 0, 72, 100
2, 97916, Note_off_c, 0, 66, 100
2, 97920, Note_on_c, 0, 66, 80
2, 98012, Note_off_c, 0, 66, 100
2, 98016, Note_on_c, 0, 68, 80
2, 98108, Note_off_c, 0, 68, 100
2, 98112, Note_on_c, 0, 66, 80
2, 98204, Note_off_c, 0, 66, 100
2, 98208, Note_on_c, 0, 65, 80
2, 98300, Note_off_c, 0, 65, 100
2, 98304, Note_on_c, 0, 66, 80
2, 98396, Note_off_c, 0, 66, 100
2, 98400, Note_on_c, 0, 75, 80
2, 98492, Note_off_c, 0, 75, 100
2, 98496, Note_on_c, 0, 73, 80
2, 98588, Note_off_c, 0, 73, 100
2, 98592, Note_on_c, 0, 72, 80
2, 98684, Note_off_c, 0, 72, 100
2, 98688, Note_on_c, 0, 73, 80
2, 98780, Note_off_c, 0, 73, 100
2, 98784, Note_on_c, 0, 68, 80
2, 98876, Note_off_c, 0, 68, 100
2, 98880, Note_on_c, 0, 73, 80
2, 98972, Note_off_c, 0, 73, 100
2, 98976, Note_on_c, 0, 77, 80
2, 99068, Note_off_c, 0, 77, 100
2, 99072, Note_on_c, 0, 80, 80
2, 99164, Note_off_c, 0, 80, 100
2, 99168, Note_on_c, 0, 85, 80
2, 99260, Note_off_c, 0, 85, 100
2, 99264, Note_on_c, 0, 89, 80
2, 99356, Note_off_c, 0, 89, 100
2, 99360, Note_on_c, 0, 87, 80
2, 99452, Note_off_c, 0, 87, 100
2, 99456, Note_on_c, 0, 86, 110
2, 99456, Note_on_c, 0, 80, 110
2, 99836, Note_off_c, 0, 86, 100
2, 99836, Note_off_c, 0, 80, 100
2, 99840, Note_on_c, 0, 87, 110
2, 99840, Note_on_c, 0, 78, 110
2, 100220, Note_off_c, 0, 87, 100
2, 100220, Note_off_c, 0, 78, 100
2, 100224, Note_on_c, 0, 84, 110
2, 100224, Note_on_c, 0, 78, 110
2, 100988, Note_off_c, 0, 84, 100
2, 100988, Note_off_c, 0, 78, 100
2, 100992, Note_on_c, 0, 78, 80
2, 101084, Note_off_c, 0, 78, 100
2, 101088, Note_on_c, 0, 80, 80
2, 101180, Note_off_c, 0, 80, 100
2, 101184, Note_on_c, 0, 78, 80
2, 101276, Note_off_c, 0, 78, 100
2, 101280, Note_on_c, 0, 77, 80
2, 101372, Note_off_c, 0, 77, 100
2, 101376, Note_on_c, 0, 78, 80
2, 101468, Note_off_c, 0, 78, 100
2, 101472, Note_on_c, 0, 87, 80
2, 101564, Note_off_c, 0, 87, 100
2, 101568, Note_on_c, 0, 85, 80
2, 101660, Note_off_c, 0, 85, 100
2, 101664, Note_on_c, 0, 84, 80
2, 101756, Note_off_c, 0, 84, 100
2, 101760, Note_on_c, 0, 85, 80
2, 101852, Note_off_c, 0, 85, 100
2, 101856, Note_on_c, 0, 80, 80
2, 101948, Note_off_c, 0, 80, 100
2, 101952, Note_on_c, 0, 77, 80
2, 102044, Note_off_c, 0, 77, 100
2, 102048, Note_on_c, 0, 73, 80
2, 102140, Note_off_c, 0, 73, 100
2, 102144, Note_on_c, 0, 68, 80
2, 102236, Note_off_c, 0, 68, 100
2, 102240, Note_on_c, 0, 73, 80
2, 102332, Note_off_c, 0, 73, 100
2, 102336, Note_on_c, 0, 68, 80
2, 102428, Note_off_c, 0, 68, 100
2, 102432, Note_on_c, 0, 65, 80
2, 102524, Note_off_c, 0, 65, 100
2, 102528, Note_on_c, 0, 66, 80
2, 102620, Note_off_c, 0, 66, 100
2, 102624, Note_on_c, 0, 68, 80
2, 102716, Note_off_c, 0, 68, 100
2, 102720, Note_on_c, 0, 66, 80
2, 102812, Note_off_c, 0, 66, 100
2, 102816, Note_on_c, 0, 65, 80
2, 102908, Note_off_c, 0, 65, 100
2, 102912, Note_on_c, 0, 66, 80
2, 103004, Note_off_c, 0, 66, 100
2, 103008, Note_on_c, 0, 75, 80
2, 103100, Note_off_c, 0, 75, 100
2, 103104, Note_on_c, 0, 73, 80
2, 103196, Note_off_c, 0, 73, 100
2, 103200, Note_on_c, 0, 72, 80
2, 103292, Note_off_c, 0, 72, 100
2, 103296, Note_on_c, 0, 73, 80
2, 103388, Note_off_c, 0, 73, 100
2, 103392, Note_on_c, 0, 68, 80
2, 103484, Note_off_c, 0, 68, 100
2, 103488, Note_on_c, 0, 65, 80
2, 103580, Note_off_c, 0, 65, 100
2, 103584, Note_on_c, 0, 61, 80
2, 103676, Note_off_c, 0, 61, 100
2, 103680, Note_on_c, 0, 56, 80
2, 103772, Note_off_c, 0, 56, 100
2, 103776, Note_on_c, 0, 61, 80
2, 103868, Note_off_c, 0, 61, 100
2, 103872, Note_on_c, 0, 56, 80
2, 103964, Note_off_c, 0, 56, 100
2, 103968, Note_on_c, 0, 53, 80
2, 104060, Note_off_c, 0, 53, 100
2, 104448, Note_on_c, 0, 66, 80
2, 104448, Note_on_c, 0, 63, 80
2, 104448, Note_on_c, 0, 60, 80
2, 104448, Note_on_c, 0, 56, 80
2, 104828, Note_off_c, 0, 66, 100
2, 104828, Note_off_c, 0, 63, 100
2, 104828, Note_off_c, 0, 60, 100
2, 104828, Note_off_c, 0, 56, 100
2, 105216, Note_on_c, 0, 66, 80
2, 105216, Note_on_c, 0, 63, 80
2, 105216, Note_on_c, 0, 60, 80
2, 105596, Note_off_c, 0, 66, 100
2, 105596, Note_off_c, 0, 63, 100
2, 105596, Note_off_c, 0, 60, 100
2, 105984, Note_on_c, 0, 68, 80
2, 105984, Note_on_c, 0, 66, 80
2, 105984, Note_on_c, 0, 63, 80
2, 105984, Note_on_c, 0, 60, 80
2, 106364, Note_off_c, 0, 68, 100
2, 106364, Note_off_c, 0, 66, 100
2, 106364, Note_off_c, 0, 63, 100
2, 106364, Note_off_c, 0, 60, 100
2, 106752, Note_on_c, 0, 68, 80
2, 106752, Note_on_c, 0, 66, 80
2, 106752, Note_on_c, 0, 63, 80
2, 106752, Note_on_c, 0, 59, 80
2, 107132, Note_off_c, 0, 68, 100
2, 107132, Note_off_c, 0, 66, 100
2, 107132, Note_off_c, 0, 63, 100
2, 107132, Note_off_c, 0, 59, 100
2, 107520, Note_on_c, 0, 69, 80
2, 107804, Note_off_c, 0, 69, 100
2, 107808, Note_on_c, 0, 71, 80
2, 107900, Note_off_c, 0, 71, 100
2, 107904, Note_on_c, 0, 73, 80
2, 108284, Note_off_c, 0, 73, 100
2, 108288, Note_on_c, 0, 66, 80
2, 108288, Note_on_c, 0, 61, 80
2, 108668, Note_off_c, 0, 66, 100
2, 108668, Note_off_c, 0, 61, 100
2, 108672, Note_on_c, 0, 65, 80
2, 108672, Note_on_c, 0, 61, 80
2, 109052, Note_off_c, 0, 65, 100
2, 109052, Note_off_c, 0, 61, 100
2, 109056, Note_on_c, 0, 66, 80
2, 109056, Note_on_c, 0, 61, 80
2, 109436, Note_off_c, 0, 66, 100
2, 109436, Note_off_c, 0, 61, 100
2, 109440, Note_on_c, 0, 74, 80
2, 109440, Note_on_c, 0, 66, 80
2, 109440, Note_on_c, 0, 62, 80
2, 110588, Note_off_c, 0, 74, 100
2, 110588, Note_off_c, 0, 66, 100
2, 110588, Note_off_c, 0, 62, 100
2, 110592, Note_on_c, 0, 74, 89
2, 110592, Note_on_c, 0, 66, 89
2, 110592, Note_on_c, 0, 62, 89
2, 110972, Note_off_c, 0, 74, 100
2, 110972, Note_off_c, 0, 66, 100
2, 110972, Note_off_c, 0, 62, 100
2, 110976, Note_on_c, 0, 71, 93
2, 110976, Note_on_c, 0, 74, 93
2, 111024, Note_on_c, 0, 76, 93
2, 111068, Note_off_c, 0, 74, 100
2, 111072, Note_on_c, 0, 74, 94
2, 111116, Note_off_c, 0, 76, 100
2, 111120, Note_on_c, 0, 76, 94
2, 111164, Note_off_c, 0, 74, 100
2, 111168, Note_on_c, 0, 74, 94
2, 111212, Note_off_c, 0, 76, 100
2, 111216, Note_on_c, 0, 76, 95
2, 111260, Note_off_c, 0, 74, 100
2, 111264, Note_on_c, 0, 74, 95
2, 111308, Note_off_c, 0, 76, 100
2, 111312, Note_on_c, 0, 76, 96
2, 111356, Note_off_c, 0, 74, 100
2, 111360, Note_on_c, 0, 74, 96
2, 111404, Note_off_c, 0, 76, 100
2, 111408, Note_on_c, 0, 76, 97
2, 111452, Note_off_c, 0, 74, 100
2, 111456, Note_on_c, 0, 74, 97
2, 111500, Note_off_c, 0, 76, 100
2, 111504, Note_on_c, 0, 76, 97
2, 111548, Note_off_c, 0, 74, 100
2, 111552, Note_on_c, 0, 74, 98
2, 111596, Note_off_c, 0, 76, 100
2, 111600, Note_on_c, 0, 76, 98
2, 111644, Note_off_c, 0, 74, 100
2, 111648, Note_on_c, 0, 73, 99
2, 111692, Note_off_c, 0, 76, 100
2, 111696, Note_on_c, 0, 74, 99
2, 111740, Note_off_c, 0, 71, 100
2, 111740, Note_off_c, 0, 73, 100
2, 111740, Note_off_c, 0, 74, 100
2, 111744, Note_on_c, 0, 76, 99
2, 111744, Note_on_c, 0, 68, 99
2, 112124, Note_off_c, 0, 68, 100
2, 112128, Note_on_c, 0, 64, 80
2, 112316, Note_off_c, 0, 76, 100
2, 112320, Note_on_c, 0, 71, 80
2, 112508, Note_off_c, 0, 64, 100
2, 112508, Note_off_c, 0, 71, 100
2, 112512, Note_on_c, 0, 73, 80
2, 112604, Note_off_c, 0, 73, 100
2, 112608, Note_on_c, 0, 76, 80
2, 112700, Note_off_c, 0, 76, 100
2, 112704, Note_on_c, 0, 73, 80
2, 112796, Note_off_c, 0, 73, 100
2, 112800, Note_on_c, 0, 76, 80
2, 112892, Note_off_c, 0, 76, 100
2, 112896, Note_on_c, 0, 73, 80
2, 112988, Note_off_c, 0, 73, 100
2, 112992, Note_on_c, 0, 76, 80
2, 113084, Note_off_c, 0, 76, 100
2, 113088, Note_on_c, 0, 73, 80
2, 113180, Note_off_c, 0, 73, 100
2, 113184, Note_on_c, 0, 76, 80
2, 113276, Note_off_c, 0, 76, 100
2, 113280, Note_on_c, 0, 73, 80
2, 113372, Note_off_c, 0, 73, 100
2, 113376, Note_on_c, 0, 76, 80
2, 113468, Note_off_c, 0, 76, 100
2, 113472, Note_on_c, 0, 73, 80
2, 113564, Note_off_c, 0, 73, 100
2, 113568, Note_on_c, 0, 76, 80
2, 113660, Note_off_c, 0, 76, 100
2, 113664, Note_on_c, 0, 73, 80
2, 113756, Note_off_c, 0, 73, 100
2, 113760, Note_on_c, 0, 76, 80
2, 113852, Note_off_c, 0, 76, 100
2, 113856, Note_on_c, 0, 73, 80
2, 113948, Note_off_c, 0, 73, 100
2, 113952, Note_on_c, 0, 76, 80
2, 114044, Note_off_c, 0, 76, 100
2, 114048, Note_on_c, 0, 73, 80
2, 114140, Note_off_c, 0, 73, 100
2, 114144, Note_on_c, 0, 75, 80
2, 114236, Note_off_c, 0, 75, 100
2, 114240, Note_on_c, 0, 73, 80
2, 114332, Note_off_c, 0, 73, 100
2, 114336, Note_on_c, 0, 75, 80
2, 114428, Note_off_c, 0, 75, 100
2, 114432, Note_on_c, 0, 71, 80
2, 114524, Note_off_c, 0, 71, 100
2, 114528, Note_on_c, 0, 75, 80
2, 114620, Note_off_c, 0, 75, 100
2, 114624, Note_on_c, 0, 71, 80
2, 114716, Note_off_c, 0, 71, 100
2, 114720, Note_on_c, 0, 75, 80
2, 114812, Note_off_c, 0, 75, 100
2, 114816, Note_on_c, 0, 71, 80
2, 114908, Note_off_c, 0, 71, 100
2, 114912, Note_on_c, 0, 75, 80
2, 115004, Note_off_c, 0, 75, 100
2, 115008, Note_on_c, 0, 71, 80
2, 115100, Note_off_c, 0, 71, 100
2, 115104, Note_on_c, 0, 75, 80
2, 115196, Note_off_c, 0, 75, 100
2, 115200, Note_on_c, 0, 71, 80
2, 115200, Note_on_c, 0, 83, 111
2, 115292, Note_off_c, 0, 71, 100
2, 115296, Note_on_c, 0, 75, 80
2, 115388, Note_off_c, 0, 75, 100
2, 115392, Note_on_c, 0, 71, 80
2, 115484, Note_off_c, 0, 83, 100
2, 115484, Note_off_c, 0, 71, 100
2, 115488, Note_on_c, 0, 85, 111
2, 115580, Note_off_c, 0, 85, 100
2, 115584, Note_on_c, 0, 87, 110
2, 115584, Note_on_c, 0, 75, 110
2, 115964, Note_off_c, 0, 87, 100
2, 115964, Note_off_c, 0, 75, 100
2, 115968, Note_on_c, 0, 80, 110
2, 115968, Note_on_c, 0, 68, 110
2, 116348, Note_off_c, 0, 80, 100
2, 116348, Note_off_c, 0, 68, 100
2, 116352, Note_on_c, 0, 79, 110
2, 116352, Note_on_c, 0, 67, 110
2, 116732, Note_off_c, 0, 79, 100
2, 116732, Note_off_c, 0, 67, 100
2, 116736, Note_on_c, 0, 80, 110
2, 116736, Note_on_c, 0, 68, 110
2, 117116, Note_off_c, 0, 80, 100
2, 117116, Note_off_c, 0, 68, 100
2, 117120, Note_on_c, 0, 80, 80
2, 117212, Note_off_c, 0, 80, 100
2, 117216, Note_on_c, 0, 83, 80
2, 117308, Note_off_c, 0, 83, 100
2, 117312, Note_on_c, 0, 82, 80
2, 117404, Note_off_c, 0, 82, 100
2, 117408, Note_on_c, 0, 80, 80
2, 117500, Note_off_c, 0, 80, 100
2, 117504, Note_on_c, 0, 80, 80
2, 117596, Note_off_c, 0, 80, 100
2, 117600, Note_on_c, 0, 83, 80
2, 117692, Note_off_c, 0, 83, 100
2, 117696, Note_on_c, 0, 82, 80
2, 117788, Note_off_c, 0, 82, 100
2, 117792, Note_on_c, 0, 80, 80
2, 117884, Note_off_c, 0, 80, 100
2, 117888, Note_on_c, 0, 80, 80
2, 117980, Note_off_c, 0, 80, 100
2, 117984, Note_on_c, 0, 83, 80
2, 118076, Note_off_c, 0, 83, 100
2, 118080, Note_on_c, 0, 82, 80
2, 118172, Note_off_c, 0, 82, 100
2, 118176, Note_on_c, 0, 80, 80
2, 118268, Note_off_c, 0, 80, 100
2, 118272, Note_on_c, 0, 80, 80
2, 118364, Note_off_c, 0, 80, 100
2, 118368, Note_on_c, 0, 83, 80
2, 118460, Note_off_c, 0, 83, 100
2, 118464, Note_on_c, 0, 82, 80
2, 118556, Note_off_c, 0, 82, 100
2, 118560, Note_on_c, 0, 80, 80
2, 118652, Note_off_c, 0, 80, 100
2, 118656, Note_on_c, 0, 80, 80
2, 118748, Note_off_c, 0, 80, 100
2, 118752, Note_on_c, 0, 83, 80
2, 118844, Note_off_c, 0, 83, 100
2, 118848, Note_on_c, 0, 82, 80
2, 118940, Note_off_c, 0, 82, 100
2, 118944, Note_on_c, 0, 80, 80
2, 119036, Note_off_c, 0, 80, 100
2, 119040, Note_on_c, 0, 83, 80
2, 119132, Note_off_c, 0, 83, 100
2, 119136, Note_on_c, 0, 80, 80
2, 119228, Note_off_c, 0, 80, 100
2, 119232, Note_on_c, 0, 78, 80
2, 119324, Note_off_c, 0, 78, 100
2, 119328, Note_on_c, 0, 77, 80
2, 119420, Note_off_c, 0, 77, 100
2, 119424, Note_on_c, 0, 83, 80
2, 119516, Note_off_c, 0, 83, 100
2, 119520, Note_on_c, 0, 80, 80
2, 119612, Note_off_c, 0, 80, 100
2, 119616, Note_on_c, 0, 78, 80
2, 119708, Note_off_c, 0, 78, 100
2, 119712, Note_on_c, 0, 77, 80
2, 119804, Note_off_c, 0, 77, 100
2, 119808, Note_on_c, 0, 82, 80
2, 119900, Note_off_c, 0, 82, 100
2, 119904, Note_on_c, 0, 80, 80
2, 119996, Note_off_c, 0, 80, 100
2, 120000, Note_on_c, 0, 78, 80
2, 120092, Note_off_c, 0, 78, 100
2, 120096, Note_on_c, 0, 77, 80
2, 120188, Note_off_c, 0, 77, 100
2, 120192, Note_on_c, 0, 78, 80
2, 120284, Note_off_c, 0, 78, 100
2, 120288, Note_on_c, 0, 82, 80
2, 120380, Note_off_c, 0, 82, 100
2, 120384, Note_on_c, 0, 80, 80
2, 120476, Note_off_c, 0, 80, 100
2, 120480, Note_on_c, 0, 78, 80
2, 120572, Note_off_c, 0, 78, 100
2, 120576, Note_on_c, 0, 80, 80
2, 120668, Note_off_c, 0, 80, 100
2, 120672, Note_on_c, 0, 78, 80
2, 120764, Note_off_c, 0, 78, 100
2, 120768, Note_on_c, 0, 77, 80
2, 120860, Note_off_c, 0, 77, 100
2, 120864, Note_on_c, 0, 75, 80
2, 120956, Note_off_c, 0, 75, 100
2, 120960, Note_on_c, 0, 74, 80
2, 121052, Note_off_c, 0, 74, 100
2, 121056, Note_on_c, 0, 77, 80
2, 121148, Note_off_c, 0, 77, 100
2, 121152, Note_on_c, 0, 75, 80
2, 121244, Note_off_c, 0, 75, 100
2, 121248, Note_on_c, 0, 74, 80
2, 121340, Note_off_c, 0, 74, 100
2, 121344, Note_on_c, 0, 82, 80
2, 121436, Note_off_c, 0, 82, 100
2, 121440, Note_on_c, 0, 80, 80
2, 121532, Note_off_c, 0, 80, 100
2, 121536, Note_on_c, 0, 78, 80
2, 121628, Note_off_c, 0, 78, 100
2, 121632, Note_on_c, 0, 77, 80
2, 121724, Note_off_c, 0, 77, 100
2, 121728, Note_on_c, 0, 78, 80
2, 121820, Note_off_c, 0, 78, 100
2, 121824, Note_on_c, 0, 82, 80
2, 121916, Note_off_c, 0, 82, 100
2, 121920, Note_on_c, 0, 80, 80
2, 122012, Note_off_c, 0, 80, 100
2, 122016, Note_on_c, 0, 78, 80
2, 122108, Note_off_c, 0, 78, 100
2, 122112, Note_on_c, 0, 80, 80
2, 122204, Note_off_c, 0, 80, 100
2, 122208, Note_on_c, 0, 78, 80
2, 122300, Note_off_c, 0, 78, 100
2, 122304, Note_on_c, 0, 77, 80
2, 122396, Note_off_c, 0, 77, 100
2, 122400, Note_on_c, 0, 75, 80
2, 122492, Note_off_c, 0, 75, 100
2, 122496, Note_on_c, 0, 72, 80
2, 122588, Note_off_c, 0, 72, 100
2, 122592, Note_on_c, 0, 75, 80
2, 122684, Note_off_c, 0, 75, 100
2, 122688, Note_on_c, 0, 73, 80
2, 122780, Note_off_c, 0, 73, 100
2, 122784, Note_on_c, 0, 72, 80
2, 122876, Note_off_c, 0, 72, 100
2, 122880, Note_on_c, 0, 80, 80
2, 122972, Note_off_c, 0, 80, 100
2, 122976, Note_on_c, 0, 78, 80
2, 123068, Note_off_c, 0, 78, 100
2, 123072, Note_on_c, 0, 76, 80
2, 123164, Note_off_c, 0, 76, 100
2, 123168, Note_on_c, 0, 75, 80
2, 123260, Note_off_c, 0, 75, 100
2, 123264, Note_on_c, 0, 76, 80
2, 123356, Note_off_c, 0, 76, 100
2, 123360, Note_on_c, 0, 80, 80
2, 123452, Note_off_c, 0, 80, 100
2, 123456, Note_on_c, 0, 78, 80
2, 123548, Note_off_c, 0, 78, 100
2, 123552, Note_on_c, 0, 76, 80
2, 123644, Note_off_c, 0, 76, 100
2, 123648, Note_on_c, 0, 78, 80
2, 123740, Note_off_c, 0, 78, 100
2, 123744, Note_on_c, 0, 76, 80
2, 123836, Note_off_c, 0, 76, 100
2, 123840, Note_on_c, 0, 75, 80
2, 123932, Note_off_c, 0, 75, 100
2, 123936, Note_on_c, 0, 73, 80
2, 124028, Note_off_c, 0, 73, 100
2, 124032, Note_on_c, 0, 72, 80
2, 124124, Note_off_c, 0, 72, 100
2, 124128, Note_on_c, 0, 75, 80
2, 124220, Note_off_c, 0, 75, 100
2, 124224, Note_on_c, 0, 73, 80
2, 124316, Note_off_c, 0, 73, 100
2, 124320, Note_on_c, 0, 72, 80
2, 124412, Note_off_c, 0, 72, 100
2, 124416, Note_on_c, 0, 80, 80
2, 124508, Note_off_c, 0, 80, 100
2, 124512, Note_on_c, 0, 78, 80
2, 124604, Note_off_c, 0, 78, 100
2, 124608, Note_on_c, 0, 76, 80
2, 124700, Note_off_c, 0, 76, 100
2, 124704, Note_on_c, 0, 75, 80
2, 124796, Note_off_c, 0, 75, 100
2, 124800, Note_on_c, 0, 76, 80
2, 124892, Note_off_c, 0, 76, 100
2, 124896, Note_on_c, 0, 80, 80
2, 124988, Note_off_c, 0, 80, 100
2, 124992, Note_on_c, 0, 78, 80
2, 125084, Note_off_c, 0, 78, 100
2, 125088, Note_on_c, 0, 76, 80
2, 125180, Note_off_c, 0, 76, 100
2, 125184, Note_on_c, 0, 78, 80
2, 125276, Note_off_c, 0, 78, 100
2, 125280, Note_on_c, 0, 76, 80
2, 125372, Note_off_c, 0, 76, 100
2, 125376, Note_on_c, 0, 75, 80
2, 125468, Note_off_c, 0, 75, 100
2, 125472, Note_on_c, 0, 73, 80
2, 125564, Note_off_c, 0, 73, 100
2, 125568, Note_on_c, 0, 70, 80
2, 125660, Note_off_c, 0, 70, 100
2, 125664, Note_on_c, 0, 71, 80
2, 125756, Note_off_c, 0, 71, 100
2, 125760, Note_on_c, 0, 70, 80
2, 125852, Note_off_c, 0, 70, 100
2, 125856, Note_on_c, 0, 68, 80
2, 125948, Note_off_c, 0, 68, 100
2, 125952, Note_on_c, 0, 78, 80
2, 126044, Note_off_c, 0, 78, 100
2, 126048, Note_on_c, 0, 76, 80
2, 126140, Note_off_c, 0, 76, 100
2, 126144, Note_on_c, 0, 75, 80
2, 126236, Note_off_c, 0, 75, 100
2, 126240, Note_on_c, 0, 73, 80
2, 126332, Note_off_c, 0, 73, 100
2, 126336, Note_on_c, 0, 71, 80
2, 126428, Note_off_c, 0, 71, 100
2, 126432, Note_on_c, 0, 75, 80
2, 126524, Note_off_c, 0, 75, 100
2, 126528, Note_on_c, 0, 73, 80
2, 126620, Note_off_c, 0, 73, 100
2, 126624, Note_on_c, 0, 71, 80
2, 126716, Note_off_c, 0, 71, 100
2, 126720, Note_on_c, 0, 78, 80
2, 126812, Note_off_c, 0, 78, 100
2, 126816, Note_on_c, 0, 76, 80
2, 126908, Note_off_c, 0, 76, 100
2, 126912, Note_on_c, 0, 75, 80
2, 127004, Note_off_c, 0, 75, 100
2, 127008, Note_on_c, 0, 73, 80
2, 127100, Note_off_c, 0, 73, 100
2, 127104, Note_on_c, 0, 71, 80
2, 127196, Note_off_c, 0, 71, 100
2, 127200, Note_on_c, 0, 75, 81
2, 127292, Note_off_c, 0, 75, 100
2, 127296, Note_on_c, 0, 73, 82
2, 127388, Note_off_c, 0, 73, 100
2, 127392, Note_on_c, 0, 71, 82
2, 127484, Note_off_c, 0, 71, 100
2, 127488, Note_on_c, 0, 78, 83
2, 127580, Note_off_c, 0, 78, 100
2, 127584, Note_on_c, 0, 76, 84
2, 127676, Note_off_c, 0, 76, 100
2, 127680, Note_on_c, 0, 75, 84
2, 127772, Note_off_c, 0, 75, 100
2, 127776, Note_on_c, 0, 73, 85
2, 127868, Note_off_c, 0, 73, 100
2, 127872, Note_on_c, 0, 71, 86
2, 127964, Note_off_c, 0, 71, 100
2, 127968, Note_on_c, 0, 75, 87
2, 128060, Note_off_c, 0, 75, 100
2, 128064, Note_on_c, 0, 73, 87
2, 128156, Note_off_c, 0, 73, 100
2, 128160, Note_on_c, 0, 71, 88
2, 128252, Note_off_c, 0, 71, 100
2, 128256, Note_on_c, 0, 83, 89
2, 128348, Note_off_c, 0, 83, 100
2, 128352, Note_on_c, 0, 82, 89
2, 128444, Note_off_c, 0, 82, 100
2, 128448, Note_on_c, 0, 80, 90
2, 128540, Note_off_c, 0, 80, 100
2, 128544, Note_on_c, 0, 78, 91
2, 128636, Note_off_c, 0, 78, 100
2, 128640, Note_on_c, 0, 77, 92
2, 128732, Note_off_c, 0, 77, 100
2, 128736, Note_on_c, 0, 80, 92
2, 128828, Note_off_c, 0, 80, 100
2, 128832, Note_on_c, 0, 78, 93
2, 128924, Note_off_c, 0, 78, 100
2, 128928, Note_on_c, 0, 77, 94
2, 129020, Note_off_c, 0, 77, 100
2, 129024, Note_on_c, 0, 83, 94
2, 129116, Note_off_c, 0, 83, 100
2, 129120, Note_on_c, 0, 82, 95
2, 129212, Note_off_c, 0, 82, 100
2, 129216, Note_on_c, 0, 80, 96
2, 129308, Note_off_c, 0, 80, 100
2, 129312, Note_on_c, 0, 78, 97
2, 129404, Note_off_c, 0, 78, 100
2, 129408, Note_on_c, 0, 77, 97
2, 129500, Note_off_c, 0, 77, 100
2, 129504, Note_on_c, 0, 80, 98
2, 129596, Note_off_c, 0, 80, 100
2, 129600, Note_on_c, 0, 78, 99
2, 129692, Note_off_c, 0, 78, 100
2, 129696, Note_on_c, 0, 77, 99
2, 129788, Note_off_c, 0, 77, 100
2, 129792, Note_on_c, 0, 87, 100
2, 129884, Note_off_c, 0, 87, 100
2, 129888, Note_on_c, 0, 85, 101
2, 129980, Note_off_c, 0, 85, 100
2, 129984, Note_on_c, 0, 83, 102
2, 130076, Note_off_c, 0, 83, 100
2, 130080, Note_on_c, 0, 82, 102
2, 130172, Note_off_c, 0, 82, 100
2, 130176, Note_on_c, 0, 80, 103
2, 130268, Note_off_c, 0, 80, 100
2, 130272, Note_on_c, 0, 83, 104
2, 130364, Note_off_c, 0, 83, 100
2, 130368, Note_on_c, 0, 82, 104
2, 130460, Note_off_c, 0, 82, 100
2, 130464, Note_on_c, 0, 80, 105
2, 130556, Note_off_c, 0, 80, 100
2, 130560, Note_on_c, 0, 78, 106
2, 130652, Note_off_c, 0, 78, 100
2, 130656, Note_on_c, 0, 77, 107
2, 130748, Note_off_c, 0, 77, 100
2, 130752, Note_on_c, 0, 75, 107
2, 130844, Note_off_c, 0, 75, 100
2, 130848, Note_on_c, 0, 73, 108
2, 130940, Note_off_c, 0, 73, 100
2, 130944, Note_on_c, 0, 71, 109
2, 131036, Note_off_c, 0, 71, 100
2, 131040, Note_on_c, 0, 75, 109
2, 131132, Note_off_c, 0, 75, 100
2, 131136, Note_on_c, 0, 73, 110
2, 131228, Note_off_c, 0, 73, 100
2, 131232, Note_on_c, 0, 71, 111
2, 131324, Note_off_c, 0, 71, 100
2, 131328, Note_on_c, 0, 70, 112
2, 131420, Note_off_c, 0, 70, 100
2, 131424, Note_on_c, 0, 68, 112
2, 131516, Note_off_c, 0, 68, 100
2, 131520, Note_on_c, 0, 66, 113
2, 131612, Note_off_c, 0, 66, 100
2, 131616, Note_on_c, 0, 65, 114
2, 131708, Note_off_c, 0, 65, 100
2, 131712, Note_on_c, 0, 71, 114
2, 131804, Note_off_c, 0, 71, 100
2, 131808, Note_on_c, 0, 70, 115
2, 131900, Note_off_c, 0, 70, 100
2, 131904, Note_on_c, 0, 68, 116
2, 131996, Note_off_c, 0, 68, 100
2, 132000, Note_on_c, 0, 66, 117
2, 132092, Note_off_c, 0, 66, 100
2, 132096, Note_on_c, 0, 65, 117
2, 132188, Note_off_c, 0, 65, 100
2, 132192, Note_on_c, 0, 63, 118
2, 132284, Note_off_c, 0, 63, 100
2, 132288, Note_on_c, 0, 61, 119
2, 132380, Note_off_c, 0, 61, 100
2, 132384, Note_on_c, 0, 60, 119
2, 132476, Note_off_c, 0, 60, 100
2, 132480, Note_on_c, 0, 61, 120
2, 133248, Note_on_c, 0, 65, 120
2, 134012, Note_off_c, 0, 61, 100
2, 134012, Note_off_c, 0, 65, 100
2, 134016, Note_on_c, 0, 61, 120
2, 134016, Note_on_c, 0, 65, 120
2, 134016, Note_on_c, 0, 68, 120
2, 135164, Note_off_c, 0, 65, 100
2, 135164, Note_off_c, 0, 68, 100
2, 135168, Note_on_c, 0, 66, 80
2, 135168, Note_on_c, 0, 70, 80
2, 135452, Note_off_c, 0, 66, 100
2, 135452, Note_off_c, 0, 70, 100
2, 135456, Note_on_c, 0, 71, 80
2, 135456, Note_on_c, 0, 68, 80
2, 135548, Note_off_c, 0, 61, 100
2, 135548, Note_off_c, 0, 71, 100
2, 135548, Note_off_c, 0, 68, 100
2, 135552, Note_on_c, 0, 73, 80
2, 135932, Note_off_c, 0, 73, 100
2, 135936, Note_on_c, 0, 66, 80
2, 135936, Note_on_c, 0, 61, 80
2, 136316, Note_off_c, 0, 66, 100
2, 136316, Note_off_c, 0, 61, 100
2, 136320, Note_on_c, 0, 65, 80
2, 136320, Note_on_c, 0, 61, 80
2, 136700, Note_off_c, 0, 65, 100
2, 136700, Note_off_c, 0, 61, 100
2, 136704, Note_on_c, 0, 66, 80
2, 136704, Note_on_c, 0, 61, 80
2, 137084, Note_off_c, 0, 66, 100
2, 137084, Note_off_c, 0, 61, 100
2, 137088, Note_on_c, 0, 71, 80
2, 137088, Note_on_c, 0, 65, 80
2, 137088, Note_on_c, 0, 59, 80
2, 137088, Note_on_c, 0, 61, 80
2, 138236, Note_off_c, 0, 71, 100
2, 138236, Note_off_c, 0, 65, 100
2, 138236, Note_off_c, 0, 59, 100
2, 138236, Note_off_c, 0, 61, 100
2, 138240, Note_on_c, 0, 61, 80
2, 138240, Note_on_c, 0, 56, 80
2, 138240, Note_on_c, 0, 68, 80
2, 138620, Note_off_c, 0, 61, 100
2, 138620, Note_off_c, 0, 56, 100
2, 138620, Note_off_c, 0, 68, 100
2, 138624, Note_on_c, 0, 70, 80
2, 138624, Note_on_c, 0, 61, 80
2, 138624, Note_on_c, 0, 58, 80
2, 139004, Note_off_c, 0, 70, 100
2, 139004, Note_off_c, 0, 61, 100
2, 139004, Note_off_c, 0, 58, 100
2, 139008, Note_on_c, 0, 75, 80
2, 139008, Note_on_c, 0, 63, 80
2, 139388, Note_off_c, 0, 75, 100
2, 139388, Note_off_c, 0, 63, 100
2, 139392, Note_on_c, 0, 73, 80
2, 139392, Note_on_c, 0, 61, 80
2, 139772, Note_off_c, 0, 73, 100
2, 139772, Note_off_c, 0, 61, 100
2, 139776, Note_on_c, 0, 78, 80
2, 139776, Note_on_c, 0, 66, 80
2, 140156, Note_off_c, 0, 78, 100
2, 140156, Note_off_c, 0, 66, 100
2, 140160, Note_on_c, 0, 77, 80
2, 140160, Note_on_c, 0, 65, 80
2, 140540, Note_off_c, 0, 77, 100
2, 140540, Note_off_c, 0, 65, 100
2, 140544, Note_on_c, 0, 75, 80
2, 140544, Note_on_c, 0, 63, 80
2, 140924, Note_off_c, 0, 75, 100
2, 140924, Note_off_c, 0, 63, 100
2, 140928, Note_on_c, 0, 73, 80
2, 140928, Note_on_c, 0, 61, 80
2, 141308, Note_off_c, 0, 73, 100
2, 141308, Note_off_c, 0, 61, 100
2, 141312, Note_on_c, 0, 70, 80
2, 141404, Note_off_c, 0, 70, 100
2, 141408, Note_on_c, 0, 71, 80
2, 141500, Note_off_c, 0, 71, 100
2, 141504, Note_on_c, 0, 70, 80
2, 141596, Note_off_c, 0, 70, 100
2, 141600, Note_on_c, 0, 66, 80
2, 141692, Note_off_c, 0, 66, 100
2, 141696, Note_on_c, 0, 71, 80
2, 141788, Note_off_c, 0, 71, 100
2, 141792, Note_on_c, 0, 73, 80
2, 141884, Note_off_c, 0, 73, 100
2, 141888, Note_on_c, 0, 71, 80
2, 141980, Note_off_c, 0, 71, 100
2, 141984, Note_on_c, 0, 68, 80
2, 142076, Note_off_c, 0, 68, 100
2, 142080, Note_on_c, 0, 65, 80
2, 142460, Note_off_c, 0, 65, 100
2, 142848, Note_on_c, 0, 71, 80
2, 142940, Note_off_c, 0, 71, 100
2, 142944, Note_on_c, 0, 73, 80
2, 143036, Note_off_c, 0, 73, 100
2, 143040, Note_on_c, 0, 71, 80
2, 143132, Note_off_c, 0, 71, 100
2, 143136, Note_on_c, 0, 68, 80
2, 143228, Note_off_c, 0, 68, 100
2, 143232, Note_on_c, 0, 73, 80
2, 143324, Note_off_c, 0, 73, 100
2, 143328, Note_on_c, 0, 75, 80
2, 143420, Note_off_c, 0, 75, 100
2, 143424, Note_on_c, 0, 73, 80
2, 143516, Note_off_c, 0, 73, 100
2, 143520, Note_on_c, 0, 70, 80
2, 143612, Note_off_c, 0, 70, 100
2, 143616, Note_on_c, 0, 66, 80
2, 143996, Note_off_c, 0, 66, 100
2, 144384, Note_on_c, 0, 70, 80
2, 144476, Note_off_c, 0, 70, 100
2, 144480, Note_on_c, 0, 71, 80
2, 144572, Note_off_c, 0, 71, 100
2, 144576, Note_on_c, 0, 70, 80
2, 144668, Note_off_c, 0, 70, 100
2, 144672, Note_on_c, 0, 66, 80
2, 144764, Note_off_c, 0, 66, 100
2, 144768, Note_on_c, 0, 73, 80
2, 144860, Note_off_c, 0, 73, 100
2, 144864, Note_on_c, 0, 75, 80
2, 144956, Note_off_c, 0, 75, 100
2, 144960, Note_on_c, 0, 73, 80
2, 145052, Note_off_c, 0, 73, 100
2, 145056, Note_on_c, 0, 70, 80
2, 145148, Note_off_c, 0, 70, 100
2, 145152, Note_on_c, 0, 67, 80
2, 145532, Note_off_c, 0, 67, 100
2, 145920, Note_on_c, 0, 73, 80
2, 146012, Note_off_c, 0, 73, 100
2, 146016, Note_on_c, 0, 75, 80
2, 146108, Note_off_c, 0, 75, 100
2, 146112, Note_on_c, 0, 73, 80
2, 146204, Note_off_c, 0, 73, 100
2, 146208, Note_on_c, 0, 70, 80
2, 146300, Note_off_c, 0, 70, 100
2, 146304, Note_on_c, 0, 75, 80
2, 146396, Note_off_c, 0, 75, 100
2, 146400, Note_on_c, 0, 76, 80
2, 146492, Note_off_c, 0, 76, 100
2, 146496, Note_on_c, 0, 75, 80
2, 146588, Note_off_c, 0, 75, 100
2, 146592, Note_on_c, 0, 71, 80
2, 146684, Note_off_c, 0, 71, 100
2, 146688, Note_on_c, 0, 68, 80
2, 147068, Note_off_c, 0, 68, 100
2, 147456, Note_on_c, 0, 88, 110
2, 147580, Note_off_c, 0, 88, 100
2, 147584, Note_on_c, 0, 87, 110
2, 147708, Note_off_c, 0, 87, 100
2, 147712, Note_on_c, 0, 85, 110
2, 147836, Note_off_c, 0, 85, 100
2, 147840, Note_on_c, 0, 83, 110
2, 147964, Note_off_c, 0, 83, 100
2, 147968, Note_on_c, 0, 81, 110
2, 148092, Note_off_c, 0, 81, 100
2, 148096, Note_on_c, 0, 80, 110
2, 148220, Note_off_c, 0, 80, 100
2, 148224, Note_on_c, 0, 78, 110
2, 148348, Note_off_c, 0, 78, 100
2, 148352, Note_on_c, 0, 76, 110
2, 148476, Note_off_c, 0, 76, 100
2, 148480, Note_on_c, 0, 75, 110
2, 148604, Note_off_c, 0, 75, 100
2, 148608, Note_on_c, 0, 73, 110
2, 148732, Note_off_c, 0, 73, 100
2, 148736, Note_on_c, 0, 71, 110
2, 148860, Note_off_c, 0, 71, 100
2, 148864, Note_on_c, 0, 70, 110
2, 148988, Note_off_c, 0, 70, 100
2, 148992, Note_on_c, 0, 71, 110
2, 149116, Note_off_c, 0, 71, 100
2, 149120, Note_on_c, 0, 73, 110
2, 149244, Note_off_c, 0, 73, 100
2, 149248, Note_on_c, 0, 75, 110
2, 149372, Note_off_c, 0, 75, 100
2, 149376, Note_on_c, 0, 76, 110
2, 149376, Note_on_c, 0, 71, 110
2, 149376, Note_on_c, 0, 68, 110
2, 149376, Note_on_c, 0, 64, 110
2, 149756, Note_off_c, 0, 76, 100
2, 149756, Note_off_c, 0, 71, 100
2, 149756, Note_off_c, 0, 68, 100
2, 149756, Note_off_c, 0, 64, 100
2, 149760, Note_on_c, 0, 78, 110
2, 149760, Note_on_c, 0, 75, 110
2, 149760, Note_on_c, 0, 71, 110
2, 149760, Note_on_c, 0, 66, 110
2, 150140, Note_off_c, 0, 78, 100
2, 150140, Note_off_c, 0, 75, 100
2, 150140, Note_off_c, 0, 71, 100
2, 150140, Note_off_c, 0, 66, 100
2, 150144, Note_on_c, 0, 80, 110
2, 150144, Note_on_c, 0, 76, 110
2, 150144, Note_on_c, 0, 71, 110
2, 150144, Note_on_c, 0, 68, 110
2, 150524, Note_off_c, 0, 80, 100
2, 150524, Note_off_c, 0, 76, 100
2, 150524, Note_off_c, 0, 71, 100
2, 150524, Note_off_c, 0, 68, 100
2, 150912, Note_on_c, 0, 64, 80
2, 150912, Note_on_c, 0, 59, 80
2, 150912, Note_on_c, 0, 68, 80
2, 151292, Note_off_c, 0, 64, 100
2, 151292, Note_off_c, 0, 59, 100
2, 151292, Note_off_c, 0, 68, 100
2, 151680, Note_on_c, 0, 69, 80
2, 151680, Note_on_c, 0, 66, 80
2, 151680, Note_on_c, 0, 61, 80
2, 152060, Note_off_c, 0, 69, 100
2, 152060, Note_off_c, 0, 66, 100
2, 152060, Note_off_c, 0, 61, 100
2, 152448, Note_on_c, 0, 78, 110
2, 152448, Note_on_c, 0, 75, 110
2, 152448, Note_on_c, 0, 71, 110
2, 152828, Note_off_c, 0, 78, 100
2, 152828, Note_off_c, 0, 75, 100
2, 152828, Note_off_c, 0, 71, 100
2, 152832, Note_on_c, 0, 80, 110
2, 152832, Note_on_c, 0, 77, 110
2, 152832, Note_on_c, 0, 73, 110
2, 152832, Note_on_c, 0, 71, 110
2, 153212, Note_off_c, 0, 80, 100
2, 153212, Note_off_c, 0, 77, 100
2, 153212, Note_off_c, 0, 73, 100
2, 153212, Note_off_c, 0, 71, 100
2, 153216, Note_on_c, 0, 81, 110
2, 153216, Note_on_c, 0, 78, 110
2, 153216, Note_on_c, 0, 73, 110
2, 153216, Note_on_c, 0, 69, 110
2, 153596, Note_off_c, 0, 81, 100
2, 153596, Note_off_c, 0, 78, 100
2, 153596, Note_off_c, 0, 73, 100
2, 153596, Note_off_c, 0, 69, 100
2, 153984, Note_on_c, 0, 69, 80
2, 153984, Note_on_c, 0, 66, 80
2, 153984, Note_on_c, 0, 61, 80
2, 154364, Note_off_c, 0, 69, 100
2, 154364, Note_off_c, 0, 66, 100
2, 154364, Note_off_c, 0, 61, 100
2, 154752, Note_on_c, 0, 71, 80
2, 154752, Note_on_c, 0, 68, 80
2, 154752, Note_on_c, 0, 62, 80
2, 155132, Note_off_c, 0, 71, 100
2, 155132, Note_off_c, 0, 68, 100
2, 155132, Note_off_c, 0, 62, 100
2, 155520, Note_on_c, 0, 80, 110
2, 155520, Note_on_c, 0, 77, 110
2, 155520, Note_on_c, 0, 73, 110
2, 155520, Note_on_c, 0, 71, 110
2, 155900, Note_off_c, 0, 80, 100
2, 155900, Note_off_c, 0, 77, 100
2, 155900, Note_off_c, 0, 73, 100
2, 155900, Note_off_c, 0, 71, 100
2, 155904, Note_on_c, 0, 82, 110
2, 155904, Note_on_c, 0, 76, 110
2, 155904, Note_on_c, 0, 73, 110
2, 155904, Note_on_c, 0, 70, 110
2, 156284, Note_off_c, 0, 82, 100
2, 156284, Note_off_c, 0, 76, 100
2, 156284, Note_off_c, 0, 73, 100
2, 156284, Note_off_c, 0, 70, 100
2, 156288, Note_on_c, 0, 83, 110
2, 156288, Note_on_c, 0, 74, 110
2, 156288, Note_on_c, 0, 71, 110
2, 156668, Note_off_c, 0, 83, 100
2, 156668, Note_off_c, 0, 74, 100
2, 156668, Note_off_c, 0, 71, 100
2, 157056, Note_on_c, 0, 74, 80
2, 157056, Note_on_c, 0, 71, 80
2, 157056, Note_on_c, 0, 66, 80
2, 157436, Note_off_c, 0, 74, 100
2, 157436, Note_off_c, 0, 71, 100
2, 157436, Note_off_c, 0, 66, 100
2, 157824, Note_on_c, 0, 76, 80
2, 157824, Note_on_c, 0, 73, 80
2, 157824, Note_on_c, 0, 67, 80
2, 158204, Note_off_c, 0, 76, 100
2, 158204, Note_off_c, 0, 73, 100
2, 158204, Note_off_c, 0, 67, 100
2, 158592, Note_on_c, 0, 82, 110
2, 158592, Note_on_c, 0, 76, 110
2, 158592, Note_on_c, 0, 73, 110
2, 158592, Note_on_c, 0, 70, 110
2, 158972, Note_off_c, 0, 82, 100
2, 158972, Note_off_c, 0, 76, 100
2, 158972, Note_off_c, 0, 73, 100
2, 158972, Note_off_c, 0, 70, 100
2, 158976, Note_on_c, 0, 83, 110
2, 158976, Note_on_c, 0, 74, 110
2, 158976, Note_on_c, 0, 71, 110
2, 159356, Note_off_c, 0, 83, 100
2, 159356, Note_off_c, 0, 74, 100
2, 159356, Note_off_c, 0, 71, 100
2, 159360, Note_on_c, 0, 85, 110
2, 159360, Note_on_c, 0, 76, 110
2, 159360, Note_on_c, 0, 73, 110
2, 159740, Note_off_c, 0, 85, 100
2, 159740, Note_off_c, 0, 76, 100
2, 159740, Note_off_c, 0, 73, 100
2, 160128, Note_on_c, 0, 73, 80
2, 160128, Note_on_c, 0, 70, 80
2, 160508, Note_off_c, 0, 73, 100
2, 160508, Note_off_c, 0, 70, 100
2, 160512, Note_on_c, 0, 75, 80
2, 160512, Note_on_c, 0, 71, 80
2, 160892, Note_off_c, 0, 75, 100
2, 160892, Note_off_c, 0, 71, 100
2, 160896, Note_on_c, 0, 76, 80
2, 160896, Note_on_c, 0, 73, 80
2, 161276, Note_off_c, 0, 76, 100
2, 161276, Note_off_c, 0, 73, 100
2, 161664, Note_on_c, 0, 73, 80
2, 161664, Note_on_c, 0, 70, 80
2, 161664, Note_on_c, 0, 66, 80
2, 162044, Note_off_c, 0, 73, 100
2, 162044, Note_off_c, 0, 70, 100
2, 162044, Note_off_c, 0, 66, 100
2, 162432, Note_on_c, 0, 76, 80
2, 162432, Note_on_c, 0, 73, 80
2, 162432, Note_on_c, 0, 66, 80
2, 162812, Note_off_c, 0, 76, 100
2, 162812, Note_off_c, 0, 73, 100
2, 162812, Note_off_c, 0, 66, 100
2, 163200, Note_on_c, 0, 75, 80
2, 163200, Note_on_c, 0, 71, 80
2, 163200, Note_on_c, 0, 66, 80
2, 163580, Note_off_c, 0, 75, 100
2, 163580, Note_off_c, 0, 71, 100
2, 163580, Note_off_c, 0, 66, 100
2, 163584, Note_on_c, 0, 78, 80
2, 163676, Note_off_c, 0, 78, 100
2, 163680, Note_on_c, 0, 80, 80
2, 163772, Note_off_c, 0, 80, 100
2, 163776, Note_on_c, 0, 78, 80
2, 163868, Note_off_c, 0, 78, 100
2, 163872, Note_on_c, 0, 75, 80
2, 163964, Note_off_c, 0, 75, 100
2, 163968, Note_on_c, 0, 83, 80
2, 165116, Note_off_c, 0, 83, 100
2, 165120, Note_on_c, 0, 83, 109
2, 165148, Note_off_c, 0, 83, 100
2, 165152, Note_on_c, 0, 82, 110
2, 165180, Note_off_c, 0, 82, 100
2, 165184, Note_on_c, 0, 80, 111
2, 165212, Note_off_c, 0, 80, 100
2, 165216, Note_on_c, 0, 82, 112
2, 165404, Note_off_c, 0, 82, 100
2, 165408, Note_on_c, 0, 83, 117
2, 165500, Note_off_c, 0, 83, 100
2, 165504, Note_on_c, 0, 85, 119
2, 165884, Note_off_c, 0, 85, 100
2, 165888, Note_on_c, 0, 82, 80
2, 166268, Note_off_c, 0, 82, 100
2, 166272, Note_on_c, 0, 79, 80
2, 166368, Note_on_c, 0, 88, 80
2, 166444, Note_off_c, 0, 79, 100
2, 166464, Note_on_c, 0, 87, 80
2, 166556, Note_off_c, 0, 88, 100
2, 166560, Note_on_c, 0, 79, 80
2, 166640, Note_off_c, 0, 87, 100
2, 166652, Note_off_c, 0, 79, 100
2, 166656, Note_on_c, 0, 79, 80
2, 166752, Note_on_c, 0, 88, 80
2, 166836, Note_off_c, 0, 79, 100
2, 166848, Note_on_c, 0, 87, 80
2, 166924, Note_off_c, 0, 88, 100
2, 166944, Note_on_c, 0, 79, 80
2, 167020, Note_off_c, 0, 87, 100
2, 167036, Note_off_c, 0, 79, 100
2, 167040, Note_on_c, 0, 79, 80
2, 167136, Note_on_c, 0, 88, 80
2, 167208, Note_off_c, 0, 79, 100
2, 167232, Note_on_c, 0, 87, 80
2, 167312, Note_off_c, 0, 88, 100
2, 167328, Note_on_c, 0, 79, 80
2, 167404, Note_off_c, 0, 87, 100
2, 167420, Note_off_c, 0, 79, 100
2, 167424, Note_on_c, 0, 79, 80
2, 167520, Note_on_c, 0, 88, 80
2, 167596, Note_off_c, 0, 79, 100
2, 167616, Note_on_c, 0, 87, 80
2, 167708, Note_off_c, 0, 88, 100
2, 167712, Note_on_c, 0, 79, 80
2, 167788, Note_off_c, 0, 87, 100
2, 167804, Note_off_c, 0, 79, 100
2, 167808, Note_on_c, 0, 80, 80
2, 167904, Note_on_c, 0, 88, 80
2, 167992, Note_off_c, 0, 80, 100
2, 168000, Note_on_c, 0, 87, 80
2, 168084, Note_off_c, 0, 88, 100
2, 168096, Note_on_c, 0, 80, 80
2, 168160, Note_off_c, 0, 87, 100
2, 168192, Note_on_c, 0, 82, 80
2, 168284, Note_off_c, 0, 80, 100
2, 168288, Note_on_c, 0, 88, 80
2, 168368, Note_off_c, 0, 82, 100
2, 168384, Note_on_c, 0, 87, 80
2, 168452, Note_off_c, 0, 88, 100
2, 168480, Note_on_c, 0, 82, 80
2, 168564, Note_off_c, 0, 87, 100
2, 168576, Note_on_c, 0, 83, 80
2, 168656, Note_off_c, 0, 82, 100
2, 168672, Note_on_c, 0, 88, 80
2, 168748, Note_off_c, 0, 83, 100
2, 168768, Note_on_c, 0, 87, 80
2, 168836, Note_off_c, 0, 88, 100
2, 168864, Note_on_c, 0, 83, 80
2, 168936, Note_off_c, 0, 87, 100
2, 168960, Note_on_c, 0, 92, 80
2, 169040, Note_off_c, 0, 83, 100
2, 169056, Note_on_c, 0, 87, 80
2, 169132, Note_off_c, 0, 92, 100
2, 169152, Note_on_c, 0, 83, 80
2, 169232, Note_off_c, 0, 87, 100
2, 169248, Note_on_c, 0, 80, 80
2, 169312, Note_off_c, 0, 83, 100
2, 169340, Note_off_c, 0, 80, 100
2, 169344, Note_on_c, 0, 89, 80
2, 169440, Note_on_c, 0, 83, 80
2, 169524, Note_off_c, 0, 89, 100
2, 169536, Note_on_c, 0, 80, 80
2, 169628, Note_off_c, 0, 83, 100
2, 169632, Note_on_c, 0, 89, 80
2, 169712, Note_off_c, 0, 80, 100
2, 169728, Note_on_c, 0, 92, 80
2, 169812, Note_off_c, 0, 89, 100
2, 169824, Note_on_c, 0, 83, 80
2, 169896, Note_off_c, 0, 92, 100
2, 169920, Note_on_c, 0, 80, 80
2, 170012, Note_off_c, 0, 83, 100
2, 170016, Note_on_c, 0, 90, 80
2, 170088, Note_off_c, 0, 80, 100
2, 170112, Note_on_c, 0, 89, 80
2, 170188, Note_off_c, 0, 90, 100
2, 170208, Note_on_c, 0, 83, 80
2, 170280, Note_off_c, 0, 89, 100
2, 170304, Note_on_c, 0, 80, 80
2, 170384, Note_off_c, 0, 83, 100
2, 170400, Note_on_c, 0, 89, 80
2, 170480, Note_off_c, 0, 80, 100
2, 170496, Note_on_c, 0, 92, 80
2, 170576, Note_off_c, 0, 89, 100
2, 170592, Note_on_c, 0, 83, 80
2, 170660, Note_off_c, 0, 92, 100
2, 170688, Note_on_c, 0, 80, 80
2, 170768, Note_off_c, 0, 83, 100
2, 170784, Note_on_c, 0, 90, 80
2, 170864, Note_off_c, 0, 80, 100
2, 170876, Note_off_c, 0, 90, 100
2, 170880, Note_on_c, 0, 89, 80
2, 170976, Note_on_c, 0, 83, 80
2, 171060, Note_off_c, 0, 89, 100
2, 171072, Note_on_c, 0, 80, 80
2, 171164, Note_off_c, 0, 83, 100
2, 171168, Note_on_c, 0, 89, 80
2, 171248, Note_off_c, 0, 80, 100
2, 171264, Note_on_c, 0, 92, 80
2, 171348, Note_off_c, 0, 89, 100
2, 171360, Note_on_c, 0, 83, 80
2, 171452, Note_off_c, 0, 92, 100
2, 171456, Note_on_c, 0, 80, 80
2, 171536, Note_off_c, 0, 83, 100
2, 171552, Note_on_c, 0, 92, 80
2, 171624, Note_off_c, 0, 80, 100
2, 171648, Note_on_c, 0, 85, 80
2, 171740, Note_off_c, 0, 92, 100
2, 171744, Note_on_c, 0, 83, 80
2, 171820, Note_off_c, 0, 85, 100
2, 171840, Note_on_c, 0, 80, 80
2, 171912, Note_off_c, 0, 83, 100
2, 171936, Note_on_c, 0, 85, 80
2, 172004, Note_off_c, 0, 80, 100
2, 172032, Note_on_c, 0, 87, 80
2, 172116, Note_off_c, 0, 85, 100
2, 172128, Note_on_c, 0, 83, 80
2, 172196, Note_off_c, 0, 87, 100
2, 172224, Note_on_c, 0, 80, 80
2, 172308, Note_off_c, 0, 83, 100
2, 172320, Note_on_c, 0, 87, 80
2, 172400, Note_off_c, 0, 80, 100
2, 172412, Note_off_c, 0, 87, 100
2, 172416, Note_on_c, 0, 89, 80
2, 172512, Note_on_c, 0, 83, 80
2, 172596, Note_off_c, 0, 89, 100
2, 172608, Note_on_c, 0, 80, 80
2, 172700, Note_off_c, 0, 83, 100
2, 172704, Note_on_c, 0, 89, 80
2, 172784, Note_off_c, 0, 80, 100
2, 172800, Note_on_c, 0, 92, 80
2, 172884, Note_off_c, 0, 89, 100
2, 172896, Note_on_c, 0, 83, 80
2, 172968, Note_off_c, 0, 92, 100
2, 172992, Note_on_c, 0, 80, 80
2, 173084, Note_off_c, 0, 83, 100
2, 173088, Note_on_c, 0, 90, 80
2, 173160, Note_off_c, 0, 80, 100
2, 173184, Note_on_c, 0, 89, 80
2, 173260, Note_off_c, 0, 90, 100
2, 173280, Note_on_c, 0, 83, 80
2, 173352, Note_off_c, 0, 89, 100
2, 173376, Note_on_c, 0, 80, 80
2, 173456, Note_off_c, 0, 83, 100
2, 173472, Note_on_c, 0, 89, 80
2, 173552, Note_off_c, 0, 80, 100
2, 173568, Note_on_c, 0, 92, 80
2, 173648, Note_off_c, 0, 89, 100
2, 173664, Note_on_c, 0, 83, 80
2, 173732, Note_off_c, 0, 92, 100
2, 173760, Note_on_c, 0, 80, 80
2, 173840, Note_off_c, 0, 83, 100
2, 173856, Note_on_c, 0, 90, 80
2, 173936, Note_off_c, 0, 80, 100
2, 173948, Note_off_c, 0, 90, 100
2, 173952, Note_on_c, 0, 89, 80
2, 174048, Note_on_c, 0, 83, 80
2, 174132, Note_off_c, 0, 89, 100
2, 174144, Note_on_c, 0, 80, 80
2, 174236, Note_off_c, 0, 83, 100
2, 174240, Note_on_c, 0, 89, 80
2, 174320, Note_off_c, 0, 80, 100
2, 174336, Note_on_c, 0, 92, 80
2, 174420, Note_off_c, 0, 89, 100
2, 174432, Note_on_c, 0, 83, 80
2, 174524, Note_off_c, 0, 92, 100
2, 174528, Note_on_c, 0, 80, 80
2, 174608, Note_off_c, 0, 83, 100
2, 174624, Note_on_c, 0, 92, 80
2, 174696, Note_off_c, 0, 80, 100
2, 174720, Note_on_c, 0, 85, 80
2, 174812, Note_off_c, 0, 92, 100
2, 174816, Note_on_c, 0, 83, 80
2, 174892, Note_off_c, 0, 85, 100
2, 174912, Note_on_c, 0, 80, 80
2, 174984, Note_off_c, 0, 83, 100
2, 175008, Note_on_c, 0, 85, 80
2, 175076, Note_off_c, 0, 80, 100
2, 175104, Note_on_c, 0, 87, 80
2, 175188, Note_off_c, 0, 85, 100
2, 175200, Note_on_c, 0, 83, 80
2, 175268, Note_off_c, 0, 87, 100
2, 175296, Note_on_c, 0, 80, 80
2, 175380, Note_off_c, 0, 83, 100
2, 175392, Note_on_c, 0, 87, 82
2, 175472, Note_off_c, 0, 80, 100
2, 175484, Note_off_c, 0, 87, 100
2, 175488, Note_on_c, 0, 89, 80
2, 175584, Note_on_c, 0, 85, 80
2, 175676, Note_off_c, 0, 89, 100
2, 175680, Note_on_c, 0, 80, 80
2, 175764, Note_off_c, 0, 85, 100
2, 175776, Note_on_c, 0, 89, 80
2, 175852, Note_off_c, 0, 80, 100
2, 175872, Note_on_c, 0, 90, 80
2, 175944, Note_off_c, 0, 89, 100
2, 175968, Note_on_c, 0, 85, 81
2, 176044, Note_off_c, 0, 90, 100
2, 176064, Note_on_c, 0, 78, 82
2, 176152, Note_off_c, 0, 85, 100
2, 176160, Note_on_c, 0, 90, 83
2, 176240, Note_off_c, 0, 78, 100
2, 176252, Note_off_c, 0, 90, 100
2, 176256, Note_on_c, 0, 90, 84
2, 176352, Note_on_c, 0, 85, 85
2, 176436, Note_off_c, 0, 90, 100
2, 176448, Note_on_c, 0, 78, 86
2, 176532, Note_off_c, 0, 85, 100
2, 176544, Note_on_c, 0, 90, 87
2, 176628, Note_off_c, 0, 78, 100
2, 176636, Note_off_c, 0, 90, 100
2, 176640, Note_on_c, 0, 90, 88
2, 176736, Note_on_c, 0, 85, 89
2, 176824, Note_off_c, 0, 90, 100
2, 176832, Note_on_c, 0, 78, 91
2, 176920, Note_off_c, 0, 85, 100
2, 176928, Note_on_c, 0, 90, 92
2, 177020, Note_off_c, 0, 78, 100
2, 177020, Note_off_c, 0, 90, 100
2, 177024, Note_on_c, 0, 90, 93
2, 177120, Note_on_c, 0, 84, 94
2, 177208, Note_off_c, 0, 90, 100
2, 177216, Note_on_c, 0, 78, 95
2, 177300, Note_off_c, 0, 84, 100
2, 177312, Note_on_c, 0, 90, 96
2, 177400, Note_off_c, 0, 78, 100
2, 177404, Note_off_c, 0, 90, 100
2, 177408, Note_on_c, 0, 90, 97
2, 177504, Note_on_c, 0, 84, 98
2, 177584, Note_off_c, 0, 90, 100
2, 177600, Note_on_c, 0, 78, 99
2, 177668, Note_off_c, 0, 84, 100
2, 177696, Note_on_c, 0, 90, 101
2, 177760, Note_off_c, 0, 78, 100
2, 177788, Note_off_c, 0, 90, 100
2, 177792, Note_on_c, 0, 90, 102
2, 177888, Note_on_c, 0, 84, 103
2, 177964, Note_off_c, 0, 90, 100
2, 177984, Note_on_c, 0, 78, 104
2, 178068, Note_off_c, 0, 84, 100
2, 178080, Note_on_c, 0, 90, 105
2, 178160, Note_off_c, 0, 78, 100
2, 178172, Note_off_c, 0, 90, 100
2, 178176, Note_on_c, 0, 90, 106
2, 178272, Note_on_c, 0, 84, 107
2, 178356, Note_off_c, 0, 90, 100
2, 178368, Note_on_c, 0, 78, 108
2, 178448, Note_off_c, 0, 84, 100
2, 178464, Note_on_c, 0, 90, 109
2, 178544, Note_off_c, 0, 78, 100
2, 178556, Note_off_c, 0, 90, 100
2, 178560, Note_on_c, 0, 90, 110
2, 178656, Note_on_c, 0, 84, 110
2, 178744, Note_off_c, 0, 90, 100
2, 178752, Note_on_c, 0, 78, 110
2, 178836, Note_off_c, 0, 84, 100
2, 178848, Note_on_c, 0, 90, 110
2, 178936, Note_off_c, 0, 78, 100
2, 178940, Note_off_c, 0, 90, 100
2, 178944, Note_on_c, 0, 90, 111
2, 179040, Note_on_c, 0, 84, 111
2, 179120, Note_off_c, 0, 90, 100
2, 179136, Note_on_c, 0, 78, 111
2, 179204, Note_off_c, 0, 84, 100
2, 179232, Note_on_c, 0, 90, 112
2, 179296, Note_off_c, 0, 78, 100
2, 179324, Note_off_c, 0, 90, 100
2, 179328, Note_on_c, 0, 90, 112
2, 179424, Note_on_c, 0, 84, 112
2, 179500, Note_off_c, 0, 90, 100
2, 179520, Note_on_c, 0, 78, 113
2, 179604, Note_off_c, 0, 84, 100
2, 179616, Note_on_c, 0, 90, 113
2, 179696, Note_off_c, 0, 78, 100
2, 179708, Note_off_c, 0, 90, 100
2, 179712, Note_on_c, 0, 90, 113
2, 179808, Note_on_c, 0, 84, 114
2, 179892, Note_off_c, 0, 90, 100
2, 179904, Note_on_c, 0, 78, 114
2, 179984, Note_off_c, 0, 84, 100
2, 180000, Note_on_c, 0, 90, 114
2, 180080, Note_off_c, 0, 78, 100
2, 180092, Note_off_c, 0, 90, 100
2, 180096, Note_on_c, 0, 90, 120
2, 180192, Note_on_c, 0, 83, 120
2, 180272, Note_off_c, 0, 90, 100
2, 180288, Note_on_c, 0, 78, 120
2, 180372, Note_off_c, 0, 83, 100
2, 180384, Note_on_c, 0, 90, 120
2, 180468, Note_off_c, 0, 78, 100
2, 180476, Note_off_c, 0, 90, 100
2, 180480, Note_on_c, 0, 90, 120
2, 180576, Note_on_c, 0, 83, 120
2, 180656, Note_off_c, 0, 90, 100
2, 180672, Note_on_c, 0, 78, 120
2, 180748, Note_off_c, 0, 83, 100
2, 180768, Note_on_c, 0, 90, 120
2, 180860, Note_off_c, 0, 78, 100
2, 180860, Note_off_c, 0, 90, 100
2, 180864, Note_on_c, 0, 89, 120
2, 180960, Note_on_c, 0, 83, 120
2, 181044, Note_off_c, 0, 89, 100
2, 181056, Note_on_c, 0, 77, 120
2, 181144, Note_off_c, 0, 83, 100
2, 181152, Note_on_c, 0, 89, 120
2, 181240, Note_off_c, 0, 77, 100
2, 181244, Note_off_c, 0, 89, 100
2, 181248, Note_on_c, 0, 89, 120
2, 181344, Note_on_c, 0, 83, 120
2, 181420, Note_off_c, 0, 89, 100
2, 181440, Note_on_c, 0, 77, 120
2, 181516, Note_off_c, 0, 83, 100
2, 181536, Note_on_c, 0, 89, 120
2, 181620, Note_off_c, 0, 77, 100
2, 181628, Note_off_c, 0, 89, 100
2, 181632, Note_on_c, 0, 90, 120
2, 181632, Note_on_c, 0, 82, 120
2, 181632, Note_on_c, 0, 78, 120
2, 182012, Note_off_c, 0, 90, 100
2, 182012, Note_off_c, 0, 82, 100
2, 182012, Note_off_c, 0, 78, 100
2, 182400, Note_on_c, 0, 82, 80
2, 182524, Note_off_c, 0, 82, 100
2, 182528, Note_on_c, 0, 78, 80
2, 182652, Note_off_c, 0, 78, 100
2, 182656, Note_on_c, 0, 73, 80
2, 182780, Note_off_c, 0, 73, 100
2, 182784, Note_on_c, 0, 75, 80
2, 182908, Note_off_c, 0, 75, 100
2, 182912, Note_on_c, 0, 78, 80
2, 183036, Note_off_c, 0, 78, 100
2, 183040, Note_on_c, 0, 75, 80
2, 183164, Note_off_c, 0, 75, 100
2, 183168, Note_on_c, 0, 73, 80
2, 183292, Note_off_c, 0, 73, 100
2, 183296, Note_on_c, 0, 78, 80
2, 183420, Note_off_c, 0, 78, 100
2, 183424, Note_on_c, 0, 80, 80
2, 183548, Note_off_c, 0, 80, 100
2, 183552, Note_on_c, 0, 82, 80
2, 183676, Note_off_c, 0, 82, 100
2, 183680, Note_on_c, 0, 78, 80
2, 183804, Note_off_c, 0, 78, 100
2, 183808, Note_on_c, 0, 85, 80
2, 183932, Note_off_c, 0, 85, 100
2, 183936, Note_on_c, 0, 82, 80
2, 184060, Note_off_c, 0, 82, 100
2, 184064, Note_on_c, 0, 78, 80
2, 184188, Note_off_c, 0, 78, 100
2, 184192, Note_on_c, 0, 73, 80
2, 184316, Note_off_c, 0, 73, 100
2, 184320, Note_on_c, 0, 71, 80
2, 184444, Note_off_c, 0, 71, 100
2, 184448, Note_on_c, 0, 68, 80
2, 184572, Note_off_c, 0, 68, 100
2, 184576, Note_on_c, 0, 73, 80
2, 184700, Note_off_c, 0, 73, 100
2, 184704, Note_on_c, 0, 70, 80
2, 185084, Note_off_c, 0, 70, 100
2, 185088, Note_on_c, 0, 73, 80
2, 185212, Note_off_c, 0, 73, 100
2, 185216, Note_on_c, 0, 78, 82
2, 185340, Note_off_c, 0, 78, 100
2, 185344, Note_on_c, 0, 80, 84
2, 185468, Note_off_c, 0, 80, 100
2, 185472, Note_on_c, 0, 82, 86
2, 185596, Note_off_c, 0, 82, 100
2, 185600, Note_on_c, 0, 78, 88
2, 185724, Note_off_c, 0, 78, 100
2, 185728, Note_on_c, 0, 73, 90
2, 185852, Note_off_c, 0, 73, 100
2, 185856, Note_on_c, 0, 75, 92
2, 185980, Note_off_c, 0, 75, 100
2, 185984, Note_on_c, 0, 78, 94
2, 186108, Note_off_c, 0, 78, 100
2, 186112, Note_on_c, 0, 75, 97
2, 186236, Note_off_c, 0, 75, 100
2, 186240, Note_on_c, 0, 73, 99
2, 186364, Note_off_c, 0, 73, 100
2, 186368, Note_on_c, 0, 78, 101
2, 186492, Note_off_c, 0, 78, 100
2, 186496, Note_on_c, 0, 80, 103
2, 186620, Note_off_c, 0, 80, 100
2, 186624, Note_on_c, 0, 82, 105
2, 186748, Note_off_c, 0, 82, 100
2, 186752, Note_on_c, 0, 78, 107
2, 186876, Note_off_c, 0, 78, 100
2, 186880, Note_on_c, 0, 85, 109
2, 187004, Note_off_c, 0, 85, 100
2, 187008, Note_on_c, 0, 79, 110
2, 187008, Note_on_c, 0, 75, 110
2, 187008, Note_on_c, 0, 73, 110
2, 187388, Note_off_c, 0, 79, 100
2, 187388, Note_off_c, 0, 75, 100
2, 187388, Note_off_c, 0, 73, 100
2, 187392, Note_on_c, 0, 80, 110
2, 187392, Note_on_c, 0, 75, 110
2, 187392, Note_on_c, 0, 71, 110
2, 187772, Note_off_c, 0, 80, 100
2, 187772, Note_off_c, 0, 75, 100
2, 187772, Note_off_c, 0, 71, 100
2, 187776, Note_on_c, 0, 77, 110
2, 187776, Note_on_c, 0, 73, 110
2, 187776, Note_on_c, 0, 71, 110
2, 188540, Note_off_c, 0, 77, 100
2, 188540, Note_off_c, 0, 73, 100
2, 188540, Note_off_c, 0, 71, 100
2, 188544, Note_on_c, 0, 71, 80
2, 188636, Note_off_c, 0, 71, 100
2, 188640, Note_on_c, 0, 73, 80
2, 188732, Note_off_c, 0, 73, 100
2, 188736, Note_on_c, 0, 71, 80
2, 188828, Note_off_c, 0, 71, 100
2, 188832, Note_on_c, 0, 70, 80
2, 188924, Note_off_c, 0, 70, 100
2, 188928, Note_on_c, 0, 71, 80
2, 189020, Note_off_c, 0, 71, 100
2, 189024, Note_on_c, 0, 80, 80
2, 189116, Note_off_c, 0, 80, 100
2, 189120, Note_on_c, 0, 78, 80
2, 189212, Note_off_c, 0, 78, 100
2, 189216, Note_on_c, 0, 77, 80
2, 189308, Note_off_c, 0, 77, 100
2, 189312, Note_on_c, 0, 78, 80
2, 189404, Note_off_c, 0, 78, 100
2, 189408, Note_on_c, 0, 73, 80
2, 189500, Note_off_c, 0, 73, 100
2, 189504, Note_on_c, 0, 70, 80
2, 189596, Note_off_c, 0, 70, 100
2, 189600, Note_on_c, 0, 73, 80
2, 189692, Note_off_c, 0, 73, 100
2, 189696, Note_on_c, 0, 78, 80
2, 189788, Note_off_c, 0, 78, 100
2, 189792, Note_on_c, 0, 82, 80
2, 189884, Note_off_c, 0, 82, 100
2, 189888, Note_on_c, 0, 85, 80
2, 189980, Note_off_c, 0, 85, 100
2, 189984, Note_on_c, 0, 90, 80
2, 190076, Note_off_c, 0, 90, 100
2, 190080, Note_on_c, 0, 91, 110
2, 190080, Note_on_c, 0, 87, 110
2, 190080, Note_on_c, 0, 85, 110
2, 190080, Note_on_c, 0, 82, 110
2, 190080, Note_on_c, 0, 79, 110
2, 190460, Note_off_c, 0, 91, 100
2, 190460, Note_off_c, 0, 87, 100
2, 190460, Note_off_c, 0, 85, 100
2, 190460, Note_off_c, 0, 82, 100
2, 190460, Note_off_c, 0, 79, 100
2, 190464, Note_on_c, 0, 92, 110
2, 190464, Note_on_c, 0, 87, 110
2, 190464, Note_on_c, 0, 83, 110
2, 190464, Note_on_c, 0, 80, 110
2, 190844, Note_off_c, 0, 92, 100
2, 190844, Note_off_c, 0, 87, 100
2, 190844, Note_off_c, 0, 83, 100
2, 190844, Note_off_c, 0, 80, 100
2, 190848, Note_on_c, 0, 85, 110
2, 190848, Note_on_c, 0, 89, 110
2, 190848, Note_on_c, 0, 80, 110
2, 190848, Note_on_c, 0, 77, 110
2, 190848, Note_on_c, 0, 83, 110
2, 191612, Note_off_c, 0, 85, 100
2, 191612, Note_off_c, 0, 89, 100
2, 191612, Note_off_c, 0, 80, 100
2, 191612, Note_off_c, 0, 77, 100
2, 191612, Note_off_c, 0, 83, 100
2, 191616, Note_on_c, 0, 83, 80
2, 191708, Note_off_c, 0, 83, 100
2, 191712, Note_on_c, 0, 85, 80
2, 191804, Note_off_c, 0, 85, 100
2, 191808, Note_on_c, 0, 83, 80
2, 191900, Note_off_c, 0, 83, 100
2, 191904, Note_on_c, 0, 82, 80
2, 191996, Note_off_c, 0, 82, 100
2, 192000, Note_on_c, 0, 83, 80
2, 192092, Note_off_c, 0, 83, 100
2, 192096, Note_on_c, 0, 92, 80
2, 192188, Note_off_c, 0, 92, 100
2, 192192, Note_on_c, 0, 90, 80
2, 192284, Note_off_c, 0, 90, 100
2, 192288, Note_on_c, 0, 89, 80
2, 192380, Note_off_c, 0, 89, 100
2, 192384, Note_on_c, 0, 90, 80
2, 192476, Note_off_c, 0, 90, 100
2, 192480, Note_on_c, 0, 85, 80
2, 192572, Note_off_c, 0, 85, 100
2, 192576, Note_on_c, 0, 82, 80
2, 192668, Note_off_c, 0, 82, 100
2, 192672, Note_on_c, 0, 78, 80
2, 192764, Note_off_c, 0, 78, 100
2, 192768, Note_on_c, 0, 73, 80
2, 192860, Note_off_c, 0, 73, 100
2, 192864, Note_on_c, 0, 78, 80
2, 192956, Note_off_c, 0, 78, 100
2, 192960, Note_on_c, 0, 73, 80
2, 193052, Note_off_c, 0, 73, 100
2, 193056, Note_on_c, 0, 70, 80
2, 193148, Note_off_c, 0, 70, 100
2, 193152, Note_on_c, 0, 71, 80
2, 193244, Note_off_c, 0, 71, 100
2, 193248, Note_on_c, 0, 73, 80
2, 193340, Note_off_c, 0, 73, 100
2, 193344, Note_on_c, 0, 71, 80
2, 193436, Note_off_c, 0, 71, 100
2, 193440, Note_on_c, 0, 70, 80
2, 193532, Note_off_c, 0, 70, 100
2, 193536, Note_on_c, 0, 71, 80
2, 193628, Note_off_c, 0, 71, 100
2, 193632, Note_on_c, 0, 80, 80
2, 193724, Note_off_c, 0, 80, 100
2, 193728, Note_on_c, 0, 78, 80
2, 193820, Note_off_c, 0, 78, 100
2, 193824, Note_on_c, 0, 77, 80
2, 193916, Note_off_c, 0, 77, 100
2, 193920, Note_on_c, 0, 78, 80
2, 194012, Note_off_c, 0, 78, 100
2, 194016, Note_on_c, 0, 73, 80
2, 194108, Note_off_c, 0, 73, 100
2, 194112, Note_on_c, 0, 70, 80
2, 194204, Note_off_c, 0, 70, 100
2, 194208, Note_on_c, 0, 66, 80
2, 194300, Note_off_c, 0, 66, 100
2, 194304, Note_on_c, 0, 61, 80
2, 194396, Note_off_c, 0, 61, 100
2, 194400, Note_on_c, 0, 66, 80
2, 194492, Note_off_c, 0, 66, 100
2, 194496, Note_on_c, 0, 61, 80
2, 194588, Note_off_c, 0, 61, 100
2, 194592, Note_on_c, 0, 58, 80
2, 194684, Note_off_c, 0, 58, 100
2, 195072, Note_on_c, 0, 71, 80
2, 195072, Note_on_c, 0, 68, 80
2, 195072, Note_on_c, 0, 65, 80
2, 195072, Note_on_c, 0, 61, 80
2, 195452, Note_off_c, 0, 71, 100
2, 195452, Note_off_c, 0, 68, 100
2, 195452, Note_off_c, 0, 65, 100
2, 195452, Note_off_c, 0, 61, 100
2, 195840, Note_on_c, 0, 71, 80
2, 195840, Note_on_c, 0, 68, 80
2, 195840, Note_on_c, 0, 65, 80
2, 196220, Note_off_c, 0, 71, 100
2, 196220, Note_off_c, 0, 68, 100
2, 196220, Note_off_c, 0, 65, 100
2, 196608, Note_on_c, 0, 73, 80
2, 196608, Note_on_c, 0, 71, 80
2, 196608, Note_on_c, 0, 68, 80
2, 196608, Note_on_c, 0, 65, 80
2, 196988, Note_off_c, 0, 73, 100
2, 196988, Note_off_c, 0, 71, 100
2, 196988, Note_off_c, 0, 68, 100
2, 196988, Note_off_c, 0, 65, 100
2, 197376, Note_on_c, 0, 73, 80
2, 197376, Note_on_c, 0, 70, 80
2, 197376, Note_on_c, 0, 66, 80
2, 197756, Note_off_c, 0, 73, 100
2, 197756, Note_off_c, 0, 70, 100
2, 197756, Note_off_c, 0, 66, 100
2, 198144, Note_on_c, 0, 70, 80
2, 198428, Note_off_c, 0, 70, 100
2, 198432, Note_on_c, 0, 71, 80
2, 198524, Note_off_c, 0, 71, 100
2, 198912, Note_on_c, 0, 73, 80
2, 198912, Note_on_c, 0, 70, 80
2, 198912, Note_on_c, 0, 66, 80
2, 198912, Note_on_c, 0, 64, 80
2, 199292, Note_off_c, 0, 73, 100
2, 199292, Note_off_c, 0, 70, 100
2, 199292, Note_off_c, 0, 66, 100
2, 199292, Note_off_c, 0, 64, 100
2, 199680, Note_on_c, 0, 70, 80
2, 199680, Note_on_c, 0, 58, 80
2, 199964, Note_off_c, 0, 70, 100
2, 199964, Note_off_c, 0, 58, 100
2, 199968, Note_on_c, 0, 71, 80
2, 199968, Note_on_c, 0, 59, 80
2, 200060, Note_off_c, 0, 71, 100
2, 200060, Note_off_c, 0, 59, 100
2, 200064, Note_on_c, 0, 73, 80
2, 200064, Note_on_c, 0, 64, 80
2, 200064, Note_on_c, 0, 61, 80
2, 200444, Note_off_c, 0, 73, 100
2, 200444, Note_off_c, 0, 64, 100
2, 200444, Note_off_c, 0, 61, 100
2, 200448, Note_on_c, 0, 66, 83
2, 200448, Note_on_c, 0, 64, 83
2, 200448, Note_on_c, 0, 61, 83
2, 200828, Note_off_c, 0, 66, 100
2, 200828, Note_off_c, 0, 64, 100
2, 200828, Note_off_c, 0, 61, 100
2, 200832, Note_on_c, 0, 67, 87
2, 200832, Note_on_c, 0, 64, 87
2, 200832, Note_on_c, 0, 61, 87
2, 201212, Note_off_c, 0, 67, 100
2, 201212, Note_off_c, 0, 64, 100
2, 201212, Note_off_c, 0, 61, 100
2, 201216, Note_on_c, 0, 66, 90
2, 201216, Note_on_c, 0, 64, 90
2, 201216, Note_on_c, 0, 61, 90
2, 201596, Note_off_c, 0, 66, 100
2, 201596, Note_off_c, 0, 64, 100
2, 201596, Note_off_c, 0, 61, 100
2, 201600, Note_on_c, 0, 76, 94
2, 201600, Note_on_c, 0, 67, 94
2, 201600, Note_on_c, 0, 64, 94
2, 201980, Note_off_c, 0, 76, 100
2, 201980, Note_off_c, 0, 67, 100
2, 201980, Note_off_c, 0, 64, 100
2, 201984, Note_on_c, 0, 73, 97
2, 201984, Note_on_c, 0, 66, 97
2, 201984, Note_on_c, 0, 64, 97
2, 202364, Note_off_c, 0, 73, 100
2, 202364, Note_off_c, 0, 66, 100
2, 202364, Note_off_c, 0, 64, 100
2, 202368, Note_on_c, 0, 74, 101
2, 202368, Note_on_c, 0, 66, 101
2, 202368, Note_on_c, 0, 62, 101
2, 202748, Note_off_c, 0, 74, 100
2, 202748, Note_off_c, 0, 66, 100
2, 202748, Note_off_c, 0, 62, 100
2, 202752, Note_on_c, 0, 71, 105
2, 202752, Note_on_c, 0, 66, 105
2, 202752, Note_on_c, 0, 62, 105
2, 203132, Note_off_c, 0, 71, 100
2, 203132, Note_off_c, 0, 66, 100
2, 203132, Note_off_c, 0, 62, 100
2, 203136, Note_on_c, 0, 83, 108
2, 203136, Note_on_c, 0, 74, 108
2, 203136, Note_on_c, 0, 71, 108
2, 203516, Note_off_c, 0, 83, 100
2, 203516, Note_off_c, 0, 74, 100
2, 203516, Note_off_c, 0, 71, 100
2, 203520, Note_on_c, 0, 80, 112
2, 203520, Note_on_c, 0, 74, 112
2, 203520, Note_on_c, 0, 71, 112
2, 203900, Note_off_c, 0, 80, 100
2, 203900, Note_off_c, 0, 74, 100
2, 203900, Note_off_c, 0, 71, 100
2, 203904, Note_on_c, 0, 86, 110
2, 203904, Note_on_c, 0, 83, 110
2, 203904, Note_on_c, 0, 80, 110
2, 204284, Note_off_c, 0, 86, 100
2, 204284, Note_off_c, 0, 83, 100
2, 204284, Note_off_c, 0, 80, 100
2, 204288, Note_on_c, 0, 85, 99
2, 204288, Note_on_c, 0, 83, 99
2, 204288, Note_on_c, 0, 80, 99
2, 204668, Note_off_c, 0, 85, 100
2, 204668, Note_off_c, 0, 83, 100
2, 204668, Note_off_c, 0, 80, 100
2, 205056, Note_on_c, 0, 85, 80
2, 205056, Note_on_c, 0, 83, 80
2, 205056, Note_on_c, 0, 80, 80
2, 205436, Note_off_c, 0, 85, 100
2, 205436, Note_off_c, 0, 83, 100
2, 205436, Note_off_c, 0, 80, 100
2, 205824, Note_on_c, 0, 85, 80
2, 205824, Note_on_c, 0, 82, 80
2, 206204, Note_off_c, 0, 85, 100
2, 206204, Note_off_c, 0, 82, 100
2, 206592, Note_on_c, 0, 85, 80
2, 206592, Note_on_c, 0, 82, 80
2, 206972, Note_off_c, 0, 85, 100
2, 206972, Note_off_c, 0, 82, 100
2, 207360, Note_on_c, 0, 85, 80
2, 207360, Note_on_c, 0, 82, 80
2, 207740, Note_off_c, 0, 85, 100
2, 207740, Note_off_c, 0, 82, 100
2, 208128, Note_on_c, 0, 90, 110
2, 208128, Note_on_c, 0, 85, 110
2, 208128, Note_on_c, 0, 82, 110
2, 208128, Note_on_c, 0, 78, 110
2, 208508, Note_off_c, 0, 90, 100
2, 208508, Note_off_c, 0, 85, 100
2, 208508, Note_off_c, 0, 82, 100
2, 208508, Note_off_c, 0, 78, 100
2, 208512, Note_on_c, 0, 90, 110
2, 208512, Note_on_c, 0, 85, 110
2, 208512, Note_on_c, 0, 82, 110
2, 208512, Note_on_c, 0, 78, 110
2, 208892, Note_off_c, 0, 90, 100
2, 208892, Note_off_c, 0, 85, 100
2, 208892, Note_off_c, 0, 82, 100
2, 208892, Note_off_c, 0, 78, 100
2, 208896, Note_on_c, 0, 90, 110
2, 208896, Note_on_c, 0, 85, 110
2, 208896, Note_on_c, 0, 82, 110
2, 208896, Note_on_c, 0, 78, 110
2, 209276, Note_off_c, 0, 90, 100
2, 209276, Note_off_c, 0, 85, 100
2, 209276, Note_off_c, 0, 82, 100
2, 209276, Note_off_c, 0, 78, 100
2, 209280, Note_on_c, 0, 90, 110
2, 209280, Note_on_c, 0, 85, 110
2, 209280, Note_on_c, 0, 82, 110
2, 209280, Note_on_c, 0, 78, 110
2, 209660, Note_off_c, 0, 90, 100
2, 209660, Note_off_c, 0, 85, 100
2, 209660, Note_off_c, 0, 82, 100
2, 209660, Note_off_c, 0, 78, 100
2, 210432, Note_on_c, 0, 69, 80
2, 210716, Note_off_c, 0, 69, 100
2, 210720, Note_on_c, 0, 71, 80
2, 210812, Note_off_c, 0, 71, 100
2, 210816, Note_on_c, 0, 73, 80
2, 211196, Note_off_c, 0, 73, 100
2, 211200, Note_on_c, 0, 66, 80
2, 211200, Note_on_c, 0, 61, 80
2, 211580, Note_off_c, 0, 66, 100
2, 211580, Note_off_c, 0, 61, 100
2, 211584, Note_on_c, 0, 65, 80
2, 211584, Note_on_c, 0, 61, 80
2, 211964, Note_off_c, 0, 65, 100
2, 211964, Note_off_c, 0, 61, 100
2, 211968, Note_on_c, 0, 66, 80
2, 211968, Note_on_c, 0, 61, 80
2, 212348, Note_off_c, 0, 66, 100
2, 212348, Note_off_c, 0, 61, 100
2, 212352, Note_on_c, 0, 74, 80
2, 212352, Note_on_c, 0, 66, 80
2, 212352, Note_on_c, 0, 62, 80
2, 213500, Note_off_c, 0, 74, 100
2, 213500, Note_off_c, 0, 66, 100
2, 213500, Note_off_c, 0, 62, 100
2, 213504, Note_on_c, 0, 74, 89
2, 213504, Note_on_c, 0, 66, 89
2, 213504, Note_on_c, 0, 62, 89
2, 213884, Note_off_c, 0, 74, 100
2, 213884, Note_off_c, 0, 66, 100
2, 213884, Note_off_c, 0, 62, 100
2, 213888, Note_on_c, 0, 71, 93
2, 213888, Note_on_c, 0, 74, 93
2, 213936, Note_on_c, 0, 76, 93
2, 213980, Note_off_c, 0, 74, 100
2, 213984, Note_on_c, 0, 74, 94
2, 214028, Note_off_c, 0, 76, 100
2, 214032, Note_on_c, 0, 76, 94
2, 214076, Note_off_c, 0, 74, 100
2, 214080, Note_on_c, 0, 74, 94
2, 214124, Note_off_c, 0, 76, 100
2, 214128, Note_on_c, 0, 76, 95
2, 214172, Note_off_c, 0, 74, 100
2, 214176, Note_on_c, 0, 74, 95
2, 214220, Note_off_c, 0, 76, 100
2, 214224, Note_on_c, 0, 76, 96
2, 214268, Note_off_c, 0, 74, 100
2, 214272, Note_on_c, 0, 74, 96
2, 214316, Note_off_c, 0, 76, 100
2, 214320, Note_on_c, 0, 76, 97
2, 214364, Note_off_c, 0, 74, 100
2, 214368, Note_on_c, 0, 74, 97
2, 214412, Note_off_c, 0, 76, 100
2, 214416, Note_on_c, 0, 76, 97
2, 214460, Note_off_c, 0, 74, 100
2, 214464, Note_on_c, 0, 74, 98
2, 214508, Note_off_c, 0, 76, 100
2, 214512, Note_on_c, 0, 76, 98
2, 214556, Note_off_c, 0, 74, 100
2, 214560, Note_on_c, 0, 73, 99
2, 214604, Note_off_c, 0, 76, 100
2, 214608, Note_on_c, 0, 74, 99
2, 214652, Note_off_c, 0, 71, 100
2, 214652, Note_off_c, 0, 73, 100
2, 214652, Note_off_c, 0, 74, 100
2, 214656, Note_on_c, 0, 76, 99
2, 214656, Note_on_c, 0, 68, 99
2, 215036, Note_off_c, 0, 68, 100
2, 215040, Note_on_c, 0, 64, 80
2, 215228, Note_off_c, 0, 76, 100
2, 215232, Note_on_c, 0, 71, 80
2, 215420, Note_off_c, 0, 64, 100
2, 215420, Note_off_c, 0, 71, 100
2, 215424, Note_on_c, 0, 73, 80
2, 215516, Note_off_c, 0, 73, 100
2, 215520, Note_on_c, 0, 76, 80
2, 215612, Note_off_c, 0, 76, 100
2, 215616, Note_on_c, 0, 73, 80
2, 215708, Note_off_c, 0, 73, 100
2, 215712, Note_on_c, 0, 76, 80
2, 215804, Note_off_c, 0, 76, 100
2, 215808, Note_on_c, 0, 73, 80
2, 215900, Note_off_c, 0, 73, 100
2, 215904, Note_on_c, 0, 76, 80
2, 215996, Note_off_c, 0, 76, 100
2, 216000, Note_on_c, 0, 73, 80
2, 216092, Note_off_c, 0, 73, 100
2, 216096, Note_on_c, 0, 76, 80
2, 216188, Note_off_c, 0, 76, 100
2, 216192, Note_on_c, 0, 73, 80
2, 216284, Note_off_c, 0, 73, 100
2, 216288, Note_on_c, 0, 76, 80
2, 216380, Note_off_c, 0, 76, 100
2, 216384, Note_on_c, 0, 73, 80
2, 216476, Note_off_c, 0, 73, 100
2, 216480, Note_on_c, 0, 76, 80
2, 216572, Note_off_c, 0, 76, 100
2, 216576, Note_on_c, 0, 73, 80
2, 216668, Note_off_c, 0, 73, 100
2, 216672, Note_on_c, 0, 76, 80
2, 216764, Note_off_c, 0, 76, 100
2, 216768, Note_on_c, 0, 73, 80
2, 216860, Note_off_c, 0, 73, 100
2, 216864, Note_on_c, 0, 76, 80
2, 216956, Note_off_c, 0, 76, 100
2, 216960, Note_on_c, 0, 73, 80
2, 217052, Note_off_c, 0, 73, 100
2, 217056, Note_on_c, 0, 75, 80
2, 217148, Note_off_c, 0, 75, 100
2, 217152, Note_on_c, 0, 73, 80
2, 217244, Note_off_c, 0, 73, 100
2, 217248, Note_on_c, 0, 75, 80
2, 217340, Note_off_c, 0, 75, 100
2, 217344, Note_on_c, 0, 71, 80
2, 217436, Note_off_c, 0, 71, 100
2, 217440, Note_on_c, 0, 75, 80
2, 217532, Note_off_c, 0, 75, 100
2, 217536, Note_on_c, 0, 71, 80
2, 217628, Note_off_c, 0, 71, 100
2, 217632, Note_on_c, 0, 75, 80
2, 217724, Note_off_c, 0, 75, 100
2, 217728, Note_on_c, 0, 71, 80
2, 217820, Note_off_c, 0, 71, 100
2, 217824, Note_on_c, 0, 75, 80
2, 217916, Note_off_c, 0, 75, 100
2, 217920, Note_on_c, 0, 71, 80
2, 218012, Note_off_c, 0, 71, 100
2, 218016, Note_on_c, 0, 75, 80
2, 218108, Note_off_c, 0, 75, 100
2, 218112, Note_on_c, 0, 71, 80
2, 218112, Note_on_c, 0, 83, 111
2, 218204, Note_off_c, 0, 71, 100
2, 218208, Note_on_c, 0, 75, 80
2, 218300, Note_off_c, 0, 75, 100
2, 218304, Note_on_c, 0, 71, 80
2, 218396, Note_off_c, 0, 83, 100
2, 218396, Note_off_c, 0, 71, 100
2, 218400, Note_on_c, 0, 85, 111
2, 218492, Note_off_c, 0, 85, 100
2, 218496, Note_on_c, 0, 87, 110
2, 218496, Note_on_c, 0, 75, 110
2, 218876, Note_off_c, 0, 87, 100
2, 218876, Note_off_c, 0, 75, 100
2, 218880, Note_on_c, 0, 80, 110
2, 218880, Note_on_c, 0, 68, 110
2, 219260, Note_off_c, 0, 80, 100
2, 219260, Note_off_c, 0, 68, 100
2, 219264, Note_on_c, 0, 79, 110
2, 219264, Note_on_c, 0, 67, 110
2, 219644, Note_off_c, 0, 79, 100
2, 219644, Note_off_c, 0, 67, 100
2, 219648, Note_on_c, 0, 80, 110
2, 219648, Note_on_c, 0, 68, 110
2, 220028, Note_off_c, 0, 80, 100
2, 220028, Note_off_c, 0, 68, 100
2, 220032, Note_on_c, 0, 80, 80
2, 220124, Note_off_c, 0, 80, 100
2, 220128, Note_on_c, 0, 83, 80
2, 220220, Note_off_c, 0, 83, 100
2, 220224, Note_on_c, 0, 82, 80
2, 220316, Note_off_c, 0, 82, 100
2, 220320, Note_on_c, 0, 80, 80
2, 220412, Note_off_c, 0, 80, 100
2, 220416, Note_on_c, 0, 80, 80
2, 220508, Note_off_c, 0, 80, 100
2, 220512, Note_on_c, 0, 83, 80
2, 220604, Note_off_c, 0, 83, 100
2, 220608, Note_on_c, 0, 82, 80
2, 220700, Note_off_c, 0, 82, 100
2, 220704, Note_on_c, 0, 80, 80
2, 220796, Note_off_c, 0, 80, 100
2, 220800, Note_on_c, 0, 80, 80
2, 220892, Note_off_c, 0, 80, 100
2, 220896, Note_on_c, 0, 83, 80
2, 220988, Note_off_c, 0, 83, 100
2, 220992, Note_on_c, 0, 82, 80
2, 221084, Note_off_c, 0, 82, 100
2, 221088, Note_on_c, 0, 80, 80
2, 221180, Note_off_c, 0, 80, 100
2, 221184, Note_on_c, 0, 80, 80
2, 221276, Note_off_c, 0, 80, 100
2, 221280, Note_on_c, 0, 83, 80
2, 221372, Note_off_c, 0, 83, 100
2, 221376, Note_on_c, 0, 82, 80
2, 221468, Note_off_c, 0, 82, 100
2, 221472, Note_on_c, 0, 80, 80
2, 221564, Note_off_c, 0, 80, 100
2, 221568, Note_on_c, 0, 80, 80
2, 221660, Note_off_c, 0, 80, 100
2, 221664, Note_on_c, 0, 83, 80
2, 221756, Note_off_c, 0, 83, 100
2, 221760, Note_on_c, 0, 82, 80
2, 221852, Note_off_c, 0, 82, 100
2, 221856, Note_on_c, 0, 80, 80
2, 221948, Note_off_c, 0, 80, 100
2, 221952, Note_on_c, 0, 83, 80
2, 222044, Note_off_c, 0, 83, 100
2, 222048, Note_on_c, 0, 80, 80
2, 222140, Note_off_c, 0, 80, 100
2, 222144, Note_on_c, 0, 78, 80
2, 222236, Note_off_c, 0, 78, 100
2, 222240, Note_on_c, 0, 77, 80
2, 222332, Note_off_c, 0, 77, 100
2, 222336, Note_on_c, 0, 83, 80
2, 222428, Note_off_c, 0, 83, 100
2, 222432, Note_on_c, 0, 80, 80
2, 222524, Note_off_c, 0, 80, 100
2, 222528, Note_on_c, 0, 78, 80
2, 222620, Note_off_c, 0, 78, 100
2, 222624, Note_on_c, 0, 77, 80
2, 222716, Note_off_c, 0, 77, 100
2, 222720, Note_on_c, 0, 82, 80
2, 222812, Note_off_c, 0, 82, 100
2, 222816, Note_on_c, 0, 80, 80
2, 222908, Note_off_c, 0, 80, 100
2, 222912, Note_on_c, 0, 78, 80
2, 223004, Note_off_c, 0, 78, 100
2, 223008, Note_on_c, 0, 77, 80
2, 223100, Note_off_c, 0, 77, 100
2, 223104, Note_on_c, 0, 78, 80
2, 223196, Note_off_c, 0, 78, 100
2, 223200, Note_on_c, 0, 82, 80
2, 223292, Note_off_c, 0, 82, 100
2, 223296, Note_on_c, 0, 80, 80
2, 223388, Note_off_c, 0, 80, 100
2, 223392, Note_on_c, 0, 78, 80
2, 223484, Note_off_c, 0, 78, 100
2, 223488, Note_on_c, 0, 80, 80
2, 223580, Note_off_c, 0, 80, 100
2, 223584, Note_on_c, 0, 78, 80
2, 223676, Note_off_c, 0, 78, 100
2, 223680, Note_on_c, 0, 77, 80
2, 223772, Note_off_c, 0, 77, 100
2, 223776, Note_on_c, 0, 75, 80
2, 223868, Note_off_c, 0, 75, 100
2, 223872, Note_on_c, 0, 74, 80
2, 223964, Note_off_c, 0, 74, 100
2, 223968, Note_on_c, 0, 77, 80
2, 224060, Note_off_c, 0, 77, 100
2, 224064, Note_on_c, 0, 75, 80
2, 224156, Note_off_c, 0, 75, 100
2, 224160, Note_on_c, 0, 74, 80
2, 224252, Note_off_c, 0, 74, 100
2, 224256, Note_on_c, 0, 82, 80
2, 224348, Note_off_c, 0, 82, 100
2, 224352, Note_on_c, 0, 80, 80
2, 224444, Note_off_c, 0, 80, 100
2, 224448, Note_on_c, 0, 78, 80
2, 224540, Note_off_c, 0, 78, 100
2, 224544, Note_on_c, 0, 77, 80
2, 224636, Note_off_c, 0, 77, 100
2, 224640, Note_on_c, 0, 78, 80
2, 224732, Note_off_c, 0, 78, 100
2, 224736, Note_on_c, 0, 82, 80
2, 224828, Note_off_c, 0, 82, 100
2, 224832, Note_on_c, 0, 80, 80
2, 224924, Note_off_c, 0, 80, 100
2, 224928, Note_on_c, 0, 78, 80
2, 225020, Note_off_c, 0, 78, 100
2, 225024, Note_on_c, 0, 80, 80
2, 225116, Note_off_c, 0, 80, 100
2, 225120, Note_on_c, 0, 78, 80
2, 225212, Note_off_c, 0, 78, 100
2, 225216, Note_on_c, 0, 77, 80
2, 225308, Note_off_c, 0, 77, 100
2, 225312, Note_on_c, 0, 75, 80
2, 225404, Note_off_c, 0, 75, 100
2, 225408, Note_on_c, 0, 72, 80
2, 225500, Note_off_c, 0, 72, 100
2, 225504, Note_on_c, 0, 75, 80
2, 225596, Note_off_c, 0, 75, 100
2, 225600, Note_on_c, 0, 73, 80
2, 225692, Note_off_c, 0, 73, 100
2, 225696, Note_on_c, 0, 72, 80
2, 225788, Note_off_c, 0, 72, 100
2, 225792, Note_on_c, 0, 80, 80
2, 225884, Note_off_c, 0, 80, 100
2, 225888, Note_on_c, 0, 78, 80
2, 225980, Note_off_c, 0, 78, 100
2, 225984, Note_on_c, 0, 76, 80
2, 226076, Note_off_c, 0, 76, 100
2, 226080, Note_on_c, 0, 75, 80
2, 226172, Note_off_c, 0, 75, 100
2, 226176, Note_on_c, 0, 76, 80
2, 226268, Note_off_c, 0, 76, 100
2, 226272, Note_on_c, 0, 80, 80
2, 226364, Note_off_c, 0, 80, 100
2, 226368, Note_on_c, 0, 78, 80
2, 226460, Note_off_c, 0, 78, 100
2, 226464, Note_on_c, 0, 76, 80
2, 226556, Note_off_c, 0, 76, 100
2, 226560, Note_on_c, 0, 78, 80
2, 226652, Note_off_c, 0, 78, 100
2, 226656, Note_on_c, 0, 76, 80
2, 226748, Note_off_c, 0, 76, 100
2, 226752, Note_on_c, 0, 75, 80
2, 226844, Note_off_c, 0, 75, 100
2, 226848, Note_on_c, 0, 73, 80
2, 226940, Note_off_c, 0, 73, 100
2, 226944, Note_on_c, 0, 72, 80
2, 227036, Note_off_c, 0, 72, 100
2, 227040, Note_on_c, 0, 75, 80
2, 227132, Note_off_c, 0, 75, 100
2, 227136, Note_on_c, 0, 73, 80
2, 227228, Note_off_c, 0, 73, 100
2, 227232, Note_on_c, 0, 72, 80
2, 227324, Note_off_c, 0, 72, 100
2, 227328, Note_on_c, 0, 80, 80
2, 227420, Note_off_c, 0, 80, 100
2, 227424, Note_on_c, 0, 78, 80
2, 227516, Note_off_c, 0, 78, 100
2, 227520, Note_on_c, 0, 76, 80
2, 227612, Note_off_c, 0, 76, 100
2, 227616, Note_on_c, 0, 75, 80
2, 227708, Note_off_c, 0, 75, 100
2, 227712, Note_on_c, 0, 76, 80
2, 227804, Note_off_c, 0, 76, 100
2, 227808, Note_on_c, 0, 80, 80
2, 227900, Note_off_c, 0, 80, 100
2, 227904, Note_on_c, 0, 78, 80
2, 227996, Note_off_c, 0, 78, 100
2, 228000, Note_on_c, 0, 76, 80
2, 228092, Note_off_c, 0, 76, 100
2, 228096, Note_on_c, 0, 78, 80
2, 228188, Note_off_c, 0, 78, 100
2, 228192, Note_on_c, 0, 76, 80
2, 228284, Note_off_c, 0, 76, 100
2, 228288, Note_on_c, 0, 75, 80
2, 228380, Note_off_c, 0, 75, 100
2, 228384, Note_on_c, 0, 73, 80
2, 228476, Note_off_c, 0, 73, 100
2, 228480, Note_on_c, 0, 70, 80
2, 228572, Note_off_c, 0, 70, 100
2, 228576, Note_on_c, 0, 71, 80
2, 228668, Note_off_c, 0, 71, 100
2, 228672, Note_on_c, 0, 70, 80
2, 228764, Note_off_c, 0, 70, 100
2, 228768, Note_on_c, 0, 68, 80
2, 228860, Note_off_c, 0, 68, 100
2, 228864, Note_on_c, 0, 78, 80
2, 228956, Note_off_c, 0, 78, 100
2, 228960, Note_on_c, 0, 76, 80
2, 229052, Note_off_c, 0, 76, 100
2, 229056, Note_on_c, 0, 75, 80
2, 229148, Note_off_c, 0, 75, 100
2, 229152, Note_on_c, 0, 73, 80
2, 229244, Note_off_c, 0, 73, 100
2, 229248, Note_on_c, 0, 71, 80
2, 229340, Note_off_c, 0, 71, 100
2, 229344, Note_on_c, 0, 75, 80
2, 229436, Note_off_c, 0, 75, 100
2, 229440, Note_on_c, 0, 73, 80
2, 229532, Note_off_c, 0, 73, 100
2, 229536, Note_on_c, 0, 71, 80
2, 229628, Note_off_c, 0, 71, 100
2, 229632, Note_on_c, 0, 78, 80
2, 229724, Note_off_c, 0, 78, 100
2, 229728, Note_on_c, 0, 76, 80
2, 229820, Note_off_c, 0, 76, 100
2, 229824, Note_on_c, 0, 75, 80
2, 229916, Note_off_c, 0, 75, 100
2, 229920, Note_on_c, 0, 73, 80
2, 230012, Note_off_c, 0, 73, 100
2, 230016, Note_on_c, 0, 71, 80
2, 230108, Note_off_c, 0, 71, 100
2, 230112, Note_on_c, 0, 75, 81
2, 230204, Note_off_c, 0, 75, 100
2, 230208, Note_on_c, 0, 73, 82
2, 230300, Note_off_c, 0, 73, 100
2, 230304, Note_on_c, 0, 71, 82
2, 230396, Note_off_c, 0, 71, 100
2, 230400, Note_on_c, 0, 78, 83
2, 230492, Note_off_c, 0, 78, 100
2, 230496, Note_on_c, 0, 76, 84
2, 230588, Note_off_c, 0, 76, 100
2, 230592, Note_on_c, 0, 75, 84
2, 230684, Note_off_c, 0, 75, 100
2, 230688, Note_on_c, 0, 73, 85
2, 230780, Note_off_c, 0, 73, 100
2, 230784, Note_on_c, 0, 71, 86
2, 230876, Note_off_c, 0, 71, 100
2, 230880, Note_on_c, 0, 75, 87
2, 230972, Note_off_c, 0, 75, 100
2, 230976, Note_on_c, 0, 73, 87
2, 231068, Note_off_c, 0, 73, 100
2, 231072, Note_on_c, 0, 71, 88
2, 231164, Note_off_c, 0, 71, 100
2, 231168, Note_on_c, 0, 83, 89
2, 231260, Note_off_c, 0, 83, 100
2, 231264, Note_on_c, 0, 82, 89
2, 231356, Note_off_c, 0, 82, 100
2, 231360, Note_on_c, 0, 80, 90
2, 231452, Note_off_c, 0, 80, 100
2, 231456, Note_on_c, 0, 78, 91
2, 231548, Note_off_c, 0, 78, 100
2, 231552, Note_on_c, 0, 77, 92
2, 231644, Note_off_c, 0, 77, 100
2, 231648, Note_on_c, 0, 80, 92
2, 231740, Note_off_c, 0, 80, 100
2, 231744, Note_on_c, 0, 78, 93
2, 231836, Note_off_c, 0, 78, 100
2, 231840, Note_on_c, 0, 77, 94
2, 231932, Note_off_c, 0, 77, 100
2, 231936, Note_on_c, 0, 83, 94
2, 232028, Note_off_c, 0, 83, 100
2, 232032, Note_on_c, 0, 82, 95
2, 232124, Note_off_c, 0, 82, 100
2, 232128, Note_on_c, 0, 80, 96
2, 232220, Note_off_c, 0, 80, 100
2, 232224, Note_on_c, 0, 78, 97
2, 232316, Note_off_c, 0, 78, 100
2, 232320, Note_on_c, 0, 77, 97
2, 232412, Note_off_c, 0, 77, 100
2, 232416, Note_on_c, 0, 80, 98
2, 232508, Note_off_c, 0, 80, 100
2, 232512, Note_on_c, 0, 78, 99
2, 232604, Note_off_c, 0, 78, 100
2, 232608, Note_on_c, 0, 77, 99
2, 232700, Note_off_c, 0, 77, 100
2, 232704, Note_on_c, 0, 87, 100
2, 232796, Note_off_c, 0, 87, 100
2, 232800, Note_on_c, 0, 85, 101
2, 232892, Note_off_c, 0, 85, 100
2, 232896, Note_on_c, 0, 83, 102
2, 232988, Note_off_c, 0, 83, 100
2, 232992, Note_on_c, 0, 82, 102
2, 233084, Note_off_c, 0, 82, 100
2, 233088, Note_on_c, 0, 80, 103
2, 233180, Note_off_c, 0, 80, 100
2, 233184, Note_on_c, 0, 83, 104
2, 233276, Note_off_c, 0, 83, 100
2, 233280, Note_on_c, 0, 82, 104
2, 233372, Note_off_c, 0, 82, 100
2, 233376, Note_on_c, 0, 80, 105
2, 233468, Note_off_c, 0, 80, 100
2, 233472, Note_on_c, 0, 78, 106
2, 233564, Note_off_c, 0, 78, 100
2, 233568, Note_on_c, 0, 77, 107
2, 233660, Note_off_c, 0, 77, 100
2, 233664, Note_on_c, 0, 75, 107
2, 233756, Note_off_c, 0, 75, 100
2, 233760, Note_on_c, 0, 73, 108
2, 233852, Note_off_c, 0, 73, 100
2, 233856, Note_on_c, 0, 71, 109
2, 233948, Note_off_c, 0, 71, 100
2, 233952, Note_on_c, 0, 75, 109
2, 234044, Note_off_c, 0, 75, 100
2, 234048, Note_on_c, 0, 73, 110
2, 234140, Note_off_c, 0, 73, 100
2, 234144, Note_on_c, 0, 71, 111
2, 234236, Note_off_c, 0, 71, 100
2, 234240, Note_on_c, 0, 70, 112
2, 234332, Note_off_c, 0, 70, 100
2, 234336, Note_on_c, 0, 68, 112
2, 234428, Note_off_c, 0, 68, 100
2, 234432, Note_on_c, 0, 66, 113
2, 234524, Note_off_c, 0, 66, 100
2, 234528, Note_on_c, 0, 65, 114
2, 234620, Note_off_c, 0, 65, 100
2, 234624, Note_on_c, 0, 71, 114
2, 234716, Note_off_c, 0, 71, 100
2, 234720, Note_on_c, 0, 70, 115
2, 234812, Note_off_c, 0, 70, 100
2, 234816, Note_on_c, 0, 68, 116
2, 234908, Note_off_c, 0, 68, 100
2, 234912, Note_on_c, 0, 66, 117
2, 235004, Note_off_c, 0, 66, 100
2, 235008, Note_on_c, 0, 65, 117
2, 235100, Note_off_c, 0, 65, 100
2, 235104, Note_on_c, 0, 63, 118
2, 235196, Note_off_c, 0, 63, 100
2, 235200, Note_on_c, 0, 61, 119
2, 235292, Note_off_c, 0, 61, 100
2, 235296, Note_on_c, 0, 60, 119
2, 235388, Note_off_c, 0, 60, 100
2, 235392, Note_on_c, 0, 61, 120
2, 236160, Note_on_c, 0, 65, 120
2, 236924, Note_off_c, 0, 61, 100
2, 236924, Note_off_c, 0, 65, 100
2, 236928, Note_on_c, 0, 61, 120
2, 236928, Note_on_c, 0, 65, 120
2, 236928, Note_on_c, 0, 68, 120
2, 238076, Note_off_c, 0, 65, 100
2, 238076, Note_off_c, 0, 68, 100
2, 238080, Note_on_c, 0, 66, 80
2, 238080, Note_on_c, 0, 70, 80
2, 238364, Note_off_c, 0, 66, 100
2, 238364, Note_off_c, 0, 70, 100
2, 238368, Note_on_c, 0, 71, 80
2, 238368, Note_on_c, 0, 68, 80
2, 238460, Note_off_c, 0, 61, 100
2, 238460, Note_off_c, 0, 71, 100
2, 238460, Note_off_c, 0, 68, 100
2, 238464, Note_on_c, 0, 73, 80
2, 238844, Note_off_c, 0, 73, 100
2, 238848, Note_on_c, 0, 66, 80
2, 238848, Note_on_c, 0, 61, 80
2, 239228, Note_off_c, 0, 66, 100
2, 239228, Note_off_c, 0, 61, 100
2, 239232, Note_on_c, 0, 65, 80
2, 239232, Note_on_c, 0, 61, 80
2, 239612, Note_off_c, 0, 65, 100
2, 239612, Note_off_c, 0, 61, 100
2, 239616, Note_on_c, 0, 66, 80
2, 239616, Note_on_c, 0, 61, 80
2, 239996, Note_off_c, 0, 66, 100
2, 239996, Note_off_c, 0, 61, 100
2, 240000, Note_on_c, 0, 71, 80
2, 240000, Note_on_c, 0, 65, 80
2, 240000, Note_on_c, 0, 59, 80
2, 240000, Note_on_c, 0, 61, 80
2, 241148, Note_off_c, 0, 71, 100
2, 241148, Note_off_c, 0, 65, 100
2, 241148, Note_off_c, 0, 59, 100
2, 241148, Note_off_c, 0, 61, 100
2, 241152, Note_on_c, 0, 61, 80
2, 241152, Note_on_c, 0, 56, 80
2, 241152, Note_on_c, 0, 68, 80
2, 241532, Note_off_c, 0, 61, 100
2, 241532, Note_off_c, 0, 56, 100
2, 241532, Note_off_c, 0, 68, 100
2, 241536, Note_on_c, 0, 70, 80
2, 241536, Note_on_c, 0, 61, 80
2, 241536, Note_on_c, 0, 58, 80
2, 241916, Note_off_c, 0, 70, 100
2, 241916, Note_off_c, 0, 61, 100
2, 241916, Note_off_c, 0, 58, 100
2, 241920, Note_on_c, 0, 75, 80
2, 241920, Note_on_c, 0, 63, 80
2, 242300, Note_off_c, 0, 75, 100
2, 242300, Note_off_c, 0, 63, 100
2, 242304, Note_on_c, 0, 73, 80
2, 242304, Note_on_c, 0, 61, 80
2, 242684, Note_off_c, 0, 73, 100
2, 242684, Note_off_c, 0, 61, 100
2, 242688, Note_on_c, 0, 78, 80
2, 242688, Note_on_c, 0, 66, 80
2, 243068, Note_off_c, 0, 78, 100
2, 243068, Note_off_c, 0, 66, 100
2, 243072, Note_on_c, 0, 77, 80
2, 243072, Note_on_c, 0, 65, 80
2, 243452, Note_off_c, 0, 77, 100
2, 243452, Note_off_c, 0, 65, 100
2, 243456, Note_on_c, 0, 75, 80
2, 243456, Note_on_c, 0, 63, 80
2, 243836, Note_off_c, 0, 75, 100
2, 243836, Note_off_c, 0, 63, 100
2, 243840, Note_on_c, 0, 73, 80
2, 243840, Note_on_c, 0, 61, 80
2, 244220, Note_off_c, 0, 73, 100
2, 244220, Note_off_c, 0, 61, 100
2, 244224, Note_on_c, 0, 70, 80
2, 244316, Note_off_c, 0, 70, 100
2, 244320, Note_on_c, 0, 71, 80
2, 244412, Note_off_c, 0, 71, 100
2, 244416, Note_on_c, 0, 70, 80
2, 244508, Note_off_c, 0, 70, 100
2, 244512, Note_on_c, 0, 66, 80
2, 244604, Note_off_c, 0, 66, 100
2, 244608, Note_on_c, 0, 71, 80
2, 244700, Note_off_c, 0, 71, 100
2, 244704, Note_on_c, 0, 73, 80
2, 244796, Note_off_c, 0, 73, 100
2, 244800, Note_on_c, 0, 71, 80
2, 244892, Note_off_c, 0, 71, 100
2, 244896, Note_on_c, 0, 68, 80
2, 244988, Note_off_c, 0, 68, 100
2, 244992, Note_on_c, 0, 65, 80
2, 245372, Note_off_c, 0, 65, 100
2, 245760, Note_on_c, 0, 71, 80
2, 245852, Note_off_c, 0, 71, 100
2, 245856, Note_on_c, 0, 73, 80
2, 245948, Note_off_c, 0, 73, 100
2, 245952, Note_on_c, 0, 71, 80
2, 246044, Note_off_c, 0, 71, 100
2, 246048, Note_on_c, 0, 68, 80
2, 246140, Note_off_c, 0, 68, 100
2, 246144, Note_on_c, 0, 73, 80
2, 246236, Note_off_c, 0, 73, 100
2, 246240, Note_on_c, 0, 75, 80
2, 246332, Note_off_c, 0, 75, 100
2, 246336, Note_on_c, 0, 73, 80
2, 246428, Note_off_c, 0, 73, 100
2, 246432, Note_on_c, 0, 70, 80
2, 246524, Note_off_c, 0, 70, 100
2, 246528, Note_on_c, 0, 66, 80
2, 246908, Note_off_c, 0, 66, 100
2, 247296, Note_on_c, 0, 70, 80
2, 247388, Note_off_c, 0, 70, 100
2, 247392, Note_on_c, 0, 71, 80
2, 247484, Note_off_c, 0, 71, 100
2, 247488, Note_on_c, 0, 70, 80
2, 247580, Note_off_c, 0, 70, 100
2, 247584, Note_on_c, 0, 66, 80
2, 247676, Note_off_c, 0, 66, 100
2, 247680, Note_on_c, 0, 73, 80
2, 247772, Note_off_c, 0, 73, 100
2, 247776, Note_on_c, 0, 75, 80
2, 247868, Note_off_c, 0, 75, 100
2, 247872, Note_on_c, 0, 73, 80
2, 247964, Note_off_c, 0, 73, 100
2, 247968, Note_on_c, 0, 70, 80
2, 248060, Note_off_c, 0, 70, 100
2, 248064, Note_on_c, 0, 67, 80
2, 248444, Note_off_c, 0, 67, 100
2, 248832, Note_on_c, 0, 73, 80
2, 248924, Note_off_c, 0, 73, 100
2, 248928, Note_on_c, 0, 75, 80
2, 249020, Note_off_c, 0, 75, 100
2, 249024, Note_on_c, 0, 73, 80
2, 249116, Note_off_c, 0, 73, 100
2, 249120, Note_on_c, 0, 70, 80
2, 249212, Note_off_c, 0, 70, 100
2, 249216, Note_on_c, 0, 75, 80
2, 249308, Note_off_c, 0, 75, 100
2, 249312, Note_on_c, 0, 76, 80
2, 249404, Note_off_c, 0, 76, 100
2, 249408, Note_on_c, 0, 75, 80
2, 249500, Note_off_c, 0, 75, 100
2, 249504, Note_on_c, 0, 71, 80
2, 249596, Note_off_c, 0, 71, 100
2, 249600, Note_on_c, 0, 68, 80
2, 249980, Note_off_c, 0, 68, 100
2, 250368, Note_on_c, 0, 88, 110
2, 250492, Note_off_c, 0, 88, 100
2, 250496, Note_on_c, 0, 87, 110
2, 250620, Note_off_c, 0, 87, 100
2, 250624, Note_on_c, 0, 85, 110
2, 250748, Note_off_c, 0, 85, 100
2, 250752, Note_on_c, 0, 83, 110
2, 250876, Note_off_c, 0, 83, 100
2, 250880, Note_on_c, 0, 81, 110
2, 251004, Note_off_c, 0, 81, 100
2, 251008, Note_on_c, 0, 80, 110
2, 251132, Note_off_c, 0, 80, 100
2, 251136, Note_on_c, 0, 78, 110
2, 251260, Note_off_c, 0, 78, 100
2, 251264, Note_on_c, 0, 76, 110
2, 251388, Note_off_c, 0, 76, 100
2, 251392, Note_on_c, 0, 75, 110
2, 251516, Note_off_c, 0, 75, 100
2, 251520, Note_on_c, 0, 73, 110
2, 251644, Note_off_c, 0, 73, 100
2, 251648, Note_on_c, 0, 71, 110
2, 251772, Note_off_c, 0, 71, 100
2, 251776, Note_on_c, 0, 70, 110
2, 251900, Note_off_c, 0, 70, 100
2, 251904, Note_on_c, 0, 71, 110
2, 252028, Note_off_c, 0, 71, 100
2, 252032, Note_on_c, 0, 73, 110
2, 252156, Note_off_c, 0, 73, 100
2, 252160, Note_on_c, 0, 75, 110
2, 252284, Note_off_c, 0, 75, 100
2, 252288, Note_on_c, 0, 76, 110
2, 252288, Note_on_c, 0, 71, 110
2, 252288, Note_on_c, 0, 68, 110
2, 252288, Note_on_c, 0, 64, 110
2, 252668, Note_off_c, 0, 76, 100
2, 252668, Note_off_c, 0, 71, 100
2, 252668, Note_off_c, 0, 68, 100
2, 252668, Note_off_c, 0, 64, 100
2, 252672, Note_on_c, 0, 78, 110
2, 252672, Note_on_c, 0, 75, 110
2, 252672, Note_on_c, 0, 71, 110
2, 252672, Note_on_c, 0, 66, 110
2, 253052, Note_off_c, 0, 78, 100
2, 253052, Note_off_c, 0, 75, 100
2, 253052, Note_off_c, 0, 71, 100
2, 253052, Note_off_c, 0, 66, 100
2, 253056, Note_on_c, 0, 80, 110
2, 253056, Note_on_c, 0, 76, 110
2, 253056, Note_on_c, 0, 71, 110
2, 253056, Note_on_c, 0, 68, 110
2, 253436, Note_off_c, 0, 80, 100
2, 253436, Note_off_c, 0, 76, 100
2, 253436, Note_off_c, 0, 71, 100
2, 253436, Note_off_c, 0, 68, 100
2, 253824, Note_on_c, 0, 64, 80
2, 253824, Note_on_c, 0, 59, 80
2, 253824, Note_on_c, 0, 68, 80
2, 254204, Note_off_c, 0, 64, 100
2, 254204, Note_off_c, 0, 59, 100
2, 254204, Note_off_c, 0, 68, 100
2, 254592, Note_on_c, 0, 69, 80
2, 254592, Note_on_c, 0, 66, 80
2, 254592, Note_on_c, 0, 61, 80
2, 254972, Note_off_c, 0, 69, 100
2, 254972, Note_off_c, 0, 66, 100
2, 254972, Note_off_c, 0, 61, 100
2, 255360, Note_on_c, 0, 78, 110
2, 255360, Note_on_c, 0, 75, 110
2, 255360, Note_on_c, 0, 71, 110
2, 255740, Note_off_c, 0, 78, 100
2, 255740, Note_off_c, 0, 75, 100
2, 255740, Note_off_c, 0, 71, 100
2, 255744, Note_on_c, 0, 80, 110
2, 255744, Note_on_c, 0, 77, 110
2, 255744, Note_on_c, 0, 73, 110
2, 255744, Note_on_c, 0, 71, 110
2, 256124, Note_off_c, 0, 80, 100
2, 256124, Note_off_c, 0, 77, 100
2, 256124, Note_off_c, 0, 73, 100
2, 256124, Note_off_c, 0, 71, 100
2, 256128, Note_on_c, 0, 81, 110
2, 256128, Note_on_c, 0, 78, 110
2, 256128, Note_on_c, 0, 73, 110
2, 256128, Note_on_c, 0, 69, 110
2, 256508, Note_off_c, 0, 81, 100
2, 256508, Note_off_c, 0, 78, 100
2, 256508, Note_off_c, 0, 73, 100
2, 256508, Note_off_c, 0, 69, 100
2, 256896, Note_on_c, 0, 69, 80
2, 256896, Note_on_c, 0, 66, 80
2, 256896, Note_on_c, 0, 61, 80
2, 257276, Note_off_c, 0, 69, 100
2, 257276, Note_off_c, 0, 66, 100
2, 257276, Note_off_c, 0, 61, 100
2, 257664, Note_on_c, 0, 71, 80
2, 257664, Note_on_c, 0, 68, 80
2, 257664, Note_on_c, 0, 62, 80
2, 258044, Note_off_c, 0, 71, 100
2, 258044, Note_off_c, 0, 68, 100
2, 258044, Note_off_c, 0, 62, 100
2, 258432, Note_on_c, 0, 80, 110
2, 258432, Note_on_c, 0, 77, 110
2, 258432, Note_on_c, 0, 73, 110
2, 258432, Note_on_c, 0, 71, 110
2, 258812, Note_off_c, 0, 80, 100
2, 258812, Note_off_c, 0, 77, 100
2, 258812, Note_off_c, 0, 73, 100
2, 258812, Note_off_c, 0, 71, 100
2, 258816, Note_on_c, 0, 82, 110
2, 258816, Note_on_c, 0, 76, 110
2, 258816, Note_on_c, 0, 73, 110
2, 258816, Note_on_c, 0, 70, 110
2, 259196, Note_off_c, 0, 82, 100
2, 259196, Note_off_c, 0, 76, 100
2, 259196, Note_off_c, 0, 73, 100
2, 259196, Note_off_c, 0, 70, 100
2, 259200, Note_on_c, 0, 83, 110
2, 259200, Note_on_c, 0, 74, 110
2, 259200, Note_on_c, 0, 71, 110
2, 259580, Note_off_c, 0, 83, 100
2, 259580, Note_off_c, 0, 74, 100
2, 259580, Note_off_c, 0, 71, 100
2, 259968, Note_on_c, 0, 74, 80
2, 259968, Note_on_c, 0, 71, 80
2, 259968, Note_on_c, 0, 66, 80
2, 260348, Note_off_c, 0, 74, 100
2, 260348, Note_off_c, 0, 71, 100
2, 260348, Note_off_c, 0, 66, 100
2, 260736, Note_on_c, 0, 76, 80
2, 260736, Note_on_c, 0, 73, 80
2, 260736, Note_on_c, 0, 67, 80
2, 261116, Note_off_c, 0, 76, 100
2, 261116, Note_off_c, 0, 73, 100
2, 261116, Note_off_c, 0, 67, 100
2, 261504, Note_on_c, 0, 82, 110
2, 261504, Note_on_c, 0, 76, 110
2, 261504, Note_on_c, 0, 73, 110
2, 261504, Note_on_c, 0, 70, 110
2, 261884, Note_off_c, 0, 82, 100
2, 261884, Note_off_c, 0, 76, 100
2, 261884, Note_off_c, 0, 73, 100
2, 261884, Note_off_c, 0, 70, 100
2, 261888, Note_on_c, 0, 83, 110
2, 261888, Note_on_c, 0, 74, 110
2, 261888, Note_on_c, 0, 71, 110
2, 262268, Note_off_c, 0, 83, 100
2, 262268, Note_off_c, 0, 74, 100
2, 262268, Note_off_c, 0, 71, 100
2, 262272, Note_on_c, 0, 85, 110
2, 262272, Note_on_c, 0, 76, 110
2, 262272, Note_on_c, 0, 73, 110
2, 262652, Note_off_c, 0, 85, 100
2, 262652, Note_off_c, 0, 76, 100
2, 262652, Note_off_c, 0, 73, 100
2, 263040, Note_on_c, 0, 73, 80
2, 263040, Note_on_c, 0, 70, 80
2, 263420, Note_off_c, 0, 73, 100
2, 263420, Note_off_c, 0, 70, 100
2, 263424, Note_on_c, 0, 75, 80
2, 263424, Note_on_c, 0, 71, 80
2, 263804, Note_off_c, 0, 75, 100
2, 263804, Note_off_c, 0, 71, 100
2, 263808, Note_on_c, 0, 76, 80
2, 263808, Note_on_c, 0, 73, 80
2, 264188, Note_off_c, 0, 76, 100
2, 264188, Note_off_c, 0, 73, 100
2, 264576, Note_on_c, 0, 73, 80
2, 264576, Note_on_c, 0, 70, 80
2, 264576, Note_on_c, 0, 66, 80
2, 264956, Note_off_c, 0, 73, 100
2, 264956, Note_off_c, 0, 70, 100
2, 264956, Note_off_c, 0, 66, 100
2, 265344, Note_on_c, 0, 76, 80
2, 265344, Note_on_c, 0, 73, 80
2, 265344, Note_on_c, 0, 66, 80
2, 265724, Note_off_c, 0, 76, 100
2, 265724, Note_off_c, 0, 73, 100
2, 265724, Note_off_c, 0, 66, 100
2, 266112, Note_on_c, 0, 75, 80
2, 266112, Note_on_c, 0, 71, 80
2, 266112, Note_on_c, 0, 66, 80
2, 266492, Note_off_c, 0, 75, 100
2, 266492, Note_off_c, 0, 71, 100
2, 266492, Note_off_c, 0, 66, 100
2, 266496, Note_on_c, 0, 78, 80
2, 266588, Note_off_c, 0, 78, 100
2, 266592, Note_on_c, 0, 80, 80
2, 266684, Note_off_c, 0, 80, 100
2, 266688, Note_on_c, 0, 78, 80
2, 266780, Note_off_c, 0, 78, 100
2, 266784, Note_on_c, 0, 75, 80
2, 266876, Note_off_c, 0, 75, 100
2, 266880, Note_on_c, 0, 83, 80
2, 268028, Note_off_c, 0, 83, 64
2, 268032, Note_on_c, 0, 83, 109
2, 268060, Note_off_c, 0, 83, 100
2, 268064, Note_on_c, 0, 82, 110
2, 268092, Note_off_c, 0, 82, 100
2, 268096, Note_on_c, 0, 80, 111
2, 268124, Note_off_c, 0, 80, 100
2, 268128, Note_on_c, 0, 82, 112
2, 268316, Note_off_c, 0, 82, 100
2, 268320, Note_on_c, 0, 83, 117
2, 268412, Note_off_c, 0, 83, 100
2, 268416, Note_on_c, 0, 85, 119
2, 268796, Note_off_c, 0, 85, 100
2, 268800, Note_on_c, 0, 82, 80
2, 269180, Note_off_c, 0, 82, 100
2, 269184, Note_on_c, 0, 79, 80
2, 269280, Note_on_c, 0, 88, 80
2, 269356, Note_off_c, 0, 79, 100
2, 269376, Note_on_c, 0, 87, 80
2, 269468, Note_off_c, 0, 88, 100
2, 269472, Note_on_c, 0, 79, 80
2, 269552, Note_off_c, 0, 87, 100
2, 269564, Note_off_c, 0, 79, 100
2, 269568, Note_on_c, 0, 79, 80
2, 269664, Note_on_c, 0, 88, 80
2, 269748, Note_off_c, 0, 79, 100
2, 269760, Note_on_c, 0, 87, 80
2, 269836, Note_off_c, 0, 88, 100
2, 269856, Note_on_c, 0, 79, 80
2, 269932, Note_off_c, 0, 87, 100
2, 269948, Note_off_c, 0, 79, 100
2, 269952, Note_on_c, 0, 79, 80
2, 270048, Note_on_c, 0, 88, 80
2, 270120, Note_off_c, 0, 79, 100
2, 270144, Note_on_c, 0, 87, 80
2, 270224, Note_off_c, 0, 88, 100
2, 270240, Note_on_c, 0, 79, 80
2, 270316, Note_off_c, 0, 87, 100
2, 270332, Note_off_c, 0, 79, 100
2, 270336, Note_on_c, 0, 79, 80
2, 270432, Note_on_c, 0, 88, 80
2, 270508, Note_off_c, 0, 79, 100
2, 270528, Note_on_c, 0, 87, 80
2, 270620, Note_off_c, 0, 88, 100
2, 270624, Note_on_c, 0, 79, 80
2, 270700, Note_off_c, 0, 87, 100
2, 270716, Note_off_c, 0, 79, 100
2, 270720, Note_on_c, 0, 80, 80
2, 270816, Note_on_c, 0, 88, 80
2, 270904, Note_off_c, 0, 80, 100
2, 270912, Note_on_c, 0, 87, 80
2, 270996, Note_off_c, 0, 88, 100
2, 271008, Note_on_c, 0, 80, 80
2, 271072, Note_off_c, 0, 87, 100
2, 271104, Note_on_c, 0, 82, 80
2, 271196, Note_off_c, 0, 80, 100
2, 271200, Note_on_c, 0, 88, 80
2, 271280, Note_off_c, 0, 82, 100
2, 271296, Note_on_c, 0, 87, 80
2, 271364, Note_off_c, 0, 88, 100
2, 271392, Note_on_c, 0, 82, 80
2, 271476, Note_off_c, 0, 87, 100
2, 271488, Note_on_c, 0, 83, 80
2, 271568, Note_off_c, 0, 82, 100
2, 271584, Note_on_c, 0, 88, 80
2, 271660, Note_off_c, 0, 83, 100
2, 271680, Note_on_c, 0, 87, 80
2, 271748, Note_off_c, 0, 88, 100
2, 271776, Note_on_c, 0, 83, 80
2, 271848, Note_off_c, 0, 87, 100
2, 271872, Note_on_c, 0, 92, 80
2, 271952, Note_off_c, 0, 83, 100
2, 271968, Note_on_c, 0, 87, 80
2, 272044, Note_off_c, 0, 92, 100
2, 272064, Note_on_c, 0, 83, 80
2, 272144, Note_off_c, 0, 87, 100
2, 272160, Note_on_c, 0, 80, 80
2, 272224, Note_off_c, 0, 83, 100
2, 272252, Note_off_c, 0, 80, 100
2, 272256, Note_on_c, 0, 89, 80
2, 272352, Note_on_c, 0, 83, 80
2, 272436, Note_off_c, 0, 89, 100
2, 272448, Note_on_c, 0, 80, 80
2, 272540, Note_off_c, 0, 83, 100
2, 272544, Note_on_c, 0, 89, 80
2, 272624, Note_off_c, 0, 80, 100
2, 272640, Note_on_c, 0, 92, 80
2, 272724, Note_off_c, 0, 89, 100
2, 272736, Note_on_c, 0, 83, 80
2, 272808, Note_off_c, 0, 92, 100
2, 272832, Note_on_c, 0, 80, 80
2, 272924, Note_off_c, 0, 83, 100
2, 272928, Note_on_c, 0, 90, 80
2, 273000, Note_off_c, 0, 80, 100
2, 273024, Note_on_c, 0, 89, 80
2, 273100, Note_off_c, 0, 90, 100
2, 273120, Note_on_c, 0, 83, 80
2, 273192, Note_off_c, 0, 89, 100
2, 273216, Note_on_c, 0, 80, 80
2, 273296, Note_off_c, 0, 83, 100
2, 273312, Note_on_c, 0, 89, 80
2, 273392, Note_off_c, 0, 80, 100
2, 273408, Note_on_c, 0, 92, 80
2, 273488, Note_off_c, 0, 89, 100
2, 273504, Note_on_c, 0, 83, 80
2, 273572, Note_off_c, 0, 92, 100
2, 273600, Note_on_c, 0, 80, 80
2, 273680, Note_off_c, 0, 83, 100
2, 273696, Note_on_c, 0, 90, 80
2, 273776, Note_off_c, 0, 80, 100
2, 273788, Note_off_c, 0, 90, 100
2, 273792, Note_on_c, 0, 89, 80
2, 273888, Note_on_c, 0, 83, 80
2, 273972, Note_off_c, 0, 89, 100
2, 273984, Note_on_c, 0, 80, 80
2, 274076, Note_off_c, 0, 83, 100
2, 274080, Note_on_c, 0, 89, 80
2, 274160, Note_off_c, 0, 80, 100
2, 274176, Note_on_c, 0, 92, 80
2, 274260, Note_off_c, 0, 89, 100
2, 274272, Note_on_c, 0, 83, 80
2, 274364, Note_off_c, 0, 92, 100
2, 274368, Note_on_c, 0, 80, 80
2, 274448, Note_off_c, 0, 83, 100
2, 274464, Note_on_c, 0, 92, 80
2, 274536, Note_off_c, 0, 80, 100
2, 274560, Note_on_c, 0, 85, 80
2, 274652, Note_off_c, 0, 92, 100
2, 274656, Note_on_c, 0, 83, 80
2, 274732, Note_off_c, 0, 85, 100
2, 274752, Note_on_c, 0, 80, 80
2, 274824, Note_off_c, 0, 83, 100
2, 274848, Note_on_c, 0, 85, 80
2, 274916, Note_off_c, 0, 80, 100
2, 274944, Note_on_c, 0, 87, 80
2, 275028, Note_off_c, 0, 85, 100
2, 275040, Note_on_c, 0, 83, 80
2, 275108, Note_off_c, 0, 87, 100
2, 275136, Note_on_c, 0, 80, 80
2, 275220, Note_off_c, 0, 83, 100
2, 275232, Note_on_c, 0, 87, 80
2, 275312, Note_off_c, 0, 80, 100
2, 275324, Note_off_c, 0, 87, 100
2, 275328, Note_on_c, 0, 89, 80
2, 275424, Note_on_c, 0, 83, 80
2, 275508, Note_off_c, 0, 89, 100
2, 275520, Note_on_c, 0, 80, 80
2, 275612, Note_off_c, 0, 83, 100
2, 275616, Note_on_c, 0, 89, 80
2, 275696, Note_off_c, 0, 80, 100
2, 275712, Note_on_c, 0, 92, 80
2, 275796, Note_off_c, 0, 89, 100
2, 275808, Note_on_c, 0, 83, 80
2, 275880, Note_off_c, 0, 92, 100
2, 275904, Note_on_c, 0, 80, 80
2, 275996, Note_off_c, 0, 83, 100
2, 276000, Note_on_c, 0, 90, 80
2, 276072, Note_off_c, 0, 80, 100
2, 276096, Note_on_c, 0, 89, 80
2, 276172, Note_off_c, 0, 90, 100
2, 276192, Note_on_c, 0, 83, 80
2, 276264, Note_off_c, 0, 89, 100
2, 276288, Note_on_c, 0, 80, 80
2, 276368, Note_off_c, 0, 83, 100
2, 276384, Note_on_c, 0, 89, 80
2, 276464, Note_off_c, 0, 80, 100
2, 276480, Note_on_c, 0, 92, 80
2, 276560, Note_off_c, 0, 89, 100
2, 276576, Note_on_c, 0, 83, 80
2, 276644, Note_off_c, 0, 92, 100
2, 276672, Note_on_c, 0, 80, 80
2, 276752, Note_off_c, 0, 83, 100
2, 276768, Note_on_c, 0, 90, 80
2, 276848, Note_off_c, 0, 80, 100
2, 276860, Note_off_c, 0, 90, 100
2, 276864, Note_on_c, 0, 89, 80
2, 276960, Note_on_c, 0, 83, 80
2, 277044, Note_off_c, 0, 89, 100
2, 277056, Note_on_c, 0, 80, 80
2, 277148, Note_off_c, 0, 83, 100
2, 277152, Note_on_c, 0, 89, 80
2, 277232, Note_off_c, 0, 80, 100
2, 277248, Note_on_c, 0, 92, 80
2, 277332, Note_off_c, 0, 89, 100
2, 277344, Note_on_c, 0, 83, 80
2, 277436, Note_off_c, 0, 92, 100
2, 277440, Note_on_c, 0, 80, 80
2, 277520, Note_off_c, 0, 83, 100
2, 277536, Note_on_c, 0, 92, 80
2, 277608, Note_off_c, 0, 80, 100
2, 277632, Note_on_c, 0, 85, 80
2, 277724, Note_off_c, 0, 92, 100
2, 277728, Note_on_c, 0, 83, 80
2, 277804, Note_off_c, 0, 85, 100
2, 277824, Note_on_c, 0, 80, 80
2, 277896, Note_off_c, 0, 83, 100
2, 277920, Note_on_c, 0, 85, 80
2, 277988, Note_off_c, 0, 80, 100
2, 278016, Note_on_c, 0, 87, 80
2, 278100, Note_off_c, 0, 85, 100
2, 278112, Note_on_c, 0, 83, 80
2, 278180, Note_off_c, 0, 87, 100
2, 278208, Note_on_c, 0, 80, 80
2, 278292, Note_off_c, 0, 83, 100
2, 278304, Note_on_c, 0, 87, 82
2, 278384, Note_off_c, 0, 80, 100
2, 278396, Note_off_c, 0, 87, 100
2, 278400, Note_on_c, 0, 89, 80
2, 278496, Note_on_c, 0, 85, 80
2, 278588, Note_off_c, 0, 89, 100
2, 278592, Note_on_c, 0, 80, 80
2, 278676, Note_off_c, 0, 85, 100
2, 278688, Note_on_c, 0, 89, 80
2, 278764, Note_off_c, 0, 80, 100
2, 278784, Note_on_c, 0, 90, 80
2, 278856, Note_off_c, 0, 89, 100
2, 278880, Note_on_c, 0, 85, 81
2, 278956, Note_off_c, 0, 90, 100
2, 278976, Note_on_c, 0, 78, 82
2, 279064, Note_off_c, 0, 85, 100
2, 279072, Note_on_c, 0, 90, 83
2, 279152, Note_off_c, 0, 78, 100
2, 279164, Note_off_c, 0, 90, 100
2, 279168, Note_on_c, 0, 90, 84
2, 279264, Note_on_c, 0, 85, 85
2, 279348, Note_off_c, 0, 90, 100
2, 279360, Note_on_c, 0, 78, 86
2, 279444, Note_off_c, 0, 85, 100
2, 279456, Note_on_c, 0, 90, 87
2, 279540, Note_off_c, 0, 78, 100
2, 279548, Note_off_c, 0, 90, 100
2, 279552, Note_on_c, 0, 90, 88
2, 279648, Note_on_c, 0, 85, 89
2, 279736, Note_off_c, 0, 90, 100
2, 279744, Note_on_c, 0, 78, 91
2, 279832, Note_off_c, 0, 85, 100
2, 279840, Note_on_c, 0, 90, 92
2, 279932, Note_off_c, 0, 78, 100
2, 279932, Note_off_c, 0, 90, 100
2, 279936, Note_on_c, 0, 90, 93
2, 280032, Note_on_c, 0, 84, 94
2, 280120, Note_off_c, 0, 90, 100
2, 280128, Note_on_c, 0, 78, 95
2, 280212, Note_off_c, 0, 84, 100
2, 280224, Note_on_c, 0, 90, 96
2, 280312, Note_off_c, 0, 78, 100
2, 280316, Note_off_c, 0, 90, 100
2, 280320, Note_on_c, 0, 90, 97
2, 280416, Note_on_c, 0, 84, 98
2, 280496, Note_off_c, 0, 90, 100
2, 280512, Note_on_c, 0, 78, 99
2, 280580, Note_off_c, 0, 84, 100
2, 280608, Note_on_c, 0, 90, 101
2, 280672, Note_off_c, 0, 78, 100
2, 280700, Note_off_c, 0, 90, 100
2, 280704, Note_on_c, 0, 90, 102
2, 280800, Note_on_c, 0, 84, 103
2, 280876, Note_off_c, 0, 90, 100
2, 280896, Note_on_c, 0, 78, 104
2, 280980, Note_off_c, 0, 84, 100
2, 280992, Note_on_c, 0, 90, 105
2, 281072, Note_off_c, 0, 78, 100
2, 281084, Note_off_c, 0, 90, 100
2, 281088, Note_on_c, 0, 90, 106
2, 281184, Note_on_c, 0, 84, 107
2, 281268, Note_off_c, 0, 90, 100
2, 281280, Note_on_c, 0, 78, 108
2, 281360, Note_off_c, 0, 84, 100
2, 281376, Note_on_c, 0, 90, 109
2, 281456, Note_off_c, 0, 78, 100
2, 281468, Note_off_c, 0, 90, 100
2, 281472, Note_on_c, 0, 90, 110
2, 281568, Note_on_c, 0, 84, 110
2, 281656, Note_off_c, 0, 90, 100
2, 281664, Note_on_c, 0, 78, 110
2, 281748, Note_off_c, 0, 84, 100
2, 281760, Note_on_c, 0, 90, 110
2, 281848, Note_off_c, 0, 78, 100
2, 281852, Note_off_c, 0, 90, 100
2, 281856, Note_on_c, 0, 90, 111
2, 281952, Note_on_c, 0, 84, 111
2, 282032, Note_off_c, 0, 90, 100
2, 282048, Note_on_c, 0, 78, 111
2, 282116, Note_off_c, 0, 84, 100
2, 282144, Note_on_c, 0, 90, 112
2, 282208, Note_off_c, 0, 78, 100
2, 282236, Note_off_c, 0, 90, 100
2, 282240, Note_on_c, 0, 90, 112
2, 282336, Note_on_c, 0, 84, 112
2, 282412, Note_off_c, 0, 90, 100
2, 282432, Note_on_c, 0, 78, 113
2, 282516, Note_off_c, 0, 84, 100
2, 282528, Note_on_c, 0, 90, 113
2, 282608, Note_off_c, 0, 78, 100
2, 282620, Note_off_c, 0, 90, 100
2, 282624, Note_on_c, 0, 90, 113
2, 282720, Note_on_c, 0, 84, 114
2, 282804, Note_off_c, 0, 90, 100
2, 282816, Note_on_c, 0, 78, 114
2, 282896, Note_off_c, 0, 84, 100
2, 282912, Note_on_c, 0, 90, 114
2, 282992, Note_off_c, 0, 78, 100
2, 283004, Note_off_c, 0, 90, 100
2, 283008, Note_on_c, 0, 90, 120
2, 283104, Note_on_c, 0, 83, 120
2, 283184, Note_off_c, 0, 90, 100
2, 283200, Note_on_c, 0, 78, 120
2, 283284, Note_off_c, 0, 83, 100
2, 283296, Note_on_c, 0, 90, 120
2, 283380, Note_off_c, 0, 78, 100
2, 283388, Note_off_c, 0, 90, 100
2, 283392, Note_on_c, 0, 90, 120
2, 283488, Note_on_c, 0, 83, 120
2, 283568, Note_off_c, 0, 90, 100
2, 283584, Note_on_c, 0, 78, 120
2, 283660, Note_off_c, 0, 83, 100
2, 283680, Note_on_c, 0, 90, 120
2, 283772, Note_off_c, 0, 78, 100
2, 283772, Note_off_c, 0, 90, 100
2, 283776, Note_on_c, 0, 89, 120
2, 283872, Note_on_c, 0, 83, 120
2, 283956, Note_off_c, 0, 89, 100
2, 283968, Note_on_c, 0, 77, 120
2, 284056, Note_off_c, 0, 83, 100
2, 284064, Note_on_c, 0, 89, 120
2, 284152, Note_off_c, 0, 77, 100
2, 284156, Note_off_c, 0, 89, 100
2, 284160, Note_on_c, 0, 89, 120
2, 284256, Note_on_c, 0, 83, 120
2, 284332, Note_off_c, 0, 89, 100
2, 284352, Note_on_c, 0, 77, 120
2, 284428, Note_off_c, 0, 83, 100
2, 284448, Note_on_c, 0, 89, 120
2, 284532, Note_off_c, 0, 77, 100
2, 284540, Note_off_c, 0, 89, 100
2, 284544, Note_on_c, 0, 90, 120
2, 284544, Note_on_c, 0, 82, 120
2, 284544, Note_on_c, 0, 78, 120
2, 284924, Note_off_c, 0, 90, 100
2, 284924, Note_off_c, 0, 82, 100
2, 284924, Note_off_c, 0, 78, 100
2, 285312, Note_on_c, 0, 82, 80
2, 285436, Note_off_c, 0, 82, 100
2, 285440, Note_on_c, 0, 78, 80
2, 285564, Note_off_c, 0, 78, 100
2, 285568, Note_on_c, 0, 73, 80
2, 285692, Note_off_c, 0, 73, 100
2, 285696, Note_on_c, 0, 75, 80
2, 285820, Note_off_c, 0, 75, 100
2, 285824, Note_on_c, 0, 78, 80
2, 285948, Note_off_c, 0, 78, 100
2, 285952, Note_on_c, 0, 75, 80
2, 286076, Note_off_c, 0, 75, 100
2, 286080, Note_on_c, 0, 73, 80
2, 286204, Note_off_c, 0, 73, 100
2, 286208, Note_on_c, 0, 78, 80
2, 286332, Note_off_c, 0, 78, 100
2, 286336, Note_on_c, 0, 80, 80
2, 286460, Note_off_c, 0, 80, 100
2, 286464, Note_on_c, 0, 82, 80
2, 286588, Note_off_c, 0, 82, 100
2, 286592, Note_on_c, 0, 78, 80
2, 286716, Note_off_c, 0, 78, 100
2, 286720, Note_on_c, 0, 85, 80
2, 286844, Note_off_c, 0, 85, 100
2, 286848, Note_on_c, 0, 82, 80
2, 286972, Note_off_c, 0, 82, 100
2, 286976, Note_on_c, 0, 78, 80
2, 287100, Note_off_c, 0, 78, 100
2, 287104, Note_on_c, 0, 73, 80
2, 287228, Note_off_c, 0, 73, 100
2, 287232, Note_on_c, 0, 71, 80
2, 287356, Note_off_c, 0, 71, 100
2, 287360, Note_on_c, 0, 68, 80
2, 287484, Note_off_c, 0, 68, 100
2, 287488, Note_on_c, 0, 73, 80
2, 287612, Note_off_c, 0, 73, 100
2, 287616, Note_on_c, 0, 70, 80
2, 287996, Note_off_c, 0, 70, 100
2, 288000, Note_on_c, 0, 73, 80
2, 288124, Note_off_c, 0, 73, 100
2, 288128, Note_on_c, 0, 78, 82
2, 288252, Note_off_c, 0, 78, 100
2, 288256, Note_on_c, 0, 80, 84
2, 288380, Note_off_c, 0, 80, 100
2, 288384, Note_on_c, 0, 82, 86
2, 288508, Note_off_c, 0, 82, 100
2, 288512, Note_on_c, 0, 78, 88
2, 288636, Note_off_c, 0, 78, 100
2, 288640, Note_on_c, 0, 73, 90
2, 288764, Note_off_c, 0, 73, 100
2, 288768, Note_on_c, 0, 75, 92
2, 288892, Note_off_c, 0, 75, 100
2, 288896, Note_on_c, 0, 78, 94
2, 289020, Note_off_c, 0, 78, 100
2, 289024, Note_on_c, 0, 75, 97
2, 289148, Note_off_c, 0, 75, 100
2, 289152, Note_on_c, 0, 73, 99
2, 289276, Note_off_c, 0, 73, 100
2, 289280, Note_on_c, 0, 78, 101
2, 289404, Note_off_c, 0, 78, 100
2, 289408, Note_on_c, 0, 80, 103
2, 289532, Note_off_c, 0, 80, 100
2, 289536, Note_on_c, 0, 82, 105
2, 289660, Note_off_c, 0, 82, 100
2, 289664, Note_on_c, 0, 78, 107
2, 289788, Note_off_c, 0, 78, 100
2, 289792, Note_on_c, 0, 85, 109
2, 289916, Note_off_c, 0, 85, 100
2, 289920, Note_on_c, 0, 79, 110
2, 289920, Note_on_c, 0, 75, 110
2, 289920, Note_on_c, 0, 73, 110
2, 290300, Note_off_c, 0, 79, 100
2, 290300, Note_off_c, 0, 75, 100
2, 290300, Note_off_c, 0, 73, 100
2, 290304, Note_on_c, 0, 80, 110
2, 290304, Note_on_c, 0, 75, 110
2, 290304, Note_on_c, 0, 71, 110
2, 290684, Note_off_c, 0, 80, 100
2, 290684, Note_off_c, 0, 75, 100
2, 290684, Note_off_c, 0, 71, 100
2, 290688, Note_on_c, 0, 77, 110
2, 290688, Note_on_c, 0, 73, 110
2, 290688, Note_on_c, 0, 71, 110
2, 291452, Note_off_c, 0, 77, 100
2, 291452, Note_off_c, 0, 73, 100
2, 291452, Note_off_c, 0, 71, 100
2, 291456, Note_on_c, 0, 71, 80
2, 291548, Note_off_c, 0, 71, 100
2, 291552, Note_on_c, 0, 73, 80
2, 291644, Note_off_c, 0, 73, 100
2, 291648, Note_on_c, 0, 71, 80
2, 291740, Note_off_c, 0, 71, 100
2, 291744, Note_on_c, 0, 70, 80
2, 291836, Note_off_c, 0, 70, 100
2, 291840, Note_on_c, 0, 71, 80
2, 291932, Note_off_c, 0, 71, 100
2, 291936, Note_on_c, 0, 80, 80
2, 292028, Note_off_c, 0, 80, 100
2, 292032, Note_on_c, 0, 78, 80
2, 292124, Note_off_c, 0, 78, 100
2, 292128, Note_on_c, 0, 77, 80
2, 292220, Note_off_c, 0, 77, 100
2, 292224, Note_on_c, 0, 78, 80
2, 292316, Note_off_c, 0, 78, 100
2, 292320, Note_on_c, 0, 73, 80
2, 292412, Note_off_c, 0, 73, 100
2, 292416, Note_on_c, 0, 70, 80
2, 292508, Note_off_c, 0, 70, 100
2, 292512, Note_on_c, 0, 73, 80
2, 292604, Note_off_c, 0, 73, 100
2, 292608, Note_on_c, 0, 78, 80
2, 292700, Note_off_c, 0, 78, 100
2, 292704, Note_on_c, 0, 82, 80
2, 292796, Note_off_c, 0, 82, 100
2, 292800, Note_on_c, 0, 85, 80
2, 292892, Note_off_c, 0, 85, 100
2, 292896, Note_on_c, 0, 90, 80
2, 292988, Note_off_c, 0, 90, 100
2, 292992, Note_on_c, 0, 91, 110
2, 292992, Note_on_c, 0, 87, 110
2, 292992, Note_on_c, 0, 85, 110
2, 292992, Note_on_c, 0, 82, 110
2, 292992, Note_on_c, 0, 79, 110
2, 293372, Note_off_c, 0, 91, 100
2, 293372, Note_off_c, 0, 87, 100
2, 293372, Note_off_c, 0, 85, 100
2, 293372, Note_off_c, 0, 82, 100
2, 293372, Note_off_c, 0, 79, 100
2, 293376, Note_on_c, 0, 92, 110
2, 293376, Note_on_c, 0, 87, 110
2, 293376, Note_on_c, 0, 83, 110
2, 293376, Note_on_c, 0, 80, 110
2, 293756, Note_off_c, 0, 92, 100
2, 293756, Note_off_c, 0, 87, 100
2, 293756, Note_off_c, 0, 83, 100
2, 293756, Note_off_c, 0, 80, 100
2, 293760, Note_on_c, 0, 85, 110
2, 293760, Note_on_c, 0, 89, 110
2, 293760, Note_on_c, 0, 80, 110
2, 293760, Note_on_c, 0, 77, 110
2, 293760, Note_on_c, 0, 83, 110
2, 294524, Note_off_c, 0, 85, 100
2, 294524, Note_off_c, 0, 89, 100
2, 294524, Note_off_c, 0, 80, 100
2, 294524, Note_off_c, 0, 77, 100
2, 294524, Note_off_c, 0, 83, 100
2, 294528, Note_on_c, 0, 83, 80
2, 294620, Note_off_c, 0, 83, 100
2, 294624, Note_on_c, 0, 85, 80
2, 294716, Note_off_c, 0, 85, 100
2, 294720, Note_on_c, 0, 83, 80
2, 294812, Note_off_c, 0, 83, 100
2, 294816, Note_on_c, 0, 82, 80
2, 294908, Note_off_c, 0, 82, 100
2, 294912, Note_on_c, 0, 83, 80
2, 295004, Note_off_c, 0, 83, 100
2, 295008, Note_on_c, 0, 92, 80
2, 295100, Note_off_c, 0, 92, 100
2, 295104, Note_on_c, 0, 90, 80
2, 295196, Note_off_c, 0, 90, 100
2, 295200, Note_on_c, 0, 89, 80
2, 295292, Note_off_c, 0, 89, 100
2, 295296, Note_on_c, 0, 90, 80
2, 295388, Note_off_c, 0, 90, 100
2, 295392, Note_on_c, 0, 85, 80
2, 295484, Note_off_c, 0, 85, 100
2, 295488, Note_on_c, 0, 82, 80
2, 295580, Note_off_c, 0, 82, 100
2, 295584, Note_on_c, 0, 78, 80
2, 295676, Note_off_c, 0, 78, 100
2, 295680, Note_on_c, 0, 73, 80
2, 295772, Note_off_c, 0, 73, 100
2, 295776, Note_on_c, 0, 78, 80
2, 295868, Note_off_c, 0, 78, 100
2, 295872, Note_on_c, 0, 73, 80
2, 295964, Note_off_c, 0, 73, 100
2, 295968, Note_on_c, 0, 70, 80
2, 296060, Note_off_c, 0, 70, 100
2, 296064, Note_on_c, 0, 71, 80
2, 296156, Note_off_c, 0, 71, 100
2, 296160, Note_on_c, 0, 73, 80
2, 296252, Note_off_c, 0, 73, 100
2, 296256, Note_on_c, 0, 71, 80
2, 296348, Note_off_c, 0, 71, 100
2, 296352, Note_on_c, 0, 70, 80
2, 296444, Note_off_c, 0, 70, 100
2, 296448, Note_on_c, 0, 71, 80
2, 296540, Note_off_c, 0, 71, 100
2, 296544, Note_on_c, 0, 80, 80
2, 296636, Note_off_c, 0, 80, 100
2, 296640, Note_on_c, 0, 78, 80
2, 296732, Note_off_c, 0, 78, 100
2, 296736, Note_on_c, 0, 77, 80
2, 296828, Note_off_c, 0, 77, 100
2, 296832, Note_on_c, 0, 78, 80
2, 296924, Note_off_c, 0, 78, 100
2, 296928, Note_on_c, 0, 73, 80
2, 297020, Note_off_c, 0, 73, 100
2, 297024, Note_on_c, 0, 70, 80
2, 297116, Note_off_c, 0, 70, 100
2, 297120, Note_on_c, 0, 66, 80
2, 297212, Note_off_c, 0, 66, 100
2, 297216, Note_on_c, 0, 61, 80
2, 297308, Note_off_c, 0, 61, 100
2, 297312, Note_on_c, 0, 66, 80
2, 297404, Note_off_c, 0, 66, 100
2, 297408, Note_on_c, 0, 61, 80
2, 297500, Note_off_c, 0, 61, 100
2, 297504, Note_on_c, 0, 58, 80
2, 297596, Note_off_c, 0, 58, 100
2, 297984, Note_on_c, 0, 71, 80
2, 297984, Note_on_c, 0, 68, 80
2, 297984, Note_on_c, 0, 65, 80
2, 297984, Note_on_c, 0, 61, 80
2, 298364, Note_off_c, 0, 71, 100
2, 298364, Note_off_c, 0, 68, 100
2, 298364, Note_off_c, 0, 65, 100
2, 298364, Note_off_c, 0, 61, 100
2, 298752, Note_on_c, 0, 71, 80
2, 298752, Note_on_c, 0, 68, 80
2, 298752, Note_on_c, 0, 65, 80
2, 299132, Note_off_c, 0, 71, 100
2, 299132, Note_off_c, 0, 68, 100
2, 299132, Note_off_c, 0, 65, 100
2, 299520, Note_on_c, 0, 73, 80
2, 299520, Note_on_c, 0, 71, 80
2, 299520, Note_on_c, 0, 68, 80
2, 299520, Note_on_c, 0, 65, 80
2, 299900, Note_off_c, 0, 73, 100
2, 299900, Note_off_c, 0, 71, 100
2, 299900, Note_off_c, 0, 68, 100
2, 299900, Note_off_c, 0, 65, 100
2, 300288, Note_on_c, 0, 73, 80
2, 300288, Note_on_c, 0, 70, 80
2, 300288, Note_on_c, 0, 66, 80
2, 300668, Note_off_c, 0, 73, 100
2, 300668, Note_off_c, 0, 70, 100
2, 300668, Note_off_c, 0, 66, 100
2, 301056, Note_on_c, 0, 70, 80
2, 301340, Note_off_c, 0, 70, 100
2, 301344, Note_on_c, 0, 71, 80
2, 301436, Note_off_c, 0, 71, 100
2, 301824, Note_on_c, 0, 73, 80
2, 301824, Note_on_c, 0, 70, 80
2, 301824, Note_on_c, 0, 66, 80
2, 301824, Note_on_c, 0, 64, 80
2, 302204, Note_off_c, 0, 73, 100
2, 302204, Note_off_c, 0, 70, 100
2, 302204, Note_off_c, 0, 66, 100
2, 302204, Note_off_c, 0, 64, 100
2, 302592, Note_on_c, 0, 70, 80
2, 302592, Note_on_c, 0, 58, 80
2, 302876, Note_off_c, 0, 70, 100
2, 302876, Note_off_c, 0, 58, 100
2, 302880, Note_on_c, 0, 71, 80
2, 302880, Note_on_c, 0, 59, 80
2, 302972, Note_off_c, 0, 71, 100
2, 302972, Note_off_c, 0, 59, 100
2, 302976, Note_on_c, 0, 73, 80
2, 302976, Note_on_c, 0, 64, 80
2, 302976, Note_on_c, 0, 61, 80
2, 303356, Note_off_c, 0, 73, 100
2, 303356, Note_off_c, 0, 64, 100
2, 303356, Note_off_c, 0, 61, 100
2, 303360, Note_on_c, 0, 66, 83
2, 303360, Note_on_c, 0, 64, 83
2, 303360, Note_on_c, 0, 61, 83
2, 303740, Note_off_c, 0, 66, 100
2, 303740, Note_off_c, 0, 64, 100
2, 303740, Note_off_c, 0, 61, 100
2, 303744, Note_on_c, 0, 67, 87
2, 303744, Note_on_c, 0, 64, 87
2, 303744, Note_on_c, 0, 61, 87
2, 304124, Note_off_c, 0, 67, 100
2, 304124, Note_off_c, 0, 64, 100
2, 304124, Note_off_c, 0, 61, 100
2, 304128, Note_on_c, 0, 66, 90
2, 304128, Note_on_c, 0, 64, 90
2, 304128, Note_on_c, 0, 61, 90
2, 304508, Note_off_c, 0, 66, 100
2, 304508, Note_off_c, 0, 64, 100
2, 304508, Note_off_c, 0, 61, 100
2, 304512, Note_on_c, 0, 76, 94
2, 304512, Note_on_c, 0, 67, 94
2, 304512, Note_on_c, 0, 64, 94
2, 304892, Note_off_c, 0, 76, 100
2, 304892, Note_off_c, 0, 67, 100
2, 304892, Note_off_c, 0, 64, 100
2, 304896, Note_on_c, 0, 73, 97
2, 304896, Note_on_c, 0, 66, 97
2, 304896, Note_on_c, 0, 64, 97
2, 305276, Note_off_c, 0, 73, 100
2, 305276, Note_off_c, 0, 66, 100
2, 305276, Note_off_c, 0, 64, 100
2, 305280, Note_on_c, 0, 74, 101
2, 305280, Note_on_c, 0, 66, 101
2, 305280, Note_on_c, 0, 62, 101
2, 305660, Note_off_c, 0, 74, 100
2, 305660, Note_off_c, 0, 66, 100
2, 305660, Note_off_c, 0, 62, 100
2, 305664, Note_on_c, 0, 71, 105
2, 305664, Note_on_c, 0, 66, 105
2, 305664, Note_on_c, 0, 62, 105
2, 306044, Note_off_c, 0, 71, 100
2, 306044, Note_off_c, 0, 66, 100
2, 306044, Note_off_c, 0, 62, 100
2, 306048, Note_on_c, 0, 83, 108
2, 306048, Note_on_c, 0, 74, 108
2, 306048, Note_on_c, 0, 71, 108
2, 306428, Note_off_c, 0, 83, 100
2, 306428, Note_off_c, 0, 74, 100
2, 306428, Note_off_c, 0, 71, 100
2, 306432, Note_on_c, 0, 80, 112
2, 306432, Note_on_c, 0, 74, 112
2, 306432, Note_on_c, 0, 71, 112
2, 306812, Note_off_c, 0, 80, 100
2, 306812, Note_off_c, 0, 74, 100
2, 306812, Note_off_c, 0, 71, 100
2, 306816, Note_on_c, 0, 86, 110
2, 306816, Note_on_c, 0, 83, 110
2, 306816, Note_on_c, 0, 80, 110
2, 307196, Note_off_c, 0, 86, 100
2, 307196, Note_off_c, 0, 83, 100
2, 307196, Note_off_c, 0, 80, 100
2, 307200, Note_on_c, 0, 85, 99
2, 307200, Note_on_c, 0, 83, 99
2, 307200, Note_on_c, 0, 80, 99
2, 307580, Note_off_c, 0, 85, 100
2, 307580, Note_off_c, 0, 83, 100
2, 307580, Note_off_c, 0, 80, 100
2, 307968, Note_on_c, 0, 85, 80
2, 307968, Note_on_c, 0, 83, 80
2, 307968, Note_on_c, 0, 80, 80
2, 308348, Note_off_c, 0, 85, 100
2, 308348, Note_off_c, 0, 83, 100
2, 308348, Note_off_c, 0, 80, 100
2, 308736, Note_on_c, 0, 85, 80
2, 308736, Note_on_c, 0, 82, 80
2, 309116, Note_off_c, 0, 85, 100
2, 309116, Note_off_c, 0, 82, 100
2, 309504, Note_on_c, 0, 85, 80
2, 309504, Note_on_c, 0, 82, 80
2, 309884, Note_off_c, 0, 85, 100
2, 309884, Note_off_c, 0, 82, 100
2, 310272, Note_on_c, 0, 85, 80
2, 310272, Note_on_c, 0, 82, 80
2, 310652, Note_off_c, 0, 85, 100
2, 310652, Note_off_c, 0, 82, 100
2, 311040, Note_on_c, 0, 90, 110
2, 311040, Note_on_c, 0, 85, 110
2, 311040, Note_on_c, 0, 82, 110
2, 311040, Note_on_c, 0, 78, 110
2, 311420, Note_off_c, 0, 90, 100
2, 311420, Note_off_c, 0, 85, 100
2, 311420, Note_off_c, 0, 82, 100
2, 311420, Note_off_c, 0, 78, 100
2, 311424, Note_on_c, 0, 90, 110
2, 311424, Note_on_c, 0, 85, 110
2, 311424, Note_on_c, 0, 82, 110
2, 311424, Note_on_c, 0, 78, 110
2, 311804, Note_off_c, 0, 90, 100
2, 311804, Note_off_c, 0, 85, 100
2, 311804, Note_off_c, 0, 82, 100
2, 311804, Note_off_c, 0, 78, 100
2, 311808, Note_on_c, 0, 90, 110
2, 311808, Note_on_c, 0, 85, 110
2, 311808, Note_on_c, 0, 82, 110
2, 311808, Note_on_c, 0, 78, 110
2, 312188, Note_off_c, 0, 90, 100
2, 312188, Note_off_c, 0, 85, 100
2, 312188, Note_off_c, 0, 82, 100
2, 312188, Note_off_c, 0, 78, 100
2, 312192, Note_on_c, 0, 90, 110
2, 312192, Note_on_c, 0, 85, 110
2, 312192, Note_on_c, 0, 82, 110
2, 312192, Note_on_c, 0, 78, 110
2, 312764, Note_off_c, 0, 90, 100
2, 312764, Note_off_c, 0, 85, 100
2, 312764, Note_off_c, 0, 82, 100
2, 312764, Note_off_c, 0, 78, 100
2, 314112, Control_c, 0, 7, 0
2, 314880, Note_on_c, 0, 66, 1
2, 315068, Note_off_c, 0, 66, 100
2, 315068, End_track
3, 0, Start_track
3, 0, Title_t, "Left"
3, 0, Control_c, 1, 0, 0
3, 0, Program_c, 1, 0
3, 0, Control_c, 1, 7, 100
3, 0, Control_c, 1, 10, 59
3, 0, Control_c, 1, 91, 127
3, 0, Key_signature, 6, "major"
3, 0, Note_on_c, 1, 42, 80
3, 0, Note_on_c, 1, 30, 80
3, 764, Note_off_c, 1, 42, 100
3, 764, Note_off_c, 1, 30, 100
3, 768, Note_on_c, 1, 42, 80
3, 768, Note_on_c, 1, 30, 80
3, 1532, Note_off_c, 1, 42, 100
3, 1532, Note_off_c, 1, 30, 100
3, 1536, Note_on_c, 1, 42, 80
3, 1536, Note_on_c, 1, 30, 80
3, 2300, Note_off_c, 1, 42, 100
3, 2300, Note_off_c, 1, 30, 100
3, 2304, Note_on_c, 1, 42, 80
3, 2304, Note_on_c, 1, 30, 80
3, 2684, Note_off_c, 1, 42, 100
3, 2684, Note_off_c, 1, 30, 100
3, 3456, Note_on_c, 1, 42, 80
3, 3644, Note_off_c, 1, 42, 100
3, 3648, Note_on_c, 1, 54, 80
3, 3836, Note_off_c, 1, 54, 100
3, 3840, Note_on_c, 1, 58, 80
3, 4028, Note_off_c, 1, 58, 100
3, 4032, Note_on_c, 1, 54, 80
3, 4220, Note_off_c, 1, 54, 100
3, 4224, Note_on_c, 1, 59, 80
3, 4412, Note_off_c, 1, 59, 100
3, 4416, Note_on_c, 1, 54, 80
3, 4604, Note_off_c, 1, 54, 100
3, 4608, Note_on_c, 1, 58, 80
3, 4796, Note_off_c, 1, 58, 100
3, 4800, Note_on_c, 1, 54, 80
3, 4988, Note_off_c, 1, 54, 100
3, 4992, Note_on_c, 1, 56, 80
3, 5180, Note_off_c, 1, 56, 100
3, 5184, Note_on_c, 1, 49, 80
3, 5372, Note_off_c, 1, 49, 100
3, 5376, Note_on_c, 1, 56, 80
3, 5564, Note_off_c, 1, 56, 100
3, 5568, Note_on_c, 1, 49, 80
3, 5756, Note_off_c, 1, 49, 100
3, 5760, Note_on_c, 1, 56, 80
3, 5948, Note_off_c, 1, 56, 100
3, 5952, Note_on_c, 1, 49, 80
3, 6140, Note_off_c, 1, 49, 100
3, 6144, Note_on_c, 1, 53, 80
3, 6332, Note_off_c, 1, 53, 100
3, 6336, Note_on_c, 1, 49, 80
3, 6524, Note_off_c, 1, 49, 100
3, 6528, Note_on_c, 1, 42, 80
3, 6720, Note_on_c, 1, 54, 80
3, 6908, Note_off_c, 1, 54, 100
3, 6912, Note_on_c, 1, 47, 80
3, 7100, Note_off_c, 1, 47, 100
3, 7104, Note_on_c, 1, 54, 80
3, 7292, Note_off_c, 1, 54, 100
3, 7296, Note_on_c, 1, 46, 80
3, 7484, Note_off_c, 1, 46, 100
3, 7488, Note_on_c, 1, 54, 80
3, 7676, Note_off_c, 1, 42, 100
3, 7676, Note_off_c, 1, 54, 100
3, 7680, Note_on_c, 1, 42, 80
3, 7680, Note_on_c, 1, 51, 80
3, 7868, Note_off_c, 1, 51, 100
3, 7872, Note_on_c, 1, 54, 80
3, 8060, Note_off_c, 1, 42, 100
3, 8060, Note_off_c, 1, 54, 100
3, 8064, Note_on_c, 1, 42, 80
3, 8064, Note_on_c, 1, 49, 80
3, 8252, Note_off_c, 1, 49, 100
3, 8256, Note_on_c, 1, 54, 80
3, 8444, Note_off_c, 1, 42, 100
3, 8444, Note_off_c, 1, 54, 100
3, 8448, Note_on_c, 1, 42, 80
3, 8448, Note_on_c, 1, 47, 80
3, 8636, Note_off_c, 1, 47, 100
3, 8640, Note_on_c, 1, 54, 80
3, 8828, Note_off_c, 1, 42, 100
3, 8828, Note_off_c, 1, 54, 100
3, 8832, Note_on_c, 1, 42, 80
3, 8832, Note_on_c, 1, 46, 80
3, 9020, Note_off_c, 1, 46, 100
3, 9024, Note_on_c, 1, 54, 80
3, 9212, Note_off_c, 1, 42, 100
3, 9212, Note_off_c, 1, 54, 100
3, 9984, Note_on_c, 1, 49, 80
3, 10076, Note_off_c, 1, 49, 100
3, 10080, Note_on_c, 1, 53, 80
3, 10172, Note_off_c, 1, 53, 100
3, 10176, Note_on_c, 1, 56, 80
3, 10268, Note_off_c, 1, 56, 100
3, 10272, Note_on_c, 1, 59, 80
3, 10364, Note_off_c, 1, 59, 100
3, 10368, Note_on_c, 1, 47, 80
3, 10748, Note_off_c, 1, 47, 100
3, 11520, Note_on_c, 1, 46, 80
3, 11612, Note_off_c, 1, 46, 100
3, 11616, Note_on_c, 1, 49, 80
3, 11708, Note_off_c, 1, 49, 100
3, 11712, Note_on_c, 1, 54, 80
3, 11804, Note_off_c, 1, 54, 100
3, 11808, Note_on_c, 1, 58, 80
3, 11900, Note_off_c, 1, 58, 100
3, 11904, Note_on_c, 1, 46, 80
3, 12284, Note_off_c, 1, 46, 100
3, 12288, Note_on_c, 1, 42, 80
3, 12412, Note_off_c, 1, 42, 100
3, 12416, Note_on_c, 1, 44, 80
3, 12540, Note_off_c, 1, 44, 100
3, 12544, Note_on_c, 1, 46, 80
3, 12668, Note_off_c, 1, 46, 100
3, 12672, Note_on_c, 1, 47, 80
3, 13436, Note_off_c, 1, 47, 100
3, 13440, Note_on_c, 1, 49, 80
3, 13824, Note_on_c, 1, 59, 80
3, 14204, Note_off_c, 1, 49, 100
3, 14204, Note_off_c, 1, 59, 100
3, 14208, Note_on_c, 1, 58, 80
3, 14208, Note_on_c, 1, 54, 80
3, 14588, Note_off_c, 1, 58, 100
3, 14588, Note_off_c, 1, 54, 100
3, 14592, Note_on_c, 1, 56, 80
3, 14592, Note_on_c, 1, 49, 80
3, 14972, Note_off_c, 1, 56, 100
3, 14972, Note_off_c, 1, 49, 100
3, 14976, Note_on_c, 1, 54, 80
3, 14976, Note_on_c, 1, 42, 80
3, 15356, Note_off_c, 1, 54, 100
3, 15356, Note_off_c, 1, 42, 100
3, 15744, Note_on_c, 1, 58, 80
3, 15744, Note_on_c, 1, 54, 80
3, 16124, Note_off_c, 1, 58, 100
3, 16124, Note_off_c, 1, 54, 100
3, 16512, Note_on_c, 1, 56, 80
3, 16512, Note_on_c, 1, 51, 80
3, 16512, Note_on_c, 1, 47, 80
3, 16892, Note_off_c, 1, 56, 100
3, 16892, Note_off_c, 1, 51, 100
3, 16892, Note_off_c, 1, 47, 100
3, 17280, Note_on_c, 1, 49, 80
3, 17660, Note_off_c, 1, 49, 100
3, 17664, Note_on_c, 1, 42, 80
3, 18044, Note_off_c, 1, 42, 100
3, 18048, Note_on_c, 1, 37, 80
3, 18428, Note_off_c, 1, 37, 100
3, 18816, Note_on_c, 1, 59, 80
3, 18816, Note_on_c, 1, 56, 80
3, 18816, Note_on_c, 1, 53, 80
3, 19196, Note_off_c, 1, 59, 100
3, 19196, Note_off_c, 1, 56, 100
3, 19196, Note_off_c, 1, 53, 100
3, 19584, Note_on_c, 1, 59, 80
3, 19584, Note_on_c, 1, 56, 80
3, 19584, Note_on_c, 1, 53, 80
3, 19584, Note_on_c, 1, 49, 80
3, 19964, Note_off_c, 1, 59, 100
3, 19964, Note_off_c, 1, 56, 100
3, 19964, Note_off_c, 1, 53, 100
3, 19964, Note_off_c, 1, 49, 100
3, 20352, Note_on_c, 1, 58, 80
3, 20352, Note_on_c, 1, 54, 80
3, 20732, Note_off_c, 1, 58, 100
3, 20732, Note_off_c, 1, 54, 100
3, 21504, Note_on_c, 1, 70, 80
3, 21504, Note_on_c, 1, 66, 80
3, 21884, Note_off_c, 1, 70, 100
3, 21884, Note_off_c, 1, 66, 100
3, 21888, Note_on_c, 1, 71, 80
3, 21888, Note_on_c, 1, 68, 80
3, 23036, Note_off_c, 1, 71, 100
3, 23036, Note_off_c, 1, 68, 100
3, 23040, Note_on_c, 1, 71, 109
3, 23040, Note_on_c, 1, 68, 109
3, 23420, Note_off_c, 1, 71, 100
3, 23420, Note_off_c, 1, 68, 100
3, 23424, Note_on_c, 1, 70, 80
3, 23424, Note_on_c, 1, 68, 80
3, 24188, Note_off_c, 1, 70, 100
3, 24188, Note_off_c, 1, 68, 100
3, 24192, Note_on_c, 1, 68, 80
3, 24192, Note_on_c, 1, 65, 80
3, 24572, Note_off_c, 1, 68, 100
3, 24572, Note_off_c, 1, 65, 100
3, 24576, Note_on_c, 1, 68, 80
3, 24576, Note_on_c, 1, 65, 80
3, 24576, Note_on_c, 1, 58, 80
3, 24956, Note_off_c, 1, 68, 100
3, 24956, Note_off_c, 1, 65, 100
3, 24956, Note_off_c, 1, 58, 100
3, 24960, Note_on_c, 1, 63, 80
3, 24960, Note_on_c, 1, 58, 80
3, 24960, Note_on_c, 1, 66, 80
3, 25340, Note_off_c, 1, 63, 100
3, 25340, Note_off_c, 1, 58, 100
3, 25340, Note_off_c, 1, 66, 100
3, 25344, Note_on_c, 1, 65, 80
3, 25344, Note_on_c, 1, 62, 80
3, 25344, Note_on_c, 1, 56, 80
3, 25724, Note_off_c, 1, 65, 100
3, 25724, Note_off_c, 1, 62, 100
3, 25724, Note_off_c, 1, 56, 100
3, 25728, Note_on_c, 1, 63, 80
3, 25728, Note_on_c, 1, 58, 80
3, 25728, Note_on_c, 1, 54, 80
3, 26108, Note_off_c, 1, 63, 100
3, 26108, Note_off_c, 1, 58, 100
3, 26108, Note_off_c, 1, 54, 100
3, 26112, Note_on_c, 1, 63, 80
3, 26112, Note_on_c, 1, 58, 80
3, 26112, Note_on_c, 1, 54, 80
3, 26492, Note_off_c, 1, 63, 100
3, 26492, Note_off_c, 1, 58, 100
3, 26492, Note_off_c, 1, 54, 100
3, 26496, Note_on_c, 1, 63, 80
3, 26496, Note_on_c, 1, 57, 80
3, 26496, Note_on_c, 1, 54, 80
3, 26876, Note_off_c, 1, 63, 100
3, 26876, Note_off_c, 1, 57, 100
3, 26876, Note_off_c, 1, 54, 100
3, 26880, Note_on_c, 1, 63, 80
3, 26880, Note_on_c, 1, 56, 80
3, 26880, Note_on_c, 1, 54, 80
3, 27260, Note_off_c, 1, 63, 100
3, 27260, Note_off_c, 1, 56, 100
3, 27260, Note_off_c, 1, 54, 100
3, 27264, Note_on_c, 1, 63, 80
3, 27264, Note_on_c, 1, 57, 80
3, 27264, Note_on_c, 1, 54, 80
3, 27644, Note_off_c, 1, 63, 100
3, 27644, Note_off_c, 1, 57, 100
3, 27644, Note_off_c, 1, 54, 100
3, 27648, Note_on_c, 1, 63, 80
3, 27648, Note_on_c, 1, 56, 80
3, 27648, Note_on_c, 1, 54, 80
3, 28028, Note_off_c, 1, 63, 100
3, 28028, Note_off_c, 1, 56, 100
3, 28028, Note_off_c, 1, 54, 100
3, 28032, Note_on_c, 1, 63, 80
3, 28032, Note_on_c, 1, 57, 80
3, 28032, Note_on_c, 1, 54, 80
3, 28412, Note_off_c, 1, 63, 100
3, 28412, Note_off_c, 1, 57, 100
3, 28412, Note_off_c, 1, 54, 100
3, 28416, Note_on_c, 1, 63, 80
3, 28416, Note_on_c, 1, 56, 80
3, 28416, Note_on_c, 1, 54, 80
3, 28796, Note_off_c, 1, 63, 100
3, 28796, Note_off_c, 1, 56, 100
3, 28796, Note_off_c, 1, 54, 100
3, 29184, Note_on_c, 1, 63, 80
3, 29184, Note_on_c, 1, 58, 80
3, 29184, Note_on_c, 1, 54, 80
3, 29564, Note_off_c, 1, 63, 100
3, 29564, Note_off_c, 1, 58, 100
3, 29564, Note_off_c, 1, 54, 100
3, 29568, Note_on_c, 1, 63, 80
3, 29568, Note_on_c, 1, 57, 80
3, 29568, Note_on_c, 1, 54, 80
3, 29948, Note_off_c, 1, 63, 100
3, 29948, Note_off_c, 1, 57, 100
3, 29948, Note_off_c, 1, 54, 100
3, 29952, Note_on_c, 1, 63, 80
3, 29952, Note_on_c, 1, 56, 80
3, 29952, Note_on_c, 1, 54, 80
3, 30332, Note_off_c, 1, 63, 100
3, 30332, Note_off_c, 1, 56, 100
3, 30332, Note_off_c, 1, 54, 100
3, 30336, Note_on_c, 1, 63, 80
3, 30336, Note_on_c, 1, 57, 80
3, 30336, Note_on_c, 1, 54, 80
3, 30716, Note_off_c, 1, 63, 100
3, 30716, Note_off_c, 1, 57, 100
3, 30716, Note_off_c, 1, 54, 100
3, 30720, Note_on_c, 1, 63, 80
3, 30720, Note_on_c, 1, 56, 80
3, 30720, Note_on_c, 1, 54, 80
3, 31100, Note_off_c, 1, 63, 100
3, 31100, Note_off_c, 1, 56, 100
3, 31100, Note_off_c, 1, 54, 100
3, 31104, Note_on_c, 1, 63, 80
3, 31104, Note_on_c, 1, 57, 80
3, 31104, Note_on_c, 1, 54, 80
3, 31484, Note_off_c, 1, 63, 100
3, 31484, Note_off_c, 1, 57, 100
3, 31484, Note_off_c, 1, 54, 100
3, 31488, Note_on_c, 1, 63, 80
3, 31488, Note_on_c, 1, 56, 80
3, 31488, Note_on_c, 1, 54, 80
3, 31868, Note_off_c, 1, 63, 100
3, 31868, Note_off_c, 1, 56, 100
3, 31868, Note_off_c, 1, 54, 100
3, 32256, Note_on_c, 1, 63, 80
3, 32256, Note_on_c, 1, 58, 80
3, 32256, Note_on_c, 1, 54, 80
3, 32636, Note_off_c, 1, 63, 100
3, 32636, Note_off_c, 1, 58, 100
3, 32636, Note_off_c, 1, 54, 100
3, 32640, Note_on_c, 1, 63, 80
3, 32640, Note_on_c, 1, 56, 80
3, 32640, Note_on_c, 1, 54, 80
3, 33020, Note_off_c, 1, 63, 100
3, 33020, Note_off_c, 1, 56, 100
3, 33020, Note_off_c, 1, 54, 100
3, 33024, Note_on_c, 1, 61, 83
3, 33024, Note_on_c, 1, 56, 83
3, 33024, Note_on_c, 1, 53, 83
3, 33404, Note_off_c, 1, 61, 100
3, 33404, Note_off_c, 1, 56, 100
3, 33404, Note_off_c, 1, 53, 100
3, 33408, Note_on_c, 1, 61, 87
3, 33408, Note_on_c, 1, 56, 87
3, 33408, Note_on_c, 1, 53, 87
3, 33788, Note_off_c, 1, 61, 100
3, 33788, Note_off_c, 1, 56, 100
3, 33788, Note_off_c, 1, 53, 100
3, 33792, Note_on_c, 1, 61, 91
3, 33792, Note_on_c, 1, 56, 91
3, 33792, Note_on_c, 1, 53, 91
3, 34172, Note_off_c, 1, 61, 100
3, 34172, Note_off_c, 1, 56, 100
3, 34172, Note_off_c, 1, 53, 100
3, 34176, Note_on_c, 1, 61, 95
3, 34176, Note_on_c, 1, 55, 95
3, 34176, Note_on_c, 1, 52, 95
3, 34556, Note_off_c, 1, 61, 100
3, 34556, Note_off_c, 1, 55, 100
3, 34556, Note_off_c, 1, 52, 100
3, 34560, Note_on_c, 1, 61, 99
3, 34560, Note_on_c, 1, 55, 99
3, 34560, Note_on_c, 1, 52, 99
3, 34940, Note_off_c, 1, 61, 100
3, 34940, Note_off_c, 1, 55, 100
3, 34940, Note_off_c, 1, 52, 100
3, 34944, Note_on_c, 1, 61, 103
3, 34944, Note_on_c, 1, 55, 103
3, 34944, Note_on_c, 1, 52, 103
3, 35324, Note_off_c, 1, 61, 100
3, 35324, Note_off_c, 1, 55, 100
3, 35324, Note_off_c, 1, 52, 100
3, 35328, Note_on_c, 1, 61, 107
3, 35328, Note_on_c, 1, 55, 107
3, 35328, Note_on_c, 1, 52, 107
3, 35708, Note_off_c, 1, 61, 100
3, 35708, Note_off_c, 1, 55, 100
3, 35708, Note_off_c, 1, 52, 100
3, 35712, Note_on_c, 1, 55, 110
3, 35712, Note_on_c, 1, 52, 110
3, 35712, Note_on_c, 1, 49, 110
3, 35712, Note_on_c, 1, 45, 110
3, 36092, Note_off_c, 1, 55, 100
3, 36092, Note_off_c, 1, 52, 100
3, 36092, Note_off_c, 1, 49, 100
3, 36092, Note_off_c, 1, 45, 100
3, 36096, Note_on_c, 1, 55, 111
3, 36096, Note_on_c, 1, 52, 111
3, 36096, Note_on_c, 1, 49, 111
3, 36096, Note_on_c, 1, 45, 111
3, 36476, Note_off_c, 1, 55, 100
3, 36476, Note_off_c, 1, 52, 100
3, 36476, Note_off_c, 1, 49, 100
3, 36476, Note_off_c, 1, 45, 100
3, 36480, Note_on_c, 1, 55, 112
3, 36480, Note_on_c, 1, 52, 112
3, 36480, Note_on_c, 1, 49, 112
3, 36480, Note_on_c, 1, 45, 112
3, 36860, Note_off_c, 1, 55, 100
3, 36860, Note_off_c, 1, 52, 100
3, 36860, Note_off_c, 1, 49, 100
3, 36860, Note_off_c, 1, 45, 100
3, 36864, Note_on_c, 1, 55, 113
3, 36864, Note_on_c, 1, 52, 113
3, 36864, Note_on_c, 1, 49, 113
3, 36864, Note_on_c, 1, 45, 113
3, 37244, Note_off_c, 1, 55, 100
3, 37244, Note_off_c, 1, 52, 100
3, 37244, Note_off_c, 1, 49, 100
3, 37244, Note_off_c, 1, 45, 100
3, 37248, Note_on_c, 1, 63, 110
3, 37248, Note_on_c, 1, 56, 110
3, 37296, Note_on_c, 1, 65, 110
3, 37340, Note_off_c, 1, 63, 100
3, 37344, Note_on_c, 1, 63, 110
3, 37388, Note_off_c, 1, 65, 100
3, 37392, Note_on_c, 1, 65, 110
3, 37436, Note_off_c, 1, 63, 100
3, 37440, Note_on_c, 1, 63, 110
3, 37484, Note_off_c, 1, 65, 100
3, 37488, Note_on_c, 1, 65, 110
3, 37532, Note_off_c, 1, 63, 100
3, 37536, Note_on_c, 1, 63, 110
3, 37580, Note_off_c, 1, 65, 100
3, 37584, Note_on_c, 1, 65, 110
3, 37628, Note_off_c, 1, 63, 100
3, 37632, Note_on_c, 1, 63, 110
3, 37676, Note_off_c, 1, 65, 100
3, 37680, Note_on_c, 1, 65, 110
3, 37724, Note_off_c, 1, 63, 100
3, 37728, Note_on_c, 1, 63, 110
3, 37772, Note_off_c, 1, 65, 100
3, 37776, Note_on_c, 1, 65, 110
3, 37820, Note_off_c, 1, 63, 100
3, 37824, Note_on_c, 1, 63, 110
3, 37868, Note_off_c, 1, 65, 100
3, 37872, Note_on_c, 1, 65, 110
3, 37916, Note_off_c, 1, 63, 100
3, 37920, Note_on_c, 1, 63, 110
3, 37964, Note_off_c, 1, 65, 100
3, 37968, Note_on_c, 1, 65, 110
3, 38012, Note_off_c, 1, 63, 100
3, 38016, Note_on_c, 1, 63, 110
3, 38060, Note_off_c, 1, 65, 100
3, 38064, Note_on_c, 1, 65, 110
3, 38108, Note_off_c, 1, 63, 100
3, 38112, Note_on_c, 1, 63, 110
3, 38156, Note_off_c, 1, 65, 100
3, 38160, Note_on_c, 1, 65, 110
3, 38204, Note_off_c, 1, 63, 100
3, 38208, Note_on_c, 1, 63, 110
3, 38252, Note_off_c, 1, 65, 100
3, 38256, Note_on_c, 1, 65, 110
3, 38300, Note_off_c, 1, 63, 100
3, 38304, Note_on_c, 1, 63, 110
3, 38348, Note_off_c, 1, 65, 100
3, 38352, Note_on_c, 1, 65, 110
3, 38396, Note_off_c, 1, 63, 100
3, 38400, Note_on_c, 1, 63, 110
3, 38444, Note_off_c, 1, 65, 100
3, 38448, Note_on_c, 1, 65, 110
3, 38492, Note_off_c, 1, 63, 100
3, 38496, Note_on_c, 1, 63, 110
3, 38540, Note_off_c, 1, 65, 100
3, 38544, Note_on_c, 1, 65, 110
3, 38588, Note_off_c, 1, 63, 100
3, 38592, Note_on_c, 1, 63, 110
3, 38636, Note_off_c, 1, 65, 100
3, 38640, Note_on_c, 1, 65, 110
3, 38684, Note_off_c, 1, 63, 100
3, 38688, Note_on_c, 1, 61, 110
3, 38732, Note_off_c, 1, 65, 100
3, 38736, Note_on_c, 1, 63, 110
3, 38780, Note_off_c, 1, 56, 100
3, 38780, Note_off_c, 1, 61, 100
3, 38780, Note_off_c, 1, 63, 100
3, 38784, Note_on_c, 1, 61, 120
3, 38784, Note_on_c, 1, 49, 120
3, 39164, Note_off_c, 1, 61, 100
3, 39164, Note_off_c, 1, 49, 100
3, 39552, Note_on_c, 1, 61, 80
3, 39676, Note_off_c, 1, 61, 100
3, 39680, Note_on_c, 1, 63, 80
3, 39804, Note_off_c, 1, 63, 100
3, 39808, Note_on_c, 1, 65, 80
3, 39932, Note_off_c, 1, 65, 100
3, 39936, Note_on_c, 1, 66, 80
3, 40060, Note_off_c, 1, 66, 100
3, 40064, Note_on_c, 1, 61, 80
3, 40188, Note_off_c, 1, 61, 100
3, 40192, Note_on_c, 1, 66, 80
3, 40316, Note_off_c, 1, 66, 100
3, 40320, Note_on_c, 1, 65, 80
3, 40320, Note_on_c, 1, 61, 80
3, 40700, Note_off_c, 1, 65, 100
3, 40700, Note_off_c, 1, 61, 100
3, 41088, Note_on_c, 1, 49, 80
3, 41212, Note_off_c, 1, 49, 100
3, 41216, Note_on_c, 1, 51, 80
3, 41340, Note_off_c, 1, 51, 100
3, 41344, Note_on_c, 1, 53, 80
3, 41468, Note_off_c, 1, 53, 100
3, 41472, Note_on_c, 1, 54, 80
3, 41472, Note_on_c, 1, 44, 80
3, 41596, Note_off_c, 1, 54, 100
3, 41600, Note_on_c, 1, 51, 80
3, 41724, Note_off_c, 1, 51, 100
3, 41728, Note_on_c, 1, 56, 80
3, 41852, Note_off_c, 1, 44, 100
3, 41852, Note_off_c, 1, 56, 100
3, 41856, Note_on_c, 1, 49, 80
3, 41856, Note_on_c, 1, 53, 80
3, 42236, Note_off_c, 1, 49, 100
3, 42236, Note_off_c, 1, 53, 100
3, 42624, Note_on_c, 1, 61, 84
3, 42748, Note_off_c, 1, 61, 100
3, 42752, Note_on_c, 1, 63, 85
3, 42876, Note_off_c, 1, 63, 100
3, 42880, Note_on_c, 1, 65, 87
3, 43004, Note_off_c, 1, 65, 100
3, 43008, Note_on_c, 1, 66, 88
3, 43132, Note_off_c, 1, 66, 100
3, 43136, Note_on_c, 1, 61, 89
3, 43260, Note_off_c, 1, 61, 100
3, 43264, Note_on_c, 1, 66, 91
3, 43388, Note_off_c, 1, 66, 100
3, 43392, Note_on_c, 1, 65, 92
3, 43392, Note_on_c, 1, 61, 92
3, 43772, Note_off_c, 1, 65, 100
3, 43772, Note_off_c, 1, 61, 100
3, 44160, Note_on_c, 1, 65, 110
3, 44160, Note_on_c, 1, 58, 110
3, 44540, Note_off_c, 1, 65, 100
3, 44540, Note_off_c, 1, 58, 100
3, 44544, Note_on_c, 1, 63, 110
3, 44544, Note_on_c, 1, 51, 110
3, 44924, Note_off_c, 1, 63, 100
3, 44924, Note_off_c, 1, 51, 100
3, 44928, Note_on_c, 1, 63, 110
3, 44928, Note_on_c, 1, 56, 110
3, 45692, Note_off_c, 1, 63, 100
3, 45692, Note_off_c, 1, 56, 100
3, 45696, Note_on_c, 1, 54, 80
3, 45696, Note_on_c, 1, 51, 80
3, 45696, Note_on_c, 1, 44, 80
3, 46460, Note_off_c, 1, 54, 100
3, 46460, Note_off_c, 1, 51, 100
3, 46460, Note_off_c, 1, 44, 100
3, 46464, Note_on_c, 1, 53, 80
3, 46464, Note_on_c, 1, 49, 80
3, 46844, Note_off_c, 1, 53, 100
3, 46844, Note_off_c, 1, 49, 100
3, 47232, Note_on_c, 1, 77, 110
3, 47232, Note_on_c, 1, 70, 110
3, 47612, Note_off_c, 1, 77, 100
3, 47612, Note_off_c, 1, 70, 100
3, 47616, Note_on_c, 1, 75, 110
3, 47616, Note_on_c, 1, 63, 110
3, 47996, Note_off_c, 1, 75, 100
3, 47996, Note_off_c, 1, 63, 100
3, 48000, Note_on_c, 1, 75, 110
3, 48000, Note_on_c, 1, 68, 110
3, 48764, Note_off_c, 1, 75, 100
3, 48764, Note_off_c, 1, 68, 100
3, 48768, Note_on_c, 1, 66, 80
3, 48768, Note_on_c, 1, 63, 80
3, 48768, Note_on_c, 1, 56, 80
3, 49532, Note_off_c, 1, 66, 100
3, 49532, Note_off_c, 1, 63, 100
3, 49532, Note_off_c, 1, 56, 100
3, 49536, Note_on_c, 1, 61, 80
3, 49536, Note_on_c, 1, 65, 80
3, 49916, Note_off_c, 1, 61, 100
3, 49916, Note_off_c, 1, 65, 100
3, 50304, Note_on_c, 1, 54, 80
3, 50304, Note_on_c, 1, 51, 80
3, 50304, Note_on_c, 1, 44, 80
3, 51068, Note_off_c, 1, 54, 100
3, 51068, Note_off_c, 1, 51, 100
3, 51068, Note_off_c, 1, 44, 100
3, 51072, Note_on_c, 1, 49, 80
3, 51072, Note_on_c, 1, 53, 80
3, 51452, Note_off_c, 1, 49, 100
3, 51452, Note_off_c, 1, 53, 100
3, 51840, Note_on_c, 1, 42, 80
3, 51932, Note_off_c, 1, 42, 100
3, 51936, Note_on_c, 1, 44, 80
3, 52028, Note_off_c, 1, 44, 100
3, 52032, Note_on_c, 1, 42, 80
3, 52124, Note_off_c, 1, 42, 100
3, 52128, Note_on_c, 1, 41, 80
3, 52220, Note_off_c, 1, 41, 100
3, 52224, Note_on_c, 1, 42, 80
3, 52316, Note_off_c, 1, 42, 100
3, 52320, Note_on_c, 1, 44, 80
3, 52412, Note_off_c, 1, 44, 100
3, 52416, Note_on_c, 1, 46, 80
3, 52508, Note_off_c, 1, 46, 100
3, 52512, Note_on_c, 1, 48, 80
3, 52604, Note_off_c, 1, 48, 100
3, 52608, Note_on_c, 1, 49, 80
3, 52700, Note_off_c, 1, 49, 100
3, 52704, Note_on_c, 1, 51, 80
3, 52796, Note_off_c, 1, 51, 100
3, 52800, Note_on_c, 1, 53, 80
3, 52892, Note_off_c, 1, 53, 100
3, 52896, Note_on_c, 1, 54, 80
3, 52988, Note_off_c, 1, 54, 100
3, 52992, Note_on_c, 1, 56, 80
3, 53084, Note_off_c, 1, 56, 100
3, 53088, Note_on_c, 1, 54, 80
3, 53180, Note_off_c, 1, 54, 100
3, 53184, Note_on_c, 1, 53, 80
3, 53276, Note_off_c, 1, 53, 100
3, 53280, Note_on_c, 1, 51, 80
3, 53372, Note_off_c, 1, 51, 100
3, 53376, Note_on_c, 1, 49, 80
3, 53468, Note_off_c, 1, 49, 100
3, 53472, Note_on_c, 1, 48, 80
3, 53564, Note_off_c, 1, 48, 100
3, 53568, Note_on_c, 1, 46, 80
3, 53660, Note_off_c, 1, 46, 100
3, 53664, Note_on_c, 1, 44, 80
3, 53756, Note_off_c, 1, 44, 100
3, 53760, Note_on_c, 1, 46, 80
3, 53852, Note_off_c, 1, 46, 100
3, 53856, Note_on_c, 1, 44, 80
3, 53948, Note_off_c, 1, 44, 100
3, 53952, Note_on_c, 1, 46, 80
3, 54044, Note_off_c, 1, 46, 100
3, 54048, Note_on_c, 1, 48, 80
3, 54140, Note_off_c, 1, 48, 100
3, 54144, Note_on_c, 1, 49, 80
3, 54236, Note_off_c, 1, 49, 100
3, 54240, Note_on_c, 1, 51, 80
3, 54332, Note_off_c, 1, 51, 100
3, 54336, Note_on_c, 1, 53, 80
3, 54428, Note_off_c, 1, 53, 100
3, 54432, Note_on_c, 1, 54, 80
3, 54524, Note_off_c, 1, 54, 100
3, 54528, Note_on_c, 1, 56, 80
3, 54620, Note_off_c, 1, 56, 100
3, 54624, Note_on_c, 1, 54, 80
3, 54716, Note_off_c, 1, 54, 100
3, 54720, Note_on_c, 1, 53, 80
3, 54812, Note_off_c, 1, 53, 100
3, 54816, Note_on_c, 1, 54, 80
3, 54908, Note_off_c, 1, 54, 100
3, 54912, Note_on_c, 1, 56, 80
3, 55004, Note_off_c, 1, 56, 100
3, 55008, Note_on_c, 1, 54, 80
3, 55100, Note_off_c, 1, 54, 100
3, 55104, Note_on_c, 1, 53, 80
3, 55196, Note_off_c, 1, 53, 100
3, 55200, Note_on_c, 1, 51, 80
3, 55292, Note_off_c, 1, 51, 100
3, 55296, Note_on_c, 1, 49, 80
3, 55388, Note_off_c, 1, 49, 100
3, 55392, Note_on_c, 1, 47, 80
3, 55484, Note_off_c, 1, 47, 100
3, 55488, Note_on_c, 1, 46, 80
3, 55580, Note_off_c, 1, 46, 100
3, 55584, Note_on_c, 1, 44, 80
3, 55676, Note_off_c, 1, 44, 100
3, 55680, Note_on_c, 1, 42, 80
3, 55868, Note_off_c, 1, 42, 100
3, 55872, Note_on_c, 1, 54, 80
3, 56060, Note_off_c, 1, 54, 100
3, 56064, Note_on_c, 1, 58, 80
3, 56252, Note_off_c, 1, 58, 100
3, 56256, Note_on_c, 1, 54, 80
3, 56444, Note_off_c, 1, 54, 100
3, 56448, Note_on_c, 1, 59, 80
3, 56636, Note_off_c, 1, 59, 100
3, 56640, Note_on_c, 1, 54, 80
3, 56828, Note_off_c, 1, 54, 100
3, 56832, Note_on_c, 1, 58, 80
3, 57020, Note_off_c, 1, 58, 100
3, 57024, Note_on_c, 1, 54, 80
3, 57212, Note_off_c, 1, 54, 100
3, 57216, Note_on_c, 1, 56, 80
3, 57404, Note_off_c, 1, 56, 100
3, 57408, Note_on_c, 1, 49, 80
3, 57596, Note_off_c, 1, 49, 100
3, 57600, Note_on_c, 1, 56, 80
3, 57788, Note_off_c, 1, 56, 100
3, 57792, Note_on_c, 1, 49, 80
3, 57980, Note_off_c, 1, 49, 100
3, 57984, Note_on_c, 1, 56, 80
3, 58172, Note_off_c, 1, 56, 100
3, 58176, Note_on_c, 1, 49, 80
3, 58364, Note_off_c, 1, 49, 100
3, 58368, Note_on_c, 1, 53, 80
3, 58556, Note_off_c, 1, 53, 100
3, 58560, Note_on_c, 1, 49, 80
3, 58748, Note_off_c, 1, 49, 100
3, 58752, Note_on_c, 1, 42, 80
3, 58944, Note_on_c, 1, 54, 80
3, 59132, Note_off_c, 1, 54, 100
3, 59136, Note_on_c, 1, 47, 80
3, 59324, Note_off_c, 1, 47, 100
3, 59328, Note_on_c, 1, 54, 80
3, 59516, Note_off_c, 1, 54, 100
3, 59520, Note_on_c, 1, 46, 80
3, 59708, Note_off_c, 1, 46, 100
3, 59712, Note_on_c, 1, 54, 80
3, 59900, Note_off_c, 1, 42, 100
3, 59900, Note_off_c, 1, 54, 100
3, 59904, Note_on_c, 1, 42, 80
3, 59904, Note_on_c, 1, 51, 80
3, 60092, Note_off_c, 1, 51, 100
3, 60096, Note_on_c, 1, 54, 80
3, 60284, Note_off_c, 1, 42, 100
3, 60284, Note_off_c, 1, 54, 100
3, 60288, Note_on_c, 1, 42, 80
3, 60288, Note_on_c, 1, 49, 80
3, 60476, Note_off_c, 1, 49, 100
3, 60480, Note_on_c, 1, 54, 80
3, 60668, Note_off_c, 1, 42, 100
3, 60668, Note_off_c, 1, 54, 100
3, 60672, Note_on_c, 1, 42, 80
3, 60672, Note_on_c, 1, 47, 80
3, 60860, Note_off_c, 1, 47, 100
3, 60864, Note_on_c, 1, 54, 80
3, 61052, Note_off_c, 1, 42, 100
3, 61052, Note_off_c, 1, 54, 100
3, 61056, Note_on_c, 1, 42, 80
3, 61056, Note_on_c, 1, 46, 80
3, 61244, Note_off_c, 1, 46, 100
3, 61248, Note_on_c, 1, 54, 80
3, 61436, Note_off_c, 1, 42, 100
3, 61436, Note_off_c, 1, 54, 100
3, 62208, Note_on_c, 1, 49, 80
3, 62300, Note_off_c, 1, 49, 100
3, 62304, Note_on_c, 1, 53, 80
3, 62396, Note_off_c, 1, 53, 100
3, 62400, Note_on_c, 1, 56, 80
3, 62492, Note_off_c, 1, 56, 100
3, 62496, Note_on_c, 1, 59, 80
3, 62588, Note_off_c, 1, 59, 100
3, 62592, Note_on_c, 1, 47, 80
3, 62972, Note_off_c, 1, 47, 100
3, 63744, Note_on_c, 1, 46, 80
3, 63836, Note_off_c, 1, 46, 100
3, 63840, Note_on_c, 1, 49, 80
3, 63932, Note_off_c, 1, 49, 100
3, 63936, Note_on_c, 1, 54, 80
3, 64028, Note_off_c, 1, 54, 100
3, 64032, Note_on_c, 1, 58, 80
3, 64124, Note_off_c, 1, 58, 100
3, 64128, Note_on_c, 1, 46, 80
3, 64508, Note_off_c, 1, 46, 100
3, 64512, Note_on_c, 1, 42, 80
3, 64636, Note_off_c, 1, 42, 100
3, 64640, Note_on_c, 1, 44, 80
3, 64764, Note_off_c, 1, 44, 100
3, 64768, Note_on_c, 1, 46, 80
3, 64892, Note_off_c, 1, 46, 100
3, 64896, Note_on_c, 1, 47, 80
3, 65660, Note_off_c, 1, 47, 100
3, 65664, Note_on_c, 1, 49, 80
3, 66048, Note_on_c, 1, 59, 80
3, 66428, Note_off_c, 1, 49, 100
3, 66428, Note_off_c, 1, 59, 100
3, 66432, Note_on_c, 1, 58, 80
3, 66432, Note_on_c, 1, 54, 80
3, 66812, Note_off_c, 1, 58, 100
3, 66812, Note_off_c, 1, 54, 100
3, 66816, Note_on_c, 1, 56, 80
3, 66816, Note_on_c, 1, 49, 80
3, 67196, Note_off_c, 1, 56, 100
3, 67196, Note_off_c, 1, 49, 100
3, 67200, Note_on_c, 1, 54, 80
3, 67200, Note_on_c, 1, 42, 80
3, 67580, Note_off_c, 1, 54, 100
3, 67580, Note_off_c, 1, 42, 100
3, 67968, Note_on_c, 1, 58, 80
3, 67968, Note_on_c, 1, 54, 80
3, 68348, Note_off_c, 1, 58, 100
3, 68348, Note_off_c, 1, 54, 100
3, 68736, Note_on_c, 1, 56, 80
3, 68736, Note_on_c, 1, 51, 80
3, 68736, Note_on_c, 1, 47, 80
3, 69116, Note_off_c, 1, 56, 100
3, 69116, Note_off_c, 1, 51, 100
3, 69116, Note_off_c, 1, 47, 100
3, 69504, Note_on_c, 1, 49, 80
3, 69884, Note_off_c, 1, 49, 100
3, 69888, Note_on_c, 1, 42, 80
3, 70268, Note_off_c, 1, 42, 100
3, 70272, Note_on_c, 1, 37, 80
3, 70652, Note_off_c, 1, 37, 100
3, 71040, Note_on_c, 1, 59, 80
3, 71040, Note_on_c, 1, 56, 80
3, 71040, Note_on_c, 1, 53, 80
3, 71420, Note_off_c, 1, 59, 100
3, 71420, Note_off_c, 1, 56, 100
3, 71420, Note_off_c, 1, 53, 100
3, 71808, Note_on_c, 1, 59, 80
3, 71808, Note_on_c, 1, 56, 80
3, 71808, Note_on_c, 1, 53, 80
3, 71808, Note_on_c, 1, 49, 80
3, 72188, Note_off_c, 1, 59, 100
3, 72188, Note_off_c, 1, 56, 100
3, 72188, Note_off_c, 1, 53, 100
3, 72188, Note_off_c, 1, 49, 100
3, 72576, Note_on_c, 1, 58, 80
3, 72576, Note_on_c, 1, 54, 80
3, 72956, Note_off_c, 1, 58, 100
3, 72956, Note_off_c, 1, 54, 100
3, 73728, Note_on_c, 1, 70, 80
3, 73728, Note_on_c, 1, 66, 80
3, 74108, Note_off_c, 1, 70, 100
3, 74108, Note_off_c, 1, 66, 100
3, 74112, Note_on_c, 1, 71, 80
3, 74112, Note_on_c, 1, 68, 80
3, 75260, Note_off_c, 1, 71, 100
3, 75260, Note_off_c, 1, 68, 100
3, 75264, Note_on_c, 1, 71, 109
3, 75264, Note_on_c, 1, 68, 109
3, 75644, Note_off_c, 1, 71, 100
3, 75644, Note_off_c, 1, 68, 100
3, 75648, Note_on_c, 1, 70, 80
3, 75648, Note_on_c, 1, 68, 80
3, 76412, Note_off_c, 1, 70, 100
3, 76412, Note_off_c, 1, 68, 100
3, 76416, Note_on_c, 1, 68, 80
3, 76416, Note_on_c, 1, 65, 80
3, 76796, Note_off_c, 1, 68, 100
3, 76796, Note_off_c, 1, 65, 100
3, 76800, Note_on_c, 1, 68, 80
3, 76800, Note_on_c, 1, 65, 80
3, 76800, Note_on_c, 1, 58, 80
3, 77180, Note_off_c, 1, 68, 100
3, 77180, Note_off_c, 1, 65, 100
3, 77180, Note_off_c, 1, 58, 100
3, 77184, Note_on_c, 1, 63, 80
3, 77184, Note_on_c, 1, 58, 80
3, 77184, Note_on_c, 1, 66, 80
3, 77564, Note_off_c, 1, 63, 100
3, 77564, Note_off_c, 1, 58, 100
3, 77564, Note_off_c, 1, 66, 100
3, 77568, Note_on_c, 1, 65, 80
3, 77568, Note_on_c, 1, 62, 80
3, 77568, Note_on_c, 1, 56, 80
3, 77948, Note_off_c, 1, 65, 100
3, 77948, Note_off_c, 1, 62, 100
3, 77948, Note_off_c, 1, 56, 100
3, 77952, Note_on_c, 1, 63, 80
3, 77952, Note_on_c, 1, 58, 80
3, 77952, Note_on_c, 1, 54, 80
3, 78332, Note_off_c, 1, 63, 100
3, 78332, Note_off_c, 1, 58, 100
3, 78332, Note_off_c, 1, 54, 100
3, 78336, Note_on_c, 1, 63, 80
3, 78336, Note_on_c, 1, 58, 80
3, 78336, Note_on_c, 1, 54, 80
3, 78716, Note_off_c, 1, 63, 100
3, 78716, Note_off_c, 1, 58, 100
3, 78716, Note_off_c, 1, 54, 100
3, 78720, Note_on_c, 1, 63, 80
3, 78720, Note_on_c, 1, 57, 80
3, 78720, Note_on_c, 1, 54, 80
3, 79100, Note_off_c, 1, 63, 100
3, 79100, Note_off_c, 1, 57, 100
3, 79100, Note_off_c, 1, 54, 100
3, 79104, Note_on_c, 1, 63, 80
3, 79104, Note_on_c, 1, 56, 80
3, 79104, Note_on_c, 1, 54, 80
3, 79484, Note_off_c, 1, 63, 100
3, 79484, Note_off_c, 1, 56, 100
3, 79484, Note_off_c, 1, 54, 100
3, 79488, Note_on_c, 1, 63, 80
3, 79488, Note_on_c, 1, 57, 80
3, 79488, Note_on_c, 1, 54, 80
3, 79868, Note_off_c, 1, 63, 100
3, 79868, Note_off_c, 1, 57, 100
3, 79868, Note_off_c, 1, 54, 100
3, 79872, Note_on_c, 1, 63, 80
3, 79872, Note_on_c, 1, 56, 80
3, 79872, Note_on_c, 1, 54, 80
3, 80252, Note_off_c, 1, 63, 100
3, 80252, Note_off_c, 1, 56, 100
3, 80252, Note_off_c, 1, 54, 100
3, 80256, Note_on_c, 1, 63, 80
3, 80256, Note_on_c, 1, 57, 80
3, 80256, Note_on_c, 1, 54, 80
3, 80636, Note_off_c, 1, 63, 100
3, 80636, Note_off_c, 1, 57, 100
3, 80636, Note_off_c, 1, 54, 100
3, 80640, Note_on_c, 1, 63, 80
3, 80640, Note_on_c, 1, 56, 80
3, 80640, Note_on_c, 1, 54, 80
3, 81020, Note_off_c, 1, 63, 100
3, 81020, Note_off_c, 1, 56, 100
3, 81020, Note_off_c, 1, 54, 100
3, 81408, Note_on_c, 1, 63, 80
3, 81408, Note_on_c, 1, 58, 80
3, 81408, Note_on_c, 1, 54, 80
3, 81788, Note_off_c, 1, 63, 100
3, 81788, Note_off_c, 1, 58, 100
3, 81788, Note_off_c, 1, 54, 100
3, 81792, Note_on_c, 1, 63, 80
3, 81792, Note_on_c, 1, 57, 80
3, 81792, Note_on_c, 1, 54, 80
3, 82172, Note_off_c, 1, 63, 100
3, 82172, Note_off_c, 1, 57, 100
3, 82172, Note_off_c, 1, 54, 100
3, 82176, Note_on_c, 1, 63, 80
3, 82176, Note_on_c, 1, 56, 80
3, 82176, Note_on_c, 1, 54, 80
3, 82556, Note_off_c, 1, 63, 100
3, 82556, Note_off_c, 1, 56, 100
3, 82556, Note_off_c, 1, 54, 100
3, 82560, Note_on_c, 1, 63, 80
3, 82560, Note_on_c, 1, 57, 80
3, 82560, Note_on_c, 1, 54, 80
3, 82940, Note_off_c, 1, 63, 100
3, 82940, Note_off_c, 1, 57, 100
3, 82940, Note_off_c, 1, 54, 100
3, 82944, Note_on_c, 1, 63, 80
3, 82944, Note_on_c, 1, 56, 80
3, 82944, Note_on_c, 1, 54, 80
3, 83324, Note_off_c, 1, 63, 100
3, 83324, Note_off_c, 1, 56, 100
3, 83324, Note_off_c, 1, 54, 100
3, 83328, Note_on_c, 1, 63, 80
3, 83328, Note_on_c, 1, 57, 80
3, 83328, Note_on_c, 1, 54, 80
3, 83708, Note_off_c, 1, 63, 100
3, 83708, Note_off_c, 1, 57, 100
3, 83708, Note_off_c, 1, 54, 100
3, 83712, Note_on_c, 1, 63, 80
3, 83712, Note_on_c, 1, 56, 80
3, 83712, Note_on_c, 1, 54, 80
3, 84092, Note_off_c, 1, 63, 100
3, 84092, Note_off_c, 1, 56, 100
3, 84092, Note_off_c, 1, 54, 100
3, 84480, Note_on_c, 1, 63, 80
3, 84480, Note_on_c, 1, 58, 80
3, 84480, Note_on_c, 1, 54, 80
3, 84860, Note_off_c, 1, 63, 100
3, 84860, Note_off_c, 1, 58, 100
3, 84860, Note_off_c, 1, 54, 100
3, 84864, Note_on_c, 1, 63, 80
3, 84864, Note_on_c, 1, 56, 80
3, 84864, Note_on_c, 1, 54, 80
3, 85244, Note_off_c, 1, 63, 100
3, 85244, Note_off_c, 1, 56, 100
3, 85244, Note_off_c, 1, 54, 100
3, 85248, Note_on_c, 1, 61, 83
3, 85248, Note_on_c, 1, 56, 83
3, 85248, Note_on_c, 1, 53, 83
3, 85628, Note_off_c, 1, 61, 100
3, 85628, Note_off_c, 1, 56, 100
3, 85628, Note_off_c, 1, 53, 100
3, 85632, Note_on_c, 1, 61, 87
3, 85632, Note_on_c, 1, 56, 87
3, 85632, Note_on_c, 1, 53, 87
3, 86012, Note_off_c, 1, 61, 100
3, 86012, Note_off_c, 1, 56, 100
3, 86012, Note_off_c, 1, 53, 100
3, 86016, Note_on_c, 1, 61, 91
3, 86016, Note_on_c, 1, 56, 91
3, 86016, Note_on_c, 1, 53, 91
3, 86396, Note_off_c, 1, 61, 100
3, 86396, Note_off_c, 1, 56, 100
3, 86396, Note_off_c, 1, 53, 100
3, 86400, Note_on_c, 1, 61, 95
3, 86400, Note_on_c, 1, 55, 95
3, 86400, Note_on_c, 1, 52, 95
3, 86780, Note_off_c, 1, 61, 100
3, 86780, Note_off_c, 1, 55, 100
3, 86780, Note_off_c, 1, 52, 100
3, 86784, Note_on_c, 1, 61, 99
3, 86784, Note_on_c, 1, 55, 99
3, 86784, Note_on_c, 1, 52, 99
3, 87164, Note_off_c, 1, 61, 100
3, 87164, Note_off_c, 1, 55, 100
3, 87164, Note_off_c, 1, 52, 100
3, 87168, Note_on_c, 1, 61, 103
3, 87168, Note_on_c, 1, 55, 103
3, 87168, Note_on_c, 1, 52, 103
3, 87548, Note_off_c, 1, 61, 100
3, 87548, Note_off_c, 1, 55, 100
3, 87548, Note_off_c, 1, 52, 100
3, 87552, Note_on_c, 1, 61, 107
3, 87552, Note_on_c, 1, 55, 107
3, 87552, Note_on_c, 1, 52, 107
3, 87932, Note_off_c, 1, 61, 100
3, 87932, Note_off_c, 1, 55, 100
3, 87932, Note_off_c, 1, 52, 100
3, 87936, Note_on_c, 1, 55, 110
3, 87936, Note_on_c, 1, 52, 110
3, 87936, Note_on_c, 1, 49, 110
3, 87936, Note_on_c, 1, 45, 110
3, 88316, Note_off_c, 1, 55, 100
3, 88316, Note_off_c, 1, 52, 100
3, 88316, Note_off_c, 1, 49, 100
3, 88316, Note_off_c, 1, 45, 100
3, 88320, Note_on_c, 1, 55, 111
3, 88320, Note_on_c, 1, 52, 111
3, 88320, Note_on_c, 1, 49, 111
3, 88320, Note_on_c, 1, 45, 111
3, 88700, Note_off_c, 1, 55, 100
3, 88700, Note_off_c, 1, 52, 100
3, 88700, Note_off_c, 1, 49, 100
3, 88700, Note_off_c, 1, 45, 100
3, 88704, Note_on_c, 1, 55, 112
3, 88704, Note_on_c, 1, 52, 112
3, 88704, Note_on_c, 1, 49, 112
3, 88704, Note_on_c, 1, 45, 112
3, 89084, Note_off_c, 1, 55, 100
3, 89084, Note_off_c, 1, 52, 100
3, 89084, Note_off_c, 1, 49, 100
3, 89084, Note_off_c, 1, 45, 100
3, 89088, Note_on_c, 1, 55, 113
3, 89088, Note_on_c, 1, 52, 113
3, 89088, Note_on_c, 1, 49, 113
3, 89088, Note_on_c, 1, 45, 113
3, 89468, Note_off_c, 1, 55, 100
3, 89468, Note_off_c, 1, 52, 100
3, 89468, Note_off_c, 1, 49, 100
3, 89468, Note_off_c, 1, 45, 100
3, 89472, Note_on_c, 1, 63, 110
3, 89472, Note_on_c, 1, 56, 110
3, 89520, Note_on_c, 1, 65, 110
3, 89564, Note_off_c, 1, 63, 100
3, 89568, Note_on_c, 1, 63, 110
3, 89612, Note_off_c, 1, 65, 100
3, 89616, Note_on_c, 1, 65, 110
3, 89660, Note_off_c, 1, 63, 100
3, 89664, Note_on_c, 1, 63, 110
3, 89708, Note_off_c, 1, 65, 100
3, 89712, Note_on_c, 1, 65, 110
3, 89756, Note_off_c, 1, 63, 100
3, 89760, Note_on_c, 1, 63, 110
3, 89804, Note_off_c, 1, 65, 100
3, 89808, Note_on_c, 1, 65, 110
3, 89852, Note_off_c, 1, 63, 100
3, 89856, Note_on_c, 1, 63, 110
3, 89900, Note_off_c, 1, 65, 100
3, 89904, Note_on_c, 1, 65, 110
3, 89948, Note_off_c, 1, 63, 100
3, 89952, Note_on_c, 1, 63, 110
3, 89996, Note_off_c, 1, 65, 100
3, 90000, Note_on_c, 1, 65, 110
3, 90044, Note_off_c, 1, 63, 100
3, 90048, Note_on_c, 1, 63, 110
3, 90092, Note_off_c, 1, 65, 100
3, 90096, Note_on_c, 1, 65, 110
3, 90140, Note_off_c, 1, 63, 100
3, 90144, Note_on_c, 1, 63, 110
3, 90188, Note_off_c, 1, 65, 100
3, 90192, Note_on_c, 1, 65, 110
3, 90236, Note_off_c, 1, 63, 100
3, 90240, Note_on_c, 1, 63, 110
3, 90284, Note_off_c, 1, 65, 100
3, 90288, Note_on_c, 1, 65, 110
3, 90332, Note_off_c, 1, 63, 100
3, 90336, Note_on_c, 1, 63, 110
3, 90380, Note_off_c, 1, 65, 100
3, 90384, Note_on_c, 1, 65, 110
3, 90428, Note_off_c, 1, 63, 100
3, 90432, Note_on_c, 1, 63, 110
3, 90476, Note_off_c, 1, 65, 100
3, 90480, Note_on_c, 1, 65, 110
3, 90524, Note_off_c, 1, 63, 100
3, 90528, Note_on_c, 1, 63, 110
3, 90572, Note_off_c, 1, 65, 100
3, 90576, Note_on_c, 1, 65, 110
3, 90620, Note_off_c, 1, 63, 100
3, 90624, Note_on_c, 1, 63, 110
3, 90668, Note_off_c, 1, 65, 100
3, 90672, Note_on_c, 1, 65, 110
3, 90716, Note_off_c, 1, 63, 100
3, 90720, Note_on_c, 1, 63, 110
3, 90764, Note_off_c, 1, 65, 100
3, 90768, Note_on_c, 1, 65, 110
3, 90812, Note_off_c, 1, 63, 100
3, 90816, Note_on_c, 1, 63, 110
3, 90860, Note_off_c, 1, 65, 100
3, 90864, Note_on_c, 1, 65, 110
3, 90908, Note_off_c, 1, 63, 100
3, 90912, Note_on_c, 1, 61, 110
3, 90956, Note_off_c, 1, 65, 100
3, 90960, Note_on_c, 1, 63, 110
3, 91004, Note_off_c, 1, 56, 100
3, 91004, Note_off_c, 1, 61, 100
3, 91004, Note_off_c, 1, 63, 100
3, 91008, Note_on_c, 1, 61, 120
3, 91008, Note_on_c, 1, 49, 120
3, 91388, Note_off_c, 1, 61, 100
3, 91388, Note_off_c, 1, 49, 100
3, 91776, Note_on_c, 1, 61, 80
3, 91900, Note_off_c, 1, 61, 100
3, 91904, Note_on_c, 1, 63, 80
3, 92028, Note_off_c, 1, 63, 100
3, 92032, Note_on_c, 1, 65, 80
3, 92156, Note_off_c, 1, 65, 100
3, 92160, Note_on_c, 1, 66, 80
3, 92284, Note_off_c, 1, 66, 100
3, 92288, Note_on_c, 1, 61, 80
3, 92412, Note_off_c, 1, 61, 100
3, 92416, Note_on_c, 1, 66, 80
3, 92540, Note_off_c, 1, 66, 100
3, 92544, Note_on_c, 1, 65, 80
3, 92544, Note_on_c, 1, 61, 80
3, 92924, Note_off_c, 1, 65, 100
3, 92924, Note_off_c, 1, 61, 100
3, 93312, Note_on_c, 1, 49, 80
3, 93436, Note_off_c, 1, 49, 100
3, 93440, Note_on_c, 1, 51, 80
3, 93564, Note_off_c, 1, 51, 100
3, 93568, Note_on_c, 1, 53, 80
3, 93692, Note_off_c, 1, 53, 100
3, 93696, Note_on_c, 1, 54, 80
3, 93696, Note_on_c, 1, 44, 80
3, 93820, Note_off_c, 1, 54, 100
3, 93824, Note_on_c, 1, 51, 80
3, 93948, Note_off_c, 1, 51, 100
3, 93952, Note_on_c, 1, 56, 80
3, 94076, Note_off_c, 1, 44, 100
3, 94076, Note_off_c, 1, 56, 100
3, 94080, Note_on_c, 1, 49, 80
3, 94080, Note_on_c, 1, 53, 80
3, 94460, Note_off_c, 1, 49, 100
3, 94460, Note_off_c, 1, 53, 100
3, 94848, Note_on_c, 1, 61, 84
3, 94972, Note_off_c, 1, 61, 100
3, 94976, Note_on_c, 1, 63, 85
3, 95100, Note_off_c, 1, 63, 100
3, 95104, Note_on_c, 1, 65, 87
3, 95228, Note_off_c, 1, 65, 100
3, 95232, Note_on_c, 1, 66, 88
3, 95356, Note_off_c, 1, 66, 100
3, 95360, Note_on_c, 1, 61, 89
3, 95484, Note_off_c, 1, 61, 100
3, 95488, Note_on_c, 1, 66, 91
3, 95612, Note_off_c, 1, 66, 100
3, 95616, Note_on_c, 1, 65, 92
3, 95616, Note_on_c, 1, 61, 92
3, 95996, Note_off_c, 1, 65, 100
3, 95996, Note_off_c, 1, 61, 100
3, 96384, Note_on_c, 1, 65, 110
3, 96384, Note_on_c, 1, 58, 110
3, 96764, Note_off_c, 1, 65, 100
3, 96764, Note_off_c, 1, 58, 100
3, 96768, Note_on_c, 1, 63, 110
3, 96768, Note_on_c, 1, 51, 110
3, 97148, Note_off_c, 1, 63, 100
3, 97148, Note_off_c, 1, 51, 100
3, 97152, Note_on_c, 1, 63, 110
3, 97152, Note_on_c, 1, 56, 110
3, 97916, Note_off_c, 1, 63, 100
3, 97916, Note_off_c, 1, 56, 100
3, 97920, Note_on_c, 1, 54, 80
3, 97920, Note_on_c, 1, 51, 80
3, 97920, Note_on_c, 1, 44, 80
3, 98684, Note_off_c, 1, 54, 100
3, 98684, Note_off_c, 1, 51, 100
3, 98684, Note_off_c, 1, 44, 100
3, 98688, Note_on_c, 1, 53, 80
3, 98688, Note_on_c, 1, 49, 80
3, 99068, Note_off_c, 1, 53, 100
3, 99068, Note_off_c, 1, 49, 100
3, 99456, Note_on_c, 1, 77, 110
3, 99456, Note_on_c, 1, 70, 110
3, 99836, Note_off_c, 1, 77, 100
3, 99836, Note_off_c, 1, 70, 100
3, 99840, Note_on_c, 1, 75, 110
3, 99840, Note_on_c, 1, 63, 110
3, 100220, Note_off_c, 1, 75, 100
3, 100220, Note_off_c, 1, 63, 100
3, 100224, Note_on_c, 1, 75, 110
3, 100224, Note_on_c, 1, 68, 110
3, 100988, Note_off_c, 1, 75, 100
3, 100988, Note_off_c, 1, 68, 100
3, 100992, Note_on_c, 1, 66, 80
3, 100992, Note_on_c, 1, 63, 80
3, 100992, Note_on_c, 1, 56, 80
3, 101756, Note_off_c, 1, 66, 100
3, 101756, Note_off_c, 1, 63, 100
3, 101756, Note_off_c, 1, 56, 100
3, 101760, Note_on_c, 1, 61, 80
3, 101760, Note_on_c, 1, 65, 80
3, 102140, Note_off_c, 1, 61, 100
3, 102140, Note_off_c, 1, 65, 100
3, 102528, Note_on_c, 1, 54, 80
3, 102528, Note_on_c, 1, 51, 80
3, 102528, Note_on_c, 1, 44, 80
3, 103292, Note_off_c, 1, 54, 100
3, 103292, Note_off_c, 1, 51, 100
3, 103292, Note_off_c, 1, 44, 100
3, 103296, Note_on_c, 1, 49, 80
3, 103296, Note_on_c, 1, 53, 80
3, 103676, Note_off_c, 1, 49, 100
3, 103676, Note_off_c, 1, 53, 100
3, 104064, Note_on_c, 1, 42, 80
3, 104156, Note_off_c, 1, 42, 100
3, 104160, Note_on_c, 1, 44, 80
3, 104252, Note_off_c, 1, 44, 100
3, 104256, Note_on_c, 1, 42, 80
3, 104348, Note_off_c, 1, 42, 100
3, 104352, Note_on_c, 1, 41, 80
3, 104444, Note_off_c, 1, 41, 100
3, 104448, Note_on_c, 1, 42, 80
3, 104540, Note_off_c, 1, 42, 100
3, 104544, Note_on_c, 1, 44, 80
3, 104636, Note_off_c, 1, 44, 100
3, 104640, Note_on_c, 1, 46, 80
3, 104732, Note_off_c, 1, 46, 100
3, 104736, Note_on_c, 1, 48, 80
3, 104828, Note_off_c, 1, 48, 100
3, 104832, Note_on_c, 1, 49, 80
3, 104924, Note_off_c, 1, 49, 100
3, 104928, Note_on_c, 1, 51, 80
3, 105020, Note_off_c, 1, 51, 100
3, 105024, Note_on_c, 1, 53, 80
3, 105116, Note_off_c, 1, 53, 100
3, 105120, Note_on_c, 1, 54, 80
3, 105212, Note_off_c, 1, 54, 100
3, 105216, Note_on_c, 1, 56, 80
3, 105308, Note_off_c, 1, 56, 100
3, 105312, Note_on_c, 1, 54, 80
3, 105404, Note_off_c, 1, 54, 100
3, 105408, Note_on_c, 1, 53, 80
3, 105500, Note_off_c, 1, 53, 100
3, 105504, Note_on_c, 1, 51, 80
3, 105596, Note_off_c, 1, 51, 100
3, 105600, Note_on_c, 1, 49, 80
3, 105692, Note_off_c, 1, 49, 100
3, 105696, Note_on_c, 1, 48, 80
3, 105788, Note_off_c, 1, 48, 100
3, 105792, Note_on_c, 1, 46, 80
3, 105884, Note_off_c, 1, 46, 100
3, 105888, Note_on_c, 1, 44, 80
3, 105980, Note_off_c, 1, 44, 100
3, 105984, Note_on_c, 1, 46, 80
3, 106076, Note_off_c, 1, 46, 100
3, 106080, Note_on_c, 1, 44, 80
3, 106172, Note_off_c, 1, 44, 100
3, 106176, Note_on_c, 1, 46, 80
3, 106268, Note_off_c, 1, 46, 100
3, 106272, Note_on_c, 1, 48, 80
3, 106364, Note_off_c, 1, 48, 100
3, 106368, Note_on_c, 1, 49, 80
3, 106460, Note_off_c, 1, 49, 100
3, 106464, Note_on_c, 1, 51, 80
3, 106556, Note_off_c, 1, 51, 100
3, 106560, Note_on_c, 1, 53, 80
3, 106652, Note_off_c, 1, 53, 100
3, 106656, Note_on_c, 1, 54, 80
3, 106748, Note_off_c, 1, 54, 100
3, 106752, Note_on_c, 1, 56, 80
3, 106844, Note_off_c, 1, 56, 100
3, 106848, Note_on_c, 1, 57, 80
3, 106940, Note_off_c, 1, 57, 100
3, 106944, Note_on_c, 1, 59, 80
3, 107036, Note_off_c, 1, 59, 100
3, 107040, Note_on_c, 1, 61, 80
3, 107132, Note_off_c, 1, 61, 100
3, 107136, Note_on_c, 1, 62, 80
3, 107228, Note_off_c, 1, 62, 100
3, 107232, Note_on_c, 1, 61, 80
3, 107324, Note_off_c, 1, 61, 100
3, 107328, Note_on_c, 1, 59, 80
3, 107420, Note_off_c, 1, 59, 100
3, 107424, Note_on_c, 1, 57, 80
3, 107516, Note_off_c, 1, 57, 100
3, 107520, Note_on_c, 1, 61, 80
3, 107612, Note_off_c, 1, 61, 100
3, 107616, Note_on_c, 1, 59, 80
3, 107708, Note_off_c, 1, 59, 100
3, 107712, Note_on_c, 1, 57, 80
3, 107804, Note_off_c, 1, 57, 100
3, 107808, Note_on_c, 1, 56, 80
3, 107900, Note_off_c, 1, 56, 100
3, 107904, Note_on_c, 1, 54, 80
3, 107904, Note_on_c, 1, 42, 80
3, 108092, Note_off_c, 1, 54, 100
3, 108092, Note_off_c, 1, 42, 100
3, 108096, Note_on_c, 1, 54, 80
3, 108284, Note_off_c, 1, 54, 100
3, 108288, Note_on_c, 1, 57, 80
3, 108476, Note_off_c, 1, 57, 100
3, 108480, Note_on_c, 1, 54, 80
3, 108668, Note_off_c, 1, 54, 100
3, 108672, Note_on_c, 1, 59, 80
3, 108860, Note_off_c, 1, 59, 100
3, 108864, Note_on_c, 1, 54, 80
3, 109052, Note_off_c, 1, 54, 100
3, 109056, Note_on_c, 1, 57, 80
3, 109244, Note_off_c, 1, 57, 100
3, 109248, Note_on_c, 1, 54, 80
3, 109436, Note_off_c, 1, 54, 100
3, 109440, Note_on_c, 1, 47, 80
3, 109632, Note_on_c, 1, 54, 81
3, 109820, Note_off_c, 1, 54, 100
3, 109824, Note_on_c, 1, 59, 83
3, 110012, Note_off_c, 1, 59, 100
3, 110016, Note_on_c, 1, 54, 84
3, 110204, Note_off_c, 1, 54, 100
3, 110208, Note_on_c, 1, 59, 86
3, 110396, Note_off_c, 1, 59, 100
3, 110400, Note_on_c, 1, 54, 88
3, 110588, Note_off_c, 1, 47, 100
3, 110588, Note_off_c, 1, 54, 100
3, 110592, Note_on_c, 1, 45, 89
3, 110592, Note_on_c, 1, 57, 89
3, 110780, Note_off_c, 1, 57, 100
3, 110784, Note_on_c, 1, 54, 91
3, 110972, Note_off_c, 1, 45, 100
3, 110972, Note_off_c, 1, 54, 100
3, 110976, Note_on_c, 1, 44, 93
3, 110976, Note_on_c, 1, 56, 93
3, 111164, Note_off_c, 1, 56, 100
3, 111168, Note_on_c, 1, 52, 94
3, 111356, Note_off_c, 1, 44, 100
3, 111356, Note_off_c, 1, 52, 100
3, 111360, Note_on_c, 1, 42, 96
3, 111360, Note_on_c, 1, 54, 96
3, 111548, Note_off_c, 1, 54, 100
3, 111552, Note_on_c, 1, 52, 98
3, 111740, Note_off_c, 1, 42, 100
3, 111740, Note_off_c, 1, 52, 100
3, 111744, Note_on_c, 1, 40, 99
3, 111932, Note_off_c, 1, 40, 100
3, 111936, Note_on_c, 1, 52, 80
3, 112124, Note_off_c, 1, 52, 100
3, 112128, Note_on_c, 1, 44, 80
3, 112316, Note_off_c, 1, 44, 100
3, 112320, Note_on_c, 1, 56, 80
3, 112508, Note_off_c, 1, 56, 100
3, 112512, Note_on_c, 1, 57, 80
3, 112512, Note_on_c, 1, 45, 80
3, 112892, Note_off_c, 1, 57, 100
3, 112892, Note_off_c, 1, 45, 100
3, 113280, Note_on_c, 1, 68, 80
3, 113660, Note_off_c, 1, 68, 100
3, 114048, Note_on_c, 1, 67, 80
3, 114428, Note_off_c, 1, 67, 100
3, 114432, Note_on_c, 1, 47, 110
3, 114716, Note_off_c, 1, 47, 100
3, 114720, Note_on_c, 1, 49, 110
3, 114812, Note_off_c, 1, 49, 100
3, 114816, Note_on_c, 1, 51, 110
3, 115196, Note_off_c, 1, 51, 100
3, 115200, Note_on_c, 1, 44, 110
3, 115580, Note_off_c, 1, 44, 100
3, 115584, Note_on_c, 1, 59, 110
3, 115584, Note_on_c, 1, 56, 110
3, 115676, Note_off_c, 1, 59, 100
3, 115676, Note_off_c, 1, 56, 100
3, 115680, Note_on_c, 1, 63, 110
3, 115772, Note_off_c, 1, 63, 100
3, 115776, Note_on_c, 1, 59, 110
3, 115776, Note_on_c, 1, 56, 110
3, 115868, Note_off_c, 1, 59, 100
3, 115868, Note_off_c, 1, 56, 100
3, 115872, Note_on_c, 1, 63, 110
3, 115964, Note_off_c, 1, 63, 100
3, 115968, Note_on_c, 1, 59, 110
3, 115968, Note_on_c, 1, 56, 110
3, 116060, Note_off_c, 1, 59, 100
3, 116060, Note_off_c, 1, 56, 100
3, 116064, Note_on_c, 1, 63, 110
3, 116156, Note_off_c, 1, 63, 100
3, 116160, Note_on_c, 1, 59, 110
3, 116160, Note_on_c, 1, 56, 110
3, 116252, Note_off_c, 1, 59, 100
3, 116252, Note_off_c, 1, 56, 100
3, 116256, Note_on_c, 1, 63, 110
3, 116348, Note_off_c, 1, 63, 100
3, 116352, Note_on_c, 1, 61, 110
3, 116352, Note_on_c, 1, 58, 110
3, 116444, Note_off_c, 1, 61, 100
3, 116444, Note_off_c, 1, 58, 100
3, 116448, Note_on_c, 1, 63, 110
3, 116540, Note_off_c, 1, 63, 100
3, 116544, Note_on_c, 1, 61, 110
3, 116544, Note_on_c, 1, 58, 110
3, 116636, Note_off_c, 1, 61, 100
3, 116636, Note_off_c, 1, 58, 100
3, 116640, Note_on_c, 1, 63, 110
3, 116732, Note_off_c, 1, 63, 100
3, 116736, Note_on_c, 1, 59, 110
3, 116736, Note_on_c, 1, 56, 110
3, 116828, Note_off_c, 1, 59, 100
3, 116828, Note_off_c, 1, 56, 100
3, 116832, Note_on_c, 1, 63, 110
3, 116924, Note_off_c, 1, 63, 100
3, 116928, Note_on_c, 1, 59, 110
3, 116928, Note_on_c, 1, 56, 110
3, 117020, Note_off_c, 1, 59, 100
3, 117020, Note_off_c, 1, 56, 100
3, 117024, Note_on_c, 1, 63, 110
3, 117116, Note_off_c, 1, 63, 100
3, 117120, Note_on_c, 1, 65, 80
3, 117120, Note_on_c, 1, 62, 80
3, 117500, Note_off_c, 1, 65, 100
3, 117500, Note_off_c, 1, 62, 100
3, 118272, Note_on_c, 1, 65, 80
3, 118272, Note_on_c, 1, 62, 80
3, 118556, Note_off_c, 1, 65, 100
3, 118560, Note_on_c, 1, 66, 80
3, 118652, Note_off_c, 1, 62, 100
3, 118652, Note_off_c, 1, 66, 100
3, 118656, Note_on_c, 1, 68, 80
3, 118656, Note_on_c, 1, 65, 80
3, 118656, Note_on_c, 1, 62, 80
3, 119036, Note_off_c, 1, 68, 100
3, 119036, Note_off_c, 1, 65, 100
3, 119036, Note_off_c, 1, 62, 100
3, 119808, Note_on_c, 1, 65, 80
3, 119808, Note_on_c, 1, 62, 80
3, 120092, Note_off_c, 1, 65, 100
3, 120096, Note_on_c, 1, 70, 80
3, 120188, Note_off_c, 1, 62, 100
3, 120188, Note_off_c, 1, 70, 100
3, 120192, Note_on_c, 1, 66, 80
3, 120192, Note_on_c, 1, 63, 80
3, 120380, Note_off_c, 1, 66, 100
3, 120380, Note_off_c, 1, 63, 100
3, 120576, Note_on_c, 1, 54, 80
3, 120576, Note_on_c, 1, 51, 80
3, 120860, Note_off_c, 1, 54, 100
3, 120860, Note_off_c, 1, 51, 100
3, 120864, Note_on_c, 1, 58, 80
3, 120956, Note_off_c, 1, 58, 100
3, 120960, Note_on_c, 1, 56, 80
3, 120960, Note_on_c, 1, 53, 80
3, 121148, Note_off_c, 1, 56, 100
3, 121148, Note_off_c, 1, 53, 100
3, 121344, Note_on_c, 1, 62, 80
3, 121344, Note_on_c, 1, 65, 80
3, 121628, Note_off_c, 1, 62, 100
3, 121628, Note_off_c, 1, 65, 100
3, 121632, Note_on_c, 1, 70, 80
3, 121724, Note_off_c, 1, 70, 100
3, 121728, Note_on_c, 1, 66, 80
3, 121728, Note_on_c, 1, 63, 80
3, 121916, Note_off_c, 1, 66, 100
3, 121916, Note_off_c, 1, 63, 100
3, 122112, Note_on_c, 1, 54, 80
3, 122112, Note_on_c, 1, 51, 80
3, 122396, Note_off_c, 1, 54, 100
3, 122396, Note_off_c, 1, 51, 100
3, 122400, Note_on_c, 1, 58, 80
3, 122492, Note_off_c, 1, 58, 100
3, 122496, Note_on_c, 1, 54, 80
3, 122496, Note_on_c, 1, 51, 80
3, 122684, Note_off_c, 1, 54, 100
3, 122684, Note_off_c, 1, 51, 100
3, 122880, Note_on_c, 1, 63, 80
3, 122880, Note_on_c, 1, 60, 80
3, 123164, Note_off_c, 1, 63, 100
3, 123164, Note_off_c, 1, 60, 100
3, 123168, Note_on_c, 1, 68, 80
3, 123260, Note_off_c, 1, 68, 100
3, 123264, Note_on_c, 1, 64, 80
3, 123264, Note_on_c, 1, 61, 80
3, 123452, Note_off_c, 1, 64, 100
3, 123452, Note_off_c, 1, 61, 100
3, 123648, Note_on_c, 1, 52, 80
3, 123648, Note_on_c, 1, 49, 80
3, 123932, Note_off_c, 1, 52, 100
3, 123932, Note_off_c, 1, 49, 100
3, 123936, Note_on_c, 1, 56, 80
3, 124028, Note_off_c, 1, 56, 100
3, 124032, Note_on_c, 1, 54, 80
3, 124032, Note_on_c, 1, 51, 80
3, 124220, Note_off_c, 1, 54, 100
3, 124220, Note_off_c, 1, 51, 100
3, 124416, Note_on_c, 1, 60, 80
3, 124416, Note_on_c, 1, 63, 80
3, 124700, Note_off_c, 1, 60, 100
3, 124700, Note_off_c, 1, 63, 100
3, 124704, Note_on_c, 1, 68, 80
3, 124796, Note_off_c, 1, 68, 100
3, 124800, Note_on_c, 1, 64, 80
3, 124800, Note_on_c, 1, 61, 80
3, 124988, Note_off_c, 1, 64, 100
3, 124988, Note_off_c, 1, 61, 100
3, 125184, Note_on_c, 1, 52, 80
3, 125184, Note_on_c, 1, 49, 80
3, 125468, Note_off_c, 1, 52, 100
3, 125468, Note_off_c, 1, 49, 100
3, 125472, Note_on_c, 1, 56, 80
3, 125564, Note_off_c, 1, 56, 100
3, 125568, Note_on_c, 1, 54, 80
3, 125568, Note_on_c, 1, 52, 80
3, 125568, Note_on_c, 1, 49, 80
3, 125756, Note_off_c, 1, 54, 100
3, 125756, Note_off_c, 1, 52, 100
3, 125756, Note_off_c, 1, 49, 100
3, 125952, Note_on_c, 1, 58, 80
3, 125952, Note_on_c, 1, 61, 80
3, 126236, Note_off_c, 1, 58, 100
3, 126236, Note_off_c, 1, 61, 100
3, 126240, Note_on_c, 1, 66, 80
3, 126332, Note_off_c, 1, 66, 100
3, 126336, Note_on_c, 1, 59, 80
3, 126336, Note_on_c, 1, 63, 80
3, 126524, Note_off_c, 1, 59, 100
3, 126524, Note_off_c, 1, 63, 100
3, 126720, Note_on_c, 1, 49, 80
3, 126720, Note_on_c, 1, 46, 80
3, 127004, Note_off_c, 1, 49, 100
3, 127004, Note_off_c, 1, 46, 100
3, 127008, Note_on_c, 1, 54, 80
3, 127100, Note_off_c, 1, 54, 100
3, 127104, Note_on_c, 1, 51, 80
3, 127104, Note_on_c, 1, 47, 80
3, 127292, Note_off_c, 1, 51, 100
3, 127292, Note_off_c, 1, 47, 100
3, 127488, Note_on_c, 1, 66, 83
3, 127580, Note_off_c, 1, 66, 100
3, 127584, Note_on_c, 1, 64, 84
3, 127676, Note_off_c, 1, 64, 100
3, 127680, Note_on_c, 1, 63, 84
3, 127772, Note_off_c, 1, 63, 100
3, 127776, Note_on_c, 1, 61, 85
3, 127868, Note_off_c, 1, 61, 100
3, 127872, Note_on_c, 1, 59, 86
3, 128060, Note_off_c, 1, 59, 100
3, 128256, Note_on_c, 1, 71, 89
3, 128348, Note_off_c, 1, 71, 100
3, 128352, Note_on_c, 1, 70, 89
3, 128444, Note_off_c, 1, 70, 100
3, 128448, Note_on_c, 1, 68, 90
3, 128540, Note_off_c, 1, 68, 100
3, 128544, Note_on_c, 1, 66, 91
3, 128636, Note_off_c, 1, 66, 100
3, 128640, Note_on_c, 1, 65, 92
3, 128828, Note_off_c, 1, 65, 100
3, 129024, Note_on_c, 1, 71, 94
3, 129116, Note_off_c, 1, 71, 100
3, 129120, Note_on_c, 1, 70, 95
3, 129212, Note_off_c, 1, 70, 100
3, 129216, Note_on_c, 1, 68, 96
3, 129308, Note_off_c, 1, 68, 100
3, 129312, Note_on_c, 1, 66, 97
3, 129404, Note_off_c, 1, 66, 100
3, 129408, Note_on_c, 1, 65, 97
3, 129596, Note_off_c, 1, 65, 100
3, 129792, Note_on_c, 1, 75, 100
3, 129884, Note_off_c, 1, 75, 100
3, 129888, Note_on_c, 1, 73, 101
3, 129980, Note_off_c, 1, 73, 100
3, 129984, Note_on_c, 1, 71, 102
3, 130076, Note_off_c, 1, 71, 100
3, 130080, Note_on_c, 1, 70, 102
3, 130172, Note_off_c, 1, 70, 100
3, 130176, Note_on_c, 1, 68, 103
3, 130268, Note_off_c, 1, 68, 100
3, 130272, Note_on_c, 1, 71, 104
3, 130364, Note_off_c, 1, 71, 100
3, 130368, Note_on_c, 1, 70, 104
3, 130460, Note_off_c, 1, 70, 100
3, 130464, Note_on_c, 1, 68, 105
3, 130556, Note_off_c, 1, 68, 100
3, 130560, Note_on_c, 1, 66, 106
3, 130652, Note_off_c, 1, 66, 100
3, 130656, Note_on_c, 1, 65, 107
3, 130748, Note_off_c, 1, 65, 100
3, 130752, Note_on_c, 1, 63, 107
3, 130844, Note_off_c, 1, 63, 100
3, 130848, Note_on_c, 1, 61, 108
3, 130940, Note_off_c, 1, 61, 100
3, 130944, Note_on_c, 1, 59, 109
3, 131036, Note_off_c, 1, 59, 100
3, 131040, Note_on_c, 1, 63, 109
3, 131132, Note_off_c, 1, 63, 100
3, 131136, Note_on_c, 1, 61, 110
3, 131228, Note_off_c, 1, 61, 100
3, 131232, Note_on_c, 1, 59, 111
3, 131324, Note_off_c, 1, 59, 100
3, 131328, Note_on_c, 1, 58, 112
3, 131420, Note_off_c, 1, 58, 100
3, 131424, Note_on_c, 1, 56, 112
3, 131516, Note_off_c, 1, 56, 100
3, 131520, Note_on_c, 1, 54, 113
3, 131612, Note_off_c, 1, 54, 100
3, 131616, Note_on_c, 1, 53, 114
3, 131708, Note_off_c, 1, 53, 100
3, 131712, Note_on_c, 1, 59, 114
3, 131804, Note_off_c, 1, 59, 100
3, 131808, Note_on_c, 1, 58, 115
3, 131900, Note_off_c, 1, 58, 100
3, 131904, Note_on_c, 1, 56, 116
3, 131996, Note_off_c, 1, 56, 100
3, 132000, Note_on_c, 1, 54, 117
3, 132092, Note_off_c, 1, 54, 100
3, 132096, Note_on_c, 1, 53, 117
3, 132188, Note_off_c, 1, 53, 100
3, 132192, Note_on_c, 1, 51, 118
3, 132284, Note_off_c, 1, 51, 100
3, 132288, Note_on_c, 1, 49, 119
3, 132380, Note_off_c, 1, 49, 100
3, 132384, Note_on_c, 1, 48, 119
3, 132476, Note_off_c, 1, 48, 100
3, 132480, Note_on_c, 1, 49, 120
3, 133248, Note_on_c, 1, 53, 120
3, 134012, Note_off_c, 1, 49, 100
3, 134012, Note_off_c, 1, 53, 100
3, 134016, Note_on_c, 1, 56, 120
3, 134140, Note_off_c, 1, 56, 100
3, 134144, Note_on_c, 1, 58, 80
3, 134268, Note_off_c, 1, 58, 100
3, 134272, Note_on_c, 1, 56, 80
3, 134396, Note_off_c, 1, 56, 100
3, 134400, Note_on_c, 1, 54, 80
3, 134524, Note_off_c, 1, 54, 100
3, 134528, Note_on_c, 1, 53, 80
3, 134652, Note_off_c, 1, 53, 100
3, 134656, Note_on_c, 1, 51, 80
3, 134780, Note_off_c, 1, 51, 100
3, 134784, Note_on_c, 1, 49, 80
3, 134908, Note_off_c, 1, 49, 100
3, 134912, Note_on_c, 1, 51, 80
3, 135036, Note_off_c, 1, 51, 100
3, 135040, Note_on_c, 1, 49, 80
3, 135164, Note_off_c, 1, 49, 100
3, 135168, Note_on_c, 1, 47, 80
3, 135292, Note_off_c, 1, 47, 100
3, 135296, Note_on_c, 1, 46, 80
3, 135420, Note_off_c, 1, 46, 100
3, 135424, Note_on_c, 1, 44, 80
3, 135548, Note_off_c, 1, 44, 100
3, 135552, Note_on_c, 1, 42, 80
3, 135740, Note_off_c, 1, 42, 100
3, 135744, Note_on_c, 1, 54, 80
3, 135932, Note_off_c, 1, 54, 100
3, 135936, Note_on_c, 1, 58, 80
3, 136124, Note_off_c, 1, 58, 100
3, 136128, Note_on_c, 1, 54, 80
3, 136316, Note_off_c, 1, 54, 100
3, 136320, Note_on_c, 1, 59, 80
3, 136508, Note_off_c, 1, 59, 100
3, 136512, Note_on_c, 1, 54, 80
3, 136700, Note_off_c, 1, 54, 100
3, 136704, Note_on_c, 1, 58, 80
3, 136892, Note_off_c, 1, 58, 100
3, 136896, Note_on_c, 1, 54, 80
3, 137084, Note_off_c, 1, 54, 100
3, 137088, Note_on_c, 1, 56, 80
3, 137276, Note_off_c, 1, 56, 100
3, 137280, Note_on_c, 1, 49, 80
3, 137468, Note_off_c, 1, 49, 100
3, 137472, Note_on_c, 1, 56, 80
3, 137660, Note_off_c, 1, 56, 100
3, 137664, Note_on_c, 1, 49, 80
3, 137852, Note_off_c, 1, 49, 100
3, 137856, Note_on_c, 1, 56, 80
3, 138044, Note_off_c, 1, 56, 100
3, 138048, Note_on_c, 1, 49, 80
3, 138236, Note_off_c, 1, 49, 100
3, 138240, Note_on_c, 1, 53, 80
3, 138428, Note_off_c, 1, 53, 100
3, 138432, Note_on_c, 1, 49, 80
3, 138620, Note_off_c, 1, 49, 100
3, 138624, Note_on_c, 1, 42, 80
3, 138816, Note_on_c, 1, 54, 80
3, 139004, Note_off_c, 1, 54, 100
3, 139008, Note_on_c, 1, 47, 80
3, 139196, Note_off_c, 1, 47, 100
3, 139200, Note_on_c, 1, 54, 80
3, 139388, Note_off_c, 1, 54, 100
3, 139392, Note_on_c, 1, 46, 80
3, 139580, Note_off_c, 1, 46, 100
3, 139584, Note_on_c, 1, 54, 80
3, 139772, Note_off_c, 1, 42, 100
3, 139772, Note_off_c, 1, 54, 100
3, 139776, Note_on_c, 1, 42, 80
3, 139776, Note_on_c, 1, 51, 80
3, 139964, Note_off_c, 1, 51, 100
3, 139968, Note_on_c, 1, 54, 80
3, 140156, Note_off_c, 1, 42, 100
3, 140156, Note_off_c, 1, 54, 100
3, 140160, Note_on_c, 1, 42, 80
3, 140160, Note_on_c, 1, 49, 80
3, 140348, Note_off_c, 1, 49, 100
3, 140352, Note_on_c, 1, 54, 80
3, 140540, Note_off_c, 1, 42, 100
3, 140540, Note_off_c, 1, 54, 100
3, 140544, Note_on_c, 1, 42, 80
3, 140544, Note_on_c, 1, 47, 80
3, 140732, Note_off_c, 1, 47, 100
3, 140736, Note_on_c, 1, 54, 80
3, 140924, Note_off_c, 1, 42, 100
3, 140924, Note_off_c, 1, 54, 100
3, 140928, Note_on_c, 1, 42, 80
3, 140928, Note_on_c, 1, 46, 80
3, 141116, Note_off_c, 1, 46, 100
3, 141120, Note_on_c, 1, 54, 80
3, 141308, Note_off_c, 1, 42, 100
3, 141308, Note_off_c, 1, 54, 100
3, 142080, Note_on_c, 1, 49, 80
3, 142172, Note_off_c, 1, 49, 100
3, 142176, Note_on_c, 1, 53, 80
3, 142268, Note_off_c, 1, 53, 100
3, 142272, Note_on_c, 1, 56, 80
3, 142364, Note_off_c, 1, 56, 100
3, 142368, Note_on_c, 1, 59, 80
3, 142460, Note_off_c, 1, 59, 100
3, 142464, Note_on_c, 1, 47, 80
3, 142844, Note_off_c, 1, 47, 100
3, 143616, Note_on_c, 1, 46, 80
3, 143708, Note_off_c, 1, 46, 100
3, 143712, Note_on_c, 1, 49, 80
3, 143804, Note_off_c, 1, 49, 100
3, 143808, Note_on_c, 1, 54, 80
3, 143900, Note_off_c, 1, 54, 100
3, 143904, Note_on_c, 1, 58, 80
3, 143996, Note_off_c, 1, 58, 100
3, 144000, Note_on_c, 1, 46, 80
3, 144380, Note_off_c, 1, 46, 100
3, 145152, Note_on_c, 1, 51, 80
3, 145244, Note_off_c, 1, 51, 100
3, 145248, Note_on_c, 1, 55, 80
3, 145340, Note_off_c, 1, 55, 100
3, 145344, Note_on_c, 1, 58, 80
3, 145436, Note_off_c, 1, 58, 100
3, 145440, Note_on_c, 1, 61, 80
3, 145532, Note_off_c, 1, 61, 100
3, 145536, Note_on_c, 1, 49, 80
3, 145916, Note_off_c, 1, 49, 100
3, 146688, Note_on_c, 1, 47, 80
3, 146780, Note_off_c, 1, 47, 100
3, 146784, Note_on_c, 1, 51, 80
3, 146876, Note_off_c, 1, 51, 100
3, 146880, Note_on_c, 1, 56, 80
3, 146972, Note_off_c, 1, 56, 100
3, 146976, Note_on_c, 1, 59, 80
3, 147068, Note_off_c, 1, 59, 100
3, 147072, Note_on_c, 1, 47, 80
3, 147452, Note_off_c, 1, 47, 100
3, 147456, Note_on_c, 1, 56, 110
3, 147456, Note_on_c, 1, 52, 110
3, 147456, Note_on_c, 1, 47, 110
3, 147456, Note_on_c, 1, 44, 110
3, 147836, Note_off_c, 1, 56, 100
3, 147836, Note_off_c, 1, 52, 100
3, 147836, Note_off_c, 1, 47, 100
3, 147836, Note_off_c, 1, 44, 100
3, 147840, Note_on_c, 1, 57, 110
3, 147840, Note_on_c, 1, 54, 110
3, 147840, Note_on_c, 1, 49, 110
3, 147840, Note_on_c, 1, 45, 110
3, 148604, Note_off_c, 1, 57, 100
3, 148604, Note_off_c, 1, 54, 100
3, 148604, Note_off_c, 1, 49, 100
3, 148604, Note_off_c, 1, 45, 100
3, 148608, Note_on_c, 1, 59, 110
3, 148608, Note_on_c, 1, 57, 110
3, 148608, Note_on_c, 1, 54, 110
3, 148608, Note_on_c, 1, 47, 110
3, 149372, Note_off_c, 1, 59, 100
3, 149372, Note_off_c, 1, 57, 100
3, 149372, Note_off_c, 1, 54, 100
3, 149372, Note_off_c, 1, 47, 100
3, 149376, Note_on_c, 1, 59, 110
3, 149376, Note_on_c, 1, 56, 110
3, 149376, Note_on_c, 1, 52, 110
3, 149756, Note_off_c, 1, 59, 100
3, 149756, Note_off_c, 1, 56, 100
3, 149756, Note_off_c, 1, 52, 100
3, 149760, Note_on_c, 1, 59, 110
3, 149760, Note_on_c, 1, 54, 110
3, 149760, Note_on_c, 1, 51, 110
3, 149760, Note_on_c, 1, 47, 110
3, 150140, Note_off_c, 1, 59, 100
3, 150140, Note_off_c, 1, 54, 100
3, 150140, Note_off_c, 1, 51, 100
3, 150140, Note_off_c, 1, 47, 100
3, 150144, Note_on_c, 1, 52, 110
3, 150144, Note_on_c, 1, 47, 110
3, 150144, Note_on_c, 1, 44, 110
3, 150144, Note_on_c, 1, 40, 110
3, 150524, Note_off_c, 1, 52, 100
3, 150524, Note_off_c, 1, 47, 100
3, 150524, Note_off_c, 1, 44, 100
3, 150524, Note_off_c, 1, 40, 100
3, 150912, Note_on_c, 1, 56, 80
3, 150912, Note_on_c, 1, 52, 80
3, 151292, Note_off_c, 1, 56, 100
3, 151292, Note_off_c, 1, 52, 100
3, 151680, Note_on_c, 1, 54, 80
3, 151680, Note_on_c, 1, 49, 80
3, 151680, Note_on_c, 1, 45, 80
3, 152060, Note_off_c, 1, 54, 100
3, 152060, Note_off_c, 1, 49, 100
3, 152060, Note_off_c, 1, 45, 100
3, 152448, Note_on_c, 1, 66, 110
3, 152448, Note_on_c, 1, 63, 110
3, 152448, Note_on_c, 1, 59, 110
3, 152828, Note_off_c, 1, 66, 100
3, 152828, Note_off_c, 1, 63, 100
3, 152828, Note_off_c, 1, 59, 100
3, 152832, Note_on_c, 1, 65, 110
3, 152832, Note_on_c, 1, 61, 110
3, 152832, Note_on_c, 1, 59, 110
3, 152832, Note_on_c, 1, 56, 110
3, 153212, Note_off_c, 1, 65, 100
3, 153212, Note_off_c, 1, 61, 100
3, 153212, Note_off_c, 1, 59, 100
3, 153212, Note_off_c, 1, 56, 100
3, 153216, Note_on_c, 1, 66, 110
3, 153216, Note_on_c, 1, 61, 110
3, 153216, Note_on_c, 1, 57, 110
3, 153216, Note_on_c, 1, 54, 110
3, 153596, Note_off_c, 1, 66, 100
3, 153596, Note_off_c, 1, 61, 100
3, 153596, Note_off_c, 1, 57, 100
3, 153596, Note_off_c, 1, 54, 100
3, 153984, Note_on_c, 1, 57, 80
3, 153984, Note_on_c, 1, 54, 80
3, 154364, Note_off_c, 1, 57, 100
3, 154364, Note_off_c, 1, 54, 100
3, 154752, Note_on_c, 1, 56, 80
3, 154752, Note_on_c, 1, 47, 80
3, 155132, Note_off_c, 1, 56, 100
3, 155132, Note_off_c, 1, 47, 100
3, 155520, Note_on_c, 1, 65, 110
3, 155520, Note_on_c, 1, 61, 110
3, 155900, Note_off_c, 1, 65, 100
3, 155900, Note_off_c, 1, 61, 100
3, 155904, Note_on_c, 1, 64, 110
3, 155904, Note_on_c, 1, 61, 110
3, 155904, Note_on_c, 1, 54, 110
3, 156284, Note_off_c, 1, 64, 100
3, 156284, Note_off_c, 1, 61, 100
3, 156284, Note_off_c, 1, 54, 100
3, 156288, Note_on_c, 1, 62, 110
3, 156288, Note_on_c, 1, 59, 110
3, 156668, Note_off_c, 1, 62, 100
3, 156668, Note_off_c, 1, 59, 100
3, 157056, Note_on_c, 1, 62, 80
3, 157056, Note_on_c, 1, 59, 80
3, 157436, Note_off_c, 1, 62, 100
3, 157436, Note_off_c, 1, 59, 100
3, 157824, Note_on_c, 1, 61, 80
3, 157824, Note_on_c, 1, 55, 80
3, 157824, Note_on_c, 1, 52, 80
3, 158204, Note_off_c, 1, 61, 100
3, 158204, Note_off_c, 1, 55, 100
3, 158204, Note_off_c, 1, 52, 100
3, 158592, Note_on_c, 1, 61, 110
3, 158592, Note_on_c, 1, 58, 110
3, 158592, Note_on_c, 1, 54, 110
3, 158972, Note_off_c, 1, 61, 100
3, 158972, Note_off_c, 1, 58, 100
3, 158972, Note_off_c, 1, 54, 100
3, 158976, Note_on_c, 1, 59, 110
3, 158976, Note_on_c, 1, 54, 110
3, 158976, Note_on_c, 1, 47, 110
3, 159356, Note_off_c, 1, 59, 100
3, 159356, Note_off_c, 1, 54, 100
3, 159356, Note_off_c, 1, 47, 100
3, 159360, Note_on_c, 1, 58, 110
3, 159360, Note_on_c, 1, 54, 110
3, 159360, Note_on_c, 1, 46, 110
3, 159740, Note_off_c, 1, 58, 100
3, 159740, Note_off_c, 1, 54, 100
3, 159740, Note_off_c, 1, 46, 100
3, 160128, Note_on_c, 1, 64, 80
3, 160128, Note_on_c, 1, 61, 80
3, 160508, Note_off_c, 1, 64, 100
3, 160508, Note_off_c, 1, 61, 100
3, 160512, Note_on_c, 1, 63, 80
3, 160512, Note_on_c, 1, 59, 80
3, 160892, Note_off_c, 1, 63, 100
3, 160892, Note_off_c, 1, 59, 100
3, 160896, Note_on_c, 1, 61, 80
3, 160896, Note_on_c, 1, 58, 80
3, 161276, Note_off_c, 1, 61, 100
3, 161276, Note_off_c, 1, 58, 100
3, 161664, Note_on_c, 1, 61, 80
3, 161664, Note_on_c, 1, 58, 80
3, 162044, Note_off_c, 1, 61, 100
3, 162044, Note_off_c, 1, 58, 100
3, 162432, Note_on_c, 1, 58, 80
3, 162432, Note_on_c, 1, 54, 80
3, 162812, Note_off_c, 1, 58, 100
3, 162812, Note_off_c, 1, 54, 100
3, 163200, Note_on_c, 1, 63, 80
3, 163200, Note_on_c, 1, 59, 80
3, 163580, Note_off_c, 1, 63, 100
3, 163580, Note_off_c, 1, 59, 100
3, 164352, Note_on_c, 1, 75, 89
3, 164352, Note_on_c, 1, 71, 89
3, 164732, Note_off_c, 1, 75, 100
3, 164732, Note_off_c, 1, 71, 100
3, 164736, Note_on_c, 1, 76, 99
3, 164736, Note_on_c, 1, 73, 99
3, 165884, Note_off_c, 1, 76, 100
3, 165884, Note_off_c, 1, 73, 100
3, 165888, Note_on_c, 1, 76, 80
3, 165888, Note_on_c, 1, 73, 80
3, 166268, Note_off_c, 1, 76, 100
3, 166268, Note_off_c, 1, 73, 100
3, 166272, Note_on_c, 1, 75, 80
3, 166272, Note_on_c, 1, 73, 80
3, 167036, Note_off_c, 1, 75, 100
3, 167036, Note_off_c, 1, 73, 100
3, 167040, Note_on_c, 1, 73, 80
3, 167040, Note_on_c, 1, 70, 80
3, 167420, Note_off_c, 1, 73, 100
3, 167420, Note_off_c, 1, 70, 100
3, 167424, Note_on_c, 1, 73, 80
3, 167424, Note_on_c, 1, 70, 80
3, 167424, Note_on_c, 1, 63, 80
3, 167804, Note_off_c, 1, 73, 100
3, 167804, Note_off_c, 1, 70, 100
3, 167804, Note_off_c, 1, 63, 100
3, 167808, Note_on_c, 1, 71, 80
3, 167808, Note_on_c, 1, 68, 80
3, 167808, Note_on_c, 1, 63, 80
3, 168188, Note_off_c, 1, 71, 100
3, 168188, Note_off_c, 1, 68, 100
3, 168188, Note_off_c, 1, 63, 100
3, 168192, Note_on_c, 1, 70, 80
3, 168192, Note_on_c, 1, 67, 80
3, 168192, Note_on_c, 1, 61, 80
3, 168572, Note_off_c, 1, 70, 100
3, 168572, Note_off_c, 1, 67, 100
3, 168572, Note_off_c, 1, 61, 100
3, 168576, Note_on_c, 1, 68, 80
3, 168576, Note_on_c, 1, 63, 80
3, 168576, Note_on_c, 1, 59, 80
3, 168956, Note_off_c, 1, 68, 100
3, 168956, Note_off_c, 1, 63, 100
3, 168956, Note_off_c, 1, 59, 100
3, 168960, Note_on_c, 1, 68, 80
3, 168960, Note_on_c, 1, 63, 80
3, 168960, Note_on_c, 1, 59, 80
3, 169340, Note_off_c, 1, 68, 100
3, 169340, Note_off_c, 1, 63, 100
3, 169340, Note_off_c, 1, 59, 100
3, 169344, Note_on_c, 1, 68, 80
3, 169344, Note_on_c, 1, 62, 80
3, 169344, Note_on_c, 1, 59, 80
3, 169724, Note_off_c, 1, 68, 100
3, 169724, Note_off_c, 1, 62, 100
3, 169724, Note_off_c, 1, 59, 100
3, 169728, Note_on_c, 1, 68, 80
3, 169728, Note_on_c, 1, 61, 80
3, 169728, Note_on_c, 1, 59, 80
3, 170108, Note_off_c, 1, 68, 100
3, 170108, Note_off_c, 1, 61, 100
3, 170108, Note_off_c, 1, 59, 100
3, 170112, Note_on_c, 1, 68, 80
3, 170112, Note_on_c, 1, 62, 80
3, 170112, Note_on_c, 1, 59, 80
3, 170492, Note_off_c, 1, 68, 100
3, 170492, Note_off_c, 1, 62, 100
3, 170492, Note_off_c, 1, 59, 100
3, 170496, Note_on_c, 1, 68, 80
3, 170496, Note_on_c, 1, 61, 80
3, 170496, Note_on_c, 1, 59, 80
3, 170876, Note_off_c, 1, 68, 100
3, 170876, Note_off_c, 1, 61, 100
3, 170876, Note_off_c, 1, 59, 100
3, 170880, Note_on_c, 1, 68, 80
3, 170880, Note_on_c, 1, 62, 80
3, 170880, Note_on_c, 1, 59, 80
3, 171260, Note_off_c, 1, 68, 100
3, 171260, Note_off_c, 1, 62, 100
3, 171260, Note_off_c, 1, 59, 100
3, 171264, Note_on_c, 1, 68, 80
3, 171264, Note_on_c, 1, 61, 80
3, 171264, Note_on_c, 1, 59, 80
3, 171644, Note_off_c, 1, 68, 100
3, 171644, Note_off_c, 1, 61, 100
3, 171644, Note_off_c, 1, 59, 100
3, 172032, Note_on_c, 1, 68, 80
3, 172032, Note_on_c, 1, 63, 80
3, 172032, Note_on_c, 1, 59, 80
3, 172412, Note_off_c, 1, 68, 100
3, 172412, Note_off_c, 1, 63, 100
3, 172412, Note_off_c, 1, 59, 100
3, 172416, Note_on_c, 1, 68, 80
3, 172416, Note_on_c, 1, 62, 80
3, 172416, Note_on_c, 1, 59, 80
3, 172796, Note_off_c, 1, 68, 100
3, 172796, Note_off_c, 1, 62, 100
3, 172796, Note_off_c, 1, 59, 100
3, 172800, Note_on_c, 1, 68, 80
3, 172800, Note_on_c, 1, 61, 80
3, 172800, Note_on_c, 1, 59, 80
3, 173180, Note_off_c, 1, 68, 100
3, 173180, Note_off_c, 1, 61, 100
3, 173180, Note_off_c, 1, 59, 100
3, 173184, Note_on_c, 1, 68, 80
3, 173184, Note_on_c, 1, 62, 80
3, 173184, Note_on_c, 1, 59, 80
3, 173564, Note_off_c, 1, 68, 100
3, 173564, Note_off_c, 1, 62, 100
3, 173564, Note_off_c, 1, 59, 100
3, 173568, Note_on_c, 1, 68, 80
3, 173568, Note_on_c, 1, 61, 80
3, 173568, Note_on_c, 1, 59, 80
3, 173948, Note_off_c, 1, 68, 100
3, 173948, Note_off_c, 1, 61, 100
3, 173948, Note_off_c, 1, 59, 100
3, 173952, Note_on_c, 1, 68, 80
3, 173952, Note_on_c, 1, 62, 80
3, 173952, Note_on_c, 1, 59, 80
3, 174332, Note_off_c, 1, 68, 100
3, 174332, Note_off_c, 1, 62, 100
3, 174332, Note_off_c, 1, 59, 100
3, 174336, Note_on_c, 1, 68, 80
3, 174336, Note_on_c, 1, 61, 80
3, 174336, Note_on_c, 1, 59, 80
3, 174716, Note_off_c, 1, 68, 100
3, 174716, Note_off_c, 1, 61, 100
3, 174716, Note_off_c, 1, 59, 100
3, 175104, Note_on_c, 1, 68, 80
3, 175104, Note_on_c, 1, 63, 80
3, 175104, Note_on_c, 1, 59, 80
3, 175484, Note_off_c, 1, 68, 100
3, 175484, Note_off_c, 1, 63, 100
3, 175484, Note_off_c, 1, 59, 100
3, 175488, Note_on_c, 1, 68, 80
3, 175488, Note_on_c, 1, 61, 80
3, 175488, Note_on_c, 1, 59, 80
3, 175868, Note_off_c, 1, 68, 100
3, 175868, Note_off_c, 1, 61, 100
3, 175868, Note_off_c, 1, 59, 100
3, 175872, Note_on_c, 1, 66, 80
3, 175872, Note_on_c, 1, 61, 80
3, 175872, Note_on_c, 1, 58, 80
3, 176252, Note_off_c, 1, 66, 100
3, 176252, Note_off_c, 1, 61, 100
3, 176252, Note_off_c, 1, 58, 100
3, 176256, Note_on_c, 1, 66, 84
3, 176256, Note_on_c, 1, 61, 84
3, 176256, Note_on_c, 1, 58, 84
3, 176636, Note_off_c, 1, 66, 100
3, 176636, Note_off_c, 1, 61, 100
3, 176636, Note_off_c, 1, 58, 100
3, 176640, Note_on_c, 1, 66, 88
3, 176640, Note_on_c, 1, 61, 88
3, 176640, Note_on_c, 1, 58, 88
3, 177020, Note_off_c, 1, 66, 100
3, 177020, Note_off_c, 1, 61, 100
3, 177020, Note_off_c, 1, 58, 100
3, 177024, Note_on_c, 1, 66, 93
3, 177024, Note_on_c, 1, 60, 93
3, 177024, Note_on_c, 1, 57, 93
3, 177404, Note_off_c, 1, 66, 100
3, 177404, Note_off_c, 1, 60, 100
3, 177404, Note_off_c, 1, 57, 100
3, 177408, Note_on_c, 1, 66, 97
3, 177408, Note_on_c, 1, 60, 97
3, 177408, Note_on_c, 1, 57, 97
3, 177788, Note_off_c, 1, 66, 100
3, 177788, Note_off_c, 1, 60, 100
3, 177788, Note_off_c, 1, 57, 100
3, 177792, Note_on_c, 1, 66, 102
3, 177792, Note_on_c, 1, 60, 102
3, 177792, Note_on_c, 1, 57, 102
3, 178172, Note_off_c, 1, 66, 100
3, 178172, Note_off_c, 1, 60, 100
3, 178172, Note_off_c, 1, 57, 100
3, 178176, Note_on_c, 1, 66, 106
3, 178176, Note_on_c, 1, 60, 106
3, 178176, Note_on_c, 1, 57, 106
3, 178556, Note_off_c, 1, 66, 100
3, 178556, Note_off_c, 1, 60, 100
3, 178556, Note_off_c, 1, 57, 100
3, 178560, Note_on_c, 1, 48, 110
3, 178560, Note_on_c, 1, 45, 110
3, 178560, Note_on_c, 1, 42, 110
3, 178560, Note_on_c, 1, 38, 110
3, 178940, Note_off_c, 1, 48, 100
3, 178940, Note_off_c, 1, 45, 100
3, 178940, Note_off_c, 1, 42, 100
3, 178940, Note_off_c, 1, 38, 100
3, 178944, Note_on_c, 1, 48, 111
3, 178944, Note_on_c, 1, 45, 111
3, 178944, Note_on_c, 1, 42, 111
3, 178944, Note_on_c, 1, 38, 111
3, 179324, Note_off_c, 1, 48, 100
3, 179324, Note_off_c, 1, 45, 100
3, 179324, Note_off_c, 1, 42, 100
3, 179324, Note_off_c, 1, 38, 100
3, 179328, Note_on_c, 1, 48, 112
3, 179328, Note_on_c, 1, 45, 112
3, 179328, Note_on_c, 1, 42, 112
3, 179328, Note_on_c, 1, 38, 112
3, 179708, Note_off_c, 1, 48, 100
3, 179708, Note_off_c, 1, 45, 100
3, 179708, Note_off_c, 1, 42, 100
3, 179708, Note_off_c, 1, 38, 100
3, 179712, Note_on_c, 1, 48, 113
3, 179712, Note_on_c, 1, 45, 113
3, 179712, Note_on_c, 1, 42, 113
3, 179712, Note_on_c, 1, 38, 113
3, 180092, Note_off_c, 1, 48, 100
3, 180092, Note_off_c, 1, 45, 100
3, 180092, Note_off_c, 1, 42, 100
3, 180092, Note_off_c, 1, 38, 100
3, 180096, Note_on_c, 1, 56, 120
3, 180096, Note_on_c, 1, 49, 120
3, 180144, Note_on_c, 1, 58, 120
3, 180188, Note_off_c, 1, 56, 100
3, 180192, Note_on_c, 1, 56, 120
3, 180236, Note_off_c, 1, 58, 100
3, 180240, Note_on_c, 1, 58, 120
3, 180284, Note_off_c, 1, 56, 100
3, 180288, Note_on_c, 1, 56, 120
3, 180332, Note_off_c, 1, 58, 100
3, 180336, Note_on_c, 1, 58, 120
3, 180380, Note_off_c, 1, 56, 100
3, 180384, Note_on_c, 1, 56, 120
3, 180428, Note_off_c, 1, 58, 100
3, 180432, Note_on_c, 1, 58, 120
3, 180476, Note_off_c, 1, 56, 100
3, 180480, Note_on_c, 1, 56, 120
3, 180524, Note_off_c, 1, 58, 100
3, 180528, Note_on_c, 1, 58, 120
3, 180572, Note_off_c, 1, 56, 100
3, 180576, Note_on_c, 1, 56, 120
3, 180620, Note_off_c, 1, 58, 100
3, 180624, Note_on_c, 1, 58, 120
3, 180668, Note_off_c, 1, 56, 100
3, 180672, Note_on_c, 1, 56, 120
3, 180716, Note_off_c, 1, 58, 100
3, 180720, Note_on_c, 1, 58, 120
3, 180764, Note_off_c, 1, 56, 100
3, 180768, Note_on_c, 1, 56, 120
3, 180812, Note_off_c, 1, 58, 100
3, 180816, Note_on_c, 1, 58, 120
3, 180860, Note_off_c, 1, 56, 100
3, 180864, Note_on_c, 1, 56, 120
3, 180908, Note_off_c, 1, 58, 100
3, 180912, Note_on_c, 1, 58, 120
3, 180956, Note_off_c, 1, 56, 100
3, 180960, Note_on_c, 1, 56, 120
3, 181004, Note_off_c, 1, 58, 100
3, 181008, Note_on_c, 1, 58, 120
3, 181052, Note_off_c, 1, 56, 100
3, 181056, Note_on_c, 1, 56, 120
3, 181100, Note_off_c, 1, 58, 100
3, 181104, Note_on_c, 1, 58, 120
3, 181148, Note_off_c, 1, 56, 100
3, 181152, Note_on_c, 1, 56, 120
3, 181196, Note_off_c, 1, 58, 100
3, 181200, Note_on_c, 1, 58, 120
3, 181244, Note_off_c, 1, 56, 100
3, 181248, Note_on_c, 1, 56, 120
3, 181292, Note_off_c, 1, 58, 100
3, 181296, Note_on_c, 1, 58, 120
3, 181340, Note_off_c, 1, 56, 100
3, 181344, Note_on_c, 1, 56, 120
3, 181388, Note_off_c, 1, 58, 100
3, 181392, Note_on_c, 1, 58, 120
3, 181436, Note_off_c, 1, 56, 100
3, 181440, Note_on_c, 1, 56, 120
3, 181484, Note_off_c, 1, 58, 100
3, 181488, Note_on_c, 1, 58, 120
3, 181532, Note_off_c, 1, 56, 100
3, 181536, Note_on_c, 1, 54, 120
3, 181580, Note_off_c, 1, 58, 100
3, 181584, Note_on_c, 1, 56, 120
3, 181628, Note_off_c, 1, 49, 100
3, 181628, Note_off_c, 1, 54, 100
3, 181628, Note_off_c, 1, 56, 100
3, 181632, Note_on_c, 1, 54, 120
3, 181632, Note_on_c, 1, 42, 120
3, 182012, Note_off_c, 1, 54, 100
3, 182012, Note_off_c, 1, 42, 100
3, 182400, Note_on_c, 1, 66, 80
3, 182524, Note_off_c, 1, 66, 100
3, 182528, Note_on_c, 1, 68, 80
3, 182652, Note_off_c, 1, 68, 100
3, 182656, Note_on_c, 1, 70, 80
3, 182780, Note_off_c, 1, 70, 100
3, 182784, Note_on_c, 1, 71, 80
3, 182908, Note_off_c, 1, 71, 100
3, 182912, Note_on_c, 1, 66, 80
3, 183036, Note_off_c, 1, 66, 100
3, 183040, Note_on_c, 1, 71, 80
3, 183164, Note_off_c, 1, 71, 100
3, 183168, Note_on_c, 1, 70, 80
3, 183168, Note_on_c, 1, 66, 80
3, 183548, Note_off_c, 1, 70, 100
3, 183548, Note_off_c, 1, 66, 100
3, 183936, Note_on_c, 1, 54, 80
3, 184060, Note_off_c, 1, 54, 100
3, 184064, Note_on_c, 1, 56, 80
3, 184188, Note_off_c, 1, 56, 100
3, 184192, Note_on_c, 1, 58, 80
3, 184316, Note_off_c, 1, 58, 100
3, 184320, Note_on_c, 1, 59, 80
3, 184320, Note_on_c, 1, 49, 80
3, 184444, Note_off_c, 1, 59, 100
3, 184448, Note_on_c, 1, 56, 80
3, 184572, Note_off_c, 1, 56, 100
3, 184576, Note_on_c, 1, 61, 80
3, 184700, Note_off_c, 1, 49, 100
3, 184700, Note_off_c, 1, 61, 100
3, 184704, Note_on_c, 1, 58, 80
3, 184704, Note_on_c, 1, 54, 80
3, 185084, Note_off_c, 1, 58, 100
3, 185084, Note_off_c, 1, 54, 100
3, 185472, Note_on_c, 1, 66, 86
3, 185596, Note_off_c, 1, 66, 100
3, 185600, Note_on_c, 1, 68, 88
3, 185724, Note_off_c, 1, 68, 100
3, 185728, Note_on_c, 1, 70, 90
3, 185852, Note_off_c, 1, 70, 100
3, 185856, Note_on_c, 1, 71, 92
3, 185980, Note_off_c, 1, 71, 100
3, 185984, Note_on_c, 1, 66, 94
3, 186108, Note_off_c, 1, 66, 100
3, 186112, Note_on_c, 1, 71, 97
3, 186236, Note_off_c, 1, 71, 100
3, 186240, Note_on_c, 1, 70, 99
3, 186240, Note_on_c, 1, 66, 99
3, 186620, Note_off_c, 1, 70, 100
3, 186620, Note_off_c, 1, 66, 100
3, 187008, Note_on_c, 1, 70, 110
3, 187008, Note_on_c, 1, 67, 110
3, 187008, Note_on_c, 1, 63, 110
3, 187388, Note_off_c, 1, 70, 100
3, 187388, Note_off_c, 1, 67, 100
3, 187388, Note_off_c, 1, 63, 100
3, 187392, Note_on_c, 1, 68, 110
3, 187392, Note_on_c, 1, 63, 110
3, 187392, Note_on_c, 1, 59, 110
3, 187392, Note_on_c, 1, 56, 110
3, 187772, Note_off_c, 1, 68, 100
3, 187772, Note_off_c, 1, 63, 100
3, 187772, Note_off_c, 1, 59, 100
3, 187772, Note_off_c, 1, 56, 100
3, 187776, Note_on_c, 1, 68, 110
3, 187776, Note_on_c, 1, 65, 110
3, 187776, Note_on_c, 1, 61, 110
3, 188540, Note_off_c, 1, 68, 100
3, 188540, Note_off_c, 1, 65, 100
3, 188540, Note_off_c, 1, 61, 100
3, 188544, Note_on_c, 1, 59, 80
3, 188544, Note_on_c, 1, 56, 80
3, 188544, Note_on_c, 1, 49, 80
3, 189308, Note_off_c, 1, 59, 100
3, 189308, Note_off_c, 1, 56, 100
3, 189308, Note_off_c, 1, 49, 100
3, 189312, Note_on_c, 1, 58, 80
3, 189312, Note_on_c, 1, 54, 80
3, 189692, Note_off_c, 1, 58, 100
3, 189692, Note_off_c, 1, 54, 100
3, 190080, Note_on_c, 1, 73, 110
3, 190080, Note_on_c, 1, 70, 110
3, 190080, Note_on_c, 1, 67, 110
3, 190080, Note_on_c, 1, 63, 110
3, 190460, Note_off_c, 1, 73, 100
3, 190460, Note_off_c, 1, 70, 100
3, 190460, Note_off_c, 1, 67, 100
3, 190460, Note_off_c, 1, 63, 100
3, 190464, Note_on_c, 1, 75, 110
3, 190464, Note_on_c, 1, 71, 110
3, 190464, Note_on_c, 1, 68, 110
3, 190844, Note_off_c, 1, 75, 100
3, 190844, Note_off_c, 1, 71, 100
3, 190844, Note_off_c, 1, 68, 100
3, 190848, Note_on_c, 1, 73, 110
3, 190848, Note_on_c, 1, 71, 110
3, 190848, Note_on_c, 1, 68, 110
3, 190848, Note_on_c, 1, 65, 110
3, 190848, Note_on_c, 1, 61, 110
3, 191612, Note_off_c, 1, 73, 100
3, 191612, Note_off_c, 1, 71, 100
3, 191612, Note_off_c, 1, 68, 100
3, 191612, Note_off_c, 1, 65, 100
3, 191612, Note_off_c, 1, 61, 100
3, 191616, Note_on_c, 1, 59, 80
3, 191616, Note_on_c, 1, 56, 80
3, 191616, Note_on_c, 1, 49, 80
3, 192380, Note_off_c, 1, 59, 100
3, 192380, Note_off_c, 1, 56, 100
3, 192380, Note_off_c, 1, 49, 100
3, 192384, Note_on_c, 1, 58, 80
3, 192384, Note_on_c, 1, 54, 80
3, 192764, Note_off_c, 1, 58, 100
3, 192764, Note_off_c, 1, 54, 100
3, 193152, Note_on_c, 1, 47, 80
3, 193152, Note_on_c, 1, 44, 80
3, 193152, Note_on_c, 1, 37, 80
3, 193916, Note_off_c, 1, 47, 100
3, 193916, Note_off_c, 1, 44, 100
3, 193916, Note_off_c, 1, 37, 100
3, 193920, Note_on_c, 1, 46, 80
3, 193920, Note_on_c, 1, 42, 80
3, 194300, Note_off_c, 1, 46, 100
3, 194300, Note_off_c, 1, 42, 100
3, 194688, Note_on_c, 1, 47, 80
3, 194780, Note_off_c, 1, 47, 100
3, 194784, Note_on_c, 1, 49, 80
3, 194876, Note_off_c, 1, 49, 100
3, 194880, Note_on_c, 1, 47, 80
3, 194972, Note_off_c, 1, 47, 100
3, 194976, Note_on_c, 1, 46, 80
3, 195068, Note_off_c, 1, 46, 100
3, 195072, Note_on_c, 1, 47, 80
3, 195164, Note_off_c, 1, 47, 100
3, 195168, Note_on_c, 1, 49, 80
3, 195260, Note_off_c, 1, 49, 100
3, 195264, Note_on_c, 1, 51, 80
3, 195356, Note_off_c, 1, 51, 100
3, 195360, Note_on_c, 1, 53, 80
3, 195452, Note_off_c, 1, 53, 100
3, 195456, Note_on_c, 1, 54, 80
3, 195548, Note_off_c, 1, 54, 100
3, 195552, Note_on_c, 1, 56, 80
3, 195644, Note_off_c, 1, 56, 100
3, 195648, Note_on_c, 1, 58, 80
3, 195740, Note_off_c, 1, 58, 100
3, 195744, Note_on_c, 1, 59, 80
3, 195836, Note_off_c, 1, 59, 100
3, 195840, Note_on_c, 1, 61, 80
3, 195932, Note_off_c, 1, 61, 100
3, 195936, Note_on_c, 1, 59, 80
3, 196028, Note_off_c, 1, 59, 100
3, 196032, Note_on_c, 1, 58, 80
3, 196124, Note_off_c, 1, 58, 100
3, 196128, Note_on_c, 1, 56, 80
3, 196220, Note_off_c, 1, 56, 100
3, 196224, Note_on_c, 1, 54, 80
3, 196316, Note_off_c, 1, 54, 100
3, 196320, Note_on_c, 1, 53, 80
3, 196412, Note_off_c, 1, 53, 100
3, 196416, Note_on_c, 1, 51, 80
3, 196508, Note_off_c, 1, 51, 100
3, 196512, Note_on_c, 1, 49, 80
3, 196604, Note_off_c, 1, 49, 100
3, 196608, Note_on_c, 1, 51, 80
3, 196700, Note_off_c, 1, 51, 100
3, 196704, Note_on_c, 1, 49, 80
3, 196796, Note_off_c, 1, 49, 100
3, 196800, Note_on_c, 1, 51, 80
3, 196892, Note_off_c, 1, 51, 100
3, 196896, Note_on_c, 1, 53, 80
3, 196988, Note_off_c, 1, 53, 100
3, 196992, Note_on_c, 1, 54, 80
3, 197084, Note_off_c, 1, 54, 100
3, 197088, Note_on_c, 1, 56, 80
3, 197180, Note_off_c, 1, 56, 100
3, 197184, Note_on_c, 1, 58, 80
3, 197276, Note_off_c, 1, 58, 100
3, 197280, Note_on_c, 1, 59, 80
3, 197372, Note_off_c, 1, 59, 100
3, 197376, Note_on_c, 1, 61, 80
3, 197468, Note_off_c, 1, 61, 100
3, 197472, Note_on_c, 1, 63, 80
3, 197564, Note_off_c, 1, 63, 100
3, 197568, Note_on_c, 1, 61, 80
3, 197660, Note_off_c, 1, 61, 100
3, 197664, Note_on_c, 1, 59, 80
3, 197756, Note_off_c, 1, 59, 100
3, 197760, Note_on_c, 1, 58, 80
3, 197852, Note_off_c, 1, 58, 100
3, 197856, Note_on_c, 1, 59, 80
3, 197948, Note_off_c, 1, 59, 100
3, 197952, Note_on_c, 1, 61, 80
3, 198044, Note_off_c, 1, 61, 100
3, 198048, Note_on_c, 1, 59, 80
3, 198140, Note_off_c, 1, 59, 100
3, 198144, Note_on_c, 1, 58, 80
3, 198236, Note_off_c, 1, 58, 100
3, 198240, Note_on_c, 1, 59, 80
3, 198332, Note_off_c, 1, 59, 100
3, 198336, Note_on_c, 1, 58, 80
3, 198428, Note_off_c, 1, 58, 100
3, 198432, Note_on_c, 1, 56, 80
3, 198524, Note_off_c, 1, 56, 100
3, 198528, Note_on_c, 1, 54, 80
3, 198620, Note_off_c, 1, 54, 100
3, 198624, Note_on_c, 1, 56, 80
3, 198716, Note_off_c, 1, 56, 100
3, 198720, Note_on_c, 1, 58, 80
3, 198812, Note_off_c, 1, 58, 100
3, 198816, Note_on_c, 1, 59, 80
3, 198908, Note_off_c, 1, 59, 100
3, 198912, Note_on_c, 1, 61, 80
3, 199004, Note_off_c, 1, 61, 100
3, 199008, Note_on_c, 1, 59, 80
3, 199100, Note_off_c, 1, 59, 100
3, 199104, Note_on_c, 1, 58, 80
3, 199196, Note_off_c, 1, 58, 100
3, 199200, Note_on_c, 1, 56, 80
3, 199292, Note_off_c, 1, 56, 100
3, 199296, Note_on_c, 1, 54, 80
3, 199388, Note_off_c, 1, 54, 100
3, 199392, Note_on_c, 1, 58, 80
3, 199484, Note_off_c, 1, 58, 100
3, 199488, Note_on_c, 1, 56, 80
3, 199580, Note_off_c, 1, 56, 100
3, 199584, Note_on_c, 1, 54, 80
3, 199676, Note_off_c, 1, 54, 100
3, 199680, Note_on_c, 1, 52, 80
3, 199772, Note_off_c, 1, 52, 100
3, 199776, Note_on_c, 1, 51, 80
3, 199868, Note_off_c, 1, 51, 100
3, 199872, Note_on_c, 1, 49, 80
3, 199964, Note_off_c, 1, 49, 100
3, 199968, Note_on_c, 1, 47, 80
3, 200060, Note_off_c, 1, 47, 100
3, 200064, Note_on_c, 1, 46, 80
3, 200156, Note_off_c, 1, 46, 100
3, 200160, Note_on_c, 1, 47, 80
3, 200252, Note_off_c, 1, 47, 100
3, 200256, Note_on_c, 1, 49, 81
3, 200348, Note_off_c, 1, 49, 100
3, 200352, Note_on_c, 1, 47, 82
3, 200444, Note_off_c, 1, 47, 100
3, 200448, Note_on_c, 1, 46, 83
3, 200540, Note_off_c, 1, 46, 100
3, 200544, Note_on_c, 1, 49, 84
3, 200636, Note_off_c, 1, 49, 100
3, 200640, Note_on_c, 1, 52, 85
3, 200732, Note_off_c, 1, 52, 100
3, 200736, Note_on_c, 1, 54, 86
3, 200828, Note_off_c, 1, 54, 100
3, 200832, Note_on_c, 1, 55, 87
3, 200924, Note_off_c, 1, 55, 100
3, 200928, Note_on_c, 1, 52, 88
3, 201020, Note_off_c, 1, 52, 100
3, 201024, Note_on_c, 1, 49, 88
3, 201116, Note_off_c, 1, 49, 100
3, 201120, Note_on_c, 1, 47, 89
3, 201212, Note_off_c, 1, 47, 100
3, 201216, Note_on_c, 1, 46, 90
3, 201308, Note_off_c, 1, 46, 100
3, 201312, Note_on_c, 1, 49, 91
3, 201404, Note_off_c, 1, 49, 100
3, 201408, Note_on_c, 1, 52, 92
3, 201500, Note_off_c, 1, 52, 100
3, 201504, Note_on_c, 1, 54, 93
3, 201596, Note_off_c, 1, 54, 100
3, 201600, Note_on_c, 1, 55, 94
3, 201696, Note_on_c, 1, 52, 95
3, 201788, Note_off_c, 1, 55, 100
3, 201792, Note_on_c, 1, 49, 96
3, 201872, Note_off_c, 1, 52, 100
3, 201888, Note_on_c, 1, 47, 97
3, 201972, Note_off_c, 1, 49, 100
3, 201984, Note_on_c, 1, 46, 97
3, 202076, Note_off_c, 1, 47, 100
3, 202080, Note_on_c, 1, 49, 98
3, 202164, Note_off_c, 1, 46, 100
3, 202176, Note_on_c, 1, 54, 99
3, 202256, Note_off_c, 1, 49, 100
3, 202272, Note_on_c, 1, 58, 100
3, 202344, Note_off_c, 1, 54, 100
3, 202368, Note_on_c, 1, 47, 101
3, 202456, Note_off_c, 1, 58, 100
3, 202464, Note_on_c, 1, 50, 102
3, 202552, Note_off_c, 1, 47, 100
3, 202560, Note_on_c, 1, 54, 103
3, 202636, Note_off_c, 1, 50, 100
3, 202656, Note_on_c, 1, 59, 104
3, 202748, Note_off_c, 1, 54, 100
3, 202752, Note_on_c, 1, 50, 105
3, 202844, Note_off_c, 1, 59, 100
3, 202848, Note_on_c, 1, 54, 105
3, 202940, Note_off_c, 1, 50, 100
3, 202944, Note_on_c, 1, 59, 106
3, 203036, Note_off_c, 1, 54, 100
3, 203040, Note_on_c, 1, 62, 107
3, 203132, Note_off_c, 1, 59, 100
3, 203132, Note_off_c, 1, 62, 100
3, 203136, Note_on_c, 1, 53, 108
3, 203232, Note_on_c, 1, 56, 109
3, 203324, Note_off_c, 1, 53, 100
3, 203328, Note_on_c, 1, 59, 110
3, 203408, Note_off_c, 1, 56, 100
3, 203424, Note_on_c, 1, 62, 111
3, 203516, Note_off_c, 1, 59, 100
3, 203520, Note_on_c, 1, 65, 112
3, 203588, Note_off_c, 1, 62, 100
3, 203616, Note_on_c, 1, 68, 113
3, 203696, Note_off_c, 1, 65, 100
3, 203712, Note_on_c, 1, 71, 114
3, 203796, Note_off_c, 1, 68, 100
3, 203808, Note_on_c, 1, 68, 114
3, 203884, Note_off_c, 1, 71, 100
3, 203904, Note_on_c, 1, 65, 110
3, 203996, Note_off_c, 1, 68, 100
3, 204000, Note_on_c, 1, 68, 108
3, 204064, Note_off_c, 1, 65, 100
3, 204096, Note_on_c, 1, 71, 105
3, 204184, Note_off_c, 1, 68, 100
3, 204192, Note_on_c, 1, 68, 102
3, 204272, Note_off_c, 1, 71, 100
3, 204288, Note_on_c, 1, 65, 99
3, 204376, Note_off_c, 1, 68, 100
3, 204384, Note_on_c, 1, 68, 96
3, 204476, Note_off_c, 1, 65, 100
3, 204480, Note_on_c, 1, 71, 93
3, 204556, Note_off_c, 1, 68, 100
3, 204576, Note_on_c, 1, 68, 91
3, 204660, Note_off_c, 1, 71, 100
3, 204668, Note_off_c, 1, 68, 100
3, 204672, Note_on_c, 1, 65, 80
3, 204768, Note_on_c, 1, 71, 80
3, 204860, Note_off_c, 1, 65, 100
3, 204864, Note_on_c, 1, 70, 80
3, 204944, Note_off_c, 1, 71, 100
3, 204960, Note_on_c, 1, 68, 80
3, 205052, Note_off_c, 1, 70, 100
3, 205056, Note_on_c, 1, 73, 80
3, 205144, Note_off_c, 1, 68, 100
3, 205152, Note_on_c, 1, 71, 80
3, 205236, Note_off_c, 1, 73, 100
3, 205248, Note_on_c, 1, 70, 80
3, 205312, Note_off_c, 1, 71, 100
3, 205344, Note_on_c, 1, 68, 80
3, 205416, Note_off_c, 1, 70, 100
3, 205440, Note_on_c, 1, 66, 80
3, 205504, Note_off_c, 1, 68, 100
3, 205536, Note_on_c, 1, 73, 80
3, 205616, Note_off_c, 1, 66, 100
3, 205632, Note_on_c, 1, 71, 80
3, 205704, Note_off_c, 1, 73, 100
3, 205728, Note_on_c, 1, 70, 80
3, 205796, Note_off_c, 1, 71, 100
3, 205824, Note_on_c, 1, 78, 80
3, 205916, Note_off_c, 1, 70, 100
3, 205920, Note_on_c, 1, 77, 80
3, 206012, Note_off_c, 1, 78, 100
3, 206016, Note_on_c, 1, 75, 80
3, 206088, Note_off_c, 1, 77, 100
3, 206112, Note_on_c, 1, 73, 80
3, 206196, Note_off_c, 1, 75, 100
3, 206204, Note_off_c, 1, 73, 100
3, 206208, Note_on_c, 1, 71, 80
3, 206304, Note_on_c, 1, 70, 80
3, 206384, Note_off_c, 1, 71, 100
3, 206400, Note_on_c, 1, 75, 80
3, 206488, Note_off_c, 1, 70, 100
3, 206496, Note_on_c, 1, 73, 80
3, 206580, Note_off_c, 1, 75, 100
3, 206592, Note_on_c, 1, 71, 80
3, 206680, Note_off_c, 1, 73, 100
3, 206688, Note_on_c, 1, 70, 80
3, 206780, Note_off_c, 1, 71, 100
3, 206784, Note_on_c, 1, 68, 80
3, 206864, Note_off_c, 1, 70, 100
3, 206880, Note_on_c, 1, 66, 80
3, 206960, Note_off_c, 1, 68, 100
3, 206976, Note_on_c, 1, 65, 80
3, 207068, Note_off_c, 1, 66, 100
3, 207072, Note_on_c, 1, 66, 80
3, 207164, Note_off_c, 1, 65, 100
3, 207168, Note_on_c, 1, 68, 80
3, 207244, Note_off_c, 1, 66, 100
3, 207264, Note_on_c, 1, 66, 80
3, 207344, Note_off_c, 1, 68, 100
3, 207360, Note_on_c, 1, 60, 80
3, 207428, Note_off_c, 1, 66, 100
3, 207456, Note_on_c, 1, 61, 80
3, 207536, Note_off_c, 1, 60, 100
3, 207552, Note_on_c, 1, 63, 80
3, 207628, Note_off_c, 1, 61, 100
3, 207648, Note_on_c, 1, 61, 80
3, 207732, Note_off_c, 1, 63, 100
3, 207744, Note_on_c, 1, 57, 80
3, 207828, Note_off_c, 1, 61, 100
3, 207840, Note_on_c, 1, 58, 80
3, 207928, Note_off_c, 1, 57, 100
3, 207936, Note_on_c, 1, 59, 80
3, 208016, Note_off_c, 1, 58, 100
3, 208032, Note_on_c, 1, 58, 110
3, 208100, Note_off_c, 1, 59, 100
3, 208128, Note_on_c, 1, 53, 110
3, 208196, Note_off_c, 1, 58, 100
3, 208224, Note_on_c, 1, 54, 110
3, 208316, Note_off_c, 1, 53, 100
3, 208320, Note_on_c, 1, 56, 110
3, 208400, Note_off_c, 1, 54, 100
3, 208416, Note_on_c, 1, 54, 110
3, 208496, Note_off_c, 1, 56, 100
3, 208512, Note_on_c, 1, 48, 110
3, 208604, Note_off_c, 1, 54, 100
3, 208608, Note_on_c, 1, 49, 110
3, 208684, Note_off_c, 1, 48, 100
3, 208704, Note_on_c, 1, 51, 110
3, 208780, Note_off_c, 1, 49, 100
3, 208800, Note_on_c, 1, 49, 110
3, 208876, Note_off_c, 1, 51, 100
3, 208896, Note_on_c, 1, 45, 110
3, 208964, Note_off_c, 1, 49, 100
3, 208992, Note_on_c, 1, 46, 110
3, 209076, Note_off_c, 1, 45, 100
3, 209088, Note_on_c, 1, 47, 110
3, 209176, Note_off_c, 1, 46, 100
3, 209184, Note_on_c, 1, 46, 110
3, 209264, Note_off_c, 1, 47, 100
3, 209276, Note_off_c, 1, 46, 100
3, 209280, Note_on_c, 1, 42, 110
3, 209660, Note_off_c, 1, 42, 100
3, 209664, Note_on_c, 1, 53, 80
3, 209760, Note_on_c, 1, 54, 80
3, 209840, Note_off_c, 1, 53, 100
3, 209856, Note_on_c, 1, 56, 80
3, 209944, Note_off_c, 1, 54, 100
3, 209952, Note_on_c, 1, 54, 80
3, 210020, Note_off_c, 1, 56, 100
3, 210048, Note_on_c, 1, 53, 80
3, 210112, Note_off_c, 1, 54, 100
3, 210144, Note_on_c, 1, 54, 80
3, 210212, Note_off_c, 1, 53, 100
3, 210240, Note_on_c, 1, 56, 80
3, 210308, Note_off_c, 1, 54, 100
3, 210336, Note_on_c, 1, 54, 80
3, 210404, Note_off_c, 1, 56, 100
3, 210432, Note_on_c, 1, 53, 80
3, 210476, Note_off_c, 1, 54, 100
3, 210528, Note_on_c, 1, 54, 80
3, 210568, Note_off_c, 1, 53, 100
3, 210624, Note_on_c, 1, 56, 80
3, 210652, Note_off_c, 1, 54, 100
3, 210720, Note_on_c, 1, 54, 80
3, 210736, Note_off_c, 1, 56, 100
3, 210812, Note_off_c, 1, 54, 100
3, 210816, Note_on_c, 1, 54, 80
3, 210816, Note_on_c, 1, 42, 80
3, 211004, Note_off_c, 1, 54, 100
3, 211004, Note_off_c, 1, 42, 100
3, 211008, Note_on_c, 1, 54, 80
3, 211196, Note_off_c, 1, 54, 100
3, 211200, Note_on_c, 1, 57, 80
3, 211388, Note_off_c, 1, 57, 100
3, 211392, Note_on_c, 1, 54, 80
3, 211580, Note_off_c, 1, 54, 100
3, 211584, Note_on_c, 1, 59, 80
3, 211772, Note_off_c, 1, 59, 100
3, 211776, Note_on_c, 1, 54, 80
3, 211964, Note_off_c, 1, 54, 100
3, 211968, Note_on_c, 1, 57, 80
3, 212156, Note_off_c, 1, 57, 100
3, 212160, Note_on_c, 1, 54, 80
3, 212348, Note_off_c, 1, 54, 100
3, 212352, Note_on_c, 1, 47, 80
3, 212544, Note_on_c, 1, 54, 81
3, 212732, Note_off_c, 1, 54, 100
3, 212736, Note_on_c, 1, 59, 83
3, 212924, Note_off_c, 1, 59, 100
3, 212928, Note_on_c, 1, 54, 84
3, 213116, Note_off_c, 1, 54, 100
3, 213120, Note_on_c, 1, 59, 86
3, 213308, Note_off_c, 1, 59, 100
3, 213312, Note_on_c, 1, 54, 88
3, 213500, Note_off_c, 1, 47, 100
3, 213500, Note_off_c, 1, 54, 100
3, 213504, Note_on_c, 1, 45, 89
3, 213504, Note_on_c, 1, 57, 89
3, 213692, Note_off_c, 1, 57, 100
3, 213696, Note_on_c, 1, 54, 91
3, 213884, Note_off_c, 1, 45, 100
3, 213884, Note_off_c, 1, 54, 100
3, 213888, Note_on_c, 1, 44, 93
3, 213888, Note_on_c, 1, 56, 93
3, 214076, Note_off_c, 1, 56, 100
3, 214080, Note_on_c, 1, 52, 94
3, 214268, Note_off_c, 1, 44, 100
3, 214268, Note_off_c, 1, 52, 100
3, 214272, Note_on_c, 1, 42, 96
3, 214272, Note_on_c, 1, 54, 96
3, 214460, Note_off_c, 1, 54, 100
3, 214464, Note_on_c, 1, 52, 98
3, 214652, Note_off_c, 1, 42, 100
3, 214652, Note_off_c, 1, 52, 100
3, 214656, Note_on_c, 1, 40, 99
3, 214844, Note_off_c, 1, 40, 100
3, 214848, Note_on_c, 1, 52, 80
3, 215036, Note_off_c, 1, 52, 100
3, 215040, Note_on_c, 1, 44, 80
3, 215228, Note_off_c, 1, 44, 100
3, 215232, Note_on_c, 1, 56, 80
3, 215420, Note_off_c, 1, 56, 100
3, 215424, Note_on_c, 1, 57, 80
3, 215424, Note_on_c, 1, 45, 80
3, 215804, Note_off_c, 1, 57, 100
3, 215804, Note_off_c, 1, 45, 100
3, 216192, Note_on_c, 1, 68, 80
3, 216572, Note_off_c, 1, 68, 100
3, 216960, Note_on_c, 1, 67, 80
3, 217340, Note_off_c, 1, 67, 100
3, 217344, Note_on_c, 1, 47, 110
3, 217628, Note_off_c, 1, 47, 100
3, 217632, Note_on_c, 1, 49, 110
3, 217724, Note_off_c, 1, 49, 100
3, 217728, Note_on_c, 1, 51, 110
3, 218108, Note_off_c, 1, 51, 100
3, 218112, Note_on_c, 1, 44, 110
3, 218492, Note_off_c, 1, 44, 100
3, 218496, Note_on_c, 1, 59, 110
3, 218496, Note_on_c, 1, 56, 110
3, 218588, Note_off_c, 1, 59, 100
3, 218588, Note_off_c, 1, 56, 100
3, 218592, Note_on_c, 1, 63, 110
3, 218684, Note_off_c, 1, 63, 100
3, 218688, Note_on_c, 1, 59, 110
3, 218688, Note_on_c, 1, 56, 110
3, 218780, Note_off_c, 1, 59, 100
3, 218780, Note_off_c, 1, 56, 100
3, 218784, Note_on_c, 1, 63, 110
3, 218876, Note_off_c, 1, 63, 100
3, 218880, Note_on_c, 1, 59, 110
3, 218880, Note_on_c, 1, 56, 110
3, 218972, Note_off_c, 1, 59, 100
3, 218972, Note_off_c, 1, 56, 100
3, 218976, Note_on_c, 1, 63, 110
3, 219068, Note_off_c, 1, 63, 100
3, 219072, Note_on_c, 1, 59, 110
3, 219072, Note_on_c, 1, 56, 110
3, 219164, Note_off_c, 1, 59, 100
3, 219164, Note_off_c, 1, 56, 100
3, 219168, Note_on_c, 1, 63, 110
3, 219260, Note_off_c, 1, 63, 100
3, 219264, Note_on_c, 1, 61, 110
3, 219264, Note_on_c, 1, 58, 110
3, 219356, Note_off_c, 1, 61, 100
3, 219356, Note_off_c, 1, 58, 100
3, 219360, Note_on_c, 1, 63, 110
3, 219452, Note_off_c, 1, 63, 100
3, 219456, Note_on_c, 1, 61, 110
3, 219456, Note_on_c, 1, 58, 110
3, 219548, Note_off_c, 1, 61, 100
3, 219548, Note_off_c, 1, 58, 100
3, 219552, Note_on_c, 1, 63, 110
3, 219644, Note_off_c, 1, 63, 100
3, 219648, Note_on_c, 1, 59, 110
3, 219648, Note_on_c, 1, 56, 110
3, 219740, Note_off_c, 1, 59, 100
3, 219740, Note_off_c, 1, 56, 100
3, 219744, Note_on_c, 1, 63, 110
3, 219836, Note_off_c, 1, 63, 100
3, 219840, Note_on_c, 1, 59, 110
3, 219840, Note_on_c, 1, 56, 110
3, 219932, Note_off_c, 1, 59, 100
3, 219932, Note_off_c, 1, 56, 100
3, 219936, Note_on_c, 1, 63, 110
3, 220028, Note_off_c, 1, 63, 100
3, 220032, Note_on_c, 1, 65, 80
3, 220032, Note_on_c, 1, 62, 80
3, 220412, Note_off_c, 1, 65, 100
3, 220412, Note_off_c, 1, 62, 100
3, 221184, Note_on_c, 1, 65, 80
3, 221184, Note_on_c, 1, 62, 80
3, 221468, Note_off_c, 1, 65, 100
3, 221472, Note_on_c, 1, 66, 80
3, 221564, Note_off_c, 1, 62, 100
3, 221564, Note_off_c, 1, 66, 100
3, 221568, Note_on_c, 1, 68, 80
3, 221568, Note_on_c, 1, 65, 80
3, 221568, Note_on_c, 1, 62, 80
3, 221948, Note_off_c, 1, 68, 100
3, 221948, Note_off_c, 1, 65, 100
3, 221948, Note_off_c, 1, 62, 100
3, 222720, Note_on_c, 1, 65, 80
3, 222720, Note_on_c, 1, 62, 80
3, 223004, Note_off_c, 1, 65, 100
3, 223008, Note_on_c, 1, 70, 80
3, 223100, Note_off_c, 1, 62, 100
3, 223100, Note_off_c, 1, 70, 100
3, 223104, Note_on_c, 1, 66, 80
3, 223104, Note_on_c, 1, 63, 80
3, 223292, Note_off_c, 1, 66, 100
3, 223292, Note_off_c, 1, 63, 100
3, 223488, Note_on_c, 1, 54, 80
3, 223488, Note_on_c, 1, 51, 80
3, 223772, Note_off_c, 1, 54, 100
3, 223772, Note_off_c, 1, 51, 100
3, 223776, Note_on_c, 1, 58, 80
3, 223868, Note_off_c, 1, 58, 100
3, 223872, Note_on_c, 1, 56, 80
3, 223872, Note_on_c, 1, 53, 80
3, 224060, Note_off_c, 1, 56, 100
3, 224060, Note_off_c, 1, 53, 100
3, 224256, Note_on_c, 1, 62, 80
3, 224256, Note_on_c, 1, 65, 80
3, 224540, Note_off_c, 1, 62, 100
3, 224540, Note_off_c, 1, 65, 100
3, 224544, Note_on_c, 1, 70, 80
3, 224636, Note_off_c, 1, 70, 100
3, 224640, Note_on_c, 1, 66, 80
3, 224640, Note_on_c, 1, 63, 80
3, 224828, Note_off_c, 1, 66, 100
3, 224828, Note_off_c, 1, 63, 100
3, 225024, Note_on_c, 1, 54, 80
3, 225024, Note_on_c, 1, 51, 80
3, 225308, Note_off_c, 1, 54, 100
3, 225308, Note_off_c, 1, 51, 100
3, 225312, Note_on_c, 1, 58, 80
3, 225404, Note_off_c, 1, 58, 100
3, 225408, Note_on_c, 1, 54, 80
3, 225408, Note_on_c, 1, 51, 80
3, 225596, Note_off_c, 1, 54, 100
3, 225596, Note_off_c, 1, 51, 100
3, 225792, Note_on_c, 1, 63, 80
3, 225792, Note_on_c, 1, 60, 80
3, 226076, Note_off_c, 1, 63, 100
3, 226076, Note_off_c, 1, 60, 100
3, 226080, Note_on_c, 1, 68, 80
3, 226172, Note_off_c, 1, 68, 100
3, 226176, Note_on_c, 1, 64, 80
3, 226176, Note_on_c, 1, 61, 80
3, 226364, Note_off_c, 1, 64, 100
3, 226364, Note_off_c, 1, 61, 100
3, 226560, Note_on_c, 1, 52, 80
3, 226560, Note_on_c, 1, 49, 80
3, 226844, Note_off_c, 1, 52, 100
3, 226844, Note_off_c, 1, 49, 100
3, 226848, Note_on_c, 1, 56, 80
3, 226940, Note_off_c, 1, 56, 100
3, 226944, Note_on_c, 1, 54, 80
3, 226944, Note_on_c, 1, 51, 80
3, 227132, Note_off_c, 1, 54, 100
3, 227132, Note_off_c, 1, 51, 100
3, 227328, Note_on_c, 1, 60, 80
3, 227328, Note_on_c, 1, 63, 80
3, 227612, Note_off_c, 1, 60, 100
3, 227612, Note_off_c, 1, 63, 100
3, 227616, Note_on_c, 1, 68, 80
3, 227708, Note_off_c, 1, 68, 100
3, 227712, Note_on_c, 1, 64, 80
3, 227712, Note_on_c, 1, 61, 80
3, 227900, Note_off_c, 1, 64, 100
3, 227900, Note_off_c, 1, 61, 100
3, 228096, Note_on_c, 1, 52, 80
3, 228096, Note_on_c, 1, 49, 80
3, 228380, Note_off_c, 1, 52, 100
3, 228380, Note_off_c, 1, 49, 100
3, 228384, Note_on_c, 1, 56, 80
3, 228476, Note_off_c, 1, 56, 100
3, 228480, Note_on_c, 1, 54, 80
3, 228480, Note_on_c, 1, 52, 80
3, 228480, Note_on_c, 1, 49, 80
3, 228668, Note_off_c, 1, 54, 100
3, 228668, Note_off_c, 1, 52, 100
3, 228668, Note_off_c, 1, 49, 100
3, 228864, Note_on_c, 1, 58, 80
3, 228864, Note_on_c, 1, 61, 80
3, 229148, Note_off_c, 1, 58, 100
3, 229148, Note_off_c, 1, 61, 100
3, 229152, Note_on_c, 1, 66, 80
3, 229244, Note_off_c, 1, 66, 100
3, 229248, Note_on_c, 1, 59, 80
3, 229248, Note_on_c, 1, 63, 80
3, 229436, Note_off_c, 1, 59, 100
3, 229436, Note_off_c, 1, 63, 100
3, 229632, Note_on_c, 1, 49, 80
3, 229632, Note_on_c, 1, 46, 80
3, 229916, Note_off_c, 1, 49, 100
3, 229916, Note_off_c, 1, 46, 100
3, 229920, Note_on_c, 1, 54, 80
3, 230012, Note_off_c, 1, 54, 100
3, 230016, Note_on_c, 1, 51, 80
3, 230016, Note_on_c, 1, 47, 80
3, 230204, Note_off_c, 1, 51, 100
3, 230204, Note_off_c, 1, 47, 100
3, 230400, Note_on_c, 1, 66, 83
3, 230492, Note_off_c, 1, 66, 100
3, 230496, Note_on_c, 1, 64, 84
3, 230588, Note_off_c, 1, 64, 100
3, 230592, Note_on_c, 1, 63, 84
3, 230684, Note_off_c, 1, 63, 100
3, 230688, Note_on_c, 1, 61, 85
3, 230780, Note_off_c, 1, 61, 100
3, 230784, Note_on_c, 1, 59, 86
3, 230972, Note_off_c, 1, 59, 100
3, 231168, Note_on_c, 1, 71, 89
3, 231260, Note_off_c, 1, 71, 100
3, 231264, Note_on_c, 1, 70, 89
3, 231356, Note_off_c, 1, 70, 100
3, 231360, Note_on_c, 1, 68, 90
3, 231452, Note_off_c, 1, 68, 100
3, 231456, Note_on_c, 1, 66, 91
3, 231548, Note_off_c, 1, 66, 100
3, 231552, Note_on_c, 1, 65, 92
3, 231740, Note_off_c, 1, 65, 100
3, 231936, Note_on_c, 1, 71, 94
3, 232028, Note_off_c, 1, 71, 100
3, 232032, Note_on_c, 1, 70, 95
3, 232124, Note_off_c, 1, 70, 100
3, 232128, Note_on_c, 1, 68, 96
3, 232220, Note_off_c, 1, 68, 100
3, 232224, Note_on_c, 1, 66, 97
3, 232316, Note_off_c, 1, 66, 100
3, 232320, Note_on_c, 1, 65, 97
3, 232508, Note_off_c, 1, 65, 100
3, 232704, Note_on_c, 1, 75, 100
3, 232796, Note_off_c, 1, 75, 100
3, 232800, Note_on_c, 1, 73, 101
3, 232892, Note_off_c, 1, 73, 100
3, 232896, Note_on_c, 1, 71, 102
3, 232988, Note_off_c, 1, 71, 100
3, 232992, Note_on_c, 1, 70, 102
3, 233084, Note_off_c, 1, 70, 100
3, 233088, Note_on_c, 1, 68, 103
3, 233180, Note_off_c, 1, 68, 100
3, 233184, Note_on_c, 1, 71, 104
3, 233276, Note_off_c, 1, 71, 100
3, 233280, Note_on_c, 1, 70, 104
3, 233372, Note_off_c, 1, 70, 100
3, 233376, Note_on_c, 1, 68, 105
3, 233468, Note_off_c, 1, 68, 100
3, 233472, Note_on_c, 1, 66, 106
3, 233564, Note_off_c, 1, 66, 100
3, 233568, Note_on_c, 1, 65, 107
3, 233660, Note_off_c, 1, 65, 100
3, 233664, Note_on_c, 1, 63, 107
3, 233756, Note_off_c, 1, 63, 100
3, 233760, Note_on_c, 1, 61, 108
3, 233852, Note_off_c, 1, 61, 100
3, 233856, Note_on_c, 1, 59, 109
3, 233948, Note_off_c, 1, 59, 100
3, 233952, Note_on_c, 1, 63, 109
3, 234044, Note_off_c, 1, 63, 100
3, 234048, Note_on_c, 1, 61, 110
3, 234140, Note_off_c, 1, 61, 100
3, 234144, Note_on_c, 1, 59, 111
3, 234236, Note_off_c, 1, 59, 100
3, 234240, Note_on_c, 1, 58, 112
3, 234332, Note_off_c, 1, 58, 100
3, 234336, Note_on_c, 1, 56, 112
3, 234428, Note_off_c, 1, 56, 100
3, 234432, Note_on_c, 1, 54, 113
3, 234524, Note_off_c, 1, 54, 100
3, 234528, Note_on_c, 1, 53, 114
3, 234620, Note_off_c, 1, 53, 100
3, 234624, Note_on_c, 1, 59, 114
3, 234716, Note_off_c, 1, 59, 100
3, 234720, Note_on_c, 1, 58, 115
3, 234812, Note_off_c, 1, 58, 100
3, 234816, Note_on_c, 1, 56, 116
3, 234908, Note_off_c, 1, 56, 100
3, 234912, Note_on_c, 1, 54, 117
3, 235004, Note_off_c, 1, 54, 100
3, 235008, Note_on_c, 1, 53, 117
3, 235100, Note_off_c, 1, 53, 100
3, 235104, Note_on_c, 1, 51, 118
3, 235196, Note_off_c, 1, 51, 100
3, 235200, Note_on_c, 1, 49, 119
3, 235292, Note_off_c, 1, 49, 100
3, 235296, Note_on_c, 1, 48, 119
3, 235388, Note_off_c, 1, 48, 100
3, 235392, Note_on_c, 1, 49, 120
3, 236160, Note_on_c, 1, 53, 120
3, 236924, Note_off_c, 1, 49, 100
3, 236924, Note_off_c, 1, 53, 100
3, 236928, Note_on_c, 1, 56, 120
3, 237052, Note_off_c, 1, 56, 100
3, 237056, Note_on_c, 1, 58, 80
3, 237180, Note_off_c, 1, 58, 100
3, 237184, Note_on_c, 1, 56, 80
3, 237308, Note_off_c, 1, 56, 100
3, 237312, Note_on_c, 1, 54, 80
3, 237436, Note_off_c, 1, 54, 100
3, 237440, Note_on_c, 1, 53, 80
3, 237564, Note_off_c, 1, 53, 100
3, 237568, Note_on_c, 1, 51, 80
3, 237692, Note_off_c, 1, 51, 100
3, 237696, Note_on_c, 1, 49, 80
3, 237820, Note_off_c, 1, 49, 100
3, 237824, Note_on_c, 1, 51, 80
3, 237948, Note_off_c, 1, 51, 100
3, 237952, Note_on_c, 1, 49, 80
3, 238076, Note_off_c, 1, 49, 100
3, 238080, Note_on_c, 1, 47, 80
3, 238204, Note_off_c, 1, 47, 100
3, 238208, Note_on_c, 1, 46, 80
3, 238332, Note_off_c, 1, 46, 100
3, 238336, Note_on_c, 1, 44, 80
3, 238460, Note_off_c, 1, 44, 100
3, 238464, Note_on_c, 1, 42, 80
3, 238652, Note_off_c, 1, 42, 100
3, 238656, Note_on_c, 1, 54, 80
3, 238844, Note_off_c, 1, 54, 100
3, 238848, Note_on_c, 1, 58, 80
3, 239036, Note_off_c, 1, 58, 100
3, 239040, Note_on_c, 1, 54, 80
3, 239228, Note_off_c, 1, 54, 100
3, 239232, Note_on_c, 1, 59, 80
3, 239420, Note_off_c, 1, 59, 100
3, 239424, Note_on_c, 1, 54, 80
3, 239612, Note_off_c, 1, 54, 100
3, 239616, Note_on_c, 1, 58, 80
3, 239804, Note_off_c, 1, 58, 100
3, 239808, Note_on_c, 1, 54, 80
3, 239996, Note_off_c, 1, 54, 100
3, 240000, Note_on_c, 1, 56, 80
3, 240188, Note_off_c, 1, 56, 100
3, 240192, Note_on_c, 1, 49, 80
3, 240380, Note_off_c, 1, 49, 100
3, 240384, Note_on_c, 1, 56, 80
3, 240572, Note_off_c, 1, 56, 100
3, 240576, Note_on_c, 1, 49, 80
3, 240764, Note_off_c, 1, 49, 100
3, 240768, Note_on_c, 1, 56, 80
3, 240956, Note_off_c, 1, 56, 100
3, 240960, Note_on_c, 1, 49, 80
3, 241148, Note_off_c, 1, 49, 100
3, 241152, Note_on_c, 1, 53, 80
3, 241340, Note_off_c, 1, 53, 100
3, 241344, Note_on_c, 1, 49, 80
3, 241532, Note_off_c, 1, 49, 100
3, 241536, Note_on_c, 1, 42, 80
3, 241728, Note_on_c, 1, 54, 80
3, 241916, Note_off_c, 1, 54, 100
3, 241920, Note_on_c, 1, 47, 80
3, 242108, Note_off_c, 1, 47, 100
3, 242112, Note_on_c, 1, 54, 80
3, 242300, Note_off_c, 1, 54, 100
3, 242304, Note_on_c, 1, 46, 80
3, 242492, Note_off_c, 1, 46, 100
3, 242496, Note_on_c, 1, 54, 80
3, 242684, Note_off_c, 1, 42, 100
3, 242684, Note_off_c, 1, 54, 100
3, 242688, Note_on_c, 1, 42, 80
3, 242688, Note_on_c, 1, 51, 80
3, 242876, Note_off_c, 1, 51, 100
3, 242880, Note_on_c, 1, 54, 80
3, 243068, Note_off_c, 1, 42, 100
3, 243068, Note_off_c, 1, 54, 100
3, 243072, Note_on_c, 1, 42, 80
3, 243072, Note_on_c, 1, 49, 80
3, 243260, Note_off_c, 1, 49, 100
3, 243264, Note_on_c, 1, 54, 80
3, 243452, Note_off_c, 1, 42, 100
3, 243452, Note_off_c, 1, 54, 100
3, 243456, Note_on_c, 1, 42, 80
3, 243456, Note_on_c, 1, 47, 80
3, 243644, Note_off_c, 1, 47, 100
3, 243648, Note_on_c, 1, 54, 80
3, 243836, Note_off_c, 1, 42, 100
3, 243836, Note_off_c, 1, 54, 100
3, 243840, Note_on_c, 1, 42, 80
3, 243840, Note_on_c, 1, 46, 80
3, 244028, Note_off_c, 1, 46, 100
3, 244032, Note_on_c, 1, 54, 80
3, 244220, Note_off_c, 1, 42, 100
3, 244220, Note_off_c, 1, 54, 100
3, 244992, Note_on_c, 1, 49, 80
3, 245084, Note_off_c, 1, 49, 100
3, 245088, Note_on_c, 1, 53, 80
3, 245180, Note_off_c, 1, 53, 100
3, 245184, Note_on_c, 1, 56, 80
3, 245276, Note_off_c, 1, 56, 100
3, 245280, Note_on_c, 1, 59, 80
3, 245372, Note_off_c, 1, 59, 100
3, 245376, Note_on_c, 1, 47, 80
3, 245756, Note_off_c, 1, 47, 100
3, 246528, Note_on_c, 1, 46, 80
3, 246620, Note_off_c, 1, 46, 100
3, 246624, Note_on_c, 1, 49, 80
3, 246716, Note_off_c, 1, 49, 100
3, 246720, Note_on_c, 1, 54, 80
3, 246812, Note_off_c, 1, 54, 100
3, 246816, Note_on_c, 1, 58, 80
3, 246908, Note_off_c, 1, 58, 100
3, 246912, Note_on_c, 1, 46, 80
3, 247292, Note_off_c, 1, 46, 100
3, 248064, Note_on_c, 1, 51, 80
3, 248156, Note_off_c, 1, 51, 100
3, 248160, Note_on_c, 1, 55, 80
3, 248252, Note_off_c, 1, 55, 100
3, 248256, Note_on_c, 1, 58, 80
3, 248348, Note_off_c, 1, 58, 100
3, 248352, Note_on_c, 1, 61, 80
3, 248444, Note_off_c, 1, 61, 100
3, 248448, Note_on_c, 1, 49, 80
3, 248828, Note_off_c, 1, 49, 100
3, 249600, Note_on_c, 1, 47, 80
3, 249692, Note_off_c, 1, 47, 100
3, 249696, Note_on_c, 1, 51, 80
3, 249788, Note_off_c, 1, 51, 100
3, 249792, Note_on_c, 1, 56, 80
3, 249884, Note_off_c, 1, 56, 100
3, 249888, Note_on_c, 1, 59, 80
3, 249980, Note_off_c, 1, 59, 100
3, 249984, Note_on_c, 1, 47, 80
3, 250364, Note_off_c, 1, 47, 100
3, 250368, Note_on_c, 1, 56, 110
3, 250368, Note_on_c, 1, 52, 110
3, 250368, Note_on_c, 1, 47, 110
3, 250368, Note_on_c, 1, 44, 110
3, 250748, Note_off_c, 1, 56, 100
3, 250748, Note_off_c, 1, 52, 100
3, 250748, Note_off_c, 1, 47, 100
3, 250748, Note_off_c, 1, 44, 100
3, 250752, Note_on_c, 1, 57, 110
3, 250752, Note_on_c, 1, 54, 110
3, 250752, Note_on_c, 1, 49, 110
3, 250752, Note_on_c, 1, 45, 110
3, 251516, Note_off_c, 1, 57, 100
3, 251516, Note_off_c, 1, 54, 100
3, 251516, Note_off_c, 1, 49, 100
3, 251516, Note_off_c, 1, 45, 100
3, 251520, Note_on_c, 1, 59, 110
3, 251520, Note_on_c, 1, 57, 110
3, 251520, Note_on_c, 1, 54, 110
3, 251520, Note_on_c, 1, 47, 110
3, 252284, Note_off_c, 1, 59, 100
3, 252284, Note_off_c, 1, 57, 100
3, 252284, Note_off_c, 1, 54, 100
3, 252284, Note_off_c, 1, 47, 100
3, 252288, Note_on_c, 1, 59, 110
3, 252288, Note_on_c, 1, 56, 110
3, 252288, Note_on_c, 1, 52, 110
3, 252668, Note_off_c, 1, 59, 100
3, 252668, Note_off_c, 1, 56, 100
3, 252668, Note_off_c, 1, 52, 100
3, 252672, Note_on_c, 1, 59, 110
3, 252672, Note_on_c, 1, 54, 110
3, 252672, Note_on_c, 1, 51, 110
3, 252672, Note_on_c, 1, 47, 110
3, 253052, Note_off_c, 1, 59, 100
3, 253052, Note_off_c, 1, 54, 100
3, 253052, Note_off_c, 1, 51, 100
3, 253052, Note_off_c, 1, 47, 100
3, 253056, Note_on_c, 1, 52, 110
3, 253056, Note_on_c, 1, 47, 110
3, 253056, Note_on_c, 1, 44, 110
3, 253056, Note_on_c, 1, 40, 110
3, 253436, Note_off_c, 1, 52, 100
3, 253436, Note_off_c, 1, 47, 100
3, 253436, Note_off_c, 1, 44, 100
3, 253436, Note_off_c, 1, 40, 100
3, 253824, Note_on_c, 1, 56, 80
3, 253824, Note_on_c, 1, 52, 80
3, 254204, Note_off_c, 1, 56, 100
3, 254204, Note_off_c, 1, 52, 100
3, 254592, Note_on_c, 1, 54, 80
3, 254592, Note_on_c, 1, 49, 80
3, 254592, Note_on_c, 1, 45, 80
3, 254972, Note_off_c, 1, 54, 100
3, 254972, Note_off_c, 1, 49, 100
3, 254972, Note_off_c, 1, 45, 100
3, 255360, Note_on_c, 1, 66, 110
3, 255360, Note_on_c, 1, 63, 110
3, 255360, Note_on_c, 1, 59, 110
3, 255740, Note_off_c, 1, 66, 100
3, 255740, Note_off_c, 1, 63, 100
3, 255740, Note_off_c, 1, 59, 100
3, 255744, Note_on_c, 1, 65, 110
3, 255744, Note_on_c, 1, 61, 110
3, 255744, Note_on_c, 1, 59, 110
3, 255744, Note_on_c, 1, 56, 110
3, 256124, Note_off_c, 1, 65, 100
3, 256124, Note_off_c, 1, 61, 100
3, 256124, Note_off_c, 1, 59, 100
3, 256124, Note_off_c, 1, 56, 100
3, 256128, Note_on_c, 1, 66, 110
3, 256128, Note_on_c, 1, 61, 110
3, 256128, Note_on_c, 1, 57, 110
3, 256128, Note_on_c, 1, 54, 110
3, 256508, Note_off_c, 1, 66, 100
3, 256508, Note_off_c, 1, 61, 100
3, 256508, Note_off_c, 1, 57, 100
3, 256508, Note_off_c, 1, 54, 100
3, 256896, Note_on_c, 1, 57, 80
3, 256896, Note_on_c, 1, 54, 80
3, 257276, Note_off_c, 1, 57, 100
3, 257276, Note_off_c, 1, 54, 100
3, 257664, Note_on_c, 1, 56, 80
3, 257664, Note_on_c, 1, 47, 80
3, 258044, Note_off_c, 1, 56, 100
3, 258044, Note_off_c, 1, 47, 100
3, 258432, Note_on_c, 1, 65, 110
3, 258432, Note_on_c, 1, 61, 110
3, 258812, Note_off_c, 1, 65, 100
3, 258812, Note_off_c, 1, 61, 100
3, 258816, Note_on_c, 1, 64, 110
3, 258816, Note_on_c, 1, 61, 110
3, 258816, Note_on_c, 1, 54, 110
3, 259196, Note_off_c, 1, 64, 100
3, 259196, Note_off_c, 1, 61, 100
3, 259196, Note_off_c, 1, 54, 100
3, 259200, Note_on_c, 1, 62, 110
3, 259200, Note_on_c, 1, 59, 110
3, 259580, Note_off_c, 1, 62, 100
3, 259580, Note_off_c, 1, 59, 100
3, 259968, Note_on_c, 1, 62, 80
3, 259968, Note_on_c, 1, 59, 80
3, 260348, Note_off_c, 1, 62, 100
3, 260348, Note_off_c, 1, 59, 100
3, 260736, Note_on_c, 1, 61, 80
3, 260736, Note_on_c, 1, 55, 80
3, 260736, Note_on_c, 1, 52, 80
3, 261116, Note_off_c, 1, 61, 100
3, 261116, Note_off_c, 1, 55, 100
3, 261116, Note_off_c, 1, 52, 100
3, 261504, Note_on_c, 1, 61, 110
3, 261504, Note_on_c, 1, 58, 110
3, 261504, Note_on_c, 1, 54, 110
3, 261884, Note_off_c, 1, 61, 100
3, 261884, Note_off_c, 1, 58, 100
3, 261884, Note_off_c, 1, 54, 100
3, 261888, Note_on_c, 1, 59, 110
3, 261888, Note_on_c, 1, 54, 110
3, 261888, Note_on_c, 1, 47, 110
3, 262268, Note_off_c, 1, 59, 100
3, 262268, Note_off_c, 1, 54, 100
3, 262268, Note_off_c, 1, 47, 100
3, 262272, Note_on_c, 1, 58, 110
3, 262272, Note_on_c, 1, 54, 110
3, 262272, Note_on_c, 1, 46, 110
3, 262652, Note_off_c, 1, 58, 100
3, 262652, Note_off_c, 1, 54, 100
3, 262652, Note_off_c, 1, 46, 100
3, 263040, Note_on_c, 1, 64, 80
3, 263040, Note_on_c, 1, 61, 80
3, 263420, Note_off_c, 1, 64, 100
3, 263420, Note_off_c, 1, 61, 100
3, 263424, Note_on_c, 1, 63, 80
3, 263424, Note_on_c, 1, 59, 80
3, 263804, Note_off_c, 1, 63, 100
3, 263804, Note_off_c, 1, 59, 100
3, 263808, Note_on_c, 1, 61, 80
3, 263808, Note_on_c, 1, 58, 80
3, 264188, Note_off_c, 1, 61, 100
3, 264188, Note_off_c, 1, 58, 100
3, 264576, Note_on_c, 1, 61, 80
3, 264576, Note_on_c, 1, 58, 80
3, 264956, Note_off_c, 1, 61, 100
3, 264956, Note_off_c, 1, 58, 100
3, 265344, Note_on_c, 1, 58, 80
3, 265344, Note_on_c, 1, 54, 80
3, 265724, Note_off_c, 1, 58, 100
3, 265724, Note_off_c, 1, 54, 100
3, 266112, Note_on_c, 1, 63, 80
3, 266112, Note_on_c, 1, 59, 80
3, 266492, Note_off_c, 1, 63, 100
3, 266492, Note_off_c, 1, 59, 100
3, 267264, Note_on_c, 1, 75, 89
3, 267264, Note_on_c, 1, 71, 89
3, 267644, Note_off_c, 1, 75, 100
3, 267644, Note_off_c, 1, 71, 100
3, 267648, Note_on_c, 1, 76, 99
3, 267648, Note_on_c, 1, 73, 99
3, 268796, Note_off_c, 1, 76, 100
3, 268796, Note_off_c, 1, 73, 100
3, 268800, Note_on_c, 1, 76, 80
3, 268800, Note_on_c, 1, 73, 80
3, 269180, Note_off_c, 1, 76, 100
3, 269180, Note_off_c, 1, 73, 100
3, 269184, Note_on_c, 1, 75, 80
3, 269184, Note_on_c, 1, 73, 80
3, 269948, Note_off_c, 1, 75, 100
3, 269948, Note_off_c, 1, 73, 100
3, 269952, Note_on_c, 1, 73, 80
3, 269952, Note_on_c, 1, 70, 80
3, 270332, Note_off_c, 1, 73, 100
3, 270332, Note_off_c, 1, 70, 100
3, 270336, Note_on_c, 1, 73, 80
3, 270336, Note_on_c, 1, 70, 80
3, 270336, Note_on_c, 1, 63, 80
3, 270716, Note_off_c, 1, 73, 100
3, 270716, Note_off_c, 1, 70, 100
3, 270716, Note_off_c, 1, 63, 100
3, 270720, Note_on_c, 1, 71, 80
3, 270720, Note_on_c, 1, 68, 80
3, 270720, Note_on_c, 1, 63, 80
3, 271100, Note_off_c, 1, 71, 100
3, 271100, Note_off_c, 1, 68, 100
3, 271100, Note_off_c, 1, 63, 100
3, 271104, Note_on_c, 1, 70, 80
3, 271104, Note_on_c, 1, 67, 80
3, 271104, Note_on_c, 1, 61, 80
3, 271484, Note_off_c, 1, 70, 100
3, 271484, Note_off_c, 1, 67, 100
3, 271484, Note_off_c, 1, 61, 100
3, 271488, Note_on_c, 1, 68, 80
3, 271488, Note_on_c, 1, 63, 80
3, 271488, Note_on_c, 1, 59, 80
3, 271868, Note_off_c, 1, 68, 100
3, 271868, Note_off_c, 1, 63, 100
3, 271868, Note_off_c, 1, 59, 100
3, 271872, Note_on_c, 1, 68, 80
3, 271872, Note_on_c, 1, 63, 80
3, 271872, Note_on_c, 1, 59, 80
3, 272252, Note_off_c, 1, 68, 100
3, 272252, Note_off_c, 1, 63, 100
3, 272252, Note_off_c, 1, 59, 100
3, 272256, Note_on_c, 1, 68, 80
3, 272256, Note_on_c, 1, 62, 80
3, 272256, Note_on_c, 1, 59, 80
3, 272636, Note_off_c, 1, 68, 100
3, 272636, Note_off_c, 1, 62, 100
3, 272636, Note_off_c, 1, 59, 100
3, 272640, Note_on_c, 1, 68, 80
3, 272640, Note_on_c, 1, 61, 80
3, 272640, Note_on_c, 1, 59, 80
3, 273020, Note_off_c, 1, 68, 100
3, 273020, Note_off_c, 1, 61, 100
3, 273020, Note_off_c, 1, 59, 100
3, 273024, Note_on_c, 1, 68, 80
3, 273024, Note_on_c, 1, 62, 80
3, 273024, Note_on_c, 1, 59, 80
3, 273404, Note_off_c, 1, 68, 100
3, 273404, Note_off_c, 1, 62, 100
3, 273404, Note_off_c, 1, 59, 100
3, 273408, Note_on_c, 1, 68, 80
3, 273408, Note_on_c, 1, 61, 80
3, 273408, Note_on_c, 1, 59, 80
3, 273788, Note_off_c, 1, 68, 100
3, 273788, Note_off_c, 1, 61, 100
3, 273788, Note_off_c, 1, 59, 100
3, 273792, Note_on_c, 1, 68, 80
3, 273792, Note_on_c, 1, 62, 80
3, 273792, Note_on_c, 1, 59, 80
3, 274172, Note_off_c, 1, 68, 100
3, 274172, Note_off_c, 1, 62, 100
3, 274172, Note_off_c, 1, 59, 100
3, 274176, Note_on_c, 1, 68, 80
3, 274176, Note_on_c, 1, 61, 80
3, 274176, Note_on_c, 1, 59, 80
3, 274556, Note_off_c, 1, 68, 100
3, 274556, Note_off_c, 1, 61, 100
3, 274556, Note_off_c, 1, 59, 100
3, 274944, Note_on_c, 1, 68, 80
3, 274944, Note_on_c, 1, 63, 80
3, 274944, Note_on_c, 1, 59, 80
3, 275324, Note_off_c, 1, 68, 100
3, 275324, Note_off_c, 1, 63, 100
3, 275324, Note_off_c, 1, 59, 100
3, 275328, Note_on_c, 1, 68, 80
3, 275328, Note_on_c, 1, 62, 80
3, 275328, Note_on_c, 1, 59, 80
3, 275708, Note_off_c, 1, 68, 100
3, 275708, Note_off_c, 1, 62, 100
3, 275708, Note_off_c, 1, 59, 100
3, 275712, Note_on_c, 1, 68, 80
3, 275712, Note_on_c, 1, 61, 80
3, 275712, Note_on_c, 1, 59, 80
3, 276092, Note_off_c, 1, 68, 100
3, 276092, Note_off_c, 1, 61, 100
3, 276092, Note_off_c, 1, 59, 100
3, 276096, Note_on_c, 1, 68, 80
3, 276096, Note_on_c, 1, 62, 80
3, 276096, Note_on_c, 1, 59, 80
3, 276476, Note_off_c, 1, 68, 100
3, 276476, Note_off_c, 1, 62, 100
3, 276476, Note_off_c, 1, 59, 100
3, 276480, Note_on_c, 1, 68, 80
3, 276480, Note_on_c, 1, 61, 80
3, 276480, Note_on_c, 1, 59, 80
3, 276860, Note_off_c, 1, 68, 100
3, 276860, Note_off_c, 1, 61, 100
3, 276860, Note_off_c, 1, 59, 100
3, 276864, Note_on_c, 1, 68, 80
3, 276864, Note_on_c, 1, 62, 80
3, 276864, Note_on_c, 1, 59, 80
3, 277244, Note_off_c, 1, 68, 100
3, 277244, Note_off_c, 1, 62, 100
3, 277244, Note_off_c, 1, 59, 100
3, 277248, Note_on_c, 1, 68, 80
3, 277248, Note_on_c, 1, 61, 80
3, 277248, Note_on_c, 1, 59, 80
3, 277628, Note_off_c, 1, 68, 100
3, 277628, Note_off_c, 1, 61, 100
3, 277628, Note_off_c, 1, 59, 100
3, 278016, Note_on_c, 1, 68, 80
3, 278016, Note_on_c, 1, 63, 80
3, 278016, Note_on_c, 1, 59, 80
3, 278396, Note_off_c, 1, 68, 100
3, 278396, Note_off_c, 1, 63, 100
3, 278396, Note_off_c, 1, 59, 100
3, 278400, Note_on_c, 1, 68, 80
3, 278400, Note_on_c, 1, 61, 80
3, 278400, Note_on_c, 1, 59, 80
3, 278780, Note_off_c, 1, 68, 100
3, 278780, Note_off_c, 1, 61, 100
3, 278780, Note_off_c, 1, 59, 100
3, 278784, Note_on_c, 1, 66, 80
3, 278784, Note_on_c, 1, 61, 80
3, 278784, Note_on_c, 1, 58, 80
3, 279164, Note_off_c, 1, 66, 100
3, 279164, Note_off_c, 1, 61, 100
3, 279164, Note_off_c, 1, 58, 100
3, 279168, Note_on_c, 1, 66, 84
3, 279168, Note_on_c, 1, 61, 84
3, 279168, Note_on_c, 1, 58, 84
3, 279548, Note_off_c, 1, 66, 100
3, 279548, Note_off_c, 1, 61, 100
3, 279548, Note_off_c, 1, 58, 100
3, 279552, Note_on_c, 1, 66, 88
3, 279552, Note_on_c, 1, 61, 88
3, 279552, Note_on_c, 1, 58, 88
3, 279932, Note_off_c, 1, 66, 100
3, 279932, Note_off_c, 1, 61, 100
3, 279932, Note_off_c, 1, 58, 100
3, 279936, Note_on_c, 1, 66, 93
3, 279936, Note_on_c, 1, 60, 93
3, 279936, Note_on_c, 1, 57, 93
3, 280316, Note_off_c, 1, 66, 100
3, 280316, Note_off_c, 1, 60, 100
3, 280316, Note_off_c, 1, 57, 100
3, 280320, Note_on_c, 1, 66, 97
3, 280320, Note_on_c, 1, 60, 97
3, 280320, Note_on_c, 1, 57, 97
3, 280700, Note_off_c, 1, 66, 100
3, 280700, Note_off_c, 1, 60, 100
3, 280700, Note_off_c, 1, 57, 100
3, 280704, Note_on_c, 1, 66, 102
3, 280704, Note_on_c, 1, 60, 102
3, 280704, Note_on_c, 1, 57, 102
3, 281084, Note_off_c, 1, 66, 100
3, 281084, Note_off_c, 1, 60, 100
3, 281084, Note_off_c, 1, 57, 100
3, 281088, Note_on_c, 1, 66, 106
3, 281088, Note_on_c, 1, 60, 106
3, 281088, Note_on_c, 1, 57, 106
3, 281468, Note_off_c, 1, 66, 100
3, 281468, Note_off_c, 1, 60, 100
3, 281468, Note_off_c, 1, 57, 100
3, 281472, Note_on_c, 1, 48, 110
3, 281472, Note_on_c, 1, 45, 110
3, 281472, Note_on_c, 1, 42, 110
3, 281472, Note_on_c, 1, 38, 110
3, 281852, Note_off_c, 1, 48, 100
3, 281852, Note_off_c, 1, 45, 100
3, 281852, Note_off_c, 1, 42, 100
3, 281852, Note_off_c, 1, 38, 100
3, 281856, Note_on_c, 1, 48, 111
3, 281856, Note_on_c, 1, 45, 111
3, 281856, Note_on_c, 1, 42, 111
3, 281856, Note_on_c, 1, 38, 111
3, 282236, Note_off_c, 1, 48, 100
3, 282236, Note_off_c, 1, 45, 100
3, 282236, Note_off_c, 1, 42, 100
3, 282236, Note_off_c, 1, 38, 100
3, 282240, Note_on_c, 1, 48, 112
3, 282240, Note_on_c, 1, 45, 112
3, 282240, Note_on_c, 1, 42, 112
3, 282240, Note_on_c, 1, 38, 112
3, 282620, Note_off_c, 1, 48, 100
3, 282620, Note_off_c, 1, 45, 100
3, 282620, Note_off_c, 1, 42, 100
3, 282620, Note_off_c, 1, 38, 100
3, 282624, Note_on_c, 1, 48, 113
3, 282624, Note_on_c, 1, 45, 113
3, 282624, Note_on_c, 1, 42, 113
3, 282624, Note_on_c, 1, 38, 113
3, 283004, Note_off_c, 1, 48, 100
3, 283004, Note_off_c, 1, 45, 100
3, 283004, Note_off_c, 1, 42, 100
3, 283004, Note_off_c, 1, 38, 100
3, 283008, Note_on_c, 1, 56, 120
3, 283008, Note_on_c, 1, 49, 120
3, 283056, Note_on_c, 1, 58, 120
3, 283100, Note_off_c, 1, 56, 100
3, 283104, Note_on_c, 1, 56, 120
3, 283148, Note_off_c, 1, 58, 100
3, 283152, Note_on_c, 1, 58, 120
3, 283196, Note_off_c, 1, 56, 100
3, 283200, Note_on_c, 1, 56, 120
3, 283244, Note_off_c, 1, 58, 100
3, 283248, Note_on_c, 1, 58, 120
3, 283292, Note_off_c, 1, 56, 100
3, 283296, Note_on_c, 1, 56, 120
3, 283340, Note_off_c, 1, 58, 100
3, 283344, Note_on_c, 1, 58, 120
3, 283388, Note_off_c, 1, 56, 100
3, 283392, Note_on_c, 1, 56, 120
3, 283436, Note_off_c, 1, 58, 100
3, 283440, Note_on_c, 1, 58, 120
3, 283484, Note_off_c, 1, 56, 100
3, 283488, Note_on_c, 1, 56, 120
3, 283532, Note_off_c, 1, 58, 100
3, 283536, Note_on_c, 1, 58, 120
3, 283580, Note_off_c, 1, 56, 100
3, 283584, Note_on_c, 1, 56, 120
3, 283628, Note_off_c, 1, 58, 100
3, 283632, Note_on_c, 1, 58, 120
3, 283676, Note_off_c, 1, 56, 100
3, 283680, Note_on_c, 1, 56, 120
3, 283724, Note_off_c, 1, 58, 100
3, 283728, Note_on_c, 1, 58, 120
3, 283772, Note_off_c, 1, 56, 100
3, 283776, Note_on_c, 1, 56, 120
3, 283820, Note_off_c, 1, 58, 100
3, 283824, Note_on_c, 1, 58, 120
3, 283868, Note_off_c, 1, 56, 100
3, 283872, Note_on_c, 1, 56, 120
3, 283916, Note_off_c, 1, 58, 100
3, 283920, Note_on_c, 1, 58, 120
3, 283964, Note_off_c, 1, 56, 100
3, 283968, Note_on_c, 1, 56, 120
3, 284012, Note_off_c, 1, 58, 100
3, 284016, Note_on_c, 1, 58, 120
3, 284060, Note_off_c, 1, 56, 100
3, 284064, Note_on_c, 1, 56, 120
3, 284108, Note_off_c, 1, 58, 100
3, 284112, Note_on_c, 1, 58, 120
3, 284156, Note_off_c, 1, 56, 100
3, 284160, Note_on_c, 1, 56, 120
3, 284204, Note_off_c, 1, 58, 100
3, 284208, Note_on_c, 1, 58, 120
3, 284252, Note_off_c, 1, 56, 100
3, 284256, Note_on_c, 1, 56, 120
3, 284300, Note_off_c, 1, 58, 100
3, 284304, Note_on_c, 1, 58, 120
3, 284348, Note_off_c, 1, 56, 100
3, 284352, Note_on_c, 1, 56, 120
3, 284396, Note_off_c, 1, 58, 100
3, 284400, Note_on_c, 1, 58, 120
3, 284444, Note_off_c, 1, 56, 100
3, 284448, Note_on_c, 1, 54, 120
3, 284492, Note_off_c, 1, 58, 100
3, 284496, Note_on_c, 1, 56, 120
3, 284540, Note_off_c, 1, 49, 100
3, 284540, Note_off_c, 1, 54, 100
3, 284540, Note_off_c, 1, 56, 100
3, 284544, Note_on_c, 1, 54, 120
3, 284544, Note_on_c, 1, 42, 120
3, 284924, Note_off_c, 1, 54, 100
3, 284924, Note_off_c, 1, 42, 100
3, 285312, Note_on_c, 1, 66, 80
3, 285436, Note_off_c, 1, 66, 100
3, 285440, Note_on_c, 1, 68, 80
3, 285564, Note_off_c, 1, 68, 100
3, 285568, Note_on_c, 1, 70, 80
3, 285692, Note_off_c, 1, 70, 100
3, 285696, Note_on_c, 1, 71, 80
3, 285820, Note_off_c, 1, 71, 100
3, 285824, Note_on_c, 1, 66, 80
3, 285948, Note_off_c, 1, 66, 100
3, 285952, Note_on_c, 1, 71, 80
3, 286076, Note_off_c, 1, 71, 100
3, 286080, Note_on_c, 1, 70, 80
3, 286080, Note_on_c, 1, 66, 80
3, 286460, Note_off_c, 1, 70, 100
3, 286460, Note_off_c, 1, 66, 100
3, 286848, Note_on_c, 1, 54, 80
3, 286972, Note_off_c, 1, 54, 100
3, 286976, Note_on_c, 1, 56, 80
3, 287100, Note_off_c, 1, 56, 100
3, 287104, Note_on_c, 1, 58, 80
3, 287228, Note_off_c, 1, 58, 100
3, 287232, Note_on_c, 1, 59, 80
3, 287232, Note_on_c, 1, 49, 80
3, 287356, Note_off_c, 1, 59, 100
3, 287360, Note_on_c, 1, 56, 80
3, 287484, Note_off_c, 1, 56, 100
3, 287488, Note_on_c, 1, 61, 80
3, 287612, Note_off_c, 1, 49, 100
3, 287612, Note_off_c, 1, 61, 100
3, 287616, Note_on_c, 1, 58, 80
3, 287616, Note_on_c, 1, 54, 80
3, 287996, Note_off_c, 1, 58, 100
3, 287996, Note_off_c, 1, 54, 100
3, 288384, Note_on_c, 1, 66, 86
3, 288508, Note_off_c, 1, 66, 100
3, 288512, Note_on_c, 1, 68, 88
3, 288636, Note_off_c, 1, 68, 100
3, 288640, Note_on_c, 1, 70, 90
3, 288764, Note_off_c, 1, 70, 100
3, 288768, Note_on_c, 1, 71, 92
3, 288892, Note_off_c, 1, 71, 100
3, 288896, Note_on_c, 1, 66, 94
3, 289020, Note_off_c, 1, 66, 100
3, 289024, Note_on_c, 1, 71, 97
3, 289148, Note_off_c, 1, 71, 100
3, 289152, Note_on_c, 1, 70, 99
3, 289152, Note_on_c, 1, 66, 99
3, 289532, Note_off_c, 1, 70, 100
3, 289532, Note_off_c, 1, 66, 100
3, 289920, Note_on_c, 1, 70, 110
3, 289920, Note_on_c, 1, 67, 110
3, 289920, Note_on_c, 1, 63, 110
3, 290300, Note_off_c, 1, 70, 100
3, 290300, Note_off_c, 1, 67, 100
3, 290300, Note_off_c, 1, 63, 100
3, 290304, Note_on_c, 1, 68, 110
3, 290304, Note_on_c, 1, 63, 110
3, 290304, Note_on_c, 1, 59, 110
3, 290304, Note_on_c, 1, 56, 110
3, 290684, Note_off_c, 1, 68, 100
3, 290684, Note_off_c, 1, 63, 100
3, 290684, Note_off_c, 1, 59, 100
3, 290684, Note_off_c, 1, 56, 100
3, 290688, Note_on_c, 1, 68, 110
3, 290688, Note_on_c, 1, 65, 110
3, 290688, Note_on_c, 1, 61, 110
3, 291452, Note_off_c, 1, 68, 100
3, 291452, Note_off_c, 1, 65, 100
3, 291452, Note_off_c, 1, 61, 100
3, 291456, Note_on_c, 1, 59, 80
3, 291456, Note_on_c, 1, 56, 80
3, 291456, Note_on_c, 1, 49, 80
3, 292220, Note_off_c, 1, 59, 100
3, 292220, Note_off_c, 1, 56, 100
3, 292220, Note_off_c, 1, 49, 100
3, 292224, Note_on_c, 1, 58, 80
3, 292224, Note_on_c, 1, 54, 80
3, 292604, Note_off_c, 1, 58, 100
3, 292604, Note_off_c, 1, 54, 100
3, 292992, Note_on_c, 1, 73, 110
3, 292992, Note_on_c, 1, 70, 110
3, 292992, Note_on_c, 1, 67, 110
3, 292992, Note_on_c, 1, 63, 110
3, 293372, Note_off_c, 1, 73, 100
3, 293372, Note_off_c, 1, 70, 100
3, 293372, Note_off_c, 1, 67, 100
3, 293372, Note_off_c, 1, 63, 100
3, 293376, Note_on_c, 1, 75, 110
3, 293376, Note_on_c, 1, 71, 110
3, 293376, Note_on_c, 1, 68, 110
3, 293756, Note_off_c, 1, 75, 100
3, 293756, Note_off_c, 1, 71, 100
3, 293756, Note_off_c, 1, 68, 100
3, 293760, Note_on_c, 1, 73, 110
3, 293760, Note_on_c, 1, 71, 110
3, 293760, Note_on_c, 1, 68, 110
3, 293760, Note_on_c, 1, 65, 110
3, 293760, Note_on_c, 1, 61, 110
3, 294524, Note_off_c, 1, 73, 100
3, 294524, Note_off_c, 1, 71, 100
3, 294524, Note_off_c, 1, 68, 100
3, 294524, Note_off_c, 1, 65, 100
3, 294524, Note_off_c, 1, 61, 100
3, 294528, Note_on_c, 1, 59, 80
3, 294528, Note_on_c, 1, 56, 80
3, 294528, Note_on_c, 1, 49, 80
3, 295292, Note_off_c, 1, 59, 100
3, 295292, Note_off_c, 1, 56, 100
3, 295292, Note_off_c, 1, 49, 100
3, 295296, Note_on_c, 1, 58, 80
3, 295296, Note_on_c, 1, 54, 80
3, 295676, Note_off_c, 1, 58, 100
3, 295676, Note_off_c, 1, 54, 100
3, 296064, Note_on_c, 1, 47, 80
3, 296064, Note_on_c, 1, 44, 80
3, 296064, Note_on_c, 1, 37, 80
3, 296828, Note_off_c, 1, 47, 100
3, 296828, Note_off_c, 1, 44, 100
3, 296828, Note_off_c, 1, 37, 100
3, 296832, Note_on_c, 1, 46, 80
3, 296832, Note_on_c, 1, 42, 80
3, 297212, Note_off_c, 1, 46, 100
3, 297212, Note_off_c, 1, 42, 100
3, 297600, Note_on_c, 1, 47, 80
3, 297692, Note_off_c, 1, 47, 100
3, 297696, Note_on_c, 1, 49, 80
3, 297788, Note_off_c, 1, 49, 100
3, 297792, Note_on_c, 1, 47, 80
3, 297884, Note_off_c, 1, 47, 100
3, 297888, Note_on_c, 1, 46, 80
3, 297980, Note_off_c, 1, 46, 100
3, 297984, Note_on_c, 1, 47, 80
3, 298076, Note_off_c, 1, 47, 100
3, 298080, Note_on_c, 1, 49, 80
3, 298172, Note_off_c, 1, 49, 100
3, 298176, Note_on_c, 1, 51, 80
3, 298268, Note_off_c, 1, 51, 100
3, 298272, Note_on_c, 1, 53, 80
3, 298364, Note_off_c, 1, 53, 100
3, 298368, Note_on_c, 1, 54, 80
3, 298460, Note_off_c, 1, 54, 100
3, 298464, Note_on_c, 1, 56, 80
3, 298556, Note_off_c, 1, 56, 100
3, 298560, Note_on_c, 1, 58, 80
3, 298652, Note_off_c, 1, 58, 100
3, 298656, Note_on_c, 1, 59, 80
3, 298748, Note_off_c, 1, 59, 100
3, 298752, Note_on_c, 1, 61, 80
3, 298844, Note_off_c, 1, 61, 100
3, 298848, Note_on_c, 1, 59, 80
3, 298940, Note_off_c, 1, 59, 100
3, 298944, Note_on_c, 1, 58, 80
3, 299036, Note_off_c, 1, 58, 100
3, 299040, Note_on_c, 1, 56, 80
3, 299132, Note_off_c, 1, 56, 100
3, 299136, Note_on_c, 1, 54, 80
3, 299228, Note_off_c, 1, 54, 100
3, 299232, Note_on_c, 1, 53, 80
3, 299324, Note_off_c, 1, 53, 100
3, 299328, Note_on_c, 1, 51, 80
3, 299420, Note_off_c, 1, 51, 100
3, 299424, Note_on_c, 1, 49, 80
3, 299516, Note_off_c, 1, 49, 100
3, 299520, Note_on_c, 1, 51, 80
3, 299612, Note_off_c, 1, 51, 100
3, 299616, Note_on_c, 1, 49, 80
3, 299708, Note_off_c, 1, 49, 100
3, 299712, Note_on_c, 1, 51, 80
3, 299804, Note_off_c, 1, 51, 100
3, 299808, Note_on_c, 1, 53, 80
3, 299900, Note_off_c, 1, 53, 100
3, 299904, Note_on_c, 1, 54, 80
3, 299996, Note_off_c, 1, 54, 100
3, 300000, Note_on_c, 1, 56, 80
3, 300092, Note_off_c, 1, 56, 100
3, 300096, Note_on_c, 1, 58, 80
3, 300188, Note_off_c, 1, 58, 100
3, 300192, Note_on_c, 1, 59, 80
3, 300284, Note_off_c, 1, 59, 100
3, 300288, Note_on_c, 1, 61, 80
3, 300380, Note_off_c, 1, 61, 100
3, 300384, Note_on_c, 1, 63, 80
3, 300476, Note_off_c, 1, 63, 100
3, 300480, Note_on_c, 1, 61, 80
3, 300572, Note_off_c, 1, 61, 100
3, 300576, Note_on_c, 1, 59, 80
3, 300668, Note_off_c, 1, 59, 100
3, 300672, Note_on_c, 1, 58, 80
3, 300764, Note_off_c, 1, 58, 100
3, 300768, Note_on_c, 1, 59, 80
3, 300860, Note_off_c, 1, 59, 100
3, 300864, Note_on_c, 1, 61, 80
3, 300956, Note_off_c, 1, 61, 100
3, 300960, Note_on_c, 1, 59, 80
3, 301052, Note_off_c, 1, 59, 100
3, 301056, Note_on_c, 1, 58, 80
3, 301148, Note_off_c, 1, 58, 100
3, 301152, Note_on_c, 1, 59, 80
3, 301244, Note_off_c, 1, 59, 100
3, 301248, Note_on_c, 1, 58, 80
3, 301340, Note_off_c, 1, 58, 100
3, 301344, Note_on_c, 1, 56, 80
3, 301436, Note_off_c, 1, 56, 100
3, 301440, Note_on_c, 1, 54, 80
3, 301532, Note_off_c, 1, 54, 100
3, 301536, Note_on_c, 1, 56, 80
3, 301628, Note_off_c, 1, 56, 100
3, 301632, Note_on_c, 1, 58, 80
3, 301724, Note_off_c, 1, 58, 100
3, 301728, Note_on_c, 1, 59, 80
3, 301820, Note_off_c, 1, 59, 100
3, 301824, Note_on_c, 1, 61, 80
3, 301916, Note_off_c, 1, 61, 100
3, 301920, Note_on_c, 1, 59, 80
3, 302012, Note_off_c, 1, 59, 100
3, 302016, Note_on_c, 1, 58, 80
3, 302108, Note_off_c, 1, 58, 100
3, 302112, Note_on_c, 1, 56, 80
3, 302204, Note_off_c, 1, 56, 100
3, 302208, Note_on_c, 1, 54, 80
3, 302300, Note_off_c, 1, 54, 100
3, 302304, Note_on_c, 1, 58, 80
3, 302396, Note_off_c, 1, 58, 100
3, 302400, Note_on_c, 1, 56, 80
3, 302492, Note_off_c, 1, 56, 100
3, 302496, Note_on_c, 1, 54, 80
3, 302588, Note_off_c, 1, 54, 100
3, 302592, Note_on_c, 1, 52, 80
3, 302684, Note_off_c, 1, 52, 100
3, 302688, Note_on_c, 1, 51, 80
3, 302780, Note_off_c, 1, 51, 100
3, 302784, Note_on_c, 1, 49, 80
3, 302876, Note_off_c, 1, 49, 100
3, 302880, Note_on_c, 1, 47, 80
3, 302972, Note_off_c, 1, 47, 100
3, 302976, Note_on_c, 1, 46, 80
3, 303068, Note_off_c, 1, 46, 100
3, 303072, Note_on_c, 1, 47, 80
3, 303164, Note_off_c, 1, 47, 100
3, 303168, Note_on_c, 1, 49, 81
3, 303260, Note_off_c, 1, 49, 100
3, 303264, Note_on_c, 1, 47, 82
3, 303356, Note_off_c, 1, 47, 100
3, 303360, Note_on_c, 1, 46, 83
3, 303452, Note_off_c, 1, 46, 100
3, 303456, Note_on_c, 1, 49, 84
3, 303548, Note_off_c, 1, 49, 100
3, 303552, Note_on_c, 1, 52, 85
3, 303644, Note_off_c, 1, 52, 100
3, 303648, Note_on_c, 1, 54, 86
3, 303740, Note_off_c, 1, 54, 100
3, 303744, Note_on_c, 1, 55, 87
3, 303836, Note_off_c, 1, 55, 100
3, 303840, Note_on_c, 1, 52, 88
3, 303932, Note_off_c, 1, 52, 100
3, 303936, Note_on_c, 1, 49, 88
3, 304028, Note_off_c, 1, 49, 100
3, 304032, Note_on_c, 1, 47, 89
3, 304124, Note_off_c, 1, 47, 100
3, 304128, Note_on_c, 1, 46, 90
3, 304220, Note_off_c, 1, 46, 100
3, 304224, Note_on_c, 1, 49, 91
3, 304316, Note_off_c, 1, 49, 100
3, 304320, Note_on_c, 1, 52, 92
3, 304412, Note_off_c, 1, 52, 100
3, 304416, Note_on_c, 1, 54, 93
3, 304508, Note_off_c, 1, 54, 100
3, 304512, Note_on_c, 1, 55, 94
3, 304608, Note_on_c, 1, 52, 95
3, 304700, Note_off_c, 1, 55, 100
3, 304704, Note_on_c, 1, 49, 96
3, 304784, Note_off_c, 1, 52, 100
3, 304800, Note_on_c, 1, 47, 97
3, 304884, Note_off_c, 1, 49, 100
3, 304896, Note_on_c, 1, 46, 97
3, 304988, Note_off_c, 1, 47, 100
3, 304992, Note_on_c, 1, 49, 98
3, 305076, Note_off_c, 1, 46, 100
3, 305088, Note_on_c, 1, 54, 99
3, 305168, Note_off_c, 1, 49, 100
3, 305184, Note_on_c, 1, 58, 100
3, 305256, Note_off_c, 1, 54, 100
3, 305280, Note_on_c, 1, 47, 101
3, 305368, Note_off_c, 1, 58, 100
3, 305376, Note_on_c, 1, 50, 102
3, 305464, Note_off_c, 1, 47, 100
3, 305472, Note_on_c, 1, 54, 103
3, 305548, Note_off_c, 1, 50, 100
3, 305568, Note_on_c, 1, 59, 104
3, 305660, Note_off_c, 1, 54, 100
3, 305664, Note_on_c, 1, 50, 105
3, 305756, Note_off_c, 1, 59, 100
3, 305760, Note_on_c, 1, 54, 105
3, 305852, Note_off_c, 1, 50, 100
3, 305856, Note_on_c, 1, 59, 106
3, 305948, Note_off_c, 1, 54, 100
3, 305952, Note_on_c, 1, 62, 107
3, 306044, Note_off_c, 1, 59, 100
3, 306044, Note_off_c, 1, 62, 100
3, 306048, Note_on_c, 1, 53, 108
3, 306144, Note_on_c, 1, 56, 109
3, 306236, Note_off_c, 1, 53, 100
3, 306240, Note_on_c, 1, 59, 110
3, 306320, Note_off_c, 1, 56, 100
3, 306336, Note_on_c, 1, 62, 111
3, 306428, Note_off_c, 1, 59, 100
3, 306432, Note_on_c, 1, 65, 112
3, 306500, Note_off_c, 1, 62, 100
3, 306528, Note_on_c, 1, 68, 113
3, 306608, Note_off_c, 1, 65, 100
3, 306624, Note_on_c, 1, 71, 114
3, 306708, Note_off_c, 1, 68, 100
3, 306720, Note_on_c, 1, 68, 114
3, 306796, Note_off_c, 1, 71, 100
3, 306816, Note_on_c, 1, 65, 110
3, 306908, Note_off_c, 1, 68, 100
3, 306912, Note_on_c, 1, 68, 108
3, 306976, Note_off_c, 1, 65, 100
3, 307008, Note_on_c, 1, 71, 105
3, 307096, Note_off_c, 1, 68, 100
3, 307104, Note_on_c, 1, 68, 102
3, 307184, Note_off_c, 1, 71, 100
3, 307200, Note_on_c, 1, 65, 99
3, 307288, Note_off_c, 1, 68, 100
3, 307296, Note_on_c, 1, 68, 96
3, 307388, Note_off_c, 1, 65, 100
3, 307392, Note_on_c, 1, 71, 93
3, 307468, Note_off_c, 1, 68, 100
3, 307488, Note_on_c, 1, 68, 91
3, 307572, Note_off_c, 1, 71, 100
3, 307580, Note_off_c, 1, 68, 100
3, 307584, Note_on_c, 1, 65, 80
3, 307680, Note_on_c, 1, 71, 80
3, 307772, Note_off_c, 1, 65, 100
3, 307776, Note_on_c, 1, 70, 80
3, 307856, Note_off_c, 1, 71, 100
3, 307872, Note_on_c, 1, 68, 80
3, 307964, Note_off_c, 1, 70, 100
3, 307968, Note_on_c, 1, 73, 80
3, 308056, Note_off_c, 1, 68, 100
3, 308064, Note_on_c, 1, 71, 80
3, 308148, Note_off_c, 1, 73, 100
3, 308160, Note_on_c, 1, 70, 80
3, 308224, Note_off_c, 1, 71, 100
3, 308256, Note_on_c, 1, 68, 80
3, 308328, Note_off_c, 1, 70, 100
3, 308352, Note_on_c, 1, 66, 80
3, 308416, Note_off_c, 1, 68, 100
3, 308448, Note_on_c, 1, 73, 80
3, 308528, Note_off_c, 1, 66, 100
3, 308544, Note_on_c, 1, 71, 80
3, 308616, Note_off_c, 1, 73, 100
3, 308640, Note_on_c, 1, 70, 80
3, 308708, Note_off_c, 1, 71, 100
3, 308736, Note_on_c, 1, 78, 80
3, 308828, Note_off_c, 1, 70, 100
3, 308832, Note_on_c, 1, 77, 80
3, 308924, Note_off_c, 1, 78, 100
3, 308928, Note_on_c, 1, 75, 80
3, 309000, Note_off_c, 1, 77, 100
3, 309024, Note_on_c, 1, 73, 80
3, 309108, Note_off_c, 1, 75, 100
3, 309116, Note_off_c, 1, 73, 100
3, 309120, Note_on_c, 1, 71, 80
3, 309216, Note_on_c, 1, 70, 80
3, 309296, Note_off_c, 1, 71, 100
3, 309312, Note_on_c, 1, 75, 80
3, 309400, Note_off_c, 1, 70, 100
3, 309408, Note_on_c, 1, 73, 80
3, 309492, Note_off_c, 1, 75, 100
3, 309504, Note_on_c, 1, 71, 80
3, 309592, Note_off_c, 1, 73, 100
3, 309600, Note_on_c, 1, 70, 80
3, 309692, Note_off_c, 1, 71, 100
3, 309696, Note_on_c, 1, 68, 80
3, 309776, Note_off_c, 1, 70, 100
3, 309792, Note_on_c, 1, 66, 80
3, 309872, Note_off_c, 1, 68, 100
3, 309888, Note_on_c, 1, 65, 80
3, 309980, Note_off_c, 1, 66, 100
3, 309984, Note_on_c, 1, 66, 80
3, 310076, Note_off_c, 1, 65, 100
3, 310080, Note_on_c, 1, 68, 80
3, 310156, Note_off_c, 1, 66, 100
3, 310176, Note_on_c, 1, 66, 80
3, 310256, Note_off_c, 1, 68, 100
3, 310272, Note_on_c, 1, 60, 80
3, 310340, Note_off_c, 1, 66, 100
3, 310368, Note_on_c, 1, 61, 80
3, 310448, Note_off_c, 1, 60, 100
3, 310464, Note_on_c, 1, 63, 80
3, 310540, Note_off_c, 1, 61, 100
3, 310560, Note_on_c, 1, 61, 80
3, 310644, Note_off_c, 1, 63, 100
3, 310656, Note_on_c, 1, 57, 80
3, 310740, Note_off_c, 1, 61, 100
3, 310752, Note_on_c, 1, 58, 80
3, 310840, Note_off_c, 1, 57, 100
3, 310848, Note_on_c, 1, 59, 80
3, 310928, Note_off_c, 1, 58, 100
3, 310944, Note_on_c, 1, 58, 110
3, 311012, Note_off_c, 1, 59, 100
3, 311040, Note_on_c, 1, 53, 110
3, 311108, Note_off_c, 1, 58, 100
3, 311136, Note_on_c, 1, 54, 110
3, 311228, Note_off_c, 1, 53, 100
3, 311232, Note_on_c, 1, 56, 110
3, 311312, Note_off_c, 1, 54, 100
3, 311328, Note_on_c, 1, 54, 110
3, 311408, Note_off_c, 1, 56, 100
3, 311424, Note_on_c, 1, 48, 110
3, 311516, Note_off_c, 1, 54, 100
3, 311520, Note_on_c, 1, 49, 110
3, 311596, Note_off_c, 1, 48, 100
3, 311616, Note_on_c, 1, 51, 110
3, 311692, Note_off_c, 1, 49, 100
3, 311712, Note_on_c, 1, 49, 110
3, 311788, Note_off_c, 1, 51, 100
3, 311808, Note_on_c, 1, 45, 110
3, 311876, Note_off_c, 1, 49, 100
3, 311904, Note_on_c, 1, 46, 110
3, 311988, Note_off_c, 1, 45, 100
3, 312000, Note_on_c, 1, 47, 110
3, 312088, Note_off_c, 1, 46, 100
3, 312096, Note_on_c, 1, 46, 110
3, 312176, Note_off_c, 1, 47, 100
3, 312188, Note_off_c, 1, 46, 100
3, 312192, Note_on_c, 1, 42, 110
3, 312764, Note_off_c, 1, 42, 100
3, 312764, End_track
0, 0, End_of_file
