0, 0, Header, 1, 3, 384
1, 0, Start_track
1, 0, Title_t, "L.v.Beethoven 3mov - Piano Sonata No.25 in G Major Op.79\000"
1, 0, Copyright_t, "Copyright(C) 1995-2009, Suzuki Software\000"
1, 0, Sequencer_specific, 9, 67, 123, 0, 88, 70, 48, 50, 0, 1
1, 0, Text_t, "XFhd:2000/09/15:JP:Classical::::L.v.Beethoven:::Kaoru Suzuki\000"
1, 0, Text_t, "XFln:JP:\203s\203A\203m\203\\\203i\203^\221æ25\224Ô\203g\222·\222²\215ì\225i79\201`\221æ3\212y\217Í:L.v.\203x\201[\203g\201[\203\224\203F\203\223:::\227é\202¿\202á\202ñ:\227é\202¿\202á\202ñ\000"
1, 0, Time_signature, 2, 2, 96, 8
1, 0, Sequencer_specific, 3, 0, 0, 65
1, 0, Sequencer_specific, 5, 0, 0, 119, 14, 0
1, 0, Tempo, 375000
1, 29568, Tempo, 400000
1, 29760, Tempo, 428571
1, 30336, Tempo, 400000
1, 31872, Tempo, 375000
1, 37248, Tempo, 387096
1, 37632, Tempo, 400000
1, 38016, Tempo, 428571
1, 38400, Tempo, 400000
1, 38592, Tempo, 375000
1, 86784, Tempo, 387096
1, 87168, Tempo, 400000
1, 87360, Tempo, 428571
1, 88320, Tempo, 387096
1, 88512, Tempo, 375000
1, 100608, Tempo, 400000
1, 100800, Tempo, 413793
1, 100896, Tempo, 428571
1, 100992, Tempo, 480000
1, 101184, Tempo, 600000
1, 101280, Tempo, 750000
1, 101280, End_track
2, 0, Start_track
2, 0, Title_t, "Right"
2, 0, Control_c, 0, 0, 0
2, 0, Program_c, 0, 0
2, 0, Control_c, 0, 7, 100
2, 0, Control_c, 0, 10, 80
2, 0, Control_c, 0, 91, 127
2, 0, Key_signature, 1, "major"
2, 0, Note_on_c, 0, 71, 80
2, 188, Note_off_c, 0, 71, 100
2, 192, Note_on_c, 0, 72, 80
2, 284, Note_off_c, 0, 72, 100
2, 288, Note_on_c, 0, 71, 80
2, 380, Note_off_c, 0, 71, 100
2, 384, Note_on_c, 0, 74, 80
2, 572, Note_off_c, 0, 74, 100
2, 576, Note_on_c, 0, 76, 80
2, 668, Note_off_c, 0, 76, 100
2, 672, Note_on_c, 0, 74, 80
2, 764, Note_off_c, 0, 74, 100
2, 768, Note_on_c, 0, 67, 80
2, 956, Note_off_c, 0, 67, 100
2, 960, Note_on_c, 0, 69, 80
2, 1052, Note_off_c, 0, 69, 100
2, 1056, Note_on_c, 0, 67, 80
2, 1148, Note_off_c, 0, 67, 100
2, 1152, Note_on_c, 0, 71, 80
2, 1532, Note_off_c, 0, 71, 100
2, 1536, Note_on_c, 0, 64, 80
2, 1724, Note_off_c, 0, 64, 100
2, 1728, Note_on_c, 0, 66, 80
2, 1820, Note_off_c, 0, 66, 100
2, 1824, Note_on_c, 0, 64, 80
2, 1916, Note_off_c, 0, 64, 100
2, 1920, Note_on_c, 0, 67, 80
2, 2108, Note_off_c, 0, 67, 100
2, 2112, Note_on_c, 0, 69, 80
2, 2204, Note_off_c, 0, 69, 100
2, 2208, Note_on_c, 0, 67, 80
2, 2300, Note_off_c, 0, 67, 100
2, 2304, Note_on_c, 0, 69, 80
2, 2492, Note_off_c, 0, 69, 100
2, 2496, Note_on_c, 0, 71, 80
2, 2588, Note_off_c, 0, 71, 100
2, 2592, Note_on_c, 0, 69, 80
2, 2684, Note_off_c, 0, 69, 100
2, 2688, Note_on_c, 0, 71, 80
2, 3068, Note_off_c, 0, 71, 100
2, 3072, Note_on_c, 0, 71, 80
2, 3260, Note_off_c, 0, 71, 100
2, 3264, Note_on_c, 0, 72, 80
2, 3356, Note_off_c, 0, 72, 100
2, 3360, Note_on_c, 0, 71, 80
2, 3452, Note_off_c, 0, 71, 100
2, 3456, Note_on_c, 0, 74, 80
2, 3644, Note_off_c, 0, 74, 100
2, 3648, Note_on_c, 0, 76, 80
2, 3740, Note_off_c, 0, 76, 100
2, 3744, Note_on_c, 0, 74, 80
2, 3836, Note_off_c, 0, 74, 100
2, 3840, Note_on_c, 0, 79, 80
2, 4028, Note_off_c, 0, 79, 100
2, 4032, Note_on_c, 0, 81, 80
2, 4124, Note_off_c, 0, 81, 100
2, 4128, Note_on_c, 0, 79, 80
2, 4220, Note_off_c, 0, 79, 100
2, 4224, Note_on_c, 0, 78, 80
2, 4604, Note_off_c, 0, 78, 100
2, 4608, Note_on_c, 0, 76, 80
2, 4796, Note_off_c, 0, 76, 100
2, 4800, Note_on_c, 0, 78, 80
2, 4892, Note_off_c, 0, 78, 100
2, 4896, Note_on_c, 0, 76, 80
2, 4988, Note_off_c, 0, 76, 100
2, 4992, Note_on_c, 0, 73, 80
2, 5036, Note_off_c, 0, 73, 100
2, 5040, Note_on_c, 0, 74, 80
2, 5084, Note_off_c, 0, 74, 100
2, 5088, Note_on_c, 0, 73, 80
2, 5180, Note_off_c, 0, 73, 100
2, 5184, Note_on_c, 0, 71, 80
2, 5276, Note_off_c, 0, 71, 100
2, 5280, Note_on_c, 0, 73, 80
2, 5372, Note_off_c, 0, 73, 100
2, 5376, Note_on_c, 0, 74, 80
2, 5564, Note_off_c, 0, 74, 100
2, 6144, Note_on_c, 0, 71, 80
2, 6332, Note_off_c, 0, 71, 100
2, 6336, Note_on_c, 0, 72, 80
2, 6428, Note_off_c, 0, 72, 100
2, 6432, Note_on_c, 0, 71, 80
2, 6524, Note_off_c, 0, 71, 100
2, 6528, Note_on_c, 0, 74, 80
2, 6716, Note_off_c, 0, 74, 100
2, 6720, Note_on_c, 0, 76, 80
2, 6812, Note_off_c, 0, 76, 100
2, 6816, Note_on_c, 0, 74, 80
2, 6908, Note_off_c, 0, 74, 100
2, 6912, Note_on_c, 0, 67, 80
2, 7100, Note_off_c, 0, 67, 100
2, 7104, Note_on_c, 0, 69, 80
2, 7196, Note_off_c, 0, 69, 100
2, 7200, Note_on_c, 0, 67, 80
2, 7292, Note_off_c, 0, 67, 100
2, 7296, Note_on_c, 0, 71, 80
2, 7676, Note_off_c, 0, 71, 100
2, 7680, Note_on_c, 0, 64, 80
2, 7868, Note_off_c, 0, 64, 100
2, 7872, Note_on_c, 0, 66, 80
2, 7964, Note_off_c, 0, 66, 100
2, 7968, Note_on_c, 0, 64, 80
2, 8060, Note_off_c, 0, 64, 100
2, 8064, Note_on_c, 0, 67, 80
2, 8252, Note_off_c, 0, 67, 100
2, 8256, Note_on_c, 0, 69, 80
2, 8348, Note_off_c, 0, 69, 100
2, 8352, Note_on_c, 0, 67, 80
2, 8444, Note_off_c, 0, 67, 100
2, 8448, Note_on_c, 0, 69, 80
2, 8636, Note_off_c, 0, 69, 100
2, 8640, Note_on_c, 0, 71, 80
2, 8732, Note_off_c, 0, 71, 100
2, 8736, Note_on_c, 0, 69, 80
2, 8828, Note_off_c, 0, 69, 100
2, 8832, Note_on_c, 0, 71, 80
2, 9212, Note_off_c, 0, 71, 100
2, 9216, Note_on_c, 0, 71, 80
2, 9404, Note_off_c, 0, 71, 100
2, 9408, Note_on_c, 0, 72, 80
2, 9500, Note_off_c, 0, 72, 100
2, 9504, Note_on_c, 0, 71, 80
2, 9596, Note_off_c, 0, 71, 100
2, 9600, Note_on_c, 0, 74, 80
2, 9788, Note_off_c, 0, 74, 100
2, 9792, Note_on_c, 0, 76, 80
2, 9884, Note_off_c, 0, 76, 100
2, 9888, Note_on_c, 0, 74, 80
2, 9980, Note_off_c, 0, 74, 100
2, 9984, Note_on_c, 0, 79, 80
2, 10172, Note_off_c, 0, 79, 100
2, 10176, Note_on_c, 0, 81, 80
2, 10268, Note_off_c, 0, 81, 100
2, 10272, Note_on_c, 0, 79, 80
2, 10364, Note_off_c, 0, 79, 100
2, 10368, Note_on_c, 0, 78, 80
2, 10748, Note_off_c, 0, 78, 100
2, 10752, Note_on_c, 0, 76, 80
2, 10940, Note_off_c, 0, 76, 100
2, 10944, Note_on_c, 0, 78, 80
2, 11036, Note_off_c, 0, 78, 100
2, 11040, Note_on_c, 0, 76, 80
2, 11132, Note_off_c, 0, 76, 100
2, 11136, Note_on_c, 0, 73, 80
2, 11180, Note_off_c, 0, 73, 100
2, 11184, Note_on_c, 0, 74, 80
2, 11228, Note_off_c, 0, 74, 100
2, 11232, Note_on_c, 0, 73, 80
2, 11324, Note_off_c, 0, 73, 100
2, 11328, Note_on_c, 0, 71, 80
2, 11420, Note_off_c, 0, 71, 100
2, 11424, Note_on_c, 0, 73, 80
2, 11516, Note_off_c, 0, 73, 100
2, 11520, Note_on_c, 0, 74, 80
2, 11708, Note_off_c, 0, 74, 100
2, 12288, Note_on_c, 0, 74, 110
2, 12476, Note_off_c, 0, 74, 100
2, 12480, Note_on_c, 0, 76, 110
2, 12572, Note_off_c, 0, 76, 100
2, 12576, Note_on_c, 0, 74, 110
2, 12668, Note_off_c, 0, 74, 100
2, 12672, Note_on_c, 0, 71, 110
2, 12860, Note_off_c, 0, 71, 100
2, 12864, Note_on_c, 0, 73, 110
2, 13052, Note_off_c, 0, 73, 100
2, 13056, Note_on_c, 0, 74, 110
2, 13436, Note_off_c, 0, 74, 100
2, 13440, Note_on_c, 0, 62, 110
2, 13820, Note_off_c, 0, 62, 100
2, 13824, Note_on_c, 0, 66, 110
2, 13868, Note_off_c, 0, 66, 100
2, 13872, Note_on_c, 0, 64, 110
2, 14012, Note_off_c, 0, 64, 100
2, 14016, Note_on_c, 0, 62, 110
2, 14204, Note_off_c, 0, 62, 100
2, 14208, Note_on_c, 0, 64, 110
2, 14396, Note_off_c, 0, 64, 100
2, 14400, Note_on_c, 0, 66, 110
2, 14588, Note_off_c, 0, 66, 100
2, 14592, Note_on_c, 0, 67, 110
2, 14972, Note_off_c, 0, 67, 100
2, 14976, Note_on_c, 0, 55, 110
2, 15356, Note_off_c, 0, 55, 100
2, 15360, Note_on_c, 0, 74, 80
2, 15552, Note_on_c, 0, 76, 80
2, 15644, Note_off_c, 0, 76, 100
2, 15648, Note_on_c, 0, 74, 80
2, 15740, Note_off_c, 0, 74, 100
2, 15740, Note_off_c, 0, 74, 100
2, 15744, Note_on_c, 0, 67, 80
2, 15744, Note_on_c, 0, 71, 80
2, 15932, Note_off_c, 0, 71, 100
2, 15936, Note_on_c, 0, 73, 80
2, 16124, Note_off_c, 0, 67, 100
2, 16124, Note_off_c, 0, 73, 100
2, 16128, Note_on_c, 0, 74, 80
2, 16128, Note_on_c, 0, 66, 80
2, 16508, Note_off_c, 0, 74, 100
2, 16508, Note_off_c, 0, 66, 100
2, 16512, Note_on_c, 0, 71, 80
2, 16512, Note_on_c, 0, 65, 80
2, 16892, Note_off_c, 0, 71, 100
2, 16892, Note_off_c, 0, 65, 100
2, 16896, Note_on_c, 0, 64, 80
2, 16896, Note_on_c, 0, 74, 80
2, 17084, Note_off_c, 0, 74, 100
2, 17088, Note_on_c, 0, 72, 80
2, 17276, Note_off_c, 0, 64, 100
2, 17276, Note_off_c, 0, 72, 100
2, 17280, Note_on_c, 0, 60, 80
2, 17280, Note_on_c, 0, 69, 80
2, 17468, Note_off_c, 0, 69, 100
2, 17472, Note_on_c, 0, 66, 80
2, 17660, Note_off_c, 0, 60, 100
2, 17660, Note_off_c, 0, 66, 100
2, 17664, Note_on_c, 0, 67, 80
2, 17664, Note_on_c, 0, 59, 80
2, 17852, Note_off_c, 0, 67, 100
2, 17852, Note_off_c, 0, 59, 100
2, 18432, Note_on_c, 0, 74, 110
2, 18620, Note_off_c, 0, 74, 100
2, 18624, Note_on_c, 0, 76, 110
2, 18716, Note_off_c, 0, 76, 100
2, 18720, Note_on_c, 0, 74, 110
2, 18812, Note_off_c, 0, 74, 100
2, 18816, Note_on_c, 0, 71, 110
2, 19004, Note_off_c, 0, 71, 100
2, 19008, Note_on_c, 0, 73, 110
2, 19196, Note_off_c, 0, 73, 100
2, 19200, Note_on_c, 0, 74, 110
2, 19580, Note_off_c, 0, 74, 100
2, 19584, Note_on_c, 0, 62, 110
2, 19964, Note_off_c, 0, 62, 100
2, 19968, Note_on_c, 0, 66, 110
2, 20012, Note_off_c, 0, 66, 100
2, 20016, Note_on_c, 0, 64, 110
2, 20156, Note_off_c, 0, 64, 100
2, 20160, Note_on_c, 0, 62, 110
2, 20348, Note_off_c, 0, 62, 100
2, 20352, Note_on_c, 0, 64, 110
2, 20540, Note_off_c, 0, 64, 100
2, 20544, Note_on_c, 0, 66, 110
2, 20732, Note_off_c, 0, 66, 100
2, 20736, Note_on_c, 0, 67, 110
2, 21116, Note_off_c, 0, 67, 100
2, 21120, Note_on_c, 0, 55, 80
2, 21500, Note_off_c, 0, 55, 100
2, 21504, Note_on_c, 0, 74, 80
2, 21696, Note_on_c, 0, 76, 80
2, 21788, Note_off_c, 0, 76, 100
2, 21792, Note_on_c, 0, 74, 80
2, 21884, Note_off_c, 0, 74, 100
2, 21884, Note_off_c, 0, 74, 100
2, 21888, Note_on_c, 0, 67, 80
2, 21888, Note_on_c, 0, 71, 80
2, 22076, Note_off_c, 0, 71, 100
2, 22080, Note_on_c, 0, 73, 80
2, 22268, Note_off_c, 0, 67, 100
2, 22268, Note_off_c, 0, 73, 100
2, 22272, Note_on_c, 0, 74, 80
2, 22272, Note_on_c, 0, 66, 80
2, 22652, Note_off_c, 0, 74, 100
2, 22652, Note_off_c, 0, 66, 100
2, 22656, Note_on_c, 0, 71, 80
2, 22656, Note_on_c, 0, 65, 80
2, 23036, Note_off_c, 0, 71, 100
2, 23036, Note_off_c, 0, 65, 100
2, 23040, Note_on_c, 0, 64, 80
2, 23040, Note_on_c, 0, 74, 80
2, 23228, Note_off_c, 0, 74, 100
2, 23232, Note_on_c, 0, 72, 80
2, 23420, Note_off_c, 0, 64, 100
2, 23420, Note_off_c, 0, 72, 100
2, 23424, Note_on_c, 0, 60, 80
2, 23424, Note_on_c, 0, 69, 80
2, 23612, Note_off_c, 0, 69, 100
2, 23616, Note_on_c, 0, 66, 80
2, 23804, Note_off_c, 0, 60, 100
2, 23804, Note_off_c, 0, 66, 100
2, 23808, Note_on_c, 0, 67, 80
2, 23808, Note_on_c, 0, 59, 80
2, 23996, Note_off_c, 0, 67, 100
2, 23996, Note_off_c, 0, 59, 100
2, 24192, Note_on_c, 0, 55, 110
2, 24380, Note_off_c, 0, 55, 100
2, 24384, Note_on_c, 0, 57, 110
2, 24476, Note_off_c, 0, 57, 100
2, 24480, Note_on_c, 0, 55, 110
2, 24572, Note_off_c, 0, 55, 100
2, 24960, Note_on_c, 0, 71, 110
2, 25148, Note_off_c, 0, 71, 100
2, 25152, Note_on_c, 0, 72, 110
2, 25244, Note_off_c, 0, 72, 100
2, 25248, Note_on_c, 0, 71, 110
2, 25340, Note_off_c, 0, 71, 100
2, 25344, Note_on_c, 0, 64, 110
2, 25532, Note_off_c, 0, 64, 100
2, 25536, Note_on_c, 0, 66, 110
2, 25628, Note_off_c, 0, 66, 100
2, 25632, Note_on_c, 0, 64, 110
2, 25724, Note_off_c, 0, 64, 100
2, 25728, Note_on_c, 0, 79, 125
2, 26108, Note_off_c, 0, 79, 100
2, 26112, Note_on_c, 0, 78, 110
2, 26300, Note_off_c, 0, 78, 100
2, 26304, Note_on_c, 0, 81, 110
2, 26492, Note_off_c, 0, 81, 100
2, 26496, Note_on_c, 0, 78, 110
2, 26684, Note_off_c, 0, 78, 100
2, 26688, Note_on_c, 0, 75, 110
2, 26876, Note_off_c, 0, 75, 100
2, 26880, Note_on_c, 0, 76, 110
2, 27260, Note_off_c, 0, 76, 100
2, 27264, Note_on_c, 0, 71, 110
2, 27452, Note_off_c, 0, 71, 100
2, 27456, Note_on_c, 0, 71, 110
2, 27644, Note_off_c, 0, 71, 100
2, 27648, Note_on_c, 0, 72, 110
2, 27740, Note_off_c, 0, 72, 100
2, 27744, Note_on_c, 0, 71, 110
2, 27836, Note_off_c, 0, 71, 100
2, 27840, Note_on_c, 0, 69, 110
2, 27932, Note_off_c, 0, 69, 100
2, 27936, Note_on_c, 0, 67, 110
2, 28028, Note_off_c, 0, 67, 100
2, 28032, Note_on_c, 0, 66, 110
2, 28124, Note_off_c, 0, 66, 100
2, 28128, Note_on_c, 0, 67, 110
2, 28220, Note_off_c, 0, 67, 100
2, 28224, Note_on_c, 0, 66, 110
2, 28316, Note_off_c, 0, 66, 100
2, 28320, Note_on_c, 0, 64, 110
2, 28412, Note_off_c, 0, 64, 100
2, 28416, Note_on_c, 0, 63, 110
2, 28508, Note_off_c, 0, 63, 100
2, 28512, Note_on_c, 0, 64, 110
2, 28604, Note_off_c, 0, 64, 100
2, 28608, Note_on_c, 0, 66, 110
2, 28700, Note_off_c, 0, 66, 100
2, 28704, Note_on_c, 0, 63, 110
2, 28796, Note_off_c, 0, 63, 100
2, 28800, Note_on_c, 0, 59, 110
2, 28988, Note_off_c, 0, 59, 100
2, 28992, Note_on_c, 0, 66, 110
2, 28992, Note_on_c, 0, 63, 110
2, 28992, Note_on_c, 0, 59, 110
2, 29180, Note_off_c, 0, 66, 100
2, 29180, Note_off_c, 0, 63, 100
2, 29180, Note_off_c, 0, 59, 100
2, 29184, Note_on_c, 0, 67, 110
2, 29184, Note_on_c, 0, 64, 110
2, 29184, Note_on_c, 0, 59, 110
2, 29372, Note_off_c, 0, 67, 100
2, 29372, Note_off_c, 0, 64, 100
2, 29372, Note_off_c, 0, 59, 100
2, 29376, Note_on_c, 0, 67, 110
2, 29376, Note_on_c, 0, 64, 110
2, 29376, Note_on_c, 0, 59, 110
2, 29564, Note_off_c, 0, 67, 100
2, 29564, Note_off_c, 0, 64, 100
2, 29564, Note_off_c, 0, 59, 100
2, 29568, Note_on_c, 0, 67, 110
2, 29568, Note_on_c, 0, 64, 110
2, 29568, Note_on_c, 0, 59, 110
2, 29756, Note_off_c, 0, 67, 100
2, 29756, Note_off_c, 0, 64, 100
2, 29756, Note_off_c, 0, 59, 100
2, 29760, Note_on_c, 0, 67, 110
2, 29760, Note_on_c, 0, 64, 110
2, 29760, Note_on_c, 0, 59, 110
2, 29948, Note_off_c, 0, 67, 100
2, 29948, Note_off_c, 0, 64, 100
2, 29948, Note_off_c, 0, 59, 100
2, 29952, Note_on_c, 0, 59, 110
2, 29952, Note_on_c, 0, 63, 110
2, 29952, Note_on_c, 0, 66, 110
2, 30140, Note_off_c, 0, 59, 100
2, 30140, Note_off_c, 0, 63, 100
2, 30140, Note_off_c, 0, 66, 100
2, 30720, Note_on_c, 0, 71, 110
2, 30908, Note_off_c, 0, 71, 100
2, 30912, Note_on_c, 0, 72, 110
2, 31004, Note_off_c, 0, 72, 100
2, 31008, Note_on_c, 0, 71, 110
2, 31100, Note_off_c, 0, 71, 100
2, 31104, Note_on_c, 0, 83, 110
2, 31484, Note_off_c, 0, 83, 100
2, 32256, Note_on_c, 0, 72, 110
2, 32444, Note_off_c, 0, 72, 100
2, 32448, Note_on_c, 0, 74, 110
2, 32540, Note_off_c, 0, 74, 100
2, 32544, Note_on_c, 0, 72, 110
2, 32636, Note_off_c, 0, 72, 100
2, 32640, Note_on_c, 0, 84, 110
2, 33020, Note_off_c, 0, 84, 100
2, 33792, Note_on_c, 0, 72, 110
2, 33980, Note_off_c, 0, 72, 100
2, 33984, Note_on_c, 0, 74, 109
2, 34076, Note_off_c, 0, 74, 100
2, 34080, Note_on_c, 0, 72, 108
2, 34172, Note_off_c, 0, 72, 100
2, 34176, Note_on_c, 0, 81, 107
2, 34364, Note_off_c, 0, 81, 100
2, 34368, Note_on_c, 0, 83, 105
2, 34460, Note_off_c, 0, 83, 100
2, 34464, Note_on_c, 0, 81, 104
2, 34556, Note_off_c, 0, 81, 100
2, 34560, Note_on_c, 0, 72, 103
2, 34748, Note_off_c, 0, 72, 100
2, 34752, Note_on_c, 0, 74, 101
2, 34844, Note_off_c, 0, 74, 100
2, 34848, Note_on_c, 0, 72, 100
2, 34940, Note_off_c, 0, 72, 100
2, 34944, Note_on_c, 0, 81, 99
2, 35132, Note_off_c, 0, 81, 100
2, 35136, Note_on_c, 0, 83, 97
2, 35228, Note_off_c, 0, 83, 100
2, 35232, Note_on_c, 0, 81, 96
2, 35324, Note_off_c, 0, 81, 100
2, 35328, Note_on_c, 0, 72, 95
2, 35516, Note_off_c, 0, 72, 100
2, 35520, Note_on_c, 0, 74, 93
2, 35612, Note_off_c, 0, 74, 100
2, 35616, Note_on_c, 0, 72, 92
2, 35708, Note_off_c, 0, 72, 100
2, 35712, Note_on_c, 0, 78, 91
2, 35900, Note_off_c, 0, 78, 100
2, 35904, Note_on_c, 0, 79, 89
2, 35996, Note_off_c, 0, 79, 100
2, 36000, Note_on_c, 0, 78, 88
2, 36092, Note_off_c, 0, 78, 100
2, 36096, Note_on_c, 0, 72, 87
2, 36284, Note_off_c, 0, 72, 100
2, 36288, Note_on_c, 0, 74, 85
2, 36380, Note_off_c, 0, 74, 100
2, 36384, Note_on_c, 0, 72, 84
2, 36476, Note_off_c, 0, 72, 100
2, 36480, Note_on_c, 0, 74, 83
2, 36668, Note_off_c, 0, 74, 100
2, 36672, Note_on_c, 0, 76, 82
2, 36764, Note_off_c, 0, 76, 100
2, 36768, Note_on_c, 0, 74, 81
2, 36860, Note_off_c, 0, 74, 100
2, 36864, Note_on_c, 0, 73, 80
2, 37052, Note_off_c, 0, 73, 100
2, 37056, Note_on_c, 0, 74, 80
2, 37148, Note_off_c, 0, 74, 100
2, 37152, Note_on_c, 0, 73, 80
2, 37244, Note_off_c, 0, 73, 100
2, 37248, Note_on_c, 0, 74, 80
2, 37436, Note_off_c, 0, 74, 100
2, 37440, Note_on_c, 0, 76, 80
2, 37532, Note_off_c, 0, 76, 100
2, 37536, Note_on_c, 0, 74, 80
2, 37628, Note_off_c, 0, 74, 100
2, 37632, Note_on_c, 0, 73, 80
2, 37820, Note_off_c, 0, 73, 100
2, 37824, Note_on_c, 0, 74, 80
2, 37916, Note_off_c, 0, 74, 100
2, 37920, Note_on_c, 0, 73, 80
2, 38012, Note_off_c, 0, 73, 100
2, 38016, Note_on_c, 0, 74, 80
2, 38204, Note_off_c, 0, 74, 100
2, 38208, Note_on_c, 0, 76, 80
2, 38300, Note_off_c, 0, 76, 100
2, 38304, Note_on_c, 0, 74, 80
2, 38396, Note_off_c, 0, 74, 100
2, 38400, Note_on_c, 0, 71, 80
2, 38588, Note_off_c, 0, 71, 100
2, 38592, Note_on_c, 0, 72, 80
2, 38684, Note_off_c, 0, 72, 100
2, 38688, Note_on_c, 0, 71, 80
2, 38780, Note_off_c, 0, 71, 100
2, 38784, Note_on_c, 0, 74, 80
2, 38972, Note_off_c, 0, 74, 100
2, 38976, Note_on_c, 0, 76, 80
2, 39068, Note_off_c, 0, 76, 100
2, 39072, Note_on_c, 0, 74, 80
2, 39164, Note_off_c, 0, 74, 100
2, 39168, Note_on_c, 0, 67, 80
2, 39356, Note_off_c, 0, 67, 100
2, 39360, Note_on_c, 0, 69, 80
2, 39452, Note_off_c, 0, 69, 100
2, 39456, Note_on_c, 0, 67, 80
2, 39548, Note_off_c, 0, 67, 100
2, 39552, Note_on_c, 0, 71, 80
2, 39932, Note_off_c, 0, 71, 100
2, 39936, Note_on_c, 0, 64, 80
2, 40124, Note_off_c, 0, 64, 100
2, 40128, Note_on_c, 0, 66, 80
2, 40220, Note_off_c, 0, 66, 100
2, 40224, Note_on_c, 0, 64, 80
2, 40316, Note_off_c, 0, 64, 100
2, 40320, Note_on_c, 0, 67, 80
2, 40508, Note_off_c, 0, 67, 100
2, 40512, Note_on_c, 0, 69, 80
2, 40604, Note_off_c, 0, 69, 100
2, 40608, Note_on_c, 0, 67, 80
2, 40700, Note_off_c, 0, 67, 100
2, 40704, Note_on_c, 0, 69, 80
2, 40892, Note_off_c, 0, 69, 100
2, 40896, Note_on_c, 0, 71, 80
2, 40988, Note_off_c, 0, 71, 100
2, 40992, Note_on_c, 0, 69, 80
2, 41084, Note_off_c, 0, 69, 100
2, 41088, Note_on_c, 0, 71, 80
2, 41468, Note_off_c, 0, 71, 100
2, 41472, Note_on_c, 0, 71, 80
2, 41660, Note_off_c, 0, 71, 100
2, 41664, Note_on_c, 0, 72, 80
2, 41756, Note_off_c, 0, 72, 100
2, 41760, Note_on_c, 0, 71, 80
2, 41852, Note_off_c, 0, 71, 100
2, 41856, Note_on_c, 0, 74, 80
2, 42044, Note_off_c, 0, 74, 100
2, 42048, Note_on_c, 0, 76, 80
2, 42140, Note_off_c, 0, 76, 100
2, 42144, Note_on_c, 0, 74, 80
2, 42236, Note_off_c, 0, 74, 100
2, 42240, Note_on_c, 0, 79, 80
2, 42428, Note_off_c, 0, 79, 100
2, 42432, Note_on_c, 0, 81, 80
2, 42524, Note_off_c, 0, 81, 100
2, 42528, Note_on_c, 0, 79, 80
2, 42620, Note_off_c, 0, 79, 100
2, 42624, Note_on_c, 0, 78, 80
2, 43004, Note_off_c, 0, 78, 100
2, 43008, Note_on_c, 0, 76, 80
2, 43196, Note_off_c, 0, 76, 100
2, 43200, Note_on_c, 0, 78, 80
2, 43292, Note_off_c, 0, 78, 100
2, 43296, Note_on_c, 0, 76, 80
2, 43388, Note_off_c, 0, 76, 100
2, 43392, Note_on_c, 0, 73, 80
2, 43436, Note_off_c, 0, 73, 100
2, 43440, Note_on_c, 0, 74, 80
2, 43484, Note_off_c, 0, 74, 100
2, 43488, Note_on_c, 0, 73, 80
2, 43580, Note_off_c, 0, 73, 100
2, 43584, Note_on_c, 0, 71, 80
2, 43676, Note_off_c, 0, 71, 100
2, 43680, Note_on_c, 0, 73, 80
2, 43772, Note_off_c, 0, 73, 100
2, 43776, Note_on_c, 0, 74, 80
2, 43964, Note_off_c, 0, 74, 100
2, 44544, Note_on_c, 0, 74, 110
2, 44732, Note_off_c, 0, 74, 100
2, 44736, Note_on_c, 0, 76, 110
2, 44828, Note_off_c, 0, 76, 100
2, 44832, Note_on_c, 0, 74, 110
2, 44924, Note_off_c, 0, 74, 100
2, 44928, Note_on_c, 0, 71, 110
2, 45116, Note_off_c, 0, 71, 100
2, 45120, Note_on_c, 0, 73, 110
2, 45308, Note_off_c, 0, 73, 100
2, 45312, Note_on_c, 0, 74, 110
2, 45692, Note_off_c, 0, 74, 100
2, 45696, Note_on_c, 0, 62, 110
2, 46076, Note_off_c, 0, 62, 100
2, 46080, Note_on_c, 0, 66, 110
2, 46124, Note_off_c, 0, 66, 100
2, 46128, Note_on_c, 0, 64, 110
2, 46268, Note_off_c, 0, 64, 100
2, 46272, Note_on_c, 0, 62, 110
2, 46460, Note_off_c, 0, 62, 100
2, 46464, Note_on_c, 0, 64, 110
2, 46652, Note_off_c, 0, 64, 100
2, 46656, Note_on_c, 0, 66, 110
2, 46844, Note_off_c, 0, 66, 100
2, 46848, Note_on_c, 0, 67, 110
2, 47228, Note_off_c, 0, 67, 100
2, 47232, Note_on_c, 0, 55, 110
2, 47612, Note_off_c, 0, 55, 100
2, 47616, Note_on_c, 0, 74, 80
2, 47804, Note_off_c, 0, 74, 100
2, 47808, Note_on_c, 0, 76, 80
2, 47900, Note_off_c, 0, 76, 100
2, 47904, Note_on_c, 0, 74, 80
2, 47996, Note_off_c, 0, 74, 100
2, 48000, Note_on_c, 0, 71, 80
2, 48188, Note_off_c, 0, 71, 100
2, 48192, Note_on_c, 0, 73, 80
2, 48380, Note_off_c, 0, 73, 100
2, 48384, Note_on_c, 0, 74, 80
2, 48764, Note_off_c, 0, 74, 100
2, 48768, Note_on_c, 0, 71, 80
2, 49148, Note_off_c, 0, 71, 100
2, 49152, Note_on_c, 0, 74, 80
2, 49340, Note_off_c, 0, 74, 100
2, 49344, Note_on_c, 0, 72, 80
2, 49532, Note_off_c, 0, 72, 100
2, 49536, Note_on_c, 0, 69, 80
2, 49724, Note_off_c, 0, 69, 100
2, 49728, Note_on_c, 0, 66, 80
2, 49916, Note_off_c, 0, 66, 100
2, 49920, Note_on_c, 0, 67, 80
2, 50300, Note_off_c, 0, 67, 100
2, 50400, Note_on_c, 0, 55, 110
2, 50492, Note_off_c, 0, 55, 100
2, 50496, Note_on_c, 0, 57, 110
2, 50588, Note_off_c, 0, 57, 100
2, 50592, Note_on_c, 0, 59, 110
2, 50684, Note_off_c, 0, 59, 100
2, 50688, Key_signature, 0, "major"
2, 50688, Note_on_c, 0, 60, 110
2, 50780, Note_off_c, 0, 60, 100
2, 50784, Note_on_c, 0, 55, 110
2, 50876, Note_off_c, 0, 55, 100
2, 50880, Note_on_c, 0, 57, 110
2, 50972, Note_off_c, 0, 57, 100
2, 50976, Note_on_c, 0, 59, 110
2, 51068, Note_off_c, 0, 59, 100
2, 51072, Note_on_c, 0, 60, 110
2, 51164, Note_off_c, 0, 60, 100
2, 51168, Note_on_c, 0, 62, 110
2, 51260, Note_off_c, 0, 62, 100
2, 51264, Note_on_c, 0, 64, 110
2, 51356, Note_off_c, 0, 64, 100
2, 51360, Note_on_c, 0, 65, 110
2, 51452, Note_off_c, 0, 65, 100
2, 51456, Note_on_c, 0, 67, 110
2, 51644, Note_off_c, 0, 67, 100
2, 51648, Note_on_c, 0, 64, 110
2, 51836, Note_off_c, 0, 64, 100
2, 51840, Note_on_c, 0, 72, 110
2, 52028, Note_off_c, 0, 72, 100
2, 52032, Note_on_c, 0, 67, 110
2, 52220, Note_off_c, 0, 67, 100
2, 52224, Note_on_c, 0, 76, 110
2, 52412, Note_off_c, 0, 76, 100
2, 52416, Note_on_c, 0, 72, 110
2, 52604, Note_off_c, 0, 72, 100
2, 52608, Note_on_c, 0, 79, 110
2, 52796, Note_off_c, 0, 79, 100
2, 52800, Note_on_c, 0, 76, 110
2, 52988, Note_off_c, 0, 76, 100
2, 52992, Note_on_c, 0, 81, 110
2, 52992, Note_on_c, 0, 69, 110
2, 53468, Note_off_c, 0, 81, 100
2, 53468, Note_off_c, 0, 69, 100
2, 53472, Note_on_c, 0, 60, 110
2, 53564, Note_off_c, 0, 60, 100
2, 53568, Note_on_c, 0, 62, 110
2, 53660, Note_off_c, 0, 62, 100
2, 53664, Note_on_c, 0, 64, 110
2, 53756, Note_off_c, 0, 64, 100
2, 53760, Note_on_c, 0, 65, 110
2, 53852, Note_off_c, 0, 65, 100
2, 53856, Note_on_c, 0, 60, 110
2, 53948, Note_off_c, 0, 60, 100
2, 53952, Note_on_c, 0, 62, 110
2, 54044, Note_off_c, 0, 62, 100
2, 54048, Note_on_c, 0, 64, 110
2, 54140, Note_off_c, 0, 64, 100
2, 54144, Note_on_c, 0, 65, 110
2, 54236, Note_off_c, 0, 65, 100
2, 54240, Note_on_c, 0, 67, 110
2, 54332, Note_off_c, 0, 67, 100
2, 54336, Note_on_c, 0, 69, 110
2, 54428, Note_off_c, 0, 69, 100
2, 54432, Note_on_c, 0, 70, 110
2, 54524, Note_off_c, 0, 70, 100
2, 54528, Note_on_c, 0, 72, 110
2, 54716, Note_off_c, 0, 72, 100
2, 54720, Note_on_c, 0, 69, 110
2, 54908, Note_off_c, 0, 69, 100
2, 54912, Note_on_c, 0, 77, 110
2, 55100, Note_off_c, 0, 77, 100
2, 55104, Note_on_c, 0, 72, 110
2, 55292, Note_off_c, 0, 72, 100
2, 55296, Note_on_c, 0, 81, 110
2, 55484, Note_off_c, 0, 81, 100
2, 55488, Note_on_c, 0, 77, 110
2, 55676, Note_off_c, 0, 77, 100
2, 55680, Note_on_c, 0, 89, 110
2, 55868, Note_off_c, 0, 89, 100
2, 55872, Note_on_c, 0, 83, 110
2, 56060, Note_off_c, 0, 83, 100
2, 56064, Note_on_c, 0, 84, 110
2, 56064, Note_on_c, 0, 72, 110
2, 56540, Note_off_c, 0, 84, 100
2, 56540, Note_off_c, 0, 72, 100
2, 56544, Note_on_c, 0, 55, 110
2, 56636, Note_off_c, 0, 55, 100
2, 56640, Note_on_c, 0, 57, 110
2, 56732, Note_off_c, 0, 57, 100
2, 56736, Note_on_c, 0, 59, 110
2, 56828, Note_off_c, 0, 59, 100
2, 56832, Note_on_c, 0, 60, 110
2, 56924, Note_off_c, 0, 60, 100
2, 56928, Note_on_c, 0, 55, 110
2, 57020, Note_off_c, 0, 55, 100
2, 57024, Note_on_c, 0, 57, 110
2, 57116, Note_off_c, 0, 57, 100
2, 57120, Note_on_c, 0, 59, 110
2, 57212, Note_off_c, 0, 59, 100
2, 57216, Note_on_c, 0, 60, 110
2, 57308, Note_off_c, 0, 60, 100
2, 57312, Note_on_c, 0, 62, 110
2, 57404, Note_off_c, 0, 62, 100
2, 57408, Note_on_c, 0, 64, 110
2, 57500, Note_off_c, 0, 64, 100
2, 57504, Note_on_c, 0, 65, 110
2, 57596, Note_off_c, 0, 65, 100
2, 57600, Note_on_c, 0, 67, 110
2, 57692, Note_off_c, 0, 67, 100
2, 57696, Note_on_c, 0, 64, 110
2, 57788, Note_off_c, 0, 64, 100
2, 57792, Note_on_c, 0, 60, 110
2, 57884, Note_off_c, 0, 60, 100
2, 57888, Note_on_c, 0, 67, 110
2, 57980, Note_off_c, 0, 67, 100
2, 57984, Note_on_c, 0, 72, 110
2, 58076, Note_off_c, 0, 72, 100
2, 58080, Note_on_c, 0, 67, 110
2, 58172, Note_off_c, 0, 67, 100
2, 58176, Note_on_c, 0, 64, 110
2, 58268, Note_off_c, 0, 64, 100
2, 58272, Note_on_c, 0, 72, 110
2, 58364, Note_off_c, 0, 72, 100
2, 58368, Note_on_c, 0, 76, 110
2, 58460, Note_off_c, 0, 76, 100
2, 58464, Note_on_c, 0, 72, 110
2, 58556, Note_off_c, 0, 72, 100
2, 58560, Note_on_c, 0, 67, 110
2, 58652, Note_off_c, 0, 67, 100
2, 58656, Note_on_c, 0, 76, 110
2, 58748, Note_off_c, 0, 76, 100
2, 58752, Note_on_c, 0, 79, 110
2, 58844, Note_off_c, 0, 79, 100
2, 58848, Note_on_c, 0, 76, 110
2, 58940, Note_off_c, 0, 76, 100
2, 58944, Note_on_c, 0, 72, 110
2, 59036, Note_off_c, 0, 72, 100
2, 59040, Note_on_c, 0, 79, 110
2, 59132, Note_off_c, 0, 79, 100
2, 59136, Note_on_c, 0, 81, 110
2, 59136, Note_on_c, 0, 77, 110
2, 59136, Note_on_c, 0, 72, 110
2, 59136, Note_on_c, 0, 69, 110
2, 59612, Note_off_c, 0, 81, 100
2, 59612, Note_off_c, 0, 77, 100
2, 59612, Note_off_c, 0, 72, 100
2, 59612, Note_off_c, 0, 69, 100
2, 59616, Note_on_c, 0, 60, 110
2, 59708, Note_off_c, 0, 60, 100
2, 59712, Note_on_c, 0, 62, 110
2, 59804, Note_off_c, 0, 62, 100
2, 59808, Note_on_c, 0, 64, 110
2, 59900, Note_off_c, 0, 64, 100
2, 59904, Note_on_c, 0, 65, 110
2, 59996, Note_off_c, 0, 65, 100
2, 60000, Note_on_c, 0, 60, 110
2, 60092, Note_off_c, 0, 60, 100
2, 60096, Note_on_c, 0, 62, 110
2, 60188, Note_off_c, 0, 62, 100
2, 60192, Note_on_c, 0, 64, 110
2, 60284, Note_off_c, 0, 64, 100
2, 60288, Note_on_c, 0, 65, 110
2, 60380, Note_off_c, 0, 65, 100
2, 60384, Note_on_c, 0, 67, 110
2, 60476, Note_off_c, 0, 67, 100
2, 60480, Note_on_c, 0, 69, 110
2, 60572, Note_off_c, 0, 69, 100
2, 60576, Note_on_c, 0, 70, 110
2, 60668, Note_off_c, 0, 70, 100
2, 60672, Note_on_c, 0, 72, 110
2, 60764, Note_off_c, 0, 72, 100
2, 60768, Note_on_c, 0, 69, 110
2, 60860, Note_off_c, 0, 69, 100
2, 60864, Note_on_c, 0, 65, 110
2, 60956, Note_off_c, 0, 65, 100
2, 60960, Note_on_c, 0, 72, 110
2, 61052, Note_off_c, 0, 72, 100
2, 61056, Note_on_c, 0, 77, 110
2, 61148, Note_off_c, 0, 77, 100
2, 61152, Note_on_c, 0, 72, 110
2, 61244, Note_off_c, 0, 72, 100
2, 61248, Note_on_c, 0, 69, 110
2, 61340, Note_off_c, 0, 69, 100
2, 61344, Note_on_c, 0, 77, 110
2, 61436, Note_off_c, 0, 77, 100
2, 61440, Note_on_c, 0, 81, 110
2, 61532, Note_off_c, 0, 81, 100
2, 61536, Note_on_c, 0, 77, 110
2, 61628, Note_off_c, 0, 77, 100
2, 61632, Note_on_c, 0, 72, 110
2, 61724, Note_off_c, 0, 72, 100
2, 61728, Note_on_c, 0, 81, 110
2, 61820, Note_off_c, 0, 81, 100
2, 61824, Note_on_c, 0, 77, 110
2, 61916, Note_off_c, 0, 77, 100
2, 61920, Note_on_c, 0, 89, 110
2, 62012, Note_off_c, 0, 89, 100
2, 62016, Note_on_c, 0, 86, 110
2, 62108, Note_off_c, 0, 86, 100
2, 62112, Note_on_c, 0, 83, 110
2, 62204, Note_off_c, 0, 83, 100
2, 62208, Note_on_c, 0, 84, 110
2, 62588, Note_off_c, 0, 84, 100
2, 62976, Note_on_c, 0, 76, 80
2, 63164, Note_off_c, 0, 76, 100
2, 63168, Note_on_c, 0, 77, 80
2, 63260, Note_off_c, 0, 77, 100
2, 63264, Note_on_c, 0, 76, 80
2, 63356, Note_off_c, 0, 76, 100
2, 63360, Note_on_c, 0, 79, 80
2, 63548, Note_off_c, 0, 79, 100
2, 63552, Note_on_c, 0, 81, 80
2, 63644, Note_off_c, 0, 81, 100
2, 63648, Note_on_c, 0, 79, 80
2, 63740, Note_off_c, 0, 79, 100
2, 63744, Note_on_c, 0, 76, 80
2, 63932, Note_off_c, 0, 76, 100
2, 63936, Note_on_c, 0, 77, 80
2, 64028, Note_off_c, 0, 77, 100
2, 64032, Note_on_c, 0, 76, 80
2, 64124, Note_off_c, 0, 76, 100
2, 64128, Note_on_c, 0, 79, 80
2, 64316, Note_off_c, 0, 79, 100
2, 64320, Note_on_c, 0, 81, 80
2, 64412, Note_off_c, 0, 81, 100
2, 64416, Note_on_c, 0, 79, 80
2, 64508, Note_off_c, 0, 79, 100
2, 64512, Note_on_c, 0, 72, 80
2, 64700, Note_off_c, 0, 72, 100
2, 64704, Note_on_c, 0, 74, 80
2, 64796, Note_off_c, 0, 74, 100
2, 64800, Note_on_c, 0, 72, 80
2, 64892, Note_off_c, 0, 72, 100
2, 64896, Note_on_c, 0, 76, 80
2, 65084, Note_off_c, 0, 76, 100
2, 65088, Note_on_c, 0, 77, 80
2, 65180, Note_off_c, 0, 77, 100
2, 65184, Note_on_c, 0, 76, 80
2, 65276, Note_off_c, 0, 76, 100
2, 65280, Note_on_c, 0, 72, 80
2, 65468, Note_off_c, 0, 72, 100
2, 65472, Note_on_c, 0, 74, 80
2, 65564, Note_off_c, 0, 74, 100
2, 65568, Note_on_c, 0, 72, 80
2, 65660, Note_off_c, 0, 72, 100
2, 65664, Note_on_c, 0, 76, 80
2, 65852, Note_off_c, 0, 76, 100
2, 65856, Note_on_c, 0, 77, 80
2, 65948, Note_off_c, 0, 77, 100
2, 65952, Note_on_c, 0, 76, 80
2, 66044, Note_off_c, 0, 76, 100
2, 66048, Key_signature, 1, "major"
2, 66048, Note_on_c, 0, 72, 80
2, 66236, Note_off_c, 0, 72, 100
2, 66240, Note_on_c, 0, 74, 80
2, 66332, Note_off_c, 0, 74, 100
2, 66336, Note_on_c, 0, 72, 80
2, 66428, Note_off_c, 0, 72, 100
2, 66432, Note_on_c, 0, 74, 80
2, 66620, Note_off_c, 0, 74, 100
2, 66624, Note_on_c, 0, 76, 80
2, 66716, Note_off_c, 0, 76, 100
2, 66720, Note_on_c, 0, 74, 80
2, 66812, Note_off_c, 0, 74, 100
2, 66816, Note_on_c, 0, 71, 80
2, 67004, Note_off_c, 0, 71, 100
2, 67008, Note_on_c, 0, 72, 80
2, 67100, Note_off_c, 0, 72, 100
2, 67104, Note_on_c, 0, 71, 80
2, 67196, Note_off_c, 0, 71, 100
2, 67200, Note_on_c, 0, 74, 80
2, 67388, Note_off_c, 0, 74, 100
2, 67392, Note_on_c, 0, 76, 80
2, 67484, Note_off_c, 0, 76, 100
2, 67488, Note_on_c, 0, 74, 80
2, 67580, Note_off_c, 0, 74, 100
2, 67584, Note_on_c, 0, 67, 80
2, 67772, Note_off_c, 0, 67, 100
2, 67776, Note_on_c, 0, 69, 80
2, 67868, Note_off_c, 0, 69, 100
2, 67872, Note_on_c, 0, 67, 80
2, 67964, Note_off_c, 0, 67, 100
2, 67968, Note_on_c, 0, 71, 80
2, 68348, Note_off_c, 0, 71, 100
2, 68352, Note_on_c, 0, 64, 80
2, 68540, Note_off_c, 0, 64, 100
2, 68544, Note_on_c, 0, 66, 80
2, 68636, Note_off_c, 0, 66, 100
2, 68640, Note_on_c, 0, 64, 80
2, 68732, Note_off_c, 0, 64, 100
2, 68736, Note_on_c, 0, 67, 80
2, 68924, Note_off_c, 0, 67, 100
2, 68928, Note_on_c, 0, 69, 80
2, 69020, Note_off_c, 0, 69, 100
2, 69024, Note_on_c, 0, 67, 80
2, 69116, Note_off_c, 0, 67, 100
2, 69120, Note_on_c, 0, 69, 80
2, 69308, Note_off_c, 0, 69, 100
2, 69312, Note_on_c, 0, 71, 80
2, 69404, Note_off_c, 0, 71, 100
2, 69408, Note_on_c, 0, 69, 80
2, 69500, Note_off_c, 0, 69, 100
2, 69504, Note_on_c, 0, 71, 80
2, 69884, Note_off_c, 0, 71, 100
2, 69888, Note_on_c, 0, 71, 80
2, 70076, Note_off_c, 0, 71, 100
2, 70080, Note_on_c, 0, 72, 80
2, 70172, Note_off_c, 0, 72, 100
2, 70176, Note_on_c, 0, 71, 80
2, 70268, Note_off_c, 0, 71, 100
2, 70272, Note_on_c, 0, 74, 80
2, 70460, Note_off_c, 0, 74, 100
2, 70464, Note_on_c, 0, 76, 80
2, 70556, Note_off_c, 0, 76, 100
2, 70560, Note_on_c, 0, 74, 80
2, 70652, Note_off_c, 0, 74, 100
2, 70656, Note_on_c, 0, 79, 80
2, 70844, Note_off_c, 0, 79, 100
2, 70848, Note_on_c, 0, 81, 80
2, 70940, Note_off_c, 0, 81, 100
2, 70944, Note_on_c, 0, 79, 80
2, 71036, Note_off_c, 0, 79, 100
2, 71040, Note_on_c, 0, 78, 80
2, 71420, Note_off_c, 0, 78, 100
2, 71424, Note_on_c, 0, 76, 80
2, 71612, Note_off_c, 0, 76, 100
2, 71616, Note_on_c, 0, 78, 80
2, 71708, Note_off_c, 0, 78, 100
2, 71712, Note_on_c, 0, 76, 80
2, 71804, Note_off_c, 0, 76, 100
2, 71808, Note_on_c, 0, 73, 80
2, 71852, Note_off_c, 0, 73, 100
2, 71856, Note_on_c, 0, 74, 80
2, 71900, Note_off_c, 0, 74, 100
2, 71904, Note_on_c, 0, 73, 80
2, 71996, Note_off_c, 0, 73, 100
2, 72000, Note_on_c, 0, 71, 80
2, 72092, Note_off_c, 0, 71, 100
2, 72096, Note_on_c, 0, 73, 80
2, 72188, Note_off_c, 0, 73, 100
2, 72192, Note_on_c, 0, 74, 80
2, 72380, Note_off_c, 0, 74, 100
2, 73088, Note_on_c, 0, 71, 80
2, 73212, Note_off_c, 0, 71, 100
2, 73216, Note_on_c, 0, 83, 80
2, 73340, Note_off_c, 0, 83, 100
2, 73472, Note_on_c, 0, 74, 80
2, 73596, Note_off_c, 0, 74, 100
2, 73600, Note_on_c, 0, 86, 80
2, 73724, Note_off_c, 0, 86, 100
2, 73856, Note_on_c, 0, 67, 80
2, 73980, Note_off_c, 0, 67, 100
2, 73984, Note_on_c, 0, 79, 80
2, 74108, Note_off_c, 0, 79, 100
2, 74240, Note_on_c, 0, 71, 80
2, 74364, Note_off_c, 0, 71, 100
2, 74368, Note_on_c, 0, 83, 80
2, 74492, Note_off_c, 0, 83, 100
2, 74624, Note_on_c, 0, 64, 80
2, 74748, Note_off_c, 0, 64, 100
2, 74752, Note_on_c, 0, 76, 80
2, 74876, Note_off_c, 0, 76, 100
2, 75008, Note_on_c, 0, 67, 80
2, 75132, Note_off_c, 0, 67, 100
2, 75136, Note_on_c, 0, 79, 80
2, 75260, Note_off_c, 0, 79, 100
2, 75392, Note_on_c, 0, 69, 80
2, 75516, Note_off_c, 0, 69, 100
2, 75520, Note_on_c, 0, 81, 80
2, 75644, Note_off_c, 0, 81, 100
2, 75776, Note_on_c, 0, 71, 80
2, 75900, Note_off_c, 0, 71, 100
2, 75904, Note_on_c, 0, 83, 80
2, 76028, Note_off_c, 0, 83, 100
2, 76160, Note_on_c, 0, 71, 80
2, 76284, Note_off_c, 0, 71, 100
2, 76288, Note_on_c, 0, 83, 80
2, 76412, Note_off_c, 0, 83, 100
2, 76544, Note_on_c, 0, 74, 80
2, 76668, Note_off_c, 0, 74, 100
2, 76672, Note_on_c, 0, 86, 80
2, 76796, Note_off_c, 0, 86, 100
2, 76928, Note_on_c, 0, 79, 80
2, 77052, Note_off_c, 0, 79, 100
2, 77056, Note_on_c, 0, 91, 80
2, 77180, Note_off_c, 0, 91, 100
2, 77312, Note_on_c, 0, 78, 80
2, 77436, Note_off_c, 0, 78, 100
2, 77440, Note_on_c, 0, 90, 80
2, 77564, Note_off_c, 0, 90, 100
2, 77696, Note_on_c, 0, 76, 80
2, 77820, Note_off_c, 0, 76, 100
2, 77824, Note_on_c, 0, 88, 80
2, 77948, Note_off_c, 0, 88, 100
2, 78080, Note_on_c, 0, 73, 80
2, 78204, Note_off_c, 0, 73, 100
2, 78208, Note_on_c, 0, 85, 80
2, 78332, Note_off_c, 0, 85, 99
2, 78464, Note_on_c, 0, 74, 80
2, 78588, Note_off_c, 0, 74, 100
2, 78592, Note_on_c, 0, 86, 80
2, 78716, Note_off_c, 0, 86, 100
2, 79104, Note_on_c, 0, 74, 110
2, 79292, Note_off_c, 0, 74, 100
2, 79296, Note_on_c, 0, 76, 110
2, 79388, Note_off_c, 0, 76, 100
2, 79392, Note_on_c, 0, 74, 110
2, 79484, Note_off_c, 0, 74, 100
2, 79488, Note_on_c, 0, 71, 110
2, 79676, Note_off_c, 0, 71, 100
2, 79680, Note_on_c, 0, 73, 110
2, 79868, Note_off_c, 0, 73, 100
2, 79872, Note_on_c, 0, 74, 110
2, 80252, Note_off_c, 0, 74, 100
2, 80256, Note_on_c, 0, 62, 110
2, 80636, Note_off_c, 0, 62, 100
2, 80640, Note_on_c, 0, 66, 110
2, 80684, Note_off_c, 0, 66, 100
2, 80688, Note_on_c, 0, 64, 110
2, 80828, Note_off_c, 0, 64, 100
2, 80832, Note_on_c, 0, 62, 110
2, 81020, Note_off_c, 0, 62, 100
2, 81024, Note_on_c, 0, 64, 110
2, 81212, Note_off_c, 0, 64, 100
2, 81216, Note_on_c, 0, 66, 110
2, 81404, Note_off_c, 0, 66, 100
2, 81408, Note_on_c, 0, 67, 110
2, 81788, Note_off_c, 0, 67, 100
2, 81792, Note_on_c, 0, 55, 110
2, 82172, Note_off_c, 0, 55, 100
2, 82304, Note_on_c, 0, 74, 80
2, 82428, Note_off_c, 0, 74, 100
2, 82432, Note_on_c, 0, 86, 80
2, 82556, Note_off_c, 0, 86, 100
2, 82688, Note_on_c, 0, 73, 80
2, 82812, Note_off_c, 0, 73, 100
2, 82816, Note_on_c, 0, 85, 80
2, 82940, Note_off_c, 0, 85, 100
2, 83072, Note_on_c, 0, 74, 80
2, 83196, Note_off_c, 0, 74, 100
2, 83200, Note_on_c, 0, 86, 80
2, 83324, Note_off_c, 0, 86, 100
2, 83456, Note_on_c, 0, 71, 80
2, 83580, Note_off_c, 0, 71, 100
2, 83584, Note_on_c, 0, 83, 80
2, 83708, Note_off_c, 0, 83, 100
2, 83840, Note_on_c, 0, 72, 80
2, 83964, Note_off_c, 0, 72, 100
2, 83968, Note_on_c, 0, 84, 80
2, 84092, Note_off_c, 0, 84, 100
2, 84224, Note_on_c, 0, 66, 80
2, 84348, Note_off_c, 0, 66, 100
2, 84352, Note_on_c, 0, 78, 80
2, 84476, Note_off_c, 0, 78, 100
2, 84480, Note_on_c, 0, 79, 80
2, 84480, Note_on_c, 0, 67, 80
2, 84860, Note_off_c, 0, 79, 100
2, 84860, Note_off_c, 0, 67, 100
2, 85248, Note_on_c, 0, 74, 110
2, 85436, Note_off_c, 0, 74, 100
2, 85440, Note_on_c, 0, 76, 110
2, 85532, Note_off_c, 0, 76, 100
2, 85536, Note_on_c, 0, 74, 110
2, 85628, Note_off_c, 0, 74, 100
2, 85632, Note_on_c, 0, 71, 110
2, 85820, Note_off_c, 0, 71, 100
2, 85824, Note_on_c, 0, 73, 110
2, 86012, Note_off_c, 0, 73, 100
2, 86016, Note_on_c, 0, 74, 110
2, 86396, Note_off_c, 0, 74, 100
2, 86400, Note_on_c, 0, 62, 110
2, 86780, Note_off_c, 0, 62, 100
2, 86784, Note_on_c, 0, 86, 80
2, 86972, Note_off_c, 0, 86, 100
2, 86976, Note_on_c, 0, 88, 80
2, 87068, Note_off_c, 0, 88, 100
2, 87072, Note_on_c, 0, 86, 80
2, 87164, Note_off_c, 0, 86, 100
2, 87168, Note_on_c, 0, 83, 80
2, 87356, Note_off_c, 0, 83, 100
2, 87360, Note_on_c, 0, 85, 80
2, 87548, Note_off_c, 0, 85, 100
2, 87552, Note_on_c, 0, 86, 80
2, 87740, Note_off_c, 0, 86, 100
2, 88320, Note_on_c, 0, 66, 110
2, 88364, Note_off_c, 0, 66, 100
2, 88368, Note_on_c, 0, 64, 110
2, 88508, Note_off_c, 0, 64, 100
2, 88512, Note_on_c, 0, 62, 110
2, 88700, Note_off_c, 0, 62, 100
2, 88704, Note_on_c, 0, 64, 110
2, 88892, Note_off_c, 0, 64, 100
2, 88896, Note_on_c, 0, 66, 110
2, 89084, Note_off_c, 0, 66, 100
2, 89088, Note_on_c, 0, 67, 110
2, 89468, Note_off_c, 0, 67, 100
2, 89472, Note_on_c, 0, 55, 110
2, 89852, Note_off_c, 0, 55, 100
2, 89856, Note_on_c, 0, 90, 80
2, 89900, Note_off_c, 0, 90, 100
2, 89904, Note_on_c, 0, 88, 80
2, 90044, Note_off_c, 0, 88, 100
2, 90048, Note_on_c, 0, 86, 80
2, 90236, Note_off_c, 0, 86, 100
2, 90240, Note_on_c, 0, 88, 80
2, 90428, Note_off_c, 0, 88, 100
2, 90432, Note_on_c, 0, 90, 80
2, 90620, Note_off_c, 0, 90, 100
2, 90624, Note_on_c, 0, 91, 80
2, 90812, Note_off_c, 0, 91, 100
2, 91392, Note_on_c, 0, 78, 80
2, 91436, Note_off_c, 0, 78, 100
2, 91440, Note_on_c, 0, 76, 80
2, 91580, Note_off_c, 0, 76, 100
2, 91584, Note_on_c, 0, 74, 80
2, 91772, Note_off_c, 0, 74, 100
2, 91776, Note_on_c, 0, 76, 80
2, 91964, Note_off_c, 0, 76, 100
2, 91968, Note_on_c, 0, 78, 80
2, 92156, Note_off_c, 0, 78, 100
2, 92160, Note_on_c, 0, 79, 80
2, 92348, Note_off_c, 0, 79, 100
2, 92544, Note_on_c, 0, 74, 80
2, 92732, Note_off_c, 0, 74, 100
2, 92736, Note_on_c, 0, 76, 80
2, 92828, Note_off_c, 0, 76, 100
2, 92832, Note_on_c, 0, 74, 80
2, 92924, Note_off_c, 0, 74, 100
2, 92928, Note_on_c, 0, 72, 80
2, 93116, Note_off_c, 0, 72, 100
2, 93120, Note_on_c, 0, 74, 80
2, 93212, Note_off_c, 0, 74, 100
2, 93216, Note_on_c, 0, 72, 80
2, 93308, Note_off_c, 0, 72, 100
2, 93312, Note_on_c, 0, 69, 80
2, 93500, Note_off_c, 0, 69, 100
2, 93504, Note_on_c, 0, 71, 80
2, 93596, Note_off_c, 0, 71, 100
2, 93600, Note_on_c, 0, 69, 80
2, 93692, Note_off_c, 0, 69, 100
2, 93696, Note_on_c, 0, 71, 80
2, 93884, Note_off_c, 0, 71, 100
2, 93888, Note_on_c, 0, 72, 80
2, 93980, Note_off_c, 0, 72, 100
2, 93984, Note_on_c, 0, 71, 80
2, 94076, Note_off_c, 0, 71, 100
2, 94080, Note_on_c, 0, 74, 80
2, 94268, Note_off_c, 0, 74, 100
2, 94272, Note_on_c, 0, 76, 80
2, 94364, Note_off_c, 0, 76, 100
2, 94368, Note_on_c, 0, 74, 80
2, 94460, Note_off_c, 0, 74, 100
2, 94464, Note_on_c, 0, 72, 80
2, 94652, Note_off_c, 0, 72, 100
2, 94656, Note_on_c, 0, 74, 80
2, 94748, Note_off_c, 0, 74, 100
2, 94752, Note_on_c, 0, 72, 80
2, 94844, Note_off_c, 0, 72, 100
2, 94848, Note_on_c, 0, 69, 80
2, 95036, Note_off_c, 0, 69, 100
2, 95040, Note_on_c, 0, 71, 80
2, 95132, Note_off_c, 0, 71, 100
2, 95136, Note_on_c, 0, 69, 80
2, 95228, Note_off_c, 0, 69, 100
2, 95232, Note_on_c, 0, 71, 80
2, 95420, Note_off_c, 0, 71, 100
2, 95744, Note_on_c, 0, 74, 80
2, 95872, Note_on_c, 0, 86, 80
2, 95932, Note_off_c, 0, 74, 100
2, 96060, Note_off_c, 0, 86, 100
2, 96128, Note_on_c, 0, 72, 80
2, 96256, Note_on_c, 0, 84, 80
2, 96316, Note_off_c, 0, 72, 100
2, 96444, Note_off_c, 0, 84, 100
2, 96512, Note_on_c, 0, 69, 80
2, 96640, Note_on_c, 0, 81, 80
2, 96700, Note_off_c, 0, 69, 100
2, 96828, Note_off_c, 0, 81, 100
2, 96896, Note_on_c, 0, 71, 80
2, 97024, Note_on_c, 0, 83, 80
2, 97084, Note_off_c, 0, 71, 100
2, 97212, Note_off_c, 0, 83, 100
2, 97280, Note_on_c, 0, 74, 80
2, 97408, Note_on_c, 0, 86, 80
2, 97468, Note_off_c, 0, 74, 100
2, 97596, Note_off_c, 0, 86, 100
2, 97664, Note_on_c, 0, 72, 80
2, 97792, Note_on_c, 0, 84, 80
2, 97852, Note_off_c, 0, 72, 100
2, 97980, Note_off_c, 0, 84, 100
2, 98048, Note_on_c, 0, 69, 80
2, 98176, Note_on_c, 0, 81, 80
2, 98236, Note_off_c, 0, 69, 100
2, 98304, Note_on_c, 0, 71, 80
2, 98364, Note_off_c, 0, 81, 100
2, 98492, Note_off_c, 0, 71, 100
2, 98496, Note_on_c, 0, 72, 82
2, 98588, Note_off_c, 0, 72, 100
2, 98592, Note_on_c, 0, 71, 83
2, 98684, Note_off_c, 0, 71, 100
2, 98688, Note_on_c, 0, 74, 84
2, 98876, Note_off_c, 0, 74, 100
2, 98880, Note_on_c, 0, 76, 87
2, 98972, Note_off_c, 0, 76, 100
2, 98976, Note_on_c, 0, 74, 88
2, 99068, Note_off_c, 0, 74, 100
2, 99072, Note_on_c, 0, 71, 89
2, 99260, Note_off_c, 0, 71, 100
2, 99264, Note_on_c, 0, 72, 92
2, 99356, Note_off_c, 0, 72, 100
2, 99360, Note_on_c, 0, 71, 93
2, 99452, Note_off_c, 0, 71, 100
2, 99456, Note_on_c, 0, 79, 94
2, 99644, Note_off_c, 0, 79, 100
2, 99648, Note_on_c, 0, 81, 97
2, 99740, Note_off_c, 0, 81, 100
2, 99744, Note_on_c, 0, 79, 98
2, 99836, Note_off_c, 0, 79, 100
2, 99840, Note_on_c, 0, 74, 99
2, 100028, Note_off_c, 0, 74, 100
2, 100032, Note_on_c, 0, 76, 102
2, 100124, Note_off_c, 0, 76, 100
2, 100128, Note_on_c, 0, 74, 103
2, 100220, Note_off_c, 0, 74, 100
2, 100224, Note_on_c, 0, 83, 104
2, 100412, Note_off_c, 0, 83, 100
2, 100416, Note_on_c, 0, 84, 107
2, 100508, Note_off_c, 0, 84, 100
2, 100512, Note_on_c, 0, 83, 108
2, 100604, Note_off_c, 0, 83, 100
2, 100608, Note_on_c, 0, 79, 110
2, 100796, Note_off_c, 0, 79, 100
2, 100992, Note_on_c, 0, 81, 80
2, 100992, Note_on_c, 0, 78, 80
2, 100992, Note_on_c, 0, 74, 80
2, 100992, Note_on_c, 0, 86, 80
2, 101180, Note_off_c, 0, 81, 100
2, 101180, Note_off_c, 0, 78, 100
2, 101180, Note_off_c, 0, 74, 100
2, 101180, Note_off_c, 0, 86, 100
2, 101376, Note_on_c, 0, 83, 80
2, 101376, Note_on_c, 0, 79, 80
2, 101376, Note_on_c, 0, 71, 80
2, 101756, Note_off_c, 0, 83, 100
2, 101756, Note_off_c, 0, 79, 100
2, 101756, Note_off_c, 0, 71, 100
2, 103680, Control_c, 0, 7, 0
2, 104064, Note_on_c, 0, 67, 1
2, 104444, Note_off_c, 0, 67, 100
2, 104444, End_track
3, 0, Start_track
3, 0, Title_t, "Left"
3, 0, Control_c, 1, 0, 0
3, 0, Program_c, 1, 0
3, 0, Control_c, 1, 7, 100
3, 0, Control_c, 1, 10, 58
3, 0, Control_c, 1, 91, 127
3, 0, Key_signature, 1, "major"
3, 0, Note_on_c, 1, 59, 80
3, 0, Note_on_c, 1, 55, 80
3, 380, Note_off_c, 1, 59, 100
3, 380, Note_off_c, 1, 55, 100
3, 384, Note_on_c, 1, 57, 80
3, 384, Note_on_c, 1, 54, 80
3, 764, Note_off_c, 1, 57, 100
3, 764, Note_off_c, 1, 54, 100
3, 768, Note_on_c, 1, 55, 80
3, 768, Note_on_c, 1, 52, 80
3, 1148, Note_off_c, 1, 55, 100
3, 1148, Note_off_c, 1, 52, 100
3, 1152, Note_on_c, 1, 54, 80
3, 1152, Note_on_c, 1, 50, 80
3, 1532, Note_off_c, 1, 54, 100
3, 1532, Note_off_c, 1, 50, 100
3, 1536, Note_on_c, 1, 52, 80
3, 1536, Note_on_c, 1, 48, 80
3, 1916, Note_off_c, 1, 52, 100
3, 1916, Note_off_c, 1, 48, 100
3, 1920, Note_on_c, 1, 50, 80
3, 1920, Note_on_c, 1, 47, 80
3, 2300, Note_off_c, 1, 50, 100
3, 2300, Note_off_c, 1, 47, 100
3, 2304, Note_on_c, 1, 54, 80
3, 2304, Note_on_c, 1, 50, 80
3, 2684, Note_off_c, 1, 54, 100
3, 2684, Note_off_c, 1, 50, 100
3, 2688, Note_on_c, 1, 55, 80
3, 2688, Note_on_c, 1, 43, 80
3, 3068, Note_off_c, 1, 55, 100
3, 3068, Note_off_c, 1, 43, 100
3, 3072, Note_on_c, 1, 59, 80
3, 3072, Note_on_c, 1, 55, 80
3, 3452, Note_off_c, 1, 59, 100
3, 3452, Note_off_c, 1, 55, 100
3, 3456, Note_on_c, 1, 57, 80
3, 3456, Note_on_c, 1, 54, 80
3, 3836, Note_off_c, 1, 57, 100
3, 3836, Note_off_c, 1, 54, 100
3, 3840, Note_on_c, 1, 61, 80
3, 3840, Note_on_c, 1, 52, 80
3, 4220, Note_off_c, 1, 61, 100
3, 4220, Note_off_c, 1, 52, 100
3, 4224, Note_on_c, 1, 62, 80
3, 4224, Note_on_c, 1, 50, 80
3, 4604, Note_off_c, 1, 62, 100
3, 4604, Note_off_c, 1, 50, 100
3, 4608, Note_on_c, 1, 59, 80
3, 4608, Note_on_c, 1, 55, 80
3, 4988, Note_off_c, 1, 59, 100
3, 4988, Note_off_c, 1, 55, 100
3, 4992, Note_on_c, 1, 57, 80
3, 4992, Note_on_c, 1, 64, 80
3, 5372, Note_off_c, 1, 57, 100
3, 5372, Note_off_c, 1, 64, 100
3, 5376, Note_on_c, 1, 62, 80
3, 5376, Note_on_c, 1, 50, 80
3, 5564, Note_off_c, 1, 62, 100
3, 5564, Note_off_c, 1, 50, 100
3, 6144, Note_on_c, 1, 59, 80
3, 6144, Note_on_c, 1, 55, 80
3, 6524, Note_off_c, 1, 59, 100
3, 6524, Note_off_c, 1, 55, 100
3, 6528, Note_on_c, 1, 57, 80
3, 6528, Note_on_c, 1, 54, 80
3, 6908, Note_off_c, 1, 57, 100
3, 6908, Note_off_c, 1, 54, 100
3, 6912, Note_on_c, 1, 55, 80
3, 6912, Note_on_c, 1, 52, 80
3, 7292, Note_off_c, 1, 55, 100
3, 7292, Note_off_c, 1, 52, 100
3, 7296, Note_on_c, 1, 54, 80
3, 7296, Note_on_c, 1, 50, 80
3, 7676, Note_off_c, 1, 54, 100
3, 7676, Note_off_c, 1, 50, 100
3, 7680, Note_on_c, 1, 52, 80
3, 7680, Note_on_c, 1, 48, 80
3, 8060, Note_off_c, 1, 52, 100
3, 8060, Note_off_c, 1, 48, 100
3, 8064, Note_on_c, 1, 50, 80
3, 8064, Note_on_c, 1, 47, 80
3, 8444, Note_off_c, 1, 50, 100
3, 8444, Note_off_c, 1, 47, 100
3, 8448, Note_on_c, 1, 54, 80
3, 8448, Note_on_c, 1, 50, 80
3, 8828, Note_off_c, 1, 54, 100
3, 8828, Note_off_c, 1, 50, 100
3, 8832, Note_on_c, 1, 55, 80
3, 8832, Note_on_c, 1, 43, 80
3, 9212, Note_off_c, 1, 55, 100
3, 9212, Note_off_c, 1, 43, 100
3, 9216, Note_on_c, 1, 59, 80
3, 9216, Note_on_c, 1, 55, 80
3, 9596, Note_off_c, 1, 59, 100
3, 9596, Note_off_c, 1, 55, 100
3, 9600, Note_on_c, 1, 57, 80
3, 9600, Note_on_c, 1, 54, 80
3, 9980, Note_off_c, 1, 57, 100
3, 9980, Note_off_c, 1, 54, 100
3, 9984, Note_on_c, 1, 61, 80
3, 9984, Note_on_c, 1, 52, 80
3, 10364, Note_off_c, 1, 61, 100
3, 10364, Note_off_c, 1, 52, 100
3, 10368, Note_on_c, 1, 62, 80
3, 10368, Note_on_c, 1, 50, 80
3, 10748, Note_off_c, 1, 62, 100
3, 10748, Note_off_c, 1, 50, 100
3, 10752, Note_on_c, 1, 59, 80
3, 10752, Note_on_c, 1, 55, 80
3, 11132, Note_off_c, 1, 59, 100
3, 11132, Note_off_c, 1, 55, 100
3, 11136, Note_on_c, 1, 57, 80
3, 11136, Note_on_c, 1, 64, 80
3, 11516, Note_off_c, 1, 57, 100
3, 11516, Note_off_c, 1, 64, 100
3, 11520, Note_on_c, 1, 62, 80
3, 11520, Note_on_c, 1, 50, 80
3, 11708, Note_off_c, 1, 62, 100
3, 11708, Note_off_c, 1, 50, 100
3, 12288, Note_on_c, 1, 50, 110
3, 12476, Note_off_c, 1, 50, 100
3, 12480, Note_on_c, 1, 52, 110
3, 12572, Note_off_c, 1, 52, 100
3, 12576, Note_on_c, 1, 50, 110
3, 12668, Note_off_c, 1, 50, 100
3, 12672, Note_on_c, 1, 47, 110
3, 12860, Note_off_c, 1, 47, 100
3, 12864, Note_on_c, 1, 49, 110
3, 13052, Note_off_c, 1, 49, 100
3, 13056, Note_on_c, 1, 50, 110
3, 13436, Note_off_c, 1, 50, 100
3, 13440, Note_on_c, 1, 38, 110
3, 13820, Note_off_c, 1, 38, 100
3, 13824, Note_on_c, 1, 42, 110
3, 13868, Note_off_c, 1, 42, 100
3, 13872, Note_on_c, 1, 40, 110
3, 14012, Note_off_c, 1, 40, 100
3, 14016, Note_on_c, 1, 38, 110
3, 14204, Note_off_c, 1, 38, 100
3, 14208, Note_on_c, 1, 40, 110
3, 14396, Note_off_c, 1, 40, 100
3, 14400, Note_on_c, 1, 42, 110
3, 14588, Note_off_c, 1, 42, 100
3, 14592, Note_on_c, 1, 43, 110
3, 14972, Note_off_c, 1, 43, 100
3, 14976, Note_on_c, 1, 31, 110
3, 15356, Note_off_c, 1, 31, 100
3, 15360, Note_on_c, 1, 50, 80
3, 15740, Note_off_c, 1, 50, 100
3, 15744, Note_on_c, 1, 52, 80
3, 15744, Note_on_c, 1, 45, 80
3, 16124, Note_off_c, 1, 52, 100
3, 16124, Note_off_c, 1, 45, 100
3, 16128, Note_on_c, 1, 50, 80
3, 16508, Note_off_c, 1, 50, 100
3, 16512, Note_on_c, 1, 50, 80
3, 16512, Note_on_c, 1, 43, 80
3, 16892, Note_off_c, 1, 50, 100
3, 16892, Note_off_c, 1, 43, 100
3, 16896, Note_on_c, 1, 48, 80
3, 16896, Note_on_c, 1, 36, 80
3, 17276, Note_off_c, 1, 48, 100
3, 17276, Note_off_c, 1, 36, 100
3, 17280, Note_on_c, 1, 50, 80
3, 17280, Note_on_c, 1, 38, 80
3, 17660, Note_off_c, 1, 50, 100
3, 17660, Note_off_c, 1, 38, 100
3, 17664, Note_on_c, 1, 43, 80
3, 17852, Note_off_c, 1, 43, 100
3, 17856, Note_on_c, 1, 55, 80
3, 18044, Note_off_c, 1, 55, 100
3, 18048, Note_on_c, 1, 54, 80
3, 18236, Note_off_c, 1, 54, 100
3, 18240, Note_on_c, 1, 52, 80
3, 18428, Note_off_c, 1, 52, 100
3, 18432, Note_on_c, 1, 50, 110
3, 18620, Note_off_c, 1, 50, 100
3, 18624, Note_on_c, 1, 52, 110
3, 18716, Note_off_c, 1, 52, 100
3, 18720, Note_on_c, 1, 50, 110
3, 18812, Note_off_c, 1, 50, 100
3, 18816, Note_on_c, 1, 47, 110
3, 19004, Note_off_c, 1, 47, 100
3, 19008, Note_on_c, 1, 49, 110
3, 19196, Note_off_c, 1, 49, 100
3, 19200, Note_on_c, 1, 50, 110
3, 19580, Note_off_c, 1, 50, 100
3, 19584, Note_on_c, 1, 38, 110
3, 19964, Note_off_c, 1, 38, 100
3, 19968, Note_on_c, 1, 42, 110
3, 20012, Note_off_c, 1, 42, 100
3, 20016, Note_on_c, 1, 40, 110
3, 20156, Note_off_c, 1, 40, 100
3, 20160, Note_on_c, 1, 38, 110
3, 20348, Note_off_c, 1, 38, 100
3, 20352, Note_on_c, 1, 40, 110
3, 20540, Note_off_c, 1, 40, 100
3, 20544, Note_on_c, 1, 42, 110
3, 20732, Note_off_c, 1, 42, 100
3, 20736, Note_on_c, 1, 43, 110
3, 21116, Note_off_c, 1, 43, 100
3, 21120, Note_on_c, 1, 31, 80
3, 21500, Note_off_c, 1, 31, 100
3, 21504, Note_on_c, 1, 50, 80
3, 21884, Note_off_c, 1, 50, 100
3, 21888, Note_on_c, 1, 52, 80
3, 21888, Note_on_c, 1, 45, 80
3, 22268, Note_off_c, 1, 52, 100
3, 22268, Note_off_c, 1, 45, 100
3, 22272, Note_on_c, 1, 50, 80
3, 22652, Note_off_c, 1, 50, 100
3, 22656, Note_on_c, 1, 50, 80
3, 22656, Note_on_c, 1, 43, 80
3, 23036, Note_off_c, 1, 50, 100
3, 23036, Note_off_c, 1, 43, 100
3, 23040, Note_on_c, 1, 48, 80
3, 23040, Note_on_c, 1, 36, 80
3, 23420, Note_off_c, 1, 48, 100
3, 23420, Note_off_c, 1, 36, 100
3, 23424, Note_on_c, 1, 50, 80
3, 23424, Note_on_c, 1, 38, 80
3, 23804, Note_off_c, 1, 50, 100
3, 23804, Note_off_c, 1, 38, 100
3, 23808, Note_on_c, 1, 43, 80
3, 23996, Note_off_c, 1, 43, 100
3, 24576, Note_on_c, 1, 59, 110
3, 24764, Note_off_c, 1, 59, 100
3, 24768, Note_on_c, 1, 60, 110
3, 24860, Note_off_c, 1, 60, 100
3, 24864, Note_on_c, 1, 59, 110
3, 24956, Note_off_c, 1, 59, 100
3, 25344, Note_on_c, 1, 55, 110
3, 25344, Note_on_c, 1, 52, 110
3, 25440, Note_on_c, 1, 59, 110
3, 25532, Note_off_c, 1, 55, 100
3, 25532, Note_off_c, 1, 52, 100
3, 25536, Note_on_c, 1, 55, 110
3, 25536, Note_on_c, 1, 52, 110
3, 25616, Note_off_c, 1, 59, 100
3, 25632, Note_on_c, 1, 59, 110
3, 25704, Note_off_c, 1, 55, 100
3, 25724, Note_off_c, 1, 52, 100
3, 25728, Note_on_c, 1, 55, 110
3, 25728, Note_on_c, 1, 52, 110
3, 25816, Note_off_c, 1, 59, 100
3, 25824, Note_on_c, 1, 59, 110
3, 25916, Note_off_c, 1, 55, 100
3, 25916, Note_off_c, 1, 52, 100
3, 25920, Note_on_c, 1, 55, 110
3, 25920, Note_on_c, 1, 52, 110
3, 26000, Note_off_c, 1, 59, 100
3, 26016, Note_on_c, 1, 59, 110
3, 26096, Note_off_c, 1, 55, 100
3, 26096, Note_off_c, 1, 52, 100
3, 26112, Note_on_c, 1, 52, 110
3, 26112, Note_on_c, 1, 54, 110
3, 26112, Note_on_c, 1, 57, 110
3, 26204, Note_off_c, 1, 59, 100
3, 26208, Note_on_c, 1, 59, 110
3, 26280, Note_off_c, 1, 52, 100
3, 26280, Note_off_c, 1, 54, 100
3, 26292, Note_off_c, 1, 57, 100
3, 26304, Note_on_c, 1, 52, 110
3, 26304, Note_on_c, 1, 54, 110
3, 26304, Note_on_c, 1, 57, 110
3, 26396, Note_off_c, 1, 59, 100
3, 26400, Note_on_c, 1, 59, 110
3, 26476, Note_off_c, 1, 54, 100
3, 26488, Note_off_c, 1, 52, 100
3, 26492, Note_off_c, 1, 57, 100
3, 26496, Note_on_c, 1, 52, 110
3, 26496, Note_on_c, 1, 54, 110
3, 26496, Note_on_c, 1, 57, 110
3, 26584, Note_off_c, 1, 59, 100
3, 26592, Note_on_c, 1, 59, 110
3, 26672, Note_off_c, 1, 54, 100
3, 26672, Note_off_c, 1, 57, 100
3, 26684, Note_off_c, 1, 52, 100
3, 26688, Note_on_c, 1, 52, 110
3, 26688, Note_on_c, 1, 54, 110
3, 26688, Note_on_c, 1, 57, 110
3, 26764, Note_off_c, 1, 59, 100
3, 26784, Note_on_c, 1, 59, 110
3, 26856, Note_off_c, 1, 52, 100
3, 26868, Note_off_c, 1, 54, 100
3, 26876, Note_off_c, 1, 57, 100
3, 26880, Note_on_c, 1, 52, 110
3, 26880, Note_on_c, 1, 55, 110
3, 26960, Note_off_c, 1, 59, 100
3, 26976, Note_on_c, 1, 59, 110
3, 27048, Note_off_c, 1, 52, 100
3, 27052, Note_off_c, 1, 55, 100
3, 27072, Note_on_c, 1, 52, 110
3, 27072, Note_on_c, 1, 55, 110
3, 27148, Note_off_c, 1, 59, 100
3, 27168, Note_on_c, 1, 59, 110
3, 27240, Note_off_c, 1, 52, 100
3, 27244, Note_off_c, 1, 55, 100
3, 27264, Note_on_c, 1, 52, 110
3, 27264, Note_on_c, 1, 55, 110
3, 27348, Note_off_c, 1, 59, 100
3, 27360, Note_on_c, 1, 59, 110
3, 27436, Note_off_c, 1, 55, 100
3, 27448, Note_off_c, 1, 52, 100
3, 27456, Note_on_c, 1, 52, 110
3, 27456, Note_on_c, 1, 55, 110
3, 27540, Note_off_c, 1, 59, 100
3, 27552, Note_on_c, 1, 59, 110
3, 27632, Note_off_c, 1, 55, 100
3, 27644, Note_off_c, 1, 52, 100
3, 27644, Note_off_c, 1, 59, 100
3, 27648, Note_on_c, 1, 60, 110
3, 27740, Note_off_c, 1, 60, 100
3, 27744, Note_on_c, 1, 59, 110
3, 27836, Note_off_c, 1, 59, 100
3, 27840, Note_on_c, 1, 57, 110
3, 27932, Note_off_c, 1, 57, 100
3, 27936, Note_on_c, 1, 55, 110
3, 28028, Note_off_c, 1, 55, 100
3, 28032, Note_on_c, 1, 54, 110
3, 28124, Note_off_c, 1, 54, 100
3, 28128, Note_on_c, 1, 55, 110
3, 28220, Note_off_c, 1, 55, 100
3, 28224, Note_on_c, 1, 54, 110
3, 28316, Note_off_c, 1, 54, 100
3, 28320, Note_on_c, 1, 52, 110
3, 28412, Note_off_c, 1, 52, 100
3, 28416, Note_on_c, 1, 51, 110
3, 28508, Note_off_c, 1, 51, 100
3, 28512, Note_on_c, 1, 52, 110
3, 28604, Note_off_c, 1, 52, 100
3, 28608, Note_on_c, 1, 54, 110
3, 28700, Note_off_c, 1, 54, 100
3, 28704, Note_on_c, 1, 51, 110
3, 28796, Note_off_c, 1, 51, 100
3, 28800, Note_on_c, 1, 47, 110
3, 28988, Note_off_c, 1, 47, 100
3, 28992, Note_on_c, 1, 47, 110
3, 29180, Note_off_c, 1, 47, 100
3, 29184, Note_on_c, 1, 47, 110
3, 29372, Note_off_c, 1, 47, 100
3, 29376, Note_on_c, 1, 47, 110
3, 29564, Note_off_c, 1, 47, 100
3, 29568, Note_on_c, 1, 47, 110
3, 29756, Note_off_c, 1, 47, 100
3, 29760, Note_on_c, 1, 47, 110
3, 29948, Note_off_c, 1, 47, 100
3, 29952, Note_on_c, 1, 47, 110
3, 30140, Note_off_c, 1, 47, 100
3, 30336, Note_on_c, 1, 59, 110
3, 30524, Note_off_c, 1, 59, 100
3, 30528, Note_on_c, 1, 60, 110
3, 30620, Note_off_c, 1, 60, 100
3, 30624, Note_on_c, 1, 59, 110
3, 30716, Note_off_c, 1, 59, 100
3, 31872, Note_on_c, 1, 57, 110
3, 32060, Note_off_c, 1, 57, 100
3, 32064, Note_on_c, 1, 59, 110
3, 32156, Note_off_c, 1, 59, 100
3, 32160, Note_on_c, 1, 57, 110
3, 32252, Note_off_c, 1, 57, 100
3, 33408, Note_on_c, 1, 54, 110
3, 33596, Note_off_c, 1, 54, 100
3, 33600, Note_on_c, 1, 55, 110
3, 33692, Note_off_c, 1, 55, 100
3, 33696, Note_on_c, 1, 54, 110
3, 33788, Note_off_c, 1, 54, 100
3, 38400, Note_on_c, 1, 55, 80
3, 38524, Note_off_c, 1, 55, 100
3, 38528, Note_on_c, 1, 59, 80
3, 38652, Note_off_c, 1, 59, 100
3, 38656, Note_on_c, 1, 62, 80
3, 38780, Note_off_c, 1, 62, 100
3, 38784, Note_on_c, 1, 54, 80
3, 38908, Note_off_c, 1, 54, 100
3, 38912, Note_on_c, 1, 59, 80
3, 39036, Note_off_c, 1, 59, 100
3, 39040, Note_on_c, 1, 57, 80
3, 39164, Note_off_c, 1, 57, 100
3, 39168, Note_on_c, 1, 52, 80
3, 39292, Note_off_c, 1, 52, 100
3, 39296, Note_on_c, 1, 55, 80
3, 39420, Note_off_c, 1, 55, 100
3, 39424, Note_on_c, 1, 59, 80
3, 39548, Note_off_c, 1, 59, 100
3, 39552, Note_on_c, 1, 50, 80
3, 39676, Note_off_c, 1, 50, 100
3, 39680, Note_on_c, 1, 54, 80
3, 39804, Note_off_c, 1, 54, 100
3, 39808, Note_on_c, 1, 59, 80
3, 39932, Note_off_c, 1, 59, 100
3, 39936, Note_on_c, 1, 48, 80
3, 40060, Note_off_c, 1, 48, 100
3, 40064, Note_on_c, 1, 52, 80
3, 40188, Note_off_c, 1, 52, 100
3, 40192, Note_on_c, 1, 55, 80
3, 40316, Note_off_c, 1, 55, 100
3, 40320, Note_on_c, 1, 47, 80
3, 40444, Note_off_c, 1, 47, 100
3, 40448, Note_on_c, 1, 50, 80
3, 40572, Note_off_c, 1, 50, 100
3, 40576, Note_on_c, 1, 55, 80
3, 40700, Note_off_c, 1, 55, 100
3, 40704, Note_on_c, 1, 45, 80
3, 40828, Note_off_c, 1, 45, 100
3, 40832, Note_on_c, 1, 50, 80
3, 40956, Note_off_c, 1, 50, 100
3, 40960, Note_on_c, 1, 54, 80
3, 41084, Note_off_c, 1, 54, 100
3, 41088, Note_on_c, 1, 43, 80
3, 41212, Note_off_c, 1, 43, 100
3, 41216, Note_on_c, 1, 50, 80
3, 41340, Note_off_c, 1, 50, 100
3, 41344, Note_on_c, 1, 55, 80
3, 41468, Note_off_c, 1, 55, 100
3, 41472, Note_on_c, 1, 55, 80
3, 41596, Note_off_c, 1, 55, 100
3, 41600, Note_on_c, 1, 59, 80
3, 41724, Note_off_c, 1, 59, 100
3, 41728, Note_on_c, 1, 62, 80
3, 41852, Note_off_c, 1, 62, 100
3, 41856, Note_on_c, 1, 54, 80
3, 41980, Note_off_c, 1, 54, 100
3, 41984, Note_on_c, 1, 57, 80
3, 42108, Note_off_c, 1, 57, 100
3, 42112, Note_on_c, 1, 62, 80
3, 42236, Note_off_c, 1, 62, 100
3, 42240, Note_on_c, 1, 52, 80
3, 42364, Note_off_c, 1, 52, 100
3, 42368, Note_on_c, 1, 57, 80
3, 42492, Note_off_c, 1, 57, 100
3, 42496, Note_on_c, 1, 61, 80
3, 42620, Note_off_c, 1, 61, 100
3, 42624, Note_on_c, 1, 50, 80
3, 42748, Note_off_c, 1, 50, 100
3, 42752, Note_on_c, 1, 57, 80
3, 42876, Note_off_c, 1, 57, 100
3, 42880, Note_on_c, 1, 62, 80
3, 43004, Note_off_c, 1, 62, 100
3, 43008, Note_on_c, 1, 55, 80
3, 43132, Note_off_c, 1, 55, 100
3, 43136, Note_on_c, 1, 59, 80
3, 43260, Note_off_c, 1, 59, 100
3, 43264, Note_on_c, 1, 64, 80
3, 43388, Note_off_c, 1, 64, 100
3, 43392, Note_on_c, 1, 57, 80
3, 43516, Note_off_c, 1, 57, 100
3, 43520, Note_on_c, 1, 64, 80
3, 43644, Note_off_c, 1, 64, 100
3, 43648, Note_on_c, 1, 67, 80
3, 43772, Note_off_c, 1, 67, 100
3, 43776, Note_on_c, 1, 62, 80
3, 43900, Note_off_c, 1, 62, 100
3, 43904, Note_on_c, 1, 69, 80
3, 44028, Note_off_c, 1, 69, 100
3, 44032, Note_on_c, 1, 66, 80
3, 44156, Note_off_c, 1, 66, 100
3, 44160, Note_on_c, 1, 62, 80
3, 44284, Note_off_c, 1, 62, 100
3, 44288, Note_on_c, 1, 57, 80
3, 44412, Note_off_c, 1, 57, 100
3, 44416, Note_on_c, 1, 54, 80
3, 44540, Note_off_c, 1, 54, 100
3, 44544, Note_on_c, 1, 50, 110
3, 44732, Note_off_c, 1, 50, 100
3, 44736, Note_on_c, 1, 52, 110
3, 44828, Note_off_c, 1, 52, 100
3, 44832, Note_on_c, 1, 50, 110
3, 44924, Note_off_c, 1, 50, 100
3, 44928, Note_on_c, 1, 47, 110
3, 45116, Note_off_c, 1, 47, 100
3, 45120, Note_on_c, 1, 49, 110
3, 45308, Note_off_c, 1, 49, 100
3, 45312, Note_on_c, 1, 50, 110
3, 45692, Note_off_c, 1, 50, 100
3, 45696, Note_on_c, 1, 38, 110
3, 46076, Note_off_c, 1, 38, 100
3, 46080, Note_on_c, 1, 42, 110
3, 46124, Note_off_c, 1, 42, 100
3, 46128, Note_on_c, 1, 40, 110
3, 46268, Note_off_c, 1, 40, 100
3, 46272, Note_on_c, 1, 38, 110
3, 46460, Note_off_c, 1, 38, 100
3, 46464, Note_on_c, 1, 40, 110
3, 46652, Note_off_c, 1, 40, 100
3, 46656, Note_on_c, 1, 42, 110
3, 46844, Note_off_c, 1, 42, 100
3, 46848, Note_on_c, 1, 43, 110
3, 47228, Note_off_c, 1, 43, 100
3, 47232, Note_on_c, 1, 31, 110
3, 47612, Note_off_c, 1, 31, 100
3, 47616, Note_on_c, 1, 50, 80
3, 47740, Note_off_c, 1, 50, 100
3, 47744, Note_on_c, 1, 54, 80
3, 47868, Note_off_c, 1, 54, 100
3, 47872, Note_on_c, 1, 57, 80
3, 47996, Note_off_c, 1, 57, 100
3, 48000, Note_on_c, 1, 52, 80
3, 48124, Note_off_c, 1, 52, 100
3, 48128, Note_on_c, 1, 55, 80
3, 48252, Note_off_c, 1, 55, 100
3, 48256, Note_on_c, 1, 57, 80
3, 48380, Note_off_c, 1, 57, 100
3, 48384, Note_on_c, 1, 50, 80
3, 48508, Note_off_c, 1, 50, 100
3, 48512, Note_on_c, 1, 54, 80
3, 48636, Note_off_c, 1, 54, 100
3, 48640, Note_on_c, 1, 57, 80
3, 48764, Note_off_c, 1, 57, 100
3, 48768, Note_on_c, 1, 43, 80
3, 48892, Note_off_c, 1, 43, 100
3, 48896, Note_on_c, 1, 53, 80
3, 49020, Note_off_c, 1, 53, 100
3, 49024, Note_on_c, 1, 55, 80
3, 49148, Note_off_c, 1, 55, 100
3, 49152, Note_on_c, 1, 48, 80
3, 49276, Note_off_c, 1, 48, 100
3, 49280, Note_on_c, 1, 52, 80
3, 49404, Note_off_c, 1, 52, 100
3, 49408, Note_on_c, 1, 57, 80
3, 49532, Note_off_c, 1, 57, 100
3, 49536, Note_on_c, 1, 50, 80
3, 49660, Note_off_c, 1, 50, 100
3, 49664, Note_on_c, 1, 54, 80
3, 49788, Note_off_c, 1, 54, 100
3, 49792, Note_on_c, 1, 57, 80
3, 49916, Note_off_c, 1, 57, 100
3, 49920, Note_on_c, 1, 43, 80
3, 50044, Note_off_c, 1, 43, 100
3, 50048, Note_on_c, 1, 50, 80
3, 50172, Note_off_c, 1, 50, 100
3, 50176, Note_on_c, 1, 55, 80
3, 50300, Note_off_c, 1, 55, 100
3, 50400, Note_on_c, 1, 43, 110
3, 50492, Note_off_c, 1, 43, 100
3, 50496, Note_on_c, 1, 45, 110
3, 50588, Note_off_c, 1, 45, 100
3, 50592, Note_on_c, 1, 47, 110
3, 50684, Note_off_c, 1, 47, 100
3, 50688, Key_signature, 0, "major"
3, 50688, Note_on_c, 1, 48, 110
3, 50780, Note_off_c, 1, 48, 100
3, 50784, Note_on_c, 1, 43, 110
3, 50876, Note_off_c, 1, 43, 100
3, 50880, Note_on_c, 1, 45, 110
3, 50972, Note_off_c, 1, 45, 100
3, 50976, Note_on_c, 1, 47, 110
3, 51068, Note_off_c, 1, 47, 100
3, 51072, Note_on_c, 1, 48, 110
3, 51164, Note_off_c, 1, 48, 100
3, 51168, Note_on_c, 1, 50, 110
3, 51260, Note_off_c, 1, 50, 100
3, 51264, Note_on_c, 1, 52, 110
3, 51356, Note_off_c, 1, 52, 100
3, 51360, Note_on_c, 1, 53, 110
3, 51452, Note_off_c, 1, 53, 100
3, 51456, Note_on_c, 1, 55, 110
3, 51456, Note_on_c, 1, 52, 110
3, 51456, Note_on_c, 1, 48, 110
3, 51644, Note_off_c, 1, 55, 100
3, 51644, Note_off_c, 1, 52, 100
3, 51644, Note_off_c, 1, 48, 100
3, 51648, Note_on_c, 1, 55, 110
3, 51648, Note_on_c, 1, 52, 110
3, 51648, Note_on_c, 1, 48, 110
3, 51836, Note_off_c, 1, 55, 100
3, 51836, Note_off_c, 1, 52, 100
3, 51836, Note_off_c, 1, 48, 100
3, 51840, Note_on_c, 1, 55, 110
3, 51840, Note_on_c, 1, 52, 110
3, 51840, Note_on_c, 1, 48, 110
3, 52028, Note_off_c, 1, 55, 100
3, 52028, Note_off_c, 1, 52, 100
3, 52028, Note_off_c, 1, 48, 100
3, 52032, Note_on_c, 1, 55, 110
3, 52032, Note_on_c, 1, 52, 110
3, 52032, Note_on_c, 1, 48, 110
3, 52220, Note_off_c, 1, 55, 100
3, 52220, Note_off_c, 1, 52, 100
3, 52220, Note_off_c, 1, 48, 100
3, 52224, Note_on_c, 1, 60, 110
3, 52224, Note_on_c, 1, 55, 110
3, 52224, Note_on_c, 1, 52, 110
3, 52224, Note_on_c, 1, 48, 110
3, 52412, Note_off_c, 1, 60, 100
3, 52412, Note_off_c, 1, 55, 100
3, 52412, Note_off_c, 1, 52, 100
3, 52412, Note_off_c, 1, 48, 100
3, 52416, Note_on_c, 1, 60, 110
3, 52416, Note_on_c, 1, 55, 110
3, 52416, Note_on_c, 1, 52, 110
3, 52416, Note_on_c, 1, 48, 110
3, 52604, Note_off_c, 1, 60, 100
3, 52604, Note_off_c, 1, 55, 100
3, 52604, Note_off_c, 1, 52, 100
3, 52604, Note_off_c, 1, 48, 100
3, 52608, Note_on_c, 1, 60, 110
3, 52608, Note_on_c, 1, 55, 110
3, 52608, Note_on_c, 1, 52, 110
3, 52608, Note_on_c, 1, 48, 110
3, 52796, Note_off_c, 1, 60, 100
3, 52796, Note_off_c, 1, 55, 100
3, 52796, Note_off_c, 1, 52, 100
3, 52796, Note_off_c, 1, 48, 100
3, 52800, Note_on_c, 1, 60, 110
3, 52800, Note_on_c, 1, 55, 110
3, 52800, Note_on_c, 1, 52, 110
3, 52800, Note_on_c, 1, 48, 110
3, 52988, Note_off_c, 1, 60, 100
3, 52988, Note_off_c, 1, 55, 100
3, 52988, Note_off_c, 1, 52, 100
3, 52988, Note_off_c, 1, 48, 100
3, 52992, Note_on_c, 1, 60, 110
3, 52992, Note_on_c, 1, 57, 110
3, 52992, Note_on_c, 1, 53, 110
3, 53468, Note_off_c, 1, 60, 100
3, 53468, Note_off_c, 1, 57, 100
3, 53468, Note_off_c, 1, 53, 100
3, 53472, Note_on_c, 1, 48, 110
3, 53564, Note_off_c, 1, 48, 100
3, 53568, Note_on_c, 1, 50, 110
3, 53660, Note_off_c, 1, 50, 100
3, 53664, Note_on_c, 1, 52, 110
3, 53756, Note_off_c, 1, 52, 100
3, 53760, Note_on_c, 1, 53, 110
3, 53852, Note_off_c, 1, 53, 100
3, 53856, Note_on_c, 1, 48, 110
3, 53948, Note_off_c, 1, 48, 100
3, 53952, Note_on_c, 1, 50, 110
3, 54044, Note_off_c, 1, 50, 100
3, 54048, Note_on_c, 1, 52, 110
3, 54140, Note_off_c, 1, 52, 100
3, 54144, Note_on_c, 1, 53, 110
3, 54236, Note_off_c, 1, 53, 100
3, 54240, Note_on_c, 1, 55, 110
3, 54332, Note_off_c, 1, 55, 100
3, 54336, Note_on_c, 1, 57, 110
3, 54428, Note_off_c, 1, 57, 100
3, 54432, Note_on_c, 1, 58, 110
3, 54524, Note_off_c, 1, 58, 100
3, 54528, Note_on_c, 1, 60, 110
3, 54528, Note_on_c, 1, 57, 110
3, 54528, Note_on_c, 1, 53, 110
3, 54716, Note_off_c, 1, 60, 100
3, 54716, Note_off_c, 1, 57, 100
3, 54716, Note_off_c, 1, 53, 100
3, 54720, Note_on_c, 1, 65, 110
3, 54720, Note_on_c, 1, 60, 110
3, 54720, Note_on_c, 1, 57, 110
3, 54720, Note_on_c, 1, 53, 110
3, 54908, Note_off_c, 1, 65, 100
3, 54908, Note_off_c, 1, 60, 100
3, 54908, Note_off_c, 1, 57, 100
3, 54908, Note_off_c, 1, 53, 100
3, 54912, Note_on_c, 1, 65, 110
3, 54912, Note_on_c, 1, 60, 110
3, 54912, Note_on_c, 1, 57, 110
3, 54912, Note_on_c, 1, 53, 110
3, 55100, Note_off_c, 1, 65, 100
3, 55100, Note_off_c, 1, 60, 100
3, 55100, Note_off_c, 1, 57, 100
3, 55100, Note_off_c, 1, 53, 100
3, 55104, Note_on_c, 1, 65, 110
3, 55104, Note_on_c, 1, 60, 110
3, 55104, Note_on_c, 1, 57, 110
3, 55104, Note_on_c, 1, 53, 110
3, 55292, Note_off_c, 1, 65, 100
3, 55292, Note_off_c, 1, 60, 100
3, 55292, Note_off_c, 1, 57, 100
3, 55292, Note_off_c, 1, 53, 100
3, 55296, Note_on_c, 1, 65, 110
3, 55296, Note_on_c, 1, 60, 110
3, 55296, Note_on_c, 1, 57, 110
3, 55296, Note_on_c, 1, 53, 110
3, 55484, Note_off_c, 1, 65, 100
3, 55484, Note_off_c, 1, 60, 100
3, 55484, Note_off_c, 1, 57, 100
3, 55484, Note_off_c, 1, 53, 100
3, 55488, Note_on_c, 1, 65, 110
3, 55488, Note_on_c, 1, 60, 110
3, 55488, Note_on_c, 1, 57, 110
3, 55488, Note_on_c, 1, 53, 110
3, 55676, Note_off_c, 1, 65, 100
3, 55676, Note_off_c, 1, 60, 100
3, 55676, Note_off_c, 1, 57, 100
3, 55676, Note_off_c, 1, 53, 100
3, 55680, Note_on_c, 1, 59, 110
3, 55680, Note_on_c, 1, 55, 110
3, 55680, Note_on_c, 1, 62, 110
3, 55868, Note_off_c, 1, 59, 100
3, 55868, Note_off_c, 1, 55, 100
3, 55868, Note_off_c, 1, 62, 100
3, 55872, Note_on_c, 1, 62, 110
3, 55872, Note_on_c, 1, 59, 110
3, 55872, Note_on_c, 1, 55, 110
3, 56060, Note_off_c, 1, 62, 100
3, 56060, Note_off_c, 1, 59, 100
3, 56060, Note_off_c, 1, 55, 100
3, 56064, Note_on_c, 1, 60, 110
3, 56064, Note_on_c, 1, 48, 110
3, 56540, Note_off_c, 1, 60, 100
3, 56540, Note_off_c, 1, 48, 100
3, 56544, Note_on_c, 1, 43, 110
3, 56636, Note_off_c, 1, 43, 100
3, 56640, Note_on_c, 1, 45, 110
3, 56732, Note_off_c, 1, 45, 100
3, 56736, Note_on_c, 1, 47, 110
3, 56828, Note_off_c, 1, 47, 100
3, 56832, Note_on_c, 1, 48, 110
3, 56924, Note_off_c, 1, 48, 100
3, 56928, Note_on_c, 1, 43, 110
3, 57020, Note_off_c, 1, 43, 100
3, 57024, Note_on_c, 1, 45, 110
3, 57116, Note_off_c, 1, 45, 100
3, 57120, Note_on_c, 1, 47, 110
3, 57212, Note_off_c, 1, 47, 100
3, 57216, Note_on_c, 1, 48, 110
3, 57308, Note_off_c, 1, 48, 100
3, 57312, Note_on_c, 1, 50, 110
3, 57404, Note_off_c, 1, 50, 100
3, 57408, Note_on_c, 1, 52, 110
3, 57500, Note_off_c, 1, 52, 100
3, 57504, Note_on_c, 1, 53, 110
3, 57596, Note_off_c, 1, 53, 100
3, 57600, Note_on_c, 1, 55, 110
3, 57600, Note_on_c, 1, 52, 110
3, 57600, Note_on_c, 1, 48, 110
3, 57788, Note_off_c, 1, 55, 100
3, 57788, Note_off_c, 1, 52, 100
3, 57788, Note_off_c, 1, 48, 100
3, 57792, Note_on_c, 1, 55, 110
3, 57792, Note_on_c, 1, 52, 110
3, 57792, Note_on_c, 1, 48, 110
3, 57980, Note_off_c, 1, 55, 100
3, 57980, Note_off_c, 1, 52, 100
3, 57980, Note_off_c, 1, 48, 100
3, 57984, Note_on_c, 1, 55, 110
3, 57984, Note_on_c, 1, 52, 110
3, 57984, Note_on_c, 1, 48, 110
3, 58172, Note_off_c, 1, 55, 100
3, 58172, Note_off_c, 1, 52, 100
3, 58172, Note_off_c, 1, 48, 100
3, 58176, Note_on_c, 1, 55, 110
3, 58176, Note_on_c, 1, 52, 110
3, 58176, Note_on_c, 1, 48, 110
3, 58364, Note_off_c, 1, 55, 100
3, 58364, Note_off_c, 1, 52, 100
3, 58364, Note_off_c, 1, 48, 100
3, 58368, Note_on_c, 1, 60, 110
3, 58368, Note_on_c, 1, 52, 110
3, 58368, Note_on_c, 1, 48, 110
3, 58368, Note_on_c, 1, 55, 110
3, 58556, Note_off_c, 1, 60, 100
3, 58556, Note_off_c, 1, 52, 100
3, 58556, Note_off_c, 1, 48, 100
3, 58556, Note_off_c, 1, 55, 100
3, 58560, Note_on_c, 1, 60, 110
3, 58560, Note_on_c, 1, 52, 110
3, 58560, Note_on_c, 1, 48, 110
3, 58560, Note_on_c, 1, 55, 110
3, 58748, Note_off_c, 1, 60, 100
3, 58748, Note_off_c, 1, 52, 100
3, 58748, Note_off_c, 1, 48, 100
3, 58748, Note_off_c, 1, 55, 100
3, 58752, Note_on_c, 1, 60, 110
3, 58752, Note_on_c, 1, 52, 110
3, 58752, Note_on_c, 1, 48, 110
3, 58752, Note_on_c, 1, 55, 110
3, 58940, Note_off_c, 1, 60, 100
3, 58940, Note_off_c, 1, 52, 100
3, 58940, Note_off_c, 1, 48, 100
3, 58940, Note_off_c, 1, 55, 100
3, 58944, Note_on_c, 1, 60, 110
3, 58944, Note_on_c, 1, 52, 110
3, 58944, Note_on_c, 1, 48, 110
3, 58944, Note_on_c, 1, 55, 110
3, 59132, Note_off_c, 1, 60, 100
3, 59132, Note_off_c, 1, 52, 100
3, 59132, Note_off_c, 1, 48, 100
3, 59132, Note_off_c, 1, 55, 100
3, 59136, Note_on_c, 1, 60, 110
3, 59136, Note_on_c, 1, 57, 110
3, 59136, Note_on_c, 1, 53, 110
3, 59612, Note_off_c, 1, 60, 100
3, 59612, Note_off_c, 1, 57, 100
3, 59612, Note_off_c, 1, 53, 100
3, 59616, Note_on_c, 1, 48, 110
3, 59708, Note_off_c, 1, 48, 100
3, 59712, Note_on_c, 1, 50, 110
3, 59804, Note_off_c, 1, 50, 100
3, 59808, Note_on_c, 1, 52, 110
3, 59900, Note_off_c, 1, 52, 100
3, 59904, Note_on_c, 1, 53, 110
3, 59996, Note_off_c, 1, 53, 100
3, 60000, Note_on_c, 1, 48, 110
3, 60092, Note_off_c, 1, 48, 100
3, 60096, Note_on_c, 1, 50, 110
3, 60188, Note_off_c, 1, 50, 100
3, 60192, Note_on_c, 1, 52, 110
3, 60284, Note_off_c, 1, 52, 100
3, 60288, Note_on_c, 1, 53, 110
3, 60380, Note_off_c, 1, 53, 100
3, 60384, Note_on_c, 1, 55, 110
3, 60476, Note_off_c, 1, 55, 100
3, 60480, Note_on_c, 1, 57, 110
3, 60572, Note_off_c, 1, 57, 100
3, 60576, Note_on_c, 1, 58, 110
3, 60668, Note_off_c, 1, 58, 100
3, 60672, Note_on_c, 1, 60, 110
3, 60672, Note_on_c, 1, 57, 110
3, 60672, Note_on_c, 1, 53, 110
3, 60860, Note_off_c, 1, 60, 100
3, 60860, Note_off_c, 1, 57, 100
3, 60860, Note_off_c, 1, 53, 100
3, 60864, Note_on_c, 1, 60, 110
3, 60864, Note_on_c, 1, 57, 110
3, 60864, Note_on_c, 1, 53, 110
3, 61052, Note_off_c, 1, 60, 100
3, 61052, Note_off_c, 1, 57, 100
3, 61052, Note_off_c, 1, 53, 100
3, 61056, Note_on_c, 1, 60, 110
3, 61056, Note_on_c, 1, 57, 110
3, 61056, Note_on_c, 1, 53, 110
3, 61244, Note_off_c, 1, 60, 100
3, 61244, Note_off_c, 1, 57, 100
3, 61244, Note_off_c, 1, 53, 100
3, 61248, Note_on_c, 1, 60, 110
3, 61248, Note_on_c, 1, 57, 110
3, 61248, Note_on_c, 1, 53, 110
3, 61436, Note_off_c, 1, 60, 100
3, 61436, Note_off_c, 1, 57, 100
3, 61436, Note_off_c, 1, 53, 100
3, 61440, Note_on_c, 1, 65, 110
3, 61440, Note_on_c, 1, 60, 110
3, 61440, Note_on_c, 1, 57, 110
3, 61440, Note_on_c, 1, 53, 110
3, 61628, Note_off_c, 1, 65, 100
3, 61628, Note_off_c, 1, 60, 100
3, 61628, Note_off_c, 1, 57, 100
3, 61628, Note_off_c, 1, 53, 100
3, 61632, Note_on_c, 1, 65, 110
3, 61632, Note_on_c, 1, 60, 110
3, 61632, Note_on_c, 1, 57, 110
3, 61632, Note_on_c, 1, 53, 110
3, 61820, Note_off_c, 1, 65, 100
3, 61820, Note_off_c, 1, 60, 100
3, 61820, Note_off_c, 1, 57, 100
3, 61820, Note_off_c, 1, 53, 100
3, 61824, Note_on_c, 1, 62, 110
3, 61824, Note_on_c, 1, 59, 110
3, 61824, Note_on_c, 1, 55, 110
3, 62012, Note_off_c, 1, 62, 100
3, 62012, Note_off_c, 1, 59, 100
3, 62012, Note_off_c, 1, 55, 100
3, 62016, Note_on_c, 1, 62, 110
3, 62016, Note_on_c, 1, 59, 110
3, 62016, Note_on_c, 1, 55, 110
3, 62204, Note_off_c, 1, 62, 100
3, 62204, Note_off_c, 1, 59, 100
3, 62204, Note_off_c, 1, 55, 100
3, 62208, Note_on_c, 1, 60, 110
3, 62208, Note_on_c, 1, 48, 110
3, 62588, Note_off_c, 1, 60, 100
3, 62588, Note_off_c, 1, 48, 100
3, 62976, Note_on_c, 1, 60, 80
3, 63104, Note_on_c, 1, 64, 80
3, 63228, Note_off_c, 1, 64, 100
3, 63232, Note_on_c, 1, 69, 80
3, 63356, Note_off_c, 1, 60, 100
3, 63356, Note_off_c, 1, 69, 100
3, 63360, Note_on_c, 1, 59, 80
3, 63488, Note_on_c, 1, 62, 80
3, 63612, Note_off_c, 1, 62, 100
3, 63616, Note_on_c, 1, 67, 80
3, 63740, Note_off_c, 1, 59, 100
3, 63740, Note_off_c, 1, 67, 100
3, 63744, Note_on_c, 1, 60, 80
3, 63872, Note_on_c, 1, 64, 80
3, 63996, Note_off_c, 1, 64, 100
3, 64000, Note_on_c, 1, 69, 80
3, 64124, Note_off_c, 1, 60, 100
3, 64124, Note_off_c, 1, 69, 100
3, 64128, Note_on_c, 1, 59, 80
3, 64256, Note_on_c, 1, 62, 80
3, 64380, Note_off_c, 1, 62, 100
3, 64384, Note_on_c, 1, 67, 80
3, 64508, Note_off_c, 1, 59, 100
3, 64508, Note_off_c, 1, 67, 100
3, 64512, Note_on_c, 1, 57, 80
3, 64640, Note_on_c, 1, 60, 80
3, 64764, Note_off_c, 1, 60, 100
3, 64768, Note_on_c, 1, 64, 80
3, 64892, Note_off_c, 1, 57, 100
3, 64892, Note_off_c, 1, 64, 100
3, 64896, Note_on_c, 1, 56, 80
3, 65024, Note_on_c, 1, 59, 80
3, 65148, Note_off_c, 1, 59, 100
3, 65152, Note_on_c, 1, 64, 80
3, 65276, Note_off_c, 1, 56, 100
3, 65276, Note_off_c, 1, 64, 100
3, 65280, Note_on_c, 1, 57, 80
3, 65408, Note_on_c, 1, 60, 80
3, 65532, Note_off_c, 1, 60, 100
3, 65536, Note_on_c, 1, 64, 80
3, 65660, Note_off_c, 1, 57, 100
3, 65660, Note_off_c, 1, 64, 100
3, 65664, Note_on_c, 1, 56, 80
3, 65792, Note_on_c, 1, 59, 80
3, 65916, Note_off_c, 1, 59, 100
3, 65920, Note_on_c, 1, 64, 80
3, 66044, Note_off_c, 1, 56, 100
3, 66044, Note_off_c, 1, 64, 100
3, 66048, Key_signature, 1, "major"
3, 66048, Note_on_c, 1, 57, 80
3, 66176, Note_on_c, 1, 60, 80
3, 66300, Note_off_c, 1, 60, 100
3, 66304, Note_on_c, 1, 64, 80
3, 66428, Note_off_c, 1, 57, 100
3, 66428, Note_off_c, 1, 64, 100
3, 66432, Note_on_c, 1, 54, 80
3, 66560, Note_on_c, 1, 57, 80
3, 66684, Note_off_c, 1, 57, 100
3, 66688, Note_on_c, 1, 62, 80
3, 66812, Note_off_c, 1, 54, 100
3, 66812, Note_off_c, 1, 62, 100
3, 66816, Note_on_c, 1, 55, 80
3, 66908, Note_off_c, 1, 55, 100
3, 66912, Note_on_c, 1, 59, 80
3, 67004, Note_off_c, 1, 59, 100
3, 67008, Note_on_c, 1, 62, 80
3, 67100, Note_off_c, 1, 62, 100
3, 67104, Note_on_c, 1, 59, 80
3, 67196, Note_off_c, 1, 59, 100
3, 67200, Note_on_c, 1, 54, 80
3, 67292, Note_off_c, 1, 54, 100
3, 67296, Note_on_c, 1, 57, 80
3, 67388, Note_off_c, 1, 57, 100
3, 67392, Note_on_c, 1, 62, 80
3, 67484, Note_off_c, 1, 62, 100
3, 67488, Note_on_c, 1, 57, 80
3, 67580, Note_off_c, 1, 57, 100
3, 67584, Note_on_c, 1, 52, 80
3, 67676, Note_off_c, 1, 52, 100
3, 67680, Note_on_c, 1, 55, 80
3, 67772, Note_off_c, 1, 55, 100
3, 67776, Note_on_c, 1, 59, 80
3, 67868, Note_off_c, 1, 59, 100
3, 67872, Note_on_c, 1, 55, 80
3, 67964, Note_off_c, 1, 55, 100
3, 67968, Note_on_c, 1, 50, 80
3, 68060, Note_off_c, 1, 50, 100
3, 68064, Note_on_c, 1, 54, 80
3, 68156, Note_off_c, 1, 54, 100
3, 68160, Note_on_c, 1, 59, 80
3, 68252, Note_off_c, 1, 59, 100
3, 68256, Note_on_c, 1, 54, 80
3, 68348, Note_off_c, 1, 54, 100
3, 68352, Note_on_c, 1, 48, 80
3, 68444, Note_off_c, 1, 48, 100
3, 68448, Note_on_c, 1, 52, 80
3, 68540, Note_off_c, 1, 52, 100
3, 68544, Note_on_c, 1, 55, 80
3, 68636, Note_off_c, 1, 55, 100
3, 68640, Note_on_c, 1, 52, 80
3, 68732, Note_off_c, 1, 52, 100
3, 68736, Note_on_c, 1, 47, 80
3, 68828, Note_off_c, 1, 47, 100
3, 68832, Note_on_c, 1, 50, 80
3, 68924, Note_off_c, 1, 50, 100
3, 68928, Note_on_c, 1, 55, 80
3, 69020, Note_off_c, 1, 55, 100
3, 69024, Note_on_c, 1, 50, 80
3, 69116, Note_off_c, 1, 50, 100
3, 69120, Note_on_c, 1, 45, 80
3, 69212, Note_off_c, 1, 45, 100
3, 69216, Note_on_c, 1, 50, 80
3, 69308, Note_off_c, 1, 50, 100
3, 69312, Note_on_c, 1, 54, 80
3, 69404, Note_off_c, 1, 54, 100
3, 69408, Note_on_c, 1, 50, 80
3, 69500, Note_off_c, 1, 50, 100
3, 69504, Note_on_c, 1, 43, 80
3, 69596, Note_off_c, 1, 43, 100
3, 69600, Note_on_c, 1, 50, 80
3, 69692, Note_off_c, 1, 50, 100
3, 69696, Note_on_c, 1, 55, 80
3, 69788, Note_off_c, 1, 55, 100
3, 69792, Note_on_c, 1, 50, 80
3, 69884, Note_off_c, 1, 50, 100
3, 69888, Note_on_c, 1, 55, 80
3, 69980, Note_off_c, 1, 55, 100
3, 69984, Note_on_c, 1, 59, 80
3, 70076, Note_off_c, 1, 59, 100
3, 70080, Note_on_c, 1, 62, 80
3, 70172, Note_off_c, 1, 62, 100
3, 70176, Note_on_c, 1, 59, 80
3, 70268, Note_off_c, 1, 59, 100
3, 70272, Note_on_c, 1, 54, 80
3, 70364, Note_off_c, 1, 54, 100
3, 70368, Note_on_c, 1, 57, 80
3, 70460, Note_off_c, 1, 57, 100
3, 70464, Note_on_c, 1, 62, 80
3, 70556, Note_off_c, 1, 62, 100
3, 70560, Note_on_c, 1, 57, 80
3, 70652, Note_off_c, 1, 57, 100
3, 70656, Note_on_c, 1, 52, 80
3, 70748, Note_off_c, 1, 52, 100
3, 70752, Note_on_c, 1, 57, 80
3, 70844, Note_off_c, 1, 57, 100
3, 70848, Note_on_c, 1, 61, 80
3, 70940, Note_off_c, 1, 61, 100
3, 70944, Note_on_c, 1, 57, 80
3, 71036, Note_off_c, 1, 57, 100
3, 71040, Note_on_c, 1, 50, 80
3, 71132, Note_off_c, 1, 50, 100
3, 71136, Note_on_c, 1, 57, 80
3, 71228, Note_off_c, 1, 57, 100
3, 71232, Note_on_c, 1, 62, 80
3, 71324, Note_off_c, 1, 62, 100
3, 71328, Note_on_c, 1, 57, 80
3, 71420, Note_off_c, 1, 57, 100
3, 71424, Note_on_c, 1, 55, 80
3, 71516, Note_off_c, 1, 55, 100
3, 71520, Note_on_c, 1, 59, 80
3, 71612, Note_off_c, 1, 59, 100
3, 71616, Note_on_c, 1, 64, 80
3, 71708, Note_off_c, 1, 64, 100
3, 71712, Note_on_c, 1, 59, 80
3, 71804, Note_off_c, 1, 59, 100
3, 71808, Note_on_c, 1, 57, 80
3, 71900, Note_off_c, 1, 57, 100
3, 71904, Note_on_c, 1, 64, 80
3, 71996, Note_off_c, 1, 64, 100
3, 72000, Note_on_c, 1, 67, 80
3, 72092, Note_off_c, 1, 67, 100
3, 72096, Note_on_c, 1, 64, 80
3, 72188, Note_off_c, 1, 64, 100
3, 72192, Note_on_c, 1, 50, 80
3, 72284, Note_off_c, 1, 50, 100
3, 72288, Note_on_c, 1, 54, 80
3, 72380, Note_off_c, 1, 54, 100
3, 72384, Note_on_c, 1, 57, 80
3, 72476, Note_off_c, 1, 57, 100
3, 72480, Note_on_c, 1, 62, 80
3, 72572, Note_off_c, 1, 62, 100
3, 72576, Note_on_c, 1, 61, 80
3, 72668, Note_off_c, 1, 61, 100
3, 72672, Note_on_c, 1, 62, 80
3, 72764, Note_off_c, 1, 62, 100
3, 72768, Note_on_c, 1, 60, 80
3, 72860, Note_off_c, 1, 60, 100
3, 72864, Note_on_c, 1, 57, 80
3, 72956, Note_off_c, 1, 57, 100
3, 72960, Note_on_c, 1, 55, 80
3, 73052, Note_off_c, 1, 55, 100
3, 73056, Note_on_c, 1, 62, 80
3, 73148, Note_off_c, 1, 62, 100
3, 73152, Note_on_c, 1, 59, 80
3, 73244, Note_off_c, 1, 59, 100
3, 73248, Note_on_c, 1, 62, 80
3, 73340, Note_off_c, 1, 62, 100
3, 73344, Note_on_c, 1, 54, 80
3, 73436, Note_off_c, 1, 54, 100
3, 73440, Note_on_c, 1, 62, 80
3, 73532, Note_off_c, 1, 62, 100
3, 73536, Note_on_c, 1, 57, 80
3, 73628, Note_off_c, 1, 57, 100
3, 73632, Note_on_c, 1, 62, 80
3, 73724, Note_off_c, 1, 62, 100
3, 73728, Note_on_c, 1, 52, 80
3, 73820, Note_off_c, 1, 52, 100
3, 73824, Note_on_c, 1, 59, 80
3, 73916, Note_off_c, 1, 59, 100
3, 73920, Note_on_c, 1, 55, 80
3, 74012, Note_off_c, 1, 55, 100
3, 74016, Note_on_c, 1, 59, 80
3, 74108, Note_off_c, 1, 59, 100
3, 74112, Note_on_c, 1, 50, 80
3, 74204, Note_off_c, 1, 50, 100
3, 74208, Note_on_c, 1, 59, 80
3, 74300, Note_off_c, 1, 59, 100
3, 74304, Note_on_c, 1, 54, 80
3, 74396, Note_off_c, 1, 54, 100
3, 74400, Note_on_c, 1, 59, 80
3, 74492, Note_off_c, 1, 59, 100
3, 74496, Note_on_c, 1, 48, 80
3, 74588, Note_off_c, 1, 48, 100
3, 74592, Note_on_c, 1, 55, 80
3, 74684, Note_off_c, 1, 55, 100
3, 74688, Note_on_c, 1, 52, 80
3, 74780, Note_off_c, 1, 52, 100
3, 74784, Note_on_c, 1, 55, 80
3, 74876, Note_off_c, 1, 55, 100
3, 74880, Note_on_c, 1, 47, 80
3, 74972, Note_off_c, 1, 47, 100
3, 74976, Note_on_c, 1, 55, 80
3, 75068, Note_off_c, 1, 55, 100
3, 75072, Note_on_c, 1, 50, 80
3, 75164, Note_off_c, 1, 50, 100
3, 75168, Note_on_c, 1, 55, 80
3, 75260, Note_off_c, 1, 55, 100
3, 75264, Note_on_c, 1, 45, 80
3, 75356, Note_off_c, 1, 45, 100
3, 75360, Note_on_c, 1, 54, 80
3, 75452, Note_off_c, 1, 54, 100
3, 75456, Note_on_c, 1, 50, 80
3, 75548, Note_off_c, 1, 50, 100
3, 75552, Note_on_c, 1, 54, 80
3, 75644, Note_off_c, 1, 54, 100
3, 75648, Note_on_c, 1, 43, 80
3, 75740, Note_off_c, 1, 43, 100
3, 75744, Note_on_c, 1, 55, 80
3, 75836, Note_off_c, 1, 55, 100
3, 75840, Note_on_c, 1, 50, 80
3, 75932, Note_off_c, 1, 50, 100
3, 75936, Note_on_c, 1, 55, 80
3, 76028, Note_off_c, 1, 55, 100
3, 76032, Note_on_c, 1, 55, 80
3, 76124, Note_off_c, 1, 55, 100
3, 76128, Note_on_c, 1, 62, 80
3, 76220, Note_off_c, 1, 62, 100
3, 76224, Note_on_c, 1, 59, 80
3, 76316, Note_off_c, 1, 59, 100
3, 76320, Note_on_c, 1, 62, 80
3, 76412, Note_off_c, 1, 62, 100
3, 76416, Note_on_c, 1, 54, 80
3, 76508, Note_off_c, 1, 54, 100
3, 76512, Note_on_c, 1, 62, 80
3, 76604, Note_off_c, 1, 62, 100
3, 76608, Note_on_c, 1, 57, 80
3, 76700, Note_off_c, 1, 57, 100
3, 76704, Note_on_c, 1, 62, 80
3, 76796, Note_off_c, 1, 62, 100
3, 76800, Note_on_c, 1, 52, 80
3, 76892, Note_off_c, 1, 52, 100
3, 76896, Note_on_c, 1, 61, 80
3, 76988, Note_off_c, 1, 61, 100
3, 76992, Note_on_c, 1, 57, 80
3, 77084, Note_off_c, 1, 57, 100
3, 77088, Note_on_c, 1, 61, 80
3, 77180, Note_off_c, 1, 61, 100
3, 77184, Note_on_c, 1, 50, 80
3, 77276, Note_off_c, 1, 50, 100
3, 77280, Note_on_c, 1, 62, 80
3, 77372, Note_off_c, 1, 62, 100
3, 77376, Note_on_c, 1, 57, 80
3, 77468, Note_off_c, 1, 57, 100
3, 77472, Note_on_c, 1, 62, 80
3, 77564, Note_off_c, 1, 62, 100
3, 77568, Note_on_c, 1, 55, 80
3, 77660, Note_off_c, 1, 55, 100
3, 77664, Note_on_c, 1, 64, 80
3, 77756, Note_off_c, 1, 64, 100
3, 77760, Note_on_c, 1, 59, 80
3, 77852, Note_off_c, 1, 59, 100
3, 77856, Note_on_c, 1, 64, 80
3, 77948, Note_off_c, 1, 64, 100
3, 77952, Note_on_c, 1, 57, 80
3, 78044, Note_off_c, 1, 57, 100
3, 78048, Note_on_c, 1, 67, 80
3, 78140, Note_off_c, 1, 67, 100
3, 78144, Note_on_c, 1, 64, 80
3, 78236, Note_off_c, 1, 64, 100
3, 78240, Note_on_c, 1, 67, 80
3, 78332, Note_off_c, 1, 67, 100
3, 78336, Note_on_c, 1, 50, 80
3, 78428, Note_off_c, 1, 50, 100
3, 78432, Note_on_c, 1, 54, 80
3, 78524, Note_off_c, 1, 54, 100
3, 78528, Note_on_c, 1, 57, 80
3, 78620, Note_off_c, 1, 57, 100
3, 78624, Note_on_c, 1, 62, 80
3, 78716, Note_off_c, 1, 62, 100
3, 78720, Note_on_c, 1, 61, 80
3, 78812, Note_off_c, 1, 61, 100
3, 78816, Note_on_c, 1, 62, 80
3, 78908, Note_off_c, 1, 62, 100
3, 78912, Note_on_c, 1, 57, 80
3, 79004, Note_off_c, 1, 57, 100
3, 79008, Note_on_c, 1, 54, 80
3, 79100, Note_off_c, 1, 54, 100
3, 79104, Note_on_c, 1, 50, 110
3, 79292, Note_off_c, 1, 50, 100
3, 79296, Note_on_c, 1, 52, 110
3, 79388, Note_off_c, 1, 52, 100
3, 79392, Note_on_c, 1, 50, 110
3, 79484, Note_off_c, 1, 50, 100
3, 79488, Note_on_c, 1, 47, 110
3, 79676, Note_off_c, 1, 47, 100
3, 79680, Note_on_c, 1, 49, 110
3, 79868, Note_off_c, 1, 49, 100
3, 79872, Note_on_c, 1, 50, 110
3, 80252, Note_off_c, 1, 50, 100
3, 80256, Note_on_c, 1, 38, 110
3, 80636, Note_off_c, 1, 38, 100
3, 80640, Note_on_c, 1, 42, 110
3, 80684, Note_off_c, 1, 42, 100
3, 80688, Note_on_c, 1, 40, 110
3, 80828, Note_off_c, 1, 40, 100
3, 80832, Note_on_c, 1, 38, 110
3, 81020, Note_off_c, 1, 38, 100
3, 81024, Note_on_c, 1, 40, 110
3, 81212, Note_off_c, 1, 40, 100
3, 81216, Note_on_c, 1, 42, 110
3, 81404, Note_off_c, 1, 42, 100
3, 81408, Note_on_c, 1, 43, 110
3, 81788, Note_off_c, 1, 43, 100
3, 81792, Note_on_c, 1, 31, 110
3, 82172, Note_off_c, 1, 31, 100
3, 82176, Note_on_c, 1, 50, 80
3, 82268, Note_off_c, 1, 50, 100
3, 82272, Note_on_c, 1, 57, 80
3, 82364, Note_off_c, 1, 57, 100
3, 82368, Note_on_c, 1, 54, 80
3, 82460, Note_off_c, 1, 54, 100
3, 82464, Note_on_c, 1, 57, 80
3, 82556, Note_off_c, 1, 57, 100
3, 82560, Note_on_c, 1, 52, 80
3, 82652, Note_off_c, 1, 52, 100
3, 82656, Note_on_c, 1, 57, 80
3, 82748, Note_off_c, 1, 57, 100
3, 82752, Note_on_c, 1, 55, 80
3, 82844, Note_off_c, 1, 55, 100
3, 82848, Note_on_c, 1, 57, 80
3, 82940, Note_off_c, 1, 57, 100
3, 82944, Note_on_c, 1, 50, 80
3, 83036, Note_off_c, 1, 50, 100
3, 83040, Note_on_c, 1, 57, 80
3, 83132, Note_off_c, 1, 57, 100
3, 83136, Note_on_c, 1, 54, 80
3, 83228, Note_off_c, 1, 54, 100
3, 83232, Note_on_c, 1, 57, 80
3, 83324, Note_off_c, 1, 57, 100
3, 83328, Note_on_c, 1, 43, 80
3, 83420, Note_off_c, 1, 43, 100
3, 83424, Note_on_c, 1, 55, 80
3, 83516, Note_off_c, 1, 55, 100
3, 83520, Note_on_c, 1, 53, 80
3, 83612, Note_off_c, 1, 53, 100
3, 83616, Note_on_c, 1, 55, 80
3, 83708, Note_off_c, 1, 55, 100
3, 83712, Note_on_c, 1, 48, 80
3, 83804, Note_off_c, 1, 48, 100
3, 83808, Note_on_c, 1, 57, 80
3, 83900, Note_off_c, 1, 57, 100
3, 83904, Note_on_c, 1, 52, 80
3, 83996, Note_off_c, 1, 52, 100
3, 84000, Note_on_c, 1, 57, 80
3, 84092, Note_off_c, 1, 57, 100
3, 84096, Note_on_c, 1, 50, 80
3, 84188, Note_off_c, 1, 50, 100
3, 84192, Note_on_c, 1, 60, 80
3, 84284, Note_off_c, 1, 60, 100
3, 84288, Note_on_c, 1, 57, 80
3, 84380, Note_off_c, 1, 57, 100
3, 84384, Note_on_c, 1, 60, 80
3, 84476, Note_off_c, 1, 60, 100
3, 84480, Note_on_c, 1, 55, 80
3, 84480, Note_on_c, 1, 59, 80
3, 84572, Note_off_c, 1, 55, 100
3, 84572, Note_off_c, 1, 59, 100
3, 84576, Note_on_c, 1, 62, 80
3, 84668, Note_off_c, 1, 62, 100
3, 84672, Note_on_c, 1, 60, 80
3, 84764, Note_off_c, 1, 60, 100
3, 84768, Note_on_c, 1, 59, 80
3, 84860, Note_off_c, 1, 59, 100
3, 84864, Note_on_c, 1, 57, 80
3, 84956, Note_off_c, 1, 57, 100
3, 84960, Note_on_c, 1, 55, 80
3, 85052, Note_off_c, 1, 55, 100
3, 85056, Note_on_c, 1, 54, 80
3, 85148, Note_off_c, 1, 54, 100
3, 85152, Note_on_c, 1, 52, 80
3, 85244, Note_off_c, 1, 52, 100
3, 85248, Note_on_c, 1, 50, 110
3, 85436, Note_off_c, 1, 50, 100
3, 85440, Note_on_c, 1, 52, 110
3, 85532, Note_off_c, 1, 52, 100
3, 85536, Note_on_c, 1, 50, 110
3, 85628, Note_off_c, 1, 50, 100
3, 85632, Note_on_c, 1, 47, 110
3, 85820, Note_off_c, 1, 47, 100
3, 85824, Note_on_c, 1, 49, 110
3, 86012, Note_off_c, 1, 49, 100
3, 86016, Note_on_c, 1, 50, 110
3, 86396, Note_off_c, 1, 50, 100
3, 86400, Note_on_c, 1, 38, 110
3, 86780, Note_off_c, 1, 38, 100
3, 86784, Note_on_c, 1, 74, 80
3, 86876, Note_off_c, 1, 74, 100
3, 86880, Note_on_c, 1, 78, 80
3, 86972, Note_off_c, 1, 78, 100
3, 86976, Note_on_c, 1, 74, 80
3, 87068, Note_off_c, 1, 74, 100
3, 87072, Note_on_c, 1, 78, 80
3, 87164, Note_off_c, 1, 78, 100
3, 87168, Note_on_c, 1, 76, 80
3, 87260, Note_off_c, 1, 76, 100
3, 87264, Note_on_c, 1, 79, 80
3, 87356, Note_off_c, 1, 79, 100
3, 87360, Note_on_c, 1, 76, 80
3, 87452, Note_off_c, 1, 76, 100
3, 87456, Note_on_c, 1, 79, 80
3, 87548, Note_off_c, 1, 79, 100
3, 87552, Note_on_c, 1, 78, 80
3, 87552, Note_on_c, 1, 74, 80
3, 87740, Note_off_c, 1, 78, 100
3, 87740, Note_off_c, 1, 74, 100
3, 88320, Note_on_c, 1, 42, 110
3, 88364, Note_off_c, 1, 42, 100
3, 88368, Note_on_c, 1, 40, 110
3, 88508, Note_off_c, 1, 40, 100
3, 88512, Note_on_c, 1, 38, 110
3, 88700, Note_off_c, 1, 38, 100
3, 88704, Note_on_c, 1, 40, 110
3, 88892, Note_off_c, 1, 40, 100
3, 88896, Note_on_c, 1, 42, 110
3, 89084, Note_off_c, 1, 42, 100
3, 89088, Note_on_c, 1, 43, 110
3, 89468, Note_off_c, 1, 43, 100
3, 89472, Note_on_c, 1, 31, 110
3, 89852, Note_off_c, 1, 31, 100
3, 89856, Note_on_c, 1, 72, 80
3, 89948, Note_off_c, 1, 72, 100
3, 89952, Note_on_c, 1, 76, 80
3, 90044, Note_off_c, 1, 76, 100
3, 90048, Note_on_c, 1, 71, 80
3, 90140, Note_off_c, 1, 71, 100
3, 90144, Note_on_c, 1, 74, 80
3, 90236, Note_off_c, 1, 74, 100
3, 90240, Note_on_c, 1, 72, 80
3, 90332, Note_off_c, 1, 72, 100
3, 90336, Note_on_c, 1, 76, 80
3, 90428, Note_off_c, 1, 76, 100
3, 90432, Note_on_c, 1, 69, 80
3, 90524, Note_off_c, 1, 69, 100
3, 90528, Note_on_c, 1, 72, 80
3, 90620, Note_off_c, 1, 72, 100
3, 90624, Note_on_c, 1, 74, 80
3, 90624, Note_on_c, 1, 71, 80
3, 90812, Note_off_c, 1, 74, 100
3, 90812, Note_off_c, 1, 71, 100
3, 91392, Note_on_c, 1, 60, 80
3, 91484, Note_off_c, 1, 60, 100
3, 91488, Note_on_c, 1, 64, 80
3, 91580, Note_off_c, 1, 64, 100
3, 91584, Note_on_c, 1, 59, 80
3, 91676, Note_off_c, 1, 59, 100
3, 91680, Note_on_c, 1, 62, 80
3, 91772, Note_off_c, 1, 62, 100
3, 91776, Note_on_c, 1, 60, 80
3, 91868, Note_off_c, 1, 60, 100
3, 91872, Note_on_c, 1, 64, 80
3, 91964, Note_off_c, 1, 64, 100
3, 91968, Note_on_c, 1, 57, 80
3, 92060, Note_off_c, 1, 57, 100
3, 92064, Note_on_c, 1, 60, 80
3, 92156, Note_off_c, 1, 60, 100
3, 92160, Note_on_c, 1, 59, 80
3, 92252, Note_off_c, 1, 59, 100
3, 92256, Note_on_c, 1, 62, 80
3, 92348, Note_off_c, 1, 62, 100
3, 92352, Note_on_c, 1, 59, 80
3, 92444, Note_off_c, 1, 59, 100
3, 92448, Note_on_c, 1, 62, 80
3, 92540, Note_off_c, 1, 62, 100
3, 92544, Note_on_c, 1, 55, 80
3, 92636, Note_off_c, 1, 55, 100
3, 92640, Note_on_c, 1, 65, 80
3, 92732, Note_off_c, 1, 65, 100
3, 92736, Note_on_c, 1, 55, 80
3, 92828, Note_off_c, 1, 55, 100
3, 92832, Note_on_c, 1, 65, 80
3, 92924, Note_off_c, 1, 65, 100
3, 92928, Note_on_c, 1, 60, 80
3, 93020, Note_off_c, 1, 60, 100
3, 93024, Note_on_c, 1, 64, 80
3, 93116, Note_off_c, 1, 64, 100
3, 93120, Note_on_c, 1, 60, 80
3, 93212, Note_off_c, 1, 60, 100
3, 93216, Note_on_c, 1, 64, 80
3, 93308, Note_off_c, 1, 64, 100
3, 93312, Note_on_c, 1, 62, 80
3, 93404, Note_off_c, 1, 62, 100
3, 93408, Note_on_c, 1, 66, 80
3, 93500, Note_off_c, 1, 66, 100
3, 93504, Note_on_c, 1, 62, 80
3, 93596, Note_off_c, 1, 62, 100
3, 93600, Note_on_c, 1, 66, 80
3, 93692, Note_off_c, 1, 66, 100
3, 93696, Note_on_c, 1, 55, 80
3, 93788, Note_off_c, 1, 55, 100
3, 93792, Note_on_c, 1, 67, 80
3, 93884, Note_off_c, 1, 67, 100
3, 93888, Note_on_c, 1, 55, 80
3, 93980, Note_off_c, 1, 55, 100
3, 93984, Note_on_c, 1, 67, 80
3, 94076, Note_off_c, 1, 67, 100
3, 94080, Note_on_c, 1, 59, 80
3, 94172, Note_off_c, 1, 59, 100
3, 94176, Note_on_c, 1, 65, 80
3, 94268, Note_off_c, 1, 65, 100
3, 94272, Note_on_c, 1, 59, 80
3, 94364, Note_off_c, 1, 59, 100
3, 94368, Note_on_c, 1, 65, 80
3, 94460, Note_off_c, 1, 65, 100
3, 94464, Note_on_c, 1, 60, 80
3, 94556, Note_off_c, 1, 60, 100
3, 94560, Note_on_c, 1, 64, 80
3, 94652, Note_off_c, 1, 64, 100
3, 94656, Note_on_c, 1, 60, 80
3, 94748, Note_off_c, 1, 60, 100
3, 94752, Note_on_c, 1, 64, 80
3, 94844, Note_off_c, 1, 64, 100
3, 94848, Note_on_c, 1, 62, 80
3, 94940, Note_off_c, 1, 62, 100
3, 94944, Note_on_c, 1, 66, 80
3, 95036, Note_off_c, 1, 66, 100
3, 95040, Note_on_c, 1, 62, 80
3, 95132, Note_off_c, 1, 62, 100
3, 95136, Note_on_c, 1, 66, 80
3, 95228, Note_off_c, 1, 66, 100
3, 95232, Note_on_c, 1, 55, 80
3, 95324, Note_off_c, 1, 55, 100
3, 95328, Note_on_c, 1, 67, 80
3, 95420, Note_off_c, 1, 67, 100
3, 95424, Note_on_c, 1, 55, 80
3, 95516, Note_off_c, 1, 55, 100
3, 95520, Note_on_c, 1, 67, 80
3, 95612, Note_off_c, 1, 67, 100
3, 95616, Note_on_c, 1, 59, 80
3, 95708, Note_off_c, 1, 59, 100
3, 95712, Note_on_c, 1, 65, 80
3, 95804, Note_off_c, 1, 65, 100
3, 95808, Note_on_c, 1, 59, 80
3, 95900, Note_off_c, 1, 59, 100
3, 95904, Note_on_c, 1, 65, 80
3, 95996, Note_off_c, 1, 65, 100
3, 96000, Note_on_c, 1, 60, 80
3, 96092, Note_off_c, 1, 60, 100
3, 96096, Note_on_c, 1, 64, 80
3, 96188, Note_off_c, 1, 64, 100
3, 96192, Note_on_c, 1, 60, 80
3, 96284, Note_off_c, 1, 60, 100
3, 96288, Note_on_c, 1, 64, 80
3, 96380, Note_off_c, 1, 64, 100
3, 96384, Note_on_c, 1, 62, 80
3, 96476, Note_off_c, 1, 62, 100
3, 96480, Note_on_c, 1, 66, 80
3, 96572, Note_off_c, 1, 66, 100
3, 96576, Note_on_c, 1, 62, 80
3, 96668, Note_off_c, 1, 62, 100
3, 96672, Note_on_c, 1, 66, 80
3, 96764, Note_off_c, 1, 66, 100
3, 96768, Note_on_c, 1, 55, 80
3, 96860, Note_off_c, 1, 55, 100
3, 96864, Note_on_c, 1, 67, 80
3, 96956, Note_off_c, 1, 67, 100
3, 96960, Note_on_c, 1, 55, 80
3, 97052, Note_off_c, 1, 55, 100
3, 97056, Note_on_c, 1, 67, 80
3, 97148, Note_off_c, 1, 67, 100
3, 97152, Note_on_c, 1, 59, 80
3, 97244, Note_off_c, 1, 59, 100
3, 97248, Note_on_c, 1, 65, 80
3, 97340, Note_off_c, 1, 65, 100
3, 97344, Note_on_c, 1, 59, 80
3, 97436, Note_off_c, 1, 59, 100
3, 97440, Note_on_c, 1, 65, 80
3, 97532, Note_off_c, 1, 65, 100
3, 97536, Note_on_c, 1, 60, 80
3, 97628, Note_off_c, 1, 60, 100
3, 97632, Note_on_c, 1, 64, 80
3, 97724, Note_off_c, 1, 64, 100
3, 97728, Note_on_c, 1, 60, 80
3, 97820, Note_off_c, 1, 60, 100
3, 97824, Note_on_c, 1, 64, 80
3, 97916, Note_off_c, 1, 64, 100
3, 97920, Note_on_c, 1, 62, 80
3, 98012, Note_off_c, 1, 62, 100
3, 98016, Note_on_c, 1, 66, 80
3, 98108, Note_off_c, 1, 66, 100
3, 98112, Note_on_c, 1, 62, 80
3, 98204, Note_off_c, 1, 62, 100
3, 98208, Note_on_c, 1, 66, 80
3, 98300, Note_off_c, 1, 66, 100
3, 98304, Note_on_c, 1, 55, 80
3, 98396, Note_off_c, 1, 55, 100
3, 98400, Note_on_c, 1, 59, 81
3, 98492, Note_off_c, 1, 59, 100
3, 98496, Note_on_c, 1, 62, 82
3, 98588, Note_off_c, 1, 62, 100
3, 98592, Note_on_c, 1, 67, 83
3, 98684, Note_off_c, 1, 67, 100
3, 98688, Note_on_c, 1, 55, 84
3, 98780, Note_off_c, 1, 55, 100
3, 98784, Note_on_c, 1, 59, 86
3, 98876, Note_off_c, 1, 59, 100
3, 98880, Note_on_c, 1, 62, 87
3, 98972, Note_off_c, 1, 62, 100
3, 98976, Note_on_c, 1, 67, 88
3, 99068, Note_off_c, 1, 67, 100
3, 99072, Note_on_c, 1, 55, 89
3, 99164, Note_off_c, 1, 55, 100
3, 99168, Note_on_c, 1, 59, 91
3, 99260, Note_off_c, 1, 59, 100
3, 99264, Note_on_c, 1, 62, 92
3, 99356, Note_off_c, 1, 62, 100
3, 99360, Note_on_c, 1, 67, 93
3, 99452, Note_off_c, 1, 67, 100
3, 99456, Note_on_c, 1, 55, 94
3, 99548, Note_off_c, 1, 55, 100
3, 99552, Note_on_c, 1, 59, 96
3, 99644, Note_off_c, 1, 59, 100
3, 99648, Note_on_c, 1, 62, 97
3, 99740, Note_off_c, 1, 62, 100
3, 99744, Note_on_c, 1, 67, 98
3, 99836, Note_off_c, 1, 67, 100
3, 99840, Note_on_c, 1, 55, 99
3, 99932, Note_off_c, 1, 55, 100
3, 99936, Note_on_c, 1, 59, 101
3, 100028, Note_off_c, 1, 59, 100
3, 100032, Note_on_c, 1, 62, 102
3, 100124, Note_off_c, 1, 62, 100
3, 100128, Note_on_c, 1, 67, 103
3, 100220, Note_off_c, 1, 67, 100
3, 100224, Note_on_c, 1, 55, 104
3, 100316, Note_off_c, 1, 55, 100
3, 100320, Note_on_c, 1, 59, 106
3, 100412, Note_off_c, 1, 59, 100
3, 100416, Note_on_c, 1, 62, 107
3, 100508, Note_off_c, 1, 62, 100
3, 100512, Note_on_c, 1, 67, 108
3, 100604, Note_off_c, 1, 67, 100
3, 100608, Note_on_c, 1, 55, 110
3, 100700, Note_off_c, 1, 55, 100
3, 100704, Note_on_c, 1, 59, 100
3, 100796, Note_off_c, 1, 59, 100
3, 100800, Note_on_c, 1, 62, 90
3, 100892, Note_off_c, 1, 62, 100
3, 100896, Note_on_c, 1, 67, 80
3, 100988, Note_off_c, 1, 67, 100
3, 100992, Note_on_c, 1, 50, 80
3, 101084, Note_off_c, 1, 50, 100
3, 101088, Note_on_c, 1, 54, 80
3, 101180, Note_off_c, 1, 54, 100
3, 101184, Note_on_c, 1, 57, 80
3, 101276, Note_off_c, 1, 57, 100
3, 101280, Note_on_c, 1, 62, 80
3, 101372, Note_off_c, 1, 62, 100
3, 101376, Note_on_c, 1, 43, 80
3, 101756, Note_off_c, 1, 43, 100
3, 101756, End_track
0, 0, End_of_file
