0, 0, Header, 1, 3, 384
1, 0, Start_track
1, 0, Title_t, "L.v.Beethoven 2mov - Piano Sonata No.25 in G Major Op.79\000"
1, 0, Copyright_t, "Copyright(C) 1995-2009, Suzuki Software\000"
1, 0, Sequencer_specific, 9, 67, 123, 0, 88, 70, 48, 50, 0, 1
1, 0, Text_t, "XFhd:2000/09/15:JP:Classical::::L.v.Beethoven:::Kaoru Suzuki\000"
1, 0, Text_t, "XFln:JP:\203s\203A\203m\203\\\203i\203^\221æ25\224Ô\203g\222·\222²\215ì\225i79\201`\221æ2\212y\217Í:L.v.\203x\201[\203g\201[\203\224\203F\203\223:::\227é\202¿\202á\202ñ:\227é\202¿\202á\202ñ\000"
1, 0, Time_signature, 9, 3, 96, 8
1, 0, Sequencer_specific, 3, 0, 0, 65
1, 0, Sequencer_specific, 5, 0, 0, 119, 14, 0
1, 0, Tempo, 1250000
1, 192, Tempo, 1153846
1, 3072, Tempo, 1200000
1, 3264, Tempo, 1263157
1, 3456, Tempo, 1200000
1, 3648, Tempo, 1153846
1, 9600, Tempo, 1200000
1, 9792, Tempo, 1263157
1, 10368, Tempo, 1200000
1, 10560, Tempo, 1153846
1, 28032, Tempo, 1200000
1, 28416, Tempo, 1153846
1, 33984, Tempo, 1200000
1, 34176, Tempo, 1250000
1, 34368, Tempo, 1304347
1, 34560, Tempo, 1224489
1, 35712, Tempo, 1263157
1, 35904, Tempo, 1304347
1, 36096, Tempo, 1333333
1, 36192, Tempo, 1395348
1, 36288, Tempo, 1224489
1, 36480, Tempo, 1153846
1, 39360, Tempo, 1200000
1, 39936, Tempo, 1153846
1, 45888, Tempo, 1200000
1, 46080, Tempo, 1250000
1, 46656, Tempo, 1200000
1, 46848, Tempo, 1153846
1, 54720, Tempo, 1333333
1, 56832, Tempo, 2000000
1, 57024, Tempo, 1500000
1, 57024, End_track
2, 0, Start_track
2, 0, Title_t, "Right"
2, 0, Control_c, 0, 0, 0
2, 0, Program_c, 0, 0
2, 0, Control_c, 0, 7, 100
2, 0, Control_c, 0, 10, 75
2, 0, Control_c, 0, 91, 127
2, 0, Key_signature, -2, "minor"
2, 0, Note_on_c, 0, 67, 80
2, 0, Note_on_c, 0, 58, 80
2, 572, Note_off_c, 0, 67, 100
2, 572, Note_off_c, 0, 58, 100
2, 576, Note_on_c, 0, 70, 80
2, 576, Note_on_c, 0, 67, 80
2, 956, Note_off_c, 0, 70, 100
2, 956, Note_off_c, 0, 67, 100
2, 960, Note_on_c, 0, 72, 80
2, 960, Note_on_c, 0, 69, 80
2, 1148, Note_off_c, 0, 72, 100
2, 1148, Note_off_c, 0, 69, 100
2, 1152, Note_on_c, 0, 74, 80
2, 1152, Note_on_c, 0, 70, 80
2, 1532, Note_off_c, 0, 74, 100
2, 1532, Note_off_c, 0, 70, 100
2, 1536, Note_on_c, 0, 74, 80
2, 1536, Note_on_c, 0, 70, 80
2, 1724, Note_off_c, 0, 74, 100
2, 1724, Note_off_c, 0, 70, 100
2, 1728, Note_on_c, 0, 74, 80
2, 1728, Note_on_c, 0, 70, 80
2, 2108, Note_off_c, 0, 74, 100
2, 2108, Note_off_c, 0, 70, 100
2, 2112, Note_on_c, 0, 70, 80
2, 2112, Note_on_c, 0, 67, 80
2, 2300, Note_off_c, 0, 70, 100
2, 2300, Note_off_c, 0, 67, 100
2, 2304, Note_on_c, 0, 67, 80
2, 2304, Note_on_c, 0, 58, 80
2, 2684, Note_off_c, 0, 67, 100
2, 2684, Note_off_c, 0, 58, 100
2, 2688, Note_on_c, 0, 70, 80
2, 2688, Note_on_c, 0, 67, 80
2, 2876, Note_off_c, 0, 70, 100
2, 2876, Note_off_c, 0, 67, 100
2, 2880, Note_on_c, 0, 69, 80
2, 2880, Note_on_c, 0, 66, 80
2, 3452, Note_off_c, 0, 69, 100
2, 3452, Note_off_c, 0, 66, 100
2, 3456, Note_on_c, 0, 67, 80
2, 3456, Note_on_c, 0, 58, 80
2, 4028, Note_off_c, 0, 67, 100
2, 4028, Note_off_c, 0, 58, 100
2, 4032, Note_on_c, 0, 70, 80
2, 4032, Note_on_c, 0, 67, 80
2, 4412, Note_off_c, 0, 70, 100
2, 4412, Note_off_c, 0, 67, 100
2, 4416, Note_on_c, 0, 72, 80
2, 4416, Note_on_c, 0, 69, 80
2, 4604, Note_off_c, 0, 72, 100
2, 4604, Note_off_c, 0, 69, 100
2, 4608, Note_on_c, 0, 74, 80
2, 4608, Note_on_c, 0, 70, 80
2, 4988, Note_off_c, 0, 74, 100
2, 4988, Note_off_c, 0, 70, 100
2, 4992, Note_on_c, 0, 74, 80
2, 4992, Note_on_c, 0, 70, 80
2, 5180, Note_off_c, 0, 74, 100
2, 5180, Note_off_c, 0, 70, 100
2, 5184, Note_on_c, 0, 74, 80
2, 5184, Note_on_c, 0, 70, 80
2, 5564, Note_off_c, 0, 74, 100
2, 5564, Note_off_c, 0, 70, 100
2, 5568, Note_on_c, 0, 70, 80
2, 5568, Note_on_c, 0, 62, 80
2, 5756, Note_off_c, 0, 70, 100
2, 5756, Note_off_c, 0, 62, 100
2, 5760, Note_on_c, 0, 72, 80
2, 5760, Note_on_c, 0, 63, 80
2, 5948, Note_off_c, 0, 72, 100
2, 5948, Note_off_c, 0, 63, 100
2, 5952, Note_on_c, 0, 75, 80
2, 5952, Note_on_c, 0, 67, 80
2, 6140, Note_off_c, 0, 75, 100
2, 6140, Note_off_c, 0, 67, 100
2, 6144, Note_on_c, 0, 69, 80
2, 6144, Note_on_c, 0, 60, 80
2, 6332, Note_off_c, 0, 69, 100
2, 6332, Note_off_c, 0, 60, 100
2, 6336, Note_on_c, 0, 70, 80
2, 6336, Note_on_c, 0, 62, 80
2, 6908, Note_off_c, 0, 70, 100
2, 6908, Note_off_c, 0, 62, 100
2, 6912, Note_on_c, 0, 74, 80
2, 6912, Note_on_c, 0, 70, 80
2, 7292, Note_off_c, 0, 74, 100
2, 7292, Note_off_c, 0, 70, 100
2, 7296, Note_on_c, 0, 70, 80
2, 7296, Note_on_c, 0, 62, 80
2, 7484, Note_off_c, 0, 70, 100
2, 7484, Note_off_c, 0, 62, 100
2, 7488, Note_on_c, 0, 72, 80
2, 7488, Note_on_c, 0, 69, 80
2, 7868, Note_off_c, 0, 72, 100
2, 7868, Note_off_c, 0, 69, 100
2, 7872, Note_on_c, 0, 74, 80
2, 7872, Note_on_c, 0, 71, 80
2, 8060, Note_off_c, 0, 74, 100
2, 8060, Note_off_c, 0, 71, 100
2, 8064, Note_on_c, 0, 75, 80
2, 8064, Note_on_c, 0, 72, 80
2, 8444, Note_off_c, 0, 75, 100
2, 8444, Note_off_c, 0, 72, 100
2, 8448, Note_on_c, 0, 75, 80
2, 8448, Note_on_c, 0, 72, 80
2, 8636, Note_off_c, 0, 75, 100
2, 8636, Note_off_c, 0, 72, 100
2, 8640, Note_on_c, 0, 75, 80
2, 8640, Note_on_c, 0, 72, 80
2, 9020, Note_off_c, 0, 75, 100
2, 9020, Note_off_c, 0, 72, 100
2, 9024, Note_on_c, 0, 72, 80
2, 9024, Note_on_c, 0, 69, 80
2, 9212, Note_off_c, 0, 72, 100
2, 9212, Note_off_c, 0, 69, 100
2, 9216, Note_on_c, 0, 69, 80
2, 9216, Note_on_c, 0, 66, 80
2, 9404, Note_off_c, 0, 69, 100
2, 9404, Note_off_c, 0, 66, 100
2, 9408, Note_on_c, 0, 72, 80
2, 9408, Note_on_c, 0, 69, 80
2, 9596, Note_off_c, 0, 72, 100
2, 9596, Note_off_c, 0, 69, 100
2, 9600, Note_on_c, 0, 69, 80
2, 9600, Note_on_c, 0, 66, 80
2, 9788, Note_off_c, 0, 69, 100
2, 9788, Note_off_c, 0, 66, 100
2, 9792, Note_on_c, 0, 70, 80
2, 9792, Note_on_c, 0, 67, 80
2, 9980, Note_off_c, 0, 70, 100
2, 9980, Note_off_c, 0, 67, 100
2, 9984, Note_on_c, 0, 70, 80
2, 9984, Note_on_c, 0, 67, 80
2, 10172, Note_off_c, 0, 70, 100
2, 10172, Note_off_c, 0, 67, 100
2, 10176, Note_on_c, 0, 72, 80
2, 10176, Note_on_c, 0, 69, 80
2, 10364, Note_off_c, 0, 72, 100
2, 10364, Note_off_c, 0, 69, 100
2, 10368, Note_on_c, 0, 74, 80
2, 10368, Note_on_c, 0, 70, 80
2, 10748, Note_off_c, 0, 74, 100
2, 10748, Note_off_c, 0, 70, 100
2, 10752, Note_on_c, 0, 70, 80
2, 10752, Note_on_c, 0, 62, 80
2, 10940, Note_off_c, 0, 70, 100
2, 10940, Note_off_c, 0, 62, 100
2, 10944, Note_on_c, 0, 72, 80
2, 10944, Note_on_c, 0, 69, 80
2, 11324, Note_off_c, 0, 72, 100
2, 11324, Note_off_c, 0, 69, 100
2, 11328, Note_on_c, 0, 74, 80
2, 11328, Note_on_c, 0, 71, 80
2, 11516, Note_off_c, 0, 74, 100
2, 11516, Note_off_c, 0, 71, 100
2, 11520, Note_on_c, 0, 75, 80
2, 11520, Note_on_c, 0, 72, 80
2, 11900, Note_off_c, 0, 75, 100
2, 11900, Note_off_c, 0, 72, 100
2, 11904, Note_on_c, 0, 75, 80
2, 11904, Note_on_c, 0, 72, 80
2, 12092, Note_off_c, 0, 75, 100
2, 12092, Note_off_c, 0, 72, 100
2, 12096, Note_on_c, 0, 75, 80
2, 12096, Note_on_c, 0, 72, 80
2, 12476, Note_off_c, 0, 75, 100
2, 12476, Note_off_c, 0, 72, 100
2, 12480, Note_on_c, 0, 72, 80
2, 12480, Note_on_c, 0, 69, 80
2, 12668, Note_off_c, 0, 72, 100
2, 12668, Note_off_c, 0, 69, 100
2, 12672, Note_on_c, 0, 69, 80
2, 12672, Note_on_c, 0, 66, 80
2, 12860, Note_off_c, 0, 69, 100
2, 12860, Note_off_c, 0, 66, 100
2, 12864, Note_on_c, 0, 72, 80
2, 12864, Note_on_c, 0, 69, 80
2, 13052, Note_off_c, 0, 72, 100
2, 13052, Note_off_c, 0, 69, 100
2, 13056, Note_on_c, 0, 69, 80
2, 13056, Note_on_c, 0, 66, 80
2, 13244, Note_off_c, 0, 69, 100
2, 13244, Note_off_c, 0, 66, 100
2, 13248, Note_on_c, 0, 58, 80
2, 13248, Note_on_c, 0, 67, 80
2, 13820, Note_off_c, 0, 58, 100
2, 13820, Note_off_c, 0, 67, 100
2, 14400, Note_on_c, 0, 58, 80
2, 14972, Note_off_c, 0, 58, 100
2, 14976, Note_on_c, 0, 62, 80
2, 14976, Note_on_c, 0, 58, 80
2, 14976, Note_on_c, 0, 56, 80
2, 15548, Note_off_c, 0, 62, 100
2, 15548, Note_off_c, 0, 58, 100
2, 15548, Note_off_c, 0, 56, 100
2, 15552, Key_signature, -3, "minor"
2, 15552, Note_on_c, 0, 63, 80
2, 15552, Note_on_c, 0, 58, 80
2, 15552, Note_on_c, 0, 55, 80
2, 15740, Note_off_c, 0, 63, 100
2, 15740, Note_off_c, 0, 58, 100
2, 15740, Note_off_c, 0, 55, 100
2, 16320, Note_on_c, 0, 67, 80
2, 16508, Note_off_c, 0, 67, 100
2, 16512, Note_on_c, 0, 67, 80
2, 16700, Note_off_c, 0, 67, 100
2, 16704, Note_on_c, 0, 67, 80
2, 16892, Note_off_c, 0, 67, 100
2, 16896, Note_on_c, 0, 70, 80
2, 17084, Note_off_c, 0, 70, 100
2, 17088, Note_on_c, 0, 70, 80
2, 17276, Note_off_c, 0, 70, 100
2, 17280, Note_on_c, 0, 70, 80
2, 17326, Note_off_c, 0, 70, 100
2, 17328, Note_on_c, 0, 75, 80
2, 17468, Note_off_c, 0, 75, 100
2, 17472, Note_on_c, 0, 74, 80
2, 17660, Note_off_c, 0, 74, 100
2, 17664, Note_on_c, 0, 72, 80
2, 17852, Note_off_c, 0, 72, 100
2, 17856, Note_on_c, 0, 70, 80
2, 18044, Note_off_c, 0, 70, 100
2, 18048, Note_on_c, 0, 68, 80
2, 18236, Note_off_c, 0, 68, 100
2, 18240, Note_on_c, 0, 67, 80
2, 18428, Note_off_c, 0, 67, 100
2, 18432, Note_on_c, 0, 70, 80
2, 18812, Note_off_c, 0, 70, 100
2, 18816, Note_on_c, 0, 68, 80
2, 19004, Note_off_c, 0, 68, 100
2, 19008, Note_on_c, 0, 65, 80
2, 19054, Note_off_c, 0, 65, 100
2, 19056, Note_on_c, 0, 77, 80
2, 19196, Note_off_c, 0, 77, 100
2, 19200, Note_on_c, 0, 75, 80
2, 19388, Note_off_c, 0, 75, 100
2, 19392, Note_on_c, 0, 74, 80
2, 19580, Note_off_c, 0, 74, 100
2, 19584, Note_on_c, 0, 72, 80
2, 19772, Note_off_c, 0, 72, 100
2, 19776, Note_on_c, 0, 70, 80
2, 19964, Note_off_c, 0, 70, 100
2, 19968, Note_on_c, 0, 68, 80
2, 20156, Note_off_c, 0, 68, 100
2, 20160, Note_on_c, 0, 66, 80
2, 20540, Note_off_c, 0, 66, 100
2, 20544, Note_on_c, 0, 67, 80
2, 20732, Note_off_c, 0, 67, 100
2, 20736, Note_on_c, 0, 65, 80
2, 21116, Note_off_c, 0, 65, 100
2, 21120, Note_on_c, 0, 68, 80
2, 21212, Note_off_c, 0, 68, 100
2, 21216, Note_on_c, 0, 67, 80
2, 21308, Note_off_c, 0, 67, 100
2, 21312, Note_on_c, 0, 65, 80
2, 21404, Note_off_c, 0, 65, 100
2, 21408, Note_on_c, 0, 67, 80
2, 21500, Note_off_c, 0, 67, 100
2, 21504, Note_on_c, 0, 68, 80
2, 21596, Note_off_c, 0, 68, 100
2, 21600, Note_on_c, 0, 70, 80
2, 21692, Note_off_c, 0, 70, 100
2, 21696, Note_on_c, 0, 72, 80
2, 21788, Note_off_c, 0, 72, 100
2, 21792, Note_on_c, 0, 70, 80
2, 21884, Note_off_c, 0, 70, 100
2, 21888, Note_on_c, 0, 70, 80
2, 21912, Note_on_c, 0, 72, 80
2, 21928, Note_off_c, 0, 70, 100
2, 21936, Note_on_c, 0, 70, 80
2, 21950, Note_off_c, 0, 72, 100
2, 21960, Note_on_c, 0, 72, 80
2, 21974, Note_off_c, 0, 70, 100
2, 21984, Note_on_c, 0, 70, 80
2, 21996, Note_off_c, 0, 72, 100
2, 22008, Note_on_c, 0, 72, 80
2, 22026, Note_off_c, 0, 70, 100
2, 22032, Note_on_c, 0, 69, 80
2, 22048, Note_off_c, 0, 72, 100
2, 22056, Note_on_c, 0, 70, 80
2, 22074, Note_off_c, 0, 69, 100
2, 22078, Note_off_c, 0, 70, 100
2, 22080, Note_on_c, 0, 75, 80
2, 22268, Note_off_c, 0, 75, 100
2, 22272, Note_on_c, 0, 67, 80
2, 22460, Note_off_c, 0, 67, 100
2, 22464, Note_on_c, 0, 77, 80
2, 22844, Note_off_c, 0, 77, 100
2, 22848, Note_on_c, 0, 80, 82
2, 22940, Note_off_c, 0, 80, 100
2, 22944, Note_on_c, 0, 79, 83
2, 23036, Note_off_c, 0, 79, 100
2, 23040, Note_on_c, 0, 77, 84
2, 23132, Note_off_c, 0, 77, 100
2, 23136, Note_on_c, 0, 79, 84
2, 23228, Note_off_c, 0, 79, 100
2, 23232, Note_on_c, 0, 80, 85
2, 23324, Note_off_c, 0, 80, 100
2, 23328, Note_on_c, 0, 82, 86
2, 23420, Note_off_c, 0, 82, 100
2, 23424, Note_on_c, 0, 84, 86
2, 23516, Note_off_c, 0, 84, 100
2, 23520, Note_on_c, 0, 82, 87
2, 23612, Note_off_c, 0, 82, 100
2, 23616, Note_on_c, 0, 82, 88
2, 23640, Note_on_c, 0, 84, 88
2, 23656, Note_off_c, 0, 82, 100
2, 23664, Note_on_c, 0, 82, 88
2, 23678, Note_off_c, 0, 84, 100
2, 23688, Note_on_c, 0, 84, 88
2, 23702, Note_off_c, 0, 82, 100
2, 23712, Note_on_c, 0, 82, 88
2, 23724, Note_off_c, 0, 84, 100
2, 23736, Note_on_c, 0, 84, 89
2, 23754, Note_off_c, 0, 82, 100
2, 23760, Note_on_c, 0, 81, 89
2, 23776, Note_off_c, 0, 84, 100
2, 23784, Note_on_c, 0, 82, 89
2, 23802, Note_off_c, 0, 81, 100
2, 23806, Note_off_c, 0, 82, 100
2, 23808, Note_on_c, 0, 87, 89
2, 23996, Note_off_c, 0, 87, 100
2, 24000, Note_on_c, 0, 79, 91
2, 24188, Note_off_c, 0, 79, 100
2, 24192, Note_on_c, 0, 77, 92
2, 24380, Note_off_c, 0, 77, 100
2, 24384, Note_on_c, 0, 80, 93
2, 24572, Note_off_c, 0, 80, 100
2, 24576, Note_on_c, 0, 84, 95
2, 24764, Note_off_c, 0, 84, 100
2, 24768, Note_on_c, 0, 74, 96
2, 24956, Note_off_c, 0, 74, 100
2, 24960, Note_on_c, 0, 77, 97
2, 25148, Note_off_c, 0, 77, 100
2, 25152, Note_on_c, 0, 82, 99
2, 25340, Note_off_c, 0, 82, 100
2, 25344, Note_on_c, 0, 80, 100
2, 25724, Note_off_c, 0, 80, 100
2, 25728, Note_on_c, 0, 79, 93
2, 25916, Note_off_c, 0, 79, 100
2, 25920, Note_on_c, 0, 65, 80
2, 26108, Note_off_c, 0, 65, 100
2, 26112, Note_on_c, 0, 68, 80
2, 26300, Note_off_c, 0, 68, 100
2, 26304, Note_on_c, 0, 72, 80
2, 26492, Note_off_c, 0, 72, 100
2, 26496, Note_on_c, 0, 63, 80
2, 26684, Note_off_c, 0, 63, 100
2, 26688, Note_on_c, 0, 67, 80
2, 26876, Note_off_c, 0, 67, 100
2, 26880, Note_on_c, 0, 70, 80
2, 27068, Note_off_c, 0, 70, 100
2, 27072, Note_on_c, 0, 56, 80
2, 27260, Note_off_c, 0, 56, 100
2, 27264, Note_on_c, 0, 58, 80
2, 27452, Note_off_c, 0, 58, 100
2, 27456, Note_on_c, 0, 62, 80
2, 27644, Note_off_c, 0, 62, 100
2, 27648, Note_on_c, 0, 63, 80
2, 27648, Note_on_c, 0, 58, 80
2, 27648, Note_on_c, 0, 55, 80
2, 28220, Note_off_c, 0, 63, 100
2, 28220, Note_off_c, 0, 58, 100
2, 28220, Note_off_c, 0, 55, 100
2, 28416, Note_on_c, 0, 75, 80
2, 28416, Note_on_c, 0, 72, 80
2, 28416, Note_on_c, 0, 63, 80
2, 28604, Note_off_c, 0, 75, 100
2, 28604, Note_off_c, 0, 72, 100
2, 28604, Note_off_c, 0, 63, 100
2, 28608, Note_on_c, 0, 75, 80
2, 28608, Note_on_c, 0, 72, 80
2, 28608, Note_on_c, 0, 63, 80
2, 28796, Note_off_c, 0, 75, 100
2, 28796, Note_off_c, 0, 72, 100
2, 28796, Note_off_c, 0, 63, 100
2, 28800, Note_on_c, 0, 63, 80
2, 28800, Note_on_c, 0, 75, 80
2, 28800, Note_on_c, 0, 72, 80
2, 29180, Note_off_c, 0, 75, 100
2, 29180, Note_off_c, 0, 72, 100
2, 29184, Note_on_c, 0, 72, 80
2, 29184, Note_on_c, 0, 68, 80
2, 29372, Note_off_c, 0, 63, 100
2, 29372, Note_off_c, 0, 72, 100
2, 29372, Note_off_c, 0, 68, 100
2, 29376, Note_on_c, 0, 70, 80
2, 29376, Note_on_c, 0, 63, 80
2, 29948, Note_off_c, 0, 70, 100
2, 29948, Note_off_c, 0, 63, 100
2, 29952, Note_on_c, 0, 63, 80
2, 29952, Note_on_c, 0, 58, 80
2, 29952, Note_on_c, 0, 67, 80
2, 30332, Note_off_c, 0, 67, 100
2, 30336, Note_on_c, 0, 70, 80
2, 30524, Note_off_c, 0, 63, 100
2, 30524, Note_off_c, 0, 58, 100
2, 30524, Note_off_c, 0, 70, 100
2, 30528, Note_on_c, 0, 62, 80
2, 30528, Note_on_c, 0, 70, 80
2, 30716, Note_off_c, 0, 70, 100
2, 30720, Note_on_c, 0, 68, 80
2, 30908, Note_off_c, 0, 68, 100
2, 30912, Note_on_c, 0, 67, 80
2, 30972, Note_off_c, 0, 67, 100
2, 30976, Note_on_c, 0, 70, 80
2, 31036, Note_off_c, 0, 70, 100
2, 31040, Note_on_c, 0, 68, 80
2, 31100, Note_off_c, 0, 62, 100
2, 31100, Note_off_c, 0, 68, 100
2, 31104, Note_on_c, 0, 67, 80
2, 31104, Note_on_c, 0, 63, 80
2, 31104, Note_on_c, 0, 58, 80
2, 31676, Note_off_c, 0, 67, 100
2, 31676, Note_off_c, 0, 63, 100
2, 31676, Note_off_c, 0, 58, 100
2, 31680, Note_on_c, 0, 63, 80
2, 31740, Note_off_c, 0, 63, 100
2, 31744, Note_on_c, 0, 65, 80
2, 31804, Note_off_c, 0, 65, 100
2, 31808, Note_on_c, 0, 63, 80
2, 31868, Note_off_c, 0, 63, 100
2, 31872, Note_on_c, 0, 62, 80
2, 31916, Note_off_c, 0, 62, 100
2, 31920, Note_on_c, 0, 63, 80
2, 31964, Note_off_c, 0, 63, 100
2, 31968, Note_on_c, 0, 65, 80
2, 32012, Note_off_c, 0, 65, 100
2, 32016, Note_on_c, 0, 67, 80
2, 32060, Note_off_c, 0, 67, 100
2, 32064, Note_on_c, 0, 68, 80
2, 32100, Note_off_c, 0, 68, 100
2, 32102, Note_on_c, 0, 70, 80
2, 32138, Note_off_c, 0, 70, 100
2, 32140, Note_on_c, 0, 72, 80
2, 32176, Note_off_c, 0, 72, 100
2, 32178, Note_on_c, 0, 74, 80
2, 32214, Note_off_c, 0, 74, 100
2, 32216, Note_on_c, 0, 75, 80
2, 32252, Note_off_c, 0, 75, 100
2, 32256, Note_on_c, 0, 77, 80
2, 32348, Note_off_c, 0, 77, 100
2, 32352, Note_on_c, 0, 75, 80
2, 32444, Note_off_c, 0, 75, 100
2, 32448, Note_on_c, 0, 74, 80
2, 32540, Note_off_c, 0, 74, 100
2, 32544, Note_on_c, 0, 72, 80
2, 32636, Note_off_c, 0, 72, 100
2, 32640, Note_on_c, 0, 75, 80
2, 32732, Note_off_c, 0, 75, 100
2, 32736, Note_on_c, 0, 72, 80
2, 32828, Note_off_c, 0, 72, 100
2, 32832, Note_on_c, 0, 70, 80
2, 33404, Note_off_c, 0, 70, 100
2, 33408, Note_on_c, 0, 58, 80
2, 33408, Note_on_c, 0, 67, 80
2, 33788, Note_off_c, 0, 58, 100
2, 33788, Note_off_c, 0, 67, 100
2, 33792, Note_on_c, 0, 70, 80
2, 33792, Note_on_c, 0, 61, 80
2, 33980, Note_off_c, 0, 70, 100
2, 33980, Note_off_c, 0, 61, 100
2, 33984, Note_on_c, 0, 67, 80
2, 33984, Note_on_c, 0, 61, 80
2, 34268, Note_off_c, 0, 67, 100
2, 34272, Note_on_c, 0, 70, 80
2, 34364, Note_off_c, 0, 61, 100
2, 34364, Note_off_c, 0, 70, 100
2, 34368, Note_on_c, 0, 61, 80
2, 34368, Note_on_c, 0, 69, 80
2, 34460, Note_off_c, 0, 69, 100
2, 34464, Note_on_c, 0, 67, 80
2, 34556, Note_off_c, 0, 61, 100
2, 34556, Note_off_c, 0, 67, 100
2, 34560, Key_signature, -2, "minor"
2, 34560, Note_on_c, 0, 66, 80
2, 34560, Note_on_c, 0, 62, 80
2, 35132, Note_off_c, 0, 66, 100
2, 35132, Note_off_c, 0, 62, 100
2, 35136, Note_on_c, 0, 69, 80
2, 35136, Note_on_c, 0, 66, 80
2, 35516, Note_off_c, 0, 69, 100
2, 35516, Note_off_c, 0, 66, 100
2, 35520, Note_on_c, 0, 70, 80
2, 35520, Note_on_c, 0, 67, 80
2, 35708, Note_off_c, 0, 70, 100
2, 35708, Note_off_c, 0, 67, 100
2, 35712, Note_on_c, 0, 72, 80
2, 35712, Note_on_c, 0, 69, 80
2, 35804, Note_off_c, 0, 72, 100
2, 35804, Note_off_c, 0, 69, 100
2, 35808, Note_on_c, 0, 75, 80
2, 35900, Note_off_c, 0, 75, 100
2, 35904, Note_on_c, 0, 74, 80
2, 35996, Note_off_c, 0, 74, 100
2, 36000, Note_on_c, 0, 72, 80
2, 36092, Note_off_c, 0, 72, 100
2, 36096, Note_on_c, 0, 70, 80
2, 36188, Note_off_c, 0, 70, 100
2, 36192, Note_on_c, 0, 69, 80
2, 36284, Note_off_c, 0, 69, 100
2, 36288, Note_on_c, 0, 67, 80
2, 36288, Note_on_c, 0, 58, 80
2, 36860, Note_off_c, 0, 67, 100
2, 36860, Note_off_c, 0, 58, 100
2, 36864, Note_on_c, 0, 70, 80
2, 36864, Note_on_c, 0, 67, 80
2, 37244, Note_off_c, 0, 70, 100
2, 37244, Note_off_c, 0, 67, 100
2, 37248, Note_on_c, 0, 72, 80
2, 37248, Note_on_c, 0, 69, 80
2, 37436, Note_off_c, 0, 72, 100
2, 37436, Note_off_c, 0, 69, 100
2, 37440, Note_on_c, 0, 74, 80
2, 37440, Note_on_c, 0, 70, 80
2, 37820, Note_off_c, 0, 74, 100
2, 37820, Note_off_c, 0, 70, 100
2, 37824, Note_on_c, 0, 74, 80
2, 37824, Note_on_c, 0, 70, 80
2, 38012, Note_off_c, 0, 74, 100
2, 38012, Note_off_c, 0, 70, 100
2, 38016, Note_on_c, 0, 74, 80
2, 38016, Note_on_c, 0, 70, 80
2, 38396, Note_off_c, 0, 74, 100
2, 38396, Note_off_c, 0, 70, 100
2, 38400, Note_on_c, 0, 70, 80
2, 38400, Note_on_c, 0, 67, 80
2, 38588, Note_off_c, 0, 70, 100
2, 38588, Note_off_c, 0, 67, 100
2, 38592, Note_on_c, 0, 67, 80
2, 38592, Note_on_c, 0, 58, 80
2, 38972, Note_off_c, 0, 67, 100
2, 38972, Note_off_c, 0, 58, 100
2, 38976, Note_on_c, 0, 70, 80
2, 38976, Note_on_c, 0, 67, 80
2, 39164, Note_off_c, 0, 70, 100
2, 39164, Note_off_c, 0, 67, 100
2, 39168, Note_on_c, 0, 69, 80
2, 39168, Note_on_c, 0, 66, 80
2, 39740, Note_off_c, 0, 69, 100
2, 39740, Note_off_c, 0, 66, 100
2, 39744, Note_on_c, 0, 67, 80
2, 39744, Note_on_c, 0, 58, 80
2, 40316, Note_off_c, 0, 67, 100
2, 40316, Note_off_c, 0, 58, 100
2, 40320, Note_on_c, 0, 70, 80
2, 40320, Note_on_c, 0, 67, 80
2, 40700, Note_off_c, 0, 70, 100
2, 40700, Note_off_c, 0, 67, 100
2, 40704, Note_on_c, 0, 72, 80
2, 40704, Note_on_c, 0, 69, 80
2, 40892, Note_off_c, 0, 72, 100
2, 40892, Note_off_c, 0, 69, 100
2, 40896, Note_on_c, 0, 74, 80
2, 40896, Note_on_c, 0, 70, 80
2, 41276, Note_off_c, 0, 74, 100
2, 41276, Note_off_c, 0, 70, 100
2, 41280, Note_on_c, 0, 74, 80
2, 41280, Note_on_c, 0, 70, 80
2, 41468, Note_off_c, 0, 74, 100
2, 41468, Note_off_c, 0, 70, 100
2, 41472, Note_on_c, 0, 74, 80
2, 41472, Note_on_c, 0, 70, 80
2, 41852, Note_off_c, 0, 74, 100
2, 41852, Note_off_c, 0, 70, 100
2, 41856, Note_on_c, 0, 70, 80
2, 41856, Note_on_c, 0, 62, 80
2, 42044, Note_off_c, 0, 70, 100
2, 42044, Note_off_c, 0, 62, 100
2, 42048, Note_on_c, 0, 72, 80
2, 42048, Note_on_c, 0, 63, 80
2, 42236, Note_off_c, 0, 72, 100
2, 42236, Note_off_c, 0, 63, 100
2, 42240, Note_on_c, 0, 75, 80
2, 42240, Note_on_c, 0, 67, 80
2, 42428, Note_off_c, 0, 75, 100
2, 42428, Note_off_c, 0, 67, 100
2, 42432, Note_on_c, 0, 69, 80
2, 42432, Note_on_c, 0, 60, 80
2, 42620, Note_off_c, 0, 69, 100
2, 42620, Note_off_c, 0, 60, 100
2, 42624, Note_on_c, 0, 70, 80
2, 42624, Note_on_c, 0, 62, 80
2, 43196, Note_off_c, 0, 70, 100
2, 43196, Note_off_c, 0, 62, 100
2, 43200, Note_on_c, 0, 74, 80
2, 43200, Note_on_c, 0, 70, 80
2, 43580, Note_off_c, 0, 74, 100
2, 43580, Note_off_c, 0, 70, 100
2, 43584, Note_on_c, 0, 70, 80
2, 43584, Note_on_c, 0, 62, 80
2, 43772, Note_off_c, 0, 70, 100
2, 43772, Note_off_c, 0, 62, 100
2, 43776, Note_on_c, 0, 72, 80
2, 43776, Note_on_c, 0, 69, 80
2, 44156, Note_off_c, 0, 72, 100
2, 44156, Note_off_c, 0, 69, 100
2, 44160, Note_on_c, 0, 74, 80
2, 44160, Note_on_c, 0, 71, 80
2, 44348, Note_off_c, 0, 74, 100
2, 44348, Note_off_c, 0, 71, 100
2, 44352, Note_on_c, 0, 75, 80
2, 44352, Note_on_c, 0, 72, 80
2, 44732, Note_off_c, 0, 75, 100
2, 44732, Note_off_c, 0, 72, 100
2, 44736, Note_on_c, 0, 75, 80
2, 44736, Note_on_c, 0, 72, 80
2, 44924, Note_off_c, 0, 75, 100
2, 44924, Note_off_c, 0, 72, 100
2, 44928, Note_on_c, 0, 75, 80
2, 44928, Note_on_c, 0, 72, 80
2, 45308, Note_off_c, 0, 75, 100
2, 45308, Note_off_c, 0, 72, 100
2, 45312, Note_on_c, 0, 72, 80
2, 45312, Note_on_c, 0, 69, 80
2, 45500, Note_off_c, 0, 72, 100
2, 45500, Note_off_c, 0, 69, 100
2, 45504, Note_on_c, 0, 69, 80
2, 45504, Note_on_c, 0, 66, 80
2, 45692, Note_off_c, 0, 69, 100
2, 45692, Note_off_c, 0, 66, 100
2, 45696, Note_on_c, 0, 72, 80
2, 45696, Note_on_c, 0, 69, 80
2, 45884, Note_off_c, 0, 72, 100
2, 45884, Note_off_c, 0, 69, 100
2, 45888, Note_on_c, 0, 69, 80
2, 45888, Note_on_c, 0, 66, 80
2, 46076, Note_off_c, 0, 69, 100
2, 46076, Note_off_c, 0, 66, 100
2, 46080, Note_on_c, 0, 70, 80
2, 46080, Note_on_c, 0, 67, 80
2, 46268, Note_off_c, 0, 70, 100
2, 46268, Note_off_c, 0, 67, 100
2, 46272, Note_on_c, 0, 70, 80
2, 46272, Note_on_c, 0, 67, 80
2, 46460, Note_off_c, 0, 70, 100
2, 46460, Note_off_c, 0, 67, 100
2, 46464, Note_on_c, 0, 72, 80
2, 46464, Note_on_c, 0, 69, 80
2, 46652, Note_off_c, 0, 72, 100
2, 46652, Note_off_c, 0, 69, 100
2, 46656, Note_on_c, 0, 74, 80
2, 46656, Note_on_c, 0, 70, 80
2, 47036, Note_off_c, 0, 74, 100
2, 47036, Note_off_c, 0, 70, 100
2, 47040, Note_on_c, 0, 70, 80
2, 47040, Note_on_c, 0, 62, 80
2, 47228, Note_off_c, 0, 70, 100
2, 47228, Note_off_c, 0, 62, 100
2, 47232, Note_on_c, 0, 72, 80
2, 47232, Note_on_c, 0, 69, 80
2, 47612, Note_off_c, 0, 72, 100
2, 47612, Note_off_c, 0, 69, 100
2, 47616, Note_on_c, 0, 74, 80
2, 47616, Note_on_c, 0, 71, 80
2, 47804, Note_off_c, 0, 74, 100
2, 47804, Note_off_c, 0, 71, 100
2, 47808, Note_on_c, 0, 75, 80
2, 47808, Note_on_c, 0, 72, 80
2, 48188, Note_off_c, 0, 75, 100
2, 48188, Note_off_c, 0, 72, 100
2, 48192, Note_on_c, 0, 75, 80
2, 48192, Note_on_c, 0, 72, 80
2, 48380, Note_off_c, 0, 75, 100
2, 48380, Note_off_c, 0, 72, 100
2, 48384, Note_on_c, 0, 75, 80
2, 48384, Note_on_c, 0, 72, 80
2, 48764, Note_off_c, 0, 75, 100
2, 48764, Note_off_c, 0, 72, 100
2, 48768, Note_on_c, 0, 72, 80
2, 48768, Note_on_c, 0, 69, 80
2, 48956, Note_off_c, 0, 72, 100
2, 48956, Note_off_c, 0, 69, 100
2, 48960, Note_on_c, 0, 69, 80
2, 48960, Note_on_c, 0, 66, 80
2, 49148, Note_off_c, 0, 69, 100
2, 49148, Note_off_c, 0, 66, 100
2, 49152, Note_on_c, 0, 72, 80
2, 49152, Note_on_c, 0, 69, 80
2, 49340, Note_off_c, 0, 72, 100
2, 49340, Note_off_c, 0, 69, 100
2, 49344, Note_on_c, 0, 69, 80
2, 49344, Note_on_c, 0, 66, 80
2, 49532, Note_off_c, 0, 69, 100
2, 49532, Note_off_c, 0, 66, 100
2, 49536, Note_on_c, 0, 67, 80
2, 49536, Note_on_c, 0, 58, 80
2, 50108, Note_off_c, 0, 67, 100
2, 50108, Note_off_c, 0, 58, 100
2, 50112, Note_on_c, 0, 79, 80
2, 50112, Note_on_c, 0, 67, 80
2, 50684, Note_off_c, 0, 79, 100
2, 50684, Note_off_c, 0, 67, 100
2, 50688, Note_on_c, 0, 82, 80
2, 50688, Note_on_c, 0, 70, 80
2, 51068, Note_off_c, 0, 82, 100
2, 51068, Note_off_c, 0, 70, 100
2, 51072, Note_on_c, 0, 84, 82
2, 51072, Note_on_c, 0, 72, 82
2, 51260, Note_off_c, 0, 84, 100
2, 51260, Note_off_c, 0, 72, 100
2, 51264, Note_on_c, 0, 86, 84
2, 51264, Note_on_c, 0, 74, 84
2, 51644, Note_off_c, 0, 86, 100
2, 51644, Note_off_c, 0, 74, 100
2, 51648, Note_on_c, 0, 86, 87
2, 51648, Note_on_c, 0, 74, 87
2, 51836, Note_off_c, 0, 86, 100
2, 51836, Note_off_c, 0, 74, 100
2, 51840, Note_on_c, 0, 86, 88
2, 51840, Note_on_c, 0, 74, 88
2, 52220, Note_off_c, 0, 86, 100
2, 52220, Note_off_c, 0, 74, 100
2, 52224, Note_on_c, 0, 82, 91
2, 52224, Note_on_c, 0, 70, 91
2, 52412, Note_off_c, 0, 82, 100
2, 52412, Note_off_c, 0, 70, 100
2, 52416, Note_on_c, 0, 79, 93
2, 52416, Note_on_c, 0, 67, 93
2, 52796, Note_off_c, 0, 79, 100
2, 52796, Note_off_c, 0, 67, 100
2, 52800, Note_on_c, 0, 82, 96
2, 52800, Note_on_c, 0, 70, 96
2, 52988, Note_off_c, 0, 82, 100
2, 52988, Note_off_c, 0, 70, 100
2, 52992, Note_on_c, 0, 81, 97
2, 52992, Note_on_c, 0, 69, 97
2, 53564, Note_off_c, 0, 81, 100
2, 53564, Note_off_c, 0, 69, 100
2, 53568, Note_on_c, 0, 84, 101
2, 53568, Note_on_c, 0, 72, 101
2, 53948, Note_off_c, 0, 84, 100
2, 53948, Note_off_c, 0, 72, 100
2, 53952, Note_on_c, 0, 81, 104
2, 53952, Note_on_c, 0, 69, 104
2, 54140, Note_off_c, 0, 81, 100
2, 54140, Note_off_c, 0, 69, 100
2, 54144, Note_on_c, 0, 78, 106
2, 54144, Note_on_c, 0, 66, 106
2, 54524, Note_off_c, 0, 78, 100
2, 54524, Note_off_c, 0, 66, 100
2, 54528, Note_on_c, 0, 81, 110
2, 54528, Note_on_c, 0, 69, 110
2, 54716, Note_off_c, 0, 81, 100
2, 54716, Note_off_c, 0, 69, 100
2, 54720, Note_on_c, 0, 79, 94
2, 54720, Note_on_c, 0, 67, 94
2, 55292, Note_off_c, 0, 79, 100
2, 55292, Note_off_c, 0, 67, 100
2, 55296, Note_on_c, 0, 72, 80
2, 55296, Note_on_c, 0, 63, 80
2, 55676, Note_off_c, 0, 72, 100
2, 55676, Note_off_c, 0, 63, 100
2, 55680, Note_on_c, 0, 69, 80
2, 55680, Note_on_c, 0, 63, 80
2, 55868, Note_off_c, 0, 69, 100
2, 55868, Note_off_c, 0, 63, 100
2, 56448, Note_on_c, 0, 66, 80
2, 56448, Note_on_c, 0, 60, 80
2, 56828, Note_off_c, 0, 66, 100
2, 56828, Note_off_c, 0, 60, 100
2, 56832, Note_on_c, 0, 69, 80
2, 56832, Note_on_c, 0, 66, 80
2, 57020, Note_off_c, 0, 69, 100
2, 57020, Note_off_c, 0, 66, 100
2, 57024, Note_on_c, 0, 66, 80
2, 57024, Note_on_c, 0, 62, 80
2, 57024, Note_on_c, 0, 60, 80
2, 57404, Note_off_c, 0, 66, 100
2, 57404, Note_off_c, 0, 62, 100
2, 57404, Note_off_c, 0, 60, 100
2, 57600, Note_on_c, 0, 67, 80
2, 57600, Note_on_c, 0, 62, 80
2, 57600, Note_on_c, 0, 58, 80
2, 58172, Note_off_c, 0, 67, 100
2, 58172, Note_off_c, 0, 62, 100
2, 58172, Note_off_c, 0, 58, 100
2, 59520, Control_c, 0, 7, 0
2, 59904, Note_on_c, 0, 67, 1
2, 60094, Note_off_c, 0, 67, 100
2, 60094, End_track
3, 0, Start_track
3, 0, Title_t, "Left"
3, 0, Control_c, 1, 0, 0
3, 0, Program_c, 1, 0
3, 0, Control_c, 1, 7, 100
3, 0, Control_c, 1, 10, 48
3, 0, Control_c, 1, 91, 127
3, 0, Key_signature, -2, "minor"
3, 0, Note_on_c, 1, 43, 80
3, 188, Note_off_c, 1, 43, 100
3, 192, Note_on_c, 1, 50, 80
3, 380, Note_off_c, 1, 50, 100
3, 384, Note_on_c, 1, 50, 80
3, 572, Note_off_c, 1, 50, 100
3, 576, Note_on_c, 1, 43, 80
3, 764, Note_off_c, 1, 43, 100
3, 768, Note_on_c, 1, 50, 80
3, 956, Note_off_c, 1, 50, 100
3, 960, Note_on_c, 1, 50, 80
3, 1148, Note_off_c, 1, 50, 100
3, 1152, Note_on_c, 1, 43, 80
3, 1340, Note_off_c, 1, 43, 100
3, 1344, Note_on_c, 1, 50, 80
3, 1532, Note_off_c, 1, 50, 100
3, 1536, Note_on_c, 1, 50, 80
3, 1724, Note_off_c, 1, 50, 100
3, 1728, Note_on_c, 1, 43, 80
3, 1916, Note_off_c, 1, 43, 100
3, 1920, Note_on_c, 1, 50, 80
3, 2108, Note_off_c, 1, 50, 100
3, 2112, Note_on_c, 1, 50, 80
3, 2300, Note_off_c, 1, 50, 100
3, 2304, Note_on_c, 1, 43, 80
3, 2492, Note_off_c, 1, 43, 100
3, 2496, Note_on_c, 1, 50, 80
3, 2684, Note_off_c, 1, 50, 100
3, 2688, Note_on_c, 1, 50, 80
3, 2876, Note_off_c, 1, 50, 100
3, 2880, Note_on_c, 1, 38, 80
3, 3068, Note_off_c, 1, 38, 100
3, 3072, Note_on_c, 1, 50, 80
3, 3260, Note_off_c, 1, 50, 100
3, 3264, Note_on_c, 1, 50, 80
3, 3452, Note_off_c, 1, 50, 100
3, 3456, Note_on_c, 1, 43, 80
3, 3644, Note_off_c, 1, 43, 100
3, 3648, Note_on_c, 1, 50, 80
3, 3836, Note_off_c, 1, 50, 100
3, 3840, Note_on_c, 1, 50, 80
3, 4028, Note_off_c, 1, 50, 100
3, 4032, Note_on_c, 1, 43, 80
3, 4220, Note_off_c, 1, 43, 100
3, 4224, Note_on_c, 1, 50, 80
3, 4412, Note_off_c, 1, 50, 100
3, 4416, Note_on_c, 1, 50, 80
3, 4604, Note_off_c, 1, 50, 100
3, 4608, Note_on_c, 1, 43, 80
3, 4796, Note_off_c, 1, 43, 100
3, 4800, Note_on_c, 1, 50, 80
3, 4988, Note_off_c, 1, 50, 100
3, 4992, Note_on_c, 1, 50, 80
3, 5180, Note_off_c, 1, 50, 100
3, 5184, Note_on_c, 1, 41, 80
3, 5372, Note_off_c, 1, 41, 100
3, 5376, Note_on_c, 1, 53, 80
3, 5564, Note_off_c, 1, 53, 100
3, 5568, Note_on_c, 1, 53, 80
3, 5756, Note_off_c, 1, 53, 100
3, 5760, Note_on_c, 1, 41, 80
3, 5948, Note_off_c, 1, 41, 100
3, 5952, Note_on_c, 1, 53, 80
3, 6140, Note_off_c, 1, 53, 100
3, 6144, Note_on_c, 1, 53, 80
3, 6332, Note_off_c, 1, 53, 100
3, 6336, Note_on_c, 1, 46, 80
3, 6524, Note_off_c, 1, 46, 100
3, 6528, Note_on_c, 1, 53, 80
3, 6716, Note_off_c, 1, 53, 100
3, 6720, Note_on_c, 1, 53, 80
3, 6908, Note_off_c, 1, 53, 100
3, 6912, Note_on_c, 1, 46, 80
3, 7100, Note_off_c, 1, 46, 100
3, 7104, Note_on_c, 1, 53, 80
3, 7292, Note_off_c, 1, 53, 100
3, 7296, Note_on_c, 1, 53, 80
3, 7484, Note_off_c, 1, 53, 100
3, 7488, Note_on_c, 1, 41, 80
3, 7676, Note_off_c, 1, 41, 100
3, 7680, Note_on_c, 1, 53, 80
3, 7868, Note_off_c, 1, 53, 100
3, 7872, Note_on_c, 1, 53, 80
3, 8060, Note_off_c, 1, 53, 100
3, 8064, Note_on_c, 1, 36, 80
3, 8252, Note_off_c, 1, 36, 100
3, 8256, Note_on_c, 1, 48, 80
3, 8444, Note_off_c, 1, 48, 100
3, 8448, Note_on_c, 1, 48, 80
3, 8636, Note_off_c, 1, 48, 100
3, 8640, Note_on_c, 1, 36, 80
3, 8828, Note_off_c, 1, 36, 100
3, 8832, Note_on_c, 1, 48, 80
3, 9020, Note_off_c, 1, 48, 100
3, 9024, Note_on_c, 1, 48, 80
3, 9212, Note_off_c, 1, 48, 100
3, 9216, Note_on_c, 1, 38, 80
3, 9404, Note_off_c, 1, 38, 100
3, 9408, Note_on_c, 1, 50, 80
3, 9596, Note_off_c, 1, 50, 100
3, 9600, Note_on_c, 1, 38, 80
3, 9788, Note_off_c, 1, 38, 100
3, 9792, Note_on_c, 1, 43, 80
3, 9980, Note_off_c, 1, 43, 100
3, 9984, Note_on_c, 1, 43, 80
3, 9984, Note_on_c, 1, 55, 80
3, 10172, Note_off_c, 1, 43, 100
3, 10172, Note_off_c, 1, 55, 100
3, 10176, Note_on_c, 1, 41, 80
3, 10176, Note_on_c, 1, 53, 80
3, 10364, Note_off_c, 1, 41, 100
3, 10364, Note_off_c, 1, 53, 100
3, 10368, Note_on_c, 1, 46, 80
3, 10556, Note_off_c, 1, 46, 100
3, 10560, Note_on_c, 1, 53, 80
3, 10748, Note_off_c, 1, 53, 100
3, 10752, Note_on_c, 1, 53, 80
3, 10940, Note_off_c, 1, 53, 100
3, 10944, Note_on_c, 1, 41, 80
3, 11132, Note_off_c, 1, 41, 100
3, 11136, Note_on_c, 1, 53, 80
3, 11324, Note_off_c, 1, 53, 100
3, 11328, Note_on_c, 1, 53, 80
3, 11516, Note_off_c, 1, 53, 100
3, 11520, Note_on_c, 1, 36, 80
3, 11708, Note_off_c, 1, 36, 100
3, 11712, Note_on_c, 1, 48, 80
3, 11900, Note_off_c, 1, 48, 100
3, 11904, Note_on_c, 1, 48, 80
3, 12092, Note_off_c, 1, 48, 100
3, 12096, Note_on_c, 1, 36, 80
3, 12284, Note_off_c, 1, 36, 100
3, 12288, Note_on_c, 1, 48, 80
3, 12476, Note_off_c, 1, 48, 100
3, 12480, Note_on_c, 1, 48, 80
3, 12668, Note_off_c, 1, 48, 100
3, 12672, Note_on_c, 1, 38, 80
3, 12860, Note_off_c, 1, 38, 100
3, 12864, Note_on_c, 1, 50, 80
3, 13052, Note_off_c, 1, 50, 100
3, 13056, Note_on_c, 1, 50, 80
3, 13244, Note_off_c, 1, 50, 100
3, 13248, Note_on_c, 1, 43, 80
3, 13436, Note_off_c, 1, 43, 100
3, 13440, Note_on_c, 1, 55, 80
3, 13628, Note_off_c, 1, 55, 100
3, 13632, Note_on_c, 1, 55, 80
3, 13820, Note_off_c, 1, 55, 100
3, 13824, Note_on_c, 1, 55, 80
3, 14396, Note_off_c, 1, 55, 100
3, 14400, Note_on_c, 1, 55, 80
3, 14972, Note_off_c, 1, 55, 100
3, 14976, Note_on_c, 1, 53, 80
3, 14976, Note_on_c, 1, 46, 80
3, 15548, Note_off_c, 1, 53, 100
3, 15548, Note_off_c, 1, 46, 100
3, 15552, Key_signature, -3, "minor"
3, 15552, Note_on_c, 1, 51, 80
3, 15644, Note_off_c, 1, 51, 100
3, 15648, Note_on_c, 1, 55, 80
3, 15740, Note_off_c, 1, 55, 100
3, 15744, Note_on_c, 1, 58, 80
3, 15836, Note_off_c, 1, 58, 100
3, 15840, Note_on_c, 1, 55, 80
3, 15932, Note_off_c, 1, 55, 100
3, 15936, Note_on_c, 1, 51, 80
3, 16028, Note_off_c, 1, 51, 100
3, 16032, Note_on_c, 1, 46, 80
3, 16124, Note_off_c, 1, 46, 100
3, 16128, Note_on_c, 1, 51, 80
3, 16220, Note_off_c, 1, 51, 100
3, 16224, Note_on_c, 1, 55, 80
3, 16316, Note_off_c, 1, 55, 100
3, 16320, Note_on_c, 1, 58, 80
3, 16412, Note_off_c, 1, 58, 100
3, 16416, Note_on_c, 1, 55, 80
3, 16508, Note_off_c, 1, 55, 100
3, 16512, Note_on_c, 1, 51, 80
3, 16604, Note_off_c, 1, 51, 100
3, 16608, Note_on_c, 1, 46, 80
3, 16700, Note_off_c, 1, 46, 100
3, 16704, Note_on_c, 1, 51, 80
3, 16796, Note_off_c, 1, 51, 100
3, 16800, Note_on_c, 1, 55, 80
3, 16892, Note_off_c, 1, 55, 100
3, 16896, Note_on_c, 1, 58, 80
3, 16988, Note_off_c, 1, 58, 100
3, 16992, Note_on_c, 1, 55, 80
3, 17084, Note_off_c, 1, 55, 100
3, 17088, Note_on_c, 1, 51, 80
3, 17180, Note_off_c, 1, 51, 100
3, 17184, Note_on_c, 1, 46, 80
3, 17276, Note_off_c, 1, 46, 100
3, 17280, Note_on_c, 1, 51, 80
3, 17372, Note_off_c, 1, 51, 100
3, 17376, Note_on_c, 1, 55, 80
3, 17468, Note_off_c, 1, 55, 100
3, 17472, Note_on_c, 1, 58, 80
3, 17564, Note_off_c, 1, 58, 100
3, 17568, Note_on_c, 1, 55, 80
3, 17660, Note_off_c, 1, 55, 100
3, 17664, Note_on_c, 1, 51, 80
3, 17756, Note_off_c, 1, 51, 100
3, 17760, Note_on_c, 1, 46, 80
3, 17852, Note_off_c, 1, 46, 100
3, 17856, Note_on_c, 1, 51, 80
3, 17948, Note_off_c, 1, 51, 100
3, 17952, Note_on_c, 1, 55, 80
3, 18044, Note_off_c, 1, 55, 100
3, 18048, Note_on_c, 1, 58, 80
3, 18140, Note_off_c, 1, 58, 100
3, 18144, Note_on_c, 1, 55, 80
3, 18236, Note_off_c, 1, 55, 100
3, 18240, Note_on_c, 1, 51, 80
3, 18332, Note_off_c, 1, 51, 100
3, 18336, Note_on_c, 1, 46, 80
3, 18428, Note_off_c, 1, 46, 100
3, 18432, Note_on_c, 1, 53, 80
3, 18524, Note_off_c, 1, 53, 100
3, 18528, Note_on_c, 1, 56, 80
3, 18620, Note_off_c, 1, 56, 100
3, 18624, Note_on_c, 1, 58, 80
3, 18716, Note_off_c, 1, 58, 100
3, 18720, Note_on_c, 1, 56, 80
3, 18812, Note_off_c, 1, 56, 100
3, 18816, Note_on_c, 1, 53, 80
3, 18908, Note_off_c, 1, 53, 100
3, 18912, Note_on_c, 1, 46, 80
3, 19004, Note_off_c, 1, 46, 100
3, 19008, Note_on_c, 1, 50, 80
3, 19100, Note_off_c, 1, 50, 100
3, 19104, Note_on_c, 1, 53, 80
3, 19196, Note_off_c, 1, 53, 100
3, 19200, Note_on_c, 1, 58, 80
3, 19292, Note_off_c, 1, 58, 100
3, 19296, Note_on_c, 1, 53, 80
3, 19388, Note_off_c, 1, 53, 100
3, 19392, Note_on_c, 1, 50, 80
3, 19484, Note_off_c, 1, 50, 100
3, 19488, Note_on_c, 1, 46, 80
3, 19580, Note_off_c, 1, 46, 100
3, 19584, Note_on_c, 1, 50, 80
3, 19676, Note_off_c, 1, 50, 100
3, 19680, Note_on_c, 1, 53, 80
3, 19772, Note_off_c, 1, 53, 100
3, 19776, Note_on_c, 1, 58, 80
3, 19868, Note_off_c, 1, 58, 100
3, 19872, Note_on_c, 1, 53, 80
3, 19964, Note_off_c, 1, 53, 100
3, 19968, Note_on_c, 1, 50, 80
3, 20060, Note_off_c, 1, 50, 100
3, 20064, Note_on_c, 1, 46, 80
3, 20156, Note_off_c, 1, 46, 100
3, 20160, Note_on_c, 1, 51, 80
3, 20252, Note_off_c, 1, 51, 100
3, 20256, Note_on_c, 1, 55, 80
3, 20348, Note_off_c, 1, 55, 100
3, 20352, Note_on_c, 1, 58, 80
3, 20444, Note_off_c, 1, 58, 100
3, 20448, Note_on_c, 1, 55, 80
3, 20540, Note_off_c, 1, 55, 100
3, 20544, Note_on_c, 1, 51, 80
3, 20636, Note_off_c, 1, 51, 100
3, 20640, Note_on_c, 1, 46, 80
3, 20732, Note_off_c, 1, 46, 100
3, 20736, Note_on_c, 1, 44, 80
3, 20828, Note_off_c, 1, 44, 100
3, 20832, Note_on_c, 1, 46, 80
3, 20924, Note_off_c, 1, 46, 100
3, 20928, Note_on_c, 1, 50, 80
3, 21020, Note_off_c, 1, 50, 100
3, 21024, Note_on_c, 1, 53, 80
3, 21116, Note_off_c, 1, 53, 100
3, 21120, Note_on_c, 1, 50, 80
3, 21212, Note_off_c, 1, 50, 100
3, 21216, Note_on_c, 1, 46, 80
3, 21308, Note_off_c, 1, 46, 100
3, 21312, Note_on_c, 1, 44, 80
3, 21404, Note_off_c, 1, 44, 100
3, 21408, Note_on_c, 1, 46, 80
3, 21500, Note_off_c, 1, 46, 100
3, 21504, Note_on_c, 1, 50, 80
3, 21596, Note_off_c, 1, 50, 100
3, 21600, Note_on_c, 1, 53, 80
3, 21692, Note_off_c, 1, 53, 100
3, 21696, Note_on_c, 1, 50, 80
3, 21788, Note_off_c, 1, 50, 100
3, 21792, Note_on_c, 1, 46, 80
3, 21884, Note_off_c, 1, 46, 100
3, 21888, Note_on_c, 1, 43, 80
3, 21980, Note_off_c, 1, 43, 100
3, 21984, Note_on_c, 1, 46, 80
3, 22076, Note_off_c, 1, 46, 100
3, 22080, Note_on_c, 1, 51, 80
3, 22172, Note_off_c, 1, 51, 100
3, 22176, Note_on_c, 1, 55, 80
3, 22268, Note_off_c, 1, 55, 100
3, 22272, Note_on_c, 1, 58, 80
3, 22364, Note_off_c, 1, 58, 100
3, 22368, Note_on_c, 1, 55, 80
3, 22460, Note_off_c, 1, 55, 100
3, 22464, Note_on_c, 1, 56, 80
3, 22556, Note_off_c, 1, 56, 100
3, 22560, Note_on_c, 1, 58, 80
3, 22652, Note_off_c, 1, 58, 100
3, 22656, Note_on_c, 1, 62, 81
3, 22748, Note_off_c, 1, 62, 100
3, 22752, Note_on_c, 1, 65, 82
3, 22844, Note_off_c, 1, 65, 100
3, 22848, Note_on_c, 1, 62, 82
3, 22940, Note_off_c, 1, 62, 100
3, 22944, Note_on_c, 1, 58, 83
3, 23036, Note_off_c, 1, 58, 100
3, 23040, Note_on_c, 1, 56, 84
3, 23132, Note_off_c, 1, 56, 100
3, 23136, Note_on_c, 1, 58, 84
3, 23228, Note_off_c, 1, 58, 100
3, 23232, Note_on_c, 1, 62, 85
3, 23324, Note_off_c, 1, 62, 100
3, 23328, Note_on_c, 1, 65, 86
3, 23420, Note_off_c, 1, 65, 100
3, 23424, Note_on_c, 1, 62, 86
3, 23516, Note_off_c, 1, 62, 100
3, 23520, Note_on_c, 1, 58, 87
3, 23612, Note_off_c, 1, 58, 100
3, 23616, Note_on_c, 1, 55, 88
3, 23708, Note_off_c, 1, 55, 100
3, 23712, Note_on_c, 1, 58, 88
3, 23804, Note_off_c, 1, 58, 100
3, 23808, Note_on_c, 1, 63, 89
3, 23900, Note_off_c, 1, 63, 100
3, 23904, Note_on_c, 1, 67, 90
3, 23996, Note_off_c, 1, 67, 100
3, 24000, Note_on_c, 1, 63, 91
3, 24092, Note_off_c, 1, 63, 100
3, 24096, Note_on_c, 1, 58, 91
3, 24188, Note_off_c, 1, 58, 100
3, 24192, Note_on_c, 1, 56, 92
3, 24284, Note_off_c, 1, 56, 100
3, 24288, Note_on_c, 1, 60, 93
3, 24380, Note_off_c, 1, 60, 100
3, 24384, Note_on_c, 1, 65, 93
3, 24476, Note_off_c, 1, 65, 100
3, 24480, Note_on_c, 1, 68, 94
3, 24572, Note_off_c, 1, 68, 100
3, 24576, Note_on_c, 1, 65, 95
3, 24668, Note_off_c, 1, 65, 100
3, 24672, Note_on_c, 1, 60, 95
3, 24764, Note_off_c, 1, 60, 100
3, 24768, Note_on_c, 1, 58, 96
3, 24860, Note_off_c, 1, 58, 100
3, 24864, Note_on_c, 1, 62, 97
3, 24956, Note_off_c, 1, 62, 100
3, 24960, Note_on_c, 1, 65, 97
3, 25052, Note_off_c, 1, 65, 100
3, 25056, Note_on_c, 1, 68, 98
3, 25148, Note_off_c, 1, 68, 100
3, 25152, Note_on_c, 1, 65, 99
3, 25244, Note_off_c, 1, 65, 100
3, 25248, Note_on_c, 1, 62, 99
3, 25340, Note_off_c, 1, 62, 100
3, 25344, Note_on_c, 1, 60, 100
3, 25436, Note_off_c, 1, 60, 100
3, 25440, Note_on_c, 1, 59, 99
3, 25532, Note_off_c, 1, 59, 100
3, 25536, Note_on_c, 1, 60, 97
3, 25628, Note_off_c, 1, 60, 100
3, 25632, Note_on_c, 1, 62, 95
3, 25724, Note_off_c, 1, 62, 100
3, 25728, Note_on_c, 1, 63, 93
3, 25820, Note_off_c, 1, 63, 100
3, 25824, Note_on_c, 1, 60, 91
3, 25916, Note_off_c, 1, 60, 100
3, 25920, Note_on_c, 1, 44, 80
3, 26012, Note_off_c, 1, 44, 100
3, 26016, Note_on_c, 1, 48, 80
3, 26108, Note_off_c, 1, 48, 100
3, 26112, Note_on_c, 1, 53, 80
3, 26204, Note_off_c, 1, 53, 100
3, 26208, Note_on_c, 1, 56, 80
3, 26300, Note_off_c, 1, 56, 100
3, 26304, Note_on_c, 1, 60, 80
3, 26396, Note_off_c, 1, 60, 100
3, 26400, Note_on_c, 1, 56, 80
3, 26492, Note_off_c, 1, 56, 100
3, 26496, Note_on_c, 1, 46, 80
3, 26588, Note_off_c, 1, 46, 100
3, 26592, Note_on_c, 1, 51, 80
3, 26684, Note_off_c, 1, 51, 100
3, 26688, Note_on_c, 1, 55, 80
3, 26780, Note_off_c, 1, 55, 100
3, 26784, Note_on_c, 1, 58, 80
3, 26876, Note_off_c, 1, 58, 100
3, 26880, Note_on_c, 1, 55, 80
3, 26972, Note_off_c, 1, 55, 100
3, 26976, Note_on_c, 1, 51, 80
3, 27068, Note_off_c, 1, 51, 100
3, 27072, Note_on_c, 1, 46, 80
3, 27164, Note_off_c, 1, 46, 100
3, 27168, Note_on_c, 1, 50, 80
3, 27260, Note_off_c, 1, 50, 100
3, 27264, Note_on_c, 1, 53, 80
3, 27356, Note_off_c, 1, 53, 100
3, 27360, Note_on_c, 1, 56, 80
3, 27452, Note_off_c, 1, 56, 100
3, 27456, Note_on_c, 1, 53, 80
3, 27548, Note_off_c, 1, 53, 100
3, 27552, Note_on_c, 1, 56, 80
3, 27644, Note_off_c, 1, 56, 100
3, 27648, Note_on_c, 1, 43, 80
3, 27740, Note_off_c, 1, 43, 100
3, 27744, Note_on_c, 1, 46, 80
3, 27836, Note_off_c, 1, 46, 100
3, 27840, Note_on_c, 1, 51, 80
3, 27932, Note_off_c, 1, 51, 100
3, 27936, Note_on_c, 1, 46, 80
3, 28028, Note_off_c, 1, 46, 100
3, 28032, Note_on_c, 1, 43, 80
3, 28124, Note_off_c, 1, 43, 100
3, 28128, Note_on_c, 1, 39, 80
3, 28220, Note_off_c, 1, 39, 100
3, 28224, Note_on_c, 1, 44, 80
3, 28316, Note_off_c, 1, 44, 100
3, 28320, Note_on_c, 1, 48, 80
3, 28412, Note_off_c, 1, 48, 100
3, 28416, Note_on_c, 1, 51, 80
3, 28508, Note_off_c, 1, 51, 100
3, 28512, Note_on_c, 1, 48, 80
3, 28604, Note_off_c, 1, 48, 100
3, 28608, Note_on_c, 1, 44, 80
3, 28700, Note_off_c, 1, 44, 100
3, 28704, Note_on_c, 1, 39, 80
3, 28796, Note_off_c, 1, 39, 100
3, 28800, Note_on_c, 1, 44, 80
3, 28892, Note_off_c, 1, 44, 100
3, 28896, Note_on_c, 1, 48, 80
3, 28988, Note_off_c, 1, 48, 100
3, 28992, Note_on_c, 1, 51, 80
3, 29084, Note_off_c, 1, 51, 100
3, 29088, Note_on_c, 1, 48, 80
3, 29180, Note_off_c, 1, 48, 100
3, 29184, Note_on_c, 1, 44, 80
3, 29276, Note_off_c, 1, 44, 100
3, 29280, Note_on_c, 1, 39, 80
3, 29372, Note_off_c, 1, 39, 100
3, 29376, Note_on_c, 1, 43, 80
3, 29468, Note_off_c, 1, 43, 100
3, 29472, Note_on_c, 1, 46, 80
3, 29564, Note_off_c, 1, 46, 100
3, 29568, Note_on_c, 1, 51, 80
3, 29660, Note_off_c, 1, 51, 100
3, 29664, Note_on_c, 1, 46, 80
3, 29756, Note_off_c, 1, 46, 100
3, 29760, Note_on_c, 1, 43, 80
3, 29852, Note_off_c, 1, 43, 100
3, 29856, Note_on_c, 1, 39, 80
3, 29948, Note_off_c, 1, 39, 100
3, 29952, Note_on_c, 1, 43, 80
3, 30044, Note_off_c, 1, 43, 100
3, 30048, Note_on_c, 1, 46, 80
3, 30140, Note_off_c, 1, 46, 100
3, 30144, Note_on_c, 1, 51, 80
3, 30236, Note_off_c, 1, 51, 100
3, 30240, Note_on_c, 1, 46, 80
3, 30332, Note_off_c, 1, 46, 100
3, 30336, Note_on_c, 1, 43, 80
3, 30428, Note_off_c, 1, 43, 100
3, 30432, Note_on_c, 1, 39, 80
3, 30524, Note_off_c, 1, 39, 100
3, 30528, Note_on_c, 1, 41, 80
3, 30620, Note_off_c, 1, 41, 100
3, 30624, Note_on_c, 1, 44, 80
3, 30716, Note_off_c, 1, 44, 100
3, 30720, Note_on_c, 1, 50, 80
3, 30812, Note_off_c, 1, 50, 100
3, 30816, Note_on_c, 1, 44, 80
3, 30908, Note_off_c, 1, 44, 100
3, 30912, Note_on_c, 1, 41, 80
3, 31004, Note_off_c, 1, 41, 100
3, 31008, Note_on_c, 1, 39, 80
3, 31100, Note_off_c, 1, 39, 100
3, 31104, Note_on_c, 1, 43, 80
3, 31196, Note_off_c, 1, 43, 100
3, 31200, Note_on_c, 1, 46, 80
3, 31292, Note_off_c, 1, 46, 100
3, 31296, Note_on_c, 1, 51, 80
3, 31388, Note_off_c, 1, 51, 100
3, 31392, Note_on_c, 1, 46, 80
3, 31484, Note_off_c, 1, 46, 100
3, 31488, Note_on_c, 1, 43, 80
3, 31580, Note_off_c, 1, 43, 100
3, 31584, Note_on_c, 1, 39, 80
3, 31676, Note_off_c, 1, 39, 100
3, 31680, Note_on_c, 1, 44, 80
3, 31772, Note_off_c, 1, 44, 100
3, 31776, Note_on_c, 1, 48, 80
3, 31868, Note_off_c, 1, 48, 100
3, 31872, Note_on_c, 1, 51, 80
3, 31964, Note_off_c, 1, 51, 100
3, 31968, Note_on_c, 1, 48, 80
3, 32060, Note_off_c, 1, 48, 100
3, 32064, Note_on_c, 1, 44, 80
3, 32156, Note_off_c, 1, 44, 100
3, 32160, Note_on_c, 1, 39, 80
3, 32252, Note_off_c, 1, 39, 100
3, 32256, Note_on_c, 1, 44, 80
3, 32348, Note_off_c, 1, 44, 100
3, 32352, Note_on_c, 1, 48, 80
3, 32444, Note_off_c, 1, 48, 100
3, 32448, Note_on_c, 1, 51, 80
3, 32540, Note_off_c, 1, 51, 100
3, 32544, Note_on_c, 1, 48, 80
3, 32636, Note_off_c, 1, 48, 100
3, 32640, Note_on_c, 1, 44, 80
3, 32732, Note_off_c, 1, 44, 100
3, 32736, Note_on_c, 1, 39, 80
3, 32828, Note_off_c, 1, 39, 100
3, 32832, Note_on_c, 1, 43, 80
3, 32924, Note_off_c, 1, 43, 100
3, 32928, Note_on_c, 1, 46, 80
3, 33020, Note_off_c, 1, 46, 100
3, 33024, Note_on_c, 1, 51, 80
3, 33116, Note_off_c, 1, 51, 100
3, 33120, Note_on_c, 1, 46, 80
3, 33212, Note_off_c, 1, 46, 100
3, 33216, Note_on_c, 1, 43, 80
3, 33308, Note_off_c, 1, 43, 100
3, 33312, Note_on_c, 1, 39, 80
3, 33404, Note_off_c, 1, 39, 100
3, 33408, Note_on_c, 1, 43, 80
3, 33500, Note_off_c, 1, 43, 100
3, 33504, Note_on_c, 1, 46, 80
3, 33596, Note_off_c, 1, 46, 100
3, 33600, Note_on_c, 1, 51, 80
3, 33692, Note_off_c, 1, 51, 100
3, 33696, Note_on_c, 1, 46, 80
3, 33788, Note_off_c, 1, 46, 100
3, 33792, Note_on_c, 1, 43, 80
3, 33884, Note_off_c, 1, 43, 100
3, 33888, Note_on_c, 1, 39, 80
3, 33980, Note_off_c, 1, 39, 100
3, 33984, Note_on_c, 1, 43, 80
3, 34076, Note_off_c, 1, 43, 100
3, 34080, Note_on_c, 1, 46, 80
3, 34172, Note_off_c, 1, 46, 100
3, 34176, Note_on_c, 1, 51, 80
3, 34268, Note_off_c, 1, 51, 100
3, 34272, Note_on_c, 1, 39, 80
3, 34364, Note_off_c, 1, 39, 100
3, 34368, Note_on_c, 1, 51, 80
3, 34460, Note_off_c, 1, 51, 100
3, 34464, Note_on_c, 1, 39, 80
3, 34556, Note_off_c, 1, 39, 100
3, 34560, Key_signature, -2, "minor"
3, 34560, Note_on_c, 1, 38, 80
3, 34748, Note_off_c, 1, 38, 100
3, 34752, Note_on_c, 1, 50, 80
3, 34940, Note_off_c, 1, 50, 100
3, 34944, Note_on_c, 1, 50, 80
3, 35132, Note_off_c, 1, 50, 100
3, 35136, Note_on_c, 1, 50, 80
3, 35324, Note_off_c, 1, 50, 100
3, 35328, Note_on_c, 1, 62, 80
3, 35516, Note_off_c, 1, 62, 100
3, 35520, Note_on_c, 1, 62, 80
3, 35708, Note_off_c, 1, 62, 100
3, 36096, Note_on_c, 1, 50, 80
3, 36284, Note_off_c, 1, 50, 100
3, 36288, Note_on_c, 1, 43, 80
3, 36476, Note_off_c, 1, 43, 100
3, 36480, Note_on_c, 1, 50, 80
3, 36668, Note_off_c, 1, 50, 100
3, 36672, Note_on_c, 1, 50, 80
3, 36860, Note_off_c, 1, 50, 100
3, 36864, Note_on_c, 1, 43, 80
3, 37052, Note_off_c, 1, 43, 100
3, 37056, Note_on_c, 1, 50, 80
3, 37244, Note_off_c, 1, 50, 100
3, 37248, Note_on_c, 1, 50, 80
3, 37436, Note_off_c, 1, 50, 100
3, 37440, Note_on_c, 1, 43, 80
3, 37628, Note_off_c, 1, 43, 100
3, 37632, Note_on_c, 1, 50, 80
3, 37820, Note_off_c, 1, 50, 100
3, 37824, Note_on_c, 1, 50, 80
3, 38012, Note_off_c, 1, 50, 100
3, 38016, Note_on_c, 1, 43, 80
3, 38204, Note_off_c, 1, 43, 100
3, 38208, Note_on_c, 1, 50, 80
3, 38396, Note_off_c, 1, 50, 100
3, 38400, Note_on_c, 1, 50, 80
3, 38588, Note_off_c, 1, 50, 100
3, 38592, Note_on_c, 1, 43, 80
3, 38780, Note_off_c, 1, 43, 100
3, 38784, Note_on_c, 1, 50, 80
3, 38972, Note_off_c, 1, 50, 100
3, 38976, Note_on_c, 1, 50, 80
3, 39164, Note_off_c, 1, 50, 100
3, 39168, Note_on_c, 1, 38, 80
3, 39356, Note_off_c, 1, 38, 100
3, 39360, Note_on_c, 1, 50, 80
3, 39548, Note_off_c, 1, 50, 100
3, 39552, Note_on_c, 1, 50, 80
3, 39740, Note_off_c, 1, 50, 100
3, 39744, Note_on_c, 1, 43, 80
3, 39932, Note_off_c, 1, 43, 100
3, 39936, Note_on_c, 1, 50, 80
3, 40124, Note_off_c, 1, 50, 100
3, 40128, Note_on_c, 1, 50, 80
3, 40316, Note_off_c, 1, 50, 100
3, 40320, Note_on_c, 1, 43, 80
3, 40508, Note_off_c, 1, 43, 100
3, 40512, Note_on_c, 1, 50, 80
3, 40700, Note_off_c, 1, 50, 100
3, 40704, Note_on_c, 1, 50, 80
3, 40892, Note_off_c, 1, 50, 100
3, 40896, Note_on_c, 1, 43, 80
3, 41084, Note_off_c, 1, 43, 100
3, 41088, Note_on_c, 1, 50, 80
3, 41276, Note_off_c, 1, 50, 100
3, 41280, Note_on_c, 1, 50, 80
3, 41468, Note_off_c, 1, 50, 100
3, 41472, Note_on_c, 1, 41, 80
3, 41660, Note_off_c, 1, 41, 100
3, 41664, Note_on_c, 1, 53, 80
3, 41852, Note_off_c, 1, 53, 100
3, 41856, Note_on_c, 1, 53, 80
3, 42044, Note_off_c, 1, 53, 100
3, 42048, Note_on_c, 1, 41, 80
3, 42236, Note_off_c, 1, 41, 100
3, 42240, Note_on_c, 1, 53, 80
3, 42428, Note_off_c, 1, 53, 100
3, 42432, Note_on_c, 1, 53, 80
3, 42620, Note_off_c, 1, 53, 100
3, 42624, Note_on_c, 1, 46, 80
3, 42812, Note_off_c, 1, 46, 100
3, 42816, Note_on_c, 1, 53, 80
3, 43004, Note_off_c, 1, 53, 100
3, 43008, Note_on_c, 1, 53, 80
3, 43196, Note_off_c, 1, 53, 100
3, 43200, Note_on_c, 1, 46, 80
3, 43388, Note_off_c, 1, 46, 100
3, 43392, Note_on_c, 1, 53, 80
3, 43580, Note_off_c, 1, 53, 100
3, 43584, Note_on_c, 1, 53, 80
3, 43772, Note_off_c, 1, 53, 100
3, 43776, Note_on_c, 1, 41, 80
3, 43964, Note_off_c, 1, 41, 100
3, 43968, Note_on_c, 1, 53, 80
3, 44156, Note_off_c, 1, 53, 100
3, 44160, Note_on_c, 1, 53, 80
3, 44348, Note_off_c, 1, 53, 100
3, 44352, Note_on_c, 1, 36, 80
3, 44540, Note_off_c, 1, 36, 100
3, 44544, Note_on_c, 1, 48, 80
3, 44732, Note_off_c, 1, 48, 100
3, 44736, Note_on_c, 1, 48, 80
3, 44924, Note_off_c, 1, 48, 100
3, 44928, Note_on_c, 1, 36, 80
3, 45116, Note_off_c, 1, 36, 100
3, 45120, Note_on_c, 1, 48, 80
3, 45308, Note_off_c, 1, 48, 100
3, 45312, Note_on_c, 1, 48, 80
3, 45500, Note_off_c, 1, 48, 100
3, 45504, Note_on_c, 1, 38, 80
3, 45692, Note_off_c, 1, 38, 100
3, 45696, Note_on_c, 1, 50, 80
3, 45884, Note_off_c, 1, 50, 100
3, 45888, Note_on_c, 1, 38, 80
3, 46076, Note_off_c, 1, 38, 100
3, 46080, Note_on_c, 1, 43, 80
3, 46268, Note_off_c, 1, 43, 100
3, 46272, Note_on_c, 1, 43, 80
3, 46272, Note_on_c, 1, 55, 80
3, 46460, Note_off_c, 1, 43, 100
3, 46460, Note_off_c, 1, 55, 100
3, 46464, Note_on_c, 1, 41, 80
3, 46464, Note_on_c, 1, 53, 80
3, 46652, Note_off_c, 1, 41, 100
3, 46652, Note_off_c, 1, 53, 100
3, 46656, Note_on_c, 1, 46, 80
3, 46844, Note_off_c, 1, 46, 100
3, 46848, Note_on_c, 1, 53, 80
3, 47036, Note_off_c, 1, 53, 100
3, 47040, Note_on_c, 1, 53, 80
3, 47228, Note_off_c, 1, 53, 100
3, 47232, Note_on_c, 1, 41, 80
3, 47420, Note_off_c, 1, 41, 100
3, 47424, Note_on_c, 1, 53, 80
3, 47612, Note_off_c, 1, 53, 100
3, 47616, Note_on_c, 1, 53, 80
3, 47804, Note_off_c, 1, 53, 100
3, 47808, Note_on_c, 1, 36, 80
3, 47996, Note_off_c, 1, 36, 100
3, 48000, Note_on_c, 1, 48, 80
3, 48188, Note_off_c, 1, 48, 100
3, 48192, Note_on_c, 1, 48, 80
3, 48380, Note_off_c, 1, 48, 100
3, 48384, Note_on_c, 1, 36, 80
3, 48572, Note_off_c, 1, 36, 100
3, 48576, Note_on_c, 1, 48, 80
3, 48764, Note_off_c, 1, 48, 100
3, 48768, Note_on_c, 1, 48, 80
3, 48956, Note_off_c, 1, 48, 100
3, 48960, Note_on_c, 1, 38, 80
3, 49148, Note_off_c, 1, 38, 100
3, 49152, Note_on_c, 1, 50, 80
3, 49340, Note_off_c, 1, 50, 100
3, 49344, Note_on_c, 1, 50, 80
3, 49532, Note_off_c, 1, 50, 100
3, 49536, Note_on_c, 1, 43, 80
3, 49632, Note_on_c, 1, 46, 80
3, 49726, Note_off_c, 1, 43, 100
3, 49728, Note_on_c, 1, 50, 80
3, 49820, Note_off_c, 1, 46, 100
3, 49824, Note_on_c, 1, 43, 80
3, 49912, Note_off_c, 1, 50, 100
3, 49920, Note_on_c, 1, 46, 80
3, 50002, Note_off_c, 1, 43, 100
3, 50016, Note_on_c, 1, 50, 80
3, 50102, Note_off_c, 1, 46, 100
3, 50108, Note_off_c, 1, 50, 100
3, 50112, Note_on_c, 1, 55, 80
3, 50208, Note_on_c, 1, 58, 80
3, 50292, Note_off_c, 1, 55, 100
3, 50304, Note_on_c, 1, 62, 80
3, 50386, Note_off_c, 1, 58, 100
3, 50400, Note_on_c, 1, 58, 80
3, 50482, Note_off_c, 1, 62, 100
3, 50496, Note_on_c, 1, 55, 80
3, 50578, Note_off_c, 1, 58, 100
3, 50592, Note_on_c, 1, 50, 80
3, 50674, Note_off_c, 1, 55, 100
3, 50688, Note_on_c, 1, 55, 80
3, 50766, Note_off_c, 1, 50, 100
3, 50784, Note_on_c, 1, 58, 80
3, 50862, Note_off_c, 1, 55, 100
3, 50880, Note_on_c, 1, 62, 81
3, 50962, Note_off_c, 1, 58, 100
3, 50976, Note_on_c, 1, 58, 82
3, 51060, Note_off_c, 1, 62, 100
3, 51072, Note_on_c, 1, 55, 82
3, 51156, Note_off_c, 1, 58, 100
3, 51168, Note_on_c, 1, 50, 83
3, 51242, Note_off_c, 1, 55, 100
3, 51264, Note_on_c, 1, 55, 84
3, 51350, Note_off_c, 1, 50, 100
3, 51360, Note_on_c, 1, 58, 85
3, 51434, Note_off_c, 1, 55, 100
3, 51456, Note_on_c, 1, 62, 85
3, 51548, Note_off_c, 1, 58, 100
3, 51552, Note_on_c, 1, 58, 86
3, 51642, Note_off_c, 1, 62, 100
3, 51648, Note_on_c, 1, 55, 87
3, 51730, Note_off_c, 1, 58, 100
3, 51744, Note_on_c, 1, 50, 88
3, 51828, Note_off_c, 1, 55, 100
3, 51840, Note_on_c, 1, 55, 88
3, 51920, Note_off_c, 1, 50, 100
3, 51936, Note_on_c, 1, 58, 89
3, 52014, Note_off_c, 1, 55, 100
3, 52032, Note_on_c, 1, 62, 90
3, 52108, Note_off_c, 1, 58, 100
3, 52128, Note_on_c, 1, 58, 90
3, 52214, Note_off_c, 1, 62, 100
3, 52224, Note_on_c, 1, 55, 91
3, 52312, Note_off_c, 1, 58, 100
3, 52320, Note_on_c, 1, 50, 92
3, 52400, Note_off_c, 1, 55, 100
3, 52416, Note_on_c, 1, 55, 93
3, 52498, Note_off_c, 1, 50, 100
3, 52512, Note_on_c, 1, 58, 93
3, 52588, Note_off_c, 1, 55, 100
3, 52608, Note_on_c, 1, 62, 94
3, 52692, Note_off_c, 1, 58, 100
3, 52704, Note_on_c, 1, 58, 95
3, 52776, Note_off_c, 1, 62, 100
3, 52800, Note_on_c, 1, 55, 96
3, 52874, Note_off_c, 1, 58, 100
3, 52896, Note_on_c, 1, 50, 96
3, 52964, Note_off_c, 1, 55, 100
3, 52992, Note_on_c, 1, 54, 97
3, 53068, Note_off_c, 1, 50, 100
3, 53088, Note_on_c, 1, 57, 98
3, 53166, Note_off_c, 1, 54, 100
3, 53184, Note_on_c, 1, 62, 99
3, 53260, Note_off_c, 1, 57, 100
3, 53280, Note_on_c, 1, 57, 99
3, 53360, Note_off_c, 1, 62, 100
3, 53376, Note_on_c, 1, 54, 100
3, 53452, Note_off_c, 1, 57, 100
3, 53472, Note_on_c, 1, 50, 101
3, 53552, Note_off_c, 1, 54, 100
3, 53564, Note_off_c, 1, 50, 100
3, 53568, Note_on_c, 1, 54, 101
3, 53664, Note_on_c, 1, 57, 102
3, 53746, Note_off_c, 1, 54, 100
3, 53760, Note_on_c, 1, 60, 103
3, 53842, Note_off_c, 1, 57, 100
3, 53856, Note_on_c, 1, 57, 104
3, 53930, Note_off_c, 1, 60, 100
3, 53952, Note_on_c, 1, 54, 104
3, 54030, Note_off_c, 1, 57, 100
3, 54048, Note_on_c, 1, 50, 105
3, 54134, Note_off_c, 1, 54, 100
3, 54144, Note_on_c, 1, 54, 106
3, 54236, Note_off_c, 1, 50, 100
3, 54240, Note_on_c, 1, 57, 107
3, 54324, Note_off_c, 1, 54, 100
3, 54336, Note_on_c, 1, 60, 107
3, 54406, Note_off_c, 1, 57, 100
3, 54432, Note_on_c, 1, 57, 108
3, 54512, Note_off_c, 1, 60, 100
3, 54528, Note_on_c, 1, 54, 110
3, 54610, Note_off_c, 1, 57, 100
3, 54624, Note_on_c, 1, 50, 100
3, 54702, Note_off_c, 1, 54, 100
3, 54720, Note_on_c, 1, 51, 91
3, 54792, Note_off_c, 1, 50, 100
3, 54816, Note_on_c, 1, 55, 86
3, 54896, Note_off_c, 1, 51, 100
3, 54912, Note_on_c, 1, 58, 81
3, 54980, Note_off_c, 1, 55, 100
3, 55008, Note_on_c, 1, 55, 80
3, 55072, Note_off_c, 1, 58, 100
3, 55104, Note_on_c, 1, 51, 80
3, 55174, Note_off_c, 1, 55, 100
3, 55200, Note_on_c, 1, 50, 80
3, 55272, Note_off_c, 1, 51, 100
3, 55292, Note_off_c, 1, 50, 100
3, 55296, Note_on_c, 1, 57, 80
3, 55296, Note_on_c, 1, 48, 80
3, 55676, Note_off_c, 1, 57, 100
3, 55676, Note_off_c, 1, 48, 100
3, 55680, Note_on_c, 1, 60, 80
3, 55680, Note_on_c, 1, 48, 80
3, 55868, Note_off_c, 1, 60, 100
3, 55868, Note_off_c, 1, 48, 100
3, 56448, Note_on_c, 1, 57, 80
3, 56448, Note_on_c, 1, 50, 80
3, 56828, Note_off_c, 1, 57, 100
3, 56828, Note_off_c, 1, 50, 100
3, 56832, Note_on_c, 1, 50, 80
3, 56832, Note_on_c, 1, 60, 80
3, 57020, Note_off_c, 1, 50, 100
3, 57020, Note_off_c, 1, 60, 100
3, 57024, Note_on_c, 1, 57, 80
3, 57024, Note_on_c, 1, 50, 80
3, 57404, Note_off_c, 1, 57, 100
3, 57404, Note_off_c, 1, 50, 100
3, 57600, Note_on_c, 1, 55, 80
3, 57600, Note_on_c, 1, 43, 80
3, 58172, Note_off_c, 1, 55, 100
3, 58172, Note_off_c, 1, 43, 100
3, 58172, End_track
0, 0, End_of_file
