0, 0, Header, 1, 3, 384
1, 0, Start_track
1, 0, Title_t, "L.v.Beethoven 1mov - Piano Sonata No.25 in G Major Op.79\000"
1, 0, Copyright_t, "Copyright(C) 1995-2009, Suzuki Software\000"
1, 0, Sequencer_specific, 9, 67, 123, 0, 88, 70, 48, 50, 0, 1
1, 0, Text_t, "XFhd:2000/09/15:JP:Classical::::L.v.Beethoven:::Kaoru Suzuki\000"
1, 0, Text_t, "XFln:JP:\203s\203A\203m\203\\\203i\203^\221æ25\224Ô\203g\222·\222²\215ì\225i79\201`\221æ1\212y\217Í:L.v.\203x\201[\203g\201[\203\224\203F\203\223:::\227é\202¿\202á\202ñ:\227é\202¿\202á\202ñ\000"
1, 0, Time_signature, 3, 2, 96, 8
1, 0, Sequencer_specific, 3, 0, 0, 65
1, 0, Sequencer_specific, 5, 0, 0, 119, 14, 0
1, 0, Tempo, 222222
1, 35328, Tempo, 250000
1, 35520, Tempo, 300000
1, 35904, Tempo, 222222
1, 91392, Tempo, 230769
1, 91776, Tempo, 260869
1, 91968, Tempo, 300000
1, 92352, Tempo, 250000
1, 92544, Tempo, 222222
1, 174720, Tempo, 230769
1, 176256, Tempo, 250000
1, 177408, Tempo, 240000
1, 177792, Tempo, 230769
1, 178176, Tempo, 222222
1, 212736, Tempo, 240000
1, 213120, Tempo, 230769
1, 214272, Tempo, 222222
1, 217728, Tempo, 230769
1, 218496, Tempo, 240000
1, 218880, Tempo, 222222
1, 372480, Tempo, 230769
1, 372864, Tempo, 250000
1, 373440, Tempo, 230769
1, 373632, Tempo, 222222
1, 373632, End_track
2, 0, Start_track
2, 0, Title_t, "Right"
2, 0, Control_c, 0, 0, 0
2, 0, Program_c, 0, 0
2, 0, Control_c, 0, 7, 100
2, 0, Control_c, 0, 10, 69
2, 0, Control_c, 0, 91, 127
2, 0, Key_signature, 1, "major"
2, 0, Note_on_c, 0, 79, 100
2, 0, Note_on_c, 0, 67, 100
2, 380, Note_off_c, 0, 79, 100
2, 380, Note_off_c, 0, 67, 100
2, 384, Note_on_c, 0, 83, 100
2, 384, Note_on_c, 0, 71, 100
2, 764, Note_off_c, 0, 83, 100
2, 764, Note_off_c, 0, 71, 100
2, 768, Note_on_c, 0, 79, 100
2, 768, Note_on_c, 0, 67, 100
2, 1148, Note_off_c, 0, 79, 100
2, 1148, Note_off_c, 0, 67, 100
2, 1152, Note_on_c, 0, 86, 100
2, 1152, Note_on_c, 0, 74, 100
2, 1916, Note_off_c, 0, 86, 100
2, 1916, Note_off_c, 0, 74, 100
2, 1920, Note_on_c, 0, 84, 100
2, 2108, Note_off_c, 0, 84, 100
2, 2112, Note_on_c, 0, 83, 100
2, 2300, Note_off_c, 0, 83, 100
2, 2304, Note_on_c, 0, 81, 100
2, 2492, Note_off_c, 0, 81, 100
2, 2496, Note_on_c, 0, 79, 100
2, 2684, Note_off_c, 0, 79, 100
2, 2688, Note_on_c, 0, 78, 100
2, 2876, Note_off_c, 0, 78, 100
2, 2880, Note_on_c, 0, 79, 100
2, 3068, Note_off_c, 0, 79, 100
2, 3072, Note_on_c, 0, 83, 100
2, 3260, Note_off_c, 0, 83, 100
2, 3264, Note_on_c, 0, 79, 100
2, 3452, Note_off_c, 0, 79, 100
2, 3456, Note_on_c, 0, 78, 100
2, 3836, Note_off_c, 0, 78, 100
2, 3840, Note_on_c, 0, 76, 100
2, 4220, Note_off_c, 0, 76, 100
2, 4224, Note_on_c, 0, 74, 100
2, 4412, Note_off_c, 0, 74, 100
2, 4416, Note_on_c, 0, 72, 100
2, 4604, Note_off_c, 0, 72, 100
2, 4608, Note_on_c, 0, 71, 100
2, 4796, Note_off_c, 0, 71, 100
2, 4800, Note_on_c, 0, 69, 100
2, 4988, Note_off_c, 0, 69, 100
2, 4992, Note_on_c, 0, 68, 100
2, 5180, Note_off_c, 0, 68, 100
2, 5184, Note_on_c, 0, 69, 100
2, 5372, Note_off_c, 0, 69, 100
2, 5376, Note_on_c, 0, 72, 100
2, 5564, Note_off_c, 0, 72, 100
2, 5568, Note_on_c, 0, 69, 100
2, 5756, Note_off_c, 0, 69, 100
2, 5760, Note_on_c, 0, 66, 100
2, 6524, Note_off_c, 0, 66, 100
2, 6528, Note_on_c, 0, 69, 100
2, 6908, Note_off_c, 0, 69, 100
2, 6912, Note_on_c, 0, 72, 100
2, 7292, Note_off_c, 0, 72, 100
2, 7296, Note_on_c, 0, 69, 100
2, 7676, Note_off_c, 0, 69, 100
2, 7680, Note_on_c, 0, 66, 100
2, 8060, Note_off_c, 0, 66, 100
2, 8064, Note_on_c, 0, 67, 100
2, 8252, Note_off_c, 0, 67, 100
2, 8256, Note_on_c, 0, 62, 100
2, 8444, Note_off_c, 0, 62, 100
2, 8448, Note_on_c, 0, 61, 100
2, 8636, Note_off_c, 0, 61, 100
2, 8640, Note_on_c, 0, 62, 100
2, 8828, Note_off_c, 0, 62, 100
2, 8832, Note_on_c, 0, 66, 100
2, 9020, Note_off_c, 0, 66, 100
2, 9024, Note_on_c, 0, 67, 100
2, 9212, Note_off_c, 0, 67, 100
2, 9216, Note_on_c, 0, 69, 100
2, 9404, Note_off_c, 0, 69, 100
2, 9408, Note_on_c, 0, 62, 100
2, 9596, Note_off_c, 0, 62, 100
2, 9600, Note_on_c, 0, 61, 100
2, 9788, Note_off_c, 0, 61, 100
2, 9792, Note_on_c, 0, 62, 100
2, 9980, Note_off_c, 0, 62, 100
2, 9984, Note_on_c, 0, 67, 100
2, 10172, Note_off_c, 0, 67, 100
2, 10176, Note_on_c, 0, 69, 100
2, 10364, Note_off_c, 0, 69, 100
2, 10368, Note_on_c, 0, 71, 100
2, 10556, Note_off_c, 0, 71, 100
2, 10560, Note_on_c, 0, 67, 100
2, 10748, Note_off_c, 0, 67, 100
2, 10752, Note_on_c, 0, 66, 100
2, 10940, Note_off_c, 0, 66, 100
2, 10944, Note_on_c, 0, 67, 100
2, 11132, Note_off_c, 0, 67, 100
2, 11136, Note_on_c, 0, 72, 100
2, 11324, Note_off_c, 0, 72, 100
2, 11328, Note_on_c, 0, 74, 100
2, 11516, Note_off_c, 0, 74, 100
2, 11520, Note_on_c, 0, 76, 100
2, 11708, Note_off_c, 0, 76, 100
2, 11712, Note_on_c, 0, 74, 100
2, 11900, Note_off_c, 0, 74, 100
2, 11904, Note_on_c, 0, 72, 100
2, 12092, Note_off_c, 0, 72, 100
2, 12096, Note_on_c, 0, 71, 100
2, 12284, Note_off_c, 0, 71, 100
2, 12288, Note_on_c, 0, 69, 100
2, 12476, Note_off_c, 0, 69, 100
2, 12480, Note_on_c, 0, 67, 100
2, 12668, Note_off_c, 0, 67, 100
2, 12672, Note_on_c, 0, 66, 100
2, 13052, Note_off_c, 0, 66, 100
2, 13248, Note_on_c, 0, 62, 80
2, 13436, Note_off_c, 0, 62, 100
2, 13440, Note_on_c, 0, 66, 80
2, 13628, Note_off_c, 0, 66, 100
2, 13632, Note_on_c, 0, 69, 80
2, 13820, Note_off_c, 0, 69, 100
2, 13824, Note_on_c, 0, 74, 80
2, 14012, Note_off_c, 0, 74, 100
2, 14016, Note_on_c, 0, 66, 80
2, 14204, Note_off_c, 0, 66, 100
2, 14208, Note_on_c, 0, 69, 80
2, 14396, Note_off_c, 0, 69, 100
2, 14400, Note_on_c, 0, 74, 80
2, 14588, Note_off_c, 0, 74, 100
2, 14592, Note_on_c, 0, 78, 80
2, 14780, Note_off_c, 0, 78, 100
2, 14784, Note_on_c, 0, 69, 80
2, 14972, Note_off_c, 0, 69, 100
2, 14976, Note_on_c, 0, 74, 80
2, 15164, Note_off_c, 0, 74, 100
2, 15168, Note_on_c, 0, 78, 80
2, 15356, Note_off_c, 0, 78, 100
2, 15360, Note_on_c, 0, 81, 80
2, 15548, Note_off_c, 0, 81, 100
2, 15552, Note_on_c, 0, 74, 80
2, 15740, Note_off_c, 0, 74, 100
2, 15744, Note_on_c, 0, 78, 80
2, 15932, Note_off_c, 0, 78, 100
2, 15936, Note_on_c, 0, 81, 80
2, 16124, Note_off_c, 0, 81, 100
2, 16128, Note_on_c, 0, 86, 80
2, 16316, Note_off_c, 0, 86, 100
2, 16320, Note_on_c, 0, 78, 80
2, 16508, Note_off_c, 0, 78, 100
2, 16512, Note_on_c, 0, 81, 80
2, 16700, Note_off_c, 0, 81, 100
2, 16704, Note_on_c, 0, 86, 80
2, 16892, Note_off_c, 0, 86, 100
2, 16896, Note_on_c, 0, 90, 80
2, 17084, Note_off_c, 0, 90, 100
2, 17088, Note_on_c, 0, 88, 80
2, 17276, Note_off_c, 0, 88, 100
2, 17280, Note_on_c, 0, 86, 80
2, 17660, Note_off_c, 0, 86, 100
2, 17856, Note_on_c, 0, 62, 80
2, 18044, Note_off_c, 0, 62, 100
2, 18048, Note_on_c, 0, 66, 80
2, 18236, Note_off_c, 0, 66, 100
2, 18240, Note_on_c, 0, 71, 80
2, 18428, Note_off_c, 0, 71, 100
2, 18432, Note_on_c, 0, 74, 80
2, 18620, Note_off_c, 0, 74, 100
2, 18624, Note_on_c, 0, 66, 80
2, 18812, Note_off_c, 0, 66, 100
2, 18816, Note_on_c, 0, 71, 80
2, 19004, Note_off_c, 0, 71, 100
2, 19008, Note_on_c, 0, 74, 80
2, 19196, Note_off_c, 0, 74, 100
2, 19200, Note_on_c, 0, 78, 80
2, 19388, Note_off_c, 0, 78, 100
2, 19392, Note_on_c, 0, 71, 80
2, 19580, Note_off_c, 0, 71, 100
2, 19584, Note_on_c, 0, 74, 80
2, 19772, Note_off_c, 0, 74, 100
2, 19776, Note_on_c, 0, 78, 80
2, 19964, Note_off_c, 0, 78, 100
2, 19968, Note_on_c, 0, 83, 80
2, 20156, Note_off_c, 0, 83, 100
2, 20160, Note_on_c, 0, 74, 80
2, 20348, Note_off_c, 0, 74, 100
2, 20352, Note_on_c, 0, 78, 80
2, 20540, Note_off_c, 0, 78, 100
2, 20544, Note_on_c, 0, 83, 80
2, 20732, Note_off_c, 0, 83, 100
2, 20736, Note_on_c, 0, 86, 80
2, 20924, Note_off_c, 0, 86, 100
2, 20928, Note_on_c, 0, 78, 80
2, 21116, Note_off_c, 0, 78, 100
2, 21120, Note_on_c, 0, 83, 80
2, 21308, Note_off_c, 0, 83, 100
2, 21312, Note_on_c, 0, 86, 80
2, 21500, Note_off_c, 0, 86, 100
2, 21504, Note_on_c, 0, 90, 80
2, 21692, Note_off_c, 0, 90, 100
2, 21696, Note_on_c, 0, 88, 80
2, 21884, Note_off_c, 0, 88, 100
2, 21888, Note_on_c, 0, 86, 80
2, 22268, Note_off_c, 0, 86, 100
2, 22464, Note_on_c, 0, 62, 80
2, 22652, Note_off_c, 0, 62, 100
2, 22656, Note_on_c, 0, 64, 80
2, 22844, Note_off_c, 0, 64, 100
2, 22848, Note_on_c, 0, 68, 80
2, 23036, Note_off_c, 0, 68, 100
2, 23040, Note_on_c, 0, 71, 80
2, 23228, Note_off_c, 0, 71, 100
2, 23232, Note_on_c, 0, 64, 80
2, 23420, Note_off_c, 0, 64, 100
2, 23424, Note_on_c, 0, 68, 80
2, 23612, Note_off_c, 0, 68, 100
2, 23616, Note_on_c, 0, 71, 80
2, 23804, Note_off_c, 0, 71, 100
2, 23808, Note_on_c, 0, 74, 80
2, 23996, Note_off_c, 0, 74, 100
2, 24000, Note_on_c, 0, 68, 80
2, 24188, Note_off_c, 0, 68, 100
2, 24192, Note_on_c, 0, 71, 80
2, 24380, Note_off_c, 0, 71, 100
2, 24384, Note_on_c, 0, 74, 80
2, 24572, Note_off_c, 0, 74, 100
2, 24576, Note_on_c, 0, 80, 80
2, 24764, Note_off_c, 0, 80, 100
2, 24768, Note_on_c, 0, 71, 80
2, 24956, Note_off_c, 0, 71, 100
2, 24960, Note_on_c, 0, 74, 80
2, 25148, Note_off_c, 0, 74, 100
2, 25152, Note_on_c, 0, 80, 80
2, 25340, Note_off_c, 0, 80, 100
2, 25344, Note_on_c, 0, 83, 80
2, 25532, Note_off_c, 0, 83, 100
2, 25536, Note_on_c, 0, 80, 80
2, 25724, Note_off_c, 0, 80, 100
2, 25728, Note_on_c, 0, 76, 80
2, 25916, Note_off_c, 0, 76, 100
2, 25920, Note_on_c, 0, 78, 80
2, 26108, Note_off_c, 0, 78, 100
2, 26112, Note_on_c, 0, 76, 80
2, 26300, Note_off_c, 0, 76, 100
2, 26304, Note_on_c, 0, 78, 80
2, 26492, Note_off_c, 0, 78, 100
2, 26496, Note_on_c, 0, 76, 80
2, 26496, Note_on_c, 0, 73, 80
2, 27644, Note_off_c, 0, 76, 100
2, 27644, Note_off_c, 0, 73, 100
2, 27648, Note_on_c, 0, 76, 87
2, 27648, Note_on_c, 0, 74, 87
2, 28796, Note_off_c, 0, 76, 100
2, 28796, Note_off_c, 0, 74, 100
2, 28800, Note_on_c, 0, 79, 94
2, 28800, Note_on_c, 0, 76, 94
2, 29948, Note_off_c, 0, 79, 100
2, 29948, Note_off_c, 0, 76, 100
2, 29952, Note_on_c, 0, 78, 80
2, 29952, Note_on_c, 0, 74, 80
2, 30332, Note_off_c, 0, 78, 100
2, 30332, Note_off_c, 0, 74, 100
2, 30336, Note_on_c, 0, 78, 80
2, 30336, Note_on_c, 0, 74, 80
2, 30716, Note_off_c, 0, 78, 100
2, 30716, Note_off_c, 0, 74, 100
2, 30720, Note_on_c, 0, 78, 80
2, 30720, Note_on_c, 0, 74, 80
2, 31100, Note_off_c, 0, 78, 100
2, 31100, Note_off_c, 0, 74, 100
2, 31104, Note_on_c, 0, 76, 80
2, 31104, Note_on_c, 0, 73, 80
2, 32252, Note_off_c, 0, 76, 100
2, 32252, Note_off_c, 0, 73, 100
2, 32256, Note_on_c, 0, 76, 87
2, 32256, Note_on_c, 0, 74, 87
2, 33404, Note_off_c, 0, 76, 100
2, 33404, Note_off_c, 0, 74, 100
2, 33408, Note_on_c, 0, 79, 94
2, 33408, Note_on_c, 0, 76, 94
2, 34556, Note_off_c, 0, 79, 100
2, 34556, Note_off_c, 0, 76, 100
2, 34560, Note_on_c, 0, 78, 80
2, 34560, Note_on_c, 0, 74, 80
2, 34940, Note_off_c, 0, 78, 100
2, 34940, Note_off_c, 0, 74, 100
2, 34944, Note_on_c, 0, 78, 80
2, 34944, Note_on_c, 0, 74, 80
2, 35324, Note_off_c, 0, 78, 100
2, 35324, Note_off_c, 0, 74, 100
2, 35328, Note_on_c, 0, 78, 80
2, 35328, Note_on_c, 0, 74, 80
2, 35708, Note_off_c, 0, 78, 100
2, 35708, Note_off_c, 0, 74, 100
2, 35712, Note_on_c, 0, 76, 80
2, 35712, Note_on_c, 0, 73, 80
2, 35900, Note_off_c, 0, 76, 100
2, 35900, Note_off_c, 0, 73, 100
2, 35904, Note_on_c, 0, 74, 80
2, 36092, Note_off_c, 0, 74, 100
2, 36096, Note_on_c, 0, 76, 80
2, 36284, Note_off_c, 0, 76, 100
2, 36288, Note_on_c, 0, 78, 80
2, 36476, Note_off_c, 0, 78, 100
2, 36480, Note_on_c, 0, 80, 80
2, 36668, Note_off_c, 0, 80, 100
2, 36672, Note_on_c, 0, 81, 80
2, 36860, Note_off_c, 0, 81, 100
2, 36864, Note_on_c, 0, 80, 80
2, 37052, Note_off_c, 0, 80, 100
2, 37056, Note_on_c, 0, 78, 80
2, 37244, Note_off_c, 0, 78, 100
2, 37248, Note_on_c, 0, 76, 80
2, 37436, Note_off_c, 0, 76, 100
2, 37440, Note_on_c, 0, 74, 80
2, 37628, Note_off_c, 0, 74, 100
2, 37632, Note_on_c, 0, 73, 80
2, 37820, Note_off_c, 0, 73, 100
2, 37824, Note_on_c, 0, 71, 80
2, 38012, Note_off_c, 0, 71, 100
2, 38016, Note_on_c, 0, 74, 80
2, 38204, Note_off_c, 0, 74, 100
2, 38208, Note_on_c, 0, 76, 80
2, 38396, Note_off_c, 0, 76, 100
2, 38400, Note_on_c, 0, 78, 80
2, 38588, Note_off_c, 0, 78, 100
2, 38592, Note_on_c, 0, 80, 80
2, 38780, Note_off_c, 0, 80, 100
2, 38784, Note_on_c, 0, 81, 80
2, 38972, Note_off_c, 0, 81, 100
2, 38976, Note_on_c, 0, 83, 80
2, 39164, Note_off_c, 0, 83, 100
2, 39168, Note_on_c, 0, 81, 80
2, 39356, Note_off_c, 0, 81, 100
2, 39360, Note_on_c, 0, 79, 80
2, 39548, Note_off_c, 0, 79, 100
2, 39552, Note_on_c, 0, 78, 80
2, 39740, Note_off_c, 0, 78, 100
2, 39744, Note_on_c, 0, 76, 80
2, 39932, Note_off_c, 0, 76, 100
2, 39936, Note_on_c, 0, 74, 80
2, 40124, Note_off_c, 0, 74, 100
2, 40128, Note_on_c, 0, 73, 80
2, 40316, Note_off_c, 0, 73, 100
2, 40320, Note_on_c, 0, 76, 80
2, 40508, Note_off_c, 0, 76, 100
2, 40512, Note_on_c, 0, 79, 83
2, 40700, Note_off_c, 0, 79, 100
2, 40704, Note_on_c, 0, 85, 87
2, 40892, Note_off_c, 0, 85, 100
2, 40896, Note_on_c, 0, 79, 91
2, 41084, Note_off_c, 0, 79, 100
2, 41088, Note_on_c, 0, 88, 95
2, 41276, Note_off_c, 0, 88, 100
2, 41280, Note_on_c, 0, 85, 99
2, 41468, Note_off_c, 0, 85, 100
2, 41472, Note_on_c, 0, 88, 110
2, 41660, Note_off_c, 0, 88, 100
2, 41664, Note_on_c, 0, 85, 110
2, 41852, Note_off_c, 0, 85, 100
2, 41856, Note_on_c, 0, 88, 110
2, 42044, Note_off_c, 0, 88, 100
2, 42048, Note_on_c, 0, 85, 110
2, 42236, Note_off_c, 0, 85, 100
2, 42240, Note_on_c, 0, 88, 110
2, 42428, Note_off_c, 0, 88, 100
2, 42432, Note_on_c, 0, 85, 110
2, 42620, Note_off_c, 0, 85, 100
2, 42624, Note_on_c, 0, 88, 110
2, 42812, Note_off_c, 0, 88, 100
2, 42816, Note_on_c, 0, 85, 110
2, 43004, Note_off_c, 0, 85, 100
2, 43008, Note_on_c, 0, 81, 110
2, 43196, Note_off_c, 0, 81, 100
2, 43200, Note_on_c, 0, 83, 110
2, 43388, Note_off_c, 0, 83, 100
2, 43392, Note_on_c, 0, 85, 110
2, 43580, Note_off_c, 0, 85, 100
2, 43584, Note_on_c, 0, 81, 110
2, 43772, Note_off_c, 0, 81, 100
2, 43776, Note_on_c, 0, 86, 110
2, 43964, Note_off_c, 0, 86, 100
2, 43968, Note_on_c, 0, 81, 107
2, 44156, Note_off_c, 0, 81, 100
2, 44160, Note_on_c, 0, 86, 103
2, 44348, Note_off_c, 0, 86, 100
2, 44352, Note_on_c, 0, 81, 99
2, 44540, Note_off_c, 0, 81, 100
2, 44544, Note_on_c, 0, 78, 95
2, 44732, Note_off_c, 0, 78, 100
2, 44736, Note_on_c, 0, 74, 91
2, 44924, Note_off_c, 0, 74, 100
2, 44928, Note_on_c, 0, 76, 80
2, 45116, Note_off_c, 0, 76, 100
2, 45120, Note_on_c, 0, 79, 83
2, 45308, Note_off_c, 0, 79, 100
2, 45312, Note_on_c, 0, 85, 87
2, 45500, Note_off_c, 0, 85, 100
2, 45504, Note_on_c, 0, 79, 91
2, 45692, Note_off_c, 0, 79, 100
2, 45696, Note_on_c, 0, 88, 95
2, 45884, Note_off_c, 0, 88, 100
2, 45888, Note_on_c, 0, 85, 99
2, 46076, Note_off_c, 0, 85, 100
2, 46080, Note_on_c, 0, 88, 110
2, 46268, Note_off_c, 0, 88, 100
2, 46272, Note_on_c, 0, 85, 110
2, 46460, Note_off_c, 0, 85, 100
2, 46464, Note_on_c, 0, 88, 110
2, 46652, Note_off_c, 0, 88, 100
2, 46656, Note_on_c, 0, 85, 110
2, 46844, Note_off_c, 0, 85, 100
2, 46848, Note_on_c, 0, 88, 110
2, 47036, Note_off_c, 0, 88, 100
2, 47040, Note_on_c, 0, 85, 110
2, 47228, Note_off_c, 0, 85, 100
2, 47232, Note_on_c, 0, 88, 110
2, 47420, Note_off_c, 0, 88, 100
2, 47424, Note_on_c, 0, 85, 110
2, 47612, Note_off_c, 0, 85, 100
2, 47616, Note_on_c, 0, 81, 110
2, 47804, Note_off_c, 0, 81, 100
2, 47808, Note_on_c, 0, 83, 110
2, 47996, Note_off_c, 0, 83, 100
2, 48000, Note_on_c, 0, 85, 110
2, 48188, Note_off_c, 0, 85, 100
2, 48192, Note_on_c, 0, 81, 110
2, 48380, Note_off_c, 0, 81, 100
2, 48384, Note_on_c, 0, 86, 110
2, 48572, Note_off_c, 0, 86, 100
2, 48576, Note_on_c, 0, 81, 107
2, 48764, Note_off_c, 0, 81, 100
2, 48768, Note_on_c, 0, 86, 103
2, 48956, Note_off_c, 0, 86, 100
2, 48960, Note_on_c, 0, 81, 99
2, 49148, Note_off_c, 0, 81, 100
2, 49152, Note_on_c, 0, 78, 95
2, 49340, Note_off_c, 0, 78, 100
2, 49344, Note_on_c, 0, 74, 91
2, 49532, Note_off_c, 0, 74, 100
2, 49536, Note_on_c, 0, 83, 80
2, 49724, Note_off_c, 0, 83, 100
2, 49728, Note_on_c, 0, 79, 80
2, 49916, Note_off_c, 0, 79, 100
2, 49920, Note_on_c, 0, 83, 80
2, 50108, Note_off_c, 0, 83, 100
2, 50112, Note_on_c, 0, 79, 80
2, 50300, Note_off_c, 0, 79, 100
2, 50304, Note_on_c, 0, 74, 80
2, 50492, Note_off_c, 0, 74, 100
2, 50496, Note_on_c, 0, 71, 80
2, 50684, Note_off_c, 0, 71, 100
2, 50688, Note_on_c, 0, 69, 80
2, 51452, Note_off_c, 0, 69, 100
2, 51456, Note_on_c, 0, 78, 80
2, 51516, Note_off_c, 0, 78, 100
2, 51520, Note_on_c, 0, 76, 80
2, 51580, Note_off_c, 0, 76, 100
2, 51584, Note_on_c, 0, 78, 80
2, 51644, Note_off_c, 0, 78, 100
2, 51648, Note_on_c, 0, 76, 80
2, 51708, Note_off_c, 0, 76, 100
2, 51712, Note_on_c, 0, 74, 80
2, 51772, Note_off_c, 0, 74, 100
2, 51776, Note_on_c, 0, 76, 80
2, 51836, Note_off_c, 0, 76, 100
2, 51840, Note_on_c, 0, 74, 110
2, 52220, Note_off_c, 0, 74, 100
2, 52224, Note_on_c, 0, 81, 110
2, 52224, Note_on_c, 0, 69, 110
2, 52604, Note_off_c, 0, 81, 100
2, 52604, Note_off_c, 0, 69, 100
2, 52608, Note_on_c, 0, 74, 110
2, 52608, Note_on_c, 0, 62, 110
2, 52988, Note_off_c, 0, 74, 100
2, 52988, Note_off_c, 0, 62, 100
2, 53376, Note_on_c, 0, 79, 110
2, 53376, Note_on_c, 0, 67, 110
2, 53756, Note_off_c, 0, 79, 100
2, 53756, Note_off_c, 0, 67, 100
2, 53760, Note_on_c, 0, 73, 110
2, 53760, Note_on_c, 0, 61, 110
2, 54140, Note_off_c, 0, 73, 100
2, 54140, Note_off_c, 0, 61, 100
2, 54528, Note_on_c, 0, 74, 80
2, 54528, Note_on_c, 0, 62, 80
2, 54908, Note_off_c, 0, 74, 100
2, 54908, Note_off_c, 0, 62, 100
2, 54912, Note_on_c, 0, 71, 80
2, 54912, Note_on_c, 0, 59, 80
2, 55292, Note_off_c, 0, 71, 100
2, 55292, Note_off_c, 0, 59, 100
2, 55680, Note_on_c, 0, 72, 80
2, 55680, Note_on_c, 0, 60, 80
2, 56060, Note_off_c, 0, 72, 100
2, 56060, Note_off_c, 0, 60, 100
2, 56064, Note_on_c, 0, 69, 80
2, 56064, Note_on_c, 0, 57, 80
2, 56444, Note_off_c, 0, 69, 100
2, 56444, Note_off_c, 0, 57, 100
2, 56448, Note_on_c, 0, 79, 100
2, 56448, Note_on_c, 0, 67, 100
2, 56828, Note_off_c, 0, 79, 100
2, 56828, Note_off_c, 0, 67, 100
2, 56832, Note_on_c, 0, 83, 100
2, 56832, Note_on_c, 0, 71, 100
2, 57212, Note_off_c, 0, 83, 100
2, 57212, Note_off_c, 0, 71, 100
2, 57216, Note_on_c, 0, 79, 100
2, 57216, Note_on_c, 0, 67, 100
2, 57596, Note_off_c, 0, 79, 100
2, 57596, Note_off_c, 0, 67, 100
2, 57600, Note_on_c, 0, 86, 100
2, 57600, Note_on_c, 0, 74, 100
2, 58364, Note_off_c, 0, 86, 100
2, 58364, Note_off_c, 0, 74, 100
2, 58368, Note_on_c, 0, 84, 100
2, 58556, Note_off_c, 0, 84, 100
2, 58560, Note_on_c, 0, 83, 100
2, 58748, Note_off_c, 0, 83, 100
2, 58752, Note_on_c, 0, 81, 100
2, 58940, Note_off_c, 0, 81, 100
2, 58944, Note_on_c, 0, 79, 100
2, 59132, Note_off_c, 0, 79, 100
2, 59136, Note_on_c, 0, 78, 100
2, 59324, Note_off_c, 0, 78, 100
2, 59328, Note_on_c, 0, 79, 100
2, 59516, Note_off_c, 0, 79, 100
2, 59520, Note_on_c, 0, 83, 100
2, 59708, Note_off_c, 0, 83, 100
2, 59712, Note_on_c, 0, 79, 100
2, 59900, Note_off_c, 0, 79, 100
2, 59904, Note_on_c, 0, 78, 100
2, 60284, Note_off_c, 0, 78, 100
2, 60288, Note_on_c, 0, 76, 100
2, 60668, Note_off_c, 0, 76, 100
2, 60672, Note_on_c, 0, 74, 100
2, 60860, Note_off_c, 0, 74, 100
2, 60864, Note_on_c, 0, 72, 100
2, 61052, Note_off_c, 0, 72, 100
2, 61056, Note_on_c, 0, 71, 100
2, 61244, Note_off_c, 0, 71, 100
2, 61248, Note_on_c, 0, 69, 100
2, 61436, Note_off_c, 0, 69, 100
2, 61440, Note_on_c, 0, 68, 100
2, 61628, Note_off_c, 0, 68, 100
2, 61632, Note_on_c, 0, 69, 100
2, 61820, Note_off_c, 0, 69, 100
2, 61824, Note_on_c, 0, 72, 100
2, 62012, Note_off_c, 0, 72, 100
2, 62016, Note_on_c, 0, 69, 100
2, 62204, Note_off_c, 0, 69, 100
2, 62208, Note_on_c, 0, 66, 100
2, 62972, Note_off_c, 0, 66, 100
2, 62976, Note_on_c, 0, 69, 100
2, 63356, Note_off_c, 0, 69, 100
2, 63360, Note_on_c, 0, 72, 100
2, 63740, Note_off_c, 0, 72, 100
2, 63744, Note_on_c, 0, 69, 100
2, 64124, Note_off_c, 0, 69, 100
2, 64128, Note_on_c, 0, 66, 100
2, 64508, Note_off_c, 0, 66, 100
2, 64512, Note_on_c, 0, 67, 100
2, 64700, Note_off_c, 0, 67, 100
2, 64704, Note_on_c, 0, 62, 100
2, 64892, Note_off_c, 0, 62, 100
2, 64896, Note_on_c, 0, 61, 100
2, 65084, Note_off_c, 0, 61, 100
2, 65088, Note_on_c, 0, 62, 100
2, 65276, Note_off_c, 0, 62, 100
2, 65280, Note_on_c, 0, 66, 100
2, 65468, Note_off_c, 0, 66, 100
2, 65472, Note_on_c, 0, 67, 100
2, 65660, Note_off_c, 0, 67, 100
2, 65664, Note_on_c, 0, 69, 100
2, 65852, Note_off_c, 0, 69, 100
2, 65856, Note_on_c, 0, 62, 100
2, 66044, Note_off_c, 0, 62, 100
2, 66048, Note_on_c, 0, 61, 100
2, 66236, Note_off_c, 0, 61, 100
2, 66240, Note_on_c, 0, 62, 100
2, 66428, Note_off_c, 0, 62, 100
2, 66432, Note_on_c, 0, 67, 100
2, 66620, Note_off_c, 0, 67, 100
2, 66624, Note_on_c, 0, 69, 100
2, 66812, Note_off_c, 0, 69, 100
2, 66816, Note_on_c, 0, 71, 100
2, 67004, Note_off_c, 0, 71, 100
2, 67008, Note_on_c, 0, 67, 100
2, 67196, Note_off_c, 0, 67, 100
2, 67200, Note_on_c, 0, 66, 100
2, 67388, Note_off_c, 0, 66, 100
2, 67392, Note_on_c, 0, 67, 100
2, 67580, Note_off_c, 0, 67, 100
2, 67584, Note_on_c, 0, 72, 100
2, 67772, Note_off_c, 0, 72, 100
2, 67776, Note_on_c, 0, 74, 100
2, 67964, Note_off_c, 0, 74, 100
2, 67968, Note_on_c, 0, 76, 100
2, 68156, Note_off_c, 0, 76, 100
2, 68160, Note_on_c, 0, 74, 100
2, 68348, Note_off_c, 0, 74, 100
2, 68352, Note_on_c, 0, 72, 100
2, 68540, Note_off_c, 0, 72, 100
2, 68544, Note_on_c, 0, 71, 100
2, 68732, Note_off_c, 0, 71, 100
2, 68736, Note_on_c, 0, 69, 100
2, 68924, Note_off_c, 0, 69, 100
2, 68928, Note_on_c, 0, 67, 100
2, 69116, Note_off_c, 0, 67, 100
2, 69120, Note_on_c, 0, 66, 100
2, 69500, Note_off_c, 0, 66, 100
2, 69696, Note_on_c, 0, 62, 80
2, 69884, Note_off_c, 0, 62, 100
2, 69888, Note_on_c, 0, 66, 80
2, 70076, Note_off_c, 0, 66, 100
2, 70080, Note_on_c, 0, 69, 80
2, 70268, Note_off_c, 0, 69, 100
2, 70272, Note_on_c, 0, 74, 80
2, 70460, Note_off_c, 0, 74, 100
2, 70464, Note_on_c, 0, 66, 80
2, 70652, Note_off_c, 0, 66, 100
2, 70656, Note_on_c, 0, 69, 80
2, 70844, Note_off_c, 0, 69, 100
2, 70848, Note_on_c, 0, 74, 80
2, 71036, Note_off_c, 0, 74, 100
2, 71040, Note_on_c, 0, 78, 80
2, 71228, Note_off_c, 0, 78, 100
2, 71232, Note_on_c, 0, 69, 80
2, 71420, Note_off_c, 0, 69, 100
2, 71424, Note_on_c, 0, 74, 80
2, 71612, Note_off_c, 0, 74, 100
2, 71616, Note_on_c, 0, 78, 80
2, 71804, Note_off_c, 0, 78, 100
2, 71808, Note_on_c, 0, 81, 80
2, 71996, Note_off_c, 0, 81, 100
2, 72000, Note_on_c, 0, 74, 80
2, 72188, Note_off_c, 0, 74, 100
2, 72192, Note_on_c, 0, 78, 80
2, 72380, Note_off_c, 0, 78, 100
2, 72384, Note_on_c, 0, 81, 80
2, 72572, Note_off_c, 0, 81, 100
2, 72576, Note_on_c, 0, 86, 80
2, 72764, Note_off_c, 0, 86, 100
2, 72768, Note_on_c, 0, 78, 80
2, 72956, Note_off_c, 0, 78, 100
2, 72960, Note_on_c, 0, 81, 80
2, 73148, Note_off_c, 0, 81, 100
2, 73152, Note_on_c, 0, 86, 80
2, 73340, Note_off_c, 0, 86, 100
2, 73344, Note_on_c, 0, 90, 80
2, 73532, Note_off_c, 0, 90, 100
2, 73536, Note_on_c, 0, 88, 80
2, 73724, Note_off_c, 0, 88, 100
2, 73728, Note_on_c, 0, 86, 80
2, 74108, Note_off_c, 0, 86, 100
2, 74304, Note_on_c, 0, 62, 80
2, 74492, Note_off_c, 0, 62, 100
2, 74496, Note_on_c, 0, 66, 80
2, 74684, Note_off_c, 0, 66, 100
2, 74688, Note_on_c, 0, 71, 80
2, 74876, Note_off_c, 0, 71, 100
2, 74880, Note_on_c, 0, 74, 80
2, 75068, Note_off_c, 0, 74, 100
2, 75072, Note_on_c, 0, 66, 80
2, 75260, Note_off_c, 0, 66, 100
2, 75264, Note_on_c, 0, 71, 80
2, 75452, Note_off_c, 0, 71, 100
2, 75456, Note_on_c, 0, 74, 80
2, 75644, Note_off_c, 0, 74, 100
2, 75648, Note_on_c, 0, 78, 80
2, 75836, Note_off_c, 0, 78, 100
2, 75840, Note_on_c, 0, 71, 80
2, 76028, Note_off_c, 0, 71, 100
2, 76032, Note_on_c, 0, 74, 80
2, 76220, Note_off_c, 0, 74, 100
2, 76224, Note_on_c, 0, 78, 80
2, 76412, Note_off_c, 0, 78, 100
2, 76416, Note_on_c, 0, 83, 80
2, 76604, Note_off_c, 0, 83, 100
2, 76608, Note_on_c, 0, 74, 80
2, 76796, Note_off_c, 0, 74, 100
2, 76800, Note_on_c, 0, 78, 80
2, 76988, Note_off_c, 0, 78, 100
2, 76992, Note_on_c, 0, 83, 80
2, 77180, Note_off_c, 0, 83, 100
2, 77184, Note_on_c, 0, 86, 80
2, 77372, Note_off_c, 0, 86, 100
2, 77376, Note_on_c, 0, 78, 80
2, 77564, Note_off_c, 0, 78, 100
2, 77568, Note_on_c, 0, 83, 80
2, 77756, Note_off_c, 0, 83, 100
2, 77760, Note_on_c, 0, 86, 80
2, 77948, Note_off_c, 0, 86, 100
2, 77952, Note_on_c, 0, 90, 80
2, 78140, Note_off_c, 0, 90, 100
2, 78144, Note_on_c, 0, 88, 80
2, 78332, Note_off_c, 0, 88, 100
2, 78336, Note_on_c, 0, 86, 80
2, 78716, Note_off_c, 0, 86, 100
2, 78912, Note_on_c, 0, 62, 80
2, 79100, Note_off_c, 0, 62, 100
2, 79104, Note_on_c, 0, 64, 80
2, 79292, Note_off_c, 0, 64, 100
2, 79296, Note_on_c, 0, 68, 80
2, 79484, Note_off_c, 0, 68, 100
2, 79488, Note_on_c, 0, 71, 80
2, 79676, Note_off_c, 0, 71, 100
2, 79680, Note_on_c, 0, 64, 80
2, 79868, Note_off_c, 0, 64, 100
2, 79872, Note_on_c, 0, 68, 80
2, 80060, Note_off_c, 0, 68, 100
2, 80064, Note_on_c, 0, 71, 80
2, 80252, Note_off_c, 0, 71, 100
2, 80256, Note_on_c, 0, 74, 80
2, 80444, Note_off_c, 0, 74, 100
2, 80448, Note_on_c, 0, 68, 80
2, 80636, Note_off_c, 0, 68, 100
2, 80640, Note_on_c, 0, 71, 80
2, 80828, Note_off_c, 0, 71, 100
2, 80832, Note_on_c, 0, 74, 80
2, 81020, Note_off_c, 0, 74, 100
2, 81024, Note_on_c, 0, 80, 80
2, 81212, Note_off_c, 0, 80, 100
2, 81216, Note_on_c, 0, 71, 80
2, 81404, Note_off_c, 0, 71, 100
2, 81408, Note_on_c, 0, 74, 80
2, 81596, Note_off_c, 0, 74, 100
2, 81600, Note_on_c, 0, 80, 80
2, 81788, Note_off_c, 0, 80, 100
2, 81792, Note_on_c, 0, 83, 80
2, 81980, Note_off_c, 0, 83, 100
2, 81984, Note_on_c, 0, 80, 80
2, 82172, Note_off_c, 0, 80, 100
2, 82176, Note_on_c, 0, 76, 80
2, 82364, Note_off_c, 0, 76, 100
2, 82368, Note_on_c, 0, 78, 80
2, 82556, Note_off_c, 0, 78, 100
2, 82560, Note_on_c, 0, 76, 80
2, 82748, Note_off_c, 0, 76, 100
2, 82752, Note_on_c, 0, 78, 80
2, 82940, Note_off_c, 0, 78, 100
2, 82944, Note_on_c, 0, 76, 80
2, 82944, Note_on_c, 0, 73, 80
2, 84092, Note_off_c, 0, 76, 100
2, 84092, Note_off_c, 0, 73, 100
2, 84096, Note_on_c, 0, 76, 87
2, 84096, Note_on_c, 0, 74, 87
2, 85244, Note_off_c, 0, 76, 100
2, 85244, Note_off_c, 0, 74, 100
2, 85248, Note_on_c, 0, 79, 94
2, 85248, Note_on_c, 0, 76, 94
2, 86396, Note_off_c, 0, 79, 100
2, 86396, Note_off_c, 0, 76, 100
2, 86400, Note_on_c, 0, 78, 80
2, 86400, Note_on_c, 0, 74, 80
2, 86780, Note_off_c, 0, 78, 100
2, 86780, Note_off_c, 0, 74, 100
2, 86784, Note_on_c, 0, 78, 80
2, 86784, Note_on_c, 0, 74, 80
2, 87164, Note_off_c, 0, 78, 100
2, 87164, Note_off_c, 0, 74, 100
2, 87168, Note_on_c, 0, 78, 80
2, 87168, Note_on_c, 0, 74, 80
2, 87548, Note_off_c, 0, 78, 100
2, 87548, Note_off_c, 0, 74, 100
2, 87552, Note_on_c, 0, 76, 80
2, 87552, Note_on_c, 0, 73, 80
2, 88700, Note_off_c, 0, 76, 100
2, 88700, Note_off_c, 0, 73, 100
2, 88704, Note_on_c, 0, 76, 87
2, 88704, Note_on_c, 0, 74, 87
2, 89852, Note_off_c, 0, 76, 100
2, 89852, Note_off_c, 0, 74, 100
2, 89856, Note_on_c, 0, 79, 94
2, 89856, Note_on_c, 0, 76, 94
2, 91004, Note_off_c, 0, 79, 100
2, 91004, Note_off_c, 0, 76, 100
2, 91008, Note_on_c, 0, 78, 80
2, 91008, Note_on_c, 0, 74, 80
2, 91388, Note_off_c, 0, 78, 100
2, 91388, Note_off_c, 0, 74, 100
2, 91392, Note_on_c, 0, 78, 80
2, 91392, Note_on_c, 0, 74, 80
2, 91772, Note_off_c, 0, 78, 100
2, 91772, Note_off_c, 0, 74, 100
2, 91776, Note_on_c, 0, 78, 80
2, 91776, Note_on_c, 0, 74, 80
2, 92156, Note_off_c, 0, 78, 100
2, 92156, Note_off_c, 0, 74, 100
2, 92160, Note_on_c, 0, 76, 80
2, 92160, Note_on_c, 0, 73, 80
2, 92348, Note_off_c, 0, 76, 100
2, 92348, Note_off_c, 0, 73, 100
2, 92352, Note_on_c, 0, 74, 80
2, 92540, Note_off_c, 0, 74, 100
2, 92544, Note_on_c, 0, 76, 80
2, 92732, Note_off_c, 0, 76, 100
2, 92736, Note_on_c, 0, 78, 80
2, 92924, Note_off_c, 0, 78, 100
2, 92928, Note_on_c, 0, 80, 80
2, 93116, Note_off_c, 0, 80, 100
2, 93120, Note_on_c, 0, 81, 80
2, 93308, Note_off_c, 0, 81, 100
2, 93312, Note_on_c, 0, 80, 80
2, 93500, Note_off_c, 0, 80, 100
2, 93504, Note_on_c, 0, 78, 80
2, 93692, Note_off_c, 0, 78, 100
2, 93696, Note_on_c, 0, 76, 80
2, 93884, Note_off_c, 0, 76, 100
2, 93888, Note_on_c, 0, 74, 80
2, 94076, Note_off_c, 0, 74, 100
2, 94080, Note_on_c, 0, 73, 80
2, 94268, Note_off_c, 0, 73, 100
2, 94272, Note_on_c, 0, 71, 80
2, 94460, Note_off_c, 0, 71, 100
2, 94464, Note_on_c, 0, 74, 80
2, 94652, Note_off_c, 0, 74, 100
2, 94656, Note_on_c, 0, 76, 80
2, 94844, Note_off_c, 0, 76, 100
2, 94848, Note_on_c, 0, 78, 80
2, 95036, Note_off_c, 0, 78, 100
2, 95040, Note_on_c, 0, 80, 80
2, 95228, Note_off_c, 0, 80, 100
2, 95232, Note_on_c, 0, 81, 80
2, 95420, Note_off_c, 0, 81, 100
2, 95424, Note_on_c, 0, 83, 80
2, 95612, Note_off_c, 0, 83, 100
2, 95616, Note_on_c, 0, 81, 80
2, 95804, Note_off_c, 0, 81, 100
2, 95808, Note_on_c, 0, 79, 80
2, 95996, Note_off_c, 0, 79, 100
2, 96000, Note_on_c, 0, 78, 80
2, 96188, Note_off_c, 0, 78, 100
2, 96192, Note_on_c, 0, 76, 80
2, 96380, Note_off_c, 0, 76, 100
2, 96384, Note_on_c, 0, 74, 80
2, 96572, Note_off_c, 0, 74, 100
2, 96576, Note_on_c, 0, 73, 80
2, 96764, Note_off_c, 0, 73, 100
2, 96768, Note_on_c, 0, 76, 80
2, 96956, Note_off_c, 0, 76, 100
2, 96960, Note_on_c, 0, 79, 83
2, 97148, Note_off_c, 0, 79, 100
2, 97152, Note_on_c, 0, 85, 87
2, 97340, Note_off_c, 0, 85, 100
2, 97344, Note_on_c, 0, 79, 91
2, 97532, Note_off_c, 0, 79, 100
2, 97536, Note_on_c, 0, 88, 95
2, 97724, Note_off_c, 0, 88, 100
2, 97728, Note_on_c, 0, 85, 99
2, 97916, Note_off_c, 0, 85, 100
2, 97920, Note_on_c, 0, 88, 110
2, 98108, Note_off_c, 0, 88, 100
2, 98112, Note_on_c, 0, 85, 110
2, 98300, Note_off_c, 0, 85, 100
2, 98304, Note_on_c, 0, 88, 110
2, 98492, Note_off_c, 0, 88, 100
2, 98496, Note_on_c, 0, 85, 110
2, 98684, Note_off_c, 0, 85, 100
2, 98688, Note_on_c, 0, 88, 110
2, 98876, Note_off_c, 0, 88, 100
2, 98880, Note_on_c, 0, 85, 110
2, 99068, Note_off_c, 0, 85, 100
2, 99072, Note_on_c, 0, 88, 110
2, 99260, Note_off_c, 0, 88, 100
2, 99264, Note_on_c, 0, 85, 110
2, 99452, Note_off_c, 0, 85, 100
2, 99456, Note_on_c, 0, 81, 110
2, 99644, Note_off_c, 0, 81, 100
2, 99648, Note_on_c, 0, 83, 110
2, 99836, Note_off_c, 0, 83, 100
2, 99840, Note_on_c, 0, 85, 110
2, 100028, Note_off_c, 0, 85, 100
2, 100032, Note_on_c, 0, 81, 110
2, 100220, Note_off_c, 0, 81, 100
2, 100224, Note_on_c, 0, 86, 110
2, 100412, Note_off_c, 0, 86, 100
2, 100416, Note_on_c, 0, 81, 107
2, 100604, Note_off_c, 0, 81, 100
2, 100608, Note_on_c, 0, 86, 103
2, 100796, Note_off_c, 0, 86, 100
2, 100800, Note_on_c, 0, 81, 99
2, 100988, Note_off_c, 0, 81, 100
2, 100992, Note_on_c, 0, 78, 95
2, 101180, Note_off_c, 0, 78, 100
2, 101184, Note_on_c, 0, 74, 91
2, 101372, Note_off_c, 0, 74, 100
2, 101376, Note_on_c, 0, 76, 80
2, 101564, Note_off_c, 0, 76, 100
2, 101568, Note_on_c, 0, 79, 83
2, 101756, Note_off_c, 0, 79, 100
2, 101760, Note_on_c, 0, 85, 87
2, 101948, Note_off_c, 0, 85, 100
2, 101952, Note_on_c, 0, 79, 91
2, 102140, Note_off_c, 0, 79, 100
2, 102144, Note_on_c, 0, 88, 95
2, 102332, Note_off_c, 0, 88, 100
2, 102336, Note_on_c, 0, 85, 99
2, 102524, Note_off_c, 0, 85, 100
2, 102528, Note_on_c, 0, 88, 110
2, 102716, Note_off_c, 0, 88, 100
2, 102720, Note_on_c, 0, 85, 110
2, 102908, Note_off_c, 0, 85, 100
2, 102912, Note_on_c, 0, 88, 110
2, 103100, Note_off_c, 0, 88, 100
2, 103104, Note_on_c, 0, 85, 110
2, 103292, Note_off_c, 0, 85, 100
2, 103296, Note_on_c, 0, 88, 110
2, 103484, Note_off_c, 0, 88, 100
2, 103488, Note_on_c, 0, 85, 110
2, 103676, Note_off_c, 0, 85, 100
2, 103680, Note_on_c, 0, 88, 110
2, 103868, Note_off_c, 0, 88, 100
2, 103872, Note_on_c, 0, 85, 110
2, 104060, Note_off_c, 0, 85, 100
2, 104064, Note_on_c, 0, 81, 110
2, 104252, Note_off_c, 0, 81, 100
2, 104256, Note_on_c, 0, 83, 110
2, 104444, Note_off_c, 0, 83, 100
2, 104448, Note_on_c, 0, 85, 110
2, 104636, Note_off_c, 0, 85, 100
2, 104640, Note_on_c, 0, 81, 110
2, 104828, Note_off_c, 0, 81, 100
2, 104832, Note_on_c, 0, 86, 110
2, 105020, Note_off_c, 0, 86, 100
2, 105024, Note_on_c, 0, 81, 107
2, 105212, Note_off_c, 0, 81, 100
2, 105216, Note_on_c, 0, 86, 103
2, 105404, Note_off_c, 0, 86, 100
2, 105408, Note_on_c, 0, 81, 99
2, 105596, Note_off_c, 0, 81, 100
2, 105600, Note_on_c, 0, 78, 95
2, 105788, Note_off_c, 0, 78, 100
2, 105792, Note_on_c, 0, 74, 91
2, 105980, Note_off_c, 0, 74, 100
2, 105984, Note_on_c, 0, 83, 80
2, 106172, Note_off_c, 0, 83, 100
2, 106176, Note_on_c, 0, 79, 80
2, 106364, Note_off_c, 0, 79, 100
2, 106368, Note_on_c, 0, 83, 80
2, 106556, Note_off_c, 0, 83, 100
2, 106560, Note_on_c, 0, 79, 80
2, 106748, Note_off_c, 0, 79, 100
2, 106752, Note_on_c, 0, 74, 80
2, 106940, Note_off_c, 0, 74, 100
2, 106944, Note_on_c, 0, 71, 80
2, 107132, Note_off_c, 0, 71, 100
2, 107136, Note_on_c, 0, 69, 80
2, 107900, Note_off_c, 0, 69, 100
2, 107904, Note_on_c, 0, 78, 80
2, 107964, Note_off_c, 0, 78, 100
2, 107968, Note_on_c, 0, 76, 80
2, 108028, Note_off_c, 0, 76, 100
2, 108032, Note_on_c, 0, 78, 80
2, 108092, Note_off_c, 0, 78, 100
2, 108096, Note_on_c, 0, 76, 80
2, 108156, Note_off_c, 0, 76, 100
2, 108160, Note_on_c, 0, 74, 80
2, 108220, Note_off_c, 0, 74, 100
2, 108224, Note_on_c, 0, 76, 80
2, 108284, Note_off_c, 0, 76, 100
2, 108288, Note_on_c, 0, 74, 110
2, 108668, Note_off_c, 0, 74, 100
2, 108672, Note_on_c, 0, 81, 110
2, 108672, Note_on_c, 0, 69, 110
2, 109052, Note_off_c, 0, 81, 100
2, 109052, Note_off_c, 0, 69, 100
2, 109056, Note_on_c, 0, 74, 110
2, 109056, Note_on_c, 0, 62, 110
2, 109436, Note_off_c, 0, 74, 100
2, 109436, Note_off_c, 0, 62, 100
2, 109824, Note_on_c, 0, 79, 110
2, 109824, Note_on_c, 0, 67, 110
2, 110204, Note_off_c, 0, 79, 100
2, 110204, Note_off_c, 0, 67, 100
2, 110208, Note_on_c, 0, 73, 110
2, 110208, Note_on_c, 0, 61, 110
2, 110588, Note_off_c, 0, 73, 100
2, 110588, Note_off_c, 0, 61, 100
2, 110976, Note_on_c, 0, 74, 80
2, 110976, Note_on_c, 0, 62, 80
2, 111356, Note_off_c, 0, 74, 100
2, 111356, Note_off_c, 0, 62, 100
2, 111360, Note_on_c, 0, 71, 80
2, 111360, Note_on_c, 0, 59, 80
2, 111740, Note_off_c, 0, 71, 100
2, 111740, Note_off_c, 0, 59, 100
2, 112128, Note_on_c, 0, 72, 80
2, 112128, Note_on_c, 0, 60, 80
2, 112508, Note_off_c, 0, 72, 100
2, 112508, Note_off_c, 0, 60, 100
2, 112512, Note_on_c, 0, 69, 80
2, 112512, Note_on_c, 0, 57, 80
2, 112892, Note_off_c, 0, 69, 100
2, 112892, Note_off_c, 0, 57, 100
2, 113280, Note_on_c, 0, 83, 110
2, 113280, Note_on_c, 0, 71, 110
2, 113660, Note_off_c, 0, 83, 100
2, 113660, Note_off_c, 0, 71, 100
2, 113664, Note_on_c, 0, 80, 110
2, 113664, Note_on_c, 0, 68, 110
2, 114044, Note_off_c, 0, 80, 100
2, 114044, Note_off_c, 0, 68, 100
2, 114432, Note_on_c, 0, 81, 110
2, 114432, Note_on_c, 0, 69, 110
2, 114812, Note_off_c, 0, 81, 100
2, 114812, Note_off_c, 0, 69, 100
2, 114816, Note_on_c, 0, 78, 110
2, 114816, Note_on_c, 0, 66, 110
2, 115196, Note_off_c, 0, 78, 100
2, 115196, Note_off_c, 0, 66, 100
2, 115200, Note_on_c, 0, 76, 110
2, 115200, Note_on_c, 0, 64, 110
2, 115580, Note_off_c, 0, 76, 100
2, 115580, Note_off_c, 0, 64, 100
2, 115584, Note_on_c, 0, 80, 110
2, 115584, Note_on_c, 0, 68, 110
2, 115964, Note_off_c, 0, 80, 100
2, 115964, Note_off_c, 0, 68, 100
2, 115968, Note_on_c, 0, 76, 110
2, 115968, Note_on_c, 0, 64, 110
2, 116348, Note_off_c, 0, 76, 100
2, 116348, Note_off_c, 0, 64, 100
2, 116352, Note_on_c, 0, 83, 110
2, 116352, Note_on_c, 0, 71, 110
2, 117116, Note_off_c, 0, 83, 100
2, 117116, Note_off_c, 0, 71, 100
2, 117120, Note_on_c, 0, 81, 110
2, 117308, Note_off_c, 0, 81, 100
2, 117312, Note_on_c, 0, 80, 110
2, 117500, Note_off_c, 0, 80, 100
2, 117504, Note_on_c, 0, 78, 110
2, 117692, Note_off_c, 0, 78, 100
2, 117696, Note_on_c, 0, 76, 110
2, 117884, Note_off_c, 0, 76, 100
2, 117888, Note_on_c, 0, 75, 110
2, 118076, Note_off_c, 0, 75, 100
2, 118080, Note_on_c, 0, 76, 110
2, 118268, Note_off_c, 0, 76, 100
2, 118272, Note_on_c, 0, 80, 110
2, 118460, Note_off_c, 0, 80, 100
2, 118464, Note_on_c, 0, 76, 110
2, 118652, Note_off_c, 0, 76, 100
2, 118656, Note_on_c, 0, 75, 110
2, 119036, Note_off_c, 0, 75, 100
2, 119040, Note_on_c, 0, 73, 110
2, 119420, Note_off_c, 0, 73, 100
2, 119424, Note_on_c, 0, 71, 110
2, 119612, Note_off_c, 0, 71, 100
2, 119616, Note_on_c, 0, 69, 110
2, 119804, Note_off_c, 0, 69, 100
2, 119808, Note_on_c, 0, 68, 110
2, 119996, Note_off_c, 0, 68, 100
2, 120000, Note_on_c, 0, 66, 110
2, 120188, Note_off_c, 0, 66, 100
2, 120192, Note_on_c, 0, 65, 110
2, 120380, Note_off_c, 0, 65, 100
2, 120384, Note_on_c, 0, 66, 110
2, 120572, Note_off_c, 0, 66, 100
2, 120576, Note_on_c, 0, 69, 110
2, 120764, Note_off_c, 0, 69, 100
2, 120768, Note_on_c, 0, 66, 110
2, 120956, Note_off_c, 0, 66, 100
2, 120960, Note_on_c, 0, 63, 110
2, 121724, Note_off_c, 0, 63, 100
2, 121728, Note_on_c, 0, 66, 110
2, 122108, Note_off_c, 0, 66, 100
2, 122112, Note_on_c, 0, 69, 110
2, 122492, Note_off_c, 0, 69, 100
2, 122496, Note_on_c, 0, 66, 110
2, 122876, Note_off_c, 0, 66, 100
2, 122880, Note_on_c, 0, 63, 110
2, 123260, Note_off_c, 0, 63, 100
2, 123264, Note_on_c, 0, 64, 110
2, 123452, Note_off_c, 0, 64, 100
2, 123456, Note_on_c, 0, 59, 110
2, 123644, Note_off_c, 0, 59, 100
2, 123648, Note_on_c, 0, 68, 110
2, 123836, Note_off_c, 0, 68, 100
2, 123840, Note_on_c, 0, 59, 110
2, 124028, Note_off_c, 0, 59, 100
2, 124032, Note_on_c, 0, 64, 110
2, 124220, Note_off_c, 0, 64, 100
2, 124224, Note_on_c, 0, 59, 110
2, 124412, Note_off_c, 0, 59, 100
2, 124416, Note_on_c, 0, 64, 110
2, 124604, Note_off_c, 0, 64, 100
2, 124608, Note_on_c, 0, 59, 110
2, 124796, Note_off_c, 0, 59, 100
2, 124800, Note_on_c, 0, 68, 110
2, 124988, Note_off_c, 0, 68, 100
2, 124992, Note_on_c, 0, 59, 110
2, 125180, Note_off_c, 0, 59, 100
2, 125184, Note_on_c, 0, 64, 110
2, 125372, Note_off_c, 0, 64, 100
2, 125376, Note_on_c, 0, 59, 110
2, 125564, Note_off_c, 0, 59, 100
2, 125568, Note_on_c, 0, 64, 110
2, 125756, Note_off_c, 0, 64, 100
2, 125760, Note_on_c, 0, 59, 110
2, 125948, Note_off_c, 0, 59, 100
2, 125952, Note_on_c, 0, 68, 110
2, 126140, Note_off_c, 0, 68, 100
2, 126144, Note_on_c, 0, 59, 110
2, 126332, Note_off_c, 0, 59, 100
2, 126336, Note_on_c, 0, 64, 110
2, 126524, Note_off_c, 0, 64, 100
2, 126528, Note_on_c, 0, 59, 110
2, 126716, Note_off_c, 0, 59, 100
2, 126720, Note_on_c, 0, 63, 110
2, 126908, Note_off_c, 0, 63, 100
2, 126912, Note_on_c, 0, 59, 110
2, 127100, Note_off_c, 0, 59, 100
2, 127104, Note_on_c, 0, 66, 110
2, 127292, Note_off_c, 0, 66, 100
2, 127296, Note_on_c, 0, 59, 110
2, 127484, Note_off_c, 0, 59, 100
2, 127488, Note_on_c, 0, 63, 110
2, 127676, Note_off_c, 0, 63, 100
2, 127680, Note_on_c, 0, 59, 110
2, 127868, Note_off_c, 0, 59, 100
2, 127872, Note_on_c, 0, 63, 110
2, 128060, Note_off_c, 0, 63, 100
2, 128064, Note_on_c, 0, 59, 110
2, 128252, Note_off_c, 0, 59, 100
2, 128256, Note_on_c, 0, 66, 110
2, 128444, Note_off_c, 0, 66, 100
2, 128448, Note_on_c, 0, 59, 110
2, 128636, Note_off_c, 0, 59, 100
2, 128640, Note_on_c, 0, 63, 110
2, 128828, Note_off_c, 0, 63, 100
2, 128832, Note_on_c, 0, 59, 110
2, 129020, Note_off_c, 0, 59, 100
2, 129024, Note_on_c, 0, 63, 110
2, 129212, Note_off_c, 0, 63, 100
2, 129216, Note_on_c, 0, 59, 110
2, 129404, Note_off_c, 0, 59, 100
2, 129408, Note_on_c, 0, 66, 110
2, 129596, Note_off_c, 0, 66, 100
2, 129600, Note_on_c, 0, 59, 110
2, 129788, Note_off_c, 0, 59, 100
2, 129792, Note_on_c, 0, 63, 110
2, 129980, Note_off_c, 0, 63, 100
2, 129984, Note_on_c, 0, 59, 110
2, 130172, Note_off_c, 0, 59, 100
2, 130176, Note_on_c, 0, 63, 110
2, 130364, Note_off_c, 0, 63, 100
2, 130368, Note_on_c, 0, 59, 110
2, 130556, Note_off_c, 0, 59, 100
2, 130560, Note_on_c, 0, 66, 110
2, 130748, Note_off_c, 0, 66, 100
2, 130752, Note_on_c, 0, 59, 110
2, 130940, Note_off_c, 0, 59, 100
2, 130944, Note_on_c, 0, 63, 110
2, 131132, Note_off_c, 0, 63, 100
2, 131136, Note_on_c, 0, 59, 110
2, 131324, Note_off_c, 0, 59, 100
2, 131328, Note_on_c, 0, 64, 80
2, 131516, Note_off_c, 0, 64, 100
2, 131520, Note_on_c, 0, 59, 80
2, 131708, Note_off_c, 0, 59, 100
2, 131712, Note_on_c, 0, 64, 80
2, 131900, Note_off_c, 0, 64, 100
2, 131904, Note_on_c, 0, 59, 80
2, 132092, Note_off_c, 0, 59, 100
2, 132096, Note_on_c, 0, 64, 80
2, 132284, Note_off_c, 0, 64, 100
2, 132288, Note_on_c, 0, 59, 80
2, 132476, Note_off_c, 0, 59, 100
2, 132480, Note_on_c, 0, 60, 80
2, 132672, Note_on_c, 0, 55, 80
2, 132852, Note_off_c, 0, 60, 100
2, 132864, Note_on_c, 0, 64, 80
2, 133052, Note_off_c, 0, 55, 100
2, 133056, Note_on_c, 0, 55, 80
2, 133236, Note_off_c, 0, 64, 100
2, 133248, Note_on_c, 0, 60, 80
2, 133436, Note_off_c, 0, 55, 100
2, 133440, Note_on_c, 0, 55, 80
2, 133624, Note_off_c, 0, 60, 64
2, 133632, Note_on_c, 0, 60, 80
2, 133820, Note_off_c, 0, 55, 64
2, 133824, Note_on_c, 0, 55, 80
2, 133996, Note_off_c, 0, 60, 100
2, 134016, Note_on_c, 0, 64, 80
2, 134192, Note_off_c, 0, 55, 100
2, 134208, Note_on_c, 0, 55, 80
2, 134396, Note_off_c, 0, 64, 100
2, 134400, Note_on_c, 0, 60, 80
2, 134580, Note_off_c, 0, 55, 100
2, 134592, Note_on_c, 0, 55, 80
2, 134780, Note_off_c, 0, 60, 64
2, 134784, Note_on_c, 0, 60, 80
2, 134960, Note_off_c, 0, 55, 64
2, 134976, Note_on_c, 0, 55, 80
2, 135160, Note_off_c, 0, 60, 100
2, 135168, Note_on_c, 0, 64, 80
2, 135348, Note_off_c, 0, 55, 100
2, 135360, Note_on_c, 0, 55, 80
2, 135536, Note_off_c, 0, 64, 100
2, 135552, Note_on_c, 0, 60, 80
2, 135740, Note_off_c, 0, 55, 100
2, 135744, Note_on_c, 0, 55, 80
2, 135932, Note_off_c, 0, 60, 100
2, 135936, Note_on_c, 0, 59, 80
2, 136120, Note_off_c, 0, 55, 100
2, 136128, Note_on_c, 0, 55, 80
2, 136304, Note_off_c, 0, 59, 100
2, 136320, Note_on_c, 0, 62, 80
2, 136508, Note_off_c, 0, 55, 100
2, 136512, Note_on_c, 0, 55, 80
2, 136700, Note_off_c, 0, 62, 100
2, 136704, Note_on_c, 0, 59, 80
2, 136892, Note_off_c, 0, 55, 100
2, 136896, Note_on_c, 0, 55, 80
2, 137076, Note_off_c, 0, 59, 64
2, 137088, Note_on_c, 0, 59, 80
2, 137276, Note_off_c, 0, 55, 64
2, 137280, Note_on_c, 0, 55, 80
2, 137464, Note_off_c, 0, 59, 100
2, 137472, Note_on_c, 0, 62, 80
2, 137648, Note_off_c, 0, 55, 100
2, 137664, Note_on_c, 0, 55, 80
2, 137848, Note_off_c, 0, 62, 100
2, 137856, Note_on_c, 0, 59, 80
2, 138044, Note_off_c, 0, 55, 100
2, 138048, Note_on_c, 0, 55, 80
2, 138228, Note_off_c, 0, 59, 64
2, 138240, Note_on_c, 0, 59, 80
2, 138416, Note_off_c, 0, 55, 64
2, 138432, Note_on_c, 0, 55, 80
2, 138616, Note_off_c, 0, 59, 100
2, 138624, Note_on_c, 0, 62, 80
2, 138812, Note_off_c, 0, 55, 100
2, 138816, Note_on_c, 0, 55, 80
2, 138992, Note_off_c, 0, 62, 100
2, 139008, Note_on_c, 0, 59, 80
2, 139192, Note_off_c, 0, 55, 100
2, 139200, Note_on_c, 0, 55, 80
2, 139388, Note_off_c, 0, 59, 64
2, 139392, Note_on_c, 0, 59, 80
2, 139580, Note_off_c, 0, 55, 64
2, 139584, Note_on_c, 0, 55, 80
2, 139768, Note_off_c, 0, 59, 100
2, 139776, Note_on_c, 0, 62, 80
2, 139964, Note_off_c, 0, 55, 100
2, 139968, Note_on_c, 0, 55, 80
2, 140136, Note_off_c, 0, 62, 100
2, 140160, Note_on_c, 0, 59, 80
2, 140344, Note_off_c, 0, 55, 100
2, 140352, Note_on_c, 0, 55, 80
2, 140524, Note_off_c, 0, 59, 100
2, 140544, Note_on_c, 0, 60, 80
2, 140712, Note_off_c, 0, 55, 100
2, 140736, Note_on_c, 0, 55, 80
2, 140908, Note_off_c, 0, 60, 100
2, 140928, Note_on_c, 0, 60, 80
2, 141112, Note_off_c, 0, 55, 100
2, 141120, Note_on_c, 0, 55, 80
2, 141304, Note_off_c, 0, 60, 100
2, 141312, Note_on_c, 0, 60, 80
2, 141492, Note_off_c, 0, 55, 100
2, 141504, Note_on_c, 0, 55, 80
2, 141692, Note_off_c, 0, 60, 100
2, 141692, Note_off_c, 0, 55, 100
2, 141696, Note_on_c, 0, 60, 110
2, 141884, Note_off_c, 0, 60, 100
2, 141888, Note_on_c, 0, 55, 110
2, 142076, Note_off_c, 0, 55, 100
2, 142080, Note_on_c, 0, 54, 110
2, 142268, Note_off_c, 0, 54, 100
2, 142272, Note_on_c, 0, 55, 110
2, 142460, Note_off_c, 0, 55, 100
2, 142464, Note_on_c, 0, 59, 110
2, 142652, Note_off_c, 0, 59, 100
2, 142656, Note_on_c, 0, 60, 110
2, 142844, Note_off_c, 0, 60, 100
2, 142848, Note_on_c, 0, 62, 110
2, 143036, Note_off_c, 0, 62, 100
2, 143040, Note_on_c, 0, 55, 110
2, 143228, Note_off_c, 0, 55, 100
2, 143232, Note_on_c, 0, 54, 110
2, 143420, Note_off_c, 0, 54, 100
2, 143424, Note_on_c, 0, 55, 110
2, 143612, Note_off_c, 0, 55, 100
2, 143616, Note_on_c, 0, 60, 110
2, 143804, Note_off_c, 0, 60, 100
2, 143808, Note_on_c, 0, 62, 110
2, 143996, Note_off_c, 0, 62, 100
2, 144000, Note_on_c, 0, 64, 110
2, 144188, Note_off_c, 0, 64, 100
2, 144192, Note_on_c, 0, 60, 110
2, 144380, Note_off_c, 0, 60, 100
2, 144384, Note_on_c, 0, 59, 110
2, 144572, Note_off_c, 0, 59, 100
2, 144576, Note_on_c, 0, 60, 110
2, 144764, Note_off_c, 0, 60, 100
2, 144768, Note_on_c, 0, 65, 110
2, 144956, Note_off_c, 0, 65, 100
2, 144960, Note_on_c, 0, 67, 110
2, 145148, Note_off_c, 0, 67, 100
2, 145152, Note_on_c, 0, 69, 110
2, 145340, Note_off_c, 0, 69, 100
2, 145344, Note_on_c, 0, 67, 110
2, 145532, Note_off_c, 0, 67, 100
2, 145536, Note_on_c, 0, 65, 110
2, 145724, Note_off_c, 0, 65, 100
2, 145728, Note_on_c, 0, 64, 110
2, 145916, Note_off_c, 0, 64, 100
2, 145920, Note_on_c, 0, 62, 110
2, 146108, Note_off_c, 0, 62, 100
2, 146112, Note_on_c, 0, 60, 110
2, 146300, Note_off_c, 0, 60, 100
2, 146304, Note_on_c, 0, 59, 110
2, 146684, Note_off_c, 0, 59, 100
2, 147072, Note_on_c, 0, 77, 80
2, 147260, Note_off_c, 0, 77, 100
2, 147264, Note_on_c, 0, 79, 80
2, 147452, Note_off_c, 0, 79, 100
2, 147456, Note_on_c, 0, 81, 80
2, 147644, Note_off_c, 0, 81, 100
2, 147648, Note_on_c, 0, 79, 80
2, 147836, Note_off_c, 0, 79, 100
2, 147840, Note_on_c, 0, 77, 80
2, 148028, Note_off_c, 0, 77, 100
2, 148032, Note_on_c, 0, 76, 80
2, 148220, Note_off_c, 0, 76, 100
2, 148224, Note_on_c, 0, 74, 80
2, 148412, Note_off_c, 0, 74, 100
2, 148416, Note_on_c, 0, 72, 80
2, 148604, Note_off_c, 0, 72, 100
2, 148608, Note_on_c, 0, 71, 80
2, 148988, Note_off_c, 0, 71, 100
2, 149376, Note_on_c, 0, 65, 80
2, 149564, Note_off_c, 0, 65, 100
2, 149568, Note_on_c, 0, 67, 84
2, 149756, Note_off_c, 0, 67, 100
2, 149760, Note_on_c, 0, 68, 88
2, 149948, Note_off_c, 0, 68, 100
2, 149952, Note_on_c, 0, 67, 92
2, 150140, Note_off_c, 0, 67, 100
2, 150144, Note_on_c, 0, 65, 97
2, 150332, Note_off_c, 0, 65, 100
2, 150336, Note_on_c, 0, 63, 101
2, 150524, Note_off_c, 0, 63, 100
2, 150528, Note_on_c, 0, 62, 105
2, 150716, Note_off_c, 0, 62, 100
2, 150720, Note_on_c, 0, 67, 109
2, 150908, Note_off_c, 0, 67, 100
2, 150912, Note_on_c, 0, 60, 110
2, 151104, Note_on_c, 0, 55, 110
2, 151292, Note_off_c, 0, 60, 100
2, 151296, Note_on_c, 0, 63, 110
2, 151484, Note_off_c, 0, 55, 100
2, 151488, Note_on_c, 0, 55, 110
2, 151676, Note_off_c, 0, 63, 100
2, 151680, Note_on_c, 0, 60, 110
2, 151868, Note_off_c, 0, 55, 100
2, 151872, Note_on_c, 0, 55, 110
2, 152060, Note_off_c, 0, 60, 64
2, 152064, Note_on_c, 0, 60, 110
2, 152252, Note_off_c, 0, 55, 64
2, 152256, Note_on_c, 0, 55, 110
2, 152444, Note_off_c, 0, 60, 100
2, 152448, Note_on_c, 0, 63, 110
2, 152636, Note_off_c, 0, 55, 100
2, 152640, Note_on_c, 0, 55, 110
2, 152828, Note_off_c, 0, 63, 100
2, 152832, Note_on_c, 0, 60, 110
2, 153020, Note_off_c, 0, 55, 100
2, 153024, Note_on_c, 0, 55, 110
2, 153212, Note_off_c, 0, 60, 64
2, 153216, Note_on_c, 0, 60, 110
2, 153404, Note_off_c, 0, 55, 64
2, 153404, Note_off_c, 0, 60, 100
2, 153408, Note_on_c, 0, 55, 110
2, 153596, Note_off_c, 0, 55, 100
2, 153600, Note_on_c, 0, 63, 110
2, 153788, Note_off_c, 0, 63, 100
2, 153792, Note_on_c, 0, 55, 110
2, 153980, Note_off_c, 0, 55, 100
2, 153984, Note_on_c, 0, 60, 110
2, 154176, Note_on_c, 0, 55, 110
2, 154364, Note_off_c, 0, 60, 100
2, 154364, Note_off_c, 0, 55, 100
2, 154368, Note_on_c, 0, 59, 110
2, 154556, Note_off_c, 0, 59, 100
2, 154560, Note_on_c, 0, 55, 110
2, 154748, Note_off_c, 0, 55, 100
2, 154752, Note_on_c, 0, 62, 110
2, 154940, Note_off_c, 0, 62, 100
2, 154944, Note_on_c, 0, 55, 110
2, 155132, Note_off_c, 0, 55, 100
2, 155136, Note_on_c, 0, 59, 110
2, 155324, Note_off_c, 0, 59, 64
2, 155328, Note_on_c, 0, 55, 110
2, 155516, Note_off_c, 0, 55, 64
2, 155520, Note_on_c, 0, 59, 110
2, 155708, Note_off_c, 0, 59, 100
2, 155712, Note_on_c, 0, 55, 110
2, 155900, Note_off_c, 0, 55, 100
2, 155904, Note_on_c, 0, 62, 110
2, 156092, Note_off_c, 0, 62, 100
2, 156096, Note_on_c, 0, 55, 110
2, 156284, Note_off_c, 0, 55, 100
2, 156288, Note_on_c, 0, 59, 110
2, 156476, Note_off_c, 0, 59, 64
2, 156480, Note_on_c, 0, 55, 110
2, 156668, Note_off_c, 0, 55, 64
2, 156672, Note_on_c, 0, 59, 110
2, 156860, Note_off_c, 0, 59, 100
2, 156864, Note_on_c, 0, 55, 110
2, 157052, Note_off_c, 0, 55, 100
2, 157056, Note_on_c, 0, 62, 110
2, 157244, Note_off_c, 0, 62, 100
2, 157248, Note_on_c, 0, 55, 110
2, 157436, Note_off_c, 0, 55, 100
2, 157440, Note_on_c, 0, 59, 110
2, 157628, Note_off_c, 0, 59, 64
2, 157632, Note_on_c, 0, 55, 110
2, 157820, Note_off_c, 0, 55, 64
2, 157824, Note_on_c, 0, 59, 110
2, 158012, Note_off_c, 0, 59, 100
2, 158016, Note_on_c, 0, 55, 110
2, 158204, Note_off_c, 0, 55, 100
2, 158208, Note_on_c, 0, 62, 110
2, 158396, Note_off_c, 0, 62, 100
2, 158400, Note_on_c, 0, 55, 110
2, 158588, Note_off_c, 0, 55, 100
2, 158592, Note_on_c, 0, 59, 110
2, 158784, Note_on_c, 0, 55, 110
2, 158972, Note_off_c, 0, 59, 100
2, 158972, Note_off_c, 0, 55, 100
2, 158976, Note_on_c, 0, 60, 100
2, 159164, Note_off_c, 0, 60, 100
2, 159168, Note_on_c, 0, 55, 99
2, 159356, Note_off_c, 0, 55, 100
2, 159360, Note_on_c, 0, 60, 97
2, 159548, Note_off_c, 0, 60, 100
2, 159552, Note_on_c, 0, 55, 95
2, 159740, Note_off_c, 0, 55, 100
2, 159744, Note_on_c, 0, 62, 93
2, 159936, Note_on_c, 0, 58, 91
2, 160124, Note_off_c, 0, 62, 100
2, 160124, Note_off_c, 0, 58, 100
2, 160128, Note_on_c, 0, 63, 80
2, 160320, Note_on_c, 0, 58, 80
2, 160508, Note_off_c, 0, 63, 100
2, 160512, Note_on_c, 0, 67, 80
2, 160700, Note_off_c, 0, 58, 100
2, 160704, Note_on_c, 0, 58, 80
2, 160892, Note_off_c, 0, 67, 100
2, 160896, Note_on_c, 0, 63, 80
2, 161084, Note_off_c, 0, 58, 100
2, 161088, Note_on_c, 0, 58, 80
2, 161276, Note_off_c, 0, 63, 64
2, 161280, Note_on_c, 0, 63, 80
2, 161468, Note_off_c, 0, 58, 64
2, 161472, Note_on_c, 0, 58, 80
2, 161660, Note_off_c, 0, 63, 100
2, 161664, Note_on_c, 0, 67, 80
2, 161852, Note_off_c, 0, 58, 100
2, 161856, Note_on_c, 0, 58, 80
2, 162044, Note_off_c, 0, 67, 100
2, 162048, Note_on_c, 0, 63, 80
2, 162236, Note_off_c, 0, 58, 100
2, 162240, Note_on_c, 0, 58, 80
2, 162428, Note_off_c, 0, 63, 64
2, 162432, Note_on_c, 0, 63, 80
2, 162620, Note_off_c, 0, 58, 64
2, 162624, Note_on_c, 0, 58, 80
2, 162812, Note_off_c, 0, 63, 100
2, 162816, Note_on_c, 0, 67, 80
2, 163004, Note_off_c, 0, 58, 100
2, 163008, Note_on_c, 0, 58, 80
2, 163196, Note_off_c, 0, 67, 100
2, 163200, Note_on_c, 0, 63, 80
2, 163388, Note_off_c, 0, 58, 100
2, 163392, Note_on_c, 0, 58, 80
2, 163580, Note_off_c, 0, 63, 100
2, 163580, Note_off_c, 0, 58, 100
2, 163584, Note_on_c, 0, 62, 80
2, 163776, Note_on_c, 0, 58, 80
2, 163964, Note_off_c, 0, 62, 100
2, 163968, Note_on_c, 0, 65, 80
2, 164156, Note_off_c, 0, 58, 100
2, 164160, Note_on_c, 0, 58, 80
2, 164348, Note_off_c, 0, 65, 100
2, 164352, Note_on_c, 0, 62, 80
2, 164540, Note_off_c, 0, 58, 100
2, 164544, Note_on_c, 0, 58, 80
2, 164732, Note_off_c, 0, 62, 64
2, 164736, Note_on_c, 0, 62, 80
2, 164924, Note_off_c, 0, 58, 64
2, 164928, Note_on_c, 0, 58, 80
2, 165116, Note_off_c, 0, 62, 100
2, 165120, Note_on_c, 0, 65, 80
2, 165308, Note_off_c, 0, 58, 100
2, 165312, Note_on_c, 0, 58, 80
2, 165500, Note_off_c, 0, 65, 100
2, 165504, Note_on_c, 0, 62, 80
2, 165692, Note_off_c, 0, 58, 100
2, 165696, Note_on_c, 0, 58, 80
2, 165884, Note_off_c, 0, 62, 64
2, 165888, Note_on_c, 0, 62, 80
2, 166076, Note_off_c, 0, 58, 64
2, 166080, Note_on_c, 0, 58, 80
2, 166268, Note_off_c, 0, 62, 100
2, 166272, Note_on_c, 0, 65, 80
2, 166460, Note_off_c, 0, 58, 100
2, 166464, Note_on_c, 0, 58, 80
2, 166652, Note_off_c, 0, 65, 100
2, 166656, Note_on_c, 0, 62, 80
2, 166844, Note_off_c, 0, 58, 100
2, 166848, Note_on_c, 0, 58, 80
2, 167036, Note_off_c, 0, 62, 64
2, 167040, Note_on_c, 0, 62, 80
2, 167228, Note_off_c, 0, 58, 64
2, 167232, Note_on_c, 0, 58, 80
2, 167420, Note_off_c, 0, 62, 100
2, 167424, Note_on_c, 0, 65, 80
2, 167612, Note_off_c, 0, 58, 100
2, 167616, Note_on_c, 0, 58, 80
2, 167804, Note_off_c, 0, 65, 100
2, 167808, Note_on_c, 0, 62, 80
2, 167996, Note_off_c, 0, 58, 100
2, 168000, Note_on_c, 0, 58, 80
2, 168188, Note_off_c, 0, 62, 100
2, 168188, Note_off_c, 0, 58, 100
2, 168192, Note_on_c, 0, 63, 80
2, 168384, Note_on_c, 0, 58, 80
2, 168572, Note_off_c, 0, 63, 100
2, 168576, Note_on_c, 0, 63, 80
2, 168764, Note_off_c, 0, 58, 100
2, 168768, Note_on_c, 0, 58, 80
2, 168956, Note_off_c, 0, 63, 100
2, 168960, Note_on_c, 0, 63, 80
2, 169148, Note_off_c, 0, 58, 100
2, 169152, Note_on_c, 0, 58, 80
2, 169340, Note_off_c, 0, 63, 100
2, 169340, Note_off_c, 0, 58, 100
2, 169344, Note_on_c, 0, 63, 110
2, 169532, Note_off_c, 0, 63, 100
2, 169536, Note_on_c, 0, 58, 110
2, 169724, Note_off_c, 0, 58, 100
2, 169728, Note_on_c, 0, 57, 110
2, 169916, Note_off_c, 0, 57, 100
2, 169920, Note_on_c, 0, 58, 110
2, 170108, Note_off_c, 0, 58, 100
2, 170112, Note_on_c, 0, 62, 110
2, 170300, Note_off_c, 0, 62, 100
2, 170304, Note_on_c, 0, 63, 110
2, 170492, Note_off_c, 0, 63, 100
2, 170496, Note_on_c, 0, 65, 110
2, 170684, Note_off_c, 0, 65, 100
2, 170688, Note_on_c, 0, 58, 110
2, 170876, Note_off_c, 0, 58, 100
2, 170880, Note_on_c, 0, 57, 110
2, 171068, Note_off_c, 0, 57, 100
2, 171072, Note_on_c, 0, 58, 110
2, 171260, Note_off_c, 0, 58, 100
2, 171264, Note_on_c, 0, 63, 110
2, 171452, Note_off_c, 0, 63, 100
2, 171456, Note_on_c, 0, 65, 110
2, 171644, Note_off_c, 0, 65, 100
2, 171648, Note_on_c, 0, 67, 110
2, 171836, Note_off_c, 0, 67, 100
2, 171840, Note_on_c, 0, 63, 110
2, 172028, Note_off_c, 0, 63, 100
2, 172032, Note_on_c, 0, 62, 110
2, 172220, Note_off_c, 0, 62, 100
2, 172224, Note_on_c, 0, 63, 110
2, 172412, Note_off_c, 0, 63, 100
2, 172416, Note_on_c, 0, 68, 110
2, 172604, Note_off_c, 0, 68, 100
2, 172608, Note_on_c, 0, 70, 110
2, 172796, Note_off_c, 0, 70, 100
2, 172800, Note_on_c, 0, 72, 110
2, 172988, Note_off_c, 0, 72, 100
2, 172992, Note_on_c, 0, 70, 110
2, 173180, Note_off_c, 0, 70, 100
2, 173184, Note_on_c, 0, 68, 110
2, 173372, Note_off_c, 0, 68, 100
2, 173376, Note_on_c, 0, 67, 110
2, 173564, Note_off_c, 0, 67, 100
2, 173568, Note_on_c, 0, 65, 110
2, 173756, Note_off_c, 0, 65, 100
2, 173760, Note_on_c, 0, 63, 110
2, 173948, Note_off_c, 0, 63, 100
2, 173952, Note_on_c, 0, 62, 110
2, 174332, Note_off_c, 0, 62, 100
2, 174720, Note_on_c, 0, 80, 80
2, 174908, Note_off_c, 0, 80, 100
2, 174912, Note_on_c, 0, 82, 80
2, 175100, Note_off_c, 0, 82, 100
2, 175104, Note_on_c, 0, 84, 80
2, 175292, Note_off_c, 0, 84, 100
2, 175296, Note_on_c, 0, 82, 80
2, 175484, Note_off_c, 0, 82, 100
2, 175488, Note_on_c, 0, 80, 80
2, 175676, Note_off_c, 0, 80, 100
2, 175680, Note_on_c, 0, 79, 80
2, 175868, Note_off_c, 0, 79, 100
2, 175872, Note_on_c, 0, 77, 80
2, 176060, Note_off_c, 0, 77, 100
2, 176064, Note_on_c, 0, 75, 80
2, 176252, Note_off_c, 0, 75, 100
2, 176256, Note_on_c, 0, 74, 80
2, 176636, Note_off_c, 0, 74, 100
2, 177024, Note_on_c, 0, 60, 110
2, 177212, Note_off_c, 0, 60, 100
2, 177216, Note_on_c, 0, 62, 110
2, 177404, Note_off_c, 0, 62, 100
2, 177408, Note_on_c, 0, 63, 110
2, 177596, Note_off_c, 0, 63, 100
2, 177600, Note_on_c, 0, 62, 110
2, 177788, Note_off_c, 0, 62, 100
2, 177792, Note_on_c, 0, 60, 110
2, 177980, Note_off_c, 0, 60, 100
2, 177984, Note_on_c, 0, 58, 110
2, 178172, Note_off_c, 0, 58, 100
2, 178176, Note_on_c, 0, 57, 110
2, 178364, Note_off_c, 0, 57, 100
2, 178368, Note_on_c, 0, 55, 110
2, 178556, Note_off_c, 0, 55, 100
2, 178560, Note_on_c, 0, 54, 110
2, 178940, Note_off_c, 0, 54, 100
2, 179328, Note_on_c, 0, 84, 80
2, 179516, Note_off_c, 0, 84, 100
2, 179520, Note_on_c, 0, 86, 80
2, 179708, Note_off_c, 0, 86, 100
2, 179712, Note_on_c, 0, 87, 80
2, 179900, Note_off_c, 0, 87, 100
2, 179904, Note_on_c, 0, 86, 80
2, 180092, Note_off_c, 0, 86, 100
2, 180096, Note_on_c, 0, 84, 80
2, 180284, Note_off_c, 0, 84, 100
2, 180288, Note_on_c, 0, 82, 80
2, 180476, Note_off_c, 0, 82, 100
2, 180480, Note_on_c, 0, 81, 80
2, 180668, Note_off_c, 0, 81, 100
2, 180672, Note_on_c, 0, 79, 80
2, 180860, Note_off_c, 0, 79, 100
2, 180864, Note_on_c, 0, 78, 80
2, 181052, Note_off_c, 0, 78, 100
2, 181056, Note_on_c, 0, 75, 80
2, 181244, Note_off_c, 0, 75, 100
2, 181248, Note_on_c, 0, 74, 80
2, 181436, Note_off_c, 0, 74, 100
2, 181440, Note_on_c, 0, 72, 80
2, 181628, Note_off_c, 0, 72, 100
2, 181632, Note_on_c, 0, 70, 80
2, 181820, Note_off_c, 0, 70, 100
2, 181824, Note_on_c, 0, 69, 80
2, 182012, Note_off_c, 0, 69, 100
2, 182016, Note_on_c, 0, 67, 80
2, 182204, Note_off_c, 0, 67, 100
2, 182208, Note_on_c, 0, 66, 80
2, 182396, Note_off_c, 0, 66, 100
2, 182400, Note_on_c, 0, 67, 80
2, 182588, Note_off_c, 0, 67, 100
2, 182592, Note_on_c, 0, 69, 80
2, 182780, Note_off_c, 0, 69, 100
2, 182784, Note_on_c, 0, 70, 80
2, 182972, Note_off_c, 0, 70, 100
2, 182976, Note_on_c, 0, 67, 80
2, 183164, Note_off_c, 0, 67, 100
2, 183168, Note_on_c, 0, 62, 80
2, 183360, Note_on_c, 0, 57, 80
2, 183548, Note_off_c, 0, 62, 100
2, 183552, Note_on_c, 0, 66, 80
2, 183740, Note_off_c, 0, 57, 100
2, 183744, Note_on_c, 0, 57, 80
2, 183932, Note_off_c, 0, 66, 100
2, 183936, Note_on_c, 0, 62, 80
2, 184124, Note_off_c, 0, 57, 100
2, 184128, Note_on_c, 0, 57, 80
2, 184316, Note_off_c, 0, 62, 64
2, 184320, Note_on_c, 0, 62, 80
2, 184508, Note_off_c, 0, 57, 64
2, 184512, Note_on_c, 0, 57, 80
2, 184700, Note_off_c, 0, 62, 100
2, 184704, Note_on_c, 0, 66, 80
2, 184892, Note_off_c, 0, 57, 100
2, 184896, Note_on_c, 0, 57, 80
2, 185084, Note_off_c, 0, 66, 100
2, 185088, Note_on_c, 0, 62, 80
2, 185276, Note_off_c, 0, 57, 100
2, 185280, Note_on_c, 0, 57, 80
2, 185468, Note_off_c, 0, 62, 64
2, 185472, Note_on_c, 0, 62, 80
2, 185660, Note_off_c, 0, 57, 64
2, 185664, Note_on_c, 0, 57, 80
2, 185852, Note_off_c, 0, 62, 100
2, 185856, Note_on_c, 0, 66, 80
2, 186044, Note_off_c, 0, 57, 100
2, 186048, Note_on_c, 0, 57, 80
2, 186236, Note_off_c, 0, 66, 100
2, 186240, Note_on_c, 0, 62, 80
2, 186428, Note_off_c, 0, 57, 100
2, 186432, Note_on_c, 0, 57, 80
2, 186620, Note_off_c, 0, 62, 100
2, 186620, Note_off_c, 0, 57, 100
2, 186624, Note_on_c, 0, 61, 80
2, 186816, Note_on_c, 0, 57, 80
2, 187004, Note_off_c, 0, 61, 100
2, 187008, Note_on_c, 0, 64, 80
2, 187196, Note_off_c, 0, 57, 100
2, 187200, Note_on_c, 0, 57, 80
2, 187388, Note_off_c, 0, 64, 100
2, 187392, Note_on_c, 0, 61, 80
2, 187580, Note_off_c, 0, 57, 100
2, 187584, Note_on_c, 0, 57, 80
2, 187772, Note_off_c, 0, 61, 64
2, 187776, Note_on_c, 0, 61, 80
2, 187964, Note_off_c, 0, 57, 64
2, 187968, Note_on_c, 0, 57, 80
2, 188156, Note_off_c, 0, 61, 100
2, 188160, Note_on_c, 0, 64, 80
2, 188348, Note_off_c, 0, 57, 100
2, 188352, Note_on_c, 0, 57, 80
2, 188540, Note_off_c, 0, 64, 100
2, 188544, Note_on_c, 0, 61, 80
2, 188732, Note_off_c, 0, 57, 100
2, 188736, Note_on_c, 0, 57, 80
2, 188924, Note_off_c, 0, 61, 64
2, 188928, Note_on_c, 0, 61, 80
2, 189116, Note_off_c, 0, 57, 64
2, 189120, Note_on_c, 0, 57, 80
2, 189308, Note_off_c, 0, 61, 100
2, 189312, Note_on_c, 0, 64, 80
2, 189500, Note_off_c, 0, 57, 100
2, 189504, Note_on_c, 0, 57, 80
2, 189692, Note_off_c, 0, 64, 100
2, 189696, Note_on_c, 0, 61, 80
2, 189884, Note_off_c, 0, 57, 100
2, 189888, Note_on_c, 0, 57, 80
2, 190076, Note_off_c, 0, 61, 64
2, 190080, Note_on_c, 0, 61, 80
2, 190268, Note_off_c, 0, 57, 64
2, 190272, Note_on_c, 0, 57, 80
2, 190460, Note_off_c, 0, 61, 100
2, 190464, Note_on_c, 0, 64, 80
2, 190652, Note_off_c, 0, 57, 100
2, 190656, Note_on_c, 0, 57, 80
2, 190844, Note_off_c, 0, 64, 100
2, 190848, Note_on_c, 0, 61, 80
2, 191036, Note_off_c, 0, 57, 100
2, 191040, Note_on_c, 0, 57, 80
2, 191228, Note_off_c, 0, 61, 100
2, 191228, Note_off_c, 0, 57, 100
2, 191232, Note_on_c, 0, 62, 80
2, 191424, Note_on_c, 0, 57, 80
2, 191612, Note_off_c, 0, 62, 100
2, 191616, Note_on_c, 0, 69, 80
2, 191804, Note_off_c, 0, 57, 100
2, 191808, Note_on_c, 0, 62, 80
2, 191996, Note_off_c, 0, 69, 100
2, 192000, Note_on_c, 0, 69, 80
2, 192188, Note_off_c, 0, 62, 100
2, 192192, Note_on_c, 0, 66, 80
2, 192380, Note_off_c, 0, 69, 100
2, 192380, Note_off_c, 0, 66, 100
2, 192384, Note_on_c, 0, 74, 80
2, 192384, Note_on_c, 0, 69, 80
2, 192576, Note_on_c, 0, 62, 81
2, 192764, Note_off_c, 0, 74, 100
2, 192764, Note_off_c, 0, 69, 100
2, 192764, Note_off_c, 0, 62, 100
2, 192768, Note_on_c, 0, 74, 82
2, 192768, Note_on_c, 0, 69, 82
2, 192960, Note_on_c, 0, 62, 83
2, 193148, Note_off_c, 0, 74, 100
2, 193148, Note_off_c, 0, 69, 100
2, 193148, Note_off_c, 0, 62, 100
2, 193152, Note_on_c, 0, 74, 85
2, 193152, Note_on_c, 0, 69, 85
2, 193344, Note_on_c, 0, 62, 86
2, 193532, Note_off_c, 0, 74, 100
2, 193532, Note_off_c, 0, 69, 100
2, 193532, Note_off_c, 0, 62, 100
2, 193536, Note_on_c, 0, 74, 87
2, 193536, Note_on_c, 0, 69, 87
2, 193728, Note_on_c, 0, 62, 89
2, 193916, Note_off_c, 0, 74, 100
2, 193916, Note_off_c, 0, 69, 100
2, 193916, Note_off_c, 0, 62, 100
2, 193920, Note_on_c, 0, 74, 90
2, 193920, Note_on_c, 0, 69, 90
2, 194112, Note_on_c, 0, 62, 91
2, 194300, Note_off_c, 0, 74, 100
2, 194300, Note_off_c, 0, 69, 100
2, 194300, Note_off_c, 0, 62, 100
2, 194304, Note_on_c, 0, 74, 93
2, 194304, Note_on_c, 0, 69, 93
2, 194496, Note_on_c, 0, 62, 94
2, 194684, Note_off_c, 0, 74, 100
2, 194684, Note_off_c, 0, 69, 100
2, 194684, Note_off_c, 0, 62, 100
2, 194688, Note_on_c, 0, 72, 95
2, 194688, Note_on_c, 0, 69, 95
2, 194880, Note_on_c, 0, 62, 96
2, 195068, Note_off_c, 0, 72, 100
2, 195068, Note_off_c, 0, 69, 100
2, 195068, Note_off_c, 0, 62, 100
2, 195072, Note_on_c, 0, 72, 98
2, 195072, Note_on_c, 0, 69, 98
2, 195264, Note_on_c, 0, 62, 99
2, 195452, Note_off_c, 0, 72, 100
2, 195452, Note_off_c, 0, 69, 100
2, 195452, Note_off_c, 0, 62, 100
2, 195456, Note_on_c, 0, 72, 100
2, 195456, Note_on_c, 0, 69, 100
2, 195648, Note_on_c, 0, 62, 102
2, 195836, Note_off_c, 0, 72, 100
2, 195836, Note_off_c, 0, 69, 100
2, 195836, Note_off_c, 0, 62, 100
2, 195840, Note_on_c, 0, 72, 103
2, 195840, Note_on_c, 0, 69, 103
2, 196032, Note_on_c, 0, 62, 104
2, 196220, Note_off_c, 0, 72, 100
2, 196220, Note_off_c, 0, 69, 100
2, 196220, Note_off_c, 0, 62, 100
2, 196224, Note_on_c, 0, 72, 106
2, 196224, Note_on_c, 0, 69, 106
2, 196416, Note_on_c, 0, 62, 107
2, 196604, Note_off_c, 0, 72, 100
2, 196604, Note_off_c, 0, 69, 100
2, 196604, Note_off_c, 0, 62, 100
2, 196608, Note_on_c, 0, 72, 108
2, 196608, Note_on_c, 0, 69, 108
2, 196800, Note_on_c, 0, 62, 109
2, 196988, Note_off_c, 0, 72, 100
2, 196988, Note_off_c, 0, 69, 100
2, 196988, Note_off_c, 0, 62, 100
2, 196992, Note_on_c, 0, 79, 110
2, 196992, Note_on_c, 0, 67, 110
2, 197376, Note_on_c, 0, 83, 110
2, 197376, Note_on_c, 0, 71, 110
2, 197756, Note_off_c, 0, 79, 100
2, 197756, Note_off_c, 0, 67, 100
2, 197760, Note_on_c, 0, 79, 110
2, 197760, Note_on_c, 0, 67, 110
2, 198144, Note_on_c, 0, 86, 110
2, 198144, Note_on_c, 0, 74, 110
2, 198524, Note_off_c, 0, 71, 100
2, 198524, Note_off_c, 0, 83, 100
2, 198908, Note_off_c, 0, 67, 100
2, 198908, Note_off_c, 0, 79, 100
2, 198908, Note_off_c, 0, 86, 100
2, 198908, Note_off_c, 0, 74, 100
2, 198912, Note_on_c, 0, 84, 110
2, 199100, Note_off_c, 0, 84, 100
2, 199104, Note_on_c, 0, 83, 110
2, 199292, Note_off_c, 0, 83, 100
2, 199296, Note_on_c, 0, 81, 110
2, 199484, Note_off_c, 0, 81, 100
2, 199488, Note_on_c, 0, 79, 110
2, 199676, Note_off_c, 0, 79, 100
2, 199680, Note_on_c, 0, 78, 110
2, 199868, Note_off_c, 0, 78, 100
2, 199872, Note_on_c, 0, 79, 110
2, 200060, Note_off_c, 0, 79, 100
2, 200064, Note_on_c, 0, 83, 110
2, 200252, Note_off_c, 0, 83, 100
2, 200256, Note_on_c, 0, 79, 110
2, 200444, Note_off_c, 0, 79, 100
2, 200448, Note_on_c, 0, 78, 110
2, 200828, Note_off_c, 0, 78, 100
2, 200832, Note_on_c, 0, 76, 110
2, 201212, Note_off_c, 0, 76, 100
2, 201216, Note_on_c, 0, 74, 110
2, 201404, Note_off_c, 0, 74, 100
2, 201408, Note_on_c, 0, 72, 110
2, 201596, Note_off_c, 0, 72, 100
2, 201600, Note_on_c, 0, 71, 110
2, 201788, Note_off_c, 0, 71, 100
2, 201792, Note_on_c, 0, 69, 110
2, 201980, Note_off_c, 0, 69, 100
2, 201984, Note_on_c, 0, 68, 110
2, 202172, Note_off_c, 0, 68, 100
2, 202176, Note_on_c, 0, 69, 110
2, 202364, Note_off_c, 0, 69, 100
2, 202368, Note_on_c, 0, 72, 110
2, 202556, Note_off_c, 0, 72, 100
2, 202560, Note_on_c, 0, 69, 110
2, 202748, Note_off_c, 0, 69, 100
2, 202752, Note_on_c, 0, 66, 110
2, 203516, Note_off_c, 0, 66, 100
2, 203520, Note_on_c, 0, 71, 110
2, 203580, Note_off_c, 0, 71, 100
2, 203584, Note_on_c, 0, 69, 110
2, 203644, Note_off_c, 0, 69, 100
2, 203712, Note_on_c, 0, 68, 110
2, 203772, Note_off_c, 0, 68, 100
2, 203808, Note_on_c, 0, 69, 110
2, 203900, Note_off_c, 0, 69, 100
2, 203904, Note_on_c, 0, 72, 110
2, 204284, Note_off_c, 0, 72, 100
2, 204288, Note_on_c, 0, 69, 110
2, 204668, Note_off_c, 0, 69, 100
2, 204672, Note_on_c, 0, 66, 110
2, 205052, Note_off_c, 0, 66, 100
2, 205056, Note_on_c, 0, 67, 110
2, 205244, Note_off_c, 0, 67, 100
2, 205248, Note_on_c, 0, 62, 110
2, 205436, Note_off_c, 0, 62, 100
2, 205440, Note_on_c, 0, 61, 110
2, 205628, Note_off_c, 0, 61, 100
2, 205632, Note_on_c, 0, 62, 110
2, 205820, Note_off_c, 0, 62, 100
2, 205824, Note_on_c, 0, 66, 110
2, 206012, Note_off_c, 0, 66, 100
2, 206016, Note_on_c, 0, 67, 110
2, 206204, Note_off_c, 0, 67, 100
2, 206208, Note_on_c, 0, 69, 110
2, 206396, Note_off_c, 0, 69, 100
2, 206400, Note_on_c, 0, 62, 110
2, 206588, Note_off_c, 0, 62, 100
2, 206592, Note_on_c, 0, 61, 110
2, 206780, Note_off_c, 0, 61, 100
2, 206784, Note_on_c, 0, 62, 110
2, 206972, Note_off_c, 0, 62, 100
2, 206976, Note_on_c, 0, 67, 110
2, 207164, Note_off_c, 0, 67, 100
2, 207168, Note_on_c, 0, 69, 110
2, 207356, Note_off_c, 0, 69, 100
2, 207360, Note_on_c, 0, 71, 110
2, 207548, Note_off_c, 0, 71, 100
2, 207552, Note_on_c, 0, 67, 110
2, 207740, Note_off_c, 0, 67, 100
2, 207744, Note_on_c, 0, 66, 110
2, 207932, Note_off_c, 0, 66, 100
2, 207936, Note_on_c, 0, 67, 110
2, 208124, Note_off_c, 0, 67, 100
2, 208128, Note_on_c, 0, 69, 110
2, 208316, Note_off_c, 0, 69, 100
2, 208320, Note_on_c, 0, 71, 110
2, 208508, Note_off_c, 0, 71, 100
2, 208512, Note_on_c, 0, 72, 110
2, 208700, Note_off_c, 0, 72, 100
2, 208704, Note_on_c, 0, 67, 110
2, 208892, Note_off_c, 0, 67, 100
2, 208896, Note_on_c, 0, 66, 110
2, 209084, Note_off_c, 0, 66, 100
2, 209088, Note_on_c, 0, 67, 110
2, 209276, Note_off_c, 0, 67, 100
2, 209280, Note_on_c, 0, 71, 110
2, 209468, Note_off_c, 0, 71, 100
2, 209472, Note_on_c, 0, 72, 110
2, 209660, Note_off_c, 0, 72, 100
2, 209664, Note_on_c, 0, 74, 110
2, 210044, Note_off_c, 0, 74, 100
2, 210240, Note_on_c, 0, 62, 93
2, 210428, Note_off_c, 0, 62, 100
2, 210432, Note_on_c, 0, 67, 87
2, 210620, Note_off_c, 0, 67, 100
2, 210624, Note_on_c, 0, 71, 81
2, 210812, Note_off_c, 0, 71, 100
2, 210816, Note_on_c, 0, 74, 80
2, 211004, Note_off_c, 0, 74, 100
2, 211008, Note_on_c, 0, 67, 80
2, 211196, Note_off_c, 0, 67, 100
2, 211200, Note_on_c, 0, 71, 80
2, 211388, Note_off_c, 0, 71, 100
2, 211392, Note_on_c, 0, 74, 80
2, 211580, Note_off_c, 0, 74, 100
2, 211584, Note_on_c, 0, 79, 80
2, 211772, Note_off_c, 0, 79, 100
2, 211776, Note_on_c, 0, 71, 80
2, 211964, Note_off_c, 0, 71, 100
2, 211968, Note_on_c, 0, 74, 80
2, 212156, Note_off_c, 0, 74, 100
2, 212160, Note_on_c, 0, 79, 80
2, 212348, Note_off_c, 0, 79, 100
2, 212352, Note_on_c, 0, 83, 80
2, 212540, Note_off_c, 0, 83, 100
2, 212544, Note_on_c, 0, 74, 80
2, 212732, Note_off_c, 0, 74, 100
2, 212736, Note_on_c, 0, 79, 80
2, 212924, Note_off_c, 0, 79, 100
2, 212928, Note_on_c, 0, 83, 80
2, 213116, Note_off_c, 0, 83, 100
2, 213120, Note_on_c, 0, 86, 80
2, 213308, Note_off_c, 0, 86, 100
2, 213312, Note_on_c, 0, 84, 80
2, 213500, Note_off_c, 0, 84, 100
2, 213504, Note_on_c, 0, 83, 80
2, 213692, Note_off_c, 0, 83, 100
2, 213696, Note_on_c, 0, 81, 80
2, 213884, Note_off_c, 0, 81, 100
2, 213888, Note_on_c, 0, 79, 80
2, 214076, Note_off_c, 0, 79, 100
2, 214080, Note_on_c, 0, 77, 80
2, 214268, Note_off_c, 0, 77, 100
2, 214272, Note_on_c, 0, 76, 80
2, 214652, Note_off_c, 0, 76, 100
2, 214848, Note_on_c, 0, 64, 80
2, 215036, Note_off_c, 0, 64, 100
2, 215040, Note_on_c, 0, 67, 80
2, 215228, Note_off_c, 0, 67, 100
2, 215232, Note_on_c, 0, 72, 80
2, 215420, Note_off_c, 0, 72, 100
2, 215424, Note_on_c, 0, 76, 80
2, 215612, Note_off_c, 0, 76, 100
2, 215616, Note_on_c, 0, 64, 80
2, 215804, Note_off_c, 0, 64, 100
2, 215808, Note_on_c, 0, 67, 80
2, 215996, Note_off_c, 0, 67, 100
2, 216000, Note_on_c, 0, 72, 80
2, 216188, Note_off_c, 0, 72, 100
2, 216192, Note_on_c, 0, 76, 80
2, 216380, Note_off_c, 0, 76, 100
2, 216384, Note_on_c, 0, 67, 80
2, 216572, Note_off_c, 0, 67, 100
2, 216576, Note_on_c, 0, 72, 80
2, 216764, Note_off_c, 0, 72, 100
2, 216768, Note_on_c, 0, 76, 80
2, 216956, Note_off_c, 0, 76, 100
2, 216960, Note_on_c, 0, 79, 80
2, 217148, Note_off_c, 0, 79, 100
2, 217152, Note_on_c, 0, 72, 80
2, 217340, Note_off_c, 0, 72, 100
2, 217344, Note_on_c, 0, 76, 80
2, 217532, Note_off_c, 0, 76, 100
2, 217536, Note_on_c, 0, 79, 80
2, 217724, Note_off_c, 0, 79, 100
2, 217728, Note_on_c, 0, 84, 80
2, 217916, Note_off_c, 0, 84, 100
2, 217920, Note_on_c, 0, 76, 80
2, 218108, Note_off_c, 0, 76, 100
2, 218112, Note_on_c, 0, 79, 80
2, 218300, Note_off_c, 0, 79, 100
2, 218304, Note_on_c, 0, 84, 80
2, 218492, Note_off_c, 0, 84, 100
2, 218496, Note_on_c, 0, 88, 80
2, 218684, Note_off_c, 0, 88, 100
2, 218688, Note_on_c, 0, 86, 80
2, 218876, Note_off_c, 0, 86, 100
2, 218880, Note_on_c, 0, 85, 80
2, 219260, Note_off_c, 0, 85, 100
2, 219456, Note_on_c, 0, 61, 80
2, 219644, Note_off_c, 0, 61, 100
2, 219648, Note_on_c, 0, 64, 80
2, 219836, Note_off_c, 0, 64, 100
2, 219840, Note_on_c, 0, 67, 80
2, 220028, Note_off_c, 0, 67, 100
2, 220032, Note_on_c, 0, 73, 80
2, 220220, Note_off_c, 0, 73, 100
2, 220224, Note_on_c, 0, 64, 80
2, 220412, Note_off_c, 0, 64, 100
2, 220416, Note_on_c, 0, 67, 80
2, 220604, Note_off_c, 0, 67, 100
2, 220608, Note_on_c, 0, 73, 80
2, 220796, Note_off_c, 0, 73, 100
2, 220800, Note_on_c, 0, 76, 80
2, 220988, Note_off_c, 0, 76, 100
2, 220992, Note_on_c, 0, 67, 80
2, 221180, Note_off_c, 0, 67, 100
2, 221184, Note_on_c, 0, 73, 80
2, 221372, Note_off_c, 0, 73, 100
2, 221376, Note_on_c, 0, 76, 80
2, 221564, Note_off_c, 0, 76, 100
2, 221568, Note_on_c, 0, 79, 80
2, 221756, Note_off_c, 0, 79, 100
2, 221760, Note_on_c, 0, 73, 80
2, 221948, Note_off_c, 0, 73, 100
2, 221952, Note_on_c, 0, 76, 80
2, 222140, Note_off_c, 0, 76, 100
2, 222144, Note_on_c, 0, 79, 80
2, 222332, Note_off_c, 0, 79, 100
2, 222336, Note_on_c, 0, 85, 80
2, 222524, Note_off_c, 0, 85, 100
2, 222528, Note_on_c, 0, 88, 80
2, 222716, Note_off_c, 0, 88, 100
2, 222720, Note_on_c, 0, 81, 80
2, 222908, Note_off_c, 0, 81, 100
2, 222912, Note_on_c, 0, 83, 80
2, 223100, Note_off_c, 0, 83, 100
2, 223104, Note_on_c, 0, 81, 80
2, 223292, Note_off_c, 0, 81, 100
2, 223296, Note_on_c, 0, 83, 80
2, 223484, Note_off_c, 0, 83, 100
2, 223488, Note_on_c, 0, 81, 80
2, 223488, Note_on_c, 0, 78, 80
2, 224636, Note_off_c, 0, 81, 100
2, 224636, Note_off_c, 0, 78, 100
2, 224640, Note_on_c, 0, 79, 90
2, 224640, Note_on_c, 0, 81, 90
2, 225788, Note_off_c, 0, 79, 100
2, 225788, Note_off_c, 0, 81, 100
2, 225792, Note_on_c, 0, 81, 101
2, 225792, Note_on_c, 0, 84, 101
2, 226940, Note_off_c, 0, 81, 100
2, 226940, Note_off_c, 0, 84, 100
2, 226944, Note_on_c, 0, 83, 80
2, 226944, Note_on_c, 0, 79, 80
2, 227324, Note_off_c, 0, 83, 100
2, 227324, Note_off_c, 0, 79, 100
2, 227328, Note_on_c, 0, 83, 80
2, 227328, Note_on_c, 0, 79, 80
2, 227708, Note_off_c, 0, 83, 100
2, 227708, Note_off_c, 0, 79, 100
2, 227712, Note_on_c, 0, 83, 80
2, 227712, Note_on_c, 0, 79, 80
2, 228092, Note_off_c, 0, 83, 100
2, 228092, Note_off_c, 0, 79, 100
2, 228096, Note_on_c, 0, 81, 80
2, 228096, Note_on_c, 0, 78, 80
2, 229244, Note_off_c, 0, 81, 100
2, 229244, Note_off_c, 0, 78, 100
2, 229248, Note_on_c, 0, 79, 87
2, 229248, Note_on_c, 0, 81, 87
2, 230396, Note_off_c, 0, 79, 100
2, 230396, Note_off_c, 0, 81, 100
2, 230400, Note_on_c, 0, 81, 94
2, 230400, Note_on_c, 0, 84, 94
2, 231548, Note_off_c, 0, 81, 100
2, 231548, Note_off_c, 0, 84, 100
2, 231552, Note_on_c, 0, 83, 80
2, 231552, Note_on_c, 0, 79, 80
2, 231932, Note_off_c, 0, 83, 100
2, 231932, Note_off_c, 0, 79, 100
2, 231936, Note_on_c, 0, 83, 80
2, 231936, Note_on_c, 0, 79, 80
2, 232316, Note_off_c, 0, 83, 100
2, 232316, Note_off_c, 0, 79, 100
2, 232320, Note_on_c, 0, 83, 80
2, 232320, Note_on_c, 0, 79, 80
2, 232700, Note_off_c, 0, 83, 100
2, 232700, Note_off_c, 0, 79, 100
2, 232704, Note_on_c, 0, 81, 80
2, 232704, Note_on_c, 0, 78, 80
2, 232892, Note_off_c, 0, 81, 100
2, 232892, Note_off_c, 0, 78, 100
2, 232896, Note_on_c, 0, 79, 80
2, 233084, Note_off_c, 0, 79, 100
2, 233088, Note_on_c, 0, 81, 80
2, 233276, Note_off_c, 0, 81, 100
2, 233280, Note_on_c, 0, 83, 80
2, 233468, Note_off_c, 0, 83, 100
2, 233472, Note_on_c, 0, 85, 80
2, 233660, Note_off_c, 0, 85, 100
2, 233664, Note_on_c, 0, 86, 80
2, 233852, Note_off_c, 0, 86, 100
2, 233856, Note_on_c, 0, 85, 80
2, 234044, Note_off_c, 0, 85, 100
2, 234048, Note_on_c, 0, 83, 80
2, 234236, Note_off_c, 0, 83, 100
2, 234240, Note_on_c, 0, 81, 80
2, 234428, Note_off_c, 0, 81, 100
2, 234432, Note_on_c, 0, 79, 80
2, 234620, Note_off_c, 0, 79, 100
2, 234624, Note_on_c, 0, 78, 80
2, 234812, Note_off_c, 0, 78, 100
2, 234816, Note_on_c, 0, 76, 80
2, 235004, Note_off_c, 0, 76, 100
2, 235008, Note_on_c, 0, 79, 80
2, 235196, Note_off_c, 0, 79, 100
2, 235200, Note_on_c, 0, 81, 80
2, 235388, Note_off_c, 0, 81, 100
2, 235392, Note_on_c, 0, 83, 80
2, 235580, Note_off_c, 0, 83, 100
2, 235584, Note_on_c, 0, 85, 80
2, 235772, Note_off_c, 0, 85, 100
2, 235776, Note_on_c, 0, 86, 80
2, 235964, Note_off_c, 0, 86, 100
2, 235968, Note_on_c, 0, 88, 80
2, 236156, Note_off_c, 0, 88, 100
2, 236160, Note_on_c, 0, 86, 80
2, 236348, Note_off_c, 0, 86, 100
2, 236352, Note_on_c, 0, 84, 80
2, 236540, Note_off_c, 0, 84, 100
2, 236544, Note_on_c, 0, 83, 80
2, 236732, Note_off_c, 0, 83, 100
2, 236736, Note_on_c, 0, 81, 80
2, 236924, Note_off_c, 0, 81, 100
2, 236928, Note_on_c, 0, 79, 80
2, 237116, Note_off_c, 0, 79, 100
2, 237120, Note_on_c, 0, 78, 80
2, 237308, Note_off_c, 0, 78, 100
2, 237312, Note_on_c, 0, 81, 80
2, 237500, Note_off_c, 0, 81, 100
2, 237504, Note_on_c, 0, 84, 85
2, 237692, Note_off_c, 0, 84, 100
2, 237696, Note_on_c, 0, 90, 91
2, 237884, Note_off_c, 0, 90, 100
2, 237888, Note_on_c, 0, 84, 97
2, 238076, Note_off_c, 0, 84, 100
2, 238080, Note_on_c, 0, 93, 103
2, 238268, Note_off_c, 0, 93, 100
2, 238272, Note_on_c, 0, 90, 109
2, 238460, Note_off_c, 0, 90, 100
2, 238464, Note_on_c, 0, 93, 110
2, 238652, Note_off_c, 0, 93, 100
2, 238656, Note_on_c, 0, 90, 110
2, 238844, Note_off_c, 0, 90, 100
2, 238848, Note_on_c, 0, 93, 110
2, 239036, Note_off_c, 0, 93, 100
2, 239040, Note_on_c, 0, 90, 110
2, 239228, Note_off_c, 0, 90, 100
2, 239232, Note_on_c, 0, 93, 110
2, 239420, Note_off_c, 0, 93, 100
2, 239424, Note_on_c, 0, 90, 110
2, 239612, Note_off_c, 0, 90, 100
2, 239616, Note_on_c, 0, 93, 110
2, 239804, Note_off_c, 0, 93, 100
2, 239808, Note_on_c, 0, 90, 110
2, 239996, Note_off_c, 0, 90, 100
2, 240000, Note_on_c, 0, 86, 110
2, 240188, Note_off_c, 0, 86, 100
2, 240192, Note_on_c, 0, 88, 110
2, 240380, Note_off_c, 0, 88, 100
2, 240384, Note_on_c, 0, 90, 110
2, 240572, Note_off_c, 0, 90, 100
2, 240576, Note_on_c, 0, 86, 110
2, 240764, Note_off_c, 0, 86, 100
2, 240768, Note_on_c, 0, 91, 110
2, 240956, Note_off_c, 0, 91, 100
2, 240960, Note_on_c, 0, 86, 107
2, 241148, Note_off_c, 0, 86, 100
2, 241152, Note_on_c, 0, 91, 103
2, 241340, Note_off_c, 0, 91, 100
2, 241344, Note_on_c, 0, 86, 99
2, 241532, Note_off_c, 0, 86, 100
2, 241536, Note_on_c, 0, 83, 95
2, 241724, Note_off_c, 0, 83, 100
2, 241728, Note_on_c, 0, 79, 91
2, 241916, Note_off_c, 0, 79, 100
2, 241920, Note_on_c, 0, 81, 80
2, 242108, Note_off_c, 0, 81, 100
2, 242112, Note_on_c, 0, 84, 85
2, 242300, Note_off_c, 0, 84, 100
2, 242304, Note_on_c, 0, 90, 91
2, 242492, Note_off_c, 0, 90, 100
2, 242496, Note_on_c, 0, 84, 97
2, 242684, Note_off_c, 0, 84, 100
2, 242688, Note_on_c, 0, 93, 103
2, 242876, Note_off_c, 0, 93, 100
2, 242880, Note_on_c, 0, 90, 109
2, 243068, Note_off_c, 0, 90, 100
2, 243072, Note_on_c, 0, 93, 110
2, 243260, Note_off_c, 0, 93, 100
2, 243264, Note_on_c, 0, 90, 110
2, 243452, Note_off_c, 0, 90, 100
2, 243456, Note_on_c, 0, 93, 110
2, 243644, Note_off_c, 0, 93, 100
2, 243648, Note_on_c, 0, 90, 110
2, 243836, Note_off_c, 0, 90, 100
2, 243840, Note_on_c, 0, 93, 110
2, 244028, Note_off_c, 0, 93, 100
2, 244032, Note_on_c, 0, 90, 110
2, 244220, Note_off_c, 0, 90, 100
2, 244224, Note_on_c, 0, 93, 110
2, 244412, Note_off_c, 0, 93, 100
2, 244416, Note_on_c, 0, 90, 110
2, 244604, Note_off_c, 0, 90, 100
2, 244608, Note_on_c, 0, 86, 110
2, 244796, Note_off_c, 0, 86, 100
2, 244800, Note_on_c, 0, 88, 110
2, 244988, Note_off_c, 0, 88, 100
2, 244992, Note_on_c, 0, 90, 110
2, 245180, Note_off_c, 0, 90, 100
2, 245184, Note_on_c, 0, 86, 110
2, 245372, Note_off_c, 0, 86, 100
2, 245376, Note_on_c, 0, 91, 110
2, 245564, Note_off_c, 0, 91, 100
2, 245568, Note_on_c, 0, 86, 107
2, 245756, Note_off_c, 0, 86, 100
2, 245760, Note_on_c, 0, 91, 103
2, 245948, Note_off_c, 0, 91, 100
2, 245952, Note_on_c, 0, 86, 99
2, 246140, Note_off_c, 0, 86, 100
2, 246144, Note_on_c, 0, 83, 95
2, 246332, Note_off_c, 0, 83, 100
2, 246336, Note_on_c, 0, 79, 91
2, 246524, Note_off_c, 0, 79, 100
2, 246528, Note_on_c, 0, 88, 80
2, 246716, Note_off_c, 0, 88, 100
2, 246720, Note_on_c, 0, 84, 80
2, 246908, Note_off_c, 0, 84, 100
2, 246912, Note_on_c, 0, 88, 80
2, 247100, Note_off_c, 0, 88, 100
2, 247104, Note_on_c, 0, 84, 80
2, 247292, Note_off_c, 0, 84, 100
2, 247296, Note_on_c, 0, 79, 80
2, 247484, Note_off_c, 0, 79, 100
2, 247488, Note_on_c, 0, 76, 80
2, 247676, Note_off_c, 0, 76, 100
2, 247680, Note_on_c, 0, 74, 80
2, 248444, Note_off_c, 0, 74, 100
2, 248448, Note_on_c, 0, 83, 80
2, 248508, Note_off_c, 0, 83, 100
2, 248512, Note_on_c, 0, 81, 80
2, 248572, Note_off_c, 0, 81, 100
2, 248576, Note_on_c, 0, 83, 80
2, 248636, Note_off_c, 0, 83, 100
2, 248640, Note_on_c, 0, 81, 80
2, 248700, Note_off_c, 0, 81, 100
2, 248704, Note_on_c, 0, 79, 80
2, 248764, Note_off_c, 0, 79, 100
2, 248768, Note_on_c, 0, 81, 80
2, 248828, Note_off_c, 0, 81, 100
2, 248832, Note_on_c, 0, 79, 110
2, 249212, Note_off_c, 0, 79, 100
2, 249216, Note_on_c, 0, 86, 110
2, 249216, Note_on_c, 0, 74, 110
2, 249596, Note_off_c, 0, 86, 100
2, 249596, Note_off_c, 0, 74, 100
2, 249600, Note_on_c, 0, 79, 110
2, 249600, Note_on_c, 0, 67, 110
2, 249980, Note_off_c, 0, 79, 100
2, 249980, Note_off_c, 0, 67, 100
2, 250368, Note_on_c, 0, 84, 110
2, 250368, Note_on_c, 0, 72, 110
2, 250748, Note_off_c, 0, 84, 100
2, 250748, Note_off_c, 0, 72, 100
2, 250752, Note_on_c, 0, 78, 110
2, 250752, Note_on_c, 0, 66, 110
2, 251132, Note_off_c, 0, 78, 100
2, 251132, Note_off_c, 0, 66, 100
2, 251520, Note_on_c, 0, 74, 80
2, 251520, Note_on_c, 0, 62, 80
2, 251900, Note_off_c, 0, 74, 100
2, 251900, Note_off_c, 0, 62, 100
2, 251904, Note_on_c, 0, 71, 80
2, 251904, Note_on_c, 0, 59, 80
2, 252284, Note_off_c, 0, 71, 100
2, 252284, Note_off_c, 0, 59, 100
2, 252672, Note_on_c, 0, 72, 80
2, 252672, Note_on_c, 0, 60, 80
2, 253052, Note_off_c, 0, 72, 100
2, 253052, Note_off_c, 0, 60, 100
2, 253056, Note_on_c, 0, 69, 80
2, 253056, Note_on_c, 0, 57, 80
2, 253436, Note_off_c, 0, 69, 100
2, 253436, Note_off_c, 0, 57, 100
2, 253824, Note_on_c, 0, 83, 110
2, 253824, Note_on_c, 0, 71, 110
2, 254204, Note_off_c, 0, 83, 100
2, 254204, Note_off_c, 0, 71, 100
2, 254208, Note_on_c, 0, 80, 110
2, 254208, Note_on_c, 0, 68, 110
2, 254588, Note_off_c, 0, 80, 100
2, 254588, Note_off_c, 0, 68, 100
2, 254976, Note_on_c, 0, 81, 110
2, 254976, Note_on_c, 0, 69, 110
2, 255356, Note_off_c, 0, 81, 100
2, 255356, Note_off_c, 0, 69, 100
2, 255360, Note_on_c, 0, 78, 110
2, 255360, Note_on_c, 0, 66, 110
2, 255740, Note_off_c, 0, 78, 100
2, 255740, Note_off_c, 0, 66, 100
2, 255744, Note_on_c, 0, 76, 110
2, 255744, Note_on_c, 0, 64, 110
2, 256124, Note_off_c, 0, 76, 100
2, 256124, Note_off_c, 0, 64, 100
2, 256128, Note_on_c, 0, 80, 110
2, 256128, Note_on_c, 0, 68, 110
2, 256508, Note_off_c, 0, 80, 100
2, 256508, Note_off_c, 0, 68, 100
2, 256512, Note_on_c, 0, 76, 110
2, 256512, Note_on_c, 0, 64, 110
2, 256892, Note_off_c, 0, 76, 100
2, 256892, Note_off_c, 0, 64, 100
2, 256896, Note_on_c, 0, 83, 110
2, 256896, Note_on_c, 0, 71, 110
2, 257660, Note_off_c, 0, 83, 100
2, 257660, Note_off_c, 0, 71, 100
2, 257664, Note_on_c, 0, 81, 110
2, 257852, Note_off_c, 0, 81, 100
2, 257856, Note_on_c, 0, 80, 110
2, 258044, Note_off_c, 0, 80, 100
2, 258048, Note_on_c, 0, 78, 110
2, 258236, Note_off_c, 0, 78, 100
2, 258240, Note_on_c, 0, 76, 110
2, 258428, Note_off_c, 0, 76, 100
2, 258432, Note_on_c, 0, 75, 110
2, 258620, Note_off_c, 0, 75, 100
2, 258624, Note_on_c, 0, 76, 110
2, 258812, Note_off_c, 0, 76, 100
2, 258816, Note_on_c, 0, 80, 110
2, 259004, Note_off_c, 0, 80, 100
2, 259008, Note_on_c, 0, 76, 110
2, 259196, Note_off_c, 0, 76, 100
2, 259200, Note_on_c, 0, 75, 110
2, 259580, Note_off_c, 0, 75, 100
2, 259584, Note_on_c, 0, 73, 110
2, 259964, Note_off_c, 0, 73, 100
2, 259968, Note_on_c, 0, 71, 110
2, 260156, Note_off_c, 0, 71, 100
2, 260160, Note_on_c, 0, 69, 110
2, 260348, Note_off_c, 0, 69, 100
2, 260352, Note_on_c, 0, 68, 110
2, 260540, Note_off_c, 0, 68, 100
2, 260544, Note_on_c, 0, 66, 110
2, 260732, Note_off_c, 0, 66, 100
2, 260736, Note_on_c, 0, 65, 110
2, 260924, Note_off_c, 0, 65, 100
2, 260928, Note_on_c, 0, 66, 110
2, 261116, Note_off_c, 0, 66, 100
2, 261120, Note_on_c, 0, 69, 110
2, 261308, Note_off_c, 0, 69, 100
2, 261312, Note_on_c, 0, 66, 110
2, 261500, Note_off_c, 0, 66, 100
2, 261504, Note_on_c, 0, 63, 110
2, 262268, Note_off_c, 0, 63, 100
2, 262272, Note_on_c, 0, 66, 110
2, 262652, Note_off_c, 0, 66, 100
2, 262656, Note_on_c, 0, 69, 110
2, 263036, Note_off_c, 0, 69, 100
2, 263040, Note_on_c, 0, 66, 110
2, 263420, Note_off_c, 0, 66, 100
2, 263424, Note_on_c, 0, 63, 110
2, 263804, Note_off_c, 0, 63, 100
2, 263808, Note_on_c, 0, 64, 110
2, 263996, Note_off_c, 0, 64, 100
2, 264000, Note_on_c, 0, 59, 110
2, 264188, Note_off_c, 0, 59, 100
2, 264192, Note_on_c, 0, 68, 110
2, 264380, Note_off_c, 0, 68, 100
2, 264384, Note_on_c, 0, 59, 110
2, 264572, Note_off_c, 0, 59, 100
2, 264576, Note_on_c, 0, 64, 110
2, 264764, Note_off_c, 0, 64, 100
2, 264768, Note_on_c, 0, 59, 110
2, 264956, Note_off_c, 0, 59, 100
2, 264960, Note_on_c, 0, 64, 110
2, 265148, Note_off_c, 0, 64, 100
2, 265152, Note_on_c, 0, 59, 110
2, 265340, Note_off_c, 0, 59, 100
2, 265344, Note_on_c, 0, 68, 110
2, 265532, Note_off_c, 0, 68, 100
2, 265536, Note_on_c, 0, 59, 110
2, 265724, Note_off_c, 0, 59, 100
2, 265728, Note_on_c, 0, 64, 110
2, 265916, Note_off_c, 0, 64, 100
2, 265920, Note_on_c, 0, 59, 110
2, 266108, Note_off_c, 0, 59, 100
2, 266112, Note_on_c, 0, 64, 110
2, 266300, Note_off_c, 0, 64, 100
2, 266304, Note_on_c, 0, 59, 110
2, 266492, Note_off_c, 0, 59, 100
2, 266496, Note_on_c, 0, 68, 110
2, 266684, Note_off_c, 0, 68, 100
2, 266688, Note_on_c, 0, 59, 110
2, 266876, Note_off_c, 0, 59, 100
2, 266880, Note_on_c, 0, 64, 110
2, 267068, Note_off_c, 0, 64, 100
2, 267072, Note_on_c, 0, 59, 110
2, 267260, Note_off_c, 0, 59, 100
2, 267264, Note_on_c, 0, 63, 110
2, 267452, Note_off_c, 0, 63, 100
2, 267456, Note_on_c, 0, 59, 110
2, 267644, Note_off_c, 0, 59, 100
2, 267648, Note_on_c, 0, 66, 110
2, 267836, Note_off_c, 0, 66, 100
2, 267840, Note_on_c, 0, 59, 110
2, 268028, Note_off_c, 0, 59, 100
2, 268032, Note_on_c, 0, 63, 110
2, 268220, Note_off_c, 0, 63, 100
2, 268224, Note_on_c, 0, 59, 110
2, 268412, Note_off_c, 0, 59, 100
2, 268416, Note_on_c, 0, 63, 110
2, 268604, Note_off_c, 0, 63, 100
2, 268608, Note_on_c, 0, 59, 110
2, 268796, Note_off_c, 0, 59, 100
2, 268800, Note_on_c, 0, 66, 110
2, 268988, Note_off_c, 0, 66, 100
2, 268992, Note_on_c, 0, 59, 110
2, 269180, Note_off_c, 0, 59, 100
2, 269184, Note_on_c, 0, 63, 110
2, 269372, Note_off_c, 0, 63, 100
2, 269376, Note_on_c, 0, 59, 110
2, 269564, Note_off_c, 0, 59, 100
2, 269568, Note_on_c, 0, 63, 110
2, 269756, Note_off_c, 0, 63, 100
2, 269760, Note_on_c, 0, 59, 110
2, 269948, Note_off_c, 0, 59, 100
2, 269952, Note_on_c, 0, 66, 110
2, 270140, Note_off_c, 0, 66, 100
2, 270144, Note_on_c, 0, 59, 110
2, 270332, Note_off_c, 0, 59, 100
2, 270336, Note_on_c, 0, 63, 110
2, 270524, Note_off_c, 0, 63, 100
2, 270528, Note_on_c, 0, 59, 110
2, 270716, Note_off_c, 0, 59, 100
2, 270720, Note_on_c, 0, 63, 110
2, 270908, Note_off_c, 0, 63, 100
2, 270912, Note_on_c, 0, 59, 110
2, 271100, Note_off_c, 0, 59, 100
2, 271104, Note_on_c, 0, 66, 110
2, 271292, Note_off_c, 0, 66, 100
2, 271296, Note_on_c, 0, 59, 110
2, 271484, Note_off_c, 0, 59, 100
2, 271488, Note_on_c, 0, 63, 110
2, 271676, Note_off_c, 0, 63, 100
2, 271680, Note_on_c, 0, 59, 110
2, 271868, Note_off_c, 0, 59, 100
2, 271872, Note_on_c, 0, 64, 80
2, 272060, Note_off_c, 0, 64, 100
2, 272064, Note_on_c, 0, 59, 80
2, 272252, Note_off_c, 0, 59, 100
2, 272256, Note_on_c, 0, 64, 80
2, 272444, Note_off_c, 0, 64, 100
2, 272448, Note_on_c, 0, 59, 80
2, 272636, Note_off_c, 0, 59, 100
2, 272640, Note_on_c, 0, 64, 80
2, 272828, Note_off_c, 0, 64, 100
2, 272832, Note_on_c, 0, 59, 80
2, 273020, Note_off_c, 0, 59, 100
2, 273024, Note_on_c, 0, 60, 80
2, 273216, Note_on_c, 0, 55, 80
2, 273396, Note_off_c, 0, 60, 100
2, 273408, Note_on_c, 0, 64, 80
2, 273596, Note_off_c, 0, 55, 100
2, 273600, Note_on_c, 0, 55, 80
2, 273780, Note_off_c, 0, 64, 100
2, 273792, Note_on_c, 0, 60, 80
2, 273980, Note_off_c, 0, 55, 100
2, 273984, Note_on_c, 0, 55, 80
2, 274168, Note_off_c, 0, 60, 64
2, 274176, Note_on_c, 0, 60, 80
2, 274364, Note_off_c, 0, 55, 64
2, 274368, Note_on_c, 0, 55, 80
2, 274540, Note_off_c, 0, 60, 100
2, 274560, Note_on_c, 0, 64, 80
2, 274736, Note_off_c, 0, 55, 100
2, 274752, Note_on_c, 0, 55, 80
2, 274940, Note_off_c, 0, 64, 100
2, 274944, Note_on_c, 0, 60, 80
2, 275124, Note_off_c, 0, 55, 100
2, 275136, Note_on_c, 0, 55, 80
2, 275324, Note_off_c, 0, 60, 64
2, 275328, Note_on_c, 0, 60, 80
2, 275504, Note_off_c, 0, 55, 64
2, 275520, Note_on_c, 0, 55, 80
2, 275704, Note_off_c, 0, 60, 100
2, 275712, Note_on_c, 0, 64, 80
2, 275892, Note_off_c, 0, 55, 100
2, 275904, Note_on_c, 0, 55, 80
2, 276080, Note_off_c, 0, 64, 100
2, 276096, Note_on_c, 0, 60, 80
2, 276284, Note_off_c, 0, 55, 100
2, 276288, Note_on_c, 0, 55, 80
2, 276476, Note_off_c, 0, 60, 100
2, 276480, Note_on_c, 0, 59, 80
2, 276664, Note_off_c, 0, 55, 64
2, 276672, Note_on_c, 0, 55, 80
2, 276848, Note_off_c, 0, 59, 100
2, 276864, Note_on_c, 0, 62, 80
2, 277052, Note_off_c, 0, 55, 100
2, 277056, Note_on_c, 0, 55, 80
2, 277244, Note_off_c, 0, 62, 100
2, 277248, Note_on_c, 0, 59, 80
2, 277436, Note_off_c, 0, 55, 100
2, 277440, Note_on_c, 0, 55, 80
2, 277620, Note_off_c, 0, 59, 64
2, 277632, Note_on_c, 0, 59, 80
2, 277820, Note_off_c, 0, 55, 64
2, 277824, Note_on_c, 0, 55, 80
2, 278008, Note_off_c, 0, 59, 100
2, 278016, Note_on_c, 0, 62, 80
2, 278192, Note_off_c, 0, 55, 100
2, 278208, Note_on_c, 0, 55, 80
2, 278392, Note_off_c, 0, 62, 100
2, 278400, Note_on_c, 0, 59, 80
2, 278588, Note_off_c, 0, 55, 100
2, 278592, Note_on_c, 0, 55, 80
2, 278772, Note_off_c, 0, 59, 64
2, 278784, Note_on_c, 0, 59, 80
2, 278960, Note_off_c, 0, 55, 64
2, 278976, Note_on_c, 0, 55, 80
2, 279160, Note_off_c, 0, 59, 100
2, 279168, Note_on_c, 0, 62, 80
2, 279356, Note_off_c, 0, 55, 100
2, 279360, Note_on_c, 0, 55, 80
2, 279536, Note_off_c, 0, 62, 100
2, 279552, Note_on_c, 0, 59, 80
2, 279736, Note_off_c, 0, 55, 100
2, 279744, Note_on_c, 0, 55, 80
2, 279932, Note_off_c, 0, 59, 64
2, 279936, Note_on_c, 0, 59, 80
2, 280124, Note_off_c, 0, 55, 64
2, 280128, Note_on_c, 0, 55, 80
2, 280312, Note_off_c, 0, 59, 100
2, 280320, Note_on_c, 0, 62, 80
2, 280508, Note_off_c, 0, 55, 100
2, 280512, Note_on_c, 0, 55, 80
2, 280680, Note_off_c, 0, 62, 100
2, 280704, Note_on_c, 0, 59, 80
2, 280888, Note_off_c, 0, 55, 100
2, 280896, Note_on_c, 0, 55, 80
2, 281068, Note_off_c, 0, 59, 100
2, 281088, Note_on_c, 0, 60, 80
2, 281256, Note_off_c, 0, 55, 64
2, 281280, Note_on_c, 0, 55, 80
2, 281452, Note_off_c, 0, 60, 100
2, 281472, Note_on_c, 0, 60, 80
2, 281656, Note_off_c, 0, 55, 100
2, 281664, Note_on_c, 0, 55, 80
2, 281848, Note_off_c, 0, 60, 100
2, 281856, Note_on_c, 0, 60, 80
2, 282036, Note_off_c, 0, 55, 100
2, 282048, Note_on_c, 0, 55, 80
2, 282236, Note_off_c, 0, 60, 100
2, 282236, Note_off_c, 0, 55, 100
2, 282240, Note_on_c, 0, 60, 110
2, 282428, Note_off_c, 0, 60, 100
2, 282432, Note_on_c, 0, 55, 110
2, 282620, Note_off_c, 0, 55, 100
2, 282624, Note_on_c, 0, 54, 110
2, 282812, Note_off_c, 0, 54, 100
2, 282816, Note_on_c, 0, 55, 110
2, 283004, Note_off_c, 0, 55, 100
2, 283008, Note_on_c, 0, 59, 110
2, 283196, Note_off_c, 0, 59, 100
2, 283200, Note_on_c, 0, 60, 110
2, 283388, Note_off_c, 0, 60, 100
2, 283392, Note_on_c, 0, 62, 110
2, 283580, Note_off_c, 0, 62, 100
2, 283584, Note_on_c, 0, 55, 110
2, 283772, Note_off_c, 0, 55, 100
2, 283776, Note_on_c, 0, 54, 110
2, 283964, Note_off_c, 0, 54, 100
2, 283968, Note_on_c, 0, 55, 110
2, 284156, Note_off_c, 0, 55, 100
2, 284160, Note_on_c, 0, 60, 110
2, 284348, Note_off_c, 0, 60, 100
2, 284352, Note_on_c, 0, 62, 110
2, 284540, Note_off_c, 0, 62, 100
2, 284544, Note_on_c, 0, 64, 110
2, 284732, Note_off_c, 0, 64, 100
2, 284736, Note_on_c, 0, 60, 110
2, 284924, Note_off_c, 0, 60, 100
2, 284928, Note_on_c, 0, 59, 110
2, 285116, Note_off_c, 0, 59, 100
2, 285120, Note_on_c, 0, 60, 110
2, 285308, Note_off_c, 0, 60, 100
2, 285312, Note_on_c, 0, 65, 110
2, 285500, Note_off_c, 0, 65, 100
2, 285504, Note_on_c, 0, 67, 110
2, 285692, Note_off_c, 0, 67, 100
2, 285696, Note_on_c, 0, 69, 110
2, 285884, Note_off_c, 0, 69, 100
2, 285888, Note_on_c, 0, 67, 110
2, 286076, Note_off_c, 0, 67, 100
2, 286080, Note_on_c, 0, 65, 110
2, 286268, Note_off_c, 0, 65, 100
2, 286272, Note_on_c, 0, 64, 110
2, 286460, Note_off_c, 0, 64, 100
2, 286464, Note_on_c, 0, 62, 110
2, 286652, Note_off_c, 0, 62, 100
2, 286656, Note_on_c, 0, 60, 110
2, 286844, Note_off_c, 0, 60, 100
2, 286848, Note_on_c, 0, 59, 110
2, 287228, Note_off_c, 0, 59, 100
2, 287616, Note_on_c, 0, 77, 80
2, 287804, Note_off_c, 0, 77, 100
2, 287808, Note_on_c, 0, 79, 80
2, 287996, Note_off_c, 0, 79, 100
2, 288000, Note_on_c, 0, 81, 80
2, 288188, Note_off_c, 0, 81, 100
2, 288192, Note_on_c, 0, 79, 80
2, 288380, Note_off_c, 0, 79, 100
2, 288384, Note_on_c, 0, 77, 80
2, 288572, Note_off_c, 0, 77, 100
2, 288576, Note_on_c, 0, 76, 80
2, 288764, Note_off_c, 0, 76, 100
2, 288768, Note_on_c, 0, 74, 80
2, 288956, Note_off_c, 0, 74, 100
2, 288960, Note_on_c, 0, 72, 80
2, 289148, Note_off_c, 0, 72, 100
2, 289152, Note_on_c, 0, 71, 80
2, 289532, Note_off_c, 0, 71, 100
2, 289920, Note_on_c, 0, 65, 80
2, 290108, Note_off_c, 0, 65, 100
2, 290112, Note_on_c, 0, 67, 84
2, 290300, Note_off_c, 0, 67, 100
2, 290304, Note_on_c, 0, 68, 88
2, 290492, Note_off_c, 0, 68, 100
2, 290496, Note_on_c, 0, 67, 92
2, 290684, Note_off_c, 0, 67, 100
2, 290688, Note_on_c, 0, 65, 97
2, 290876, Note_off_c, 0, 65, 100
2, 290880, Note_on_c, 0, 63, 101
2, 291068, Note_off_c, 0, 63, 100
2, 291072, Note_on_c, 0, 62, 105
2, 291260, Note_off_c, 0, 62, 100
2, 291264, Note_on_c, 0, 67, 109
2, 291452, Note_off_c, 0, 67, 100
2, 291456, Note_on_c, 0, 60, 110
2, 291648, Note_on_c, 0, 55, 110
2, 291836, Note_off_c, 0, 60, 100
2, 291840, Note_on_c, 0, 63, 110
2, 292028, Note_off_c, 0, 55, 100
2, 292032, Note_on_c, 0, 55, 110
2, 292220, Note_off_c, 0, 63, 100
2, 292224, Note_on_c, 0, 60, 110
2, 292412, Note_off_c, 0, 55, 100
2, 292416, Note_on_c, 0, 55, 110
2, 292604, Note_off_c, 0, 60, 64
2, 292608, Note_on_c, 0, 60, 110
2, 292796, Note_off_c, 0, 55, 64
2, 292800, Note_on_c, 0, 55, 110
2, 292988, Note_off_c, 0, 60, 100
2, 292992, Note_on_c, 0, 63, 110
2, 293180, Note_off_c, 0, 55, 100
2, 293184, Note_on_c, 0, 55, 110
2, 293372, Note_off_c, 0, 63, 100
2, 293376, Note_on_c, 0, 60, 110
2, 293564, Note_off_c, 0, 55, 100
2, 293568, Note_on_c, 0, 55, 110
2, 293756, Note_off_c, 0, 60, 64
2, 293760, Note_on_c, 0, 60, 110
2, 293948, Note_off_c, 0, 55, 64
2, 293948, Note_off_c, 0, 60, 100
2, 293952, Note_on_c, 0, 55, 110
2, 294140, Note_off_c, 0, 55, 100
2, 294144, Note_on_c, 0, 63, 110
2, 294332, Note_off_c, 0, 63, 100
2, 294336, Note_on_c, 0, 55, 110
2, 294524, Note_off_c, 0, 55, 100
2, 294528, Note_on_c, 0, 60, 110
2, 294720, Note_on_c, 0, 55, 110
2, 294908, Note_off_c, 0, 60, 100
2, 294908, Note_off_c, 0, 55, 100
2, 294912, Note_on_c, 0, 59, 110
2, 295100, Note_off_c, 0, 59, 100
2, 295104, Note_on_c, 0, 55, 110
2, 295292, Note_off_c, 0, 55, 100
2, 295296, Note_on_c, 0, 62, 110
2, 295484, Note_off_c, 0, 62, 100
2, 295488, Note_on_c, 0, 55, 110
2, 295676, Note_off_c, 0, 55, 100
2, 295680, Note_on_c, 0, 59, 110
2, 295868, Note_off_c, 0, 59, 64
2, 295872, Note_on_c, 0, 55, 110
2, 296060, Note_off_c, 0, 55, 64
2, 296064, Note_on_c, 0, 59, 110
2, 296252, Note_off_c, 0, 59, 100
2, 296256, Note_on_c, 0, 55, 110
2, 296444, Note_off_c, 0, 55, 100
2, 296448, Note_on_c, 0, 62, 110
2, 296636, Note_off_c, 0, 62, 100
2, 296640, Note_on_c, 0, 55, 110
2, 296828, Note_off_c, 0, 55, 100
2, 296832, Note_on_c, 0, 59, 110
2, 297020, Note_off_c, 0, 59, 64
2, 297024, Note_on_c, 0, 55, 110
2, 297212, Note_off_c, 0, 55, 64
2, 297216, Note_on_c, 0, 59, 110
2, 297404, Note_off_c, 0, 59, 100
2, 297408, Note_on_c, 0, 55, 110
2, 297596, Note_off_c, 0, 55, 100
2, 297600, Note_on_c, 0, 62, 110
2, 297788, Note_off_c, 0, 62, 100
2, 297792, Note_on_c, 0, 55, 110
2, 297980, Note_off_c, 0, 55, 100
2, 297984, Note_on_c, 0, 59, 110
2, 298172, Note_off_c, 0, 59, 64
2, 298176, Note_on_c, 0, 55, 110
2, 298364, Note_off_c, 0, 55, 64
2, 298368, Note_on_c, 0, 59, 110
2, 298556, Note_off_c, 0, 59, 100
2, 298560, Note_on_c, 0, 55, 110
2, 298748, Note_off_c, 0, 55, 100
2, 298752, Note_on_c, 0, 62, 110
2, 298940, Note_off_c, 0, 62, 100
2, 298944, Note_on_c, 0, 55, 110
2, 299132, Note_off_c, 0, 55, 100
2, 299136, Note_on_c, 0, 59, 110
2, 299328, Note_on_c, 0, 55, 110
2, 299516, Note_off_c, 0, 59, 100
2, 299516, Note_off_c, 0, 55, 100
2, 299520, Note_on_c, 0, 60, 100
2, 299708, Note_off_c, 0, 60, 100
2, 299712, Note_on_c, 0, 55, 99
2, 299900, Note_off_c, 0, 55, 100
2, 299904, Note_on_c, 0, 60, 97
2, 300092, Note_off_c, 0, 60, 100
2, 300096, Note_on_c, 0, 55, 95
2, 300284, Note_off_c, 0, 55, 100
2, 300288, Note_on_c, 0, 62, 93
2, 300480, Note_on_c, 0, 58, 91
2, 300668, Note_off_c, 0, 62, 100
2, 300668, Note_off_c, 0, 58, 100
2, 300672, Note_on_c, 0, 63, 80
2, 300864, Note_on_c, 0, 58, 80
2, 301052, Note_off_c, 0, 63, 100
2, 301056, Note_on_c, 0, 67, 80
2, 301244, Note_off_c, 0, 58, 100
2, 301248, Note_on_c, 0, 58, 80
2, 301436, Note_off_c, 0, 67, 100
2, 301440, Note_on_c, 0, 63, 80
2, 301628, Note_off_c, 0, 58, 100
2, 301632, Note_on_c, 0, 58, 80
2, 301820, Note_off_c, 0, 63, 64
2, 301824, Note_on_c, 0, 63, 80
2, 302012, Note_off_c, 0, 58, 64
2, 302016, Note_on_c, 0, 58, 80
2, 302204, Note_off_c, 0, 63, 100
2, 302208, Note_on_c, 0, 67, 80
2, 302396, Note_off_c, 0, 58, 100
2, 302400, Note_on_c, 0, 58, 80
2, 302588, Note_off_c, 0, 67, 100
2, 302592, Note_on_c, 0, 63, 80
2, 302780, Note_off_c, 0, 58, 100
2, 302784, Note_on_c, 0, 58, 80
2, 302972, Note_off_c, 0, 63, 64
2, 302976, Note_on_c, 0, 63, 80
2, 303164, Note_off_c, 0, 58, 64
2, 303168, Note_on_c, 0, 58, 80
2, 303356, Note_off_c, 0, 63, 100
2, 303360, Note_on_c, 0, 67, 80
2, 303548, Note_off_c, 0, 58, 100
2, 303552, Note_on_c, 0, 58, 80
2, 303740, Note_off_c, 0, 67, 100
2, 303744, Note_on_c, 0, 63, 80
2, 303932, Note_off_c, 0, 58, 100
2, 303936, Note_on_c, 0, 58, 80
2, 304124, Note_off_c, 0, 63, 100
2, 304124, Note_off_c, 0, 58, 100
2, 304128, Note_on_c, 0, 62, 80
2, 304320, Note_on_c, 0, 58, 80
2, 304508, Note_off_c, 0, 62, 100
2, 304512, Note_on_c, 0, 65, 80
2, 304700, Note_off_c, 0, 58, 100
2, 304704, Note_on_c, 0, 58, 80
2, 304892, Note_off_c, 0, 65, 100
2, 304896, Note_on_c, 0, 62, 80
2, 305084, Note_off_c, 0, 58, 100
2, 305088, Note_on_c, 0, 58, 80
2, 305276, Note_off_c, 0, 62, 64
2, 305280, Note_on_c, 0, 62, 80
2, 305468, Note_off_c, 0, 58, 64
2, 305472, Note_on_c, 0, 58, 80
2, 305660, Note_off_c, 0, 62, 100
2, 305664, Note_on_c, 0, 65, 80
2, 305852, Note_off_c, 0, 58, 100
2, 305856, Note_on_c, 0, 58, 80
2, 306044, Note_off_c, 0, 65, 100
2, 306048, Note_on_c, 0, 62, 80
2, 306236, Note_off_c, 0, 58, 100
2, 306240, Note_on_c, 0, 58, 80
2, 306428, Note_off_c, 0, 62, 64
2, 306432, Note_on_c, 0, 62, 80
2, 306620, Note_off_c, 0, 58, 64
2, 306624, Note_on_c, 0, 58, 80
2, 306812, Note_off_c, 0, 62, 100
2, 306816, Note_on_c, 0, 65, 80
2, 307004, Note_off_c, 0, 58, 100
2, 307008, Note_on_c, 0, 58, 80
2, 307196, Note_off_c, 0, 65, 100
2, 307200, Note_on_c, 0, 62, 80
2, 307388, Note_off_c, 0, 58, 100
2, 307392, Note_on_c, 0, 58, 80
2, 307580, Note_off_c, 0, 62, 64
2, 307584, Note_on_c, 0, 62, 80
2, 307772, Note_off_c, 0, 58, 64
2, 307776, Note_on_c, 0, 58, 80
2, 307964, Note_off_c, 0, 62, 100
2, 307968, Note_on_c, 0, 65, 80
2, 308156, Note_off_c, 0, 58, 100
2, 308160, Note_on_c, 0, 58, 80
2, 308348, Note_off_c, 0, 65, 100
2, 308352, Note_on_c, 0, 62, 80
2, 308540, Note_off_c, 0, 58, 100
2, 308544, Note_on_c, 0, 58, 80
2, 308732, Note_off_c, 0, 62, 100
2, 308732, Note_off_c, 0, 58, 100
2, 308736, Note_on_c, 0, 63, 80
2, 308928, Note_on_c, 0, 58, 80
2, 309116, Note_off_c, 0, 63, 100
2, 309120, Note_on_c, 0, 63, 80
2, 309308, Note_off_c, 0, 58, 100
2, 309312, Note_on_c, 0, 58, 80
2, 309500, Note_off_c, 0, 63, 100
2, 309504, Note_on_c, 0, 63, 80
2, 309692, Note_off_c, 0, 58, 100
2, 309696, Note_on_c, 0, 58, 80
2, 309884, Note_off_c, 0, 63, 100
2, 309884, Note_off_c, 0, 58, 100
2, 309888, Note_on_c, 0, 63, 110
2, 310076, Note_off_c, 0, 63, 100
2, 310080, Note_on_c, 0, 58, 110
2, 310268, Note_off_c, 0, 58, 100
2, 310272, Note_on_c, 0, 57, 110
2, 310460, Note_off_c, 0, 57, 100
2, 310464, Note_on_c, 0, 58, 110
2, 310652, Note_off_c, 0, 58, 100
2, 310656, Note_on_c, 0, 62, 110
2, 310844, Note_off_c, 0, 62, 100
2, 310848, Note_on_c, 0, 63, 110
2, 311036, Note_off_c, 0, 63, 100
2, 311040, Note_on_c, 0, 65, 110
2, 311228, Note_off_c, 0, 65, 100
2, 311232, Note_on_c, 0, 58, 110
2, 311420, Note_off_c, 0, 58, 100
2, 311424, Note_on_c, 0, 57, 110
2, 311612, Note_off_c, 0, 57, 100
2, 311616, Note_on_c, 0, 58, 110
2, 311804, Note_off_c, 0, 58, 100
2, 311808, Note_on_c, 0, 63, 110
2, 311996, Note_off_c, 0, 63, 100
2, 312000, Note_on_c, 0, 65, 110
2, 312188, Note_off_c, 0, 65, 100
2, 312192, Note_on_c, 0, 67, 110
2, 312380, Note_off_c, 0, 67, 100
2, 312384, Note_on_c, 0, 63, 110
2, 312572, Note_off_c, 0, 63, 100
2, 312576, Note_on_c, 0, 62, 110
2, 312764, Note_off_c, 0, 62, 100
2, 312768, Note_on_c, 0, 63, 110
2, 312956, Note_off_c, 0, 63, 100
2, 312960, Note_on_c, 0, 68, 110
2, 313148, Note_off_c, 0, 68, 100
2, 313152, Note_on_c, 0, 70, 110
2, 313340, Note_off_c, 0, 70, 100
2, 313344, Note_on_c, 0, 72, 110
2, 313532, Note_off_c, 0, 72, 100
2, 313536, Note_on_c, 0, 70, 110
2, 313724, Note_off_c, 0, 70, 100
2, 313728, Note_on_c, 0, 68, 110
2, 313916, Note_off_c, 0, 68, 100
2, 313920, Note_on_c, 0, 67, 110
2, 314108, Note_off_c, 0, 67, 100
2, 314112, Note_on_c, 0, 65, 110
2, 314300, Note_off_c, 0, 65, 100
2, 314304, Note_on_c, 0, 63, 110
2, 314492, Note_off_c, 0, 63, 100
2, 314496, Note_on_c, 0, 62, 110
2, 314876, Note_off_c, 0, 62, 100
2, 315264, Note_on_c, 0, 80, 80
2, 315452, Note_off_c, 0, 80, 100
2, 315456, Note_on_c, 0, 82, 80
2, 315644, Note_off_c, 0, 82, 100
2, 315648, Note_on_c, 0, 84, 80
2, 315836, Note_off_c, 0, 84, 100
2, 315840, Note_on_c, 0, 82, 80
2, 316028, Note_off_c, 0, 82, 100
2, 316032, Note_on_c, 0, 80, 80
2, 316220, Note_off_c, 0, 80, 100
2, 316224, Note_on_c, 0, 79, 80
2, 316412, Note_off_c, 0, 79, 100
2, 316416, Note_on_c, 0, 77, 80
2, 316604, Note_off_c, 0, 77, 100
2, 316608, Note_on_c, 0, 75, 80
2, 316796, Note_off_c, 0, 75, 100
2, 316800, Note_on_c, 0, 74, 80
2, 317180, Note_off_c, 0, 74, 100
2, 317568, Note_on_c, 0, 60, 110
2, 317756, Note_off_c, 0, 60, 100
2, 317760, Note_on_c, 0, 62, 110
2, 317948, Note_off_c, 0, 62, 100
2, 317952, Note_on_c, 0, 63, 110
2, 318140, Note_off_c, 0, 63, 100
2, 318144, Note_on_c, 0, 62, 110
2, 318332, Note_off_c, 0, 62, 100
2, 318336, Note_on_c, 0, 60, 110
2, 318524, Note_off_c, 0, 60, 100
2, 318528, Note_on_c, 0, 58, 110
2, 318716, Note_off_c, 0, 58, 100
2, 318720, Note_on_c, 0, 57, 110
2, 318908, Note_off_c, 0, 57, 100
2, 318912, Note_on_c, 0, 55, 110
2, 319100, Note_off_c, 0, 55, 100
2, 319104, Note_on_c, 0, 54, 110
2, 319484, Note_off_c, 0, 54, 100
2, 319872, Note_on_c, 0, 84, 80
2, 320060, Note_off_c, 0, 84, 100
2, 320064, Note_on_c, 0, 86, 80
2, 320252, Note_off_c, 0, 86, 100
2, 320256, Note_on_c, 0, 87, 80
2, 320444, Note_off_c, 0, 87, 100
2, 320448, Note_on_c, 0, 86, 80
2, 320636, Note_off_c, 0, 86, 100
2, 320640, Note_on_c, 0, 84, 80
2, 320828, Note_off_c, 0, 84, 100
2, 320832, Note_on_c, 0, 82, 80
2, 321020, Note_off_c, 0, 82, 100
2, 321024, Note_on_c, 0, 81, 80
2, 321212, Note_off_c, 0, 81, 100
2, 321216, Note_on_c, 0, 79, 80
2, 321404, Note_off_c, 0, 79, 100
2, 321408, Note_on_c, 0, 78, 80
2, 321596, Note_off_c, 0, 78, 100
2, 321600, Note_on_c, 0, 75, 80
2, 321788, Note_off_c, 0, 75, 100
2, 321792, Note_on_c, 0, 74, 80
2, 321980, Note_off_c, 0, 74, 100
2, 321984, Note_on_c, 0, 72, 80
2, 322172, Note_off_c, 0, 72, 100
2, 322176, Note_on_c, 0, 70, 80
2, 322364, Note_off_c, 0, 70, 100
2, 322368, Note_on_c, 0, 69, 80
2, 322556, Note_off_c, 0, 69, 100
2, 322560, Note_on_c, 0, 67, 80
2, 322748, Note_off_c, 0, 67, 100
2, 322752, Note_on_c, 0, 66, 80
2, 322940, Note_off_c, 0, 66, 100
2, 322944, Note_on_c, 0, 67, 80
2, 323132, Note_off_c, 0, 67, 100
2, 323136, Note_on_c, 0, 69, 80
2, 323324, Note_off_c, 0, 69, 100
2, 323328, Note_on_c, 0, 70, 80
2, 323516, Note_off_c, 0, 70, 100
2, 323520, Note_on_c, 0, 67, 80
2, 323708, Note_off_c, 0, 67, 100
2, 323712, Note_on_c, 0, 62, 80
2, 323904, Note_on_c, 0, 57, 80
2, 324092, Note_off_c, 0, 62, 100
2, 324096, Note_on_c, 0, 66, 80
2, 324284, Note_off_c, 0, 57, 100
2, 324288, Note_on_c, 0, 57, 80
2, 324476, Note_off_c, 0, 66, 100
2, 324480, Note_on_c, 0, 62, 80
2, 324668, Note_off_c, 0, 57, 100
2, 324672, Note_on_c, 0, 57, 80
2, 324860, Note_off_c, 0, 62, 64
2, 324864, Note_on_c, 0, 62, 80
2, 325052, Note_off_c, 0, 57, 64
2, 325056, Note_on_c, 0, 57, 80
2, 325244, Note_off_c, 0, 62, 100
2, 325248, Note_on_c, 0, 66, 80
2, 325436, Note_off_c, 0, 57, 100
2, 325440, Note_on_c, 0, 57, 80
2, 325628, Note_off_c, 0, 66, 100
2, 325632, Note_on_c, 0, 62, 80
2, 325820, Note_off_c, 0, 57, 100
2, 325824, Note_on_c, 0, 57, 80
2, 326012, Note_off_c, 0, 62, 64
2, 326016, Note_on_c, 0, 62, 80
2, 326204, Note_off_c, 0, 57, 64
2, 326208, Note_on_c, 0, 57, 80
2, 326396, Note_off_c, 0, 62, 100
2, 326400, Note_on_c, 0, 66, 80
2, 326588, Note_off_c, 0, 57, 100
2, 326592, Note_on_c, 0, 57, 80
2, 326780, Note_off_c, 0, 66, 100
2, 326784, Note_on_c, 0, 62, 80
2, 326972, Note_off_c, 0, 57, 100
2, 326976, Note_on_c, 0, 57, 80
2, 327164, Note_off_c, 0, 62, 100
2, 327164, Note_off_c, 0, 57, 100
2, 327168, Note_on_c, 0, 61, 80
2, 327360, Note_on_c, 0, 57, 80
2, 327548, Note_off_c, 0, 61, 100
2, 327552, Note_on_c, 0, 64, 80
2, 327740, Note_off_c, 0, 57, 100
2, 327744, Note_on_c, 0, 57, 80
2, 327932, Note_off_c, 0, 64, 100
2, 327936, Note_on_c, 0, 61, 80
2, 328124, Note_off_c, 0, 57, 100
2, 328128, Note_on_c, 0, 57, 80
2, 328316, Note_off_c, 0, 61, 64
2, 328320, Note_on_c, 0, 61, 80
2, 328508, Note_off_c, 0, 57, 64
2, 328512, Note_on_c, 0, 57, 80
2, 328700, Note_off_c, 0, 61, 100
2, 328704, Note_on_c, 0, 64, 80
2, 328892, Note_off_c, 0, 57, 100
2, 328896, Note_on_c, 0, 57, 80
2, 329084, Note_off_c, 0, 64, 100
2, 329088, Note_on_c, 0, 61, 80
2, 329276, Note_off_c, 0, 57, 100
2, 329280, Note_on_c, 0, 57, 80
2, 329468, Note_off_c, 0, 61, 64
2, 329472, Note_on_c, 0, 61, 80
2, 329660, Note_off_c, 0, 57, 64
2, 329664, Note_on_c, 0, 57, 80
2, 329852, Note_off_c, 0, 61, 100
2, 329856, Note_on_c, 0, 64, 80
2, 330044, Note_off_c, 0, 57, 100
2, 330048, Note_on_c, 0, 57, 80
2, 330236, Note_off_c, 0, 64, 100
2, 330240, Note_on_c, 0, 61, 80
2, 330428, Note_off_c, 0, 57, 100
2, 330432, Note_on_c, 0, 57, 80
2, 330620, Note_off_c, 0, 61, 64
2, 330624, Note_on_c, 0, 61, 80
2, 330812, Note_off_c, 0, 57, 64
2, 330816, Note_on_c, 0, 57, 80
2, 331004, Note_off_c, 0, 61, 100
2, 331008, Note_on_c, 0, 64, 80
2, 331196, Note_off_c, 0, 57, 100
2, 331200, Note_on_c, 0, 57, 80
2, 331388, Note_off_c, 0, 64, 100
2, 331392, Note_on_c, 0, 61, 80
2, 331580, Note_off_c, 0, 57, 100
2, 331584, Note_on_c, 0, 57, 80
2, 331772, Note_off_c, 0, 61, 100
2, 331772, Note_off_c, 0, 57, 100
2, 331776, Note_on_c, 0, 62, 80
2, 331968, Note_on_c, 0, 57, 80
2, 332156, Note_off_c, 0, 62, 100
2, 332160, Note_on_c, 0, 69, 80
2, 332348, Note_off_c, 0, 57, 100
2, 332352, Note_on_c, 0, 62, 80
2, 332540, Note_off_c, 0, 69, 100
2, 332544, Note_on_c, 0, 69, 80
2, 332732, Note_off_c, 0, 62, 100
2, 332736, Note_on_c, 0, 66, 80
2, 332924, Note_off_c, 0, 69, 100
2, 332924, Note_off_c, 0, 66, 100
2, 332928, Note_on_c, 0, 74, 80
2, 332928, Note_on_c, 0, 69, 80
2, 333120, Note_on_c, 0, 62, 81
2, 333308, Note_off_c, 0, 74, 100
2, 333308, Note_off_c, 0, 69, 100
2, 333308, Note_off_c, 0, 62, 100
2, 333312, Note_on_c, 0, 74, 82
2, 333312, Note_on_c, 0, 69, 82
2, 333504, Note_on_c, 0, 62, 83
2, 333692, Note_off_c, 0, 74, 100
2, 333692, Note_off_c, 0, 69, 100
2, 333692, Note_off_c, 0, 62, 100
2, 333696, Note_on_c, 0, 74, 85
2, 333696, Note_on_c, 0, 69, 85
2, 333888, Note_on_c, 0, 62, 86
2, 334076, Note_off_c, 0, 74, 100
2, 334076, Note_off_c, 0, 69, 100
2, 334076, Note_off_c, 0, 62, 100
2, 334080, Note_on_c, 0, 74, 87
2, 334080, Note_on_c, 0, 69, 87
2, 334272, Note_on_c, 0, 62, 89
2, 334460, Note_off_c, 0, 74, 100
2, 334460, Note_off_c, 0, 69, 100
2, 334460, Note_off_c, 0, 62, 100
2, 334464, Note_on_c, 0, 74, 90
2, 334464, Note_on_c, 0, 69, 90
2, 334656, Note_on_c, 0, 62, 91
2, 334844, Note_off_c, 0, 74, 100
2, 334844, Note_off_c, 0, 69, 100
2, 334844, Note_off_c, 0, 62, 100
2, 334848, Note_on_c, 0, 74, 93
2, 334848, Note_on_c, 0, 69, 93
2, 335040, Note_on_c, 0, 62, 94
2, 335228, Note_off_c, 0, 74, 100
2, 335228, Note_off_c, 0, 69, 100
2, 335228, Note_off_c, 0, 62, 100
2, 335232, Note_on_c, 0, 72, 95
2, 335232, Note_on_c, 0, 69, 95
2, 335424, Note_on_c, 0, 62, 96
2, 335612, Note_off_c, 0, 72, 100
2, 335612, Note_off_c, 0, 69, 100
2, 335612, Note_off_c, 0, 62, 100
2, 335616, Note_on_c, 0, 72, 98
2, 335616, Note_on_c, 0, 69, 98
2, 335808, Note_on_c, 0, 62, 99
2, 335996, Note_off_c, 0, 72, 100
2, 335996, Note_off_c, 0, 69, 100
2, 335996, Note_off_c, 0, 62, 100
2, 336000, Note_on_c, 0, 72, 100
2, 336000, Note_on_c, 0, 69, 100
2, 336192, Note_on_c, 0, 62, 102
2, 336380, Note_off_c, 0, 72, 100
2, 336380, Note_off_c, 0, 69, 100
2, 336380, Note_off_c, 0, 62, 100
2, 336384, Note_on_c, 0, 72, 103
2, 336384, Note_on_c, 0, 69, 103
2, 336576, Note_on_c, 0, 62, 104
2, 336764, Note_off_c, 0, 72, 100
2, 336764, Note_off_c, 0, 69, 100
2, 336764, Note_off_c, 0, 62, 100
2, 336768, Note_on_c, 0, 72, 106
2, 336768, Note_on_c, 0, 69, 106
2, 336960, Note_on_c, 0, 62, 107
2, 337148, Note_off_c, 0, 72, 100
2, 337148, Note_off_c, 0, 69, 100
2, 337148, Note_off_c, 0, 62, 100
2, 337152, Note_on_c, 0, 72, 108
2, 337152, Note_on_c, 0, 69, 108
2, 337344, Note_on_c, 0, 62, 109
2, 337532, Note_off_c, 0, 72, 100
2, 337532, Note_off_c, 0, 69, 100
2, 337532, Note_off_c, 0, 62, 100
2, 337536, Note_on_c, 0, 79, 110
2, 337536, Note_on_c, 0, 67, 110
2, 337920, Note_on_c, 0, 83, 110
2, 337920, Note_on_c, 0, 71, 110
2, 338300, Note_off_c, 0, 79, 100
2, 338300, Note_off_c, 0, 67, 100
2, 338304, Note_on_c, 0, 79, 110
2, 338304, Note_on_c, 0, 67, 110
2, 338688, Note_on_c, 0, 86, 110
2, 338688, Note_on_c, 0, 74, 110
2, 339068, Note_off_c, 0, 71, 64
2, 339068, Note_off_c, 0, 83, 64
2, 339452, Note_off_c, 0, 67, 64
2, 339452, Note_off_c, 0, 79, 64
2, 339452, Note_off_c, 0, 86, 100
2, 339452, Note_off_c, 0, 74, 100
2, 339456, Note_on_c, 0, 84, 110
2, 339644, Note_off_c, 0, 84, 100
2, 339648, Note_on_c, 0, 83, 110
2, 339836, Note_off_c, 0, 83, 100
2, 339840, Note_on_c, 0, 81, 110
2, 340028, Note_off_c, 0, 81, 100
2, 340032, Note_on_c, 0, 79, 110
2, 340220, Note_off_c, 0, 79, 100
2, 340224, Note_on_c, 0, 78, 110
2, 340412, Note_off_c, 0, 78, 100
2, 340416, Note_on_c, 0, 79, 110
2, 340604, Note_off_c, 0, 79, 100
2, 340608, Note_on_c, 0, 83, 110
2, 340796, Note_off_c, 0, 83, 100
2, 340800, Note_on_c, 0, 79, 110
2, 340988, Note_off_c, 0, 79, 100
2, 340992, Note_on_c, 0, 78, 110
2, 341372, Note_off_c, 0, 78, 100
2, 341376, Note_on_c, 0, 76, 110
2, 341756, Note_off_c, 0, 76, 100
2, 341760, Note_on_c, 0, 74, 110
2, 341948, Note_off_c, 0, 74, 100
2, 341952, Note_on_c, 0, 72, 110
2, 342140, Note_off_c, 0, 72, 100
2, 342144, Note_on_c, 0, 71, 110
2, 342332, Note_off_c, 0, 71, 100
2, 342336, Note_on_c, 0, 69, 110
2, 342524, Note_off_c, 0, 69, 100
2, 342528, Note_on_c, 0, 68, 110
2, 342716, Note_off_c, 0, 68, 100
2, 342720, Note_on_c, 0, 69, 110
2, 342908, Note_off_c, 0, 69, 100
2, 342912, Note_on_c, 0, 72, 110
2, 343100, Note_off_c, 0, 72, 100
2, 343104, Note_on_c, 0, 69, 110
2, 343292, Note_off_c, 0, 69, 100
2, 343296, Note_on_c, 0, 66, 110
2, 344060, Note_off_c, 0, 66, 100
2, 344064, Note_on_c, 0, 71, 110
2, 344124, Note_off_c, 0, 71, 100
2, 344128, Note_on_c, 0, 69, 110
2, 344188, Note_off_c, 0, 69, 100
2, 344256, Note_on_c, 0, 68, 110
2, 344316, Note_off_c, 0, 68, 100
2, 344352, Note_on_c, 0, 69, 110
2, 344444, Note_off_c, 0, 69, 100
2, 344448, Note_on_c, 0, 72, 110
2, 344828, Note_off_c, 0, 72, 100
2, 344832, Note_on_c, 0, 69, 110
2, 345212, Note_off_c, 0, 69, 100
2, 345216, Note_on_c, 0, 66, 110
2, 345596, Note_off_c, 0, 66, 100
2, 345600, Note_on_c, 0, 67, 110
2, 345788, Note_off_c, 0, 67, 100
2, 345792, Note_on_c, 0, 62, 110
2, 345980, Note_off_c, 0, 62, 100
2, 345984, Note_on_c, 0, 61, 110
2, 346172, Note_off_c, 0, 61, 100
2, 346176, Note_on_c, 0, 62, 110
2, 346364, Note_off_c, 0, 62, 100
2, 346368, Note_on_c, 0, 66, 110
2, 346556, Note_off_c, 0, 66, 100
2, 346560, Note_on_c, 0, 67, 110
2, 346748, Note_off_c, 0, 67, 100
2, 346752, Note_on_c, 0, 69, 110
2, 346940, Note_off_c, 0, 69, 100
2, 346944, Note_on_c, 0, 62, 110
2, 347132, Note_off_c, 0, 62, 100
2, 347136, Note_on_c, 0, 61, 110
2, 347324, Note_off_c, 0, 61, 100
2, 347328, Note_on_c, 0, 62, 110
2, 347516, Note_off_c, 0, 62, 100
2, 347520, Note_on_c, 0, 67, 110
2, 347708, Note_off_c, 0, 67, 100
2, 347712, Note_on_c, 0, 69, 110
2, 347900, Note_off_c, 0, 69, 100
2, 347904, Note_on_c, 0, 71, 110
2, 348092, Note_off_c, 0, 71, 100
2, 348096, Note_on_c, 0, 67, 110
2, 348284, Note_off_c, 0, 67, 100
2, 348288, Note_on_c, 0, 66, 110
2, 348476, Note_off_c, 0, 66, 100
2, 348480, Note_on_c, 0, 67, 110
2, 348668, Note_off_c, 0, 67, 100
2, 348672, Note_on_c, 0, 69, 110
2, 348860, Note_off_c, 0, 69, 100
2, 348864, Note_on_c, 0, 71, 110
2, 349052, Note_off_c, 0, 71, 100
2, 349056, Note_on_c, 0, 72, 110
2, 349244, Note_off_c, 0, 72, 100
2, 349248, Note_on_c, 0, 67, 110
2, 349436, Note_off_c, 0, 67, 100
2, 349440, Note_on_c, 0, 66, 110
2, 349628, Note_off_c, 0, 66, 100
2, 349632, Note_on_c, 0, 67, 110
2, 349820, Note_off_c, 0, 67, 100
2, 349824, Note_on_c, 0, 71, 110
2, 350012, Note_off_c, 0, 71, 100
2, 350016, Note_on_c, 0, 72, 110
2, 350204, Note_off_c, 0, 72, 100
2, 350208, Note_on_c, 0, 74, 110
2, 350588, Note_off_c, 0, 74, 100
2, 350784, Note_on_c, 0, 62, 93
2, 350972, Note_off_c, 0, 62, 100
2, 350976, Note_on_c, 0, 67, 87
2, 351164, Note_off_c, 0, 67, 100
2, 351168, Note_on_c, 0, 71, 81
2, 351356, Note_off_c, 0, 71, 100
2, 351360, Note_on_c, 0, 74, 80
2, 351548, Note_off_c, 0, 74, 100
2, 351552, Note_on_c, 0, 67, 80
2, 351740, Note_off_c, 0, 67, 100
2, 351744, Note_on_c, 0, 71, 80
2, 351932, Note_off_c, 0, 71, 100
2, 351936, Note_on_c, 0, 74, 80
2, 352124, Note_off_c, 0, 74, 100
2, 352128, Note_on_c, 0, 79, 80
2, 352316, Note_off_c, 0, 79, 100
2, 352320, Note_on_c, 0, 71, 80
2, 352508, Note_off_c, 0, 71, 100
2, 352512, Note_on_c, 0, 74, 80
2, 352700, Note_off_c, 0, 74, 100
2, 352704, Note_on_c, 0, 79, 80
2, 352892, Note_off_c, 0, 79, 100
2, 352896, Note_on_c, 0, 83, 80
2, 353084, Note_off_c, 0, 83, 100
2, 353088, Note_on_c, 0, 74, 80
2, 353276, Note_off_c, 0, 74, 100
2, 353280, Note_on_c, 0, 79, 80
2, 353468, Note_off_c, 0, 79, 100
2, 353472, Note_on_c, 0, 83, 80
2, 353660, Note_off_c, 0, 83, 100
2, 353664, Note_on_c, 0, 86, 80
2, 353852, Note_off_c, 0, 86, 100
2, 353856, Note_on_c, 0, 84, 80
2, 354044, Note_off_c, 0, 84, 100
2, 354048, Note_on_c, 0, 83, 80
2, 354236, Note_off_c, 0, 83, 100
2, 354240, Note_on_c, 0, 81, 80
2, 354428, Note_off_c, 0, 81, 100
2, 354432, Note_on_c, 0, 79, 80
2, 354620, Note_off_c, 0, 79, 100
2, 354624, Note_on_c, 0, 77, 80
2, 354812, Note_off_c, 0, 77, 100
2, 354816, Note_on_c, 0, 76, 80
2, 355196, Note_off_c, 0, 76, 100
2, 355392, Note_on_c, 0, 64, 80
2, 355580, Note_off_c, 0, 64, 100
2, 355584, Note_on_c, 0, 67, 80
2, 355772, Note_off_c, 0, 67, 100
2, 355776, Note_on_c, 0, 72, 80
2, 355964, Note_off_c, 0, 72, 100
2, 355968, Note_on_c, 0, 76, 80
2, 356156, Note_off_c, 0, 76, 100
2, 356160, Note_on_c, 0, 64, 80
2, 356348, Note_off_c, 0, 64, 100
2, 356352, Note_on_c, 0, 67, 80
2, 356540, Note_off_c, 0, 67, 100
2, 356544, Note_on_c, 0, 72, 80
2, 356732, Note_off_c, 0, 72, 100
2, 356736, Note_on_c, 0, 76, 80
2, 356924, Note_off_c, 0, 76, 100
2, 356928, Note_on_c, 0, 67, 80
2, 357116, Note_off_c, 0, 67, 100
2, 357120, Note_on_c, 0, 72, 80
2, 357308, Note_off_c, 0, 72, 100
2, 357312, Note_on_c, 0, 76, 80
2, 357500, Note_off_c, 0, 76, 100
2, 357504, Note_on_c, 0, 79, 80
2, 357692, Note_off_c, 0, 79, 100
2, 357696, Note_on_c, 0, 72, 80
2, 357884, Note_off_c, 0, 72, 100
2, 357888, Note_on_c, 0, 76, 80
2, 358076, Note_off_c, 0, 76, 100
2, 358080, Note_on_c, 0, 79, 80
2, 358268, Note_off_c, 0, 79, 100
2, 358272, Note_on_c, 0, 84, 80
2, 358460, Note_off_c, 0, 84, 100
2, 358464, Note_on_c, 0, 76, 80
2, 358652, Note_off_c, 0, 76, 100
2, 358656, Note_on_c, 0, 79, 80
2, 358844, Note_off_c, 0, 79, 100
2, 358848, Note_on_c, 0, 84, 80
2, 359036, Note_off_c, 0, 84, 100
2, 359040, Note_on_c, 0, 88, 80
2, 359228, Note_off_c, 0, 88, 100
2, 359232, Note_on_c, 0, 86, 80
2, 359420, Note_off_c, 0, 86, 100
2, 359424, Note_on_c, 0, 85, 80
2, 359804, Note_off_c, 0, 85, 100
2, 360000, Note_on_c, 0, 61, 80
2, 360188, Note_off_c, 0, 61, 100
2, 360192, Note_on_c, 0, 64, 80
2, 360380, Note_off_c, 0, 64, 100
2, 360384, Note_on_c, 0, 67, 80
2, 360572, Note_off_c, 0, 67, 100
2, 360576, Note_on_c, 0, 73, 80
2, 360764, Note_off_c, 0, 73, 100
2, 360768, Note_on_c, 0, 64, 80
2, 360956, Note_off_c, 0, 64, 100
2, 360960, Note_on_c, 0, 67, 80
2, 361148, Note_off_c, 0, 67, 100
2, 361152, Note_on_c, 0, 73, 80
2, 361340, Note_off_c, 0, 73, 100
2, 361344, Note_on_c, 0, 76, 80
2, 361532, Note_off_c, 0, 76, 100
2, 361536, Note_on_c, 0, 67, 80
2, 361724, Note_off_c, 0, 67, 100
2, 361728, Note_on_c, 0, 73, 80
2, 361916, Note_off_c, 0, 73, 100
2, 361920, Note_on_c, 0, 76, 80
2, 362108, Note_off_c, 0, 76, 100
2, 362112, Note_on_c, 0, 79, 80
2, 362300, Note_off_c, 0, 79, 100
2, 362304, Note_on_c, 0, 73, 80
2, 362492, Note_off_c, 0, 73, 100
2, 362496, Note_on_c, 0, 76, 80
2, 362684, Note_off_c, 0, 76, 100
2, 362688, Note_on_c, 0, 79, 80
2, 362876, Note_off_c, 0, 79, 100
2, 362880, Note_on_c, 0, 85, 80
2, 363068, Note_off_c, 0, 85, 100
2, 363072, Note_on_c, 0, 88, 80
2, 363260, Note_off_c, 0, 88, 100
2, 363264, Note_on_c, 0, 81, 80
2, 363452, Note_off_c, 0, 81, 100
2, 363456, Note_on_c, 0, 83, 80
2, 363644, Note_off_c, 0, 83, 100
2, 363648, Note_on_c, 0, 81, 80
2, 363836, Note_off_c, 0, 81, 100
2, 363840, Note_on_c, 0, 83, 80
2, 364028, Note_off_c, 0, 83, 100
2, 364032, Note_on_c, 0, 81, 80
2, 364032, Note_on_c, 0, 78, 80
2, 365180, Note_off_c, 0, 81, 100
2, 365180, Note_off_c, 0, 78, 100
2, 365184, Note_on_c, 0, 79, 90
2, 365184, Note_on_c, 0, 81, 90
2, 366332, Note_off_c, 0, 79, 100
2, 366332, Note_off_c, 0, 81, 100
2, 366336, Note_on_c, 0, 81, 101
2, 366336, Note_on_c, 0, 84, 101
2, 367484, Note_off_c, 0, 81, 100
2, 367484, Note_off_c, 0, 84, 100
2, 367488, Note_on_c, 0, 83, 80
2, 367488, Note_on_c, 0, 79, 80
2, 367868, Note_off_c, 0, 83, 100
2, 367868, Note_off_c, 0, 79, 100
2, 367872, Note_on_c, 0, 83, 80
2, 367872, Note_on_c, 0, 79, 80
2, 368252, Note_off_c, 0, 83, 100
2, 368252, Note_off_c, 0, 79, 100
2, 368256, Note_on_c, 0, 83, 80
2, 368256, Note_on_c, 0, 79, 80
2, 368636, Note_off_c, 0, 83, 100
2, 368636, Note_off_c, 0, 79, 100
2, 368640, Note_on_c, 0, 81, 80
2, 368640, Note_on_c, 0, 78, 80
2, 369788, Note_off_c, 0, 81, 100
2, 369788, Note_off_c, 0, 78, 100
2, 369792, Note_on_c, 0, 79, 87
2, 369792, Note_on_c, 0, 81, 87
2, 370940, Note_off_c, 0, 79, 100
2, 370940, Note_off_c, 0, 81, 100
2, 370944, Note_on_c, 0, 81, 94
2, 370944, Note_on_c, 0, 84, 94
2, 372092, Note_off_c, 0, 81, 100
2, 372092, Note_off_c, 0, 84, 100
2, 372096, Note_on_c, 0, 83, 80
2, 372096, Note_on_c, 0, 79, 80
2, 372476, Note_off_c, 0, 83, 100
2, 372476, Note_off_c, 0, 79, 100
2, 372480, Note_on_c, 0, 83, 80
2, 372480, Note_on_c, 0, 79, 80
2, 372860, Note_off_c, 0, 83, 100
2, 372860, Note_off_c, 0, 79, 100
2, 372864, Note_on_c, 0, 83, 80
2, 372864, Note_on_c, 0, 79, 80
2, 373244, Note_off_c, 0, 83, 100
2, 373244, Note_off_c, 0, 79, 100
2, 373248, Note_on_c, 0, 81, 80
2, 373248, Note_on_c, 0, 78, 80
2, 373436, Note_off_c, 0, 81, 100
2, 373436, Note_off_c, 0, 78, 100
2, 373440, Note_on_c, 0, 79, 80
2, 373628, Note_off_c, 0, 79, 100
2, 373632, Note_on_c, 0, 81, 80
2, 373820, Note_off_c, 0, 81, 100
2, 373824, Note_on_c, 0, 83, 80
2, 374012, Note_off_c, 0, 83, 100
2, 374016, Note_on_c, 0, 85, 80
2, 374204, Note_off_c, 0, 85, 100
2, 374208, Note_on_c, 0, 86, 80
2, 374396, Note_off_c, 0, 86, 100
2, 374400, Note_on_c, 0, 85, 80
2, 374588, Note_off_c, 0, 85, 100
2, 374592, Note_on_c, 0, 83, 80
2, 374780, Note_off_c, 0, 83, 100
2, 374784, Note_on_c, 0, 81, 80
2, 374972, Note_off_c, 0, 81, 100
2, 374976, Note_on_c, 0, 79, 80
2, 375164, Note_off_c, 0, 79, 100
2, 375168, Note_on_c, 0, 78, 80
2, 375356, Note_off_c, 0, 78, 100
2, 375360, Note_on_c, 0, 76, 80
2, 375548, Note_off_c, 0, 76, 100
2, 375552, Note_on_c, 0, 79, 80
2, 375740, Note_off_c, 0, 79, 100
2, 375744, Note_on_c, 0, 81, 80
2, 375932, Note_off_c, 0, 81, 100
2, 375936, Note_on_c, 0, 83, 80
2, 376124, Note_off_c, 0, 83, 100
2, 376128, Note_on_c, 0, 85, 80
2, 376316, Note_off_c, 0, 85, 100
2, 376320, Note_on_c, 0, 86, 80
2, 376508, Note_off_c, 0, 86, 100
2, 376512, Note_on_c, 0, 88, 80
2, 376700, Note_off_c, 0, 88, 100
2, 376704, Note_on_c, 0, 86, 80
2, 376892, Note_off_c, 0, 86, 100
2, 376896, Note_on_c, 0, 84, 80
2, 377084, Note_off_c, 0, 84, 100
2, 377088, Note_on_c, 0, 83, 80
2, 377276, Note_off_c, 0, 83, 100
2, 377280, Note_on_c, 0, 81, 80
2, 377468, Note_off_c, 0, 81, 100
2, 377472, Note_on_c, 0, 79, 80
2, 377660, Note_off_c, 0, 79, 100
2, 377664, Note_on_c, 0, 78, 80
2, 377852, Note_off_c, 0, 78, 100
2, 377856, Note_on_c, 0, 81, 80
2, 378044, Note_off_c, 0, 81, 100
2, 378048, Note_on_c, 0, 84, 85
2, 378236, Note_off_c, 0, 84, 100
2, 378240, Note_on_c, 0, 90, 91
2, 378428, Note_off_c, 0, 90, 100
2, 378432, Note_on_c, 0, 84, 97
2, 378620, Note_off_c, 0, 84, 100
2, 378624, Note_on_c, 0, 93, 103
2, 378812, Note_off_c, 0, 93, 100
2, 378816, Note_on_c, 0, 90, 109
2, 379004, Note_off_c, 0, 90, 100
2, 379008, Note_on_c, 0, 93, 110
2, 379196, Note_off_c, 0, 93, 100
2, 379200, Note_on_c, 0, 90, 110
2, 379388, Note_off_c, 0, 90, 100
2, 379392, Note_on_c, 0, 93, 110
2, 379580, Note_off_c, 0, 93, 100
2, 379584, Note_on_c, 0, 90, 110
2, 379772, Note_off_c, 0, 90, 100
2, 379776, Note_on_c, 0, 93, 110
2, 379964, Note_off_c, 0, 93, 100
2, 379968, Note_on_c, 0, 90, 110
2, 380156, Note_off_c, 0, 90, 100
2, 380160, Note_on_c, 0, 93, 110
2, 380348, Note_off_c, 0, 93, 100
2, 380352, Note_on_c, 0, 90, 110
2, 380540, Note_off_c, 0, 90, 100
2, 380544, Note_on_c, 0, 86, 110
2, 380732, Note_off_c, 0, 86, 100
2, 380736, Note_on_c, 0, 88, 110
2, 380924, Note_off_c, 0, 88, 100
2, 380928, Note_on_c, 0, 90, 110
2, 381116, Note_off_c, 0, 90, 100
2, 381120, Note_on_c, 0, 86, 110
2, 381308, Note_off_c, 0, 86, 100
2, 381312, Note_on_c, 0, 91, 110
2, 381500, Note_off_c, 0, 91, 100
2, 381504, Note_on_c, 0, 86, 107
2, 381692, Note_off_c, 0, 86, 100
2, 381696, Note_on_c, 0, 91, 103
2, 381884, Note_off_c, 0, 91, 100
2, 381888, Note_on_c, 0, 86, 99
2, 382076, Note_off_c, 0, 86, 100
2, 382080, Note_on_c, 0, 83, 95
2, 382268, Note_off_c, 0, 83, 100
2, 382272, Note_on_c, 0, 79, 91
2, 382460, Note_off_c, 0, 79, 100
2, 382464, Note_on_c, 0, 81, 80
2, 382652, Note_off_c, 0, 81, 100
2, 382656, Note_on_c, 0, 84, 85
2, 382844, Note_off_c, 0, 84, 100
2, 382848, Note_on_c, 0, 90, 91
2, 383036, Note_off_c, 0, 90, 100
2, 383040, Note_on_c, 0, 84, 97
2, 383228, Note_off_c, 0, 84, 100
2, 383232, Note_on_c, 0, 93, 103
2, 383420, Note_off_c, 0, 93, 100
2, 383424, Note_on_c, 0, 90, 109
2, 383612, Note_off_c, 0, 90, 100
2, 383616, Note_on_c, 0, 93, 110
2, 383804, Note_off_c, 0, 93, 100
2, 383808, Note_on_c, 0, 90, 110
2, 383996, Note_off_c, 0, 90, 100
2, 384000, Note_on_c, 0, 93, 110
2, 384188, Note_off_c, 0, 93, 100
2, 384192, Note_on_c, 0, 90, 110
2, 384380, Note_off_c, 0, 90, 100
2, 384384, Note_on_c, 0, 93, 110
2, 384572, Note_off_c, 0, 93, 100
2, 384576, Note_on_c, 0, 90, 110
2, 384764, Note_off_c, 0, 90, 100
2, 384768, Note_on_c, 0, 93, 110
2, 384956, Note_off_c, 0, 93, 100
2, 384960, Note_on_c, 0, 90, 110
2, 385148, Note_off_c, 0, 90, 100
2, 385152, Note_on_c, 0, 86, 110
2, 385340, Note_off_c, 0, 86, 100
2, 385344, Note_on_c, 0, 88, 110
2, 385532, Note_off_c, 0, 88, 100
2, 385536, Note_on_c, 0, 90, 110
2, 385724, Note_off_c, 0, 90, 100
2, 385728, Note_on_c, 0, 86, 110
2, 385916, Note_off_c, 0, 86, 100
2, 385920, Note_on_c, 0, 91, 110
2, 386108, Note_off_c, 0, 91, 100
2, 386112, Note_on_c, 0, 86, 107
2, 386300, Note_off_c, 0, 86, 100
2, 386304, Note_on_c, 0, 91, 103
2, 386492, Note_off_c, 0, 91, 100
2, 386496, Note_on_c, 0, 86, 99
2, 386684, Note_off_c, 0, 86, 100
2, 386688, Note_on_c, 0, 83, 95
2, 386876, Note_off_c, 0, 83, 100
2, 386880, Note_on_c, 0, 79, 91
2, 387068, Note_off_c, 0, 79, 100
2, 387072, Note_on_c, 0, 88, 80
2, 387260, Note_off_c, 0, 88, 100
2, 387264, Note_on_c, 0, 84, 80
2, 387452, Note_off_c, 0, 84, 100
2, 387456, Note_on_c, 0, 88, 80
2, 387644, Note_off_c, 0, 88, 100
2, 387648, Note_on_c, 0, 84, 80
2, 387836, Note_off_c, 0, 84, 100
2, 387840, Note_on_c, 0, 79, 80
2, 388028, Note_off_c, 0, 79, 100
2, 388032, Note_on_c, 0, 76, 80
2, 388220, Note_off_c, 0, 76, 100
2, 388224, Note_on_c, 0, 74, 80
2, 388988, Note_off_c, 0, 74, 100
2, 388992, Note_on_c, 0, 83, 80
2, 389052, Note_off_c, 0, 83, 100
2, 389056, Note_on_c, 0, 81, 80
2, 389116, Note_off_c, 0, 81, 100
2, 389120, Note_on_c, 0, 83, 80
2, 389180, Note_off_c, 0, 83, 100
2, 389184, Note_on_c, 0, 81, 80
2, 389244, Note_off_c, 0, 81, 100
2, 389248, Note_on_c, 0, 79, 80
2, 389308, Note_off_c, 0, 79, 100
2, 389312, Note_on_c, 0, 81, 80
2, 389372, Note_off_c, 0, 81, 100
2, 389376, Note_on_c, 0, 79, 110
2, 389756, Note_off_c, 0, 79, 100
2, 389760, Note_on_c, 0, 86, 110
2, 389760, Note_on_c, 0, 74, 110
2, 390140, Note_off_c, 0, 86, 100
2, 390140, Note_off_c, 0, 74, 100
2, 390144, Note_on_c, 0, 79, 110
2, 390144, Note_on_c, 0, 67, 110
2, 390524, Note_off_c, 0, 79, 100
2, 390524, Note_off_c, 0, 67, 100
2, 390912, Note_on_c, 0, 84, 110
2, 390912, Note_on_c, 0, 72, 110
2, 391292, Note_off_c, 0, 84, 100
2, 391292, Note_off_c, 0, 72, 100
2, 391296, Note_on_c, 0, 78, 110
2, 391296, Note_on_c, 0, 66, 110
2, 391676, Note_off_c, 0, 78, 100
2, 391676, Note_off_c, 0, 66, 100
2, 392064, Note_on_c, 0, 74, 80
2, 392064, Note_on_c, 0, 62, 80
2, 392444, Note_off_c, 0, 74, 100
2, 392444, Note_off_c, 0, 62, 100
2, 392448, Note_on_c, 0, 67, 80
2, 392448, Note_on_c, 0, 55, 80
2, 392828, Note_off_c, 0, 67, 100
2, 392828, Note_off_c, 0, 55, 100
2, 393216, Note_on_c, 0, 72, 80
2, 393216, Note_on_c, 0, 60, 80
2, 393596, Note_off_c, 0, 72, 100
2, 393596, Note_off_c, 0, 60, 100
2, 393600, Note_on_c, 0, 66, 80
2, 393600, Note_on_c, 0, 54, 80
2, 393980, Note_off_c, 0, 66, 100
2, 393980, Note_off_c, 0, 54, 100
2, 394368, Note_on_c, 0, 86, 110
2, 394368, Note_on_c, 0, 74, 110
2, 394748, Note_off_c, 0, 86, 100
2, 394748, Note_off_c, 0, 74, 100
2, 394752, Note_on_c, 0, 79, 110
2, 394752, Note_on_c, 0, 67, 110
2, 395132, Note_off_c, 0, 79, 100
2, 395132, Note_off_c, 0, 67, 100
2, 395520, Note_on_c, 0, 84, 110
2, 395520, Note_on_c, 0, 72, 110
2, 395900, Note_off_c, 0, 84, 100
2, 395900, Note_off_c, 0, 72, 100
2, 395904, Note_on_c, 0, 78, 110
2, 395904, Note_on_c, 0, 66, 110
2, 396284, Note_off_c, 0, 78, 100
2, 396284, Note_off_c, 0, 66, 100
2, 396672, Note_on_c, 0, 74, 80
2, 396672, Note_on_c, 0, 62, 80
2, 397052, Note_off_c, 0, 74, 100
2, 397052, Note_off_c, 0, 62, 100
2, 397056, Note_on_c, 0, 67, 80
2, 397056, Note_on_c, 0, 55, 80
2, 397436, Note_off_c, 0, 67, 100
2, 397436, Note_off_c, 0, 55, 100
2, 397824, Note_on_c, 0, 72, 80
2, 397824, Note_on_c, 0, 60, 80
2, 398204, Note_off_c, 0, 72, 100
2, 398204, Note_off_c, 0, 60, 100
2, 398208, Note_on_c, 0, 66, 80
2, 398208, Note_on_c, 0, 54, 80
2, 398588, Note_off_c, 0, 66, 100
2, 398588, Note_off_c, 0, 54, 100
2, 398592, Note_on_c, 0, 71, 110
2, 398592, Note_on_c, 0, 67, 110
2, 398780, Note_off_c, 0, 71, 100
2, 398780, Note_off_c, 0, 67, 100
2, 398784, Note_on_c, 0, 62, 110
2, 398972, Note_off_c, 0, 62, 100
2, 398976, Note_on_c, 0, 71, 110
2, 398976, Note_on_c, 0, 67, 110
2, 399164, Note_off_c, 0, 71, 100
2, 399164, Note_off_c, 0, 67, 100
2, 399168, Note_on_c, 0, 62, 110
2, 399356, Note_off_c, 0, 62, 100
2, 399360, Note_on_c, 0, 71, 110
2, 399360, Note_on_c, 0, 67, 110
2, 399548, Note_off_c, 0, 71, 100
2, 399548, Note_off_c, 0, 67, 100
2, 399552, Note_on_c, 0, 62, 110
2, 399740, Note_off_c, 0, 62, 100
2, 399744, Note_on_c, 0, 71, 110
2, 399744, Note_on_c, 0, 67, 110
2, 399932, Note_off_c, 0, 71, 100
2, 399932, Note_off_c, 0, 67, 100
2, 399936, Note_on_c, 0, 62, 110
2, 400124, Note_off_c, 0, 62, 100
2, 400128, Note_on_c, 0, 71, 110
2, 400128, Note_on_c, 0, 67, 110
2, 400316, Note_off_c, 0, 71, 100
2, 400316, Note_off_c, 0, 67, 100
2, 400320, Note_on_c, 0, 62, 110
2, 400508, Note_off_c, 0, 62, 100
2, 400512, Note_on_c, 0, 71, 110
2, 400512, Note_on_c, 0, 67, 110
2, 400700, Note_off_c, 0, 71, 100
2, 400700, Note_off_c, 0, 67, 100
2, 400704, Note_on_c, 0, 62, 110
2, 400892, Note_off_c, 0, 62, 100
2, 400896, Note_on_c, 0, 71, 110
2, 400896, Note_on_c, 0, 67, 110
2, 401084, Note_off_c, 0, 71, 100
2, 401084, Note_off_c, 0, 67, 100
2, 401088, Note_on_c, 0, 62, 110
2, 401276, Note_off_c, 0, 62, 100
2, 401280, Note_on_c, 0, 71, 110
2, 401280, Note_on_c, 0, 67, 110
2, 401468, Note_off_c, 0, 71, 100
2, 401468, Note_off_c, 0, 67, 100
2, 401472, Note_on_c, 0, 62, 110
2, 401660, Note_off_c, 0, 62, 100
2, 401664, Note_on_c, 0, 71, 110
2, 401664, Note_on_c, 0, 67, 110
2, 401852, Note_off_c, 0, 71, 100
2, 401852, Note_off_c, 0, 67, 100
2, 401856, Note_on_c, 0, 62, 110
2, 402044, Note_off_c, 0, 62, 100
2, 402048, Note_on_c, 0, 72, 110
2, 402048, Note_on_c, 0, 67, 110
2, 402236, Note_off_c, 0, 72, 100
2, 402236, Note_off_c, 0, 67, 100
2, 402240, Note_on_c, 0, 60, 110
2, 402428, Note_off_c, 0, 60, 100
2, 402432, Note_on_c, 0, 72, 110
2, 402432, Note_on_c, 0, 67, 110
2, 402620, Note_off_c, 0, 72, 100
2, 402620, Note_off_c, 0, 67, 100
2, 402624, Note_on_c, 0, 60, 110
2, 402812, Note_off_c, 0, 60, 100
2, 402816, Note_on_c, 0, 72, 110
2, 402816, Note_on_c, 0, 67, 110
2, 403004, Note_off_c, 0, 72, 100
2, 403004, Note_off_c, 0, 67, 100
2, 403008, Note_on_c, 0, 60, 110
2, 403196, Note_off_c, 0, 60, 100
2, 403200, Note_on_c, 0, 69, 110
2, 403580, Note_off_c, 0, 69, 100
2, 403584, Note_on_c, 0, 72, 110
2, 403964, Note_off_c, 0, 72, 100
2, 403968, Note_on_c, 0, 69, 110
2, 404348, Note_off_c, 0, 69, 100
2, 404352, Note_on_c, 0, 76, 110
2, 405116, Note_off_c, 0, 76, 100
2, 405120, Note_on_c, 0, 74, 110
2, 405308, Note_off_c, 0, 74, 100
2, 405312, Note_on_c, 0, 72, 110
2, 405500, Note_off_c, 0, 72, 100
2, 405504, Note_on_c, 0, 71, 110
2, 405692, Note_off_c, 0, 71, 100
2, 405696, Note_on_c, 0, 69, 110
2, 405884, Note_off_c, 0, 69, 100
2, 405888, Note_on_c, 0, 72, 110
2, 406076, Note_off_c, 0, 72, 100
2, 406080, Note_on_c, 0, 69, 110
2, 406268, Note_off_c, 0, 69, 100
2, 406272, Note_on_c, 0, 66, 110
2, 406460, Note_off_c, 0, 66, 100
2, 406464, Note_on_c, 0, 69, 110
2, 406652, Note_off_c, 0, 69, 100
2, 406656, Note_on_c, 0, 69, 110
2, 407036, Note_off_c, 0, 69, 100
2, 407040, Note_on_c, 0, 67, 110
2, 407420, Note_off_c, 0, 67, 100
2, 407424, Note_on_c, 0, 67, 110
2, 407804, Note_off_c, 0, 67, 100
2, 407808, Note_on_c, 0, 74, 110
2, 407808, Note_on_c, 0, 71, 110
2, 407996, Note_off_c, 0, 74, 100
2, 407996, Note_off_c, 0, 71, 100
2, 408000, Note_on_c, 0, 67, 110
2, 408188, Note_off_c, 0, 67, 100
2, 408192, Note_on_c, 0, 74, 110
2, 408192, Note_on_c, 0, 71, 110
2, 408380, Note_off_c, 0, 74, 100
2, 408380, Note_off_c, 0, 71, 100
2, 408384, Note_on_c, 0, 67, 110
2, 408572, Note_off_c, 0, 67, 100
2, 408576, Note_on_c, 0, 74, 110
2, 408576, Note_on_c, 0, 71, 110
2, 408764, Note_off_c, 0, 74, 100
2, 408764, Note_off_c, 0, 71, 100
2, 408768, Note_on_c, 0, 67, 110
2, 408956, Note_off_c, 0, 67, 100
2, 408960, Note_on_c, 0, 74, 110
2, 408960, Note_on_c, 0, 71, 110
2, 409148, Note_off_c, 0, 74, 100
2, 409148, Note_off_c, 0, 71, 100
2, 409152, Note_on_c, 0, 67, 110
2, 409340, Note_off_c, 0, 67, 100
2, 409344, Note_on_c, 0, 74, 110
2, 409344, Note_on_c, 0, 71, 110
2, 409532, Note_off_c, 0, 74, 100
2, 409532, Note_off_c, 0, 71, 100
2, 409536, Note_on_c, 0, 67, 110
2, 409724, Note_off_c, 0, 67, 100
2, 409728, Note_on_c, 0, 74, 110
2, 409728, Note_on_c, 0, 71, 110
2, 409916, Note_off_c, 0, 74, 100
2, 409916, Note_off_c, 0, 71, 100
2, 409920, Note_on_c, 0, 67, 110
2, 410108, Note_off_c, 0, 67, 100
2, 410112, Note_on_c, 0, 74, 110
2, 410112, Note_on_c, 0, 71, 110
2, 410300, Note_off_c, 0, 74, 100
2, 410300, Note_off_c, 0, 71, 100
2, 410304, Note_on_c, 0, 67, 110
2, 410492, Note_off_c, 0, 67, 100
2, 410496, Note_on_c, 0, 74, 110
2, 410496, Note_on_c, 0, 71, 110
2, 410684, Note_off_c, 0, 74, 100
2, 410684, Note_off_c, 0, 71, 100
2, 410688, Note_on_c, 0, 67, 110
2, 410876, Note_off_c, 0, 67, 100
2, 410880, Note_on_c, 0, 74, 110
2, 410880, Note_on_c, 0, 71, 110
2, 411068, Note_off_c, 0, 74, 100
2, 411068, Note_off_c, 0, 71, 100
2, 411072, Note_on_c, 0, 67, 110
2, 411260, Note_off_c, 0, 67, 100
2, 411264, Note_on_c, 0, 79, 110
2, 411264, Note_on_c, 0, 72, 110
2, 411452, Note_off_c, 0, 79, 100
2, 411452, Note_off_c, 0, 72, 100
2, 411456, Note_on_c, 0, 67, 110
2, 411644, Note_off_c, 0, 67, 100
2, 411648, Note_on_c, 0, 79, 110
2, 411648, Note_on_c, 0, 72, 110
2, 411836, Note_off_c, 0, 79, 100
2, 411836, Note_off_c, 0, 72, 100
2, 411840, Note_on_c, 0, 67, 110
2, 412028, Note_off_c, 0, 67, 100
2, 412032, Note_on_c, 0, 79, 110
2, 412032, Note_on_c, 0, 72, 110
2, 412220, Note_off_c, 0, 79, 100
2, 412220, Note_off_c, 0, 72, 100
2, 412224, Note_on_c, 0, 67, 110
2, 412412, Note_off_c, 0, 67, 100
2, 412416, Note_on_c, 0, 80, 110
2, 412508, Note_off_c, 0, 80, 100
2, 412512, Note_on_c, 0, 81, 110
2, 412796, Note_off_c, 0, 81, 100
2, 412800, Note_on_c, 0, 83, 110
2, 412892, Note_off_c, 0, 83, 100
2, 412896, Note_on_c, 0, 84, 110
2, 413180, Note_off_c, 0, 84, 100
2, 413184, Note_on_c, 0, 80, 110
2, 413276, Note_off_c, 0, 80, 100
2, 413280, Note_on_c, 0, 81, 110
2, 413564, Note_off_c, 0, 81, 100
2, 413568, Note_on_c, 0, 87, 110
2, 413660, Note_off_c, 0, 87, 100
2, 413664, Note_on_c, 0, 88, 110
2, 414332, Note_off_c, 0, 88, 100
2, 414336, Note_on_c, 0, 86, 110
2, 414524, Note_off_c, 0, 86, 100
2, 414528, Note_on_c, 0, 84, 110
2, 414716, Note_off_c, 0, 84, 100
2, 414720, Note_on_c, 0, 83, 110
2, 414908, Note_off_c, 0, 83, 100
2, 414912, Note_on_c, 0, 81, 110
2, 415100, Note_off_c, 0, 81, 100
2, 415104, Note_on_c, 0, 84, 110
2, 415292, Note_off_c, 0, 84, 100
2, 415296, Note_on_c, 0, 81, 110
2, 415484, Note_off_c, 0, 81, 100
2, 415488, Note_on_c, 0, 78, 110
2, 415676, Note_off_c, 0, 78, 100
2, 415680, Note_on_c, 0, 81, 110
2, 415868, Note_off_c, 0, 81, 100
2, 415872, Note_on_c, 0, 79, 104
2, 416060, Note_off_c, 0, 79, 100
2, 416064, Note_on_c, 0, 74, 93
2, 416252, Note_off_c, 0, 74, 100
2, 416256, Note_on_c, 0, 83, 80
2, 416444, Note_off_c, 0, 83, 100
2, 416448, Note_on_c, 0, 79, 80
2, 416636, Note_off_c, 0, 79, 100
2, 416640, Note_on_c, 0, 74, 80
2, 416828, Note_off_c, 0, 74, 100
2, 416832, Note_on_c, 0, 71, 80
2, 417020, Note_off_c, 0, 71, 100
2, 417024, Note_on_c, 0, 79, 80
2, 417212, Note_off_c, 0, 79, 100
2, 417216, Note_on_c, 0, 74, 80
2, 417404, Note_off_c, 0, 74, 100
2, 417408, Note_on_c, 0, 83, 80
2, 417596, Note_off_c, 0, 83, 100
2, 417600, Note_on_c, 0, 79, 80
2, 417788, Note_off_c, 0, 79, 100
2, 417792, Note_on_c, 0, 74, 80
2, 417980, Note_off_c, 0, 74, 100
2, 417984, Note_on_c, 0, 71, 80
2, 418172, Note_off_c, 0, 71, 100
2, 418176, Note_on_c, 0, 79, 80
2, 418364, Note_off_c, 0, 79, 100
2, 418368, Note_on_c, 0, 74, 80
2, 418556, Note_off_c, 0, 74, 100
2, 418560, Note_on_c, 0, 83, 80
2, 418748, Note_off_c, 0, 83, 100
2, 418752, Note_on_c, 0, 79, 80
2, 418940, Note_off_c, 0, 79, 100
2, 418944, Note_on_c, 0, 74, 80
2, 419132, Note_off_c, 0, 74, 100
2, 419136, Note_on_c, 0, 71, 80
2, 419324, Note_off_c, 0, 71, 100
2, 419328, Note_on_c, 0, 78, 80
2, 419516, Note_off_c, 0, 78, 100
2, 419520, Note_on_c, 0, 74, 80
2, 419708, Note_off_c, 0, 74, 100
2, 419712, Note_on_c, 0, 81, 80
2, 419900, Note_off_c, 0, 81, 100
2, 419904, Note_on_c, 0, 78, 80
2, 420092, Note_off_c, 0, 78, 100
2, 420096, Note_on_c, 0, 74, 80
2, 420284, Note_off_c, 0, 74, 100
2, 420288, Note_on_c, 0, 72, 80
2, 420476, Note_off_c, 0, 72, 100
2, 420480, Note_on_c, 0, 74, 80
2, 420668, Note_off_c, 0, 74, 100
2, 420672, Note_on_c, 0, 71, 80
2, 420860, Note_off_c, 0, 71, 100
2, 420864, Note_on_c, 0, 79, 80
2, 421052, Note_off_c, 0, 79, 100
2, 421056, Note_on_c, 0, 74, 80
2, 421244, Note_off_c, 0, 74, 100
2, 421248, Note_on_c, 0, 71, 80
2, 421436, Note_off_c, 0, 71, 100
2, 421440, Note_on_c, 0, 67, 80
2, 421628, Note_off_c, 0, 67, 100
2, 421632, Note_on_c, 0, 74, 80
2, 421820, Note_off_c, 0, 74, 100
2, 421824, Note_on_c, 0, 71, 80
2, 422012, Note_off_c, 0, 71, 100
2, 422016, Note_on_c, 0, 79, 80
2, 422204, Note_off_c, 0, 79, 100
2, 422208, Note_on_c, 0, 74, 80
2, 422396, Note_off_c, 0, 74, 100
2, 422400, Note_on_c, 0, 71, 80
2, 422588, Note_off_c, 0, 71, 100
2, 422592, Note_on_c, 0, 67, 80
2, 422780, Note_off_c, 0, 67, 100
2, 422784, Note_on_c, 0, 74, 80
2, 422972, Note_off_c, 0, 74, 100
2, 422976, Note_on_c, 0, 71, 80
2, 423164, Note_off_c, 0, 71, 100
2, 423168, Note_on_c, 0, 79, 80
2, 423356, Note_off_c, 0, 79, 100
2, 423360, Note_on_c, 0, 74, 80
2, 423548, Note_off_c, 0, 74, 100
2, 423552, Note_on_c, 0, 71, 80
2, 423740, Note_off_c, 0, 71, 100
2, 423744, Note_on_c, 0, 67, 80
2, 423932, Note_off_c, 0, 67, 100
2, 423936, Note_on_c, 0, 72, 80
2, 424124, Note_off_c, 0, 72, 100
2, 424128, Note_on_c, 0, 69, 80
2, 424316, Note_off_c, 0, 69, 100
2, 424320, Note_on_c, 0, 74, 80
2, 424508, Note_off_c, 0, 74, 100
2, 424512, Note_on_c, 0, 72, 80
2, 424700, Note_off_c, 0, 72, 100
2, 424704, Note_on_c, 0, 69, 80
2, 424892, Note_off_c, 0, 69, 100
2, 424896, Note_on_c, 0, 66, 80
2, 425084, Note_off_c, 0, 66, 100
2, 425088, Note_on_c, 0, 67, 80
2, 425468, Note_off_c, 0, 67, 100
2, 425664, Note_on_c, 0, 55, 80
2, 425852, Note_off_c, 0, 55, 100
2, 425856, Note_on_c, 0, 59, 80
2, 426044, Note_off_c, 0, 59, 100
2, 426048, Note_on_c, 0, 62, 80
2, 426236, Note_off_c, 0, 62, 100
2, 426240, Note_on_c, 0, 67, 80
2, 426428, Note_off_c, 0, 67, 100
2, 426432, Note_on_c, 0, 71, 80
2, 426620, Note_off_c, 0, 71, 100
2, 426624, Note_on_c, 0, 74, 80
2, 426812, Note_off_c, 0, 74, 100
2, 426816, Note_on_c, 0, 79, 80
2, 427004, Note_off_c, 0, 79, 100
2, 427008, Note_on_c, 0, 83, 80
2, 427196, Note_off_c, 0, 83, 100
2, 427200, Note_on_c, 0, 86, 80
2, 427388, Note_off_c, 0, 86, 100
2, 427392, Note_on_c, 0, 91, 80
2, 428156, Note_off_c, 0, 91, 100
2, 429696, Control_c, 0, 7, 0
2, 430080, Note_on_c, 0, 67, 1
2, 430460, Note_off_c, 0, 67, 100
2, 430460, End_track
3, 0, Start_track
3, 0, Title_t, "Left"
3, 0, Control_c, 1, 0, 0
3, 0, Program_c, 1, 0
3, 0, Control_c, 1, 7, 100
3, 0, Control_c, 1, 10, 53
3, 0, Control_c, 1, 91, 127
3, 0, Key_signature, 1, "major"
3, 0, Note_on_c, 1, 59, 100
3, 0, Note_on_c, 1, 55, 100
3, 188, Note_off_c, 1, 59, 100
3, 188, Note_off_c, 1, 55, 100
3, 192, Note_on_c, 1, 62, 100
3, 380, Note_off_c, 1, 62, 100
3, 384, Note_on_c, 1, 59, 100
3, 384, Note_on_c, 1, 55, 100
3, 572, Note_off_c, 1, 59, 100
3, 572, Note_off_c, 1, 55, 100
3, 576, Note_on_c, 1, 62, 100
3, 764, Note_off_c, 1, 62, 100
3, 768, Note_on_c, 1, 59, 100
3, 768, Note_on_c, 1, 55, 100
3, 956, Note_off_c, 1, 59, 100
3, 956, Note_off_c, 1, 55, 100
3, 960, Note_on_c, 1, 62, 100
3, 1148, Note_off_c, 1, 62, 100
3, 1152, Note_on_c, 1, 59, 100
3, 1152, Note_on_c, 1, 55, 100
3, 1340, Note_off_c, 1, 59, 100
3, 1340, Note_off_c, 1, 55, 100
3, 1344, Note_on_c, 1, 62, 100
3, 1532, Note_off_c, 1, 62, 100
3, 1536, Note_on_c, 1, 59, 100
3, 1536, Note_on_c, 1, 55, 100
3, 1724, Note_off_c, 1, 59, 100
3, 1724, Note_off_c, 1, 55, 100
3, 1728, Note_on_c, 1, 62, 100
3, 1916, Note_off_c, 1, 62, 100
3, 1920, Note_on_c, 1, 59, 100
3, 1920, Note_on_c, 1, 55, 100
3, 2108, Note_off_c, 1, 59, 100
3, 2108, Note_off_c, 1, 55, 100
3, 2112, Note_on_c, 1, 62, 100
3, 2300, Note_off_c, 1, 62, 100
3, 2304, Note_on_c, 1, 59, 100
3, 2304, Note_on_c, 1, 55, 100
3, 2492, Note_off_c, 1, 59, 100
3, 2492, Note_off_c, 1, 55, 100
3, 2496, Note_on_c, 1, 62, 100
3, 2684, Note_off_c, 1, 62, 100
3, 2688, Note_on_c, 1, 59, 100
3, 2688, Note_on_c, 1, 55, 100
3, 2876, Note_off_c, 1, 59, 100
3, 2876, Note_off_c, 1, 55, 100
3, 2880, Note_on_c, 1, 62, 100
3, 3068, Note_off_c, 1, 62, 100
3, 3072, Note_on_c, 1, 59, 100
3, 3072, Note_on_c, 1, 55, 100
3, 3260, Note_off_c, 1, 59, 100
3, 3260, Note_off_c, 1, 55, 100
3, 3264, Note_on_c, 1, 62, 100
3, 3452, Note_off_c, 1, 62, 100
3, 3456, Note_on_c, 1, 60, 100
3, 3456, Note_on_c, 1, 55, 100
3, 3644, Note_off_c, 1, 60, 100
3, 3644, Note_off_c, 1, 55, 100
3, 3648, Note_on_c, 1, 64, 100
3, 3836, Note_off_c, 1, 64, 100
3, 3840, Note_on_c, 1, 60, 100
3, 3840, Note_on_c, 1, 55, 100
3, 4028, Note_off_c, 1, 60, 100
3, 4028, Note_off_c, 1, 55, 100
3, 4032, Note_on_c, 1, 64, 100
3, 4220, Note_off_c, 1, 64, 100
3, 4224, Note_on_c, 1, 60, 100
3, 4224, Note_on_c, 1, 55, 100
3, 4412, Note_off_c, 1, 60, 100
3, 4412, Note_off_c, 1, 55, 100
3, 4416, Note_on_c, 1, 64, 100
3, 4604, Note_off_c, 1, 64, 100
3, 4608, Note_on_c, 1, 60, 100
3, 4608, Note_on_c, 1, 55, 100
3, 4796, Note_off_c, 1, 60, 100
3, 4796, Note_off_c, 1, 55, 100
3, 4800, Note_on_c, 1, 64, 100
3, 4988, Note_off_c, 1, 64, 100
3, 4992, Note_on_c, 1, 60, 100
3, 4992, Note_on_c, 1, 55, 100
3, 5180, Note_off_c, 1, 60, 100
3, 5180, Note_off_c, 1, 55, 100
3, 5184, Note_on_c, 1, 64, 100
3, 5372, Note_off_c, 1, 64, 100
3, 5376, Note_on_c, 1, 60, 100
3, 5376, Note_on_c, 1, 55, 100
3, 5564, Note_off_c, 1, 60, 100
3, 5564, Note_off_c, 1, 55, 100
3, 5568, Note_on_c, 1, 64, 100
3, 5756, Note_off_c, 1, 64, 100
3, 5760, Note_on_c, 1, 60, 100
3, 5760, Note_on_c, 1, 57, 100
3, 5760, Note_on_c, 1, 55, 100
3, 5948, Note_off_c, 1, 60, 100
3, 5948, Note_off_c, 1, 57, 100
3, 5948, Note_off_c, 1, 55, 100
3, 5952, Note_on_c, 1, 62, 100
3, 6140, Note_off_c, 1, 62, 100
3, 6144, Note_on_c, 1, 60, 100
3, 6144, Note_on_c, 1, 57, 100
3, 6144, Note_on_c, 1, 55, 100
3, 6332, Note_off_c, 1, 60, 100
3, 6332, Note_off_c, 1, 57, 100
3, 6332, Note_off_c, 1, 55, 100
3, 6336, Note_on_c, 1, 62, 100
3, 6524, Note_off_c, 1, 62, 100
3, 6528, Note_on_c, 1, 60, 100
3, 6528, Note_on_c, 1, 57, 100
3, 6528, Note_on_c, 1, 55, 100
3, 6716, Note_off_c, 1, 60, 100
3, 6716, Note_off_c, 1, 57, 100
3, 6716, Note_off_c, 1, 55, 100
3, 6720, Note_on_c, 1, 62, 100
3, 6908, Note_off_c, 1, 62, 100
3, 6912, Note_on_c, 1, 60, 100
3, 6912, Note_on_c, 1, 57, 100
3, 6912, Note_on_c, 1, 55, 100
3, 7100, Note_off_c, 1, 60, 100
3, 7100, Note_off_c, 1, 57, 100
3, 7100, Note_off_c, 1, 55, 100
3, 7104, Note_on_c, 1, 62, 100
3, 7292, Note_off_c, 1, 62, 100
3, 7296, Note_on_c, 1, 60, 100
3, 7296, Note_on_c, 1, 57, 100
3, 7296, Note_on_c, 1, 55, 100
3, 7484, Note_off_c, 1, 60, 100
3, 7484, Note_off_c, 1, 57, 100
3, 7484, Note_off_c, 1, 55, 100
3, 7488, Note_on_c, 1, 62, 100
3, 7676, Note_off_c, 1, 62, 100
3, 7680, Note_on_c, 1, 60, 100
3, 7680, Note_on_c, 1, 57, 100
3, 7680, Note_on_c, 1, 55, 100
3, 7868, Note_off_c, 1, 60, 100
3, 7868, Note_off_c, 1, 57, 100
3, 7868, Note_off_c, 1, 55, 100
3, 7872, Note_on_c, 1, 62, 100
3, 8060, Note_off_c, 1, 62, 100
3, 8064, Note_on_c, 1, 59, 100
3, 8064, Note_on_c, 1, 55, 100
3, 9212, Note_off_c, 1, 59, 100
3, 9212, Note_off_c, 1, 55, 100
3, 9216, Note_on_c, 1, 54, 100
3, 9216, Note_on_c, 1, 50, 100
3, 9216, Note_on_c, 1, 50, 100
3, 9216, Note_on_c, 1, 42, 100
3, 10364, Note_off_c, 1, 54, 100
3, 10364, Note_off_c, 1, 50, 100
3, 10364, Note_off_c, 1, 50, 100
3, 10364, Note_off_c, 1, 42, 100
3, 10368, Note_on_c, 1, 55, 100
3, 10368, Note_on_c, 1, 50, 100
3, 10368, Note_on_c, 1, 43, 100
3, 11132, Note_off_c, 1, 55, 100
3, 11132, Note_off_c, 1, 50, 100
3, 11132, Note_off_c, 1, 43, 100
3, 11136, Note_on_c, 1, 57, 100
3, 11136, Note_on_c, 1, 45, 100
3, 11324, Note_off_c, 1, 57, 100
3, 11324, Note_off_c, 1, 45, 100
3, 11328, Note_on_c, 1, 59, 100
3, 11328, Note_on_c, 1, 47, 100
3, 11516, Note_off_c, 1, 59, 100
3, 11516, Note_off_c, 1, 47, 100
3, 11520, Note_on_c, 1, 60, 100
3, 11520, Note_on_c, 1, 48, 100
3, 11900, Note_off_c, 1, 60, 100
3, 11900, Note_off_c, 1, 48, 100
3, 11904, Note_on_c, 1, 60, 100
3, 11904, Note_on_c, 1, 48, 100
3, 12284, Note_off_c, 1, 60, 100
3, 12284, Note_off_c, 1, 48, 100
3, 12288, Note_on_c, 1, 61, 100
3, 12288, Note_on_c, 1, 49, 100
3, 12668, Note_off_c, 1, 61, 100
3, 12668, Note_off_c, 1, 49, 100
3, 12672, Note_on_c, 1, 62, 100
3, 12672, Note_on_c, 1, 50, 100
3, 12860, Note_off_c, 1, 62, 100
3, 12860, Note_off_c, 1, 50, 100
3, 12864, Note_on_c, 1, 50, 80
3, 13052, Note_off_c, 1, 50, 100
3, 13056, Note_on_c, 1, 54, 80
3, 13244, Note_off_c, 1, 54, 100
3, 13248, Note_on_c, 1, 57, 80
3, 13436, Note_off_c, 1, 57, 100
3, 17280, Note_on_c, 1, 47, 80
3, 17468, Note_off_c, 1, 47, 100
3, 17472, Note_on_c, 1, 50, 80
3, 17660, Note_off_c, 1, 50, 100
3, 17664, Note_on_c, 1, 54, 80
3, 17852, Note_off_c, 1, 54, 100
3, 17856, Note_on_c, 1, 59, 80
3, 18044, Note_off_c, 1, 59, 100
3, 21888, Note_on_c, 1, 44, 80
3, 22076, Note_off_c, 1, 44, 100
3, 22080, Note_on_c, 1, 47, 80
3, 22268, Note_off_c, 1, 47, 100
3, 22272, Note_on_c, 1, 50, 80
3, 22460, Note_off_c, 1, 50, 100
3, 22464, Note_on_c, 1, 52, 80
3, 22652, Note_off_c, 1, 52, 100
3, 22656, Note_on_c, 1, 56, 80
3, 23036, Note_off_c, 1, 56, 100
3, 25728, Note_on_c, 1, 56, 80
3, 25728, Note_on_c, 1, 59, 80
3, 26108, Note_off_c, 1, 56, 100
3, 26108, Note_off_c, 1, 59, 100
3, 26112, Note_on_c, 1, 62, 80
3, 26112, Note_on_c, 1, 59, 80
3, 26492, Note_off_c, 1, 62, 100
3, 26492, Note_off_c, 1, 59, 100
3, 26496, Note_on_c, 1, 57, 80
3, 26496, Note_on_c, 1, 61, 80
3, 26684, Note_off_c, 1, 61, 100
3, 26688, Note_on_c, 1, 62, 81
3, 26876, Note_off_c, 1, 57, 100
3, 26876, Note_off_c, 1, 62, 100
3, 26880, Note_on_c, 1, 64, 82
3, 27068, Note_off_c, 1, 64, 100
3, 27072, Note_on_c, 1, 66, 83
3, 27260, Note_off_c, 1, 66, 100
3, 27264, Note_on_c, 1, 68, 84
3, 27452, Note_off_c, 1, 68, 100
3, 27456, Note_on_c, 1, 69, 85
3, 27644, Note_off_c, 1, 69, 100
3, 27648, Note_on_c, 1, 68, 87
3, 27836, Note_off_c, 1, 68, 100
3, 27840, Note_on_c, 1, 66, 88
3, 28028, Note_off_c, 1, 66, 100
3, 28032, Note_on_c, 1, 64, 89
3, 28220, Note_off_c, 1, 64, 100
3, 28224, Note_on_c, 1, 62, 90
3, 28412, Note_off_c, 1, 62, 100
3, 28416, Note_on_c, 1, 61, 91
3, 28604, Note_off_c, 1, 61, 100
3, 28608, Note_on_c, 1, 59, 92
3, 28796, Note_off_c, 1, 59, 100
3, 28800, Note_on_c, 1, 57, 94
3, 28988, Note_off_c, 1, 57, 100
3, 28992, Note_on_c, 1, 55, 95
3, 29180, Note_off_c, 1, 55, 100
3, 29184, Note_on_c, 1, 54, 96
3, 29372, Note_off_c, 1, 54, 100
3, 29376, Note_on_c, 1, 52, 97
3, 29564, Note_off_c, 1, 52, 100
3, 29568, Note_on_c, 1, 50, 98
3, 29756, Note_off_c, 1, 50, 100
3, 29760, Note_on_c, 1, 49, 99
3, 29948, Note_off_c, 1, 49, 100
3, 29952, Note_on_c, 1, 50, 80
3, 30140, Note_off_c, 1, 50, 100
3, 30144, Note_on_c, 1, 52, 80
3, 30332, Note_off_c, 1, 52, 100
3, 30336, Note_on_c, 1, 54, 80
3, 30524, Note_off_c, 1, 54, 100
3, 30528, Note_on_c, 1, 56, 80
3, 30716, Note_off_c, 1, 56, 100
3, 30720, Note_on_c, 1, 57, 80
3, 30908, Note_off_c, 1, 57, 100
3, 30912, Note_on_c, 1, 59, 80
3, 31100, Note_off_c, 1, 59, 100
3, 31104, Note_on_c, 1, 57, 80
3, 31104, Note_on_c, 1, 61, 80
3, 31292, Note_off_c, 1, 61, 100
3, 31296, Note_on_c, 1, 62, 81
3, 31484, Note_off_c, 1, 57, 100
3, 31484, Note_off_c, 1, 62, 100
3, 31488, Note_on_c, 1, 64, 82
3, 31676, Note_off_c, 1, 64, 100
3, 31680, Note_on_c, 1, 66, 83
3, 31868, Note_off_c, 1, 66, 100
3, 31872, Note_on_c, 1, 68, 84
3, 32060, Note_off_c, 1, 68, 100
3, 32064, Note_on_c, 1, 69, 85
3, 32252, Note_off_c, 1, 69, 100
3, 32256, Note_on_c, 1, 68, 87
3, 32444, Note_off_c, 1, 68, 100
3, 32448, Note_on_c, 1, 66, 88
3, 32636, Note_off_c, 1, 66, 100
3, 32640, Note_on_c, 1, 64, 89
3, 32828, Note_off_c, 1, 64, 100
3, 32832, Note_on_c, 1, 62, 90
3, 33020, Note_off_c, 1, 62, 100
3, 33024, Note_on_c, 1, 61, 91
3, 33212, Note_off_c, 1, 61, 100
3, 33216, Note_on_c, 1, 59, 92
3, 33404, Note_off_c, 1, 59, 100
3, 33408, Note_on_c, 1, 57, 94
3, 33596, Note_off_c, 1, 57, 100
3, 33600, Note_on_c, 1, 55, 95
3, 33788, Note_off_c, 1, 55, 100
3, 33792, Note_on_c, 1, 54, 96
3, 33980, Note_off_c, 1, 54, 100
3, 33984, Note_on_c, 1, 52, 97
3, 34172, Note_off_c, 1, 52, 100
3, 34176, Note_on_c, 1, 50, 98
3, 34364, Note_off_c, 1, 50, 100
3, 34368, Note_on_c, 1, 49, 99
3, 34556, Note_off_c, 1, 49, 100
3, 34560, Note_on_c, 1, 50, 80
3, 34748, Note_off_c, 1, 50, 100
3, 34752, Note_on_c, 1, 52, 80
3, 34940, Note_off_c, 1, 52, 100
3, 34944, Note_on_c, 1, 54, 80
3, 35132, Note_off_c, 1, 54, 100
3, 35136, Note_on_c, 1, 56, 80
3, 35324, Note_off_c, 1, 56, 100
3, 35328, Note_on_c, 1, 57, 80
3, 35516, Note_off_c, 1, 57, 100
3, 35520, Note_on_c, 1, 59, 80
3, 35708, Note_off_c, 1, 59, 100
3, 35712, Note_on_c, 1, 64, 80
3, 35712, Note_on_c, 1, 61, 80
3, 35712, Note_on_c, 1, 57, 80
3, 36860, Note_off_c, 1, 64, 100
3, 36860, Note_off_c, 1, 61, 100
3, 36864, Note_on_c, 1, 62, 80
3, 36864, Note_on_c, 1, 59, 80
3, 38012, Note_off_c, 1, 57, 100
3, 38012, Note_off_c, 1, 62, 100
3, 38012, Note_off_c, 1, 59, 100
3, 38016, Note_on_c, 1, 68, 80
3, 38016, Note_on_c, 1, 62, 80
3, 38016, Note_on_c, 1, 57, 80
3, 39164, Note_off_c, 1, 68, 100
3, 39164, Note_off_c, 1, 62, 100
3, 39168, Note_on_c, 1, 64, 80
3, 39168, Note_on_c, 1, 61, 80
3, 40316, Note_off_c, 1, 57, 100
3, 40316, Note_off_c, 1, 64, 100
3, 40316, Note_off_c, 1, 61, 100
3, 40320, Note_on_c, 1, 67, 80
3, 40320, Note_on_c, 1, 64, 80
3, 40320, Note_on_c, 1, 61, 80
3, 40320, Note_on_c, 1, 57, 80
3, 41468, Note_off_c, 1, 67, 100
3, 41468, Note_off_c, 1, 64, 100
3, 41468, Note_off_c, 1, 61, 100
3, 41468, Note_off_c, 1, 57, 100
3, 41472, Note_on_c, 1, 67, 110
3, 41472, Note_on_c, 1, 64, 110
3, 41472, Note_on_c, 1, 61, 110
3, 41472, Note_on_c, 1, 58, 110
3, 42620, Note_off_c, 1, 67, 100
3, 42620, Note_off_c, 1, 64, 100
3, 42620, Note_off_c, 1, 61, 100
3, 42620, Note_off_c, 1, 58, 100
3, 42624, Note_on_c, 1, 67, 110
3, 42624, Note_on_c, 1, 64, 110
3, 42624, Note_on_c, 1, 61, 110
3, 42624, Note_on_c, 1, 57, 110
3, 43388, Note_off_c, 1, 67, 100
3, 43388, Note_off_c, 1, 64, 100
3, 43388, Note_off_c, 1, 61, 100
3, 43388, Note_off_c, 1, 57, 100
3, 43392, Note_on_c, 1, 64, 110
3, 43392, Note_on_c, 1, 61, 110
3, 43392, Note_on_c, 1, 55, 110
3, 43772, Note_off_c, 1, 64, 100
3, 43772, Note_off_c, 1, 61, 100
3, 43772, Note_off_c, 1, 55, 100
3, 43776, Note_on_c, 1, 62, 110
3, 43776, Note_on_c, 1, 57, 110
3, 43776, Note_on_c, 1, 54, 110
3, 44540, Note_off_c, 1, 62, 100
3, 44540, Note_off_c, 1, 57, 100
3, 44540, Note_off_c, 1, 54, 100
3, 44544, Note_on_c, 1, 62, 95
3, 44544, Note_on_c, 1, 57, 95
3, 44544, Note_on_c, 1, 50, 95
3, 44924, Note_off_c, 1, 62, 100
3, 44924, Note_off_c, 1, 57, 100
3, 44924, Note_off_c, 1, 50, 100
3, 44928, Note_on_c, 1, 67, 80
3, 44928, Note_on_c, 1, 64, 80
3, 44928, Note_on_c, 1, 61, 80
3, 44928, Note_on_c, 1, 57, 80
3, 46076, Note_off_c, 1, 67, 100
3, 46076, Note_off_c, 1, 64, 100
3, 46076, Note_off_c, 1, 61, 100
3, 46076, Note_off_c, 1, 57, 100
3, 46080, Note_on_c, 1, 67, 110
3, 46080, Note_on_c, 1, 64, 110
3, 46080, Note_on_c, 1, 61, 110
3, 46080, Note_on_c, 1, 58, 110
3, 47228, Note_off_c, 1, 67, 100
3, 47228, Note_off_c, 1, 64, 100
3, 47228, Note_off_c, 1, 61, 100
3, 47228, Note_off_c, 1, 58, 100
3, 47232, Note_on_c, 1, 67, 110
3, 47232, Note_on_c, 1, 64, 110
3, 47232, Note_on_c, 1, 61, 110
3, 47232, Note_on_c, 1, 57, 110
3, 47996, Note_off_c, 1, 67, 100
3, 47996, Note_off_c, 1, 64, 100
3, 47996, Note_off_c, 1, 61, 100
3, 47996, Note_off_c, 1, 57, 100
3, 48000, Note_on_c, 1, 64, 110
3, 48000, Note_on_c, 1, 61, 110
3, 48000, Note_on_c, 1, 55, 110
3, 48380, Note_off_c, 1, 64, 100
3, 48380, Note_off_c, 1, 61, 100
3, 48380, Note_off_c, 1, 55, 100
3, 48384, Note_on_c, 1, 62, 110
3, 48384, Note_on_c, 1, 57, 110
3, 48384, Note_on_c, 1, 54, 110
3, 49148, Note_off_c, 1, 62, 100
3, 49148, Note_off_c, 1, 57, 100
3, 49148, Note_off_c, 1, 54, 100
3, 49152, Note_on_c, 1, 62, 95
3, 49152, Note_on_c, 1, 57, 95
3, 49152, Note_on_c, 1, 50, 95
3, 49532, Note_off_c, 1, 62, 100
3, 49532, Note_off_c, 1, 57, 100
3, 49532, Note_off_c, 1, 50, 100
3, 49536, Note_on_c, 1, 62, 80
3, 49536, Note_on_c, 1, 59, 80
3, 49536, Note_on_c, 1, 55, 80
3, 49916, Note_off_c, 1, 62, 100
3, 49916, Note_off_c, 1, 59, 100
3, 49916, Note_off_c, 1, 55, 100
3, 50304, Note_on_c, 1, 64, 80
3, 50304, Note_on_c, 1, 59, 80
3, 50304, Note_on_c, 1, 55, 80
3, 50684, Note_off_c, 1, 64, 100
3, 50684, Note_off_c, 1, 59, 100
3, 50684, Note_off_c, 1, 55, 100
3, 50688, Note_on_c, 1, 66, 80
3, 50688, Note_on_c, 1, 62, 80
3, 50688, Note_on_c, 1, 57, 80
3, 51068, Note_off_c, 1, 66, 100
3, 51068, Note_off_c, 1, 62, 100
3, 51068, Note_off_c, 1, 57, 100
3, 51456, Note_on_c, 1, 67, 80
3, 51456, Note_on_c, 1, 57, 80
3, 51456, Note_on_c, 1, 61, 80
3, 51836, Note_off_c, 1, 67, 100
3, 51836, Note_off_c, 1, 57, 100
3, 51836, Note_off_c, 1, 61, 100
3, 51840, Note_on_c, 1, 54, 110
3, 51840, Note_on_c, 1, 50, 110
3, 52028, Note_off_c, 1, 54, 100
3, 52028, Note_off_c, 1, 50, 100
3, 52032, Note_on_c, 1, 57, 110
3, 52220, Note_off_c, 1, 57, 100
3, 52224, Note_on_c, 1, 54, 110
3, 52224, Note_on_c, 1, 50, 110
3, 52412, Note_off_c, 1, 54, 100
3, 52412, Note_off_c, 1, 50, 100
3, 52416, Note_on_c, 1, 57, 110
3, 52604, Note_off_c, 1, 57, 100
3, 52608, Note_on_c, 1, 54, 110
3, 52608, Note_on_c, 1, 50, 110
3, 52796, Note_off_c, 1, 54, 100
3, 52796, Note_off_c, 1, 50, 100
3, 52800, Note_on_c, 1, 57, 110
3, 52988, Note_off_c, 1, 57, 100
3, 52992, Note_on_c, 1, 55, 110
3, 52992, Note_on_c, 1, 52, 110
3, 52992, Note_on_c, 1, 50, 110
3, 53180, Note_off_c, 1, 55, 100
3, 53180, Note_off_c, 1, 52, 100
3, 53180, Note_off_c, 1, 50, 100
3, 53184, Note_on_c, 1, 57, 110
3, 53372, Note_off_c, 1, 57, 100
3, 53376, Note_on_c, 1, 55, 110
3, 53376, Note_on_c, 1, 52, 110
3, 53376, Note_on_c, 1, 50, 110
3, 53564, Note_off_c, 1, 55, 100
3, 53564, Note_off_c, 1, 52, 100
3, 53564, Note_off_c, 1, 50, 100
3, 53568, Note_on_c, 1, 57, 110
3, 53756, Note_off_c, 1, 57, 100
3, 53760, Note_on_c, 1, 55, 110
3, 53760, Note_on_c, 1, 52, 110
3, 53760, Note_on_c, 1, 50, 110
3, 53948, Note_off_c, 1, 55, 100
3, 53948, Note_off_c, 1, 52, 100
3, 53948, Note_off_c, 1, 50, 100
3, 53952, Note_on_c, 1, 57, 110
3, 54140, Note_off_c, 1, 57, 100
3, 54528, Note_on_c, 1, 50, 80
3, 54908, Note_off_c, 1, 50, 100
3, 54912, Note_on_c, 1, 47, 80
3, 55292, Note_off_c, 1, 47, 100
3, 55680, Note_on_c, 1, 48, 80
3, 56060, Note_off_c, 1, 48, 100
3, 56064, Note_on_c, 1, 45, 80
3, 56444, Note_off_c, 1, 45, 100
3, 56448, Note_on_c, 1, 59, 100
3, 56448, Note_on_c, 1, 55, 100
3, 56636, Note_off_c, 1, 59, 100
3, 56636, Note_off_c, 1, 55, 100
3, 56640, Note_on_c, 1, 62, 100
3, 56828, Note_off_c, 1, 62, 100
3, 56832, Note_on_c, 1, 59, 100
3, 56832, Note_on_c, 1, 55, 100
3, 57020, Note_off_c, 1, 59, 100
3, 57020, Note_off_c, 1, 55, 100
3, 57024, Note_on_c, 1, 62, 100
3, 57212, Note_off_c, 1, 62, 100
3, 57216, Note_on_c, 1, 59, 100
3, 57216, Note_on_c, 1, 55, 100
3, 57404, Note_off_c, 1, 59, 100
3, 57404, Note_off_c, 1, 55, 100
3, 57408, Note_on_c, 1, 62, 100
3, 57596, Note_off_c, 1, 62, 100
3, 57600, Note_on_c, 1, 59, 100
3, 57600, Note_on_c, 1, 55, 100
3, 57788, Note_off_c, 1, 59, 100
3, 57788, Note_off_c, 1, 55, 100
3, 57792, Note_on_c, 1, 62, 100
3, 57980, Note_off_c, 1, 62, 100
3, 57984, Note_on_c, 1, 59, 100
3, 57984, Note_on_c, 1, 55, 100
3, 58172, Note_off_c, 1, 59, 100
3, 58172, Note_off_c, 1, 55, 100
3, 58176, Note_on_c, 1, 62, 100
3, 58364, Note_off_c, 1, 62, 100
3, 58368, Note_on_c, 1, 59, 100
3, 58368, Note_on_c, 1, 55, 100
3, 58556, Note_off_c, 1, 59, 100
3, 58556, Note_off_c, 1, 55, 100
3, 58560, Note_on_c, 1, 62, 100
3, 58748, Note_off_c, 1, 62, 100
3, 58752, Note_on_c, 1, 59, 100
3, 58752, Note_on_c, 1, 55, 100
3, 58940, Note_off_c, 1, 59, 100
3, 58940, Note_off_c, 1, 55, 100
3, 58944, Note_on_c, 1, 62, 100
3, 59132, Note_off_c, 1, 62, 100
3, 59136, Note_on_c, 1, 59, 100
3, 59136, Note_on_c, 1, 55, 100
3, 59324, Note_off_c, 1, 59, 100
3, 59324, Note_off_c, 1, 55, 100
3, 59328, Note_on_c, 1, 62, 100
3, 59516, Note_off_c, 1, 62, 100
3, 59520, Note_on_c, 1, 59, 100
3, 59520, Note_on_c, 1, 55, 100
3, 59708, Note_off_c, 1, 59, 100
3, 59708, Note_off_c, 1, 55, 100
3, 59712, Note_on_c, 1, 62, 100
3, 59900, Note_off_c, 1, 62, 100
3, 59904, Note_on_c, 1, 60, 100
3, 59904, Note_on_c, 1, 55, 100
3, 60092, Note_off_c, 1, 60, 100
3, 60092, Note_off_c, 1, 55, 100
3, 60096, Note_on_c, 1, 64, 100
3, 60284, Note_off_c, 1, 64, 100
3, 60288, Note_on_c, 1, 60, 100
3, 60288, Note_on_c, 1, 55, 100
3, 60476, Note_off_c, 1, 60, 100
3, 60476, Note_off_c, 1, 55, 100
3, 60480, Note_on_c, 1, 64, 100
3, 60668, Note_off_c, 1, 64, 100
3, 60672, Note_on_c, 1, 60, 100
3, 60672, Note_on_c, 1, 55, 100
3, 60860, Note_off_c, 1, 60, 100
3, 60860, Note_off_c, 1, 55, 100
3, 60864, Note_on_c, 1, 64, 100
3, 61052, Note_off_c, 1, 64, 100
3, 61056, Note_on_c, 1, 60, 100
3, 61056, Note_on_c, 1, 55, 100
3, 61244, Note_off_c, 1, 60, 100
3, 61244, Note_off_c, 1, 55, 100
3, 61248, Note_on_c, 1, 64, 100
3, 61436, Note_off_c, 1, 64, 100
3, 61440, Note_on_c, 1, 60, 100
3, 61440, Note_on_c, 1, 55, 100
3, 61628, Note_off_c, 1, 60, 100
3, 61628, Note_off_c, 1, 55, 100
3, 61632, Note_on_c, 1, 64, 100
3, 61820, Note_off_c, 1, 64, 100
3, 61824, Note_on_c, 1, 60, 100
3, 61824, Note_on_c, 1, 55, 100
3, 62012, Note_off_c, 1, 60, 100
3, 62012, Note_off_c, 1, 55, 100
3, 62016, Note_on_c, 1, 64, 100
3, 62204, Note_off_c, 1, 64, 100
3, 62208, Note_on_c, 1, 60, 100
3, 62208, Note_on_c, 1, 57, 100
3, 62208, Note_on_c, 1, 55, 100
3, 62396, Note_off_c, 1, 60, 100
3, 62396, Note_off_c, 1, 57, 100
3, 62396, Note_off_c, 1, 55, 100
3, 62400, Note_on_c, 1, 62, 100
3, 62588, Note_off_c, 1, 62, 100
3, 62592, Note_on_c, 1, 60, 100
3, 62592, Note_on_c, 1, 57, 100
3, 62592, Note_on_c, 1, 55, 100
3, 62780, Note_off_c, 1, 60, 100
3, 62780, Note_off_c, 1, 57, 100
3, 62780, Note_off_c, 1, 55, 100
3, 62784, Note_on_c, 1, 62, 100
3, 62972, Note_off_c, 1, 62, 100
3, 62976, Note_on_c, 1, 60, 100
3, 62976, Note_on_c, 1, 57, 100
3, 62976, Note_on_c, 1, 55, 100
3, 63164, Note_off_c, 1, 60, 100
3, 63164, Note_off_c, 1, 57, 100
3, 63164, Note_off_c, 1, 55, 100
3, 63168, Note_on_c, 1, 62, 100
3, 63356, Note_off_c, 1, 62, 100
3, 63360, Note_on_c, 1, 60, 100
3, 63360, Note_on_c, 1, 57, 100
3, 63360, Note_on_c, 1, 55, 100
3, 63548, Note_off_c, 1, 60, 100
3, 63548, Note_off_c, 1, 57, 100
3, 63548, Note_off_c, 1, 55, 100
3, 63552, Note_on_c, 1, 62, 100
3, 63740, Note_off_c, 1, 62, 100
3, 63744, Note_on_c, 1, 60, 100
3, 63744, Note_on_c, 1, 57, 100
3, 63744, Note_on_c, 1, 55, 100
3, 63932, Note_off_c, 1, 60, 100
3, 63932, Note_off_c, 1, 57, 100
3, 63932, Note_off_c, 1, 55, 100
3, 63936, Note_on_c, 1, 62, 100
3, 64124, Note_off_c, 1, 62, 100
3, 64128, Note_on_c, 1, 60, 100
3, 64128, Note_on_c, 1, 57, 100
3, 64128, Note_on_c, 1, 55, 100
3, 64316, Note_off_c, 1, 60, 100
3, 64316, Note_off_c, 1, 57, 100
3, 64316, Note_off_c, 1, 55, 100
3, 64320, Note_on_c, 1, 62, 100
3, 64508, Note_off_c, 1, 62, 100
3, 64512, Note_on_c, 1, 59, 100
3, 64512, Note_on_c, 1, 55, 100
3, 65660, Note_off_c, 1, 59, 100
3, 65660, Note_off_c, 1, 55, 100
3, 65664, Note_on_c, 1, 54, 100
3, 65664, Note_on_c, 1, 50, 100
3, 65664, Note_on_c, 1, 50, 100
3, 65664, Note_on_c, 1, 42, 100
3, 66812, Note_off_c, 1, 54, 100
3, 66812, Note_off_c, 1, 50, 100
3, 66812, Note_off_c, 1, 50, 100
3, 66812, Note_off_c, 1, 42, 100
3, 66816, Note_on_c, 1, 55, 100
3, 66816, Note_on_c, 1, 50, 100
3, 66816, Note_on_c, 1, 43, 100
3, 67580, Note_off_c, 1, 55, 100
3, 67580, Note_off_c, 1, 50, 100
3, 67580, Note_off_c, 1, 43, 100
3, 67584, Note_on_c, 1, 57, 100
3, 67584, Note_on_c, 1, 45, 100
3, 67772, Note_off_c, 1, 57, 100
3, 67772, Note_off_c, 1, 45, 100
3, 67776, Note_on_c, 1, 59, 100
3, 67776, Note_on_c, 1, 47, 100
3, 67964, Note_off_c, 1, 59, 100
3, 67964, Note_off_c, 1, 47, 100
3, 67968, Note_on_c, 1, 60, 100
3, 67968, Note_on_c, 1, 48, 100
3, 68348, Note_off_c, 1, 60, 100
3, 68348, Note_off_c, 1, 48, 100
3, 68352, Note_on_c, 1, 60, 100
3, 68352, Note_on_c, 1, 48, 100
3, 68732, Note_off_c, 1, 60, 100
3, 68732, Note_off_c, 1, 48, 100
3, 68736, Note_on_c, 1, 61, 100
3, 68736, Note_on_c, 1, 49, 100
3, 69116, Note_off_c, 1, 61, 100
3, 69116, Note_off_c, 1, 49, 100
3, 69120, Note_on_c, 1, 62, 100
3, 69120, Note_on_c, 1, 50, 100
3, 69308, Note_off_c, 1, 62, 100
3, 69308, Note_off_c, 1, 50, 100
3, 69312, Note_on_c, 1, 50, 80
3, 69500, Note_off_c, 1, 50, 100
3, 69504, Note_on_c, 1, 54, 80
3, 69692, Note_off_c, 1, 54, 100
3, 69696, Note_on_c, 1, 57, 80
3, 69884, Note_off_c, 1, 57, 100
3, 73728, Note_on_c, 1, 47, 80
3, 73916, Note_off_c, 1, 47, 100
3, 73920, Note_on_c, 1, 50, 80
3, 74108, Note_off_c, 1, 50, 100
3, 74112, Note_on_c, 1, 54, 80
3, 74300, Note_off_c, 1, 54, 100
3, 74304, Note_on_c, 1, 59, 80
3, 74492, Note_off_c, 1, 59, 100
3, 78336, Note_on_c, 1, 44, 80
3, 78524, Note_off_c, 1, 44, 100
3, 78528, Note_on_c, 1, 47, 80
3, 78716, Note_off_c, 1, 47, 100
3, 78720, Note_on_c, 1, 50, 80
3, 78908, Note_off_c, 1, 50, 100
3, 78912, Note_on_c, 1, 52, 80
3, 79100, Note_off_c, 1, 52, 100
3, 79104, Note_on_c, 1, 56, 80
3, 79484, Note_off_c, 1, 56, 100
3, 82176, Note_on_c, 1, 56, 80
3, 82176, Note_on_c, 1, 59, 80
3, 82556, Note_off_c, 1, 56, 100
3, 82556, Note_off_c, 1, 59, 100
3, 82560, Note_on_c, 1, 62, 80
3, 82560, Note_on_c, 1, 59, 80
3, 82940, Note_off_c, 1, 62, 100
3, 82940, Note_off_c, 1, 59, 100
3, 82944, Note_on_c, 1, 57, 80
3, 82944, Note_on_c, 1, 61, 80
3, 83132, Note_off_c, 1, 61, 100
3, 83136, Note_on_c, 1, 62, 81
3, 83324, Note_off_c, 1, 57, 100
3, 83324, Note_off_c, 1, 62, 100
3, 83328, Note_on_c, 1, 64, 82
3, 83516, Note_off_c, 1, 64, 100
3, 83520, Note_on_c, 1, 66, 83
3, 83708, Note_off_c, 1, 66, 100
3, 83712, Note_on_c, 1, 68, 84
3, 83900, Note_off_c, 1, 68, 100
3, 83904, Note_on_c, 1, 69, 85
3, 84092, Note_off_c, 1, 69, 100
3, 84096, Note_on_c, 1, 68, 87
3, 84284, Note_off_c, 1, 68, 100
3, 84288, Note_on_c, 1, 66, 88
3, 84476, Note_off_c, 1, 66, 100
3, 84480, Note_on_c, 1, 64, 89
3, 84668, Note_off_c, 1, 64, 100
3, 84672, Note_on_c, 1, 62, 90
3, 84860, Note_off_c, 1, 62, 100
3, 84864, Note_on_c, 1, 61, 91
3, 85052, Note_off_c, 1, 61, 100
3, 85056, Note_on_c, 1, 59, 92
3, 85244, Note_off_c, 1, 59, 100
3, 85248, Note_on_c, 1, 57, 94
3, 85436, Note_off_c, 1, 57, 100
3, 85440, Note_on_c, 1, 55, 95
3, 85628, Note_off_c, 1, 55, 100
3, 85632, Note_on_c, 1, 54, 96
3, 85820, Note_off_c, 1, 54, 100
3, 85824, Note_on_c, 1, 52, 97
3, 86012, Note_off_c, 1, 52, 100
3, 86016, Note_on_c, 1, 50, 98
3, 86204, Note_off_c, 1, 50, 100
3, 86208, Note_on_c, 1, 49, 99
3, 86396, Note_off_c, 1, 49, 100
3, 86400, Note_on_c, 1, 50, 80
3, 86588, Note_off_c, 1, 50, 100
3, 86592, Note_on_c, 1, 52, 80
3, 86780, Note_off_c, 1, 52, 100
3, 86784, Note_on_c, 1, 54, 80
3, 86972, Note_off_c, 1, 54, 100
3, 86976, Note_on_c, 1, 56, 80
3, 87164, Note_off_c, 1, 56, 100
3, 87168, Note_on_c, 1, 57, 80
3, 87356, Note_off_c, 1, 57, 100
3, 87360, Note_on_c, 1, 59, 80
3, 87548, Note_off_c, 1, 59, 100
3, 87552, Note_on_c, 1, 57, 80
3, 87552, Note_on_c, 1, 61, 80
3, 87740, Note_off_c, 1, 61, 100
3, 87744, Note_on_c, 1, 62, 81
3, 87932, Note_off_c, 1, 57, 100
3, 87932, Note_off_c, 1, 62, 100
3, 87936, Note_on_c, 1, 64, 82
3, 88124, Note_off_c, 1, 64, 100
3, 88128, Note_on_c, 1, 66, 83
3, 88316, Note_off_c, 1, 66, 100
3, 88320, Note_on_c, 1, 68, 84
3, 88508, Note_off_c, 1, 68, 100
3, 88512, Note_on_c, 1, 69, 85
3, 88700, Note_off_c, 1, 69, 100
3, 88704, Note_on_c, 1, 68, 87
3, 88892, Note_off_c, 1, 68, 100
3, 88896, Note_on_c, 1, 66, 88
3, 89084, Note_off_c, 1, 66, 100
3, 89088, Note_on_c, 1, 64, 89
3, 89276, Note_off_c, 1, 64, 100
3, 89280, Note_on_c, 1, 62, 90
3, 89468, Note_off_c, 1, 62, 100
3, 89472, Note_on_c, 1, 61, 91
3, 89660, Note_off_c, 1, 61, 100
3, 89664, Note_on_c, 1, 59, 92
3, 89852, Note_off_c, 1, 59, 100
3, 89856, Note_on_c, 1, 57, 94
3, 90044, Note_off_c, 1, 57, 100
3, 90048, Note_on_c, 1, 55, 95
3, 90236, Note_off_c, 1, 55, 100
3, 90240, Note_on_c, 1, 54, 96
3, 90428, Note_off_c, 1, 54, 100
3, 90432, Note_on_c, 1, 52, 97
3, 90620, Note_off_c, 1, 52, 100
3, 90624, Note_on_c, 1, 50, 98
3, 90812, Note_off_c, 1, 50, 100
3, 90816, Note_on_c, 1, 49, 99
3, 91004, Note_off_c, 1, 49, 100
3, 91008, Note_on_c, 1, 50, 80
3, 91196, Note_off_c, 1, 50, 100
3, 91200, Note_on_c, 1, 52, 80
3, 91388, Note_off_c, 1, 52, 100
3, 91392, Note_on_c, 1, 54, 80
3, 91580, Note_off_c, 1, 54, 100
3, 91584, Note_on_c, 1, 56, 80
3, 91772, Note_off_c, 1, 56, 100
3, 91776, Note_on_c, 1, 57, 80
3, 91964, Note_off_c, 1, 57, 100
3, 91968, Note_on_c, 1, 59, 80
3, 92156, Note_off_c, 1, 59, 100
3, 92160, Note_on_c, 1, 64, 80
3, 92160, Note_on_c, 1, 61, 80
3, 92160, Note_on_c, 1, 57, 80
3, 93308, Note_off_c, 1, 64, 100
3, 93308, Note_off_c, 1, 61, 100
3, 93312, Note_on_c, 1, 62, 80
3, 93312, Note_on_c, 1, 59, 80
3, 94460, Note_off_c, 1, 57, 64
3, 94460, Note_off_c, 1, 62, 100
3, 94460, Note_off_c, 1, 59, 100
3, 94464, Note_on_c, 1, 68, 80
3, 94464, Note_on_c, 1, 62, 80
3, 94464, Note_on_c, 1, 57, 80
3, 95612, Note_off_c, 1, 68, 100
3, 95612, Note_off_c, 1, 62, 100
3, 95616, Note_on_c, 1, 64, 80
3, 95616, Note_on_c, 1, 61, 80
3, 96764, Note_off_c, 1, 57, 64
3, 96764, Note_off_c, 1, 64, 100
3, 96764, Note_off_c, 1, 61, 100
3, 96768, Note_on_c, 1, 67, 80
3, 96768, Note_on_c, 1, 64, 80
3, 96768, Note_on_c, 1, 61, 80
3, 96768, Note_on_c, 1, 57, 80
3, 97916, Note_off_c, 1, 67, 100
3, 97916, Note_off_c, 1, 64, 100
3, 97916, Note_off_c, 1, 61, 100
3, 97916, Note_off_c, 1, 57, 100
3, 97920, Note_on_c, 1, 67, 110
3, 97920, Note_on_c, 1, 64, 110
3, 97920, Note_on_c, 1, 61, 110
3, 97920, Note_on_c, 1, 58, 110
3, 99068, Note_off_c, 1, 67, 100
3, 99068, Note_off_c, 1, 64, 100
3, 99068, Note_off_c, 1, 61, 100
3, 99068, Note_off_c, 1, 58, 100
3, 99072, Note_on_c, 1, 67, 110
3, 99072, Note_on_c, 1, 64, 110
3, 99072, Note_on_c, 1, 61, 110
3, 99072, Note_on_c, 1, 57, 110
3, 99836, Note_off_c, 1, 67, 100
3, 99836, Note_off_c, 1, 64, 100
3, 99836, Note_off_c, 1, 61, 100
3, 99836, Note_off_c, 1, 57, 100
3, 99840, Note_on_c, 1, 64, 110
3, 99840, Note_on_c, 1, 61, 110
3, 99840, Note_on_c, 1, 55, 110
3, 100220, Note_off_c, 1, 64, 100
3, 100220, Note_off_c, 1, 61, 100
3, 100220, Note_off_c, 1, 55, 100
3, 100224, Note_on_c, 1, 62, 110
3, 100224, Note_on_c, 1, 57, 110
3, 100224, Note_on_c, 1, 54, 110
3, 100988, Note_off_c, 1, 62, 100
3, 100988, Note_off_c, 1, 57, 100
3, 100988, Note_off_c, 1, 54, 100
3, 100992, Note_on_c, 1, 62, 95
3, 100992, Note_on_c, 1, 57, 95
3, 100992, Note_on_c, 1, 50, 95
3, 101372, Note_off_c, 1, 62, 100
3, 101372, Note_off_c, 1, 57, 100
3, 101372, Note_off_c, 1, 50, 100
3, 101376, Note_on_c, 1, 67, 80
3, 101376, Note_on_c, 1, 64, 80
3, 101376, Note_on_c, 1, 61, 80
3, 101376, Note_on_c, 1, 57, 80
3, 102524, Note_off_c, 1, 67, 100
3, 102524, Note_off_c, 1, 64, 100
3, 102524, Note_off_c, 1, 61, 100
3, 102524, Note_off_c, 1, 57, 100
3, 102528, Note_on_c, 1, 67, 110
3, 102528, Note_on_c, 1, 64, 110
3, 102528, Note_on_c, 1, 61, 110
3, 102528, Note_on_c, 1, 58, 110
3, 103676, Note_off_c, 1, 67, 100
3, 103676, Note_off_c, 1, 64, 100
3, 103676, Note_off_c, 1, 61, 100
3, 103676, Note_off_c, 1, 58, 100
3, 103680, Note_on_c, 1, 67, 110
3, 103680, Note_on_c, 1, 64, 110
3, 103680, Note_on_c, 1, 61, 110
3, 103680, Note_on_c, 1, 57, 110
3, 104444, Note_off_c, 1, 67, 100
3, 104444, Note_off_c, 1, 64, 100
3, 104444, Note_off_c, 1, 61, 100
3, 104444, Note_off_c, 1, 57, 100
3, 104448, Note_on_c, 1, 64, 110
3, 104448, Note_on_c, 1, 61, 110
3, 104448, Note_on_c, 1, 55, 110
3, 104828, Note_off_c, 1, 64, 100
3, 104828, Note_off_c, 1, 61, 100
3, 104828, Note_off_c, 1, 55, 100
3, 104832, Note_on_c, 1, 62, 110
3, 104832, Note_on_c, 1, 57, 110
3, 104832, Note_on_c, 1, 54, 110
3, 105596, Note_off_c, 1, 62, 100
3, 105596, Note_off_c, 1, 57, 100
3, 105596, Note_off_c, 1, 54, 100
3, 105600, Note_on_c, 1, 62, 95
3, 105600, Note_on_c, 1, 57, 95
3, 105600, Note_on_c, 1, 50, 95
3, 105980, Note_off_c, 1, 62, 100
3, 105980, Note_off_c, 1, 57, 100
3, 105980, Note_off_c, 1, 50, 100
3, 105984, Note_on_c, 1, 62, 80
3, 105984, Note_on_c, 1, 59, 80
3, 105984, Note_on_c, 1, 55, 80
3, 106364, Note_off_c, 1, 62, 100
3, 106364, Note_off_c, 1, 59, 100
3, 106364, Note_off_c, 1, 55, 100
3, 106752, Note_on_c, 1, 64, 80
3, 106752, Note_on_c, 1, 59, 80
3, 106752, Note_on_c, 1, 55, 80
3, 107132, Note_off_c, 1, 64, 100
3, 107132, Note_off_c, 1, 59, 100
3, 107132, Note_off_c, 1, 55, 100
3, 107136, Note_on_c, 1, 66, 80
3, 107136, Note_on_c, 1, 62, 80
3, 107136, Note_on_c, 1, 57, 80
3, 107516, Note_off_c, 1, 66, 100
3, 107516, Note_off_c, 1, 62, 100
3, 107516, Note_off_c, 1, 57, 100
3, 107904, Note_on_c, 1, 67, 80
3, 107904, Note_on_c, 1, 57, 80
3, 107904, Note_on_c, 1, 61, 80
3, 108284, Note_off_c, 1, 67, 100
3, 108284, Note_off_c, 1, 57, 100
3, 108284, Note_off_c, 1, 61, 100
3, 108288, Note_on_c, 1, 54, 110
3, 108288, Note_on_c, 1, 50, 110
3, 108476, Note_off_c, 1, 54, 100
3, 108476, Note_off_c, 1, 50, 100
3, 108480, Note_on_c, 1, 57, 110
3, 108668, Note_off_c, 1, 57, 100
3, 108672, Note_on_c, 1, 54, 110
3, 108672, Note_on_c, 1, 50, 110
3, 108860, Note_off_c, 1, 54, 100
3, 108860, Note_off_c, 1, 50, 100
3, 108864, Note_on_c, 1, 57, 110
3, 109052, Note_off_c, 1, 57, 100
3, 109056, Note_on_c, 1, 54, 110
3, 109056, Note_on_c, 1, 50, 110
3, 109244, Note_off_c, 1, 54, 100
3, 109244, Note_off_c, 1, 50, 100
3, 109248, Note_on_c, 1, 57, 110
3, 109436, Note_off_c, 1, 57, 100
3, 109440, Note_on_c, 1, 55, 110
3, 109440, Note_on_c, 1, 52, 110
3, 109440, Note_on_c, 1, 50, 110
3, 109628, Note_off_c, 1, 55, 100
3, 109628, Note_off_c, 1, 52, 100
3, 109628, Note_off_c, 1, 50, 100
3, 109632, Note_on_c, 1, 57, 110
3, 109820, Note_off_c, 1, 57, 100
3, 109824, Note_on_c, 1, 55, 110
3, 109824, Note_on_c, 1, 52, 110
3, 109824, Note_on_c, 1, 50, 110
3, 110012, Note_off_c, 1, 55, 100
3, 110012, Note_off_c, 1, 52, 100
3, 110012, Note_off_c, 1, 50, 100
3, 110016, Note_on_c, 1, 57, 110
3, 110204, Note_off_c, 1, 57, 100
3, 110208, Note_on_c, 1, 55, 110
3, 110208, Note_on_c, 1, 52, 110
3, 110208, Note_on_c, 1, 50, 110
3, 110396, Note_off_c, 1, 55, 100
3, 110396, Note_off_c, 1, 52, 100
3, 110396, Note_off_c, 1, 50, 100
3, 110400, Note_on_c, 1, 57, 110
3, 110588, Note_off_c, 1, 57, 100
3, 110976, Note_on_c, 1, 50, 80
3, 111356, Note_off_c, 1, 50, 100
3, 111360, Note_on_c, 1, 47, 80
3, 111740, Note_off_c, 1, 47, 100
3, 112128, Note_on_c, 1, 48, 80
3, 112508, Note_off_c, 1, 48, 100
3, 112512, Note_on_c, 1, 45, 80
3, 112892, Note_off_c, 1, 45, 100
3, 113280, Note_on_c, 1, 59, 110
3, 113280, Note_on_c, 1, 47, 110
3, 113660, Note_off_c, 1, 59, 100
3, 113660, Note_off_c, 1, 47, 100
3, 113664, Note_on_c, 1, 56, 110
3, 113664, Note_on_c, 1, 44, 110
3, 114044, Note_off_c, 1, 56, 100
3, 114044, Note_off_c, 1, 44, 100
3, 114432, Note_on_c, 1, 57, 110
3, 114432, Note_on_c, 1, 45, 110
3, 114812, Note_off_c, 1, 57, 100
3, 114812, Note_off_c, 1, 45, 100
3, 114816, Note_on_c, 1, 54, 110
3, 114816, Note_on_c, 1, 42, 110
3, 115196, Note_off_c, 1, 54, 100
3, 115196, Note_off_c, 1, 42, 100
3, 115200, Note_on_c, 1, 56, 110
3, 115200, Note_on_c, 1, 52, 110
3, 115388, Note_off_c, 1, 56, 100
3, 115388, Note_off_c, 1, 52, 100
3, 115392, Note_on_c, 1, 59, 110
3, 115580, Note_off_c, 1, 59, 100
3, 115584, Note_on_c, 1, 56, 110
3, 115584, Note_on_c, 1, 52, 110
3, 115772, Note_off_c, 1, 56, 100
3, 115772, Note_off_c, 1, 52, 100
3, 115776, Note_on_c, 1, 59, 110
3, 115964, Note_off_c, 1, 59, 100
3, 115968, Note_on_c, 1, 56, 110
3, 115968, Note_on_c, 1, 52, 110
3, 116156, Note_off_c, 1, 56, 100
3, 116156, Note_off_c, 1, 52, 100
3, 116160, Note_on_c, 1, 59, 110
3, 116348, Note_off_c, 1, 59, 100
3, 116352, Note_on_c, 1, 56, 110
3, 116352, Note_on_c, 1, 52, 110
3, 116540, Note_off_c, 1, 56, 100
3, 116540, Note_off_c, 1, 52, 100
3, 116544, Note_on_c, 1, 59, 110
3, 116732, Note_off_c, 1, 59, 100
3, 116736, Note_on_c, 1, 56, 110
3, 116736, Note_on_c, 1, 52, 110
3, 116924, Note_off_c, 1, 56, 100
3, 116924, Note_off_c, 1, 52, 100
3, 116928, Note_on_c, 1, 59, 110
3, 117116, Note_off_c, 1, 59, 100
3, 117120, Note_on_c, 1, 56, 110
3, 117120, Note_on_c, 1, 52, 110
3, 117308, Note_off_c, 1, 56, 100
3, 117308, Note_off_c, 1, 52, 100
3, 117312, Note_on_c, 1, 59, 110
3, 117500, Note_off_c, 1, 59, 100
3, 117504, Note_on_c, 1, 56, 110
3, 117504, Note_on_c, 1, 52, 110
3, 117692, Note_off_c, 1, 56, 100
3, 117692, Note_off_c, 1, 52, 100
3, 117696, Note_on_c, 1, 59, 110
3, 117884, Note_off_c, 1, 59, 100
3, 117888, Note_on_c, 1, 56, 110
3, 117888, Note_on_c, 1, 52, 110
3, 118076, Note_off_c, 1, 56, 100
3, 118076, Note_off_c, 1, 52, 100
3, 118080, Note_on_c, 1, 59, 110
3, 118268, Note_off_c, 1, 59, 100
3, 118272, Note_on_c, 1, 56, 110
3, 118272, Note_on_c, 1, 52, 110
3, 118460, Note_off_c, 1, 56, 100
3, 118460, Note_off_c, 1, 52, 100
3, 118464, Note_on_c, 1, 59, 110
3, 118652, Note_off_c, 1, 59, 100
3, 118656, Note_on_c, 1, 57, 110
3, 118656, Note_on_c, 1, 52, 110
3, 118844, Note_off_c, 1, 57, 100
3, 118844, Note_off_c, 1, 52, 100
3, 118848, Note_on_c, 1, 61, 110
3, 119036, Note_off_c, 1, 61, 100
3, 119040, Note_on_c, 1, 57, 110
3, 119040, Note_on_c, 1, 52, 110
3, 119228, Note_off_c, 1, 57, 100
3, 119228, Note_off_c, 1, 52, 100
3, 119232, Note_on_c, 1, 61, 110
3, 119420, Note_off_c, 1, 61, 100
3, 119424, Note_on_c, 1, 57, 110
3, 119424, Note_on_c, 1, 52, 110
3, 119612, Note_off_c, 1, 57, 100
3, 119612, Note_off_c, 1, 52, 100
3, 119616, Note_on_c, 1, 61, 110
3, 119804, Note_off_c, 1, 61, 100
3, 119808, Note_on_c, 1, 57, 110
3, 119808, Note_on_c, 1, 52, 110
3, 119996, Note_off_c, 1, 57, 100
3, 119996, Note_off_c, 1, 52, 100
3, 120000, Note_on_c, 1, 61, 110
3, 120188, Note_off_c, 1, 61, 100
3, 120192, Note_on_c, 1, 57, 110
3, 120192, Note_on_c, 1, 52, 110
3, 120380, Note_off_c, 1, 57, 100
3, 120380, Note_off_c, 1, 52, 100
3, 120384, Note_on_c, 1, 61, 110
3, 120572, Note_off_c, 1, 61, 100
3, 120576, Note_on_c, 1, 57, 110
3, 120576, Note_on_c, 1, 52, 110
3, 120764, Note_off_c, 1, 57, 100
3, 120764, Note_off_c, 1, 52, 100
3, 120768, Note_on_c, 1, 61, 110
3, 120956, Note_off_c, 1, 61, 100
3, 120960, Note_on_c, 1, 57, 110
3, 120960, Note_on_c, 1, 54, 110
3, 120960, Note_on_c, 1, 52, 110
3, 121148, Note_off_c, 1, 57, 100
3, 121148, Note_off_c, 1, 54, 100
3, 121148, Note_off_c, 1, 52, 100
3, 121152, Note_on_c, 1, 59, 110
3, 121340, Note_off_c, 1, 59, 100
3, 121344, Note_on_c, 1, 57, 110
3, 121344, Note_on_c, 1, 54, 110
3, 121344, Note_on_c, 1, 52, 110
3, 121532, Note_off_c, 1, 57, 100
3, 121532, Note_off_c, 1, 54, 100
3, 121532, Note_off_c, 1, 52, 100
3, 121536, Note_on_c, 1, 59, 110
3, 121724, Note_off_c, 1, 59, 100
3, 121728, Note_on_c, 1, 57, 110
3, 121728, Note_on_c, 1, 54, 110
3, 121728, Note_on_c, 1, 52, 110
3, 121916, Note_off_c, 1, 57, 100
3, 121916, Note_off_c, 1, 54, 100
3, 121916, Note_off_c, 1, 52, 100
3, 121920, Note_on_c, 1, 59, 110
3, 122108, Note_off_c, 1, 59, 100
3, 122112, Note_on_c, 1, 57, 110
3, 122112, Note_on_c, 1, 54, 110
3, 122112, Note_on_c, 1, 52, 110
3, 122300, Note_off_c, 1, 57, 100
3, 122300, Note_off_c, 1, 54, 100
3, 122300, Note_off_c, 1, 52, 100
3, 122304, Note_on_c, 1, 59, 110
3, 122492, Note_off_c, 1, 59, 100
3, 122496, Note_on_c, 1, 57, 110
3, 122496, Note_on_c, 1, 54, 110
3, 122496, Note_on_c, 1, 52, 110
3, 122684, Note_off_c, 1, 57, 100
3, 122684, Note_off_c, 1, 54, 100
3, 122684, Note_off_c, 1, 52, 100
3, 122688, Note_on_c, 1, 59, 110
3, 122876, Note_off_c, 1, 59, 100
3, 122880, Note_on_c, 1, 57, 110
3, 122880, Note_on_c, 1, 54, 110
3, 122880, Note_on_c, 1, 52, 110
3, 123068, Note_off_c, 1, 57, 100
3, 123068, Note_off_c, 1, 54, 100
3, 123068, Note_off_c, 1, 52, 100
3, 123072, Note_on_c, 1, 59, 110
3, 123260, Note_off_c, 1, 59, 100
3, 123264, Note_on_c, 1, 52, 110
3, 123644, Note_off_c, 1, 52, 100
3, 123648, Note_on_c, 1, 71, 110
3, 124028, Note_off_c, 1, 71, 100
3, 124032, Note_on_c, 1, 68, 110
3, 124412, Note_off_c, 1, 68, 100
3, 124416, Note_on_c, 1, 52, 110
3, 124796, Note_off_c, 1, 52, 100
3, 124800, Note_on_c, 1, 71, 110
3, 125180, Note_off_c, 1, 71, 100
3, 125184, Note_on_c, 1, 68, 110
3, 125564, Note_off_c, 1, 68, 100
3, 125568, Note_on_c, 1, 52, 110
3, 125948, Note_off_c, 1, 52, 100
3, 125952, Note_on_c, 1, 71, 110
3, 126332, Note_off_c, 1, 71, 100
3, 126336, Note_on_c, 1, 68, 110
3, 126716, Note_off_c, 1, 68, 100
3, 126720, Note_on_c, 1, 47, 110
3, 127100, Note_off_c, 1, 47, 100
3, 127104, Note_on_c, 1, 69, 110
3, 127484, Note_off_c, 1, 69, 100
3, 127488, Note_on_c, 1, 66, 110
3, 127868, Note_off_c, 1, 66, 100
3, 127872, Note_on_c, 1, 47, 110
3, 128252, Note_off_c, 1, 47, 100
3, 128256, Note_on_c, 1, 69, 110
3, 128636, Note_off_c, 1, 69, 100
3, 128640, Note_on_c, 1, 66, 110
3, 129020, Note_off_c, 1, 66, 100
3, 129024, Note_on_c, 1, 47, 110
3, 129404, Note_off_c, 1, 47, 100
3, 129408, Note_on_c, 1, 69, 110
3, 129788, Note_off_c, 1, 69, 100
3, 129792, Note_on_c, 1, 66, 110
3, 130172, Note_off_c, 1, 66, 100
3, 130176, Note_on_c, 1, 47, 110
3, 130556, Note_off_c, 1, 47, 100
3, 130560, Note_on_c, 1, 69, 110
3, 130940, Note_off_c, 1, 69, 100
3, 130944, Note_on_c, 1, 66, 110
3, 131324, Note_off_c, 1, 66, 100
3, 131328, Note_on_c, 1, 52, 80
3, 131708, Note_off_c, 1, 52, 100
3, 131712, Note_on_c, 1, 67, 80
3, 132092, Note_off_c, 1, 67, 100
3, 132096, Note_on_c, 1, 67, 80
3, 132476, Note_off_c, 1, 67, 100
3, 132480, Note_on_c, 1, 48, 80
3, 132864, Note_on_c, 1, 67, 80
3, 133244, Note_off_c, 1, 48, 100
3, 133248, Note_on_c, 1, 64, 80
3, 133628, Note_off_c, 1, 67, 64
3, 133632, Note_on_c, 1, 48, 80
3, 134012, Note_off_c, 1, 64, 64
3, 134016, Note_on_c, 1, 67, 80
3, 134396, Note_off_c, 1, 48, 100
3, 134400, Note_on_c, 1, 64, 80
3, 134780, Note_off_c, 1, 67, 64
3, 134784, Note_on_c, 1, 48, 80
3, 135164, Note_off_c, 1, 64, 64
3, 135168, Note_on_c, 1, 67, 80
3, 135548, Note_off_c, 1, 48, 100
3, 135552, Note_on_c, 1, 64, 80
3, 135932, Note_off_c, 1, 67, 100
3, 135932, Note_off_c, 1, 64, 100
3, 135936, Note_on_c, 1, 43, 80
3, 136320, Note_on_c, 1, 65, 80
3, 136700, Note_off_c, 1, 43, 100
3, 136704, Note_on_c, 1, 62, 80
3, 137084, Note_off_c, 1, 65, 64
3, 137088, Note_on_c, 1, 43, 80
3, 137468, Note_off_c, 1, 62, 64
3, 137472, Note_on_c, 1, 65, 80
3, 137852, Note_off_c, 1, 43, 100
3, 137856, Note_on_c, 1, 62, 80
3, 138236, Note_off_c, 1, 65, 64
3, 138240, Note_on_c, 1, 43, 80
3, 138620, Note_off_c, 1, 62, 64
3, 138624, Note_on_c, 1, 65, 80
3, 139004, Note_off_c, 1, 43, 100
3, 139008, Note_on_c, 1, 62, 80
3, 139388, Note_off_c, 1, 65, 64
3, 139392, Note_on_c, 1, 43, 80
3, 139772, Note_off_c, 1, 62, 64
3, 139776, Note_on_c, 1, 65, 80
3, 140156, Note_off_c, 1, 43, 100
3, 140160, Note_on_c, 1, 62, 80
3, 140540, Note_off_c, 1, 65, 100
3, 140540, Note_off_c, 1, 62, 100
3, 140544, Note_on_c, 1, 48, 80
3, 140928, Note_on_c, 1, 64, 80
3, 141312, Note_on_c, 1, 64, 80
3, 141692, Note_off_c, 1, 48, 100
3, 141692, Note_off_c, 1, 64, 100
3, 141692, Note_off_c, 1, 64, 100
3, 141696, Note_on_c, 1, 48, 110
3, 141696, Note_on_c, 1, 43, 110
3, 141696, Note_on_c, 1, 36, 110
3, 142460, Note_off_c, 1, 48, 100
3, 142460, Note_off_c, 1, 43, 100
3, 142460, Note_off_c, 1, 36, 100
3, 142848, Note_on_c, 1, 47, 110
3, 142848, Note_on_c, 1, 43, 110
3, 142848, Note_on_c, 1, 35, 110
3, 143612, Note_off_c, 1, 47, 100
3, 143612, Note_off_c, 1, 43, 100
3, 143612, Note_off_c, 1, 35, 100
3, 144000, Note_on_c, 1, 48, 110
3, 144000, Note_on_c, 1, 43, 110
3, 144000, Note_on_c, 1, 36, 110
3, 144764, Note_off_c, 1, 48, 100
3, 144764, Note_off_c, 1, 43, 100
3, 144764, Note_off_c, 1, 36, 100
3, 144768, Note_on_c, 1, 45, 110
3, 144956, Note_off_c, 1, 45, 100
3, 144960, Note_on_c, 1, 40, 110
3, 145148, Note_off_c, 1, 40, 100
3, 145152, Note_on_c, 1, 41, 110
3, 145532, Note_off_c, 1, 41, 100
3, 145536, Note_on_c, 1, 41, 110
3, 145916, Note_off_c, 1, 41, 100
3, 145920, Note_on_c, 1, 42, 110
3, 146300, Note_off_c, 1, 42, 100
3, 146304, Note_on_c, 1, 43, 110
3, 146684, Note_off_c, 1, 43, 100
3, 147072, Note_on_c, 1, 62, 80
3, 147260, Note_off_c, 1, 62, 100
3, 147264, Note_on_c, 1, 64, 80
3, 147452, Note_off_c, 1, 64, 100
3, 147456, Note_on_c, 1, 65, 80
3, 147836, Note_off_c, 1, 65, 100
3, 147840, Note_on_c, 1, 65, 80
3, 148220, Note_off_c, 1, 65, 100
3, 148224, Note_on_c, 1, 66, 80
3, 148604, Note_off_c, 1, 66, 100
3, 148608, Note_on_c, 1, 67, 80
3, 148988, Note_off_c, 1, 67, 100
3, 149376, Note_on_c, 1, 53, 80
3, 149564, Note_off_c, 1, 53, 100
3, 149568, Note_on_c, 1, 55, 84
3, 149756, Note_off_c, 1, 55, 100
3, 149760, Note_on_c, 1, 56, 88
3, 149948, Note_off_c, 1, 56, 100
3, 149952, Note_on_c, 1, 55, 92
3, 150140, Note_off_c, 1, 55, 100
3, 150144, Note_on_c, 1, 53, 97
3, 150332, Note_off_c, 1, 53, 100
3, 150336, Note_on_c, 1, 51, 101
3, 150524, Note_off_c, 1, 51, 100
3, 150528, Note_on_c, 1, 50, 105
3, 150716, Note_off_c, 1, 50, 100
3, 150720, Note_on_c, 1, 55, 109
3, 150908, Note_off_c, 1, 55, 100
3, 150912, Note_on_c, 1, 48, 110
3, 151292, Note_off_c, 1, 48, 100
3, 151296, Note_on_c, 1, 67, 110
3, 151676, Note_off_c, 1, 67, 64
3, 151680, Note_on_c, 1, 63, 110
3, 152060, Note_off_c, 1, 63, 64
3, 152064, Note_on_c, 1, 48, 110
3, 152444, Note_off_c, 1, 48, 100
3, 152448, Note_on_c, 1, 67, 110
3, 152828, Note_off_c, 1, 67, 64
3, 152832, Note_on_c, 1, 63, 110
3, 153212, Note_off_c, 1, 63, 64
3, 153216, Note_on_c, 1, 48, 110
3, 153596, Note_off_c, 1, 48, 100
3, 153600, Note_on_c, 1, 67, 110
3, 153980, Note_off_c, 1, 67, 100
3, 153984, Note_on_c, 1, 63, 110
3, 154364, Note_off_c, 1, 63, 100
3, 154368, Note_on_c, 1, 43, 110
3, 154748, Note_off_c, 1, 43, 100
3, 154752, Note_on_c, 1, 65, 110
3, 155132, Note_off_c, 1, 65, 64
3, 155136, Note_on_c, 1, 62, 110
3, 155516, Note_off_c, 1, 62, 64
3, 155520, Note_on_c, 1, 43, 110
3, 155900, Note_off_c, 1, 43, 100
3, 155904, Note_on_c, 1, 65, 110
3, 156284, Note_off_c, 1, 65, 64
3, 156288, Note_on_c, 1, 62, 110
3, 156668, Note_off_c, 1, 62, 64
3, 156672, Note_on_c, 1, 43, 110
3, 157052, Note_off_c, 1, 43, 100
3, 157056, Note_on_c, 1, 65, 110
3, 157436, Note_off_c, 1, 65, 64
3, 157440, Note_on_c, 1, 62, 110
3, 157820, Note_off_c, 1, 62, 64
3, 157824, Note_on_c, 1, 43, 110
3, 158204, Note_off_c, 1, 43, 100
3, 158208, Note_on_c, 1, 65, 110
3, 158588, Note_off_c, 1, 65, 100
3, 158592, Note_on_c, 1, 62, 110
3, 158972, Note_off_c, 1, 62, 100
3, 158976, Note_on_c, 1, 48, 100
3, 159356, Note_off_c, 1, 48, 100
3, 159360, Note_on_c, 1, 63, 97
3, 159740, Note_off_c, 1, 63, 100
3, 159744, Note_on_c, 1, 65, 93
3, 160124, Note_off_c, 1, 65, 100
3, 160128, Note_on_c, 1, 51, 80
3, 160512, Note_on_c, 1, 70, 80
3, 160896, Note_on_c, 1, 67, 80
3, 161276, Note_off_c, 1, 51, 100
3, 161280, Note_on_c, 1, 51, 80
3, 161660, Note_off_c, 1, 70, 100
3, 161664, Note_on_c, 1, 70, 80
3, 162044, Note_off_c, 1, 67, 100
3, 162048, Note_on_c, 1, 67, 80
3, 162428, Note_off_c, 1, 51, 100
3, 162432, Note_on_c, 1, 51, 80
3, 162812, Note_off_c, 1, 70, 100
3, 162816, Note_on_c, 1, 70, 80
3, 163196, Note_off_c, 1, 67, 100
3, 163200, Note_on_c, 1, 67, 80
3, 163580, Note_off_c, 1, 51, 100
3, 163580, Note_off_c, 1, 70, 100
3, 163580, Note_off_c, 1, 67, 100
3, 163584, Note_on_c, 1, 46, 80
3, 163968, Note_on_c, 1, 68, 80
3, 164352, Note_on_c, 1, 65, 80
3, 164732, Note_off_c, 1, 46, 100
3, 164736, Note_on_c, 1, 46, 80
3, 165116, Note_off_c, 1, 68, 100
3, 165120, Note_on_c, 1, 68, 80
3, 165500, Note_off_c, 1, 65, 100
3, 165504, Note_on_c, 1, 65, 80
3, 165884, Note_off_c, 1, 46, 100
3, 165888, Note_on_c, 1, 46, 80
3, 166268, Note_off_c, 1, 68, 100
3, 166272, Note_on_c, 1, 68, 80
3, 166652, Note_off_c, 1, 65, 100
3, 166656, Note_on_c, 1, 65, 80
3, 167036, Note_off_c, 1, 46, 100
3, 167040, Note_on_c, 1, 46, 80
3, 167420, Note_off_c, 1, 68, 100
3, 167424, Note_on_c, 1, 68, 80
3, 167804, Note_off_c, 1, 65, 100
3, 167808, Note_on_c, 1, 65, 80
3, 168188, Note_off_c, 1, 46, 100
3, 168188, Note_off_c, 1, 68, 100
3, 168188, Note_off_c, 1, 65, 100
3, 168192, Note_on_c, 1, 51, 80
3, 168576, Note_on_c, 1, 67, 80
3, 168960, Note_on_c, 1, 67, 80
3, 169340, Note_off_c, 1, 51, 100
3, 169340, Note_off_c, 1, 67, 100
3, 169340, Note_off_c, 1, 67, 100
3, 169344, Note_on_c, 1, 51, 110
3, 169344, Note_on_c, 1, 46, 110
3, 169344, Note_on_c, 1, 39, 110
3, 170492, Note_off_c, 1, 51, 100
3, 170492, Note_off_c, 1, 46, 100
3, 170492, Note_off_c, 1, 39, 100
3, 170496, Note_on_c, 1, 50, 110
3, 170496, Note_on_c, 1, 46, 110
3, 170496, Note_on_c, 1, 38, 110
3, 171644, Note_off_c, 1, 50, 100
3, 171644, Note_off_c, 1, 46, 100
3, 171644, Note_off_c, 1, 38, 100
3, 171648, Note_on_c, 1, 51, 110
3, 171648, Note_on_c, 1, 46, 110
3, 171648, Note_on_c, 1, 39, 110
3, 172412, Note_off_c, 1, 51, 100
3, 172412, Note_off_c, 1, 46, 100
3, 172412, Note_off_c, 1, 39, 100
3, 172416, Note_on_c, 1, 48, 110
3, 172604, Note_off_c, 1, 48, 100
3, 172608, Note_on_c, 1, 43, 110
3, 172796, Note_off_c, 1, 43, 100
3, 172800, Note_on_c, 1, 44, 110
3, 173180, Note_off_c, 1, 44, 100
3, 173184, Note_on_c, 1, 44, 110
3, 173564, Note_off_c, 1, 44, 100
3, 173568, Note_on_c, 1, 45, 110
3, 173948, Note_off_c, 1, 45, 100
3, 173952, Note_on_c, 1, 46, 110
3, 174332, Note_off_c, 1, 46, 100
3, 174720, Note_on_c, 1, 72, 80
3, 174908, Note_off_c, 1, 72, 100
3, 174912, Note_on_c, 1, 70, 80
3, 175100, Note_off_c, 1, 70, 100
3, 175104, Note_on_c, 1, 68, 80
3, 175484, Note_off_c, 1, 68, 100
3, 175488, Note_on_c, 1, 68, 80
3, 175868, Note_off_c, 1, 68, 100
3, 175872, Note_on_c, 1, 69, 80
3, 176252, Note_off_c, 1, 69, 100
3, 176256, Note_on_c, 1, 70, 80
3, 176636, Note_off_c, 1, 70, 100
3, 177024, Note_on_c, 1, 48, 110
3, 177212, Note_off_c, 1, 48, 100
3, 177216, Note_on_c, 1, 50, 110
3, 177404, Note_off_c, 1, 50, 100
3, 177408, Note_on_c, 1, 51, 110
3, 177596, Note_off_c, 1, 51, 100
3, 177600, Note_on_c, 1, 50, 110
3, 177788, Note_off_c, 1, 50, 100
3, 177792, Note_on_c, 1, 48, 110
3, 177980, Note_off_c, 1, 48, 100
3, 177984, Note_on_c, 1, 46, 110
3, 178172, Note_off_c, 1, 46, 100
3, 178176, Note_on_c, 1, 45, 110
3, 178364, Note_off_c, 1, 45, 100
3, 178368, Note_on_c, 1, 43, 110
3, 178556, Note_off_c, 1, 43, 100
3, 178560, Note_on_c, 1, 42, 110
3, 178940, Note_off_c, 1, 42, 100
3, 179328, Note_on_c, 1, 72, 80
3, 179516, Note_off_c, 1, 72, 100
3, 179520, Note_on_c, 1, 74, 80
3, 179708, Note_off_c, 1, 74, 100
3, 179712, Note_on_c, 1, 75, 80
3, 179900, Note_off_c, 1, 75, 100
3, 179904, Note_on_c, 1, 74, 80
3, 180092, Note_off_c, 1, 74, 100
3, 180096, Note_on_c, 1, 72, 80
3, 180284, Note_off_c, 1, 72, 100
3, 180288, Note_on_c, 1, 70, 80
3, 180476, Note_off_c, 1, 70, 100
3, 180480, Note_on_c, 1, 69, 80
3, 180668, Note_off_c, 1, 69, 100
3, 180672, Note_on_c, 1, 67, 80
3, 180860, Note_off_c, 1, 67, 100
3, 180864, Note_on_c, 1, 66, 80
3, 181052, Note_off_c, 1, 66, 100
3, 181056, Note_on_c, 1, 63, 80
3, 181244, Note_off_c, 1, 63, 100
3, 181248, Note_on_c, 1, 62, 80
3, 181436, Note_off_c, 1, 62, 100
3, 181440, Note_on_c, 1, 60, 80
3, 181628, Note_off_c, 1, 60, 100
3, 181632, Note_on_c, 1, 58, 80
3, 181820, Note_off_c, 1, 58, 100
3, 181824, Note_on_c, 1, 57, 80
3, 182012, Note_off_c, 1, 57, 100
3, 182016, Note_on_c, 1, 55, 80
3, 182396, Note_off_c, 1, 55, 100
3, 182400, Note_on_c, 1, 51, 80
3, 182780, Note_off_c, 1, 51, 100
3, 182784, Note_on_c, 1, 49, 80
3, 183164, Note_off_c, 1, 49, 100
3, 183168, Note_on_c, 1, 50, 80
3, 183552, Note_on_c, 1, 69, 80
3, 183936, Note_on_c, 1, 66, 80
3, 184316, Note_off_c, 1, 50, 100
3, 184320, Note_on_c, 1, 50, 80
3, 184700, Note_off_c, 1, 69, 100
3, 184704, Note_on_c, 1, 69, 80
3, 185084, Note_off_c, 1, 66, 100
3, 185088, Note_on_c, 1, 66, 80
3, 185468, Note_off_c, 1, 50, 100
3, 185472, Note_on_c, 1, 50, 80
3, 185852, Note_off_c, 1, 69, 100
3, 185856, Note_on_c, 1, 69, 80
3, 186236, Note_off_c, 1, 66, 100
3, 186240, Note_on_c, 1, 66, 80
3, 186620, Note_off_c, 1, 50, 100
3, 186620, Note_off_c, 1, 69, 100
3, 186620, Note_off_c, 1, 66, 100
3, 186624, Note_on_c, 1, 45, 80
3, 187008, Note_on_c, 1, 67, 80
3, 187392, Note_on_c, 1, 64, 80
3, 187772, Note_off_c, 1, 45, 100
3, 187776, Note_on_c, 1, 45, 80
3, 188156, Note_off_c, 1, 67, 100
3, 188160, Note_on_c, 1, 67, 80
3, 188540, Note_off_c, 1, 64, 100
3, 188544, Note_on_c, 1, 64, 80
3, 188924, Note_off_c, 1, 45, 100
3, 188928, Note_on_c, 1, 45, 80
3, 189308, Note_off_c, 1, 67, 100
3, 189312, Note_on_c, 1, 67, 80
3, 189692, Note_off_c, 1, 64, 100
3, 189696, Note_on_c, 1, 64, 80
3, 190076, Note_off_c, 1, 45, 100
3, 190080, Note_on_c, 1, 45, 80
3, 190460, Note_off_c, 1, 67, 100
3, 190464, Note_on_c, 1, 67, 80
3, 190844, Note_off_c, 1, 64, 100
3, 190848, Note_on_c, 1, 64, 80
3, 191228, Note_off_c, 1, 45, 100
3, 191228, Note_off_c, 1, 67, 100
3, 191228, Note_off_c, 1, 64, 100
3, 191232, Note_on_c, 1, 50, 80
3, 191616, Note_on_c, 1, 66, 80
3, 192000, Note_on_c, 1, 62, 80
3, 192380, Note_off_c, 1, 50, 100
3, 192380, Note_off_c, 1, 66, 100
3, 192380, Note_off_c, 1, 62, 100
3, 192384, Note_on_c, 1, 54, 80
3, 192768, Note_on_c, 1, 50, 82
3, 193152, Note_on_c, 1, 42, 85
3, 193532, Note_off_c, 1, 54, 100
3, 193532, Note_off_c, 1, 50, 100
3, 193536, Note_on_c, 1, 38, 87
3, 193916, Note_off_c, 1, 42, 100
3, 193920, Note_on_c, 1, 54, 90
3, 194300, Note_off_c, 1, 38, 100
3, 194304, Note_on_c, 1, 50, 93
3, 194684, Note_off_c, 1, 54, 100
3, 194688, Note_on_c, 1, 42, 95
3, 195068, Note_off_c, 1, 50, 100
3, 195072, Note_on_c, 1, 38, 98
3, 195452, Note_off_c, 1, 42, 100
3, 195456, Note_on_c, 1, 54, 100
3, 195836, Note_off_c, 1, 38, 100
3, 195840, Note_on_c, 1, 50, 103
3, 196220, Note_off_c, 1, 54, 100
3, 196224, Note_on_c, 1, 42, 106
3, 196604, Note_off_c, 1, 50, 100
3, 196608, Note_on_c, 1, 38, 108
3, 196988, Note_off_c, 1, 42, 100
3, 196988, Note_off_c, 1, 38, 100
3, 196992, Note_on_c, 1, 43, 110
3, 197376, Note_on_c, 1, 59, 110
3, 197376, Note_on_c, 1, 55, 110
3, 197568, Note_on_c, 1, 62, 110
3, 197756, Note_off_c, 1, 59, 100
3, 197756, Note_off_c, 1, 55, 100
3, 197760, Note_on_c, 1, 59, 110
3, 197760, Note_on_c, 1, 55, 110
3, 197948, Note_off_c, 1, 62, 100
3, 197952, Note_on_c, 1, 62, 110
3, 198140, Note_off_c, 1, 43, 100
3, 198140, Note_off_c, 1, 59, 100
3, 198140, Note_off_c, 1, 55, 100
3, 198144, Note_on_c, 1, 59, 110
3, 198144, Note_on_c, 1, 55, 110
3, 198332, Note_off_c, 1, 62, 100
3, 198336, Note_on_c, 1, 62, 110
3, 198524, Note_off_c, 1, 59, 100
3, 198524, Note_off_c, 1, 55, 100
3, 198528, Note_on_c, 1, 59, 110
3, 198528, Note_on_c, 1, 55, 110
3, 198716, Note_off_c, 1, 62, 100
3, 198720, Note_on_c, 1, 62, 110
3, 198908, Note_off_c, 1, 59, 100
3, 198908, Note_off_c, 1, 55, 100
3, 198912, Note_on_c, 1, 55, 110
3, 198912, Note_on_c, 1, 59, 110
3, 199100, Note_off_c, 1, 62, 100
3, 199104, Note_on_c, 1, 62, 110
3, 199292, Note_off_c, 1, 55, 100
3, 199292, Note_off_c, 1, 59, 100
3, 199292, Note_off_c, 1, 62, 100
3, 199296, Note_on_c, 1, 59, 110
3, 199296, Note_on_c, 1, 55, 110
3, 199484, Note_off_c, 1, 59, 100
3, 199484, Note_off_c, 1, 55, 100
3, 199488, Note_on_c, 1, 62, 110
3, 199676, Note_off_c, 1, 62, 100
3, 199680, Note_on_c, 1, 59, 110
3, 199680, Note_on_c, 1, 55, 110
3, 199868, Note_off_c, 1, 59, 100
3, 199868, Note_off_c, 1, 55, 100
3, 199872, Note_on_c, 1, 62, 110
3, 200060, Note_off_c, 1, 62, 100
3, 200064, Note_on_c, 1, 59, 110
3, 200064, Note_on_c, 1, 55, 110
3, 200252, Note_off_c, 1, 59, 100
3, 200252, Note_off_c, 1, 55, 100
3, 200256, Note_on_c, 1, 62, 110
3, 200444, Note_off_c, 1, 62, 100
3, 200448, Note_on_c, 1, 60, 110
3, 200448, Note_on_c, 1, 55, 110
3, 200636, Note_off_c, 1, 60, 100
3, 200636, Note_off_c, 1, 55, 100
3, 200640, Note_on_c, 1, 64, 110
3, 200828, Note_off_c, 1, 64, 100
3, 200832, Note_on_c, 1, 60, 110
3, 200832, Note_on_c, 1, 55, 110
3, 201020, Note_off_c, 1, 60, 100
3, 201020, Note_off_c, 1, 55, 100
3, 201024, Note_on_c, 1, 64, 110
3, 201212, Note_off_c, 1, 64, 100
3, 201216, Note_on_c, 1, 60, 110
3, 201216, Note_on_c, 1, 55, 110
3, 201404, Note_off_c, 1, 60, 100
3, 201404, Note_off_c, 1, 55, 100
3, 201408, Note_on_c, 1, 64, 110
3, 201596, Note_off_c, 1, 64, 100
3, 201600, Note_on_c, 1, 60, 110
3, 201600, Note_on_c, 1, 55, 110
3, 201788, Note_off_c, 1, 60, 100
3, 201788, Note_off_c, 1, 55, 100
3, 201792, Note_on_c, 1, 64, 110
3, 201980, Note_off_c, 1, 64, 100
3, 201984, Note_on_c, 1, 60, 110
3, 201984, Note_on_c, 1, 55, 110
3, 202172, Note_off_c, 1, 60, 100
3, 202172, Note_off_c, 1, 55, 100
3, 202176, Note_on_c, 1, 64, 110
3, 202364, Note_off_c, 1, 64, 100
3, 202368, Note_on_c, 1, 60, 110
3, 202368, Note_on_c, 1, 55, 110
3, 202556, Note_off_c, 1, 60, 100
3, 202556, Note_off_c, 1, 55, 100
3, 202560, Note_on_c, 1, 64, 110
3, 202748, Note_off_c, 1, 64, 100
3, 202752, Note_on_c, 1, 60, 110
3, 202752, Note_on_c, 1, 57, 110
3, 202752, Note_on_c, 1, 55, 110
3, 202940, Note_off_c, 1, 60, 100
3, 202940, Note_off_c, 1, 57, 100
3, 202940, Note_off_c, 1, 55, 100
3, 202944, Note_on_c, 1, 62, 110
3, 203132, Note_off_c, 1, 62, 100
3, 203136, Note_on_c, 1, 60, 110
3, 203136, Note_on_c, 1, 57, 110
3, 203136, Note_on_c, 1, 55, 110
3, 203324, Note_off_c, 1, 60, 100
3, 203324, Note_off_c, 1, 57, 100
3, 203324, Note_off_c, 1, 55, 100
3, 203328, Note_on_c, 1, 62, 110
3, 203516, Note_off_c, 1, 62, 100
3, 203520, Note_on_c, 1, 60, 110
3, 203520, Note_on_c, 1, 57, 110
3, 203520, Note_on_c, 1, 55, 110
3, 203708, Note_off_c, 1, 60, 100
3, 203708, Note_off_c, 1, 57, 100
3, 203708, Note_off_c, 1, 55, 100
3, 203712, Note_on_c, 1, 62, 110
3, 203900, Note_off_c, 1, 62, 100
3, 203904, Note_on_c, 1, 60, 110
3, 203904, Note_on_c, 1, 57, 110
3, 203904, Note_on_c, 1, 55, 110
3, 204092, Note_off_c, 1, 60, 100
3, 204092, Note_off_c, 1, 57, 100
3, 204092, Note_off_c, 1, 55, 100
3, 204096, Note_on_c, 1, 62, 110
3, 204284, Note_off_c, 1, 62, 100
3, 204288, Note_on_c, 1, 60, 110
3, 204288, Note_on_c, 1, 57, 110
3, 204288, Note_on_c, 1, 55, 110
3, 204476, Note_off_c, 1, 60, 100
3, 204476, Note_off_c, 1, 57, 100
3, 204476, Note_off_c, 1, 55, 100
3, 204480, Note_on_c, 1, 62, 110
3, 204668, Note_off_c, 1, 62, 100
3, 204672, Note_on_c, 1, 60, 110
3, 204672, Note_on_c, 1, 57, 110
3, 204672, Note_on_c, 1, 55, 110
3, 204860, Note_off_c, 1, 60, 100
3, 204860, Note_off_c, 1, 57, 100
3, 204860, Note_off_c, 1, 55, 100
3, 204864, Note_on_c, 1, 62, 110
3, 205052, Note_off_c, 1, 62, 100
3, 205056, Note_on_c, 1, 59, 110
3, 205056, Note_on_c, 1, 55, 110
3, 206204, Note_off_c, 1, 59, 100
3, 206204, Note_off_c, 1, 55, 100
3, 206208, Note_on_c, 1, 57, 110
3, 206208, Note_on_c, 1, 54, 110
3, 207356, Note_off_c, 1, 57, 100
3, 207356, Note_off_c, 1, 54, 100
3, 207360, Note_on_c, 1, 59, 110
3, 207360, Note_on_c, 1, 55, 110
3, 208508, Note_off_c, 1, 59, 100
3, 208508, Note_off_c, 1, 55, 100
3, 208512, Note_on_c, 1, 60, 110
3, 208512, Note_on_c, 1, 57, 110
3, 209660, Note_off_c, 1, 60, 100
3, 209660, Note_off_c, 1, 57, 100
3, 209664, Note_on_c, 1, 47, 110
3, 209852, Note_off_c, 1, 47, 100
3, 209856, Note_on_c, 1, 50, 105
3, 210044, Note_off_c, 1, 50, 100
3, 210048, Note_on_c, 1, 55, 99
3, 210236, Note_off_c, 1, 55, 100
3, 210240, Note_on_c, 1, 59, 93
3, 210428, Note_off_c, 1, 59, 100
3, 214272, Note_on_c, 1, 48, 80
3, 214460, Note_off_c, 1, 48, 100
3, 214464, Note_on_c, 1, 52, 80
3, 214652, Note_off_c, 1, 52, 100
3, 214656, Note_on_c, 1, 55, 80
3, 214844, Note_off_c, 1, 55, 100
3, 214848, Note_on_c, 1, 60, 80
3, 215036, Note_off_c, 1, 60, 100
3, 218880, Note_on_c, 1, 45, 80
3, 219068, Note_off_c, 1, 45, 100
3, 219072, Note_on_c, 1, 49, 80
3, 219260, Note_off_c, 1, 49, 100
3, 219264, Note_on_c, 1, 52, 80
3, 219452, Note_off_c, 1, 52, 100
3, 219456, Note_on_c, 1, 55, 80
3, 219644, Note_off_c, 1, 55, 100
3, 222720, Note_on_c, 1, 61, 80
3, 222720, Note_on_c, 1, 64, 80
3, 223100, Note_off_c, 1, 61, 100
3, 223100, Note_off_c, 1, 64, 100
3, 223104, Note_on_c, 1, 64, 80
3, 223104, Note_on_c, 1, 67, 80
3, 223484, Note_off_c, 1, 64, 100
3, 223484, Note_off_c, 1, 67, 100
3, 223488, Note_on_c, 1, 62, 80
3, 223488, Note_on_c, 1, 66, 80
3, 223676, Note_off_c, 1, 66, 100
3, 223680, Note_on_c, 1, 67, 81
3, 223868, Note_off_c, 1, 62, 100
3, 223868, Note_off_c, 1, 67, 100
3, 223872, Note_on_c, 1, 69, 83
3, 224060, Note_off_c, 1, 69, 100
3, 224064, Note_on_c, 1, 71, 85
3, 224252, Note_off_c, 1, 71, 100
3, 224256, Note_on_c, 1, 73, 87
3, 224444, Note_off_c, 1, 73, 100
3, 224448, Note_on_c, 1, 74, 88
3, 224636, Note_off_c, 1, 74, 100
3, 224640, Note_on_c, 1, 73, 90
3, 224828, Note_off_c, 1, 73, 100
3, 224832, Note_on_c, 1, 71, 92
3, 225020, Note_off_c, 1, 71, 100
3, 225024, Note_on_c, 1, 69, 94
3, 225212, Note_off_c, 1, 69, 100
3, 225216, Note_on_c, 1, 67, 95
3, 225404, Note_off_c, 1, 67, 100
3, 225408, Note_on_c, 1, 66, 97
3, 225596, Note_off_c, 1, 66, 100
3, 225600, Note_on_c, 1, 64, 99
3, 225788, Note_off_c, 1, 64, 100
3, 225792, Note_on_c, 1, 62, 101
3, 225980, Note_off_c, 1, 62, 100
3, 225984, Note_on_c, 1, 60, 102
3, 226172, Note_off_c, 1, 60, 100
3, 226176, Note_on_c, 1, 59, 104
3, 226364, Note_off_c, 1, 59, 100
3, 226368, Note_on_c, 1, 57, 106
3, 226556, Note_off_c, 1, 57, 100
3, 226560, Note_on_c, 1, 55, 108
3, 226748, Note_off_c, 1, 55, 100
3, 226752, Note_on_c, 1, 54, 109
3, 226940, Note_off_c, 1, 54, 100
3, 226944, Note_on_c, 1, 55, 80
3, 227132, Note_off_c, 1, 55, 100
3, 227136, Note_on_c, 1, 57, 80
3, 227324, Note_off_c, 1, 57, 100
3, 227328, Note_on_c, 1, 59, 80
3, 227516, Note_off_c, 1, 59, 100
3, 227520, Note_on_c, 1, 61, 80
3, 227708, Note_off_c, 1, 61, 100
3, 227712, Note_on_c, 1, 62, 80
3, 227900, Note_off_c, 1, 62, 100
3, 227904, Note_on_c, 1, 64, 80
3, 228092, Note_off_c, 1, 64, 100
3, 228096, Note_on_c, 1, 62, 80
3, 228096, Note_on_c, 1, 66, 80
3, 228284, Note_off_c, 1, 66, 100
3, 228288, Note_on_c, 1, 67, 81
3, 228476, Note_off_c, 1, 62, 100
3, 228476, Note_off_c, 1, 67, 100
3, 228480, Note_on_c, 1, 69, 82
3, 228668, Note_off_c, 1, 69, 100
3, 228672, Note_on_c, 1, 71, 83
3, 228860, Note_off_c, 1, 71, 100
3, 228864, Note_on_c, 1, 73, 84
3, 229052, Note_off_c, 1, 73, 100
3, 229056, Note_on_c, 1, 74, 85
3, 229244, Note_off_c, 1, 74, 100
3, 229248, Note_on_c, 1, 73, 87
3, 229436, Note_off_c, 1, 73, 100
3, 229440, Note_on_c, 1, 71, 88
3, 229628, Note_off_c, 1, 71, 100
3, 229632, Note_on_c, 1, 69, 89
3, 229820, Note_off_c, 1, 69, 100
3, 229824, Note_on_c, 1, 67, 90
3, 230012, Note_off_c, 1, 67, 100
3, 230016, Note_on_c, 1, 66, 91
3, 230204, Note_off_c, 1, 66, 100
3, 230208, Note_on_c, 1, 64, 92
3, 230396, Note_off_c, 1, 64, 100
3, 230400, Note_on_c, 1, 62, 94
3, 230588, Note_off_c, 1, 62, 100
3, 230592, Note_on_c, 1, 60, 95
3, 230780, Note_off_c, 1, 60, 100
3, 230784, Note_on_c, 1, 59, 96
3, 230972, Note_off_c, 1, 59, 100
3, 230976, Note_on_c, 1, 57, 97
3, 231164, Note_off_c, 1, 57, 100
3, 231168, Note_on_c, 1, 55, 98
3, 231356, Note_off_c, 1, 55, 100
3, 231360, Note_on_c, 1, 54, 99
3, 231548, Note_off_c, 1, 54, 100
3, 231552, Note_on_c, 1, 55, 80
3, 231740, Note_off_c, 1, 55, 100
3, 231744, Note_on_c, 1, 57, 80
3, 231932, Note_off_c, 1, 57, 100
3, 231936, Note_on_c, 1, 59, 80
3, 232124, Note_off_c, 1, 59, 100
3, 232128, Note_on_c, 1, 61, 80
3, 232316, Note_off_c, 1, 61, 100
3, 232320, Note_on_c, 1, 62, 80
3, 232508, Note_off_c, 1, 62, 100
3, 232512, Note_on_c, 1, 64, 80
3, 232700, Note_off_c, 1, 64, 100
3, 232704, Note_on_c, 1, 69, 80
3, 232704, Note_on_c, 1, 66, 80
3, 232704, Note_on_c, 1, 62, 80
3, 233852, Note_off_c, 1, 69, 100
3, 233852, Note_off_c, 1, 66, 100
3, 233856, Note_on_c, 1, 67, 80
3, 233856, Note_on_c, 1, 64, 80
3, 235004, Note_off_c, 1, 62, 100
3, 235004, Note_off_c, 1, 67, 100
3, 235004, Note_off_c, 1, 64, 100
3, 235008, Note_on_c, 1, 73, 80
3, 235008, Note_on_c, 1, 67, 80
3, 235008, Note_on_c, 1, 62, 80
3, 236156, Note_off_c, 1, 73, 100
3, 236156, Note_off_c, 1, 67, 100
3, 236160, Note_on_c, 1, 69, 80
3, 236160, Note_on_c, 1, 66, 80
3, 237308, Note_off_c, 1, 62, 100
3, 237308, Note_off_c, 1, 69, 100
3, 237308, Note_off_c, 1, 66, 100
3, 237312, Note_on_c, 1, 72, 80
3, 237312, Note_on_c, 1, 69, 80
3, 237312, Note_on_c, 1, 66, 80
3, 237312, Note_on_c, 1, 62, 80
3, 238460, Note_off_c, 1, 72, 100
3, 238460, Note_off_c, 1, 69, 100
3, 238460, Note_off_c, 1, 66, 100
3, 238460, Note_off_c, 1, 62, 100
3, 238464, Note_on_c, 1, 72, 110
3, 238464, Note_on_c, 1, 69, 110
3, 238464, Note_on_c, 1, 66, 110
3, 238464, Note_on_c, 1, 63, 110
3, 239612, Note_off_c, 1, 72, 100
3, 239612, Note_off_c, 1, 69, 100
3, 239612, Note_off_c, 1, 66, 100
3, 239612, Note_off_c, 1, 63, 100
3, 239616, Note_on_c, 1, 72, 110
3, 239616, Note_on_c, 1, 69, 110
3, 239616, Note_on_c, 1, 66, 110
3, 239616, Note_on_c, 1, 62, 110
3, 240380, Note_off_c, 1, 72, 100
3, 240380, Note_off_c, 1, 69, 100
3, 240380, Note_off_c, 1, 66, 100
3, 240380, Note_off_c, 1, 62, 100
3, 240384, Note_on_c, 1, 69, 110
3, 240384, Note_on_c, 1, 66, 110
3, 240384, Note_on_c, 1, 60, 110
3, 240764, Note_off_c, 1, 69, 100
3, 240764, Note_off_c, 1, 66, 100
3, 240764, Note_off_c, 1, 60, 100
3, 240768, Note_on_c, 1, 67, 110
3, 240768, Note_on_c, 1, 62, 110
3, 240768, Note_on_c, 1, 59, 110
3, 241532, Note_off_c, 1, 67, 100
3, 241532, Note_off_c, 1, 62, 100
3, 241532, Note_off_c, 1, 59, 100
3, 241536, Note_on_c, 1, 67, 95
3, 241536, Note_on_c, 1, 62, 95
3, 241536, Note_on_c, 1, 55, 95
3, 241916, Note_off_c, 1, 67, 100
3, 241916, Note_off_c, 1, 62, 100
3, 241916, Note_off_c, 1, 55, 100
3, 241920, Note_on_c, 1, 72, 80
3, 241920, Note_on_c, 1, 69, 80
3, 241920, Note_on_c, 1, 66, 80
3, 241920, Note_on_c, 1, 62, 80
3, 243068, Note_off_c, 1, 72, 100
3, 243068, Note_off_c, 1, 69, 100
3, 243068, Note_off_c, 1, 66, 100
3, 243068, Note_off_c, 1, 62, 100
3, 243072, Note_on_c, 1, 72, 110
3, 243072, Note_on_c, 1, 69, 110
3, 243072, Note_on_c, 1, 66, 110
3, 243072, Note_on_c, 1, 63, 110
3, 244220, Note_off_c, 1, 72, 100
3, 244220, Note_off_c, 1, 69, 100
3, 244220, Note_off_c, 1, 66, 100
3, 244220, Note_off_c, 1, 63, 100
3, 244224, Note_on_c, 1, 72, 110
3, 244224, Note_on_c, 1, 69, 110
3, 244224, Note_on_c, 1, 66, 110
3, 244224, Note_on_c, 1, 62, 110
3, 244988, Note_off_c, 1, 72, 100
3, 244988, Note_off_c, 1, 69, 100
3, 244988, Note_off_c, 1, 66, 100
3, 244988, Note_off_c, 1, 62, 100
3, 244992, Note_on_c, 1, 69, 110
3, 244992, Note_on_c, 1, 66, 110
3, 244992, Note_on_c, 1, 60, 110
3, 245372, Note_off_c, 1, 69, 100
3, 245372, Note_off_c, 1, 66, 100
3, 245372, Note_off_c, 1, 60, 100
3, 245376, Note_on_c, 1, 67, 110
3, 245376, Note_on_c, 1, 62, 110
3, 245376, Note_on_c, 1, 59, 110
3, 246140, Note_off_c, 1, 67, 100
3, 246140, Note_off_c, 1, 62, 100
3, 246140, Note_off_c, 1, 59, 100
3, 246144, Note_on_c, 1, 67, 95
3, 246144, Note_on_c, 1, 62, 95
3, 246144, Note_on_c, 1, 55, 95
3, 246524, Note_off_c, 1, 67, 100
3, 246524, Note_off_c, 1, 62, 100
3, 246524, Note_off_c, 1, 55, 100
3, 246528, Note_on_c, 1, 67, 80
3, 246528, Note_on_c, 1, 64, 80
3, 246528, Note_on_c, 1, 60, 80
3, 246908, Note_off_c, 1, 67, 100
3, 246908, Note_off_c, 1, 64, 100
3, 246908, Note_off_c, 1, 60, 100
3, 247296, Note_on_c, 1, 69, 80
3, 247296, Note_on_c, 1, 64, 80
3, 247296, Note_on_c, 1, 60, 80
3, 247676, Note_off_c, 1, 69, 100
3, 247676, Note_off_c, 1, 64, 100
3, 247676, Note_off_c, 1, 60, 100
3, 247680, Note_on_c, 1, 71, 80
3, 247680, Note_on_c, 1, 67, 80
3, 247680, Note_on_c, 1, 62, 80
3, 248060, Note_off_c, 1, 71, 100
3, 248060, Note_off_c, 1, 67, 100
3, 248060, Note_off_c, 1, 62, 100
3, 248448, Note_on_c, 1, 72, 80
3, 248448, Note_on_c, 1, 66, 80
3, 248448, Note_on_c, 1, 62, 80
3, 248828, Note_off_c, 1, 72, 100
3, 248828, Note_off_c, 1, 66, 100
3, 248828, Note_off_c, 1, 62, 100
3, 248832, Note_on_c, 1, 59, 110
3, 248832, Note_on_c, 1, 55, 110
3, 249020, Note_off_c, 1, 59, 100
3, 249020, Note_off_c, 1, 55, 100
3, 249024, Note_on_c, 1, 62, 110
3, 249212, Note_off_c, 1, 62, 100
3, 249216, Note_on_c, 1, 59, 110
3, 249216, Note_on_c, 1, 55, 110
3, 249404, Note_off_c, 1, 59, 100
3, 249404, Note_off_c, 1, 55, 100
3, 249408, Note_on_c, 1, 62, 110
3, 249596, Note_off_c, 1, 62, 100
3, 249600, Note_on_c, 1, 59, 110
3, 249600, Note_on_c, 1, 55, 110
3, 249788, Note_off_c, 1, 59, 100
3, 249788, Note_off_c, 1, 55, 100
3, 249792, Note_on_c, 1, 62, 110
3, 249980, Note_off_c, 1, 62, 100
3, 249984, Note_on_c, 1, 60, 110
3, 249984, Note_on_c, 1, 57, 110
3, 249984, Note_on_c, 1, 55, 110
3, 250172, Note_off_c, 1, 60, 100
3, 250172, Note_off_c, 1, 57, 100
3, 250172, Note_off_c, 1, 55, 100
3, 250176, Note_on_c, 1, 62, 110
3, 250364, Note_off_c, 1, 62, 100
3, 250368, Note_on_c, 1, 60, 110
3, 250368, Note_on_c, 1, 57, 110
3, 250368, Note_on_c, 1, 55, 110
3, 250556, Note_off_c, 1, 60, 100
3, 250556, Note_off_c, 1, 57, 100
3, 250556, Note_off_c, 1, 55, 100
3, 250560, Note_on_c, 1, 62, 110
3, 250748, Note_off_c, 1, 62, 100
3, 250752, Note_on_c, 1, 60, 110
3, 250752, Note_on_c, 1, 57, 110
3, 250752, Note_on_c, 1, 55, 110
3, 250940, Note_off_c, 1, 60, 100
3, 250940, Note_off_c, 1, 57, 100
3, 250940, Note_off_c, 1, 55, 100
3, 250944, Note_on_c, 1, 62, 110
3, 251132, Note_off_c, 1, 62, 100
3, 251520, Note_on_c, 1, 50, 80
3, 251900, Note_off_c, 1, 50, 100
3, 251904, Note_on_c, 1, 47, 80
3, 252284, Note_off_c, 1, 47, 100
3, 252672, Note_on_c, 1, 48, 80
3, 253052, Note_off_c, 1, 48, 100
3, 253056, Note_on_c, 1, 45, 80
3, 253436, Note_off_c, 1, 45, 100
3, 253824, Note_on_c, 1, 59, 110
3, 253824, Note_on_c, 1, 47, 110
3, 254204, Note_off_c, 1, 59, 100
3, 254204, Note_off_c, 1, 47, 100
3, 254208, Note_on_c, 1, 56, 110
3, 254208, Note_on_c, 1, 44, 110
3, 254588, Note_off_c, 1, 56, 100
3, 254588, Note_off_c, 1, 44, 100
3, 254976, Note_on_c, 1, 57, 110
3, 254976, Note_on_c, 1, 45, 110
3, 255356, Note_off_c, 1, 57, 100
3, 255356, Note_off_c, 1, 45, 100
3, 255360, Note_on_c, 1, 54, 110
3, 255360, Note_on_c, 1, 42, 110
3, 255740, Note_off_c, 1, 54, 100
3, 255740, Note_off_c, 1, 42, 100
3, 255744, Note_on_c, 1, 56, 110
3, 255744, Note_on_c, 1, 52, 110
3, 255932, Note_off_c, 1, 56, 100
3, 255932, Note_off_c, 1, 52, 100
3, 255936, Note_on_c, 1, 59, 110
3, 256124, Note_off_c, 1, 59, 100
3, 256128, Note_on_c, 1, 56, 110
3, 256128, Note_on_c, 1, 52, 110
3, 256316, Note_off_c, 1, 56, 100
3, 256316, Note_off_c, 1, 52, 100
3, 256320, Note_on_c, 1, 59, 110
3, 256508, Note_off_c, 1, 59, 100
3, 256512, Note_on_c, 1, 56, 110
3, 256512, Note_on_c, 1, 52, 110
3, 256700, Note_off_c, 1, 56, 100
3, 256700, Note_off_c, 1, 52, 100
3, 256704, Note_on_c, 1, 59, 110
3, 256892, Note_off_c, 1, 59, 100
3, 256896, Note_on_c, 1, 56, 110
3, 256896, Note_on_c, 1, 52, 110
3, 257084, Note_off_c, 1, 56, 100
3, 257084, Note_off_c, 1, 52, 100
3, 257088, Note_on_c, 1, 59, 110
3, 257276, Note_off_c, 1, 59, 100
3, 257280, Note_on_c, 1, 56, 110
3, 257280, Note_on_c, 1, 52, 110
3, 257468, Note_off_c, 1, 56, 100
3, 257468, Note_off_c, 1, 52, 100
3, 257472, Note_on_c, 1, 59, 110
3, 257660, Note_off_c, 1, 59, 100
3, 257664, Note_on_c, 1, 56, 110
3, 257664, Note_on_c, 1, 52, 110
3, 257852, Note_off_c, 1, 56, 100
3, 257852, Note_off_c, 1, 52, 100
3, 257856, Note_on_c, 1, 59, 110
3, 258044, Note_off_c, 1, 59, 100
3, 258048, Note_on_c, 1, 56, 110
3, 258048, Note_on_c, 1, 52, 110
3, 258236, Note_off_c, 1, 56, 100
3, 258236, Note_off_c, 1, 52, 100
3, 258240, Note_on_c, 1, 59, 110
3, 258428, Note_off_c, 1, 59, 100
3, 258432, Note_on_c, 1, 56, 110
3, 258432, Note_on_c, 1, 52, 110
3, 258620, Note_off_c, 1, 56, 100
3, 258620, Note_off_c, 1, 52, 100
3, 258624, Note_on_c, 1, 59, 110
3, 258812, Note_off_c, 1, 59, 100
3, 258816, Note_on_c, 1, 56, 110
3, 258816, Note_on_c, 1, 52, 110
3, 259004, Note_off_c, 1, 56, 100
3, 259004, Note_off_c, 1, 52, 100
3, 259008, Note_on_c, 1, 59, 110
3, 259196, Note_off_c, 1, 59, 100
3, 259200, Note_on_c, 1, 57, 110
3, 259200, Note_on_c, 1, 52, 110
3, 259388, Note_off_c, 1, 57, 100
3, 259388, Note_off_c, 1, 52, 100
3, 259392, Note_on_c, 1, 61, 110
3, 259580, Note_off_c, 1, 61, 100
3, 259584, Note_on_c, 1, 57, 110
3, 259584, Note_on_c, 1, 52, 110
3, 259772, Note_off_c, 1, 57, 100
3, 259772, Note_off_c, 1, 52, 100
3, 259776, Note_on_c, 1, 61, 110
3, 259964, Note_off_c, 1, 61, 100
3, 259968, Note_on_c, 1, 57, 110
3, 259968, Note_on_c, 1, 52, 110
3, 260156, Note_off_c, 1, 57, 100
3, 260156, Note_off_c, 1, 52, 100
3, 260160, Note_on_c, 1, 61, 110
3, 260348, Note_off_c, 1, 61, 100
3, 260352, Note_on_c, 1, 57, 110
3, 260352, Note_on_c, 1, 52, 110
3, 260540, Note_off_c, 1, 57, 100
3, 260540, Note_off_c, 1, 52, 100
3, 260544, Note_on_c, 1, 61, 110
3, 260732, Note_off_c, 1, 61, 100
3, 260736, Note_on_c, 1, 57, 110
3, 260736, Note_on_c, 1, 52, 110
3, 260924, Note_off_c, 1, 57, 100
3, 260924, Note_off_c, 1, 52, 100
3, 260928, Note_on_c, 1, 61, 110
3, 261116, Note_off_c, 1, 61, 100
3, 261120, Note_on_c, 1, 57, 110
3, 261120, Note_on_c, 1, 52, 110
3, 261308, Note_off_c, 1, 57, 100
3, 261308, Note_off_c, 1, 52, 100
3, 261312, Note_on_c, 1, 61, 110
3, 261500, Note_off_c, 1, 61, 100
3, 261504, Note_on_c, 1, 57, 110
3, 261504, Note_on_c, 1, 54, 110
3, 261504, Note_on_c, 1, 52, 110
3, 261692, Note_off_c, 1, 57, 100
3, 261692, Note_off_c, 1, 54, 100
3, 261692, Note_off_c, 1, 52, 100
3, 261696, Note_on_c, 1, 59, 110
3, 261884, Note_off_c, 1, 59, 100
3, 261888, Note_on_c, 1, 57, 110
3, 261888, Note_on_c, 1, 54, 110
3, 261888, Note_on_c, 1, 52, 110
3, 262076, Note_off_c, 1, 57, 100
3, 262076, Note_off_c, 1, 54, 100
3, 262076, Note_off_c, 1, 52, 100
3, 262080, Note_on_c, 1, 59, 110
3, 262268, Note_off_c, 1, 59, 100
3, 262272, Note_on_c, 1, 57, 110
3, 262272, Note_on_c, 1, 54, 110
3, 262272, Note_on_c, 1, 52, 110
3, 262460, Note_off_c, 1, 57, 100
3, 262460, Note_off_c, 1, 54, 100
3, 262460, Note_off_c, 1, 52, 100
3, 262464, Note_on_c, 1, 59, 110
3, 262652, Note_off_c, 1, 59, 100
3, 262656, Note_on_c, 1, 57, 110
3, 262656, Note_on_c, 1, 54, 110
3, 262656, Note_on_c, 1, 52, 110
3, 262844, Note_off_c, 1, 57, 100
3, 262844, Note_off_c, 1, 54, 100
3, 262844, Note_off_c, 1, 52, 100
3, 262848, Note_on_c, 1, 59, 110
3, 263036, Note_off_c, 1, 59, 100
3, 263040, Note_on_c, 1, 57, 110
3, 263040, Note_on_c, 1, 54, 110
3, 263040, Note_on_c, 1, 52, 110
3, 263228, Note_off_c, 1, 57, 100
3, 263228, Note_off_c, 1, 54, 100
3, 263228, Note_off_c, 1, 52, 100
3, 263232, Note_on_c, 1, 59, 110
3, 263420, Note_off_c, 1, 59, 100
3, 263424, Note_on_c, 1, 57, 110
3, 263424, Note_on_c, 1, 54, 110
3, 263424, Note_on_c, 1, 52, 110
3, 263612, Note_off_c, 1, 57, 100
3, 263612, Note_off_c, 1, 54, 100
3, 263612, Note_off_c, 1, 52, 100
3, 263616, Note_on_c, 1, 59, 110
3, 263804, Note_off_c, 1, 59, 100
3, 263808, Note_on_c, 1, 52, 110
3, 264188, Note_off_c, 1, 52, 100
3, 264192, Note_on_c, 1, 71, 110
3, 264572, Note_off_c, 1, 71, 100
3, 264576, Note_on_c, 1, 68, 110
3, 264956, Note_off_c, 1, 68, 100
3, 264960, Note_on_c, 1, 52, 110
3, 265340, Note_off_c, 1, 52, 100
3, 265344, Note_on_c, 1, 71, 110
3, 265724, Note_off_c, 1, 71, 100
3, 265728, Note_on_c, 1, 68, 110
3, 266108, Note_off_c, 1, 68, 100
3, 266112, Note_on_c, 1, 52, 110
3, 266492, Note_off_c, 1, 52, 100
3, 266496, Note_on_c, 1, 71, 110
3, 266876, Note_off_c, 1, 71, 100
3, 266880, Note_on_c, 1, 68, 110
3, 267260, Note_off_c, 1, 68, 100
3, 267264, Note_on_c, 1, 47, 110
3, 267644, Note_off_c, 1, 47, 100
3, 267648, Note_on_c, 1, 69, 110
3, 268028, Note_off_c, 1, 69, 100
3, 268032, Note_on_c, 1, 66, 110
3, 268412, Note_off_c, 1, 66, 100
3, 268416, Note_on_c, 1, 47, 110
3, 268796, Note_off_c, 1, 47, 100
3, 268800, Note_on_c, 1, 69, 110
3, 269180, Note_off_c, 1, 69, 100
3, 269184, Note_on_c, 1, 66, 110
3, 269564, Note_off_c, 1, 66, 100
3, 269568, Note_on_c, 1, 47, 110
3, 269948, Note_off_c, 1, 47, 100
3, 269952, Note_on_c, 1, 69, 110
3, 270332, Note_off_c, 1, 69, 100
3, 270336, Note_on_c, 1, 66, 110
3, 270716, Note_off_c, 1, 66, 100
3, 270720, Note_on_c, 1, 47, 110
3, 271100, Note_off_c, 1, 47, 100
3, 271104, Note_on_c, 1, 69, 110
3, 271484, Note_off_c, 1, 69, 100
3, 271488, Note_on_c, 1, 66, 110
3, 271868, Note_off_c, 1, 66, 100
3, 271872, Note_on_c, 1, 52, 80
3, 272252, Note_off_c, 1, 52, 100
3, 272256, Note_on_c, 1, 67, 80
3, 272636, Note_off_c, 1, 67, 100
3, 272640, Note_on_c, 1, 67, 80
3, 273020, Note_off_c, 1, 67, 100
3, 273024, Note_on_c, 1, 48, 80
3, 273408, Note_on_c, 1, 67, 80
3, 273788, Note_off_c, 1, 48, 100
3, 273792, Note_on_c, 1, 64, 80
3, 274172, Note_off_c, 1, 67, 64
3, 274176, Note_on_c, 1, 48, 80
3, 274556, Note_off_c, 1, 64, 64
3, 274560, Note_on_c, 1, 67, 80
3, 274940, Note_off_c, 1, 48, 100
3, 274944, Note_on_c, 1, 64, 80
3, 275324, Note_off_c, 1, 67, 64
3, 275328, Note_on_c, 1, 48, 80
3, 275708, Note_off_c, 1, 64, 64
3, 275712, Note_on_c, 1, 67, 80
3, 276092, Note_off_c, 1, 48, 100
3, 276096, Note_on_c, 1, 64, 80
3, 276476, Note_off_c, 1, 67, 100
3, 276476, Note_off_c, 1, 64, 100
3, 276480, Note_on_c, 1, 43, 80
3, 276864, Note_on_c, 1, 65, 80
3, 277244, Note_off_c, 1, 43, 100
3, 277248, Note_on_c, 1, 62, 80
3, 277628, Note_off_c, 1, 65, 64
3, 277632, Note_on_c, 1, 43, 80
3, 278012, Note_off_c, 1, 62, 64
3, 278016, Note_on_c, 1, 65, 80
3, 278396, Note_off_c, 1, 43, 100
3, 278400, Note_on_c, 1, 62, 80
3, 278780, Note_off_c, 1, 65, 64
3, 278784, Note_on_c, 1, 43, 80
3, 279164, Note_off_c, 1, 62, 64
3, 279168, Note_on_c, 1, 65, 80
3, 279548, Note_off_c, 1, 43, 100
3, 279552, Note_on_c, 1, 62, 80
3, 279932, Note_off_c, 1, 65, 64
3, 279936, Note_on_c, 1, 43, 80
3, 280316, Note_off_c, 1, 62, 64
3, 280320, Note_on_c, 1, 65, 80
3, 280700, Note_off_c, 1, 43, 100
3, 280704, Note_on_c, 1, 62, 80
3, 281084, Note_off_c, 1, 65, 100
3, 281084, Note_off_c, 1, 62, 100
3, 281088, Note_on_c, 1, 48, 80
3, 281472, Note_on_c, 1, 64, 80
3, 281856, Note_on_c, 1, 64, 80
3, 282236, Note_off_c, 1, 48, 100
3, 282236, Note_off_c, 1, 64, 100
3, 282236, Note_off_c, 1, 64, 100
3, 282240, Note_on_c, 1, 48, 110
3, 282240, Note_on_c, 1, 43, 110
3, 282240, Note_on_c, 1, 36, 110
3, 283004, Note_off_c, 1, 48, 100
3, 283004, Note_off_c, 1, 43, 100
3, 283004, Note_off_c, 1, 36, 100
3, 283392, Note_on_c, 1, 47, 110
3, 283392, Note_on_c, 1, 43, 110
3, 283392, Note_on_c, 1, 35, 110
3, 284156, Note_off_c, 1, 47, 100
3, 284156, Note_off_c, 1, 43, 100
3, 284156, Note_off_c, 1, 35, 100
3, 284544, Note_on_c, 1, 48, 110
3, 284544, Note_on_c, 1, 43, 110
3, 284544, Note_on_c, 1, 36, 110
3, 285308, Note_off_c, 1, 48, 100
3, 285308, Note_off_c, 1, 43, 100
3, 285308, Note_off_c, 1, 36, 100
3, 285312, Note_on_c, 1, 45, 110
3, 285500, Note_off_c, 1, 45, 100
3, 285504, Note_on_c, 1, 40, 110
3, 285692, Note_off_c, 1, 40, 100
3, 285696, Note_on_c, 1, 41, 110
3, 286076, Note_off_c, 1, 41, 100
3, 286080, Note_on_c, 1, 41, 110
3, 286460, Note_off_c, 1, 41, 100
3, 286464, Note_on_c, 1, 42, 110
3, 286844, Note_off_c, 1, 42, 100
3, 286848, Note_on_c, 1, 43, 110
3, 287228, Note_off_c, 1, 43, 100
3, 287616, Note_on_c, 1, 62, 80
3, 287804, Note_off_c, 1, 62, 100
3, 287808, Note_on_c, 1, 64, 80
3, 287996, Note_off_c, 1, 64, 100
3, 288000, Note_on_c, 1, 65, 80
3, 288380, Note_off_c, 1, 65, 100
3, 288384, Note_on_c, 1, 65, 80
3, 288764, Note_off_c, 1, 65, 100
3, 288768, Note_on_c, 1, 66, 80
3, 289148, Note_off_c, 1, 66, 100
3, 289152, Note_on_c, 1, 67, 80
3, 289532, Note_off_c, 1, 67, 100
3, 289920, Note_on_c, 1, 53, 80
3, 290108, Note_off_c, 1, 53, 100
3, 290112, Note_on_c, 1, 55, 84
3, 290300, Note_off_c, 1, 55, 100
3, 290304, Note_on_c, 1, 56, 88
3, 290492, Note_off_c, 1, 56, 100
3, 290496, Note_on_c, 1, 55, 92
3, 290684, Note_off_c, 1, 55, 100
3, 290688, Note_on_c, 1, 53, 97
3, 290876, Note_off_c, 1, 53, 100
3, 290880, Note_on_c, 1, 51, 101
3, 291068, Note_off_c, 1, 51, 100
3, 291072, Note_on_c, 1, 50, 105
3, 291260, Note_off_c, 1, 50, 100
3, 291264, Note_on_c, 1, 55, 109
3, 291452, Note_off_c, 1, 55, 100
3, 291456, Note_on_c, 1, 48, 110
3, 291836, Note_off_c, 1, 48, 100
3, 291840, Note_on_c, 1, 67, 110
3, 292220, Note_off_c, 1, 67, 64
3, 292224, Note_on_c, 1, 63, 110
3, 292604, Note_off_c, 1, 63, 64
3, 292608, Note_on_c, 1, 48, 110
3, 292988, Note_off_c, 1, 48, 100
3, 292992, Note_on_c, 1, 67, 110
3, 293372, Note_off_c, 1, 67, 64
3, 293376, Note_on_c, 1, 63, 110
3, 293756, Note_off_c, 1, 63, 64
3, 293760, Note_on_c, 1, 48, 110
3, 294140, Note_off_c, 1, 48, 100
3, 294144, Note_on_c, 1, 67, 110
3, 294524, Note_off_c, 1, 67, 100
3, 294528, Note_on_c, 1, 63, 110
3, 294908, Note_off_c, 1, 63, 100
3, 294912, Note_on_c, 1, 43, 110
3, 295292, Note_off_c, 1, 43, 100
3, 295296, Note_on_c, 1, 65, 110
3, 295676, Note_off_c, 1, 65, 64
3, 295680, Note_on_c, 1, 62, 110
3, 296060, Note_off_c, 1, 62, 64
3, 296064, Note_on_c, 1, 43, 110
3, 296444, Note_off_c, 1, 43, 100
3, 296448, Note_on_c, 1, 65, 110
3, 296828, Note_off_c, 1, 65, 64
3, 296832, Note_on_c, 1, 62, 110
3, 297212, Note_off_c, 1, 62, 64
3, 297216, Note_on_c, 1, 43, 110
3, 297596, Note_off_c, 1, 43, 100
3, 297600, Note_on_c, 1, 65, 110
3, 297980, Note_off_c, 1, 65, 64
3, 297984, Note_on_c, 1, 62, 110
3, 298364, Note_off_c, 1, 62, 64
3, 298368, Note_on_c, 1, 43, 110
3, 298748, Note_off_c, 1, 43, 100
3, 298752, Note_on_c, 1, 65, 110
3, 299132, Note_off_c, 1, 65, 100
3, 299136, Note_on_c, 1, 62, 110
3, 299516, Note_off_c, 1, 62, 100
3, 299520, Note_on_c, 1, 48, 100
3, 299900, Note_off_c, 1, 48, 100
3, 299904, Note_on_c, 1, 63, 97
3, 300284, Note_off_c, 1, 63, 100
3, 300288, Note_on_c, 1, 65, 93
3, 300668, Note_off_c, 1, 65, 100
3, 300672, Note_on_c, 1, 51, 80
3, 301056, Note_on_c, 1, 70, 80
3, 301440, Note_on_c, 1, 67, 80
3, 301820, Note_off_c, 1, 51, 100
3, 301824, Note_on_c, 1, 51, 80
3, 302204, Note_off_c, 1, 70, 64
3, 302208, Note_on_c, 1, 70, 80
3, 302588, Note_off_c, 1, 67, 64
3, 302592, Note_on_c, 1, 67, 80
3, 302972, Note_off_c, 1, 51, 100
3, 302976, Note_on_c, 1, 51, 80
3, 303356, Note_off_c, 1, 70, 64
3, 303360, Note_on_c, 1, 70, 80
3, 303740, Note_off_c, 1, 67, 64
3, 303744, Note_on_c, 1, 67, 80
3, 304124, Note_off_c, 1, 51, 100
3, 304124, Note_off_c, 1, 70, 100
3, 304124, Note_off_c, 1, 67, 100
3, 304128, Note_on_c, 1, 46, 80
3, 304512, Note_on_c, 1, 68, 80
3, 304896, Note_on_c, 1, 65, 80
3, 305276, Note_off_c, 1, 46, 100
3, 305280, Note_on_c, 1, 46, 80
3, 305660, Note_off_c, 1, 68, 64
3, 305664, Note_on_c, 1, 68, 80
3, 306044, Note_off_c, 1, 65, 64
3, 306048, Note_on_c, 1, 65, 80
3, 306428, Note_off_c, 1, 46, 100
3, 306432, Note_on_c, 1, 46, 80
3, 306812, Note_off_c, 1, 68, 64
3, 306816, Note_on_c, 1, 68, 80
3, 307196, Note_off_c, 1, 65, 64
3, 307200, Note_on_c, 1, 65, 80
3, 307580, Note_off_c, 1, 46, 100
3, 307584, Note_on_c, 1, 46, 80
3, 307964, Note_off_c, 1, 68, 64
3, 307968, Note_on_c, 1, 68, 80
3, 308348, Note_off_c, 1, 65, 64
3, 308352, Note_on_c, 1, 65, 80
3, 308732, Note_off_c, 1, 46, 100
3, 308732, Note_off_c, 1, 68, 100
3, 308732, Note_off_c, 1, 65, 100
3, 308736, Note_on_c, 1, 51, 80
3, 309120, Note_on_c, 1, 67, 80
3, 309504, Note_on_c, 1, 67, 80
3, 309884, Note_off_c, 1, 51, 100
3, 309884, Note_off_c, 1, 67, 100
3, 309884, Note_off_c, 1, 67, 100
3, 309888, Note_on_c, 1, 51, 110
3, 309888, Note_on_c, 1, 46, 110
3, 309888, Note_on_c, 1, 39, 110
3, 311036, Note_off_c, 1, 51, 100
3, 311036, Note_off_c, 1, 46, 100
3, 311036, Note_off_c, 1, 39, 100
3, 311040, Note_on_c, 1, 50, 110
3, 311040, Note_on_c, 1, 46, 110
3, 311040, Note_on_c, 1, 38, 110
3, 312188, Note_off_c, 1, 50, 100
3, 312188, Note_off_c, 1, 46, 100
3, 312188, Note_off_c, 1, 38, 100
3, 312192, Note_on_c, 1, 51, 110
3, 312192, Note_on_c, 1, 46, 110
3, 312192, Note_on_c, 1, 39, 110
3, 312956, Note_off_c, 1, 51, 100
3, 312956, Note_off_c, 1, 46, 100
3, 312956, Note_off_c, 1, 39, 100
3, 312960, Note_on_c, 1, 48, 110
3, 313148, Note_off_c, 1, 48, 100
3, 313152, Note_on_c, 1, 43, 110
3, 313340, Note_off_c, 1, 43, 100
3, 313344, Note_on_c, 1, 44, 110
3, 313724, Note_off_c, 1, 44, 100
3, 313728, Note_on_c, 1, 44, 110
3, 314108, Note_off_c, 1, 44, 100
3, 314112, Note_on_c, 1, 45, 110
3, 314492, Note_off_c, 1, 45, 100
3, 314496, Note_on_c, 1, 46, 110
3, 314876, Note_off_c, 1, 46, 100
3, 315264, Note_on_c, 1, 72, 80
3, 315452, Note_off_c, 1, 72, 100
3, 315456, Note_on_c, 1, 70, 80
3, 315644, Note_off_c, 1, 70, 100
3, 315648, Note_on_c, 1, 68, 80
3, 316028, Note_off_c, 1, 68, 100
3, 316032, Note_on_c, 1, 68, 80
3, 316412, Note_off_c, 1, 68, 100
3, 316416, Note_on_c, 1, 69, 80
3, 316796, Note_off_c, 1, 69, 100
3, 316800, Note_on_c, 1, 70, 80
3, 317180, Note_off_c, 1, 70, 100
3, 317568, Note_on_c, 1, 48, 110
3, 317756, Note_off_c, 1, 48, 100
3, 317760, Note_on_c, 1, 50, 110
3, 317948, Note_off_c, 1, 50, 100
3, 317952, Note_on_c, 1, 51, 110
3, 318140, Note_off_c, 1, 51, 100
3, 318144, Note_on_c, 1, 50, 110
3, 318332, Note_off_c, 1, 50, 100
3, 318336, Note_on_c, 1, 48, 110
3, 318524, Note_off_c, 1, 48, 100
3, 318528, Note_on_c, 1, 46, 110
3, 318716, Note_off_c, 1, 46, 100
3, 318720, Note_on_c, 1, 45, 110
3, 318908, Note_off_c, 1, 45, 100
3, 318912, Note_on_c, 1, 43, 110
3, 319100, Note_off_c, 1, 43, 100
3, 319104, Note_on_c, 1, 42, 110
3, 319484, Note_off_c, 1, 42, 100
3, 319872, Note_on_c, 1, 72, 80
3, 320060, Note_off_c, 1, 72, 100
3, 320064, Note_on_c, 1, 74, 80
3, 320252, Note_off_c, 1, 74, 100
3, 320256, Note_on_c, 1, 75, 80
3, 320444, Note_off_c, 1, 75, 100
3, 320448, Note_on_c, 1, 74, 80
3, 320636, Note_off_c, 1, 74, 100
3, 320640, Note_on_c, 1, 72, 80
3, 320828, Note_off_c, 1, 72, 100
3, 320832, Note_on_c, 1, 70, 80
3, 321020, Note_off_c, 1, 70, 100
3, 321024, Note_on_c, 1, 69, 80
3, 321212, Note_off_c, 1, 69, 100
3, 321216, Note_on_c, 1, 67, 80
3, 321404, Note_off_c, 1, 67, 100
3, 321408, Note_on_c, 1, 66, 80
3, 321596, Note_off_c, 1, 66, 100
3, 321600, Note_on_c, 1, 63, 80
3, 321788, Note_off_c, 1, 63, 100
3, 321792, Note_on_c, 1, 62, 80
3, 321980, Note_off_c, 1, 62, 100
3, 321984, Note_on_c, 1, 60, 80
3, 322172, Note_off_c, 1, 60, 100
3, 322176, Note_on_c, 1, 58, 80
3, 322364, Note_off_c, 1, 58, 100
3, 322368, Note_on_c, 1, 57, 80
3, 322556, Note_off_c, 1, 57, 100
3, 322560, Note_on_c, 1, 55, 80
3, 322940, Note_off_c, 1, 55, 100
3, 322944, Note_on_c, 1, 51, 80
3, 323324, Note_off_c, 1, 51, 100
3, 323328, Note_on_c, 1, 49, 80
3, 323708, Note_off_c, 1, 49, 100
3, 323712, Note_on_c, 1, 50, 80
3, 324096, Note_on_c, 1, 69, 80
3, 324480, Note_on_c, 1, 66, 80
3, 324860, Note_off_c, 1, 50, 100
3, 324864, Note_on_c, 1, 50, 80
3, 325244, Note_off_c, 1, 69, 64
3, 325248, Note_on_c, 1, 69, 80
3, 325628, Note_off_c, 1, 66, 64
3, 325632, Note_on_c, 1, 66, 80
3, 326012, Note_off_c, 1, 50, 100
3, 326016, Note_on_c, 1, 50, 80
3, 326396, Note_off_c, 1, 69, 64
3, 326400, Note_on_c, 1, 69, 80
3, 326780, Note_off_c, 1, 66, 64
3, 326784, Note_on_c, 1, 66, 80
3, 327164, Note_off_c, 1, 50, 100
3, 327164, Note_off_c, 1, 69, 100
3, 327164, Note_off_c, 1, 66, 100
3, 327168, Note_on_c, 1, 45, 80
3, 327552, Note_on_c, 1, 67, 80
3, 327936, Note_on_c, 1, 64, 80
3, 328316, Note_off_c, 1, 45, 100
3, 328320, Note_on_c, 1, 45, 80
3, 328700, Note_off_c, 1, 67, 64
3, 328704, Note_on_c, 1, 67, 80
3, 329084, Note_off_c, 1, 64, 64
3, 329088, Note_on_c, 1, 64, 80
3, 329468, Note_off_c, 1, 45, 100
3, 329472, Note_on_c, 1, 45, 80
3, 329852, Note_off_c, 1, 67, 64
3, 329856, Note_on_c, 1, 67, 80
3, 330236, Note_off_c, 1, 64, 64
3, 330240, Note_on_c, 1, 64, 80
3, 330620, Note_off_c, 1, 45, 100
3, 330624, Note_on_c, 1, 45, 80
3, 331004, Note_off_c, 1, 67, 64
3, 331008, Note_on_c, 1, 67, 80
3, 331388, Note_off_c, 1, 64, 64
3, 331392, Note_on_c, 1, 64, 80
3, 331772, Note_off_c, 1, 45, 100
3, 331772, Note_off_c, 1, 67, 100
3, 331772, Note_off_c, 1, 64, 100
3, 331776, Note_on_c, 1, 50, 80
3, 332160, Note_on_c, 1, 66, 80
3, 332544, Note_on_c, 1, 62, 80
3, 332924, Note_off_c, 1, 50, 100
3, 332924, Note_off_c, 1, 66, 100
3, 332924, Note_off_c, 1, 62, 100
3, 332928, Note_on_c, 1, 54, 80
3, 333312, Note_on_c, 1, 50, 82
3, 333696, Note_on_c, 1, 42, 85
3, 334076, Note_off_c, 1, 54, 100
3, 334076, Note_off_c, 1, 50, 100
3, 334080, Note_on_c, 1, 38, 87
3, 334460, Note_off_c, 1, 42, 64
3, 334464, Note_on_c, 1, 54, 90
3, 334844, Note_off_c, 1, 38, 100
3, 334848, Note_on_c, 1, 50, 93
3, 335228, Note_off_c, 1, 54, 100
3, 335232, Note_on_c, 1, 42, 95
3, 335612, Note_off_c, 1, 50, 64
3, 335616, Note_on_c, 1, 38, 98
3, 335996, Note_off_c, 1, 42, 100
3, 336000, Note_on_c, 1, 54, 100
3, 336380, Note_off_c, 1, 38, 100
3, 336384, Note_on_c, 1, 50, 103
3, 336764, Note_off_c, 1, 54, 64
3, 336768, Note_on_c, 1, 42, 106
3, 337148, Note_off_c, 1, 50, 100
3, 337152, Note_on_c, 1, 38, 108
3, 337532, Note_off_c, 1, 42, 100
3, 337532, Note_off_c, 1, 38, 100
3, 337536, Note_on_c, 1, 43, 110
3, 337920, Note_on_c, 1, 59, 110
3, 337920, Note_on_c, 1, 55, 110
3, 338112, Note_on_c, 1, 62, 110
3, 338300, Note_off_c, 1, 59, 100
3, 338300, Note_off_c, 1, 55, 100
3, 338304, Note_on_c, 1, 59, 110
3, 338304, Note_on_c, 1, 55, 110
3, 338492, Note_off_c, 1, 62, 100
3, 338496, Note_on_c, 1, 62, 110
3, 338684, Note_off_c, 1, 43, 100
3, 338684, Note_off_c, 1, 59, 100
3, 338684, Note_off_c, 1, 55, 100
3, 338688, Note_on_c, 1, 59, 110
3, 338688, Note_on_c, 1, 55, 110
3, 338876, Note_off_c, 1, 62, 64
3, 338880, Note_on_c, 1, 62, 110
3, 339068, Note_off_c, 1, 59, 100
3, 339068, Note_off_c, 1, 55, 100
3, 339072, Note_on_c, 1, 59, 110
3, 339072, Note_on_c, 1, 55, 110
3, 339260, Note_off_c, 1, 62, 100
3, 339264, Note_on_c, 1, 62, 110
3, 339452, Note_off_c, 1, 59, 100
3, 339452, Note_off_c, 1, 55, 100
3, 339456, Note_on_c, 1, 55, 110
3, 339456, Note_on_c, 1, 59, 110
3, 339644, Note_off_c, 1, 62, 100
3, 339648, Note_on_c, 1, 62, 110
3, 339836, Note_off_c, 1, 55, 100
3, 339836, Note_off_c, 1, 59, 100
3, 339836, Note_off_c, 1, 62, 100
3, 339840, Note_on_c, 1, 59, 110
3, 339840, Note_on_c, 1, 55, 110
3, 340028, Note_off_c, 1, 59, 100
3, 340028, Note_off_c, 1, 55, 100
3, 340032, Note_on_c, 1, 62, 110
3, 340220, Note_off_c, 1, 62, 100
3, 340224, Note_on_c, 1, 59, 110
3, 340224, Note_on_c, 1, 55, 110
3, 340412, Note_off_c, 1, 59, 100
3, 340412, Note_off_c, 1, 55, 100
3, 340416, Note_on_c, 1, 62, 110
3, 340604, Note_off_c, 1, 62, 100
3, 340608, Note_on_c, 1, 59, 110
3, 340608, Note_on_c, 1, 55, 110
3, 340796, Note_off_c, 1, 59, 100
3, 340796, Note_off_c, 1, 55, 100
3, 340800, Note_on_c, 1, 62, 110
3, 340988, Note_off_c, 1, 62, 100
3, 340992, Note_on_c, 1, 60, 110
3, 340992, Note_on_c, 1, 55, 110
3, 341180, Note_off_c, 1, 60, 100
3, 341180, Note_off_c, 1, 55, 100
3, 341184, Note_on_c, 1, 64, 110
3, 341372, Note_off_c, 1, 64, 100
3, 341376, Note_on_c, 1, 60, 110
3, 341376, Note_on_c, 1, 55, 110
3, 341564, Note_off_c, 1, 60, 100
3, 341564, Note_off_c, 1, 55, 100
3, 341568, Note_on_c, 1, 64, 110
3, 341756, Note_off_c, 1, 64, 100
3, 341760, Note_on_c, 1, 60, 110
3, 341760, Note_on_c, 1, 55, 110
3, 341948, Note_off_c, 1, 60, 100
3, 341948, Note_off_c, 1, 55, 100
3, 341952, Note_on_c, 1, 64, 110
3, 342140, Note_off_c, 1, 64, 100
3, 342144, Note_on_c, 1, 60, 110
3, 342144, Note_on_c, 1, 55, 110
3, 342332, Note_off_c, 1, 60, 100
3, 342332, Note_off_c, 1, 55, 100
3, 342336, Note_on_c, 1, 64, 110
3, 342524, Note_off_c, 1, 64, 100
3, 342528, Note_on_c, 1, 60, 110
3, 342528, Note_on_c, 1, 55, 110
3, 342716, Note_off_c, 1, 60, 100
3, 342716, Note_off_c, 1, 55, 100
3, 342720, Note_on_c, 1, 64, 110
3, 342908, Note_off_c, 1, 64, 100
3, 342912, Note_on_c, 1, 60, 110
3, 342912, Note_on_c, 1, 55, 110
3, 343100, Note_off_c, 1, 60, 100
3, 343100, Note_off_c, 1, 55, 100
3, 343104, Note_on_c, 1, 64, 110
3, 343292, Note_off_c, 1, 64, 100
3, 343296, Note_on_c, 1, 60, 110
3, 343296, Note_on_c, 1, 57, 110
3, 343296, Note_on_c, 1, 55, 110
3, 343484, Note_off_c, 1, 60, 100
3, 343484, Note_off_c, 1, 57, 100
3, 343484, Note_off_c, 1, 55, 100
3, 343488, Note_on_c, 1, 62, 110
3, 343676, Note_off_c, 1, 62, 100
3, 343680, Note_on_c, 1, 60, 110
3, 343680, Note_on_c, 1, 57, 110
3, 343680, Note_on_c, 1, 55, 110
3, 343868, Note_off_c, 1, 60, 100
3, 343868, Note_off_c, 1, 57, 100
3, 343868, Note_off_c, 1, 55, 100
3, 343872, Note_on_c, 1, 62, 110
3, 344060, Note_off_c, 1, 62, 100
3, 344064, Note_on_c, 1, 60, 110
3, 344064, Note_on_c, 1, 57, 110
3, 344064, Note_on_c, 1, 55, 110
3, 344252, Note_off_c, 1, 60, 100
3, 344252, Note_off_c, 1, 57, 100
3, 344252, Note_off_c, 1, 55, 100
3, 344256, Note_on_c, 1, 62, 110
3, 344444, Note_off_c, 1, 62, 100
3, 344448, Note_on_c, 1, 60, 110
3, 344448, Note_on_c, 1, 57, 110
3, 344448, Note_on_c, 1, 55, 110
3, 344636, Note_off_c, 1, 60, 100
3, 344636, Note_off_c, 1, 57, 100
3, 344636, Note_off_c, 1, 55, 100
3, 344640, Note_on_c, 1, 62, 110
3, 344828, Note_off_c, 1, 62, 100
3, 344832, Note_on_c, 1, 60, 110
3, 344832, Note_on_c, 1, 57, 110
3, 344832, Note_on_c, 1, 55, 110
3, 345020, Note_off_c, 1, 60, 100
3, 345020, Note_off_c, 1, 57, 100
3, 345020, Note_off_c, 1, 55, 100
3, 345024, Note_on_c, 1, 62, 110
3, 345212, Note_off_c, 1, 62, 100
3, 345216, Note_on_c, 1, 60, 110
3, 345216, Note_on_c, 1, 57, 110
3, 345216, Note_on_c, 1, 55, 110
3, 345404, Note_off_c, 1, 60, 100
3, 345404, Note_off_c, 1, 57, 100
3, 345404, Note_off_c, 1, 55, 100
3, 345408, Note_on_c, 1, 62, 110
3, 345596, Note_off_c, 1, 62, 100
3, 345600, Note_on_c, 1, 59, 110
3, 345600, Note_on_c, 1, 55, 110
3, 346748, Note_off_c, 1, 59, 100
3, 346748, Note_off_c, 1, 55, 100
3, 346752, Note_on_c, 1, 57, 110
3, 346752, Note_on_c, 1, 54, 110
3, 347900, Note_off_c, 1, 57, 100
3, 347900, Note_off_c, 1, 54, 100
3, 347904, Note_on_c, 1, 59, 110
3, 347904, Note_on_c, 1, 55, 110
3, 349052, Note_off_c, 1, 59, 100
3, 349052, Note_off_c, 1, 55, 100
3, 349056, Note_on_c, 1, 60, 110
3, 349056, Note_on_c, 1, 57, 110
3, 350204, Note_off_c, 1, 60, 100
3, 350204, Note_off_c, 1, 57, 100
3, 350208, Note_on_c, 1, 47, 110
3, 350396, Note_off_c, 1, 47, 100
3, 350400, Note_on_c, 1, 50, 105
3, 350588, Note_off_c, 1, 50, 100
3, 350592, Note_on_c, 1, 55, 99
3, 350780, Note_off_c, 1, 55, 100
3, 350784, Note_on_c, 1, 59, 93
3, 350972, Note_off_c, 1, 59, 100
3, 354816, Note_on_c, 1, 48, 80
3, 355004, Note_off_c, 1, 48, 100
3, 355008, Note_on_c, 1, 52, 80
3, 355196, Note_off_c, 1, 52, 100
3, 355200, Note_on_c, 1, 55, 80
3, 355388, Note_off_c, 1, 55, 100
3, 355392, Note_on_c, 1, 60, 80
3, 355580, Note_off_c, 1, 60, 100
3, 359424, Note_on_c, 1, 45, 80
3, 359612, Note_off_c, 1, 45, 100
3, 359616, Note_on_c, 1, 49, 80
3, 359804, Note_off_c, 1, 49, 100
3, 359808, Note_on_c, 1, 52, 80
3, 359996, Note_off_c, 1, 52, 100
3, 360000, Note_on_c, 1, 55, 80
3, 360188, Note_off_c, 1, 55, 100
3, 363264, Note_on_c, 1, 61, 80
3, 363264, Note_on_c, 1, 64, 80
3, 363644, Note_off_c, 1, 61, 100
3, 363644, Note_off_c, 1, 64, 100
3, 363648, Note_on_c, 1, 64, 80
3, 363648, Note_on_c, 1, 67, 80
3, 364028, Note_off_c, 1, 64, 100
3, 364028, Note_off_c, 1, 67, 100
3, 364032, Note_on_c, 1, 62, 80
3, 364032, Note_on_c, 1, 66, 80
3, 364220, Note_off_c, 1, 66, 100
3, 364224, Note_on_c, 1, 67, 81
3, 364412, Note_off_c, 1, 62, 100
3, 364412, Note_off_c, 1, 67, 100
3, 364416, Note_on_c, 1, 69, 83
3, 364604, Note_off_c, 1, 69, 100
3, 364608, Note_on_c, 1, 71, 85
3, 364796, Note_off_c, 1, 71, 100
3, 364800, Note_on_c, 1, 73, 87
3, 364988, Note_off_c, 1, 73, 100
3, 364992, Note_on_c, 1, 74, 88
3, 365180, Note_off_c, 1, 74, 100
3, 365184, Note_on_c, 1, 73, 90
3, 365372, Note_off_c, 1, 73, 100
3, 365376, Note_on_c, 1, 71, 92
3, 365564, Note_off_c, 1, 71, 100
3, 365568, Note_on_c, 1, 69, 94
3, 365756, Note_off_c, 1, 69, 100
3, 365760, Note_on_c, 1, 67, 95
3, 365948, Note_off_c, 1, 67, 100
3, 365952, Note_on_c, 1, 66, 97
3, 366140, Note_off_c, 1, 66, 100
3, 366144, Note_on_c, 1, 64, 99
3, 366332, Note_off_c, 1, 64, 100
3, 366336, Note_on_c, 1, 62, 101
3, 366524, Note_off_c, 1, 62, 100
3, 366528, Note_on_c, 1, 60, 102
3, 366716, Note_off_c, 1, 60, 100
3, 366720, Note_on_c, 1, 59, 104
3, 366908, Note_off_c, 1, 59, 100
3, 366912, Note_on_c, 1, 57, 106
3, 367100, Note_off_c, 1, 57, 100
3, 367104, Note_on_c, 1, 55, 108
3, 367292, Note_off_c, 1, 55, 100
3, 367296, Note_on_c, 1, 54, 109
3, 367484, Note_off_c, 1, 54, 100
3, 367488, Note_on_c, 1, 55, 80
3, 367676, Note_off_c, 1, 55, 100
3, 367680, Note_on_c, 1, 57, 80
3, 367868, Note_off_c, 1, 57, 100
3, 367872, Note_on_c, 1, 59, 80
3, 368060, Note_off_c, 1, 59, 100
3, 368064, Note_on_c, 1, 61, 80
3, 368252, Note_off_c, 1, 61, 100
3, 368256, Note_on_c, 1, 62, 80
3, 368444, Note_off_c, 1, 62, 100
3, 368448, Note_on_c, 1, 64, 80
3, 368636, Note_off_c, 1, 64, 100
3, 368640, Note_on_c, 1, 62, 80
3, 368640, Note_on_c, 1, 66, 80
3, 368828, Note_off_c, 1, 66, 100
3, 368832, Note_on_c, 1, 67, 81
3, 369020, Note_off_c, 1, 62, 100
3, 369020, Note_off_c, 1, 67, 100
3, 369024, Note_on_c, 1, 69, 82
3, 369212, Note_off_c, 1, 69, 100
3, 369216, Note_on_c, 1, 71, 83
3, 369404, Note_off_c, 1, 71, 100
3, 369408, Note_on_c, 1, 73, 84
3, 369596, Note_off_c, 1, 73, 100
3, 369600, Note_on_c, 1, 74, 85
3, 369788, Note_off_c, 1, 74, 100
3, 369792, Note_on_c, 1, 73, 87
3, 369980, Note_off_c, 1, 73, 100
3, 369984, Note_on_c, 1, 71, 88
3, 370172, Note_off_c, 1, 71, 100
3, 370176, Note_on_c, 1, 69, 89
3, 370364, Note_off_c, 1, 69, 100
3, 370368, Note_on_c, 1, 67, 90
3, 370556, Note_off_c, 1, 67, 100
3, 370560, Note_on_c, 1, 66, 91
3, 370748, Note_off_c, 1, 66, 100
3, 370752, Note_on_c, 1, 64, 92
3, 370940, Note_off_c, 1, 64, 100
3, 370944, Note_on_c, 1, 62, 94
3, 371132, Note_off_c, 1, 62, 100
3, 371136, Note_on_c, 1, 60, 95
3, 371324, Note_off_c, 1, 60, 100
3, 371328, Note_on_c, 1, 59, 96
3, 371516, Note_off_c, 1, 59, 100
3, 371520, Note_on_c, 1, 57, 97
3, 371708, Note_off_c, 1, 57, 100
3, 371712, Note_on_c, 1, 55, 98
3, 371900, Note_off_c, 1, 55, 100
3, 371904, Note_on_c, 1, 54, 99
3, 372092, Note_off_c, 1, 54, 100
3, 372096, Note_on_c, 1, 55, 80
3, 372284, Note_off_c, 1, 55, 100
3, 372288, Note_on_c, 1, 57, 80
3, 372476, Note_off_c, 1, 57, 100
3, 372480, Note_on_c, 1, 59, 80
3, 372668, Note_off_c, 1, 59, 100
3, 372672, Note_on_c, 1, 61, 80
3, 372860, Note_off_c, 1, 61, 100
3, 372864, Note_on_c, 1, 62, 80
3, 373052, Note_off_c, 1, 62, 100
3, 373056, Note_on_c, 1, 64, 80
3, 373244, Note_off_c, 1, 64, 100
3, 373248, Note_on_c, 1, 69, 80
3, 373248, Note_on_c, 1, 66, 80
3, 373248, Note_on_c, 1, 62, 80
3, 374396, Note_off_c, 1, 69, 100
3, 374396, Note_off_c, 1, 66, 100
3, 374400, Note_on_c, 1, 67, 80
3, 374400, Note_on_c, 1, 64, 80
3, 375548, Note_off_c, 1, 62, 64
3, 375548, Note_off_c, 1, 67, 100
3, 375548, Note_off_c, 1, 64, 100
3, 375552, Note_on_c, 1, 73, 80
3, 375552, Note_on_c, 1, 67, 80
3, 375552, Note_on_c, 1, 62, 80
3, 376700, Note_off_c, 1, 73, 100
3, 376700, Note_off_c, 1, 67, 100
3, 376704, Note_on_c, 1, 69, 80
3, 376704, Note_on_c, 1, 66, 80
3, 377852, Note_off_c, 1, 62, 64
3, 377852, Note_off_c, 1, 69, 100
3, 377852, Note_off_c, 1, 66, 100
3, 377856, Note_on_c, 1, 72, 80
3, 377856, Note_on_c, 1, 69, 80
3, 377856, Note_on_c, 1, 66, 80
3, 377856, Note_on_c, 1, 62, 80
3, 379004, Note_off_c, 1, 72, 100
3, 379004, Note_off_c, 1, 69, 100
3, 379004, Note_off_c, 1, 66, 100
3, 379004, Note_off_c, 1, 62, 100
3, 379008, Note_on_c, 1, 72, 110
3, 379008, Note_on_c, 1, 69, 110
3, 379008, Note_on_c, 1, 66, 110
3, 379008, Note_on_c, 1, 63, 110
3, 380156, Note_off_c, 1, 72, 100
3, 380156, Note_off_c, 1, 69, 100
3, 380156, Note_off_c, 1, 66, 100
3, 380156, Note_off_c, 1, 63, 100
3, 380160, Note_on_c, 1, 72, 110
3, 380160, Note_on_c, 1, 69, 110
3, 380160, Note_on_c, 1, 66, 110
3, 380160, Note_on_c, 1, 62, 110
3, 380924, Note_off_c, 1, 72, 100
3, 380924, Note_off_c, 1, 69, 100
3, 380924, Note_off_c, 1, 66, 100
3, 380924, Note_off_c, 1, 62, 100
3, 380928, Note_on_c, 1, 69, 110
3, 380928, Note_on_c, 1, 66, 110
3, 380928, Note_on_c, 1, 60, 110
3, 381308, Note_off_c, 1, 69, 100
3, 381308, Note_off_c, 1, 66, 100
3, 381308, Note_off_c, 1, 60, 100
3, 381312, Note_on_c, 1, 67, 110
3, 381312, Note_on_c, 1, 62, 110
3, 381312, Note_on_c, 1, 59, 110
3, 382076, Note_off_c, 1, 67, 100
3, 382076, Note_off_c, 1, 62, 100
3, 382076, Note_off_c, 1, 59, 100
3, 382080, Note_on_c, 1, 67, 95
3, 382080, Note_on_c, 1, 62, 95
3, 382080, Note_on_c, 1, 55, 95
3, 382460, Note_off_c, 1, 67, 100
3, 382460, Note_off_c, 1, 62, 100
3, 382460, Note_off_c, 1, 55, 100
3, 382464, Note_on_c, 1, 72, 80
3, 382464, Note_on_c, 1, 69, 80
3, 382464, Note_on_c, 1, 66, 80
3, 382464, Note_on_c, 1, 62, 80
3, 383612, Note_off_c, 1, 72, 100
3, 383612, Note_off_c, 1, 69, 100
3, 383612, Note_off_c, 1, 66, 100
3, 383612, Note_off_c, 1, 62, 100
3, 383616, Note_on_c, 1, 72, 110
3, 383616, Note_on_c, 1, 69, 110
3, 383616, Note_on_c, 1, 66, 110
3, 383616, Note_on_c, 1, 63, 110
3, 384764, Note_off_c, 1, 72, 100
3, 384764, Note_off_c, 1, 69, 100
3, 384764, Note_off_c, 1, 66, 100
3, 384764, Note_off_c, 1, 63, 100
3, 384768, Note_on_c, 1, 72, 110
3, 384768, Note_on_c, 1, 69, 110
3, 384768, Note_on_c, 1, 66, 110
3, 384768, Note_on_c, 1, 62, 110
3, 385532, Note_off_c, 1, 72, 100
3, 385532, Note_off_c, 1, 69, 100
3, 385532, Note_off_c, 1, 66, 100
3, 385532, Note_off_c, 1, 62, 100
3, 385536, Note_on_c, 1, 69, 110
3, 385536, Note_on_c, 1, 66, 110
3, 385536, Note_on_c, 1, 60, 110
3, 385916, Note_off_c, 1, 69, 100
3, 385916, Note_off_c, 1, 66, 100
3, 385916, Note_off_c, 1, 60, 100
3, 385920, Note_on_c, 1, 67, 110
3, 385920, Note_on_c, 1, 62, 110
3, 385920, Note_on_c, 1, 59, 110
3, 386684, Note_off_c, 1, 67, 100
3, 386684, Note_off_c, 1, 62, 100
3, 386684, Note_off_c, 1, 59, 100
3, 386688, Note_on_c, 1, 67, 95
3, 386688, Note_on_c, 1, 62, 95
3, 386688, Note_on_c, 1, 55, 95
3, 387068, Note_off_c, 1, 67, 100
3, 387068, Note_off_c, 1, 62, 100
3, 387068, Note_off_c, 1, 55, 100
3, 387072, Note_on_c, 1, 67, 80
3, 387072, Note_on_c, 1, 64, 80
3, 387072, Note_on_c, 1, 60, 80
3, 387452, Note_off_c, 1, 67, 100
3, 387452, Note_off_c, 1, 64, 100
3, 387452, Note_off_c, 1, 60, 100
3, 387840, Note_on_c, 1, 69, 80
3, 387840, Note_on_c, 1, 64, 80
3, 387840, Note_on_c, 1, 60, 80
3, 388220, Note_off_c, 1, 69, 100
3, 388220, Note_off_c, 1, 64, 100
3, 388220, Note_off_c, 1, 60, 100
3, 388224, Note_on_c, 1, 71, 80
3, 388224, Note_on_c, 1, 67, 80
3, 388224, Note_on_c, 1, 62, 80
3, 388604, Note_off_c, 1, 71, 100
3, 388604, Note_off_c, 1, 67, 100
3, 388604, Note_off_c, 1, 62, 100
3, 388992, Note_on_c, 1, 72, 80
3, 388992, Note_on_c, 1, 66, 80
3, 388992, Note_on_c, 1, 62, 80
3, 389372, Note_off_c, 1, 72, 100
3, 389372, Note_off_c, 1, 66, 100
3, 389372, Note_off_c, 1, 62, 100
3, 389376, Note_on_c, 1, 59, 110
3, 389376, Note_on_c, 1, 55, 110
3, 389564, Note_off_c, 1, 59, 100
3, 389564, Note_off_c, 1, 55, 100
3, 389568, Note_on_c, 1, 62, 110
3, 389756, Note_off_c, 1, 62, 100
3, 389760, Note_on_c, 1, 59, 110
3, 389760, Note_on_c, 1, 55, 110
3, 389948, Note_off_c, 1, 59, 100
3, 389948, Note_off_c, 1, 55, 100
3, 389952, Note_on_c, 1, 62, 110
3, 390140, Note_off_c, 1, 62, 100
3, 390144, Note_on_c, 1, 59, 110
3, 390144, Note_on_c, 1, 55, 110
3, 390332, Note_off_c, 1, 59, 100
3, 390332, Note_off_c, 1, 55, 100
3, 390336, Note_on_c, 1, 62, 110
3, 390524, Note_off_c, 1, 62, 100
3, 390528, Note_on_c, 1, 60, 110
3, 390528, Note_on_c, 1, 57, 110
3, 390528, Note_on_c, 1, 55, 110
3, 390716, Note_off_c, 1, 60, 100
3, 390716, Note_off_c, 1, 57, 100
3, 390716, Note_off_c, 1, 55, 100
3, 390720, Note_on_c, 1, 62, 110
3, 390908, Note_off_c, 1, 62, 100
3, 390912, Note_on_c, 1, 60, 110
3, 390912, Note_on_c, 1, 57, 110
3, 390912, Note_on_c, 1, 55, 110
3, 391100, Note_off_c, 1, 60, 100
3, 391100, Note_off_c, 1, 57, 100
3, 391100, Note_off_c, 1, 55, 100
3, 391104, Note_on_c, 1, 62, 110
3, 391292, Note_off_c, 1, 62, 100
3, 391296, Note_on_c, 1, 60, 110
3, 391296, Note_on_c, 1, 57, 110
3, 391296, Note_on_c, 1, 55, 110
3, 391484, Note_off_c, 1, 60, 100
3, 391484, Note_off_c, 1, 57, 100
3, 391484, Note_off_c, 1, 55, 100
3, 391488, Note_on_c, 1, 62, 110
3, 391676, Note_off_c, 1, 62, 100
3, 391680, Note_on_c, 1, 47, 80
3, 391868, Note_off_c, 1, 47, 100
3, 391872, Note_on_c, 1, 50, 80
3, 392060, Note_off_c, 1, 50, 100
3, 392064, Note_on_c, 1, 47, 80
3, 392252, Note_off_c, 1, 47, 100
3, 392256, Note_on_c, 1, 50, 80
3, 392444, Note_off_c, 1, 50, 100
3, 392448, Note_on_c, 1, 47, 80
3, 392636, Note_off_c, 1, 47, 100
3, 392640, Note_on_c, 1, 50, 80
3, 392828, Note_off_c, 1, 50, 100
3, 392832, Note_on_c, 1, 45, 80
3, 393020, Note_off_c, 1, 45, 100
3, 393024, Note_on_c, 1, 50, 80
3, 393212, Note_off_c, 1, 50, 100
3, 393216, Note_on_c, 1, 45, 80
3, 393404, Note_off_c, 1, 45, 100
3, 393408, Note_on_c, 1, 50, 80
3, 393596, Note_off_c, 1, 50, 100
3, 393600, Note_on_c, 1, 38, 80
3, 393788, Note_off_c, 1, 38, 100
3, 393792, Note_on_c, 1, 50, 80
3, 393980, Note_off_c, 1, 50, 100
3, 393984, Note_on_c, 1, 59, 110
3, 393984, Note_on_c, 1, 55, 110
3, 394172, Note_off_c, 1, 59, 100
3, 394172, Note_off_c, 1, 55, 100
3, 394176, Note_on_c, 1, 62, 110
3, 394364, Note_off_c, 1, 62, 100
3, 394368, Note_on_c, 1, 59, 110
3, 394368, Note_on_c, 1, 55, 110
3, 394556, Note_off_c, 1, 59, 100
3, 394556, Note_off_c, 1, 55, 100
3, 394560, Note_on_c, 1, 62, 110
3, 394748, Note_off_c, 1, 62, 100
3, 394752, Note_on_c, 1, 59, 110
3, 394752, Note_on_c, 1, 55, 110
3, 394940, Note_off_c, 1, 59, 100
3, 394940, Note_off_c, 1, 55, 100
3, 394944, Note_on_c, 1, 62, 110
3, 395132, Note_off_c, 1, 62, 100
3, 395136, Note_on_c, 1, 60, 110
3, 395136, Note_on_c, 1, 57, 110
3, 395136, Note_on_c, 1, 55, 110
3, 395324, Note_off_c, 1, 60, 100
3, 395324, Note_off_c, 1, 57, 100
3, 395324, Note_off_c, 1, 55, 100
3, 395328, Note_on_c, 1, 62, 110
3, 395516, Note_off_c, 1, 62, 100
3, 395520, Note_on_c, 1, 60, 110
3, 395520, Note_on_c, 1, 57, 110
3, 395520, Note_on_c, 1, 55, 110
3, 395708, Note_off_c, 1, 60, 100
3, 395708, Note_off_c, 1, 57, 100
3, 395708, Note_off_c, 1, 55, 100
3, 395712, Note_on_c, 1, 62, 110
3, 395900, Note_off_c, 1, 62, 100
3, 395904, Note_on_c, 1, 60, 110
3, 395904, Note_on_c, 1, 57, 110
3, 395904, Note_on_c, 1, 55, 110
3, 396092, Note_off_c, 1, 60, 100
3, 396092, Note_off_c, 1, 57, 100
3, 396092, Note_off_c, 1, 55, 100
3, 396096, Note_on_c, 1, 62, 110
3, 396284, Note_off_c, 1, 62, 100
3, 396288, Note_on_c, 1, 47, 80
3, 396476, Note_off_c, 1, 47, 100
3, 396480, Note_on_c, 1, 50, 80
3, 396668, Note_off_c, 1, 50, 100
3, 396672, Note_on_c, 1, 47, 80
3, 396860, Note_off_c, 1, 47, 100
3, 396864, Note_on_c, 1, 50, 80
3, 397052, Note_off_c, 1, 50, 100
3, 397056, Note_on_c, 1, 47, 80
3, 397244, Note_off_c, 1, 47, 100
3, 397248, Note_on_c, 1, 50, 80
3, 397436, Note_off_c, 1, 50, 100
3, 397440, Note_on_c, 1, 45, 80
3, 397628, Note_off_c, 1, 45, 100
3, 397632, Note_on_c, 1, 50, 80
3, 397820, Note_off_c, 1, 50, 100
3, 397824, Note_on_c, 1, 45, 80
3, 398012, Note_off_c, 1, 45, 100
3, 398016, Note_on_c, 1, 50, 80
3, 398204, Note_off_c, 1, 50, 100
3, 398208, Note_on_c, 1, 38, 80
3, 398396, Note_off_c, 1, 38, 100
3, 398400, Note_on_c, 1, 50, 80
3, 398588, Note_off_c, 1, 50, 100
3, 398592, Note_on_c, 1, 43, 110
3, 398972, Note_off_c, 1, 43, 100
3, 398976, Note_on_c, 1, 47, 110
3, 399356, Note_off_c, 1, 47, 100
3, 399360, Note_on_c, 1, 43, 110
3, 399740, Note_off_c, 1, 43, 100
3, 399744, Note_on_c, 1, 50, 110
3, 400508, Note_off_c, 1, 50, 100
3, 400512, Note_on_c, 1, 48, 110
3, 400700, Note_off_c, 1, 48, 100
3, 400704, Note_on_c, 1, 47, 110
3, 400892, Note_off_c, 1, 47, 100
3, 400896, Note_on_c, 1, 45, 110
3, 401084, Note_off_c, 1, 45, 100
3, 401088, Note_on_c, 1, 43, 110
3, 401276, Note_off_c, 1, 43, 100
3, 401280, Note_on_c, 1, 42, 110
3, 401468, Note_off_c, 1, 42, 100
3, 401472, Note_on_c, 1, 43, 110
3, 401660, Note_off_c, 1, 43, 100
3, 401664, Note_on_c, 1, 47, 110
3, 401852, Note_off_c, 1, 47, 100
3, 401856, Note_on_c, 1, 43, 110
3, 402044, Note_off_c, 1, 43, 100
3, 402048, Note_on_c, 1, 42, 110
3, 402428, Note_off_c, 1, 42, 100
3, 402432, Note_on_c, 1, 40, 110
3, 402812, Note_off_c, 1, 40, 100
3, 402816, Note_on_c, 1, 40, 110
3, 403196, Note_off_c, 1, 40, 100
3, 403200, Note_on_c, 1, 48, 110
3, 403200, Note_on_c, 1, 52, 110
3, 403388, Note_off_c, 1, 48, 100
3, 403388, Note_off_c, 1, 52, 100
3, 403392, Note_on_c, 1, 57, 110
3, 403580, Note_off_c, 1, 57, 100
3, 403584, Note_on_c, 1, 48, 110
3, 403584, Note_on_c, 1, 52, 110
3, 403772, Note_off_c, 1, 48, 100
3, 403772, Note_off_c, 1, 52, 100
3, 403776, Note_on_c, 1, 57, 110
3, 403964, Note_off_c, 1, 57, 100
3, 403968, Note_on_c, 1, 48, 110
3, 403968, Note_on_c, 1, 52, 110
3, 404156, Note_off_c, 1, 48, 100
3, 404156, Note_off_c, 1, 52, 100
3, 404160, Note_on_c, 1, 57, 110
3, 404348, Note_off_c, 1, 57, 100
3, 404352, Note_on_c, 1, 48, 110
3, 404352, Note_on_c, 1, 52, 110
3, 404540, Note_off_c, 1, 48, 100
3, 404540, Note_off_c, 1, 52, 100
3, 404544, Note_on_c, 1, 57, 110
3, 404732, Note_off_c, 1, 57, 100
3, 404736, Note_on_c, 1, 48, 110
3, 404736, Note_on_c, 1, 52, 110
3, 404924, Note_off_c, 1, 48, 100
3, 404924, Note_off_c, 1, 52, 100
3, 404928, Note_on_c, 1, 57, 110
3, 405116, Note_off_c, 1, 57, 100
3, 405120, Note_on_c, 1, 48, 110
3, 405120, Note_on_c, 1, 52, 110
3, 405308, Note_off_c, 1, 48, 100
3, 405308, Note_off_c, 1, 52, 100
3, 405312, Note_on_c, 1, 57, 110
3, 405500, Note_off_c, 1, 57, 100
3, 405504, Note_on_c, 1, 50, 110
3, 405504, Note_on_c, 1, 57, 110
3, 405692, Note_off_c, 1, 50, 100
3, 405692, Note_off_c, 1, 57, 100
3, 405696, Note_on_c, 1, 60, 110
3, 405884, Note_off_c, 1, 60, 100
3, 405888, Note_on_c, 1, 50, 110
3, 405888, Note_on_c, 1, 57, 110
3, 406076, Note_off_c, 1, 50, 100
3, 406076, Note_off_c, 1, 57, 100
3, 406080, Note_on_c, 1, 60, 110
3, 406268, Note_off_c, 1, 60, 100
3, 406272, Note_on_c, 1, 50, 110
3, 406272, Note_on_c, 1, 57, 110
3, 406460, Note_off_c, 1, 50, 100
3, 406460, Note_off_c, 1, 57, 100
3, 406464, Note_on_c, 1, 60, 110
3, 406652, Note_off_c, 1, 60, 100
3, 406656, Note_on_c, 1, 55, 110
3, 406656, Note_on_c, 1, 59, 110
3, 406844, Note_off_c, 1, 55, 100
3, 406844, Note_off_c, 1, 59, 100
3, 406848, Note_on_c, 1, 62, 110
3, 407036, Note_off_c, 1, 62, 100
3, 407040, Note_on_c, 1, 55, 110
3, 407040, Note_on_c, 1, 59, 110
3, 407228, Note_off_c, 1, 55, 100
3, 407228, Note_off_c, 1, 59, 100
3, 407232, Note_on_c, 1, 62, 110
3, 407420, Note_off_c, 1, 62, 100
3, 407424, Note_on_c, 1, 55, 110
3, 407424, Note_on_c, 1, 59, 110
3, 407612, Note_off_c, 1, 55, 100
3, 407612, Note_off_c, 1, 59, 100
3, 407616, Note_on_c, 1, 62, 110
3, 407804, Note_off_c, 1, 62, 100
3, 407808, Note_on_c, 1, 54, 110
3, 407900, Note_off_c, 1, 54, 100
3, 407904, Note_on_c, 1, 55, 110
3, 408188, Note_off_c, 1, 55, 100
3, 408192, Note_on_c, 1, 58, 110
3, 408284, Note_off_c, 1, 58, 100
3, 408288, Note_on_c, 1, 59, 110
3, 408572, Note_off_c, 1, 59, 100
3, 408576, Note_on_c, 1, 54, 110
3, 408668, Note_off_c, 1, 54, 100
3, 408672, Note_on_c, 1, 55, 110
3, 408956, Note_off_c, 1, 55, 100
3, 408960, Note_on_c, 1, 61, 110
3, 409052, Note_off_c, 1, 61, 100
3, 409056, Note_on_c, 1, 62, 110
3, 409724, Note_off_c, 1, 62, 100
3, 409728, Note_on_c, 1, 60, 110
3, 409916, Note_off_c, 1, 60, 100
3, 409920, Note_on_c, 1, 59, 110
3, 410108, Note_off_c, 1, 59, 100
3, 410112, Note_on_c, 1, 57, 110
3, 410300, Note_off_c, 1, 57, 100
3, 410304, Note_on_c, 1, 55, 110
3, 410492, Note_off_c, 1, 55, 100
3, 410496, Note_on_c, 1, 54, 110
3, 410684, Note_off_c, 1, 54, 100
3, 410688, Note_on_c, 1, 55, 110
3, 410876, Note_off_c, 1, 55, 100
3, 410880, Note_on_c, 1, 59, 110
3, 411068, Note_off_c, 1, 59, 100
3, 411072, Note_on_c, 1, 55, 110
3, 411260, Note_off_c, 1, 55, 100
3, 411264, Note_on_c, 1, 54, 110
3, 411644, Note_off_c, 1, 54, 100
3, 411648, Note_on_c, 1, 52, 110
3, 412028, Note_off_c, 1, 52, 100
3, 412032, Note_on_c, 1, 52, 110
3, 412412, Note_off_c, 1, 52, 100
3, 412416, Note_on_c, 1, 52, 110
3, 412416, Note_on_c, 1, 48, 110
3, 412604, Note_off_c, 1, 52, 100
3, 412604, Note_off_c, 1, 48, 100
3, 412608, Note_on_c, 1, 57, 110
3, 412796, Note_off_c, 1, 57, 100
3, 412800, Note_on_c, 1, 52, 110
3, 412800, Note_on_c, 1, 48, 110
3, 412988, Note_off_c, 1, 52, 100
3, 412988, Note_off_c, 1, 48, 100
3, 412992, Note_on_c, 1, 57, 110
3, 413180, Note_off_c, 1, 57, 100
3, 413184, Note_on_c, 1, 52, 110
3, 413184, Note_on_c, 1, 48, 110
3, 413372, Note_off_c, 1, 52, 100
3, 413372, Note_off_c, 1, 48, 100
3, 413376, Note_on_c, 1, 57, 110
3, 413564, Note_off_c, 1, 57, 100
3, 413568, Note_on_c, 1, 52, 110
3, 413568, Note_on_c, 1, 48, 110
3, 413756, Note_off_c, 1, 52, 100
3, 413756, Note_off_c, 1, 48, 100
3, 413760, Note_on_c, 1, 57, 110
3, 413948, Note_off_c, 1, 57, 100
3, 413952, Note_on_c, 1, 52, 110
3, 413952, Note_on_c, 1, 48, 110
3, 414140, Note_off_c, 1, 52, 100
3, 414140, Note_off_c, 1, 48, 100
3, 414144, Note_on_c, 1, 57, 110
3, 414332, Note_off_c, 1, 57, 100
3, 414336, Note_on_c, 1, 52, 110
3, 414336, Note_on_c, 1, 48, 110
3, 414524, Note_off_c, 1, 52, 100
3, 414524, Note_off_c, 1, 48, 100
3, 414528, Note_on_c, 1, 57, 110
3, 414716, Note_off_c, 1, 57, 100
3, 414720, Note_on_c, 1, 57, 110
3, 414720, Note_on_c, 1, 50, 110
3, 414908, Note_off_c, 1, 57, 100
3, 414908, Note_off_c, 1, 50, 100
3, 414912, Note_on_c, 1, 60, 110
3, 415100, Note_off_c, 1, 60, 100
3, 415104, Note_on_c, 1, 57, 110
3, 415104, Note_on_c, 1, 50, 110
3, 415292, Note_off_c, 1, 57, 100
3, 415292, Note_off_c, 1, 50, 100
3, 415296, Note_on_c, 1, 60, 110
3, 415484, Note_off_c, 1, 60, 100
3, 415488, Note_on_c, 1, 57, 110
3, 415488, Note_on_c, 1, 50, 110
3, 415676, Note_off_c, 1, 57, 100
3, 415676, Note_off_c, 1, 50, 100
3, 415680, Note_on_c, 1, 60, 110
3, 415868, Note_off_c, 1, 60, 100
3, 415872, Note_on_c, 1, 43, 100
3, 416252, Note_off_c, 1, 43, 100
3, 416256, Note_on_c, 1, 62, 80
3, 416256, Note_on_c, 1, 59, 80
3, 416636, Note_off_c, 1, 62, 100
3, 416636, Note_off_c, 1, 59, 100
3, 416640, Note_on_c, 1, 59, 80
3, 416640, Note_on_c, 1, 55, 80
3, 417020, Note_off_c, 1, 59, 100
3, 417020, Note_off_c, 1, 55, 100
3, 417024, Note_on_c, 1, 43, 80
3, 417404, Note_off_c, 1, 43, 100
3, 417408, Note_on_c, 1, 62, 80
3, 417408, Note_on_c, 1, 59, 80
3, 417788, Note_off_c, 1, 62, 100
3, 417788, Note_off_c, 1, 59, 100
3, 417792, Note_on_c, 1, 59, 80
3, 417792, Note_on_c, 1, 55, 80
3, 418172, Note_off_c, 1, 59, 100
3, 418172, Note_off_c, 1, 55, 100
3, 418176, Note_on_c, 1, 43, 80
3, 418556, Note_off_c, 1, 43, 100
3, 418560, Note_on_c, 1, 62, 80
3, 418560, Note_on_c, 1, 59, 80
3, 418940, Note_off_c, 1, 62, 100
3, 418940, Note_off_c, 1, 59, 100
3, 418944, Note_on_c, 1, 59, 80
3, 418944, Note_on_c, 1, 55, 80
3, 419324, Note_off_c, 1, 59, 100
3, 419324, Note_off_c, 1, 55, 100
3, 419328, Note_on_c, 1, 50, 80
3, 419708, Note_off_c, 1, 50, 100
3, 419712, Note_on_c, 1, 60, 80
3, 419712, Note_on_c, 1, 57, 80
3, 420092, Note_off_c, 1, 60, 100
3, 420092, Note_off_c, 1, 57, 100
3, 420096, Note_on_c, 1, 57, 80
3, 420096, Note_on_c, 1, 54, 80
3, 420476, Note_off_c, 1, 57, 100
3, 420476, Note_off_c, 1, 54, 100
3, 420480, Note_on_c, 1, 43, 80
3, 420860, Note_off_c, 1, 43, 100
3, 420864, Note_on_c, 1, 62, 80
3, 420864, Note_on_c, 1, 59, 80
3, 421244, Note_off_c, 1, 62, 100
3, 421244, Note_off_c, 1, 59, 100
3, 421248, Note_on_c, 1, 59, 80
3, 421248, Note_on_c, 1, 55, 80
3, 421628, Note_off_c, 1, 59, 100
3, 421628, Note_off_c, 1, 55, 100
3, 421632, Note_on_c, 1, 43, 80
3, 422012, Note_off_c, 1, 43, 100
3, 422016, Note_on_c, 1, 62, 80
3, 422016, Note_on_c, 1, 59, 80
3, 422396, Note_off_c, 1, 62, 100
3, 422396, Note_off_c, 1, 59, 100
3, 422400, Note_on_c, 1, 59, 80
3, 422400, Note_on_c, 1, 55, 80
3, 422780, Note_off_c, 1, 59, 100
3, 422780, Note_off_c, 1, 55, 100
3, 422784, Note_on_c, 1, 43, 80
3, 423164, Note_off_c, 1, 43, 100
3, 423168, Note_on_c, 1, 62, 80
3, 423168, Note_on_c, 1, 59, 80
3, 423548, Note_off_c, 1, 62, 100
3, 423548, Note_off_c, 1, 59, 100
3, 423552, Note_on_c, 1, 59, 80
3, 423552, Note_on_c, 1, 55, 80
3, 423932, Note_off_c, 1, 59, 100
3, 423932, Note_off_c, 1, 55, 100
3, 423936, Note_on_c, 1, 50, 80
3, 424316, Note_off_c, 1, 50, 100
3, 424320, Note_on_c, 1, 60, 80
3, 424320, Note_on_c, 1, 57, 80
3, 424700, Note_off_c, 1, 60, 100
3, 424700, Note_off_c, 1, 57, 100
3, 424704, Note_on_c, 1, 57, 80
3, 424704, Note_on_c, 1, 50, 80
3, 425084, Note_off_c, 1, 57, 100
3, 425084, Note_off_c, 1, 50, 100
3, 425088, Note_on_c, 1, 31, 80
3, 425276, Note_off_c, 1, 31, 100
3, 425280, Note_on_c, 1, 35, 80
3, 425468, Note_off_c, 1, 35, 100
3, 425472, Note_on_c, 1, 38, 80
3, 425660, Note_off_c, 1, 38, 100
3, 425664, Note_on_c, 1, 43, 80
3, 425852, Note_off_c, 1, 43, 100
3, 425856, Note_on_c, 1, 47, 80
3, 426044, Note_off_c, 1, 47, 100
3, 426048, Note_on_c, 1, 50, 80
3, 426236, Note_off_c, 1, 50, 100
3, 426240, Note_on_c, 1, 43, 80
3, 426620, Note_off_c, 1, 43, 100
3, 426620, End_track
0, 0, End_of_file
