0, 0, Header, 1, 3, 384
1, 0, Start_track
1, 0, Title_t, "L.v.Beethoven 2-3mov - Piano Sonata No.26 in Eb Major Op.81a\000"
1, 0, Copyright_t, "Copyright(C) 1995-2009, Suzuki Software\000"
1, 0, Sequencer_specific, 9, 67, 123, 0, 88, 70, 48, 50, 0, 1
1, 0, Text_t, "XFhd:2000/09/17:JP:Classical::::L.v.Beethoven:::Kaoru Suzuki\000"
1, 0, Text_t, "XFln:JP:\203s\203A\203m\203\\\203i\203^\221æ26\224Ô\225Ï\203z\222·\222²\215ì\225i81a\201`\221æ2¥3\212y\217Í:L.v.\203x\201[\203g\201[\203\224\203F\203\223:::\227é\202¿\202á\202ñ:\227é\202¿\202á\202ñ\000"
1, 0, Time_signature, 2, 2, 96, 8
1, 0, Sequencer_specific, 3, 0, 0, 65
1, 0, Sequencer_specific, 5, 0, 0, 119, 14, 0
1, 0, Tempo, 1621621
1, 2688, Tempo, 1818181
1, 3160, Tempo, 1621621
1, 5760, Tempo, 1764705
1, 6144, Tempo, 1621621
1, 6528, Tempo, 2000000
1, 7680, Tempo, 1818181
1, 8832, Tempo, 2000000
1, 9024, Tempo, 1818181
1, 10560, Tempo, 2000000
1, 10656, Tempo, 2307692
1, 10752, Tempo, 1875000
1, 14976, Tempo, 2000000
1, 15168, Tempo, 2142857
1, 15264, Tempo, 2400000
1, 15360, Tempo, 1818181
1, 21120, Tempo, 2307692
1, 21312, Tempo, 1818181
1, 22464, Tempo, 2000000
1, 22656, Tempo, 2142857
1, 22848, Tempo, 2307692
1, 23040, Tempo, 1875000
1, 27456, Tempo, 2000000
1, 27552, Tempo, 2307692
1, 27648, Tempo, 1818181
1, 32256, Time_signature, 6, 3, 96, 8
1, 32256, Tempo, 400000
1, 110016, Tempo, 413793
1, 110208, Tempo, 428571
1, 110400, Tempo, 480000
1, 110592, Tempo, 400000
1, 191808, Tempo, 413793
1, 192000, Tempo, 428571
1, 192192, Tempo, 480000
1, 192432, Tempo, 400000
1, 298944, Tempo, 413793
1, 299136, Tempo, 428571
1, 299328, Tempo, 480000
1, 299568, Tempo, 400000
1, 316032, Tempo, 600000
1, 325248, Tempo, 631578
1, 325440, Tempo, 666666
1, 325632, Tempo, 705882
1, 325824, Tempo, 750000
1, 326016, Tempo, 895522
1, 329856, Tempo, 1000000
1, 330240, Tempo, 1200000
1, 332352, Tempo, 1500000
1, 332544, Tempo, 2000000
1, 332832, Tempo, 6000000
1, 332928, Tempo, 400000
1, 337344, Tempo, 428571
1, 337344, End_track
2, 0, Start_track
2, 0, Title_t, "Right"
2, 0, Control_c, 0, 0, 0
2, 0, Program_c, 0, 0
2, 0, Control_c, 0, 7, 100
2, 0, Control_c, 0, 10, 75
2, 0, Control_c, 0, 91, 127
2, 0, Key_signature, -3, "minor"
2, 0, Note_on_c, 0, 67, 80
2, 140, Note_off_c, 0, 67, 100
2, 144, Note_on_c, 0, 66, 80
2, 188, Note_off_c, 0, 66, 100
2, 192, Note_on_c, 0, 69, 80
2, 764, Note_off_c, 0, 69, 100
2, 768, Note_on_c, 0, 67, 80
2, 908, Note_off_c, 0, 67, 100
2, 912, Note_on_c, 0, 66, 80
2, 956, Note_off_c, 0, 66, 100
2, 960, Note_on_c, 0, 69, 80
2, 1340, Note_off_c, 0, 69, 100
2, 1344, Note_on_c, 0, 69, 80
2, 1484, Note_off_c, 0, 69, 100
2, 1488, Note_on_c, 0, 75, 80
2, 1532, Note_off_c, 0, 75, 100
2, 1536, Note_on_c, 0, 75, 80
2, 1724, Note_off_c, 0, 75, 100
2, 1728, Note_on_c, 0, 62, 80
2, 1728, Note_on_c, 0, 74, 80
2, 1868, Note_off_c, 0, 74, 100
2, 1872, Note_on_c, 0, 67, 80
2, 1916, Note_off_c, 0, 62, 100
2, 1916, Note_off_c, 0, 67, 100
2, 1920, Note_on_c, 0, 67, 80
2, 2108, Note_off_c, 0, 67, 100
2, 2112, Note_on_c, 0, 60, 80
2, 2112, Note_on_c, 0, 66, 80
2, 2252, Note_off_c, 0, 66, 100
2, 2256, Note_on_c, 0, 69, 80
2, 2300, Note_off_c, 0, 60, 100
2, 2300, Note_off_c, 0, 69, 100
2, 2304, Note_on_c, 0, 69, 80
2, 2396, Note_off_c, 0, 69, 100
2, 2400, Note_on_c, 0, 71, 80
2, 2496, Note_on_c, 0, 62, 80
2, 2496, Note_on_c, 0, 59, 80
2, 2684, Note_off_c, 0, 62, 100
2, 2684, Note_off_c, 0, 59, 100
2, 2688, Note_on_c, 0, 62, 80
2, 2688, Note_on_c, 0, 59, 80
2, 2780, Note_off_c, 0, 71, 100
2, 2784, Note_on_c, 0, 72, 80
2, 2812, Note_off_c, 0, 72, 100
2, 2816, Note_on_c, 0, 71, 80
2, 2844, Note_off_c, 0, 71, 100
2, 2848, Note_on_c, 0, 69, 80
2, 2876, Note_off_c, 0, 62, 100
2, 2876, Note_off_c, 0, 59, 100
2, 2876, Note_off_c, 0, 69, 100
2, 2880, Note_on_c, 0, 71, 80
2, 2972, Note_off_c, 0, 71, 100
2, 2976, Note_on_c, 0, 72, 80
2, 3068, Note_off_c, 0, 72, 100
2, 3072, Note_on_c, 0, 75, 80
2, 3212, Note_off_c, 0, 75, 100
2, 3216, Note_on_c, 0, 74, 80
2, 3260, Note_off_c, 0, 74, 100
2, 3264, Note_on_c, 0, 77, 80
2, 3792, Note_on_c, 0, 74, 80
2, 3812, Note_off_c, 0, 74, 100
2, 3816, Note_on_c, 0, 77, 80
2, 3836, Note_off_c, 0, 77, 100
2, 3840, Note_on_c, 0, 75, 80
2, 3844, Note_off_c, 0, 77, 100
2, 3980, Note_off_c, 0, 75, 100
2, 3984, Note_on_c, 0, 74, 80
2, 4028, Note_off_c, 0, 74, 100
2, 4032, Note_on_c, 0, 77, 80
2, 4412, Note_off_c, 0, 77, 100
2, 4416, Note_on_c, 0, 74, 80
2, 4556, Note_off_c, 0, 74, 100
2, 4560, Note_on_c, 0, 80, 80
2, 4604, Note_off_c, 0, 80, 100
2, 4608, Note_on_c, 0, 80, 80
2, 4796, Note_off_c, 0, 80, 100
2, 4800, Note_on_c, 0, 67, 80
2, 4800, Note_on_c, 0, 79, 80
2, 4940, Note_off_c, 0, 79, 100
2, 4944, Note_on_c, 0, 72, 80
2, 4988, Note_off_c, 0, 67, 100
2, 4988, Note_off_c, 0, 72, 100
2, 4992, Note_on_c, 0, 72, 80
2, 5180, Note_off_c, 0, 72, 100
2, 5184, Note_on_c, 0, 65, 80
2, 5184, Note_on_c, 0, 71, 80
2, 5324, Note_off_c, 0, 71, 100
2, 5328, Note_on_c, 0, 74, 80
2, 5372, Note_off_c, 0, 65, 100
2, 5372, Note_off_c, 0, 74, 100
2, 5376, Note_on_c, 0, 74, 80
2, 5468, Note_off_c, 0, 74, 100
2, 5472, Note_on_c, 0, 75, 80
2, 5568, Note_on_c, 0, 63, 80
2, 5756, Note_off_c, 0, 63, 100
2, 5760, Note_on_c, 0, 63, 80
2, 5852, Note_off_c, 0, 75, 100
2, 5852, Note_off_c, 0, 63, 100
2, 5856, Note_on_c, 0, 68, 80
2, 5948, Note_off_c, 0, 68, 100
2, 5952, Note_on_c, 0, 67, 82
2, 6044, Note_off_c, 0, 67, 100
2, 6048, Note_on_c, 0, 68, 85
2, 6140, Note_off_c, 0, 68, 100
2, 6144, Note_on_c, 0, 72, 88
2, 6236, Note_off_c, 0, 72, 100
2, 6240, Note_on_c, 0, 70, 91
2, 6260, Note_off_c, 0, 70, 100
2, 6264, Note_on_c, 0, 72, 92
2, 6284, Note_off_c, 0, 72, 100
2, 6288, Note_on_c, 0, 70, 93
2, 6308, Note_off_c, 0, 70, 100
2, 6312, Note_on_c, 0, 69, 93
2, 6332, Note_off_c, 0, 69, 100
2, 6336, Note_on_c, 0, 70, 94
2, 6476, Note_off_c, 0, 70, 100
2, 6480, Note_on_c, 0, 72, 99
2, 6524, Note_off_c, 0, 72, 100
2, 6528, Note_on_c, 0, 73, 100
2, 6764, Note_off_c, 0, 73, 100
2, 6768, Note_on_c, 0, 72, 107
2, 6812, Note_off_c, 0, 72, 100
2, 6816, Note_on_c, 0, 82, 109
2, 6860, Note_off_c, 0, 82, 100
2, 6864, Note_on_c, 0, 79, 110
2, 6908, Note_off_c, 0, 79, 100
2, 6912, Note_on_c, 0, 79, 100
2, 7196, Note_off_c, 0, 79, 100
2, 7200, Note_on_c, 0, 82, 90
2, 7244, Note_off_c, 0, 82, 100
2, 7248, Note_on_c, 0, 80, 80
2, 7292, Note_off_c, 0, 80, 100
2, 7488, Note_on_c, 0, 68, 80
2, 7580, Note_off_c, 0, 68, 100
2, 7584, Note_on_c, 0, 67, 80
2, 7676, Note_off_c, 0, 67, 100
2, 7680, Note_on_c, 0, 67, 80
2, 7680, Note_on_c, 0, 60, 80
2, 7680, Note_on_c, 0, 57, 80
2, 7820, Note_off_c, 0, 67, 100
2, 7824, Note_on_c, 0, 66, 80
2, 7868, Note_off_c, 0, 66, 100
2, 7872, Note_on_c, 0, 69, 80
2, 8252, Note_off_c, 0, 60, 100
2, 8252, Note_off_c, 0, 57, 100
2, 8252, Note_off_c, 0, 69, 100
2, 8256, Note_on_c, 0, 62, 80
2, 8256, Note_on_c, 0, 69, 80
2, 8396, Note_off_c, 0, 69, 100
2, 8400, Note_on_c, 0, 67, 80
2, 8444, Note_off_c, 0, 62, 100
2, 8444, Note_off_c, 0, 67, 100
2, 8448, Note_on_c, 0, 67, 80
2, 8448, Note_on_c, 0, 62, 80
2, 8448, Note_on_c, 0, 60, 80
2, 8588, Note_off_c, 0, 67, 100
2, 8592, Note_on_c, 0, 66, 80
2, 8636, Note_off_c, 0, 62, 100
2, 8636, Note_off_c, 0, 60, 100
2, 8636, Note_off_c, 0, 66, 100
2, 8640, Note_on_c, 0, 69, 80
2, 8640, Note_on_c, 0, 62, 80
2, 8640, Note_on_c, 0, 58, 80
2, 8780, Note_off_c, 0, 69, 100
2, 8784, Note_on_c, 0, 67, 80
2, 8828, Note_off_c, 0, 62, 100
2, 8828, Note_off_c, 0, 58, 100
2, 8828, Note_off_c, 0, 67, 100
2, 8832, Note_on_c, 0, 70, 80
2, 8832, Note_on_c, 0, 62, 80
2, 8832, Note_on_c, 0, 57, 80
2, 8972, Note_off_c, 0, 70, 100
2, 8976, Note_on_c, 0, 69, 80
2, 9020, Note_off_c, 0, 62, 100
2, 9020, Note_off_c, 0, 57, 100
2, 9020, Note_off_c, 0, 69, 100
2, 9024, Note_on_c, 0, 66, 80
2, 9068, Note_off_c, 0, 66, 100
2, 9072, Note_on_c, 0, 69, 80
2, 9116, Note_off_c, 0, 69, 100
2, 9120, Note_on_c, 0, 72, 80
2, 9164, Note_off_c, 0, 72, 100
2, 9168, Note_on_c, 0, 75, 80
2, 9212, Note_off_c, 0, 75, 100
2, 9216, Note_on_c, 0, 74, 80
2, 9260, Note_off_c, 0, 74, 100
2, 9264, Note_on_c, 0, 72, 80
2, 9308, Note_off_c, 0, 72, 100
2, 9312, Note_on_c, 0, 70, 80
2, 9356, Note_off_c, 0, 70, 100
2, 9360, Note_on_c, 0, 69, 80
2, 9404, Note_off_c, 0, 69, 100
2, 9408, Note_on_c, 0, 72, 80
2, 9452, Note_off_c, 0, 72, 100
2, 9456, Note_on_c, 0, 78, 80
2, 9500, Note_off_c, 0, 78, 100
2, 9504, Note_on_c, 0, 81, 80
2, 9548, Note_off_c, 0, 81, 100
2, 9552, Note_on_c, 0, 84, 80
2, 9596, Note_off_c, 0, 84, 100
2, 9600, Note_on_c, 0, 82, 80
2, 9644, Note_off_c, 0, 82, 100
2, 9648, Note_on_c, 0, 81, 80
2, 9692, Note_off_c, 0, 81, 100
2, 9696, Note_on_c, 0, 79, 80
2, 9740, Note_off_c, 0, 79, 100
2, 9744, Note_on_c, 0, 78, 80
2, 9788, Note_off_c, 0, 78, 100
2, 9792, Note_on_c, 0, 81, 80
2, 9836, Note_off_c, 0, 81, 100
2, 9840, Note_on_c, 0, 84, 80
2, 9884, Note_off_c, 0, 84, 100
2, 9888, Note_on_c, 0, 86, 80
2, 9932, Note_off_c, 0, 86, 100
2, 9936, Note_on_c, 0, 87, 80
2, 9980, Note_off_c, 0, 87, 100
2, 9984, Note_on_c, 0, 86, 80
2, 10028, Note_off_c, 0, 86, 100
2, 10032, Note_on_c, 0, 84, 80
2, 10076, Note_off_c, 0, 84, 100
2, 10080, Note_on_c, 0, 82, 80
2, 10124, Note_off_c, 0, 82, 100
2, 10128, Note_on_c, 0, 81, 80
2, 10172, Note_off_c, 0, 81, 100
2, 10176, Note_on_c, 0, 84, 80
2, 10220, Note_off_c, 0, 84, 100
2, 10224, Note_on_c, 0, 81, 80
2, 10268, Note_off_c, 0, 81, 100
2, 10272, Note_on_c, 0, 79, 80
2, 10316, Note_off_c, 0, 79, 100
2, 10320, Note_on_c, 0, 78, 80
2, 10364, Note_off_c, 0, 78, 100
2, 10368, Note_on_c, 0, 84, 80
2, 10412, Note_off_c, 0, 84, 100
2, 10416, Note_on_c, 0, 81, 80
2, 10460, Note_off_c, 0, 81, 100
2, 10464, Note_on_c, 0, 79, 80
2, 10508, Note_off_c, 0, 79, 100
2, 10512, Note_on_c, 0, 78, 80
2, 10556, Note_off_c, 0, 78, 100
2, 10560, Note_on_c, 0, 81, 80
2, 10604, Note_off_c, 0, 81, 100
2, 10608, Note_on_c, 0, 78, 80
2, 10652, Note_off_c, 0, 78, 100
2, 10656, Note_on_c, 0, 75, 80
2, 10700, Note_off_c, 0, 75, 100
2, 10704, Note_on_c, 0, 74, 80
2, 10748, Note_off_c, 0, 74, 100
2, 10752, Note_on_c, 0, 74, 80
2, 10940, Note_off_c, 0, 74, 100
2, 10944, Note_on_c, 0, 69, 80
2, 11324, Note_off_c, 0, 69, 100
2, 11328, Note_on_c, 0, 71, 80
2, 11420, Note_off_c, 0, 71, 100
2, 11424, Note_on_c, 0, 67, 80
2, 11516, Note_off_c, 0, 67, 100
2, 11520, Note_on_c, 0, 67, 80
2, 11612, Note_off_c, 0, 67, 100
2, 11616, Note_on_c, 0, 66, 80
2, 11636, Note_off_c, 0, 66, 100
2, 11640, Note_on_c, 0, 67, 80
2, 11660, Note_off_c, 0, 67, 100
2, 11664, Note_on_c, 0, 66, 80
2, 11684, Note_off_c, 0, 66, 100
2, 11688, Note_on_c, 0, 64, 80
2, 11708, Note_off_c, 0, 64, 100
2, 11712, Note_on_c, 0, 66, 80
2, 11804, Note_off_c, 0, 66, 100
2, 11808, Note_on_c, 0, 67, 80
2, 11900, Note_off_c, 0, 67, 100
2, 11904, Note_on_c, 0, 69, 80
2, 11996, Note_off_c, 0, 69, 100
2, 12000, Note_on_c, 0, 71, 80
2, 12092, Note_off_c, 0, 71, 100
2, 12096, Note_on_c, 0, 72, 80
2, 12140, Note_off_c, 0, 72, 100
2, 12144, Note_on_c, 0, 73, 80
2, 12188, Note_off_c, 0, 73, 100
2, 12192, Note_on_c, 0, 73, 80
2, 12236, Note_off_c, 0, 73, 100
2, 12240, Note_on_c, 0, 74, 80
2, 12284, Note_off_c, 0, 74, 100
2, 12288, Note_on_c, 0, 73, 80
2, 12332, Note_off_c, 0, 73, 100
2, 12336, Note_on_c, 0, 74, 80
2, 12380, Note_off_c, 0, 74, 100
2, 12384, Note_on_c, 0, 76, 80
2, 12428, Note_off_c, 0, 76, 100
2, 12432, Note_on_c, 0, 74, 80
2, 12476, Note_off_c, 0, 74, 100
2, 12480, Note_on_c, 0, 69, 80
2, 12716, Note_off_c, 0, 69, 100
2, 12720, Note_on_c, 0, 71, 80
2, 12740, Note_off_c, 0, 71, 100
2, 12744, Note_on_c, 0, 69, 80
2, 12764, Note_off_c, 0, 69, 100
2, 12768, Note_on_c, 0, 71, 80
2, 12788, Note_off_c, 0, 71, 100
2, 12792, Note_on_c, 0, 69, 80
2, 12812, Note_off_c, 0, 69, 100
2, 12816, Note_on_c, 0, 72, 80
2, 12836, Note_off_c, 0, 72, 100
2, 12840, Note_on_c, 0, 71, 80
2, 12860, Note_off_c, 0, 71, 100
2, 12864, Note_on_c, 0, 72, 80
2, 12884, Note_off_c, 0, 72, 100
2, 12888, Note_on_c, 0, 71, 80
2, 12908, Note_off_c, 0, 71, 100
2, 12912, Note_on_c, 0, 74, 80
2, 12932, Note_off_c, 0, 74, 100
2, 12936, Note_on_c, 0, 73, 80
2, 12956, Note_off_c, 0, 73, 100
2, 12960, Note_on_c, 0, 74, 80
2, 12968, Note_off_c, 0, 74, 100
2, 12972, Note_on_c, 0, 73, 80
2, 12980, Note_off_c, 0, 73, 100
2, 12984, Note_on_c, 0, 76, 80
2, 12992, Note_off_c, 0, 76, 100
2, 12996, Note_on_c, 0, 74, 80
2, 13004, Note_off_c, 0, 74, 100
2, 13008, Note_on_c, 0, 67, 80
2, 13052, Note_off_c, 0, 67, 100
2, 13056, Note_on_c, 0, 67, 80
2, 13244, Note_off_c, 0, 67, 100
2, 13248, Note_on_c, 0, 66, 80
2, 13268, Note_off_c, 0, 66, 100
2, 13272, Note_on_c, 0, 67, 81
2, 13292, Note_off_c, 0, 67, 100
2, 13296, Note_on_c, 0, 64, 82
2, 13316, Note_off_c, 0, 64, 100
2, 13320, Note_on_c, 0, 66, 84
2, 13340, Note_off_c, 0, 66, 100
2, 13344, Note_on_c, 0, 67, 85
2, 13436, Note_off_c, 0, 67, 100
2, 13440, Note_on_c, 0, 69, 91
2, 13532, Note_off_c, 0, 69, 100
2, 13536, Note_on_c, 0, 70, 96
2, 13628, Note_off_c, 0, 70, 100
2, 13632, Note_on_c, 0, 72, 102
2, 13676, Note_off_c, 0, 72, 100
2, 13680, Note_on_c, 0, 73, 105
2, 13724, Note_off_c, 0, 73, 100
2, 13728, Note_on_c, 0, 73, 107
2, 13772, Note_off_c, 0, 73, 100
2, 13776, Note_on_c, 0, 74, 110
2, 13820, Note_off_c, 0, 74, 100
2, 13824, Note_on_c, 0, 74, 110
2, 13916, Note_off_c, 0, 74, 100
2, 13920, Note_on_c, 0, 82, 106
2, 13920, Note_on_c, 0, 74, 106
2, 14012, Note_off_c, 0, 82, 100
2, 14012, Note_off_c, 0, 74, 100
2, 14112, Note_on_c, 0, 82, 98
2, 14112, Note_on_c, 0, 74, 98
2, 14204, Note_off_c, 0, 82, 100
2, 14204, Note_off_c, 0, 74, 100
2, 14304, Note_on_c, 0, 72, 89
2, 14304, Note_on_c, 0, 81, 89
2, 14396, Note_off_c, 0, 72, 100
2, 14396, Note_off_c, 0, 81, 100
2, 14496, Note_on_c, 0, 79, 81
2, 14496, Note_on_c, 0, 70, 81
2, 14588, Note_off_c, 0, 79, 100
2, 14588, Note_off_c, 0, 70, 100
2, 14688, Note_on_c, 0, 79, 107
2, 14688, Note_on_c, 0, 70, 107
2, 14688, Note_on_c, 0, 67, 107
2, 14780, Note_off_c, 0, 79, 100
2, 14780, Note_off_c, 0, 70, 100
2, 14780, Note_off_c, 0, 67, 100
2, 14880, Note_on_c, 0, 79, 99
2, 14880, Note_on_c, 0, 75, 99
2, 14880, Note_on_c, 0, 67, 99
2, 14972, Note_off_c, 0, 79, 100
2, 14972, Note_off_c, 0, 75, 100
2, 14972, Note_off_c, 0, 67, 100
2, 15072, Note_on_c, 0, 77, 91
2, 15072, Note_on_c, 0, 74, 91
2, 15072, Note_on_c, 0, 67, 91
2, 15164, Note_off_c, 0, 77, 100
2, 15164, Note_off_c, 0, 74, 100
2, 15164, Note_off_c, 0, 67, 100
2, 15264, Note_on_c, 0, 75, 83
2, 15264, Note_on_c, 0, 72, 83
2, 15264, Note_on_c, 0, 67, 83
2, 15356, Note_off_c, 0, 75, 100
2, 15356, Note_off_c, 0, 72, 100
2, 15356, Note_off_c, 0, 67, 100
2, 15360, Note_on_c, 0, 73, 80
2, 15360, Note_on_c, 0, 70, 80
2, 15360, Note_on_c, 0, 67, 80
2, 15360, Note_on_c, 0, 77, 80
2, 15500, Note_off_c, 0, 77, 100
2, 15504, Note_on_c, 0, 76, 80
2, 15548, Note_off_c, 0, 76, 100
2, 15552, Note_on_c, 0, 79, 80
2, 16124, Note_off_c, 0, 73, 100
2, 16124, Note_off_c, 0, 70, 100
2, 16124, Note_off_c, 0, 67, 100
2, 16124, Note_off_c, 0, 79, 100
2, 16128, Note_on_c, 0, 73, 80
2, 16128, Note_on_c, 0, 70, 80
2, 16128, Note_on_c, 0, 67, 80
2, 16128, Note_on_c, 0, 77, 80
2, 16268, Note_off_c, 0, 77, 100
2, 16272, Note_on_c, 0, 76, 80
2, 16316, Note_off_c, 0, 76, 100
2, 16320, Note_on_c, 0, 79, 80
2, 16700, Note_off_c, 0, 73, 100
2, 16700, Note_off_c, 0, 70, 100
2, 16700, Note_off_c, 0, 67, 100
2, 16700, Note_off_c, 0, 79, 100
2, 16704, Note_on_c, 0, 73, 80
2, 16704, Note_on_c, 0, 79, 80
2, 16844, Note_off_c, 0, 79, 100
2, 16848, Note_on_c, 0, 85, 80
2, 16892, Note_off_c, 0, 73, 100
2, 16892, Note_off_c, 0, 85, 100
2, 16896, Note_on_c, 0, 85, 80
2, 17084, Note_off_c, 0, 85, 100
2, 17088, Note_on_c, 0, 72, 80
2, 17088, Note_on_c, 0, 84, 80
2, 17228, Note_off_c, 0, 84, 100
2, 17232, Note_on_c, 0, 77, 80
2, 17276, Note_off_c, 0, 72, 100
2, 17276, Note_off_c, 0, 77, 100
2, 17280, Note_on_c, 0, 77, 80
2, 17468, Note_off_c, 0, 77, 100
2, 17472, Note_on_c, 0, 70, 80
2, 17472, Note_on_c, 0, 76, 80
2, 17612, Note_off_c, 0, 76, 100
2, 17616, Note_on_c, 0, 79, 80
2, 17660, Note_off_c, 0, 70, 100
2, 17660, Note_off_c, 0, 79, 100
2, 17664, Note_on_c, 0, 79, 80
2, 17756, Note_off_c, 0, 79, 100
2, 17760, Note_on_c, 0, 80, 80
2, 17856, Note_on_c, 0, 68, 80
2, 18044, Note_off_c, 0, 68, 100
2, 18048, Note_on_c, 0, 68, 80
2, 18140, Note_off_c, 0, 80, 100
2, 18140, Note_off_c, 0, 68, 100
2, 18144, Note_on_c, 0, 73, 80
2, 18236, Note_off_c, 0, 73, 100
2, 18240, Note_on_c, 0, 72, 82
2, 18332, Note_off_c, 0, 72, 100
2, 18336, Note_on_c, 0, 73, 85
2, 18428, Note_off_c, 0, 73, 100
2, 18432, Note_on_c, 0, 77, 88
2, 18524, Note_off_c, 0, 77, 100
2, 18528, Note_on_c, 0, 75, 91
2, 18548, Note_off_c, 0, 75, 100
2, 18552, Note_on_c, 0, 77, 92
2, 18572, Note_off_c, 0, 77, 100
2, 18576, Note_on_c, 0, 75, 93
2, 18596, Note_off_c, 0, 75, 100
2, 18600, Note_on_c, 0, 74, 93
2, 18620, Note_off_c, 0, 74, 100
2, 18624, Note_on_c, 0, 75, 94
2, 18764, Note_off_c, 0, 75, 100
2, 18768, Note_on_c, 0, 77, 99
2, 18812, Note_off_c, 0, 77, 100
2, 18816, Note_on_c, 0, 78, 100
2, 19052, Note_off_c, 0, 78, 100
2, 19056, Note_on_c, 0, 77, 107
2, 19100, Note_off_c, 0, 77, 100
2, 19104, Note_on_c, 0, 87, 109
2, 19148, Note_off_c, 0, 87, 100
2, 19152, Note_on_c, 0, 84, 110
2, 19196, Note_off_c, 0, 84, 100
2, 19200, Note_on_c, 0, 84, 100
2, 19484, Note_off_c, 0, 84, 100
2, 19488, Note_on_c, 0, 87, 92
2, 19532, Note_off_c, 0, 87, 100
2, 19536, Note_on_c, 0, 85, 80
2, 19580, Note_off_c, 0, 85, 100
2, 19776, Note_on_c, 0, 66, 80
2, 19868, Note_off_c, 0, 66, 100
2, 19872, Note_on_c, 0, 65, 80
2, 19964, Note_off_c, 0, 65, 100
2, 19968, Note_on_c, 0, 61, 80
2, 19968, Note_on_c, 0, 58, 80
2, 19968, Note_on_c, 0, 55, 80
2, 19968, Note_on_c, 0, 65, 80
2, 20108, Note_off_c, 0, 65, 100
2, 20112, Note_on_c, 0, 64, 80
2, 20156, Note_off_c, 0, 64, 100
2, 20160, Note_on_c, 0, 67, 80
2, 20540, Note_off_c, 0, 61, 100
2, 20540, Note_off_c, 0, 58, 100
2, 20540, Note_off_c, 0, 55, 100
2, 20540, Note_off_c, 0, 67, 100
2, 20544, Note_on_c, 0, 60, 80
2, 20544, Note_on_c, 0, 56, 80
2, 20544, Note_on_c, 0, 67, 80
2, 20684, Note_off_c, 0, 67, 100
2, 20688, Note_on_c, 0, 65, 80
2, 20732, Note_off_c, 0, 60, 100
2, 20732, Note_off_c, 0, 56, 100
2, 20732, Note_off_c, 0, 65, 100
2, 20736, Note_on_c, 0, 60, 80
2, 20736, Note_on_c, 0, 58, 80
2, 20736, Note_on_c, 0, 65, 80
2, 20876, Note_off_c, 0, 65, 100
2, 20880, Note_on_c, 0, 64, 80
2, 20924, Note_off_c, 0, 60, 100
2, 20924, Note_off_c, 0, 58, 100
2, 20924, Note_off_c, 0, 64, 100
2, 20928, Note_on_c, 0, 60, 80
2, 20928, Note_on_c, 0, 56, 80
2, 20928, Note_on_c, 0, 67, 80
2, 21068, Note_off_c, 0, 67, 100
2, 21072, Note_on_c, 0, 65, 80
2, 21116, Note_off_c, 0, 60, 100
2, 21116, Note_off_c, 0, 56, 100
2, 21116, Note_off_c, 0, 65, 100
2, 21120, Note_on_c, 0, 60, 80
2, 21120, Note_on_c, 0, 55, 80
2, 21120, Note_on_c, 0, 68, 80
2, 21260, Note_off_c, 0, 68, 100
2, 21264, Note_on_c, 0, 67, 80
2, 21308, Note_off_c, 0, 60, 100
2, 21308, Note_off_c, 0, 55, 100
2, 21308, Note_off_c, 0, 67, 100
2, 21312, Note_on_c, 0, 64, 80
2, 21356, Note_off_c, 0, 64, 100
2, 21360, Note_on_c, 0, 67, 80
2, 21404, Note_off_c, 0, 67, 100
2, 21408, Note_on_c, 0, 70, 80
2, 21452, Note_off_c, 0, 70, 100
2, 21456, Note_on_c, 0, 73, 80
2, 21500, Note_off_c, 0, 73, 100
2, 21504, Note_on_c, 0, 72, 80
2, 21548, Note_off_c, 0, 72, 100
2, 21552, Note_on_c, 0, 70, 80
2, 21596, Note_off_c, 0, 70, 100
2, 21600, Note_on_c, 0, 68, 80
2, 21644, Note_off_c, 0, 68, 100
2, 21648, Note_on_c, 0, 67, 80
2, 21692, Note_off_c, 0, 67, 100
2, 21696, Note_on_c, 0, 70, 80
2, 21740, Note_off_c, 0, 70, 100
2, 21744, Note_on_c, 0, 76, 80
2, 21788, Note_off_c, 0, 76, 100
2, 21792, Note_on_c, 0, 79, 80
2, 21836, Note_off_c, 0, 79, 100
2, 21840, Note_on_c, 0, 82, 80
2, 21884, Note_off_c, 0, 82, 100
2, 21888, Note_on_c, 0, 80, 80
2, 21932, Note_off_c, 0, 80, 100
2, 21936, Note_on_c, 0, 79, 80
2, 21980, Note_off_c, 0, 79, 100
2, 21984, Note_on_c, 0, 77, 80
2, 22028, Note_off_c, 0, 77, 100
2, 22032, Note_on_c, 0, 76, 80
2, 22076, Note_off_c, 0, 76, 100
2, 22080, Note_on_c, 0, 79, 80
2, 22124, Note_off_c, 0, 79, 100
2, 22128, Note_on_c, 0, 82, 80
2, 22172, Note_off_c, 0, 82, 100
2, 22176, Note_on_c, 0, 84, 80
2, 22220, Note_off_c, 0, 84, 100
2, 22224, Note_on_c, 0, 85, 80
2, 22268, Note_off_c, 0, 85, 100
2, 22272, Note_on_c, 0, 84, 80
2, 22316, Note_off_c, 0, 84, 100
2, 22320, Note_on_c, 0, 82, 80
2, 22364, Note_off_c, 0, 82, 100
2, 22368, Note_on_c, 0, 80, 80
2, 22412, Note_off_c, 0, 80, 100
2, 22416, Note_on_c, 0, 79, 80
2, 22460, Note_off_c, 0, 79, 100
2, 22464, Note_on_c, 0, 82, 80
2, 22508, Note_off_c, 0, 82, 100
2, 22512, Note_on_c, 0, 79, 80
2, 22556, Note_off_c, 0, 79, 100
2, 22560, Note_on_c, 0, 77, 80
2, 22604, Note_off_c, 0, 77, 100
2, 22608, Note_on_c, 0, 76, 80
2, 22652, Note_off_c, 0, 76, 100
2, 22656, Note_on_c, 0, 82, 80
2, 22700, Note_off_c, 0, 82, 100
2, 22704, Note_on_c, 0, 79, 80
2, 22748, Note_off_c, 0, 79, 100
2, 22752, Note_on_c, 0, 77, 80
2, 22796, Note_off_c, 0, 77, 100
2, 22800, Note_on_c, 0, 76, 80
2, 22844, Note_off_c, 0, 76, 100
2, 22848, Note_on_c, 0, 91, 80
2, 22848, Note_on_c, 0, 79, 80
2, 22892, Note_off_c, 0, 91, 100
2, 22892, Note_off_c, 0, 79, 100
2, 22896, Note_on_c, 0, 88, 80
2, 22896, Note_on_c, 0, 76, 80
2, 22940, Note_off_c, 0, 88, 100
2, 22940, Note_off_c, 0, 76, 100
2, 22944, Note_on_c, 0, 85, 80
2, 22944, Note_on_c, 0, 73, 80
2, 22988, Note_off_c, 0, 85, 100
2, 22988, Note_off_c, 0, 73, 100
2, 22992, Note_on_c, 0, 84, 80
2, 22992, Note_on_c, 0, 72, 80
2, 23036, Note_off_c, 0, 84, 100
2, 23036, Note_off_c, 0, 72, 100
2, 23040, Note_on_c, 0, 84, 80
2, 23040, Note_on_c, 0, 72, 80
2, 23228, Note_off_c, 0, 84, 100
2, 23228, Note_off_c, 0, 72, 100
2, 23232, Note_on_c, 0, 79, 80
2, 23232, Note_on_c, 0, 67, 80
2, 23612, Note_off_c, 0, 79, 100
2, 23612, Note_off_c, 0, 67, 100
2, 23616, Note_on_c, 0, 81, 80
2, 23616, Note_on_c, 0, 69, 80
2, 23708, Note_off_c, 0, 81, 100
2, 23708, Note_off_c, 0, 69, 100
2, 23712, Note_on_c, 0, 77, 80
2, 23712, Note_on_c, 0, 65, 80
2, 23804, Note_off_c, 0, 77, 100
2, 23804, Note_off_c, 0, 65, 100
2, 23808, Note_on_c, 0, 77, 80
2, 23808, Note_on_c, 0, 65, 80
2, 23900, Note_off_c, 0, 77, 100
2, 23900, Note_off_c, 0, 65, 100
2, 23904, Note_on_c, 0, 76, 80
2, 23924, Note_off_c, 0, 76, 100
2, 23928, Note_on_c, 0, 77, 80
2, 23948, Note_off_c, 0, 77, 100
2, 23952, Note_on_c, 0, 76, 80
2, 23972, Note_off_c, 0, 76, 100
2, 23976, Note_on_c, 0, 74, 80
2, 23996, Note_off_c, 0, 74, 100
2, 24000, Note_on_c, 0, 76, 80
2, 24000, Note_on_c, 0, 64, 80
2, 24092, Note_off_c, 0, 76, 100
2, 24092, Note_off_c, 0, 64, 100
2, 24096, Note_on_c, 0, 77, 80
2, 24096, Note_on_c, 0, 65, 80
2, 24188, Note_off_c, 0, 77, 100
2, 24188, Note_off_c, 0, 65, 100
2, 24192, Note_on_c, 0, 79, 80
2, 24192, Note_on_c, 0, 67, 80
2, 24284, Note_off_c, 0, 79, 100
2, 24284, Note_off_c, 0, 67, 100
2, 24288, Note_on_c, 0, 81, 80
2, 24288, Note_on_c, 0, 69, 80
2, 24380, Note_off_c, 0, 81, 100
2, 24380, Note_off_c, 0, 69, 100
2, 24384, Note_on_c, 0, 82, 80
2, 24384, Note_on_c, 0, 70, 80
2, 24428, Note_off_c, 0, 82, 100
2, 24428, Note_off_c, 0, 70, 100
2, 24432, Note_on_c, 0, 83, 80
2, 24432, Note_on_c, 0, 71, 80
2, 24476, Note_off_c, 0, 83, 100
2, 24476, Note_off_c, 0, 71, 100
2, 24480, Note_on_c, 0, 83, 80
2, 24480, Note_on_c, 0, 71, 80
2, 24524, Note_off_c, 0, 83, 100
2, 24524, Note_off_c, 0, 71, 100
2, 24528, Note_on_c, 0, 84, 80
2, 24528, Note_on_c, 0, 72, 80
2, 24572, Note_off_c, 0, 84, 100
2, 24572, Note_off_c, 0, 72, 100
2, 24576, Note_on_c, 0, 83, 80
2, 24620, Note_off_c, 0, 83, 100
2, 24624, Note_on_c, 0, 84, 80
2, 24668, Note_off_c, 0, 84, 100
2, 24672, Note_on_c, 0, 86, 80
2, 24716, Note_off_c, 0, 86, 100
2, 24720, Note_on_c, 0, 84, 80
2, 24764, Note_off_c, 0, 84, 100
2, 24768, Note_on_c, 0, 79, 80
2, 25004, Note_off_c, 0, 79, 100
2, 25008, Note_on_c, 0, 81, 80
2, 25028, Note_off_c, 0, 81, 100
2, 25032, Note_on_c, 0, 79, 80
2, 25052, Note_off_c, 0, 79, 100
2, 25056, Note_on_c, 0, 81, 80
2, 25076, Note_off_c, 0, 81, 100
2, 25080, Note_on_c, 0, 79, 80
2, 25100, Note_off_c, 0, 79, 100
2, 25104, Note_on_c, 0, 82, 80
2, 25124, Note_off_c, 0, 82, 100
2, 25128, Note_on_c, 0, 81, 80
2, 25148, Note_off_c, 0, 81, 100
2, 25152, Note_on_c, 0, 82, 80
2, 25172, Note_off_c, 0, 82, 100
2, 25176, Note_on_c, 0, 81, 80
2, 25196, Note_off_c, 0, 81, 100
2, 25200, Note_on_c, 0, 84, 80
2, 25220, Note_off_c, 0, 84, 100
2, 25224, Note_on_c, 0, 83, 80
2, 25244, Note_off_c, 0, 83, 100
2, 25248, Note_on_c, 0, 84, 80
2, 25256, Note_off_c, 0, 84, 100
2, 25260, Note_on_c, 0, 83, 80
2, 25268, Note_off_c, 0, 83, 100
2, 25272, Note_on_c, 0, 86, 80
2, 25280, Note_off_c, 0, 86, 100
2, 25284, Note_on_c, 0, 84, 80
2, 25292, Note_off_c, 0, 84, 100
2, 25296, Note_on_c, 0, 89, 80
2, 25316, Note_off_c, 0, 89, 100
2, 25320, Note_on_c, 0, 77, 80
2, 25340, Note_off_c, 0, 77, 100
2, 25344, Note_on_c, 0, 77, 80
2, 25344, Note_on_c, 0, 65, 80
2, 25436, Note_off_c, 0, 77, 100
2, 25436, Note_off_c, 0, 65, 100
2, 25440, Note_on_c, 0, 76, 80
2, 25460, Note_off_c, 0, 76, 100
2, 25464, Note_on_c, 0, 77, 80
2, 25484, Note_off_c, 0, 77, 100
2, 25488, Note_on_c, 0, 76, 80
2, 25508, Note_off_c, 0, 76, 100
2, 25512, Note_on_c, 0, 74, 80
2, 25532, Note_off_c, 0, 74, 100
2, 25536, Note_on_c, 0, 76, 80
2, 25536, Note_on_c, 0, 64, 80
2, 25628, Note_off_c, 0, 76, 100
2, 25628, Note_off_c, 0, 64, 100
2, 25632, Note_on_c, 0, 77, 80
2, 25632, Note_on_c, 0, 65, 80
2, 25724, Note_off_c, 0, 77, 100
2, 25724, Note_off_c, 0, 65, 100
2, 25728, Note_on_c, 0, 79, 80
2, 25728, Note_on_c, 0, 67, 80
2, 25820, Note_off_c, 0, 79, 100
2, 25820, Note_off_c, 0, 67, 100
2, 25824, Note_on_c, 0, 80, 88
2, 25824, Note_on_c, 0, 68, 88
2, 25916, Note_off_c, 0, 80, 100
2, 25916, Note_off_c, 0, 68, 100
2, 25920, Note_on_c, 0, 82, 97
2, 25920, Note_on_c, 0, 70, 97
2, 25964, Note_off_c, 0, 82, 100
2, 25964, Note_off_c, 0, 70, 100
2, 25968, Note_on_c, 0, 83, 101
2, 25968, Note_on_c, 0, 71, 101
2, 26012, Note_off_c, 0, 83, 100
2, 26012, Note_off_c, 0, 71, 100
2, 26016, Note_on_c, 0, 83, 106
2, 26016, Note_on_c, 0, 71, 106
2, 26060, Note_off_c, 0, 83, 100
2, 26060, Note_off_c, 0, 71, 100
2, 26064, Note_on_c, 0, 84, 110
2, 26064, Note_on_c, 0, 72, 110
2, 26108, Note_off_c, 0, 84, 100
2, 26108, Note_off_c, 0, 72, 100
2, 26112, Note_on_c, 0, 84, 110
2, 26112, Note_on_c, 0, 80, 110
2, 26112, Note_on_c, 0, 72, 110
2, 26204, Note_off_c, 0, 84, 100
2, 26204, Note_off_c, 0, 80, 100
2, 26204, Note_off_c, 0, 72, 100
2, 26208, Note_on_c, 0, 92, 107
2, 26208, Note_on_c, 0, 84, 107
2, 26208, Note_on_c, 0, 80, 107
2, 26300, Note_off_c, 0, 92, 100
2, 26300, Note_off_c, 0, 84, 100
2, 26300, Note_off_c, 0, 80, 100
2, 26400, Note_on_c, 0, 80, 99
2, 26400, Note_on_c, 0, 72, 99
2, 26492, Note_off_c, 0, 80, 100
2, 26492, Note_off_c, 0, 72, 100
2, 26592, Note_on_c, 0, 79, 91
2, 26592, Note_on_c, 0, 70, 91
2, 26684, Note_off_c, 0, 79, 100
2, 26684, Note_off_c, 0, 70, 100
2, 26784, Note_on_c, 0, 77, 83
2, 26784, Note_on_c, 0, 68, 83
2, 26876, Note_off_c, 0, 77, 100
2, 26876, Note_off_c, 0, 68, 100
2, 26880, Note_on_c, 0, 77, 110
2, 26880, Note_on_c, 0, 68, 110
2, 26972, Note_off_c, 0, 77, 100
2, 26972, Note_off_c, 0, 68, 100
2, 26976, Note_on_c, 0, 89, 107
2, 26976, Note_on_c, 0, 80, 107
2, 26976, Note_on_c, 0, 77, 107
2, 27068, Note_off_c, 0, 89, 100
2, 27068, Note_off_c, 0, 80, 100
2, 27068, Note_off_c, 0, 77, 100
2, 27168, Note_on_c, 0, 77, 99
2, 27168, Note_on_c, 0, 68, 99
2, 27168, Note_on_c, 0, 65, 99
2, 27260, Note_off_c, 0, 77, 100
2, 27260, Note_off_c, 0, 68, 100
2, 27260, Note_off_c, 0, 65, 100
2, 27360, Note_on_c, 0, 75, 91
2, 27360, Note_on_c, 0, 72, 91
2, 27360, Note_on_c, 0, 65, 91
2, 27452, Note_off_c, 0, 75, 100
2, 27452, Note_off_c, 0, 72, 100
2, 27452, Note_off_c, 0, 65, 100
2, 27552, Note_on_c, 0, 73, 83
2, 27552, Note_on_c, 0, 70, 83
2, 27552, Note_on_c, 0, 65, 83
2, 27644, Note_off_c, 0, 73, 100
2, 27644, Note_off_c, 0, 70, 100
2, 27644, Note_off_c, 0, 65, 100
2, 27648, Control_c, 0, 64, 127
2, 27648, Note_on_c, 0, 68, 80
2, 27648, Note_on_c, 0, 65, 80
2, 27648, Note_on_c, 0, 62, 80
2, 27648, Note_on_c, 0, 72, 80
2, 27788, Note_off_c, 0, 72, 100
2, 27792, Note_on_c, 0, 71, 80
2, 27836, Note_off_c, 0, 71, 100
2, 27840, Note_on_c, 0, 74, 80
2, 28408, Control_c, 0, 64, 0
2, 28412, Note_off_c, 0, 68, 100
2, 28412, Note_off_c, 0, 65, 100
2, 28412, Note_off_c, 0, 62, 100
2, 28412, Note_off_c, 0, 74, 100
2, 28416, Note_on_c, 0, 72, 80
2, 28556, Note_off_c, 0, 72, 100
2, 28560, Note_on_c, 0, 71, 80
2, 28604, Note_off_c, 0, 71, 100
2, 28608, Note_on_c, 0, 74, 80
2, 28700, Note_off_c, 0, 74, 100
2, 28800, Note_on_c, 0, 74, 80
2, 28940, Note_off_c, 0, 74, 100
2, 28944, Note_on_c, 0, 72, 80
2, 28988, Note_off_c, 0, 72, 100
2, 28992, Note_on_c, 0, 75, 80
2, 29084, Note_off_c, 0, 75, 100
2, 29184, Control_c, 0, 64, 127
2, 29184, Note_on_c, 0, 75, 70
2, 29184, Note_on_c, 0, 68, 70
2, 29184, Note_on_c, 0, 65, 70
2, 29324, Note_off_c, 0, 75, 100
2, 29328, Note_on_c, 0, 74, 70
2, 29372, Note_off_c, 0, 74, 100
2, 29376, Note_on_c, 0, 77, 70
2, 29944, Control_c, 0, 64, 0
2, 29948, Note_off_c, 0, 68, 100
2, 29948, Note_off_c, 0, 65, 100
2, 29948, Note_off_c, 0, 77, 100
2, 29952, Note_on_c, 0, 75, 70
2, 30096, Note_on_c, 0, 74, 70
2, 30144, Note_on_c, 0, 77, 70
2, 30332, Note_off_c, 0, 75, 100
2, 30336, Note_on_c, 0, 77, 70
2, 30480, Note_on_c, 0, 75, 70
2, 30524, Note_off_c, 0, 77, 100
2, 30528, Note_on_c, 0, 79, 70
2, 30716, Note_off_c, 0, 74, 100
2, 30716, Note_off_c, 0, 77, 100
2, 30716, Note_off_c, 0, 75, 100
2, 30716, Note_off_c, 0, 79, 100
2, 30720, Control_c, 0, 64, 127
2, 30720, Note_on_c, 0, 79, 70
2, 30720, Note_on_c, 0, 74, 70
2, 30720, Note_on_c, 0, 68, 70
2, 30864, Note_on_c, 0, 77, 70
2, 30908, Note_off_c, 0, 77, 100
2, 30912, Note_on_c, 0, 80, 70
2, 31100, Note_off_c, 0, 79, 100
2, 31100, Note_off_c, 0, 74, 100
2, 31100, Note_off_c, 0, 68, 100
2, 31248, Note_on_c, 0, 77, 70
2, 31292, Note_off_c, 0, 80, 100
2, 31292, Note_off_c, 0, 77, 100
2, 31296, Note_on_c, 0, 86, 70
2, 31632, Note_on_c, 0, 80, 70
2, 31676, Note_off_c, 0, 86, 100
2, 31676, Note_off_c, 0, 80, 100
2, 31680, Note_on_c, 0, 89, 70
2, 32016, Note_on_c, 0, 86, 70
2, 32060, Note_off_c, 0, 89, 100
2, 32060, Note_off_c, 0, 86, 100
2, 32064, Note_on_c, 0, 92, 70
2, 32252, Note_off_c, 0, 92, 100
2, 32256, Note_on_c, 0, 92, 110
2, 32256, Note_on_c, 0, 89, 110
2, 32256, Note_on_c, 0, 86, 110
2, 32256, Note_on_c, 0, 80, 110
2, 32444, Note_off_c, 0, 92, 100
2, 32444, Note_off_c, 0, 89, 100
2, 32444, Note_off_c, 0, 86, 100
2, 32444, Note_off_c, 0, 80, 100
2, 32444, Control_c, 0, 64, 0
2, 32448, Note_on_c, 0, 58, 110
2, 32544, Note_on_c, 0, 57, 110
2, 32632, Note_off_c, 0, 58, 100
2, 32640, Note_on_c, 0, 58, 110
2, 32726, Note_off_c, 0, 57, 100
2, 32736, Note_on_c, 0, 62, 110
2, 32830, Note_off_c, 0, 58, 100
2, 32832, Note_on_c, 0, 65, 110
2, 32920, Note_off_c, 0, 62, 100
2, 32928, Note_on_c, 0, 62, 110
2, 33018, Note_off_c, 0, 65, 100
2, 33024, Note_on_c, 0, 65, 110
2, 33114, Note_off_c, 0, 62, 100
2, 33120, Note_on_c, 0, 68, 110
2, 33214, Note_off_c, 0, 65, 100
2, 33216, Note_on_c, 0, 65, 110
2, 33302, Note_off_c, 0, 68, 100
2, 33312, Note_on_c, 0, 62, 110
2, 33400, Note_off_c, 0, 65, 100
2, 33408, Note_on_c, 0, 68, 110
2, 33500, Note_off_c, 0, 62, 100
2, 33504, Note_on_c, 0, 65, 110
2, 33598, Note_off_c, 0, 68, 100
2, 33600, Note_on_c, 0, 68, 110
2, 33694, Note_off_c, 0, 65, 100
2, 33696, Note_on_c, 0, 70, 110
2, 33786, Note_off_c, 0, 68, 100
2, 33792, Note_on_c, 0, 68, 110
2, 33886, Note_off_c, 0, 70, 100
2, 33888, Note_on_c, 0, 65, 110
2, 33982, Note_off_c, 0, 68, 100
2, 33984, Note_on_c, 0, 70, 110
2, 34070, Note_off_c, 0, 65, 100
2, 34080, Note_on_c, 0, 68, 110
2, 34168, Note_off_c, 0, 70, 100
2, 34176, Note_on_c, 0, 70, 110
2, 34266, Note_off_c, 0, 68, 100
2, 34272, Note_on_c, 0, 74, 110
2, 34366, Note_off_c, 0, 70, 100
2, 34368, Note_on_c, 0, 70, 110
2, 34462, Note_off_c, 0, 74, 100
2, 34464, Note_on_c, 0, 68, 110
2, 34556, Note_off_c, 0, 70, 100
2, 34560, Note_on_c, 0, 77, 110
2, 34652, Note_off_c, 0, 68, 100
2, 34656, Note_on_c, 0, 74, 110
2, 34750, Note_off_c, 0, 77, 100
2, 34752, Note_on_c, 0, 77, 110
2, 34846, Note_off_c, 0, 74, 100
2, 34848, Note_on_c, 0, 80, 110
2, 34940, Note_off_c, 0, 77, 100
2, 34944, Note_on_c, 0, 77, 110
2, 35038, Note_off_c, 0, 80, 100
2, 35040, Note_on_c, 0, 74, 110
2, 35128, Note_off_c, 0, 77, 100
2, 35136, Note_on_c, 0, 80, 110
2, 35230, Note_off_c, 0, 74, 100
2, 35232, Note_on_c, 0, 77, 110
2, 35326, Note_off_c, 0, 80, 100
2, 35328, Note_on_c, 0, 80, 110
2, 35414, Note_off_c, 0, 77, 100
2, 35424, Note_on_c, 0, 82, 110
2, 35512, Note_off_c, 0, 80, 100
2, 35520, Note_on_c, 0, 80, 110
2, 35606, Note_off_c, 0, 82, 100
2, 35616, Note_on_c, 0, 77, 110
2, 35710, Note_off_c, 0, 80, 100
2, 35712, Note_on_c, 0, 82, 110
2, 35804, Note_off_c, 0, 77, 100
2, 35808, Note_on_c, 0, 80, 110
2, 35898, Note_off_c, 0, 82, 100
2, 35904, Note_on_c, 0, 82, 110
2, 35992, Note_off_c, 0, 80, 100
2, 36000, Note_on_c, 0, 86, 110
2, 36094, Note_off_c, 0, 82, 100
2, 36096, Note_on_c, 0, 82, 110
2, 36188, Note_off_c, 0, 86, 100
2, 36192, Note_on_c, 0, 80, 110
2, 36282, Note_off_c, 0, 82, 100
2, 36288, Note_on_c, 0, 86, 110
2, 36378, Note_off_c, 0, 80, 100
2, 36384, Note_on_c, 0, 82, 110
2, 36474, Note_off_c, 0, 86, 100
2, 36480, Note_on_c, 0, 86, 110
2, 36574, Note_off_c, 0, 82, 100
2, 36576, Note_on_c, 0, 89, 110
2, 36670, Note_off_c, 0, 86, 100
2, 36672, Note_on_c, 0, 86, 110
2, 36766, Note_off_c, 0, 89, 100
2, 36768, Note_on_c, 0, 82, 110
2, 36856, Note_off_c, 0, 86, 100
2, 36864, Note_on_c, 0, 89, 110
2, 36958, Note_off_c, 0, 82, 100
2, 36960, Note_on_c, 0, 86, 110
2, 37052, Note_off_c, 0, 89, 100
2, 37056, Note_on_c, 0, 89, 110
2, 37144, Note_off_c, 0, 86, 100
2, 37152, Note_on_c, 0, 92, 109
2, 37236, Note_off_c, 0, 89, 100
2, 37248, Note_on_c, 0, 89, 109
2, 37338, Note_off_c, 0, 92, 100
2, 37344, Note_on_c, 0, 86, 108
2, 37432, Note_off_c, 0, 89, 100
2, 37440, Note_on_c, 0, 82, 108
2, 37532, Note_off_c, 0, 86, 100
2, 37536, Note_on_c, 0, 81, 108
2, 37630, Note_off_c, 0, 82, 100
2, 37632, Note_on_c, 0, 82, 107
2, 37726, Note_off_c, 0, 81, 100
2, 37728, Note_on_c, 0, 86, 107
2, 37814, Note_off_c, 0, 82, 100
2, 37824, Note_on_c, 0, 89, 106
2, 37910, Note_off_c, 0, 86, 100
2, 37920, Note_on_c, 0, 86, 106
2, 38012, Note_off_c, 0, 89, 100
2, 38016, Note_on_c, 0, 89, 105
2, 38108, Note_off_c, 0, 86, 100
2, 38112, Note_on_c, 0, 86, 105
2, 38204, Note_off_c, 0, 89, 100
2, 38208, Note_on_c, 0, 89, 105
2, 38300, Note_off_c, 0, 86, 100
2, 38304, Note_on_c, 0, 92, 104
2, 38396, Note_off_c, 0, 89, 100
2, 38400, Note_on_c, 0, 89, 104
2, 38490, Note_off_c, 0, 92, 100
2, 38496, Note_on_c, 0, 86, 103
2, 38590, Note_off_c, 0, 89, 100
2, 38592, Note_on_c, 0, 82, 103
2, 38680, Note_off_c, 0, 86, 100
2, 38688, Note_on_c, 0, 81, 102
2, 38780, Note_off_c, 0, 82, 100
2, 38784, Note_on_c, 0, 82, 102
2, 38878, Note_off_c, 0, 81, 100
2, 38880, Note_on_c, 0, 86, 102
2, 38974, Note_off_c, 0, 82, 100
2, 38976, Note_on_c, 0, 89, 101
2, 39068, Note_off_c, 0, 86, 100
2, 39072, Note_on_c, 0, 86, 101
2, 39164, Note_off_c, 0, 89, 100
2, 39168, Note_on_c, 0, 77, 100
2, 39262, Note_off_c, 0, 86, 100
2, 39264, Note_on_c, 0, 74, 100
2, 39356, Note_off_c, 0, 77, 100
2, 39360, Note_on_c, 0, 77, 99
2, 39448, Note_off_c, 0, 74, 100
2, 39456, Note_on_c, 0, 80, 99
2, 39546, Note_off_c, 0, 77, 100
2, 39552, Note_on_c, 0, 77, 99
2, 39640, Note_off_c, 0, 80, 100
2, 39648, Note_on_c, 0, 74, 98
2, 39740, Note_off_c, 0, 77, 100
2, 39744, Note_on_c, 0, 70, 98
2, 39838, Note_off_c, 0, 74, 100
2, 39840, Note_on_c, 0, 69, 97
2, 39930, Note_off_c, 0, 70, 100
2, 39936, Note_on_c, 0, 70, 97
2, 40030, Note_off_c, 0, 69, 100
2, 40032, Note_on_c, 0, 74, 96
2, 40126, Note_off_c, 0, 70, 100
2, 40128, Note_on_c, 0, 77, 96
2, 40218, Note_off_c, 0, 74, 100
2, 40224, Note_on_c, 0, 74, 96
2, 40312, Note_off_c, 0, 77, 100
2, 40320, Note_on_c, 0, 77, 95
2, 40414, Note_off_c, 0, 74, 100
2, 40416, Note_on_c, 0, 74, 95
2, 40508, Note_off_c, 0, 77, 100
2, 40512, Note_on_c, 0, 77, 94
2, 40602, Note_off_c, 0, 74, 100
2, 40608, Note_on_c, 0, 80, 94
2, 40702, Note_off_c, 0, 77, 100
2, 40704, Note_on_c, 0, 77, 93
2, 40798, Note_off_c, 0, 80, 100
2, 40800, Note_on_c, 0, 74, 93
2, 40888, Note_off_c, 0, 77, 100
2, 40896, Note_on_c, 0, 70, 93
2, 40990, Note_off_c, 0, 74, 100
2, 40992, Note_on_c, 0, 69, 92
2, 41080, Note_off_c, 0, 70, 100
2, 41088, Note_on_c, 0, 70, 92
2, 41182, Note_off_c, 0, 69, 100
2, 41184, Note_on_c, 0, 74, 91
2, 41274, Note_off_c, 0, 70, 100
2, 41280, Note_on_c, 0, 77, 91
2, 41374, Note_off_c, 0, 74, 100
2, 41376, Note_on_c, 0, 74, 91
2, 41468, Note_off_c, 0, 74, 100
2, 41470, Note_off_c, 0, 77, 100
2, 41472, Note_on_c, 0, 80, 110
2, 41472, Note_on_c, 0, 77, 110
2, 41472, Note_on_c, 0, 74, 110
2, 41472, Note_on_c, 0, 68, 110
2, 41660, Note_off_c, 0, 80, 100
2, 41660, Note_off_c, 0, 77, 100
2, 41660, Note_off_c, 0, 74, 100
2, 41660, Note_off_c, 0, 68, 100
2, 41664, Note_on_c, 0, 58, 110
2, 41760, Note_on_c, 0, 57, 110
2, 41852, Note_off_c, 0, 58, 100
2, 41856, Note_on_c, 0, 58, 110
2, 41946, Note_off_c, 0, 57, 100
2, 41952, Note_on_c, 0, 57, 110
2, 42044, Note_off_c, 0, 58, 100
2, 42048, Note_on_c, 0, 60, 110
2, 42138, Note_off_c, 0, 57, 100
2, 42144, Note_on_c, 0, 58, 110
2, 42234, Note_off_c, 0, 60, 100
2, 42240, Note_on_c, 0, 63, 110
2, 42334, Note_off_c, 0, 58, 100
2, 42336, Note_on_c, 0, 62, 110
2, 42428, Note_off_c, 0, 63, 100
2, 42432, Note_on_c, 0, 67, 110
2, 42520, Note_off_c, 0, 62, 100
2, 42528, Note_on_c, 0, 65, 110
2, 42622, Note_off_c, 0, 67, 100
2, 42624, Note_on_c, 0, 70, 110
2, 42714, Note_off_c, 0, 65, 100
2, 42720, Note_on_c, 0, 69, 110
2, 42808, Note_off_c, 0, 70, 100
2, 42816, Note_on_c, 0, 72, 110
2, 42908, Note_off_c, 0, 69, 100
2, 42912, Note_on_c, 0, 70, 110
2, 43006, Note_off_c, 0, 72, 100
2, 43008, Note_on_c, 0, 75, 110
2, 43096, Note_off_c, 0, 70, 100
2, 43104, Note_on_c, 0, 74, 110
2, 43194, Note_off_c, 0, 75, 100
2, 43200, Note_on_c, 0, 79, 110
2, 43294, Note_off_c, 0, 74, 100
2, 43296, Note_on_c, 0, 77, 110
2, 43390, Note_off_c, 0, 79, 100
2, 43392, Note_on_c, 0, 82, 110
2, 43486, Note_off_c, 0, 77, 100
2, 43488, Note_on_c, 0, 81, 110
2, 43580, Note_off_c, 0, 82, 100
2, 43584, Note_on_c, 0, 84, 110
2, 43678, Note_off_c, 0, 81, 100
2, 43680, Note_on_c, 0, 82, 110
2, 43772, Note_off_c, 0, 84, 100
2, 43772, Note_off_c, 0, 82, 100
2, 43776, Note_on_c, 0, 82, 80
2, 43964, Note_off_c, 0, 82, 100
2, 43968, Note_on_c, 0, 79, 80
2, 44156, Note_off_c, 0, 79, 100
2, 44160, Note_on_c, 0, 75, 80
2, 44348, Note_off_c, 0, 75, 100
2, 44352, Note_on_c, 0, 74, 80
2, 44540, Note_off_c, 0, 74, 100
2, 44544, Note_on_c, 0, 77, 80
2, 44732, Note_off_c, 0, 77, 100
2, 44736, Note_on_c, 0, 82, 80
2, 44924, Note_off_c, 0, 82, 100
2, 44928, Note_on_c, 0, 82, 80
2, 45116, Note_off_c, 0, 82, 100
2, 45120, Note_on_c, 0, 79, 81
2, 45308, Note_off_c, 0, 79, 100
2, 45312, Note_on_c, 0, 75, 83
2, 45500, Note_off_c, 0, 75, 100
2, 45504, Note_on_c, 0, 75, 85
2, 45692, Note_off_c, 0, 75, 100
2, 45696, Note_on_c, 0, 79, 87
2, 45884, Note_off_c, 0, 79, 100
2, 45888, Note_on_c, 0, 84, 89
2, 46076, Note_off_c, 0, 84, 100
2, 46080, Note_on_c, 0, 84, 90
2, 46268, Note_off_c, 0, 84, 100
2, 46272, Note_on_c, 0, 80, 92
2, 46460, Note_off_c, 0, 80, 100
2, 46464, Note_on_c, 0, 77, 94
2, 46652, Note_off_c, 0, 77, 100
2, 46656, Note_on_c, 0, 76, 96
2, 46844, Note_off_c, 0, 76, 100
2, 46848, Note_on_c, 0, 79, 98
2, 47036, Note_off_c, 0, 79, 100
2, 47040, Note_on_c, 0, 84, 99
2, 47228, Note_off_c, 0, 84, 100
2, 47232, Note_on_c, 0, 84, 100
2, 47420, Note_off_c, 0, 84, 100
2, 47424, Note_on_c, 0, 80, 97
2, 47612, Note_off_c, 0, 80, 100
2, 47616, Note_on_c, 0, 77, 93
2, 47804, Note_off_c, 0, 77, 100
2, 47808, Note_on_c, 0, 74, 89
2, 47996, Note_off_c, 0, 74, 100
2, 48000, Note_on_c, 0, 77, 85
2, 48188, Note_off_c, 0, 77, 100
2, 48192, Note_on_c, 0, 82, 81
2, 48380, Note_off_c, 0, 82, 100
2, 48384, Note_on_c, 0, 82, 80
2, 48572, Note_off_c, 0, 82, 100
2, 48576, Note_on_c, 0, 79, 80
2, 48764, Note_off_c, 0, 79, 100
2, 48768, Note_on_c, 0, 75, 80
2, 48956, Note_off_c, 0, 75, 100
2, 48960, Note_on_c, 0, 72, 80
2, 49148, Note_off_c, 0, 72, 100
2, 49152, Note_on_c, 0, 77, 80
2, 49340, Note_off_c, 0, 77, 100
2, 49344, Note_on_c, 0, 80, 80
2, 49532, Note_off_c, 0, 80, 100
2, 49536, Note_on_c, 0, 70, 80
2, 49724, Note_off_c, 0, 70, 100
2, 49728, Note_on_c, 0, 75, 80
2, 49916, Note_off_c, 0, 75, 100
2, 49920, Note_on_c, 0, 79, 80
2, 50108, Note_off_c, 0, 79, 100
2, 50112, Note_on_c, 0, 68, 80
2, 50300, Note_off_c, 0, 68, 100
2, 50304, Note_on_c, 0, 74, 80
2, 50492, Note_off_c, 0, 74, 100
2, 50496, Note_on_c, 0, 77, 80
2, 50496, Note_on_c, 0, 68, 80
2, 50684, Note_off_c, 0, 77, 100
2, 50684, Note_off_c, 0, 68, 100
2, 50688, Note_on_c, 0, 75, 80
2, 50688, Note_on_c, 0, 67, 80
2, 50876, Note_off_c, 0, 75, 100
2, 50876, Note_off_c, 0, 67, 100
2, 51072, Note_on_c, 0, 79, 81
2, 51260, Note_off_c, 0, 79, 100
2, 51264, Note_on_c, 0, 80, 82
2, 51356, Note_off_c, 0, 80, 100
2, 51360, Note_on_c, 0, 79, 82
2, 51452, Note_off_c, 0, 79, 100
2, 51456, Note_on_c, 0, 80, 83
2, 51548, Note_off_c, 0, 80, 100
2, 51552, Note_on_c, 0, 77, 83
2, 51644, Note_off_c, 0, 77, 100
2, 51648, Note_on_c, 0, 82, 84
2, 51740, Note_off_c, 0, 82, 100
2, 51744, Note_on_c, 0, 80, 84
2, 51836, Note_off_c, 0, 80, 100
2, 51840, Note_on_c, 0, 79, 85
2, 52028, Note_off_c, 0, 79, 100
2, 52032, Note_on_c, 0, 94, 85
2, 52220, Note_off_c, 0, 94, 100
2, 52800, Note_on_c, 0, 67, 89
2, 52988, Note_off_c, 0, 67, 100
2, 53376, Note_on_c, 0, 68, 91
2, 53564, Note_off_c, 0, 68, 100
2, 53568, Note_on_c, 0, 70, 92
2, 53660, Note_off_c, 0, 70, 100
2, 53664, Note_on_c, 0, 68, 93
2, 53756, Note_off_c, 0, 68, 100
2, 53760, Note_on_c, 0, 70, 93
2, 53852, Note_off_c, 0, 70, 100
2, 53856, Note_on_c, 0, 67, 94
2, 53948, Note_off_c, 0, 67, 100
2, 53952, Note_on_c, 0, 72, 94
2, 54044, Note_off_c, 0, 72, 100
2, 54048, Note_on_c, 0, 70, 94
2, 54140, Note_off_c, 0, 70, 100
2, 54144, Note_on_c, 0, 68, 95
2, 54332, Note_off_c, 0, 68, 100
2, 54336, Note_on_c, 0, 84, 96
2, 54524, Note_off_c, 0, 84, 100
2, 55104, Note_on_c, 0, 77, 99
2, 55292, Note_off_c, 0, 77, 100
2, 55680, Note_on_c, 0, 79, 102
2, 55868, Note_off_c, 0, 79, 100
2, 55872, Note_on_c, 0, 80, 103
2, 55964, Note_off_c, 0, 80, 100
2, 55968, Note_on_c, 0, 79, 103
2, 56060, Note_off_c, 0, 79, 100
2, 56064, Note_on_c, 0, 80, 103
2, 56156, Note_off_c, 0, 80, 100
2, 56160, Note_on_c, 0, 77, 104
2, 56252, Note_off_c, 0, 77, 100
2, 56256, Note_on_c, 0, 92, 104
2, 56444, Note_off_c, 0, 92, 100
2, 56832, Note_on_c, 0, 75, 107
2, 57020, Note_off_c, 0, 75, 100
2, 57024, Note_on_c, 0, 77, 108
2, 57116, Note_off_c, 0, 77, 100
2, 57120, Note_on_c, 0, 75, 108
2, 57212, Note_off_c, 0, 75, 100
2, 57216, Note_on_c, 0, 77, 109
2, 57308, Note_off_c, 0, 77, 100
2, 57312, Note_on_c, 0, 74, 109
2, 57404, Note_off_c, 0, 74, 100
2, 57408, Note_on_c, 0, 89, 109
2, 57596, Note_off_c, 0, 89, 100
2, 57600, Note_on_c, 0, 67, 110
2, 57696, Note_on_c, 0, 79, 110
2, 57788, Note_off_c, 0, 67, 100
2, 57792, Note_on_c, 0, 67, 110
2, 57886, Note_off_c, 0, 79, 100
2, 57888, Note_on_c, 0, 79, 110
2, 57980, Note_off_c, 0, 67, 100
2, 57984, Note_on_c, 0, 70, 110
2, 58070, Note_off_c, 0, 79, 100
2, 58080, Note_on_c, 0, 82, 110
2, 58172, Note_off_c, 0, 70, 100
2, 58176, Note_on_c, 0, 70, 110
2, 58268, Note_off_c, 0, 82, 100
2, 58272, Note_on_c, 0, 82, 110
2, 58362, Note_off_c, 0, 70, 100
2, 58368, Note_on_c, 0, 70, 110
2, 58458, Note_off_c, 0, 82, 100
2, 58464, Note_on_c, 0, 82, 110
2, 58556, Note_off_c, 0, 70, 100
2, 58560, Note_on_c, 0, 68, 110
2, 58654, Note_off_c, 0, 82, 100
2, 58656, Note_on_c, 0, 80, 110
2, 58742, Note_off_c, 0, 68, 100
2, 58752, Note_on_c, 0, 67, 110
2, 58846, Note_off_c, 0, 80, 100
2, 58848, Note_on_c, 0, 79, 110
2, 58936, Note_off_c, 0, 67, 100
2, 58944, Note_on_c, 0, 67, 110
2, 59036, Note_off_c, 0, 79, 100
2, 59040, Note_on_c, 0, 79, 110
2, 59134, Note_off_c, 0, 67, 100
2, 59136, Note_on_c, 0, 70, 110
2, 59226, Note_off_c, 0, 79, 100
2, 59232, Note_on_c, 0, 82, 110
2, 59324, Note_off_c, 0, 70, 100
2, 59328, Note_on_c, 0, 70, 110
2, 59422, Note_off_c, 0, 82, 100
2, 59424, Note_on_c, 0, 82, 110
2, 59518, Note_off_c, 0, 70, 100
2, 59520, Note_on_c, 0, 70, 110
2, 59610, Note_off_c, 0, 82, 100
2, 59616, Note_on_c, 0, 82, 110
2, 59710, Note_off_c, 0, 70, 100
2, 59712, Note_on_c, 0, 67, 110
2, 59800, Note_off_c, 0, 82, 100
2, 59808, Note_on_c, 0, 79, 110
2, 59900, Note_off_c, 0, 67, 100
2, 59904, Note_on_c, 0, 68, 110
2, 59994, Note_off_c, 0, 79, 100
2, 60000, Note_on_c, 0, 80, 110
2, 60090, Note_off_c, 0, 68, 100
2, 60096, Note_on_c, 0, 68, 110
2, 60180, Note_off_c, 0, 80, 100
2, 60192, Note_on_c, 0, 80, 110
2, 60282, Note_off_c, 0, 68, 100
2, 60288, Note_on_c, 0, 72, 110
2, 60380, Note_off_c, 0, 80, 100
2, 60384, Note_on_c, 0, 84, 110
2, 60476, Note_off_c, 0, 72, 100
2, 60480, Note_on_c, 0, 72, 110
2, 60574, Note_off_c, 0, 84, 100
2, 60576, Note_on_c, 0, 84, 110
2, 60668, Note_off_c, 0, 72, 100
2, 60672, Note_on_c, 0, 72, 110
2, 60766, Note_off_c, 0, 84, 100
2, 60768, Note_on_c, 0, 84, 110
2, 60860, Note_off_c, 0, 72, 100
2, 60864, Note_on_c, 0, 70, 110
2, 60956, Note_off_c, 0, 84, 100
2, 60960, Note_on_c, 0, 82, 110
2, 61054, Note_off_c, 0, 70, 100
2, 61056, Note_on_c, 0, 68, 110
2, 61148, Note_off_c, 0, 82, 100
2, 61152, Note_on_c, 0, 80, 110
2, 61246, Note_off_c, 0, 68, 100
2, 61248, Note_on_c, 0, 68, 110
2, 61340, Note_off_c, 0, 80, 100
2, 61344, Note_on_c, 0, 80, 110
2, 61438, Note_off_c, 0, 68, 100
2, 61440, Note_on_c, 0, 72, 110
2, 61530, Note_off_c, 0, 80, 100
2, 61536, Note_on_c, 0, 84, 110
2, 61624, Note_off_c, 0, 72, 100
2, 61632, Note_on_c, 0, 72, 110
2, 61722, Note_off_c, 0, 84, 100
2, 61728, Note_on_c, 0, 84, 110
2, 61822, Note_off_c, 0, 72, 100
2, 61824, Note_on_c, 0, 70, 110
2, 61918, Note_off_c, 0, 84, 100
2, 61920, Note_on_c, 0, 82, 110
2, 62014, Note_off_c, 0, 70, 100
2, 62016, Note_on_c, 0, 68, 110
2, 62108, Note_off_c, 0, 82, 100
2, 62112, Note_on_c, 0, 80, 110
2, 62206, Note_off_c, 0, 68, 100
2, 62208, Note_on_c, 0, 67, 110
2, 62300, Note_off_c, 0, 80, 100
2, 62304, Note_on_c, 0, 79, 110
2, 62394, Note_off_c, 0, 67, 100
2, 62400, Note_on_c, 0, 70, 110
2, 62492, Note_off_c, 0, 79, 100
2, 62496, Note_on_c, 0, 82, 110
2, 62584, Note_off_c, 0, 70, 100
2, 62592, Note_on_c, 0, 75, 110
2, 62680, Note_off_c, 0, 82, 100
2, 62688, Note_on_c, 0, 87, 110
2, 62772, Note_off_c, 0, 75, 100
2, 62784, Note_on_c, 0, 75, 110
2, 62878, Note_off_c, 0, 87, 100
2, 62880, Note_on_c, 0, 87, 110
2, 62974, Note_off_c, 0, 75, 100
2, 62976, Note_on_c, 0, 72, 110
2, 63068, Note_off_c, 0, 87, 100
2, 63072, Note_on_c, 0, 84, 110
2, 63164, Note_off_c, 0, 72, 100
2, 63168, Note_on_c, 0, 68, 110
2, 63258, Note_off_c, 0, 84, 100
2, 63264, Note_on_c, 0, 80, 110
2, 63356, Note_off_c, 0, 68, 100
2, 63360, Note_on_c, 0, 75, 110
2, 63446, Note_off_c, 0, 80, 100
2, 63456, Note_on_c, 0, 87, 110
2, 63544, Note_off_c, 0, 75, 100
2, 63552, Note_on_c, 0, 70, 110
2, 63644, Note_off_c, 0, 87, 100
2, 63648, Note_on_c, 0, 82, 110
2, 63736, Note_off_c, 0, 70, 100
2, 63744, Note_on_c, 0, 67, 110
2, 63836, Note_off_c, 0, 82, 100
2, 63840, Note_on_c, 0, 79, 110
2, 63934, Note_off_c, 0, 67, 100
2, 63936, Note_on_c, 0, 70, 110
2, 64030, Note_off_c, 0, 79, 100
2, 64032, Note_on_c, 0, 82, 110
2, 64126, Note_off_c, 0, 70, 100
2, 64128, Note_on_c, 0, 68, 110
2, 64220, Note_off_c, 0, 82, 100
2, 64224, Note_on_c, 0, 80, 110
2, 64316, Note_off_c, 0, 68, 100
2, 64320, Note_on_c, 0, 65, 110
2, 64414, Note_off_c, 0, 80, 100
2, 64416, Note_on_c, 0, 77, 110
2, 64506, Note_off_c, 0, 65, 100
2, 64508, Note_off_c, 0, 77, 100
2, 64512, Control_c, 0, 64, 127
2, 64512, Note_on_c, 0, 55, 120
2, 64604, Note_off_c, 0, 55, 100
2, 64608, Note_on_c, 0, 63, 120
2, 64700, Note_off_c, 0, 63, 100
2, 64704, Note_on_c, 0, 58, 120
2, 64796, Note_off_c, 0, 58, 100
2, 64800, Note_on_c, 0, 67, 120
2, 64892, Note_off_c, 0, 67, 100
2, 64896, Note_on_c, 0, 63, 120
2, 64988, Note_off_c, 0, 63, 100
2, 64992, Note_on_c, 0, 70, 120
2, 65084, Note_off_c, 0, 70, 100
2, 65088, Note_on_c, 0, 67, 120
2, 65180, Note_off_c, 0, 67, 100
2, 65184, Note_on_c, 0, 75, 120
2, 65276, Note_off_c, 0, 75, 100
2, 65280, Note_on_c, 0, 70, 120
2, 65372, Note_off_c, 0, 70, 100
2, 65376, Note_on_c, 0, 79, 120
2, 65468, Note_off_c, 0, 79, 100
2, 65472, Note_on_c, 0, 75, 120
2, 65564, Note_off_c, 0, 75, 100
2, 65568, Note_on_c, 0, 82, 120
2, 65660, Note_off_c, 0, 82, 100
2, 65664, Note_on_c, 0, 79, 120
2, 65756, Note_off_c, 0, 79, 100
2, 65760, Note_on_c, 0, 87, 120
2, 65852, Note_off_c, 0, 87, 100
2, 65856, Note_on_c, 0, 82, 120
2, 65948, Note_off_c, 0, 82, 100
2, 65952, Note_on_c, 0, 91, 120
2, 66044, Note_off_c, 0, 91, 100
2, 66048, Note_on_c, 0, 87, 120
2, 66140, Note_off_c, 0, 87, 100
2, 66144, Note_on_c, 0, 94, 120
2, 66236, Note_off_c, 0, 94, 100
2, 66236, Control_c, 0, 64, 0
2, 66240, Note_on_c, 0, 93, 120
2, 66332, Note_off_c, 0, 93, 100
2, 66336, Note_on_c, 0, 94, 120
2, 66428, Note_off_c, 0, 94, 100
2, 66432, Note_on_c, 0, 93, 120
2, 66524, Note_off_c, 0, 93, 100
2, 66528, Note_on_c, 0, 94, 120
2, 66620, Note_off_c, 0, 94, 100
2, 66624, Note_on_c, 0, 93, 120
2, 66716, Note_off_c, 0, 93, 100
2, 66720, Note_on_c, 0, 94, 120
2, 66812, Note_off_c, 0, 94, 100
2, 66816, Note_on_c, 0, 96, 120
2, 66908, Note_off_c, 0, 96, 100
2, 66912, Note_on_c, 0, 94, 120
2, 67004, Note_off_c, 0, 94, 100
2, 67008, Note_on_c, 0, 92, 120
2, 67100, Note_off_c, 0, 92, 100
2, 67104, Note_on_c, 0, 91, 120
2, 67196, Note_off_c, 0, 91, 100
2, 67200, Note_on_c, 0, 89, 120
2, 67292, Note_off_c, 0, 89, 100
2, 67296, Note_on_c, 0, 87, 120
2, 67388, Note_off_c, 0, 87, 100
2, 67392, Note_on_c, 0, 86, 120
2, 67484, Note_off_c, 0, 86, 100
2, 67488, Note_on_c, 0, 84, 120
2, 67580, Note_off_c, 0, 84, 100
2, 67584, Note_on_c, 0, 82, 120
2, 67676, Note_off_c, 0, 82, 100
2, 67680, Note_on_c, 0, 80, 120
2, 67772, Note_off_c, 0, 80, 100
2, 67776, Note_on_c, 0, 79, 120
2, 67868, Note_off_c, 0, 79, 100
2, 67872, Note_on_c, 0, 77, 120
2, 67964, Note_off_c, 0, 77, 100
2, 67968, Note_on_c, 0, 75, 120
2, 68060, Note_off_c, 0, 75, 100
2, 68064, Note_on_c, 0, 74, 120
2, 68156, Note_off_c, 0, 74, 100
2, 68160, Note_on_c, 0, 72, 120
2, 68252, Note_off_c, 0, 72, 100
2, 68256, Note_on_c, 0, 70, 120
2, 68348, Note_off_c, 0, 70, 100
2, 68352, Note_on_c, 0, 68, 120
2, 68444, Note_off_c, 0, 68, 100
2, 68448, Note_on_c, 0, 67, 120
2, 68540, Note_off_c, 0, 67, 100
2, 68544, Note_on_c, 0, 65, 120
2, 68636, Note_off_c, 0, 65, 100
2, 68640, Note_on_c, 0, 63, 120
2, 68732, Note_off_c, 0, 63, 100
2, 68736, Note_on_c, 0, 62, 120
2, 68828, Note_off_c, 0, 62, 100
2, 68832, Note_on_c, 0, 65, 120
2, 68924, Note_off_c, 0, 65, 100
2, 68928, Note_on_c, 0, 68, 120
2, 69020, Note_off_c, 0, 68, 100
2, 69024, Note_on_c, 0, 62, 120
2, 69116, Note_off_c, 0, 62, 100
2, 69120, Control_c, 0, 64, 127
2, 69120, Note_on_c, 0, 55, 120
2, 69212, Note_off_c, 0, 55, 100
2, 69216, Note_on_c, 0, 63, 120
2, 69308, Note_off_c, 0, 63, 100
2, 69312, Note_on_c, 0, 58, 120
2, 69404, Note_off_c, 0, 58, 100
2, 69408, Note_on_c, 0, 67, 120
2, 69500, Note_off_c, 0, 67, 100
2, 69504, Note_on_c, 0, 63, 120
2, 69596, Note_off_c, 0, 63, 100
2, 69600, Note_on_c, 0, 70, 120
2, 69692, Note_off_c, 0, 70, 100
2, 69696, Note_on_c, 0, 67, 120
2, 69788, Note_off_c, 0, 67, 100
2, 69792, Note_on_c, 0, 75, 120
2, 69884, Note_off_c, 0, 75, 100
2, 69888, Note_on_c, 0, 70, 120
2, 69980, Note_off_c, 0, 70, 100
2, 69984, Note_on_c, 0, 79, 120
2, 70076, Note_off_c, 0, 79, 100
2, 70080, Note_on_c, 0, 75, 120
2, 70172, Note_off_c, 0, 75, 100
2, 70176, Note_on_c, 0, 82, 120
2, 70268, Note_off_c, 0, 82, 100
2, 70272, Note_on_c, 0, 79, 120
2, 70364, Note_off_c, 0, 79, 100
2, 70368, Note_on_c, 0, 87, 120
2, 70460, Note_off_c, 0, 87, 100
2, 70464, Note_on_c, 0, 82, 120
2, 70556, Note_off_c, 0, 82, 100
2, 70560, Note_on_c, 0, 91, 120
2, 70652, Note_off_c, 0, 91, 100
2, 70656, Note_on_c, 0, 87, 120
2, 70748, Note_off_c, 0, 87, 100
2, 70752, Note_on_c, 0, 94, 120
2, 70844, Note_off_c, 0, 94, 100
2, 70844, Control_c, 0, 64, 0
2, 70848, Note_on_c, 0, 93, 120
2, 70940, Note_off_c, 0, 93, 100
2, 70944, Note_on_c, 0, 94, 120
2, 71036, Note_off_c, 0, 94, 100
2, 71040, Note_on_c, 0, 93, 120
2, 71132, Note_off_c, 0, 93, 100
2, 71136, Note_on_c, 0, 94, 120
2, 71228, Note_off_c, 0, 94, 100
2, 71232, Note_on_c, 0, 93, 120
2, 71324, Note_off_c, 0, 93, 100
2, 71328, Note_on_c, 0, 94, 120
2, 71420, Note_off_c, 0, 94, 100
2, 71424, Note_on_c, 0, 96, 120
2, 71516, Note_off_c, 0, 96, 100
2, 71520, Note_on_c, 0, 94, 120
2, 71612, Note_off_c, 0, 94, 100
2, 71616, Note_on_c, 0, 92, 120
2, 71708, Note_off_c, 0, 92, 100
2, 71712, Note_on_c, 0, 91, 120
2, 71804, Note_off_c, 0, 91, 100
2, 71808, Note_on_c, 0, 89, 120
2, 71900, Note_off_c, 0, 89, 100
2, 71904, Note_on_c, 0, 87, 120
2, 71996, Note_off_c, 0, 87, 100
2, 72000, Note_on_c, 0, 86, 120
2, 72092, Note_off_c, 0, 86, 100
2, 72096, Note_on_c, 0, 84, 120
2, 72188, Note_off_c, 0, 84, 100
2, 72192, Note_on_c, 0, 82, 120
2, 72284, Note_off_c, 0, 82, 100
2, 72288, Note_on_c, 0, 80, 120
2, 72380, Note_off_c, 0, 80, 100
2, 72384, Note_on_c, 0, 79, 120
2, 72476, Note_off_c, 0, 79, 100
2, 72480, Note_on_c, 0, 77, 120
2, 72572, Note_off_c, 0, 77, 100
2, 72576, Note_on_c, 0, 75, 120
2, 72636, Note_off_c, 0, 75, 100
2, 72640, Note_on_c, 0, 74, 120
2, 72700, Note_off_c, 0, 74, 100
2, 72704, Note_on_c, 0, 72, 120
2, 72764, Note_off_c, 0, 72, 100
2, 72768, Note_on_c, 0, 70, 120
2, 72828, Note_off_c, 0, 70, 100
2, 72832, Note_on_c, 0, 68, 120
2, 72892, Note_off_c, 0, 68, 100
2, 72896, Note_on_c, 0, 67, 120
2, 72956, Note_off_c, 0, 67, 100
2, 72960, Note_on_c, 0, 65, 120
2, 73020, Note_off_c, 0, 65, 100
2, 73024, Note_on_c, 0, 63, 120
2, 73084, Note_off_c, 0, 63, 100
2, 73088, Note_on_c, 0, 62, 120
2, 73148, Note_off_c, 0, 62, 100
2, 73152, Note_on_c, 0, 60, 120
2, 73244, Note_off_c, 0, 60, 100
2, 73248, Note_on_c, 0, 58, 120
2, 73340, Note_off_c, 0, 58, 100
2, 73344, Note_on_c, 0, 57, 120
2, 73436, Note_off_c, 0, 57, 100
2, 73440, Note_on_c, 0, 60, 120
2, 73532, Note_off_c, 0, 60, 100
2, 73536, Note_on_c, 0, 63, 120
2, 73628, Note_off_c, 0, 63, 100
2, 73632, Note_on_c, 0, 57, 120
2, 73724, Note_off_c, 0, 57, 100
2, 73728, Control_c, 0, 64, 127
2, 73728, Note_on_c, 0, 58, 120
2, 74304, Note_on_c, 0, 70, 120
2, 74876, Note_off_c, 0, 58, 100
2, 74880, Note_on_c, 0, 73, 120
2, 75452, Note_off_c, 0, 70, 100
2, 75456, Note_on_c, 0, 78, 120
2, 76028, Note_off_c, 0, 73, 100
2, 76032, Note_on_c, 0, 73, 120
2, 76604, Note_off_c, 0, 78, 100
2, 76608, Note_on_c, 0, 70, 120
2, 77180, Note_off_c, 0, 73, 100
2, 77184, Note_on_c, 0, 66, 120
2, 77756, Note_off_c, 0, 70, 100
2, 77760, Note_on_c, 0, 61, 120
2, 78332, Note_off_c, 0, 66, 100
2, 78332, Note_off_c, 0, 61, 100
2, 78332, Control_c, 0, 64, 0
2, 78336, Control_c, 0, 64, 127
2, 78336, Note_on_c, 0, 57, 120
2, 78912, Note_on_c, 0, 69, 120
2, 79484, Note_off_c, 0, 57, 100
2, 79488, Note_on_c, 0, 72, 120
2, 80060, Note_off_c, 0, 69, 100
2, 80064, Note_on_c, 0, 77, 120
2, 80636, Note_off_c, 0, 72, 100
2, 80640, Note_on_c, 0, 72, 120
2, 81212, Note_off_c, 0, 77, 100
2, 81216, Note_on_c, 0, 69, 120
2, 81788, Note_off_c, 0, 72, 100
2, 81792, Note_on_c, 0, 65, 120
2, 82364, Note_off_c, 0, 69, 100
2, 82368, Note_on_c, 0, 60, 120
2, 82940, Note_off_c, 0, 65, 100
2, 82940, Note_off_c, 0, 60, 100
2, 82940, Control_c, 0, 64, 0
2, 82944, Note_on_c, 0, 73, 80
2, 83132, Note_off_c, 0, 73, 100
2, 83328, Note_on_c, 0, 84, 80
2, 83372, Note_off_c, 0, 84, 100
2, 83376, Note_on_c, 0, 82, 80
2, 83420, Note_off_c, 0, 82, 100
2, 83424, Note_on_c, 0, 81, 80
2, 83516, Note_off_c, 0, 81, 100
2, 83520, Note_on_c, 0, 82, 80
2, 83708, Note_off_c, 0, 82, 100
2, 83904, Note_on_c, 0, 87, 80
2, 83948, Note_off_c, 0, 87, 100
2, 83952, Note_on_c, 0, 85, 80
2, 83996, Note_off_c, 0, 85, 100
2, 84000, Note_on_c, 0, 84, 80
2, 84092, Note_off_c, 0, 84, 100
2, 84096, Note_on_c, 0, 85, 80
2, 84284, Note_off_c, 0, 85, 100
2, 84480, Note_on_c, 0, 92, 80
2, 84524, Note_off_c, 0, 92, 100
2, 84528, Note_on_c, 0, 90, 80
2, 84572, Note_off_c, 0, 90, 100
2, 84576, Note_on_c, 0, 89, 80
2, 84668, Note_off_c, 0, 89, 100
2, 84672, Note_on_c, 0, 90, 80
2, 84860, Note_off_c, 0, 90, 100
2, 85056, Note_on_c, 0, 87, 80
2, 85100, Note_off_c, 0, 87, 100
2, 85104, Note_on_c, 0, 85, 80
2, 85148, Note_off_c, 0, 85, 100
2, 85152, Note_on_c, 0, 84, 80
2, 85244, Note_off_c, 0, 84, 100
2, 85248, Note_on_c, 0, 85, 80
2, 85436, Note_off_c, 0, 85, 100
2, 85632, Note_on_c, 0, 84, 80
2, 85676, Note_off_c, 0, 84, 100
2, 85680, Note_on_c, 0, 82, 80
2, 85724, Note_off_c, 0, 82, 100
2, 85728, Note_on_c, 0, 81, 80
2, 85820, Note_off_c, 0, 81, 100
2, 85824, Note_on_c, 0, 82, 80
2, 86012, Note_off_c, 0, 82, 100
2, 86208, Note_on_c, 0, 80, 80
2, 86252, Note_off_c, 0, 80, 100
2, 86256, Note_on_c, 0, 78, 80
2, 86300, Note_off_c, 0, 78, 100
2, 86304, Note_on_c, 0, 77, 80
2, 86396, Note_off_c, 0, 77, 100
2, 86400, Note_on_c, 0, 78, 80
2, 86588, Note_off_c, 0, 78, 100
2, 86784, Note_on_c, 0, 75, 80
2, 86828, Note_off_c, 0, 75, 100
2, 86832, Note_on_c, 0, 73, 80
2, 86876, Note_off_c, 0, 73, 100
2, 86880, Note_on_c, 0, 72, 80
2, 86972, Note_off_c, 0, 72, 100
2, 86976, Note_on_c, 0, 73, 80
2, 87356, Note_off_c, 0, 73, 100
2, 87552, Note_on_c, 0, 72, 80
2, 87740, Note_off_c, 0, 72, 100
2, 87936, Note_on_c, 0, 82, 80
2, 87980, Note_off_c, 0, 82, 100
2, 87984, Note_on_c, 0, 81, 80
2, 88028, Note_off_c, 0, 81, 100
2, 88032, Note_on_c, 0, 79, 80
2, 88124, Note_off_c, 0, 79, 100
2, 88128, Note_on_c, 0, 81, 80
2, 88316, Note_off_c, 0, 81, 100
2, 88512, Note_on_c, 0, 85, 80
2, 88556, Note_off_c, 0, 85, 100
2, 88560, Note_on_c, 0, 84, 80
2, 88604, Note_off_c, 0, 84, 100
2, 88608, Note_on_c, 0, 83, 80
2, 88700, Note_off_c, 0, 83, 100
2, 88704, Note_on_c, 0, 84, 80
2, 88892, Note_off_c, 0, 84, 100
2, 89088, Note_on_c, 0, 90, 80
2, 89132, Note_off_c, 0, 90, 100
2, 89136, Note_on_c, 0, 89, 80
2, 89180, Note_off_c, 0, 89, 100
2, 89184, Note_on_c, 0, 88, 80
2, 89276, Note_off_c, 0, 88, 100
2, 89280, Note_on_c, 0, 89, 80
2, 89468, Note_off_c, 0, 89, 100
2, 89664, Note_on_c, 0, 85, 80
2, 89708, Note_off_c, 0, 85, 100
2, 89712, Note_on_c, 0, 84, 80
2, 89756, Note_off_c, 0, 84, 100
2, 89760, Note_on_c, 0, 83, 80
2, 89852, Note_off_c, 0, 83, 100
2, 89856, Note_on_c, 0, 84, 80
2, 90044, Note_off_c, 0, 84, 100
2, 90240, Note_on_c, 0, 82, 80
2, 90284, Note_off_c, 0, 82, 100
2, 90288, Note_on_c, 0, 81, 80
2, 90332, Note_off_c, 0, 81, 100
2, 90336, Note_on_c, 0, 79, 80
2, 90428, Note_off_c, 0, 79, 100
2, 90432, Note_on_c, 0, 81, 80
2, 90620, Note_off_c, 0, 81, 100
2, 90816, Note_on_c, 0, 78, 80
2, 90860, Note_off_c, 0, 78, 100
2, 90864, Note_on_c, 0, 77, 80
2, 90908, Note_off_c, 0, 77, 100
2, 90912, Note_on_c, 0, 76, 80
2, 91004, Note_off_c, 0, 76, 100
2, 91008, Note_on_c, 0, 77, 80
2, 91196, Note_off_c, 0, 77, 100
2, 91392, Note_on_c, 0, 73, 80
2, 91436, Note_off_c, 0, 73, 100
2, 91440, Note_on_c, 0, 72, 80
2, 91484, Note_off_c, 0, 72, 100
2, 91488, Note_on_c, 0, 71, 80
2, 91580, Note_off_c, 0, 71, 100
2, 91584, Note_on_c, 0, 72, 80
2, 91772, Note_off_c, 0, 72, 100
2, 91968, Note_on_c, 0, 73, 80
2, 92156, Note_off_c, 0, 73, 100
2, 92160, Note_on_c, 0, 74, 90
2, 92160, Note_on_c, 0, 65, 80
2, 92256, Note_on_c, 0, 67, 80
2, 92342, Note_off_c, 0, 65, 100
2, 92352, Note_on_c, 0, 65, 80
2, 92446, Note_off_c, 0, 67, 100
2, 92448, Note_on_c, 0, 67, 80
2, 92534, Note_off_c, 0, 65, 100
2, 92544, Note_on_c, 0, 65, 80
2, 92634, Note_off_c, 0, 67, 100
2, 92640, Note_on_c, 0, 67, 80
2, 92732, Note_off_c, 0, 74, 100
2, 92734, Note_off_c, 0, 65, 100
2, 92736, Note_on_c, 0, 70, 90
2, 92736, Note_on_c, 0, 65, 80
2, 92824, Note_off_c, 0, 67, 100
2, 92832, Note_on_c, 0, 67, 80
2, 92922, Note_off_c, 0, 65, 100
2, 92928, Note_on_c, 0, 65, 80
2, 93022, Note_off_c, 0, 67, 100
2, 93024, Note_on_c, 0, 67, 80
2, 93118, Note_off_c, 0, 65, 100
2, 93120, Note_on_c, 0, 65, 80
2, 93212, Note_off_c, 0, 67, 100
2, 93216, Note_on_c, 0, 67, 80
2, 93308, Note_off_c, 0, 70, 100
2, 93308, Note_off_c, 0, 67, 100
2, 93310, Note_off_c, 0, 65, 100
2, 93312, Note_on_c, 0, 65, 80
2, 93312, Note_on_c, 0, 69, 92
2, 93408, Note_on_c, 0, 67, 80
2, 93494, Note_off_c, 0, 65, 100
2, 93504, Note_on_c, 0, 65, 80
2, 93598, Note_off_c, 0, 67, 100
2, 93600, Note_on_c, 0, 67, 80
2, 93686, Note_off_c, 0, 65, 100
2, 93696, Note_on_c, 0, 65, 80
2, 93786, Note_off_c, 0, 67, 100
2, 93792, Note_on_c, 0, 67, 80
2, 93884, Note_off_c, 0, 69, 100
2, 93886, Note_off_c, 0, 65, 100
2, 93888, Note_on_c, 0, 65, 80
2, 93888, Note_on_c, 0, 75, 95
2, 93976, Note_off_c, 0, 67, 100
2, 93984, Note_on_c, 0, 67, 80
2, 94074, Note_off_c, 0, 65, 100
2, 94080, Note_on_c, 0, 65, 80
2, 94174, Note_off_c, 0, 67, 100
2, 94176, Note_on_c, 0, 67, 80
2, 94270, Note_off_c, 0, 65, 100
2, 94272, Note_on_c, 0, 65, 80
2, 94364, Note_off_c, 0, 67, 100
2, 94368, Note_on_c, 0, 67, 80
2, 94460, Note_off_c, 0, 75, 100
2, 94460, Note_off_c, 0, 67, 100
2, 94462, Note_off_c, 0, 65, 100
2, 94464, Note_on_c, 0, 65, 80
2, 94464, Note_on_c, 0, 74, 91
2, 94560, Note_on_c, 0, 67, 80
2, 94646, Note_off_c, 0, 65, 100
2, 94656, Note_on_c, 0, 65, 80
2, 94750, Note_off_c, 0, 67, 100
2, 94752, Note_on_c, 0, 67, 80
2, 94838, Note_off_c, 0, 65, 100
2, 94848, Note_on_c, 0, 65, 80
2, 94938, Note_off_c, 0, 67, 100
2, 94944, Note_on_c, 0, 67, 80
2, 95036, Note_off_c, 0, 74, 100
2, 95038, Note_off_c, 0, 65, 100
2, 95040, Note_on_c, 0, 65, 80
2, 95040, Note_on_c, 0, 70, 94
2, 95128, Note_off_c, 0, 67, 100
2, 95136, Note_on_c, 0, 67, 80
2, 95226, Note_off_c, 0, 65, 100
2, 95232, Note_on_c, 0, 65, 80
2, 95326, Note_off_c, 0, 67, 100
2, 95328, Note_on_c, 0, 67, 80
2, 95422, Note_off_c, 0, 65, 100
2, 95424, Note_on_c, 0, 65, 80
2, 95516, Note_off_c, 0, 67, 100
2, 95520, Note_on_c, 0, 67, 80
2, 95612, Note_off_c, 0, 70, 100
2, 95612, Note_off_c, 0, 67, 100
2, 95614, Note_off_c, 0, 65, 100
2, 95616, Note_on_c, 0, 65, 80
2, 95616, Note_on_c, 0, 69, 93
2, 95712, Note_on_c, 0, 67, 80
2, 95798, Note_off_c, 0, 65, 100
2, 95808, Note_on_c, 0, 65, 80
2, 95902, Note_off_c, 0, 67, 100
2, 95904, Note_on_c, 0, 67, 80
2, 95990, Note_off_c, 0, 65, 100
2, 96000, Note_on_c, 0, 65, 80
2, 96090, Note_off_c, 0, 67, 100
2, 96096, Note_on_c, 0, 67, 80
2, 96188, Note_off_c, 0, 69, 100
2, 96190, Note_off_c, 0, 65, 100
2, 96192, Note_on_c, 0, 65, 80
2, 96192, Note_on_c, 0, 75, 95
2, 96280, Note_off_c, 0, 67, 100
2, 96288, Note_on_c, 0, 67, 80
2, 96378, Note_off_c, 0, 65, 100
2, 96384, Note_on_c, 0, 65, 80
2, 96478, Note_off_c, 0, 67, 100
2, 96480, Note_on_c, 0, 67, 80
2, 96574, Note_off_c, 0, 65, 100
2, 96576, Note_on_c, 0, 65, 80
2, 96668, Note_off_c, 0, 67, 100
2, 96672, Note_on_c, 0, 67, 80
2, 96764, Note_off_c, 0, 75, 100
2, 96764, Note_off_c, 0, 67, 100
2, 96766, Note_off_c, 0, 65, 100
2, 96768, Note_on_c, 0, 74, 80
2, 96864, Note_on_c, 0, 77, 80
2, 96958, Note_off_c, 0, 74, 100
2, 96960, Note_on_c, 0, 79, 80
2, 97024, Note_on_c, 0, 81, 80
2, 97054, Note_off_c, 0, 77, 100
2, 97080, Note_off_c, 0, 79, 100
2, 97088, Note_on_c, 0, 82, 80
2, 97146, Note_off_c, 0, 81, 100
2, 97152, Note_on_c, 0, 84, 80
2, 97210, Note_off_c, 0, 82, 100
2, 97216, Note_on_c, 0, 86, 80
2, 97272, Note_off_c, 0, 84, 100
2, 97280, Note_on_c, 0, 87, 80
2, 97338, Note_off_c, 0, 86, 100
2, 97344, Note_on_c, 0, 89, 80
2, 97402, Note_off_c, 0, 87, 100
2, 97440, Note_on_c, 0, 87, 80
2, 97534, Note_off_c, 0, 89, 100
2, 97536, Note_on_c, 0, 86, 80
2, 97630, Note_off_c, 0, 87, 100
2, 97632, Note_on_c, 0, 84, 80
2, 97724, Note_off_c, 0, 86, 100
2, 97728, Note_on_c, 0, 82, 80
2, 97820, Note_off_c, 0, 84, 100
2, 97824, Note_on_c, 0, 81, 80
2, 97914, Note_off_c, 0, 82, 100
2, 97916, Note_off_c, 0, 81, 100
2, 97920, Note_on_c, 0, 79, 80
2, 98016, Note_on_c, 0, 81, 80
2, 98108, Note_off_c, 0, 79, 100
2, 98112, Note_on_c, 0, 82, 80
2, 98206, Note_off_c, 0, 81, 100
2, 98208, Note_on_c, 0, 84, 80
2, 98296, Note_off_c, 0, 82, 100
2, 98304, Note_on_c, 0, 86, 80
2, 98368, Note_on_c, 0, 87, 80
2, 98390, Note_off_c, 0, 84, 100
2, 98426, Note_off_c, 0, 86, 100
2, 98432, Note_on_c, 0, 89, 80
2, 98490, Note_off_c, 0, 87, 100
2, 98496, Note_on_c, 0, 91, 80
2, 98554, Note_off_c, 0, 89, 100
2, 98592, Note_on_c, 0, 89, 80
2, 98686, Note_off_c, 0, 91, 100
2, 98688, Note_on_c, 0, 87, 80
2, 98752, Note_on_c, 0, 86, 80
2, 98774, Note_off_c, 0, 89, 100
2, 98810, Note_off_c, 0, 87, 100
2, 98816, Note_on_c, 0, 84, 80
2, 98874, Note_off_c, 0, 86, 100
2, 98880, Note_on_c, 0, 82, 80
2, 98938, Note_off_c, 0, 84, 100
2, 98944, Note_on_c, 0, 81, 80
2, 99002, Note_off_c, 0, 82, 100
2, 99008, Note_on_c, 0, 79, 80
2, 99066, Note_off_c, 0, 81, 100
2, 99068, Note_off_c, 0, 79, 100
2, 99072, Note_on_c, 0, 77, 80
2, 99168, Note_on_c, 0, 86, 82
2, 99258, Note_off_c, 0, 77, 100
2, 99264, Note_on_c, 0, 82, 85
2, 99354, Note_off_c, 0, 86, 100
2, 99360, Note_on_c, 0, 89, 88
2, 99450, Note_off_c, 0, 82, 100
2, 99456, Note_on_c, 0, 86, 90
2, 99548, Note_off_c, 0, 89, 100
2, 99552, Note_on_c, 0, 94, 93
2, 99644, Note_off_c, 0, 86, 100
2, 99648, Note_on_c, 0, 89, 96
2, 99712, Note_on_c, 0, 98, 98
2, 99736, Note_off_c, 0, 94, 100
2, 99770, Note_off_c, 0, 89, 100
2, 99776, Note_on_c, 0, 94, 99
2, 99834, Note_off_c, 0, 98, 100
2, 99840, Note_on_c, 0, 101, 102
2, 99898, Note_off_c, 0, 94, 100
2, 99904, Note_on_c, 0, 98, 100
2, 99962, Note_off_c, 0, 101, 100
2, 99968, Note_on_c, 0, 94, 98
2, 100026, Note_off_c, 0, 98, 100
2, 100032, Note_on_c, 0, 89, 95
2, 100090, Note_off_c, 0, 94, 100
2, 100096, Note_on_c, 0, 86, 93
2, 100154, Note_off_c, 0, 89, 100
2, 100160, Note_on_c, 0, 82, 91
2, 100216, Note_off_c, 0, 86, 100
2, 100220, Note_off_c, 0, 82, 100
2, 100224, Note_on_c, 0, 77, 80
2, 100604, Note_off_c, 0, 77, 100
2, 100800, Note_on_c, 0, 84, 80
2, 100848, Note_on_c, 0, 86, 80
2, 100894, Note_off_c, 0, 84, 100
2, 100896, Note_on_c, 0, 84, 80
2, 100936, Note_off_c, 0, 86, 100
2, 100944, Note_on_c, 0, 86, 80
2, 100984, Note_off_c, 0, 84, 100
2, 100992, Note_on_c, 0, 84, 80
2, 101036, Note_off_c, 0, 86, 100
2, 101040, Note_on_c, 0, 86, 80
2, 101086, Note_off_c, 0, 84, 100
2, 101088, Note_on_c, 0, 84, 80
2, 101128, Note_off_c, 0, 86, 100
2, 101136, Note_on_c, 0, 86, 80
2, 101176, Note_off_c, 0, 84, 100
2, 101184, Note_on_c, 0, 84, 80
2, 101228, Note_off_c, 0, 86, 100
2, 101232, Note_on_c, 0, 86, 80
2, 101278, Note_off_c, 0, 84, 100
2, 101280, Note_on_c, 0, 82, 80
2, 101320, Note_off_c, 0, 86, 100
2, 101328, Note_on_c, 0, 84, 80
2, 101368, Note_off_c, 0, 82, 100
2, 101374, Note_off_c, 0, 84, 100
2, 101376, Note_on_c, 0, 86, 90
2, 101376, Note_on_c, 0, 77, 80
2, 101472, Note_on_c, 0, 79, 80
2, 101558, Note_off_c, 0, 77, 100
2, 101568, Note_on_c, 0, 77, 80
2, 101662, Note_off_c, 0, 79, 100
2, 101664, Note_on_c, 0, 79, 80
2, 101750, Note_off_c, 0, 77, 100
2, 101760, Note_on_c, 0, 77, 80
2, 101850, Note_off_c, 0, 79, 100
2, 101856, Note_on_c, 0, 79, 80
2, 101948, Note_off_c, 0, 86, 100
2, 101950, Note_off_c, 0, 77, 100
2, 101952, Note_on_c, 0, 82, 90
2, 101952, Note_on_c, 0, 77, 80
2, 102040, Note_off_c, 0, 79, 100
2, 102048, Note_on_c, 0, 79, 80
2, 102138, Note_off_c, 0, 77, 100
2, 102144, Note_on_c, 0, 77, 80
2, 102238, Note_off_c, 0, 79, 100
2, 102240, Note_on_c, 0, 79, 80
2, 102334, Note_off_c, 0, 77, 100
2, 102336, Note_on_c, 0, 77, 80
2, 102428, Note_off_c, 0, 79, 100
2, 102432, Note_on_c, 0, 79, 80
2, 102524, Note_off_c, 0, 82, 100
2, 102524, Note_off_c, 0, 79, 100
2, 102526, Note_off_c, 0, 77, 100
2, 102528, Note_on_c, 0, 77, 80
2, 102528, Note_on_c, 0, 81, 92
2, 102624, Note_on_c, 0, 79, 80
2, 102710, Note_off_c, 0, 77, 100
2, 102720, Note_on_c, 0, 77, 80
2, 102814, Note_off_c, 0, 79, 100
2, 102816, Note_on_c, 0, 79, 80
2, 102902, Note_off_c, 0, 77, 100
2, 102912, Note_on_c, 0, 77, 80
2, 103002, Note_off_c, 0, 79, 100
2, 103008, Note_on_c, 0, 79, 80
2, 103100, Note_off_c, 0, 81, 100
2, 103102, Note_off_c, 0, 77, 100
2, 103104, Note_on_c, 0, 77, 80
2, 103104, Note_on_c, 0, 87, 95
2, 103192, Note_off_c, 0, 79, 100
2, 103200, Note_on_c, 0, 79, 80
2, 103290, Note_off_c, 0, 77, 100
2, 103296, Note_on_c, 0, 77, 80
2, 103390, Note_off_c, 0, 79, 100
2, 103392, Note_on_c, 0, 79, 80
2, 103486, Note_off_c, 0, 77, 100
2, 103488, Note_on_c, 0, 77, 80
2, 103580, Note_off_c, 0, 79, 100
2, 103584, Note_on_c, 0, 79, 80
2, 103676, Note_off_c, 0, 87, 100
2, 103676, Note_off_c, 0, 79, 100
2, 103678, Note_off_c, 0, 77, 100
2, 103680, Note_on_c, 0, 77, 80
2, 103680, Note_on_c, 0, 86, 91
2, 103776, Note_on_c, 0, 79, 80
2, 103862, Note_off_c, 0, 77, 100
2, 103872, Note_on_c, 0, 77, 80
2, 103966, Note_off_c, 0, 79, 100
2, 103968, Note_on_c, 0, 79, 80
2, 104054, Note_off_c, 0, 77, 100
2, 104064, Note_on_c, 0, 77, 80
2, 104154, Note_off_c, 0, 79, 100
2, 104160, Note_on_c, 0, 79, 80
2, 104252, Note_off_c, 0, 86, 100
2, 104254, Note_off_c, 0, 77, 100
2, 104256, Note_on_c, 0, 77, 80
2, 104256, Note_on_c, 0, 82, 94
2, 104344, Note_off_c, 0, 79, 100
2, 104352, Note_on_c, 0, 79, 80
2, 104442, Note_off_c, 0, 77, 100
2, 104448, Note_on_c, 0, 77, 80
2, 104542, Note_off_c, 0, 79, 100
2, 104544, Note_on_c, 0, 79, 80
2, 104638, Note_off_c, 0, 77, 100
2, 104640, Note_on_c, 0, 77, 80
2, 104732, Note_off_c, 0, 79, 100
2, 104736, Note_on_c, 0, 79, 80
2, 104828, Note_off_c, 0, 82, 100
2, 104828, Note_off_c, 0, 79, 100
2, 104830, Note_off_c, 0, 77, 100
2, 104832, Note_on_c, 0, 77, 80
2, 104832, Note_on_c, 0, 81, 93
2, 104928, Note_on_c, 0, 79, 80
2, 105014, Note_off_c, 0, 77, 100
2, 105024, Note_on_c, 0, 77, 80
2, 105118, Note_off_c, 0, 79, 100
2, 105120, Note_on_c, 0, 79, 80
2, 105206, Note_off_c, 0, 77, 100
2, 105216, Note_on_c, 0, 77, 80
2, 105306, Note_off_c, 0, 79, 100
2, 105312, Note_on_c, 0, 79, 80
2, 105404, Note_off_c, 0, 81, 100
2, 105406, Note_off_c, 0, 77, 100
2, 105408, Note_on_c, 0, 77, 80
2, 105408, Note_on_c, 0, 87, 95
2, 105496, Note_off_c, 0, 79, 100
2, 105504, Note_on_c, 0, 79, 80
2, 105594, Note_off_c, 0, 77, 100
2, 105600, Note_on_c, 0, 77, 80
2, 105694, Note_off_c, 0, 79, 100
2, 105696, Note_on_c, 0, 79, 80
2, 105790, Note_off_c, 0, 77, 100
2, 105792, Note_on_c, 0, 77, 80
2, 105884, Note_off_c, 0, 79, 100
2, 105888, Note_on_c, 0, 79, 80
2, 105980, Note_off_c, 0, 87, 100
2, 105980, Note_off_c, 0, 79, 100
2, 105982, Note_off_c, 0, 77, 100
2, 106176, Note_on_c, 0, 82, 80
2, 106176, Note_on_c, 0, 86, 80
2, 106364, Note_off_c, 0, 82, 100
2, 106364, Note_off_c, 0, 86, 100
2, 106368, Note_on_c, 0, 82, 80
2, 106368, Note_on_c, 0, 86, 80
2, 106556, Note_off_c, 0, 82, 100
2, 106556, Note_off_c, 0, 86, 100
2, 106560, Note_on_c, 0, 82, 80
2, 106560, Note_on_c, 0, 86, 80
2, 106748, Note_off_c, 0, 82, 100
2, 106748, Note_off_c, 0, 86, 100
2, 106752, Note_on_c, 0, 82, 80
2, 106752, Note_on_c, 0, 86, 80
2, 106940, Note_off_c, 0, 82, 100
2, 106940, Note_off_c, 0, 86, 100
2, 106944, Note_on_c, 0, 82, 80
2, 106944, Note_on_c, 0, 86, 80
2, 107132, Note_off_c, 0, 82, 100
2, 107132, Note_off_c, 0, 86, 100
2, 107328, Note_on_c, 0, 84, 80
2, 107328, Note_on_c, 0, 82, 80
2, 107516, Note_off_c, 0, 84, 100
2, 107516, Note_off_c, 0, 82, 100
2, 107520, Note_on_c, 0, 84, 80
2, 107520, Note_on_c, 0, 82, 80
2, 107708, Note_off_c, 0, 84, 100
2, 107708, Note_off_c, 0, 82, 100
2, 107712, Note_on_c, 0, 84, 80
2, 107712, Note_on_c, 0, 82, 80
2, 107900, Note_off_c, 0, 84, 100
2, 107900, Note_off_c, 0, 82, 100
2, 107904, Note_on_c, 0, 84, 80
2, 107904, Note_on_c, 0, 82, 80
2, 108092, Note_off_c, 0, 84, 100
2, 108092, Note_off_c, 0, 82, 100
2, 108096, Note_on_c, 0, 84, 80
2, 108096, Note_on_c, 0, 82, 80
2, 108284, Note_off_c, 0, 84, 100
2, 108284, Note_off_c, 0, 82, 100
2, 108480, Note_on_c, 0, 86, 80
2, 108480, Note_on_c, 0, 82, 80
2, 108668, Note_off_c, 0, 86, 100
2, 108668, Note_off_c, 0, 82, 100
2, 108672, Note_on_c, 0, 86, 80
2, 108672, Note_on_c, 0, 82, 80
2, 108860, Note_off_c, 0, 86, 100
2, 108860, Note_off_c, 0, 82, 100
2, 108864, Note_on_c, 0, 86, 80
2, 108864, Note_on_c, 0, 82, 80
2, 109052, Note_off_c, 0, 86, 100
2, 109052, Note_off_c, 0, 82, 100
2, 109056, Note_on_c, 0, 86, 80
2, 109056, Note_on_c, 0, 82, 80
2, 109244, Note_off_c, 0, 86, 100
2, 109244, Note_off_c, 0, 82, 100
2, 109248, Note_on_c, 0, 86, 80
2, 109248, Note_on_c, 0, 82, 80
2, 109248, Note_on_c, 0, 89, 80
2, 109436, Note_off_c, 0, 86, 100
2, 109436, Note_off_c, 0, 82, 100
2, 109436, Note_off_c, 0, 89, 100
2, 109440, Note_on_c, 0, 89, 80
2, 109440, Note_on_c, 0, 87, 80
2, 109440, Note_on_c, 0, 81, 80
2, 109628, Note_off_c, 0, 89, 100
2, 109628, Note_off_c, 0, 87, 100
2, 109628, Note_off_c, 0, 81, 100
2, 109632, Note_on_c, 0, 89, 80
2, 109632, Note_on_c, 0, 87, 80
2, 109632, Note_on_c, 0, 81, 80
2, 109820, Note_off_c, 0, 89, 100
2, 109820, Note_off_c, 0, 87, 100
2, 109820, Note_off_c, 0, 81, 100
2, 109824, Note_on_c, 0, 89, 80
2, 109824, Note_on_c, 0, 87, 80
2, 109824, Note_on_c, 0, 81, 80
2, 110012, Note_off_c, 0, 89, 100
2, 110012, Note_off_c, 0, 87, 100
2, 110012, Note_off_c, 0, 81, 100
2, 110016, Note_on_c, 0, 89, 80
2, 110016, Note_on_c, 0, 87, 80
2, 110016, Note_on_c, 0, 81, 80
2, 110204, Note_off_c, 0, 89, 100
2, 110204, Note_off_c, 0, 87, 100
2, 110204, Note_off_c, 0, 81, 100
2, 110208, Note_on_c, 0, 89, 80
2, 110208, Note_on_c, 0, 87, 80
2, 110208, Note_on_c, 0, 81, 80
2, 110396, Note_off_c, 0, 89, 100
2, 110396, Note_off_c, 0, 87, 100
2, 110396, Note_off_c, 0, 81, 100
2, 110400, Note_on_c, 0, 89, 80
2, 110400, Note_on_c, 0, 87, 80
2, 110400, Note_on_c, 0, 81, 80
2, 110588, Note_off_c, 0, 89, 100
2, 110588, Note_off_c, 0, 87, 100
2, 110588, Note_off_c, 0, 81, 100
2, 110976, Note_on_c, 0, 92, 91
2, 110976, Note_on_c, 0, 80, 91
2, 111548, Note_off_c, 0, 92, 100
2, 111548, Note_off_c, 0, 80, 100
2, 111552, Note_on_c, 0, 91, 93
2, 111552, Note_on_c, 0, 79, 93
2, 111740, Note_off_c, 0, 91, 100
2, 111740, Note_off_c, 0, 79, 100
2, 112128, Note_on_c, 0, 78, 95
2, 112128, Note_on_c, 0, 90, 95
2, 112700, Note_off_c, 0, 78, 100
2, 112700, Note_off_c, 0, 90, 100
2, 112704, Note_on_c, 0, 89, 96
2, 112704, Note_on_c, 0, 77, 96
2, 112892, Note_off_c, 0, 89, 100
2, 112892, Note_off_c, 0, 77, 100
2, 113280, Note_on_c, 0, 80, 98
2, 113280, Note_on_c, 0, 68, 98
2, 113852, Note_off_c, 0, 80, 100
2, 113852, Note_off_c, 0, 68, 100
2, 113856, Note_on_c, 0, 79, 100
2, 113856, Note_on_c, 0, 67, 100
2, 114044, Note_off_c, 0, 79, 100
2, 114044, Note_off_c, 0, 67, 100
2, 114432, Note_on_c, 0, 66, 102
2, 114432, Note_on_c, 0, 78, 102
2, 115004, Note_off_c, 0, 66, 100
2, 115004, Note_off_c, 0, 78, 100
2, 115008, Note_on_c, 0, 77, 104
2, 115008, Note_on_c, 0, 65, 104
2, 115196, Note_off_c, 0, 77, 100
2, 115196, Note_off_c, 0, 65, 100
2, 115392, Note_on_c, 0, 77, 105
2, 115392, Note_on_c, 0, 70, 105
2, 115392, Note_on_c, 0, 65, 105
2, 115580, Note_off_c, 0, 77, 100
2, 115580, Note_off_c, 0, 70, 100
2, 115580, Note_off_c, 0, 65, 100
2, 115584, Note_on_c, 0, 77, 106
2, 115584, Note_on_c, 0, 70, 106
2, 115584, Note_on_c, 0, 65, 106
2, 115772, Note_off_c, 0, 77, 100
2, 115772, Note_off_c, 0, 70, 100
2, 115772, Note_off_c, 0, 65, 100
2, 115968, Note_on_c, 0, 75, 107
2, 115968, Note_on_c, 0, 70, 107
2, 115968, Note_on_c, 0, 67, 107
2, 116156, Note_off_c, 0, 75, 100
2, 116156, Note_off_c, 0, 70, 100
2, 116156, Note_off_c, 0, 67, 100
2, 116160, Note_on_c, 0, 74, 108
2, 116160, Note_on_c, 0, 70, 108
2, 116160, Note_on_c, 0, 67, 108
2, 116348, Note_off_c, 0, 74, 100
2, 116348, Note_off_c, 0, 70, 100
2, 116348, Note_off_c, 0, 67, 100
2, 116544, Note_on_c, 0, 74, 109
2, 116544, Note_on_c, 0, 67, 109
2, 116544, Note_on_c, 0, 63, 109
2, 116732, Note_off_c, 0, 74, 100
2, 116732, Note_off_c, 0, 67, 100
2, 116732, Note_off_c, 0, 63, 100
2, 116736, Note_on_c, 0, 72, 110
2, 116736, Note_on_c, 0, 67, 110
2, 116736, Note_on_c, 0, 63, 110
2, 116924, Note_off_c, 0, 72, 100
2, 116924, Note_off_c, 0, 67, 100
2, 116924, Note_off_c, 0, 63, 100
2, 117120, Note_on_c, 0, 70, 111
2, 117120, Note_on_c, 0, 63, 111
2, 117120, Note_on_c, 0, 60, 111
2, 117308, Note_off_c, 0, 70, 100
2, 117308, Note_off_c, 0, 63, 100
2, 117308, Note_off_c, 0, 60, 100
2, 117312, Note_on_c, 0, 69, 112
2, 117312, Note_on_c, 0, 63, 112
2, 117312, Note_on_c, 0, 60, 112
2, 117500, Note_off_c, 0, 69, 100
2, 117500, Note_off_c, 0, 63, 100
2, 117500, Note_off_c, 0, 60, 100
2, 117696, Note_on_c, 0, 65, 113
2, 117696, Note_on_c, 0, 58, 113
2, 117696, Note_on_c, 0, 70, 113
2, 117884, Note_off_c, 0, 65, 100
2, 117884, Note_off_c, 0, 58, 100
2, 117884, Note_off_c, 0, 70, 100
2, 117888, Note_on_c, 0, 65, 113
2, 117888, Note_on_c, 0, 58, 113
2, 117888, Note_on_c, 0, 62, 113
2, 118076, Note_off_c, 0, 65, 100
2, 118076, Note_off_c, 0, 58, 100
2, 118076, Note_off_c, 0, 62, 100
2, 118272, Note_on_c, 0, 63, 115
2, 118272, Note_on_c, 0, 58, 115
2, 118272, Note_on_c, 0, 55, 115
2, 118460, Note_off_c, 0, 63, 100
2, 118460, Note_off_c, 0, 58, 100
2, 118460, Note_off_c, 0, 55, 100
2, 118464, Note_on_c, 0, 62, 115
2, 118464, Note_on_c, 0, 58, 115
2, 118464, Note_on_c, 0, 55, 115
2, 118652, Note_off_c, 0, 62, 100
2, 118652, Note_off_c, 0, 58, 100
2, 118652, Note_off_c, 0, 55, 100
2, 118848, Note_on_c, 0, 62, 117
2, 118848, Note_on_c, 0, 55, 117
2, 118848, Note_on_c, 0, 51, 117
2, 119036, Note_off_c, 0, 62, 100
2, 119036, Note_off_c, 0, 55, 100
2, 119036, Note_off_c, 0, 51, 100
2, 119040, Note_on_c, 0, 60, 117
2, 119040, Note_on_c, 0, 55, 117
2, 119040, Note_on_c, 0, 51, 117
2, 119228, Note_off_c, 0, 60, 100
2, 119228, Note_off_c, 0, 55, 100
2, 119228, Note_off_c, 0, 51, 100
2, 119424, Note_on_c, 0, 58, 119
2, 119424, Note_on_c, 0, 51, 119
2, 119424, Note_on_c, 0, 48, 119
2, 119612, Note_off_c, 0, 58, 100
2, 119612, Note_off_c, 0, 51, 100
2, 119612, Note_off_c, 0, 48, 100
2, 119616, Note_on_c, 0, 57, 119
2, 119616, Note_on_c, 0, 51, 119
2, 119616, Note_on_c, 0, 48, 119
2, 119804, Note_off_c, 0, 57, 100
2, 119804, Note_off_c, 0, 51, 100
2, 119804, Note_off_c, 0, 48, 100
2, 119808, Note_on_c, 0, 46, 120
2, 119904, Note_on_c, 0, 48, 120
2, 119998, Note_off_c, 0, 46, 100
2, 120000, Note_on_c, 0, 50, 120
2, 120094, Note_off_c, 0, 48, 100
2, 120096, Note_on_c, 0, 51, 120
2, 120188, Note_off_c, 0, 50, 100
2, 120192, Note_on_c, 0, 53, 120
2, 120256, Note_on_c, 0, 55, 120
2, 120284, Note_off_c, 0, 51, 100
2, 120314, Note_off_c, 0, 53, 100
2, 120320, Note_on_c, 0, 57, 120
2, 120378, Note_off_c, 0, 55, 100
2, 120384, Note_on_c, 0, 58, 120
2, 120442, Note_off_c, 0, 57, 100
2, 120448, Note_on_c, 0, 60, 120
2, 120504, Note_off_c, 0, 58, 100
2, 120512, Note_on_c, 0, 62, 120
2, 120570, Note_off_c, 0, 60, 100
2, 120576, Note_on_c, 0, 63, 120
2, 120634, Note_off_c, 0, 62, 100
2, 120640, Note_on_c, 0, 65, 120
2, 120698, Note_off_c, 0, 63, 100
2, 120704, Note_on_c, 0, 67, 120
2, 120760, Note_off_c, 0, 65, 100
2, 120768, Note_on_c, 0, 69, 120
2, 120826, Note_off_c, 0, 67, 100
2, 120864, Note_on_c, 0, 57, 120
2, 120956, Note_off_c, 0, 57, 100
2, 120958, Note_off_c, 0, 69, 100
2, 120960, Note_on_c, 0, 58, 120
2, 121056, Note_on_c, 0, 60, 120
2, 121144, Note_off_c, 0, 58, 100
2, 121152, Note_on_c, 0, 62, 120
2, 121246, Note_off_c, 0, 60, 100
2, 121248, Note_on_c, 0, 63, 120
2, 121340, Note_off_c, 0, 62, 100
2, 121344, Note_on_c, 0, 65, 120
2, 121408, Note_on_c, 0, 67, 120
2, 121438, Note_off_c, 0, 63, 100
2, 121464, Note_off_c, 0, 65, 100
2, 121472, Note_on_c, 0, 69, 120
2, 121530, Note_off_c, 0, 67, 100
2, 121536, Note_on_c, 0, 70, 120
2, 121594, Note_off_c, 0, 69, 100
2, 121600, Note_on_c, 0, 72, 120
2, 121656, Note_off_c, 0, 70, 100
2, 121664, Note_on_c, 0, 74, 120
2, 121720, Note_off_c, 0, 72, 100
2, 121728, Note_on_c, 0, 75, 120
2, 121786, Note_off_c, 0, 74, 100
2, 121792, Note_on_c, 0, 77, 120
2, 121848, Note_off_c, 0, 75, 100
2, 121856, Note_on_c, 0, 79, 120
2, 121914, Note_off_c, 0, 77, 100
2, 121920, Note_on_c, 0, 81, 120
2, 121978, Note_off_c, 0, 79, 100
2, 122016, Note_on_c, 0, 69, 120
2, 122108, Note_off_c, 0, 69, 100
2, 122110, Note_off_c, 0, 81, 100
2, 122112, Note_on_c, 0, 70, 120
2, 122208, Note_on_c, 0, 72, 120
2, 122296, Note_off_c, 0, 70, 100
2, 122304, Note_on_c, 0, 74, 120
2, 122392, Note_off_c, 0, 72, 100
2, 122400, Note_on_c, 0, 75, 120
2, 122490, Note_off_c, 0, 74, 100
2, 122496, Note_on_c, 0, 77, 120
2, 122560, Note_on_c, 0, 79, 120
2, 122586, Note_off_c, 0, 75, 100
2, 122616, Note_off_c, 0, 77, 100
2, 122624, Note_on_c, 0, 81, 120
2, 122682, Note_off_c, 0, 79, 100
2, 122688, Note_on_c, 0, 82, 120
2, 122746, Note_off_c, 0, 81, 100
2, 122784, Note_on_c, 0, 84, 120
2, 122876, Note_off_c, 0, 82, 100
2, 122880, Note_on_c, 0, 86, 120
2, 122944, Note_on_c, 0, 87, 120
2, 122966, Note_off_c, 0, 84, 100
2, 123000, Note_off_c, 0, 86, 100
2, 123008, Note_on_c, 0, 89, 120
2, 123064, Note_off_c, 0, 87, 100
2, 123072, Note_on_c, 0, 91, 120
2, 123130, Note_off_c, 0, 89, 100
2, 123136, Note_on_c, 0, 93, 120
2, 123194, Note_off_c, 0, 91, 100
2, 123200, Note_on_c, 0, 81, 120
2, 123258, Note_off_c, 0, 93, 100
2, 123260, Note_off_c, 0, 81, 100
2, 123264, Note_on_c, 0, 82, 120
2, 123264, Note_on_c, 0, 94, 120
2, 123644, Note_off_c, 0, 82, 100
2, 123644, Note_off_c, 0, 94, 100
2, 123840, Note_on_c, 0, 82, 120
2, 123840, Note_on_c, 0, 77, 120
2, 123840, Note_on_c, 0, 74, 120
2, 124220, Note_off_c, 0, 82, 100
2, 124220, Note_off_c, 0, 77, 100
2, 124220, Note_off_c, 0, 74, 100
2, 124416, Note_on_c, 0, 70, 120
2, 124416, Note_on_c, 0, 65, 120
2, 124416, Note_on_c, 0, 62, 120
2, 124796, Note_off_c, 0, 70, 100
2, 124796, Note_off_c, 0, 65, 100
2, 124796, Note_off_c, 0, 62, 100
2, 125376, Note_on_c, 0, 82, 80
2, 125564, Note_off_c, 0, 82, 100
2, 125568, Note_on_c, 0, 82, 80
2, 125756, Note_off_c, 0, 82, 100
2, 125760, Note_on_c, 0, 79, 80
2, 125948, Note_off_c, 0, 79, 100
2, 125952, Note_on_c, 0, 75, 80
2, 126140, Note_off_c, 0, 75, 100
2, 126144, Note_on_c, 0, 74, 80
2, 126332, Note_off_c, 0, 74, 100
2, 126336, Note_on_c, 0, 77, 80
2, 126524, Note_off_c, 0, 77, 100
2, 126528, Note_on_c, 0, 82, 80
2, 126716, Note_off_c, 0, 82, 100
2, 126720, Note_on_c, 0, 82, 80
2, 126908, Note_off_c, 0, 82, 100
2, 126912, Note_on_c, 0, 79, 81
2, 127100, Note_off_c, 0, 79, 100
2, 127104, Note_on_c, 0, 75, 83
2, 127292, Note_off_c, 0, 75, 100
2, 127296, Note_on_c, 0, 75, 85
2, 127484, Note_off_c, 0, 75, 100
2, 127488, Note_on_c, 0, 79, 87
2, 127676, Note_off_c, 0, 79, 100
2, 127680, Note_on_c, 0, 84, 89
2, 127868, Note_off_c, 0, 84, 100
2, 127872, Note_on_c, 0, 84, 90
2, 128060, Note_off_c, 0, 84, 100
2, 128064, Note_on_c, 0, 80, 92
2, 128252, Note_off_c, 0, 80, 100
2, 128256, Note_on_c, 0, 77, 94
2, 128444, Note_off_c, 0, 77, 100
2, 128448, Note_on_c, 0, 76, 96
2, 128636, Note_off_c, 0, 76, 100
2, 128640, Note_on_c, 0, 79, 98
2, 128828, Note_off_c, 0, 79, 100
2, 128832, Note_on_c, 0, 84, 99
2, 129020, Note_off_c, 0, 84, 100
2, 129024, Note_on_c, 0, 84, 100
2, 129212, Note_off_c, 0, 84, 100
2, 129216, Note_on_c, 0, 80, 97
2, 129404, Note_off_c, 0, 80, 100
2, 129408, Note_on_c, 0, 77, 93
2, 129596, Note_off_c, 0, 77, 100
2, 129600, Note_on_c, 0, 74, 89
2, 129788, Note_off_c, 0, 74, 100
2, 129792, Note_on_c, 0, 77, 85
2, 129980, Note_off_c, 0, 77, 100
2, 129984, Note_on_c, 0, 82, 81
2, 130172, Note_off_c, 0, 82, 100
2, 130176, Note_on_c, 0, 82, 80
2, 130364, Note_off_c, 0, 82, 100
2, 130368, Note_on_c, 0, 79, 80
2, 130556, Note_off_c, 0, 79, 100
2, 130560, Note_on_c, 0, 75, 80
2, 130748, Note_off_c, 0, 75, 100
2, 130752, Note_on_c, 0, 72, 80
2, 130940, Note_off_c, 0, 72, 100
2, 130944, Note_on_c, 0, 77, 80
2, 131132, Note_off_c, 0, 77, 100
2, 131136, Note_on_c, 0, 80, 80
2, 131324, Note_off_c, 0, 80, 100
2, 131328, Note_on_c, 0, 70, 80
2, 131516, Note_off_c, 0, 70, 100
2, 131520, Note_on_c, 0, 75, 80
2, 131708, Note_off_c, 0, 75, 100
2, 131712, Note_on_c, 0, 79, 80
2, 131900, Note_off_c, 0, 79, 100
2, 131904, Note_on_c, 0, 68, 80
2, 132092, Note_off_c, 0, 68, 100
2, 132096, Note_on_c, 0, 74, 80
2, 132284, Note_off_c, 0, 74, 100
2, 132288, Note_on_c, 0, 77, 80
2, 132288, Note_on_c, 0, 68, 80
2, 132476, Note_off_c, 0, 77, 100
2, 132476, Note_off_c, 0, 68, 100
2, 132480, Note_on_c, 0, 75, 80
2, 132480, Note_on_c, 0, 67, 80
2, 132668, Note_off_c, 0, 75, 100
2, 132668, Note_off_c, 0, 67, 100
2, 132864, Note_on_c, 0, 79, 81
2, 133052, Note_off_c, 0, 79, 100
2, 133056, Note_on_c, 0, 80, 82
2, 133148, Note_off_c, 0, 80, 100
2, 133152, Note_on_c, 0, 79, 82
2, 133244, Note_off_c, 0, 79, 100
2, 133248, Note_on_c, 0, 80, 83
2, 133340, Note_off_c, 0, 80, 100
2, 133344, Note_on_c, 0, 77, 83
2, 133436, Note_off_c, 0, 77, 100
2, 133440, Note_on_c, 0, 82, 84
2, 133532, Note_off_c, 0, 82, 100
2, 133536, Note_on_c, 0, 80, 84
2, 133628, Note_off_c, 0, 80, 100
2, 133632, Note_on_c, 0, 79, 85
2, 133820, Note_off_c, 0, 79, 100
2, 133824, Note_on_c, 0, 94, 85
2, 134012, Note_off_c, 0, 94, 100
2, 134592, Note_on_c, 0, 67, 89
2, 134780, Note_off_c, 0, 67, 100
2, 135168, Note_on_c, 0, 68, 91
2, 135356, Note_off_c, 0, 68, 100
2, 135360, Note_on_c, 0, 70, 92
2, 135452, Note_off_c, 0, 70, 100
2, 135456, Note_on_c, 0, 68, 93
2, 135548, Note_off_c, 0, 68, 100
2, 135552, Note_on_c, 0, 70, 93
2, 135644, Note_off_c, 0, 70, 100
2, 135648, Note_on_c, 0, 67, 94
2, 135740, Note_off_c, 0, 67, 100
2, 135744, Note_on_c, 0, 72, 94
2, 135836, Note_off_c, 0, 72, 100
2, 135840, Note_on_c, 0, 70, 94
2, 135932, Note_off_c, 0, 70, 100
2, 135936, Note_on_c, 0, 68, 95
2, 136124, Note_off_c, 0, 68, 100
2, 136128, Note_on_c, 0, 84, 96
2, 136316, Note_off_c, 0, 84, 100
2, 136896, Note_on_c, 0, 77, 99
2, 137084, Note_off_c, 0, 77, 100
2, 137472, Note_on_c, 0, 79, 102
2, 137660, Note_off_c, 0, 79, 100
2, 137664, Note_on_c, 0, 80, 103
2, 137756, Note_off_c, 0, 80, 100
2, 137760, Note_on_c, 0, 79, 103
2, 137852, Note_off_c, 0, 79, 100
2, 137856, Note_on_c, 0, 80, 103
2, 137948, Note_off_c, 0, 80, 100
2, 137952, Note_on_c, 0, 77, 104
2, 138044, Note_off_c, 0, 77, 100
2, 138048, Note_on_c, 0, 92, 104
2, 138236, Note_off_c, 0, 92, 100
2, 138624, Note_on_c, 0, 75, 107
2, 138812, Note_off_c, 0, 75, 100
2, 138816, Note_on_c, 0, 77, 108
2, 138908, Note_off_c, 0, 77, 100
2, 138912, Note_on_c, 0, 75, 108
2, 139004, Note_off_c, 0, 75, 100
2, 139008, Note_on_c, 0, 77, 109
2, 139100, Note_off_c, 0, 77, 100
2, 139104, Note_on_c, 0, 74, 109
2, 139196, Note_off_c, 0, 74, 100
2, 139200, Note_on_c, 0, 89, 109
2, 139388, Note_off_c, 0, 89, 100
2, 139392, Note_on_c, 0, 67, 110
2, 139488, Note_on_c, 0, 79, 110
2, 139580, Note_off_c, 0, 67, 100
2, 139584, Note_on_c, 0, 67, 110
2, 139678, Note_off_c, 0, 79, 100
2, 139680, Note_on_c, 0, 79, 110
2, 139772, Note_off_c, 0, 67, 100
2, 139776, Note_on_c, 0, 70, 110
2, 139862, Note_off_c, 0, 79, 100
2, 139872, Note_on_c, 0, 82, 110
2, 139964, Note_off_c, 0, 70, 100
2, 139968, Note_on_c, 0, 70, 110
2, 140060, Note_off_c, 0, 82, 100
2, 140064, Note_on_c, 0, 82, 110
2, 140154, Note_off_c, 0, 70, 100
2, 140160, Note_on_c, 0, 70, 110
2, 140250, Note_off_c, 0, 82, 100
2, 140256, Note_on_c, 0, 82, 110
2, 140348, Note_off_c, 0, 70, 100
2, 140352, Note_on_c, 0, 68, 110
2, 140446, Note_off_c, 0, 82, 100
2, 140448, Note_on_c, 0, 80, 110
2, 140534, Note_off_c, 0, 68, 100
2, 140544, Note_on_c, 0, 67, 110
2, 140638, Note_off_c, 0, 80, 100
2, 140640, Note_on_c, 0, 79, 110
2, 140728, Note_off_c, 0, 67, 100
2, 140736, Note_on_c, 0, 67, 110
2, 140828, Note_off_c, 0, 79, 100
2, 140832, Note_on_c, 0, 79, 110
2, 140926, Note_off_c, 0, 67, 100
2, 140928, Note_on_c, 0, 70, 110
2, 141018, Note_off_c, 0, 79, 100
2, 141024, Note_on_c, 0, 82, 110
2, 141116, Note_off_c, 0, 70, 100
2, 141120, Note_on_c, 0, 70, 110
2, 141214, Note_off_c, 0, 82, 100
2, 141216, Note_on_c, 0, 82, 110
2, 141310, Note_off_c, 0, 70, 100
2, 141312, Note_on_c, 0, 70, 110
2, 141402, Note_off_c, 0, 82, 100
2, 141408, Note_on_c, 0, 82, 110
2, 141502, Note_off_c, 0, 70, 100
2, 141504, Note_on_c, 0, 67, 110
2, 141592, Note_off_c, 0, 82, 100
2, 141600, Note_on_c, 0, 79, 110
2, 141692, Note_off_c, 0, 67, 100
2, 141696, Note_on_c, 0, 68, 110
2, 141786, Note_off_c, 0, 79, 100
2, 141792, Note_on_c, 0, 80, 110
2, 141882, Note_off_c, 0, 68, 100
2, 141888, Note_on_c, 0, 68, 110
2, 141972, Note_off_c, 0, 80, 100
2, 141984, Note_on_c, 0, 80, 110
2, 142074, Note_off_c, 0, 68, 100
2, 142080, Note_on_c, 0, 72, 110
2, 142172, Note_off_c, 0, 80, 100
2, 142176, Note_on_c, 0, 84, 110
2, 142268, Note_off_c, 0, 72, 100
2, 142272, Note_on_c, 0, 72, 110
2, 142366, Note_off_c, 0, 84, 100
2, 142368, Note_on_c, 0, 84, 110
2, 142460, Note_off_c, 0, 72, 100
2, 142464, Note_on_c, 0, 72, 110
2, 142558, Note_off_c, 0, 84, 100
2, 142560, Note_on_c, 0, 84, 110
2, 142652, Note_off_c, 0, 72, 100
2, 142656, Note_on_c, 0, 70, 110
2, 142748, Note_off_c, 0, 84, 100
2, 142752, Note_on_c, 0, 82, 110
2, 142846, Note_off_c, 0, 70, 100
2, 142848, Note_on_c, 0, 68, 110
2, 142940, Note_off_c, 0, 82, 100
2, 142944, Note_on_c, 0, 80, 110
2, 143038, Note_off_c, 0, 68, 100
2, 143040, Note_on_c, 0, 68, 110
2, 143132, Note_off_c, 0, 80, 100
2, 143136, Note_on_c, 0, 80, 110
2, 143230, Note_off_c, 0, 68, 100
2, 143232, Note_on_c, 0, 72, 110
2, 143322, Note_off_c, 0, 80, 100
2, 143328, Note_on_c, 0, 84, 110
2, 143416, Note_off_c, 0, 72, 100
2, 143424, Note_on_c, 0, 72, 110
2, 143514, Note_off_c, 0, 84, 100
2, 143520, Note_on_c, 0, 84, 110
2, 143614, Note_off_c, 0, 72, 100
2, 143616, Note_on_c, 0, 70, 110
2, 143710, Note_off_c, 0, 84, 100
2, 143712, Note_on_c, 0, 82, 110
2, 143806, Note_off_c, 0, 70, 100
2, 143808, Note_on_c, 0, 68, 110
2, 143900, Note_off_c, 0, 82, 100
2, 143904, Note_on_c, 0, 80, 110
2, 143998, Note_off_c, 0, 68, 100
2, 144000, Note_on_c, 0, 67, 110
2, 144092, Note_off_c, 0, 80, 100
2, 144096, Note_on_c, 0, 79, 110
2, 144186, Note_off_c, 0, 67, 100
2, 144192, Note_on_c, 0, 70, 110
2, 144284, Note_off_c, 0, 79, 100
2, 144288, Note_on_c, 0, 82, 110
2, 144376, Note_off_c, 0, 70, 100
2, 144384, Note_on_c, 0, 75, 110
2, 144472, Note_off_c, 0, 82, 100
2, 144480, Note_on_c, 0, 87, 110
2, 144564, Note_off_c, 0, 75, 100
2, 144576, Note_on_c, 0, 75, 110
2, 144670, Note_off_c, 0, 87, 100
2, 144672, Note_on_c, 0, 87, 110
2, 144766, Note_off_c, 0, 75, 100
2, 144768, Note_on_c, 0, 72, 110
2, 144860, Note_off_c, 0, 87, 100
2, 144864, Note_on_c, 0, 84, 110
2, 144956, Note_off_c, 0, 72, 100
2, 144960, Note_on_c, 0, 68, 110
2, 145050, Note_off_c, 0, 84, 100
2, 145056, Note_on_c, 0, 80, 110
2, 145148, Note_off_c, 0, 68, 100
2, 145152, Note_on_c, 0, 75, 110
2, 145238, Note_off_c, 0, 80, 100
2, 145248, Note_on_c, 0, 87, 110
2, 145336, Note_off_c, 0, 75, 100
2, 145344, Note_on_c, 0, 70, 110
2, 145436, Note_off_c, 0, 87, 100
2, 145440, Note_on_c, 0, 82, 110
2, 145528, Note_off_c, 0, 70, 100
2, 145536, Note_on_c, 0, 67, 110
2, 145628, Note_off_c, 0, 82, 100
2, 145632, Note_on_c, 0, 79, 110
2, 145726, Note_off_c, 0, 67, 100
2, 145728, Note_on_c, 0, 70, 110
2, 145822, Note_off_c, 0, 79, 100
2, 145824, Note_on_c, 0, 82, 110
2, 145918, Note_off_c, 0, 70, 100
2, 145920, Note_on_c, 0, 68, 110
2, 146012, Note_off_c, 0, 82, 100
2, 146016, Note_on_c, 0, 80, 110
2, 146108, Note_off_c, 0, 68, 100
2, 146112, Note_on_c, 0, 65, 110
2, 146206, Note_off_c, 0, 80, 100
2, 146208, Note_on_c, 0, 77, 110
2, 146298, Note_off_c, 0, 65, 100
2, 146300, Note_off_c, 0, 77, 100
2, 146304, Control_c, 0, 64, 127
2, 146304, Note_on_c, 0, 55, 120
2, 146396, Note_off_c, 0, 55, 100
2, 146400, Note_on_c, 0, 63, 120
2, 146492, Note_off_c, 0, 63, 100
2, 146496, Note_on_c, 0, 58, 120
2, 146588, Note_off_c, 0, 58, 100
2, 146592, Note_on_c, 0, 67, 120
2, 146684, Note_off_c, 0, 67, 100
2, 146688, Note_on_c, 0, 63, 120
2, 146780, Note_off_c, 0, 63, 100
2, 146784, Note_on_c, 0, 70, 120
2, 146876, Note_off_c, 0, 70, 100
2, 146880, Note_on_c, 0, 67, 120
2, 146972, Note_off_c, 0, 67, 100
2, 146976, Note_on_c, 0, 75, 120
2, 147068, Note_off_c, 0, 75, 100
2, 147072, Note_on_c, 0, 70, 120
2, 147164, Note_off_c, 0, 70, 100
2, 147168, Note_on_c, 0, 79, 120
2, 147260, Note_off_c, 0, 79, 100
2, 147264, Note_on_c, 0, 75, 120
2, 147356, Note_off_c, 0, 75, 100
2, 147360, Note_on_c, 0, 82, 120
2, 147452, Note_off_c, 0, 82, 100
2, 147456, Note_on_c, 0, 79, 120
2, 147548, Note_off_c, 0, 79, 100
2, 147552, Note_on_c, 0, 87, 120
2, 147644, Note_off_c, 0, 87, 100
2, 147648, Note_on_c, 0, 82, 120
2, 147740, Note_off_c, 0, 82, 100
2, 147744, Note_on_c, 0, 91, 120
2, 147836, Note_off_c, 0, 91, 100
2, 147840, Note_on_c, 0, 87, 120
2, 147932, Note_off_c, 0, 87, 100
2, 147936, Note_on_c, 0, 94, 120
2, 148028, Note_off_c, 0, 94, 100
2, 148028, Control_c, 0, 64, 0
2, 148032, Note_on_c, 0, 93, 120
2, 148124, Note_off_c, 0, 93, 100
2, 148128, Note_on_c, 0, 94, 120
2, 148220, Note_off_c, 0, 94, 100
2, 148224, Note_on_c, 0, 93, 120
2, 148316, Note_off_c, 0, 93, 100
2, 148320, Note_on_c, 0, 94, 120
2, 148412, Note_off_c, 0, 94, 100
2, 148416, Note_on_c, 0, 93, 120
2, 148508, Note_off_c, 0, 93, 100
2, 148512, Note_on_c, 0, 94, 120
2, 148604, Note_off_c, 0, 94, 100
2, 148608, Note_on_c, 0, 96, 120
2, 148700, Note_off_c, 0, 96, 100
2, 148704, Note_on_c, 0, 94, 120
2, 148796, Note_off_c, 0, 94, 100
2, 148800, Note_on_c, 0, 92, 120
2, 148892, Note_off_c, 0, 92, 100
2, 148896, Note_on_c, 0, 91, 120
2, 148988, Note_off_c, 0, 91, 100
2, 148992, Note_on_c, 0, 89, 120
2, 149084, Note_off_c, 0, 89, 100
2, 149088, Note_on_c, 0, 87, 120
2, 149180, Note_off_c, 0, 87, 100
2, 149184, Note_on_c, 0, 86, 120
2, 149276, Note_off_c, 0, 86, 100
2, 149280, Note_on_c, 0, 84, 120
2, 149372, Note_off_c, 0, 84, 100
2, 149376, Note_on_c, 0, 82, 120
2, 149468, Note_off_c, 0, 82, 100
2, 149472, Note_on_c, 0, 80, 120
2, 149564, Note_off_c, 0, 80, 100
2, 149568, Note_on_c, 0, 79, 120
2, 149660, Note_off_c, 0, 79, 100
2, 149664, Note_on_c, 0, 77, 120
2, 149756, Note_off_c, 0, 77, 100
2, 149760, Note_on_c, 0, 75, 120
2, 149852, Note_off_c, 0, 75, 100
2, 149856, Note_on_c, 0, 74, 120
2, 149948, Note_off_c, 0, 74, 100
2, 149952, Note_on_c, 0, 72, 120
2, 150044, Note_off_c, 0, 72, 100
2, 150048, Note_on_c, 0, 70, 120
2, 150140, Note_off_c, 0, 70, 100
2, 150144, Note_on_c, 0, 68, 120
2, 150236, Note_off_c, 0, 68, 100
2, 150240, Note_on_c, 0, 67, 120
2, 150332, Note_off_c, 0, 67, 100
2, 150336, Note_on_c, 0, 65, 120
2, 150428, Note_off_c, 0, 65, 100
2, 150432, Note_on_c, 0, 63, 120
2, 150524, Note_off_c, 0, 63, 100
2, 150528, Note_on_c, 0, 62, 120
2, 150620, Note_off_c, 0, 62, 100
2, 150624, Note_on_c, 0, 65, 120
2, 150716, Note_off_c, 0, 65, 100
2, 150720, Note_on_c, 0, 68, 120
2, 150812, Note_off_c, 0, 68, 100
2, 150816, Note_on_c, 0, 62, 120
2, 150908, Note_off_c, 0, 62, 100
2, 150912, Control_c, 0, 64, 127
2, 150912, Note_on_c, 0, 55, 120
2, 151004, Note_off_c, 0, 55, 100
2, 151008, Note_on_c, 0, 63, 120
2, 151100, Note_off_c, 0, 63, 100
2, 151104, Note_on_c, 0, 58, 120
2, 151196, Note_off_c, 0, 58, 100
2, 151200, Note_on_c, 0, 67, 120
2, 151292, Note_off_c, 0, 67, 100
2, 151296, Note_on_c, 0, 63, 120
2, 151388, Note_off_c, 0, 63, 100
2, 151392, Note_on_c, 0, 70, 120
2, 151484, Note_off_c, 0, 70, 100
2, 151488, Note_on_c, 0, 67, 120
2, 151580, Note_off_c, 0, 67, 100
2, 151584, Note_on_c, 0, 75, 120
2, 151676, Note_off_c, 0, 75, 100
2, 151680, Note_on_c, 0, 70, 120
2, 151772, Note_off_c, 0, 70, 100
2, 151776, Note_on_c, 0, 79, 120
2, 151868, Note_off_c, 0, 79, 100
2, 151872, Note_on_c, 0, 75, 120
2, 151964, Note_off_c, 0, 75, 100
2, 151968, Note_on_c, 0, 82, 120
2, 152060, Note_off_c, 0, 82, 100
2, 152064, Note_on_c, 0, 79, 120
2, 152156, Note_off_c, 0, 79, 100
2, 152160, Note_on_c, 0, 87, 120
2, 152252, Note_off_c, 0, 87, 100
2, 152256, Note_on_c, 0, 82, 120
2, 152348, Note_off_c, 0, 82, 100
2, 152352, Note_on_c, 0, 91, 120
2, 152444, Note_off_c, 0, 91, 100
2, 152448, Note_on_c, 0, 87, 120
2, 152540, Note_off_c, 0, 87, 100
2, 152544, Note_on_c, 0, 94, 120
2, 152636, Note_off_c, 0, 94, 100
2, 152636, Control_c, 0, 64, 0
2, 152640, Note_on_c, 0, 93, 120
2, 152732, Note_off_c, 0, 93, 100
2, 152736, Note_on_c, 0, 94, 120
2, 152828, Note_off_c, 0, 94, 100
2, 152832, Note_on_c, 0, 93, 120
2, 152924, Note_off_c, 0, 93, 100
2, 152928, Note_on_c, 0, 94, 120
2, 153020, Note_off_c, 0, 94, 100
2, 153024, Note_on_c, 0, 93, 120
2, 153116, Note_off_c, 0, 93, 100
2, 153120, Note_on_c, 0, 94, 120
2, 153212, Note_off_c, 0, 94, 100
2, 153216, Note_on_c, 0, 96, 120
2, 153308, Note_off_c, 0, 96, 100
2, 153312, Note_on_c, 0, 94, 120
2, 153404, Note_off_c, 0, 94, 100
2, 153408, Note_on_c, 0, 92, 120
2, 153500, Note_off_c, 0, 92, 100
2, 153504, Note_on_c, 0, 91, 120
2, 153596, Note_off_c, 0, 91, 100
2, 153600, Note_on_c, 0, 89, 120
2, 153692, Note_off_c, 0, 89, 100
2, 153696, Note_on_c, 0, 87, 120
2, 153788, Note_off_c, 0, 87, 100
2, 153792, Note_on_c, 0, 86, 120
2, 153884, Note_off_c, 0, 86, 100
2, 153888, Note_on_c, 0, 84, 120
2, 153980, Note_off_c, 0, 84, 100
2, 153984, Note_on_c, 0, 82, 120
2, 154076, Note_off_c, 0, 82, 100
2, 154080, Note_on_c, 0, 80, 120
2, 154172, Note_off_c, 0, 80, 100
2, 154176, Note_on_c, 0, 79, 120
2, 154268, Note_off_c, 0, 79, 100
2, 154272, Note_on_c, 0, 77, 120
2, 154364, Note_off_c, 0, 77, 100
2, 154368, Note_on_c, 0, 75, 120
2, 154428, Note_off_c, 0, 75, 100
2, 154432, Note_on_c, 0, 74, 120
2, 154492, Note_off_c, 0, 74, 100
2, 154496, Note_on_c, 0, 72, 120
2, 154556, Note_off_c, 0, 72, 100
2, 154560, Note_on_c, 0, 70, 120
2, 154620, Note_off_c, 0, 70, 100
2, 154624, Note_on_c, 0, 68, 120
2, 154684, Note_off_c, 0, 68, 100
2, 154688, Note_on_c, 0, 67, 120
2, 154748, Note_off_c, 0, 67, 100
2, 154752, Note_on_c, 0, 65, 120
2, 154812, Note_off_c, 0, 65, 100
2, 154816, Note_on_c, 0, 63, 120
2, 154876, Note_off_c, 0, 63, 100
2, 154880, Note_on_c, 0, 62, 120
2, 154940, Note_off_c, 0, 62, 100
2, 154944, Note_on_c, 0, 60, 120
2, 155036, Note_off_c, 0, 60, 100
2, 155040, Note_on_c, 0, 58, 120
2, 155132, Note_off_c, 0, 58, 100
2, 155136, Note_on_c, 0, 57, 120
2, 155228, Note_off_c, 0, 57, 100
2, 155232, Note_on_c, 0, 60, 120
2, 155324, Note_off_c, 0, 60, 100
2, 155328, Note_on_c, 0, 63, 120
2, 155420, Note_off_c, 0, 63, 100
2, 155424, Note_on_c, 0, 57, 120
2, 155516, Note_off_c, 0, 57, 100
2, 155520, Control_c, 0, 64, 127
2, 155520, Note_on_c, 0, 58, 120
2, 156096, Note_on_c, 0, 70, 120
2, 156668, Note_off_c, 0, 58, 100
2, 156672, Note_on_c, 0, 73, 120
2, 157244, Note_off_c, 0, 70, 64
2, 157248, Note_on_c, 0, 78, 120
2, 157820, Note_off_c, 0, 73, 100
2, 157824, Note_on_c, 0, 73, 120
2, 158396, Note_off_c, 0, 78, 64
2, 158400, Note_on_c, 0, 70, 120
2, 158972, Note_off_c, 0, 73, 100
2, 158976, Note_on_c, 0, 66, 120
2, 159548, Note_off_c, 0, 70, 64
2, 159552, Note_on_c, 0, 61, 120
2, 160124, Note_off_c, 0, 66, 100
2, 160124, Note_off_c, 0, 61, 100
2, 160124, Control_c, 0, 64, 0
2, 160128, Control_c, 0, 64, 127
2, 160128, Note_on_c, 0, 57, 120
2, 160704, Note_on_c, 0, 69, 120
2, 161276, Note_off_c, 0, 57, 100
2, 161280, Note_on_c, 0, 72, 120
2, 161852, Note_off_c, 0, 69, 64
2, 161856, Note_on_c, 0, 77, 120
2, 162428, Note_off_c, 0, 72, 100
2, 162432, Note_on_c, 0, 72, 120
2, 163004, Note_off_c, 0, 77, 64
2, 163008, Note_on_c, 0, 69, 120
2, 163580, Note_off_c, 0, 72, 100
2, 163584, Note_on_c, 0, 65, 120
2, 164156, Note_off_c, 0, 69, 64
2, 164160, Note_on_c, 0, 60, 120
2, 164732, Note_off_c, 0, 65, 100
2, 164732, Note_off_c, 0, 60, 100
2, 164732, Control_c, 0, 64, 0
2, 164736, Note_on_c, 0, 73, 80
2, 164924, Note_off_c, 0, 73, 100
2, 165120, Note_on_c, 0, 84, 80
2, 165164, Note_off_c, 0, 84, 100
2, 165168, Note_on_c, 0, 82, 80
2, 165212, Note_off_c, 0, 82, 100
2, 165216, Note_on_c, 0, 81, 80
2, 165308, Note_off_c, 0, 81, 100
2, 165312, Note_on_c, 0, 82, 80
2, 165500, Note_off_c, 0, 82, 100
2, 165696, Note_on_c, 0, 87, 80
2, 165740, Note_off_c, 0, 87, 100
2, 165744, Note_on_c, 0, 85, 80
2, 165788, Note_off_c, 0, 85, 100
2, 165792, Note_on_c, 0, 84, 80
2, 165884, Note_off_c, 0, 84, 100
2, 165888, Note_on_c, 0, 85, 80
2, 166076, Note_off_c, 0, 85, 100
2, 166272, Note_on_c, 0, 92, 80
2, 166316, Note_off_c, 0, 92, 100
2, 166320, Note_on_c, 0, 90, 80
2, 166364, Note_off_c, 0, 90, 100
2, 166368, Note_on_c, 0, 89, 80
2, 166460, Note_off_c, 0, 89, 100
2, 166464, Note_on_c, 0, 90, 80
2, 166652, Note_off_c, 0, 90, 100
2, 166848, Note_on_c, 0, 87, 80
2, 166892, Note_off_c, 0, 87, 100
2, 166896, Note_on_c, 0, 85, 80
2, 166940, Note_off_c, 0, 85, 100
2, 166944, Note_on_c, 0, 84, 80
2, 167036, Note_off_c, 0, 84, 100
2, 167040, Note_on_c, 0, 85, 80
2, 167228, Note_off_c, 0, 85, 100
2, 167424, Note_on_c, 0, 84, 80
2, 167468, Note_off_c, 0, 84, 100
2, 167472, Note_on_c, 0, 82, 80
2, 167516, Note_off_c, 0, 82, 100
2, 167520, Note_on_c, 0, 81, 80
2, 167612, Note_off_c, 0, 81, 100
2, 167616, Note_on_c, 0, 82, 80
2, 167804, Note_off_c, 0, 82, 100
2, 168000, Note_on_c, 0, 80, 80
2, 168044, Note_off_c, 0, 80, 100
2, 168048, Note_on_c, 0, 78, 80
2, 168092, Note_off_c, 0, 78, 100
2, 168096, Note_on_c, 0, 77, 80
2, 168188, Note_off_c, 0, 77, 100
2, 168192, Note_on_c, 0, 78, 80
2, 168380, Note_off_c, 0, 78, 100
2, 168576, Note_on_c, 0, 75, 80
2, 168620, Note_off_c, 0, 75, 100
2, 168624, Note_on_c, 0, 73, 80
2, 168668, Note_off_c, 0, 73, 100
2, 168672, Note_on_c, 0, 72, 80
2, 168764, Note_off_c, 0, 72, 100
2, 168768, Note_on_c, 0, 73, 80
2, 169148, Note_off_c, 0, 73, 100
2, 169344, Note_on_c, 0, 72, 80
2, 169532, Note_off_c, 0, 72, 100
2, 169728, Note_on_c, 0, 82, 80
2, 169772, Note_off_c, 0, 82, 100
2, 169776, Note_on_c, 0, 81, 80
2, 169820, Note_off_c, 0, 81, 100
2, 169824, Note_on_c, 0, 79, 80
2, 169916, Note_off_c, 0, 79, 100
2, 169920, Note_on_c, 0, 81, 80
2, 170108, Note_off_c, 0, 81, 100
2, 170304, Note_on_c, 0, 85, 80
2, 170348, Note_off_c, 0, 85, 100
2, 170352, Note_on_c, 0, 84, 80
2, 170396, Note_off_c, 0, 84, 100
2, 170400, Note_on_c, 0, 83, 80
2, 170492, Note_off_c, 0, 83, 100
2, 170496, Note_on_c, 0, 84, 80
2, 170684, Note_off_c, 0, 84, 100
2, 170880, Note_on_c, 0, 90, 80
2, 170924, Note_off_c, 0, 90, 100
2, 170928, Note_on_c, 0, 89, 80
2, 170972, Note_off_c, 0, 89, 100
2, 170976, Note_on_c, 0, 88, 80
2, 171068, Note_off_c, 0, 88, 100
2, 171072, Note_on_c, 0, 89, 80
2, 171260, Note_off_c, 0, 89, 100
2, 171456, Note_on_c, 0, 85, 80
2, 171500, Note_off_c, 0, 85, 100
2, 171504, Note_on_c, 0, 84, 80
2, 171548, Note_off_c, 0, 84, 100
2, 171552, Note_on_c, 0, 83, 80
2, 171644, Note_off_c, 0, 83, 100
2, 171648, Note_on_c, 0, 84, 80
2, 171836, Note_off_c, 0, 84, 100
2, 172032, Note_on_c, 0, 82, 80
2, 172076, Note_off_c, 0, 82, 100
2, 172080, Note_on_c, 0, 81, 80
2, 172124, Note_off_c, 0, 81, 100
2, 172128, Note_on_c, 0, 79, 80
2, 172220, Note_off_c, 0, 79, 100
2, 172224, Note_on_c, 0, 81, 80
2, 172412, Note_off_c, 0, 81, 100
2, 172608, Note_on_c, 0, 78, 80
2, 172652, Note_off_c, 0, 78, 100
2, 172656, Note_on_c, 0, 77, 80
2, 172700, Note_off_c, 0, 77, 100
2, 172704, Note_on_c, 0, 76, 80
2, 172796, Note_off_c, 0, 76, 100
2, 172800, Note_on_c, 0, 77, 80
2, 172988, Note_off_c, 0, 77, 100
2, 173184, Note_on_c, 0, 73, 80
2, 173228, Note_off_c, 0, 73, 100
2, 173232, Note_on_c, 0, 72, 80
2, 173276, Note_off_c, 0, 72, 100
2, 173280, Note_on_c, 0, 71, 80
2, 173372, Note_off_c, 0, 71, 100
2, 173376, Note_on_c, 0, 72, 80
2, 173564, Note_off_c, 0, 72, 100
2, 173760, Note_on_c, 0, 73, 80
2, 173948, Note_off_c, 0, 73, 100
2, 173952, Note_on_c, 0, 74, 90
2, 173952, Note_on_c, 0, 65, 80
2, 174048, Note_on_c, 0, 67, 80
2, 174134, Note_off_c, 0, 65, 100
2, 174144, Note_on_c, 0, 65, 80
2, 174238, Note_off_c, 0, 67, 100
2, 174240, Note_on_c, 0, 67, 80
2, 174326, Note_off_c, 0, 65, 100
2, 174336, Note_on_c, 0, 65, 80
2, 174426, Note_off_c, 0, 67, 100
2, 174432, Note_on_c, 0, 67, 80
2, 174524, Note_off_c, 0, 74, 100
2, 174526, Note_off_c, 0, 65, 100
2, 174528, Note_on_c, 0, 70, 90
2, 174528, Note_on_c, 0, 65, 80
2, 174616, Note_off_c, 0, 67, 100
2, 174624, Note_on_c, 0, 67, 80
2, 174714, Note_off_c, 0, 65, 100
2, 174720, Note_on_c, 0, 65, 80
2, 174814, Note_off_c, 0, 67, 100
2, 174816, Note_on_c, 0, 67, 80
2, 174910, Note_off_c, 0, 65, 100
2, 174912, Note_on_c, 0, 65, 80
2, 175004, Note_off_c, 0, 67, 100
2, 175008, Note_on_c, 0, 67, 80
2, 175100, Note_off_c, 0, 70, 100
2, 175100, Note_off_c, 0, 67, 100
2, 175102, Note_off_c, 0, 65, 100
2, 175104, Note_on_c, 0, 65, 80
2, 175104, Note_on_c, 0, 69, 92
2, 175200, Note_on_c, 0, 67, 80
2, 175286, Note_off_c, 0, 65, 100
2, 175296, Note_on_c, 0, 65, 80
2, 175390, Note_off_c, 0, 67, 100
2, 175392, Note_on_c, 0, 67, 80
2, 175478, Note_off_c, 0, 65, 100
2, 175488, Note_on_c, 0, 65, 80
2, 175578, Note_off_c, 0, 67, 100
2, 175584, Note_on_c, 0, 67, 80
2, 175676, Note_off_c, 0, 69, 100
2, 175678, Note_off_c, 0, 65, 100
2, 175680, Note_on_c, 0, 65, 80
2, 175680, Note_on_c, 0, 75, 95
2, 175768, Note_off_c, 0, 67, 100
2, 175776, Note_on_c, 0, 67, 80
2, 175866, Note_off_c, 0, 65, 100
2, 175872, Note_on_c, 0, 65, 80
2, 175966, Note_off_c, 0, 67, 100
2, 175968, Note_on_c, 0, 67, 80
2, 176062, Note_off_c, 0, 65, 100
2, 176064, Note_on_c, 0, 65, 80
2, 176156, Note_off_c, 0, 67, 100
2, 176160, Note_on_c, 0, 67, 80
2, 176252, Note_off_c, 0, 75, 100
2, 176252, Note_off_c, 0, 67, 100
2, 176254, Note_off_c, 0, 65, 100
2, 176256, Note_on_c, 0, 65, 80
2, 176256, Note_on_c, 0, 74, 91
2, 176352, Note_on_c, 0, 67, 80
2, 176438, Note_off_c, 0, 65, 100
2, 176448, Note_on_c, 0, 65, 80
2, 176542, Note_off_c, 0, 67, 100
2, 176544, Note_on_c, 0, 67, 80
2, 176630, Note_off_c, 0, 65, 100
2, 176640, Note_on_c, 0, 65, 80
2, 176730, Note_off_c, 0, 67, 100
2, 176736, Note_on_c, 0, 67, 80
2, 176828, Note_off_c, 0, 74, 100
2, 176830, Note_off_c, 0, 65, 100
2, 176832, Note_on_c, 0, 65, 80
2, 176832, Note_on_c, 0, 70, 94
2, 176920, Note_off_c, 0, 67, 100
2, 176928, Note_on_c, 0, 67, 80
2, 177018, Note_off_c, 0, 65, 100
2, 177024, Note_on_c, 0, 65, 80
2, 177118, Note_off_c, 0, 67, 100
2, 177120, Note_on_c, 0, 67, 80
2, 177214, Note_off_c, 0, 65, 100
2, 177216, Note_on_c, 0, 65, 80
2, 177308, Note_off_c, 0, 67, 100
2, 177312, Note_on_c, 0, 67, 80
2, 177404, Note_off_c, 0, 70, 100
2, 177404, Note_off_c, 0, 67, 100
2, 177406, Note_off_c, 0, 65, 100
2, 177408, Note_on_c, 0, 65, 80
2, 177408, Note_on_c, 0, 69, 93
2, 177504, Note_on_c, 0, 67, 80
2, 177590, Note_off_c, 0, 65, 100
2, 177600, Note_on_c, 0, 65, 80
2, 177694, Note_off_c, 0, 67, 100
2, 177696, Note_on_c, 0, 67, 80
2, 177782, Note_off_c, 0, 65, 100
2, 177792, Note_on_c, 0, 65, 80
2, 177882, Note_off_c, 0, 67, 100
2, 177888, Note_on_c, 0, 67, 80
2, 177980, Note_off_c, 0, 69, 100
2, 177982, Note_off_c, 0, 65, 100
2, 177984, Note_on_c, 0, 65, 80
2, 177984, Note_on_c, 0, 75, 95
2, 178072, Note_off_c, 0, 67, 100
2, 178080, Note_on_c, 0, 67, 80
2, 178170, Note_off_c, 0, 65, 100
2, 178176, Note_on_c, 0, 65, 80
2, 178270, Note_off_c, 0, 67, 100
2, 178272, Note_on_c, 0, 67, 80
2, 178366, Note_off_c, 0, 65, 100
2, 178368, Note_on_c, 0, 65, 80
2, 178460, Note_off_c, 0, 67, 100
2, 178464, Note_on_c, 0, 67, 80
2, 178556, Note_off_c, 0, 75, 100
2, 178556, Note_off_c, 0, 67, 100
2, 178558, Note_off_c, 0, 65, 100
2, 178560, Note_on_c, 0, 74, 80
2, 178656, Note_on_c, 0, 77, 80
2, 178750, Note_off_c, 0, 74, 100
2, 178752, Note_on_c, 0, 79, 80
2, 178816, Note_on_c, 0, 81, 80
2, 178846, Note_off_c, 0, 77, 100
2, 178872, Note_off_c, 0, 79, 100
2, 178880, Note_on_c, 0, 82, 80
2, 178938, Note_off_c, 0, 81, 100
2, 178944, Note_on_c, 0, 84, 80
2, 179002, Note_off_c, 0, 82, 100
2, 179008, Note_on_c, 0, 86, 80
2, 179064, Note_off_c, 0, 84, 100
2, 179072, Note_on_c, 0, 87, 80
2, 179130, Note_off_c, 0, 86, 100
2, 179136, Note_on_c, 0, 89, 80
2, 179194, Note_off_c, 0, 87, 100
2, 179232, Note_on_c, 0, 87, 80
2, 179326, Note_off_c, 0, 89, 100
2, 179328, Note_on_c, 0, 86, 80
2, 179422, Note_off_c, 0, 87, 100
2, 179424, Note_on_c, 0, 84, 80
2, 179516, Note_off_c, 0, 86, 100
2, 179520, Note_on_c, 0, 82, 80
2, 179612, Note_off_c, 0, 84, 100
2, 179616, Note_on_c, 0, 81, 80
2, 179706, Note_off_c, 0, 82, 100
2, 179708, Note_off_c, 0, 81, 100
2, 179712, Note_on_c, 0, 79, 80
2, 179808, Note_on_c, 0, 81, 80
2, 179900, Note_off_c, 0, 79, 100
2, 179904, Note_on_c, 0, 82, 80
2, 179998, Note_off_c, 0, 81, 100
2, 180000, Note_on_c, 0, 84, 80
2, 180088, Note_off_c, 0, 82, 100
2, 180096, Note_on_c, 0, 86, 80
2, 180160, Note_on_c, 0, 87, 80
2, 180182, Note_off_c, 0, 84, 100
2, 180218, Note_off_c, 0, 86, 100
2, 180224, Note_on_c, 0, 89, 80
2, 180282, Note_off_c, 0, 87, 100
2, 180288, Note_on_c, 0, 91, 80
2, 180346, Note_off_c, 0, 89, 100
2, 180384, Note_on_c, 0, 89, 80
2, 180478, Note_off_c, 0, 91, 100
2, 180480, Note_on_c, 0, 87, 80
2, 180544, Note_on_c, 0, 86, 80
2, 180566, Note_off_c, 0, 89, 100
2, 180602, Note_off_c, 0, 87, 100
2, 180608, Note_on_c, 0, 84, 80
2, 180666, Note_off_c, 0, 86, 100
2, 180672, Note_on_c, 0, 82, 80
2, 180730, Note_off_c, 0, 84, 100
2, 180736, Note_on_c, 0, 81, 80
2, 180794, Note_off_c, 0, 82, 100
2, 180800, Note_on_c, 0, 79, 80
2, 180858, Note_off_c, 0, 81, 100
2, 180860, Note_off_c, 0, 79, 100
2, 180864, Note_on_c, 0, 77, 80
2, 180960, Note_on_c, 0, 86, 82
2, 181050, Note_off_c, 0, 77, 100
2, 181056, Note_on_c, 0, 82, 85
2, 181146, Note_off_c, 0, 86, 100
2, 181152, Note_on_c, 0, 89, 88
2, 181242, Note_off_c, 0, 82, 100
2, 181248, Note_on_c, 0, 86, 90
2, 181340, Note_off_c, 0, 89, 100
2, 181344, Note_on_c, 0, 94, 93
2, 181436, Note_off_c, 0, 86, 100
2, 181440, Note_on_c, 0, 89, 96
2, 181504, Note_on_c, 0, 98, 98
2, 181528, Note_off_c, 0, 94, 100
2, 181562, Note_off_c, 0, 89, 100
2, 181568, Note_on_c, 0, 94, 99
2, 181626, Note_off_c, 0, 98, 100
2, 181632, Note_on_c, 0, 101, 102
2, 181690, Note_off_c, 0, 94, 100
2, 181696, Note_on_c, 0, 98, 100
2, 181754, Note_off_c, 0, 101, 100
2, 181760, Note_on_c, 0, 94, 98
2, 181818, Note_off_c, 0, 98, 100
2, 181824, Note_on_c, 0, 89, 95
2, 181882, Note_off_c, 0, 94, 100
2, 181888, Note_on_c, 0, 86, 93
2, 181946, Note_off_c, 0, 89, 100
2, 181952, Note_on_c, 0, 82, 91
2, 182008, Note_off_c, 0, 86, 100
2, 182012, Note_off_c, 0, 82, 100
2, 182016, Note_on_c, 0, 77, 80
2, 182396, Note_off_c, 0, 77, 100
2, 182592, Note_on_c, 0, 84, 80
2, 182640, Note_on_c, 0, 86, 80
2, 182686, Note_off_c, 0, 84, 100
2, 182688, Note_on_c, 0, 84, 80
2, 182728, Note_off_c, 0, 86, 100
2, 182736, Note_on_c, 0, 86, 80
2, 182776, Note_off_c, 0, 84, 100
2, 182784, Note_on_c, 0, 84, 80
2, 182828, Note_off_c, 0, 86, 100
2, 182832, Note_on_c, 0, 86, 80
2, 182878, Note_off_c, 0, 84, 100
2, 182880, Note_on_c, 0, 84, 80
2, 182920, Note_off_c, 0, 86, 100
2, 182928, Note_on_c, 0, 86, 80
2, 182968, Note_off_c, 0, 84, 100
2, 182976, Note_on_c, 0, 84, 80
2, 183020, Note_off_c, 0, 86, 100
2, 183024, Note_on_c, 0, 86, 80
2, 183070, Note_off_c, 0, 84, 100
2, 183072, Note_on_c, 0, 82, 80
2, 183112, Note_off_c, 0, 86, 100
2, 183120, Note_on_c, 0, 84, 80
2, 183160, Note_off_c, 0, 82, 100
2, 183166, Note_off_c, 0, 84, 100
2, 183168, Note_on_c, 0, 86, 90
2, 183168, Note_on_c, 0, 77, 80
2, 183264, Note_on_c, 0, 79, 80
2, 183350, Note_off_c, 0, 77, 100
2, 183360, Note_on_c, 0, 77, 80
2, 183454, Note_off_c, 0, 79, 100
2, 183456, Note_on_c, 0, 79, 80
2, 183542, Note_off_c, 0, 77, 100
2, 183552, Note_on_c, 0, 77, 80
2, 183642, Note_off_c, 0, 79, 100
2, 183648, Note_on_c, 0, 79, 80
2, 183740, Note_off_c, 0, 86, 100
2, 183742, Note_off_c, 0, 77, 100
2, 183744, Note_on_c, 0, 82, 90
2, 183744, Note_on_c, 0, 77, 80
2, 183832, Note_off_c, 0, 79, 100
2, 183840, Note_on_c, 0, 79, 80
2, 183930, Note_off_c, 0, 77, 100
2, 183936, Note_on_c, 0, 77, 80
2, 184030, Note_off_c, 0, 79, 100
2, 184032, Note_on_c, 0, 79, 80
2, 184126, Note_off_c, 0, 77, 100
2, 184128, Note_on_c, 0, 77, 80
2, 184220, Note_off_c, 0, 79, 100
2, 184224, Note_on_c, 0, 79, 80
2, 184316, Note_off_c, 0, 82, 100
2, 184316, Note_off_c, 0, 79, 100
2, 184318, Note_off_c, 0, 77, 100
2, 184320, Note_on_c, 0, 77, 80
2, 184320, Note_on_c, 0, 81, 92
2, 184416, Note_on_c, 0, 79, 80
2, 184502, Note_off_c, 0, 77, 100
2, 184512, Note_on_c, 0, 77, 80
2, 184606, Note_off_c, 0, 79, 100
2, 184608, Note_on_c, 0, 79, 80
2, 184694, Note_off_c, 0, 77, 100
2, 184704, Note_on_c, 0, 77, 80
2, 184794, Note_off_c, 0, 79, 100
2, 184800, Note_on_c, 0, 79, 80
2, 184892, Note_off_c, 0, 81, 100
2, 184894, Note_off_c, 0, 77, 100
2, 184896, Note_on_c, 0, 77, 80
2, 184896, Note_on_c, 0, 87, 95
2, 184984, Note_off_c, 0, 79, 100
2, 184992, Note_on_c, 0, 79, 80
2, 185082, Note_off_c, 0, 77, 100
2, 185088, Note_on_c, 0, 77, 80
2, 185182, Note_off_c, 0, 79, 100
2, 185184, Note_on_c, 0, 79, 80
2, 185278, Note_off_c, 0, 77, 100
2, 185280, Note_on_c, 0, 77, 80
2, 185372, Note_off_c, 0, 79, 100
2, 185376, Note_on_c, 0, 79, 80
2, 185468, Note_off_c, 0, 87, 100
2, 185468, Note_off_c, 0, 79, 100
2, 185470, Note_off_c, 0, 77, 100
2, 185472, Note_on_c, 0, 77, 80
2, 185472, Note_on_c, 0, 86, 91
2, 185568, Note_on_c, 0, 79, 80
2, 185654, Note_off_c, 0, 77, 100
2, 185664, Note_on_c, 0, 77, 80
2, 185758, Note_off_c, 0, 79, 100
2, 185760, Note_on_c, 0, 79, 80
2, 185846, Note_off_c, 0, 77, 100
2, 185856, Note_on_c, 0, 77, 80
2, 185946, Note_off_c, 0, 79, 100
2, 185952, Note_on_c, 0, 79, 80
2, 186044, Note_off_c, 0, 86, 100
2, 186046, Note_off_c, 0, 77, 100
2, 186048, Note_on_c, 0, 77, 80
2, 186048, Note_on_c, 0, 82, 94
2, 186136, Note_off_c, 0, 79, 100
2, 186144, Note_on_c, 0, 79, 80
2, 186234, Note_off_c, 0, 77, 100
2, 186240, Note_on_c, 0, 77, 80
2, 186334, Note_off_c, 0, 79, 100
2, 186336, Note_on_c, 0, 79, 80
2, 186430, Note_off_c, 0, 77, 100
2, 186432, Note_on_c, 0, 77, 80
2, 186524, Note_off_c, 0, 79, 100
2, 186528, Note_on_c, 0, 79, 80
2, 186620, Note_off_c, 0, 82, 100
2, 186620, Note_off_c, 0, 79, 100
2, 186622, Note_off_c, 0, 77, 100
2, 186624, Note_on_c, 0, 77, 80
2, 186624, Note_on_c, 0, 81, 93
2, 186720, Note_on_c, 0, 79, 80
2, 186806, Note_off_c, 0, 77, 100
2, 186816, Note_on_c, 0, 77, 80
2, 186910, Note_off_c, 0, 79, 100
2, 186912, Note_on_c, 0, 79, 80
2, 186998, Note_off_c, 0, 77, 100
2, 187008, Note_on_c, 0, 77, 80
2, 187098, Note_off_c, 0, 79, 100
2, 187104, Note_on_c, 0, 79, 80
2, 187196, Note_off_c, 0, 81, 100
2, 187198, Note_off_c, 0, 77, 100
2, 187200, Note_on_c, 0, 77, 80
2, 187200, Note_on_c, 0, 87, 95
2, 187288, Note_off_c, 0, 79, 100
2, 187296, Note_on_c, 0, 79, 80
2, 187386, Note_off_c, 0, 77, 100
2, 187392, Note_on_c, 0, 77, 80
2, 187486, Note_off_c, 0, 79, 100
2, 187488, Note_on_c, 0, 79, 80
2, 187582, Note_off_c, 0, 77, 100
2, 187584, Note_on_c, 0, 77, 80
2, 187676, Note_off_c, 0, 79, 100
2, 187680, Note_on_c, 0, 79, 80
2, 187772, Note_off_c, 0, 87, 100
2, 187772, Note_off_c, 0, 79, 100
2, 187774, Note_off_c, 0, 77, 100
2, 187968, Note_on_c, 0, 82, 80
2, 187968, Note_on_c, 0, 86, 80
2, 188156, Note_off_c, 0, 82, 100
2, 188156, Note_off_c, 0, 86, 100
2, 188160, Note_on_c, 0, 82, 80
2, 188160, Note_on_c, 0, 86, 80
2, 188348, Note_off_c, 0, 82, 100
2, 188348, Note_off_c, 0, 86, 100
2, 188352, Note_on_c, 0, 82, 80
2, 188352, Note_on_c, 0, 86, 80
2, 188540, Note_off_c, 0, 82, 100
2, 188540, Note_off_c, 0, 86, 100
2, 188544, Note_on_c, 0, 82, 80
2, 188544, Note_on_c, 0, 86, 80
2, 188732, Note_off_c, 0, 82, 100
2, 188732, Note_off_c, 0, 86, 100
2, 188736, Note_on_c, 0, 82, 80
2, 188736, Note_on_c, 0, 86, 80
2, 188924, Note_off_c, 0, 82, 100
2, 188924, Note_off_c, 0, 86, 100
2, 189120, Note_on_c, 0, 84, 80
2, 189120, Note_on_c, 0, 82, 80
2, 189308, Note_off_c, 0, 84, 100
2, 189308, Note_off_c, 0, 82, 100
2, 189312, Note_on_c, 0, 84, 80
2, 189312, Note_on_c, 0, 82, 80
2, 189500, Note_off_c, 0, 84, 100
2, 189500, Note_off_c, 0, 82, 100
2, 189504, Note_on_c, 0, 84, 80
2, 189504, Note_on_c, 0, 82, 80
2, 189692, Note_off_c, 0, 84, 100
2, 189692, Note_off_c, 0, 82, 100
2, 189696, Note_on_c, 0, 84, 80
2, 189696, Note_on_c, 0, 82, 80
2, 189884, Note_off_c, 0, 84, 100
2, 189884, Note_off_c, 0, 82, 100
2, 189888, Note_on_c, 0, 84, 80
2, 189888, Note_on_c, 0, 82, 80
2, 190076, Note_off_c, 0, 84, 100
2, 190076, Note_off_c, 0, 82, 100
2, 190272, Note_on_c, 0, 86, 80
2, 190272, Note_on_c, 0, 82, 80
2, 190460, Note_off_c, 0, 86, 100
2, 190460, Note_off_c, 0, 82, 100
2, 190464, Note_on_c, 0, 86, 80
2, 190464, Note_on_c, 0, 82, 80
2, 190652, Note_off_c, 0, 86, 100
2, 190652, Note_off_c, 0, 82, 100
2, 190656, Note_on_c, 0, 86, 80
2, 190656, Note_on_c, 0, 82, 80
2, 190844, Note_off_c, 0, 86, 100
2, 190844, Note_off_c, 0, 82, 100
2, 190848, Note_on_c, 0, 86, 80
2, 190848, Note_on_c, 0, 82, 80
2, 191036, Note_off_c, 0, 86, 100
2, 191036, Note_off_c, 0, 82, 100
2, 191040, Note_on_c, 0, 86, 80
2, 191040, Note_on_c, 0, 82, 80
2, 191040, Note_on_c, 0, 89, 80
2, 191228, Note_off_c, 0, 86, 100
2, 191228, Note_off_c, 0, 82, 100
2, 191228, Note_off_c, 0, 89, 100
2, 191232, Note_on_c, 0, 89, 80
2, 191232, Note_on_c, 0, 87, 80
2, 191232, Note_on_c, 0, 81, 80
2, 191420, Note_off_c, 0, 89, 100
2, 191420, Note_off_c, 0, 87, 100
2, 191420, Note_off_c, 0, 81, 100
2, 191424, Note_on_c, 0, 89, 80
2, 191424, Note_on_c, 0, 87, 80
2, 191424, Note_on_c, 0, 81, 80
2, 191612, Note_off_c, 0, 89, 100
2, 191612, Note_off_c, 0, 87, 100
2, 191612, Note_off_c, 0, 81, 100
2, 191616, Note_on_c, 0, 89, 80
2, 191616, Note_on_c, 0, 87, 80
2, 191616, Note_on_c, 0, 81, 80
2, 191804, Note_off_c, 0, 89, 100
2, 191804, Note_off_c, 0, 87, 100
2, 191804, Note_off_c, 0, 81, 100
2, 191808, Note_on_c, 0, 89, 80
2, 191808, Note_on_c, 0, 87, 80
2, 191808, Note_on_c, 0, 81, 80
2, 191996, Note_off_c, 0, 89, 100
2, 191996, Note_off_c, 0, 87, 100
2, 191996, Note_off_c, 0, 81, 100
2, 192000, Note_on_c, 0, 89, 80
2, 192000, Note_on_c, 0, 87, 80
2, 192000, Note_on_c, 0, 81, 80
2, 192188, Note_off_c, 0, 89, 100
2, 192188, Note_off_c, 0, 87, 100
2, 192188, Note_off_c, 0, 81, 100
2, 192192, Note_on_c, 0, 89, 80
2, 192192, Note_on_c, 0, 87, 80
2, 192192, Note_on_c, 0, 81, 80
2, 192380, Note_off_c, 0, 89, 100
2, 192380, Note_off_c, 0, 87, 100
2, 192380, Note_off_c, 0, 81, 100
2, 192768, Note_on_c, 0, 92, 91
2, 192768, Note_on_c, 0, 80, 91
2, 193340, Note_off_c, 0, 92, 100
2, 193340, Note_off_c, 0, 80, 100
2, 193344, Note_on_c, 0, 91, 93
2, 193344, Note_on_c, 0, 79, 93
2, 193532, Note_off_c, 0, 91, 100
2, 193532, Note_off_c, 0, 79, 100
2, 193920, Note_on_c, 0, 78, 95
2, 193920, Note_on_c, 0, 90, 95
2, 194492, Note_off_c, 0, 78, 100
2, 194492, Note_off_c, 0, 90, 100
2, 194496, Note_on_c, 0, 89, 96
2, 194496, Note_on_c, 0, 77, 96
2, 194684, Note_off_c, 0, 89, 100
2, 194684, Note_off_c, 0, 77, 100
2, 195072, Note_on_c, 0, 80, 98
2, 195072, Note_on_c, 0, 68, 98
2, 195644, Note_off_c, 0, 80, 100
2, 195644, Note_off_c, 0, 68, 100
2, 195648, Note_on_c, 0, 79, 100
2, 195648, Note_on_c, 0, 67, 100
2, 195836, Note_off_c, 0, 79, 100
2, 195836, Note_off_c, 0, 67, 100
2, 196224, Note_on_c, 0, 66, 102
2, 196224, Note_on_c, 0, 78, 102
2, 196796, Note_off_c, 0, 66, 100
2, 196796, Note_off_c, 0, 78, 100
2, 196800, Note_on_c, 0, 77, 104
2, 196800, Note_on_c, 0, 65, 104
2, 196988, Note_off_c, 0, 77, 100
2, 196988, Note_off_c, 0, 65, 100
2, 197184, Note_on_c, 0, 77, 105
2, 197184, Note_on_c, 0, 70, 105
2, 197184, Note_on_c, 0, 65, 105
2, 197372, Note_off_c, 0, 77, 100
2, 197372, Note_off_c, 0, 70, 100
2, 197372, Note_off_c, 0, 65, 100
2, 197376, Note_on_c, 0, 77, 106
2, 197376, Note_on_c, 0, 70, 106
2, 197376, Note_on_c, 0, 65, 106
2, 197564, Note_off_c, 0, 77, 100
2, 197564, Note_off_c, 0, 70, 100
2, 197564, Note_off_c, 0, 65, 100
2, 197760, Note_on_c, 0, 75, 107
2, 197760, Note_on_c, 0, 70, 107
2, 197760, Note_on_c, 0, 67, 107
2, 197948, Note_off_c, 0, 75, 100
2, 197948, Note_off_c, 0, 70, 100
2, 197948, Note_off_c, 0, 67, 100
2, 197952, Note_on_c, 0, 74, 108
2, 197952, Note_on_c, 0, 70, 108
2, 197952, Note_on_c, 0, 67, 108
2, 198140, Note_off_c, 0, 74, 100
2, 198140, Note_off_c, 0, 70, 100
2, 198140, Note_off_c, 0, 67, 100
2, 198336, Note_on_c, 0, 74, 109
2, 198336, Note_on_c, 0, 67, 109
2, 198336, Note_on_c, 0, 63, 109
2, 198524, Note_off_c, 0, 74, 100
2, 198524, Note_off_c, 0, 67, 100
2, 198524, Note_off_c, 0, 63, 100
2, 198528, Note_on_c, 0, 72, 110
2, 198528, Note_on_c, 0, 67, 110
2, 198528, Note_on_c, 0, 63, 110
2, 198716, Note_off_c, 0, 72, 100
2, 198716, Note_off_c, 0, 67, 100
2, 198716, Note_off_c, 0, 63, 100
2, 198912, Note_on_c, 0, 70, 111
2, 198912, Note_on_c, 0, 63, 111
2, 198912, Note_on_c, 0, 60, 111
2, 199100, Note_off_c, 0, 70, 100
2, 199100, Note_off_c, 0, 63, 100
2, 199100, Note_off_c, 0, 60, 100
2, 199104, Note_on_c, 0, 69, 112
2, 199104, Note_on_c, 0, 63, 112
2, 199104, Note_on_c, 0, 60, 112
2, 199292, Note_off_c, 0, 69, 100
2, 199292, Note_off_c, 0, 63, 100
2, 199292, Note_off_c, 0, 60, 100
2, 199488, Note_on_c, 0, 65, 113
2, 199488, Note_on_c, 0, 58, 113
2, 199488, Note_on_c, 0, 70, 113
2, 199676, Note_off_c, 0, 65, 100
2, 199676, Note_off_c, 0, 58, 100
2, 199676, Note_off_c, 0, 70, 100
2, 199680, Note_on_c, 0, 65, 113
2, 199680, Note_on_c, 0, 58, 113
2, 199680, Note_on_c, 0, 62, 113
2, 199868, Note_off_c, 0, 65, 100
2, 199868, Note_off_c, 0, 58, 100
2, 199868, Note_off_c, 0, 62, 100
2, 200064, Note_on_c, 0, 63, 115
2, 200064, Note_on_c, 0, 58, 115
2, 200064, Note_on_c, 0, 55, 115
2, 200252, Note_off_c, 0, 63, 100
2, 200252, Note_off_c, 0, 58, 100
2, 200252, Note_off_c, 0, 55, 100
2, 200256, Note_on_c, 0, 62, 115
2, 200256, Note_on_c, 0, 58, 115
2, 200256, Note_on_c, 0, 55, 115
2, 200444, Note_off_c, 0, 62, 100
2, 200444, Note_off_c, 0, 58, 100
2, 200444, Note_off_c, 0, 55, 100
2, 200640, Note_on_c, 0, 62, 117
2, 200640, Note_on_c, 0, 55, 117
2, 200640, Note_on_c, 0, 51, 117
2, 200828, Note_off_c, 0, 62, 100
2, 200828, Note_off_c, 0, 55, 100
2, 200828, Note_off_c, 0, 51, 100
2, 200832, Note_on_c, 0, 60, 117
2, 200832, Note_on_c, 0, 55, 117
2, 200832, Note_on_c, 0, 51, 117
2, 201020, Note_off_c, 0, 60, 100
2, 201020, Note_off_c, 0, 55, 100
2, 201020, Note_off_c, 0, 51, 100
2, 201216, Note_on_c, 0, 58, 119
2, 201216, Note_on_c, 0, 51, 119
2, 201216, Note_on_c, 0, 48, 119
2, 201404, Note_off_c, 0, 58, 100
2, 201404, Note_off_c, 0, 51, 100
2, 201404, Note_off_c, 0, 48, 100
2, 201408, Note_on_c, 0, 57, 119
2, 201408, Note_on_c, 0, 51, 119
2, 201408, Note_on_c, 0, 48, 119
2, 201596, Note_off_c, 0, 57, 100
2, 201596, Note_off_c, 0, 51, 100
2, 201596, Note_off_c, 0, 48, 100
2, 201600, Note_on_c, 0, 46, 120
2, 201696, Note_on_c, 0, 48, 120
2, 201790, Note_off_c, 0, 46, 100
2, 201792, Note_on_c, 0, 50, 120
2, 201886, Note_off_c, 0, 48, 100
2, 201888, Note_on_c, 0, 51, 120
2, 201980, Note_off_c, 0, 50, 100
2, 201984, Note_on_c, 0, 53, 120
2, 202048, Note_on_c, 0, 55, 120
2, 202076, Note_off_c, 0, 51, 100
2, 202106, Note_off_c, 0, 53, 100
2, 202112, Note_on_c, 0, 57, 120
2, 202170, Note_off_c, 0, 55, 100
2, 202176, Note_on_c, 0, 58, 120
2, 202234, Note_off_c, 0, 57, 100
2, 202240, Note_on_c, 0, 60, 120
2, 202296, Note_off_c, 0, 58, 100
2, 202304, Note_on_c, 0, 62, 120
2, 202362, Note_off_c, 0, 60, 100
2, 202368, Note_on_c, 0, 63, 120
2, 202426, Note_off_c, 0, 62, 100
2, 202432, Note_on_c, 0, 65, 120
2, 202490, Note_off_c, 0, 63, 100
2, 202496, Note_on_c, 0, 67, 120
2, 202552, Note_off_c, 0, 65, 100
2, 202560, Note_on_c, 0, 69, 120
2, 202618, Note_off_c, 0, 67, 100
2, 202656, Note_on_c, 0, 57, 120
2, 202748, Note_off_c, 0, 57, 100
2, 202750, Note_off_c, 0, 69, 100
2, 202752, Note_on_c, 0, 58, 120
2, 202848, Note_on_c, 0, 60, 120
2, 202936, Note_off_c, 0, 58, 100
2, 202944, Note_on_c, 0, 62, 120
2, 203038, Note_off_c, 0, 60, 100
2, 203040, Note_on_c, 0, 63, 120
2, 203132, Note_off_c, 0, 62, 100
2, 203136, Note_on_c, 0, 65, 120
2, 203200, Note_on_c, 0, 67, 120
2, 203230, Note_off_c, 0, 63, 100
2, 203256, Note_off_c, 0, 65, 100
2, 203264, Note_on_c, 0, 69, 120
2, 203322, Note_off_c, 0, 67, 100
2, 203328, Note_on_c, 0, 70, 120
2, 203386, Note_off_c, 0, 69, 100
2, 203392, Note_on_c, 0, 72, 120
2, 203448, Note_off_c, 0, 70, 100
2, 203456, Note_on_c, 0, 74, 120
2, 203512, Note_off_c, 0, 72, 100
2, 203520, Note_on_c, 0, 75, 120
2, 203578, Note_off_c, 0, 74, 100
2, 203584, Note_on_c, 0, 77, 120
2, 203640, Note_off_c, 0, 75, 100
2, 203648, Note_on_c, 0, 79, 120
2, 203706, Note_off_c, 0, 77, 100
2, 203712, Note_on_c, 0, 81, 120
2, 203770, Note_off_c, 0, 79, 100
2, 203808, Note_on_c, 0, 69, 120
2, 203900, Note_off_c, 0, 69, 100
2, 203902, Note_off_c, 0, 81, 100
2, 203904, Note_on_c, 0, 70, 120
2, 204000, Note_on_c, 0, 72, 120
2, 204088, Note_off_c, 0, 70, 100
2, 204096, Note_on_c, 0, 74, 120
2, 204184, Note_off_c, 0, 72, 100
2, 204192, Note_on_c, 0, 75, 120
2, 204282, Note_off_c, 0, 74, 100
2, 204288, Note_on_c, 0, 77, 120
2, 204352, Note_on_c, 0, 79, 120
2, 204378, Note_off_c, 0, 75, 100
2, 204408, Note_off_c, 0, 77, 100
2, 204416, Note_on_c, 0, 81, 120
2, 204474, Note_off_c, 0, 79, 100
2, 204480, Note_on_c, 0, 82, 120
2, 204538, Note_off_c, 0, 81, 100
2, 204576, Note_on_c, 0, 84, 120
2, 204668, Note_off_c, 0, 82, 100
2, 204672, Note_on_c, 0, 86, 120
2, 204736, Note_on_c, 0, 87, 120
2, 204758, Note_off_c, 0, 84, 100
2, 204792, Note_off_c, 0, 86, 100
2, 204800, Note_on_c, 0, 89, 120
2, 204856, Note_off_c, 0, 87, 100
2, 204864, Note_on_c, 0, 91, 120
2, 204922, Note_off_c, 0, 89, 100
2, 204928, Note_on_c, 0, 93, 120
2, 204986, Note_off_c, 0, 91, 100
2, 204992, Note_on_c, 0, 81, 120
2, 205050, Note_off_c, 0, 93, 100
2, 205052, Note_off_c, 0, 81, 100
2, 205056, Note_on_c, 0, 82, 120
2, 205056, Note_on_c, 0, 94, 120
2, 205436, Note_off_c, 0, 82, 100
2, 205436, Note_off_c, 0, 94, 100
2, 205632, Note_on_c, 0, 82, 120
2, 205632, Note_on_c, 0, 77, 120
2, 205632, Note_on_c, 0, 74, 120
2, 206012, Note_off_c, 0, 82, 100
2, 206012, Note_off_c, 0, 77, 100
2, 206012, Note_off_c, 0, 74, 100
2, 206208, Note_on_c, 0, 70, 120
2, 206208, Note_on_c, 0, 65, 120
2, 206208, Note_on_c, 0, 62, 120
2, 206588, Note_off_c, 0, 70, 100
2, 206588, Note_off_c, 0, 65, 100
2, 206588, Note_off_c, 0, 62, 100
2, 207168, Note_on_c, 0, 70, 80
2, 207356, Note_off_c, 0, 70, 100
2, 207360, Note_on_c, 0, 70, 80
2, 207740, Note_off_c, 0, 70, 100
2, 207936, Note_on_c, 0, 58, 80
2, 208316, Note_off_c, 0, 58, 100
2, 208512, Note_on_c, 0, 46, 80
2, 208892, Note_off_c, 0, 46, 100
2, 209472, Note_on_c, 0, 82, 80
2, 209472, Note_on_c, 0, 70, 80
2, 209660, Note_off_c, 0, 82, 100
2, 209660, Note_off_c, 0, 70, 100
2, 209664, Note_on_c, 0, 82, 80
2, 209664, Note_on_c, 0, 70, 80
2, 210236, Note_off_c, 0, 82, 100
2, 210236, Note_off_c, 0, 70, 100
2, 210240, Note_on_c, 0, 71, 80
2, 210240, Note_on_c, 0, 83, 80
2, 210812, Note_off_c, 0, 71, 100
2, 210812, Note_off_c, 0, 83, 100
2, 210816, Note_on_c, 0, 84, 80
2, 210816, Note_on_c, 0, 72, 80
2, 211388, Note_off_c, 0, 84, 100
2, 211388, Note_off_c, 0, 72, 100
2, 211392, Note_on_c, 0, 85, 80
2, 211392, Note_on_c, 0, 73, 80
2, 211772, Note_off_c, 0, 85, 100
2, 211772, Note_off_c, 0, 73, 100
2, 211776, Note_on_c, 0, 73, 80
2, 211964, Note_off_c, 0, 73, 100
2, 211968, Note_on_c, 0, 73, 80
2, 212348, Note_off_c, 0, 73, 100
2, 212544, Note_on_c, 0, 61, 80
2, 212924, Note_off_c, 0, 61, 100
2, 213120, Note_on_c, 0, 49, 80
2, 213500, Note_off_c, 0, 49, 100
2, 214080, Note_on_c, 0, 73, 80
2, 214080, Note_on_c, 0, 85, 80
2, 214268, Note_off_c, 0, 73, 100
2, 214268, Note_off_c, 0, 85, 100
2, 214272, Note_on_c, 0, 73, 80
2, 214272, Note_on_c, 0, 85, 80
2, 214844, Note_off_c, 0, 73, 100
2, 214844, Note_off_c, 0, 85, 100
2, 214848, Note_on_c, 0, 75, 80
2, 214848, Note_on_c, 0, 87, 80
2, 215996, Note_off_c, 0, 75, 100
2, 215996, Note_off_c, 0, 87, 100
2, 216000, Note_on_c, 0, 76, 80
2, 216000, Note_on_c, 0, 88, 80
2, 217148, Note_off_c, 0, 76, 100
2, 217148, Note_off_c, 0, 88, 100
2, 217152, Note_on_c, 0, 78, 80
2, 217152, Note_on_c, 0, 90, 80
2, 217724, Note_off_c, 0, 78, 100
2, 217724, Note_off_c, 0, 90, 100
2, 217728, Note_on_c, 0, 79, 80
2, 217728, Note_on_c, 0, 91, 80
2, 218300, Note_off_c, 0, 79, 100
2, 218300, Note_off_c, 0, 91, 100
2, 218304, Note_on_c, 0, 80, 80
2, 218304, Note_on_c, 0, 92, 80
2, 219452, Note_off_c, 0, 80, 100
2, 219452, Note_off_c, 0, 92, 100
2, 219456, Note_on_c, 0, 78, 80
2, 219456, Note_on_c, 0, 90, 80
2, 220028, Note_off_c, 0, 78, 100
2, 220028, Note_off_c, 0, 90, 100
2, 220032, Note_on_c, 0, 76, 80
2, 220032, Note_on_c, 0, 88, 80
2, 220604, Note_off_c, 0, 76, 100
2, 220604, Note_off_c, 0, 88, 100
2, 220608, Note_on_c, 0, 73, 80
2, 220608, Note_on_c, 0, 85, 80
2, 221180, Note_off_c, 0, 73, 100
2, 221180, Note_off_c, 0, 85, 100
2, 221184, Note_on_c, 0, 87, 80
2, 221184, Note_on_c, 0, 75, 80
2, 221564, Note_off_c, 0, 75, 100
2, 221568, Note_on_c, 0, 80, 80
2, 221756, Note_off_c, 0, 80, 100
2, 221760, Note_on_c, 0, 78, 80
2, 222140, Note_off_c, 0, 78, 100
2, 222144, Note_on_c, 0, 75, 80
2, 222332, Note_off_c, 0, 87, 100
2, 222332, Note_off_c, 0, 75, 100
2, 222336, Note_on_c, 0, 85, 80
2, 222336, Note_on_c, 0, 73, 80
2, 222716, Note_off_c, 0, 73, 100
2, 222720, Note_on_c, 0, 80, 80
2, 222908, Note_off_c, 0, 80, 100
2, 222912, Note_on_c, 0, 78, 80
2, 223292, Note_off_c, 0, 78, 100
2, 223296, Note_on_c, 0, 73, 80
2, 223484, Note_off_c, 0, 85, 100
2, 223484, Note_off_c, 0, 73, 100
2, 223488, Note_on_c, 0, 78, 80
2, 223488, Note_on_c, 0, 87, 90
2, 223584, Note_on_c, 0, 80, 80
2, 223672, Note_off_c, 0, 78, 100
2, 223680, Note_on_c, 0, 78, 80
2, 223772, Note_off_c, 0, 80, 100
2, 223776, Note_on_c, 0, 80, 80
2, 223864, Note_off_c, 0, 78, 100
2, 223872, Note_on_c, 0, 78, 80
2, 223960, Note_off_c, 0, 80, 100
2, 223968, Note_on_c, 0, 80, 80
2, 224060, Note_off_c, 0, 87, 100
2, 224060, Note_off_c, 0, 78, 100
2, 224064, Note_on_c, 0, 78, 80
2, 224064, Note_on_c, 0, 83, 90
2, 224150, Note_off_c, 0, 80, 100
2, 224160, Note_on_c, 0, 80, 80
2, 224248, Note_off_c, 0, 78, 100
2, 224256, Note_on_c, 0, 78, 80
2, 224346, Note_off_c, 0, 80, 100
2, 224352, Note_on_c, 0, 80, 80
2, 224438, Note_off_c, 0, 78, 100
2, 224448, Note_on_c, 0, 78, 80
2, 224538, Note_off_c, 0, 80, 100
2, 224544, Note_on_c, 0, 80, 80
2, 224634, Note_off_c, 0, 78, 100
2, 224636, Note_off_c, 0, 83, 100
2, 224636, Note_off_c, 0, 80, 100
2, 224640, Note_on_c, 0, 78, 80
2, 224640, Note_on_c, 0, 82, 90
2, 224736, Note_on_c, 0, 80, 80
2, 224824, Note_off_c, 0, 78, 100
2, 224832, Note_on_c, 0, 78, 80
2, 224924, Note_off_c, 0, 80, 100
2, 224928, Note_on_c, 0, 80, 80
2, 225016, Note_off_c, 0, 78, 100
2, 225024, Note_on_c, 0, 78, 80
2, 225112, Note_off_c, 0, 80, 100
2, 225120, Note_on_c, 0, 80, 80
2, 225212, Note_off_c, 0, 82, 100
2, 225212, Note_off_c, 0, 78, 100
2, 225216, Note_on_c, 0, 78, 80
2, 225216, Note_on_c, 0, 90, 90
2, 225302, Note_off_c, 0, 80, 100
2, 225312, Note_on_c, 0, 80, 80
2, 225400, Note_off_c, 0, 78, 100
2, 225408, Note_on_c, 0, 78, 80
2, 225498, Note_off_c, 0, 80, 100
2, 225504, Note_on_c, 0, 80, 80
2, 225590, Note_off_c, 0, 78, 100
2, 225600, Note_on_c, 0, 78, 80
2, 225690, Note_off_c, 0, 80, 100
2, 225696, Note_on_c, 0, 80, 80
2, 225786, Note_off_c, 0, 78, 100
2, 225788, Note_off_c, 0, 90, 100
2, 225788, Note_off_c, 0, 80, 100
2, 225792, Note_on_c, 0, 90, 80
2, 225792, Note_on_c, 0, 78, 80
2, 226364, Note_off_c, 0, 90, 100
2, 226364, Note_off_c, 0, 78, 100
2, 226368, Note_on_c, 0, 78, 80
2, 226368, Note_on_c, 0, 66, 80
2, 226940, Note_off_c, 0, 78, 100
2, 226940, Note_off_c, 0, 66, 100
2, 226944, Note_on_c, 0, 78, 80
2, 226944, Note_on_c, 0, 74, 80
2, 226944, Note_on_c, 0, 66, 80
2, 227516, Note_off_c, 0, 78, 100
2, 227516, Note_off_c, 0, 74, 100
2, 227516, Note_off_c, 0, 66, 100
2, 227520, Note_on_c, 0, 79, 80
2, 227520, Note_on_c, 0, 74, 80
2, 227520, Note_on_c, 0, 67, 80
2, 227900, Note_off_c, 0, 79, 100
2, 227900, Note_off_c, 0, 74, 100
2, 227900, Note_off_c, 0, 67, 100
2, 227904, Note_on_c, 0, 81, 80
2, 227904, Note_on_c, 0, 74, 80
2, 227904, Note_on_c, 0, 69, 80
2, 228092, Note_off_c, 0, 81, 100
2, 228092, Note_off_c, 0, 74, 100
2, 228092, Note_off_c, 0, 69, 100
2, 228096, Note_on_c, 0, 83, 80
2, 228096, Note_on_c, 0, 74, 80
2, 228096, Note_on_c, 0, 71, 80
2, 228476, Note_off_c, 0, 83, 100
2, 228476, Note_off_c, 0, 74, 100
2, 228476, Note_off_c, 0, 71, 100
2, 228480, Note_on_c, 0, 76, 80
2, 228480, Note_on_c, 0, 88, 80
2, 228668, Note_off_c, 0, 76, 100
2, 228668, Note_off_c, 0, 88, 100
2, 228672, Note_on_c, 0, 74, 80
2, 228672, Note_on_c, 0, 86, 80
2, 229052, Note_off_c, 0, 74, 100
2, 229052, Note_off_c, 0, 86, 100
2, 229056, Note_on_c, 0, 83, 80
2, 229056, Note_on_c, 0, 71, 80
2, 229244, Note_off_c, 0, 83, 100
2, 229244, Note_off_c, 0, 71, 100
2, 229248, Note_on_c, 0, 81, 80
2, 229248, Note_on_c, 0, 69, 80
2, 229628, Note_off_c, 0, 81, 100
2, 229628, Note_off_c, 0, 69, 100
2, 229632, Note_on_c, 0, 76, 80
2, 229632, Note_on_c, 0, 88, 80
2, 229820, Note_off_c, 0, 76, 100
2, 229820, Note_off_c, 0, 88, 100
2, 229824, Note_on_c, 0, 74, 80
2, 229824, Note_on_c, 0, 86, 80
2, 230204, Note_off_c, 0, 74, 100
2, 230204, Note_off_c, 0, 86, 100
2, 230208, Note_on_c, 0, 81, 80
2, 230208, Note_on_c, 0, 69, 80
2, 230396, Note_off_c, 0, 81, 100
2, 230396, Note_off_c, 0, 69, 100
2, 230400, Note_on_c, 0, 74, 80
2, 230400, Note_on_c, 0, 83, 90
2, 230496, Note_on_c, 0, 76, 80
2, 230590, Note_off_c, 0, 74, 100
2, 230592, Note_on_c, 0, 74, 80
2, 230686, Note_off_c, 0, 76, 100
2, 230688, Note_on_c, 0, 76, 80
2, 230782, Note_off_c, 0, 74, 100
2, 230784, Note_on_c, 0, 74, 80
2, 230878, Note_off_c, 0, 76, 100
2, 230880, Note_on_c, 0, 76, 80
2, 230972, Note_off_c, 0, 83, 100
2, 230974, Note_off_c, 0, 74, 100
2, 230976, Note_on_c, 0, 74, 80
2, 230976, Note_on_c, 0, 79, 90
2, 231070, Note_off_c, 0, 76, 100
2, 231072, Note_on_c, 0, 76, 80
2, 231166, Note_off_c, 0, 74, 100
2, 231168, Note_on_c, 0, 74, 80
2, 231262, Note_off_c, 0, 76, 100
2, 231264, Note_on_c, 0, 76, 80
2, 231358, Note_off_c, 0, 74, 100
2, 231360, Note_on_c, 0, 74, 80
2, 231454, Note_off_c, 0, 76, 100
2, 231456, Note_on_c, 0, 76, 80
2, 231548, Note_off_c, 0, 79, 100
2, 231550, Note_off_c, 0, 74, 100
2, 231552, Note_on_c, 0, 74, 80
2, 231552, Note_on_c, 0, 78, 90
2, 231646, Note_off_c, 0, 76, 100
2, 231648, Note_on_c, 0, 76, 80
2, 231742, Note_off_c, 0, 74, 100
2, 231744, Note_on_c, 0, 74, 80
2, 231838, Note_off_c, 0, 76, 100
2, 231840, Note_on_c, 0, 76, 80
2, 231934, Note_off_c, 0, 74, 100
2, 231936, Note_on_c, 0, 74, 80
2, 232030, Note_off_c, 0, 76, 100
2, 232032, Note_on_c, 0, 76, 80
2, 232124, Note_off_c, 0, 78, 100
2, 232126, Note_off_c, 0, 74, 100
2, 232128, Note_on_c, 0, 74, 80
2, 232128, Note_on_c, 0, 84, 90
2, 232222, Note_off_c, 0, 76, 100
2, 232224, Note_on_c, 0, 76, 80
2, 232318, Note_off_c, 0, 74, 100
2, 232320, Note_on_c, 0, 74, 80
2, 232414, Note_off_c, 0, 76, 100
2, 232416, Note_on_c, 0, 76, 80
2, 232510, Note_off_c, 0, 74, 100
2, 232512, Note_on_c, 0, 74, 80
2, 232606, Note_off_c, 0, 76, 100
2, 232608, Note_on_c, 0, 76, 80
2, 232700, Note_off_c, 0, 84, 100
2, 232702, Note_off_c, 0, 74, 100
2, 232704, Note_on_c, 0, 74, 80
2, 232704, Note_on_c, 0, 83, 80
2, 232704, Note_on_c, 0, 74, 80
2, 232798, Note_off_c, 0, 76, 100
2, 232800, Note_on_c, 0, 76, 80
2, 232892, Note_off_c, 0, 83, 100
2, 232892, Note_off_c, 0, 74, 100
2, 232894, Note_off_c, 0, 74, 100
2, 232896, Note_on_c, 0, 74, 80
2, 232896, Note_on_c, 0, 71, 80
2, 232990, Note_off_c, 0, 76, 100
2, 232992, Note_on_c, 0, 76, 80
2, 233084, Note_off_c, 0, 71, 100
2, 233086, Note_off_c, 0, 74, 100
2, 233088, Note_on_c, 0, 86, 80
2, 233088, Note_on_c, 0, 67, 80
2, 233182, Note_off_c, 0, 76, 100
2, 233276, Note_off_c, 0, 86, 100
2, 233276, Note_off_c, 0, 67, 100
2, 233280, Note_on_c, 0, 86, 80
2, 233280, Note_on_c, 0, 66, 80
2, 233468, Note_off_c, 0, 86, 100
2, 233468, Note_off_c, 0, 66, 100
2, 233472, Note_on_c, 0, 83, 80
2, 233472, Note_on_c, 0, 67, 80
2, 233660, Note_off_c, 0, 83, 100
2, 233660, Note_off_c, 0, 67, 100
2, 233664, Note_on_c, 0, 79, 80
2, 233664, Note_on_c, 0, 71, 80
2, 233852, Note_off_c, 0, 79, 100
2, 233852, Note_off_c, 0, 71, 100
2, 234048, Note_on_c, 0, 71, 80
2, 234236, Note_off_c, 0, 71, 100
2, 234240, Note_on_c, 0, 74, 80
2, 234428, Note_off_c, 0, 74, 100
2, 234432, Note_on_c, 0, 79, 80
2, 234620, Note_off_c, 0, 79, 100
2, 234624, Note_on_c, 0, 83, 80
2, 234812, Note_off_c, 0, 83, 100
2, 234816, Note_on_c, 0, 86, 80
2, 234816, Note_on_c, 0, 79, 80
2, 235004, Note_off_c, 0, 86, 100
2, 235008, Note_on_c, 0, 88, 80
2, 235196, Note_off_c, 0, 79, 100
2, 235196, Note_off_c, 0, 88, 100
2, 235200, Note_on_c, 0, 76, 80
2, 235388, Note_off_c, 0, 76, 100
2, 235392, Note_on_c, 0, 72, 80
2, 235580, Note_off_c, 0, 72, 100
2, 235584, Note_on_c, 0, 71, 80
2, 235772, Note_off_c, 0, 71, 100
2, 235776, Note_on_c, 0, 72, 80
2, 235964, Note_off_c, 0, 72, 100
2, 235968, Note_on_c, 0, 76, 80
2, 236156, Note_off_c, 0, 76, 100
2, 236352, Note_on_c, 0, 79, 80
2, 236540, Note_off_c, 0, 79, 100
2, 236544, Note_on_c, 0, 84, 80
2, 236732, Note_off_c, 0, 84, 100
2, 236736, Note_on_c, 0, 76, 80
2, 236736, Note_on_c, 0, 88, 80
2, 237116, Note_off_c, 0, 76, 100
2, 237116, Note_off_c, 0, 88, 100
2, 237120, Note_on_c, 0, 75, 80
2, 237120, Note_on_c, 0, 87, 80
2, 237308, Note_off_c, 0, 75, 100
2, 237308, Note_off_c, 0, 87, 100
2, 237312, Note_on_c, 0, 87, 80
2, 237500, Note_off_c, 0, 87, 100
2, 237504, Note_on_c, 0, 84, 81
2, 237692, Note_off_c, 0, 84, 100
2, 237696, Note_on_c, 0, 80, 82
2, 237884, Note_off_c, 0, 80, 100
2, 237888, Note_on_c, 0, 79, 83
2, 238076, Note_off_c, 0, 79, 100
2, 238080, Note_on_c, 0, 82, 85
2, 238268, Note_off_c, 0, 82, 100
2, 238272, Note_on_c, 0, 87, 86
2, 238272, Note_on_c, 0, 75, 86
2, 238460, Note_off_c, 0, 87, 100
2, 238460, Note_off_c, 0, 75, 100
2, 238464, Note_on_c, 0, 75, 87
2, 238652, Note_off_c, 0, 75, 100
2, 238656, Note_on_c, 0, 72, 89
2, 238844, Note_off_c, 0, 72, 100
2, 238848, Note_on_c, 0, 68, 90
2, 239036, Note_off_c, 0, 68, 100
2, 239040, Note_on_c, 0, 75, 91
2, 239228, Note_off_c, 0, 75, 100
2, 239232, Note_on_c, 0, 70, 93
2, 239420, Note_off_c, 0, 70, 100
2, 239424, Note_on_c, 0, 82, 94
2, 239424, Note_on_c, 0, 70, 94
2, 239612, Note_off_c, 0, 82, 100
2, 239612, Note_off_c, 0, 70, 100
2, 239616, Note_on_c, 0, 82, 80
2, 239616, Note_on_c, 0, 70, 80
2, 239804, Note_off_c, 0, 82, 100
2, 239804, Note_off_c, 0, 70, 100
2, 239808, Note_on_c, 0, 79, 80
2, 239808, Note_on_c, 0, 67, 80
2, 239996, Note_off_c, 0, 79, 100
2, 239996, Note_off_c, 0, 67, 100
2, 240000, Note_on_c, 0, 75, 80
2, 240000, Note_on_c, 0, 63, 80
2, 240188, Note_off_c, 0, 75, 100
2, 240188, Note_off_c, 0, 63, 100
2, 240192, Note_on_c, 0, 74, 80
2, 240192, Note_on_c, 0, 62, 80
2, 240380, Note_off_c, 0, 74, 100
2, 240380, Note_off_c, 0, 62, 100
2, 240384, Note_on_c, 0, 77, 80
2, 240384, Note_on_c, 0, 65, 80
2, 240572, Note_off_c, 0, 77, 100
2, 240572, Note_off_c, 0, 65, 100
2, 240576, Note_on_c, 0, 82, 80
2, 240576, Note_on_c, 0, 70, 80
2, 240764, Note_off_c, 0, 82, 100
2, 240764, Note_off_c, 0, 70, 100
2, 240768, Note_on_c, 0, 82, 80
2, 240768, Note_on_c, 0, 70, 80
2, 240956, Note_off_c, 0, 82, 100
2, 240956, Note_off_c, 0, 70, 100
2, 240960, Note_on_c, 0, 79, 80
2, 240960, Note_on_c, 0, 67, 80
2, 241148, Note_off_c, 0, 79, 100
2, 241148, Note_off_c, 0, 67, 100
2, 241152, Note_on_c, 0, 75, 80
2, 241152, Note_on_c, 0, 63, 80
2, 241340, Note_off_c, 0, 75, 100
2, 241340, Note_off_c, 0, 63, 100
2, 241344, Note_on_c, 0, 75, 80
2, 241344, Note_on_c, 0, 63, 80
2, 241532, Note_off_c, 0, 75, 100
2, 241532, Note_off_c, 0, 63, 100
2, 241536, Note_on_c, 0, 79, 80
2, 241536, Note_on_c, 0, 67, 80
2, 241724, Note_off_c, 0, 79, 100
2, 241724, Note_off_c, 0, 67, 100
2, 241728, Note_on_c, 0, 84, 80
2, 241728, Note_on_c, 0, 72, 80
2, 241916, Note_off_c, 0, 84, 100
2, 241916, Note_off_c, 0, 72, 100
2, 241920, Note_on_c, 0, 84, 80
2, 241920, Note_on_c, 0, 72, 80
2, 242108, Note_off_c, 0, 84, 100
2, 242108, Note_off_c, 0, 72, 100
2, 242112, Note_on_c, 0, 80, 80
2, 242112, Note_on_c, 0, 68, 80
2, 242300, Note_off_c, 0, 80, 100
2, 242300, Note_off_c, 0, 68, 100
2, 242304, Note_on_c, 0, 77, 80
2, 242304, Note_on_c, 0, 65, 80
2, 242492, Note_off_c, 0, 77, 100
2, 242492, Note_off_c, 0, 65, 100
2, 242496, Note_on_c, 0, 76, 80
2, 242496, Note_on_c, 0, 64, 80
2, 242684, Note_off_c, 0, 76, 100
2, 242684, Note_off_c, 0, 64, 100
2, 242688, Note_on_c, 0, 79, 80
2, 242688, Note_on_c, 0, 67, 80
2, 242876, Note_off_c, 0, 79, 100
2, 242876, Note_off_c, 0, 67, 100
2, 242880, Note_on_c, 0, 84, 80
2, 242880, Note_on_c, 0, 72, 80
2, 243068, Note_off_c, 0, 84, 100
2, 243068, Note_off_c, 0, 72, 100
2, 243072, Note_on_c, 0, 84, 80
2, 243072, Note_on_c, 0, 72, 80
2, 243260, Note_off_c, 0, 84, 100
2, 243260, Note_off_c, 0, 72, 100
2, 243264, Note_on_c, 0, 80, 80
2, 243264, Note_on_c, 0, 68, 80
2, 243452, Note_off_c, 0, 80, 100
2, 243452, Note_off_c, 0, 68, 100
2, 243456, Note_on_c, 0, 77, 80
2, 243456, Note_on_c, 0, 65, 80
2, 243644, Note_off_c, 0, 77, 100
2, 243644, Note_off_c, 0, 65, 100
2, 243648, Note_on_c, 0, 74, 80
2, 243648, Note_on_c, 0, 62, 80
2, 243836, Note_off_c, 0, 74, 100
2, 243836, Note_off_c, 0, 62, 100
2, 243840, Note_on_c, 0, 77, 80
2, 243840, Note_on_c, 0, 65, 80
2, 244028, Note_off_c, 0, 77, 100
2, 244028, Note_off_c, 0, 65, 100
2, 244032, Note_on_c, 0, 82, 80
2, 244032, Note_on_c, 0, 70, 80
2, 244220, Note_off_c, 0, 82, 100
2, 244220, Note_off_c, 0, 70, 100
2, 244224, Note_on_c, 0, 82, 80
2, 244224, Note_on_c, 0, 70, 80
2, 244412, Note_off_c, 0, 82, 100
2, 244412, Note_off_c, 0, 70, 100
2, 244416, Note_on_c, 0, 79, 80
2, 244416, Note_on_c, 0, 67, 80
2, 244604, Note_off_c, 0, 79, 100
2, 244604, Note_off_c, 0, 67, 100
2, 244608, Note_on_c, 0, 75, 80
2, 244608, Note_on_c, 0, 63, 80
2, 244796, Note_off_c, 0, 75, 100
2, 244796, Note_off_c, 0, 63, 100
2, 244800, Note_on_c, 0, 72, 80
2, 244800, Note_on_c, 0, 60, 80
2, 244988, Note_off_c, 0, 72, 100
2, 244988, Note_off_c, 0, 60, 100
2, 244992, Note_on_c, 0, 77, 80
2, 244992, Note_on_c, 0, 65, 80
2, 245180, Note_off_c, 0, 77, 100
2, 245180, Note_off_c, 0, 65, 100
2, 245184, Note_on_c, 0, 80, 80
2, 245184, Note_on_c, 0, 68, 80
2, 245372, Note_off_c, 0, 80, 100
2, 245372, Note_off_c, 0, 68, 100
2, 245376, Note_on_c, 0, 70, 80
2, 245376, Note_on_c, 0, 58, 80
2, 245564, Note_off_c, 0, 70, 100
2, 245564, Note_off_c, 0, 58, 100
2, 245568, Note_on_c, 0, 75, 80
2, 245568, Note_on_c, 0, 63, 80
2, 245756, Note_off_c, 0, 75, 100
2, 245756, Note_off_c, 0, 63, 100
2, 245760, Note_on_c, 0, 79, 80
2, 245760, Note_on_c, 0, 67, 80
2, 245948, Note_off_c, 0, 79, 100
2, 245948, Note_off_c, 0, 67, 100
2, 245952, Note_on_c, 0, 70, 80
2, 245952, Note_on_c, 0, 58, 80
2, 246140, Note_off_c, 0, 70, 100
2, 246140, Note_off_c, 0, 58, 100
2, 246144, Note_on_c, 0, 74, 80
2, 246144, Note_on_c, 0, 62, 80
2, 246332, Note_off_c, 0, 74, 100
2, 246332, Note_off_c, 0, 62, 100
2, 246336, Note_on_c, 0, 68, 80
2, 246428, Note_off_c, 0, 68, 100
2, 246432, Note_on_c, 0, 77, 80
2, 246524, Note_off_c, 0, 77, 100
2, 246624, Note_on_c, 0, 79, 90
2, 246720, Note_on_c, 0, 82, 90
2, 246814, Note_off_c, 0, 79, 100
2, 246816, Note_on_c, 0, 87, 91
2, 246910, Note_off_c, 0, 82, 100
2, 246912, Note_on_c, 0, 91, 91
2, 247002, Note_off_c, 0, 87, 100
2, 247008, Note_on_c, 0, 79, 92
2, 247098, Note_off_c, 0, 91, 100
2, 247192, Note_off_c, 0, 79, 100
2, 247200, Note_on_c, 0, 80, 92
2, 247296, Note_on_c, 0, 82, 93
2, 247384, Note_off_c, 0, 80, 100
2, 247392, Note_on_c, 0, 89, 93
2, 247486, Note_off_c, 0, 82, 100
2, 247488, Note_on_c, 0, 92, 94
2, 247580, Note_off_c, 0, 89, 100
2, 247584, Note_on_c, 0, 80, 94
2, 247678, Note_off_c, 0, 92, 100
2, 247774, Note_off_c, 0, 80, 100
2, 247776, Note_on_c, 0, 79, 95
2, 247872, Note_on_c, 0, 82, 95
2, 247962, Note_off_c, 0, 79, 100
2, 247968, Note_on_c, 0, 87, 96
2, 248058, Note_off_c, 0, 82, 100
2, 248064, Note_on_c, 0, 91, 96
2, 248154, Note_off_c, 0, 87, 100
2, 248160, Note_on_c, 0, 79, 97
2, 248252, Note_off_c, 0, 91, 100
2, 248348, Note_off_c, 0, 79, 100
2, 248352, Note_on_c, 0, 79, 98
2, 248448, Note_on_c, 0, 82, 98
2, 248536, Note_off_c, 0, 79, 100
2, 248544, Note_on_c, 0, 87, 98
2, 248632, Note_off_c, 0, 82, 100
2, 248640, Note_on_c, 0, 91, 99
2, 248728, Note_off_c, 0, 87, 100
2, 248736, Note_on_c, 0, 88, 99
2, 248824, Note_off_c, 0, 91, 100
2, 248924, Note_off_c, 0, 88, 100
2, 248928, Note_on_c, 0, 80, 100
2, 249024, Note_on_c, 0, 84, 100
2, 249110, Note_off_c, 0, 80, 100
2, 249120, Note_on_c, 0, 89, 101
2, 249208, Note_off_c, 0, 84, 100
2, 249216, Note_on_c, 0, 92, 101
2, 249304, Note_off_c, 0, 89, 100
2, 249312, Note_on_c, 0, 80, 102
2, 249398, Note_off_c, 0, 92, 100
2, 249494, Note_off_c, 0, 80, 100
2, 249504, Note_on_c, 0, 82, 103
2, 249600, Note_on_c, 0, 84, 103
2, 249690, Note_off_c, 0, 82, 100
2, 249696, Note_on_c, 0, 91, 103
2, 249786, Note_off_c, 0, 84, 100
2, 249792, Note_on_c, 0, 94, 104
2, 249886, Note_off_c, 0, 91, 100
2, 249888, Note_on_c, 0, 82, 104
2, 249978, Note_off_c, 0, 94, 100
2, 250068, Note_off_c, 0, 82, 100
2, 250080, Note_on_c, 0, 80, 105
2, 250176, Note_on_c, 0, 84, 106
2, 250270, Note_off_c, 0, 80, 100
2, 250272, Note_on_c, 0, 89, 106
2, 250360, Note_off_c, 0, 84, 100
2, 250368, Note_on_c, 0, 92, 106
2, 250454, Note_off_c, 0, 89, 100
2, 250464, Note_on_c, 0, 80, 107
2, 250558, Note_off_c, 0, 92, 100
2, 250646, Note_off_c, 0, 80, 100
2, 250656, Note_on_c, 0, 80, 108
2, 250752, Note_on_c, 0, 82, 108
2, 250846, Note_off_c, 0, 80, 100
2, 250848, Note_on_c, 0, 89, 109
2, 250940, Note_off_c, 0, 82, 100
2, 250944, Note_on_c, 0, 92, 109
2, 251036, Note_off_c, 0, 89, 100
2, 251040, Note_on_c, 0, 80, 109
2, 251132, Note_off_c, 0, 92, 100
2, 251132, Note_off_c, 0, 80, 100
2, 251232, Note_on_c, 0, 79, 110
2, 251328, Note_on_c, 0, 82, 111
2, 251422, Note_off_c, 0, 79, 100
2, 251424, Note_on_c, 0, 87, 111
2, 251518, Note_off_c, 0, 82, 100
2, 251520, Note_on_c, 0, 91, 111
2, 251608, Note_off_c, 0, 87, 100
2, 251616, Note_on_c, 0, 79, 112
2, 251706, Note_off_c, 0, 91, 100
2, 251802, Note_off_c, 0, 79, 100
2, 251808, Note_on_c, 0, 92, 113
2, 251904, Note_on_c, 0, 89, 113
2, 251996, Note_off_c, 0, 92, 100
2, 252000, Note_on_c, 0, 84, 114
2, 252092, Note_off_c, 0, 89, 100
2, 252096, Note_on_c, 0, 80, 114
2, 252190, Note_off_c, 0, 84, 100
2, 252192, Note_on_c, 0, 92, 114
2, 252284, Note_off_c, 0, 80, 100
2, 252284, Note_off_c, 0, 92, 100
2, 252384, Note_on_c, 0, 94, 115
2, 252480, Note_on_c, 0, 91, 116
2, 252570, Note_off_c, 0, 94, 100
2, 252576, Note_on_c, 0, 87, 116
2, 252666, Note_off_c, 0, 91, 100
2, 252672, Note_on_c, 0, 82, 117
2, 252762, Note_off_c, 0, 87, 100
2, 252768, Note_on_c, 0, 94, 117
2, 252852, Note_off_c, 0, 82, 100
2, 252950, Note_off_c, 0, 94, 100
2, 252960, Note_on_c, 0, 94, 118
2, 253056, Note_on_c, 0, 89, 118
2, 253150, Note_off_c, 0, 94, 100
2, 253152, Note_on_c, 0, 86, 119
2, 253244, Note_off_c, 0, 89, 100
2, 253248, Note_on_c, 0, 82, 119
2, 253342, Note_off_c, 0, 86, 100
2, 253344, Note_on_c, 0, 94, 119
2, 253430, Note_off_c, 0, 82, 100
2, 253436, Note_off_c, 0, 94, 100
2, 253440, Control_c, 0, 64, 127
2, 253440, Note_on_c, 0, 55, 120
2, 253532, Note_off_c, 0, 55, 100
2, 253536, Note_on_c, 0, 63, 120
2, 253628, Note_off_c, 0, 63, 100
2, 253632, Note_on_c, 0, 58, 120
2, 253724, Note_off_c, 0, 58, 100
2, 253728, Note_on_c, 0, 67, 120
2, 253820, Note_off_c, 0, 67, 100
2, 253824, Note_on_c, 0, 63, 120
2, 253916, Note_off_c, 0, 63, 100
2, 253920, Note_on_c, 0, 70, 120
2, 254012, Note_off_c, 0, 70, 100
2, 254016, Note_on_c, 0, 67, 120
2, 254108, Note_off_c, 0, 67, 100
2, 254112, Note_on_c, 0, 75, 120
2, 254204, Note_off_c, 0, 75, 100
2, 254208, Note_on_c, 0, 70, 120
2, 254300, Note_off_c, 0, 70, 100
2, 254304, Note_on_c, 0, 79, 120
2, 254396, Note_off_c, 0, 79, 100
2, 254400, Note_on_c, 0, 75, 120
2, 254492, Note_off_c, 0, 75, 100
2, 254496, Note_on_c, 0, 82, 120
2, 254588, Note_off_c, 0, 82, 100
2, 254592, Note_on_c, 0, 79, 120
2, 254684, Note_off_c, 0, 79, 100
2, 254688, Note_on_c, 0, 87, 120
2, 254780, Note_off_c, 0, 87, 100
2, 254784, Note_on_c, 0, 82, 120
2, 254876, Note_off_c, 0, 82, 100
2, 254880, Note_on_c, 0, 91, 120
2, 254972, Note_off_c, 0, 91, 100
2, 254976, Note_on_c, 0, 87, 120
2, 255068, Note_off_c, 0, 87, 100
2, 255072, Note_on_c, 0, 94, 120
2, 255164, Note_off_c, 0, 94, 100
2, 255164, Control_c, 0, 64, 0
2, 255168, Note_on_c, 0, 93, 120
2, 255260, Note_off_c, 0, 93, 100
2, 255264, Note_on_c, 0, 94, 120
2, 255356, Note_off_c, 0, 94, 100
2, 255360, Note_on_c, 0, 93, 120
2, 255452, Note_off_c, 0, 93, 100
2, 255456, Note_on_c, 0, 94, 120
2, 255548, Note_off_c, 0, 94, 100
2, 255552, Note_on_c, 0, 93, 120
2, 255644, Note_off_c, 0, 93, 100
2, 255648, Note_on_c, 0, 94, 120
2, 255740, Note_off_c, 0, 94, 100
2, 255744, Note_on_c, 0, 96, 120
2, 255836, Note_off_c, 0, 96, 100
2, 255840, Note_on_c, 0, 94, 120
2, 255932, Note_off_c, 0, 94, 100
2, 255936, Note_on_c, 0, 92, 120
2, 256028, Note_off_c, 0, 92, 100
2, 256032, Note_on_c, 0, 91, 120
2, 256124, Note_off_c, 0, 91, 100
2, 256128, Note_on_c, 0, 89, 120
2, 256220, Note_off_c, 0, 89, 100
2, 256224, Note_on_c, 0, 87, 120
2, 256316, Note_off_c, 0, 87, 100
2, 256320, Note_on_c, 0, 86, 120
2, 256412, Note_off_c, 0, 86, 100
2, 256416, Note_on_c, 0, 84, 120
2, 256508, Note_off_c, 0, 84, 100
2, 256512, Note_on_c, 0, 82, 120
2, 256604, Note_off_c, 0, 82, 100
2, 256608, Note_on_c, 0, 80, 120
2, 256700, Note_off_c, 0, 80, 100
2, 256704, Note_on_c, 0, 79, 120
2, 256796, Note_off_c, 0, 79, 100
2, 256800, Note_on_c, 0, 77, 120
2, 256892, Note_off_c, 0, 77, 100
2, 256896, Note_on_c, 0, 75, 120
2, 256988, Note_off_c, 0, 75, 100
2, 256992, Note_on_c, 0, 74, 120
2, 257084, Note_off_c, 0, 74, 100
2, 257088, Note_on_c, 0, 72, 120
2, 257180, Note_off_c, 0, 72, 100
2, 257184, Note_on_c, 0, 70, 120
2, 257276, Note_off_c, 0, 70, 100
2, 257280, Note_on_c, 0, 68, 120
2, 257372, Note_off_c, 0, 68, 100
2, 257376, Note_on_c, 0, 67, 120
2, 257468, Note_off_c, 0, 67, 100
2, 257472, Note_on_c, 0, 65, 120
2, 257564, Note_off_c, 0, 65, 100
2, 257568, Note_on_c, 0, 63, 120
2, 257660, Note_off_c, 0, 63, 100
2, 257664, Note_on_c, 0, 62, 120
2, 257756, Note_off_c, 0, 62, 100
2, 257760, Note_on_c, 0, 65, 120
2, 257852, Note_off_c, 0, 65, 100
2, 257856, Note_on_c, 0, 68, 120
2, 257948, Note_off_c, 0, 68, 100
2, 257952, Note_on_c, 0, 62, 120
2, 258044, Note_off_c, 0, 62, 100
2, 258048, Control_c, 0, 64, 127
2, 258048, Note_on_c, 0, 55, 120
2, 258140, Note_off_c, 0, 55, 100
2, 258144, Note_on_c, 0, 63, 120
2, 258236, Note_off_c, 0, 63, 100
2, 258240, Note_on_c, 0, 58, 120
2, 258332, Note_off_c, 0, 58, 100
2, 258336, Note_on_c, 0, 67, 120
2, 258428, Note_off_c, 0, 67, 100
2, 258432, Note_on_c, 0, 63, 120
2, 258524, Note_off_c, 0, 63, 100
2, 258528, Note_on_c, 0, 70, 120
2, 258620, Note_off_c, 0, 70, 100
2, 258624, Note_on_c, 0, 67, 120
2, 258716, Note_off_c, 0, 67, 100
2, 258720, Note_on_c, 0, 75, 120
2, 258812, Note_off_c, 0, 75, 100
2, 258816, Note_on_c, 0, 70, 120
2, 258908, Note_off_c, 0, 70, 100
2, 258912, Note_on_c, 0, 79, 120
2, 259004, Note_off_c, 0, 79, 100
2, 259008, Note_on_c, 0, 75, 120
2, 259100, Note_off_c, 0, 75, 100
2, 259104, Note_on_c, 0, 82, 120
2, 259196, Note_off_c, 0, 82, 100
2, 259200, Note_on_c, 0, 79, 120
2, 259292, Note_off_c, 0, 79, 100
2, 259296, Note_on_c, 0, 87, 120
2, 259388, Note_off_c, 0, 87, 100
2, 259392, Note_on_c, 0, 82, 120
2, 259484, Note_off_c, 0, 82, 100
2, 259488, Note_on_c, 0, 91, 120
2, 259580, Note_off_c, 0, 91, 100
2, 259584, Note_on_c, 0, 87, 120
2, 259676, Note_off_c, 0, 87, 100
2, 259680, Note_on_c, 0, 94, 120
2, 259772, Note_off_c, 0, 94, 100
2, 259772, Control_c, 0, 64, 0
2, 259776, Note_on_c, 0, 93, 120
2, 259868, Note_off_c, 0, 93, 100
2, 259872, Note_on_c, 0, 94, 120
2, 259964, Note_off_c, 0, 94, 100
2, 259968, Note_on_c, 0, 93, 120
2, 260060, Note_off_c, 0, 93, 100
2, 260064, Note_on_c, 0, 94, 120
2, 260156, Note_off_c, 0, 94, 100
2, 260160, Note_on_c, 0, 93, 120
2, 260252, Note_off_c, 0, 93, 100
2, 260256, Note_on_c, 0, 94, 120
2, 260348, Note_off_c, 0, 94, 100
2, 260352, Note_on_c, 0, 96, 120
2, 260444, Note_off_c, 0, 96, 100
2, 260448, Note_on_c, 0, 94, 120
2, 260540, Note_off_c, 0, 94, 100
2, 260544, Note_on_c, 0, 92, 120
2, 260636, Note_off_c, 0, 92, 100
2, 260640, Note_on_c, 0, 91, 120
2, 260732, Note_off_c, 0, 91, 100
2, 260736, Note_on_c, 0, 89, 120
2, 260828, Note_off_c, 0, 89, 100
2, 260832, Note_on_c, 0, 87, 120
2, 260924, Note_off_c, 0, 87, 100
2, 260928, Note_on_c, 0, 85, 120
2, 261020, Note_off_c, 0, 85, 100
2, 261024, Note_on_c, 0, 84, 120
2, 261116, Note_off_c, 0, 84, 100
2, 261120, Note_on_c, 0, 82, 120
2, 261212, Note_off_c, 0, 82, 100
2, 261216, Note_on_c, 0, 80, 120
2, 261308, Note_off_c, 0, 80, 100
2, 261312, Note_on_c, 0, 79, 120
2, 261404, Note_off_c, 0, 79, 100
2, 261408, Note_on_c, 0, 77, 120
2, 261500, Note_off_c, 0, 77, 100
2, 261504, Note_on_c, 0, 75, 120
2, 261596, Note_off_c, 0, 75, 100
2, 261600, Note_on_c, 0, 73, 120
2, 261692, Note_off_c, 0, 73, 100
2, 261696, Note_on_c, 0, 72, 120
2, 261788, Note_off_c, 0, 72, 100
2, 261792, Note_on_c, 0, 70, 120
2, 261884, Note_off_c, 0, 70, 100
2, 261888, Note_on_c, 0, 68, 120
2, 261980, Note_off_c, 0, 68, 100
2, 261984, Note_on_c, 0, 67, 120
2, 262076, Note_off_c, 0, 67, 100
2, 262080, Note_on_c, 0, 65, 120
2, 262172, Note_off_c, 0, 65, 100
2, 262176, Note_on_c, 0, 63, 120
2, 262268, Note_off_c, 0, 63, 100
2, 262272, Note_on_c, 0, 62, 120
2, 262364, Note_off_c, 0, 62, 100
2, 262368, Note_on_c, 0, 65, 120
2, 262460, Note_off_c, 0, 65, 100
2, 262464, Note_on_c, 0, 68, 120
2, 262556, Note_off_c, 0, 68, 100
2, 262560, Note_on_c, 0, 62, 120
2, 262652, Note_off_c, 0, 62, 100
2, 262656, Control_c, 0, 64, 127
2, 262656, Note_on_c, 0, 63, 120
2, 263232, Note_on_c, 0, 75, 120
2, 263804, Note_off_c, 0, 63, 64
2, 263808, Note_on_c, 0, 78, 120
2, 264380, Note_off_c, 0, 75, 64
2, 264384, Note_on_c, 0, 83, 120
2, 264956, Note_off_c, 0, 78, 64
2, 264960, Note_on_c, 0, 78, 120
2, 265532, Note_off_c, 0, 83, 64
2, 265536, Note_on_c, 0, 75, 120
2, 266108, Note_off_c, 0, 78, 64
2, 266112, Note_on_c, 0, 71, 120
2, 266684, Note_off_c, 0, 75, 64
2, 266688, Note_on_c, 0, 66, 120
2, 267260, Note_off_c, 0, 71, 100
2, 267260, Note_off_c, 0, 66, 100
2, 267260, Control_c, 0, 64, 0
2, 267264, Control_c, 0, 64, 127
2, 267264, Note_on_c, 0, 62, 120
2, 267840, Note_on_c, 0, 74, 120
2, 268412, Note_off_c, 0, 62, 64
2, 268416, Note_on_c, 0, 77, 120
2, 268988, Note_off_c, 0, 74, 64
2, 268992, Note_on_c, 0, 82, 120
2, 269564, Note_off_c, 0, 77, 64
2, 269568, Note_on_c, 0, 77, 120
2, 270140, Note_off_c, 0, 82, 64
2, 270144, Note_on_c, 0, 74, 120
2, 270716, Note_off_c, 0, 77, 64
2, 270720, Note_on_c, 0, 70, 120
2, 271292, Note_off_c, 0, 74, 64
2, 271296, Note_on_c, 0, 65, 120
2, 271868, Note_off_c, 0, 70, 100
2, 271868, Note_off_c, 0, 65, 100
2, 271868, Control_c, 0, 64, 0
2, 271872, Note_on_c, 0, 78, 80
2, 272060, Note_off_c, 0, 78, 100
2, 272256, Note_on_c, 0, 89, 80
2, 272300, Note_off_c, 0, 89, 100
2, 272304, Note_on_c, 0, 87, 80
2, 272348, Note_off_c, 0, 87, 100
2, 272352, Note_on_c, 0, 86, 80
2, 272444, Note_off_c, 0, 86, 100
2, 272448, Note_on_c, 0, 87, 80
2, 272636, Note_off_c, 0, 87, 100
2, 272832, Note_on_c, 0, 92, 80
2, 272876, Note_off_c, 0, 92, 100
2, 272880, Note_on_c, 0, 91, 80
2, 272924, Note_off_c, 0, 91, 100
2, 272928, Note_on_c, 0, 89, 80
2, 273020, Note_off_c, 0, 89, 100
2, 273024, Note_on_c, 0, 90, 80
2, 273212, Note_off_c, 0, 90, 100
2, 273408, Note_on_c, 0, 97, 80
2, 273452, Note_off_c, 0, 97, 100
2, 273456, Note_on_c, 0, 95, 80
2, 273500, Note_off_c, 0, 95, 100
2, 273504, Note_on_c, 0, 94, 80
2, 273596, Note_off_c, 0, 94, 100
2, 273600, Note_on_c, 0, 95, 80
2, 273788, Note_off_c, 0, 95, 100
2, 273984, Note_on_c, 0, 92, 80
2, 274028, Note_off_c, 0, 92, 100
2, 274032, Note_on_c, 0, 90, 80
2, 274076, Note_off_c, 0, 90, 100
2, 274080, Note_on_c, 0, 89, 80
2, 274172, Note_off_c, 0, 89, 100
2, 274176, Note_on_c, 0, 90, 80
2, 274364, Note_off_c, 0, 90, 100
2, 274560, Note_on_c, 0, 89, 80
2, 274604, Note_off_c, 0, 89, 100
2, 274608, Note_on_c, 0, 87, 80
2, 274652, Note_off_c, 0, 87, 100
2, 274656, Note_on_c, 0, 86, 80
2, 274748, Note_off_c, 0, 86, 100
2, 274752, Note_on_c, 0, 87, 80
2, 274940, Note_off_c, 0, 87, 100
2, 275136, Note_on_c, 0, 85, 80
2, 275180, Note_off_c, 0, 85, 100
2, 275184, Note_on_c, 0, 83, 80
2, 275228, Note_off_c, 0, 83, 100
2, 275232, Note_on_c, 0, 82, 80
2, 275324, Note_off_c, 0, 82, 100
2, 275328, Note_on_c, 0, 83, 80
2, 275516, Note_off_c, 0, 83, 100
2, 275712, Note_on_c, 0, 80, 80
2, 275756, Note_off_c, 0, 80, 100
2, 275760, Note_on_c, 0, 78, 80
2, 275804, Note_off_c, 0, 78, 100
2, 275808, Note_on_c, 0, 77, 80
2, 275900, Note_off_c, 0, 77, 100
2, 275904, Note_on_c, 0, 78, 80
2, 276284, Note_off_c, 0, 78, 100
2, 276480, Note_on_c, 0, 77, 80
2, 276668, Note_off_c, 0, 77, 100
2, 276864, Note_on_c, 0, 87, 80
2, 276908, Note_off_c, 0, 87, 100
2, 276912, Note_on_c, 0, 86, 80
2, 276956, Note_off_c, 0, 86, 100
2, 276960, Note_on_c, 0, 84, 80
2, 277052, Note_off_c, 0, 84, 100
2, 277056, Note_on_c, 0, 86, 80
2, 277244, Note_off_c, 0, 86, 100
2, 277440, Note_on_c, 0, 90, 80
2, 277484, Note_off_c, 0, 90, 100
2, 277488, Note_on_c, 0, 89, 80
2, 277532, Note_off_c, 0, 89, 100
2, 277536, Note_on_c, 0, 88, 80
2, 277628, Note_off_c, 0, 88, 100
2, 277632, Note_on_c, 0, 89, 80
2, 277820, Note_off_c, 0, 89, 100
2, 278016, Note_on_c, 0, 95, 80
2, 278060, Note_off_c, 0, 95, 100
2, 278064, Note_on_c, 0, 94, 80
2, 278108, Note_off_c, 0, 94, 100
2, 278112, Note_on_c, 0, 93, 80
2, 278204, Note_off_c, 0, 93, 100
2, 278208, Note_on_c, 0, 94, 80
2, 278396, Note_off_c, 0, 94, 100
2, 278592, Note_on_c, 0, 90, 80
2, 278636, Note_off_c, 0, 90, 100
2, 278640, Note_on_c, 0, 89, 80
2, 278684, Note_off_c, 0, 89, 100
2, 278688, Note_on_c, 0, 88, 80
2, 278780, Note_off_c, 0, 88, 100
2, 278784, Note_on_c, 0, 89, 80
2, 278972, Note_off_c, 0, 89, 100
2, 279168, Note_on_c, 0, 87, 80
2, 279212, Note_off_c, 0, 87, 100
2, 279216, Note_on_c, 0, 86, 80
2, 279260, Note_off_c, 0, 86, 100
2, 279264, Note_on_c, 0, 84, 80
2, 279356, Note_off_c, 0, 84, 100
2, 279360, Note_on_c, 0, 86, 80
2, 279548, Note_off_c, 0, 86, 100
2, 279744, Note_on_c, 0, 83, 80
2, 279788, Note_off_c, 0, 83, 100
2, 279792, Note_on_c, 0, 82, 80
2, 279836, Note_off_c, 0, 82, 100
2, 279840, Note_on_c, 0, 81, 80
2, 279932, Note_off_c, 0, 81, 100
2, 279936, Note_on_c, 0, 82, 80
2, 280124, Note_off_c, 0, 82, 100
2, 280320, Note_on_c, 0, 78, 80
2, 280364, Note_off_c, 0, 78, 100
2, 280368, Note_on_c, 0, 77, 80
2, 280412, Note_off_c, 0, 77, 100
2, 280416, Note_on_c, 0, 76, 80
2, 280508, Note_off_c, 0, 76, 100
2, 280512, Note_on_c, 0, 77, 80
2, 280700, Note_off_c, 0, 77, 100
2, 280896, Note_on_c, 0, 78, 80
2, 281084, Note_off_c, 0, 78, 100
2, 281088, Note_on_c, 0, 70, 80
2, 281088, Note_on_c, 0, 79, 90
2, 281184, Note_on_c, 0, 72, 80
2, 281278, Note_off_c, 0, 70, 100
2, 281280, Note_on_c, 0, 70, 80
2, 281374, Note_off_c, 0, 72, 100
2, 281376, Note_on_c, 0, 72, 80
2, 281470, Note_off_c, 0, 70, 100
2, 281472, Note_on_c, 0, 70, 80
2, 281566, Note_off_c, 0, 72, 100
2, 281568, Note_on_c, 0, 72, 80
2, 281660, Note_off_c, 0, 79, 100
2, 281662, Note_off_c, 0, 70, 100
2, 281664, Note_on_c, 0, 70, 80
2, 281664, Note_on_c, 0, 75, 90
2, 281758, Note_off_c, 0, 72, 100
2, 281760, Note_on_c, 0, 72, 80
2, 281854, Note_off_c, 0, 70, 100
2, 281856, Note_on_c, 0, 70, 80
2, 281950, Note_off_c, 0, 72, 100
2, 281952, Note_on_c, 0, 72, 80
2, 282046, Note_off_c, 0, 70, 100
2, 282048, Note_on_c, 0, 70, 80
2, 282142, Note_off_c, 0, 72, 100
2, 282144, Note_on_c, 0, 72, 80
2, 282236, Note_off_c, 0, 75, 100
2, 282238, Note_off_c, 0, 70, 100
2, 282240, Note_on_c, 0, 70, 80
2, 282240, Note_on_c, 0, 74, 90
2, 282334, Note_off_c, 0, 72, 100
2, 282336, Note_on_c, 0, 72, 80
2, 282430, Note_off_c, 0, 70, 100
2, 282432, Note_on_c, 0, 70, 80
2, 282526, Note_off_c, 0, 72, 100
2, 282528, Note_on_c, 0, 72, 80
2, 282622, Note_off_c, 0, 70, 100
2, 282624, Note_on_c, 0, 70, 80
2, 282718, Note_off_c, 0, 72, 100
2, 282720, Note_on_c, 0, 72, 80
2, 282812, Note_off_c, 0, 74, 100
2, 282814, Note_off_c, 0, 70, 100
2, 282816, Note_on_c, 0, 70, 80
2, 282816, Note_on_c, 0, 80, 90
2, 282910, Note_off_c, 0, 72, 100
2, 282912, Note_on_c, 0, 72, 80
2, 283006, Note_off_c, 0, 70, 100
2, 283008, Note_on_c, 0, 70, 80
2, 283102, Note_off_c, 0, 72, 100
2, 283104, Note_on_c, 0, 72, 80
2, 283198, Note_off_c, 0, 70, 100
2, 283200, Note_on_c, 0, 70, 80
2, 283294, Note_off_c, 0, 72, 100
2, 283296, Note_on_c, 0, 72, 80
2, 283388, Note_off_c, 0, 80, 100
2, 283390, Note_off_c, 0, 70, 100
2, 283392, Note_on_c, 0, 70, 80
2, 283392, Note_on_c, 0, 79, 90
2, 283486, Note_off_c, 0, 72, 100
2, 283488, Note_on_c, 0, 72, 80
2, 283582, Note_off_c, 0, 70, 100
2, 283584, Note_on_c, 0, 70, 80
2, 283678, Note_off_c, 0, 72, 100
2, 283680, Note_on_c, 0, 72, 80
2, 283774, Note_off_c, 0, 70, 100
2, 283776, Note_on_c, 0, 70, 80
2, 283870, Note_off_c, 0, 72, 100
2, 283872, Note_on_c, 0, 72, 80
2, 283964, Note_off_c, 0, 79, 100
2, 283966, Note_off_c, 0, 70, 100
2, 283968, Note_on_c, 0, 70, 80
2, 283968, Note_on_c, 0, 75, 90
2, 284062, Note_off_c, 0, 72, 100
2, 284064, Note_on_c, 0, 72, 80
2, 284158, Note_off_c, 0, 70, 100
2, 284160, Note_on_c, 0, 70, 80
2, 284254, Note_off_c, 0, 72, 100
2, 284256, Note_on_c, 0, 72, 80
2, 284350, Note_off_c, 0, 70, 100
2, 284352, Note_on_c, 0, 70, 80
2, 284446, Note_off_c, 0, 72, 100
2, 284448, Note_on_c, 0, 72, 80
2, 284540, Note_off_c, 0, 75, 100
2, 284542, Note_off_c, 0, 70, 100
2, 284544, Note_on_c, 0, 70, 80
2, 284544, Note_on_c, 0, 74, 90
2, 284638, Note_off_c, 0, 72, 100
2, 284640, Note_on_c, 0, 72, 80
2, 284734, Note_off_c, 0, 70, 100
2, 284736, Note_on_c, 0, 70, 80
2, 284830, Note_off_c, 0, 72, 100
2, 284832, Note_on_c, 0, 72, 80
2, 284926, Note_off_c, 0, 70, 100
2, 284928, Note_on_c, 0, 70, 80
2, 285022, Note_off_c, 0, 72, 100
2, 285024, Note_on_c, 0, 72, 80
2, 285116, Note_off_c, 0, 74, 100
2, 285118, Note_off_c, 0, 70, 100
2, 285120, Note_on_c, 0, 70, 80
2, 285120, Note_on_c, 0, 80, 90
2, 285214, Note_off_c, 0, 72, 100
2, 285216, Note_on_c, 0, 72, 80
2, 285310, Note_off_c, 0, 70, 100
2, 285312, Note_on_c, 0, 70, 80
2, 285406, Note_off_c, 0, 72, 100
2, 285408, Note_on_c, 0, 72, 80
2, 285502, Note_off_c, 0, 70, 100
2, 285504, Note_on_c, 0, 70, 80
2, 285598, Note_off_c, 0, 72, 100
2, 285600, Note_on_c, 0, 72, 80
2, 285692, Note_off_c, 0, 80, 100
2, 285694, Note_off_c, 0, 70, 100
2, 285696, Note_on_c, 0, 79, 80
2, 285696, Note_on_c, 0, 70, 80
2, 285790, Note_off_c, 0, 72, 100
2, 285792, Note_on_c, 0, 72, 80
2, 285886, Note_off_c, 0, 79, 100
2, 285886, Note_off_c, 0, 70, 100
2, 285888, Note_on_c, 0, 74, 80
2, 285974, Note_off_c, 0, 72, 100
2, 285984, Note_on_c, 0, 75, 80
2, 286074, Note_off_c, 0, 74, 100
2, 286080, Note_on_c, 0, 77, 80
2, 286144, Note_on_c, 0, 79, 80
2, 286166, Note_off_c, 0, 75, 100
2, 286202, Note_off_c, 0, 77, 100
2, 286208, Note_on_c, 0, 80, 80
2, 286264, Note_off_c, 0, 79, 100
2, 286272, Note_on_c, 0, 82, 80
2, 286328, Note_off_c, 0, 80, 100
2, 286368, Note_on_c, 0, 80, 80
2, 286462, Note_off_c, 0, 82, 100
2, 286464, Note_on_c, 0, 79, 80
2, 286528, Note_on_c, 0, 77, 80
2, 286552, Note_off_c, 0, 80, 100
2, 286584, Note_off_c, 0, 79, 100
2, 286592, Note_on_c, 0, 75, 80
2, 286650, Note_off_c, 0, 77, 100
2, 286656, Note_on_c, 0, 74, 80
2, 286712, Note_off_c, 0, 75, 100
2, 286720, Note_on_c, 0, 72, 80
2, 286776, Note_off_c, 0, 74, 100
2, 286784, Note_on_c, 0, 71, 80
2, 286842, Note_off_c, 0, 72, 100
2, 286844, Note_off_c, 0, 71, 100
2, 286848, Note_on_c, 0, 72, 80
2, 286944, Note_on_c, 0, 75, 80
2, 287030, Note_off_c, 0, 72, 100
2, 287040, Note_on_c, 0, 77, 80
2, 287126, Note_off_c, 0, 75, 100
2, 287136, Note_on_c, 0, 79, 80
2, 287230, Note_off_c, 0, 77, 100
2, 287232, Note_on_c, 0, 80, 80
2, 287316, Note_off_c, 0, 79, 100
2, 287328, Note_on_c, 0, 82, 80
2, 287418, Note_off_c, 0, 80, 100
2, 287424, Note_on_c, 0, 84, 80
2, 287512, Note_off_c, 0, 82, 100
2, 287520, Note_on_c, 0, 82, 80
2, 287608, Note_off_c, 0, 84, 100
2, 287616, Note_on_c, 0, 80, 80
2, 287680, Note_on_c, 0, 79, 80
2, 287710, Note_off_c, 0, 82, 100
2, 287736, Note_off_c, 0, 80, 100
2, 287744, Note_on_c, 0, 77, 80
2, 287802, Note_off_c, 0, 79, 100
2, 287808, Note_on_c, 0, 75, 80
2, 287866, Note_off_c, 0, 77, 100
2, 287872, Note_on_c, 0, 74, 80
2, 287930, Note_off_c, 0, 75, 100
2, 287936, Note_on_c, 0, 72, 80
2, 287994, Note_off_c, 0, 74, 100
2, 287996, Note_off_c, 0, 72, 100
2, 288000, Note_on_c, 0, 70, 80
2, 288096, Note_on_c, 0, 79, 80
2, 288190, Note_off_c, 0, 70, 100
2, 288192, Note_on_c, 0, 75, 80
2, 288280, Note_off_c, 0, 79, 100
2, 288288, Note_on_c, 0, 82, 80
2, 288382, Note_off_c, 0, 75, 100
2, 288384, Note_on_c, 0, 79, 80
2, 288476, Note_off_c, 0, 82, 100
2, 288480, Note_on_c, 0, 87, 80
2, 288566, Note_off_c, 0, 79, 100
2, 288576, Note_on_c, 0, 82, 80
2, 288666, Note_off_c, 0, 87, 100
2, 288672, Note_on_c, 0, 91, 80
2, 288760, Note_off_c, 0, 82, 100
2, 288768, Note_on_c, 0, 87, 80
2, 288860, Note_off_c, 0, 91, 100
2, 288864, Note_on_c, 0, 94, 80
2, 288954, Note_off_c, 0, 87, 100
2, 288960, Note_on_c, 0, 91, 80
2, 289052, Note_off_c, 0, 94, 100
2, 289056, Note_on_c, 0, 87, 80
2, 289146, Note_off_c, 0, 91, 100
2, 289148, Note_off_c, 0, 87, 100
2, 289152, Note_on_c, 0, 82, 80
2, 289532, Note_off_c, 0, 82, 100
2, 289728, Note_on_c, 0, 89, 80
2, 289776, Note_on_c, 0, 91, 80
2, 289818, Note_off_c, 0, 89, 100
2, 289824, Note_on_c, 0, 89, 80
2, 289858, Note_off_c, 0, 91, 100
2, 289872, Note_on_c, 0, 91, 80
2, 289912, Note_off_c, 0, 89, 100
2, 289920, Note_on_c, 0, 89, 80
2, 289958, Note_off_c, 0, 91, 100
2, 289968, Note_on_c, 0, 91, 80
2, 290010, Note_off_c, 0, 89, 100
2, 290016, Note_on_c, 0, 89, 80
2, 290050, Note_off_c, 0, 91, 100
2, 290064, Note_on_c, 0, 91, 80
2, 290104, Note_off_c, 0, 89, 100
2, 290112, Note_on_c, 0, 89, 80
2, 290150, Note_off_c, 0, 91, 100
2, 290160, Note_on_c, 0, 91, 80
2, 290202, Note_off_c, 0, 89, 100
2, 290208, Note_on_c, 0, 87, 80
2, 290242, Note_off_c, 0, 91, 100
2, 290256, Note_on_c, 0, 89, 80
2, 290296, Note_off_c, 0, 87, 100
2, 290300, Note_off_c, 0, 89, 100
2, 290304, Note_on_c, 0, 82, 80
2, 290304, Note_on_c, 0, 91, 90
2, 290400, Note_on_c, 0, 84, 80
2, 290494, Note_off_c, 0, 82, 100
2, 290496, Note_on_c, 0, 82, 80
2, 290590, Note_off_c, 0, 84, 100
2, 290592, Note_on_c, 0, 84, 80
2, 290686, Note_off_c, 0, 82, 100
2, 290688, Note_on_c, 0, 82, 80
2, 290782, Note_off_c, 0, 84, 100
2, 290784, Note_on_c, 0, 84, 80
2, 290876, Note_off_c, 0, 91, 100
2, 290878, Note_off_c, 0, 82, 100
2, 290880, Note_on_c, 0, 82, 80
2, 290880, Note_on_c, 0, 87, 90
2, 290974, Note_off_c, 0, 84, 100
2, 290976, Note_on_c, 0, 84, 80
2, 291070, Note_off_c, 0, 82, 100
2, 291072, Note_on_c, 0, 82, 80
2, 291166, Note_off_c, 0, 84, 100
2, 291168, Note_on_c, 0, 84, 80
2, 291262, Note_off_c, 0, 82, 100
2, 291264, Note_on_c, 0, 82, 80
2, 291358, Note_off_c, 0, 84, 100
2, 291360, Note_on_c, 0, 84, 80
2, 291452, Note_off_c, 0, 87, 100
2, 291454, Note_off_c, 0, 82, 100
2, 291456, Note_on_c, 0, 82, 80
2, 291456, Note_on_c, 0, 86, 90
2, 291550, Note_off_c, 0, 84, 100
2, 291552, Note_on_c, 0, 84, 80
2, 291646, Note_off_c, 0, 82, 100
2, 291648, Note_on_c, 0, 82, 80
2, 291742, Note_off_c, 0, 84, 100
2, 291744, Note_on_c, 0, 84, 80
2, 291838, Note_off_c, 0, 82, 100
2, 291840, Note_on_c, 0, 82, 80
2, 291934, Note_off_c, 0, 84, 100
2, 291936, Note_on_c, 0, 84, 80
2, 292028, Note_off_c, 0, 86, 100
2, 292030, Note_off_c, 0, 82, 100
2, 292032, Note_on_c, 0, 82, 80
2, 292032, Note_on_c, 0, 92, 90
2, 292126, Note_off_c, 0, 84, 100
2, 292128, Note_on_c, 0, 84, 80
2, 292222, Note_off_c, 0, 82, 100
2, 292224, Note_on_c, 0, 82, 80
2, 292318, Note_off_c, 0, 84, 100
2, 292320, Note_on_c, 0, 84, 80
2, 292414, Note_off_c, 0, 82, 100
2, 292416, Note_on_c, 0, 82, 80
2, 292510, Note_off_c, 0, 84, 100
2, 292512, Note_on_c, 0, 84, 80
2, 292604, Note_off_c, 0, 92, 100
2, 292606, Note_off_c, 0, 82, 100
2, 292608, Note_on_c, 0, 82, 80
2, 292608, Note_on_c, 0, 91, 90
2, 292702, Note_off_c, 0, 84, 100
2, 292704, Note_on_c, 0, 84, 80
2, 292798, Note_off_c, 0, 82, 100
2, 292800, Note_on_c, 0, 82, 80
2, 292894, Note_off_c, 0, 84, 100
2, 292896, Note_on_c, 0, 84, 80
2, 292990, Note_off_c, 0, 82, 100
2, 292992, Note_on_c, 0, 82, 80
2, 293086, Note_off_c, 0, 84, 100
2, 293088, Note_on_c, 0, 84, 80
2, 293180, Note_off_c, 0, 91, 100
2, 293182, Note_off_c, 0, 82, 100
2, 293184, Note_on_c, 0, 82, 80
2, 293184, Note_on_c, 0, 87, 90
2, 293278, Note_off_c, 0, 84, 100
2, 293280, Note_on_c, 0, 84, 80
2, 293374, Note_off_c, 0, 82, 100
2, 293376, Note_on_c, 0, 82, 80
2, 293470, Note_off_c, 0, 84, 100
2, 293472, Note_on_c, 0, 84, 80
2, 293566, Note_off_c, 0, 82, 100
2, 293568, Note_on_c, 0, 82, 80
2, 293662, Note_off_c, 0, 84, 100
2, 293664, Note_on_c, 0, 84, 80
2, 293756, Note_off_c, 0, 87, 100
2, 293758, Note_off_c, 0, 82, 100
2, 293760, Note_on_c, 0, 82, 80
2, 293760, Note_on_c, 0, 86, 90
2, 293854, Note_off_c, 0, 84, 100
2, 293856, Note_on_c, 0, 84, 80
2, 293950, Note_off_c, 0, 82, 100
2, 293952, Note_on_c, 0, 82, 80
2, 294046, Note_off_c, 0, 84, 100
2, 294048, Note_on_c, 0, 84, 80
2, 294142, Note_off_c, 0, 82, 100
2, 294144, Note_on_c, 0, 82, 80
2, 294238, Note_off_c, 0, 84, 100
2, 294240, Note_on_c, 0, 84, 80
2, 294332, Note_off_c, 0, 86, 100
2, 294334, Note_off_c, 0, 82, 100
2, 294336, Note_on_c, 0, 82, 80
2, 294336, Note_on_c, 0, 92, 90
2, 294430, Note_off_c, 0, 84, 100
2, 294432, Note_on_c, 0, 84, 80
2, 294526, Note_off_c, 0, 82, 100
2, 294528, Note_on_c, 0, 82, 80
2, 294622, Note_off_c, 0, 84, 100
2, 294624, Note_on_c, 0, 84, 80
2, 294718, Note_off_c, 0, 82, 100
2, 294720, Note_on_c, 0, 82, 80
2, 294814, Note_off_c, 0, 84, 100
2, 294816, Note_on_c, 0, 84, 80
2, 294908, Note_off_c, 0, 92, 100
2, 294910, Note_off_c, 0, 82, 100
2, 295006, Note_off_c, 0, 84, 100
2, 295104, Note_on_c, 0, 91, 80
2, 295104, Note_on_c, 0, 87, 80
2, 295292, Note_off_c, 0, 91, 100
2, 295292, Note_off_c, 0, 87, 100
2, 295296, Note_on_c, 0, 91, 80
2, 295296, Note_on_c, 0, 87, 80
2, 295484, Note_off_c, 0, 91, 100
2, 295484, Note_off_c, 0, 87, 100
2, 295488, Note_on_c, 0, 91, 80
2, 295488, Note_on_c, 0, 87, 80
2, 295676, Note_off_c, 0, 91, 100
2, 295676, Note_off_c, 0, 87, 100
2, 295680, Note_on_c, 0, 91, 80
2, 295680, Note_on_c, 0, 87, 80
2, 295868, Note_off_c, 0, 91, 100
2, 295868, Note_off_c, 0, 87, 100
2, 295872, Note_on_c, 0, 91, 80
2, 295872, Note_on_c, 0, 87, 80
2, 296060, Note_off_c, 0, 91, 100
2, 296060, Note_off_c, 0, 87, 100
2, 296256, Note_on_c, 0, 89, 80
2, 296256, Note_on_c, 0, 87, 80
2, 296444, Note_off_c, 0, 89, 100
2, 296444, Note_off_c, 0, 87, 100
2, 296448, Note_on_c, 0, 89, 80
2, 296448, Note_on_c, 0, 87, 80
2, 296636, Note_off_c, 0, 89, 100
2, 296636, Note_off_c, 0, 87, 100
2, 296640, Note_on_c, 0, 89, 80
2, 296640, Note_on_c, 0, 87, 80
2, 296828, Note_off_c, 0, 89, 100
2, 296828, Note_off_c, 0, 87, 100
2, 296832, Note_on_c, 0, 89, 80
2, 296832, Note_on_c, 0, 87, 80
2, 297020, Note_off_c, 0, 89, 100
2, 297020, Note_off_c, 0, 87, 100
2, 297024, Note_on_c, 0, 89, 80
2, 297024, Note_on_c, 0, 87, 80
2, 297212, Note_off_c, 0, 89, 100
2, 297212, Note_off_c, 0, 87, 100
2, 297408, Note_on_c, 0, 91, 80
2, 297408, Note_on_c, 0, 87, 80
2, 297596, Note_off_c, 0, 91, 100
2, 297596, Note_off_c, 0, 87, 100
2, 297600, Note_on_c, 0, 91, 80
2, 297600, Note_on_c, 0, 87, 80
2, 297788, Note_off_c, 0, 91, 100
2, 297788, Note_off_c, 0, 87, 100
2, 297792, Note_on_c, 0, 91, 80
2, 297792, Note_on_c, 0, 87, 80
2, 297980, Note_off_c, 0, 91, 100
2, 297980, Note_off_c, 0, 87, 100
2, 297984, Note_on_c, 0, 91, 80
2, 297984, Note_on_c, 0, 87, 80
2, 298172, Note_off_c, 0, 91, 100
2, 298172, Note_off_c, 0, 87, 100
2, 298176, Note_on_c, 0, 91, 80
2, 298176, Note_on_c, 0, 87, 80
2, 298364, Note_off_c, 0, 91, 100
2, 298364, Note_off_c, 0, 87, 100
2, 298368, Note_on_c, 0, 89, 80
2, 298368, Note_on_c, 0, 86, 80
2, 298556, Note_off_c, 0, 89, 100
2, 298556, Note_off_c, 0, 86, 100
2, 298560, Note_on_c, 0, 89, 80
2, 298560, Note_on_c, 0, 86, 80
2, 298748, Note_off_c, 0, 89, 100
2, 298748, Note_off_c, 0, 86, 100
2, 298752, Note_on_c, 0, 89, 80
2, 298752, Note_on_c, 0, 86, 80
2, 298940, Note_off_c, 0, 89, 100
2, 298940, Note_off_c, 0, 86, 100
2, 298944, Note_on_c, 0, 89, 80
2, 298944, Note_on_c, 0, 86, 80
2, 299132, Note_off_c, 0, 89, 100
2, 299132, Note_off_c, 0, 86, 100
2, 299136, Note_on_c, 0, 89, 80
2, 299136, Note_on_c, 0, 86, 80
2, 299324, Note_off_c, 0, 89, 100
2, 299324, Note_off_c, 0, 86, 100
2, 299328, Note_on_c, 0, 89, 80
2, 299328, Note_on_c, 0, 86, 80
2, 299516, Note_off_c, 0, 89, 100
2, 299516, Note_off_c, 0, 86, 100
2, 299904, Note_on_c, 0, 85, 91
2, 299904, Note_on_c, 0, 97, 91
2, 300476, Note_off_c, 0, 85, 100
2, 300476, Note_off_c, 0, 97, 100
2, 300480, Note_on_c, 0, 96, 92
2, 300480, Note_on_c, 0, 84, 92
2, 300668, Note_off_c, 0, 96, 100
2, 300668, Note_off_c, 0, 84, 100
2, 301056, Note_on_c, 0, 71, 94
2, 301056, Note_on_c, 0, 83, 94
2, 301628, Note_off_c, 0, 71, 100
2, 301628, Note_off_c, 0, 83, 100
2, 301632, Note_on_c, 0, 82, 95
2, 301632, Note_on_c, 0, 70, 95
2, 301820, Note_off_c, 0, 82, 100
2, 301820, Note_off_c, 0, 70, 100
2, 302208, Note_on_c, 0, 61, 97
2, 302208, Note_on_c, 0, 73, 97
2, 302780, Note_off_c, 0, 61, 100
2, 302780, Note_off_c, 0, 73, 100
2, 302784, Note_on_c, 0, 72, 98
2, 302784, Note_on_c, 0, 60, 98
2, 302972, Note_off_c, 0, 72, 100
2, 302972, Note_off_c, 0, 60, 100
2, 303360, Note_on_c, 0, 47, 100
2, 303360, Note_on_c, 0, 59, 100
2, 303932, Note_off_c, 0, 47, 100
2, 303932, Note_off_c, 0, 59, 100
2, 303936, Note_on_c, 0, 58, 101
2, 303936, Note_on_c, 0, 46, 101
2, 304124, Note_off_c, 0, 58, 100
2, 304124, Note_off_c, 0, 46, 100
2, 304320, Note_on_c, 0, 70, 102
2, 304320, Note_on_c, 0, 58, 102
2, 304508, Note_off_c, 0, 70, 100
2, 304508, Note_off_c, 0, 58, 100
2, 304512, Note_on_c, 0, 70, 103
2, 304512, Note_on_c, 0, 58, 103
2, 304700, Note_off_c, 0, 70, 100
2, 304700, Note_off_c, 0, 58, 100
2, 304896, Note_on_c, 0, 68, 104
2, 304896, Note_on_c, 0, 56, 104
2, 305084, Note_off_c, 0, 68, 100
2, 305084, Note_off_c, 0, 56, 100
2, 305088, Note_on_c, 0, 67, 104
2, 305088, Note_on_c, 0, 55, 104
2, 305276, Note_off_c, 0, 67, 100
2, 305276, Note_off_c, 0, 55, 100
2, 305472, Note_on_c, 0, 67, 105
2, 305472, Note_on_c, 0, 55, 105
2, 305660, Note_off_c, 0, 67, 100
2, 305660, Note_off_c, 0, 55, 100
2, 305664, Note_on_c, 0, 65, 106
2, 305664, Note_on_c, 0, 53, 106
2, 305852, Note_off_c, 0, 65, 100
2, 305852, Note_off_c, 0, 53, 100
2, 306048, Note_on_c, 0, 63, 107
2, 306048, Note_on_c, 0, 51, 107
2, 306236, Note_off_c, 0, 63, 100
2, 306236, Note_off_c, 0, 51, 100
2, 306240, Note_on_c, 0, 62, 107
2, 306240, Note_on_c, 0, 50, 107
2, 306428, Note_off_c, 0, 62, 100
2, 306428, Note_off_c, 0, 50, 100
2, 306624, Note_on_c, 0, 82, 108
2, 306624, Note_on_c, 0, 70, 108
2, 306812, Note_off_c, 0, 82, 100
2, 306812, Note_off_c, 0, 70, 100
2, 306816, Note_on_c, 0, 82, 109
2, 306816, Note_on_c, 0, 70, 109
2, 307004, Note_off_c, 0, 82, 100
2, 307004, Note_off_c, 0, 70, 100
2, 307200, Note_on_c, 0, 80, 110
2, 307200, Note_on_c, 0, 68, 110
2, 307388, Note_off_c, 0, 80, 100
2, 307388, Note_off_c, 0, 68, 100
2, 307392, Note_on_c, 0, 79, 110
2, 307392, Note_on_c, 0, 67, 110
2, 307580, Note_off_c, 0, 79, 100
2, 307580, Note_off_c, 0, 67, 100
2, 307776, Note_on_c, 0, 79, 111
2, 307776, Note_on_c, 0, 67, 111
2, 307964, Note_off_c, 0, 79, 100
2, 307964, Note_off_c, 0, 67, 100
2, 307968, Note_on_c, 0, 77, 112
2, 307968, Note_on_c, 0, 65, 112
2, 308156, Note_off_c, 0, 77, 100
2, 308156, Note_off_c, 0, 65, 100
2, 308352, Note_on_c, 0, 75, 113
2, 308352, Note_on_c, 0, 63, 113
2, 308540, Note_off_c, 0, 75, 100
2, 308540, Note_off_c, 0, 63, 100
2, 308544, Note_on_c, 0, 74, 113
2, 308544, Note_on_c, 0, 62, 113
2, 308732, Note_off_c, 0, 74, 100
2, 308732, Note_off_c, 0, 62, 100
2, 308928, Note_on_c, 0, 75, 114
2, 308928, Note_on_c, 0, 67, 114
2, 308928, Note_on_c, 0, 63, 114
2, 309116, Note_off_c, 0, 75, 100
2, 309116, Note_off_c, 0, 67, 100
2, 309116, Note_off_c, 0, 63, 100
2, 309120, Note_on_c, 0, 70, 115
2, 309120, Note_on_c, 0, 67, 115
2, 309120, Note_on_c, 0, 63, 115
2, 309308, Note_off_c, 0, 70, 100
2, 309308, Note_off_c, 0, 67, 100
2, 309308, Note_off_c, 0, 63, 100
2, 309504, Note_on_c, 0, 68, 116
2, 309504, Note_on_c, 0, 63, 116
2, 309504, Note_on_c, 0, 60, 116
2, 309692, Note_off_c, 0, 68, 100
2, 309692, Note_off_c, 0, 63, 100
2, 309692, Note_off_c, 0, 60, 100
2, 309696, Note_on_c, 0, 67, 116
2, 309696, Note_on_c, 0, 63, 116
2, 309696, Note_on_c, 0, 60, 116
2, 309884, Note_off_c, 0, 67, 100
2, 309884, Note_off_c, 0, 63, 100
2, 309884, Note_off_c, 0, 60, 100
2, 310080, Note_on_c, 0, 67, 117
2, 310080, Note_on_c, 0, 60, 117
2, 310080, Note_on_c, 0, 56, 117
2, 310268, Note_off_c, 0, 67, 100
2, 310268, Note_off_c, 0, 60, 100
2, 310268, Note_off_c, 0, 56, 100
2, 310272, Note_on_c, 0, 65, 118
2, 310272, Note_on_c, 0, 60, 118
2, 310272, Note_on_c, 0, 56, 118
2, 310460, Note_off_c, 0, 65, 100
2, 310460, Note_off_c, 0, 60, 100
2, 310460, Note_off_c, 0, 56, 100
2, 310656, Note_on_c, 0, 63, 119
2, 310656, Note_on_c, 0, 56, 119
2, 310656, Note_on_c, 0, 53, 119
2, 310844, Note_off_c, 0, 63, 100
2, 310844, Note_off_c, 0, 56, 100
2, 310844, Note_off_c, 0, 53, 100
2, 310848, Note_on_c, 0, 62, 119
2, 310848, Note_on_c, 0, 56, 119
2, 310848, Note_on_c, 0, 53, 119
2, 311036, Note_off_c, 0, 62, 100
2, 311036, Note_off_c, 0, 56, 100
2, 311036, Note_off_c, 0, 53, 100
2, 311040, Note_on_c, 0, 51, 120
2, 311136, Note_on_c, 0, 53, 120
2, 311230, Note_off_c, 0, 51, 100
2, 311232, Note_on_c, 0, 55, 120
2, 311324, Note_off_c, 0, 53, 100
2, 311328, Note_on_c, 0, 56, 120
2, 311422, Note_off_c, 0, 55, 100
2, 311424, Note_on_c, 0, 58, 120
2, 311488, Note_on_c, 0, 60, 120
2, 311518, Note_off_c, 0, 56, 100
2, 311544, Note_off_c, 0, 58, 100
2, 311552, Note_on_c, 0, 62, 120
2, 311610, Note_off_c, 0, 60, 100
2, 311616, Note_on_c, 0, 63, 120
2, 311674, Note_off_c, 0, 62, 100
2, 311680, Note_on_c, 0, 65, 120
2, 311738, Note_off_c, 0, 63, 100
2, 311744, Note_on_c, 0, 67, 120
2, 311802, Note_off_c, 0, 65, 100
2, 311808, Note_on_c, 0, 68, 120
2, 311866, Note_off_c, 0, 67, 100
2, 311872, Note_on_c, 0, 70, 120
2, 311930, Note_off_c, 0, 68, 100
2, 311936, Note_on_c, 0, 72, 120
2, 311992, Note_off_c, 0, 70, 100
2, 312000, Note_on_c, 0, 74, 120
2, 312058, Note_off_c, 0, 72, 100
2, 312096, Note_on_c, 0, 62, 120
2, 312180, Note_off_c, 0, 74, 100
2, 312188, Note_off_c, 0, 62, 100
2, 312192, Note_on_c, 0, 63, 120
2, 312288, Note_on_c, 0, 65, 120
2, 312374, Note_off_c, 0, 63, 100
2, 312384, Note_on_c, 0, 67, 120
2, 312472, Note_off_c, 0, 65, 100
2, 312480, Note_on_c, 0, 68, 120
2, 312574, Note_off_c, 0, 67, 100
2, 312576, Note_on_c, 0, 70, 120
2, 312640, Note_on_c, 0, 72, 120
2, 312670, Note_off_c, 0, 68, 100
2, 312698, Note_off_c, 0, 70, 100
2, 312704, Note_on_c, 0, 74, 120
2, 312762, Note_off_c, 0, 72, 100
2, 312768, Note_on_c, 0, 75, 120
2, 312824, Note_off_c, 0, 74, 100
2, 312832, Note_on_c, 0, 77, 120
2, 312890, Note_off_c, 0, 75, 100
2, 312896, Note_on_c, 0, 79, 120
2, 312954, Note_off_c, 0, 77, 100
2, 312960, Note_on_c, 0, 80, 120
2, 313018, Note_off_c, 0, 79, 100
2, 313024, Note_on_c, 0, 82, 120
2, 313082, Note_off_c, 0, 80, 100
2, 313088, Note_on_c, 0, 84, 120
2, 313146, Note_off_c, 0, 82, 100
2, 313152, Note_on_c, 0, 86, 120
2, 313210, Note_off_c, 0, 84, 100
2, 313248, Note_on_c, 0, 74, 120
2, 313340, Note_off_c, 0, 74, 100
2, 313342, Note_off_c, 0, 86, 100
2, 313344, Note_on_c, 0, 75, 120
2, 313440, Note_on_c, 0, 77, 120
2, 313532, Note_off_c, 0, 75, 100
2, 313536, Note_on_c, 0, 79, 120
2, 313622, Note_off_c, 0, 77, 100
2, 313632, Note_on_c, 0, 80, 120
2, 313722, Note_off_c, 0, 79, 100
2, 313728, Note_on_c, 0, 82, 120
2, 313792, Note_on_c, 0, 84, 120
2, 313820, Note_off_c, 0, 80, 100
2, 313850, Note_off_c, 0, 82, 100
2, 313856, Note_on_c, 0, 86, 120
2, 313914, Note_off_c, 0, 84, 100
2, 313920, Note_on_c, 0, 87, 120
2, 313978, Note_off_c, 0, 86, 100
2, 314016, Note_on_c, 0, 89, 120
2, 314104, Note_off_c, 0, 87, 100
2, 314112, Note_on_c, 0, 91, 120
2, 314202, Note_off_c, 0, 89, 100
2, 314208, Note_on_c, 0, 92, 120
2, 314294, Note_off_c, 0, 91, 100
2, 314304, Note_on_c, 0, 94, 120
2, 314368, Note_on_c, 0, 96, 120
2, 314392, Note_off_c, 0, 92, 100
2, 314424, Note_off_c, 0, 94, 100
2, 314432, Note_on_c, 0, 98, 120
2, 314490, Note_off_c, 0, 96, 100
2, 314492, Note_off_c, 0, 98, 100
2, 314496, Control_c, 0, 64, 127
2, 314496, Note_on_c, 0, 99, 120
2, 315072, Note_on_c, 0, 75, 120
2, 315072, Note_on_c, 0, 70, 120
2, 315072, Note_on_c, 0, 67, 120
2, 315644, Note_off_c, 0, 99, 100
2, 315644, Note_off_c, 0, 75, 100
2, 315644, Note_off_c, 0, 70, 100
2, 315644, Note_off_c, 0, 67, 100
2, 315648, Note_on_c, 0, 63, 120
2, 315648, Note_on_c, 0, 58, 120
2, 315648, Note_on_c, 0, 55, 120
2, 316028, Note_off_c, 0, 63, 100
2, 316028, Note_off_c, 0, 58, 100
2, 316028, Note_off_c, 0, 55, 100
2, 316220, Control_c, 0, 64, 0
2, 316224, Note_on_c, 0, 70, 100
2, 316604, Note_off_c, 0, 70, 100
2, 316608, Note_on_c, 0, 70, 80
2, 316796, Note_off_c, 0, 70, 100
2, 316800, Note_on_c, 0, 70, 80
2, 316988, Note_off_c, 0, 70, 100
2, 316992, Note_on_c, 0, 67, 80
2, 317180, Note_off_c, 0, 67, 100
2, 317184, Note_on_c, 0, 63, 80
2, 317372, Note_off_c, 0, 63, 100
2, 317376, Note_on_c, 0, 62, 80
2, 317564, Note_off_c, 0, 62, 100
2, 317568, Note_on_c, 0, 65, 80
2, 317756, Note_off_c, 0, 65, 100
2, 317760, Note_on_c, 0, 70, 80
2, 317948, Note_off_c, 0, 70, 100
2, 317952, Note_on_c, 0, 70, 80
2, 318140, Note_off_c, 0, 70, 100
2, 318144, Note_on_c, 0, 67, 80
2, 318332, Note_off_c, 0, 67, 100
2, 318336, Note_on_c, 0, 63, 80
2, 318524, Note_off_c, 0, 63, 100
2, 318528, Note_on_c, 0, 64, 80
2, 318716, Note_off_c, 0, 64, 100
2, 318720, Note_on_c, 0, 67, 80
2, 318908, Note_off_c, 0, 67, 100
2, 318912, Note_on_c, 0, 72, 80
2, 319100, Note_off_c, 0, 72, 100
2, 319104, Note_on_c, 0, 72, 80
2, 319292, Note_off_c, 0, 72, 100
2, 319296, Note_on_c, 0, 68, 80
2, 319484, Note_off_c, 0, 68, 100
2, 319488, Note_on_c, 0, 65, 80
2, 319676, Note_off_c, 0, 65, 100
2, 319680, Note_on_c, 0, 66, 80
2, 319868, Note_off_c, 0, 66, 100
2, 319872, Note_on_c, 0, 69, 80
2, 320060, Note_off_c, 0, 69, 100
2, 320064, Note_on_c, 0, 74, 80
2, 320252, Note_off_c, 0, 74, 100
2, 320256, Note_on_c, 0, 74, 80
2, 320444, Note_off_c, 0, 74, 100
2, 320448, Note_on_c, 0, 70, 80
2, 320636, Note_off_c, 0, 70, 100
2, 320640, Note_on_c, 0, 67, 80
2, 320828, Note_off_c, 0, 67, 100
2, 320832, Note_on_c, 0, 68, 80
2, 321020, Note_off_c, 0, 68, 100
2, 321024, Note_on_c, 0, 70, 80
2, 321212, Note_off_c, 0, 70, 100
2, 321216, Note_on_c, 0, 74, 80
2, 321404, Note_off_c, 0, 74, 100
2, 321408, Note_on_c, 0, 75, 80
2, 321596, Note_off_c, 0, 75, 100
2, 321600, Note_on_c, 0, 70, 80
2, 321788, Note_off_c, 0, 70, 100
2, 321792, Note_on_c, 0, 67, 80
2, 321980, Note_off_c, 0, 67, 100
2, 321984, Note_on_c, 0, 67, 80
2, 322172, Note_off_c, 0, 67, 100
2, 322176, Note_on_c, 0, 70, 80
2, 322364, Note_off_c, 0, 70, 100
2, 322368, Note_on_c, 0, 75, 80
2, 322556, Note_off_c, 0, 75, 100
2, 322560, Note_on_c, 0, 79, 80
2, 322748, Note_off_c, 0, 79, 100
2, 322752, Note_on_c, 0, 75, 80
2, 322940, Note_off_c, 0, 75, 100
2, 322944, Note_on_c, 0, 70, 80
2, 323132, Note_off_c, 0, 70, 100
2, 323136, Note_on_c, 0, 70, 80
2, 323324, Note_off_c, 0, 70, 100
2, 323328, Note_on_c, 0, 75, 80
2, 323516, Note_off_c, 0, 75, 100
2, 323520, Note_on_c, 0, 79, 80
2, 323708, Note_off_c, 0, 79, 100
2, 323712, Note_on_c, 0, 82, 80
2, 323712, Note_on_c, 0, 79, 80
2, 323900, Note_off_c, 0, 82, 100
2, 323900, Note_off_c, 0, 79, 100
2, 323904, Note_on_c, 0, 79, 80
2, 323904, Note_on_c, 0, 75, 80
2, 324092, Note_off_c, 0, 79, 100
2, 324092, Note_off_c, 0, 75, 100
2, 324096, Note_on_c, 0, 75, 80
2, 324096, Note_on_c, 0, 70, 80
2, 324284, Note_off_c, 0, 75, 100
2, 324284, Note_off_c, 0, 70, 100
2, 324288, Note_on_c, 0, 79, 80
2, 324288, Note_on_c, 0, 75, 80
2, 324476, Note_off_c, 0, 79, 100
2, 324476, Note_off_c, 0, 75, 100
2, 324480, Note_on_c, 0, 75, 80
2, 324480, Note_on_c, 0, 70, 80
2, 324668, Note_off_c, 0, 75, 100
2, 324668, Note_off_c, 0, 70, 100
2, 324672, Note_on_c, 0, 70, 80
2, 324672, Note_on_c, 0, 67, 80
2, 324860, Note_off_c, 0, 70, 100
2, 324860, Note_off_c, 0, 67, 100
2, 324864, Note_on_c, 0, 75, 80
2, 324864, Note_on_c, 0, 70, 80
2, 325052, Note_off_c, 0, 75, 100
2, 325052, Note_off_c, 0, 70, 100
2, 325056, Note_on_c, 0, 70, 80
2, 325056, Note_on_c, 0, 67, 80
2, 325244, Note_off_c, 0, 70, 100
2, 325244, Note_off_c, 0, 67, 100
2, 325248, Note_on_c, 0, 63, 80
2, 325248, Note_on_c, 0, 67, 80
2, 325436, Note_off_c, 0, 63, 100
2, 325436, Note_off_c, 0, 67, 100
2, 325440, Note_on_c, 0, 70, 80
2, 325628, Note_off_c, 0, 70, 100
2, 325632, Note_on_c, 0, 68, 80
2, 325632, Note_on_c, 0, 60, 80
2, 325820, Note_off_c, 0, 68, 100
2, 325820, Note_off_c, 0, 60, 100
2, 325824, Note_on_c, 0, 65, 80
2, 325824, Note_on_c, 0, 62, 80
2, 326012, Note_off_c, 0, 65, 100
2, 326012, Note_off_c, 0, 62, 100
2, 326016, Note_on_c, 0, 75, 80
2, 326016, Note_on_c, 0, 70, 80
2, 326108, Note_off_c, 0, 75, 100
2, 326108, Note_off_c, 0, 70, 100
2, 326112, Note_on_c, 0, 74, 80
2, 326204, Note_off_c, 0, 74, 100
2, 326208, Note_on_c, 0, 75, 80
2, 326300, Note_off_c, 0, 75, 100
2, 326304, Note_on_c, 0, 70, 80
2, 326396, Note_off_c, 0, 70, 100
2, 326400, Note_on_c, 0, 67, 80
2, 326588, Note_off_c, 0, 67, 100
2, 326592, Note_on_c, 0, 68, 80
2, 326612, Note_off_c, 0, 68, 100
2, 326616, Note_on_c, 0, 67, 80
2, 326684, Note_off_c, 0, 67, 100
2, 326688, Note_on_c, 0, 66, 80
2, 326780, Note_off_c, 0, 66, 100
2, 326784, Note_on_c, 0, 67, 80
2, 326876, Note_off_c, 0, 67, 100
2, 326880, Note_on_c, 0, 70, 80
2, 326972, Note_off_c, 0, 70, 100
2, 326976, Note_on_c, 0, 75, 80
2, 327164, Note_off_c, 0, 75, 100
2, 327168, Note_on_c, 0, 67, 80
2, 327168, Note_on_c, 0, 79, 80
2, 327260, Note_off_c, 0, 79, 100
2, 327264, Note_on_c, 0, 78, 80
2, 327356, Note_off_c, 0, 78, 100
2, 327360, Note_on_c, 0, 79, 80
2, 327452, Note_off_c, 0, 79, 100
2, 327456, Note_on_c, 0, 75, 80
2, 327548, Note_off_c, 0, 75, 100
2, 327552, Note_on_c, 0, 70, 80
2, 327740, Note_off_c, 0, 67, 100
2, 327740, Note_off_c, 0, 70, 100
2, 327744, Note_on_c, 0, 72, 80
2, 327764, Note_off_c, 0, 72, 100
2, 327768, Note_on_c, 0, 70, 80
2, 327836, Note_off_c, 0, 70, 100
2, 327840, Note_on_c, 0, 69, 80
2, 327932, Note_off_c, 0, 69, 100
2, 327936, Note_on_c, 0, 70, 80
2, 328028, Note_off_c, 0, 70, 100
2, 328032, Note_on_c, 0, 75, 80
2, 328124, Note_off_c, 0, 75, 100
2, 328128, Note_on_c, 0, 79, 80
2, 328316, Note_off_c, 0, 79, 100
2, 328320, Note_on_c, 0, 79, 80
2, 328320, Note_on_c, 0, 82, 80
2, 328412, Note_off_c, 0, 79, 100
2, 328412, Note_off_c, 0, 82, 100
2, 328416, Note_on_c, 0, 84, 80
2, 328416, Note_on_c, 0, 80, 80
2, 328508, Note_off_c, 0, 84, 100
2, 328508, Note_off_c, 0, 80, 100
2, 328512, Note_on_c, 0, 82, 80
2, 328512, Note_on_c, 0, 79, 80
2, 328604, Note_off_c, 0, 82, 100
2, 328604, Note_off_c, 0, 79, 100
2, 328608, Note_on_c, 0, 79, 80
2, 328608, Note_on_c, 0, 75, 80
2, 328700, Note_off_c, 0, 79, 100
2, 328700, Note_off_c, 0, 75, 100
2, 328704, Note_on_c, 0, 75, 80
2, 328704, Note_on_c, 0, 67, 80
2, 328892, Note_off_c, 0, 75, 100
2, 328892, Note_off_c, 0, 67, 100
2, 328896, Note_on_c, 0, 79, 80
2, 328896, Note_on_c, 0, 75, 80
2, 328988, Note_off_c, 0, 79, 100
2, 328988, Note_off_c, 0, 75, 100
2, 328992, Note_on_c, 0, 80, 80
2, 329084, Note_off_c, 0, 80, 100
2, 329088, Note_on_c, 0, 79, 80
2, 329088, Note_on_c, 0, 75, 80
2, 329180, Note_off_c, 0, 79, 100
2, 329180, Note_off_c, 0, 75, 100
2, 329184, Note_on_c, 0, 75, 80
2, 329184, Note_on_c, 0, 70, 80
2, 329276, Note_off_c, 0, 75, 100
2, 329276, Note_off_c, 0, 70, 100
2, 329280, Note_on_c, 0, 70, 80
2, 329280, Note_on_c, 0, 67, 80
2, 329468, Note_off_c, 0, 70, 100
2, 329468, Note_off_c, 0, 67, 100
2, 329472, Note_on_c, 0, 75, 80
2, 329472, Note_on_c, 0, 67, 80
2, 329564, Note_off_c, 0, 75, 100
2, 329564, Note_off_c, 0, 67, 100
2, 329568, Note_on_c, 0, 77, 80
2, 329660, Note_off_c, 0, 77, 100
2, 329664, Note_on_c, 0, 75, 79
2, 329664, Note_on_c, 0, 67, 79
2, 329756, Note_off_c, 0, 75, 100
2, 329756, Note_off_c, 0, 67, 100
2, 329760, Note_on_c, 0, 70, 78
2, 329760, Note_on_c, 0, 67, 78
2, 329852, Note_off_c, 0, 70, 100
2, 329852, Note_off_c, 0, 67, 100
2, 329856, Note_on_c, 0, 67, 77
2, 329856, Note_on_c, 0, 63, 77
2, 330044, Note_off_c, 0, 67, 100
2, 330044, Note_off_c, 0, 63, 100
2, 330048, Note_on_c, 0, 70, 75
2, 330236, Note_off_c, 0, 70, 100
2, 330240, Note_on_c, 0, 68, 73
2, 330240, Note_on_c, 0, 60, 73
2, 330428, Note_off_c, 0, 68, 100
2, 330428, Note_off_c, 0, 60, 100
2, 330432, Note_on_c, 0, 65, 71
2, 330432, Note_on_c, 0, 62, 71
2, 330620, Note_off_c, 0, 65, 100
2, 330620, Note_off_c, 0, 62, 100
2, 330720, Note_on_c, 0, 82, 70
2, 330720, Note_on_c, 0, 79, 70
2, 330908, Note_off_c, 0, 82, 100
2, 330908, Note_off_c, 0, 79, 100
2, 330912, Note_on_c, 0, 79, 72
2, 330912, Note_on_c, 0, 75, 72
2, 331100, Note_off_c, 0, 79, 100
2, 331100, Note_off_c, 0, 75, 100
2, 331104, Note_on_c, 0, 75, 73
2, 331104, Note_on_c, 0, 70, 73
2, 331292, Note_off_c, 0, 75, 100
2, 331292, Note_off_c, 0, 70, 100
2, 331296, Note_on_c, 0, 79, 75
2, 331296, Note_on_c, 0, 75, 75
2, 331484, Note_off_c, 0, 79, 100
2, 331484, Note_off_c, 0, 75, 100
2, 331488, Note_on_c, 0, 75, 77
2, 331488, Note_on_c, 0, 70, 77
2, 331676, Note_off_c, 0, 75, 100
2, 331676, Note_off_c, 0, 70, 100
2, 331680, Note_on_c, 0, 70, 78
2, 331680, Note_on_c, 0, 67, 78
2, 331868, Note_off_c, 0, 67, 100
2, 331868, Note_off_c, 0, 70, 100
2, 331872, Note_on_c, 0, 75, 80
2, 331872, Note_on_c, 0, 70, 80
2, 332060, Note_off_c, 0, 75, 100
2, 332060, Note_off_c, 0, 70, 100
2, 332064, Note_on_c, 0, 70, 81
2, 332064, Note_on_c, 0, 67, 81
2, 332252, Note_off_c, 0, 70, 100
2, 332252, Note_off_c, 0, 67, 100
2, 332256, Note_on_c, 0, 67, 83
2, 332444, Note_off_c, 0, 67, 100
2, 332448, Note_on_c, 0, 70, 84
2, 332448, Note_on_c, 0, 62, 84
2, 332636, Note_off_c, 0, 70, 100
2, 332636, Note_off_c, 0, 62, 100
2, 332640, Note_on_c, 0, 68, 77
2, 332640, Note_on_c, 0, 62, 77
2, 332828, Note_off_c, 0, 68, 100
2, 332828, Note_off_c, 0, 62, 100
2, 332832, Note_on_c, 0, 65, 71
2, 332832, Note_on_c, 0, 62, 71
2, 332924, Note_off_c, 0, 65, 100
2, 332924, Note_off_c, 0, 62, 100
2, 332928, Note_on_c, 0, 82, 110
2, 333024, Note_on_c, 0, 94, 110
2, 333112, Note_off_c, 0, 82, 100
2, 333120, Note_on_c, 0, 79, 110
2, 333214, Note_off_c, 0, 94, 100
2, 333216, Note_on_c, 0, 91, 110
2, 333308, Note_off_c, 0, 79, 100
2, 333312, Note_on_c, 0, 75, 110
2, 333402, Note_off_c, 0, 91, 100
2, 333408, Note_on_c, 0, 87, 110
2, 333500, Note_off_c, 0, 75, 100
2, 333504, Note_on_c, 0, 79, 110
2, 333594, Note_off_c, 0, 87, 100
2, 333600, Note_on_c, 0, 91, 110
2, 333694, Note_off_c, 0, 79, 100
2, 333696, Note_on_c, 0, 75, 110
2, 333788, Note_off_c, 0, 91, 100
2, 333792, Note_on_c, 0, 87, 110
2, 333882, Note_off_c, 0, 75, 100
2, 333888, Note_on_c, 0, 70, 110
2, 333980, Note_off_c, 0, 87, 100
2, 333984, Note_on_c, 0, 82, 110
2, 334076, Note_off_c, 0, 70, 100
2, 334080, Note_on_c, 0, 75, 110
2, 334170, Note_off_c, 0, 82, 100
2, 334176, Note_on_c, 0, 87, 110
2, 334268, Note_off_c, 0, 75, 100
2, 334272, Note_on_c, 0, 70, 110
2, 334364, Note_off_c, 0, 87, 100
2, 334368, Note_on_c, 0, 82, 110
2, 334462, Note_off_c, 0, 70, 100
2, 334464, Note_on_c, 0, 67, 110
2, 334552, Note_off_c, 0, 82, 100
2, 334560, Note_on_c, 0, 79, 110
2, 334650, Note_off_c, 0, 67, 100
2, 334656, Note_on_c, 0, 70, 110
2, 334744, Note_off_c, 0, 79, 100
2, 334752, Note_on_c, 0, 82, 110
2, 334846, Note_off_c, 0, 70, 100
2, 334848, Note_on_c, 0, 68, 110
2, 334940, Note_off_c, 0, 82, 100
2, 334944, Note_on_c, 0, 80, 110
2, 335036, Note_off_c, 0, 68, 100
2, 335040, Note_on_c, 0, 65, 110
2, 335132, Note_off_c, 0, 80, 100
2, 335136, Note_on_c, 0, 77, 110
2, 335228, Note_off_c, 0, 77, 100
2, 335230, Note_off_c, 0, 65, 100
2, 335232, Control_c, 0, 64, 127
2, 335232, Note_on_c, 0, 63, 110
2, 335328, Note_on_c, 0, 75, 110
2, 335380, Note_off_c, 0, 63, 100
2, 335424, Note_on_c, 0, 67, 110
2, 335504, Note_off_c, 0, 75, 100
2, 335520, Note_on_c, 0, 79, 110
2, 335588, Note_off_c, 0, 67, 100
2, 335616, Note_on_c, 0, 67, 110
2, 335692, Note_off_c, 0, 79, 100
2, 335712, Note_on_c, 0, 79, 110
2, 335792, Note_off_c, 0, 67, 100
2, 335808, Note_on_c, 0, 67, 110
2, 335878, Note_off_c, 0, 79, 100
2, 335904, Note_on_c, 0, 79, 110
2, 335976, Note_off_c, 0, 67, 100
2, 336000, Note_on_c, 0, 70, 110
2, 336078, Note_off_c, 0, 79, 100
2, 336096, Note_on_c, 0, 82, 110
2, 336164, Note_off_c, 0, 70, 100
2, 336192, Note_on_c, 0, 70, 110
2, 336264, Note_off_c, 0, 82, 100
2, 336288, Note_on_c, 0, 82, 110
2, 336354, Note_off_c, 0, 70, 100
2, 336384, Note_on_c, 0, 70, 110
2, 336456, Note_off_c, 0, 82, 100
2, 336480, Note_on_c, 0, 82, 110
2, 336552, Note_off_c, 0, 70, 100
2, 336576, Note_on_c, 0, 75, 110
2, 336648, Note_off_c, 0, 82, 100
2, 336672, Note_on_c, 0, 87, 110
2, 336750, Note_off_c, 0, 75, 100
2, 336768, Note_on_c, 0, 75, 110
2, 336838, Note_off_c, 0, 87, 100
2, 336864, Note_on_c, 0, 87, 110
2, 336936, Note_off_c, 0, 75, 100
2, 336960, Note_on_c, 0, 75, 110
2, 337032, Note_off_c, 0, 87, 100
2, 337056, Note_on_c, 0, 87, 110
2, 337128, Note_off_c, 0, 75, 100
2, 337152, Note_on_c, 0, 79, 110
2, 337224, Note_off_c, 0, 87, 100
2, 337248, Note_on_c, 0, 91, 110
2, 337324, Note_off_c, 0, 79, 100
2, 337344, Note_on_c, 0, 82, 110
2, 337414, Note_off_c, 0, 91, 100
2, 337440, Note_on_c, 0, 94, 110
2, 337516, Note_off_c, 0, 82, 100
2, 337532, Note_off_c, 0, 94, 100
2, 337536, Note_on_c, 0, 99, 110
2, 337536, Note_on_c, 0, 87, 110
2, 337916, Note_off_c, 0, 87, 100
2, 337918, Note_off_c, 0, 99, 100
2, 338108, Control_c, 0, 64, 0
2, 338112, Note_on_c, 0, 74, 110
2, 338112, Note_on_c, 0, 70, 110
2, 338112, Note_on_c, 0, 68, 110
2, 338112, Note_on_c, 0, 65, 110
2, 338492, Note_off_c, 0, 74, 100
2, 338492, Note_off_c, 0, 70, 100
2, 338492, Note_off_c, 0, 68, 100
2, 338492, Note_off_c, 0, 65, 100
2, 338688, Note_on_c, 0, 75, 110
2, 338688, Note_on_c, 0, 70, 110
2, 338688, Note_on_c, 0, 67, 110
2, 339452, Note_off_c, 0, 75, 100
2, 339452, Note_off_c, 0, 70, 100
2, 339452, Note_off_c, 0, 67, 100
2, 341760, Control_c, 0, 7, 0
2, 342144, Note_on_c, 0, 63, 1
2, 342524, Note_off_c, 0, 63, 100
2, 342524, End_track
3, 0, Start_track
3, 0, Title_t, "Left"
3, 0, Control_c, 1, 0, 0
3, 0, Program_c, 1, 0
3, 0, Control_c, 1, 7, 100
3, 0, Control_c, 1, 10, 53
3, 0, Control_c, 1, 91, 127
3, 0, Key_signature, -3, "minor"
3, 0, Note_on_c, 1, 63, 80
3, 0, Note_on_c, 1, 48, 80
3, 192, Note_on_c, 1, 54, 80
3, 380, Note_off_c, 1, 54, 100
3, 384, Note_on_c, 1, 57, 80
3, 572, Note_off_c, 1, 57, 100
3, 576, Note_on_c, 1, 54, 80
3, 764, Note_off_c, 1, 63, 100
3, 764, Note_off_c, 1, 48, 100
3, 764, Note_off_c, 1, 54, 100
3, 768, Note_on_c, 1, 63, 80
3, 768, Note_on_c, 1, 48, 80
3, 960, Note_on_c, 1, 54, 80
3, 1148, Note_off_c, 1, 54, 100
3, 1152, Note_on_c, 1, 57, 80
3, 1340, Note_off_c, 1, 57, 100
3, 1344, Note_on_c, 1, 54, 80
3, 1532, Note_off_c, 1, 63, 100
3, 1532, Note_off_c, 1, 48, 100
3, 1532, Note_off_c, 1, 54, 100
3, 1728, Note_on_c, 1, 55, 80
3, 1728, Note_on_c, 1, 47, 80
3, 1916, Note_off_c, 1, 55, 100
3, 1916, Note_off_c, 1, 47, 100
3, 2112, Note_on_c, 1, 57, 80
3, 2112, Note_on_c, 1, 50, 80
3, 2300, Note_off_c, 1, 57, 100
3, 2300, Note_off_c, 1, 50, 100
3, 2496, Note_on_c, 1, 55, 80
3, 2496, Note_on_c, 1, 43, 80
3, 2684, Note_off_c, 1, 55, 100
3, 2684, Note_off_c, 1, 43, 100
3, 2688, Note_on_c, 1, 55, 80
3, 2688, Note_on_c, 1, 43, 80
3, 2876, Note_off_c, 1, 55, 100
3, 2876, Note_off_c, 1, 43, 100
3, 3072, Note_on_c, 1, 68, 80
3, 3072, Note_on_c, 1, 53, 80
3, 3264, Note_on_c, 1, 59, 80
3, 3452, Note_off_c, 1, 59, 100
3, 3456, Note_on_c, 1, 62, 80
3, 3644, Note_off_c, 1, 62, 100
3, 3648, Note_on_c, 1, 59, 80
3, 3836, Note_off_c, 1, 68, 100
3, 3836, Note_off_c, 1, 53, 100
3, 3836, Note_off_c, 1, 59, 100
3, 3840, Note_on_c, 1, 53, 80
3, 3840, Note_on_c, 1, 68, 80
3, 4028, Note_off_c, 1, 53, 100
3, 4028, Note_off_c, 1, 68, 100
3, 4032, Note_on_c, 1, 59, 80
3, 4220, Note_off_c, 1, 59, 100
3, 4224, Note_on_c, 1, 62, 80
3, 4412, Note_off_c, 1, 62, 100
3, 4416, Note_on_c, 1, 59, 80
3, 4604, Note_off_c, 1, 59, 100
3, 4800, Note_on_c, 1, 60, 80
3, 4800, Note_on_c, 1, 51, 80
3, 4988, Note_off_c, 1, 60, 100
3, 4988, Note_off_c, 1, 51, 100
3, 5184, Note_on_c, 1, 62, 80
3, 5184, Note_on_c, 1, 55, 80
3, 5372, Note_off_c, 1, 62, 100
3, 5372, Note_off_c, 1, 55, 100
3, 5568, Note_on_c, 1, 60, 80
3, 5568, Note_on_c, 1, 48, 80
3, 5756, Note_off_c, 1, 60, 100
3, 5756, Note_off_c, 1, 48, 100
3, 5760, Note_on_c, 1, 60, 80
3, 5760, Note_on_c, 1, 48, 80
3, 5852, Note_off_c, 1, 60, 100
3, 5852, Note_off_c, 1, 48, 100
3, 5856, Note_on_c, 1, 63, 80
3, 5856, Note_on_c, 1, 60, 80
3, 5948, Note_off_c, 1, 63, 100
3, 5948, Note_off_c, 1, 60, 100
3, 5952, Note_on_c, 1, 63, 82
3, 5952, Note_on_c, 1, 61, 82
3, 5952, Note_on_c, 1, 58, 82
3, 6044, Note_off_c, 1, 63, 100
3, 6044, Note_off_c, 1, 61, 100
3, 6044, Note_off_c, 1, 58, 100
3, 6048, Note_on_c, 1, 63, 85
3, 6048, Note_on_c, 1, 60, 85
3, 6048, Note_on_c, 1, 56, 85
3, 6140, Note_off_c, 1, 63, 100
3, 6140, Note_off_c, 1, 60, 100
3, 6140, Note_off_c, 1, 56, 100
3, 6144, Note_on_c, 1, 63, 88
3, 6144, Note_on_c, 1, 58, 88
3, 6144, Note_on_c, 1, 55, 88
3, 6332, Note_off_c, 1, 63, 100
3, 6332, Note_off_c, 1, 58, 100
3, 6332, Note_off_c, 1, 55, 100
3, 6336, Note_on_c, 1, 64, 94
3, 6336, Note_on_c, 1, 58, 94
3, 6336, Note_on_c, 1, 55, 94
3, 6620, Note_off_c, 1, 64, 100
3, 6620, Note_off_c, 1, 58, 100
3, 6620, Note_off_c, 1, 55, 100
3, 6624, Note_on_c, 1, 61, 103
3, 6624, Note_on_c, 1, 56, 103
3, 6624, Note_on_c, 1, 53, 103
3, 6716, Note_off_c, 1, 61, 100
3, 6716, Note_off_c, 1, 56, 100
3, 6716, Note_off_c, 1, 53, 100
3, 6720, Note_on_c, 1, 60, 106
3, 6720, Note_on_c, 1, 55, 106
3, 6720, Note_on_c, 1, 52, 106
3, 6812, Note_off_c, 1, 60, 100
3, 6812, Note_off_c, 1, 55, 100
3, 6812, Note_off_c, 1, 52, 100
3, 6816, Note_on_c, 1, 60, 109
3, 6816, Note_on_c, 1, 55, 109
3, 6816, Note_on_c, 1, 52, 109
3, 6908, Note_off_c, 1, 60, 100
3, 6908, Note_off_c, 1, 55, 100
3, 6908, Note_off_c, 1, 52, 100
3, 6912, Note_on_c, 1, 60, 80
3, 6912, Note_on_c, 1, 55, 80
3, 6912, Note_on_c, 1, 52, 80
3, 7100, Note_off_c, 1, 60, 100
3, 7100, Note_off_c, 1, 55, 100
3, 7100, Note_off_c, 1, 52, 100
3, 7104, Note_on_c, 1, 60, 80
3, 7104, Note_on_c, 1, 56, 80
3, 7104, Note_on_c, 1, 53, 80
3, 7292, Note_off_c, 1, 60, 100
3, 7292, Note_off_c, 1, 56, 100
3, 7292, Note_off_c, 1, 53, 100
3, 7680, Note_on_c, 1, 38, 80
3, 7680, Note_on_c, 1, 51, 80
3, 7868, Note_off_c, 1, 51, 100
3, 7872, Note_on_c, 1, 42, 80
3, 8060, Note_off_c, 1, 42, 100
3, 8064, Note_on_c, 1, 45, 80
3, 8252, Note_off_c, 1, 38, 100
3, 8252, Note_off_c, 1, 45, 100
3, 8256, Note_on_c, 1, 58, 80
3, 8256, Note_on_c, 1, 50, 80
3, 8256, Note_on_c, 1, 46, 80
3, 8444, Note_off_c, 1, 58, 100
3, 8444, Note_off_c, 1, 50, 100
3, 8444, Note_off_c, 1, 46, 100
3, 8448, Note_on_c, 1, 57, 80
3, 8448, Note_on_c, 1, 50, 80
3, 8448, Note_on_c, 1, 45, 80
3, 8636, Note_off_c, 1, 57, 100
3, 8636, Note_off_c, 1, 50, 100
3, 8636, Note_off_c, 1, 45, 100
3, 8640, Note_on_c, 1, 55, 80
3, 8640, Note_on_c, 1, 50, 80
3, 8640, Note_on_c, 1, 43, 80
3, 8828, Note_off_c, 1, 55, 100
3, 8828, Note_off_c, 1, 50, 100
3, 8828, Note_off_c, 1, 43, 100
3, 8832, Note_on_c, 1, 54, 80
3, 8832, Note_on_c, 1, 50, 80
3, 8832, Note_on_c, 1, 42, 80
3, 9020, Note_off_c, 1, 54, 100
3, 9020, Note_off_c, 1, 50, 100
3, 9020, Note_off_c, 1, 42, 100
3, 10752, Note_on_c, 1, 57, 80
3, 10752, Note_on_c, 1, 54, 80
3, 10796, Note_off_c, 1, 57, 100
3, 10796, Note_off_c, 1, 54, 100
3, 10800, Note_on_c, 1, 62, 80
3, 10844, Note_off_c, 1, 62, 100
3, 10848, Note_on_c, 1, 57, 80
3, 10848, Note_on_c, 1, 54, 80
3, 10892, Note_off_c, 1, 57, 100
3, 10892, Note_off_c, 1, 54, 100
3, 10896, Note_on_c, 1, 62, 80
3, 10940, Note_off_c, 1, 62, 100
3, 10944, Note_on_c, 1, 57, 80
3, 10944, Note_on_c, 1, 54, 80
3, 10988, Note_off_c, 1, 57, 100
3, 10988, Note_off_c, 1, 54, 100
3, 10992, Note_on_c, 1, 62, 80
3, 11036, Note_off_c, 1, 62, 100
3, 11040, Note_on_c, 1, 57, 80
3, 11040, Note_on_c, 1, 54, 80
3, 11084, Note_off_c, 1, 57, 100
3, 11084, Note_off_c, 1, 54, 100
3, 11088, Note_on_c, 1, 62, 80
3, 11132, Note_off_c, 1, 62, 100
3, 11136, Note_on_c, 1, 57, 80
3, 11136, Note_on_c, 1, 54, 80
3, 11180, Note_off_c, 1, 57, 100
3, 11180, Note_off_c, 1, 54, 100
3, 11184, Note_on_c, 1, 62, 80
3, 11228, Note_off_c, 1, 62, 100
3, 11232, Note_on_c, 1, 57, 80
3, 11232, Note_on_c, 1, 54, 80
3, 11276, Note_off_c, 1, 57, 100
3, 11276, Note_off_c, 1, 54, 100
3, 11280, Note_on_c, 1, 62, 80
3, 11324, Note_off_c, 1, 62, 100
3, 11328, Note_on_c, 1, 59, 80
3, 11328, Note_on_c, 1, 55, 80
3, 11372, Note_off_c, 1, 59, 100
3, 11372, Note_off_c, 1, 55, 100
3, 11376, Note_on_c, 1, 62, 80
3, 11420, Note_off_c, 1, 62, 100
3, 11424, Note_on_c, 1, 59, 80
3, 11424, Note_on_c, 1, 55, 80
3, 11468, Note_off_c, 1, 59, 100
3, 11468, Note_off_c, 1, 55, 100
3, 11472, Note_on_c, 1, 62, 80
3, 11516, Note_off_c, 1, 62, 100
3, 11520, Note_on_c, 1, 57, 80
3, 11520, Note_on_c, 1, 60, 80
3, 11564, Note_off_c, 1, 57, 100
3, 11564, Note_off_c, 1, 60, 100
3, 11568, Note_on_c, 1, 62, 80
3, 11612, Note_off_c, 1, 62, 100
3, 11616, Note_on_c, 1, 57, 80
3, 11616, Note_on_c, 1, 60, 80
3, 11660, Note_off_c, 1, 57, 100
3, 11660, Note_off_c, 1, 60, 100
3, 11664, Note_on_c, 1, 62, 80
3, 11708, Note_off_c, 1, 62, 100
3, 11712, Note_on_c, 1, 57, 80
3, 11712, Note_on_c, 1, 60, 80
3, 11756, Note_off_c, 1, 57, 100
3, 11756, Note_off_c, 1, 60, 100
3, 11760, Note_on_c, 1, 62, 80
3, 11804, Note_off_c, 1, 62, 100
3, 11808, Note_on_c, 1, 57, 80
3, 11808, Note_on_c, 1, 60, 80
3, 11852, Note_off_c, 1, 57, 100
3, 11852, Note_off_c, 1, 60, 100
3, 11856, Note_on_c, 1, 62, 80
3, 11900, Note_off_c, 1, 62, 100
3, 11904, Note_on_c, 1, 57, 80
3, 11904, Note_on_c, 1, 60, 80
3, 11948, Note_off_c, 1, 57, 100
3, 11948, Note_off_c, 1, 60, 100
3, 11952, Note_on_c, 1, 62, 80
3, 11996, Note_off_c, 1, 62, 100
3, 12000, Note_on_c, 1, 59, 80
3, 12000, Note_on_c, 1, 55, 80
3, 12044, Note_off_c, 1, 59, 100
3, 12044, Note_off_c, 1, 55, 100
3, 12048, Note_on_c, 1, 62, 80
3, 12092, Note_off_c, 1, 62, 100
3, 12096, Note_on_c, 1, 57, 80
3, 12096, Note_on_c, 1, 54, 80
3, 12140, Note_off_c, 1, 57, 100
3, 12140, Note_off_c, 1, 54, 100
3, 12144, Note_on_c, 1, 62, 80
3, 12188, Note_off_c, 1, 62, 100
3, 12192, Note_on_c, 1, 57, 80
3, 12192, Note_on_c, 1, 54, 80
3, 12236, Note_off_c, 1, 57, 100
3, 12236, Note_off_c, 1, 54, 100
3, 12240, Note_on_c, 1, 62, 80
3, 12284, Note_off_c, 1, 62, 100
3, 12288, Note_on_c, 1, 57, 80
3, 12288, Note_on_c, 1, 54, 80
3, 12332, Note_off_c, 1, 57, 100
3, 12332, Note_off_c, 1, 54, 100
3, 12336, Note_on_c, 1, 62, 80
3, 12380, Note_off_c, 1, 62, 100
3, 12384, Note_on_c, 1, 57, 80
3, 12384, Note_on_c, 1, 54, 80
3, 12428, Note_off_c, 1, 57, 100
3, 12428, Note_off_c, 1, 54, 100
3, 12432, Note_on_c, 1, 62, 80
3, 12476, Note_off_c, 1, 62, 100
3, 12480, Note_on_c, 1, 57, 80
3, 12480, Note_on_c, 1, 54, 80
3, 12524, Note_off_c, 1, 57, 100
3, 12524, Note_off_c, 1, 54, 100
3, 12528, Note_on_c, 1, 62, 80
3, 12572, Note_off_c, 1, 62, 100
3, 12576, Note_on_c, 1, 57, 80
3, 12576, Note_on_c, 1, 54, 80
3, 12620, Note_off_c, 1, 57, 100
3, 12620, Note_off_c, 1, 54, 100
3, 12624, Note_on_c, 1, 62, 80
3, 12668, Note_off_c, 1, 62, 100
3, 12672, Note_on_c, 1, 57, 80
3, 12672, Note_on_c, 1, 54, 80
3, 12716, Note_off_c, 1, 57, 100
3, 12716, Note_off_c, 1, 54, 100
3, 12720, Note_on_c, 1, 62, 80
3, 12764, Note_off_c, 1, 62, 100
3, 12768, Note_on_c, 1, 57, 80
3, 12768, Note_on_c, 1, 54, 80
3, 12812, Note_off_c, 1, 57, 100
3, 12812, Note_off_c, 1, 54, 100
3, 12816, Note_on_c, 1, 62, 80
3, 12860, Note_off_c, 1, 62, 100
3, 12864, Note_on_c, 1, 59, 80
3, 12864, Note_on_c, 1, 55, 80
3, 12908, Note_off_c, 1, 59, 100
3, 12908, Note_off_c, 1, 55, 100
3, 12912, Note_on_c, 1, 62, 80
3, 12956, Note_off_c, 1, 62, 100
3, 12960, Note_on_c, 1, 59, 80
3, 12960, Note_on_c, 1, 55, 80
3, 13004, Note_off_c, 1, 59, 100
3, 13004, Note_off_c, 1, 55, 100
3, 13008, Note_on_c, 1, 62, 80
3, 13052, Note_off_c, 1, 62, 100
3, 13056, Note_on_c, 1, 57, 80
3, 13056, Note_on_c, 1, 60, 80
3, 13100, Note_off_c, 1, 57, 100
3, 13100, Note_off_c, 1, 60, 100
3, 13104, Note_on_c, 1, 62, 80
3, 13148, Note_off_c, 1, 62, 100
3, 13152, Note_on_c, 1, 57, 80
3, 13152, Note_on_c, 1, 60, 80
3, 13196, Note_off_c, 1, 57, 100
3, 13196, Note_off_c, 1, 60, 100
3, 13200, Note_on_c, 1, 62, 80
3, 13244, Note_off_c, 1, 62, 100
3, 13248, Note_on_c, 1, 57, 80
3, 13248, Note_on_c, 1, 60, 80
3, 13292, Note_off_c, 1, 57, 100
3, 13292, Note_off_c, 1, 60, 100
3, 13296, Note_on_c, 1, 62, 82
3, 13340, Note_off_c, 1, 62, 100
3, 13344, Note_on_c, 1, 57, 85
3, 13344, Note_on_c, 1, 60, 85
3, 13388, Note_off_c, 1, 57, 100
3, 13388, Note_off_c, 1, 60, 100
3, 13392, Note_on_c, 1, 62, 88
3, 13436, Note_off_c, 1, 62, 100
3, 13440, Note_on_c, 1, 57, 91
3, 13440, Note_on_c, 1, 60, 91
3, 13484, Note_off_c, 1, 57, 100
3, 13484, Note_off_c, 1, 60, 100
3, 13488, Note_on_c, 1, 62, 93
3, 13532, Note_off_c, 1, 62, 100
3, 13536, Note_on_c, 1, 58, 96
3, 13536, Note_on_c, 1, 55, 96
3, 13580, Note_off_c, 1, 58, 100
3, 13580, Note_off_c, 1, 55, 100
3, 13584, Note_on_c, 1, 62, 99
3, 13628, Note_off_c, 1, 62, 100
3, 13632, Note_on_c, 1, 57, 102
3, 13632, Note_on_c, 1, 54, 102
3, 13676, Note_off_c, 1, 57, 100
3, 13676, Note_off_c, 1, 54, 100
3, 13680, Note_on_c, 1, 62, 105
3, 13724, Note_off_c, 1, 62, 100
3, 13728, Note_on_c, 1, 57, 107
3, 13728, Note_on_c, 1, 54, 107
3, 13772, Note_off_c, 1, 57, 100
3, 13772, Note_off_c, 1, 54, 100
3, 13776, Note_on_c, 1, 62, 110
3, 13820, Note_off_c, 1, 62, 100
3, 13824, Note_on_c, 1, 58, 110
3, 13824, Note_on_c, 1, 55, 110
3, 13856, Note_off_c, 1, 58, 100
3, 13856, Note_off_c, 1, 55, 100
3, 13872, Note_on_c, 1, 62, 108
3, 13904, Note_off_c, 1, 62, 100
3, 13920, Note_on_c, 1, 66, 106
3, 13952, Note_off_c, 1, 66, 100
3, 13968, Note_on_c, 1, 67, 104
3, 14000, Note_off_c, 1, 67, 100
3, 14016, Note_on_c, 1, 62, 102
3, 14048, Note_off_c, 1, 62, 100
3, 14064, Note_on_c, 1, 58, 100
3, 14096, Note_off_c, 1, 58, 100
3, 14112, Note_on_c, 1, 57, 98
3, 14144, Note_off_c, 1, 57, 100
3, 14160, Note_on_c, 1, 55, 96
3, 14192, Note_off_c, 1, 55, 100
3, 14208, Note_on_c, 1, 54, 93
3, 14208, Note_on_c, 1, 50, 93
3, 14240, Note_off_c, 1, 54, 100
3, 14240, Note_off_c, 1, 50, 100
3, 14256, Note_on_c, 1, 57, 91
3, 14288, Note_off_c, 1, 57, 100
3, 14304, Note_on_c, 1, 60, 89
3, 14336, Note_off_c, 1, 60, 100
3, 14352, Note_on_c, 1, 50, 87
3, 14384, Note_off_c, 1, 50, 100
3, 14400, Note_on_c, 1, 51, 85
3, 14432, Note_off_c, 1, 51, 100
3, 14448, Note_on_c, 1, 55, 83
3, 14480, Note_off_c, 1, 55, 100
3, 14496, Note_on_c, 1, 58, 81
3, 14528, Note_off_c, 1, 58, 100
3, 14544, Note_on_c, 1, 51, 80
3, 14576, Note_off_c, 1, 51, 100
3, 14592, Note_on_c, 1, 55, 110
3, 14592, Note_on_c, 1, 51, 110
3, 14624, Note_off_c, 1, 55, 100
3, 14624, Note_off_c, 1, 51, 100
3, 14640, Note_on_c, 1, 58, 109
3, 14672, Note_off_c, 1, 58, 100
3, 14688, Note_on_c, 1, 62, 107
3, 14720, Note_off_c, 1, 62, 100
3, 14736, Note_on_c, 1, 63, 105
3, 14768, Note_off_c, 1, 63, 100
3, 14784, Note_on_c, 1, 58, 103
3, 14816, Note_off_c, 1, 58, 100
3, 14832, Note_on_c, 1, 55, 101
3, 14864, Note_off_c, 1, 55, 100
3, 14880, Note_on_c, 1, 53, 99
3, 14912, Note_off_c, 1, 53, 100
3, 14928, Note_on_c, 1, 51, 97
3, 14960, Note_off_c, 1, 51, 100
3, 14976, Note_on_c, 1, 47, 95
3, 14976, Note_on_c, 1, 43, 95
3, 15008, Note_off_c, 1, 47, 100
3, 15008, Note_off_c, 1, 43, 100
3, 15024, Note_on_c, 1, 50, 93
3, 15056, Note_off_c, 1, 50, 100
3, 15072, Note_on_c, 1, 55, 91
3, 15104, Note_off_c, 1, 55, 100
3, 15120, Note_on_c, 1, 47, 89
3, 15152, Note_off_c, 1, 47, 100
3, 15168, Note_on_c, 1, 48, 87
3, 15200, Note_off_c, 1, 48, 100
3, 15216, Note_on_c, 1, 51, 85
3, 15248, Note_off_c, 1, 51, 100
3, 15264, Note_on_c, 1, 55, 83
3, 15296, Note_off_c, 1, 55, 100
3, 15312, Note_on_c, 1, 48, 81
3, 15344, Note_off_c, 1, 48, 100
3, 15360, Note_on_c, 1, 61, 80
3, 15360, Note_on_c, 1, 46, 80
3, 15552, Note_on_c, 1, 52, 80
3, 15740, Note_off_c, 1, 52, 100
3, 15744, Note_on_c, 1, 55, 80
3, 15932, Note_off_c, 1, 55, 100
3, 15936, Note_on_c, 1, 52, 80
3, 16124, Note_off_c, 1, 61, 100
3, 16124, Note_off_c, 1, 46, 100
3, 16124, Note_off_c, 1, 52, 100
3, 16128, Note_on_c, 1, 46, 80
3, 16128, Note_on_c, 1, 62, 80
3, 16320, Note_on_c, 1, 52, 80
3, 16508, Note_off_c, 1, 52, 100
3, 16512, Note_on_c, 1, 55, 80
3, 16700, Note_off_c, 1, 46, 100
3, 16700, Note_off_c, 1, 55, 100
3, 16704, Note_on_c, 1, 52, 80
3, 16704, Note_on_c, 1, 46, 80
3, 16892, Note_off_c, 1, 62, 100
3, 16892, Note_off_c, 1, 52, 100
3, 16892, Note_off_c, 1, 46, 100
3, 17088, Note_on_c, 1, 53, 80
3, 17088, Note_on_c, 1, 48, 80
3, 17088, Note_on_c, 1, 44, 80
3, 17276, Note_off_c, 1, 53, 100
3, 17276, Note_off_c, 1, 48, 100
3, 17276, Note_off_c, 1, 44, 100
3, 17472, Note_on_c, 1, 64, 80
3, 17472, Note_on_c, 1, 55, 80
3, 17472, Note_on_c, 1, 48, 80
3, 17660, Note_off_c, 1, 64, 100
3, 17660, Note_off_c, 1, 55, 100
3, 17660, Note_off_c, 1, 48, 100
3, 17856, Note_on_c, 1, 65, 80
3, 17856, Note_on_c, 1, 53, 80
3, 18044, Note_off_c, 1, 65, 100
3, 18044, Note_off_c, 1, 53, 100
3, 18048, Note_on_c, 1, 65, 80
3, 18048, Note_on_c, 1, 53, 80
3, 18140, Note_off_c, 1, 65, 100
3, 18140, Note_off_c, 1, 53, 100
3, 18144, Note_on_c, 1, 68, 80
3, 18144, Note_on_c, 1, 65, 80
3, 18236, Note_off_c, 1, 68, 100
3, 18236, Note_off_c, 1, 65, 100
3, 18240, Note_on_c, 1, 68, 82
3, 18240, Note_on_c, 1, 63, 82
3, 18240, Note_on_c, 1, 66, 82
3, 18332, Note_off_c, 1, 68, 100
3, 18332, Note_off_c, 1, 63, 100
3, 18332, Note_off_c, 1, 66, 100
3, 18336, Note_on_c, 1, 68, 85
3, 18336, Note_on_c, 1, 61, 85
3, 18336, Note_on_c, 1, 65, 85
3, 18428, Note_off_c, 1, 68, 100
3, 18428, Note_off_c, 1, 61, 100
3, 18428, Note_off_c, 1, 65, 100
3, 18432, Note_on_c, 1, 68, 88
3, 18432, Note_on_c, 1, 63, 88
3, 18432, Note_on_c, 1, 60, 88
3, 18620, Note_off_c, 1, 68, 100
3, 18620, Note_off_c, 1, 63, 100
3, 18620, Note_off_c, 1, 60, 100
3, 18624, Note_on_c, 1, 69, 94
3, 18624, Note_on_c, 1, 63, 94
3, 18624, Note_on_c, 1, 60, 94
3, 18908, Note_off_c, 1, 69, 100
3, 18908, Note_off_c, 1, 63, 100
3, 18908, Note_off_c, 1, 60, 100
3, 18912, Note_on_c, 1, 66, 103
3, 18912, Note_on_c, 1, 61, 103
3, 18912, Note_on_c, 1, 58, 103
3, 19004, Note_off_c, 1, 66, 100
3, 19004, Note_off_c, 1, 61, 100
3, 19004, Note_off_c, 1, 58, 100
3, 19008, Note_on_c, 1, 65, 106
3, 19008, Note_on_c, 1, 60, 106
3, 19008, Note_on_c, 1, 57, 106
3, 19100, Note_off_c, 1, 65, 100
3, 19100, Note_off_c, 1, 60, 100
3, 19100, Note_off_c, 1, 57, 100
3, 19104, Note_on_c, 1, 65, 109
3, 19104, Note_on_c, 1, 60, 109
3, 19104, Note_on_c, 1, 57, 109
3, 19196, Note_off_c, 1, 65, 100
3, 19196, Note_off_c, 1, 60, 100
3, 19196, Note_off_c, 1, 57, 100
3, 19200, Note_on_c, 1, 65, 80
3, 19200, Note_on_c, 1, 60, 80
3, 19200, Note_on_c, 1, 57, 80
3, 19388, Note_off_c, 1, 65, 100
3, 19388, Note_off_c, 1, 60, 100
3, 19388, Note_off_c, 1, 57, 100
3, 19392, Note_on_c, 1, 65, 80
3, 19392, Note_on_c, 1, 61, 80
3, 19392, Note_on_c, 1, 58, 80
3, 19580, Note_off_c, 1, 65, 100
3, 19580, Note_off_c, 1, 61, 100
3, 19580, Note_off_c, 1, 58, 100
3, 19968, Note_on_c, 1, 36, 80
3, 19968, Note_on_c, 1, 49, 80
3, 20156, Note_off_c, 1, 49, 100
3, 20160, Note_on_c, 1, 40, 80
3, 20348, Note_off_c, 1, 40, 100
3, 20352, Note_on_c, 1, 43, 80
3, 20540, Note_off_c, 1, 36, 100
3, 20540, Note_off_c, 1, 43, 100
3, 20544, Note_on_c, 1, 44, 80
3, 20544, Note_on_c, 1, 36, 80
3, 20544, Note_on_c, 1, 32, 80
3, 20732, Note_off_c, 1, 44, 100
3, 20732, Note_off_c, 1, 36, 100
3, 20732, Note_off_c, 1, 32, 100
3, 20736, Note_on_c, 1, 43, 80
3, 20736, Note_on_c, 1, 36, 80
3, 20736, Note_on_c, 1, 31, 80
3, 20924, Note_off_c, 1, 43, 100
3, 20924, Note_off_c, 1, 36, 100
3, 20924, Note_off_c, 1, 31, 100
3, 20928, Note_on_c, 1, 41, 80
3, 20928, Note_on_c, 1, 36, 80
3, 20928, Note_on_c, 1, 29, 80
3, 21116, Note_off_c, 1, 41, 100
3, 21116, Note_off_c, 1, 36, 100
3, 21116, Note_off_c, 1, 29, 100
3, 21120, Note_on_c, 1, 40, 80
3, 21120, Note_on_c, 1, 36, 80
3, 21120, Note_on_c, 1, 28, 80
3, 21308, Note_off_c, 1, 40, 100
3, 21308, Note_off_c, 1, 36, 100
3, 21308, Note_off_c, 1, 28, 100
3, 23040, Note_on_c, 1, 55, 80
3, 23040, Note_on_c, 1, 52, 80
3, 23084, Note_off_c, 1, 55, 100
3, 23084, Note_off_c, 1, 52, 100
3, 23088, Note_on_c, 1, 60, 80
3, 23132, Note_off_c, 1, 60, 100
3, 23136, Note_on_c, 1, 55, 80
3, 23136, Note_on_c, 1, 52, 80
3, 23180, Note_off_c, 1, 55, 100
3, 23180, Note_off_c, 1, 52, 100
3, 23184, Note_on_c, 1, 60, 80
3, 23228, Note_off_c, 1, 60, 100
3, 23232, Note_on_c, 1, 55, 80
3, 23232, Note_on_c, 1, 52, 80
3, 23276, Note_off_c, 1, 55, 100
3, 23276, Note_off_c, 1, 52, 100
3, 23280, Note_on_c, 1, 60, 80
3, 23324, Note_off_c, 1, 60, 100
3, 23328, Note_on_c, 1, 55, 80
3, 23328, Note_on_c, 1, 52, 80
3, 23372, Note_off_c, 1, 55, 100
3, 23372, Note_off_c, 1, 52, 100
3, 23376, Note_on_c, 1, 60, 80
3, 23420, Note_off_c, 1, 60, 100
3, 23424, Note_on_c, 1, 55, 80
3, 23424, Note_on_c, 1, 52, 80
3, 23468, Note_off_c, 1, 55, 100
3, 23468, Note_off_c, 1, 52, 100
3, 23472, Note_on_c, 1, 60, 80
3, 23516, Note_off_c, 1, 60, 100
3, 23520, Note_on_c, 1, 55, 80
3, 23520, Note_on_c, 1, 52, 80
3, 23564, Note_off_c, 1, 55, 100
3, 23564, Note_off_c, 1, 52, 100
3, 23568, Note_on_c, 1, 60, 80
3, 23612, Note_off_c, 1, 60, 100
3, 23616, Note_on_c, 1, 57, 80
3, 23616, Note_on_c, 1, 53, 80
3, 23660, Note_off_c, 1, 57, 100
3, 23660, Note_off_c, 1, 53, 100
3, 23664, Note_on_c, 1, 60, 80
3, 23708, Note_off_c, 1, 60, 100
3, 23712, Note_on_c, 1, 57, 80
3, 23712, Note_on_c, 1, 53, 80
3, 23756, Note_off_c, 1, 57, 100
3, 23756, Note_off_c, 1, 53, 100
3, 23760, Note_on_c, 1, 60, 80
3, 23804, Note_off_c, 1, 60, 100
3, 23808, Note_on_c, 1, 58, 80
3, 23808, Note_on_c, 1, 55, 80
3, 23852, Note_off_c, 1, 58, 100
3, 23852, Note_off_c, 1, 55, 100
3, 23856, Note_on_c, 1, 60, 80
3, 23900, Note_off_c, 1, 60, 100
3, 23904, Note_on_c, 1, 58, 80
3, 23904, Note_on_c, 1, 55, 80
3, 23948, Note_off_c, 1, 58, 100
3, 23948, Note_off_c, 1, 55, 100
3, 23952, Note_on_c, 1, 60, 80
3, 23996, Note_off_c, 1, 60, 100
3, 24000, Note_on_c, 1, 58, 80
3, 24000, Note_on_c, 1, 55, 80
3, 24044, Note_off_c, 1, 58, 100
3, 24044, Note_off_c, 1, 55, 100
3, 24048, Note_on_c, 1, 60, 80
3, 24092, Note_off_c, 1, 60, 100
3, 24096, Note_on_c, 1, 58, 80
3, 24096, Note_on_c, 1, 55, 80
3, 24140, Note_off_c, 1, 58, 100
3, 24140, Note_off_c, 1, 55, 100
3, 24144, Note_on_c, 1, 60, 80
3, 24188, Note_off_c, 1, 60, 100
3, 24192, Note_on_c, 1, 58, 80
3, 24192, Note_on_c, 1, 55, 80
3, 24236, Note_off_c, 1, 58, 100
3, 24236, Note_off_c, 1, 55, 100
3, 24240, Note_on_c, 1, 60, 80
3, 24284, Note_off_c, 1, 60, 100
3, 24288, Note_on_c, 1, 57, 80
3, 24288, Note_on_c, 1, 53, 80
3, 24332, Note_off_c, 1, 57, 100
3, 24332, Note_off_c, 1, 53, 100
3, 24336, Note_on_c, 1, 60, 80
3, 24380, Note_off_c, 1, 60, 100
3, 24384, Note_on_c, 1, 55, 80
3, 24384, Note_on_c, 1, 52, 80
3, 24428, Note_off_c, 1, 55, 100
3, 24428, Note_off_c, 1, 52, 100
3, 24432, Note_on_c, 1, 60, 80
3, 24476, Note_off_c, 1, 60, 100
3, 24480, Note_on_c, 1, 55, 80
3, 24480, Note_on_c, 1, 52, 80
3, 24524, Note_off_c, 1, 55, 100
3, 24524, Note_off_c, 1, 52, 100
3, 24528, Note_on_c, 1, 60, 80
3, 24572, Note_off_c, 1, 60, 100
3, 24576, Note_on_c, 1, 55, 80
3, 24576, Note_on_c, 1, 52, 80
3, 24620, Note_off_c, 1, 55, 100
3, 24620, Note_off_c, 1, 52, 100
3, 24624, Note_on_c, 1, 60, 80
3, 24668, Note_off_c, 1, 60, 100
3, 24672, Note_on_c, 1, 55, 80
3, 24672, Note_on_c, 1, 52, 80
3, 24716, Note_off_c, 1, 55, 100
3, 24716, Note_off_c, 1, 52, 100
3, 24720, Note_on_c, 1, 60, 80
3, 24764, Note_off_c, 1, 60, 100
3, 24768, Note_on_c, 1, 55, 80
3, 24768, Note_on_c, 1, 52, 80
3, 24812, Note_off_c, 1, 55, 100
3, 24812, Note_off_c, 1, 52, 100
3, 24816, Note_on_c, 1, 60, 80
3, 24860, Note_off_c, 1, 60, 100
3, 24864, Note_on_c, 1, 55, 80
3, 24864, Note_on_c, 1, 52, 80
3, 24908, Note_off_c, 1, 55, 100
3, 24908, Note_off_c, 1, 52, 100
3, 24912, Note_on_c, 1, 60, 80
3, 24956, Note_off_c, 1, 60, 100
3, 24960, Note_on_c, 1, 55, 80
3, 24960, Note_on_c, 1, 52, 80
3, 25004, Note_off_c, 1, 55, 100
3, 25004, Note_off_c, 1, 52, 100
3, 25008, Note_on_c, 1, 60, 80
3, 25052, Note_off_c, 1, 60, 100
3, 25056, Note_on_c, 1, 55, 80
3, 25056, Note_on_c, 1, 52, 80
3, 25100, Note_off_c, 1, 55, 100
3, 25100, Note_off_c, 1, 52, 100
3, 25104, Note_on_c, 1, 60, 80
3, 25148, Note_off_c, 1, 60, 100
3, 25152, Note_on_c, 1, 57, 80
3, 25152, Note_on_c, 1, 53, 80
3, 25196, Note_off_c, 1, 57, 100
3, 25196, Note_off_c, 1, 53, 100
3, 25200, Note_on_c, 1, 60, 80
3, 25244, Note_off_c, 1, 60, 100
3, 25248, Note_on_c, 1, 57, 80
3, 25248, Note_on_c, 1, 53, 80
3, 25292, Note_off_c, 1, 57, 100
3, 25292, Note_off_c, 1, 53, 100
3, 25296, Note_on_c, 1, 60, 80
3, 25340, Note_off_c, 1, 60, 100
3, 25344, Note_on_c, 1, 58, 80
3, 25344, Note_on_c, 1, 55, 80
3, 25388, Note_off_c, 1, 58, 100
3, 25388, Note_off_c, 1, 55, 100
3, 25392, Note_on_c, 1, 60, 80
3, 25436, Note_off_c, 1, 60, 100
3, 25440, Note_on_c, 1, 58, 80
3, 25440, Note_on_c, 1, 55, 80
3, 25484, Note_off_c, 1, 58, 100
3, 25484, Note_off_c, 1, 55, 100
3, 25488, Note_on_c, 1, 60, 80
3, 25532, Note_off_c, 1, 60, 100
3, 25536, Note_on_c, 1, 58, 80
3, 25536, Note_on_c, 1, 55, 80
3, 25580, Note_off_c, 1, 58, 100
3, 25580, Note_off_c, 1, 55, 100
3, 25584, Note_on_c, 1, 60, 80
3, 25628, Note_off_c, 1, 60, 100
3, 25632, Note_on_c, 1, 58, 80
3, 25632, Note_on_c, 1, 55, 80
3, 25676, Note_off_c, 1, 58, 100
3, 25676, Note_off_c, 1, 55, 100
3, 25680, Note_on_c, 1, 60, 80
3, 25724, Note_off_c, 1, 60, 100
3, 25728, Note_on_c, 1, 58, 80
3, 25728, Note_on_c, 1, 55, 80
3, 25772, Note_off_c, 1, 58, 100
3, 25772, Note_off_c, 1, 55, 100
3, 25776, Note_on_c, 1, 60, 84
3, 25820, Note_off_c, 1, 60, 100
3, 25824, Note_on_c, 1, 56, 88
3, 25824, Note_on_c, 1, 53, 88
3, 25868, Note_off_c, 1, 56, 100
3, 25868, Note_off_c, 1, 53, 100
3, 25872, Note_on_c, 1, 60, 93
3, 25916, Note_off_c, 1, 60, 100
3, 25920, Note_on_c, 1, 55, 97
3, 25920, Note_on_c, 1, 52, 97
3, 25964, Note_off_c, 1, 55, 100
3, 25964, Note_off_c, 1, 52, 100
3, 25968, Note_on_c, 1, 60, 101
3, 26012, Note_off_c, 1, 60, 100
3, 26016, Note_on_c, 1, 55, 106
3, 26016, Note_on_c, 1, 52, 106
3, 26060, Note_off_c, 1, 55, 100
3, 26060, Note_off_c, 1, 52, 100
3, 26064, Note_on_c, 1, 60, 110
3, 26108, Note_off_c, 1, 60, 100
3, 26112, Note_on_c, 1, 56, 110
3, 26112, Note_on_c, 1, 53, 110
3, 26144, Note_off_c, 1, 56, 100
3, 26144, Note_off_c, 1, 53, 100
3, 26160, Note_on_c, 1, 60, 109
3, 26192, Note_off_c, 1, 60, 100
3, 26208, Note_on_c, 1, 64, 107
3, 26240, Note_off_c, 1, 64, 100
3, 26256, Note_on_c, 1, 65, 105
3, 26288, Note_off_c, 1, 65, 100
3, 26304, Note_on_c, 1, 60, 103
3, 26336, Note_off_c, 1, 60, 100
3, 26352, Note_on_c, 1, 56, 101
3, 26384, Note_off_c, 1, 56, 100
3, 26400, Note_on_c, 1, 55, 99
3, 26432, Note_off_c, 1, 55, 100
3, 26448, Note_on_c, 1, 53, 97
3, 26480, Note_off_c, 1, 53, 100
3, 26496, Note_on_c, 1, 52, 95
3, 26496, Note_on_c, 1, 48, 95
3, 26528, Note_off_c, 1, 52, 100
3, 26528, Note_off_c, 1, 48, 100
3, 26544, Note_on_c, 1, 55, 93
3, 26576, Note_off_c, 1, 55, 100
3, 26592, Note_on_c, 1, 58, 91
3, 26624, Note_off_c, 1, 58, 100
3, 26640, Note_on_c, 1, 48, 89
3, 26672, Note_off_c, 1, 48, 100
3, 26688, Note_on_c, 1, 49, 87
3, 26720, Note_off_c, 1, 49, 100
3, 26736, Note_on_c, 1, 53, 85
3, 26768, Note_off_c, 1, 53, 100
3, 26784, Note_on_c, 1, 56, 83
3, 26816, Note_off_c, 1, 56, 100
3, 26832, Note_on_c, 1, 49, 81
3, 26864, Note_off_c, 1, 49, 100
3, 26880, Note_on_c, 1, 53, 110
3, 26880, Note_on_c, 1, 49, 110
3, 26912, Note_off_c, 1, 53, 100
3, 26912, Note_off_c, 1, 49, 100
3, 26928, Note_on_c, 1, 56, 109
3, 26960, Note_off_c, 1, 56, 100
3, 26976, Note_on_c, 1, 60, 107
3, 27008, Note_off_c, 1, 60, 100
3, 27024, Note_on_c, 1, 61, 105
3, 27056, Note_off_c, 1, 61, 100
3, 27072, Note_on_c, 1, 56, 103
3, 27104, Note_off_c, 1, 56, 100
3, 27120, Note_on_c, 1, 53, 101
3, 27152, Note_off_c, 1, 53, 100
3, 27168, Note_on_c, 1, 51, 99
3, 27200, Note_off_c, 1, 51, 100
3, 27216, Note_on_c, 1, 49, 97
3, 27248, Note_off_c, 1, 49, 100
3, 27264, Note_on_c, 1, 45, 95
3, 27264, Note_on_c, 1, 41, 95
3, 27296, Note_off_c, 1, 45, 100
3, 27296, Note_off_c, 1, 41, 100
3, 27312, Note_on_c, 1, 48, 93
3, 27344, Note_off_c, 1, 48, 100
3, 27360, Note_on_c, 1, 53, 91
3, 27392, Note_off_c, 1, 53, 100
3, 27408, Note_on_c, 1, 45, 89
3, 27440, Note_off_c, 1, 45, 100
3, 27456, Note_on_c, 1, 46, 87
3, 27488, Note_off_c, 1, 46, 100
3, 27504, Note_on_c, 1, 49, 85
3, 27536, Note_off_c, 1, 49, 100
3, 27552, Note_on_c, 1, 53, 83
3, 27584, Note_off_c, 1, 53, 100
3, 27600, Note_on_c, 1, 46, 81
3, 27632, Note_off_c, 1, 46, 100
3, 27648, Control_c, 1, 64, 127
3, 27648, Note_on_c, 1, 43, 80
3, 27648, Note_on_c, 1, 56, 80
3, 27836, Note_off_c, 1, 56, 100
3, 27840, Note_on_c, 1, 47, 80
3, 28028, Note_off_c, 1, 47, 100
3, 28032, Note_on_c, 1, 50, 80
3, 28220, Note_off_c, 1, 50, 100
3, 28224, Note_on_c, 1, 47, 80
3, 28408, Control_c, 1, 64, 0
3, 28412, Note_off_c, 1, 43, 100
3, 28412, Note_off_c, 1, 47, 100
3, 29184, Control_c, 1, 64, 127
3, 29184, Note_on_c, 1, 47, 70
3, 29184, Note_on_c, 1, 62, 70
3, 29372, Note_off_c, 1, 62, 100
3, 29376, Note_on_c, 1, 53, 70
3, 29564, Note_off_c, 1, 53, 100
3, 29568, Note_on_c, 1, 56, 70
3, 29756, Note_off_c, 1, 56, 100
3, 29760, Note_on_c, 1, 53, 70
3, 29944, Control_c, 1, 64, 0
3, 29948, Note_off_c, 1, 47, 100
3, 29948, Note_off_c, 1, 53, 100
3, 30720, Control_c, 1, 64, 127
3, 30720, Note_on_c, 1, 46, 70
3, 30740, Note_off_c, 1, 46, 100
3, 30744, Note_on_c, 1, 62, 70
3, 30908, Note_off_c, 1, 62, 100
3, 30912, Note_on_c, 1, 53, 70
3, 31100, Note_off_c, 1, 53, 100
3, 31104, Note_on_c, 1, 62, 70
3, 31292, Note_off_c, 1, 62, 100
3, 31296, Note_on_c, 1, 56, 70
3, 31484, Note_off_c, 1, 56, 100
3, 31488, Note_on_c, 1, 65, 70
3, 31680, Note_on_c, 1, 58, 70
3, 31868, Note_off_c, 1, 65, 100
3, 31872, Note_on_c, 1, 68, 70
3, 32060, Note_off_c, 1, 58, 100
3, 32064, Note_on_c, 1, 58, 70
3, 32252, Note_off_c, 1, 68, 100
3, 32252, Note_off_c, 1, 58, 100
3, 32256, Note_on_c, 1, 68, 110
3, 32256, Note_on_c, 1, 65, 110
3, 32256, Note_on_c, 1, 62, 110
3, 32256, Note_on_c, 1, 58, 110
3, 32444, Note_off_c, 1, 68, 100
3, 32444, Note_off_c, 1, 65, 100
3, 32444, Note_off_c, 1, 62, 100
3, 32444, Note_off_c, 1, 58, 100
3, 32444, Control_c, 1, 64, 0
3, 32448, Note_on_c, 1, 46, 110
3, 32544, Note_on_c, 1, 50, 110
3, 32638, Note_off_c, 1, 46, 100
3, 32640, Note_on_c, 1, 46, 110
3, 32734, Note_off_c, 1, 50, 100
3, 32736, Note_on_c, 1, 50, 110
3, 32826, Note_off_c, 1, 46, 100
3, 32832, Note_on_c, 1, 50, 110
3, 32922, Note_off_c, 1, 50, 100
3, 32928, Note_on_c, 1, 53, 110
3, 33022, Note_off_c, 1, 50, 100
3, 33024, Note_on_c, 1, 50, 110
3, 33114, Note_off_c, 1, 53, 100
3, 33120, Note_on_c, 1, 53, 110
3, 33214, Note_off_c, 1, 50, 100
3, 33216, Note_on_c, 1, 50, 110
3, 33304, Note_off_c, 1, 53, 100
3, 33312, Note_on_c, 1, 53, 110
3, 33404, Note_off_c, 1, 50, 100
3, 33408, Note_on_c, 1, 53, 110
3, 33502, Note_off_c, 1, 53, 100
3, 33504, Note_on_c, 1, 56, 110
3, 33598, Note_off_c, 1, 53, 100
3, 33600, Note_on_c, 1, 53, 110
3, 33686, Note_off_c, 1, 56, 100
3, 33696, Note_on_c, 1, 56, 110
3, 33790, Note_off_c, 1, 53, 100
3, 33792, Note_on_c, 1, 53, 110
3, 33880, Note_off_c, 1, 56, 100
3, 33888, Note_on_c, 1, 56, 110
3, 33976, Note_off_c, 1, 53, 100
3, 33984, Note_on_c, 1, 58, 110
3, 34072, Note_off_c, 1, 56, 100
3, 34080, Note_on_c, 1, 62, 110
3, 34168, Note_off_c, 1, 58, 100
3, 34176, Note_on_c, 1, 58, 110
3, 34266, Note_off_c, 1, 62, 100
3, 34272, Note_on_c, 1, 62, 110
3, 34360, Note_off_c, 1, 58, 100
3, 34368, Note_on_c, 1, 58, 110
3, 34458, Note_off_c, 1, 62, 100
3, 34464, Note_on_c, 1, 62, 110
3, 34558, Note_off_c, 1, 58, 100
3, 34560, Note_on_c, 1, 62, 110
3, 34652, Note_off_c, 1, 62, 100
3, 34656, Note_on_c, 1, 65, 110
3, 34748, Note_off_c, 1, 62, 100
3, 34752, Note_on_c, 1, 62, 110
3, 34844, Note_off_c, 1, 65, 100
3, 34848, Note_on_c, 1, 65, 110
3, 34938, Note_off_c, 1, 62, 100
3, 34944, Note_on_c, 1, 62, 110
3, 35034, Note_off_c, 1, 65, 100
3, 35040, Note_on_c, 1, 65, 110
3, 35134, Note_off_c, 1, 62, 100
3, 35136, Note_on_c, 1, 65, 110
3, 35228, Note_off_c, 1, 65, 100
3, 35232, Note_on_c, 1, 68, 110
3, 35322, Note_off_c, 1, 65, 100
3, 35328, Note_on_c, 1, 65, 110
3, 35416, Note_off_c, 1, 68, 100
3, 35424, Note_on_c, 1, 68, 110
3, 35512, Note_off_c, 1, 65, 100
3, 35520, Note_on_c, 1, 65, 110
3, 35608, Note_off_c, 1, 68, 100
3, 35616, Note_on_c, 1, 68, 110
3, 35710, Note_off_c, 1, 65, 100
3, 35712, Note_on_c, 1, 74, 110
3, 35806, Note_off_c, 1, 68, 100
3, 35808, Note_on_c, 1, 77, 110
3, 35892, Note_off_c, 1, 74, 100
3, 35904, Note_on_c, 1, 74, 110
3, 35998, Note_off_c, 1, 77, 100
3, 36000, Note_on_c, 1, 77, 110
3, 36092, Note_off_c, 1, 74, 100
3, 36096, Note_on_c, 1, 74, 110
3, 36190, Note_off_c, 1, 77, 100
3, 36192, Note_on_c, 1, 77, 110
3, 36278, Note_off_c, 1, 74, 100
3, 36288, Note_on_c, 1, 77, 110
3, 36382, Note_off_c, 1, 77, 100
3, 36384, Note_on_c, 1, 80, 110
3, 36476, Note_off_c, 1, 77, 100
3, 36480, Note_on_c, 1, 77, 110
3, 36572, Note_off_c, 1, 80, 100
3, 36576, Note_on_c, 1, 80, 110
3, 36664, Note_off_c, 1, 77, 100
3, 36672, Note_on_c, 1, 77, 110
3, 36764, Note_off_c, 1, 80, 100
3, 36768, Note_on_c, 1, 80, 110
3, 36860, Note_off_c, 1, 80, 100
3, 36862, Note_off_c, 1, 77, 100
3, 37248, Note_on_c, 1, 77, 109
3, 37248, Note_on_c, 1, 80, 109
3, 37436, Note_off_c, 1, 77, 100
3, 37436, Note_off_c, 1, 80, 100
3, 37440, Note_on_c, 1, 77, 108
3, 37440, Note_on_c, 1, 74, 108
3, 37820, Note_off_c, 1, 77, 100
3, 37820, Note_off_c, 1, 74, 100
3, 38400, Note_on_c, 1, 77, 104
3, 38400, Note_on_c, 1, 80, 104
3, 38588, Note_off_c, 1, 77, 100
3, 38588, Note_off_c, 1, 80, 100
3, 38592, Note_on_c, 1, 77, 103
3, 38592, Note_on_c, 1, 74, 103
3, 38972, Note_off_c, 1, 77, 100
3, 38972, Note_off_c, 1, 74, 100
3, 39552, Note_on_c, 1, 65, 99
3, 39552, Note_on_c, 1, 68, 99
3, 39740, Note_off_c, 1, 65, 100
3, 39740, Note_off_c, 1, 68, 100
3, 39744, Note_on_c, 1, 65, 98
3, 39744, Note_on_c, 1, 62, 98
3, 40124, Note_off_c, 1, 65, 100
3, 40124, Note_off_c, 1, 62, 100
3, 40704, Note_on_c, 1, 65, 93
3, 40704, Note_on_c, 1, 68, 93
3, 40892, Note_off_c, 1, 65, 100
3, 40892, Note_off_c, 1, 68, 100
3, 40896, Note_on_c, 1, 65, 93
3, 40896, Note_on_c, 1, 62, 93
3, 41276, Note_off_c, 1, 65, 100
3, 41276, Note_off_c, 1, 62, 100
3, 41472, Note_on_c, 1, 58, 110
3, 41472, Note_on_c, 1, 53, 110
3, 41472, Note_on_c, 1, 50, 110
3, 41472, Note_on_c, 1, 46, 110
3, 41660, Note_off_c, 1, 58, 100
3, 41660, Note_off_c, 1, 53, 100
3, 41660, Note_off_c, 1, 50, 100
3, 41660, Note_off_c, 1, 46, 100
3, 41664, Note_on_c, 1, 46, 110
3, 41852, Note_off_c, 1, 46, 100
3, 41856, Note_on_c, 1, 46, 110
3, 42044, Note_off_c, 1, 46, 100
3, 42048, Note_on_c, 1, 50, 110
3, 42236, Note_off_c, 1, 50, 100
3, 42240, Note_on_c, 1, 53, 110
3, 42428, Note_off_c, 1, 53, 100
3, 42432, Note_on_c, 1, 58, 110
3, 42620, Note_off_c, 1, 58, 100
3, 42624, Note_on_c, 1, 62, 110
3, 42812, Note_off_c, 1, 62, 100
3, 42816, Note_on_c, 1, 65, 110
3, 43004, Note_off_c, 1, 65, 100
3, 43008, Note_on_c, 1, 68, 110
3, 43008, Note_on_c, 1, 70, 110
3, 43196, Note_off_c, 1, 68, 100
3, 43196, Note_off_c, 1, 70, 100
3, 43200, Note_on_c, 1, 68, 110
3, 43200, Note_on_c, 1, 70, 110
3, 43388, Note_off_c, 1, 68, 100
3, 43388, Note_off_c, 1, 70, 100
3, 43392, Note_on_c, 1, 68, 110
3, 43392, Note_on_c, 1, 70, 110
3, 43580, Note_off_c, 1, 68, 100
3, 43580, Note_off_c, 1, 70, 100
3, 43584, Note_on_c, 1, 68, 110
3, 43584, Note_on_c, 1, 70, 110
3, 43772, Note_off_c, 1, 68, 100
3, 43772, Note_off_c, 1, 70, 100
3, 43776, Note_on_c, 1, 70, 80
3, 43776, Note_on_c, 1, 67, 80
3, 43776, Note_on_c, 1, 63, 80
3, 44156, Note_off_c, 1, 70, 100
3, 44156, Note_off_c, 1, 67, 100
3, 44156, Note_off_c, 1, 63, 100
3, 44352, Note_on_c, 1, 70, 80
3, 44352, Note_on_c, 1, 68, 80
3, 44352, Note_on_c, 1, 65, 80
3, 44352, Note_on_c, 1, 58, 80
3, 44732, Note_off_c, 1, 70, 100
3, 44732, Note_off_c, 1, 68, 100
3, 44732, Note_off_c, 1, 65, 100
3, 44732, Note_off_c, 1, 58, 100
3, 44928, Note_on_c, 1, 70, 80
3, 44928, Note_on_c, 1, 67, 80
3, 44928, Note_on_c, 1, 63, 80
3, 45308, Note_off_c, 1, 70, 100
3, 45308, Note_off_c, 1, 67, 100
3, 45308, Note_off_c, 1, 63, 100
3, 45888, Note_on_c, 1, 72, 89
3, 45888, Note_on_c, 1, 70, 89
3, 45888, Note_on_c, 1, 67, 89
3, 45888, Note_on_c, 1, 64, 89
3, 46076, Note_off_c, 1, 72, 100
3, 46076, Note_off_c, 1, 70, 100
3, 46076, Note_off_c, 1, 67, 100
3, 46076, Note_off_c, 1, 64, 100
3, 46080, Note_on_c, 1, 72, 90
3, 46080, Note_on_c, 1, 68, 90
3, 46080, Note_on_c, 1, 65, 90
3, 46460, Note_off_c, 1, 72, 100
3, 46460, Note_off_c, 1, 68, 100
3, 46460, Note_off_c, 1, 65, 100
3, 46656, Note_on_c, 1, 72, 96
3, 46656, Note_on_c, 1, 70, 96
3, 46656, Note_on_c, 1, 67, 96
3, 46656, Note_on_c, 1, 60, 96
3, 47036, Note_off_c, 1, 72, 100
3, 47036, Note_off_c, 1, 70, 100
3, 47036, Note_off_c, 1, 67, 100
3, 47036, Note_off_c, 1, 60, 100
3, 47232, Note_on_c, 1, 72, 100
3, 47232, Note_on_c, 1, 68, 100
3, 47232, Note_on_c, 1, 65, 100
3, 47612, Note_off_c, 1, 72, 100
3, 47612, Note_off_c, 1, 68, 100
3, 47612, Note_off_c, 1, 65, 100
3, 48192, Note_on_c, 1, 70, 81
3, 48192, Note_on_c, 1, 68, 81
3, 48192, Note_on_c, 1, 65, 81
3, 48192, Note_on_c, 1, 62, 81
3, 48380, Note_off_c, 1, 70, 100
3, 48380, Note_off_c, 1, 68, 100
3, 48380, Note_off_c, 1, 65, 100
3, 48380, Note_off_c, 1, 62, 100
3, 48384, Note_on_c, 1, 70, 80
3, 48384, Note_on_c, 1, 67, 80
3, 48384, Note_on_c, 1, 63, 80
3, 48764, Note_off_c, 1, 70, 100
3, 48764, Note_off_c, 1, 67, 100
3, 48764, Note_off_c, 1, 63, 100
3, 48960, Note_on_c, 1, 65, 80
3, 48960, Note_on_c, 1, 60, 80
3, 48960, Note_on_c, 1, 56, 80
3, 49340, Note_off_c, 1, 65, 100
3, 49340, Note_off_c, 1, 60, 100
3, 49340, Note_off_c, 1, 56, 100
3, 49536, Note_on_c, 1, 67, 80
3, 49536, Note_on_c, 1, 63, 80
3, 49536, Note_on_c, 1, 58, 80
3, 49916, Note_off_c, 1, 67, 100
3, 49916, Note_off_c, 1, 63, 100
3, 49916, Note_off_c, 1, 58, 100
3, 50112, Note_on_c, 1, 65, 80
3, 50112, Note_on_c, 1, 62, 80
3, 50112, Note_on_c, 1, 58, 80
3, 50492, Note_off_c, 1, 65, 100
3, 50492, Note_off_c, 1, 62, 100
3, 50492, Note_off_c, 1, 58, 100
3, 50496, Note_on_c, 1, 58, 80
3, 50684, Note_off_c, 1, 58, 100
3, 50688, Note_on_c, 1, 58, 80
3, 50876, Note_off_c, 1, 58, 100
3, 50880, Note_on_c, 1, 55, 80
3, 51068, Note_off_c, 1, 55, 100
3, 51072, Note_on_c, 1, 51, 81
3, 51260, Note_off_c, 1, 51, 100
3, 51264, Note_on_c, 1, 50, 82
3, 51452, Note_off_c, 1, 50, 100
3, 51456, Note_on_c, 1, 53, 83
3, 51644, Note_off_c, 1, 53, 100
3, 51648, Note_on_c, 1, 58, 84
3, 51836, Note_off_c, 1, 58, 100
3, 51840, Note_on_c, 1, 58, 85
3, 52028, Note_off_c, 1, 58, 100
3, 52032, Note_on_c, 1, 55, 85
3, 52220, Note_off_c, 1, 55, 100
3, 52224, Note_on_c, 1, 51, 86
3, 52412, Note_off_c, 1, 51, 100
3, 52416, Note_on_c, 1, 51, 87
3, 52604, Note_off_c, 1, 51, 100
3, 52608, Note_on_c, 1, 55, 88
3, 52796, Note_off_c, 1, 55, 100
3, 52800, Note_on_c, 1, 60, 89
3, 52800, Note_on_c, 1, 52, 89
3, 52988, Note_off_c, 1, 60, 100
3, 52988, Note_off_c, 1, 52, 100
3, 52992, Note_on_c, 1, 60, 90
3, 52992, Note_on_c, 1, 53, 90
3, 53180, Note_off_c, 1, 60, 100
3, 53180, Note_off_c, 1, 53, 100
3, 53184, Note_on_c, 1, 56, 91
3, 53372, Note_off_c, 1, 56, 100
3, 53376, Note_on_c, 1, 53, 91
3, 53564, Note_off_c, 1, 53, 100
3, 53568, Note_on_c, 1, 52, 92
3, 53756, Note_off_c, 1, 52, 100
3, 53760, Note_on_c, 1, 55, 93
3, 53948, Note_off_c, 1, 55, 100
3, 53952, Note_on_c, 1, 60, 94
3, 54140, Note_off_c, 1, 60, 100
3, 54144, Note_on_c, 1, 60, 95
3, 54332, Note_off_c, 1, 60, 100
3, 54336, Note_on_c, 1, 56, 96
3, 54524, Note_off_c, 1, 56, 100
3, 54528, Note_on_c, 1, 53, 97
3, 54716, Note_off_c, 1, 53, 100
3, 54720, Note_on_c, 1, 50, 97
3, 54908, Note_off_c, 1, 50, 100
3, 54912, Note_on_c, 1, 53, 98
3, 55100, Note_off_c, 1, 53, 100
3, 55104, Note_on_c, 1, 58, 99
3, 55104, Note_on_c, 1, 50, 99
3, 55292, Note_off_c, 1, 58, 100
3, 55292, Note_off_c, 1, 50, 100
3, 55296, Note_on_c, 1, 51, 100
3, 55296, Note_on_c, 1, 58, 100
3, 55484, Note_off_c, 1, 51, 100
3, 55484, Note_off_c, 1, 58, 100
3, 55488, Note_on_c, 1, 55, 101
3, 55676, Note_off_c, 1, 55, 100
3, 55680, Note_on_c, 1, 51, 102
3, 55868, Note_off_c, 1, 51, 100
3, 55872, Note_on_c, 1, 48, 103
3, 55872, Note_on_c, 1, 44, 103
3, 56060, Note_off_c, 1, 48, 100
3, 56060, Note_off_c, 1, 44, 100
3, 56064, Note_on_c, 1, 53, 103
3, 56252, Note_off_c, 1, 53, 100
3, 56256, Note_on_c, 1, 56, 104
3, 56444, Note_off_c, 1, 56, 100
3, 56448, Note_on_c, 1, 46, 105
3, 56636, Note_off_c, 1, 46, 100
3, 56640, Note_on_c, 1, 51, 106
3, 56828, Note_off_c, 1, 51, 100
3, 56832, Note_on_c, 1, 55, 107
3, 57020, Note_off_c, 1, 55, 100
3, 57024, Note_on_c, 1, 46, 108
3, 57212, Note_off_c, 1, 46, 100
3, 57216, Note_on_c, 1, 50, 109
3, 57404, Note_off_c, 1, 50, 100
3, 57408, Note_on_c, 1, 58, 109
3, 57408, Note_on_c, 1, 46, 109
3, 57596, Note_off_c, 1, 58, 100
3, 57596, Note_off_c, 1, 46, 100
3, 57600, Note_on_c, 1, 46, 110
3, 57788, Note_off_c, 1, 46, 100
3, 57792, Note_on_c, 1, 43, 110
3, 57980, Note_off_c, 1, 43, 100
3, 57984, Note_on_c, 1, 39, 110
3, 58172, Note_off_c, 1, 39, 100
3, 58176, Note_on_c, 1, 38, 110
3, 58364, Note_off_c, 1, 38, 100
3, 58368, Note_on_c, 1, 41, 110
3, 58556, Note_off_c, 1, 41, 100
3, 58560, Note_on_c, 1, 46, 110
3, 58748, Note_off_c, 1, 46, 100
3, 58752, Note_on_c, 1, 46, 110
3, 58940, Note_off_c, 1, 46, 100
3, 58944, Note_on_c, 1, 43, 110
3, 59132, Note_off_c, 1, 43, 100
3, 59136, Note_on_c, 1, 39, 110
3, 59324, Note_off_c, 1, 39, 100
3, 59328, Note_on_c, 1, 39, 110
3, 59516, Note_off_c, 1, 39, 100
3, 59520, Note_on_c, 1, 43, 110
3, 59708, Note_off_c, 1, 43, 100
3, 59712, Note_on_c, 1, 48, 110
3, 59712, Note_on_c, 1, 40, 110
3, 59900, Note_off_c, 1, 48, 100
3, 59900, Note_off_c, 1, 40, 100
3, 59904, Note_on_c, 1, 48, 110
3, 59904, Note_on_c, 1, 41, 110
3, 60092, Note_off_c, 1, 48, 100
3, 60092, Note_off_c, 1, 41, 100
3, 60096, Note_on_c, 1, 44, 110
3, 60284, Note_off_c, 1, 44, 100
3, 60288, Note_on_c, 1, 41, 110
3, 60476, Note_off_c, 1, 41, 100
3, 60480, Note_on_c, 1, 40, 110
3, 60668, Note_off_c, 1, 40, 100
3, 60672, Note_on_c, 1, 43, 110
3, 60860, Note_off_c, 1, 43, 100
3, 60864, Note_on_c, 1, 48, 110
3, 61052, Note_off_c, 1, 48, 100
3, 61056, Note_on_c, 1, 48, 110
3, 61244, Note_off_c, 1, 48, 100
3, 61248, Note_on_c, 1, 44, 110
3, 61436, Note_off_c, 1, 44, 100
3, 61440, Note_on_c, 1, 41, 110
3, 61628, Note_off_c, 1, 41, 100
3, 61632, Note_on_c, 1, 38, 110
3, 61820, Note_off_c, 1, 38, 100
3, 61824, Note_on_c, 1, 41, 110
3, 62012, Note_off_c, 1, 41, 100
3, 62016, Note_on_c, 1, 46, 110
3, 62016, Note_on_c, 1, 38, 110
3, 62204, Note_off_c, 1, 46, 100
3, 62204, Note_off_c, 1, 38, 100
3, 62208, Note_on_c, 1, 46, 110
3, 62208, Note_on_c, 1, 39, 110
3, 62396, Note_off_c, 1, 46, 100
3, 62396, Note_off_c, 1, 39, 100
3, 62400, Note_on_c, 1, 43, 110
3, 62588, Note_off_c, 1, 43, 100
3, 62592, Note_on_c, 1, 39, 110
3, 62780, Note_off_c, 1, 39, 100
3, 62784, Note_on_c, 1, 36, 110
3, 62784, Note_on_c, 1, 32, 110
3, 62972, Note_off_c, 1, 36, 100
3, 62972, Note_off_c, 1, 32, 100
3, 62976, Note_on_c, 1, 41, 110
3, 63164, Note_off_c, 1, 41, 100
3, 63168, Note_on_c, 1, 44, 110
3, 63356, Note_off_c, 1, 44, 100
3, 63360, Note_on_c, 1, 34, 110
3, 63548, Note_off_c, 1, 34, 100
3, 63552, Note_on_c, 1, 39, 110
3, 63740, Note_off_c, 1, 39, 100
3, 63744, Note_on_c, 1, 43, 110
3, 63932, Note_off_c, 1, 43, 100
3, 63936, Note_on_c, 1, 34, 110
3, 64124, Note_off_c, 1, 34, 100
3, 64128, Note_on_c, 1, 41, 110
3, 64316, Note_off_c, 1, 41, 100
3, 64320, Note_on_c, 1, 46, 110
3, 64508, Note_off_c, 1, 46, 100
3, 64512, Control_c, 1, 64, 127
3, 64512, Note_on_c, 1, 39, 120
3, 64700, Note_off_c, 1, 39, 100
3, 64704, Note_on_c, 1, 55, 120
3, 64704, Note_on_c, 1, 51, 120
3, 64892, Note_off_c, 1, 55, 100
3, 64892, Note_off_c, 1, 51, 100
3, 64896, Note_on_c, 1, 51, 120
3, 64896, Note_on_c, 1, 55, 120
3, 64896, Note_on_c, 1, 58, 120
3, 65084, Note_off_c, 1, 51, 100
3, 65084, Note_off_c, 1, 55, 100
3, 65084, Note_off_c, 1, 58, 100
3, 65088, Note_on_c, 1, 51, 120
3, 65088, Note_on_c, 1, 55, 120
3, 65088, Note_on_c, 1, 58, 120
3, 65088, Note_on_c, 1, 63, 120
3, 65276, Note_off_c, 1, 51, 100
3, 65276, Note_off_c, 1, 55, 100
3, 65276, Note_off_c, 1, 58, 100
3, 65276, Note_off_c, 1, 63, 100
3, 65280, Note_on_c, 1, 51, 120
3, 65280, Note_on_c, 1, 55, 120
3, 65280, Note_on_c, 1, 58, 120
3, 65280, Note_on_c, 1, 63, 120
3, 65468, Note_off_c, 1, 51, 100
3, 65468, Note_off_c, 1, 55, 100
3, 65468, Note_off_c, 1, 58, 100
3, 65468, Note_off_c, 1, 63, 100
3, 65472, Note_on_c, 1, 51, 120
3, 65472, Note_on_c, 1, 55, 120
3, 65472, Note_on_c, 1, 58, 120
3, 65472, Note_on_c, 1, 63, 120
3, 65660, Note_off_c, 1, 51, 100
3, 65660, Note_off_c, 1, 55, 100
3, 65660, Note_off_c, 1, 58, 100
3, 65660, Note_off_c, 1, 63, 100
3, 65664, Note_on_c, 1, 51, 120
3, 65664, Note_on_c, 1, 55, 120
3, 65664, Note_on_c, 1, 58, 120
3, 65664, Note_on_c, 1, 63, 120
3, 65852, Note_off_c, 1, 51, 100
3, 65852, Note_off_c, 1, 55, 100
3, 65852, Note_off_c, 1, 58, 100
3, 65852, Note_off_c, 1, 63, 100
3, 65856, Note_on_c, 1, 51, 120
3, 65856, Note_on_c, 1, 55, 120
3, 65856, Note_on_c, 1, 58, 120
3, 65856, Note_on_c, 1, 63, 120
3, 66044, Note_off_c, 1, 51, 100
3, 66044, Note_off_c, 1, 55, 100
3, 66044, Note_off_c, 1, 58, 100
3, 66044, Note_off_c, 1, 63, 100
3, 66048, Note_on_c, 1, 51, 120
3, 66048, Note_on_c, 1, 55, 120
3, 66048, Note_on_c, 1, 58, 120
3, 66048, Note_on_c, 1, 63, 120
3, 66236, Note_off_c, 1, 51, 100
3, 66236, Note_off_c, 1, 55, 100
3, 66236, Note_off_c, 1, 58, 100
3, 66236, Note_off_c, 1, 63, 100
3, 66236, Control_c, 1, 64, 0
3, 66240, Note_on_c, 1, 51, 120
3, 66240, Note_on_c, 1, 53, 120
3, 66240, Note_on_c, 1, 56, 120
3, 66240, Note_on_c, 1, 58, 120
3, 66240, Note_on_c, 1, 62, 120
3, 66428, Note_off_c, 1, 51, 100
3, 66428, Note_off_c, 1, 53, 100
3, 66428, Note_off_c, 1, 56, 100
3, 66428, Note_off_c, 1, 58, 100
3, 66428, Note_off_c, 1, 62, 100
3, 66432, Note_on_c, 1, 51, 120
3, 66432, Note_on_c, 1, 53, 120
3, 66432, Note_on_c, 1, 56, 120
3, 66432, Note_on_c, 1, 58, 120
3, 66432, Note_on_c, 1, 62, 120
3, 66620, Note_off_c, 1, 51, 100
3, 66620, Note_off_c, 1, 53, 100
3, 66620, Note_off_c, 1, 56, 100
3, 66620, Note_off_c, 1, 58, 100
3, 66620, Note_off_c, 1, 62, 100
3, 66624, Note_on_c, 1, 51, 120
3, 66624, Note_on_c, 1, 53, 120
3, 66624, Note_on_c, 1, 56, 120
3, 66624, Note_on_c, 1, 58, 120
3, 66624, Note_on_c, 1, 62, 120
3, 66812, Note_off_c, 1, 51, 100
3, 66812, Note_off_c, 1, 53, 100
3, 66812, Note_off_c, 1, 56, 100
3, 66812, Note_off_c, 1, 58, 100
3, 66812, Note_off_c, 1, 62, 100
3, 66816, Note_on_c, 1, 63, 120
3, 66816, Note_on_c, 1, 58, 120
3, 66816, Note_on_c, 1, 55, 120
3, 66816, Note_on_c, 1, 51, 120
3, 67004, Note_off_c, 1, 63, 100
3, 67004, Note_off_c, 1, 58, 100
3, 67004, Note_off_c, 1, 55, 100
3, 67004, Note_off_c, 1, 51, 100
3, 67008, Note_on_c, 1, 63, 120
3, 67008, Note_on_c, 1, 58, 120
3, 67008, Note_on_c, 1, 55, 120
3, 67008, Note_on_c, 1, 51, 120
3, 67196, Note_off_c, 1, 63, 100
3, 67196, Note_off_c, 1, 58, 100
3, 67196, Note_off_c, 1, 55, 100
3, 67196, Note_off_c, 1, 51, 100
3, 67200, Note_on_c, 1, 63, 120
3, 67200, Note_on_c, 1, 58, 120
3, 67200, Note_on_c, 1, 55, 120
3, 67200, Note_on_c, 1, 51, 120
3, 67388, Note_off_c, 1, 63, 100
3, 67388, Note_off_c, 1, 58, 100
3, 67388, Note_off_c, 1, 55, 100
3, 67388, Note_off_c, 1, 51, 100
3, 67392, Note_on_c, 1, 63, 120
3, 67392, Note_on_c, 1, 58, 120
3, 67392, Note_on_c, 1, 55, 120
3, 67392, Note_on_c, 1, 51, 120
3, 67580, Note_off_c, 1, 63, 100
3, 67580, Note_off_c, 1, 58, 100
3, 67580, Note_off_c, 1, 55, 100
3, 67580, Note_off_c, 1, 51, 100
3, 67584, Note_on_c, 1, 63, 120
3, 67584, Note_on_c, 1, 58, 120
3, 67584, Note_on_c, 1, 55, 120
3, 67584, Note_on_c, 1, 51, 120
3, 67772, Note_off_c, 1, 63, 100
3, 67772, Note_off_c, 1, 58, 100
3, 67772, Note_off_c, 1, 55, 100
3, 67772, Note_off_c, 1, 51, 100
3, 67776, Note_on_c, 1, 63, 120
3, 67776, Note_on_c, 1, 58, 120
3, 67776, Note_on_c, 1, 55, 120
3, 67776, Note_on_c, 1, 51, 120
3, 67964, Note_off_c, 1, 63, 100
3, 67964, Note_off_c, 1, 58, 100
3, 67964, Note_off_c, 1, 55, 100
3, 67964, Note_off_c, 1, 51, 100
3, 67968, Note_on_c, 1, 63, 120
3, 67968, Note_on_c, 1, 58, 120
3, 67968, Note_on_c, 1, 55, 120
3, 67968, Note_on_c, 1, 51, 120
3, 68156, Note_off_c, 1, 63, 100
3, 68156, Note_off_c, 1, 58, 100
3, 68156, Note_off_c, 1, 55, 100
3, 68156, Note_off_c, 1, 51, 100
3, 68160, Note_on_c, 1, 63, 120
3, 68160, Note_on_c, 1, 58, 120
3, 68160, Note_on_c, 1, 55, 120
3, 68160, Note_on_c, 1, 51, 120
3, 68348, Note_off_c, 1, 63, 100
3, 68348, Note_off_c, 1, 58, 100
3, 68348, Note_off_c, 1, 55, 100
3, 68348, Note_off_c, 1, 51, 100
3, 68352, Note_on_c, 1, 63, 120
3, 68352, Note_on_c, 1, 58, 120
3, 68352, Note_on_c, 1, 55, 120
3, 68352, Note_on_c, 1, 51, 120
3, 68540, Note_off_c, 1, 63, 100
3, 68540, Note_off_c, 1, 58, 100
3, 68540, Note_off_c, 1, 55, 100
3, 68540, Note_off_c, 1, 51, 100
3, 68544, Note_on_c, 1, 58, 120
3, 68544, Note_on_c, 1, 56, 120
3, 68544, Note_on_c, 1, 53, 120
3, 68544, Note_on_c, 1, 51, 120
3, 68732, Note_off_c, 1, 58, 100
3, 68732, Note_off_c, 1, 56, 100
3, 68732, Note_off_c, 1, 53, 100
3, 68732, Note_off_c, 1, 51, 100
3, 68736, Note_on_c, 1, 58, 120
3, 68736, Note_on_c, 1, 56, 120
3, 68736, Note_on_c, 1, 53, 120
3, 68736, Note_on_c, 1, 51, 120
3, 68924, Note_off_c, 1, 58, 100
3, 68924, Note_off_c, 1, 56, 100
3, 68924, Note_off_c, 1, 53, 100
3, 68924, Note_off_c, 1, 51, 100
3, 68928, Note_on_c, 1, 58, 120
3, 68928, Note_on_c, 1, 56, 120
3, 68928, Note_on_c, 1, 53, 120
3, 68928, Note_on_c, 1, 51, 120
3, 69116, Note_off_c, 1, 58, 100
3, 69116, Note_off_c, 1, 56, 100
3, 69116, Note_off_c, 1, 53, 100
3, 69116, Note_off_c, 1, 51, 100
3, 69120, Control_c, 1, 64, 127
3, 69120, Note_on_c, 1, 39, 120
3, 69308, Note_off_c, 1, 39, 100
3, 69312, Note_on_c, 1, 55, 120
3, 69312, Note_on_c, 1, 51, 120
3, 69500, Note_off_c, 1, 55, 100
3, 69500, Note_off_c, 1, 51, 100
3, 69504, Note_on_c, 1, 51, 120
3, 69504, Note_on_c, 1, 55, 120
3, 69504, Note_on_c, 1, 58, 120
3, 69692, Note_off_c, 1, 51, 100
3, 69692, Note_off_c, 1, 55, 100
3, 69692, Note_off_c, 1, 58, 100
3, 69696, Note_on_c, 1, 51, 120
3, 69696, Note_on_c, 1, 55, 120
3, 69696, Note_on_c, 1, 58, 120
3, 69696, Note_on_c, 1, 63, 120
3, 69884, Note_off_c, 1, 51, 100
3, 69884, Note_off_c, 1, 55, 100
3, 69884, Note_off_c, 1, 58, 100
3, 69884, Note_off_c, 1, 63, 100
3, 69888, Note_on_c, 1, 51, 120
3, 69888, Note_on_c, 1, 55, 120
3, 69888, Note_on_c, 1, 58, 120
3, 69888, Note_on_c, 1, 63, 120
3, 70076, Note_off_c, 1, 51, 100
3, 70076, Note_off_c, 1, 55, 100
3, 70076, Note_off_c, 1, 58, 100
3, 70076, Note_off_c, 1, 63, 100
3, 70080, Note_on_c, 1, 51, 120
3, 70080, Note_on_c, 1, 55, 120
3, 70080, Note_on_c, 1, 58, 120
3, 70080, Note_on_c, 1, 63, 120
3, 70268, Note_off_c, 1, 51, 100
3, 70268, Note_off_c, 1, 55, 100
3, 70268, Note_off_c, 1, 58, 100
3, 70268, Note_off_c, 1, 63, 100
3, 70272, Note_on_c, 1, 51, 120
3, 70272, Note_on_c, 1, 55, 120
3, 70272, Note_on_c, 1, 58, 120
3, 70272, Note_on_c, 1, 63, 120
3, 70460, Note_off_c, 1, 51, 100
3, 70460, Note_off_c, 1, 55, 100
3, 70460, Note_off_c, 1, 58, 100
3, 70460, Note_off_c, 1, 63, 100
3, 70464, Note_on_c, 1, 51, 120
3, 70464, Note_on_c, 1, 55, 120
3, 70464, Note_on_c, 1, 58, 120
3, 70464, Note_on_c, 1, 63, 120
3, 70652, Note_off_c, 1, 51, 100
3, 70652, Note_off_c, 1, 55, 100
3, 70652, Note_off_c, 1, 58, 100
3, 70652, Note_off_c, 1, 63, 100
3, 70656, Note_on_c, 1, 51, 120
3, 70656, Note_on_c, 1, 55, 120
3, 70656, Note_on_c, 1, 58, 120
3, 70656, Note_on_c, 1, 63, 120
3, 70844, Note_off_c, 1, 51, 100
3, 70844, Note_off_c, 1, 55, 100
3, 70844, Note_off_c, 1, 58, 100
3, 70844, Note_off_c, 1, 63, 100
3, 70844, Control_c, 1, 64, 0
3, 70848, Note_on_c, 1, 51, 120
3, 70848, Note_on_c, 1, 53, 120
3, 70848, Note_on_c, 1, 56, 120
3, 70848, Note_on_c, 1, 58, 120
3, 70848, Note_on_c, 1, 62, 120
3, 71036, Note_off_c, 1, 51, 100
3, 71036, Note_off_c, 1, 53, 100
3, 71036, Note_off_c, 1, 56, 100
3, 71036, Note_off_c, 1, 58, 100
3, 71036, Note_off_c, 1, 62, 100
3, 71040, Note_on_c, 1, 51, 120
3, 71040, Note_on_c, 1, 53, 120
3, 71040, Note_on_c, 1, 56, 120
3, 71040, Note_on_c, 1, 58, 120
3, 71040, Note_on_c, 1, 62, 120
3, 71228, Note_off_c, 1, 51, 100
3, 71228, Note_off_c, 1, 53, 100
3, 71228, Note_off_c, 1, 56, 100
3, 71228, Note_off_c, 1, 58, 100
3, 71228, Note_off_c, 1, 62, 100
3, 71232, Note_on_c, 1, 51, 120
3, 71232, Note_on_c, 1, 53, 120
3, 71232, Note_on_c, 1, 56, 120
3, 71232, Note_on_c, 1, 58, 120
3, 71232, Note_on_c, 1, 62, 120
3, 71420, Note_off_c, 1, 51, 100
3, 71420, Note_off_c, 1, 53, 100
3, 71420, Note_off_c, 1, 56, 100
3, 71420, Note_off_c, 1, 58, 100
3, 71420, Note_off_c, 1, 62, 100
3, 71424, Note_on_c, 1, 63, 120
3, 71424, Note_on_c, 1, 58, 120
3, 71424, Note_on_c, 1, 55, 120
3, 71424, Note_on_c, 1, 51, 120
3, 71612, Note_off_c, 1, 63, 100
3, 71612, Note_off_c, 1, 58, 100
3, 71612, Note_off_c, 1, 55, 100
3, 71612, Note_off_c, 1, 51, 100
3, 71616, Note_on_c, 1, 63, 120
3, 71616, Note_on_c, 1, 58, 120
3, 71616, Note_on_c, 1, 55, 120
3, 71616, Note_on_c, 1, 51, 120
3, 71804, Note_off_c, 1, 63, 100
3, 71804, Note_off_c, 1, 58, 100
3, 71804, Note_off_c, 1, 55, 100
3, 71804, Note_off_c, 1, 51, 100
3, 71808, Note_on_c, 1, 63, 120
3, 71808, Note_on_c, 1, 58, 120
3, 71808, Note_on_c, 1, 55, 120
3, 71808, Note_on_c, 1, 51, 120
3, 71996, Note_off_c, 1, 63, 100
3, 71996, Note_off_c, 1, 58, 100
3, 71996, Note_off_c, 1, 55, 100
3, 71996, Note_off_c, 1, 51, 100
3, 72000, Note_on_c, 1, 63, 120
3, 72000, Note_on_c, 1, 58, 120
3, 72000, Note_on_c, 1, 55, 120
3, 72000, Note_on_c, 1, 51, 120
3, 72188, Note_off_c, 1, 63, 100
3, 72188, Note_off_c, 1, 58, 100
3, 72188, Note_off_c, 1, 55, 100
3, 72188, Note_off_c, 1, 51, 100
3, 72192, Note_on_c, 1, 63, 120
3, 72192, Note_on_c, 1, 58, 120
3, 72192, Note_on_c, 1, 55, 120
3, 72192, Note_on_c, 1, 51, 120
3, 72380, Note_off_c, 1, 63, 100
3, 72380, Note_off_c, 1, 58, 100
3, 72380, Note_off_c, 1, 55, 100
3, 72380, Note_off_c, 1, 51, 100
3, 72384, Note_on_c, 1, 63, 120
3, 72384, Note_on_c, 1, 58, 120
3, 72384, Note_on_c, 1, 55, 120
3, 72384, Note_on_c, 1, 51, 120
3, 72572, Note_off_c, 1, 63, 100
3, 72572, Note_off_c, 1, 58, 100
3, 72572, Note_off_c, 1, 55, 100
3, 72572, Note_off_c, 1, 51, 100
3, 72576, Note_on_c, 1, 58, 120
3, 72576, Note_on_c, 1, 55, 120
3, 72576, Note_on_c, 1, 51, 120
3, 72764, Note_off_c, 1, 58, 100
3, 72764, Note_off_c, 1, 55, 100
3, 72764, Note_off_c, 1, 51, 100
3, 72768, Note_on_c, 1, 58, 120
3, 72768, Note_on_c, 1, 55, 120
3, 72768, Note_on_c, 1, 51, 120
3, 72956, Note_off_c, 1, 58, 100
3, 72956, Note_off_c, 1, 55, 100
3, 72956, Note_off_c, 1, 51, 100
3, 72960, Note_on_c, 1, 58, 120
3, 72960, Note_on_c, 1, 55, 120
3, 72960, Note_on_c, 1, 51, 120
3, 73148, Note_off_c, 1, 58, 100
3, 73148, Note_off_c, 1, 55, 100
3, 73148, Note_off_c, 1, 51, 100
3, 73152, Note_on_c, 1, 53, 120
3, 73152, Note_on_c, 1, 51, 120
3, 73340, Note_off_c, 1, 53, 100
3, 73340, Note_off_c, 1, 51, 100
3, 73344, Note_on_c, 1, 53, 120
3, 73344, Note_on_c, 1, 51, 120
3, 73344, Note_on_c, 1, 41, 120
3, 73532, Note_off_c, 1, 53, 100
3, 73532, Note_off_c, 1, 51, 100
3, 73532, Note_off_c, 1, 41, 100
3, 73536, Note_on_c, 1, 53, 120
3, 73536, Note_on_c, 1, 51, 120
3, 73536, Note_on_c, 1, 41, 120
3, 73724, Note_off_c, 1, 53, 100
3, 73724, Note_off_c, 1, 51, 100
3, 73724, Note_off_c, 1, 41, 100
3, 73728, Control_c, 1, 64, 127
3, 73728, Note_on_c, 1, 46, 120
3, 73728, Note_on_c, 1, 34, 120
3, 74304, Note_on_c, 1, 58, 120
3, 74876, Note_off_c, 1, 46, 100
3, 74876, Note_off_c, 1, 34, 100
3, 74880, Note_on_c, 1, 61, 120
3, 75452, Note_off_c, 1, 58, 100
3, 75456, Note_on_c, 1, 66, 120
3, 76028, Note_off_c, 1, 61, 100
3, 76032, Note_on_c, 1, 61, 120
3, 76604, Note_off_c, 1, 66, 100
3, 76608, Note_on_c, 1, 58, 120
3, 77180, Note_off_c, 1, 61, 100
3, 77184, Note_on_c, 1, 54, 120
3, 77756, Note_off_c, 1, 58, 100
3, 77760, Note_on_c, 1, 49, 120
3, 78332, Note_off_c, 1, 54, 100
3, 78332, Note_off_c, 1, 49, 100
3, 78332, Control_c, 1, 64, 0
3, 78336, Control_c, 1, 64, 127
3, 78336, Note_on_c, 1, 45, 120
3, 78336, Note_on_c, 1, 33, 120
3, 78912, Note_on_c, 1, 57, 120
3, 79484, Note_off_c, 1, 45, 100
3, 79484, Note_off_c, 1, 33, 100
3, 79488, Note_on_c, 1, 60, 120
3, 80060, Note_off_c, 1, 57, 100
3, 80064, Note_on_c, 1, 65, 120
3, 80636, Note_off_c, 1, 60, 100
3, 80640, Note_on_c, 1, 60, 120
3, 81212, Note_off_c, 1, 65, 100
3, 81216, Note_on_c, 1, 57, 120
3, 81788, Note_off_c, 1, 60, 100
3, 81792, Note_on_c, 1, 53, 120
3, 82364, Note_off_c, 1, 57, 100
3, 82368, Note_on_c, 1, 48, 120
3, 82940, Note_off_c, 1, 53, 100
3, 82940, Note_off_c, 1, 48, 100
3, 82940, Control_c, 1, 64, 0
3, 82944, Note_on_c, 1, 66, 80
3, 82944, Note_on_c, 1, 61, 80
3, 82944, Note_on_c, 1, 58, 80
3, 83132, Note_off_c, 1, 66, 100
3, 83132, Note_off_c, 1, 61, 100
3, 83132, Note_off_c, 1, 58, 100
3, 83136, Note_on_c, 1, 66, 80
3, 83136, Note_on_c, 1, 61, 80
3, 83136, Note_on_c, 1, 58, 80
3, 83324, Note_off_c, 1, 66, 100
3, 83324, Note_off_c, 1, 61, 100
3, 83324, Note_off_c, 1, 58, 100
3, 83328, Note_on_c, 1, 66, 80
3, 83328, Note_on_c, 1, 61, 80
3, 83328, Note_on_c, 1, 58, 80
3, 83516, Note_off_c, 1, 66, 100
3, 83516, Note_off_c, 1, 61, 100
3, 83516, Note_off_c, 1, 58, 100
3, 83520, Note_on_c, 1, 66, 80
3, 83520, Note_on_c, 1, 61, 80
3, 83520, Note_on_c, 1, 58, 80
3, 83708, Note_off_c, 1, 66, 100
3, 83708, Note_off_c, 1, 61, 100
3, 83708, Note_off_c, 1, 58, 100
3, 83712, Note_on_c, 1, 66, 80
3, 83712, Note_on_c, 1, 61, 80
3, 83712, Note_on_c, 1, 58, 80
3, 83900, Note_off_c, 1, 66, 100
3, 83900, Note_off_c, 1, 61, 100
3, 83900, Note_off_c, 1, 58, 100
3, 83904, Note_on_c, 1, 66, 80
3, 83904, Note_on_c, 1, 61, 80
3, 83904, Note_on_c, 1, 58, 80
3, 84092, Note_off_c, 1, 66, 100
3, 84092, Note_off_c, 1, 61, 100
3, 84092, Note_off_c, 1, 58, 100
3, 84096, Note_on_c, 1, 66, 80
3, 84096, Note_on_c, 1, 61, 80
3, 84096, Note_on_c, 1, 58, 80
3, 84284, Note_off_c, 1, 66, 100
3, 84284, Note_off_c, 1, 61, 100
3, 84284, Note_off_c, 1, 58, 100
3, 84288, Note_on_c, 1, 66, 80
3, 84288, Note_on_c, 1, 61, 80
3, 84288, Note_on_c, 1, 58, 80
3, 84476, Note_off_c, 1, 66, 100
3, 84476, Note_off_c, 1, 61, 100
3, 84476, Note_off_c, 1, 58, 100
3, 84480, Note_on_c, 1, 66, 80
3, 84480, Note_on_c, 1, 61, 80
3, 84480, Note_on_c, 1, 58, 80
3, 84668, Note_off_c, 1, 66, 100
3, 84668, Note_off_c, 1, 61, 100
3, 84668, Note_off_c, 1, 58, 100
3, 84672, Note_on_c, 1, 66, 80
3, 84672, Note_on_c, 1, 61, 80
3, 84672, Note_on_c, 1, 58, 80
3, 84860, Note_off_c, 1, 66, 100
3, 84860, Note_off_c, 1, 61, 100
3, 84860, Note_off_c, 1, 58, 100
3, 84864, Note_on_c, 1, 66, 80
3, 84864, Note_on_c, 1, 61, 80
3, 84864, Note_on_c, 1, 58, 80
3, 85052, Note_off_c, 1, 66, 100
3, 85052, Note_off_c, 1, 61, 100
3, 85052, Note_off_c, 1, 58, 100
3, 85056, Note_on_c, 1, 66, 80
3, 85056, Note_on_c, 1, 61, 80
3, 85056, Note_on_c, 1, 58, 80
3, 85244, Note_off_c, 1, 66, 100
3, 85244, Note_off_c, 1, 61, 100
3, 85244, Note_off_c, 1, 58, 100
3, 85248, Note_on_c, 1, 66, 80
3, 85248, Note_on_c, 1, 61, 80
3, 85248, Note_on_c, 1, 58, 80
3, 85436, Note_off_c, 1, 66, 100
3, 85436, Note_off_c, 1, 61, 100
3, 85436, Note_off_c, 1, 58, 100
3, 85440, Note_on_c, 1, 66, 80
3, 85440, Note_on_c, 1, 61, 80
3, 85440, Note_on_c, 1, 58, 80
3, 85628, Note_off_c, 1, 66, 100
3, 85628, Note_off_c, 1, 61, 100
3, 85628, Note_off_c, 1, 58, 100
3, 85632, Note_on_c, 1, 66, 80
3, 85632, Note_on_c, 1, 61, 80
3, 85632, Note_on_c, 1, 58, 80
3, 85820, Note_off_c, 1, 66, 100
3, 85820, Note_off_c, 1, 61, 100
3, 85820, Note_off_c, 1, 58, 100
3, 85824, Note_on_c, 1, 66, 80
3, 85824, Note_on_c, 1, 61, 80
3, 85824, Note_on_c, 1, 58, 80
3, 86012, Note_off_c, 1, 66, 100
3, 86012, Note_off_c, 1, 61, 100
3, 86012, Note_off_c, 1, 58, 100
3, 86016, Note_on_c, 1, 66, 80
3, 86016, Note_on_c, 1, 61, 80
3, 86016, Note_on_c, 1, 58, 80
3, 86204, Note_off_c, 1, 66, 100
3, 86204, Note_off_c, 1, 61, 100
3, 86204, Note_off_c, 1, 58, 100
3, 86208, Note_on_c, 1, 66, 80
3, 86208, Note_on_c, 1, 61, 80
3, 86208, Note_on_c, 1, 58, 80
3, 86396, Note_off_c, 1, 66, 100
3, 86396, Note_off_c, 1, 61, 100
3, 86396, Note_off_c, 1, 58, 100
3, 86400, Note_on_c, 1, 66, 80
3, 86400, Note_on_c, 1, 61, 80
3, 86400, Note_on_c, 1, 58, 80
3, 86588, Note_off_c, 1, 66, 100
3, 86588, Note_off_c, 1, 61, 100
3, 86588, Note_off_c, 1, 58, 100
3, 86592, Note_on_c, 1, 66, 80
3, 86592, Note_on_c, 1, 61, 80
3, 86592, Note_on_c, 1, 58, 80
3, 86780, Note_off_c, 1, 66, 100
3, 86780, Note_off_c, 1, 61, 100
3, 86780, Note_off_c, 1, 58, 100
3, 86784, Note_on_c, 1, 66, 80
3, 86784, Note_on_c, 1, 61, 80
3, 86784, Note_on_c, 1, 58, 80
3, 86972, Note_off_c, 1, 66, 100
3, 86972, Note_off_c, 1, 61, 100
3, 86972, Note_off_c, 1, 58, 100
3, 86976, Note_on_c, 1, 66, 80
3, 86976, Note_on_c, 1, 61, 80
3, 86976, Note_on_c, 1, 58, 80
3, 87164, Note_off_c, 1, 66, 100
3, 87164, Note_off_c, 1, 61, 100
3, 87164, Note_off_c, 1, 58, 100
3, 87168, Note_on_c, 1, 66, 80
3, 87168, Note_on_c, 1, 61, 80
3, 87168, Note_on_c, 1, 58, 80
3, 87356, Note_off_c, 1, 66, 100
3, 87356, Note_off_c, 1, 61, 100
3, 87356, Note_off_c, 1, 58, 100
3, 87360, Note_on_c, 1, 61, 80
3, 87360, Note_on_c, 1, 58, 80
3, 87360, Note_on_c, 1, 64, 80
3, 87548, Note_off_c, 1, 61, 100
3, 87548, Note_off_c, 1, 58, 100
3, 87548, Note_off_c, 1, 64, 100
3, 87552, Note_on_c, 1, 65, 80
3, 87552, Note_on_c, 1, 60, 80
3, 87552, Note_on_c, 1, 57, 80
3, 87740, Note_off_c, 1, 65, 100
3, 87740, Note_off_c, 1, 60, 100
3, 87740, Note_off_c, 1, 57, 100
3, 87744, Note_on_c, 1, 65, 80
3, 87744, Note_on_c, 1, 60, 80
3, 87744, Note_on_c, 1, 57, 80
3, 87932, Note_off_c, 1, 65, 100
3, 87932, Note_off_c, 1, 60, 100
3, 87932, Note_off_c, 1, 57, 100
3, 87936, Note_on_c, 1, 65, 80
3, 87936, Note_on_c, 1, 60, 80
3, 87936, Note_on_c, 1, 57, 80
3, 88124, Note_off_c, 1, 65, 100
3, 88124, Note_off_c, 1, 60, 100
3, 88124, Note_off_c, 1, 57, 100
3, 88128, Note_on_c, 1, 65, 80
3, 88128, Note_on_c, 1, 60, 80
3, 88128, Note_on_c, 1, 57, 80
3, 88316, Note_off_c, 1, 65, 100
3, 88316, Note_off_c, 1, 60, 100
3, 88316, Note_off_c, 1, 57, 100
3, 88320, Note_on_c, 1, 65, 80
3, 88320, Note_on_c, 1, 60, 80
3, 88320, Note_on_c, 1, 57, 80
3, 88508, Note_off_c, 1, 65, 100
3, 88508, Note_off_c, 1, 60, 100
3, 88508, Note_off_c, 1, 57, 100
3, 88512, Note_on_c, 1, 65, 80
3, 88512, Note_on_c, 1, 60, 80
3, 88512, Note_on_c, 1, 57, 80
3, 88700, Note_off_c, 1, 65, 100
3, 88700, Note_off_c, 1, 60, 100
3, 88700, Note_off_c, 1, 57, 100
3, 88704, Note_on_c, 1, 65, 80
3, 88704, Note_on_c, 1, 60, 80
3, 88704, Note_on_c, 1, 57, 80
3, 88892, Note_off_c, 1, 65, 100
3, 88892, Note_off_c, 1, 60, 100
3, 88892, Note_off_c, 1, 57, 100
3, 88896, Note_on_c, 1, 65, 80
3, 88896, Note_on_c, 1, 60, 80
3, 88896, Note_on_c, 1, 57, 80
3, 89084, Note_off_c, 1, 65, 100
3, 89084, Note_off_c, 1, 60, 100
3, 89084, Note_off_c, 1, 57, 100
3, 89088, Note_on_c, 1, 65, 80
3, 89088, Note_on_c, 1, 60, 80
3, 89088, Note_on_c, 1, 57, 80
3, 89276, Note_off_c, 1, 65, 100
3, 89276, Note_off_c, 1, 60, 100
3, 89276, Note_off_c, 1, 57, 100
3, 89280, Note_on_c, 1, 65, 80
3, 89280, Note_on_c, 1, 60, 80
3, 89280, Note_on_c, 1, 57, 80
3, 89468, Note_off_c, 1, 65, 100
3, 89468, Note_off_c, 1, 60, 100
3, 89468, Note_off_c, 1, 57, 100
3, 89472, Note_on_c, 1, 65, 80
3, 89472, Note_on_c, 1, 60, 80
3, 89472, Note_on_c, 1, 57, 80
3, 89660, Note_off_c, 1, 65, 100
3, 89660, Note_off_c, 1, 60, 100
3, 89660, Note_off_c, 1, 57, 100
3, 89664, Note_on_c, 1, 65, 80
3, 89664, Note_on_c, 1, 60, 80
3, 89664, Note_on_c, 1, 57, 80
3, 89852, Note_off_c, 1, 65, 100
3, 89852, Note_off_c, 1, 60, 100
3, 89852, Note_off_c, 1, 57, 100
3, 89856, Note_on_c, 1, 65, 80
3, 89856, Note_on_c, 1, 60, 80
3, 89856, Note_on_c, 1, 57, 80
3, 90044, Note_off_c, 1, 65, 100
3, 90044, Note_off_c, 1, 60, 100
3, 90044, Note_off_c, 1, 57, 100
3, 90048, Note_on_c, 1, 65, 80
3, 90048, Note_on_c, 1, 60, 80
3, 90048, Note_on_c, 1, 57, 80
3, 90236, Note_off_c, 1, 65, 100
3, 90236, Note_off_c, 1, 60, 100
3, 90236, Note_off_c, 1, 57, 100
3, 90240, Note_on_c, 1, 65, 80
3, 90240, Note_on_c, 1, 60, 80
3, 90240, Note_on_c, 1, 57, 80
3, 90428, Note_off_c, 1, 65, 100
3, 90428, Note_off_c, 1, 60, 100
3, 90428, Note_off_c, 1, 57, 100
3, 90432, Note_on_c, 1, 65, 80
3, 90432, Note_on_c, 1, 60, 80
3, 90432, Note_on_c, 1, 57, 80
3, 90620, Note_off_c, 1, 65, 100
3, 90620, Note_off_c, 1, 60, 100
3, 90620, Note_off_c, 1, 57, 100
3, 90624, Note_on_c, 1, 65, 80
3, 90624, Note_on_c, 1, 60, 80
3, 90624, Note_on_c, 1, 57, 80
3, 90812, Note_off_c, 1, 65, 100
3, 90812, Note_off_c, 1, 60, 100
3, 90812, Note_off_c, 1, 57, 100
3, 90816, Note_on_c, 1, 65, 80
3, 90816, Note_on_c, 1, 60, 80
3, 90816, Note_on_c, 1, 57, 80
3, 91004, Note_off_c, 1, 65, 100
3, 91004, Note_off_c, 1, 60, 100
3, 91004, Note_off_c, 1, 57, 100
3, 91008, Note_on_c, 1, 65, 80
3, 91008, Note_on_c, 1, 60, 80
3, 91008, Note_on_c, 1, 57, 80
3, 91196, Note_off_c, 1, 65, 100
3, 91196, Note_off_c, 1, 60, 100
3, 91196, Note_off_c, 1, 57, 100
3, 91200, Note_on_c, 1, 65, 80
3, 91200, Note_on_c, 1, 60, 80
3, 91200, Note_on_c, 1, 57, 80
3, 91388, Note_off_c, 1, 65, 100
3, 91388, Note_off_c, 1, 60, 100
3, 91388, Note_off_c, 1, 57, 100
3, 91392, Note_on_c, 1, 65, 80
3, 91392, Note_on_c, 1, 60, 80
3, 91392, Note_on_c, 1, 57, 80
3, 91580, Note_off_c, 1, 65, 100
3, 91580, Note_off_c, 1, 60, 100
3, 91580, Note_off_c, 1, 57, 100
3, 91584, Note_on_c, 1, 65, 80
3, 91584, Note_on_c, 1, 60, 80
3, 91584, Note_on_c, 1, 57, 80
3, 91772, Note_off_c, 1, 65, 100
3, 91772, Note_off_c, 1, 60, 100
3, 91772, Note_off_c, 1, 57, 100
3, 91776, Note_on_c, 1, 53, 80
3, 91964, Note_off_c, 1, 53, 100
3, 91968, Note_on_c, 1, 51, 80
3, 92156, Note_off_c, 1, 51, 100
3, 92160, Note_on_c, 1, 46, 80
3, 92160, Note_on_c, 1, 50, 80
3, 92540, Note_off_c, 1, 50, 100
3, 92544, Note_on_c, 1, 55, 80
3, 92732, Note_off_c, 1, 55, 100
3, 92736, Note_on_c, 1, 53, 80
3, 93116, Note_off_c, 1, 53, 100
3, 93120, Note_on_c, 1, 50, 80
3, 93308, Note_off_c, 1, 46, 100
3, 93308, Note_off_c, 1, 50, 100
3, 93312, Note_on_c, 1, 41, 80
3, 93312, Note_on_c, 1, 48, 80
3, 93692, Note_off_c, 1, 48, 100
3, 93696, Note_on_c, 1, 55, 80
3, 93884, Note_off_c, 1, 55, 100
3, 93888, Note_on_c, 1, 53, 80
3, 94268, Note_off_c, 1, 53, 100
3, 94272, Note_on_c, 1, 48, 80
3, 94460, Note_off_c, 1, 41, 100
3, 94460, Note_off_c, 1, 48, 100
3, 94464, Note_on_c, 1, 46, 80
3, 94464, Note_on_c, 1, 50, 80
3, 94844, Note_off_c, 1, 50, 100
3, 94848, Note_on_c, 1, 55, 80
3, 95036, Note_off_c, 1, 55, 100
3, 95040, Note_on_c, 1, 53, 80
3, 95420, Note_off_c, 1, 53, 100
3, 95424, Note_on_c, 1, 50, 80
3, 95612, Note_off_c, 1, 46, 100
3, 95612, Note_off_c, 1, 50, 100
3, 95616, Note_on_c, 1, 41, 80
3, 95616, Note_on_c, 1, 48, 80
3, 95996, Note_off_c, 1, 48, 100
3, 96000, Note_on_c, 1, 55, 80
3, 96188, Note_off_c, 1, 55, 100
3, 96192, Note_on_c, 1, 53, 80
3, 96572, Note_off_c, 1, 53, 100
3, 96576, Note_on_c, 1, 48, 80
3, 96764, Note_off_c, 1, 41, 100
3, 96764, Note_off_c, 1, 48, 100
3, 96768, Note_on_c, 1, 50, 80
3, 96768, Note_on_c, 1, 46, 80
3, 96956, Note_off_c, 1, 50, 100
3, 96956, Note_off_c, 1, 46, 100
3, 96960, Note_on_c, 1, 58, 80
3, 96960, Note_on_c, 1, 53, 80
3, 96960, Note_on_c, 1, 50, 80
3, 97148, Note_off_c, 1, 58, 100
3, 97148, Note_off_c, 1, 53, 100
3, 97148, Note_off_c, 1, 50, 100
3, 97152, Note_on_c, 1, 58, 80
3, 97152, Note_on_c, 1, 53, 80
3, 97152, Note_on_c, 1, 50, 80
3, 97340, Note_off_c, 1, 58, 100
3, 97340, Note_off_c, 1, 53, 100
3, 97340, Note_off_c, 1, 50, 100
3, 97344, Note_on_c, 1, 58, 80
3, 97344, Note_on_c, 1, 53, 80
3, 97344, Note_on_c, 1, 50, 80
3, 97532, Note_off_c, 1, 58, 100
3, 97532, Note_off_c, 1, 53, 100
3, 97532, Note_off_c, 1, 50, 100
3, 97536, Note_on_c, 1, 58, 80
3, 97536, Note_on_c, 1, 53, 80
3, 97536, Note_on_c, 1, 50, 80
3, 97724, Note_off_c, 1, 58, 100
3, 97724, Note_off_c, 1, 53, 100
3, 97724, Note_off_c, 1, 50, 100
3, 97728, Note_on_c, 1, 58, 80
3, 97728, Note_on_c, 1, 53, 80
3, 97728, Note_on_c, 1, 50, 80
3, 97916, Note_off_c, 1, 58, 100
3, 97916, Note_off_c, 1, 53, 100
3, 97916, Note_off_c, 1, 50, 100
3, 98112, Note_on_c, 1, 58, 80
3, 98112, Note_on_c, 1, 55, 80
3, 98112, Note_on_c, 1, 51, 80
3, 98300, Note_off_c, 1, 58, 100
3, 98300, Note_off_c, 1, 55, 100
3, 98300, Note_off_c, 1, 51, 100
3, 98304, Note_on_c, 1, 58, 80
3, 98304, Note_on_c, 1, 55, 80
3, 98304, Note_on_c, 1, 51, 80
3, 98492, Note_off_c, 1, 58, 100
3, 98492, Note_off_c, 1, 55, 100
3, 98492, Note_off_c, 1, 51, 100
3, 98496, Note_on_c, 1, 58, 80
3, 98496, Note_on_c, 1, 55, 80
3, 98496, Note_on_c, 1, 51, 80
3, 98684, Note_off_c, 1, 58, 100
3, 98684, Note_off_c, 1, 55, 100
3, 98684, Note_off_c, 1, 51, 100
3, 98688, Note_on_c, 1, 58, 80
3, 98688, Note_on_c, 1, 55, 80
3, 98688, Note_on_c, 1, 51, 80
3, 98876, Note_off_c, 1, 58, 100
3, 98876, Note_off_c, 1, 55, 100
3, 98876, Note_off_c, 1, 51, 100
3, 98880, Note_on_c, 1, 60, 80
3, 98880, Note_on_c, 1, 55, 80
3, 98880, Note_on_c, 1, 51, 80
3, 99068, Note_off_c, 1, 60, 100
3, 99068, Note_off_c, 1, 55, 100
3, 99068, Note_off_c, 1, 51, 100
3, 99264, Note_on_c, 1, 62, 80
3, 99264, Note_on_c, 1, 58, 80
3, 99264, Note_on_c, 1, 53, 80
3, 99452, Note_off_c, 1, 62, 100
3, 99452, Note_off_c, 1, 58, 100
3, 99452, Note_off_c, 1, 53, 100
3, 99456, Note_on_c, 1, 62, 80
3, 99456, Note_on_c, 1, 58, 80
3, 99456, Note_on_c, 1, 53, 80
3, 99644, Note_off_c, 1, 62, 100
3, 99644, Note_off_c, 1, 58, 100
3, 99644, Note_off_c, 1, 53, 100
3, 99648, Note_on_c, 1, 62, 80
3, 99648, Note_on_c, 1, 58, 80
3, 99648, Note_on_c, 1, 53, 80
3, 99836, Note_off_c, 1, 62, 100
3, 99836, Note_off_c, 1, 58, 100
3, 99836, Note_off_c, 1, 53, 100
3, 99840, Note_on_c, 1, 62, 80
3, 99840, Note_on_c, 1, 58, 80
3, 99840, Note_on_c, 1, 53, 80
3, 100028, Note_off_c, 1, 62, 100
3, 100028, Note_off_c, 1, 58, 100
3, 100028, Note_off_c, 1, 53, 100
3, 100032, Note_on_c, 1, 62, 80
3, 100032, Note_on_c, 1, 58, 80
3, 100032, Note_on_c, 1, 53, 80
3, 100220, Note_off_c, 1, 62, 100
3, 100220, Note_off_c, 1, 58, 100
3, 100220, Note_off_c, 1, 53, 100
3, 100224, Note_on_c, 1, 62, 80
3, 100224, Note_on_c, 1, 58, 80
3, 100224, Note_on_c, 1, 53, 80
3, 100412, Note_off_c, 1, 62, 100
3, 100412, Note_off_c, 1, 58, 100
3, 100412, Note_off_c, 1, 53, 100
3, 100416, Note_on_c, 1, 62, 80
3, 100416, Note_on_c, 1, 58, 80
3, 100416, Note_on_c, 1, 53, 80
3, 100604, Note_off_c, 1, 62, 100
3, 100604, Note_off_c, 1, 58, 100
3, 100604, Note_off_c, 1, 53, 100
3, 100608, Note_on_c, 1, 62, 80
3, 100608, Note_on_c, 1, 58, 80
3, 100608, Note_on_c, 1, 53, 80
3, 100796, Note_off_c, 1, 62, 100
3, 100796, Note_off_c, 1, 58, 100
3, 100796, Note_off_c, 1, 53, 100
3, 100800, Note_on_c, 1, 63, 80
3, 100800, Note_on_c, 1, 57, 80
3, 100800, Note_on_c, 1, 53, 80
3, 100988, Note_off_c, 1, 63, 100
3, 100988, Note_off_c, 1, 57, 100
3, 100988, Note_off_c, 1, 53, 100
3, 100992, Note_on_c, 1, 63, 80
3, 100992, Note_on_c, 1, 57, 80
3, 100992, Note_on_c, 1, 53, 80
3, 101180, Note_off_c, 1, 63, 100
3, 101180, Note_off_c, 1, 57, 100
3, 101180, Note_off_c, 1, 53, 100
3, 101184, Note_on_c, 1, 63, 80
3, 101184, Note_on_c, 1, 57, 80
3, 101184, Note_on_c, 1, 53, 80
3, 101372, Note_off_c, 1, 63, 100
3, 101372, Note_off_c, 1, 57, 100
3, 101372, Note_off_c, 1, 53, 100
3, 101376, Note_on_c, 1, 58, 80
3, 101376, Note_on_c, 1, 62, 80
3, 101756, Note_off_c, 1, 62, 100
3, 101760, Note_on_c, 1, 67, 80
3, 101948, Note_off_c, 1, 67, 100
3, 101952, Note_on_c, 1, 65, 80
3, 102332, Note_off_c, 1, 65, 100
3, 102336, Note_on_c, 1, 62, 80
3, 102524, Note_off_c, 1, 58, 100
3, 102524, Note_off_c, 1, 62, 100
3, 102528, Note_on_c, 1, 53, 80
3, 102528, Note_on_c, 1, 60, 80
3, 102908, Note_off_c, 1, 60, 100
3, 102912, Note_on_c, 1, 67, 80
3, 103100, Note_off_c, 1, 67, 100
3, 103104, Note_on_c, 1, 65, 80
3, 103484, Note_off_c, 1, 65, 100
3, 103488, Note_on_c, 1, 60, 80
3, 103676, Note_off_c, 1, 53, 100
3, 103676, Note_off_c, 1, 60, 100
3, 103680, Note_on_c, 1, 58, 80
3, 103680, Note_on_c, 1, 62, 80
3, 104060, Note_off_c, 1, 62, 100
3, 104064, Note_on_c, 1, 67, 80
3, 104252, Note_off_c, 1, 67, 100
3, 104256, Note_on_c, 1, 65, 80
3, 104636, Note_off_c, 1, 65, 100
3, 104640, Note_on_c, 1, 62, 80
3, 104828, Note_off_c, 1, 58, 100
3, 104828, Note_off_c, 1, 62, 100
3, 104832, Note_on_c, 1, 53, 80
3, 104832, Note_on_c, 1, 60, 80
3, 105212, Note_off_c, 1, 60, 100
3, 105216, Note_on_c, 1, 67, 80
3, 105404, Note_off_c, 1, 67, 100
3, 105408, Note_on_c, 1, 65, 80
3, 105788, Note_off_c, 1, 65, 100
3, 105792, Note_on_c, 1, 60, 80
3, 105980, Note_off_c, 1, 53, 100
3, 105980, Note_off_c, 1, 60, 100
3, 105984, Note_on_c, 1, 65, 80
3, 105984, Note_on_c, 1, 62, 80
3, 106080, Note_on_c, 1, 67, 80
3, 106172, Note_off_c, 1, 62, 100
3, 106174, Note_off_c, 1, 65, 100
3, 106176, Note_on_c, 1, 69, 80
3, 106270, Note_off_c, 1, 67, 100
3, 106272, Note_on_c, 1, 70, 80
3, 106362, Note_off_c, 1, 69, 100
3, 106368, Note_on_c, 1, 72, 80
3, 106432, Note_on_c, 1, 74, 80
3, 106456, Note_off_c, 1, 70, 100
3, 106490, Note_off_c, 1, 72, 100
3, 106496, Note_on_c, 1, 75, 80
3, 106554, Note_off_c, 1, 74, 100
3, 106560, Note_on_c, 1, 77, 80
3, 106618, Note_off_c, 1, 75, 100
3, 106656, Note_on_c, 1, 75, 80
3, 106740, Note_off_c, 1, 77, 100
3, 106752, Note_on_c, 1, 74, 80
3, 106844, Note_off_c, 1, 75, 100
3, 106848, Note_on_c, 1, 72, 80
3, 106938, Note_off_c, 1, 74, 100
3, 106944, Note_on_c, 1, 70, 80
3, 107032, Note_off_c, 1, 72, 100
3, 107040, Note_on_c, 1, 69, 80
3, 107132, Note_off_c, 1, 69, 100
3, 107134, Note_off_c, 1, 70, 100
3, 107136, Note_on_c, 1, 67, 80
3, 107136, Note_on_c, 1, 63, 80
3, 107232, Note_on_c, 1, 69, 80
3, 107322, Note_off_c, 1, 63, 100
3, 107326, Note_off_c, 1, 67, 100
3, 107328, Note_on_c, 1, 70, 80
3, 107416, Note_off_c, 1, 69, 100
3, 107424, Note_on_c, 1, 72, 80
3, 107512, Note_off_c, 1, 70, 100
3, 107520, Note_on_c, 1, 74, 80
3, 107584, Note_on_c, 1, 75, 80
3, 107610, Note_off_c, 1, 72, 100
3, 107642, Note_off_c, 1, 74, 100
3, 107648, Note_on_c, 1, 77, 80
3, 107706, Note_off_c, 1, 75, 100
3, 107712, Note_on_c, 1, 79, 80
3, 107770, Note_off_c, 1, 77, 100
3, 107808, Note_on_c, 1, 77, 80
3, 107902, Note_off_c, 1, 79, 100
3, 107904, Note_on_c, 1, 75, 80
3, 107968, Note_on_c, 1, 74, 80
3, 107994, Note_off_c, 1, 77, 100
3, 108024, Note_off_c, 1, 75, 100
3, 108032, Note_on_c, 1, 72, 80
3, 108090, Note_off_c, 1, 74, 100
3, 108096, Note_on_c, 1, 70, 80
3, 108154, Note_off_c, 1, 72, 100
3, 108160, Note_on_c, 1, 69, 80
3, 108216, Note_off_c, 1, 70, 100
3, 108224, Note_on_c, 1, 67, 80
3, 108282, Note_off_c, 1, 69, 100
3, 108284, Note_off_c, 1, 67, 100
3, 108288, Note_on_c, 1, 65, 80
3, 108384, Note_on_c, 1, 53, 80
3, 108478, Note_off_c, 1, 65, 100
3, 108480, Note_on_c, 1, 58, 80
3, 108570, Note_off_c, 1, 53, 100
3, 108576, Note_on_c, 1, 62, 80
3, 108668, Note_off_c, 1, 58, 100
3, 108672, Note_on_c, 1, 65, 80
3, 108762, Note_off_c, 1, 62, 100
3, 108768, Note_on_c, 1, 70, 80
3, 108860, Note_off_c, 1, 65, 100
3, 108864, Note_on_c, 1, 74, 80
3, 108952, Note_off_c, 1, 70, 100
3, 108960, Note_on_c, 1, 70, 80
3, 109044, Note_off_c, 1, 74, 100
3, 109056, Note_on_c, 1, 77, 80
3, 109148, Note_off_c, 1, 70, 100
3, 109152, Note_on_c, 1, 74, 80
3, 109240, Note_off_c, 1, 77, 100
3, 109248, Note_on_c, 1, 70, 80
3, 109340, Note_off_c, 1, 74, 100
3, 109344, Note_on_c, 1, 74, 80
3, 109432, Note_off_c, 1, 70, 100
3, 109436, Note_off_c, 1, 74, 100
3, 109440, Note_on_c, 1, 65, 80
3, 109440, Note_on_c, 1, 72, 80
3, 109488, Note_on_c, 1, 74, 80
3, 109534, Note_off_c, 1, 72, 100
3, 109536, Note_on_c, 1, 72, 80
3, 109576, Note_off_c, 1, 74, 100
3, 109584, Note_on_c, 1, 74, 80
3, 109626, Note_off_c, 1, 72, 100
3, 109628, Note_off_c, 1, 65, 100
3, 109632, Note_on_c, 1, 72, 80
3, 109670, Note_off_c, 1, 74, 100
3, 109680, Note_on_c, 1, 74, 80
3, 109726, Note_off_c, 1, 72, 100
3, 109728, Note_on_c, 1, 72, 80
3, 109768, Note_off_c, 1, 74, 100
3, 109776, Note_on_c, 1, 74, 80
3, 109818, Note_off_c, 1, 72, 100
3, 109824, Note_on_c, 1, 72, 80
3, 109862, Note_off_c, 1, 74, 100
3, 109872, Note_on_c, 1, 74, 80
3, 109918, Note_off_c, 1, 72, 100
3, 109920, Note_on_c, 1, 72, 80
3, 109960, Note_off_c, 1, 74, 100
3, 109968, Note_on_c, 1, 74, 80
3, 110010, Note_off_c, 1, 72, 100
3, 110016, Note_on_c, 1, 72, 80
3, 110054, Note_off_c, 1, 74, 100
3, 110064, Note_on_c, 1, 74, 80
3, 110110, Note_off_c, 1, 72, 100
3, 110112, Note_on_c, 1, 72, 80
3, 110152, Note_off_c, 1, 74, 100
3, 110160, Note_on_c, 1, 74, 80
3, 110202, Note_off_c, 1, 72, 100
3, 110208, Note_on_c, 1, 72, 80
3, 110246, Note_off_c, 1, 74, 100
3, 110256, Note_on_c, 1, 74, 80
3, 110302, Note_off_c, 1, 72, 100
3, 110304, Note_on_c, 1, 72, 80
3, 110344, Note_off_c, 1, 74, 100
3, 110352, Note_on_c, 1, 74, 80
3, 110394, Note_off_c, 1, 72, 100
3, 110400, Note_on_c, 1, 72, 80
3, 110438, Note_off_c, 1, 74, 100
3, 110448, Note_on_c, 1, 74, 80
3, 110494, Note_off_c, 1, 72, 100
3, 110496, Note_on_c, 1, 70, 80
3, 110536, Note_off_c, 1, 74, 100
3, 110544, Note_on_c, 1, 72, 80
3, 110586, Note_off_c, 1, 70, 100
3, 110590, Note_off_c, 1, 72, 100
3, 110592, Note_on_c, 1, 65, 90
3, 110688, Note_on_c, 1, 71, 90
3, 110780, Note_off_c, 1, 65, 100
3, 110784, Note_on_c, 1, 72, 90
3, 110874, Note_off_c, 1, 71, 100
3, 110880, Note_on_c, 1, 74, 90
3, 110972, Note_off_c, 1, 72, 100
3, 110976, Note_on_c, 1, 72, 91
3, 111070, Note_off_c, 1, 74, 100
3, 111072, Note_on_c, 1, 71, 91
3, 111156, Note_off_c, 1, 72, 100
3, 111168, Note_on_c, 1, 63, 91
3, 111256, Note_off_c, 1, 71, 100
3, 111264, Note_on_c, 1, 72, 92
3, 111358, Note_off_c, 1, 63, 100
3, 111360, Note_on_c, 1, 74, 92
3, 111454, Note_off_c, 1, 72, 100
3, 111456, Note_on_c, 1, 75, 92
3, 111550, Note_off_c, 1, 74, 100
3, 111552, Note_on_c, 1, 74, 93
3, 111642, Note_off_c, 1, 75, 100
3, 111648, Note_on_c, 1, 72, 93
3, 111740, Note_off_c, 1, 74, 100
3, 111744, Note_on_c, 1, 63, 93
3, 111832, Note_off_c, 1, 72, 100
3, 111840, Note_on_c, 1, 69, 94
3, 111934, Note_off_c, 1, 63, 100
3, 111936, Note_on_c, 1, 70, 94
3, 112026, Note_off_c, 1, 69, 100
3, 112032, Note_on_c, 1, 72, 94
3, 112120, Note_off_c, 1, 70, 100
3, 112128, Note_on_c, 1, 70, 95
3, 112222, Note_off_c, 1, 72, 100
3, 112224, Note_on_c, 1, 69, 95
3, 112314, Note_off_c, 1, 70, 100
3, 112320, Note_on_c, 1, 62, 95
3, 112412, Note_off_c, 1, 69, 100
3, 112416, Note_on_c, 1, 70, 95
3, 112508, Note_off_c, 1, 62, 100
3, 112512, Note_on_c, 1, 72, 96
3, 112606, Note_off_c, 1, 70, 100
3, 112608, Note_on_c, 1, 74, 96
3, 112700, Note_off_c, 1, 72, 100
3, 112704, Note_on_c, 1, 72, 96
3, 112794, Note_off_c, 1, 74, 100
3, 112800, Note_on_c, 1, 70, 97
3, 112888, Note_off_c, 1, 72, 100
3, 112892, Note_off_c, 1, 70, 100
3, 112896, Note_on_c, 1, 53, 97
3, 112992, Note_on_c, 1, 59, 97
3, 113080, Note_off_c, 1, 53, 100
3, 113088, Note_on_c, 1, 60, 98
3, 113182, Note_off_c, 1, 59, 100
3, 113184, Note_on_c, 1, 62, 98
3, 113272, Note_off_c, 1, 60, 100
3, 113280, Note_on_c, 1, 60, 98
3, 113366, Note_off_c, 1, 62, 100
3, 113376, Note_on_c, 1, 59, 99
3, 113470, Note_off_c, 1, 60, 100
3, 113472, Note_on_c, 1, 51, 99
3, 113560, Note_off_c, 1, 59, 100
3, 113568, Note_on_c, 1, 60, 99
3, 113656, Note_off_c, 1, 51, 100
3, 113664, Note_on_c, 1, 62, 100
3, 113754, Note_off_c, 1, 60, 100
3, 113760, Note_on_c, 1, 63, 100
3, 113850, Note_off_c, 1, 62, 100
3, 113856, Note_on_c, 1, 62, 100
3, 113944, Note_off_c, 1, 63, 100
3, 113952, Note_on_c, 1, 60, 101
3, 114040, Note_off_c, 1, 62, 100
3, 114044, Note_off_c, 1, 60, 100
3, 114048, Note_on_c, 1, 51, 101
3, 114144, Note_on_c, 1, 57, 101
3, 114236, Note_off_c, 1, 51, 100
3, 114240, Note_on_c, 1, 58, 101
3, 114328, Note_off_c, 1, 57, 100
3, 114336, Note_on_c, 1, 60, 102
3, 114426, Note_off_c, 1, 58, 100
3, 114432, Note_on_c, 1, 58, 102
3, 114520, Note_off_c, 1, 60, 100
3, 114528, Note_on_c, 1, 57, 102
3, 114622, Note_off_c, 1, 58, 100
3, 114624, Note_on_c, 1, 50, 103
3, 114718, Note_off_c, 1, 57, 100
3, 114720, Note_on_c, 1, 58, 103
3, 114814, Note_off_c, 1, 50, 100
3, 114816, Note_on_c, 1, 60, 103
3, 114908, Note_off_c, 1, 58, 100
3, 114912, Note_on_c, 1, 62, 104
3, 115000, Note_off_c, 1, 60, 100
3, 115008, Note_on_c, 1, 60, 104
3, 115098, Note_off_c, 1, 62, 100
3, 115104, Note_on_c, 1, 58, 104
3, 115196, Note_off_c, 1, 58, 100
3, 115198, Note_off_c, 1, 60, 100
3, 115200, Note_on_c, 1, 50, 105
3, 115296, Note_on_c, 1, 53, 105
3, 115386, Note_off_c, 1, 50, 100
3, 115392, Note_on_c, 1, 58, 105
3, 115486, Note_off_c, 1, 53, 100
3, 115488, Note_on_c, 1, 62, 106
3, 115576, Note_off_c, 1, 58, 100
3, 115584, Note_on_c, 1, 58, 106
3, 115672, Note_off_c, 1, 62, 100
3, 115680, Note_on_c, 1, 53, 106
3, 115774, Note_off_c, 1, 58, 100
3, 115776, Note_on_c, 1, 43, 107
3, 115866, Note_off_c, 1, 53, 100
3, 115872, Note_on_c, 1, 46, 107
3, 115966, Note_off_c, 1, 43, 100
3, 115968, Note_on_c, 1, 50, 107
3, 116060, Note_off_c, 1, 46, 100
3, 116064, Note_on_c, 1, 55, 107
3, 116158, Note_off_c, 1, 50, 100
3, 116160, Note_on_c, 1, 50, 108
3, 116254, Note_off_c, 1, 55, 100
3, 116256, Note_on_c, 1, 46, 108
3, 116346, Note_off_c, 1, 50, 100
3, 116348, Note_off_c, 1, 46, 100
3, 116352, Note_on_c, 1, 39, 108
3, 116448, Note_on_c, 1, 43, 109
3, 116540, Note_off_c, 1, 39, 100
3, 116544, Note_on_c, 1, 48, 109
3, 116638, Note_off_c, 1, 43, 100
3, 116640, Note_on_c, 1, 51, 109
3, 116730, Note_off_c, 1, 48, 100
3, 116736, Note_on_c, 1, 48, 110
3, 116826, Note_off_c, 1, 51, 100
3, 116832, Note_on_c, 1, 43, 110
3, 116922, Note_off_c, 1, 48, 100
3, 116928, Note_on_c, 1, 41, 110
3, 117014, Note_off_c, 1, 43, 100
3, 117024, Note_on_c, 1, 48, 111
3, 117114, Note_off_c, 1, 41, 100
3, 117120, Note_on_c, 1, 51, 111
3, 117214, Note_off_c, 1, 48, 100
3, 117216, Note_on_c, 1, 53, 111
3, 117308, Note_off_c, 1, 51, 100
3, 117312, Note_on_c, 1, 51, 112
3, 117406, Note_off_c, 1, 53, 100
3, 117408, Note_on_c, 1, 48, 112
3, 117500, Note_off_c, 1, 48, 100
3, 117502, Note_off_c, 1, 51, 100
3, 117504, Note_on_c, 1, 38, 112
3, 117600, Note_on_c, 1, 41, 113
3, 117690, Note_off_c, 1, 38, 100
3, 117696, Note_on_c, 1, 46, 113
3, 117784, Note_off_c, 1, 41, 100
3, 117792, Note_on_c, 1, 50, 113
3, 117880, Note_off_c, 1, 46, 100
3, 117888, Note_on_c, 1, 46, 113
3, 117982, Note_off_c, 1, 50, 100
3, 117984, Note_on_c, 1, 41, 114
3, 118072, Note_off_c, 1, 46, 100
3, 118080, Note_on_c, 1, 31, 114
3, 118174, Note_off_c, 1, 41, 100
3, 118176, Note_on_c, 1, 34, 114
3, 118266, Note_off_c, 1, 31, 100
3, 118272, Note_on_c, 1, 38, 115
3, 118366, Note_off_c, 1, 34, 100
3, 118368, Note_on_c, 1, 43, 115
3, 118462, Note_off_c, 1, 38, 100
3, 118464, Note_on_c, 1, 38, 115
3, 118558, Note_off_c, 1, 43, 100
3, 118560, Note_on_c, 1, 34, 116
3, 118652, Note_off_c, 1, 38, 100
3, 118652, Note_off_c, 1, 34, 100
3, 118656, Note_on_c, 1, 27, 116
3, 118752, Note_on_c, 1, 31, 116
3, 118836, Note_off_c, 1, 27, 100
3, 118848, Note_on_c, 1, 36, 117
3, 118936, Note_off_c, 1, 31, 100
3, 118944, Note_on_c, 1, 39, 117
3, 119038, Note_off_c, 1, 36, 100
3, 119040, Note_on_c, 1, 36, 117
3, 119132, Note_off_c, 1, 39, 100
3, 119136, Note_on_c, 1, 31, 118
3, 119230, Note_off_c, 1, 36, 100
3, 119232, Note_on_c, 1, 29, 118
3, 119322, Note_off_c, 1, 31, 100
3, 119328, Note_on_c, 1, 36, 118
3, 119420, Note_off_c, 1, 29, 100
3, 119424, Note_on_c, 1, 39, 119
3, 119518, Note_off_c, 1, 36, 100
3, 119520, Note_on_c, 1, 41, 119
3, 119606, Note_off_c, 1, 39, 100
3, 119616, Note_on_c, 1, 29, 119
3, 119706, Note_off_c, 1, 41, 100
3, 119712, Note_on_c, 1, 41, 119
3, 119800, Note_off_c, 1, 29, 100
3, 119804, Note_off_c, 1, 41, 100
3, 119808, Note_on_c, 1, 34, 120
3, 119996, Note_off_c, 1, 34, 100
3, 120000, Note_on_c, 1, 46, 120
3, 120188, Note_off_c, 1, 46, 100
3, 120192, Note_on_c, 1, 46, 120
3, 120192, Note_on_c, 1, 50, 120
3, 120380, Note_off_c, 1, 46, 100
3, 120380, Note_off_c, 1, 50, 100
3, 120384, Note_on_c, 1, 53, 120
3, 120384, Note_on_c, 1, 50, 120
3, 120384, Note_on_c, 1, 46, 120
3, 120764, Note_off_c, 1, 53, 100
3, 120764, Note_off_c, 1, 50, 100
3, 120764, Note_off_c, 1, 46, 100
3, 120768, Note_on_c, 1, 53, 120
3, 120768, Note_on_c, 1, 48, 120
3, 120768, Note_on_c, 1, 41, 120
3, 120956, Note_off_c, 1, 53, 100
3, 120956, Note_off_c, 1, 48, 100
3, 120956, Note_off_c, 1, 41, 100
3, 120960, Note_on_c, 1, 53, 120
3, 120960, Note_on_c, 1, 50, 120
3, 120960, Note_on_c, 1, 46, 120
3, 121148, Note_off_c, 1, 53, 100
3, 121148, Note_off_c, 1, 50, 100
3, 121148, Note_off_c, 1, 46, 100
3, 121152, Note_on_c, 1, 53, 120
3, 121152, Note_on_c, 1, 50, 120
3, 121152, Note_on_c, 1, 46, 120
3, 121340, Note_off_c, 1, 53, 100
3, 121340, Note_off_c, 1, 50, 100
3, 121340, Note_off_c, 1, 46, 100
3, 121344, Note_on_c, 1, 53, 120
3, 121344, Note_on_c, 1, 50, 120
3, 121344, Note_on_c, 1, 46, 120
3, 121532, Note_off_c, 1, 53, 100
3, 121532, Note_off_c, 1, 50, 100
3, 121532, Note_off_c, 1, 46, 100
3, 121536, Note_on_c, 1, 53, 120
3, 121536, Note_on_c, 1, 50, 120
3, 121536, Note_on_c, 1, 46, 120
3, 121916, Note_off_c, 1, 53, 100
3, 121916, Note_off_c, 1, 50, 100
3, 121916, Note_off_c, 1, 46, 100
3, 121920, Note_on_c, 1, 53, 120
3, 121920, Note_on_c, 1, 48, 120
3, 121920, Note_on_c, 1, 41, 120
3, 122108, Note_off_c, 1, 53, 100
3, 122108, Note_off_c, 1, 48, 100
3, 122108, Note_off_c, 1, 41, 100
3, 122112, Note_on_c, 1, 53, 120
3, 122112, Note_on_c, 1, 50, 120
3, 122112, Note_on_c, 1, 46, 120
3, 122300, Note_off_c, 1, 53, 100
3, 122300, Note_off_c, 1, 50, 100
3, 122300, Note_off_c, 1, 46, 100
3, 122304, Note_on_c, 1, 53, 120
3, 122304, Note_on_c, 1, 50, 120
3, 122304, Note_on_c, 1, 46, 120
3, 122492, Note_off_c, 1, 53, 100
3, 122492, Note_off_c, 1, 50, 100
3, 122492, Note_off_c, 1, 46, 100
3, 122496, Note_on_c, 1, 53, 120
3, 122496, Note_on_c, 1, 50, 120
3, 122496, Note_on_c, 1, 46, 120
3, 122684, Note_off_c, 1, 53, 100
3, 122684, Note_off_c, 1, 50, 100
3, 122684, Note_off_c, 1, 46, 100
3, 122688, Note_on_c, 1, 53, 120
3, 122688, Note_on_c, 1, 50, 120
3, 122688, Note_on_c, 1, 46, 120
3, 123068, Note_off_c, 1, 53, 100
3, 123068, Note_off_c, 1, 50, 100
3, 123068, Note_off_c, 1, 46, 100
3, 123072, Note_on_c, 1, 53, 120
3, 123072, Note_on_c, 1, 48, 120
3, 123072, Note_on_c, 1, 41, 120
3, 123260, Note_off_c, 1, 53, 100
3, 123260, Note_off_c, 1, 48, 100
3, 123260, Note_off_c, 1, 41, 100
3, 123264, Note_on_c, 1, 58, 120
3, 123264, Note_on_c, 1, 53, 120
3, 123264, Note_on_c, 1, 50, 120
3, 123264, Note_on_c, 1, 46, 120
3, 123644, Note_off_c, 1, 58, 100
3, 123644, Note_off_c, 1, 53, 100
3, 123644, Note_off_c, 1, 50, 100
3, 123644, Note_off_c, 1, 46, 100
3, 123840, Note_on_c, 1, 58, 120
3, 123840, Note_on_c, 1, 53, 120
3, 123840, Note_on_c, 1, 50, 120
3, 123840, Note_on_c, 1, 46, 120
3, 124220, Note_off_c, 1, 58, 100
3, 124220, Note_off_c, 1, 53, 100
3, 124220, Note_off_c, 1, 50, 100
3, 124220, Note_off_c, 1, 46, 100
3, 124416, Note_on_c, 1, 58, 120
3, 124416, Note_on_c, 1, 53, 120
3, 124416, Note_on_c, 1, 50, 120
3, 124416, Note_on_c, 1, 46, 120
3, 124796, Note_off_c, 1, 58, 100
3, 124796, Note_off_c, 1, 53, 100
3, 124796, Note_off_c, 1, 50, 100
3, 124796, Note_off_c, 1, 46, 100
3, 125568, Note_on_c, 1, 70, 80
3, 125568, Note_on_c, 1, 67, 80
3, 125568, Note_on_c, 1, 63, 80
3, 125948, Note_off_c, 1, 70, 100
3, 125948, Note_off_c, 1, 67, 100
3, 125948, Note_off_c, 1, 63, 100
3, 126144, Note_on_c, 1, 70, 80
3, 126144, Note_on_c, 1, 68, 80
3, 126144, Note_on_c, 1, 65, 80
3, 126144, Note_on_c, 1, 58, 80
3, 126524, Note_off_c, 1, 70, 100
3, 126524, Note_off_c, 1, 68, 100
3, 126524, Note_off_c, 1, 65, 100
3, 126524, Note_off_c, 1, 58, 100
3, 126720, Note_on_c, 1, 70, 80
3, 126720, Note_on_c, 1, 67, 80
3, 126720, Note_on_c, 1, 63, 80
3, 127100, Note_off_c, 1, 70, 100
3, 127100, Note_off_c, 1, 67, 100
3, 127100, Note_off_c, 1, 63, 100
3, 127680, Note_on_c, 1, 72, 89
3, 127680, Note_on_c, 1, 70, 89
3, 127680, Note_on_c, 1, 67, 89
3, 127680, Note_on_c, 1, 64, 89
3, 127868, Note_off_c, 1, 72, 100
3, 127868, Note_off_c, 1, 70, 100
3, 127868, Note_off_c, 1, 67, 100
3, 127868, Note_off_c, 1, 64, 100
3, 127872, Note_on_c, 1, 72, 90
3, 127872, Note_on_c, 1, 68, 90
3, 127872, Note_on_c, 1, 65, 90
3, 128252, Note_off_c, 1, 72, 100
3, 128252, Note_off_c, 1, 68, 100
3, 128252, Note_off_c, 1, 65, 100
3, 128448, Note_on_c, 1, 72, 96
3, 128448, Note_on_c, 1, 70, 96
3, 128448, Note_on_c, 1, 67, 96
3, 128448, Note_on_c, 1, 60, 96
3, 128828, Note_off_c, 1, 72, 100
3, 128828, Note_off_c, 1, 70, 100
3, 128828, Note_off_c, 1, 67, 100
3, 128828, Note_off_c, 1, 60, 100
3, 129024, Note_on_c, 1, 72, 100
3, 129024, Note_on_c, 1, 68, 100
3, 129024, Note_on_c, 1, 65, 100
3, 129404, Note_off_c, 1, 72, 100
3, 129404, Note_off_c, 1, 68, 100
3, 129404, Note_off_c, 1, 65, 100
3, 129984, Note_on_c, 1, 70, 81
3, 129984, Note_on_c, 1, 68, 81
3, 129984, Note_on_c, 1, 65, 81
3, 129984, Note_on_c, 1, 62, 81
3, 130172, Note_off_c, 1, 70, 100
3, 130172, Note_off_c, 1, 68, 100
3, 130172, Note_off_c, 1, 65, 100
3, 130172, Note_off_c, 1, 62, 100
3, 130176, Note_on_c, 1, 70, 80
3, 130176, Note_on_c, 1, 67, 80
3, 130176, Note_on_c, 1, 63, 80
3, 130556, Note_off_c, 1, 70, 100
3, 130556, Note_off_c, 1, 67, 100
3, 130556, Note_off_c, 1, 63, 100
3, 130752, Note_on_c, 1, 65, 80
3, 130752, Note_on_c, 1, 60, 80
3, 130752, Note_on_c, 1, 56, 80
3, 131132, Note_off_c, 1, 65, 100
3, 131132, Note_off_c, 1, 60, 100
3, 131132, Note_off_c, 1, 56, 100
3, 131328, Note_on_c, 1, 67, 80
3, 131328, Note_on_c, 1, 63, 80
3, 131328, Note_on_c, 1, 58, 80
3, 131708, Note_off_c, 1, 67, 100
3, 131708, Note_off_c, 1, 63, 100
3, 131708, Note_off_c, 1, 58, 100
3, 131904, Note_on_c, 1, 65, 80
3, 131904, Note_on_c, 1, 62, 80
3, 131904, Note_on_c, 1, 58, 80
3, 132284, Note_off_c, 1, 65, 100
3, 132284, Note_off_c, 1, 62, 100
3, 132284, Note_off_c, 1, 58, 100
3, 132288, Note_on_c, 1, 58, 80
3, 132476, Note_off_c, 1, 58, 100
3, 132480, Note_on_c, 1, 58, 80
3, 132668, Note_off_c, 1, 58, 100
3, 132672, Note_on_c, 1, 55, 80
3, 132860, Note_off_c, 1, 55, 100
3, 132864, Note_on_c, 1, 51, 81
3, 133052, Note_off_c, 1, 51, 100
3, 133056, Note_on_c, 1, 50, 82
3, 133244, Note_off_c, 1, 50, 100
3, 133248, Note_on_c, 1, 53, 83
3, 133436, Note_off_c, 1, 53, 100
3, 133440, Note_on_c, 1, 58, 84
3, 133628, Note_off_c, 1, 58, 100
3, 133632, Note_on_c, 1, 58, 85
3, 133820, Note_off_c, 1, 58, 100
3, 133824, Note_on_c, 1, 55, 85
3, 134012, Note_off_c, 1, 55, 100
3, 134016, Note_on_c, 1, 51, 86
3, 134204, Note_off_c, 1, 51, 100
3, 134208, Note_on_c, 1, 51, 87
3, 134396, Note_off_c, 1, 51, 100
3, 134400, Note_on_c, 1, 55, 88
3, 134588, Note_off_c, 1, 55, 100
3, 134592, Note_on_c, 1, 60, 89
3, 134592, Note_on_c, 1, 52, 89
3, 134780, Note_off_c, 1, 60, 100
3, 134780, Note_off_c, 1, 52, 100
3, 134784, Note_on_c, 1, 60, 90
3, 134784, Note_on_c, 1, 53, 90
3, 134972, Note_off_c, 1, 60, 100
3, 134972, Note_off_c, 1, 53, 100
3, 134976, Note_on_c, 1, 56, 91
3, 135164, Note_off_c, 1, 56, 100
3, 135168, Note_on_c, 1, 53, 91
3, 135356, Note_off_c, 1, 53, 100
3, 135360, Note_on_c, 1, 52, 92
3, 135548, Note_off_c, 1, 52, 100
3, 135552, Note_on_c, 1, 55, 93
3, 135740, Note_off_c, 1, 55, 100
3, 135744, Note_on_c, 1, 60, 94
3, 135932, Note_off_c, 1, 60, 100
3, 135936, Note_on_c, 1, 60, 95
3, 136124, Note_off_c, 1, 60, 100
3, 136128, Note_on_c, 1, 56, 96
3, 136316, Note_off_c, 1, 56, 100
3, 136320, Note_on_c, 1, 53, 97
3, 136508, Note_off_c, 1, 53, 100
3, 136512, Note_on_c, 1, 50, 97
3, 136700, Note_off_c, 1, 50, 100
3, 136704, Note_on_c, 1, 53, 98
3, 136892, Note_off_c, 1, 53, 100
3, 136896, Note_on_c, 1, 58, 99
3, 136896, Note_on_c, 1, 50, 99
3, 137084, Note_off_c, 1, 58, 100
3, 137084, Note_off_c, 1, 50, 100
3, 137088, Note_on_c, 1, 51, 100
3, 137088, Note_on_c, 1, 58, 100
3, 137276, Note_off_c, 1, 51, 100
3, 137276, Note_off_c, 1, 58, 100
3, 137280, Note_on_c, 1, 55, 101
3, 137468, Note_off_c, 1, 55, 100
3, 137472, Note_on_c, 1, 51, 102
3, 137660, Note_off_c, 1, 51, 100
3, 137664, Note_on_c, 1, 48, 103
3, 137664, Note_on_c, 1, 44, 103
3, 137852, Note_off_c, 1, 48, 100
3, 137852, Note_off_c, 1, 44, 100
3, 137856, Note_on_c, 1, 53, 103
3, 138044, Note_off_c, 1, 53, 100
3, 138048, Note_on_c, 1, 56, 104
3, 138236, Note_off_c, 1, 56, 100
3, 138240, Note_on_c, 1, 46, 105
3, 138428, Note_off_c, 1, 46, 100
3, 138432, Note_on_c, 1, 51, 106
3, 138620, Note_off_c, 1, 51, 100
3, 138624, Note_on_c, 1, 55, 107
3, 138812, Note_off_c, 1, 55, 100
3, 138816, Note_on_c, 1, 46, 108
3, 139004, Note_off_c, 1, 46, 100
3, 139008, Note_on_c, 1, 50, 109
3, 139196, Note_off_c, 1, 50, 100
3, 139200, Note_on_c, 1, 58, 109
3, 139200, Note_on_c, 1, 46, 109
3, 139388, Note_off_c, 1, 58, 100
3, 139388, Note_off_c, 1, 46, 100
3, 139392, Note_on_c, 1, 46, 110
3, 139580, Note_off_c, 1, 46, 100
3, 139584, Note_on_c, 1, 43, 110
3, 139772, Note_off_c, 1, 43, 100
3, 139776, Note_on_c, 1, 39, 110
3, 139964, Note_off_c, 1, 39, 100
3, 139968, Note_on_c, 1, 38, 110
3, 140156, Note_off_c, 1, 38, 100
3, 140160, Note_on_c, 1, 41, 110
3, 140348, Note_off_c, 1, 41, 100
3, 140352, Note_on_c, 1, 46, 110
3, 140540, Note_off_c, 1, 46, 100
3, 140544, Note_on_c, 1, 46, 110
3, 140732, Note_off_c, 1, 46, 100
3, 140736, Note_on_c, 1, 43, 110
3, 140924, Note_off_c, 1, 43, 100
3, 140928, Note_on_c, 1, 39, 110
3, 141116, Note_off_c, 1, 39, 100
3, 141120, Note_on_c, 1, 39, 110
3, 141308, Note_off_c, 1, 39, 100
3, 141312, Note_on_c, 1, 43, 110
3, 141500, Note_off_c, 1, 43, 100
3, 141504, Note_on_c, 1, 48, 110
3, 141504, Note_on_c, 1, 40, 110
3, 141692, Note_off_c, 1, 48, 100
3, 141692, Note_off_c, 1, 40, 100
3, 141696, Note_on_c, 1, 48, 110
3, 141696, Note_on_c, 1, 41, 110
3, 141884, Note_off_c, 1, 48, 100
3, 141884, Note_off_c, 1, 41, 100
3, 141888, Note_on_c, 1, 44, 110
3, 142076, Note_off_c, 1, 44, 100
3, 142080, Note_on_c, 1, 41, 110
3, 142268, Note_off_c, 1, 41, 100
3, 142272, Note_on_c, 1, 40, 110
3, 142460, Note_off_c, 1, 40, 100
3, 142464, Note_on_c, 1, 43, 110
3, 142652, Note_off_c, 1, 43, 100
3, 142656, Note_on_c, 1, 48, 110
3, 142844, Note_off_c, 1, 48, 100
3, 142848, Note_on_c, 1, 48, 110
3, 143036, Note_off_c, 1, 48, 100
3, 143040, Note_on_c, 1, 44, 110
3, 143228, Note_off_c, 1, 44, 100
3, 143232, Note_on_c, 1, 41, 110
3, 143420, Note_off_c, 1, 41, 100
3, 143424, Note_on_c, 1, 38, 110
3, 143612, Note_off_c, 1, 38, 100
3, 143616, Note_on_c, 1, 41, 110
3, 143804, Note_off_c, 1, 41, 100
3, 143808, Note_on_c, 1, 46, 110
3, 143808, Note_on_c, 1, 38, 110
3, 143996, Note_off_c, 1, 46, 100
3, 143996, Note_off_c, 1, 38, 100
3, 144000, Note_on_c, 1, 46, 110
3, 144000, Note_on_c, 1, 39, 110
3, 144188, Note_off_c, 1, 46, 100
3, 144188, Note_off_c, 1, 39, 100
3, 144192, Note_on_c, 1, 43, 110
3, 144380, Note_off_c, 1, 43, 100
3, 144384, Note_on_c, 1, 39, 110
3, 144572, Note_off_c, 1, 39, 100
3, 144576, Note_on_c, 1, 36, 110
3, 144576, Note_on_c, 1, 32, 110
3, 144764, Note_off_c, 1, 36, 100
3, 144764, Note_off_c, 1, 32, 100
3, 144768, Note_on_c, 1, 41, 110
3, 144956, Note_off_c, 1, 41, 100
3, 144960, Note_on_c, 1, 44, 110
3, 145148, Note_off_c, 1, 44, 100
3, 145152, Note_on_c, 1, 34, 110
3, 145340, Note_off_c, 1, 34, 100
3, 145344, Note_on_c, 1, 39, 110
3, 145532, Note_off_c, 1, 39, 100
3, 145536, Note_on_c, 1, 43, 110
3, 145724, Note_off_c, 1, 43, 100
3, 145728, Note_on_c, 1, 34, 110
3, 145916, Note_off_c, 1, 34, 100
3, 145920, Note_on_c, 1, 41, 110
3, 146108, Note_off_c, 1, 41, 100
3, 146112, Note_on_c, 1, 46, 110
3, 146300, Note_off_c, 1, 46, 100
3, 146304, Control_c, 1, 64, 127
3, 146304, Note_on_c, 1, 39, 120
3, 146492, Note_off_c, 1, 39, 100
3, 146496, Note_on_c, 1, 55, 120
3, 146496, Note_on_c, 1, 51, 120
3, 146684, Note_off_c, 1, 55, 100
3, 146684, Note_off_c, 1, 51, 100
3, 146688, Note_on_c, 1, 51, 120
3, 146688, Note_on_c, 1, 55, 120
3, 146688, Note_on_c, 1, 58, 120
3, 146876, Note_off_c, 1, 51, 100
3, 146876, Note_off_c, 1, 55, 100
3, 146876, Note_off_c, 1, 58, 100
3, 146880, Note_on_c, 1, 51, 120
3, 146880, Note_on_c, 1, 55, 120
3, 146880, Note_on_c, 1, 58, 120
3, 146880, Note_on_c, 1, 63, 120
3, 147068, Note_off_c, 1, 51, 100
3, 147068, Note_off_c, 1, 55, 100
3, 147068, Note_off_c, 1, 58, 100
3, 147068, Note_off_c, 1, 63, 100
3, 147072, Note_on_c, 1, 51, 120
3, 147072, Note_on_c, 1, 55, 120
3, 147072, Note_on_c, 1, 58, 120
3, 147072, Note_on_c, 1, 63, 120
3, 147260, Note_off_c, 1, 51, 100
3, 147260, Note_off_c, 1, 55, 100
3, 147260, Note_off_c, 1, 58, 100
3, 147260, Note_off_c, 1, 63, 100
3, 147264, Note_on_c, 1, 51, 120
3, 147264, Note_on_c, 1, 55, 120
3, 147264, Note_on_c, 1, 58, 120
3, 147264, Note_on_c, 1, 63, 120
3, 147452, Note_off_c, 1, 51, 100
3, 147452, Note_off_c, 1, 55, 100
3, 147452, Note_off_c, 1, 58, 100
3, 147452, Note_off_c, 1, 63, 100
3, 147456, Note_on_c, 1, 51, 120
3, 147456, Note_on_c, 1, 55, 120
3, 147456, Note_on_c, 1, 58, 120
3, 147456, Note_on_c, 1, 63, 120
3, 147644, Note_off_c, 1, 51, 100
3, 147644, Note_off_c, 1, 55, 100
3, 147644, Note_off_c, 1, 58, 100
3, 147644, Note_off_c, 1, 63, 100
3, 147648, Note_on_c, 1, 51, 120
3, 147648, Note_on_c, 1, 55, 120
3, 147648, Note_on_c, 1, 58, 120
3, 147648, Note_on_c, 1, 63, 120
3, 147836, Note_off_c, 1, 51, 100
3, 147836, Note_off_c, 1, 55, 100
3, 147836, Note_off_c, 1, 58, 100
3, 147836, Note_off_c, 1, 63, 100
3, 147840, Note_on_c, 1, 51, 120
3, 147840, Note_on_c, 1, 55, 120
3, 147840, Note_on_c, 1, 58, 120
3, 147840, Note_on_c, 1, 63, 120
3, 148028, Note_off_c, 1, 51, 100
3, 148028, Note_off_c, 1, 55, 100
3, 148028, Note_off_c, 1, 58, 100
3, 148028, Note_off_c, 1, 63, 100
3, 148028, Control_c, 1, 64, 0
3, 148032, Note_on_c, 1, 51, 120
3, 148032, Note_on_c, 1, 53, 120
3, 148032, Note_on_c, 1, 56, 120
3, 148032, Note_on_c, 1, 58, 120
3, 148032, Note_on_c, 1, 62, 120
3, 148220, Note_off_c, 1, 51, 100
3, 148220, Note_off_c, 1, 53, 100
3, 148220, Note_off_c, 1, 56, 100
3, 148220, Note_off_c, 1, 58, 100
3, 148220, Note_off_c, 1, 62, 100
3, 148224, Note_on_c, 1, 51, 120
3, 148224, Note_on_c, 1, 53, 120
3, 148224, Note_on_c, 1, 56, 120
3, 148224, Note_on_c, 1, 58, 120
3, 148224, Note_on_c, 1, 62, 120
3, 148412, Note_off_c, 1, 51, 100
3, 148412, Note_off_c, 1, 53, 100
3, 148412, Note_off_c, 1, 56, 100
3, 148412, Note_off_c, 1, 58, 100
3, 148412, Note_off_c, 1, 62, 100
3, 148416, Note_on_c, 1, 51, 120
3, 148416, Note_on_c, 1, 53, 120
3, 148416, Note_on_c, 1, 56, 120
3, 148416, Note_on_c, 1, 58, 120
3, 148416, Note_on_c, 1, 62, 120
3, 148604, Note_off_c, 1, 51, 100
3, 148604, Note_off_c, 1, 53, 100
3, 148604, Note_off_c, 1, 56, 100
3, 148604, Note_off_c, 1, 58, 100
3, 148604, Note_off_c, 1, 62, 100
3, 148608, Note_on_c, 1, 63, 120
3, 148608, Note_on_c, 1, 58, 120
3, 148608, Note_on_c, 1, 55, 120
3, 148608, Note_on_c, 1, 51, 120
3, 148796, Note_off_c, 1, 63, 100
3, 148796, Note_off_c, 1, 58, 100
3, 148796, Note_off_c, 1, 55, 100
3, 148796, Note_off_c, 1, 51, 100
3, 148800, Note_on_c, 1, 63, 120
3, 148800, Note_on_c, 1, 58, 120
3, 148800, Note_on_c, 1, 55, 120
3, 148800, Note_on_c, 1, 51, 120
3, 148988, Note_off_c, 1, 63, 100
3, 148988, Note_off_c, 1, 58, 100
3, 148988, Note_off_c, 1, 55, 100
3, 148988, Note_off_c, 1, 51, 100
3, 148992, Note_on_c, 1, 63, 120
3, 148992, Note_on_c, 1, 58, 120
3, 148992, Note_on_c, 1, 55, 120
3, 148992, Note_on_c, 1, 51, 120
3, 149180, Note_off_c, 1, 63, 100
3, 149180, Note_off_c, 1, 58, 100
3, 149180, Note_off_c, 1, 55, 100
3, 149180, Note_off_c, 1, 51, 100
3, 149184, Note_on_c, 1, 63, 120
3, 149184, Note_on_c, 1, 58, 120
3, 149184, Note_on_c, 1, 55, 120
3, 149184, Note_on_c, 1, 51, 120
3, 149372, Note_off_c, 1, 63, 100
3, 149372, Note_off_c, 1, 58, 100
3, 149372, Note_off_c, 1, 55, 100
3, 149372, Note_off_c, 1, 51, 100
3, 149376, Note_on_c, 1, 63, 120
3, 149376, Note_on_c, 1, 58, 120
3, 149376, Note_on_c, 1, 55, 120
3, 149376, Note_on_c, 1, 51, 120
3, 149564, Note_off_c, 1, 63, 100
3, 149564, Note_off_c, 1, 58, 100
3, 149564, Note_off_c, 1, 55, 100
3, 149564, Note_off_c, 1, 51, 100
3, 149568, Note_on_c, 1, 63, 120
3, 149568, Note_on_c, 1, 58, 120
3, 149568, Note_on_c, 1, 55, 120
3, 149568, Note_on_c, 1, 51, 120
3, 149756, Note_off_c, 1, 63, 100
3, 149756, Note_off_c, 1, 58, 100
3, 149756, Note_off_c, 1, 55, 100
3, 149756, Note_off_c, 1, 51, 100
3, 149760, Note_on_c, 1, 63, 120
3, 149760, Note_on_c, 1, 58, 120
3, 149760, Note_on_c, 1, 55, 120
3, 149760, Note_on_c, 1, 51, 120
3, 149948, Note_off_c, 1, 63, 100
3, 149948, Note_off_c, 1, 58, 100
3, 149948, Note_off_c, 1, 55, 100
3, 149948, Note_off_c, 1, 51, 100
3, 149952, Note_on_c, 1, 63, 120
3, 149952, Note_on_c, 1, 58, 120
3, 149952, Note_on_c, 1, 55, 120
3, 149952, Note_on_c, 1, 51, 120
3, 150140, Note_off_c, 1, 63, 100
3, 150140, Note_off_c, 1, 58, 100
3, 150140, Note_off_c, 1, 55, 100
3, 150140, Note_off_c, 1, 51, 100
3, 150144, Note_on_c, 1, 63, 120
3, 150144, Note_on_c, 1, 58, 120
3, 150144, Note_on_c, 1, 55, 120
3, 150144, Note_on_c, 1, 51, 120
3, 150332, Note_off_c, 1, 63, 100
3, 150332, Note_off_c, 1, 58, 100
3, 150332, Note_off_c, 1, 55, 100
3, 150332, Note_off_c, 1, 51, 100
3, 150336, Note_on_c, 1, 58, 120
3, 150336, Note_on_c, 1, 56, 120
3, 150336, Note_on_c, 1, 53, 120
3, 150336, Note_on_c, 1, 51, 120
3, 150524, Note_off_c, 1, 58, 100
3, 150524, Note_off_c, 1, 56, 100
3, 150524, Note_off_c, 1, 53, 100
3, 150524, Note_off_c, 1, 51, 100
3, 150528, Note_on_c, 1, 58, 120
3, 150528, Note_on_c, 1, 56, 120
3, 150528, Note_on_c, 1, 53, 120
3, 150528, Note_on_c, 1, 51, 120
3, 150716, Note_off_c, 1, 58, 100
3, 150716, Note_off_c, 1, 56, 100
3, 150716, Note_off_c, 1, 53, 100
3, 150716, Note_off_c, 1, 51, 100
3, 150720, Note_on_c, 1, 58, 120
3, 150720, Note_on_c, 1, 56, 120
3, 150720, Note_on_c, 1, 53, 120
3, 150720, Note_on_c, 1, 51, 120
3, 150908, Note_off_c, 1, 58, 100
3, 150908, Note_off_c, 1, 56, 100
3, 150908, Note_off_c, 1, 53, 100
3, 150908, Note_off_c, 1, 51, 100
3, 150912, Control_c, 1, 64, 127
3, 150912, Note_on_c, 1, 39, 120
3, 151100, Note_off_c, 1, 39, 100
3, 151104, Note_on_c, 1, 55, 120
3, 151104, Note_on_c, 1, 51, 120
3, 151292, Note_off_c, 1, 55, 100
3, 151292, Note_off_c, 1, 51, 100
3, 151296, Note_on_c, 1, 51, 120
3, 151296, Note_on_c, 1, 55, 120
3, 151296, Note_on_c, 1, 58, 120
3, 151484, Note_off_c, 1, 51, 100
3, 151484, Note_off_c, 1, 55, 100
3, 151484, Note_off_c, 1, 58, 100
3, 151488, Note_on_c, 1, 51, 120
3, 151488, Note_on_c, 1, 55, 120
3, 151488, Note_on_c, 1, 58, 120
3, 151488, Note_on_c, 1, 63, 120
3, 151676, Note_off_c, 1, 51, 100
3, 151676, Note_off_c, 1, 55, 100
3, 151676, Note_off_c, 1, 58, 100
3, 151676, Note_off_c, 1, 63, 100
3, 151680, Note_on_c, 1, 51, 120
3, 151680, Note_on_c, 1, 55, 120
3, 151680, Note_on_c, 1, 58, 120
3, 151680, Note_on_c, 1, 63, 120
3, 151868, Note_off_c, 1, 51, 100
3, 151868, Note_off_c, 1, 55, 100
3, 151868, Note_off_c, 1, 58, 100
3, 151868, Note_off_c, 1, 63, 100
3, 151872, Note_on_c, 1, 51, 120
3, 151872, Note_on_c, 1, 55, 120
3, 151872, Note_on_c, 1, 58, 120
3, 151872, Note_on_c, 1, 63, 120
3, 152060, Note_off_c, 1, 51, 100
3, 152060, Note_off_c, 1, 55, 100
3, 152060, Note_off_c, 1, 58, 100
3, 152060, Note_off_c, 1, 63, 100
3, 152064, Note_on_c, 1, 51, 120
3, 152064, Note_on_c, 1, 55, 120
3, 152064, Note_on_c, 1, 58, 120
3, 152064, Note_on_c, 1, 63, 120
3, 152252, Note_off_c, 1, 51, 100
3, 152252, Note_off_c, 1, 55, 100
3, 152252, Note_off_c, 1, 58, 100
3, 152252, Note_off_c, 1, 63, 100
3, 152256, Note_on_c, 1, 51, 120
3, 152256, Note_on_c, 1, 55, 120
3, 152256, Note_on_c, 1, 58, 120
3, 152256, Note_on_c, 1, 63, 120
3, 152444, Note_off_c, 1, 51, 100
3, 152444, Note_off_c, 1, 55, 100
3, 152444, Note_off_c, 1, 58, 100
3, 152444, Note_off_c, 1, 63, 100
3, 152448, Note_on_c, 1, 51, 120
3, 152448, Note_on_c, 1, 55, 120
3, 152448, Note_on_c, 1, 58, 120
3, 152448, Note_on_c, 1, 63, 120
3, 152636, Note_off_c, 1, 51, 100
3, 152636, Note_off_c, 1, 55, 100
3, 152636, Note_off_c, 1, 58, 100
3, 152636, Note_off_c, 1, 63, 100
3, 152636, Control_c, 1, 64, 0
3, 152640, Note_on_c, 1, 51, 120
3, 152640, Note_on_c, 1, 53, 120
3, 152640, Note_on_c, 1, 56, 120
3, 152640, Note_on_c, 1, 58, 120
3, 152640, Note_on_c, 1, 62, 120
3, 152828, Note_off_c, 1, 51, 100
3, 152828, Note_off_c, 1, 53, 100
3, 152828, Note_off_c, 1, 56, 100
3, 152828, Note_off_c, 1, 58, 100
3, 152828, Note_off_c, 1, 62, 100
3, 152832, Note_on_c, 1, 51, 120
3, 152832, Note_on_c, 1, 53, 120
3, 152832, Note_on_c, 1, 56, 120
3, 152832, Note_on_c, 1, 58, 120
3, 152832, Note_on_c, 1, 62, 120
3, 153020, Note_off_c, 1, 51, 100
3, 153020, Note_off_c, 1, 53, 100
3, 153020, Note_off_c, 1, 56, 100
3, 153020, Note_off_c, 1, 58, 100
3, 153020, Note_off_c, 1, 62, 100
3, 153024, Note_on_c, 1, 51, 120
3, 153024, Note_on_c, 1, 53, 120
3, 153024, Note_on_c, 1, 56, 120
3, 153024, Note_on_c, 1, 58, 120
3, 153024, Note_on_c, 1, 62, 120
3, 153212, Note_off_c, 1, 51, 100
3, 153212, Note_off_c, 1, 53, 100
3, 153212, Note_off_c, 1, 56, 100
3, 153212, Note_off_c, 1, 58, 100
3, 153212, Note_off_c, 1, 62, 100
3, 153216, Note_on_c, 1, 63, 120
3, 153216, Note_on_c, 1, 58, 120
3, 153216, Note_on_c, 1, 55, 120
3, 153216, Note_on_c, 1, 51, 120
3, 153404, Note_off_c, 1, 63, 100
3, 153404, Note_off_c, 1, 58, 100
3, 153404, Note_off_c, 1, 55, 100
3, 153404, Note_off_c, 1, 51, 100
3, 153408, Note_on_c, 1, 63, 120
3, 153408, Note_on_c, 1, 58, 120
3, 153408, Note_on_c, 1, 55, 120
3, 153408, Note_on_c, 1, 51, 120
3, 153596, Note_off_c, 1, 63, 100
3, 153596, Note_off_c, 1, 58, 100
3, 153596, Note_off_c, 1, 55, 100
3, 153596, Note_off_c, 1, 51, 100
3, 153600, Note_on_c, 1, 63, 120
3, 153600, Note_on_c, 1, 58, 120
3, 153600, Note_on_c, 1, 55, 120
3, 153600, Note_on_c, 1, 51, 120
3, 153788, Note_off_c, 1, 63, 100
3, 153788, Note_off_c, 1, 58, 100
3, 153788, Note_off_c, 1, 55, 100
3, 153788, Note_off_c, 1, 51, 100
3, 153792, Note_on_c, 1, 63, 120
3, 153792, Note_on_c, 1, 58, 120
3, 153792, Note_on_c, 1, 55, 120
3, 153792, Note_on_c, 1, 51, 120
3, 153980, Note_off_c, 1, 63, 100
3, 153980, Note_off_c, 1, 58, 100
3, 153980, Note_off_c, 1, 55, 100
3, 153980, Note_off_c, 1, 51, 100
3, 153984, Note_on_c, 1, 63, 120
3, 153984, Note_on_c, 1, 58, 120
3, 153984, Note_on_c, 1, 55, 120
3, 153984, Note_on_c, 1, 51, 120
3, 154172, Note_off_c, 1, 63, 100
3, 154172, Note_off_c, 1, 58, 100
3, 154172, Note_off_c, 1, 55, 100
3, 154172, Note_off_c, 1, 51, 100
3, 154176, Note_on_c, 1, 63, 120
3, 154176, Note_on_c, 1, 58, 120
3, 154176, Note_on_c, 1, 55, 120
3, 154176, Note_on_c, 1, 51, 120
3, 154364, Note_off_c, 1, 63, 100
3, 154364, Note_off_c, 1, 58, 100
3, 154364, Note_off_c, 1, 55, 100
3, 154364, Note_off_c, 1, 51, 100
3, 154368, Note_on_c, 1, 58, 120
3, 154368, Note_on_c, 1, 55, 120
3, 154368, Note_on_c, 1, 51, 120
3, 154556, Note_off_c, 1, 58, 100
3, 154556, Note_off_c, 1, 55, 100
3, 154556, Note_off_c, 1, 51, 100
3, 154560, Note_on_c, 1, 58, 120
3, 154560, Note_on_c, 1, 55, 120
3, 154560, Note_on_c, 1, 51, 120
3, 154748, Note_off_c, 1, 58, 100
3, 154748, Note_off_c, 1, 55, 100
3, 154748, Note_off_c, 1, 51, 100
3, 154752, Note_on_c, 1, 58, 120
3, 154752, Note_on_c, 1, 55, 120
3, 154752, Note_on_c, 1, 51, 120
3, 154940, Note_off_c, 1, 58, 100
3, 154940, Note_off_c, 1, 55, 100
3, 154940, Note_off_c, 1, 51, 100
3, 154944, Note_on_c, 1, 53, 120
3, 154944, Note_on_c, 1, 51, 120
3, 155132, Note_off_c, 1, 53, 100
3, 155132, Note_off_c, 1, 51, 100
3, 155136, Note_on_c, 1, 53, 120
3, 155136, Note_on_c, 1, 51, 120
3, 155136, Note_on_c, 1, 41, 120
3, 155324, Note_off_c, 1, 53, 100
3, 155324, Note_off_c, 1, 51, 100
3, 155324, Note_off_c, 1, 41, 100
3, 155328, Note_on_c, 1, 53, 120
3, 155328, Note_on_c, 1, 51, 120
3, 155328, Note_on_c, 1, 41, 120
3, 155516, Note_off_c, 1, 53, 100
3, 155516, Note_off_c, 1, 51, 100
3, 155516, Note_off_c, 1, 41, 100
3, 155520, Control_c, 1, 64, 127
3, 155520, Note_on_c, 1, 46, 120
3, 155520, Note_on_c, 1, 34, 120
3, 156096, Note_on_c, 1, 58, 120
3, 156668, Note_off_c, 1, 46, 100
3, 156668, Note_off_c, 1, 34, 100
3, 156672, Note_on_c, 1, 61, 120
3, 157244, Note_off_c, 1, 58, 64
3, 157248, Note_on_c, 1, 66, 120
3, 157820, Note_off_c, 1, 61, 100
3, 157824, Note_on_c, 1, 61, 120
3, 158396, Note_off_c, 1, 66, 64
3, 158400, Note_on_c, 1, 58, 120
3, 158972, Note_off_c, 1, 61, 100
3, 158976, Note_on_c, 1, 54, 120
3, 159548, Note_off_c, 1, 58, 64
3, 159552, Note_on_c, 1, 49, 120
3, 160124, Note_off_c, 1, 54, 100
3, 160124, Note_off_c, 1, 49, 100
3, 160124, Control_c, 1, 64, 0
3, 160128, Control_c, 1, 64, 127
3, 160128, Note_on_c, 1, 45, 120
3, 160128, Note_on_c, 1, 33, 120
3, 160704, Note_on_c, 1, 57, 120
3, 161276, Note_off_c, 1, 45, 100
3, 161276, Note_off_c, 1, 33, 100
3, 161280, Note_on_c, 1, 60, 120
3, 161852, Note_off_c, 1, 57, 64
3, 161856, Note_on_c, 1, 65, 120
3, 162428, Note_off_c, 1, 60, 100
3, 162432, Note_on_c, 1, 60, 120
3, 163004, Note_off_c, 1, 65, 64
3, 163008, Note_on_c, 1, 57, 120
3, 163580, Note_off_c, 1, 60, 100
3, 163584, Note_on_c, 1, 53, 120
3, 164156, Note_off_c, 1, 57, 64
3, 164160, Note_on_c, 1, 48, 120
3, 164732, Note_off_c, 1, 53, 100
3, 164732, Note_off_c, 1, 48, 100
3, 164732, Control_c, 1, 64, 0
3, 164736, Note_on_c, 1, 66, 80
3, 164736, Note_on_c, 1, 61, 80
3, 164736, Note_on_c, 1, 58, 80
3, 164924, Note_off_c, 1, 66, 100
3, 164924, Note_off_c, 1, 61, 100
3, 164924, Note_off_c, 1, 58, 100
3, 164928, Note_on_c, 1, 66, 80
3, 164928, Note_on_c, 1, 61, 80
3, 164928, Note_on_c, 1, 58, 80
3, 165116, Note_off_c, 1, 66, 100
3, 165116, Note_off_c, 1, 61, 100
3, 165116, Note_off_c, 1, 58, 100
3, 165120, Note_on_c, 1, 66, 80
3, 165120, Note_on_c, 1, 61, 80
3, 165120, Note_on_c, 1, 58, 80
3, 165308, Note_off_c, 1, 66, 100
3, 165308, Note_off_c, 1, 61, 100
3, 165308, Note_off_c, 1, 58, 100
3, 165312, Note_on_c, 1, 66, 80
3, 165312, Note_on_c, 1, 61, 80
3, 165312, Note_on_c, 1, 58, 80
3, 165500, Note_off_c, 1, 66, 100
3, 165500, Note_off_c, 1, 61, 100
3, 165500, Note_off_c, 1, 58, 100
3, 165504, Note_on_c, 1, 66, 80
3, 165504, Note_on_c, 1, 61, 80
3, 165504, Note_on_c, 1, 58, 80
3, 165692, Note_off_c, 1, 66, 100
3, 165692, Note_off_c, 1, 61, 100
3, 165692, Note_off_c, 1, 58, 100
3, 165696, Note_on_c, 1, 66, 80
3, 165696, Note_on_c, 1, 61, 80
3, 165696, Note_on_c, 1, 58, 80
3, 165884, Note_off_c, 1, 66, 100
3, 165884, Note_off_c, 1, 61, 100
3, 165884, Note_off_c, 1, 58, 100
3, 165888, Note_on_c, 1, 66, 80
3, 165888, Note_on_c, 1, 61, 80
3, 165888, Note_on_c, 1, 58, 80
3, 166076, Note_off_c, 1, 66, 100
3, 166076, Note_off_c, 1, 61, 100
3, 166076, Note_off_c, 1, 58, 100
3, 166080, Note_on_c, 1, 66, 80
3, 166080, Note_on_c, 1, 61, 80
3, 166080, Note_on_c, 1, 58, 80
3, 166268, Note_off_c, 1, 66, 100
3, 166268, Note_off_c, 1, 61, 100
3, 166268, Note_off_c, 1, 58, 100
3, 166272, Note_on_c, 1, 66, 80
3, 166272, Note_on_c, 1, 61, 80
3, 166272, Note_on_c, 1, 58, 80
3, 166460, Note_off_c, 1, 66, 100
3, 166460, Note_off_c, 1, 61, 100
3, 166460, Note_off_c, 1, 58, 100
3, 166464, Note_on_c, 1, 66, 80
3, 166464, Note_on_c, 1, 61, 80
3, 166464, Note_on_c, 1, 58, 80
3, 166652, Note_off_c, 1, 66, 100
3, 166652, Note_off_c, 1, 61, 100
3, 166652, Note_off_c, 1, 58, 100
3, 166656, Note_on_c, 1, 66, 80
3, 166656, Note_on_c, 1, 61, 80
3, 166656, Note_on_c, 1, 58, 80
3, 166844, Note_off_c, 1, 66, 100
3, 166844, Note_off_c, 1, 61, 100
3, 166844, Note_off_c, 1, 58, 100
3, 166848, Note_on_c, 1, 66, 80
3, 166848, Note_on_c, 1, 61, 80
3, 166848, Note_on_c, 1, 58, 80
3, 167036, Note_off_c, 1, 66, 100
3, 167036, Note_off_c, 1, 61, 100
3, 167036, Note_off_c, 1, 58, 100
3, 167040, Note_on_c, 1, 66, 80
3, 167040, Note_on_c, 1, 61, 80
3, 167040, Note_on_c, 1, 58, 80
3, 167228, Note_off_c, 1, 66, 100
3, 167228, Note_off_c, 1, 61, 100
3, 167228, Note_off_c, 1, 58, 100
3, 167232, Note_on_c, 1, 66, 80
3, 167232, Note_on_c, 1, 61, 80
3, 167232, Note_on_c, 1, 58, 80
3, 167420, Note_off_c, 1, 66, 100
3, 167420, Note_off_c, 1, 61, 100
3, 167420, Note_off_c, 1, 58, 100
3, 167424, Note_on_c, 1, 66, 80
3, 167424, Note_on_c, 1, 61, 80
3, 167424, Note_on_c, 1, 58, 80
3, 167612, Note_off_c, 1, 66, 100
3, 167612, Note_off_c, 1, 61, 100
3, 167612, Note_off_c, 1, 58, 100
3, 167616, Note_on_c, 1, 66, 80
3, 167616, Note_on_c, 1, 61, 80
3, 167616, Note_on_c, 1, 58, 80
3, 167804, Note_off_c, 1, 66, 100
3, 167804, Note_off_c, 1, 61, 100
3, 167804, Note_off_c, 1, 58, 100
3, 167808, Note_on_c, 1, 66, 80
3, 167808, Note_on_c, 1, 61, 80
3, 167808, Note_on_c, 1, 58, 80
3, 167996, Note_off_c, 1, 66, 100
3, 167996, Note_off_c, 1, 61, 100
3, 167996, Note_off_c, 1, 58, 100
3, 168000, Note_on_c, 1, 66, 80
3, 168000, Note_on_c, 1, 61, 80
3, 168000, Note_on_c, 1, 58, 80
3, 168188, Note_off_c, 1, 66, 100
3, 168188, Note_off_c, 1, 61, 100
3, 168188, Note_off_c, 1, 58, 100
3, 168192, Note_on_c, 1, 66, 80
3, 168192, Note_on_c, 1, 61, 80
3, 168192, Note_on_c, 1, 58, 80
3, 168380, Note_off_c, 1, 66, 100
3, 168380, Note_off_c, 1, 61, 100
3, 168380, Note_off_c, 1, 58, 100
3, 168384, Note_on_c, 1, 66, 80
3, 168384, Note_on_c, 1, 61, 80
3, 168384, Note_on_c, 1, 58, 80
3, 168572, Note_off_c, 1, 66, 100
3, 168572, Note_off_c, 1, 61, 100
3, 168572, Note_off_c, 1, 58, 100
3, 168576, Note_on_c, 1, 66, 80
3, 168576, Note_on_c, 1, 61, 80
3, 168576, Note_on_c, 1, 58, 80
3, 168764, Note_off_c, 1, 66, 100
3, 168764, Note_off_c, 1, 61, 100
3, 168764, Note_off_c, 1, 58, 100
3, 168768, Note_on_c, 1, 66, 80
3, 168768, Note_on_c, 1, 61, 80
3, 168768, Note_on_c, 1, 58, 80
3, 168956, Note_off_c, 1, 66, 100
3, 168956, Note_off_c, 1, 61, 100
3, 168956, Note_off_c, 1, 58, 100
3, 168960, Note_on_c, 1, 66, 80
3, 168960, Note_on_c, 1, 61, 80
3, 168960, Note_on_c, 1, 58, 80
3, 169148, Note_off_c, 1, 66, 100
3, 169148, Note_off_c, 1, 61, 100
3, 169148, Note_off_c, 1, 58, 100
3, 169152, Note_on_c, 1, 61, 80
3, 169152, Note_on_c, 1, 58, 80
3, 169152, Note_on_c, 1, 64, 80
3, 169340, Note_off_c, 1, 61, 100
3, 169340, Note_off_c, 1, 58, 100
3, 169340, Note_off_c, 1, 64, 100
3, 169344, Note_on_c, 1, 65, 80
3, 169344, Note_on_c, 1, 60, 80
3, 169344, Note_on_c, 1, 57, 80
3, 169532, Note_off_c, 1, 65, 100
3, 169532, Note_off_c, 1, 60, 100
3, 169532, Note_off_c, 1, 57, 100
3, 169536, Note_on_c, 1, 65, 80
3, 169536, Note_on_c, 1, 60, 80
3, 169536, Note_on_c, 1, 57, 80
3, 169724, Note_off_c, 1, 65, 100
3, 169724, Note_off_c, 1, 60, 100
3, 169724, Note_off_c, 1, 57, 100
3, 169728, Note_on_c, 1, 65, 80
3, 169728, Note_on_c, 1, 60, 80
3, 169728, Note_on_c, 1, 57, 80
3, 169916, Note_off_c, 1, 65, 100
3, 169916, Note_off_c, 1, 60, 100
3, 169916, Note_off_c, 1, 57, 100
3, 169920, Note_on_c, 1, 65, 80
3, 169920, Note_on_c, 1, 60, 80
3, 169920, Note_on_c, 1, 57, 80
3, 170108, Note_off_c, 1, 65, 100
3, 170108, Note_off_c, 1, 60, 100
3, 170108, Note_off_c, 1, 57, 100
3, 170112, Note_on_c, 1, 65, 80
3, 170112, Note_on_c, 1, 60, 80
3, 170112, Note_on_c, 1, 57, 80
3, 170300, Note_off_c, 1, 65, 100
3, 170300, Note_off_c, 1, 60, 100
3, 170300, Note_off_c, 1, 57, 100
3, 170304, Note_on_c, 1, 65, 80
3, 170304, Note_on_c, 1, 60, 80
3, 170304, Note_on_c, 1, 57, 80
3, 170492, Note_off_c, 1, 65, 100
3, 170492, Note_off_c, 1, 60, 100
3, 170492, Note_off_c, 1, 57, 100
3, 170496, Note_on_c, 1, 65, 80
3, 170496, Note_on_c, 1, 60, 80
3, 170496, Note_on_c, 1, 57, 80
3, 170684, Note_off_c, 1, 65, 100
3, 170684, Note_off_c, 1, 60, 100
3, 170684, Note_off_c, 1, 57, 100
3, 170688, Note_on_c, 1, 65, 80
3, 170688, Note_on_c, 1, 60, 80
3, 170688, Note_on_c, 1, 57, 80
3, 170876, Note_off_c, 1, 65, 100
3, 170876, Note_off_c, 1, 60, 100
3, 170876, Note_off_c, 1, 57, 100
3, 170880, Note_on_c, 1, 65, 80
3, 170880, Note_on_c, 1, 60, 80
3, 170880, Note_on_c, 1, 57, 80
3, 171068, Note_off_c, 1, 65, 100
3, 171068, Note_off_c, 1, 60, 100
3, 171068, Note_off_c, 1, 57, 100
3, 171072, Note_on_c, 1, 65, 80
3, 171072, Note_on_c, 1, 60, 80
3, 171072, Note_on_c, 1, 57, 80
3, 171260, Note_off_c, 1, 65, 100
3, 171260, Note_off_c, 1, 60, 100
3, 171260, Note_off_c, 1, 57, 100
3, 171264, Note_on_c, 1, 65, 80
3, 171264, Note_on_c, 1, 60, 80
3, 171264, Note_on_c, 1, 57, 80
3, 171452, Note_off_c, 1, 65, 100
3, 171452, Note_off_c, 1, 60, 100
3, 171452, Note_off_c, 1, 57, 100
3, 171456, Note_on_c, 1, 65, 80
3, 171456, Note_on_c, 1, 60, 80
3, 171456, Note_on_c, 1, 57, 80
3, 171644, Note_off_c, 1, 65, 100
3, 171644, Note_off_c, 1, 60, 100
3, 171644, Note_off_c, 1, 57, 100
3, 171648, Note_on_c, 1, 65, 80
3, 171648, Note_on_c, 1, 60, 80
3, 171648, Note_on_c, 1, 57, 80
3, 171836, Note_off_c, 1, 65, 100
3, 171836, Note_off_c, 1, 60, 100
3, 171836, Note_off_c, 1, 57, 100
3, 171840, Note_on_c, 1, 65, 80
3, 171840, Note_on_c, 1, 60, 80
3, 171840, Note_on_c, 1, 57, 80
3, 172028, Note_off_c, 1, 65, 100
3, 172028, Note_off_c, 1, 60, 100
3, 172028, Note_off_c, 1, 57, 100
3, 172032, Note_on_c, 1, 65, 80
3, 172032, Note_on_c, 1, 60, 80
3, 172032, Note_on_c, 1, 57, 80
3, 172220, Note_off_c, 1, 65, 100
3, 172220, Note_off_c, 1, 60, 100
3, 172220, Note_off_c, 1, 57, 100
3, 172224, Note_on_c, 1, 65, 80
3, 172224, Note_on_c, 1, 60, 80
3, 172224, Note_on_c, 1, 57, 80
3, 172412, Note_off_c, 1, 65, 100
3, 172412, Note_off_c, 1, 60, 100
3, 172412, Note_off_c, 1, 57, 100
3, 172416, Note_on_c, 1, 65, 80
3, 172416, Note_on_c, 1, 60, 80
3, 172416, Note_on_c, 1, 57, 80
3, 172604, Note_off_c, 1, 65, 100
3, 172604, Note_off_c, 1, 60, 100
3, 172604, Note_off_c, 1, 57, 100
3, 172608, Note_on_c, 1, 65, 80
3, 172608, Note_on_c, 1, 60, 80
3, 172608, Note_on_c, 1, 57, 80
3, 172796, Note_off_c, 1, 65, 100
3, 172796, Note_off_c, 1, 60, 100
3, 172796, Note_off_c, 1, 57, 100
3, 172800, Note_on_c, 1, 65, 80
3, 172800, Note_on_c, 1, 60, 80
3, 172800, Note_on_c, 1, 57, 80
3, 172988, Note_off_c, 1, 65, 100
3, 172988, Note_off_c, 1, 60, 100
3, 172988, Note_off_c, 1, 57, 100
3, 172992, Note_on_c, 1, 65, 80
3, 172992, Note_on_c, 1, 60, 80
3, 172992, Note_on_c, 1, 57, 80
3, 173180, Note_off_c, 1, 65, 100
3, 173180, Note_off_c, 1, 60, 100
3, 173180, Note_off_c, 1, 57, 100
3, 173184, Note_on_c, 1, 65, 80
3, 173184, Note_on_c, 1, 60, 80
3, 173184, Note_on_c, 1, 57, 80
3, 173372, Note_off_c, 1, 65, 100
3, 173372, Note_off_c, 1, 60, 100
3, 173372, Note_off_c, 1, 57, 100
3, 173376, Note_on_c, 1, 65, 80
3, 173376, Note_on_c, 1, 60, 80
3, 173376, Note_on_c, 1, 57, 80
3, 173564, Note_off_c, 1, 65, 100
3, 173564, Note_off_c, 1, 60, 100
3, 173564, Note_off_c, 1, 57, 100
3, 173568, Note_on_c, 1, 53, 80
3, 173756, Note_off_c, 1, 53, 100
3, 173760, Note_on_c, 1, 51, 80
3, 173948, Note_off_c, 1, 51, 100
3, 173952, Note_on_c, 1, 46, 80
3, 173952, Note_on_c, 1, 50, 80
3, 174332, Note_off_c, 1, 50, 100
3, 174336, Note_on_c, 1, 55, 80
3, 174524, Note_off_c, 1, 55, 100
3, 174528, Note_on_c, 1, 53, 80
3, 174908, Note_off_c, 1, 53, 100
3, 174912, Note_on_c, 1, 50, 80
3, 175100, Note_off_c, 1, 46, 100
3, 175100, Note_off_c, 1, 50, 100
3, 175104, Note_on_c, 1, 41, 80
3, 175104, Note_on_c, 1, 48, 80
3, 175484, Note_off_c, 1, 48, 100
3, 175488, Note_on_c, 1, 55, 80
3, 175676, Note_off_c, 1, 55, 100
3, 175680, Note_on_c, 1, 53, 80
3, 176060, Note_off_c, 1, 53, 100
3, 176064, Note_on_c, 1, 48, 80
3, 176252, Note_off_c, 1, 41, 100
3, 176252, Note_off_c, 1, 48, 100
3, 176256, Note_on_c, 1, 46, 80
3, 176256, Note_on_c, 1, 50, 80
3, 176636, Note_off_c, 1, 50, 100
3, 176640, Note_on_c, 1, 55, 80
3, 176828, Note_off_c, 1, 55, 100
3, 176832, Note_on_c, 1, 53, 80
3, 177212, Note_off_c, 1, 53, 100
3, 177216, Note_on_c, 1, 50, 80
3, 177404, Note_off_c, 1, 46, 100
3, 177404, Note_off_c, 1, 50, 100
3, 177408, Note_on_c, 1, 41, 80
3, 177408, Note_on_c, 1, 48, 80
3, 177788, Note_off_c, 1, 48, 100
3, 177792, Note_on_c, 1, 55, 80
3, 177980, Note_off_c, 1, 55, 100
3, 177984, Note_on_c, 1, 53, 80
3, 178364, Note_off_c, 1, 53, 100
3, 178368, Note_on_c, 1, 48, 80
3, 178556, Note_off_c, 1, 41, 100
3, 178556, Note_off_c, 1, 48, 100
3, 178560, Note_on_c, 1, 50, 80
3, 178560, Note_on_c, 1, 46, 80
3, 178748, Note_off_c, 1, 50, 100
3, 178748, Note_off_c, 1, 46, 100
3, 178752, Note_on_c, 1, 58, 80
3, 178752, Note_on_c, 1, 53, 80
3, 178752, Note_on_c, 1, 50, 80
3, 178940, Note_off_c, 1, 58, 100
3, 178940, Note_off_c, 1, 53, 100
3, 178940, Note_off_c, 1, 50, 100
3, 178944, Note_on_c, 1, 58, 80
3, 178944, Note_on_c, 1, 53, 80
3, 178944, Note_on_c, 1, 50, 80
3, 179132, Note_off_c, 1, 58, 100
3, 179132, Note_off_c, 1, 53, 100
3, 179132, Note_off_c, 1, 50, 100
3, 179136, Note_on_c, 1, 58, 80
3, 179136, Note_on_c, 1, 53, 80
3, 179136, Note_on_c, 1, 50, 80
3, 179324, Note_off_c, 1, 58, 100
3, 179324, Note_off_c, 1, 53, 100
3, 179324, Note_off_c, 1, 50, 100
3, 179328, Note_on_c, 1, 58, 80
3, 179328, Note_on_c, 1, 53, 80
3, 179328, Note_on_c, 1, 50, 80
3, 179516, Note_off_c, 1, 58, 100
3, 179516, Note_off_c, 1, 53, 100
3, 179516, Note_off_c, 1, 50, 100
3, 179520, Note_on_c, 1, 58, 80
3, 179520, Note_on_c, 1, 53, 80
3, 179520, Note_on_c, 1, 50, 80
3, 179708, Note_off_c, 1, 58, 100
3, 179708, Note_off_c, 1, 53, 100
3, 179708, Note_off_c, 1, 50, 100
3, 179904, Note_on_c, 1, 58, 80
3, 179904, Note_on_c, 1, 55, 80
3, 179904, Note_on_c, 1, 51, 80
3, 180092, Note_off_c, 1, 58, 100
3, 180092, Note_off_c, 1, 55, 100
3, 180092, Note_off_c, 1, 51, 100
3, 180096, Note_on_c, 1, 58, 80
3, 180096, Note_on_c, 1, 55, 80
3, 180096, Note_on_c, 1, 51, 80
3, 180284, Note_off_c, 1, 58, 100
3, 180284, Note_off_c, 1, 55, 100
3, 180284, Note_off_c, 1, 51, 100
3, 180288, Note_on_c, 1, 58, 80
3, 180288, Note_on_c, 1, 55, 80
3, 180288, Note_on_c, 1, 51, 80
3, 180476, Note_off_c, 1, 58, 100
3, 180476, Note_off_c, 1, 55, 100
3, 180476, Note_off_c, 1, 51, 100
3, 180480, Note_on_c, 1, 58, 80
3, 180480, Note_on_c, 1, 55, 80
3, 180480, Note_on_c, 1, 51, 80
3, 180668, Note_off_c, 1, 58, 100
3, 180668, Note_off_c, 1, 55, 100
3, 180668, Note_off_c, 1, 51, 100
3, 180672, Note_on_c, 1, 60, 80
3, 180672, Note_on_c, 1, 55, 80
3, 180672, Note_on_c, 1, 51, 80
3, 180860, Note_off_c, 1, 60, 100
3, 180860, Note_off_c, 1, 55, 100
3, 180860, Note_off_c, 1, 51, 100
3, 181056, Note_on_c, 1, 62, 80
3, 181056, Note_on_c, 1, 58, 80
3, 181056, Note_on_c, 1, 53, 80
3, 181244, Note_off_c, 1, 62, 100
3, 181244, Note_off_c, 1, 58, 100
3, 181244, Note_off_c, 1, 53, 100
3, 181248, Note_on_c, 1, 62, 80
3, 181248, Note_on_c, 1, 58, 80
3, 181248, Note_on_c, 1, 53, 80
3, 181436, Note_off_c, 1, 62, 100
3, 181436, Note_off_c, 1, 58, 100
3, 181436, Note_off_c, 1, 53, 100
3, 181440, Note_on_c, 1, 62, 80
3, 181440, Note_on_c, 1, 58, 80
3, 181440, Note_on_c, 1, 53, 80
3, 181628, Note_off_c, 1, 62, 100
3, 181628, Note_off_c, 1, 58, 100
3, 181628, Note_off_c, 1, 53, 100
3, 181632, Note_on_c, 1, 62, 80
3, 181632, Note_on_c, 1, 58, 80
3, 181632, Note_on_c, 1, 53, 80
3, 181820, Note_off_c, 1, 62, 100
3, 181820, Note_off_c, 1, 58, 100
3, 181820, Note_off_c, 1, 53, 100
3, 181824, Note_on_c, 1, 62, 80
3, 181824, Note_on_c, 1, 58, 80
3, 181824, Note_on_c, 1, 53, 80
3, 182012, Note_off_c, 1, 62, 100
3, 182012, Note_off_c, 1, 58, 100
3, 182012, Note_off_c, 1, 53, 100
3, 182016, Note_on_c, 1, 62, 80
3, 182016, Note_on_c, 1, 58, 80
3, 182016, Note_on_c, 1, 53, 80
3, 182204, Note_off_c, 1, 62, 100
3, 182204, Note_off_c, 1, 58, 100
3, 182204, Note_off_c, 1, 53, 100
3, 182208, Note_on_c, 1, 62, 80
3, 182208, Note_on_c, 1, 58, 80
3, 182208, Note_on_c, 1, 53, 80
3, 182396, Note_off_c, 1, 62, 100
3, 182396, Note_off_c, 1, 58, 100
3, 182396, Note_off_c, 1, 53, 100
3, 182400, Note_on_c, 1, 62, 80
3, 182400, Note_on_c, 1, 58, 80
3, 182400, Note_on_c, 1, 53, 80
3, 182588, Note_off_c, 1, 62, 100
3, 182588, Note_off_c, 1, 58, 100
3, 182588, Note_off_c, 1, 53, 100
3, 182592, Note_on_c, 1, 63, 80
3, 182592, Note_on_c, 1, 57, 80
3, 182592, Note_on_c, 1, 53, 80
3, 182780, Note_off_c, 1, 63, 100
3, 182780, Note_off_c, 1, 57, 100
3, 182780, Note_off_c, 1, 53, 100
3, 182784, Note_on_c, 1, 63, 80
3, 182784, Note_on_c, 1, 57, 80
3, 182784, Note_on_c, 1, 53, 80
3, 182972, Note_off_c, 1, 63, 100
3, 182972, Note_off_c, 1, 57, 100
3, 182972, Note_off_c, 1, 53, 100
3, 182976, Note_on_c, 1, 63, 80
3, 182976, Note_on_c, 1, 57, 80
3, 182976, Note_on_c, 1, 53, 80
3, 183164, Note_off_c, 1, 63, 100
3, 183164, Note_off_c, 1, 57, 100
3, 183164, Note_off_c, 1, 53, 100
3, 183168, Note_on_c, 1, 58, 80
3, 183168, Note_on_c, 1, 62, 80
3, 183548, Note_off_c, 1, 62, 100
3, 183552, Note_on_c, 1, 67, 80
3, 183740, Note_off_c, 1, 67, 100
3, 183744, Note_on_c, 1, 65, 80
3, 184124, Note_off_c, 1, 65, 100
3, 184128, Note_on_c, 1, 62, 80
3, 184316, Note_off_c, 1, 58, 100
3, 184316, Note_off_c, 1, 62, 100
3, 184320, Note_on_c, 1, 53, 80
3, 184320, Note_on_c, 1, 60, 80
3, 184700, Note_off_c, 1, 60, 100
3, 184704, Note_on_c, 1, 67, 80
3, 184892, Note_off_c, 1, 67, 100
3, 184896, Note_on_c, 1, 65, 80
3, 185276, Note_off_c, 1, 65, 100
3, 185280, Note_on_c, 1, 60, 80
3, 185468, Note_off_c, 1, 53, 100
3, 185468, Note_off_c, 1, 60, 100
3, 185472, Note_on_c, 1, 58, 80
3, 185472, Note_on_c, 1, 62, 80
3, 185852, Note_off_c, 1, 62, 100
3, 185856, Note_on_c, 1, 67, 80
3, 186044, Note_off_c, 1, 67, 100
3, 186048, Note_on_c, 1, 65, 80
3, 186428, Note_off_c, 1, 65, 100
3, 186432, Note_on_c, 1, 62, 80
3, 186620, Note_off_c, 1, 58, 100
3, 186620, Note_off_c, 1, 62, 100
3, 186624, Note_on_c, 1, 53, 80
3, 186624, Note_on_c, 1, 60, 80
3, 187004, Note_off_c, 1, 60, 100
3, 187008, Note_on_c, 1, 67, 80
3, 187196, Note_off_c, 1, 67, 100
3, 187200, Note_on_c, 1, 65, 80
3, 187580, Note_off_c, 1, 65, 100
3, 187584, Note_on_c, 1, 60, 80
3, 187772, Note_off_c, 1, 53, 100
3, 187772, Note_off_c, 1, 60, 100
3, 187776, Note_on_c, 1, 65, 80
3, 187776, Note_on_c, 1, 62, 80
3, 187872, Note_on_c, 1, 67, 80
3, 187964, Note_off_c, 1, 62, 100
3, 187966, Note_off_c, 1, 65, 100
3, 187968, Note_on_c, 1, 69, 80
3, 188062, Note_off_c, 1, 67, 100
3, 188064, Note_on_c, 1, 70, 80
3, 188154, Note_off_c, 1, 69, 100
3, 188160, Note_on_c, 1, 72, 80
3, 188224, Note_on_c, 1, 74, 80
3, 188248, Note_off_c, 1, 70, 100
3, 188282, Note_off_c, 1, 72, 100
3, 188288, Note_on_c, 1, 75, 80
3, 188346, Note_off_c, 1, 74, 100
3, 188352, Note_on_c, 1, 77, 80
3, 188410, Note_off_c, 1, 75, 100
3, 188448, Note_on_c, 1, 75, 80
3, 188532, Note_off_c, 1, 77, 100
3, 188544, Note_on_c, 1, 74, 80
3, 188636, Note_off_c, 1, 75, 100
3, 188640, Note_on_c, 1, 72, 80
3, 188730, Note_off_c, 1, 74, 100
3, 188736, Note_on_c, 1, 70, 80
3, 188824, Note_off_c, 1, 72, 100
3, 188832, Note_on_c, 1, 69, 80
3, 188924, Note_off_c, 1, 69, 100
3, 188926, Note_off_c, 1, 70, 100
3, 188928, Note_on_c, 1, 67, 80
3, 188928, Note_on_c, 1, 63, 80
3, 189024, Note_on_c, 1, 69, 80
3, 189114, Note_off_c, 1, 63, 100
3, 189118, Note_off_c, 1, 67, 100
3, 189120, Note_on_c, 1, 70, 80
3, 189208, Note_off_c, 1, 69, 100
3, 189216, Note_on_c, 1, 72, 80
3, 189304, Note_off_c, 1, 70, 100
3, 189312, Note_on_c, 1, 74, 80
3, 189376, Note_on_c, 1, 75, 80
3, 189402, Note_off_c, 1, 72, 100
3, 189434, Note_off_c, 1, 74, 100
3, 189440, Note_on_c, 1, 77, 80
3, 189498, Note_off_c, 1, 75, 100
3, 189504, Note_on_c, 1, 79, 80
3, 189562, Note_off_c, 1, 77, 100
3, 189600, Note_on_c, 1, 77, 80
3, 189694, Note_off_c, 1, 79, 100
3, 189696, Note_on_c, 1, 75, 80
3, 189760, Note_on_c, 1, 74, 80
3, 189786, Note_off_c, 1, 77, 100
3, 189816, Note_off_c, 1, 75, 100
3, 189824, Note_on_c, 1, 72, 80
3, 189882, Note_off_c, 1, 74, 100
3, 189888, Note_on_c, 1, 70, 80
3, 189946, Note_off_c, 1, 72, 100
3, 189952, Note_on_c, 1, 69, 80
3, 190008, Note_off_c, 1, 70, 100
3, 190016, Note_on_c, 1, 67, 80
3, 190074, Note_off_c, 1, 69, 100
3, 190076, Note_off_c, 1, 67, 100
3, 190080, Note_on_c, 1, 65, 80
3, 190176, Note_on_c, 1, 53, 80
3, 190270, Note_off_c, 1, 65, 100
3, 190272, Note_on_c, 1, 58, 80
3, 190362, Note_off_c, 1, 53, 100
3, 190368, Note_on_c, 1, 62, 80
3, 190460, Note_off_c, 1, 58, 100
3, 190464, Note_on_c, 1, 65, 80
3, 190554, Note_off_c, 1, 62, 100
3, 190560, Note_on_c, 1, 70, 80
3, 190652, Note_off_c, 1, 65, 100
3, 190656, Note_on_c, 1, 74, 80
3, 190744, Note_off_c, 1, 70, 100
3, 190752, Note_on_c, 1, 70, 80
3, 190836, Note_off_c, 1, 74, 100
3, 190848, Note_on_c, 1, 77, 80
3, 190940, Note_off_c, 1, 70, 100
3, 190944, Note_on_c, 1, 74, 80
3, 191032, Note_off_c, 1, 77, 100
3, 191040, Note_on_c, 1, 70, 80
3, 191132, Note_off_c, 1, 74, 100
3, 191136, Note_on_c, 1, 74, 80
3, 191224, Note_off_c, 1, 70, 100
3, 191228, Note_off_c, 1, 74, 100
3, 191232, Note_on_c, 1, 65, 80
3, 191232, Note_on_c, 1, 72, 80
3, 191280, Note_on_c, 1, 74, 80
3, 191326, Note_off_c, 1, 72, 100
3, 191328, Note_on_c, 1, 72, 80
3, 191368, Note_off_c, 1, 74, 100
3, 191376, Note_on_c, 1, 74, 80
3, 191418, Note_off_c, 1, 72, 100
3, 191420, Note_off_c, 1, 65, 100
3, 191424, Note_on_c, 1, 72, 80
3, 191462, Note_off_c, 1, 74, 100
3, 191472, Note_on_c, 1, 74, 80
3, 191518, Note_off_c, 1, 72, 100
3, 191520, Note_on_c, 1, 72, 80
3, 191560, Note_off_c, 1, 74, 100
3, 191568, Note_on_c, 1, 74, 80
3, 191610, Note_off_c, 1, 72, 100
3, 191616, Note_on_c, 1, 72, 80
3, 191654, Note_off_c, 1, 74, 100
3, 191664, Note_on_c, 1, 74, 80
3, 191710, Note_off_c, 1, 72, 100
3, 191712, Note_on_c, 1, 72, 80
3, 191752, Note_off_c, 1, 74, 100
3, 191760, Note_on_c, 1, 74, 80
3, 191802, Note_off_c, 1, 72, 100
3, 191808, Note_on_c, 1, 72, 80
3, 191846, Note_off_c, 1, 74, 100
3, 191856, Note_on_c, 1, 74, 80
3, 191902, Note_off_c, 1, 72, 100
3, 191904, Note_on_c, 1, 72, 80
3, 191944, Note_off_c, 1, 74, 100
3, 191952, Note_on_c, 1, 74, 80
3, 191994, Note_off_c, 1, 72, 100
3, 192000, Note_on_c, 1, 72, 80
3, 192038, Note_off_c, 1, 74, 100
3, 192048, Note_on_c, 1, 74, 80
3, 192094, Note_off_c, 1, 72, 100
3, 192096, Note_on_c, 1, 72, 80
3, 192136, Note_off_c, 1, 74, 100
3, 192144, Note_on_c, 1, 74, 80
3, 192186, Note_off_c, 1, 72, 100
3, 192192, Note_on_c, 1, 72, 80
3, 192230, Note_off_c, 1, 74, 100
3, 192240, Note_on_c, 1, 74, 80
3, 192286, Note_off_c, 1, 72, 100
3, 192288, Note_on_c, 1, 70, 80
3, 192328, Note_off_c, 1, 74, 100
3, 192336, Note_on_c, 1, 72, 80
3, 192378, Note_off_c, 1, 70, 100
3, 192382, Note_off_c, 1, 72, 100
3, 192384, Note_on_c, 1, 65, 90
3, 192480, Note_on_c, 1, 71, 90
3, 192572, Note_off_c, 1, 65, 100
3, 192576, Note_on_c, 1, 72, 90
3, 192666, Note_off_c, 1, 71, 100
3, 192672, Note_on_c, 1, 74, 90
3, 192764, Note_off_c, 1, 72, 100
3, 192768, Note_on_c, 1, 72, 91
3, 192862, Note_off_c, 1, 74, 100
3, 192864, Note_on_c, 1, 71, 91
3, 192948, Note_off_c, 1, 72, 100
3, 192960, Note_on_c, 1, 63, 91
3, 193048, Note_off_c, 1, 71, 100
3, 193056, Note_on_c, 1, 72, 92
3, 193150, Note_off_c, 1, 63, 100
3, 193152, Note_on_c, 1, 74, 92
3, 193246, Note_off_c, 1, 72, 100
3, 193248, Note_on_c, 1, 75, 92
3, 193342, Note_off_c, 1, 74, 100
3, 193344, Note_on_c, 1, 74, 93
3, 193434, Note_off_c, 1, 75, 100
3, 193440, Note_on_c, 1, 72, 93
3, 193532, Note_off_c, 1, 74, 100
3, 193536, Note_on_c, 1, 63, 93
3, 193624, Note_off_c, 1, 72, 100
3, 193632, Note_on_c, 1, 69, 94
3, 193726, Note_off_c, 1, 63, 100
3, 193728, Note_on_c, 1, 70, 94
3, 193818, Note_off_c, 1, 69, 100
3, 193824, Note_on_c, 1, 72, 94
3, 193912, Note_off_c, 1, 70, 100
3, 193920, Note_on_c, 1, 70, 95
3, 194014, Note_off_c, 1, 72, 100
3, 194016, Note_on_c, 1, 69, 95
3, 194106, Note_off_c, 1, 70, 100
3, 194112, Note_on_c, 1, 62, 95
3, 194204, Note_off_c, 1, 69, 100
3, 194208, Note_on_c, 1, 70, 95
3, 194300, Note_off_c, 1, 62, 100
3, 194304, Note_on_c, 1, 72, 96
3, 194398, Note_off_c, 1, 70, 100
3, 194400, Note_on_c, 1, 74, 96
3, 194492, Note_off_c, 1, 72, 100
3, 194496, Note_on_c, 1, 72, 96
3, 194586, Note_off_c, 1, 74, 100
3, 194592, Note_on_c, 1, 70, 97
3, 194680, Note_off_c, 1, 72, 100
3, 194684, Note_off_c, 1, 70, 100
3, 194688, Note_on_c, 1, 53, 97
3, 194784, Note_on_c, 1, 59, 97
3, 194872, Note_off_c, 1, 53, 100
3, 194880, Note_on_c, 1, 60, 98
3, 194974, Note_off_c, 1, 59, 100
3, 194976, Note_on_c, 1, 62, 98
3, 195064, Note_off_c, 1, 60, 100
3, 195072, Note_on_c, 1, 60, 98
3, 195158, Note_off_c, 1, 62, 100
3, 195168, Note_on_c, 1, 59, 99
3, 195262, Note_off_c, 1, 60, 100
3, 195264, Note_on_c, 1, 51, 99
3, 195352, Note_off_c, 1, 59, 100
3, 195360, Note_on_c, 1, 60, 99
3, 195448, Note_off_c, 1, 51, 100
3, 195456, Note_on_c, 1, 62, 100
3, 195546, Note_off_c, 1, 60, 100
3, 195552, Note_on_c, 1, 63, 100
3, 195642, Note_off_c, 1, 62, 100
3, 195648, Note_on_c, 1, 62, 100
3, 195736, Note_off_c, 1, 63, 100
3, 195744, Note_on_c, 1, 60, 101
3, 195832, Note_off_c, 1, 62, 100
3, 195836, Note_off_c, 1, 60, 100
3, 195840, Note_on_c, 1, 51, 101
3, 195936, Note_on_c, 1, 57, 101
3, 196028, Note_off_c, 1, 51, 100
3, 196032, Note_on_c, 1, 58, 101
3, 196120, Note_off_c, 1, 57, 100
3, 196128, Note_on_c, 1, 60, 102
3, 196218, Note_off_c, 1, 58, 100
3, 196224, Note_on_c, 1, 58, 102
3, 196312, Note_off_c, 1, 60, 100
3, 196320, Note_on_c, 1, 57, 102
3, 196414, Note_off_c, 1, 58, 100
3, 196416, Note_on_c, 1, 50, 103
3, 196510, Note_off_c, 1, 57, 100
3, 196512, Note_on_c, 1, 58, 103
3, 196606, Note_off_c, 1, 50, 100
3, 196608, Note_on_c, 1, 60, 103
3, 196700, Note_off_c, 1, 58, 100
3, 196704, Note_on_c, 1, 62, 104
3, 196792, Note_off_c, 1, 60, 100
3, 196800, Note_on_c, 1, 60, 104
3, 196890, Note_off_c, 1, 62, 100
3, 196896, Note_on_c, 1, 58, 104
3, 196988, Note_off_c, 1, 58, 100
3, 196990, Note_off_c, 1, 60, 100
3, 196992, Note_on_c, 1, 50, 105
3, 197088, Note_on_c, 1, 53, 105
3, 197178, Note_off_c, 1, 50, 100
3, 197184, Note_on_c, 1, 58, 105
3, 197278, Note_off_c, 1, 53, 100
3, 197280, Note_on_c, 1, 62, 106
3, 197368, Note_off_c, 1, 58, 100
3, 197376, Note_on_c, 1, 58, 106
3, 197464, Note_off_c, 1, 62, 100
3, 197472, Note_on_c, 1, 53, 106
3, 197566, Note_off_c, 1, 58, 100
3, 197568, Note_on_c, 1, 43, 107
3, 197658, Note_off_c, 1, 53, 100
3, 197664, Note_on_c, 1, 46, 107
3, 197758, Note_off_c, 1, 43, 100
3, 197760, Note_on_c, 1, 50, 107
3, 197852, Note_off_c, 1, 46, 100
3, 197856, Note_on_c, 1, 55, 107
3, 197950, Note_off_c, 1, 50, 100
3, 197952, Note_on_c, 1, 50, 108
3, 198046, Note_off_c, 1, 55, 100
3, 198048, Note_on_c, 1, 46, 108
3, 198138, Note_off_c, 1, 50, 100
3, 198140, Note_off_c, 1, 46, 100
3, 198144, Note_on_c, 1, 39, 108
3, 198240, Note_on_c, 1, 43, 109
3, 198332, Note_off_c, 1, 39, 100
3, 198336, Note_on_c, 1, 48, 109
3, 198430, Note_off_c, 1, 43, 100
3, 198432, Note_on_c, 1, 51, 109
3, 198522, Note_off_c, 1, 48, 100
3, 198528, Note_on_c, 1, 48, 110
3, 198618, Note_off_c, 1, 51, 100
3, 198624, Note_on_c, 1, 43, 110
3, 198714, Note_off_c, 1, 48, 100
3, 198720, Note_on_c, 1, 41, 110
3, 198806, Note_off_c, 1, 43, 100
3, 198816, Note_on_c, 1, 48, 111
3, 198906, Note_off_c, 1, 41, 100
3, 198912, Note_on_c, 1, 51, 111
3, 199006, Note_off_c, 1, 48, 100
3, 199008, Note_on_c, 1, 53, 111
3, 199100, Note_off_c, 1, 51, 100
3, 199104, Note_on_c, 1, 51, 112
3, 199198, Note_off_c, 1, 53, 100
3, 199200, Note_on_c, 1, 48, 112
3, 199292, Note_off_c, 1, 48, 100
3, 199294, Note_off_c, 1, 51, 100
3, 199296, Note_on_c, 1, 38, 112
3, 199392, Note_on_c, 1, 41, 113
3, 199482, Note_off_c, 1, 38, 100
3, 199488, Note_on_c, 1, 46, 113
3, 199576, Note_off_c, 1, 41, 100
3, 199584, Note_on_c, 1, 50, 113
3, 199672, Note_off_c, 1, 46, 100
3, 199680, Note_on_c, 1, 46, 113
3, 199774, Note_off_c, 1, 50, 100
3, 199776, Note_on_c, 1, 41, 114
3, 199864, Note_off_c, 1, 46, 100
3, 199872, Note_on_c, 1, 31, 114
3, 199966, Note_off_c, 1, 41, 100
3, 199968, Note_on_c, 1, 34, 114
3, 200058, Note_off_c, 1, 31, 100
3, 200064, Note_on_c, 1, 38, 115
3, 200158, Note_off_c, 1, 34, 100
3, 200160, Note_on_c, 1, 43, 115
3, 200254, Note_off_c, 1, 38, 100
3, 200256, Note_on_c, 1, 38, 115
3, 200350, Note_off_c, 1, 43, 100
3, 200352, Note_on_c, 1, 34, 116
3, 200444, Note_off_c, 1, 38, 100
3, 200444, Note_off_c, 1, 34, 100
3, 200448, Note_on_c, 1, 27, 116
3, 200544, Note_on_c, 1, 31, 116
3, 200628, Note_off_c, 1, 27, 100
3, 200640, Note_on_c, 1, 36, 117
3, 200728, Note_off_c, 1, 31, 100
3, 200736, Note_on_c, 1, 39, 117
3, 200830, Note_off_c, 1, 36, 100
3, 200832, Note_on_c, 1, 36, 117
3, 200924, Note_off_c, 1, 39, 100
3, 200928, Note_on_c, 1, 31, 118
3, 201022, Note_off_c, 1, 36, 100
3, 201024, Note_on_c, 1, 29, 118
3, 201114, Note_off_c, 1, 31, 100
3, 201120, Note_on_c, 1, 36, 118
3, 201212, Note_off_c, 1, 29, 100
3, 201216, Note_on_c, 1, 39, 119
3, 201310, Note_off_c, 1, 36, 100
3, 201312, Note_on_c, 1, 41, 119
3, 201398, Note_off_c, 1, 39, 100
3, 201408, Note_on_c, 1, 29, 119
3, 201498, Note_off_c, 1, 41, 100
3, 201504, Note_on_c, 1, 41, 119
3, 201592, Note_off_c, 1, 29, 100
3, 201596, Note_off_c, 1, 41, 100
3, 201600, Note_on_c, 1, 34, 120
3, 201788, Note_off_c, 1, 34, 100
3, 201792, Note_on_c, 1, 46, 120
3, 201980, Note_off_c, 1, 46, 100
3, 201984, Note_on_c, 1, 46, 120
3, 201984, Note_on_c, 1, 50, 120
3, 202172, Note_off_c, 1, 46, 100
3, 202172, Note_off_c, 1, 50, 100
3, 202176, Note_on_c, 1, 53, 120
3, 202176, Note_on_c, 1, 50, 120
3, 202176, Note_on_c, 1, 46, 120
3, 202556, Note_off_c, 1, 53, 100
3, 202556, Note_off_c, 1, 50, 100
3, 202556, Note_off_c, 1, 46, 100
3, 202560, Note_on_c, 1, 53, 120
3, 202560, Note_on_c, 1, 48, 120
3, 202560, Note_on_c, 1, 41, 120
3, 202748, Note_off_c, 1, 53, 100
3, 202748, Note_off_c, 1, 48, 100
3, 202748, Note_off_c, 1, 41, 100
3, 202752, Note_on_c, 1, 53, 120
3, 202752, Note_on_c, 1, 50, 120
3, 202752, Note_on_c, 1, 46, 120
3, 202940, Note_off_c, 1, 53, 100
3, 202940, Note_off_c, 1, 50, 100
3, 202940, Note_off_c, 1, 46, 100
3, 202944, Note_on_c, 1, 53, 120
3, 202944, Note_on_c, 1, 50, 120
3, 202944, Note_on_c, 1, 46, 120
3, 203132, Note_off_c, 1, 53, 100
3, 203132, Note_off_c, 1, 50, 100
3, 203132, Note_off_c, 1, 46, 100
3, 203136, Note_on_c, 1, 53, 120
3, 203136, Note_on_c, 1, 50, 120
3, 203136, Note_on_c, 1, 46, 120
3, 203324, Note_off_c, 1, 53, 100
3, 203324, Note_off_c, 1, 50, 100
3, 203324, Note_off_c, 1, 46, 100
3, 203328, Note_on_c, 1, 53, 120
3, 203328, Note_on_c, 1, 50, 120
3, 203328, Note_on_c, 1, 46, 120
3, 203708, Note_off_c, 1, 53, 100
3, 203708, Note_off_c, 1, 50, 100
3, 203708, Note_off_c, 1, 46, 100
3, 203712, Note_on_c, 1, 53, 120
3, 203712, Note_on_c, 1, 48, 120
3, 203712, Note_on_c, 1, 41, 120
3, 203900, Note_off_c, 1, 53, 100
3, 203900, Note_off_c, 1, 48, 100
3, 203900, Note_off_c, 1, 41, 100
3, 203904, Note_on_c, 1, 53, 120
3, 203904, Note_on_c, 1, 50, 120
3, 203904, Note_on_c, 1, 46, 120
3, 204092, Note_off_c, 1, 53, 100
3, 204092, Note_off_c, 1, 50, 100
3, 204092, Note_off_c, 1, 46, 100
3, 204096, Note_on_c, 1, 53, 120
3, 204096, Note_on_c, 1, 50, 120
3, 204096, Note_on_c, 1, 46, 120
3, 204284, Note_off_c, 1, 53, 100
3, 204284, Note_off_c, 1, 50, 100
3, 204284, Note_off_c, 1, 46, 100
3, 204288, Note_on_c, 1, 53, 120
3, 204288, Note_on_c, 1, 50, 120
3, 204288, Note_on_c, 1, 46, 120
3, 204476, Note_off_c, 1, 53, 100
3, 204476, Note_off_c, 1, 50, 100
3, 204476, Note_off_c, 1, 46, 100
3, 204480, Note_on_c, 1, 53, 120
3, 204480, Note_on_c, 1, 50, 120
3, 204480, Note_on_c, 1, 46, 120
3, 204860, Note_off_c, 1, 53, 100
3, 204860, Note_off_c, 1, 50, 100
3, 204860, Note_off_c, 1, 46, 100
3, 204864, Note_on_c, 1, 53, 120
3, 204864, Note_on_c, 1, 48, 120
3, 204864, Note_on_c, 1, 41, 120
3, 205052, Note_off_c, 1, 53, 100
3, 205052, Note_off_c, 1, 48, 100
3, 205052, Note_off_c, 1, 41, 100
3, 205056, Note_on_c, 1, 58, 120
3, 205056, Note_on_c, 1, 53, 120
3, 205056, Note_on_c, 1, 50, 120
3, 205056, Note_on_c, 1, 46, 120
3, 205436, Note_off_c, 1, 58, 100
3, 205436, Note_off_c, 1, 53, 100
3, 205436, Note_off_c, 1, 50, 100
3, 205436, Note_off_c, 1, 46, 100
3, 205632, Note_on_c, 1, 58, 120
3, 205632, Note_on_c, 1, 53, 120
3, 205632, Note_on_c, 1, 50, 120
3, 205632, Note_on_c, 1, 46, 120
3, 206012, Note_off_c, 1, 58, 100
3, 206012, Note_off_c, 1, 53, 100
3, 206012, Note_off_c, 1, 50, 100
3, 206012, Note_off_c, 1, 46, 100
3, 206208, Note_on_c, 1, 58, 120
3, 206208, Note_on_c, 1, 53, 120
3, 206208, Note_on_c, 1, 50, 120
3, 206208, Note_on_c, 1, 46, 120
3, 206588, Note_off_c, 1, 58, 100
3, 206588, Note_off_c, 1, 53, 100
3, 206588, Note_off_c, 1, 50, 100
3, 206588, Note_off_c, 1, 46, 100
3, 207552, Note_on_c, 1, 66, 80
3, 207740, Note_off_c, 1, 66, 100
3, 207744, Note_on_c, 1, 63, 80
3, 207932, Note_off_c, 1, 63, 100
3, 208128, Note_on_c, 1, 54, 80
3, 208316, Note_off_c, 1, 54, 100
3, 208320, Note_on_c, 1, 51, 80
3, 208508, Note_off_c, 1, 51, 100
3, 208704, Note_on_c, 1, 42, 80
3, 208892, Note_off_c, 1, 42, 100
3, 208896, Note_on_c, 1, 39, 80
3, 209084, Note_off_c, 1, 39, 100
3, 209856, Note_on_c, 1, 66, 80
3, 209856, Note_on_c, 1, 63, 80
3, 210044, Note_off_c, 1, 66, 100
3, 210044, Note_off_c, 1, 63, 100
3, 210048, Note_on_c, 1, 66, 80
3, 210048, Note_on_c, 1, 63, 80
3, 210236, Note_off_c, 1, 66, 100
3, 210236, Note_off_c, 1, 63, 100
3, 210240, Note_on_c, 1, 66, 80
3, 210240, Note_on_c, 1, 63, 80
3, 210428, Note_off_c, 1, 66, 100
3, 210428, Note_off_c, 1, 63, 100
3, 210432, Note_on_c, 1, 66, 80
3, 210432, Note_on_c, 1, 63, 80
3, 210620, Note_off_c, 1, 66, 100
3, 210620, Note_off_c, 1, 63, 100
3, 210624, Note_on_c, 1, 66, 80
3, 210624, Note_on_c, 1, 63, 80
3, 210812, Note_off_c, 1, 66, 100
3, 210812, Note_off_c, 1, 63, 100
3, 210816, Note_on_c, 1, 68, 80
3, 210816, Note_on_c, 1, 66, 80
3, 210816, Note_on_c, 1, 63, 80
3, 211004, Note_off_c, 1, 68, 100
3, 211004, Note_off_c, 1, 66, 100
3, 211004, Note_off_c, 1, 63, 100
3, 211008, Note_on_c, 1, 68, 80
3, 211008, Note_on_c, 1, 66, 80
3, 211008, Note_on_c, 1, 63, 80
3, 211196, Note_off_c, 1, 68, 100
3, 211196, Note_off_c, 1, 66, 100
3, 211196, Note_off_c, 1, 63, 100
3, 211200, Note_on_c, 1, 68, 80
3, 211200, Note_on_c, 1, 66, 80
3, 211200, Note_on_c, 1, 63, 80
3, 211388, Note_off_c, 1, 68, 100
3, 211388, Note_off_c, 1, 66, 100
3, 211388, Note_off_c, 1, 63, 100
3, 211392, Note_on_c, 1, 68, 80
3, 211392, Note_on_c, 1, 61, 80
3, 211392, Note_on_c, 1, 65, 80
3, 211580, Note_off_c, 1, 68, 100
3, 211580, Note_off_c, 1, 61, 100
3, 211580, Note_off_c, 1, 65, 100
3, 211584, Note_on_c, 1, 68, 80
3, 211584, Note_on_c, 1, 61, 80
3, 211584, Note_on_c, 1, 65, 80
3, 211772, Note_off_c, 1, 68, 100
3, 211772, Note_off_c, 1, 61, 100
3, 211772, Note_off_c, 1, 65, 100
3, 211776, Note_on_c, 1, 68, 80
3, 211776, Note_on_c, 1, 61, 80
3, 211776, Note_on_c, 1, 65, 80
3, 211964, Note_off_c, 1, 68, 100
3, 211964, Note_off_c, 1, 61, 100
3, 211964, Note_off_c, 1, 65, 100
3, 212160, Note_on_c, 1, 70, 80
3, 212348, Note_off_c, 1, 70, 100
3, 212352, Note_on_c, 1, 66, 80
3, 212540, Note_off_c, 1, 66, 100
3, 212736, Note_on_c, 1, 58, 80
3, 212924, Note_off_c, 1, 58, 100
3, 212928, Note_on_c, 1, 54, 80
3, 213116, Note_off_c, 1, 54, 100
3, 213312, Note_on_c, 1, 46, 80
3, 213500, Note_off_c, 1, 46, 100
3, 213504, Note_on_c, 1, 42, 80
3, 213692, Note_off_c, 1, 42, 100
3, 214464, Note_on_c, 1, 69, 80
3, 214464, Note_on_c, 1, 66, 80
3, 214652, Note_off_c, 1, 69, 100
3, 214652, Note_off_c, 1, 66, 100
3, 214656, Note_on_c, 1, 69, 80
3, 214656, Note_on_c, 1, 66, 80
3, 214844, Note_off_c, 1, 69, 100
3, 214844, Note_off_c, 1, 66, 100
3, 214848, Note_on_c, 1, 71, 80
3, 214848, Note_on_c, 1, 66, 80
3, 215036, Note_off_c, 1, 71, 100
3, 215036, Note_off_c, 1, 66, 100
3, 215040, Note_on_c, 1, 71, 80
3, 215040, Note_on_c, 1, 66, 80
3, 215228, Note_off_c, 1, 71, 100
3, 215228, Note_off_c, 1, 66, 100
3, 215232, Note_on_c, 1, 71, 80
3, 215232, Note_on_c, 1, 66, 80
3, 215420, Note_off_c, 1, 71, 100
3, 215420, Note_off_c, 1, 66, 100
3, 215424, Note_on_c, 1, 72, 80
3, 215424, Note_on_c, 1, 66, 80
3, 215612, Note_off_c, 1, 72, 100
3, 215612, Note_off_c, 1, 66, 100
3, 215616, Note_on_c, 1, 72, 80
3, 215616, Note_on_c, 1, 66, 80
3, 215804, Note_off_c, 1, 72, 100
3, 215804, Note_off_c, 1, 66, 100
3, 215808, Note_on_c, 1, 72, 80
3, 215808, Note_on_c, 1, 66, 80
3, 215996, Note_off_c, 1, 72, 100
3, 215996, Note_off_c, 1, 66, 100
3, 216000, Note_on_c, 1, 73, 80
3, 216000, Note_on_c, 1, 66, 80
3, 216188, Note_off_c, 1, 73, 100
3, 216188, Note_off_c, 1, 66, 100
3, 216192, Note_on_c, 1, 73, 80
3, 216192, Note_on_c, 1, 66, 80
3, 216380, Note_off_c, 1, 73, 100
3, 216380, Note_off_c, 1, 66, 100
3, 216384, Note_on_c, 1, 73, 80
3, 216384, Note_on_c, 1, 66, 80
3, 216572, Note_off_c, 1, 73, 100
3, 216572, Note_off_c, 1, 66, 100
3, 216576, Note_on_c, 1, 73, 80
3, 216576, Note_on_c, 1, 66, 80
3, 216764, Note_off_c, 1, 73, 100
3, 216764, Note_off_c, 1, 66, 100
3, 216768, Note_on_c, 1, 73, 80
3, 216768, Note_on_c, 1, 66, 80
3, 216956, Note_off_c, 1, 73, 100
3, 216956, Note_off_c, 1, 66, 100
3, 216960, Note_on_c, 1, 73, 80
3, 216960, Note_on_c, 1, 66, 80
3, 217148, Note_off_c, 1, 73, 100
3, 217148, Note_off_c, 1, 66, 100
3, 217152, Note_on_c, 1, 75, 80
3, 217152, Note_on_c, 1, 66, 80
3, 217340, Note_off_c, 1, 75, 100
3, 217340, Note_off_c, 1, 66, 100
3, 217344, Note_on_c, 1, 75, 80
3, 217344, Note_on_c, 1, 66, 80
3, 217532, Note_off_c, 1, 75, 100
3, 217532, Note_off_c, 1, 66, 100
3, 217536, Note_on_c, 1, 75, 80
3, 217536, Note_on_c, 1, 66, 80
3, 217724, Note_off_c, 1, 75, 100
3, 217724, Note_off_c, 1, 66, 100
3, 217728, Note_on_c, 1, 76, 80
3, 217728, Note_on_c, 1, 66, 80
3, 217916, Note_off_c, 1, 76, 100
3, 217916, Note_off_c, 1, 66, 100
3, 217920, Note_on_c, 1, 76, 80
3, 217920, Note_on_c, 1, 66, 80
3, 218108, Note_off_c, 1, 76, 100
3, 218108, Note_off_c, 1, 66, 100
3, 218112, Note_on_c, 1, 76, 80
3, 218112, Note_on_c, 1, 66, 80
3, 218300, Note_off_c, 1, 76, 100
3, 218300, Note_off_c, 1, 66, 100
3, 218304, Note_on_c, 1, 76, 80
3, 218304, Note_on_c, 1, 66, 80
3, 218492, Note_off_c, 1, 76, 100
3, 218492, Note_off_c, 1, 66, 100
3, 218496, Note_on_c, 1, 76, 80
3, 218496, Note_on_c, 1, 66, 80
3, 218684, Note_off_c, 1, 76, 100
3, 218684, Note_off_c, 1, 66, 100
3, 218688, Note_on_c, 1, 76, 80
3, 218688, Note_on_c, 1, 66, 80
3, 218876, Note_off_c, 1, 76, 100
3, 218876, Note_off_c, 1, 66, 100
3, 218880, Note_on_c, 1, 76, 80
3, 218880, Note_on_c, 1, 66, 80
3, 219068, Note_off_c, 1, 76, 100
3, 219068, Note_off_c, 1, 66, 100
3, 219072, Note_on_c, 1, 76, 80
3, 219072, Note_on_c, 1, 66, 80
3, 219260, Note_off_c, 1, 76, 100
3, 219260, Note_off_c, 1, 66, 100
3, 219264, Note_on_c, 1, 76, 80
3, 219264, Note_on_c, 1, 66, 80
3, 219452, Note_off_c, 1, 76, 100
3, 219452, Note_off_c, 1, 66, 100
3, 219456, Note_on_c, 1, 75, 80
3, 219456, Note_on_c, 1, 66, 80
3, 219644, Note_off_c, 1, 75, 100
3, 219644, Note_off_c, 1, 66, 100
3, 219648, Note_on_c, 1, 75, 80
3, 219648, Note_on_c, 1, 66, 80
3, 219836, Note_off_c, 1, 75, 100
3, 219836, Note_off_c, 1, 66, 100
3, 219840, Note_on_c, 1, 75, 80
3, 219840, Note_on_c, 1, 66, 80
3, 220028, Note_off_c, 1, 75, 100
3, 220028, Note_off_c, 1, 66, 100
3, 220032, Note_on_c, 1, 73, 80
3, 220032, Note_on_c, 1, 66, 80
3, 220220, Note_off_c, 1, 73, 100
3, 220220, Note_off_c, 1, 66, 100
3, 220224, Note_on_c, 1, 73, 80
3, 220224, Note_on_c, 1, 66, 80
3, 220412, Note_off_c, 1, 73, 100
3, 220412, Note_off_c, 1, 66, 100
3, 220416, Note_on_c, 1, 73, 80
3, 220416, Note_on_c, 1, 66, 80
3, 220604, Note_off_c, 1, 73, 100
3, 220604, Note_off_c, 1, 66, 100
3, 220608, Note_on_c, 1, 70, 80
3, 220608, Note_on_c, 1, 66, 80
3, 220608, Note_on_c, 1, 64, 80
3, 220796, Note_off_c, 1, 70, 100
3, 220796, Note_off_c, 1, 66, 100
3, 220796, Note_off_c, 1, 64, 100
3, 220800, Note_on_c, 1, 70, 80
3, 220800, Note_on_c, 1, 66, 80
3, 220800, Note_on_c, 1, 64, 80
3, 220988, Note_off_c, 1, 70, 100
3, 220988, Note_off_c, 1, 66, 100
3, 220988, Note_off_c, 1, 64, 100
3, 220992, Note_on_c, 1, 70, 80
3, 220992, Note_on_c, 1, 66, 80
3, 220992, Note_on_c, 1, 64, 80
3, 221180, Note_off_c, 1, 70, 100
3, 221180, Note_off_c, 1, 66, 100
3, 221180, Note_off_c, 1, 64, 100
3, 221184, Note_on_c, 1, 63, 91
3, 221184, Note_on_c, 1, 66, 80
3, 221280, Note_on_c, 1, 68, 80
3, 221370, Note_off_c, 1, 66, 100
3, 221376, Note_on_c, 1, 66, 80
3, 221470, Note_off_c, 1, 68, 100
3, 221472, Note_on_c, 1, 68, 80
3, 221566, Note_off_c, 1, 66, 100
3, 221568, Note_on_c, 1, 66, 80
3, 221662, Note_off_c, 1, 68, 100
3, 221664, Note_on_c, 1, 68, 80
3, 221754, Note_off_c, 1, 66, 100
3, 221756, Note_off_c, 1, 63, 100
3, 221760, Note_on_c, 1, 59, 92
3, 221760, Note_on_c, 1, 66, 80
3, 221852, Note_off_c, 1, 68, 100
3, 221856, Note_on_c, 1, 68, 80
3, 221950, Note_off_c, 1, 66, 100
3, 221952, Note_on_c, 1, 66, 80
3, 222042, Note_off_c, 1, 68, 100
3, 222048, Note_on_c, 1, 68, 80
3, 222142, Note_off_c, 1, 66, 100
3, 222144, Note_on_c, 1, 66, 80
3, 222230, Note_off_c, 1, 68, 100
3, 222240, Note_on_c, 1, 68, 80
3, 222330, Note_off_c, 1, 66, 100
3, 222332, Note_off_c, 1, 59, 100
3, 222332, Note_off_c, 1, 68, 100
3, 222336, Note_on_c, 1, 66, 80
3, 222336, Note_on_c, 1, 58, 95
3, 222432, Note_on_c, 1, 68, 80
3, 222522, Note_off_c, 1, 66, 100
3, 222528, Note_on_c, 1, 66, 80
3, 222622, Note_off_c, 1, 68, 100
3, 222624, Note_on_c, 1, 68, 80
3, 222718, Note_off_c, 1, 66, 100
3, 222720, Note_on_c, 1, 66, 80
3, 222814, Note_off_c, 1, 68, 100
3, 222816, Note_on_c, 1, 68, 80
3, 222906, Note_off_c, 1, 66, 100
3, 222908, Note_off_c, 1, 58, 100
3, 222912, Note_on_c, 1, 66, 80
3, 222912, Note_on_c, 1, 64, 95
3, 223004, Note_off_c, 1, 68, 100
3, 223008, Note_on_c, 1, 68, 80
3, 223102, Note_off_c, 1, 66, 100
3, 223104, Note_on_c, 1, 66, 80
3, 223194, Note_off_c, 1, 68, 100
3, 223200, Note_on_c, 1, 68, 80
3, 223294, Note_off_c, 1, 66, 100
3, 223296, Note_on_c, 1, 66, 80
3, 223382, Note_off_c, 1, 68, 100
3, 223392, Note_on_c, 1, 68, 80
3, 223482, Note_off_c, 1, 66, 100
3, 223484, Note_off_c, 1, 64, 100
3, 223484, Note_off_c, 1, 68, 100
3, 223488, Note_on_c, 1, 59, 80
3, 223488, Note_on_c, 1, 63, 80
3, 223868, Note_off_c, 1, 63, 100
3, 223872, Note_on_c, 1, 68, 80
3, 224060, Note_off_c, 1, 68, 100
3, 224064, Note_on_c, 1, 66, 80
3, 224444, Note_off_c, 1, 66, 100
3, 224448, Note_on_c, 1, 63, 80
3, 224636, Note_off_c, 1, 59, 100
3, 224636, Note_off_c, 1, 63, 100
3, 224640, Note_on_c, 1, 54, 80
3, 224640, Note_on_c, 1, 61, 80
3, 225020, Note_off_c, 1, 61, 100
3, 225024, Note_on_c, 1, 68, 80
3, 225212, Note_off_c, 1, 54, 100
3, 225212, Note_off_c, 1, 68, 100
3, 225216, Note_on_c, 1, 52, 80
3, 225216, Note_on_c, 1, 66, 80
3, 225596, Note_off_c, 1, 66, 100
3, 225600, Note_on_c, 1, 61, 80
3, 225788, Note_off_c, 1, 52, 100
3, 225788, Note_off_c, 1, 61, 100
3, 225792, Note_on_c, 1, 51, 80
3, 225888, Note_on_c, 1, 59, 80
3, 225974, Note_off_c, 1, 51, 100
3, 225984, Note_on_c, 1, 51, 80
3, 226072, Note_off_c, 1, 59, 100
3, 226080, Note_on_c, 1, 59, 80
3, 226166, Note_off_c, 1, 51, 100
3, 226176, Note_on_c, 1, 51, 80
3, 226270, Note_off_c, 1, 59, 100
3, 226272, Note_on_c, 1, 59, 80
3, 226362, Note_off_c, 1, 51, 100
3, 226368, Note_on_c, 1, 50, 80
3, 226458, Note_off_c, 1, 59, 100
3, 226464, Note_on_c, 1, 60, 80
3, 226554, Note_off_c, 1, 50, 100
3, 226560, Note_on_c, 1, 50, 80
3, 226654, Note_off_c, 1, 60, 100
3, 226656, Note_on_c, 1, 60, 80
3, 226748, Note_off_c, 1, 50, 100
3, 226752, Note_on_c, 1, 50, 80
3, 226842, Note_off_c, 1, 60, 100
3, 226848, Note_on_c, 1, 60, 80
3, 226936, Note_off_c, 1, 50, 100
3, 226944, Note_on_c, 1, 48, 80
3, 227036, Note_off_c, 1, 60, 100
3, 227040, Note_on_c, 1, 57, 80
3, 227126, Note_off_c, 1, 48, 100
3, 227136, Note_on_c, 1, 48, 80
3, 227230, Note_off_c, 1, 57, 100
3, 227232, Note_on_c, 1, 57, 80
3, 227326, Note_off_c, 1, 48, 100
3, 227328, Note_on_c, 1, 48, 80
3, 227416, Note_off_c, 1, 57, 100
3, 227424, Note_on_c, 1, 57, 80
3, 227510, Note_off_c, 1, 48, 100
3, 227520, Note_on_c, 1, 47, 80
3, 227610, Note_off_c, 1, 57, 100
3, 227616, Note_on_c, 1, 55, 80
3, 227704, Note_off_c, 1, 47, 100
3, 227712, Note_on_c, 1, 47, 80
3, 227806, Note_off_c, 1, 55, 100
3, 227808, Note_on_c, 1, 55, 80
3, 227902, Note_off_c, 1, 47, 100
3, 227904, Note_on_c, 1, 45, 80
3, 227996, Note_off_c, 1, 55, 100
3, 228000, Note_on_c, 1, 54, 80
3, 228090, Note_off_c, 1, 45, 100
3, 228092, Note_off_c, 1, 54, 100
3, 228096, Note_on_c, 1, 55, 80
3, 228096, Note_on_c, 1, 43, 80
3, 228284, Note_off_c, 1, 55, 100
3, 228284, Note_off_c, 1, 43, 100
3, 228288, Note_on_c, 1, 59, 80
3, 228288, Note_on_c, 1, 55, 80
3, 228384, Note_on_c, 1, 62, 80
3, 228478, Note_off_c, 1, 59, 100
3, 228478, Note_off_c, 1, 55, 100
3, 228480, Note_on_c, 1, 59, 80
3, 228480, Note_on_c, 1, 55, 80
3, 228574, Note_off_c, 1, 62, 100
3, 228576, Note_on_c, 1, 62, 80
3, 228670, Note_off_c, 1, 59, 100
3, 228670, Note_off_c, 1, 55, 100
3, 228672, Note_on_c, 1, 59, 80
3, 228672, Note_on_c, 1, 55, 80
3, 228766, Note_off_c, 1, 62, 100
3, 228768, Note_on_c, 1, 62, 80
3, 228862, Note_off_c, 1, 59, 100
3, 228862, Note_off_c, 1, 55, 100
3, 228864, Note_on_c, 1, 59, 80
3, 228864, Note_on_c, 1, 55, 80
3, 228958, Note_off_c, 1, 62, 100
3, 228960, Note_on_c, 1, 62, 80
3, 229054, Note_off_c, 1, 59, 100
3, 229054, Note_off_c, 1, 55, 100
3, 229056, Note_on_c, 1, 59, 80
3, 229056, Note_on_c, 1, 55, 80
3, 229150, Note_off_c, 1, 62, 100
3, 229152, Note_on_c, 1, 62, 80
3, 229246, Note_off_c, 1, 59, 100
3, 229246, Note_off_c, 1, 55, 100
3, 229248, Note_on_c, 1, 60, 80
3, 229248, Note_on_c, 1, 54, 80
3, 229342, Note_off_c, 1, 62, 100
3, 229344, Note_on_c, 1, 62, 80
3, 229436, Note_off_c, 1, 54, 100
3, 229438, Note_off_c, 1, 60, 100
3, 229440, Note_on_c, 1, 60, 80
3, 229440, Note_on_c, 1, 54, 80
3, 229534, Note_off_c, 1, 62, 100
3, 229536, Note_on_c, 1, 62, 80
3, 229622, Note_off_c, 1, 60, 100
3, 229626, Note_off_c, 1, 54, 100
3, 229632, Note_on_c, 1, 60, 80
3, 229632, Note_on_c, 1, 54, 80
3, 229720, Note_off_c, 1, 62, 100
3, 229728, Note_on_c, 1, 62, 80
3, 229820, Note_off_c, 1, 54, 100
3, 229822, Note_off_c, 1, 60, 100
3, 229824, Note_on_c, 1, 60, 80
3, 229824, Note_on_c, 1, 54, 80
3, 229918, Note_off_c, 1, 62, 100
3, 229920, Note_on_c, 1, 62, 80
3, 230006, Note_off_c, 1, 60, 100
3, 230010, Note_off_c, 1, 54, 100
3, 230016, Note_on_c, 1, 60, 80
3, 230016, Note_on_c, 1, 54, 80
3, 230104, Note_off_c, 1, 62, 100
3, 230112, Note_on_c, 1, 62, 80
3, 230204, Note_off_c, 1, 54, 100
3, 230206, Note_off_c, 1, 60, 100
3, 230208, Note_on_c, 1, 60, 80
3, 230208, Note_on_c, 1, 54, 80
3, 230302, Note_off_c, 1, 62, 100
3, 230304, Note_on_c, 1, 62, 80
3, 230390, Note_off_c, 1, 60, 100
3, 230394, Note_off_c, 1, 54, 100
3, 230396, Note_off_c, 1, 62, 100
3, 230400, Note_on_c, 1, 55, 80
3, 230400, Note_on_c, 1, 59, 80
3, 230780, Note_off_c, 1, 59, 100
3, 230784, Note_on_c, 1, 64, 80
3, 230972, Note_off_c, 1, 64, 100
3, 230976, Note_on_c, 1, 62, 80
3, 231356, Note_off_c, 1, 62, 100
3, 231360, Note_on_c, 1, 59, 80
3, 231548, Note_off_c, 1, 55, 100
3, 231548, Note_off_c, 1, 59, 100
3, 231552, Note_on_c, 1, 50, 80
3, 231552, Note_on_c, 1, 57, 80
3, 231932, Note_off_c, 1, 57, 100
3, 231936, Note_on_c, 1, 64, 80
3, 232124, Note_off_c, 1, 64, 100
3, 232128, Note_on_c, 1, 62, 80
3, 232508, Note_off_c, 1, 62, 100
3, 232512, Note_on_c, 1, 57, 80
3, 232700, Note_off_c, 1, 50, 100
3, 232700, Note_off_c, 1, 57, 100
3, 232704, Note_on_c, 1, 62, 80
3, 232704, Note_on_c, 1, 59, 80
3, 232704, Note_on_c, 1, 55, 80
3, 233084, Note_off_c, 1, 62, 100
3, 233084, Note_off_c, 1, 59, 100
3, 233084, Note_off_c, 1, 55, 100
3, 233664, Note_on_c, 1, 62, 80
3, 233852, Note_off_c, 1, 62, 100
3, 233856, Note_on_c, 1, 62, 80
3, 234044, Note_off_c, 1, 62, 100
3, 234048, Note_on_c, 1, 59, 80
3, 234236, Note_off_c, 1, 59, 100
3, 234240, Note_on_c, 1, 55, 80
3, 234428, Note_off_c, 1, 55, 100
3, 234432, Note_on_c, 1, 53, 80
3, 234620, Note_off_c, 1, 53, 100
3, 234624, Note_on_c, 1, 50, 80
3, 234812, Note_off_c, 1, 50, 100
3, 234816, Note_on_c, 1, 47, 80
3, 235004, Note_off_c, 1, 47, 100
3, 235008, Note_on_c, 1, 48, 80
3, 235388, Note_off_c, 1, 48, 100
3, 235392, Note_on_c, 1, 67, 80
3, 235580, Note_off_c, 1, 67, 100
3, 235584, Note_on_c, 1, 67, 80
3, 235772, Note_off_c, 1, 67, 100
3, 235776, Note_on_c, 1, 64, 80
3, 235964, Note_off_c, 1, 64, 100
3, 235968, Note_on_c, 1, 60, 80
3, 235968, Note_on_c, 1, 55, 80
3, 236156, Note_off_c, 1, 60, 100
3, 236156, Note_off_c, 1, 55, 100
3, 236160, Note_on_c, 1, 55, 80
3, 236348, Note_off_c, 1, 55, 100
3, 236352, Note_on_c, 1, 52, 80
3, 236540, Note_off_c, 1, 52, 100
3, 236544, Note_on_c, 1, 48, 80
3, 236732, Note_off_c, 1, 48, 100
3, 236736, Note_on_c, 1, 43, 80
3, 236924, Note_off_c, 1, 43, 100
3, 236928, Note_on_c, 1, 36, 80
3, 237116, Note_off_c, 1, 36, 100
3, 237120, Note_on_c, 1, 48, 80
3, 237308, Note_off_c, 1, 48, 100
3, 237312, Note_on_c, 1, 48, 80
3, 237408, Note_on_c, 1, 51, 80
3, 237502, Note_off_c, 1, 48, 100
3, 237504, Note_on_c, 1, 56, 81
3, 237596, Note_off_c, 1, 51, 100
3, 237600, Note_on_c, 1, 51, 81
3, 237694, Note_off_c, 1, 56, 100
3, 237696, Note_on_c, 1, 56, 82
3, 237786, Note_off_c, 1, 51, 100
3, 237792, Note_on_c, 1, 51, 83
3, 237884, Note_off_c, 1, 56, 100
3, 237888, Note_on_c, 1, 49, 83
3, 237980, Note_off_c, 1, 51, 100
3, 237984, Note_on_c, 1, 51, 84
3, 238072, Note_off_c, 1, 49, 100
3, 238080, Note_on_c, 1, 55, 85
3, 238174, Note_off_c, 1, 51, 100
3, 238176, Note_on_c, 1, 58, 85
3, 238268, Note_off_c, 1, 55, 100
3, 238272, Note_on_c, 1, 61, 86
3, 238364, Note_off_c, 1, 58, 100
3, 238368, Note_on_c, 1, 55, 87
3, 238454, Note_off_c, 1, 61, 100
3, 238464, Note_on_c, 1, 56, 87
3, 238556, Note_off_c, 1, 55, 100
3, 238560, Note_on_c, 1, 60, 88
3, 238648, Note_off_c, 1, 56, 100
3, 238656, Note_on_c, 1, 63, 89
3, 238742, Note_off_c, 1, 60, 100
3, 238752, Note_on_c, 1, 60, 89
3, 238842, Note_off_c, 1, 63, 100
3, 238848, Note_on_c, 1, 63, 90
3, 238940, Note_off_c, 1, 60, 100
3, 238944, Note_on_c, 1, 60, 91
3, 239038, Note_off_c, 1, 63, 100
3, 239040, Note_on_c, 1, 55, 91
3, 239128, Note_off_c, 1, 60, 100
3, 239136, Note_on_c, 1, 58, 92
3, 239224, Note_off_c, 1, 55, 100
3, 239232, Note_on_c, 1, 63, 93
3, 239326, Note_off_c, 1, 58, 100
3, 239328, Note_on_c, 1, 58, 93
3, 239422, Note_off_c, 1, 63, 100
3, 239424, Note_on_c, 1, 55, 94
3, 239518, Note_off_c, 1, 58, 100
3, 239520, Note_on_c, 1, 58, 94
3, 239610, Note_off_c, 1, 55, 100
3, 239612, Note_off_c, 1, 58, 100
3, 239616, Note_on_c, 1, 51, 80
3, 239712, Note_on_c, 1, 55, 80
3, 239800, Note_off_c, 1, 51, 100
3, 239808, Note_on_c, 1, 58, 80
3, 239896, Note_off_c, 1, 55, 100
3, 239904, Note_on_c, 1, 55, 80
3, 239990, Note_off_c, 1, 58, 100
3, 240000, Note_on_c, 1, 58, 80
3, 240086, Note_off_c, 1, 55, 100
3, 240096, Note_on_c, 1, 55, 80
3, 240182, Note_off_c, 1, 58, 100
3, 240192, Note_on_c, 1, 46, 80
3, 240278, Note_off_c, 1, 55, 100
3, 240288, Note_on_c, 1, 56, 80
3, 240382, Note_off_c, 1, 46, 100
3, 240384, Note_on_c, 1, 58, 80
3, 240478, Note_off_c, 1, 56, 100
3, 240480, Note_on_c, 1, 56, 80
3, 240570, Note_off_c, 1, 58, 100
3, 240576, Note_on_c, 1, 58, 80
3, 240668, Note_off_c, 1, 56, 100
3, 240672, Note_on_c, 1, 56, 80
3, 240762, Note_off_c, 1, 58, 100
3, 240768, Note_on_c, 1, 51, 80
3, 240862, Note_off_c, 1, 56, 100
3, 240864, Note_on_c, 1, 55, 80
3, 240948, Note_off_c, 1, 51, 100
3, 240960, Note_on_c, 1, 58, 80
3, 241050, Note_off_c, 1, 55, 100
3, 241056, Note_on_c, 1, 55, 80
3, 241146, Note_off_c, 1, 58, 100
3, 241152, Note_on_c, 1, 58, 80
3, 241240, Note_off_c, 1, 55, 100
3, 241248, Note_on_c, 1, 55, 80
3, 241336, Note_off_c, 1, 58, 100
3, 241344, Note_on_c, 1, 58, 80
3, 241436, Note_off_c, 1, 55, 100
3, 241440, Note_on_c, 1, 55, 80
3, 241534, Note_off_c, 1, 58, 100
3, 241536, Note_on_c, 1, 58, 80
3, 241628, Note_off_c, 1, 55, 100
3, 241632, Note_on_c, 1, 55, 80
3, 241720, Note_off_c, 1, 58, 100
3, 241728, Note_on_c, 1, 52, 80
3, 241814, Note_off_c, 1, 55, 100
3, 241824, Note_on_c, 1, 55, 80
3, 241918, Note_off_c, 1, 52, 100
3, 241920, Note_on_c, 1, 53, 80
3, 242010, Note_off_c, 1, 55, 100
3, 242016, Note_on_c, 1, 56, 80
3, 242106, Note_off_c, 1, 53, 100
3, 242112, Note_on_c, 1, 60, 80
3, 242200, Note_off_c, 1, 56, 100
3, 242208, Note_on_c, 1, 56, 80
3, 242300, Note_off_c, 1, 60, 100
3, 242304, Note_on_c, 1, 60, 80
3, 242396, Note_off_c, 1, 56, 100
3, 242400, Note_on_c, 1, 56, 80
3, 242490, Note_off_c, 1, 60, 100
3, 242496, Note_on_c, 1, 48, 80
3, 242590, Note_off_c, 1, 56, 100
3, 242592, Note_on_c, 1, 58, 80
3, 242682, Note_off_c, 1, 48, 100
3, 242688, Note_on_c, 1, 60, 80
3, 242774, Note_off_c, 1, 58, 100
3, 242784, Note_on_c, 1, 58, 80
3, 242868, Note_off_c, 1, 60, 100
3, 242880, Note_on_c, 1, 60, 80
3, 242974, Note_off_c, 1, 58, 100
3, 242976, Note_on_c, 1, 58, 80
3, 243068, Note_off_c, 1, 58, 100
3, 243070, Note_off_c, 1, 60, 100
3, 243072, Note_on_c, 1, 53, 80
3, 243168, Note_on_c, 1, 56, 80
3, 243256, Note_off_c, 1, 53, 100
3, 243264, Note_on_c, 1, 60, 80
3, 243350, Note_off_c, 1, 56, 100
3, 243360, Note_on_c, 1, 56, 80
3, 243448, Note_off_c, 1, 60, 100
3, 243456, Note_on_c, 1, 60, 80
3, 243550, Note_off_c, 1, 56, 100
3, 243552, Note_on_c, 1, 56, 80
3, 243644, Note_off_c, 1, 60, 100
3, 243648, Note_on_c, 1, 58, 80
3, 243740, Note_off_c, 1, 56, 100
3, 243744, Note_on_c, 1, 56, 80
3, 243838, Note_off_c, 1, 58, 100
3, 243840, Note_on_c, 1, 58, 80
3, 243934, Note_off_c, 1, 56, 100
3, 243936, Note_on_c, 1, 56, 80
3, 244026, Note_off_c, 1, 58, 100
3, 244032, Note_on_c, 1, 50, 80
3, 244124, Note_off_c, 1, 56, 100
3, 244128, Note_on_c, 1, 56, 80
3, 244216, Note_off_c, 1, 50, 100
3, 244220, Note_off_c, 1, 56, 100
3, 244224, Note_on_c, 1, 51, 80
3, 244320, Note_on_c, 1, 55, 80
3, 244412, Note_off_c, 1, 51, 100
3, 244416, Note_on_c, 1, 58, 80
3, 244506, Note_off_c, 1, 55, 100
3, 244512, Note_on_c, 1, 55, 80
3, 244598, Note_off_c, 1, 58, 100
3, 244608, Note_on_c, 1, 58, 80
3, 244694, Note_off_c, 1, 55, 100
3, 244704, Note_on_c, 1, 55, 80
3, 244798, Note_off_c, 1, 58, 100
3, 244800, Note_on_c, 1, 44, 80
3, 244886, Note_off_c, 1, 55, 100
3, 244896, Note_on_c, 1, 53, 80
3, 244986, Note_off_c, 1, 44, 100
3, 244992, Note_on_c, 1, 56, 80
3, 245082, Note_off_c, 1, 53, 100
3, 245088, Note_on_c, 1, 53, 80
3, 245180, Note_off_c, 1, 56, 100
3, 245184, Note_on_c, 1, 56, 80
3, 245276, Note_off_c, 1, 53, 100
3, 245280, Note_on_c, 1, 53, 80
3, 245372, Note_off_c, 1, 53, 100
3, 245374, Note_off_c, 1, 56, 100
3, 245376, Note_on_c, 1, 46, 80
3, 245472, Note_on_c, 1, 51, 80
3, 245564, Note_off_c, 1, 46, 100
3, 245568, Note_on_c, 1, 55, 80
3, 245662, Note_off_c, 1, 51, 100
3, 245664, Note_on_c, 1, 51, 80
3, 245756, Note_off_c, 1, 55, 100
3, 245760, Note_on_c, 1, 55, 80
3, 245854, Note_off_c, 1, 51, 100
3, 245856, Note_on_c, 1, 51, 80
3, 245950, Note_off_c, 1, 55, 100
3, 245952, Note_on_c, 1, 46, 80
3, 246040, Note_off_c, 1, 51, 100
3, 246048, Note_on_c, 1, 50, 80
3, 246142, Note_off_c, 1, 46, 100
3, 246144, Note_on_c, 1, 53, 80
3, 246232, Note_off_c, 1, 50, 100
3, 246240, Note_on_c, 1, 50, 80
3, 246334, Note_off_c, 1, 53, 100
3, 246336, Note_on_c, 1, 58, 80
3, 246336, Note_on_c, 1, 46, 80
3, 246424, Note_off_c, 1, 50, 100
3, 246524, Note_off_c, 1, 58, 100
3, 246524, Note_off_c, 1, 46, 100
3, 246528, Note_on_c, 1, 58, 90
3, 246528, Note_on_c, 1, 46, 90
3, 246716, Note_off_c, 1, 58, 100
3, 246716, Note_off_c, 1, 46, 100
3, 246720, Note_on_c, 1, 55, 90
3, 246720, Note_on_c, 1, 43, 90
3, 246908, Note_off_c, 1, 55, 100
3, 246908, Note_off_c, 1, 43, 100
3, 246912, Note_on_c, 1, 51, 91
3, 246912, Note_on_c, 1, 39, 91
3, 247100, Note_off_c, 1, 51, 100
3, 247100, Note_off_c, 1, 39, 100
3, 247104, Note_on_c, 1, 50, 92
3, 247104, Note_on_c, 1, 38, 92
3, 247292, Note_off_c, 1, 50, 100
3, 247292, Note_off_c, 1, 38, 100
3, 247296, Note_on_c, 1, 53, 93
3, 247296, Note_on_c, 1, 41, 93
3, 247484, Note_off_c, 1, 53, 100
3, 247484, Note_off_c, 1, 41, 100
3, 247488, Note_on_c, 1, 58, 94
3, 247488, Note_on_c, 1, 46, 94
3, 247676, Note_off_c, 1, 58, 100
3, 247676, Note_off_c, 1, 46, 100
3, 247680, Note_on_c, 1, 58, 95
3, 247680, Note_on_c, 1, 46, 95
3, 247868, Note_off_c, 1, 58, 100
3, 247868, Note_off_c, 1, 46, 100
3, 247872, Note_on_c, 1, 55, 95
3, 247872, Note_on_c, 1, 43, 95
3, 248060, Note_off_c, 1, 55, 100
3, 248060, Note_off_c, 1, 43, 100
3, 248064, Note_on_c, 1, 51, 96
3, 248064, Note_on_c, 1, 39, 96
3, 248252, Note_off_c, 1, 51, 100
3, 248252, Note_off_c, 1, 39, 100
3, 248256, Note_on_c, 1, 51, 97
3, 248256, Note_on_c, 1, 39, 97
3, 248444, Note_off_c, 1, 51, 100
3, 248444, Note_off_c, 1, 39, 100
3, 248448, Note_on_c, 1, 55, 98
3, 248448, Note_on_c, 1, 43, 98
3, 248636, Note_off_c, 1, 55, 100
3, 248636, Note_off_c, 1, 43, 100
3, 248640, Note_on_c, 1, 60, 99
3, 248640, Note_on_c, 1, 48, 99
3, 248828, Note_off_c, 1, 60, 100
3, 248828, Note_off_c, 1, 48, 100
3, 248832, Note_on_c, 1, 60, 100
3, 248832, Note_on_c, 1, 48, 100
3, 249020, Note_off_c, 1, 60, 100
3, 249020, Note_off_c, 1, 48, 100
3, 249024, Note_on_c, 1, 56, 100
3, 249024, Note_on_c, 1, 44, 100
3, 249212, Note_off_c, 1, 56, 100
3, 249212, Note_off_c, 1, 44, 100
3, 249216, Note_on_c, 1, 53, 101
3, 249216, Note_on_c, 1, 41, 101
3, 249404, Note_off_c, 1, 53, 100
3, 249404, Note_off_c, 1, 41, 100
3, 249408, Note_on_c, 1, 52, 102
3, 249408, Note_on_c, 1, 40, 102
3, 249596, Note_off_c, 1, 52, 100
3, 249596, Note_off_c, 1, 40, 100
3, 249600, Note_on_c, 1, 55, 103
3, 249600, Note_on_c, 1, 43, 103
3, 249788, Note_off_c, 1, 55, 100
3, 249788, Note_off_c, 1, 43, 100
3, 249792, Note_on_c, 1, 60, 104
3, 249792, Note_on_c, 1, 48, 104
3, 249980, Note_off_c, 1, 60, 100
3, 249980, Note_off_c, 1, 48, 100
3, 249984, Note_on_c, 1, 60, 105
3, 249984, Note_on_c, 1, 48, 105
3, 250172, Note_off_c, 1, 60, 100
3, 250172, Note_off_c, 1, 48, 100
3, 250176, Note_on_c, 1, 56, 106
3, 250176, Note_on_c, 1, 44, 106
3, 250364, Note_off_c, 1, 56, 100
3, 250364, Note_off_c, 1, 44, 100
3, 250368, Note_on_c, 1, 53, 106
3, 250368, Note_on_c, 1, 41, 106
3, 250556, Note_off_c, 1, 53, 100
3, 250556, Note_off_c, 1, 41, 100
3, 250560, Note_on_c, 1, 50, 107
3, 250560, Note_on_c, 1, 38, 107
3, 250748, Note_off_c, 1, 50, 100
3, 250748, Note_off_c, 1, 38, 100
3, 250752, Note_on_c, 1, 53, 108
3, 250752, Note_on_c, 1, 41, 108
3, 250940, Note_off_c, 1, 53, 100
3, 250940, Note_off_c, 1, 41, 100
3, 250944, Note_on_c, 1, 58, 109
3, 250944, Note_on_c, 1, 46, 109
3, 251132, Note_off_c, 1, 58, 100
3, 251132, Note_off_c, 1, 46, 100
3, 251136, Note_on_c, 1, 58, 110
3, 251136, Note_on_c, 1, 46, 110
3, 251324, Note_off_c, 1, 58, 100
3, 251324, Note_off_c, 1, 46, 100
3, 251328, Note_on_c, 1, 55, 111
3, 251328, Note_on_c, 1, 43, 111
3, 251516, Note_off_c, 1, 55, 100
3, 251516, Note_off_c, 1, 43, 100
3, 251520, Note_on_c, 1, 51, 111
3, 251520, Note_on_c, 1, 39, 111
3, 251708, Note_off_c, 1, 51, 100
3, 251708, Note_off_c, 1, 39, 100
3, 251712, Note_on_c, 1, 48, 112
3, 251712, Note_on_c, 1, 36, 112
3, 251900, Note_off_c, 1, 48, 100
3, 251900, Note_off_c, 1, 36, 100
3, 251904, Note_on_c, 1, 53, 113
3, 251904, Note_on_c, 1, 41, 113
3, 252092, Note_off_c, 1, 53, 100
3, 252092, Note_off_c, 1, 41, 100
3, 252096, Note_on_c, 1, 56, 114
3, 252096, Note_on_c, 1, 44, 114
3, 252284, Note_off_c, 1, 56, 100
3, 252284, Note_off_c, 1, 44, 100
3, 252288, Note_on_c, 1, 46, 115
3, 252288, Note_on_c, 1, 34, 115
3, 252476, Note_off_c, 1, 46, 100
3, 252476, Note_off_c, 1, 34, 100
3, 252480, Note_on_c, 1, 51, 116
3, 252480, Note_on_c, 1, 39, 116
3, 252668, Note_off_c, 1, 51, 100
3, 252668, Note_off_c, 1, 39, 100
3, 252672, Note_on_c, 1, 55, 117
3, 252672, Note_on_c, 1, 43, 117
3, 252860, Note_off_c, 1, 55, 100
3, 252860, Note_off_c, 1, 43, 100
3, 252864, Note_on_c, 1, 46, 117
3, 252864, Note_on_c, 1, 34, 117
3, 253052, Note_off_c, 1, 46, 100
3, 253052, Note_off_c, 1, 34, 100
3, 253056, Note_on_c, 1, 53, 118
3, 253056, Note_on_c, 1, 41, 118
3, 253244, Note_off_c, 1, 53, 100
3, 253244, Note_off_c, 1, 41, 100
3, 253248, Note_on_c, 1, 58, 119
3, 253248, Note_on_c, 1, 46, 119
3, 253436, Note_off_c, 1, 58, 100
3, 253436, Note_off_c, 1, 46, 100
3, 253440, Control_c, 1, 64, 127
3, 253440, Note_on_c, 1, 39, 120
3, 253628, Note_off_c, 1, 39, 100
3, 253632, Note_on_c, 1, 55, 120
3, 253632, Note_on_c, 1, 51, 120
3, 253820, Note_off_c, 1, 55, 100
3, 253820, Note_off_c, 1, 51, 100
3, 253824, Note_on_c, 1, 51, 120
3, 253824, Note_on_c, 1, 55, 120
3, 253824, Note_on_c, 1, 58, 120
3, 254012, Note_off_c, 1, 51, 100
3, 254012, Note_off_c, 1, 55, 100
3, 254012, Note_off_c, 1, 58, 100
3, 254016, Note_on_c, 1, 51, 120
3, 254016, Note_on_c, 1, 55, 120
3, 254016, Note_on_c, 1, 63, 120
3, 254016, Note_on_c, 1, 58, 120
3, 254204, Note_off_c, 1, 51, 100
3, 254204, Note_off_c, 1, 55, 100
3, 254204, Note_off_c, 1, 63, 100
3, 254204, Note_off_c, 1, 58, 100
3, 254208, Note_on_c, 1, 51, 120
3, 254208, Note_on_c, 1, 55, 120
3, 254208, Note_on_c, 1, 63, 120
3, 254208, Note_on_c, 1, 58, 120
3, 254396, Note_off_c, 1, 51, 100
3, 254396, Note_off_c, 1, 55, 100
3, 254396, Note_off_c, 1, 63, 100
3, 254396, Note_off_c, 1, 58, 100
3, 254400, Note_on_c, 1, 51, 120
3, 254400, Note_on_c, 1, 55, 120
3, 254400, Note_on_c, 1, 63, 120
3, 254400, Note_on_c, 1, 58, 120
3, 254588, Note_off_c, 1, 51, 100
3, 254588, Note_off_c, 1, 55, 100
3, 254588, Note_off_c, 1, 63, 100
3, 254588, Note_off_c, 1, 58, 100
3, 254592, Note_on_c, 1, 51, 120
3, 254592, Note_on_c, 1, 55, 120
3, 254592, Note_on_c, 1, 63, 120
3, 254592, Note_on_c, 1, 58, 120
3, 254780, Note_off_c, 1, 51, 100
3, 254780, Note_off_c, 1, 55, 100
3, 254780, Note_off_c, 1, 63, 100
3, 254780, Note_off_c, 1, 58, 100
3, 254784, Note_on_c, 1, 51, 120
3, 254784, Note_on_c, 1, 55, 120
3, 254784, Note_on_c, 1, 63, 120
3, 254784, Note_on_c, 1, 58, 120
3, 254972, Note_off_c, 1, 51, 100
3, 254972, Note_off_c, 1, 55, 100
3, 254972, Note_off_c, 1, 63, 100
3, 254972, Note_off_c, 1, 58, 100
3, 254976, Note_on_c, 1, 51, 120
3, 254976, Note_on_c, 1, 55, 120
3, 254976, Note_on_c, 1, 63, 120
3, 254976, Note_on_c, 1, 58, 120
3, 255164, Note_off_c, 1, 51, 100
3, 255164, Note_off_c, 1, 55, 100
3, 255164, Note_off_c, 1, 63, 100
3, 255164, Note_off_c, 1, 58, 100
3, 255164, Control_c, 1, 64, 0
3, 255168, Note_on_c, 1, 51, 120
3, 255168, Note_on_c, 1, 53, 120
3, 255168, Note_on_c, 1, 56, 120
3, 255168, Note_on_c, 1, 58, 120
3, 255168, Note_on_c, 1, 62, 120
3, 255356, Note_off_c, 1, 51, 100
3, 255356, Note_off_c, 1, 53, 100
3, 255356, Note_off_c, 1, 56, 100
3, 255356, Note_off_c, 1, 58, 100
3, 255356, Note_off_c, 1, 62, 100
3, 255360, Note_on_c, 1, 51, 120
3, 255360, Note_on_c, 1, 53, 120
3, 255360, Note_on_c, 1, 56, 120
3, 255360, Note_on_c, 1, 58, 120
3, 255360, Note_on_c, 1, 62, 120
3, 255548, Note_off_c, 1, 51, 100
3, 255548, Note_off_c, 1, 53, 100
3, 255548, Note_off_c, 1, 56, 100
3, 255548, Note_off_c, 1, 58, 100
3, 255548, Note_off_c, 1, 62, 100
3, 255552, Note_on_c, 1, 51, 120
3, 255552, Note_on_c, 1, 53, 120
3, 255552, Note_on_c, 1, 56, 120
3, 255552, Note_on_c, 1, 58, 120
3, 255552, Note_on_c, 1, 62, 120
3, 255740, Note_off_c, 1, 51, 100
3, 255740, Note_off_c, 1, 53, 100
3, 255740, Note_off_c, 1, 56, 100
3, 255740, Note_off_c, 1, 58, 100
3, 255740, Note_off_c, 1, 62, 100
3, 255744, Note_on_c, 1, 51, 120
3, 255744, Note_on_c, 1, 55, 120
3, 255744, Note_on_c, 1, 58, 120
3, 255744, Note_on_c, 1, 63, 120
3, 255932, Note_off_c, 1, 51, 100
3, 255932, Note_off_c, 1, 55, 100
3, 255932, Note_off_c, 1, 58, 100
3, 255932, Note_off_c, 1, 63, 100
3, 255936, Note_on_c, 1, 51, 120
3, 255936, Note_on_c, 1, 55, 120
3, 255936, Note_on_c, 1, 58, 120
3, 255936, Note_on_c, 1, 63, 120
3, 256124, Note_off_c, 1, 51, 100
3, 256124, Note_off_c, 1, 55, 100
3, 256124, Note_off_c, 1, 58, 100
3, 256124, Note_off_c, 1, 63, 100
3, 256128, Note_on_c, 1, 51, 120
3, 256128, Note_on_c, 1, 55, 120
3, 256128, Note_on_c, 1, 58, 120
3, 256128, Note_on_c, 1, 63, 120
3, 256316, Note_off_c, 1, 51, 100
3, 256316, Note_off_c, 1, 55, 100
3, 256316, Note_off_c, 1, 58, 100
3, 256316, Note_off_c, 1, 63, 100
3, 256320, Note_on_c, 1, 51, 120
3, 256320, Note_on_c, 1, 55, 120
3, 256320, Note_on_c, 1, 58, 120
3, 256320, Note_on_c, 1, 63, 120
3, 256508, Note_off_c, 1, 51, 100
3, 256508, Note_off_c, 1, 55, 100
3, 256508, Note_off_c, 1, 58, 100
3, 256508, Note_off_c, 1, 63, 100
3, 256512, Note_on_c, 1, 51, 120
3, 256512, Note_on_c, 1, 55, 120
3, 256512, Note_on_c, 1, 58, 120
3, 256512, Note_on_c, 1, 63, 120
3, 256700, Note_off_c, 1, 51, 100
3, 256700, Note_off_c, 1, 55, 100
3, 256700, Note_off_c, 1, 58, 100
3, 256700, Note_off_c, 1, 63, 100
3, 256704, Note_on_c, 1, 51, 120
3, 256704, Note_on_c, 1, 55, 120
3, 256704, Note_on_c, 1, 58, 120
3, 256704, Note_on_c, 1, 63, 120
3, 256892, Note_off_c, 1, 51, 100
3, 256892, Note_off_c, 1, 55, 100
3, 256892, Note_off_c, 1, 58, 100
3, 256892, Note_off_c, 1, 63, 100
3, 256896, Note_on_c, 1, 51, 120
3, 256896, Note_on_c, 1, 55, 120
3, 256896, Note_on_c, 1, 58, 120
3, 256896, Note_on_c, 1, 63, 120
3, 257084, Note_off_c, 1, 51, 100
3, 257084, Note_off_c, 1, 55, 100
3, 257084, Note_off_c, 1, 58, 100
3, 257084, Note_off_c, 1, 63, 100
3, 257088, Note_on_c, 1, 51, 120
3, 257088, Note_on_c, 1, 55, 120
3, 257088, Note_on_c, 1, 58, 120
3, 257088, Note_on_c, 1, 63, 120
3, 257276, Note_off_c, 1, 51, 100
3, 257276, Note_off_c, 1, 55, 100
3, 257276, Note_off_c, 1, 58, 100
3, 257276, Note_off_c, 1, 63, 100
3, 257280, Note_on_c, 1, 51, 120
3, 257280, Note_on_c, 1, 55, 120
3, 257280, Note_on_c, 1, 58, 120
3, 257280, Note_on_c, 1, 63, 120
3, 257468, Note_off_c, 1, 51, 100
3, 257468, Note_off_c, 1, 55, 100
3, 257468, Note_off_c, 1, 58, 100
3, 257468, Note_off_c, 1, 63, 100
3, 257472, Note_on_c, 1, 51, 120
3, 257472, Note_on_c, 1, 53, 120
3, 257472, Note_on_c, 1, 56, 120
3, 257472, Note_on_c, 1, 58, 120
3, 257660, Note_off_c, 1, 51, 100
3, 257660, Note_off_c, 1, 53, 100
3, 257660, Note_off_c, 1, 56, 100
3, 257660, Note_off_c, 1, 58, 100
3, 257664, Note_on_c, 1, 51, 120
3, 257664, Note_on_c, 1, 53, 120
3, 257664, Note_on_c, 1, 56, 120
3, 257664, Note_on_c, 1, 58, 120
3, 257852, Note_off_c, 1, 51, 100
3, 257852, Note_off_c, 1, 53, 100
3, 257852, Note_off_c, 1, 56, 100
3, 257852, Note_off_c, 1, 58, 100
3, 257856, Note_on_c, 1, 51, 120
3, 257856, Note_on_c, 1, 53, 120
3, 257856, Note_on_c, 1, 56, 120
3, 257856, Note_on_c, 1, 58, 120
3, 258044, Note_off_c, 1, 51, 100
3, 258044, Note_off_c, 1, 53, 100
3, 258044, Note_off_c, 1, 56, 100
3, 258044, Note_off_c, 1, 58, 100
3, 258048, Control_c, 1, 64, 127
3, 258048, Note_on_c, 1, 39, 120
3, 258236, Note_off_c, 1, 39, 100
3, 258240, Note_on_c, 1, 55, 120
3, 258240, Note_on_c, 1, 51, 120
3, 258428, Note_off_c, 1, 55, 100
3, 258428, Note_off_c, 1, 51, 100
3, 258432, Note_on_c, 1, 51, 120
3, 258432, Note_on_c, 1, 55, 120
3, 258432, Note_on_c, 1, 58, 120
3, 258620, Note_off_c, 1, 51, 100
3, 258620, Note_off_c, 1, 55, 100
3, 258620, Note_off_c, 1, 58, 100
3, 258624, Note_on_c, 1, 51, 120
3, 258624, Note_on_c, 1, 55, 120
3, 258624, Note_on_c, 1, 63, 120
3, 258624, Note_on_c, 1, 58, 120
3, 258812, Note_off_c, 1, 51, 100
3, 258812, Note_off_c, 1, 55, 100
3, 258812, Note_off_c, 1, 63, 100
3, 258812, Note_off_c, 1, 58, 100
3, 258816, Note_on_c, 1, 51, 120
3, 258816, Note_on_c, 1, 55, 120
3, 258816, Note_on_c, 1, 63, 120
3, 258816, Note_on_c, 1, 58, 120
3, 259004, Note_off_c, 1, 51, 100
3, 259004, Note_off_c, 1, 55, 100
3, 259004, Note_off_c, 1, 63, 100
3, 259004, Note_off_c, 1, 58, 100
3, 259008, Note_on_c, 1, 51, 120
3, 259008, Note_on_c, 1, 55, 120
3, 259008, Note_on_c, 1, 63, 120
3, 259008, Note_on_c, 1, 58, 120
3, 259196, Note_off_c, 1, 51, 100
3, 259196, Note_off_c, 1, 55, 100
3, 259196, Note_off_c, 1, 63, 100
3, 259196, Note_off_c, 1, 58, 100
3, 259200, Note_on_c, 1, 51, 120
3, 259200, Note_on_c, 1, 55, 120
3, 259200, Note_on_c, 1, 63, 120
3, 259200, Note_on_c, 1, 58, 120
3, 259388, Note_off_c, 1, 51, 100
3, 259388, Note_off_c, 1, 55, 100
3, 259388, Note_off_c, 1, 63, 100
3, 259388, Note_off_c, 1, 58, 100
3, 259392, Note_on_c, 1, 51, 120
3, 259392, Note_on_c, 1, 55, 120
3, 259392, Note_on_c, 1, 63, 120
3, 259392, Note_on_c, 1, 58, 120
3, 259580, Note_off_c, 1, 51, 100
3, 259580, Note_off_c, 1, 55, 100
3, 259580, Note_off_c, 1, 63, 100
3, 259580, Note_off_c, 1, 58, 100
3, 259584, Note_on_c, 1, 51, 120
3, 259584, Note_on_c, 1, 55, 120
3, 259584, Note_on_c, 1, 63, 120
3, 259584, Note_on_c, 1, 58, 120
3, 259772, Note_off_c, 1, 51, 100
3, 259772, Note_off_c, 1, 55, 100
3, 259772, Note_off_c, 1, 63, 100
3, 259772, Note_off_c, 1, 58, 100
3, 259772, Control_c, 1, 64, 0
3, 259776, Note_on_c, 1, 61, 120
3, 259776, Note_on_c, 1, 58, 120
3, 259776, Note_on_c, 1, 55, 120
3, 259776, Note_on_c, 1, 51, 120
3, 259964, Note_off_c, 1, 61, 100
3, 259964, Note_off_c, 1, 58, 100
3, 259964, Note_off_c, 1, 55, 100
3, 259964, Note_off_c, 1, 51, 100
3, 259968, Note_on_c, 1, 61, 120
3, 259968, Note_on_c, 1, 58, 120
3, 259968, Note_on_c, 1, 55, 120
3, 259968, Note_on_c, 1, 51, 120
3, 260156, Note_off_c, 1, 61, 100
3, 260156, Note_off_c, 1, 58, 100
3, 260156, Note_off_c, 1, 55, 100
3, 260156, Note_off_c, 1, 51, 100
3, 260160, Note_on_c, 1, 61, 120
3, 260160, Note_on_c, 1, 58, 120
3, 260160, Note_on_c, 1, 55, 120
3, 260160, Note_on_c, 1, 51, 120
3, 260348, Note_off_c, 1, 61, 100
3, 260348, Note_off_c, 1, 58, 100
3, 260348, Note_off_c, 1, 55, 100
3, 260348, Note_off_c, 1, 51, 100
3, 260352, Note_on_c, 1, 61, 120
3, 260352, Note_on_c, 1, 58, 120
3, 260352, Note_on_c, 1, 55, 120
3, 260352, Note_on_c, 1, 51, 120
3, 260540, Note_off_c, 1, 61, 100
3, 260540, Note_off_c, 1, 58, 100
3, 260540, Note_off_c, 1, 55, 100
3, 260540, Note_off_c, 1, 51, 100
3, 260544, Note_on_c, 1, 61, 120
3, 260544, Note_on_c, 1, 58, 120
3, 260544, Note_on_c, 1, 55, 120
3, 260544, Note_on_c, 1, 51, 120
3, 260732, Note_off_c, 1, 61, 100
3, 260732, Note_off_c, 1, 58, 100
3, 260732, Note_off_c, 1, 55, 100
3, 260732, Note_off_c, 1, 51, 100
3, 260736, Note_on_c, 1, 61, 120
3, 260736, Note_on_c, 1, 58, 120
3, 260736, Note_on_c, 1, 55, 120
3, 260736, Note_on_c, 1, 51, 120
3, 260924, Note_off_c, 1, 61, 100
3, 260924, Note_off_c, 1, 58, 100
3, 260924, Note_off_c, 1, 55, 100
3, 260924, Note_off_c, 1, 51, 100
3, 260928, Note_on_c, 1, 61, 120
3, 260928, Note_on_c, 1, 58, 120
3, 260928, Note_on_c, 1, 55, 120
3, 260928, Note_on_c, 1, 51, 120
3, 261116, Note_off_c, 1, 61, 100
3, 261116, Note_off_c, 1, 58, 100
3, 261116, Note_off_c, 1, 55, 100
3, 261116, Note_off_c, 1, 51, 100
3, 261120, Note_on_c, 1, 61, 120
3, 261120, Note_on_c, 1, 58, 120
3, 261120, Note_on_c, 1, 55, 120
3, 261120, Note_on_c, 1, 51, 120
3, 261308, Note_off_c, 1, 61, 100
3, 261308, Note_off_c, 1, 58, 100
3, 261308, Note_off_c, 1, 55, 100
3, 261308, Note_off_c, 1, 51, 100
3, 261312, Note_on_c, 1, 61, 120
3, 261312, Note_on_c, 1, 58, 120
3, 261312, Note_on_c, 1, 55, 120
3, 261312, Note_on_c, 1, 51, 120
3, 261500, Note_off_c, 1, 61, 100
3, 261500, Note_off_c, 1, 58, 100
3, 261500, Note_off_c, 1, 55, 100
3, 261500, Note_off_c, 1, 51, 100
3, 261504, Note_on_c, 1, 61, 120
3, 261504, Note_on_c, 1, 58, 120
3, 261504, Note_on_c, 1, 55, 120
3, 261504, Note_on_c, 1, 51, 120
3, 261692, Note_off_c, 1, 61, 100
3, 261692, Note_off_c, 1, 58, 100
3, 261692, Note_off_c, 1, 55, 100
3, 261692, Note_off_c, 1, 51, 100
3, 261696, Note_on_c, 1, 61, 120
3, 261696, Note_on_c, 1, 58, 120
3, 261696, Note_on_c, 1, 55, 120
3, 261696, Note_on_c, 1, 51, 120
3, 261884, Note_off_c, 1, 61, 100
3, 261884, Note_off_c, 1, 58, 100
3, 261884, Note_off_c, 1, 55, 100
3, 261884, Note_off_c, 1, 51, 100
3, 261888, Note_on_c, 1, 60, 120
3, 261888, Note_on_c, 1, 56, 120
3, 261888, Note_on_c, 1, 51, 120
3, 262076, Note_off_c, 1, 60, 100
3, 262076, Note_off_c, 1, 56, 100
3, 262076, Note_off_c, 1, 51, 100
3, 262080, Note_on_c, 1, 51, 120
3, 262080, Note_on_c, 1, 53, 120
3, 262080, Note_on_c, 1, 56, 120
3, 262080, Note_on_c, 1, 59, 120
3, 262268, Note_off_c, 1, 51, 100
3, 262268, Note_off_c, 1, 53, 100
3, 262268, Note_off_c, 1, 56, 100
3, 262268, Note_off_c, 1, 59, 100
3, 262272, Note_on_c, 1, 51, 120
3, 262272, Note_on_c, 1, 53, 120
3, 262272, Note_on_c, 1, 56, 120
3, 262272, Note_on_c, 1, 59, 120
3, 262460, Note_off_c, 1, 51, 100
3, 262460, Note_off_c, 1, 53, 100
3, 262460, Note_off_c, 1, 56, 100
3, 262460, Note_off_c, 1, 59, 100
3, 262464, Note_on_c, 1, 51, 120
3, 262464, Note_on_c, 1, 56, 120
3, 262464, Note_on_c, 1, 58, 120
3, 262464, Note_on_c, 1, 53, 120
3, 262652, Note_off_c, 1, 51, 100
3, 262652, Note_off_c, 1, 56, 100
3, 262652, Note_off_c, 1, 58, 100
3, 262652, Note_off_c, 1, 53, 100
3, 262656, Control_c, 1, 64, 127
3, 262656, Note_on_c, 1, 51, 120
3, 262656, Note_on_c, 1, 39, 120
3, 263232, Note_on_c, 1, 63, 120
3, 263804, Note_off_c, 1, 51, 100
3, 263804, Note_off_c, 1, 39, 100
3, 263808, Note_on_c, 1, 66, 120
3, 264380, Note_off_c, 1, 63, 64
3, 264384, Note_on_c, 1, 71, 120
3, 264956, Note_off_c, 1, 66, 64
3, 264960, Note_on_c, 1, 66, 120
3, 265532, Note_off_c, 1, 71, 64
3, 265536, Note_on_c, 1, 63, 120
3, 266108, Note_off_c, 1, 66, 64
3, 266112, Note_on_c, 1, 59, 120
3, 266684, Note_off_c, 1, 63, 64
3, 266688, Note_on_c, 1, 54, 120
3, 267260, Note_off_c, 1, 59, 100
3, 267260, Note_off_c, 1, 54, 100
3, 267260, Control_c, 1, 64, 0
3, 267264, Control_c, 1, 64, 127
3, 267264, Note_on_c, 1, 50, 120
3, 267264, Note_on_c, 1, 38, 120
3, 267840, Note_on_c, 1, 62, 120
3, 268412, Note_off_c, 1, 50, 100
3, 268412, Note_off_c, 1, 38, 100
3, 268416, Note_on_c, 1, 65, 120
3, 268988, Note_off_c, 1, 62, 64
3, 268992, Note_on_c, 1, 70, 120
3, 269564, Note_off_c, 1, 65, 64
3, 269568, Note_on_c, 1, 65, 120
3, 270140, Note_off_c, 1, 70, 64
3, 270144, Note_on_c, 1, 62, 120
3, 270716, Note_off_c, 1, 65, 64
3, 270720, Note_on_c, 1, 58, 120
3, 271292, Note_off_c, 1, 62, 64
3, 271296, Note_on_c, 1, 53, 120
3, 271868, Note_off_c, 1, 58, 100
3, 271868, Note_off_c, 1, 53, 100
3, 271868, Control_c, 1, 64, 0
3, 271872, Note_on_c, 1, 71, 80
3, 271872, Note_on_c, 1, 66, 80
3, 271872, Note_on_c, 1, 63, 80
3, 272060, Note_off_c, 1, 71, 100
3, 272060, Note_off_c, 1, 66, 100
3, 272060, Note_off_c, 1, 63, 100
3, 272064, Note_on_c, 1, 71, 80
3, 272064, Note_on_c, 1, 66, 80
3, 272064, Note_on_c, 1, 63, 80
3, 272252, Note_off_c, 1, 71, 100
3, 272252, Note_off_c, 1, 66, 100
3, 272252, Note_off_c, 1, 63, 100
3, 272256, Note_on_c, 1, 71, 80
3, 272256, Note_on_c, 1, 66, 80
3, 272256, Note_on_c, 1, 63, 80
3, 272444, Note_off_c, 1, 71, 100
3, 272444, Note_off_c, 1, 66, 100
3, 272444, Note_off_c, 1, 63, 100
3, 272448, Note_on_c, 1, 71, 80
3, 272448, Note_on_c, 1, 66, 80
3, 272448, Note_on_c, 1, 63, 80
3, 272636, Note_off_c, 1, 71, 100
3, 272636, Note_off_c, 1, 66, 100
3, 272636, Note_off_c, 1, 63, 100
3, 272640, Note_on_c, 1, 71, 80
3, 272640, Note_on_c, 1, 66, 80
3, 272640, Note_on_c, 1, 63, 80
3, 272828, Note_off_c, 1, 71, 100
3, 272828, Note_off_c, 1, 66, 100
3, 272828, Note_off_c, 1, 63, 100
3, 272832, Note_on_c, 1, 71, 80
3, 272832, Note_on_c, 1, 66, 80
3, 272832, Note_on_c, 1, 63, 80
3, 273020, Note_off_c, 1, 71, 100
3, 273020, Note_off_c, 1, 66, 100
3, 273020, Note_off_c, 1, 63, 100
3, 273024, Note_on_c, 1, 71, 80
3, 273024, Note_on_c, 1, 66, 80
3, 273024, Note_on_c, 1, 63, 80
3, 273212, Note_off_c, 1, 71, 100
3, 273212, Note_off_c, 1, 66, 100
3, 273212, Note_off_c, 1, 63, 100
3, 273216, Note_on_c, 1, 71, 80
3, 273216, Note_on_c, 1, 66, 80
3, 273216, Note_on_c, 1, 63, 80
3, 273404, Note_off_c, 1, 71, 100
3, 273404, Note_off_c, 1, 66, 100
3, 273404, Note_off_c, 1, 63, 100
3, 273408, Note_on_c, 1, 71, 80
3, 273408, Note_on_c, 1, 66, 80
3, 273408, Note_on_c, 1, 63, 80
3, 273596, Note_off_c, 1, 71, 100
3, 273596, Note_off_c, 1, 66, 100
3, 273596, Note_off_c, 1, 63, 100
3, 273600, Note_on_c, 1, 71, 80
3, 273600, Note_on_c, 1, 66, 80
3, 273600, Note_on_c, 1, 63, 80
3, 273788, Note_off_c, 1, 71, 100
3, 273788, Note_off_c, 1, 66, 100
3, 273788, Note_off_c, 1, 63, 100
3, 273792, Note_on_c, 1, 71, 80
3, 273792, Note_on_c, 1, 66, 80
3, 273792, Note_on_c, 1, 63, 80
3, 273980, Note_off_c, 1, 71, 100
3, 273980, Note_off_c, 1, 66, 100
3, 273980, Note_off_c, 1, 63, 100
3, 273984, Note_on_c, 1, 71, 80
3, 273984, Note_on_c, 1, 66, 80
3, 273984, Note_on_c, 1, 63, 80
3, 274172, Note_off_c, 1, 71, 100
3, 274172, Note_off_c, 1, 66, 100
3, 274172, Note_off_c, 1, 63, 100
3, 274176, Note_on_c, 1, 71, 80
3, 274176, Note_on_c, 1, 66, 80
3, 274176, Note_on_c, 1, 63, 80
3, 274364, Note_off_c, 1, 71, 100
3, 274364, Note_off_c, 1, 66, 100
3, 274364, Note_off_c, 1, 63, 100
3, 274368, Note_on_c, 1, 71, 80
3, 274368, Note_on_c, 1, 66, 80
3, 274368, Note_on_c, 1, 63, 80
3, 274556, Note_off_c, 1, 71, 100
3, 274556, Note_off_c, 1, 66, 100
3, 274556, Note_off_c, 1, 63, 100
3, 274560, Note_on_c, 1, 71, 80
3, 274560, Note_on_c, 1, 66, 80
3, 274560, Note_on_c, 1, 63, 80
3, 274748, Note_off_c, 1, 71, 100
3, 274748, Note_off_c, 1, 66, 100
3, 274748, Note_off_c, 1, 63, 100
3, 274752, Note_on_c, 1, 71, 80
3, 274752, Note_on_c, 1, 66, 80
3, 274752, Note_on_c, 1, 63, 80
3, 274940, Note_off_c, 1, 71, 100
3, 274940, Note_off_c, 1, 66, 100
3, 274940, Note_off_c, 1, 63, 100
3, 274944, Note_on_c, 1, 71, 80
3, 274944, Note_on_c, 1, 66, 80
3, 274944, Note_on_c, 1, 63, 80
3, 275132, Note_off_c, 1, 71, 100
3, 275132, Note_off_c, 1, 66, 100
3, 275132, Note_off_c, 1, 63, 100
3, 275136, Note_on_c, 1, 71, 80
3, 275136, Note_on_c, 1, 66, 80
3, 275136, Note_on_c, 1, 63, 80
3, 275324, Note_off_c, 1, 71, 100
3, 275324, Note_off_c, 1, 66, 100
3, 275324, Note_off_c, 1, 63, 100
3, 275328, Note_on_c, 1, 71, 80
3, 275328, Note_on_c, 1, 66, 80
3, 275328, Note_on_c, 1, 63, 80
3, 275516, Note_off_c, 1, 71, 100
3, 275516, Note_off_c, 1, 66, 100
3, 275516, Note_off_c, 1, 63, 100
3, 275520, Note_on_c, 1, 71, 80
3, 275520, Note_on_c, 1, 66, 80
3, 275520, Note_on_c, 1, 63, 80
3, 275708, Note_off_c, 1, 71, 100
3, 275708, Note_off_c, 1, 66, 100
3, 275708, Note_off_c, 1, 63, 100
3, 275712, Note_on_c, 1, 71, 80
3, 275712, Note_on_c, 1, 66, 80
3, 275712, Note_on_c, 1, 63, 80
3, 275900, Note_off_c, 1, 71, 100
3, 275900, Note_off_c, 1, 66, 100
3, 275900, Note_off_c, 1, 63, 100
3, 275904, Note_on_c, 1, 71, 80
3, 275904, Note_on_c, 1, 66, 80
3, 275904, Note_on_c, 1, 63, 80
3, 276092, Note_off_c, 1, 71, 100
3, 276092, Note_off_c, 1, 66, 100
3, 276092, Note_off_c, 1, 63, 100
3, 276096, Note_on_c, 1, 71, 80
3, 276096, Note_on_c, 1, 66, 80
3, 276096, Note_on_c, 1, 63, 80
3, 276284, Note_off_c, 1, 71, 100
3, 276284, Note_off_c, 1, 66, 100
3, 276284, Note_off_c, 1, 63, 100
3, 276288, Note_on_c, 1, 63, 80
3, 276288, Note_on_c, 1, 69, 80
3, 276288, Note_on_c, 1, 66, 80
3, 276476, Note_off_c, 1, 63, 100
3, 276476, Note_off_c, 1, 69, 100
3, 276476, Note_off_c, 1, 66, 100
3, 276480, Note_on_c, 1, 70, 80
3, 276480, Note_on_c, 1, 65, 80
3, 276480, Note_on_c, 1, 62, 80
3, 276668, Note_off_c, 1, 70, 100
3, 276668, Note_off_c, 1, 65, 100
3, 276668, Note_off_c, 1, 62, 100
3, 276672, Note_on_c, 1, 70, 80
3, 276672, Note_on_c, 1, 65, 80
3, 276672, Note_on_c, 1, 62, 80
3, 276860, Note_off_c, 1, 70, 100
3, 276860, Note_off_c, 1, 65, 100
3, 276860, Note_off_c, 1, 62, 100
3, 276864, Note_on_c, 1, 70, 80
3, 276864, Note_on_c, 1, 65, 80
3, 276864, Note_on_c, 1, 62, 80
3, 277052, Note_off_c, 1, 70, 100
3, 277052, Note_off_c, 1, 65, 100
3, 277052, Note_off_c, 1, 62, 100
3, 277056, Note_on_c, 1, 70, 80
3, 277056, Note_on_c, 1, 65, 80
3, 277056, Note_on_c, 1, 62, 80
3, 277244, Note_off_c, 1, 70, 100
3, 277244, Note_off_c, 1, 65, 100
3, 277244, Note_off_c, 1, 62, 100
3, 277248, Note_on_c, 1, 70, 80
3, 277248, Note_on_c, 1, 65, 80
3, 277248, Note_on_c, 1, 62, 80
3, 277436, Note_off_c, 1, 70, 100
3, 277436, Note_off_c, 1, 65, 100
3, 277436, Note_off_c, 1, 62, 100
3, 277440, Note_on_c, 1, 70, 80
3, 277440, Note_on_c, 1, 65, 80
3, 277440, Note_on_c, 1, 62, 80
3, 277628, Note_off_c, 1, 70, 100
3, 277628, Note_off_c, 1, 65, 100
3, 277628, Note_off_c, 1, 62, 100
3, 277632, Note_on_c, 1, 70, 80
3, 277632, Note_on_c, 1, 65, 80
3, 277632, Note_on_c, 1, 62, 80
3, 277820, Note_off_c, 1, 70, 100
3, 277820, Note_off_c, 1, 65, 100
3, 277820, Note_off_c, 1, 62, 100
3, 277824, Note_on_c, 1, 70, 80
3, 277824, Note_on_c, 1, 65, 80
3, 277824, Note_on_c, 1, 62, 80
3, 278012, Note_off_c, 1, 70, 100
3, 278012, Note_off_c, 1, 65, 100
3, 278012, Note_off_c, 1, 62, 100
3, 278016, Note_on_c, 1, 70, 80
3, 278016, Note_on_c, 1, 65, 80
3, 278016, Note_on_c, 1, 62, 80
3, 278204, Note_off_c, 1, 70, 100
3, 278204, Note_off_c, 1, 65, 100
3, 278204, Note_off_c, 1, 62, 100
3, 278208, Note_on_c, 1, 70, 80
3, 278208, Note_on_c, 1, 65, 80
3, 278208, Note_on_c, 1, 62, 80
3, 278396, Note_off_c, 1, 70, 100
3, 278396, Note_off_c, 1, 65, 100
3, 278396, Note_off_c, 1, 62, 100
3, 278400, Note_on_c, 1, 70, 80
3, 278400, Note_on_c, 1, 65, 80
3, 278400, Note_on_c, 1, 62, 80
3, 278588, Note_off_c, 1, 70, 100
3, 278588, Note_off_c, 1, 65, 100
3, 278588, Note_off_c, 1, 62, 100
3, 278592, Note_on_c, 1, 70, 80
3, 278592, Note_on_c, 1, 65, 80
3, 278592, Note_on_c, 1, 62, 80
3, 278780, Note_off_c, 1, 70, 100
3, 278780, Note_off_c, 1, 65, 100
3, 278780, Note_off_c, 1, 62, 100
3, 278784, Note_on_c, 1, 70, 80
3, 278784, Note_on_c, 1, 65, 80
3, 278784, Note_on_c, 1, 62, 80
3, 278972, Note_off_c, 1, 70, 100
3, 278972, Note_off_c, 1, 65, 100
3, 278972, Note_off_c, 1, 62, 100
3, 278976, Note_on_c, 1, 70, 80
3, 278976, Note_on_c, 1, 65, 80
3, 278976, Note_on_c, 1, 62, 80
3, 279164, Note_off_c, 1, 70, 100
3, 279164, Note_off_c, 1, 65, 100
3, 279164, Note_off_c, 1, 62, 100
3, 279168, Note_on_c, 1, 70, 80
3, 279168, Note_on_c, 1, 65, 80
3, 279168, Note_on_c, 1, 62, 80
3, 279356, Note_off_c, 1, 70, 100
3, 279356, Note_off_c, 1, 65, 100
3, 279356, Note_off_c, 1, 62, 100
3, 279360, Note_on_c, 1, 70, 80
3, 279360, Note_on_c, 1, 65, 80
3, 279360, Note_on_c, 1, 62, 80
3, 279548, Note_off_c, 1, 70, 100
3, 279548, Note_off_c, 1, 65, 100
3, 279548, Note_off_c, 1, 62, 100
3, 279552, Note_on_c, 1, 70, 80
3, 279552, Note_on_c, 1, 65, 80
3, 279552, Note_on_c, 1, 62, 80
3, 279740, Note_off_c, 1, 70, 100
3, 279740, Note_off_c, 1, 65, 100
3, 279740, Note_off_c, 1, 62, 100
3, 279744, Note_on_c, 1, 70, 80
3, 279744, Note_on_c, 1, 65, 80
3, 279744, Note_on_c, 1, 62, 80
3, 279932, Note_off_c, 1, 70, 100
3, 279932, Note_off_c, 1, 65, 100
3, 279932, Note_off_c, 1, 62, 100
3, 279936, Note_on_c, 1, 70, 80
3, 279936, Note_on_c, 1, 65, 80
3, 279936, Note_on_c, 1, 62, 80
3, 280124, Note_off_c, 1, 70, 100
3, 280124, Note_off_c, 1, 65, 100
3, 280124, Note_off_c, 1, 62, 100
3, 280128, Note_on_c, 1, 70, 80
3, 280128, Note_on_c, 1, 65, 80
3, 280128, Note_on_c, 1, 62, 80
3, 280316, Note_off_c, 1, 70, 100
3, 280316, Note_off_c, 1, 65, 100
3, 280316, Note_off_c, 1, 62, 100
3, 280320, Note_on_c, 1, 70, 80
3, 280320, Note_on_c, 1, 65, 80
3, 280320, Note_on_c, 1, 62, 80
3, 280508, Note_off_c, 1, 70, 100
3, 280508, Note_off_c, 1, 65, 100
3, 280508, Note_off_c, 1, 62, 100
3, 280512, Note_on_c, 1, 70, 80
3, 280512, Note_on_c, 1, 65, 80
3, 280512, Note_on_c, 1, 62, 80
3, 280700, Note_off_c, 1, 70, 100
3, 280700, Note_off_c, 1, 65, 100
3, 280700, Note_off_c, 1, 62, 100
3, 280704, Note_on_c, 1, 58, 80
3, 280892, Note_off_c, 1, 58, 100
3, 280896, Note_on_c, 1, 56, 80
3, 281084, Note_off_c, 1, 56, 100
3, 281088, Note_on_c, 1, 51, 80
3, 281088, Note_on_c, 1, 55, 80
3, 281468, Note_off_c, 1, 55, 100
3, 281472, Note_on_c, 1, 60, 80
3, 281660, Note_off_c, 1, 60, 100
3, 281664, Note_on_c, 1, 58, 80
3, 282044, Note_off_c, 1, 58, 100
3, 282048, Note_on_c, 1, 55, 80
3, 282236, Note_off_c, 1, 51, 100
3, 282236, Note_off_c, 1, 55, 100
3, 282240, Note_on_c, 1, 46, 80
3, 282240, Note_on_c, 1, 53, 80
3, 282620, Note_off_c, 1, 53, 100
3, 282624, Note_on_c, 1, 60, 80
3, 282812, Note_off_c, 1, 60, 100
3, 282816, Note_on_c, 1, 58, 80
3, 283196, Note_off_c, 1, 58, 100
3, 283200, Note_on_c, 1, 53, 80
3, 283388, Note_off_c, 1, 46, 100
3, 283388, Note_off_c, 1, 53, 100
3, 283392, Note_on_c, 1, 51, 80
3, 283392, Note_on_c, 1, 55, 80
3, 283772, Note_off_c, 1, 55, 100
3, 283776, Note_on_c, 1, 60, 80
3, 283964, Note_off_c, 1, 60, 100
3, 283968, Note_on_c, 1, 58, 80
3, 284348, Note_off_c, 1, 58, 100
3, 284352, Note_on_c, 1, 55, 80
3, 284540, Note_off_c, 1, 51, 100
3, 284540, Note_off_c, 1, 55, 100
3, 284544, Note_on_c, 1, 46, 80
3, 284544, Note_on_c, 1, 53, 80
3, 284924, Note_off_c, 1, 53, 100
3, 284928, Note_on_c, 1, 60, 80
3, 285116, Note_off_c, 1, 60, 100
3, 285120, Note_on_c, 1, 58, 80
3, 285500, Note_off_c, 1, 58, 100
3, 285504, Note_on_c, 1, 53, 80
3, 285692, Note_off_c, 1, 46, 100
3, 285692, Note_off_c, 1, 53, 100
3, 285696, Note_on_c, 1, 58, 80
3, 285696, Note_on_c, 1, 51, 80
3, 285884, Note_off_c, 1, 58, 100
3, 285884, Note_off_c, 1, 51, 100
3, 285888, Note_on_c, 1, 55, 80
3, 285888, Note_on_c, 1, 58, 80
3, 285888, Note_on_c, 1, 63, 80
3, 286076, Note_off_c, 1, 55, 100
3, 286076, Note_off_c, 1, 58, 100
3, 286076, Note_off_c, 1, 63, 100
3, 286080, Note_on_c, 1, 55, 80
3, 286080, Note_on_c, 1, 58, 80
3, 286080, Note_on_c, 1, 63, 80
3, 286268, Note_off_c, 1, 55, 100
3, 286268, Note_off_c, 1, 58, 100
3, 286268, Note_off_c, 1, 63, 100
3, 286272, Note_on_c, 1, 55, 80
3, 286272, Note_on_c, 1, 58, 80
3, 286272, Note_on_c, 1, 63, 80
3, 286460, Note_off_c, 1, 55, 100
3, 286460, Note_off_c, 1, 58, 100
3, 286460, Note_off_c, 1, 63, 100
3, 286464, Note_on_c, 1, 55, 80
3, 286464, Note_on_c, 1, 58, 80
3, 286464, Note_on_c, 1, 63, 80
3, 286652, Note_off_c, 1, 55, 100
3, 286652, Note_off_c, 1, 58, 100
3, 286652, Note_off_c, 1, 63, 100
3, 286656, Note_on_c, 1, 55, 80
3, 286656, Note_on_c, 1, 59, 80
3, 286656, Note_on_c, 1, 63, 80
3, 286844, Note_off_c, 1, 55, 100
3, 286844, Note_off_c, 1, 59, 100
3, 286844, Note_off_c, 1, 63, 100
3, 287040, Note_on_c, 1, 63, 80
3, 287040, Note_on_c, 1, 60, 80
3, 287040, Note_on_c, 1, 56, 80
3, 287228, Note_off_c, 1, 63, 100
3, 287228, Note_off_c, 1, 60, 100
3, 287228, Note_off_c, 1, 56, 100
3, 287232, Note_on_c, 1, 63, 80
3, 287232, Note_on_c, 1, 60, 80
3, 287232, Note_on_c, 1, 56, 80
3, 287420, Note_off_c, 1, 63, 100
3, 287420, Note_off_c, 1, 60, 100
3, 287420, Note_off_c, 1, 56, 100
3, 287424, Note_on_c, 1, 63, 80
3, 287424, Note_on_c, 1, 60, 80
3, 287424, Note_on_c, 1, 56, 80
3, 287612, Note_off_c, 1, 63, 100
3, 287612, Note_off_c, 1, 60, 100
3, 287612, Note_off_c, 1, 56, 100
3, 287616, Note_on_c, 1, 63, 80
3, 287616, Note_on_c, 1, 60, 80
3, 287616, Note_on_c, 1, 56, 80
3, 287804, Note_off_c, 1, 63, 100
3, 287804, Note_off_c, 1, 60, 100
3, 287804, Note_off_c, 1, 56, 100
3, 287808, Note_on_c, 1, 65, 80
3, 287808, Note_on_c, 1, 63, 80
3, 287808, Note_on_c, 1, 57, 80
3, 287996, Note_off_c, 1, 65, 100
3, 287996, Note_off_c, 1, 63, 100
3, 287996, Note_off_c, 1, 57, 100
3, 288192, Note_on_c, 1, 67, 80
3, 288192, Note_on_c, 1, 63, 80
3, 288192, Note_on_c, 1, 58, 80
3, 288380, Note_off_c, 1, 67, 100
3, 288380, Note_off_c, 1, 63, 100
3, 288380, Note_off_c, 1, 58, 100
3, 288384, Note_on_c, 1, 67, 80
3, 288384, Note_on_c, 1, 63, 80
3, 288384, Note_on_c, 1, 58, 80
3, 288572, Note_off_c, 1, 67, 100
3, 288572, Note_off_c, 1, 63, 100
3, 288572, Note_off_c, 1, 58, 100
3, 288576, Note_on_c, 1, 67, 80
3, 288576, Note_on_c, 1, 63, 80
3, 288576, Note_on_c, 1, 58, 80
3, 288764, Note_off_c, 1, 67, 100
3, 288764, Note_off_c, 1, 63, 100
3, 288764, Note_off_c, 1, 58, 100
3, 288768, Note_on_c, 1, 67, 80
3, 288768, Note_on_c, 1, 63, 80
3, 288768, Note_on_c, 1, 58, 80
3, 288956, Note_off_c, 1, 67, 100
3, 288956, Note_off_c, 1, 63, 100
3, 288956, Note_off_c, 1, 58, 100
3, 288960, Note_on_c, 1, 67, 80
3, 288960, Note_on_c, 1, 63, 80
3, 288960, Note_on_c, 1, 58, 80
3, 289148, Note_off_c, 1, 67, 100
3, 289148, Note_off_c, 1, 63, 100
3, 289148, Note_off_c, 1, 58, 100
3, 289152, Note_on_c, 1, 67, 80
3, 289152, Note_on_c, 1, 63, 80
3, 289152, Note_on_c, 1, 58, 80
3, 289340, Note_off_c, 1, 67, 100
3, 289340, Note_off_c, 1, 63, 100
3, 289340, Note_off_c, 1, 58, 100
3, 289344, Note_on_c, 1, 67, 80
3, 289344, Note_on_c, 1, 63, 80
3, 289344, Note_on_c, 1, 58, 80
3, 289532, Note_off_c, 1, 67, 100
3, 289532, Note_off_c, 1, 63, 100
3, 289532, Note_off_c, 1, 58, 100
3, 289536, Note_on_c, 1, 67, 80
3, 289536, Note_on_c, 1, 63, 80
3, 289536, Note_on_c, 1, 58, 80
3, 289724, Note_off_c, 1, 67, 100
3, 289724, Note_off_c, 1, 63, 100
3, 289724, Note_off_c, 1, 58, 100
3, 289728, Note_on_c, 1, 58, 80
3, 289728, Note_on_c, 1, 62, 80
3, 289728, Note_on_c, 1, 68, 80
3, 289916, Note_off_c, 1, 58, 100
3, 289916, Note_off_c, 1, 62, 100
3, 289916, Note_off_c, 1, 68, 100
3, 289920, Note_on_c, 1, 58, 80
3, 289920, Note_on_c, 1, 62, 80
3, 289920, Note_on_c, 1, 68, 80
3, 290108, Note_off_c, 1, 58, 100
3, 290108, Note_off_c, 1, 62, 100
3, 290108, Note_off_c, 1, 68, 100
3, 290112, Note_on_c, 1, 58, 80
3, 290112, Note_on_c, 1, 62, 80
3, 290112, Note_on_c, 1, 68, 80
3, 290300, Note_off_c, 1, 58, 100
3, 290300, Note_off_c, 1, 62, 100
3, 290300, Note_off_c, 1, 68, 100
3, 290304, Note_on_c, 1, 63, 80
3, 290304, Note_on_c, 1, 67, 80
3, 290684, Note_off_c, 1, 67, 100
3, 290688, Note_on_c, 1, 72, 80
3, 290876, Note_off_c, 1, 72, 100
3, 290880, Note_on_c, 1, 70, 80
3, 291260, Note_off_c, 1, 70, 100
3, 291264, Note_on_c, 1, 67, 80
3, 291452, Note_off_c, 1, 63, 100
3, 291452, Note_off_c, 1, 67, 100
3, 291456, Note_on_c, 1, 58, 80
3, 291456, Note_on_c, 1, 65, 80
3, 291836, Note_off_c, 1, 65, 100
3, 291840, Note_on_c, 1, 72, 80
3, 292028, Note_off_c, 1, 72, 100
3, 292032, Note_on_c, 1, 70, 80
3, 292412, Note_off_c, 1, 70, 100
3, 292416, Note_on_c, 1, 65, 80
3, 292604, Note_off_c, 1, 58, 100
3, 292604, Note_off_c, 1, 65, 100
3, 292608, Note_on_c, 1, 63, 80
3, 292608, Note_on_c, 1, 67, 80
3, 292988, Note_off_c, 1, 67, 100
3, 292992, Note_on_c, 1, 72, 80
3, 293180, Note_off_c, 1, 72, 100
3, 293184, Note_on_c, 1, 70, 80
3, 293564, Note_off_c, 1, 70, 100
3, 293568, Note_on_c, 1, 67, 80
3, 293756, Note_off_c, 1, 63, 100
3, 293756, Note_off_c, 1, 67, 100
3, 293760, Note_on_c, 1, 58, 80
3, 293760, Note_on_c, 1, 65, 80
3, 294140, Note_off_c, 1, 65, 100
3, 294144, Note_on_c, 1, 72, 80
3, 294332, Note_off_c, 1, 72, 100
3, 294336, Note_on_c, 1, 70, 80
3, 294716, Note_off_c, 1, 70, 100
3, 294720, Note_on_c, 1, 65, 80
3, 294908, Note_off_c, 1, 58, 100
3, 294908, Note_off_c, 1, 65, 100
3, 294912, Note_on_c, 1, 63, 80
3, 295008, Note_on_c, 1, 67, 80
3, 295096, Note_off_c, 1, 63, 100
3, 295104, Note_on_c, 1, 68, 80
3, 295192, Note_off_c, 1, 67, 100
3, 295200, Note_on_c, 1, 70, 80
3, 295288, Note_off_c, 1, 68, 100
3, 295296, Note_on_c, 1, 72, 80
3, 295384, Note_off_c, 1, 70, 100
3, 295392, Note_on_c, 1, 74, 80
3, 295480, Note_off_c, 1, 72, 100
3, 295488, Note_on_c, 1, 75, 80
3, 295574, Note_off_c, 1, 74, 100
3, 295584, Note_on_c, 1, 74, 80
3, 295678, Note_off_c, 1, 75, 100
3, 295680, Note_on_c, 1, 72, 80
3, 295772, Note_off_c, 1, 74, 100
3, 295776, Note_on_c, 1, 70, 80
3, 295866, Note_off_c, 1, 72, 100
3, 295872, Note_on_c, 1, 68, 80
3, 295964, Note_off_c, 1, 70, 100
3, 295968, Note_on_c, 1, 67, 80
3, 296058, Note_off_c, 1, 68, 100
3, 296064, Note_on_c, 1, 68, 80
3, 296158, Note_off_c, 1, 67, 100
3, 296160, Note_on_c, 1, 72, 80
3, 296246, Note_off_c, 1, 68, 100
3, 296256, Note_on_c, 1, 74, 80
3, 296350, Note_off_c, 1, 72, 100
3, 296352, Note_on_c, 1, 75, 80
3, 296442, Note_off_c, 1, 74, 100
3, 296448, Note_on_c, 1, 77, 80
3, 296542, Note_off_c, 1, 75, 100
3, 296544, Note_on_c, 1, 79, 80
3, 296636, Note_off_c, 1, 77, 100
3, 296640, Note_on_c, 1, 80, 80
3, 296734, Note_off_c, 1, 79, 100
3, 296736, Note_on_c, 1, 79, 80
3, 296828, Note_off_c, 1, 80, 100
3, 296832, Note_on_c, 1, 77, 80
3, 296918, Note_off_c, 1, 79, 100
3, 296928, Note_on_c, 1, 75, 80
3, 297018, Note_off_c, 1, 77, 100
3, 297024, Note_on_c, 1, 74, 80
3, 297108, Note_off_c, 1, 75, 100
3, 297120, Note_on_c, 1, 72, 80
3, 297208, Note_off_c, 1, 74, 100
3, 297216, Note_on_c, 1, 70, 80
3, 297306, Note_off_c, 1, 72, 100
3, 297312, Note_on_c, 1, 58, 80
3, 297406, Note_off_c, 1, 70, 100
3, 297408, Note_on_c, 1, 63, 80
3, 297498, Note_off_c, 1, 58, 100
3, 297504, Note_on_c, 1, 67, 80
3, 297592, Note_off_c, 1, 63, 100
3, 297600, Note_on_c, 1, 70, 80
3, 297694, Note_off_c, 1, 67, 100
3, 297696, Note_on_c, 1, 75, 80
3, 297786, Note_off_c, 1, 70, 100
3, 297792, Note_on_c, 1, 79, 80
3, 297884, Note_off_c, 1, 75, 100
3, 297888, Note_on_c, 1, 75, 80
3, 297980, Note_off_c, 1, 79, 100
3, 297984, Note_on_c, 1, 82, 80
3, 298078, Note_off_c, 1, 75, 100
3, 298080, Note_on_c, 1, 79, 80
3, 298172, Note_off_c, 1, 82, 100
3, 298176, Note_on_c, 1, 75, 80
3, 298270, Note_off_c, 1, 79, 100
3, 298272, Note_on_c, 1, 70, 80
3, 298358, Note_off_c, 1, 75, 100
3, 298364, Note_off_c, 1, 70, 100
3, 298368, Note_on_c, 1, 70, 80
3, 298368, Note_on_c, 1, 77, 80
3, 298416, Note_on_c, 1, 79, 80
3, 298450, Note_off_c, 1, 77, 100
3, 298464, Note_on_c, 1, 77, 80
3, 298504, Note_off_c, 1, 79, 100
3, 298512, Note_on_c, 1, 79, 80
3, 298548, Note_off_c, 1, 77, 100
3, 298556, Note_off_c, 1, 70, 100
3, 298560, Note_on_c, 1, 77, 80
3, 298596, Note_off_c, 1, 79, 100
3, 298608, Note_on_c, 1, 79, 80
3, 298642, Note_off_c, 1, 77, 100
3, 298656, Note_on_c, 1, 77, 80
3, 298696, Note_off_c, 1, 79, 100
3, 298704, Note_on_c, 1, 79, 80
3, 298740, Note_off_c, 1, 77, 100
3, 298752, Note_on_c, 1, 77, 80
3, 298788, Note_off_c, 1, 79, 100
3, 298800, Note_on_c, 1, 79, 80
3, 298834, Note_off_c, 1, 77, 100
3, 298848, Note_on_c, 1, 77, 80
3, 298888, Note_off_c, 1, 79, 100
3, 298896, Note_on_c, 1, 79, 80
3, 298932, Note_off_c, 1, 77, 100
3, 298944, Note_on_c, 1, 77, 80
3, 298980, Note_off_c, 1, 79, 100
3, 298992, Note_on_c, 1, 79, 80
3, 299026, Note_off_c, 1, 77, 100
3, 299040, Note_on_c, 1, 77, 80
3, 299080, Note_off_c, 1, 79, 100
3, 299088, Note_on_c, 1, 79, 80
3, 299124, Note_off_c, 1, 77, 100
3, 299136, Note_on_c, 1, 77, 80
3, 299172, Note_off_c, 1, 79, 100
3, 299184, Note_on_c, 1, 79, 80
3, 299218, Note_off_c, 1, 77, 100
3, 299232, Note_on_c, 1, 77, 80
3, 299272, Note_off_c, 1, 79, 100
3, 299280, Note_on_c, 1, 79, 80
3, 299316, Note_off_c, 1, 77, 100
3, 299328, Note_on_c, 1, 77, 80
3, 299364, Note_off_c, 1, 79, 100
3, 299376, Note_on_c, 1, 79, 80
3, 299410, Note_off_c, 1, 77, 100
3, 299424, Note_on_c, 1, 75, 80
3, 299464, Note_off_c, 1, 79, 100
3, 299472, Note_on_c, 1, 77, 80
3, 299508, Note_off_c, 1, 75, 100
3, 299516, Note_off_c, 1, 77, 100
3, 299520, Note_on_c, 1, 70, 90
3, 299616, Note_on_c, 1, 76, 90
3, 299704, Note_off_c, 1, 70, 100
3, 299712, Note_on_c, 1, 77, 90
3, 299802, Note_off_c, 1, 76, 100
3, 299808, Note_on_c, 1, 79, 90
3, 299900, Note_off_c, 1, 77, 100
3, 299904, Note_on_c, 1, 77, 91
3, 299998, Note_off_c, 1, 79, 100
3, 300000, Note_on_c, 1, 76, 91
3, 300090, Note_off_c, 1, 77, 100
3, 300096, Note_on_c, 1, 68, 91
3, 300184, Note_off_c, 1, 76, 100
3, 300192, Note_on_c, 1, 77, 91
3, 300282, Note_off_c, 1, 68, 100
3, 300288, Note_on_c, 1, 79, 92
3, 300376, Note_off_c, 1, 77, 100
3, 300384, Note_on_c, 1, 80, 92
3, 300478, Note_off_c, 1, 79, 100
3, 300480, Note_on_c, 1, 79, 92
3, 300568, Note_off_c, 1, 80, 100
3, 300576, Note_on_c, 1, 77, 92
3, 300668, Note_off_c, 1, 79, 100
3, 300668, Note_off_c, 1, 77, 100
3, 300672, Note_on_c, 1, 56, 93
3, 300768, Note_on_c, 1, 62, 93
3, 300856, Note_off_c, 1, 56, 100
3, 300864, Note_on_c, 1, 63, 93
3, 300954, Note_off_c, 1, 62, 100
3, 300960, Note_on_c, 1, 65, 93
3, 301050, Note_off_c, 1, 63, 100
3, 301056, Note_on_c, 1, 63, 94
3, 301148, Note_off_c, 1, 65, 100
3, 301152, Note_on_c, 1, 62, 94
3, 301240, Note_off_c, 1, 63, 100
3, 301248, Note_on_c, 1, 55, 94
3, 301342, Note_off_c, 1, 62, 100
3, 301344, Note_on_c, 1, 63, 94
3, 301432, Note_off_c, 1, 55, 100
3, 301440, Note_on_c, 1, 65, 95
3, 301534, Note_off_c, 1, 63, 100
3, 301536, Note_on_c, 1, 67, 95
3, 301628, Note_off_c, 1, 65, 100
3, 301632, Note_on_c, 1, 65, 95
3, 301722, Note_off_c, 1, 67, 100
3, 301728, Note_on_c, 1, 63, 95
3, 301820, Note_off_c, 1, 65, 100
3, 301820, Note_off_c, 1, 63, 100
3, 301824, Note_on_c, 1, 46, 90
3, 301920, Note_on_c, 1, 52, 90
3, 302008, Note_off_c, 1, 46, 100
3, 302016, Note_on_c, 1, 53, 90
3, 302106, Note_off_c, 1, 52, 100
3, 302112, Note_on_c, 1, 55, 90
3, 302204, Note_off_c, 1, 53, 100
3, 302208, Note_on_c, 1, 53, 91
3, 302302, Note_off_c, 1, 55, 100
3, 302304, Note_on_c, 1, 52, 91
3, 302394, Note_off_c, 1, 53, 100
3, 302400, Note_on_c, 1, 44, 91
3, 302488, Note_off_c, 1, 52, 100
3, 302496, Note_on_c, 1, 53, 91
3, 302586, Note_off_c, 1, 44, 100
3, 302592, Note_on_c, 1, 55, 92
3, 302680, Note_off_c, 1, 53, 100
3, 302688, Note_on_c, 1, 56, 92
3, 302782, Note_off_c, 1, 55, 100
3, 302784, Note_on_c, 1, 55, 92
3, 302872, Note_off_c, 1, 56, 100
3, 302880, Note_on_c, 1, 53, 92
3, 302972, Note_off_c, 1, 55, 100
3, 302972, Note_off_c, 1, 53, 100
3, 302976, Note_on_c, 1, 32, 93
3, 303072, Note_on_c, 1, 38, 93
3, 303160, Note_off_c, 1, 32, 100
3, 303168, Note_on_c, 1, 39, 93
3, 303258, Note_off_c, 1, 38, 100
3, 303264, Note_on_c, 1, 41, 93
3, 303354, Note_off_c, 1, 39, 100
3, 303360, Note_on_c, 1, 39, 94
3, 303452, Note_off_c, 1, 41, 100
3, 303456, Note_on_c, 1, 38, 94
3, 303544, Note_off_c, 1, 39, 100
3, 303552, Note_on_c, 1, 31, 94
3, 303646, Note_off_c, 1, 38, 100
3, 303648, Note_on_c, 1, 39, 94
3, 303736, Note_off_c, 1, 31, 100
3, 303744, Note_on_c, 1, 41, 95
3, 303838, Note_off_c, 1, 39, 100
3, 303840, Note_on_c, 1, 43, 95
3, 303932, Note_off_c, 1, 41, 100
3, 303936, Note_on_c, 1, 41, 95
3, 304026, Note_off_c, 1, 43, 100
3, 304032, Note_on_c, 1, 39, 95
3, 304124, Note_off_c, 1, 41, 100
3, 304124, Note_off_c, 1, 39, 100
3, 304128, Note_on_c, 1, 31, 102
3, 304224, Note_on_c, 1, 34, 102
3, 304316, Note_off_c, 1, 31, 100
3, 304320, Note_on_c, 1, 39, 102
3, 304408, Note_off_c, 1, 34, 100
3, 304416, Note_on_c, 1, 43, 102
3, 304506, Note_off_c, 1, 39, 100
3, 304512, Note_on_c, 1, 39, 103
3, 304600, Note_off_c, 1, 43, 100
3, 304608, Note_on_c, 1, 34, 103
3, 304698, Note_off_c, 1, 39, 100
3, 304704, Note_on_c, 1, 36, 103
3, 304794, Note_off_c, 1, 34, 100
3, 304800, Note_on_c, 1, 39, 103
3, 304888, Note_off_c, 1, 36, 100
3, 304896, Note_on_c, 1, 43, 104
3, 304986, Note_off_c, 1, 39, 100
3, 304992, Note_on_c, 1, 48, 104
3, 305084, Note_off_c, 1, 43, 100
3, 305088, Note_on_c, 1, 43, 104
3, 305180, Note_off_c, 1, 48, 100
3, 305184, Note_on_c, 1, 39, 104
3, 305276, Note_off_c, 1, 39, 100
3, 305278, Note_off_c, 1, 43, 100
3, 305280, Note_on_c, 1, 32, 105
3, 305376, Note_on_c, 1, 36, 105
3, 305470, Note_off_c, 1, 32, 100
3, 305472, Note_on_c, 1, 41, 105
3, 305564, Note_off_c, 1, 36, 100
3, 305568, Note_on_c, 1, 44, 105
3, 305660, Note_off_c, 1, 41, 100
3, 305664, Note_on_c, 1, 41, 106
3, 305758, Note_off_c, 1, 44, 100
3, 305760, Note_on_c, 1, 36, 106
3, 305850, Note_off_c, 1, 41, 100
3, 305856, Note_on_c, 1, 34, 106
3, 305948, Note_off_c, 1, 36, 100
3, 305952, Note_on_c, 1, 41, 106
3, 306046, Note_off_c, 1, 34, 100
3, 306048, Note_on_c, 1, 44, 107
3, 306136, Note_off_c, 1, 41, 100
3, 306144, Note_on_c, 1, 46, 107
3, 306232, Note_off_c, 1, 44, 100
3, 306240, Note_on_c, 1, 44, 107
3, 306332, Note_off_c, 1, 46, 100
3, 306336, Note_on_c, 1, 41, 107
3, 306426, Note_off_c, 1, 44, 100
3, 306428, Note_off_c, 1, 41, 100
3, 306432, Note_on_c, 1, 43, 102
3, 306528, Note_on_c, 1, 46, 102
3, 306620, Note_off_c, 1, 43, 100
3, 306624, Note_on_c, 1, 51, 102
3, 306712, Note_off_c, 1, 46, 100
3, 306720, Note_on_c, 1, 55, 102
3, 306810, Note_off_c, 1, 51, 100
3, 306816, Note_on_c, 1, 51, 103
3, 306904, Note_off_c, 1, 55, 100
3, 306912, Note_on_c, 1, 46, 103
3, 307002, Note_off_c, 1, 51, 100
3, 307008, Note_on_c, 1, 48, 103
3, 307098, Note_off_c, 1, 46, 100
3, 307104, Note_on_c, 1, 51, 103
3, 307192, Note_off_c, 1, 48, 100
3, 307200, Note_on_c, 1, 55, 104
3, 307290, Note_off_c, 1, 51, 100
3, 307296, Note_on_c, 1, 60, 104
3, 307388, Note_off_c, 1, 55, 100
3, 307392, Note_on_c, 1, 55, 104
3, 307484, Note_off_c, 1, 60, 100
3, 307488, Note_on_c, 1, 51, 104
3, 307580, Note_off_c, 1, 51, 100
3, 307582, Note_off_c, 1, 55, 100
3, 307584, Note_on_c, 1, 44, 105
3, 307680, Note_on_c, 1, 48, 105
3, 307774, Note_off_c, 1, 44, 100
3, 307776, Note_on_c, 1, 53, 105
3, 307868, Note_off_c, 1, 48, 100
3, 307872, Note_on_c, 1, 56, 105
3, 307964, Note_off_c, 1, 53, 100
3, 307968, Note_on_c, 1, 53, 106
3, 308062, Note_off_c, 1, 56, 100
3, 308064, Note_on_c, 1, 48, 106
3, 308154, Note_off_c, 1, 53, 100
3, 308160, Note_on_c, 1, 46, 106
3, 308252, Note_off_c, 1, 48, 100
3, 308256, Note_on_c, 1, 53, 106
3, 308350, Note_off_c, 1, 46, 100
3, 308352, Note_on_c, 1, 56, 107
3, 308440, Note_off_c, 1, 53, 100
3, 308448, Note_on_c, 1, 58, 107
3, 308536, Note_off_c, 1, 56, 100
3, 308544, Note_on_c, 1, 56, 107
3, 308636, Note_off_c, 1, 58, 100
3, 308640, Note_on_c, 1, 53, 107
3, 308730, Note_off_c, 1, 56, 100
3, 308732, Note_off_c, 1, 53, 100
3, 308736, Note_on_c, 1, 31, 102
3, 308832, Note_on_c, 1, 34, 102
3, 308924, Note_off_c, 1, 31, 100
3, 308928, Note_on_c, 1, 39, 102
3, 309016, Note_off_c, 1, 34, 100
3, 309024, Note_on_c, 1, 43, 102
3, 309114, Note_off_c, 1, 39, 100
3, 309120, Note_on_c, 1, 39, 103
3, 309208, Note_off_c, 1, 43, 100
3, 309216, Note_on_c, 1, 34, 103
3, 309306, Note_off_c, 1, 39, 100
3, 309312, Note_on_c, 1, 36, 103
3, 309402, Note_off_c, 1, 34, 100
3, 309408, Note_on_c, 1, 39, 103
3, 309496, Note_off_c, 1, 36, 100
3, 309504, Note_on_c, 1, 43, 104
3, 309594, Note_off_c, 1, 39, 100
3, 309600, Note_on_c, 1, 48, 104
3, 309692, Note_off_c, 1, 43, 100
3, 309696, Note_on_c, 1, 43, 104
3, 309788, Note_off_c, 1, 48, 100
3, 309792, Note_on_c, 1, 39, 104
3, 309884, Note_off_c, 1, 39, 100
3, 309886, Note_off_c, 1, 43, 100
3, 309888, Note_on_c, 1, 32, 105
3, 309984, Note_on_c, 1, 36, 105
3, 310078, Note_off_c, 1, 32, 100
3, 310080, Note_on_c, 1, 41, 105
3, 310172, Note_off_c, 1, 36, 100
3, 310176, Note_on_c, 1, 44, 105
3, 310268, Note_off_c, 1, 41, 100
3, 310272, Note_on_c, 1, 41, 106
3, 310366, Note_off_c, 1, 44, 100
3, 310368, Note_on_c, 1, 36, 106
3, 310458, Note_off_c, 1, 41, 100
3, 310464, Note_on_c, 1, 34, 106
3, 310556, Note_off_c, 1, 36, 100
3, 310560, Note_on_c, 1, 41, 106
3, 310654, Note_off_c, 1, 34, 100
3, 310656, Note_on_c, 1, 44, 107
3, 310744, Note_off_c, 1, 41, 100
3, 310752, Note_on_c, 1, 46, 107
3, 310840, Note_off_c, 1, 44, 100
3, 310848, Note_on_c, 1, 44, 107
3, 310940, Note_off_c, 1, 46, 100
3, 310944, Note_on_c, 1, 41, 107
3, 311034, Note_off_c, 1, 44, 100
3, 311036, Note_off_c, 1, 41, 100
3, 311040, Note_on_c, 1, 39, 120
3, 311228, Note_off_c, 1, 39, 100
3, 311232, Note_on_c, 1, 51, 120
3, 311420, Note_off_c, 1, 51, 100
3, 311424, Note_on_c, 1, 51, 120
3, 311424, Note_on_c, 1, 55, 120
3, 311612, Note_off_c, 1, 51, 100
3, 311612, Note_off_c, 1, 55, 100
3, 311616, Note_on_c, 1, 51, 120
3, 311616, Note_on_c, 1, 55, 120
3, 311616, Note_on_c, 1, 58, 120
3, 311996, Note_off_c, 1, 51, 100
3, 311996, Note_off_c, 1, 55, 100
3, 311996, Note_off_c, 1, 58, 100
3, 312000, Note_on_c, 1, 58, 120
3, 312000, Note_on_c, 1, 53, 120
3, 312000, Note_on_c, 1, 46, 120
3, 312188, Note_off_c, 1, 58, 100
3, 312188, Note_off_c, 1, 53, 100
3, 312188, Note_off_c, 1, 46, 100
3, 312192, Note_on_c, 1, 58, 120
3, 312192, Note_on_c, 1, 55, 120
3, 312192, Note_on_c, 1, 51, 120
3, 312380, Note_off_c, 1, 58, 100
3, 312380, Note_off_c, 1, 55, 100
3, 312380, Note_off_c, 1, 51, 100
3, 312384, Note_on_c, 1, 51, 120
3, 312384, Note_on_c, 1, 55, 120
3, 312384, Note_on_c, 1, 58, 120
3, 312572, Note_off_c, 1, 51, 100
3, 312572, Note_off_c, 1, 55, 100
3, 312572, Note_off_c, 1, 58, 100
3, 312576, Note_on_c, 1, 58, 120
3, 312576, Note_on_c, 1, 55, 120
3, 312576, Note_on_c, 1, 51, 120
3, 312764, Note_off_c, 1, 58, 100
3, 312764, Note_off_c, 1, 55, 100
3, 312764, Note_off_c, 1, 51, 100
3, 312768, Note_on_c, 1, 58, 120
3, 312768, Note_on_c, 1, 55, 120
3, 312768, Note_on_c, 1, 51, 120
3, 313148, Note_off_c, 1, 58, 100
3, 313148, Note_off_c, 1, 55, 100
3, 313148, Note_off_c, 1, 51, 100
3, 313152, Note_on_c, 1, 58, 120
3, 313152, Note_on_c, 1, 53, 120
3, 313152, Note_on_c, 1, 46, 120
3, 313340, Note_off_c, 1, 58, 100
3, 313340, Note_off_c, 1, 53, 100
3, 313340, Note_off_c, 1, 46, 100
3, 313344, Note_on_c, 1, 58, 120
3, 313344, Note_on_c, 1, 55, 120
3, 313344, Note_on_c, 1, 51, 120
3, 313532, Note_off_c, 1, 58, 100
3, 313532, Note_off_c, 1, 55, 100
3, 313532, Note_off_c, 1, 51, 100
3, 313536, Note_on_c, 1, 51, 120
3, 313536, Note_on_c, 1, 55, 120
3, 313536, Note_on_c, 1, 58, 120
3, 313724, Note_off_c, 1, 51, 100
3, 313724, Note_off_c, 1, 55, 100
3, 313724, Note_off_c, 1, 58, 100
3, 313728, Note_on_c, 1, 58, 120
3, 313728, Note_on_c, 1, 55, 120
3, 313728, Note_on_c, 1, 51, 120
3, 313916, Note_off_c, 1, 58, 100
3, 313916, Note_off_c, 1, 55, 100
3, 313916, Note_off_c, 1, 51, 100
3, 313920, Note_on_c, 1, 58, 120
3, 313920, Note_on_c, 1, 55, 120
3, 313920, Note_on_c, 1, 51, 120
3, 314300, Note_off_c, 1, 58, 100
3, 314300, Note_off_c, 1, 55, 100
3, 314300, Note_off_c, 1, 51, 100
3, 314304, Note_on_c, 1, 58, 120
3, 314304, Note_on_c, 1, 53, 120
3, 314304, Note_on_c, 1, 46, 120
3, 314492, Note_off_c, 1, 58, 100
3, 314492, Note_off_c, 1, 53, 100
3, 314492, Note_off_c, 1, 46, 100
3, 314496, Control_c, 1, 64, 127
3, 314496, Note_on_c, 1, 58, 120
3, 314496, Note_on_c, 1, 55, 120
3, 314496, Note_on_c, 1, 51, 120
3, 315068, Note_off_c, 1, 58, 100
3, 315068, Note_off_c, 1, 55, 100
3, 315068, Note_off_c, 1, 51, 100
3, 315072, Note_on_c, 1, 51, 120
3, 315072, Note_on_c, 1, 39, 120
3, 315644, Note_off_c, 1, 51, 100
3, 315644, Note_off_c, 1, 39, 100
3, 315648, Note_on_c, 1, 51, 120
3, 315648, Note_on_c, 1, 39, 120
3, 316028, Note_off_c, 1, 51, 100
3, 316028, Note_off_c, 1, 39, 100
3, 316220, Control_c, 1, 64, 0
3, 316800, Note_on_c, 1, 58, 80
3, 316800, Note_on_c, 1, 55, 80
3, 316800, Note_on_c, 1, 51, 80
3, 317180, Note_off_c, 1, 58, 100
3, 317180, Note_off_c, 1, 55, 100
3, 317180, Note_off_c, 1, 51, 100
3, 317376, Note_on_c, 1, 58, 80
3, 317376, Note_on_c, 1, 56, 80
3, 317376, Note_on_c, 1, 53, 80
3, 317376, Note_on_c, 1, 46, 80
3, 317756, Note_off_c, 1, 58, 100
3, 317756, Note_off_c, 1, 56, 100
3, 317756, Note_off_c, 1, 53, 100
3, 317756, Note_off_c, 1, 46, 100
3, 317952, Note_on_c, 1, 58, 80
3, 317952, Note_on_c, 1, 55, 80
3, 317952, Note_on_c, 1, 51, 80
3, 318332, Note_off_c, 1, 58, 100
3, 318332, Note_off_c, 1, 55, 100
3, 318332, Note_off_c, 1, 51, 100
3, 318528, Note_on_c, 1, 60, 80
3, 318528, Note_on_c, 1, 55, 80
3, 318528, Note_on_c, 1, 48, 80
3, 318716, Note_off_c, 1, 60, 100
3, 318716, Note_off_c, 1, 55, 100
3, 318716, Note_off_c, 1, 48, 100
3, 318912, Note_on_c, 1, 60, 80
3, 318912, Note_on_c, 1, 58, 80
3, 318912, Note_on_c, 1, 55, 80
3, 318912, Note_on_c, 1, 52, 80
3, 319100, Note_off_c, 1, 60, 100
3, 319100, Note_off_c, 1, 58, 100
3, 319100, Note_off_c, 1, 55, 100
3, 319100, Note_off_c, 1, 52, 100
3, 319104, Note_on_c, 1, 60, 80
3, 319104, Note_on_c, 1, 56, 80
3, 319104, Note_on_c, 1, 53, 80
3, 319484, Note_off_c, 1, 60, 100
3, 319484, Note_off_c, 1, 56, 100
3, 319484, Note_off_c, 1, 53, 100
3, 319680, Note_on_c, 1, 62, 80
3, 319680, Note_on_c, 1, 57, 80
3, 319680, Note_on_c, 1, 50, 80
3, 319868, Note_off_c, 1, 62, 100
3, 319868, Note_off_c, 1, 57, 100
3, 319868, Note_off_c, 1, 50, 100
3, 320064, Note_on_c, 1, 62, 80
3, 320064, Note_on_c, 1, 57, 80
3, 320064, Note_on_c, 1, 54, 80
3, 320252, Note_off_c, 1, 62, 100
3, 320252, Note_off_c, 1, 57, 100
3, 320252, Note_off_c, 1, 54, 100
3, 320256, Note_on_c, 1, 62, 80
3, 320256, Note_on_c, 1, 58, 80
3, 320256, Note_on_c, 1, 55, 80
3, 320636, Note_off_c, 1, 62, 100
3, 320636, Note_off_c, 1, 58, 100
3, 320636, Note_off_c, 1, 55, 100
3, 320832, Note_on_c, 1, 62, 80
3, 320832, Note_on_c, 1, 58, 80
3, 320832, Note_on_c, 1, 56, 80
3, 320832, Note_on_c, 1, 53, 80
3, 321212, Note_off_c, 1, 62, 100
3, 321212, Note_off_c, 1, 58, 100
3, 321212, Note_off_c, 1, 56, 100
3, 321212, Note_off_c, 1, 53, 100
3, 321408, Note_on_c, 1, 58, 80
3, 321408, Note_on_c, 1, 55, 80
3, 321408, Note_on_c, 1, 51, 80
3, 321408, Note_on_c, 1, 63, 80
3, 321788, Note_off_c, 1, 58, 100
3, 321788, Note_off_c, 1, 55, 100
3, 321788, Note_off_c, 1, 51, 100
3, 321788, Note_off_c, 1, 63, 100
3, 322560, Note_on_c, 1, 63, 80
3, 322748, Note_off_c, 1, 63, 100
3, 322752, Note_on_c, 1, 58, 80
3, 322940, Note_off_c, 1, 58, 100
3, 322944, Note_on_c, 1, 55, 80
3, 323132, Note_off_c, 1, 55, 100
3, 323136, Note_on_c, 1, 55, 80
3, 323324, Note_off_c, 1, 55, 100
3, 323328, Note_on_c, 1, 58, 80
3, 323516, Note_off_c, 1, 58, 100
3, 323520, Note_on_c, 1, 63, 80
3, 323708, Note_off_c, 1, 63, 100
3, 323712, Note_on_c, 1, 43, 80
3, 323712, Note_on_c, 1, 39, 80
3, 323900, Note_off_c, 1, 43, 100
3, 323900, Note_off_c, 1, 39, 100
3, 323904, Note_on_c, 1, 46, 80
3, 323904, Note_on_c, 1, 43, 80
3, 324092, Note_off_c, 1, 46, 100
3, 324092, Note_off_c, 1, 43, 100
3, 324096, Note_on_c, 1, 51, 80
3, 324096, Note_on_c, 1, 46, 80
3, 324284, Note_off_c, 1, 51, 100
3, 324284, Note_off_c, 1, 46, 100
3, 324288, Note_on_c, 1, 46, 80
3, 324288, Note_on_c, 1, 43, 80
3, 324476, Note_off_c, 1, 46, 100
3, 324476, Note_off_c, 1, 43, 100
3, 324480, Note_on_c, 1, 51, 80
3, 324480, Note_on_c, 1, 46, 80
3, 324668, Note_off_c, 1, 51, 100
3, 324668, Note_off_c, 1, 46, 100
3, 324672, Note_on_c, 1, 55, 80
3, 324672, Note_on_c, 1, 51, 80
3, 324860, Note_off_c, 1, 55, 100
3, 324860, Note_off_c, 1, 51, 100
3, 324864, Note_on_c, 1, 51, 80
3, 324864, Note_on_c, 1, 46, 80
3, 325052, Note_off_c, 1, 51, 100
3, 325052, Note_off_c, 1, 46, 100
3, 325056, Note_on_c, 1, 55, 80
3, 325056, Note_on_c, 1, 51, 80
3, 325244, Note_off_c, 1, 55, 100
3, 325244, Note_off_c, 1, 51, 100
3, 325248, Note_on_c, 1, 58, 80
3, 325248, Note_on_c, 1, 55, 80
3, 325436, Note_off_c, 1, 58, 100
3, 325436, Note_off_c, 1, 55, 100
3, 325632, Note_on_c, 1, 53, 80
3, 325632, Note_on_c, 1, 46, 80
3, 325820, Note_off_c, 1, 53, 100
3, 325820, Note_off_c, 1, 46, 100
3, 325824, Note_on_c, 1, 46, 80
3, 325824, Note_on_c, 1, 58, 80
3, 326012, Note_off_c, 1, 46, 100
3, 326012, Note_off_c, 1, 58, 100
3, 326016, Note_on_c, 1, 58, 80
3, 326016, Note_on_c, 1, 55, 80
3, 326016, Note_on_c, 1, 51, 80
3, 326396, Note_off_c, 1, 58, 100
3, 326396, Note_off_c, 1, 55, 100
3, 326396, Note_off_c, 1, 51, 100
3, 327168, Note_on_c, 1, 51, 80
3, 327168, Note_on_c, 1, 63, 80
3, 327260, Note_off_c, 1, 63, 100
3, 327264, Note_on_c, 1, 62, 80
3, 327356, Note_off_c, 1, 62, 100
3, 327360, Note_on_c, 1, 63, 80
3, 327452, Note_off_c, 1, 63, 100
3, 327456, Note_on_c, 1, 58, 80
3, 327548, Note_off_c, 1, 58, 100
3, 327552, Note_on_c, 1, 55, 80
3, 327740, Note_off_c, 1, 51, 100
3, 327740, Note_off_c, 1, 55, 100
3, 327744, Note_on_c, 1, 56, 80
3, 327764, Note_off_c, 1, 56, 100
3, 327768, Note_on_c, 1, 55, 80
3, 327836, Note_off_c, 1, 55, 100
3, 327840, Note_on_c, 1, 54, 80
3, 327932, Note_off_c, 1, 54, 100
3, 327936, Note_on_c, 1, 55, 80
3, 328028, Note_off_c, 1, 55, 100
3, 328032, Note_on_c, 1, 58, 80
3, 328124, Note_off_c, 1, 58, 100
3, 328128, Note_on_c, 1, 63, 80
3, 328316, Note_off_c, 1, 63, 100
3, 328320, Note_on_c, 1, 39, 80
3, 328412, Note_off_c, 1, 39, 100
3, 328416, Note_on_c, 1, 38, 80
3, 328508, Note_off_c, 1, 38, 100
3, 328512, Note_on_c, 1, 39, 80
3, 328604, Note_off_c, 1, 39, 100
3, 328608, Note_on_c, 1, 43, 80
3, 328700, Note_off_c, 1, 43, 100
3, 328704, Note_on_c, 1, 46, 80
3, 328892, Note_off_c, 1, 46, 100
3, 328896, Note_on_c, 1, 43, 80
3, 328988, Note_off_c, 1, 43, 100
3, 328992, Note_on_c, 1, 41, 80
3, 329084, Note_off_c, 1, 41, 100
3, 329088, Note_on_c, 1, 43, 80
3, 329180, Note_off_c, 1, 43, 100
3, 329184, Note_on_c, 1, 46, 80
3, 329276, Note_off_c, 1, 46, 100
3, 329280, Note_on_c, 1, 51, 80
3, 329468, Note_off_c, 1, 51, 100
3, 329472, Note_on_c, 1, 46, 80
3, 329564, Note_off_c, 1, 46, 100
3, 329568, Note_on_c, 1, 45, 80
3, 329660, Note_off_c, 1, 45, 100
3, 329664, Note_on_c, 1, 46, 79
3, 329756, Note_off_c, 1, 46, 100
3, 329760, Note_on_c, 1, 51, 78
3, 329852, Note_off_c, 1, 51, 100
3, 329856, Note_on_c, 1, 55, 77
3, 330044, Note_off_c, 1, 55, 100
3, 330240, Note_on_c, 1, 53, 73
3, 330240, Note_on_c, 1, 46, 73
3, 330428, Note_off_c, 1, 53, 100
3, 330428, Note_off_c, 1, 46, 100
3, 330432, Note_on_c, 1, 58, 71
3, 330432, Note_on_c, 1, 46, 71
3, 330620, Note_off_c, 1, 58, 100
3, 330620, Note_off_c, 1, 46, 100
3, 330624, Note_on_c, 1, 43, 70
3, 330624, Note_on_c, 1, 39, 70
3, 330812, Note_off_c, 1, 43, 100
3, 330812, Note_off_c, 1, 39, 100
3, 330816, Note_on_c, 1, 46, 71
3, 330816, Note_on_c, 1, 43, 71
3, 331004, Note_off_c, 1, 46, 100
3, 331004, Note_off_c, 1, 43, 100
3, 331008, Note_on_c, 1, 51, 73
3, 331008, Note_on_c, 1, 46, 73
3, 331196, Note_off_c, 1, 51, 100
3, 331196, Note_off_c, 1, 46, 100
3, 331200, Note_on_c, 1, 46, 74
3, 331200, Note_on_c, 1, 43, 74
3, 331388, Note_off_c, 1, 46, 100
3, 331388, Note_off_c, 1, 43, 100
3, 331392, Note_on_c, 1, 51, 76
3, 331392, Note_on_c, 1, 46, 76
3, 331580, Note_off_c, 1, 51, 100
3, 331580, Note_off_c, 1, 46, 100
3, 331584, Note_on_c, 1, 55, 77
3, 331584, Note_on_c, 1, 51, 77
3, 331772, Note_off_c, 1, 55, 100
3, 331772, Note_off_c, 1, 51, 100
3, 331776, Note_on_c, 1, 51, 79
3, 331776, Note_on_c, 1, 46, 79
3, 331964, Note_off_c, 1, 51, 100
3, 331964, Note_off_c, 1, 46, 100
3, 331968, Note_on_c, 1, 55, 81
3, 331968, Note_on_c, 1, 51, 81
3, 332156, Note_off_c, 1, 55, 100
3, 332156, Note_off_c, 1, 51, 100
3, 332160, Note_on_c, 1, 58, 82
3, 332160, Note_on_c, 1, 51, 82
3, 332160, Note_on_c, 1, 46, 82
3, 332348, Note_off_c, 1, 58, 100
3, 332348, Note_off_c, 1, 51, 100
3, 332348, Note_off_c, 1, 46, 100
3, 332352, Note_on_c, 1, 46, 84
3, 332352, Note_on_c, 1, 58, 84
3, 332352, Note_on_c, 1, 53, 84
3, 332540, Note_off_c, 1, 46, 100
3, 332540, Note_off_c, 1, 58, 100
3, 332540, Note_off_c, 1, 53, 100
3, 332544, Note_on_c, 1, 46, 80
3, 332544, Note_on_c, 1, 58, 80
3, 332544, Note_on_c, 1, 53, 80
3, 332732, Note_off_c, 1, 46, 100
3, 332732, Note_off_c, 1, 58, 100
3, 332732, Note_off_c, 1, 53, 100
3, 332736, Note_on_c, 1, 46, 74
3, 332736, Note_on_c, 1, 58, 74
3, 332736, Note_on_c, 1, 56, 74
3, 332924, Note_off_c, 1, 46, 100
3, 332924, Note_off_c, 1, 58, 100
3, 332924, Note_off_c, 1, 56, 100
3, 332928, Note_on_c, 1, 70, 110
3, 333116, Note_off_c, 1, 70, 100
3, 333120, Note_on_c, 1, 67, 110
3, 333308, Note_off_c, 1, 67, 100
3, 333312, Note_on_c, 1, 63, 110
3, 333500, Note_off_c, 1, 63, 100
3, 333504, Note_on_c, 1, 67, 110
3, 333692, Note_off_c, 1, 67, 100
3, 333696, Note_on_c, 1, 63, 110
3, 333884, Note_off_c, 1, 63, 100
3, 333888, Note_on_c, 1, 58, 110
3, 334076, Note_off_c, 1, 58, 100
3, 334080, Note_on_c, 1, 63, 110
3, 334268, Note_off_c, 1, 63, 100
3, 334272, Note_on_c, 1, 58, 110
3, 334460, Note_off_c, 1, 58, 100
3, 334464, Note_on_c, 1, 55, 110
3, 334652, Note_off_c, 1, 55, 100
3, 334656, Note_on_c, 1, 58, 110
3, 334844, Note_off_c, 1, 58, 100
3, 334848, Note_on_c, 1, 56, 110
3, 335036, Note_off_c, 1, 56, 100
3, 335040, Note_on_c, 1, 53, 110
3, 335040, Note_on_c, 1, 46, 110
3, 335228, Note_off_c, 1, 53, 100
3, 335228, Note_off_c, 1, 46, 100
3, 335232, Control_c, 1, 64, 127
3, 335232, Note_on_c, 1, 51, 110
3, 335232, Note_on_c, 1, 39, 110
3, 335420, Note_off_c, 1, 51, 100
3, 335420, Note_off_c, 1, 39, 100
3, 335424, Note_on_c, 1, 63, 110
3, 335424, Note_on_c, 1, 58, 110
3, 335424, Note_on_c, 1, 55, 110
3, 335424, Note_on_c, 1, 51, 110
3, 335612, Note_off_c, 1, 63, 100
3, 335612, Note_off_c, 1, 58, 100
3, 335612, Note_off_c, 1, 55, 100
3, 335612, Note_off_c, 1, 51, 100
3, 335616, Note_on_c, 1, 63, 110
3, 335616, Note_on_c, 1, 58, 110
3, 335616, Note_on_c, 1, 55, 110
3, 335616, Note_on_c, 1, 51, 110
3, 335804, Note_off_c, 1, 63, 100
3, 335804, Note_off_c, 1, 58, 100
3, 335804, Note_off_c, 1, 55, 100
3, 335804, Note_off_c, 1, 51, 100
3, 335808, Note_on_c, 1, 63, 110
3, 335808, Note_on_c, 1, 58, 110
3, 335808, Note_on_c, 1, 55, 110
3, 335808, Note_on_c, 1, 51, 110
3, 335996, Note_off_c, 1, 63, 100
3, 335996, Note_off_c, 1, 58, 100
3, 335996, Note_off_c, 1, 55, 100
3, 335996, Note_off_c, 1, 51, 100
3, 336000, Note_on_c, 1, 63, 110
3, 336000, Note_on_c, 1, 58, 110
3, 336000, Note_on_c, 1, 55, 110
3, 336000, Note_on_c, 1, 51, 110
3, 336188, Note_off_c, 1, 63, 100
3, 336188, Note_off_c, 1, 58, 100
3, 336188, Note_off_c, 1, 55, 100
3, 336188, Note_off_c, 1, 51, 100
3, 336192, Note_on_c, 1, 63, 110
3, 336192, Note_on_c, 1, 58, 110
3, 336192, Note_on_c, 1, 55, 110
3, 336192, Note_on_c, 1, 51, 110
3, 336380, Note_off_c, 1, 63, 100
3, 336380, Note_off_c, 1, 58, 100
3, 336380, Note_off_c, 1, 55, 100
3, 336380, Note_off_c, 1, 51, 100
3, 336384, Note_on_c, 1, 63, 110
3, 336384, Note_on_c, 1, 58, 110
3, 336384, Note_on_c, 1, 55, 110
3, 336384, Note_on_c, 1, 51, 110
3, 336572, Note_off_c, 1, 63, 100
3, 336572, Note_off_c, 1, 58, 100
3, 336572, Note_off_c, 1, 55, 100
3, 336572, Note_off_c, 1, 51, 100
3, 336576, Note_on_c, 1, 63, 110
3, 336576, Note_on_c, 1, 58, 110
3, 336576, Note_on_c, 1, 55, 110
3, 336576, Note_on_c, 1, 51, 110
3, 336764, Note_off_c, 1, 63, 100
3, 336764, Note_off_c, 1, 58, 100
3, 336764, Note_off_c, 1, 55, 100
3, 336764, Note_off_c, 1, 51, 100
3, 336768, Note_on_c, 1, 63, 110
3, 336768, Note_on_c, 1, 58, 110
3, 336768, Note_on_c, 1, 55, 110
3, 336768, Note_on_c, 1, 51, 110
3, 336956, Note_off_c, 1, 63, 100
3, 336956, Note_off_c, 1, 58, 100
3, 336956, Note_off_c, 1, 55, 100
3, 336956, Note_off_c, 1, 51, 100
3, 336960, Note_on_c, 1, 63, 110
3, 336960, Note_on_c, 1, 58, 110
3, 336960, Note_on_c, 1, 55, 110
3, 336960, Note_on_c, 1, 51, 110
3, 337148, Note_off_c, 1, 63, 100
3, 337148, Note_off_c, 1, 58, 100
3, 337148, Note_off_c, 1, 55, 100
3, 337148, Note_off_c, 1, 51, 100
3, 337152, Note_on_c, 1, 63, 110
3, 337152, Note_on_c, 1, 58, 110
3, 337152, Note_on_c, 1, 55, 110
3, 337152, Note_on_c, 1, 51, 110
3, 337340, Note_off_c, 1, 63, 100
3, 337340, Note_off_c, 1, 58, 100
3, 337340, Note_off_c, 1, 55, 100
3, 337340, Note_off_c, 1, 51, 100
3, 337344, Note_on_c, 1, 63, 110
3, 337344, Note_on_c, 1, 58, 110
3, 337344, Note_on_c, 1, 55, 110
3, 337344, Note_on_c, 1, 51, 110
3, 337532, Note_off_c, 1, 63, 100
3, 337532, Note_off_c, 1, 58, 100
3, 337532, Note_off_c, 1, 55, 100
3, 337532, Note_off_c, 1, 51, 100
3, 337536, Note_on_c, 1, 63, 110
3, 337536, Note_on_c, 1, 58, 110
3, 337536, Note_on_c, 1, 55, 110
3, 337536, Note_on_c, 1, 51, 110
3, 337916, Note_off_c, 1, 63, 100
3, 337916, Note_off_c, 1, 58, 100
3, 337916, Note_off_c, 1, 55, 100
3, 337916, Note_off_c, 1, 51, 100
3, 338108, Control_c, 1, 64, 0
3, 338112, Note_on_c, 1, 58, 110
3, 338112, Note_on_c, 1, 46, 110
3, 338492, Note_off_c, 1, 58, 100
3, 338492, Note_off_c, 1, 46, 100
3, 338688, Note_on_c, 1, 51, 110
3, 338688, Note_on_c, 1, 39, 110
3, 339452, Note_off_c, 1, 51, 100
3, 339452, Note_off_c, 1, 39, 100
3, 339452, End_track
0, 0, End_of_file
