0, 0, Header, 1, 3, 384
1, 0, Start_track
1, 0, Title_t, "L.v.Beethoven 1mov - Piano Sonata No.26 in Eb Major Op.81a\000"
1, 0, Copyright_t, "Copyright(C) 1995-2009, Suzuki Software\000"
1, 0, Sequencer_specific, 9, 67, 123, 0, 88, 70, 48, 50, 0, 1
1, 0, Text_t, "XFhd:2000/09/17:JP:Classical::::L.v.Beethoven:::Kaoru Suzuki\000"
1, 0, Text_t, "XFln:JP:\203s\203A\203m\203\\\203i\203^\221æ26\224Ô\225Ï\203z\222·\222²\215ì\225i81a\201`\221æ1\212y\217Í:L.v.\203x\201[\203g\201[\203\224\203F\203\223:::\227é\202¿\202á\202ñ:\227é\202¿\202á\202ñ\000"
1, 0, Time_signature, 2, 2, 96, 8
1, 0, Sequencer_specific, 3, 0, 0, 65
1, 0, Sequencer_specific, 5, 0, 0, 119, 14, 0
1, 0, Tempo, 1500000
1, 2496, Tempo, 1666666
1, 2880, Tempo, 1500000
1, 3648, Tempo, 1666666
1, 4032, Tempo, 1875000
1, 4224, Tempo, 2000000
1, 4416, Tempo, 2307692
1, 4608, Tempo, 1500000
1, 8256, Tempo, 1621621
1, 8448, Tempo, 1714285
1, 9792, Tempo, 1875000
1, 10368, Tempo, 1666666
1, 11328, Tempo, 1875000
1, 11424, Tempo, 2307692
1, 11712, Tempo, 1764705
1, 12288, Time_signature, 2, 1, 96, 8
1, 12288, Tempo, 260869
1, 62592, Tempo, 285714
1, 63168, Tempo, 260869
1, 143616, Tempo, 272727
1, 144000, Tempo, 294117
1, 144576, Tempo, 260869
1, 178176, Tempo, 272727
1, 178944, Tempo, 285714
1, 179328, Tempo, 300000
1, 179520, Tempo, 333333
1, 179712, Tempo, 260869
1, 185088, Tempo, 272727
1, 185472, Tempo, 285714
1, 185856, Tempo, 260869
1, 190464, Tempo, 272727
1, 191232, Tempo, 285714
1, 191808, Tempo, 300000
1, 192000, Tempo, 272727
1, 193536, Tempo, 260869
1, 197376, Tempo, 272727
1, 197760, Tempo, 285714
1, 197952, Tempo, 300000
1, 198144, Tempo, 272727
1, 199680, Tempo, 260869
1, 206208, Tempo, 272727
1, 206592, Tempo, 285714
1, 206976, Tempo, 300000
1, 207360, Tempo, 272727
1, 211968, Tempo, 260869
1, 226560, Tempo, 272727
1, 229632, Tempo, 285714
1, 232704, Tempo, 300000
1, 233856, Tempo, 272727
1, 234624, Tempo, 260869
1, 235776, Tempo, 272727
1, 236160, Tempo, 300000
1, 236352, Tempo, 333333
1, 236544, Tempo, 260869
1, 284160, Tempo, 267857
1, 284928, Tempo, 283018
1, 285312, Tempo, 309278
1, 285696, Tempo, 285714
1, 285888, Tempo, 272727
1, 286080, Tempo, 260869
1, 344064, Tempo, 272727
1, 344832, Tempo, 285714
1, 345216, Tempo, 300000
1, 345408, Tempo, 333333
1, 345600, Tempo, 272727
1, 347136, Tempo, 260869
1, 369408, Tempo, 272727
1, 369792, Tempo, 300000
1, 370368, Tempo, 272727
1, 370560, Tempo, 260869
1, 407040, Tempo, 272727
1, 408576, Tempo, 285714
1, 409344, Tempo, 300000
1, 409728, Tempo, 333333
1, 409920, Tempo, 375000
1, 410112, Tempo, 260869
1, 437760, Tempo, 272727
1, 439296, Tempo, 285714
1, 440064, Tempo, 300000
1, 440448, Tempo, 333333
1, 440832, Tempo, 272727
1, 442368, Tempo, 260869
1, 450048, Tempo, 272727
1, 453120, Tempo, 285714
1, 453888, Tempo, 312500
1, 454656, Tempo, 333333
1, 454656, End_track
2, 0, Start_track
2, 0, Title_t, "Right"
2, 0, Control_c, 0, 0, 0
2, 0, Program_c, 0, 0
2, 0, Control_c, 0, 7, 100
2, 0, Control_c, 0, 10, 78
2, 0, Control_c, 0, 91, 127
2, 0, Key_signature, -3, "minor"
2, 0, Note_on_c, 0, 67, 80
2, 0, Note_on_c, 0, 63, 80
2, 380, Note_off_c, 0, 67, 100
2, 380, Note_off_c, 0, 63, 100
2, 384, Note_on_c, 0, 65, 80
2, 384, Note_on_c, 0, 58, 80
2, 764, Note_off_c, 0, 65, 100
2, 764, Note_off_c, 0, 58, 100
2, 768, Note_on_c, 0, 63, 80
2, 768, Note_on_c, 0, 55, 80
2, 1340, Note_off_c, 0, 63, 100
2, 1340, Note_off_c, 0, 55, 100
2, 1344, Note_on_c, 0, 63, 80
2, 1484, Note_off_c, 0, 63, 100
2, 1488, Note_on_c, 0, 68, 80
2, 1532, Note_off_c, 0, 68, 100
2, 1536, Note_on_c, 0, 67, 80
2, 1724, Note_off_c, 0, 67, 100
2, 1728, Note_on_c, 0, 67, 80
2, 1868, Note_off_c, 0, 67, 100
2, 1872, Note_on_c, 0, 73, 80
2, 1916, Note_off_c, 0, 73, 100
2, 1920, Note_on_c, 0, 72, 80
2, 2108, Note_off_c, 0, 72, 100
2, 2112, Note_on_c, 0, 72, 80
2, 2156, Note_off_c, 0, 72, 100
2, 2160, Note_on_c, 0, 74, 80
2, 2172, Note_off_c, 0, 74, 100
2, 2176, Note_on_c, 0, 72, 80
2, 2188, Note_off_c, 0, 72, 100
2, 2192, Note_on_c, 0, 71, 80
2, 2204, Note_off_c, 0, 71, 100
2, 2208, Note_on_c, 0, 72, 80
2, 2252, Note_off_c, 0, 72, 100
2, 2256, Note_on_c, 0, 74, 80
2, 2300, Note_off_c, 0, 74, 100
2, 2304, Note_on_c, 0, 75, 80
2, 2304, Note_on_c, 0, 63, 80
2, 2492, Note_off_c, 0, 63, 100
2, 2496, Note_on_c, 0, 66, 80
2, 2496, Note_on_c, 0, 63, 80
2, 2588, Note_off_c, 0, 75, 100
2, 2592, Note_on_c, 0, 72, 80
2, 2684, Note_off_c, 0, 66, 100
2, 2684, Note_off_c, 0, 63, 100
2, 2684, Note_off_c, 0, 72, 100
2, 2688, Note_on_c, 0, 71, 80
2, 2688, Note_on_c, 0, 67, 80
2, 2688, Note_on_c, 0, 62, 80
2, 2876, Note_off_c, 0, 71, 100
2, 2876, Note_off_c, 0, 67, 100
2, 2876, Note_off_c, 0, 62, 100
2, 2880, Note_on_c, 0, 79, 80
2, 2972, Note_off_c, 0, 79, 100
2, 2976, Note_on_c, 0, 87, 80
2, 3068, Note_off_c, 0, 87, 100
2, 3072, Note_on_c, 0, 87, 80
2, 3072, Note_on_c, 0, 75, 80
2, 3260, Note_off_c, 0, 75, 100
2, 3264, Note_on_c, 0, 75, 80
2, 3264, Note_on_c, 0, 78, 80
2, 3356, Note_off_c, 0, 87, 100
2, 3360, Note_on_c, 0, 84, 80
2, 3452, Note_off_c, 0, 75, 100
2, 3452, Note_off_c, 0, 78, 100
2, 3452, Note_off_c, 0, 84, 100
2, 3456, Note_on_c, 0, 83, 80
2, 3456, Note_on_c, 0, 79, 80
2, 3456, Note_on_c, 0, 74, 80
2, 3644, Note_off_c, 0, 83, 100
2, 3644, Note_off_c, 0, 79, 100
2, 3644, Note_off_c, 0, 74, 100
2, 3648, Note_on_c, 0, 82, 80
2, 3648, Note_on_c, 0, 79, 80
2, 3648, Note_on_c, 0, 74, 80
2, 3836, Note_off_c, 0, 82, 100
2, 3836, Note_off_c, 0, 79, 100
2, 3836, Note_off_c, 0, 74, 100
2, 3840, Note_on_c, 0, 82, 100
2, 3840, Note_on_c, 0, 74, 90
2, 4028, Note_off_c, 0, 74, 100
2, 4032, Note_on_c, 0, 75, 80
2, 4220, Note_off_c, 0, 75, 100
2, 4224, Note_on_c, 0, 77, 80
2, 4284, Note_off_c, 0, 82, 100
2, 4288, Note_on_c, 0, 70, 80
2, 4316, Note_off_c, 0, 77, 100
2, 4348, Note_off_c, 0, 70, 100
2, 4352, Note_on_c, 0, 72, 80
2, 4412, Note_off_c, 0, 72, 100
2, 4416, Note_on_c, 0, 69, 80
2, 4476, Note_off_c, 0, 69, 100
2, 4480, Note_on_c, 0, 70, 80
2, 4540, Note_off_c, 0, 70, 100
2, 4544, Note_on_c, 0, 68, 80
2, 4604, Note_off_c, 0, 68, 100
2, 4608, Note_on_c, 0, 67, 80
2, 4608, Note_on_c, 0, 64, 80
2, 4608, Note_on_c, 0, 61, 80
2, 4608, Note_on_c, 0, 58, 80
2, 4988, Note_off_c, 0, 67, 100
2, 4988, Note_off_c, 0, 64, 100
2, 4988, Note_off_c, 0, 61, 100
2, 4988, Note_off_c, 0, 58, 100
2, 4992, Note_on_c, 0, 65, 80
2, 4992, Note_on_c, 0, 62, 80
2, 4992, Note_on_c, 0, 56, 80
2, 5372, Note_off_c, 0, 65, 100
2, 5372, Note_off_c, 0, 62, 100
2, 5372, Note_off_c, 0, 56, 100
2, 5376, Note_on_c, 0, 63, 80
2, 5376, Note_on_c, 0, 54, 80
2, 5948, Note_off_c, 0, 63, 100
2, 5948, Note_off_c, 0, 54, 100
2, 5952, Note_on_c, 0, 63, 80
2, 5952, Note_on_c, 0, 66, 80
2, 6092, Note_off_c, 0, 66, 100
2, 6096, Note_on_c, 0, 71, 80
2, 6140, Note_off_c, 0, 63, 100
2, 6140, Note_off_c, 0, 71, 100
2, 6144, Note_on_c, 0, 71, 80
2, 6144, Note_on_c, 0, 64, 80
2, 6332, Note_off_c, 0, 71, 100
2, 6332, Note_off_c, 0, 64, 100
2, 6336, Note_on_c, 0, 64, 80
2, 6336, Note_on_c, 0, 70, 80
2, 6476, Note_off_c, 0, 70, 100
2, 6480, Note_on_c, 0, 76, 80
2, 6524, Note_off_c, 0, 64, 100
2, 6524, Note_off_c, 0, 76, 100
2, 6528, Note_on_c, 0, 63, 80
2, 6528, Note_on_c, 0, 75, 80
2, 6716, Note_off_c, 0, 63, 100
2, 6716, Note_off_c, 0, 75, 100
2, 6720, Note_on_c, 0, 75, 80
2, 6764, Note_off_c, 0, 75, 100
2, 6768, Note_on_c, 0, 77, 80
2, 6780, Note_off_c, 0, 77, 100
2, 6784, Note_on_c, 0, 75, 80
2, 6796, Note_off_c, 0, 75, 100
2, 6800, Note_on_c, 0, 74, 80
2, 6812, Note_off_c, 0, 74, 100
2, 6816, Note_on_c, 0, 75, 80
2, 6860, Note_off_c, 0, 75, 100
2, 6864, Note_on_c, 0, 77, 80
2, 6908, Note_off_c, 0, 77, 100
2, 6912, Note_on_c, 0, 78, 80
2, 6912, Note_on_c, 0, 72, 80
2, 7100, Note_off_c, 0, 72, 100
2, 7104, Note_on_c, 0, 72, 80
2, 7196, Note_off_c, 0, 78, 100
2, 7200, Note_on_c, 0, 75, 80
2, 7292, Note_off_c, 0, 72, 100
2, 7292, Note_off_c, 0, 75, 100
2, 7296, Note_on_c, 0, 70, 80
2, 7296, Note_on_c, 0, 74, 80
2, 7484, Note_off_c, 0, 70, 100
2, 7484, Note_off_c, 0, 74, 100
2, 7488, Note_on_c, 0, 70, 80
2, 7488, Note_on_c, 0, 73, 80
2, 7532, Note_off_c, 0, 73, 100
2, 7536, Note_on_c, 0, 75, 80
2, 7548, Note_off_c, 0, 75, 100
2, 7552, Note_on_c, 0, 73, 80
2, 7564, Note_off_c, 0, 73, 100
2, 7568, Note_on_c, 0, 72, 80
2, 7580, Note_off_c, 0, 72, 100
2, 7584, Note_on_c, 0, 73, 80
2, 7628, Note_off_c, 0, 73, 100
2, 7632, Note_on_c, 0, 75, 80
2, 7676, Note_off_c, 0, 75, 100
2, 7680, Note_on_c, 0, 76, 80
2, 7868, Note_off_c, 0, 70, 100
2, 7872, Note_on_c, 0, 70, 80
2, 7964, Note_off_c, 0, 76, 100
2, 7968, Note_on_c, 0, 75, 80
2, 8012, Note_off_c, 0, 75, 100
2, 8016, Note_on_c, 0, 73, 80
2, 8060, Note_off_c, 0, 70, 100
2, 8060, Note_off_c, 0, 73, 100
2, 8064, Note_on_c, 0, 68, 80
2, 8064, Note_on_c, 0, 71, 80
2, 8252, Note_off_c, 0, 68, 100
2, 8252, Note_off_c, 0, 71, 100
2, 8256, Note_on_c, 0, 75, 80
2, 8256, Note_on_c, 0, 70, 80
2, 8256, Note_on_c, 0, 63, 80
2, 8444, Note_off_c, 0, 75, 100
2, 8444, Note_off_c, 0, 70, 100
2, 8444, Note_off_c, 0, 63, 100
2, 8448, Note_on_c, 0, 74, 80
2, 8448, Note_on_c, 0, 70, 80
2, 8448, Note_on_c, 0, 68, 80
2, 8448, Note_on_c, 0, 62, 80
2, 8636, Note_off_c, 0, 74, 100
2, 8636, Note_off_c, 0, 70, 100
2, 8636, Note_off_c, 0, 68, 100
2, 8636, Note_off_c, 0, 62, 100
2, 8928, Note_on_c, 0, 74, 80
2, 8928, Note_on_c, 0, 70, 80
2, 8928, Note_on_c, 0, 68, 80
2, 8928, Note_on_c, 0, 62, 80
2, 9020, Note_off_c, 0, 74, 100
2, 9020, Note_off_c, 0, 70, 100
2, 9020, Note_off_c, 0, 68, 100
2, 9020, Note_off_c, 0, 62, 100
2, 9024, Note_on_c, 0, 75, 80
2, 9024, Note_on_c, 0, 70, 80
2, 9024, Note_on_c, 0, 66, 80
2, 9024, Note_on_c, 0, 63, 80
2, 9116, Note_off_c, 0, 75, 100
2, 9116, Note_off_c, 0, 70, 100
2, 9116, Note_off_c, 0, 66, 100
2, 9116, Note_off_c, 0, 63, 100
2, 9120, Note_on_c, 0, 75, 80
2, 9120, Note_on_c, 0, 70, 80
2, 9120, Note_on_c, 0, 66, 80
2, 9120, Note_on_c, 0, 63, 80
2, 9212, Note_off_c, 0, 75, 100
2, 9212, Note_off_c, 0, 70, 100
2, 9212, Note_off_c, 0, 66, 100
2, 9212, Note_off_c, 0, 63, 100
2, 9216, Note_on_c, 0, 77, 80
2, 9216, Note_on_c, 0, 70, 80
2, 9216, Note_on_c, 0, 65, 80
2, 9404, Note_off_c, 0, 77, 100
2, 9404, Note_off_c, 0, 70, 100
2, 9404, Note_off_c, 0, 65, 100
2, 9696, Note_on_c, 0, 74, 80
2, 9696, Note_on_c, 0, 70, 80
2, 9788, Note_off_c, 0, 74, 100
2, 9788, Note_off_c, 0, 70, 100
2, 9792, Note_on_c, 0, 75, 80
2, 9792, Note_on_c, 0, 70, 80
2, 9884, Note_off_c, 0, 75, 100
2, 9884, Note_off_c, 0, 70, 100
2, 9888, Note_on_c, 0, 75, 80
2, 9888, Note_on_c, 0, 70, 80
2, 9980, Note_off_c, 0, 75, 100
2, 9980, Note_off_c, 0, 70, 100
2, 9984, Note_on_c, 0, 77, 80
2, 9984, Note_on_c, 0, 70, 80
2, 10172, Note_off_c, 0, 77, 100
2, 10172, Note_off_c, 0, 70, 100
2, 10464, Note_on_c, 0, 77, 80
2, 10464, Note_on_c, 0, 70, 80
2, 10556, Note_off_c, 0, 77, 100
2, 10556, Note_off_c, 0, 70, 100
2, 10560, Note_on_c, 0, 79, 80
2, 10560, Note_on_c, 0, 70, 80
2, 10652, Note_off_c, 0, 79, 100
2, 10652, Note_off_c, 0, 70, 100
2, 10656, Note_on_c, 0, 80, 80
2, 10656, Note_on_c, 0, 68, 80
2, 10748, Note_off_c, 0, 80, 100
2, 10748, Note_off_c, 0, 68, 100
2, 10752, Note_on_c, 0, 80, 80
2, 10752, Note_on_c, 0, 68, 80
2, 10940, Note_off_c, 0, 80, 100
2, 10940, Note_off_c, 0, 68, 100
2, 11232, Note_on_c, 0, 77, 80
2, 11232, Note_on_c, 0, 70, 80
2, 11324, Note_off_c, 0, 77, 100
2, 11324, Note_off_c, 0, 70, 100
2, 11328, Note_on_c, 0, 79, 80
2, 11328, Note_on_c, 0, 70, 80
2, 11420, Note_off_c, 0, 79, 100
2, 11420, Note_off_c, 0, 70, 100
2, 11424, Note_on_c, 0, 80, 80
2, 11424, Note_on_c, 0, 68, 80
2, 11516, Note_off_c, 0, 80, 100
2, 11516, Note_off_c, 0, 68, 100
2, 11712, Note_on_c, 0, 80, 80
2, 11712, Note_on_c, 0, 68, 80
2, 11900, Note_off_c, 0, 80, 100
2, 11900, Note_off_c, 0, 68, 100
2, 12096, Note_on_c, 0, 80, 80
2, 12096, Note_on_c, 0, 68, 80
2, 12284, Note_off_c, 0, 80, 100
2, 12284, Note_off_c, 0, 68, 100
2, 12288, Note_on_c, 0, 80, 110
2, 12288, Note_on_c, 0, 68, 110
2, 13432, Note_off_c, 0, 80, 100
2, 13432, Note_off_c, 0, 68, 100
2, 13440, Note_on_c, 0, 67, 110
2, 13440, Note_on_c, 0, 74, 110
2, 13624, Note_off_c, 0, 74, 100
2, 13632, Note_on_c, 0, 79, 110
2, 13816, Note_off_c, 0, 67, 100
2, 13816, Note_off_c, 0, 79, 100
2, 13824, Note_on_c, 0, 67, 110
2, 13824, Note_on_c, 0, 79, 110
2, 14200, Note_off_c, 0, 67, 100
2, 14200, Note_off_c, 0, 79, 100
2, 14208, Note_on_c, 0, 65, 110
2, 14208, Note_on_c, 0, 72, 110
2, 14392, Note_off_c, 0, 72, 100
2, 14400, Note_on_c, 0, 77, 110
2, 14584, Note_off_c, 0, 65, 100
2, 14584, Note_off_c, 0, 77, 100
2, 14592, Note_on_c, 0, 65, 110
2, 14592, Note_on_c, 0, 77, 110
2, 14968, Note_off_c, 0, 65, 100
2, 14968, Note_off_c, 0, 77, 100
2, 14976, Note_on_c, 0, 63, 110
2, 14976, Note_on_c, 0, 70, 110
2, 15160, Note_off_c, 0, 70, 100
2, 15168, Note_on_c, 0, 75, 110
2, 15352, Note_off_c, 0, 63, 100
2, 15352, Note_off_c, 0, 75, 100
2, 15360, Note_on_c, 0, 70, 110
2, 15360, Note_on_c, 0, 68, 110
2, 15360, Note_on_c, 0, 75, 110
2, 15360, Note_on_c, 0, 63, 110
2, 16120, Note_off_c, 0, 75, 100
2, 16120, Note_off_c, 0, 63, 100
2, 16128, Note_on_c, 0, 74, 80
2, 16128, Note_on_c, 0, 62, 80
2, 16504, Note_off_c, 0, 70, 100
2, 16504, Note_off_c, 0, 68, 100
2, 16504, Note_off_c, 0, 74, 100
2, 16504, Note_off_c, 0, 62, 100
2, 16512, Note_on_c, 0, 75, 80
2, 16512, Note_on_c, 0, 70, 80
2, 16512, Note_on_c, 0, 63, 80
2, 16888, Note_off_c, 0, 75, 100
2, 16888, Note_off_c, 0, 70, 100
2, 16888, Note_off_c, 0, 63, 100
2, 16896, Note_on_c, 0, 77, 80
2, 16896, Note_on_c, 0, 70, 80
2, 16896, Note_on_c, 0, 65, 80
2, 17272, Note_off_c, 0, 77, 100
2, 17272, Note_off_c, 0, 70, 100
2, 17272, Note_off_c, 0, 65, 100
2, 17280, Note_on_c, 0, 79, 80
2, 17280, Note_on_c, 0, 70, 80
2, 17280, Note_on_c, 0, 67, 80
2, 17656, Note_off_c, 0, 79, 100
2, 17656, Note_off_c, 0, 70, 100
2, 17656, Note_off_c, 0, 67, 100
2, 17664, Note_on_c, 0, 80, 80
2, 17664, Note_on_c, 0, 70, 80
2, 17664, Note_on_c, 0, 68, 80
2, 18040, Note_off_c, 0, 80, 100
2, 18040, Note_off_c, 0, 70, 100
2, 18040, Note_off_c, 0, 68, 100
2, 18048, Note_on_c, 0, 82, 80
2, 18048, Note_on_c, 0, 70, 80
2, 18424, Note_off_c, 0, 82, 100
2, 18424, Note_off_c, 0, 70, 100
2, 18432, Note_on_c, 0, 79, 80
2, 18432, Note_on_c, 0, 70, 80
2, 18432, Note_on_c, 0, 67, 80
2, 18808, Note_off_c, 0, 79, 100
2, 18808, Note_off_c, 0, 70, 100
2, 18808, Note_off_c, 0, 67, 100
2, 19200, Note_on_c, 0, 82, 88
2, 19200, Note_on_c, 0, 70, 88
2, 19576, Note_off_c, 0, 82, 100
2, 19576, Note_off_c, 0, 70, 100
2, 19968, Note_on_c, 0, 94, 110
2, 19968, Note_on_c, 0, 82, 110
2, 21112, Note_off_c, 0, 94, 100
2, 21112, Note_off_c, 0, 82, 100
2, 21120, Note_on_c, 0, 82, 110
2, 21120, Note_on_c, 0, 70, 110
2, 22648, Note_off_c, 0, 70, 100
2, 22648, Note_off_c, 0, 82, 100
2, 22656, Note_on_c, 0, 79, 80
2, 22656, Note_on_c, 0, 67, 80
2, 23032, Note_off_c, 0, 79, 100
2, 23032, Note_off_c, 0, 67, 100
2, 23040, Note_on_c, 0, 77, 80
2, 23040, Note_on_c, 0, 65, 80
2, 23416, Note_off_c, 0, 77, 100
2, 23416, Note_off_c, 0, 65, 100
2, 23424, Note_on_c, 0, 74, 80
2, 23424, Note_on_c, 0, 62, 80
2, 23800, Note_off_c, 0, 74, 100
2, 23800, Note_off_c, 0, 62, 100
2, 23808, Note_on_c, 0, 71, 80
2, 23808, Note_on_c, 0, 59, 80
2, 24184, Note_off_c, 0, 71, 100
2, 24184, Note_off_c, 0, 59, 100
2, 24192, Note_on_c, 0, 70, 80
2, 24192, Note_on_c, 0, 58, 80
2, 24568, Note_off_c, 0, 70, 100
2, 24568, Note_off_c, 0, 58, 100
2, 24576, Note_on_c, 0, 70, 80
2, 24576, Note_on_c, 0, 58, 80
2, 24952, Note_off_c, 0, 70, 100
2, 24952, Note_off_c, 0, 58, 100
2, 25344, Note_on_c, 0, 82, 88
2, 25344, Note_on_c, 0, 70, 88
2, 25720, Note_off_c, 0, 82, 100
2, 25720, Note_off_c, 0, 70, 100
2, 26112, Note_on_c, 0, 94, 110
2, 26112, Note_on_c, 0, 82, 111
2, 27256, Note_off_c, 0, 94, 100
2, 27256, Note_off_c, 0, 82, 100
2, 27264, Note_on_c, 0, 82, 110
2, 27264, Note_on_c, 0, 70, 110
2, 28792, Note_off_c, 0, 70, 100
2, 28792, Note_off_c, 0, 82, 100
2, 28800, Note_on_c, 0, 79, 80
2, 28800, Note_on_c, 0, 67, 80
2, 29176, Note_off_c, 0, 79, 100
2, 29176, Note_off_c, 0, 67, 100
2, 29184, Note_on_c, 0, 76, 80
2, 29184, Note_on_c, 0, 64, 80
2, 29560, Note_off_c, 0, 76, 100
2, 29560, Note_off_c, 0, 64, 100
2, 29568, Note_on_c, 0, 65, 80
2, 29568, Note_on_c, 0, 77, 80
2, 29944, Note_off_c, 0, 65, 100
2, 29944, Note_off_c, 0, 77, 100
2, 29952, Note_on_c, 0, 72, 80
2, 29952, Note_on_c, 0, 60, 80
2, 30328, Note_off_c, 0, 72, 100
2, 30328, Note_off_c, 0, 60, 100
2, 30336, Note_on_c, 0, 75, 80
2, 30336, Note_on_c, 0, 63, 80
2, 30712, Note_off_c, 0, 75, 100
2, 30712, Note_off_c, 0, 63, 100
2, 30720, Note_on_c, 0, 74, 80
2, 30720, Note_on_c, 0, 62, 80
2, 30904, Note_off_c, 0, 74, 100
2, 30904, Note_off_c, 0, 62, 100
2, 30912, Note_on_c, 0, 70, 80
2, 31096, Note_off_c, 0, 70, 100
2, 31104, Note_on_c, 0, 69, 80
2, 31288, Note_off_c, 0, 69, 100
2, 31296, Note_on_c, 0, 70, 80
2, 31480, Note_off_c, 0, 70, 100
2, 31488, Note_on_c, 0, 72, 80
2, 31488, Note_on_c, 0, 69, 80
2, 31672, Note_off_c, 0, 72, 100
2, 31672, Note_off_c, 0, 69, 100
2, 31680, Note_on_c, 0, 74, 80
2, 31680, Note_on_c, 0, 70, 80
2, 31864, Note_off_c, 0, 74, 100
2, 31864, Note_off_c, 0, 70, 100
2, 31872, Note_on_c, 0, 75, 80
2, 31872, Note_on_c, 0, 72, 80
2, 32056, Note_off_c, 0, 75, 100
2, 32056, Note_off_c, 0, 72, 100
2, 32064, Note_on_c, 0, 77, 80
2, 32064, Note_on_c, 0, 74, 80
2, 32248, Note_off_c, 0, 77, 100
2, 32248, Note_off_c, 0, 74, 100
2, 32256, Note_on_c, 0, 79, 80
2, 32256, Note_on_c, 0, 75, 80
2, 33016, Note_off_c, 0, 79, 100
2, 33016, Note_off_c, 0, 75, 100
2, 33024, Note_on_c, 0, 84, 80
2, 33024, Note_on_c, 0, 80, 80
2, 33208, Note_off_c, 0, 84, 100
2, 33208, Note_off_c, 0, 80, 100
2, 33216, Note_on_c, 0, 82, 80
2, 33216, Note_on_c, 0, 79, 80
2, 33400, Note_off_c, 0, 82, 100
2, 33400, Note_off_c, 0, 79, 100
2, 33408, Note_on_c, 0, 80, 80
2, 33408, Note_on_c, 0, 77, 80
2, 33592, Note_off_c, 0, 80, 100
2, 33592, Note_off_c, 0, 77, 100
2, 33600, Note_on_c, 0, 79, 80
2, 33600, Note_on_c, 0, 75, 80
2, 33784, Note_off_c, 0, 79, 100
2, 33784, Note_off_c, 0, 75, 100
2, 33792, Note_on_c, 0, 77, 80
2, 33792, Note_on_c, 0, 74, 80
2, 34168, Note_off_c, 0, 77, 100
2, 34168, Note_off_c, 0, 74, 100
2, 34560, Note_on_c, 0, 96, 80
2, 34560, Note_on_c, 0, 92, 80
2, 34744, Note_off_c, 0, 96, 100
2, 34744, Note_off_c, 0, 92, 100
2, 34752, Note_on_c, 0, 94, 80
2, 34752, Note_on_c, 0, 91, 80
2, 34936, Note_off_c, 0, 94, 100
2, 34936, Note_off_c, 0, 91, 100
2, 34944, Note_on_c, 0, 92, 80
2, 34944, Note_on_c, 0, 89, 80
2, 35128, Note_off_c, 0, 92, 100
2, 35128, Note_off_c, 0, 89, 100
2, 35136, Note_on_c, 0, 91, 80
2, 35136, Note_on_c, 0, 87, 80
2, 35320, Note_off_c, 0, 91, 100
2, 35320, Note_off_c, 0, 87, 100
2, 35328, Note_on_c, 0, 89, 80
2, 35328, Note_on_c, 0, 86, 80
2, 35704, Note_off_c, 0, 89, 100
2, 35704, Note_off_c, 0, 86, 100
2, 35712, Note_on_c, 0, 84, 80
2, 35712, Note_on_c, 0, 74, 80
2, 35896, Note_off_c, 0, 84, 100
2, 35896, Note_off_c, 0, 74, 100
2, 35904, Note_on_c, 0, 82, 80
2, 35904, Note_on_c, 0, 75, 80
2, 36088, Note_off_c, 0, 82, 100
2, 36088, Note_off_c, 0, 75, 100
2, 36096, Note_on_c, 0, 80, 80
2, 36096, Note_on_c, 0, 71, 80
2, 36280, Note_off_c, 0, 80, 100
2, 36280, Note_off_c, 0, 71, 100
2, 36288, Note_on_c, 0, 79, 82
2, 36288, Note_on_c, 0, 72, 82
2, 36472, Note_off_c, 0, 79, 100
2, 36472, Note_off_c, 0, 72, 100
2, 36480, Note_on_c, 0, 77, 85
2, 36480, Note_on_c, 0, 67, 85
2, 36664, Note_off_c, 0, 77, 100
2, 36664, Note_off_c, 0, 67, 100
2, 36672, Note_on_c, 0, 78, 88
2, 36672, Note_on_c, 0, 75, 88
2, 36856, Note_off_c, 0, 78, 100
2, 36856, Note_off_c, 0, 75, 100
2, 36864, Note_on_c, 0, 79, 91
2, 36864, Note_on_c, 0, 74, 91
2, 37048, Note_off_c, 0, 79, 100
2, 37048, Note_off_c, 0, 74, 100
2, 37056, Note_on_c, 0, 81, 94
2, 37056, Note_on_c, 0, 74, 94
2, 37056, Note_on_c, 0, 78, 94
2, 37240, Note_off_c, 0, 81, 100
2, 37240, Note_off_c, 0, 74, 100
2, 37240, Note_off_c, 0, 78, 100
2, 37248, Note_on_c, 0, 83, 96
2, 37248, Note_on_c, 0, 74, 96
2, 37248, Note_on_c, 0, 79, 96
2, 37432, Note_off_c, 0, 83, 100
2, 37432, Note_off_c, 0, 74, 100
2, 37432, Note_off_c, 0, 79, 100
2, 37440, Note_on_c, 0, 83, 99
2, 37440, Note_on_c, 0, 74, 99
2, 37440, Note_on_c, 0, 79, 99
2, 37624, Note_off_c, 0, 83, 100
2, 37624, Note_off_c, 0, 74, 100
2, 37624, Note_off_c, 0, 79, 100
2, 37632, Note_on_c, 0, 84, 102
2, 37632, Note_on_c, 0, 75, 102
2, 37632, Note_on_c, 0, 79, 102
2, 37816, Note_off_c, 0, 84, 100
2, 37816, Note_off_c, 0, 75, 100
2, 37816, Note_off_c, 0, 79, 100
2, 37824, Note_on_c, 0, 86, 105
2, 37824, Note_on_c, 0, 77, 105
2, 37824, Note_on_c, 0, 82, 105
2, 38008, Note_off_c, 0, 86, 100
2, 38008, Note_off_c, 0, 77, 100
2, 38008, Note_off_c, 0, 82, 100
2, 38016, Note_on_c, 0, 87, 108
2, 38016, Note_on_c, 0, 79, 108
2, 38016, Note_on_c, 0, 84, 108
2, 38200, Note_off_c, 0, 87, 100
2, 38200, Note_off_c, 0, 79, 100
2, 38200, Note_off_c, 0, 84, 100
2, 38208, Note_on_c, 0, 88, 110
2, 38208, Note_on_c, 0, 79, 110
2, 38208, Note_on_c, 0, 84, 110
2, 38392, Note_off_c, 0, 88, 100
2, 38392, Note_off_c, 0, 79, 100
2, 38392, Note_off_c, 0, 84, 100
2, 38400, Note_on_c, 0, 88, 110
2, 38400, Note_on_c, 0, 84, 110
2, 38400, Note_on_c, 0, 79, 110
2, 38776, Note_off_c, 0, 88, 100
2, 38776, Note_off_c, 0, 84, 100
2, 38776, Note_off_c, 0, 79, 100
2, 39168, Note_on_c, 0, 89, 110
2, 39168, Note_on_c, 0, 84, 110
2, 39168, Note_on_c, 0, 77, 110
2, 39544, Note_off_c, 0, 89, 100
2, 39544, Note_off_c, 0, 84, 100
2, 39544, Note_off_c, 0, 77, 100
2, 39936, Note_on_c, 0, 70, 110
2, 39936, Note_on_c, 0, 75, 110
2, 41080, Note_off_c, 0, 75, 100
2, 41088, Note_on_c, 0, 77, 110
2, 41464, Note_off_c, 0, 77, 100
2, 41472, Note_on_c, 0, 78, 110
2, 41848, Note_off_c, 0, 70, 100
2, 41856, Note_on_c, 0, 70, 110
2, 42040, Note_off_c, 0, 70, 100
2, 42048, Note_on_c, 0, 69, 110
2, 42232, Note_off_c, 0, 69, 100
2, 42240, Note_on_c, 0, 70, 110
2, 42424, Note_off_c, 0, 70, 100
2, 42432, Note_on_c, 0, 69, 110
2, 42616, Note_off_c, 0, 69, 100
2, 42624, Note_on_c, 0, 70, 110
2, 42808, Note_off_c, 0, 70, 100
2, 42816, Note_on_c, 0, 69, 110
2, 43000, Note_off_c, 0, 78, 100
2, 43000, Note_off_c, 0, 69, 100
2, 43008, Note_on_c, 0, 70, 110
2, 43008, Note_on_c, 0, 75, 110
2, 44152, Note_off_c, 0, 75, 100
2, 44160, Note_on_c, 0, 77, 110
2, 44536, Note_off_c, 0, 77, 100
2, 44544, Note_on_c, 0, 79, 110
2, 44920, Note_off_c, 0, 70, 100
2, 44928, Note_on_c, 0, 70, 110
2, 45112, Note_off_c, 0, 70, 100
2, 45120, Note_on_c, 0, 69, 110
2, 45304, Note_off_c, 0, 69, 100
2, 45312, Note_on_c, 0, 70, 110
2, 45496, Note_off_c, 0, 70, 100
2, 45504, Note_on_c, 0, 69, 110
2, 45688, Note_off_c, 0, 69, 100
2, 45696, Note_on_c, 0, 70, 110
2, 45880, Note_off_c, 0, 70, 100
2, 45888, Note_on_c, 0, 69, 110
2, 46072, Note_off_c, 0, 79, 100
2, 46072, Note_off_c, 0, 69, 100
2, 46080, Note_on_c, 0, 78, 80
2, 46456, Note_off_c, 0, 78, 100
2, 46464, Note_on_c, 0, 70, 80
2, 46648, Note_off_c, 0, 70, 100
2, 46656, Note_on_c, 0, 69, 80
2, 46840, Note_off_c, 0, 69, 100
2, 46848, Note_on_c, 0, 70, 80
2, 47032, Note_off_c, 0, 70, 100
2, 47040, Note_on_c, 0, 69, 80
2, 47224, Note_off_c, 0, 69, 100
2, 47232, Note_on_c, 0, 70, 80
2, 47416, Note_off_c, 0, 70, 100
2, 47424, Note_on_c, 0, 69, 80
2, 47608, Note_off_c, 0, 69, 100
2, 47616, Note_on_c, 0, 77, 80
2, 47992, Note_off_c, 0, 77, 100
2, 48000, Note_on_c, 0, 72, 80
2, 48184, Note_off_c, 0, 72, 100
2, 48192, Note_on_c, 0, 71, 80
2, 48376, Note_off_c, 0, 71, 100
2, 48384, Note_on_c, 0, 72, 80
2, 48568, Note_off_c, 0, 72, 100
2, 48576, Note_on_c, 0, 71, 80
2, 48760, Note_off_c, 0, 71, 100
2, 48768, Note_on_c, 0, 72, 80
2, 48952, Note_off_c, 0, 72, 100
2, 48960, Note_on_c, 0, 71, 80
2, 49144, Note_off_c, 0, 71, 100
2, 49152, Note_on_c, 0, 77, 80
2, 49528, Note_off_c, 0, 77, 100
2, 49536, Note_on_c, 0, 74, 80
2, 49720, Note_off_c, 0, 74, 100
2, 49728, Note_on_c, 0, 72, 80
2, 49912, Note_off_c, 0, 72, 100
2, 49920, Note_on_c, 0, 77, 80
2, 50296, Note_off_c, 0, 77, 100
2, 50304, Note_on_c, 0, 72, 80
2, 50488, Note_off_c, 0, 72, 100
2, 50496, Note_on_c, 0, 70, 80
2, 50680, Note_off_c, 0, 70, 100
2, 50688, Note_on_c, 0, 77, 80
2, 51064, Note_off_c, 0, 77, 100
2, 51072, Note_on_c, 0, 70, 80
2, 51256, Note_off_c, 0, 70, 100
2, 51264, Note_on_c, 0, 69, 80
2, 51448, Note_off_c, 0, 69, 100
2, 51456, Note_on_c, 0, 77, 80
2, 51832, Note_off_c, 0, 77, 100
2, 51840, Note_on_c, 0, 72, 80
2, 52024, Note_off_c, 0, 72, 100
2, 52032, Note_on_c, 0, 70, 80
2, 52216, Note_off_c, 0, 70, 100
2, 52224, Note_on_c, 0, 78, 80
2, 52608, Note_on_c, 0, 70, 80
2, 52792, Note_off_c, 0, 70, 100
2, 52800, Note_on_c, 0, 69, 80
2, 52984, Note_off_c, 0, 69, 100
2, 52992, Note_on_c, 0, 70, 80
2, 53176, Note_off_c, 0, 70, 100
2, 53184, Note_on_c, 0, 69, 80
2, 53368, Note_off_c, 0, 69, 100
2, 53376, Note_on_c, 0, 70, 80
2, 53560, Note_off_c, 0, 70, 100
2, 53568, Note_on_c, 0, 69, 80
2, 53752, Note_off_c, 0, 78, 100
2, 53752, Note_off_c, 0, 69, 100
2, 53760, Note_on_c, 0, 77, 80
2, 54136, Note_off_c, 0, 77, 100
2, 54144, Note_on_c, 0, 72, 80
2, 54328, Note_off_c, 0, 72, 100
2, 54336, Note_on_c, 0, 71, 80
2, 54520, Note_off_c, 0, 71, 100
2, 54528, Note_on_c, 0, 72, 80
2, 54712, Note_off_c, 0, 72, 100
2, 54720, Note_on_c, 0, 71, 80
2, 54904, Note_off_c, 0, 71, 100
2, 54912, Note_on_c, 0, 72, 80
2, 55096, Note_off_c, 0, 72, 100
2, 55104, Note_on_c, 0, 71, 80
2, 55288, Note_off_c, 0, 71, 100
2, 55296, Note_on_c, 0, 77, 80
2, 55672, Note_off_c, 0, 77, 100
2, 55680, Note_on_c, 0, 74, 80
2, 55864, Note_off_c, 0, 74, 100
2, 55872, Note_on_c, 0, 72, 80
2, 56056, Note_off_c, 0, 72, 100
2, 56064, Note_on_c, 0, 77, 80
2, 56440, Note_off_c, 0, 77, 100
2, 56448, Note_on_c, 0, 72, 80
2, 56632, Note_off_c, 0, 72, 100
2, 56640, Note_on_c, 0, 71, 80
2, 56824, Note_off_c, 0, 71, 100
2, 56832, Note_on_c, 0, 77, 80
2, 57208, Note_off_c, 0, 77, 100
2, 57216, Note_on_c, 0, 74, 80
2, 57400, Note_off_c, 0, 74, 100
2, 57408, Note_on_c, 0, 72, 80
2, 57592, Note_off_c, 0, 72, 100
2, 57600, Note_on_c, 0, 77, 80
2, 57976, Note_off_c, 0, 77, 100
2, 57984, Note_on_c, 0, 75, 80
2, 57984, Note_on_c, 0, 72, 80
2, 58368, Note_on_c, 0, 65, 80
2, 58744, Note_off_c, 0, 72, 100
2, 58744, Note_off_c, 0, 75, 100
2, 58752, Note_on_c, 0, 74, 80
2, 58752, Note_on_c, 0, 70, 80
2, 59128, Note_off_c, 0, 65, 100
2, 59128, Note_off_c, 0, 74, 100
2, 59128, Note_off_c, 0, 70, 100
2, 59136, Note_on_c, 0, 72, 80
2, 59136, Note_on_c, 0, 69, 80
2, 59512, Note_off_c, 0, 72, 100
2, 59512, Note_off_c, 0, 69, 100
2, 59520, Note_on_c, 0, 87, 80
2, 59520, Note_on_c, 0, 84, 80
2, 59904, Note_on_c, 0, 77, 80
2, 60280, Note_off_c, 0, 84, 100
2, 60280, Note_off_c, 0, 87, 100
2, 60288, Note_on_c, 0, 86, 80
2, 60288, Note_on_c, 0, 82, 80
2, 60664, Note_off_c, 0, 77, 100
2, 60664, Note_off_c, 0, 86, 100
2, 60664, Note_off_c, 0, 82, 100
2, 60672, Note_on_c, 0, 84, 80
2, 60672, Note_on_c, 0, 81, 80
2, 61048, Note_off_c, 0, 84, 100
2, 61048, Note_off_c, 0, 81, 100
2, 61056, Note_on_c, 0, 84, 80
2, 61056, Note_on_c, 0, 81, 80
2, 61056, Note_on_c, 0, 91, 80
2, 61432, Note_off_c, 0, 84, 100
2, 61432, Note_off_c, 0, 81, 100
2, 61440, Note_on_c, 0, 82, 80
2, 61440, Note_on_c, 0, 77, 80
2, 61816, Note_off_c, 0, 91, 100
2, 61816, Note_off_c, 0, 82, 100
2, 61816, Note_off_c, 0, 77, 100
2, 61824, Note_on_c, 0, 89, 80
2, 61824, Note_on_c, 0, 82, 80
2, 61824, Note_on_c, 0, 77, 80
2, 62200, Note_off_c, 0, 82, 100
2, 62200, Note_off_c, 0, 77, 100
2, 62208, Note_on_c, 0, 79, 80
2, 62208, Note_on_c, 0, 82, 80
2, 62584, Note_off_c, 0, 89, 100
2, 62584, Note_off_c, 0, 79, 100
2, 62584, Note_off_c, 0, 82, 100
2, 62592, Note_on_c, 0, 81, 80
2, 62592, Note_on_c, 0, 84, 80
2, 62592, Note_on_c, 0, 87, 80
2, 62968, Note_off_c, 0, 81, 100
2, 62968, Note_off_c, 0, 84, 100
2, 62968, Note_off_c, 0, 87, 100
2, 62976, Note_on_c, 0, 86, 80
2, 63168, Note_on_c, 0, 77, 80
2, 63352, Note_off_c, 0, 77, 100
2, 63360, Note_on_c, 0, 79, 80
2, 63544, Note_off_c, 0, 79, 100
2, 63552, Note_on_c, 0, 77, 80
2, 63736, Note_off_c, 0, 77, 100
2, 63744, Note_on_c, 0, 79, 80
2, 63928, Note_off_c, 0, 79, 100
2, 63936, Note_on_c, 0, 77, 80
2, 64120, Note_off_c, 0, 77, 100
2, 64128, Note_on_c, 0, 79, 80
2, 64312, Note_off_c, 0, 79, 100
2, 64320, Note_on_c, 0, 77, 80
2, 64504, Note_off_c, 0, 86, 100
2, 64504, Note_off_c, 0, 77, 100
2, 64512, Note_on_c, 0, 84, 80
2, 64704, Note_on_c, 0, 75, 80
2, 64888, Note_off_c, 0, 75, 100
2, 64896, Note_on_c, 0, 77, 80
2, 65080, Note_off_c, 0, 77, 100
2, 65088, Note_on_c, 0, 75, 80
2, 65272, Note_off_c, 0, 75, 100
2, 65280, Note_on_c, 0, 77, 80
2, 65464, Note_off_c, 0, 77, 100
2, 65472, Note_on_c, 0, 75, 80
2, 65656, Note_off_c, 0, 75, 100
2, 65664, Note_on_c, 0, 77, 80
2, 65848, Note_off_c, 0, 77, 100
2, 65856, Note_on_c, 0, 75, 80
2, 66040, Note_off_c, 0, 84, 100
2, 66040, Note_off_c, 0, 75, 100
2, 66048, Note_on_c, 0, 82, 80
2, 66048, Note_on_c, 0, 74, 80
2, 66232, Note_off_c, 0, 74, 100
2, 66240, Note_on_c, 0, 70, 80
2, 66424, Note_off_c, 0, 70, 100
2, 66432, Note_on_c, 0, 72, 80
2, 66616, Note_off_c, 0, 72, 100
2, 66624, Note_on_c, 0, 70, 80
2, 66808, Note_off_c, 0, 82, 100
2, 66808, Note_off_c, 0, 70, 100
2, 66816, Note_on_c, 0, 79, 80
2, 67008, Note_on_c, 0, 70, 80
2, 67192, Note_off_c, 0, 79, 100
2, 67192, Note_off_c, 0, 70, 100
2, 67200, Note_on_c, 0, 77, 80
2, 67392, Note_on_c, 0, 70, 80
2, 67576, Note_off_c, 0, 77, 100
2, 67576, Note_off_c, 0, 70, 100
2, 67584, Note_on_c, 0, 77, 80
2, 67584, Note_on_c, 0, 70, 80
2, 67768, Note_off_c, 0, 70, 100
2, 67776, Note_on_c, 0, 65, 80
2, 67960, Note_off_c, 0, 77, 100
2, 67960, Note_off_c, 0, 65, 100
2, 67968, Note_on_c, 0, 75, 80
2, 67968, Note_on_c, 0, 69, 80
2, 68152, Note_off_c, 0, 69, 100
2, 68160, Note_on_c, 0, 65, 80
2, 68344, Note_off_c, 0, 75, 100
2, 68344, Note_off_c, 0, 65, 100
2, 68352, Note_on_c, 0, 74, 80
2, 68352, Note_on_c, 0, 70, 80
2, 68536, Note_off_c, 0, 70, 100
2, 68544, Note_on_c, 0, 65, 80
2, 68728, Note_off_c, 0, 74, 100
2, 68728, Note_off_c, 0, 65, 100
2, 68736, Note_on_c, 0, 72, 80
2, 68928, Note_on_c, 0, 65, 80
2, 69112, Note_off_c, 0, 72, 100
2, 69112, Note_off_c, 0, 65, 100
2, 69120, Note_on_c, 0, 74, 80
2, 69312, Note_on_c, 0, 65, 80
2, 69496, Note_off_c, 0, 65, 100
2, 69504, Note_on_c, 0, 67, 80
2, 69688, Note_off_c, 0, 67, 100
2, 69696, Note_on_c, 0, 65, 80
2, 69880, Note_off_c, 0, 65, 100
2, 69888, Note_on_c, 0, 67, 80
2, 70072, Note_off_c, 0, 67, 100
2, 70080, Note_on_c, 0, 65, 80
2, 70264, Note_off_c, 0, 65, 100
2, 70272, Note_on_c, 0, 67, 80
2, 70456, Note_off_c, 0, 67, 100
2, 70464, Note_on_c, 0, 65, 80
2, 70648, Note_off_c, 0, 74, 100
2, 70648, Note_off_c, 0, 65, 100
2, 70656, Note_on_c, 0, 72, 80
2, 70848, Note_on_c, 0, 63, 80
2, 71032, Note_off_c, 0, 63, 100
2, 71040, Note_on_c, 0, 65, 80
2, 71224, Note_off_c, 0, 65, 100
2, 71232, Note_on_c, 0, 63, 80
2, 71416, Note_off_c, 0, 63, 100
2, 71424, Note_on_c, 0, 65, 80
2, 71608, Note_off_c, 0, 65, 100
2, 71616, Note_on_c, 0, 63, 80
2, 71800, Note_off_c, 0, 63, 100
2, 71808, Note_on_c, 0, 65, 80
2, 71992, Note_off_c, 0, 65, 100
2, 72000, Note_on_c, 0, 63, 80
2, 72184, Note_off_c, 0, 72, 100
2, 72184, Note_off_c, 0, 63, 100
2, 72192, Note_on_c, 0, 70, 80
2, 72192, Note_on_c, 0, 62, 80
2, 72376, Note_off_c, 0, 62, 100
2, 72384, Note_on_c, 0, 58, 80
2, 72568, Note_off_c, 0, 58, 100
2, 72576, Note_on_c, 0, 60, 80
2, 72760, Note_off_c, 0, 60, 100
2, 72768, Note_on_c, 0, 58, 80
2, 72952, Note_off_c, 0, 70, 100
2, 72952, Note_off_c, 0, 58, 100
2, 72960, Note_on_c, 0, 67, 80
2, 73152, Note_on_c, 0, 58, 80
2, 73336, Note_off_c, 0, 67, 100
2, 73336, Note_off_c, 0, 58, 100
2, 73344, Note_on_c, 0, 65, 80
2, 73536, Note_on_c, 0, 58, 80
2, 73720, Note_off_c, 0, 65, 100
2, 73720, Note_off_c, 0, 58, 100
2, 73728, Note_on_c, 0, 65, 80
2, 73728, Note_on_c, 0, 58, 80
2, 73912, Note_off_c, 0, 58, 100
2, 73920, Note_on_c, 0, 53, 80
2, 74104, Note_off_c, 0, 65, 100
2, 74104, Note_off_c, 0, 53, 100
2, 74112, Note_on_c, 0, 63, 80
2, 74112, Note_on_c, 0, 57, 80
2, 74296, Note_off_c, 0, 57, 100
2, 74304, Note_on_c, 0, 53, 80
2, 74488, Note_off_c, 0, 63, 100
2, 74488, Note_off_c, 0, 53, 100
2, 74496, Note_on_c, 0, 62, 80
2, 74496, Note_on_c, 0, 58, 80
2, 74680, Note_off_c, 0, 58, 100
2, 74688, Note_on_c, 0, 53, 80
2, 74872, Note_off_c, 0, 62, 100
2, 74872, Note_off_c, 0, 53, 100
2, 74880, Note_on_c, 0, 60, 80
2, 75072, Note_on_c, 0, 53, 80
2, 75256, Note_off_c, 0, 60, 100
2, 75256, Note_off_c, 0, 53, 100
2, 75264, Note_on_c, 0, 58, 80
2, 75456, Note_on_c, 0, 54, 80
2, 75648, Note_on_c, 0, 50, 80
2, 75832, Note_off_c, 0, 54, 100
2, 76216, Note_off_c, 0, 58, 100
2, 76216, Note_off_c, 0, 50, 100
2, 76224, Note_on_c, 0, 53, 80
2, 76408, Note_off_c, 0, 53, 100
2, 76416, Note_on_c, 0, 50, 80
2, 76600, Note_off_c, 0, 50, 100
2, 76608, Note_on_c, 0, 58, 80
2, 76800, Note_on_c, 0, 53, 80
2, 76984, Note_off_c, 0, 58, 100
2, 76992, Note_on_c, 0, 58, 80
2, 77176, Note_off_c, 0, 58, 100
2, 77184, Note_on_c, 0, 57, 80
2, 77368, Note_off_c, 0, 57, 100
2, 77376, Note_on_c, 0, 58, 80
2, 77560, Note_off_c, 0, 53, 100
2, 77560, Note_off_c, 0, 58, 100
2, 77568, Note_on_c, 0, 60, 80
2, 77752, Note_off_c, 0, 60, 100
2, 77760, Note_on_c, 0, 62, 80
2, 77944, Note_off_c, 0, 62, 100
2, 77952, Note_on_c, 0, 63, 80
2, 78136, Note_off_c, 0, 63, 100
2, 78144, Note_on_c, 0, 60, 80
2, 78328, Note_off_c, 0, 60, 100
2, 78336, Note_on_c, 0, 70, 80
2, 78528, Note_on_c, 0, 66, 80
2, 78720, Note_on_c, 0, 62, 80
2, 78904, Note_off_c, 0, 66, 100
2, 79288, Note_off_c, 0, 70, 100
2, 79288, Note_off_c, 0, 62, 100
2, 79296, Note_on_c, 0, 65, 80
2, 79480, Note_off_c, 0, 65, 100
2, 79488, Note_on_c, 0, 62, 80
2, 79672, Note_off_c, 0, 62, 100
2, 79680, Note_on_c, 0, 70, 80
2, 79872, Note_on_c, 0, 65, 80
2, 80056, Note_off_c, 0, 70, 100
2, 80064, Note_on_c, 0, 70, 80
2, 80248, Note_off_c, 0, 70, 100
2, 80256, Note_on_c, 0, 69, 80
2, 80440, Note_off_c, 0, 69, 100
2, 80448, Note_on_c, 0, 70, 80
2, 80632, Note_off_c, 0, 65, 100
2, 80632, Note_off_c, 0, 70, 100
2, 80640, Note_on_c, 0, 72, 80
2, 80824, Note_off_c, 0, 72, 100
2, 80832, Note_on_c, 0, 74, 80
2, 81016, Note_off_c, 0, 74, 100
2, 81024, Note_on_c, 0, 75, 80
2, 81208, Note_off_c, 0, 75, 100
2, 81216, Note_on_c, 0, 72, 80
2, 81400, Note_off_c, 0, 72, 100
2, 81408, Note_on_c, 0, 74, 80
2, 81592, Note_off_c, 0, 74, 100
2, 81600, Note_on_c, 0, 72, 80
2, 81784, Note_off_c, 0, 72, 100
2, 81792, Note_on_c, 0, 70, 80
2, 82360, Note_off_c, 0, 70, 100
2, 82368, Note_on_c, 0, 67, 80
2, 82552, Note_off_c, 0, 67, 100
2, 82560, Note_on_c, 0, 65, 80
2, 83128, Note_off_c, 0, 65, 100
2, 83136, Note_on_c, 0, 63, 80
2, 83320, Note_off_c, 0, 63, 100
2, 83328, Note_on_c, 0, 62, 80
2, 83896, Note_off_c, 0, 62, 100
2, 83904, Note_on_c, 0, 60, 80
2, 84088, Note_off_c, 0, 60, 100
2, 84096, Note_on_c, 0, 58, 80
2, 84664, Note_off_c, 0, 58, 100
2, 84672, Note_on_c, 0, 55, 80
2, 84856, Note_off_c, 0, 55, 100
2, 84864, Note_on_c, 0, 53, 80
2, 85432, Note_off_c, 0, 53, 100
2, 85440, Note_on_c, 0, 51, 80
2, 85624, Note_off_c, 0, 51, 100
2, 85632, Note_on_c, 0, 50, 80
2, 86200, Note_off_c, 0, 50, 100
2, 86208, Note_on_c, 0, 48, 80
2, 86392, Note_off_c, 0, 48, 100
2, 86400, Note_on_c, 0, 46, 80
2, 86968, Note_off_c, 0, 46, 100
2, 86976, Note_on_c, 0, 48, 80
2, 87160, Note_off_c, 0, 48, 100
2, 87168, Note_on_c, 0, 46, 80
2, 87928, Note_off_c, 0, 46, 100
2, 90624, Note_on_c, 0, 77, 80
2, 90624, Note_on_c, 0, 70, 80
2, 92152, Note_off_c, 0, 77, 100
2, 92152, Note_off_c, 0, 70, 100
2, 92160, Note_on_c, 0, 79, 80
2, 92160, Note_on_c, 0, 70, 80
2, 93688, Note_off_c, 0, 79, 100
2, 93688, Note_off_c, 0, 70, 100
2, 93696, Note_on_c, 0, 80, 80
2, 93696, Note_on_c, 0, 68, 80
2, 94840, Note_off_c, 0, 80, 100
2, 94840, Note_off_c, 0, 68, 100
2, 94848, Note_on_c, 0, 67, 80
2, 94848, Note_on_c, 0, 74, 80
2, 95032, Note_off_c, 0, 74, 100
2, 95040, Note_on_c, 0, 79, 80
2, 95224, Note_off_c, 0, 67, 100
2, 95224, Note_off_c, 0, 79, 100
2, 95232, Note_on_c, 0, 67, 80
2, 95232, Note_on_c, 0, 79, 80
2, 95608, Note_off_c, 0, 67, 100
2, 95608, Note_off_c, 0, 79, 100
2, 95616, Note_on_c, 0, 65, 80
2, 95616, Note_on_c, 0, 72, 80
2, 95800, Note_off_c, 0, 72, 100
2, 95808, Note_on_c, 0, 77, 80
2, 95992, Note_off_c, 0, 65, 100
2, 95992, Note_off_c, 0, 77, 100
2, 96000, Note_on_c, 0, 65, 80
2, 96000, Note_on_c, 0, 77, 80
2, 96376, Note_off_c, 0, 65, 100
2, 96376, Note_off_c, 0, 77, 100
2, 96384, Note_on_c, 0, 63, 80
2, 96384, Note_on_c, 0, 70, 80
2, 96568, Note_off_c, 0, 70, 100
2, 96576, Note_on_c, 0, 75, 80
2, 96760, Note_off_c, 0, 63, 100
2, 96760, Note_off_c, 0, 75, 100
2, 96768, Note_on_c, 0, 70, 80
2, 96768, Note_on_c, 0, 68, 80
2, 96768, Note_on_c, 0, 75, 80
2, 96768, Note_on_c, 0, 63, 80
2, 97528, Note_off_c, 0, 75, 100
2, 97528, Note_off_c, 0, 63, 100
2, 97536, Note_on_c, 0, 74, 80
2, 97536, Note_on_c, 0, 62, 80
2, 97912, Note_off_c, 0, 70, 100
2, 97912, Note_off_c, 0, 68, 100
2, 97912, Note_off_c, 0, 74, 100
2, 97912, Note_off_c, 0, 62, 100
2, 97920, Note_on_c, 0, 75, 80
2, 97920, Note_on_c, 0, 70, 80
2, 97920, Note_on_c, 0, 63, 80
2, 98296, Note_off_c, 0, 75, 100
2, 98296, Note_off_c, 0, 70, 100
2, 98296, Note_off_c, 0, 63, 100
2, 98304, Note_on_c, 0, 77, 80
2, 98304, Note_on_c, 0, 70, 80
2, 98304, Note_on_c, 0, 65, 80
2, 98680, Note_off_c, 0, 77, 100
2, 98680, Note_off_c, 0, 70, 100
2, 98680, Note_off_c, 0, 65, 100
2, 98688, Note_on_c, 0, 79, 80
2, 98688, Note_on_c, 0, 70, 80
2, 98688, Note_on_c, 0, 67, 80
2, 99064, Note_off_c, 0, 79, 100
2, 99064, Note_off_c, 0, 70, 100
2, 99064, Note_off_c, 0, 67, 100
2, 99072, Note_on_c, 0, 80, 80
2, 99072, Note_on_c, 0, 70, 80
2, 99072, Note_on_c, 0, 68, 80
2, 99448, Note_off_c, 0, 80, 100
2, 99448, Note_off_c, 0, 70, 100
2, 99448, Note_off_c, 0, 68, 100
2, 99456, Note_on_c, 0, 82, 80
2, 99456, Note_on_c, 0, 70, 80
2, 99832, Note_off_c, 0, 82, 100
2, 99832, Note_off_c, 0, 70, 100
2, 99840, Note_on_c, 0, 79, 80
2, 99840, Note_on_c, 0, 70, 80
2, 99840, Note_on_c, 0, 67, 80
2, 100216, Note_off_c, 0, 79, 100
2, 100216, Note_off_c, 0, 70, 100
2, 100216, Note_off_c, 0, 67, 100
2, 100608, Note_on_c, 0, 82, 88
2, 100608, Note_on_c, 0, 70, 88
2, 100984, Note_off_c, 0, 82, 100
2, 100984, Note_off_c, 0, 70, 100
2, 101376, Note_on_c, 0, 94, 110
2, 101376, Note_on_c, 0, 82, 111
2, 102520, Note_off_c, 0, 94, 100
2, 102520, Note_off_c, 0, 82, 100
2, 102528, Note_on_c, 0, 82, 110
2, 102528, Note_on_c, 0, 70, 110
2, 104056, Note_off_c, 0, 70, 100
2, 104056, Note_off_c, 0, 82, 100
2, 104064, Note_on_c, 0, 79, 80
2, 104064, Note_on_c, 0, 67, 80
2, 104440, Note_off_c, 0, 79, 100
2, 104440, Note_off_c, 0, 67, 100
2, 104448, Note_on_c, 0, 77, 80
2, 104448, Note_on_c, 0, 65, 80
2, 104824, Note_off_c, 0, 77, 100
2, 104824, Note_off_c, 0, 65, 100
2, 104832, Note_on_c, 0, 74, 80
2, 104832, Note_on_c, 0, 62, 80
2, 105208, Note_off_c, 0, 74, 100
2, 105208, Note_off_c, 0, 62, 100
2, 105216, Note_on_c, 0, 71, 80
2, 105216, Note_on_c, 0, 59, 80
2, 105592, Note_off_c, 0, 71, 100
2, 105592, Note_off_c, 0, 59, 100
2, 105600, Note_on_c, 0, 70, 80
2, 105600, Note_on_c, 0, 58, 80
2, 105976, Note_off_c, 0, 70, 100
2, 105976, Note_off_c, 0, 58, 100
2, 105984, Note_on_c, 0, 70, 80
2, 105984, Note_on_c, 0, 58, 80
2, 106360, Note_off_c, 0, 70, 100
2, 106360, Note_off_c, 0, 58, 100
2, 106752, Note_on_c, 0, 82, 88
2, 106752, Note_on_c, 0, 70, 88
2, 107128, Note_off_c, 0, 82, 100
2, 107128, Note_off_c, 0, 70, 100
2, 107520, Note_on_c, 0, 94, 111
2, 107520, Note_on_c, 0, 82, 111
2, 108664, Note_off_c, 0, 94, 100
2, 108664, Note_off_c, 0, 82, 100
2, 108672, Note_on_c, 0, 82, 110
2, 108672, Note_on_c, 0, 70, 110
2, 110200, Note_off_c, 0, 70, 100
2, 110200, Note_off_c, 0, 82, 100
2, 110208, Note_on_c, 0, 79, 80
2, 110208, Note_on_c, 0, 67, 80
2, 110584, Note_off_c, 0, 79, 100
2, 110584, Note_off_c, 0, 67, 100
2, 110592, Note_on_c, 0, 76, 80
2, 110592, Note_on_c, 0, 64, 80
2, 110968, Note_off_c, 0, 76, 100
2, 110968, Note_off_c, 0, 64, 100
2, 110976, Note_on_c, 0, 65, 80
2, 110976, Note_on_c, 0, 77, 80
2, 111352, Note_off_c, 0, 65, 100
2, 111352, Note_off_c, 0, 77, 100
2, 111360, Note_on_c, 0, 72, 80
2, 111360, Note_on_c, 0, 60, 80
2, 111736, Note_off_c, 0, 72, 100
2, 111736, Note_off_c, 0, 60, 100
2, 111744, Note_on_c, 0, 75, 80
2, 111744, Note_on_c, 0, 63, 80
2, 112120, Note_off_c, 0, 75, 100
2, 112120, Note_off_c, 0, 63, 100
2, 112128, Note_on_c, 0, 74, 80
2, 112128, Note_on_c, 0, 62, 80
2, 112312, Note_off_c, 0, 74, 100
2, 112312, Note_off_c, 0, 62, 100
2, 112320, Note_on_c, 0, 70, 80
2, 112504, Note_off_c, 0, 70, 100
2, 112512, Note_on_c, 0, 69, 80
2, 112696, Note_off_c, 0, 69, 100
2, 112704, Note_on_c, 0, 70, 80
2, 112888, Note_off_c, 0, 70, 100
2, 112896, Note_on_c, 0, 72, 80
2, 112896, Note_on_c, 0, 69, 80
2, 113080, Note_off_c, 0, 72, 100
2, 113080, Note_off_c, 0, 69, 100
2, 113088, Note_on_c, 0, 74, 80
2, 113088, Note_on_c, 0, 70, 80
2, 113272, Note_off_c, 0, 74, 100
2, 113272, Note_off_c, 0, 70, 100
2, 113280, Note_on_c, 0, 75, 80
2, 113280, Note_on_c, 0, 72, 80
2, 113464, Note_off_c, 0, 75, 100
2, 113464, Note_off_c, 0, 72, 100
2, 113472, Note_on_c, 0, 77, 80
2, 113472, Note_on_c, 0, 74, 80
2, 113656, Note_off_c, 0, 77, 100
2, 113656, Note_off_c, 0, 74, 100
2, 113664, Note_on_c, 0, 79, 80
2, 113664, Note_on_c, 0, 75, 80
2, 114424, Note_off_c, 0, 79, 100
2, 114424, Note_off_c, 0, 75, 100
2, 114432, Note_on_c, 0, 84, 80
2, 114432, Note_on_c, 0, 80, 80
2, 114616, Note_off_c, 0, 84, 100
2, 114616, Note_off_c, 0, 80, 100
2, 114624, Note_on_c, 0, 82, 80
2, 114624, Note_on_c, 0, 79, 80
2, 114808, Note_off_c, 0, 82, 100
2, 114808, Note_off_c, 0, 79, 100
2, 114816, Note_on_c, 0, 80, 80
2, 114816, Note_on_c, 0, 77, 80
2, 115000, Note_off_c, 0, 80, 100
2, 115000, Note_off_c, 0, 77, 100
2, 115008, Note_on_c, 0, 79, 80
2, 115008, Note_on_c, 0, 75, 80
2, 115192, Note_off_c, 0, 79, 100
2, 115192, Note_off_c, 0, 75, 100
2, 115200, Note_on_c, 0, 77, 80
2, 115200, Note_on_c, 0, 74, 80
2, 115576, Note_off_c, 0, 77, 100
2, 115576, Note_off_c, 0, 74, 100
2, 115968, Note_on_c, 0, 96, 80
2, 115968, Note_on_c, 0, 92, 80
2, 116152, Note_off_c, 0, 96, 100
2, 116152, Note_off_c, 0, 92, 100
2, 116160, Note_on_c, 0, 94, 80
2, 116160, Note_on_c, 0, 91, 80
2, 116344, Note_off_c, 0, 94, 100
2, 116344, Note_off_c, 0, 91, 100
2, 116352, Note_on_c, 0, 92, 80
2, 116352, Note_on_c, 0, 89, 80
2, 116536, Note_off_c, 0, 92, 100
2, 116536, Note_off_c, 0, 89, 100
2, 116544, Note_on_c, 0, 91, 80
2, 116544, Note_on_c, 0, 87, 80
2, 116728, Note_off_c, 0, 91, 100
2, 116728, Note_off_c, 0, 87, 100
2, 116736, Note_on_c, 0, 89, 80
2, 116736, Note_on_c, 0, 86, 80
2, 117112, Note_off_c, 0, 89, 100
2, 117112, Note_off_c, 0, 86, 100
2, 117120, Note_on_c, 0, 84, 80
2, 117120, Note_on_c, 0, 74, 80
2, 117304, Note_off_c, 0, 84, 100
2, 117304, Note_off_c, 0, 74, 100
2, 117312, Note_on_c, 0, 82, 80
2, 117312, Note_on_c, 0, 75, 80
2, 117496, Note_off_c, 0, 82, 100
2, 117496, Note_off_c, 0, 75, 100
2, 117504, Note_on_c, 0, 80, 80
2, 117504, Note_on_c, 0, 71, 80
2, 117688, Note_off_c, 0, 80, 100
2, 117688, Note_off_c, 0, 71, 100
2, 117696, Note_on_c, 0, 79, 80
2, 117696, Note_on_c, 0, 72, 80
2, 117880, Note_off_c, 0, 79, 100
2, 117880, Note_off_c, 0, 72, 100
2, 117888, Note_on_c, 0, 77, 83
2, 117888, Note_on_c, 0, 67, 83
2, 118072, Note_off_c, 0, 77, 100
2, 118072, Note_off_c, 0, 67, 100
2, 118080, Note_on_c, 0, 78, 86
2, 118080, Note_on_c, 0, 75, 86
2, 118264, Note_off_c, 0, 78, 100
2, 118264, Note_off_c, 0, 75, 100
2, 118272, Note_on_c, 0, 79, 89
2, 118272, Note_on_c, 0, 74, 89
2, 118456, Note_off_c, 0, 79, 100
2, 118456, Note_off_c, 0, 74, 100
2, 118464, Note_on_c, 0, 81, 92
2, 118464, Note_on_c, 0, 74, 92
2, 118464, Note_on_c, 0, 78, 92
2, 118648, Note_off_c, 0, 81, 100
2, 118648, Note_off_c, 0, 74, 100
2, 118648, Note_off_c, 0, 78, 100
2, 118656, Note_on_c, 0, 83, 95
2, 118656, Note_on_c, 0, 74, 95
2, 118656, Note_on_c, 0, 79, 95
2, 118840, Note_off_c, 0, 83, 100
2, 118840, Note_off_c, 0, 74, 100
2, 118840, Note_off_c, 0, 79, 100
2, 118848, Note_on_c, 0, 83, 98
2, 118848, Note_on_c, 0, 74, 98
2, 118848, Note_on_c, 0, 79, 98
2, 119032, Note_off_c, 0, 83, 100
2, 119032, Note_off_c, 0, 74, 100
2, 119032, Note_off_c, 0, 79, 100
2, 119040, Note_on_c, 0, 84, 101
2, 119040, Note_on_c, 0, 75, 101
2, 119040, Note_on_c, 0, 79, 101
2, 119224, Note_off_c, 0, 84, 100
2, 119224, Note_off_c, 0, 75, 100
2, 119224, Note_off_c, 0, 79, 100
2, 119232, Note_on_c, 0, 86, 104
2, 119232, Note_on_c, 0, 77, 104
2, 119232, Note_on_c, 0, 82, 104
2, 119416, Note_off_c, 0, 86, 100
2, 119416, Note_off_c, 0, 77, 100
2, 119416, Note_off_c, 0, 82, 100
2, 119424, Note_on_c, 0, 87, 107
2, 119424, Note_on_c, 0, 79, 107
2, 119424, Note_on_c, 0, 84, 107
2, 119608, Note_off_c, 0, 87, 100
2, 119608, Note_off_c, 0, 79, 100
2, 119608, Note_off_c, 0, 84, 100
2, 119616, Note_on_c, 0, 88, 110
2, 119616, Note_on_c, 0, 79, 110
2, 119616, Note_on_c, 0, 84, 110
2, 119800, Note_off_c, 0, 88, 100
2, 119800, Note_off_c, 0, 79, 100
2, 119800, Note_off_c, 0, 84, 100
2, 119808, Note_on_c, 0, 88, 110
2, 119808, Note_on_c, 0, 84, 110
2, 119808, Note_on_c, 0, 79, 110
2, 120184, Note_off_c, 0, 88, 100
2, 120184, Note_off_c, 0, 84, 100
2, 120184, Note_off_c, 0, 79, 100
2, 120576, Note_on_c, 0, 89, 110
2, 120576, Note_on_c, 0, 84, 110
2, 120576, Note_on_c, 0, 77, 110
2, 120952, Note_off_c, 0, 89, 100
2, 120952, Note_off_c, 0, 84, 100
2, 120952, Note_off_c, 0, 77, 100
2, 121344, Note_on_c, 0, 70, 110
2, 121344, Note_on_c, 0, 75, 110
2, 122488, Note_off_c, 0, 75, 100
2, 122496, Note_on_c, 0, 77, 110
2, 122872, Note_off_c, 0, 77, 100
2, 122880, Note_on_c, 0, 78, 110
2, 123256, Note_off_c, 0, 70, 100
2, 123264, Note_on_c, 0, 70, 110
2, 123448, Note_off_c, 0, 70, 100
2, 123456, Note_on_c, 0, 69, 110
2, 123640, Note_off_c, 0, 69, 100
2, 123648, Note_on_c, 0, 70, 110
2, 123832, Note_off_c, 0, 70, 100
2, 123840, Note_on_c, 0, 69, 110
2, 124024, Note_off_c, 0, 69, 100
2, 124032, Note_on_c, 0, 70, 110
2, 124216, Note_off_c, 0, 70, 100
2, 124224, Note_on_c, 0, 69, 110
2, 124408, Note_off_c, 0, 78, 100
2, 124408, Note_off_c, 0, 69, 100
2, 124416, Note_on_c, 0, 70, 110
2, 124416, Note_on_c, 0, 75, 110
2, 125560, Note_off_c, 0, 75, 100
2, 125568, Note_on_c, 0, 77, 110
2, 125944, Note_off_c, 0, 77, 100
2, 125952, Note_on_c, 0, 79, 110
2, 126328, Note_off_c, 0, 70, 100
2, 126336, Note_on_c, 0, 70, 110
2, 126520, Note_off_c, 0, 70, 100
2, 126528, Note_on_c, 0, 69, 110
2, 126712, Note_off_c, 0, 69, 100
2, 126720, Note_on_c, 0, 70, 110
2, 126904, Note_off_c, 0, 70, 100
2, 126912, Note_on_c, 0, 69, 110
2, 127096, Note_off_c, 0, 69, 100
2, 127104, Note_on_c, 0, 70, 110
2, 127288, Note_off_c, 0, 70, 100
2, 127296, Note_on_c, 0, 69, 110
2, 127480, Note_off_c, 0, 79, 100
2, 127480, Note_off_c, 0, 69, 100
2, 127488, Note_on_c, 0, 78, 80
2, 127864, Note_off_c, 0, 78, 100
2, 127872, Note_on_c, 0, 70, 80
2, 128056, Note_off_c, 0, 70, 100
2, 128064, Note_on_c, 0, 69, 80
2, 128248, Note_off_c, 0, 69, 100
2, 128256, Note_on_c, 0, 70, 80
2, 128440, Note_off_c, 0, 70, 100
2, 128448, Note_on_c, 0, 69, 80
2, 128632, Note_off_c, 0, 69, 100
2, 128640, Note_on_c, 0, 70, 80
2, 128824, Note_off_c, 0, 70, 100
2, 128832, Note_on_c, 0, 69, 80
2, 129016, Note_off_c, 0, 69, 100
2, 129024, Note_on_c, 0, 77, 80
2, 129400, Note_off_c, 0, 77, 100
2, 129408, Note_on_c, 0, 72, 80
2, 129592, Note_off_c, 0, 72, 100
2, 129600, Note_on_c, 0, 71, 80
2, 129784, Note_off_c, 0, 71, 100
2, 129792, Note_on_c, 0, 72, 80
2, 129976, Note_off_c, 0, 72, 100
2, 129984, Note_on_c, 0, 71, 80
2, 130168, Note_off_c, 0, 71, 100
2, 130176, Note_on_c, 0, 72, 80
2, 130360, Note_off_c, 0, 72, 100
2, 130368, Note_on_c, 0, 71, 80
2, 130552, Note_off_c, 0, 71, 100
2, 130560, Note_on_c, 0, 77, 80
2, 130936, Note_off_c, 0, 77, 100
2, 130944, Note_on_c, 0, 74, 80
2, 131128, Note_off_c, 0, 74, 100
2, 131136, Note_on_c, 0, 72, 80
2, 131320, Note_off_c, 0, 72, 100
2, 131328, Note_on_c, 0, 77, 80
2, 131704, Note_off_c, 0, 77, 100
2, 131712, Note_on_c, 0, 72, 80
2, 131896, Note_off_c, 0, 72, 100
2, 131904, Note_on_c, 0, 70, 80
2, 132088, Note_off_c, 0, 70, 100
2, 132096, Note_on_c, 0, 77, 80
2, 132472, Note_off_c, 0, 77, 100
2, 132480, Note_on_c, 0, 70, 80
2, 132664, Note_off_c, 0, 70, 100
2, 132672, Note_on_c, 0, 69, 80
2, 132856, Note_off_c, 0, 69, 100
2, 132864, Note_on_c, 0, 77, 80
2, 133240, Note_off_c, 0, 77, 100
2, 133248, Note_on_c, 0, 72, 80
2, 133432, Note_off_c, 0, 72, 100
2, 133440, Note_on_c, 0, 70, 80
2, 133624, Note_off_c, 0, 70, 100
2, 133632, Note_on_c, 0, 78, 80
2, 134016, Note_on_c, 0, 70, 80
2, 134200, Note_off_c, 0, 70, 100
2, 134208, Note_on_c, 0, 69, 80
2, 134392, Note_off_c, 0, 69, 100
2, 134400, Note_on_c, 0, 70, 80
2, 134584, Note_off_c, 0, 70, 100
2, 134592, Note_on_c, 0, 69, 80
2, 134776, Note_off_c, 0, 69, 100
2, 134784, Note_on_c, 0, 70, 80
2, 134968, Note_off_c, 0, 70, 100
2, 134976, Note_on_c, 0, 69, 80
2, 135160, Note_off_c, 0, 78, 100
2, 135160, Note_off_c, 0, 69, 100
2, 135168, Note_on_c, 0, 77, 80
2, 135544, Note_off_c, 0, 77, 100
2, 135552, Note_on_c, 0, 72, 80
2, 135736, Note_off_c, 0, 72, 100
2, 135744, Note_on_c, 0, 71, 80
2, 135928, Note_off_c, 0, 71, 100
2, 135936, Note_on_c, 0, 72, 80
2, 136120, Note_off_c, 0, 72, 100
2, 136128, Note_on_c, 0, 71, 80
2, 136312, Note_off_c, 0, 71, 100
2, 136320, Note_on_c, 0, 72, 80
2, 136504, Note_off_c, 0, 72, 100
2, 136512, Note_on_c, 0, 71, 80
2, 136696, Note_off_c, 0, 71, 100
2, 136704, Note_on_c, 0, 77, 80
2, 137080, Note_off_c, 0, 77, 100
2, 137088, Note_on_c, 0, 74, 80
2, 137272, Note_off_c, 0, 74, 100
2, 137280, Note_on_c, 0, 72, 80
2, 137464, Note_off_c, 0, 72, 100
2, 137472, Note_on_c, 0, 77, 80
2, 137848, Note_off_c, 0, 77, 100
2, 137856, Note_on_c, 0, 72, 80
2, 138040, Note_off_c, 0, 72, 100
2, 138048, Note_on_c, 0, 71, 80
2, 138232, Note_off_c, 0, 71, 100
2, 138240, Note_on_c, 0, 77, 80
2, 138616, Note_off_c, 0, 77, 100
2, 138624, Note_on_c, 0, 74, 80
2, 138808, Note_off_c, 0, 74, 100
2, 138816, Note_on_c, 0, 72, 80
2, 139000, Note_off_c, 0, 72, 100
2, 139008, Note_on_c, 0, 77, 80
2, 139384, Note_off_c, 0, 77, 100
2, 139392, Note_on_c, 0, 75, 80
2, 139392, Note_on_c, 0, 72, 80
2, 139776, Note_on_c, 0, 65, 80
2, 140152, Note_off_c, 0, 72, 100
2, 140152, Note_off_c, 0, 75, 100
2, 140160, Note_on_c, 0, 74, 80
2, 140160, Note_on_c, 0, 70, 80
2, 140536, Note_off_c, 0, 65, 100
2, 140536, Note_off_c, 0, 74, 100
2, 140536, Note_off_c, 0, 70, 100
2, 140544, Note_on_c, 0, 72, 80
2, 140544, Note_on_c, 0, 69, 80
2, 140920, Note_off_c, 0, 72, 100
2, 140920, Note_off_c, 0, 69, 100
2, 140928, Note_on_c, 0, 87, 80
2, 140928, Note_on_c, 0, 84, 80
2, 141312, Note_on_c, 0, 77, 80
2, 141688, Note_off_c, 0, 84, 100
2, 141688, Note_off_c, 0, 87, 100
2, 141696, Note_on_c, 0, 86, 80
2, 141696, Note_on_c, 0, 82, 80
2, 142072, Note_off_c, 0, 77, 100
2, 142072, Note_off_c, 0, 86, 100
2, 142072, Note_off_c, 0, 82, 100
2, 142080, Note_on_c, 0, 84, 80
2, 142080, Note_on_c, 0, 81, 80
2, 142456, Note_off_c, 0, 84, 100
2, 142456, Note_off_c, 0, 81, 100
2, 142464, Note_on_c, 0, 84, 80
2, 142464, Note_on_c, 0, 81, 80
2, 142464, Note_on_c, 0, 91, 80
2, 142840, Note_off_c, 0, 84, 100
2, 142840, Note_off_c, 0, 81, 100
2, 142848, Note_on_c, 0, 82, 80
2, 142848, Note_on_c, 0, 77, 80
2, 143224, Note_off_c, 0, 91, 100
2, 143224, Note_off_c, 0, 82, 100
2, 143224, Note_off_c, 0, 77, 100
2, 143232, Note_on_c, 0, 89, 80
2, 143232, Note_on_c, 0, 82, 80
2, 143232, Note_on_c, 0, 77, 80
2, 143608, Note_off_c, 0, 82, 100
2, 143608, Note_off_c, 0, 77, 100
2, 143616, Note_on_c, 0, 79, 80
2, 143616, Note_on_c, 0, 82, 80
2, 143992, Note_off_c, 0, 89, 100
2, 143992, Note_off_c, 0, 79, 100
2, 143992, Note_off_c, 0, 82, 100
2, 144000, Note_on_c, 0, 81, 80
2, 144000, Note_on_c, 0, 84, 80
2, 144000, Note_on_c, 0, 87, 80
2, 144376, Note_off_c, 0, 81, 100
2, 144376, Note_off_c, 0, 84, 100
2, 144376, Note_off_c, 0, 87, 100
2, 144384, Note_on_c, 0, 86, 80
2, 144576, Note_on_c, 0, 77, 80
2, 144760, Note_off_c, 0, 77, 100
2, 144768, Note_on_c, 0, 79, 80
2, 144952, Note_off_c, 0, 79, 100
2, 144960, Note_on_c, 0, 77, 80
2, 145144, Note_off_c, 0, 77, 100
2, 145152, Note_on_c, 0, 79, 80
2, 145336, Note_off_c, 0, 79, 100
2, 145344, Note_on_c, 0, 77, 80
2, 145528, Note_off_c, 0, 77, 100
2, 145536, Note_on_c, 0, 79, 80
2, 145720, Note_off_c, 0, 79, 100
2, 145728, Note_on_c, 0, 77, 80
2, 145912, Note_off_c, 0, 86, 100
2, 145912, Note_off_c, 0, 77, 100
2, 145920, Note_on_c, 0, 84, 80
2, 146112, Note_on_c, 0, 75, 80
2, 146296, Note_off_c, 0, 75, 100
2, 146304, Note_on_c, 0, 77, 80
2, 146488, Note_off_c, 0, 77, 100
2, 146496, Note_on_c, 0, 75, 80
2, 146680, Note_off_c, 0, 75, 100
2, 146688, Note_on_c, 0, 77, 80
2, 146872, Note_off_c, 0, 77, 100
2, 146880, Note_on_c, 0, 75, 80
2, 147064, Note_off_c, 0, 75, 100
2, 147072, Note_on_c, 0, 77, 80
2, 147256, Note_off_c, 0, 77, 100
2, 147264, Note_on_c, 0, 75, 80
2, 147448, Note_off_c, 0, 84, 100
2, 147448, Note_off_c, 0, 75, 100
2, 147456, Note_on_c, 0, 82, 80
2, 147456, Note_on_c, 0, 74, 80
2, 147640, Note_off_c, 0, 74, 100
2, 147648, Note_on_c, 0, 70, 80
2, 147832, Note_off_c, 0, 70, 100
2, 147840, Note_on_c, 0, 72, 80
2, 148024, Note_off_c, 0, 72, 100
2, 148032, Note_on_c, 0, 70, 80
2, 148216, Note_off_c, 0, 82, 100
2, 148216, Note_off_c, 0, 70, 100
2, 148224, Note_on_c, 0, 79, 80
2, 148416, Note_on_c, 0, 70, 80
2, 148600, Note_off_c, 0, 79, 100
2, 148600, Note_off_c, 0, 70, 100
2, 148608, Note_on_c, 0, 77, 80
2, 148800, Note_on_c, 0, 70, 80
2, 148984, Note_off_c, 0, 77, 100
2, 148984, Note_off_c, 0, 70, 100
2, 148992, Note_on_c, 0, 77, 80
2, 148992, Note_on_c, 0, 70, 80
2, 149176, Note_off_c, 0, 70, 100
2, 149184, Note_on_c, 0, 65, 80
2, 149368, Note_off_c, 0, 77, 100
2, 149368, Note_off_c, 0, 65, 100
2, 149376, Note_on_c, 0, 75, 80
2, 149376, Note_on_c, 0, 69, 80
2, 149560, Note_off_c, 0, 69, 100
2, 149568, Note_on_c, 0, 65, 80
2, 149752, Note_off_c, 0, 75, 100
2, 149752, Note_off_c, 0, 65, 100
2, 149760, Note_on_c, 0, 74, 80
2, 149760, Note_on_c, 0, 70, 80
2, 149944, Note_off_c, 0, 70, 100
2, 149952, Note_on_c, 0, 65, 80
2, 150136, Note_off_c, 0, 74, 100
2, 150136, Note_off_c, 0, 65, 100
2, 150144, Note_on_c, 0, 72, 80
2, 150336, Note_on_c, 0, 65, 80
2, 150520, Note_off_c, 0, 72, 100
2, 150520, Note_off_c, 0, 65, 100
2, 150528, Note_on_c, 0, 74, 80
2, 150720, Note_on_c, 0, 65, 80
2, 150904, Note_off_c, 0, 65, 100
2, 150912, Note_on_c, 0, 67, 80
2, 151096, Note_off_c, 0, 67, 100
2, 151104, Note_on_c, 0, 65, 80
2, 151288, Note_off_c, 0, 65, 100
2, 151296, Note_on_c, 0, 67, 80
2, 151480, Note_off_c, 0, 67, 100
2, 151488, Note_on_c, 0, 65, 80
2, 151672, Note_off_c, 0, 65, 100
2, 151680, Note_on_c, 0, 67, 80
2, 151864, Note_off_c, 0, 67, 100
2, 151872, Note_on_c, 0, 65, 80
2, 152056, Note_off_c, 0, 74, 100
2, 152056, Note_off_c, 0, 65, 100
2, 152064, Note_on_c, 0, 72, 80
2, 152256, Note_on_c, 0, 63, 80
2, 152440, Note_off_c, 0, 63, 100
2, 152448, Note_on_c, 0, 65, 80
2, 152632, Note_off_c, 0, 65, 100
2, 152640, Note_on_c, 0, 63, 80
2, 152824, Note_off_c, 0, 63, 100
2, 152832, Note_on_c, 0, 65, 80
2, 153016, Note_off_c, 0, 65, 100
2, 153024, Note_on_c, 0, 63, 80
2, 153208, Note_off_c, 0, 63, 100
2, 153216, Note_on_c, 0, 65, 80
2, 153400, Note_off_c, 0, 65, 100
2, 153408, Note_on_c, 0, 63, 80
2, 153592, Note_off_c, 0, 72, 100
2, 153592, Note_off_c, 0, 63, 100
2, 153600, Note_on_c, 0, 70, 80
2, 153600, Note_on_c, 0, 62, 80
2, 153784, Note_off_c, 0, 62, 100
2, 153792, Note_on_c, 0, 58, 80
2, 153976, Note_off_c, 0, 58, 100
2, 153984, Note_on_c, 0, 60, 80
2, 154168, Note_off_c, 0, 60, 100
2, 154176, Note_on_c, 0, 58, 80
2, 154360, Note_off_c, 0, 70, 100
2, 154360, Note_off_c, 0, 58, 100
2, 154368, Note_on_c, 0, 67, 80
2, 154560, Note_on_c, 0, 58, 80
2, 154744, Note_off_c, 0, 67, 100
2, 154744, Note_off_c, 0, 58, 100
2, 154752, Note_on_c, 0, 65, 80
2, 154944, Note_on_c, 0, 58, 80
2, 155128, Note_off_c, 0, 65, 100
2, 155128, Note_off_c, 0, 58, 100
2, 155136, Note_on_c, 0, 65, 80
2, 155136, Note_on_c, 0, 58, 80
2, 155320, Note_off_c, 0, 58, 100
2, 155328, Note_on_c, 0, 53, 80
2, 155512, Note_off_c, 0, 65, 100
2, 155512, Note_off_c, 0, 53, 100
2, 155520, Note_on_c, 0, 63, 80
2, 155520, Note_on_c, 0, 57, 80
2, 155704, Note_off_c, 0, 57, 100
2, 155712, Note_on_c, 0, 53, 80
2, 155896, Note_off_c, 0, 63, 100
2, 155896, Note_off_c, 0, 53, 100
2, 155904, Note_on_c, 0, 62, 80
2, 155904, Note_on_c, 0, 58, 80
2, 156088, Note_off_c, 0, 58, 100
2, 156096, Note_on_c, 0, 53, 80
2, 156280, Note_off_c, 0, 62, 100
2, 156280, Note_off_c, 0, 53, 100
2, 156288, Note_on_c, 0, 60, 80
2, 156480, Note_on_c, 0, 53, 80
2, 156664, Note_off_c, 0, 60, 100
2, 156664, Note_off_c, 0, 53, 100
2, 156672, Note_on_c, 0, 58, 80
2, 156864, Note_on_c, 0, 54, 80
2, 157056, Note_on_c, 0, 50, 80
2, 157240, Note_off_c, 0, 54, 100
2, 157624, Note_off_c, 0, 58, 100
2, 157624, Note_off_c, 0, 50, 100
2, 157632, Note_on_c, 0, 53, 80
2, 157816, Note_off_c, 0, 53, 100
2, 157824, Note_on_c, 0, 50, 80
2, 158008, Note_off_c, 0, 50, 100
2, 158016, Note_on_c, 0, 58, 80
2, 158208, Note_on_c, 0, 53, 80
2, 158392, Note_off_c, 0, 58, 100
2, 158400, Note_on_c, 0, 58, 80
2, 158584, Note_off_c, 0, 58, 100
2, 158592, Note_on_c, 0, 57, 80
2, 158776, Note_off_c, 0, 57, 100
2, 158784, Note_on_c, 0, 58, 80
2, 158968, Note_off_c, 0, 53, 100
2, 158968, Note_off_c, 0, 58, 100
2, 158976, Note_on_c, 0, 60, 80
2, 159160, Note_off_c, 0, 60, 100
2, 159168, Note_on_c, 0, 62, 80
2, 159352, Note_off_c, 0, 62, 100
2, 159360, Note_on_c, 0, 63, 80
2, 159544, Note_off_c, 0, 63, 100
2, 159552, Note_on_c, 0, 60, 80
2, 159736, Note_off_c, 0, 60, 100
2, 159744, Note_on_c, 0, 70, 80
2, 159936, Note_on_c, 0, 66, 80
2, 160128, Note_on_c, 0, 62, 80
2, 160312, Note_off_c, 0, 66, 100
2, 160696, Note_off_c, 0, 70, 100
2, 160696, Note_off_c, 0, 62, 100
2, 160704, Note_on_c, 0, 65, 80
2, 160888, Note_off_c, 0, 65, 100
2, 160896, Note_on_c, 0, 62, 80
2, 161080, Note_off_c, 0, 62, 100
2, 161088, Note_on_c, 0, 70, 80
2, 161280, Note_on_c, 0, 65, 80
2, 161464, Note_off_c, 0, 70, 100
2, 161472, Note_on_c, 0, 70, 80
2, 161656, Note_off_c, 0, 70, 100
2, 161664, Note_on_c, 0, 69, 80
2, 161848, Note_off_c, 0, 69, 100
2, 161856, Note_on_c, 0, 70, 80
2, 162040, Note_off_c, 0, 65, 100
2, 162040, Note_off_c, 0, 70, 100
2, 162048, Note_on_c, 0, 72, 80
2, 162232, Note_off_c, 0, 72, 100
2, 162240, Note_on_c, 0, 74, 80
2, 162424, Note_off_c, 0, 74, 100
2, 162432, Note_on_c, 0, 75, 80
2, 162616, Note_off_c, 0, 75, 100
2, 162624, Note_on_c, 0, 72, 80
2, 162808, Note_off_c, 0, 72, 100
2, 162816, Note_on_c, 0, 74, 80
2, 163000, Note_off_c, 0, 74, 100
2, 163008, Note_on_c, 0, 72, 80
2, 163192, Note_off_c, 0, 72, 100
2, 163200, Note_on_c, 0, 70, 80
2, 163768, Note_off_c, 0, 70, 100
2, 163776, Note_on_c, 0, 67, 80
2, 163960, Note_off_c, 0, 67, 100
2, 163968, Note_on_c, 0, 65, 80
2, 164536, Note_off_c, 0, 65, 100
2, 164544, Note_on_c, 0, 63, 80
2, 164728, Note_off_c, 0, 63, 100
2, 164736, Note_on_c, 0, 62, 80
2, 165304, Note_off_c, 0, 62, 100
2, 165312, Note_on_c, 0, 60, 80
2, 165496, Note_off_c, 0, 60, 100
2, 165504, Note_on_c, 0, 58, 80
2, 166072, Note_off_c, 0, 58, 100
2, 166080, Note_on_c, 0, 55, 80
2, 166264, Note_off_c, 0, 55, 100
2, 166272, Note_on_c, 0, 53, 80
2, 166840, Note_off_c, 0, 53, 100
2, 166848, Note_on_c, 0, 51, 80
2, 167032, Note_off_c, 0, 51, 100
2, 167040, Note_on_c, 0, 50, 80
2, 167608, Note_off_c, 0, 50, 100
2, 167616, Note_on_c, 0, 48, 80
2, 167800, Note_off_c, 0, 48, 100
2, 167808, Note_on_c, 0, 46, 80
2, 168376, Note_off_c, 0, 46, 100
2, 168384, Note_on_c, 0, 48, 80
2, 168568, Note_off_c, 0, 48, 100
2, 168576, Note_on_c, 0, 46, 80
2, 169336, Note_off_c, 0, 46, 100
2, 172032, Note_on_c, 0, 77, 80
2, 172032, Note_on_c, 0, 70, 80
2, 173560, Note_off_c, 0, 77, 100
2, 173560, Note_off_c, 0, 70, 100
2, 173568, Note_on_c, 0, 80, 80
2, 173568, Note_on_c, 0, 68, 80
2, 175096, Note_off_c, 0, 80, 100
2, 175096, Note_off_c, 0, 68, 100
2, 175104, Note_on_c, 0, 79, 110
2, 175104, Note_on_c, 0, 67, 110
2, 176248, Note_off_c, 0, 79, 100
2, 176248, Note_off_c, 0, 67, 100
2, 176256, Note_on_c, 0, 74, 110
2, 176440, Note_off_c, 0, 74, 100
2, 176448, Note_on_c, 0, 79, 110
2, 176632, Note_off_c, 0, 79, 100
2, 176640, Note_on_c, 0, 79, 110
2, 176640, Note_on_c, 0, 67, 110
2, 177016, Note_off_c, 0, 79, 100
2, 177016, Note_off_c, 0, 67, 100
2, 177024, Note_on_c, 0, 72, 110
2, 177208, Note_off_c, 0, 72, 100
2, 177216, Note_on_c, 0, 77, 110
2, 177400, Note_off_c, 0, 77, 100
2, 177408, Note_on_c, 0, 77, 110
2, 177408, Note_on_c, 0, 65, 110
2, 177784, Note_off_c, 0, 77, 100
2, 177784, Note_off_c, 0, 65, 100
2, 177792, Note_on_c, 0, 72, 110
2, 177976, Note_off_c, 0, 72, 100
2, 177984, Note_on_c, 0, 75, 110
2, 178168, Note_off_c, 0, 75, 100
2, 178176, Note_on_c, 0, 75, 110
2, 178176, Note_on_c, 0, 63, 110
2, 178552, Note_off_c, 0, 75, 100
2, 178552, Note_off_c, 0, 63, 100
2, 178560, Note_on_c, 0, 69, 110
2, 178744, Note_off_c, 0, 69, 100
2, 178752, Note_on_c, 0, 74, 110
2, 178936, Note_off_c, 0, 74, 100
2, 178944, Note_on_c, 0, 74, 110
2, 178944, Note_on_c, 0, 67, 110
2, 178944, Note_on_c, 0, 62, 110
2, 179320, Note_off_c, 0, 74, 100
2, 179320, Note_off_c, 0, 67, 100
2, 179320, Note_off_c, 0, 62, 100
2, 179328, Note_on_c, 0, 72, 110
2, 179328, Note_on_c, 0, 79, 110
2, 179512, Note_off_c, 0, 79, 100
2, 179520, Note_on_c, 0, 84, 110
2, 179704, Note_off_c, 0, 72, 100
2, 179704, Note_off_c, 0, 84, 100
2, 179712, Note_on_c, 0, 65, 80
2, 181240, Note_off_c, 0, 65, 100
2, 181248, Note_on_c, 0, 63, 80
2, 182776, Note_off_c, 0, 63, 100
2, 182784, Note_on_c, 0, 69, 80
2, 182784, Note_on_c, 0, 66, 80
2, 182784, Note_on_c, 0, 75, 80
2, 185464, Note_off_c, 0, 66, 100
2, 185464, Note_off_c, 0, 69, 100
2, 185464, Note_off_c, 0, 75, 100
2, 185472, Note_on_c, 0, 73, 80
2, 185472, Note_on_c, 0, 70, 80
2, 185472, Note_on_c, 0, 65, 80
2, 185848, Note_off_c, 0, 73, 100
2, 185848, Note_off_c, 0, 70, 100
2, 185848, Note_off_c, 0, 65, 100
2, 185856, Note_on_c, 0, 73, 80
2, 187384, Note_off_c, 0, 73, 100
2, 187392, Note_on_c, 0, 72, 80
2, 188920, Note_off_c, 0, 72, 100
2, 188928, Note_on_c, 0, 81, 80
2, 188928, Note_on_c, 0, 78, 80
2, 188928, Note_on_c, 0, 74, 80
2, 188928, Note_on_c, 0, 72, 80
2, 191992, Note_off_c, 0, 72, 100
2, 191992, Note_off_c, 0, 74, 100
2, 191992, Note_off_c, 0, 78, 100
2, 191992, Note_off_c, 0, 81, 100
2, 192000, Note_on_c, 0, 72, 80
2, 193528, Note_off_c, 0, 72, 100
2, 193536, Note_on_c, 0, 71, 80
2, 195064, Note_off_c, 0, 71, 100
2, 195072, Note_on_c, 0, 81, 80
2, 195072, Note_on_c, 0, 78, 80
2, 195072, Note_on_c, 0, 75, 80
2, 195072, Note_on_c, 0, 71, 80
2, 198136, Note_off_c, 0, 71, 100
2, 198136, Note_off_c, 0, 75, 100
2, 198136, Note_off_c, 0, 78, 100
2, 198136, Note_off_c, 0, 81, 100
2, 198144, Note_on_c, 0, 71, 80
2, 199672, Note_off_c, 0, 71, 100
2, 199680, Note_on_c, 0, 70, 80
2, 201208, Note_off_c, 0, 70, 100
2, 201216, Note_on_c, 0, 80, 80
2, 201216, Note_on_c, 0, 77, 80
2, 201216, Note_on_c, 0, 74, 80
2, 201216, Note_on_c, 0, 70, 80
2, 203128, Note_off_c, 0, 70, 100
2, 203128, Note_off_c, 0, 74, 100
2, 203128, Note_off_c, 0, 77, 100
2, 203128, Note_off_c, 0, 80, 100
2, 203136, Note_on_c, 0, 82, 80
2, 203512, Note_off_c, 0, 82, 100
2, 203520, Note_on_c, 0, 83, 80
2, 203896, Note_off_c, 0, 83, 100
2, 203904, Note_on_c, 0, 82, 80
2, 204280, Note_off_c, 0, 82, 100
2, 204288, Note_on_c, 0, 80, 80
2, 204288, Note_on_c, 0, 77, 80
2, 204288, Note_on_c, 0, 74, 80
2, 204288, Note_on_c, 0, 70, 80
2, 206200, Note_off_c, 0, 70, 100
2, 206200, Note_off_c, 0, 74, 100
2, 206200, Note_off_c, 0, 77, 100
2, 206200, Note_off_c, 0, 80, 100
2, 206208, Note_on_c, 0, 82, 80
2, 206208, Note_on_c, 0, 77, 80
2, 206584, Note_off_c, 0, 82, 100
2, 206584, Note_off_c, 0, 77, 100
2, 206592, Note_on_c, 0, 83, 95
2, 206592, Note_on_c, 0, 78, 95
2, 206968, Note_off_c, 0, 83, 100
2, 206968, Note_off_c, 0, 78, 100
2, 206976, Note_on_c, 0, 82, 110
2, 206976, Note_on_c, 0, 77, 110
2, 207352, Note_off_c, 0, 82, 100
2, 207352, Note_off_c, 0, 77, 100
2, 207360, Note_on_c, 0, 87, 110
2, 207360, Note_on_c, 0, 82, 110
2, 207360, Note_on_c, 0, 79, 110
2, 207360, Note_on_c, 0, 75, 110
2, 208504, Note_off_c, 0, 87, 100
2, 208504, Note_off_c, 0, 82, 100
2, 208504, Note_off_c, 0, 79, 100
2, 208504, Note_off_c, 0, 75, 100
2, 208512, Note_on_c, 0, 77, 110
2, 208512, Note_on_c, 0, 80, 110
2, 208696, Note_off_c, 0, 80, 100
2, 208704, Note_on_c, 0, 85, 110
2, 208888, Note_off_c, 0, 77, 100
2, 208888, Note_off_c, 0, 85, 100
2, 208896, Note_on_c, 0, 85, 110
2, 208896, Note_on_c, 0, 78, 110
2, 209272, Note_off_c, 0, 85, 100
2, 209272, Note_off_c, 0, 78, 100
2, 209280, Note_on_c, 0, 71, 110
2, 209280, Note_on_c, 0, 77, 110
2, 209464, Note_off_c, 0, 77, 100
2, 209472, Note_on_c, 0, 83, 110
2, 209656, Note_off_c, 0, 71, 100
2, 209656, Note_off_c, 0, 83, 100
2, 209664, Note_on_c, 0, 83, 110
2, 209664, Note_on_c, 0, 80, 110
2, 209664, Note_on_c, 0, 71, 110
2, 210040, Note_off_c, 0, 83, 100
2, 210040, Note_off_c, 0, 80, 100
2, 210040, Note_off_c, 0, 71, 100
2, 210048, Note_on_c, 0, 82, 110
2, 210048, Note_on_c, 0, 78, 110
2, 210048, Note_on_c, 0, 70, 110
2, 210424, Note_off_c, 0, 82, 100
2, 210424, Note_off_c, 0, 78, 100
2, 210424, Note_off_c, 0, 70, 100
2, 210432, Note_on_c, 0, 80, 80
2, 210432, Note_on_c, 0, 68, 80
2, 210808, Note_off_c, 0, 80, 100
2, 210808, Note_off_c, 0, 68, 100
2, 210816, Note_on_c, 0, 78, 80
2, 210816, Note_on_c, 0, 66, 80
2, 211192, Note_off_c, 0, 78, 100
2, 211192, Note_off_c, 0, 66, 100
2, 211200, Note_on_c, 0, 77, 80
2, 211200, Note_on_c, 0, 65, 80
2, 211576, Note_off_c, 0, 77, 100
2, 211576, Note_off_c, 0, 65, 100
2, 211584, Note_on_c, 0, 78, 80
2, 211584, Note_on_c, 0, 66, 80
2, 211960, Note_off_c, 0, 78, 100
2, 211960, Note_off_c, 0, 66, 100
2, 211968, Note_on_c, 0, 80, 80
2, 211968, Note_on_c, 0, 71, 80
2, 211968, Note_on_c, 0, 68, 80
2, 213496, Note_off_c, 0, 80, 100
2, 213496, Note_off_c, 0, 71, 100
2, 213496, Note_off_c, 0, 68, 100
2, 213504, Note_on_c, 0, 80, 80
2, 213504, Note_on_c, 0, 71, 80
2, 213504, Note_on_c, 0, 68, 80
2, 215032, Note_off_c, 0, 80, 100
2, 215032, Note_off_c, 0, 71, 100
2, 215032, Note_off_c, 0, 68, 100
2, 215040, Note_on_c, 0, 79, 79
2, 215040, Note_on_c, 0, 72, 79
2, 215040, Note_on_c, 0, 67, 79
2, 216568, Note_off_c, 0, 79, 100
2, 216568, Note_off_c, 0, 72, 100
2, 216568, Note_off_c, 0, 67, 100
2, 216576, Note_on_c, 0, 77, 78
2, 216576, Note_on_c, 0, 71, 78
2, 216576, Note_on_c, 0, 67, 78
2, 216576, Note_on_c, 0, 65, 78
2, 218104, Note_off_c, 0, 77, 100
2, 218104, Note_off_c, 0, 71, 100
2, 218104, Note_off_c, 0, 67, 100
2, 218104, Note_off_c, 0, 65, 100
2, 218112, Note_on_c, 0, 75, 77
2, 218112, Note_on_c, 0, 72, 77
2, 218112, Note_on_c, 0, 63, 77
2, 218112, Note_on_c, 0, 67, 77
2, 219640, Note_off_c, 0, 75, 100
2, 219640, Note_off_c, 0, 72, 100
2, 219640, Note_off_c, 0, 63, 100
2, 219640, Note_off_c, 0, 67, 100
2, 219648, Note_on_c, 0, 74, 76
2, 219648, Note_on_c, 0, 71, 76
2, 219648, Note_on_c, 0, 68, 76
2, 219648, Note_on_c, 0, 65, 76
2, 221176, Note_off_c, 0, 74, 100
2, 221176, Note_off_c, 0, 71, 100
2, 221176, Note_off_c, 0, 68, 100
2, 221176, Note_off_c, 0, 65, 100
2, 221184, Note_on_c, 0, 72, 75
2, 221184, Note_on_c, 0, 67, 75
2, 221184, Note_on_c, 0, 63, 75
2, 222712, Note_off_c, 0, 72, 100
2, 222712, Note_off_c, 0, 67, 100
2, 222712, Note_off_c, 0, 63, 100
2, 222720, Note_on_c, 0, 68, 74
2, 222720, Note_on_c, 0, 65, 74
2, 222720, Note_on_c, 0, 62, 74
2, 222720, Note_on_c, 0, 59, 74
2, 224248, Note_off_c, 0, 68, 100
2, 224248, Note_off_c, 0, 65, 100
2, 224248, Note_off_c, 0, 62, 100
2, 224248, Note_off_c, 0, 59, 100
2, 224256, Note_on_c, 0, 67, 73
2, 224256, Note_on_c, 0, 63, 73
2, 224256, Note_on_c, 0, 60, 73
2, 225784, Note_off_c, 0, 67, 100
2, 225784, Note_off_c, 0, 63, 100
2, 225784, Note_off_c, 0, 60, 100
2, 225792, Note_on_c, 0, 68, 71
2, 225792, Note_on_c, 0, 63, 71
2, 225792, Note_on_c, 0, 60, 71
2, 227320, Note_off_c, 0, 68, 100
2, 227320, Note_off_c, 0, 63, 100
2, 227320, Note_off_c, 0, 60, 100
2, 227328, Note_on_c, 0, 68, 70
2, 227328, Note_on_c, 0, 63, 70
2, 228856, Note_off_c, 0, 68, 100
2, 228856, Note_off_c, 0, 63, 100
2, 228864, Note_on_c, 0, 68, 70
2, 228864, Note_on_c, 0, 62, 70
2, 230392, Note_off_c, 0, 68, 100
2, 230392, Note_off_c, 0, 62, 100
2, 230400, Note_on_c, 0, 68, 70
2, 230400, Note_on_c, 0, 63, 70
2, 231928, Note_off_c, 0, 68, 100
2, 231928, Note_off_c, 0, 63, 100
2, 231936, Note_on_c, 0, 68, 70
2, 231936, Note_on_c, 0, 63, 70
2, 233464, Note_off_c, 0, 68, 100
2, 233464, Note_off_c, 0, 63, 100
2, 233472, Note_on_c, 0, 68, 70
2, 233472, Note_on_c, 0, 63, 70
2, 234616, Note_off_c, 0, 68, 100
2, 234616, Note_off_c, 0, 63, 100
2, 234624, Note_on_c, 0, 56, 85
2, 234808, Note_off_c, 0, 56, 100
2, 234816, Note_on_c, 0, 68, 88
2, 235000, Note_off_c, 0, 68, 100
2, 235008, Note_on_c, 0, 56, 91
2, 235192, Note_off_c, 0, 56, 100
2, 235200, Note_on_c, 0, 68, 93
2, 235384, Note_off_c, 0, 68, 100
2, 235392, Note_on_c, 0, 68, 96
2, 235576, Note_off_c, 0, 68, 100
2, 235584, Note_on_c, 0, 80, 99
2, 235768, Note_off_c, 0, 80, 100
2, 235776, Note_on_c, 0, 68, 101
2, 235960, Note_off_c, 0, 68, 100
2, 235968, Note_on_c, 0, 80, 104
2, 236152, Note_off_c, 0, 80, 100
2, 236160, Note_on_c, 0, 68, 107
2, 236344, Note_off_c, 0, 68, 100
2, 236352, Note_on_c, 0, 80, 109
2, 236536, Note_off_c, 0, 80, 100
2, 236544, Note_on_c, 0, 80, 110
2, 236544, Note_on_c, 0, 68, 110
2, 237688, Note_off_c, 0, 80, 100
2, 237688, Note_off_c, 0, 68, 100
2, 237696, Note_on_c, 0, 67, 110
2, 237696, Note_on_c, 0, 74, 110
2, 237880, Note_off_c, 0, 74, 100
2, 237888, Note_on_c, 0, 79, 110
2, 238072, Note_off_c, 0, 67, 100
2, 238072, Note_off_c, 0, 79, 100
2, 238080, Note_on_c, 0, 67, 110
2, 238080, Note_on_c, 0, 79, 110
2, 238456, Note_off_c, 0, 67, 100
2, 238456, Note_off_c, 0, 79, 100
2, 238464, Note_on_c, 0, 65, 110
2, 238464, Note_on_c, 0, 72, 110
2, 238648, Note_off_c, 0, 72, 100
2, 238656, Note_on_c, 0, 77, 110
2, 238840, Note_off_c, 0, 65, 100
2, 238840, Note_off_c, 0, 77, 100
2, 238848, Note_on_c, 0, 65, 110
2, 238848, Note_on_c, 0, 77, 110
2, 239224, Note_off_c, 0, 65, 100
2, 239224, Note_off_c, 0, 77, 100
2, 239232, Note_on_c, 0, 63, 110
2, 239232, Note_on_c, 0, 70, 110
2, 239416, Note_off_c, 0, 70, 100
2, 239424, Note_on_c, 0, 75, 110
2, 239608, Note_off_c, 0, 63, 100
2, 239608, Note_off_c, 0, 75, 100
2, 239616, Note_on_c, 0, 70, 110
2, 239616, Note_on_c, 0, 68, 110
2, 239616, Note_on_c, 0, 75, 110
2, 239616, Note_on_c, 0, 63, 110
2, 240376, Note_off_c, 0, 75, 100
2, 240376, Note_off_c, 0, 63, 100
2, 240384, Note_on_c, 0, 74, 80
2, 240384, Note_on_c, 0, 62, 80
2, 240760, Note_off_c, 0, 70, 100
2, 240760, Note_off_c, 0, 68, 100
2, 240760, Note_off_c, 0, 74, 100
2, 240760, Note_off_c, 0, 62, 100
2, 240768, Note_on_c, 0, 75, 80
2, 240768, Note_on_c, 0, 70, 80
2, 240768, Note_on_c, 0, 63, 80
2, 241144, Note_off_c, 0, 75, 100
2, 241144, Note_off_c, 0, 70, 100
2, 241144, Note_off_c, 0, 63, 100
2, 241152, Note_on_c, 0, 77, 80
2, 241152, Note_on_c, 0, 70, 80
2, 241152, Note_on_c, 0, 65, 80
2, 241528, Note_off_c, 0, 77, 100
2, 241528, Note_off_c, 0, 70, 100
2, 241528, Note_off_c, 0, 65, 100
2, 241536, Note_on_c, 0, 79, 80
2, 241536, Note_on_c, 0, 70, 80
2, 241536, Note_on_c, 0, 67, 80
2, 241912, Note_off_c, 0, 79, 100
2, 241912, Note_off_c, 0, 70, 100
2, 241912, Note_off_c, 0, 67, 100
2, 241920, Note_on_c, 0, 80, 80
2, 241920, Note_on_c, 0, 70, 80
2, 241920, Note_on_c, 0, 68, 80
2, 242296, Note_off_c, 0, 80, 100
2, 242296, Note_off_c, 0, 70, 100
2, 242296, Note_off_c, 0, 68, 100
2, 242304, Note_on_c, 0, 82, 80
2, 242304, Note_on_c, 0, 70, 80
2, 242680, Note_off_c, 0, 82, 100
2, 242680, Note_off_c, 0, 70, 100
2, 242688, Note_on_c, 0, 79, 80
2, 242688, Note_on_c, 0, 70, 80
2, 242688, Note_on_c, 0, 67, 80
2, 243064, Note_off_c, 0, 79, 100
2, 243064, Note_off_c, 0, 70, 100
2, 243064, Note_off_c, 0, 67, 100
2, 243456, Note_on_c, 0, 82, 88
2, 243456, Note_on_c, 0, 70, 88
2, 243832, Note_off_c, 0, 82, 100
2, 243832, Note_off_c, 0, 70, 100
2, 244224, Note_on_c, 0, 94, 111
2, 244224, Note_on_c, 0, 82, 111
2, 245368, Note_off_c, 0, 94, 100
2, 245368, Note_off_c, 0, 82, 100
2, 245376, Note_on_c, 0, 82, 110
2, 245376, Note_on_c, 0, 70, 110
2, 246904, Note_off_c, 0, 70, 100
2, 246904, Note_off_c, 0, 82, 100
2, 246912, Note_on_c, 0, 79, 80
2, 246912, Note_on_c, 0, 67, 80
2, 247288, Note_off_c, 0, 79, 100
2, 247288, Note_off_c, 0, 67, 100
2, 247296, Note_on_c, 0, 77, 80
2, 247296, Note_on_c, 0, 65, 80
2, 247672, Note_off_c, 0, 77, 100
2, 247672, Note_off_c, 0, 65, 100
2, 247680, Note_on_c, 0, 74, 80
2, 247680, Note_on_c, 0, 62, 80
2, 248056, Note_off_c, 0, 74, 100
2, 248056, Note_off_c, 0, 62, 100
2, 248064, Note_on_c, 0, 71, 80
2, 248064, Note_on_c, 0, 59, 80
2, 248440, Note_off_c, 0, 71, 100
2, 248440, Note_off_c, 0, 59, 100
2, 248448, Note_on_c, 0, 70, 80
2, 248448, Note_on_c, 0, 58, 80
2, 248824, Note_off_c, 0, 70, 100
2, 248824, Note_off_c, 0, 58, 100
2, 248832, Note_on_c, 0, 70, 80
2, 248832, Note_on_c, 0, 58, 80
2, 249208, Note_off_c, 0, 70, 100
2, 249208, Note_off_c, 0, 58, 100
2, 249600, Note_on_c, 0, 82, 88
2, 249600, Note_on_c, 0, 70, 88
2, 249976, Note_off_c, 0, 82, 100
2, 249976, Note_off_c, 0, 70, 100
2, 250368, Note_on_c, 0, 94, 110
2, 250368, Note_on_c, 0, 82, 111
2, 251512, Note_off_c, 0, 94, 100
2, 251512, Note_off_c, 0, 82, 100
2, 251520, Note_on_c, 0, 82, 110
2, 251520, Note_on_c, 0, 70, 110
2, 253048, Note_off_c, 0, 70, 100
2, 253048, Note_off_c, 0, 82, 100
2, 253056, Note_on_c, 0, 79, 80
2, 253056, Note_on_c, 0, 67, 80
2, 253432, Note_off_c, 0, 79, 100
2, 253432, Note_off_c, 0, 67, 100
2, 253440, Note_on_c, 0, 76, 80
2, 253440, Note_on_c, 0, 64, 80
2, 253816, Note_off_c, 0, 76, 100
2, 253816, Note_off_c, 0, 64, 100
2, 253824, Note_on_c, 0, 65, 80
2, 253824, Note_on_c, 0, 77, 80
2, 254200, Note_off_c, 0, 65, 100
2, 254200, Note_off_c, 0, 77, 100
2, 254208, Note_on_c, 0, 72, 80
2, 254208, Note_on_c, 0, 60, 80
2, 254584, Note_off_c, 0, 72, 100
2, 254584, Note_off_c, 0, 60, 100
2, 254592, Note_on_c, 0, 75, 80
2, 254592, Note_on_c, 0, 63, 80
2, 254968, Note_off_c, 0, 75, 100
2, 254968, Note_off_c, 0, 63, 100
2, 254976, Note_on_c, 0, 74, 80
2, 254976, Note_on_c, 0, 62, 80
2, 255160, Note_off_c, 0, 74, 100
2, 255160, Note_off_c, 0, 62, 100
2, 255168, Note_on_c, 0, 70, 80
2, 255352, Note_off_c, 0, 70, 100
2, 255360, Note_on_c, 0, 69, 80
2, 255544, Note_off_c, 0, 69, 100
2, 255552, Note_on_c, 0, 70, 80
2, 255736, Note_off_c, 0, 70, 100
2, 255744, Note_on_c, 0, 72, 80
2, 255744, Note_on_c, 0, 69, 80
2, 255928, Note_off_c, 0, 72, 100
2, 255928, Note_off_c, 0, 69, 100
2, 255936, Note_on_c, 0, 74, 80
2, 255936, Note_on_c, 0, 70, 80
2, 256120, Note_off_c, 0, 74, 100
2, 256120, Note_off_c, 0, 70, 100
2, 256128, Note_on_c, 0, 75, 80
2, 256128, Note_on_c, 0, 72, 80
2, 256312, Note_off_c, 0, 75, 100
2, 256312, Note_off_c, 0, 72, 100
2, 256320, Note_on_c, 0, 77, 80
2, 256320, Note_on_c, 0, 74, 80
2, 256504, Note_off_c, 0, 77, 100
2, 256504, Note_off_c, 0, 74, 100
2, 256512, Note_on_c, 0, 79, 80
2, 256512, Note_on_c, 0, 75, 80
2, 257272, Note_off_c, 0, 79, 100
2, 257272, Note_off_c, 0, 75, 100
2, 257280, Note_on_c, 0, 84, 80
2, 257280, Note_on_c, 0, 80, 80
2, 257464, Note_off_c, 0, 84, 100
2, 257464, Note_off_c, 0, 80, 100
2, 257472, Note_on_c, 0, 82, 80
2, 257472, Note_on_c, 0, 79, 80
2, 257656, Note_off_c, 0, 82, 100
2, 257656, Note_off_c, 0, 79, 100
2, 257664, Note_on_c, 0, 80, 80
2, 257664, Note_on_c, 0, 77, 80
2, 257848, Note_off_c, 0, 80, 100
2, 257848, Note_off_c, 0, 77, 100
2, 257856, Note_on_c, 0, 79, 80
2, 257856, Note_on_c, 0, 75, 80
2, 258040, Note_off_c, 0, 79, 100
2, 258040, Note_off_c, 0, 75, 100
2, 258048, Note_on_c, 0, 77, 80
2, 258048, Note_on_c, 0, 74, 80
2, 258424, Note_off_c, 0, 77, 100
2, 258424, Note_off_c, 0, 74, 100
2, 258432, Note_on_c, 0, 80, 80
2, 258432, Note_on_c, 0, 71, 80
2, 258616, Note_off_c, 0, 80, 100
2, 258616, Note_off_c, 0, 71, 100
2, 258624, Note_on_c, 0, 79, 80
2, 258624, Note_on_c, 0, 72, 80
2, 258808, Note_off_c, 0, 79, 100
2, 258808, Note_off_c, 0, 72, 100
2, 258816, Note_on_c, 0, 77, 80
2, 258816, Note_on_c, 0, 67, 80
2, 259000, Note_off_c, 0, 77, 100
2, 259000, Note_off_c, 0, 67, 100
2, 259008, Note_on_c, 0, 78, 82
2, 259008, Note_on_c, 0, 75, 82
2, 259192, Note_off_c, 0, 78, 100
2, 259192, Note_off_c, 0, 75, 100
2, 259200, Note_on_c, 0, 79, 85
2, 259200, Note_on_c, 0, 74, 85
2, 259384, Note_off_c, 0, 79, 100
2, 259384, Note_off_c, 0, 74, 100
2, 259392, Note_on_c, 0, 81, 88
2, 259392, Note_on_c, 0, 74, 88
2, 259392, Note_on_c, 0, 78, 88
2, 259576, Note_off_c, 0, 81, 100
2, 259576, Note_off_c, 0, 74, 100
2, 259576, Note_off_c, 0, 78, 100
2, 259584, Note_on_c, 0, 83, 91
2, 259584, Note_on_c, 0, 79, 91
2, 259584, Note_on_c, 0, 74, 91
2, 259768, Note_off_c, 0, 83, 100
2, 259768, Note_off_c, 0, 79, 100
2, 259768, Note_off_c, 0, 74, 100
2, 259776, Note_on_c, 0, 83, 94
2, 259776, Note_on_c, 0, 79, 94
2, 259776, Note_on_c, 0, 74, 94
2, 259960, Note_off_c, 0, 83, 100
2, 259960, Note_off_c, 0, 79, 100
2, 259960, Note_off_c, 0, 74, 100
2, 259968, Note_on_c, 0, 84, 96
2, 259968, Note_on_c, 0, 79, 96
2, 259968, Note_on_c, 0, 75, 96
2, 260152, Note_off_c, 0, 84, 100
2, 260152, Note_off_c, 0, 79, 100
2, 260152, Note_off_c, 0, 75, 100
2, 260160, Note_on_c, 0, 86, 99
2, 260160, Note_on_c, 0, 83, 99
2, 260160, Note_on_c, 0, 77, 99
2, 260344, Note_off_c, 0, 86, 100
2, 260344, Note_off_c, 0, 83, 100
2, 260344, Note_off_c, 0, 77, 100
2, 260352, Note_on_c, 0, 87, 102
2, 260352, Note_on_c, 0, 84, 102
2, 260352, Note_on_c, 0, 79, 102
2, 260536, Note_off_c, 0, 87, 100
2, 260536, Note_off_c, 0, 84, 100
2, 260536, Note_off_c, 0, 79, 100
2, 260544, Note_on_c, 0, 88, 105
2, 260544, Note_on_c, 0, 84, 105
2, 260544, Note_on_c, 0, 79, 105
2, 260728, Note_off_c, 0, 88, 100
2, 260728, Note_off_c, 0, 84, 100
2, 260728, Note_off_c, 0, 79, 100
2, 260736, Note_on_c, 0, 89, 108
2, 260736, Note_on_c, 0, 84, 108
2, 260736, Note_on_c, 0, 77, 108
2, 260920, Note_off_c, 0, 89, 100
2, 260920, Note_off_c, 0, 84, 100
2, 260920, Note_off_c, 0, 77, 100
2, 260928, Note_on_c, 0, 89, 110
2, 260928, Note_on_c, 0, 84, 110
2, 260928, Note_on_c, 0, 77, 110
2, 261112, Note_off_c, 0, 89, 100
2, 261112, Note_off_c, 0, 84, 100
2, 261112, Note_off_c, 0, 77, 100
2, 261120, Note_on_c, 0, 77, 110
2, 261120, Note_on_c, 0, 82, 110
2, 261120, Note_on_c, 0, 86, 110
2, 261496, Note_off_c, 0, 77, 100
2, 261496, Note_off_c, 0, 82, 100
2, 261496, Note_off_c, 0, 86, 100
2, 261888, Note_on_c, 0, 87, 110
2, 261888, Note_on_c, 0, 82, 110
2, 261888, Note_on_c, 0, 75, 110
2, 262264, Note_off_c, 0, 87, 100
2, 262264, Note_off_c, 0, 82, 100
2, 262264, Note_off_c, 0, 75, 100
2, 262656, Note_on_c, 0, 68, 110
2, 262656, Note_on_c, 0, 63, 110
2, 263800, Note_off_c, 0, 68, 100
2, 263808, Note_on_c, 0, 70, 110
2, 264184, Note_off_c, 0, 70, 100
2, 264192, Note_on_c, 0, 71, 110
2, 264568, Note_off_c, 0, 63, 100
2, 264576, Note_on_c, 0, 63, 110
2, 264760, Note_off_c, 0, 63, 100
2, 264768, Note_on_c, 0, 62, 110
2, 264952, Note_off_c, 0, 62, 100
2, 264960, Note_on_c, 0, 63, 110
2, 265144, Note_off_c, 0, 63, 100
2, 265152, Note_on_c, 0, 62, 110
2, 265336, Note_off_c, 0, 62, 100
2, 265344, Note_on_c, 0, 63, 110
2, 265528, Note_off_c, 0, 63, 100
2, 265536, Note_on_c, 0, 62, 110
2, 265720, Note_off_c, 0, 71, 100
2, 265720, Note_off_c, 0, 62, 100
2, 265728, Note_on_c, 0, 68, 110
2, 265728, Note_on_c, 0, 63, 110
2, 266872, Note_off_c, 0, 68, 100
2, 266880, Note_on_c, 0, 70, 110
2, 267256, Note_off_c, 0, 70, 100
2, 267264, Note_on_c, 0, 72, 110
2, 267640, Note_off_c, 0, 63, 100
2, 267648, Note_on_c, 0, 63, 110
2, 267832, Note_off_c, 0, 63, 100
2, 267840, Note_on_c, 0, 62, 110
2, 268024, Note_off_c, 0, 62, 100
2, 268032, Note_on_c, 0, 63, 110
2, 268216, Note_off_c, 0, 63, 100
2, 268224, Note_on_c, 0, 62, 110
2, 268408, Note_off_c, 0, 62, 100
2, 268416, Note_on_c, 0, 63, 110
2, 268600, Note_off_c, 0, 63, 100
2, 268608, Note_on_c, 0, 62, 110
2, 268792, Note_off_c, 0, 72, 100
2, 268792, Note_off_c, 0, 62, 100
2, 268800, Note_on_c, 0, 71, 80
2, 269176, Note_off_c, 0, 71, 100
2, 269184, Note_on_c, 0, 63, 80
2, 269368, Note_off_c, 0, 63, 100
2, 269376, Note_on_c, 0, 62, 80
2, 269560, Note_off_c, 0, 62, 100
2, 269568, Note_on_c, 0, 63, 80
2, 269752, Note_off_c, 0, 63, 100
2, 269760, Note_on_c, 0, 62, 80
2, 269944, Note_off_c, 0, 62, 100
2, 269952, Note_on_c, 0, 63, 80
2, 270136, Note_off_c, 0, 63, 100
2, 270144, Note_on_c, 0, 62, 80
2, 270328, Note_off_c, 0, 62, 100
2, 270336, Note_on_c, 0, 70, 80
2, 270712, Note_off_c, 0, 70, 100
2, 270720, Note_on_c, 0, 65, 80
2, 270904, Note_off_c, 0, 65, 100
2, 270912, Note_on_c, 0, 64, 80
2, 271096, Note_off_c, 0, 64, 100
2, 271104, Note_on_c, 0, 65, 80
2, 271288, Note_off_c, 0, 65, 100
2, 271296, Note_on_c, 0, 64, 80
2, 271480, Note_off_c, 0, 64, 100
2, 271488, Note_on_c, 0, 65, 80
2, 271672, Note_off_c, 0, 65, 100
2, 271680, Note_on_c, 0, 64, 80
2, 271864, Note_off_c, 0, 64, 100
2, 271872, Note_on_c, 0, 70, 80
2, 272248, Note_off_c, 0, 70, 100
2, 272256, Note_on_c, 0, 67, 80
2, 272440, Note_off_c, 0, 67, 100
2, 272448, Note_on_c, 0, 65, 80
2, 272632, Note_off_c, 0, 65, 100
2, 272640, Note_on_c, 0, 70, 80
2, 273016, Note_off_c, 0, 70, 100
2, 273024, Note_on_c, 0, 65, 80
2, 273208, Note_off_c, 0, 65, 100
2, 273216, Note_on_c, 0, 63, 80
2, 273400, Note_off_c, 0, 63, 100
2, 273408, Note_on_c, 0, 70, 80
2, 273784, Note_off_c, 0, 70, 100
2, 273792, Note_on_c, 0, 63, 80
2, 273976, Note_off_c, 0, 63, 100
2, 273984, Note_on_c, 0, 62, 80
2, 274168, Note_off_c, 0, 62, 100
2, 274176, Note_on_c, 0, 70, 80
2, 274552, Note_off_c, 0, 70, 100
2, 274560, Note_on_c, 0, 65, 80
2, 274744, Note_off_c, 0, 65, 100
2, 274752, Note_on_c, 0, 63, 80
2, 274936, Note_off_c, 0, 63, 100
2, 274944, Note_on_c, 0, 83, 80
2, 275320, Note_off_c, 0, 83, 100
2, 275328, Note_on_c, 0, 75, 80
2, 275512, Note_off_c, 0, 75, 100
2, 275520, Note_on_c, 0, 74, 80
2, 275704, Note_off_c, 0, 74, 100
2, 275712, Note_on_c, 0, 75, 80
2, 275896, Note_off_c, 0, 75, 100
2, 275904, Note_on_c, 0, 74, 80
2, 276088, Note_off_c, 0, 74, 100
2, 276096, Note_on_c, 0, 75, 80
2, 276280, Note_off_c, 0, 75, 100
2, 276288, Note_on_c, 0, 74, 80
2, 276472, Note_off_c, 0, 74, 100
2, 276480, Note_on_c, 0, 82, 80
2, 276856, Note_off_c, 0, 82, 100
2, 276864, Note_on_c, 0, 77, 80
2, 277048, Note_off_c, 0, 77, 100
2, 277056, Note_on_c, 0, 76, 80
2, 277240, Note_off_c, 0, 76, 100
2, 277248, Note_on_c, 0, 77, 80
2, 277432, Note_off_c, 0, 77, 100
2, 277440, Note_on_c, 0, 76, 80
2, 277624, Note_off_c, 0, 76, 100
2, 277632, Note_on_c, 0, 77, 80
2, 277816, Note_off_c, 0, 77, 100
2, 277824, Note_on_c, 0, 76, 80
2, 278008, Note_off_c, 0, 76, 100
2, 278016, Note_on_c, 0, 82, 80
2, 278392, Note_off_c, 0, 82, 100
2, 278400, Note_on_c, 0, 79, 80
2, 278584, Note_off_c, 0, 79, 100
2, 278592, Note_on_c, 0, 77, 80
2, 278776, Note_off_c, 0, 77, 100
2, 278784, Note_on_c, 0, 82, 80
2, 279160, Note_off_c, 0, 82, 100
2, 279168, Note_on_c, 0, 77, 80
2, 279352, Note_off_c, 0, 77, 100
2, 279360, Note_on_c, 0, 75, 80
2, 279544, Note_off_c, 0, 75, 100
2, 279552, Note_on_c, 0, 82, 80
2, 279928, Note_off_c, 0, 82, 100
2, 279936, Note_on_c, 0, 79, 80
2, 280120, Note_off_c, 0, 79, 100
2, 280128, Note_on_c, 0, 77, 80
2, 280312, Note_off_c, 0, 77, 100
2, 280320, Note_on_c, 0, 82, 80
2, 280696, Note_off_c, 0, 82, 100
2, 280704, Note_on_c, 0, 80, 80
2, 280704, Note_on_c, 0, 77, 80
2, 281088, Note_on_c, 0, 70, 80
2, 281464, Note_off_c, 0, 77, 100
2, 281464, Note_off_c, 0, 80, 100
2, 281472, Note_on_c, 0, 79, 80
2, 281472, Note_on_c, 0, 75, 80
2, 281848, Note_off_c, 0, 70, 100
2, 281848, Note_off_c, 0, 79, 100
2, 281848, Note_off_c, 0, 75, 100
2, 281856, Note_on_c, 0, 77, 80
2, 281856, Note_on_c, 0, 74, 80
2, 282232, Note_off_c, 0, 77, 100
2, 282232, Note_off_c, 0, 74, 100
2, 282240, Note_on_c, 0, 92, 80
2, 282240, Note_on_c, 0, 89, 80
2, 282624, Note_on_c, 0, 70, 80
2, 283000, Note_off_c, 0, 89, 100
2, 283000, Note_off_c, 0, 92, 100
2, 283008, Note_on_c, 0, 87, 80
2, 283008, Note_on_c, 0, 91, 80
2, 283384, Note_off_c, 0, 70, 100
2, 283384, Note_off_c, 0, 87, 100
2, 283384, Note_off_c, 0, 91, 100
2, 283392, Note_on_c, 0, 86, 80
2, 283392, Note_on_c, 0, 89, 80
2, 283768, Note_off_c, 0, 86, 100
2, 283768, Note_off_c, 0, 89, 100
2, 283776, Note_on_c, 0, 86, 80
2, 283776, Note_on_c, 0, 89, 80
2, 283776, Note_on_c, 0, 96, 80
2, 284152, Note_off_c, 0, 86, 100
2, 284152, Note_off_c, 0, 89, 100
2, 284160, Note_on_c, 0, 87, 80
2, 284160, Note_on_c, 0, 82, 80
2, 284536, Note_off_c, 0, 96, 100
2, 284536, Note_off_c, 0, 87, 100
2, 284536, Note_off_c, 0, 82, 100
2, 284544, Note_on_c, 0, 94, 80
2, 284544, Note_on_c, 0, 87, 80
2, 284544, Note_on_c, 0, 82, 80
2, 284920, Note_off_c, 0, 87, 100
2, 284920, Note_off_c, 0, 82, 100
2, 284928, Note_on_c, 0, 87, 80
2, 284928, Note_on_c, 0, 84, 80
2, 285304, Note_off_c, 0, 94, 100
2, 285304, Note_off_c, 0, 87, 100
2, 285304, Note_off_c, 0, 84, 100
2, 285312, Note_on_c, 0, 89, 80
2, 285312, Note_on_c, 0, 92, 80
2, 285312, Note_on_c, 0, 86, 80
2, 285688, Note_off_c, 0, 89, 100
2, 285688, Note_off_c, 0, 92, 100
2, 285688, Note_off_c, 0, 86, 100
2, 285696, Note_on_c, 0, 79, 80
2, 285696, Note_on_c, 0, 91, 80
2, 285888, Note_on_c, 0, 82, 80
2, 286072, Note_off_c, 0, 82, 100
2, 286080, Note_on_c, 0, 84, 80
2, 286264, Note_off_c, 0, 84, 100
2, 286272, Note_on_c, 0, 82, 80
2, 286456, Note_off_c, 0, 82, 100
2, 286464, Note_on_c, 0, 84, 80
2, 286648, Note_off_c, 0, 84, 100
2, 286656, Note_on_c, 0, 82, 80
2, 286840, Note_off_c, 0, 82, 100
2, 286848, Note_on_c, 0, 84, 80
2, 287032, Note_off_c, 0, 84, 100
2, 287040, Note_on_c, 0, 82, 80
2, 287224, Note_off_c, 0, 79, 100
2, 287224, Note_off_c, 0, 91, 100
2, 287224, Note_off_c, 0, 82, 100
2, 287232, Note_on_c, 0, 77, 80
2, 287232, Note_on_c, 0, 89, 80
2, 287424, Note_on_c, 0, 80, 80
2, 287608, Note_off_c, 0, 80, 100
2, 287616, Note_on_c, 0, 82, 80
2, 287800, Note_off_c, 0, 82, 100
2, 287808, Note_on_c, 0, 80, 80
2, 287992, Note_off_c, 0, 80, 100
2, 288000, Note_on_c, 0, 82, 80
2, 288184, Note_off_c, 0, 82, 100
2, 288192, Note_on_c, 0, 80, 80
2, 288376, Note_off_c, 0, 80, 100
2, 288384, Note_on_c, 0, 82, 80
2, 288568, Note_off_c, 0, 82, 100
2, 288576, Note_on_c, 0, 80, 80
2, 288760, Note_off_c, 0, 77, 100
2, 288760, Note_off_c, 0, 89, 100
2, 288760, Note_off_c, 0, 80, 100
2, 288768, Note_on_c, 0, 87, 80
2, 288960, Note_on_c, 0, 75, 80
2, 289144, Note_off_c, 0, 75, 100
2, 289152, Note_on_c, 0, 77, 80
2, 289336, Note_off_c, 0, 77, 100
2, 289344, Note_on_c, 0, 75, 80
2, 289528, Note_off_c, 0, 87, 100
2, 289528, Note_off_c, 0, 75, 100
2, 289536, Note_on_c, 0, 84, 80
2, 289728, Note_on_c, 0, 75, 80
2, 289912, Note_off_c, 0, 84, 100
2, 289912, Note_off_c, 0, 75, 100
2, 289920, Note_on_c, 0, 82, 80
2, 290112, Note_on_c, 0, 75, 80
2, 290296, Note_off_c, 0, 82, 100
2, 290296, Note_off_c, 0, 75, 100
2, 290304, Note_on_c, 0, 82, 80
2, 290496, Note_on_c, 0, 70, 80
2, 290680, Note_off_c, 0, 82, 100
2, 290680, Note_off_c, 0, 70, 100
2, 290688, Note_on_c, 0, 80, 80
2, 290688, Note_on_c, 0, 74, 80
2, 290872, Note_off_c, 0, 74, 100
2, 290880, Note_on_c, 0, 70, 80
2, 291064, Note_off_c, 0, 80, 100
2, 291064, Note_off_c, 0, 70, 100
2, 291072, Note_on_c, 0, 79, 80
2, 291072, Note_on_c, 0, 75, 80
2, 291256, Note_off_c, 0, 75, 100
2, 291264, Note_on_c, 0, 70, 80
2, 291448, Note_off_c, 0, 79, 100
2, 291448, Note_off_c, 0, 70, 100
2, 291456, Note_on_c, 0, 77, 80
2, 291456, Note_on_c, 0, 68, 80
2, 291640, Note_off_c, 0, 68, 100
2, 291648, Note_on_c, 0, 70, 80
2, 291832, Note_off_c, 0, 77, 100
2, 291832, Note_off_c, 0, 70, 100
2, 291840, Note_on_c, 0, 67, 80
2, 291840, Note_on_c, 0, 79, 80
2, 292032, Note_on_c, 0, 70, 80
2, 292216, Note_off_c, 0, 70, 100
2, 292224, Note_on_c, 0, 72, 80
2, 292408, Note_off_c, 0, 72, 100
2, 292416, Note_on_c, 0, 70, 80
2, 292600, Note_off_c, 0, 70, 100
2, 292608, Note_on_c, 0, 72, 80
2, 292792, Note_off_c, 0, 72, 100
2, 292800, Note_on_c, 0, 70, 80
2, 292984, Note_off_c, 0, 70, 100
2, 292992, Note_on_c, 0, 72, 80
2, 293176, Note_off_c, 0, 72, 100
2, 293184, Note_on_c, 0, 70, 80
2, 293368, Note_off_c, 0, 67, 100
2, 293368, Note_off_c, 0, 79, 100
2, 293368, Note_off_c, 0, 70, 100
2, 293376, Note_on_c, 0, 65, 80
2, 293376, Note_on_c, 0, 77, 80
2, 293568, Note_on_c, 0, 68, 80
2, 293752, Note_off_c, 0, 68, 100
2, 293760, Note_on_c, 0, 70, 80
2, 293944, Note_off_c, 0, 70, 100
2, 293952, Note_on_c, 0, 68, 80
2, 294136, Note_off_c, 0, 68, 100
2, 294144, Note_on_c, 0, 70, 80
2, 294328, Note_off_c, 0, 70, 100
2, 294336, Note_on_c, 0, 68, 80
2, 294520, Note_off_c, 0, 68, 100
2, 294528, Note_on_c, 0, 70, 80
2, 294712, Note_off_c, 0, 70, 100
2, 294720, Note_on_c, 0, 68, 80
2, 294904, Note_off_c, 0, 65, 100
2, 294904, Note_off_c, 0, 77, 100
2, 294904, Note_off_c, 0, 68, 100
2, 294912, Note_on_c, 0, 75, 80
2, 294912, Note_on_c, 0, 67, 80
2, 295096, Note_off_c, 0, 67, 100
2, 295104, Note_on_c, 0, 63, 80
2, 295288, Note_off_c, 0, 63, 100
2, 295296, Note_on_c, 0, 65, 80
2, 295480, Note_off_c, 0, 65, 100
2, 295488, Note_on_c, 0, 63, 80
2, 295672, Note_off_c, 0, 75, 100
2, 295672, Note_off_c, 0, 63, 100
2, 295680, Note_on_c, 0, 72, 80
2, 295680, Note_on_c, 0, 68, 80
2, 295680, Note_on_c, 0, 60, 80
2, 295864, Note_off_c, 0, 60, 100
2, 295872, Note_on_c, 0, 63, 80
2, 296056, Note_off_c, 0, 72, 100
2, 296056, Note_off_c, 0, 68, 100
2, 296056, Note_off_c, 0, 63, 100
2, 296064, Note_on_c, 0, 70, 80
2, 296064, Note_on_c, 0, 67, 80
2, 296064, Note_on_c, 0, 58, 80
2, 296248, Note_off_c, 0, 58, 100
2, 296256, Note_on_c, 0, 63, 80
2, 296440, Note_off_c, 0, 70, 100
2, 296440, Note_off_c, 0, 67, 100
2, 296440, Note_off_c, 0, 63, 100
2, 296448, Note_on_c, 0, 70, 80
2, 296448, Note_on_c, 0, 67, 80
2, 296632, Note_off_c, 0, 67, 100
2, 296640, Note_on_c, 0, 58, 80
2, 296824, Note_off_c, 0, 70, 100
2, 296824, Note_off_c, 0, 58, 100
2, 296832, Note_on_c, 0, 68, 80
2, 296832, Note_on_c, 0, 65, 80
2, 297016, Note_off_c, 0, 65, 100
2, 297024, Note_on_c, 0, 56, 80
2, 297208, Note_off_c, 0, 68, 100
2, 297208, Note_off_c, 0, 56, 100
2, 297216, Note_on_c, 0, 67, 80
2, 297216, Note_on_c, 0, 63, 80
2, 297400, Note_off_c, 0, 63, 100
2, 297408, Note_on_c, 0, 55, 80
2, 297592, Note_off_c, 0, 67, 100
2, 297592, Note_off_c, 0, 55, 100
2, 297600, Note_on_c, 0, 65, 80
2, 297600, Note_on_c, 0, 62, 80
2, 297784, Note_off_c, 0, 62, 100
2, 297792, Note_on_c, 0, 53, 80
2, 297976, Note_off_c, 0, 65, 100
2, 297976, Note_off_c, 0, 53, 100
2, 297984, Note_on_c, 0, 63, 80
2, 298176, Note_on_c, 0, 59, 80
2, 298368, Note_on_c, 0, 55, 80
2, 298936, Note_off_c, 0, 63, 100
2, 298936, Note_off_c, 0, 59, 100
2, 298936, Note_off_c, 0, 55, 100
2, 298944, Note_on_c, 0, 58, 80
2, 299128, Note_off_c, 0, 58, 100
2, 299136, Note_on_c, 0, 55, 80
2, 299320, Note_off_c, 0, 55, 100
2, 299328, Note_on_c, 0, 63, 80
2, 299520, Note_on_c, 0, 58, 80
2, 299704, Note_off_c, 0, 63, 100
2, 299712, Note_on_c, 0, 63, 80
2, 299896, Note_off_c, 0, 63, 100
2, 299904, Note_on_c, 0, 62, 80
2, 300088, Note_off_c, 0, 62, 100
2, 300096, Note_on_c, 0, 63, 80
2, 300280, Note_off_c, 0, 58, 100
2, 300280, Note_off_c, 0, 63, 100
2, 300288, Note_on_c, 0, 65, 80
2, 300472, Note_off_c, 0, 65, 100
2, 300480, Note_on_c, 0, 67, 80
2, 300664, Note_off_c, 0, 67, 100
2, 300672, Note_on_c, 0, 68, 80
2, 300856, Note_off_c, 0, 68, 100
2, 300864, Note_on_c, 0, 65, 80
2, 301048, Note_off_c, 0, 65, 100
2, 301056, Note_on_c, 0, 75, 80
2, 301248, Note_on_c, 0, 71, 80
2, 301440, Note_on_c, 0, 67, 80
2, 302008, Note_off_c, 0, 75, 100
2, 302008, Note_off_c, 0, 71, 100
2, 302008, Note_off_c, 0, 67, 100
2, 302016, Note_on_c, 0, 70, 80
2, 302200, Note_off_c, 0, 70, 100
2, 302208, Note_on_c, 0, 67, 80
2, 302392, Note_off_c, 0, 67, 100
2, 302400, Note_on_c, 0, 75, 80
2, 302592, Note_on_c, 0, 70, 80
2, 302776, Note_off_c, 0, 75, 100
2, 302784, Note_on_c, 0, 75, 80
2, 302968, Note_off_c, 0, 75, 100
2, 302976, Note_on_c, 0, 74, 80
2, 303160, Note_off_c, 0, 74, 100
2, 303168, Note_on_c, 0, 75, 80
2, 303352, Note_off_c, 0, 70, 100
2, 303352, Note_off_c, 0, 75, 100
2, 303360, Note_on_c, 0, 77, 80
2, 303544, Note_off_c, 0, 77, 100
2, 303552, Note_on_c, 0, 79, 80
2, 303736, Note_off_c, 0, 79, 100
2, 303744, Note_on_c, 0, 80, 80
2, 303928, Note_off_c, 0, 80, 100
2, 303936, Note_on_c, 0, 77, 80
2, 304120, Note_off_c, 0, 77, 100
2, 304128, Note_on_c, 0, 79, 80
2, 304312, Note_off_c, 0, 79, 100
2, 304320, Note_on_c, 0, 77, 80
2, 304504, Note_off_c, 0, 77, 100
2, 304512, Note_on_c, 0, 75, 80
2, 305080, Note_off_c, 0, 75, 100
2, 305088, Note_on_c, 0, 72, 80
2, 305272, Note_off_c, 0, 72, 100
2, 305280, Note_on_c, 0, 70, 80
2, 305848, Note_off_c, 0, 70, 100
2, 305856, Note_on_c, 0, 68, 80
2, 306040, Note_off_c, 0, 68, 100
2, 306048, Note_on_c, 0, 67, 80
2, 306616, Note_off_c, 0, 67, 100
2, 306624, Note_on_c, 0, 65, 80
2, 306808, Note_off_c, 0, 65, 100
2, 306816, Note_on_c, 0, 63, 80
2, 307384, Note_off_c, 0, 63, 100
2, 307392, Note_on_c, 0, 60, 80
2, 307576, Note_off_c, 0, 60, 100
2, 307584, Note_on_c, 0, 58, 80
2, 308152, Note_off_c, 0, 58, 100
2, 308160, Note_on_c, 0, 56, 80
2, 308344, Note_off_c, 0, 56, 100
2, 308352, Note_on_c, 0, 55, 80
2, 308920, Note_off_c, 0, 55, 100
2, 308928, Note_on_c, 0, 53, 80
2, 309112, Note_off_c, 0, 53, 100
2, 309120, Note_on_c, 0, 51, 80
2, 309688, Note_off_c, 0, 51, 100
2, 309696, Note_on_c, 0, 53, 80
2, 309880, Note_off_c, 0, 53, 100
2, 309888, Note_on_c, 0, 51, 80
2, 310648, Note_off_c, 0, 51, 100
2, 313344, Note_on_c, 0, 82, 80
2, 313344, Note_on_c, 0, 75, 80
2, 314872, Note_off_c, 0, 82, 100
2, 314872, Note_off_c, 0, 75, 100
2, 314880, Note_on_c, 0, 73, 80
2, 314880, Note_on_c, 0, 85, 80
2, 316408, Note_off_c, 0, 73, 100
2, 316408, Note_off_c, 0, 85, 100
2, 316416, Note_on_c, 0, 84, 110
2, 316416, Note_on_c, 0, 72, 110
2, 317560, Note_off_c, 0, 84, 100
2, 317560, Note_off_c, 0, 72, 100
2, 317568, Note_on_c, 0, 77, 110
2, 317568, Note_on_c, 0, 72, 110
2, 317752, Note_off_c, 0, 77, 100
2, 317752, Note_off_c, 0, 72, 100
2, 317760, Note_on_c, 0, 82, 110
2, 317760, Note_on_c, 0, 73, 110
2, 317944, Note_off_c, 0, 82, 100
2, 317944, Note_off_c, 0, 73, 100
2, 317952, Note_on_c, 0, 82, 110
2, 317952, Note_on_c, 0, 73, 110
2, 318328, Note_off_c, 0, 82, 100
2, 318328, Note_off_c, 0, 73, 100
2, 318336, Note_on_c, 0, 75, 110
2, 318336, Note_on_c, 0, 70, 110
2, 318520, Note_off_c, 0, 75, 100
2, 318520, Note_off_c, 0, 70, 100
2, 318528, Note_on_c, 0, 80, 110
2, 318528, Note_on_c, 0, 72, 110
2, 318712, Note_off_c, 0, 80, 100
2, 318712, Note_off_c, 0, 72, 100
2, 318720, Note_on_c, 0, 80, 110
2, 318720, Note_on_c, 0, 72, 110
2, 319096, Note_off_c, 0, 80, 100
2, 319096, Note_off_c, 0, 72, 100
2, 319104, Note_on_c, 0, 73, 110
2, 319104, Note_on_c, 0, 68, 110
2, 319288, Note_off_c, 0, 73, 100
2, 319288, Note_off_c, 0, 68, 100
2, 319296, Note_on_c, 0, 79, 110
2, 319296, Note_on_c, 0, 70, 110
2, 319480, Note_off_c, 0, 79, 100
2, 319480, Note_off_c, 0, 70, 100
2, 319488, Note_on_c, 0, 79, 110
2, 319488, Note_on_c, 0, 70, 110
2, 319864, Note_off_c, 0, 79, 100
2, 319864, Note_off_c, 0, 70, 100
2, 319872, Note_on_c, 0, 72, 110
2, 319872, Note_on_c, 0, 67, 110
2, 320056, Note_off_c, 0, 72, 100
2, 320056, Note_off_c, 0, 67, 100
2, 320064, Note_on_c, 0, 77, 110
2, 320064, Note_on_c, 0, 68, 110
2, 320248, Note_off_c, 0, 77, 100
2, 320248, Note_off_c, 0, 68, 100
2, 320256, Note_on_c, 0, 77, 110
2, 320256, Note_on_c, 0, 68, 110
2, 320632, Note_off_c, 0, 77, 100
2, 320632, Note_off_c, 0, 68, 100
2, 320640, Note_on_c, 0, 77, 110
2, 320640, Note_on_c, 0, 65, 110
2, 321016, Note_off_c, 0, 77, 100
2, 321016, Note_off_c, 0, 65, 100
2, 321024, Note_on_c, 0, 77, 110
2, 321024, Note_on_c, 0, 65, 110
2, 321784, Note_off_c, 0, 77, 100
2, 321784, Note_off_c, 0, 65, 100
2, 321792, Note_on_c, 0, 64, 80
2, 321792, Note_on_c, 0, 76, 80
2, 322168, Note_off_c, 0, 64, 100
2, 322168, Note_off_c, 0, 76, 100
2, 322176, Note_on_c, 0, 77, 80
2, 322176, Note_on_c, 0, 72, 80
2, 322176, Note_on_c, 0, 65, 80
2, 322552, Note_off_c, 0, 77, 100
2, 322552, Note_off_c, 0, 72, 100
2, 322552, Note_off_c, 0, 65, 100
2, 322560, Note_on_c, 0, 79, 80
2, 322560, Note_on_c, 0, 72, 80
2, 322560, Note_on_c, 0, 67, 80
2, 322936, Note_off_c, 0, 79, 100
2, 322936, Note_off_c, 0, 72, 100
2, 322936, Note_off_c, 0, 67, 100
2, 322944, Note_on_c, 0, 80, 80
2, 322944, Note_on_c, 0, 72, 80
2, 322944, Note_on_c, 0, 68, 80
2, 323320, Note_off_c, 0, 80, 100
2, 323320, Note_off_c, 0, 72, 100
2, 323320, Note_off_c, 0, 68, 100
2, 323328, Note_on_c, 0, 82, 80
2, 323328, Note_on_c, 0, 72, 80
2, 323328, Note_on_c, 0, 70, 80
2, 323704, Note_off_c, 0, 82, 100
2, 323704, Note_off_c, 0, 72, 100
2, 323704, Note_off_c, 0, 70, 100
2, 323712, Note_on_c, 0, 79, 80
2, 323712, Note_on_c, 0, 76, 80
2, 323712, Note_on_c, 0, 72, 80
2, 323712, Note_on_c, 0, 67, 80
2, 324088, Note_off_c, 0, 79, 100
2, 324088, Note_off_c, 0, 76, 100
2, 324088, Note_off_c, 0, 72, 100
2, 324088, Note_off_c, 0, 67, 100
2, 324096, Note_on_c, 0, 80, 80
2, 324096, Note_on_c, 0, 77, 80
2, 324096, Note_on_c, 0, 72, 80
2, 324096, Note_on_c, 0, 68, 80
2, 324472, Note_off_c, 0, 80, 100
2, 324472, Note_off_c, 0, 77, 100
2, 324472, Note_off_c, 0, 72, 100
2, 324472, Note_off_c, 0, 68, 100
2, 324864, Note_on_c, 0, 84, 88
2, 324864, Note_on_c, 0, 72, 88
2, 325240, Note_off_c, 0, 84, 100
2, 325240, Note_off_c, 0, 72, 100
2, 325632, Note_on_c, 0, 96, 112
2, 325632, Note_on_c, 0, 84, 111
2, 326776, Note_off_c, 0, 96, 100
2, 326776, Note_off_c, 0, 84, 100
2, 326784, Note_on_c, 0, 84, 110
2, 326784, Note_on_c, 0, 72, 110
2, 328312, Note_off_c, 0, 72, 100
2, 328312, Note_off_c, 0, 84, 100
2, 328320, Note_on_c, 0, 80, 80
2, 328320, Note_on_c, 0, 68, 80
2, 328696, Note_off_c, 0, 80, 100
2, 328696, Note_off_c, 0, 68, 100
2, 328704, Note_on_c, 0, 79, 80
2, 328704, Note_on_c, 0, 67, 80
2, 329080, Note_off_c, 0, 79, 100
2, 329080, Note_off_c, 0, 67, 100
2, 329088, Note_on_c, 0, 76, 80
2, 329088, Note_on_c, 0, 64, 80
2, 329464, Note_off_c, 0, 76, 100
2, 329464, Note_off_c, 0, 64, 100
2, 329472, Note_on_c, 0, 73, 80
2, 329472, Note_on_c, 0, 61, 80
2, 329848, Note_off_c, 0, 73, 100
2, 329848, Note_off_c, 0, 61, 100
2, 329856, Note_on_c, 0, 72, 80
2, 329856, Note_on_c, 0, 60, 80
2, 330232, Note_off_c, 0, 72, 100
2, 330232, Note_off_c, 0, 60, 100
2, 330240, Note_on_c, 0, 72, 80
2, 330240, Note_on_c, 0, 60, 80
2, 330616, Note_off_c, 0, 72, 100
2, 330616, Note_off_c, 0, 60, 100
2, 331008, Note_on_c, 0, 84, 88
2, 331008, Note_on_c, 0, 72, 88
2, 331384, Note_off_c, 0, 84, 100
2, 331384, Note_off_c, 0, 72, 100
2, 331776, Note_on_c, 0, 96, 112
2, 331776, Note_on_c, 0, 84, 111
2, 332920, Note_off_c, 0, 96, 100
2, 332920, Note_off_c, 0, 84, 100
2, 332928, Note_on_c, 0, 84, 110
2, 332928, Note_on_c, 0, 72, 110
2, 334456, Note_off_c, 0, 72, 100
2, 334456, Note_off_c, 0, 84, 100
2, 334464, Note_on_c, 0, 80, 80
2, 334464, Note_on_c, 0, 68, 80
2, 334840, Note_off_c, 0, 80, 100
2, 334840, Note_off_c, 0, 68, 100
2, 334848, Note_on_c, 0, 77, 80
2, 334848, Note_on_c, 0, 65, 80
2, 335224, Note_off_c, 0, 77, 100
2, 335224, Note_off_c, 0, 65, 100
2, 335232, Note_on_c, 0, 74, 80
2, 335232, Note_on_c, 0, 62, 80
2, 335608, Note_off_c, 0, 74, 100
2, 335608, Note_off_c, 0, 62, 100
2, 335616, Note_on_c, 0, 71, 80
2, 335616, Note_on_c, 0, 59, 80
2, 335992, Note_off_c, 0, 71, 100
2, 335992, Note_off_c, 0, 59, 100
2, 336000, Note_on_c, 0, 70, 80
2, 336000, Note_on_c, 0, 58, 80
2, 336376, Note_off_c, 0, 70, 100
2, 336376, Note_off_c, 0, 58, 100
2, 336384, Note_on_c, 0, 70, 80
2, 336384, Note_on_c, 0, 58, 80
2, 336760, Note_off_c, 0, 70, 100
2, 336760, Note_off_c, 0, 58, 100
2, 337152, Note_on_c, 0, 82, 88
2, 337152, Note_on_c, 0, 70, 88
2, 337528, Note_off_c, 0, 82, 100
2, 337528, Note_off_c, 0, 70, 100
2, 337920, Note_on_c, 0, 94, 111
2, 337920, Note_on_c, 0, 82, 112
2, 339064, Note_off_c, 0, 94, 100
2, 339064, Note_off_c, 0, 82, 100
2, 339072, Note_on_c, 0, 82, 110
2, 339072, Note_on_c, 0, 70, 110
2, 340600, Note_off_c, 0, 70, 100
2, 340600, Note_off_c, 0, 82, 100
2, 340608, Note_on_c, 0, 78, 80
2, 340608, Note_on_c, 0, 66, 80
2, 340984, Note_off_c, 0, 78, 100
2, 340984, Note_off_c, 0, 66, 100
2, 340992, Note_on_c, 0, 77, 80
2, 340992, Note_on_c, 0, 65, 80
2, 341368, Note_off_c, 0, 77, 100
2, 341368, Note_off_c, 0, 65, 100
2, 341376, Note_on_c, 0, 74, 80
2, 341376, Note_on_c, 0, 62, 80
2, 341752, Note_off_c, 0, 74, 100
2, 341752, Note_off_c, 0, 62, 100
2, 341760, Note_on_c, 0, 71, 80
2, 341760, Note_on_c, 0, 59, 80
2, 342136, Note_off_c, 0, 71, 100
2, 342136, Note_off_c, 0, 59, 100
2, 342144, Note_on_c, 0, 70, 80
2, 342144, Note_on_c, 0, 58, 80
2, 342520, Note_off_c, 0, 70, 100
2, 342520, Note_off_c, 0, 58, 100
2, 342528, Note_on_c, 0, 70, 110
2, 342528, Note_on_c, 0, 58, 110
2, 342904, Note_off_c, 0, 70, 100
2, 342904, Note_off_c, 0, 58, 100
2, 343296, Note_on_c, 0, 82, 110
2, 343296, Note_on_c, 0, 70, 110
2, 343672, Note_off_c, 0, 82, 100
2, 343672, Note_off_c, 0, 70, 100
2, 344064, Note_on_c, 0, 94, 110
2, 344064, Note_on_c, 0, 82, 110
2, 344440, Note_off_c, 0, 94, 100
2, 344440, Note_off_c, 0, 82, 100
2, 344832, Note_on_c, 0, 95, 110
2, 344832, Note_on_c, 0, 83, 110
2, 345208, Note_off_c, 0, 95, 100
2, 345208, Note_off_c, 0, 83, 100
2, 345600, Note_on_c, 0, 71, 80
2, 347128, Note_off_c, 0, 71, 100
2, 347136, Note_on_c, 0, 70, 80
2, 348664, Note_off_c, 0, 70, 100
2, 348672, Note_on_c, 0, 68, 80
2, 349048, Note_off_c, 0, 68, 100
2, 351744, Note_on_c, 0, 72, 80
2, 353272, Note_off_c, 0, 72, 100
2, 353280, Note_on_c, 0, 70, 80
2, 354808, Note_off_c, 0, 70, 100
2, 354816, Note_on_c, 0, 69, 80
2, 355192, Note_off_c, 0, 69, 100
2, 357888, Note_on_c, 0, 77, 80
2, 359416, Note_off_c, 0, 77, 100
2, 359424, Note_on_c, 0, 75, 80
2, 360952, Note_off_c, 0, 75, 100
2, 360960, Note_on_c, 0, 74, 80
2, 361336, Note_off_c, 0, 74, 100
2, 364032, Note_on_c, 0, 82, 80
2, 364032, Note_on_c, 0, 70, 80
2, 365560, Note_off_c, 0, 82, 100
2, 365560, Note_off_c, 0, 70, 100
2, 365568, Note_on_c, 0, 80, 90
2, 365568, Note_on_c, 0, 68, 90
2, 367096, Note_off_c, 0, 80, 100
2, 367096, Note_off_c, 0, 68, 100
2, 367104, Note_on_c, 0, 79, 100
2, 367104, Note_on_c, 0, 67, 100
2, 369400, Note_off_c, 0, 67, 100
2, 369400, Note_off_c, 0, 79, 100
2, 369408, Note_on_c, 0, 80, 80
2, 369408, Note_on_c, 0, 68, 80
2, 369784, Note_off_c, 0, 80, 100
2, 369784, Note_off_c, 0, 68, 100
2, 369792, Note_on_c, 0, 77, 80
2, 369792, Note_on_c, 0, 65, 80
2, 370168, Note_off_c, 0, 77, 100
2, 370168, Note_off_c, 0, 65, 100
2, 370176, Note_on_c, 0, 79, 80
2, 370176, Note_on_c, 0, 75, 80
2, 371704, Note_off_c, 0, 79, 100
2, 371704, Note_off_c, 0, 75, 100
2, 371712, Note_on_c, 0, 77, 80
2, 371712, Note_on_c, 0, 70, 80
2, 373240, Note_off_c, 0, 77, 100
2, 373240, Note_off_c, 0, 70, 100
2, 373248, Note_on_c, 0, 75, 80
2, 373248, Note_on_c, 0, 67, 80
2, 374008, Note_off_c, 0, 75, 100
2, 374008, Note_off_c, 0, 67, 100
2, 374016, Note_on_c, 0, 72, 80
2, 374016, Note_on_c, 0, 68, 80
2, 374392, Note_off_c, 0, 72, 100
2, 374392, Note_off_c, 0, 68, 100
2, 374400, Note_on_c, 0, 70, 80
2, 374400, Note_on_c, 0, 67, 80
2, 374776, Note_off_c, 0, 70, 100
2, 374776, Note_off_c, 0, 67, 100
2, 374784, Note_on_c, 0, 70, 80
2, 374784, Note_on_c, 0, 67, 80
2, 375160, Note_off_c, 0, 70, 100
2, 375160, Note_off_c, 0, 67, 100
2, 375168, Note_on_c, 0, 68, 80
2, 375168, Note_on_c, 0, 65, 80
2, 375544, Note_off_c, 0, 68, 100
2, 375544, Note_off_c, 0, 65, 100
2, 375552, Note_on_c, 0, 67, 80
2, 375552, Note_on_c, 0, 63, 80
2, 375928, Note_off_c, 0, 67, 100
2, 375928, Note_off_c, 0, 63, 100
2, 375936, Note_on_c, 0, 65, 80
2, 375936, Note_on_c, 0, 58, 80
2, 376312, Note_off_c, 0, 65, 100
2, 376312, Note_off_c, 0, 58, 100
2, 376320, Note_on_c, 0, 63, 80
2, 376504, Note_off_c, 0, 63, 100
2, 376512, Note_on_c, 0, 58, 80
2, 376696, Note_off_c, 0, 58, 100
2, 376704, Note_on_c, 0, 60, 80
2, 376888, Note_off_c, 0, 60, 100
2, 376896, Note_on_c, 0, 58, 80
2, 377080, Note_off_c, 0, 58, 100
2, 377088, Note_on_c, 0, 57, 80
2, 377272, Note_off_c, 0, 57, 100
2, 377280, Note_on_c, 0, 58, 80
2, 377464, Note_off_c, 0, 58, 100
2, 377472, Note_on_c, 0, 67, 80
2, 377656, Note_off_c, 0, 67, 100
2, 377664, Note_on_c, 0, 63, 80
2, 377848, Note_off_c, 0, 63, 100
2, 377856, Note_on_c, 0, 62, 80
2, 378040, Note_off_c, 0, 62, 100
2, 378048, Note_on_c, 0, 63, 80
2, 378232, Note_off_c, 0, 63, 100
2, 378240, Note_on_c, 0, 65, 80
2, 378424, Note_off_c, 0, 65, 100
2, 378432, Note_on_c, 0, 67, 80
2, 378616, Note_off_c, 0, 67, 100
2, 378624, Note_on_c, 0, 68, 80
2, 378808, Note_off_c, 0, 68, 100
2, 378816, Note_on_c, 0, 69, 80
2, 379000, Note_off_c, 0, 69, 100
2, 379008, Note_on_c, 0, 72, 80
2, 379192, Note_off_c, 0, 72, 100
2, 379200, Note_on_c, 0, 70, 80
2, 379384, Note_off_c, 0, 70, 100
2, 379392, Note_on_c, 0, 69, 80
2, 379576, Note_off_c, 0, 69, 100
2, 379584, Note_on_c, 0, 70, 80
2, 379768, Note_off_c, 0, 70, 100
2, 379776, Note_on_c, 0, 72, 80
2, 379960, Note_off_c, 0, 72, 100
2, 379968, Note_on_c, 0, 70, 80
2, 380152, Note_off_c, 0, 70, 100
2, 380160, Note_on_c, 0, 69, 80
2, 380344, Note_off_c, 0, 69, 100
2, 380352, Note_on_c, 0, 70, 80
2, 380536, Note_off_c, 0, 70, 100
2, 380544, Note_on_c, 0, 79, 80
2, 380728, Note_off_c, 0, 79, 100
2, 380736, Note_on_c, 0, 75, 80
2, 380920, Note_off_c, 0, 75, 100
2, 380928, Note_on_c, 0, 74, 80
2, 381112, Note_off_c, 0, 74, 100
2, 381120, Note_on_c, 0, 75, 80
2, 381304, Note_off_c, 0, 75, 100
2, 381312, Note_on_c, 0, 77, 80
2, 381496, Note_off_c, 0, 77, 100
2, 381504, Note_on_c, 0, 79, 80
2, 381688, Note_off_c, 0, 79, 100
2, 381696, Note_on_c, 0, 80, 80
2, 381880, Note_off_c, 0, 80, 100
2, 381888, Note_on_c, 0, 81, 80
2, 382072, Note_off_c, 0, 81, 100
2, 382080, Note_on_c, 0, 84, 80
2, 382264, Note_off_c, 0, 84, 100
2, 382272, Note_on_c, 0, 82, 80
2, 382456, Note_off_c, 0, 82, 100
2, 382464, Note_on_c, 0, 81, 80
2, 382648, Note_off_c, 0, 81, 100
2, 382656, Note_on_c, 0, 82, 81
2, 382840, Note_off_c, 0, 82, 100
2, 382848, Note_on_c, 0, 84, 83
2, 383032, Note_off_c, 0, 84, 100
2, 383040, Note_on_c, 0, 82, 84
2, 383224, Note_off_c, 0, 82, 100
2, 383232, Note_on_c, 0, 81, 86
2, 383416, Note_off_c, 0, 81, 100
2, 383424, Note_on_c, 0, 82, 88
2, 383608, Note_off_c, 0, 82, 100
2, 383616, Note_on_c, 0, 91, 89
2, 383800, Note_off_c, 0, 91, 100
2, 383808, Note_on_c, 0, 87, 91
2, 383992, Note_off_c, 0, 87, 100
2, 384000, Note_on_c, 0, 86, 93
2, 384184, Note_off_c, 0, 86, 100
2, 384192, Note_on_c, 0, 87, 94
2, 384376, Note_off_c, 0, 87, 100
2, 384384, Note_on_c, 0, 89, 96
2, 384568, Note_off_c, 0, 89, 100
2, 384576, Note_on_c, 0, 91, 97
2, 384760, Note_off_c, 0, 91, 100
2, 384768, Note_on_c, 0, 92, 99
2, 384952, Note_off_c, 0, 92, 100
2, 384960, Note_on_c, 0, 93, 101
2, 385144, Note_off_c, 0, 93, 100
2, 385152, Note_on_c, 0, 96, 102
2, 385336, Note_off_c, 0, 96, 100
2, 385344, Note_on_c, 0, 94, 104
2, 385528, Note_off_c, 0, 94, 100
2, 385536, Note_on_c, 0, 93, 106
2, 385720, Note_off_c, 0, 93, 100
2, 385728, Note_on_c, 0, 94, 107
2, 385912, Note_off_c, 0, 94, 100
2, 385920, Note_on_c, 0, 92, 109
2, 386104, Note_off_c, 0, 92, 100
2, 386112, Note_on_c, 0, 91, 110
2, 386296, Note_off_c, 0, 91, 100
2, 386304, Note_on_c, 0, 89, 110
2, 386488, Note_off_c, 0, 89, 100
2, 386496, Note_on_c, 0, 87, 110
2, 386680, Note_off_c, 0, 87, 100
2, 386688, Note_on_c, 0, 86, 110
2, 386872, Note_off_c, 0, 86, 100
2, 386880, Note_on_c, 0, 84, 110
2, 387064, Note_off_c, 0, 84, 100
2, 387072, Note_on_c, 0, 82, 110
2, 387256, Note_off_c, 0, 82, 100
2, 387264, Note_on_c, 0, 80, 110
2, 387448, Note_off_c, 0, 80, 100
2, 387456, Note_on_c, 0, 79, 110
2, 387640, Note_off_c, 0, 79, 100
2, 387648, Note_on_c, 0, 77, 110
2, 387832, Note_off_c, 0, 77, 100
2, 387840, Note_on_c, 0, 75, 110
2, 388024, Note_off_c, 0, 75, 100
2, 388032, Note_on_c, 0, 74, 104
2, 388216, Note_off_c, 0, 74, 100
2, 388224, Note_on_c, 0, 77, 97
2, 388408, Note_off_c, 0, 77, 100
2, 388416, Note_on_c, 0, 80, 91
2, 388600, Note_off_c, 0, 80, 100
2, 388608, Note_on_c, 0, 79, 80
2, 388608, Note_on_c, 0, 75, 80
2, 390136, Note_off_c, 0, 79, 100
2, 390136, Note_off_c, 0, 75, 100
2, 390144, Note_on_c, 0, 77, 80
2, 390144, Note_on_c, 0, 70, 80
2, 391672, Note_off_c, 0, 77, 100
2, 391672, Note_off_c, 0, 70, 100
2, 391680, Note_on_c, 0, 75, 80
2, 391680, Note_on_c, 0, 67, 80
2, 392440, Note_off_c, 0, 75, 100
2, 392440, Note_off_c, 0, 67, 100
2, 392448, Note_on_c, 0, 72, 80
2, 392448, Note_on_c, 0, 68, 80
2, 392824, Note_off_c, 0, 72, 100
2, 392824, Note_off_c, 0, 68, 100
2, 392832, Note_on_c, 0, 70, 80
2, 392832, Note_on_c, 0, 67, 80
2, 393208, Note_off_c, 0, 70, 100
2, 393208, Note_off_c, 0, 67, 100
2, 393216, Note_on_c, 0, 70, 80
2, 393216, Note_on_c, 0, 67, 80
2, 393592, Note_off_c, 0, 70, 100
2, 393592, Note_off_c, 0, 67, 100
2, 393600, Note_on_c, 0, 68, 80
2, 393600, Note_on_c, 0, 65, 80
2, 393976, Note_off_c, 0, 68, 100
2, 393976, Note_off_c, 0, 65, 100
2, 393984, Note_on_c, 0, 67, 80
2, 393984, Note_on_c, 0, 63, 80
2, 394360, Note_off_c, 0, 67, 100
2, 394360, Note_off_c, 0, 63, 100
2, 394368, Note_on_c, 0, 65, 80
2, 394368, Note_on_c, 0, 58, 80
2, 394744, Note_off_c, 0, 65, 100
2, 394744, Note_off_c, 0, 58, 100
2, 394752, Note_on_c, 0, 63, 80
2, 394936, Note_off_c, 0, 63, 100
2, 394944, Note_on_c, 0, 58, 80
2, 395128, Note_off_c, 0, 58, 100
2, 395136, Note_on_c, 0, 60, 80
2, 395320, Note_off_c, 0, 60, 100
2, 395328, Note_on_c, 0, 58, 80
2, 395512, Note_off_c, 0, 58, 100
2, 395520, Note_on_c, 0, 57, 80
2, 395704, Note_off_c, 0, 57, 100
2, 395712, Note_on_c, 0, 58, 80
2, 395896, Note_off_c, 0, 58, 100
2, 395904, Note_on_c, 0, 67, 80
2, 396088, Note_off_c, 0, 67, 100
2, 396096, Note_on_c, 0, 63, 80
2, 396280, Note_off_c, 0, 63, 100
2, 396288, Note_on_c, 0, 62, 80
2, 396472, Note_off_c, 0, 62, 100
2, 396480, Note_on_c, 0, 63, 80
2, 396664, Note_off_c, 0, 63, 100
2, 396672, Note_on_c, 0, 65, 80
2, 396856, Note_off_c, 0, 65, 100
2, 396864, Note_on_c, 0, 67, 80
2, 397048, Note_off_c, 0, 67, 100
2, 397056, Note_on_c, 0, 68, 80
2, 397240, Note_off_c, 0, 68, 100
2, 397248, Note_on_c, 0, 69, 80
2, 397432, Note_off_c, 0, 69, 100
2, 397440, Note_on_c, 0, 72, 80
2, 397624, Note_off_c, 0, 72, 100
2, 397632, Note_on_c, 0, 70, 80
2, 397816, Note_off_c, 0, 70, 100
2, 397824, Note_on_c, 0, 69, 80
2, 398008, Note_off_c, 0, 69, 100
2, 398016, Note_on_c, 0, 70, 80
2, 398200, Note_off_c, 0, 70, 100
2, 398208, Note_on_c, 0, 72, 80
2, 398392, Note_off_c, 0, 72, 100
2, 398400, Note_on_c, 0, 70, 80
2, 398584, Note_off_c, 0, 70, 100
2, 398592, Note_on_c, 0, 69, 80
2, 398776, Note_off_c, 0, 69, 100
2, 398784, Note_on_c, 0, 70, 80
2, 398968, Note_off_c, 0, 70, 100
2, 398976, Note_on_c, 0, 79, 80
2, 399160, Note_off_c, 0, 79, 100
2, 399168, Note_on_c, 0, 75, 80
2, 399352, Note_off_c, 0, 75, 100
2, 399360, Note_on_c, 0, 74, 80
2, 399544, Note_off_c, 0, 74, 100
2, 399552, Note_on_c, 0, 75, 80
2, 399736, Note_off_c, 0, 75, 100
2, 399744, Note_on_c, 0, 77, 80
2, 399928, Note_off_c, 0, 77, 100
2, 399936, Note_on_c, 0, 79, 80
2, 400120, Note_off_c, 0, 79, 100
2, 400128, Note_on_c, 0, 80, 80
2, 400312, Note_off_c, 0, 80, 100
2, 400320, Note_on_c, 0, 81, 80
2, 400504, Note_off_c, 0, 81, 100
2, 400512, Note_on_c, 0, 84, 80
2, 400696, Note_off_c, 0, 84, 100
2, 400704, Note_on_c, 0, 82, 80
2, 400888, Note_off_c, 0, 82, 100
2, 400896, Note_on_c, 0, 81, 80
2, 401080, Note_off_c, 0, 81, 100
2, 401088, Note_on_c, 0, 82, 81
2, 401272, Note_off_c, 0, 82, 100
2, 401280, Note_on_c, 0, 84, 83
2, 401464, Note_off_c, 0, 84, 100
2, 401472, Note_on_c, 0, 82, 85
2, 401656, Note_off_c, 0, 82, 100
2, 401664, Note_on_c, 0, 81, 87
2, 401848, Note_off_c, 0, 81, 100
2, 401856, Note_on_c, 0, 82, 89
2, 402040, Note_off_c, 0, 82, 100
2, 402048, Note_on_c, 0, 91, 91
2, 402232, Note_off_c, 0, 91, 100
2, 402240, Note_on_c, 0, 87, 93
2, 402424, Note_off_c, 0, 87, 100
2, 402432, Note_on_c, 0, 86, 95
2, 402616, Note_off_c, 0, 86, 100
2, 402624, Note_on_c, 0, 87, 97
2, 402808, Note_off_c, 0, 87, 100
2, 402816, Note_on_c, 0, 89, 99
2, 403000, Note_off_c, 0, 89, 100
2, 403008, Note_on_c, 0, 91, 101
2, 403192, Note_off_c, 0, 91, 100
2, 403200, Note_on_c, 0, 92, 103
2, 403384, Note_off_c, 0, 92, 100
2, 403392, Note_on_c, 0, 93, 105
2, 403576, Note_off_c, 0, 93, 100
2, 403584, Note_on_c, 0, 96, 107
2, 403768, Note_off_c, 0, 96, 100
2, 403776, Note_on_c, 0, 94, 108
2, 403960, Note_off_c, 0, 94, 100
2, 403968, Note_on_c, 0, 94, 110
2, 404152, Note_off_c, 0, 94, 100
2, 404160, Note_on_c, 0, 70, 110
2, 404344, Note_off_c, 0, 70, 100
2, 404352, Note_on_c, 0, 72, 110
2, 404536, Note_off_c, 0, 72, 100
2, 404544, Note_on_c, 0, 70, 110
2, 404728, Note_off_c, 0, 70, 100
2, 404736, Note_on_c, 0, 69, 110
2, 404920, Note_off_c, 0, 69, 100
2, 404928, Note_on_c, 0, 70, 110
2, 405112, Note_off_c, 0, 70, 100
2, 405120, Note_on_c, 0, 79, 110
2, 405304, Note_off_c, 0, 79, 100
2, 405312, Note_on_c, 0, 75, 110
2, 405496, Note_off_c, 0, 75, 100
2, 405504, Note_on_c, 0, 74, 110
2, 405688, Note_off_c, 0, 74, 100
2, 405696, Note_on_c, 0, 75, 110
2, 405880, Note_off_c, 0, 75, 100
2, 405888, Note_on_c, 0, 77, 110
2, 406072, Note_off_c, 0, 77, 100
2, 406080, Note_on_c, 0, 79, 110
2, 406264, Note_off_c, 0, 79, 100
2, 406272, Note_on_c, 0, 80, 110
2, 406456, Note_off_c, 0, 80, 100
2, 406464, Note_on_c, 0, 81, 110
2, 406648, Note_off_c, 0, 81, 100
2, 406656, Note_on_c, 0, 84, 110
2, 406840, Note_off_c, 0, 84, 100
2, 406848, Note_on_c, 0, 82, 110
2, 407032, Note_off_c, 0, 82, 100
2, 407040, Note_on_c, 0, 82, 110
2, 407224, Note_off_c, 0, 82, 100
2, 407232, Note_on_c, 0, 58, 110
2, 407416, Note_off_c, 0, 58, 100
2, 407424, Note_on_c, 0, 60, 108
2, 407608, Note_off_c, 0, 60, 100
2, 407616, Note_on_c, 0, 58, 106
2, 407800, Note_off_c, 0, 58, 100
2, 407808, Note_on_c, 0, 57, 104
2, 407992, Note_off_c, 0, 57, 100
2, 408000, Note_on_c, 0, 58, 102
2, 408184, Note_off_c, 0, 58, 100
2, 408192, Note_on_c, 0, 67, 100
2, 408376, Note_off_c, 0, 67, 100
2, 408384, Note_on_c, 0, 63, 98
2, 408568, Note_off_c, 0, 63, 100
2, 408576, Note_on_c, 0, 57, 96
2, 408760, Note_off_c, 0, 57, 100
2, 408768, Note_on_c, 0, 58, 93
2, 408952, Note_off_c, 0, 58, 100
2, 408960, Note_on_c, 0, 68, 91
2, 409144, Note_off_c, 0, 68, 100
2, 409152, Note_on_c, 0, 65, 89
2, 409336, Note_off_c, 0, 65, 100
2, 409344, Note_on_c, 0, 62, 87
2, 409528, Note_off_c, 0, 62, 100
2, 409536, Note_on_c, 0, 72, 85
2, 409720, Note_off_c, 0, 72, 100
2, 409728, Note_on_c, 0, 70, 83
2, 409912, Note_off_c, 0, 70, 100
2, 409920, Note_on_c, 0, 62, 81
2, 410104, Note_off_c, 0, 62, 100
2, 410112, Note_on_c, 0, 63, 80
2, 411640, Note_off_c, 0, 63, 100
2, 411648, Note_on_c, 0, 58, 80
2, 413176, Note_off_c, 0, 58, 100
2, 413184, Note_on_c, 0, 55, 80
2, 413560, Note_off_c, 0, 55, 100
2, 416256, Note_on_c, 0, 67, 80
2, 416256, Note_on_c, 0, 63, 80
2, 417784, Note_off_c, 0, 67, 100
2, 417784, Note_off_c, 0, 63, 100
2, 417792, Note_on_c, 0, 65, 80
2, 417792, Note_on_c, 0, 58, 80
2, 419320, Note_off_c, 0, 65, 100
2, 419320, Note_off_c, 0, 58, 100
2, 419328, Note_on_c, 0, 63, 80
2, 419328, Note_on_c, 0, 55, 80
2, 419704, Note_off_c, 0, 63, 100
2, 419704, Note_off_c, 0, 55, 100
2, 422016, Note_on_c, 0, 67, 80
2, 422016, Note_on_c, 0, 63, 80
2, 422392, Note_off_c, 0, 67, 100
2, 422392, Note_off_c, 0, 63, 100
2, 422400, Note_on_c, 0, 65, 80
2, 422400, Note_on_c, 0, 58, 80
2, 423928, Note_off_c, 0, 65, 100
2, 423928, Note_off_c, 0, 58, 100
2, 423936, Note_on_c, 0, 63, 80
2, 423936, Note_on_c, 0, 55, 80
2, 424312, Note_off_c, 0, 63, 100
2, 424312, Note_off_c, 0, 55, 100
2, 425088, Note_on_c, 0, 79, 80
2, 425088, Note_on_c, 0, 75, 80
2, 425464, Note_off_c, 0, 79, 100
2, 425464, Note_off_c, 0, 75, 100
2, 425472, Note_on_c, 0, 77, 80
2, 425472, Note_on_c, 0, 70, 80
2, 427000, Note_off_c, 0, 77, 100
2, 427000, Note_off_c, 0, 70, 100
2, 427008, Note_on_c, 0, 75, 80
2, 427008, Note_on_c, 0, 67, 80
2, 427384, Note_off_c, 0, 75, 100
2, 427384, Note_off_c, 0, 67, 100
2, 428160, Note_on_c, 0, 87, 80
2, 428160, Note_on_c, 0, 91, 80
2, 428536, Note_off_c, 0, 87, 100
2, 428536, Note_off_c, 0, 91, 100
2, 428928, Note_on_c, 0, 91, 80
2, 428928, Note_on_c, 0, 87, 80
2, 429304, Note_off_c, 0, 91, 100
2, 429304, Note_off_c, 0, 87, 100
2, 429312, Note_on_c, 0, 89, 80
2, 429312, Note_on_c, 0, 82, 80
2, 429688, Note_off_c, 0, 89, 100
2, 429688, Note_off_c, 0, 82, 100
2, 429696, Note_on_c, 0, 87, 80
2, 429696, Note_on_c, 0, 79, 80
2, 430072, Note_off_c, 0, 87, 100
2, 430072, Note_off_c, 0, 79, 100
2, 430080, Note_on_c, 0, 87, 80
2, 430080, Note_on_c, 0, 79, 80
2, 430456, Note_off_c, 0, 87, 100
2, 430456, Note_off_c, 0, 79, 100
2, 432000, Note_on_c, 0, 67, 80
2, 432000, Note_on_c, 0, 63, 80
2, 432376, Note_off_c, 0, 67, 100
2, 432376, Note_off_c, 0, 63, 100
2, 432384, Note_on_c, 0, 65, 80
2, 432384, Note_on_c, 0, 58, 80
2, 432760, Note_off_c, 0, 65, 100
2, 432760, Note_off_c, 0, 58, 100
2, 432768, Note_on_c, 0, 63, 80
2, 432768, Note_on_c, 0, 55, 80
2, 433144, Note_off_c, 0, 63, 100
2, 433144, Note_off_c, 0, 55, 100
2, 433152, Note_on_c, 0, 63, 80
2, 433152, Note_on_c, 0, 55, 80
2, 433528, Note_off_c, 0, 63, 100
2, 433528, Note_off_c, 0, 55, 100
2, 434688, Note_on_c, 0, 58, 80
2, 434688, Note_on_c, 0, 53, 80
2, 435832, Note_off_c, 0, 58, 100
2, 435832, Note_off_c, 0, 53, 100
2, 435840, Note_on_c, 0, 55, 80
2, 435840, Note_on_c, 0, 51, 80
2, 436216, Note_off_c, 0, 55, 100
2, 436216, Note_off_c, 0, 51, 100
2, 436224, Note_on_c, 0, 58, 80
2, 436224, Note_on_c, 0, 53, 80
2, 437368, Note_off_c, 0, 58, 100
2, 437368, Note_off_c, 0, 53, 100
2, 437376, Note_on_c, 0, 55, 80
2, 437376, Note_on_c, 0, 51, 80
2, 437752, Note_off_c, 0, 55, 100
2, 437752, Note_off_c, 0, 51, 100
2, 437760, Note_on_c, 0, 58, 80
2, 437760, Note_on_c, 0, 53, 80
2, 438904, Note_off_c, 0, 58, 100
2, 438904, Note_off_c, 0, 53, 100
2, 438912, Note_on_c, 0, 55, 80
2, 438912, Note_on_c, 0, 51, 80
2, 439288, Note_off_c, 0, 55, 100
2, 439288, Note_off_c, 0, 51, 100
2, 439296, Note_on_c, 0, 58, 80
2, 439296, Note_on_c, 0, 53, 80
2, 439296, Note_on_c, 0, 50, 80
2, 440440, Note_off_c, 0, 58, 100
2, 440440, Note_off_c, 0, 53, 100
2, 440440, Note_off_c, 0, 50, 100
2, 440448, Note_on_c, 0, 62, 80
2, 440448, Note_on_c, 0, 56, 80
2, 440448, Note_on_c, 0, 53, 80
2, 440824, Note_off_c, 0, 62, 100
2, 440824, Note_off_c, 0, 56, 100
2, 440824, Note_off_c, 0, 53, 100
2, 440832, Note_on_c, 0, 63, 80
2, 440832, Note_on_c, 0, 55, 80
2, 441208, Note_off_c, 0, 63, 100
2, 441208, Note_off_c, 0, 55, 100
2, 443904, Note_on_c, 0, 63, 80
2, 444088, Note_off_c, 0, 63, 100
2, 444096, Note_on_c, 0, 65, 80
2, 444280, Note_off_c, 0, 65, 100
2, 444288, Note_on_c, 0, 63, 80
2, 444472, Note_off_c, 0, 63, 100
2, 444480, Note_on_c, 0, 62, 79
2, 444664, Note_off_c, 0, 62, 100
2, 444672, Note_on_c, 0, 63, 79
2, 444856, Note_off_c, 0, 63, 100
2, 444864, Note_on_c, 0, 65, 78
2, 445048, Note_off_c, 0, 65, 100
2, 445056, Note_on_c, 0, 67, 78
2, 445240, Note_off_c, 0, 67, 100
2, 445248, Note_on_c, 0, 68, 77
2, 445432, Note_off_c, 0, 68, 100
2, 445440, Note_on_c, 0, 70, 77
2, 445624, Note_off_c, 0, 70, 100
2, 445632, Note_on_c, 0, 72, 77
2, 445816, Note_off_c, 0, 72, 100
2, 445824, Note_on_c, 0, 74, 76
2, 446008, Note_off_c, 0, 74, 100
2, 446016, Note_on_c, 0, 75, 76
2, 446200, Note_off_c, 0, 75, 100
2, 446208, Note_on_c, 0, 77, 75
2, 446392, Note_off_c, 0, 77, 100
2, 446400, Note_on_c, 0, 79, 75
2, 446584, Note_off_c, 0, 79, 100
2, 446592, Note_on_c, 0, 80, 74
2, 446776, Note_off_c, 0, 80, 100
2, 446784, Note_on_c, 0, 82, 74
2, 446968, Note_off_c, 0, 82, 100
2, 446976, Note_on_c, 0, 84, 74
2, 447224, Note_off_c, 0, 84, 100
2, 447232, Note_on_c, 0, 86, 73
2, 447480, Note_off_c, 0, 86, 100
2, 447488, Note_on_c, 0, 87, 72
2, 447736, Note_off_c, 0, 87, 100
2, 447744, Note_on_c, 0, 89, 72
2, 447928, Note_off_c, 0, 89, 100
2, 447936, Note_on_c, 0, 91, 71
2, 448120, Note_off_c, 0, 91, 100
2, 448128, Note_on_c, 0, 92, 71
2, 448312, Note_off_c, 0, 92, 100
2, 448320, Note_on_c, 0, 94, 71
2, 448504, Note_off_c, 0, 94, 100
2, 448512, Note_on_c, 0, 96, 70
2, 449272, Note_off_c, 0, 96, 100
2, 449280, Note_on_c, 0, 94, 70
2, 449656, Note_off_c, 0, 94, 100
2, 450048, Note_on_c, 0, 87, 70
2, 450232, Note_off_c, 0, 87, 100
2, 450240, Note_on_c, 0, 89, 70
2, 450424, Note_off_c, 0, 89, 100
2, 450432, Note_on_c, 0, 87, 70
2, 450616, Note_off_c, 0, 87, 100
2, 450624, Note_on_c, 0, 86, 70
2, 450808, Note_off_c, 0, 86, 100
2, 450816, Note_on_c, 0, 87, 70
2, 450960, Note_off_c, 0, 87, 100
2, 450968, Note_on_c, 0, 89, 70
2, 451112, Note_off_c, 0, 89, 100
2, 451120, Note_on_c, 0, 91, 70
2, 451264, Note_off_c, 0, 91, 100
2, 451272, Note_on_c, 0, 92, 70
2, 451416, Note_off_c, 0, 92, 100
2, 451424, Note_on_c, 0, 94, 70
2, 451568, Note_off_c, 0, 94, 100
2, 451584, Note_on_c, 0, 96, 70
2, 452344, Note_off_c, 0, 96, 100
2, 452352, Note_on_c, 0, 94, 70
2, 452728, Note_off_c, 0, 94, 100
2, 453120, Note_on_c, 0, 87, 70
2, 453304, Note_off_c, 0, 87, 100
2, 453312, Note_on_c, 0, 89, 70
2, 453496, Note_off_c, 0, 89, 100
2, 453504, Note_on_c, 0, 87, 70
2, 453688, Note_off_c, 0, 87, 100
2, 453696, Note_on_c, 0, 86, 70
2, 453880, Note_off_c, 0, 86, 100
2, 453888, Note_on_c, 0, 87, 70
2, 454032, Note_off_c, 0, 87, 100
2, 454040, Note_on_c, 0, 89, 70
2, 454184, Note_off_c, 0, 89, 100
2, 454192, Note_on_c, 0, 91, 70
2, 454336, Note_off_c, 0, 91, 100
2, 454344, Note_on_c, 0, 92, 70
2, 454488, Note_off_c, 0, 92, 100
2, 454496, Note_on_c, 0, 94, 70
2, 454640, Note_off_c, 0, 94, 100
2, 454656, Note_on_c, 0, 84, 70
2, 454656, Note_on_c, 0, 96, 70
2, 456184, Note_off_c, 0, 84, 100
2, 456184, Note_off_c, 0, 96, 100
2, 456192, Note_on_c, 0, 94, 70
2, 456192, Note_on_c, 0, 82, 70
2, 456568, Note_off_c, 0, 94, 100
2, 456568, Note_off_c, 0, 82, 100
2, 457728, Note_on_c, 0, 62, 110
2, 457728, Note_on_c, 0, 58, 110
2, 457728, Note_on_c, 0, 53, 110
2, 457728, Note_on_c, 0, 56, 110
2, 458104, Note_off_c, 0, 62, 100
2, 458104, Note_off_c, 0, 58, 100
2, 458104, Note_off_c, 0, 53, 100
2, 458104, Note_off_c, 0, 56, 100
2, 459264, Note_on_c, 0, 63, 110
2, 459264, Note_on_c, 0, 58, 110
2, 459264, Note_on_c, 0, 55, 110
2, 460024, Note_off_c, 0, 63, 100
2, 460024, Note_off_c, 0, 58, 100
2, 460024, Note_off_c, 0, 55, 100
2, 463104, Control_c, 0, 7, 0
2, 464640, Note_on_c, 0, 63, 1
2, 465016, Note_off_c, 0, 63, 100
2, 465016, End_track
3, 0, Start_track
3, 0, Title_t, "Left"
3, 0, Control_c, 1, 0, 0
3, 0, Program_c, 1, 0
3, 0, Control_c, 1, 7, 100
3, 0, Control_c, 1, 10, 59
3, 0, Control_c, 1, 91, 127
3, 0, Key_signature, -3, "minor"
3, 768, Note_on_c, 1, 48, 80
3, 768, Note_on_c, 1, 36, 80
3, 1340, Note_off_c, 1, 48, 100
3, 1340, Note_off_c, 1, 36, 100
3, 1344, Note_on_c, 1, 51, 80
3, 1344, Note_on_c, 1, 48, 80
3, 1532, Note_off_c, 1, 51, 100
3, 1532, Note_off_c, 1, 48, 100
3, 1536, Note_on_c, 1, 52, 80
3, 1536, Note_on_c, 1, 46, 80
3, 1724, Note_off_c, 1, 52, 100
3, 1724, Note_off_c, 1, 46, 100
3, 1728, Note_on_c, 1, 46, 80
3, 1728, Note_on_c, 1, 52, 80
3, 1916, Note_off_c, 1, 46, 100
3, 1916, Note_off_c, 1, 52, 100
3, 1920, Note_on_c, 1, 53, 80
3, 1920, Note_on_c, 1, 45, 80
3, 2108, Note_off_c, 1, 53, 100
3, 2108, Note_off_c, 1, 45, 100
3, 2112, Note_on_c, 1, 54, 80
3, 2112, Note_on_c, 1, 44, 80
3, 2300, Note_off_c, 1, 54, 100
3, 2300, Note_off_c, 1, 44, 100
3, 2304, Note_on_c, 1, 55, 80
3, 2304, Note_on_c, 1, 43, 80
3, 2492, Note_off_c, 1, 55, 100
3, 2496, Note_on_c, 1, 57, 80
3, 2588, Note_off_c, 1, 57, 100
3, 2688, Note_on_c, 1, 59, 80
3, 2780, Note_off_c, 1, 59, 100
3, 2876, Note_off_c, 1, 43, 100
3, 3072, Note_on_c, 1, 67, 80
3, 3072, Note_on_c, 1, 55, 80
3, 3260, Note_off_c, 1, 67, 100
3, 3264, Note_on_c, 1, 69, 80
3, 3452, Note_off_c, 1, 69, 100
3, 3456, Note_on_c, 1, 71, 80
3, 3644, Note_off_c, 1, 55, 100
3, 3644, Note_off_c, 1, 71, 100
3, 3648, Note_on_c, 1, 70, 80
3, 3648, Note_on_c, 1, 67, 80
3, 3836, Note_off_c, 1, 70, 100
3, 3836, Note_off_c, 1, 67, 100
3, 3840, Note_on_c, 1, 70, 80
3, 3840, Note_on_c, 1, 68, 80
3, 3840, Note_on_c, 1, 65, 80
3, 4028, Note_off_c, 1, 68, 100
3, 4028, Note_off_c, 1, 65, 100
3, 4032, Note_on_c, 1, 67, 80
3, 4032, Note_on_c, 1, 63, 80
3, 4220, Note_off_c, 1, 70, 100
3, 4220, Note_off_c, 1, 67, 100
3, 4220, Note_off_c, 1, 63, 100
3, 4224, Note_on_c, 1, 65, 80
3, 4224, Note_on_c, 1, 62, 80
3, 4224, Note_on_c, 1, 70, 80
3, 4412, Note_off_c, 1, 65, 100
3, 4412, Note_off_c, 1, 62, 100
3, 4412, Note_off_c, 1, 70, 100
3, 4416, Note_on_c, 1, 62, 80
3, 4416, Note_on_c, 1, 58, 80
3, 4604, Note_off_c, 1, 62, 100
3, 4604, Note_off_c, 1, 58, 100
3, 4992, Note_on_c, 1, 46, 80
3, 4992, Note_on_c, 1, 34, 80
3, 5372, Note_off_c, 1, 46, 100
3, 5372, Note_off_c, 1, 34, 100
3, 5376, Note_on_c, 1, 47, 80
3, 5376, Note_on_c, 1, 35, 80
3, 5948, Note_off_c, 1, 47, 100
3, 5948, Note_off_c, 1, 35, 100
3, 5952, Note_on_c, 1, 54, 80
3, 5952, Note_on_c, 1, 47, 80
3, 6140, Note_off_c, 1, 54, 100
3, 6140, Note_off_c, 1, 47, 100
3, 6144, Note_on_c, 1, 54, 80
3, 6144, Note_on_c, 1, 49, 80
3, 6332, Note_off_c, 1, 54, 100
3, 6332, Note_off_c, 1, 49, 100
3, 6336, Note_on_c, 1, 54, 80
3, 6336, Note_on_c, 1, 49, 80
3, 6524, Note_off_c, 1, 54, 100
3, 6524, Note_off_c, 1, 49, 100
3, 6528, Note_on_c, 1, 54, 80
3, 6528, Note_on_c, 1, 47, 80
3, 6716, Note_off_c, 1, 54, 100
3, 6716, Note_off_c, 1, 47, 100
3, 6720, Note_on_c, 1, 54, 80
3, 6720, Note_on_c, 1, 46, 80
3, 6908, Note_off_c, 1, 46, 100
3, 6912, Note_on_c, 1, 45, 80
3, 7104, Note_on_c, 1, 53, 80
3, 7116, Note_off_c, 1, 54, 100
3, 7292, Note_off_c, 1, 45, 100
3, 7292, Note_off_c, 1, 53, 100
3, 7296, Note_on_c, 1, 53, 80
3, 7296, Note_on_c, 1, 46, 80
3, 7484, Note_off_c, 1, 53, 100
3, 7484, Note_off_c, 1, 46, 100
3, 7488, Note_on_c, 1, 52, 80
3, 7488, Note_on_c, 1, 44, 80
3, 7676, Note_off_c, 1, 44, 100
3, 7680, Note_on_c, 1, 43, 80
3, 7868, Note_off_c, 1, 52, 100
3, 7872, Note_on_c, 1, 51, 80
3, 8060, Note_off_c, 1, 43, 100
3, 8060, Note_off_c, 1, 51, 100
3, 8064, Note_on_c, 1, 51, 80
3, 8064, Note_on_c, 1, 44, 80
3, 8252, Note_off_c, 1, 51, 100
3, 8252, Note_off_c, 1, 44, 100
3, 8256, Note_on_c, 1, 54, 80
3, 8256, Note_on_c, 1, 46, 80
3, 8256, Note_on_c, 1, 42, 80
3, 8444, Note_off_c, 1, 54, 100
3, 8444, Note_off_c, 1, 46, 100
3, 8444, Note_off_c, 1, 42, 100
3, 8448, Note_on_c, 1, 53, 80
3, 8448, Note_on_c, 1, 46, 80
3, 8448, Note_on_c, 1, 41, 80
3, 8636, Note_off_c, 1, 53, 100
3, 8636, Note_off_c, 1, 46, 100
3, 8636, Note_off_c, 1, 41, 100
3, 8928, Note_on_c, 1, 53, 80
3, 8928, Note_on_c, 1, 46, 80
3, 8928, Note_on_c, 1, 41, 80
3, 9020, Note_off_c, 1, 53, 100
3, 9020, Note_off_c, 1, 46, 100
3, 9020, Note_off_c, 1, 41, 100
3, 9024, Note_on_c, 1, 51, 80
3, 9024, Note_on_c, 1, 46, 80
3, 9024, Note_on_c, 1, 39, 80
3, 9116, Note_off_c, 1, 51, 100
3, 9116, Note_off_c, 1, 46, 100
3, 9116, Note_off_c, 1, 39, 100
3, 9120, Note_on_c, 1, 51, 80
3, 9120, Note_on_c, 1, 46, 80
3, 9120, Note_on_c, 1, 39, 80
3, 9212, Note_off_c, 1, 51, 100
3, 9212, Note_off_c, 1, 46, 100
3, 9212, Note_off_c, 1, 39, 100
3, 9216, Note_on_c, 1, 50, 80
3, 9216, Note_on_c, 1, 46, 80
3, 9216, Note_on_c, 1, 38, 80
3, 9404, Note_off_c, 1, 50, 100
3, 9404, Note_off_c, 1, 46, 100
3, 9404, Note_off_c, 1, 38, 100
3, 9696, Note_on_c, 1, 68, 80
3, 9696, Note_on_c, 1, 65, 80
3, 9788, Note_off_c, 1, 68, 100
3, 9788, Note_off_c, 1, 65, 100
3, 9792, Note_on_c, 1, 66, 80
3, 9792, Note_on_c, 1, 63, 80
3, 9884, Note_off_c, 1, 66, 100
3, 9884, Note_off_c, 1, 63, 100
3, 9888, Note_on_c, 1, 66, 80
3, 9888, Note_on_c, 1, 63, 80
3, 9980, Note_off_c, 1, 66, 100
3, 9980, Note_off_c, 1, 63, 100
3, 9984, Note_on_c, 1, 65, 80
3, 9984, Note_on_c, 1, 62, 80
3, 10172, Note_off_c, 1, 65, 100
3, 10172, Note_off_c, 1, 62, 100
3, 10464, Note_on_c, 1, 65, 80
3, 10464, Note_on_c, 1, 62, 80
3, 10556, Note_off_c, 1, 65, 100
3, 10556, Note_off_c, 1, 62, 100
3, 10560, Note_on_c, 1, 63, 80
3, 10560, Note_on_c, 1, 61, 80
3, 10652, Note_off_c, 1, 63, 100
3, 10652, Note_off_c, 1, 61, 100
3, 10656, Note_on_c, 1, 63, 80
3, 10656, Note_on_c, 1, 59, 80
3, 10748, Note_off_c, 1, 63, 100
3, 10748, Note_off_c, 1, 59, 100
3, 10752, Note_on_c, 1, 63, 80
3, 10752, Note_on_c, 1, 59, 80
3, 10940, Note_off_c, 1, 63, 100
3, 10940, Note_off_c, 1, 59, 100
3, 11232, Note_on_c, 1, 65, 80
3, 11232, Note_on_c, 1, 62, 80
3, 11324, Note_off_c, 1, 65, 100
3, 11324, Note_off_c, 1, 62, 100
3, 11328, Note_on_c, 1, 63, 80
3, 11328, Note_on_c, 1, 61, 80
3, 11420, Note_off_c, 1, 63, 100
3, 11420, Note_off_c, 1, 61, 100
3, 11424, Note_on_c, 1, 63, 80
3, 11424, Note_on_c, 1, 60, 80
3, 11516, Note_off_c, 1, 63, 100
3, 11516, Note_off_c, 1, 60, 100
3, 11712, Note_on_c, 1, 63, 80
3, 11712, Note_on_c, 1, 60, 80
3, 11900, Note_off_c, 1, 63, 100
3, 11900, Note_off_c, 1, 60, 100
3, 12096, Note_on_c, 1, 60, 80
3, 12096, Note_on_c, 1, 63, 80
3, 12284, Note_off_c, 1, 60, 100
3, 12284, Note_off_c, 1, 63, 100
3, 12288, Note_on_c, 1, 63, 110
3, 12288, Note_on_c, 1, 60, 110
3, 13432, Note_off_c, 1, 63, 100
3, 13432, Note_off_c, 1, 60, 100
3, 13440, Note_on_c, 1, 62, 110
3, 13440, Note_on_c, 1, 59, 110
3, 13624, Note_off_c, 1, 62, 100
3, 13624, Note_off_c, 1, 59, 100
3, 13632, Note_on_c, 1, 61, 110
3, 13632, Note_on_c, 1, 58, 110
3, 13816, Note_off_c, 1, 61, 100
3, 13816, Note_off_c, 1, 58, 100
3, 13824, Note_on_c, 1, 61, 110
3, 13824, Note_on_c, 1, 58, 110
3, 14200, Note_off_c, 1, 61, 100
3, 14200, Note_off_c, 1, 58, 100
3, 14208, Note_on_c, 1, 60, 110
3, 14208, Note_on_c, 1, 57, 110
3, 14392, Note_off_c, 1, 60, 100
3, 14392, Note_off_c, 1, 57, 100
3, 14400, Note_on_c, 1, 59, 110
3, 14400, Note_on_c, 1, 56, 110
3, 14584, Note_off_c, 1, 59, 100
3, 14584, Note_off_c, 1, 56, 100
3, 14592, Note_on_c, 1, 59, 110
3, 14592, Note_on_c, 1, 56, 110
3, 14968, Note_off_c, 1, 59, 100
3, 14968, Note_off_c, 1, 56, 100
3, 14976, Note_on_c, 1, 58, 110
3, 14976, Note_on_c, 1, 55, 110
3, 15160, Note_off_c, 1, 58, 100
3, 15160, Note_off_c, 1, 55, 100
3, 15168, Note_on_c, 1, 57, 110
3, 15168, Note_on_c, 1, 54, 110
3, 15352, Note_off_c, 1, 57, 100
3, 15352, Note_off_c, 1, 54, 100
3, 15360, Note_on_c, 1, 56, 110
3, 15360, Note_on_c, 1, 53, 110
3, 16504, Note_off_c, 1, 56, 100
3, 16504, Note_off_c, 1, 53, 100
3, 16512, Note_on_c, 1, 55, 80
3, 16512, Note_on_c, 1, 51, 80
3, 16888, Note_off_c, 1, 55, 100
3, 16888, Note_off_c, 1, 51, 100
3, 16896, Note_on_c, 1, 53, 80
3, 16896, Note_on_c, 1, 50, 80
3, 17272, Note_off_c, 1, 53, 100
3, 17272, Note_off_c, 1, 50, 100
3, 17280, Note_on_c, 1, 51, 80
3, 17280, Note_on_c, 1, 48, 80
3, 17656, Note_off_c, 1, 51, 100
3, 17656, Note_off_c, 1, 48, 100
3, 17664, Note_on_c, 1, 50, 80
3, 17664, Note_on_c, 1, 46, 80
3, 18040, Note_off_c, 1, 50, 100
3, 18040, Note_off_c, 1, 46, 100
3, 18048, Note_on_c, 1, 46, 80
3, 18048, Note_on_c, 1, 50, 80
3, 18048, Note_on_c, 1, 53, 80
3, 18424, Note_off_c, 1, 46, 100
3, 18424, Note_off_c, 1, 50, 100
3, 18424, Note_off_c, 1, 53, 100
3, 18432, Note_on_c, 1, 39, 80
3, 18616, Note_off_c, 1, 39, 100
3, 18624, Note_on_c, 1, 46, 82
3, 18808, Note_off_c, 1, 46, 100
3, 18816, Note_on_c, 1, 55, 84
3, 19000, Note_off_c, 1, 55, 100
3, 19008, Note_on_c, 1, 46, 86
3, 19192, Note_off_c, 1, 46, 100
3, 19200, Note_on_c, 1, 39, 88
3, 19384, Note_off_c, 1, 39, 100
3, 19392, Note_on_c, 1, 46, 90
3, 19576, Note_off_c, 1, 46, 100
3, 19584, Note_on_c, 1, 55, 92
3, 19768, Note_off_c, 1, 55, 100
3, 19776, Note_on_c, 1, 46, 94
3, 19960, Note_off_c, 1, 46, 100
3, 19968, Note_on_c, 1, 41, 97
3, 20152, Note_off_c, 1, 41, 100
3, 20160, Note_on_c, 1, 46, 99
3, 20344, Note_off_c, 1, 46, 100
3, 20352, Note_on_c, 1, 56, 101
3, 20536, Note_off_c, 1, 56, 100
3, 20544, Note_on_c, 1, 46, 103
3, 20728, Note_off_c, 1, 46, 100
3, 20736, Note_on_c, 1, 41, 105
3, 20920, Note_off_c, 1, 41, 100
3, 20928, Note_on_c, 1, 46, 107
3, 21112, Note_off_c, 1, 46, 100
3, 21120, Note_on_c, 1, 56, 110
3, 21304, Note_off_c, 1, 56, 100
3, 21312, Note_on_c, 1, 46, 101
3, 21496, Note_off_c, 1, 46, 100
3, 21504, Note_on_c, 1, 43, 90
3, 21688, Note_off_c, 1, 43, 100
3, 21696, Note_on_c, 1, 46, 80
3, 21880, Note_off_c, 1, 46, 100
3, 21888, Note_on_c, 1, 58, 80
3, 22072, Note_off_c, 1, 58, 100
3, 22080, Note_on_c, 1, 46, 80
3, 22264, Note_off_c, 1, 46, 100
3, 22272, Note_on_c, 1, 43, 80
3, 22456, Note_off_c, 1, 43, 100
3, 22464, Note_on_c, 1, 46, 80
3, 22648, Note_off_c, 1, 46, 100
3, 22656, Note_on_c, 1, 58, 80
3, 22840, Note_off_c, 1, 58, 100
3, 22848, Note_on_c, 1, 46, 80
3, 23032, Note_off_c, 1, 46, 100
3, 23040, Note_on_c, 1, 44, 80
3, 23224, Note_off_c, 1, 44, 100
3, 23232, Note_on_c, 1, 46, 80
3, 23416, Note_off_c, 1, 46, 100
3, 23424, Note_on_c, 1, 56, 80
3, 23608, Note_off_c, 1, 56, 100
3, 23616, Note_on_c, 1, 46, 80
3, 23800, Note_off_c, 1, 46, 100
3, 23808, Note_on_c, 1, 34, 80
3, 23992, Note_off_c, 1, 34, 100
3, 24000, Note_on_c, 1, 46, 80
3, 24184, Note_off_c, 1, 46, 100
3, 24192, Note_on_c, 1, 53, 80
3, 24376, Note_off_c, 1, 53, 100
3, 24384, Note_on_c, 1, 46, 80
3, 24568, Note_off_c, 1, 46, 100
3, 24576, Note_on_c, 1, 39, 80
3, 24760, Note_off_c, 1, 39, 100
3, 24768, Note_on_c, 1, 46, 82
3, 24952, Note_off_c, 1, 46, 100
3, 24960, Note_on_c, 1, 55, 84
3, 25144, Note_off_c, 1, 55, 100
3, 25152, Note_on_c, 1, 46, 86
3, 25336, Note_off_c, 1, 46, 100
3, 25344, Note_on_c, 1, 39, 88
3, 25528, Note_off_c, 1, 39, 100
3, 25536, Note_on_c, 1, 46, 91
3, 25720, Note_off_c, 1, 46, 100
3, 25728, Note_on_c, 1, 55, 93
3, 25912, Note_off_c, 1, 55, 100
3, 25920, Note_on_c, 1, 46, 95
3, 26104, Note_off_c, 1, 46, 100
3, 26112, Note_on_c, 1, 41, 97
3, 26296, Note_off_c, 1, 41, 100
3, 26304, Note_on_c, 1, 46, 99
3, 26488, Note_off_c, 1, 46, 100
3, 26496, Note_on_c, 1, 56, 102
3, 26680, Note_off_c, 1, 56, 100
3, 26688, Note_on_c, 1, 46, 104
3, 26872, Note_off_c, 1, 46, 100
3, 26880, Note_on_c, 1, 41, 106
3, 27064, Note_off_c, 1, 41, 100
3, 27072, Note_on_c, 1, 46, 108
3, 27256, Note_off_c, 1, 46, 100
3, 27264, Note_on_c, 1, 56, 110
3, 27448, Note_off_c, 1, 56, 100
3, 27456, Note_on_c, 1, 46, 100
3, 27640, Note_off_c, 1, 46, 100
3, 27648, Note_on_c, 1, 43, 91
3, 27832, Note_off_c, 1, 43, 100
3, 27840, Note_on_c, 1, 51, 80
3, 28024, Note_off_c, 1, 51, 100
3, 28032, Note_on_c, 1, 58, 80
3, 28216, Note_off_c, 1, 58, 100
3, 28224, Note_on_c, 1, 51, 80
3, 28408, Note_off_c, 1, 51, 100
3, 28416, Note_on_c, 1, 43, 80
3, 28600, Note_off_c, 1, 43, 100
3, 28608, Note_on_c, 1, 51, 80
3, 28792, Note_off_c, 1, 51, 100
3, 28800, Note_on_c, 1, 58, 80
3, 28984, Note_off_c, 1, 58, 100
3, 28992, Note_on_c, 1, 51, 80
3, 29176, Note_off_c, 1, 51, 100
3, 29184, Note_on_c, 1, 44, 80
3, 29368, Note_off_c, 1, 44, 100
3, 29376, Note_on_c, 1, 51, 80
3, 29560, Note_off_c, 1, 51, 100
3, 29568, Note_on_c, 1, 60, 80
3, 29752, Note_off_c, 1, 60, 100
3, 29760, Note_on_c, 1, 51, 80
3, 29944, Note_off_c, 1, 51, 100
3, 29952, Note_on_c, 1, 45, 80
3, 30136, Note_off_c, 1, 45, 100
3, 30144, Note_on_c, 1, 53, 80
3, 30328, Note_off_c, 1, 53, 100
3, 30336, Note_on_c, 1, 60, 80
3, 30520, Note_off_c, 1, 60, 100
3, 30528, Note_on_c, 1, 55, 80
3, 30712, Note_off_c, 1, 55, 100
3, 30720, Note_on_c, 1, 58, 80
3, 30720, Note_on_c, 1, 46, 80
3, 31096, Note_off_c, 1, 58, 100
3, 31096, Note_off_c, 1, 46, 100
3, 31104, Note_on_c, 1, 63, 80
3, 31288, Note_off_c, 1, 63, 100
3, 31296, Note_on_c, 1, 62, 80
3, 31480, Note_off_c, 1, 62, 100
3, 31488, Note_on_c, 1, 60, 80
3, 31672, Note_off_c, 1, 60, 100
3, 31680, Note_on_c, 1, 58, 80
3, 31864, Note_off_c, 1, 58, 100
3, 31872, Note_on_c, 1, 56, 80
3, 32056, Note_off_c, 1, 56, 100
3, 32064, Note_on_c, 1, 56, 80
3, 32248, Note_off_c, 1, 56, 100
3, 32256, Note_on_c, 1, 55, 80
3, 32440, Note_off_c, 1, 55, 100
3, 32448, Note_on_c, 1, 53, 80
3, 32632, Note_off_c, 1, 53, 100
3, 32640, Note_on_c, 1, 51, 80
3, 32824, Note_off_c, 1, 51, 100
3, 32832, Note_on_c, 1, 50, 80
3, 33016, Note_off_c, 1, 50, 100
3, 33024, Note_on_c, 1, 51, 80
3, 33208, Note_off_c, 1, 51, 100
3, 33216, Note_on_c, 1, 53, 80
3, 33400, Note_off_c, 1, 53, 100
3, 33408, Note_on_c, 1, 55, 80
3, 33592, Note_off_c, 1, 55, 100
3, 33600, Note_on_c, 1, 56, 80
3, 33784, Note_off_c, 1, 56, 100
3, 33792, Note_on_c, 1, 58, 80
3, 34168, Note_off_c, 1, 58, 100
3, 34176, Note_on_c, 1, 60, 80
3, 34360, Note_off_c, 1, 60, 100
3, 34368, Note_on_c, 1, 62, 80
3, 34552, Note_off_c, 1, 62, 100
3, 34560, Note_on_c, 1, 63, 80
3, 34744, Note_off_c, 1, 63, 100
3, 34752, Note_on_c, 1, 65, 80
3, 34936, Note_off_c, 1, 65, 100
3, 34944, Note_on_c, 1, 67, 80
3, 35128, Note_off_c, 1, 67, 100
3, 35136, Note_on_c, 1, 68, 80
3, 35320, Note_off_c, 1, 68, 100
3, 35328, Note_on_c, 1, 70, 80
3, 35704, Note_off_c, 1, 70, 100
3, 35712, Note_on_c, 1, 68, 80
3, 35896, Note_off_c, 1, 68, 100
3, 35904, Note_on_c, 1, 67, 80
3, 36088, Note_off_c, 1, 67, 100
3, 36096, Note_on_c, 1, 65, 80
3, 36280, Note_off_c, 1, 65, 100
3, 36288, Note_on_c, 1, 63, 82
3, 36472, Note_off_c, 1, 63, 100
3, 36480, Note_on_c, 1, 62, 85
3, 36664, Note_off_c, 1, 62, 100
3, 36672, Note_on_c, 1, 60, 88
3, 36856, Note_off_c, 1, 60, 100
3, 36864, Note_on_c, 1, 59, 91
3, 37048, Note_off_c, 1, 59, 100
3, 37056, Note_on_c, 1, 57, 94
3, 37240, Note_off_c, 1, 57, 100
3, 37248, Note_on_c, 1, 55, 96
3, 37432, Note_off_c, 1, 55, 100
3, 37440, Note_on_c, 1, 53, 99
3, 37624, Note_off_c, 1, 53, 100
3, 37632, Note_on_c, 1, 51, 102
3, 37816, Note_off_c, 1, 51, 100
3, 37824, Note_on_c, 1, 50, 105
3, 38008, Note_off_c, 1, 50, 100
3, 38016, Note_on_c, 1, 48, 108
3, 38200, Note_off_c, 1, 48, 100
3, 38208, Note_on_c, 1, 48, 110
3, 38208, Note_on_c, 1, 47, 110
3, 38392, Note_off_c, 1, 48, 100
3, 38392, Note_off_c, 1, 47, 100
3, 38400, Note_on_c, 1, 48, 110
3, 38400, Note_on_c, 1, 46, 110
3, 38776, Note_off_c, 1, 48, 100
3, 38776, Note_off_c, 1, 46, 100
3, 39168, Note_on_c, 1, 48, 110
3, 39168, Note_on_c, 1, 45, 110
3, 39544, Note_off_c, 1, 48, 100
3, 39544, Note_off_c, 1, 45, 100
3, 39936, Note_on_c, 1, 48, 110
3, 39936, Note_on_c, 1, 42, 110
3, 41080, Note_off_c, 1, 42, 100
3, 41088, Note_on_c, 1, 41, 110
3, 41464, Note_off_c, 1, 41, 100
3, 41472, Note_on_c, 1, 39, 110
3, 43000, Note_off_c, 1, 48, 100
3, 43000, Note_off_c, 1, 39, 100
3, 43008, Note_on_c, 1, 48, 110
3, 43008, Note_on_c, 1, 42, 110
3, 44152, Note_off_c, 1, 42, 100
3, 44160, Note_on_c, 1, 41, 110
3, 44536, Note_off_c, 1, 41, 100
3, 44544, Note_on_c, 1, 40, 110
3, 46072, Note_off_c, 1, 48, 100
3, 46072, Note_off_c, 1, 40, 100
3, 46080, Note_on_c, 1, 48, 80
3, 46080, Note_on_c, 1, 41, 80
3, 46456, Note_off_c, 1, 48, 100
3, 46456, Note_off_c, 1, 41, 100
3, 47616, Note_on_c, 1, 50, 80
3, 47616, Note_on_c, 1, 41, 80
3, 47992, Note_off_c, 1, 50, 100
3, 47992, Note_off_c, 1, 41, 100
3, 49152, Note_on_c, 1, 51, 80
3, 49152, Note_on_c, 1, 41, 80
3, 49528, Note_off_c, 1, 51, 100
3, 49528, Note_off_c, 1, 41, 100
3, 49920, Note_on_c, 1, 50, 80
3, 49920, Note_on_c, 1, 41, 80
3, 50296, Note_off_c, 1, 50, 100
3, 50296, Note_off_c, 1, 41, 100
3, 50688, Note_on_c, 1, 48, 80
3, 50688, Note_on_c, 1, 41, 80
3, 51064, Note_off_c, 1, 48, 100
3, 51064, Note_off_c, 1, 41, 100
3, 51456, Note_on_c, 1, 50, 80
3, 51456, Note_on_c, 1, 41, 80
3, 51832, Note_off_c, 1, 50, 100
3, 51832, Note_off_c, 1, 41, 100
3, 52224, Note_on_c, 1, 48, 80
3, 52224, Note_on_c, 1, 41, 80
3, 52600, Note_off_c, 1, 48, 100
3, 52600, Note_off_c, 1, 41, 100
3, 53760, Note_on_c, 1, 50, 80
3, 53760, Note_on_c, 1, 41, 80
3, 54136, Note_off_c, 1, 50, 100
3, 54136, Note_off_c, 1, 41, 100
3, 55296, Note_on_c, 1, 51, 80
3, 55296, Note_on_c, 1, 41, 80
3, 55672, Note_off_c, 1, 51, 100
3, 55672, Note_off_c, 1, 41, 100
3, 56064, Note_on_c, 1, 50, 80
3, 56064, Note_on_c, 1, 41, 80
3, 56440, Note_off_c, 1, 50, 100
3, 56440, Note_off_c, 1, 41, 100
3, 56832, Note_on_c, 1, 51, 80
3, 56832, Note_on_c, 1, 41, 80
3, 57208, Note_off_c, 1, 51, 100
3, 57208, Note_off_c, 1, 41, 100
3, 57600, Note_on_c, 1, 53, 80
3, 57976, Note_off_c, 1, 53, 100
3, 57984, Note_on_c, 1, 55, 80
3, 58168, Note_off_c, 1, 55, 100
3, 58176, Note_on_c, 1, 57, 80
3, 58360, Note_off_c, 1, 57, 100
3, 58368, Note_on_c, 1, 58, 80
3, 58552, Note_off_c, 1, 58, 100
3, 58560, Note_on_c, 1, 60, 80
3, 58744, Note_off_c, 1, 60, 100
3, 58752, Note_on_c, 1, 62, 80
3, 58936, Note_off_c, 1, 62, 100
3, 58944, Note_on_c, 1, 63, 80
3, 59128, Note_off_c, 1, 63, 100
3, 59136, Note_on_c, 1, 65, 80
3, 59512, Note_off_c, 1, 65, 100
3, 59520, Note_on_c, 1, 67, 80
3, 59704, Note_off_c, 1, 67, 100
3, 59712, Note_on_c, 1, 68, 80
3, 59896, Note_off_c, 1, 68, 100
3, 59904, Note_on_c, 1, 70, 80
3, 60088, Note_off_c, 1, 70, 100
3, 60096, Note_on_c, 1, 72, 80
3, 60280, Note_off_c, 1, 72, 100
3, 60288, Note_on_c, 1, 74, 80
3, 60472, Note_off_c, 1, 74, 100
3, 60480, Note_on_c, 1, 75, 80
3, 60664, Note_off_c, 1, 75, 100
3, 60672, Note_on_c, 1, 77, 80
3, 61048, Note_off_c, 1, 77, 100
3, 61056, Note_on_c, 1, 75, 80
3, 61432, Note_off_c, 1, 75, 100
3, 61440, Note_on_c, 1, 74, 80
3, 61816, Note_off_c, 1, 74, 100
3, 61824, Note_on_c, 1, 73, 80
3, 62200, Note_off_c, 1, 73, 100
3, 62208, Note_on_c, 1, 72, 80
3, 62584, Note_off_c, 1, 72, 100
3, 62592, Note_on_c, 1, 65, 80
3, 62968, Note_off_c, 1, 65, 100
3, 62976, Note_on_c, 1, 58, 80
3, 63360, Note_on_c, 1, 64, 80
3, 63360, Note_on_c, 1, 61, 80
3, 64120, Note_off_c, 1, 64, 100
3, 64120, Note_off_c, 1, 61, 100
3, 64128, Note_on_c, 1, 65, 80
3, 64128, Note_on_c, 1, 62, 80
3, 64504, Note_off_c, 1, 58, 100
3, 64504, Note_off_c, 1, 65, 100
3, 64504, Note_off_c, 1, 62, 100
3, 64512, Note_on_c, 1, 58, 80
3, 64896, Note_on_c, 1, 69, 80
3, 64896, Note_on_c, 1, 66, 80
3, 65656, Note_off_c, 1, 66, 100
3, 65664, Note_on_c, 1, 65, 80
3, 66040, Note_off_c, 1, 58, 100
3, 66040, Note_off_c, 1, 69, 100
3, 66040, Note_off_c, 1, 65, 100
3, 66048, Note_on_c, 1, 58, 80
3, 66432, Note_on_c, 1, 65, 80
3, 66432, Note_on_c, 1, 62, 80
3, 66808, Note_off_c, 1, 65, 100
3, 66808, Note_off_c, 1, 62, 100
3, 66816, Note_on_c, 1, 63, 80
3, 66816, Note_on_c, 1, 67, 80
3, 67192, Note_off_c, 1, 63, 100
3, 67192, Note_off_c, 1, 67, 100
3, 67200, Note_on_c, 1, 65, 80
3, 67200, Note_on_c, 1, 62, 80
3, 67576, Note_off_c, 1, 58, 100
3, 67576, Note_off_c, 1, 65, 100
3, 67576, Note_off_c, 1, 62, 100
3, 67584, Note_on_c, 1, 53, 80
3, 67584, Note_on_c, 1, 62, 80
3, 67960, Note_off_c, 1, 62, 100
3, 67968, Note_on_c, 1, 60, 80
3, 67968, Note_on_c, 1, 63, 80
3, 68344, Note_off_c, 1, 60, 100
3, 68344, Note_off_c, 1, 63, 100
3, 68352, Note_on_c, 1, 58, 80
3, 68352, Note_on_c, 1, 62, 80
3, 68728, Note_off_c, 1, 58, 100
3, 68728, Note_off_c, 1, 62, 100
3, 68736, Note_on_c, 1, 57, 80
3, 68736, Note_on_c, 1, 60, 80
3, 69112, Note_off_c, 1, 53, 100
3, 69112, Note_off_c, 1, 57, 100
3, 69112, Note_off_c, 1, 60, 100
3, 69120, Note_on_c, 1, 46, 80
3, 69504, Note_on_c, 1, 52, 80
3, 69504, Note_on_c, 1, 49, 80
3, 70264, Note_off_c, 1, 52, 100
3, 70264, Note_off_c, 1, 49, 100
3, 70272, Note_on_c, 1, 53, 80
3, 70272, Note_on_c, 1, 50, 80
3, 70648, Note_off_c, 1, 46, 100
3, 70648, Note_off_c, 1, 53, 100
3, 70648, Note_off_c, 1, 50, 100
3, 70656, Note_on_c, 1, 46, 80
3, 71040, Note_on_c, 1, 57, 80
3, 71040, Note_on_c, 1, 54, 80
3, 71800, Note_off_c, 1, 54, 100
3, 71808, Note_on_c, 1, 53, 80
3, 72184, Note_off_c, 1, 46, 100
3, 72184, Note_off_c, 1, 57, 100
3, 72184, Note_off_c, 1, 53, 100
3, 72192, Note_on_c, 1, 46, 80
3, 72576, Note_on_c, 1, 53, 80
3, 72576, Note_on_c, 1, 50, 80
3, 72952, Note_off_c, 1, 53, 100
3, 72952, Note_off_c, 1, 50, 100
3, 72960, Note_on_c, 1, 51, 80
3, 72960, Note_on_c, 1, 55, 80
3, 73336, Note_off_c, 1, 51, 100
3, 73336, Note_off_c, 1, 55, 100
3, 73344, Note_on_c, 1, 53, 80
3, 73344, Note_on_c, 1, 50, 80
3, 73720, Note_off_c, 1, 46, 100
3, 73720, Note_off_c, 1, 53, 100
3, 73720, Note_off_c, 1, 50, 100
3, 73728, Note_on_c, 1, 41, 80
3, 73728, Note_on_c, 1, 50, 80
3, 74104, Note_off_c, 1, 50, 100
3, 74112, Note_on_c, 1, 48, 80
3, 74112, Note_on_c, 1, 51, 80
3, 74488, Note_off_c, 1, 48, 100
3, 74488, Note_off_c, 1, 51, 100
3, 74496, Note_on_c, 1, 46, 80
3, 74496, Note_on_c, 1, 50, 80
3, 74872, Note_off_c, 1, 46, 100
3, 74872, Note_off_c, 1, 50, 100
3, 74880, Note_on_c, 1, 45, 80
3, 74880, Note_on_c, 1, 48, 80
3, 75256, Note_off_c, 1, 41, 100
3, 75256, Note_off_c, 1, 45, 100
3, 75256, Note_off_c, 1, 48, 100
3, 75264, Note_on_c, 1, 46, 80
3, 75264, Note_on_c, 1, 34, 80
3, 75832, Note_off_c, 1, 46, 100
3, 75832, Note_off_c, 1, 34, 100
3, 75840, Note_on_c, 1, 42, 80
3, 76024, Note_off_c, 1, 42, 100
3, 76032, Note_on_c, 1, 41, 80
3, 76408, Note_off_c, 1, 41, 100
3, 76416, Note_on_c, 1, 34, 80
3, 76792, Note_off_c, 1, 34, 100
3, 76800, Note_on_c, 1, 29, 80
3, 77176, Note_off_c, 1, 29, 100
3, 77184, Note_on_c, 1, 51, 80
3, 77368, Note_off_c, 1, 51, 100
3, 77376, Note_on_c, 1, 50, 80
3, 77560, Note_off_c, 1, 50, 100
3, 77568, Note_on_c, 1, 48, 80
3, 77752, Note_off_c, 1, 48, 100
3, 77760, Note_on_c, 1, 46, 80
3, 77944, Note_off_c, 1, 46, 100
3, 77952, Note_on_c, 1, 45, 80
3, 77952, Note_on_c, 1, 41, 80
3, 78136, Note_off_c, 1, 45, 100
3, 78136, Note_off_c, 1, 41, 100
3, 78144, Note_on_c, 1, 53, 80
3, 78328, Note_off_c, 1, 53, 100
3, 78336, Note_on_c, 1, 46, 80
3, 78904, Note_off_c, 1, 46, 100
3, 78912, Note_on_c, 1, 54, 80
3, 79096, Note_off_c, 1, 54, 100
3, 79104, Note_on_c, 1, 53, 80
3, 79480, Note_off_c, 1, 53, 100
3, 79488, Note_on_c, 1, 46, 80
3, 79864, Note_off_c, 1, 46, 100
3, 79872, Note_on_c, 1, 41, 80
3, 80248, Note_off_c, 1, 41, 100
3, 80256, Note_on_c, 1, 63, 80
3, 80440, Note_off_c, 1, 63, 100
3, 80448, Note_on_c, 1, 62, 80
3, 80632, Note_off_c, 1, 62, 100
3, 80640, Note_on_c, 1, 60, 80
3, 80824, Note_off_c, 1, 60, 100
3, 80832, Note_on_c, 1, 58, 80
3, 81016, Note_off_c, 1, 58, 100
3, 81024, Note_on_c, 1, 57, 80
3, 81024, Note_on_c, 1, 53, 80
3, 81208, Note_off_c, 1, 57, 100
3, 81208, Note_off_c, 1, 53, 100
3, 81216, Note_on_c, 1, 65, 80
3, 81400, Note_off_c, 1, 65, 100
3, 81408, Note_on_c, 1, 62, 80
3, 81408, Note_on_c, 1, 58, 80
3, 81976, Note_off_c, 1, 62, 100
3, 81976, Note_off_c, 1, 58, 100
3, 81984, Note_on_c, 1, 60, 80
3, 82168, Note_off_c, 1, 60, 100
3, 82176, Note_on_c, 1, 58, 80
3, 82744, Note_off_c, 1, 58, 100
3, 82752, Note_on_c, 1, 55, 80
3, 82936, Note_off_c, 1, 55, 100
3, 82944, Note_on_c, 1, 53, 80
3, 83512, Note_off_c, 1, 53, 100
3, 83520, Note_on_c, 1, 51, 80
3, 83704, Note_off_c, 1, 51, 100
3, 83712, Note_on_c, 1, 50, 80
3, 84280, Note_off_c, 1, 50, 100
3, 84288, Note_on_c, 1, 48, 80
3, 84472, Note_off_c, 1, 48, 100
3, 84480, Note_on_c, 1, 46, 80
3, 85048, Note_off_c, 1, 46, 100
3, 85056, Note_on_c, 1, 43, 80
3, 85240, Note_off_c, 1, 43, 100
3, 85248, Note_on_c, 1, 41, 80
3, 85816, Note_off_c, 1, 41, 100
3, 85824, Note_on_c, 1, 39, 80
3, 86008, Note_off_c, 1, 39, 100
3, 86016, Note_on_c, 1, 38, 80
3, 86584, Note_off_c, 1, 38, 100
3, 86592, Note_on_c, 1, 36, 80
3, 86776, Note_off_c, 1, 36, 100
3, 86784, Note_on_c, 1, 34, 80
3, 87352, Note_off_c, 1, 34, 100
3, 87360, Note_on_c, 1, 65, 80
3, 87360, Note_on_c, 1, 68, 80
3, 87544, Note_off_c, 1, 65, 100
3, 87544, Note_off_c, 1, 68, 100
3, 87552, Note_on_c, 1, 68, 80
3, 87552, Note_on_c, 1, 65, 80
3, 89080, Note_off_c, 1, 68, 100
3, 89080, Note_off_c, 1, 65, 100
3, 89088, Note_on_c, 1, 67, 80
3, 89088, Note_on_c, 1, 63, 80
3, 90616, Note_off_c, 1, 67, 100
3, 90616, Note_off_c, 1, 63, 100
3, 90624, Note_on_c, 1, 65, 80
3, 90624, Note_on_c, 1, 62, 80
3, 92152, Note_off_c, 1, 65, 100
3, 92152, Note_off_c, 1, 62, 100
3, 92160, Note_on_c, 1, 63, 80
3, 92160, Note_on_c, 1, 61, 80
3, 93688, Note_off_c, 1, 63, 100
3, 93688, Note_off_c, 1, 61, 100
3, 93696, Note_on_c, 1, 63, 80
3, 93696, Note_on_c, 1, 60, 80
3, 94840, Note_off_c, 1, 63, 100
3, 94840, Note_off_c, 1, 60, 100
3, 94848, Note_on_c, 1, 62, 80
3, 94848, Note_on_c, 1, 59, 80
3, 95032, Note_off_c, 1, 62, 100
3, 95032, Note_off_c, 1, 59, 100
3, 95040, Note_on_c, 1, 61, 80
3, 95040, Note_on_c, 1, 58, 80
3, 95224, Note_off_c, 1, 61, 100
3, 95224, Note_off_c, 1, 58, 100
3, 95232, Note_on_c, 1, 61, 80
3, 95232, Note_on_c, 1, 58, 80
3, 95608, Note_off_c, 1, 61, 100
3, 95608, Note_off_c, 1, 58, 100
3, 95616, Note_on_c, 1, 60, 80
3, 95616, Note_on_c, 1, 57, 80
3, 95800, Note_off_c, 1, 60, 100
3, 95800, Note_off_c, 1, 57, 100
3, 95808, Note_on_c, 1, 59, 80
3, 95808, Note_on_c, 1, 56, 80
3, 95992, Note_off_c, 1, 59, 100
3, 95992, Note_off_c, 1, 56, 100
3, 96000, Note_on_c, 1, 59, 80
3, 96000, Note_on_c, 1, 56, 80
3, 96376, Note_off_c, 1, 59, 100
3, 96376, Note_off_c, 1, 56, 100
3, 96384, Note_on_c, 1, 58, 80
3, 96384, Note_on_c, 1, 55, 80
3, 96568, Note_off_c, 1, 58, 100
3, 96568, Note_off_c, 1, 55, 100
3, 96576, Note_on_c, 1, 57, 80
3, 96576, Note_on_c, 1, 54, 80
3, 96760, Note_off_c, 1, 57, 100
3, 96760, Note_off_c, 1, 54, 100
3, 96768, Note_on_c, 1, 56, 80
3, 96768, Note_on_c, 1, 53, 80
3, 97912, Note_off_c, 1, 56, 100
3, 97912, Note_off_c, 1, 53, 100
3, 97920, Note_on_c, 1, 55, 80
3, 97920, Note_on_c, 1, 51, 80
3, 98296, Note_off_c, 1, 55, 100
3, 98296, Note_off_c, 1, 51, 100
3, 98304, Note_on_c, 1, 53, 80
3, 98304, Note_on_c, 1, 50, 80
3, 98680, Note_off_c, 1, 53, 100
3, 98680, Note_off_c, 1, 50, 100
3, 98688, Note_on_c, 1, 51, 80
3, 98688, Note_on_c, 1, 48, 80
3, 99064, Note_off_c, 1, 51, 100
3, 99064, Note_off_c, 1, 48, 100
3, 99072, Note_on_c, 1, 50, 80
3, 99072, Note_on_c, 1, 46, 80
3, 99448, Note_off_c, 1, 50, 100
3, 99448, Note_off_c, 1, 46, 100
3, 99456, Note_on_c, 1, 46, 80
3, 99456, Note_on_c, 1, 50, 80
3, 99456, Note_on_c, 1, 53, 80
3, 99832, Note_off_c, 1, 46, 100
3, 99832, Note_off_c, 1, 50, 100
3, 99832, Note_off_c, 1, 53, 100
3, 99840, Note_on_c, 1, 39, 80
3, 100024, Note_off_c, 1, 39, 100
3, 100032, Note_on_c, 1, 46, 82
3, 100216, Note_off_c, 1, 46, 100
3, 100224, Note_on_c, 1, 55, 84
3, 100408, Note_off_c, 1, 55, 100
3, 100416, Note_on_c, 1, 46, 86
3, 100600, Note_off_c, 1, 46, 100
3, 100608, Note_on_c, 1, 39, 88
3, 100792, Note_off_c, 1, 39, 100
3, 100800, Note_on_c, 1, 46, 91
3, 100984, Note_off_c, 1, 46, 100
3, 100992, Note_on_c, 1, 55, 93
3, 101176, Note_off_c, 1, 55, 100
3, 101184, Note_on_c, 1, 46, 95
3, 101368, Note_off_c, 1, 46, 100
3, 101376, Note_on_c, 1, 41, 97
3, 101560, Note_off_c, 1, 41, 100
3, 101568, Note_on_c, 1, 46, 99
3, 101752, Note_off_c, 1, 46, 100
3, 101760, Note_on_c, 1, 56, 102
3, 101944, Note_off_c, 1, 56, 100
3, 101952, Note_on_c, 1, 46, 104
3, 102136, Note_off_c, 1, 46, 100
3, 102144, Note_on_c, 1, 41, 106
3, 102328, Note_off_c, 1, 41, 100
3, 102336, Note_on_c, 1, 46, 108
3, 102520, Note_off_c, 1, 46, 100
3, 102528, Note_on_c, 1, 56, 110
3, 102712, Note_off_c, 1, 56, 100
3, 102720, Note_on_c, 1, 46, 101
3, 102904, Note_off_c, 1, 46, 100
3, 102912, Note_on_c, 1, 43, 91
3, 103096, Note_off_c, 1, 43, 100
3, 103104, Note_on_c, 1, 46, 80
3, 103288, Note_off_c, 1, 46, 100
3, 103296, Note_on_c, 1, 58, 80
3, 103480, Note_off_c, 1, 58, 100
3, 103488, Note_on_c, 1, 46, 80
3, 103672, Note_off_c, 1, 46, 100
3, 103680, Note_on_c, 1, 43, 80
3, 103864, Note_off_c, 1, 43, 100
3, 103872, Note_on_c, 1, 46, 80
3, 104056, Note_off_c, 1, 46, 100
3, 104064, Note_on_c, 1, 58, 80
3, 104248, Note_off_c, 1, 58, 100
3, 104256, Note_on_c, 1, 46, 80
3, 104440, Note_off_c, 1, 46, 100
3, 104448, Note_on_c, 1, 44, 80
3, 104632, Note_off_c, 1, 44, 100
3, 104640, Note_on_c, 1, 46, 80
3, 104824, Note_off_c, 1, 46, 100
3, 104832, Note_on_c, 1, 56, 80
3, 105016, Note_off_c, 1, 56, 100
3, 105024, Note_on_c, 1, 46, 80
3, 105208, Note_off_c, 1, 46, 100
3, 105216, Note_on_c, 1, 34, 80
3, 105400, Note_off_c, 1, 34, 100
3, 105408, Note_on_c, 1, 46, 80
3, 105592, Note_off_c, 1, 46, 100
3, 105600, Note_on_c, 1, 53, 80
3, 105784, Note_off_c, 1, 53, 100
3, 105792, Note_on_c, 1, 46, 80
3, 105976, Note_off_c, 1, 46, 100
3, 105984, Note_on_c, 1, 39, 80
3, 106168, Note_off_c, 1, 39, 100
3, 106176, Note_on_c, 1, 46, 82
3, 106360, Note_off_c, 1, 46, 100
3, 106368, Note_on_c, 1, 55, 84
3, 106552, Note_off_c, 1, 55, 100
3, 106560, Note_on_c, 1, 46, 86
3, 106744, Note_off_c, 1, 46, 100
3, 106752, Note_on_c, 1, 39, 88
3, 106936, Note_off_c, 1, 39, 100
3, 106944, Note_on_c, 1, 46, 91
3, 107128, Note_off_c, 1, 46, 100
3, 107136, Note_on_c, 1, 55, 93
3, 107320, Note_off_c, 1, 55, 100
3, 107328, Note_on_c, 1, 46, 95
3, 107512, Note_off_c, 1, 46, 100
3, 107520, Note_on_c, 1, 41, 97
3, 107704, Note_off_c, 1, 41, 100
3, 107712, Note_on_c, 1, 46, 99
3, 107896, Note_off_c, 1, 46, 100
3, 107904, Note_on_c, 1, 56, 102
3, 108088, Note_off_c, 1, 56, 100
3, 108096, Note_on_c, 1, 46, 104
3, 108280, Note_off_c, 1, 46, 100
3, 108288, Note_on_c, 1, 41, 106
3, 108472, Note_off_c, 1, 41, 100
3, 108480, Note_on_c, 1, 46, 108
3, 108664, Note_off_c, 1, 46, 100
3, 108672, Note_on_c, 1, 56, 110
3, 108856, Note_off_c, 1, 56, 100
3, 108864, Note_on_c, 1, 46, 102
3, 109048, Note_off_c, 1, 46, 100
3, 109056, Note_on_c, 1, 43, 91
3, 109240, Note_off_c, 1, 43, 100
3, 109248, Note_on_c, 1, 51, 80
3, 109432, Note_off_c, 1, 51, 100
3, 109440, Note_on_c, 1, 58, 80
3, 109624, Note_off_c, 1, 58, 100
3, 109632, Note_on_c, 1, 51, 80
3, 109816, Note_off_c, 1, 51, 100
3, 109824, Note_on_c, 1, 43, 80
3, 110008, Note_off_c, 1, 43, 100
3, 110016, Note_on_c, 1, 51, 80
3, 110200, Note_off_c, 1, 51, 100
3, 110208, Note_on_c, 1, 58, 80
3, 110392, Note_off_c, 1, 58, 100
3, 110400, Note_on_c, 1, 51, 80
3, 110584, Note_off_c, 1, 51, 100
3, 110592, Note_on_c, 1, 44, 80
3, 110776, Note_off_c, 1, 44, 100
3, 110784, Note_on_c, 1, 51, 80
3, 110968, Note_off_c, 1, 51, 100
3, 110976, Note_on_c, 1, 60, 80
3, 111160, Note_off_c, 1, 60, 100
3, 111168, Note_on_c, 1, 51, 80
3, 111352, Note_off_c, 1, 51, 100
3, 111360, Note_on_c, 1, 45, 80
3, 111544, Note_off_c, 1, 45, 100
3, 111552, Note_on_c, 1, 53, 80
3, 111736, Note_off_c, 1, 53, 100
3, 111744, Note_on_c, 1, 60, 80
3, 111928, Note_off_c, 1, 60, 100
3, 111936, Note_on_c, 1, 55, 80
3, 112120, Note_off_c, 1, 55, 100
3, 112128, Note_on_c, 1, 58, 80
3, 112128, Note_on_c, 1, 46, 80
3, 112504, Note_off_c, 1, 58, 100
3, 112504, Note_off_c, 1, 46, 100
3, 112512, Note_on_c, 1, 63, 80
3, 112696, Note_off_c, 1, 63, 100
3, 112704, Note_on_c, 1, 62, 80
3, 112888, Note_off_c, 1, 62, 100
3, 112896, Note_on_c, 1, 60, 80
3, 113080, Note_off_c, 1, 60, 100
3, 113088, Note_on_c, 1, 58, 80
3, 113272, Note_off_c, 1, 58, 100
3, 113280, Note_on_c, 1, 56, 80
3, 113464, Note_off_c, 1, 56, 100
3, 113472, Note_on_c, 1, 56, 80
3, 113656, Note_off_c, 1, 56, 100
3, 113664, Note_on_c, 1, 55, 80
3, 113848, Note_off_c, 1, 55, 100
3, 113856, Note_on_c, 1, 53, 80
3, 114040, Note_off_c, 1, 53, 100
3, 114048, Note_on_c, 1, 51, 80
3, 114232, Note_off_c, 1, 51, 100
3, 114240, Note_on_c, 1, 50, 80
3, 114424, Note_off_c, 1, 50, 100
3, 114432, Note_on_c, 1, 51, 80
3, 114616, Note_off_c, 1, 51, 100
3, 114624, Note_on_c, 1, 53, 80
3, 114808, Note_off_c, 1, 53, 100
3, 114816, Note_on_c, 1, 55, 80
3, 115000, Note_off_c, 1, 55, 100
3, 115008, Note_on_c, 1, 56, 80
3, 115192, Note_off_c, 1, 56, 100
3, 115200, Note_on_c, 1, 58, 80
3, 115576, Note_off_c, 1, 58, 100
3, 115584, Note_on_c, 1, 60, 80
3, 115768, Note_off_c, 1, 60, 100
3, 115776, Note_on_c, 1, 62, 80
3, 115960, Note_off_c, 1, 62, 100
3, 115968, Note_on_c, 1, 63, 80
3, 116152, Note_off_c, 1, 63, 100
3, 116160, Note_on_c, 1, 65, 80
3, 116344, Note_off_c, 1, 65, 100
3, 116352, Note_on_c, 1, 67, 80
3, 116536, Note_off_c, 1, 67, 100
3, 116544, Note_on_c, 1, 68, 80
3, 116728, Note_off_c, 1, 68, 100
3, 116736, Note_on_c, 1, 70, 80
3, 117112, Note_off_c, 1, 70, 100
3, 117120, Note_on_c, 1, 68, 80
3, 117304, Note_off_c, 1, 68, 100
3, 117312, Note_on_c, 1, 67, 80
3, 117496, Note_off_c, 1, 67, 100
3, 117504, Note_on_c, 1, 65, 80
3, 117688, Note_off_c, 1, 65, 100
3, 117696, Note_on_c, 1, 63, 80
3, 117880, Note_off_c, 1, 63, 100
3, 117888, Note_on_c, 1, 62, 83
3, 118072, Note_off_c, 1, 62, 100
3, 118080, Note_on_c, 1, 60, 86
3, 118264, Note_off_c, 1, 60, 100
3, 118272, Note_on_c, 1, 59, 89
3, 118456, Note_off_c, 1, 59, 100
3, 118464, Note_on_c, 1, 57, 92
3, 118648, Note_off_c, 1, 57, 100
3, 118656, Note_on_c, 1, 55, 95
3, 118840, Note_off_c, 1, 55, 100
3, 118848, Note_on_c, 1, 53, 98
3, 119032, Note_off_c, 1, 53, 100
3, 119040, Note_on_c, 1, 51, 101
3, 119224, Note_off_c, 1, 51, 100
3, 119232, Note_on_c, 1, 50, 104
3, 119416, Note_off_c, 1, 50, 100
3, 119424, Note_on_c, 1, 48, 107
3, 119608, Note_off_c, 1, 48, 100
3, 119616, Note_on_c, 1, 48, 110
3, 119616, Note_on_c, 1, 47, 110
3, 119800, Note_off_c, 1, 48, 100
3, 119800, Note_off_c, 1, 47, 100
3, 119808, Note_on_c, 1, 48, 110
3, 119808, Note_on_c, 1, 46, 110
3, 120184, Note_off_c, 1, 48, 100
3, 120184, Note_off_c, 1, 46, 100
3, 120576, Note_on_c, 1, 48, 110
3, 120576, Note_on_c, 1, 45, 110
3, 120952, Note_off_c, 1, 48, 100
3, 120952, Note_off_c, 1, 45, 100
3, 121344, Note_on_c, 1, 48, 110
3, 121344, Note_on_c, 1, 42, 110
3, 122488, Note_off_c, 1, 42, 100
3, 122496, Note_on_c, 1, 41, 110
3, 122872, Note_off_c, 1, 41, 100
3, 122880, Note_on_c, 1, 39, 110
3, 124408, Note_off_c, 1, 48, 100
3, 124408, Note_off_c, 1, 39, 100
3, 124416, Note_on_c, 1, 48, 110
3, 124416, Note_on_c, 1, 42, 110
3, 125560, Note_off_c, 1, 42, 100
3, 125568, Note_on_c, 1, 41, 110
3, 125944, Note_off_c, 1, 41, 100
3, 125952, Note_on_c, 1, 40, 110
3, 127480, Note_off_c, 1, 48, 100
3, 127480, Note_off_c, 1, 40, 100
3, 127488, Note_on_c, 1, 48, 80
3, 127488, Note_on_c, 1, 41, 80
3, 127864, Note_off_c, 1, 48, 100
3, 127864, Note_off_c, 1, 41, 100
3, 129024, Note_on_c, 1, 50, 80
3, 129024, Note_on_c, 1, 41, 80
3, 129400, Note_off_c, 1, 50, 100
3, 129400, Note_off_c, 1, 41, 100
3, 130560, Note_on_c, 1, 51, 80
3, 130560, Note_on_c, 1, 41, 80
3, 130936, Note_off_c, 1, 51, 100
3, 130936, Note_off_c, 1, 41, 100
3, 131328, Note_on_c, 1, 50, 80
3, 131328, Note_on_c, 1, 41, 80
3, 131704, Note_off_c, 1, 50, 100
3, 131704, Note_off_c, 1, 41, 100
3, 132096, Note_on_c, 1, 48, 80
3, 132096, Note_on_c, 1, 41, 80
3, 132472, Note_off_c, 1, 48, 100
3, 132472, Note_off_c, 1, 41, 100
3, 132864, Note_on_c, 1, 50, 80
3, 132864, Note_on_c, 1, 41, 80
3, 133240, Note_off_c, 1, 50, 100
3, 133240, Note_off_c, 1, 41, 100
3, 133632, Note_on_c, 1, 48, 80
3, 133632, Note_on_c, 1, 41, 80
3, 134008, Note_off_c, 1, 48, 100
3, 134008, Note_off_c, 1, 41, 100
3, 135168, Note_on_c, 1, 50, 80
3, 135168, Note_on_c, 1, 41, 80
3, 135544, Note_off_c, 1, 50, 100
3, 135544, Note_off_c, 1, 41, 100
3, 136704, Note_on_c, 1, 51, 80
3, 136704, Note_on_c, 1, 41, 80
3, 137080, Note_off_c, 1, 51, 100
3, 137080, Note_off_c, 1, 41, 100
3, 137472, Note_on_c, 1, 50, 80
3, 137472, Note_on_c, 1, 41, 80
3, 137848, Note_off_c, 1, 50, 100
3, 137848, Note_off_c, 1, 41, 100
3, 138240, Note_on_c, 1, 51, 80
3, 138240, Note_on_c, 1, 41, 80
3, 138616, Note_off_c, 1, 51, 100
3, 138616, Note_off_c, 1, 41, 100
3, 139008, Note_on_c, 1, 53, 80
3, 139384, Note_off_c, 1, 53, 100
3, 139392, Note_on_c, 1, 55, 80
3, 139576, Note_off_c, 1, 55, 100
3, 139584, Note_on_c, 1, 57, 80
3, 139768, Note_off_c, 1, 57, 100
3, 139776, Note_on_c, 1, 58, 80
3, 139960, Note_off_c, 1, 58, 100
3, 139968, Note_on_c, 1, 60, 80
3, 140152, Note_off_c, 1, 60, 100
3, 140160, Note_on_c, 1, 62, 80
3, 140344, Note_off_c, 1, 62, 100
3, 140352, Note_on_c, 1, 63, 80
3, 140536, Note_off_c, 1, 63, 100
3, 140544, Note_on_c, 1, 65, 80
3, 140920, Note_off_c, 1, 65, 100
3, 140928, Note_on_c, 1, 67, 80
3, 141112, Note_off_c, 1, 67, 100
3, 141120, Note_on_c, 1, 68, 80
3, 141304, Note_off_c, 1, 68, 100
3, 141312, Note_on_c, 1, 70, 80
3, 141496, Note_off_c, 1, 70, 100
3, 141504, Note_on_c, 1, 72, 80
3, 141688, Note_off_c, 1, 72, 100
3, 141696, Note_on_c, 1, 74, 80
3, 141880, Note_off_c, 1, 74, 100
3, 141888, Note_on_c, 1, 75, 80
3, 142072, Note_off_c, 1, 75, 100
3, 142080, Note_on_c, 1, 77, 80
3, 142456, Note_off_c, 1, 77, 100
3, 142464, Note_on_c, 1, 75, 80
3, 142840, Note_off_c, 1, 75, 100
3, 142848, Note_on_c, 1, 74, 80
3, 143224, Note_off_c, 1, 74, 100
3, 143232, Note_on_c, 1, 73, 80
3, 143608, Note_off_c, 1, 73, 100
3, 143616, Note_on_c, 1, 72, 80
3, 143992, Note_off_c, 1, 72, 100
3, 144000, Note_on_c, 1, 65, 80
3, 144376, Note_off_c, 1, 65, 100
3, 144384, Note_on_c, 1, 58, 80
3, 144768, Note_on_c, 1, 64, 80
3, 144768, Note_on_c, 1, 61, 80
3, 145528, Note_off_c, 1, 64, 100
3, 145528, Note_off_c, 1, 61, 100
3, 145536, Note_on_c, 1, 65, 80
3, 145536, Note_on_c, 1, 62, 80
3, 145912, Note_off_c, 1, 58, 100
3, 145912, Note_off_c, 1, 65, 100
3, 145912, Note_off_c, 1, 62, 100
3, 145920, Note_on_c, 1, 58, 80
3, 146304, Note_on_c, 1, 69, 80
3, 146304, Note_on_c, 1, 66, 80
3, 147064, Note_off_c, 1, 66, 100
3, 147072, Note_on_c, 1, 65, 80
3, 147448, Note_off_c, 1, 58, 100
3, 147448, Note_off_c, 1, 69, 100
3, 147448, Note_off_c, 1, 65, 100
3, 147456, Note_on_c, 1, 58, 80
3, 147840, Note_on_c, 1, 65, 80
3, 147840, Note_on_c, 1, 62, 80
3, 148216, Note_off_c, 1, 65, 100
3, 148216, Note_off_c, 1, 62, 100
3, 148224, Note_on_c, 1, 63, 80
3, 148224, Note_on_c, 1, 67, 80
3, 148600, Note_off_c, 1, 63, 100
3, 148600, Note_off_c, 1, 67, 100
3, 148608, Note_on_c, 1, 65, 80
3, 148608, Note_on_c, 1, 62, 80
3, 148984, Note_off_c, 1, 58, 100
3, 148984, Note_off_c, 1, 65, 100
3, 148984, Note_off_c, 1, 62, 100
3, 148992, Note_on_c, 1, 53, 80
3, 148992, Note_on_c, 1, 62, 80
3, 149368, Note_off_c, 1, 62, 100
3, 149376, Note_on_c, 1, 60, 80
3, 149376, Note_on_c, 1, 63, 80
3, 149752, Note_off_c, 1, 60, 100
3, 149752, Note_off_c, 1, 63, 100
3, 149760, Note_on_c, 1, 58, 80
3, 149760, Note_on_c, 1, 62, 80
3, 150136, Note_off_c, 1, 58, 100
3, 150136, Note_off_c, 1, 62, 100
3, 150144, Note_on_c, 1, 57, 80
3, 150144, Note_on_c, 1, 60, 80
3, 150520, Note_off_c, 1, 53, 100
3, 150520, Note_off_c, 1, 57, 100
3, 150520, Note_off_c, 1, 60, 100
3, 150528, Note_on_c, 1, 46, 80
3, 150912, Note_on_c, 1, 52, 80
3, 150912, Note_on_c, 1, 49, 80
3, 151672, Note_off_c, 1, 52, 100
3, 151672, Note_off_c, 1, 49, 100
3, 151680, Note_on_c, 1, 53, 80
3, 151680, Note_on_c, 1, 50, 80
3, 152056, Note_off_c, 1, 46, 100
3, 152056, Note_off_c, 1, 53, 100
3, 152056, Note_off_c, 1, 50, 100
3, 152064, Note_on_c, 1, 46, 80
3, 152448, Note_on_c, 1, 57, 80
3, 152448, Note_on_c, 1, 54, 80
3, 153208, Note_off_c, 1, 54, 100
3, 153216, Note_on_c, 1, 53, 80
3, 153592, Note_off_c, 1, 46, 100
3, 153592, Note_off_c, 1, 57, 100
3, 153592, Note_off_c, 1, 53, 100
3, 153600, Note_on_c, 1, 46, 80
3, 153984, Note_on_c, 1, 53, 80
3, 153984, Note_on_c, 1, 50, 80
3, 154360, Note_off_c, 1, 53, 100
3, 154360, Note_off_c, 1, 50, 100
3, 154368, Note_on_c, 1, 51, 80
3, 154368, Note_on_c, 1, 55, 80
3, 154744, Note_off_c, 1, 51, 100
3, 154744, Note_off_c, 1, 55, 100
3, 154752, Note_on_c, 1, 53, 80
3, 154752, Note_on_c, 1, 50, 80
3, 155128, Note_off_c, 1, 46, 100
3, 155128, Note_off_c, 1, 53, 100
3, 155128, Note_off_c, 1, 50, 100
3, 155136, Note_on_c, 1, 41, 80
3, 155136, Note_on_c, 1, 50, 80
3, 155512, Note_off_c, 1, 50, 100
3, 155520, Note_on_c, 1, 48, 80
3, 155520, Note_on_c, 1, 51, 80
3, 155896, Note_off_c, 1, 48, 100
3, 155896, Note_off_c, 1, 51, 100
3, 155904, Note_on_c, 1, 46, 80
3, 155904, Note_on_c, 1, 50, 80
3, 156280, Note_off_c, 1, 46, 100
3, 156280, Note_off_c, 1, 50, 100
3, 156288, Note_on_c, 1, 45, 80
3, 156288, Note_on_c, 1, 48, 80
3, 156664, Note_off_c, 1, 41, 100
3, 156664, Note_off_c, 1, 45, 100
3, 156664, Note_off_c, 1, 48, 100
3, 156672, Note_on_c, 1, 46, 80
3, 156672, Note_on_c, 1, 34, 80
3, 157240, Note_off_c, 1, 46, 100
3, 157240, Note_off_c, 1, 34, 100
3, 157248, Note_on_c, 1, 42, 80
3, 157432, Note_off_c, 1, 42, 100
3, 157440, Note_on_c, 1, 41, 80
3, 157816, Note_off_c, 1, 41, 100
3, 157824, Note_on_c, 1, 34, 80
3, 158200, Note_off_c, 1, 34, 100
3, 158208, Note_on_c, 1, 29, 80
3, 158584, Note_off_c, 1, 29, 100
3, 158592, Note_on_c, 1, 51, 80
3, 158776, Note_off_c, 1, 51, 100
3, 158784, Note_on_c, 1, 50, 80
3, 158968, Note_off_c, 1, 50, 100
3, 158976, Note_on_c, 1, 48, 80
3, 159160, Note_off_c, 1, 48, 100
3, 159168, Note_on_c, 1, 46, 80
3, 159352, Note_off_c, 1, 46, 100
3, 159360, Note_on_c, 1, 45, 80
3, 159360, Note_on_c, 1, 41, 80
3, 159544, Note_off_c, 1, 45, 100
3, 159544, Note_off_c, 1, 41, 100
3, 159552, Note_on_c, 1, 53, 80
3, 159736, Note_off_c, 1, 53, 100
3, 159744, Note_on_c, 1, 46, 80
3, 160312, Note_off_c, 1, 46, 100
3, 160320, Note_on_c, 1, 54, 80
3, 160504, Note_off_c, 1, 54, 100
3, 160512, Note_on_c, 1, 53, 80
3, 160888, Note_off_c, 1, 53, 100
3, 160896, Note_on_c, 1, 46, 80
3, 161272, Note_off_c, 1, 46, 100
3, 161280, Note_on_c, 1, 41, 80
3, 161656, Note_off_c, 1, 41, 100
3, 161664, Note_on_c, 1, 63, 80
3, 161848, Note_off_c, 1, 63, 100
3, 161856, Note_on_c, 1, 62, 80
3, 162040, Note_off_c, 1, 62, 100
3, 162048, Note_on_c, 1, 60, 80
3, 162232, Note_off_c, 1, 60, 100
3, 162240, Note_on_c, 1, 58, 80
3, 162424, Note_off_c, 1, 58, 100
3, 162432, Note_on_c, 1, 57, 80
3, 162432, Note_on_c, 1, 53, 80
3, 162616, Note_off_c, 1, 57, 100
3, 162616, Note_off_c, 1, 53, 100
3, 162624, Note_on_c, 1, 65, 80
3, 162808, Note_off_c, 1, 65, 100
3, 162816, Note_on_c, 1, 62, 80
3, 162816, Note_on_c, 1, 58, 80
3, 163384, Note_off_c, 1, 62, 100
3, 163384, Note_off_c, 1, 58, 100
3, 163392, Note_on_c, 1, 60, 80
3, 163576, Note_off_c, 1, 60, 100
3, 163584, Note_on_c, 1, 58, 80
3, 164152, Note_off_c, 1, 58, 100
3, 164160, Note_on_c, 1, 55, 80
3, 164344, Note_off_c, 1, 55, 100
3, 164352, Note_on_c, 1, 53, 80
3, 164920, Note_off_c, 1, 53, 100
3, 164928, Note_on_c, 1, 51, 80
3, 165112, Note_off_c, 1, 51, 100
3, 165120, Note_on_c, 1, 50, 80
3, 165688, Note_off_c, 1, 50, 100
3, 165696, Note_on_c, 1, 48, 80
3, 165880, Note_off_c, 1, 48, 100
3, 165888, Note_on_c, 1, 46, 80
3, 166456, Note_off_c, 1, 46, 100
3, 166464, Note_on_c, 1, 43, 80
3, 166648, Note_off_c, 1, 43, 100
3, 166656, Note_on_c, 1, 41, 80
3, 167224, Note_off_c, 1, 41, 100
3, 167232, Note_on_c, 1, 39, 80
3, 167416, Note_off_c, 1, 39, 100
3, 167424, Note_on_c, 1, 38, 80
3, 167992, Note_off_c, 1, 38, 100
3, 168000, Note_on_c, 1, 36, 80
3, 168184, Note_off_c, 1, 36, 100
3, 168192, Note_on_c, 1, 34, 80
3, 168760, Note_off_c, 1, 34, 100
3, 168768, Note_on_c, 1, 65, 80
3, 168768, Note_on_c, 1, 68, 80
3, 168952, Note_off_c, 1, 65, 100
3, 168952, Note_off_c, 1, 68, 100
3, 168960, Note_on_c, 1, 68, 80
3, 168960, Note_on_c, 1, 65, 80
3, 170488, Note_off_c, 1, 68, 100
3, 170488, Note_off_c, 1, 65, 100
3, 170496, Note_on_c, 1, 67, 80
3, 170496, Note_on_c, 1, 63, 80
3, 172024, Note_off_c, 1, 67, 100
3, 172024, Note_off_c, 1, 63, 100
3, 172032, Note_on_c, 1, 65, 80
3, 172032, Note_on_c, 1, 62, 80
3, 173560, Note_off_c, 1, 65, 100
3, 173560, Note_off_c, 1, 62, 100
3, 173568, Note_on_c, 1, 63, 80
3, 173568, Note_on_c, 1, 60, 80
3, 175096, Note_off_c, 1, 63, 100
3, 175096, Note_off_c, 1, 60, 100
3, 175104, Note_on_c, 1, 59, 110
3, 175104, Note_on_c, 1, 62, 110
3, 176248, Note_off_c, 1, 59, 100
3, 176248, Note_off_c, 1, 62, 100
3, 176256, Note_on_c, 1, 62, 110
3, 176256, Note_on_c, 1, 58, 110
3, 176632, Note_off_c, 1, 62, 100
3, 176632, Note_off_c, 1, 58, 100
3, 176640, Note_on_c, 1, 60, 110
3, 176640, Note_on_c, 1, 57, 110
3, 177016, Note_off_c, 1, 60, 100
3, 177016, Note_off_c, 1, 57, 100
3, 177408, Note_on_c, 1, 60, 110
3, 177408, Note_on_c, 1, 56, 110
3, 177784, Note_off_c, 1, 60, 100
3, 177784, Note_off_c, 1, 56, 100
3, 178176, Note_on_c, 1, 60, 110
3, 178176, Note_on_c, 1, 55, 110
3, 178552, Note_off_c, 1, 60, 100
3, 178552, Note_off_c, 1, 55, 100
3, 178560, Note_on_c, 1, 60, 110
3, 178560, Note_on_c, 1, 54, 110
3, 178936, Note_off_c, 1, 60, 100
3, 178936, Note_off_c, 1, 54, 100
3, 178944, Note_on_c, 1, 59, 110
3, 178944, Note_on_c, 1, 53, 110
3, 178944, Note_on_c, 1, 55, 110
3, 179320, Note_off_c, 1, 59, 100
3, 179320, Note_off_c, 1, 53, 100
3, 179320, Note_off_c, 1, 55, 100
3, 179328, Note_on_c, 1, 60, 110
3, 179328, Note_on_c, 1, 55, 110
3, 179328, Note_on_c, 1, 51, 110
3, 179704, Note_off_c, 1, 60, 100
3, 179704, Note_off_c, 1, 55, 100
3, 179704, Note_off_c, 1, 51, 100
3, 183168, Note_on_c, 1, 48, 80
3, 183352, Note_off_c, 1, 48, 100
3, 183360, Note_on_c, 1, 54, 80
3, 183544, Note_off_c, 1, 54, 100
3, 183552, Note_on_c, 1, 54, 80
3, 183928, Note_off_c, 1, 54, 100
3, 183936, Note_on_c, 1, 45, 80
3, 184120, Note_off_c, 1, 45, 100
3, 184128, Note_on_c, 1, 51, 80
3, 184312, Note_off_c, 1, 51, 100
3, 184320, Note_on_c, 1, 51, 80
3, 184696, Note_off_c, 1, 51, 100
3, 184704, Note_on_c, 1, 41, 80
3, 184888, Note_off_c, 1, 41, 100
3, 184896, Note_on_c, 1, 48, 80
3, 185080, Note_off_c, 1, 48, 100
3, 185088, Note_on_c, 1, 48, 80
3, 185464, Note_off_c, 1, 48, 100
3, 185472, Note_on_c, 1, 49, 80
3, 185848, Note_off_c, 1, 49, 100
3, 189312, Note_on_c, 1, 62, 80
3, 189496, Note_off_c, 1, 62, 100
3, 189504, Note_on_c, 1, 69, 80
3, 189688, Note_off_c, 1, 69, 100
3, 189696, Note_on_c, 1, 69, 80
3, 190072, Note_off_c, 1, 69, 100
3, 190080, Note_on_c, 1, 54, 80
3, 190264, Note_off_c, 1, 54, 100
3, 190272, Note_on_c, 1, 60, 80
3, 190456, Note_off_c, 1, 60, 100
3, 190464, Note_on_c, 1, 60, 80
3, 190840, Note_off_c, 1, 60, 100
3, 190848, Note_on_c, 1, 50, 80
3, 191032, Note_off_c, 1, 50, 100
3, 191040, Note_on_c, 1, 57, 80
3, 191224, Note_off_c, 1, 57, 100
3, 191232, Note_on_c, 1, 57, 80
3, 191608, Note_off_c, 1, 57, 100
3, 191616, Note_on_c, 1, 38, 80
3, 191800, Note_off_c, 1, 38, 100
3, 191808, Note_on_c, 1, 50, 80
3, 191992, Note_off_c, 1, 50, 100
3, 195456, Note_on_c, 1, 54, 80
3, 195640, Note_off_c, 1, 54, 100
3, 195648, Note_on_c, 1, 63, 80
3, 195832, Note_off_c, 1, 63, 100
3, 195840, Note_on_c, 1, 63, 80
3, 196216, Note_off_c, 1, 63, 100
3, 196224, Note_on_c, 1, 51, 80
3, 196408, Note_off_c, 1, 51, 100
3, 196416, Note_on_c, 1, 59, 80
3, 196600, Note_off_c, 1, 59, 100
3, 196608, Note_on_c, 1, 59, 80
3, 196984, Note_off_c, 1, 59, 100
3, 196992, Note_on_c, 1, 47, 80
3, 197176, Note_off_c, 1, 47, 100
3, 197184, Note_on_c, 1, 54, 80
3, 197368, Note_off_c, 1, 54, 100
3, 197376, Note_on_c, 1, 54, 80
3, 197752, Note_off_c, 1, 54, 100
3, 197760, Note_on_c, 1, 42, 80
3, 197944, Note_off_c, 1, 42, 100
3, 197952, Note_on_c, 1, 51, 80
3, 198136, Note_off_c, 1, 51, 100
3, 201600, Note_on_c, 1, 56, 80
3, 201784, Note_off_c, 1, 56, 100
3, 201792, Note_on_c, 1, 65, 80
3, 201976, Note_off_c, 1, 65, 100
3, 201984, Note_on_c, 1, 65, 80
3, 202360, Note_off_c, 1, 65, 100
3, 202368, Note_on_c, 1, 53, 80
3, 202552, Note_off_c, 1, 53, 100
3, 202560, Note_on_c, 1, 62, 80
3, 202744, Note_off_c, 1, 62, 100
3, 202752, Note_on_c, 1, 62, 80
3, 203128, Note_off_c, 1, 62, 100
3, 203136, Note_on_c, 1, 53, 80
3, 203136, Note_on_c, 1, 50, 80
3, 203320, Note_off_c, 1, 53, 100
3, 203320, Note_off_c, 1, 50, 100
3, 203328, Note_on_c, 1, 56, 80
3, 203328, Note_on_c, 1, 53, 80
3, 203512, Note_off_c, 1, 56, 100
3, 203512, Note_off_c, 1, 53, 100
3, 203520, Note_on_c, 1, 56, 80
3, 203520, Note_on_c, 1, 53, 80
3, 203896, Note_off_c, 1, 56, 100
3, 203896, Note_off_c, 1, 53, 100
3, 203904, Note_on_c, 1, 53, 80
3, 203904, Note_on_c, 1, 50, 80
3, 204088, Note_off_c, 1, 53, 100
3, 204088, Note_off_c, 1, 50, 100
3, 204096, Note_on_c, 1, 56, 80
3, 204096, Note_on_c, 1, 53, 80
3, 204280, Note_off_c, 1, 56, 100
3, 204280, Note_off_c, 1, 53, 100
3, 204672, Note_on_c, 1, 56, 80
3, 204856, Note_off_c, 1, 56, 100
3, 204864, Note_on_c, 1, 65, 80
3, 205048, Note_off_c, 1, 65, 100
3, 205056, Note_on_c, 1, 65, 80
3, 205432, Note_off_c, 1, 65, 100
3, 205440, Note_on_c, 1, 53, 80
3, 205624, Note_off_c, 1, 53, 100
3, 205632, Note_on_c, 1, 62, 80
3, 205816, Note_off_c, 1, 62, 100
3, 205824, Note_on_c, 1, 62, 80
3, 206200, Note_off_c, 1, 62, 100
3, 206208, Note_on_c, 1, 74, 80
3, 206584, Note_off_c, 1, 74, 100
3, 206592, Note_on_c, 1, 75, 95
3, 206968, Note_off_c, 1, 75, 100
3, 206976, Note_on_c, 1, 74, 110
3, 207352, Note_off_c, 1, 74, 100
3, 207360, Note_on_c, 1, 70, 110
3, 207360, Note_on_c, 1, 67, 110
3, 207360, Note_on_c, 1, 61, 110
3, 208504, Note_off_c, 1, 70, 100
3, 208504, Note_off_c, 1, 67, 100
3, 208504, Note_off_c, 1, 61, 100
3, 208512, Note_on_c, 1, 68, 110
3, 208512, Note_on_c, 1, 65, 110
3, 208512, Note_on_c, 1, 59, 110
3, 208888, Note_off_c, 1, 68, 100
3, 208888, Note_off_c, 1, 65, 100
3, 208888, Note_off_c, 1, 59, 100
3, 208896, Note_on_c, 1, 66, 110
3, 208896, Note_on_c, 1, 61, 110
3, 208896, Note_on_c, 1, 58, 110
3, 209272, Note_off_c, 1, 66, 100
3, 209272, Note_off_c, 1, 61, 100
3, 209272, Note_off_c, 1, 58, 100
3, 209280, Note_on_c, 1, 61, 110
3, 209280, Note_on_c, 1, 56, 110
3, 209656, Note_off_c, 1, 61, 100
3, 209656, Note_off_c, 1, 56, 100
3, 209664, Note_on_c, 1, 61, 110
3, 209664, Note_on_c, 1, 53, 110
3, 210040, Note_off_c, 1, 61, 100
3, 210040, Note_off_c, 1, 53, 100
3, 210048, Note_on_c, 1, 61, 110
3, 210048, Note_on_c, 1, 54, 110
3, 210424, Note_off_c, 1, 61, 100
3, 210424, Note_off_c, 1, 54, 100
3, 210432, Note_on_c, 1, 63, 80
3, 210432, Note_on_c, 1, 59, 80
3, 210808, Note_off_c, 1, 63, 100
3, 210808, Note_off_c, 1, 59, 100
3, 210816, Note_on_c, 1, 61, 80
3, 210816, Note_on_c, 1, 58, 80
3, 211192, Note_off_c, 1, 61, 100
3, 211192, Note_off_c, 1, 58, 100
3, 211200, Note_on_c, 1, 59, 80
3, 211200, Note_on_c, 1, 56, 80
3, 211576, Note_off_c, 1, 59, 100
3, 211576, Note_off_c, 1, 56, 100
3, 211584, Note_on_c, 1, 58, 80
3, 211584, Note_on_c, 1, 54, 80
3, 211960, Note_off_c, 1, 58, 100
3, 211960, Note_off_c, 1, 54, 100
3, 212352, Note_on_c, 1, 41, 80
3, 212536, Note_off_c, 1, 41, 100
3, 212544, Note_on_c, 1, 49, 80
3, 212728, Note_off_c, 1, 49, 100
3, 212736, Note_on_c, 1, 49, 80
3, 213112, Note_off_c, 1, 49, 100
3, 213120, Note_on_c, 1, 53, 80
3, 213304, Note_off_c, 1, 53, 100
3, 213312, Note_on_c, 1, 61, 80
3, 213496, Note_off_c, 1, 61, 100
3, 213888, Note_on_c, 1, 41, 80
3, 214072, Note_off_c, 1, 41, 100
3, 214080, Note_on_c, 1, 50, 80
3, 214264, Note_off_c, 1, 50, 100
3, 214272, Note_on_c, 1, 50, 80
3, 214648, Note_off_c, 1, 50, 100
3, 214656, Note_on_c, 1, 53, 80
3, 214840, Note_off_c, 1, 53, 100
3, 214848, Note_on_c, 1, 62, 80
3, 215032, Note_off_c, 1, 62, 100
3, 215424, Note_on_c, 1, 39, 79
3, 215608, Note_off_c, 1, 39, 100
3, 215616, Note_on_c, 1, 48, 79
3, 215800, Note_off_c, 1, 48, 100
3, 215808, Note_on_c, 1, 48, 79
3, 216184, Note_off_c, 1, 48, 100
3, 216192, Note_on_c, 1, 51, 79
3, 216376, Note_off_c, 1, 51, 100
3, 216384, Note_on_c, 1, 60, 78
3, 216568, Note_off_c, 1, 60, 100
3, 216960, Note_on_c, 1, 38, 78
3, 217144, Note_off_c, 1, 38, 100
3, 217152, Note_on_c, 1, 47, 78
3, 217336, Note_off_c, 1, 47, 100
3, 217344, Note_on_c, 1, 47, 78
3, 217720, Note_off_c, 1, 47, 100
3, 217728, Note_on_c, 1, 50, 77
3, 217912, Note_off_c, 1, 50, 100
3, 217920, Note_on_c, 1, 59, 77
3, 218104, Note_off_c, 1, 59, 100
3, 218496, Note_on_c, 1, 36, 77
3, 218680, Note_off_c, 1, 36, 100
3, 218688, Note_on_c, 1, 48, 77
3, 218872, Note_off_c, 1, 48, 100
3, 218880, Note_on_c, 1, 48, 77
3, 219256, Note_off_c, 1, 48, 100
3, 219264, Note_on_c, 1, 48, 76
3, 219448, Note_off_c, 1, 48, 100
3, 219456, Note_on_c, 1, 60, 76
3, 219640, Note_off_c, 1, 60, 100
3, 220032, Note_on_c, 1, 36, 76
3, 220216, Note_off_c, 1, 36, 100
3, 220224, Note_on_c, 1, 48, 76
3, 220408, Note_off_c, 1, 48, 100
3, 220416, Note_on_c, 1, 48, 75
3, 220792, Note_off_c, 1, 48, 100
3, 220800, Note_on_c, 1, 48, 75
3, 220984, Note_off_c, 1, 48, 100
3, 220992, Note_on_c, 1, 60, 75
3, 221176, Note_off_c, 1, 60, 100
3, 221568, Note_on_c, 1, 36, 75
3, 221752, Note_off_c, 1, 36, 100
3, 221760, Note_on_c, 1, 48, 74
3, 221944, Note_off_c, 1, 48, 100
3, 221952, Note_on_c, 1, 48, 74
3, 222328, Note_off_c, 1, 48, 100
3, 222336, Note_on_c, 1, 48, 74
3, 222520, Note_off_c, 1, 48, 100
3, 222528, Note_on_c, 1, 60, 74
3, 222712, Note_off_c, 1, 60, 100
3, 223104, Note_on_c, 1, 36, 73
3, 223288, Note_off_c, 1, 36, 100
3, 223296, Note_on_c, 1, 48, 73
3, 223480, Note_off_c, 1, 48, 100
3, 223488, Note_on_c, 1, 48, 73
3, 223864, Note_off_c, 1, 48, 100
3, 223872, Note_on_c, 1, 48, 73
3, 224056, Note_off_c, 1, 48, 100
3, 224064, Note_on_c, 1, 60, 73
3, 224248, Note_off_c, 1, 60, 100
3, 224640, Note_on_c, 1, 36, 72
3, 224824, Note_off_c, 1, 36, 100
3, 224832, Note_on_c, 1, 48, 72
3, 225016, Note_off_c, 1, 48, 100
3, 225024, Note_on_c, 1, 48, 72
3, 225400, Note_off_c, 1, 48, 100
3, 225408, Note_on_c, 1, 48, 72
3, 225592, Note_off_c, 1, 48, 100
3, 225600, Note_on_c, 1, 60, 72
3, 225784, Note_off_c, 1, 60, 100
3, 226176, Note_on_c, 1, 36, 71
3, 226360, Note_off_c, 1, 36, 100
3, 226368, Note_on_c, 1, 48, 71
3, 226552, Note_off_c, 1, 48, 100
3, 226560, Note_on_c, 1, 48, 71
3, 226936, Note_off_c, 1, 48, 100
3, 226944, Note_on_c, 1, 48, 71
3, 227128, Note_off_c, 1, 48, 100
3, 227136, Note_on_c, 1, 60, 71
3, 227320, Note_off_c, 1, 60, 100
3, 227712, Note_on_c, 1, 48, 70
3, 227896, Note_off_c, 1, 48, 100
3, 227904, Note_on_c, 1, 60, 70
3, 228088, Note_off_c, 1, 60, 100
3, 228096, Note_on_c, 1, 48, 70
3, 228280, Note_off_c, 1, 48, 100
3, 228288, Note_on_c, 1, 60, 70
3, 228472, Note_off_c, 1, 60, 100
3, 229248, Note_on_c, 1, 47, 70
3, 229432, Note_off_c, 1, 47, 100
3, 229440, Note_on_c, 1, 59, 70
3, 229624, Note_off_c, 1, 59, 100
3, 229632, Note_on_c, 1, 47, 70
3, 229816, Note_off_c, 1, 47, 100
3, 229824, Note_on_c, 1, 59, 70
3, 230008, Note_off_c, 1, 59, 100
3, 230784, Note_on_c, 1, 48, 70
3, 230968, Note_off_c, 1, 48, 100
3, 230976, Note_on_c, 1, 60, 70
3, 231160, Note_off_c, 1, 60, 100
3, 231168, Note_on_c, 1, 48, 70
3, 231352, Note_off_c, 1, 48, 100
3, 231360, Note_on_c, 1, 60, 70
3, 231544, Note_off_c, 1, 60, 100
3, 232320, Note_on_c, 1, 48, 70
3, 232504, Note_off_c, 1, 48, 100
3, 232512, Note_on_c, 1, 60, 70
3, 232696, Note_off_c, 1, 60, 100
3, 232704, Note_on_c, 1, 48, 70
3, 232888, Note_off_c, 1, 48, 100
3, 232896, Note_on_c, 1, 60, 70
3, 233080, Note_off_c, 1, 60, 100
3, 233856, Note_on_c, 1, 48, 75
3, 234040, Note_off_c, 1, 48, 100
3, 234048, Note_on_c, 1, 60, 77
3, 234232, Note_off_c, 1, 60, 100
3, 234240, Note_on_c, 1, 48, 80
3, 234424, Note_off_c, 1, 48, 100
3, 234432, Note_on_c, 1, 60, 83
3, 234616, Note_off_c, 1, 60, 100
3, 234624, Note_on_c, 1, 48, 85
3, 234808, Note_off_c, 1, 48, 100
3, 234816, Note_on_c, 1, 60, 88
3, 235000, Note_off_c, 1, 60, 100
3, 235008, Note_on_c, 1, 48, 91
3, 235192, Note_off_c, 1, 48, 100
3, 235200, Note_on_c, 1, 60, 93
3, 235384, Note_off_c, 1, 60, 100
3, 235392, Note_on_c, 1, 60, 96
3, 235576, Note_off_c, 1, 60, 100
3, 235584, Note_on_c, 1, 63, 99
3, 235768, Note_off_c, 1, 63, 100
3, 235776, Note_on_c, 1, 60, 101
3, 235960, Note_off_c, 1, 60, 100
3, 235968, Note_on_c, 1, 63, 104
3, 236152, Note_off_c, 1, 63, 100
3, 236160, Note_on_c, 1, 60, 107
3, 236344, Note_off_c, 1, 60, 100
3, 236352, Note_on_c, 1, 63, 109
3, 236536, Note_off_c, 1, 63, 100
3, 236544, Note_on_c, 1, 63, 110
3, 236544, Note_on_c, 1, 60, 110
3, 237688, Note_off_c, 1, 63, 100
3, 237688, Note_off_c, 1, 60, 100
3, 237696, Note_on_c, 1, 62, 110
3, 237696, Note_on_c, 1, 59, 110
3, 237880, Note_off_c, 1, 62, 100
3, 237880, Note_off_c, 1, 59, 100
3, 237888, Note_on_c, 1, 61, 110
3, 237888, Note_on_c, 1, 58, 110
3, 238072, Note_off_c, 1, 61, 100
3, 238072, Note_off_c, 1, 58, 100
3, 238080, Note_on_c, 1, 61, 110
3, 238080, Note_on_c, 1, 58, 110
3, 238456, Note_off_c, 1, 61, 100
3, 238456, Note_off_c, 1, 58, 100
3, 238464, Note_on_c, 1, 60, 110
3, 238464, Note_on_c, 1, 57, 110
3, 238648, Note_off_c, 1, 60, 100
3, 238648, Note_off_c, 1, 57, 100
3, 238656, Note_on_c, 1, 59, 110
3, 238656, Note_on_c, 1, 56, 110
3, 238840, Note_off_c, 1, 59, 100
3, 238840, Note_off_c, 1, 56, 100
3, 238848, Note_on_c, 1, 59, 110
3, 238848, Note_on_c, 1, 56, 110
3, 239224, Note_off_c, 1, 59, 100
3, 239224, Note_off_c, 1, 56, 100
3, 239232, Note_on_c, 1, 58, 110
3, 239232, Note_on_c, 1, 55, 110
3, 239416, Note_off_c, 1, 58, 100
3, 239416, Note_off_c, 1, 55, 100
3, 239424, Note_on_c, 1, 57, 110
3, 239424, Note_on_c, 1, 54, 110
3, 239608, Note_off_c, 1, 57, 100
3, 239608, Note_off_c, 1, 54, 100
3, 239616, Note_on_c, 1, 56, 110
3, 239616, Note_on_c, 1, 53, 110
3, 240760, Note_off_c, 1, 56, 100
3, 240760, Note_off_c, 1, 53, 100
3, 240768, Note_on_c, 1, 55, 80
3, 240768, Note_on_c, 1, 51, 80
3, 241144, Note_off_c, 1, 55, 100
3, 241144, Note_off_c, 1, 51, 100
3, 241152, Note_on_c, 1, 53, 80
3, 241152, Note_on_c, 1, 50, 80
3, 241528, Note_off_c, 1, 53, 100
3, 241528, Note_off_c, 1, 50, 100
3, 241536, Note_on_c, 1, 51, 80
3, 241536, Note_on_c, 1, 48, 80
3, 241912, Note_off_c, 1, 51, 100
3, 241912, Note_off_c, 1, 48, 100
3, 241920, Note_on_c, 1, 50, 80
3, 241920, Note_on_c, 1, 46, 80
3, 242296, Note_off_c, 1, 50, 100
3, 242296, Note_off_c, 1, 46, 100
3, 242304, Note_on_c, 1, 46, 80
3, 242304, Note_on_c, 1, 50, 80
3, 242304, Note_on_c, 1, 53, 80
3, 242680, Note_off_c, 1, 46, 100
3, 242680, Note_off_c, 1, 50, 100
3, 242680, Note_off_c, 1, 53, 100
3, 242688, Note_on_c, 1, 39, 80
3, 242872, Note_off_c, 1, 39, 100
3, 242880, Note_on_c, 1, 46, 82
3, 243064, Note_off_c, 1, 46, 100
3, 243072, Note_on_c, 1, 55, 84
3, 243256, Note_off_c, 1, 55, 100
3, 243264, Note_on_c, 1, 46, 86
3, 243448, Note_off_c, 1, 46, 100
3, 243456, Note_on_c, 1, 39, 88
3, 243640, Note_off_c, 1, 39, 100
3, 243648, Note_on_c, 1, 46, 91
3, 243832, Note_off_c, 1, 46, 100
3, 243840, Note_on_c, 1, 55, 93
3, 244024, Note_off_c, 1, 55, 100
3, 244032, Note_on_c, 1, 46, 95
3, 244216, Note_off_c, 1, 46, 100
3, 244224, Note_on_c, 1, 41, 97
3, 244408, Note_off_c, 1, 41, 100
3, 244416, Note_on_c, 1, 46, 99
3, 244600, Note_off_c, 1, 46, 100
3, 244608, Note_on_c, 1, 56, 102
3, 244792, Note_off_c, 1, 56, 100
3, 244800, Note_on_c, 1, 46, 104
3, 244984, Note_off_c, 1, 46, 100
3, 244992, Note_on_c, 1, 41, 106
3, 245176, Note_off_c, 1, 41, 100
3, 245184, Note_on_c, 1, 46, 108
3, 245368, Note_off_c, 1, 46, 100
3, 245376, Note_on_c, 1, 56, 110
3, 245560, Note_off_c, 1, 56, 100
3, 245568, Note_on_c, 1, 46, 101
3, 245752, Note_off_c, 1, 46, 100
3, 245760, Note_on_c, 1, 43, 92
3, 245944, Note_off_c, 1, 43, 100
3, 245952, Note_on_c, 1, 46, 80
3, 246136, Note_off_c, 1, 46, 100
3, 246144, Note_on_c, 1, 58, 80
3, 246328, Note_off_c, 1, 58, 100
3, 246336, Note_on_c, 1, 46, 80
3, 246520, Note_off_c, 1, 46, 100
3, 246528, Note_on_c, 1, 43, 80
3, 246712, Note_off_c, 1, 43, 100
3, 246720, Note_on_c, 1, 46, 80
3, 246904, Note_off_c, 1, 46, 100
3, 246912, Note_on_c, 1, 58, 80
3, 247096, Note_off_c, 1, 58, 100
3, 247104, Note_on_c, 1, 46, 80
3, 247288, Note_off_c, 1, 46, 100
3, 247296, Note_on_c, 1, 44, 80
3, 247480, Note_off_c, 1, 44, 100
3, 247488, Note_on_c, 1, 46, 80
3, 247672, Note_off_c, 1, 46, 100
3, 247680, Note_on_c, 1, 56, 80
3, 247864, Note_off_c, 1, 56, 100
3, 247872, Note_on_c, 1, 46, 80
3, 248056, Note_off_c, 1, 46, 100
3, 248064, Note_on_c, 1, 34, 80
3, 248248, Note_off_c, 1, 34, 100
3, 248256, Note_on_c, 1, 46, 80
3, 248440, Note_off_c, 1, 46, 100
3, 248448, Note_on_c, 1, 53, 80
3, 248632, Note_off_c, 1, 53, 100
3, 248640, Note_on_c, 1, 46, 80
3, 248824, Note_off_c, 1, 46, 100
3, 248832, Note_on_c, 1, 39, 80
3, 249016, Note_off_c, 1, 39, 100
3, 249024, Note_on_c, 1, 46, 82
3, 249208, Note_off_c, 1, 46, 100
3, 249216, Note_on_c, 1, 55, 84
3, 249400, Note_off_c, 1, 55, 100
3, 249408, Note_on_c, 1, 46, 86
3, 249592, Note_off_c, 1, 46, 100
3, 249600, Note_on_c, 1, 39, 88
3, 249784, Note_off_c, 1, 39, 100
3, 249792, Note_on_c, 1, 46, 91
3, 249976, Note_off_c, 1, 46, 100
3, 249984, Note_on_c, 1, 55, 93
3, 250168, Note_off_c, 1, 55, 100
3, 250176, Note_on_c, 1, 46, 95
3, 250360, Note_off_c, 1, 46, 100
3, 250368, Note_on_c, 1, 41, 97
3, 250552, Note_off_c, 1, 41, 100
3, 250560, Note_on_c, 1, 46, 99
3, 250744, Note_off_c, 1, 46, 100
3, 250752, Note_on_c, 1, 56, 102
3, 250936, Note_off_c, 1, 56, 100
3, 250944, Note_on_c, 1, 46, 104
3, 251128, Note_off_c, 1, 46, 100
3, 251136, Note_on_c, 1, 41, 106
3, 251320, Note_off_c, 1, 41, 100
3, 251328, Note_on_c, 1, 46, 108
3, 251512, Note_off_c, 1, 46, 100
3, 251520, Note_on_c, 1, 56, 110
3, 251704, Note_off_c, 1, 56, 100
3, 251712, Note_on_c, 1, 46, 100
3, 251896, Note_off_c, 1, 46, 100
3, 251904, Note_on_c, 1, 43, 90
3, 252088, Note_off_c, 1, 43, 100
3, 252096, Note_on_c, 1, 51, 80
3, 252280, Note_off_c, 1, 51, 100
3, 252288, Note_on_c, 1, 58, 80
3, 252472, Note_off_c, 1, 58, 100
3, 252480, Note_on_c, 1, 51, 80
3, 252664, Note_off_c, 1, 51, 100
3, 252672, Note_on_c, 1, 43, 80
3, 252856, Note_off_c, 1, 43, 100
3, 252864, Note_on_c, 1, 51, 80
3, 253048, Note_off_c, 1, 51, 100
3, 253056, Note_on_c, 1, 58, 80
3, 253240, Note_off_c, 1, 58, 100
3, 253248, Note_on_c, 1, 51, 80
3, 253432, Note_off_c, 1, 51, 100
3, 253440, Note_on_c, 1, 44, 80
3, 253624, Note_off_c, 1, 44, 100
3, 253632, Note_on_c, 1, 51, 80
3, 253816, Note_off_c, 1, 51, 100
3, 253824, Note_on_c, 1, 60, 80
3, 254008, Note_off_c, 1, 60, 100
3, 254016, Note_on_c, 1, 51, 80
3, 254200, Note_off_c, 1, 51, 100
3, 254208, Note_on_c, 1, 45, 80
3, 254392, Note_off_c, 1, 45, 100
3, 254400, Note_on_c, 1, 53, 80
3, 254584, Note_off_c, 1, 53, 100
3, 254592, Note_on_c, 1, 60, 80
3, 254776, Note_off_c, 1, 60, 100
3, 254784, Note_on_c, 1, 55, 80
3, 254968, Note_off_c, 1, 55, 100
3, 254976, Note_on_c, 1, 58, 80
3, 254976, Note_on_c, 1, 46, 80
3, 255352, Note_off_c, 1, 58, 100
3, 255352, Note_off_c, 1, 46, 100
3, 255360, Note_on_c, 1, 63, 80
3, 255544, Note_off_c, 1, 63, 100
3, 255552, Note_on_c, 1, 62, 80
3, 255736, Note_off_c, 1, 62, 100
3, 255744, Note_on_c, 1, 60, 80
3, 255928, Note_off_c, 1, 60, 100
3, 255936, Note_on_c, 1, 58, 80
3, 256120, Note_off_c, 1, 58, 100
3, 256128, Note_on_c, 1, 56, 80
3, 256312, Note_off_c, 1, 56, 100
3, 256320, Note_on_c, 1, 56, 80
3, 256504, Note_off_c, 1, 56, 100
3, 256512, Note_on_c, 1, 55, 80
3, 256696, Note_off_c, 1, 55, 100
3, 256704, Note_on_c, 1, 53, 80
3, 256888, Note_off_c, 1, 53, 100
3, 256896, Note_on_c, 1, 51, 80
3, 257080, Note_off_c, 1, 51, 100
3, 257088, Note_on_c, 1, 50, 80
3, 257272, Note_off_c, 1, 50, 100
3, 257280, Note_on_c, 1, 51, 80
3, 257464, Note_off_c, 1, 51, 100
3, 257472, Note_on_c, 1, 53, 80
3, 257656, Note_off_c, 1, 53, 100
3, 257664, Note_on_c, 1, 55, 80
3, 257848, Note_off_c, 1, 55, 100
3, 257856, Note_on_c, 1, 56, 80
3, 258040, Note_off_c, 1, 56, 100
3, 258048, Note_on_c, 1, 58, 80
3, 258424, Note_off_c, 1, 58, 100
3, 258432, Note_on_c, 1, 65, 80
3, 258616, Note_off_c, 1, 65, 100
3, 258624, Note_on_c, 1, 63, 80
3, 258808, Note_off_c, 1, 63, 100
3, 258816, Note_on_c, 1, 62, 80
3, 259000, Note_off_c, 1, 62, 100
3, 259008, Note_on_c, 1, 60, 82
3, 259192, Note_off_c, 1, 60, 100
3, 259200, Note_on_c, 1, 59, 85
3, 259384, Note_off_c, 1, 59, 100
3, 259392, Note_on_c, 1, 57, 88
3, 259576, Note_off_c, 1, 57, 100
3, 259584, Note_on_c, 1, 55, 91
3, 259768, Note_off_c, 1, 55, 100
3, 259776, Note_on_c, 1, 53, 94
3, 259960, Note_off_c, 1, 53, 100
3, 259968, Note_on_c, 1, 51, 96
3, 260152, Note_off_c, 1, 51, 100
3, 260160, Note_on_c, 1, 50, 99
3, 260344, Note_off_c, 1, 50, 100
3, 260352, Note_on_c, 1, 48, 102
3, 260536, Note_off_c, 1, 48, 100
3, 260544, Note_on_c, 1, 46, 105
3, 260728, Note_off_c, 1, 46, 100
3, 260736, Note_on_c, 1, 48, 108
3, 260736, Note_on_c, 1, 45, 108
3, 260920, Note_off_c, 1, 48, 100
3, 260920, Note_off_c, 1, 45, 100
3, 260928, Note_on_c, 1, 48, 110
3, 260928, Note_on_c, 1, 45, 110
3, 261112, Note_off_c, 1, 48, 100
3, 261112, Note_off_c, 1, 45, 100
3, 261120, Note_on_c, 1, 46, 110
3, 261120, Note_on_c, 1, 44, 110
3, 261496, Note_off_c, 1, 46, 100
3, 261496, Note_off_c, 1, 44, 100
3, 261888, Note_on_c, 1, 46, 110
3, 261888, Note_on_c, 1, 43, 110
3, 262264, Note_off_c, 1, 46, 100
3, 262264, Note_off_c, 1, 43, 100
3, 262656, Note_on_c, 1, 47, 110
3, 262656, Note_on_c, 1, 53, 110
3, 263800, Note_off_c, 1, 47, 100
3, 263808, Note_on_c, 1, 46, 110
3, 264184, Note_off_c, 1, 46, 100
3, 264192, Note_on_c, 1, 44, 110
3, 265720, Note_off_c, 1, 53, 100
3, 265720, Note_off_c, 1, 44, 100
3, 265728, Note_on_c, 1, 47, 110
3, 265728, Note_on_c, 1, 53, 110
3, 266872, Note_off_c, 1, 47, 100
3, 266880, Note_on_c, 1, 46, 110
3, 267256, Note_off_c, 1, 46, 100
3, 267264, Note_on_c, 1, 45, 110
3, 268792, Note_off_c, 1, 53, 100
3, 268792, Note_off_c, 1, 45, 100
3, 268800, Note_on_c, 1, 53, 80
3, 268800, Note_on_c, 1, 46, 80
3, 269176, Note_off_c, 1, 53, 100
3, 269176, Note_off_c, 1, 46, 100
3, 270336, Note_on_c, 1, 55, 80
3, 270336, Note_on_c, 1, 46, 80
3, 270712, Note_off_c, 1, 55, 100
3, 270712, Note_off_c, 1, 46, 100
3, 271872, Note_on_c, 1, 56, 80
3, 271872, Note_on_c, 1, 46, 80
3, 272248, Note_off_c, 1, 56, 100
3, 272248, Note_off_c, 1, 46, 100
3, 272640, Note_on_c, 1, 55, 80
3, 272640, Note_on_c, 1, 46, 80
3, 273016, Note_off_c, 1, 55, 100
3, 273016, Note_off_c, 1, 46, 100
3, 273408, Note_on_c, 1, 53, 80
3, 273408, Note_on_c, 1, 46, 80
3, 273784, Note_off_c, 1, 53, 100
3, 273784, Note_off_c, 1, 46, 100
3, 274176, Note_on_c, 1, 55, 80
3, 274176, Note_on_c, 1, 46, 80
3, 274552, Note_off_c, 1, 55, 100
3, 274552, Note_off_c, 1, 46, 100
3, 274944, Note_on_c, 1, 65, 80
3, 274944, Note_on_c, 1, 58, 80
3, 275320, Note_off_c, 1, 65, 100
3, 275320, Note_off_c, 1, 58, 100
3, 276480, Note_on_c, 1, 67, 80
3, 276480, Note_on_c, 1, 58, 80
3, 276856, Note_off_c, 1, 67, 100
3, 276856, Note_off_c, 1, 58, 100
3, 278016, Note_on_c, 1, 68, 80
3, 278016, Note_on_c, 1, 58, 80
3, 278392, Note_off_c, 1, 68, 100
3, 278392, Note_off_c, 1, 58, 100
3, 278784, Note_on_c, 1, 67, 80
3, 278784, Note_on_c, 1, 58, 80
3, 279160, Note_off_c, 1, 67, 100
3, 279160, Note_off_c, 1, 58, 100
3, 279552, Note_on_c, 1, 68, 80
3, 279552, Note_on_c, 1, 58, 80
3, 279928, Note_off_c, 1, 68, 100
3, 279928, Note_off_c, 1, 58, 100
3, 280320, Note_on_c, 1, 58, 80
3, 280696, Note_off_c, 1, 58, 100
3, 280704, Note_on_c, 1, 60, 80
3, 280888, Note_off_c, 1, 60, 100
3, 280896, Note_on_c, 1, 62, 80
3, 281080, Note_off_c, 1, 62, 100
3, 281088, Note_on_c, 1, 63, 80
3, 281272, Note_off_c, 1, 63, 100
3, 281280, Note_on_c, 1, 65, 80
3, 281464, Note_off_c, 1, 65, 100
3, 281472, Note_on_c, 1, 67, 80
3, 281656, Note_off_c, 1, 67, 100
3, 281664, Note_on_c, 1, 68, 80
3, 281848, Note_off_c, 1, 68, 100
3, 281856, Note_on_c, 1, 70, 80
3, 282232, Note_off_c, 1, 70, 100
3, 282240, Note_on_c, 1, 72, 80
3, 282424, Note_off_c, 1, 72, 100
3, 282432, Note_on_c, 1, 74, 80
3, 282616, Note_off_c, 1, 74, 100
3, 282624, Note_on_c, 1, 75, 80
3, 282808, Note_off_c, 1, 75, 100
3, 282816, Note_on_c, 1, 77, 80
3, 283000, Note_off_c, 1, 77, 100
3, 283008, Note_on_c, 1, 79, 80
3, 283192, Note_off_c, 1, 79, 100
3, 283200, Note_on_c, 1, 80, 80
3, 283384, Note_off_c, 1, 80, 100
3, 283392, Note_on_c, 1, 82, 80
3, 283768, Note_off_c, 1, 82, 100
3, 283776, Note_on_c, 1, 80, 80
3, 284152, Note_off_c, 1, 80, 100
3, 284160, Note_on_c, 1, 79, 80
3, 284536, Note_off_c, 1, 79, 100
3, 284544, Note_on_c, 1, 78, 80
3, 284920, Note_off_c, 1, 78, 100
3, 284928, Note_on_c, 1, 77, 80
3, 285304, Note_off_c, 1, 77, 100
3, 285312, Note_on_c, 1, 70, 80
3, 285688, Note_off_c, 1, 70, 100
3, 285696, Note_on_c, 1, 63, 80
3, 286080, Note_on_c, 1, 69, 80
3, 286080, Note_on_c, 1, 66, 80
3, 286840, Note_off_c, 1, 69, 100
3, 286840, Note_off_c, 1, 66, 100
3, 286848, Note_on_c, 1, 70, 80
3, 286848, Note_on_c, 1, 67, 80
3, 287224, Note_off_c, 1, 63, 100
3, 287224, Note_off_c, 1, 70, 100
3, 287224, Note_off_c, 1, 67, 100
3, 287232, Note_on_c, 1, 63, 80
3, 287616, Note_on_c, 1, 71, 80
3, 287616, Note_on_c, 1, 74, 80
3, 288376, Note_off_c, 1, 71, 100
3, 288384, Note_on_c, 1, 70, 80
3, 288760, Note_off_c, 1, 63, 100
3, 288760, Note_off_c, 1, 74, 100
3, 288760, Note_off_c, 1, 70, 100
3, 288768, Note_on_c, 1, 63, 80
3, 289152, Note_on_c, 1, 70, 80
3, 289152, Note_on_c, 1, 67, 80
3, 289528, Note_off_c, 1, 70, 100
3, 289528, Note_off_c, 1, 67, 100
3, 289536, Note_on_c, 1, 72, 80
3, 289536, Note_on_c, 1, 68, 80
3, 289912, Note_off_c, 1, 72, 100
3, 289912, Note_off_c, 1, 68, 100
3, 289920, Note_on_c, 1, 70, 80
3, 289920, Note_on_c, 1, 67, 80
3, 290296, Note_off_c, 1, 63, 100
3, 290296, Note_off_c, 1, 70, 100
3, 290296, Note_off_c, 1, 67, 100
3, 290304, Note_on_c, 1, 58, 80
3, 290304, Note_on_c, 1, 67, 80
3, 290680, Note_off_c, 1, 67, 100
3, 290688, Note_on_c, 1, 68, 80
3, 290688, Note_on_c, 1, 65, 80
3, 291064, Note_off_c, 1, 68, 100
3, 291064, Note_off_c, 1, 65, 100
3, 291072, Note_on_c, 1, 67, 80
3, 291072, Note_on_c, 1, 63, 80
3, 291448, Note_off_c, 1, 67, 100
3, 291448, Note_off_c, 1, 63, 100
3, 291456, Note_on_c, 1, 65, 80
3, 291456, Note_on_c, 1, 62, 80
3, 291832, Note_off_c, 1, 58, 100
3, 291832, Note_off_c, 1, 65, 100
3, 291832, Note_off_c, 1, 62, 100
3, 291840, Note_on_c, 1, 51, 80
3, 292224, Note_on_c, 1, 57, 80
3, 292224, Note_on_c, 1, 54, 80
3, 292984, Note_off_c, 1, 57, 100
3, 292984, Note_off_c, 1, 54, 100
3, 292992, Note_on_c, 1, 58, 80
3, 292992, Note_on_c, 1, 55, 80
3, 293368, Note_off_c, 1, 51, 100
3, 293368, Note_off_c, 1, 58, 100
3, 293368, Note_off_c, 1, 55, 100
3, 293376, Note_on_c, 1, 51, 80
3, 293760, Note_on_c, 1, 59, 80
3, 293760, Note_on_c, 1, 62, 80
3, 294520, Note_off_c, 1, 59, 100
3, 294528, Note_on_c, 1, 58, 80
3, 294904, Note_off_c, 1, 51, 100
3, 294904, Note_off_c, 1, 62, 100
3, 294904, Note_off_c, 1, 58, 100
3, 294912, Note_on_c, 1, 58, 80
3, 294912, Note_on_c, 1, 55, 80
3, 294912, Note_on_c, 1, 51, 80
3, 295672, Note_off_c, 1, 58, 100
3, 295672, Note_off_c, 1, 55, 100
3, 295672, Note_off_c, 1, 51, 100
3, 295680, Note_on_c, 1, 56, 80
3, 295680, Note_on_c, 1, 51, 80
3, 295680, Note_on_c, 1, 44, 80
3, 296056, Note_off_c, 1, 56, 100
3, 296056, Note_off_c, 1, 51, 100
3, 296056, Note_off_c, 1, 44, 100
3, 296064, Note_on_c, 1, 51, 80
3, 296064, Note_on_c, 1, 39, 80
3, 296440, Note_off_c, 1, 51, 100
3, 296440, Note_off_c, 1, 39, 100
3, 296448, Note_on_c, 1, 34, 80
3, 296824, Note_off_c, 1, 34, 100
3, 296832, Note_on_c, 1, 46, 80
3, 297208, Note_off_c, 1, 46, 100
3, 297216, Note_on_c, 1, 34, 80
3, 297592, Note_off_c, 1, 34, 100
3, 297600, Note_on_c, 1, 46, 80
3, 297976, Note_off_c, 1, 46, 100
3, 297984, Note_on_c, 1, 39, 80
3, 298552, Note_off_c, 1, 39, 100
3, 298560, Note_on_c, 1, 47, 80
3, 298744, Note_off_c, 1, 47, 100
3, 298752, Note_on_c, 1, 46, 80
3, 299128, Note_off_c, 1, 46, 100
3, 299136, Note_on_c, 1, 39, 80
3, 299512, Note_off_c, 1, 39, 100
3, 299520, Note_on_c, 1, 34, 80
3, 299896, Note_off_c, 1, 34, 100
3, 299904, Note_on_c, 1, 56, 80
3, 300088, Note_off_c, 1, 56, 100
3, 300096, Note_on_c, 1, 55, 80
3, 300280, Note_off_c, 1, 55, 100
3, 300288, Note_on_c, 1, 53, 80
3, 300472, Note_off_c, 1, 53, 100
3, 300480, Note_on_c, 1, 51, 80
3, 300664, Note_off_c, 1, 51, 100
3, 300672, Note_on_c, 1, 50, 80
3, 300672, Note_on_c, 1, 46, 80
3, 300856, Note_off_c, 1, 50, 100
3, 300864, Note_on_c, 1, 58, 80
3, 301048, Note_off_c, 1, 46, 100
3, 301048, Note_off_c, 1, 58, 100
3, 301056, Note_on_c, 1, 51, 80
3, 301624, Note_off_c, 1, 51, 100
3, 301632, Note_on_c, 1, 59, 80
3, 301816, Note_off_c, 1, 59, 100
3, 301824, Note_on_c, 1, 58, 80
3, 302200, Note_off_c, 1, 58, 100
3, 302208, Note_on_c, 1, 51, 80
3, 302584, Note_off_c, 1, 51, 100
3, 302592, Note_on_c, 1, 46, 80
3, 302968, Note_off_c, 1, 46, 100
3, 302976, Note_on_c, 1, 68, 80
3, 303160, Note_off_c, 1, 68, 100
3, 303168, Note_on_c, 1, 67, 80
3, 303352, Note_off_c, 1, 67, 100
3, 303360, Note_on_c, 1, 65, 80
3, 303544, Note_off_c, 1, 65, 100
3, 303552, Note_on_c, 1, 63, 80
3, 303736, Note_off_c, 1, 63, 100
3, 303744, Note_on_c, 1, 62, 80
3, 303744, Note_on_c, 1, 58, 80
3, 303928, Note_off_c, 1, 62, 100
3, 303936, Note_on_c, 1, 70, 80
3, 304120, Note_off_c, 1, 58, 100
3, 304120, Note_off_c, 1, 70, 100
3, 304128, Note_on_c, 1, 67, 80
3, 304128, Note_on_c, 1, 63, 80
3, 304696, Note_off_c, 1, 67, 100
3, 304696, Note_off_c, 1, 63, 100
3, 304704, Note_on_c, 1, 65, 80
3, 304888, Note_off_c, 1, 65, 100
3, 304896, Note_on_c, 1, 63, 80
3, 305464, Note_off_c, 1, 63, 100
3, 305472, Note_on_c, 1, 60, 80
3, 305656, Note_off_c, 1, 60, 100
3, 305664, Note_on_c, 1, 58, 80
3, 306232, Note_off_c, 1, 58, 100
3, 306240, Note_on_c, 1, 56, 80
3, 306424, Note_off_c, 1, 56, 100
3, 306432, Note_on_c, 1, 55, 80
3, 307000, Note_off_c, 1, 55, 100
3, 307008, Note_on_c, 1, 53, 80
3, 307192, Note_off_c, 1, 53, 100
3, 307200, Note_on_c, 1, 51, 80
3, 307768, Note_off_c, 1, 51, 100
3, 307776, Note_on_c, 1, 48, 80
3, 307960, Note_off_c, 1, 48, 100
3, 307968, Note_on_c, 1, 46, 80
3, 308536, Note_off_c, 1, 46, 100
3, 308544, Note_on_c, 1, 44, 80
3, 308728, Note_off_c, 1, 44, 100
3, 308736, Note_on_c, 1, 43, 80
3, 309304, Note_off_c, 1, 43, 100
3, 309312, Note_on_c, 1, 41, 80
3, 309496, Note_off_c, 1, 41, 100
3, 309504, Note_on_c, 1, 39, 80
3, 310072, Note_off_c, 1, 39, 100
3, 310080, Note_on_c, 1, 73, 80
3, 310080, Note_on_c, 1, 70, 80
3, 310264, Note_off_c, 1, 73, 100
3, 310264, Note_off_c, 1, 70, 100
3, 310272, Note_on_c, 1, 73, 80
3, 310272, Note_on_c, 1, 70, 80
3, 311800, Note_off_c, 1, 73, 100
3, 311800, Note_off_c, 1, 70, 100
3, 311808, Note_on_c, 1, 72, 80
3, 311808, Note_on_c, 1, 68, 80
3, 313336, Note_off_c, 1, 72, 100
3, 313336, Note_off_c, 1, 68, 100
3, 313344, Note_on_c, 1, 70, 80
3, 313344, Note_on_c, 1, 67, 80
3, 314872, Note_off_c, 1, 70, 100
3, 314872, Note_off_c, 1, 67, 100
3, 314880, Note_on_c, 1, 68, 80
3, 314880, Note_on_c, 1, 65, 80
3, 316408, Note_off_c, 1, 68, 100
3, 316408, Note_off_c, 1, 65, 100
3, 316416, Note_on_c, 1, 67, 110
3, 316416, Note_on_c, 1, 64, 110
3, 317560, Note_off_c, 1, 67, 100
3, 317560, Note_off_c, 1, 64, 100
3, 317568, Note_on_c, 1, 69, 110
3, 317568, Note_on_c, 1, 63, 110
3, 317752, Note_off_c, 1, 69, 100
3, 317752, Note_off_c, 1, 63, 100
3, 317760, Note_on_c, 1, 65, 110
3, 317760, Note_on_c, 1, 61, 110
3, 317944, Note_off_c, 1, 65, 100
3, 317944, Note_off_c, 1, 61, 100
3, 317952, Note_on_c, 1, 65, 110
3, 317952, Note_on_c, 1, 61, 110
3, 318328, Note_off_c, 1, 65, 100
3, 318328, Note_off_c, 1, 61, 100
3, 318336, Note_on_c, 1, 67, 110
3, 318336, Note_on_c, 1, 61, 110
3, 318520, Note_off_c, 1, 67, 100
3, 318520, Note_off_c, 1, 61, 100
3, 318528, Note_on_c, 1, 63, 110
3, 318528, Note_on_c, 1, 60, 110
3, 318712, Note_off_c, 1, 63, 100
3, 318712, Note_off_c, 1, 60, 100
3, 318720, Note_on_c, 1, 63, 110
3, 318720, Note_on_c, 1, 60, 110
3, 319096, Note_off_c, 1, 63, 100
3, 319096, Note_off_c, 1, 60, 100
3, 319104, Note_on_c, 1, 65, 110
3, 319104, Note_on_c, 1, 60, 110
3, 319288, Note_off_c, 1, 65, 100
3, 319288, Note_off_c, 1, 60, 100
3, 319296, Note_on_c, 1, 61, 110
3, 319296, Note_on_c, 1, 58, 110
3, 319480, Note_off_c, 1, 61, 100
3, 319480, Note_off_c, 1, 58, 100
3, 319488, Note_on_c, 1, 61, 110
3, 319488, Note_on_c, 1, 58, 110
3, 319864, Note_off_c, 1, 61, 100
3, 319864, Note_off_c, 1, 58, 100
3, 319872, Note_on_c, 1, 64, 110
3, 319872, Note_on_c, 1, 58, 110
3, 320056, Note_off_c, 1, 64, 100
3, 320056, Note_off_c, 1, 58, 100
3, 320064, Note_on_c, 1, 60, 110
3, 320064, Note_on_c, 1, 56, 110
3, 320248, Note_off_c, 1, 60, 100
3, 320248, Note_off_c, 1, 56, 100
3, 320256, Note_on_c, 1, 60, 110
3, 320256, Note_on_c, 1, 56, 110
3, 320632, Note_off_c, 1, 60, 100
3, 320632, Note_off_c, 1, 56, 100
3, 320640, Note_on_c, 1, 58, 110
3, 320640, Note_on_c, 1, 57, 110
3, 321016, Note_off_c, 1, 58, 100
3, 321016, Note_off_c, 1, 57, 100
3, 321024, Note_on_c, 1, 58, 110
3, 321024, Note_on_c, 1, 55, 110
3, 322168, Note_off_c, 1, 58, 100
3, 322168, Note_off_c, 1, 55, 100
3, 322176, Note_on_c, 1, 56, 80
3, 322176, Note_on_c, 1, 53, 80
3, 322552, Note_off_c, 1, 56, 100
3, 322552, Note_off_c, 1, 53, 100
3, 322560, Note_on_c, 1, 55, 80
3, 322560, Note_on_c, 1, 52, 80
3, 322936, Note_off_c, 1, 55, 100
3, 322936, Note_off_c, 1, 52, 100
3, 322944, Note_on_c, 1, 53, 80
3, 322944, Note_on_c, 1, 50, 80
3, 323320, Note_off_c, 1, 53, 100
3, 323320, Note_off_c, 1, 50, 100
3, 323328, Note_on_c, 1, 52, 80
3, 323328, Note_on_c, 1, 48, 80
3, 323704, Note_off_c, 1, 52, 100
3, 323704, Note_off_c, 1, 48, 100
3, 323712, Note_on_c, 1, 58, 80
3, 323712, Note_on_c, 1, 55, 80
3, 323712, Note_on_c, 1, 52, 80
3, 323712, Note_on_c, 1, 48, 80
3, 324088, Note_off_c, 1, 58, 100
3, 324088, Note_off_c, 1, 55, 100
3, 324088, Note_off_c, 1, 52, 100
3, 324088, Note_off_c, 1, 48, 100
3, 324096, Note_on_c, 1, 41, 80
3, 324280, Note_off_c, 1, 41, 100
3, 324288, Note_on_c, 1, 48, 82
3, 324472, Note_off_c, 1, 48, 100
3, 324480, Note_on_c, 1, 56, 84
3, 324664, Note_off_c, 1, 56, 100
3, 324672, Note_on_c, 1, 48, 86
3, 324856, Note_off_c, 1, 48, 100
3, 324864, Note_on_c, 1, 41, 88
3, 325048, Note_off_c, 1, 41, 100
3, 325056, Note_on_c, 1, 48, 91
3, 325240, Note_off_c, 1, 48, 100
3, 325248, Note_on_c, 1, 56, 93
3, 325432, Note_off_c, 1, 56, 100
3, 325440, Note_on_c, 1, 48, 95
3, 325624, Note_off_c, 1, 48, 100
3, 325632, Note_on_c, 1, 43, 97
3, 325816, Note_off_c, 1, 43, 100
3, 325824, Note_on_c, 1, 48, 99
3, 326008, Note_off_c, 1, 48, 100
3, 326016, Note_on_c, 1, 58, 102
3, 326200, Note_off_c, 1, 58, 100
3, 326208, Note_on_c, 1, 48, 104
3, 326392, Note_off_c, 1, 48, 100
3, 326400, Note_on_c, 1, 43, 106
3, 326584, Note_off_c, 1, 43, 100
3, 326592, Note_on_c, 1, 48, 108
3, 326776, Note_off_c, 1, 48, 100
3, 326784, Note_on_c, 1, 58, 110
3, 326968, Note_off_c, 1, 58, 100
3, 326976, Note_on_c, 1, 48, 101
3, 327160, Note_off_c, 1, 48, 100
3, 327168, Note_on_c, 1, 44, 91
3, 327352, Note_off_c, 1, 44, 100
3, 327360, Note_on_c, 1, 48, 80
3, 327544, Note_off_c, 1, 48, 100
3, 327552, Note_on_c, 1, 60, 80
3, 327736, Note_off_c, 1, 60, 100
3, 327744, Note_on_c, 1, 48, 80
3, 327928, Note_off_c, 1, 48, 100
3, 327936, Note_on_c, 1, 44, 80
3, 328120, Note_off_c, 1, 44, 100
3, 328128, Note_on_c, 1, 48, 80
3, 328312, Note_off_c, 1, 48, 100
3, 328320, Note_on_c, 1, 60, 80
3, 328504, Note_off_c, 1, 60, 100
3, 328512, Note_on_c, 1, 48, 80
3, 328696, Note_off_c, 1, 48, 100
3, 328704, Note_on_c, 1, 46, 80
3, 328888, Note_off_c, 1, 46, 100
3, 328896, Note_on_c, 1, 48, 80
3, 329080, Note_off_c, 1, 48, 100
3, 329088, Note_on_c, 1, 58, 80
3, 329272, Note_off_c, 1, 58, 100
3, 329280, Note_on_c, 1, 48, 80
3, 329464, Note_off_c, 1, 48, 100
3, 329472, Note_on_c, 1, 36, 80
3, 329656, Note_off_c, 1, 36, 100
3, 329664, Note_on_c, 1, 48, 80
3, 329848, Note_off_c, 1, 48, 100
3, 329856, Note_on_c, 1, 55, 80
3, 330040, Note_off_c, 1, 55, 100
3, 330048, Note_on_c, 1, 48, 80
3, 330232, Note_off_c, 1, 48, 100
3, 330240, Note_on_c, 1, 41, 80
3, 330424, Note_off_c, 1, 41, 100
3, 330432, Note_on_c, 1, 48, 82
3, 330616, Note_off_c, 1, 48, 100
3, 330624, Note_on_c, 1, 56, 84
3, 330808, Note_off_c, 1, 56, 100
3, 330816, Note_on_c, 1, 48, 86
3, 331000, Note_off_c, 1, 48, 100
3, 331008, Note_on_c, 1, 41, 88
3, 331192, Note_off_c, 1, 41, 100
3, 331200, Note_on_c, 1, 48, 91
3, 331384, Note_off_c, 1, 48, 100
3, 331392, Note_on_c, 1, 56, 93
3, 331576, Note_off_c, 1, 56, 100
3, 331584, Note_on_c, 1, 48, 95
3, 331768, Note_off_c, 1, 48, 100
3, 331776, Note_on_c, 1, 43, 97
3, 331960, Note_off_c, 1, 43, 100
3, 331968, Note_on_c, 1, 48, 99
3, 332152, Note_off_c, 1, 48, 100
3, 332160, Note_on_c, 1, 58, 102
3, 332344, Note_off_c, 1, 58, 100
3, 332352, Note_on_c, 1, 48, 104
3, 332536, Note_off_c, 1, 48, 100
3, 332544, Note_on_c, 1, 43, 106
3, 332728, Note_off_c, 1, 43, 100
3, 332736, Note_on_c, 1, 48, 108
3, 332920, Note_off_c, 1, 48, 100
3, 332928, Note_on_c, 1, 58, 110
3, 333112, Note_off_c, 1, 58, 100
3, 333120, Note_on_c, 1, 48, 101
3, 333304, Note_off_c, 1, 48, 100
3, 333312, Note_on_c, 1, 44, 95
3, 333496, Note_off_c, 1, 44, 100
3, 333504, Note_on_c, 1, 48, 80
3, 333688, Note_off_c, 1, 48, 100
3, 333696, Note_on_c, 1, 60, 80
3, 333880, Note_off_c, 1, 60, 100
3, 333888, Note_on_c, 1, 48, 80
3, 334072, Note_off_c, 1, 48, 100
3, 334080, Note_on_c, 1, 41, 80
3, 334264, Note_off_c, 1, 41, 100
3, 334272, Note_on_c, 1, 48, 80
3, 334456, Note_off_c, 1, 48, 100
3, 334464, Note_on_c, 1, 56, 80
3, 334648, Note_off_c, 1, 56, 100
3, 334656, Note_on_c, 1, 41, 80
3, 334840, Note_off_c, 1, 41, 100
3, 334848, Note_on_c, 1, 38, 80
3, 335032, Note_off_c, 1, 38, 100
3, 335040, Note_on_c, 1, 46, 80
3, 335224, Note_off_c, 1, 46, 100
3, 335232, Note_on_c, 1, 53, 80
3, 335416, Note_off_c, 1, 53, 100
3, 335424, Note_on_c, 1, 46, 80
3, 335608, Note_off_c, 1, 46, 100
3, 335616, Note_on_c, 1, 38, 80
3, 335800, Note_off_c, 1, 38, 100
3, 335808, Note_on_c, 1, 46, 80
3, 335992, Note_off_c, 1, 46, 100
3, 336000, Note_on_c, 1, 53, 80
3, 336184, Note_off_c, 1, 53, 100
3, 336192, Note_on_c, 1, 46, 80
3, 336376, Note_off_c, 1, 46, 100
3, 336384, Note_on_c, 1, 39, 80
3, 336568, Note_off_c, 1, 39, 100
3, 336576, Note_on_c, 1, 46, 82
3, 336760, Note_off_c, 1, 46, 100
3, 336768, Note_on_c, 1, 54, 84
3, 336952, Note_off_c, 1, 54, 100
3, 336960, Note_on_c, 1, 46, 86
3, 337144, Note_off_c, 1, 46, 100
3, 337152, Note_on_c, 1, 39, 88
3, 337336, Note_off_c, 1, 39, 100
3, 337344, Note_on_c, 1, 46, 91
3, 337528, Note_off_c, 1, 46, 100
3, 337536, Note_on_c, 1, 54, 93
3, 337720, Note_off_c, 1, 54, 100
3, 337728, Note_on_c, 1, 46, 95
3, 337912, Note_off_c, 1, 46, 100
3, 337920, Note_on_c, 1, 41, 97
3, 338104, Note_off_c, 1, 41, 100
3, 338112, Note_on_c, 1, 46, 99
3, 338296, Note_off_c, 1, 46, 100
3, 338304, Note_on_c, 1, 56, 102
3, 338488, Note_off_c, 1, 56, 100
3, 338496, Note_on_c, 1, 46, 104
3, 338680, Note_off_c, 1, 46, 100
3, 338688, Note_on_c, 1, 41, 106
3, 338872, Note_off_c, 1, 41, 100
3, 338880, Note_on_c, 1, 46, 108
3, 339064, Note_off_c, 1, 46, 100
3, 339072, Note_on_c, 1, 56, 110
3, 339256, Note_off_c, 1, 56, 100
3, 339264, Note_on_c, 1, 46, 100
3, 339448, Note_off_c, 1, 46, 100
3, 339456, Note_on_c, 1, 42, 91
3, 339640, Note_off_c, 1, 42, 100
3, 339648, Note_on_c, 1, 46, 80
3, 339832, Note_off_c, 1, 46, 100
3, 339840, Note_on_c, 1, 58, 80
3, 340024, Note_off_c, 1, 58, 100
3, 340032, Note_on_c, 1, 46, 80
3, 340216, Note_off_c, 1, 46, 100
3, 340224, Note_on_c, 1, 42, 80
3, 340408, Note_off_c, 1, 42, 100
3, 340416, Note_on_c, 1, 46, 80
3, 340600, Note_off_c, 1, 46, 100
3, 340608, Note_on_c, 1, 58, 80
3, 340792, Note_off_c, 1, 58, 100
3, 340800, Note_on_c, 1, 46, 80
3, 340984, Note_off_c, 1, 46, 100
3, 340992, Note_on_c, 1, 44, 80
3, 341176, Note_off_c, 1, 44, 100
3, 341184, Note_on_c, 1, 46, 80
3, 341368, Note_off_c, 1, 46, 100
3, 341376, Note_on_c, 1, 56, 80
3, 341560, Note_off_c, 1, 56, 100
3, 341568, Note_on_c, 1, 46, 80
3, 341752, Note_off_c, 1, 46, 100
3, 341760, Note_on_c, 1, 38, 80
3, 341944, Note_off_c, 1, 38, 100
3, 341952, Note_on_c, 1, 46, 80
3, 342136, Note_off_c, 1, 46, 100
3, 342144, Note_on_c, 1, 53, 80
3, 342328, Note_off_c, 1, 53, 100
3, 342336, Note_on_c, 1, 38, 80
3, 342520, Note_off_c, 1, 38, 100
3, 342528, Note_on_c, 1, 39, 110
3, 342712, Note_off_c, 1, 39, 100
3, 342720, Note_on_c, 1, 46, 110
3, 342904, Note_off_c, 1, 46, 100
3, 342912, Note_on_c, 1, 55, 110
3, 343096, Note_off_c, 1, 55, 100
3, 343104, Note_on_c, 1, 46, 110
3, 343288, Note_off_c, 1, 46, 100
3, 343296, Note_on_c, 1, 41, 110
3, 343480, Note_off_c, 1, 41, 100
3, 343488, Note_on_c, 1, 46, 110
3, 343672, Note_off_c, 1, 46, 100
3, 343680, Note_on_c, 1, 56, 110
3, 343864, Note_off_c, 1, 56, 100
3, 343872, Note_on_c, 1, 46, 110
3, 344056, Note_off_c, 1, 46, 100
3, 344064, Note_on_c, 1, 43, 110
3, 344248, Note_off_c, 1, 43, 100
3, 344256, Note_on_c, 1, 51, 110
3, 344440, Note_off_c, 1, 51, 100
3, 344448, Note_on_c, 1, 58, 110
3, 344632, Note_off_c, 1, 58, 100
3, 344640, Note_on_c, 1, 51, 110
3, 344824, Note_off_c, 1, 51, 100
3, 344832, Note_on_c, 1, 44, 110
3, 345016, Note_off_c, 1, 44, 100
3, 345024, Note_on_c, 1, 51, 110
3, 345208, Note_off_c, 1, 51, 100
3, 345216, Note_on_c, 1, 59, 110
3, 345400, Note_off_c, 1, 59, 100
3, 345408, Note_on_c, 1, 51, 110
3, 345592, Note_off_c, 1, 51, 100
3, 348672, Note_on_c, 1, 59, 80
3, 350200, Note_off_c, 1, 59, 100
3, 350208, Note_on_c, 1, 58, 80
3, 351736, Note_off_c, 1, 58, 100
3, 351744, Note_on_c, 1, 57, 80
3, 352120, Note_off_c, 1, 57, 100
3, 354816, Note_on_c, 1, 60, 80
3, 356344, Note_off_c, 1, 60, 100
3, 356352, Note_on_c, 1, 58, 80
3, 357880, Note_off_c, 1, 58, 100
3, 357888, Note_on_c, 1, 56, 80
3, 358264, Note_off_c, 1, 56, 100
3, 360960, Note_on_c, 1, 68, 80
3, 360960, Note_on_c, 1, 65, 80
3, 362488, Note_off_c, 1, 68, 100
3, 362488, Note_off_c, 1, 65, 100
3, 362496, Note_on_c, 1, 67, 80
3, 362496, Note_on_c, 1, 63, 80
3, 364024, Note_off_c, 1, 67, 100
3, 364024, Note_off_c, 1, 63, 100
3, 364032, Note_on_c, 1, 62, 80
3, 364032, Note_on_c, 1, 65, 80
3, 365560, Note_off_c, 1, 62, 100
3, 365560, Note_off_c, 1, 65, 100
3, 365568, Note_on_c, 1, 63, 90
3, 365568, Note_on_c, 1, 60, 90
3, 367096, Note_off_c, 1, 63, 100
3, 367096, Note_off_c, 1, 60, 100
3, 367104, Note_on_c, 1, 62, 100
3, 367104, Note_on_c, 1, 59, 100
3, 368632, Note_off_c, 1, 62, 100
3, 368632, Note_off_c, 1, 59, 100
3, 368640, Note_on_c, 1, 58, 110
3, 368640, Note_on_c, 1, 63, 110
3, 369400, Note_off_c, 1, 63, 100
3, 369408, Note_on_c, 1, 65, 80
3, 369784, Note_off_c, 1, 65, 100
3, 369792, Note_on_c, 1, 62, 80
3, 370168, Note_off_c, 1, 58, 100
3, 370168, Note_off_c, 1, 62, 100
3, 370368, Note_on_c, 1, 58, 80
3, 370552, Note_off_c, 1, 58, 100
3, 370560, Note_on_c, 1, 60, 80
3, 370744, Note_off_c, 1, 60, 100
3, 370752, Note_on_c, 1, 58, 80
3, 370936, Note_off_c, 1, 58, 100
3, 370944, Note_on_c, 1, 57, 80
3, 371128, Note_off_c, 1, 57, 100
3, 371136, Note_on_c, 1, 58, 80
3, 371320, Note_off_c, 1, 58, 100
3, 371328, Note_on_c, 1, 55, 80
3, 371512, Note_off_c, 1, 55, 100
3, 371520, Note_on_c, 1, 51, 80
3, 371704, Note_off_c, 1, 51, 100
3, 371712, Note_on_c, 1, 56, 80
3, 371896, Note_off_c, 1, 56, 100
3, 371904, Note_on_c, 1, 53, 80
3, 372088, Note_off_c, 1, 53, 100
3, 372096, Note_on_c, 1, 50, 80
3, 372280, Note_off_c, 1, 50, 100
3, 372288, Note_on_c, 1, 46, 80
3, 372472, Note_off_c, 1, 46, 100
3, 372480, Note_on_c, 1, 44, 80
3, 372664, Note_off_c, 1, 44, 100
3, 372672, Note_on_c, 1, 41, 80
3, 372856, Note_off_c, 1, 41, 100
3, 372864, Note_on_c, 1, 38, 80
3, 373048, Note_off_c, 1, 38, 100
3, 373056, Note_on_c, 1, 34, 80
3, 373240, Note_off_c, 1, 34, 100
3, 373248, Note_on_c, 1, 39, 80
3, 373432, Note_off_c, 1, 39, 100
3, 373440, Note_on_c, 1, 41, 80
3, 373624, Note_off_c, 1, 41, 100
3, 373632, Note_on_c, 1, 43, 80
3, 373816, Note_off_c, 1, 43, 100
3, 373824, Note_on_c, 1, 44, 80
3, 374008, Note_off_c, 1, 44, 100
3, 374016, Note_on_c, 1, 46, 80
3, 374200, Note_off_c, 1, 46, 100
3, 374208, Note_on_c, 1, 48, 80
3, 374392, Note_off_c, 1, 48, 100
3, 374400, Note_on_c, 1, 50, 80
3, 374584, Note_off_c, 1, 50, 100
3, 374592, Note_on_c, 1, 51, 80
3, 374776, Note_off_c, 1, 51, 100
3, 374784, Note_on_c, 1, 53, 80
3, 374784, Note_on_c, 1, 46, 80
3, 374968, Note_off_c, 1, 53, 100
3, 374976, Note_on_c, 1, 55, 80
3, 375160, Note_off_c, 1, 55, 100
3, 375168, Note_on_c, 1, 56, 80
3, 375352, Note_off_c, 1, 56, 100
3, 375360, Note_on_c, 1, 57, 80
3, 375544, Note_off_c, 1, 57, 100
3, 375552, Note_on_c, 1, 58, 80
3, 375928, Note_off_c, 1, 58, 100
3, 375936, Note_on_c, 1, 56, 80
3, 376312, Note_off_c, 1, 46, 100
3, 376312, Note_off_c, 1, 56, 100
3, 376320, Note_on_c, 1, 55, 80
3, 376320, Note_on_c, 1, 51, 80
3, 377848, Note_off_c, 1, 55, 100
3, 377848, Note_off_c, 1, 51, 100
3, 377856, Note_on_c, 1, 53, 80
3, 377856, Note_on_c, 1, 46, 80
3, 379384, Note_off_c, 1, 53, 100
3, 379384, Note_off_c, 1, 46, 100
3, 379392, Note_on_c, 1, 67, 80
3, 379392, Note_on_c, 1, 63, 80
3, 380920, Note_off_c, 1, 67, 100
3, 380920, Note_off_c, 1, 63, 100
3, 380928, Note_on_c, 1, 65, 80
3, 380928, Note_on_c, 1, 58, 80
3, 382456, Note_off_c, 1, 65, 100
3, 382456, Note_off_c, 1, 58, 100
3, 382464, Note_on_c, 1, 79, 80
3, 382464, Note_on_c, 1, 75, 80
3, 383992, Note_off_c, 1, 79, 100
3, 383992, Note_off_c, 1, 75, 100
3, 384000, Note_on_c, 1, 77, 93
3, 384000, Note_on_c, 1, 70, 93
3, 384760, Note_off_c, 1, 77, 100
3, 384760, Note_off_c, 1, 70, 100
3, 384768, Note_on_c, 1, 77, 99
3, 384768, Note_on_c, 1, 74, 99
3, 384768, Note_on_c, 1, 70, 99
3, 384768, Note_on_c, 1, 68, 99
3, 385528, Note_off_c, 1, 77, 100
3, 385528, Note_off_c, 1, 74, 100
3, 385528, Note_off_c, 1, 70, 100
3, 385528, Note_off_c, 1, 68, 100
3, 385536, Note_on_c, 1, 70, 106
3, 385536, Note_on_c, 1, 67, 106
3, 386296, Note_off_c, 1, 70, 100
3, 386296, Note_off_c, 1, 67, 100
3, 386304, Note_on_c, 1, 67, 110
3, 386304, Note_on_c, 1, 63, 110
3, 387064, Note_off_c, 1, 67, 100
3, 387064, Note_off_c, 1, 63, 100
3, 387072, Note_on_c, 1, 68, 110
3, 387072, Note_on_c, 1, 65, 110
3, 387072, Note_on_c, 1, 58, 110
3, 387832, Note_off_c, 1, 68, 100
3, 387832, Note_off_c, 1, 65, 100
3, 387832, Note_off_c, 1, 58, 100
3, 387840, Note_on_c, 1, 68, 110
3, 387840, Note_on_c, 1, 65, 110
3, 387840, Note_on_c, 1, 58, 110
3, 388600, Note_off_c, 1, 68, 100
3, 388600, Note_off_c, 1, 65, 100
3, 388600, Note_off_c, 1, 58, 100
3, 388800, Note_on_c, 1, 58, 80
3, 388984, Note_off_c, 1, 58, 100
3, 388992, Note_on_c, 1, 60, 80
3, 389176, Note_off_c, 1, 60, 100
3, 389184, Note_on_c, 1, 58, 80
3, 389368, Note_off_c, 1, 58, 100
3, 389376, Note_on_c, 1, 57, 80
3, 389560, Note_off_c, 1, 57, 100
3, 389568, Note_on_c, 1, 58, 80
3, 389752, Note_off_c, 1, 58, 100
3, 389760, Note_on_c, 1, 55, 80
3, 389944, Note_off_c, 1, 55, 100
3, 389952, Note_on_c, 1, 51, 80
3, 390136, Note_off_c, 1, 51, 100
3, 390144, Note_on_c, 1, 56, 80
3, 390328, Note_off_c, 1, 56, 100
3, 390336, Note_on_c, 1, 53, 80
3, 390520, Note_off_c, 1, 53, 100
3, 390528, Note_on_c, 1, 50, 80
3, 390712, Note_off_c, 1, 50, 100
3, 390720, Note_on_c, 1, 46, 80
3, 390904, Note_off_c, 1, 46, 100
3, 390912, Note_on_c, 1, 44, 80
3, 391096, Note_off_c, 1, 44, 100
3, 391104, Note_on_c, 1, 41, 80
3, 391288, Note_off_c, 1, 41, 100
3, 391296, Note_on_c, 1, 38, 80
3, 391480, Note_off_c, 1, 38, 100
3, 391488, Note_on_c, 1, 34, 80
3, 391672, Note_off_c, 1, 34, 100
3, 391680, Note_on_c, 1, 39, 80
3, 391864, Note_off_c, 1, 39, 100
3, 391872, Note_on_c, 1, 41, 80
3, 392056, Note_off_c, 1, 41, 100
3, 392064, Note_on_c, 1, 43, 80
3, 392248, Note_off_c, 1, 43, 100
3, 392256, Note_on_c, 1, 44, 80
3, 392440, Note_off_c, 1, 44, 100
3, 392448, Note_on_c, 1, 46, 80
3, 392632, Note_off_c, 1, 46, 100
3, 392640, Note_on_c, 1, 48, 80
3, 392824, Note_off_c, 1, 48, 100
3, 392832, Note_on_c, 1, 50, 80
3, 393016, Note_off_c, 1, 50, 100
3, 393024, Note_on_c, 1, 51, 80
3, 393208, Note_off_c, 1, 51, 100
3, 393216, Note_on_c, 1, 53, 80
3, 393216, Note_on_c, 1, 46, 80
3, 393400, Note_off_c, 1, 53, 100
3, 393408, Note_on_c, 1, 55, 80
3, 393592, Note_off_c, 1, 55, 100
3, 393600, Note_on_c, 1, 56, 80
3, 393784, Note_off_c, 1, 56, 100
3, 393792, Note_on_c, 1, 57, 80
3, 393976, Note_off_c, 1, 57, 100
3, 393984, Note_on_c, 1, 58, 80
3, 394360, Note_off_c, 1, 58, 100
3, 394368, Note_on_c, 1, 56, 80
3, 394744, Note_off_c, 1, 46, 100
3, 394744, Note_off_c, 1, 56, 100
3, 394752, Note_on_c, 1, 55, 80
3, 394752, Note_on_c, 1, 51, 80
3, 396280, Note_off_c, 1, 55, 100
3, 396280, Note_off_c, 1, 51, 100
3, 396288, Note_on_c, 1, 53, 80
3, 396288, Note_on_c, 1, 46, 80
3, 397816, Note_off_c, 1, 53, 100
3, 397816, Note_off_c, 1, 46, 100
3, 397824, Note_on_c, 1, 67, 80
3, 397824, Note_on_c, 1, 63, 80
3, 399352, Note_off_c, 1, 67, 100
3, 399352, Note_off_c, 1, 63, 100
3, 399360, Note_on_c, 1, 65, 80
3, 399360, Note_on_c, 1, 58, 80
3, 400888, Note_off_c, 1, 65, 100
3, 400888, Note_off_c, 1, 58, 100
3, 400896, Note_on_c, 1, 79, 80
3, 400896, Note_on_c, 1, 75, 80
3, 402424, Note_off_c, 1, 79, 100
3, 402424, Note_off_c, 1, 75, 100
3, 402432, Note_on_c, 1, 77, 95
3, 402432, Note_on_c, 1, 70, 95
3, 403192, Note_off_c, 1, 77, 100
3, 403192, Note_off_c, 1, 70, 100
3, 403200, Note_on_c, 1, 77, 103
3, 403200, Note_on_c, 1, 74, 103
3, 403200, Note_on_c, 1, 70, 103
3, 403200, Note_on_c, 1, 68, 103
3, 403960, Note_off_c, 1, 77, 100
3, 403960, Note_off_c, 1, 74, 100
3, 403960, Note_off_c, 1, 70, 100
3, 403960, Note_off_c, 1, 68, 100
3, 403968, Note_on_c, 1, 70, 110
3, 403968, Note_on_c, 1, 67, 110
3, 404344, Note_off_c, 1, 70, 100
3, 404344, Note_off_c, 1, 67, 100
3, 404352, Note_on_c, 1, 67, 110
3, 404352, Note_on_c, 1, 63, 110
3, 405112, Note_off_c, 1, 67, 100
3, 405112, Note_off_c, 1, 63, 100
3, 405120, Note_on_c, 1, 67, 110
3, 405120, Note_on_c, 1, 63, 110
3, 405496, Note_off_c, 1, 67, 100
3, 405496, Note_off_c, 1, 63, 100
3, 405504, Note_on_c, 1, 65, 110
3, 405504, Note_on_c, 1, 58, 110
3, 406264, Note_off_c, 1, 65, 100
3, 406264, Note_off_c, 1, 58, 100
3, 406272, Note_on_c, 1, 65, 110
3, 406272, Note_on_c, 1, 58, 110
3, 406272, Note_on_c, 1, 56, 110
3, 407032, Note_off_c, 1, 65, 100
3, 407032, Note_off_c, 1, 58, 100
3, 407032, Note_off_c, 1, 56, 100
3, 407040, Note_on_c, 1, 58, 110
3, 407040, Note_on_c, 1, 55, 110
3, 407416, Note_off_c, 1, 58, 100
3, 407416, Note_off_c, 1, 55, 100
3, 407424, Note_on_c, 1, 55, 108
3, 407424, Note_on_c, 1, 51, 108
3, 408184, Note_off_c, 1, 55, 100
3, 408184, Note_off_c, 1, 51, 100
3, 408192, Note_on_c, 1, 55, 100
3, 408192, Note_on_c, 1, 51, 100
3, 408568, Note_off_c, 1, 55, 100
3, 408568, Note_off_c, 1, 51, 100
3, 408576, Note_on_c, 1, 56, 96
3, 408576, Note_on_c, 1, 53, 96
3, 408576, Note_on_c, 1, 46, 96
3, 409336, Note_off_c, 1, 56, 100
3, 409336, Note_off_c, 1, 53, 100
3, 409336, Note_off_c, 1, 46, 100
3, 409344, Note_on_c, 1, 56, 87
3, 409344, Note_on_c, 1, 53, 87
3, 409344, Note_on_c, 1, 46, 87
3, 410104, Note_off_c, 1, 56, 100
3, 410104, Note_off_c, 1, 53, 100
3, 410104, Note_off_c, 1, 46, 100
3, 413184, Note_on_c, 1, 51, 80
3, 414712, Note_off_c, 1, 51, 100
3, 414720, Note_on_c, 1, 46, 80
3, 416248, Note_off_c, 1, 46, 100
3, 416256, Note_on_c, 1, 43, 80
3, 416632, Note_off_c, 1, 43, 100
3, 419328, Note_on_c, 1, 55, 80
3, 419328, Note_on_c, 1, 51, 80
3, 420856, Note_off_c, 1, 55, 100
3, 420856, Note_off_c, 1, 51, 100
3, 420864, Note_on_c, 1, 53, 80
3, 420864, Note_on_c, 1, 46, 80
3, 422392, Note_off_c, 1, 53, 100
3, 422392, Note_off_c, 1, 46, 100
3, 422400, Note_on_c, 1, 51, 80
3, 422400, Note_on_c, 1, 43, 80
3, 422776, Note_off_c, 1, 51, 100
3, 422776, Note_off_c, 1, 43, 100
3, 423552, Note_on_c, 1, 55, 80
3, 423552, Note_on_c, 1, 51, 80
3, 423928, Note_off_c, 1, 55, 100
3, 423928, Note_off_c, 1, 51, 100
3, 423936, Note_on_c, 1, 53, 80
3, 423936, Note_on_c, 1, 46, 80
3, 425464, Note_off_c, 1, 53, 100
3, 425464, Note_off_c, 1, 46, 100
3, 425472, Note_on_c, 1, 51, 80
3, 425472, Note_on_c, 1, 43, 80
3, 425848, Note_off_c, 1, 51, 100
3, 425848, Note_off_c, 1, 43, 100
3, 426624, Note_on_c, 1, 67, 80
3, 426624, Note_on_c, 1, 63, 80
3, 427000, Note_off_c, 1, 67, 100
3, 427000, Note_off_c, 1, 63, 100
3, 427008, Note_on_c, 1, 65, 80
3, 427008, Note_on_c, 1, 58, 80
3, 428536, Note_off_c, 1, 65, 100
3, 428536, Note_off_c, 1, 58, 100
3, 428544, Note_on_c, 1, 63, 80
3, 428544, Note_on_c, 1, 55, 80
3, 428920, Note_off_c, 1, 63, 100
3, 428920, Note_off_c, 1, 55, 100
3, 430464, Note_on_c, 1, 79, 80
3, 430464, Note_on_c, 1, 75, 80
3, 430840, Note_off_c, 1, 79, 100
3, 430840, Note_off_c, 1, 75, 100
3, 430848, Note_on_c, 1, 77, 80
3, 430848, Note_on_c, 1, 70, 80
3, 431224, Note_off_c, 1, 77, 100
3, 431224, Note_off_c, 1, 70, 100
3, 431232, Note_on_c, 1, 75, 80
3, 431232, Note_on_c, 1, 67, 80
3, 431608, Note_off_c, 1, 75, 100
3, 431608, Note_off_c, 1, 67, 100
3, 431616, Note_on_c, 1, 75, 80
3, 431616, Note_on_c, 1, 67, 80
3, 431992, Note_off_c, 1, 75, 100
3, 431992, Note_off_c, 1, 67, 100
3, 433536, Note_on_c, 1, 55, 80
3, 433536, Note_on_c, 1, 51, 80
3, 433912, Note_off_c, 1, 55, 100
3, 433912, Note_off_c, 1, 51, 100
3, 433920, Note_on_c, 1, 53, 80
3, 433920, Note_on_c, 1, 46, 80
3, 434296, Note_off_c, 1, 53, 100
3, 434296, Note_off_c, 1, 46, 100
3, 434304, Note_on_c, 1, 51, 80
3, 434304, Note_on_c, 1, 43, 80
3, 434680, Note_off_c, 1, 51, 100
3, 434680, Note_off_c, 1, 43, 100
3, 435072, Note_on_c, 1, 50, 80
3, 435072, Note_on_c, 1, 46, 80
3, 435448, Note_off_c, 1, 50, 100
3, 435448, Note_off_c, 1, 46, 100
3, 435456, Note_on_c, 1, 39, 80
3, 435832, Note_off_c, 1, 39, 100
3, 436608, Note_on_c, 1, 50, 80
3, 436608, Note_on_c, 1, 46, 80
3, 436984, Note_off_c, 1, 50, 100
3, 436984, Note_off_c, 1, 46, 100
3, 436992, Note_on_c, 1, 39, 80
3, 437368, Note_off_c, 1, 39, 100
3, 438144, Note_on_c, 1, 50, 80
3, 438144, Note_on_c, 1, 46, 80
3, 438520, Note_off_c, 1, 50, 100
3, 438520, Note_off_c, 1, 46, 100
3, 438528, Note_on_c, 1, 39, 80
3, 438904, Note_off_c, 1, 39, 100
3, 439680, Note_on_c, 1, 46, 80
3, 440056, Note_off_c, 1, 46, 100
3, 440064, Note_on_c, 1, 34, 80
3, 440440, Note_off_c, 1, 34, 100
3, 440448, Note_on_c, 1, 46, 80
3, 440824, Note_off_c, 1, 46, 100
3, 440832, Note_on_c, 1, 39, 80
3, 442360, Note_off_c, 1, 39, 100
3, 442368, Note_on_c, 1, 39, 80
3, 442368, Note_on_c, 1, 38, 80
3, 443896, Note_off_c, 1, 39, 100
3, 443896, Note_off_c, 1, 38, 100
3, 443904, Note_on_c, 1, 39, 80
3, 443904, Note_on_c, 1, 36, 80
3, 445432, Note_off_c, 1, 39, 100
3, 445432, Note_off_c, 1, 36, 100
3, 445440, Note_on_c, 1, 39, 77
3, 445440, Note_on_c, 1, 34, 77
3, 446968, Note_off_c, 1, 39, 100
3, 446968, Note_off_c, 1, 34, 100
3, 446976, Note_on_c, 1, 39, 74
3, 446976, Note_on_c, 1, 32, 74
3, 448504, Note_off_c, 1, 39, 100
3, 448504, Note_off_c, 1, 32, 100
3, 448512, Note_on_c, 1, 39, 70
3, 448512, Note_on_c, 1, 31, 70
3, 450040, Note_off_c, 1, 39, 100
3, 450040, Note_off_c, 1, 31, 100
3, 450048, Note_on_c, 1, 39, 70
3, 450048, Note_on_c, 1, 32, 70
3, 451576, Note_off_c, 1, 39, 100
3, 451576, Note_off_c, 1, 32, 100
3, 451584, Note_on_c, 1, 39, 70
3, 451584, Note_on_c, 1, 31, 70
3, 453112, Note_off_c, 1, 39, 100
3, 453112, Note_off_c, 1, 31, 100
3, 453120, Note_on_c, 1, 39, 70
3, 453120, Note_on_c, 1, 32, 70
3, 454648, Note_off_c, 1, 39, 100
3, 454648, Note_off_c, 1, 32, 100
3, 454656, Note_on_c, 1, 39, 70
3, 454656, Note_on_c, 1, 31, 70
3, 455032, Note_off_c, 1, 39, 100
3, 455032, Note_off_c, 1, 31, 100
3, 457728, Note_on_c, 1, 46, 110
3, 457728, Note_on_c, 1, 41, 110
3, 457728, Note_on_c, 1, 38, 110
3, 457728, Note_on_c, 1, 34, 110
3, 458104, Note_off_c, 1, 46, 100
3, 458104, Note_off_c, 1, 41, 100
3, 458104, Note_off_c, 1, 38, 100
3, 458104, Note_off_c, 1, 34, 100
3, 459264, Note_on_c, 1, 51, 110
3, 459264, Note_on_c, 1, 46, 110
3, 459264, Note_on_c, 1, 43, 110
3, 459264, Note_on_c, 1, 39, 110
3, 460024, Note_off_c, 1, 51, 100
3, 460024, Note_off_c, 1, 46, 100
3, 460024, Note_off_c, 1, 43, 100
3, 460024, Note_off_c, 1, 39, 100
3, 460024, End_track
0, 0, End_of_file
