0, 0, Header, 1, 3, 384
1, 0, Start_track
1, 0, Title_t, "L.v.Beethoven 1mov - Piano Sonata No.27 in E Minor Op.90\000"
1, 0, Copyright_t, "Copyright(C) 1995-2009, Suzuki Software\000"
1, 0, Sequencer_specific, 9, 67, 123, 0, 88, 70, 48, 50, 0, 1
1, 0, Text_t, "XFhd:2000/09/30:JP:Classical::::L.v.Beethoven:::Kaoru Suzuki\000"
1, 0, Text_t, "XFln:JP:\203s\203A\203m\203\\\203i\203^\221æ27\224Ô\203z\222Z\222²\215ì\225i90\201`\221æ1\212y\217Í:L.v.\203x\201[\203g\201[\203\224\203F\203\223:::\227é\202¿\202á\202ñ:\227é\202¿\202á\202ñ\000"
1, 0, Time_signature, 1, 2, 96, 8
1, 0, Sequencer_specific, 3, 0, 0, 65
1, 0, Sequencer_specific, 5, 0, 0, 119, 14, 0
1, 0, Tempo, 375000
1, 384, Time_signature, 3, 2, 96, 8
1, 2304, Tempo, 387096
1, 4608, Tempo, 375000
1, 6912, Tempo, 387096
1, 15360, Tempo, 413793
1, 16512, Tempo, 461538
1, 17280, Tempo, 666666
1, 17664, Tempo, 1500000
1, 18432, Tempo, 387096
1, 25344, Tempo, 428571
1, 25728, Tempo, 500000
1, 26112, Tempo, 600000
1, 26688, Tempo, 750000
1, 26880, Tempo, 1000000
1, 27648, Tempo, 428571
1, 28416, Tempo, 375000
1, 40704, Tempo, 428571
1, 45312, Tempo, 400000
1, 46464, Tempo, 375000
1, 60288, Tempo, 461538
1, 60480, Tempo, 413793
1, 60672, Tempo, 375000
1, 61440, Tempo, 400000
1, 61824, Tempo, 444444
1, 62208, Tempo, 500000
1, 62400, Tempo, 600000
1, 62688, Tempo, 375000
1, 75264, Tempo, 333333
1, 77568, Tempo, 375000
1, 123264, Tempo, 400000
1, 123648, Tempo, 428571
1, 124800, Tempo, 400000
1, 127104, Tempo, 375000
1, 160896, Tempo, 352941
1, 161664, Tempo, 333333
1, 162816, Tempo, 300000
1, 164736, Tempo, 375000
1, 167040, Tempo, 387096
1, 169344, Tempo, 375000
1, 171648, Tempo, 387096
1, 180480, Tempo, 428571
1, 181248, Tempo, 500000
1, 182016, Tempo, 666666
1, 182400, Tempo, 1500000
1, 183168, Tempo, 400000
1, 189312, Tempo, 428571
1, 190464, Tempo, 461538
1, 191232, Tempo, 545454
1, 191424, Tempo, 750000
1, 191616, Tempo, 857142
1, 192384, Tempo, 387096
1, 193536, Tempo, 375000
1, 206208, Tempo, 400000
1, 209664, Tempo, 387096
1, 210816, Tempo, 375000
1, 224640, Tempo, 387096
1, 224832, Tempo, 428571
1, 225024, Tempo, 500000
1, 225216, Tempo, 428571
1, 225408, Tempo, 400000
1, 225792, Tempo, 419580
1, 226176, Tempo, 434782
1, 226944, Tempo, 500000
1, 227136, Tempo, 750000
1, 227424, Tempo, 375000
1, 240000, Tempo, 333333
1, 242304, Tempo, 375000
1, 251136, Tempo, 387096
1, 251520, Tempo, 413793
1, 253440, Tempo, 387096
1, 258432, Tempo, 413793
1, 260352, Tempo, 387096
1, 260736, Tempo, 387096
1, 261888, Tempo, 400000
1, 263040, Tempo, 428571
1, 265344, Tempo, 400000
1, 268800, Tempo, 400000
1, 269952, Tempo, 428571
1, 271104, Tempo, 461538
1, 271488, Tempo, 500000
1, 271872, Tempo, 600000
1, 272256, Tempo, 1500000
1, 273024, Tempo, 400000
1, 278016, Tempo, 428571
1, 279168, Tempo, 461538
1, 279936, Tempo, 521739
1, 280320, Tempo, 560747
1, 280896, Tempo, 638297
1, 281280, Tempo, 1000000
1, 281280, End_track
2, 0, Start_track
2, 0, Title_t, "Right"
2, 0, Control_c, 0, 0, 0
2, 0, Program_c, 0, 0
2, 0, Control_c, 0, 7, 100
2, 0, Control_c, 0, 10, 73
2, 0, Control_c, 0, 91, 127
2, 0, Key_signature, 1, "minor"
2, 0, Note_on_c, 0, 67, 110
2, 0, Note_on_c, 0, 64, 110
2, 0, Note_on_c, 0, 59, 110
2, 0, Note_on_c, 0, 55, 110
2, 188, Note_off_c, 0, 67, 100
2, 188, Note_off_c, 0, 64, 100
2, 188, Note_off_c, 0, 59, 100
2, 188, Note_off_c, 0, 55, 100
2, 384, Note_on_c, 0, 64, 110
2, 384, Note_on_c, 0, 59, 110
2, 384, Note_on_c, 0, 55, 110
2, 384, Note_on_c, 0, 67, 110
2, 956, Note_off_c, 0, 67, 100
2, 960, Note_on_c, 0, 66, 110
2, 1148, Note_off_c, 0, 64, 100
2, 1148, Note_off_c, 0, 59, 100
2, 1148, Note_off_c, 0, 55, 100
2, 1148, Note_off_c, 0, 66, 100
2, 1152, Note_on_c, 0, 64, 110
2, 1152, Note_on_c, 0, 52, 110
2, 1340, Note_off_c, 0, 64, 100
2, 1340, Note_off_c, 0, 52, 100
2, 1536, Note_on_c, 0, 69, 110
2, 1536, Note_on_c, 0, 66, 110
2, 1536, Note_on_c, 0, 57, 110
2, 1724, Note_off_c, 0, 69, 100
2, 1724, Note_off_c, 0, 66, 100
2, 1724, Note_off_c, 0, 57, 100
2, 2304, Note_on_c, 0, 69, 80
2, 2304, Note_on_c, 0, 66, 80
2, 2684, Note_off_c, 0, 69, 100
2, 2684, Note_off_c, 0, 66, 100
2, 2688, Note_on_c, 0, 69, 80
2, 2688, Note_on_c, 0, 66, 80
2, 3260, Note_off_c, 0, 69, 100
2, 3260, Note_off_c, 0, 66, 100
2, 3264, Note_on_c, 0, 67, 80
2, 3452, Note_off_c, 0, 67, 100
2, 3456, Note_on_c, 0, 69, 80
2, 3456, Note_on_c, 0, 66, 80
2, 3836, Note_off_c, 0, 69, 100
2, 3836, Note_off_c, 0, 66, 100
2, 3840, Note_on_c, 0, 71, 80
2, 3840, Note_on_c, 0, 67, 80
2, 4220, Note_off_c, 0, 71, 100
2, 4220, Note_off_c, 0, 67, 100
2, 4608, Note_on_c, 0, 71, 110
2, 4608, Note_on_c, 0, 67, 110
2, 4608, Note_on_c, 0, 62, 110
2, 4608, Note_on_c, 0, 59, 110
2, 4796, Note_off_c, 0, 71, 100
2, 4796, Note_off_c, 0, 67, 100
2, 4796, Note_off_c, 0, 62, 100
2, 4796, Note_off_c, 0, 59, 100
2, 4992, Note_on_c, 0, 67, 110
2, 4992, Note_on_c, 0, 62, 110
2, 4992, Note_on_c, 0, 59, 110
2, 4992, Note_on_c, 0, 71, 110
2, 5564, Note_off_c, 0, 71, 100
2, 5568, Note_on_c, 0, 69, 110
2, 5756, Note_off_c, 0, 67, 100
2, 5756, Note_off_c, 0, 62, 100
2, 5756, Note_off_c, 0, 59, 100
2, 5756, Note_off_c, 0, 69, 100
2, 5760, Note_on_c, 0, 67, 110
2, 5760, Note_on_c, 0, 59, 110
2, 5948, Note_off_c, 0, 67, 100
2, 5948, Note_off_c, 0, 59, 100
2, 6144, Note_on_c, 0, 73, 110
2, 6144, Note_on_c, 0, 70, 110
2, 6144, Note_on_c, 0, 61, 110
2, 6332, Note_off_c, 0, 73, 100
2, 6332, Note_off_c, 0, 70, 100
2, 6332, Note_off_c, 0, 61, 100
2, 6912, Note_on_c, 0, 73, 80
2, 6912, Note_on_c, 0, 70, 80
2, 7292, Note_off_c, 0, 73, 100
2, 7292, Note_off_c, 0, 70, 100
2, 7296, Note_on_c, 0, 73, 80
2, 7296, Note_on_c, 0, 70, 80
2, 7868, Note_off_c, 0, 73, 100
2, 7868, Note_off_c, 0, 70, 100
2, 7872, Note_on_c, 0, 71, 80
2, 8060, Note_off_c, 0, 71, 100
2, 8064, Note_on_c, 0, 73, 80
2, 8064, Note_on_c, 0, 70, 80
2, 8444, Note_off_c, 0, 73, 100
2, 8444, Note_off_c, 0, 70, 100
2, 8448, Note_on_c, 0, 74, 80
2, 8448, Note_on_c, 0, 71, 80
2, 8828, Note_off_c, 0, 74, 100
2, 8828, Note_off_c, 0, 71, 100
2, 9216, Note_on_c, 0, 74, 80
2, 9980, Note_off_c, 0, 74, 100
2, 9984, Note_on_c, 0, 79, 80
2, 10364, Note_off_c, 0, 79, 100
2, 10368, Note_on_c, 0, 76, 80
2, 10748, Note_off_c, 0, 76, 100
2, 10752, Note_on_c, 0, 74, 80
2, 11132, Note_off_c, 0, 74, 100
2, 11136, Note_on_c, 0, 72, 80
2, 11516, Note_off_c, 0, 72, 100
2, 11520, Note_on_c, 0, 72, 80
2, 12284, Note_off_c, 0, 72, 100
2, 12288, Note_on_c, 0, 81, 80
2, 12668, Note_off_c, 0, 81, 100
2, 12672, Note_on_c, 0, 72, 80
2, 13436, Note_off_c, 0, 72, 100
2, 13440, Note_on_c, 0, 71, 80
2, 13820, Note_off_c, 0, 71, 100
2, 13824, Note_on_c, 0, 71, 80
2, 14588, Note_off_c, 0, 71, 100
2, 14592, Note_on_c, 0, 67, 80
2, 14972, Note_off_c, 0, 67, 100
2, 14976, Note_on_c, 0, 67, 79
2, 15740, Note_off_c, 0, 67, 100
2, 15744, Note_on_c, 0, 64, 75
2, 16124, Note_off_c, 0, 64, 100
2, 16128, Note_on_c, 0, 64, 73
2, 16892, Note_off_c, 0, 64, 100
2, 17664, Note_on_c, 0, 59, 70
2, 17664, Note_on_c, 0, 51, 70
2, 18428, Note_off_c, 0, 59, 100
2, 18428, Note_off_c, 0, 51, 100
2, 18432, Note_on_c, 0, 76, 80
2, 18432, Note_on_c, 0, 88, 80
2, 19388, Note_off_c, 0, 76, 100
2, 19388, Note_off_c, 0, 88, 100
2, 19392, Note_on_c, 0, 87, 80
2, 19392, Note_on_c, 0, 75, 80
2, 19580, Note_off_c, 0, 87, 100
2, 19580, Note_off_c, 0, 75, 100
2, 19584, Note_on_c, 0, 88, 80
2, 19584, Note_on_c, 0, 76, 80
2, 19964, Note_off_c, 0, 88, 100
2, 19964, Note_off_c, 0, 76, 100
2, 19968, Note_on_c, 0, 66, 80
2, 19968, Note_on_c, 0, 64, 80
2, 19968, Note_on_c, 0, 60, 80
2, 20732, Note_off_c, 0, 66, 100
2, 20732, Note_off_c, 0, 64, 100
2, 20732, Note_off_c, 0, 60, 100
2, 20736, Note_on_c, 0, 66, 85
2, 20736, Note_on_c, 0, 64, 85
2, 20736, Note_on_c, 0, 61, 85
2, 21116, Note_off_c, 0, 66, 100
2, 21116, Note_off_c, 0, 64, 100
2, 21116, Note_off_c, 0, 61, 100
2, 21120, Note_on_c, 0, 66, 88
2, 21120, Note_on_c, 0, 57, 88
2, 21120, Note_on_c, 0, 63, 88
2, 21692, Note_off_c, 0, 66, 100
2, 21696, Note_on_c, 0, 67, 92
2, 21884, Note_off_c, 0, 67, 100
2, 21888, Note_on_c, 0, 69, 93
2, 22076, Note_off_c, 0, 69, 100
2, 22080, Note_on_c, 0, 67, 94
2, 22268, Note_off_c, 0, 57, 100
2, 22268, Note_off_c, 0, 63, 100
2, 22268, Note_off_c, 0, 67, 100
2, 22272, Note_on_c, 0, 66, 80
2, 22652, Note_off_c, 0, 66, 100
2, 22656, Note_on_c, 0, 64, 80
2, 23036, Note_off_c, 0, 64, 100
2, 23040, Note_on_c, 0, 76, 80
2, 23040, Note_on_c, 0, 88, 80
2, 23996, Note_off_c, 0, 76, 100
2, 23996, Note_off_c, 0, 88, 100
2, 24000, Note_on_c, 0, 87, 97
2, 24000, Note_on_c, 0, 75, 97
2, 24188, Note_off_c, 0, 87, 100
2, 24188, Note_off_c, 0, 75, 100
2, 24192, Note_on_c, 0, 88, 100
2, 24192, Note_on_c, 0, 76, 100
2, 24572, Note_off_c, 0, 88, 100
2, 24572, Note_off_c, 0, 76, 100
2, 24576, Note_on_c, 0, 66, 101
2, 24576, Note_on_c, 0, 64, 101
2, 24576, Note_on_c, 0, 60, 101
2, 25340, Note_off_c, 0, 66, 100
2, 25340, Note_off_c, 0, 64, 100
2, 25340, Note_off_c, 0, 60, 100
2, 25344, Note_on_c, 0, 66, 80
2, 25344, Note_on_c, 0, 64, 80
2, 25344, Note_on_c, 0, 61, 80
2, 25724, Note_off_c, 0, 66, 100
2, 25724, Note_off_c, 0, 64, 100
2, 25724, Note_off_c, 0, 61, 100
2, 25728, Note_on_c, 0, 63, 80
2, 25728, Note_on_c, 0, 57, 80
2, 25728, Note_on_c, 0, 66, 80
2, 26300, Note_off_c, 0, 66, 100
2, 26304, Note_on_c, 0, 69, 80
2, 26492, Note_off_c, 0, 69, 100
2, 26496, Note_on_c, 0, 67, 80
2, 26684, Note_off_c, 0, 67, 100
2, 26688, Note_on_c, 0, 66, 80
2, 26876, Note_off_c, 0, 63, 100
2, 26876, Note_off_c, 0, 57, 100
2, 26876, Note_off_c, 0, 66, 100
2, 26880, Note_on_c, 0, 64, 80
2, 26880, Note_on_c, 0, 55, 80
2, 27260, Note_off_c, 0, 64, 100
2, 27260, Note_off_c, 0, 55, 100
2, 27648, Note_on_c, 0, 71, 70
2, 27648, Note_on_c, 0, 59, 70
2, 28028, Note_off_c, 0, 71, 100
2, 28028, Note_off_c, 0, 59, 100
2, 28032, Note_on_c, 0, 71, 70
2, 28032, Note_on_c, 0, 59, 70
2, 28796, Note_off_c, 0, 71, 100
2, 28796, Note_off_c, 0, 59, 100
2, 28800, Note_on_c, 0, 76, 72
2, 28800, Note_on_c, 0, 64, 72
2, 29180, Note_off_c, 0, 76, 100
2, 29180, Note_off_c, 0, 64, 100
2, 29184, Note_on_c, 0, 76, 73
2, 29184, Note_on_c, 0, 64, 73
2, 29948, Note_off_c, 0, 76, 100
2, 29948, Note_off_c, 0, 64, 100
2, 29952, Note_on_c, 0, 83, 75
2, 29952, Note_on_c, 0, 71, 75
2, 30332, Note_off_c, 0, 83, 100
2, 30332, Note_off_c, 0, 71, 100
2, 30336, Note_on_c, 0, 83, 76
2, 30336, Note_on_c, 0, 71, 76
2, 31100, Note_off_c, 0, 83, 100
2, 31100, Note_off_c, 0, 71, 100
2, 31104, Note_on_c, 0, 88, 78
2, 31104, Note_on_c, 0, 76, 78
2, 31484, Note_off_c, 0, 88, 100
2, 31484, Note_off_c, 0, 76, 100
2, 31488, Note_on_c, 0, 88, 79
2, 31488, Note_on_c, 0, 76, 79
2, 32252, Note_off_c, 0, 88, 100
2, 32252, Note_off_c, 0, 76, 100
2, 32256, Note_on_c, 0, 89, 110
2, 32256, Note_on_c, 0, 86, 110
2, 32256, Note_on_c, 0, 83, 110
2, 32256, Note_on_c, 0, 77, 110
2, 32444, Note_off_c, 0, 89, 100
2, 32444, Note_off_c, 0, 86, 100
2, 32444, Note_off_c, 0, 83, 100
2, 32444, Note_off_c, 0, 77, 100
2, 32640, Note_on_c, 0, 89, 110
2, 32640, Note_on_c, 0, 86, 110
2, 32640, Note_on_c, 0, 83, 110
2, 32640, Note_on_c, 0, 77, 110
2, 33212, Note_off_c, 0, 89, 100
2, 33212, Note_off_c, 0, 86, 100
2, 33212, Note_off_c, 0, 83, 100
2, 33212, Note_off_c, 0, 77, 100
2, 33216, Note_on_c, 0, 88, 110
2, 33312, Note_on_c, 0, 86, 110
2, 33380, Note_off_c, 0, 88, 100
2, 33408, Note_on_c, 0, 84, 110
2, 33480, Note_off_c, 0, 86, 100
2, 33504, Note_on_c, 0, 83, 110
2, 33572, Note_off_c, 0, 84, 100
2, 33600, Note_on_c, 0, 81, 110
2, 33668, Note_off_c, 0, 83, 100
2, 33696, Note_on_c, 0, 79, 110
2, 33776, Note_off_c, 0, 81, 100
2, 33792, Note_on_c, 0, 77, 110
2, 33868, Note_off_c, 0, 79, 100
2, 33888, Note_on_c, 0, 76, 110
2, 33956, Note_off_c, 0, 77, 100
2, 33984, Note_on_c, 0, 74, 110
2, 34052, Note_off_c, 0, 76, 100
2, 34080, Note_on_c, 0, 72, 110
2, 34148, Note_off_c, 0, 74, 100
2, 34176, Note_on_c, 0, 71, 110
2, 34240, Note_on_c, 0, 69, 110
2, 34244, Note_off_c, 0, 72, 100
2, 34300, Note_off_c, 0, 71, 100
2, 34304, Note_on_c, 0, 67, 110
2, 34360, Note_off_c, 0, 69, 100
2, 34368, Note_on_c, 0, 65, 110
2, 34420, Note_off_c, 0, 67, 100
2, 34432, Note_on_c, 0, 64, 110
2, 34492, Note_off_c, 0, 65, 100
2, 34496, Note_on_c, 0, 62, 110
2, 34548, Note_off_c, 0, 64, 100
2, 34560, Note_on_c, 0, 60, 110
2, 34620, Note_off_c, 0, 62, 100
2, 34636, Note_on_c, 0, 59, 110
2, 34688, Note_off_c, 0, 60, 100
2, 34712, Note_on_c, 0, 57, 110
2, 34768, Note_off_c, 0, 59, 100
2, 34788, Note_on_c, 0, 55, 110
2, 34848, Note_off_c, 0, 57, 100
2, 34864, Note_on_c, 0, 54, 110
2, 34924, Note_off_c, 0, 55, 100
2, 34940, Note_off_c, 0, 54, 100
2, 34944, Note_on_c, 0, 55, 110
2, 35132, Note_off_c, 0, 55, 100
2, 35712, Note_on_c, 0, 65, 80
2, 35712, Note_on_c, 0, 62, 80
2, 35712, Note_on_c, 0, 55, 80
2, 35900, Note_off_c, 0, 65, 100
2, 35900, Note_off_c, 0, 62, 100
2, 35900, Note_off_c, 0, 55, 100
2, 36096, Note_on_c, 0, 64, 80
2, 36096, Note_on_c, 0, 60, 80
2, 36096, Note_on_c, 0, 55, 80
2, 36284, Note_off_c, 0, 64, 100
2, 36284, Note_off_c, 0, 60, 100
2, 36284, Note_off_c, 0, 55, 100
2, 36864, Note_on_c, 0, 86, 110
2, 36864, Note_on_c, 0, 83, 110
2, 36864, Note_on_c, 0, 80, 110
2, 36864, Note_on_c, 0, 74, 110
2, 37052, Note_off_c, 0, 86, 100
2, 37052, Note_off_c, 0, 83, 100
2, 37052, Note_off_c, 0, 80, 100
2, 37052, Note_off_c, 0, 74, 100
2, 37248, Note_on_c, 0, 86, 110
2, 37248, Note_on_c, 0, 83, 110
2, 37248, Note_on_c, 0, 80, 110
2, 37248, Note_on_c, 0, 74, 110
2, 37820, Note_off_c, 0, 86, 100
2, 37820, Note_off_c, 0, 83, 100
2, 37820, Note_off_c, 0, 80, 100
2, 37820, Note_off_c, 0, 74, 100
2, 37824, Note_on_c, 0, 84, 110
2, 37920, Note_on_c, 0, 83, 110
2, 37984, Note_off_c, 0, 84, 100
2, 38016, Note_on_c, 0, 81, 110
2, 38088, Note_off_c, 0, 83, 100
2, 38112, Note_on_c, 0, 80, 110
2, 38192, Note_off_c, 0, 81, 100
2, 38208, Note_on_c, 0, 78, 110
2, 38292, Note_off_c, 0, 80, 100
2, 38304, Note_on_c, 0, 76, 110
2, 38372, Note_off_c, 0, 78, 100
2, 38400, Note_on_c, 0, 74, 110
2, 38476, Note_off_c, 0, 76, 100
2, 38496, Note_on_c, 0, 72, 110
2, 38572, Note_off_c, 0, 74, 100
2, 38592, Note_on_c, 0, 71, 110
2, 38660, Note_off_c, 0, 72, 100
2, 38688, Note_on_c, 0, 69, 110
2, 38756, Note_off_c, 0, 71, 100
2, 38784, Note_on_c, 0, 68, 110
2, 38848, Note_off_c, 0, 69, 100
2, 38848, Note_on_c, 0, 66, 110
2, 38900, Note_off_c, 0, 68, 100
2, 38912, Note_on_c, 0, 64, 110
2, 38972, Note_off_c, 0, 66, 100
2, 38976, Note_on_c, 0, 62, 110
2, 39036, Note_off_c, 0, 64, 100
2, 39040, Note_on_c, 0, 60, 110
2, 39096, Note_off_c, 0, 62, 100
2, 39104, Note_on_c, 0, 59, 110
2, 39164, Note_off_c, 0, 60, 100
2, 39168, Note_on_c, 0, 57, 110
2, 39200, Note_off_c, 0, 59, 100
2, 39244, Note_on_c, 0, 56, 110
2, 39292, Note_off_c, 0, 57, 100
2, 39320, Note_on_c, 0, 54, 110
2, 39376, Note_off_c, 0, 56, 100
2, 39396, Note_on_c, 0, 52, 110
2, 39440, Note_off_c, 0, 54, 100
2, 39472, Note_on_c, 0, 51, 110
2, 39528, Note_off_c, 0, 52, 100
2, 39548, Note_off_c, 0, 51, 100
2, 39552, Note_on_c, 0, 52, 110
2, 39932, Note_off_c, 0, 52, 100
2, 40320, Note_on_c, 0, 62, 110
2, 40320, Note_on_c, 0, 59, 110
2, 40320, Note_on_c, 0, 52, 110
2, 40508, Note_off_c, 0, 62, 100
2, 40508, Note_off_c, 0, 59, 100
2, 40508, Note_off_c, 0, 52, 100
2, 40704, Note_on_c, 0, 60, 110
2, 40704, Note_on_c, 0, 57, 110
2, 40704, Note_on_c, 0, 52, 110
2, 40892, Note_off_c, 0, 60, 100
2, 40892, Note_off_c, 0, 57, 100
2, 40892, Note_off_c, 0, 52, 100
2, 41472, Note_on_c, 0, 82, 80
2, 41852, Note_off_c, 0, 82, 100
2, 41856, Note_on_c, 0, 82, 80
2, 42428, Note_off_c, 0, 82, 100
2, 42432, Note_on_c, 0, 81, 80
2, 42528, Note_on_c, 0, 79, 80
2, 42616, Note_off_c, 0, 81, 100
2, 42624, Note_on_c, 0, 77, 80
2, 42696, Note_off_c, 0, 79, 100
2, 42720, Note_on_c, 0, 75, 80
2, 42792, Note_off_c, 0, 77, 100
2, 42816, Note_on_c, 0, 74, 80
2, 42908, Note_off_c, 0, 75, 100
2, 42912, Note_on_c, 0, 72, 80
2, 42988, Note_off_c, 0, 74, 100
2, 43008, Note_on_c, 0, 70, 80
2, 43084, Note_off_c, 0, 72, 100
2, 43104, Note_on_c, 0, 69, 80
2, 43176, Note_off_c, 0, 70, 100
2, 43200, Note_on_c, 0, 67, 80
2, 43272, Note_off_c, 0, 69, 100
2, 43296, Note_on_c, 0, 65, 80
2, 43372, Note_off_c, 0, 67, 100
2, 43392, Note_on_c, 0, 63, 80
2, 43468, Note_off_c, 0, 65, 100
2, 43520, Note_on_c, 0, 62, 80
2, 43600, Note_off_c, 0, 63, 100
2, 43648, Note_on_c, 0, 60, 80
2, 43736, Note_off_c, 0, 62, 100
2, 43776, Note_on_c, 0, 58, 80
2, 43840, Note_off_c, 0, 60, 100
2, 44156, Note_off_c, 0, 58, 100
2, 44160, Note_on_c, 0, 58, 80
2, 46076, Note_off_c, 0, 58, 100
2, 46080, Note_on_c, 0, 67, 80
2, 46460, Note_off_c, 0, 67, 100
2, 46464, Note_on_c, 0, 67, 80
2, 47228, Note_off_c, 0, 67, 100
2, 47232, Note_on_c, 0, 73, 80
2, 47232, Note_on_c, 0, 67, 80
2, 47612, Note_off_c, 0, 73, 100
2, 47612, Note_off_c, 0, 67, 100
2, 47616, Note_on_c, 0, 73, 80
2, 47616, Note_on_c, 0, 67, 80
2, 48380, Note_off_c, 0, 73, 100
2, 48380, Note_off_c, 0, 67, 100
2, 48384, Note_on_c, 0, 79, 95
2, 48384, Note_on_c, 0, 76, 95
2, 48384, Note_on_c, 0, 73, 95
2, 48764, Note_off_c, 0, 79, 100
2, 48764, Note_off_c, 0, 76, 100
2, 48764, Note_off_c, 0, 73, 100
2, 48768, Note_on_c, 0, 76, 97
2, 48768, Note_on_c, 0, 73, 97
2, 48768, Note_on_c, 0, 79, 97
2, 49532, Note_off_c, 0, 79, 100
2, 49536, Note_on_c, 0, 78, 102
2, 49916, Note_off_c, 0, 78, 100
2, 49920, Note_on_c, 0, 77, 104
2, 50684, Note_off_c, 0, 73, 100
2, 50684, Note_off_c, 0, 76, 100
2, 50684, Note_off_c, 0, 77, 100
2, 50688, Note_on_c, 0, 78, 109
2, 50688, Note_on_c, 0, 76, 109
2, 50688, Note_on_c, 0, 73, 109
2, 51068, Note_off_c, 0, 78, 100
2, 51068, Note_off_c, 0, 76, 100
2, 51068, Note_off_c, 0, 73, 100
2, 51072, Note_on_c, 0, 78, 110
2, 51072, Note_on_c, 0, 74, 110
2, 51072, Note_on_c, 0, 71, 110
2, 52220, Note_off_c, 0, 78, 100
2, 52220, Note_off_c, 0, 74, 100
2, 52220, Note_off_c, 0, 71, 100
2, 52224, Note_on_c, 0, 83, 110
2, 52224, Note_on_c, 0, 78, 110
2, 52224, Note_on_c, 0, 71, 110
2, 53372, Note_off_c, 0, 83, 100
2, 53372, Note_off_c, 0, 78, 100
2, 53372, Note_off_c, 0, 71, 100
2, 53376, Note_on_c, 0, 71, 110
2, 53376, Note_on_c, 0, 66, 110
2, 53564, Note_off_c, 0, 71, 100
2, 53564, Note_off_c, 0, 66, 100
2, 53760, Note_on_c, 0, 72, 110
2, 53760, Note_on_c, 0, 60, 110
2, 53948, Note_off_c, 0, 72, 100
2, 53948, Note_off_c, 0, 60, 100
2, 54528, Note_on_c, 0, 72, 110
2, 54528, Note_on_c, 0, 67, 110
2, 54716, Note_off_c, 0, 72, 100
2, 54716, Note_off_c, 0, 67, 100
2, 54912, Note_on_c, 0, 75, 110
2, 54912, Note_on_c, 0, 63, 110
2, 55100, Note_off_c, 0, 75, 100
2, 55100, Note_off_c, 0, 63, 100
2, 55680, Note_on_c, 0, 75, 110
2, 55680, Note_on_c, 0, 69, 110
2, 55868, Note_off_c, 0, 75, 100
2, 55868, Note_off_c, 0, 69, 100
2, 56064, Note_on_c, 0, 76, 110
2, 56064, Note_on_c, 0, 64, 110
2, 56252, Note_off_c, 0, 76, 100
2, 56252, Note_off_c, 0, 64, 100
2, 56832, Note_on_c, 0, 76, 110
2, 56832, Note_on_c, 0, 71, 110
2, 57020, Note_off_c, 0, 76, 100
2, 57020, Note_off_c, 0, 71, 100
2, 57216, Note_on_c, 0, 77, 110
2, 57216, Note_on_c, 0, 65, 110
2, 57404, Note_off_c, 0, 77, 100
2, 57404, Note_off_c, 0, 65, 100
2, 57984, Note_on_c, 0, 76, 70
2, 57984, Note_on_c, 0, 71, 70
2, 57984, Note_on_c, 0, 68, 70
2, 58172, Note_off_c, 0, 76, 100
2, 58172, Note_off_c, 0, 71, 100
2, 58172, Note_off_c, 0, 68, 100
2, 58176, Note_on_c, 0, 77, 70
2, 58176, Note_on_c, 0, 71, 70
2, 58176, Note_on_c, 0, 68, 70
2, 58364, Note_off_c, 0, 77, 100
2, 58364, Note_off_c, 0, 71, 100
2, 58364, Note_off_c, 0, 68, 100
2, 58368, Note_on_c, 0, 77, 70
2, 58368, Note_on_c, 0, 71, 70
2, 58368, Note_on_c, 0, 68, 70
2, 58556, Note_off_c, 0, 77, 100
2, 58556, Note_off_c, 0, 71, 100
2, 58556, Note_off_c, 0, 68, 100
2, 58560, Note_on_c, 0, 77, 70
2, 58560, Note_on_c, 0, 71, 70
2, 58560, Note_on_c, 0, 68, 70
2, 58748, Note_off_c, 0, 77, 100
2, 58748, Note_off_c, 0, 71, 100
2, 58748, Note_off_c, 0, 68, 100
2, 58752, Note_on_c, 0, 77, 70
2, 58752, Note_on_c, 0, 71, 70
2, 58752, Note_on_c, 0, 68, 70
2, 58940, Note_off_c, 0, 77, 100
2, 58940, Note_off_c, 0, 71, 100
2, 58940, Note_off_c, 0, 68, 100
2, 58944, Note_on_c, 0, 77, 70
2, 58944, Note_on_c, 0, 71, 70
2, 58944, Note_on_c, 0, 68, 70
2, 59132, Note_off_c, 0, 77, 100
2, 59132, Note_off_c, 0, 71, 100
2, 59132, Note_off_c, 0, 68, 100
2, 59136, Note_on_c, 0, 77, 70
2, 59136, Note_on_c, 0, 71, 70
2, 59136, Note_on_c, 0, 68, 70
2, 59324, Note_off_c, 0, 77, 100
2, 59324, Note_off_c, 0, 71, 100
2, 59324, Note_off_c, 0, 68, 100
2, 59328, Note_on_c, 0, 77, 76
2, 59328, Note_on_c, 0, 71, 76
2, 59328, Note_on_c, 0, 68, 76
2, 59516, Note_off_c, 0, 77, 100
2, 59516, Note_off_c, 0, 71, 100
2, 59516, Note_off_c, 0, 68, 100
2, 59520, Note_on_c, 0, 77, 82
2, 59520, Note_on_c, 0, 71, 82
2, 59520, Note_on_c, 0, 68, 82
2, 59708, Note_off_c, 0, 77, 100
2, 59708, Note_off_c, 0, 71, 100
2, 59708, Note_off_c, 0, 68, 100
2, 59712, Note_on_c, 0, 77, 88
2, 59712, Note_on_c, 0, 71, 88
2, 59712, Note_on_c, 0, 68, 88
2, 59900, Note_off_c, 0, 77, 100
2, 59900, Note_off_c, 0, 71, 100
2, 59900, Note_off_c, 0, 68, 100
2, 59904, Note_on_c, 0, 77, 94
2, 59904, Note_on_c, 0, 71, 94
2, 59904, Note_on_c, 0, 68, 94
2, 60092, Note_off_c, 0, 77, 100
2, 60092, Note_off_c, 0, 71, 100
2, 60092, Note_off_c, 0, 68, 100
2, 60096, Note_on_c, 0, 77, 100
2, 60096, Note_on_c, 0, 71, 100
2, 60096, Note_on_c, 0, 68, 100
2, 60284, Note_off_c, 0, 77, 100
2, 60284, Note_off_c, 0, 71, 100
2, 60284, Note_off_c, 0, 68, 100
2, 60288, Note_on_c, 0, 90, 120
2, 60288, Note_on_c, 0, 88, 120
2, 60288, Note_on_c, 0, 85, 120
2, 60288, Note_on_c, 0, 82, 120
2, 60288, Note_on_c, 0, 78, 120
2, 60476, Note_off_c, 0, 90, 100
2, 60476, Note_off_c, 0, 88, 100
2, 60476, Note_off_c, 0, 85, 100
2, 60476, Note_off_c, 0, 82, 100
2, 60476, Note_off_c, 0, 78, 100
2, 60480, Note_on_c, 0, 91, 120
2, 60480, Note_on_c, 0, 88, 120
2, 60480, Note_on_c, 0, 85, 120
2, 60480, Note_on_c, 0, 82, 120
2, 60480, Note_on_c, 0, 79, 120
2, 60668, Note_off_c, 0, 91, 100
2, 60668, Note_off_c, 0, 88, 100
2, 60668, Note_off_c, 0, 85, 100
2, 60668, Note_off_c, 0, 82, 100
2, 60668, Note_off_c, 0, 79, 100
2, 60672, Note_on_c, 0, 91, 120
2, 60672, Note_on_c, 0, 88, 120
2, 60672, Note_on_c, 0, 85, 120
2, 60672, Note_on_c, 0, 82, 120
2, 60672, Note_on_c, 0, 79, 120
2, 60860, Note_off_c, 0, 91, 100
2, 60860, Note_off_c, 0, 88, 100
2, 60860, Note_off_c, 0, 85, 100
2, 60860, Note_off_c, 0, 82, 100
2, 60860, Note_off_c, 0, 79, 100
2, 60864, Note_on_c, 0, 91, 120
2, 60864, Note_on_c, 0, 88, 120
2, 60864, Note_on_c, 0, 85, 120
2, 60864, Note_on_c, 0, 82, 120
2, 60864, Note_on_c, 0, 79, 120
2, 61052, Note_off_c, 0, 91, 100
2, 61052, Note_off_c, 0, 88, 100
2, 61052, Note_off_c, 0, 85, 100
2, 61052, Note_off_c, 0, 82, 100
2, 61052, Note_off_c, 0, 79, 100
2, 61056, Note_on_c, 0, 91, 120
2, 61056, Note_on_c, 0, 88, 120
2, 61056, Note_on_c, 0, 85, 120
2, 61056, Note_on_c, 0, 82, 120
2, 61056, Note_on_c, 0, 79, 120
2, 61244, Note_off_c, 0, 91, 100
2, 61244, Note_off_c, 0, 88, 100
2, 61244, Note_off_c, 0, 85, 100
2, 61244, Note_off_c, 0, 82, 100
2, 61244, Note_off_c, 0, 79, 100
2, 61248, Note_on_c, 0, 91, 120
2, 61248, Note_on_c, 0, 88, 120
2, 61248, Note_on_c, 0, 85, 120
2, 61248, Note_on_c, 0, 82, 120
2, 61248, Note_on_c, 0, 79, 120
2, 61436, Note_off_c, 0, 91, 100
2, 61436, Note_off_c, 0, 88, 100
2, 61436, Note_off_c, 0, 85, 100
2, 61436, Note_off_c, 0, 82, 100
2, 61436, Note_off_c, 0, 79, 100
2, 61440, Note_on_c, 0, 91, 115
2, 61440, Note_on_c, 0, 88, 115
2, 61440, Note_on_c, 0, 85, 115
2, 61440, Note_on_c, 0, 82, 115
2, 61440, Note_on_c, 0, 79, 115
2, 61628, Note_off_c, 0, 91, 100
2, 61628, Note_off_c, 0, 88, 100
2, 61628, Note_off_c, 0, 85, 100
2, 61628, Note_off_c, 0, 82, 100
2, 61628, Note_off_c, 0, 79, 100
2, 61632, Note_on_c, 0, 91, 111
2, 61632, Note_on_c, 0, 88, 111
2, 61632, Note_on_c, 0, 85, 111
2, 61632, Note_on_c, 0, 82, 111
2, 61632, Note_on_c, 0, 79, 111
2, 61820, Note_off_c, 0, 91, 100
2, 61820, Note_off_c, 0, 88, 100
2, 61820, Note_off_c, 0, 85, 100
2, 61820, Note_off_c, 0, 82, 100
2, 61820, Note_off_c, 0, 79, 100
2, 61824, Note_on_c, 0, 91, 106
2, 61824, Note_on_c, 0, 88, 106
2, 61824, Note_on_c, 0, 85, 106
2, 61824, Note_on_c, 0, 82, 106
2, 61824, Note_on_c, 0, 79, 106
2, 62012, Note_off_c, 0, 91, 100
2, 62012, Note_off_c, 0, 88, 100
2, 62012, Note_off_c, 0, 85, 100
2, 62012, Note_off_c, 0, 82, 100
2, 62012, Note_off_c, 0, 79, 100
2, 62016, Note_on_c, 0, 91, 101
2, 62016, Note_on_c, 0, 88, 101
2, 62016, Note_on_c, 0, 85, 101
2, 62016, Note_on_c, 0, 82, 101
2, 62016, Note_on_c, 0, 79, 101
2, 62204, Note_off_c, 0, 91, 100
2, 62204, Note_off_c, 0, 88, 100
2, 62204, Note_off_c, 0, 85, 100
2, 62204, Note_off_c, 0, 82, 100
2, 62204, Note_off_c, 0, 79, 100
2, 62208, Note_on_c, 0, 91, 96
2, 62208, Note_on_c, 0, 88, 96
2, 62208, Note_on_c, 0, 85, 96
2, 62208, Note_on_c, 0, 82, 96
2, 62208, Note_on_c, 0, 79, 96
2, 62396, Note_off_c, 0, 91, 100
2, 62396, Note_off_c, 0, 88, 100
2, 62396, Note_off_c, 0, 85, 100
2, 62396, Note_off_c, 0, 82, 100
2, 62396, Note_off_c, 0, 79, 100
2, 62400, Note_on_c, 0, 91, 91
2, 62400, Note_on_c, 0, 88, 91
2, 62400, Note_on_c, 0, 85, 91
2, 62400, Note_on_c, 0, 82, 91
2, 62400, Note_on_c, 0, 79, 91
2, 62588, Note_off_c, 0, 91, 100
2, 62588, Note_off_c, 0, 88, 100
2, 62588, Note_off_c, 0, 85, 100
2, 62588, Note_off_c, 0, 82, 100
2, 62588, Note_off_c, 0, 79, 100
2, 62592, Note_on_c, 0, 91, 80
2, 62592, Note_on_c, 0, 79, 80
2, 62972, Note_off_c, 0, 91, 100
2, 62972, Note_off_c, 0, 79, 100
2, 62976, Note_on_c, 0, 90, 80
2, 62976, Note_on_c, 0, 78, 80
2, 64124, Note_off_c, 0, 78, 100
2, 64124, Note_off_c, 0, 90, 100
2, 64128, Note_on_c, 0, 83, 80
2, 64128, Note_on_c, 0, 71, 80
2, 65276, Note_off_c, 0, 71, 100
2, 65276, Note_off_c, 0, 83, 100
2, 65280, Note_on_c, 0, 78, 80
2, 65280, Note_on_c, 0, 66, 80
2, 66428, Note_off_c, 0, 66, 100
2, 66428, Note_off_c, 0, 78, 100
2, 66432, Note_on_c, 0, 71, 80
2, 66432, Note_on_c, 0, 59, 80
2, 67196, Note_off_c, 0, 59, 100
2, 67580, Note_off_c, 0, 71, 100
2, 67584, Note_on_c, 0, 67, 80
2, 67964, Note_off_c, 0, 67, 100
2, 67968, Note_on_c, 0, 66, 80
2, 68348, Note_off_c, 0, 66, 100
2, 68352, Note_on_c, 0, 66, 80
2, 69116, Note_off_c, 0, 66, 100
2, 69120, Note_on_c, 0, 70, 80
2, 69500, Note_off_c, 0, 70, 100
2, 69696, Note_on_c, 0, 79, 80
2, 69884, Note_off_c, 0, 79, 100
2, 69888, Note_on_c, 0, 91, 80
2, 70460, Note_off_c, 0, 91, 100
2, 70464, Note_on_c, 0, 90, 80
2, 70652, Note_off_c, 0, 90, 100
2, 70848, Note_on_c, 0, 90, 80
2, 71036, Note_off_c, 0, 90, 100
2, 71040, Note_on_c, 0, 85, 80
2, 71612, Note_off_c, 0, 85, 100
2, 71616, Note_on_c, 0, 83, 80
2, 71804, Note_off_c, 0, 83, 100
2, 72000, Note_on_c, 0, 83, 80
2, 72188, Note_off_c, 0, 83, 100
2, 72192, Note_on_c, 0, 79, 80
2, 72764, Note_off_c, 0, 79, 100
2, 72768, Note_on_c, 0, 78, 80
2, 72956, Note_off_c, 0, 78, 100
2, 73152, Note_on_c, 0, 78, 80
2, 73340, Note_off_c, 0, 78, 100
2, 73344, Note_on_c, 0, 73, 80
2, 73916, Note_off_c, 0, 73, 100
2, 73920, Note_on_c, 0, 71, 80
2, 74108, Note_off_c, 0, 71, 100
2, 74112, Note_on_c, 0, 71, 80
2, 74492, Note_off_c, 0, 71, 100
2, 74496, Note_on_c, 0, 67, 80
2, 74876, Note_off_c, 0, 67, 100
2, 74880, Note_on_c, 0, 66, 80
2, 75260, Note_off_c, 0, 66, 100
2, 75264, Note_on_c, 0, 66, 80
2, 75452, Note_off_c, 0, 66, 100
2, 75456, Note_on_c, 0, 62, 80
2, 75644, Note_off_c, 0, 62, 100
2, 75648, Note_on_c, 0, 59, 80
2, 75836, Note_off_c, 0, 59, 100
2, 75840, Note_on_c, 0, 55, 80
2, 76028, Note_off_c, 0, 55, 100
2, 76032, Note_on_c, 0, 54, 80
2, 76220, Note_off_c, 0, 54, 100
2, 76224, Note_on_c, 0, 58, 80
2, 76412, Note_off_c, 0, 58, 100
2, 76416, Note_on_c, 0, 59, 110
2, 76796, Note_off_c, 0, 59, 100
2, 77568, Note_on_c, 0, 59, 110
2, 77568, Note_on_c, 0, 55, 110
2, 78716, Note_off_c, 0, 59, 100
2, 78716, Note_off_c, 0, 55, 100
2, 78720, Note_on_c, 0, 55, 80
2, 78720, Note_on_c, 0, 60, 80
2, 79484, Note_off_c, 0, 60, 100
2, 79488, Note_on_c, 0, 67, 80
2, 79868, Note_off_c, 0, 55, 100
2, 79872, Note_on_c, 0, 64, 80
2, 79872, Note_on_c, 0, 61, 80
2, 79872, Note_on_c, 0, 58, 80
2, 80636, Note_off_c, 0, 67, 100
2, 80640, Note_on_c, 0, 66, 80
2, 81020, Note_off_c, 0, 64, 100
2, 81020, Note_off_c, 0, 61, 100
2, 81020, Note_off_c, 0, 58, 100
2, 81020, Note_off_c, 0, 66, 100
2, 81024, Note_on_c, 0, 59, 80
2, 81024, Note_on_c, 0, 66, 80
2, 81024, Note_on_c, 0, 62, 80
2, 81404, Note_off_c, 0, 59, 100
2, 81404, Note_off_c, 0, 66, 100
2, 81404, Note_off_c, 0, 62, 100
2, 82176, Note_on_c, 0, 59, 80
2, 82176, Note_on_c, 0, 55, 80
2, 83324, Note_off_c, 0, 59, 100
2, 83324, Note_off_c, 0, 55, 100
2, 83328, Note_on_c, 0, 55, 80
2, 83328, Note_on_c, 0, 60, 80
2, 84092, Note_off_c, 0, 60, 100
2, 84096, Note_on_c, 0, 67, 80
2, 84476, Note_off_c, 0, 55, 100
2, 84480, Note_on_c, 0, 64, 80
2, 84480, Note_on_c, 0, 61, 80
2, 84480, Note_on_c, 0, 58, 80
2, 85244, Note_off_c, 0, 67, 100
2, 85248, Note_on_c, 0, 66, 80
2, 85628, Note_off_c, 0, 64, 100
2, 85628, Note_off_c, 0, 61, 100
2, 85628, Note_off_c, 0, 58, 100
2, 85628, Note_off_c, 0, 66, 100
2, 86400, Note_on_c, 0, 67, 80
2, 86784, Note_on_c, 0, 62, 79
2, 86784, Note_on_c, 0, 59, 79
2, 87548, Note_off_c, 0, 67, 100
2, 87552, Note_on_c, 0, 66, 77
2, 87932, Note_off_c, 0, 62, 100
2, 87932, Note_off_c, 0, 59, 100
2, 87932, Note_off_c, 0, 66, 100
2, 88704, Note_on_c, 0, 67, 74
2, 89088, Note_on_c, 0, 64, 73
2, 89088, Note_on_c, 0, 61, 73
2, 89852, Note_off_c, 0, 67, 100
2, 89856, Note_on_c, 0, 70, 71
2, 90236, Note_off_c, 0, 64, 100
2, 90236, Note_off_c, 0, 61, 100
2, 90236, Note_off_c, 0, 70, 100
2, 90240, Note_on_c, 0, 71, 70
2, 90240, Note_on_c, 0, 62, 70
2, 90240, Note_on_c, 0, 59, 70
2, 90620, Note_off_c, 0, 71, 100
2, 90620, Note_off_c, 0, 62, 100
2, 90620, Note_off_c, 0, 59, 100
2, 91392, Note_on_c, 0, 71, 70
2, 91392, Note_on_c, 0, 62, 70
2, 91392, Note_on_c, 0, 59, 70
2, 91772, Note_off_c, 0, 71, 100
2, 91772, Note_off_c, 0, 62, 100
2, 91772, Note_off_c, 0, 59, 100
2, 92544, Note_on_c, 0, 71, 70
2, 92544, Note_on_c, 0, 62, 70
2, 92544, Note_on_c, 0, 59, 70
2, 92924, Note_off_c, 0, 71, 100
2, 92924, Note_off_c, 0, 62, 100
2, 92924, Note_off_c, 0, 59, 100
2, 93696, Note_on_c, 0, 71, 70
2, 94844, Note_off_c, 0, 71, 100
2, 94848, Note_on_c, 0, 71, 70
2, 95996, Note_off_c, 0, 71, 100
2, 96000, Note_on_c, 0, 71, 70
2, 96764, Note_off_c, 0, 71, 100
2, 96768, Note_on_c, 0, 71, 80
2, 96768, Note_on_c, 0, 81, 80
2, 96956, Note_off_c, 0, 71, 100
2, 96960, Note_on_c, 0, 71, 80
2, 97148, Note_off_c, 0, 81, 100
2, 97148, Note_off_c, 0, 71, 100
2, 97152, Note_on_c, 0, 71, 80
2, 97152, Note_on_c, 0, 81, 80
2, 97340, Note_off_c, 0, 71, 100
2, 97344, Note_on_c, 0, 71, 80
2, 97532, Note_off_c, 0, 71, 100
2, 97536, Note_on_c, 0, 71, 80
2, 97724, Note_off_c, 0, 81, 100
2, 97724, Note_off_c, 0, 71, 100
2, 97728, Note_on_c, 0, 71, 80
2, 97728, Note_on_c, 0, 79, 80
2, 97916, Note_off_c, 0, 71, 100
2, 97916, Note_off_c, 0, 79, 100
2, 97920, Note_on_c, 0, 71, 80
2, 97920, Note_on_c, 0, 78, 80
2, 98108, Note_off_c, 0, 71, 100
2, 98108, Note_off_c, 0, 78, 100
2, 98112, Note_on_c, 0, 71, 80
2, 98300, Note_off_c, 0, 71, 100
2, 98304, Note_on_c, 0, 71, 80
2, 98304, Note_on_c, 0, 83, 80
2, 98304, Note_on_c, 0, 79, 80
2, 98492, Note_off_c, 0, 71, 100
2, 98496, Note_on_c, 0, 71, 80
2, 98684, Note_off_c, 0, 83, 100
2, 98684, Note_off_c, 0, 79, 100
2, 98684, Note_off_c, 0, 71, 100
2, 98688, Note_on_c, 0, 71, 80
2, 98876, Note_off_c, 0, 71, 100
2, 98880, Note_on_c, 0, 71, 80
2, 99068, Note_off_c, 0, 71, 100
2, 99072, Note_on_c, 0, 71, 80
2, 99072, Note_on_c, 0, 83, 80
2, 99072, Note_on_c, 0, 79, 80
2, 99260, Note_off_c, 0, 71, 100
2, 99264, Note_on_c, 0, 71, 80
2, 99452, Note_off_c, 0, 83, 100
2, 99452, Note_off_c, 0, 79, 100
2, 99452, Note_off_c, 0, 71, 100
2, 99456, Note_on_c, 0, 71, 80
2, 99456, Note_on_c, 0, 83, 80
2, 99456, Note_on_c, 0, 80, 80
2, 99644, Note_off_c, 0, 71, 100
2, 99648, Note_on_c, 0, 71, 80
2, 99836, Note_off_c, 0, 71, 100
2, 99840, Note_on_c, 0, 71, 80
2, 100028, Note_off_c, 0, 83, 100
2, 100028, Note_off_c, 0, 80, 100
2, 100028, Note_off_c, 0, 71, 100
2, 100032, Note_on_c, 0, 71, 80
2, 100032, Note_on_c, 0, 81, 80
2, 100220, Note_off_c, 0, 71, 100
2, 100220, Note_off_c, 0, 81, 100
2, 100224, Note_on_c, 0, 71, 80
2, 100224, Note_on_c, 0, 83, 80
2, 100224, Note_on_c, 0, 80, 80
2, 100412, Note_off_c, 0, 71, 100
2, 100412, Note_off_c, 0, 83, 100
2, 100412, Note_off_c, 0, 80, 100
2, 100416, Note_on_c, 0, 71, 80
2, 100604, Note_off_c, 0, 71, 100
2, 100608, Note_on_c, 0, 84, 80
2, 100608, Note_on_c, 0, 81, 80
2, 100608, Note_on_c, 0, 72, 80
2, 100988, Note_off_c, 0, 84, 100
2, 100988, Note_off_c, 0, 81, 100
2, 100988, Note_off_c, 0, 72, 100
2, 101376, Note_on_c, 0, 84, 80
2, 101376, Note_on_c, 0, 72, 80
2, 101756, Note_off_c, 0, 84, 100
2, 101756, Note_off_c, 0, 72, 100
2, 101760, Note_on_c, 0, 84, 83
2, 101760, Note_on_c, 0, 72, 83
2, 102332, Note_off_c, 0, 84, 100
2, 102332, Note_off_c, 0, 72, 100
2, 102336, Note_on_c, 0, 83, 87
2, 102336, Note_on_c, 0, 71, 87
2, 102524, Note_off_c, 0, 83, 100
2, 102524, Note_off_c, 0, 71, 100
2, 102528, Note_on_c, 0, 81, 89
2, 102528, Note_on_c, 0, 69, 89
2, 102716, Note_off_c, 0, 81, 100
2, 102716, Note_off_c, 0, 69, 100
2, 102912, Note_on_c, 0, 86, 92
2, 102912, Note_on_c, 0, 74, 92
2, 103292, Note_off_c, 0, 86, 100
2, 103292, Note_off_c, 0, 74, 100
2, 103680, Note_on_c, 0, 86, 98
2, 103680, Note_on_c, 0, 74, 98
2, 104060, Note_off_c, 0, 86, 100
2, 104060, Note_off_c, 0, 74, 100
2, 104064, Note_on_c, 0, 86, 102
2, 104064, Note_on_c, 0, 74, 102
2, 104636, Note_off_c, 0, 86, 100
2, 104636, Note_off_c, 0, 74, 100
2, 104640, Note_on_c, 0, 84, 106
2, 104640, Note_on_c, 0, 72, 106
2, 104828, Note_off_c, 0, 84, 100
2, 104828, Note_off_c, 0, 72, 100
2, 104832, Note_on_c, 0, 86, 108
2, 104832, Note_on_c, 0, 74, 108
2, 105020, Note_off_c, 0, 86, 100
2, 105020, Note_off_c, 0, 74, 100
2, 105216, Note_on_c, 0, 87, 110
2, 105216, Note_on_c, 0, 75, 110
2, 105788, Note_off_c, 0, 87, 100
2, 105788, Note_off_c, 0, 75, 100
2, 105792, Note_on_c, 0, 86, 110
2, 105792, Note_on_c, 0, 74, 110
2, 105980, Note_off_c, 0, 86, 100
2, 105980, Note_off_c, 0, 74, 100
2, 105984, Note_on_c, 0, 87, 110
2, 105984, Note_on_c, 0, 75, 110
2, 106172, Note_off_c, 0, 87, 100
2, 106172, Note_off_c, 0, 75, 100
2, 106368, Note_on_c, 0, 63, 110
2, 106940, Note_off_c, 0, 63, 100
2, 106944, Note_on_c, 0, 62, 110
2, 107132, Note_off_c, 0, 62, 100
2, 107136, Note_on_c, 0, 63, 110
2, 107324, Note_off_c, 0, 63, 100
2, 107520, Note_on_c, 0, 66, 110
2, 107520, Note_on_c, 0, 63, 110
2, 108092, Note_off_c, 0, 66, 100
2, 108092, Note_off_c, 0, 63, 100
2, 108096, Note_on_c, 0, 65, 110
2, 108096, Note_on_c, 0, 62, 110
2, 108284, Note_off_c, 0, 65, 100
2, 108284, Note_off_c, 0, 62, 100
2, 108288, Note_on_c, 0, 66, 110
2, 108288, Note_on_c, 0, 63, 110
2, 108476, Note_off_c, 0, 66, 100
2, 108476, Note_off_c, 0, 63, 100
2, 108672, Note_on_c, 0, 78, 110
2, 108672, Note_on_c, 0, 75, 110
2, 109244, Note_off_c, 0, 78, 100
2, 109244, Note_off_c, 0, 75, 100
2, 109248, Note_on_c, 0, 77, 110
2, 109248, Note_on_c, 0, 74, 110
2, 109436, Note_off_c, 0, 77, 100
2, 109436, Note_off_c, 0, 74, 100
2, 109440, Note_on_c, 0, 78, 110
2, 109440, Note_on_c, 0, 75, 110
2, 109628, Note_off_c, 0, 78, 100
2, 109628, Note_off_c, 0, 75, 100
2, 109824, Note_on_c, 0, 84, 110
2, 109824, Note_on_c, 0, 72, 110
2, 110396, Note_off_c, 0, 84, 100
2, 110396, Note_off_c, 0, 72, 100
2, 110400, Note_on_c, 0, 83, 110
2, 110400, Note_on_c, 0, 71, 110
2, 110588, Note_off_c, 0, 83, 100
2, 110588, Note_off_c, 0, 71, 100
2, 110592, Note_on_c, 0, 84, 110
2, 110592, Note_on_c, 0, 72, 110
2, 110780, Note_off_c, 0, 84, 100
2, 110780, Note_off_c, 0, 72, 100
2, 110976, Note_on_c, 0, 57, 110
2, 111548, Note_off_c, 0, 57, 100
2, 111552, Note_on_c, 0, 56, 110
2, 111740, Note_off_c, 0, 56, 100
2, 111744, Note_on_c, 0, 57, 110
2, 111932, Note_off_c, 0, 57, 100
2, 112128, Note_on_c, 0, 90, 110
2, 112128, Note_on_c, 0, 78, 110
2, 112700, Note_off_c, 0, 90, 100
2, 112700, Note_off_c, 0, 78, 100
2, 112704, Note_on_c, 0, 89, 110
2, 112704, Note_on_c, 0, 77, 110
2, 112892, Note_off_c, 0, 89, 100
2, 112892, Note_off_c, 0, 77, 100
2, 112896, Note_on_c, 0, 78, 110
2, 112896, Note_on_c, 0, 90, 110
2, 113084, Note_off_c, 0, 78, 100
2, 113084, Note_off_c, 0, 90, 100
2, 113280, Note_on_c, 0, 72, 110
2, 113280, Note_on_c, 0, 69, 110
2, 113280, Note_on_c, 0, 66, 110
2, 113852, Note_off_c, 0, 72, 100
2, 113852, Note_off_c, 0, 69, 100
2, 113852, Note_off_c, 0, 66, 100
2, 113856, Note_on_c, 0, 71, 110
2, 113856, Note_on_c, 0, 69, 110
2, 113856, Note_on_c, 0, 66, 110
2, 114044, Note_off_c, 0, 71, 100
2, 114044, Note_off_c, 0, 69, 100
2, 114044, Note_off_c, 0, 66, 100
2, 114048, Note_on_c, 0, 72, 110
2, 114048, Note_on_c, 0, 69, 110
2, 114048, Note_on_c, 0, 66, 110
2, 114236, Note_off_c, 0, 72, 100
2, 114236, Note_off_c, 0, 69, 100
2, 114236, Note_off_c, 0, 66, 100
2, 114432, Note_on_c, 0, 71, 110
2, 114432, Note_on_c, 0, 68, 110
2, 114432, Note_on_c, 0, 65, 110
2, 114812, Note_off_c, 0, 71, 100
2, 114812, Note_off_c, 0, 68, 100
2, 114812, Note_off_c, 0, 65, 100
2, 115008, Note_on_c, 0, 77, 80
2, 115008, Note_on_c, 0, 71, 80
2, 115008, Note_on_c, 0, 68, 80
2, 115196, Note_off_c, 0, 77, 100
2, 115196, Note_off_c, 0, 71, 100
2, 115196, Note_off_c, 0, 68, 100
2, 115200, Note_on_c, 0, 76, 80
2, 115200, Note_on_c, 0, 72, 80
2, 115200, Note_on_c, 0, 67, 80
2, 115580, Note_off_c, 0, 76, 100
2, 115580, Note_off_c, 0, 72, 100
2, 115580, Note_off_c, 0, 67, 100
2, 115584, Note_on_c, 0, 75, 80
2, 115584, Note_on_c, 0, 69, 80
2, 115584, Note_on_c, 0, 66, 80
2, 115964, Note_off_c, 0, 75, 100
2, 115964, Note_off_c, 0, 69, 100
2, 115964, Note_off_c, 0, 66, 100
2, 116160, Note_on_c, 0, 75, 80
2, 116160, Note_on_c, 0, 69, 80
2, 116160, Note_on_c, 0, 66, 80
2, 116348, Note_off_c, 0, 75, 100
2, 116348, Note_off_c, 0, 69, 100
2, 116348, Note_off_c, 0, 66, 100
2, 116352, Note_on_c, 0, 74, 80
2, 116352, Note_on_c, 0, 71, 80
2, 116352, Note_on_c, 0, 65, 80
2, 116732, Note_off_c, 0, 74, 100
2, 116732, Note_off_c, 0, 71, 100
2, 116732, Note_off_c, 0, 65, 100
2, 116736, Note_on_c, 0, 73, 80
2, 116736, Note_on_c, 0, 67, 80
2, 116736, Note_on_c, 0, 64, 80
2, 117116, Note_off_c, 0, 73, 100
2, 117116, Note_off_c, 0, 67, 100
2, 117116, Note_off_c, 0, 64, 100
2, 117312, Note_on_c, 0, 72, 80
2, 117312, Note_on_c, 0, 67, 80
2, 117312, Note_on_c, 0, 63, 80
2, 117500, Note_off_c, 0, 72, 100
2, 117500, Note_off_c, 0, 67, 100
2, 117500, Note_off_c, 0, 63, 100
2, 117504, Note_on_c, 0, 71, 80
2, 117504, Note_on_c, 0, 67, 80
2, 117504, Note_on_c, 0, 62, 80
2, 117884, Note_off_c, 0, 71, 100
2, 117884, Note_off_c, 0, 67, 100
2, 117884, Note_off_c, 0, 62, 100
2, 117888, Note_on_c, 0, 70, 80
2, 117888, Note_on_c, 0, 64, 80
2, 117888, Note_on_c, 0, 61, 80
2, 118076, Note_off_c, 0, 70, 100
2, 118076, Note_off_c, 0, 64, 100
2, 118076, Note_off_c, 0, 61, 100
2, 118272, Note_on_c, 0, 69, 80
2, 118272, Note_on_c, 0, 64, 80
2, 118272, Note_on_c, 0, 61, 80
2, 118460, Note_off_c, 0, 69, 100
2, 118460, Note_off_c, 0, 64, 100
2, 118460, Note_off_c, 0, 61, 100
2, 118656, Note_on_c, 0, 68, 80
2, 118656, Note_on_c, 0, 63, 80
2, 118656, Note_on_c, 0, 61, 80
2, 118844, Note_off_c, 0, 68, 100
2, 118844, Note_off_c, 0, 63, 100
2, 118844, Note_off_c, 0, 61, 100
2, 119040, Note_on_c, 0, 67, 80
2, 119228, Note_off_c, 0, 67, 100
2, 119424, Note_on_c, 0, 66, 82
2, 119612, Note_off_c, 0, 66, 100
2, 119808, Note_on_c, 0, 65, 84
2, 119996, Note_off_c, 0, 65, 100
2, 120192, Note_on_c, 0, 64, 87
2, 120380, Note_off_c, 0, 64, 100
2, 120576, Note_on_c, 0, 63, 89
2, 120764, Note_off_c, 0, 63, 100
2, 120960, Note_on_c, 0, 62, 92
2, 121148, Note_off_c, 0, 62, 100
2, 121344, Note_on_c, 0, 61, 94
2, 121532, Note_off_c, 0, 61, 100
2, 121728, Note_on_c, 0, 60, 97
2, 121916, Note_off_c, 0, 60, 100
2, 122112, Note_on_c, 0, 59, 99
2, 122300, Note_off_c, 0, 59, 100
2, 122496, Note_on_c, 0, 58, 95
2, 122684, Note_off_c, 0, 58, 100
2, 122880, Note_on_c, 0, 57, 90
2, 123068, Note_off_c, 0, 57, 100
2, 123264, Note_on_c, 0, 56, 84
2, 123452, Note_off_c, 0, 56, 100
2, 123648, Note_on_c, 0, 56, 80
2, 123836, Note_off_c, 0, 56, 100
2, 123840, Note_on_c, 0, 55, 80
2, 124028, Note_off_c, 0, 55, 100
2, 124032, Note_on_c, 0, 67, 80
2, 125564, Note_off_c, 0, 67, 100
2, 125568, Note_on_c, 0, 67, 80
2, 126332, Note_off_c, 0, 67, 100
2, 126336, Note_on_c, 0, 72, 80
2, 126716, Note_off_c, 0, 72, 100
2, 126720, Note_on_c, 0, 69, 80
2, 127100, Note_off_c, 0, 69, 100
2, 127104, Note_on_c, 0, 67, 80
2, 127484, Note_off_c, 0, 67, 100
2, 127488, Note_on_c, 0, 65, 80
2, 127868, Note_off_c, 0, 65, 100
2, 127872, Note_on_c, 0, 65, 80
2, 128636, Note_off_c, 0, 65, 100
2, 128640, Note_on_c, 0, 74, 80
2, 129020, Note_off_c, 0, 74, 100
2, 129024, Note_on_c, 0, 65, 80
2, 129788, Note_off_c, 0, 65, 100
2, 129792, Note_on_c, 0, 64, 80
2, 130172, Note_off_c, 0, 64, 100
2, 130176, Note_on_c, 0, 64, 80
2, 130272, Note_on_c, 0, 67, 80
2, 130340, Note_off_c, 0, 64, 100
2, 130368, Note_on_c, 0, 72, 80
2, 130460, Note_off_c, 0, 67, 100
2, 130464, Note_on_c, 0, 76, 80
2, 130544, Note_off_c, 0, 72, 100
2, 130560, Note_on_c, 0, 77, 80
2, 130632, Note_off_c, 0, 76, 100
2, 130656, Note_on_c, 0, 72, 80
2, 130720, Note_off_c, 0, 77, 100
2, 130752, Note_on_c, 0, 69, 80
2, 130820, Note_off_c, 0, 72, 100
2, 130848, Note_on_c, 0, 65, 80
2, 130924, Note_off_c, 0, 69, 100
2, 130944, Note_on_c, 0, 69, 80
2, 131008, Note_off_c, 0, 65, 100
2, 131040, Note_on_c, 0, 72, 80
2, 131116, Note_off_c, 0, 69, 100
2, 131136, Note_on_c, 0, 77, 80
2, 131216, Note_off_c, 0, 72, 100
2, 131232, Note_on_c, 0, 81, 80
2, 131320, Note_off_c, 0, 77, 100
2, 131328, Note_on_c, 0, 81, 80
2, 131408, Note_off_c, 0, 81, 100
2, 131424, Note_on_c, 0, 74, 80
2, 131512, Note_off_c, 0, 81, 100
2, 131520, Note_on_c, 0, 81, 80
2, 131592, Note_off_c, 0, 74, 100
2, 131616, Note_on_c, 0, 86, 80
2, 131696, Note_off_c, 0, 81, 100
2, 131712, Note_on_c, 0, 81, 80
2, 131784, Note_off_c, 0, 86, 100
2, 131808, Note_on_c, 0, 74, 80
2, 131900, Note_off_c, 0, 81, 100
2, 131904, Note_on_c, 0, 81, 80
2, 131988, Note_off_c, 0, 74, 100
2, 132000, Note_on_c, 0, 82, 80
2, 132092, Note_off_c, 0, 81, 100
2, 132096, Note_on_c, 0, 79, 80
2, 132176, Note_off_c, 0, 82, 100
2, 132192, Note_on_c, 0, 74, 80
2, 132276, Note_off_c, 0, 79, 100
2, 132288, Note_on_c, 0, 79, 80
2, 132368, Note_off_c, 0, 74, 100
2, 132384, Note_on_c, 0, 82, 80
2, 132476, Note_off_c, 0, 79, 100
2, 132480, Note_on_c, 0, 79, 80
2, 132556, Note_off_c, 0, 82, 100
2, 132576, Note_on_c, 0, 73, 80
2, 132656, Note_off_c, 0, 79, 100
2, 132672, Note_on_c, 0, 79, 80
2, 132748, Note_off_c, 0, 73, 100
2, 132768, Note_on_c, 0, 82, 80
2, 132852, Note_off_c, 0, 79, 100
2, 132864, Note_on_c, 0, 79, 80
2, 132936, Note_off_c, 0, 82, 100
2, 132960, Note_on_c, 0, 72, 80
2, 133036, Note_off_c, 0, 79, 100
2, 133056, Note_on_c, 0, 79, 80
2, 133128, Note_off_c, 0, 72, 100
2, 133152, Note_on_c, 0, 82, 80
2, 133232, Note_off_c, 0, 79, 100
2, 133248, Note_on_c, 0, 76, 80
2, 133324, Note_off_c, 0, 82, 100
2, 133344, Note_on_c, 0, 72, 80
2, 133420, Note_off_c, 0, 76, 100
2, 133440, Note_on_c, 0, 76, 80
2, 133520, Note_off_c, 0, 72, 100
2, 133536, Note_on_c, 0, 79, 80
2, 133612, Note_off_c, 0, 76, 100
2, 133632, Note_on_c, 0, 79, 80
2, 133708, Note_off_c, 0, 79, 100
2, 133728, Note_on_c, 0, 76, 80
2, 133812, Note_off_c, 0, 79, 100
2, 133824, Note_on_c, 0, 79, 80
2, 133904, Note_off_c, 0, 76, 100
2, 133920, Note_on_c, 0, 84, 80
2, 133996, Note_off_c, 0, 79, 100
2, 134016, Note_on_c, 0, 79, 80
2, 134096, Note_off_c, 0, 84, 100
2, 134112, Note_on_c, 0, 76, 80
2, 134180, Note_off_c, 0, 79, 100
2, 134208, Note_on_c, 0, 79, 80
2, 134280, Note_off_c, 0, 76, 100
2, 134304, Note_on_c, 0, 84, 80
2, 134396, Note_off_c, 0, 79, 100
2, 134400, Note_on_c, 0, 81, 80
2, 134472, Note_off_c, 0, 84, 100
2, 134496, Note_on_c, 0, 77, 80
2, 134580, Note_off_c, 0, 81, 100
2, 134592, Note_on_c, 0, 81, 80
2, 134668, Note_off_c, 0, 77, 100
2, 134688, Note_on_c, 0, 84, 80
2, 134776, Note_off_c, 0, 81, 100
2, 134784, Note_on_c, 0, 81, 80
2, 134860, Note_off_c, 0, 84, 100
2, 134880, Note_on_c, 0, 77, 80
2, 134956, Note_off_c, 0, 81, 100
2, 134976, Note_on_c, 0, 81, 80
2, 135044, Note_off_c, 0, 77, 100
2, 135072, Note_on_c, 0, 84, 80
2, 135152, Note_off_c, 0, 81, 100
2, 135168, Key_signature, 0, "major"
2, 135168, Note_on_c, 0, 81, 80
2, 135252, Note_off_c, 0, 84, 100
2, 135264, Note_on_c, 0, 77, 81
2, 135344, Note_off_c, 0, 81, 100
2, 135360, Note_on_c, 0, 81, 81
2, 135444, Note_off_c, 0, 77, 100
2, 135456, Note_on_c, 0, 86, 81
2, 135536, Note_off_c, 0, 81, 100
2, 135552, Note_on_c, 0, 81, 81
2, 135628, Note_off_c, 0, 86, 100
2, 135648, Note_on_c, 0, 77, 82
2, 135720, Note_off_c, 0, 81, 100
2, 135744, Note_on_c, 0, 81, 82
2, 135816, Note_off_c, 0, 77, 100
2, 135840, Note_on_c, 0, 86, 82
2, 135928, Note_off_c, 0, 81, 100
2, 135936, Note_on_c, 0, 82, 82
2, 136020, Note_off_c, 0, 86, 100
2, 136032, Note_on_c, 0, 77, 83
2, 136100, Note_off_c, 0, 82, 100
2, 136128, Note_on_c, 0, 82, 83
2, 136208, Note_off_c, 0, 77, 100
2, 136224, Note_on_c, 0, 86, 83
2, 136300, Note_off_c, 0, 82, 100
2, 136320, Note_on_c, 0, 83, 83
2, 136404, Note_off_c, 0, 86, 100
2, 136416, Note_on_c, 0, 78, 83
2, 136500, Note_off_c, 0, 83, 100
2, 136512, Note_on_c, 0, 83, 84
2, 136596, Note_off_c, 0, 78, 100
2, 136608, Note_on_c, 0, 86, 84
2, 136680, Note_off_c, 0, 83, 100
2, 136704, Note_on_c, 0, 83, 84
2, 136780, Note_off_c, 0, 86, 100
2, 136800, Note_on_c, 0, 76, 84
2, 136884, Note_off_c, 0, 83, 100
2, 136896, Note_on_c, 0, 83, 85
2, 136976, Note_off_c, 0, 76, 100
2, 136992, Note_on_c, 0, 86, 85
2, 137068, Note_off_c, 0, 83, 100
2, 137088, Note_on_c, 0, 83, 85
2, 137172, Note_off_c, 0, 86, 100
2, 137184, Note_on_c, 0, 76, 85
2, 137256, Note_off_c, 0, 83, 100
2, 137280, Note_on_c, 0, 83, 86
2, 137356, Note_off_c, 0, 76, 100
2, 137376, Note_on_c, 0, 86, 86
2, 137456, Note_off_c, 0, 83, 100
2, 137472, Note_on_c, 0, 83, 86
2, 137536, Note_off_c, 0, 86, 100
2, 137568, Note_on_c, 0, 76, 86
2, 137640, Note_off_c, 0, 83, 100
2, 137664, Note_on_c, 0, 83, 87
2, 137740, Note_off_c, 0, 76, 100
2, 137760, Note_on_c, 0, 86, 87
2, 137828, Note_off_c, 0, 83, 100
2, 137856, Note_on_c, 0, 83, 87
2, 137944, Note_off_c, 0, 86, 100
2, 137952, Note_on_c, 0, 76, 87
2, 138028, Note_off_c, 0, 83, 100
2, 138048, Note_on_c, 0, 83, 87
2, 138128, Note_off_c, 0, 76, 100
2, 138144, Note_on_c, 0, 86, 88
2, 138216, Note_off_c, 0, 83, 100
2, 138240, Note_on_c, 0, 83, 88
2, 138320, Note_off_c, 0, 86, 100
2, 138336, Note_on_c, 0, 76, 88
2, 138416, Note_off_c, 0, 83, 100
2, 138432, Note_on_c, 0, 83, 88
2, 138520, Note_off_c, 0, 76, 100
2, 138528, Note_on_c, 0, 86, 89
2, 138608, Note_off_c, 0, 83, 100
2, 138624, Note_on_c, 0, 83, 89
2, 138696, Note_off_c, 0, 86, 100
2, 138720, Note_on_c, 0, 76, 89
2, 138800, Note_off_c, 0, 83, 100
2, 138816, Note_on_c, 0, 83, 89
2, 138900, Note_off_c, 0, 76, 100
2, 138912, Note_on_c, 0, 84, 90
2, 138996, Note_off_c, 0, 83, 100
2, 139008, Note_on_c, 0, 81, 90
2, 139092, Note_off_c, 0, 84, 100
2, 139104, Note_on_c, 0, 76, 90
2, 139188, Note_off_c, 0, 81, 100
2, 139200, Note_on_c, 0, 81, 90
2, 139284, Note_off_c, 0, 76, 100
2, 139296, Note_on_c, 0, 84, 90
2, 139380, Note_off_c, 0, 81, 100
2, 139392, Note_on_c, 0, 81, 91
2, 139484, Note_off_c, 0, 84, 100
2, 139488, Note_on_c, 0, 76, 91
2, 139568, Note_off_c, 0, 81, 100
2, 139584, Note_on_c, 0, 81, 91
2, 139664, Note_off_c, 0, 76, 100
2, 139680, Note_on_c, 0, 84, 91
2, 139748, Note_off_c, 0, 81, 100
2, 139776, Note_on_c, 0, 81, 92
2, 139860, Note_off_c, 0, 84, 100
2, 139872, Note_on_c, 0, 74, 92
2, 139948, Note_off_c, 0, 81, 100
2, 139968, Note_on_c, 0, 81, 92
2, 140036, Note_off_c, 0, 74, 100
2, 140064, Note_on_c, 0, 83, 92
2, 140136, Note_off_c, 0, 81, 100
2, 140160, Note_on_c, 0, 80, 93
2, 140232, Note_off_c, 0, 83, 100
2, 140256, Note_on_c, 0, 74, 93
2, 140320, Note_off_c, 0, 80, 100
2, 140352, Note_on_c, 0, 80, 93
2, 140436, Note_off_c, 0, 74, 100
2, 140448, Note_on_c, 0, 83, 93
2, 140536, Note_off_c, 0, 80, 100
2, 140544, Note_on_c, 0, 80, 94
2, 140616, Note_off_c, 0, 83, 100
2, 140640, Note_on_c, 0, 74, 94
2, 140716, Note_off_c, 0, 80, 100
2, 140736, Note_on_c, 0, 80, 94
2, 140808, Note_off_c, 0, 74, 100
2, 140832, Note_on_c, 0, 83, 94
2, 140916, Note_off_c, 0, 80, 100
2, 140928, Note_on_c, 0, 80, 94
2, 140992, Note_off_c, 0, 83, 100
2, 141024, Note_on_c, 0, 74, 95
2, 141100, Note_off_c, 0, 80, 100
2, 141120, Note_on_c, 0, 80, 95
2, 141184, Note_off_c, 0, 74, 100
2, 141216, Note_on_c, 0, 83, 95
2, 141292, Note_off_c, 0, 80, 100
2, 141312, Note_on_c, 0, 80, 95
2, 141388, Note_off_c, 0, 83, 100
2, 141408, Note_on_c, 0, 81, 96
2, 141488, Note_off_c, 0, 80, 100
2, 141504, Note_on_c, 0, 72, 96
2, 141576, Note_off_c, 0, 81, 100
2, 141600, Note_on_c, 0, 81, 96
2, 141668, Note_off_c, 0, 72, 100
2, 141696, Note_on_c, 0, 80, 96
2, 141764, Note_off_c, 0, 81, 100
2, 141792, Note_on_c, 0, 81, 97
2, 141860, Note_off_c, 0, 80, 100
2, 141888, Note_on_c, 0, 72, 97
2, 141964, Note_off_c, 0, 81, 100
2, 141984, Note_on_c, 0, 81, 97
2, 142076, Note_off_c, 0, 72, 100
2, 142080, Note_on_c, 0, 81, 97
2, 142172, Note_off_c, 0, 81, 100
2, 142176, Note_on_c, 0, 71, 98
2, 142248, Note_off_c, 0, 81, 100
2, 142272, Note_on_c, 0, 81, 98
2, 142360, Note_off_c, 0, 71, 100
2, 142368, Note_on_c, 0, 83, 98
2, 142440, Note_off_c, 0, 81, 100
2, 142464, Note_on_c, 0, 81, 98
2, 142544, Note_off_c, 0, 83, 100
2, 142560, Note_on_c, 0, 71, 98
2, 142644, Note_off_c, 0, 81, 100
2, 142656, Note_on_c, 0, 81, 99
2, 142736, Note_off_c, 0, 71, 100
2, 142752, Note_on_c, 0, 83, 99
2, 142828, Note_off_c, 0, 81, 100
2, 142848, Note_on_c, 0, 81, 99
2, 142924, Note_off_c, 0, 83, 100
2, 142944, Note_on_c, 0, 71, 99
2, 143028, Note_off_c, 0, 81, 100
2, 143040, Note_on_c, 0, 81, 100
2, 143112, Note_off_c, 0, 71, 100
2, 143136, Note_on_c, 0, 83, 100
2, 143208, Note_off_c, 0, 81, 100
2, 143232, Note_on_c, 0, 81, 100
2, 143324, Note_off_c, 0, 83, 100
2, 143328, Note_on_c, 0, 71, 100
2, 143420, Note_off_c, 0, 81, 100
2, 143424, Note_on_c, 0, 81, 101
2, 143504, Note_off_c, 0, 71, 100
2, 143520, Note_on_c, 0, 83, 101
2, 143600, Note_off_c, 0, 81, 100
2, 143616, Note_on_c, 0, 81, 101
2, 143700, Note_off_c, 0, 83, 100
2, 143712, Note_on_c, 0, 71, 101
2, 143788, Note_off_c, 0, 81, 100
2, 143808, Note_on_c, 0, 81, 101
2, 143888, Note_off_c, 0, 71, 100
2, 143904, Note_on_c, 0, 83, 102
2, 143988, Note_off_c, 0, 81, 100
2, 144000, Note_on_c, 0, 81, 102
2, 144080, Note_off_c, 0, 83, 100
2, 144096, Note_on_c, 0, 71, 102
2, 144168, Note_off_c, 0, 81, 100
2, 144192, Note_on_c, 0, 81, 102
2, 144260, Note_off_c, 0, 71, 100
2, 144288, Note_on_c, 0, 83, 103
2, 144368, Note_off_c, 0, 81, 100
2, 144384, Note_on_c, 0, 81, 103
2, 144476, Note_off_c, 0, 83, 100
2, 144480, Note_on_c, 0, 71, 103
2, 144560, Note_off_c, 0, 81, 100
2, 144576, Note_on_c, 0, 81, 103
2, 144668, Note_off_c, 0, 71, 100
2, 144672, Note_on_c, 0, 83, 104
2, 144748, Note_off_c, 0, 81, 100
2, 144768, Note_on_c, 0, 81, 104
2, 144856, Note_off_c, 0, 83, 100
2, 144864, Note_on_c, 0, 71, 104
2, 144940, Note_off_c, 0, 81, 100
2, 144960, Note_on_c, 0, 81, 104
2, 145052, Note_off_c, 0, 71, 100
2, 145056, Note_on_c, 0, 83, 105
2, 145136, Note_off_c, 0, 81, 100
2, 145152, Note_on_c, 0, 81, 105
2, 145236, Note_off_c, 0, 83, 100
2, 145248, Note_on_c, 0, 71, 105
2, 145336, Note_off_c, 0, 81, 100
2, 145344, Note_on_c, 0, 81, 105
2, 145436, Note_off_c, 0, 71, 100
2, 145440, Note_on_c, 0, 83, 105
2, 145532, Note_off_c, 0, 81, 100
2, 145536, Note_on_c, 0, 79, 106
2, 145616, Note_off_c, 0, 83, 100
2, 145632, Note_on_c, 0, 71, 106
2, 145716, Note_off_c, 0, 79, 100
2, 145728, Note_on_c, 0, 79, 106
2, 145812, Note_off_c, 0, 71, 100
2, 145824, Note_on_c, 0, 83, 106
2, 145904, Note_off_c, 0, 79, 100
2, 145920, Note_on_c, 0, 79, 107
2, 145996, Note_off_c, 0, 83, 100
2, 146016, Note_on_c, 0, 71, 107
2, 146104, Note_off_c, 0, 79, 100
2, 146112, Note_on_c, 0, 79, 107
2, 146196, Note_off_c, 0, 71, 100
2, 146208, Note_on_c, 0, 83, 107
2, 146276, Note_off_c, 0, 79, 100
2, 146304, Note_on_c, 0, 83, 108
2, 146384, Note_off_c, 0, 83, 100
2, 146400, Note_on_c, 0, 76, 108
2, 146476, Note_off_c, 0, 83, 100
2, 146496, Note_on_c, 0, 83, 108
2, 146572, Note_off_c, 0, 76, 100
2, 146592, Note_on_c, 0, 88, 108
2, 146676, Note_off_c, 0, 83, 100
2, 146688, Note_on_c, 0, 84, 108
2, 146752, Note_off_c, 0, 88, 100
2, 146784, Note_on_c, 0, 76, 109
2, 146860, Note_off_c, 0, 84, 100
2, 146880, Note_on_c, 0, 84, 109
2, 146952, Note_off_c, 0, 76, 100
2, 146976, Note_on_c, 0, 88, 109
2, 147056, Note_off_c, 0, 84, 100
2, 147072, Note_on_c, 0, 84, 109
2, 147160, Note_off_c, 0, 88, 100
2, 147168, Note_on_c, 0, 76, 110
2, 147240, Note_off_c, 0, 84, 100
2, 147264, Note_on_c, 0, 84, 110
2, 147344, Note_off_c, 0, 76, 100
2, 147360, Note_on_c, 0, 88, 110
2, 147440, Note_off_c, 0, 84, 100
2, 147456, Note_on_c, 0, 84, 110
2, 147540, Note_off_c, 0, 88, 100
2, 147552, Note_on_c, 0, 76, 111
2, 147628, Note_off_c, 0, 84, 100
2, 147648, Note_on_c, 0, 84, 111
2, 147728, Note_off_c, 0, 76, 100
2, 147744, Note_on_c, 0, 88, 111
2, 147820, Note_off_c, 0, 84, 100
2, 147840, Note_on_c, 0, 85, 111
2, 147920, Note_off_c, 0, 88, 100
2, 147936, Note_on_c, 0, 79, 112
2, 148016, Note_off_c, 0, 85, 100
2, 148032, Note_on_c, 0, 85, 112
2, 148104, Note_off_c, 0, 79, 100
2, 148128, Note_on_c, 0, 88, 112
2, 148212, Note_off_c, 0, 85, 100
2, 148224, Note_on_c, 0, 85, 112
2, 148300, Note_off_c, 0, 88, 100
2, 148320, Note_on_c, 0, 79, 112
2, 148400, Note_off_c, 0, 85, 100
2, 148416, Note_on_c, 0, 85, 113
2, 148504, Note_off_c, 0, 79, 100
2, 148512, Note_on_c, 0, 88, 113
2, 148596, Note_off_c, 0, 85, 100
2, 148608, Note_on_c, 0, 85, 113
2, 148684, Note_off_c, 0, 88, 100
2, 148704, Note_on_c, 0, 79, 113
2, 148780, Note_off_c, 0, 85, 100
2, 148800, Note_on_c, 0, 85, 114
2, 148880, Note_off_c, 0, 79, 100
2, 148896, Note_on_c, 0, 88, 114
2, 148976, Note_off_c, 0, 85, 100
2, 148992, Key_signature, 1, "major"
2, 148992, Note_on_c, 0, 83, 114
2, 149084, Note_off_c, 0, 88, 100
2, 149088, Note_on_c, 0, 79, 114
2, 149176, Note_off_c, 0, 83, 100
2, 149184, Note_on_c, 0, 83, 115
2, 149276, Note_off_c, 0, 79, 100
2, 149280, Note_on_c, 0, 88, 115
2, 149356, Note_off_c, 0, 83, 100
2, 149376, Note_on_c, 0, 91, 115
2, 149460, Note_off_c, 0, 88, 100
2, 149472, Note_on_c, 0, 90, 115
2, 149540, Note_off_c, 0, 91, 100
2, 149568, Note_on_c, 0, 88, 116
2, 149648, Note_off_c, 0, 90, 100
2, 149664, Note_on_c, 0, 87, 116
2, 149752, Note_off_c, 0, 88, 100
2, 149760, Note_on_c, 0, 88, 116
2, 149844, Note_off_c, 0, 87, 100
2, 149856, Note_on_c, 0, 87, 116
2, 149932, Note_off_c, 0, 88, 100
2, 149952, Note_on_c, 0, 88, 116
2, 150036, Note_off_c, 0, 87, 100
2, 150048, Note_on_c, 0, 90, 117
2, 150124, Note_off_c, 0, 88, 100
2, 150144, Note_on_c, 0, 91, 117
2, 150224, Note_off_c, 0, 90, 100
2, 150240, Note_on_c, 0, 90, 117
2, 150320, Note_off_c, 0, 91, 100
2, 150336, Note_on_c, 0, 88, 117
2, 150412, Note_off_c, 0, 90, 100
2, 150432, Note_on_c, 0, 87, 118
2, 150520, Note_off_c, 0, 88, 100
2, 150528, Note_on_c, 0, 91, 118
2, 150600, Note_off_c, 0, 87, 100
2, 150624, Note_on_c, 0, 90, 118
2, 150700, Note_off_c, 0, 91, 100
2, 150720, Note_on_c, 0, 88, 118
2, 150792, Note_off_c, 0, 90, 100
2, 150816, Note_on_c, 0, 87, 119
2, 150900, Note_off_c, 0, 88, 100
2, 150912, Note_on_c, 0, 91, 119
2, 150984, Note_off_c, 0, 87, 100
2, 151008, Note_on_c, 0, 90, 119
2, 151088, Note_off_c, 0, 91, 100
2, 151104, Note_on_c, 0, 88, 119
2, 151180, Note_off_c, 0, 90, 100
2, 151200, Note_on_c, 0, 87, 119
2, 151284, Note_off_c, 0, 88, 100
2, 151292, Note_off_c, 0, 87, 100
2, 151296, Note_on_c, 0, 91, 120
2, 151388, Note_off_c, 0, 91, 100
2, 151392, Note_on_c, 0, 90, 120
2, 151484, Note_off_c, 0, 90, 100
2, 151488, Note_on_c, 0, 88, 120
2, 151580, Note_off_c, 0, 88, 100
2, 151584, Note_on_c, 0, 87, 120
2, 151676, Note_off_c, 0, 87, 100
2, 151680, Note_on_c, 0, 88, 120
2, 151868, Note_off_c, 0, 88, 100
2, 152448, Note_on_c, 0, 91, 80
2, 152636, Note_off_c, 0, 91, 100
2, 152640, Note_on_c, 0, 90, 80
2, 152828, Note_off_c, 0, 90, 100
2, 152832, Note_on_c, 0, 88, 80
2, 153020, Note_off_c, 0, 88, 100
2, 153024, Note_on_c, 0, 87, 80
2, 153212, Note_off_c, 0, 87, 100
2, 153216, Note_on_c, 0, 88, 80
2, 153596, Note_off_c, 0, 88, 100
2, 153600, Note_on_c, 0, 91, 80
2, 153980, Note_off_c, 0, 91, 100
2, 153984, Note_on_c, 0, 90, 80
2, 154364, Note_off_c, 0, 90, 100
2, 154368, Note_on_c, 0, 88, 80
2, 154748, Note_off_c, 0, 88, 100
2, 154752, Note_on_c, 0, 87, 80
2, 155132, Note_off_c, 0, 87, 100
2, 155136, Note_on_c, 0, 88, 80
2, 155516, Note_off_c, 0, 88, 100
2, 155904, Note_on_c, 0, 91, 79
2, 156668, Note_off_c, 0, 91, 100
2, 156672, Note_on_c, 0, 90, 77
2, 157436, Note_off_c, 0, 90, 100
2, 157440, Note_on_c, 0, 88, 76
2, 157820, Note_off_c, 0, 88, 100
2, 158208, Note_on_c, 0, 67, 75
2, 158972, Note_off_c, 0, 67, 100
2, 158976, Note_on_c, 0, 66, 73
2, 159164, Note_off_c, 0, 66, 100
2, 159168, Note_on_c, 0, 64, 73
2, 159356, Note_off_c, 0, 64, 100
2, 159360, Note_on_c, 0, 64, 73
2, 159740, Note_off_c, 0, 64, 100
2, 160896, Note_on_c, 0, 67, 70
2, 161276, Note_off_c, 0, 67, 100
2, 161280, Note_on_c, 0, 66, 70
2, 161468, Note_off_c, 0, 66, 100
2, 161472, Note_on_c, 0, 64, 70
2, 161660, Note_off_c, 0, 64, 100
2, 161664, Note_on_c, 0, 64, 70
2, 161852, Note_off_c, 0, 64, 100
2, 162240, Note_on_c, 0, 67, 80
2, 162428, Note_off_c, 0, 67, 100
2, 162432, Note_on_c, 0, 66, 82
2, 162620, Note_off_c, 0, 66, 100
2, 162624, Note_on_c, 0, 64, 85
2, 162812, Note_off_c, 0, 64, 100
2, 163008, Note_on_c, 0, 91, 90
2, 163196, Note_off_c, 0, 91, 100
2, 163200, Note_on_c, 0, 90, 92
2, 163388, Note_off_c, 0, 90, 100
2, 163392, Note_on_c, 0, 88, 95
2, 163580, Note_off_c, 0, 88, 100
2, 163776, Note_on_c, 0, 67, 100
2, 163964, Note_off_c, 0, 67, 100
2, 163968, Note_on_c, 0, 66, 103
2, 164156, Note_off_c, 0, 66, 100
2, 164160, Note_on_c, 0, 64, 105
2, 164348, Note_off_c, 0, 64, 100
2, 164736, Note_on_c, 0, 67, 110
2, 164924, Note_off_c, 0, 67, 100
2, 165120, Note_on_c, 0, 67, 110
2, 165120, Note_on_c, 0, 64, 110
2, 165120, Note_on_c, 0, 59, 110
2, 165120, Note_on_c, 0, 55, 110
2, 165692, Note_off_c, 0, 67, 100
2, 165696, Note_on_c, 0, 66, 110
2, 165884, Note_off_c, 0, 64, 100
2, 165884, Note_off_c, 0, 59, 100
2, 165884, Note_off_c, 0, 55, 100
2, 165884, Note_off_c, 0, 66, 100
2, 165888, Note_on_c, 0, 64, 110
2, 165888, Note_on_c, 0, 55, 110
2, 166076, Note_off_c, 0, 64, 100
2, 166076, Note_off_c, 0, 55, 100
2, 166272, Note_on_c, 0, 69, 110
2, 166272, Note_on_c, 0, 66, 110
2, 166272, Note_on_c, 0, 57, 110
2, 166460, Note_off_c, 0, 69, 100
2, 166460, Note_off_c, 0, 66, 100
2, 166460, Note_off_c, 0, 57, 100
2, 167040, Note_on_c, 0, 69, 80
2, 167040, Note_on_c, 0, 66, 80
2, 167420, Note_off_c, 0, 69, 100
2, 167420, Note_off_c, 0, 66, 100
2, 167424, Note_on_c, 0, 69, 80
2, 167424, Note_on_c, 0, 66, 80
2, 167996, Note_off_c, 0, 69, 100
2, 167996, Note_off_c, 0, 66, 100
2, 168000, Note_on_c, 0, 67, 80
2, 168188, Note_off_c, 0, 67, 100
2, 168192, Note_on_c, 0, 69, 80
2, 168192, Note_on_c, 0, 66, 80
2, 168572, Note_off_c, 0, 69, 100
2, 168572, Note_off_c, 0, 66, 100
2, 168576, Note_on_c, 0, 71, 80
2, 168576, Note_on_c, 0, 67, 80
2, 168956, Note_off_c, 0, 71, 100
2, 168956, Note_off_c, 0, 67, 100
2, 169344, Note_on_c, 0, 71, 110
2, 169344, Note_on_c, 0, 67, 110
2, 169344, Note_on_c, 0, 62, 110
2, 169344, Note_on_c, 0, 59, 110
2, 169532, Note_off_c, 0, 71, 100
2, 169532, Note_off_c, 0, 67, 100
2, 169532, Note_off_c, 0, 62, 100
2, 169532, Note_off_c, 0, 59, 100
2, 169728, Note_on_c, 0, 71, 110
2, 169728, Note_on_c, 0, 67, 110
2, 169728, Note_on_c, 0, 62, 110
2, 169728, Note_on_c, 0, 59, 110
2, 170300, Note_off_c, 0, 71, 100
2, 170304, Note_on_c, 0, 69, 110
2, 170492, Note_off_c, 0, 67, 100
2, 170492, Note_off_c, 0, 62, 100
2, 170492, Note_off_c, 0, 59, 100
2, 170492, Note_off_c, 0, 69, 100
2, 170496, Note_on_c, 0, 67, 110
2, 170496, Note_on_c, 0, 59, 110
2, 170684, Note_off_c, 0, 67, 100
2, 170684, Note_off_c, 0, 59, 100
2, 170880, Note_on_c, 0, 73, 110
2, 170880, Note_on_c, 0, 70, 110
2, 170880, Note_on_c, 0, 61, 110
2, 171068, Note_off_c, 0, 73, 100
2, 171068, Note_off_c, 0, 70, 100
2, 171068, Note_off_c, 0, 61, 100
2, 171648, Note_on_c, 0, 73, 80
2, 171648, Note_on_c, 0, 70, 80
2, 172028, Note_off_c, 0, 73, 100
2, 172028, Note_off_c, 0, 70, 100
2, 172032, Note_on_c, 0, 73, 80
2, 172032, Note_on_c, 0, 70, 80
2, 172604, Note_off_c, 0, 73, 100
2, 172604, Note_off_c, 0, 70, 100
2, 172608, Note_on_c, 0, 71, 80
2, 172796, Note_off_c, 0, 71, 100
2, 172800, Note_on_c, 0, 73, 80
2, 172800, Note_on_c, 0, 70, 80
2, 173180, Note_off_c, 0, 73, 100
2, 173180, Note_off_c, 0, 70, 100
2, 173184, Note_on_c, 0, 74, 80
2, 173184, Note_on_c, 0, 71, 80
2, 173564, Note_off_c, 0, 74, 100
2, 173564, Note_off_c, 0, 71, 100
2, 173952, Note_on_c, 0, 74, 80
2, 174716, Note_off_c, 0, 74, 100
2, 174720, Note_on_c, 0, 79, 80
2, 175100, Note_off_c, 0, 79, 100
2, 175104, Note_on_c, 0, 76, 80
2, 175484, Note_off_c, 0, 76, 100
2, 175488, Note_on_c, 0, 74, 80
2, 175868, Note_off_c, 0, 74, 100
2, 175872, Note_on_c, 0, 72, 80
2, 176252, Note_off_c, 0, 72, 100
2, 176256, Note_on_c, 0, 72, 80
2, 177020, Note_off_c, 0, 72, 100
2, 177024, Note_on_c, 0, 81, 80
2, 177404, Note_off_c, 0, 81, 100
2, 177408, Note_on_c, 0, 72, 80
2, 178172, Note_off_c, 0, 72, 100
2, 178176, Note_on_c, 0, 71, 80
2, 178556, Note_off_c, 0, 71, 100
2, 178560, Note_on_c, 0, 71, 80
2, 179324, Note_off_c, 0, 71, 100
2, 179328, Note_on_c, 0, 67, 80
2, 179708, Note_off_c, 0, 67, 100
2, 179712, Note_on_c, 0, 67, 80
2, 180476, Note_off_c, 0, 67, 100
2, 180480, Note_on_c, 0, 64, 80
2, 180860, Note_off_c, 0, 64, 100
2, 180864, Note_on_c, 0, 64, 80
2, 181628, Note_off_c, 0, 64, 100
2, 182400, Note_on_c, 0, 59, 80
2, 182400, Note_on_c, 0, 51, 80
2, 183164, Note_off_c, 0, 59, 100
2, 183164, Note_off_c, 0, 51, 100
2, 183168, Note_on_c, 0, 76, 80
2, 183168, Note_on_c, 0, 88, 80
2, 184124, Note_off_c, 0, 76, 100
2, 184124, Note_off_c, 0, 88, 100
2, 184128, Note_on_c, 0, 87, 85
2, 184128, Note_on_c, 0, 75, 85
2, 184316, Note_off_c, 0, 87, 100
2, 184316, Note_off_c, 0, 75, 100
2, 184320, Note_on_c, 0, 88, 86
2, 184320, Note_on_c, 0, 76, 86
2, 184700, Note_off_c, 0, 88, 100
2, 184700, Note_off_c, 0, 76, 100
2, 184704, Note_on_c, 0, 66, 88
2, 184704, Note_on_c, 0, 64, 88
2, 184704, Note_on_c, 0, 60, 88
2, 185468, Note_off_c, 0, 66, 100
2, 185468, Note_off_c, 0, 64, 100
2, 185468, Note_off_c, 0, 60, 100
2, 185472, Note_on_c, 0, 66, 93
2, 185472, Note_on_c, 0, 64, 93
2, 185472, Note_on_c, 0, 61, 93
2, 185852, Note_off_c, 0, 66, 100
2, 185852, Note_off_c, 0, 64, 100
2, 185852, Note_off_c, 0, 61, 100
2, 185856, Note_on_c, 0, 66, 95
2, 185856, Note_on_c, 0, 57, 95
2, 185856, Note_on_c, 0, 63, 95
2, 186428, Note_off_c, 0, 66, 100
2, 186432, Note_on_c, 0, 67, 98
2, 186620, Note_off_c, 0, 67, 100
2, 186624, Note_on_c, 0, 69, 99
2, 186812, Note_off_c, 0, 69, 100
2, 186816, Note_on_c, 0, 67, 100
2, 187004, Note_off_c, 0, 57, 100
2, 187004, Note_off_c, 0, 63, 100
2, 187004, Note_off_c, 0, 67, 100
2, 187008, Note_on_c, 0, 66, 80
2, 187388, Note_off_c, 0, 66, 100
2, 187392, Note_on_c, 0, 64, 80
2, 187772, Note_off_c, 0, 64, 100
2, 187776, Note_on_c, 0, 76, 80
2, 187776, Note_on_c, 0, 88, 80
2, 188732, Note_off_c, 0, 76, 100
2, 188732, Note_off_c, 0, 88, 100
2, 188736, Note_on_c, 0, 87, 80
2, 188736, Note_on_c, 0, 75, 80
2, 188924, Note_off_c, 0, 87, 100
2, 188924, Note_off_c, 0, 75, 100
2, 188928, Note_on_c, 0, 88, 80
2, 188928, Note_on_c, 0, 76, 80
2, 189308, Note_off_c, 0, 88, 100
2, 189308, Note_off_c, 0, 76, 100
2, 189312, Note_on_c, 0, 66, 80
2, 189312, Note_on_c, 0, 64, 80
2, 189312, Note_on_c, 0, 60, 80
2, 190076, Note_off_c, 0, 66, 100
2, 190076, Note_off_c, 0, 64, 100
2, 190076, Note_off_c, 0, 60, 100
2, 190080, Note_on_c, 0, 66, 80
2, 190080, Note_on_c, 0, 64, 80
2, 190080, Note_on_c, 0, 61, 80
2, 190460, Note_off_c, 0, 66, 100
2, 190460, Note_off_c, 0, 64, 100
2, 190460, Note_off_c, 0, 61, 100
2, 190464, Note_on_c, 0, 63, 80
2, 190464, Note_on_c, 0, 57, 80
2, 190464, Note_on_c, 0, 66, 80
2, 191036, Note_off_c, 0, 66, 100
2, 191040, Note_on_c, 0, 69, 80
2, 191228, Note_off_c, 0, 69, 100
2, 191232, Note_on_c, 0, 67, 80
2, 191420, Note_off_c, 0, 67, 100
2, 191424, Note_on_c, 0, 66, 80
2, 191612, Note_off_c, 0, 63, 100
2, 191612, Note_off_c, 0, 57, 100
2, 191612, Note_off_c, 0, 66, 100
2, 191616, Note_on_c, 0, 64, 80
2, 191616, Note_on_c, 0, 55, 80
2, 191996, Note_off_c, 0, 64, 100
2, 191996, Note_off_c, 0, 55, 100
2, 192384, Note_on_c, 0, 67, 80
2, 192384, Note_on_c, 0, 55, 80
2, 192764, Note_off_c, 0, 67, 100
2, 192764, Note_off_c, 0, 55, 100
2, 192768, Note_on_c, 0, 67, 80
2, 192768, Note_on_c, 0, 55, 80
2, 193532, Note_off_c, 0, 67, 100
2, 193532, Note_off_c, 0, 55, 100
2, 193536, Note_on_c, 0, 72, 80
2, 193536, Note_on_c, 0, 60, 80
2, 193916, Note_off_c, 0, 72, 100
2, 193916, Note_off_c, 0, 60, 100
2, 193920, Note_on_c, 0, 72, 80
2, 193920, Note_on_c, 0, 60, 80
2, 194684, Note_off_c, 0, 72, 100
2, 194684, Note_off_c, 0, 60, 100
2, 194688, Note_on_c, 0, 79, 80
2, 194688, Note_on_c, 0, 67, 80
2, 195068, Note_off_c, 0, 79, 100
2, 195068, Note_off_c, 0, 67, 100
2, 195072, Note_on_c, 0, 79, 80
2, 195072, Note_on_c, 0, 67, 80
2, 195836, Note_off_c, 0, 79, 100
2, 195836, Note_off_c, 0, 67, 100
2, 195840, Note_on_c, 0, 84, 80
2, 195840, Note_on_c, 0, 72, 80
2, 196220, Note_off_c, 0, 84, 100
2, 196220, Note_off_c, 0, 72, 100
2, 196224, Note_on_c, 0, 84, 80
2, 196224, Note_on_c, 0, 72, 80
2, 196988, Note_off_c, 0, 84, 100
2, 196988, Note_off_c, 0, 72, 100
2, 196992, Note_on_c, 0, 89, 110
2, 196992, Note_on_c, 0, 86, 110
2, 196992, Note_on_c, 0, 77, 110
2, 197180, Note_off_c, 0, 89, 100
2, 197180, Note_off_c, 0, 86, 100
2, 197180, Note_off_c, 0, 77, 100
2, 197376, Note_on_c, 0, 89, 110
2, 197376, Note_on_c, 0, 86, 110
2, 197376, Note_on_c, 0, 77, 110
2, 197948, Note_off_c, 0, 89, 100
2, 197948, Note_off_c, 0, 86, 100
2, 197948, Note_off_c, 0, 77, 100
2, 197952, Note_on_c, 0, 88, 110
2, 198048, Note_on_c, 0, 86, 110
2, 198132, Note_off_c, 0, 88, 100
2, 198144, Note_on_c, 0, 84, 110
2, 198236, Note_off_c, 0, 86, 100
2, 198240, Note_on_c, 0, 83, 110
2, 198332, Note_off_c, 0, 84, 100
2, 198336, Note_on_c, 0, 81, 110
2, 198404, Note_off_c, 0, 83, 100
2, 198432, Note_on_c, 0, 79, 110
2, 198512, Note_off_c, 0, 81, 100
2, 198528, Note_on_c, 0, 77, 110
2, 198608, Note_off_c, 0, 79, 100
2, 198624, Note_on_c, 0, 76, 110
2, 198704, Note_off_c, 0, 77, 100
2, 198720, Note_on_c, 0, 74, 110
2, 198808, Note_off_c, 0, 76, 100
2, 198816, Note_on_c, 0, 72, 110
2, 198900, Note_off_c, 0, 74, 100
2, 198912, Note_on_c, 0, 71, 110
2, 198976, Note_on_c, 0, 69, 110
2, 198984, Note_off_c, 0, 72, 100
2, 199032, Note_off_c, 0, 71, 100
2, 199040, Note_on_c, 0, 67, 110
2, 199096, Note_off_c, 0, 69, 100
2, 199104, Note_on_c, 0, 65, 110
2, 199160, Note_off_c, 0, 67, 100
2, 199168, Note_on_c, 0, 64, 110
2, 199228, Note_off_c, 0, 65, 100
2, 199232, Note_on_c, 0, 62, 110
2, 199292, Note_off_c, 0, 64, 100
2, 199296, Note_on_c, 0, 60, 110
2, 199348, Note_off_c, 0, 62, 100
2, 199372, Note_on_c, 0, 59, 110
2, 199432, Note_off_c, 0, 60, 100
2, 199448, Note_on_c, 0, 57, 110
2, 199508, Note_off_c, 0, 59, 100
2, 199524, Note_on_c, 0, 55, 110
2, 199588, Note_off_c, 0, 57, 100
2, 199600, Note_on_c, 0, 54, 110
2, 199652, Note_off_c, 0, 55, 100
2, 199676, Note_off_c, 0, 54, 100
2, 199680, Note_on_c, 0, 55, 110
2, 199868, Note_off_c, 0, 55, 100
2, 200448, Note_on_c, 0, 65, 110
2, 200448, Note_on_c, 0, 62, 110
2, 200448, Note_on_c, 0, 55, 110
2, 200636, Note_off_c, 0, 65, 100
2, 200636, Note_off_c, 0, 62, 100
2, 200636, Note_off_c, 0, 55, 100
2, 200832, Note_on_c, 0, 64, 110
2, 200832, Note_on_c, 0, 60, 110
2, 200832, Note_on_c, 0, 55, 110
2, 201020, Note_off_c, 0, 64, 100
2, 201020, Note_off_c, 0, 60, 100
2, 201020, Note_off_c, 0, 55, 100
2, 201600, Note_on_c, 0, 86, 110
2, 201600, Note_on_c, 0, 83, 110
2, 201600, Note_on_c, 0, 80, 110
2, 201600, Note_on_c, 0, 74, 110
2, 201788, Note_off_c, 0, 86, 100
2, 201788, Note_off_c, 0, 83, 100
2, 201788, Note_off_c, 0, 80, 100
2, 201788, Note_off_c, 0, 74, 100
2, 201984, Note_on_c, 0, 86, 110
2, 201984, Note_on_c, 0, 83, 110
2, 201984, Note_on_c, 0, 80, 110
2, 201984, Note_on_c, 0, 74, 110
2, 202556, Note_off_c, 0, 86, 100
2, 202556, Note_off_c, 0, 83, 100
2, 202556, Note_off_c, 0, 80, 100
2, 202556, Note_off_c, 0, 74, 100
2, 202560, Note_on_c, 0, 84, 110
2, 202656, Note_on_c, 0, 83, 110
2, 202736, Note_off_c, 0, 84, 100
2, 202752, Note_on_c, 0, 81, 110
2, 202828, Note_off_c, 0, 83, 100
2, 202848, Note_on_c, 0, 80, 110
2, 202928, Note_off_c, 0, 81, 100
2, 202944, Note_on_c, 0, 78, 110
2, 203012, Note_off_c, 0, 80, 100
2, 203040, Note_on_c, 0, 76, 110
2, 203112, Note_off_c, 0, 78, 100
2, 203136, Note_on_c, 0, 74, 110
2, 203208, Note_off_c, 0, 76, 100
2, 203232, Note_on_c, 0, 72, 110
2, 203304, Note_off_c, 0, 74, 100
2, 203328, Note_on_c, 0, 71, 110
2, 203400, Note_off_c, 0, 72, 100
2, 203424, Note_on_c, 0, 69, 110
2, 203500, Note_off_c, 0, 71, 100
2, 203520, Note_on_c, 0, 68, 110
2, 203584, Note_on_c, 0, 66, 110
2, 203592, Note_off_c, 0, 69, 100
2, 203640, Note_off_c, 0, 68, 100
2, 203648, Note_on_c, 0, 64, 110
2, 203704, Note_off_c, 0, 66, 100
2, 203712, Note_on_c, 0, 62, 110
2, 203772, Note_off_c, 0, 64, 100
2, 203776, Note_on_c, 0, 60, 110
2, 203836, Note_off_c, 0, 62, 100
2, 203840, Note_on_c, 0, 59, 110
2, 203900, Note_off_c, 0, 60, 100
2, 203904, Note_on_c, 0, 57, 110
2, 203964, Note_off_c, 0, 59, 100
2, 203980, Note_on_c, 0, 56, 110
2, 204032, Note_off_c, 0, 57, 100
2, 204056, Note_on_c, 0, 54, 110
2, 204120, Note_off_c, 0, 56, 100
2, 204132, Note_on_c, 0, 52, 110
2, 204196, Note_off_c, 0, 54, 100
2, 204208, Note_on_c, 0, 51, 110
2, 204268, Note_off_c, 0, 52, 100
2, 204284, Note_off_c, 0, 51, 100
2, 204288, Note_on_c, 0, 52, 110
2, 204668, Note_off_c, 0, 52, 100
2, 205056, Note_on_c, 0, 62, 110
2, 205056, Note_on_c, 0, 59, 110
2, 205056, Note_on_c, 0, 52, 110
2, 205244, Note_off_c, 0, 62, 100
2, 205244, Note_off_c, 0, 59, 100
2, 205244, Note_off_c, 0, 52, 100
2, 205440, Note_on_c, 0, 60, 110
2, 205440, Note_on_c, 0, 57, 110
2, 205440, Note_on_c, 0, 52, 110
2, 205628, Note_off_c, 0, 60, 100
2, 205628, Note_off_c, 0, 57, 100
2, 205628, Note_off_c, 0, 52, 100
2, 206208, Note_on_c, 0, 84, 80
2, 206588, Note_off_c, 0, 84, 100
2, 206592, Note_on_c, 0, 84, 80
2, 207164, Note_off_c, 0, 84, 100
2, 207168, Note_on_c, 0, 82, 80
2, 207264, Note_on_c, 0, 81, 80
2, 207352, Note_off_c, 0, 82, 100
2, 207360, Note_on_c, 0, 79, 80
2, 207432, Note_off_c, 0, 81, 100
2, 207456, Note_on_c, 0, 77, 80
2, 207532, Note_off_c, 0, 79, 100
2, 207552, Note_on_c, 0, 76, 80
2, 207628, Note_off_c, 0, 77, 100
2, 207648, Note_on_c, 0, 74, 80
2, 207728, Note_off_c, 0, 76, 100
2, 207744, Note_on_c, 0, 72, 80
2, 207820, Note_off_c, 0, 74, 100
2, 207840, Note_on_c, 0, 70, 80
2, 207908, Note_off_c, 0, 72, 100
2, 207936, Note_on_c, 0, 69, 80
2, 208004, Note_off_c, 0, 70, 100
2, 208032, Note_on_c, 0, 67, 80
2, 208112, Note_off_c, 0, 69, 100
2, 208128, Note_on_c, 0, 65, 80
2, 208204, Note_on_c, 0, 64, 80
2, 208212, Note_off_c, 0, 67, 100
2, 208276, Note_off_c, 0, 65, 100
2, 208280, Note_on_c, 0, 62, 80
2, 208332, Note_off_c, 0, 64, 100
2, 208356, Note_on_c, 0, 60, 80
2, 208432, Note_off_c, 0, 62, 100
2, 208432, Note_on_c, 0, 58, 80
2, 208492, Note_off_c, 0, 60, 100
2, 208508, Note_off_c, 0, 58, 100
2, 208512, Note_on_c, 0, 57, 80
2, 208892, Note_off_c, 0, 57, 100
2, 208896, Note_on_c, 0, 57, 80
2, 209660, Note_off_c, 0, 57, 100
2, 209664, Note_on_c, 0, 63, 80
2, 209664, Note_on_c, 0, 57, 80
2, 210044, Note_off_c, 0, 63, 100
2, 210044, Note_off_c, 0, 57, 100
2, 210048, Note_on_c, 0, 63, 80
2, 210048, Note_on_c, 0, 57, 80
2, 210812, Note_off_c, 0, 63, 100
2, 210812, Note_off_c, 0, 57, 100
2, 210816, Note_on_c, 0, 69, 80
2, 210816, Note_on_c, 0, 63, 80
2, 211196, Note_off_c, 0, 69, 100
2, 211196, Note_off_c, 0, 63, 100
2, 211200, Note_on_c, 0, 69, 80
2, 211200, Note_on_c, 0, 63, 80
2, 211964, Note_off_c, 0, 69, 100
2, 211964, Note_off_c, 0, 63, 100
2, 211968, Note_on_c, 0, 75, 80
2, 211968, Note_on_c, 0, 69, 80
2, 211968, Note_on_c, 0, 63, 80
2, 212348, Note_off_c, 0, 75, 100
2, 212348, Note_off_c, 0, 69, 100
2, 212348, Note_off_c, 0, 63, 100
2, 212352, Note_on_c, 0, 75, 80
2, 212352, Note_on_c, 0, 69, 80
2, 212352, Note_on_c, 0, 63, 80
2, 213116, Note_off_c, 0, 75, 100
2, 213116, Note_off_c, 0, 69, 100
2, 213116, Note_off_c, 0, 63, 100
2, 213120, Note_on_c, 0, 84, 80
2, 213120, Note_on_c, 0, 81, 80
2, 213120, Note_on_c, 0, 75, 80
2, 213120, Note_on_c, 0, 72, 80
2, 213500, Note_off_c, 0, 84, 100
2, 213500, Note_off_c, 0, 81, 100
2, 213500, Note_off_c, 0, 75, 100
2, 213500, Note_off_c, 0, 72, 100
2, 213504, Note_on_c, 0, 84, 80
2, 213504, Note_on_c, 0, 81, 80
2, 213504, Note_on_c, 0, 75, 80
2, 213504, Note_on_c, 0, 72, 80
2, 214268, Note_off_c, 0, 84, 100
2, 214268, Note_off_c, 0, 81, 100
2, 214268, Note_off_c, 0, 75, 100
2, 214268, Note_off_c, 0, 72, 100
2, 214272, Note_on_c, 0, 83, 92
2, 214272, Note_on_c, 0, 81, 92
2, 214272, Note_on_c, 0, 75, 92
2, 214272, Note_on_c, 0, 71, 92
2, 214652, Note_off_c, 0, 83, 100
2, 214652, Note_off_c, 0, 81, 100
2, 214652, Note_off_c, 0, 75, 100
2, 214652, Note_off_c, 0, 71, 100
2, 214656, Note_on_c, 0, 82, 98
2, 214656, Note_on_c, 0, 75, 98
2, 214656, Note_on_c, 0, 70, 98
2, 215420, Note_off_c, 0, 82, 100
2, 215420, Note_off_c, 0, 75, 100
2, 215420, Note_off_c, 0, 70, 100
2, 215424, Note_on_c, 0, 83, 110
2, 215424, Note_on_c, 0, 81, 110
2, 215424, Note_on_c, 0, 75, 110
2, 215424, Note_on_c, 0, 71, 110
2, 215804, Note_off_c, 0, 83, 100
2, 215804, Note_off_c, 0, 81, 100
2, 215804, Note_off_c, 0, 75, 100
2, 215804, Note_off_c, 0, 71, 100
2, 215808, Note_on_c, 0, 83, 110
2, 215808, Note_on_c, 0, 76, 110
2, 215808, Note_on_c, 0, 71, 110
2, 216956, Note_off_c, 0, 83, 100
2, 216956, Note_off_c, 0, 76, 100
2, 216956, Note_off_c, 0, 71, 100
2, 216960, Note_on_c, 0, 88, 110
2, 216960, Note_on_c, 0, 76, 110
2, 218108, Note_off_c, 0, 88, 100
2, 218108, Note_off_c, 0, 76, 100
2, 218112, Note_on_c, 0, 76, 110
2, 218112, Note_on_c, 0, 74, 110
2, 218112, Note_on_c, 0, 71, 110
2, 218300, Note_off_c, 0, 76, 100
2, 218300, Note_off_c, 0, 74, 100
2, 218300, Note_off_c, 0, 71, 100
2, 218496, Note_on_c, 0, 77, 110
2, 218496, Note_on_c, 0, 72, 110
2, 218496, Note_on_c, 0, 65, 110
2, 218684, Note_off_c, 0, 77, 100
2, 218684, Note_off_c, 0, 72, 100
2, 218684, Note_off_c, 0, 65, 100
2, 219264, Note_on_c, 0, 77, 110
2, 219264, Note_on_c, 0, 76, 110
2, 219264, Note_on_c, 0, 72, 110
2, 219452, Note_off_c, 0, 77, 100
2, 219452, Note_off_c, 0, 76, 100
2, 219452, Note_off_c, 0, 72, 100
2, 219648, Note_on_c, 0, 80, 110
2, 219648, Note_on_c, 0, 74, 110
2, 219648, Note_on_c, 0, 68, 110
2, 219836, Note_off_c, 0, 80, 100
2, 219836, Note_off_c, 0, 74, 100
2, 219836, Note_off_c, 0, 68, 100
2, 220416, Note_on_c, 0, 80, 110
2, 220416, Note_on_c, 0, 76, 110
2, 220416, Note_on_c, 0, 74, 110
2, 220416, Note_on_c, 0, 68, 110
2, 220604, Note_off_c, 0, 80, 100
2, 220604, Note_off_c, 0, 76, 100
2, 220604, Note_off_c, 0, 74, 100
2, 220604, Note_off_c, 0, 68, 100
2, 220800, Note_on_c, 0, 81, 110
2, 220800, Note_on_c, 0, 76, 110
2, 220800, Note_on_c, 0, 69, 110
2, 220988, Note_off_c, 0, 81, 100
2, 220988, Note_off_c, 0, 76, 100
2, 220988, Note_off_c, 0, 69, 100
2, 221568, Note_on_c, 0, 81, 110
2, 221568, Note_on_c, 0, 76, 110
2, 221568, Note_on_c, 0, 69, 110
2, 221756, Note_off_c, 0, 81, 100
2, 221756, Note_off_c, 0, 76, 100
2, 221756, Note_off_c, 0, 69, 100
2, 221952, Note_on_c, 0, 82, 110
2, 221952, Note_on_c, 0, 79, 110
2, 221952, Note_on_c, 0, 76, 110
2, 221952, Note_on_c, 0, 70, 110
2, 222140, Note_off_c, 0, 82, 100
2, 222140, Note_off_c, 0, 79, 100
2, 222140, Note_off_c, 0, 76, 100
2, 222140, Note_off_c, 0, 70, 100
2, 222720, Note_on_c, 0, 81, 70
2, 222720, Note_on_c, 0, 76, 70
2, 222720, Note_on_c, 0, 73, 70
2, 222908, Note_off_c, 0, 81, 100
2, 222908, Note_off_c, 0, 76, 100
2, 222908, Note_off_c, 0, 73, 100
2, 222912, Note_on_c, 0, 82, 70
2, 222912, Note_on_c, 0, 76, 70
2, 222912, Note_on_c, 0, 73, 70
2, 223100, Note_off_c, 0, 82, 100
2, 223100, Note_off_c, 0, 76, 100
2, 223100, Note_off_c, 0, 73, 100
2, 223104, Note_on_c, 0, 82, 70
2, 223104, Note_on_c, 0, 76, 70
2, 223104, Note_on_c, 0, 73, 70
2, 223292, Note_off_c, 0, 82, 100
2, 223292, Note_off_c, 0, 76, 100
2, 223292, Note_off_c, 0, 73, 100
2, 223296, Note_on_c, 0, 82, 70
2, 223296, Note_on_c, 0, 76, 70
2, 223296, Note_on_c, 0, 73, 70
2, 223484, Note_off_c, 0, 82, 100
2, 223484, Note_off_c, 0, 76, 100
2, 223484, Note_off_c, 0, 73, 100
2, 223488, Note_on_c, 0, 82, 70
2, 223488, Note_on_c, 0, 76, 70
2, 223488, Note_on_c, 0, 73, 70
2, 223676, Note_off_c, 0, 82, 100
2, 223676, Note_off_c, 0, 76, 100
2, 223676, Note_off_c, 0, 73, 100
2, 223680, Note_on_c, 0, 82, 70
2, 223680, Note_on_c, 0, 76, 70
2, 223680, Note_on_c, 0, 73, 70
2, 223868, Note_off_c, 0, 82, 100
2, 223868, Note_off_c, 0, 76, 100
2, 223868, Note_off_c, 0, 73, 100
2, 223872, Note_on_c, 0, 82, 70
2, 223872, Note_on_c, 0, 76, 70
2, 223872, Note_on_c, 0, 73, 70
2, 224060, Note_off_c, 0, 82, 100
2, 224060, Note_off_c, 0, 76, 100
2, 224060, Note_off_c, 0, 73, 100
2, 224064, Note_on_c, 0, 82, 78
2, 224064, Note_on_c, 0, 76, 78
2, 224064, Note_on_c, 0, 73, 78
2, 224252, Note_off_c, 0, 82, 100
2, 224252, Note_off_c, 0, 76, 100
2, 224252, Note_off_c, 0, 73, 100
2, 224256, Note_on_c, 0, 82, 86
2, 224256, Note_on_c, 0, 76, 86
2, 224256, Note_on_c, 0, 73, 86
2, 224444, Note_off_c, 0, 82, 100
2, 224444, Note_off_c, 0, 76, 100
2, 224444, Note_off_c, 0, 73, 100
2, 224448, Note_on_c, 0, 82, 94
2, 224448, Note_on_c, 0, 76, 94
2, 224448, Note_on_c, 0, 73, 94
2, 224636, Note_off_c, 0, 82, 100
2, 224636, Note_off_c, 0, 76, 100
2, 224636, Note_off_c, 0, 73, 100
2, 224640, Note_on_c, 0, 82, 102
2, 224640, Note_on_c, 0, 76, 102
2, 224640, Note_on_c, 0, 73, 102
2, 224828, Note_off_c, 0, 82, 100
2, 224828, Note_off_c, 0, 76, 100
2, 224828, Note_off_c, 0, 73, 100
2, 224832, Note_on_c, 0, 82, 110
2, 224832, Note_on_c, 0, 76, 110
2, 224832, Note_on_c, 0, 73, 110
2, 225020, Note_off_c, 0, 82, 100
2, 225020, Note_off_c, 0, 76, 100
2, 225020, Note_off_c, 0, 73, 100
2, 225024, Note_on_c, 0, 95, 120
2, 225024, Note_on_c, 0, 83, 120
2, 225212, Note_off_c, 0, 95, 100
2, 225212, Note_off_c, 0, 83, 100
2, 225216, Note_on_c, 0, 96, 120
2, 225216, Note_on_c, 0, 84, 120
2, 225404, Note_off_c, 0, 96, 100
2, 225404, Note_off_c, 0, 84, 100
2, 225408, Note_on_c, 0, 96, 120
2, 225408, Note_on_c, 0, 84, 120
2, 225596, Note_off_c, 0, 96, 100
2, 225596, Note_off_c, 0, 84, 100
2, 225600, Note_on_c, 0, 96, 120
2, 225600, Note_on_c, 0, 84, 120
2, 225788, Note_off_c, 0, 96, 100
2, 225788, Note_off_c, 0, 84, 100
2, 225792, Note_on_c, 0, 96, 120
2, 225792, Note_on_c, 0, 84, 120
2, 225980, Note_off_c, 0, 96, 100
2, 225980, Note_off_c, 0, 84, 100
2, 225984, Note_on_c, 0, 96, 120
2, 225984, Note_on_c, 0, 84, 120
2, 226172, Note_off_c, 0, 96, 100
2, 226172, Note_off_c, 0, 84, 100
2, 226176, Note_on_c, 0, 96, 115
2, 226176, Note_on_c, 0, 84, 115
2, 226364, Note_off_c, 0, 96, 100
2, 226364, Note_off_c, 0, 84, 100
2, 226368, Note_on_c, 0, 96, 111
2, 226368, Note_on_c, 0, 84, 111
2, 226556, Note_off_c, 0, 96, 100
2, 226556, Note_off_c, 0, 84, 100
2, 226560, Note_on_c, 0, 96, 106
2, 226560, Note_on_c, 0, 84, 106
2, 226748, Note_off_c, 0, 96, 100
2, 226748, Note_off_c, 0, 84, 100
2, 226752, Note_on_c, 0, 96, 101
2, 226752, Note_on_c, 0, 84, 101
2, 226940, Note_off_c, 0, 96, 100
2, 226940, Note_off_c, 0, 84, 100
2, 226944, Note_on_c, 0, 96, 96
2, 226944, Note_on_c, 0, 84, 96
2, 227132, Note_off_c, 0, 96, 100
2, 227132, Note_off_c, 0, 84, 100
2, 227136, Note_on_c, 0, 96, 91
2, 227136, Note_on_c, 0, 84, 91
2, 227324, Note_off_c, 0, 96, 100
2, 227324, Note_off_c, 0, 84, 100
2, 227328, Note_on_c, 0, 96, 80
2, 227328, Note_on_c, 0, 84, 80
2, 227708, Note_off_c, 0, 96, 100
2, 227708, Note_off_c, 0, 84, 100
2, 227712, Note_on_c, 0, 95, 80
2, 227712, Note_on_c, 0, 83, 80
2, 228860, Note_off_c, 0, 83, 100
2, 228860, Note_off_c, 0, 95, 100
2, 228864, Note_on_c, 0, 76, 80
2, 228864, Note_on_c, 0, 88, 80
2, 230012, Note_off_c, 0, 76, 100
2, 230012, Note_off_c, 0, 88, 100
2, 230016, Note_on_c, 0, 83, 80
2, 230016, Note_on_c, 0, 71, 80
2, 231164, Note_off_c, 0, 71, 100
2, 231164, Note_off_c, 0, 83, 100
2, 231168, Note_on_c, 0, 76, 80
2, 231168, Note_on_c, 0, 64, 80
2, 231932, Note_off_c, 0, 64, 100
2, 232316, Note_off_c, 0, 76, 100
2, 232320, Note_on_c, 0, 72, 80
2, 232700, Note_off_c, 0, 72, 100
2, 232704, Note_on_c, 0, 71, 80
2, 233084, Note_off_c, 0, 71, 100
2, 233088, Note_on_c, 0, 71, 80
2, 233852, Note_off_c, 0, 71, 100
2, 233856, Note_on_c, 0, 75, 80
2, 234236, Note_off_c, 0, 75, 100
2, 234240, Note_on_c, 0, 76, 80
2, 234428, Note_off_c, 0, 76, 100
2, 234432, Note_on_c, 0, 72, 80
2, 234620, Note_off_c, 0, 72, 100
2, 234624, Note_on_c, 0, 84, 80
2, 235196, Note_off_c, 0, 84, 100
2, 235200, Note_on_c, 0, 83, 80
2, 235388, Note_off_c, 0, 83, 100
2, 235584, Note_on_c, 0, 83, 80
2, 235772, Note_off_c, 0, 83, 100
2, 235776, Note_on_c, 0, 78, 80
2, 236348, Note_off_c, 0, 78, 100
2, 236352, Note_on_c, 0, 76, 80
2, 236540, Note_off_c, 0, 76, 100
2, 236736, Note_on_c, 0, 76, 80
2, 236924, Note_off_c, 0, 76, 100
2, 236928, Note_on_c, 0, 72, 80
2, 237500, Note_off_c, 0, 72, 100
2, 237504, Note_on_c, 0, 71, 80
2, 237692, Note_off_c, 0, 71, 100
2, 237888, Note_on_c, 0, 71, 80
2, 238076, Note_off_c, 0, 71, 100
2, 238080, Note_on_c, 0, 66, 80
2, 238652, Note_off_c, 0, 66, 100
2, 238656, Note_on_c, 0, 64, 80
2, 238844, Note_off_c, 0, 64, 100
2, 238848, Note_on_c, 0, 64, 80
2, 239228, Note_off_c, 0, 64, 100
2, 239232, Note_on_c, 0, 60, 80
2, 239612, Note_off_c, 0, 60, 100
2, 239616, Note_on_c, 0, 59, 80
2, 239996, Note_off_c, 0, 59, 100
2, 240000, Note_on_c, 0, 59, 80
2, 240188, Note_off_c, 0, 59, 100
2, 240192, Note_on_c, 0, 55, 80
2, 240380, Note_off_c, 0, 55, 100
2, 240384, Note_on_c, 0, 52, 80
2, 240572, Note_off_c, 0, 52, 100
2, 240576, Note_on_c, 0, 48, 80
2, 240764, Note_off_c, 0, 48, 100
2, 240768, Note_on_c, 0, 47, 80
2, 240956, Note_off_c, 0, 47, 100
2, 240960, Note_on_c, 0, 51, 80
2, 241148, Note_off_c, 0, 51, 100
2, 241152, Note_on_c, 0, 52, 80
2, 241532, Note_off_c, 0, 52, 100
2, 242304, Note_on_c, 0, 64, 80
2, 242304, Note_on_c, 0, 60, 80
2, 243452, Note_off_c, 0, 64, 100
2, 243452, Note_off_c, 0, 60, 100
2, 243456, Note_on_c, 0, 60, 80
2, 243456, Note_on_c, 0, 65, 80
2, 244220, Note_off_c, 0, 65, 100
2, 244224, Note_on_c, 0, 72, 80
2, 244604, Note_off_c, 0, 60, 100
2, 244608, Note_on_c, 0, 69, 80
2, 244608, Note_on_c, 0, 66, 80
2, 244608, Note_on_c, 0, 63, 80
2, 245372, Note_off_c, 0, 72, 100
2, 245376, Note_on_c, 0, 71, 80
2, 245756, Note_off_c, 0, 69, 100
2, 245756, Note_off_c, 0, 66, 100
2, 245756, Note_off_c, 0, 63, 100
2, 245756, Note_off_c, 0, 71, 100
2, 245760, Note_on_c, 0, 67, 80
2, 245760, Note_on_c, 0, 71, 80
2, 245760, Note_on_c, 0, 64, 80
2, 246140, Note_off_c, 0, 67, 100
2, 246140, Note_off_c, 0, 71, 100
2, 246140, Note_off_c, 0, 64, 100
2, 246912, Note_on_c, 0, 52, 80
2, 246912, Note_on_c, 0, 48, 80
2, 248060, Note_off_c, 0, 52, 100
2, 248060, Note_off_c, 0, 48, 100
2, 248064, Note_on_c, 0, 48, 80
2, 248064, Note_on_c, 0, 53, 80
2, 248828, Note_off_c, 0, 53, 100
2, 248832, Note_on_c, 0, 60, 80
2, 249212, Note_off_c, 0, 48, 100
2, 249216, Note_on_c, 0, 57, 80
2, 249216, Note_on_c, 0, 54, 80
2, 249216, Note_on_c, 0, 51, 80
2, 249980, Note_off_c, 0, 60, 100
2, 249984, Note_on_c, 0, 59, 80
2, 250364, Note_off_c, 0, 57, 100
2, 250364, Note_off_c, 0, 54, 100
2, 250364, Note_off_c, 0, 51, 100
2, 250364, Note_off_c, 0, 59, 100
2, 251136, Note_on_c, 0, 60, 80
2, 251520, Note_on_c, 0, 55, 80
2, 251520, Note_on_c, 0, 52, 80
2, 252284, Note_off_c, 0, 60, 100
2, 252288, Note_on_c, 0, 59, 80
2, 252668, Note_off_c, 0, 55, 100
2, 252668, Note_off_c, 0, 52, 100
2, 252668, Note_off_c, 0, 59, 100
2, 253440, Note_on_c, 0, 60, 79
2, 253824, Note_on_c, 0, 57, 78
2, 253824, Note_on_c, 0, 54, 78
2, 254588, Note_off_c, 0, 60, 100
2, 254592, Note_on_c, 0, 63, 78
2, 254972, Note_off_c, 0, 57, 100
2, 254972, Note_off_c, 0, 54, 100
2, 254972, Note_off_c, 0, 63, 100
2, 254976, Note_on_c, 0, 64, 77
2, 254976, Note_on_c, 0, 55, 77
2, 255356, Note_off_c, 0, 64, 100
2, 255356, Note_off_c, 0, 55, 100
2, 255744, Note_on_c, 0, 72, 77
2, 256128, Note_on_c, 0, 69, 77
2, 256128, Note_on_c, 0, 66, 77
2, 256128, Note_on_c, 0, 63, 77
2, 256892, Note_off_c, 0, 72, 100
2, 256896, Note_on_c, 0, 71, 76
2, 257276, Note_off_c, 0, 69, 100
2, 257276, Note_off_c, 0, 66, 100
2, 257276, Note_off_c, 0, 63, 100
2, 257276, Note_off_c, 0, 71, 100
2, 258048, Note_on_c, 0, 72, 75
2, 258432, Note_on_c, 0, 67, 75
2, 258432, Note_on_c, 0, 64, 75
2, 259196, Note_off_c, 0, 72, 100
2, 259200, Note_on_c, 0, 71, 74
2, 259580, Note_off_c, 0, 67, 100
2, 259580, Note_off_c, 0, 64, 100
2, 259580, Note_off_c, 0, 71, 100
2, 260352, Note_on_c, 0, 72, 73
2, 260736, Note_on_c, 0, 69, 73
2, 260736, Note_on_c, 0, 66, 73
2, 261500, Note_off_c, 0, 72, 100
2, 261504, Note_on_c, 0, 75, 72
2, 261884, Note_off_c, 0, 69, 100
2, 261884, Note_off_c, 0, 66, 100
2, 261884, Note_off_c, 0, 75, 100
2, 261888, Note_on_c, 0, 76, 72
2, 261888, Note_on_c, 0, 67, 72
2, 262268, Note_off_c, 0, 76, 100
2, 262268, Note_off_c, 0, 67, 100
2, 262656, Note_on_c, 0, 84, 71
2, 263040, Note_on_c, 0, 81, 71
2, 263040, Note_on_c, 0, 78, 71
2, 263040, Note_on_c, 0, 75, 71
2, 263804, Note_off_c, 0, 84, 100
2, 263808, Note_on_c, 0, 83, 71
2, 264188, Note_off_c, 0, 81, 100
2, 264188, Note_off_c, 0, 78, 100
2, 264188, Note_off_c, 0, 75, 100
2, 264188, Note_off_c, 0, 83, 100
2, 266112, Note_on_c, 0, 78, 80
2, 266112, Note_on_c, 0, 75, 80
2, 266492, Note_off_c, 0, 78, 100
2, 266492, Note_off_c, 0, 75, 100
2, 266496, Note_on_c, 0, 79, 80
2, 266496, Note_on_c, 0, 76, 80
2, 267068, Note_off_c, 0, 79, 100
2, 267068, Note_off_c, 0, 76, 100
2, 267072, Note_on_c, 0, 78, 80
2, 267072, Note_on_c, 0, 75, 80
2, 267260, Note_off_c, 0, 78, 100
2, 267260, Note_off_c, 0, 75, 100
2, 267264, Note_on_c, 0, 76, 80
2, 267644, Note_off_c, 0, 76, 100
2, 267648, Note_on_c, 0, 81, 80
2, 267648, Note_on_c, 0, 78, 80
2, 268028, Note_off_c, 0, 81, 100
2, 268028, Note_off_c, 0, 78, 100
2, 268416, Note_on_c, 0, 81, 80
2, 268416, Note_on_c, 0, 78, 80
2, 268796, Note_off_c, 0, 81, 100
2, 268796, Note_off_c, 0, 78, 100
2, 268800, Note_on_c, 0, 81, 80
2, 268800, Note_on_c, 0, 78, 80
2, 269372, Note_off_c, 0, 81, 100
2, 269372, Note_off_c, 0, 78, 100
2, 269376, Note_on_c, 0, 79, 80
2, 269564, Note_off_c, 0, 79, 100
2, 269568, Note_on_c, 0, 81, 80
2, 269568, Note_on_c, 0, 78, 80
2, 269948, Note_off_c, 0, 81, 100
2, 269948, Note_off_c, 0, 78, 100
2, 269952, Note_on_c, 0, 83, 80
2, 269952, Note_on_c, 0, 79, 80
2, 270332, Note_off_c, 0, 83, 100
2, 270332, Note_off_c, 0, 79, 100
2, 270720, Note_on_c, 0, 83, 80
2, 271100, Note_off_c, 0, 83, 100
2, 271104, Note_on_c, 0, 83, 80
2, 271676, Note_off_c, 0, 83, 100
2, 271680, Note_on_c, 0, 81, 80
2, 271868, Note_off_c, 0, 81, 100
2, 271872, Note_on_c, 0, 83, 80
2, 271872, Note_on_c, 0, 79, 80
2, 272252, Note_off_c, 0, 83, 100
2, 272252, Note_off_c, 0, 79, 100
2, 272256, Note_on_c, 0, 84, 80
2, 272256, Note_on_c, 0, 81, 80
2, 272636, Note_off_c, 0, 84, 100
2, 272636, Note_off_c, 0, 81, 100
2, 273024, Note_on_c, 0, 88, 80
2, 273024, Note_on_c, 0, 76, 80
2, 273980, Note_off_c, 0, 76, 100
2, 273980, Note_off_c, 0, 88, 100
2, 273984, Note_on_c, 0, 87, 80
2, 273984, Note_on_c, 0, 75, 80
2, 274172, Note_off_c, 0, 87, 100
2, 274172, Note_off_c, 0, 75, 100
2, 274176, Note_on_c, 0, 88, 80
2, 274176, Note_on_c, 0, 76, 80
2, 274556, Note_off_c, 0, 88, 100
2, 274556, Note_off_c, 0, 76, 100
2, 274560, Note_on_c, 0, 66, 85
2, 274560, Note_on_c, 0, 64, 85
2, 274560, Note_on_c, 0, 60, 85
2, 275324, Note_off_c, 0, 66, 100
2, 275324, Note_off_c, 0, 64, 100
2, 275324, Note_off_c, 0, 60, 100
2, 275328, Note_on_c, 0, 66, 95
2, 275328, Note_on_c, 0, 64, 95
2, 275328, Note_on_c, 0, 61, 95
2, 275708, Note_off_c, 0, 66, 100
2, 275708, Note_off_c, 0, 64, 100
2, 275708, Note_off_c, 0, 61, 100
2, 275712, Note_on_c, 0, 63, 100
2, 275712, Note_on_c, 0, 57, 100
2, 275712, Note_on_c, 0, 66, 100
2, 276284, Note_off_c, 0, 66, 100
2, 276288, Note_on_c, 0, 67, 93
2, 276476, Note_off_c, 0, 67, 100
2, 276480, Note_on_c, 0, 69, 91
2, 276668, Note_off_c, 0, 69, 100
2, 276672, Note_on_c, 0, 67, 88
2, 276860, Note_off_c, 0, 63, 100
2, 276860, Note_off_c, 0, 57, 100
2, 276860, Note_off_c, 0, 67, 100
2, 276864, Note_on_c, 0, 66, 86
2, 277244, Note_off_c, 0, 66, 100
2, 277248, Note_on_c, 0, 64, 81
2, 277628, Note_off_c, 0, 64, 100
2, 277632, Note_on_c, 0, 88, 80
2, 277632, Note_on_c, 0, 76, 80
2, 278588, Note_off_c, 0, 76, 100
2, 278588, Note_off_c, 0, 88, 100
2, 278592, Note_on_c, 0, 87, 97
2, 278592, Note_on_c, 0, 75, 97
2, 278780, Note_off_c, 0, 87, 100
2, 278780, Note_off_c, 0, 75, 100
2, 278784, Note_on_c, 0, 88, 100
2, 278784, Note_on_c, 0, 76, 100
2, 279164, Note_off_c, 0, 88, 100
2, 279164, Note_off_c, 0, 76, 100
2, 279168, Note_on_c, 0, 66, 100
2, 279168, Note_on_c, 0, 64, 100
2, 279168, Note_on_c, 0, 60, 100
2, 279932, Note_off_c, 0, 66, 100
2, 279932, Note_off_c, 0, 64, 100
2, 279932, Note_off_c, 0, 60, 100
2, 279936, Note_on_c, 0, 66, 81
2, 279936, Note_on_c, 0, 64, 81
2, 279936, Note_on_c, 0, 61, 81
2, 280316, Note_off_c, 0, 66, 100
2, 280316, Note_off_c, 0, 64, 100
2, 280316, Note_off_c, 0, 61, 100
2, 280320, Note_on_c, 0, 63, 70
2, 280320, Note_on_c, 0, 57, 70
2, 280320, Note_on_c, 0, 66, 70
2, 280892, Note_off_c, 0, 66, 100
2, 280896, Note_on_c, 0, 69, 70
2, 281084, Note_off_c, 0, 69, 100
2, 281088, Note_on_c, 0, 67, 70
2, 281276, Note_off_c, 0, 67, 100
2, 281280, Note_on_c, 0, 66, 70
2, 281468, Note_off_c, 0, 63, 100
2, 281468, Note_off_c, 0, 57, 100
2, 281468, Note_off_c, 0, 66, 100
2, 281472, Note_on_c, 0, 64, 70
2, 281472, Note_on_c, 0, 55, 70
2, 282620, Note_off_c, 0, 64, 100
2, 282620, Note_off_c, 0, 55, 100
2, 283776, Control_c, 0, 7, 0
2, 284160, Note_on_c, 0, 64, 1
2, 284540, Note_off_c, 0, 64, 100
2, 284540, End_track
3, 0, Start_track
3, 0, Title_t, "Left"
3, 0, Control_c, 1, 0, 0
3, 0, Program_c, 1, 0
3, 0, Control_c, 1, 7, 100
3, 0, Control_c, 1, 10, 58
3, 0, Control_c, 1, 91, 127
3, 0, Key_signature, 1, "minor"
3, 0, Note_on_c, 1, 52, 110
3, 0, Note_on_c, 1, 40, 110
3, 188, Note_off_c, 1, 52, 100
3, 188, Note_off_c, 1, 40, 100
3, 384, Note_on_c, 1, 52, 110
3, 384, Note_on_c, 1, 40, 110
3, 1148, Note_off_c, 1, 52, 100
3, 1148, Note_off_c, 1, 40, 100
3, 1152, Note_on_c, 1, 52, 110
3, 1152, Note_on_c, 1, 40, 110
3, 1340, Note_off_c, 1, 52, 100
3, 1340, Note_off_c, 1, 40, 100
3, 1536, Note_on_c, 1, 50, 110
3, 1536, Note_on_c, 1, 38, 110
3, 1724, Note_off_c, 1, 50, 100
3, 1724, Note_off_c, 1, 38, 100
3, 2304, Note_on_c, 1, 62, 80
3, 2684, Note_off_c, 1, 62, 100
3, 2688, Note_on_c, 1, 62, 80
3, 2688, Note_on_c, 1, 60, 80
3, 3260, Note_off_c, 1, 62, 100
3, 3260, Note_off_c, 1, 60, 100
3, 3264, Note_on_c, 1, 62, 80
3, 3264, Note_on_c, 1, 59, 80
3, 3452, Note_off_c, 1, 62, 100
3, 3452, Note_off_c, 1, 59, 100
3, 3456, Note_on_c, 1, 60, 80
3, 3456, Note_on_c, 1, 57, 80
3, 3836, Note_off_c, 1, 60, 100
3, 3836, Note_off_c, 1, 57, 100
3, 3840, Note_on_c, 1, 59, 80
3, 3840, Note_on_c, 1, 55, 80
3, 4220, Note_off_c, 1, 59, 100
3, 4220, Note_off_c, 1, 55, 100
3, 4608, Note_on_c, 1, 55, 110
3, 4608, Note_on_c, 1, 43, 110
3, 4796, Note_off_c, 1, 55, 100
3, 4796, Note_off_c, 1, 43, 100
3, 4992, Note_on_c, 1, 55, 110
3, 4992, Note_on_c, 1, 43, 110
3, 5756, Note_off_c, 1, 55, 100
3, 5756, Note_off_c, 1, 43, 100
3, 5760, Note_on_c, 1, 43, 110
3, 5760, Note_on_c, 1, 31, 110
3, 5948, Note_off_c, 1, 43, 100
3, 5948, Note_off_c, 1, 31, 100
3, 6144, Note_on_c, 1, 42, 110
3, 6144, Note_on_c, 1, 30, 110
3, 6332, Note_off_c, 1, 42, 100
3, 6332, Note_off_c, 1, 30, 100
3, 6912, Note_on_c, 1, 66, 80
3, 7292, Note_off_c, 1, 66, 100
3, 7296, Note_on_c, 1, 66, 80
3, 7296, Note_on_c, 1, 64, 80
3, 7868, Note_off_c, 1, 66, 100
3, 7868, Note_off_c, 1, 64, 100
3, 7872, Note_on_c, 1, 66, 80
3, 7872, Note_on_c, 1, 62, 80
3, 8060, Note_off_c, 1, 66, 100
3, 8060, Note_off_c, 1, 62, 100
3, 8064, Note_on_c, 1, 64, 80
3, 8064, Note_on_c, 1, 61, 80
3, 8444, Note_off_c, 1, 64, 100
3, 8444, Note_off_c, 1, 61, 100
3, 8448, Note_on_c, 1, 62, 80
3, 8448, Note_on_c, 1, 59, 80
3, 8828, Note_off_c, 1, 62, 100
3, 8828, Note_off_c, 1, 59, 100
3, 9600, Note_on_c, 1, 62, 80
3, 9600, Note_on_c, 1, 67, 80
3, 9600, Note_on_c, 1, 59, 80
3, 10364, Note_off_c, 1, 62, 100
3, 10368, Note_on_c, 1, 64, 80
3, 10748, Note_off_c, 1, 59, 100
3, 10752, Note_on_c, 1, 57, 80
3, 11516, Note_off_c, 1, 64, 100
3, 11516, Note_off_c, 1, 67, 100
3, 11516, Note_off_c, 1, 57, 100
3, 11520, Note_on_c, 1, 66, 80
3, 11520, Note_on_c, 1, 63, 80
3, 11900, Note_off_c, 1, 63, 100
3, 11904, Note_on_c, 1, 62, 80
3, 12668, Note_off_c, 1, 66, 100
3, 12668, Note_off_c, 1, 62, 100
3, 12672, Note_on_c, 1, 66, 80
3, 13052, Note_off_c, 1, 66, 100
3, 13056, Note_on_c, 1, 67, 80
3, 13820, Note_off_c, 1, 67, 100
3, 13824, Note_on_c, 1, 55, 80
3, 14204, Note_off_c, 1, 55, 100
3, 14208, Note_on_c, 1, 52, 80
3, 14972, Note_off_c, 1, 52, 100
3, 14976, Note_on_c, 1, 64, 79
3, 15356, Note_off_c, 1, 64, 100
3, 15360, Note_on_c, 1, 60, 77
3, 16124, Note_off_c, 1, 60, 100
3, 16128, Note_on_c, 1, 48, 73
3, 16512, Note_on_c, 1, 36, 71
3, 16896, Note_on_c, 1, 55, 70
3, 17276, Note_off_c, 1, 55, 100
3, 17280, Note_on_c, 1, 52, 70
3, 17660, Note_off_c, 1, 48, 100
3, 17660, Note_off_c, 1, 36, 100
3, 17660, Note_off_c, 1, 52, 100
3, 17664, Note_on_c, 1, 47, 70
3, 17664, Note_on_c, 1, 35, 70
3, 18428, Note_off_c, 1, 47, 100
3, 18428, Note_off_c, 1, 35, 100
3, 18816, Note_on_c, 1, 59, 80
3, 18816, Note_on_c, 1, 52, 80
3, 18816, Note_on_c, 1, 43, 80
3, 19964, Note_off_c, 1, 59, 100
3, 19964, Note_off_c, 1, 52, 100
3, 19964, Note_off_c, 1, 43, 100
3, 19968, Note_on_c, 1, 52, 80
3, 19968, Note_on_c, 1, 45, 80
3, 20732, Note_off_c, 1, 45, 100
3, 20736, Note_on_c, 1, 46, 85
3, 21116, Note_off_c, 1, 52, 100
3, 21116, Note_off_c, 1, 46, 100
3, 21120, Note_on_c, 1, 47, 88
3, 22268, Note_off_c, 1, 47, 100
3, 22272, Note_on_c, 1, 55, 80
3, 22272, Note_on_c, 1, 48, 80
3, 23036, Note_off_c, 1, 55, 100
3, 23036, Note_off_c, 1, 48, 100
3, 23040, Note_on_c, 1, 47, 80
3, 23228, Note_off_c, 1, 47, 100
3, 23232, Note_on_c, 1, 45, 83
3, 23420, Note_off_c, 1, 45, 100
3, 23424, Note_on_c, 1, 59, 86
3, 23424, Note_on_c, 1, 52, 86
3, 23424, Note_on_c, 1, 43, 86
3, 24188, Note_off_c, 1, 43, 100
3, 24192, Note_on_c, 1, 44, 100
3, 24572, Note_off_c, 1, 59, 100
3, 24572, Note_off_c, 1, 52, 100
3, 24572, Note_off_c, 1, 44, 100
3, 24576, Note_on_c, 1, 45, 101
3, 25340, Note_off_c, 1, 45, 100
3, 25344, Note_on_c, 1, 46, 80
3, 25724, Note_off_c, 1, 46, 100
3, 25728, Note_on_c, 1, 47, 80
3, 25728, Note_on_c, 1, 35, 80
3, 26876, Note_off_c, 1, 47, 100
3, 26876, Note_off_c, 1, 35, 100
3, 26880, Note_on_c, 1, 52, 80
3, 26880, Note_on_c, 1, 40, 80
3, 27260, Note_off_c, 1, 52, 100
3, 27260, Note_off_c, 1, 40, 100
3, 27648, Note_on_c, 1, 47, 70
3, 27648, Note_on_c, 1, 35, 70
3, 28028, Note_off_c, 1, 47, 100
3, 28028, Note_off_c, 1, 35, 100
3, 28032, Note_on_c, 1, 47, 70
3, 28032, Note_on_c, 1, 35, 70
3, 28796, Note_off_c, 1, 47, 100
3, 28796, Note_off_c, 1, 35, 100
3, 28800, Note_on_c, 1, 52, 72
3, 28800, Note_on_c, 1, 40, 72
3, 29180, Note_off_c, 1, 52, 100
3, 29180, Note_off_c, 1, 40, 100
3, 29184, Note_on_c, 1, 52, 73
3, 29184, Note_on_c, 1, 40, 73
3, 29948, Note_off_c, 1, 52, 100
3, 29948, Note_off_c, 1, 40, 100
3, 29952, Note_on_c, 1, 59, 75
3, 29952, Note_on_c, 1, 47, 75
3, 30332, Note_off_c, 1, 59, 100
3, 30332, Note_off_c, 1, 47, 100
3, 30336, Note_on_c, 1, 59, 76
3, 30336, Note_on_c, 1, 47, 76
3, 31100, Note_off_c, 1, 59, 100
3, 31100, Note_off_c, 1, 47, 100
3, 31104, Note_on_c, 1, 64, 78
3, 31104, Note_on_c, 1, 52, 78
3, 31484, Note_off_c, 1, 64, 100
3, 31484, Note_off_c, 1, 52, 100
3, 31488, Note_on_c, 1, 64, 79
3, 31488, Note_on_c, 1, 52, 79
3, 32252, Note_off_c, 1, 64, 100
3, 32252, Note_off_c, 1, 52, 100
3, 32256, Note_on_c, 1, 65, 110
3, 32256, Note_on_c, 1, 62, 110
3, 32256, Note_on_c, 1, 59, 110
3, 32256, Note_on_c, 1, 55, 110
3, 32444, Note_off_c, 1, 65, 100
3, 32444, Note_off_c, 1, 62, 100
3, 32444, Note_off_c, 1, 59, 100
3, 32444, Note_off_c, 1, 55, 100
3, 32640, Note_on_c, 1, 65, 110
3, 32640, Note_on_c, 1, 62, 110
3, 32640, Note_on_c, 1, 59, 110
3, 32640, Note_on_c, 1, 55, 110
3, 33212, Note_off_c, 1, 65, 100
3, 33212, Note_off_c, 1, 62, 100
3, 33212, Note_off_c, 1, 59, 100
3, 33212, Note_off_c, 1, 55, 100
3, 35712, Note_on_c, 1, 47, 80
3, 35712, Note_on_c, 1, 35, 80
3, 35900, Note_off_c, 1, 47, 100
3, 35900, Note_off_c, 1, 35, 100
3, 36096, Note_on_c, 1, 48, 80
3, 36096, Note_on_c, 1, 36, 80
3, 36284, Note_off_c, 1, 48, 100
3, 36284, Note_off_c, 1, 36, 100
3, 36864, Note_on_c, 1, 62, 110
3, 36864, Note_on_c, 1, 59, 110
3, 36864, Note_on_c, 1, 56, 110
3, 36864, Note_on_c, 1, 52, 110
3, 37052, Note_off_c, 1, 62, 100
3, 37052, Note_off_c, 1, 59, 100
3, 37052, Note_off_c, 1, 56, 100
3, 37052, Note_off_c, 1, 52, 100
3, 37248, Note_on_c, 1, 62, 110
3, 37248, Note_on_c, 1, 59, 110
3, 37248, Note_on_c, 1, 56, 110
3, 37248, Note_on_c, 1, 52, 110
3, 37820, Note_off_c, 1, 62, 100
3, 37820, Note_off_c, 1, 59, 100
3, 37820, Note_off_c, 1, 56, 100
3, 37820, Note_off_c, 1, 52, 100
3, 40320, Note_on_c, 1, 44, 110
3, 40320, Note_on_c, 1, 32, 110
3, 40508, Note_off_c, 1, 44, 100
3, 40508, Note_off_c, 1, 32, 100
3, 40704, Note_on_c, 1, 45, 110
3, 40704, Note_on_c, 1, 33, 110
3, 40892, Note_off_c, 1, 45, 100
3, 40892, Note_off_c, 1, 33, 100
3, 41472, Note_on_c, 1, 58, 80
3, 41852, Note_off_c, 1, 58, 100
3, 41856, Note_on_c, 1, 58, 80
3, 43388, Note_off_c, 1, 58, 100
3, 44928, Note_on_c, 1, 64, 80
3, 45308, Note_off_c, 1, 64, 100
3, 45312, Note_on_c, 1, 64, 80
3, 46076, Note_off_c, 1, 64, 100
3, 46080, Note_on_c, 1, 64, 80
3, 46080, Note_on_c, 1, 58, 80
3, 46460, Note_off_c, 1, 64, 100
3, 46460, Note_off_c, 1, 58, 100
3, 46464, Note_on_c, 1, 64, 80
3, 46464, Note_on_c, 1, 58, 80
3, 47228, Note_off_c, 1, 64, 100
3, 47228, Note_off_c, 1, 58, 100
3, 47232, Note_on_c, 1, 64, 80
3, 47232, Note_on_c, 1, 58, 80
3, 47612, Note_off_c, 1, 64, 100
3, 47612, Note_off_c, 1, 58, 100
3, 47616, Note_on_c, 1, 64, 80
3, 47616, Note_on_c, 1, 58, 80
3, 48380, Note_off_c, 1, 64, 100
3, 48380, Note_off_c, 1, 58, 100
3, 48384, Note_on_c, 1, 67, 95
3, 48384, Note_on_c, 1, 64, 95
3, 48384, Note_on_c, 1, 61, 95
3, 48384, Note_on_c, 1, 58, 95
3, 48764, Note_off_c, 1, 67, 100
3, 48764, Note_off_c, 1, 64, 100
3, 48764, Note_off_c, 1, 61, 100
3, 48764, Note_off_c, 1, 58, 100
3, 48768, Note_on_c, 1, 64, 97
3, 48768, Note_on_c, 1, 61, 97
3, 48768, Note_on_c, 1, 58, 97
3, 48768, Note_on_c, 1, 67, 97
3, 49532, Note_off_c, 1, 67, 100
3, 49536, Note_on_c, 1, 66, 102
3, 49916, Note_off_c, 1, 66, 100
3, 49920, Note_on_c, 1, 65, 104
3, 50684, Note_off_c, 1, 58, 100
3, 50684, Note_off_c, 1, 61, 100
3, 50684, Note_off_c, 1, 64, 100
3, 50684, Note_off_c, 1, 65, 100
3, 50688, Note_on_c, 1, 66, 109
3, 50688, Note_on_c, 1, 64, 109
3, 50688, Note_on_c, 1, 61, 109
3, 50688, Note_on_c, 1, 58, 109
3, 51068, Note_off_c, 1, 66, 100
3, 51068, Note_off_c, 1, 64, 100
3, 51068, Note_off_c, 1, 61, 100
3, 51068, Note_off_c, 1, 58, 100
3, 51072, Note_on_c, 1, 66, 110
3, 51072, Note_on_c, 1, 62, 110
3, 51072, Note_on_c, 1, 59, 110
3, 51260, Note_off_c, 1, 66, 100
3, 51260, Note_off_c, 1, 62, 100
3, 51260, Note_off_c, 1, 59, 100
3, 51264, Note_on_c, 1, 66, 110
3, 51264, Note_on_c, 1, 62, 110
3, 51264, Note_on_c, 1, 59, 110
3, 51452, Note_off_c, 1, 66, 100
3, 51452, Note_off_c, 1, 62, 100
3, 51452, Note_off_c, 1, 59, 100
3, 51456, Note_on_c, 1, 66, 110
3, 51456, Note_on_c, 1, 62, 110
3, 51456, Note_on_c, 1, 59, 110
3, 51644, Note_off_c, 1, 66, 100
3, 51644, Note_off_c, 1, 62, 100
3, 51644, Note_off_c, 1, 59, 100
3, 51648, Note_on_c, 1, 66, 110
3, 51648, Note_on_c, 1, 62, 110
3, 51648, Note_on_c, 1, 59, 110
3, 51836, Note_off_c, 1, 66, 100
3, 51836, Note_off_c, 1, 62, 100
3, 51836, Note_off_c, 1, 59, 100
3, 51840, Note_on_c, 1, 66, 110
3, 51840, Note_on_c, 1, 62, 110
3, 51840, Note_on_c, 1, 59, 110
3, 52028, Note_off_c, 1, 66, 100
3, 52028, Note_off_c, 1, 62, 100
3, 52028, Note_off_c, 1, 59, 100
3, 52032, Note_on_c, 1, 66, 110
3, 52032, Note_on_c, 1, 62, 110
3, 52032, Note_on_c, 1, 59, 110
3, 52220, Note_off_c, 1, 66, 100
3, 52220, Note_off_c, 1, 62, 100
3, 52220, Note_off_c, 1, 59, 100
3, 52224, Note_on_c, 1, 59, 110
3, 52224, Note_on_c, 1, 54, 110
3, 52224, Note_on_c, 1, 50, 110
3, 52412, Note_off_c, 1, 59, 100
3, 52412, Note_off_c, 1, 54, 100
3, 52412, Note_off_c, 1, 50, 100
3, 52416, Note_on_c, 1, 59, 110
3, 52416, Note_on_c, 1, 54, 110
3, 52416, Note_on_c, 1, 50, 110
3, 52604, Note_off_c, 1, 59, 100
3, 52604, Note_off_c, 1, 54, 100
3, 52604, Note_off_c, 1, 50, 100
3, 52608, Note_on_c, 1, 59, 110
3, 52608, Note_on_c, 1, 54, 110
3, 52608, Note_on_c, 1, 50, 110
3, 52796, Note_off_c, 1, 59, 100
3, 52796, Note_off_c, 1, 54, 100
3, 52796, Note_off_c, 1, 50, 100
3, 52800, Note_on_c, 1, 59, 110
3, 52800, Note_on_c, 1, 54, 110
3, 52800, Note_on_c, 1, 50, 110
3, 52988, Note_off_c, 1, 59, 100
3, 52988, Note_off_c, 1, 54, 100
3, 52988, Note_off_c, 1, 50, 100
3, 52992, Note_on_c, 1, 59, 110
3, 52992, Note_on_c, 1, 54, 110
3, 52992, Note_on_c, 1, 50, 110
3, 53180, Note_off_c, 1, 59, 100
3, 53180, Note_off_c, 1, 54, 100
3, 53180, Note_off_c, 1, 50, 100
3, 53184, Note_on_c, 1, 59, 110
3, 53184, Note_on_c, 1, 54, 110
3, 53184, Note_on_c, 1, 50, 110
3, 53372, Note_off_c, 1, 59, 100
3, 53372, Note_off_c, 1, 54, 100
3, 53372, Note_off_c, 1, 50, 100
3, 53376, Note_on_c, 1, 57, 110
3, 53376, Note_on_c, 1, 54, 110
3, 53376, Note_on_c, 1, 51, 110
3, 53564, Note_off_c, 1, 57, 100
3, 53564, Note_off_c, 1, 54, 100
3, 53564, Note_off_c, 1, 51, 100
3, 53568, Note_on_c, 1, 57, 110
3, 53568, Note_on_c, 1, 54, 110
3, 53568, Note_on_c, 1, 51, 110
3, 53756, Note_off_c, 1, 57, 100
3, 53756, Note_off_c, 1, 54, 100
3, 53756, Note_off_c, 1, 51, 100
3, 53760, Note_on_c, 1, 55, 110
3, 53760, Note_on_c, 1, 52, 110
3, 53948, Note_off_c, 1, 55, 100
3, 53948, Note_off_c, 1, 52, 100
3, 53952, Note_on_c, 1, 55, 110
3, 53952, Note_on_c, 1, 52, 110
3, 54140, Note_off_c, 1, 55, 100
3, 54140, Note_off_c, 1, 52, 100
3, 54144, Note_on_c, 1, 55, 110
3, 54144, Note_on_c, 1, 52, 110
3, 54332, Note_off_c, 1, 55, 100
3, 54332, Note_off_c, 1, 52, 100
3, 54336, Note_on_c, 1, 52, 110
3, 54336, Note_on_c, 1, 55, 110
3, 54524, Note_off_c, 1, 52, 100
3, 54524, Note_off_c, 1, 55, 100
3, 54528, Note_on_c, 1, 59, 110
3, 54528, Note_on_c, 1, 55, 110
3, 54528, Note_on_c, 1, 52, 110
3, 54716, Note_off_c, 1, 59, 100
3, 54716, Note_off_c, 1, 55, 100
3, 54716, Note_off_c, 1, 52, 100
3, 54720, Note_on_c, 1, 59, 110
3, 54720, Note_on_c, 1, 55, 110
3, 54720, Note_on_c, 1, 52, 110
3, 54908, Note_off_c, 1, 59, 100
3, 54908, Note_off_c, 1, 55, 100
3, 54908, Note_off_c, 1, 52, 100
3, 54912, Note_on_c, 1, 57, 110
3, 54912, Note_on_c, 1, 54, 110
3, 55100, Note_off_c, 1, 57, 100
3, 55100, Note_off_c, 1, 54, 100
3, 55104, Note_on_c, 1, 57, 110
3, 55104, Note_on_c, 1, 54, 110
3, 55292, Note_off_c, 1, 57, 100
3, 55292, Note_off_c, 1, 54, 100
3, 55296, Note_on_c, 1, 57, 110
3, 55296, Note_on_c, 1, 54, 110
3, 55484, Note_off_c, 1, 57, 100
3, 55484, Note_off_c, 1, 54, 100
3, 55488, Note_on_c, 1, 57, 110
3, 55488, Note_on_c, 1, 54, 110
3, 55676, Note_off_c, 1, 57, 100
3, 55676, Note_off_c, 1, 54, 100
3, 55680, Note_on_c, 1, 60, 110
3, 55680, Note_on_c, 1, 57, 110
3, 55680, Note_on_c, 1, 54, 110
3, 55868, Note_off_c, 1, 60, 100
3, 55868, Note_off_c, 1, 57, 100
3, 55868, Note_off_c, 1, 54, 100
3, 55872, Note_on_c, 1, 60, 110
3, 55872, Note_on_c, 1, 57, 110
3, 55872, Note_on_c, 1, 54, 110
3, 56060, Note_off_c, 1, 60, 100
3, 56060, Note_off_c, 1, 57, 100
3, 56060, Note_off_c, 1, 54, 100
3, 56064, Note_on_c, 1, 59, 110
3, 56064, Note_on_c, 1, 55, 110
3, 56252, Note_off_c, 1, 59, 100
3, 56252, Note_off_c, 1, 55, 100
3, 56256, Note_on_c, 1, 59, 110
3, 56256, Note_on_c, 1, 55, 110
3, 56444, Note_off_c, 1, 59, 100
3, 56444, Note_off_c, 1, 55, 100
3, 56448, Note_on_c, 1, 59, 110
3, 56448, Note_on_c, 1, 55, 110
3, 56636, Note_off_c, 1, 59, 100
3, 56636, Note_off_c, 1, 55, 100
3, 56640, Note_on_c, 1, 59, 110
3, 56640, Note_on_c, 1, 55, 110
3, 56828, Note_off_c, 1, 59, 100
3, 56828, Note_off_c, 1, 55, 100
3, 56832, Note_on_c, 1, 59, 110
3, 56832, Note_on_c, 1, 56, 110
3, 57020, Note_off_c, 1, 59, 100
3, 57020, Note_off_c, 1, 56, 100
3, 57024, Note_on_c, 1, 62, 110
3, 57024, Note_on_c, 1, 59, 110
3, 57024, Note_on_c, 1, 56, 110
3, 57212, Note_off_c, 1, 62, 100
3, 57212, Note_off_c, 1, 59, 100
3, 57212, Note_off_c, 1, 56, 100
3, 57216, Note_on_c, 1, 61, 110
3, 57216, Note_on_c, 1, 59, 110
3, 57216, Note_on_c, 1, 56, 110
3, 57404, Note_off_c, 1, 61, 100
3, 57404, Note_off_c, 1, 59, 100
3, 57404, Note_off_c, 1, 56, 100
3, 57408, Note_on_c, 1, 61, 110
3, 57408, Note_on_c, 1, 59, 110
3, 57408, Note_on_c, 1, 56, 110
3, 57596, Note_off_c, 1, 61, 100
3, 57596, Note_off_c, 1, 59, 100
3, 57596, Note_off_c, 1, 56, 100
3, 57600, Note_on_c, 1, 61, 110
3, 57600, Note_on_c, 1, 59, 110
3, 57600, Note_on_c, 1, 56, 110
3, 57788, Note_off_c, 1, 61, 100
3, 57788, Note_off_c, 1, 59, 100
3, 57788, Note_off_c, 1, 56, 100
3, 57792, Note_on_c, 1, 61, 110
3, 57792, Note_on_c, 1, 59, 110
3, 57792, Note_on_c, 1, 56, 110
3, 57980, Note_off_c, 1, 61, 100
3, 57980, Note_off_c, 1, 59, 100
3, 57980, Note_off_c, 1, 56, 100
3, 57984, Note_on_c, 1, 61, 70
3, 58172, Note_off_c, 1, 61, 100
3, 58176, Note_on_c, 1, 61, 70
3, 58364, Note_off_c, 1, 61, 100
3, 58368, Note_on_c, 1, 61, 70
3, 58556, Note_off_c, 1, 61, 100
3, 58560, Note_on_c, 1, 61, 70
3, 58748, Note_off_c, 1, 61, 100
3, 58752, Note_on_c, 1, 61, 70
3, 58940, Note_off_c, 1, 61, 100
3, 58944, Note_on_c, 1, 61, 70
3, 59132, Note_off_c, 1, 61, 100
3, 59136, Note_on_c, 1, 61, 70
3, 59324, Note_off_c, 1, 61, 100
3, 59328, Note_on_c, 1, 61, 76
3, 59516, Note_off_c, 1, 61, 100
3, 59520, Note_on_c, 1, 61, 82
3, 59708, Note_off_c, 1, 61, 100
3, 59712, Note_on_c, 1, 61, 88
3, 59900, Note_off_c, 1, 61, 100
3, 59904, Note_on_c, 1, 61, 94
3, 60092, Note_off_c, 1, 61, 100
3, 60096, Note_on_c, 1, 61, 100
3, 60284, Note_off_c, 1, 61, 100
3, 60288, Note_on_c, 1, 64, 120
3, 60288, Note_on_c, 1, 61, 120
3, 60288, Note_on_c, 1, 58, 120
3, 60288, Note_on_c, 1, 54, 120
3, 60476, Note_off_c, 1, 64, 100
3, 60476, Note_off_c, 1, 61, 100
3, 60476, Note_off_c, 1, 58, 100
3, 60476, Note_off_c, 1, 54, 100
3, 60480, Note_on_c, 1, 64, 120
3, 60480, Note_on_c, 1, 61, 120
3, 60480, Note_on_c, 1, 58, 120
3, 60480, Note_on_c, 1, 54, 120
3, 60668, Note_off_c, 1, 64, 100
3, 60668, Note_off_c, 1, 61, 100
3, 60668, Note_off_c, 1, 58, 100
3, 60668, Note_off_c, 1, 54, 100
3, 60672, Note_on_c, 1, 64, 120
3, 60672, Note_on_c, 1, 61, 120
3, 60672, Note_on_c, 1, 58, 120
3, 60672, Note_on_c, 1, 54, 120
3, 60860, Note_off_c, 1, 64, 100
3, 60860, Note_off_c, 1, 61, 100
3, 60860, Note_off_c, 1, 58, 100
3, 60860, Note_off_c, 1, 54, 100
3, 60864, Note_on_c, 1, 64, 120
3, 60864, Note_on_c, 1, 61, 120
3, 60864, Note_on_c, 1, 58, 120
3, 60864, Note_on_c, 1, 54, 120
3, 61052, Note_off_c, 1, 64, 100
3, 61052, Note_off_c, 1, 61, 100
3, 61052, Note_off_c, 1, 58, 100
3, 61052, Note_off_c, 1, 54, 100
3, 61056, Note_on_c, 1, 64, 120
3, 61056, Note_on_c, 1, 61, 120
3, 61056, Note_on_c, 1, 58, 120
3, 61056, Note_on_c, 1, 54, 120
3, 61244, Note_off_c, 1, 64, 100
3, 61244, Note_off_c, 1, 61, 100
3, 61244, Note_off_c, 1, 58, 100
3, 61244, Note_off_c, 1, 54, 100
3, 61248, Note_on_c, 1, 64, 120
3, 61248, Note_on_c, 1, 61, 120
3, 61248, Note_on_c, 1, 58, 120
3, 61248, Note_on_c, 1, 54, 120
3, 61436, Note_off_c, 1, 64, 100
3, 61436, Note_off_c, 1, 61, 100
3, 61436, Note_off_c, 1, 58, 100
3, 61436, Note_off_c, 1, 54, 100
3, 61440, Note_on_c, 1, 64, 115
3, 61440, Note_on_c, 1, 61, 115
3, 61440, Note_on_c, 1, 58, 115
3, 61440, Note_on_c, 1, 54, 115
3, 61628, Note_off_c, 1, 64, 100
3, 61628, Note_off_c, 1, 61, 100
3, 61628, Note_off_c, 1, 58, 100
3, 61628, Note_off_c, 1, 54, 100
3, 61632, Note_on_c, 1, 64, 111
3, 61632, Note_on_c, 1, 61, 111
3, 61632, Note_on_c, 1, 58, 111
3, 61632, Note_on_c, 1, 54, 111
3, 61820, Note_off_c, 1, 64, 100
3, 61820, Note_off_c, 1, 61, 100
3, 61820, Note_off_c, 1, 58, 100
3, 61820, Note_off_c, 1, 54, 100
3, 61824, Note_on_c, 1, 64, 106
3, 61824, Note_on_c, 1, 61, 106
3, 61824, Note_on_c, 1, 58, 106
3, 61824, Note_on_c, 1, 54, 106
3, 62012, Note_off_c, 1, 64, 100
3, 62012, Note_off_c, 1, 61, 100
3, 62012, Note_off_c, 1, 58, 100
3, 62012, Note_off_c, 1, 54, 100
3, 62016, Note_on_c, 1, 64, 101
3, 62016, Note_on_c, 1, 61, 101
3, 62016, Note_on_c, 1, 58, 101
3, 62016, Note_on_c, 1, 54, 101
3, 62204, Note_off_c, 1, 64, 100
3, 62204, Note_off_c, 1, 61, 100
3, 62204, Note_off_c, 1, 58, 100
3, 62204, Note_off_c, 1, 54, 100
3, 62208, Note_on_c, 1, 64, 96
3, 62208, Note_on_c, 1, 61, 96
3, 62208, Note_on_c, 1, 58, 96
3, 62208, Note_on_c, 1, 54, 96
3, 62396, Note_off_c, 1, 64, 100
3, 62396, Note_off_c, 1, 61, 100
3, 62396, Note_off_c, 1, 58, 100
3, 62396, Note_off_c, 1, 54, 100
3, 62400, Note_on_c, 1, 64, 91
3, 62400, Note_on_c, 1, 61, 91
3, 62400, Note_on_c, 1, 58, 91
3, 62400, Note_on_c, 1, 54, 91
3, 62588, Note_off_c, 1, 64, 100
3, 62588, Note_off_c, 1, 61, 100
3, 62588, Note_off_c, 1, 58, 100
3, 62588, Note_off_c, 1, 54, 100
3, 62592, Note_on_c, 1, 47, 80
3, 62688, Note_on_c, 1, 62, 80
3, 62772, Note_off_c, 1, 47, 100
3, 62784, Note_on_c, 1, 54, 80
3, 62868, Note_off_c, 1, 62, 100
3, 62880, Note_on_c, 1, 62, 80
3, 62964, Note_off_c, 1, 54, 100
3, 62976, Note_on_c, 1, 49, 80
3, 63056, Note_off_c, 1, 62, 100
3, 63072, Note_on_c, 1, 64, 80
3, 63152, Note_off_c, 1, 49, 100
3, 63168, Note_on_c, 1, 54, 80
3, 63252, Note_off_c, 1, 64, 100
3, 63264, Note_on_c, 1, 64, 80
3, 63348, Note_off_c, 1, 54, 100
3, 63360, Note_on_c, 1, 50, 80
3, 63452, Note_off_c, 1, 64, 100
3, 63456, Note_on_c, 1, 66, 80
3, 63536, Note_off_c, 1, 50, 100
3, 63552, Note_on_c, 1, 54, 80
3, 63628, Note_off_c, 1, 66, 100
3, 63648, Note_on_c, 1, 66, 80
3, 63732, Note_off_c, 1, 54, 100
3, 63744, Note_on_c, 1, 47, 80
3, 63832, Note_off_c, 1, 66, 100
3, 63840, Note_on_c, 1, 62, 80
3, 63920, Note_off_c, 1, 47, 100
3, 63936, Note_on_c, 1, 54, 80
3, 64028, Note_off_c, 1, 62, 100
3, 64032, Note_on_c, 1, 62, 80
3, 64116, Note_off_c, 1, 54, 100
3, 64128, Note_on_c, 1, 49, 80
3, 64200, Note_off_c, 1, 62, 100
3, 64224, Note_on_c, 1, 64, 80
3, 64312, Note_off_c, 1, 49, 100
3, 64320, Note_on_c, 1, 54, 80
3, 64400, Note_off_c, 1, 64, 100
3, 64416, Note_on_c, 1, 64, 80
3, 64500, Note_off_c, 1, 54, 100
3, 64512, Note_on_c, 1, 50, 80
3, 64596, Note_off_c, 1, 64, 100
3, 64608, Note_on_c, 1, 66, 80
3, 64696, Note_off_c, 1, 50, 100
3, 64704, Note_on_c, 1, 54, 80
3, 64788, Note_off_c, 1, 66, 100
3, 64800, Note_on_c, 1, 66, 80
3, 64872, Note_off_c, 1, 54, 100
3, 64896, Note_on_c, 1, 47, 80
3, 64980, Note_off_c, 1, 66, 100
3, 64992, Note_on_c, 1, 62, 80
3, 65080, Note_off_c, 1, 47, 100
3, 65088, Note_on_c, 1, 54, 80
3, 65156, Note_off_c, 1, 62, 100
3, 65184, Note_on_c, 1, 62, 80
3, 65272, Note_off_c, 1, 54, 100
3, 65280, Note_on_c, 1, 49, 80
3, 65364, Note_off_c, 1, 62, 100
3, 65376, Note_on_c, 1, 64, 80
3, 65456, Note_off_c, 1, 49, 100
3, 65472, Note_on_c, 1, 54, 80
3, 65548, Note_off_c, 1, 64, 100
3, 65568, Note_on_c, 1, 64, 80
3, 65660, Note_off_c, 1, 54, 100
3, 65664, Note_on_c, 1, 50, 80
3, 65740, Note_off_c, 1, 64, 100
3, 65760, Note_on_c, 1, 66, 80
3, 65848, Note_off_c, 1, 50, 100
3, 65856, Note_on_c, 1, 54, 80
3, 65932, Note_off_c, 1, 66, 100
3, 65952, Note_on_c, 1, 66, 80
3, 66032, Note_off_c, 1, 54, 100
3, 66048, Note_on_c, 1, 47, 80
3, 66132, Note_off_c, 1, 66, 100
3, 66144, Note_on_c, 1, 62, 80
3, 66232, Note_off_c, 1, 47, 100
3, 66240, Note_on_c, 1, 54, 80
3, 66324, Note_off_c, 1, 62, 100
3, 66336, Note_on_c, 1, 62, 80
3, 66420, Note_off_c, 1, 54, 100
3, 66432, Note_on_c, 1, 49, 80
3, 66520, Note_off_c, 1, 62, 100
3, 66528, Note_on_c, 1, 64, 80
3, 66608, Note_off_c, 1, 49, 100
3, 66624, Note_on_c, 1, 54, 80
3, 66708, Note_off_c, 1, 64, 100
3, 66720, Note_on_c, 1, 64, 80
3, 66808, Note_off_c, 1, 54, 100
3, 66816, Note_on_c, 1, 50, 80
3, 66904, Note_off_c, 1, 64, 100
3, 66912, Note_on_c, 1, 66, 80
3, 66984, Note_off_c, 1, 50, 100
3, 67008, Note_on_c, 1, 54, 80
3, 67080, Note_off_c, 1, 66, 100
3, 67104, Note_on_c, 1, 66, 80
3, 67180, Note_off_c, 1, 54, 100
3, 67200, Note_on_c, 1, 52, 80
3, 67268, Note_off_c, 1, 66, 100
3, 67296, Note_on_c, 1, 62, 80
3, 67376, Note_off_c, 1, 52, 100
3, 67392, Note_on_c, 1, 59, 80
3, 67464, Note_off_c, 1, 62, 100
3, 67488, Note_on_c, 1, 62, 80
3, 67580, Note_off_c, 1, 59, 100
3, 67584, Note_on_c, 1, 53, 80
3, 67664, Note_off_c, 1, 62, 100
3, 67680, Note_on_c, 1, 62, 80
3, 67756, Note_off_c, 1, 53, 100
3, 67776, Note_on_c, 1, 59, 80
3, 67852, Note_off_c, 1, 62, 100
3, 67872, Note_on_c, 1, 62, 80
3, 67944, Note_off_c, 1, 59, 100
3, 67968, Note_on_c, 1, 54, 80
3, 68036, Note_off_c, 1, 62, 100
3, 68064, Note_on_c, 1, 62, 80
3, 68136, Note_off_c, 1, 54, 100
3, 68160, Note_on_c, 1, 59, 80
3, 68252, Note_off_c, 1, 62, 100
3, 68256, Note_on_c, 1, 62, 80
3, 68344, Note_off_c, 1, 59, 100
3, 68352, Note_on_c, 1, 54, 80
3, 68436, Note_off_c, 1, 62, 100
3, 68448, Note_on_c, 1, 62, 80
3, 68528, Note_off_c, 1, 54, 100
3, 68544, Note_on_c, 1, 59, 80
3, 68620, Note_off_c, 1, 62, 100
3, 68640, Note_on_c, 1, 62, 80
3, 68720, Note_off_c, 1, 59, 100
3, 68736, Note_on_c, 1, 54, 80
3, 68820, Note_off_c, 1, 62, 100
3, 68832, Note_on_c, 1, 62, 80
3, 68900, Note_off_c, 1, 54, 100
3, 68928, Note_on_c, 1, 59, 80
3, 68996, Note_off_c, 1, 62, 100
3, 69024, Note_on_c, 1, 62, 80
3, 69088, Note_off_c, 1, 59, 100
3, 69120, Note_on_c, 1, 54, 80
3, 69212, Note_off_c, 1, 62, 100
3, 69216, Note_on_c, 1, 64, 80
3, 69296, Note_off_c, 1, 54, 100
3, 69312, Note_on_c, 1, 61, 80
3, 69392, Note_off_c, 1, 64, 100
3, 69408, Note_on_c, 1, 64, 80
3, 69500, Note_off_c, 1, 61, 100
3, 69504, Note_on_c, 1, 47, 80
3, 69588, Note_off_c, 1, 64, 100
3, 69600, Note_on_c, 1, 62, 80
3, 69684, Note_off_c, 1, 47, 100
3, 69696, Note_on_c, 1, 54, 80
3, 69772, Note_off_c, 1, 62, 100
3, 69792, Note_on_c, 1, 62, 80
3, 69876, Note_off_c, 1, 54, 100
3, 69888, Note_on_c, 1, 49, 80
3, 69968, Note_off_c, 1, 62, 100
3, 69984, Note_on_c, 1, 64, 80
3, 70060, Note_off_c, 1, 49, 100
3, 70080, Note_on_c, 1, 54, 80
3, 70152, Note_off_c, 1, 64, 100
3, 70176, Note_on_c, 1, 64, 80
3, 70252, Note_off_c, 1, 54, 100
3, 70272, Note_on_c, 1, 50, 80
3, 70348, Note_off_c, 1, 64, 100
3, 70368, Note_on_c, 1, 66, 80
3, 70448, Note_off_c, 1, 50, 100
3, 70464, Note_on_c, 1, 54, 80
3, 70536, Note_off_c, 1, 66, 100
3, 70560, Note_on_c, 1, 66, 80
3, 70636, Note_off_c, 1, 54, 100
3, 70656, Note_on_c, 1, 47, 80
3, 70732, Note_off_c, 1, 66, 100
3, 70752, Note_on_c, 1, 62, 80
3, 70836, Note_off_c, 1, 47, 100
3, 70848, Note_on_c, 1, 54, 80
3, 70924, Note_off_c, 1, 62, 100
3, 70944, Note_on_c, 1, 62, 80
3, 71028, Note_off_c, 1, 54, 100
3, 71040, Note_on_c, 1, 49, 80
3, 71128, Note_off_c, 1, 62, 100
3, 71136, Note_on_c, 1, 64, 80
3, 71224, Note_off_c, 1, 49, 100
3, 71232, Note_on_c, 1, 54, 80
3, 71304, Note_off_c, 1, 64, 100
3, 71328, Note_on_c, 1, 64, 80
3, 71400, Note_off_c, 1, 54, 100
3, 71424, Note_on_c, 1, 50, 80
3, 71516, Note_off_c, 1, 64, 100
3, 71520, Note_on_c, 1, 66, 80
3, 71592, Note_off_c, 1, 50, 100
3, 71616, Note_on_c, 1, 54, 80
3, 71688, Note_off_c, 1, 66, 100
3, 71712, Note_on_c, 1, 66, 80
3, 71800, Note_off_c, 1, 54, 100
3, 71808, Note_on_c, 1, 47, 80
3, 71896, Note_off_c, 1, 66, 100
3, 71904, Note_on_c, 1, 62, 80
3, 71972, Note_off_c, 1, 47, 100
3, 72000, Note_on_c, 1, 54, 80
3, 72092, Note_off_c, 1, 62, 100
3, 72096, Note_on_c, 1, 62, 80
3, 72164, Note_off_c, 1, 54, 100
3, 72192, Note_on_c, 1, 49, 80
3, 72268, Note_off_c, 1, 62, 100
3, 72288, Note_on_c, 1, 64, 80
3, 72364, Note_off_c, 1, 49, 100
3, 72384, Note_on_c, 1, 54, 80
3, 72460, Note_off_c, 1, 64, 100
3, 72480, Note_on_c, 1, 64, 80
3, 72552, Note_off_c, 1, 54, 100
3, 72576, Note_on_c, 1, 50, 80
3, 72664, Note_off_c, 1, 64, 100
3, 72672, Note_on_c, 1, 66, 80
3, 72740, Note_off_c, 1, 50, 100
3, 72768, Note_on_c, 1, 54, 80
3, 72860, Note_off_c, 1, 66, 100
3, 72864, Note_on_c, 1, 66, 80
3, 72944, Note_off_c, 1, 54, 100
3, 72960, Note_on_c, 1, 47, 80
3, 73036, Note_off_c, 1, 66, 100
3, 73056, Note_on_c, 1, 62, 80
3, 73132, Note_off_c, 1, 47, 100
3, 73152, Note_on_c, 1, 54, 80
3, 73232, Note_off_c, 1, 62, 100
3, 73248, Note_on_c, 1, 62, 80
3, 73340, Note_off_c, 1, 54, 100
3, 73344, Note_on_c, 1, 49, 80
3, 73412, Note_off_c, 1, 62, 100
3, 73440, Note_on_c, 1, 64, 80
3, 73516, Note_off_c, 1, 49, 100
3, 73536, Note_on_c, 1, 54, 80
3, 73616, Note_off_c, 1, 64, 100
3, 73632, Note_on_c, 1, 64, 80
3, 73724, Note_off_c, 1, 54, 100
3, 73728, Note_on_c, 1, 50, 80
3, 73808, Note_off_c, 1, 64, 100
3, 73824, Note_on_c, 1, 66, 80
3, 73916, Note_off_c, 1, 50, 100
3, 73920, Note_on_c, 1, 54, 80
3, 74000, Note_off_c, 1, 66, 100
3, 74016, Note_on_c, 1, 66, 80
3, 74100, Note_off_c, 1, 54, 100
3, 74112, Note_on_c, 1, 52, 80
3, 74184, Note_off_c, 1, 66, 100
3, 74208, Note_on_c, 1, 62, 80
3, 74284, Note_off_c, 1, 52, 100
3, 74304, Note_on_c, 1, 59, 80
3, 74372, Note_off_c, 1, 62, 100
3, 74400, Note_on_c, 1, 62, 80
3, 74480, Note_off_c, 1, 59, 100
3, 74496, Note_on_c, 1, 53, 80
3, 74584, Note_off_c, 1, 62, 100
3, 74592, Note_on_c, 1, 62, 80
3, 74676, Note_off_c, 1, 53, 100
3, 74688, Note_on_c, 1, 59, 80
3, 74756, Note_off_c, 1, 62, 100
3, 74784, Note_on_c, 1, 62, 80
3, 74852, Note_off_c, 1, 59, 100
3, 74880, Note_on_c, 1, 54, 80
3, 74972, Note_off_c, 1, 62, 100
3, 74976, Note_on_c, 1, 62, 80
3, 75052, Note_off_c, 1, 54, 100
3, 75072, Note_on_c, 1, 59, 80
3, 75148, Note_off_c, 1, 62, 100
3, 75168, Note_on_c, 1, 62, 80
3, 75248, Note_off_c, 1, 59, 100
3, 75260, Note_off_c, 1, 62, 100
3, 75264, Note_on_c, 1, 54, 80
3, 76028, Note_off_c, 1, 54, 100
3, 76032, Note_on_c, 1, 42, 80
3, 76032, Note_on_c, 1, 30, 80
3, 76412, Note_off_c, 1, 42, 100
3, 76412, Note_off_c, 1, 30, 100
3, 76416, Note_on_c, 1, 47, 110
3, 76416, Note_on_c, 1, 35, 110
3, 76604, Note_off_c, 1, 47, 100
3, 76604, Note_off_c, 1, 35, 100
3, 76608, Note_on_c, 1, 49, 110
3, 76608, Note_on_c, 1, 37, 110
3, 76796, Note_off_c, 1, 49, 100
3, 76796, Note_off_c, 1, 37, 100
3, 76800, Note_on_c, 1, 50, 110
3, 76800, Note_on_c, 1, 38, 110
3, 76988, Note_off_c, 1, 50, 100
3, 76988, Note_off_c, 1, 38, 100
3, 76992, Note_on_c, 1, 52, 110
3, 76992, Note_on_c, 1, 40, 110
3, 77180, Note_off_c, 1, 52, 100
3, 77180, Note_off_c, 1, 40, 100
3, 77184, Note_on_c, 1, 42, 120
3, 77184, Note_on_c, 1, 54, 121
3, 78716, Note_off_c, 1, 42, 100
3, 78716, Note_off_c, 1, 54, 100
3, 78720, Note_on_c, 1, 52, 80
3, 78720, Note_on_c, 1, 40, 80
3, 79868, Note_off_c, 1, 52, 100
3, 79868, Note_off_c, 1, 40, 100
3, 79872, Note_on_c, 1, 54, 80
3, 79872, Note_on_c, 1, 42, 80
3, 81020, Note_off_c, 1, 54, 100
3, 81020, Note_off_c, 1, 42, 100
3, 81024, Note_on_c, 1, 47, 110
3, 81024, Note_on_c, 1, 35, 110
3, 81212, Note_off_c, 1, 47, 100
3, 81212, Note_off_c, 1, 35, 100
3, 81216, Note_on_c, 1, 49, 110
3, 81216, Note_on_c, 1, 37, 110
3, 81404, Note_off_c, 1, 49, 100
3, 81404, Note_off_c, 1, 37, 100
3, 81408, Note_on_c, 1, 50, 110
3, 81408, Note_on_c, 1, 38, 110
3, 81596, Note_off_c, 1, 50, 100
3, 81596, Note_off_c, 1, 38, 100
3, 81600, Note_on_c, 1, 52, 110
3, 81600, Note_on_c, 1, 40, 110
3, 81788, Note_off_c, 1, 52, 100
3, 81788, Note_off_c, 1, 40, 100
3, 81792, Note_on_c, 1, 42, 120
3, 81792, Note_on_c, 1, 54, 120
3, 83324, Note_off_c, 1, 42, 100
3, 83324, Note_off_c, 1, 54, 100
3, 83328, Note_on_c, 1, 52, 80
3, 83328, Note_on_c, 1, 40, 80
3, 84476, Note_off_c, 1, 52, 100
3, 84476, Note_off_c, 1, 40, 100
3, 84480, Note_on_c, 1, 54, 80
3, 84480, Note_on_c, 1, 42, 80
3, 85628, Note_off_c, 1, 54, 100
3, 85628, Note_off_c, 1, 42, 100
3, 86784, Note_on_c, 1, 47, 79
3, 86784, Note_on_c, 1, 35, 79
3, 87932, Note_off_c, 1, 47, 100
3, 87932, Note_off_c, 1, 35, 100
3, 89088, Note_on_c, 1, 42, 73
3, 89088, Note_on_c, 1, 30, 73
3, 90236, Note_off_c, 1, 42, 100
3, 90236, Note_off_c, 1, 30, 100
3, 90240, Note_on_c, 1, 47, 70
3, 90240, Note_on_c, 1, 35, 70
3, 90620, Note_off_c, 1, 47, 100
3, 90620, Note_off_c, 1, 35, 100
3, 91392, Note_on_c, 1, 47, 70
3, 91392, Note_on_c, 1, 35, 70
3, 91772, Note_off_c, 1, 47, 100
3, 91772, Note_off_c, 1, 35, 100
3, 92544, Note_on_c, 1, 47, 70
3, 92544, Note_on_c, 1, 35, 70
3, 92924, Note_off_c, 1, 47, 100
3, 92924, Note_off_c, 1, 35, 100
3, 96768, Note_on_c, 1, 69, 80
3, 96768, Note_on_c, 1, 66, 80
3, 97148, Note_off_c, 1, 69, 100
3, 97148, Note_off_c, 1, 66, 100
3, 97152, Note_on_c, 1, 69, 80
3, 97152, Note_on_c, 1, 66, 80
3, 97532, Note_off_c, 1, 69, 100
3, 97532, Note_off_c, 1, 66, 100
3, 97920, Note_on_c, 1, 69, 80
3, 97920, Note_on_c, 1, 66, 80
3, 98108, Note_off_c, 1, 69, 100
3, 98108, Note_off_c, 1, 66, 100
3, 98304, Note_on_c, 1, 67, 80
3, 98304, Note_on_c, 1, 64, 80
3, 98684, Note_off_c, 1, 67, 100
3, 98684, Note_off_c, 1, 64, 100
3, 99072, Note_on_c, 1, 67, 80
3, 99072, Note_on_c, 1, 64, 80
3, 99452, Note_off_c, 1, 67, 100
3, 99452, Note_off_c, 1, 64, 100
3, 99456, Note_on_c, 1, 65, 80
3, 99456, Note_on_c, 1, 62, 80
3, 99836, Note_off_c, 1, 65, 100
3, 99836, Note_off_c, 1, 62, 100
3, 100224, Note_on_c, 1, 65, 80
3, 100224, Note_on_c, 1, 62, 80
3, 100412, Note_off_c, 1, 65, 100
3, 100412, Note_off_c, 1, 62, 100
3, 100608, Note_on_c, 1, 64, 80
3, 100608, Note_on_c, 1, 60, 80
3, 100796, Note_off_c, 1, 64, 100
3, 100796, Note_off_c, 1, 60, 100
3, 100800, Note_on_c, 1, 64, 80
3, 100988, Note_off_c, 1, 64, 100
3, 100992, Note_on_c, 1, 64, 80
3, 101180, Note_off_c, 1, 64, 100
3, 101184, Note_on_c, 1, 64, 80
3, 101372, Note_off_c, 1, 64, 100
3, 101376, Note_on_c, 1, 64, 80
3, 101564, Note_off_c, 1, 64, 100
3, 101568, Note_on_c, 1, 64, 81
3, 101756, Note_off_c, 1, 64, 100
3, 101760, Note_on_c, 1, 60, 83
3, 101760, Note_on_c, 1, 57, 83
3, 101760, Note_on_c, 1, 64, 83
3, 101948, Note_off_c, 1, 64, 100
3, 101952, Note_on_c, 1, 64, 84
3, 102140, Note_off_c, 1, 60, 100
3, 102140, Note_off_c, 1, 57, 100
3, 102140, Note_off_c, 1, 64, 100
3, 102144, Note_on_c, 1, 64, 86
3, 102332, Note_off_c, 1, 64, 100
3, 102336, Note_on_c, 1, 64, 87
3, 102524, Note_off_c, 1, 64, 100
3, 102528, Note_on_c, 1, 64, 89
3, 102528, Note_on_c, 1, 60, 89
3, 102528, Note_on_c, 1, 57, 89
3, 102716, Note_off_c, 1, 64, 100
3, 102716, Note_off_c, 1, 60, 100
3, 102716, Note_off_c, 1, 57, 100
3, 102720, Note_on_c, 1, 64, 91
3, 102908, Note_off_c, 1, 64, 100
3, 102912, Note_on_c, 1, 59, 92
3, 102912, Note_on_c, 1, 56, 92
3, 102912, Note_on_c, 1, 65, 92
3, 103100, Note_off_c, 1, 65, 100
3, 103104, Note_on_c, 1, 65, 94
3, 103292, Note_off_c, 1, 59, 100
3, 103292, Note_off_c, 1, 56, 100
3, 103292, Note_off_c, 1, 65, 100
3, 103296, Note_on_c, 1, 65, 95
3, 103484, Note_off_c, 1, 65, 100
3, 103488, Note_on_c, 1, 65, 97
3, 103676, Note_off_c, 1, 65, 100
3, 103680, Note_on_c, 1, 65, 98
3, 103680, Note_on_c, 1, 59, 98
3, 103680, Note_on_c, 1, 56, 98
3, 103868, Note_off_c, 1, 65, 100
3, 103872, Note_on_c, 1, 65, 100
3, 104060, Note_off_c, 1, 59, 100
3, 104060, Note_off_c, 1, 56, 100
3, 104060, Note_off_c, 1, 65, 100
3, 104064, Note_on_c, 1, 58, 102
3, 104064, Note_on_c, 1, 56, 102
3, 104064, Note_on_c, 1, 65, 102
3, 104252, Note_off_c, 1, 65, 100
3, 104256, Note_on_c, 1, 65, 103
3, 104444, Note_off_c, 1, 58, 100
3, 104444, Note_off_c, 1, 56, 100
3, 104444, Note_off_c, 1, 65, 100
3, 104448, Note_on_c, 1, 65, 105
3, 104636, Note_off_c, 1, 65, 100
3, 104640, Note_on_c, 1, 65, 106
3, 104828, Note_off_c, 1, 65, 100
3, 104832, Note_on_c, 1, 58, 108
3, 104832, Note_on_c, 1, 56, 108
3, 104832, Note_on_c, 1, 65, 108
3, 105020, Note_off_c, 1, 58, 100
3, 105020, Note_off_c, 1, 56, 100
3, 105020, Note_off_c, 1, 65, 100
3, 105024, Note_on_c, 1, 65, 109
3, 105212, Note_off_c, 1, 65, 100
3, 105216, Note_on_c, 1, 63, 110
3, 105216, Note_on_c, 1, 58, 110
3, 105216, Note_on_c, 1, 55, 110
3, 105404, Note_off_c, 1, 63, 100
3, 105404, Note_off_c, 1, 58, 100
3, 105404, Note_off_c, 1, 55, 100
3, 105408, Note_on_c, 1, 63, 110
3, 105408, Note_on_c, 1, 58, 110
3, 105408, Note_on_c, 1, 55, 110
3, 105596, Note_off_c, 1, 63, 100
3, 105596, Note_off_c, 1, 58, 100
3, 105596, Note_off_c, 1, 55, 100
3, 105600, Note_on_c, 1, 63, 110
3, 105600, Note_on_c, 1, 58, 110
3, 105600, Note_on_c, 1, 55, 110
3, 105788, Note_off_c, 1, 63, 100
3, 105788, Note_off_c, 1, 58, 100
3, 105788, Note_off_c, 1, 55, 100
3, 105792, Note_on_c, 1, 63, 110
3, 105792, Note_on_c, 1, 58, 110
3, 105792, Note_on_c, 1, 55, 110
3, 105980, Note_off_c, 1, 63, 100
3, 105980, Note_off_c, 1, 58, 100
3, 105980, Note_off_c, 1, 55, 100
3, 105984, Note_on_c, 1, 63, 110
3, 105984, Note_on_c, 1, 58, 110
3, 105984, Note_on_c, 1, 55, 110
3, 106172, Note_off_c, 1, 63, 100
3, 106172, Note_off_c, 1, 58, 100
3, 106172, Note_off_c, 1, 55, 100
3, 106176, Note_on_c, 1, 63, 110
3, 106176, Note_on_c, 1, 58, 110
3, 106176, Note_on_c, 1, 55, 110
3, 106364, Note_off_c, 1, 63, 100
3, 106364, Note_off_c, 1, 58, 100
3, 106364, Note_off_c, 1, 55, 100
3, 106368, Note_on_c, 1, 58, 110
3, 106368, Note_on_c, 1, 54, 110
3, 106556, Note_off_c, 1, 58, 100
3, 106556, Note_off_c, 1, 54, 100
3, 106560, Note_on_c, 1, 58, 110
3, 106560, Note_on_c, 1, 54, 110
3, 106748, Note_off_c, 1, 58, 100
3, 106748, Note_off_c, 1, 54, 100
3, 106752, Note_on_c, 1, 58, 110
3, 106752, Note_on_c, 1, 54, 110
3, 106940, Note_off_c, 1, 58, 100
3, 106940, Note_off_c, 1, 54, 100
3, 106944, Note_on_c, 1, 58, 110
3, 106944, Note_on_c, 1, 54, 110
3, 107132, Note_off_c, 1, 58, 100
3, 107132, Note_off_c, 1, 54, 100
3, 107136, Note_on_c, 1, 58, 110
3, 107136, Note_on_c, 1, 54, 110
3, 107324, Note_off_c, 1, 58, 100
3, 107324, Note_off_c, 1, 54, 100
3, 107328, Note_on_c, 1, 58, 110
3, 107328, Note_on_c, 1, 54, 110
3, 107516, Note_off_c, 1, 58, 100
3, 107516, Note_off_c, 1, 54, 100
3, 107520, Note_on_c, 1, 54, 110
3, 107520, Note_on_c, 1, 51, 110
3, 107708, Note_off_c, 1, 54, 100
3, 107708, Note_off_c, 1, 51, 100
3, 107712, Note_on_c, 1, 54, 110
3, 107712, Note_on_c, 1, 51, 110
3, 107900, Note_off_c, 1, 54, 100
3, 107900, Note_off_c, 1, 51, 100
3, 107904, Note_on_c, 1, 54, 110
3, 107904, Note_on_c, 1, 51, 110
3, 108092, Note_off_c, 1, 54, 100
3, 108092, Note_off_c, 1, 51, 100
3, 108096, Note_on_c, 1, 54, 110
3, 108096, Note_on_c, 1, 51, 110
3, 108284, Note_off_c, 1, 54, 100
3, 108284, Note_off_c, 1, 51, 100
3, 108288, Note_on_c, 1, 54, 110
3, 108288, Note_on_c, 1, 51, 110
3, 108476, Note_off_c, 1, 54, 100
3, 108476, Note_off_c, 1, 51, 100
3, 108480, Note_on_c, 1, 54, 110
3, 108480, Note_on_c, 1, 51, 110
3, 108668, Note_off_c, 1, 54, 100
3, 108668, Note_off_c, 1, 51, 100
3, 108672, Note_on_c, 1, 51, 110
3, 108672, Note_on_c, 1, 48, 110
3, 108860, Note_off_c, 1, 51, 100
3, 108860, Note_off_c, 1, 48, 100
3, 108864, Note_on_c, 1, 51, 110
3, 108864, Note_on_c, 1, 48, 110
3, 109052, Note_off_c, 1, 51, 100
3, 109052, Note_off_c, 1, 48, 100
3, 109056, Note_on_c, 1, 51, 110
3, 109056, Note_on_c, 1, 48, 110
3, 109244, Note_off_c, 1, 51, 100
3, 109244, Note_off_c, 1, 48, 100
3, 109248, Note_on_c, 1, 51, 110
3, 109248, Note_on_c, 1, 48, 110
3, 109436, Note_off_c, 1, 51, 100
3, 109436, Note_off_c, 1, 48, 100
3, 109440, Note_on_c, 1, 51, 110
3, 109440, Note_on_c, 1, 48, 110
3, 109628, Note_off_c, 1, 51, 100
3, 109628, Note_off_c, 1, 48, 100
3, 109632, Note_on_c, 1, 51, 110
3, 109632, Note_on_c, 1, 48, 110
3, 109820, Note_off_c, 1, 51, 100
3, 109820, Note_off_c, 1, 48, 100
3, 109824, Note_on_c, 1, 48, 110
3, 109824, Note_on_c, 1, 45, 110
3, 110012, Note_off_c, 1, 48, 100
3, 110012, Note_off_c, 1, 45, 100
3, 110016, Note_on_c, 1, 48, 110
3, 110016, Note_on_c, 1, 45, 110
3, 110204, Note_off_c, 1, 48, 100
3, 110204, Note_off_c, 1, 45, 100
3, 110208, Note_on_c, 1, 48, 110
3, 110208, Note_on_c, 1, 45, 110
3, 110396, Note_off_c, 1, 48, 100
3, 110396, Note_off_c, 1, 45, 100
3, 110400, Note_on_c, 1, 48, 110
3, 110400, Note_on_c, 1, 45, 110
3, 110588, Note_off_c, 1, 48, 100
3, 110588, Note_off_c, 1, 45, 100
3, 110592, Note_on_c, 1, 48, 110
3, 110592, Note_on_c, 1, 45, 110
3, 110780, Note_off_c, 1, 48, 100
3, 110780, Note_off_c, 1, 45, 100
3, 110784, Note_on_c, 1, 48, 110
3, 110784, Note_on_c, 1, 45, 110
3, 110972, Note_off_c, 1, 48, 100
3, 110972, Note_off_c, 1, 45, 100
3, 110976, Note_on_c, 1, 48, 110
3, 110976, Note_on_c, 1, 45, 110
3, 110976, Note_on_c, 1, 42, 110
3, 111164, Note_off_c, 1, 48, 100
3, 111164, Note_off_c, 1, 45, 100
3, 111164, Note_off_c, 1, 42, 100
3, 111168, Note_on_c, 1, 48, 110
3, 111168, Note_on_c, 1, 45, 110
3, 111168, Note_on_c, 1, 42, 110
3, 111356, Note_off_c, 1, 48, 100
3, 111356, Note_off_c, 1, 45, 100
3, 111356, Note_off_c, 1, 42, 100
3, 111360, Note_on_c, 1, 48, 110
3, 111360, Note_on_c, 1, 45, 110
3, 111360, Note_on_c, 1, 42, 110
3, 111548, Note_off_c, 1, 48, 100
3, 111548, Note_off_c, 1, 45, 100
3, 111548, Note_off_c, 1, 42, 100
3, 111552, Note_on_c, 1, 48, 110
3, 111552, Note_on_c, 1, 45, 110
3, 111552, Note_on_c, 1, 42, 110
3, 111740, Note_off_c, 1, 48, 100
3, 111740, Note_off_c, 1, 45, 100
3, 111740, Note_off_c, 1, 42, 100
3, 111744, Note_on_c, 1, 48, 110
3, 111744, Note_on_c, 1, 45, 110
3, 111744, Note_on_c, 1, 42, 110
3, 111932, Note_off_c, 1, 48, 100
3, 111932, Note_off_c, 1, 45, 100
3, 111932, Note_off_c, 1, 42, 100
3, 111936, Note_on_c, 1, 48, 110
3, 111936, Note_on_c, 1, 45, 110
3, 111936, Note_on_c, 1, 42, 110
3, 112124, Note_off_c, 1, 48, 100
3, 112124, Note_off_c, 1, 45, 100
3, 112124, Note_off_c, 1, 42, 100
3, 112128, Note_on_c, 1, 48, 110
3, 112128, Note_on_c, 1, 45, 110
3, 112128, Note_on_c, 1, 42, 110
3, 112128, Note_on_c, 1, 39, 110
3, 112316, Note_off_c, 1, 48, 100
3, 112316, Note_off_c, 1, 45, 100
3, 112316, Note_off_c, 1, 42, 100
3, 112316, Note_off_c, 1, 39, 100
3, 112320, Note_on_c, 1, 48, 110
3, 112320, Note_on_c, 1, 45, 110
3, 112320, Note_on_c, 1, 42, 110
3, 112320, Note_on_c, 1, 39, 110
3, 112508, Note_off_c, 1, 48, 100
3, 112508, Note_off_c, 1, 45, 100
3, 112508, Note_off_c, 1, 42, 100
3, 112508, Note_off_c, 1, 39, 100
3, 112512, Note_on_c, 1, 48, 110
3, 112512, Note_on_c, 1, 45, 110
3, 112512, Note_on_c, 1, 42, 110
3, 112512, Note_on_c, 1, 39, 110
3, 112700, Note_off_c, 1, 48, 100
3, 112700, Note_off_c, 1, 45, 100
3, 112700, Note_off_c, 1, 42, 100
3, 112700, Note_off_c, 1, 39, 100
3, 112704, Note_on_c, 1, 48, 110
3, 112704, Note_on_c, 1, 45, 110
3, 112704, Note_on_c, 1, 42, 110
3, 112704, Note_on_c, 1, 39, 110
3, 112892, Note_off_c, 1, 48, 100
3, 112892, Note_off_c, 1, 45, 100
3, 112892, Note_off_c, 1, 42, 100
3, 112892, Note_off_c, 1, 39, 100
3, 112896, Note_on_c, 1, 48, 110
3, 112896, Note_on_c, 1, 45, 110
3, 112896, Note_on_c, 1, 42, 110
3, 112896, Note_on_c, 1, 39, 110
3, 113084, Note_off_c, 1, 48, 100
3, 113084, Note_off_c, 1, 45, 100
3, 113084, Note_off_c, 1, 42, 100
3, 113084, Note_off_c, 1, 39, 100
3, 113088, Note_on_c, 1, 48, 110
3, 113088, Note_on_c, 1, 45, 110
3, 113088, Note_on_c, 1, 42, 110
3, 113088, Note_on_c, 1, 39, 110
3, 113276, Note_off_c, 1, 48, 100
3, 113276, Note_off_c, 1, 45, 100
3, 113276, Note_off_c, 1, 42, 100
3, 113276, Note_off_c, 1, 39, 100
3, 113280, Note_on_c, 1, 48, 110
3, 113280, Note_on_c, 1, 45, 110
3, 113280, Note_on_c, 1, 42, 110
3, 113280, Note_on_c, 1, 38, 110
3, 113468, Note_off_c, 1, 48, 100
3, 113468, Note_off_c, 1, 45, 100
3, 113468, Note_off_c, 1, 42, 100
3, 113468, Note_off_c, 1, 38, 100
3, 113472, Note_on_c, 1, 48, 110
3, 113472, Note_on_c, 1, 45, 110
3, 113472, Note_on_c, 1, 42, 110
3, 113472, Note_on_c, 1, 38, 110
3, 113660, Note_off_c, 1, 48, 100
3, 113660, Note_off_c, 1, 45, 100
3, 113660, Note_off_c, 1, 42, 100
3, 113660, Note_off_c, 1, 38, 100
3, 113664, Note_on_c, 1, 48, 110
3, 113664, Note_on_c, 1, 45, 110
3, 113664, Note_on_c, 1, 42, 110
3, 113664, Note_on_c, 1, 38, 110
3, 113852, Note_off_c, 1, 48, 100
3, 113852, Note_off_c, 1, 45, 100
3, 113852, Note_off_c, 1, 42, 100
3, 113852, Note_off_c, 1, 38, 100
3, 113856, Note_on_c, 1, 48, 110
3, 113856, Note_on_c, 1, 45, 110
3, 113856, Note_on_c, 1, 42, 110
3, 113856, Note_on_c, 1, 38, 110
3, 114044, Note_off_c, 1, 48, 100
3, 114044, Note_off_c, 1, 45, 100
3, 114044, Note_off_c, 1, 42, 100
3, 114044, Note_off_c, 1, 38, 100
3, 114048, Note_on_c, 1, 48, 110
3, 114048, Note_on_c, 1, 45, 110
3, 114048, Note_on_c, 1, 42, 110
3, 114048, Note_on_c, 1, 38, 110
3, 114236, Note_off_c, 1, 48, 100
3, 114236, Note_off_c, 1, 45, 100
3, 114236, Note_off_c, 1, 42, 100
3, 114236, Note_off_c, 1, 38, 100
3, 114240, Note_on_c, 1, 48, 110
3, 114240, Note_on_c, 1, 45, 110
3, 114240, Note_on_c, 1, 42, 110
3, 114240, Note_on_c, 1, 38, 110
3, 114428, Note_off_c, 1, 48, 100
3, 114428, Note_off_c, 1, 45, 100
3, 114428, Note_off_c, 1, 42, 100
3, 114428, Note_off_c, 1, 38, 100
3, 114432, Note_on_c, 1, 43, 110
3, 114432, Note_on_c, 1, 31, 110
3, 114620, Note_off_c, 1, 43, 100
3, 114620, Note_off_c, 1, 31, 100
3, 114624, Note_on_c, 1, 31, 110
3, 114624, Note_on_c, 1, 43, 110
3, 114812, Note_off_c, 1, 31, 100
3, 114812, Note_off_c, 1, 43, 100
3, 114816, Note_on_c, 1, 43, 110
3, 114816, Note_on_c, 1, 31, 110
3, 115004, Note_off_c, 1, 43, 100
3, 115004, Note_off_c, 1, 31, 100
3, 115776, Note_on_c, 1, 43, 80
3, 115776, Note_on_c, 1, 31, 80
3, 115964, Note_off_c, 1, 43, 100
3, 115964, Note_off_c, 1, 31, 100
3, 115968, Note_on_c, 1, 43, 80
3, 115968, Note_on_c, 1, 31, 80
3, 116156, Note_off_c, 1, 43, 100
3, 116156, Note_off_c, 1, 31, 100
3, 116928, Note_on_c, 1, 43, 80
3, 116928, Note_on_c, 1, 31, 80
3, 117116, Note_off_c, 1, 43, 100
3, 117116, Note_off_c, 1, 31, 100
3, 117120, Note_on_c, 1, 43, 80
3, 117120, Note_on_c, 1, 31, 80
3, 117308, Note_off_c, 1, 43, 100
3, 117308, Note_off_c, 1, 31, 100
3, 118080, Note_on_c, 1, 43, 80
3, 118080, Note_on_c, 1, 31, 80
3, 118268, Note_off_c, 1, 43, 100
3, 118268, Note_off_c, 1, 31, 100
3, 118464, Note_on_c, 1, 43, 80
3, 118464, Note_on_c, 1, 31, 80
3, 118652, Note_off_c, 1, 43, 100
3, 118652, Note_off_c, 1, 31, 100
3, 118848, Note_on_c, 1, 43, 80
3, 118848, Note_on_c, 1, 31, 80
3, 119036, Note_off_c, 1, 43, 100
3, 119036, Note_off_c, 1, 31, 100
3, 119232, Note_on_c, 1, 43, 81
3, 119232, Note_on_c, 1, 31, 81
3, 119420, Note_off_c, 1, 43, 100
3, 119420, Note_off_c, 1, 31, 100
3, 119616, Note_on_c, 1, 45, 83
3, 119616, Note_on_c, 1, 33, 83
3, 119804, Note_off_c, 1, 45, 100
3, 119804, Note_off_c, 1, 33, 100
3, 120000, Note_on_c, 1, 47, 86
3, 120000, Note_on_c, 1, 35, 86
3, 120188, Note_off_c, 1, 47, 100
3, 120188, Note_off_c, 1, 35, 100
3, 120384, Note_on_c, 1, 48, 88
3, 120384, Note_on_c, 1, 36, 88
3, 120572, Note_off_c, 1, 48, 100
3, 120572, Note_off_c, 1, 36, 100
3, 120768, Note_on_c, 1, 49, 91
3, 120768, Note_on_c, 1, 37, 91
3, 120956, Note_off_c, 1, 49, 100
3, 120956, Note_off_c, 1, 37, 100
3, 121152, Note_on_c, 1, 50, 93
3, 121152, Note_on_c, 1, 38, 93
3, 121340, Note_off_c, 1, 50, 100
3, 121340, Note_off_c, 1, 38, 100
3, 121536, Note_on_c, 1, 51, 96
3, 121536, Note_on_c, 1, 39, 96
3, 121724, Note_off_c, 1, 51, 100
3, 121724, Note_off_c, 1, 39, 100
3, 121920, Note_on_c, 1, 52, 98
3, 121920, Note_on_c, 1, 40, 98
3, 122108, Note_off_c, 1, 52, 100
3, 122108, Note_off_c, 1, 40, 100
3, 122304, Note_on_c, 1, 53, 100
3, 122304, Note_on_c, 1, 41, 100
3, 122492, Note_off_c, 1, 53, 100
3, 122492, Note_off_c, 1, 41, 100
3, 122688, Note_on_c, 1, 54, 93
3, 122688, Note_on_c, 1, 42, 93
3, 122876, Note_off_c, 1, 54, 100
3, 122876, Note_off_c, 1, 42, 100
3, 123072, Note_on_c, 1, 55, 87
3, 123072, Note_on_c, 1, 43, 87
3, 123260, Note_off_c, 1, 55, 100
3, 123260, Note_off_c, 1, 43, 100
3, 123456, Note_on_c, 1, 55, 81
3, 123456, Note_on_c, 1, 43, 81
3, 123644, Note_off_c, 1, 55, 100
3, 123644, Note_off_c, 1, 43, 100
3, 124800, Note_on_c, 1, 65, 80
3, 125564, Note_off_c, 1, 65, 100
3, 125568, Note_on_c, 1, 65, 80
3, 125568, Note_on_c, 1, 59, 80
3, 125948, Note_off_c, 1, 65, 100
3, 125948, Note_off_c, 1, 59, 100
3, 125952, Note_on_c, 1, 64, 80
3, 125952, Note_on_c, 1, 60, 80
3, 126332, Note_off_c, 1, 64, 100
3, 126332, Note_off_c, 1, 60, 100
3, 126336, Note_on_c, 1, 60, 80
3, 126716, Note_off_c, 1, 60, 100
3, 126720, Note_on_c, 1, 61, 80
3, 127100, Note_off_c, 1, 61, 100
3, 127104, Note_on_c, 1, 62, 80
3, 127484, Note_off_c, 1, 62, 100
3, 127488, Note_on_c, 1, 57, 80
3, 127868, Note_off_c, 1, 57, 100
3, 127872, Note_on_c, 1, 58, 80
3, 128252, Note_off_c, 1, 58, 100
3, 128256, Note_on_c, 1, 59, 80
3, 128636, Note_off_c, 1, 59, 100
3, 128640, Note_on_c, 1, 55, 80
3, 129020, Note_off_c, 1, 55, 100
3, 129024, Note_on_c, 1, 62, 80
3, 129404, Note_off_c, 1, 62, 100
3, 129408, Note_on_c, 1, 61, 80
3, 129788, Note_off_c, 1, 61, 100
3, 129792, Note_on_c, 1, 60, 80
3, 130172, Note_off_c, 1, 60, 100
3, 130176, Note_on_c, 1, 60, 80
3, 130176, Note_on_c, 1, 58, 80
3, 130556, Note_off_c, 1, 58, 100
3, 130560, Note_on_c, 1, 57, 80
3, 130940, Note_off_c, 1, 60, 100
3, 130940, Note_off_c, 1, 57, 100
3, 130944, Note_on_c, 1, 65, 80
3, 130944, Note_on_c, 1, 53, 80
3, 131324, Note_off_c, 1, 65, 100
3, 131324, Note_off_c, 1, 53, 100
3, 131328, Note_on_c, 1, 62, 80
3, 131328, Note_on_c, 1, 54, 80
3, 131708, Note_off_c, 1, 62, 100
3, 131708, Note_off_c, 1, 54, 100
3, 131712, Note_on_c, 1, 60, 80
3, 131712, Note_on_c, 1, 55, 80
3, 132092, Note_off_c, 1, 60, 100
3, 132092, Note_off_c, 1, 55, 100
3, 132096, Note_on_c, 1, 58, 80
3, 132096, Note_on_c, 1, 50, 80
3, 132476, Note_off_c, 1, 58, 100
3, 132476, Note_off_c, 1, 50, 100
3, 132480, Note_on_c, 1, 53, 80
3, 132480, Note_on_c, 1, 58, 80
3, 132860, Note_off_c, 1, 53, 100
3, 132864, Note_on_c, 1, 52, 80
3, 133244, Note_off_c, 1, 58, 100
3, 133244, Note_off_c, 1, 52, 100
3, 133248, Note_on_c, 1, 67, 80
3, 133628, Note_off_c, 1, 67, 100
3, 133632, Note_on_c, 1, 48, 80
3, 133632, Note_on_c, 1, 58, 80
3, 134012, Note_off_c, 1, 48, 100
3, 134016, Note_on_c, 1, 53, 80
3, 134396, Note_off_c, 1, 58, 100
3, 134396, Note_off_c, 1, 53, 100
3, 134400, Note_on_c, 1, 53, 80
3, 134400, Note_on_c, 1, 57, 80
3, 134780, Note_off_c, 1, 53, 100
3, 134780, Note_off_c, 1, 57, 100
3, 134784, Note_on_c, 1, 45, 80
3, 135168, Key_signature, 0, "major"
3, 135548, Note_off_c, 1, 45, 100
3, 135552, Note_on_c, 1, 50, 81
3, 135932, Note_off_c, 1, 50, 100
3, 135936, Note_on_c, 1, 46, 82
3, 136316, Note_off_c, 1, 46, 100
3, 136320, Note_on_c, 1, 45, 83
3, 136700, Note_off_c, 1, 45, 100
3, 136704, Note_on_c, 1, 44, 84
3, 137084, Note_off_c, 1, 44, 100
3, 137088, Note_on_c, 1, 44, 85
3, 137468, Note_off_c, 1, 44, 100
3, 137472, Note_on_c, 1, 44, 86
3, 137852, Note_off_c, 1, 44, 100
3, 137856, Note_on_c, 1, 52, 87
3, 138240, Note_on_c, 1, 44, 88
3, 138620, Note_off_c, 1, 52, 100
3, 138620, Note_off_c, 1, 44, 100
3, 138624, Note_on_c, 1, 45, 89
3, 139004, Note_off_c, 1, 45, 100
3, 139008, Note_on_c, 1, 52, 90
3, 139392, Note_on_c, 1, 45, 91
3, 139772, Note_off_c, 1, 52, 100
3, 139772, Note_off_c, 1, 45, 100
3, 139776, Note_on_c, 1, 47, 92
3, 140156, Note_off_c, 1, 47, 100
3, 140160, Note_on_c, 1, 52, 93
3, 140544, Note_on_c, 1, 47, 94
3, 140924, Note_off_c, 1, 52, 100
3, 140924, Note_off_c, 1, 47, 100
3, 140928, Note_on_c, 1, 48, 94
3, 141308, Note_off_c, 1, 48, 100
3, 141312, Note_on_c, 1, 52, 106
3, 141696, Note_on_c, 1, 48, 96
3, 142076, Note_off_c, 1, 52, 100
3, 142076, Note_off_c, 1, 48, 100
3, 142080, Note_on_c, 1, 51, 97
3, 142460, Note_off_c, 1, 51, 100
3, 142464, Note_on_c, 1, 59, 110
3, 142848, Note_on_c, 1, 51, 99
3, 143228, Note_off_c, 1, 59, 100
3, 143228, Note_off_c, 1, 51, 100
3, 143232, Note_on_c, 1, 52, 100
3, 143612, Note_off_c, 1, 52, 100
3, 143616, Note_on_c, 1, 60, 111
3, 144000, Note_on_c, 1, 52, 102
3, 144380, Note_off_c, 1, 60, 100
3, 144380, Note_off_c, 1, 52, 100
3, 144384, Note_on_c, 1, 54, 103
3, 144764, Note_off_c, 1, 54, 100
3, 144768, Note_on_c, 1, 63, 118
3, 145152, Note_on_c, 1, 54, 105
3, 145532, Note_off_c, 1, 63, 100
3, 145532, Note_off_c, 1, 54, 100
3, 145536, Note_on_c, 1, 55, 106
3, 145916, Note_off_c, 1, 55, 100
3, 145920, Note_on_c, 1, 64, 121
3, 146304, Note_on_c, 1, 55, 108
3, 146684, Note_off_c, 1, 64, 100
3, 146684, Note_off_c, 1, 55, 100
3, 146688, Note_on_c, 1, 57, 108
3, 147068, Note_off_c, 1, 57, 100
3, 147072, Note_on_c, 1, 66, 120
3, 147456, Note_on_c, 1, 57, 110
3, 147836, Note_off_c, 1, 66, 100
3, 147836, Note_off_c, 1, 57, 100
3, 147840, Note_on_c, 1, 58, 111
3, 148220, Note_off_c, 1, 58, 100
3, 148224, Note_on_c, 1, 67, 121
3, 148608, Note_on_c, 1, 58, 113
3, 148988, Note_off_c, 1, 67, 100
3, 148988, Note_off_c, 1, 58, 100
3, 148992, Key_signature, 1, "major"
3, 148992, Note_on_c, 1, 59, 114
3, 149376, Note_on_c, 1, 64, 115
3, 149756, Note_off_c, 1, 64, 100
3, 149760, Note_on_c, 1, 67, 116
3, 150140, Note_off_c, 1, 59, 100
3, 150140, Note_off_c, 1, 67, 100
3, 150144, Note_on_c, 1, 71, 117
3, 150524, Note_off_c, 1, 71, 100
3, 150528, Note_on_c, 1, 76, 118
3, 150908, Note_off_c, 1, 76, 100
3, 150912, Note_on_c, 1, 79, 119
3, 151292, Note_off_c, 1, 79, 100
3, 151680, Note_on_c, 1, 79, 120
3, 151772, Note_off_c, 1, 79, 100
3, 151776, Note_on_c, 1, 78, 120
3, 151868, Note_off_c, 1, 78, 100
3, 151872, Note_on_c, 1, 76, 120
3, 151964, Note_off_c, 1, 76, 100
3, 151968, Note_on_c, 1, 75, 120
3, 152060, Note_off_c, 1, 75, 100
3, 152064, Note_on_c, 1, 76, 120
3, 152252, Note_off_c, 1, 76, 100
3, 152832, Note_on_c, 1, 79, 80
3, 153020, Note_off_c, 1, 79, 100
3, 153024, Note_on_c, 1, 78, 80
3, 153212, Note_off_c, 1, 78, 100
3, 153216, Note_on_c, 1, 76, 80
3, 153404, Note_off_c, 1, 76, 100
3, 153408, Note_on_c, 1, 75, 80
3, 153596, Note_off_c, 1, 75, 100
3, 153600, Note_on_c, 1, 76, 80
3, 153980, Note_off_c, 1, 76, 100
3, 154368, Note_on_c, 1, 79, 80
3, 154748, Note_off_c, 1, 79, 100
3, 154752, Note_on_c, 1, 78, 80
3, 155132, Note_off_c, 1, 78, 100
3, 155136, Note_on_c, 1, 76, 80
3, 155516, Note_off_c, 1, 76, 100
3, 155520, Note_on_c, 1, 75, 79
3, 155900, Note_off_c, 1, 75, 100
3, 155904, Note_on_c, 1, 76, 79
3, 156284, Note_off_c, 1, 76, 100
3, 157056, Note_on_c, 1, 79, 77
3, 157820, Note_off_c, 1, 79, 100
3, 157824, Note_on_c, 1, 78, 75
3, 158588, Note_off_c, 1, 78, 100
3, 158592, Note_on_c, 1, 76, 74
3, 158972, Note_off_c, 1, 76, 100
3, 159360, Note_on_c, 1, 67, 73
3, 160124, Note_off_c, 1, 67, 100
3, 160128, Note_on_c, 1, 66, 71
3, 160316, Note_off_c, 1, 66, 100
3, 160320, Note_on_c, 1, 64, 71
3, 160508, Note_off_c, 1, 64, 100
3, 160512, Note_on_c, 1, 64, 71
3, 160892, Note_off_c, 1, 64, 100
3, 161280, Note_on_c, 1, 67, 70
3, 161660, Note_off_c, 1, 67, 100
3, 161664, Note_on_c, 1, 66, 70
3, 161852, Note_off_c, 1, 66, 100
3, 161856, Note_on_c, 1, 64, 70
3, 162044, Note_off_c, 1, 64, 100
3, 162048, Note_on_c, 1, 64, 70
3, 162236, Note_off_c, 1, 64, 100
3, 162624, Note_on_c, 1, 79, 85
3, 162812, Note_off_c, 1, 79, 100
3, 162816, Note_on_c, 1, 78, 87
3, 163004, Note_off_c, 1, 78, 100
3, 163008, Note_on_c, 1, 76, 90
3, 163196, Note_off_c, 1, 76, 100
3, 163392, Note_on_c, 1, 79, 95
3, 163580, Note_off_c, 1, 79, 100
3, 163584, Note_on_c, 1, 78, 98
3, 163772, Note_off_c, 1, 78, 100
3, 163776, Note_on_c, 1, 76, 100
3, 163964, Note_off_c, 1, 76, 100
3, 164160, Note_on_c, 1, 55, 105
3, 164348, Note_off_c, 1, 55, 100
3, 164352, Note_on_c, 1, 54, 108
3, 164540, Note_off_c, 1, 54, 100
3, 164544, Note_on_c, 1, 52, 110
3, 164732, Note_off_c, 1, 52, 100
3, 164736, Note_on_c, 1, 52, 110
3, 165116, Note_off_c, 1, 52, 100
3, 165120, Note_on_c, 1, 52, 110
3, 165120, Note_on_c, 1, 40, 110
3, 165884, Note_off_c, 1, 52, 100
3, 165884, Note_off_c, 1, 40, 100
3, 165888, Note_on_c, 1, 52, 110
3, 165888, Note_on_c, 1, 40, 110
3, 166076, Note_off_c, 1, 52, 100
3, 166076, Note_off_c, 1, 40, 100
3, 166272, Note_on_c, 1, 50, 110
3, 166272, Note_on_c, 1, 38, 110
3, 166460, Note_off_c, 1, 50, 100
3, 166460, Note_off_c, 1, 38, 100
3, 167040, Note_on_c, 1, 62, 80
3, 167420, Note_off_c, 1, 62, 100
3, 167424, Note_on_c, 1, 62, 80
3, 167424, Note_on_c, 1, 60, 80
3, 167996, Note_off_c, 1, 62, 100
3, 167996, Note_off_c, 1, 60, 100
3, 168000, Note_on_c, 1, 62, 80
3, 168000, Note_on_c, 1, 59, 80
3, 168188, Note_off_c, 1, 62, 100
3, 168188, Note_off_c, 1, 59, 100
3, 168192, Note_on_c, 1, 60, 80
3, 168192, Note_on_c, 1, 57, 80
3, 168572, Note_off_c, 1, 60, 100
3, 168572, Note_off_c, 1, 57, 100
3, 168576, Note_on_c, 1, 59, 80
3, 168576, Note_on_c, 1, 55, 80
3, 168956, Note_off_c, 1, 59, 100
3, 168956, Note_off_c, 1, 55, 100
3, 169344, Note_on_c, 1, 55, 110
3, 169344, Note_on_c, 1, 43, 110
3, 169532, Note_off_c, 1, 55, 100
3, 169532, Note_off_c, 1, 43, 100
3, 169728, Note_on_c, 1, 55, 110
3, 169728, Note_on_c, 1, 43, 110
3, 170492, Note_off_c, 1, 55, 100
3, 170492, Note_off_c, 1, 43, 100
3, 170496, Note_on_c, 1, 43, 110
3, 170496, Note_on_c, 1, 31, 110
3, 170684, Note_off_c, 1, 43, 100
3, 170684, Note_off_c, 1, 31, 100
3, 170880, Note_on_c, 1, 42, 110
3, 170880, Note_on_c, 1, 30, 110
3, 171260, Note_off_c, 1, 42, 100
3, 171260, Note_off_c, 1, 30, 100
3, 171648, Note_on_c, 1, 66, 80
3, 172028, Note_off_c, 1, 66, 100
3, 172032, Note_on_c, 1, 66, 80
3, 172032, Note_on_c, 1, 64, 80
3, 172604, Note_off_c, 1, 66, 100
3, 172604, Note_off_c, 1, 64, 100
3, 172608, Note_on_c, 1, 66, 80
3, 172608, Note_on_c, 1, 62, 80
3, 172796, Note_off_c, 1, 66, 100
3, 172796, Note_off_c, 1, 62, 100
3, 172800, Note_on_c, 1, 64, 80
3, 172800, Note_on_c, 1, 61, 80
3, 173180, Note_off_c, 1, 64, 100
3, 173180, Note_off_c, 1, 61, 100
3, 173184, Note_on_c, 1, 62, 80
3, 173184, Note_on_c, 1, 59, 80
3, 173564, Note_off_c, 1, 62, 100
3, 173564, Note_off_c, 1, 59, 100
3, 174336, Note_on_c, 1, 59, 80
3, 174336, Note_on_c, 1, 62, 80
3, 174336, Note_on_c, 1, 67, 80
3, 175100, Note_off_c, 1, 62, 100
3, 175104, Note_on_c, 1, 64, 80
3, 175484, Note_off_c, 1, 59, 100
3, 175488, Note_on_c, 1, 57, 80
3, 176252, Note_off_c, 1, 64, 100
3, 176252, Note_off_c, 1, 67, 100
3, 176252, Note_off_c, 1, 57, 100
3, 176256, Note_on_c, 1, 66, 80
3, 176256, Note_on_c, 1, 63, 80
3, 176636, Note_off_c, 1, 63, 100
3, 176640, Note_on_c, 1, 62, 80
3, 177404, Note_off_c, 1, 66, 100
3, 177404, Note_off_c, 1, 62, 100
3, 177408, Note_on_c, 1, 66, 80
3, 177788, Note_off_c, 1, 66, 100
3, 177792, Note_on_c, 1, 67, 80
3, 178556, Note_off_c, 1, 67, 100
3, 178560, Note_on_c, 1, 55, 80
3, 178940, Note_off_c, 1, 55, 100
3, 178944, Note_on_c, 1, 52, 80
3, 179708, Note_off_c, 1, 52, 100
3, 179712, Note_on_c, 1, 64, 80
3, 180092, Note_off_c, 1, 64, 100
3, 180096, Note_on_c, 1, 60, 80
3, 180860, Note_off_c, 1, 60, 100
3, 180864, Note_on_c, 1, 48, 80
3, 181248, Note_on_c, 1, 36, 80
3, 181632, Note_on_c, 1, 55, 80
3, 182012, Note_off_c, 1, 55, 100
3, 182016, Note_on_c, 1, 52, 80
3, 182396, Note_off_c, 1, 48, 100
3, 182396, Note_off_c, 1, 36, 100
3, 182396, Note_off_c, 1, 52, 100
3, 182400, Note_on_c, 1, 47, 80
3, 182400, Note_on_c, 1, 35, 80
3, 183164, Note_off_c, 1, 47, 100
3, 183164, Note_off_c, 1, 35, 100
3, 183552, Note_on_c, 1, 59, 82
3, 183552, Note_on_c, 1, 52, 82
3, 183552, Note_on_c, 1, 43, 82
3, 184700, Note_off_c, 1, 59, 100
3, 184700, Note_off_c, 1, 52, 100
3, 184700, Note_off_c, 1, 43, 100
3, 184704, Note_on_c, 1, 52, 88
3, 184704, Note_on_c, 1, 45, 88
3, 185468, Note_off_c, 1, 45, 100
3, 185472, Note_on_c, 1, 46, 93
3, 185852, Note_off_c, 1, 52, 100
3, 185852, Note_off_c, 1, 46, 100
3, 185856, Note_on_c, 1, 47, 95
3, 187004, Note_off_c, 1, 47, 100
3, 187008, Note_on_c, 1, 55, 80
3, 187008, Note_on_c, 1, 48, 80
3, 187772, Note_off_c, 1, 55, 100
3, 187772, Note_off_c, 1, 48, 100
3, 187776, Note_on_c, 1, 47, 80
3, 187964, Note_off_c, 1, 47, 100
3, 187968, Note_on_c, 1, 45, 80
3, 188156, Note_off_c, 1, 45, 100
3, 188160, Note_on_c, 1, 59, 80
3, 188160, Note_on_c, 1, 52, 80
3, 188160, Note_on_c, 1, 43, 80
3, 188924, Note_off_c, 1, 43, 100
3, 188928, Note_on_c, 1, 44, 80
3, 189308, Note_off_c, 1, 59, 100
3, 189308, Note_off_c, 1, 52, 100
3, 189308, Note_off_c, 1, 44, 100
3, 189312, Note_on_c, 1, 45, 80
3, 190076, Note_off_c, 1, 45, 100
3, 190080, Note_on_c, 1, 46, 80
3, 190460, Note_off_c, 1, 46, 100
3, 190464, Note_on_c, 1, 47, 80
3, 190464, Note_on_c, 1, 35, 80
3, 191612, Note_off_c, 1, 47, 100
3, 191612, Note_off_c, 1, 35, 100
3, 191616, Note_on_c, 1, 52, 80
3, 191616, Note_on_c, 1, 40, 80
3, 191996, Note_off_c, 1, 52, 100
3, 191996, Note_off_c, 1, 40, 100
3, 192384, Note_on_c, 1, 43, 80
3, 192384, Note_on_c, 1, 31, 80
3, 192764, Note_off_c, 1, 43, 100
3, 192764, Note_off_c, 1, 31, 100
3, 192768, Note_on_c, 1, 43, 80
3, 192768, Note_on_c, 1, 31, 80
3, 193532, Note_off_c, 1, 43, 100
3, 193532, Note_off_c, 1, 31, 100
3, 193536, Note_on_c, 1, 48, 80
3, 193536, Note_on_c, 1, 36, 80
3, 193916, Note_off_c, 1, 48, 100
3, 193916, Note_off_c, 1, 36, 100
3, 193920, Note_on_c, 1, 48, 80
3, 193920, Note_on_c, 1, 36, 80
3, 194684, Note_off_c, 1, 48, 100
3, 194684, Note_off_c, 1, 36, 100
3, 194688, Note_on_c, 1, 55, 80
3, 194688, Note_on_c, 1, 43, 80
3, 195068, Note_off_c, 1, 55, 100
3, 195068, Note_off_c, 1, 43, 100
3, 195072, Note_on_c, 1, 55, 80
3, 195072, Note_on_c, 1, 43, 80
3, 195836, Note_off_c, 1, 55, 100
3, 195836, Note_off_c, 1, 43, 100
3, 195840, Note_on_c, 1, 60, 80
3, 195840, Note_on_c, 1, 48, 80
3, 196220, Note_off_c, 1, 60, 100
3, 196220, Note_off_c, 1, 48, 100
3, 196224, Note_on_c, 1, 60, 80
3, 196224, Note_on_c, 1, 48, 80
3, 196988, Note_off_c, 1, 60, 100
3, 196988, Note_off_c, 1, 48, 100
3, 196992, Note_on_c, 1, 65, 110
3, 196992, Note_on_c, 1, 62, 110
3, 196992, Note_on_c, 1, 59, 110
3, 196992, Note_on_c, 1, 67, 110
3, 197180, Note_off_c, 1, 65, 100
3, 197180, Note_off_c, 1, 62, 100
3, 197180, Note_off_c, 1, 59, 100
3, 197180, Note_off_c, 1, 67, 100
3, 197376, Note_on_c, 1, 65, 110
3, 197376, Note_on_c, 1, 62, 110
3, 197376, Note_on_c, 1, 59, 110
3, 197376, Note_on_c, 1, 67, 110
3, 197948, Note_off_c, 1, 65, 100
3, 197948, Note_off_c, 1, 62, 100
3, 197948, Note_off_c, 1, 59, 100
3, 197948, Note_off_c, 1, 67, 100
3, 200448, Note_on_c, 1, 47, 110
3, 200448, Note_on_c, 1, 35, 110
3, 200636, Note_off_c, 1, 47, 100
3, 200636, Note_off_c, 1, 35, 100
3, 200832, Note_on_c, 1, 48, 110
3, 200832, Note_on_c, 1, 36, 110
3, 201020, Note_off_c, 1, 48, 100
3, 201020, Note_off_c, 1, 36, 100
3, 201600, Note_on_c, 1, 62, 110
3, 201600, Note_on_c, 1, 59, 110
3, 201600, Note_on_c, 1, 56, 110
3, 201600, Note_on_c, 1, 52, 110
3, 201788, Note_off_c, 1, 62, 100
3, 201788, Note_off_c, 1, 59, 100
3, 201788, Note_off_c, 1, 56, 100
3, 201788, Note_off_c, 1, 52, 100
3, 201984, Note_on_c, 1, 62, 110
3, 201984, Note_on_c, 1, 59, 110
3, 201984, Note_on_c, 1, 56, 110
3, 201984, Note_on_c, 1, 52, 110
3, 202556, Note_off_c, 1, 62, 100
3, 202556, Note_off_c, 1, 59, 100
3, 202556, Note_off_c, 1, 56, 100
3, 202556, Note_off_c, 1, 52, 100
3, 205056, Note_on_c, 1, 44, 110
3, 205056, Note_on_c, 1, 32, 110
3, 205244, Note_off_c, 1, 44, 100
3, 205244, Note_off_c, 1, 32, 100
3, 205440, Note_on_c, 1, 45, 110
3, 205440, Note_on_c, 1, 33, 110
3, 205628, Note_off_c, 1, 45, 100
3, 205628, Note_off_c, 1, 33, 100
3, 206208, Note_on_c, 1, 57, 80
3, 206208, Note_on_c, 1, 48, 80
3, 206208, Note_on_c, 1, 41, 80
3, 206396, Note_off_c, 1, 57, 100
3, 206396, Note_off_c, 1, 48, 100
3, 206396, Note_off_c, 1, 41, 100
3, 206592, Note_on_c, 1, 57, 80
3, 206592, Note_on_c, 1, 41, 80
3, 206592, Note_on_c, 1, 48, 80
3, 208508, Note_off_c, 1, 41, 100
3, 208508, Note_off_c, 1, 48, 100
3, 208508, Note_off_c, 1, 57, 100
3, 208512, Note_on_c, 1, 48, 80
3, 208512, Note_on_c, 1, 41, 80
3, 208892, Note_off_c, 1, 48, 100
3, 208892, Note_off_c, 1, 41, 100
3, 208896, Note_on_c, 1, 48, 80
3, 208896, Note_on_c, 1, 41, 80
3, 209660, Note_off_c, 1, 48, 100
3, 209660, Note_off_c, 1, 41, 100
3, 209664, Note_on_c, 1, 48, 80
3, 209664, Note_on_c, 1, 41, 80
3, 210044, Note_off_c, 1, 48, 100
3, 210044, Note_off_c, 1, 41, 100
3, 210048, Note_on_c, 1, 48, 80
3, 210048, Note_on_c, 1, 41, 80
3, 210812, Note_off_c, 1, 48, 100
3, 210812, Note_off_c, 1, 41, 100
3, 210816, Note_on_c, 1, 57, 80
3, 210816, Note_on_c, 1, 48, 80
3, 210816, Note_on_c, 1, 42, 80
3, 211196, Note_off_c, 1, 57, 100
3, 211196, Note_off_c, 1, 48, 100
3, 211196, Note_off_c, 1, 42, 100
3, 211200, Note_on_c, 1, 57, 80
3, 211200, Note_on_c, 1, 48, 80
3, 211200, Note_on_c, 1, 42, 80
3, 211964, Note_off_c, 1, 57, 100
3, 211964, Note_off_c, 1, 48, 100
3, 211964, Note_off_c, 1, 42, 100
3, 211968, Note_on_c, 1, 57, 80
3, 211968, Note_on_c, 1, 48, 80
3, 211968, Note_on_c, 1, 42, 80
3, 212348, Note_off_c, 1, 57, 100
3, 212348, Note_off_c, 1, 48, 100
3, 212348, Note_off_c, 1, 42, 100
3, 212352, Note_on_c, 1, 57, 80
3, 212352, Note_on_c, 1, 48, 80
3, 212352, Note_on_c, 1, 42, 80
3, 213116, Note_off_c, 1, 57, 100
3, 213116, Note_off_c, 1, 48, 100
3, 213116, Note_off_c, 1, 42, 100
3, 213120, Note_on_c, 1, 57, 80
3, 213120, Note_on_c, 1, 48, 80
3, 213120, Note_on_c, 1, 42, 80
3, 213500, Note_off_c, 1, 57, 100
3, 213500, Note_off_c, 1, 48, 100
3, 213500, Note_off_c, 1, 42, 100
3, 213504, Note_on_c, 1, 57, 80
3, 213504, Note_on_c, 1, 47, 80
3, 213504, Note_on_c, 1, 42, 80
3, 215420, Note_off_c, 1, 42, 100
3, 215420, Note_off_c, 1, 47, 100
3, 215420, Note_off_c, 1, 57, 100
3, 215424, Note_on_c, 1, 57, 110
3, 215424, Note_on_c, 1, 47, 110
3, 215424, Note_on_c, 1, 42, 110
3, 215804, Note_off_c, 1, 57, 100
3, 215804, Note_off_c, 1, 47, 100
3, 215804, Note_off_c, 1, 42, 100
3, 215808, Note_on_c, 1, 55, 110
3, 215808, Note_on_c, 1, 47, 110
3, 215808, Note_on_c, 1, 43, 110
3, 215996, Note_off_c, 1, 55, 100
3, 215996, Note_off_c, 1, 47, 100
3, 215996, Note_off_c, 1, 43, 100
3, 216000, Note_on_c, 1, 59, 110
3, 216000, Note_on_c, 1, 55, 110
3, 216188, Note_off_c, 1, 59, 100
3, 216188, Note_off_c, 1, 55, 100
3, 216192, Note_on_c, 1, 59, 110
3, 216192, Note_on_c, 1, 55, 110
3, 216380, Note_off_c, 1, 59, 100
3, 216380, Note_off_c, 1, 55, 100
3, 216384, Note_on_c, 1, 59, 110
3, 216384, Note_on_c, 1, 55, 110
3, 216572, Note_off_c, 1, 59, 100
3, 216572, Note_off_c, 1, 55, 100
3, 216576, Note_on_c, 1, 59, 110
3, 216576, Note_on_c, 1, 55, 110
3, 216764, Note_off_c, 1, 59, 100
3, 216764, Note_off_c, 1, 55, 100
3, 216768, Note_on_c, 1, 59, 110
3, 216768, Note_on_c, 1, 55, 110
3, 216956, Note_off_c, 1, 59, 100
3, 216956, Note_off_c, 1, 55, 100
3, 216960, Note_on_c, 1, 59, 110
3, 216960, Note_on_c, 1, 56, 110
3, 217148, Note_off_c, 1, 59, 100
3, 217148, Note_off_c, 1, 56, 100
3, 217152, Note_on_c, 1, 59, 110
3, 217152, Note_on_c, 1, 56, 110
3, 217340, Note_off_c, 1, 59, 100
3, 217340, Note_off_c, 1, 56, 100
3, 217344, Note_on_c, 1, 59, 110
3, 217344, Note_on_c, 1, 56, 110
3, 217532, Note_off_c, 1, 59, 100
3, 217532, Note_off_c, 1, 56, 100
3, 217536, Note_on_c, 1, 59, 110
3, 217536, Note_on_c, 1, 56, 110
3, 217724, Note_off_c, 1, 59, 100
3, 217724, Note_off_c, 1, 56, 100
3, 217728, Note_on_c, 1, 59, 110
3, 217728, Note_on_c, 1, 56, 110
3, 217916, Note_off_c, 1, 59, 100
3, 217916, Note_off_c, 1, 56, 100
3, 217920, Note_on_c, 1, 59, 110
3, 217920, Note_on_c, 1, 56, 110
3, 218108, Note_off_c, 1, 59, 100
3, 218108, Note_off_c, 1, 56, 100
3, 218112, Note_on_c, 1, 62, 110
3, 218112, Note_on_c, 1, 59, 110
3, 218112, Note_on_c, 1, 56, 110
3, 218300, Note_off_c, 1, 62, 100
3, 218300, Note_off_c, 1, 59, 100
3, 218300, Note_off_c, 1, 56, 100
3, 218304, Note_on_c, 1, 62, 110
3, 218304, Note_on_c, 1, 59, 110
3, 218304, Note_on_c, 1, 56, 110
3, 218492, Note_off_c, 1, 62, 100
3, 218492, Note_off_c, 1, 59, 100
3, 218492, Note_off_c, 1, 56, 100
3, 218496, Note_on_c, 1, 60, 110
3, 218496, Note_on_c, 1, 57, 110
3, 218684, Note_off_c, 1, 60, 100
3, 218684, Note_off_c, 1, 57, 100
3, 218688, Note_on_c, 1, 60, 110
3, 218688, Note_on_c, 1, 57, 110
3, 218876, Note_off_c, 1, 60, 100
3, 218876, Note_off_c, 1, 57, 100
3, 218880, Note_on_c, 1, 60, 110
3, 218880, Note_on_c, 1, 57, 110
3, 219068, Note_off_c, 1, 60, 100
3, 219068, Note_off_c, 1, 57, 100
3, 219072, Note_on_c, 1, 60, 110
3, 219072, Note_on_c, 1, 57, 110
3, 219260, Note_off_c, 1, 60, 100
3, 219260, Note_off_c, 1, 57, 100
3, 219264, Note_on_c, 1, 64, 110
3, 219264, Note_on_c, 1, 60, 110
3, 219264, Note_on_c, 1, 57, 110
3, 219452, Note_off_c, 1, 64, 100
3, 219452, Note_off_c, 1, 60, 100
3, 219452, Note_off_c, 1, 57, 100
3, 219456, Note_on_c, 1, 64, 110
3, 219456, Note_on_c, 1, 60, 110
3, 219456, Note_on_c, 1, 57, 110
3, 219644, Note_off_c, 1, 64, 100
3, 219644, Note_off_c, 1, 60, 100
3, 219644, Note_off_c, 1, 57, 100
3, 219648, Note_on_c, 1, 62, 110
3, 219648, Note_on_c, 1, 59, 110
3, 219836, Note_off_c, 1, 62, 100
3, 219836, Note_off_c, 1, 59, 100
3, 219840, Note_on_c, 1, 62, 110
3, 219840, Note_on_c, 1, 59, 110
3, 220028, Note_off_c, 1, 62, 100
3, 220028, Note_off_c, 1, 59, 100
3, 220032, Note_on_c, 1, 62, 110
3, 220032, Note_on_c, 1, 59, 110
3, 220220, Note_off_c, 1, 62, 100
3, 220220, Note_off_c, 1, 59, 100
3, 220224, Note_on_c, 1, 62, 110
3, 220224, Note_on_c, 1, 59, 110
3, 220412, Note_off_c, 1, 62, 100
3, 220412, Note_off_c, 1, 59, 100
3, 220416, Note_on_c, 1, 64, 110
3, 220416, Note_on_c, 1, 62, 110
3, 220416, Note_on_c, 1, 59, 110
3, 220604, Note_off_c, 1, 64, 100
3, 220604, Note_off_c, 1, 62, 100
3, 220604, Note_off_c, 1, 59, 100
3, 220608, Note_on_c, 1, 64, 110
3, 220608, Note_on_c, 1, 62, 110
3, 220608, Note_on_c, 1, 59, 110
3, 220796, Note_off_c, 1, 64, 100
3, 220796, Note_off_c, 1, 62, 100
3, 220796, Note_off_c, 1, 59, 100
3, 220800, Note_on_c, 1, 64, 110
3, 220800, Note_on_c, 1, 60, 110
3, 220988, Note_off_c, 1, 64, 100
3, 220988, Note_off_c, 1, 60, 100
3, 220992, Note_on_c, 1, 64, 110
3, 220992, Note_on_c, 1, 60, 110
3, 221180, Note_off_c, 1, 64, 100
3, 221180, Note_off_c, 1, 60, 100
3, 221184, Note_on_c, 1, 64, 110
3, 221184, Note_on_c, 1, 60, 110
3, 221372, Note_off_c, 1, 64, 100
3, 221372, Note_off_c, 1, 60, 100
3, 221376, Note_on_c, 1, 64, 110
3, 221376, Note_on_c, 1, 60, 110
3, 221564, Note_off_c, 1, 64, 100
3, 221564, Note_off_c, 1, 60, 100
3, 221568, Note_on_c, 1, 64, 110
3, 221568, Note_on_c, 1, 60, 110
3, 221756, Note_off_c, 1, 64, 100
3, 221756, Note_off_c, 1, 60, 100
3, 221760, Note_on_c, 1, 64, 110
3, 221760, Note_on_c, 1, 60, 110
3, 221948, Note_off_c, 1, 64, 100
3, 221948, Note_off_c, 1, 60, 100
3, 221952, Note_on_c, 1, 64, 110
3, 221952, Note_on_c, 1, 61, 110
3, 222140, Note_off_c, 1, 64, 100
3, 222140, Note_off_c, 1, 61, 100
3, 222144, Note_on_c, 1, 64, 110
3, 222144, Note_on_c, 1, 61, 110
3, 222332, Note_off_c, 1, 64, 100
3, 222332, Note_off_c, 1, 61, 100
3, 222336, Note_on_c, 1, 64, 110
3, 222336, Note_on_c, 1, 61, 110
3, 222524, Note_off_c, 1, 64, 100
3, 222524, Note_off_c, 1, 61, 100
3, 222528, Note_on_c, 1, 64, 110
3, 222528, Note_on_c, 1, 61, 110
3, 222716, Note_off_c, 1, 64, 100
3, 222716, Note_off_c, 1, 61, 100
3, 222720, Note_on_c, 1, 66, 70
3, 222908, Note_off_c, 1, 66, 100
3, 222912, Note_on_c, 1, 66, 70
3, 223100, Note_off_c, 1, 66, 100
3, 223104, Note_on_c, 1, 66, 70
3, 223292, Note_off_c, 1, 66, 100
3, 223296, Note_on_c, 1, 66, 70
3, 223484, Note_off_c, 1, 66, 100
3, 223488, Note_on_c, 1, 66, 70
3, 223676, Note_off_c, 1, 66, 100
3, 223680, Note_on_c, 1, 66, 70
3, 223868, Note_off_c, 1, 66, 100
3, 223872, Note_on_c, 1, 66, 70
3, 224060, Note_off_c, 1, 66, 100
3, 224064, Note_on_c, 1, 66, 78
3, 224252, Note_off_c, 1, 66, 100
3, 224256, Note_on_c, 1, 66, 86
3, 224444, Note_off_c, 1, 66, 100
3, 224448, Note_on_c, 1, 66, 94
3, 224636, Note_off_c, 1, 66, 100
3, 224640, Note_on_c, 1, 66, 102
3, 224828, Note_off_c, 1, 66, 100
3, 224832, Note_on_c, 1, 66, 110
3, 225020, Note_off_c, 1, 66, 100
3, 225024, Note_on_c, 1, 69, 120
3, 225024, Note_on_c, 1, 63, 120
3, 225024, Note_on_c, 1, 59, 120
3, 225024, Note_on_c, 1, 66, 120
3, 225212, Note_off_c, 1, 69, 100
3, 225212, Note_off_c, 1, 63, 100
3, 225212, Note_off_c, 1, 59, 100
3, 225212, Note_off_c, 1, 66, 100
3, 225216, Note_on_c, 1, 69, 120
3, 225216, Note_on_c, 1, 63, 120
3, 225216, Note_on_c, 1, 59, 120
3, 225216, Note_on_c, 1, 66, 120
3, 225404, Note_off_c, 1, 69, 100
3, 225404, Note_off_c, 1, 63, 100
3, 225404, Note_off_c, 1, 59, 100
3, 225404, Note_off_c, 1, 66, 100
3, 225408, Note_on_c, 1, 69, 120
3, 225408, Note_on_c, 1, 63, 120
3, 225408, Note_on_c, 1, 59, 120
3, 225408, Note_on_c, 1, 66, 120
3, 225596, Note_off_c, 1, 69, 100
3, 225596, Note_off_c, 1, 63, 100
3, 225596, Note_off_c, 1, 59, 100
3, 225596, Note_off_c, 1, 66, 100
3, 225600, Note_on_c, 1, 69, 120
3, 225600, Note_on_c, 1, 63, 120
3, 225600, Note_on_c, 1, 59, 120
3, 225600, Note_on_c, 1, 66, 120
3, 225788, Note_off_c, 1, 69, 100
3, 225788, Note_off_c, 1, 63, 100
3, 225788, Note_off_c, 1, 59, 100
3, 225788, Note_off_c, 1, 66, 100
3, 225792, Note_on_c, 1, 69, 120
3, 225792, Note_on_c, 1, 63, 120
3, 225792, Note_on_c, 1, 59, 120
3, 225792, Note_on_c, 1, 66, 120
3, 225980, Note_off_c, 1, 69, 100
3, 225980, Note_off_c, 1, 63, 100
3, 225980, Note_off_c, 1, 59, 100
3, 225980, Note_off_c, 1, 66, 100
3, 225984, Note_on_c, 1, 69, 120
3, 225984, Note_on_c, 1, 63, 120
3, 225984, Note_on_c, 1, 59, 120
3, 225984, Note_on_c, 1, 66, 120
3, 226172, Note_off_c, 1, 69, 100
3, 226172, Note_off_c, 1, 63, 100
3, 226172, Note_off_c, 1, 59, 100
3, 226172, Note_off_c, 1, 66, 100
3, 226176, Note_on_c, 1, 69, 115
3, 226176, Note_on_c, 1, 63, 115
3, 226176, Note_on_c, 1, 59, 115
3, 226176, Note_on_c, 1, 66, 115
3, 226364, Note_off_c, 1, 69, 100
3, 226364, Note_off_c, 1, 63, 100
3, 226364, Note_off_c, 1, 59, 100
3, 226364, Note_off_c, 1, 66, 100
3, 226368, Note_on_c, 1, 69, 111
3, 226368, Note_on_c, 1, 63, 111
3, 226368, Note_on_c, 1, 59, 111
3, 226368, Note_on_c, 1, 66, 111
3, 226556, Note_off_c, 1, 69, 100
3, 226556, Note_off_c, 1, 63, 100
3, 226556, Note_off_c, 1, 59, 100
3, 226556, Note_off_c, 1, 66, 100
3, 226560, Note_on_c, 1, 69, 106
3, 226560, Note_on_c, 1, 63, 106
3, 226560, Note_on_c, 1, 59, 106
3, 226560, Note_on_c, 1, 66, 106
3, 226748, Note_off_c, 1, 69, 100
3, 226748, Note_off_c, 1, 63, 100
3, 226748, Note_off_c, 1, 59, 100
3, 226748, Note_off_c, 1, 66, 100
3, 226752, Note_on_c, 1, 69, 101
3, 226752, Note_on_c, 1, 63, 101
3, 226752, Note_on_c, 1, 59, 101
3, 226752, Note_on_c, 1, 66, 101
3, 226940, Note_off_c, 1, 69, 100
3, 226940, Note_off_c, 1, 63, 100
3, 226940, Note_off_c, 1, 59, 100
3, 226940, Note_off_c, 1, 66, 100
3, 226944, Note_on_c, 1, 69, 96
3, 226944, Note_on_c, 1, 63, 96
3, 226944, Note_on_c, 1, 59, 96
3, 226944, Note_on_c, 1, 66, 96
3, 227132, Note_off_c, 1, 69, 100
3, 227132, Note_off_c, 1, 63, 100
3, 227132, Note_off_c, 1, 59, 100
3, 227132, Note_off_c, 1, 66, 100
3, 227136, Note_on_c, 1, 69, 91
3, 227136, Note_on_c, 1, 63, 91
3, 227136, Note_on_c, 1, 59, 91
3, 227136, Note_on_c, 1, 66, 91
3, 227324, Note_off_c, 1, 69, 100
3, 227324, Note_off_c, 1, 63, 100
3, 227324, Note_off_c, 1, 59, 100
3, 227324, Note_off_c, 1, 66, 100
3, 227328, Note_on_c, 1, 52, 80
3, 227424, Note_on_c, 1, 67, 80
3, 227504, Note_off_c, 1, 52, 100
3, 227520, Note_on_c, 1, 59, 80
3, 227596, Note_off_c, 1, 67, 100
3, 227616, Note_on_c, 1, 67, 80
3, 227692, Note_off_c, 1, 59, 100
3, 227712, Note_on_c, 1, 54, 80
3, 227784, Note_off_c, 1, 67, 100
3, 227808, Note_on_c, 1, 69, 80
3, 227896, Note_off_c, 1, 54, 100
3, 227904, Note_on_c, 1, 59, 80
3, 227984, Note_off_c, 1, 69, 100
3, 228000, Note_on_c, 1, 69, 80
3, 228088, Note_off_c, 1, 59, 100
3, 228096, Note_on_c, 1, 55, 80
3, 228172, Note_off_c, 1, 69, 100
3, 228192, Note_on_c, 1, 71, 80
3, 228276, Note_off_c, 1, 55, 100
3, 228288, Note_on_c, 1, 59, 80
3, 228360, Note_off_c, 1, 71, 100
3, 228384, Note_on_c, 1, 71, 80
3, 228460, Note_off_c, 1, 59, 100
3, 228480, Note_on_c, 1, 52, 80
3, 228552, Note_off_c, 1, 71, 100
3, 228576, Note_on_c, 1, 67, 80
3, 228648, Note_off_c, 1, 52, 100
3, 228672, Note_on_c, 1, 59, 80
3, 228744, Note_off_c, 1, 67, 100
3, 228768, Note_on_c, 1, 67, 80
3, 228836, Note_off_c, 1, 59, 100
3, 228864, Note_on_c, 1, 54, 80
3, 228952, Note_off_c, 1, 67, 100
3, 228960, Note_on_c, 1, 69, 80
3, 229044, Note_off_c, 1, 54, 100
3, 229056, Note_on_c, 1, 59, 80
3, 229136, Note_off_c, 1, 69, 100
3, 229152, Note_on_c, 1, 69, 80
3, 229216, Note_off_c, 1, 59, 100
3, 229248, Note_on_c, 1, 55, 80
3, 229340, Note_off_c, 1, 69, 100
3, 229344, Note_on_c, 1, 71, 80
3, 229416, Note_off_c, 1, 55, 100
3, 229440, Note_on_c, 1, 59, 80
3, 229528, Note_off_c, 1, 71, 100
3, 229536, Note_on_c, 1, 71, 80
3, 229624, Note_off_c, 1, 59, 100
3, 229632, Note_on_c, 1, 52, 80
3, 229716, Note_off_c, 1, 71, 100
3, 229728, Note_on_c, 1, 67, 80
3, 229796, Note_off_c, 1, 52, 100
3, 229824, Note_on_c, 1, 59, 80
3, 229912, Note_off_c, 1, 67, 100
3, 229920, Note_on_c, 1, 67, 80
3, 229992, Note_off_c, 1, 59, 100
3, 230016, Note_on_c, 1, 54, 80
3, 230096, Note_off_c, 1, 67, 100
3, 230112, Note_on_c, 1, 69, 80
3, 230184, Note_off_c, 1, 54, 100
3, 230208, Note_on_c, 1, 59, 80
3, 230300, Note_off_c, 1, 69, 100
3, 230304, Note_on_c, 1, 69, 80
3, 230380, Note_off_c, 1, 59, 100
3, 230400, Note_on_c, 1, 55, 80
3, 230472, Note_off_c, 1, 69, 100
3, 230496, Note_on_c, 1, 71, 80
3, 230588, Note_off_c, 1, 55, 100
3, 230592, Note_on_c, 1, 59, 80
3, 230660, Note_off_c, 1, 71, 100
3, 230688, Note_on_c, 1, 71, 80
3, 230772, Note_off_c, 1, 59, 100
3, 230784, Note_on_c, 1, 52, 80
3, 230876, Note_off_c, 1, 71, 100
3, 230880, Note_on_c, 1, 67, 80
3, 230944, Note_off_c, 1, 52, 100
3, 230976, Note_on_c, 1, 59, 80
3, 231040, Note_off_c, 1, 67, 100
3, 231072, Note_on_c, 1, 67, 80
3, 231148, Note_off_c, 1, 59, 100
3, 231168, Note_on_c, 1, 54, 80
3, 231248, Note_off_c, 1, 67, 100
3, 231264, Note_on_c, 1, 69, 80
3, 231344, Note_off_c, 1, 54, 100
3, 231360, Note_on_c, 1, 59, 80
3, 231432, Note_off_c, 1, 69, 100
3, 231456, Note_on_c, 1, 69, 80
3, 231532, Note_off_c, 1, 59, 100
3, 231552, Note_on_c, 1, 55, 80
3, 231632, Note_off_c, 1, 69, 100
3, 231648, Note_on_c, 1, 71, 80
3, 231720, Note_off_c, 1, 55, 100
3, 231744, Note_on_c, 1, 59, 80
3, 231820, Note_off_c, 1, 71, 100
3, 231840, Note_on_c, 1, 71, 80
3, 231916, Note_off_c, 1, 59, 100
3, 231936, Note_on_c, 1, 57, 80
3, 232012, Note_off_c, 1, 71, 100
3, 232032, Note_on_c, 1, 67, 80
3, 232108, Note_off_c, 1, 57, 100
3, 232128, Note_on_c, 1, 64, 80
3, 232208, Note_off_c, 1, 67, 100
3, 232224, Note_on_c, 1, 67, 80
3, 232296, Note_off_c, 1, 64, 100
3, 232320, Note_on_c, 1, 58, 80
3, 232400, Note_off_c, 1, 67, 100
3, 232416, Note_on_c, 1, 67, 80
3, 232492, Note_off_c, 1, 58, 100
3, 232512, Note_on_c, 1, 64, 80
3, 232592, Note_off_c, 1, 67, 100
3, 232608, Note_on_c, 1, 67, 80
3, 232700, Note_off_c, 1, 64, 100
3, 232704, Note_on_c, 1, 59, 80
3, 232796, Note_off_c, 1, 67, 100
3, 232800, Note_on_c, 1, 67, 80
3, 232884, Note_off_c, 1, 59, 100
3, 232896, Note_on_c, 1, 64, 80
3, 232988, Note_off_c, 1, 67, 100
3, 232992, Note_on_c, 1, 67, 80
3, 233076, Note_off_c, 1, 64, 100
3, 233088, Note_on_c, 1, 59, 80
3, 233164, Note_off_c, 1, 67, 100
3, 233184, Note_on_c, 1, 67, 80
3, 233256, Note_off_c, 1, 59, 100
3, 233280, Note_on_c, 1, 64, 80
3, 233348, Note_off_c, 1, 67, 100
3, 233376, Note_on_c, 1, 67, 80
3, 233440, Note_off_c, 1, 64, 100
3, 233472, Note_on_c, 1, 59, 80
3, 233548, Note_off_c, 1, 67, 100
3, 233568, Note_on_c, 1, 67, 80
3, 233640, Note_off_c, 1, 59, 100
3, 233664, Note_on_c, 1, 64, 80
3, 233740, Note_off_c, 1, 67, 100
3, 233760, Note_on_c, 1, 67, 80
3, 233836, Note_off_c, 1, 64, 100
3, 233856, Note_on_c, 1, 59, 80
3, 233936, Note_off_c, 1, 67, 100
3, 233952, Note_on_c, 1, 69, 80
3, 234032, Note_off_c, 1, 59, 100
3, 234048, Note_on_c, 1, 66, 80
3, 234128, Note_off_c, 1, 69, 100
3, 234144, Note_on_c, 1, 69, 80
3, 234216, Note_off_c, 1, 66, 100
3, 234240, Note_on_c, 1, 40, 80
3, 234328, Note_off_c, 1, 69, 100
3, 234336, Note_on_c, 1, 55, 80
3, 234424, Note_off_c, 1, 40, 100
3, 234432, Note_on_c, 1, 47, 80
3, 234516, Note_off_c, 1, 55, 100
3, 234528, Note_on_c, 1, 55, 80
3, 234616, Note_off_c, 1, 47, 100
3, 234624, Note_on_c, 1, 42, 80
3, 234712, Note_off_c, 1, 55, 100
3, 234720, Note_on_c, 1, 57, 80
3, 234804, Note_off_c, 1, 42, 100
3, 234816, Note_on_c, 1, 47, 80
3, 234896, Note_off_c, 1, 57, 100
3, 234912, Note_on_c, 1, 57, 80
3, 235004, Note_off_c, 1, 47, 100
3, 235008, Note_on_c, 1, 43, 80
3, 235092, Note_off_c, 1, 57, 100
3, 235104, Note_on_c, 1, 59, 80
3, 235188, Note_off_c, 1, 43, 100
3, 235200, Note_on_c, 1, 47, 80
3, 235272, Note_off_c, 1, 59, 100
3, 235296, Note_on_c, 1, 59, 80
3, 235364, Note_off_c, 1, 47, 100
3, 235392, Note_on_c, 1, 40, 80
3, 235476, Note_off_c, 1, 59, 100
3, 235488, Note_on_c, 1, 55, 80
3, 235576, Note_off_c, 1, 40, 100
3, 235584, Note_on_c, 1, 47, 80
3, 235660, Note_off_c, 1, 55, 100
3, 235680, Note_on_c, 1, 55, 80
3, 235748, Note_off_c, 1, 47, 100
3, 235776, Note_on_c, 1, 42, 80
3, 235844, Note_off_c, 1, 55, 100
3, 235872, Note_on_c, 1, 57, 80
3, 235964, Note_off_c, 1, 42, 100
3, 235968, Note_on_c, 1, 47, 80
3, 236040, Note_off_c, 1, 57, 100
3, 236064, Note_on_c, 1, 57, 80
3, 236144, Note_off_c, 1, 47, 100
3, 236160, Note_on_c, 1, 43, 80
3, 236236, Note_off_c, 1, 57, 100
3, 236256, Note_on_c, 1, 59, 80
3, 236336, Note_off_c, 1, 43, 100
3, 236352, Note_on_c, 1, 47, 80
3, 236424, Note_off_c, 1, 59, 100
3, 236448, Note_on_c, 1, 59, 80
3, 236524, Note_off_c, 1, 47, 100
3, 236544, Note_on_c, 1, 40, 80
3, 236620, Note_off_c, 1, 59, 100
3, 236640, Note_on_c, 1, 55, 80
3, 236720, Note_off_c, 1, 40, 100
3, 236736, Note_on_c, 1, 47, 80
3, 236808, Note_off_c, 1, 55, 100
3, 236832, Note_on_c, 1, 55, 80
3, 236916, Note_off_c, 1, 47, 100
3, 236928, Note_on_c, 1, 42, 80
3, 237000, Note_off_c, 1, 55, 100
3, 237024, Note_on_c, 1, 57, 80
3, 237104, Note_off_c, 1, 42, 100
3, 237120, Note_on_c, 1, 47, 80
3, 237200, Note_off_c, 1, 57, 100
3, 237216, Note_on_c, 1, 57, 80
3, 237284, Note_off_c, 1, 47, 100
3, 237312, Note_on_c, 1, 43, 80
3, 237400, Note_off_c, 1, 57, 100
3, 237408, Note_on_c, 1, 59, 80
3, 237488, Note_off_c, 1, 43, 100
3, 237504, Note_on_c, 1, 47, 80
3, 237576, Note_off_c, 1, 59, 100
3, 237600, Note_on_c, 1, 59, 80
3, 237668, Note_off_c, 1, 47, 100
3, 237696, Note_on_c, 1, 40, 80
3, 237772, Note_off_c, 1, 59, 100
3, 237792, Note_on_c, 1, 55, 80
3, 237864, Note_off_c, 1, 40, 100
3, 237888, Note_on_c, 1, 47, 80
3, 237968, Note_off_c, 1, 55, 100
3, 237984, Note_on_c, 1, 55, 80
3, 238072, Note_off_c, 1, 47, 100
3, 238080, Note_on_c, 1, 42, 80
3, 238172, Note_off_c, 1, 55, 100
3, 238176, Note_on_c, 1, 57, 80
3, 238256, Note_off_c, 1, 42, 100
3, 238272, Note_on_c, 1, 47, 80
3, 238356, Note_off_c, 1, 57, 100
3, 238368, Note_on_c, 1, 57, 80
3, 238448, Note_off_c, 1, 47, 100
3, 238464, Note_on_c, 1, 43, 80
3, 238528, Note_off_c, 1, 57, 100
3, 238560, Note_on_c, 1, 59, 80
3, 238628, Note_off_c, 1, 43, 100
3, 238656, Note_on_c, 1, 47, 80
3, 238724, Note_off_c, 1, 59, 100
3, 238752, Note_on_c, 1, 59, 80
3, 238820, Note_off_c, 1, 47, 100
3, 238848, Note_on_c, 1, 45, 80
3, 238916, Note_off_c, 1, 59, 100
3, 238944, Note_on_c, 1, 55, 80
3, 239016, Note_off_c, 1, 45, 100
3, 239040, Note_on_c, 1, 52, 80
3, 239116, Note_off_c, 1, 55, 100
3, 239136, Note_on_c, 1, 55, 80
3, 239212, Note_off_c, 1, 52, 100
3, 239232, Note_on_c, 1, 46, 80
3, 239316, Note_off_c, 1, 55, 100
3, 239328, Note_on_c, 1, 55, 80
3, 239404, Note_off_c, 1, 46, 100
3, 239424, Note_on_c, 1, 52, 80
3, 239492, Note_off_c, 1, 55, 100
3, 239520, Note_on_c, 1, 55, 80
3, 239604, Note_off_c, 1, 52, 100
3, 239616, Note_on_c, 1, 47, 80
3, 239692, Note_off_c, 1, 55, 100
3, 239712, Note_on_c, 1, 55, 80
3, 239784, Note_off_c, 1, 47, 100
3, 239808, Note_on_c, 1, 52, 80
3, 239884, Note_off_c, 1, 55, 100
3, 239904, Note_on_c, 1, 55, 80
3, 239984, Note_off_c, 1, 52, 100
3, 239996, Note_off_c, 1, 55, 100
3, 240000, Note_on_c, 1, 47, 80
3, 240764, Note_off_c, 1, 47, 100
3, 240768, Note_on_c, 1, 35, 80
3, 241148, Note_off_c, 1, 35, 100
3, 241152, Note_on_c, 1, 40, 110
3, 241340, Note_off_c, 1, 40, 100
3, 241344, Note_on_c, 1, 42, 110
3, 241344, Note_on_c, 1, 54, 110
3, 241532, Note_off_c, 1, 42, 100
3, 241532, Note_off_c, 1, 54, 100
3, 241536, Note_on_c, 1, 43, 110
3, 241536, Note_on_c, 1, 55, 110
3, 241724, Note_off_c, 1, 43, 100
3, 241724, Note_off_c, 1, 55, 100
3, 241728, Note_on_c, 1, 45, 110
3, 241728, Note_on_c, 1, 57, 110
3, 241916, Note_off_c, 1, 45, 100
3, 241916, Note_off_c, 1, 57, 100
3, 241920, Note_on_c, 1, 59, 120
3, 241920, Note_on_c, 1, 47, 120
3, 243452, Note_off_c, 1, 47, 100
3, 243452, Note_off_c, 1, 59, 100
3, 243456, Note_on_c, 1, 57, 80
3, 243456, Note_on_c, 1, 45, 80
3, 244604, Note_off_c, 1, 57, 100
3, 244604, Note_off_c, 1, 45, 100
3, 244608, Note_on_c, 1, 59, 80
3, 244608, Note_on_c, 1, 47, 80
3, 245756, Note_off_c, 1, 59, 100
3, 245756, Note_off_c, 1, 47, 100
3, 245760, Note_on_c, 1, 28, 110
3, 245760, Note_on_c, 1, 40, 110
3, 245948, Note_off_c, 1, 28, 100
3, 245948, Note_off_c, 1, 40, 100
3, 245952, Note_on_c, 1, 30, 110
3, 245952, Note_on_c, 1, 42, 110
3, 246140, Note_off_c, 1, 30, 100
3, 246140, Note_off_c, 1, 42, 100
3, 246144, Note_on_c, 1, 31, 110
3, 246144, Note_on_c, 1, 43, 110
3, 246332, Note_off_c, 1, 31, 100
3, 246332, Note_off_c, 1, 43, 100
3, 246336, Note_on_c, 1, 33, 110
3, 246336, Note_on_c, 1, 45, 110
3, 246524, Note_off_c, 1, 33, 100
3, 246524, Note_off_c, 1, 45, 100
3, 246528, Note_on_c, 1, 47, 120
3, 246528, Note_on_c, 1, 35, 120
3, 248060, Note_off_c, 1, 35, 100
3, 248060, Note_off_c, 1, 47, 100
3, 248064, Note_on_c, 1, 45, 80
3, 248064, Note_on_c, 1, 33, 80
3, 249212, Note_off_c, 1, 45, 100
3, 249212, Note_off_c, 1, 33, 100
3, 249216, Note_on_c, 1, 47, 80
3, 249216, Note_on_c, 1, 35, 80
3, 250364, Note_off_c, 1, 47, 100
3, 250364, Note_off_c, 1, 35, 100
3, 251520, Note_on_c, 1, 47, 80
3, 251520, Note_on_c, 1, 40, 80
3, 252668, Note_off_c, 1, 47, 100
3, 252668, Note_off_c, 1, 40, 100
3, 253824, Note_on_c, 1, 47, 78
3, 253824, Note_on_c, 1, 35, 78
3, 254972, Note_off_c, 1, 47, 100
3, 254972, Note_off_c, 1, 35, 100
3, 254976, Note_on_c, 1, 40, 77
3, 255356, Note_off_c, 1, 40, 100
3, 256128, Note_on_c, 1, 59, 77
3, 256128, Note_on_c, 1, 47, 77
3, 257276, Note_off_c, 1, 59, 100
3, 257276, Note_off_c, 1, 47, 100
3, 258432, Note_on_c, 1, 59, 75
3, 258432, Note_on_c, 1, 52, 75
3, 259580, Note_off_c, 1, 59, 100
3, 259580, Note_off_c, 1, 52, 100
3, 260736, Note_on_c, 1, 59, 73
3, 260736, Note_on_c, 1, 47, 73
3, 261884, Note_off_c, 1, 59, 100
3, 261884, Note_off_c, 1, 47, 100
3, 261888, Note_on_c, 1, 52, 72
3, 262268, Note_off_c, 1, 52, 100
3, 263040, Note_on_c, 1, 71, 71
3, 264188, Note_off_c, 1, 71, 100
3, 264960, Note_on_c, 1, 72, 80
3, 265724, Note_off_c, 1, 72, 100
3, 265728, Note_on_c, 1, 71, 80
3, 266108, Note_off_c, 1, 71, 100
3, 266112, Note_on_c, 1, 69, 80
3, 266112, Note_on_c, 1, 66, 80
3, 266492, Note_off_c, 1, 69, 100
3, 266492, Note_off_c, 1, 66, 100
3, 266496, Note_on_c, 1, 67, 80
3, 266496, Note_on_c, 1, 64, 80
3, 267068, Note_off_c, 1, 67, 100
3, 267068, Note_off_c, 1, 64, 100
3, 267072, Note_on_c, 1, 69, 80
3, 267072, Note_on_c, 1, 66, 80
3, 267260, Note_off_c, 1, 69, 100
3, 267260, Note_off_c, 1, 66, 100
3, 267264, Note_on_c, 1, 67, 80
3, 267644, Note_off_c, 1, 67, 100
3, 267648, Note_on_c, 1, 69, 80
3, 267648, Note_on_c, 1, 66, 80
3, 267648, Note_on_c, 1, 62, 80
3, 268028, Note_off_c, 1, 69, 100
3, 268028, Note_off_c, 1, 66, 100
3, 268028, Note_off_c, 1, 62, 100
3, 268416, Note_on_c, 1, 74, 80
3, 268796, Note_off_c, 1, 74, 100
3, 268800, Note_on_c, 1, 74, 80
3, 268800, Note_on_c, 1, 72, 80
3, 269372, Note_off_c, 1, 74, 100
3, 269372, Note_off_c, 1, 72, 100
3, 269376, Note_on_c, 1, 74, 80
3, 269376, Note_on_c, 1, 71, 80
3, 269564, Note_off_c, 1, 74, 100
3, 269564, Note_off_c, 1, 71, 100
3, 269568, Note_on_c, 1, 72, 80
3, 269568, Note_on_c, 1, 69, 80
3, 269948, Note_off_c, 1, 72, 100
3, 269948, Note_off_c, 1, 69, 100
3, 269952, Note_on_c, 1, 71, 80
3, 269952, Note_on_c, 1, 67, 80
3, 270332, Note_off_c, 1, 71, 100
3, 270332, Note_off_c, 1, 67, 100
3, 270720, Note_on_c, 1, 79, 80
3, 271100, Note_off_c, 1, 79, 100
3, 271104, Note_on_c, 1, 79, 80
3, 271676, Note_off_c, 1, 79, 100
3, 271680, Note_on_c, 1, 78, 80
3, 271868, Note_off_c, 1, 78, 100
3, 271872, Note_on_c, 1, 76, 80
3, 272252, Note_off_c, 1, 76, 100
3, 272256, Note_on_c, 1, 75, 80
3, 272636, Note_off_c, 1, 75, 100
3, 273408, Note_on_c, 1, 59, 80
3, 273408, Note_on_c, 1, 52, 80
3, 273408, Note_on_c, 1, 43, 80
3, 274556, Note_off_c, 1, 59, 100
3, 274556, Note_off_c, 1, 52, 100
3, 274556, Note_off_c, 1, 43, 100
3, 274560, Note_on_c, 1, 45, 85
3, 275324, Note_off_c, 1, 45, 100
3, 275328, Note_on_c, 1, 46, 95
3, 275708, Note_off_c, 1, 46, 100
3, 275712, Note_on_c, 1, 47, 100
3, 276860, Note_off_c, 1, 47, 100
3, 276864, Note_on_c, 1, 55, 86
3, 276864, Note_on_c, 1, 48, 86
3, 277628, Note_off_c, 1, 55, 100
3, 277628, Note_off_c, 1, 48, 100
3, 277632, Note_on_c, 1, 47, 80
3, 277632, Note_on_c, 1, 35, 80
3, 277820, Note_off_c, 1, 47, 100
3, 277820, Note_off_c, 1, 35, 100
3, 277824, Note_on_c, 1, 45, 83
3, 277824, Note_on_c, 1, 33, 83
3, 278012, Note_off_c, 1, 45, 100
3, 278012, Note_off_c, 1, 33, 100
3, 278016, Note_on_c, 1, 43, 86
3, 278016, Note_on_c, 1, 31, 86
3, 278780, Note_off_c, 1, 43, 100
3, 278780, Note_off_c, 1, 31, 100
3, 278784, Note_on_c, 1, 44, 100
3, 278784, Note_on_c, 1, 32, 100
3, 279164, Note_off_c, 1, 44, 100
3, 279164, Note_off_c, 1, 32, 100
3, 279168, Note_on_c, 1, 45, 100
3, 279168, Note_on_c, 1, 33, 100
3, 279932, Note_off_c, 1, 45, 100
3, 279932, Note_off_c, 1, 33, 100
3, 279936, Note_on_c, 1, 46, 81
3, 279936, Note_on_c, 1, 34, 81
3, 280316, Note_off_c, 1, 46, 100
3, 280316, Note_off_c, 1, 34, 100
3, 280320, Note_on_c, 1, 47, 70
3, 280320, Note_on_c, 1, 35, 70
3, 281468, Note_off_c, 1, 47, 100
3, 281468, Note_off_c, 1, 35, 100
3, 281472, Note_on_c, 1, 40, 70
3, 282620, Note_off_c, 1, 40, 100
3, 282620, End_track
0, 0, End_of_file
