0, 0, Header, 1, 3, 384
1, 0, Start_track
1, 0, Title_t, "L.v.Beethoven 2mov - Piano Sonata No.27 in E Minor Op.90\000"
1, 0, Copyright_t, "Copyright(C) 1995-2009, Suzuki Software\000"
1, 0, Sequencer_specific, 9, 67, 123, 0, 88, 70, 48, 50, 0, 1
1, 0, Text_t, "XFhd:2000/09/25:JP:Classical::::L.v.Beethoven:::Kaoru Suzuki\000"
1, 0, Text_t, "XFln:JP:\203s\203A\203m\203\\\203i\203^\221æ27\224Ô\203z\222Z\222²\215ì\225i90\201`\221æ2\212y\217Í:L.v.\203x\201[\203g\201[\203\224\203F\203\223:::\227é\202¿\202á\202ñ:\227é\202¿\202á\202ñ\000"
1, 0, Time_signature, 1, 2, 96, 8
1, 0, Sequencer_specific, 3, 0, 0, 65
1, 0, Sequencer_specific, 5, 0, 0, 119, 14, 0
1, 0, Tempo, 857142
1, 384, Time_signature, 2, 2, 96, 8
1, 384, Tempo, 800000
1, 576, Tempo, 750000
1, 18432, Tempo, 800000
1, 18624, Tempo, 857142
1, 18816, Tempo, 800000
1, 19008, Tempo, 750000
1, 24192, Tempo, 800000
1, 24768, Tempo, 769230
1, 25152, Tempo, 722891
1, 29760, Tempo, 769230
1, 29952, Tempo, 821917
1, 30144, Tempo, 923076
1, 30336, Tempo, 857142
1, 30528, Tempo, 800000
1, 30720, Tempo, 750000
1, 36096, Tempo, 789473
1, 36288, Tempo, 821917
1, 36672, Tempo, 789473
1, 36864, Tempo, 750000
1, 42240, Tempo, 800000
1, 42432, Tempo, 857142
1, 42816, Tempo, 800000
1, 43008, Tempo, 750000
1, 44928, Tempo, 800000
1, 45312, Tempo, 857142
1, 45696, Tempo, 750000
1, 52224, Tempo, 800000
1, 52416, Tempo, 857142
1, 53568, Tempo, 800000
1, 53760, Tempo, 750000
1, 71424, Tempo, 800000
1, 71616, Tempo, 857142
1, 72000, Tempo, 800000
1, 72192, Tempo, 750000
1, 82752, Tempo, 779220
1, 82944, Tempo, 882352
1, 83328, Tempo, 800000
1, 84288, Tempo, 779220
1, 86400, Tempo, 800000
1, 86784, Tempo, 821917
1, 86976, Tempo, 882352
1, 87168, Tempo, 833333
1, 87360, Tempo, 789473
1, 96576, Tempo, 750000
1, 102144, Tempo, 789473
1, 102336, Tempo, 833333
1, 102528, Tempo, 750000
1, 103680, Tempo, 789473
1, 106752, Tempo, 821917
1, 106944, Tempo, 857142
1, 107136, Tempo, 800000
1, 107328, Tempo, 750000
1, 125184, Tempo, 800000
1, 125376, Tempo, 857142
1, 125760, Tempo, 800000
1, 125952, Tempo, 750000
1, 142848, Tempo, 789473
1, 143808, Tempo, 857142
1, 144192, Tempo, 800000
1, 144384, Tempo, 750000
1, 149376, Tempo, 779220
1, 149760, Tempo, 810810
1, 149952, Tempo, 857142
1, 150336, Tempo, 789473
1, 152640, Tempo, 821917
1, 152832, Tempo, 857142
1, 153024, Tempo, 937500
1, 153216, Tempo, 857142
1, 153408, Tempo, 789473
1, 161088, Tempo, 810810
1, 161280, Tempo, 857142
1, 161472, Tempo, 952380
1, 161664, Tempo, 857142
1, 161856, Tempo, 789473
1, 175488, Tempo, 800000
1, 175872, Tempo, 857142
1, 176064, Tempo, 1000000
1, 176256, Tempo, 750000
1, 200448, Tempo, 789473
1, 200640, Tempo, 857142
1, 201024, Tempo, 800000
1, 201216, Tempo, 750000
1, 202368, Tempo, 800000
1, 202752, Tempo, 857142
1, 203136, Tempo, 800000
1, 209088, Tempo, 833333
1, 209280, Tempo, 810810
1, 209472, Tempo, 779220
1, 209856, Tempo, 833333
1, 210048, Tempo, 789473
1, 210816, Tempo, 789473
1, 211200, Tempo, 769230
1, 211584, Tempo, 750000
1, 216192, Tempo, 800000
1, 216960, Tempo, 857142
1, 217728, Tempo, 923076
1, 218496, Tempo, 952380
1, 219264, Tempo, 857142
1, 220032, Tempo, 821917
1, 220800, Tempo, 789473
1, 221568, Tempo, 769230
1, 221760, Tempo, 800000
1, 221952, Tempo, 821917
1, 222144, Tempo, 937500
1, 222240, Tempo, 1333333
1, 222336, Tempo, 2000000
1, 222528, Tempo, 2400000
1, 223008, Tempo, 3000000
1, 223008, End_track
2, 0, Start_track
2, 0, Title_t, "Right"
2, 0, Control_c, 0, 0, 0
2, 0, Program_c, 0, 0
2, 0, Control_c, 0, 7, 100
2, 0, Control_c, 0, 10, 74
2, 0, Control_c, 0, 91, 127
2, 0, Key_signature, 4, "minor"
2, 192, Note_on_c, 0, 64, 80
2, 284, Note_off_c, 0, 64, 100
2, 288, Note_on_c, 0, 66, 80
2, 380, Note_off_c, 0, 66, 100
2, 384, Note_on_c, 0, 68, 80
2, 384, Note_on_c, 0, 64, 80
2, 476, Note_off_c, 0, 64, 100
2, 480, Note_on_c, 0, 59, 80
2, 572, Note_off_c, 0, 59, 100
2, 576, Note_on_c, 0, 64, 80
2, 668, Note_off_c, 0, 64, 100
2, 672, Note_on_c, 0, 59, 80
2, 764, Note_off_c, 0, 68, 100
2, 764, Note_off_c, 0, 59, 100
2, 768, Note_on_c, 0, 71, 80
2, 768, Note_on_c, 0, 68, 80
2, 860, Note_off_c, 0, 68, 100
2, 864, Note_on_c, 0, 59, 80
2, 956, Note_off_c, 0, 71, 100
2, 956, Note_off_c, 0, 59, 100
2, 960, Note_on_c, 0, 69, 80
2, 960, Note_on_c, 0, 66, 80
2, 1052, Note_off_c, 0, 66, 100
2, 1056, Note_on_c, 0, 59, 80
2, 1148, Note_off_c, 0, 69, 100
2, 1148, Note_off_c, 0, 59, 100
2, 1152, Note_on_c, 0, 68, 80
2, 1152, Note_on_c, 0, 64, 80
2, 1244, Note_off_c, 0, 64, 100
2, 1248, Note_on_c, 0, 59, 80
2, 1340, Note_off_c, 0, 68, 100
2, 1340, Note_off_c, 0, 59, 100
2, 1344, Note_on_c, 0, 66, 80
2, 1344, Note_on_c, 0, 63, 80
2, 1436, Note_off_c, 0, 63, 100
2, 1440, Note_on_c, 0, 59, 80
2, 1532, Note_off_c, 0, 66, 100
2, 1532, Note_off_c, 0, 59, 100
2, 1536, Note_on_c, 0, 66, 80
2, 1536, Note_on_c, 0, 63, 80
2, 1628, Note_off_c, 0, 63, 100
2, 1632, Note_on_c, 0, 59, 80
2, 1724, Note_off_c, 0, 66, 100
2, 1724, Note_off_c, 0, 59, 100
2, 1728, Note_on_c, 0, 68, 80
2, 1728, Note_on_c, 0, 64, 80
2, 1820, Note_off_c, 0, 64, 100
2, 1824, Note_on_c, 0, 59, 80
2, 1916, Note_off_c, 0, 68, 100
2, 1916, Note_off_c, 0, 59, 100
2, 1920, Note_on_c, 0, 69, 80
2, 1920, Note_on_c, 0, 64, 80
2, 2012, Note_off_c, 0, 64, 100
2, 2016, Note_on_c, 0, 59, 80
2, 2108, Note_off_c, 0, 69, 100
2, 2108, Note_off_c, 0, 59, 100
2, 2112, Note_on_c, 0, 73, 80
2, 2112, Note_on_c, 0, 64, 80
2, 2204, Note_off_c, 0, 64, 100
2, 2208, Note_on_c, 0, 59, 80
2, 2300, Note_off_c, 0, 73, 100
2, 2300, Note_off_c, 0, 59, 100
2, 2304, Note_on_c, 0, 71, 80
2, 2304, Note_on_c, 0, 66, 80
2, 2396, Note_off_c, 0, 66, 100
2, 2400, Note_on_c, 0, 59, 80
2, 2492, Note_off_c, 0, 71, 100
2, 2492, Note_off_c, 0, 59, 100
2, 2496, Note_on_c, 0, 66, 80
2, 2496, Note_on_c, 0, 63, 80
2, 2588, Note_off_c, 0, 63, 100
2, 2592, Note_on_c, 0, 59, 80
2, 2684, Note_off_c, 0, 66, 100
2, 2684, Note_off_c, 0, 59, 100
2, 2688, Note_on_c, 0, 68, 80
2, 2688, Note_on_c, 0, 64, 80
2, 2688, Note_on_c, 0, 59, 80
2, 3068, Note_off_c, 0, 68, 100
2, 3068, Note_off_c, 0, 64, 100
2, 3068, Note_off_c, 0, 59, 100
2, 3264, Note_on_c, 0, 76, 80
2, 3356, Note_off_c, 0, 76, 100
2, 3360, Note_on_c, 0, 78, 80
2, 3452, Note_off_c, 0, 78, 100
2, 3456, Note_on_c, 0, 80, 80
2, 3456, Note_on_c, 0, 68, 80
2, 3836, Note_off_c, 0, 80, 100
2, 3836, Note_off_c, 0, 68, 100
2, 3840, Note_on_c, 0, 83, 80
2, 3840, Note_on_c, 0, 71, 80
2, 4028, Note_off_c, 0, 83, 100
2, 4028, Note_off_c, 0, 71, 100
2, 4032, Note_on_c, 0, 81, 80
2, 4032, Note_on_c, 0, 69, 80
2, 4220, Note_off_c, 0, 81, 100
2, 4220, Note_off_c, 0, 69, 100
2, 4224, Note_on_c, 0, 80, 80
2, 4224, Note_on_c, 0, 68, 80
2, 4412, Note_off_c, 0, 80, 100
2, 4412, Note_off_c, 0, 68, 100
2, 4416, Note_on_c, 0, 78, 80
2, 4416, Note_on_c, 0, 66, 80
2, 4604, Note_off_c, 0, 78, 100
2, 4604, Note_off_c, 0, 66, 100
2, 4608, Note_on_c, 0, 78, 80
2, 4608, Note_on_c, 0, 66, 80
2, 4796, Note_off_c, 0, 78, 100
2, 4796, Note_off_c, 0, 66, 100
2, 4800, Note_on_c, 0, 80, 80
2, 4800, Note_on_c, 0, 68, 80
2, 4988, Note_off_c, 0, 80, 100
2, 4988, Note_off_c, 0, 68, 100
2, 4992, Note_on_c, 0, 81, 80
2, 4992, Note_on_c, 0, 69, 80
2, 5180, Note_off_c, 0, 81, 100
2, 5180, Note_off_c, 0, 69, 100
2, 5184, Note_on_c, 0, 85, 80
2, 5184, Note_on_c, 0, 73, 80
2, 5372, Note_off_c, 0, 85, 100
2, 5372, Note_off_c, 0, 73, 100
2, 5376, Note_on_c, 0, 83, 80
2, 5376, Note_on_c, 0, 71, 80
2, 5564, Note_off_c, 0, 83, 100
2, 5564, Note_off_c, 0, 71, 100
2, 5568, Note_on_c, 0, 87, 80
2, 5568, Note_on_c, 0, 75, 80
2, 5756, Note_off_c, 0, 87, 100
2, 5756, Note_off_c, 0, 75, 100
2, 5760, Note_on_c, 0, 88, 80
2, 5760, Note_on_c, 0, 76, 80
2, 6140, Note_off_c, 0, 88, 100
2, 6140, Note_off_c, 0, 76, 100
2, 6336, Note_on_c, 0, 71, 80
2, 6524, Note_off_c, 0, 71, 100
2, 6528, Note_on_c, 0, 70, 80
2, 6908, Note_off_c, 0, 70, 100
2, 6912, Note_on_c, 0, 76, 80
2, 7292, Note_off_c, 0, 76, 100
2, 7296, Note_on_c, 0, 75, 80
2, 7868, Note_off_c, 0, 75, 100
2, 7872, Note_on_c, 0, 69, 80
2, 8060, Note_off_c, 0, 69, 100
2, 8064, Note_on_c, 0, 68, 80
2, 8444, Note_off_c, 0, 68, 100
2, 8448, Note_on_c, 0, 74, 80
2, 8828, Note_off_c, 0, 74, 100
2, 8832, Note_on_c, 0, 73, 80
2, 9404, Note_off_c, 0, 73, 100
2, 9408, Note_on_c, 0, 73, 80
2, 9596, Note_off_c, 0, 73, 100
2, 9600, Note_on_c, 0, 72, 82
2, 9788, Note_off_c, 0, 72, 100
2, 9792, Note_on_c, 0, 73, 84
2, 9980, Note_off_c, 0, 73, 100
2, 9984, Note_on_c, 0, 69, 87
2, 9984, Note_on_c, 0, 64, 87
2, 9984, Note_on_c, 0, 61, 87
2, 10172, Note_off_c, 0, 69, 100
2, 10172, Note_off_c, 0, 64, 100
2, 10172, Note_off_c, 0, 61, 100
2, 10176, Note_on_c, 0, 68, 89
2, 10176, Note_on_c, 0, 64, 89
2, 10176, Note_on_c, 0, 59, 89
2, 10364, Note_off_c, 0, 68, 100
2, 10364, Note_off_c, 0, 64, 100
2, 10364, Note_off_c, 0, 59, 100
2, 10368, Note_on_c, 0, 68, 91
2, 10368, Note_on_c, 0, 58, 91
2, 10368, Note_on_c, 0, 64, 91
2, 10556, Note_off_c, 0, 68, 100
2, 10560, Note_on_c, 0, 66, 94
2, 10748, Note_off_c, 0, 58, 100
2, 10748, Note_off_c, 0, 64, 100
2, 10752, Note_on_c, 0, 64, 96
2, 10752, Note_on_c, 0, 57, 96
2, 10940, Note_off_c, 0, 66, 100
2, 10944, Note_on_c, 0, 66, 98
2, 11132, Note_off_c, 0, 64, 100
2, 11132, Note_off_c, 0, 57, 100
2, 11132, Note_off_c, 0, 66, 100
2, 11136, Note_on_c, 0, 66, 80
2, 11136, Note_on_c, 0, 63, 80
2, 11136, Note_on_c, 0, 57, 80
2, 11324, Note_off_c, 0, 66, 100
2, 11324, Note_off_c, 0, 63, 100
2, 11324, Note_off_c, 0, 57, 100
2, 11328, Note_on_c, 0, 71, 80
2, 11328, Note_on_c, 0, 63, 80
2, 11516, Note_off_c, 0, 71, 100
2, 11516, Note_off_c, 0, 63, 100
2, 11520, Note_on_c, 0, 70, 80
2, 11708, Note_off_c, 0, 70, 100
2, 11712, Note_on_c, 0, 71, 80
2, 11712, Note_on_c, 0, 63, 80
2, 11900, Note_off_c, 0, 71, 100
2, 11900, Note_off_c, 0, 63, 100
2, 11904, Note_on_c, 0, 64, 80
2, 12284, Note_off_c, 0, 64, 100
2, 12480, Note_on_c, 0, 83, 80
2, 12480, Note_on_c, 0, 71, 80
2, 12668, Note_off_c, 0, 83, 100
2, 12668, Note_off_c, 0, 71, 100
2, 12672, Note_on_c, 0, 70, 80
2, 12672, Note_on_c, 0, 82, 80
2, 13052, Note_off_c, 0, 70, 100
2, 13052, Note_off_c, 0, 82, 100
2, 13056, Note_on_c, 0, 76, 80
2, 13056, Note_on_c, 0, 88, 80
2, 13436, Note_off_c, 0, 76, 100
2, 13436, Note_off_c, 0, 88, 100
2, 13440, Note_on_c, 0, 87, 80
2, 13440, Note_on_c, 0, 75, 80
2, 14012, Note_off_c, 0, 87, 100
2, 14012, Note_off_c, 0, 75, 100
2, 14016, Note_on_c, 0, 81, 80
2, 14016, Note_on_c, 0, 69, 80
2, 14204, Note_off_c, 0, 81, 100
2, 14204, Note_off_c, 0, 69, 100
2, 14208, Note_on_c, 0, 80, 80
2, 14208, Note_on_c, 0, 68, 80
2, 14588, Note_off_c, 0, 80, 100
2, 14588, Note_off_c, 0, 68, 100
2, 14592, Note_on_c, 0, 86, 80
2, 14592, Note_on_c, 0, 74, 80
2, 14972, Note_off_c, 0, 86, 100
2, 14972, Note_off_c, 0, 74, 100
2, 14976, Note_on_c, 0, 73, 80
2, 14976, Note_on_c, 0, 85, 80
2, 15548, Note_off_c, 0, 73, 100
2, 15548, Note_off_c, 0, 85, 100
2, 15552, Note_on_c, 0, 85, 80
2, 15552, Note_on_c, 0, 73, 80
2, 15740, Note_off_c, 0, 85, 100
2, 15740, Note_off_c, 0, 73, 100
2, 15744, Note_on_c, 0, 72, 82
2, 15744, Note_on_c, 0, 84, 82
2, 15932, Note_off_c, 0, 72, 100
2, 15932, Note_off_c, 0, 84, 100
2, 15936, Note_on_c, 0, 85, 84
2, 15936, Note_on_c, 0, 73, 84
2, 16124, Note_off_c, 0, 85, 100
2, 16124, Note_off_c, 0, 73, 100
2, 16128, Note_on_c, 0, 81, 87
2, 16128, Note_on_c, 0, 69, 87
2, 16316, Note_off_c, 0, 81, 100
2, 16316, Note_off_c, 0, 69, 100
2, 16320, Note_on_c, 0, 80, 89
2, 16320, Note_on_c, 0, 68, 89
2, 16508, Note_off_c, 0, 80, 100
2, 16508, Note_off_c, 0, 68, 100
2, 16512, Note_on_c, 0, 80, 91
2, 16512, Note_on_c, 0, 68, 91
2, 16700, Note_off_c, 0, 80, 100
2, 16700, Note_off_c, 0, 68, 100
2, 16704, Note_on_c, 0, 78, 94
2, 16704, Note_on_c, 0, 66, 94
2, 17084, Note_off_c, 0, 78, 100
2, 17084, Note_off_c, 0, 66, 100
2, 17088, Note_on_c, 0, 78, 98
2, 17088, Note_on_c, 0, 66, 98
2, 17276, Note_off_c, 0, 78, 100
2, 17276, Note_off_c, 0, 66, 100
2, 17280, Note_on_c, 0, 78, 80
2, 17280, Note_on_c, 0, 66, 80
2, 17468, Note_off_c, 0, 78, 100
2, 17468, Note_off_c, 0, 66, 100
2, 17472, Note_on_c, 0, 83, 80
2, 17472, Note_on_c, 0, 71, 80
2, 17660, Note_off_c, 0, 83, 100
2, 17660, Note_off_c, 0, 71, 100
2, 17664, Note_on_c, 0, 82, 80
2, 17664, Note_on_c, 0, 70, 80
2, 17852, Note_off_c, 0, 82, 100
2, 17852, Note_off_c, 0, 70, 100
2, 17856, Note_on_c, 0, 83, 80
2, 17856, Note_on_c, 0, 71, 80
2, 18044, Note_off_c, 0, 83, 100
2, 18044, Note_off_c, 0, 71, 100
2, 18048, Note_on_c, 0, 76, 80
2, 18048, Note_on_c, 0, 64, 80
2, 18428, Note_off_c, 0, 76, 100
2, 18428, Note_off_c, 0, 64, 100
2, 18624, Note_on_c, 0, 64, 80
2, 18716, Note_off_c, 0, 64, 100
2, 18720, Note_on_c, 0, 66, 80
2, 18812, Note_off_c, 0, 66, 100
2, 18816, Note_on_c, 0, 68, 80
2, 18816, Note_on_c, 0, 64, 80
2, 18908, Note_off_c, 0, 64, 100
2, 18912, Note_on_c, 0, 59, 80
2, 19004, Note_off_c, 0, 59, 100
2, 19008, Note_on_c, 0, 64, 80
2, 19100, Note_off_c, 0, 64, 100
2, 19104, Note_on_c, 0, 59, 80
2, 19196, Note_off_c, 0, 68, 100
2, 19196, Note_off_c, 0, 59, 100
2, 19200, Note_on_c, 0, 71, 80
2, 19200, Note_on_c, 0, 68, 80
2, 19292, Note_off_c, 0, 68, 100
2, 19296, Note_on_c, 0, 59, 80
2, 19388, Note_off_c, 0, 71, 100
2, 19388, Note_off_c, 0, 59, 100
2, 19392, Note_on_c, 0, 69, 80
2, 19392, Note_on_c, 0, 66, 80
2, 19484, Note_off_c, 0, 66, 100
2, 19488, Note_on_c, 0, 59, 80
2, 19580, Note_off_c, 0, 69, 100
2, 19580, Note_off_c, 0, 59, 100
2, 19584, Note_on_c, 0, 68, 80
2, 19584, Note_on_c, 0, 64, 80
2, 19676, Note_off_c, 0, 64, 100
2, 19680, Note_on_c, 0, 59, 80
2, 19772, Note_off_c, 0, 68, 100
2, 19772, Note_off_c, 0, 59, 100
2, 19776, Note_on_c, 0, 66, 80
2, 19776, Note_on_c, 0, 63, 80
2, 19868, Note_off_c, 0, 63, 100
2, 19872, Note_on_c, 0, 59, 80
2, 19964, Note_off_c, 0, 66, 100
2, 19964, Note_off_c, 0, 59, 100
2, 19968, Note_on_c, 0, 66, 80
2, 19968, Note_on_c, 0, 63, 80
2, 20060, Note_off_c, 0, 63, 100
2, 20064, Note_on_c, 0, 59, 80
2, 20156, Note_off_c, 0, 66, 100
2, 20156, Note_off_c, 0, 59, 100
2, 20160, Note_on_c, 0, 68, 80
2, 20160, Note_on_c, 0, 64, 80
2, 20252, Note_off_c, 0, 64, 100
2, 20256, Note_on_c, 0, 59, 80
2, 20348, Note_off_c, 0, 68, 100
2, 20348, Note_off_c, 0, 59, 100
2, 20352, Note_on_c, 0, 69, 80
2, 20352, Note_on_c, 0, 64, 80
2, 20444, Note_off_c, 0, 64, 100
2, 20448, Note_on_c, 0, 59, 80
2, 20540, Note_off_c, 0, 69, 100
2, 20540, Note_off_c, 0, 59, 100
2, 20544, Note_on_c, 0, 73, 80
2, 20544, Note_on_c, 0, 64, 80
2, 20636, Note_off_c, 0, 64, 100
2, 20640, Note_on_c, 0, 59, 80
2, 20732, Note_off_c, 0, 73, 100
2, 20732, Note_off_c, 0, 59, 100
2, 20736, Note_on_c, 0, 71, 80
2, 20736, Note_on_c, 0, 66, 80
2, 20828, Note_off_c, 0, 66, 100
2, 20832, Note_on_c, 0, 59, 80
2, 20924, Note_off_c, 0, 71, 100
2, 20924, Note_off_c, 0, 59, 100
2, 20928, Note_on_c, 0, 66, 80
2, 20928, Note_on_c, 0, 63, 80
2, 21020, Note_off_c, 0, 63, 100
2, 21024, Note_on_c, 0, 59, 80
2, 21116, Note_off_c, 0, 66, 100
2, 21116, Note_off_c, 0, 59, 100
2, 21120, Note_on_c, 0, 68, 80
2, 21120, Note_on_c, 0, 64, 80
2, 21120, Note_on_c, 0, 59, 80
2, 21500, Note_off_c, 0, 68, 100
2, 21500, Note_off_c, 0, 64, 100
2, 21500, Note_off_c, 0, 59, 100
2, 21504, Note_on_c, 0, 78, 80
2, 21532, Note_off_c, 0, 78, 100
2, 21536, Note_on_c, 0, 76, 80
2, 21596, Note_off_c, 0, 76, 100
2, 21600, Note_on_c, 0, 75, 81
2, 21692, Note_off_c, 0, 75, 100
2, 21696, Note_on_c, 0, 76, 82
2, 21788, Note_off_c, 0, 76, 100
2, 21792, Note_on_c, 0, 78, 83
2, 21884, Note_off_c, 0, 78, 100
2, 21888, Note_on_c, 0, 81, 84
2, 21916, Note_off_c, 0, 81, 100
2, 21920, Note_on_c, 0, 80, 85
2, 21980, Note_off_c, 0, 80, 100
2, 21984, Note_on_c, 0, 78, 85
2, 22076, Note_off_c, 0, 78, 100
2, 22080, Note_on_c, 0, 80, 87
2, 22172, Note_off_c, 0, 80, 100
2, 22176, Note_on_c, 0, 81, 88
2, 22268, Note_off_c, 0, 81, 100
2, 22272, Note_on_c, 0, 83, 89
2, 22272, Note_on_c, 0, 71, 89
2, 22460, Note_off_c, 0, 83, 100
2, 22460, Note_off_c, 0, 71, 100
2, 22464, Note_on_c, 0, 81, 91
2, 22464, Note_on_c, 0, 69, 91
2, 22652, Note_off_c, 0, 81, 100
2, 22652, Note_off_c, 0, 69, 100
2, 22656, Note_on_c, 0, 68, 94
2, 22656, Note_on_c, 0, 80, 94
2, 22844, Note_off_c, 0, 68, 100
2, 22844, Note_off_c, 0, 80, 100
2, 22848, Note_on_c, 0, 78, 96
2, 22848, Note_on_c, 0, 66, 96
2, 23036, Note_off_c, 0, 78, 100
2, 23036, Note_off_c, 0, 66, 100
2, 23040, Note_on_c, 0, 78, 99
2, 23040, Note_on_c, 0, 66, 99
2, 23228, Note_off_c, 0, 78, 100
2, 23228, Note_off_c, 0, 66, 100
2, 23232, Note_on_c, 0, 80, 101
2, 23232, Note_on_c, 0, 68, 101
2, 23420, Note_off_c, 0, 80, 100
2, 23420, Note_off_c, 0, 68, 100
2, 23424, Note_on_c, 0, 81, 103
2, 23424, Note_on_c, 0, 69, 103
2, 23612, Note_off_c, 0, 81, 100
2, 23612, Note_off_c, 0, 69, 100
2, 23616, Note_on_c, 0, 85, 106
2, 23616, Note_on_c, 0, 73, 106
2, 23804, Note_off_c, 0, 85, 100
2, 23804, Note_off_c, 0, 73, 100
2, 23808, Note_on_c, 0, 83, 108
2, 23808, Note_on_c, 0, 71, 108
2, 23996, Note_off_c, 0, 83, 100
2, 23996, Note_off_c, 0, 71, 100
2, 24000, Note_on_c, 0, 87, 110
2, 24000, Note_on_c, 0, 81, 110
2, 24000, Note_on_c, 0, 75, 110
2, 24188, Note_off_c, 0, 87, 100
2, 24188, Note_off_c, 0, 81, 100
2, 24188, Note_off_c, 0, 75, 100
2, 24192, Note_on_c, 0, 88, 110
2, 24192, Note_on_c, 0, 80, 110
2, 24192, Note_on_c, 0, 76, 110
2, 24572, Note_off_c, 0, 88, 100
2, 24572, Note_off_c, 0, 80, 100
2, 24572, Note_off_c, 0, 76, 100
2, 24768, Note_on_c, 0, 68, 110
2, 24768, Note_on_c, 0, 64, 110
2, 24956, Note_off_c, 0, 68, 100
2, 24956, Note_off_c, 0, 64, 100
2, 24960, Note_on_c, 0, 68, 110
2, 24960, Note_on_c, 0, 64, 110
2, 25532, Note_off_c, 0, 68, 100
2, 25532, Note_off_c, 0, 64, 100
2, 25536, Note_on_c, 0, 76, 80
2, 25536, Note_on_c, 0, 68, 80
2, 25536, Note_on_c, 0, 64, 80
2, 25724, Note_off_c, 0, 76, 100
2, 25724, Note_off_c, 0, 68, 100
2, 25724, Note_off_c, 0, 64, 100
2, 25728, Note_on_c, 0, 75, 80
2, 25728, Note_on_c, 0, 68, 80
2, 25728, Note_on_c, 0, 66, 80
2, 25728, Note_on_c, 0, 63, 80
2, 26300, Note_off_c, 0, 75, 100
2, 26300, Note_off_c, 0, 68, 100
2, 26300, Note_off_c, 0, 66, 100
2, 26300, Note_off_c, 0, 63, 100
2, 26304, Note_on_c, 0, 68, 110
2, 26304, Note_on_c, 0, 66, 110
2, 26304, Note_on_c, 0, 63, 110
2, 26492, Note_off_c, 0, 68, 100
2, 26492, Note_off_c, 0, 66, 100
2, 26492, Note_off_c, 0, 63, 100
2, 26496, Note_on_c, 0, 68, 110
2, 26496, Note_on_c, 0, 66, 110
2, 26496, Note_on_c, 0, 63, 110
2, 27068, Note_off_c, 0, 68, 100
2, 27068, Note_off_c, 0, 66, 100
2, 27068, Note_off_c, 0, 63, 100
2, 27072, Note_on_c, 0, 75, 80
2, 27072, Note_on_c, 0, 68, 80
2, 27072, Note_on_c, 0, 66, 80
2, 27072, Note_on_c, 0, 63, 80
2, 27260, Note_off_c, 0, 75, 100
2, 27260, Note_off_c, 0, 68, 100
2, 27260, Note_off_c, 0, 66, 100
2, 27260, Note_off_c, 0, 63, 100
2, 27264, Note_on_c, 0, 76, 80
2, 27264, Note_on_c, 0, 68, 80
2, 27264, Note_on_c, 0, 64, 80
2, 27836, Note_off_c, 0, 76, 100
2, 27836, Note_off_c, 0, 68, 100
2, 27836, Note_off_c, 0, 64, 100
2, 27840, Note_on_c, 0, 68, 110
2, 27840, Note_on_c, 0, 64, 110
2, 28028, Note_off_c, 0, 68, 100
2, 28028, Note_off_c, 0, 64, 100
2, 28032, Note_on_c, 0, 68, 110
2, 28032, Note_on_c, 0, 64, 110
2, 28604, Note_off_c, 0, 68, 100
2, 28604, Note_off_c, 0, 64, 100
2, 28608, Note_on_c, 0, 76, 80
2, 28608, Note_on_c, 0, 68, 80
2, 28608, Note_on_c, 0, 64, 80
2, 28796, Note_off_c, 0, 76, 100
2, 28796, Note_off_c, 0, 68, 100
2, 28796, Note_off_c, 0, 64, 100
2, 28800, Note_on_c, 0, 76, 80
2, 28800, Note_on_c, 0, 66, 80
2, 28800, Note_on_c, 0, 64, 80
2, 29372, Note_off_c, 0, 76, 100
2, 29372, Note_off_c, 0, 66, 100
2, 29372, Note_off_c, 0, 64, 100
2, 29376, Note_on_c, 0, 64, 110
2, 29376, Note_on_c, 0, 61, 110
2, 29564, Note_off_c, 0, 64, 100
2, 29564, Note_off_c, 0, 61, 100
2, 29568, Note_on_c, 0, 59, 110
2, 29568, Note_on_c, 0, 64, 110
2, 30140, Note_off_c, 0, 59, 100
2, 30140, Note_off_c, 0, 64, 100
2, 30144, Note_on_c, 0, 76, 110
2, 30144, Note_on_c, 0, 71, 110
2, 30144, Note_on_c, 0, 64, 110
2, 30332, Note_off_c, 0, 76, 100
2, 30332, Note_off_c, 0, 71, 100
2, 30332, Note_off_c, 0, 64, 100
2, 30336, Note_on_c, 0, 76, 110
2, 30336, Note_on_c, 0, 73, 110
2, 30336, Note_on_c, 0, 70, 110
2, 30336, Note_on_c, 0, 64, 110
2, 30524, Note_off_c, 0, 76, 100
2, 30524, Note_off_c, 0, 73, 100
2, 30524, Note_off_c, 0, 70, 100
2, 30524, Note_off_c, 0, 64, 100
2, 31104, Note_on_c, 0, 76, 80
2, 31104, Note_on_c, 0, 85, 80
2, 31676, Note_off_c, 0, 76, 100
2, 31676, Note_off_c, 0, 85, 100
2, 31680, Note_on_c, 0, 83, 80
2, 31680, Note_on_c, 0, 75, 80
2, 31868, Note_off_c, 0, 83, 100
2, 31868, Note_off_c, 0, 75, 100
2, 31872, Note_on_c, 0, 83, 80
2, 31872, Note_on_c, 0, 75, 80
2, 32060, Note_off_c, 0, 83, 100
2, 32060, Note_off_c, 0, 75, 100
2, 32064, Note_on_c, 0, 82, 80
2, 32064, Note_on_c, 0, 73, 80
2, 32252, Note_off_c, 0, 82, 100
2, 32252, Note_off_c, 0, 73, 100
2, 32256, Note_on_c, 0, 82, 80
2, 32256, Note_on_c, 0, 73, 80
2, 32444, Note_off_c, 0, 82, 100
2, 32444, Note_off_c, 0, 73, 100
2, 32448, Note_on_c, 0, 83, 80
2, 32448, Note_on_c, 0, 75, 80
2, 32636, Note_off_c, 0, 83, 100
2, 32636, Note_off_c, 0, 75, 100
2, 32640, Note_on_c, 0, 85, 80
2, 32640, Note_on_c, 0, 76, 80
2, 33212, Note_off_c, 0, 85, 100
2, 33212, Note_off_c, 0, 76, 100
2, 33216, Note_on_c, 0, 83, 80
2, 33216, Note_on_c, 0, 75, 80
2, 33404, Note_off_c, 0, 83, 100
2, 33404, Note_off_c, 0, 75, 100
2, 33408, Note_on_c, 0, 82, 80
2, 33408, Note_on_c, 0, 73, 80
2, 33596, Note_off_c, 0, 82, 100
2, 33596, Note_off_c, 0, 73, 100
2, 33600, Note_on_c, 0, 76, 80
2, 33600, Note_on_c, 0, 85, 80
2, 33788, Note_off_c, 0, 76, 100
2, 33788, Note_off_c, 0, 85, 100
2, 33792, Note_on_c, 0, 75, 80
2, 33792, Note_on_c, 0, 83, 80
2, 33980, Note_off_c, 0, 75, 100
2, 33980, Note_off_c, 0, 83, 100
2, 33984, Note_on_c, 0, 73, 80
2, 33984, Note_on_c, 0, 82, 80
2, 34172, Note_off_c, 0, 73, 100
2, 34172, Note_off_c, 0, 82, 100
2, 34176, Note_on_c, 0, 83, 80
2, 34176, Note_on_c, 0, 78, 80
2, 34364, Note_off_c, 0, 83, 100
2, 34364, Note_off_c, 0, 78, 100
2, 34368, Note_on_c, 0, 82, 80
2, 34556, Note_off_c, 0, 82, 100
2, 34560, Note_on_c, 0, 80, 80
2, 34748, Note_off_c, 0, 80, 100
2, 34752, Note_on_c, 0, 78, 80
2, 34940, Note_off_c, 0, 78, 100
2, 34944, Note_on_c, 0, 80, 80
2, 35132, Note_off_c, 0, 80, 100
2, 35136, Note_on_c, 0, 78, 80
2, 35324, Note_off_c, 0, 78, 100
2, 35328, Note_on_c, 0, 76, 80
2, 35516, Note_off_c, 0, 76, 100
2, 35520, Note_on_c, 0, 75, 80
2, 35708, Note_off_c, 0, 75, 100
2, 35712, Note_on_c, 0, 75, 80
2, 36284, Note_off_c, 0, 75, 100
2, 36288, Note_on_c, 0, 76, 80
2, 36380, Note_off_c, 0, 76, 100
2, 36384, Note_on_c, 0, 78, 80
2, 36476, Note_off_c, 0, 78, 100
2, 36480, Note_on_c, 0, 73, 80
2, 36668, Note_off_c, 0, 73, 100
2, 36672, Note_on_c, 0, 78, 80
2, 36764, Note_off_c, 0, 78, 100
2, 36768, Note_on_c, 0, 80, 80
2, 36860, Note_off_c, 0, 80, 100
2, 36864, Note_on_c, 0, 78, 80
2, 36956, Note_off_c, 0, 78, 100
2, 36960, Note_on_c, 0, 80, 80
2, 37052, Note_off_c, 0, 80, 100
2, 37056, Note_on_c, 0, 78, 80
2, 37148, Note_off_c, 0, 78, 100
2, 37152, Note_on_c, 0, 80, 80
2, 37244, Note_off_c, 0, 80, 100
2, 37248, Note_on_c, 0, 78, 80
2, 37248, Note_on_c, 0, 85, 80
2, 37248, Note_on_c, 0, 88, 80
2, 37340, Note_off_c, 0, 78, 100
2, 37344, Note_on_c, 0, 80, 80
2, 37436, Note_off_c, 0, 80, 100
2, 37440, Note_on_c, 0, 78, 80
2, 37532, Note_off_c, 0, 78, 100
2, 37536, Note_on_c, 0, 80, 80
2, 37628, Note_off_c, 0, 80, 100
2, 37632, Note_on_c, 0, 78, 80
2, 37724, Note_off_c, 0, 78, 100
2, 37728, Note_on_c, 0, 80, 80
2, 37820, Note_off_c, 0, 85, 100
2, 37820, Note_off_c, 0, 88, 100
2, 37820, Note_off_c, 0, 80, 100
2, 37824, Note_on_c, 0, 78, 80
2, 37824, Note_on_c, 0, 87, 80
2, 37824, Note_on_c, 0, 83, 80
2, 37916, Note_off_c, 0, 78, 100
2, 37920, Note_on_c, 0, 80, 80
2, 38012, Note_off_c, 0, 87, 100
2, 38012, Note_off_c, 0, 83, 100
2, 38012, Note_off_c, 0, 80, 100
2, 38016, Note_on_c, 0, 78, 80
2, 38016, Note_on_c, 0, 87, 80
2, 38016, Note_on_c, 0, 83, 80
2, 38108, Note_off_c, 0, 78, 100
2, 38112, Note_on_c, 0, 80, 80
2, 38204, Note_off_c, 0, 87, 100
2, 38204, Note_off_c, 0, 83, 100
2, 38204, Note_off_c, 0, 80, 100
2, 38208, Note_on_c, 0, 78, 80
2, 38208, Note_on_c, 0, 85, 80
2, 38208, Note_on_c, 0, 82, 80
2, 38300, Note_off_c, 0, 78, 100
2, 38304, Note_on_c, 0, 80, 80
2, 38396, Note_off_c, 0, 85, 100
2, 38396, Note_off_c, 0, 82, 100
2, 38396, Note_off_c, 0, 80, 100
2, 38400, Note_on_c, 0, 78, 80
2, 38400, Note_on_c, 0, 85, 80
2, 38400, Note_on_c, 0, 82, 80
2, 38492, Note_off_c, 0, 78, 100
2, 38496, Note_on_c, 0, 80, 80
2, 38588, Note_off_c, 0, 85, 100
2, 38588, Note_off_c, 0, 82, 100
2, 38588, Note_off_c, 0, 80, 100
2, 38592, Note_on_c, 0, 78, 80
2, 38592, Note_on_c, 0, 87, 80
2, 38592, Note_on_c, 0, 83, 80
2, 38684, Note_off_c, 0, 78, 100
2, 38688, Note_on_c, 0, 80, 80
2, 38780, Note_off_c, 0, 87, 100
2, 38780, Note_off_c, 0, 83, 100
2, 38780, Note_off_c, 0, 80, 100
2, 38784, Note_on_c, 0, 78, 80
2, 38784, Note_on_c, 0, 88, 80
2, 38784, Note_on_c, 0, 85, 80
2, 38876, Note_off_c, 0, 78, 100
2, 38880, Note_on_c, 0, 80, 81
2, 38972, Note_off_c, 0, 80, 100
2, 38976, Note_on_c, 0, 78, 83
2, 39068, Note_off_c, 0, 78, 100
2, 39072, Note_on_c, 0, 80, 85
2, 39164, Note_off_c, 0, 80, 100
2, 39168, Note_on_c, 0, 78, 87
2, 39260, Note_off_c, 0, 78, 100
2, 39264, Note_on_c, 0, 80, 89
2, 39356, Note_off_c, 0, 88, 100
2, 39356, Note_off_c, 0, 85, 100
2, 39356, Note_off_c, 0, 80, 100
2, 39360, Note_on_c, 0, 78, 91
2, 39360, Note_on_c, 0, 87, 91
2, 39360, Note_on_c, 0, 83, 91
2, 39452, Note_off_c, 0, 78, 100
2, 39456, Note_on_c, 0, 80, 93
2, 39548, Note_off_c, 0, 87, 100
2, 39548, Note_off_c, 0, 83, 100
2, 39548, Note_off_c, 0, 80, 100
2, 39552, Note_on_c, 0, 85, 95
2, 39552, Note_on_c, 0, 82, 95
2, 39648, Note_on_c, 0, 78, 97
2, 39740, Note_off_c, 0, 85, 100
2, 39740, Note_off_c, 0, 82, 100
2, 39740, Note_off_c, 0, 78, 100
2, 39744, Note_on_c, 0, 92, 99
2, 39744, Note_on_c, 0, 88, 99
2, 39840, Note_on_c, 0, 78, 101
2, 39932, Note_off_c, 0, 92, 100
2, 39932, Note_off_c, 0, 88, 100
2, 39932, Note_off_c, 0, 78, 100
2, 39936, Note_on_c, 0, 90, 103
2, 39936, Note_on_c, 0, 87, 103
2, 40032, Note_on_c, 0, 78, 105
2, 40124, Note_off_c, 0, 90, 100
2, 40124, Note_off_c, 0, 87, 100
2, 40124, Note_off_c, 0, 78, 100
2, 40128, Note_on_c, 0, 88, 107
2, 40128, Note_on_c, 0, 85, 107
2, 40224, Note_on_c, 0, 78, 109
2, 40316, Note_off_c, 0, 88, 100
2, 40316, Note_off_c, 0, 85, 100
2, 40316, Note_off_c, 0, 78, 100
2, 40320, Note_on_c, 0, 83, 110
2, 40320, Note_on_c, 0, 87, 110
2, 40416, Note_on_c, 0, 78, 109
2, 40508, Note_off_c, 0, 83, 100
2, 40508, Note_off_c, 0, 87, 100
2, 40508, Note_off_c, 0, 78, 100
2, 40512, Note_on_c, 0, 87, 108
2, 40512, Note_on_c, 0, 90, 108
2, 40608, Note_on_c, 0, 78, 107
2, 40700, Note_off_c, 0, 87, 100
2, 40700, Note_off_c, 0, 90, 100
2, 40700, Note_off_c, 0, 78, 100
2, 40704, Note_on_c, 0, 85, 105
2, 40704, Note_on_c, 0, 88, 105
2, 40800, Note_on_c, 0, 78, 104
2, 40892, Note_off_c, 0, 85, 100
2, 40892, Note_off_c, 0, 88, 100
2, 40892, Note_off_c, 0, 78, 100
2, 40896, Note_on_c, 0, 83, 103
2, 40896, Note_on_c, 0, 87, 103
2, 40992, Note_on_c, 0, 78, 101
2, 41084, Note_off_c, 0, 83, 100
2, 41084, Note_off_c, 0, 87, 100
2, 41084, Note_off_c, 0, 78, 100
2, 41088, Note_on_c, 0, 82, 100
2, 41088, Note_on_c, 0, 85, 100
2, 41184, Note_on_c, 0, 78, 99
2, 41276, Note_off_c, 0, 82, 100
2, 41276, Note_off_c, 0, 85, 100
2, 41276, Note_off_c, 0, 78, 100
2, 41280, Note_on_c, 0, 85, 97
2, 41280, Note_on_c, 0, 88, 97
2, 41376, Note_on_c, 0, 78, 96
2, 41468, Note_off_c, 0, 85, 100
2, 41468, Note_off_c, 0, 88, 100
2, 41468, Note_off_c, 0, 78, 100
2, 41472, Note_on_c, 0, 83, 95
2, 41472, Note_on_c, 0, 87, 95
2, 41568, Note_on_c, 0, 78, 94
2, 41660, Note_off_c, 0, 83, 100
2, 41660, Note_off_c, 0, 87, 100
2, 41660, Note_off_c, 0, 78, 100
2, 41664, Note_on_c, 0, 82, 92
2, 41664, Note_on_c, 0, 85, 92
2, 41760, Note_on_c, 0, 78, 91
2, 41852, Note_off_c, 0, 82, 100
2, 41852, Note_off_c, 0, 85, 100
2, 41852, Note_off_c, 0, 78, 100
2, 41856, Note_on_c, 0, 83, 90
2, 41952, Note_on_c, 0, 78, 88
2, 42044, Note_off_c, 0, 83, 100
2, 42044, Note_off_c, 0, 78, 100
2, 42048, Note_on_c, 0, 81, 87
2, 42144, Note_on_c, 0, 72, 86
2, 42236, Note_off_c, 0, 81, 100
2, 42236, Note_off_c, 0, 72, 100
2, 42240, Note_on_c, 0, 80, 84
2, 42336, Note_on_c, 0, 72, 83
2, 42428, Note_off_c, 0, 80, 100
2, 42428, Note_off_c, 0, 72, 100
2, 42432, Note_on_c, 0, 80, 82
2, 42528, Note_on_c, 0, 72, 81
2, 42620, Note_off_c, 0, 80, 100
2, 42620, Note_off_c, 0, 72, 100
2, 42624, Note_on_c, 0, 80, 70
2, 42624, Note_on_c, 0, 72, 70
2, 42716, Note_off_c, 0, 80, 100
2, 42716, Note_off_c, 0, 72, 100
2, 42720, Note_on_c, 0, 68, 70
2, 42812, Note_off_c, 0, 68, 100
2, 42816, Note_on_c, 0, 70, 70
2, 42908, Note_off_c, 0, 70, 100
2, 42912, Note_on_c, 0, 72, 70
2, 43004, Note_off_c, 0, 72, 100
2, 43008, Note_on_c, 0, 75, 70
2, 43036, Note_off_c, 0, 75, 100
2, 43040, Note_on_c, 0, 73, 70
2, 43100, Note_off_c, 0, 73, 100
2, 43104, Note_on_c, 0, 72, 70
2, 43196, Note_off_c, 0, 72, 100
2, 43200, Note_on_c, 0, 73, 70
2, 43292, Note_off_c, 0, 73, 100
2, 43296, Note_on_c, 0, 75, 70
2, 43388, Note_off_c, 0, 75, 100
2, 43392, Note_on_c, 0, 76, 70
2, 43484, Note_off_c, 0, 76, 100
2, 43488, Note_on_c, 0, 72, 70
2, 43580, Note_off_c, 0, 72, 100
2, 43584, Note_on_c, 0, 73, 70
2, 43676, Note_off_c, 0, 73, 100
2, 43680, Note_on_c, 0, 75, 70
2, 43772, Note_off_c, 0, 75, 100
2, 43776, Note_on_c, 0, 78, 70
2, 43804, Note_off_c, 0, 78, 100
2, 43808, Note_on_c, 0, 76, 70
2, 43868, Note_off_c, 0, 76, 100
2, 43872, Note_on_c, 0, 75, 70
2, 43964, Note_off_c, 0, 75, 100
2, 43968, Note_on_c, 0, 76, 70
2, 44060, Note_off_c, 0, 76, 100
2, 44064, Note_on_c, 0, 78, 70
2, 44156, Note_off_c, 0, 78, 100
2, 44160, Note_on_c, 0, 80, 70
2, 44252, Note_off_c, 0, 80, 100
2, 44256, Note_on_c, 0, 78, 70
2, 44348, Note_off_c, 0, 78, 100
2, 44352, Note_on_c, 0, 76, 70
2, 44444, Note_off_c, 0, 76, 100
2, 44448, Note_on_c, 0, 75, 70
2, 44540, Note_off_c, 0, 75, 100
2, 44544, Note_on_c, 0, 76, 70
2, 44636, Note_off_c, 0, 76, 100
2, 44640, Note_on_c, 0, 75, 70
2, 44732, Note_off_c, 0, 75, 100
2, 44736, Note_on_c, 0, 73, 70
2, 44828, Note_off_c, 0, 73, 100
2, 44832, Note_on_c, 0, 80, 70
2, 44924, Note_off_c, 0, 80, 100
2, 44928, Note_on_c, 0, 75, 70
2, 45020, Note_off_c, 0, 75, 100
2, 45024, Note_on_c, 0, 73, 70
2, 45116, Note_off_c, 0, 73, 100
2, 45120, Note_on_c, 0, 71, 70
2, 45212, Note_off_c, 0, 71, 100
2, 45216, Note_on_c, 0, 78, 70
2, 45308, Note_off_c, 0, 78, 100
2, 45312, Note_on_c, 0, 73, 70
2, 45404, Note_off_c, 0, 73, 100
2, 45408, Note_on_c, 0, 71, 70
2, 45500, Note_off_c, 0, 71, 100
2, 45504, Note_on_c, 0, 70, 70
2, 45596, Note_off_c, 0, 70, 100
2, 45600, Note_on_c, 0, 78, 70
2, 45692, Note_off_c, 0, 78, 100
2, 45696, Note_on_c, 0, 78, 80
2, 45696, Note_on_c, 0, 75, 80
2, 45696, Note_on_c, 0, 66, 80
2, 46460, Note_off_c, 0, 78, 100
2, 46460, Note_off_c, 0, 75, 100
2, 46460, Note_off_c, 0, 66, 100
2, 46464, Note_on_c, 0, 76, 80
2, 46464, Note_on_c, 0, 73, 80
2, 46464, Note_on_c, 0, 64, 80
2, 46844, Note_off_c, 0, 76, 100
2, 46844, Note_off_c, 0, 73, 100
2, 46844, Note_off_c, 0, 64, 100
2, 46848, Note_on_c, 0, 75, 80
2, 46848, Note_on_c, 0, 71, 80
2, 46848, Note_on_c, 0, 63, 80
2, 47228, Note_off_c, 0, 75, 100
2, 47228, Note_off_c, 0, 71, 100
2, 47228, Note_off_c, 0, 63, 100
2, 47232, Note_on_c, 0, 73, 80
2, 47232, Note_on_c, 0, 68, 80
2, 47612, Note_off_c, 0, 73, 100
2, 47612, Note_off_c, 0, 68, 100
2, 47616, Note_on_c, 0, 68, 80
2, 47616, Note_on_c, 0, 71, 80
2, 47996, Note_off_c, 0, 68, 100
2, 48000, Note_on_c, 0, 66, 80
2, 48380, Note_off_c, 0, 71, 100
2, 48380, Note_off_c, 0, 66, 100
2, 48384, Note_on_c, 0, 66, 80
2, 48384, Note_on_c, 0, 70, 80
2, 48572, Note_off_c, 0, 70, 100
2, 48576, Note_on_c, 0, 78, 80
2, 48764, Note_off_c, 0, 66, 100
2, 48764, Note_off_c, 0, 78, 100
2, 48768, Note_on_c, 0, 78, 80
2, 48768, Note_on_c, 0, 69, 80
2, 48768, Note_on_c, 0, 66, 80
2, 49532, Note_off_c, 0, 78, 100
2, 49532, Note_off_c, 0, 69, 100
2, 49532, Note_off_c, 0, 66, 100
2, 49536, Note_on_c, 0, 76, 87
2, 49536, Note_on_c, 0, 69, 87
2, 49536, Note_on_c, 0, 64, 87
2, 49916, Note_off_c, 0, 76, 100
2, 49916, Note_off_c, 0, 69, 100
2, 49916, Note_off_c, 0, 64, 100
2, 49920, Note_on_c, 0, 75, 91
2, 49920, Note_on_c, 0, 69, 91
2, 49920, Note_on_c, 0, 66, 91
2, 49920, Note_on_c, 0, 63, 91
2, 50300, Note_off_c, 0, 75, 100
2, 50300, Note_off_c, 0, 69, 100
2, 50300, Note_off_c, 0, 66, 100
2, 50300, Note_off_c, 0, 63, 100
2, 50304, Note_on_c, 0, 73, 95
2, 50304, Note_on_c, 0, 69, 95
2, 50684, Note_off_c, 0, 73, 100
2, 50684, Note_off_c, 0, 69, 100
2, 50688, Note_on_c, 0, 71, 99
2, 50688, Note_on_c, 0, 69, 99
2, 50688, Note_on_c, 0, 63, 99
2, 51452, Note_off_c, 0, 63, 100
2, 51452, Note_off_c, 0, 69, 100
2, 51452, Note_off_c, 0, 71, 100
2, 51456, Note_on_c, 0, 69, 107
2, 51456, Note_on_c, 0, 66, 107
2, 51456, Note_on_c, 0, 63, 107
2, 51836, Note_off_c, 0, 69, 100
2, 51836, Note_off_c, 0, 66, 100
2, 51836, Note_off_c, 0, 63, 100
2, 51840, Note_on_c, 0, 69, 110
2, 51932, Note_off_c, 0, 69, 100
2, 51936, Note_on_c, 0, 75, 106
2, 52028, Note_off_c, 0, 75, 100
2, 52032, Note_on_c, 0, 78, 102
2, 52124, Note_off_c, 0, 78, 100
2, 52128, Note_on_c, 0, 75, 98
2, 52220, Note_off_c, 0, 75, 100
2, 52224, Note_on_c, 0, 81, 93
2, 52316, Note_off_c, 0, 81, 100
2, 52320, Note_on_c, 0, 87, 89
2, 52412, Note_off_c, 0, 87, 100
2, 52416, Note_on_c, 0, 90, 85
2, 52508, Note_off_c, 0, 90, 100
2, 52512, Note_on_c, 0, 87, 81
2, 52604, Note_off_c, 0, 87, 100
2, 52608, Note_on_c, 0, 93, 80
2, 52988, Note_off_c, 0, 93, 100
2, 53088, Note_on_c, 0, 63, 80
2, 53180, Note_off_c, 0, 63, 100
2, 53184, Note_on_c, 0, 64, 80
2, 53276, Note_off_c, 0, 64, 100
2, 53280, Note_on_c, 0, 66, 80
2, 53372, Note_off_c, 0, 66, 100
2, 53376, Note_on_c, 0, 68, 80
2, 53376, Note_on_c, 0, 64, 80
2, 53468, Note_off_c, 0, 64, 100
2, 53472, Note_on_c, 0, 59, 80
2, 53564, Note_off_c, 0, 59, 100
2, 53568, Note_on_c, 0, 64, 80
2, 53660, Note_off_c, 0, 64, 100
2, 53664, Note_on_c, 0, 59, 80
2, 53756, Note_off_c, 0, 68, 100
2, 53756, Note_off_c, 0, 59, 100
2, 53760, Note_on_c, 0, 71, 80
2, 53760, Note_on_c, 0, 68, 80
2, 53852, Note_off_c, 0, 68, 100
2, 53856, Note_on_c, 0, 59, 80
2, 53948, Note_off_c, 0, 71, 100
2, 53948, Note_off_c, 0, 59, 100
2, 53952, Note_on_c, 0, 69, 80
2, 53952, Note_on_c, 0, 66, 80
2, 54044, Note_off_c, 0, 66, 100
2, 54048, Note_on_c, 0, 59, 80
2, 54140, Note_off_c, 0, 69, 100
2, 54140, Note_off_c, 0, 59, 100
2, 54144, Note_on_c, 0, 68, 80
2, 54144, Note_on_c, 0, 64, 80
2, 54236, Note_off_c, 0, 64, 100
2, 54240, Note_on_c, 0, 59, 80
2, 54332, Note_off_c, 0, 68, 100
2, 54332, Note_off_c, 0, 59, 100
2, 54336, Note_on_c, 0, 66, 80
2, 54336, Note_on_c, 0, 63, 80
2, 54428, Note_off_c, 0, 63, 100
2, 54432, Note_on_c, 0, 59, 80
2, 54524, Note_off_c, 0, 66, 100
2, 54524, Note_off_c, 0, 59, 100
2, 54528, Note_on_c, 0, 66, 80
2, 54528, Note_on_c, 0, 63, 80
2, 54620, Note_off_c, 0, 63, 100
2, 54624, Note_on_c, 0, 59, 80
2, 54716, Note_off_c, 0, 66, 100
2, 54716, Note_off_c, 0, 59, 100
2, 54720, Note_on_c, 0, 68, 80
2, 54720, Note_on_c, 0, 64, 80
2, 54812, Note_off_c, 0, 64, 100
2, 54816, Note_on_c, 0, 59, 80
2, 54908, Note_off_c, 0, 68, 100
2, 54908, Note_off_c, 0, 59, 100
2, 54912, Note_on_c, 0, 69, 80
2, 54912, Note_on_c, 0, 64, 80
2, 55004, Note_off_c, 0, 64, 100
2, 55008, Note_on_c, 0, 59, 80
2, 55100, Note_off_c, 0, 69, 100
2, 55100, Note_off_c, 0, 59, 100
2, 55104, Note_on_c, 0, 73, 80
2, 55104, Note_on_c, 0, 64, 80
2, 55196, Note_off_c, 0, 64, 100
2, 55200, Note_on_c, 0, 59, 80
2, 55292, Note_off_c, 0, 73, 100
2, 55292, Note_off_c, 0, 59, 100
2, 55296, Note_on_c, 0, 71, 80
2, 55296, Note_on_c, 0, 66, 80
2, 55388, Note_off_c, 0, 66, 100
2, 55392, Note_on_c, 0, 59, 80
2, 55484, Note_off_c, 0, 71, 100
2, 55484, Note_off_c, 0, 59, 100
2, 55488, Note_on_c, 0, 66, 80
2, 55488, Note_on_c, 0, 63, 80
2, 55580, Note_off_c, 0, 63, 100
2, 55584, Note_on_c, 0, 59, 80
2, 55676, Note_off_c, 0, 66, 100
2, 55676, Note_off_c, 0, 59, 100
2, 55680, Note_on_c, 0, 68, 80
2, 55680, Note_on_c, 0, 64, 80
2, 55680, Note_on_c, 0, 59, 80
2, 56060, Note_off_c, 0, 68, 100
2, 56060, Note_off_c, 0, 64, 100
2, 56060, Note_off_c, 0, 59, 100
2, 56256, Note_on_c, 0, 76, 80
2, 56348, Note_off_c, 0, 76, 100
2, 56352, Note_on_c, 0, 78, 80
2, 56444, Note_off_c, 0, 78, 100
2, 56448, Note_on_c, 0, 80, 80
2, 56448, Note_on_c, 0, 68, 80
2, 56828, Note_off_c, 0, 80, 100
2, 56828, Note_off_c, 0, 68, 100
2, 56832, Note_on_c, 0, 83, 80
2, 56832, Note_on_c, 0, 71, 80
2, 57020, Note_off_c, 0, 83, 100
2, 57020, Note_off_c, 0, 71, 100
2, 57024, Note_on_c, 0, 81, 80
2, 57024, Note_on_c, 0, 69, 80
2, 57212, Note_off_c, 0, 81, 100
2, 57212, Note_off_c, 0, 69, 100
2, 57216, Note_on_c, 0, 80, 80
2, 57216, Note_on_c, 0, 68, 80
2, 57404, Note_off_c, 0, 80, 100
2, 57404, Note_off_c, 0, 68, 100
2, 57408, Note_on_c, 0, 78, 80
2, 57408, Note_on_c, 0, 66, 80
2, 57596, Note_off_c, 0, 78, 100
2, 57596, Note_off_c, 0, 66, 100
2, 57600, Note_on_c, 0, 78, 80
2, 57600, Note_on_c, 0, 66, 80
2, 57788, Note_off_c, 0, 78, 100
2, 57788, Note_off_c, 0, 66, 100
2, 57792, Note_on_c, 0, 80, 80
2, 57792, Note_on_c, 0, 68, 80
2, 57980, Note_off_c, 0, 80, 100
2, 57980, Note_off_c, 0, 68, 100
2, 57984, Note_on_c, 0, 81, 80
2, 57984, Note_on_c, 0, 69, 80
2, 58172, Note_off_c, 0, 81, 100
2, 58172, Note_off_c, 0, 69, 100
2, 58176, Note_on_c, 0, 85, 89
2, 58176, Note_on_c, 0, 73, 89
2, 58364, Note_off_c, 0, 85, 100
2, 58364, Note_off_c, 0, 73, 100
2, 58368, Note_on_c, 0, 83, 99
2, 58368, Note_on_c, 0, 71, 99
2, 58556, Note_off_c, 0, 83, 100
2, 58556, Note_off_c, 0, 71, 100
2, 58560, Note_on_c, 0, 87, 80
2, 58560, Note_on_c, 0, 75, 80
2, 58748, Note_off_c, 0, 87, 100
2, 58748, Note_off_c, 0, 75, 100
2, 58752, Note_on_c, 0, 88, 80
2, 58752, Note_on_c, 0, 76, 80
2, 59132, Note_off_c, 0, 88, 100
2, 59132, Note_off_c, 0, 76, 100
2, 59328, Note_on_c, 0, 71, 80
2, 59516, Note_off_c, 0, 71, 100
2, 59520, Note_on_c, 0, 70, 80
2, 59900, Note_off_c, 0, 70, 100
2, 59904, Note_on_c, 0, 76, 80
2, 60284, Note_off_c, 0, 76, 100
2, 60288, Note_on_c, 0, 75, 80
2, 60860, Note_off_c, 0, 75, 100
2, 60864, Note_on_c, 0, 69, 80
2, 61052, Note_off_c, 0, 69, 100
2, 61056, Note_on_c, 0, 68, 80
2, 61436, Note_off_c, 0, 68, 100
2, 61440, Note_on_c, 0, 74, 80
2, 61820, Note_off_c, 0, 74, 100
2, 61824, Note_on_c, 0, 73, 80
2, 62396, Note_off_c, 0, 73, 100
2, 62400, Note_on_c, 0, 73, 80
2, 62588, Note_off_c, 0, 73, 100
2, 62592, Note_on_c, 0, 72, 82
2, 62780, Note_off_c, 0, 72, 100
2, 62784, Note_on_c, 0, 73, 84
2, 62972, Note_off_c, 0, 73, 100
2, 62976, Note_on_c, 0, 69, 87
2, 62976, Note_on_c, 0, 64, 87
2, 62976, Note_on_c, 0, 61, 87
2, 63164, Note_off_c, 0, 69, 100
2, 63164, Note_off_c, 0, 64, 100
2, 63164, Note_off_c, 0, 61, 100
2, 63168, Note_on_c, 0, 68, 89
2, 63168, Note_on_c, 0, 64, 89
2, 63168, Note_on_c, 0, 59, 89
2, 63356, Note_off_c, 0, 68, 100
2, 63356, Note_off_c, 0, 64, 100
2, 63356, Note_off_c, 0, 59, 100
2, 63360, Note_on_c, 0, 68, 91
2, 63360, Note_on_c, 0, 58, 91
2, 63360, Note_on_c, 0, 64, 91
2, 63548, Note_off_c, 0, 68, 100
2, 63552, Note_on_c, 0, 66, 94
2, 63740, Note_off_c, 0, 58, 100
2, 63740, Note_off_c, 0, 64, 100
2, 63744, Note_on_c, 0, 64, 96
2, 63744, Note_on_c, 0, 57, 96
2, 63932, Note_off_c, 0, 66, 100
2, 63936, Note_on_c, 0, 66, 98
2, 64124, Note_off_c, 0, 64, 100
2, 64124, Note_off_c, 0, 57, 100
2, 64124, Note_off_c, 0, 66, 100
2, 64128, Note_on_c, 0, 66, 80
2, 64128, Note_on_c, 0, 63, 80
2, 64128, Note_on_c, 0, 57, 80
2, 64316, Note_off_c, 0, 66, 100
2, 64316, Note_off_c, 0, 63, 100
2, 64316, Note_off_c, 0, 57, 100
2, 64320, Note_on_c, 0, 71, 80
2, 64320, Note_on_c, 0, 63, 80
2, 64508, Note_off_c, 0, 71, 100
2, 64508, Note_off_c, 0, 63, 100
2, 64512, Note_on_c, 0, 70, 80
2, 64700, Note_off_c, 0, 70, 100
2, 64704, Note_on_c, 0, 71, 80
2, 64704, Note_on_c, 0, 63, 80
2, 64892, Note_off_c, 0, 71, 100
2, 64892, Note_off_c, 0, 63, 100
2, 64896, Note_on_c, 0, 64, 80
2, 65276, Note_off_c, 0, 64, 100
2, 65472, Note_on_c, 0, 83, 80
2, 65472, Note_on_c, 0, 71, 80
2, 65660, Note_off_c, 0, 83, 100
2, 65660, Note_off_c, 0, 71, 100
2, 65664, Note_on_c, 0, 70, 80
2, 65664, Note_on_c, 0, 82, 80
2, 66044, Note_off_c, 0, 70, 100
2, 66044, Note_off_c, 0, 82, 100
2, 66048, Note_on_c, 0, 76, 80
2, 66048, Note_on_c, 0, 88, 80
2, 66428, Note_off_c, 0, 76, 100
2, 66428, Note_off_c, 0, 88, 100
2, 66432, Note_on_c, 0, 87, 80
2, 66432, Note_on_c, 0, 75, 80
2, 67004, Note_off_c, 0, 87, 100
2, 67004, Note_off_c, 0, 75, 100
2, 67008, Note_on_c, 0, 81, 80
2, 67008, Note_on_c, 0, 69, 80
2, 67196, Note_off_c, 0, 81, 100
2, 67196, Note_off_c, 0, 69, 100
2, 67200, Note_on_c, 0, 80, 80
2, 67200, Note_on_c, 0, 68, 80
2, 67580, Note_off_c, 0, 80, 100
2, 67580, Note_off_c, 0, 68, 100
2, 67584, Note_on_c, 0, 86, 80
2, 67584, Note_on_c, 0, 74, 80
2, 67964, Note_off_c, 0, 86, 100
2, 67964, Note_off_c, 0, 74, 100
2, 67968, Note_on_c, 0, 73, 80
2, 67968, Note_on_c, 0, 85, 80
2, 68540, Note_off_c, 0, 73, 100
2, 68540, Note_off_c, 0, 85, 100
2, 68544, Note_on_c, 0, 85, 80
2, 68544, Note_on_c, 0, 73, 80
2, 68732, Note_off_c, 0, 85, 100
2, 68732, Note_off_c, 0, 73, 100
2, 68736, Note_on_c, 0, 72, 82
2, 68736, Note_on_c, 0, 84, 82
2, 68924, Note_off_c, 0, 72, 100
2, 68924, Note_off_c, 0, 84, 100
2, 68928, Note_on_c, 0, 85, 84
2, 68928, Note_on_c, 0, 73, 84
2, 69116, Note_off_c, 0, 85, 100
2, 69116, Note_off_c, 0, 73, 100
2, 69120, Note_on_c, 0, 81, 87
2, 69120, Note_on_c, 0, 69, 87
2, 69308, Note_off_c, 0, 81, 100
2, 69308, Note_off_c, 0, 69, 100
2, 69312, Note_on_c, 0, 80, 89
2, 69312, Note_on_c, 0, 68, 89
2, 69500, Note_off_c, 0, 80, 100
2, 69500, Note_off_c, 0, 68, 100
2, 69504, Note_on_c, 0, 80, 91
2, 69504, Note_on_c, 0, 68, 91
2, 69692, Note_off_c, 0, 80, 100
2, 69692, Note_off_c, 0, 68, 100
2, 69696, Note_on_c, 0, 78, 94
2, 69696, Note_on_c, 0, 66, 94
2, 70076, Note_off_c, 0, 78, 100
2, 70076, Note_off_c, 0, 66, 100
2, 70080, Note_on_c, 0, 78, 98
2, 70080, Note_on_c, 0, 66, 98
2, 70268, Note_off_c, 0, 78, 100
2, 70268, Note_off_c, 0, 66, 100
2, 70272, Note_on_c, 0, 78, 80
2, 70272, Note_on_c, 0, 66, 80
2, 70460, Note_off_c, 0, 78, 100
2, 70460, Note_off_c, 0, 66, 100
2, 70464, Note_on_c, 0, 83, 80
2, 70464, Note_on_c, 0, 71, 80
2, 70652, Note_off_c, 0, 83, 100
2, 70652, Note_off_c, 0, 71, 100
2, 70656, Note_on_c, 0, 82, 80
2, 70656, Note_on_c, 0, 70, 80
2, 70844, Note_off_c, 0, 82, 100
2, 70844, Note_off_c, 0, 70, 100
2, 70848, Note_on_c, 0, 83, 80
2, 70848, Note_on_c, 0, 71, 80
2, 71036, Note_off_c, 0, 83, 100
2, 71036, Note_off_c, 0, 71, 100
2, 71040, Note_on_c, 0, 76, 80
2, 71040, Note_on_c, 0, 64, 80
2, 71420, Note_off_c, 0, 76, 100
2, 71420, Note_off_c, 0, 64, 100
2, 71616, Note_on_c, 0, 64, 80
2, 71708, Note_off_c, 0, 64, 100
2, 71712, Note_on_c, 0, 66, 80
2, 71804, Note_off_c, 0, 66, 100
2, 71808, Note_on_c, 0, 68, 80
2, 71808, Note_on_c, 0, 64, 80
2, 71900, Note_off_c, 0, 64, 100
2, 71904, Note_on_c, 0, 59, 80
2, 71996, Note_off_c, 0, 59, 100
2, 72000, Note_on_c, 0, 64, 80
2, 72092, Note_off_c, 0, 64, 100
2, 72096, Note_on_c, 0, 59, 80
2, 72188, Note_off_c, 0, 68, 100
2, 72188, Note_off_c, 0, 59, 100
2, 72192, Note_on_c, 0, 71, 80
2, 72192, Note_on_c, 0, 68, 80
2, 72284, Note_off_c, 0, 68, 100
2, 72288, Note_on_c, 0, 59, 80
2, 72380, Note_off_c, 0, 71, 100
2, 72380, Note_off_c, 0, 59, 100
2, 72384, Note_on_c, 0, 69, 80
2, 72384, Note_on_c, 0, 66, 80
2, 72476, Note_off_c, 0, 66, 100
2, 72480, Note_on_c, 0, 59, 80
2, 72572, Note_off_c, 0, 69, 100
2, 72572, Note_off_c, 0, 59, 100
2, 72576, Note_on_c, 0, 68, 80
2, 72576, Note_on_c, 0, 64, 80
2, 72668, Note_off_c, 0, 64, 100
2, 72672, Note_on_c, 0, 59, 80
2, 72764, Note_off_c, 0, 68, 100
2, 72764, Note_off_c, 0, 59, 100
2, 72768, Note_on_c, 0, 66, 80
2, 72768, Note_on_c, 0, 63, 80
2, 72860, Note_off_c, 0, 63, 100
2, 72864, Note_on_c, 0, 59, 80
2, 72956, Note_off_c, 0, 66, 100
2, 72956, Note_off_c, 0, 59, 100
2, 72960, Note_on_c, 0, 66, 80
2, 72960, Note_on_c, 0, 63, 80
2, 73052, Note_off_c, 0, 63, 100
2, 73056, Note_on_c, 0, 59, 80
2, 73148, Note_off_c, 0, 66, 100
2, 73148, Note_off_c, 0, 59, 100
2, 73152, Note_on_c, 0, 68, 80
2, 73152, Note_on_c, 0, 64, 80
2, 73244, Note_off_c, 0, 64, 100
2, 73248, Note_on_c, 0, 59, 80
2, 73340, Note_off_c, 0, 68, 100
2, 73340, Note_off_c, 0, 59, 100
2, 73344, Note_on_c, 0, 69, 80
2, 73344, Note_on_c, 0, 64, 80
2, 73436, Note_off_c, 0, 64, 100
2, 73440, Note_on_c, 0, 59, 80
2, 73532, Note_off_c, 0, 69, 100
2, 73532, Note_off_c, 0, 59, 100
2, 73536, Note_on_c, 0, 73, 80
2, 73536, Note_on_c, 0, 64, 80
2, 73628, Note_off_c, 0, 64, 100
2, 73632, Note_on_c, 0, 59, 80
2, 73724, Note_off_c, 0, 73, 100
2, 73724, Note_off_c, 0, 59, 100
2, 73728, Note_on_c, 0, 71, 80
2, 73728, Note_on_c, 0, 66, 80
2, 73820, Note_off_c, 0, 66, 100
2, 73824, Note_on_c, 0, 59, 80
2, 73916, Note_off_c, 0, 71, 100
2, 73916, Note_off_c, 0, 59, 100
2, 73920, Note_on_c, 0, 66, 80
2, 73920, Note_on_c, 0, 63, 80
2, 74012, Note_off_c, 0, 63, 100
2, 74016, Note_on_c, 0, 59, 80
2, 74108, Note_off_c, 0, 66, 100
2, 74108, Note_off_c, 0, 59, 100
2, 74112, Note_on_c, 0, 68, 80
2, 74112, Note_on_c, 0, 64, 80
2, 74112, Note_on_c, 0, 59, 80
2, 74492, Note_off_c, 0, 68, 100
2, 74492, Note_off_c, 0, 64, 100
2, 74492, Note_off_c, 0, 59, 100
2, 74496, Note_on_c, 0, 78, 80
2, 74524, Note_off_c, 0, 78, 100
2, 74528, Note_on_c, 0, 76, 80
2, 74588, Note_off_c, 0, 76, 100
2, 74592, Note_on_c, 0, 75, 81
2, 74684, Note_off_c, 0, 75, 100
2, 74688, Note_on_c, 0, 76, 82
2, 74780, Note_off_c, 0, 76, 100
2, 74784, Note_on_c, 0, 78, 83
2, 74876, Note_off_c, 0, 78, 100
2, 74880, Note_on_c, 0, 81, 84
2, 74908, Note_off_c, 0, 81, 100
2, 74912, Note_on_c, 0, 80, 84
2, 74972, Note_off_c, 0, 80, 100
2, 74976, Note_on_c, 0, 78, 85
2, 75068, Note_off_c, 0, 78, 100
2, 75072, Note_on_c, 0, 80, 86
2, 75164, Note_off_c, 0, 80, 100
2, 75168, Note_on_c, 0, 81, 87
2, 75260, Note_off_c, 0, 81, 100
2, 75264, Note_on_c, 0, 83, 88
2, 75264, Note_on_c, 0, 71, 88
2, 75452, Note_off_c, 0, 83, 100
2, 75452, Note_off_c, 0, 71, 100
2, 75456, Note_on_c, 0, 81, 91
2, 75456, Note_on_c, 0, 69, 91
2, 75644, Note_off_c, 0, 81, 100
2, 75644, Note_off_c, 0, 69, 100
2, 75648, Note_on_c, 0, 68, 93
2, 75648, Note_on_c, 0, 80, 93
2, 75836, Note_off_c, 0, 68, 100
2, 75836, Note_off_c, 0, 80, 100
2, 75840, Note_on_c, 0, 78, 95
2, 75840, Note_on_c, 0, 66, 95
2, 76028, Note_off_c, 0, 78, 100
2, 76028, Note_off_c, 0, 66, 100
2, 76032, Note_on_c, 0, 78, 97
2, 76032, Note_on_c, 0, 66, 97
2, 76220, Note_off_c, 0, 78, 100
2, 76220, Note_off_c, 0, 66, 100
2, 76224, Note_on_c, 0, 80, 99
2, 76224, Note_on_c, 0, 68, 99
2, 76412, Note_off_c, 0, 80, 100
2, 76412, Note_off_c, 0, 68, 100
2, 76416, Note_on_c, 0, 81, 102
2, 76416, Note_on_c, 0, 69, 102
2, 76604, Note_off_c, 0, 81, 100
2, 76604, Note_off_c, 0, 69, 100
2, 76608, Note_on_c, 0, 85, 104
2, 76608, Note_on_c, 0, 73, 104
2, 76796, Note_off_c, 0, 85, 100
2, 76796, Note_off_c, 0, 73, 100
2, 76800, Note_on_c, 0, 83, 106
2, 76800, Note_on_c, 0, 71, 106
2, 76988, Note_off_c, 0, 83, 100
2, 76988, Note_off_c, 0, 71, 100
2, 76992, Note_on_c, 0, 87, 108
2, 76992, Note_on_c, 0, 81, 108
2, 76992, Note_on_c, 0, 75, 108
2, 77180, Note_off_c, 0, 87, 100
2, 77180, Note_off_c, 0, 81, 100
2, 77180, Note_off_c, 0, 75, 100
2, 77184, Note_on_c, 0, 88, 110
2, 77184, Note_on_c, 0, 80, 110
2, 77184, Note_on_c, 0, 76, 110
2, 77564, Note_off_c, 0, 88, 100
2, 77564, Note_off_c, 0, 80, 100
2, 77564, Note_off_c, 0, 76, 100
2, 77760, Note_on_c, 0, 68, 80
2, 77760, Note_on_c, 0, 64, 80
2, 77948, Note_off_c, 0, 68, 100
2, 77948, Note_off_c, 0, 64, 100
2, 77952, Note_on_c, 0, 63, 80
2, 77952, Note_on_c, 0, 69, 80
2, 78140, Note_off_c, 0, 69, 100
2, 78144, Note_on_c, 0, 73, 80
2, 78332, Note_off_c, 0, 63, 100
2, 78332, Note_off_c, 0, 73, 100
2, 78336, Note_on_c, 0, 71, 80
2, 78336, Note_on_c, 0, 64, 80
2, 78524, Note_off_c, 0, 71, 100
2, 78524, Note_off_c, 0, 64, 100
2, 78528, Note_on_c, 0, 69, 80
2, 78528, Note_on_c, 0, 75, 80
2, 78716, Note_off_c, 0, 69, 100
2, 78716, Note_off_c, 0, 75, 100
2, 78720, Note_on_c, 0, 68, 80
2, 78720, Note_on_c, 0, 76, 80
2, 78908, Note_off_c, 0, 68, 100
2, 78912, Note_on_c, 0, 67, 80
2, 79292, Note_off_c, 0, 76, 100
2, 79292, Note_off_c, 0, 67, 100
2, 79296, Note_on_c, 0, 79, 80
2, 79484, Note_off_c, 0, 79, 100
2, 79488, Note_on_c, 0, 81, 80
2, 79676, Note_off_c, 0, 81, 100
2, 79680, Note_on_c, 0, 84, 88
2, 79868, Note_off_c, 0, 84, 100
2, 79872, Note_on_c, 0, 83, 97
2, 80060, Note_off_c, 0, 83, 100
2, 80064, Note_on_c, 0, 87, 105
2, 80064, Note_on_c, 0, 81, 105
2, 80064, Note_on_c, 0, 75, 105
2, 80252, Note_off_c, 0, 87, 100
2, 80252, Note_off_c, 0, 81, 100
2, 80252, Note_off_c, 0, 75, 100
2, 80256, Key_signature, 1, "minor"
2, 80256, Note_on_c, 0, 88, 110
2, 80256, Note_on_c, 0, 79, 110
2, 80256, Note_on_c, 0, 76, 110
2, 80636, Note_off_c, 0, 88, 100
2, 80636, Note_off_c, 0, 79, 100
2, 80636, Note_off_c, 0, 76, 100
2, 80832, Note_on_c, 0, 67, 80
2, 81020, Note_off_c, 0, 67, 100
2, 81024, Note_on_c, 0, 69, 80
2, 81212, Note_off_c, 0, 69, 100
2, 81216, Note_on_c, 0, 72, 81
2, 81404, Note_off_c, 0, 72, 100
2, 81408, Note_on_c, 0, 71, 83
2, 81596, Note_off_c, 0, 71, 100
2, 81600, Note_on_c, 0, 75, 85
2, 81600, Note_on_c, 0, 69, 85
2, 81788, Note_off_c, 0, 75, 100
2, 81788, Note_off_c, 0, 69, 100
2, 81792, Note_on_c, 0, 76, 87
2, 81792, Note_on_c, 0, 67, 87
2, 81980, Note_off_c, 0, 76, 100
2, 81980, Note_off_c, 0, 67, 100
2, 81984, Note_on_c, 0, 79, 89
2, 81984, Note_on_c, 0, 76, 89
2, 82172, Note_off_c, 0, 79, 100
2, 82172, Note_off_c, 0, 76, 100
2, 82176, Note_on_c, 0, 76, 91
2, 82176, Note_on_c, 0, 84, 91
2, 82364, Note_off_c, 0, 76, 100
2, 82364, Note_off_c, 0, 84, 100
2, 82368, Note_on_c, 0, 76, 93
2, 82368, Note_on_c, 0, 84, 93
2, 82556, Note_off_c, 0, 76, 100
2, 82556, Note_off_c, 0, 84, 100
2, 82560, Note_on_c, 0, 84, 95
2, 82560, Note_on_c, 0, 76, 95
2, 82748, Note_off_c, 0, 84, 100
2, 82748, Note_off_c, 0, 76, 100
2, 82752, Note_on_c, 0, 81, 97
2, 82752, Note_on_c, 0, 84, 97
2, 82940, Note_off_c, 0, 81, 100
2, 82940, Note_off_c, 0, 84, 100
2, 82944, Note_on_c, 0, 86, 99
2, 82944, Note_on_c, 0, 89, 99
2, 83132, Note_off_c, 0, 86, 100
2, 83132, Note_off_c, 0, 89, 100
2, 83136, Note_on_c, 0, 89, 101
2, 83136, Note_on_c, 0, 86, 101
2, 83324, Note_off_c, 0, 89, 100
2, 83324, Note_off_c, 0, 86, 100
2, 83328, Key_signature, 0, "major"
2, 83328, Note_on_c, 0, 89, 103
2, 83328, Note_on_c, 0, 86, 103
2, 83516, Note_off_c, 0, 89, 100
2, 83516, Note_off_c, 0, 86, 100
2, 83520, Note_on_c, 0, 89, 105
2, 83520, Note_on_c, 0, 86, 105
2, 83708, Note_off_c, 0, 89, 100
2, 83708, Note_off_c, 0, 86, 100
2, 83712, Note_on_c, 0, 89, 107
2, 83712, Note_on_c, 0, 86, 107
2, 83900, Note_off_c, 0, 89, 100
2, 83900, Note_off_c, 0, 86, 100
2, 83904, Note_on_c, 0, 89, 108
2, 83904, Note_on_c, 0, 86, 108
2, 84092, Note_off_c, 0, 89, 100
2, 84092, Note_off_c, 0, 86, 100
2, 84096, Note_on_c, 0, 89, 80
2, 84096, Note_on_c, 0, 86, 80
2, 85820, Note_off_c, 0, 86, 100
2, 85820, Note_off_c, 0, 89, 100
2, 85824, Note_on_c, 0, 89, 80
2, 85824, Note_on_c, 0, 86, 80
2, 86204, Note_off_c, 0, 89, 100
2, 86204, Note_off_c, 0, 86, 100
2, 86208, Note_on_c, 0, 88, 80
2, 86208, Note_on_c, 0, 84, 80
2, 86396, Note_off_c, 0, 88, 100
2, 86396, Note_off_c, 0, 84, 100
2, 86400, Note_on_c, 0, 86, 80
2, 86588, Note_off_c, 0, 86, 100
2, 86592, Note_on_c, 0, 81, 80
2, 86592, Note_on_c, 0, 74, 80
2, 86780, Note_off_c, 0, 81, 100
2, 86780, Note_off_c, 0, 74, 100
2, 86784, Note_on_c, 0, 79, 80
2, 86784, Note_on_c, 0, 76, 80
2, 86972, Note_off_c, 0, 79, 100
2, 86972, Note_off_c, 0, 76, 100
2, 86976, Note_on_c, 0, 79, 80
2, 86976, Note_on_c, 0, 74, 80
2, 86976, Note_on_c, 0, 71, 80
2, 87068, Note_off_c, 0, 79, 100
2, 87068, Note_off_c, 0, 74, 100
2, 87068, Note_off_c, 0, 71, 100
2, 87072, Note_on_c, 0, 67, 80
2, 87164, Note_off_c, 0, 67, 100
2, 87168, Note_on_c, 0, 79, 80
2, 87168, Note_on_c, 0, 76, 80
2, 87168, Note_on_c, 0, 67, 80
2, 87932, Note_off_c, 0, 79, 100
2, 87932, Note_off_c, 0, 76, 100
2, 87932, Note_off_c, 0, 67, 100
2, 87936, Note_on_c, 0, 77, 80
2, 87936, Note_on_c, 0, 74, 80
2, 87936, Note_on_c, 0, 65, 80
2, 88316, Note_off_c, 0, 77, 100
2, 88316, Note_off_c, 0, 74, 100
2, 88316, Note_off_c, 0, 65, 100
2, 88320, Note_on_c, 0, 76, 80
2, 88320, Note_on_c, 0, 72, 80
2, 88320, Note_on_c, 0, 67, 80
2, 88700, Note_off_c, 0, 76, 100
2, 88700, Note_off_c, 0, 72, 100
2, 88700, Note_off_c, 0, 67, 100
2, 88704, Note_on_c, 0, 74, 80
2, 88704, Note_on_c, 0, 69, 80
2, 89084, Note_off_c, 0, 74, 100
2, 89084, Note_off_c, 0, 69, 100
2, 89088, Note_on_c, 0, 69, 80
2, 89088, Note_on_c, 0, 72, 80
2, 89468, Note_off_c, 0, 69, 100
2, 89472, Note_on_c, 0, 67, 80
2, 89852, Note_off_c, 0, 72, 100
2, 89852, Note_off_c, 0, 67, 100
2, 89856, Note_on_c, 0, 67, 80
2, 89856, Note_on_c, 0, 71, 80
2, 90044, Note_off_c, 0, 71, 100
2, 90048, Note_on_c, 0, 79, 80
2, 90236, Note_off_c, 0, 67, 100
2, 90236, Note_off_c, 0, 79, 100
2, 90240, Note_on_c, 0, 79, 80
2, 90240, Note_on_c, 0, 75, 80
2, 90240, Note_on_c, 0, 67, 80
2, 91004, Note_off_c, 0, 79, 100
2, 91004, Note_off_c, 0, 75, 100
2, 91004, Note_off_c, 0, 67, 100
2, 91008, Note_on_c, 0, 77, 80
2, 91008, Note_on_c, 0, 74, 80
2, 91008, Note_on_c, 0, 65, 80
2, 91388, Note_off_c, 0, 77, 100
2, 91388, Note_off_c, 0, 74, 100
2, 91388, Note_off_c, 0, 65, 100
2, 91392, Note_on_c, 0, 75, 80
2, 91392, Note_on_c, 0, 72, 80
2, 91392, Note_on_c, 0, 67, 80
2, 91392, Note_on_c, 0, 63, 80
2, 91772, Note_off_c, 0, 75, 100
2, 91772, Note_off_c, 0, 72, 100
2, 91772, Note_off_c, 0, 67, 100
2, 91772, Note_off_c, 0, 63, 100
2, 91776, Note_on_c, 0, 74, 80
2, 91776, Note_on_c, 0, 68, 80
2, 92156, Note_off_c, 0, 74, 100
2, 92156, Note_off_c, 0, 68, 100
2, 92160, Note_on_c, 0, 69, 80
2, 92160, Note_on_c, 0, 72, 80
2, 92540, Note_off_c, 0, 69, 100
2, 92544, Note_on_c, 0, 67, 80
2, 92924, Note_off_c, 0, 72, 100
2, 92924, Note_off_c, 0, 67, 100
2, 92928, Note_on_c, 0, 72, 80
2, 92928, Note_on_c, 0, 66, 80
2, 93116, Note_off_c, 0, 72, 100
2, 93116, Note_off_c, 0, 66, 100
2, 93120, Note_on_c, 0, 80, 80
2, 93308, Note_off_c, 0, 80, 100
2, 93312, Note_on_c, 0, 80, 80
2, 93312, Note_on_c, 0, 76, 80
2, 93312, Note_on_c, 0, 68, 80
2, 94076, Note_off_c, 0, 80, 100
2, 94076, Note_off_c, 0, 76, 100
2, 94076, Note_off_c, 0, 68, 100
2, 94080, Note_on_c, 0, 78, 80
2, 94080, Note_on_c, 0, 75, 80
2, 94080, Note_on_c, 0, 66, 80
2, 94460, Note_off_c, 0, 78, 100
2, 94460, Note_off_c, 0, 75, 100
2, 94460, Note_off_c, 0, 66, 100
2, 94464, Note_on_c, 0, 76, 80
2, 94464, Note_on_c, 0, 73, 80
2, 94464, Note_on_c, 0, 68, 80
2, 94844, Note_off_c, 0, 76, 100
2, 94844, Note_off_c, 0, 73, 100
2, 94844, Note_off_c, 0, 68, 100
2, 94848, Key_signature, 4, "major"
2, 94848, Note_on_c, 0, 75, 80
2, 94848, Note_on_c, 0, 69, 80
2, 95228, Note_off_c, 0, 75, 100
2, 95228, Note_off_c, 0, 69, 100
2, 95232, Note_on_c, 0, 70, 80
2, 95232, Note_on_c, 0, 73, 80
2, 95612, Note_off_c, 0, 70, 100
2, 95616, Note_on_c, 0, 68, 80
2, 95996, Note_off_c, 0, 73, 100
2, 95996, Note_off_c, 0, 68, 100
2, 96000, Note_on_c, 0, 68, 80
2, 96000, Note_on_c, 0, 72, 80
2, 96188, Note_off_c, 0, 72, 100
2, 96192, Note_on_c, 0, 80, 80
2, 96380, Note_off_c, 0, 68, 100
2, 96380, Note_off_c, 0, 80, 100
2, 96384, Note_on_c, 0, 80, 80
2, 96384, Note_on_c, 0, 77, 80
2, 96384, Note_on_c, 0, 68, 80
2, 97148, Note_off_c, 0, 80, 100
2, 97148, Note_off_c, 0, 77, 100
2, 97148, Note_off_c, 0, 68, 100
2, 97152, Note_on_c, 0, 78, 87
2, 97152, Note_on_c, 0, 75, 87
2, 97152, Note_on_c, 0, 66, 87
2, 97532, Note_off_c, 0, 78, 100
2, 97532, Note_off_c, 0, 75, 100
2, 97532, Note_off_c, 0, 66, 100
2, 97536, Note_on_c, 0, 77, 91
2, 97536, Note_on_c, 0, 73, 91
2, 97536, Note_on_c, 0, 68, 91
2, 97536, Note_on_c, 0, 65, 91
2, 97916, Note_off_c, 0, 77, 100
2, 97916, Note_off_c, 0, 73, 100
2, 97916, Note_off_c, 0, 68, 100
2, 97916, Note_off_c, 0, 65, 100
2, 97920, Note_on_c, 0, 75, 95
2, 97920, Note_on_c, 0, 69, 95
2, 98300, Note_off_c, 0, 75, 100
2, 98300, Note_off_c, 0, 69, 100
2, 98304, Note_on_c, 0, 73, 99
2, 98304, Note_on_c, 0, 69, 99
2, 98684, Note_off_c, 0, 73, 100
2, 98688, Note_on_c, 0, 72, 103
2, 99068, Note_off_c, 0, 69, 100
2, 99068, Note_off_c, 0, 72, 100
2, 99072, Note_on_c, 0, 73, 107
2, 99072, Note_on_c, 0, 69, 107
2, 99260, Note_off_c, 0, 73, 100
2, 99260, Note_off_c, 0, 69, 100
2, 99264, Note_on_c, 0, 81, 108
2, 99264, Note_on_c, 0, 78, 108
2, 99452, Note_off_c, 0, 81, 100
2, 99452, Note_off_c, 0, 78, 100
2, 99456, Note_on_c, 0, 81, 110
2, 99456, Note_on_c, 0, 78, 110
2, 99456, Note_on_c, 0, 69, 110
2, 100988, Note_off_c, 0, 69, 100
2, 100988, Note_off_c, 0, 78, 100
2, 100988, Note_off_c, 0, 81, 100
2, 100992, Note_on_c, 0, 87, 110
2, 100992, Note_on_c, 0, 81, 110
2, 100992, Note_on_c, 0, 78, 110
2, 100992, Note_on_c, 0, 75, 110
2, 102524, Note_off_c, 0, 75, 100
2, 102524, Note_off_c, 0, 78, 100
2, 102524, Note_off_c, 0, 81, 100
2, 102524, Note_off_c, 0, 87, 100
2, 102528, Note_on_c, 0, 90, 110
2, 102528, Note_on_c, 0, 87, 110
2, 102528, Note_on_c, 0, 81, 110
2, 102528, Note_on_c, 0, 78, 110
2, 104060, Note_off_c, 0, 78, 100
2, 104060, Note_off_c, 0, 81, 100
2, 104060, Note_off_c, 0, 87, 100
2, 104060, Note_off_c, 0, 90, 100
2, 104064, Note_on_c, 0, 78, 110
2, 104252, Note_off_c, 0, 78, 100
2, 104256, Note_on_c, 0, 69, 80
2, 104348, Note_off_c, 0, 69, 100
2, 104352, Note_on_c, 0, 72, 80
2, 104444, Note_off_c, 0, 72, 100
2, 104448, Note_on_c, 0, 71, 80
2, 104540, Note_off_c, 0, 71, 100
2, 104544, Note_on_c, 0, 70, 80
2, 104636, Note_off_c, 0, 70, 100
2, 104640, Note_on_c, 0, 71, 80
2, 104732, Note_off_c, 0, 71, 100
2, 104736, Note_on_c, 0, 68, 80
2, 104828, Note_off_c, 0, 68, 100
2, 104832, Note_on_c, 0, 78, 100
2, 105020, Note_off_c, 0, 78, 100
2, 105024, Note_on_c, 0, 69, 80
2, 105116, Note_off_c, 0, 69, 100
2, 105120, Note_on_c, 0, 72, 80
2, 105212, Note_off_c, 0, 72, 100
2, 105216, Note_on_c, 0, 71, 80
2, 105308, Note_off_c, 0, 71, 100
2, 105312, Note_on_c, 0, 70, 80
2, 105404, Note_off_c, 0, 70, 100
2, 105408, Note_on_c, 0, 71, 80
2, 105500, Note_off_c, 0, 71, 100
2, 105504, Note_on_c, 0, 68, 80
2, 105596, Note_off_c, 0, 68, 100
2, 105600, Note_on_c, 0, 78, 100
2, 105788, Note_off_c, 0, 78, 100
2, 105792, Note_on_c, 0, 69, 80
2, 105884, Note_off_c, 0, 69, 100
2, 105888, Note_on_c, 0, 72, 80
2, 105980, Note_off_c, 0, 72, 100
2, 105984, Note_on_c, 0, 71, 80
2, 106076, Note_off_c, 0, 71, 100
2, 106080, Note_on_c, 0, 70, 80
2, 106172, Note_off_c, 0, 70, 100
2, 106176, Note_on_c, 0, 71, 80
2, 106268, Note_off_c, 0, 71, 100
2, 106272, Note_on_c, 0, 69, 80
2, 106364, Note_off_c, 0, 69, 100
2, 106368, Note_on_c, 0, 68, 80
2, 106460, Note_off_c, 0, 68, 100
2, 106464, Note_on_c, 0, 66, 80
2, 106556, Note_off_c, 0, 66, 100
2, 106560, Note_on_c, 0, 68, 80
2, 106652, Note_off_c, 0, 68, 100
2, 106656, Note_on_c, 0, 66, 80
2, 106748, Note_off_c, 0, 66, 100
2, 106752, Note_on_c, 0, 64, 80
2, 106844, Note_off_c, 0, 64, 100
2, 106848, Note_on_c, 0, 63, 80
2, 106940, Note_off_c, 0, 63, 100
2, 106944, Note_on_c, 0, 64, 80
2, 107036, Note_off_c, 0, 64, 100
2, 107040, Note_on_c, 0, 66, 80
2, 107132, Note_off_c, 0, 66, 100
2, 107136, Note_on_c, 0, 68, 80
2, 107136, Note_on_c, 0, 64, 80
2, 107228, Note_off_c, 0, 64, 100
2, 107232, Note_on_c, 0, 59, 80
2, 107324, Note_off_c, 0, 59, 100
2, 107328, Note_on_c, 0, 64, 80
2, 107420, Note_off_c, 0, 64, 100
2, 107424, Note_on_c, 0, 59, 80
2, 107516, Note_off_c, 0, 68, 100
2, 107516, Note_off_c, 0, 59, 100
2, 107520, Note_on_c, 0, 71, 80
2, 107520, Note_on_c, 0, 68, 80
2, 107612, Note_off_c, 0, 68, 100
2, 107616, Note_on_c, 0, 59, 80
2, 107708, Note_off_c, 0, 71, 100
2, 107708, Note_off_c, 0, 59, 100
2, 107712, Note_on_c, 0, 69, 80
2, 107712, Note_on_c, 0, 66, 80
2, 107804, Note_off_c, 0, 66, 100
2, 107808, Note_on_c, 0, 59, 80
2, 107900, Note_off_c, 0, 69, 100
2, 107900, Note_off_c, 0, 59, 100
2, 107904, Note_on_c, 0, 68, 80
2, 107904, Note_on_c, 0, 64, 80
2, 107996, Note_off_c, 0, 64, 100
2, 108000, Note_on_c, 0, 59, 80
2, 108092, Note_off_c, 0, 68, 100
2, 108092, Note_off_c, 0, 59, 100
2, 108096, Note_on_c, 0, 66, 80
2, 108096, Note_on_c, 0, 63, 80
2, 108188, Note_off_c, 0, 63, 100
2, 108192, Note_on_c, 0, 59, 80
2, 108284, Note_off_c, 0, 66, 100
2, 108284, Note_off_c, 0, 59, 100
2, 108288, Note_on_c, 0, 66, 80
2, 108288, Note_on_c, 0, 63, 80
2, 108380, Note_off_c, 0, 63, 100
2, 108384, Note_on_c, 0, 59, 80
2, 108476, Note_off_c, 0, 66, 100
2, 108476, Note_off_c, 0, 59, 100
2, 108480, Note_on_c, 0, 68, 80
2, 108480, Note_on_c, 0, 64, 80
2, 108572, Note_off_c, 0, 64, 100
2, 108576, Note_on_c, 0, 59, 80
2, 108668, Note_off_c, 0, 68, 100
2, 108668, Note_off_c, 0, 59, 100
2, 108672, Note_on_c, 0, 69, 80
2, 108672, Note_on_c, 0, 64, 80
2, 108764, Note_off_c, 0, 64, 100
2, 108768, Note_on_c, 0, 59, 80
2, 108860, Note_off_c, 0, 69, 100
2, 108860, Note_off_c, 0, 59, 100
2, 108864, Note_on_c, 0, 73, 80
2, 108864, Note_on_c, 0, 64, 80
2, 108956, Note_off_c, 0, 64, 100
2, 108960, Note_on_c, 0, 59, 80
2, 109052, Note_off_c, 0, 73, 100
2, 109052, Note_off_c, 0, 59, 100
2, 109056, Note_on_c, 0, 71, 80
2, 109056, Note_on_c, 0, 66, 80
2, 109148, Note_off_c, 0, 66, 100
2, 109152, Note_on_c, 0, 59, 80
2, 109244, Note_off_c, 0, 71, 100
2, 109244, Note_off_c, 0, 59, 100
2, 109248, Note_on_c, 0, 66, 80
2, 109248, Note_on_c, 0, 63, 80
2, 109340, Note_off_c, 0, 63, 100
2, 109344, Note_on_c, 0, 59, 80
2, 109436, Note_off_c, 0, 66, 100
2, 109436, Note_off_c, 0, 59, 100
2, 109440, Note_on_c, 0, 68, 80
2, 109440, Note_on_c, 0, 64, 80
2, 109440, Note_on_c, 0, 59, 80
2, 109820, Note_off_c, 0, 68, 100
2, 109820, Note_off_c, 0, 64, 100
2, 109820, Note_off_c, 0, 59, 100
2, 110016, Note_on_c, 0, 76, 80
2, 110108, Note_off_c, 0, 76, 100
2, 110112, Note_on_c, 0, 78, 80
2, 110204, Note_off_c, 0, 78, 100
2, 110208, Note_on_c, 0, 80, 80
2, 110208, Note_on_c, 0, 68, 80
2, 110588, Note_off_c, 0, 80, 100
2, 110588, Note_off_c, 0, 68, 100
2, 110592, Note_on_c, 0, 83, 80
2, 110592, Note_on_c, 0, 71, 80
2, 110780, Note_off_c, 0, 83, 100
2, 110780, Note_off_c, 0, 71, 100
2, 110784, Note_on_c, 0, 81, 80
2, 110784, Note_on_c, 0, 69, 80
2, 110972, Note_off_c, 0, 81, 100
2, 110972, Note_off_c, 0, 69, 100
2, 110976, Note_on_c, 0, 80, 80
2, 110976, Note_on_c, 0, 68, 80
2, 111164, Note_off_c, 0, 80, 100
2, 111164, Note_off_c, 0, 68, 100
2, 111168, Note_on_c, 0, 78, 80
2, 111168, Note_on_c, 0, 66, 80
2, 111356, Note_off_c, 0, 78, 100
2, 111356, Note_off_c, 0, 66, 100
2, 111360, Note_on_c, 0, 78, 80
2, 111360, Note_on_c, 0, 66, 80
2, 111548, Note_off_c, 0, 78, 100
2, 111548, Note_off_c, 0, 66, 100
2, 111552, Note_on_c, 0, 80, 80
2, 111552, Note_on_c, 0, 68, 80
2, 111740, Note_off_c, 0, 80, 100
2, 111740, Note_off_c, 0, 68, 100
2, 111744, Note_on_c, 0, 81, 80
2, 111744, Note_on_c, 0, 69, 80
2, 111932, Note_off_c, 0, 81, 100
2, 111932, Note_off_c, 0, 69, 100
2, 111936, Note_on_c, 0, 85, 89
2, 111936, Note_on_c, 0, 73, 89
2, 112124, Note_off_c, 0, 85, 100
2, 112124, Note_off_c, 0, 73, 100
2, 112128, Note_on_c, 0, 83, 99
2, 112128, Note_on_c, 0, 71, 99
2, 112316, Note_off_c, 0, 83, 100
2, 112316, Note_off_c, 0, 71, 100
2, 112320, Note_on_c, 0, 87, 80
2, 112320, Note_on_c, 0, 75, 80
2, 112508, Note_off_c, 0, 87, 100
2, 112508, Note_off_c, 0, 75, 100
2, 112512, Note_on_c, 0, 88, 80
2, 112512, Note_on_c, 0, 76, 80
2, 112892, Note_off_c, 0, 88, 100
2, 112892, Note_off_c, 0, 76, 100
2, 113088, Note_on_c, 0, 71, 80
2, 113276, Note_off_c, 0, 71, 100
2, 113280, Note_on_c, 0, 70, 80
2, 113660, Note_off_c, 0, 70, 100
2, 113664, Note_on_c, 0, 76, 80
2, 114044, Note_off_c, 0, 76, 100
2, 114048, Note_on_c, 0, 75, 80
2, 114620, Note_off_c, 0, 75, 100
2, 114624, Note_on_c, 0, 69, 80
2, 114812, Note_off_c, 0, 69, 100
2, 114816, Note_on_c, 0, 68, 80
2, 115196, Note_off_c, 0, 68, 100
2, 115200, Note_on_c, 0, 74, 80
2, 115580, Note_off_c, 0, 74, 100
2, 115584, Note_on_c, 0, 73, 80
2, 116156, Note_off_c, 0, 73, 100
2, 116160, Note_on_c, 0, 73, 80
2, 116348, Note_off_c, 0, 73, 100
2, 116352, Note_on_c, 0, 72, 82
2, 116540, Note_off_c, 0, 72, 100
2, 116544, Note_on_c, 0, 73, 84
2, 116732, Note_off_c, 0, 73, 100
2, 116736, Note_on_c, 0, 69, 87
2, 116736, Note_on_c, 0, 64, 87
2, 116736, Note_on_c, 0, 61, 87
2, 116924, Note_off_c, 0, 69, 100
2, 116924, Note_off_c, 0, 64, 100
2, 116924, Note_off_c, 0, 61, 100
2, 116928, Note_on_c, 0, 68, 89
2, 116928, Note_on_c, 0, 64, 89
2, 116928, Note_on_c, 0, 59, 89
2, 117116, Note_off_c, 0, 68, 100
2, 117116, Note_off_c, 0, 64, 100
2, 117116, Note_off_c, 0, 59, 100
2, 117120, Note_on_c, 0, 68, 91
2, 117120, Note_on_c, 0, 58, 91
2, 117120, Note_on_c, 0, 64, 91
2, 117308, Note_off_c, 0, 68, 100
2, 117312, Note_on_c, 0, 66, 94
2, 117500, Note_off_c, 0, 58, 100
2, 117500, Note_off_c, 0, 64, 100
2, 117504, Note_on_c, 0, 64, 96
2, 117504, Note_on_c, 0, 57, 96
2, 117692, Note_off_c, 0, 66, 100
2, 117696, Note_on_c, 0, 66, 98
2, 117884, Note_off_c, 0, 64, 100
2, 117884, Note_off_c, 0, 57, 100
2, 117884, Note_off_c, 0, 66, 100
2, 117888, Note_on_c, 0, 66, 80
2, 117888, Note_on_c, 0, 63, 80
2, 117888, Note_on_c, 0, 57, 80
2, 118076, Note_off_c, 0, 66, 100
2, 118076, Note_off_c, 0, 63, 100
2, 118076, Note_off_c, 0, 57, 100
2, 118080, Note_on_c, 0, 71, 80
2, 118080, Note_on_c, 0, 63, 80
2, 118268, Note_off_c, 0, 71, 100
2, 118268, Note_off_c, 0, 63, 100
2, 118272, Note_on_c, 0, 70, 80
2, 118460, Note_off_c, 0, 70, 100
2, 118464, Note_on_c, 0, 71, 80
2, 118464, Note_on_c, 0, 63, 80
2, 118652, Note_off_c, 0, 71, 100
2, 118652, Note_off_c, 0, 63, 100
2, 118656, Note_on_c, 0, 64, 80
2, 119036, Note_off_c, 0, 64, 100
2, 119232, Note_on_c, 0, 83, 80
2, 119232, Note_on_c, 0, 71, 80
2, 119420, Note_off_c, 0, 83, 100
2, 119420, Note_off_c, 0, 71, 100
2, 119424, Note_on_c, 0, 70, 80
2, 119424, Note_on_c, 0, 82, 80
2, 119804, Note_off_c, 0, 70, 100
2, 119804, Note_off_c, 0, 82, 100
2, 119808, Note_on_c, 0, 76, 80
2, 119808, Note_on_c, 0, 88, 80
2, 120188, Note_off_c, 0, 76, 100
2, 120188, Note_off_c, 0, 88, 100
2, 120192, Note_on_c, 0, 87, 80
2, 120192, Note_on_c, 0, 75, 80
2, 120764, Note_off_c, 0, 87, 100
2, 120764, Note_off_c, 0, 75, 100
2, 120768, Note_on_c, 0, 81, 80
2, 120768, Note_on_c, 0, 69, 80
2, 120956, Note_off_c, 0, 81, 100
2, 120956, Note_off_c, 0, 69, 100
2, 120960, Note_on_c, 0, 80, 80
2, 120960, Note_on_c, 0, 68, 80
2, 121340, Note_off_c, 0, 80, 100
2, 121340, Note_off_c, 0, 68, 100
2, 121344, Note_on_c, 0, 86, 80
2, 121344, Note_on_c, 0, 74, 80
2, 121724, Note_off_c, 0, 86, 100
2, 121724, Note_off_c, 0, 74, 100
2, 121728, Note_on_c, 0, 73, 80
2, 121728, Note_on_c, 0, 85, 80
2, 122300, Note_off_c, 0, 73, 100
2, 122300, Note_off_c, 0, 85, 100
2, 122304, Note_on_c, 0, 85, 80
2, 122304, Note_on_c, 0, 73, 80
2, 122492, Note_off_c, 0, 85, 100
2, 122492, Note_off_c, 0, 73, 100
2, 122496, Note_on_c, 0, 72, 82
2, 122496, Note_on_c, 0, 84, 82
2, 122684, Note_off_c, 0, 72, 100
2, 122684, Note_off_c, 0, 84, 100
2, 122688, Note_on_c, 0, 85, 84
2, 122688, Note_on_c, 0, 73, 84
2, 122876, Note_off_c, 0, 85, 100
2, 122876, Note_off_c, 0, 73, 100
2, 122880, Note_on_c, 0, 81, 87
2, 122880, Note_on_c, 0, 69, 87
2, 123068, Note_off_c, 0, 81, 100
2, 123068, Note_off_c, 0, 69, 100
2, 123072, Note_on_c, 0, 80, 89
2, 123072, Note_on_c, 0, 68, 89
2, 123260, Note_off_c, 0, 80, 100
2, 123260, Note_off_c, 0, 68, 100
2, 123264, Note_on_c, 0, 80, 91
2, 123264, Note_on_c, 0, 68, 91
2, 123452, Note_off_c, 0, 80, 100
2, 123452, Note_off_c, 0, 68, 100
2, 123456, Note_on_c, 0, 78, 94
2, 123456, Note_on_c, 0, 66, 94
2, 123836, Note_off_c, 0, 78, 100
2, 123836, Note_off_c, 0, 66, 100
2, 123840, Note_on_c, 0, 78, 100
2, 123840, Note_on_c, 0, 66, 100
2, 124028, Note_off_c, 0, 78, 100
2, 124028, Note_off_c, 0, 66, 100
2, 124032, Note_on_c, 0, 78, 80
2, 124032, Note_on_c, 0, 66, 80
2, 124220, Note_off_c, 0, 78, 100
2, 124220, Note_off_c, 0, 66, 100
2, 124224, Note_on_c, 0, 83, 80
2, 124224, Note_on_c, 0, 71, 80
2, 124412, Note_off_c, 0, 83, 100
2, 124412, Note_off_c, 0, 71, 100
2, 124416, Note_on_c, 0, 82, 80
2, 124416, Note_on_c, 0, 70, 80
2, 124604, Note_off_c, 0, 82, 100
2, 124604, Note_off_c, 0, 70, 100
2, 124608, Note_on_c, 0, 83, 80
2, 124608, Note_on_c, 0, 71, 80
2, 124796, Note_off_c, 0, 83, 100
2, 124796, Note_off_c, 0, 71, 100
2, 124800, Note_on_c, 0, 76, 80
2, 124800, Note_on_c, 0, 64, 80
2, 125180, Note_off_c, 0, 76, 100
2, 125180, Note_off_c, 0, 64, 100
2, 125376, Note_on_c, 0, 64, 80
2, 125468, Note_off_c, 0, 64, 100
2, 125472, Note_on_c, 0, 66, 80
2, 125564, Note_off_c, 0, 66, 100
2, 125568, Note_on_c, 0, 68, 80
2, 125568, Note_on_c, 0, 64, 80
2, 125660, Note_off_c, 0, 64, 100
2, 125664, Note_on_c, 0, 59, 80
2, 125756, Note_off_c, 0, 59, 100
2, 125760, Note_on_c, 0, 64, 80
2, 125852, Note_off_c, 0, 64, 100
2, 125856, Note_on_c, 0, 59, 80
2, 125948, Note_off_c, 0, 68, 100
2, 125948, Note_off_c, 0, 59, 100
2, 125952, Note_on_c, 0, 71, 80
2, 125952, Note_on_c, 0, 68, 80
2, 126044, Note_off_c, 0, 68, 100
2, 126048, Note_on_c, 0, 59, 80
2, 126140, Note_off_c, 0, 71, 100
2, 126140, Note_off_c, 0, 59, 100
2, 126144, Note_on_c, 0, 69, 80
2, 126144, Note_on_c, 0, 66, 80
2, 126236, Note_off_c, 0, 66, 100
2, 126240, Note_on_c, 0, 59, 80
2, 126332, Note_off_c, 0, 69, 100
2, 126332, Note_off_c, 0, 59, 100
2, 126336, Note_on_c, 0, 68, 80
2, 126336, Note_on_c, 0, 64, 80
2, 126428, Note_off_c, 0, 64, 100
2, 126432, Note_on_c, 0, 59, 80
2, 126524, Note_off_c, 0, 68, 100
2, 126524, Note_off_c, 0, 59, 100
2, 126528, Note_on_c, 0, 66, 80
2, 126528, Note_on_c, 0, 63, 80
2, 126620, Note_off_c, 0, 63, 100
2, 126624, Note_on_c, 0, 59, 80
2, 126716, Note_off_c, 0, 66, 100
2, 126716, Note_off_c, 0, 59, 100
2, 126720, Note_on_c, 0, 66, 80
2, 126720, Note_on_c, 0, 63, 80
2, 126812, Note_off_c, 0, 63, 100
2, 126816, Note_on_c, 0, 59, 80
2, 126908, Note_off_c, 0, 66, 100
2, 126908, Note_off_c, 0, 59, 100
2, 126912, Note_on_c, 0, 68, 80
2, 126912, Note_on_c, 0, 64, 80
2, 127004, Note_off_c, 0, 64, 100
2, 127008, Note_on_c, 0, 59, 80
2, 127100, Note_off_c, 0, 68, 100
2, 127100, Note_off_c, 0, 59, 100
2, 127104, Note_on_c, 0, 69, 80
2, 127104, Note_on_c, 0, 64, 80
2, 127196, Note_off_c, 0, 64, 100
2, 127200, Note_on_c, 0, 59, 80
2, 127292, Note_off_c, 0, 69, 100
2, 127292, Note_off_c, 0, 59, 100
2, 127296, Note_on_c, 0, 73, 80
2, 127296, Note_on_c, 0, 64, 80
2, 127388, Note_off_c, 0, 64, 100
2, 127392, Note_on_c, 0, 59, 80
2, 127484, Note_off_c, 0, 73, 100
2, 127484, Note_off_c, 0, 59, 100
2, 127488, Note_on_c, 0, 71, 80
2, 127488, Note_on_c, 0, 66, 80
2, 127580, Note_off_c, 0, 66, 100
2, 127584, Note_on_c, 0, 59, 80
2, 127676, Note_off_c, 0, 71, 100
2, 127676, Note_off_c, 0, 59, 100
2, 127680, Note_on_c, 0, 66, 80
2, 127680, Note_on_c, 0, 63, 80
2, 127772, Note_off_c, 0, 63, 100
2, 127776, Note_on_c, 0, 59, 80
2, 127868, Note_off_c, 0, 66, 100
2, 127868, Note_off_c, 0, 59, 100
2, 127872, Note_on_c, 0, 68, 80
2, 127872, Note_on_c, 0, 64, 80
2, 127872, Note_on_c, 0, 59, 80
2, 128252, Note_off_c, 0, 68, 100
2, 128252, Note_off_c, 0, 64, 100
2, 128252, Note_off_c, 0, 59, 100
2, 128256, Note_on_c, 0, 78, 80
2, 128284, Note_off_c, 0, 78, 100
2, 128288, Note_on_c, 0, 76, 80
2, 128348, Note_off_c, 0, 76, 100
2, 128352, Note_on_c, 0, 75, 81
2, 128444, Note_off_c, 0, 75, 100
2, 128448, Note_on_c, 0, 76, 82
2, 128540, Note_off_c, 0, 76, 100
2, 128544, Note_on_c, 0, 78, 83
2, 128636, Note_off_c, 0, 78, 100
2, 128640, Note_on_c, 0, 81, 84
2, 128668, Note_off_c, 0, 81, 100
2, 128672, Note_on_c, 0, 80, 84
2, 128732, Note_off_c, 0, 80, 100
2, 128736, Note_on_c, 0, 78, 85
2, 128828, Note_off_c, 0, 78, 100
2, 128832, Note_on_c, 0, 80, 86
2, 128924, Note_off_c, 0, 80, 100
2, 128928, Note_on_c, 0, 81, 87
2, 129020, Note_off_c, 0, 81, 100
2, 129024, Note_on_c, 0, 83, 88
2, 129024, Note_on_c, 0, 71, 88
2, 129212, Note_off_c, 0, 83, 100
2, 129212, Note_off_c, 0, 71, 100
2, 129216, Note_on_c, 0, 81, 91
2, 129216, Note_on_c, 0, 69, 91
2, 129404, Note_off_c, 0, 81, 100
2, 129404, Note_off_c, 0, 69, 100
2, 129408, Note_on_c, 0, 68, 93
2, 129408, Note_on_c, 0, 80, 93
2, 129596, Note_off_c, 0, 68, 100
2, 129596, Note_off_c, 0, 80, 100
2, 129600, Note_on_c, 0, 78, 95
2, 129600, Note_on_c, 0, 66, 95
2, 129788, Note_off_c, 0, 78, 100
2, 129788, Note_off_c, 0, 66, 100
2, 129792, Note_on_c, 0, 78, 97
2, 129792, Note_on_c, 0, 66, 97
2, 129980, Note_off_c, 0, 78, 100
2, 129980, Note_off_c, 0, 66, 100
2, 129984, Note_on_c, 0, 80, 99
2, 129984, Note_on_c, 0, 68, 99
2, 130172, Note_off_c, 0, 80, 100
2, 130172, Note_off_c, 0, 68, 100
2, 130176, Note_on_c, 0, 81, 102
2, 130176, Note_on_c, 0, 69, 102
2, 130364, Note_off_c, 0, 81, 100
2, 130364, Note_off_c, 0, 69, 100
2, 130368, Note_on_c, 0, 85, 104
2, 130368, Note_on_c, 0, 73, 104
2, 130556, Note_off_c, 0, 85, 100
2, 130556, Note_off_c, 0, 73, 100
2, 130560, Note_on_c, 0, 83, 106
2, 130560, Note_on_c, 0, 71, 106
2, 130748, Note_off_c, 0, 83, 100
2, 130748, Note_off_c, 0, 71, 100
2, 130752, Note_on_c, 0, 87, 108
2, 130752, Note_on_c, 0, 81, 108
2, 130752, Note_on_c, 0, 75, 108
2, 130940, Note_off_c, 0, 87, 100
2, 130940, Note_off_c, 0, 81, 100
2, 130940, Note_off_c, 0, 75, 100
2, 130944, Note_on_c, 0, 88, 110
2, 130944, Note_on_c, 0, 80, 110
2, 130944, Note_on_c, 0, 76, 110
2, 131324, Note_off_c, 0, 88, 100
2, 131324, Note_off_c, 0, 80, 100
2, 131324, Note_off_c, 0, 76, 100
2, 131520, Note_on_c, 0, 68, 110
2, 131520, Note_on_c, 0, 64, 110
2, 131708, Note_off_c, 0, 68, 100
2, 131708, Note_off_c, 0, 64, 100
2, 131712, Note_on_c, 0, 68, 110
2, 131712, Note_on_c, 0, 64, 110
2, 132284, Note_off_c, 0, 68, 100
2, 132284, Note_off_c, 0, 64, 100
2, 132288, Note_on_c, 0, 76, 80
2, 132288, Note_on_c, 0, 68, 80
2, 132288, Note_on_c, 0, 64, 80
2, 132476, Note_off_c, 0, 76, 100
2, 132476, Note_off_c, 0, 68, 100
2, 132476, Note_off_c, 0, 64, 100
2, 132480, Note_on_c, 0, 75, 80
2, 132480, Note_on_c, 0, 68, 80
2, 132480, Note_on_c, 0, 66, 80
2, 132480, Note_on_c, 0, 63, 80
2, 133052, Note_off_c, 0, 75, 100
2, 133052, Note_off_c, 0, 68, 100
2, 133052, Note_off_c, 0, 66, 100
2, 133052, Note_off_c, 0, 63, 100
2, 133056, Note_on_c, 0, 68, 110
2, 133056, Note_on_c, 0, 63, 110
2, 133244, Note_off_c, 0, 68, 100
2, 133244, Note_off_c, 0, 63, 100
2, 133248, Note_on_c, 0, 68, 110
2, 133248, Note_on_c, 0, 62, 110
2, 133248, Note_on_c, 0, 64, 110
2, 133820, Note_off_c, 0, 68, 100
2, 133820, Note_off_c, 0, 62, 100
2, 133820, Note_off_c, 0, 64, 100
2, 133824, Note_on_c, 0, 74, 80
2, 133824, Note_on_c, 0, 64, 80
2, 133824, Note_on_c, 0, 62, 80
2, 134012, Note_off_c, 0, 74, 100
2, 134012, Note_off_c, 0, 64, 100
2, 134012, Note_off_c, 0, 62, 100
2, 134016, Note_on_c, 0, 73, 80
2, 134016, Note_on_c, 0, 64, 80
2, 134016, Note_on_c, 0, 61, 80
2, 134588, Note_off_c, 0, 73, 100
2, 134588, Note_off_c, 0, 64, 100
2, 134588, Note_off_c, 0, 61, 100
2, 134592, Note_on_c, 0, 61, 110
2, 134780, Note_off_c, 0, 61, 100
2, 134784, Note_on_c, 0, 61, 110
2, 134784, Note_on_c, 0, 59, 110
2, 135356, Note_off_c, 0, 61, 100
2, 135356, Note_off_c, 0, 59, 100
2, 135360, Note_on_c, 0, 71, 80
2, 135360, Note_on_c, 0, 61, 80
2, 135360, Note_on_c, 0, 59, 80
2, 135548, Note_off_c, 0, 71, 100
2, 135548, Note_off_c, 0, 61, 100
2, 135548, Note_off_c, 0, 59, 100
2, 135552, Note_on_c, 0, 69, 80
2, 135552, Note_on_c, 0, 57, 80
2, 135552, Note_on_c, 0, 61, 80
2, 136124, Note_off_c, 0, 69, 100
2, 136124, Note_off_c, 0, 57, 100
2, 136124, Note_off_c, 0, 61, 100
2, 136128, Note_on_c, 0, 81, 110
2, 136128, Note_on_c, 0, 78, 110
2, 136128, Note_on_c, 0, 73, 110
2, 136316, Note_off_c, 0, 81, 100
2, 136316, Note_off_c, 0, 78, 100
2, 136316, Note_off_c, 0, 73, 100
2, 136320, Note_on_c, 0, 81, 110
2, 136320, Note_on_c, 0, 78, 110
2, 136320, Note_on_c, 0, 71, 110
2, 136892, Note_off_c, 0, 81, 100
2, 136892, Note_off_c, 0, 78, 100
2, 136892, Note_off_c, 0, 71, 100
2, 136896, Note_on_c, 0, 69, 110
2, 136896, Note_on_c, 0, 66, 110
2, 137084, Note_off_c, 0, 69, 100
2, 137084, Note_off_c, 0, 66, 100
2, 137088, Note_on_c, 0, 69, 110
2, 137088, Note_on_c, 0, 64, 110
2, 137660, Note_off_c, 0, 69, 100
2, 137660, Note_off_c, 0, 64, 100
2, 137664, Note_on_c, 0, 81, 110
2, 137664, Note_on_c, 0, 76, 110
2, 137664, Note_on_c, 0, 69, 110
2, 137852, Note_off_c, 0, 81, 100
2, 137852, Note_off_c, 0, 76, 100
2, 137852, Note_off_c, 0, 69, 100
2, 137856, Note_on_c, 0, 81, 110
2, 137856, Note_on_c, 0, 78, 110
2, 137856, Note_on_c, 0, 75, 110
2, 137856, Note_on_c, 0, 69, 110
2, 138044, Note_off_c, 0, 81, 100
2, 138044, Note_off_c, 0, 78, 100
2, 138044, Note_off_c, 0, 75, 100
2, 138044, Note_off_c, 0, 69, 100
2, 138624, Note_on_c, 0, 90, 80
2, 138624, Note_on_c, 0, 81, 80
2, 139196, Note_off_c, 0, 90, 100
2, 139196, Note_off_c, 0, 81, 100
2, 139200, Note_on_c, 0, 88, 80
2, 139200, Note_on_c, 0, 80, 80
2, 139388, Note_off_c, 0, 88, 100
2, 139388, Note_off_c, 0, 80, 100
2, 139392, Note_on_c, 0, 88, 80
2, 139392, Note_on_c, 0, 80, 80
2, 139580, Note_off_c, 0, 88, 100
2, 139580, Note_off_c, 0, 80, 100
2, 139584, Note_on_c, 0, 78, 80
2, 139584, Note_on_c, 0, 87, 80
2, 139772, Note_off_c, 0, 78, 100
2, 139772, Note_off_c, 0, 87, 100
2, 139776, Note_on_c, 0, 78, 80
2, 139776, Note_on_c, 0, 87, 80
2, 139964, Note_off_c, 0, 78, 100
2, 139964, Note_off_c, 0, 87, 100
2, 139968, Note_on_c, 0, 80, 80
2, 139968, Note_on_c, 0, 88, 80
2, 140156, Note_off_c, 0, 80, 100
2, 140156, Note_off_c, 0, 88, 100
2, 140160, Note_on_c, 0, 90, 80
2, 140160, Note_on_c, 0, 81, 80
2, 140732, Note_off_c, 0, 90, 100
2, 140732, Note_off_c, 0, 81, 100
2, 140736, Note_on_c, 0, 88, 80
2, 140736, Note_on_c, 0, 80, 80
2, 140924, Note_off_c, 0, 88, 100
2, 140924, Note_off_c, 0, 80, 100
2, 140928, Note_on_c, 0, 78, 80
2, 140928, Note_on_c, 0, 87, 80
2, 141116, Note_off_c, 0, 78, 100
2, 141116, Note_off_c, 0, 87, 100
2, 141120, Note_on_c, 0, 81, 80
2, 141120, Note_on_c, 0, 90, 80
2, 141308, Note_off_c, 0, 81, 100
2, 141308, Note_off_c, 0, 90, 100
2, 141312, Note_on_c, 0, 80, 80
2, 141312, Note_on_c, 0, 88, 80
2, 141500, Note_off_c, 0, 80, 100
2, 141500, Note_off_c, 0, 88, 100
2, 141504, Note_on_c, 0, 78, 80
2, 141504, Note_on_c, 0, 87, 80
2, 141692, Note_off_c, 0, 78, 100
2, 141692, Note_off_c, 0, 87, 100
2, 141696, Note_on_c, 0, 88, 80
2, 141696, Note_on_c, 0, 83, 80
2, 141884, Note_off_c, 0, 88, 100
2, 141884, Note_off_c, 0, 83, 100
2, 141888, Note_on_c, 0, 87, 80
2, 142076, Note_off_c, 0, 87, 100
2, 142080, Note_on_c, 0, 85, 80
2, 142268, Note_off_c, 0, 85, 100
2, 142272, Note_on_c, 0, 83, 80
2, 142460, Note_off_c, 0, 83, 100
2, 142464, Note_on_c, 0, 85, 80
2, 142652, Note_off_c, 0, 85, 100
2, 142656, Note_on_c, 0, 83, 80
2, 142844, Note_off_c, 0, 83, 100
2, 142848, Note_on_c, 0, 81, 80
2, 143036, Note_off_c, 0, 81, 100
2, 143040, Note_on_c, 0, 80, 80
2, 143228, Note_off_c, 0, 80, 100
2, 143232, Note_on_c, 0, 80, 80
2, 143804, Note_off_c, 0, 80, 100
2, 143808, Note_on_c, 0, 81, 80
2, 143900, Note_off_c, 0, 81, 100
2, 143904, Note_on_c, 0, 83, 80
2, 143996, Note_off_c, 0, 83, 100
2, 144000, Note_on_c, 0, 78, 80
2, 144188, Note_off_c, 0, 78, 100
2, 144192, Note_on_c, 0, 71, 80
2, 144284, Note_off_c, 0, 71, 100
2, 144288, Note_on_c, 0, 73, 80
2, 144380, Note_off_c, 0, 73, 100
2, 144384, Note_on_c, 0, 71, 80
2, 144476, Note_off_c, 0, 71, 100
2, 144480, Note_on_c, 0, 73, 80
2, 144572, Note_off_c, 0, 73, 100
2, 144576, Note_on_c, 0, 71, 80
2, 144668, Note_off_c, 0, 71, 100
2, 144672, Note_on_c, 0, 73, 80
2, 144764, Note_off_c, 0, 73, 100
2, 144768, Note_on_c, 0, 71, 80
2, 144768, Note_on_c, 0, 81, 80
2, 144768, Note_on_c, 0, 78, 80
2, 144860, Note_off_c, 0, 71, 100
2, 144864, Note_on_c, 0, 73, 80
2, 144956, Note_off_c, 0, 73, 100
2, 144960, Note_on_c, 0, 71, 80
2, 145052, Note_off_c, 0, 71, 100
2, 145056, Note_on_c, 0, 73, 80
2, 145148, Note_off_c, 0, 73, 100
2, 145152, Note_on_c, 0, 71, 80
2, 145244, Note_off_c, 0, 71, 100
2, 145248, Note_on_c, 0, 73, 80
2, 145340, Note_off_c, 0, 81, 100
2, 145340, Note_off_c, 0, 78, 100
2, 145340, Note_off_c, 0, 73, 100
2, 145344, Note_on_c, 0, 71, 80
2, 145344, Note_on_c, 0, 80, 80
2, 145344, Note_on_c, 0, 76, 80
2, 145436, Note_off_c, 0, 71, 100
2, 145440, Note_on_c, 0, 73, 80
2, 145532, Note_off_c, 0, 80, 100
2, 145532, Note_off_c, 0, 76, 100
2, 145532, Note_off_c, 0, 73, 100
2, 145536, Note_on_c, 0, 71, 80
2, 145536, Note_on_c, 0, 80, 80
2, 145536, Note_on_c, 0, 76, 80
2, 145628, Note_off_c, 0, 71, 100
2, 145632, Note_on_c, 0, 73, 80
2, 145724, Note_off_c, 0, 80, 100
2, 145724, Note_off_c, 0, 76, 100
2, 145724, Note_off_c, 0, 73, 100
2, 145728, Note_on_c, 0, 71, 80
2, 145728, Note_on_c, 0, 78, 80
2, 145728, Note_on_c, 0, 75, 80
2, 145820, Note_off_c, 0, 71, 100
2, 145824, Note_on_c, 0, 73, 80
2, 145916, Note_off_c, 0, 78, 100
2, 145916, Note_off_c, 0, 75, 100
2, 145916, Note_off_c, 0, 73, 100
2, 145920, Note_on_c, 0, 71, 80
2, 145920, Note_on_c, 0, 78, 80
2, 145920, Note_on_c, 0, 75, 80
2, 146012, Note_off_c, 0, 71, 100
2, 146016, Note_on_c, 0, 73, 80
2, 146108, Note_off_c, 0, 78, 100
2, 146108, Note_off_c, 0, 75, 100
2, 146108, Note_off_c, 0, 73, 100
2, 146112, Note_on_c, 0, 71, 80
2, 146112, Note_on_c, 0, 80, 80
2, 146112, Note_on_c, 0, 76, 80
2, 146204, Note_off_c, 0, 71, 100
2, 146208, Note_on_c, 0, 73, 80
2, 146300, Note_off_c, 0, 80, 100
2, 146300, Note_off_c, 0, 76, 100
2, 146300, Note_off_c, 0, 73, 100
2, 146304, Note_on_c, 0, 71, 80
2, 146304, Note_on_c, 0, 81, 80
2, 146304, Note_on_c, 0, 78, 80
2, 146396, Note_off_c, 0, 71, 100
2, 146400, Note_on_c, 0, 73, 81
2, 146492, Note_off_c, 0, 73, 100
2, 146496, Note_on_c, 0, 71, 83
2, 146588, Note_off_c, 0, 71, 100
2, 146592, Note_on_c, 0, 73, 85
2, 146684, Note_off_c, 0, 73, 100
2, 146688, Note_on_c, 0, 71, 87
2, 146780, Note_off_c, 0, 71, 100
2, 146784, Note_on_c, 0, 73, 89
2, 146876, Note_off_c, 0, 81, 100
2, 146876, Note_off_c, 0, 78, 100
2, 146876, Note_off_c, 0, 73, 100
2, 146880, Note_on_c, 0, 71, 91
2, 146880, Note_on_c, 0, 80, 91
2, 146880, Note_on_c, 0, 76, 91
2, 146972, Note_off_c, 0, 71, 100
2, 146976, Note_on_c, 0, 73, 93
2, 147068, Note_off_c, 0, 80, 100
2, 147068, Note_off_c, 0, 76, 100
2, 147068, Note_off_c, 0, 73, 100
2, 147072, Note_on_c, 0, 75, 95
2, 147072, Note_on_c, 0, 78, 95
2, 147168, Note_on_c, 0, 71, 97
2, 147260, Note_off_c, 0, 75, 100
2, 147260, Note_off_c, 0, 78, 100
2, 147260, Note_off_c, 0, 71, 100
2, 147264, Note_on_c, 0, 81, 99
2, 147264, Note_on_c, 0, 85, 99
2, 147360, Note_on_c, 0, 71, 101
2, 147452, Note_off_c, 0, 81, 100
2, 147452, Note_off_c, 0, 85, 100
2, 147452, Note_off_c, 0, 71, 100
2, 147456, Note_on_c, 0, 80, 103
2, 147456, Note_on_c, 0, 83, 103
2, 147552, Note_on_c, 0, 71, 105
2, 147644, Note_off_c, 0, 80, 100
2, 147644, Note_off_c, 0, 83, 100
2, 147644, Note_off_c, 0, 71, 100
2, 147648, Note_on_c, 0, 78, 107
2, 147648, Note_on_c, 0, 81, 107
2, 147744, Note_on_c, 0, 71, 109
2, 147836, Note_off_c, 0, 78, 100
2, 147836, Note_off_c, 0, 81, 100
2, 147836, Note_off_c, 0, 71, 100
2, 147840, Note_on_c, 0, 76, 110
2, 147840, Note_on_c, 0, 80, 110
2, 147936, Note_on_c, 0, 71, 109
2, 148028, Note_off_c, 0, 76, 100
2, 148028, Note_off_c, 0, 80, 100
2, 148028, Note_off_c, 0, 71, 100
2, 148032, Note_on_c, 0, 80, 107
2, 148032, Note_on_c, 0, 83, 107
2, 148128, Note_on_c, 0, 71, 106
2, 148220, Note_off_c, 0, 80, 100
2, 148220, Note_off_c, 0, 83, 100
2, 148220, Note_off_c, 0, 71, 100
2, 148224, Note_on_c, 0, 78, 104
2, 148224, Note_on_c, 0, 81, 104
2, 148320, Note_on_c, 0, 71, 102
2, 148412, Note_off_c, 0, 78, 100
2, 148412, Note_off_c, 0, 81, 100
2, 148412, Note_off_c, 0, 71, 100
2, 148416, Note_on_c, 0, 76, 101
2, 148416, Note_on_c, 0, 80, 101
2, 148512, Note_on_c, 0, 71, 99
2, 148604, Note_off_c, 0, 76, 100
2, 148604, Note_off_c, 0, 80, 100
2, 148604, Note_off_c, 0, 71, 100
2, 148608, Note_on_c, 0, 75, 97
2, 148608, Note_on_c, 0, 78, 97
2, 148704, Note_on_c, 0, 71, 96
2, 148796, Note_off_c, 0, 75, 100
2, 148796, Note_off_c, 0, 78, 100
2, 148796, Note_off_c, 0, 71, 100
2, 148800, Note_on_c, 0, 78, 94
2, 148800, Note_on_c, 0, 81, 94
2, 148896, Note_on_c, 0, 71, 92
2, 148988, Note_off_c, 0, 78, 100
2, 148988, Note_off_c, 0, 81, 100
2, 148988, Note_off_c, 0, 71, 100
2, 148992, Note_on_c, 0, 76, 91
2, 148992, Note_on_c, 0, 80, 91
2, 149088, Note_on_c, 0, 71, 89
2, 149180, Note_off_c, 0, 76, 100
2, 149180, Note_off_c, 0, 80, 100
2, 149180, Note_off_c, 0, 71, 100
2, 149184, Note_on_c, 0, 75, 87
2, 149184, Note_on_c, 0, 78, 87
2, 149280, Note_on_c, 0, 71, 86
2, 149372, Note_off_c, 0, 75, 100
2, 149372, Note_off_c, 0, 78, 100
2, 149372, Note_off_c, 0, 71, 100
2, 149376, Note_on_c, 0, 71, 84
2, 149376, Note_on_c, 0, 76, 84
2, 149472, Note_on_c, 0, 68, 82
2, 149564, Note_off_c, 0, 71, 100
2, 149564, Note_off_c, 0, 76, 100
2, 149564, Note_off_c, 0, 68, 100
2, 149568, Note_on_c, 0, 71, 81
2, 149568, Note_on_c, 0, 74, 81
2, 149664, Note_on_c, 0, 65, 79
2, 149756, Note_off_c, 0, 71, 100
2, 149756, Note_off_c, 0, 74, 100
2, 149756, Note_off_c, 0, 65, 100
2, 149760, Note_on_c, 0, 71, 77
2, 149760, Note_on_c, 0, 73, 77
2, 149856, Note_on_c, 0, 65, 76
2, 149948, Note_off_c, 0, 71, 100
2, 149948, Note_off_c, 0, 73, 100
2, 149948, Note_off_c, 0, 65, 100
2, 149952, Note_on_c, 0, 71, 74
2, 149952, Note_on_c, 0, 73, 74
2, 150048, Note_on_c, 0, 65, 72
2, 150140, Note_off_c, 0, 71, 100
2, 150140, Note_off_c, 0, 73, 100
2, 150140, Note_off_c, 0, 65, 100
2, 150144, Note_on_c, 0, 73, 71
2, 150144, Note_on_c, 0, 65, 71
2, 150236, Note_off_c, 0, 73, 100
2, 150236, Note_off_c, 0, 65, 100
2, 150240, Note_on_c, 0, 73, 80
2, 150332, Note_off_c, 0, 73, 100
2, 150336, Note_on_c, 0, 75, 80
2, 150428, Note_off_c, 0, 75, 100
2, 150432, Note_on_c, 0, 77, 80
2, 150524, Note_off_c, 0, 77, 100
2, 150528, Note_on_c, 0, 80, 80
2, 150556, Note_off_c, 0, 80, 100
2, 150560, Note_on_c, 0, 78, 80
2, 150620, Note_off_c, 0, 78, 100
2, 150624, Note_on_c, 0, 77, 80
2, 150716, Note_off_c, 0, 77, 100
2, 150720, Note_on_c, 0, 78, 80
2, 150812, Note_off_c, 0, 78, 100
2, 150816, Note_on_c, 0, 80, 80
2, 150908, Note_off_c, 0, 80, 100
2, 150912, Note_on_c, 0, 81, 80
2, 151004, Note_off_c, 0, 81, 100
2, 151008, Note_on_c, 0, 77, 80
2, 151100, Note_off_c, 0, 77, 100
2, 151104, Note_on_c, 0, 78, 80
2, 151196, Note_off_c, 0, 78, 100
2, 151200, Note_on_c, 0, 80, 80
2, 151292, Note_off_c, 0, 80, 100
2, 151296, Note_on_c, 0, 83, 80
2, 151324, Note_off_c, 0, 83, 100
2, 151328, Note_on_c, 0, 81, 80
2, 151388, Note_off_c, 0, 81, 100
2, 151392, Note_on_c, 0, 80, 80
2, 151484, Note_off_c, 0, 80, 100
2, 151488, Note_on_c, 0, 81, 80
2, 151580, Note_off_c, 0, 81, 100
2, 151584, Note_on_c, 0, 83, 80
2, 151676, Note_off_c, 0, 83, 100
2, 151680, Note_on_c, 0, 85, 80
2, 151772, Note_off_c, 0, 85, 100
2, 151776, Note_on_c, 0, 83, 80
2, 151868, Note_off_c, 0, 83, 100
2, 151872, Note_on_c, 0, 81, 80
2, 151964, Note_off_c, 0, 81, 100
2, 151968, Note_on_c, 0, 80, 80
2, 152060, Note_off_c, 0, 80, 100
2, 152064, Note_on_c, 0, 81, 80
2, 152156, Note_off_c, 0, 81, 100
2, 152160, Note_on_c, 0, 80, 80
2, 152252, Note_off_c, 0, 80, 100
2, 152256, Note_on_c, 0, 78, 80
2, 152348, Note_off_c, 0, 78, 100
2, 152352, Note_on_c, 0, 85, 80
2, 152444, Note_off_c, 0, 85, 100
2, 152448, Note_on_c, 0, 80, 80
2, 152540, Note_off_c, 0, 80, 100
2, 152544, Note_on_c, 0, 78, 80
2, 152636, Note_off_c, 0, 78, 100
2, 152640, Note_on_c, 0, 76, 80
2, 152732, Note_off_c, 0, 76, 100
2, 152736, Note_on_c, 0, 83, 80
2, 152828, Note_off_c, 0, 83, 100
2, 152832, Note_on_c, 0, 78, 80
2, 152924, Note_off_c, 0, 78, 100
2, 152928, Note_on_c, 0, 76, 80
2, 153020, Note_off_c, 0, 76, 100
2, 153024, Note_on_c, 0, 75, 80
2, 153116, Note_off_c, 0, 75, 100
2, 153120, Note_on_c, 0, 83, 80
2, 153212, Note_off_c, 0, 83, 100
2, 153216, Note_on_c, 0, 83, 80
2, 153216, Note_on_c, 0, 80, 80
2, 153216, Note_on_c, 0, 71, 80
2, 153980, Note_off_c, 0, 83, 100
2, 153980, Note_off_c, 0, 80, 100
2, 153980, Note_off_c, 0, 71, 100
2, 153984, Note_on_c, 0, 81, 80
2, 153984, Note_on_c, 0, 78, 80
2, 153984, Note_on_c, 0, 69, 80
2, 154364, Note_off_c, 0, 81, 100
2, 154364, Note_off_c, 0, 78, 100
2, 154364, Note_off_c, 0, 69, 100
2, 154368, Note_on_c, 0, 80, 80
2, 154368, Note_on_c, 0, 76, 80
2, 154368, Note_on_c, 0, 71, 80
2, 154748, Note_off_c, 0, 80, 100
2, 154748, Note_off_c, 0, 76, 100
2, 154748, Note_off_c, 0, 71, 100
2, 154752, Note_on_c, 0, 78, 80
2, 154752, Note_on_c, 0, 73, 80
2, 155132, Note_off_c, 0, 78, 100
2, 155132, Note_off_c, 0, 73, 100
2, 155136, Note_on_c, 0, 73, 80
2, 155136, Note_on_c, 0, 76, 80
2, 155516, Note_off_c, 0, 73, 100
2, 155520, Note_on_c, 0, 71, 80
2, 155900, Note_off_c, 0, 76, 100
2, 155900, Note_off_c, 0, 71, 100
2, 155904, Note_on_c, 0, 71, 80
2, 155904, Note_on_c, 0, 75, 80
2, 156092, Note_off_c, 0, 75, 100
2, 156096, Note_on_c, 0, 83, 80
2, 156284, Note_off_c, 0, 71, 100
2, 156284, Note_off_c, 0, 83, 100
2, 156288, Note_on_c, 0, 83, 80
2, 156288, Note_on_c, 0, 74, 80
2, 156288, Note_on_c, 0, 71, 80
2, 157052, Note_off_c, 0, 83, 100
2, 157052, Note_off_c, 0, 74, 100
2, 157052, Note_off_c, 0, 71, 100
2, 157056, Note_on_c, 0, 81, 90
2, 157056, Note_on_c, 0, 74, 90
2, 157056, Note_on_c, 0, 69, 90
2, 157436, Note_off_c, 0, 81, 100
2, 157436, Note_off_c, 0, 74, 100
2, 157436, Note_off_c, 0, 69, 100
2, 157440, Note_on_c, 0, 80, 95
2, 157440, Note_on_c, 0, 74, 95
2, 157440, Note_on_c, 0, 71, 95
2, 157440, Note_on_c, 0, 68, 95
2, 157820, Note_off_c, 0, 80, 100
2, 157820, Note_off_c, 0, 74, 100
2, 157820, Note_off_c, 0, 71, 100
2, 157820, Note_off_c, 0, 68, 100
2, 157824, Note_on_c, 0, 78, 100
2, 157824, Note_on_c, 0, 74, 100
2, 158204, Note_off_c, 0, 78, 100
2, 158204, Note_off_c, 0, 74, 100
2, 158208, Note_on_c, 0, 76, 106
2, 158208, Note_on_c, 0, 74, 106
2, 158588, Note_off_c, 0, 76, 100
2, 158588, Note_off_c, 0, 74, 100
2, 158592, Note_on_c, 0, 76, 110
2, 158592, Note_on_c, 0, 74, 110
2, 158592, Note_on_c, 0, 71, 110
2, 158972, Note_off_c, 0, 76, 100
2, 158972, Note_off_c, 0, 74, 100
2, 158972, Note_off_c, 0, 71, 100
2, 158976, Note_on_c, 0, 86, 110
2, 158976, Note_on_c, 0, 74, 110
2, 159356, Note_off_c, 0, 86, 100
2, 159356, Note_off_c, 0, 74, 100
2, 159360, Note_on_c, 0, 86, 110
2, 159360, Note_on_c, 0, 74, 110
2, 160124, Note_off_c, 0, 86, 100
2, 160124, Note_off_c, 0, 74, 100
2, 160128, Key_signature, 0, "major"
2, 160128, Note_on_c, 0, 89, 110
2, 160128, Note_on_c, 0, 77, 110
2, 160988, Note_off_c, 0, 77, 100
2, 160988, Note_off_c, 0, 89, 100
2, 160992, Note_on_c, 0, 65, 106
2, 161084, Note_off_c, 0, 65, 100
2, 161088, Note_on_c, 0, 71, 102
2, 161180, Note_off_c, 0, 71, 100
2, 161184, Note_on_c, 0, 74, 98
2, 161276, Note_off_c, 0, 74, 100
2, 161280, Note_on_c, 0, 77, 93
2, 161372, Note_off_c, 0, 77, 100
2, 161376, Note_on_c, 0, 83, 89
2, 161468, Note_off_c, 0, 83, 100
2, 161472, Note_on_c, 0, 86, 85
2, 161564, Note_off_c, 0, 86, 100
2, 161568, Note_on_c, 0, 83, 81
2, 161660, Note_off_c, 0, 83, 100
2, 161664, Note_on_c, 0, 89, 80
2, 162044, Note_off_c, 0, 89, 100
2, 162240, Note_on_c, 0, 76, 80
2, 162428, Note_off_c, 0, 76, 100
2, 162432, Note_on_c, 0, 77, 80
2, 162620, Note_off_c, 0, 77, 100
2, 162624, Note_on_c, 0, 80, 80
2, 162812, Note_off_c, 0, 80, 100
2, 162816, Note_on_c, 0, 79, 80
2, 163004, Note_off_c, 0, 79, 100
2, 163008, Note_on_c, 0, 74, 80
2, 163196, Note_off_c, 0, 74, 100
2, 163200, Note_on_c, 0, 76, 80
2, 163388, Note_off_c, 0, 76, 100
2, 163392, Note_on_c, 0, 77, 80
2, 163580, Note_off_c, 0, 77, 100
2, 163584, Note_on_c, 0, 76, 80
2, 163772, Note_off_c, 0, 76, 100
2, 163776, Note_on_c, 0, 71, 80
2, 163964, Note_off_c, 0, 71, 100
2, 163968, Note_on_c, 0, 64, 80
2, 163968, Note_on_c, 0, 72, 80
2, 164348, Note_off_c, 0, 72, 100
2, 164352, Note_on_c, 0, 73, 80
2, 164732, Note_off_c, 0, 64, 100
2, 164732, Note_off_c, 0, 73, 100
2, 164736, Note_on_c, 0, 74, 80
2, 164736, Note_on_c, 0, 62, 80
2, 165116, Note_off_c, 0, 74, 100
2, 165116, Note_off_c, 0, 62, 100
2, 165120, Note_on_c, 0, 81, 80
2, 165692, Note_off_c, 0, 81, 100
2, 165696, Note_on_c, 0, 82, 80
2, 165884, Note_off_c, 0, 82, 100
2, 165888, Note_on_c, 0, 81, 80
2, 166076, Note_off_c, 0, 81, 100
2, 166080, Note_on_c, 0, 77, 80
2, 166268, Note_off_c, 0, 77, 100
2, 166272, Note_on_c, 0, 82, 80
2, 166460, Note_off_c, 0, 82, 100
2, 166464, Note_on_c, 0, 77, 80
2, 166652, Note_off_c, 0, 77, 100
2, 166656, Note_on_c, 0, 77, 80
2, 166844, Note_off_c, 0, 77, 100
2, 166848, Note_on_c, 0, 73, 80
2, 167036, Note_off_c, 0, 73, 100
2, 167040, Key_signature, 4, "major"
2, 167040, Note_on_c, 0, 78, 80
2, 167228, Note_off_c, 0, 78, 100
2, 167232, Note_on_c, 0, 73, 80
2, 167420, Note_off_c, 0, 73, 100
2, 167424, Note_on_c, 0, 73, 80
2, 167612, Note_off_c, 0, 73, 100
2, 167616, Note_on_c, 0, 70, 80
2, 167804, Note_off_c, 0, 70, 100
2, 167808, Note_on_c, 0, 82, 80
2, 167996, Note_off_c, 0, 82, 100
2, 168000, Note_on_c, 0, 78, 80
2, 168188, Note_off_c, 0, 78, 100
2, 168192, Note_on_c, 0, 78, 80
2, 168380, Note_off_c, 0, 78, 100
2, 168384, Note_on_c, 0, 73, 80
2, 168572, Note_off_c, 0, 73, 100
2, 168576, Note_on_c, 0, 85, 80
2, 168764, Note_off_c, 0, 85, 100
2, 168768, Note_on_c, 0, 81, 85
2, 168956, Note_off_c, 0, 81, 100
2, 168960, Note_on_c, 0, 81, 91
2, 169148, Note_off_c, 0, 81, 100
2, 169152, Note_on_c, 0, 78, 97
2, 169340, Note_off_c, 0, 78, 100
2, 169344, Note_on_c, 0, 84, 103
2, 169532, Note_off_c, 0, 84, 100
2, 169536, Note_on_c, 0, 78, 109
2, 169724, Note_off_c, 0, 78, 100
2, 169728, Note_on_c, 0, 83, 110
2, 169916, Note_off_c, 0, 83, 100
2, 169920, Note_on_c, 0, 78, 110
2, 170012, Note_off_c, 0, 78, 100
2, 170496, Note_on_c, 0, 75, 110
2, 170588, Note_off_c, 0, 75, 100
2, 170592, Note_on_c, 0, 83, 110
2, 170684, Note_off_c, 0, 83, 100
2, 170688, Note_on_c, 0, 75, 110
2, 170780, Note_off_c, 0, 75, 100
2, 170784, Note_on_c, 0, 76, 110
2, 170876, Note_off_c, 0, 76, 100
2, 170880, Note_on_c, 0, 78, 110
2, 170972, Note_off_c, 0, 78, 100
2, 170976, Note_on_c, 0, 83, 110
2, 171068, Note_off_c, 0, 83, 100
2, 171072, Note_on_c, 0, 78, 110
2, 171164, Note_off_c, 0, 78, 100
2, 171168, Note_on_c, 0, 80, 110
2, 171260, Note_off_c, 0, 80, 100
2, 171264, Note_on_c, 0, 81, 110
2, 171356, Note_off_c, 0, 81, 100
2, 171360, Note_on_c, 0, 83, 110
2, 171452, Note_off_c, 0, 83, 100
2, 171456, Note_on_c, 0, 81, 110
2, 171548, Note_off_c, 0, 81, 100
2, 171552, Note_on_c, 0, 80, 110
2, 171644, Note_off_c, 0, 80, 100
2, 171648, Note_on_c, 0, 78, 110
2, 171740, Note_off_c, 0, 78, 100
2, 171744, Note_on_c, 0, 83, 110
2, 171836, Note_off_c, 0, 83, 100
2, 171840, Note_on_c, 0, 78, 110
2, 171932, Note_off_c, 0, 78, 100
2, 171936, Note_on_c, 0, 76, 110
2, 172028, Note_off_c, 0, 76, 100
2, 172032, Note_on_c, 0, 75, 110
2, 172124, Note_off_c, 0, 75, 100
2, 172128, Note_on_c, 0, 83, 109
2, 172220, Note_off_c, 0, 83, 100
2, 172224, Note_on_c, 0, 75, 107
2, 172316, Note_off_c, 0, 75, 100
2, 172320, Note_on_c, 0, 76, 105
2, 172412, Note_off_c, 0, 76, 100
2, 172416, Note_on_c, 0, 78, 103
2, 172508, Note_off_c, 0, 78, 100
2, 172512, Note_on_c, 0, 83, 101
2, 172604, Note_off_c, 0, 83, 100
2, 172608, Note_on_c, 0, 78, 99
2, 172700, Note_off_c, 0, 78, 100
2, 172704, Note_on_c, 0, 80, 97
2, 172796, Note_off_c, 0, 80, 100
2, 172800, Note_on_c, 0, 81, 95
2, 172892, Note_off_c, 0, 81, 100
2, 172896, Note_on_c, 0, 83, 93
2, 172988, Note_off_c, 0, 83, 100
2, 172992, Note_on_c, 0, 81, 91
2, 173084, Note_off_c, 0, 81, 100
2, 173088, Note_on_c, 0, 80, 89
2, 173180, Note_off_c, 0, 80, 100
2, 173184, Note_on_c, 0, 78, 87
2, 173276, Note_off_c, 0, 78, 100
2, 173280, Note_on_c, 0, 83, 85
2, 173372, Note_off_c, 0, 83, 100
2, 173376, Note_on_c, 0, 78, 83
2, 173468, Note_off_c, 0, 78, 100
2, 173472, Note_on_c, 0, 76, 81
2, 173564, Note_off_c, 0, 76, 100
2, 173568, Note_on_c, 0, 75, 80
2, 173660, Note_off_c, 0, 75, 100
2, 173664, Note_on_c, 0, 83, 80
2, 173756, Note_off_c, 0, 83, 100
2, 173760, Note_on_c, 0, 75, 80
2, 173852, Note_off_c, 0, 75, 100
2, 173856, Note_on_c, 0, 76, 80
2, 173948, Note_off_c, 0, 76, 100
2, 173952, Note_on_c, 0, 78, 80
2, 174044, Note_off_c, 0, 78, 100
2, 174048, Note_on_c, 0, 83, 80
2, 174140, Note_off_c, 0, 83, 100
2, 174144, Note_on_c, 0, 78, 80
2, 174236, Note_off_c, 0, 78, 100
2, 174240, Note_on_c, 0, 80, 80
2, 174332, Note_off_c, 0, 80, 100
2, 174336, Note_on_c, 0, 81, 80
2, 174428, Note_off_c, 0, 81, 100
2, 174432, Note_on_c, 0, 83, 80
2, 174524, Note_off_c, 0, 83, 100
2, 174528, Note_on_c, 0, 81, 80
2, 174620, Note_off_c, 0, 81, 100
2, 174624, Note_on_c, 0, 80, 80
2, 174716, Note_off_c, 0, 80, 100
2, 174720, Note_on_c, 0, 78, 80
2, 174812, Note_off_c, 0, 78, 100
2, 174816, Note_on_c, 0, 83, 80
2, 174908, Note_off_c, 0, 83, 100
2, 174912, Note_on_c, 0, 78, 80
2, 175004, Note_off_c, 0, 78, 100
2, 175008, Note_on_c, 0, 76, 80
2, 175100, Note_off_c, 0, 76, 100
2, 175104, Note_on_c, 0, 75, 80
2, 175196, Note_off_c, 0, 75, 100
2, 175200, Note_on_c, 0, 76, 80
2, 175292, Note_off_c, 0, 76, 100
2, 175296, Note_on_c, 0, 75, 80
2, 175388, Note_off_c, 0, 75, 100
2, 175392, Note_on_c, 0, 73, 80
2, 175484, Note_off_c, 0, 73, 100
2, 175488, Note_on_c, 0, 71, 80
2, 175580, Note_off_c, 0, 71, 100
2, 175584, Note_on_c, 0, 73, 80
2, 175676, Note_off_c, 0, 73, 100
2, 175680, Note_on_c, 0, 63, 80
2, 175772, Note_off_c, 0, 63, 100
2, 175776, Note_on_c, 0, 64, 80
2, 175868, Note_off_c, 0, 64, 100
2, 175872, Note_on_c, 0, 66, 80
2, 175964, Note_off_c, 0, 66, 100
2, 175968, Note_on_c, 0, 69, 80
2, 176060, Note_off_c, 0, 69, 100
2, 176064, Note_on_c, 0, 68, 80
2, 176156, Note_off_c, 0, 68, 100
2, 176160, Note_on_c, 0, 66, 80
2, 176252, Note_off_c, 0, 66, 100
2, 176256, Note_on_c, 0, 68, 80
2, 176348, Note_off_c, 0, 68, 100
2, 176352, Note_on_c, 0, 71, 80
2, 176444, Note_off_c, 0, 71, 100
2, 176448, Note_on_c, 0, 59, 80
2, 176540, Note_off_c, 0, 59, 100
2, 176544, Note_on_c, 0, 71, 80
2, 176636, Note_off_c, 0, 71, 100
2, 176640, Note_on_c, 0, 68, 80
2, 176732, Note_off_c, 0, 68, 100
2, 176736, Note_on_c, 0, 71, 80
2, 176828, Note_off_c, 0, 71, 100
2, 176832, Note_on_c, 0, 66, 80
2, 176924, Note_off_c, 0, 66, 100
2, 176928, Note_on_c, 0, 71, 80
2, 177020, Note_off_c, 0, 71, 100
2, 177024, Note_on_c, 0, 64, 80
2, 177116, Note_off_c, 0, 64, 100
2, 177120, Note_on_c, 0, 71, 80
2, 177212, Note_off_c, 0, 71, 100
2, 177216, Note_on_c, 0, 63, 80
2, 177308, Note_off_c, 0, 63, 100
2, 177312, Note_on_c, 0, 71, 80
2, 177404, Note_off_c, 0, 71, 100
2, 177408, Note_on_c, 0, 63, 80
2, 177500, Note_off_c, 0, 63, 100
2, 177504, Note_on_c, 0, 71, 80
2, 177596, Note_off_c, 0, 71, 100
2, 177600, Note_on_c, 0, 65, 80
2, 177692, Note_off_c, 0, 65, 100
2, 177696, Note_on_c, 0, 71, 80
2, 177788, Note_off_c, 0, 71, 100
2, 177792, Note_on_c, 0, 66, 80
2, 177884, Note_off_c, 0, 66, 100
2, 177888, Note_on_c, 0, 71, 80
2, 177980, Note_off_c, 0, 71, 100
2, 177984, Note_on_c, 0, 69, 80
2, 178076, Note_off_c, 0, 69, 100
2, 178080, Note_on_c, 0, 71, 80
2, 178172, Note_off_c, 0, 71, 100
2, 178176, Note_on_c, 0, 68, 80
2, 178268, Note_off_c, 0, 68, 100
2, 178272, Note_on_c, 0, 71, 80
2, 178364, Note_off_c, 0, 71, 100
2, 178368, Note_on_c, 0, 71, 80
2, 178460, Note_off_c, 0, 71, 100
2, 178464, Note_on_c, 0, 75, 80
2, 178556, Note_off_c, 0, 75, 100
2, 178560, Note_on_c, 0, 71, 80
2, 178652, Note_off_c, 0, 71, 100
2, 178656, Note_on_c, 0, 76, 80
2, 178748, Note_off_c, 0, 76, 100
2, 178752, Note_on_c, 0, 71, 80
2, 178844, Note_off_c, 0, 71, 100
2, 178848, Note_on_c, 0, 78, 80
2, 178940, Note_off_c, 0, 78, 100
2, 178944, Note_on_c, 0, 71, 80
2, 179036, Note_off_c, 0, 71, 100
2, 179040, Note_on_c, 0, 79, 80
2, 179132, Note_off_c, 0, 79, 100
2, 179136, Note_on_c, 0, 71, 80
2, 179228, Note_off_c, 0, 71, 100
2, 179232, Note_on_c, 0, 80, 80
2, 179324, Note_off_c, 0, 80, 100
2, 179328, Note_on_c, 0, 71, 80
2, 179328, Note_on_c, 0, 80, 80
2, 179420, Note_off_c, 0, 71, 100
2, 179424, Note_on_c, 0, 76, 80
2, 179516, Note_off_c, 0, 76, 100
2, 179520, Note_on_c, 0, 71, 80
2, 179612, Note_off_c, 0, 71, 100
2, 179616, Note_on_c, 0, 76, 80
2, 179708, Note_off_c, 0, 80, 100
2, 179708, Note_off_c, 0, 76, 100
2, 179712, Note_on_c, 0, 76, 80
2, 179712, Note_on_c, 0, 83, 80
2, 179804, Note_off_c, 0, 76, 100
2, 179808, Note_on_c, 0, 69, 80
2, 179900, Note_off_c, 0, 83, 100
2, 179900, Note_off_c, 0, 69, 100
2, 179904, Note_on_c, 0, 73, 80
2, 179904, Note_on_c, 0, 81, 80
2, 179996, Note_off_c, 0, 73, 100
2, 180000, Note_on_c, 0, 76, 80
2, 180092, Note_off_c, 0, 81, 100
2, 180092, Note_off_c, 0, 76, 100
2, 180096, Note_on_c, 0, 76, 80
2, 180096, Note_on_c, 0, 80, 80
2, 180188, Note_off_c, 0, 76, 100
2, 180192, Note_on_c, 0, 71, 80
2, 180284, Note_off_c, 0, 80, 100
2, 180284, Note_off_c, 0, 71, 100
2, 180288, Note_on_c, 0, 75, 80
2, 180288, Note_on_c, 0, 78, 80
2, 180380, Note_off_c, 0, 75, 100
2, 180384, Note_on_c, 0, 71, 80
2, 180476, Note_off_c, 0, 78, 100
2, 180476, Note_off_c, 0, 71, 100
2, 180480, Note_on_c, 0, 75, 80
2, 180480, Note_on_c, 0, 78, 80
2, 180572, Note_off_c, 0, 75, 100
2, 180576, Note_on_c, 0, 71, 80
2, 180668, Note_off_c, 0, 78, 100
2, 180668, Note_off_c, 0, 71, 100
2, 180672, Note_on_c, 0, 76, 80
2, 180672, Note_on_c, 0, 80, 80
2, 180764, Note_off_c, 0, 76, 100
2, 180768, Note_on_c, 0, 71, 80
2, 180860, Note_off_c, 0, 80, 100
2, 180860, Note_off_c, 0, 71, 100
2, 180864, Note_on_c, 0, 78, 80
2, 180864, Note_on_c, 0, 81, 80
2, 180956, Note_off_c, 0, 78, 100
2, 180960, Note_on_c, 0, 71, 80
2, 181052, Note_off_c, 0, 81, 100
2, 181052, Note_off_c, 0, 71, 100
2, 181056, Note_on_c, 0, 80, 80
2, 181056, Note_on_c, 0, 85, 80
2, 181148, Note_off_c, 0, 80, 100
2, 181152, Note_on_c, 0, 71, 80
2, 181244, Note_off_c, 0, 85, 100
2, 181244, Note_off_c, 0, 71, 100
2, 181248, Note_on_c, 0, 78, 80
2, 181248, Note_on_c, 0, 83, 80
2, 181340, Note_off_c, 0, 78, 100
2, 181344, Note_on_c, 0, 71, 80
2, 181436, Note_off_c, 0, 83, 100
2, 181436, Note_off_c, 0, 71, 100
2, 181440, Note_on_c, 0, 87, 80
2, 181440, Note_on_c, 0, 81, 80
2, 181440, Note_on_c, 0, 75, 80
2, 181628, Note_off_c, 0, 87, 100
2, 181628, Note_off_c, 0, 81, 100
2, 181628, Note_off_c, 0, 75, 100
2, 181632, Note_on_c, 0, 88, 80
2, 181632, Note_on_c, 0, 80, 80
2, 181632, Note_on_c, 0, 76, 80
2, 181724, Note_off_c, 0, 88, 100
2, 181724, Note_off_c, 0, 80, 100
2, 181724, Note_off_c, 0, 76, 100
2, 181728, Note_on_c, 0, 76, 80
2, 181820, Note_off_c, 0, 76, 100
2, 181824, Note_on_c, 0, 71, 80
2, 181916, Note_off_c, 0, 71, 100
2, 181920, Note_on_c, 0, 68, 80
2, 182012, Note_off_c, 0, 68, 100
2, 182016, Note_on_c, 0, 71, 80
2, 182108, Note_off_c, 0, 71, 100
2, 182112, Note_on_c, 0, 68, 80
2, 182204, Note_off_c, 0, 68, 100
2, 182208, Note_on_c, 0, 66, 80
2, 182300, Note_off_c, 0, 66, 100
2, 182304, Note_on_c, 0, 75, 80
2, 182396, Note_off_c, 0, 75, 100
2, 182400, Note_on_c, 0, 66, 80
2, 182492, Note_off_c, 0, 66, 100
2, 182496, Note_on_c, 0, 76, 80
2, 182588, Note_off_c, 0, 76, 100
2, 182592, Note_on_c, 0, 73, 80
2, 182684, Note_off_c, 0, 73, 100
2, 182688, Note_on_c, 0, 66, 80
2, 182780, Note_off_c, 0, 66, 100
2, 182784, Note_on_c, 0, 66, 80
2, 182876, Note_off_c, 0, 66, 100
2, 182880, Note_on_c, 0, 78, 80
2, 182972, Note_off_c, 0, 78, 100
2, 182976, Note_on_c, 0, 73, 80
2, 183068, Note_off_c, 0, 73, 100
2, 183072, Note_on_c, 0, 66, 80
2, 183164, Note_off_c, 0, 66, 100
2, 183168, Note_on_c, 0, 66, 80
2, 183260, Note_off_c, 0, 66, 100
2, 183264, Note_on_c, 0, 75, 80
2, 183356, Note_off_c, 0, 75, 100
2, 183360, Note_on_c, 0, 71, 80
2, 183452, Note_off_c, 0, 71, 100
2, 183456, Note_on_c, 0, 66, 80
2, 183548, Note_off_c, 0, 66, 100
2, 183552, Note_on_c, 0, 63, 80
2, 183644, Note_off_c, 0, 63, 100
2, 183648, Note_on_c, 0, 71, 80
2, 183740, Note_off_c, 0, 71, 100
2, 183744, Note_on_c, 0, 64, 80
2, 183836, Note_off_c, 0, 64, 100
2, 183840, Note_on_c, 0, 69, 80
2, 183932, Note_off_c, 0, 69, 100
2, 183936, Note_on_c, 0, 64, 80
2, 184028, Note_off_c, 0, 64, 100
2, 184032, Note_on_c, 0, 71, 80
2, 184124, Note_off_c, 0, 71, 100
2, 184128, Note_on_c, 0, 68, 80
2, 184220, Note_off_c, 0, 68, 100
2, 184224, Note_on_c, 0, 64, 80
2, 184316, Note_off_c, 0, 64, 100
2, 184320, Note_on_c, 0, 64, 80
2, 184412, Note_off_c, 0, 64, 100
2, 184416, Note_on_c, 0, 76, 80
2, 184508, Note_off_c, 0, 76, 100
2, 184512, Note_on_c, 0, 71, 80
2, 184604, Note_off_c, 0, 71, 100
2, 184608, Note_on_c, 0, 64, 80
2, 184700, Note_off_c, 0, 64, 100
2, 184704, Note_on_c, 0, 64, 80
2, 184796, Note_off_c, 0, 64, 100
2, 184800, Note_on_c, 0, 76, 80
2, 184892, Note_off_c, 0, 76, 100
2, 184896, Note_on_c, 0, 73, 80
2, 184988, Note_off_c, 0, 73, 100
2, 184992, Note_on_c, 0, 69, 80
2, 185084, Note_off_c, 0, 69, 100
2, 185088, Note_on_c, 0, 64, 80
2, 185180, Note_off_c, 0, 64, 100
2, 185184, Note_on_c, 0, 76, 80
2, 185276, Note_off_c, 0, 76, 100
2, 185280, Note_on_c, 0, 64, 80
2, 185372, Note_off_c, 0, 64, 100
2, 185376, Note_on_c, 0, 76, 81
2, 185468, Note_off_c, 0, 76, 100
2, 185472, Note_on_c, 0, 64, 83
2, 185564, Note_off_c, 0, 64, 100
2, 185568, Note_on_c, 0, 76, 85
2, 185660, Note_off_c, 0, 76, 100
2, 185664, Note_on_c, 0, 64, 87
2, 185756, Note_off_c, 0, 64, 100
2, 185760, Note_on_c, 0, 76, 88
2, 185852, Note_off_c, 0, 76, 100
2, 185856, Note_on_c, 0, 64, 90
2, 185948, Note_off_c, 0, 64, 100
2, 185952, Note_on_c, 0, 76, 92
2, 186044, Note_off_c, 0, 76, 100
2, 186048, Note_on_c, 0, 64, 94
2, 186140, Note_off_c, 0, 64, 100
2, 186144, Note_on_c, 0, 76, 95
2, 186236, Note_off_c, 0, 76, 100
2, 186240, Note_on_c, 0, 64, 97
2, 186332, Note_off_c, 0, 64, 100
2, 186336, Note_on_c, 0, 76, 99
2, 186428, Note_off_c, 0, 76, 100
2, 186432, Note_on_c, 0, 64, 101
2, 186524, Note_off_c, 0, 64, 100
2, 186528, Note_on_c, 0, 76, 102
2, 186620, Note_off_c, 0, 76, 100
2, 186624, Note_on_c, 0, 64, 104
2, 186716, Note_off_c, 0, 64, 100
2, 186720, Note_on_c, 0, 76, 106
2, 186812, Note_off_c, 0, 76, 100
2, 186816, Note_on_c, 0, 64, 108
2, 186908, Note_off_c, 0, 64, 100
2, 186912, Note_on_c, 0, 76, 93
2, 187004, Note_off_c, 0, 76, 100
2, 187008, Note_on_c, 0, 63, 80
2, 187100, Note_off_c, 0, 63, 100
2, 187104, Note_on_c, 0, 75, 80
2, 187196, Note_off_c, 0, 75, 100
2, 187200, Note_on_c, 0, 71, 80
2, 187292, Note_off_c, 0, 71, 100
2, 187296, Note_on_c, 0, 66, 80
2, 187388, Note_off_c, 0, 66, 100
2, 187392, Note_on_c, 0, 66, 80
2, 187484, Note_off_c, 0, 66, 100
2, 187488, Note_on_c, 0, 78, 80
2, 187580, Note_off_c, 0, 78, 100
2, 187584, Note_on_c, 0, 75, 80
2, 187676, Note_off_c, 0, 75, 100
2, 187680, Note_on_c, 0, 69, 80
2, 187772, Note_off_c, 0, 69, 100
2, 187776, Note_on_c, 0, 68, 80
2, 188156, Note_off_c, 0, 68, 100
2, 188352, Note_on_c, 0, 83, 80
2, 188352, Note_on_c, 0, 71, 80
2, 188540, Note_off_c, 0, 83, 100
2, 188540, Note_off_c, 0, 71, 100
2, 188544, Note_on_c, 0, 70, 80
2, 188544, Note_on_c, 0, 82, 80
2, 188924, Note_off_c, 0, 70, 100
2, 188924, Note_off_c, 0, 82, 100
2, 188928, Note_on_c, 0, 76, 80
2, 188928, Note_on_c, 0, 88, 80
2, 189308, Note_off_c, 0, 76, 100
2, 189308, Note_off_c, 0, 88, 100
2, 189312, Note_on_c, 0, 87, 80
2, 189312, Note_on_c, 0, 75, 80
2, 189884, Note_off_c, 0, 87, 100
2, 189884, Note_off_c, 0, 75, 100
2, 189888, Note_on_c, 0, 81, 80
2, 189888, Note_on_c, 0, 69, 80
2, 190076, Note_off_c, 0, 81, 100
2, 190076, Note_off_c, 0, 69, 100
2, 190080, Note_on_c, 0, 80, 80
2, 190080, Note_on_c, 0, 68, 80
2, 190460, Note_off_c, 0, 80, 100
2, 190460, Note_off_c, 0, 68, 100
2, 190464, Note_on_c, 0, 86, 80
2, 190464, Note_on_c, 0, 74, 80
2, 190844, Note_off_c, 0, 86, 100
2, 190844, Note_off_c, 0, 74, 100
2, 190848, Note_on_c, 0, 73, 80
2, 190848, Note_on_c, 0, 85, 80
2, 191420, Note_off_c, 0, 73, 100
2, 191420, Note_off_c, 0, 85, 100
2, 191424, Note_on_c, 0, 85, 80
2, 191424, Note_on_c, 0, 73, 80
2, 191612, Note_off_c, 0, 85, 100
2, 191612, Note_off_c, 0, 73, 100
2, 191616, Note_on_c, 0, 72, 83
2, 191616, Note_on_c, 0, 84, 83
2, 191804, Note_off_c, 0, 72, 100
2, 191804, Note_off_c, 0, 84, 100
2, 191808, Note_on_c, 0, 85, 87
2, 191808, Note_on_c, 0, 73, 87
2, 191996, Note_off_c, 0, 85, 100
2, 191996, Note_off_c, 0, 73, 100
2, 192000, Note_on_c, 0, 81, 90
2, 192000, Note_on_c, 0, 69, 90
2, 192188, Note_off_c, 0, 81, 100
2, 192188, Note_off_c, 0, 69, 100
2, 192192, Note_on_c, 0, 80, 94
2, 192192, Note_on_c, 0, 68, 94
2, 192380, Note_off_c, 0, 80, 100
2, 192380, Note_off_c, 0, 68, 100
2, 192384, Note_on_c, 0, 80, 97
2, 192384, Note_on_c, 0, 68, 97
2, 192572, Note_off_c, 0, 80, 100
2, 192572, Note_off_c, 0, 68, 100
2, 192576, Note_on_c, 0, 78, 101
2, 192576, Note_on_c, 0, 66, 101
2, 192956, Note_off_c, 0, 78, 100
2, 192956, Note_off_c, 0, 66, 100
2, 192960, Note_on_c, 0, 78, 108
2, 192960, Note_on_c, 0, 66, 108
2, 193148, Note_off_c, 0, 78, 100
2, 193148, Note_off_c, 0, 66, 100
2, 193152, Note_on_c, 0, 78, 80
2, 193152, Note_on_c, 0, 66, 80
2, 193340, Note_off_c, 0, 78, 100
2, 193340, Note_off_c, 0, 66, 100
2, 193344, Note_on_c, 0, 83, 80
2, 193344, Note_on_c, 0, 71, 80
2, 193532, Note_off_c, 0, 83, 100
2, 193532, Note_off_c, 0, 71, 100
2, 193536, Note_on_c, 0, 82, 80
2, 193536, Note_on_c, 0, 70, 80
2, 193724, Note_off_c, 0, 82, 100
2, 193724, Note_off_c, 0, 70, 100
2, 193728, Note_on_c, 0, 83, 80
2, 193728, Note_on_c, 0, 71, 80
2, 193916, Note_off_c, 0, 83, 100
2, 193916, Note_off_c, 0, 71, 100
2, 193920, Note_on_c, 0, 64, 80
2, 193920, Note_on_c, 0, 76, 80
2, 194108, Note_off_c, 0, 64, 100
2, 194108, Note_off_c, 0, 76, 100
2, 194112, Note_on_c, 0, 83, 80
2, 194112, Note_on_c, 0, 71, 80
2, 194300, Note_off_c, 0, 83, 100
2, 194300, Note_off_c, 0, 71, 100
2, 194304, Note_on_c, 0, 82, 80
2, 194304, Note_on_c, 0, 70, 80
2, 194492, Note_off_c, 0, 82, 100
2, 194492, Note_off_c, 0, 70, 100
2, 194496, Note_on_c, 0, 83, 80
2, 194496, Note_on_c, 0, 71, 80
2, 194684, Note_off_c, 0, 83, 100
2, 194684, Note_off_c, 0, 71, 100
2, 194784, Note_on_c, 0, 75, 80
2, 194876, Note_off_c, 0, 75, 100
2, 194880, Note_on_c, 0, 83, 80
2, 194972, Note_off_c, 0, 83, 100
2, 194976, Note_on_c, 0, 81, 80
2, 195068, Note_off_c, 0, 81, 100
2, 195072, Note_on_c, 0, 78, 80
2, 195164, Note_off_c, 0, 78, 100
2, 195168, Note_on_c, 0, 75, 80
2, 195260, Note_off_c, 0, 75, 100
2, 195264, Note_on_c, 0, 71, 80
2, 195356, Note_off_c, 0, 71, 100
2, 195360, Note_on_c, 0, 69, 80
2, 195452, Note_off_c, 0, 69, 100
2, 195552, Note_on_c, 0, 68, 80
2, 195644, Note_off_c, 0, 68, 100
2, 195648, Note_on_c, 0, 83, 80
2, 195740, Note_off_c, 0, 83, 100
2, 195744, Note_on_c, 0, 80, 80
2, 195836, Note_off_c, 0, 80, 100
2, 195840, Note_on_c, 0, 76, 80
2, 195932, Note_off_c, 0, 76, 100
2, 195936, Note_on_c, 0, 71, 80
2, 196028, Note_off_c, 0, 71, 100
2, 196032, Note_on_c, 0, 69, 80
2, 196124, Note_off_c, 0, 69, 100
2, 196128, Note_on_c, 0, 68, 80
2, 196220, Note_off_c, 0, 68, 100
2, 196224, Note_on_c, 0, 78, 80
2, 196224, Note_on_c, 0, 66, 80
2, 196412, Note_off_c, 0, 78, 100
2, 196412, Note_off_c, 0, 66, 100
2, 196416, Note_on_c, 0, 83, 82
2, 196416, Note_on_c, 0, 71, 82
2, 196604, Note_off_c, 0, 83, 100
2, 196604, Note_off_c, 0, 71, 100
2, 196608, Note_on_c, 0, 82, 85
2, 196608, Note_on_c, 0, 70, 85
2, 196796, Note_off_c, 0, 82, 100
2, 196796, Note_off_c, 0, 70, 100
2, 196800, Note_on_c, 0, 83, 87
2, 196800, Note_on_c, 0, 71, 87
2, 196988, Note_off_c, 0, 83, 100
2, 196988, Note_off_c, 0, 71, 100
2, 196992, Note_on_c, 0, 77, 90
2, 196992, Note_on_c, 0, 65, 90
2, 197180, Note_off_c, 0, 77, 100
2, 197180, Note_off_c, 0, 65, 100
2, 197184, Note_on_c, 0, 86, 93
2, 197184, Note_on_c, 0, 74, 93
2, 197372, Note_off_c, 0, 86, 100
2, 197372, Note_off_c, 0, 74, 100
2, 197376, Note_on_c, 0, 85, 95
2, 197376, Note_on_c, 0, 73, 95
2, 197564, Note_off_c, 0, 85, 100
2, 197564, Note_off_c, 0, 73, 100
2, 197568, Note_on_c, 0, 86, 98
2, 197568, Note_on_c, 0, 74, 98
2, 197756, Note_off_c, 0, 86, 100
2, 197756, Note_off_c, 0, 74, 100
2, 197760, Note_on_c, 0, 85, 100
2, 197948, Note_off_c, 0, 85, 100
2, 197952, Note_on_c, 0, 78, 103
2, 198140, Note_off_c, 0, 78, 100
2, 198144, Note_on_c, 0, 81, 106
2, 198332, Note_off_c, 0, 81, 100
2, 198336, Note_on_c, 0, 73, 108
2, 198524, Note_off_c, 0, 73, 100
2, 198528, Note_on_c, 0, 78, 110
2, 198716, Note_off_c, 0, 78, 100
2, 198720, Note_on_c, 0, 73, 107
2, 198908, Note_off_c, 0, 73, 100
2, 198912, Note_on_c, 0, 76, 103
2, 199100, Note_off_c, 0, 76, 100
2, 199104, Note_on_c, 0, 66, 99
2, 199292, Note_off_c, 0, 66, 100
2, 199296, Note_on_c, 0, 71, 95
2, 199484, Note_off_c, 0, 71, 100
2, 199488, Note_on_c, 0, 68, 91
2, 199676, Note_off_c, 0, 68, 100
2, 199680, Note_on_c, 0, 71, 87
2, 199868, Note_off_c, 0, 71, 100
2, 199872, Note_on_c, 0, 64, 83
2, 200060, Note_off_c, 0, 64, 100
2, 200064, Note_on_c, 0, 63, 80
2, 200252, Note_off_c, 0, 63, 100
2, 200256, Note_on_c, 0, 71, 80
2, 200444, Note_off_c, 0, 71, 100
2, 200448, Note_on_c, 0, 66, 80
2, 200448, Note_on_c, 0, 63, 80
2, 200636, Note_off_c, 0, 66, 100
2, 200636, Note_off_c, 0, 63, 100
2, 200640, Note_on_c, 0, 71, 80
2, 200640, Note_on_c, 0, 63, 80
2, 200828, Note_off_c, 0, 71, 100
2, 200828, Note_off_c, 0, 63, 100
2, 200928, Note_on_c, 0, 62, 81
2, 201020, Note_off_c, 0, 62, 100
2, 201024, Note_on_c, 0, 68, 83
2, 201116, Note_off_c, 0, 68, 100
2, 201120, Note_on_c, 0, 65, 85
2, 201212, Note_off_c, 0, 65, 100
2, 201312, Note_on_c, 0, 61, 89
2, 201404, Note_off_c, 0, 61, 100
2, 201408, Note_on_c, 0, 69, 91
2, 201500, Note_off_c, 0, 69, 100
2, 201504, Note_on_c, 0, 66, 93
2, 201596, Note_off_c, 0, 66, 100
2, 201696, Note_on_c, 0, 71, 97
2, 201788, Note_off_c, 0, 71, 100
2, 201792, Note_on_c, 0, 83, 99
2, 201884, Note_off_c, 0, 83, 100
2, 201888, Note_on_c, 0, 80, 101
2, 201980, Note_off_c, 0, 80, 100
2, 202080, Note_on_c, 0, 73, 105
2, 202172, Note_off_c, 0, 73, 100
2, 202176, Note_on_c, 0, 85, 107
2, 202268, Note_off_c, 0, 85, 100
2, 202272, Note_on_c, 0, 81, 109
2, 202364, Note_off_c, 0, 81, 100
2, 202464, Note_on_c, 0, 74, 110
2, 202556, Note_off_c, 0, 74, 100
2, 202560, Note_on_c, 0, 86, 110
2, 202652, Note_off_c, 0, 86, 100
2, 202656, Note_on_c, 0, 83, 110
2, 202748, Note_off_c, 0, 83, 100
2, 202848, Note_on_c, 0, 73, 110
2, 202940, Note_off_c, 0, 73, 100
2, 202944, Note_on_c, 0, 85, 110
2, 203036, Note_off_c, 0, 85, 100
2, 203040, Note_on_c, 0, 83, 110
2, 203132, Note_off_c, 0, 83, 100
2, 204672, Note_on_c, 0, 78, 80
2, 204860, Note_off_c, 0, 78, 100
2, 204864, Note_on_c, 0, 85, 80
2, 205052, Note_off_c, 0, 85, 100
2, 205056, Note_on_c, 0, 83, 80
2, 205244, Note_off_c, 0, 83, 100
2, 205248, Note_on_c, 0, 78, 80
2, 205436, Note_off_c, 0, 78, 100
2, 205440, Note_on_c, 0, 81, 80
2, 206396, Note_off_c, 0, 81, 100
2, 206400, Note_on_c, 0, 81, 80
2, 206588, Note_off_c, 0, 81, 100
2, 206592, Note_on_c, 0, 80, 80
2, 206780, Note_off_c, 0, 80, 100
2, 206784, Note_on_c, 0, 76, 80
2, 206972, Note_off_c, 0, 76, 100
2, 206976, Note_on_c, 0, 80, 80
2, 207932, Note_off_c, 0, 80, 100
2, 207936, Note_on_c, 0, 80, 80
2, 207936, Note_on_c, 0, 76, 80
2, 208124, Note_off_c, 0, 80, 100
2, 208124, Note_off_c, 0, 76, 100
2, 208128, Note_on_c, 0, 78, 80
2, 208128, Note_on_c, 0, 75, 80
2, 208316, Note_off_c, 0, 78, 100
2, 208316, Note_off_c, 0, 75, 100
2, 208320, Note_on_c, 0, 75, 80
2, 208320, Note_on_c, 0, 71, 80
2, 208508, Note_off_c, 0, 75, 100
2, 208508, Note_off_c, 0, 71, 100
2, 208512, Note_on_c, 0, 78, 80
2, 208512, Note_on_c, 0, 75, 80
2, 208700, Note_off_c, 0, 78, 100
2, 208700, Note_off_c, 0, 75, 100
2, 208704, Note_on_c, 0, 78, 80
2, 208704, Note_on_c, 0, 72, 80
2, 208892, Note_off_c, 0, 78, 100
2, 208892, Note_off_c, 0, 72, 100
2, 208896, Note_on_c, 0, 76, 80
2, 208896, Note_on_c, 0, 73, 80
2, 209084, Note_off_c, 0, 76, 100
2, 209084, Note_off_c, 0, 73, 100
2, 209088, Note_on_c, 0, 73, 80
2, 209088, Note_on_c, 0, 69, 80
2, 209276, Note_off_c, 0, 73, 100
2, 209276, Note_off_c, 0, 69, 100
2, 209280, Note_on_c, 0, 76, 80
2, 209280, Note_on_c, 0, 73, 80
2, 209468, Note_off_c, 0, 76, 100
2, 209468, Note_off_c, 0, 73, 100
2, 209472, Note_on_c, 0, 76, 80
2, 209472, Note_on_c, 0, 70, 80
2, 209660, Note_off_c, 0, 76, 100
2, 209660, Note_off_c, 0, 70, 100
2, 209664, Note_on_c, 0, 75, 80
2, 209664, Note_on_c, 0, 71, 80
2, 209852, Note_off_c, 0, 75, 100
2, 209852, Note_off_c, 0, 71, 100
2, 209856, Note_on_c, 0, 71, 80
2, 209856, Note_on_c, 0, 68, 80
2, 210044, Note_off_c, 0, 71, 100
2, 210044, Note_off_c, 0, 68, 100
2, 210048, Note_on_c, 0, 74, 80
2, 210048, Note_on_c, 0, 71, 80
2, 210236, Note_off_c, 0, 74, 100
2, 210236, Note_off_c, 0, 71, 100
2, 210240, Note_on_c, 0, 74, 80
2, 210240, Note_on_c, 0, 68, 80
2, 210428, Note_off_c, 0, 74, 100
2, 210428, Note_off_c, 0, 68, 100
2, 210432, Note_on_c, 0, 73, 80
2, 210432, Note_on_c, 0, 69, 80
2, 210620, Note_off_c, 0, 73, 100
2, 210620, Note_off_c, 0, 69, 100
2, 210624, Note_on_c, 0, 72, 80
2, 210624, Note_on_c, 0, 63, 80
2, 210812, Note_off_c, 0, 72, 100
2, 210812, Note_off_c, 0, 63, 100
2, 210816, Note_on_c, 0, 64, 80
2, 210816, Note_on_c, 0, 71, 80
2, 211004, Note_off_c, 0, 64, 100
2, 211004, Note_off_c, 0, 71, 100
2, 211008, Note_on_c, 0, 71, 80
2, 211008, Note_on_c, 0, 61, 80
2, 211196, Note_off_c, 0, 71, 100
2, 211196, Note_off_c, 0, 61, 100
2, 211200, Note_on_c, 0, 69, 80
2, 211200, Note_on_c, 0, 63, 80
2, 211292, Note_off_c, 0, 69, 100
2, 211292, Note_off_c, 0, 63, 100
2, 211296, Note_on_c, 0, 66, 80
2, 211388, Note_off_c, 0, 66, 100
2, 211392, Note_on_c, 0, 64, 80
2, 211484, Note_off_c, 0, 64, 100
2, 211488, Note_on_c, 0, 66, 80
2, 211580, Note_off_c, 0, 66, 100
2, 211584, Note_on_c, 0, 68, 80
2, 211584, Note_on_c, 0, 64, 80
2, 211676, Note_off_c, 0, 64, 100
2, 211680, Note_on_c, 0, 59, 80
2, 211772, Note_off_c, 0, 59, 100
2, 211776, Note_on_c, 0, 64, 80
2, 211868, Note_off_c, 0, 64, 100
2, 211872, Note_on_c, 0, 59, 80
2, 211964, Note_off_c, 0, 68, 100
2, 211964, Note_off_c, 0, 59, 100
2, 211968, Note_on_c, 0, 71, 80
2, 211968, Note_on_c, 0, 68, 80
2, 212060, Note_off_c, 0, 68, 100
2, 212064, Note_on_c, 0, 59, 80
2, 212156, Note_off_c, 0, 71, 100
2, 212156, Note_off_c, 0, 59, 100
2, 212160, Note_on_c, 0, 69, 80
2, 212160, Note_on_c, 0, 66, 80
2, 212252, Note_off_c, 0, 66, 100
2, 212256, Note_on_c, 0, 59, 80
2, 212348, Note_off_c, 0, 69, 100
2, 212348, Note_off_c, 0, 59, 100
2, 212352, Note_on_c, 0, 68, 80
2, 212352, Note_on_c, 0, 64, 80
2, 212444, Note_off_c, 0, 64, 100
2, 212448, Note_on_c, 0, 59, 80
2, 212540, Note_off_c, 0, 68, 100
2, 212540, Note_off_c, 0, 59, 100
2, 212544, Note_on_c, 0, 66, 80
2, 212544, Note_on_c, 0, 63, 80
2, 212636, Note_off_c, 0, 63, 100
2, 212640, Note_on_c, 0, 59, 80
2, 212732, Note_off_c, 0, 66, 100
2, 212732, Note_off_c, 0, 59, 100
2, 212736, Note_on_c, 0, 66, 80
2, 212736, Note_on_c, 0, 63, 80
2, 212828, Note_off_c, 0, 63, 100
2, 212832, Note_on_c, 0, 59, 80
2, 212924, Note_off_c, 0, 66, 100
2, 212924, Note_off_c, 0, 59, 100
2, 212928, Note_on_c, 0, 68, 80
2, 212928, Note_on_c, 0, 64, 80
2, 213020, Note_off_c, 0, 64, 100
2, 213024, Note_on_c, 0, 59, 80
2, 213116, Note_off_c, 0, 68, 100
2, 213116, Note_off_c, 0, 59, 100
2, 213120, Note_on_c, 0, 69, 80
2, 213120, Note_on_c, 0, 64, 80
2, 213212, Note_off_c, 0, 64, 100
2, 213216, Note_on_c, 0, 59, 80
2, 213308, Note_off_c, 0, 69, 100
2, 213308, Note_off_c, 0, 59, 100
2, 213312, Note_on_c, 0, 73, 80
2, 213312, Note_on_c, 0, 64, 80
2, 213404, Note_off_c, 0, 64, 100
2, 213408, Note_on_c, 0, 59, 80
2, 213500, Note_off_c, 0, 73, 100
2, 213500, Note_off_c, 0, 59, 100
2, 213504, Note_on_c, 0, 71, 80
2, 213504, Note_on_c, 0, 66, 80
2, 213596, Note_off_c, 0, 66, 100
2, 213600, Note_on_c, 0, 59, 80
2, 213692, Note_off_c, 0, 71, 100
2, 213692, Note_off_c, 0, 59, 100
2, 213696, Note_on_c, 0, 66, 80
2, 213696, Note_on_c, 0, 63, 80
2, 213788, Note_off_c, 0, 63, 100
2, 213792, Note_on_c, 0, 59, 80
2, 213884, Note_off_c, 0, 66, 100
2, 213888, Note_on_c, 0, 68, 80
2, 213980, Note_off_c, 0, 59, 100
2, 213984, Note_on_c, 0, 59, 80
2, 214076, Note_off_c, 0, 59, 100
2, 214080, Note_on_c, 0, 64, 80
2, 214172, Note_off_c, 0, 64, 100
2, 214176, Note_on_c, 0, 59, 80
2, 214268, Note_off_c, 0, 68, 100
2, 214268, Note_off_c, 0, 59, 100
2, 214272, Note_on_c, 0, 64, 80
2, 214364, Note_off_c, 0, 64, 100
2, 214368, Note_on_c, 0, 59, 80
2, 214460, Note_off_c, 0, 59, 100
2, 214464, Note_on_c, 0, 64, 80
2, 214464, Note_on_c, 0, 68, 80
2, 214556, Note_off_c, 0, 64, 100
2, 214560, Note_on_c, 0, 59, 80
2, 214652, Note_off_c, 0, 68, 100
2, 214652, Note_off_c, 0, 59, 100
2, 214656, Note_on_c, 0, 69, 80
2, 214656, Note_on_c, 0, 64, 80
2, 214748, Note_off_c, 0, 64, 100
2, 214752, Note_on_c, 0, 59, 80
2, 214844, Note_off_c, 0, 69, 100
2, 214844, Note_off_c, 0, 59, 100
2, 214848, Note_on_c, 0, 73, 80
2, 214848, Note_on_c, 0, 64, 80
2, 214940, Note_off_c, 0, 64, 100
2, 214944, Note_on_c, 0, 59, 80
2, 215036, Note_off_c, 0, 73, 100
2, 215036, Note_off_c, 0, 59, 100
2, 215040, Note_on_c, 0, 71, 80
2, 215040, Note_on_c, 0, 66, 80
2, 215132, Note_off_c, 0, 66, 100
2, 215136, Note_on_c, 0, 59, 80
2, 215228, Note_off_c, 0, 71, 100
2, 215228, Note_off_c, 0, 59, 100
2, 215232, Note_on_c, 0, 66, 80
2, 215232, Note_on_c, 0, 63, 80
2, 215324, Note_off_c, 0, 63, 100
2, 215328, Note_on_c, 0, 59, 80
2, 215420, Note_off_c, 0, 66, 100
2, 215420, Note_off_c, 0, 59, 100
2, 215424, Note_on_c, 0, 68, 80
2, 215424, Note_on_c, 0, 64, 80
2, 215424, Note_on_c, 0, 59, 80
2, 215804, Note_off_c, 0, 68, 100
2, 215804, Note_off_c, 0, 64, 100
2, 215804, Note_off_c, 0, 59, 100
2, 216000, Note_on_c, 0, 80, 80
2, 216000, Note_on_c, 0, 68, 80
2, 216188, Note_off_c, 0, 80, 100
2, 216188, Note_off_c, 0, 68, 100
2, 216192, Note_on_c, 0, 81, 80
2, 216192, Note_on_c, 0, 69, 80
2, 216380, Note_off_c, 0, 81, 100
2, 216380, Note_off_c, 0, 69, 100
2, 216384, Note_on_c, 0, 85, 80
2, 216384, Note_on_c, 0, 73, 80
2, 216572, Note_off_c, 0, 85, 100
2, 216572, Note_off_c, 0, 73, 100
2, 216576, Note_on_c, 0, 83, 80
2, 216576, Note_on_c, 0, 71, 80
2, 216764, Note_off_c, 0, 83, 100
2, 216764, Note_off_c, 0, 71, 100
2, 216768, Note_on_c, 0, 87, 80
2, 216768, Note_on_c, 0, 75, 80
2, 216956, Note_off_c, 0, 87, 100
2, 216956, Note_off_c, 0, 75, 100
2, 216960, Note_on_c, 0, 88, 80
2, 216960, Note_on_c, 0, 76, 80
2, 217340, Note_off_c, 0, 88, 100
2, 217340, Note_off_c, 0, 76, 100
2, 217920, Note_on_c, 0, 57, 80
2, 218108, Note_off_c, 0, 57, 100
2, 218112, Note_on_c, 0, 56, 80
2, 218300, Note_off_c, 0, 56, 100
2, 218304, Note_on_c, 0, 64, 80
2, 218304, Note_on_c, 0, 68, 80
2, 218492, Note_off_c, 0, 64, 100
2, 218492, Note_off_c, 0, 68, 100
2, 218496, Note_on_c, 0, 66, 80
2, 218496, Note_on_c, 0, 64, 80
2, 218684, Note_off_c, 0, 66, 100
2, 218684, Note_off_c, 0, 64, 100
2, 218688, Note_on_c, 0, 78, 80
2, 218688, Note_on_c, 0, 76, 80
2, 218688, Note_on_c, 0, 73, 80
2, 218876, Note_off_c, 0, 78, 100
2, 218876, Note_off_c, 0, 76, 100
2, 218876, Note_off_c, 0, 73, 100
2, 218880, Note_on_c, 0, 76, 80
2, 218880, Note_on_c, 0, 73, 80
2, 219068, Note_off_c, 0, 76, 100
2, 219072, Note_on_c, 0, 85, 80
2, 219260, Note_off_c, 0, 73, 100
2, 219260, Note_off_c, 0, 85, 100
2, 219264, Note_on_c, 0, 85, 80
2, 219356, Note_off_c, 0, 85, 100
2, 219360, Note_on_c, 0, 83, 81
2, 219452, Note_off_c, 0, 83, 100
2, 219456, Note_on_c, 0, 80, 82
2, 219548, Note_off_c, 0, 80, 100
2, 219552, Note_on_c, 0, 76, 83
2, 219644, Note_off_c, 0, 76, 100
2, 219648, Note_on_c, 0, 75, 84
2, 219740, Note_off_c, 0, 75, 100
2, 219744, Note_on_c, 0, 73, 85
2, 219836, Note_off_c, 0, 73, 100
2, 219840, Note_on_c, 0, 71, 86
2, 219932, Note_off_c, 0, 71, 100
2, 219936, Note_on_c, 0, 69, 87
2, 220028, Note_off_c, 0, 69, 100
2, 220032, Note_on_c, 0, 68, 88
2, 220124, Note_off_c, 0, 68, 100
2, 220128, Note_on_c, 0, 66, 89
2, 220220, Note_off_c, 0, 66, 100
2, 220224, Note_on_c, 0, 64, 91
2, 220316, Note_off_c, 0, 64, 100
2, 220320, Note_on_c, 0, 76, 92
2, 220412, Note_off_c, 0, 76, 100
2, 220416, Note_on_c, 0, 75, 93
2, 220508, Note_off_c, 0, 75, 100
2, 220512, Note_on_c, 0, 73, 94
2, 220604, Note_off_c, 0, 73, 100
2, 220608, Note_on_c, 0, 85, 95
2, 220700, Note_off_c, 0, 85, 100
2, 220704, Note_on_c, 0, 83, 96
2, 220796, Note_off_c, 0, 83, 100
2, 220800, Note_on_c, 0, 83, 97
2, 220892, Note_off_c, 0, 83, 100
2, 220896, Note_on_c, 0, 81, 98
2, 220988, Note_off_c, 0, 81, 100
2, 220992, Note_on_c, 0, 93, 99
2, 221084, Note_off_c, 0, 93, 100
2, 221088, Note_on_c, 0, 92, 101
2, 221180, Note_off_c, 0, 92, 100
2, 221184, Note_on_c, 0, 92, 102
2, 221276, Note_off_c, 0, 92, 100
2, 221280, Note_on_c, 0, 90, 103
2, 221372, Note_off_c, 0, 90, 100
2, 221376, Note_on_c, 0, 93, 104
2, 221468, Note_off_c, 0, 93, 100
2, 221472, Note_on_c, 0, 90, 105
2, 221564, Note_off_c, 0, 90, 100
2, 221568, Note_on_c, 0, 88, 106
2, 221660, Note_off_c, 0, 88, 100
2, 221664, Note_on_c, 0, 87, 107
2, 221756, Note_off_c, 0, 87, 100
2, 221760, Note_on_c, 0, 90, 110
2, 221852, Note_off_c, 0, 90, 100
2, 221856, Note_on_c, 0, 81, 110
2, 221948, Note_off_c, 0, 81, 100
2, 221952, Note_on_c, 0, 81, 100
2, 222044, Note_off_c, 0, 81, 100
2, 222048, Note_on_c, 0, 80, 90
2, 222140, Note_off_c, 0, 80, 100
2, 222144, Note_on_c, 0, 88, 80
2, 222236, Note_off_c, 0, 88, 100
2, 222240, Note_on_c, 0, 80, 80
2, 222332, Note_off_c, 0, 80, 100
2, 222336, Note_on_c, 0, 78, 80
2, 222428, Note_off_c, 0, 78, 100
2, 222432, Note_on_c, 0, 85, 80
2, 222524, Note_off_c, 0, 85, 100
2, 222528, Note_on_c, 0, 83, 80
2, 222620, Note_off_c, 0, 83, 100
2, 222624, Note_on_c, 0, 75, 80
2, 222716, Note_off_c, 0, 75, 100
2, 222720, Note_on_c, 0, 76, 80
2, 223100, Note_off_c, 0, 76, 100
2, 223488, Control_c, 0, 7, 0
2, 223872, Note_on_c, 0, 64, 1
2, 224252, Note_off_c, 0, 64, 100
2, 224252, End_track
3, 0, Start_track
3, 0, Title_t, "Left"
3, 0, Control_c, 1, 0, 0
3, 0, Program_c, 1, 0
3, 0, Control_c, 1, 7, 100
3, 0, Control_c, 1, 10, 59
3, 0, Control_c, 1, 91, 127
3, 0, Key_signature, 4, "minor"
3, 384, Note_on_c, 1, 52, 80
3, 384, Note_on_c, 1, 40, 80
3, 572, Note_off_c, 1, 52, 100
3, 572, Note_off_c, 1, 40, 100
3, 1152, Note_on_c, 1, 47, 80
3, 1152, Note_on_c, 1, 35, 80
3, 1340, Note_off_c, 1, 47, 100
3, 1340, Note_off_c, 1, 35, 100
3, 1920, Note_on_c, 1, 49, 80
3, 1920, Note_on_c, 1, 37, 80
3, 2108, Note_off_c, 1, 49, 100
3, 2108, Note_off_c, 1, 37, 100
3, 2304, Note_on_c, 1, 51, 80
3, 2304, Note_on_c, 1, 39, 80
3, 2492, Note_off_c, 1, 51, 100
3, 2492, Note_off_c, 1, 39, 100
3, 2496, Note_on_c, 1, 47, 80
3, 2496, Note_on_c, 1, 35, 80
3, 2684, Note_off_c, 1, 47, 100
3, 2684, Note_off_c, 1, 35, 100
3, 2688, Note_on_c, 1, 52, 80
3, 2688, Note_on_c, 1, 40, 80
3, 2780, Note_off_c, 1, 52, 100
3, 2780, Note_off_c, 1, 40, 100
3, 2784, Note_on_c, 1, 56, 80
3, 2876, Note_off_c, 1, 56, 100
3, 2880, Note_on_c, 1, 59, 80
3, 2972, Note_off_c, 1, 59, 100
3, 2976, Note_on_c, 1, 57, 80
3, 3068, Note_off_c, 1, 57, 100
3, 3072, Note_on_c, 1, 56, 80
3, 3164, Note_off_c, 1, 56, 100
3, 3168, Note_on_c, 1, 57, 80
3, 3260, Note_off_c, 1, 57, 100
3, 3264, Note_on_c, 1, 56, 80
3, 3356, Note_off_c, 1, 56, 100
3, 3360, Note_on_c, 1, 54, 80
3, 3452, Note_off_c, 1, 54, 100
3, 3456, Note_on_c, 1, 52, 80
3, 3548, Note_off_c, 1, 52, 100
3, 3552, Note_on_c, 1, 59, 80
3, 3644, Note_off_c, 1, 59, 100
3, 3648, Note_on_c, 1, 47, 80
3, 3740, Note_off_c, 1, 47, 100
3, 3744, Note_on_c, 1, 59, 80
3, 3836, Note_off_c, 1, 59, 100
3, 3840, Note_on_c, 1, 52, 80
3, 3932, Note_off_c, 1, 52, 100
3, 3936, Note_on_c, 1, 59, 80
3, 4028, Note_off_c, 1, 59, 100
3, 4032, Note_on_c, 1, 47, 80
3, 4124, Note_off_c, 1, 47, 100
3, 4128, Note_on_c, 1, 59, 80
3, 4220, Note_off_c, 1, 59, 100
3, 4224, Note_on_c, 1, 51, 80
3, 4316, Note_off_c, 1, 51, 100
3, 4320, Note_on_c, 1, 59, 80
3, 4412, Note_off_c, 1, 59, 100
3, 4416, Note_on_c, 1, 47, 80
3, 4508, Note_off_c, 1, 47, 100
3, 4512, Note_on_c, 1, 59, 80
3, 4604, Note_off_c, 1, 59, 100
3, 4608, Note_on_c, 1, 51, 80
3, 4700, Note_off_c, 1, 51, 100
3, 4704, Note_on_c, 1, 59, 80
3, 4796, Note_off_c, 1, 59, 100
3, 4800, Note_on_c, 1, 53, 80
3, 4892, Note_off_c, 1, 53, 100
3, 4896, Note_on_c, 1, 59, 80
3, 4988, Note_off_c, 1, 59, 100
3, 4992, Note_on_c, 1, 54, 80
3, 5084, Note_off_c, 1, 54, 100
3, 5088, Note_on_c, 1, 59, 80
3, 5180, Note_off_c, 1, 59, 100
3, 5184, Note_on_c, 1, 57, 80
3, 5276, Note_off_c, 1, 57, 100
3, 5280, Note_on_c, 1, 59, 80
3, 5372, Note_off_c, 1, 59, 100
3, 5376, Note_on_c, 1, 56, 80
3, 5468, Note_off_c, 1, 56, 100
3, 5472, Note_on_c, 1, 59, 80
3, 5564, Note_off_c, 1, 59, 100
3, 5568, Note_on_c, 1, 54, 80
3, 5568, Note_on_c, 1, 47, 80
3, 5660, Note_off_c, 1, 54, 100
3, 5660, Note_off_c, 1, 47, 100
3, 5664, Note_on_c, 1, 57, 80
3, 5756, Note_off_c, 1, 57, 100
3, 5760, Note_on_c, 1, 56, 80
3, 5760, Note_on_c, 1, 52, 80
3, 5852, Note_off_c, 1, 56, 100
3, 5852, Note_off_c, 1, 52, 100
3, 5856, Note_on_c, 1, 59, 80
3, 5948, Note_off_c, 1, 59, 100
3, 5952, Note_on_c, 1, 56, 80
3, 6044, Note_off_c, 1, 56, 100
3, 6048, Note_on_c, 1, 52, 80
3, 6140, Note_off_c, 1, 52, 100
3, 6144, Note_on_c, 1, 51, 80
3, 6236, Note_off_c, 1, 51, 100
3, 6240, Note_on_c, 1, 59, 80
3, 6332, Note_off_c, 1, 59, 100
3, 6336, Note_on_c, 1, 54, 80
3, 6428, Note_off_c, 1, 54, 100
3, 6432, Note_on_c, 1, 51, 80
3, 6524, Note_off_c, 1, 51, 100
3, 6528, Note_on_c, 1, 49, 80
3, 6620, Note_off_c, 1, 49, 100
3, 6624, Note_on_c, 1, 58, 80
3, 6716, Note_off_c, 1, 58, 100
3, 6720, Note_on_c, 1, 54, 80
3, 6812, Note_off_c, 1, 54, 100
3, 6816, Note_on_c, 1, 49, 80
3, 6908, Note_off_c, 1, 49, 100
3, 6912, Note_on_c, 1, 42, 80
3, 7004, Note_off_c, 1, 42, 100
3, 7008, Note_on_c, 1, 58, 80
3, 7100, Note_off_c, 1, 58, 100
3, 7104, Note_on_c, 1, 54, 80
3, 7196, Note_off_c, 1, 54, 100
3, 7200, Note_on_c, 1, 49, 80
3, 7292, Note_off_c, 1, 49, 100
3, 7296, Note_on_c, 1, 47, 80
3, 7388, Note_off_c, 1, 47, 100
3, 7392, Note_on_c, 1, 59, 80
3, 7484, Note_off_c, 1, 59, 100
3, 7488, Note_on_c, 1, 54, 80
3, 7580, Note_off_c, 1, 54, 100
3, 7584, Note_on_c, 1, 51, 80
3, 7676, Note_off_c, 1, 51, 100
3, 7680, Note_on_c, 1, 47, 80
3, 7772, Note_off_c, 1, 47, 100
3, 7776, Note_on_c, 1, 59, 80
3, 7868, Note_off_c, 1, 59, 100
3, 7872, Note_on_c, 1, 49, 80
3, 7964, Note_off_c, 1, 49, 100
3, 7968, Note_on_c, 1, 57, 80
3, 8060, Note_off_c, 1, 57, 100
3, 8064, Note_on_c, 1, 47, 80
3, 8156, Note_off_c, 1, 47, 100
3, 8160, Note_on_c, 1, 56, 80
3, 8252, Note_off_c, 1, 56, 100
3, 8256, Note_on_c, 1, 52, 80
3, 8348, Note_off_c, 1, 52, 100
3, 8352, Note_on_c, 1, 47, 80
3, 8444, Note_off_c, 1, 47, 100
3, 8448, Note_on_c, 1, 40, 80
3, 8540, Note_off_c, 1, 40, 100
3, 8544, Note_on_c, 1, 56, 80
3, 8636, Note_off_c, 1, 56, 100
3, 8640, Note_on_c, 1, 52, 80
3, 8732, Note_off_c, 1, 52, 100
3, 8736, Note_on_c, 1, 47, 80
3, 8828, Note_off_c, 1, 47, 100
3, 8832, Note_on_c, 1, 45, 80
3, 8924, Note_off_c, 1, 45, 100
3, 8928, Note_on_c, 1, 57, 80
3, 9020, Note_off_c, 1, 57, 100
3, 9024, Note_on_c, 1, 52, 80
3, 9116, Note_off_c, 1, 52, 100
3, 9120, Note_on_c, 1, 49, 80
3, 9212, Note_off_c, 1, 49, 100
3, 9216, Note_on_c, 1, 45, 80
3, 9308, Note_off_c, 1, 45, 100
3, 9312, Note_on_c, 1, 52, 80
3, 9404, Note_off_c, 1, 52, 100
3, 9408, Note_on_c, 1, 44, 80
3, 9500, Note_off_c, 1, 44, 100
3, 9504, Note_on_c, 1, 52, 81
3, 9596, Note_off_c, 1, 52, 100
3, 9600, Note_on_c, 1, 44, 82
3, 9692, Note_off_c, 1, 44, 100
3, 9696, Note_on_c, 1, 52, 83
3, 9788, Note_off_c, 1, 52, 100
3, 9792, Note_on_c, 1, 45, 84
3, 9884, Note_off_c, 1, 45, 100
3, 9888, Note_on_c, 1, 52, 85
3, 9980, Note_off_c, 1, 52, 100
3, 9984, Note_on_c, 1, 45, 87
3, 10076, Note_off_c, 1, 45, 100
3, 10080, Note_on_c, 1, 52, 88
3, 10172, Note_off_c, 1, 52, 100
3, 10176, Note_on_c, 1, 47, 89
3, 10268, Note_off_c, 1, 47, 100
3, 10272, Note_on_c, 1, 52, 90
3, 10364, Note_off_c, 1, 52, 100
3, 10368, Note_on_c, 1, 49, 91
3, 10460, Note_off_c, 1, 49, 100
3, 10464, Note_on_c, 1, 52, 92
3, 10556, Note_off_c, 1, 52, 100
3, 10560, Note_on_c, 1, 49, 94
3, 10652, Note_off_c, 1, 49, 100
3, 10656, Note_on_c, 1, 52, 95
3, 10748, Note_off_c, 1, 52, 100
3, 10752, Note_on_c, 1, 48, 96
3, 10844, Note_off_c, 1, 48, 100
3, 10848, Note_on_c, 1, 52, 97
3, 10940, Note_off_c, 1, 52, 100
3, 10944, Note_on_c, 1, 48, 98
3, 11036, Note_off_c, 1, 48, 100
3, 11040, Note_on_c, 1, 52, 88
3, 11132, Note_off_c, 1, 52, 100
3, 11136, Note_on_c, 1, 47, 80
3, 11228, Note_off_c, 1, 47, 100
3, 11232, Note_on_c, 1, 54, 80
3, 11324, Note_off_c, 1, 54, 100
3, 11328, Note_on_c, 1, 47, 80
3, 11420, Note_off_c, 1, 47, 100
3, 11424, Note_on_c, 1, 54, 80
3, 11424, Note_on_c, 1, 57, 80
3, 11516, Note_off_c, 1, 54, 100
3, 11516, Note_off_c, 1, 57, 100
3, 11520, Note_on_c, 1, 47, 80
3, 11612, Note_off_c, 1, 47, 100
3, 11616, Note_on_c, 1, 54, 80
3, 11616, Note_on_c, 1, 57, 80
3, 11708, Note_off_c, 1, 54, 100
3, 11708, Note_off_c, 1, 57, 100
3, 11712, Note_on_c, 1, 47, 80
3, 11804, Note_off_c, 1, 47, 100
3, 11808, Note_on_c, 1, 54, 80
3, 11808, Note_on_c, 1, 57, 80
3, 11900, Note_off_c, 1, 54, 100
3, 11900, Note_off_c, 1, 57, 100
3, 11904, Note_on_c, 1, 56, 80
3, 11904, Note_on_c, 1, 52, 80
3, 11996, Note_off_c, 1, 56, 100
3, 11996, Note_off_c, 1, 52, 100
3, 12000, Note_on_c, 1, 59, 80
3, 12092, Note_off_c, 1, 59, 100
3, 12096, Note_on_c, 1, 56, 80
3, 12188, Note_off_c, 1, 56, 100
3, 12192, Note_on_c, 1, 52, 80
3, 12284, Note_off_c, 1, 52, 100
3, 12288, Note_on_c, 1, 51, 80
3, 12380, Note_off_c, 1, 51, 100
3, 12384, Note_on_c, 1, 59, 80
3, 12476, Note_off_c, 1, 59, 100
3, 12480, Note_on_c, 1, 54, 80
3, 12572, Note_off_c, 1, 54, 100
3, 12576, Note_on_c, 1, 51, 80
3, 12668, Note_off_c, 1, 51, 100
3, 12672, Note_on_c, 1, 49, 80
3, 12764, Note_off_c, 1, 49, 100
3, 12768, Note_on_c, 1, 58, 80
3, 12860, Note_off_c, 1, 58, 100
3, 12864, Note_on_c, 1, 54, 80
3, 12956, Note_off_c, 1, 54, 100
3, 12960, Note_on_c, 1, 49, 80
3, 13052, Note_off_c, 1, 49, 100
3, 13056, Note_on_c, 1, 42, 80
3, 13148, Note_off_c, 1, 42, 100
3, 13152, Note_on_c, 1, 58, 80
3, 13244, Note_off_c, 1, 58, 100
3, 13248, Note_on_c, 1, 54, 80
3, 13340, Note_off_c, 1, 54, 100
3, 13344, Note_on_c, 1, 49, 80
3, 13436, Note_off_c, 1, 49, 100
3, 13440, Note_on_c, 1, 47, 80
3, 13532, Note_off_c, 1, 47, 100
3, 13536, Note_on_c, 1, 59, 80
3, 13628, Note_off_c, 1, 59, 100
3, 13632, Note_on_c, 1, 54, 80
3, 13724, Note_off_c, 1, 54, 100
3, 13728, Note_on_c, 1, 51, 80
3, 13820, Note_off_c, 1, 51, 100
3, 13824, Note_on_c, 1, 47, 80
3, 13916, Note_off_c, 1, 47, 100
3, 13920, Note_on_c, 1, 59, 80
3, 14012, Note_off_c, 1, 59, 100
3, 14016, Note_on_c, 1, 49, 80
3, 14108, Note_off_c, 1, 49, 100
3, 14112, Note_on_c, 1, 57, 80
3, 14204, Note_off_c, 1, 57, 100
3, 14208, Note_on_c, 1, 47, 80
3, 14300, Note_off_c, 1, 47, 100
3, 14304, Note_on_c, 1, 56, 80
3, 14396, Note_off_c, 1, 56, 100
3, 14400, Note_on_c, 1, 52, 80
3, 14492, Note_off_c, 1, 52, 100
3, 14496, Note_on_c, 1, 47, 80
3, 14588, Note_off_c, 1, 47, 100
3, 14592, Note_on_c, 1, 40, 80
3, 14684, Note_off_c, 1, 40, 100
3, 14688, Note_on_c, 1, 56, 80
3, 14780, Note_off_c, 1, 56, 100
3, 14784, Note_on_c, 1, 52, 80
3, 14876, Note_off_c, 1, 52, 100
3, 14880, Note_on_c, 1, 47, 80
3, 14972, Note_off_c, 1, 47, 100
3, 14976, Note_on_c, 1, 45, 80
3, 15068, Note_off_c, 1, 45, 100
3, 15072, Note_on_c, 1, 57, 80
3, 15164, Note_off_c, 1, 57, 100
3, 15168, Note_on_c, 1, 52, 80
3, 15260, Note_off_c, 1, 52, 100
3, 15264, Note_on_c, 1, 49, 80
3, 15356, Note_off_c, 1, 49, 100
3, 15360, Note_on_c, 1, 45, 80
3, 15452, Note_off_c, 1, 45, 100
3, 15456, Note_on_c, 1, 52, 80
3, 15548, Note_off_c, 1, 52, 100
3, 15552, Note_on_c, 1, 44, 80
3, 15644, Note_off_c, 1, 44, 100
3, 15648, Note_on_c, 1, 52, 81
3, 15740, Note_off_c, 1, 52, 100
3, 15744, Note_on_c, 1, 44, 82
3, 15836, Note_off_c, 1, 44, 100
3, 15840, Note_on_c, 1, 52, 83
3, 15932, Note_off_c, 1, 52, 100
3, 15936, Note_on_c, 1, 45, 84
3, 16028, Note_off_c, 1, 45, 100
3, 16032, Note_on_c, 1, 52, 85
3, 16124, Note_off_c, 1, 52, 100
3, 16128, Note_on_c, 1, 45, 87
3, 16128, Note_on_c, 1, 49, 87
3, 16220, Note_off_c, 1, 45, 100
3, 16220, Note_off_c, 1, 49, 100
3, 16224, Note_on_c, 1, 52, 88
3, 16316, Note_off_c, 1, 52, 100
3, 16320, Note_on_c, 1, 47, 89
3, 16320, Note_on_c, 1, 52, 89
3, 16412, Note_off_c, 1, 47, 100
3, 16412, Note_off_c, 1, 52, 100
3, 16416, Note_on_c, 1, 56, 90
3, 16508, Note_off_c, 1, 56, 100
3, 16512, Note_on_c, 1, 49, 91
3, 16512, Note_on_c, 1, 52, 91
3, 16604, Note_off_c, 1, 49, 100
3, 16604, Note_off_c, 1, 52, 100
3, 16608, Note_on_c, 1, 58, 92
3, 16700, Note_off_c, 1, 58, 100
3, 16704, Note_on_c, 1, 49, 94
3, 16704, Note_on_c, 1, 52, 94
3, 16796, Note_off_c, 1, 49, 100
3, 16796, Note_off_c, 1, 52, 100
3, 16800, Note_on_c, 1, 58, 95
3, 16892, Note_off_c, 1, 58, 100
3, 16896, Note_on_c, 1, 48, 96
3, 16896, Note_on_c, 1, 52, 96
3, 16988, Note_off_c, 1, 48, 100
3, 16988, Note_off_c, 1, 52, 100
3, 16992, Note_on_c, 1, 57, 97
3, 17084, Note_off_c, 1, 57, 100
3, 17088, Note_on_c, 1, 48, 98
3, 17088, Note_on_c, 1, 52, 100
3, 17180, Note_off_c, 1, 48, 100
3, 17180, Note_off_c, 1, 52, 100
3, 17184, Note_on_c, 1, 57, 89
3, 17276, Note_off_c, 1, 57, 100
3, 17280, Note_on_c, 1, 47, 80
3, 17280, Note_on_c, 1, 51, 80
3, 17372, Note_off_c, 1, 47, 100
3, 17372, Note_off_c, 1, 51, 100
3, 17376, Note_on_c, 1, 57, 80
3, 17468, Note_off_c, 1, 57, 100
3, 17472, Note_on_c, 1, 47, 80
3, 17472, Note_on_c, 1, 51, 80
3, 17564, Note_off_c, 1, 47, 100
3, 17564, Note_off_c, 1, 51, 100
3, 17568, Note_on_c, 1, 57, 80
3, 17660, Note_off_c, 1, 57, 100
3, 17664, Note_on_c, 1, 47, 80
3, 17664, Note_on_c, 1, 51, 80
3, 17756, Note_off_c, 1, 47, 100
3, 17756, Note_off_c, 1, 51, 100
3, 17760, Note_on_c, 1, 57, 80
3, 17852, Note_off_c, 1, 57, 100
3, 17856, Note_on_c, 1, 47, 80
3, 17856, Note_on_c, 1, 51, 80
3, 17948, Note_off_c, 1, 47, 100
3, 17948, Note_off_c, 1, 51, 100
3, 17952, Note_on_c, 1, 57, 80
3, 18044, Note_off_c, 1, 57, 100
3, 18048, Note_on_c, 1, 56, 80
3, 18048, Note_on_c, 1, 52, 80
3, 18140, Note_off_c, 1, 56, 100
3, 18140, Note_off_c, 1, 52, 100
3, 18144, Note_on_c, 1, 52, 80
3, 18236, Note_off_c, 1, 52, 100
3, 18240, Note_on_c, 1, 51, 80
3, 18332, Note_off_c, 1, 51, 100
3, 18336, Note_on_c, 1, 49, 80
3, 18428, Note_off_c, 1, 49, 100
3, 18432, Note_on_c, 1, 47, 80
3, 18524, Note_off_c, 1, 47, 100
3, 18528, Note_on_c, 1, 45, 80
3, 18620, Note_off_c, 1, 45, 100
3, 18624, Note_on_c, 1, 44, 80
3, 18716, Note_off_c, 1, 44, 100
3, 18720, Note_on_c, 1, 42, 80
3, 18812, Note_off_c, 1, 42, 100
3, 18816, Note_on_c, 1, 40, 80
3, 19004, Note_off_c, 1, 40, 100
3, 19584, Note_on_c, 1, 35, 80
3, 19772, Note_off_c, 1, 35, 100
3, 20352, Note_on_c, 1, 37, 80
3, 20540, Note_off_c, 1, 37, 100
3, 20736, Note_on_c, 1, 39, 80
3, 20924, Note_off_c, 1, 39, 100
3, 20928, Note_on_c, 1, 35, 80
3, 21116, Note_off_c, 1, 35, 100
3, 21120, Note_on_c, 1, 40, 80
3, 21308, Note_off_c, 1, 40, 100
3, 21312, Note_on_c, 1, 64, 80
3, 21404, Note_off_c, 1, 64, 100
3, 21408, Note_on_c, 1, 59, 80
3, 21500, Note_off_c, 1, 59, 100
3, 21504, Note_on_c, 1, 64, 80
3, 21596, Note_off_c, 1, 64, 100
3, 21600, Note_on_c, 1, 59, 81
3, 21692, Note_off_c, 1, 59, 100
3, 21696, Note_on_c, 1, 64, 82
3, 21788, Note_off_c, 1, 64, 100
3, 21792, Note_on_c, 1, 59, 83
3, 21884, Note_off_c, 1, 59, 100
3, 21888, Note_on_c, 1, 64, 84
3, 21980, Note_off_c, 1, 64, 100
3, 21984, Note_on_c, 1, 59, 85
3, 22076, Note_off_c, 1, 59, 100
3, 22080, Note_on_c, 1, 64, 87
3, 22172, Note_off_c, 1, 64, 100
3, 22176, Note_on_c, 1, 59, 88
3, 22268, Note_off_c, 1, 59, 100
3, 22272, Note_on_c, 1, 68, 89
3, 22364, Note_off_c, 1, 68, 100
3, 22368, Note_on_c, 1, 59, 90
3, 22460, Note_off_c, 1, 59, 100
3, 22464, Note_on_c, 1, 66, 91
3, 22556, Note_off_c, 1, 66, 100
3, 22560, Note_on_c, 1, 59, 93
3, 22652, Note_off_c, 1, 59, 100
3, 22656, Note_on_c, 1, 64, 94
3, 22748, Note_off_c, 1, 64, 100
3, 22752, Note_on_c, 1, 59, 95
3, 22844, Note_off_c, 1, 59, 100
3, 22848, Note_on_c, 1, 63, 96
3, 22940, Note_off_c, 1, 63, 100
3, 22944, Note_on_c, 1, 59, 97
3, 23036, Note_off_c, 1, 59, 100
3, 23040, Note_on_c, 1, 63, 99
3, 23132, Note_off_c, 1, 63, 100
3, 23136, Note_on_c, 1, 59, 100
3, 23228, Note_off_c, 1, 59, 100
3, 23232, Note_on_c, 1, 65, 101
3, 23324, Note_off_c, 1, 65, 100
3, 23328, Note_on_c, 1, 59, 102
3, 23420, Note_off_c, 1, 59, 100
3, 23424, Note_on_c, 1, 66, 103
3, 23516, Note_off_c, 1, 66, 100
3, 23520, Note_on_c, 1, 59, 105
3, 23612, Note_off_c, 1, 59, 100
3, 23616, Note_on_c, 1, 69, 106
3, 23708, Note_off_c, 1, 69, 100
3, 23712, Note_on_c, 1, 59, 107
3, 23804, Note_off_c, 1, 59, 100
3, 23808, Note_on_c, 1, 68, 108
3, 23900, Note_off_c, 1, 68, 100
3, 23904, Note_on_c, 1, 59, 109
3, 23996, Note_off_c, 1, 59, 100
3, 24000, Note_on_c, 1, 66, 110
3, 24092, Note_off_c, 1, 66, 100
3, 24096, Note_on_c, 1, 59, 110
3, 24188, Note_off_c, 1, 59, 100
3, 24192, Note_on_c, 1, 64, 110
3, 24284, Note_off_c, 1, 64, 100
3, 24288, Note_on_c, 1, 59, 110
3, 24380, Note_off_c, 1, 59, 100
3, 24384, Note_on_c, 1, 56, 110
3, 24476, Note_off_c, 1, 56, 100
3, 24480, Note_on_c, 1, 59, 110
3, 24572, Note_off_c, 1, 59, 100
3, 24576, Note_on_c, 1, 52, 110
3, 24764, Note_off_c, 1, 52, 100
3, 24960, Note_on_c, 1, 61, 110
3, 25052, Note_off_c, 1, 61, 100
3, 25056, Note_on_c, 1, 56, 110
3, 25148, Note_off_c, 1, 56, 100
3, 25152, Note_on_c, 1, 52, 110
3, 25244, Note_off_c, 1, 52, 100
3, 25248, Note_on_c, 1, 56, 110
3, 25340, Note_off_c, 1, 56, 100
3, 25344, Note_on_c, 1, 49, 110
3, 25532, Note_off_c, 1, 49, 100
3, 25536, Note_on_c, 1, 61, 80
3, 25724, Note_off_c, 1, 61, 100
3, 25728, Note_on_c, 1, 60, 80
3, 25820, Note_off_c, 1, 60, 100
3, 25824, Note_on_c, 1, 56, 80
3, 25916, Note_off_c, 1, 56, 100
3, 25920, Note_on_c, 1, 51, 80
3, 26012, Note_off_c, 1, 51, 100
3, 26016, Note_on_c, 1, 56, 80
3, 26108, Note_off_c, 1, 56, 100
3, 26112, Note_on_c, 1, 48, 80
3, 26300, Note_off_c, 1, 48, 100
3, 26304, Note_on_c, 1, 60, 110
3, 26492, Note_off_c, 1, 60, 100
3, 26496, Note_on_c, 1, 56, 110
3, 26588, Note_off_c, 1, 56, 100
3, 26592, Note_on_c, 1, 51, 110
3, 26684, Note_off_c, 1, 51, 100
3, 26688, Note_on_c, 1, 48, 110
3, 26780, Note_off_c, 1, 48, 100
3, 26784, Note_on_c, 1, 51, 110
3, 26876, Note_off_c, 1, 51, 100
3, 26880, Note_on_c, 1, 44, 110
3, 27068, Note_off_c, 1, 44, 100
3, 27072, Note_on_c, 1, 60, 80
3, 27260, Note_off_c, 1, 60, 100
3, 27264, Note_on_c, 1, 61, 80
3, 27356, Note_off_c, 1, 61, 100
3, 27360, Note_on_c, 1, 56, 80
3, 27452, Note_off_c, 1, 56, 100
3, 27456, Note_on_c, 1, 52, 80
3, 27548, Note_off_c, 1, 52, 100
3, 27552, Note_on_c, 1, 56, 80
3, 27644, Note_off_c, 1, 56, 100
3, 27648, Note_on_c, 1, 49, 80
3, 27836, Note_off_c, 1, 49, 100
3, 27840, Note_on_c, 1, 61, 110
3, 28028, Note_off_c, 1, 61, 100
3, 28032, Note_on_c, 1, 59, 110
3, 28124, Note_off_c, 1, 59, 100
3, 28128, Note_on_c, 1, 56, 110
3, 28220, Note_off_c, 1, 56, 100
3, 28224, Note_on_c, 1, 52, 110
3, 28316, Note_off_c, 1, 52, 100
3, 28320, Note_on_c, 1, 56, 110
3, 28412, Note_off_c, 1, 56, 100
3, 28416, Note_on_c, 1, 47, 110
3, 28604, Note_off_c, 1, 47, 100
3, 28608, Note_on_c, 1, 59, 80
3, 28796, Note_off_c, 1, 59, 100
3, 28800, Note_on_c, 1, 58, 80
3, 28892, Note_off_c, 1, 58, 100
3, 28896, Note_on_c, 1, 54, 80
3, 28988, Note_off_c, 1, 54, 100
3, 28992, Note_on_c, 1, 49, 80
3, 29084, Note_off_c, 1, 49, 100
3, 29088, Note_on_c, 1, 54, 80
3, 29180, Note_off_c, 1, 54, 100
3, 29184, Note_on_c, 1, 46, 80
3, 29372, Note_off_c, 1, 46, 100
3, 29376, Note_on_c, 1, 46, 110
3, 29564, Note_off_c, 1, 46, 100
3, 29568, Note_on_c, 1, 44, 110
3, 29660, Note_off_c, 1, 44, 100
3, 29664, Note_on_c, 1, 40, 110
3, 29756, Note_off_c, 1, 40, 100
3, 29760, Note_on_c, 1, 35, 110
3, 29852, Note_off_c, 1, 35, 100
3, 29856, Note_on_c, 1, 40, 110
3, 29948, Note_off_c, 1, 40, 100
3, 29952, Note_on_c, 1, 32, 110
3, 30140, Note_off_c, 1, 32, 100
3, 30144, Note_on_c, 1, 32, 110
3, 30144, Note_on_c, 1, 44, 110
3, 30332, Note_off_c, 1, 32, 100
3, 30332, Note_off_c, 1, 44, 100
3, 30336, Note_on_c, 1, 42, 110
3, 30336, Note_on_c, 1, 30, 110
3, 30524, Note_off_c, 1, 42, 100
3, 30524, Note_off_c, 1, 30, 100
3, 30528, Note_on_c, 1, 66, 80
3, 30620, Note_off_c, 1, 66, 100
3, 30624, Note_on_c, 1, 68, 80
3, 30716, Note_off_c, 1, 68, 100
3, 30720, Note_on_c, 1, 66, 80
3, 30812, Note_off_c, 1, 66, 100
3, 30816, Note_on_c, 1, 68, 80
3, 30908, Note_off_c, 1, 68, 100
3, 30912, Note_on_c, 1, 66, 80
3, 31004, Note_off_c, 1, 66, 100
3, 31008, Note_on_c, 1, 68, 80
3, 31100, Note_off_c, 1, 68, 100
3, 31104, Note_on_c, 1, 66, 80
3, 31104, Note_on_c, 1, 61, 80
3, 31104, Note_on_c, 1, 58, 80
3, 31196, Note_off_c, 1, 66, 100
3, 31200, Note_on_c, 1, 68, 80
3, 31292, Note_off_c, 1, 68, 100
3, 31296, Note_on_c, 1, 66, 80
3, 31388, Note_off_c, 1, 66, 100
3, 31392, Note_on_c, 1, 68, 80
3, 31484, Note_off_c, 1, 68, 100
3, 31488, Note_on_c, 1, 66, 80
3, 31580, Note_off_c, 1, 66, 100
3, 31584, Note_on_c, 1, 68, 80
3, 31676, Note_off_c, 1, 61, 100
3, 31676, Note_off_c, 1, 58, 100
3, 31676, Note_off_c, 1, 68, 100
3, 31680, Note_on_c, 1, 66, 80
3, 31680, Note_on_c, 1, 63, 80
3, 31680, Note_on_c, 1, 59, 80
3, 31772, Note_off_c, 1, 66, 100
3, 31776, Note_on_c, 1, 68, 80
3, 31868, Note_off_c, 1, 63, 100
3, 31868, Note_off_c, 1, 59, 100
3, 31868, Note_off_c, 1, 68, 100
3, 31872, Note_on_c, 1, 66, 80
3, 31872, Note_on_c, 1, 63, 80
3, 31872, Note_on_c, 1, 59, 80
3, 31964, Note_off_c, 1, 66, 100
3, 31968, Note_on_c, 1, 68, 80
3, 32060, Note_off_c, 1, 63, 100
3, 32060, Note_off_c, 1, 59, 100
3, 32060, Note_off_c, 1, 68, 100
3, 32064, Note_on_c, 1, 66, 80
3, 32064, Note_on_c, 1, 64, 80
3, 32064, Note_on_c, 1, 61, 80
3, 32156, Note_off_c, 1, 66, 100
3, 32160, Note_on_c, 1, 68, 80
3, 32252, Note_off_c, 1, 64, 100
3, 32252, Note_off_c, 1, 61, 100
3, 32252, Note_off_c, 1, 68, 100
3, 32256, Note_on_c, 1, 66, 80
3, 32256, Note_on_c, 1, 64, 80
3, 32256, Note_on_c, 1, 61, 80
3, 32348, Note_off_c, 1, 66, 100
3, 32352, Note_on_c, 1, 68, 80
3, 32444, Note_off_c, 1, 64, 100
3, 32444, Note_off_c, 1, 61, 100
3, 32444, Note_off_c, 1, 68, 100
3, 32448, Note_on_c, 1, 66, 80
3, 32448, Note_on_c, 1, 63, 80
3, 32448, Note_on_c, 1, 59, 80
3, 32540, Note_off_c, 1, 66, 100
3, 32544, Note_on_c, 1, 68, 80
3, 32636, Note_off_c, 1, 63, 100
3, 32636, Note_off_c, 1, 59, 100
3, 32636, Note_off_c, 1, 68, 100
3, 32640, Note_on_c, 1, 66, 80
3, 32640, Note_on_c, 1, 61, 80
3, 32640, Note_on_c, 1, 58, 80
3, 32732, Note_off_c, 1, 66, 100
3, 32736, Note_on_c, 1, 68, 80
3, 32828, Note_off_c, 1, 68, 100
3, 32832, Note_on_c, 1, 66, 80
3, 32924, Note_off_c, 1, 66, 100
3, 32928, Note_on_c, 1, 68, 80
3, 33020, Note_off_c, 1, 68, 100
3, 33024, Note_on_c, 1, 66, 80
3, 33116, Note_off_c, 1, 66, 100
3, 33120, Note_on_c, 1, 68, 80
3, 33212, Note_off_c, 1, 61, 100
3, 33212, Note_off_c, 1, 58, 100
3, 33212, Note_off_c, 1, 68, 100
3, 33216, Note_on_c, 1, 66, 80
3, 33216, Note_on_c, 1, 63, 80
3, 33216, Note_on_c, 1, 59, 80
3, 33308, Note_off_c, 1, 66, 100
3, 33312, Note_on_c, 1, 68, 80
3, 33404, Note_off_c, 1, 63, 100
3, 33404, Note_off_c, 1, 59, 100
3, 33404, Note_off_c, 1, 68, 100
3, 33408, Note_on_c, 1, 66, 80
3, 33408, Note_on_c, 1, 64, 80
3, 33408, Note_on_c, 1, 61, 80
3, 33500, Note_off_c, 1, 66, 100
3, 33504, Note_on_c, 1, 68, 80
3, 33596, Note_off_c, 1, 64, 100
3, 33596, Note_off_c, 1, 61, 100
3, 33596, Note_off_c, 1, 68, 100
3, 33600, Note_on_c, 1, 66, 80
3, 33600, Note_on_c, 1, 61, 80
3, 33600, Note_on_c, 1, 58, 80
3, 33692, Note_off_c, 1, 66, 100
3, 33696, Note_on_c, 1, 68, 80
3, 33788, Note_off_c, 1, 61, 100
3, 33788, Note_off_c, 1, 58, 100
3, 33788, Note_off_c, 1, 68, 100
3, 33792, Note_on_c, 1, 66, 80
3, 33792, Note_on_c, 1, 63, 80
3, 33792, Note_on_c, 1, 59, 80
3, 33884, Note_off_c, 1, 66, 100
3, 33888, Note_on_c, 1, 68, 80
3, 33980, Note_off_c, 1, 63, 100
3, 33980, Note_off_c, 1, 59, 100
3, 33980, Note_off_c, 1, 68, 100
3, 33984, Note_on_c, 1, 66, 80
3, 33984, Note_on_c, 1, 64, 80
3, 33984, Note_on_c, 1, 61, 80
3, 34076, Note_off_c, 1, 66, 100
3, 34080, Note_on_c, 1, 68, 80
3, 34172, Note_off_c, 1, 64, 100
3, 34172, Note_off_c, 1, 61, 100
3, 34172, Note_off_c, 1, 68, 100
3, 34176, Note_on_c, 1, 66, 80
3, 34176, Note_on_c, 1, 63, 80
3, 34268, Note_off_c, 1, 66, 100
3, 34268, Note_off_c, 1, 63, 100
3, 34272, Note_on_c, 1, 71, 80
3, 34364, Note_off_c, 1, 71, 100
3, 34368, Note_on_c, 1, 66, 80
3, 34460, Note_off_c, 1, 66, 100
3, 34464, Note_on_c, 1, 71, 80
3, 34556, Note_off_c, 1, 71, 100
3, 34560, Note_on_c, 1, 64, 80
3, 34652, Note_off_c, 1, 64, 100
3, 34656, Note_on_c, 1, 71, 80
3, 34748, Note_off_c, 1, 71, 100
3, 34752, Note_on_c, 1, 63, 80
3, 34844, Note_off_c, 1, 63, 100
3, 34848, Note_on_c, 1, 71, 80
3, 34940, Note_off_c, 1, 71, 100
3, 34944, Note_on_c, 1, 64, 80
3, 35036, Note_off_c, 1, 64, 100
3, 35040, Note_on_c, 1, 71, 80
3, 35132, Note_off_c, 1, 71, 100
3, 35136, Note_on_c, 1, 66, 80
3, 35228, Note_off_c, 1, 66, 100
3, 35232, Note_on_c, 1, 71, 80
3, 35324, Note_off_c, 1, 71, 100
3, 35328, Note_on_c, 1, 68, 80
3, 35420, Note_off_c, 1, 68, 100
3, 35424, Note_on_c, 1, 71, 80
3, 35516, Note_off_c, 1, 71, 100
3, 35520, Note_on_c, 1, 65, 80
3, 35612, Note_off_c, 1, 65, 100
3, 35616, Note_on_c, 1, 71, 80
3, 35708, Note_off_c, 1, 71, 100
3, 35712, Note_on_c, 1, 66, 80
3, 35808, Note_on_c, 1, 68, 80
3, 35900, Note_off_c, 1, 68, 100
3, 35904, Note_on_c, 1, 70, 80
3, 35996, Note_off_c, 1, 70, 100
3, 36000, Note_on_c, 1, 71, 80
3, 36092, Note_off_c, 1, 71, 100
3, 36096, Note_on_c, 1, 70, 80
3, 36188, Note_off_c, 1, 70, 100
3, 36192, Note_on_c, 1, 71, 80
3, 36284, Note_off_c, 1, 71, 100
3, 36288, Note_on_c, 1, 73, 80
3, 36380, Note_off_c, 1, 73, 100
3, 36384, Note_on_c, 1, 75, 80
3, 36476, Note_off_c, 1, 66, 100
3, 36476, Note_off_c, 1, 75, 100
3, 36480, Note_on_c, 1, 70, 80
3, 36480, Note_on_c, 1, 66, 80
3, 36668, Note_off_c, 1, 70, 100
3, 36668, Note_off_c, 1, 66, 100
3, 36672, Note_on_c, 1, 68, 80
3, 36764, Note_off_c, 1, 68, 100
3, 36768, Note_on_c, 1, 66, 80
3, 36860, Note_off_c, 1, 66, 100
3, 36864, Note_on_c, 1, 68, 80
3, 36956, Note_off_c, 1, 68, 100
3, 36960, Note_on_c, 1, 66, 80
3, 37052, Note_off_c, 1, 66, 100
3, 37056, Note_on_c, 1, 68, 80
3, 37148, Note_off_c, 1, 68, 100
3, 37152, Note_on_c, 1, 66, 80
3, 37244, Note_off_c, 1, 66, 100
3, 37248, Note_on_c, 1, 68, 80
3, 37248, Note_on_c, 1, 61, 80
3, 37248, Note_on_c, 1, 58, 80
3, 37340, Note_off_c, 1, 68, 100
3, 37344, Note_on_c, 1, 66, 80
3, 37436, Note_off_c, 1, 66, 100
3, 37440, Note_on_c, 1, 68, 80
3, 37532, Note_off_c, 1, 68, 100
3, 37536, Note_on_c, 1, 66, 80
3, 37628, Note_off_c, 1, 66, 100
3, 37632, Note_on_c, 1, 68, 80
3, 37724, Note_off_c, 1, 68, 100
3, 37728, Note_on_c, 1, 66, 80
3, 37820, Note_off_c, 1, 61, 100
3, 37820, Note_off_c, 1, 58, 100
3, 37820, Note_off_c, 1, 66, 100
3, 37824, Note_on_c, 1, 68, 80
3, 37824, Note_on_c, 1, 63, 80
3, 37824, Note_on_c, 1, 59, 80
3, 37916, Note_off_c, 1, 68, 100
3, 37920, Note_on_c, 1, 66, 80
3, 38012, Note_off_c, 1, 63, 100
3, 38012, Note_off_c, 1, 59, 100
3, 38012, Note_off_c, 1, 66, 100
3, 38016, Note_on_c, 1, 68, 80
3, 38016, Note_on_c, 1, 63, 80
3, 38016, Note_on_c, 1, 59, 80
3, 38108, Note_off_c, 1, 68, 100
3, 38112, Note_on_c, 1, 66, 80
3, 38204, Note_off_c, 1, 63, 100
3, 38204, Note_off_c, 1, 59, 100
3, 38204, Note_off_c, 1, 66, 100
3, 38208, Note_on_c, 1, 68, 80
3, 38208, Note_on_c, 1, 64, 80
3, 38208, Note_on_c, 1, 61, 80
3, 38300, Note_off_c, 1, 68, 100
3, 38304, Note_on_c, 1, 66, 80
3, 38396, Note_off_c, 1, 64, 100
3, 38396, Note_off_c, 1, 61, 100
3, 38396, Note_off_c, 1, 66, 100
3, 38400, Note_on_c, 1, 68, 80
3, 38400, Note_on_c, 1, 64, 80
3, 38400, Note_on_c, 1, 61, 80
3, 38492, Note_off_c, 1, 68, 100
3, 38496, Note_on_c, 1, 66, 80
3, 38588, Note_off_c, 1, 64, 100
3, 38588, Note_off_c, 1, 61, 100
3, 38588, Note_off_c, 1, 66, 100
3, 38592, Note_on_c, 1, 68, 80
3, 38592, Note_on_c, 1, 63, 80
3, 38592, Note_on_c, 1, 59, 80
3, 38684, Note_off_c, 1, 68, 100
3, 38688, Note_on_c, 1, 66, 80
3, 38780, Note_off_c, 1, 63, 100
3, 38780, Note_off_c, 1, 59, 100
3, 38780, Note_off_c, 1, 66, 100
3, 38784, Note_on_c, 1, 68, 80
3, 38784, Note_on_c, 1, 61, 80
3, 38784, Note_on_c, 1, 58, 80
3, 38876, Note_off_c, 1, 68, 100
3, 38880, Note_on_c, 1, 66, 81
3, 38972, Note_off_c, 1, 66, 100
3, 38976, Note_on_c, 1, 68, 83
3, 39068, Note_off_c, 1, 68, 100
3, 39072, Note_on_c, 1, 66, 85
3, 39164, Note_off_c, 1, 66, 100
3, 39168, Note_on_c, 1, 68, 87
3, 39260, Note_off_c, 1, 68, 100
3, 39264, Note_on_c, 1, 66, 89
3, 39356, Note_off_c, 1, 61, 100
3, 39356, Note_off_c, 1, 58, 100
3, 39356, Note_off_c, 1, 66, 100
3, 39360, Note_on_c, 1, 68, 91
3, 39360, Note_on_c, 1, 63, 91
3, 39360, Note_on_c, 1, 59, 91
3, 39452, Note_off_c, 1, 68, 100
3, 39456, Note_on_c, 1, 66, 93
3, 39548, Note_off_c, 1, 63, 100
3, 39548, Note_off_c, 1, 59, 100
3, 39548, Note_off_c, 1, 66, 100
3, 39552, Note_on_c, 1, 64, 95
3, 39552, Note_on_c, 1, 61, 95
3, 39644, Note_off_c, 1, 64, 100
3, 39644, Note_off_c, 1, 61, 100
3, 39648, Note_on_c, 1, 66, 97
3, 39740, Note_off_c, 1, 66, 100
3, 39744, Note_on_c, 1, 58, 99
3, 39744, Note_on_c, 1, 54, 99
3, 39836, Note_off_c, 1, 58, 100
3, 39836, Note_off_c, 1, 54, 100
3, 39840, Note_on_c, 1, 66, 101
3, 39932, Note_off_c, 1, 66, 100
3, 39936, Note_on_c, 1, 59, 103
3, 39936, Note_on_c, 1, 56, 103
3, 40028, Note_off_c, 1, 59, 100
3, 40028, Note_off_c, 1, 56, 100
3, 40032, Note_on_c, 1, 66, 105
3, 40124, Note_off_c, 1, 66, 100
3, 40128, Note_on_c, 1, 61, 107
3, 40128, Note_on_c, 1, 58, 107
3, 40220, Note_off_c, 1, 61, 100
3, 40220, Note_off_c, 1, 58, 100
3, 40224, Note_on_c, 1, 66, 109
3, 40316, Note_off_c, 1, 66, 100
3, 40320, Note_on_c, 1, 63, 110
3, 40320, Note_on_c, 1, 59, 110
3, 40412, Note_off_c, 1, 63, 100
3, 40412, Note_off_c, 1, 59, 100
3, 40416, Note_on_c, 1, 66, 109
3, 40508, Note_off_c, 1, 66, 100
3, 40512, Note_on_c, 1, 59, 108
3, 40512, Note_on_c, 1, 56, 108
3, 40604, Note_off_c, 1, 59, 100
3, 40604, Note_off_c, 1, 56, 100
3, 40608, Note_on_c, 1, 66, 107
3, 40700, Note_off_c, 1, 66, 100
3, 40704, Note_on_c, 1, 61, 105
3, 40704, Note_on_c, 1, 58, 105
3, 40796, Note_off_c, 1, 61, 100
3, 40796, Note_off_c, 1, 58, 100
3, 40800, Note_on_c, 1, 66, 104
3, 40892, Note_off_c, 1, 66, 100
3, 40896, Note_on_c, 1, 63, 103
3, 40896, Note_on_c, 1, 59, 103
3, 40988, Note_off_c, 1, 63, 100
3, 40988, Note_off_c, 1, 59, 100
3, 40992, Note_on_c, 1, 66, 101
3, 41084, Note_off_c, 1, 66, 100
3, 41088, Note_on_c, 1, 64, 100
3, 41088, Note_on_c, 1, 61, 100
3, 41180, Note_off_c, 1, 64, 100
3, 41180, Note_off_c, 1, 61, 100
3, 41184, Note_on_c, 1, 66, 99
3, 41276, Note_off_c, 1, 66, 100
3, 41280, Note_on_c, 1, 61, 97
3, 41280, Note_on_c, 1, 58, 97
3, 41372, Note_off_c, 1, 61, 100
3, 41372, Note_off_c, 1, 58, 100
3, 41376, Note_on_c, 1, 66, 96
3, 41468, Note_off_c, 1, 66, 100
3, 41472, Note_on_c, 1, 63, 95
3, 41472, Note_on_c, 1, 59, 95
3, 41564, Note_off_c, 1, 63, 100
3, 41564, Note_off_c, 1, 59, 100
3, 41568, Note_on_c, 1, 66, 94
3, 41660, Note_off_c, 1, 66, 100
3, 41664, Note_on_c, 1, 64, 92
3, 41664, Note_on_c, 1, 61, 92
3, 41756, Note_off_c, 1, 64, 100
3, 41756, Note_off_c, 1, 61, 100
3, 41760, Note_on_c, 1, 66, 91
3, 41852, Note_off_c, 1, 66, 100
3, 41856, Note_on_c, 1, 63, 90
3, 41948, Note_off_c, 1, 63, 100
3, 41952, Note_on_c, 1, 66, 88
3, 42044, Note_off_c, 1, 66, 100
3, 42048, Note_on_c, 1, 63, 87
3, 42140, Note_off_c, 1, 63, 100
3, 42144, Note_on_c, 1, 66, 86
3, 42236, Note_off_c, 1, 66, 100
3, 42240, Note_on_c, 1, 63, 84
3, 42332, Note_off_c, 1, 63, 100
3, 42336, Note_on_c, 1, 66, 83
3, 42428, Note_off_c, 1, 66, 100
3, 42432, Note_on_c, 1, 63, 82
3, 42524, Note_off_c, 1, 63, 100
3, 42528, Note_on_c, 1, 66, 81
3, 42620, Note_off_c, 1, 66, 100
3, 42624, Note_on_c, 1, 66, 70
3, 42624, Note_on_c, 1, 63, 70
3, 42812, Note_off_c, 1, 66, 100
3, 42812, Note_off_c, 1, 63, 100
3, 43104, Note_on_c, 1, 56, 70
3, 43196, Note_off_c, 1, 56, 100
3, 43200, Note_on_c, 1, 58, 70
3, 43292, Note_off_c, 1, 58, 100
3, 43296, Note_on_c, 1, 60, 70
3, 43388, Note_off_c, 1, 60, 100
3, 43392, Note_on_c, 1, 61, 70
3, 43484, Note_off_c, 1, 61, 100
3, 43488, Note_on_c, 1, 56, 70
3, 43580, Note_off_c, 1, 56, 100
3, 43584, Note_on_c, 1, 58, 70
3, 43676, Note_off_c, 1, 58, 100
3, 43680, Note_on_c, 1, 60, 70
3, 43772, Note_off_c, 1, 60, 100
3, 43776, Note_on_c, 1, 63, 70
3, 43804, Note_off_c, 1, 63, 100
3, 43808, Note_on_c, 1, 61, 70
3, 43868, Note_off_c, 1, 61, 100
3, 43872, Note_on_c, 1, 60, 70
3, 43964, Note_off_c, 1, 60, 100
3, 43968, Note_on_c, 1, 61, 70
3, 44060, Note_off_c, 1, 61, 100
3, 44064, Note_on_c, 1, 63, 70
3, 44156, Note_off_c, 1, 63, 100
3, 44160, Note_on_c, 1, 64, 70
3, 44252, Note_off_c, 1, 64, 100
3, 44256, Note_on_c, 1, 63, 70
3, 44348, Note_off_c, 1, 63, 100
3, 44352, Note_on_c, 1, 64, 70
3, 44444, Note_off_c, 1, 64, 100
3, 44448, Note_on_c, 1, 66, 70
3, 44540, Note_off_c, 1, 66, 100
3, 44544, Note_on_c, 1, 68, 70
3, 44636, Note_off_c, 1, 68, 100
3, 44640, Note_on_c, 1, 66, 70
3, 44732, Note_off_c, 1, 66, 100
3, 44736, Note_on_c, 1, 64, 70
3, 44828, Note_off_c, 1, 64, 100
3, 44832, Note_on_c, 1, 65, 70
3, 44924, Note_off_c, 1, 65, 100
3, 44928, Note_on_c, 1, 66, 70
3, 45116, Note_off_c, 1, 66, 100
3, 45312, Note_on_c, 1, 54, 70
3, 45500, Note_off_c, 1, 54, 100
3, 45696, Note_on_c, 1, 47, 80
3, 45820, Note_off_c, 1, 47, 100
3, 45824, Note_on_c, 1, 54, 80
3, 45948, Note_off_c, 1, 54, 100
3, 45952, Note_on_c, 1, 51, 80
3, 46076, Note_off_c, 1, 51, 100
3, 46080, Note_on_c, 1, 47, 80
3, 46204, Note_off_c, 1, 47, 100
3, 46208, Note_on_c, 1, 59, 80
3, 46332, Note_off_c, 1, 59, 100
3, 46336, Note_on_c, 1, 54, 80
3, 46460, Note_off_c, 1, 54, 100
3, 46464, Note_on_c, 1, 49, 80
3, 46588, Note_off_c, 1, 49, 100
3, 46592, Note_on_c, 1, 58, 80
3, 46716, Note_off_c, 1, 58, 100
3, 46720, Note_on_c, 1, 54, 80
3, 46844, Note_off_c, 1, 54, 100
3, 46848, Note_on_c, 1, 51, 80
3, 46972, Note_off_c, 1, 51, 100
3, 46976, Note_on_c, 1, 59, 80
3, 47100, Note_off_c, 1, 59, 100
3, 47104, Note_on_c, 1, 54, 80
3, 47228, Note_off_c, 1, 54, 100
3, 47232, Note_on_c, 1, 52, 80
3, 47356, Note_off_c, 1, 52, 100
3, 47360, Note_on_c, 1, 61, 80
3, 47484, Note_off_c, 1, 61, 100
3, 47488, Note_on_c, 1, 56, 80
3, 47612, Note_off_c, 1, 56, 100
3, 47616, Note_on_c, 1, 53, 80
3, 47740, Note_off_c, 1, 53, 100
3, 47744, Note_on_c, 1, 62, 80
3, 47868, Note_off_c, 1, 62, 100
3, 47872, Note_on_c, 1, 56, 80
3, 47996, Note_off_c, 1, 56, 100
3, 48000, Note_on_c, 1, 54, 80
3, 48124, Note_off_c, 1, 54, 100
3, 48128, Note_on_c, 1, 63, 80
3, 48252, Note_off_c, 1, 63, 100
3, 48256, Note_on_c, 1, 59, 80
3, 48380, Note_off_c, 1, 59, 100
3, 48384, Note_on_c, 1, 52, 80
3, 48508, Note_off_c, 1, 52, 100
3, 48512, Note_on_c, 1, 61, 80
3, 48636, Note_off_c, 1, 61, 100
3, 48640, Note_on_c, 1, 58, 80
3, 48764, Note_off_c, 1, 58, 100
3, 48768, Note_on_c, 1, 51, 80
3, 48860, Note_off_c, 1, 51, 100
3, 48864, Note_on_c, 1, 59, 80
3, 48956, Note_off_c, 1, 59, 100
3, 48960, Note_on_c, 1, 54, 81
3, 49052, Note_off_c, 1, 54, 100
3, 49056, Note_on_c, 1, 51, 82
3, 49148, Note_off_c, 1, 51, 100
3, 49152, Note_on_c, 1, 47, 83
3, 49244, Note_off_c, 1, 47, 100
3, 49248, Note_on_c, 1, 54, 84
3, 49340, Note_off_c, 1, 54, 100
3, 49344, Note_on_c, 1, 51, 85
3, 49436, Note_off_c, 1, 51, 100
3, 49440, Note_on_c, 1, 47, 86
3, 49532, Note_off_c, 1, 47, 100
3, 49536, Note_on_c, 1, 49, 87
3, 49628, Note_off_c, 1, 49, 100
3, 49632, Note_on_c, 1, 57, 88
3, 49724, Note_off_c, 1, 57, 100
3, 49728, Note_on_c, 1, 52, 89
3, 49820, Note_off_c, 1, 52, 100
3, 49824, Note_on_c, 1, 49, 90
3, 49916, Note_off_c, 1, 49, 100
3, 49920, Note_on_c, 1, 51, 91
3, 50012, Note_off_c, 1, 51, 100
3, 50016, Note_on_c, 1, 59, 92
3, 50108, Note_off_c, 1, 59, 100
3, 50112, Note_on_c, 1, 54, 93
3, 50204, Note_off_c, 1, 54, 100
3, 50208, Note_on_c, 1, 51, 94
3, 50300, Note_off_c, 1, 51, 100
3, 50304, Note_on_c, 1, 52, 95
3, 50396, Note_off_c, 1, 52, 100
3, 50400, Note_on_c, 1, 61, 96
3, 50492, Note_off_c, 1, 61, 100
3, 50496, Note_on_c, 1, 57, 97
3, 50588, Note_off_c, 1, 57, 100
3, 50592, Note_on_c, 1, 52, 98
3, 50684, Note_off_c, 1, 52, 100
3, 50688, Note_on_c, 1, 54, 99
3, 50780, Note_off_c, 1, 54, 100
3, 50784, Note_on_c, 1, 59, 100
3, 50876, Note_off_c, 1, 59, 100
3, 50880, Note_on_c, 1, 57, 101
3, 50972, Note_off_c, 1, 57, 100
3, 50976, Note_on_c, 1, 54, 102
3, 51068, Note_off_c, 1, 54, 100
3, 51072, Note_on_c, 1, 54, 103
3, 51164, Note_off_c, 1, 54, 100
3, 51168, Note_on_c, 1, 59, 104
3, 51260, Note_off_c, 1, 59, 100
3, 51264, Note_on_c, 1, 57, 105
3, 51356, Note_off_c, 1, 57, 100
3, 51360, Note_on_c, 1, 54, 106
3, 51452, Note_off_c, 1, 54, 100
3, 51456, Note_on_c, 1, 48, 107
3, 51548, Note_off_c, 1, 48, 100
3, 51552, Note_on_c, 1, 57, 108
3, 51644, Note_off_c, 1, 57, 100
3, 51648, Note_on_c, 1, 54, 108
3, 51740, Note_off_c, 1, 54, 100
3, 51744, Note_on_c, 1, 51, 109
3, 51836, Note_off_c, 1, 51, 100
3, 51840, Note_on_c, 1, 48, 110
3, 51932, Note_off_c, 1, 48, 100
3, 51936, Note_on_c, 1, 57, 106
3, 52028, Note_off_c, 1, 57, 100
3, 52032, Note_on_c, 1, 54, 102
3, 52124, Note_off_c, 1, 54, 100
3, 52128, Note_on_c, 1, 51, 98
3, 52220, Note_off_c, 1, 51, 100
3, 52224, Note_on_c, 1, 48, 93
3, 52316, Note_off_c, 1, 48, 100
3, 52320, Note_on_c, 1, 57, 89
3, 52412, Note_off_c, 1, 57, 100
3, 52416, Note_on_c, 1, 54, 85
3, 52508, Note_off_c, 1, 54, 100
3, 52512, Note_on_c, 1, 51, 81
3, 52604, Note_off_c, 1, 51, 100
3, 52608, Note_on_c, 1, 47, 80
3, 52700, Note_off_c, 1, 47, 100
3, 52704, Note_on_c, 1, 57, 80
3, 52796, Note_off_c, 1, 57, 100
3, 52800, Note_on_c, 1, 54, 80
3, 52892, Note_off_c, 1, 54, 100
3, 52896, Note_on_c, 1, 51, 80
3, 52988, Note_off_c, 1, 51, 100
3, 52992, Note_on_c, 1, 47, 80
3, 53084, Note_off_c, 1, 47, 100
3, 53088, Note_on_c, 1, 57, 80
3, 53180, Note_off_c, 1, 57, 100
3, 53184, Note_on_c, 1, 56, 80
3, 53276, Note_off_c, 1, 56, 100
3, 53280, Note_on_c, 1, 54, 80
3, 53372, Note_off_c, 1, 54, 100
3, 53376, Note_on_c, 1, 52, 80
3, 53376, Note_on_c, 1, 40, 80
3, 53564, Note_off_c, 1, 52, 100
3, 53564, Note_off_c, 1, 40, 100
3, 54144, Note_on_c, 1, 47, 80
3, 54144, Note_on_c, 1, 35, 80
3, 54332, Note_off_c, 1, 47, 100
3, 54332, Note_off_c, 1, 35, 100
3, 54912, Note_on_c, 1, 49, 80
3, 54912, Note_on_c, 1, 37, 80
3, 55100, Note_off_c, 1, 49, 100
3, 55100, Note_off_c, 1, 37, 100
3, 55296, Note_on_c, 1, 51, 80
3, 55296, Note_on_c, 1, 39, 80
3, 55484, Note_off_c, 1, 51, 100
3, 55484, Note_off_c, 1, 39, 100
3, 55488, Note_on_c, 1, 47, 80
3, 55488, Note_on_c, 1, 35, 80
3, 55676, Note_off_c, 1, 47, 100
3, 55676, Note_off_c, 1, 35, 100
3, 55680, Note_on_c, 1, 52, 80
3, 55680, Note_on_c, 1, 40, 80
3, 55772, Note_off_c, 1, 52, 100
3, 55772, Note_off_c, 1, 40, 100
3, 55776, Note_on_c, 1, 56, 80
3, 55868, Note_off_c, 1, 56, 100
3, 55872, Note_on_c, 1, 59, 80
3, 55964, Note_off_c, 1, 59, 100
3, 55968, Note_on_c, 1, 57, 80
3, 56060, Note_off_c, 1, 57, 100
3, 56064, Note_on_c, 1, 56, 80
3, 56156, Note_off_c, 1, 56, 100
3, 56160, Note_on_c, 1, 57, 80
3, 56252, Note_off_c, 1, 57, 100
3, 56256, Note_on_c, 1, 56, 80
3, 56348, Note_off_c, 1, 56, 100
3, 56352, Note_on_c, 1, 54, 80
3, 56444, Note_off_c, 1, 54, 100
3, 56448, Note_on_c, 1, 52, 80
3, 56540, Note_off_c, 1, 52, 100
3, 56544, Note_on_c, 1, 59, 80
3, 56636, Note_off_c, 1, 59, 100
3, 56640, Note_on_c, 1, 47, 80
3, 56732, Note_off_c, 1, 47, 100
3, 56736, Note_on_c, 1, 59, 80
3, 56828, Note_off_c, 1, 59, 100
3, 56832, Note_on_c, 1, 52, 80
3, 56924, Note_off_c, 1, 52, 100
3, 56928, Note_on_c, 1, 59, 80
3, 57020, Note_off_c, 1, 59, 100
3, 57024, Note_on_c, 1, 47, 80
3, 57116, Note_off_c, 1, 47, 100
3, 57120, Note_on_c, 1, 59, 80
3, 57212, Note_off_c, 1, 59, 100
3, 57216, Note_on_c, 1, 51, 80
3, 57308, Note_off_c, 1, 51, 100
3, 57312, Note_on_c, 1, 59, 80
3, 57404, Note_off_c, 1, 59, 100
3, 57408, Note_on_c, 1, 47, 80
3, 57500, Note_off_c, 1, 47, 100
3, 57504, Note_on_c, 1, 59, 80
3, 57596, Note_off_c, 1, 59, 100
3, 57600, Note_on_c, 1, 51, 80
3, 57692, Note_off_c, 1, 51, 100
3, 57696, Note_on_c, 1, 59, 80
3, 57788, Note_off_c, 1, 59, 100
3, 57792, Note_on_c, 1, 53, 80
3, 57884, Note_off_c, 1, 53, 100
3, 57888, Note_on_c, 1, 59, 80
3, 57980, Note_off_c, 1, 59, 100
3, 57984, Note_on_c, 1, 54, 80
3, 58076, Note_off_c, 1, 54, 100
3, 58080, Note_on_c, 1, 59, 84
3, 58172, Note_off_c, 1, 59, 100
3, 58176, Note_on_c, 1, 57, 89
3, 58268, Note_off_c, 1, 57, 100
3, 58272, Note_on_c, 1, 59, 94
3, 58364, Note_off_c, 1, 59, 100
3, 58368, Note_on_c, 1, 56, 99
3, 58460, Note_off_c, 1, 56, 100
3, 58464, Note_on_c, 1, 59, 80
3, 58556, Note_off_c, 1, 59, 100
3, 58560, Note_on_c, 1, 54, 80
3, 58560, Note_on_c, 1, 47, 80
3, 58652, Note_off_c, 1, 54, 100
3, 58652, Note_off_c, 1, 47, 100
3, 58656, Note_on_c, 1, 57, 80
3, 58748, Note_off_c, 1, 57, 100
3, 58752, Note_on_c, 1, 56, 80
3, 58752, Note_on_c, 1, 52, 80
3, 58844, Note_off_c, 1, 56, 100
3, 58844, Note_off_c, 1, 52, 100
3, 58848, Note_on_c, 1, 59, 80
3, 58940, Note_off_c, 1, 59, 100
3, 58944, Note_on_c, 1, 56, 80
3, 59036, Note_off_c, 1, 56, 100
3, 59040, Note_on_c, 1, 52, 80
3, 59132, Note_off_c, 1, 52, 100
3, 59136, Note_on_c, 1, 51, 80
3, 59228, Note_off_c, 1, 51, 100
3, 59232, Note_on_c, 1, 59, 80
3, 59324, Note_off_c, 1, 59, 100
3, 59328, Note_on_c, 1, 54, 80
3, 59420, Note_off_c, 1, 54, 100
3, 59424, Note_on_c, 1, 51, 80
3, 59516, Note_off_c, 1, 51, 100
3, 59520, Note_on_c, 1, 49, 80
3, 59612, Note_off_c, 1, 49, 100
3, 59616, Note_on_c, 1, 58, 80
3, 59708, Note_off_c, 1, 58, 100
3, 59712, Note_on_c, 1, 54, 80
3, 59804, Note_off_c, 1, 54, 100
3, 59808, Note_on_c, 1, 49, 80
3, 59900, Note_off_c, 1, 49, 100
3, 59904, Note_on_c, 1, 42, 80
3, 59996, Note_off_c, 1, 42, 100
3, 60000, Note_on_c, 1, 58, 80
3, 60092, Note_off_c, 1, 58, 100
3, 60096, Note_on_c, 1, 54, 80
3, 60188, Note_off_c, 1, 54, 100
3, 60192, Note_on_c, 1, 49, 80
3, 60284, Note_off_c, 1, 49, 100
3, 60288, Note_on_c, 1, 47, 80
3, 60380, Note_off_c, 1, 47, 100
3, 60384, Note_on_c, 1, 59, 80
3, 60476, Note_off_c, 1, 59, 100
3, 60480, Note_on_c, 1, 54, 80
3, 60572, Note_off_c, 1, 54, 100
3, 60576, Note_on_c, 1, 51, 80
3, 60668, Note_off_c, 1, 51, 100
3, 60672, Note_on_c, 1, 47, 80
3, 60764, Note_off_c, 1, 47, 100
3, 60768, Note_on_c, 1, 59, 80
3, 60860, Note_off_c, 1, 59, 100
3, 60864, Note_on_c, 1, 49, 80
3, 60956, Note_off_c, 1, 49, 100
3, 60960, Note_on_c, 1, 57, 80
3, 61052, Note_off_c, 1, 57, 100
3, 61056, Note_on_c, 1, 47, 80
3, 61148, Note_off_c, 1, 47, 100
3, 61152, Note_on_c, 1, 56, 80
3, 61244, Note_off_c, 1, 56, 100
3, 61248, Note_on_c, 1, 52, 80
3, 61340, Note_off_c, 1, 52, 100
3, 61344, Note_on_c, 1, 47, 80
3, 61436, Note_off_c, 1, 47, 100
3, 61440, Note_on_c, 1, 40, 80
3, 61532, Note_off_c, 1, 40, 100
3, 61536, Note_on_c, 1, 56, 80
3, 61628, Note_off_c, 1, 56, 100
3, 61632, Note_on_c, 1, 52, 80
3, 61724, Note_off_c, 1, 52, 100
3, 61728, Note_on_c, 1, 47, 80
3, 61820, Note_off_c, 1, 47, 100
3, 61824, Note_on_c, 1, 45, 80
3, 61916, Note_off_c, 1, 45, 100
3, 61920, Note_on_c, 1, 57, 80
3, 62012, Note_off_c, 1, 57, 100
3, 62016, Note_on_c, 1, 52, 80
3, 62108, Note_off_c, 1, 52, 100
3, 62112, Note_on_c, 1, 49, 80
3, 62204, Note_off_c, 1, 49, 100
3, 62208, Note_on_c, 1, 45, 80
3, 62300, Note_off_c, 1, 45, 100
3, 62304, Note_on_c, 1, 52, 80
3, 62396, Note_off_c, 1, 52, 100
3, 62400, Note_on_c, 1, 44, 80
3, 62492, Note_off_c, 1, 44, 100
3, 62496, Note_on_c, 1, 52, 81
3, 62588, Note_off_c, 1, 52, 100
3, 62592, Note_on_c, 1, 44, 82
3, 62684, Note_off_c, 1, 44, 100
3, 62688, Note_on_c, 1, 52, 83
3, 62780, Note_off_c, 1, 52, 100
3, 62784, Note_on_c, 1, 45, 84
3, 62876, Note_off_c, 1, 45, 100
3, 62880, Note_on_c, 1, 52, 85
3, 62972, Note_off_c, 1, 52, 100
3, 62976, Note_on_c, 1, 45, 87
3, 63068, Note_off_c, 1, 45, 100
3, 63072, Note_on_c, 1, 52, 88
3, 63164, Note_off_c, 1, 52, 100
3, 63168, Note_on_c, 1, 47, 89
3, 63260, Note_off_c, 1, 47, 100
3, 63264, Note_on_c, 1, 52, 90
3, 63356, Note_off_c, 1, 52, 100
3, 63360, Note_on_c, 1, 49, 91
3, 63452, Note_off_c, 1, 49, 100
3, 63456, Note_on_c, 1, 52, 92
3, 63548, Note_off_c, 1, 52, 100
3, 63552, Note_on_c, 1, 49, 94
3, 63644, Note_off_c, 1, 49, 100
3, 63648, Note_on_c, 1, 52, 95
3, 63740, Note_off_c, 1, 52, 100
3, 63744, Note_on_c, 1, 48, 96
3, 63836, Note_off_c, 1, 48, 100
3, 63840, Note_on_c, 1, 52, 97
3, 63932, Note_off_c, 1, 52, 100
3, 63936, Note_on_c, 1, 48, 98
3, 64028, Note_off_c, 1, 48, 100
3, 64032, Note_on_c, 1, 52, 90
3, 64124, Note_off_c, 1, 52, 100
3, 64128, Note_on_c, 1, 47, 80
3, 64220, Note_off_c, 1, 47, 100
3, 64224, Note_on_c, 1, 54, 80
3, 64316, Note_off_c, 1, 54, 100
3, 64320, Note_on_c, 1, 47, 80
3, 64412, Note_off_c, 1, 47, 100
3, 64416, Note_on_c, 1, 54, 80
3, 64416, Note_on_c, 1, 57, 80
3, 64508, Note_off_c, 1, 54, 100
3, 64508, Note_off_c, 1, 57, 100
3, 64512, Note_on_c, 1, 47, 80
3, 64604, Note_off_c, 1, 47, 100
3, 64608, Note_on_c, 1, 54, 80
3, 64608, Note_on_c, 1, 57, 80
3, 64700, Note_off_c, 1, 54, 100
3, 64700, Note_off_c, 1, 57, 100
3, 64704, Note_on_c, 1, 47, 80
3, 64796, Note_off_c, 1, 47, 100
3, 64800, Note_on_c, 1, 54, 80
3, 64800, Note_on_c, 1, 57, 80
3, 64892, Note_off_c, 1, 54, 100
3, 64892, Note_off_c, 1, 57, 100
3, 64896, Note_on_c, 1, 56, 80
3, 64896, Note_on_c, 1, 52, 80
3, 64988, Note_off_c, 1, 56, 100
3, 64988, Note_off_c, 1, 52, 100
3, 64992, Note_on_c, 1, 59, 80
3, 65084, Note_off_c, 1, 59, 100
3, 65088, Note_on_c, 1, 56, 80
3, 65180, Note_off_c, 1, 56, 100
3, 65184, Note_on_c, 1, 52, 80
3, 65276, Note_off_c, 1, 52, 100
3, 65280, Note_on_c, 1, 51, 80
3, 65372, Note_off_c, 1, 51, 100
3, 65376, Note_on_c, 1, 59, 80
3, 65468, Note_off_c, 1, 59, 100
3, 65472, Note_on_c, 1, 54, 80
3, 65564, Note_off_c, 1, 54, 100
3, 65568, Note_on_c, 1, 51, 80
3, 65660, Note_off_c, 1, 51, 100
3, 65664, Note_on_c, 1, 49, 80
3, 65756, Note_off_c, 1, 49, 100
3, 65760, Note_on_c, 1, 58, 80
3, 65852, Note_off_c, 1, 58, 100
3, 65856, Note_on_c, 1, 54, 80
3, 65948, Note_off_c, 1, 54, 100
3, 65952, Note_on_c, 1, 49, 80
3, 66044, Note_off_c, 1, 49, 100
3, 66048, Note_on_c, 1, 42, 80
3, 66140, Note_off_c, 1, 42, 100
3, 66144, Note_on_c, 1, 58, 80
3, 66236, Note_off_c, 1, 58, 100
3, 66240, Note_on_c, 1, 54, 80
3, 66332, Note_off_c, 1, 54, 100
3, 66336, Note_on_c, 1, 49, 80
3, 66428, Note_off_c, 1, 49, 100
3, 66432, Note_on_c, 1, 47, 80
3, 66524, Note_off_c, 1, 47, 100
3, 66528, Note_on_c, 1, 59, 80
3, 66620, Note_off_c, 1, 59, 100
3, 66624, Note_on_c, 1, 54, 80
3, 66716, Note_off_c, 1, 54, 100
3, 66720, Note_on_c, 1, 51, 80
3, 66812, Note_off_c, 1, 51, 100
3, 66816, Note_on_c, 1, 47, 80
3, 66908, Note_off_c, 1, 47, 100
3, 66912, Note_on_c, 1, 59, 80
3, 67004, Note_off_c, 1, 59, 100
3, 67008, Note_on_c, 1, 49, 80
3, 67100, Note_off_c, 1, 49, 100
3, 67104, Note_on_c, 1, 57, 80
3, 67196, Note_off_c, 1, 57, 100
3, 67200, Note_on_c, 1, 47, 80
3, 67292, Note_off_c, 1, 47, 100
3, 67296, Note_on_c, 1, 56, 80
3, 67388, Note_off_c, 1, 56, 100
3, 67392, Note_on_c, 1, 52, 80
3, 67484, Note_off_c, 1, 52, 100
3, 67488, Note_on_c, 1, 47, 80
3, 67580, Note_off_c, 1, 47, 100
3, 67584, Note_on_c, 1, 40, 80
3, 67676, Note_off_c, 1, 40, 100
3, 67680, Note_on_c, 1, 56, 80
3, 67772, Note_off_c, 1, 56, 100
3, 67776, Note_on_c, 1, 52, 80
3, 67868, Note_off_c, 1, 52, 100
3, 67872, Note_on_c, 1, 47, 80
3, 67964, Note_off_c, 1, 47, 100
3, 67968, Note_on_c, 1, 45, 80
3, 68060, Note_off_c, 1, 45, 100
3, 68064, Note_on_c, 1, 57, 80
3, 68156, Note_off_c, 1, 57, 100
3, 68160, Note_on_c, 1, 52, 80
3, 68252, Note_off_c, 1, 52, 100
3, 68256, Note_on_c, 1, 49, 80
3, 68348, Note_off_c, 1, 49, 100
3, 68352, Note_on_c, 1, 45, 80
3, 68444, Note_off_c, 1, 45, 100
3, 68448, Note_on_c, 1, 52, 80
3, 68540, Note_off_c, 1, 52, 100
3, 68544, Note_on_c, 1, 44, 80
3, 68636, Note_off_c, 1, 44, 100
3, 68640, Note_on_c, 1, 52, 81
3, 68732, Note_off_c, 1, 52, 100
3, 68736, Note_on_c, 1, 44, 82
3, 68828, Note_off_c, 1, 44, 100
3, 68832, Note_on_c, 1, 52, 83
3, 68924, Note_off_c, 1, 52, 100
3, 68928, Note_on_c, 1, 45, 84
3, 69020, Note_off_c, 1, 45, 100
3, 69024, Note_on_c, 1, 52, 85
3, 69116, Note_off_c, 1, 52, 100
3, 69120, Note_on_c, 1, 45, 87
3, 69120, Note_on_c, 1, 49, 87
3, 69212, Note_off_c, 1, 45, 100
3, 69212, Note_off_c, 1, 49, 100
3, 69216, Note_on_c, 1, 52, 88
3, 69308, Note_off_c, 1, 52, 100
3, 69312, Note_on_c, 1, 47, 89
3, 69312, Note_on_c, 1, 52, 89
3, 69404, Note_off_c, 1, 47, 100
3, 69404, Note_off_c, 1, 52, 100
3, 69408, Note_on_c, 1, 56, 90
3, 69500, Note_off_c, 1, 56, 100
3, 69504, Note_on_c, 1, 49, 91
3, 69504, Note_on_c, 1, 52, 91
3, 69596, Note_off_c, 1, 49, 100
3, 69596, Note_off_c, 1, 52, 100
3, 69600, Note_on_c, 1, 58, 92
3, 69692, Note_off_c, 1, 58, 100
3, 69696, Note_on_c, 1, 49, 94
3, 69696, Note_on_c, 1, 52, 94
3, 69788, Note_off_c, 1, 49, 100
3, 69788, Note_off_c, 1, 52, 100
3, 69792, Note_on_c, 1, 58, 95
3, 69884, Note_off_c, 1, 58, 100
3, 69888, Note_on_c, 1, 48, 96
3, 69888, Note_on_c, 1, 52, 96
3, 69980, Note_off_c, 1, 48, 100
3, 69980, Note_off_c, 1, 52, 100
3, 69984, Note_on_c, 1, 57, 97
3, 70076, Note_off_c, 1, 57, 100
3, 70080, Note_on_c, 1, 48, 98
3, 70080, Note_on_c, 1, 52, 98
3, 70172, Note_off_c, 1, 48, 100
3, 70172, Note_off_c, 1, 52, 100
3, 70176, Note_on_c, 1, 57, 92
3, 70268, Note_off_c, 1, 57, 100
3, 70272, Note_on_c, 1, 47, 80
3, 70272, Note_on_c, 1, 51, 80
3, 70364, Note_off_c, 1, 47, 100
3, 70364, Note_off_c, 1, 51, 100
3, 70368, Note_on_c, 1, 57, 80
3, 70460, Note_off_c, 1, 57, 100
3, 70464, Note_on_c, 1, 47, 80
3, 70464, Note_on_c, 1, 51, 80
3, 70556, Note_off_c, 1, 47, 100
3, 70556, Note_off_c, 1, 51, 100
3, 70560, Note_on_c, 1, 57, 80
3, 70652, Note_off_c, 1, 57, 100
3, 70656, Note_on_c, 1, 47, 80
3, 70656, Note_on_c, 1, 51, 80
3, 70748, Note_off_c, 1, 47, 100
3, 70748, Note_off_c, 1, 51, 100
3, 70752, Note_on_c, 1, 57, 80
3, 70844, Note_off_c, 1, 57, 100
3, 70848, Note_on_c, 1, 47, 80
3, 70848, Note_on_c, 1, 51, 80
3, 70940, Note_off_c, 1, 47, 100
3, 70940, Note_off_c, 1, 51, 100
3, 70944, Note_on_c, 1, 57, 80
3, 71036, Note_off_c, 1, 57, 100
3, 71040, Note_on_c, 1, 56, 80
3, 71040, Note_on_c, 1, 52, 80
3, 71132, Note_off_c, 1, 56, 100
3, 71132, Note_off_c, 1, 52, 100
3, 71136, Note_on_c, 1, 52, 80
3, 71228, Note_off_c, 1, 52, 100
3, 71232, Note_on_c, 1, 51, 80
3, 71324, Note_off_c, 1, 51, 100
3, 71328, Note_on_c, 1, 49, 80
3, 71420, Note_off_c, 1, 49, 100
3, 71424, Note_on_c, 1, 47, 80
3, 71516, Note_off_c, 1, 47, 100
3, 71520, Note_on_c, 1, 45, 80
3, 71612, Note_off_c, 1, 45, 100
3, 71616, Note_on_c, 1, 44, 80
3, 71708, Note_off_c, 1, 44, 100
3, 71712, Note_on_c, 1, 42, 80
3, 71804, Note_off_c, 1, 42, 100
3, 71808, Note_on_c, 1, 40, 80
3, 71996, Note_off_c, 1, 40, 100
3, 72576, Note_on_c, 1, 35, 80
3, 72764, Note_off_c, 1, 35, 100
3, 73344, Note_on_c, 1, 37, 80
3, 73532, Note_off_c, 1, 37, 100
3, 73728, Note_on_c, 1, 39, 80
3, 73916, Note_off_c, 1, 39, 100
3, 73920, Note_on_c, 1, 35, 80
3, 74108, Note_off_c, 1, 35, 100
3, 74112, Note_on_c, 1, 40, 80
3, 74300, Note_off_c, 1, 40, 100
3, 74304, Note_on_c, 1, 64, 80
3, 74396, Note_off_c, 1, 64, 100
3, 74400, Note_on_c, 1, 59, 80
3, 74492, Note_off_c, 1, 59, 100
3, 74496, Note_on_c, 1, 64, 80
3, 74588, Note_off_c, 1, 64, 100
3, 74592, Note_on_c, 1, 59, 81
3, 74684, Note_off_c, 1, 59, 100
3, 74688, Note_on_c, 1, 64, 82
3, 74780, Note_off_c, 1, 64, 100
3, 74784, Note_on_c, 1, 59, 83
3, 74876, Note_off_c, 1, 59, 100
3, 74880, Note_on_c, 1, 64, 84
3, 74972, Note_off_c, 1, 64, 100
3, 74976, Note_on_c, 1, 59, 85
3, 75068, Note_off_c, 1, 59, 100
3, 75072, Note_on_c, 1, 64, 86
3, 75164, Note_off_c, 1, 64, 100
3, 75168, Note_on_c, 1, 59, 87
3, 75260, Note_off_c, 1, 59, 100
3, 75264, Note_on_c, 1, 68, 88
3, 75356, Note_off_c, 1, 68, 100
3, 75360, Note_on_c, 1, 59, 89
3, 75452, Note_off_c, 1, 59, 100
3, 75456, Note_on_c, 1, 66, 91
3, 75548, Note_off_c, 1, 66, 100
3, 75552, Note_on_c, 1, 59, 92
3, 75644, Note_off_c, 1, 59, 100
3, 75648, Note_on_c, 1, 64, 93
3, 75740, Note_off_c, 1, 64, 100
3, 75744, Note_on_c, 1, 59, 94
3, 75836, Note_off_c, 1, 59, 100
3, 75840, Note_on_c, 1, 63, 95
3, 75932, Note_off_c, 1, 63, 100
3, 75936, Note_on_c, 1, 59, 96
3, 76028, Note_off_c, 1, 59, 100
3, 76032, Note_on_c, 1, 63, 97
3, 76124, Note_off_c, 1, 63, 100
3, 76128, Note_on_c, 1, 59, 98
3, 76220, Note_off_c, 1, 59, 100
3, 76224, Note_on_c, 1, 65, 99
3, 76316, Note_off_c, 1, 65, 100
3, 76320, Note_on_c, 1, 59, 101
3, 76412, Note_off_c, 1, 59, 100
3, 76416, Note_on_c, 1, 66, 102
3, 76508, Note_off_c, 1, 66, 100
3, 76512, Note_on_c, 1, 59, 103
3, 76604, Note_off_c, 1, 59, 100
3, 76608, Note_on_c, 1, 69, 104
3, 76700, Note_off_c, 1, 69, 100
3, 76704, Note_on_c, 1, 59, 105
3, 76796, Note_off_c, 1, 59, 100
3, 76800, Note_on_c, 1, 68, 106
3, 76892, Note_off_c, 1, 68, 100
3, 76896, Note_on_c, 1, 59, 107
3, 76988, Note_off_c, 1, 59, 100
3, 76992, Note_on_c, 1, 66, 108
3, 77084, Note_off_c, 1, 66, 100
3, 77088, Note_on_c, 1, 59, 109
3, 77180, Note_off_c, 1, 59, 100
3, 77184, Note_on_c, 1, 64, 110
3, 77276, Note_off_c, 1, 64, 100
3, 77280, Note_on_c, 1, 59, 110
3, 77372, Note_off_c, 1, 59, 100
3, 77376, Note_on_c, 1, 56, 110
3, 77468, Note_off_c, 1, 56, 100
3, 77472, Note_on_c, 1, 59, 110
3, 77564, Note_off_c, 1, 59, 100
3, 77568, Note_on_c, 1, 52, 100
3, 77660, Note_off_c, 1, 52, 100
3, 77664, Note_on_c, 1, 59, 90
3, 77756, Note_off_c, 1, 59, 100
3, 77760, Note_on_c, 1, 47, 80
3, 77852, Note_off_c, 1, 47, 100
3, 77856, Note_on_c, 1, 59, 80
3, 77948, Note_off_c, 1, 59, 100
3, 77952, Note_on_c, 1, 54, 80
3, 78044, Note_off_c, 1, 54, 100
3, 78048, Note_on_c, 1, 59, 80
3, 78140, Note_off_c, 1, 59, 100
3, 78144, Note_on_c, 1, 57, 80
3, 78236, Note_off_c, 1, 57, 100
3, 78240, Note_on_c, 1, 59, 80
3, 78332, Note_off_c, 1, 59, 100
3, 78336, Note_on_c, 1, 56, 80
3, 78428, Note_off_c, 1, 56, 100
3, 78432, Note_on_c, 1, 59, 80
3, 78524, Note_off_c, 1, 59, 100
3, 78528, Note_on_c, 1, 54, 80
3, 78620, Note_off_c, 1, 54, 100
3, 78624, Note_on_c, 1, 59, 80
3, 78716, Note_off_c, 1, 59, 100
3, 78720, Note_on_c, 1, 52, 80
3, 78812, Note_off_c, 1, 52, 100
3, 78816, Note_on_c, 1, 59, 80
3, 78908, Note_off_c, 1, 59, 100
3, 78912, Note_on_c, 1, 64, 80
3, 79004, Note_off_c, 1, 64, 100
3, 79008, Note_on_c, 1, 59, 80
3, 79100, Note_off_c, 1, 59, 100
3, 79104, Note_on_c, 1, 64, 80
3, 79196, Note_off_c, 1, 64, 100
3, 79200, Note_on_c, 1, 59, 80
3, 79292, Note_off_c, 1, 59, 100
3, 79296, Note_on_c, 1, 64, 80
3, 79388, Note_off_c, 1, 64, 100
3, 79392, Note_on_c, 1, 59, 80
3, 79484, Note_off_c, 1, 59, 100
3, 79488, Note_on_c, 1, 66, 80
3, 79580, Note_off_c, 1, 66, 100
3, 79584, Note_on_c, 1, 59, 84
3, 79676, Note_off_c, 1, 59, 100
3, 79680, Note_on_c, 1, 69, 88
3, 79772, Note_off_c, 1, 69, 100
3, 79776, Note_on_c, 1, 59, 92
3, 79868, Note_off_c, 1, 59, 100
3, 79872, Note_on_c, 1, 67, 97
3, 79964, Note_off_c, 1, 67, 100
3, 79968, Note_on_c, 1, 59, 101
3, 80060, Note_off_c, 1, 59, 100
3, 80064, Note_on_c, 1, 66, 105
3, 80156, Note_off_c, 1, 66, 100
3, 80160, Note_on_c, 1, 59, 109
3, 80252, Note_off_c, 1, 59, 100
3, 80256, Key_signature, 1, "minor"
3, 80256, Note_on_c, 1, 64, 110
3, 80348, Note_off_c, 1, 64, 100
3, 80352, Note_on_c, 1, 59, 110
3, 80444, Note_off_c, 1, 59, 100
3, 80448, Note_on_c, 1, 55, 110
3, 80540, Note_off_c, 1, 55, 100
3, 80544, Note_on_c, 1, 59, 110
3, 80636, Note_off_c, 1, 59, 100
3, 80640, Note_on_c, 1, 52, 100
3, 80732, Note_off_c, 1, 52, 100
3, 80736, Note_on_c, 1, 59, 90
3, 80828, Note_off_c, 1, 59, 100
3, 80832, Note_on_c, 1, 47, 80
3, 80924, Note_off_c, 1, 47, 100
3, 80928, Note_on_c, 1, 59, 80
3, 81020, Note_off_c, 1, 59, 100
3, 81024, Note_on_c, 1, 54, 80
3, 81116, Note_off_c, 1, 54, 100
3, 81120, Note_on_c, 1, 59, 80
3, 81212, Note_off_c, 1, 59, 100
3, 81216, Note_on_c, 1, 57, 81
3, 81308, Note_off_c, 1, 57, 100
3, 81312, Note_on_c, 1, 59, 82
3, 81404, Note_off_c, 1, 59, 100
3, 81408, Note_on_c, 1, 55, 83
3, 81500, Note_off_c, 1, 55, 100
3, 81504, Note_on_c, 1, 59, 84
3, 81596, Note_off_c, 1, 59, 100
3, 81600, Note_on_c, 1, 54, 85
3, 81692, Note_off_c, 1, 54, 100
3, 81696, Note_on_c, 1, 59, 86
3, 81788, Note_off_c, 1, 59, 100
3, 81792, Note_on_c, 1, 52, 87
3, 81884, Note_off_c, 1, 52, 100
3, 81888, Note_on_c, 1, 64, 88
3, 81980, Note_off_c, 1, 64, 100
3, 81984, Note_on_c, 1, 50, 89
3, 82076, Note_off_c, 1, 50, 100
3, 82080, Note_on_c, 1, 62, 90
3, 82172, Note_off_c, 1, 62, 100
3, 82176, Note_on_c, 1, 48, 91
3, 82268, Note_off_c, 1, 48, 100
3, 82272, Note_on_c, 1, 60, 92
3, 82364, Note_off_c, 1, 60, 100
3, 82368, Note_on_c, 1, 47, 93
3, 82460, Note_off_c, 1, 47, 100
3, 82464, Note_on_c, 1, 59, 94
3, 82556, Note_off_c, 1, 59, 100
3, 82560, Note_on_c, 1, 45, 95
3, 82652, Note_off_c, 1, 45, 100
3, 82656, Note_on_c, 1, 57, 96
3, 82748, Note_off_c, 1, 57, 100
3, 82752, Note_on_c, 1, 43, 97
3, 82844, Note_off_c, 1, 43, 100
3, 82848, Note_on_c, 1, 55, 98
3, 82940, Note_off_c, 1, 55, 100
3, 82944, Note_on_c, 1, 41, 99
3, 83036, Note_off_c, 1, 41, 100
3, 83040, Note_on_c, 1, 53, 100
3, 83132, Note_off_c, 1, 53, 100
3, 83136, Note_on_c, 1, 40, 101
3, 83228, Note_off_c, 1, 40, 100
3, 83232, Note_on_c, 1, 52, 102
3, 83324, Note_off_c, 1, 52, 100
3, 83328, Key_signature, 0, "major"
3, 83328, Note_on_c, 1, 38, 103
3, 83420, Note_off_c, 1, 38, 100
3, 83424, Note_on_c, 1, 50, 104
3, 83516, Note_off_c, 1, 50, 100
3, 83520, Note_on_c, 1, 36, 105
3, 83612, Note_off_c, 1, 36, 100
3, 83616, Note_on_c, 1, 48, 106
3, 83708, Note_off_c, 1, 48, 100
3, 83712, Note_on_c, 1, 35, 107
3, 83804, Note_off_c, 1, 35, 100
3, 83808, Note_on_c, 1, 47, 108
3, 83900, Note_off_c, 1, 47, 100
3, 83904, Note_on_c, 1, 33, 108
3, 83996, Note_off_c, 1, 33, 100
3, 84000, Note_on_c, 1, 45, 109
3, 84092, Note_off_c, 1, 45, 100
3, 84096, Note_on_c, 1, 31, 80
3, 84188, Note_off_c, 1, 31, 100
3, 84192, Note_on_c, 1, 43, 80
3, 84284, Note_off_c, 1, 43, 100
3, 84288, Note_on_c, 1, 35, 80
3, 84380, Note_off_c, 1, 35, 100
3, 84384, Note_on_c, 1, 47, 80
3, 84476, Note_off_c, 1, 47, 100
3, 84480, Note_on_c, 1, 38, 80
3, 84572, Note_off_c, 1, 38, 100
3, 84576, Note_on_c, 1, 50, 80
3, 84668, Note_off_c, 1, 50, 100
3, 84672, Note_on_c, 1, 42, 80
3, 84764, Note_off_c, 1, 42, 100
3, 84768, Note_on_c, 1, 54, 80
3, 84860, Note_off_c, 1, 54, 100
3, 84864, Note_on_c, 1, 43, 80
3, 84956, Note_off_c, 1, 43, 100
3, 84960, Note_on_c, 1, 55, 80
3, 85052, Note_off_c, 1, 55, 100
3, 85056, Note_on_c, 1, 47, 80
3, 85148, Note_off_c, 1, 47, 100
3, 85152, Note_on_c, 1, 59, 80
3, 85244, Note_off_c, 1, 59, 100
3, 85248, Note_on_c, 1, 50, 80
3, 85340, Note_off_c, 1, 50, 100
3, 85344, Note_on_c, 1, 62, 80
3, 85436, Note_off_c, 1, 62, 100
3, 85440, Note_on_c, 1, 54, 80
3, 85532, Note_off_c, 1, 54, 100
3, 85536, Note_on_c, 1, 66, 80
3, 85628, Note_off_c, 1, 66, 100
3, 85632, Note_on_c, 1, 55, 80
3, 85724, Note_off_c, 1, 55, 100
3, 85728, Note_on_c, 1, 67, 80
3, 85820, Note_off_c, 1, 67, 100
3, 85824, Note_on_c, 1, 57, 80
3, 85916, Note_off_c, 1, 57, 100
3, 85920, Note_on_c, 1, 69, 80
3, 86012, Note_off_c, 1, 69, 100
3, 86016, Note_on_c, 1, 59, 80
3, 86108, Note_off_c, 1, 59, 100
3, 86112, Note_on_c, 1, 71, 80
3, 86204, Note_off_c, 1, 71, 100
3, 86208, Note_on_c, 1, 60, 80
3, 86300, Note_off_c, 1, 60, 100
3, 86304, Note_on_c, 1, 72, 80
3, 86396, Note_off_c, 1, 72, 100
3, 86400, Note_on_c, 1, 65, 80
3, 86492, Note_off_c, 1, 65, 100
3, 86496, Note_on_c, 1, 72, 80
3, 86588, Note_off_c, 1, 72, 100
3, 86592, Note_on_c, 1, 66, 80
3, 86684, Note_off_c, 1, 66, 100
3, 86688, Note_on_c, 1, 72, 80
3, 86780, Note_off_c, 1, 72, 100
3, 86784, Note_on_c, 1, 67, 80
3, 86876, Note_off_c, 1, 67, 100
3, 86880, Note_on_c, 1, 72, 80
3, 86972, Note_off_c, 1, 72, 100
3, 86976, Note_on_c, 1, 55, 80
3, 87164, Note_off_c, 1, 55, 100
3, 87168, Note_on_c, 1, 48, 80
3, 87292, Note_off_c, 1, 48, 100
3, 87296, Note_on_c, 1, 55, 80
3, 87420, Note_off_c, 1, 55, 100
3, 87424, Note_on_c, 1, 52, 80
3, 87548, Note_off_c, 1, 52, 100
3, 87552, Note_on_c, 1, 48, 80
3, 87676, Note_off_c, 1, 48, 100
3, 87680, Note_on_c, 1, 60, 80
3, 87804, Note_off_c, 1, 60, 100
3, 87808, Note_on_c, 1, 55, 80
3, 87932, Note_off_c, 1, 55, 100
3, 87936, Note_on_c, 1, 50, 80
3, 88060, Note_off_c, 1, 50, 100
3, 88064, Note_on_c, 1, 59, 80
3, 88188, Note_off_c, 1, 59, 100
3, 88192, Note_on_c, 1, 55, 80
3, 88316, Note_off_c, 1, 55, 100
3, 88320, Note_on_c, 1, 52, 80
3, 88444, Note_off_c, 1, 52, 100
3, 88448, Note_on_c, 1, 60, 80
3, 88572, Note_off_c, 1, 60, 100
3, 88576, Note_on_c, 1, 55, 80
3, 88700, Note_off_c, 1, 55, 100
3, 88704, Note_on_c, 1, 53, 80
3, 88828, Note_off_c, 1, 53, 100
3, 88832, Note_on_c, 1, 62, 80
3, 88956, Note_off_c, 1, 62, 100
3, 88960, Note_on_c, 1, 57, 80
3, 89084, Note_off_c, 1, 57, 100
3, 89088, Note_on_c, 1, 54, 80
3, 89212, Note_off_c, 1, 54, 100
3, 89216, Note_on_c, 1, 63, 80
3, 89340, Note_off_c, 1, 63, 100
3, 89344, Note_on_c, 1, 60, 80
3, 89468, Note_off_c, 1, 60, 100
3, 89472, Note_on_c, 1, 55, 80
3, 89596, Note_off_c, 1, 55, 100
3, 89600, Note_on_c, 1, 64, 80
3, 89724, Note_off_c, 1, 64, 100
3, 89728, Note_on_c, 1, 60, 80
3, 89852, Note_off_c, 1, 60, 100
3, 89856, Note_on_c, 1, 55, 80
3, 89980, Note_off_c, 1, 55, 100
3, 89984, Note_on_c, 1, 65, 80
3, 90108, Note_off_c, 1, 65, 100
3, 90112, Note_on_c, 1, 62, 80
3, 90112, Note_on_c, 1, 59, 80
3, 90236, Note_off_c, 1, 62, 100
3, 90236, Note_off_c, 1, 59, 100
3, 90240, Note_on_c, 1, 60, 80
3, 90240, Note_on_c, 1, 48, 80
3, 90332, Note_off_c, 1, 60, 100
3, 90332, Note_off_c, 1, 48, 100
3, 90336, Note_on_c, 1, 55, 80
3, 90428, Note_off_c, 1, 55, 100
3, 90432, Note_on_c, 1, 51, 80
3, 90524, Note_off_c, 1, 51, 100
3, 90528, Note_on_c, 1, 55, 80
3, 90620, Note_off_c, 1, 55, 100
3, 90624, Note_on_c, 1, 48, 80
3, 90716, Note_off_c, 1, 48, 100
3, 90720, Note_on_c, 1, 60, 80
3, 90812, Note_off_c, 1, 60, 100
3, 90816, Note_on_c, 1, 55, 80
3, 90908, Note_off_c, 1, 55, 100
3, 90912, Note_on_c, 1, 48, 80
3, 91004, Note_off_c, 1, 48, 100
3, 91008, Note_on_c, 1, 50, 80
3, 91100, Note_off_c, 1, 50, 100
3, 91104, Note_on_c, 1, 59, 80
3, 91196, Note_off_c, 1, 59, 100
3, 91200, Note_on_c, 1, 55, 80
3, 91292, Note_off_c, 1, 55, 100
3, 91296, Note_on_c, 1, 50, 80
3, 91388, Note_off_c, 1, 50, 100
3, 91392, Note_on_c, 1, 51, 80
3, 91484, Note_off_c, 1, 51, 100
3, 91488, Note_on_c, 1, 60, 80
3, 91580, Note_off_c, 1, 60, 100
3, 91584, Note_on_c, 1, 55, 80
3, 91676, Note_off_c, 1, 55, 100
3, 91680, Note_on_c, 1, 51, 80
3, 91772, Note_off_c, 1, 51, 100
3, 91776, Note_on_c, 1, 53, 80
3, 91868, Note_off_c, 1, 53, 100
3, 91872, Note_on_c, 1, 62, 80
3, 91964, Note_off_c, 1, 62, 100
3, 91968, Note_on_c, 1, 56, 80
3, 92060, Note_off_c, 1, 56, 100
3, 92064, Note_on_c, 1, 53, 80
3, 92156, Note_off_c, 1, 53, 100
3, 92160, Note_on_c, 1, 54, 80
3, 92252, Note_off_c, 1, 54, 100
3, 92256, Note_on_c, 1, 63, 80
3, 92348, Note_off_c, 1, 63, 100
3, 92352, Note_on_c, 1, 60, 80
3, 92444, Note_off_c, 1, 60, 100
3, 92448, Note_on_c, 1, 54, 80
3, 92540, Note_off_c, 1, 54, 100
3, 92544, Note_on_c, 1, 55, 80
3, 92636, Note_off_c, 1, 55, 100
3, 92640, Note_on_c, 1, 63, 80
3, 92732, Note_off_c, 1, 63, 100
3, 92736, Note_on_c, 1, 60, 80
3, 92828, Note_off_c, 1, 60, 100
3, 92832, Note_on_c, 1, 55, 80
3, 92924, Note_off_c, 1, 55, 100
3, 92928, Note_on_c, 1, 56, 80
3, 93020, Note_off_c, 1, 56, 100
3, 93024, Note_on_c, 1, 63, 80
3, 93116, Note_off_c, 1, 63, 100
3, 93120, Note_on_c, 1, 60, 80
3, 93212, Note_off_c, 1, 60, 100
3, 93216, Note_on_c, 1, 63, 80
3, 93308, Note_off_c, 1, 63, 100
3, 93312, Note_on_c, 1, 49, 80
3, 93312, Note_on_c, 1, 61, 80
3, 93436, Note_off_c, 1, 49, 100
3, 93436, Note_off_c, 1, 61, 100
3, 93440, Note_on_c, 1, 56, 80
3, 93564, Note_off_c, 1, 56, 100
3, 93568, Note_on_c, 1, 52, 80
3, 93692, Note_off_c, 1, 52, 100
3, 93696, Note_on_c, 1, 49, 80
3, 93820, Note_off_c, 1, 49, 100
3, 93824, Note_on_c, 1, 61, 80
3, 93948, Note_off_c, 1, 61, 100
3, 93952, Note_on_c, 1, 56, 80
3, 94076, Note_off_c, 1, 56, 100
3, 94080, Note_on_c, 1, 51, 80
3, 94204, Note_off_c, 1, 51, 100
3, 94208, Note_on_c, 1, 60, 80
3, 94332, Note_off_c, 1, 60, 100
3, 94336, Note_on_c, 1, 56, 80
3, 94460, Note_off_c, 1, 56, 100
3, 94464, Note_on_c, 1, 52, 80
3, 94588, Note_off_c, 1, 52, 100
3, 94592, Note_on_c, 1, 61, 80
3, 94716, Note_off_c, 1, 61, 100
3, 94720, Note_on_c, 1, 56, 80
3, 94844, Note_off_c, 1, 56, 100
3, 94848, Key_signature, 4, "major"
3, 94848, Note_on_c, 1, 54, 80
3, 94972, Note_off_c, 1, 54, 100
3, 94976, Note_on_c, 1, 63, 80
3, 95100, Note_off_c, 1, 63, 100
3, 95104, Note_on_c, 1, 57, 80
3, 95228, Note_off_c, 1, 57, 100
3, 95232, Note_on_c, 1, 55, 80
3, 95356, Note_off_c, 1, 55, 100
3, 95360, Note_on_c, 1, 64, 80
3, 95484, Note_off_c, 1, 64, 100
3, 95488, Note_on_c, 1, 61, 80
3, 95612, Note_off_c, 1, 61, 100
3, 95616, Note_on_c, 1, 56, 80
3, 95740, Note_off_c, 1, 56, 100
3, 95744, Note_on_c, 1, 64, 80
3, 95868, Note_off_c, 1, 64, 100
3, 95872, Note_on_c, 1, 61, 80
3, 95996, Note_off_c, 1, 61, 100
3, 96000, Note_on_c, 1, 56, 80
3, 96092, Note_off_c, 1, 56, 100
3, 96096, Note_on_c, 1, 63, 80
3, 96188, Note_off_c, 1, 63, 100
3, 96192, Note_on_c, 1, 60, 80
3, 96284, Note_off_c, 1, 60, 100
3, 96288, Note_on_c, 1, 63, 80
3, 96380, Note_off_c, 1, 63, 100
3, 96384, Note_on_c, 1, 61, 80
3, 96384, Note_on_c, 1, 49, 80
3, 96476, Note_off_c, 1, 61, 100
3, 96476, Note_off_c, 1, 49, 100
3, 96480, Note_on_c, 1, 56, 80
3, 96572, Note_off_c, 1, 56, 100
3, 96576, Note_on_c, 1, 53, 81
3, 96668, Note_off_c, 1, 53, 100
3, 96672, Note_on_c, 1, 56, 82
3, 96764, Note_off_c, 1, 56, 100
3, 96768, Note_on_c, 1, 49, 83
3, 96860, Note_off_c, 1, 49, 100
3, 96864, Note_on_c, 1, 61, 84
3, 96956, Note_off_c, 1, 61, 100
3, 96960, Note_on_c, 1, 56, 85
3, 97052, Note_off_c, 1, 56, 100
3, 97056, Note_on_c, 1, 49, 86
3, 97148, Note_off_c, 1, 49, 100
3, 97152, Note_on_c, 1, 51, 87
3, 97244, Note_off_c, 1, 51, 100
3, 97248, Note_on_c, 1, 60, 88
3, 97340, Note_off_c, 1, 60, 100
3, 97344, Note_on_c, 1, 56, 89
3, 97436, Note_off_c, 1, 56, 100
3, 97440, Note_on_c, 1, 51, 90
3, 97532, Note_off_c, 1, 51, 100
3, 97536, Note_on_c, 1, 53, 91
3, 97628, Note_off_c, 1, 53, 100
3, 97632, Note_on_c, 1, 61, 92
3, 97724, Note_off_c, 1, 61, 100
3, 97728, Note_on_c, 1, 56, 93
3, 97820, Note_off_c, 1, 56, 100
3, 97824, Note_on_c, 1, 53, 94
3, 97916, Note_off_c, 1, 53, 100
3, 97920, Note_on_c, 1, 54, 95
3, 98012, Note_off_c, 1, 54, 100
3, 98016, Note_on_c, 1, 61, 96
3, 98108, Note_off_c, 1, 61, 100
3, 98112, Note_on_c, 1, 57, 97
3, 98204, Note_off_c, 1, 57, 100
3, 98208, Note_on_c, 1, 54, 98
3, 98300, Note_off_c, 1, 54, 100
3, 98304, Note_on_c, 1, 54, 99
3, 98396, Note_off_c, 1, 54, 100
3, 98400, Note_on_c, 1, 61, 100
3, 98492, Note_off_c, 1, 61, 100
3, 98496, Note_on_c, 1, 57, 101
3, 98588, Note_off_c, 1, 57, 100
3, 98592, Note_on_c, 1, 54, 102
3, 98684, Note_off_c, 1, 54, 100
3, 98688, Note_on_c, 1, 54, 103
3, 98780, Note_off_c, 1, 54, 100
3, 98784, Note_on_c, 1, 61, 104
3, 98876, Note_off_c, 1, 61, 100
3, 98880, Note_on_c, 1, 57, 105
3, 98972, Note_off_c, 1, 57, 100
3, 98976, Note_on_c, 1, 54, 106
3, 99068, Note_off_c, 1, 54, 100
3, 99072, Note_on_c, 1, 52, 107
3, 99164, Note_off_c, 1, 52, 100
3, 99168, Note_on_c, 1, 61, 108
3, 99260, Note_off_c, 1, 61, 100
3, 99264, Note_on_c, 1, 57, 108
3, 99356, Note_off_c, 1, 57, 100
3, 99360, Note_on_c, 1, 52, 109
3, 99452, Note_off_c, 1, 52, 100
3, 99456, Note_on_c, 1, 59, 110
3, 99456, Note_on_c, 1, 51, 110
3, 99644, Note_off_c, 1, 59, 100
3, 99644, Note_off_c, 1, 51, 100
3, 99648, Note_on_c, 1, 57, 110
3, 99740, Note_off_c, 1, 57, 100
3, 99744, Note_on_c, 1, 60, 110
3, 99836, Note_off_c, 1, 60, 100
3, 99840, Note_on_c, 1, 59, 110
3, 99932, Note_off_c, 1, 59, 100
3, 99936, Note_on_c, 1, 58, 110
3, 100028, Note_off_c, 1, 58, 100
3, 100032, Note_on_c, 1, 59, 110
3, 100124, Note_off_c, 1, 59, 100
3, 100128, Note_on_c, 1, 54, 110
3, 100220, Note_off_c, 1, 54, 100
3, 100224, Note_on_c, 1, 51, 110
3, 100316, Note_off_c, 1, 51, 100
3, 100320, Note_on_c, 1, 49, 110
3, 100412, Note_off_c, 1, 49, 100
3, 100416, Note_on_c, 1, 51, 110
3, 100508, Note_off_c, 1, 51, 100
3, 100512, Note_on_c, 1, 47, 110
3, 100604, Note_off_c, 1, 47, 100
3, 100608, Note_on_c, 1, 51, 110
3, 100796, Note_off_c, 1, 51, 100
3, 100800, Note_on_c, 1, 54, 110
3, 100988, Note_off_c, 1, 54, 100
3, 101184, Note_on_c, 1, 57, 110
3, 101276, Note_off_c, 1, 57, 100
3, 101280, Note_on_c, 1, 60, 110
3, 101372, Note_off_c, 1, 60, 100
3, 101376, Note_on_c, 1, 59, 110
3, 101468, Note_off_c, 1, 59, 100
3, 101472, Note_on_c, 1, 58, 110
3, 101564, Note_off_c, 1, 58, 100
3, 101568, Note_on_c, 1, 59, 110
3, 101660, Note_off_c, 1, 59, 100
3, 101664, Note_on_c, 1, 54, 110
3, 101756, Note_off_c, 1, 54, 100
3, 101760, Note_on_c, 1, 51, 110
3, 101852, Note_off_c, 1, 51, 100
3, 101856, Note_on_c, 1, 49, 110
3, 101948, Note_off_c, 1, 49, 100
3, 101952, Note_on_c, 1, 51, 110
3, 102044, Note_off_c, 1, 51, 100
3, 102048, Note_on_c, 1, 47, 110
3, 102140, Note_off_c, 1, 47, 100
3, 102144, Note_on_c, 1, 51, 110
3, 102332, Note_off_c, 1, 51, 100
3, 102336, Note_on_c, 1, 54, 110
3, 102524, Note_off_c, 1, 54, 100
3, 102720, Note_on_c, 1, 57, 110
3, 102812, Note_off_c, 1, 57, 100
3, 102816, Note_on_c, 1, 60, 110
3, 102908, Note_off_c, 1, 60, 100
3, 102912, Note_on_c, 1, 59, 110
3, 103004, Note_off_c, 1, 59, 100
3, 103008, Note_on_c, 1, 58, 110
3, 103100, Note_off_c, 1, 58, 100
3, 103104, Note_on_c, 1, 59, 110
3, 103196, Note_off_c, 1, 59, 100
3, 103200, Note_on_c, 1, 54, 110
3, 103292, Note_off_c, 1, 54, 100
3, 103296, Note_on_c, 1, 51, 110
3, 103388, Note_off_c, 1, 51, 100
3, 103392, Note_on_c, 1, 49, 110
3, 103484, Note_off_c, 1, 49, 100
3, 103488, Note_on_c, 1, 51, 110
3, 103580, Note_off_c, 1, 51, 100
3, 103584, Note_on_c, 1, 47, 110
3, 103676, Note_off_c, 1, 47, 100
3, 103680, Note_on_c, 1, 51, 110
3, 103772, Note_off_c, 1, 51, 100
3, 103776, Note_on_c, 1, 49, 110
3, 103868, Note_off_c, 1, 49, 100
3, 103872, Note_on_c, 1, 51, 110
3, 103964, Note_off_c, 1, 51, 100
3, 103968, Note_on_c, 1, 54, 110
3, 104060, Note_off_c, 1, 54, 100
3, 104064, Note_on_c, 1, 57, 110
3, 104252, Note_off_c, 1, 57, 100
3, 104256, Note_on_c, 1, 51, 80
3, 104444, Note_off_c, 1, 51, 100
3, 104448, Note_on_c, 1, 54, 80
3, 104636, Note_off_c, 1, 54, 100
3, 104640, Note_on_c, 1, 59, 80
3, 104828, Note_off_c, 1, 59, 100
3, 104832, Note_on_c, 1, 57, 80
3, 105020, Note_off_c, 1, 57, 100
3, 105024, Note_on_c, 1, 51, 80
3, 105212, Note_off_c, 1, 51, 100
3, 105216, Note_on_c, 1, 54, 80
3, 105404, Note_off_c, 1, 54, 100
3, 105408, Note_on_c, 1, 59, 80
3, 105596, Note_off_c, 1, 59, 100
3, 105600, Note_on_c, 1, 57, 80
3, 105788, Note_off_c, 1, 57, 100
3, 105792, Note_on_c, 1, 51, 80
3, 105980, Note_off_c, 1, 51, 100
3, 105984, Note_on_c, 1, 54, 80
3, 106172, Note_off_c, 1, 54, 100
3, 106176, Note_on_c, 1, 59, 80
3, 106460, Note_off_c, 1, 59, 100
3, 106464, Note_on_c, 1, 57, 80
3, 106556, Note_off_c, 1, 57, 100
3, 106560, Note_on_c, 1, 59, 80
3, 106652, Note_off_c, 1, 59, 100
3, 106656, Note_on_c, 1, 57, 80
3, 106748, Note_off_c, 1, 57, 100
3, 106752, Note_on_c, 1, 56, 80
3, 106844, Note_off_c, 1, 56, 100
3, 106848, Note_on_c, 1, 57, 80
3, 106940, Note_off_c, 1, 57, 100
3, 106944, Note_on_c, 1, 56, 80
3, 107036, Note_off_c, 1, 56, 100
3, 107040, Note_on_c, 1, 54, 80
3, 107132, Note_off_c, 1, 54, 100
3, 107136, Note_on_c, 1, 52, 80
3, 107136, Note_on_c, 1, 40, 80
3, 107324, Note_off_c, 1, 52, 100
3, 107324, Note_off_c, 1, 40, 100
3, 107904, Note_on_c, 1, 47, 80
3, 107904, Note_on_c, 1, 35, 80
3, 108092, Note_off_c, 1, 47, 100
3, 108092, Note_off_c, 1, 35, 100
3, 108672, Note_on_c, 1, 49, 80
3, 108672, Note_on_c, 1, 37, 80
3, 108860, Note_off_c, 1, 49, 100
3, 108860, Note_off_c, 1, 37, 100
3, 109056, Note_on_c, 1, 51, 80
3, 109056, Note_on_c, 1, 39, 80
3, 109244, Note_off_c, 1, 51, 100
3, 109244, Note_off_c, 1, 39, 100
3, 109248, Note_on_c, 1, 47, 80
3, 109248, Note_on_c, 1, 35, 80
3, 109436, Note_off_c, 1, 47, 100
3, 109436, Note_off_c, 1, 35, 100
3, 109440, Note_on_c, 1, 52, 80
3, 109440, Note_on_c, 1, 40, 80
3, 109532, Note_off_c, 1, 52, 100
3, 109532, Note_off_c, 1, 40, 100
3, 109536, Note_on_c, 1, 56, 80
3, 109628, Note_off_c, 1, 56, 100
3, 109632, Note_on_c, 1, 59, 80
3, 109724, Note_off_c, 1, 59, 100
3, 109728, Note_on_c, 1, 57, 80
3, 109820, Note_off_c, 1, 57, 100
3, 109824, Note_on_c, 1, 56, 80
3, 109916, Note_off_c, 1, 56, 100
3, 109920, Note_on_c, 1, 57, 80
3, 110012, Note_off_c, 1, 57, 100
3, 110016, Note_on_c, 1, 56, 80
3, 110108, Note_off_c, 1, 56, 100
3, 110112, Note_on_c, 1, 54, 80
3, 110204, Note_off_c, 1, 54, 100
3, 110208, Note_on_c, 1, 52, 80
3, 110300, Note_off_c, 1, 52, 100
3, 110304, Note_on_c, 1, 59, 80
3, 110396, Note_off_c, 1, 59, 100
3, 110400, Note_on_c, 1, 47, 80
3, 110492, Note_off_c, 1, 47, 100
3, 110496, Note_on_c, 1, 59, 80
3, 110588, Note_off_c, 1, 59, 100
3, 110592, Note_on_c, 1, 52, 80
3, 110684, Note_off_c, 1, 52, 100
3, 110688, Note_on_c, 1, 59, 80
3, 110780, Note_off_c, 1, 59, 100
3, 110784, Note_on_c, 1, 47, 80
3, 110876, Note_off_c, 1, 47, 100
3, 110880, Note_on_c, 1, 59, 80
3, 110972, Note_off_c, 1, 59, 100
3, 110976, Note_on_c, 1, 51, 80
3, 111068, Note_off_c, 1, 51, 100
3, 111072, Note_on_c, 1, 59, 80
3, 111164, Note_off_c, 1, 59, 100
3, 111168, Note_on_c, 1, 47, 80
3, 111260, Note_off_c, 1, 47, 100
3, 111264, Note_on_c, 1, 59, 80
3, 111356, Note_off_c, 1, 59, 100
3, 111360, Note_on_c, 1, 51, 80
3, 111452, Note_off_c, 1, 51, 100
3, 111456, Note_on_c, 1, 59, 80
3, 111548, Note_off_c, 1, 59, 100
3, 111552, Note_on_c, 1, 53, 80
3, 111644, Note_off_c, 1, 53, 100
3, 111648, Note_on_c, 1, 59, 80
3, 111740, Note_off_c, 1, 59, 100
3, 111744, Note_on_c, 1, 54, 80
3, 111836, Note_off_c, 1, 54, 100
3, 111840, Note_on_c, 1, 59, 84
3, 111932, Note_off_c, 1, 59, 100
3, 111936, Note_on_c, 1, 57, 89
3, 112028, Note_off_c, 1, 57, 100
3, 112032, Note_on_c, 1, 59, 94
3, 112124, Note_off_c, 1, 59, 100
3, 112128, Note_on_c, 1, 56, 99
3, 112220, Note_off_c, 1, 56, 100
3, 112224, Note_on_c, 1, 59, 89
3, 112316, Note_off_c, 1, 59, 100
3, 112320, Note_on_c, 1, 54, 80
3, 112320, Note_on_c, 1, 47, 80
3, 112412, Note_off_c, 1, 54, 100
3, 112412, Note_off_c, 1, 47, 100
3, 112416, Note_on_c, 1, 57, 80
3, 112508, Note_off_c, 1, 57, 100
3, 112512, Note_on_c, 1, 56, 80
3, 112512, Note_on_c, 1, 52, 80
3, 112604, Note_off_c, 1, 56, 100
3, 112604, Note_off_c, 1, 52, 100
3, 112608, Note_on_c, 1, 59, 80
3, 112700, Note_off_c, 1, 59, 100
3, 112704, Note_on_c, 1, 56, 80
3, 112796, Note_off_c, 1, 56, 100
3, 112800, Note_on_c, 1, 52, 80
3, 112892, Note_off_c, 1, 52, 100
3, 112896, Note_on_c, 1, 51, 80
3, 112988, Note_off_c, 1, 51, 100
3, 112992, Note_on_c, 1, 59, 80
3, 113084, Note_off_c, 1, 59, 100
3, 113088, Note_on_c, 1, 54, 80
3, 113180, Note_off_c, 1, 54, 100
3, 113184, Note_on_c, 1, 51, 80
3, 113276, Note_off_c, 1, 51, 100
3, 113280, Note_on_c, 1, 49, 80
3, 113372, Note_off_c, 1, 49, 100
3, 113376, Note_on_c, 1, 58, 80
3, 113468, Note_off_c, 1, 58, 100
3, 113472, Note_on_c, 1, 54, 80
3, 113564, Note_off_c, 1, 54, 100
3, 113568, Note_on_c, 1, 49, 80
3, 113660, Note_off_c, 1, 49, 100
3, 113664, Note_on_c, 1, 42, 80
3, 113756, Note_off_c, 1, 42, 100
3, 113760, Note_on_c, 1, 58, 80
3, 113852, Note_off_c, 1, 58, 100
3, 113856, Note_on_c, 1, 54, 80
3, 113948, Note_off_c, 1, 54, 100
3, 113952, Note_on_c, 1, 49, 80
3, 114044, Note_off_c, 1, 49, 100
3, 114048, Note_on_c, 1, 47, 80
3, 114140, Note_off_c, 1, 47, 100
3, 114144, Note_on_c, 1, 59, 80
3, 114236, Note_off_c, 1, 59, 100
3, 114240, Note_on_c, 1, 54, 80
3, 114332, Note_off_c, 1, 54, 100
3, 114336, Note_on_c, 1, 51, 80
3, 114428, Note_off_c, 1, 51, 100
3, 114432, Note_on_c, 1, 47, 80
3, 114524, Note_off_c, 1, 47, 100
3, 114528, Note_on_c, 1, 59, 80
3, 114620, Note_off_c, 1, 59, 100
3, 114624, Note_on_c, 1, 49, 80
3, 114716, Note_off_c, 1, 49, 100
3, 114720, Note_on_c, 1, 57, 80
3, 114812, Note_off_c, 1, 57, 100
3, 114816, Note_on_c, 1, 47, 80
3, 114908, Note_off_c, 1, 47, 100
3, 114912, Note_on_c, 1, 56, 80
3, 115004, Note_off_c, 1, 56, 100
3, 115008, Note_on_c, 1, 52, 80
3, 115100, Note_off_c, 1, 52, 100
3, 115104, Note_on_c, 1, 47, 80
3, 115196, Note_off_c, 1, 47, 100
3, 115200, Note_on_c, 1, 40, 80
3, 115292, Note_off_c, 1, 40, 100
3, 115296, Note_on_c, 1, 56, 80
3, 115388, Note_off_c, 1, 56, 100
3, 115392, Note_on_c, 1, 52, 80
3, 115484, Note_off_c, 1, 52, 100
3, 115488, Note_on_c, 1, 47, 80
3, 115580, Note_off_c, 1, 47, 100
3, 115584, Note_on_c, 1, 45, 80
3, 115676, Note_off_c, 1, 45, 100
3, 115680, Note_on_c, 1, 57, 80
3, 115772, Note_off_c, 1, 57, 100
3, 115776, Note_on_c, 1, 52, 80
3, 115868, Note_off_c, 1, 52, 100
3, 115872, Note_on_c, 1, 49, 80
3, 115964, Note_off_c, 1, 49, 100
3, 115968, Note_on_c, 1, 45, 80
3, 116060, Note_off_c, 1, 45, 100
3, 116064, Note_on_c, 1, 52, 80
3, 116156, Note_off_c, 1, 52, 100
3, 116160, Note_on_c, 1, 44, 80
3, 116252, Note_off_c, 1, 44, 100
3, 116256, Note_on_c, 1, 52, 81
3, 116348, Note_off_c, 1, 52, 100
3, 116352, Note_on_c, 1, 44, 82
3, 116444, Note_off_c, 1, 44, 100
3, 116448, Note_on_c, 1, 52, 83
3, 116540, Note_off_c, 1, 52, 100
3, 116544, Note_on_c, 1, 45, 84
3, 116636, Note_off_c, 1, 45, 100
3, 116640, Note_on_c, 1, 52, 85
3, 116732, Note_off_c, 1, 52, 100
3, 116736, Note_on_c, 1, 45, 87
3, 116828, Note_off_c, 1, 45, 100
3, 116832, Note_on_c, 1, 52, 88
3, 116924, Note_off_c, 1, 52, 100
3, 116928, Note_on_c, 1, 47, 89
3, 117020, Note_off_c, 1, 47, 100
3, 117024, Note_on_c, 1, 52, 90
3, 117116, Note_off_c, 1, 52, 100
3, 117120, Note_on_c, 1, 49, 91
3, 117212, Note_off_c, 1, 49, 100
3, 117216, Note_on_c, 1, 52, 92
3, 117308, Note_off_c, 1, 52, 100
3, 117312, Note_on_c, 1, 49, 94
3, 117404, Note_off_c, 1, 49, 100
3, 117408, Note_on_c, 1, 52, 95
3, 117500, Note_off_c, 1, 52, 100
3, 117504, Note_on_c, 1, 48, 96
3, 117596, Note_off_c, 1, 48, 100
3, 117600, Note_on_c, 1, 52, 97
3, 117692, Note_off_c, 1, 52, 100
3, 117696, Note_on_c, 1, 48, 98
3, 117788, Note_off_c, 1, 48, 100
3, 117792, Note_on_c, 1, 52, 90
3, 117884, Note_off_c, 1, 52, 100
3, 117888, Note_on_c, 1, 47, 80
3, 117980, Note_off_c, 1, 47, 100
3, 117984, Note_on_c, 1, 54, 80
3, 118076, Note_off_c, 1, 54, 100
3, 118080, Note_on_c, 1, 47, 80
3, 118172, Note_off_c, 1, 47, 100
3, 118176, Note_on_c, 1, 54, 80
3, 118176, Note_on_c, 1, 57, 80
3, 118268, Note_off_c, 1, 54, 100
3, 118268, Note_off_c, 1, 57, 100
3, 118272, Note_on_c, 1, 47, 80
3, 118364, Note_off_c, 1, 47, 100
3, 118368, Note_on_c, 1, 54, 80
3, 118368, Note_on_c, 1, 57, 80
3, 118460, Note_off_c, 1, 54, 100
3, 118460, Note_off_c, 1, 57, 100
3, 118464, Note_on_c, 1, 47, 80
3, 118556, Note_off_c, 1, 47, 100
3, 118560, Note_on_c, 1, 54, 80
3, 118560, Note_on_c, 1, 57, 80
3, 118652, Note_off_c, 1, 54, 100
3, 118652, Note_off_c, 1, 57, 100
3, 118656, Note_on_c, 1, 56, 80
3, 118656, Note_on_c, 1, 52, 80
3, 118748, Note_off_c, 1, 56, 100
3, 118748, Note_off_c, 1, 52, 100
3, 118752, Note_on_c, 1, 59, 80
3, 118844, Note_off_c, 1, 59, 100
3, 118848, Note_on_c, 1, 56, 80
3, 118940, Note_off_c, 1, 56, 100
3, 118944, Note_on_c, 1, 52, 80
3, 119036, Note_off_c, 1, 52, 100
3, 119040, Note_on_c, 1, 51, 80
3, 119132, Note_off_c, 1, 51, 100
3, 119136, Note_on_c, 1, 59, 80
3, 119228, Note_off_c, 1, 59, 100
3, 119232, Note_on_c, 1, 54, 80
3, 119324, Note_off_c, 1, 54, 100
3, 119328, Note_on_c, 1, 51, 80
3, 119420, Note_off_c, 1, 51, 100
3, 119424, Note_on_c, 1, 49, 80
3, 119516, Note_off_c, 1, 49, 100
3, 119520, Note_on_c, 1, 58, 80
3, 119612, Note_off_c, 1, 58, 100
3, 119616, Note_on_c, 1, 54, 80
3, 119708, Note_off_c, 1, 54, 100
3, 119712, Note_on_c, 1, 49, 80
3, 119804, Note_off_c, 1, 49, 100
3, 119808, Note_on_c, 1, 42, 80
3, 119900, Note_off_c, 1, 42, 100
3, 119904, Note_on_c, 1, 58, 80
3, 119996, Note_off_c, 1, 58, 100
3, 120000, Note_on_c, 1, 54, 80
3, 120092, Note_off_c, 1, 54, 100
3, 120096, Note_on_c, 1, 49, 80
3, 120188, Note_off_c, 1, 49, 100
3, 120192, Note_on_c, 1, 47, 80
3, 120284, Note_off_c, 1, 47, 100
3, 120288, Note_on_c, 1, 59, 80
3, 120380, Note_off_c, 1, 59, 100
3, 120384, Note_on_c, 1, 54, 80
3, 120476, Note_off_c, 1, 54, 100
3, 120480, Note_on_c, 1, 51, 80
3, 120572, Note_off_c, 1, 51, 100
3, 120576, Note_on_c, 1, 47, 80
3, 120668, Note_off_c, 1, 47, 100
3, 120672, Note_on_c, 1, 59, 80
3, 120764, Note_off_c, 1, 59, 100
3, 120768, Note_on_c, 1, 49, 80
3, 120860, Note_off_c, 1, 49, 100
3, 120864, Note_on_c, 1, 57, 80
3, 120956, Note_off_c, 1, 57, 100
3, 120960, Note_on_c, 1, 47, 80
3, 121052, Note_off_c, 1, 47, 100
3, 121056, Note_on_c, 1, 56, 80
3, 121148, Note_off_c, 1, 56, 100
3, 121152, Note_on_c, 1, 52, 80
3, 121244, Note_off_c, 1, 52, 100
3, 121248, Note_on_c, 1, 47, 80
3, 121340, Note_off_c, 1, 47, 100
3, 121344, Note_on_c, 1, 40, 80
3, 121436, Note_off_c, 1, 40, 100
3, 121440, Note_on_c, 1, 56, 80
3, 121532, Note_off_c, 1, 56, 100
3, 121536, Note_on_c, 1, 52, 80
3, 121628, Note_off_c, 1, 52, 100
3, 121632, Note_on_c, 1, 47, 80
3, 121724, Note_off_c, 1, 47, 100
3, 121728, Note_on_c, 1, 45, 80
3, 121820, Note_off_c, 1, 45, 100
3, 121824, Note_on_c, 1, 57, 80
3, 121916, Note_off_c, 1, 57, 100
3, 121920, Note_on_c, 1, 52, 80
3, 122012, Note_off_c, 1, 52, 100
3, 122016, Note_on_c, 1, 49, 80
3, 122108, Note_off_c, 1, 49, 100
3, 122112, Note_on_c, 1, 45, 80
3, 122204, Note_off_c, 1, 45, 100
3, 122208, Note_on_c, 1, 52, 80
3, 122300, Note_off_c, 1, 52, 100
3, 122304, Note_on_c, 1, 44, 80
3, 122396, Note_off_c, 1, 44, 100
3, 122400, Note_on_c, 1, 52, 81
3, 122492, Note_off_c, 1, 52, 100
3, 122496, Note_on_c, 1, 44, 82
3, 122588, Note_off_c, 1, 44, 100
3, 122592, Note_on_c, 1, 52, 83
3, 122684, Note_off_c, 1, 52, 100
3, 122688, Note_on_c, 1, 45, 84
3, 122780, Note_off_c, 1, 45, 100
3, 122784, Note_on_c, 1, 52, 85
3, 122876, Note_off_c, 1, 52, 100
3, 122880, Note_on_c, 1, 45, 87
3, 122880, Note_on_c, 1, 49, 87
3, 122972, Note_off_c, 1, 45, 100
3, 122972, Note_off_c, 1, 49, 100
3, 122976, Note_on_c, 1, 52, 88
3, 123068, Note_off_c, 1, 52, 100
3, 123072, Note_on_c, 1, 47, 89
3, 123072, Note_on_c, 1, 52, 89
3, 123164, Note_off_c, 1, 47, 100
3, 123164, Note_off_c, 1, 52, 100
3, 123168, Note_on_c, 1, 56, 90
3, 123260, Note_off_c, 1, 56, 100
3, 123264, Note_on_c, 1, 49, 91
3, 123264, Note_on_c, 1, 52, 91
3, 123356, Note_off_c, 1, 49, 100
3, 123356, Note_off_c, 1, 52, 100
3, 123360, Note_on_c, 1, 58, 92
3, 123452, Note_off_c, 1, 58, 100
3, 123456, Note_on_c, 1, 49, 94
3, 123456, Note_on_c, 1, 52, 94
3, 123548, Note_off_c, 1, 49, 100
3, 123548, Note_off_c, 1, 52, 100
3, 123552, Note_on_c, 1, 58, 95
3, 123644, Note_off_c, 1, 58, 100
3, 123648, Note_on_c, 1, 48, 96
3, 123648, Note_on_c, 1, 52, 96
3, 123740, Note_off_c, 1, 48, 100
3, 123740, Note_off_c, 1, 52, 100
3, 123744, Note_on_c, 1, 57, 97
3, 123836, Note_off_c, 1, 57, 100
3, 123840, Note_on_c, 1, 48, 100
3, 123840, Note_on_c, 1, 52, 100
3, 123932, Note_off_c, 1, 48, 100
3, 123932, Note_off_c, 1, 52, 100
3, 123936, Note_on_c, 1, 57, 90
3, 124028, Note_off_c, 1, 57, 100
3, 124032, Note_on_c, 1, 47, 80
3, 124032, Note_on_c, 1, 51, 80
3, 124124, Note_off_c, 1, 47, 100
3, 124124, Note_off_c, 1, 51, 100
3, 124128, Note_on_c, 1, 57, 80
3, 124220, Note_off_c, 1, 57, 100
3, 124224, Note_on_c, 1, 47, 80
3, 124224, Note_on_c, 1, 51, 80
3, 124316, Note_off_c, 1, 47, 100
3, 124316, Note_off_c, 1, 51, 100
3, 124320, Note_on_c, 1, 57, 80
3, 124412, Note_off_c, 1, 57, 100
3, 124416, Note_on_c, 1, 47, 80
3, 124416, Note_on_c, 1, 51, 80
3, 124508, Note_off_c, 1, 47, 100
3, 124508, Note_off_c, 1, 51, 100
3, 124512, Note_on_c, 1, 57, 80
3, 124604, Note_off_c, 1, 57, 100
3, 124608, Note_on_c, 1, 47, 80
3, 124608, Note_on_c, 1, 51, 80
3, 124700, Note_off_c, 1, 47, 100
3, 124700, Note_off_c, 1, 51, 100
3, 124704, Note_on_c, 1, 57, 80
3, 124796, Note_off_c, 1, 57, 100
3, 124800, Note_on_c, 1, 56, 80
3, 124800, Note_on_c, 1, 52, 80
3, 124892, Note_off_c, 1, 56, 100
3, 124892, Note_off_c, 1, 52, 100
3, 124896, Note_on_c, 1, 52, 80
3, 124988, Note_off_c, 1, 52, 100
3, 124992, Note_on_c, 1, 51, 80
3, 125084, Note_off_c, 1, 51, 100
3, 125088, Note_on_c, 1, 49, 80
3, 125180, Note_off_c, 1, 49, 100
3, 125184, Note_on_c, 1, 47, 80
3, 125276, Note_off_c, 1, 47, 100
3, 125280, Note_on_c, 1, 45, 80
3, 125372, Note_off_c, 1, 45, 100
3, 125376, Note_on_c, 1, 44, 80
3, 125468, Note_off_c, 1, 44, 100
3, 125472, Note_on_c, 1, 42, 80
3, 125564, Note_off_c, 1, 42, 100
3, 125568, Note_on_c, 1, 40, 80
3, 125756, Note_off_c, 1, 40, 100
3, 126336, Note_on_c, 1, 35, 80
3, 126524, Note_off_c, 1, 35, 100
3, 127104, Note_on_c, 1, 37, 80
3, 127292, Note_off_c, 1, 37, 100
3, 127488, Note_on_c, 1, 39, 80
3, 127676, Note_off_c, 1, 39, 100
3, 127680, Note_on_c, 1, 35, 80
3, 127868, Note_off_c, 1, 35, 100
3, 127872, Note_on_c, 1, 40, 80
3, 128060, Note_off_c, 1, 40, 100
3, 128064, Note_on_c, 1, 64, 80
3, 128156, Note_off_c, 1, 64, 100
3, 128160, Note_on_c, 1, 59, 80
3, 128252, Note_off_c, 1, 59, 100
3, 128256, Note_on_c, 1, 64, 80
3, 128348, Note_off_c, 1, 64, 100
3, 128352, Note_on_c, 1, 59, 81
3, 128444, Note_off_c, 1, 59, 100
3, 128448, Note_on_c, 1, 64, 82
3, 128540, Note_off_c, 1, 64, 100
3, 128544, Note_on_c, 1, 59, 83
3, 128636, Note_off_c, 1, 59, 100
3, 128640, Note_on_c, 1, 64, 84
3, 128732, Note_off_c, 1, 64, 100
3, 128736, Note_on_c, 1, 59, 85
3, 128828, Note_off_c, 1, 59, 100
3, 128832, Note_on_c, 1, 64, 86
3, 128924, Note_off_c, 1, 64, 100
3, 128928, Note_on_c, 1, 59, 87
3, 129020, Note_off_c, 1, 59, 100
3, 129024, Note_on_c, 1, 68, 88
3, 129116, Note_off_c, 1, 68, 100
3, 129120, Note_on_c, 1, 59, 89
3, 129212, Note_off_c, 1, 59, 100
3, 129216, Note_on_c, 1, 66, 91
3, 129308, Note_off_c, 1, 66, 100
3, 129312, Note_on_c, 1, 59, 92
3, 129404, Note_off_c, 1, 59, 100
3, 129408, Note_on_c, 1, 64, 93
3, 129500, Note_off_c, 1, 64, 100
3, 129504, Note_on_c, 1, 59, 94
3, 129596, Note_off_c, 1, 59, 100
3, 129600, Note_on_c, 1, 63, 95
3, 129692, Note_off_c, 1, 63, 100
3, 129696, Note_on_c, 1, 59, 96
3, 129788, Note_off_c, 1, 59, 100
3, 129792, Note_on_c, 1, 63, 97
3, 129884, Note_off_c, 1, 63, 100
3, 129888, Note_on_c, 1, 59, 98
3, 129980, Note_off_c, 1, 59, 100
3, 129984, Note_on_c, 1, 65, 99
3, 130076, Note_off_c, 1, 65, 100
3, 130080, Note_on_c, 1, 59, 101
3, 130172, Note_off_c, 1, 59, 100
3, 130176, Note_on_c, 1, 66, 102
3, 130268, Note_off_c, 1, 66, 100
3, 130272, Note_on_c, 1, 59, 103
3, 130364, Note_off_c, 1, 59, 100
3, 130368, Note_on_c, 1, 69, 104
3, 130460, Note_off_c, 1, 69, 100
3, 130464, Note_on_c, 1, 59, 105
3, 130556, Note_off_c, 1, 59, 100
3, 130560, Note_on_c, 1, 68, 106
3, 130652, Note_off_c, 1, 68, 100
3, 130656, Note_on_c, 1, 59, 107
3, 130748, Note_off_c, 1, 59, 100
3, 130752, Note_on_c, 1, 66, 108
3, 130844, Note_off_c, 1, 66, 100
3, 130848, Note_on_c, 1, 59, 109
3, 130940, Note_off_c, 1, 59, 100
3, 130944, Note_on_c, 1, 64, 110
3, 131036, Note_off_c, 1, 64, 100
3, 131040, Note_on_c, 1, 59, 110
3, 131132, Note_off_c, 1, 59, 100
3, 131136, Note_on_c, 1, 56, 110
3, 131228, Note_off_c, 1, 56, 100
3, 131232, Note_on_c, 1, 59, 110
3, 131324, Note_off_c, 1, 59, 100
3, 131328, Note_on_c, 1, 52, 110
3, 131516, Note_off_c, 1, 52, 100
3, 131712, Note_on_c, 1, 61, 110
3, 131804, Note_off_c, 1, 61, 100
3, 131808, Note_on_c, 1, 56, 110
3, 131900, Note_off_c, 1, 56, 100
3, 131904, Note_on_c, 1, 52, 110
3, 131996, Note_off_c, 1, 52, 100
3, 132000, Note_on_c, 1, 56, 110
3, 132092, Note_off_c, 1, 56, 100
3, 132096, Note_on_c, 1, 49, 110
3, 132284, Note_off_c, 1, 49, 100
3, 132288, Note_on_c, 1, 61, 80
3, 132476, Note_off_c, 1, 61, 100
3, 132480, Note_on_c, 1, 60, 80
3, 132572, Note_off_c, 1, 60, 100
3, 132576, Note_on_c, 1, 56, 80
3, 132668, Note_off_c, 1, 56, 100
3, 132672, Note_on_c, 1, 51, 80
3, 132764, Note_off_c, 1, 51, 100
3, 132768, Note_on_c, 1, 56, 80
3, 132860, Note_off_c, 1, 56, 100
3, 132864, Note_on_c, 1, 48, 80
3, 133052, Note_off_c, 1, 48, 100
3, 133056, Note_on_c, 1, 60, 110
3, 133244, Note_off_c, 1, 60, 100
3, 133248, Note_on_c, 1, 59, 110
3, 133340, Note_off_c, 1, 59, 100
3, 133344, Note_on_c, 1, 56, 110
3, 133436, Note_off_c, 1, 56, 100
3, 133440, Note_on_c, 1, 52, 110
3, 133532, Note_off_c, 1, 52, 100
3, 133536, Note_on_c, 1, 56, 110
3, 133628, Note_off_c, 1, 56, 100
3, 133632, Note_on_c, 1, 47, 110
3, 133820, Note_off_c, 1, 47, 100
3, 133824, Note_on_c, 1, 59, 80
3, 134012, Note_off_c, 1, 59, 100
3, 134016, Note_on_c, 1, 57, 80
3, 134108, Note_off_c, 1, 57, 100
3, 134112, Note_on_c, 1, 52, 80
3, 134204, Note_off_c, 1, 52, 100
3, 134208, Note_on_c, 1, 49, 80
3, 134300, Note_off_c, 1, 49, 100
3, 134304, Note_on_c, 1, 52, 80
3, 134396, Note_off_c, 1, 52, 100
3, 134400, Note_on_c, 1, 45, 80
3, 134588, Note_off_c, 1, 45, 100
3, 134592, Note_on_c, 1, 57, 110
3, 134780, Note_off_c, 1, 57, 100
3, 134784, Note_on_c, 1, 56, 110
3, 134876, Note_off_c, 1, 56, 100
3, 134880, Note_on_c, 1, 53, 110
3, 134972, Note_off_c, 1, 53, 100
3, 134976, Note_on_c, 1, 49, 110
3, 135068, Note_off_c, 1, 49, 100
3, 135072, Note_on_c, 1, 53, 110
3, 135164, Note_off_c, 1, 53, 100
3, 135168, Note_on_c, 1, 44, 110
3, 135356, Note_off_c, 1, 44, 100
3, 135360, Note_on_c, 1, 56, 80
3, 135548, Note_off_c, 1, 56, 100
3, 135552, Note_on_c, 1, 54, 80
3, 135644, Note_off_c, 1, 54, 100
3, 135648, Note_on_c, 1, 49, 80
3, 135740, Note_off_c, 1, 49, 100
3, 135744, Note_on_c, 1, 45, 80
3, 135836, Note_off_c, 1, 45, 100
3, 135840, Note_on_c, 1, 49, 80
3, 135932, Note_off_c, 1, 49, 100
3, 135936, Note_on_c, 1, 42, 80
3, 136124, Note_off_c, 1, 42, 100
3, 136128, Note_on_c, 1, 66, 110
3, 136316, Note_off_c, 1, 66, 100
3, 136320, Note_on_c, 1, 63, 110
3, 136412, Note_off_c, 1, 63, 100
3, 136416, Note_on_c, 1, 59, 110
3, 136508, Note_off_c, 1, 59, 100
3, 136512, Note_on_c, 1, 54, 110
3, 136604, Note_off_c, 1, 54, 100
3, 136608, Note_on_c, 1, 59, 110
3, 136700, Note_off_c, 1, 59, 100
3, 136704, Note_on_c, 1, 51, 110
3, 136892, Note_off_c, 1, 51, 100
3, 136896, Note_on_c, 1, 51, 110
3, 137084, Note_off_c, 1, 51, 100
3, 137088, Note_on_c, 1, 48, 110
3, 137180, Note_off_c, 1, 48, 100
3, 137184, Note_on_c, 1, 45, 110
3, 137276, Note_off_c, 1, 45, 100
3, 137280, Note_on_c, 1, 40, 110
3, 137372, Note_off_c, 1, 40, 100
3, 137376, Note_on_c, 1, 45, 110
3, 137468, Note_off_c, 1, 45, 100
3, 137472, Note_on_c, 1, 36, 110
3, 137660, Note_off_c, 1, 36, 100
3, 137664, Note_on_c, 1, 60, 110
3, 137664, Note_on_c, 1, 48, 110
3, 137852, Note_off_c, 1, 60, 100
3, 137852, Note_off_c, 1, 48, 100
3, 137856, Note_on_c, 1, 59, 110
3, 137856, Note_on_c, 1, 47, 110
3, 138044, Note_off_c, 1, 59, 100
3, 138044, Note_off_c, 1, 47, 100
3, 138048, Note_on_c, 1, 71, 80
3, 138140, Note_off_c, 1, 71, 100
3, 138144, Note_on_c, 1, 73, 80
3, 138236, Note_off_c, 1, 73, 100
3, 138240, Note_on_c, 1, 71, 80
3, 138332, Note_off_c, 1, 71, 100
3, 138336, Note_on_c, 1, 73, 80
3, 138428, Note_off_c, 1, 73, 100
3, 138432, Note_on_c, 1, 71, 80
3, 138524, Note_off_c, 1, 71, 100
3, 138528, Note_on_c, 1, 73, 80
3, 138620, Note_off_c, 1, 73, 100
3, 138624, Note_on_c, 1, 71, 80
3, 138624, Note_on_c, 1, 63, 80
3, 138624, Note_on_c, 1, 66, 80
3, 138716, Note_off_c, 1, 71, 100
3, 138720, Note_on_c, 1, 73, 80
3, 138812, Note_off_c, 1, 73, 100
3, 138816, Note_on_c, 1, 71, 80
3, 138908, Note_off_c, 1, 71, 100
3, 138912, Note_on_c, 1, 73, 80
3, 139004, Note_off_c, 1, 73, 100
3, 139008, Note_on_c, 1, 71, 80
3, 139100, Note_off_c, 1, 71, 100
3, 139104, Note_on_c, 1, 73, 80
3, 139196, Note_off_c, 1, 63, 100
3, 139196, Note_off_c, 1, 66, 100
3, 139196, Note_off_c, 1, 73, 100
3, 139200, Note_on_c, 1, 71, 80
3, 139200, Note_on_c, 1, 68, 80
3, 139200, Note_on_c, 1, 64, 80
3, 139292, Note_off_c, 1, 71, 100
3, 139296, Note_on_c, 1, 73, 80
3, 139388, Note_off_c, 1, 68, 100
3, 139388, Note_off_c, 1, 64, 100
3, 139388, Note_off_c, 1, 73, 100
3, 139392, Note_on_c, 1, 71, 80
3, 139392, Note_on_c, 1, 68, 80
3, 139392, Note_on_c, 1, 64, 80
3, 139484, Note_off_c, 1, 71, 100
3, 139488, Note_on_c, 1, 73, 80
3, 139580, Note_off_c, 1, 68, 100
3, 139580, Note_off_c, 1, 64, 100
3, 139580, Note_off_c, 1, 73, 100
3, 139584, Note_on_c, 1, 71, 80
3, 139584, Note_on_c, 1, 69, 80
3, 139584, Note_on_c, 1, 66, 80
3, 139676, Note_off_c, 1, 71, 100
3, 139680, Note_on_c, 1, 73, 80
3, 139772, Note_off_c, 1, 69, 100
3, 139772, Note_off_c, 1, 66, 100
3, 139772, Note_off_c, 1, 73, 100
3, 139776, Note_on_c, 1, 71, 80
3, 139776, Note_on_c, 1, 69, 80
3, 139776, Note_on_c, 1, 66, 80
3, 139868, Note_off_c, 1, 71, 100
3, 139872, Note_on_c, 1, 73, 80
3, 139964, Note_off_c, 1, 69, 100
3, 139964, Note_off_c, 1, 66, 100
3, 139964, Note_off_c, 1, 73, 100
3, 139968, Note_on_c, 1, 71, 80
3, 139968, Note_on_c, 1, 68, 80
3, 139968, Note_on_c, 1, 64, 80
3, 140060, Note_off_c, 1, 71, 100
3, 140064, Note_on_c, 1, 73, 80
3, 140156, Note_off_c, 1, 68, 100
3, 140156, Note_off_c, 1, 64, 100
3, 140156, Note_off_c, 1, 73, 100
3, 140160, Note_on_c, 1, 71, 80
3, 140160, Note_on_c, 1, 66, 80
3, 140160, Note_on_c, 1, 63, 80
3, 140252, Note_off_c, 1, 71, 100
3, 140256, Note_on_c, 1, 73, 80
3, 140348, Note_off_c, 1, 73, 100
3, 140352, Note_on_c, 1, 71, 80
3, 140444, Note_off_c, 1, 71, 100
3, 140448, Note_on_c, 1, 73, 80
3, 140540, Note_off_c, 1, 73, 100
3, 140544, Note_on_c, 1, 71, 80
3, 140636, Note_off_c, 1, 71, 100
3, 140640, Note_on_c, 1, 73, 80
3, 140732, Note_off_c, 1, 66, 100
3, 140732, Note_off_c, 1, 63, 100
3, 140732, Note_off_c, 1, 73, 100
3, 140736, Note_on_c, 1, 71, 80
3, 140736, Note_on_c, 1, 68, 80
3, 140736, Note_on_c, 1, 64, 80
3, 140828, Note_off_c, 1, 71, 100
3, 140832, Note_on_c, 1, 73, 80
3, 140924, Note_off_c, 1, 68, 100
3, 140924, Note_off_c, 1, 64, 100
3, 140924, Note_off_c, 1, 73, 100
3, 140928, Note_on_c, 1, 71, 80
3, 140928, Note_on_c, 1, 69, 80
3, 140928, Note_on_c, 1, 66, 80
3, 141020, Note_off_c, 1, 71, 100
3, 141024, Note_on_c, 1, 73, 80
3, 141116, Note_off_c, 1, 69, 100
3, 141116, Note_off_c, 1, 66, 100
3, 141116, Note_off_c, 1, 73, 100
3, 141120, Note_on_c, 1, 71, 80
3, 141120, Note_on_c, 1, 66, 80
3, 141120, Note_on_c, 1, 63, 80
3, 141212, Note_off_c, 1, 71, 100
3, 141216, Note_on_c, 1, 73, 80
3, 141308, Note_off_c, 1, 66, 100
3, 141308, Note_off_c, 1, 63, 100
3, 141308, Note_off_c, 1, 73, 100
3, 141312, Note_on_c, 1, 71, 80
3, 141312, Note_on_c, 1, 68, 80
3, 141312, Note_on_c, 1, 64, 80
3, 141404, Note_off_c, 1, 71, 100
3, 141408, Note_on_c, 1, 73, 80
3, 141500, Note_off_c, 1, 68, 100
3, 141500, Note_off_c, 1, 64, 100
3, 141500, Note_off_c, 1, 73, 100
3, 141504, Note_on_c, 1, 71, 80
3, 141504, Note_on_c, 1, 69, 80
3, 141504, Note_on_c, 1, 66, 80
3, 141596, Note_off_c, 1, 71, 100
3, 141600, Note_on_c, 1, 73, 80
3, 141692, Note_off_c, 1, 69, 100
3, 141692, Note_off_c, 1, 66, 100
3, 141692, Note_off_c, 1, 73, 100
3, 141696, Note_on_c, 1, 71, 80
3, 141696, Note_on_c, 1, 68, 80
3, 141788, Note_off_c, 1, 71, 100
3, 141788, Note_off_c, 1, 68, 100
3, 141792, Note_on_c, 1, 76, 80
3, 141884, Note_off_c, 1, 76, 100
3, 141888, Note_on_c, 1, 71, 80
3, 141980, Note_off_c, 1, 71, 100
3, 141984, Note_on_c, 1, 76, 80
3, 142076, Note_off_c, 1, 76, 100
3, 142080, Note_on_c, 1, 69, 80
3, 142172, Note_off_c, 1, 69, 100
3, 142176, Note_on_c, 1, 76, 80
3, 142268, Note_off_c, 1, 76, 100
3, 142272, Note_on_c, 1, 68, 80
3, 142364, Note_off_c, 1, 68, 100
3, 142368, Note_on_c, 1, 76, 80
3, 142460, Note_off_c, 1, 76, 100
3, 142464, Note_on_c, 1, 69, 80
3, 142556, Note_off_c, 1, 69, 100
3, 142560, Note_on_c, 1, 76, 80
3, 142652, Note_off_c, 1, 76, 100
3, 142656, Note_on_c, 1, 71, 80
3, 142748, Note_off_c, 1, 71, 100
3, 142752, Note_on_c, 1, 76, 80
3, 142844, Note_off_c, 1, 76, 100
3, 142848, Note_on_c, 1, 73, 80
3, 142940, Note_off_c, 1, 73, 100
3, 142944, Note_on_c, 1, 76, 80
3, 143036, Note_off_c, 1, 76, 100
3, 143040, Note_on_c, 1, 70, 80
3, 143132, Note_off_c, 1, 70, 100
3, 143136, Note_on_c, 1, 76, 80
3, 143228, Note_off_c, 1, 76, 100
3, 143232, Note_on_c, 1, 71, 80
3, 143328, Note_on_c, 1, 73, 80
3, 143420, Note_off_c, 1, 73, 100
3, 143424, Note_on_c, 1, 75, 80
3, 143516, Note_off_c, 1, 75, 100
3, 143520, Note_on_c, 1, 76, 80
3, 143612, Note_off_c, 1, 76, 100
3, 143616, Note_on_c, 1, 75, 80
3, 143708, Note_off_c, 1, 75, 100
3, 143712, Note_on_c, 1, 76, 80
3, 143804, Note_off_c, 1, 76, 100
3, 143808, Note_on_c, 1, 78, 80
3, 143900, Note_off_c, 1, 78, 100
3, 143904, Note_on_c, 1, 80, 80
3, 143996, Note_off_c, 1, 71, 100
3, 143996, Note_off_c, 1, 80, 100
3, 144000, Note_on_c, 1, 75, 80
3, 144000, Note_on_c, 1, 71, 80
3, 144188, Note_off_c, 1, 75, 100
3, 144188, Note_off_c, 1, 71, 100
3, 144192, Note_on_c, 1, 61, 80
3, 144284, Note_off_c, 1, 61, 100
3, 144288, Note_on_c, 1, 59, 80
3, 144380, Note_off_c, 1, 59, 100
3, 144384, Note_on_c, 1, 61, 80
3, 144476, Note_off_c, 1, 61, 100
3, 144480, Note_on_c, 1, 59, 80
3, 144572, Note_off_c, 1, 59, 100
3, 144576, Note_on_c, 1, 61, 80
3, 144668, Note_off_c, 1, 61, 100
3, 144672, Note_on_c, 1, 59, 80
3, 144764, Note_off_c, 1, 59, 100
3, 144768, Note_on_c, 1, 61, 80
3, 144768, Note_on_c, 1, 54, 80
3, 144768, Note_on_c, 1, 51, 80
3, 144860, Note_off_c, 1, 61, 100
3, 144864, Note_on_c, 1, 59, 80
3, 144956, Note_off_c, 1, 59, 100
3, 144960, Note_on_c, 1, 61, 80
3, 145052, Note_off_c, 1, 61, 100
3, 145056, Note_on_c, 1, 59, 80
3, 145148, Note_off_c, 1, 59, 100
3, 145152, Note_on_c, 1, 61, 80
3, 145244, Note_off_c, 1, 61, 100
3, 145248, Note_on_c, 1, 59, 80
3, 145340, Note_off_c, 1, 54, 100
3, 145340, Note_off_c, 1, 51, 100
3, 145340, Note_off_c, 1, 59, 100
3, 145344, Note_on_c, 1, 61, 80
3, 145344, Note_on_c, 1, 56, 80
3, 145344, Note_on_c, 1, 52, 80
3, 145436, Note_off_c, 1, 61, 100
3, 145440, Note_on_c, 1, 59, 80
3, 145532, Note_off_c, 1, 56, 100
3, 145532, Note_off_c, 1, 52, 100
3, 145532, Note_off_c, 1, 59, 100
3, 145536, Note_on_c, 1, 61, 80
3, 145536, Note_on_c, 1, 56, 80
3, 145536, Note_on_c, 1, 52, 80
3, 145628, Note_off_c, 1, 61, 100
3, 145632, Note_on_c, 1, 59, 80
3, 145724, Note_off_c, 1, 56, 100
3, 145724, Note_off_c, 1, 52, 100
3, 145724, Note_off_c, 1, 59, 100
3, 145728, Note_on_c, 1, 61, 80
3, 145728, Note_on_c, 1, 57, 80
3, 145728, Note_on_c, 1, 54, 80
3, 145820, Note_off_c, 1, 61, 100
3, 145824, Note_on_c, 1, 59, 80
3, 145916, Note_off_c, 1, 57, 100
3, 145916, Note_off_c, 1, 54, 100
3, 145916, Note_off_c, 1, 59, 100
3, 145920, Note_on_c, 1, 61, 80
3, 145920, Note_on_c, 1, 57, 80
3, 145920, Note_on_c, 1, 54, 80
3, 146012, Note_off_c, 1, 61, 100
3, 146016, Note_on_c, 1, 59, 80
3, 146108, Note_off_c, 1, 57, 100
3, 146108, Note_off_c, 1, 54, 100
3, 146108, Note_off_c, 1, 59, 100
3, 146112, Note_on_c, 1, 61, 80
3, 146112, Note_on_c, 1, 56, 80
3, 146112, Note_on_c, 1, 52, 80
3, 146204, Note_off_c, 1, 61, 100
3, 146208, Note_on_c, 1, 59, 80
3, 146300, Note_off_c, 1, 56, 100
3, 146300, Note_off_c, 1, 52, 100
3, 146300, Note_off_c, 1, 59, 100
3, 146304, Note_on_c, 1, 61, 80
3, 146304, Note_on_c, 1, 54, 80
3, 146304, Note_on_c, 1, 51, 80
3, 146396, Note_off_c, 1, 61, 100
3, 146400, Note_on_c, 1, 59, 81
3, 146492, Note_off_c, 1, 59, 100
3, 146496, Note_on_c, 1, 61, 83
3, 146588, Note_off_c, 1, 61, 100
3, 146592, Note_on_c, 1, 59, 85
3, 146684, Note_off_c, 1, 59, 100
3, 146688, Note_on_c, 1, 61, 87
3, 146780, Note_off_c, 1, 61, 100
3, 146784, Note_on_c, 1, 59, 89
3, 146876, Note_off_c, 1, 54, 100
3, 146876, Note_off_c, 1, 51, 100
3, 146876, Note_off_c, 1, 59, 100
3, 146880, Note_on_c, 1, 61, 91
3, 146880, Note_on_c, 1, 56, 91
3, 146880, Note_on_c, 1, 52, 91
3, 146972, Note_off_c, 1, 61, 100
3, 146976, Note_on_c, 1, 59, 93
3, 147068, Note_off_c, 1, 56, 100
3, 147068, Note_off_c, 1, 52, 100
3, 147068, Note_off_c, 1, 59, 100
3, 147072, Note_on_c, 1, 57, 95
3, 147072, Note_on_c, 1, 54, 95
3, 147164, Note_off_c, 1, 57, 100
3, 147168, Note_on_c, 1, 59, 97
3, 147260, Note_off_c, 1, 54, 100
3, 147260, Note_off_c, 1, 59, 100
3, 147264, Note_on_c, 1, 51, 99
3, 147264, Note_on_c, 1, 47, 99
3, 147356, Note_off_c, 1, 51, 100
3, 147360, Note_on_c, 1, 59, 101
3, 147452, Note_off_c, 1, 47, 100
3, 147452, Note_off_c, 1, 59, 100
3, 147456, Note_on_c, 1, 52, 103
3, 147456, Note_on_c, 1, 49, 103
3, 147548, Note_off_c, 1, 52, 100
3, 147552, Note_on_c, 1, 59, 105
3, 147644, Note_off_c, 1, 49, 100
3, 147644, Note_off_c, 1, 59, 100
3, 147648, Note_on_c, 1, 54, 107
3, 147648, Note_on_c, 1, 51, 107
3, 147740, Note_off_c, 1, 54, 100
3, 147744, Note_on_c, 1, 59, 109
3, 147836, Note_off_c, 1, 51, 100
3, 147836, Note_off_c, 1, 59, 100
3, 147840, Note_on_c, 1, 56, 110
3, 147840, Note_on_c, 1, 52, 110
3, 147932, Note_off_c, 1, 56, 100
3, 147936, Note_on_c, 1, 59, 109
3, 148028, Note_off_c, 1, 52, 100
3, 148028, Note_off_c, 1, 59, 100
3, 148032, Note_on_c, 1, 52, 107
3, 148032, Note_on_c, 1, 49, 107
3, 148124, Note_off_c, 1, 52, 100
3, 148128, Note_on_c, 1, 59, 106
3, 148220, Note_off_c, 1, 49, 100
3, 148220, Note_off_c, 1, 59, 100
3, 148224, Note_on_c, 1, 54, 104
3, 148224, Note_on_c, 1, 51, 104
3, 148316, Note_off_c, 1, 54, 100
3, 148320, Note_on_c, 1, 59, 102
3, 148412, Note_off_c, 1, 51, 100
3, 148412, Note_off_c, 1, 59, 100
3, 148416, Note_on_c, 1, 56, 101
3, 148416, Note_on_c, 1, 52, 101
3, 148508, Note_off_c, 1, 56, 100
3, 148512, Note_on_c, 1, 59, 99
3, 148604, Note_off_c, 1, 52, 100
3, 148604, Note_off_c, 1, 59, 100
3, 148608, Note_on_c, 1, 57, 97
3, 148608, Note_on_c, 1, 54, 97
3, 148700, Note_off_c, 1, 57, 100
3, 148704, Note_on_c, 1, 59, 96
3, 148796, Note_off_c, 1, 54, 100
3, 148796, Note_off_c, 1, 59, 100
3, 148800, Note_on_c, 1, 54, 94
3, 148800, Note_on_c, 1, 51, 94
3, 148892, Note_off_c, 1, 54, 100
3, 148896, Note_on_c, 1, 59, 92
3, 148988, Note_off_c, 1, 51, 100
3, 148988, Note_off_c, 1, 59, 100
3, 148992, Note_on_c, 1, 56, 91
3, 148992, Note_on_c, 1, 52, 91
3, 149084, Note_off_c, 1, 56, 100
3, 149088, Note_on_c, 1, 59, 89
3, 149180, Note_off_c, 1, 52, 100
3, 149180, Note_off_c, 1, 59, 100
3, 149184, Note_on_c, 1, 57, 87
3, 149184, Note_on_c, 1, 54, 87
3, 149276, Note_off_c, 1, 57, 100
3, 149280, Note_on_c, 1, 59, 86
3, 149372, Note_off_c, 1, 54, 100
3, 149372, Note_off_c, 1, 59, 100
3, 149376, Note_on_c, 1, 56, 84
3, 149468, Note_off_c, 1, 56, 100
3, 149472, Note_on_c, 1, 59, 82
3, 149564, Note_off_c, 1, 59, 100
3, 149568, Note_on_c, 1, 56, 81
3, 149660, Note_off_c, 1, 56, 100
3, 149664, Note_on_c, 1, 59, 79
3, 149756, Note_off_c, 1, 59, 100
3, 149760, Note_on_c, 1, 56, 77
3, 149852, Note_off_c, 1, 56, 100
3, 149856, Note_on_c, 1, 59, 76
3, 149948, Note_off_c, 1, 59, 100
3, 149952, Note_on_c, 1, 56, 74
3, 150044, Note_off_c, 1, 56, 100
3, 150048, Note_on_c, 1, 59, 72
3, 150140, Note_off_c, 1, 59, 100
3, 150144, Note_on_c, 1, 59, 71
3, 150144, Note_on_c, 1, 56, 71
3, 150332, Note_off_c, 1, 59, 100
3, 150332, Note_off_c, 1, 56, 100
3, 150624, Note_on_c, 1, 61, 80
3, 150716, Note_off_c, 1, 61, 100
3, 150720, Note_on_c, 1, 63, 80
3, 150812, Note_off_c, 1, 63, 100
3, 150816, Note_on_c, 1, 65, 80
3, 150908, Note_off_c, 1, 65, 100
3, 150912, Note_on_c, 1, 66, 80
3, 151004, Note_off_c, 1, 66, 100
3, 151008, Note_on_c, 1, 61, 80
3, 151100, Note_off_c, 1, 61, 100
3, 151104, Note_on_c, 1, 63, 80
3, 151196, Note_off_c, 1, 63, 100
3, 151200, Note_on_c, 1, 65, 80
3, 151292, Note_off_c, 1, 65, 100
3, 151296, Note_on_c, 1, 68, 80
3, 151324, Note_off_c, 1, 68, 100
3, 151328, Note_on_c, 1, 66, 80
3, 151388, Note_off_c, 1, 66, 100
3, 151392, Note_on_c, 1, 65, 80
3, 151484, Note_off_c, 1, 65, 100
3, 151488, Note_on_c, 1, 66, 80
3, 151580, Note_off_c, 1, 66, 100
3, 151584, Note_on_c, 1, 68, 80
3, 151676, Note_off_c, 1, 68, 100
3, 151680, Note_on_c, 1, 69, 80
3, 151772, Note_off_c, 1, 69, 100
3, 151776, Note_on_c, 1, 68, 80
3, 151868, Note_off_c, 1, 68, 100
3, 151872, Note_on_c, 1, 69, 80
3, 151964, Note_off_c, 1, 69, 100
3, 151968, Note_on_c, 1, 71, 80
3, 152060, Note_off_c, 1, 71, 100
3, 152064, Note_on_c, 1, 73, 80
3, 152156, Note_off_c, 1, 73, 100
3, 152160, Note_on_c, 1, 71, 80
3, 152252, Note_off_c, 1, 71, 100
3, 152256, Note_on_c, 1, 69, 80
3, 152348, Note_off_c, 1, 69, 100
3, 152352, Note_on_c, 1, 70, 80
3, 152444, Note_off_c, 1, 70, 100
3, 152448, Note_on_c, 1, 71, 80
3, 152636, Note_off_c, 1, 71, 100
3, 152832, Note_on_c, 1, 59, 80
3, 153020, Note_off_c, 1, 59, 100
3, 153216, Note_on_c, 1, 52, 80
3, 153340, Note_off_c, 1, 52, 100
3, 153344, Note_on_c, 1, 59, 80
3, 153468, Note_off_c, 1, 59, 100
3, 153472, Note_on_c, 1, 56, 80
3, 153596, Note_off_c, 1, 56, 100
3, 153600, Note_on_c, 1, 52, 80
3, 153724, Note_off_c, 1, 52, 100
3, 153728, Note_on_c, 1, 64, 80
3, 153852, Note_off_c, 1, 64, 100
3, 153856, Note_on_c, 1, 59, 80
3, 153980, Note_off_c, 1, 59, 100
3, 153984, Note_on_c, 1, 54, 80
3, 154108, Note_off_c, 1, 54, 100
3, 154112, Note_on_c, 1, 63, 80
3, 154236, Note_off_c, 1, 63, 100
3, 154240, Note_on_c, 1, 59, 80
3, 154364, Note_off_c, 1, 59, 100
3, 154368, Note_on_c, 1, 56, 80
3, 154492, Note_off_c, 1, 56, 100
3, 154496, Note_on_c, 1, 64, 80
3, 154620, Note_off_c, 1, 64, 100
3, 154624, Note_on_c, 1, 59, 80
3, 154748, Note_off_c, 1, 59, 100
3, 154752, Note_on_c, 1, 57, 80
3, 154876, Note_off_c, 1, 57, 100
3, 154880, Note_on_c, 1, 66, 80
3, 155004, Note_off_c, 1, 66, 100
3, 155008, Note_on_c, 1, 61, 80
3, 155132, Note_off_c, 1, 61, 100
3, 155136, Note_on_c, 1, 58, 80
3, 155260, Note_off_c, 1, 58, 100
3, 155264, Note_on_c, 1, 67, 80
3, 155388, Note_off_c, 1, 67, 100
3, 155392, Note_on_c, 1, 64, 80
3, 155516, Note_off_c, 1, 64, 100
3, 155520, Note_on_c, 1, 59, 80
3, 155644, Note_off_c, 1, 59, 100
3, 155648, Note_on_c, 1, 68, 80
3, 155772, Note_off_c, 1, 68, 100
3, 155776, Note_on_c, 1, 64, 80
3, 155900, Note_off_c, 1, 64, 100
3, 155904, Note_on_c, 1, 57, 80
3, 156028, Note_off_c, 1, 57, 100
3, 156032, Note_on_c, 1, 66, 80
3, 156156, Note_off_c, 1, 66, 100
3, 156160, Note_on_c, 1, 63, 80
3, 156284, Note_off_c, 1, 63, 100
3, 156288, Note_on_c, 1, 56, 80
3, 156380, Note_off_c, 1, 56, 100
3, 156384, Note_on_c, 1, 64, 81
3, 156476, Note_off_c, 1, 64, 100
3, 156480, Note_on_c, 1, 59, 82
3, 156572, Note_off_c, 1, 59, 100
3, 156576, Note_on_c, 1, 56, 83
3, 156668, Note_off_c, 1, 56, 100
3, 156672, Note_on_c, 1, 52, 85
3, 156764, Note_off_c, 1, 52, 100
3, 156768, Note_on_c, 1, 59, 86
3, 156860, Note_off_c, 1, 59, 100
3, 156864, Note_on_c, 1, 56, 87
3, 156956, Note_off_c, 1, 56, 100
3, 156960, Note_on_c, 1, 52, 89
3, 157052, Note_off_c, 1, 52, 100
3, 157056, Note_on_c, 1, 54, 90
3, 157148, Note_off_c, 1, 54, 100
3, 157152, Note_on_c, 1, 62, 91
3, 157244, Note_off_c, 1, 62, 100
3, 157248, Note_on_c, 1, 57, 93
3, 157340, Note_off_c, 1, 57, 100
3, 157344, Note_on_c, 1, 54, 94
3, 157436, Note_off_c, 1, 54, 100
3, 157440, Note_on_c, 1, 56, 95
3, 157532, Note_off_c, 1, 56, 100
3, 157536, Note_on_c, 1, 64, 96
3, 157628, Note_off_c, 1, 64, 100
3, 157632, Note_on_c, 1, 59, 98
3, 157724, Note_off_c, 1, 59, 100
3, 157728, Note_on_c, 1, 56, 99
3, 157820, Note_off_c, 1, 56, 100
3, 157824, Note_on_c, 1, 57, 100
3, 157916, Note_off_c, 1, 57, 100
3, 157920, Note_on_c, 1, 66, 102
3, 158012, Note_off_c, 1, 66, 100
3, 158016, Note_on_c, 1, 62, 103
3, 158108, Note_off_c, 1, 62, 100
3, 158112, Note_on_c, 1, 57, 104
3, 158204, Note_off_c, 1, 57, 100
3, 158208, Note_on_c, 1, 59, 106
3, 158300, Note_off_c, 1, 59, 100
3, 158304, Note_on_c, 1, 68, 107
3, 158396, Note_off_c, 1, 68, 100
3, 158400, Note_on_c, 1, 62, 108
3, 158492, Note_off_c, 1, 62, 100
3, 158496, Note_on_c, 1, 59, 109
3, 158588, Note_off_c, 1, 59, 100
3, 158592, Note_on_c, 1, 56, 110
3, 158684, Note_off_c, 1, 56, 100
3, 158688, Note_on_c, 1, 62, 110
3, 158780, Note_off_c, 1, 62, 100
3, 158784, Note_on_c, 1, 59, 110
3, 158876, Note_off_c, 1, 59, 100
3, 158880, Note_on_c, 1, 56, 110
3, 158972, Note_off_c, 1, 56, 100
3, 158976, Note_on_c, 1, 53, 110
3, 159068, Note_off_c, 1, 53, 100
3, 159072, Note_on_c, 1, 62, 110
3, 159164, Note_off_c, 1, 62, 100
3, 159168, Note_on_c, 1, 59, 110
3, 159260, Note_off_c, 1, 59, 100
3, 159264, Note_on_c, 1, 56, 110
3, 159356, Note_off_c, 1, 56, 100
3, 159360, Note_on_c, 1, 53, 110
3, 159452, Note_off_c, 1, 53, 100
3, 159456, Note_on_c, 1, 62, 110
3, 159548, Note_off_c, 1, 62, 100
3, 159552, Note_on_c, 1, 59, 110
3, 159644, Note_off_c, 1, 59, 100
3, 159648, Note_on_c, 1, 56, 110
3, 159740, Note_off_c, 1, 56, 100
3, 159744, Note_on_c, 1, 53, 110
3, 159836, Note_off_c, 1, 53, 100
3, 159840, Note_on_c, 1, 62, 110
3, 159932, Note_off_c, 1, 62, 100
3, 159936, Note_on_c, 1, 59, 110
3, 160028, Note_off_c, 1, 59, 100
3, 160032, Note_on_c, 1, 56, 110
3, 160124, Note_off_c, 1, 56, 100
3, 160128, Key_signature, 0, "major"
3, 160128, Note_on_c, 1, 50, 110
3, 160220, Note_off_c, 1, 50, 100
3, 160224, Note_on_c, 1, 59, 110
3, 160316, Note_off_c, 1, 59, 100
3, 160320, Note_on_c, 1, 56, 110
3, 160412, Note_off_c, 1, 56, 100
3, 160416, Note_on_c, 1, 53, 110
3, 160508, Note_off_c, 1, 53, 100
3, 160512, Note_on_c, 1, 50, 110
3, 160604, Note_off_c, 1, 50, 100
3, 160608, Note_on_c, 1, 59, 110
3, 160700, Note_off_c, 1, 59, 100
3, 160704, Note_on_c, 1, 56, 110
3, 160796, Note_off_c, 1, 56, 100
3, 160800, Note_on_c, 1, 53, 110
3, 160892, Note_off_c, 1, 53, 100
3, 160896, Note_on_c, 1, 47, 110
3, 160988, Note_off_c, 1, 47, 100
3, 160992, Note_on_c, 1, 56, 106
3, 161084, Note_off_c, 1, 56, 100
3, 161088, Note_on_c, 1, 53, 102
3, 161180, Note_off_c, 1, 53, 100
3, 161184, Note_on_c, 1, 50, 98
3, 161276, Note_off_c, 1, 50, 100
3, 161280, Note_on_c, 1, 47, 93
3, 161372, Note_off_c, 1, 47, 100
3, 161376, Note_on_c, 1, 56, 89
3, 161468, Note_off_c, 1, 56, 100
3, 161472, Note_on_c, 1, 53, 85
3, 161564, Note_off_c, 1, 53, 100
3, 161568, Note_on_c, 1, 50, 81
3, 161660, Note_off_c, 1, 50, 100
3, 161664, Note_on_c, 1, 47, 80
3, 161756, Note_off_c, 1, 47, 100
3, 161760, Note_on_c, 1, 55, 80
3, 161852, Note_off_c, 1, 55, 100
3, 161856, Note_on_c, 1, 53, 80
3, 161948, Note_off_c, 1, 53, 100
3, 161952, Note_on_c, 1, 50, 80
3, 162044, Note_off_c, 1, 50, 100
3, 162048, Note_on_c, 1, 47, 80
3, 162140, Note_off_c, 1, 47, 100
3, 162144, Note_on_c, 1, 55, 80
3, 162236, Note_off_c, 1, 55, 100
3, 162240, Note_on_c, 1, 47, 80
3, 162332, Note_off_c, 1, 47, 100
3, 162336, Note_on_c, 1, 55, 80
3, 162428, Note_off_c, 1, 55, 100
3, 162432, Note_on_c, 1, 55, 80
3, 162432, Note_on_c, 1, 47, 80
3, 162812, Note_off_c, 1, 55, 100
3, 162812, Note_off_c, 1, 47, 100
3, 163008, Note_on_c, 1, 67, 80
3, 163196, Note_off_c, 1, 67, 100
3, 163200, Note_on_c, 1, 67, 80
3, 163388, Note_off_c, 1, 67, 100
3, 163392, Note_on_c, 1, 68, 80
3, 163580, Note_off_c, 1, 68, 100
3, 163584, Note_on_c, 1, 67, 80
3, 163772, Note_off_c, 1, 67, 100
3, 163776, Note_on_c, 1, 55, 80
3, 163776, Note_on_c, 1, 62, 80
3, 163964, Note_off_c, 1, 55, 100
3, 163964, Note_off_c, 1, 62, 100
3, 163968, Note_on_c, 1, 55, 80
3, 164156, Note_off_c, 1, 55, 100
3, 164160, Note_on_c, 1, 58, 80
3, 164348, Note_off_c, 1, 58, 100
3, 164352, Note_on_c, 1, 57, 80
3, 164540, Note_off_c, 1, 57, 100
3, 164544, Note_on_c, 1, 55, 80
3, 164544, Note_on_c, 1, 52, 80
3, 164732, Note_off_c, 1, 55, 100
3, 164732, Note_off_c, 1, 52, 100
3, 164736, Note_on_c, 1, 57, 80
3, 164736, Note_on_c, 1, 53, 80
3, 164924, Note_off_c, 1, 57, 100
3, 164924, Note_off_c, 1, 53, 100
3, 164928, Note_on_c, 1, 58, 80
3, 164928, Note_on_c, 1, 55, 80
3, 165116, Note_off_c, 1, 58, 100
3, 165116, Note_off_c, 1, 55, 100
3, 165120, Note_on_c, 1, 57, 80
3, 165120, Note_on_c, 1, 53, 80
3, 165308, Note_off_c, 1, 57, 100
3, 165308, Note_off_c, 1, 53, 100
3, 165312, Note_on_c, 1, 52, 80
3, 165312, Note_on_c, 1, 49, 80
3, 165500, Note_off_c, 1, 52, 100
3, 165500, Note_off_c, 1, 49, 100
3, 165504, Note_on_c, 1, 53, 80
3, 165504, Note_on_c, 1, 50, 80
3, 165692, Note_off_c, 1, 53, 100
3, 165692, Note_off_c, 1, 50, 100
3, 165696, Note_on_c, 1, 65, 80
3, 165696, Note_on_c, 1, 62, 80
3, 166076, Note_off_c, 1, 65, 100
3, 166076, Note_off_c, 1, 62, 100
3, 166080, Note_on_c, 1, 63, 80
3, 166080, Note_on_c, 1, 60, 80
3, 166460, Note_off_c, 1, 60, 100
3, 166460, Note_off_c, 1, 63, 100
3, 166464, Note_on_c, 1, 61, 80
3, 166464, Note_on_c, 1, 58, 80
3, 166652, Note_off_c, 1, 61, 100
3, 166652, Note_off_c, 1, 58, 100
3, 166656, Note_on_c, 1, 61, 80
3, 166656, Note_on_c, 1, 58, 80
3, 166844, Note_off_c, 1, 61, 100
3, 166844, Note_off_c, 1, 58, 100
3, 166848, Note_on_c, 1, 59, 80
3, 166848, Note_on_c, 1, 56, 80
3, 167040, Key_signature, 4, "major"
3, 167228, Note_off_c, 1, 56, 100
3, 167228, Note_off_c, 1, 59, 100
3, 167232, Note_on_c, 1, 58, 80
3, 167232, Note_on_c, 1, 54, 80
3, 167612, Note_off_c, 1, 58, 100
3, 167612, Note_off_c, 1, 54, 100
3, 167616, Note_on_c, 1, 58, 80
3, 167616, Note_on_c, 1, 54, 80
3, 167996, Note_off_c, 1, 54, 100
3, 167996, Note_off_c, 1, 58, 100
3, 168000, Note_on_c, 1, 58, 80
3, 168000, Note_on_c, 1, 54, 80
3, 168380, Note_off_c, 1, 58, 100
3, 168380, Note_off_c, 1, 54, 100
3, 168384, Note_on_c, 1, 58, 80
3, 168384, Note_on_c, 1, 54, 80
3, 168764, Note_off_c, 1, 54, 100
3, 168764, Note_off_c, 1, 58, 100
3, 168768, Note_on_c, 1, 61, 85
3, 168768, Note_on_c, 1, 58, 85
3, 168768, Note_on_c, 1, 54, 85
3, 169148, Note_off_c, 1, 61, 100
3, 169148, Note_off_c, 1, 58, 100
3, 169148, Note_off_c, 1, 54, 100
3, 169152, Note_on_c, 1, 61, 97
3, 169152, Note_on_c, 1, 57, 97
3, 169152, Note_on_c, 1, 54, 97
3, 169152, Note_on_c, 1, 52, 97
3, 169532, Note_off_c, 1, 52, 100
3, 169532, Note_off_c, 1, 54, 100
3, 169532, Note_off_c, 1, 57, 100
3, 169532, Note_off_c, 1, 61, 100
3, 169536, Note_on_c, 1, 59, 109
3, 169536, Note_on_c, 1, 57, 109
3, 169536, Note_on_c, 1, 54, 109
3, 169536, Note_on_c, 1, 51, 109
3, 169724, Note_off_c, 1, 59, 100
3, 169724, Note_off_c, 1, 57, 100
3, 169724, Note_off_c, 1, 54, 100
3, 169724, Note_off_c, 1, 51, 100
3, 169728, Note_on_c, 1, 51, 110
3, 169820, Note_off_c, 1, 51, 100
3, 169824, Note_on_c, 1, 59, 110
3, 169916, Note_off_c, 1, 59, 100
3, 169920, Note_on_c, 1, 51, 110
3, 170012, Note_off_c, 1, 51, 100
3, 170016, Note_on_c, 1, 52, 110
3, 170108, Note_off_c, 1, 52, 100
3, 170112, Note_on_c, 1, 54, 110
3, 170204, Note_off_c, 1, 54, 100
3, 170208, Note_on_c, 1, 59, 110
3, 170300, Note_off_c, 1, 59, 100
3, 170304, Note_on_c, 1, 54, 110
3, 170396, Note_off_c, 1, 54, 100
3, 170400, Note_on_c, 1, 56, 110
3, 170492, Note_off_c, 1, 56, 100
3, 170496, Note_on_c, 1, 57, 110
3, 170588, Note_off_c, 1, 57, 100
3, 170592, Note_on_c, 1, 59, 110
3, 170684, Note_off_c, 1, 59, 100
3, 170688, Note_on_c, 1, 57, 110
3, 170780, Note_off_c, 1, 57, 100
3, 170784, Note_on_c, 1, 56, 110
3, 170876, Note_off_c, 1, 56, 100
3, 170880, Note_on_c, 1, 54, 110
3, 170972, Note_off_c, 1, 54, 100
3, 170976, Note_on_c, 1, 59, 110
3, 171068, Note_off_c, 1, 59, 100
3, 171072, Note_on_c, 1, 54, 110
3, 171164, Note_off_c, 1, 54, 100
3, 171168, Note_on_c, 1, 52, 110
3, 171260, Note_off_c, 1, 52, 100
3, 171264, Note_on_c, 1, 51, 110
3, 171356, Note_off_c, 1, 51, 100
3, 171360, Note_on_c, 1, 59, 110
3, 171452, Note_off_c, 1, 59, 100
3, 171456, Note_on_c, 1, 51, 110
3, 171548, Note_off_c, 1, 51, 100
3, 171552, Note_on_c, 1, 52, 110
3, 171644, Note_off_c, 1, 52, 100
3, 171648, Note_on_c, 1, 54, 110
3, 171740, Note_off_c, 1, 54, 100
3, 171744, Note_on_c, 1, 59, 110
3, 171836, Note_off_c, 1, 59, 100
3, 171840, Note_on_c, 1, 54, 110
3, 171932, Note_off_c, 1, 54, 100
3, 171936, Note_on_c, 1, 56, 110
3, 172028, Note_off_c, 1, 56, 100
3, 172032, Note_on_c, 1, 57, 110
3, 172124, Note_off_c, 1, 57, 100
3, 172128, Note_on_c, 1, 59, 109
3, 172220, Note_off_c, 1, 59, 100
3, 172224, Note_on_c, 1, 57, 107
3, 172316, Note_off_c, 1, 57, 100
3, 172320, Note_on_c, 1, 56, 105
3, 172412, Note_off_c, 1, 56, 100
3, 172416, Note_on_c, 1, 54, 103
3, 172508, Note_off_c, 1, 54, 100
3, 172512, Note_on_c, 1, 59, 101
3, 172604, Note_off_c, 1, 59, 100
3, 172608, Note_on_c, 1, 54, 99
3, 172700, Note_off_c, 1, 54, 100
3, 172704, Note_on_c, 1, 52, 97
3, 172796, Note_off_c, 1, 52, 100
3, 172800, Note_on_c, 1, 51, 95
3, 172892, Note_off_c, 1, 51, 100
3, 172896, Note_on_c, 1, 59, 93
3, 172988, Note_off_c, 1, 59, 100
3, 172992, Note_on_c, 1, 51, 91
3, 173084, Note_off_c, 1, 51, 100
3, 173088, Note_on_c, 1, 52, 89
3, 173180, Note_off_c, 1, 52, 100
3, 173184, Note_on_c, 1, 54, 87
3, 173276, Note_off_c, 1, 54, 100
3, 173280, Note_on_c, 1, 59, 85
3, 173372, Note_off_c, 1, 59, 100
3, 173376, Note_on_c, 1, 54, 83
3, 173468, Note_off_c, 1, 54, 100
3, 173472, Note_on_c, 1, 56, 81
3, 173564, Note_off_c, 1, 56, 100
3, 173568, Note_on_c, 1, 57, 80
3, 173660, Note_off_c, 1, 57, 100
3, 173664, Note_on_c, 1, 59, 80
3, 173756, Note_off_c, 1, 59, 100
3, 173760, Note_on_c, 1, 57, 80
3, 173852, Note_off_c, 1, 57, 100
3, 173856, Note_on_c, 1, 56, 80
3, 173948, Note_off_c, 1, 56, 100
3, 173952, Note_on_c, 1, 54, 80
3, 174044, Note_off_c, 1, 54, 100
3, 174048, Note_on_c, 1, 59, 80
3, 174140, Note_off_c, 1, 59, 100
3, 174144, Note_on_c, 1, 54, 80
3, 174236, Note_off_c, 1, 54, 100
3, 174240, Note_on_c, 1, 52, 80
3, 174332, Note_off_c, 1, 52, 100
3, 174336, Note_on_c, 1, 51, 80
3, 174428, Note_off_c, 1, 51, 100
3, 174432, Note_on_c, 1, 59, 80
3, 174524, Note_off_c, 1, 59, 100
3, 174528, Note_on_c, 1, 51, 80
3, 174620, Note_off_c, 1, 51, 100
3, 174624, Note_on_c, 1, 52, 80
3, 174716, Note_off_c, 1, 52, 100
3, 174720, Note_on_c, 1, 54, 80
3, 174812, Note_off_c, 1, 54, 100
3, 174816, Note_on_c, 1, 59, 80
3, 174908, Note_off_c, 1, 59, 100
3, 174912, Note_on_c, 1, 54, 80
3, 175004, Note_off_c, 1, 54, 100
3, 175008, Note_on_c, 1, 56, 80
3, 175100, Note_off_c, 1, 56, 100
3, 175104, Note_on_c, 1, 57, 80
3, 175196, Note_off_c, 1, 57, 100
3, 175200, Note_on_c, 1, 56, 80
3, 175292, Note_off_c, 1, 56, 100
3, 175296, Note_on_c, 1, 57, 80
3, 175388, Note_off_c, 1, 57, 100
3, 175392, Note_on_c, 1, 57, 80
3, 175484, Note_off_c, 1, 57, 100
3, 175488, Note_on_c, 1, 59, 80
3, 175580, Note_off_c, 1, 59, 100
3, 175584, Note_on_c, 1, 58, 80
3, 175676, Note_off_c, 1, 58, 100
3, 175680, Note_on_c, 1, 57, 80
3, 175772, Note_off_c, 1, 57, 100
3, 175776, Note_on_c, 1, 56, 80
3, 175868, Note_off_c, 1, 56, 100
3, 175872, Note_on_c, 1, 54, 80
3, 175964, Note_off_c, 1, 54, 100
3, 175968, Note_on_c, 1, 51, 80
3, 175968, Note_on_c, 1, 47, 80
3, 176060, Note_off_c, 1, 51, 100
3, 176060, Note_off_c, 1, 47, 100
3, 176064, Note_on_c, 1, 52, 80
3, 176064, Note_on_c, 1, 49, 80
3, 176156, Note_off_c, 1, 52, 100
3, 176156, Note_off_c, 1, 49, 100
3, 176160, Note_on_c, 1, 54, 80
3, 176160, Note_on_c, 1, 51, 80
3, 176252, Note_off_c, 1, 54, 100
3, 176252, Note_off_c, 1, 51, 100
3, 176256, Note_on_c, 1, 56, 80
3, 176256, Note_on_c, 1, 52, 80
3, 176444, Note_off_c, 1, 52, 100
3, 176636, Note_off_c, 1, 56, 100
3, 176640, Note_on_c, 1, 59, 80
3, 176828, Note_off_c, 1, 59, 100
3, 176832, Note_on_c, 1, 57, 80
3, 177020, Note_off_c, 1, 57, 100
3, 177024, Note_on_c, 1, 47, 80
3, 177024, Note_on_c, 1, 56, 80
3, 177212, Note_off_c, 1, 47, 100
3, 177212, Note_off_c, 1, 56, 100
3, 177216, Note_on_c, 1, 54, 80
3, 177404, Note_off_c, 1, 54, 100
3, 177408, Note_on_c, 1, 54, 80
3, 177596, Note_off_c, 1, 54, 100
3, 177600, Note_on_c, 1, 56, 80
3, 177788, Note_off_c, 1, 56, 100
3, 177792, Note_on_c, 1, 47, 80
3, 177792, Note_on_c, 1, 57, 80
3, 177980, Note_off_c, 1, 47, 100
3, 177980, Note_off_c, 1, 57, 100
3, 177984, Note_on_c, 1, 61, 80
3, 178172, Note_off_c, 1, 61, 100
3, 178176, Note_on_c, 1, 47, 80
3, 178176, Note_on_c, 1, 59, 80
3, 178364, Note_off_c, 1, 47, 100
3, 178364, Note_off_c, 1, 59, 100
3, 178368, Note_on_c, 1, 45, 80
3, 178368, Note_on_c, 1, 54, 80
3, 178556, Note_off_c, 1, 45, 100
3, 178556, Note_off_c, 1, 54, 100
3, 178560, Note_on_c, 1, 56, 80
3, 178560, Note_on_c, 1, 44, 80
3, 178748, Note_off_c, 1, 56, 100
3, 178748, Note_off_c, 1, 44, 100
3, 179328, Note_on_c, 1, 52, 80
3, 179420, Note_off_c, 1, 52, 100
3, 179424, Note_on_c, 1, 64, 80
3, 179516, Note_off_c, 1, 64, 100
3, 179520, Note_on_c, 1, 52, 80
3, 179612, Note_off_c, 1, 52, 100
3, 179616, Note_on_c, 1, 64, 80
3, 179708, Note_off_c, 1, 64, 100
3, 179712, Note_on_c, 1, 49, 80
3, 179804, Note_off_c, 1, 49, 100
3, 179808, Note_on_c, 1, 61, 80
3, 179900, Note_off_c, 1, 61, 100
3, 179904, Note_on_c, 1, 45, 80
3, 179996, Note_off_c, 1, 45, 100
3, 180000, Note_on_c, 1, 57, 80
3, 180092, Note_off_c, 1, 57, 100
3, 180096, Note_on_c, 1, 47, 80
3, 180188, Note_off_c, 1, 47, 100
3, 180192, Note_on_c, 1, 59, 80
3, 180284, Note_off_c, 1, 59, 100
3, 180288, Note_on_c, 1, 47, 80
3, 180380, Note_off_c, 1, 47, 100
3, 180384, Note_on_c, 1, 59, 80
3, 180476, Note_off_c, 1, 59, 100
3, 180480, Note_on_c, 1, 57, 80
3, 180572, Note_off_c, 1, 57, 100
3, 180576, Note_on_c, 1, 69, 80
3, 180668, Note_off_c, 1, 69, 100
3, 180672, Note_on_c, 1, 56, 80
3, 180764, Note_off_c, 1, 56, 100
3, 180768, Note_on_c, 1, 68, 80
3, 180860, Note_off_c, 1, 68, 100
3, 180864, Note_on_c, 1, 54, 80
3, 180956, Note_off_c, 1, 54, 100
3, 180960, Note_on_c, 1, 66, 80
3, 181052, Note_off_c, 1, 66, 100
3, 181056, Note_on_c, 1, 52, 80
3, 181148, Note_off_c, 1, 52, 100
3, 181152, Note_on_c, 1, 64, 80
3, 181244, Note_off_c, 1, 64, 100
3, 181248, Note_on_c, 1, 51, 80
3, 181340, Note_off_c, 1, 51, 100
3, 181344, Note_on_c, 1, 63, 80
3, 181436, Note_off_c, 1, 63, 100
3, 181440, Note_on_c, 1, 47, 80
3, 181532, Note_off_c, 1, 47, 100
3, 181536, Note_on_c, 1, 59, 80
3, 181628, Note_off_c, 1, 59, 100
3, 181632, Note_on_c, 1, 64, 80
3, 181632, Note_on_c, 1, 52, 80
3, 182012, Note_off_c, 1, 64, 100
3, 182012, Note_off_c, 1, 52, 100
3, 182208, Note_on_c, 1, 59, 80
3, 182208, Note_on_c, 1, 51, 80
3, 182396, Note_off_c, 1, 59, 100
3, 182396, Note_off_c, 1, 51, 100
3, 182400, Note_on_c, 1, 58, 80
3, 182400, Note_on_c, 1, 49, 80
3, 182780, Note_off_c, 1, 58, 100
3, 182780, Note_off_c, 1, 49, 100
3, 182784, Note_on_c, 1, 64, 80
3, 182784, Note_on_c, 1, 58, 80
3, 183164, Note_off_c, 1, 64, 100
3, 183164, Note_off_c, 1, 58, 100
3, 183168, Note_on_c, 1, 63, 80
3, 183168, Note_on_c, 1, 59, 80
3, 183548, Note_off_c, 1, 63, 100
3, 183548, Note_off_c, 1, 59, 100
3, 183552, Note_on_c, 1, 59, 80
3, 183552, Note_on_c, 1, 47, 80
3, 183740, Note_off_c, 1, 59, 100
3, 183740, Note_off_c, 1, 47, 100
3, 183744, Note_on_c, 1, 57, 80
3, 183744, Note_on_c, 1, 49, 80
3, 183932, Note_off_c, 1, 57, 100
3, 183932, Note_off_c, 1, 49, 100
3, 183936, Note_on_c, 1, 56, 80
3, 183936, Note_on_c, 1, 50, 80
3, 184316, Note_off_c, 1, 56, 100
3, 184316, Note_off_c, 1, 50, 100
3, 184320, Note_on_c, 1, 62, 80
3, 184320, Note_on_c, 1, 56, 80
3, 184700, Note_off_c, 1, 62, 100
3, 184700, Note_off_c, 1, 56, 100
3, 184704, Note_on_c, 1, 61, 80
3, 184704, Note_on_c, 1, 57, 80
3, 185276, Note_off_c, 1, 61, 100
3, 185276, Note_off_c, 1, 57, 100
3, 185280, Note_on_c, 1, 61, 80
3, 185280, Note_on_c, 1, 57, 80
3, 185468, Note_off_c, 1, 61, 100
3, 185468, Note_off_c, 1, 57, 100
3, 185472, Note_on_c, 1, 60, 83
3, 185472, Note_on_c, 1, 56, 83
3, 185660, Note_off_c, 1, 60, 100
3, 185660, Note_off_c, 1, 56, 100
3, 185664, Note_on_c, 1, 61, 87
3, 185664, Note_on_c, 1, 57, 87
3, 185852, Note_off_c, 1, 61, 100
3, 185852, Note_off_c, 1, 57, 100
3, 185856, Note_on_c, 1, 57, 90
3, 185856, Note_on_c, 1, 49, 90
3, 186044, Note_off_c, 1, 57, 100
3, 186044, Note_off_c, 1, 49, 100
3, 186048, Note_on_c, 1, 56, 94
3, 186048, Note_on_c, 1, 47, 94
3, 186236, Note_off_c, 1, 56, 100
3, 186236, Note_off_c, 1, 47, 100
3, 186240, Note_on_c, 1, 56, 97
3, 186240, Note_on_c, 1, 47, 97
3, 186428, Note_off_c, 1, 56, 100
3, 186428, Note_off_c, 1, 47, 100
3, 186432, Note_on_c, 1, 54, 101
3, 186432, Note_on_c, 1, 46, 101
3, 186812, Note_off_c, 1, 54, 100
3, 186812, Note_off_c, 1, 46, 100
3, 186816, Note_on_c, 1, 54, 108
3, 186816, Note_on_c, 1, 46, 108
3, 187004, Note_off_c, 1, 54, 100
3, 187004, Note_off_c, 1, 46, 100
3, 187008, Note_on_c, 1, 47, 80
3, 187008, Note_on_c, 1, 54, 80
3, 187196, Note_off_c, 1, 54, 100
3, 187200, Note_on_c, 1, 59, 80
3, 187388, Note_off_c, 1, 59, 100
3, 187392, Note_on_c, 1, 58, 80
3, 187580, Note_off_c, 1, 58, 100
3, 187584, Note_on_c, 1, 59, 80
3, 187772, Note_off_c, 1, 47, 100
3, 187772, Note_off_c, 1, 59, 100
3, 187776, Note_on_c, 1, 56, 80
3, 187776, Note_on_c, 1, 52, 80
3, 187868, Note_off_c, 1, 56, 100
3, 187868, Note_off_c, 1, 52, 100
3, 187872, Note_on_c, 1, 59, 80
3, 187964, Note_off_c, 1, 59, 100
3, 187968, Note_on_c, 1, 56, 80
3, 188060, Note_off_c, 1, 56, 100
3, 188064, Note_on_c, 1, 52, 80
3, 188156, Note_off_c, 1, 52, 100
3, 188160, Note_on_c, 1, 51, 80
3, 188252, Note_off_c, 1, 51, 100
3, 188256, Note_on_c, 1, 59, 80
3, 188348, Note_off_c, 1, 59, 100
3, 188352, Note_on_c, 1, 54, 80
3, 188444, Note_off_c, 1, 54, 100
3, 188448, Note_on_c, 1, 51, 80
3, 188540, Note_off_c, 1, 51, 100
3, 188544, Note_on_c, 1, 49, 80
3, 188636, Note_off_c, 1, 49, 100
3, 188640, Note_on_c, 1, 58, 80
3, 188732, Note_off_c, 1, 58, 100
3, 188736, Note_on_c, 1, 54, 80
3, 188828, Note_off_c, 1, 54, 100
3, 188832, Note_on_c, 1, 49, 80
3, 188924, Note_off_c, 1, 49, 100
3, 188928, Note_on_c, 1, 42, 80
3, 189020, Note_off_c, 1, 42, 100
3, 189024, Note_on_c, 1, 58, 80
3, 189116, Note_off_c, 1, 58, 100
3, 189120, Note_on_c, 1, 54, 80
3, 189212, Note_off_c, 1, 54, 100
3, 189216, Note_on_c, 1, 49, 80
3, 189308, Note_off_c, 1, 49, 100
3, 189312, Note_on_c, 1, 47, 80
3, 189404, Note_off_c, 1, 47, 100
3, 189408, Note_on_c, 1, 59, 80
3, 189500, Note_off_c, 1, 59, 100
3, 189504, Note_on_c, 1, 54, 80
3, 189596, Note_off_c, 1, 54, 100
3, 189600, Note_on_c, 1, 51, 80
3, 189692, Note_off_c, 1, 51, 100
3, 189696, Note_on_c, 1, 47, 80
3, 189788, Note_off_c, 1, 47, 100
3, 189792, Note_on_c, 1, 59, 80
3, 189884, Note_off_c, 1, 59, 100
3, 189888, Note_on_c, 1, 49, 80
3, 189980, Note_off_c, 1, 49, 100
3, 189984, Note_on_c, 1, 57, 80
3, 190076, Note_off_c, 1, 57, 100
3, 190080, Note_on_c, 1, 47, 80
3, 190172, Note_off_c, 1, 47, 100
3, 190176, Note_on_c, 1, 56, 80
3, 190268, Note_off_c, 1, 56, 100
3, 190272, Note_on_c, 1, 52, 80
3, 190364, Note_off_c, 1, 52, 100
3, 190368, Note_on_c, 1, 47, 80
3, 190460, Note_off_c, 1, 47, 100
3, 190464, Note_on_c, 1, 40, 80
3, 190556, Note_off_c, 1, 40, 100
3, 190560, Note_on_c, 1, 56, 80
3, 190652, Note_off_c, 1, 56, 100
3, 190656, Note_on_c, 1, 52, 80
3, 190748, Note_off_c, 1, 52, 100
3, 190752, Note_on_c, 1, 47, 80
3, 190844, Note_off_c, 1, 47, 100
3, 190848, Note_on_c, 1, 45, 80
3, 190940, Note_off_c, 1, 45, 100
3, 190944, Note_on_c, 1, 57, 80
3, 191036, Note_off_c, 1, 57, 100
3, 191040, Note_on_c, 1, 52, 80
3, 191132, Note_off_c, 1, 52, 100
3, 191136, Note_on_c, 1, 49, 80
3, 191228, Note_off_c, 1, 49, 100
3, 191232, Note_on_c, 1, 45, 80
3, 191324, Note_off_c, 1, 45, 100
3, 191328, Note_on_c, 1, 52, 80
3, 191420, Note_off_c, 1, 52, 100
3, 191424, Note_on_c, 1, 44, 80
3, 191516, Note_off_c, 1, 44, 100
3, 191520, Note_on_c, 1, 52, 81
3, 191612, Note_off_c, 1, 52, 100
3, 191616, Note_on_c, 1, 44, 83
3, 191708, Note_off_c, 1, 44, 100
3, 191712, Note_on_c, 1, 52, 85
3, 191804, Note_off_c, 1, 52, 100
3, 191808, Note_on_c, 1, 45, 87
3, 191900, Note_off_c, 1, 45, 100
3, 191904, Note_on_c, 1, 52, 88
3, 191996, Note_off_c, 1, 52, 100
3, 192000, Note_on_c, 1, 45, 90
3, 192000, Note_on_c, 1, 49, 90
3, 192092, Note_off_c, 1, 45, 100
3, 192092, Note_off_c, 1, 49, 100
3, 192096, Note_on_c, 1, 52, 92
3, 192188, Note_off_c, 1, 52, 100
3, 192192, Note_on_c, 1, 47, 94
3, 192192, Note_on_c, 1, 52, 94
3, 192284, Note_off_c, 1, 47, 100
3, 192284, Note_off_c, 1, 52, 100
3, 192288, Note_on_c, 1, 56, 95
3, 192380, Note_off_c, 1, 56, 100
3, 192384, Note_on_c, 1, 49, 97
3, 192384, Note_on_c, 1, 52, 97
3, 192476, Note_off_c, 1, 49, 100
3, 192476, Note_off_c, 1, 52, 100
3, 192480, Note_on_c, 1, 58, 99
3, 192572, Note_off_c, 1, 58, 100
3, 192576, Note_on_c, 1, 49, 101
3, 192576, Note_on_c, 1, 52, 101
3, 192668, Note_off_c, 1, 49, 100
3, 192668, Note_off_c, 1, 52, 100
3, 192672, Note_on_c, 1, 58, 102
3, 192764, Note_off_c, 1, 58, 100
3, 192768, Note_on_c, 1, 48, 104
3, 192768, Note_on_c, 1, 52, 104
3, 192860, Note_off_c, 1, 48, 100
3, 192860, Note_off_c, 1, 52, 100
3, 192864, Note_on_c, 1, 57, 106
3, 192956, Note_off_c, 1, 57, 100
3, 192960, Note_on_c, 1, 48, 108
3, 192960, Note_on_c, 1, 52, 108
3, 193052, Note_off_c, 1, 48, 100
3, 193052, Note_off_c, 1, 52, 100
3, 193056, Note_on_c, 1, 57, 96
3, 193148, Note_off_c, 1, 57, 100
3, 193152, Note_on_c, 1, 47, 80
3, 193244, Note_off_c, 1, 47, 100
3, 193248, Note_on_c, 1, 57, 80
3, 193248, Note_on_c, 1, 54, 80
3, 193248, Note_on_c, 1, 51, 80
3, 193340, Note_off_c, 1, 57, 100
3, 193340, Note_off_c, 1, 54, 100
3, 193340, Note_off_c, 1, 51, 100
3, 193344, Note_on_c, 1, 47, 80
3, 193436, Note_off_c, 1, 47, 100
3, 193440, Note_on_c, 1, 57, 80
3, 193440, Note_on_c, 1, 54, 80
3, 193440, Note_on_c, 1, 51, 80
3, 193532, Note_off_c, 1, 57, 100
3, 193532, Note_off_c, 1, 54, 100
3, 193532, Note_off_c, 1, 51, 100
3, 193536, Note_on_c, 1, 47, 80
3, 193628, Note_off_c, 1, 47, 100
3, 193632, Note_on_c, 1, 57, 80
3, 193632, Note_on_c, 1, 54, 80
3, 193632, Note_on_c, 1, 51, 80
3, 193724, Note_off_c, 1, 57, 100
3, 193724, Note_off_c, 1, 54, 100
3, 193724, Note_off_c, 1, 51, 100
3, 193728, Note_on_c, 1, 47, 80
3, 193820, Note_off_c, 1, 47, 100
3, 193824, Note_on_c, 1, 57, 80
3, 193824, Note_on_c, 1, 54, 80
3, 193824, Note_on_c, 1, 51, 80
3, 193916, Note_off_c, 1, 57, 100
3, 193916, Note_off_c, 1, 54, 100
3, 193916, Note_off_c, 1, 51, 100
3, 193920, Note_on_c, 1, 47, 80
3, 194012, Note_off_c, 1, 47, 100
3, 194016, Note_on_c, 1, 52, 80
3, 194016, Note_on_c, 1, 56, 80
3, 194108, Note_off_c, 1, 52, 100
3, 194108, Note_off_c, 1, 56, 100
3, 194112, Note_on_c, 1, 47, 80
3, 194204, Note_off_c, 1, 47, 100
3, 194208, Note_on_c, 1, 56, 80
3, 194208, Note_on_c, 1, 52, 80
3, 194300, Note_off_c, 1, 56, 100
3, 194300, Note_off_c, 1, 52, 100
3, 194304, Note_on_c, 1, 47, 80
3, 194396, Note_off_c, 1, 47, 100
3, 194400, Note_on_c, 1, 52, 80
3, 194400, Note_on_c, 1, 56, 80
3, 194492, Note_off_c, 1, 52, 100
3, 194492, Note_off_c, 1, 56, 100
3, 194496, Note_on_c, 1, 47, 80
3, 194588, Note_off_c, 1, 47, 100
3, 194592, Note_on_c, 1, 56, 80
3, 194592, Note_on_c, 1, 52, 80
3, 194684, Note_off_c, 1, 56, 100
3, 194684, Note_off_c, 1, 52, 100
3, 194688, Note_on_c, 1, 54, 80
3, 194688, Note_on_c, 1, 47, 80
3, 194880, Note_on_c, 1, 59, 80
3, 195068, Note_off_c, 1, 59, 100
3, 195072, Note_on_c, 1, 58, 80
3, 195260, Note_off_c, 1, 58, 100
3, 195264, Note_on_c, 1, 59, 80
3, 195452, Note_off_c, 1, 54, 100
3, 195452, Note_off_c, 1, 47, 100
3, 195452, Note_off_c, 1, 59, 100
3, 195456, Note_on_c, 1, 52, 80
3, 195456, Note_on_c, 1, 47, 80
3, 195648, Note_on_c, 1, 59, 80
3, 195836, Note_off_c, 1, 59, 100
3, 195840, Note_on_c, 1, 58, 80
3, 196028, Note_off_c, 1, 58, 100
3, 196032, Note_on_c, 1, 59, 80
3, 196220, Note_off_c, 1, 52, 100
3, 196220, Note_off_c, 1, 47, 100
3, 196220, Note_off_c, 1, 59, 100
3, 196224, Note_on_c, 1, 47, 80
3, 196316, Note_off_c, 1, 47, 100
3, 196320, Note_on_c, 1, 57, 81
3, 196320, Note_on_c, 1, 54, 81
3, 196320, Note_on_c, 1, 51, 81
3, 196412, Note_off_c, 1, 57, 100
3, 196412, Note_off_c, 1, 54, 100
3, 196412, Note_off_c, 1, 51, 100
3, 196416, Note_on_c, 1, 47, 82
3, 196508, Note_off_c, 1, 47, 100
3, 196512, Note_on_c, 1, 57, 83
3, 196512, Note_on_c, 1, 54, 83
3, 196512, Note_on_c, 1, 51, 83
3, 196604, Note_off_c, 1, 57, 100
3, 196604, Note_off_c, 1, 54, 100
3, 196604, Note_off_c, 1, 51, 100
3, 196608, Note_on_c, 1, 47, 85
3, 196700, Note_off_c, 1, 47, 100
3, 196704, Note_on_c, 1, 57, 86
3, 196704, Note_on_c, 1, 54, 86
3, 196704, Note_on_c, 1, 51, 86
3, 196796, Note_off_c, 1, 57, 100
3, 196796, Note_off_c, 1, 54, 100
3, 196796, Note_off_c, 1, 51, 100
3, 196800, Note_on_c, 1, 47, 87
3, 196892, Note_off_c, 1, 47, 100
3, 196896, Note_on_c, 1, 57, 89
3, 196896, Note_on_c, 1, 54, 89
3, 196896, Note_on_c, 1, 51, 89
3, 196988, Note_off_c, 1, 57, 100
3, 196988, Note_off_c, 1, 54, 100
3, 196988, Note_off_c, 1, 51, 100
3, 196992, Note_on_c, 1, 47, 90
3, 197084, Note_off_c, 1, 47, 100
3, 197088, Note_on_c, 1, 56, 91
3, 197088, Note_on_c, 1, 53, 91
3, 197088, Note_on_c, 1, 50, 91
3, 197180, Note_off_c, 1, 56, 100
3, 197180, Note_off_c, 1, 53, 100
3, 197180, Note_off_c, 1, 50, 100
3, 197184, Note_on_c, 1, 47, 93
3, 197276, Note_off_c, 1, 47, 100
3, 197280, Note_on_c, 1, 56, 94
3, 197280, Note_on_c, 1, 53, 94
3, 197280, Note_on_c, 1, 50, 94
3, 197372, Note_off_c, 1, 56, 100
3, 197372, Note_off_c, 1, 53, 100
3, 197372, Note_off_c, 1, 50, 100
3, 197376, Note_on_c, 1, 47, 95
3, 197468, Note_off_c, 1, 47, 100
3, 197472, Note_on_c, 1, 56, 96
3, 197472, Note_on_c, 1, 53, 96
3, 197472, Note_on_c, 1, 50, 96
3, 197564, Note_off_c, 1, 56, 100
3, 197564, Note_off_c, 1, 53, 100
3, 197564, Note_off_c, 1, 50, 100
3, 197568, Note_on_c, 1, 47, 98
3, 197660, Note_off_c, 1, 47, 100
3, 197664, Note_on_c, 1, 56, 99
3, 197664, Note_on_c, 1, 53, 99
3, 197664, Note_on_c, 1, 50, 99
3, 197756, Note_off_c, 1, 56, 100
3, 197756, Note_off_c, 1, 53, 100
3, 197756, Note_off_c, 1, 50, 100
3, 197760, Note_on_c, 1, 45, 100
3, 197852, Note_off_c, 1, 45, 100
3, 197856, Note_on_c, 1, 49, 102
3, 197856, Note_on_c, 1, 54, 102
3, 197948, Note_off_c, 1, 49, 100
3, 197948, Note_off_c, 1, 54, 100
3, 197952, Note_on_c, 1, 45, 103
3, 198044, Note_off_c, 1, 45, 100
3, 198048, Note_on_c, 1, 49, 104
3, 198048, Note_on_c, 1, 54, 104
3, 198140, Note_off_c, 1, 49, 100
3, 198140, Note_off_c, 1, 54, 100
3, 198144, Note_on_c, 1, 45, 106
3, 198236, Note_off_c, 1, 45, 100
3, 198240, Note_on_c, 1, 49, 107
3, 198240, Note_on_c, 1, 54, 107
3, 198332, Note_off_c, 1, 49, 100
3, 198332, Note_off_c, 1, 54, 100
3, 198336, Note_on_c, 1, 45, 108
3, 198428, Note_off_c, 1, 45, 100
3, 198432, Note_on_c, 1, 49, 109
3, 198432, Note_on_c, 1, 54, 109
3, 198524, Note_off_c, 1, 49, 100
3, 198524, Note_off_c, 1, 54, 100
3, 198528, Note_on_c, 1, 46, 110
3, 198620, Note_off_c, 1, 46, 100
3, 198624, Note_on_c, 1, 49, 109
3, 198624, Note_on_c, 1, 52, 109
3, 198624, Note_on_c, 1, 54, 109
3, 198716, Note_off_c, 1, 49, 100
3, 198716, Note_off_c, 1, 52, 100
3, 198716, Note_off_c, 1, 54, 100
3, 198720, Note_on_c, 1, 46, 107
3, 198812, Note_off_c, 1, 46, 100
3, 198816, Note_on_c, 1, 49, 105
3, 198816, Note_on_c, 1, 52, 105
3, 198816, Note_on_c, 1, 54, 105
3, 198908, Note_off_c, 1, 49, 100
3, 198908, Note_off_c, 1, 52, 100
3, 198908, Note_off_c, 1, 54, 100
3, 198912, Note_on_c, 1, 46, 103
3, 199004, Note_off_c, 1, 46, 100
3, 199008, Note_on_c, 1, 49, 101
3, 199008, Note_on_c, 1, 52, 101
3, 199008, Note_on_c, 1, 54, 101
3, 199100, Note_off_c, 1, 49, 100
3, 199100, Note_off_c, 1, 52, 100
3, 199100, Note_off_c, 1, 54, 100
3, 199104, Note_on_c, 1, 46, 99
3, 199196, Note_off_c, 1, 46, 100
3, 199200, Note_on_c, 1, 49, 97
3, 199200, Note_on_c, 1, 52, 97
3, 199200, Note_on_c, 1, 54, 97
3, 199292, Note_off_c, 1, 49, 100
3, 199292, Note_off_c, 1, 52, 100
3, 199292, Note_off_c, 1, 54, 100
3, 199296, Note_on_c, 1, 47, 95
3, 199388, Note_off_c, 1, 47, 100
3, 199392, Note_on_c, 1, 52, 93
3, 199392, Note_on_c, 1, 56, 93
3, 199484, Note_off_c, 1, 52, 100
3, 199484, Note_off_c, 1, 56, 100
3, 199488, Note_on_c, 1, 47, 91
3, 199580, Note_off_c, 1, 47, 100
3, 199584, Note_on_c, 1, 52, 89
3, 199584, Note_on_c, 1, 56, 89
3, 199676, Note_off_c, 1, 52, 100
3, 199676, Note_off_c, 1, 56, 100
3, 199680, Note_on_c, 1, 47, 87
3, 199772, Note_off_c, 1, 47, 100
3, 199776, Note_on_c, 1, 52, 85
3, 199776, Note_on_c, 1, 56, 85
3, 199868, Note_off_c, 1, 52, 100
3, 199868, Note_off_c, 1, 56, 100
3, 199872, Note_on_c, 1, 47, 83
3, 199964, Note_off_c, 1, 47, 100
3, 199968, Note_on_c, 1, 52, 81
3, 199968, Note_on_c, 1, 56, 81
3, 200060, Note_off_c, 1, 52, 100
3, 200060, Note_off_c, 1, 56, 100
3, 200064, Note_on_c, 1, 47, 80
3, 200156, Note_off_c, 1, 47, 100
3, 200160, Note_on_c, 1, 54, 80
3, 200252, Note_off_c, 1, 54, 100
3, 200256, Note_on_c, 1, 47, 80
3, 200348, Note_off_c, 1, 47, 100
3, 200352, Note_on_c, 1, 51, 80
3, 200444, Note_off_c, 1, 51, 100
3, 200448, Note_on_c, 1, 47, 80
3, 200540, Note_off_c, 1, 47, 100
3, 200544, Note_on_c, 1, 59, 80
3, 200636, Note_off_c, 1, 59, 100
3, 200640, Note_on_c, 1, 47, 80
3, 200732, Note_off_c, 1, 47, 100
3, 200736, Note_on_c, 1, 59, 80
3, 200828, Note_off_c, 1, 59, 100
3, 200832, Note_on_c, 1, 59, 80
3, 201212, Note_off_c, 1, 59, 100
3, 201216, Note_on_c, 1, 57, 87
3, 201596, Note_off_c, 1, 57, 100
3, 201600, Note_on_c, 1, 59, 95
3, 201600, Note_on_c, 1, 56, 95
3, 201980, Note_off_c, 1, 59, 100
3, 201980, Note_off_c, 1, 56, 100
3, 201984, Note_on_c, 1, 57, 103
3, 201984, Note_on_c, 1, 54, 103
3, 202364, Note_off_c, 1, 57, 100
3, 202364, Note_off_c, 1, 54, 100
3, 202368, Note_on_c, 1, 56, 110
3, 202368, Note_on_c, 1, 53, 110
3, 202556, Note_off_c, 1, 56, 100
3, 202556, Note_off_c, 1, 53, 100
3, 202752, Note_on_c, 1, 56, 110
3, 202752, Note_on_c, 1, 53, 110
3, 202940, Note_off_c, 1, 56, 100
3, 202940, Note_off_c, 1, 53, 100
3, 203712, Note_on_c, 1, 61, 80
3, 203804, Note_off_c, 1, 61, 100
3, 203808, Note_on_c, 1, 63, 80
3, 203900, Note_off_c, 1, 63, 100
3, 203904, Note_on_c, 1, 58, 80
3, 203904, Note_on_c, 1, 64, 80
3, 204092, Note_off_c, 1, 64, 100
3, 204096, Note_on_c, 1, 67, 80
3, 204284, Note_off_c, 1, 67, 100
3, 204288, Note_on_c, 1, 66, 80
3, 204476, Note_off_c, 1, 66, 100
3, 204480, Note_on_c, 1, 61, 80
3, 204668, Note_off_c, 1, 58, 100
3, 204668, Note_off_c, 1, 61, 100
3, 204672, Note_on_c, 1, 59, 80
3, 204672, Note_on_c, 1, 63, 80
3, 205628, Note_off_c, 1, 63, 100
3, 205632, Note_on_c, 1, 66, 80
3, 205820, Note_off_c, 1, 66, 100
3, 205824, Note_on_c, 1, 64, 80
3, 206012, Note_off_c, 1, 64, 100
3, 206016, Note_on_c, 1, 61, 80
3, 206204, Note_off_c, 1, 61, 100
3, 206208, Note_on_c, 1, 64, 80
3, 207164, Note_off_c, 1, 64, 100
3, 207168, Note_on_c, 1, 64, 80
3, 207356, Note_off_c, 1, 64, 100
3, 207360, Note_on_c, 1, 63, 80
3, 207548, Note_off_c, 1, 59, 100
3, 207548, Note_off_c, 1, 63, 100
3, 207552, Note_on_c, 1, 59, 80
3, 207740, Note_off_c, 1, 59, 100
3, 207744, Note_on_c, 1, 63, 80
3, 207932, Note_off_c, 1, 63, 100
3, 207936, Note_on_c, 1, 58, 80
3, 208124, Note_off_c, 1, 58, 100
3, 208128, Note_on_c, 1, 59, 80
3, 208316, Note_off_c, 1, 59, 100
3, 208320, Note_on_c, 1, 63, 80
3, 208508, Note_off_c, 1, 63, 100
3, 208512, Note_on_c, 1, 59, 80
3, 208700, Note_off_c, 1, 59, 100
3, 208704, Note_on_c, 1, 56, 80
3, 208892, Note_off_c, 1, 56, 100
3, 208896, Note_on_c, 1, 57, 80
3, 208896, Note_on_c, 1, 47, 80
3, 209084, Note_off_c, 1, 57, 100
3, 209084, Note_off_c, 1, 47, 100
3, 209088, Note_on_c, 1, 61, 80
3, 209276, Note_off_c, 1, 61, 100
3, 209280, Note_on_c, 1, 57, 80
3, 209468, Note_off_c, 1, 57, 100
3, 209472, Note_on_c, 1, 55, 80
3, 209660, Note_off_c, 1, 55, 100
3, 209664, Note_on_c, 1, 56, 80
3, 209664, Note_on_c, 1, 47, 80
3, 209852, Note_off_c, 1, 56, 100
3, 209852, Note_off_c, 1, 47, 100
3, 209856, Note_on_c, 1, 59, 80
3, 210044, Note_off_c, 1, 59, 100
3, 210048, Note_on_c, 1, 56, 80
3, 210236, Note_off_c, 1, 56, 100
3, 210240, Note_on_c, 1, 53, 80
3, 210428, Note_off_c, 1, 53, 100
3, 210432, Note_on_c, 1, 54, 80
3, 210432, Note_on_c, 1, 47, 80
3, 210620, Note_off_c, 1, 54, 100
3, 210620, Note_off_c, 1, 47, 100
3, 210624, Note_on_c, 1, 57, 80
3, 210624, Note_on_c, 1, 47, 80
3, 210812, Note_off_c, 1, 57, 100
3, 210816, Note_on_c, 1, 56, 80
3, 211004, Note_off_c, 1, 47, 100
3, 211004, Note_off_c, 1, 56, 100
3, 211008, Note_on_c, 1, 47, 80
3, 211008, Note_on_c, 1, 52, 80
3, 211196, Note_off_c, 1, 52, 100
3, 211200, Note_on_c, 1, 54, 80
3, 211292, Note_off_c, 1, 54, 100
3, 211296, Note_on_c, 1, 57, 80
3, 211388, Note_off_c, 1, 47, 100
3, 211388, Note_off_c, 1, 57, 100
3, 211392, Note_on_c, 1, 47, 80
3, 211392, Note_on_c, 1, 56, 80
3, 211484, Note_off_c, 1, 56, 100
3, 211488, Note_on_c, 1, 54, 80
3, 211580, Note_off_c, 1, 47, 100
3, 211580, Note_off_c, 1, 54, 100
3, 211584, Note_on_c, 1, 52, 80
3, 211584, Note_on_c, 1, 40, 80
3, 211772, Note_off_c, 1, 52, 100
3, 211772, Note_off_c, 1, 40, 100
3, 212352, Note_on_c, 1, 47, 80
3, 212352, Note_on_c, 1, 35, 80
3, 212540, Note_off_c, 1, 47, 100
3, 212540, Note_off_c, 1, 35, 100
3, 213120, Note_on_c, 1, 49, 80
3, 213120, Note_on_c, 1, 37, 80
3, 213308, Note_off_c, 1, 49, 100
3, 213308, Note_off_c, 1, 37, 100
3, 213504, Note_on_c, 1, 51, 80
3, 213504, Note_on_c, 1, 39, 80
3, 213692, Note_off_c, 1, 51, 100
3, 213692, Note_off_c, 1, 39, 100
3, 213696, Note_on_c, 1, 47, 80
3, 213696, Note_on_c, 1, 35, 80
3, 213884, Note_off_c, 1, 47, 100
3, 213884, Note_off_c, 1, 35, 100
3, 213888, Note_on_c, 1, 52, 80
3, 213888, Note_on_c, 1, 40, 80
3, 214268, Note_off_c, 1, 52, 100
3, 214268, Note_off_c, 1, 40, 100
3, 214464, Note_on_c, 1, 47, 80
3, 214652, Note_off_c, 1, 47, 100
3, 214656, Note_on_c, 1, 49, 80
3, 215036, Note_off_c, 1, 49, 100
3, 215040, Note_on_c, 1, 51, 80
3, 215228, Note_off_c, 1, 51, 100
3, 215232, Note_on_c, 1, 57, 80
3, 215232, Note_on_c, 1, 47, 80
3, 215420, Note_off_c, 1, 57, 100
3, 215420, Note_off_c, 1, 47, 100
3, 215424, Note_on_c, 1, 56, 80
3, 215424, Note_on_c, 1, 52, 80
3, 215516, Note_off_c, 1, 56, 100
3, 215516, Note_off_c, 1, 52, 100
3, 215520, Note_on_c, 1, 47, 80
3, 215612, Note_off_c, 1, 47, 100
3, 215616, Note_on_c, 1, 56, 80
3, 215616, Note_on_c, 1, 52, 80
3, 215708, Note_off_c, 1, 56, 100
3, 215708, Note_off_c, 1, 52, 100
3, 215712, Note_on_c, 1, 47, 80
3, 215804, Note_off_c, 1, 47, 100
3, 215808, Note_on_c, 1, 56, 80
3, 215808, Note_on_c, 1, 52, 80
3, 215900, Note_off_c, 1, 56, 100
3, 215900, Note_off_c, 1, 52, 100
3, 215904, Note_on_c, 1, 47, 80
3, 215996, Note_off_c, 1, 47, 100
3, 216000, Note_on_c, 1, 56, 80
3, 216000, Note_on_c, 1, 53, 80
3, 216092, Note_off_c, 1, 56, 100
3, 216092, Note_off_c, 1, 53, 100
3, 216096, Note_on_c, 1, 47, 80
3, 216188, Note_off_c, 1, 47, 100
3, 216192, Note_on_c, 1, 57, 80
3, 216192, Note_on_c, 1, 54, 80
3, 216284, Note_off_c, 1, 57, 100
3, 216284, Note_off_c, 1, 54, 100
3, 216288, Note_on_c, 1, 47, 80
3, 216380, Note_off_c, 1, 47, 100
3, 216384, Note_on_c, 1, 61, 80
3, 216384, Note_on_c, 1, 57, 80
3, 216476, Note_off_c, 1, 61, 100
3, 216476, Note_off_c, 1, 57, 100
3, 216480, Note_on_c, 1, 47, 80
3, 216572, Note_off_c, 1, 47, 100
3, 216576, Note_on_c, 1, 59, 80
3, 216576, Note_on_c, 1, 56, 80
3, 216668, Note_off_c, 1, 59, 100
3, 216668, Note_off_c, 1, 56, 100
3, 216672, Note_on_c, 1, 47, 80
3, 216764, Note_off_c, 1, 47, 100
3, 216768, Note_on_c, 1, 57, 80
3, 216768, Note_on_c, 1, 54, 80
3, 216860, Note_off_c, 1, 57, 100
3, 216860, Note_off_c, 1, 54, 100
3, 216864, Note_on_c, 1, 47, 80
3, 216956, Note_off_c, 1, 47, 100
3, 216960, Note_on_c, 1, 56, 80
3, 216960, Note_on_c, 1, 52, 80
3, 217148, Note_off_c, 1, 56, 100
3, 217148, Note_off_c, 1, 52, 100
3, 217152, Note_on_c, 1, 42, 80
3, 217340, Note_off_c, 1, 42, 100
3, 217344, Note_on_c, 1, 40, 80
3, 217532, Note_off_c, 1, 40, 100
3, 217536, Note_on_c, 1, 49, 80
3, 217724, Note_off_c, 1, 49, 100
3, 217728, Note_on_c, 1, 47, 80
3, 218300, Note_off_c, 1, 47, 100
3, 218304, Note_on_c, 1, 49, 80
3, 218396, Note_off_c, 1, 49, 100
3, 218400, Note_on_c, 1, 47, 80
3, 218492, Note_off_c, 1, 47, 100
3, 218496, Note_on_c, 1, 46, 80
3, 218876, Note_off_c, 1, 46, 100
3, 218880, Note_on_c, 1, 66, 80
3, 218880, Note_on_c, 1, 64, 80
3, 218880, Note_on_c, 1, 58, 80
3, 219260, Note_off_c, 1, 66, 100
3, 219260, Note_off_c, 1, 64, 100
3, 219260, Note_off_c, 1, 58, 100
3, 219264, Note_on_c, 1, 68, 80
3, 219264, Note_on_c, 1, 64, 80
3, 219264, Note_on_c, 1, 59, 80
3, 219452, Note_off_c, 1, 68, 100
3, 219452, Note_off_c, 1, 64, 100
3, 219452, Note_off_c, 1, 59, 100
3, 219648, Note_on_c, 1, 66, 84
3, 219648, Note_on_c, 1, 59, 84
3, 219836, Note_off_c, 1, 66, 100
3, 219836, Note_off_c, 1, 59, 100
3, 220032, Note_on_c, 1, 64, 88
3, 220032, Note_on_c, 1, 61, 88
3, 220220, Note_off_c, 1, 64, 100
3, 220220, Note_off_c, 1, 61, 100
3, 220416, Note_on_c, 1, 61, 93
3, 220416, Note_on_c, 1, 57, 93
3, 220604, Note_off_c, 1, 61, 100
3, 220604, Note_off_c, 1, 57, 100
3, 220800, Note_on_c, 1, 57, 97
3, 220800, Note_on_c, 1, 54, 97
3, 220988, Note_off_c, 1, 57, 100
3, 220988, Note_off_c, 1, 54, 100
3, 221184, Note_on_c, 1, 54, 102
3, 221184, Note_on_c, 1, 51, 102
3, 221372, Note_off_c, 1, 54, 100
3, 221372, Note_off_c, 1, 51, 100
3, 221568, Note_on_c, 1, 63, 106
3, 221568, Note_on_c, 1, 59, 106
3, 221756, Note_off_c, 1, 63, 100
3, 221756, Note_off_c, 1, 59, 100
3, 221952, Note_on_c, 1, 64, 80
3, 221952, Note_on_c, 1, 61, 80
3, 222140, Note_off_c, 1, 64, 100
3, 222140, Note_off_c, 1, 61, 100
3, 222144, Note_on_c, 1, 64, 80
3, 222144, Note_on_c, 1, 61, 80
3, 222332, Note_off_c, 1, 64, 100
3, 222332, Note_off_c, 1, 61, 100
3, 222336, Note_on_c, 1, 57, 80
3, 222524, Note_off_c, 1, 57, 100
3, 222528, Note_on_c, 1, 59, 80
3, 222716, Note_off_c, 1, 59, 100
3, 222720, Note_on_c, 1, 52, 80
3, 223100, Note_off_c, 1, 52, 100
3, 223100, End_track
0, 0, End_of_file
