0, 0, Header, 1, 3, 384
1, 0, Start_track
1, 0, Title_t, "L.v.Beethoven 1mov - Piano Sonata No.28 in A Major Op.101\000"
1, 0, Copyright_t, "Copyright(C) 1995-2009, Suzuki Software\000"
1, 0, Sequencer_specific, 9, 67, 123, 0, 88, 70, 48, 50, 0, 1
1, 0, Text_t, "XFhd:2000/09/30:JP:Classical::::L.v.Beethoven:::Kaoru Suzuki\000"
1, 0, Text_t, "XFln:JP:\203s\203A\203m\203\\\203i\203^\221æ28\224Ô\203C\222·\222²\215ì\225i101\201`\221æ1\212y\217Í:L.v.\203x\201[\203g\201[\203\224\203F\203\223:::\227é\202¿\202á\202ñ:\227é\202¿\202á\202ñ\000"
1, 0, Time_signature, 6, 3, 96, 8
1, 0, Sequencer_specific, 3, 0, 0, 65
1, 0, Sequencer_specific, 5, 0, 0, 119, 14, 0
1, 0, Tempo, 666666
1, 1152, Tempo, 685714
1, 1344, Tempo, 705882
1, 1536, Tempo, 727272
1, 1728, Tempo, 1200000
1, 2112, Tempo, 750000
1, 2304, Tempo, 666666
1, 4608, Tempo, 705882
1, 5184, Tempo, 800000
1, 5760, Tempo, 923076
1, 6336, Tempo, 1333333
1, 6912, Tempo, 666666
1, 16128, Tempo, 705882
1, 16704, Tempo, 800000
1, 17856, Tempo, 600000
1, 26880, Tempo, 666666
1, 27072, Tempo, 705882
1, 27264, Tempo, 750000
1, 27456, Tempo, 666666
1, 27648, Tempo, 615384
1, 40320, Tempo, 631578
1, 40512, Tempo, 666666
1, 40704, Tempo, 750000
1, 41280, Tempo, 631578
1, 43776, Tempo, 666666
1, 43968, Tempo, 705882
1, 44160, Tempo, 750000
1, 44736, Tempo, 631578
1, 51840, Tempo, 600000
1, 57600, Tempo, 615384
1, 58176, Tempo, 631578
1, 58368, Tempo, 666666
1, 58560, Tempo, 750000
1, 58752, Tempo, 1200000
1, 59328, Tempo, 705882
1, 59904, Tempo, 600000
1, 63360, Tempo, 631578
1, 66816, Tempo, 666666
1, 76032, Tempo, 705882
1, 76608, Tempo, 750000
1, 76992, Tempo, 800000
1, 77760, Tempo, 705882
1, 78912, Tempo, 666666
1, 86784, Tempo, 705882
1, 86976, Tempo, 750000
1, 87168, Tempo, 1000000
1, 87360, Tempo, 750000
1, 87552, Tempo, 666666
1, 97152, Tempo, 727272
1, 97728, Tempo, 800000
1, 98304, Tempo, 857142
1, 100224, Tempo, 800000
1, 100416, Tempo, 750000
1, 100608, Tempo, 705882
1, 100800, Tempo, 666666
1, 108864, Tempo, 705882
1, 109056, Tempo, 750000
1, 112896, Tempo, 666666
1, 114048, Tempo, 750000
1, 115200, Tempo, 857142
1, 116352, Tempo, 1000000
1, 116736, Tempo, 1333333
1, 116736, End_track
2, 0, Start_track
2, 0, Title_t, "Right"
2, 0, Control_c, 0, 0, 0
2, 0, Program_c, 0, 0
2, 0, Control_c, 0, 7, 100
2, 0, Control_c, 0, 10, 78
2, 0, Control_c, 0, 91, 127
2, 0, Key_signature, 3, "major"
2, 0, Note_on_c, 0, 68, 80
2, 0, Note_on_c, 0, 64, 80
2, 188, Note_off_c, 0, 64, 100
2, 192, Note_on_c, 0, 59, 80
2, 380, Note_off_c, 0, 68, 100
2, 380, Note_off_c, 0, 59, 100
2, 384, Note_on_c, 0, 69, 80
2, 384, Note_on_c, 0, 66, 80
2, 572, Note_off_c, 0, 69, 100
2, 572, Note_off_c, 0, 66, 100
2, 576, Note_on_c, 0, 71, 80
2, 576, Note_on_c, 0, 68, 80
2, 764, Note_off_c, 0, 68, 100
2, 768, Note_on_c, 0, 64, 80
2, 956, Note_off_c, 0, 71, 100
2, 956, Note_off_c, 0, 64, 100
2, 960, Note_on_c, 0, 73, 80
2, 960, Note_on_c, 0, 69, 80
2, 1148, Note_off_c, 0, 73, 100
2, 1152, Note_on_c, 0, 76, 80
2, 1340, Note_off_c, 0, 69, 100
2, 1344, Note_on_c, 0, 66, 80
2, 1532, Note_off_c, 0, 76, 100
2, 1532, Note_off_c, 0, 66, 100
2, 1536, Note_on_c, 0, 71, 80
2, 1536, Note_on_c, 0, 74, 80
2, 1724, Note_off_c, 0, 71, 100
2, 1724, Note_off_c, 0, 74, 100
2, 1728, Note_on_c, 0, 71, 80
2, 2108, Note_off_c, 0, 71, 100
2, 2112, Note_on_c, 0, 69, 80
2, 2304, Note_on_c, 0, 81, 80
2, 2492, Note_off_c, 0, 69, 100
2, 2496, Note_on_c, 0, 69, 80
2, 2684, Note_off_c, 0, 81, 100
2, 2688, Note_on_c, 0, 80, 80
2, 2876, Note_off_c, 0, 80, 100
2, 2880, Note_on_c, 0, 78, 80
2, 3068, Note_off_c, 0, 69, 100
2, 3072, Note_on_c, 0, 69, 80
2, 3260, Note_off_c, 0, 78, 100
2, 3264, Note_on_c, 0, 76, 80
2, 3452, Note_off_c, 0, 76, 100
2, 3456, Note_on_c, 0, 78, 80
2, 3644, Note_off_c, 0, 69, 100
2, 3648, Note_on_c, 0, 69, 80
2, 3836, Note_off_c, 0, 78, 100
2, 3840, Note_on_c, 0, 76, 80
2, 4220, Note_off_c, 0, 69, 100
2, 4220, Note_off_c, 0, 76, 100
2, 4224, Note_on_c, 0, 73, 80
2, 4224, Note_on_c, 0, 64, 80
2, 4412, Note_off_c, 0, 73, 100
2, 4412, Note_off_c, 0, 64, 100
2, 4416, Note_on_c, 0, 71, 80
2, 4416, Note_on_c, 0, 64, 80
2, 4604, Note_off_c, 0, 71, 100
2, 4604, Note_off_c, 0, 64, 100
2, 4608, Note_on_c, 0, 68, 80
2, 4608, Note_on_c, 0, 64, 80
2, 4796, Note_off_c, 0, 64, 100
2, 4800, Note_on_c, 0, 59, 80
2, 4988, Note_off_c, 0, 68, 100
2, 4988, Note_off_c, 0, 59, 100
2, 4992, Note_on_c, 0, 66, 80
2, 4992, Note_on_c, 0, 69, 80
2, 5180, Note_off_c, 0, 66, 100
2, 5180, Note_off_c, 0, 69, 100
2, 5184, Note_on_c, 0, 71, 80
2, 5184, Note_on_c, 0, 68, 80
2, 5372, Note_off_c, 0, 68, 100
2, 5376, Note_on_c, 0, 64, 80
2, 5564, Note_off_c, 0, 71, 100
2, 5564, Note_off_c, 0, 64, 100
2, 5568, Note_on_c, 0, 73, 80
2, 5568, Note_on_c, 0, 69, 80
2, 5756, Note_off_c, 0, 73, 100
2, 5760, Note_on_c, 0, 76, 80
2, 5948, Note_off_c, 0, 69, 100
2, 5952, Note_on_c, 0, 68, 80
2, 6140, Note_off_c, 0, 76, 100
2, 6140, Note_off_c, 0, 68, 100
2, 6144, Note_on_c, 0, 68, 80
2, 6144, Note_on_c, 0, 71, 80
2, 6144, Note_on_c, 0, 74, 80
2, 6332, Note_off_c, 0, 68, 100
2, 6332, Note_off_c, 0, 71, 100
2, 6332, Note_off_c, 0, 74, 100
2, 6336, Note_on_c, 0, 73, 80
2, 6336, Note_on_c, 0, 69, 80
2, 6908, Note_off_c, 0, 73, 100
2, 6908, Note_off_c, 0, 69, 100
2, 6912, Note_on_c, 0, 69, 80
2, 6912, Note_on_c, 0, 73, 80
2, 7100, Note_off_c, 0, 69, 100
2, 7104, Note_on_c, 0, 63, 81
2, 7292, Note_off_c, 0, 73, 100
2, 7292, Note_off_c, 0, 63, 100
2, 7296, Note_on_c, 0, 75, 83
2, 7296, Note_on_c, 0, 71, 83
2, 7296, Note_on_c, 0, 69, 83
2, 7484, Note_off_c, 0, 75, 100
2, 7484, Note_off_c, 0, 71, 100
2, 7484, Note_off_c, 0, 69, 100
2, 7488, Note_on_c, 0, 76, 85
2, 7488, Note_on_c, 0, 71, 85
2, 7680, Note_on_c, 0, 64, 87
2, 7868, Note_off_c, 0, 76, 100
2, 7868, Note_off_c, 0, 71, 100
2, 7868, Note_off_c, 0, 64, 100
2, 7872, Note_on_c, 0, 66, 89
2, 7872, Note_on_c, 0, 71, 89
2, 7872, Note_on_c, 0, 78, 89
2, 8060, Note_off_c, 0, 66, 100
2, 8060, Note_off_c, 0, 71, 100
2, 8060, Note_off_c, 0, 78, 100
2, 8064, Note_on_c, 0, 80, 90
2, 8064, Note_on_c, 0, 71, 90
2, 8256, Note_on_c, 0, 68, 92
2, 8444, Note_off_c, 0, 80, 100
2, 8444, Note_off_c, 0, 71, 100
2, 8444, Note_off_c, 0, 68, 100
2, 8448, Note_on_c, 0, 69, 94
2, 8448, Note_on_c, 0, 76, 94
2, 8448, Note_on_c, 0, 81, 94
2, 8636, Note_off_c, 0, 69, 100
2, 8636, Note_off_c, 0, 76, 100
2, 8636, Note_off_c, 0, 81, 100
2, 8640, Note_on_c, 0, 76, 96
2, 8640, Note_on_c, 0, 83, 96
2, 8832, Note_on_c, 0, 71, 98
2, 9020, Note_off_c, 0, 76, 100
2, 9020, Note_off_c, 0, 83, 100
2, 9020, Note_off_c, 0, 71, 100
2, 9024, Note_on_c, 0, 75, 99
2, 9024, Note_on_c, 0, 78, 99
2, 9024, Note_on_c, 0, 84, 99
2, 9212, Note_off_c, 0, 75, 100
2, 9212, Note_off_c, 0, 78, 100
2, 9212, Note_off_c, 0, 84, 100
2, 9216, Note_on_c, 0, 78, 100
2, 9216, Note_on_c, 0, 75, 100
2, 9216, Note_on_c, 0, 84, 100
2, 9788, Note_off_c, 0, 78, 100
2, 9788, Note_off_c, 0, 75, 100
2, 9792, Note_on_c, 0, 76, 100
2, 9792, Note_on_c, 0, 73, 100
2, 9980, Note_off_c, 0, 84, 100
2, 9984, Note_on_c, 0, 87, 100
2, 10172, Note_off_c, 0, 87, 100
2, 10176, Note_on_c, 0, 85, 100
2, 10364, Note_off_c, 0, 76, 100
2, 10364, Note_off_c, 0, 73, 100
2, 10364, Note_off_c, 0, 85, 100
2, 10368, Note_on_c, 0, 78, 100
2, 10368, Note_on_c, 0, 76, 100
2, 10368, Note_on_c, 0, 73, 100
2, 10940, Note_off_c, 0, 76, 100
2, 10940, Note_off_c, 0, 73, 100
2, 10944, Note_on_c, 0, 75, 100
2, 10944, Note_on_c, 0, 69, 100
2, 11132, Note_off_c, 0, 78, 100
2, 11136, Note_on_c, 0, 80, 100
2, 11324, Note_off_c, 0, 80, 100
2, 11328, Note_on_c, 0, 81, 100
2, 11516, Note_off_c, 0, 75, 100
2, 11516, Note_off_c, 0, 69, 100
2, 11516, Note_off_c, 0, 81, 100
2, 11520, Note_on_c, 0, 69, 100
2, 11520, Note_on_c, 0, 64, 100
2, 11520, Note_on_c, 0, 76, 100
2, 11900, Note_off_c, 0, 76, 100
2, 11904, Note_on_c, 0, 75, 97
2, 12092, Note_off_c, 0, 69, 100
2, 12092, Note_off_c, 0, 64, 100
2, 12092, Note_off_c, 0, 75, 100
2, 12096, Note_on_c, 0, 73, 95
2, 12096, Note_on_c, 0, 69, 95
2, 12096, Note_on_c, 0, 66, 95
2, 12476, Note_off_c, 0, 73, 100
2, 12476, Note_off_c, 0, 69, 100
2, 12476, Note_off_c, 0, 66, 100
2, 12480, Note_on_c, 0, 71, 91
2, 12480, Note_on_c, 0, 69, 91
2, 12480, Note_on_c, 0, 63, 91
2, 12668, Note_off_c, 0, 71, 100
2, 12668, Note_off_c, 0, 69, 100
2, 12668, Note_off_c, 0, 63, 100
2, 12672, Note_on_c, 0, 71, 90
2, 12672, Note_on_c, 0, 69, 90
2, 12672, Note_on_c, 0, 63, 90
2, 13244, Note_off_c, 0, 71, 100
2, 13248, Note_on_c, 0, 75, 84
2, 13436, Note_off_c, 0, 69, 100
2, 13436, Note_off_c, 0, 63, 100
2, 13436, Note_off_c, 0, 75, 100
2, 13440, Note_on_c, 0, 78, 82
2, 13440, Note_on_c, 0, 69, 82
2, 13440, Note_on_c, 0, 66, 82
2, 13628, Note_off_c, 0, 78, 100
2, 13628, Note_off_c, 0, 69, 100
2, 13628, Note_off_c, 0, 66, 100
2, 13632, Note_on_c, 0, 76, 81
2, 13632, Note_on_c, 0, 68, 81
2, 13632, Note_on_c, 0, 64, 81
2, 13820, Note_off_c, 0, 76, 100
2, 13820, Note_off_c, 0, 68, 100
2, 13820, Note_off_c, 0, 64, 100
2, 13824, Note_on_c, 0, 71, 80
2, 13824, Note_on_c, 0, 69, 80
2, 14016, Note_on_c, 0, 73, 80
2, 14108, Note_off_c, 0, 73, 100
2, 14112, Note_on_c, 0, 71, 80
2, 14204, Note_off_c, 0, 71, 100
2, 14208, Note_on_c, 0, 70, 80
2, 14300, Note_off_c, 0, 70, 100
2, 14304, Note_on_c, 0, 71, 80
2, 14396, Note_off_c, 0, 69, 100
2, 14396, Note_off_c, 0, 71, 100
2, 14396, Note_off_c, 0, 71, 100
2, 14400, Note_on_c, 0, 83, 80
2, 14588, Note_off_c, 0, 83, 100
2, 14592, Note_on_c, 0, 81, 80
2, 14592, Note_on_c, 0, 71, 80
2, 14780, Note_off_c, 0, 81, 100
2, 14780, Note_off_c, 0, 71, 100
2, 14784, Note_on_c, 0, 80, 80
2, 14784, Note_on_c, 0, 71, 80
2, 14972, Note_off_c, 0, 80, 100
2, 14972, Note_off_c, 0, 71, 100
2, 14976, Note_on_c, 0, 73, 80
2, 14976, Note_on_c, 0, 80, 80
2, 15164, Note_off_c, 0, 80, 100
2, 15168, Note_on_c, 0, 78, 80
2, 15356, Note_off_c, 0, 73, 100
2, 15356, Note_off_c, 0, 78, 100
2, 15360, Note_on_c, 0, 76, 80
2, 15360, Note_on_c, 0, 73, 80
2, 15548, Note_off_c, 0, 76, 100
2, 15548, Note_off_c, 0, 73, 100
2, 15552, Note_on_c, 0, 71, 80
2, 15552, Note_on_c, 0, 76, 80
2, 15740, Note_off_c, 0, 76, 100
2, 15744, Note_on_c, 0, 75, 80
2, 15932, Note_off_c, 0, 71, 100
2, 15932, Note_off_c, 0, 75, 100
2, 15936, Note_on_c, 0, 76, 80
2, 15936, Note_on_c, 0, 70, 80
2, 15936, Note_on_c, 0, 66, 80
2, 16124, Note_off_c, 0, 76, 100
2, 16124, Note_off_c, 0, 70, 100
2, 16124, Note_off_c, 0, 66, 100
2, 16128, Note_on_c, 0, 71, 80
2, 16128, Note_on_c, 0, 69, 80
2, 16128, Note_on_c, 0, 66, 80
2, 16508, Note_off_c, 0, 71, 100
2, 16508, Note_off_c, 0, 69, 100
2, 16508, Note_off_c, 0, 66, 100
2, 16512, Note_on_c, 0, 71, 80
2, 16512, Note_on_c, 0, 68, 80
2, 16700, Note_off_c, 0, 71, 100
2, 16700, Note_off_c, 0, 68, 100
2, 16704, Note_on_c, 0, 71, 80
2, 16704, Note_on_c, 0, 66, 80
2, 16704, Note_on_c, 0, 63, 80
2, 17084, Note_off_c, 0, 71, 100
2, 17084, Note_off_c, 0, 66, 100
2, 17084, Note_off_c, 0, 63, 100
2, 17088, Note_on_c, 0, 69, 80
2, 17088, Note_on_c, 0, 66, 80
2, 17088, Note_on_c, 0, 63, 80
2, 17276, Note_off_c, 0, 69, 100
2, 17276, Note_off_c, 0, 66, 100
2, 17276, Note_off_c, 0, 63, 100
2, 17280, Note_on_c, 0, 68, 80
2, 17280, Note_on_c, 0, 64, 80
2, 17852, Note_off_c, 0, 68, 100
2, 17852, Note_off_c, 0, 64, 100
2, 19008, Note_on_c, 0, 78, 80
2, 19196, Note_off_c, 0, 78, 100
2, 19200, Note_on_c, 0, 76, 80
2, 19388, Note_off_c, 0, 76, 100
2, 19392, Note_on_c, 0, 75, 80
2, 19580, Note_off_c, 0, 75, 100
2, 19584, Note_on_c, 0, 83, 80
2, 19584, Note_on_c, 0, 74, 80
2, 20156, Note_off_c, 0, 83, 100
2, 20156, Note_off_c, 0, 74, 100
2, 20160, Note_on_c, 0, 85, 80
2, 20160, Note_on_c, 0, 81, 80
2, 20732, Note_off_c, 0, 85, 100
2, 20732, Note_off_c, 0, 81, 100
2, 20736, Note_on_c, 0, 80, 80
2, 20736, Note_on_c, 0, 76, 80
2, 20736, Note_on_c, 0, 68, 80
2, 21500, Note_off_c, 0, 80, 100
2, 21500, Note_off_c, 0, 76, 100
2, 21500, Note_off_c, 0, 68, 100
2, 21504, Note_on_c, 0, 67, 93
2, 21692, Note_off_c, 0, 67, 100
2, 21696, Note_on_c, 0, 68, 96
2, 21884, Note_off_c, 0, 68, 100
2, 21888, Note_on_c, 0, 71, 99
2, 22076, Note_off_c, 0, 71, 100
2, 22272, Note_on_c, 0, 64, 80
2, 22272, Note_on_c, 0, 59, 80
2, 22272, Note_on_c, 0, 56, 80
2, 22460, Note_off_c, 0, 64, 100
2, 22460, Note_off_c, 0, 59, 100
2, 22460, Note_off_c, 0, 56, 100
2, 22464, Note_on_c, 0, 68, 80
2, 22464, Note_on_c, 0, 64, 80
2, 22464, Note_on_c, 0, 59, 80
2, 22844, Note_off_c, 0, 68, 100
2, 22844, Note_off_c, 0, 64, 100
2, 22844, Note_off_c, 0, 59, 100
2, 22848, Note_on_c, 0, 66, 80
2, 22848, Note_on_c, 0, 63, 80
2, 22848, Note_on_c, 0, 59, 80
2, 23036, Note_off_c, 0, 66, 100
2, 23036, Note_off_c, 0, 63, 100
2, 23036, Note_off_c, 0, 59, 100
2, 23040, Note_on_c, 0, 71, 80
2, 23040, Note_on_c, 0, 64, 80
2, 23040, Note_on_c, 0, 59, 80
2, 23612, Note_off_c, 0, 64, 100
2, 23612, Note_off_c, 0, 59, 100
2, 23804, Note_off_c, 0, 71, 100
2, 23808, Note_on_c, 0, 70, 93
2, 23996, Note_off_c, 0, 70, 100
2, 24000, Note_on_c, 0, 71, 96
2, 24188, Note_off_c, 0, 71, 100
2, 24192, Note_on_c, 0, 80, 99
2, 24380, Note_off_c, 0, 80, 100
2, 24576, Note_on_c, 0, 64, 80
2, 24576, Note_on_c, 0, 59, 80
2, 24576, Note_on_c, 0, 56, 80
2, 24764, Note_off_c, 0, 64, 100
2, 24764, Note_off_c, 0, 59, 100
2, 24764, Note_off_c, 0, 56, 100
2, 24768, Note_on_c, 0, 68, 80
2, 24768, Note_on_c, 0, 64, 80
2, 24768, Note_on_c, 0, 59, 80
2, 25148, Note_off_c, 0, 68, 100
2, 25148, Note_off_c, 0, 64, 100
2, 25148, Note_off_c, 0, 59, 100
2, 25152, Note_on_c, 0, 66, 80
2, 25152, Note_on_c, 0, 63, 80
2, 25152, Note_on_c, 0, 59, 80
2, 25340, Note_off_c, 0, 66, 100
2, 25340, Note_off_c, 0, 63, 100
2, 25340, Note_off_c, 0, 59, 100
2, 25344, Note_on_c, 0, 71, 80
2, 25344, Note_on_c, 0, 64, 80
2, 25344, Note_on_c, 0, 59, 80
2, 25916, Note_off_c, 0, 71, 100
2, 25916, Note_off_c, 0, 64, 100
2, 25916, Note_off_c, 0, 59, 100
2, 26112, Note_on_c, 0, 70, 91
2, 26300, Note_off_c, 0, 70, 100
2, 26304, Note_on_c, 0, 71, 94
2, 26492, Note_off_c, 0, 71, 100
2, 26496, Note_on_c, 0, 76, 97
2, 26684, Note_off_c, 0, 76, 100
2, 26688, Note_on_c, 0, 80, 100
2, 26876, Note_off_c, 0, 80, 100
2, 26880, Note_on_c, 0, 83, 103
2, 26972, Note_off_c, 0, 83, 100
2, 26976, Note_on_c, 0, 88, 105
2, 27068, Note_off_c, 0, 88, 100
2, 27072, Note_on_c, 0, 92, 120
2, 27260, Note_off_c, 0, 92, 100
2, 27264, Note_on_c, 0, 95, 110
2, 27452, Note_off_c, 0, 95, 100
2, 27456, Note_on_c, 0, 75, 80
2, 27456, Note_on_c, 0, 69, 80
2, 27456, Note_on_c, 0, 66, 80
2, 27644, Note_off_c, 0, 75, 100
2, 27644, Note_off_c, 0, 69, 100
2, 27644, Note_off_c, 0, 66, 100
2, 27648, Note_on_c, 0, 76, 80
2, 27648, Note_on_c, 0, 68, 80
2, 27648, Note_on_c, 0, 64, 80
2, 28028, Note_off_c, 0, 76, 100
2, 28028, Note_off_c, 0, 68, 100
2, 28028, Note_off_c, 0, 64, 100
2, 28608, Note_on_c, 0, 71, 80
2, 28608, Note_on_c, 0, 68, 80
2, 28608, Note_on_c, 0, 64, 80
2, 28796, Note_off_c, 0, 71, 100
2, 28796, Note_off_c, 0, 68, 100
2, 28796, Note_off_c, 0, 64, 100
2, 28800, Note_on_c, 0, 71, 80
2, 28800, Note_on_c, 0, 64, 80
2, 29180, Note_off_c, 0, 71, 100
2, 29180, Note_off_c, 0, 64, 100
2, 29760, Note_on_c, 0, 75, 80
2, 29760, Note_on_c, 0, 69, 80
2, 29760, Note_on_c, 0, 63, 80
2, 29948, Note_off_c, 0, 75, 100
2, 29948, Note_off_c, 0, 69, 100
2, 29948, Note_off_c, 0, 63, 100
2, 29952, Note_on_c, 0, 76, 80
2, 29952, Note_on_c, 0, 68, 80
2, 29952, Note_on_c, 0, 64, 80
2, 30332, Note_off_c, 0, 76, 100
2, 30332, Note_off_c, 0, 68, 100
2, 30332, Note_off_c, 0, 64, 100
2, 30912, Note_on_c, 0, 83, 80
2, 30912, Note_on_c, 0, 71, 80
2, 31100, Note_off_c, 0, 83, 100
2, 31100, Note_off_c, 0, 71, 100
2, 31104, Note_on_c, 0, 83, 80
2, 31104, Note_on_c, 0, 71, 80
2, 31484, Note_off_c, 0, 83, 100
2, 31484, Note_off_c, 0, 71, 100
2, 32064, Note_on_c, 0, 87, 80
2, 32064, Note_on_c, 0, 81, 80
2, 32064, Note_on_c, 0, 75, 80
2, 32252, Note_off_c, 0, 87, 100
2, 32252, Note_off_c, 0, 81, 100
2, 32252, Note_off_c, 0, 75, 100
2, 32256, Note_on_c, 0, 88, 80
2, 32256, Note_on_c, 0, 80, 80
2, 32256, Note_on_c, 0, 76, 80
2, 32636, Note_off_c, 0, 88, 100
2, 32636, Note_off_c, 0, 80, 100
2, 32636, Note_off_c, 0, 76, 100
2, 32640, Note_on_c, 0, 90, 80
2, 32640, Note_on_c, 0, 81, 80
2, 32640, Note_on_c, 0, 78, 80
2, 33212, Note_off_c, 0, 90, 100
2, 33212, Note_off_c, 0, 81, 100
2, 33212, Note_off_c, 0, 78, 100
2, 33216, Note_on_c, 0, 88, 80
2, 33216, Note_on_c, 0, 80, 80
2, 33216, Note_on_c, 0, 76, 80
2, 33788, Note_off_c, 0, 76, 100
2, 33788, Note_off_c, 0, 80, 100
2, 33788, Note_off_c, 0, 88, 100
2, 33792, Note_on_c, 0, 90, 80
2, 33792, Note_on_c, 0, 81, 80
2, 33792, Note_on_c, 0, 78, 80
2, 34364, Note_off_c, 0, 90, 100
2, 34364, Note_off_c, 0, 81, 100
2, 34364, Note_off_c, 0, 78, 100
2, 34368, Note_on_c, 0, 88, 80
2, 34368, Note_on_c, 0, 80, 80
2, 34368, Note_on_c, 0, 76, 80
2, 34940, Note_off_c, 0, 76, 100
2, 34940, Note_off_c, 0, 80, 100
2, 34940, Note_off_c, 0, 88, 100
2, 34944, Note_on_c, 0, 93, 80
2, 34944, Note_on_c, 0, 90, 80
2, 34944, Note_on_c, 0, 81, 80
2, 35516, Note_off_c, 0, 93, 100
2, 35516, Note_off_c, 0, 90, 100
2, 35516, Note_off_c, 0, 81, 100
2, 35520, Note_on_c, 0, 92, 80
2, 35520, Note_on_c, 0, 88, 80
2, 35520, Note_on_c, 0, 80, 80
2, 36092, Note_off_c, 0, 80, 100
2, 36092, Note_off_c, 0, 88, 100
2, 36092, Note_off_c, 0, 92, 100
2, 36096, Note_on_c, 0, 90, 80
2, 36096, Note_on_c, 0, 87, 80
2, 36096, Note_on_c, 0, 81, 80
2, 36096, Note_on_c, 0, 78, 80
2, 36668, Note_off_c, 0, 90, 100
2, 36668, Note_off_c, 0, 87, 100
2, 36668, Note_off_c, 0, 81, 100
2, 36668, Note_off_c, 0, 78, 100
2, 36672, Note_on_c, 0, 88, 80
2, 36672, Note_on_c, 0, 80, 80
2, 36672, Note_on_c, 0, 76, 80
2, 37244, Note_off_c, 0, 76, 100
2, 37244, Note_off_c, 0, 80, 100
2, 37244, Note_off_c, 0, 88, 100
2, 37248, Note_on_c, 0, 71, 80
2, 37248, Note_on_c, 0, 68, 80
2, 37820, Note_off_c, 0, 71, 100
2, 37820, Note_off_c, 0, 68, 100
2, 37824, Note_on_c, 0, 71, 80
2, 37824, Note_on_c, 0, 68, 80
2, 38396, Note_off_c, 0, 68, 100
2, 38396, Note_off_c, 0, 71, 100
2, 38400, Note_on_c, 0, 71, 70
2, 38400, Note_on_c, 0, 68, 70
2, 38972, Note_off_c, 0, 71, 100
2, 38972, Note_off_c, 0, 68, 100
2, 38976, Note_on_c, 0, 71, 70
2, 38976, Note_on_c, 0, 68, 70
2, 39164, Note_off_c, 0, 71, 100
2, 39164, Note_off_c, 0, 68, 100
2, 39168, Note_on_c, 0, 71, 70
2, 39168, Note_on_c, 0, 68, 70
2, 41276, Note_off_c, 0, 68, 100
2, 41276, Note_off_c, 0, 71, 100
2, 41280, Note_on_c, 0, 73, 70
2, 41280, Note_on_c, 0, 71, 70
2, 41280, Note_on_c, 0, 68, 70
2, 41852, Note_off_c, 0, 68, 100
2, 41852, Note_off_c, 0, 71, 100
2, 41852, Note_off_c, 0, 73, 100
2, 41856, Note_on_c, 0, 73, 70
2, 41856, Note_on_c, 0, 71, 70
2, 41856, Note_on_c, 0, 68, 70
2, 42428, Note_off_c, 0, 73, 100
2, 42428, Note_off_c, 0, 71, 100
2, 42428, Note_off_c, 0, 68, 100
2, 42432, Note_on_c, 0, 73, 70
2, 42432, Note_on_c, 0, 71, 70
2, 42432, Note_on_c, 0, 68, 70
2, 42620, Note_off_c, 0, 73, 100
2, 42620, Note_off_c, 0, 71, 100
2, 42620, Note_off_c, 0, 68, 100
2, 42624, Note_on_c, 0, 73, 70
2, 42624, Note_on_c, 0, 71, 70
2, 42624, Note_on_c, 0, 68, 70
2, 44732, Note_off_c, 0, 68, 100
2, 44732, Note_off_c, 0, 71, 100
2, 44732, Note_off_c, 0, 73, 100
2, 44736, Note_on_c, 0, 73, 70
2, 44736, Note_on_c, 0, 71, 70
2, 44736, Note_on_c, 0, 68, 70
2, 45308, Note_off_c, 0, 68, 100
2, 45308, Note_off_c, 0, 71, 100
2, 45308, Note_off_c, 0, 73, 100
2, 45312, Note_on_c, 0, 73, 70
2, 45312, Note_on_c, 0, 71, 70
2, 45312, Note_on_c, 0, 68, 70
2, 45884, Note_off_c, 0, 73, 100
2, 45884, Note_off_c, 0, 71, 100
2, 45884, Note_off_c, 0, 68, 100
2, 45888, Note_on_c, 0, 73, 80
2, 45888, Note_on_c, 0, 69, 80
2, 46076, Note_off_c, 0, 73, 100
2, 46076, Note_off_c, 0, 69, 100
2, 46080, Note_on_c, 0, 73, 82
2, 46080, Note_on_c, 0, 69, 82
2, 46080, Note_on_c, 0, 78, 82
2, 46268, Note_off_c, 0, 73, 100
2, 46268, Note_off_c, 0, 69, 100
2, 46272, Note_on_c, 0, 73, 85
2, 46460, Note_off_c, 0, 78, 100
2, 46464, Note_on_c, 0, 80, 88
2, 46464, Note_on_c, 0, 77, 88
2, 46652, Note_off_c, 0, 80, 100
2, 46652, Note_off_c, 0, 77, 100
2, 46656, Note_on_c, 0, 81, 90
2, 46656, Note_on_c, 0, 78, 90
2, 46844, Note_off_c, 0, 73, 100
2, 46848, Note_on_c, 0, 73, 93
2, 47036, Note_off_c, 0, 81, 100
2, 47036, Note_off_c, 0, 78, 100
2, 47040, Note_on_c, 0, 83, 96
2, 47040, Note_on_c, 0, 80, 96
2, 47228, Note_off_c, 0, 83, 100
2, 47228, Note_off_c, 0, 80, 100
2, 47232, Note_on_c, 0, 86, 99
2, 47232, Note_on_c, 0, 81, 99
2, 47420, Note_off_c, 0, 73, 100
2, 47424, Note_on_c, 0, 73, 101
2, 47612, Note_off_c, 0, 86, 100
2, 47612, Note_off_c, 0, 81, 100
2, 47616, Note_on_c, 0, 85, 104
2, 47616, Note_on_c, 0, 81, 104
2, 47804, Note_off_c, 0, 85, 100
2, 47804, Note_off_c, 0, 81, 100
2, 47808, Note_on_c, 0, 81, 107
2, 47996, Note_off_c, 0, 73, 100
2, 48000, Note_on_c, 0, 73, 109
2, 48188, Note_off_c, 0, 81, 100
2, 48192, Note_on_c, 0, 81, 80
2, 48380, Note_off_c, 0, 81, 100
2, 48384, Note_on_c, 0, 86, 80
2, 48572, Note_off_c, 0, 73, 100
2, 48576, Note_on_c, 0, 73, 80
2, 48764, Note_off_c, 0, 86, 100
2, 48768, Note_on_c, 0, 85, 80
2, 48956, Note_off_c, 0, 85, 100
2, 48960, Note_on_c, 0, 81, 80
2, 49148, Note_off_c, 0, 73, 100
2, 49152, Note_on_c, 0, 73, 80
2, 49340, Note_off_c, 0, 81, 100
2, 49344, Note_on_c, 0, 81, 110
2, 49344, Note_on_c, 0, 79, 110
2, 49532, Note_off_c, 0, 81, 100
2, 49532, Note_off_c, 0, 79, 100
2, 49536, Note_on_c, 0, 86, 110
2, 49724, Note_off_c, 0, 73, 100
2, 49728, Note_on_c, 0, 73, 110
2, 49916, Note_off_c, 0, 86, 100
2, 49920, Note_on_c, 0, 79, 110
2, 49920, Note_on_c, 0, 85, 110
2, 50108, Note_off_c, 0, 85, 100
2, 50112, Note_on_c, 0, 81, 110
2, 50300, Note_off_c, 0, 73, 100
2, 50304, Note_on_c, 0, 73, 110
2, 50492, Note_off_c, 0, 79, 100
2, 50492, Note_off_c, 0, 81, 100
2, 50496, Note_on_c, 0, 81, 80
2, 50496, Note_on_c, 0, 79, 80
2, 50688, Note_on_c, 0, 86, 80
2, 50876, Note_off_c, 0, 73, 100
2, 50880, Note_on_c, 0, 73, 80
2, 51068, Note_off_c, 0, 79, 100
2, 51068, Note_off_c, 0, 81, 100
2, 51068, Note_off_c, 0, 86, 100
2, 51072, Note_on_c, 0, 79, 80
2, 51072, Note_on_c, 0, 85, 80
2, 51260, Note_off_c, 0, 85, 100
2, 51264, Note_on_c, 0, 81, 80
2, 51452, Note_off_c, 0, 73, 100
2, 51456, Note_on_c, 0, 73, 80
2, 51644, Note_off_c, 0, 79, 100
2, 51644, Note_off_c, 0, 81, 100
2, 51644, Note_off_c, 0, 73, 100
2, 51648, Note_on_c, 0, 81, 81
2, 51648, Note_on_c, 0, 78, 81
2, 51836, Note_off_c, 0, 81, 100
2, 51840, Note_on_c, 0, 88, 83
2, 52028, Note_off_c, 0, 78, 100
2, 52032, Note_on_c, 0, 78, 84
2, 52220, Note_off_c, 0, 88, 100
2, 52224, Note_on_c, 0, 86, 86
2, 52412, Note_off_c, 0, 86, 100
2, 52416, Note_on_c, 0, 81, 87
2, 52604, Note_off_c, 0, 78, 100
2, 52608, Note_on_c, 0, 78, 89
2, 52796, Note_off_c, 0, 81, 100
2, 52800, Note_on_c, 0, 85, 91
2, 52988, Note_off_c, 0, 85, 100
2, 52992, Note_on_c, 0, 91, 92
2, 53180, Note_off_c, 0, 78, 100
2, 53184, Note_on_c, 0, 78, 94
2, 53372, Note_off_c, 0, 91, 100
2, 53376, Note_on_c, 0, 90, 95
2, 53564, Note_off_c, 0, 90, 100
2, 53568, Note_on_c, 0, 85, 97
2, 53756, Note_off_c, 0, 78, 100
2, 53760, Note_on_c, 0, 78, 98
2, 53948, Note_off_c, 0, 85, 100
2, 53952, Note_on_c, 0, 86, 100
2, 54140, Note_off_c, 0, 86, 100
2, 54144, Note_on_c, 0, 91, 102
2, 54332, Note_off_c, 0, 78, 100
2, 54336, Note_on_c, 0, 78, 103
2, 54524, Note_off_c, 0, 91, 100
2, 54528, Note_on_c, 0, 90, 105
2, 54716, Note_off_c, 0, 90, 100
2, 54720, Note_on_c, 0, 84, 106
2, 54908, Note_off_c, 0, 78, 100
2, 54912, Note_on_c, 0, 78, 108
2, 55100, Note_off_c, 0, 84, 100
2, 55104, Note_on_c, 0, 85, 109
2, 55292, Note_off_c, 0, 78, 100
2, 55292, Note_off_c, 0, 85, 100
2, 55296, Note_on_c, 0, 77, 110
2, 55296, Note_on_c, 0, 73, 110
2, 55484, Note_off_c, 0, 73, 100
2, 55488, Note_on_c, 0, 72, 110
2, 55676, Note_off_c, 0, 77, 100
2, 55676, Note_off_c, 0, 72, 100
2, 55680, Note_on_c, 0, 73, 110
2, 55680, Note_on_c, 0, 78, 110
2, 55868, Note_off_c, 0, 73, 100
2, 55868, Note_off_c, 0, 78, 100
2, 55872, Note_on_c, 0, 73, 110
2, 55872, Note_on_c, 0, 66, 110
2, 56060, Note_off_c, 0, 66, 100
2, 56064, Note_on_c, 0, 65, 110
2, 56252, Note_off_c, 0, 73, 100
2, 56252, Note_off_c, 0, 65, 100
2, 56256, Note_on_c, 0, 66, 110
2, 56256, Note_on_c, 0, 72, 110
2, 56444, Note_off_c, 0, 66, 100
2, 56444, Note_off_c, 0, 72, 100
2, 56448, Note_on_c, 0, 84, 110
2, 56448, Note_on_c, 0, 78, 110
2, 56448, Note_on_c, 0, 72, 110
2, 56828, Note_off_c, 0, 84, 100
2, 56828, Note_off_c, 0, 78, 100
2, 56828, Note_off_c, 0, 72, 100
2, 56832, Note_on_c, 0, 81, 110
2, 56832, Note_on_c, 0, 78, 110
2, 56832, Note_on_c, 0, 75, 110
2, 56832, Note_on_c, 0, 69, 110
2, 57020, Note_off_c, 0, 81, 100
2, 57020, Note_off_c, 0, 78, 100
2, 57020, Note_off_c, 0, 75, 100
2, 57020, Note_off_c, 0, 69, 100
2, 57024, Note_on_c, 0, 80, 110
2, 57024, Note_on_c, 0, 76, 110
2, 57024, Note_on_c, 0, 68, 110
2, 57404, Note_off_c, 0, 80, 100
2, 57404, Note_off_c, 0, 76, 100
2, 57404, Note_off_c, 0, 68, 100
2, 57408, Note_on_c, 0, 78, 110
2, 57408, Note_on_c, 0, 75, 110
2, 57408, Note_on_c, 0, 69, 110
2, 57408, Note_on_c, 0, 66, 110
2, 57596, Note_off_c, 0, 78, 100
2, 57596, Note_off_c, 0, 75, 100
2, 57596, Note_off_c, 0, 69, 100
2, 57596, Note_off_c, 0, 66, 100
2, 57600, Note_on_c, 0, 76, 110
2, 57600, Note_on_c, 0, 68, 110
2, 57600, Note_on_c, 0, 64, 110
2, 57980, Note_off_c, 0, 76, 100
2, 57980, Note_off_c, 0, 68, 100
2, 57980, Note_off_c, 0, 64, 100
2, 57984, Note_on_c, 0, 75, 110
2, 57984, Note_on_c, 0, 69, 110
2, 57984, Note_on_c, 0, 63, 110
2, 58172, Note_off_c, 0, 75, 100
2, 58172, Note_off_c, 0, 69, 100
2, 58172, Note_off_c, 0, 63, 100
2, 58176, Note_on_c, 0, 73, 110
2, 58176, Note_on_c, 0, 64, 110
2, 58176, Note_on_c, 0, 61, 110
2, 58556, Note_off_c, 0, 73, 100
2, 58556, Note_off_c, 0, 64, 100
2, 58556, Note_off_c, 0, 61, 100
2, 58560, Note_on_c, 0, 72, 90
2, 58560, Note_on_c, 0, 63, 90
2, 58560, Note_on_c, 0, 60, 90
2, 58748, Note_off_c, 0, 72, 100
2, 58748, Note_off_c, 0, 63, 100
2, 58748, Note_off_c, 0, 60, 100
2, 58752, Note_on_c, 0, 75, 80
2, 58752, Note_on_c, 0, 68, 80
2, 58752, Note_on_c, 0, 66, 80
2, 58752, Note_on_c, 0, 63, 80
2, 59324, Note_off_c, 0, 75, 100
2, 59324, Note_off_c, 0, 68, 100
2, 59324, Note_off_c, 0, 66, 100
2, 59324, Note_off_c, 0, 63, 100
2, 59328, Note_on_c, 0, 75, 80
2, 59328, Note_on_c, 0, 68, 80
2, 59708, Note_off_c, 0, 75, 100
2, 59708, Note_off_c, 0, 68, 100
2, 59712, Note_on_c, 0, 76, 80
2, 59712, Note_on_c, 0, 68, 80
2, 59900, Note_off_c, 0, 76, 100
2, 59900, Note_off_c, 0, 68, 100
2, 59904, Note_on_c, 0, 76, 80
2, 59904, Note_on_c, 0, 64, 80
2, 59904, Note_on_c, 0, 68, 80
2, 60284, Note_off_c, 0, 68, 100
2, 60288, Note_on_c, 0, 69, 80
2, 60476, Note_off_c, 0, 76, 100
2, 60476, Note_off_c, 0, 64, 100
2, 60476, Note_off_c, 0, 69, 100
2, 60480, Note_on_c, 0, 76, 80
2, 60860, Note_off_c, 0, 76, 100
2, 60864, Note_on_c, 0, 78, 80
2, 60864, Note_on_c, 0, 71, 80
2, 60864, Note_on_c, 0, 69, 80
2, 61052, Note_off_c, 0, 78, 100
2, 61052, Note_off_c, 0, 71, 100
2, 61052, Note_off_c, 0, 69, 100
2, 61056, Note_on_c, 0, 78, 80
2, 61056, Note_on_c, 0, 66, 80
2, 61056, Note_on_c, 0, 70, 80
2, 61436, Note_off_c, 0, 70, 100
2, 61440, Note_on_c, 0, 71, 80
2, 61628, Note_off_c, 0, 78, 100
2, 61628, Note_off_c, 0, 66, 100
2, 61628, Note_off_c, 0, 71, 100
2, 61632, Note_on_c, 0, 78, 80
2, 61632, Note_on_c, 0, 71, 80
2, 61632, Note_on_c, 0, 69, 80
2, 62012, Note_off_c, 0, 78, 100
2, 62012, Note_off_c, 0, 71, 100
2, 62012, Note_off_c, 0, 69, 100
2, 62016, Note_on_c, 0, 80, 80
2, 62016, Note_on_c, 0, 71, 80
2, 62016, Note_on_c, 0, 68, 80
2, 62204, Note_off_c, 0, 80, 100
2, 62204, Note_off_c, 0, 71, 100
2, 62204, Note_off_c, 0, 68, 100
2, 62208, Note_on_c, 0, 80, 80
2, 62208, Note_on_c, 0, 77, 80
2, 62588, Note_off_c, 0, 80, 100
2, 62588, Note_off_c, 0, 77, 100
2, 62592, Note_on_c, 0, 81, 80
2, 62592, Note_on_c, 0, 76, 80
2, 62780, Note_off_c, 0, 81, 100
2, 62780, Note_off_c, 0, 76, 100
2, 62784, Note_on_c, 0, 83, 80
2, 62784, Note_on_c, 0, 74, 80
2, 63164, Note_off_c, 0, 83, 100
2, 63164, Note_off_c, 0, 74, 100
2, 63168, Note_on_c, 0, 84, 80
2, 63168, Note_on_c, 0, 72, 80
2, 63356, Note_off_c, 0, 84, 100
2, 63356, Note_off_c, 0, 72, 100
2, 63360, Note_on_c, 0, 88, 80
2, 63360, Note_on_c, 0, 80, 80
2, 63360, Note_on_c, 0, 74, 80
2, 63740, Note_off_c, 0, 88, 100
2, 63740, Note_off_c, 0, 80, 100
2, 63740, Note_off_c, 0, 74, 100
2, 63744, Note_on_c, 0, 86, 80
2, 63744, Note_on_c, 0, 81, 80
2, 63744, Note_on_c, 0, 74, 80
2, 63932, Note_off_c, 0, 86, 100
2, 63932, Note_off_c, 0, 81, 100
2, 63932, Note_off_c, 0, 74, 100
2, 63936, Note_on_c, 0, 83, 80
2, 63936, Note_on_c, 0, 76, 80
2, 63936, Note_on_c, 0, 74, 80
2, 64892, Note_off_c, 0, 74, 100
2, 64892, Note_off_c, 0, 76, 100
2, 64892, Note_off_c, 0, 83, 100
2, 64896, Note_on_c, 0, 81, 80
2, 65084, Note_off_c, 0, 81, 100
2, 65088, Note_on_c, 0, 80, 80
2, 65088, Note_on_c, 0, 71, 80
2, 65468, Note_off_c, 0, 80, 100
2, 65468, Note_off_c, 0, 71, 100
2, 65472, Note_on_c, 0, 81, 80
2, 65472, Note_on_c, 0, 72, 80
2, 65660, Note_off_c, 0, 81, 100
2, 65660, Note_off_c, 0, 72, 100
2, 65664, Note_on_c, 0, 80, 80
2, 65856, Note_on_c, 0, 71, 80
2, 66044, Note_off_c, 0, 80, 100
2, 66048, Note_on_c, 0, 81, 80
2, 66048, Note_on_c, 0, 78, 80
2, 66236, Note_off_c, 0, 71, 100
2, 66236, Note_off_c, 0, 81, 100
2, 66236, Note_off_c, 0, 78, 100
2, 66240, Note_on_c, 0, 83, 80
2, 66240, Note_on_c, 0, 80, 80
2, 66428, Note_off_c, 0, 80, 100
2, 66432, Note_on_c, 0, 76, 80
2, 66620, Note_off_c, 0, 83, 100
2, 66624, Note_on_c, 0, 85, 80
2, 66624, Note_on_c, 0, 81, 80
2, 66812, Note_off_c, 0, 76, 100
2, 66812, Note_off_c, 0, 85, 100
2, 66812, Note_off_c, 0, 81, 100
2, 66816, Note_on_c, 0, 88, 80
2, 66816, Note_on_c, 0, 80, 80
2, 66816, Note_on_c, 0, 76, 80
2, 67196, Note_off_c, 0, 88, 100
2, 67196, Note_off_c, 0, 80, 100
2, 67196, Note_off_c, 0, 76, 100
2, 67200, Note_on_c, 0, 86, 80
2, 67200, Note_on_c, 0, 81, 80
2, 67200, Note_on_c, 0, 74, 80
2, 67388, Note_off_c, 0, 86, 100
2, 67388, Note_off_c, 0, 81, 100
2, 67388, Note_off_c, 0, 74, 100
2, 67392, Note_on_c, 0, 83, 80
2, 67392, Note_on_c, 0, 71, 80
2, 67580, Note_off_c, 0, 83, 100
2, 67580, Note_off_c, 0, 71, 100
2, 67584, Note_on_c, 0, 71, 82
2, 67584, Note_on_c, 0, 64, 82
2, 67584, Note_on_c, 0, 59, 82
2, 67772, Note_off_c, 0, 71, 100
2, 67772, Note_off_c, 0, 64, 100
2, 67772, Note_off_c, 0, 59, 100
2, 67776, Note_on_c, 0, 73, 84
2, 67776, Note_on_c, 0, 64, 84
2, 67776, Note_on_c, 0, 61, 84
2, 67964, Note_off_c, 0, 73, 100
2, 67964, Note_off_c, 0, 64, 100
2, 67964, Note_off_c, 0, 61, 100
2, 67968, Note_on_c, 0, 74, 87
2, 67968, Note_on_c, 0, 69, 87
2, 67968, Note_on_c, 0, 62, 87
2, 68348, Note_off_c, 0, 74, 100
2, 68348, Note_off_c, 0, 69, 100
2, 68348, Note_off_c, 0, 62, 100
2, 68352, Note_on_c, 0, 75, 92
2, 68352, Note_on_c, 0, 69, 92
2, 68352, Note_on_c, 0, 63, 92
2, 68540, Note_off_c, 0, 75, 100
2, 68540, Note_off_c, 0, 69, 100
2, 68540, Note_off_c, 0, 63, 100
2, 68544, Note_on_c, 0, 76, 94
2, 68544, Note_on_c, 0, 69, 94
2, 68544, Note_on_c, 0, 64, 94
2, 68924, Note_off_c, 0, 76, 100
2, 68924, Note_off_c, 0, 69, 100
2, 68924, Note_off_c, 0, 64, 100
2, 68928, Note_on_c, 0, 77, 99
2, 68928, Note_on_c, 0, 71, 99
2, 68928, Note_on_c, 0, 68, 99
2, 69116, Note_off_c, 0, 77, 100
2, 69116, Note_off_c, 0, 71, 100
2, 69116, Note_off_c, 0, 68, 100
2, 69120, Note_on_c, 0, 77, 100
2, 69120, Note_on_c, 0, 71, 100
2, 69120, Note_on_c, 0, 68, 100
2, 69692, Note_off_c, 0, 71, 100
2, 69692, Note_off_c, 0, 68, 100
2, 69696, Note_on_c, 0, 69, 100
2, 69696, Note_on_c, 0, 66, 100
2, 69884, Note_off_c, 0, 77, 100
2, 69888, Note_on_c, 0, 80, 100
2, 70076, Note_off_c, 0, 80, 100
2, 70080, Note_on_c, 0, 78, 100
2, 70268, Note_off_c, 0, 69, 100
2, 70268, Note_off_c, 0, 66, 100
2, 70268, Note_off_c, 0, 78, 100
2, 70272, Note_on_c, 0, 71, 100
2, 70272, Note_on_c, 0, 69, 100
2, 70272, Note_on_c, 0, 66, 100
2, 70844, Note_off_c, 0, 69, 100
2, 70844, Note_off_c, 0, 66, 100
2, 70848, Note_on_c, 0, 68, 100
2, 71036, Note_off_c, 0, 71, 100
2, 71040, Note_on_c, 0, 73, 100
2, 71228, Note_off_c, 0, 73, 100
2, 71232, Note_on_c, 0, 74, 100
2, 71420, Note_off_c, 0, 68, 100
2, 71420, Note_off_c, 0, 74, 100
2, 71424, Note_on_c, 0, 62, 100
2, 71424, Note_on_c, 0, 57, 100
2, 71424, Note_on_c, 0, 69, 100
2, 71804, Note_off_c, 0, 69, 100
2, 71808, Note_on_c, 0, 68, 97
2, 71996, Note_off_c, 0, 62, 100
2, 71996, Note_off_c, 0, 57, 100
2, 71996, Note_off_c, 0, 68, 100
2, 72000, Note_on_c, 0, 62, 95
2, 72000, Note_on_c, 0, 59, 95
2, 72000, Note_on_c, 0, 66, 95
2, 72380, Note_off_c, 0, 66, 100
2, 72384, Note_on_c, 0, 64, 91
2, 72572, Note_off_c, 0, 62, 100
2, 72572, Note_off_c, 0, 59, 100
2, 72572, Note_off_c, 0, 64, 100
2, 72576, Note_on_c, 0, 62, 90
2, 72576, Note_on_c, 0, 64, 90
2, 73148, Note_off_c, 0, 64, 100
2, 73152, Note_on_c, 0, 68, 84
2, 73340, Note_off_c, 0, 62, 100
2, 73340, Note_off_c, 0, 68, 100
2, 73344, Note_on_c, 0, 71, 82
2, 73344, Note_on_c, 0, 62, 82
2, 73532, Note_off_c, 0, 71, 100
2, 73532, Note_off_c, 0, 62, 100
2, 73536, Note_on_c, 0, 69, 81
2, 73536, Note_on_c, 0, 61, 81
2, 73724, Note_off_c, 0, 69, 100
2, 73724, Note_off_c, 0, 61, 100
2, 73728, Note_on_c, 0, 64, 80
2, 73728, Note_on_c, 0, 62, 80
2, 73916, Note_off_c, 0, 64, 100
2, 73916, Note_off_c, 0, 62, 100
2, 73920, Note_on_c, 0, 66, 80
2, 74012, Note_off_c, 0, 66, 100
2, 74016, Note_on_c, 0, 64, 80
2, 74108, Note_off_c, 0, 64, 100
2, 74112, Note_on_c, 0, 63, 80
2, 74204, Note_off_c, 0, 63, 100
2, 74208, Note_on_c, 0, 64, 80
2, 74300, Note_off_c, 0, 64, 100
2, 74304, Note_on_c, 0, 76, 80
2, 74492, Note_off_c, 0, 76, 100
2, 74496, Note_on_c, 0, 74, 80
2, 74496, Note_on_c, 0, 64, 80
2, 74684, Note_off_c, 0, 74, 100
2, 74684, Note_off_c, 0, 64, 100
2, 74688, Note_on_c, 0, 73, 80
2, 74688, Note_on_c, 0, 64, 80
2, 74876, Note_off_c, 0, 73, 100
2, 74876, Note_off_c, 0, 64, 100
2, 74880, Note_on_c, 0, 66, 80
2, 74880, Note_on_c, 0, 73, 80
2, 75068, Note_off_c, 0, 73, 100
2, 75072, Note_on_c, 0, 71, 83
2, 75260, Note_off_c, 0, 66, 100
2, 75260, Note_off_c, 0, 71, 100
2, 75264, Note_on_c, 0, 69, 87
2, 75264, Note_on_c, 0, 66, 87
2, 75264, Note_on_c, 0, 59, 87
2, 75452, Note_off_c, 0, 69, 100
2, 75452, Note_off_c, 0, 66, 100
2, 75452, Note_off_c, 0, 59, 100
2, 75456, Note_on_c, 0, 64, 91
2, 75456, Note_on_c, 0, 59, 91
2, 75456, Note_on_c, 0, 69, 91
2, 75644, Note_off_c, 0, 69, 100
2, 75648, Note_on_c, 0, 68, 95
2, 75836, Note_off_c, 0, 64, 100
2, 75836, Note_off_c, 0, 59, 100
2, 75836, Note_off_c, 0, 68, 100
2, 75840, Note_on_c, 0, 69, 99
2, 75840, Note_on_c, 0, 63, 99
2, 75840, Note_on_c, 0, 59, 99
2, 76028, Note_off_c, 0, 69, 100
2, 76028, Note_off_c, 0, 63, 100
2, 76028, Note_off_c, 0, 59, 100
2, 76032, Note_on_c, 0, 64, 100
2, 76032, Note_on_c, 0, 62, 100
2, 76032, Note_on_c, 0, 59, 100
2, 76412, Note_off_c, 0, 64, 100
2, 76412, Note_off_c, 0, 62, 100
2, 76412, Note_off_c, 0, 59, 100
2, 76416, Note_on_c, 0, 64, 93
2, 76416, Note_on_c, 0, 61, 93
2, 76604, Note_off_c, 0, 64, 100
2, 76604, Note_off_c, 0, 61, 100
2, 76608, Note_on_c, 0, 64, 89
2, 76608, Note_on_c, 0, 59, 89
2, 76608, Note_on_c, 0, 56, 89
2, 76988, Note_off_c, 0, 64, 100
2, 76988, Note_off_c, 0, 59, 100
2, 76988, Note_off_c, 0, 56, 100
2, 76992, Note_on_c, 0, 62, 81
2, 76992, Note_on_c, 0, 59, 81
2, 76992, Note_on_c, 0, 56, 81
2, 77180, Note_off_c, 0, 62, 100
2, 77180, Note_off_c, 0, 59, 100
2, 77180, Note_off_c, 0, 56, 100
2, 77184, Note_on_c, 0, 61, 80
2, 77184, Note_on_c, 0, 57, 80
2, 77756, Note_off_c, 0, 61, 100
2, 77756, Note_off_c, 0, 57, 100
2, 78912, Note_on_c, 0, 83, 80
2, 79100, Note_off_c, 0, 83, 100
2, 79104, Note_on_c, 0, 81, 80
2, 79292, Note_off_c, 0, 81, 100
2, 79296, Note_on_c, 0, 80, 80
2, 79484, Note_off_c, 0, 80, 100
2, 79488, Note_on_c, 0, 88, 80
2, 79488, Note_on_c, 0, 79, 80
2, 80060, Note_off_c, 0, 88, 100
2, 80060, Note_off_c, 0, 79, 100
2, 80064, Note_on_c, 0, 90, 80
2, 80064, Note_on_c, 0, 86, 80
2, 80636, Note_off_c, 0, 90, 100
2, 80636, Note_off_c, 0, 86, 100
2, 80640, Note_on_c, 0, 85, 80
2, 80640, Note_on_c, 0, 81, 80
2, 80640, Note_on_c, 0, 73, 80
2, 81404, Note_off_c, 0, 85, 100
2, 81404, Note_off_c, 0, 81, 100
2, 81404, Note_off_c, 0, 73, 100
2, 81408, Note_on_c, 0, 72, 93
2, 81596, Note_off_c, 0, 72, 100
2, 81600, Note_on_c, 0, 73, 96
2, 81788, Note_off_c, 0, 73, 100
2, 81792, Note_on_c, 0, 76, 99
2, 81980, Note_off_c, 0, 76, 100
2, 82176, Note_on_c, 0, 69, 80
2, 82176, Note_on_c, 0, 64, 80
2, 82176, Note_on_c, 0, 61, 80
2, 82364, Note_off_c, 0, 69, 100
2, 82364, Note_off_c, 0, 64, 100
2, 82364, Note_off_c, 0, 61, 100
2, 82368, Note_on_c, 0, 73, 80
2, 82368, Note_on_c, 0, 69, 80
2, 82368, Note_on_c, 0, 64, 80
2, 82748, Note_off_c, 0, 73, 100
2, 82748, Note_off_c, 0, 69, 100
2, 82748, Note_off_c, 0, 64, 100
2, 82752, Note_on_c, 0, 71, 80
2, 82752, Note_on_c, 0, 68, 80
2, 82752, Note_on_c, 0, 64, 80
2, 82940, Note_off_c, 0, 71, 100
2, 82940, Note_off_c, 0, 68, 100
2, 82940, Note_off_c, 0, 64, 100
2, 82944, Note_on_c, 0, 76, 80
2, 82944, Note_on_c, 0, 69, 80
2, 82944, Note_on_c, 0, 64, 80
2, 83516, Note_off_c, 0, 69, 100
2, 83516, Note_off_c, 0, 64, 100
2, 83708, Note_off_c, 0, 76, 100
2, 83712, Note_on_c, 0, 75, 93
2, 83900, Note_off_c, 0, 75, 100
2, 83904, Note_on_c, 0, 76, 96
2, 84092, Note_off_c, 0, 76, 100
2, 84096, Note_on_c, 0, 81, 99
2, 84284, Note_off_c, 0, 81, 100
2, 84480, Note_on_c, 0, 69, 80
2, 84480, Note_on_c, 0, 64, 80
2, 84480, Note_on_c, 0, 61, 80
2, 84668, Note_off_c, 0, 69, 100
2, 84668, Note_off_c, 0, 64, 100
2, 84668, Note_off_c, 0, 61, 100
2, 84672, Note_on_c, 0, 73, 80
2, 84672, Note_on_c, 0, 69, 80
2, 84672, Note_on_c, 0, 64, 80
2, 85052, Note_off_c, 0, 73, 100
2, 85052, Note_off_c, 0, 69, 100
2, 85052, Note_off_c, 0, 64, 100
2, 85056, Note_on_c, 0, 71, 80
2, 85056, Note_on_c, 0, 68, 80
2, 85056, Note_on_c, 0, 64, 80
2, 85244, Note_off_c, 0, 71, 100
2, 85244, Note_off_c, 0, 68, 100
2, 85244, Note_off_c, 0, 64, 100
2, 85248, Note_on_c, 0, 76, 80
2, 85248, Note_on_c, 0, 69, 80
2, 85248, Note_on_c, 0, 64, 80
2, 85820, Note_off_c, 0, 76, 100
2, 85820, Note_off_c, 0, 69, 100
2, 85820, Note_off_c, 0, 64, 100
2, 86016, Note_on_c, 0, 75, 91
2, 86204, Note_off_c, 0, 75, 100
2, 86208, Note_on_c, 0, 76, 94
2, 86396, Note_off_c, 0, 76, 100
2, 86400, Note_on_c, 0, 80, 97
2, 86588, Note_off_c, 0, 80, 100
2, 86592, Note_on_c, 0, 81, 100
2, 86780, Note_off_c, 0, 81, 100
2, 86784, Note_on_c, 0, 85, 103
2, 86972, Note_off_c, 0, 85, 100
2, 86976, Note_on_c, 0, 88, 120
2, 87164, Note_off_c, 0, 88, 100
2, 87168, Note_on_c, 0, 93, 110
2, 87356, Note_off_c, 0, 93, 100
2, 87360, Note_on_c, 0, 68, 80
2, 87360, Note_on_c, 0, 62, 80
2, 87360, Note_on_c, 0, 59, 80
2, 87548, Note_off_c, 0, 68, 100
2, 87548, Note_off_c, 0, 62, 100
2, 87548, Note_off_c, 0, 59, 100
2, 87552, Note_on_c, 0, 69, 80
2, 87552, Note_on_c, 0, 61, 80
2, 87932, Note_off_c, 0, 69, 100
2, 87932, Note_off_c, 0, 61, 100
2, 88512, Note_on_c, 0, 64, 80
2, 88512, Note_on_c, 0, 61, 80
2, 88700, Note_off_c, 0, 64, 100
2, 88700, Note_off_c, 0, 61, 100
2, 88704, Note_on_c, 0, 64, 80
2, 88704, Note_on_c, 0, 57, 80
2, 89084, Note_off_c, 0, 64, 100
2, 89084, Note_off_c, 0, 57, 100
2, 89664, Note_on_c, 0, 68, 80
2, 89664, Note_on_c, 0, 64, 80
2, 89664, Note_on_c, 0, 62, 80
2, 89852, Note_off_c, 0, 68, 100
2, 89852, Note_off_c, 0, 64, 100
2, 89852, Note_off_c, 0, 62, 100
2, 89856, Note_on_c, 0, 69, 80
2, 89856, Note_on_c, 0, 64, 80
2, 89856, Note_on_c, 0, 61, 80
2, 90236, Note_off_c, 0, 69, 100
2, 90236, Note_off_c, 0, 64, 100
2, 90236, Note_off_c, 0, 61, 100
2, 90816, Note_on_c, 0, 76, 80
2, 90816, Note_on_c, 0, 73, 80
2, 90816, Note_on_c, 0, 64, 80
2, 91004, Note_off_c, 0, 76, 100
2, 91004, Note_off_c, 0, 73, 100
2, 91004, Note_off_c, 0, 64, 100
2, 91008, Note_on_c, 0, 76, 80
2, 91008, Note_on_c, 0, 69, 80
2, 91008, Note_on_c, 0, 64, 80
2, 91388, Note_off_c, 0, 76, 100
2, 91388, Note_off_c, 0, 69, 100
2, 91388, Note_off_c, 0, 64, 100
2, 91968, Note_on_c, 0, 80, 80
2, 91968, Note_on_c, 0, 76, 80
2, 91968, Note_on_c, 0, 74, 80
2, 91968, Note_on_c, 0, 68, 80
2, 92156, Note_off_c, 0, 80, 100
2, 92156, Note_off_c, 0, 76, 100
2, 92156, Note_off_c, 0, 74, 100
2, 92156, Note_off_c, 0, 68, 100
2, 92160, Note_on_c, 0, 81, 80
2, 92160, Note_on_c, 0, 73, 80
2, 92160, Note_on_c, 0, 69, 80
2, 92540, Note_off_c, 0, 81, 100
2, 92540, Note_off_c, 0, 73, 100
2, 92540, Note_off_c, 0, 69, 100
2, 92544, Note_on_c, 0, 83, 80
2, 92544, Note_on_c, 0, 74, 80
2, 92544, Note_on_c, 0, 71, 80
2, 93116, Note_off_c, 0, 83, 100
2, 93116, Note_off_c, 0, 74, 100
2, 93116, Note_off_c, 0, 71, 100
2, 93120, Note_on_c, 0, 81, 80
2, 93120, Note_on_c, 0, 73, 80
2, 93120, Note_on_c, 0, 69, 80
2, 93692, Note_off_c, 0, 69, 100
2, 93692, Note_off_c, 0, 73, 100
2, 93692, Note_off_c, 0, 81, 100
2, 93696, Note_on_c, 0, 83, 80
2, 93696, Note_on_c, 0, 74, 80
2, 93696, Note_on_c, 0, 71, 80
2, 94268, Note_off_c, 0, 83, 100
2, 94268, Note_off_c, 0, 74, 100
2, 94268, Note_off_c, 0, 71, 100
2, 94272, Note_on_c, 0, 81, 80
2, 94272, Note_on_c, 0, 73, 80
2, 94272, Note_on_c, 0, 69, 80
2, 94844, Note_off_c, 0, 69, 100
2, 94844, Note_off_c, 0, 73, 100
2, 94844, Note_off_c, 0, 81, 100
2, 94848, Note_on_c, 0, 86, 80
2, 94848, Note_on_c, 0, 83, 80
2, 94848, Note_on_c, 0, 74, 80
2, 95420, Note_off_c, 0, 86, 100
2, 95420, Note_off_c, 0, 83, 100
2, 95420, Note_off_c, 0, 74, 100
2, 95424, Note_on_c, 0, 85, 80
2, 95424, Note_on_c, 0, 81, 80
2, 95424, Note_on_c, 0, 73, 80
2, 95996, Note_off_c, 0, 73, 100
2, 95996, Note_off_c, 0, 81, 100
2, 95996, Note_off_c, 0, 85, 100
2, 96000, Note_on_c, 0, 83, 80
2, 96000, Note_on_c, 0, 80, 80
2, 96000, Note_on_c, 0, 71, 80
2, 96572, Note_off_c, 0, 83, 100
2, 96572, Note_off_c, 0, 80, 100
2, 96572, Note_off_c, 0, 71, 100
2, 96576, Note_on_c, 0, 81, 80
2, 96576, Note_on_c, 0, 73, 80
2, 96576, Note_on_c, 0, 69, 80
2, 97148, Note_off_c, 0, 69, 100
2, 97148, Note_off_c, 0, 73, 100
2, 97148, Note_off_c, 0, 81, 100
2, 97152, Note_on_c, 0, 79, 93
2, 97152, Note_on_c, 0, 76, 93
2, 97152, Note_on_c, 0, 70, 93
2, 97152, Note_on_c, 0, 67, 93
2, 97724, Note_off_c, 0, 79, 100
2, 97724, Note_off_c, 0, 76, 100
2, 97724, Note_off_c, 0, 70, 100
2, 97724, Note_off_c, 0, 67, 100
2, 97728, Note_on_c, 0, 77, 106
2, 97728, Note_on_c, 0, 74, 106
2, 97728, Note_on_c, 0, 71, 106
2, 97728, Note_on_c, 0, 68, 106
2, 97728, Note_on_c, 0, 65, 106
2, 98300, Note_off_c, 0, 65, 100
2, 98300, Note_off_c, 0, 68, 100
2, 98300, Note_off_c, 0, 71, 100
2, 98300, Note_off_c, 0, 74, 100
2, 98300, Note_off_c, 0, 77, 100
2, 98304, Note_on_c, 0, 77, 119
2, 98304, Note_on_c, 0, 74, 119
2, 98304, Note_on_c, 0, 71, 119
2, 98304, Note_on_c, 0, 65, 119
2, 98304, Note_on_c, 0, 68, 119
2, 98876, Note_off_c, 0, 77, 100
2, 98876, Note_off_c, 0, 74, 100
2, 98876, Note_off_c, 0, 71, 100
2, 98876, Note_off_c, 0, 65, 100
2, 98876, Note_off_c, 0, 68, 100
2, 98880, Note_on_c, 0, 77, 120
2, 98880, Note_on_c, 0, 74, 120
2, 98880, Note_on_c, 0, 71, 120
2, 98880, Note_on_c, 0, 68, 120
2, 98880, Note_on_c, 0, 65, 120
2, 100796, Note_off_c, 0, 65, 100
2, 100796, Note_off_c, 0, 68, 100
2, 100796, Note_off_c, 0, 71, 100
2, 100796, Note_off_c, 0, 74, 100
2, 100796, Note_off_c, 0, 77, 100
2, 100800, Note_on_c, 0, 76, 80
2, 100800, Note_on_c, 0, 69, 80
2, 101372, Note_off_c, 0, 76, 100
2, 101372, Note_off_c, 0, 69, 100
2, 101376, Note_on_c, 0, 75, 80
2, 101376, Note_on_c, 0, 69, 80
2, 102140, Note_off_c, 0, 69, 100
2, 102144, Note_on_c, 0, 71, 80
2, 102332, Note_off_c, 0, 71, 100
2, 102336, Note_on_c, 0, 72, 80
2, 102524, Note_off_c, 0, 75, 100
2, 102524, Note_off_c, 0, 72, 100
2, 102528, Note_on_c, 0, 76, 80
2, 102528, Note_on_c, 0, 73, 80
2, 102528, Note_on_c, 0, 61, 80
2, 102716, Note_off_c, 0, 61, 100
2, 102720, Note_on_c, 0, 62, 80
2, 102908, Note_off_c, 0, 62, 100
2, 102912, Note_on_c, 0, 64, 80
2, 103100, Note_off_c, 0, 64, 100
2, 103104, Note_on_c, 0, 64, 80
2, 103292, Note_off_c, 0, 76, 100
2, 103292, Note_off_c, 0, 73, 100
2, 103292, Note_off_c, 0, 64, 100
2, 103296, Note_on_c, 0, 74, 80
2, 103296, Note_on_c, 0, 71, 80
2, 103296, Note_on_c, 0, 66, 80
2, 103484, Note_off_c, 0, 74, 100
2, 103484, Note_off_c, 0, 71, 100
2, 103484, Note_off_c, 0, 66, 100
2, 103488, Note_on_c, 0, 73, 80
2, 103488, Note_on_c, 0, 69, 80
2, 103488, Note_on_c, 0, 66, 80
2, 103676, Note_off_c, 0, 73, 100
2, 103676, Note_off_c, 0, 69, 100
2, 103676, Note_off_c, 0, 66, 100
2, 103680, Note_on_c, 0, 69, 80
2, 103680, Note_on_c, 0, 73, 80
2, 103868, Note_off_c, 0, 73, 100
2, 103872, Note_on_c, 0, 71, 80
2, 104060, Note_off_c, 0, 69, 100
2, 104060, Note_off_c, 0, 71, 100
2, 104064, Note_on_c, 0, 69, 80
2, 104064, Note_on_c, 0, 64, 80
2, 104252, Note_off_c, 0, 69, 100
2, 104252, Note_off_c, 0, 64, 100
2, 104256, Note_on_c, 0, 68, 80
2, 104256, Note_on_c, 0, 62, 80
2, 104444, Note_off_c, 0, 62, 100
2, 104448, Note_on_c, 0, 66, 80
2, 104636, Note_off_c, 0, 66, 100
2, 104640, Note_on_c, 0, 64, 80
2, 104732, Note_off_c, 0, 64, 100
2, 104736, Note_on_c, 0, 62, 80
2, 104828, Note_off_c, 0, 68, 100
2, 104828, Note_off_c, 0, 62, 100
2, 104832, Note_on_c, 0, 69, 80
2, 104832, Note_on_c, 0, 61, 80
2, 105020, Note_off_c, 0, 69, 100
2, 105020, Note_off_c, 0, 61, 100
2, 105024, Note_on_c, 0, 71, 80
2, 105212, Note_off_c, 0, 71, 100
2, 105216, Note_on_c, 0, 73, 80
2, 105404, Note_off_c, 0, 73, 100
2, 105408, Note_on_c, 0, 81, 80
2, 105408, Note_on_c, 0, 73, 80
2, 105980, Note_off_c, 0, 81, 100
2, 105980, Note_off_c, 0, 73, 100
2, 105984, Note_on_c, 0, 80, 89
2, 105984, Note_on_c, 0, 74, 89
2, 105984, Note_on_c, 0, 83, 89
2, 106556, Note_off_c, 0, 80, 100
2, 106556, Note_off_c, 0, 74, 100
2, 106556, Note_off_c, 0, 83, 100
2, 106560, Note_on_c, 0, 84, 99
2, 106560, Note_on_c, 0, 78, 99
2, 106560, Note_on_c, 0, 72, 99
2, 107132, Note_off_c, 0, 84, 100
2, 107132, Note_off_c, 0, 78, 100
2, 107132, Note_off_c, 0, 72, 100
2, 107136, Note_on_c, 0, 88, 109
2, 107136, Note_on_c, 0, 83, 109
2, 107136, Note_on_c, 0, 76, 109
2, 107708, Note_off_c, 0, 88, 100
2, 107708, Note_off_c, 0, 83, 100
2, 107708, Note_off_c, 0, 76, 100
2, 107712, Note_on_c, 0, 85, 100
2, 107900, Note_off_c, 0, 85, 100
2, 107904, Note_on_c, 0, 81, 96
2, 108092, Note_off_c, 0, 81, 100
2, 108096, Note_on_c, 0, 76, 91
2, 108284, Note_off_c, 0, 76, 100
2, 108288, Note_on_c, 0, 78, 80
2, 108476, Note_off_c, 0, 78, 100
2, 108480, Note_on_c, 0, 74, 80
2, 108668, Note_off_c, 0, 74, 100
2, 108672, Note_on_c, 0, 73, 80
2, 108860, Note_off_c, 0, 73, 100
2, 108864, Note_on_c, 0, 71, 80
2, 109056, Note_on_c, 0, 64, 80
2, 109244, Note_off_c, 0, 71, 100
2, 109244, Note_off_c, 0, 64, 100
2, 109248, Note_on_c, 0, 76, 80
2, 109248, Note_on_c, 0, 71, 80
2, 109248, Note_on_c, 0, 68, 80
2, 109248, Note_on_c, 0, 64, 80
2, 109820, Note_off_c, 0, 64, 100
2, 109820, Note_off_c, 0, 68, 100
2, 109820, Note_off_c, 0, 71, 100
2, 109820, Note_off_c, 0, 76, 100
2, 110400, Note_on_c, 0, 73, 80
2, 110400, Note_on_c, 0, 69, 80
2, 110400, Note_on_c, 0, 64, 80
2, 110972, Note_off_c, 0, 64, 100
2, 110972, Note_off_c, 0, 69, 100
2, 110972, Note_off_c, 0, 73, 100
2, 111552, Note_on_c, 0, 64, 80
2, 111552, Note_on_c, 0, 59, 80
2, 111552, Note_on_c, 0, 56, 80
2, 112124, Note_off_c, 0, 56, 100
2, 112124, Note_off_c, 0, 59, 100
2, 112124, Note_off_c, 0, 64, 100
2, 113472, Note_on_c, 0, 59, 80
2, 113660, Note_off_c, 0, 59, 100
2, 113664, Note_on_c, 0, 57, 80
2, 113852, Note_off_c, 0, 57, 100
2, 113856, Note_on_c, 0, 56, 80
2, 114044, Note_off_c, 0, 56, 100
2, 114048, Note_on_c, 0, 64, 80
2, 114620, Note_off_c, 0, 64, 100
2, 114624, Note_on_c, 0, 76, 80
2, 114624, Note_on_c, 0, 74, 80
2, 114624, Note_on_c, 0, 71, 80
2, 114812, Note_off_c, 0, 76, 100
2, 114812, Note_off_c, 0, 74, 100
2, 114812, Note_off_c, 0, 71, 100
2, 114816, Note_on_c, 0, 76, 82
2, 114816, Note_on_c, 0, 73, 82
2, 114816, Note_on_c, 0, 69, 82
2, 115004, Note_off_c, 0, 76, 100
2, 115004, Note_off_c, 0, 73, 100
2, 115004, Note_off_c, 0, 69, 100
2, 115008, Note_on_c, 0, 76, 84
2, 115008, Note_on_c, 0, 71, 84
2, 115008, Note_on_c, 0, 68, 84
2, 115196, Note_off_c, 0, 76, 100
2, 115196, Note_off_c, 0, 71, 100
2, 115196, Note_off_c, 0, 68, 100
2, 115200, Note_on_c, 0, 76, 87
2, 115200, Note_on_c, 0, 73, 87
2, 115200, Note_on_c, 0, 81, 87
2, 115388, Note_off_c, 0, 81, 100
2, 115392, Note_on_c, 0, 83, 89
2, 115580, Note_off_c, 0, 76, 100
2, 115580, Note_off_c, 0, 73, 100
2, 115580, Note_off_c, 0, 83, 100
2, 115584, Note_on_c, 0, 88, 92
2, 115584, Note_on_c, 0, 85, 92
2, 115584, Note_on_c, 0, 81, 92
2, 115772, Note_off_c, 0, 88, 100
2, 115772, Note_off_c, 0, 85, 100
2, 115772, Note_off_c, 0, 81, 100
2, 115776, Note_on_c, 0, 86, 94
2, 115776, Note_on_c, 0, 83, 94
2, 115776, Note_on_c, 0, 88, 94
2, 115964, Note_off_c, 0, 88, 100
2, 115968, Note_on_c, 0, 90, 97
2, 116156, Note_off_c, 0, 86, 100
2, 116156, Note_off_c, 0, 83, 100
2, 116156, Note_off_c, 0, 90, 100
2, 116160, Note_on_c, 0, 92, 99
2, 116160, Note_on_c, 0, 86, 99
2, 116160, Note_on_c, 0, 83, 99
2, 116348, Note_off_c, 0, 92, 100
2, 116348, Note_off_c, 0, 86, 100
2, 116348, Note_off_c, 0, 83, 100
2, 116352, Note_on_c, 0, 92, 110
2, 116352, Note_on_c, 0, 86, 110
2, 116352, Note_on_c, 0, 83, 110
2, 116924, Note_off_c, 0, 92, 100
2, 116924, Note_off_c, 0, 86, 100
2, 116924, Note_off_c, 0, 83, 100
2, 116928, Note_on_c, 0, 85, 80
2, 116928, Note_on_c, 0, 81, 80
2, 116928, Note_on_c, 0, 93, 80
2, 117500, Note_off_c, 0, 85, 100
2, 117500, Note_off_c, 0, 81, 100
2, 117500, Note_off_c, 0, 93, 100
2, 118848, Control_c, 0, 7, 0
2, 119424, Note_on_c, 0, 69, 1
2, 119804, Note_off_c, 0, 69, 100
2, 119804, End_track
3, 0, Start_track
3, 0, Title_t, "Left"
3, 0, Control_c, 1, 0, 0
3, 0, Program_c, 1, 0
3, 0, Control_c, 1, 7, 100
3, 0, Control_c, 1, 10, 54
3, 0, Control_c, 1, 91, 127
3, 0, Key_signature, 3, "major"
3, 0, Note_on_c, 1, 52, 80
3, 0, Note_on_c, 1, 40, 80
3, 380, Note_off_c, 1, 52, 100
3, 384, Note_on_c, 1, 51, 80
3, 572, Note_off_c, 1, 51, 100
3, 576, Note_on_c, 1, 50, 80
3, 956, Note_off_c, 1, 50, 100
3, 960, Note_on_c, 1, 49, 80
3, 1148, Note_off_c, 1, 49, 100
3, 1152, Note_on_c, 1, 47, 80
3, 1724, Note_off_c, 1, 40, 100
3, 1724, Note_off_c, 1, 47, 100
3, 1728, Note_on_c, 1, 52, 80
3, 1728, Note_on_c, 1, 40, 80
3, 2108, Note_off_c, 1, 52, 100
3, 2108, Note_off_c, 1, 40, 100
3, 2304, Note_on_c, 1, 66, 80
3, 2684, Note_off_c, 1, 66, 100
3, 2688, Note_on_c, 1, 64, 80
3, 2876, Note_off_c, 1, 64, 100
3, 2880, Note_on_c, 1, 62, 80
3, 2880, Note_on_c, 1, 57, 80
3, 3260, Note_off_c, 1, 62, 100
3, 3264, Note_on_c, 1, 61, 80
3, 3452, Note_off_c, 1, 57, 100
3, 3452, Note_off_c, 1, 61, 100
3, 3456, Note_on_c, 1, 61, 80
3, 3456, Note_on_c, 1, 49, 80
3, 3836, Note_off_c, 1, 49, 100
3, 3840, Note_on_c, 1, 50, 80
3, 4028, Note_off_c, 1, 50, 100
3, 4032, Note_on_c, 1, 52, 80
3, 4220, Note_off_c, 1, 61, 100
3, 4224, Note_on_c, 1, 57, 80
3, 4412, Note_off_c, 1, 57, 100
3, 4416, Note_on_c, 1, 56, 80
3, 4604, Note_off_c, 1, 52, 100
3, 4604, Note_off_c, 1, 56, 100
3, 4608, Note_on_c, 1, 52, 80
3, 4608, Note_on_c, 1, 40, 80
3, 4988, Note_off_c, 1, 52, 100
3, 4992, Note_on_c, 1, 51, 80
3, 5180, Note_off_c, 1, 51, 100
3, 5184, Note_on_c, 1, 50, 80
3, 5564, Note_off_c, 1, 50, 100
3, 5568, Note_on_c, 1, 49, 80
3, 5756, Note_off_c, 1, 49, 100
3, 5760, Note_on_c, 1, 47, 80
3, 5948, Note_off_c, 1, 47, 100
3, 5952, Note_on_c, 1, 52, 80
3, 6140, Note_off_c, 1, 40, 100
3, 6140, Note_off_c, 1, 52, 100
3, 6144, Note_on_c, 1, 53, 80
3, 6144, Note_on_c, 1, 41, 80
3, 6332, Note_off_c, 1, 53, 100
3, 6332, Note_off_c, 1, 41, 100
3, 6336, Note_on_c, 1, 54, 80
3, 6336, Note_on_c, 1, 42, 80
3, 6908, Note_off_c, 1, 54, 100
3, 6908, Note_off_c, 1, 42, 100
3, 6912, Note_on_c, 1, 54, 80
3, 6912, Note_on_c, 1, 42, 80
3, 7484, Note_off_c, 1, 54, 100
3, 7484, Note_off_c, 1, 42, 100
3, 7488, Note_on_c, 1, 52, 85
3, 7488, Note_on_c, 1, 40, 85
3, 7868, Note_off_c, 1, 52, 100
3, 7868, Note_off_c, 1, 40, 100
3, 7872, Note_on_c, 1, 51, 89
3, 7872, Note_on_c, 1, 39, 89
3, 8060, Note_off_c, 1, 51, 100
3, 8060, Note_off_c, 1, 39, 100
3, 8064, Note_on_c, 1, 52, 90
3, 8064, Note_on_c, 1, 40, 90
3, 8444, Note_off_c, 1, 52, 100
3, 8444, Note_off_c, 1, 40, 100
3, 8448, Note_on_c, 1, 49, 94
3, 8448, Note_on_c, 1, 37, 94
3, 8636, Note_off_c, 1, 49, 100
3, 8636, Note_off_c, 1, 37, 100
3, 8640, Note_on_c, 1, 44, 96
3, 8640, Note_on_c, 1, 32, 96
3, 9020, Note_off_c, 1, 44, 100
3, 9020, Note_off_c, 1, 32, 100
3, 9024, Note_on_c, 1, 44, 99
3, 9024, Note_on_c, 1, 32, 99
3, 9212, Note_off_c, 1, 44, 100
3, 9212, Note_off_c, 1, 32, 100
3, 9216, Note_on_c, 1, 44, 100
3, 9216, Note_on_c, 1, 32, 100
3, 9788, Note_off_c, 1, 44, 100
3, 9788, Note_off_c, 1, 32, 100
3, 9792, Note_on_c, 1, 45, 100
3, 9792, Note_on_c, 1, 33, 100
3, 10364, Note_off_c, 1, 45, 100
3, 10364, Note_off_c, 1, 33, 100
3, 10368, Note_on_c, 1, 46, 100
3, 10368, Note_on_c, 1, 34, 100
3, 10940, Note_off_c, 1, 46, 100
3, 10940, Note_off_c, 1, 34, 100
3, 10944, Note_on_c, 1, 47, 100
3, 10944, Note_on_c, 1, 35, 100
3, 11516, Note_off_c, 1, 47, 100
3, 11516, Note_off_c, 1, 35, 100
3, 11520, Note_on_c, 1, 49, 100
3, 11520, Note_on_c, 1, 37, 100
3, 12092, Note_off_c, 1, 49, 100
3, 12092, Note_off_c, 1, 37, 100
3, 12096, Note_on_c, 1, 51, 95
3, 12096, Note_on_c, 1, 39, 95
3, 12476, Note_off_c, 1, 51, 100
3, 12476, Note_off_c, 1, 39, 100
3, 12480, Note_on_c, 1, 54, 91
3, 12480, Note_on_c, 1, 42, 91
3, 12668, Note_off_c, 1, 54, 100
3, 12668, Note_off_c, 1, 42, 100
3, 12672, Note_on_c, 1, 59, 90
3, 12672, Note_on_c, 1, 54, 90
3, 13436, Note_off_c, 1, 59, 100
3, 13436, Note_off_c, 1, 54, 100
3, 13440, Note_on_c, 1, 59, 82
3, 13440, Note_on_c, 1, 51, 82
3, 13628, Note_off_c, 1, 59, 100
3, 13628, Note_off_c, 1, 51, 100
3, 13632, Note_on_c, 1, 59, 81
3, 13632, Note_on_c, 1, 52, 81
3, 13820, Note_off_c, 1, 59, 100
3, 13820, Note_off_c, 1, 52, 100
3, 13824, Note_on_c, 1, 63, 80
3, 13824, Note_on_c, 1, 59, 80
3, 13824, Note_on_c, 1, 54, 80
3, 14588, Note_off_c, 1, 63, 100
3, 14588, Note_off_c, 1, 59, 100
3, 14588, Note_off_c, 1, 54, 100
3, 14592, Note_on_c, 1, 63, 80
3, 14592, Note_on_c, 1, 59, 80
3, 14592, Note_on_c, 1, 54, 80
3, 14780, Note_off_c, 1, 63, 100
3, 14780, Note_off_c, 1, 59, 100
3, 14780, Note_off_c, 1, 54, 100
3, 14784, Note_on_c, 1, 64, 80
3, 14784, Note_on_c, 1, 59, 80
3, 14784, Note_on_c, 1, 56, 80
3, 14972, Note_off_c, 1, 64, 100
3, 14972, Note_off_c, 1, 59, 100
3, 14972, Note_off_c, 1, 56, 100
3, 14976, Note_on_c, 1, 61, 80
3, 14976, Note_on_c, 1, 57, 80
3, 14976, Note_on_c, 1, 54, 80
3, 15356, Note_off_c, 1, 61, 100
3, 15356, Note_off_c, 1, 57, 100
3, 15356, Note_off_c, 1, 54, 100
3, 15360, Note_on_c, 1, 66, 80
3, 15360, Note_on_c, 1, 61, 80
3, 15360, Note_on_c, 1, 58, 80
3, 15548, Note_off_c, 1, 66, 100
3, 15548, Note_off_c, 1, 61, 100
3, 15548, Note_off_c, 1, 58, 100
3, 15552, Note_on_c, 1, 63, 80
3, 15552, Note_on_c, 1, 59, 80
3, 15552, Note_on_c, 1, 66, 80
3, 15932, Note_off_c, 1, 63, 100
3, 15932, Note_off_c, 1, 59, 100
3, 15932, Note_off_c, 1, 66, 100
3, 15936, Note_on_c, 1, 64, 80
3, 15936, Note_on_c, 1, 61, 80
3, 16124, Note_off_c, 1, 64, 100
3, 16124, Note_off_c, 1, 61, 100
3, 16128, Note_on_c, 1, 63, 80
3, 16508, Note_off_c, 1, 63, 100
3, 16512, Note_on_c, 1, 64, 80
3, 16700, Note_off_c, 1, 64, 100
3, 16704, Note_on_c, 1, 59, 80
3, 17084, Note_off_c, 1, 59, 100
3, 17088, Note_on_c, 1, 47, 80
3, 17276, Note_off_c, 1, 47, 100
3, 17280, Note_on_c, 1, 49, 80
3, 17852, Note_off_c, 1, 49, 100
3, 17856, Note_on_c, 1, 64, 80
3, 18044, Note_off_c, 1, 64, 100
3, 18048, Note_on_c, 1, 66, 80
3, 18236, Note_off_c, 1, 66, 100
3, 18240, Note_on_c, 1, 68, 80
3, 18428, Note_off_c, 1, 68, 100
3, 18432, Note_on_c, 1, 58, 80
3, 19004, Note_off_c, 1, 58, 100
3, 19008, Note_on_c, 1, 57, 80
3, 19008, Note_on_c, 1, 63, 80
3, 19196, Note_off_c, 1, 63, 100
3, 19200, Note_on_c, 1, 61, 80
3, 19388, Note_off_c, 1, 61, 100
3, 19392, Note_on_c, 1, 59, 80
3, 19580, Note_off_c, 1, 57, 100
3, 19580, Note_off_c, 1, 59, 100
3, 19584, Note_on_c, 1, 65, 80
3, 19584, Note_on_c, 1, 56, 80
3, 20156, Note_off_c, 1, 65, 100
3, 20156, Note_off_c, 1, 56, 100
3, 20160, Note_on_c, 1, 42, 80
3, 20348, Note_off_c, 1, 42, 100
3, 20352, Note_on_c, 1, 44, 80
3, 20540, Note_off_c, 1, 44, 100
3, 20544, Note_on_c, 1, 45, 80
3, 20732, Note_off_c, 1, 45, 100
3, 20736, Note_on_c, 1, 47, 80
3, 20924, Note_off_c, 1, 47, 100
3, 20928, Note_on_c, 1, 58, 83
3, 21116, Note_off_c, 1, 58, 100
3, 21120, Note_on_c, 1, 59, 86
3, 21308, Note_off_c, 1, 59, 100
3, 21312, Note_on_c, 1, 64, 89
3, 21692, Note_off_c, 1, 64, 100
3, 22272, Note_on_c, 1, 47, 80
3, 22272, Note_on_c, 1, 35, 80
3, 22844, Note_off_c, 1, 47, 100
3, 22844, Note_off_c, 1, 35, 100
3, 22848, Note_on_c, 1, 45, 80
3, 22848, Note_on_c, 1, 33, 80
3, 23036, Note_off_c, 1, 45, 100
3, 23036, Note_off_c, 1, 33, 100
3, 23040, Note_on_c, 1, 44, 80
3, 23040, Note_on_c, 1, 32, 80
3, 23228, Note_off_c, 1, 44, 100
3, 23228, Note_off_c, 1, 32, 100
3, 23232, Note_on_c, 1, 58, 83
3, 23420, Note_off_c, 1, 58, 100
3, 23424, Note_on_c, 1, 59, 86
3, 23612, Note_off_c, 1, 59, 100
3, 23616, Note_on_c, 1, 68, 89
3, 23996, Note_off_c, 1, 68, 100
3, 24576, Note_on_c, 1, 47, 80
3, 24576, Note_on_c, 1, 35, 80
3, 25148, Note_off_c, 1, 47, 100
3, 25148, Note_off_c, 1, 35, 100
3, 25152, Note_on_c, 1, 45, 80
3, 25152, Note_on_c, 1, 33, 80
3, 25340, Note_off_c, 1, 45, 100
3, 25340, Note_off_c, 1, 33, 100
3, 25344, Note_on_c, 1, 44, 80
3, 25344, Note_on_c, 1, 32, 80
3, 25532, Note_off_c, 1, 44, 100
3, 25532, Note_off_c, 1, 32, 100
3, 25536, Note_on_c, 1, 58, 82
3, 25724, Note_off_c, 1, 58, 100
3, 25728, Note_on_c, 1, 59, 85
3, 25916, Note_off_c, 1, 59, 100
3, 25920, Note_on_c, 1, 71, 88
3, 26108, Note_off_c, 1, 71, 100
3, 26880, Note_on_c, 1, 47, 103
3, 26880, Note_on_c, 1, 35, 103
3, 27452, Note_off_c, 1, 47, 100
3, 27452, Note_off_c, 1, 35, 100
3, 27456, Note_on_c, 1, 59, 80
3, 27456, Note_on_c, 1, 47, 80
3, 27644, Note_off_c, 1, 59, 100
3, 27644, Note_off_c, 1, 47, 100
3, 27648, Note_on_c, 1, 52, 80
3, 27648, Note_on_c, 1, 40, 80
3, 28028, Note_off_c, 1, 52, 100
3, 28028, Note_off_c, 1, 40, 100
3, 28224, Note_on_c, 1, 47, 80
3, 28224, Note_on_c, 1, 59, 80
3, 28796, Note_off_c, 1, 47, 100
3, 28796, Note_off_c, 1, 59, 100
3, 28800, Note_on_c, 1, 56, 80
3, 28800, Note_on_c, 1, 47, 80
3, 28800, Note_on_c, 1, 44, 80
3, 29372, Note_off_c, 1, 56, 100
3, 29372, Note_off_c, 1, 47, 100
3, 29372, Note_off_c, 1, 44, 100
3, 29376, Note_on_c, 1, 54, 80
3, 29376, Note_on_c, 1, 47, 80
3, 29376, Note_on_c, 1, 42, 80
3, 29948, Note_off_c, 1, 54, 100
3, 29948, Note_off_c, 1, 47, 100
3, 29948, Note_off_c, 1, 42, 100
3, 29952, Note_on_c, 1, 52, 80
3, 29952, Note_on_c, 1, 47, 80
3, 29952, Note_on_c, 1, 40, 80
3, 30524, Note_off_c, 1, 52, 100
3, 30524, Note_off_c, 1, 47, 100
3, 30524, Note_off_c, 1, 40, 100
3, 30528, Note_on_c, 1, 47, 80
3, 31100, Note_off_c, 1, 47, 100
3, 31104, Note_on_c, 1, 47, 80
3, 31104, Note_on_c, 1, 44, 80
3, 31676, Note_off_c, 1, 47, 100
3, 31676, Note_off_c, 1, 44, 100
3, 31680, Note_on_c, 1, 47, 80
3, 31680, Note_on_c, 1, 42, 80
3, 32252, Note_off_c, 1, 47, 100
3, 32252, Note_off_c, 1, 42, 100
3, 32256, Note_on_c, 1, 47, 80
3, 32256, Note_on_c, 1, 40, 80
3, 32636, Note_off_c, 1, 47, 100
3, 32636, Note_off_c, 1, 40, 100
3, 32640, Note_on_c, 1, 52, 80
3, 32640, Note_on_c, 1, 47, 80
3, 32640, Note_on_c, 1, 40, 80
3, 33212, Note_off_c, 1, 52, 100
3, 33212, Note_off_c, 1, 47, 100
3, 33212, Note_off_c, 1, 40, 100
3, 33216, Note_on_c, 1, 52, 80
3, 33216, Note_on_c, 1, 47, 80
3, 33216, Note_on_c, 1, 40, 80
3, 33788, Note_off_c, 1, 40, 100
3, 33788, Note_off_c, 1, 47, 100
3, 33788, Note_off_c, 1, 52, 100
3, 33792, Note_on_c, 1, 52, 80
3, 33792, Note_on_c, 1, 47, 80
3, 33792, Note_on_c, 1, 40, 80
3, 34364, Note_off_c, 1, 52, 100
3, 34364, Note_off_c, 1, 47, 100
3, 34364, Note_off_c, 1, 40, 100
3, 34368, Note_on_c, 1, 52, 80
3, 34368, Note_on_c, 1, 47, 80
3, 34368, Note_on_c, 1, 40, 80
3, 34940, Note_off_c, 1, 40, 100
3, 34940, Note_off_c, 1, 47, 100
3, 34940, Note_off_c, 1, 52, 100
3, 34944, Note_on_c, 1, 51, 80
3, 34944, Note_on_c, 1, 47, 80
3, 34944, Note_on_c, 1, 40, 80
3, 35516, Note_off_c, 1, 51, 100
3, 35516, Note_off_c, 1, 47, 100
3, 35516, Note_off_c, 1, 40, 100
3, 35520, Note_on_c, 1, 52, 80
3, 35520, Note_on_c, 1, 47, 80
3, 35520, Note_on_c, 1, 40, 80
3, 36092, Note_off_c, 1, 40, 100
3, 36092, Note_off_c, 1, 47, 100
3, 36092, Note_off_c, 1, 52, 100
3, 36096, Note_on_c, 1, 52, 80
3, 36096, Note_on_c, 1, 47, 80
3, 36096, Note_on_c, 1, 40, 80
3, 36668, Note_off_c, 1, 52, 100
3, 36668, Note_off_c, 1, 47, 100
3, 36668, Note_off_c, 1, 40, 100
3, 36672, Note_on_c, 1, 52, 80
3, 36672, Note_on_c, 1, 47, 80
3, 36672, Note_on_c, 1, 40, 80
3, 37244, Note_off_c, 1, 40, 100
3, 37244, Note_off_c, 1, 47, 100
3, 37244, Note_off_c, 1, 52, 100
3, 37248, Note_on_c, 1, 59, 80
3, 37248, Note_on_c, 1, 56, 80
3, 37248, Note_on_c, 1, 52, 80
3, 37820, Note_off_c, 1, 59, 100
3, 37820, Note_off_c, 1, 56, 100
3, 37820, Note_off_c, 1, 52, 100
3, 37824, Note_on_c, 1, 59, 80
3, 37824, Note_on_c, 1, 56, 80
3, 37824, Note_on_c, 1, 52, 80
3, 38396, Note_off_c, 1, 52, 100
3, 38396, Note_off_c, 1, 56, 100
3, 38396, Note_off_c, 1, 59, 100
3, 39168, Note_on_c, 1, 52, 70
3, 39360, Note_on_c, 1, 47, 70
3, 39548, Note_off_c, 1, 52, 100
3, 39552, Note_on_c, 1, 54, 70
3, 39740, Note_off_c, 1, 54, 100
3, 39744, Note_on_c, 1, 56, 70
3, 39932, Note_off_c, 1, 47, 100
3, 39932, Note_off_c, 1, 56, 100
3, 39936, Note_on_c, 1, 52, 70
3, 40128, Note_on_c, 1, 57, 70
3, 40316, Note_off_c, 1, 57, 100
3, 40320, Note_on_c, 1, 61, 70
3, 40508, Note_off_c, 1, 52, 100
3, 40512, Note_on_c, 1, 52, 70
3, 40700, Note_off_c, 1, 61, 100
3, 40704, Note_on_c, 1, 59, 70
3, 40892, Note_off_c, 1, 59, 100
3, 40896, Note_on_c, 1, 56, 70
3, 41276, Note_off_c, 1, 52, 100
3, 41276, Note_off_c, 1, 56, 100
3, 42624, Note_on_c, 1, 53, 70
3, 42816, Note_on_c, 1, 49, 70
3, 43004, Note_off_c, 1, 53, 100
3, 43008, Note_on_c, 1, 54, 70
3, 43196, Note_off_c, 1, 54, 100
3, 43200, Note_on_c, 1, 56, 70
3, 43388, Note_off_c, 1, 49, 100
3, 43392, Note_on_c, 1, 49, 70
3, 43580, Note_off_c, 1, 56, 100
3, 43584, Note_on_c, 1, 57, 70
3, 43772, Note_off_c, 1, 57, 100
3, 43776, Note_on_c, 1, 61, 70
3, 43964, Note_off_c, 1, 49, 100
3, 43968, Note_on_c, 1, 49, 70
3, 44156, Note_off_c, 1, 61, 100
3, 44160, Note_on_c, 1, 59, 70
3, 44348, Note_off_c, 1, 59, 100
3, 44352, Note_on_c, 1, 56, 70
3, 44732, Note_off_c, 1, 49, 100
3, 44732, Note_off_c, 1, 56, 100
3, 45888, Note_on_c, 1, 42, 80
3, 45888, Note_on_c, 1, 30, 80
3, 46460, Note_off_c, 1, 30, 100
3, 46460, Note_off_c, 1, 42, 100
3, 46464, Note_on_c, 1, 42, 88
3, 46464, Note_on_c, 1, 30, 88
3, 47036, Note_off_c, 1, 42, 100
3, 47036, Note_off_c, 1, 30, 100
3, 47040, Note_on_c, 1, 42, 96
3, 47040, Note_on_c, 1, 30, 96
3, 47612, Note_off_c, 1, 30, 100
3, 47612, Note_off_c, 1, 42, 100
3, 47616, Note_on_c, 1, 42, 104
3, 47616, Note_on_c, 1, 30, 104
3, 48188, Note_off_c, 1, 42, 100
3, 48188, Note_off_c, 1, 30, 100
3, 48192, Note_on_c, 1, 69, 80
3, 48192, Note_on_c, 1, 66, 80
3, 48764, Note_off_c, 1, 66, 100
3, 48764, Note_off_c, 1, 69, 100
3, 48768, Note_on_c, 1, 69, 80
3, 48768, Note_on_c, 1, 66, 80
3, 49340, Note_off_c, 1, 69, 100
3, 49340, Note_off_c, 1, 66, 100
3, 49344, Note_on_c, 1, 40, 110
3, 49344, Note_on_c, 1, 28, 110
3, 49916, Note_off_c, 1, 28, 100
3, 49916, Note_off_c, 1, 40, 100
3, 49920, Note_on_c, 1, 40, 110
3, 49920, Note_on_c, 1, 28, 110
3, 50492, Note_off_c, 1, 40, 100
3, 50492, Note_off_c, 1, 28, 100
3, 50496, Note_on_c, 1, 69, 80
3, 50496, Note_on_c, 1, 67, 80
3, 50496, Note_on_c, 1, 64, 80
3, 51068, Note_off_c, 1, 64, 100
3, 51068, Note_off_c, 1, 67, 100
3, 51068, Note_off_c, 1, 69, 100
3, 51072, Note_on_c, 1, 69, 80
3, 51072, Note_on_c, 1, 67, 80
3, 51072, Note_on_c, 1, 64, 80
3, 51644, Note_off_c, 1, 69, 100
3, 51644, Note_off_c, 1, 67, 100
3, 51644, Note_off_c, 1, 64, 100
3, 51648, Note_on_c, 1, 69, 81
3, 51648, Note_on_c, 1, 66, 81
3, 51648, Note_on_c, 1, 62, 81
3, 52220, Note_off_c, 1, 62, 100
3, 52220, Note_off_c, 1, 66, 100
3, 52220, Note_off_c, 1, 69, 100
3, 52224, Note_on_c, 1, 66, 86
3, 52224, Note_on_c, 1, 62, 86
3, 52796, Note_off_c, 1, 66, 100
3, 52796, Note_off_c, 1, 62, 100
3, 52800, Note_on_c, 1, 66, 91
3, 52800, Note_on_c, 1, 61, 91
3, 52800, Note_on_c, 1, 58, 91
3, 53372, Note_off_c, 1, 58, 100
3, 53372, Note_off_c, 1, 61, 100
3, 53372, Note_off_c, 1, 66, 100
3, 53376, Note_on_c, 1, 66, 95
3, 53376, Note_on_c, 1, 61, 95
3, 53376, Note_on_c, 1, 58, 95
3, 53948, Note_off_c, 1, 66, 100
3, 53948, Note_off_c, 1, 61, 100
3, 53948, Note_off_c, 1, 58, 100
3, 53952, Note_on_c, 1, 66, 100
3, 53952, Note_on_c, 1, 62, 100
3, 53952, Note_on_c, 1, 59, 100
3, 54524, Note_off_c, 1, 59, 100
3, 54524, Note_off_c, 1, 62, 100
3, 54524, Note_off_c, 1, 66, 100
3, 54528, Note_on_c, 1, 66, 105
3, 54528, Note_on_c, 1, 62, 105
3, 54528, Note_on_c, 1, 59, 105
3, 54716, Note_off_c, 1, 66, 100
3, 54716, Note_off_c, 1, 62, 100
3, 54716, Note_off_c, 1, 59, 100
3, 54720, Note_on_c, 1, 66, 106
3, 54720, Note_on_c, 1, 61, 106
3, 54720, Note_on_c, 1, 58, 106
3, 55100, Note_off_c, 1, 66, 100
3, 55100, Note_off_c, 1, 61, 100
3, 55100, Note_off_c, 1, 58, 100
3, 55104, Note_on_c, 1, 66, 109
3, 55104, Note_on_c, 1, 61, 109
3, 55104, Note_on_c, 1, 58, 109
3, 55292, Note_off_c, 1, 66, 100
3, 55292, Note_off_c, 1, 61, 100
3, 55292, Note_off_c, 1, 58, 100
3, 55296, Note_on_c, 1, 66, 110
3, 55296, Note_on_c, 1, 61, 110
3, 55296, Note_on_c, 1, 57, 110
3, 55676, Note_off_c, 1, 66, 100
3, 55676, Note_off_c, 1, 61, 100
3, 55676, Note_off_c, 1, 57, 100
3, 55680, Note_on_c, 1, 66, 110
3, 55680, Note_on_c, 1, 61, 110
3, 55680, Note_on_c, 1, 57, 110
3, 55868, Note_off_c, 1, 66, 100
3, 55868, Note_off_c, 1, 61, 100
3, 55868, Note_off_c, 1, 57, 100
3, 55872, Note_on_c, 1, 63, 110
3, 55872, Note_on_c, 1, 56, 110
3, 56252, Note_off_c, 1, 63, 100
3, 56252, Note_off_c, 1, 56, 100
3, 56256, Note_on_c, 1, 63, 110
3, 56256, Note_on_c, 1, 56, 110
3, 56444, Note_off_c, 1, 63, 100
3, 56444, Note_off_c, 1, 56, 100
3, 56640, Note_on_c, 1, 44, 110
3, 56640, Note_on_c, 1, 32, 110
3, 56828, Note_off_c, 1, 44, 100
3, 56828, Note_off_c, 1, 32, 100
3, 56832, Note_on_c, 1, 48, 110
3, 56832, Note_on_c, 1, 36, 110
3, 57020, Note_off_c, 1, 48, 100
3, 57020, Note_off_c, 1, 36, 100
3, 57216, Note_on_c, 1, 49, 110
3, 57216, Note_on_c, 1, 37, 110
3, 57404, Note_off_c, 1, 49, 100
3, 57404, Note_off_c, 1, 37, 100
3, 57408, Note_on_c, 1, 51, 110
3, 57408, Note_on_c, 1, 39, 110
3, 57596, Note_off_c, 1, 51, 100
3, 57596, Note_off_c, 1, 39, 100
3, 57792, Note_on_c, 1, 52, 110
3, 57792, Note_on_c, 1, 40, 110
3, 57980, Note_off_c, 1, 52, 100
3, 57980, Note_off_c, 1, 40, 100
3, 57984, Note_on_c, 1, 54, 110
3, 57984, Note_on_c, 1, 42, 110
3, 58172, Note_off_c, 1, 54, 100
3, 58172, Note_off_c, 1, 42, 100
3, 58368, Note_on_c, 1, 55, 100
3, 58368, Note_on_c, 1, 43, 100
3, 58556, Note_off_c, 1, 55, 100
3, 58556, Note_off_c, 1, 43, 100
3, 58560, Note_on_c, 1, 56, 90
3, 58560, Note_on_c, 1, 44, 90
3, 58748, Note_off_c, 1, 56, 100
3, 58748, Note_off_c, 1, 44, 100
3, 58752, Note_on_c, 1, 48, 80
3, 58752, Note_on_c, 1, 36, 80
3, 59324, Note_off_c, 1, 48, 100
3, 59324, Note_off_c, 1, 36, 100
3, 59328, Note_on_c, 1, 66, 80
3, 59328, Note_on_c, 1, 60, 80
3, 59708, Note_off_c, 1, 66, 100
3, 59708, Note_off_c, 1, 60, 100
3, 59712, Note_on_c, 1, 64, 80
3, 59712, Note_on_c, 1, 61, 80
3, 59900, Note_off_c, 1, 64, 100
3, 59900, Note_off_c, 1, 61, 100
3, 59904, Note_on_c, 1, 56, 80
3, 59904, Note_on_c, 1, 52, 80
3, 59904, Note_on_c, 1, 49, 80
3, 60284, Note_off_c, 1, 56, 100
3, 60284, Note_off_c, 1, 52, 100
3, 60284, Note_off_c, 1, 49, 100
3, 60288, Note_on_c, 1, 57, 80
3, 60288, Note_on_c, 1, 52, 80
3, 60288, Note_on_c, 1, 49, 80
3, 60476, Note_off_c, 1, 57, 100
3, 60476, Note_off_c, 1, 52, 100
3, 60476, Note_off_c, 1, 49, 100
3, 60480, Note_on_c, 1, 64, 80
3, 60480, Note_on_c, 1, 61, 80
3, 60860, Note_off_c, 1, 64, 100
3, 60860, Note_off_c, 1, 61, 100
3, 60864, Note_on_c, 1, 66, 80
3, 60864, Note_on_c, 1, 63, 80
3, 61052, Note_off_c, 1, 66, 100
3, 61052, Note_off_c, 1, 63, 100
3, 61056, Note_on_c, 1, 51, 80
3, 61056, Note_on_c, 1, 58, 80
3, 61436, Note_off_c, 1, 58, 100
3, 61440, Note_on_c, 1, 59, 80
3, 61628, Note_off_c, 1, 51, 100
3, 61628, Note_off_c, 1, 59, 100
3, 61632, Note_on_c, 1, 66, 80
3, 61632, Note_on_c, 1, 63, 80
3, 62012, Note_off_c, 1, 66, 100
3, 62012, Note_off_c, 1, 63, 100
3, 62016, Note_on_c, 1, 64, 80
3, 62204, Note_off_c, 1, 64, 100
3, 62208, Note_on_c, 1, 74, 80
3, 62400, Note_on_c, 1, 64, 80
3, 62588, Note_off_c, 1, 74, 100
3, 62592, Note_on_c, 1, 72, 80
3, 62780, Note_off_c, 1, 72, 100
3, 62784, Note_on_c, 1, 71, 80
3, 62972, Note_off_c, 1, 64, 100
3, 62976, Note_on_c, 1, 64, 80
3, 63164, Note_off_c, 1, 71, 100
3, 63168, Note_on_c, 1, 69, 80
3, 63356, Note_off_c, 1, 64, 100
3, 63356, Note_off_c, 1, 69, 100
3, 63360, Note_on_c, 1, 52, 80
3, 63740, Note_off_c, 1, 52, 100
3, 63744, Note_on_c, 1, 53, 80
3, 63932, Note_off_c, 1, 53, 100
3, 63936, Note_on_c, 1, 56, 80
3, 64316, Note_off_c, 1, 56, 100
3, 64320, Note_on_c, 1, 57, 80
3, 64508, Note_off_c, 1, 57, 100
3, 64512, Note_on_c, 1, 59, 80
3, 64704, Note_on_c, 1, 68, 80
3, 64892, Note_off_c, 1, 59, 100
3, 64892, Note_off_c, 1, 68, 100
3, 64896, Note_on_c, 1, 69, 80
3, 64896, Note_on_c, 1, 60, 80
3, 65084, Note_off_c, 1, 69, 100
3, 65084, Note_off_c, 1, 60, 100
3, 65088, Note_on_c, 1, 65, 80
3, 65088, Note_on_c, 1, 62, 80
3, 65468, Note_off_c, 1, 65, 100
3, 65468, Note_off_c, 1, 62, 100
3, 65472, Note_on_c, 1, 66, 80
3, 65472, Note_on_c, 1, 63, 80
3, 65660, Note_off_c, 1, 66, 100
3, 65660, Note_off_c, 1, 63, 100
3, 65664, Note_on_c, 1, 64, 80
3, 65664, Note_on_c, 1, 52, 80
3, 66044, Note_off_c, 1, 64, 100
3, 66048, Note_on_c, 1, 63, 80
3, 66236, Note_off_c, 1, 63, 100
3, 66240, Note_on_c, 1, 62, 80
3, 66620, Note_off_c, 1, 62, 100
3, 66624, Note_on_c, 1, 61, 80
3, 66812, Note_off_c, 1, 61, 100
3, 66816, Note_on_c, 1, 59, 80
3, 67004, Note_off_c, 1, 52, 100
3, 67004, Note_off_c, 1, 59, 100
3, 67008, Note_on_c, 1, 52, 80
3, 67200, Note_on_c, 1, 57, 80
3, 67200, Note_on_c, 1, 54, 80
3, 67388, Note_off_c, 1, 57, 100
3, 67388, Note_off_c, 1, 54, 100
3, 67392, Note_on_c, 1, 59, 80
3, 67392, Note_on_c, 1, 56, 80
3, 67580, Note_off_c, 1, 52, 100
3, 67580, Note_off_c, 1, 59, 100
3, 67580, Note_off_c, 1, 56, 100
3, 67584, Note_on_c, 1, 56, 82
3, 67584, Note_on_c, 1, 52, 82
3, 67584, Note_on_c, 1, 44, 82
3, 67772, Note_off_c, 1, 56, 100
3, 67772, Note_off_c, 1, 52, 100
3, 67772, Note_off_c, 1, 44, 100
3, 67776, Note_on_c, 1, 57, 84
3, 67776, Note_on_c, 1, 52, 84
3, 67776, Note_on_c, 1, 45, 84
3, 67964, Note_off_c, 1, 57, 100
3, 67964, Note_off_c, 1, 52, 100
3, 67964, Note_off_c, 1, 45, 100
3, 67968, Note_on_c, 1, 59, 87
3, 67968, Note_on_c, 1, 47, 87
3, 68156, Note_off_c, 1, 59, 100
3, 68156, Note_off_c, 1, 47, 100
3, 68160, Note_on_c, 1, 47, 89
3, 68160, Note_on_c, 1, 35, 89
3, 68348, Note_off_c, 1, 47, 100
3, 68348, Note_off_c, 1, 35, 100
3, 68352, Note_on_c, 1, 48, 92
3, 68352, Note_on_c, 1, 36, 92
3, 68540, Note_off_c, 1, 48, 100
3, 68540, Note_off_c, 1, 36, 100
3, 68544, Note_on_c, 1, 49, 94
3, 68544, Note_on_c, 1, 37, 94
3, 68924, Note_off_c, 1, 49, 100
3, 68924, Note_off_c, 1, 37, 100
3, 68928, Note_on_c, 1, 49, 99
3, 68928, Note_on_c, 1, 37, 99
3, 69116, Note_off_c, 1, 49, 100
3, 69116, Note_off_c, 1, 37, 100
3, 69120, Note_on_c, 1, 49, 100
3, 69120, Note_on_c, 1, 37, 100
3, 69692, Note_off_c, 1, 49, 100
3, 69692, Note_off_c, 1, 37, 100
3, 69696, Note_on_c, 1, 50, 100
3, 69696, Note_on_c, 1, 38, 100
3, 70268, Note_off_c, 1, 50, 100
3, 70268, Note_off_c, 1, 38, 100
3, 70272, Note_on_c, 1, 51, 100
3, 70272, Note_on_c, 1, 39, 100
3, 70844, Note_off_c, 1, 51, 100
3, 70844, Note_off_c, 1, 39, 100
3, 70848, Note_on_c, 1, 52, 100
3, 70848, Note_on_c, 1, 40, 100
3, 71420, Note_off_c, 1, 52, 100
3, 71420, Note_off_c, 1, 40, 100
3, 71424, Note_on_c, 1, 54, 100
3, 71424, Note_on_c, 1, 42, 100
3, 71996, Note_off_c, 1, 54, 100
3, 71996, Note_off_c, 1, 42, 100
3, 72000, Note_on_c, 1, 56, 95
3, 72000, Note_on_c, 1, 44, 95
3, 72572, Note_off_c, 1, 56, 100
3, 72572, Note_off_c, 1, 44, 100
3, 72576, Note_on_c, 1, 52, 90
3, 72576, Note_on_c, 1, 47, 90
3, 72576, Note_on_c, 1, 59, 90
3, 73340, Note_off_c, 1, 52, 100
3, 73340, Note_off_c, 1, 47, 100
3, 73340, Note_off_c, 1, 59, 100
3, 73344, Note_on_c, 1, 56, 82
3, 73344, Note_on_c, 1, 52, 82
3, 73344, Note_on_c, 1, 44, 82
3, 73532, Note_off_c, 1, 56, 100
3, 73532, Note_off_c, 1, 52, 100
3, 73532, Note_off_c, 1, 44, 100
3, 73536, Note_on_c, 1, 57, 81
3, 73536, Note_on_c, 1, 52, 81
3, 73536, Note_on_c, 1, 45, 81
3, 73724, Note_off_c, 1, 57, 100
3, 73724, Note_off_c, 1, 52, 100
3, 73724, Note_off_c, 1, 45, 100
3, 73728, Note_on_c, 1, 56, 80
3, 73728, Note_on_c, 1, 52, 80
3, 73728, Note_on_c, 1, 47, 80
3, 74492, Note_off_c, 1, 56, 100
3, 74492, Note_off_c, 1, 52, 100
3, 74492, Note_off_c, 1, 47, 100
3, 74496, Note_on_c, 1, 56, 80
3, 74496, Note_on_c, 1, 52, 80
3, 74496, Note_on_c, 1, 47, 80
3, 74684, Note_off_c, 1, 56, 100
3, 74684, Note_off_c, 1, 52, 100
3, 74684, Note_off_c, 1, 47, 100
3, 74688, Note_on_c, 1, 57, 80
3, 74688, Note_on_c, 1, 52, 80
3, 74688, Note_on_c, 1, 49, 80
3, 74876, Note_off_c, 1, 57, 100
3, 74876, Note_off_c, 1, 52, 100
3, 74876, Note_off_c, 1, 49, 100
3, 74880, Note_on_c, 1, 57, 80
3, 74880, Note_on_c, 1, 54, 80
3, 74880, Note_on_c, 1, 50, 80
3, 75260, Note_off_c, 1, 57, 100
3, 75260, Note_off_c, 1, 54, 100
3, 75260, Note_off_c, 1, 50, 100
3, 75264, Note_on_c, 1, 57, 87
3, 75264, Note_on_c, 1, 54, 87
3, 75264, Note_on_c, 1, 51, 87
3, 75452, Note_off_c, 1, 57, 100
3, 75452, Note_off_c, 1, 54, 100
3, 75452, Note_off_c, 1, 51, 100
3, 75456, Note_on_c, 1, 56, 91
3, 75456, Note_on_c, 1, 52, 91
3, 75836, Note_off_c, 1, 56, 100
3, 75836, Note_off_c, 1, 52, 100
3, 75840, Note_on_c, 1, 57, 99
3, 75840, Note_on_c, 1, 54, 99
3, 76028, Note_off_c, 1, 57, 100
3, 76028, Note_off_c, 1, 54, 100
3, 76032, Note_on_c, 1, 56, 100
3, 76412, Note_off_c, 1, 56, 100
3, 76416, Note_on_c, 1, 57, 93
3, 76604, Note_off_c, 1, 57, 100
3, 76608, Note_on_c, 1, 52, 89
3, 76796, Note_off_c, 1, 52, 100
3, 76800, Note_on_c, 1, 40, 85
3, 76988, Note_off_c, 1, 40, 100
3, 76992, Note_on_c, 1, 41, 81
3, 77180, Note_off_c, 1, 41, 100
3, 77184, Note_on_c, 1, 42, 80
3, 77756, Note_off_c, 1, 42, 100
3, 77760, Note_on_c, 1, 69, 80
3, 77948, Note_off_c, 1, 69, 100
3, 77952, Note_on_c, 1, 71, 80
3, 78140, Note_off_c, 1, 71, 100
3, 78144, Note_on_c, 1, 73, 80
3, 78332, Note_off_c, 1, 73, 100
3, 78336, Note_on_c, 1, 63, 80
3, 78908, Note_off_c, 1, 63, 100
3, 78912, Note_on_c, 1, 62, 80
3, 78912, Note_on_c, 1, 68, 80
3, 79100, Note_off_c, 1, 68, 100
3, 79104, Note_on_c, 1, 69, 80
3, 79292, Note_off_c, 1, 69, 100
3, 79296, Note_on_c, 1, 71, 80
3, 79484, Note_off_c, 1, 62, 100
3, 79484, Note_off_c, 1, 71, 100
3, 79488, Note_on_c, 1, 70, 80
3, 79488, Note_on_c, 1, 61, 80
3, 80060, Note_off_c, 1, 70, 100
3, 80060, Note_off_c, 1, 61, 100
3, 80064, Note_on_c, 1, 47, 80
3, 80252, Note_off_c, 1, 47, 100
3, 80256, Note_on_c, 1, 49, 80
3, 80444, Note_off_c, 1, 49, 100
3, 80448, Note_on_c, 1, 50, 80
3, 80636, Note_off_c, 1, 50, 100
3, 80640, Note_on_c, 1, 52, 80
3, 80828, Note_off_c, 1, 52, 100
3, 80832, Note_on_c, 1, 63, 83
3, 81020, Note_off_c, 1, 63, 100
3, 81024, Note_on_c, 1, 64, 86
3, 81212, Note_off_c, 1, 64, 100
3, 81216, Note_on_c, 1, 69, 89
3, 81596, Note_off_c, 1, 69, 100
3, 82176, Note_on_c, 1, 52, 80
3, 82176, Note_on_c, 1, 40, 80
3, 82748, Note_off_c, 1, 52, 100
3, 82748, Note_off_c, 1, 40, 100
3, 82752, Note_on_c, 1, 50, 80
3, 82752, Note_on_c, 1, 38, 80
3, 82940, Note_off_c, 1, 50, 100
3, 82940, Note_off_c, 1, 38, 100
3, 82944, Note_on_c, 1, 49, 80
3, 82944, Note_on_c, 1, 37, 80
3, 83132, Note_off_c, 1, 49, 100
3, 83132, Note_off_c, 1, 37, 100
3, 83136, Note_on_c, 1, 63, 83
3, 83324, Note_off_c, 1, 63, 100
3, 83328, Note_on_c, 1, 64, 86
3, 83516, Note_off_c, 1, 64, 100
3, 83520, Note_on_c, 1, 73, 89
3, 83900, Note_off_c, 1, 73, 100
3, 84480, Note_on_c, 1, 40, 80
3, 84480, Note_on_c, 1, 52, 80
3, 85052, Note_off_c, 1, 40, 100
3, 85052, Note_off_c, 1, 52, 100
3, 85056, Note_on_c, 1, 38, 80
3, 85056, Note_on_c, 1, 50, 80
3, 85244, Note_off_c, 1, 38, 100
3, 85244, Note_off_c, 1, 50, 100
3, 85248, Note_on_c, 1, 49, 80
3, 85248, Note_on_c, 1, 37, 80
3, 85436, Note_off_c, 1, 49, 100
3, 85436, Note_off_c, 1, 37, 100
3, 85440, Note_on_c, 1, 63, 82
3, 85628, Note_off_c, 1, 63, 100
3, 85632, Note_on_c, 1, 64, 85
3, 85820, Note_off_c, 1, 64, 100
3, 85824, Note_on_c, 1, 76, 88
3, 86012, Note_off_c, 1, 76, 100
3, 86784, Note_on_c, 1, 52, 103
3, 86784, Note_on_c, 1, 40, 103
3, 87356, Note_off_c, 1, 52, 100
3, 87356, Note_off_c, 1, 40, 100
3, 87360, Note_on_c, 1, 52, 80
3, 87360, Note_on_c, 1, 40, 80
3, 87548, Note_off_c, 1, 52, 100
3, 87548, Note_off_c, 1, 40, 100
3, 87552, Note_on_c, 1, 45, 80
3, 87552, Note_on_c, 1, 33, 80
3, 88124, Note_off_c, 1, 45, 100
3, 88124, Note_off_c, 1, 33, 100
3, 88128, Note_on_c, 1, 52, 80
3, 88128, Note_on_c, 1, 40, 80
3, 88700, Note_off_c, 1, 52, 100
3, 88700, Note_off_c, 1, 40, 100
3, 88704, Note_on_c, 1, 49, 80
3, 88704, Note_on_c, 1, 40, 80
3, 88704, Note_on_c, 1, 37, 80
3, 89276, Note_off_c, 1, 49, 100
3, 89276, Note_off_c, 1, 40, 100
3, 89276, Note_off_c, 1, 37, 100
3, 89280, Note_on_c, 1, 47, 80
3, 89280, Note_on_c, 1, 40, 80
3, 89280, Note_on_c, 1, 35, 80
3, 89852, Note_off_c, 1, 47, 100
3, 89852, Note_off_c, 1, 40, 100
3, 89852, Note_off_c, 1, 35, 100
3, 89856, Note_on_c, 1, 45, 80
3, 89856, Note_on_c, 1, 40, 80
3, 89856, Note_on_c, 1, 33, 80
3, 90428, Note_off_c, 1, 45, 100
3, 90428, Note_off_c, 1, 40, 100
3, 90428, Note_off_c, 1, 33, 100
3, 90432, Note_on_c, 1, 40, 80
3, 90816, Note_on_c, 1, 52, 80
3, 91004, Note_off_c, 1, 40, 100
3, 91004, Note_off_c, 1, 52, 100
3, 91008, Note_on_c, 1, 49, 80
3, 91008, Note_on_c, 1, 40, 80
3, 91008, Note_on_c, 1, 37, 80
3, 91580, Note_off_c, 1, 49, 100
3, 91580, Note_off_c, 1, 40, 100
3, 91580, Note_off_c, 1, 37, 100
3, 91584, Note_on_c, 1, 47, 80
3, 91584, Note_on_c, 1, 40, 80
3, 91584, Note_on_c, 1, 35, 80
3, 92156, Note_off_c, 1, 47, 100
3, 92156, Note_off_c, 1, 40, 100
3, 92156, Note_off_c, 1, 35, 100
3, 92160, Note_on_c, 1, 45, 80
3, 92160, Note_on_c, 1, 40, 80
3, 92160, Note_on_c, 1, 33, 80
3, 92540, Note_off_c, 1, 45, 100
3, 92540, Note_off_c, 1, 40, 100
3, 92540, Note_off_c, 1, 33, 100
3, 92544, Note_on_c, 1, 45, 80
3, 92544, Note_on_c, 1, 40, 80
3, 92544, Note_on_c, 1, 33, 80
3, 93116, Note_off_c, 1, 45, 100
3, 93116, Note_off_c, 1, 40, 100
3, 93116, Note_off_c, 1, 33, 100
3, 93120, Note_on_c, 1, 45, 80
3, 93120, Note_on_c, 1, 40, 80
3, 93120, Note_on_c, 1, 33, 80
3, 93692, Note_off_c, 1, 33, 100
3, 93692, Note_off_c, 1, 40, 100
3, 93692, Note_off_c, 1, 45, 100
3, 93696, Note_on_c, 1, 40, 80
3, 93696, Note_on_c, 1, 33, 80
3, 93696, Note_on_c, 1, 45, 80
3, 94268, Note_off_c, 1, 40, 100
3, 94268, Note_off_c, 1, 33, 100
3, 94268, Note_off_c, 1, 45, 100
3, 94272, Note_on_c, 1, 45, 80
3, 94272, Note_on_c, 1, 40, 80
3, 94272, Note_on_c, 1, 33, 80
3, 94844, Note_off_c, 1, 33, 100
3, 94844, Note_off_c, 1, 40, 100
3, 94844, Note_off_c, 1, 45, 100
3, 94848, Note_on_c, 1, 56, 80
3, 94848, Note_on_c, 1, 52, 80
3, 94848, Note_on_c, 1, 45, 80
3, 95420, Note_off_c, 1, 56, 100
3, 95420, Note_off_c, 1, 52, 100
3, 95420, Note_off_c, 1, 45, 100
3, 95424, Note_on_c, 1, 57, 80
3, 95424, Note_on_c, 1, 52, 80
3, 95424, Note_on_c, 1, 45, 80
3, 95996, Note_off_c, 1, 45, 100
3, 95996, Note_off_c, 1, 52, 100
3, 95996, Note_off_c, 1, 57, 100
3, 96000, Note_on_c, 1, 56, 80
3, 96000, Note_on_c, 1, 52, 80
3, 96000, Note_on_c, 1, 50, 80
3, 96000, Note_on_c, 1, 45, 80
3, 96572, Note_off_c, 1, 56, 100
3, 96572, Note_off_c, 1, 52, 100
3, 96572, Note_off_c, 1, 50, 100
3, 96572, Note_off_c, 1, 45, 100
3, 96576, Note_on_c, 1, 57, 80
3, 96576, Note_on_c, 1, 52, 80
3, 96576, Note_on_c, 1, 49, 80
3, 96576, Note_on_c, 1, 45, 80
3, 97148, Note_off_c, 1, 45, 100
3, 97148, Note_off_c, 1, 49, 100
3, 97148, Note_off_c, 1, 52, 100
3, 97148, Note_off_c, 1, 57, 100
3, 97152, Note_on_c, 1, 58, 93
3, 97152, Note_on_c, 1, 49, 93
3, 97152, Note_on_c, 1, 45, 93
3, 97152, Note_on_c, 1, 52, 93
3, 97152, Note_on_c, 1, 55, 93
3, 97724, Note_off_c, 1, 58, 100
3, 97724, Note_off_c, 1, 49, 100
3, 97724, Note_off_c, 1, 45, 100
3, 97724, Note_off_c, 1, 52, 100
3, 97724, Note_off_c, 1, 55, 100
3, 97728, Note_on_c, 1, 59, 106
3, 97728, Note_on_c, 1, 53, 106
3, 97728, Note_on_c, 1, 50, 106
3, 97728, Note_on_c, 1, 45, 106
3, 98300, Note_off_c, 1, 45, 100
3, 98300, Note_off_c, 1, 50, 100
3, 98300, Note_off_c, 1, 53, 100
3, 98300, Note_off_c, 1, 59, 100
3, 98304, Note_on_c, 1, 59, 119
3, 98304, Note_on_c, 1, 53, 119
3, 98304, Note_on_c, 1, 50, 119
3, 98304, Note_on_c, 1, 45, 119
3, 98876, Note_off_c, 1, 59, 100
3, 98876, Note_off_c, 1, 53, 100
3, 98876, Note_off_c, 1, 50, 100
3, 98876, Note_off_c, 1, 45, 100
3, 98880, Note_on_c, 1, 59, 120
3, 98880, Note_on_c, 1, 53, 120
3, 98880, Note_on_c, 1, 50, 120
3, 98880, Note_on_c, 1, 45, 120
3, 100412, Note_off_c, 1, 45, 100
3, 100412, Note_off_c, 1, 50, 100
3, 100412, Note_off_c, 1, 53, 100
3, 100412, Note_off_c, 1, 59, 100
3, 100416, Note_on_c, 1, 57, 80
3, 100604, Note_off_c, 1, 57, 100
3, 100608, Note_on_c, 1, 59, 80
3, 100796, Note_off_c, 1, 59, 100
3, 100800, Note_on_c, 1, 61, 80
3, 100988, Note_off_c, 1, 61, 100
3, 100992, Note_on_c, 1, 62, 80
3, 101180, Note_off_c, 1, 62, 100
3, 101184, Note_on_c, 1, 64, 80
3, 101372, Note_off_c, 1, 64, 100
3, 101376, Note_on_c, 1, 54, 80
3, 101948, Note_off_c, 1, 54, 100
3, 101952, Note_on_c, 1, 53, 80
3, 102524, Note_off_c, 1, 53, 100
3, 102528, Note_on_c, 1, 52, 80
3, 102528, Note_on_c, 1, 57, 80
3, 102716, Note_off_c, 1, 57, 100
3, 102720, Note_on_c, 1, 59, 80
3, 102908, Note_off_c, 1, 59, 100
3, 102912, Note_on_c, 1, 61, 80
3, 103100, Note_off_c, 1, 61, 100
3, 103104, Note_on_c, 1, 61, 80
3, 103292, Note_off_c, 1, 61, 100
3, 103296, Note_on_c, 1, 62, 80
3, 103484, Note_off_c, 1, 62, 100
3, 103488, Note_on_c, 1, 63, 80
3, 103676, Note_off_c, 1, 63, 100
3, 103680, Note_on_c, 1, 64, 80
3, 103868, Note_off_c, 1, 64, 100
3, 103872, Note_on_c, 1, 62, 80
3, 104060, Note_off_c, 1, 62, 100
3, 104064, Note_on_c, 1, 61, 80
3, 104252, Note_off_c, 1, 52, 100
3, 104252, Note_off_c, 1, 61, 100
3, 104256, Note_on_c, 1, 52, 80
3, 104256, Note_on_c, 1, 59, 80
3, 104444, Note_off_c, 1, 59, 100
3, 104448, Note_on_c, 1, 62, 80
3, 104636, Note_off_c, 1, 62, 100
3, 104640, Note_on_c, 1, 61, 80
3, 104732, Note_off_c, 1, 61, 100
3, 104736, Note_on_c, 1, 59, 80
3, 104828, Note_off_c, 1, 52, 100
3, 104828, Note_off_c, 1, 59, 100
3, 104832, Note_on_c, 1, 57, 80
3, 104832, Note_on_c, 1, 45, 80
3, 105404, Note_off_c, 1, 57, 100
3, 105404, Note_off_c, 1, 45, 100
3, 105408, Note_on_c, 1, 69, 80
3, 105408, Note_on_c, 1, 66, 80
3, 105980, Note_off_c, 1, 69, 100
3, 105980, Note_off_c, 1, 66, 100
3, 105984, Note_on_c, 1, 68, 89
3, 105984, Note_on_c, 1, 65, 89
3, 106556, Note_off_c, 1, 68, 100
3, 106556, Note_off_c, 1, 65, 100
3, 106560, Note_on_c, 1, 66, 99
3, 106560, Note_on_c, 1, 63, 99
3, 106560, Note_on_c, 1, 57, 99
3, 107132, Note_off_c, 1, 66, 100
3, 107132, Note_off_c, 1, 63, 100
3, 107132, Note_off_c, 1, 57, 100
3, 107136, Note_on_c, 1, 64, 109
3, 107136, Note_on_c, 1, 62, 109
3, 107136, Note_on_c, 1, 59, 109
3, 107136, Note_on_c, 1, 56, 109
3, 107708, Note_off_c, 1, 64, 100
3, 107708, Note_off_c, 1, 62, 100
3, 107708, Note_off_c, 1, 59, 100
3, 107708, Note_off_c, 1, 56, 100
3, 107712, Note_on_c, 1, 64, 100
3, 107712, Note_on_c, 1, 61, 100
3, 107712, Note_on_c, 1, 57, 100
3, 108284, Note_off_c, 1, 64, 100
3, 108284, Note_off_c, 1, 61, 100
3, 108284, Note_off_c, 1, 57, 100
3, 108288, Note_on_c, 1, 62, 80
3, 108288, Note_on_c, 1, 50, 80
3, 108476, Note_off_c, 1, 62, 100
3, 108480, Note_on_c, 1, 59, 80
3, 108668, Note_off_c, 1, 59, 100
3, 108672, Note_on_c, 1, 57, 80
3, 108860, Note_off_c, 1, 50, 100
3, 108860, Note_off_c, 1, 57, 100
3, 108864, Note_on_c, 1, 56, 80
3, 108864, Note_on_c, 1, 52, 80
3, 109244, Note_off_c, 1, 56, 100
3, 109244, Note_off_c, 1, 52, 100
3, 109248, Note_on_c, 1, 59, 80
3, 109248, Note_on_c, 1, 56, 80
3, 109248, Note_on_c, 1, 52, 80
3, 109820, Note_off_c, 1, 52, 100
3, 109820, Note_off_c, 1, 56, 100
3, 109820, Note_off_c, 1, 59, 100
3, 110400, Note_on_c, 1, 61, 80
3, 110400, Note_on_c, 1, 57, 80
3, 110972, Note_off_c, 1, 57, 100
3, 110972, Note_off_c, 1, 61, 100
3, 111552, Note_on_c, 1, 52, 80
3, 111552, Note_on_c, 1, 40, 80
3, 111936, Note_on_c, 1, 57, 80
3, 112124, Note_off_c, 1, 40, 100
3, 112124, Note_off_c, 1, 52, 100
3, 112124, Note_off_c, 1, 57, 100
3, 112128, Note_on_c, 1, 56, 80
3, 112316, Note_off_c, 1, 56, 100
3, 112320, Note_on_c, 1, 57, 80
3, 112508, Note_off_c, 1, 57, 100
3, 112512, Note_on_c, 1, 59, 80
3, 112700, Note_off_c, 1, 59, 100
3, 112704, Note_on_c, 1, 61, 80
3, 112892, Note_off_c, 1, 61, 100
3, 112896, Note_on_c, 1, 51, 80
3, 113468, Note_off_c, 1, 51, 100
3, 113472, Note_on_c, 1, 52, 80
3, 113472, Note_on_c, 1, 50, 80
3, 114044, Note_off_c, 1, 52, 100
3, 114044, Note_off_c, 1, 50, 100
3, 114048, Note_on_c, 1, 52, 80
3, 114048, Note_on_c, 1, 49, 80
3, 114620, Note_off_c, 1, 52, 100
3, 114620, Note_off_c, 1, 49, 100
3, 114624, Note_on_c, 1, 52, 80
3, 114624, Note_on_c, 1, 47, 80
3, 115196, Note_off_c, 1, 52, 100
3, 115196, Note_off_c, 1, 47, 100
3, 115200, Note_on_c, 1, 52, 87
3, 115200, Note_on_c, 1, 45, 87
3, 115772, Note_off_c, 1, 52, 100
3, 115772, Note_off_c, 1, 45, 100
3, 115776, Note_on_c, 1, 52, 94
3, 115776, Note_on_c, 1, 40, 94
3, 116156, Note_off_c, 1, 52, 100
3, 116156, Note_off_c, 1, 40, 100
3, 116160, Note_on_c, 1, 40, 99
3, 116352, Note_on_c, 1, 33, 101
3, 116732, Note_off_c, 1, 40, 100
3, 116736, Note_on_c, 1, 40, 80
3, 116924, Note_off_c, 1, 33, 100
3, 116928, Note_on_c, 1, 45, 80
3, 116928, Note_on_c, 1, 33, 80
3, 117500, Note_off_c, 1, 40, 100
3, 117500, Note_off_c, 1, 45, 100
3, 117500, Note_off_c, 1, 33, 100
3, 117500, End_track
0, 0, End_of_file
