0, 0, Header, 1, 3, 384
1, 0, Start_track
1, 0, Title_t, "L.v.Beethoven 2mov - Piano Sonata No.28 in A Major Op.101\000"
1, 0, Copyright_t, "Copyright(C) 1995-2009, Suzuki Software\000"
1, 0, Sequencer_specific, 9, 67, 123, 0, 88, 70, 48, 50, 0, 1
1, 0, Text_t, "XFhd:2000/09/30:JP:Classical::::L.v.Beethoven:::Kaoru Suzuki\000"
1, 0, Text_t, "XFln:JP:\203s\203A\203m\203\\\203i\203^\221æ28\224Ô\203C\222·\222²\215ì\225i101\201`\221æ2\212y\217Í:L.v.\203x\201[\203g\201[\203\224\203F\203\223:::\227é\202¿\202á\202ñ:\227é\202¿\202á\202ñ\000"
1, 0, Time_signature, 1, 2, 96, 8
1, 0, Sequencer_specific, 3, 0, 0, 65
1, 0, Sequencer_specific, 5, 0, 0, 119, 14, 0
1, 0, Tempo, 461538
1, 384, Time_signature, 4, 2, 96, 8
1, 29376, Tempo, 545454
1, 29760, Tempo, 461538
1, 39936, Tempo, 500000
1, 40320, Tempo, 480000
1, 40704, Tempo, 461538
1, 56448, Tempo, 480000
1, 56832, Tempo, 500000
1, 57024, Tempo, 600000
1, 57216, Tempo, 545454
1, 57408, Tempo, 461538
1, 122880, Tempo, 500000
1, 123072, Tempo, 545454
1, 123264, Tempo, 500000
1, 123648, Tempo, 461538
1, 160128, Tempo, 500000
1, 160512, Tempo, 545454
1, 161664, Tempo, 461538
1, 249984, Tempo, 480000
1, 250368, Tempo, 521739
1, 250944, Tempo, 461538
1, 266496, Tempo, 480000
1, 266880, Tempo, 500000
1, 267264, Tempo, 545454
1, 267648, Tempo, 500000
1, 268032, Tempo, 461538
1, 304512, Tempo, 521739
1, 304896, Tempo, 600000
1, 305280, Tempo, 1000000
1, 305280, End_track
2, 0, Start_track
2, 0, Title_t, "Right"
2, 0, Control_c, 0, 0, 0
2, 0, Program_c, 0, 0
2, 0, Control_c, 0, 7, 100
2, 0, Control_c, 0, 10, 77
2, 0, Control_c, 0, 91, 127
2, 0, Key_signature, -1, "major"
2, 288, Note_on_c, 0, 69, 110
2, 288, Note_on_c, 0, 65, 110
2, 288, Note_on_c, 0, 60, 110
2, 288, Note_on_c, 0, 57, 110
2, 380, Note_off_c, 0, 69, 100
2, 380, Note_off_c, 0, 65, 100
2, 380, Note_off_c, 0, 60, 100
2, 380, Note_off_c, 0, 57, 100
2, 384, Note_on_c, 0, 69, 110
2, 384, Note_on_c, 0, 65, 110
2, 384, Note_on_c, 0, 60, 110
2, 384, Note_on_c, 0, 57, 110
2, 1148, Note_off_c, 0, 65, 100
2, 1148, Note_off_c, 0, 60, 100
2, 1148, Note_off_c, 0, 57, 100
2, 1340, Note_off_c, 0, 69, 100
2, 1440, Note_on_c, 0, 65, 80
2, 1532, Note_off_c, 0, 65, 100
2, 1536, Note_on_c, 0, 69, 80
2, 1724, Note_off_c, 0, 69, 100
2, 1824, Note_on_c, 0, 74, 80
2, 1916, Note_off_c, 0, 74, 100
2, 1920, Note_on_c, 0, 74, 80
2, 1920, Note_on_c, 0, 67, 80
2, 2300, Note_off_c, 0, 74, 100
2, 2304, Note_on_c, 0, 72, 80
2, 2588, Note_off_c, 0, 72, 100
2, 2592, Note_on_c, 0, 71, 80
2, 2684, Note_off_c, 0, 67, 100
2, 2684, Note_off_c, 0, 71, 100
2, 2688, Note_on_c, 0, 66, 80
2, 2688, Note_on_c, 0, 72, 80
2, 2876, Note_off_c, 0, 72, 100
2, 2976, Note_on_c, 0, 69, 80
2, 3068, Note_off_c, 0, 66, 100
2, 3068, Note_off_c, 0, 69, 100
2, 3072, Note_on_c, 0, 72, 80
2, 3260, Note_off_c, 0, 72, 100
2, 3360, Note_on_c, 0, 78, 80
2, 3360, Note_on_c, 0, 72, 80
2, 3360, Note_on_c, 0, 69, 80
2, 3452, Note_off_c, 0, 78, 100
2, 3452, Note_off_c, 0, 72, 100
2, 3452, Note_off_c, 0, 69, 100
2, 3456, Note_on_c, 0, 78, 80
2, 3456, Note_on_c, 0, 70, 80
2, 3456, Note_on_c, 0, 65, 80
2, 3836, Note_off_c, 0, 78, 100
2, 3840, Note_on_c, 0, 77, 80
2, 4124, Note_off_c, 0, 77, 100
2, 4128, Note_on_c, 0, 76, 80
2, 4220, Note_off_c, 0, 76, 100
2, 4224, Note_on_c, 0, 77, 80
2, 4412, Note_off_c, 0, 77, 100
2, 4512, Note_on_c, 0, 70, 80
2, 4604, Note_off_c, 0, 70, 100
2, 4604, Note_off_c, 0, 65, 100
2, 4604, Note_off_c, 0, 70, 100
2, 4608, Note_on_c, 0, 77, 80
2, 4796, Note_off_c, 0, 77, 100
2, 4896, Note_on_c, 0, 82, 80
2, 4988, Note_off_c, 0, 82, 100
2, 4992, Note_on_c, 0, 82, 80
2, 4992, Note_on_c, 0, 76, 80
2, 5372, Note_off_c, 0, 82, 100
2, 5372, Note_off_c, 0, 76, 100
2, 5376, Note_on_c, 0, 73, 80
2, 5376, Note_on_c, 0, 82, 80
2, 6044, Note_off_c, 0, 82, 100
2, 6048, Note_on_c, 0, 79, 80
2, 6140, Note_off_c, 0, 79, 100
2, 6144, Note_on_c, 0, 72, 80
2, 6144, Note_on_c, 0, 81, 80
2, 6428, Note_off_c, 0, 81, 100
2, 6432, Note_on_c, 0, 84, 80
2, 6524, Note_off_c, 0, 73, 100
2, 6524, Note_off_c, 0, 72, 100
2, 6524, Note_off_c, 0, 84, 100
2, 6528, Note_on_c, 0, 79, 80
2, 6528, Note_on_c, 0, 73, 80
2, 6812, Note_off_c, 0, 79, 100
2, 6812, Note_off_c, 0, 73, 100
2, 6816, Note_on_c, 0, 76, 80
2, 6816, Note_on_c, 0, 70, 80
2, 6908, Note_off_c, 0, 76, 100
2, 6908, Note_off_c, 0, 70, 100
2, 6912, Note_on_c, 0, 77, 80
2, 6912, Note_on_c, 0, 72, 80
2, 7100, Note_off_c, 0, 77, 100
2, 7100, Note_off_c, 0, 72, 100
2, 7200, Note_on_c, 0, 81, 80
2, 7200, Note_on_c, 0, 69, 80
2, 7292, Note_off_c, 0, 81, 100
2, 7292, Note_off_c, 0, 69, 100
2, 7296, Note_on_c, 0, 72, 80
2, 7296, Note_on_c, 0, 67, 80
2, 7484, Note_off_c, 0, 72, 100
2, 7484, Note_off_c, 0, 67, 100
2, 7584, Note_on_c, 0, 72, 80
2, 7584, Note_on_c, 0, 67, 80
2, 7676, Note_off_c, 0, 72, 100
2, 7676, Note_off_c, 0, 67, 100
2, 7680, Note_on_c, 0, 71, 80
2, 7680, Note_on_c, 0, 65, 80
2, 7868, Note_off_c, 0, 71, 100
2, 7868, Note_off_c, 0, 65, 100
2, 7968, Note_on_c, 0, 70, 80
2, 7968, Note_on_c, 0, 65, 80
2, 8060, Note_off_c, 0, 70, 100
2, 8060, Note_off_c, 0, 65, 100
2, 8064, Note_on_c, 0, 70, 80
2, 8064, Note_on_c, 0, 64, 80
2, 8444, Note_off_c, 0, 70, 100
2, 8444, Note_off_c, 0, 64, 100
2, 8448, Note_on_c, 0, 70, 80
2, 8448, Note_on_c, 0, 61, 80
2, 9116, Note_off_c, 0, 70, 100
2, 9120, Note_on_c, 0, 67, 80
2, 9212, Note_off_c, 0, 61, 100
2, 9212, Note_off_c, 0, 67, 100
2, 9216, Note_on_c, 0, 60, 80
2, 9216, Note_on_c, 0, 69, 80
2, 9500, Note_off_c, 0, 69, 100
2, 9504, Note_on_c, 0, 72, 83
2, 9596, Note_off_c, 0, 60, 100
2, 9596, Note_off_c, 0, 72, 100
2, 9600, Note_on_c, 0, 67, 84
2, 9600, Note_on_c, 0, 60, 84
2, 9884, Note_off_c, 0, 67, 100
2, 9888, Note_on_c, 0, 66, 87
2, 9980, Note_off_c, 0, 60, 100
2, 9980, Note_off_c, 0, 66, 100
2, 9984, Note_on_c, 0, 65, 88
2, 9984, Note_on_c, 0, 60, 88
2, 10172, Note_off_c, 0, 65, 100
2, 10172, Note_off_c, 0, 60, 100
2, 10272, Note_on_c, 0, 72, 91
2, 10272, Note_on_c, 0, 60, 91
2, 10364, Note_off_c, 0, 72, 100
2, 10364, Note_off_c, 0, 60, 100
2, 10368, Note_on_c, 0, 60, 92
2, 10368, Note_on_c, 0, 64, 92
2, 10652, Note_off_c, 0, 64, 100
2, 10656, Note_on_c, 0, 63, 95
2, 10748, Note_off_c, 0, 60, 100
2, 10748, Note_off_c, 0, 63, 100
2, 10752, Note_on_c, 0, 62, 96
2, 10752, Note_on_c, 0, 60, 96
2, 10940, Note_off_c, 0, 62, 100
2, 10940, Note_off_c, 0, 60, 100
2, 11040, Note_on_c, 0, 69, 99
2, 11040, Note_on_c, 0, 62, 99
2, 11040, Note_on_c, 0, 60, 99
2, 11132, Note_off_c, 0, 69, 100
2, 11132, Note_off_c, 0, 62, 100
2, 11132, Note_off_c, 0, 60, 100
2, 11136, Note_on_c, 0, 64, 80
2, 11136, Note_on_c, 0, 60, 80
2, 11420, Note_off_c, 0, 64, 100
2, 11424, Note_on_c, 0, 63, 80
2, 11516, Note_off_c, 0, 60, 100
2, 11516, Note_off_c, 0, 63, 100
2, 11520, Note_on_c, 0, 62, 80
2, 11520, Note_on_c, 0, 59, 80
2, 11708, Note_off_c, 0, 62, 100
2, 11708, Note_off_c, 0, 59, 100
2, 11808, Note_on_c, 0, 67, 80
2, 11808, Note_on_c, 0, 59, 80
2, 11900, Note_off_c, 0, 67, 100
2, 11900, Note_off_c, 0, 59, 100
2, 11904, Note_on_c, 0, 60, 80
2, 12284, Note_off_c, 0, 60, 100
2, 12576, Note_on_c, 0, 69, 110
2, 12576, Note_on_c, 0, 65, 110
2, 12576, Note_on_c, 0, 60, 110
2, 12576, Note_on_c, 0, 57, 110
2, 12668, Note_off_c, 0, 69, 100
2, 12668, Note_off_c, 0, 65, 100
2, 12668, Note_off_c, 0, 60, 100
2, 12668, Note_off_c, 0, 57, 100
2, 12672, Note_on_c, 0, 69, 110
2, 12672, Note_on_c, 0, 65, 110
2, 12672, Note_on_c, 0, 60, 110
2, 12672, Note_on_c, 0, 57, 110
2, 13436, Note_off_c, 0, 65, 100
2, 13436, Note_off_c, 0, 60, 100
2, 13436, Note_off_c, 0, 57, 100
2, 13628, Note_off_c, 0, 69, 100
2, 13728, Note_on_c, 0, 65, 80
2, 13820, Note_off_c, 0, 65, 100
2, 13824, Note_on_c, 0, 69, 80
2, 14012, Note_off_c, 0, 69, 100
2, 14112, Note_on_c, 0, 74, 80
2, 14204, Note_off_c, 0, 74, 100
2, 14208, Note_on_c, 0, 74, 80
2, 14208, Note_on_c, 0, 67, 80
2, 14588, Note_off_c, 0, 74, 100
2, 14592, Note_on_c, 0, 72, 80
2, 14876, Note_off_c, 0, 72, 100
2, 14880, Note_on_c, 0, 71, 80
2, 14972, Note_off_c, 0, 67, 100
2, 14972, Note_off_c, 0, 71, 100
2, 14976, Note_on_c, 0, 66, 80
2, 14976, Note_on_c, 0, 72, 80
2, 15164, Note_off_c, 0, 72, 100
2, 15264, Note_on_c, 0, 69, 80
2, 15356, Note_off_c, 0, 66, 100
2, 15356, Note_off_c, 0, 69, 100
2, 15360, Note_on_c, 0, 72, 80
2, 15548, Note_off_c, 0, 72, 100
2, 15648, Note_on_c, 0, 78, 80
2, 15648, Note_on_c, 0, 72, 80
2, 15648, Note_on_c, 0, 69, 80
2, 15740, Note_off_c, 0, 78, 100
2, 15740, Note_off_c, 0, 72, 100
2, 15740, Note_off_c, 0, 69, 100
2, 15744, Note_on_c, 0, 78, 80
2, 15744, Note_on_c, 0, 70, 80
2, 15744, Note_on_c, 0, 65, 80
2, 16124, Note_off_c, 0, 78, 100
2, 16128, Note_on_c, 0, 77, 80
2, 16412, Note_off_c, 0, 77, 100
2, 16416, Note_on_c, 0, 76, 80
2, 16508, Note_off_c, 0, 76, 100
2, 16512, Note_on_c, 0, 77, 80
2, 16700, Note_off_c, 0, 77, 100
2, 16800, Note_on_c, 0, 70, 80
2, 16892, Note_off_c, 0, 70, 100
2, 16892, Note_off_c, 0, 65, 100
2, 16892, Note_off_c, 0, 70, 100
2, 16896, Note_on_c, 0, 77, 80
2, 17084, Note_off_c, 0, 77, 100
2, 17184, Note_on_c, 0, 82, 80
2, 17276, Note_off_c, 0, 82, 100
2, 17280, Note_on_c, 0, 82, 80
2, 17280, Note_on_c, 0, 76, 80
2, 17660, Note_off_c, 0, 82, 100
2, 17660, Note_off_c, 0, 76, 100
2, 17664, Note_on_c, 0, 73, 80
2, 17664, Note_on_c, 0, 82, 80
2, 18332, Note_off_c, 0, 82, 100
2, 18336, Note_on_c, 0, 79, 80
2, 18428, Note_off_c, 0, 79, 100
2, 18432, Note_on_c, 0, 72, 80
2, 18432, Note_on_c, 0, 81, 80
2, 18716, Note_off_c, 0, 81, 100
2, 18720, Note_on_c, 0, 84, 80
2, 18812, Note_off_c, 0, 73, 100
2, 18812, Note_off_c, 0, 72, 100
2, 18812, Note_off_c, 0, 84, 100
2, 18816, Note_on_c, 0, 79, 80
2, 18816, Note_on_c, 0, 73, 80
2, 19100, Note_off_c, 0, 79, 100
2, 19100, Note_off_c, 0, 73, 100
2, 19104, Note_on_c, 0, 76, 80
2, 19104, Note_on_c, 0, 70, 80
2, 19196, Note_off_c, 0, 76, 100
2, 19196, Note_off_c, 0, 70, 100
2, 19200, Note_on_c, 0, 77, 80
2, 19200, Note_on_c, 0, 72, 80
2, 19388, Note_off_c, 0, 77, 100
2, 19388, Note_off_c, 0, 72, 100
2, 19488, Note_on_c, 0, 81, 80
2, 19488, Note_on_c, 0, 69, 80
2, 19580, Note_off_c, 0, 81, 100
2, 19580, Note_off_c, 0, 69, 100
2, 19584, Note_on_c, 0, 72, 80
2, 19584, Note_on_c, 0, 67, 80
2, 19772, Note_off_c, 0, 72, 100
2, 19772, Note_off_c, 0, 67, 100
2, 19872, Note_on_c, 0, 72, 80
2, 19872, Note_on_c, 0, 67, 80
2, 19964, Note_off_c, 0, 72, 100
2, 19964, Note_off_c, 0, 67, 100
2, 19968, Note_on_c, 0, 71, 80
2, 19968, Note_on_c, 0, 65, 80
2, 20156, Note_off_c, 0, 71, 100
2, 20156, Note_off_c, 0, 65, 100
2, 20256, Note_on_c, 0, 70, 80
2, 20256, Note_on_c, 0, 65, 80
2, 20348, Note_off_c, 0, 70, 100
2, 20348, Note_off_c, 0, 65, 100
2, 20352, Note_on_c, 0, 70, 80
2, 20352, Note_on_c, 0, 64, 80
2, 20732, Note_off_c, 0, 70, 100
2, 20732, Note_off_c, 0, 64, 100
2, 20736, Note_on_c, 0, 70, 80
2, 20736, Note_on_c, 0, 61, 80
2, 21404, Note_off_c, 0, 70, 100
2, 21408, Note_on_c, 0, 67, 80
2, 21500, Note_off_c, 0, 61, 100
2, 21500, Note_off_c, 0, 67, 100
2, 21504, Note_on_c, 0, 60, 80
2, 21504, Note_on_c, 0, 69, 80
2, 21788, Note_off_c, 0, 69, 100
2, 21792, Note_on_c, 0, 72, 83
2, 21884, Note_off_c, 0, 60, 100
2, 21884, Note_off_c, 0, 72, 100
2, 21888, Note_on_c, 0, 67, 84
2, 21888, Note_on_c, 0, 60, 84
2, 22172, Note_off_c, 0, 67, 100
2, 22176, Note_on_c, 0, 66, 87
2, 22268, Note_off_c, 0, 60, 100
2, 22268, Note_off_c, 0, 66, 100
2, 22272, Note_on_c, 0, 65, 88
2, 22272, Note_on_c, 0, 60, 88
2, 22460, Note_off_c, 0, 65, 100
2, 22460, Note_off_c, 0, 60, 100
2, 22560, Note_on_c, 0, 72, 91
2, 22560, Note_on_c, 0, 60, 91
2, 22652, Note_off_c, 0, 72, 100
2, 22652, Note_off_c, 0, 60, 100
2, 22656, Note_on_c, 0, 60, 92
2, 22656, Note_on_c, 0, 64, 92
2, 22940, Note_off_c, 0, 64, 100
2, 22944, Note_on_c, 0, 63, 95
2, 23036, Note_off_c, 0, 60, 100
2, 23036, Note_off_c, 0, 63, 100
2, 23040, Note_on_c, 0, 62, 96
2, 23040, Note_on_c, 0, 60, 96
2, 23228, Note_off_c, 0, 62, 100
2, 23228, Note_off_c, 0, 60, 100
2, 23328, Note_on_c, 0, 69, 99
2, 23328, Note_on_c, 0, 62, 99
2, 23328, Note_on_c, 0, 60, 99
2, 23420, Note_off_c, 0, 69, 100
2, 23420, Note_off_c, 0, 62, 100
2, 23420, Note_off_c, 0, 60, 100
2, 23424, Note_on_c, 0, 64, 90
2, 23424, Note_on_c, 0, 60, 90
2, 23708, Note_off_c, 0, 64, 100
2, 23712, Note_on_c, 0, 63, 80
2, 23804, Note_off_c, 0, 60, 100
2, 23804, Note_off_c, 0, 63, 100
2, 23808, Note_on_c, 0, 62, 80
2, 23808, Note_on_c, 0, 59, 80
2, 23996, Note_off_c, 0, 62, 100
2, 23996, Note_off_c, 0, 59, 100
2, 24096, Note_on_c, 0, 67, 80
2, 24096, Note_on_c, 0, 59, 80
2, 24188, Note_off_c, 0, 67, 100
2, 24188, Note_off_c, 0, 59, 100
2, 24192, Note_on_c, 0, 60, 80
2, 24572, Note_off_c, 0, 60, 100
2, 24864, Note_on_c, 0, 76, 80
2, 24864, Note_on_c, 0, 72, 80
2, 24956, Note_off_c, 0, 76, 100
2, 24956, Note_off_c, 0, 72, 100
2, 24960, Note_on_c, 0, 72, 80
2, 24960, Note_on_c, 0, 76, 80
2, 25244, Note_off_c, 0, 76, 100
2, 25248, Note_on_c, 0, 75, 80
2, 25340, Note_off_c, 0, 72, 100
2, 25340, Note_off_c, 0, 75, 100
2, 25344, Note_on_c, 0, 74, 80
2, 25344, Note_on_c, 0, 71, 80
2, 25532, Note_off_c, 0, 74, 100
2, 25532, Note_off_c, 0, 71, 100
2, 25632, Note_on_c, 0, 79, 80
2, 25632, Note_on_c, 0, 71, 80
2, 25724, Note_off_c, 0, 79, 100
2, 25724, Note_off_c, 0, 71, 100
2, 25728, Note_on_c, 0, 72, 80
2, 25916, Note_off_c, 0, 72, 100
2, 26016, Note_on_c, 0, 69, 80
2, 26108, Note_off_c, 0, 69, 100
2, 26112, Note_on_c, 0, 67, 80
2, 26300, Note_off_c, 0, 67, 100
2, 27168, Note_on_c, 0, 76, 80
2, 27168, Note_on_c, 0, 64, 80
2, 27260, Note_off_c, 0, 76, 100
2, 27260, Note_off_c, 0, 64, 100
2, 27264, Note_on_c, 0, 77, 80
2, 27264, Note_on_c, 0, 65, 80
2, 27452, Note_off_c, 0, 77, 100
2, 27452, Note_off_c, 0, 65, 100
2, 27552, Note_on_c, 0, 74, 80
2, 27552, Note_on_c, 0, 62, 80
2, 27644, Note_off_c, 0, 74, 100
2, 27644, Note_off_c, 0, 62, 100
2, 27648, Note_on_c, 0, 72, 80
2, 27648, Note_on_c, 0, 60, 80
2, 27836, Note_off_c, 0, 72, 100
2, 27836, Note_off_c, 0, 60, 100
2, 27936, Note_on_c, 0, 81, 80
2, 27936, Note_on_c, 0, 77, 80
2, 28028, Note_off_c, 0, 81, 100
2, 28028, Note_off_c, 0, 77, 100
2, 28032, Note_on_c, 0, 77, 80
2, 28032, Note_on_c, 0, 81, 80
2, 28316, Note_off_c, 0, 81, 100
2, 28320, Note_on_c, 0, 80, 80
2, 28412, Note_off_c, 0, 77, 100
2, 28412, Note_off_c, 0, 80, 100
2, 28416, Note_on_c, 0, 76, 80
2, 28416, Note_on_c, 0, 79, 80
2, 28604, Note_off_c, 0, 79, 100
2, 28704, Note_on_c, 0, 84, 80
2, 28796, Note_off_c, 0, 76, 100
2, 28796, Note_off_c, 0, 84, 100
2, 28800, Note_on_c, 0, 77, 80
2, 28800, Note_on_c, 0, 69, 80
2, 29180, Note_off_c, 0, 77, 100
2, 29180, Note_off_c, 0, 69, 100
2, 29472, Note_on_c, 0, 81, 120
2, 29472, Note_on_c, 0, 69, 120
2, 29564, Note_off_c, 0, 81, 100
2, 29564, Note_off_c, 0, 69, 100
2, 29568, Note_on_c, 0, 81, 120
2, 29568, Note_on_c, 0, 69, 120
2, 29852, Note_off_c, 0, 81, 100
2, 29852, Note_off_c, 0, 69, 100
2, 29856, Note_on_c, 0, 81, 80
2, 29948, Note_off_c, 0, 81, 100
2, 29952, Note_on_c, 0, 85, 80
2, 30236, Note_off_c, 0, 85, 100
2, 30240, Note_on_c, 0, 90, 80
2, 30332, Note_off_c, 0, 90, 100
2, 30336, Note_on_c, 0, 90, 80
2, 30716, Note_off_c, 0, 90, 100
2, 30720, Note_on_c, 0, 88, 80
2, 31100, Note_off_c, 0, 88, 100
2, 31392, Note_on_c, 0, 57, 80
2, 31484, Note_off_c, 0, 57, 100
2, 31488, Note_on_c, 0, 61, 80
2, 31772, Note_off_c, 0, 61, 100
2, 31776, Note_on_c, 0, 66, 80
2, 31868, Note_off_c, 0, 66, 100
2, 31872, Note_on_c, 0, 66, 80
2, 32252, Note_off_c, 0, 66, 100
2, 32256, Note_on_c, 0, 64, 80
2, 32924, Note_off_c, 0, 64, 100
2, 32928, Note_on_c, 0, 80, 80
2, 33020, Note_off_c, 0, 80, 100
2, 33024, Note_on_c, 0, 81, 81
2, 33212, Note_off_c, 0, 81, 100
2, 33312, Note_on_c, 0, 82, 84
2, 33404, Note_off_c, 0, 82, 100
2, 33408, Note_on_c, 0, 82, 85
2, 33596, Note_off_c, 0, 82, 100
2, 33696, Note_on_c, 0, 82, 88
2, 33696, Note_on_c, 0, 88, 88
2, 33788, Note_off_c, 0, 82, 100
2, 33788, Note_off_c, 0, 88, 100
2, 33792, Note_on_c, 0, 89, 89
2, 33792, Note_on_c, 0, 81, 89
2, 33980, Note_off_c, 0, 89, 100
2, 33980, Note_off_c, 0, 81, 100
2, 34080, Note_on_c, 0, 91, 92
2, 34080, Note_on_c, 0, 79, 92
2, 34172, Note_off_c, 0, 91, 100
2, 34172, Note_off_c, 0, 79, 100
2, 34176, Note_on_c, 0, 91, 93
2, 34176, Note_on_c, 0, 79, 93
2, 34364, Note_off_c, 0, 91, 100
2, 34364, Note_off_c, 0, 79, 100
2, 34464, Note_on_c, 0, 88, 97
2, 34556, Note_off_c, 0, 88, 100
2, 34560, Note_on_c, 0, 91, 98
2, 34748, Note_off_c, 0, 91, 100
2, 34848, Note_on_c, 0, 85, 101
2, 34940, Note_off_c, 0, 85, 100
2, 34944, Note_on_c, 0, 88, 102
2, 35132, Note_off_c, 0, 88, 100
2, 35232, Note_on_c, 0, 79, 105
2, 35324, Note_off_c, 0, 79, 100
2, 35328, Note_on_c, 0, 82, 106
2, 35516, Note_off_c, 0, 82, 100
2, 35616, Note_on_c, 0, 81, 109
2, 35708, Note_off_c, 0, 81, 100
2, 35712, Note_on_c, 0, 77, 110
2, 36092, Note_off_c, 0, 77, 100
2, 36096, Note_on_c, 0, 81, 110
2, 36144, Note_on_c, 0, 82, 110
2, 36168, Note_off_c, 0, 81, 100
2, 36192, Note_on_c, 0, 81, 110
2, 36216, Note_off_c, 0, 82, 100
2, 36240, Note_on_c, 0, 82, 110
2, 36260, Note_off_c, 0, 81, 100
2, 36288, Note_on_c, 0, 81, 110
2, 36308, Note_off_c, 0, 82, 100
2, 36336, Note_on_c, 0, 82, 110
2, 36356, Note_off_c, 0, 81, 100
2, 36384, Note_on_c, 0, 79, 110
2, 36412, Note_off_c, 0, 82, 100
2, 36432, Note_on_c, 0, 81, 110
2, 36448, Note_off_c, 0, 79, 100
2, 36524, Note_off_c, 0, 81, 100
2, 36864, Note_on_c, 0, 89, 110
2, 36912, Note_on_c, 0, 91, 110
2, 36932, Note_off_c, 0, 89, 100
2, 36960, Note_on_c, 0, 89, 110
2, 36980, Note_off_c, 0, 91, 100
2, 37008, Note_on_c, 0, 91, 110
2, 37024, Note_off_c, 0, 89, 100
2, 37056, Note_on_c, 0, 89, 110
2, 37076, Note_off_c, 0, 91, 100
2, 37104, Note_on_c, 0, 91, 110
2, 37132, Note_off_c, 0, 89, 100
2, 37152, Note_on_c, 0, 88, 110
2, 37168, Note_off_c, 0, 91, 100
2, 37200, Note_on_c, 0, 89, 110
2, 37220, Note_off_c, 0, 88, 100
2, 37244, Note_off_c, 0, 89, 100
2, 37248, Note_on_c, 0, 89, 110
2, 37436, Note_off_c, 0, 89, 100
2, 37536, Note_on_c, 0, 86, 110
2, 37628, Note_off_c, 0, 86, 100
2, 37632, Note_on_c, 0, 89, 110
2, 37820, Note_off_c, 0, 89, 100
2, 37920, Note_on_c, 0, 83, 110
2, 38012, Note_off_c, 0, 83, 100
2, 38016, Note_on_c, 0, 86, 110
2, 38204, Note_off_c, 0, 86, 100
2, 38304, Note_on_c, 0, 74, 110
2, 38396, Note_off_c, 0, 74, 100
2, 38400, Note_on_c, 0, 80, 110
2, 38588, Note_off_c, 0, 80, 100
2, 38688, Note_on_c, 0, 79, 110
2, 38780, Note_off_c, 0, 79, 100
2, 38784, Note_on_c, 0, 76, 110
2, 39164, Note_off_c, 0, 76, 100
2, 39168, Note_on_c, 0, 81, 110
2, 39216, Note_on_c, 0, 83, 110
2, 39236, Note_off_c, 0, 81, 100
2, 39264, Note_on_c, 0, 81, 110
2, 39280, Note_off_c, 0, 83, 100
2, 39312, Note_on_c, 0, 83, 110
2, 39328, Note_off_c, 0, 81, 100
2, 39360, Note_on_c, 0, 81, 110
2, 39388, Note_off_c, 0, 83, 100
2, 39408, Note_on_c, 0, 83, 110
2, 39432, Note_off_c, 0, 81, 100
2, 39456, Note_on_c, 0, 80, 110
2, 39476, Note_off_c, 0, 83, 100
2, 39504, Note_on_c, 0, 81, 110
2, 39528, Note_off_c, 0, 80, 100
2, 39596, Note_off_c, 0, 81, 100
2, 39936, Note_on_c, 0, 93, 110
2, 39984, Note_on_c, 0, 95, 110
2, 40012, Note_off_c, 0, 93, 100
2, 40032, Note_on_c, 0, 93, 110
2, 40052, Note_off_c, 0, 95, 100
2, 40080, Note_on_c, 0, 95, 110
2, 40104, Note_off_c, 0, 93, 100
2, 40128, Note_on_c, 0, 93, 110
2, 40156, Note_off_c, 0, 95, 100
2, 40176, Note_on_c, 0, 95, 110
2, 40204, Note_off_c, 0, 93, 100
2, 40224, Note_on_c, 0, 92, 110
2, 40244, Note_off_c, 0, 95, 100
2, 40272, Note_on_c, 0, 93, 110
2, 40292, Note_off_c, 0, 92, 100
2, 40316, Note_off_c, 0, 93, 100
2, 40320, Note_on_c, 0, 92, 110
2, 40508, Note_off_c, 0, 92, 100
2, 40608, Note_on_c, 0, 76, 80
2, 40700, Note_off_c, 0, 76, 100
2, 40704, Note_on_c, 0, 79, 80
2, 40988, Note_off_c, 0, 79, 100
2, 40992, Note_on_c, 0, 77, 80
2, 41084, Note_off_c, 0, 77, 100
2, 41088, Note_on_c, 0, 77, 80
2, 42140, Note_off_c, 0, 77, 100
2, 42144, Note_on_c, 0, 75, 80
2, 42236, Note_off_c, 0, 75, 100
2, 42240, Note_on_c, 0, 77, 80
2, 42524, Note_off_c, 0, 77, 100
2, 42528, Note_on_c, 0, 76, 80
2, 42620, Note_off_c, 0, 76, 100
2, 42624, Note_on_c, 0, 76, 80
2, 43772, Note_off_c, 0, 76, 100
2, 43776, Note_on_c, 0, 74, 80
2, 44156, Note_off_c, 0, 74, 100
2, 44448, Note_on_c, 0, 74, 80
2, 44540, Note_off_c, 0, 74, 100
2, 44544, Note_on_c, 0, 77, 80
2, 44732, Note_off_c, 0, 77, 100
2, 44832, Note_on_c, 0, 82, 80
2, 44924, Note_off_c, 0, 82, 100
2, 44928, Note_on_c, 0, 82, 80
2, 45980, Note_off_c, 0, 82, 100
2, 45984, Note_on_c, 0, 73, 80
2, 46076, Note_off_c, 0, 73, 100
2, 46080, Note_on_c, 0, 76, 80
2, 46268, Note_off_c, 0, 76, 100
2, 46368, Note_on_c, 0, 81, 80
2, 46460, Note_off_c, 0, 81, 100
2, 46464, Note_on_c, 0, 81, 80
2, 47036, Note_off_c, 0, 81, 100
2, 47136, Note_on_c, 0, 54, 80
2, 47228, Note_off_c, 0, 54, 100
2, 47232, Note_on_c, 0, 57, 80
2, 47516, Note_off_c, 0, 57, 100
2, 47520, Note_on_c, 0, 66, 80
2, 47520, Note_on_c, 0, 60, 80
2, 47612, Note_off_c, 0, 66, 100
2, 47612, Note_off_c, 0, 60, 100
2, 47616, Note_on_c, 0, 69, 80
2, 47616, Note_on_c, 0, 66, 80
2, 47900, Note_off_c, 0, 69, 100
2, 47904, Note_on_c, 0, 72, 80
2, 47996, Note_off_c, 0, 66, 100
2, 47996, Note_off_c, 0, 72, 100
2, 48000, Note_on_c, 0, 70, 80
2, 48000, Note_on_c, 0, 67, 80
2, 48380, Note_off_c, 0, 70, 100
2, 48380, Note_off_c, 0, 67, 100
2, 48672, Note_on_c, 0, 58, 80
2, 48764, Note_off_c, 0, 58, 100
2, 48768, Note_on_c, 0, 62, 80
2, 49052, Note_off_c, 0, 62, 100
2, 49056, Note_on_c, 0, 70, 80
2, 49056, Note_on_c, 0, 67, 80
2, 49148, Note_off_c, 0, 70, 100
2, 49148, Note_off_c, 0, 67, 100
2, 49152, Note_on_c, 0, 74, 80
2, 49152, Note_on_c, 0, 67, 80
2, 49432, Note_on_c, 0, 79, 80
2, 49436, Note_off_c, 0, 74, 100
2, 49532, Note_off_c, 0, 67, 100
2, 49536, Note_on_c, 0, 72, 80
2, 49812, Note_off_c, 0, 79, 100
2, 49824, Note_on_c, 0, 79, 80
2, 49916, Note_off_c, 0, 79, 100
2, 49920, Note_on_c, 0, 77, 80
2, 50204, Note_off_c, 0, 72, 100
2, 50208, Note_on_c, 0, 72, 80
2, 50300, Note_off_c, 0, 72, 100
2, 50304, Note_on_c, 0, 71, 80
2, 50492, Note_off_c, 0, 71, 100
2, 50496, Note_on_c, 0, 70, 80
2, 50496, Note_on_c, 0, 67, 80
2, 50588, Note_off_c, 0, 77, 100
2, 50592, Note_on_c, 0, 77, 80
2, 50684, Note_off_c, 0, 77, 100
2, 50688, Note_on_c, 0, 76, 80
2, 50876, Note_off_c, 0, 70, 100
2, 50876, Note_off_c, 0, 67, 100
2, 50876, Note_off_c, 0, 76, 100
2, 50880, Note_on_c, 0, 77, 80
2, 50880, Note_on_c, 0, 68, 80
2, 50880, Note_on_c, 0, 65, 80
2, 51068, Note_off_c, 0, 77, 100
2, 51068, Note_off_c, 0, 68, 100
2, 51068, Note_off_c, 0, 65, 100
2, 51744, Note_on_c, 0, 53, 80
2, 51836, Note_off_c, 0, 53, 100
2, 51840, Note_on_c, 0, 56, 80
2, 52124, Note_off_c, 0, 56, 100
2, 52128, Note_on_c, 0, 61, 80
2, 52220, Note_off_c, 0, 61, 100
2, 52224, Note_on_c, 0, 65, 80
2, 52512, Note_on_c, 0, 68, 80
2, 52604, Note_off_c, 0, 65, 100
2, 52604, Note_off_c, 0, 68, 100
2, 52608, Note_on_c, 0, 73, 80
2, 52608, Note_on_c, 0, 66, 80
2, 52608, Note_on_c, 0, 61, 80
2, 52988, Note_off_c, 0, 73, 100
2, 52988, Note_off_c, 0, 66, 100
2, 52988, Note_off_c, 0, 61, 100
2, 53280, Note_on_c, 0, 54, 80
2, 53372, Note_off_c, 0, 54, 100
2, 53376, Note_on_c, 0, 58, 80
2, 53660, Note_off_c, 0, 58, 100
2, 53664, Note_on_c, 0, 61, 80
2, 53756, Note_off_c, 0, 61, 100
2, 53760, Note_on_c, 0, 66, 80
2, 54044, Note_off_c, 0, 66, 100
2, 54048, Note_on_c, 0, 73, 80
2, 54048, Note_on_c, 0, 67, 80
2, 54048, Note_on_c, 0, 64, 80
2, 54140, Note_off_c, 0, 73, 100
2, 54140, Note_off_c, 0, 67, 100
2, 54140, Note_off_c, 0, 64, 100
2, 54144, Note_on_c, 0, 77, 80
2, 54144, Note_on_c, 0, 72, 80
2, 54144, Note_on_c, 0, 65, 80
2, 54332, Note_off_c, 0, 77, 100
2, 54332, Note_off_c, 0, 72, 100
2, 54332, Note_off_c, 0, 65, 100
2, 54432, Note_on_c, 0, 64, 80
2, 54432, Note_on_c, 0, 55, 80
2, 54524, Note_off_c, 0, 64, 100
2, 54524, Note_off_c, 0, 55, 100
2, 54528, Note_on_c, 0, 67, 80
2, 54528, Note_on_c, 0, 58, 80
2, 54812, Note_off_c, 0, 67, 100
2, 54812, Note_off_c, 0, 58, 100
2, 54816, Note_on_c, 0, 65, 80
2, 54816, Note_on_c, 0, 56, 80
2, 54908, Note_off_c, 0, 65, 100
2, 54908, Note_off_c, 0, 56, 100
2, 54912, Note_on_c, 0, 70, 80
2, 55200, Note_on_c, 0, 62, 80
2, 55200, Note_on_c, 0, 53, 80
2, 55292, Note_off_c, 0, 70, 100
2, 55292, Note_off_c, 0, 62, 100
2, 55292, Note_off_c, 0, 53, 100
2, 55296, Note_on_c, 0, 65, 80
2, 55296, Note_on_c, 0, 56, 80
2, 55580, Note_off_c, 0, 65, 100
2, 55580, Note_off_c, 0, 56, 100
2, 55584, Note_on_c, 0, 64, 80
2, 55584, Note_on_c, 0, 55, 80
2, 55676, Note_off_c, 0, 64, 100
2, 55676, Note_off_c, 0, 55, 100
2, 55680, Note_on_c, 0, 68, 80
2, 55968, Note_on_c, 0, 60, 80
2, 56060, Note_off_c, 0, 68, 100
2, 56060, Note_off_c, 0, 60, 100
2, 56064, Note_on_c, 0, 63, 80
2, 56348, Note_off_c, 0, 63, 100
2, 56352, Note_on_c, 0, 62, 80
2, 56352, Note_on_c, 0, 70, 80
2, 56444, Note_off_c, 0, 62, 100
2, 56444, Note_off_c, 0, 70, 100
2, 56448, Note_on_c, 0, 78, 80
2, 56736, Note_on_c, 0, 60, 80
2, 56828, Note_off_c, 0, 78, 100
2, 56828, Note_off_c, 0, 60, 100
2, 56832, Note_on_c, 0, 63, 80
2, 57116, Note_off_c, 0, 63, 100
2, 57120, Note_on_c, 0, 61, 80
2, 57120, Note_on_c, 0, 68, 80
2, 57212, Note_off_c, 0, 61, 100
2, 57212, Note_off_c, 0, 68, 100
2, 57216, Control_c, 0, 64, 127
2, 57216, Note_on_c, 0, 80, 80
2, 58272, Note_on_c, 0, 73, 80
2, 58364, Note_off_c, 0, 80, 100
2, 58364, Note_off_c, 0, 73, 100
2, 58368, Note_on_c, 0, 77, 80
2, 58652, Note_off_c, 0, 77, 100
2, 58656, Note_on_c, 0, 80, 80
2, 58748, Note_off_c, 0, 80, 100
2, 58752, Note_on_c, 0, 80, 80
2, 59136, Note_on_c, 0, 82, 80
2, 59324, Note_off_c, 0, 80, 100
2, 59808, Note_on_c, 0, 75, 80
2, 59900, Note_off_c, 0, 82, 100
2, 59904, Note_on_c, 0, 78, 80
2, 59996, Note_off_c, 0, 75, 100
2, 60192, Note_on_c, 0, 84, 80
2, 60284, Note_off_c, 0, 78, 100
2, 60288, Note_on_c, 0, 84, 80
2, 60476, Note_off_c, 0, 84, 100
2, 60672, Note_on_c, 0, 85, 80
2, 60860, Note_off_c, 0, 84, 100
2, 61344, Note_on_c, 0, 77, 80
2, 61436, Note_off_c, 0, 85, 100
2, 61440, Note_on_c, 0, 80, 80
2, 61532, Note_off_c, 0, 77, 100
2, 61728, Note_on_c, 0, 85, 80
2, 61820, Note_off_c, 0, 80, 100
2, 61824, Note_on_c, 0, 89, 70
2, 62012, Note_off_c, 0, 85, 100
2, 62880, Note_on_c, 0, 77, 70
2, 62976, Note_on_c, 0, 82, 70
2, 63260, Note_off_c, 0, 77, 100
2, 63264, Note_on_c, 0, 89, 70
2, 63352, Control_c, 0, 64, 0
2, 63356, Note_off_c, 0, 89, 100
2, 63356, Note_off_c, 0, 82, 100
2, 63356, Note_off_c, 0, 89, 100
2, 63360, Note_on_c, 0, 89, 70
2, 63740, Note_off_c, 0, 89, 100
2, 63744, Note_on_c, 0, 88, 70
2, 64412, Note_off_c, 0, 88, 100
2, 64416, Note_on_c, 0, 77, 70
2, 64508, Note_off_c, 0, 77, 100
2, 64512, Note_on_c, 0, 82, 70
2, 64796, Note_off_c, 0, 82, 100
2, 64800, Note_on_c, 0, 89, 70
2, 64892, Note_off_c, 0, 89, 100
2, 64896, Note_on_c, 0, 89, 70
2, 65276, Note_off_c, 0, 89, 100
2, 65280, Note_on_c, 0, 88, 70
2, 65948, Note_off_c, 0, 88, 100
2, 65952, Note_on_c, 0, 82, 70
2, 66044, Note_off_c, 0, 82, 100
2, 66048, Note_on_c, 0, 89, 70
2, 66332, Note_off_c, 0, 89, 100
2, 66336, Note_on_c, 0, 94, 70
2, 66428, Note_off_c, 0, 94, 100
2, 66432, Note_on_c, 0, 94, 70
2, 66812, Note_off_c, 0, 94, 100
2, 66816, Note_on_c, 0, 94, 72
2, 67484, Note_off_c, 0, 94, 100
2, 67488, Note_on_c, 0, 91, 76
2, 67580, Note_off_c, 0, 91, 100
2, 67584, Note_on_c, 0, 93, 77
2, 67868, Note_off_c, 0, 93, 100
2, 67872, Note_on_c, 0, 96, 79
2, 67964, Note_off_c, 0, 96, 100
2, 67968, Note_on_c, 0, 91, 80
2, 67968, Note_on_c, 0, 82, 80
2, 67968, Note_on_c, 0, 79, 80
2, 68252, Note_off_c, 0, 91, 100
2, 68256, Note_on_c, 0, 88, 82
2, 68348, Note_off_c, 0, 82, 100
2, 68348, Note_off_c, 0, 79, 100
2, 68348, Note_off_c, 0, 88, 100
2, 68352, Note_on_c, 0, 89, 82
2, 68352, Note_on_c, 0, 81, 82
2, 68352, Note_on_c, 0, 77, 82
2, 68540, Note_off_c, 0, 89, 100
2, 68540, Note_off_c, 0, 81, 100
2, 68540, Note_off_c, 0, 77, 100
2, 68640, Note_on_c, 0, 93, 84
2, 68732, Note_off_c, 0, 93, 100
2, 68736, Note_on_c, 0, 84, 85
2, 68736, Note_on_c, 0, 79, 85
2, 68736, Note_on_c, 0, 76, 85
2, 68924, Note_off_c, 0, 84, 100
2, 68924, Note_off_c, 0, 79, 100
2, 68924, Note_off_c, 0, 76, 100
2, 69024, Note_on_c, 0, 84, 87
2, 69024, Note_on_c, 0, 79, 87
2, 69024, Note_on_c, 0, 76, 87
2, 69116, Note_off_c, 0, 84, 100
2, 69116, Note_off_c, 0, 79, 100
2, 69116, Note_off_c, 0, 76, 100
2, 69120, Note_on_c, 0, 83, 87
2, 69120, Note_on_c, 0, 77, 87
2, 69120, Note_on_c, 0, 74, 87
2, 69308, Note_off_c, 0, 83, 100
2, 69308, Note_off_c, 0, 77, 100
2, 69308, Note_off_c, 0, 74, 100
2, 69408, Note_on_c, 0, 82, 89
2, 69408, Note_on_c, 0, 79, 89
2, 69408, Note_on_c, 0, 76, 89
2, 69500, Note_off_c, 0, 82, 100
2, 69500, Note_off_c, 0, 79, 100
2, 69500, Note_off_c, 0, 76, 100
2, 69504, Note_on_c, 0, 82, 90
2, 69504, Note_on_c, 0, 79, 90
2, 69504, Note_on_c, 0, 76, 90
2, 69504, Note_on_c, 0, 70, 90
2, 69884, Note_off_c, 0, 82, 100
2, 69884, Note_off_c, 0, 79, 100
2, 69884, Note_off_c, 0, 76, 100
2, 69884, Note_off_c, 0, 70, 100
2, 69888, Note_on_c, 0, 82, 92
2, 69888, Note_on_c, 0, 79, 92
2, 69888, Note_on_c, 0, 76, 92
2, 69888, Note_on_c, 0, 70, 92
2, 70556, Note_off_c, 0, 82, 100
2, 70560, Note_on_c, 0, 79, 97
2, 70652, Note_off_c, 0, 79, 100
2, 70652, Note_off_c, 0, 76, 100
2, 70652, Note_off_c, 0, 70, 100
2, 70652, Note_off_c, 0, 79, 100
2, 70656, Note_on_c, 0, 81, 97
2, 70940, Note_off_c, 0, 81, 100
2, 70944, Note_on_c, 0, 84, 99
2, 71036, Note_off_c, 0, 84, 100
2, 71040, Note_on_c, 0, 79, 100
2, 71324, Note_off_c, 0, 79, 100
2, 71328, Note_on_c, 0, 76, 102
2, 71420, Note_off_c, 0, 76, 100
2, 71424, Note_on_c, 0, 77, 102
2, 71708, Note_off_c, 0, 77, 100
2, 71712, Note_on_c, 0, 81, 104
2, 71804, Note_off_c, 0, 81, 100
2, 71808, Note_on_c, 0, 72, 105
2, 71996, Note_off_c, 0, 72, 100
2, 72096, Note_on_c, 0, 72, 107
2, 72188, Note_off_c, 0, 72, 100
2, 72192, Note_on_c, 0, 71, 108
2, 72380, Note_off_c, 0, 71, 100
2, 72480, Note_on_c, 0, 70, 109
2, 72480, Note_on_c, 0, 67, 109
2, 72572, Note_off_c, 0, 70, 100
2, 72572, Note_off_c, 0, 67, 100
2, 72576, Note_on_c, 0, 70, 110
2, 72576, Note_on_c, 0, 67, 110
2, 72576, Note_on_c, 0, 64, 110
2, 72576, Note_on_c, 0, 58, 110
2, 72956, Note_off_c, 0, 70, 100
2, 72956, Note_off_c, 0, 67, 100
2, 72956, Note_off_c, 0, 64, 100
2, 72956, Note_off_c, 0, 58, 100
2, 73728, Note_on_c, 0, 65, 110
2, 74396, Note_off_c, 0, 65, 100
2, 74400, Note_on_c, 0, 62, 110
2, 74492, Note_off_c, 0, 62, 100
2, 74496, Note_on_c, 0, 70, 110
2, 74496, Note_on_c, 0, 64, 110
2, 74780, Note_off_c, 0, 64, 100
2, 74784, Note_on_c, 0, 67, 110
2, 74876, Note_off_c, 0, 67, 100
2, 74880, Note_on_c, 0, 60, 110
2, 75164, Note_off_c, 0, 70, 100
2, 75168, Note_on_c, 0, 67, 110
2, 75260, Note_off_c, 0, 60, 100
2, 75260, Note_off_c, 0, 67, 100
2, 75264, Note_on_c, 0, 77, 110
2, 75264, Note_on_c, 0, 69, 110
2, 75548, Note_off_c, 0, 69, 100
2, 75552, Note_on_c, 0, 72, 110
2, 75644, Note_off_c, 0, 72, 100
2, 75648, Note_on_c, 0, 68, 110
2, 75932, Note_off_c, 0, 77, 100
2, 75932, Note_off_c, 0, 68, 100
2, 75936, Note_on_c, 0, 74, 110
2, 75936, Note_on_c, 0, 67, 110
2, 76028, Note_off_c, 0, 74, 100
2, 76028, Note_off_c, 0, 67, 100
2, 76032, Note_on_c, 0, 75, 110
2, 76032, Note_on_c, 0, 87, 110
2, 76316, Note_off_c, 0, 75, 100
2, 76320, Note_on_c, 0, 79, 110
2, 76412, Note_off_c, 0, 79, 100
2, 76416, Note_on_c, 0, 78, 110
2, 76700, Note_off_c, 0, 87, 100
2, 76704, Note_on_c, 0, 84, 110
2, 76796, Note_off_c, 0, 78, 100
2, 76796, Note_off_c, 0, 84, 100
2, 76800, Note_on_c, 0, 86, 110
2, 76800, Note_on_c, 0, 77, 110
2, 77084, Note_off_c, 0, 86, 100
2, 77088, Note_on_c, 0, 89, 110
2, 77180, Note_off_c, 0, 89, 100
2, 77184, Note_on_c, 0, 86, 110
2, 77468, Note_off_c, 0, 86, 100
2, 77472, Note_on_c, 0, 82, 110
2, 77564, Note_off_c, 0, 82, 100
2, 77568, Note_on_c, 0, 84, 110
2, 77852, Note_off_c, 0, 77, 100
2, 77852, Note_off_c, 0, 84, 100
2, 77856, Note_on_c, 0, 77, 110
2, 77856, Note_on_c, 0, 74, 110
2, 77856, Note_on_c, 0, 86, 110
2, 77948, Note_off_c, 0, 77, 100
2, 77948, Note_off_c, 0, 74, 100
2, 77948, Note_off_c, 0, 86, 100
2, 77952, Note_on_c, 0, 81, 110
2, 77952, Note_on_c, 0, 77, 110
2, 77952, Note_on_c, 0, 72, 110
2, 78236, Note_off_c, 0, 81, 100
2, 78236, Note_off_c, 0, 77, 100
2, 78236, Note_off_c, 0, 72, 100
2, 78240, Note_on_c, 0, 79, 110
2, 78240, Note_on_c, 0, 76, 110
2, 78240, Note_on_c, 0, 72, 110
2, 78332, Note_off_c, 0, 79, 100
2, 78332, Note_off_c, 0, 76, 100
2, 78332, Note_off_c, 0, 72, 100
2, 78336, Note_on_c, 0, 81, 110
2, 78336, Note_on_c, 0, 77, 110
2, 78336, Note_on_c, 0, 72, 110
2, 78620, Note_off_c, 0, 81, 100
2, 78620, Note_off_c, 0, 77, 100
2, 78620, Note_off_c, 0, 72, 100
2, 78624, Note_on_c, 0, 82, 110
2, 78624, Note_on_c, 0, 79, 110
2, 78716, Note_off_c, 0, 82, 100
2, 78716, Note_off_c, 0, 79, 100
2, 78720, Note_on_c, 0, 81, 95
2, 78720, Note_on_c, 0, 77, 95
2, 79004, Note_off_c, 0, 81, 100
2, 79004, Note_off_c, 0, 77, 100
2, 79008, Note_on_c, 0, 70, 80
2, 79008, Note_on_c, 0, 67, 80
2, 79100, Note_off_c, 0, 70, 100
2, 79100, Note_off_c, 0, 67, 100
2, 79104, Note_on_c, 0, 72, 80
2, 79104, Note_on_c, 0, 69, 80
2, 79388, Note_off_c, 0, 72, 100
2, 79388, Note_off_c, 0, 69, 100
2, 79392, Note_on_c, 0, 74, 80
2, 79392, Note_on_c, 0, 70, 80
2, 79484, Note_off_c, 0, 74, 100
2, 79484, Note_off_c, 0, 70, 100
2, 79488, Note_on_c, 0, 72, 80
2, 79488, Note_on_c, 0, 69, 80
2, 79772, Note_off_c, 0, 72, 100
2, 79772, Note_off_c, 0, 69, 100
2, 79776, Note_on_c, 0, 74, 80
2, 79776, Note_on_c, 0, 70, 80
2, 79868, Note_off_c, 0, 74, 100
2, 79868, Note_off_c, 0, 70, 100
2, 79872, Note_on_c, 0, 76, 80
2, 79872, Note_on_c, 0, 72, 80
2, 80156, Note_off_c, 0, 76, 100
2, 80156, Note_off_c, 0, 72, 100
2, 80160, Note_on_c, 0, 77, 80
2, 80160, Note_on_c, 0, 74, 80
2, 80252, Note_off_c, 0, 77, 100
2, 80252, Note_off_c, 0, 74, 100
2, 80256, Note_on_c, 0, 79, 80
2, 80256, Note_on_c, 0, 76, 80
2, 80540, Note_off_c, 0, 79, 100
2, 80540, Note_off_c, 0, 76, 100
2, 80544, Note_on_c, 0, 81, 80
2, 80544, Note_on_c, 0, 77, 80
2, 80636, Note_off_c, 0, 81, 100
2, 80636, Note_off_c, 0, 77, 100
2, 80640, Note_on_c, 0, 82, 80
2, 80640, Note_on_c, 0, 79, 80
2, 81404, Note_off_c, 0, 82, 100
2, 81404, Note_off_c, 0, 79, 100
2, 81408, Note_on_c, 0, 81, 88
2, 81408, Note_on_c, 0, 77, 88
2, 81788, Note_off_c, 0, 81, 100
2, 81788, Note_off_c, 0, 77, 100
2, 81792, Note_on_c, 0, 79, 92
2, 81792, Note_on_c, 0, 70, 92
2, 82172, Note_off_c, 0, 79, 100
2, 82172, Note_off_c, 0, 70, 100
2, 82176, Note_on_c, 0, 77, 97
2, 82176, Note_on_c, 0, 69, 97
2, 82940, Note_off_c, 0, 77, 100
2, 82940, Note_off_c, 0, 69, 100
2, 82944, Note_on_c, 0, 76, 105
2, 82944, Note_on_c, 0, 67, 105
2, 83324, Note_off_c, 0, 76, 100
2, 83324, Note_off_c, 0, 67, 100
2, 83328, Note_on_c, 0, 69, 109
2, 83452, Note_off_c, 0, 69, 100
2, 83456, Note_on_c, 0, 65, 80
2, 83580, Note_off_c, 0, 65, 100
2, 83584, Note_on_c, 0, 70, 80
2, 83708, Note_off_c, 0, 70, 100
2, 83712, Note_on_c, 0, 72, 80
2, 83836, Note_off_c, 0, 72, 100
2, 83840, Note_on_c, 0, 69, 80
2, 83964, Note_off_c, 0, 69, 100
2, 83968, Note_on_c, 0, 74, 80
2, 84092, Note_off_c, 0, 74, 100
2, 84096, Note_on_c, 0, 72, 80
2, 84220, Note_off_c, 0, 72, 100
2, 84224, Note_on_c, 0, 69, 80
2, 84348, Note_off_c, 0, 69, 100
2, 84352, Note_on_c, 0, 74, 80
2, 84476, Note_off_c, 0, 74, 100
2, 84480, Note_on_c, 0, 76, 80
2, 84604, Note_off_c, 0, 76, 100
2, 84608, Note_on_c, 0, 72, 80
2, 84732, Note_off_c, 0, 72, 100
2, 84736, Note_on_c, 0, 77, 80
2, 84860, Note_off_c, 0, 77, 100
2, 84864, Note_on_c, 0, 79, 80
2, 84988, Note_off_c, 0, 79, 100
2, 84992, Note_on_c, 0, 76, 80
2, 85116, Note_off_c, 0, 76, 100
2, 85120, Note_on_c, 0, 81, 80
2, 85120, Note_on_c, 0, 77, 80
2, 85244, Note_off_c, 0, 81, 100
2, 85244, Note_off_c, 0, 77, 100
2, 85248, Note_on_c, 0, 82, 80
2, 85248, Note_on_c, 0, 79, 80
2, 86012, Note_off_c, 0, 82, 100
2, 86012, Note_off_c, 0, 79, 100
2, 86016, Note_on_c, 0, 81, 88
2, 86016, Note_on_c, 0, 77, 88
2, 86396, Note_off_c, 0, 81, 100
2, 86396, Note_off_c, 0, 77, 100
2, 86400, Note_on_c, 0, 79, 93
2, 86400, Note_on_c, 0, 70, 93
2, 86780, Note_off_c, 0, 79, 100
2, 86780, Note_off_c, 0, 70, 100
2, 86784, Note_on_c, 0, 77, 97
2, 86784, Note_on_c, 0, 69, 97
2, 87548, Note_off_c, 0, 77, 100
2, 87548, Note_off_c, 0, 69, 100
2, 87552, Note_on_c, 0, 76, 106
2, 87552, Note_on_c, 0, 67, 106
2, 87932, Note_off_c, 0, 76, 100
2, 87932, Note_off_c, 0, 67, 100
2, 87936, Note_on_c, 0, 96, 120
2, 87936, Note_on_c, 0, 84, 120
2, 88700, Note_off_c, 0, 96, 100
2, 88700, Note_off_c, 0, 84, 100
2, 88704, Note_on_c, 0, 75, 120
2, 88704, Note_on_c, 0, 72, 120
2, 88704, Note_on_c, 0, 65, 120
2, 89468, Note_off_c, 0, 75, 100
2, 89468, Note_off_c, 0, 72, 100
2, 89468, Note_off_c, 0, 65, 100
2, 89472, Note_on_c, 0, 74, 80
2, 89472, Note_on_c, 0, 70, 80
2, 89472, Note_on_c, 0, 65, 80
2, 89660, Note_off_c, 0, 74, 100
2, 89660, Note_off_c, 0, 70, 100
2, 89660, Note_off_c, 0, 65, 100
2, 89760, Note_on_c, 0, 74, 80
2, 89760, Note_on_c, 0, 70, 80
2, 89760, Note_on_c, 0, 65, 80
2, 89852, Note_off_c, 0, 74, 100
2, 89852, Note_off_c, 0, 70, 100
2, 89852, Note_off_c, 0, 65, 100
2, 89856, Note_on_c, 0, 72, 80
2, 89856, Note_on_c, 0, 69, 80
2, 89856, Note_on_c, 0, 65, 80
2, 90044, Note_off_c, 0, 72, 100
2, 90044, Note_off_c, 0, 69, 100
2, 90044, Note_off_c, 0, 65, 100
2, 90144, Note_on_c, 0, 72, 80
2, 90144, Note_on_c, 0, 69, 80
2, 90144, Note_on_c, 0, 65, 80
2, 90236, Note_off_c, 0, 72, 100
2, 90236, Note_off_c, 0, 69, 100
2, 90236, Note_off_c, 0, 65, 100
2, 90240, Note_on_c, 0, 71, 80
2, 90240, Note_on_c, 0, 68, 80
2, 90240, Note_on_c, 0, 65, 80
2, 90428, Note_off_c, 0, 71, 100
2, 90428, Note_off_c, 0, 68, 100
2, 90428, Note_off_c, 0, 65, 100
2, 90528, Note_on_c, 0, 70, 80
2, 90528, Note_on_c, 0, 67, 80
2, 90620, Note_off_c, 0, 70, 100
2, 90620, Note_off_c, 0, 67, 100
2, 90624, Note_on_c, 0, 69, 80
2, 90812, Note_off_c, 0, 69, 100
2, 90912, Note_on_c, 0, 81, 80
2, 90912, Note_on_c, 0, 77, 80
2, 91004, Note_off_c, 0, 81, 100
2, 91004, Note_off_c, 0, 77, 100
2, 91008, Note_on_c, 0, 81, 80
2, 91008, Note_on_c, 0, 77, 80
2, 91292, Note_off_c, 0, 81, 100
2, 91292, Note_off_c, 0, 77, 100
2, 91296, Note_on_c, 0, 80, 80
2, 91296, Note_on_c, 0, 77, 80
2, 91388, Note_off_c, 0, 80, 100
2, 91388, Note_off_c, 0, 77, 100
2, 91392, Note_on_c, 0, 79, 80
2, 91392, Note_on_c, 0, 77, 80
2, 91580, Note_off_c, 0, 79, 100
2, 91580, Note_off_c, 0, 77, 100
2, 91680, Note_on_c, 0, 84, 80
2, 91680, Note_on_c, 0, 76, 80
2, 91772, Note_off_c, 0, 84, 100
2, 91772, Note_off_c, 0, 76, 100
2, 91776, Note_on_c, 0, 77, 80
2, 92156, Note_off_c, 0, 77, 100
2, 92448, Note_on_c, 0, 69, 80
2, 92448, Note_on_c, 0, 65, 80
2, 92540, Note_off_c, 0, 69, 100
2, 92540, Note_off_c, 0, 65, 100
2, 92544, Note_on_c, 0, 69, 80
2, 92544, Note_on_c, 0, 65, 80
2, 92828, Note_off_c, 0, 69, 100
2, 92828, Note_off_c, 0, 65, 100
2, 92832, Note_on_c, 0, 68, 80
2, 92832, Note_on_c, 0, 65, 80
2, 92924, Note_off_c, 0, 68, 100
2, 92924, Note_off_c, 0, 65, 100
2, 92928, Note_on_c, 0, 67, 80
2, 92928, Note_on_c, 0, 64, 80
2, 93116, Note_off_c, 0, 67, 100
2, 93116, Note_off_c, 0, 64, 100
2, 93216, Note_on_c, 0, 76, 80
2, 93216, Note_on_c, 0, 72, 80
2, 93308, Note_off_c, 0, 76, 100
2, 93308, Note_off_c, 0, 72, 100
2, 93312, Note_on_c, 0, 77, 80
2, 93312, Note_on_c, 0, 72, 80
2, 93500, Note_off_c, 0, 77, 100
2, 93500, Note_off_c, 0, 72, 100
2, 93600, Note_on_c, 0, 74, 80
2, 93692, Note_off_c, 0, 74, 100
2, 93696, Note_on_c, 0, 72, 80
2, 93884, Note_off_c, 0, 72, 100
2, 93984, Note_on_c, 0, 81, 110
2, 93984, Note_on_c, 0, 77, 110
2, 93984, Note_on_c, 0, 69, 110
2, 94076, Note_off_c, 0, 81, 100
2, 94076, Note_off_c, 0, 77, 100
2, 94076, Note_off_c, 0, 69, 100
2, 94080, Note_on_c, 0, 81, 110
2, 94080, Note_on_c, 0, 77, 110
2, 94080, Note_on_c, 0, 69, 110
2, 94364, Note_off_c, 0, 81, 100
2, 94364, Note_off_c, 0, 77, 100
2, 94364, Note_off_c, 0, 69, 100
2, 94368, Note_on_c, 0, 80, 110
2, 94368, Note_on_c, 0, 77, 110
2, 94368, Note_on_c, 0, 68, 110
2, 94460, Note_off_c, 0, 80, 100
2, 94460, Note_off_c, 0, 77, 100
2, 94460, Note_off_c, 0, 68, 100
2, 94464, Note_on_c, 0, 79, 110
2, 94464, Note_on_c, 0, 76, 110
2, 94464, Note_on_c, 0, 67, 110
2, 94652, Note_off_c, 0, 79, 100
2, 94652, Note_off_c, 0, 76, 100
2, 94652, Note_off_c, 0, 67, 100
2, 94752, Note_on_c, 0, 88, 110
2, 94752, Note_on_c, 0, 79, 110
2, 94752, Note_on_c, 0, 76, 110
2, 94844, Note_off_c, 0, 88, 100
2, 94844, Note_off_c, 0, 79, 100
2, 94844, Note_off_c, 0, 76, 100
2, 94848, Note_on_c, 0, 89, 110
2, 94848, Note_on_c, 0, 81, 110
2, 94848, Note_on_c, 0, 77, 110
2, 95228, Note_off_c, 0, 89, 100
2, 95228, Note_off_c, 0, 81, 100
2, 95228, Note_off_c, 0, 77, 100
2, 95520, Note_on_c, 0, 81, 110
2, 95520, Note_on_c, 0, 69, 110
2, 95612, Note_off_c, 0, 81, 100
2, 95612, Note_off_c, 0, 69, 100
2, 95616, Note_on_c, 0, 81, 110
2, 95616, Note_on_c, 0, 69, 110
2, 95900, Note_off_c, 0, 81, 100
2, 95900, Note_off_c, 0, 69, 100
2, 95904, Note_on_c, 0, 81, 80
2, 95996, Note_off_c, 0, 81, 100
2, 96000, Note_on_c, 0, 85, 80
2, 96284, Note_off_c, 0, 85, 100
2, 96288, Note_on_c, 0, 90, 80
2, 96380, Note_off_c, 0, 90, 100
2, 96384, Note_on_c, 0, 90, 80
2, 96764, Note_off_c, 0, 90, 100
2, 96768, Note_on_c, 0, 88, 80
2, 97148, Note_off_c, 0, 88, 100
2, 97440, Note_on_c, 0, 57, 80
2, 97532, Note_off_c, 0, 57, 100
2, 97536, Note_on_c, 0, 61, 80
2, 97820, Note_off_c, 0, 61, 100
2, 97824, Note_on_c, 0, 66, 80
2, 97916, Note_off_c, 0, 66, 100
2, 97920, Note_on_c, 0, 66, 80
2, 98300, Note_off_c, 0, 66, 100
2, 98304, Note_on_c, 0, 64, 80
2, 98972, Note_off_c, 0, 64, 100
2, 98976, Note_on_c, 0, 80, 80
2, 99068, Note_off_c, 0, 80, 100
2, 99072, Note_on_c, 0, 81, 81
2, 99260, Note_off_c, 0, 81, 100
2, 99360, Note_on_c, 0, 82, 84
2, 99452, Note_off_c, 0, 82, 100
2, 99456, Note_on_c, 0, 82, 85
2, 99644, Note_off_c, 0, 82, 100
2, 99744, Note_on_c, 0, 82, 88
2, 99744, Note_on_c, 0, 88, 88
2, 99836, Note_off_c, 0, 82, 100
2, 99836, Note_off_c, 0, 88, 100
2, 99840, Note_on_c, 0, 89, 89
2, 99840, Note_on_c, 0, 81, 89
2, 100028, Note_off_c, 0, 89, 100
2, 100028, Note_off_c, 0, 81, 100
2, 100128, Note_on_c, 0, 91, 92
2, 100128, Note_on_c, 0, 79, 92
2, 100220, Note_off_c, 0, 91, 100
2, 100220, Note_off_c, 0, 79, 100
2, 100224, Note_on_c, 0, 91, 93
2, 100224, Note_on_c, 0, 79, 93
2, 100412, Note_off_c, 0, 91, 100
2, 100412, Note_off_c, 0, 79, 100
2, 100512, Note_on_c, 0, 88, 97
2, 100604, Note_off_c, 0, 88, 100
2, 100608, Note_on_c, 0, 91, 98
2, 100796, Note_off_c, 0, 91, 100
2, 100896, Note_on_c, 0, 85, 101
2, 100988, Note_off_c, 0, 85, 100
2, 100992, Note_on_c, 0, 88, 102
2, 101180, Note_off_c, 0, 88, 100
2, 101280, Note_on_c, 0, 79, 105
2, 101372, Note_off_c, 0, 79, 100
2, 101376, Note_on_c, 0, 82, 106
2, 101564, Note_off_c, 0, 82, 100
2, 101664, Note_on_c, 0, 81, 109
2, 101756, Note_off_c, 0, 81, 100
2, 101760, Note_on_c, 0, 77, 110
2, 102140, Note_off_c, 0, 77, 100
2, 102144, Note_on_c, 0, 81, 110
2, 102192, Note_on_c, 0, 82, 110
2, 102216, Note_off_c, 0, 81, 100
2, 102240, Note_on_c, 0, 81, 110
2, 102264, Note_off_c, 0, 82, 100
2, 102288, Note_on_c, 0, 82, 110
2, 102308, Note_off_c, 0, 81, 100
2, 102336, Note_on_c, 0, 81, 110
2, 102356, Note_off_c, 0, 82, 100
2, 102384, Note_on_c, 0, 82, 110
2, 102404, Note_off_c, 0, 81, 100
2, 102432, Note_on_c, 0, 79, 110
2, 102460, Note_off_c, 0, 82, 100
2, 102480, Note_on_c, 0, 81, 110
2, 102496, Note_off_c, 0, 79, 100
2, 102572, Note_off_c, 0, 81, 100
2, 102912, Note_on_c, 0, 89, 110
2, 102960, Note_on_c, 0, 91, 110
2, 102980, Note_off_c, 0, 89, 100
2, 103008, Note_on_c, 0, 89, 110
2, 103028, Note_off_c, 0, 91, 100
2, 103056, Note_on_c, 0, 91, 110
2, 103072, Note_off_c, 0, 89, 100
2, 103104, Note_on_c, 0, 89, 110
2, 103124, Note_off_c, 0, 91, 100
2, 103152, Note_on_c, 0, 91, 110
2, 103180, Note_off_c, 0, 89, 100
2, 103200, Note_on_c, 0, 88, 110
2, 103216, Note_off_c, 0, 91, 100
2, 103248, Note_on_c, 0, 89, 110
2, 103268, Note_off_c, 0, 88, 100
2, 103292, Note_off_c, 0, 89, 100
2, 103296, Note_on_c, 0, 89, 110
2, 103484, Note_off_c, 0, 89, 100
2, 103584, Note_on_c, 0, 86, 110
2, 103676, Note_off_c, 0, 86, 100
2, 103680, Note_on_c, 0, 89, 110
2, 103868, Note_off_c, 0, 89, 100
2, 103968, Note_on_c, 0, 83, 110
2, 104060, Note_off_c, 0, 83, 100
2, 104064, Note_on_c, 0, 86, 110
2, 104252, Note_off_c, 0, 86, 100
2, 104352, Note_on_c, 0, 74, 110
2, 104444, Note_off_c, 0, 74, 100
2, 104448, Note_on_c, 0, 80, 110
2, 104636, Note_off_c, 0, 80, 100
2, 104736, Note_on_c, 0, 79, 110
2, 104828, Note_off_c, 0, 79, 100
2, 104832, Note_on_c, 0, 76, 110
2, 105212, Note_off_c, 0, 76, 100
2, 105216, Note_on_c, 0, 81, 110
2, 105264, Note_on_c, 0, 83, 110
2, 105284, Note_off_c, 0, 81, 100
2, 105312, Note_on_c, 0, 81, 110
2, 105328, Note_off_c, 0, 83, 100
2, 105360, Note_on_c, 0, 83, 110
2, 105376, Note_off_c, 0, 81, 100
2, 105408, Note_on_c, 0, 81, 110
2, 105436, Note_off_c, 0, 83, 100
2, 105456, Note_on_c, 0, 83, 110
2, 105480, Note_off_c, 0, 81, 100
2, 105504, Note_on_c, 0, 80, 110
2, 105524, Note_off_c, 0, 83, 100
2, 105552, Note_on_c, 0, 81, 110
2, 105576, Note_off_c, 0, 80, 100
2, 105644, Note_off_c, 0, 81, 100
2, 105984, Note_on_c, 0, 93, 110
2, 106032, Note_on_c, 0, 95, 110
2, 106060, Note_off_c, 0, 93, 100
2, 106080, Note_on_c, 0, 93, 110
2, 106100, Note_off_c, 0, 95, 100
2, 106128, Note_on_c, 0, 95, 110
2, 106152, Note_off_c, 0, 93, 100
2, 106176, Note_on_c, 0, 93, 110
2, 106204, Note_off_c, 0, 95, 100
2, 106224, Note_on_c, 0, 95, 110
2, 106252, Note_off_c, 0, 93, 100
2, 106272, Note_on_c, 0, 92, 110
2, 106292, Note_off_c, 0, 95, 100
2, 106320, Note_on_c, 0, 93, 110
2, 106340, Note_off_c, 0, 92, 100
2, 106364, Note_off_c, 0, 93, 100
2, 106368, Note_on_c, 0, 92, 110
2, 106556, Note_off_c, 0, 92, 100
2, 106656, Note_on_c, 0, 76, 80
2, 106748, Note_off_c, 0, 76, 100
2, 106752, Note_on_c, 0, 79, 80
2, 107036, Note_off_c, 0, 79, 100
2, 107040, Note_on_c, 0, 77, 80
2, 107132, Note_off_c, 0, 77, 100
2, 107136, Note_on_c, 0, 77, 80
2, 108188, Note_off_c, 0, 77, 100
2, 108192, Note_on_c, 0, 75, 80
2, 108284, Note_off_c, 0, 75, 100
2, 108288, Note_on_c, 0, 77, 80
2, 108572, Note_off_c, 0, 77, 100
2, 108576, Note_on_c, 0, 76, 80
2, 108668, Note_off_c, 0, 76, 100
2, 108672, Note_on_c, 0, 76, 80
2, 109820, Note_off_c, 0, 76, 100
2, 109824, Note_on_c, 0, 74, 80
2, 110204, Note_off_c, 0, 74, 100
2, 110496, Note_on_c, 0, 74, 80
2, 110588, Note_off_c, 0, 74, 100
2, 110592, Note_on_c, 0, 77, 80
2, 110780, Note_off_c, 0, 77, 100
2, 110880, Note_on_c, 0, 82, 80
2, 110972, Note_off_c, 0, 82, 100
2, 110976, Note_on_c, 0, 82, 80
2, 112028, Note_off_c, 0, 82, 100
2, 112032, Note_on_c, 0, 73, 80
2, 112124, Note_off_c, 0, 73, 100
2, 112128, Note_on_c, 0, 76, 80
2, 112316, Note_off_c, 0, 76, 100
2, 112416, Note_on_c, 0, 81, 80
2, 112508, Note_off_c, 0, 81, 100
2, 112512, Note_on_c, 0, 81, 80
2, 113084, Note_off_c, 0, 81, 100
2, 113184, Note_on_c, 0, 54, 80
2, 113276, Note_off_c, 0, 54, 100
2, 113280, Note_on_c, 0, 57, 80
2, 113564, Note_off_c, 0, 57, 100
2, 113568, Note_on_c, 0, 66, 80
2, 113568, Note_on_c, 0, 60, 80
2, 113660, Note_off_c, 0, 66, 100
2, 113660, Note_off_c, 0, 60, 100
2, 113664, Note_on_c, 0, 69, 80
2, 113664, Note_on_c, 0, 66, 80
2, 113948, Note_off_c, 0, 69, 100
2, 113952, Note_on_c, 0, 72, 80
2, 114044, Note_off_c, 0, 66, 100
2, 114044, Note_off_c, 0, 72, 100
2, 114048, Note_on_c, 0, 70, 80
2, 114048, Note_on_c, 0, 67, 80
2, 114428, Note_off_c, 0, 70, 100
2, 114428, Note_off_c, 0, 67, 100
2, 114720, Note_on_c, 0, 58, 80
2, 114812, Note_off_c, 0, 58, 100
2, 114816, Note_on_c, 0, 62, 80
2, 115100, Note_off_c, 0, 62, 100
2, 115104, Note_on_c, 0, 70, 80
2, 115104, Note_on_c, 0, 67, 80
2, 115196, Note_off_c, 0, 70, 100
2, 115196, Note_off_c, 0, 67, 100
2, 115200, Note_on_c, 0, 74, 80
2, 115200, Note_on_c, 0, 67, 80
2, 115480, Note_on_c, 0, 79, 80
2, 115484, Note_off_c, 0, 74, 100
2, 115580, Note_off_c, 0, 67, 100
2, 115584, Note_on_c, 0, 72, 80
2, 115860, Note_off_c, 0, 79, 100
2, 115872, Note_on_c, 0, 79, 80
2, 115964, Note_off_c, 0, 79, 100
2, 115968, Note_on_c, 0, 77, 80
2, 116252, Note_off_c, 0, 72, 100
2, 116256, Note_on_c, 0, 72, 80
2, 116348, Note_off_c, 0, 72, 100
2, 116352, Note_on_c, 0, 71, 80
2, 116540, Note_off_c, 0, 71, 100
2, 116544, Note_on_c, 0, 70, 80
2, 116544, Note_on_c, 0, 67, 80
2, 116636, Note_off_c, 0, 77, 100
2, 116640, Note_on_c, 0, 77, 80
2, 116732, Note_off_c, 0, 77, 100
2, 116736, Note_on_c, 0, 76, 80
2, 116924, Note_off_c, 0, 70, 100
2, 116924, Note_off_c, 0, 67, 100
2, 116924, Note_off_c, 0, 76, 100
2, 116928, Note_on_c, 0, 77, 80
2, 116928, Note_on_c, 0, 68, 80
2, 116928, Note_on_c, 0, 65, 80
2, 117116, Note_off_c, 0, 77, 100
2, 117116, Note_off_c, 0, 68, 100
2, 117116, Note_off_c, 0, 65, 100
2, 117792, Note_on_c, 0, 53, 80
2, 117884, Note_off_c, 0, 53, 100
2, 117888, Note_on_c, 0, 56, 80
2, 118172, Note_off_c, 0, 56, 100
2, 118176, Note_on_c, 0, 61, 80
2, 118268, Note_off_c, 0, 61, 100
2, 118272, Note_on_c, 0, 65, 80
2, 118560, Note_on_c, 0, 68, 80
2, 118652, Note_off_c, 0, 65, 100
2, 118652, Note_off_c, 0, 68, 100
2, 118656, Note_on_c, 0, 73, 80
2, 118656, Note_on_c, 0, 66, 80
2, 118656, Note_on_c, 0, 61, 80
2, 119036, Note_off_c, 0, 73, 100
2, 119036, Note_off_c, 0, 66, 100
2, 119036, Note_off_c, 0, 61, 100
2, 119328, Note_on_c, 0, 54, 80
2, 119420, Note_off_c, 0, 54, 100
2, 119424, Note_on_c, 0, 58, 80
2, 119708, Note_off_c, 0, 58, 100
2, 119712, Note_on_c, 0, 61, 80
2, 119804, Note_off_c, 0, 61, 100
2, 119808, Note_on_c, 0, 66, 80
2, 120092, Note_off_c, 0, 66, 100
2, 120096, Note_on_c, 0, 73, 80
2, 120096, Note_on_c, 0, 67, 80
2, 120096, Note_on_c, 0, 64, 80
2, 120188, Note_off_c, 0, 73, 100
2, 120188, Note_off_c, 0, 67, 100
2, 120188, Note_off_c, 0, 64, 100
2, 120192, Note_on_c, 0, 77, 80
2, 120192, Note_on_c, 0, 72, 80
2, 120192, Note_on_c, 0, 65, 80
2, 120380, Note_off_c, 0, 77, 100
2, 120380, Note_off_c, 0, 72, 100
2, 120380, Note_off_c, 0, 65, 100
2, 120480, Note_on_c, 0, 64, 80
2, 120480, Note_on_c, 0, 55, 80
2, 120572, Note_off_c, 0, 64, 100
2, 120572, Note_off_c, 0, 55, 100
2, 120576, Note_on_c, 0, 67, 80
2, 120576, Note_on_c, 0, 58, 80
2, 120860, Note_off_c, 0, 67, 100
2, 120860, Note_off_c, 0, 58, 100
2, 120864, Note_on_c, 0, 65, 80
2, 120864, Note_on_c, 0, 56, 80
2, 120956, Note_off_c, 0, 65, 100
2, 120956, Note_off_c, 0, 56, 100
2, 120960, Note_on_c, 0, 70, 80
2, 121248, Note_on_c, 0, 62, 80
2, 121248, Note_on_c, 0, 53, 80
2, 121340, Note_off_c, 0, 70, 100
2, 121340, Note_off_c, 0, 62, 100
2, 121340, Note_off_c, 0, 53, 100
2, 121344, Note_on_c, 0, 65, 80
2, 121344, Note_on_c, 0, 56, 80
2, 121628, Note_off_c, 0, 65, 100
2, 121628, Note_off_c, 0, 56, 100
2, 121632, Note_on_c, 0, 64, 80
2, 121632, Note_on_c, 0, 55, 80
2, 121724, Note_off_c, 0, 64, 100
2, 121724, Note_off_c, 0, 55, 100
2, 121728, Note_on_c, 0, 68, 80
2, 122016, Note_on_c, 0, 60, 80
2, 122108, Note_off_c, 0, 68, 100
2, 122108, Note_off_c, 0, 60, 100
2, 122112, Note_on_c, 0, 63, 80
2, 122396, Note_off_c, 0, 63, 100
2, 122400, Note_on_c, 0, 62, 80
2, 122400, Note_on_c, 0, 70, 80
2, 122492, Note_off_c, 0, 62, 100
2, 122492, Note_off_c, 0, 70, 100
2, 122496, Note_on_c, 0, 78, 80
2, 122784, Note_on_c, 0, 60, 80
2, 122876, Note_off_c, 0, 78, 100
2, 122876, Note_off_c, 0, 60, 100
2, 122880, Note_on_c, 0, 63, 80
2, 123164, Note_off_c, 0, 63, 100
2, 123168, Note_on_c, 0, 61, 80
2, 123168, Note_on_c, 0, 68, 80
2, 123260, Note_off_c, 0, 61, 100
2, 123260, Note_off_c, 0, 68, 100
2, 123264, Control_c, 0, 64, 127
2, 123264, Note_on_c, 0, 80, 80
2, 124320, Note_on_c, 0, 73, 80
2, 124412, Note_off_c, 0, 80, 100
2, 124412, Note_off_c, 0, 73, 100
2, 124416, Note_on_c, 0, 77, 80
2, 124700, Note_off_c, 0, 77, 100
2, 124704, Note_on_c, 0, 80, 80
2, 124796, Note_off_c, 0, 80, 100
2, 124800, Note_on_c, 0, 80, 80
2, 125184, Note_on_c, 0, 82, 80
2, 125372, Note_off_c, 0, 80, 100
2, 125856, Note_on_c, 0, 75, 80
2, 125948, Note_off_c, 0, 82, 100
2, 125952, Note_on_c, 0, 78, 80
2, 126044, Note_off_c, 0, 75, 100
2, 126240, Note_on_c, 0, 84, 80
2, 126332, Note_off_c, 0, 78, 100
2, 126336, Note_on_c, 0, 84, 80
2, 126524, Note_off_c, 0, 84, 100
2, 126720, Note_on_c, 0, 85, 80
2, 126908, Note_off_c, 0, 84, 100
2, 127392, Note_on_c, 0, 77, 80
2, 127484, Note_off_c, 0, 85, 100
2, 127488, Note_on_c, 0, 80, 80
2, 127580, Note_off_c, 0, 77, 100
2, 127776, Note_on_c, 0, 85, 80
2, 127868, Note_off_c, 0, 80, 100
2, 127872, Note_on_c, 0, 89, 80
2, 128060, Note_off_c, 0, 85, 100
2, 128928, Note_on_c, 0, 77, 80
2, 129024, Note_on_c, 0, 82, 80
2, 129308, Note_off_c, 0, 77, 100
2, 129312, Note_on_c, 0, 89, 80
2, 129400, Control_c, 0, 64, 0
2, 129404, Note_off_c, 0, 89, 100
2, 129404, Note_off_c, 0, 82, 100
2, 129404, Note_off_c, 0, 89, 100
2, 129408, Note_on_c, 0, 89, 80
2, 129788, Note_off_c, 0, 89, 100
2, 129792, Note_on_c, 0, 88, 80
2, 130460, Note_off_c, 0, 88, 100
2, 130464, Note_on_c, 0, 77, 80
2, 130556, Note_off_c, 0, 77, 100
2, 130560, Note_on_c, 0, 82, 80
2, 130844, Note_off_c, 0, 82, 100
2, 130848, Note_on_c, 0, 89, 80
2, 130940, Note_off_c, 0, 89, 100
2, 130944, Note_on_c, 0, 89, 80
2, 131324, Note_off_c, 0, 89, 100
2, 131328, Note_on_c, 0, 88, 80
2, 131996, Note_off_c, 0, 88, 100
2, 132000, Note_on_c, 0, 82, 80
2, 132092, Note_off_c, 0, 82, 100
2, 132096, Note_on_c, 0, 89, 80
2, 132380, Note_off_c, 0, 89, 100
2, 132384, Note_on_c, 0, 94, 80
2, 132476, Note_off_c, 0, 94, 100
2, 132480, Note_on_c, 0, 94, 80
2, 132860, Note_off_c, 0, 94, 100
2, 132864, Note_on_c, 0, 94, 81
2, 133532, Note_off_c, 0, 94, 100
2, 133536, Note_on_c, 0, 91, 85
2, 133628, Note_off_c, 0, 91, 100
2, 133632, Note_on_c, 0, 93, 85
2, 133916, Note_off_c, 0, 93, 100
2, 133920, Note_on_c, 0, 96, 87
2, 134012, Note_off_c, 0, 96, 100
2, 134016, Note_on_c, 0, 91, 87
2, 134016, Note_on_c, 0, 82, 87
2, 134016, Note_on_c, 0, 79, 87
2, 134300, Note_off_c, 0, 91, 100
2, 134304, Note_on_c, 0, 88, 89
2, 134396, Note_off_c, 0, 82, 100
2, 134396, Note_off_c, 0, 79, 100
2, 134396, Note_off_c, 0, 88, 100
2, 134400, Note_on_c, 0, 89, 89
2, 134400, Note_on_c, 0, 81, 89
2, 134400, Note_on_c, 0, 77, 89
2, 134588, Note_off_c, 0, 89, 100
2, 134588, Note_off_c, 0, 81, 100
2, 134588, Note_off_c, 0, 77, 100
2, 134688, Note_on_c, 0, 93, 90
2, 134780, Note_off_c, 0, 93, 100
2, 134784, Note_on_c, 0, 84, 91
2, 134784, Note_on_c, 0, 79, 91
2, 134784, Note_on_c, 0, 76, 91
2, 134972, Note_off_c, 0, 84, 100
2, 134972, Note_off_c, 0, 79, 100
2, 134972, Note_off_c, 0, 76, 100
2, 135072, Note_on_c, 0, 84, 92
2, 135072, Note_on_c, 0, 79, 92
2, 135072, Note_on_c, 0, 76, 92
2, 135164, Note_off_c, 0, 84, 100
2, 135164, Note_off_c, 0, 79, 100
2, 135164, Note_off_c, 0, 76, 100
2, 135168, Note_on_c, 0, 83, 93
2, 135168, Note_on_c, 0, 77, 93
2, 135168, Note_on_c, 0, 74, 93
2, 135356, Note_off_c, 0, 83, 100
2, 135356, Note_off_c, 0, 77, 100
2, 135356, Note_off_c, 0, 74, 100
2, 135456, Note_on_c, 0, 82, 94
2, 135456, Note_on_c, 0, 79, 94
2, 135456, Note_on_c, 0, 76, 94
2, 135548, Note_off_c, 0, 82, 100
2, 135548, Note_off_c, 0, 79, 100
2, 135548, Note_off_c, 0, 76, 100
2, 135552, Note_on_c, 0, 82, 95
2, 135552, Note_on_c, 0, 79, 95
2, 135552, Note_on_c, 0, 76, 95
2, 135552, Note_on_c, 0, 70, 95
2, 135932, Note_off_c, 0, 82, 100
2, 135932, Note_off_c, 0, 79, 100
2, 135932, Note_off_c, 0, 76, 100
2, 135932, Note_off_c, 0, 70, 100
2, 135936, Note_on_c, 0, 82, 97
2, 135936, Note_on_c, 0, 79, 97
2, 135936, Note_on_c, 0, 76, 97
2, 135936, Note_on_c, 0, 70, 97
2, 136604, Note_off_c, 0, 82, 100
2, 136608, Note_on_c, 0, 79, 100
2, 136700, Note_off_c, 0, 79, 100
2, 136700, Note_off_c, 0, 76, 100
2, 136700, Note_off_c, 0, 70, 100
2, 136700, Note_off_c, 0, 79, 100
2, 136704, Note_on_c, 0, 81, 100
2, 136988, Note_off_c, 0, 81, 100
2, 136992, Note_on_c, 0, 84, 102
2, 137084, Note_off_c, 0, 84, 100
2, 137088, Note_on_c, 0, 79, 102
2, 137372, Note_off_c, 0, 79, 100
2, 137376, Note_on_c, 0, 76, 104
2, 137468, Note_off_c, 0, 76, 100
2, 137472, Note_on_c, 0, 77, 104
2, 137756, Note_off_c, 0, 77, 100
2, 137760, Note_on_c, 0, 81, 106
2, 137852, Note_off_c, 0, 81, 100
2, 137856, Note_on_c, 0, 72, 106
2, 138044, Note_off_c, 0, 72, 100
2, 138144, Note_on_c, 0, 72, 108
2, 138236, Note_off_c, 0, 72, 100
2, 138240, Note_on_c, 0, 71, 108
2, 138428, Note_off_c, 0, 71, 100
2, 138528, Note_on_c, 0, 70, 109
2, 138528, Note_on_c, 0, 67, 109
2, 138620, Note_off_c, 0, 70, 100
2, 138620, Note_off_c, 0, 67, 100
2, 138624, Note_on_c, 0, 70, 110
2, 138624, Note_on_c, 0, 67, 110
2, 138624, Note_on_c, 0, 64, 110
2, 138624, Note_on_c, 0, 58, 110
2, 139004, Note_off_c, 0, 70, 100
2, 139004, Note_off_c, 0, 67, 100
2, 139004, Note_off_c, 0, 64, 100
2, 139004, Note_off_c, 0, 58, 100
2, 139776, Note_on_c, 0, 65, 110
2, 140444, Note_off_c, 0, 65, 100
2, 140448, Note_on_c, 0, 62, 110
2, 140540, Note_off_c, 0, 62, 100
2, 140544, Note_on_c, 0, 70, 110
2, 140544, Note_on_c, 0, 64, 110
2, 140828, Note_off_c, 0, 64, 100
2, 140832, Note_on_c, 0, 67, 110
2, 140924, Note_off_c, 0, 67, 100
2, 140928, Note_on_c, 0, 60, 110
2, 141212, Note_off_c, 0, 70, 100
2, 141216, Note_on_c, 0, 67, 110
2, 141308, Note_off_c, 0, 60, 100
2, 141308, Note_off_c, 0, 67, 100
2, 141312, Note_on_c, 0, 77, 110
2, 141312, Note_on_c, 0, 69, 110
2, 141596, Note_off_c, 0, 69, 100
2, 141600, Note_on_c, 0, 72, 110
2, 141692, Note_off_c, 0, 72, 100
2, 141696, Note_on_c, 0, 68, 110
2, 141980, Note_off_c, 0, 77, 100
2, 141980, Note_off_c, 0, 68, 100
2, 141984, Note_on_c, 0, 74, 110
2, 141984, Note_on_c, 0, 67, 110
2, 142076, Note_off_c, 0, 74, 100
2, 142076, Note_off_c, 0, 67, 100
2, 142080, Note_on_c, 0, 75, 110
2, 142080, Note_on_c, 0, 87, 110
2, 142364, Note_off_c, 0, 75, 100
2, 142368, Note_on_c, 0, 79, 110
2, 142460, Note_off_c, 0, 79, 100
2, 142464, Note_on_c, 0, 78, 110
2, 142748, Note_off_c, 0, 87, 100
2, 142752, Note_on_c, 0, 84, 110
2, 142844, Note_off_c, 0, 78, 100
2, 142844, Note_off_c, 0, 84, 100
2, 142848, Note_on_c, 0, 86, 110
2, 142848, Note_on_c, 0, 77, 110
2, 143132, Note_off_c, 0, 86, 100
2, 143136, Note_on_c, 0, 89, 110
2, 143228, Note_off_c, 0, 89, 100
2, 143232, Note_on_c, 0, 86, 110
2, 143516, Note_off_c, 0, 86, 100
2, 143520, Note_on_c, 0, 82, 110
2, 143612, Note_off_c, 0, 82, 100
2, 143616, Note_on_c, 0, 84, 110
2, 143900, Note_off_c, 0, 77, 100
2, 143900, Note_off_c, 0, 84, 100
2, 143904, Note_on_c, 0, 77, 110
2, 143904, Note_on_c, 0, 74, 110
2, 143904, Note_on_c, 0, 86, 110
2, 143996, Note_off_c, 0, 77, 100
2, 143996, Note_off_c, 0, 74, 100
2, 143996, Note_off_c, 0, 86, 100
2, 144000, Note_on_c, 0, 81, 110
2, 144000, Note_on_c, 0, 77, 110
2, 144000, Note_on_c, 0, 72, 110
2, 144284, Note_off_c, 0, 81, 100
2, 144284, Note_off_c, 0, 77, 100
2, 144284, Note_off_c, 0, 72, 100
2, 144288, Note_on_c, 0, 79, 110
2, 144288, Note_on_c, 0, 76, 110
2, 144288, Note_on_c, 0, 72, 110
2, 144380, Note_off_c, 0, 79, 100
2, 144380, Note_off_c, 0, 76, 100
2, 144380, Note_off_c, 0, 72, 100
2, 144384, Note_on_c, 0, 81, 110
2, 144384, Note_on_c, 0, 77, 110
2, 144384, Note_on_c, 0, 72, 110
2, 144668, Note_off_c, 0, 81, 100
2, 144668, Note_off_c, 0, 77, 100
2, 144668, Note_off_c, 0, 72, 100
2, 144672, Note_on_c, 0, 82, 110
2, 144672, Note_on_c, 0, 79, 110
2, 144764, Note_off_c, 0, 82, 100
2, 144764, Note_off_c, 0, 79, 100
2, 144768, Note_on_c, 0, 81, 95
2, 144768, Note_on_c, 0, 77, 95
2, 145052, Note_off_c, 0, 81, 100
2, 145052, Note_off_c, 0, 77, 100
2, 145056, Note_on_c, 0, 70, 80
2, 145056, Note_on_c, 0, 67, 80
2, 145148, Note_off_c, 0, 70, 100
2, 145148, Note_off_c, 0, 67, 100
2, 145152, Note_on_c, 0, 72, 80
2, 145152, Note_on_c, 0, 69, 80
2, 145436, Note_off_c, 0, 72, 100
2, 145436, Note_off_c, 0, 69, 100
2, 145440, Note_on_c, 0, 74, 80
2, 145440, Note_on_c, 0, 70, 80
2, 145532, Note_off_c, 0, 74, 100
2, 145532, Note_off_c, 0, 70, 100
2, 145536, Note_on_c, 0, 72, 80
2, 145536, Note_on_c, 0, 69, 80
2, 145820, Note_off_c, 0, 72, 100
2, 145820, Note_off_c, 0, 69, 100
2, 145824, Note_on_c, 0, 74, 80
2, 145824, Note_on_c, 0, 70, 80
2, 145916, Note_off_c, 0, 74, 100
2, 145916, Note_off_c, 0, 70, 100
2, 145920, Note_on_c, 0, 76, 80
2, 145920, Note_on_c, 0, 72, 80
2, 146204, Note_off_c, 0, 76, 100
2, 146204, Note_off_c, 0, 72, 100
2, 146208, Note_on_c, 0, 77, 80
2, 146208, Note_on_c, 0, 74, 80
2, 146300, Note_off_c, 0, 77, 100
2, 146300, Note_off_c, 0, 74, 100
2, 146304, Note_on_c, 0, 79, 80
2, 146304, Note_on_c, 0, 76, 80
2, 146588, Note_off_c, 0, 79, 100
2, 146588, Note_off_c, 0, 76, 100
2, 146592, Note_on_c, 0, 81, 80
2, 146592, Note_on_c, 0, 77, 80
2, 146684, Note_off_c, 0, 81, 100
2, 146684, Note_off_c, 0, 77, 100
2, 146688, Note_on_c, 0, 82, 80
2, 146688, Note_on_c, 0, 79, 80
2, 147452, Note_off_c, 0, 82, 100
2, 147452, Note_off_c, 0, 79, 100
2, 147456, Note_on_c, 0, 81, 88
2, 147456, Note_on_c, 0, 77, 88
2, 147836, Note_off_c, 0, 81, 100
2, 147836, Note_off_c, 0, 77, 100
2, 147840, Note_on_c, 0, 79, 93
2, 147840, Note_on_c, 0, 70, 93
2, 148220, Note_off_c, 0, 79, 100
2, 148220, Note_off_c, 0, 70, 100
2, 148224, Note_on_c, 0, 77, 97
2, 148224, Note_on_c, 0, 69, 97
2, 148988, Note_off_c, 0, 77, 100
2, 148988, Note_off_c, 0, 69, 100
2, 148992, Note_on_c, 0, 76, 106
2, 148992, Note_on_c, 0, 67, 106
2, 149372, Note_off_c, 0, 76, 100
2, 149372, Note_off_c, 0, 67, 100
2, 149376, Note_on_c, 0, 69, 80
2, 149500, Note_off_c, 0, 69, 100
2, 149504, Note_on_c, 0, 65, 80
2, 149628, Note_off_c, 0, 65, 100
2, 149632, Note_on_c, 0, 70, 80
2, 149756, Note_off_c, 0, 70, 100
2, 149760, Note_on_c, 0, 72, 80
2, 149884, Note_off_c, 0, 72, 100
2, 149888, Note_on_c, 0, 69, 80
2, 150012, Note_off_c, 0, 69, 100
2, 150016, Note_on_c, 0, 74, 80
2, 150140, Note_off_c, 0, 74, 100
2, 150144, Note_on_c, 0, 72, 80
2, 150268, Note_off_c, 0, 72, 100
2, 150272, Note_on_c, 0, 69, 80
2, 150396, Note_off_c, 0, 69, 100
2, 150400, Note_on_c, 0, 74, 80
2, 150524, Note_off_c, 0, 74, 100
2, 150528, Note_on_c, 0, 76, 80
2, 150652, Note_off_c, 0, 76, 100
2, 150656, Note_on_c, 0, 72, 80
2, 150780, Note_off_c, 0, 72, 100
2, 150784, Note_on_c, 0, 77, 80
2, 150908, Note_off_c, 0, 77, 100
2, 150912, Note_on_c, 0, 79, 80
2, 151036, Note_off_c, 0, 79, 100
2, 151040, Note_on_c, 0, 76, 80
2, 151164, Note_off_c, 0, 76, 100
2, 151168, Note_on_c, 0, 81, 80
2, 151168, Note_on_c, 0, 77, 80
2, 151292, Note_off_c, 0, 81, 100
2, 151292, Note_off_c, 0, 77, 100
2, 151296, Note_on_c, 0, 82, 80
2, 151296, Note_on_c, 0, 79, 80
2, 152060, Note_off_c, 0, 82, 100
2, 152060, Note_off_c, 0, 79, 100
2, 152064, Note_on_c, 0, 81, 88
2, 152064, Note_on_c, 0, 77, 88
2, 152444, Note_off_c, 0, 81, 100
2, 152444, Note_off_c, 0, 77, 100
2, 152448, Note_on_c, 0, 79, 93
2, 152448, Note_on_c, 0, 70, 93
2, 152828, Note_off_c, 0, 79, 100
2, 152828, Note_off_c, 0, 70, 100
2, 152832, Note_on_c, 0, 77, 97
2, 152832, Note_on_c, 0, 69, 97
2, 153596, Note_off_c, 0, 77, 100
2, 153596, Note_off_c, 0, 69, 100
2, 153600, Note_on_c, 0, 76, 106
2, 153600, Note_on_c, 0, 67, 106
2, 153980, Note_off_c, 0, 76, 100
2, 153980, Note_off_c, 0, 67, 100
2, 153984, Note_on_c, 0, 96, 120
2, 153984, Note_on_c, 0, 84, 120
2, 154748, Note_off_c, 0, 96, 100
2, 154748, Note_off_c, 0, 84, 100
2, 154752, Note_on_c, 0, 75, 120
2, 154752, Note_on_c, 0, 72, 120
2, 154752, Note_on_c, 0, 65, 120
2, 155516, Note_off_c, 0, 75, 100
2, 155516, Note_off_c, 0, 72, 100
2, 155516, Note_off_c, 0, 65, 100
2, 155520, Note_on_c, 0, 74, 80
2, 155520, Note_on_c, 0, 70, 80
2, 155520, Note_on_c, 0, 65, 80
2, 155708, Note_off_c, 0, 74, 100
2, 155708, Note_off_c, 0, 70, 100
2, 155708, Note_off_c, 0, 65, 100
2, 155808, Note_on_c, 0, 74, 80
2, 155808, Note_on_c, 0, 70, 80
2, 155808, Note_on_c, 0, 65, 80
2, 155900, Note_off_c, 0, 74, 100
2, 155900, Note_off_c, 0, 70, 100
2, 155900, Note_off_c, 0, 65, 100
2, 155904, Note_on_c, 0, 72, 80
2, 155904, Note_on_c, 0, 69, 80
2, 155904, Note_on_c, 0, 65, 80
2, 156092, Note_off_c, 0, 72, 100
2, 156092, Note_off_c, 0, 69, 100
2, 156092, Note_off_c, 0, 65, 100
2, 156192, Note_on_c, 0, 72, 80
2, 156192, Note_on_c, 0, 69, 80
2, 156192, Note_on_c, 0, 65, 80
2, 156284, Note_off_c, 0, 72, 100
2, 156284, Note_off_c, 0, 69, 100
2, 156284, Note_off_c, 0, 65, 100
2, 156288, Note_on_c, 0, 71, 80
2, 156288, Note_on_c, 0, 68, 80
2, 156288, Note_on_c, 0, 65, 80
2, 156476, Note_off_c, 0, 71, 100
2, 156476, Note_off_c, 0, 68, 100
2, 156476, Note_off_c, 0, 65, 100
2, 156576, Note_on_c, 0, 70, 80
2, 156576, Note_on_c, 0, 67, 80
2, 156668, Note_off_c, 0, 70, 100
2, 156668, Note_off_c, 0, 67, 100
2, 156672, Note_on_c, 0, 69, 80
2, 156860, Note_off_c, 0, 69, 100
2, 156960, Note_on_c, 0, 81, 80
2, 156960, Note_on_c, 0, 77, 80
2, 157052, Note_off_c, 0, 81, 100
2, 157052, Note_off_c, 0, 77, 100
2, 157056, Note_on_c, 0, 81, 80
2, 157056, Note_on_c, 0, 77, 80
2, 157340, Note_off_c, 0, 81, 100
2, 157340, Note_off_c, 0, 77, 100
2, 157344, Note_on_c, 0, 80, 80
2, 157344, Note_on_c, 0, 77, 80
2, 157436, Note_off_c, 0, 80, 100
2, 157436, Note_off_c, 0, 77, 100
2, 157440, Note_on_c, 0, 79, 80
2, 157440, Note_on_c, 0, 77, 80
2, 157628, Note_off_c, 0, 79, 100
2, 157628, Note_off_c, 0, 77, 100
2, 157728, Note_on_c, 0, 84, 80
2, 157728, Note_on_c, 0, 76, 80
2, 157820, Note_off_c, 0, 84, 100
2, 157820, Note_off_c, 0, 76, 100
2, 157824, Note_on_c, 0, 77, 80
2, 158204, Note_off_c, 0, 77, 100
2, 158496, Note_on_c, 0, 69, 80
2, 158496, Note_on_c, 0, 65, 80
2, 158588, Note_off_c, 0, 69, 100
2, 158588, Note_off_c, 0, 65, 100
2, 158592, Note_on_c, 0, 69, 80
2, 158592, Note_on_c, 0, 65, 80
2, 158876, Note_off_c, 0, 69, 100
2, 158876, Note_off_c, 0, 65, 100
2, 158880, Note_on_c, 0, 68, 80
2, 158880, Note_on_c, 0, 65, 80
2, 158972, Note_off_c, 0, 68, 100
2, 158972, Note_off_c, 0, 65, 100
2, 158976, Note_on_c, 0, 67, 80
2, 158976, Note_on_c, 0, 64, 80
2, 159164, Note_off_c, 0, 67, 100
2, 159164, Note_off_c, 0, 64, 100
2, 159264, Note_on_c, 0, 76, 80
2, 159264, Note_on_c, 0, 72, 80
2, 159356, Note_off_c, 0, 76, 100
2, 159356, Note_off_c, 0, 72, 100
2, 159360, Note_on_c, 0, 77, 80
2, 159360, Note_on_c, 0, 72, 80
2, 159548, Note_off_c, 0, 77, 100
2, 159548, Note_off_c, 0, 72, 100
2, 159648, Note_on_c, 0, 74, 80
2, 159740, Note_off_c, 0, 74, 100
2, 159744, Note_on_c, 0, 72, 80
2, 159932, Note_off_c, 0, 72, 100
2, 160032, Note_on_c, 0, 81, 110
2, 160032, Note_on_c, 0, 77, 110
2, 160032, Note_on_c, 0, 69, 110
2, 160124, Note_off_c, 0, 81, 100
2, 160124, Note_off_c, 0, 77, 100
2, 160124, Note_off_c, 0, 69, 100
2, 160128, Note_on_c, 0, 81, 110
2, 160128, Note_on_c, 0, 77, 110
2, 160128, Note_on_c, 0, 69, 110
2, 160412, Note_off_c, 0, 81, 100
2, 160412, Note_off_c, 0, 77, 100
2, 160412, Note_off_c, 0, 69, 100
2, 160416, Note_on_c, 0, 80, 110
2, 160416, Note_on_c, 0, 77, 110
2, 160416, Note_on_c, 0, 68, 110
2, 160508, Note_off_c, 0, 80, 100
2, 160508, Note_off_c, 0, 77, 100
2, 160508, Note_off_c, 0, 68, 100
2, 160512, Note_on_c, 0, 79, 110
2, 160512, Note_on_c, 0, 76, 110
2, 160512, Note_on_c, 0, 67, 110
2, 160700, Note_off_c, 0, 79, 100
2, 160700, Note_off_c, 0, 76, 100
2, 160700, Note_off_c, 0, 67, 100
2, 160800, Note_on_c, 0, 88, 110
2, 160800, Note_on_c, 0, 79, 110
2, 160800, Note_on_c, 0, 76, 110
2, 160892, Note_off_c, 0, 88, 100
2, 160892, Note_off_c, 0, 79, 100
2, 160892, Note_off_c, 0, 76, 100
2, 160896, Note_on_c, 0, 89, 110
2, 160896, Note_on_c, 0, 81, 110
2, 160896, Note_on_c, 0, 77, 110
2, 161276, Note_off_c, 0, 89, 100
2, 161276, Note_off_c, 0, 81, 100
2, 161276, Note_off_c, 0, 77, 100
2, 161568, Note_on_c, 0, 65, 80
2, 161660, Note_off_c, 0, 65, 100
2, 161664, Key_signature, -2, "major"
2, 161664, Note_on_c, 0, 65, 80
2, 162236, Note_off_c, 0, 65, 100
2, 162240, Note_on_c, 0, 67, 80
2, 162332, Note_off_c, 0, 67, 100
2, 162336, Note_on_c, 0, 65, 80
2, 162428, Note_off_c, 0, 65, 100
2, 162432, Note_on_c, 0, 65, 80
2, 163004, Note_off_c, 0, 65, 100
2, 163008, Note_on_c, 0, 67, 80
2, 163100, Note_off_c, 0, 67, 100
2, 163104, Note_on_c, 0, 65, 80
2, 163196, Note_off_c, 0, 65, 100
2, 163200, Note_on_c, 0, 74, 80
2, 163200, Note_on_c, 0, 65, 80
2, 163772, Note_off_c, 0, 74, 100
2, 163776, Note_on_c, 0, 75, 80
2, 163868, Note_off_c, 0, 75, 100
2, 163872, Note_on_c, 0, 74, 80
2, 163964, Note_off_c, 0, 74, 100
2, 163968, Note_on_c, 0, 74, 80
2, 164540, Note_off_c, 0, 74, 100
2, 164544, Note_on_c, 0, 75, 80
2, 164636, Note_off_c, 0, 75, 100
2, 164640, Note_on_c, 0, 74, 80
2, 164732, Note_off_c, 0, 65, 100
2, 164732, Note_off_c, 0, 74, 100
2, 164736, Note_on_c, 0, 74, 80
2, 164736, Note_on_c, 0, 65, 80
2, 165308, Note_off_c, 0, 74, 100
2, 165312, Note_on_c, 0, 72, 80
2, 165500, Note_off_c, 0, 72, 100
2, 165504, Note_on_c, 0, 74, 80
2, 165692, Note_off_c, 0, 74, 100
2, 165696, Note_on_c, 0, 77, 80
2, 165884, Note_off_c, 0, 77, 100
2, 165888, Note_on_c, 0, 72, 80
2, 166076, Note_off_c, 0, 72, 100
2, 166080, Note_on_c, 0, 74, 80
2, 166268, Note_off_c, 0, 74, 100
2, 166272, Note_on_c, 0, 75, 80
2, 166844, Note_off_c, 0, 75, 100
2, 166848, Note_on_c, 0, 74, 80
2, 167036, Note_off_c, 0, 74, 100
2, 167040, Note_on_c, 0, 72, 80
2, 167612, Note_off_c, 0, 72, 100
2, 167616, Note_on_c, 0, 70, 80
2, 167804, Note_off_c, 0, 65, 100
2, 167804, Note_off_c, 0, 70, 100
2, 167808, Note_on_c, 0, 72, 80
2, 167996, Note_off_c, 0, 72, 100
2, 168000, Note_on_c, 0, 67, 80
2, 168188, Note_off_c, 0, 67, 100
2, 168192, Note_on_c, 0, 69, 80
2, 168380, Note_off_c, 0, 69, 100
2, 168384, Note_on_c, 0, 70, 80
2, 168572, Note_off_c, 0, 70, 100
2, 168576, Note_on_c, 0, 63, 80
2, 168764, Note_off_c, 0, 63, 100
2, 168768, Note_on_c, 0, 65, 80
2, 168956, Note_off_c, 0, 65, 100
2, 168960, Note_on_c, 0, 67, 80
2, 169148, Note_off_c, 0, 67, 100
2, 169152, Note_on_c, 0, 62, 80
2, 169340, Note_off_c, 0, 62, 100
2, 169344, Note_on_c, 0, 67, 80
2, 169532, Note_off_c, 0, 67, 100
2, 169536, Note_on_c, 0, 70, 80
2, 169724, Note_off_c, 0, 70, 100
2, 169728, Note_on_c, 0, 72, 80
2, 169916, Note_off_c, 0, 72, 100
2, 169920, Note_on_c, 0, 70, 80
2, 170108, Note_off_c, 0, 70, 100
2, 170112, Note_on_c, 0, 64, 80
2, 170684, Note_off_c, 0, 64, 100
2, 170688, Note_on_c, 0, 73, 80
2, 170876, Note_off_c, 0, 73, 100
2, 170880, Note_on_c, 0, 72, 80
2, 171068, Note_off_c, 0, 72, 100
2, 171072, Note_on_c, 0, 69, 80
2, 171260, Note_off_c, 0, 69, 100
2, 171264, Note_on_c, 0, 70, 80
2, 171452, Note_off_c, 0, 70, 100
2, 171456, Note_on_c, 0, 82, 80
2, 171644, Note_off_c, 0, 82, 100
2, 171648, Note_on_c, 0, 82, 80
2, 172220, Note_off_c, 0, 82, 100
2, 172224, Note_on_c, 0, 76, 80
2, 172412, Note_off_c, 0, 76, 100
2, 172416, Note_on_c, 0, 79, 80
2, 172604, Note_off_c, 0, 79, 100
2, 172608, Note_on_c, 0, 82, 80
2, 172796, Note_off_c, 0, 82, 100
2, 172800, Note_on_c, 0, 84, 80
2, 172988, Note_off_c, 0, 84, 100
2, 172992, Note_on_c, 0, 85, 80
2, 173180, Note_off_c, 0, 85, 100
2, 173184, Note_on_c, 0, 84, 80
2, 173756, Note_off_c, 0, 84, 100
2, 173760, Note_on_c, 0, 82, 80
2, 173948, Note_off_c, 0, 82, 100
2, 173952, Note_on_c, 0, 82, 80
2, 174140, Note_off_c, 0, 82, 100
2, 174144, Note_on_c, 0, 81, 80
2, 174332, Note_off_c, 0, 81, 100
2, 174336, Note_on_c, 0, 84, 80
2, 174524, Note_off_c, 0, 84, 100
2, 174528, Note_on_c, 0, 88, 80
2, 174716, Note_off_c, 0, 88, 100
2, 174720, Note_on_c, 0, 89, 80
2, 174908, Note_off_c, 0, 89, 100
2, 175104, Note_on_c, 0, 77, 80
2, 175292, Note_off_c, 0, 77, 100
2, 175488, Note_on_c, 0, 70, 80
2, 175676, Note_off_c, 0, 70, 100
2, 175680, Note_on_c, 0, 69, 80
2, 175868, Note_off_c, 0, 69, 100
2, 175872, Note_on_c, 0, 72, 80
2, 176060, Note_off_c, 0, 72, 100
2, 176064, Note_on_c, 0, 76, 80
2, 176252, Note_off_c, 0, 76, 100
2, 176256, Note_on_c, 0, 77, 80
2, 176444, Note_off_c, 0, 77, 100
2, 176640, Note_on_c, 0, 65, 80
2, 176828, Note_off_c, 0, 65, 100
2, 178560, Note_on_c, 0, 77, 80
2, 178748, Note_off_c, 0, 77, 100
2, 178752, Note_on_c, 0, 72, 80
2, 178940, Note_off_c, 0, 72, 100
2, 178944, Note_on_c, 0, 74, 80
2, 179132, Note_off_c, 0, 74, 100
2, 179136, Note_on_c, 0, 76, 80
2, 179324, Note_off_c, 0, 76, 100
2, 179328, Note_on_c, 0, 70, 80
2, 179516, Note_off_c, 0, 70, 100
2, 179520, Note_on_c, 0, 72, 80
2, 179708, Note_off_c, 0, 72, 100
2, 179712, Note_on_c, 0, 74, 80
2, 179900, Note_off_c, 0, 74, 100
2, 179904, Note_on_c, 0, 69, 80
2, 180092, Note_off_c, 0, 69, 100
2, 180096, Note_on_c, 0, 70, 80
2, 180668, Note_off_c, 0, 70, 100
2, 180672, Note_on_c, 0, 69, 80
2, 180860, Note_off_c, 0, 69, 100
2, 180864, Note_on_c, 0, 67, 80
2, 181436, Note_off_c, 0, 67, 100
2, 181440, Note_on_c, 0, 65, 80
2, 181628, Note_off_c, 0, 65, 100
2, 181632, Note_on_c, 0, 67, 80
2, 181820, Note_off_c, 0, 67, 100
2, 181824, Note_on_c, 0, 65, 80
2, 182012, Note_off_c, 0, 65, 100
2, 182016, Note_on_c, 0, 65, 80
2, 182204, Note_off_c, 0, 65, 100
2, 182208, Note_on_c, 0, 73, 80
2, 182396, Note_off_c, 0, 73, 100
2, 182400, Note_on_c, 0, 74, 80
2, 182588, Note_off_c, 0, 74, 100
2, 182592, Note_on_c, 0, 73, 80
2, 182780, Note_off_c, 0, 73, 100
2, 182784, Note_on_c, 0, 74, 80
2, 182972, Note_off_c, 0, 74, 100
2, 182976, Note_on_c, 0, 62, 80
2, 183164, Note_off_c, 0, 62, 100
2, 183168, Note_on_c, 0, 75, 80
2, 183740, Note_off_c, 0, 75, 100
2, 183744, Note_on_c, 0, 74, 80
2, 183932, Note_off_c, 0, 74, 100
2, 183936, Note_on_c, 0, 72, 80
2, 184508, Note_off_c, 0, 72, 100
2, 184512, Note_on_c, 0, 70, 80
2, 184700, Note_off_c, 0, 70, 100
2, 184704, Note_on_c, 0, 72, 80
2, 184892, Note_off_c, 0, 72, 100
2, 184896, Note_on_c, 0, 70, 80
2, 185084, Note_off_c, 0, 70, 100
2, 185088, Note_on_c, 0, 70, 80
2, 185276, Note_off_c, 0, 70, 100
2, 185280, Note_on_c, 0, 78, 80
2, 185468, Note_off_c, 0, 78, 100
2, 185472, Note_on_c, 0, 79, 80
2, 185660, Note_off_c, 0, 79, 100
2, 185664, Note_on_c, 0, 78, 80
2, 185852, Note_off_c, 0, 78, 100
2, 185856, Note_on_c, 0, 79, 80
2, 186044, Note_off_c, 0, 79, 100
2, 186048, Note_on_c, 0, 67, 80
2, 186236, Note_off_c, 0, 67, 100
2, 186240, Note_on_c, 0, 75, 80
2, 186620, Note_off_c, 0, 75, 100
2, 186624, Note_on_c, 0, 70, 80
2, 186908, Note_off_c, 0, 70, 100
2, 186912, Note_on_c, 0, 72, 80
2, 186956, Note_off_c, 0, 72, 100
2, 186960, Note_on_c, 0, 70, 80
2, 187004, Note_off_c, 0, 70, 100
2, 187008, Note_on_c, 0, 69, 80
2, 187388, Note_off_c, 0, 69, 100
2, 187392, Note_on_c, 0, 76, 80
2, 187772, Note_off_c, 0, 76, 100
2, 187776, Note_on_c, 0, 77, 80
2, 188156, Note_off_c, 0, 77, 100
2, 188160, Note_on_c, 0, 72, 80
2, 188444, Note_off_c, 0, 72, 100
2, 188448, Note_on_c, 0, 74, 80
2, 188492, Note_off_c, 0, 74, 100
2, 188496, Note_on_c, 0, 72, 80
2, 188540, Note_off_c, 0, 72, 100
2, 188544, Note_on_c, 0, 71, 80
2, 188924, Note_off_c, 0, 71, 100
2, 188928, Note_on_c, 0, 78, 80
2, 189308, Note_off_c, 0, 78, 100
2, 189312, Note_on_c, 0, 79, 80
2, 189692, Note_off_c, 0, 79, 100
2, 189696, Note_on_c, 0, 75, 80
2, 189884, Note_off_c, 0, 75, 100
2, 189888, Note_on_c, 0, 74, 80
2, 190076, Note_off_c, 0, 74, 100
2, 190080, Note_on_c, 0, 75, 80
2, 190460, Note_off_c, 0, 75, 100
2, 190464, Note_on_c, 0, 72, 80
2, 190652, Note_off_c, 0, 72, 100
2, 190656, Note_on_c, 0, 71, 80
2, 190844, Note_off_c, 0, 71, 100
2, 190848, Note_on_c, 0, 72, 80
2, 191228, Note_off_c, 0, 72, 100
2, 191232, Note_on_c, 0, 69, 80
2, 191420, Note_off_c, 0, 69, 100
2, 191424, Note_on_c, 0, 68, 80
2, 191612, Note_off_c, 0, 68, 100
2, 191616, Note_on_c, 0, 69, 80
2, 191996, Note_off_c, 0, 69, 100
2, 192000, Note_on_c, 0, 75, 80
2, 192572, Note_off_c, 0, 75, 100
2, 192576, Note_on_c, 0, 79, 80
2, 192764, Note_off_c, 0, 79, 100
2, 192768, Note_on_c, 0, 72, 80
2, 192956, Note_off_c, 0, 72, 100
2, 192960, Note_on_c, 0, 75, 80
2, 193148, Note_off_c, 0, 75, 100
2, 193152, Note_on_c, 0, 69, 80
2, 193532, Note_off_c, 0, 69, 100
2, 193536, Note_on_c, 0, 78, 80
2, 193916, Note_off_c, 0, 78, 100
2, 193920, Note_on_c, 0, 77, 80
2, 193968, Note_on_c, 0, 79, 80
2, 194012, Note_off_c, 0, 77, 100
2, 194016, Note_on_c, 0, 77, 80
2, 194060, Note_off_c, 0, 79, 100
2, 194064, Note_on_c, 0, 79, 80
2, 194108, Note_off_c, 0, 77, 100
2, 194112, Note_on_c, 0, 77, 80
2, 194156, Note_off_c, 0, 79, 100
2, 194160, Note_on_c, 0, 79, 80
2, 194204, Note_off_c, 0, 77, 100
2, 194208, Note_on_c, 0, 77, 80
2, 194252, Note_off_c, 0, 79, 100
2, 194256, Note_on_c, 0, 79, 80
2, 194300, Note_off_c, 0, 77, 100
2, 194304, Note_on_c, 0, 77, 80
2, 194348, Note_off_c, 0, 79, 100
2, 194352, Note_on_c, 0, 79, 80
2, 194396, Note_off_c, 0, 77, 100
2, 194400, Note_on_c, 0, 77, 80
2, 194444, Note_off_c, 0, 79, 100
2, 194448, Note_on_c, 0, 79, 80
2, 194492, Note_off_c, 0, 77, 100
2, 194496, Note_on_c, 0, 77, 80
2, 194540, Note_off_c, 0, 79, 100
2, 194544, Note_on_c, 0, 79, 80
2, 194588, Note_off_c, 0, 77, 100
2, 194592, Note_on_c, 0, 77, 80
2, 194636, Note_off_c, 0, 79, 100
2, 194640, Note_on_c, 0, 79, 80
2, 194684, Note_off_c, 0, 77, 100
2, 194688, Note_on_c, 0, 77, 80
2, 194732, Note_off_c, 0, 79, 100
2, 194736, Note_on_c, 0, 79, 80
2, 194780, Note_off_c, 0, 77, 100
2, 194784, Note_on_c, 0, 77, 80
2, 194828, Note_off_c, 0, 79, 100
2, 194832, Note_on_c, 0, 79, 80
2, 194876, Note_off_c, 0, 77, 100
2, 194880, Note_on_c, 0, 77, 80
2, 194924, Note_off_c, 0, 79, 100
2, 194928, Note_on_c, 0, 79, 80
2, 194972, Note_off_c, 0, 77, 100
2, 194976, Note_on_c, 0, 77, 80
2, 195020, Note_off_c, 0, 79, 100
2, 195024, Note_on_c, 0, 79, 80
2, 195068, Note_off_c, 0, 77, 100
2, 195072, Note_on_c, 0, 77, 80
2, 195116, Note_off_c, 0, 79, 100
2, 195120, Note_on_c, 0, 79, 80
2, 195164, Note_off_c, 0, 77, 100
2, 195168, Note_on_c, 0, 77, 80
2, 195212, Note_off_c, 0, 79, 100
2, 195216, Note_on_c, 0, 79, 80
2, 195260, Note_off_c, 0, 77, 100
2, 195264, Note_on_c, 0, 77, 80
2, 195308, Note_off_c, 0, 79, 100
2, 195312, Note_on_c, 0, 79, 80
2, 195356, Note_off_c, 0, 77, 100
2, 195360, Note_on_c, 0, 77, 80
2, 195404, Note_off_c, 0, 79, 100
2, 195408, Note_on_c, 0, 79, 80
2, 195452, Note_off_c, 0, 77, 100
2, 195456, Note_on_c, 0, 77, 80
2, 195500, Note_off_c, 0, 79, 100
2, 195504, Note_on_c, 0, 79, 80
2, 195548, Note_off_c, 0, 77, 100
2, 195552, Note_on_c, 0, 77, 80
2, 195596, Note_off_c, 0, 79, 100
2, 195600, Note_on_c, 0, 79, 80
2, 195644, Note_off_c, 0, 77, 100
2, 195648, Note_on_c, 0, 77, 80
2, 195692, Note_off_c, 0, 79, 100
2, 195696, Note_on_c, 0, 79, 80
2, 195740, Note_off_c, 0, 77, 100
2, 195744, Note_on_c, 0, 77, 80
2, 195788, Note_off_c, 0, 79, 100
2, 195792, Note_on_c, 0, 79, 80
2, 195836, Note_off_c, 0, 77, 100
2, 195840, Note_on_c, 0, 77, 80
2, 195884, Note_off_c, 0, 79, 100
2, 195888, Note_on_c, 0, 79, 80
2, 195932, Note_off_c, 0, 77, 100
2, 195936, Note_on_c, 0, 77, 80
2, 195980, Note_off_c, 0, 79, 100
2, 195984, Note_on_c, 0, 79, 80
2, 196028, Note_off_c, 0, 77, 100
2, 196032, Note_on_c, 0, 77, 80
2, 196076, Note_off_c, 0, 79, 100
2, 196080, Note_on_c, 0, 79, 80
2, 196124, Note_off_c, 0, 77, 100
2, 196128, Note_on_c, 0, 77, 80
2, 196172, Note_off_c, 0, 79, 100
2, 196176, Note_on_c, 0, 79, 80
2, 196220, Note_off_c, 0, 77, 100
2, 196224, Note_on_c, 0, 77, 80
2, 196268, Note_off_c, 0, 79, 100
2, 196272, Note_on_c, 0, 79, 80
2, 196316, Note_off_c, 0, 77, 100
2, 196320, Note_on_c, 0, 77, 80
2, 196364, Note_off_c, 0, 79, 100
2, 196368, Note_on_c, 0, 79, 80
2, 196412, Note_off_c, 0, 77, 100
2, 196416, Note_on_c, 0, 77, 80
2, 196460, Note_off_c, 0, 79, 100
2, 196464, Note_on_c, 0, 79, 80
2, 196508, Note_off_c, 0, 77, 100
2, 196512, Note_on_c, 0, 77, 80
2, 196556, Note_off_c, 0, 79, 100
2, 196560, Note_on_c, 0, 79, 80
2, 196604, Note_off_c, 0, 77, 100
2, 196608, Note_on_c, 0, 77, 80
2, 196652, Note_off_c, 0, 79, 100
2, 196656, Note_on_c, 0, 79, 80
2, 196700, Note_off_c, 0, 77, 100
2, 196704, Note_on_c, 0, 77, 80
2, 196748, Note_off_c, 0, 79, 100
2, 196752, Note_on_c, 0, 79, 80
2, 196796, Note_off_c, 0, 77, 100
2, 196800, Note_on_c, 0, 77, 80
2, 196844, Note_off_c, 0, 79, 100
2, 196848, Note_on_c, 0, 79, 80
2, 196892, Note_off_c, 0, 77, 100
2, 196896, Note_on_c, 0, 77, 80
2, 196940, Note_off_c, 0, 79, 100
2, 196944, Note_on_c, 0, 79, 80
2, 196988, Note_off_c, 0, 77, 100
2, 196992, Note_on_c, 0, 77, 80
2, 197036, Note_off_c, 0, 79, 100
2, 197040, Note_on_c, 0, 79, 80
2, 197084, Note_off_c, 0, 77, 100
2, 197088, Note_on_c, 0, 77, 80
2, 197132, Note_off_c, 0, 79, 100
2, 197136, Note_on_c, 0, 79, 80
2, 197180, Note_off_c, 0, 77, 100
2, 197184, Note_on_c, 0, 77, 80
2, 197228, Note_off_c, 0, 79, 100
2, 197232, Note_on_c, 0, 79, 80
2, 197276, Note_off_c, 0, 77, 100
2, 197280, Note_on_c, 0, 77, 80
2, 197324, Note_off_c, 0, 79, 100
2, 197328, Note_on_c, 0, 79, 80
2, 197372, Note_off_c, 0, 77, 100
2, 197376, Note_on_c, 0, 77, 80
2, 197420, Note_off_c, 0, 79, 100
2, 197424, Note_on_c, 0, 79, 80
2, 197468, Note_off_c, 0, 77, 100
2, 197472, Note_on_c, 0, 77, 80
2, 197516, Note_off_c, 0, 79, 100
2, 197520, Note_on_c, 0, 79, 80
2, 197564, Note_off_c, 0, 77, 100
2, 197568, Note_on_c, 0, 77, 80
2, 197612, Note_off_c, 0, 79, 100
2, 197616, Note_on_c, 0, 79, 80
2, 197660, Note_off_c, 0, 77, 100
2, 197664, Note_on_c, 0, 77, 80
2, 197708, Note_off_c, 0, 79, 100
2, 197712, Note_on_c, 0, 79, 80
2, 197756, Note_off_c, 0, 77, 100
2, 197760, Note_on_c, 0, 77, 80
2, 197804, Note_off_c, 0, 79, 100
2, 197808, Note_on_c, 0, 79, 80
2, 197852, Note_off_c, 0, 77, 100
2, 197856, Note_on_c, 0, 77, 80
2, 197900, Note_off_c, 0, 79, 100
2, 197904, Note_on_c, 0, 79, 80
2, 197948, Note_off_c, 0, 77, 100
2, 197952, Note_on_c, 0, 77, 80
2, 197996, Note_off_c, 0, 79, 100
2, 198000, Note_on_c, 0, 79, 80
2, 198044, Note_off_c, 0, 77, 100
2, 198048, Note_on_c, 0, 77, 80
2, 198092, Note_off_c, 0, 79, 100
2, 198096, Note_on_c, 0, 79, 80
2, 198140, Note_off_c, 0, 77, 100
2, 198144, Note_on_c, 0, 77, 80
2, 198188, Note_off_c, 0, 79, 100
2, 198192, Note_on_c, 0, 79, 80
2, 198236, Note_off_c, 0, 77, 100
2, 198240, Note_on_c, 0, 77, 80
2, 198284, Note_off_c, 0, 79, 100
2, 198288, Note_on_c, 0, 79, 80
2, 198332, Note_off_c, 0, 77, 100
2, 198336, Note_on_c, 0, 77, 80
2, 198380, Note_off_c, 0, 79, 100
2, 198384, Note_on_c, 0, 79, 80
2, 198428, Note_off_c, 0, 77, 100
2, 198432, Note_on_c, 0, 77, 80
2, 198476, Note_off_c, 0, 79, 100
2, 198480, Note_on_c, 0, 79, 80
2, 198524, Note_off_c, 0, 77, 100
2, 198524, Note_off_c, 0, 79, 100
2, 199296, Note_on_c, 0, 60, 80
2, 199484, Note_off_c, 0, 60, 100
2, 199488, Note_on_c, 0, 63, 80
2, 199676, Note_off_c, 0, 63, 100
2, 199680, Note_on_c, 0, 65, 80
2, 199868, Note_off_c, 0, 65, 100
2, 199872, Note_on_c, 0, 63, 80
2, 200060, Note_off_c, 0, 63, 100
2, 200064, Note_on_c, 0, 57, 80
2, 200636, Note_off_c, 0, 57, 100
2, 200640, Note_on_c, 0, 66, 80
2, 200828, Note_off_c, 0, 66, 100
2, 200832, Note_on_c, 0, 65, 80
2, 201020, Note_off_c, 0, 65, 100
2, 201024, Note_on_c, 0, 62, 80
2, 201212, Note_off_c, 0, 62, 100
2, 201216, Note_on_c, 0, 63, 80
2, 201404, Note_off_c, 0, 63, 100
2, 201408, Note_on_c, 0, 75, 80
2, 201596, Note_off_c, 0, 75, 100
2, 201600, Note_on_c, 0, 75, 80
2, 202172, Note_off_c, 0, 75, 100
2, 202176, Note_on_c, 0, 69, 80
2, 202364, Note_off_c, 0, 69, 100
2, 202368, Note_on_c, 0, 72, 80
2, 202556, Note_off_c, 0, 72, 100
2, 202560, Note_on_c, 0, 75, 80
2, 202748, Note_off_c, 0, 75, 100
2, 202752, Note_on_c, 0, 77, 80
2, 202940, Note_off_c, 0, 77, 100
2, 202944, Note_on_c, 0, 78, 80
2, 203132, Note_off_c, 0, 78, 100
2, 203136, Note_on_c, 0, 77, 80
2, 203708, Note_off_c, 0, 77, 100
2, 203712, Note_on_c, 0, 75, 80
2, 203900, Note_off_c, 0, 75, 100
2, 203904, Note_on_c, 0, 75, 80
2, 204092, Note_off_c, 0, 75, 100
2, 204096, Note_on_c, 0, 74, 80
2, 204284, Note_off_c, 0, 74, 100
2, 204288, Note_on_c, 0, 77, 80
2, 204476, Note_off_c, 0, 77, 100
2, 204480, Note_on_c, 0, 81, 80
2, 204668, Note_off_c, 0, 81, 100
2, 204672, Note_on_c, 0, 82, 80
2, 204860, Note_off_c, 0, 82, 100
2, 205056, Note_on_c, 0, 70, 80
2, 205244, Note_off_c, 0, 70, 100
2, 205440, Note_on_c, 0, 63, 80
2, 205628, Note_off_c, 0, 63, 100
2, 205632, Note_on_c, 0, 62, 80
2, 205820, Note_off_c, 0, 62, 100
2, 205824, Note_on_c, 0, 65, 80
2, 206012, Note_off_c, 0, 65, 100
2, 206016, Note_on_c, 0, 69, 80
2, 206204, Note_off_c, 0, 69, 100
2, 206208, Note_on_c, 0, 70, 80
2, 206780, Note_off_c, 0, 70, 100
2, 206784, Note_on_c, 0, 72, 80
2, 206876, Note_off_c, 0, 72, 100
2, 206880, Note_on_c, 0, 70, 80
2, 206972, Note_off_c, 0, 70, 100
2, 206976, Note_on_c, 0, 70, 80
2, 207548, Note_off_c, 0, 70, 100
2, 207552, Note_on_c, 0, 72, 80
2, 207644, Note_off_c, 0, 72, 100
2, 207648, Note_on_c, 0, 70, 80
2, 207740, Note_off_c, 0, 70, 100
2, 207744, Note_on_c, 0, 76, 80
2, 207744, Note_on_c, 0, 70, 80
2, 208316, Note_off_c, 0, 76, 100
2, 208316, Note_off_c, 0, 70, 100
2, 208320, Note_on_c, 0, 77, 80
2, 208320, Note_on_c, 0, 72, 80
2, 208412, Note_off_c, 0, 77, 100
2, 208412, Note_off_c, 0, 72, 100
2, 208416, Note_on_c, 0, 76, 80
2, 208416, Note_on_c, 0, 70, 80
2, 208508, Note_off_c, 0, 76, 100
2, 208508, Note_off_c, 0, 70, 100
2, 208512, Note_on_c, 0, 76, 80
2, 208512, Note_on_c, 0, 70, 80
2, 209084, Note_off_c, 0, 76, 100
2, 209084, Note_off_c, 0, 70, 100
2, 209088, Note_on_c, 0, 77, 80
2, 209088, Note_on_c, 0, 72, 80
2, 209180, Note_off_c, 0, 77, 100
2, 209180, Note_off_c, 0, 72, 100
2, 209184, Note_on_c, 0, 76, 80
2, 209184, Note_on_c, 0, 70, 80
2, 209276, Note_off_c, 0, 76, 100
2, 209276, Note_off_c, 0, 70, 100
2, 209280, Note_on_c, 0, 76, 80
2, 209280, Note_on_c, 0, 70, 80
2, 209852, Note_off_c, 0, 76, 100
2, 209852, Note_off_c, 0, 70, 100
2, 209856, Note_on_c, 0, 77, 80
2, 209856, Note_on_c, 0, 72, 80
2, 209948, Note_off_c, 0, 77, 100
2, 209948, Note_off_c, 0, 72, 100
2, 209952, Note_on_c, 0, 76, 80
2, 209952, Note_on_c, 0, 70, 80
2, 210044, Note_off_c, 0, 76, 100
2, 210044, Note_off_c, 0, 70, 100
2, 210048, Note_on_c, 0, 76, 80
2, 210048, Note_on_c, 0, 70, 80
2, 210620, Note_off_c, 0, 76, 100
2, 210620, Note_off_c, 0, 70, 100
2, 210624, Note_on_c, 0, 77, 80
2, 210624, Note_on_c, 0, 72, 80
2, 210716, Note_off_c, 0, 77, 100
2, 210716, Note_off_c, 0, 72, 100
2, 210720, Note_on_c, 0, 76, 80
2, 210720, Note_on_c, 0, 70, 80
2, 210812, Note_off_c, 0, 76, 100
2, 210812, Note_off_c, 0, 70, 100
2, 210816, Note_on_c, 0, 79, 80
2, 210816, Note_on_c, 0, 76, 80
2, 210816, Note_on_c, 0, 82, 80
2, 211388, Note_off_c, 0, 82, 100
2, 211392, Note_on_c, 0, 80, 80
2, 211484, Note_off_c, 0, 80, 100
2, 211488, Note_on_c, 0, 82, 80
2, 211580, Note_off_c, 0, 79, 100
2, 211580, Note_off_c, 0, 76, 100
2, 211580, Note_off_c, 0, 82, 100
2, 211584, Note_on_c, 0, 79, 80
2, 211584, Note_on_c, 0, 76, 80
2, 211584, Note_on_c, 0, 82, 80
2, 212156, Note_off_c, 0, 82, 100
2, 212160, Note_on_c, 0, 80, 80
2, 212252, Note_off_c, 0, 80, 100
2, 212256, Note_on_c, 0, 82, 80
2, 212348, Note_off_c, 0, 79, 100
2, 212348, Note_off_c, 0, 76, 100
2, 212348, Note_off_c, 0, 82, 100
2, 212352, Note_on_c, 0, 82, 80
2, 212352, Note_on_c, 0, 79, 80
2, 212352, Note_on_c, 0, 76, 80
2, 213116, Note_off_c, 0, 82, 100
2, 213116, Note_off_c, 0, 79, 100
2, 213116, Note_off_c, 0, 76, 100
2, 213120, Note_on_c, 0, 80, 80
2, 213120, Note_on_c, 0, 77, 80
2, 213884, Note_off_c, 0, 80, 100
2, 213884, Note_off_c, 0, 77, 100
2, 213888, Note_on_c, 0, 89, 80
2, 213888, Note_on_c, 0, 80, 80
2, 213888, Note_on_c, 0, 77, 80
2, 214652, Note_off_c, 0, 89, 100
2, 214652, Note_off_c, 0, 80, 100
2, 214652, Note_off_c, 0, 77, 100
2, 214656, Note_on_c, 0, 85, 80
2, 214656, Note_on_c, 0, 80, 80
2, 214656, Note_on_c, 0, 77, 80
2, 215420, Note_off_c, 0, 85, 100
2, 215420, Note_off_c, 0, 80, 100
2, 215420, Note_off_c, 0, 77, 100
2, 215424, Note_on_c, 0, 83, 80
2, 215424, Note_on_c, 0, 80, 80
2, 215424, Note_on_c, 0, 77, 80
2, 216188, Note_off_c, 0, 83, 100
2, 216188, Note_off_c, 0, 80, 100
2, 216188, Note_off_c, 0, 77, 100
2, 216192, Note_on_c, 0, 84, 80
2, 216192, Note_on_c, 0, 79, 80
2, 216192, Note_on_c, 0, 76, 80
2, 217340, Note_off_c, 0, 76, 100
2, 217340, Note_off_c, 0, 79, 100
2, 217340, Note_off_c, 0, 84, 100
2, 217344, Note_on_c, 0, 94, 80
2, 218012, Note_off_c, 0, 94, 100
2, 218016, Note_on_c, 0, 91, 83
2, 218108, Note_off_c, 0, 91, 100
2, 218112, Note_on_c, 0, 93, 84
2, 218396, Note_off_c, 0, 93, 100
2, 218400, Note_on_c, 0, 96, 85
2, 218492, Note_off_c, 0, 96, 100
2, 218496, Note_on_c, 0, 91, 86
2, 218496, Note_on_c, 0, 82, 86
2, 218496, Note_on_c, 0, 79, 86
2, 218780, Note_off_c, 0, 91, 100
2, 218784, Note_on_c, 0, 88, 87
2, 218876, Note_off_c, 0, 82, 100
2, 218876, Note_off_c, 0, 79, 100
2, 218876, Note_off_c, 0, 88, 100
2, 218880, Note_on_c, 0, 89, 88
2, 218880, Note_on_c, 0, 81, 88
2, 218880, Note_on_c, 0, 77, 88
2, 219068, Note_off_c, 0, 89, 100
2, 219068, Note_off_c, 0, 81, 100
2, 219068, Note_off_c, 0, 77, 100
2, 219168, Note_on_c, 0, 93, 89
2, 219260, Note_off_c, 0, 93, 100
2, 219264, Note_on_c, 0, 84, 90
2, 219264, Note_on_c, 0, 79, 90
2, 219264, Note_on_c, 0, 76, 90
2, 219452, Note_off_c, 0, 84, 100
2, 219452, Note_off_c, 0, 79, 100
2, 219452, Note_off_c, 0, 76, 100
2, 219552, Note_on_c, 0, 84, 91
2, 219552, Note_on_c, 0, 79, 91
2, 219552, Note_on_c, 0, 76, 91
2, 219644, Note_off_c, 0, 84, 100
2, 219644, Note_off_c, 0, 79, 100
2, 219644, Note_off_c, 0, 76, 100
2, 219648, Note_on_c, 0, 83, 92
2, 219648, Note_on_c, 0, 77, 92
2, 219648, Note_on_c, 0, 74, 92
2, 219836, Note_off_c, 0, 83, 100
2, 219836, Note_off_c, 0, 77, 100
2, 219836, Note_off_c, 0, 74, 100
2, 219936, Note_on_c, 0, 82, 93
2, 219936, Note_on_c, 0, 79, 93
2, 219936, Note_on_c, 0, 76, 93
2, 220028, Note_off_c, 0, 82, 100
2, 220028, Note_off_c, 0, 79, 100
2, 220028, Note_off_c, 0, 76, 100
2, 220032, Note_on_c, 0, 82, 94
2, 220032, Note_on_c, 0, 79, 94
2, 220032, Note_on_c, 0, 76, 94
2, 220032, Note_on_c, 0, 70, 94
2, 220412, Note_off_c, 0, 82, 100
2, 220412, Note_off_c, 0, 79, 100
2, 220412, Note_off_c, 0, 76, 100
2, 220412, Note_off_c, 0, 70, 100
2, 220416, Note_on_c, 0, 82, 96
2, 220416, Note_on_c, 0, 79, 96
2, 220704, Note_on_c, 0, 77, 98
2, 220796, Note_off_c, 0, 77, 100
2, 220800, Note_on_c, 0, 76, 98
2, 221084, Note_off_c, 0, 82, 100
2, 221088, Note_on_c, 0, 79, 100
2, 221180, Note_off_c, 0, 79, 100
2, 221180, Note_off_c, 0, 76, 100
2, 221180, Note_off_c, 0, 79, 100
2, 221184, Note_on_c, 0, 81, 100
2, 221184, Note_on_c, 0, 77, 100
2, 221468, Note_off_c, 0, 81, 100
2, 221468, Note_off_c, 0, 77, 100
2, 221472, Note_on_c, 0, 84, 102
2, 221472, Note_on_c, 0, 72, 102
2, 221564, Note_off_c, 0, 84, 100
2, 221564, Note_off_c, 0, 72, 100
2, 221568, Note_on_c, 0, 79, 102
2, 221568, Note_on_c, 0, 70, 102
2, 221852, Note_off_c, 0, 79, 100
2, 221852, Note_off_c, 0, 70, 100
2, 221856, Note_on_c, 0, 76, 104
2, 221856, Note_on_c, 0, 72, 104
2, 221948, Note_off_c, 0, 76, 100
2, 221948, Note_off_c, 0, 72, 100
2, 221952, Note_on_c, 0, 77, 104
2, 221952, Note_on_c, 0, 69, 104
2, 222236, Note_off_c, 0, 77, 100
2, 222236, Note_off_c, 0, 69, 100
2, 222240, Note_on_c, 0, 81, 106
2, 222240, Note_on_c, 0, 72, 106
2, 222332, Note_off_c, 0, 81, 100
2, 222332, Note_off_c, 0, 72, 100
2, 222336, Note_on_c, 0, 72, 106
2, 222524, Note_off_c, 0, 72, 100
2, 222624, Note_on_c, 0, 71, 108
2, 222624, Note_on_c, 0, 65, 108
2, 222624, Note_on_c, 0, 62, 108
2, 222716, Note_off_c, 0, 71, 100
2, 222716, Note_off_c, 0, 65, 100
2, 222716, Note_off_c, 0, 62, 100
2, 222720, Note_on_c, 0, 70, 108
2, 222720, Note_on_c, 0, 67, 108
2, 222720, Note_on_c, 0, 64, 108
2, 222908, Note_off_c, 0, 70, 100
2, 222908, Note_off_c, 0, 67, 100
2, 222908, Note_off_c, 0, 64, 100
2, 223008, Note_on_c, 0, 69, 110
2, 223008, Note_on_c, 0, 65, 110
2, 223008, Note_on_c, 0, 60, 110
2, 223008, Note_on_c, 0, 57, 110
2, 223100, Note_off_c, 0, 69, 100
2, 223100, Note_off_c, 0, 65, 100
2, 223100, Note_off_c, 0, 60, 100
2, 223100, Note_off_c, 0, 57, 100
2, 223104, Note_on_c, 0, 69, 110
2, 223104, Note_on_c, 0, 65, 110
2, 223104, Note_on_c, 0, 60, 110
2, 223104, Note_on_c, 0, 57, 110
2, 223868, Note_off_c, 0, 65, 100
2, 223868, Note_off_c, 0, 60, 100
2, 223868, Note_off_c, 0, 57, 100
2, 224060, Note_off_c, 0, 69, 100
2, 224160, Note_on_c, 0, 65, 80
2, 224252, Note_off_c, 0, 65, 100
2, 224256, Note_on_c, 0, 69, 80
2, 224444, Note_off_c, 0, 69, 100
2, 224544, Note_on_c, 0, 74, 80
2, 224636, Note_off_c, 0, 74, 100
2, 224640, Note_on_c, 0, 74, 80
2, 224640, Note_on_c, 0, 67, 80
2, 225020, Note_off_c, 0, 74, 100
2, 225024, Note_on_c, 0, 72, 80
2, 225308, Note_off_c, 0, 72, 100
2, 225312, Note_on_c, 0, 71, 80
2, 225404, Note_off_c, 0, 67, 100
2, 225404, Note_off_c, 0, 71, 100
2, 225408, Note_on_c, 0, 66, 80
2, 225408, Note_on_c, 0, 72, 80
2, 225596, Note_off_c, 0, 72, 100
2, 225696, Note_on_c, 0, 69, 80
2, 225788, Note_off_c, 0, 66, 100
2, 225788, Note_off_c, 0, 69, 100
2, 225792, Note_on_c, 0, 72, 80
2, 225980, Note_off_c, 0, 72, 100
2, 226080, Note_on_c, 0, 78, 80
2, 226080, Note_on_c, 0, 72, 80
2, 226080, Note_on_c, 0, 69, 80
2, 226172, Note_off_c, 0, 78, 100
2, 226172, Note_off_c, 0, 72, 100
2, 226172, Note_off_c, 0, 69, 100
2, 226176, Note_on_c, 0, 78, 80
2, 226176, Note_on_c, 0, 70, 80
2, 226176, Note_on_c, 0, 65, 80
2, 226556, Note_off_c, 0, 78, 100
2, 226560, Note_on_c, 0, 77, 80
2, 226844, Note_off_c, 0, 77, 100
2, 226848, Note_on_c, 0, 76, 80
2, 226940, Note_off_c, 0, 76, 100
2, 226944, Note_on_c, 0, 77, 80
2, 227132, Note_off_c, 0, 77, 100
2, 227232, Note_on_c, 0, 70, 80
2, 227324, Note_off_c, 0, 70, 100
2, 227324, Note_off_c, 0, 65, 100
2, 227324, Note_off_c, 0, 70, 100
2, 227328, Note_on_c, 0, 77, 80
2, 227516, Note_off_c, 0, 77, 100
2, 227616, Note_on_c, 0, 82, 80
2, 227708, Note_off_c, 0, 82, 100
2, 227712, Note_on_c, 0, 82, 80
2, 227712, Note_on_c, 0, 76, 80
2, 228092, Note_off_c, 0, 82, 100
2, 228092, Note_off_c, 0, 76, 100
2, 228096, Note_on_c, 0, 73, 80
2, 228096, Note_on_c, 0, 82, 80
2, 228764, Note_off_c, 0, 82, 100
2, 228768, Note_on_c, 0, 79, 80
2, 228860, Note_off_c, 0, 79, 100
2, 228864, Note_on_c, 0, 72, 80
2, 228864, Note_on_c, 0, 81, 80
2, 229148, Note_off_c, 0, 81, 100
2, 229152, Note_on_c, 0, 84, 80
2, 229244, Note_off_c, 0, 73, 100
2, 229244, Note_off_c, 0, 72, 100
2, 229244, Note_off_c, 0, 84, 100
2, 229248, Note_on_c, 0, 79, 80
2, 229248, Note_on_c, 0, 73, 80
2, 229532, Note_off_c, 0, 79, 100
2, 229532, Note_off_c, 0, 73, 100
2, 229536, Note_on_c, 0, 76, 80
2, 229536, Note_on_c, 0, 70, 80
2, 229628, Note_off_c, 0, 76, 100
2, 229628, Note_off_c, 0, 70, 100
2, 229632, Note_on_c, 0, 77, 80
2, 229632, Note_on_c, 0, 72, 80
2, 229820, Note_off_c, 0, 77, 100
2, 229820, Note_off_c, 0, 72, 100
2, 229920, Note_on_c, 0, 81, 80
2, 229920, Note_on_c, 0, 69, 80
2, 230012, Note_off_c, 0, 81, 100
2, 230012, Note_off_c, 0, 69, 100
2, 230016, Note_on_c, 0, 72, 80
2, 230016, Note_on_c, 0, 67, 80
2, 230204, Note_off_c, 0, 72, 100
2, 230204, Note_off_c, 0, 67, 100
2, 230304, Note_on_c, 0, 72, 80
2, 230304, Note_on_c, 0, 67, 80
2, 230396, Note_off_c, 0, 72, 100
2, 230396, Note_off_c, 0, 67, 100
2, 230400, Note_on_c, 0, 71, 80
2, 230400, Note_on_c, 0, 65, 80
2, 230588, Note_off_c, 0, 71, 100
2, 230588, Note_off_c, 0, 65, 100
2, 230688, Note_on_c, 0, 70, 80
2, 230688, Note_on_c, 0, 65, 80
2, 230780, Note_off_c, 0, 70, 100
2, 230780, Note_off_c, 0, 65, 100
2, 230784, Note_on_c, 0, 70, 80
2, 230784, Note_on_c, 0, 64, 80
2, 231164, Note_off_c, 0, 70, 100
2, 231164, Note_off_c, 0, 64, 100
2, 231168, Note_on_c, 0, 70, 80
2, 231168, Note_on_c, 0, 61, 80
2, 231836, Note_off_c, 0, 70, 100
2, 231840, Note_on_c, 0, 67, 80
2, 231932, Note_off_c, 0, 61, 100
2, 231932, Note_off_c, 0, 67, 100
2, 231936, Note_on_c, 0, 60, 80
2, 231936, Note_on_c, 0, 69, 80
2, 232220, Note_off_c, 0, 69, 100
2, 232224, Note_on_c, 0, 72, 82
2, 232316, Note_off_c, 0, 60, 100
2, 232316, Note_off_c, 0, 72, 100
2, 232320, Note_on_c, 0, 67, 83
2, 232320, Note_on_c, 0, 60, 83
2, 232604, Note_off_c, 0, 67, 100
2, 232608, Note_on_c, 0, 66, 85
2, 232700, Note_off_c, 0, 60, 100
2, 232700, Note_off_c, 0, 66, 100
2, 232704, Note_on_c, 0, 65, 86
2, 232704, Note_on_c, 0, 60, 86
2, 232892, Note_off_c, 0, 65, 100
2, 232892, Note_off_c, 0, 60, 100
2, 232992, Note_on_c, 0, 72, 88
2, 232992, Note_on_c, 0, 60, 88
2, 233084, Note_off_c, 0, 72, 100
2, 233084, Note_off_c, 0, 60, 100
2, 233088, Note_on_c, 0, 60, 89
2, 233088, Note_on_c, 0, 64, 89
2, 233372, Note_off_c, 0, 64, 100
2, 233376, Note_on_c, 0, 63, 91
2, 233468, Note_off_c, 0, 60, 100
2, 233468, Note_off_c, 0, 63, 100
2, 233472, Note_on_c, 0, 62, 92
2, 233472, Note_on_c, 0, 60, 92
2, 233660, Note_off_c, 0, 62, 100
2, 233660, Note_off_c, 0, 60, 100
2, 233760, Note_on_c, 0, 69, 94
2, 233760, Note_on_c, 0, 62, 94
2, 233760, Note_on_c, 0, 60, 94
2, 233852, Note_off_c, 0, 69, 100
2, 233852, Note_off_c, 0, 62, 100
2, 233852, Note_off_c, 0, 60, 100
2, 233856, Note_on_c, 0, 64, 80
2, 233856, Note_on_c, 0, 60, 80
2, 234140, Note_off_c, 0, 64, 100
2, 234144, Note_on_c, 0, 63, 80
2, 234236, Note_off_c, 0, 60, 100
2, 234236, Note_off_c, 0, 63, 100
2, 234240, Note_on_c, 0, 62, 80
2, 234240, Note_on_c, 0, 59, 80
2, 234428, Note_off_c, 0, 62, 100
2, 234428, Note_off_c, 0, 59, 100
2, 234528, Note_on_c, 0, 67, 80
2, 234528, Note_on_c, 0, 59, 80
2, 234620, Note_off_c, 0, 67, 100
2, 234620, Note_off_c, 0, 59, 100
2, 234624, Note_on_c, 0, 60, 80
2, 235004, Note_off_c, 0, 60, 100
2, 235296, Note_on_c, 0, 76, 80
2, 235296, Note_on_c, 0, 72, 80
2, 235388, Note_off_c, 0, 76, 100
2, 235388, Note_off_c, 0, 72, 100
2, 235392, Note_on_c, 0, 72, 80
2, 235392, Note_on_c, 0, 76, 80
2, 235676, Note_off_c, 0, 76, 100
2, 235680, Note_on_c, 0, 75, 80
2, 235772, Note_off_c, 0, 72, 100
2, 235772, Note_off_c, 0, 75, 100
2, 235776, Note_on_c, 0, 74, 80
2, 235776, Note_on_c, 0, 71, 80
2, 235964, Note_off_c, 0, 74, 100
2, 235964, Note_off_c, 0, 71, 100
2, 236064, Note_on_c, 0, 79, 80
2, 236064, Note_on_c, 0, 71, 80
2, 236156, Note_off_c, 0, 79, 100
2, 236156, Note_off_c, 0, 71, 100
2, 236160, Note_on_c, 0, 72, 80
2, 236348, Note_off_c, 0, 72, 100
2, 236448, Note_on_c, 0, 69, 80
2, 236540, Note_off_c, 0, 69, 100
2, 236544, Note_on_c, 0, 67, 80
2, 236732, Note_off_c, 0, 67, 100
2, 237600, Note_on_c, 0, 76, 80
2, 237600, Note_on_c, 0, 64, 80
2, 237692, Note_off_c, 0, 76, 100
2, 237692, Note_off_c, 0, 64, 100
2, 237696, Note_on_c, 0, 77, 80
2, 237696, Note_on_c, 0, 65, 80
2, 237884, Note_off_c, 0, 77, 100
2, 237884, Note_off_c, 0, 65, 100
2, 237984, Note_on_c, 0, 74, 80
2, 237984, Note_on_c, 0, 62, 80
2, 238076, Note_off_c, 0, 74, 100
2, 238076, Note_off_c, 0, 62, 100
2, 238080, Note_on_c, 0, 72, 80
2, 238080, Note_on_c, 0, 60, 80
2, 238268, Note_off_c, 0, 72, 100
2, 238268, Note_off_c, 0, 60, 100
2, 238368, Note_on_c, 0, 81, 80
2, 238368, Note_on_c, 0, 77, 80
2, 238460, Note_off_c, 0, 81, 100
2, 238460, Note_off_c, 0, 77, 100
2, 238464, Note_on_c, 0, 77, 80
2, 238464, Note_on_c, 0, 81, 80
2, 238748, Note_off_c, 0, 81, 100
2, 238752, Note_on_c, 0, 80, 80
2, 238844, Note_off_c, 0, 77, 100
2, 238844, Note_off_c, 0, 80, 100
2, 238848, Note_on_c, 0, 76, 80
2, 238848, Note_on_c, 0, 79, 80
2, 239036, Note_off_c, 0, 79, 100
2, 239136, Note_on_c, 0, 84, 80
2, 239228, Note_off_c, 0, 76, 100
2, 239228, Note_off_c, 0, 84, 100
2, 239232, Note_on_c, 0, 77, 80
2, 239232, Note_on_c, 0, 69, 80
2, 239612, Note_off_c, 0, 77, 100
2, 239612, Note_off_c, 0, 69, 100
2, 239904, Note_on_c, 0, 81, 120
2, 239904, Note_on_c, 0, 69, 120
2, 239996, Note_off_c, 0, 81, 100
2, 239996, Note_off_c, 0, 69, 100
2, 240000, Note_on_c, 0, 81, 120
2, 240000, Note_on_c, 0, 69, 120
2, 240284, Note_off_c, 0, 81, 100
2, 240284, Note_off_c, 0, 69, 100
2, 240288, Note_on_c, 0, 81, 80
2, 240380, Note_off_c, 0, 81, 100
2, 240384, Note_on_c, 0, 85, 80
2, 240668, Note_off_c, 0, 85, 100
2, 240672, Note_on_c, 0, 90, 80
2, 240764, Note_off_c, 0, 90, 100
2, 240768, Note_on_c, 0, 90, 80
2, 241148, Note_off_c, 0, 90, 100
2, 241152, Note_on_c, 0, 88, 80
2, 241532, Note_off_c, 0, 88, 100
2, 241824, Note_on_c, 0, 57, 80
2, 241916, Note_off_c, 0, 57, 100
2, 241920, Note_on_c, 0, 61, 80
2, 242204, Note_off_c, 0, 61, 100
2, 242208, Note_on_c, 0, 66, 80
2, 242300, Note_off_c, 0, 66, 100
2, 242304, Note_on_c, 0, 66, 80
2, 242684, Note_off_c, 0, 66, 100
2, 242688, Note_on_c, 0, 64, 80
2, 243356, Note_off_c, 0, 64, 100
2, 243360, Note_on_c, 0, 80, 80
2, 243452, Note_off_c, 0, 80, 100
2, 243456, Note_on_c, 0, 81, 81
2, 243644, Note_off_c, 0, 81, 100
2, 243744, Note_on_c, 0, 82, 84
2, 243836, Note_off_c, 0, 82, 100
2, 243840, Note_on_c, 0, 82, 85
2, 244028, Note_off_c, 0, 82, 100
2, 244128, Note_on_c, 0, 82, 88
2, 244128, Note_on_c, 0, 88, 88
2, 244220, Note_off_c, 0, 82, 100
2, 244220, Note_off_c, 0, 88, 100
2, 244224, Note_on_c, 0, 89, 89
2, 244224, Note_on_c, 0, 81, 89
2, 244412, Note_off_c, 0, 89, 100
2, 244412, Note_off_c, 0, 81, 100
2, 244512, Note_on_c, 0, 91, 92
2, 244512, Note_on_c, 0, 79, 92
2, 244604, Note_off_c, 0, 91, 100
2, 244604, Note_off_c, 0, 79, 100
2, 244608, Note_on_c, 0, 91, 93
2, 244608, Note_on_c, 0, 79, 93
2, 244796, Note_off_c, 0, 91, 100
2, 244796, Note_off_c, 0, 79, 100
2, 244896, Note_on_c, 0, 88, 97
2, 244988, Note_off_c, 0, 88, 100
2, 244992, Note_on_c, 0, 91, 98
2, 245180, Note_off_c, 0, 91, 100
2, 245280, Note_on_c, 0, 85, 101
2, 245372, Note_off_c, 0, 85, 100
2, 245376, Note_on_c, 0, 88, 102
2, 245564, Note_off_c, 0, 88, 100
2, 245664, Note_on_c, 0, 79, 105
2, 245756, Note_off_c, 0, 79, 100
2, 245760, Note_on_c, 0, 82, 106
2, 245948, Note_off_c, 0, 82, 100
2, 246048, Note_on_c, 0, 81, 109
2, 246140, Note_off_c, 0, 81, 100
2, 246144, Note_on_c, 0, 77, 110
2, 246524, Note_off_c, 0, 77, 100
2, 246528, Note_on_c, 0, 81, 110
2, 246576, Note_on_c, 0, 82, 110
2, 246600, Note_off_c, 0, 81, 100
2, 246624, Note_on_c, 0, 81, 110
2, 246648, Note_off_c, 0, 82, 100
2, 246672, Note_on_c, 0, 82, 110
2, 246692, Note_off_c, 0, 81, 100
2, 246720, Note_on_c, 0, 81, 110
2, 246740, Note_off_c, 0, 82, 100
2, 246768, Note_on_c, 0, 82, 110
2, 246788, Note_off_c, 0, 81, 100
2, 246816, Note_on_c, 0, 79, 110
2, 246844, Note_off_c, 0, 82, 100
2, 246864, Note_on_c, 0, 81, 110
2, 246880, Note_off_c, 0, 79, 100
2, 246956, Note_off_c, 0, 81, 100
2, 247296, Note_on_c, 0, 89, 110
2, 247344, Note_on_c, 0, 91, 110
2, 247364, Note_off_c, 0, 89, 100
2, 247392, Note_on_c, 0, 89, 110
2, 247412, Note_off_c, 0, 91, 100
2, 247440, Note_on_c, 0, 91, 110
2, 247456, Note_off_c, 0, 89, 100
2, 247488, Note_on_c, 0, 89, 110
2, 247508, Note_off_c, 0, 91, 100
2, 247536, Note_on_c, 0, 91, 110
2, 247564, Note_off_c, 0, 89, 100
2, 247584, Note_on_c, 0, 88, 110
2, 247600, Note_off_c, 0, 91, 100
2, 247632, Note_on_c, 0, 89, 110
2, 247652, Note_off_c, 0, 88, 100
2, 247676, Note_off_c, 0, 89, 100
2, 247680, Note_on_c, 0, 89, 110
2, 247868, Note_off_c, 0, 89, 100
2, 247968, Note_on_c, 0, 86, 110
2, 248060, Note_off_c, 0, 86, 100
2, 248064, Note_on_c, 0, 89, 110
2, 248252, Note_off_c, 0, 89, 100
2, 248352, Note_on_c, 0, 83, 110
2, 248444, Note_off_c, 0, 83, 100
2, 248448, Note_on_c, 0, 86, 110
2, 248636, Note_off_c, 0, 86, 100
2, 248736, Note_on_c, 0, 74, 110
2, 248828, Note_off_c, 0, 74, 100
2, 248832, Note_on_c, 0, 80, 110
2, 249020, Note_off_c, 0, 80, 100
2, 249120, Note_on_c, 0, 79, 110
2, 249212, Note_off_c, 0, 79, 100
2, 249216, Note_on_c, 0, 76, 110
2, 249596, Note_off_c, 0, 76, 100
2, 249600, Note_on_c, 0, 81, 110
2, 249648, Note_on_c, 0, 83, 110
2, 249668, Note_off_c, 0, 81, 100
2, 249696, Note_on_c, 0, 81, 110
2, 249712, Note_off_c, 0, 83, 100
2, 249744, Note_on_c, 0, 83, 110
2, 249760, Note_off_c, 0, 81, 100
2, 249792, Note_on_c, 0, 81, 110
2, 249820, Note_off_c, 0, 83, 100
2, 249840, Note_on_c, 0, 83, 110
2, 249864, Note_off_c, 0, 81, 100
2, 249888, Note_on_c, 0, 80, 110
2, 249908, Note_off_c, 0, 83, 100
2, 249936, Note_on_c, 0, 81, 110
2, 249960, Note_off_c, 0, 80, 100
2, 250028, Note_off_c, 0, 81, 100
2, 250368, Note_on_c, 0, 93, 110
2, 250416, Note_on_c, 0, 95, 110
2, 250444, Note_off_c, 0, 93, 100
2, 250464, Note_on_c, 0, 93, 110
2, 250484, Note_off_c, 0, 95, 100
2, 250512, Note_on_c, 0, 95, 110
2, 250536, Note_off_c, 0, 93, 100
2, 250560, Note_on_c, 0, 93, 110
2, 250588, Note_off_c, 0, 95, 100
2, 250608, Note_on_c, 0, 95, 110
2, 250636, Note_off_c, 0, 93, 100
2, 250656, Note_on_c, 0, 92, 110
2, 250676, Note_off_c, 0, 95, 100
2, 250704, Note_on_c, 0, 93, 110
2, 250724, Note_off_c, 0, 92, 100
2, 250748, Note_off_c, 0, 93, 100
2, 250752, Note_on_c, 0, 92, 121
2, 250940, Note_off_c, 0, 92, 100
2, 251040, Note_on_c, 0, 76, 80
2, 251132, Note_off_c, 0, 76, 100
2, 251136, Note_on_c, 0, 79, 80
2, 251420, Note_off_c, 0, 79, 100
2, 251424, Note_on_c, 0, 77, 80
2, 251516, Note_off_c, 0, 77, 100
2, 251520, Note_on_c, 0, 77, 80
2, 252572, Note_off_c, 0, 77, 100
2, 252576, Note_on_c, 0, 75, 80
2, 252668, Note_off_c, 0, 75, 100
2, 252672, Note_on_c, 0, 77, 80
2, 252956, Note_off_c, 0, 77, 100
2, 252960, Note_on_c, 0, 76, 80
2, 253052, Note_off_c, 0, 76, 100
2, 253056, Note_on_c, 0, 76, 80
2, 254204, Note_off_c, 0, 76, 100
2, 254208, Note_on_c, 0, 74, 80
2, 254588, Note_off_c, 0, 74, 100
2, 254880, Note_on_c, 0, 74, 80
2, 254972, Note_off_c, 0, 74, 100
2, 254976, Note_on_c, 0, 77, 80
2, 255164, Note_off_c, 0, 77, 100
2, 255264, Note_on_c, 0, 82, 80
2, 255356, Note_off_c, 0, 82, 100
2, 255360, Note_on_c, 0, 82, 80
2, 256412, Note_off_c, 0, 82, 100
2, 256416, Note_on_c, 0, 73, 80
2, 256508, Note_off_c, 0, 73, 100
2, 256512, Note_on_c, 0, 76, 80
2, 256700, Note_off_c, 0, 76, 100
2, 256800, Note_on_c, 0, 81, 80
2, 256892, Note_off_c, 0, 81, 100
2, 256896, Note_on_c, 0, 81, 80
2, 257468, Note_off_c, 0, 81, 100
2, 257568, Note_on_c, 0, 54, 80
2, 257660, Note_off_c, 0, 54, 100
2, 257664, Note_on_c, 0, 57, 80
2, 257948, Note_off_c, 0, 57, 100
2, 257952, Note_on_c, 0, 66, 80
2, 257952, Note_on_c, 0, 60, 80
2, 258044, Note_off_c, 0, 66, 100
2, 258044, Note_off_c, 0, 60, 100
2, 258048, Note_on_c, 0, 69, 80
2, 258048, Note_on_c, 0, 66, 80
2, 258332, Note_off_c, 0, 69, 100
2, 258336, Note_on_c, 0, 72, 80
2, 258428, Note_off_c, 0, 66, 100
2, 258428, Note_off_c, 0, 72, 100
2, 258432, Note_on_c, 0, 70, 80
2, 258432, Note_on_c, 0, 67, 80
2, 258812, Note_off_c, 0, 70, 100
2, 258812, Note_off_c, 0, 67, 100
2, 259104, Note_on_c, 0, 58, 80
2, 259196, Note_off_c, 0, 58, 100
2, 259200, Note_on_c, 0, 62, 80
2, 259484, Note_off_c, 0, 62, 100
2, 259488, Note_on_c, 0, 70, 80
2, 259488, Note_on_c, 0, 67, 80
2, 259580, Note_off_c, 0, 70, 100
2, 259580, Note_off_c, 0, 67, 100
2, 259584, Note_on_c, 0, 74, 80
2, 259584, Note_on_c, 0, 67, 80
2, 259864, Note_on_c, 0, 79, 80
2, 259868, Note_off_c, 0, 74, 100
2, 259964, Note_off_c, 0, 67, 100
2, 259968, Note_on_c, 0, 72, 80
2, 260244, Note_off_c, 0, 79, 100
2, 260256, Note_on_c, 0, 79, 80
2, 260348, Note_off_c, 0, 79, 100
2, 260352, Note_on_c, 0, 77, 80
2, 260636, Note_off_c, 0, 72, 100
2, 260640, Note_on_c, 0, 72, 80
2, 260732, Note_off_c, 0, 72, 100
2, 260736, Note_on_c, 0, 71, 80
2, 260924, Note_off_c, 0, 71, 100
2, 260928, Note_on_c, 0, 70, 80
2, 260928, Note_on_c, 0, 67, 80
2, 261020, Note_off_c, 0, 77, 100
2, 261024, Note_on_c, 0, 77, 80
2, 261116, Note_off_c, 0, 77, 100
2, 261120, Note_on_c, 0, 76, 80
2, 261308, Note_off_c, 0, 70, 100
2, 261308, Note_off_c, 0, 67, 100
2, 261308, Note_off_c, 0, 76, 100
2, 261312, Note_on_c, 0, 77, 80
2, 261312, Note_on_c, 0, 68, 80
2, 261312, Note_on_c, 0, 65, 80
2, 261500, Note_off_c, 0, 77, 100
2, 261500, Note_off_c, 0, 68, 100
2, 261500, Note_off_c, 0, 65, 100
2, 262176, Note_on_c, 0, 53, 80
2, 262268, Note_off_c, 0, 53, 100
2, 262272, Note_on_c, 0, 56, 80
2, 262556, Note_off_c, 0, 56, 100
2, 262560, Note_on_c, 0, 61, 80
2, 262652, Note_off_c, 0, 61, 100
2, 262656, Note_on_c, 0, 65, 80
2, 262944, Note_on_c, 0, 68, 80
2, 263036, Note_off_c, 0, 65, 100
2, 263036, Note_off_c, 0, 68, 100
2, 263040, Note_on_c, 0, 73, 80
2, 263040, Note_on_c, 0, 66, 80
2, 263040, Note_on_c, 0, 61, 80
2, 263420, Note_off_c, 0, 73, 100
2, 263420, Note_off_c, 0, 66, 100
2, 263420, Note_off_c, 0, 61, 100
2, 263712, Note_on_c, 0, 54, 80
2, 263804, Note_off_c, 0, 54, 100
2, 263808, Note_on_c, 0, 58, 80
2, 264092, Note_off_c, 0, 58, 100
2, 264096, Note_on_c, 0, 61, 80
2, 264188, Note_off_c, 0, 61, 100
2, 264192, Note_on_c, 0, 66, 80
2, 264476, Note_off_c, 0, 66, 100
2, 264480, Note_on_c, 0, 73, 80
2, 264480, Note_on_c, 0, 67, 80
2, 264480, Note_on_c, 0, 64, 80
2, 264572, Note_off_c, 0, 73, 100
2, 264572, Note_off_c, 0, 67, 100
2, 264572, Note_off_c, 0, 64, 100
2, 264576, Note_on_c, 0, 77, 80
2, 264576, Note_on_c, 0, 72, 80
2, 264576, Note_on_c, 0, 65, 80
2, 264764, Note_off_c, 0, 77, 100
2, 264764, Note_off_c, 0, 72, 100
2, 264764, Note_off_c, 0, 65, 100
2, 264864, Note_on_c, 0, 64, 80
2, 264864, Note_on_c, 0, 55, 80
2, 264956, Note_off_c, 0, 64, 100
2, 264956, Note_off_c, 0, 55, 100
2, 264960, Note_on_c, 0, 67, 80
2, 264960, Note_on_c, 0, 58, 80
2, 265244, Note_off_c, 0, 67, 100
2, 265244, Note_off_c, 0, 58, 100
2, 265248, Note_on_c, 0, 65, 80
2, 265248, Note_on_c, 0, 56, 80
2, 265340, Note_off_c, 0, 65, 100
2, 265340, Note_off_c, 0, 56, 100
2, 265344, Note_on_c, 0, 70, 80
2, 265632, Note_on_c, 0, 62, 80
2, 265632, Note_on_c, 0, 53, 80
2, 265724, Note_off_c, 0, 70, 100
2, 265724, Note_off_c, 0, 62, 100
2, 265724, Note_off_c, 0, 53, 100
2, 265728, Note_on_c, 0, 65, 80
2, 265728, Note_on_c, 0, 56, 80
2, 266012, Note_off_c, 0, 65, 100
2, 266012, Note_off_c, 0, 56, 100
2, 266016, Note_on_c, 0, 64, 80
2, 266016, Note_on_c, 0, 55, 80
2, 266108, Note_off_c, 0, 64, 100
2, 266108, Note_off_c, 0, 55, 100
2, 266112, Note_on_c, 0, 68, 80
2, 266400, Note_on_c, 0, 60, 80
2, 266492, Note_off_c, 0, 68, 100
2, 266492, Note_off_c, 0, 60, 100
2, 266496, Note_on_c, 0, 63, 80
2, 266780, Note_off_c, 0, 63, 100
2, 266784, Note_on_c, 0, 62, 80
2, 266784, Note_on_c, 0, 70, 80
2, 266876, Note_off_c, 0, 62, 100
2, 266876, Note_off_c, 0, 70, 100
2, 266880, Note_on_c, 0, 78, 80
2, 267168, Note_on_c, 0, 60, 80
2, 267260, Note_off_c, 0, 78, 100
2, 267260, Note_off_c, 0, 60, 100
2, 267264, Note_on_c, 0, 63, 80
2, 267548, Note_off_c, 0, 63, 100
2, 267552, Note_on_c, 0, 61, 80
2, 267552, Note_on_c, 0, 68, 80
2, 267644, Note_off_c, 0, 61, 100
2, 267644, Note_off_c, 0, 68, 100
2, 267648, Control_c, 0, 64, 127
2, 267648, Note_on_c, 0, 80, 80
2, 268704, Note_on_c, 0, 73, 80
2, 268796, Note_off_c, 0, 80, 100
2, 268796, Note_off_c, 0, 73, 100
2, 268800, Note_on_c, 0, 77, 80
2, 269084, Note_off_c, 0, 77, 100
2, 269088, Note_on_c, 0, 80, 80
2, 269180, Note_off_c, 0, 80, 100
2, 269184, Note_on_c, 0, 80, 80
2, 269568, Note_on_c, 0, 82, 80
2, 269756, Note_off_c, 0, 80, 100
2, 270240, Note_on_c, 0, 75, 80
2, 270332, Note_off_c, 0, 82, 100
2, 270336, Note_on_c, 0, 78, 80
2, 270428, Note_off_c, 0, 75, 100
2, 270624, Note_on_c, 0, 84, 80
2, 270716, Note_off_c, 0, 78, 100
2, 270720, Note_on_c, 0, 84, 80
2, 270908, Note_off_c, 0, 84, 100
2, 271104, Note_on_c, 0, 85, 80
2, 271292, Note_off_c, 0, 84, 100
2, 271776, Note_on_c, 0, 77, 80
2, 271868, Note_off_c, 0, 85, 100
2, 271872, Note_on_c, 0, 80, 80
2, 271964, Note_off_c, 0, 77, 100
2, 272160, Note_on_c, 0, 85, 80
2, 272252, Note_off_c, 0, 80, 100
2, 272256, Note_on_c, 0, 89, 80
2, 272444, Note_off_c, 0, 85, 100
2, 273312, Note_on_c, 0, 77, 80
2, 273408, Note_on_c, 0, 82, 80
2, 273692, Note_off_c, 0, 77, 100
2, 273696, Note_on_c, 0, 89, 80
2, 273784, Control_c, 0, 64, 0
2, 273788, Note_off_c, 0, 89, 100
2, 273788, Note_off_c, 0, 82, 100
2, 273788, Note_off_c, 0, 89, 100
2, 273792, Note_on_c, 0, 89, 80
2, 274172, Note_off_c, 0, 89, 100
2, 274176, Note_on_c, 0, 88, 80
2, 274844, Note_off_c, 0, 88, 100
2, 274848, Note_on_c, 0, 77, 80
2, 274940, Note_off_c, 0, 77, 100
2, 274944, Note_on_c, 0, 82, 80
2, 275228, Note_off_c, 0, 82, 100
2, 275232, Note_on_c, 0, 89, 80
2, 275324, Note_off_c, 0, 89, 100
2, 275328, Note_on_c, 0, 89, 80
2, 275708, Note_off_c, 0, 89, 100
2, 275712, Note_on_c, 0, 88, 80
2, 276380, Note_off_c, 0, 88, 100
2, 276384, Note_on_c, 0, 82, 80
2, 276476, Note_off_c, 0, 82, 100
2, 276480, Note_on_c, 0, 89, 80
2, 276764, Note_off_c, 0, 89, 100
2, 276768, Note_on_c, 0, 94, 80
2, 276860, Note_off_c, 0, 94, 100
2, 276864, Note_on_c, 0, 94, 80
2, 277244, Note_off_c, 0, 94, 100
2, 277248, Note_on_c, 0, 94, 81
2, 277916, Note_off_c, 0, 94, 100
2, 277920, Note_on_c, 0, 91, 85
2, 278012, Note_off_c, 0, 91, 100
2, 278016, Note_on_c, 0, 93, 85
2, 278300, Note_off_c, 0, 93, 100
2, 278304, Note_on_c, 0, 96, 87
2, 278396, Note_off_c, 0, 96, 100
2, 278400, Note_on_c, 0, 91, 87
2, 278400, Note_on_c, 0, 82, 87
2, 278400, Note_on_c, 0, 79, 87
2, 278684, Note_off_c, 0, 91, 100
2, 278688, Note_on_c, 0, 88, 89
2, 278780, Note_off_c, 0, 82, 100
2, 278780, Note_off_c, 0, 79, 100
2, 278780, Note_off_c, 0, 88, 100
2, 278784, Note_on_c, 0, 89, 89
2, 278784, Note_on_c, 0, 81, 89
2, 278784, Note_on_c, 0, 77, 89
2, 278972, Note_off_c, 0, 89, 100
2, 278972, Note_off_c, 0, 81, 100
2, 278972, Note_off_c, 0, 77, 100
2, 279072, Note_on_c, 0, 93, 91
2, 279164, Note_off_c, 0, 93, 100
2, 279168, Note_on_c, 0, 84, 91
2, 279168, Note_on_c, 0, 79, 91
2, 279168, Note_on_c, 0, 76, 91
2, 279356, Note_off_c, 0, 84, 100
2, 279356, Note_off_c, 0, 79, 100
2, 279356, Note_off_c, 0, 76, 100
2, 279456, Note_on_c, 0, 84, 93
2, 279456, Note_on_c, 0, 79, 93
2, 279456, Note_on_c, 0, 76, 93
2, 279548, Note_off_c, 0, 84, 100
2, 279548, Note_off_c, 0, 79, 100
2, 279548, Note_off_c, 0, 76, 100
2, 279552, Note_on_c, 0, 83, 93
2, 279552, Note_on_c, 0, 77, 93
2, 279552, Note_on_c, 0, 74, 93
2, 279740, Note_off_c, 0, 83, 100
2, 279740, Note_off_c, 0, 77, 100
2, 279740, Note_off_c, 0, 74, 100
2, 279840, Note_on_c, 0, 82, 95
2, 279840, Note_on_c, 0, 79, 95
2, 279840, Note_on_c, 0, 76, 95
2, 279932, Note_off_c, 0, 82, 100
2, 279932, Note_off_c, 0, 79, 100
2, 279932, Note_off_c, 0, 76, 100
2, 279936, Note_on_c, 0, 82, 95
2, 279936, Note_on_c, 0, 79, 95
2, 279936, Note_on_c, 0, 76, 95
2, 279936, Note_on_c, 0, 70, 95
2, 280316, Note_off_c, 0, 82, 100
2, 280316, Note_off_c, 0, 79, 100
2, 280316, Note_off_c, 0, 76, 100
2, 280316, Note_off_c, 0, 70, 100
2, 280320, Note_on_c, 0, 82, 97
2, 280320, Note_on_c, 0, 79, 97
2, 280320, Note_on_c, 0, 76, 97
2, 280320, Note_on_c, 0, 70, 97
2, 280988, Note_off_c, 0, 82, 100
2, 280992, Note_on_c, 0, 79, 100
2, 281084, Note_off_c, 0, 79, 100
2, 281084, Note_off_c, 0, 76, 100
2, 281084, Note_off_c, 0, 70, 100
2, 281084, Note_off_c, 0, 79, 100
2, 281088, Note_on_c, 0, 81, 101
2, 281372, Note_off_c, 0, 81, 100
2, 281376, Note_on_c, 0, 84, 102
2, 281468, Note_off_c, 0, 84, 100
2, 281472, Note_on_c, 0, 79, 103
2, 281756, Note_off_c, 0, 79, 100
2, 281760, Note_on_c, 0, 76, 104
2, 281852, Note_off_c, 0, 76, 100
2, 281856, Note_on_c, 0, 77, 105
2, 282140, Note_off_c, 0, 77, 100
2, 282144, Note_on_c, 0, 81, 106
2, 282236, Note_off_c, 0, 81, 100
2, 282240, Note_on_c, 0, 72, 107
2, 282428, Note_off_c, 0, 72, 100
2, 282528, Note_on_c, 0, 72, 108
2, 282620, Note_off_c, 0, 72, 100
2, 282624, Note_on_c, 0, 71, 109
2, 282812, Note_off_c, 0, 71, 100
2, 282912, Note_on_c, 0, 70, 110
2, 282912, Note_on_c, 0, 67, 110
2, 283004, Note_off_c, 0, 70, 100
2, 283004, Note_off_c, 0, 67, 100
2, 283008, Note_on_c, 0, 70, 110
2, 283008, Note_on_c, 0, 67, 110
2, 283008, Note_on_c, 0, 64, 110
2, 283008, Note_on_c, 0, 58, 110
2, 283388, Note_off_c, 0, 70, 100
2, 283388, Note_off_c, 0, 67, 100
2, 283388, Note_off_c, 0, 64, 100
2, 283388, Note_off_c, 0, 58, 100
2, 284160, Note_on_c, 0, 65, 110
2, 284828, Note_off_c, 0, 65, 100
2, 284832, Note_on_c, 0, 62, 110
2, 284924, Note_off_c, 0, 62, 100
2, 284928, Note_on_c, 0, 70, 110
2, 284928, Note_on_c, 0, 64, 110
2, 285212, Note_off_c, 0, 64, 100
2, 285216, Note_on_c, 0, 67, 110
2, 285308, Note_off_c, 0, 67, 100
2, 285312, Note_on_c, 0, 60, 110
2, 285596, Note_off_c, 0, 70, 100
2, 285600, Note_on_c, 0, 67, 110
2, 285692, Note_off_c, 0, 60, 100
2, 285692, Note_off_c, 0, 67, 100
2, 285696, Note_on_c, 0, 77, 110
2, 285696, Note_on_c, 0, 69, 110
2, 285980, Note_off_c, 0, 69, 100
2, 285984, Note_on_c, 0, 72, 110
2, 286076, Note_off_c, 0, 72, 100
2, 286080, Note_on_c, 0, 68, 110
2, 286364, Note_off_c, 0, 77, 100
2, 286364, Note_off_c, 0, 68, 100
2, 286368, Note_on_c, 0, 74, 110
2, 286368, Note_on_c, 0, 67, 110
2, 286460, Note_off_c, 0, 74, 100
2, 286460, Note_off_c, 0, 67, 100
2, 286464, Note_on_c, 0, 75, 110
2, 286464, Note_on_c, 0, 87, 110
2, 286748, Note_off_c, 0, 75, 100
2, 286752, Note_on_c, 0, 79, 110
2, 286844, Note_off_c, 0, 79, 100
2, 286848, Note_on_c, 0, 78, 110
2, 287132, Note_off_c, 0, 87, 100
2, 287136, Note_on_c, 0, 84, 110
2, 287228, Note_off_c, 0, 78, 100
2, 287228, Note_off_c, 0, 84, 100
2, 287232, Note_on_c, 0, 86, 110
2, 287232, Note_on_c, 0, 77, 110
2, 287516, Note_off_c, 0, 86, 100
2, 287520, Note_on_c, 0, 89, 110
2, 287612, Note_off_c, 0, 89, 100
2, 287616, Note_on_c, 0, 86, 110
2, 287900, Note_off_c, 0, 86, 100
2, 287904, Note_on_c, 0, 82, 110
2, 287996, Note_off_c, 0, 82, 100
2, 288000, Note_on_c, 0, 84, 110
2, 288284, Note_off_c, 0, 77, 100
2, 288284, Note_off_c, 0, 84, 100
2, 288288, Note_on_c, 0, 77, 110
2, 288288, Note_on_c, 0, 74, 110
2, 288288, Note_on_c, 0, 86, 110
2, 288380, Note_off_c, 0, 77, 100
2, 288380, Note_off_c, 0, 74, 100
2, 288380, Note_off_c, 0, 86, 100
2, 288384, Note_on_c, 0, 81, 110
2, 288384, Note_on_c, 0, 77, 110
2, 288384, Note_on_c, 0, 72, 110
2, 288668, Note_off_c, 0, 81, 100
2, 288668, Note_off_c, 0, 77, 100
2, 288668, Note_off_c, 0, 72, 100
2, 288672, Note_on_c, 0, 79, 110
2, 288672, Note_on_c, 0, 76, 110
2, 288672, Note_on_c, 0, 72, 110
2, 288764, Note_off_c, 0, 79, 100
2, 288764, Note_off_c, 0, 76, 100
2, 288764, Note_off_c, 0, 72, 100
2, 288768, Note_on_c, 0, 81, 110
2, 288768, Note_on_c, 0, 77, 110
2, 288768, Note_on_c, 0, 72, 110
2, 289052, Note_off_c, 0, 81, 100
2, 289052, Note_off_c, 0, 77, 100
2, 289052, Note_off_c, 0, 72, 100
2, 289056, Note_on_c, 0, 82, 110
2, 289056, Note_on_c, 0, 79, 110
2, 289148, Note_off_c, 0, 82, 100
2, 289148, Note_off_c, 0, 79, 100
2, 289152, Note_on_c, 0, 81, 110
2, 289152, Note_on_c, 0, 77, 110
2, 289436, Note_off_c, 0, 81, 100
2, 289436, Note_off_c, 0, 77, 100
2, 289440, Note_on_c, 0, 70, 80
2, 289440, Note_on_c, 0, 67, 80
2, 289532, Note_off_c, 0, 70, 100
2, 289532, Note_off_c, 0, 67, 100
2, 289536, Note_on_c, 0, 72, 80
2, 289536, Note_on_c, 0, 69, 80
2, 289820, Note_off_c, 0, 72, 100
2, 289820, Note_off_c, 0, 69, 100
2, 289824, Note_on_c, 0, 74, 80
2, 289824, Note_on_c, 0, 70, 80
2, 289916, Note_off_c, 0, 74, 100
2, 289916, Note_off_c, 0, 70, 100
2, 289920, Note_on_c, 0, 72, 80
2, 289920, Note_on_c, 0, 69, 80
2, 290204, Note_off_c, 0, 72, 100
2, 290204, Note_off_c, 0, 69, 100
2, 290208, Note_on_c, 0, 74, 80
2, 290208, Note_on_c, 0, 70, 80
2, 290300, Note_off_c, 0, 74, 100
2, 290300, Note_off_c, 0, 70, 100
2, 290304, Note_on_c, 0, 76, 80
2, 290304, Note_on_c, 0, 72, 80
2, 290588, Note_off_c, 0, 76, 100
2, 290588, Note_off_c, 0, 72, 100
2, 290592, Note_on_c, 0, 77, 80
2, 290592, Note_on_c, 0, 74, 80
2, 290684, Note_off_c, 0, 77, 100
2, 290684, Note_off_c, 0, 74, 100
2, 290688, Note_on_c, 0, 79, 80
2, 290688, Note_on_c, 0, 76, 80
2, 290972, Note_off_c, 0, 79, 100
2, 290972, Note_off_c, 0, 76, 100
2, 290976, Note_on_c, 0, 81, 80
2, 290976, Note_on_c, 0, 77, 80
2, 291068, Note_off_c, 0, 81, 100
2, 291068, Note_off_c, 0, 77, 100
2, 291072, Note_on_c, 0, 82, 80
2, 291072, Note_on_c, 0, 79, 80
2, 291836, Note_off_c, 0, 82, 100
2, 291836, Note_off_c, 0, 79, 100
2, 291840, Note_on_c, 0, 81, 85
2, 291840, Note_on_c, 0, 77, 85
2, 292220, Note_off_c, 0, 81, 100
2, 292220, Note_off_c, 0, 77, 100
2, 292224, Note_on_c, 0, 79, 88
2, 292224, Note_on_c, 0, 70, 88
2, 292604, Note_off_c, 0, 79, 100
2, 292604, Note_off_c, 0, 70, 100
2, 292608, Note_on_c, 0, 77, 91
2, 292608, Note_on_c, 0, 69, 91
2, 293372, Note_off_c, 0, 77, 100
2, 293372, Note_off_c, 0, 69, 100
2, 293376, Note_on_c, 0, 76, 97
2, 293376, Note_on_c, 0, 67, 97
2, 293756, Note_off_c, 0, 76, 100
2, 293756, Note_off_c, 0, 67, 100
2, 293760, Note_on_c, 0, 69, 80
2, 293884, Note_off_c, 0, 69, 100
2, 293888, Note_on_c, 0, 65, 80
2, 294012, Note_off_c, 0, 65, 100
2, 294016, Note_on_c, 0, 70, 80
2, 294140, Note_off_c, 0, 70, 100
2, 294144, Note_on_c, 0, 72, 80
2, 294268, Note_off_c, 0, 72, 100
2, 294272, Note_on_c, 0, 69, 80
2, 294396, Note_off_c, 0, 69, 100
2, 294400, Note_on_c, 0, 74, 80
2, 294524, Note_off_c, 0, 74, 100
2, 294528, Note_on_c, 0, 72, 80
2, 294652, Note_off_c, 0, 72, 100
2, 294656, Note_on_c, 0, 69, 80
2, 294780, Note_off_c, 0, 69, 100
2, 294784, Note_on_c, 0, 74, 80
2, 294908, Note_off_c, 0, 74, 100
2, 294912, Note_on_c, 0, 76, 80
2, 295036, Note_off_c, 0, 76, 100
2, 295040, Note_on_c, 0, 72, 80
2, 295164, Note_off_c, 0, 72, 100
2, 295168, Note_on_c, 0, 77, 80
2, 295292, Note_off_c, 0, 77, 100
2, 295296, Note_on_c, 0, 79, 80
2, 295420, Note_off_c, 0, 79, 100
2, 295424, Note_on_c, 0, 76, 80
2, 295548, Note_off_c, 0, 76, 100
2, 295552, Note_on_c, 0, 81, 80
2, 295552, Note_on_c, 0, 77, 80
2, 295676, Note_off_c, 0, 81, 100
2, 295676, Note_off_c, 0, 77, 100
2, 295680, Note_on_c, 0, 82, 80
2, 295680, Note_on_c, 0, 79, 80
2, 296444, Note_off_c, 0, 82, 100
2, 296444, Note_off_c, 0, 79, 100
2, 296448, Note_on_c, 0, 81, 88
2, 296448, Note_on_c, 0, 77, 88
2, 296828, Note_off_c, 0, 81, 100
2, 296828, Note_off_c, 0, 77, 100
2, 296832, Note_on_c, 0, 79, 93
2, 296832, Note_on_c, 0, 70, 93
2, 297212, Note_off_c, 0, 79, 100
2, 297212, Note_off_c, 0, 70, 100
2, 297216, Note_on_c, 0, 77, 97
2, 297216, Note_on_c, 0, 69, 97
2, 297980, Note_off_c, 0, 77, 100
2, 297980, Note_off_c, 0, 69, 100
2, 297984, Note_on_c, 0, 76, 106
2, 297984, Note_on_c, 0, 67, 106
2, 298364, Note_off_c, 0, 76, 100
2, 298364, Note_off_c, 0, 67, 100
2, 298368, Note_on_c, 0, 96, 120
2, 298368, Note_on_c, 0, 84, 120
2, 299132, Note_off_c, 0, 96, 100
2, 299132, Note_off_c, 0, 84, 100
2, 299136, Note_on_c, 0, 75, 120
2, 299136, Note_on_c, 0, 72, 120
2, 299136, Note_on_c, 0, 65, 120
2, 299900, Note_off_c, 0, 75, 100
2, 299900, Note_off_c, 0, 72, 100
2, 299900, Note_off_c, 0, 65, 100
2, 299904, Note_on_c, 0, 74, 80
2, 299904, Note_on_c, 0, 70, 80
2, 299904, Note_on_c, 0, 65, 80
2, 300092, Note_off_c, 0, 74, 100
2, 300092, Note_off_c, 0, 70, 100
2, 300092, Note_off_c, 0, 65, 100
2, 300192, Note_on_c, 0, 74, 80
2, 300192, Note_on_c, 0, 70, 80
2, 300192, Note_on_c, 0, 65, 80
2, 300284, Note_off_c, 0, 74, 100
2, 300284, Note_off_c, 0, 70, 100
2, 300284, Note_off_c, 0, 65, 100
2, 300288, Note_on_c, 0, 72, 80
2, 300288, Note_on_c, 0, 69, 80
2, 300288, Note_on_c, 0, 65, 80
2, 300476, Note_off_c, 0, 72, 100
2, 300476, Note_off_c, 0, 69, 100
2, 300476, Note_off_c, 0, 65, 100
2, 300576, Note_on_c, 0, 72, 80
2, 300576, Note_on_c, 0, 69, 80
2, 300576, Note_on_c, 0, 65, 80
2, 300668, Note_off_c, 0, 72, 100
2, 300668, Note_off_c, 0, 69, 100
2, 300668, Note_off_c, 0, 65, 100
2, 300672, Note_on_c, 0, 71, 80
2, 300672, Note_on_c, 0, 68, 80
2, 300672, Note_on_c, 0, 65, 80
2, 300860, Note_off_c, 0, 71, 100
2, 300860, Note_off_c, 0, 68, 100
2, 300860, Note_off_c, 0, 65, 100
2, 300960, Note_on_c, 0, 70, 80
2, 300960, Note_on_c, 0, 67, 80
2, 301052, Note_off_c, 0, 70, 100
2, 301052, Note_off_c, 0, 67, 100
2, 301056, Note_on_c, 0, 69, 80
2, 301244, Note_off_c, 0, 69, 100
2, 301344, Note_on_c, 0, 81, 80
2, 301344, Note_on_c, 0, 77, 80
2, 301436, Note_off_c, 0, 81, 100
2, 301436, Note_off_c, 0, 77, 100
2, 301440, Note_on_c, 0, 81, 80
2, 301440, Note_on_c, 0, 77, 80
2, 301724, Note_off_c, 0, 81, 100
2, 301724, Note_off_c, 0, 77, 100
2, 301728, Note_on_c, 0, 80, 80
2, 301728, Note_on_c, 0, 77, 80
2, 301820, Note_off_c, 0, 80, 100
2, 301820, Note_off_c, 0, 77, 100
2, 301824, Note_on_c, 0, 79, 80
2, 301824, Note_on_c, 0, 77, 80
2, 302012, Note_off_c, 0, 79, 100
2, 302012, Note_off_c, 0, 77, 100
2, 302112, Note_on_c, 0, 84, 80
2, 302112, Note_on_c, 0, 76, 80
2, 302204, Note_off_c, 0, 84, 100
2, 302204, Note_off_c, 0, 76, 100
2, 302208, Note_on_c, 0, 77, 80
2, 302588, Note_off_c, 0, 77, 100
2, 302880, Note_on_c, 0, 69, 80
2, 302880, Note_on_c, 0, 65, 80
2, 302972, Note_off_c, 0, 69, 100
2, 302972, Note_off_c, 0, 65, 100
2, 302976, Note_on_c, 0, 69, 80
2, 302976, Note_on_c, 0, 65, 80
2, 303260, Note_off_c, 0, 69, 100
2, 303260, Note_off_c, 0, 65, 100
2, 303264, Note_on_c, 0, 68, 80
2, 303264, Note_on_c, 0, 65, 80
2, 303356, Note_off_c, 0, 68, 100
2, 303356, Note_off_c, 0, 65, 100
2, 303360, Note_on_c, 0, 67, 80
2, 303360, Note_on_c, 0, 64, 80
2, 303548, Note_off_c, 0, 67, 100
2, 303548, Note_off_c, 0, 64, 100
2, 303648, Note_on_c, 0, 76, 80
2, 303648, Note_on_c, 0, 72, 80
2, 303740, Note_off_c, 0, 76, 100
2, 303740, Note_off_c, 0, 72, 100
2, 303744, Note_on_c, 0, 77, 80
2, 303744, Note_on_c, 0, 72, 80
2, 303932, Note_off_c, 0, 77, 100
2, 303932, Note_off_c, 0, 72, 100
2, 304032, Note_on_c, 0, 74, 80
2, 304124, Note_off_c, 0, 74, 100
2, 304128, Note_on_c, 0, 72, 80
2, 304316, Note_off_c, 0, 72, 100
2, 304416, Note_on_c, 0, 81, 110
2, 304416, Note_on_c, 0, 77, 110
2, 304416, Note_on_c, 0, 69, 110
2, 304508, Note_off_c, 0, 81, 100
2, 304508, Note_off_c, 0, 77, 100
2, 304508, Note_off_c, 0, 69, 100
2, 304512, Note_on_c, 0, 81, 110
2, 304512, Note_on_c, 0, 77, 110
2, 304512, Note_on_c, 0, 69, 110
2, 304796, Note_off_c, 0, 81, 100
2, 304796, Note_off_c, 0, 77, 100
2, 304796, Note_off_c, 0, 69, 100
2, 304800, Note_on_c, 0, 80, 110
2, 304800, Note_on_c, 0, 77, 110
2, 304800, Note_on_c, 0, 68, 110
2, 304892, Note_off_c, 0, 80, 100
2, 304892, Note_off_c, 0, 77, 100
2, 304892, Note_off_c, 0, 68, 100
2, 304896, Note_on_c, 0, 79, 110
2, 304896, Note_on_c, 0, 76, 110
2, 304896, Note_on_c, 0, 67, 110
2, 305084, Note_off_c, 0, 79, 100
2, 305084, Note_off_c, 0, 76, 100
2, 305084, Note_off_c, 0, 67, 100
2, 305184, Note_on_c, 0, 88, 110
2, 305184, Note_on_c, 0, 79, 110
2, 305184, Note_on_c, 0, 76, 110
2, 305276, Note_off_c, 0, 88, 100
2, 305276, Note_off_c, 0, 79, 100
2, 305276, Note_off_c, 0, 76, 100
2, 305280, Note_on_c, 0, 89, 110
2, 305280, Note_on_c, 0, 81, 110
2, 305280, Note_on_c, 0, 77, 110
2, 305660, Note_off_c, 0, 89, 100
2, 305660, Note_off_c, 0, 81, 100
2, 305660, Note_off_c, 0, 77, 100
2, 308352, Control_c, 0, 7, 0
2, 308736, Note_on_c, 0, 65, 1
2, 309116, Note_off_c, 0, 65, 100
2, 309116, End_track
3, 0, Start_track
3, 0, Title_t, "Left"
3, 0, Control_c, 1, 0, 0
3, 0, Program_c, 1, 0
3, 0, Control_c, 1, 7, 100
3, 0, Control_c, 1, 10, 56
3, 0, Control_c, 1, 91, 127
3, 0, Key_signature, -1, "major"
3, 288, Note_on_c, 1, 41, 110
3, 288, Note_on_c, 1, 29, 110
3, 380, Note_off_c, 1, 41, 100
3, 380, Note_off_c, 1, 29, 100
3, 384, Note_on_c, 1, 41, 110
3, 384, Note_on_c, 1, 29, 110
3, 572, Note_off_c, 1, 41, 100
3, 572, Note_off_c, 1, 29, 100
3, 672, Note_on_c, 1, 41, 110
3, 764, Note_off_c, 1, 41, 100
3, 768, Note_on_c, 1, 53, 110
3, 956, Note_off_c, 1, 53, 100
3, 1056, Note_on_c, 1, 53, 110
3, 1148, Note_off_c, 1, 53, 100
3, 1152, Note_on_c, 1, 65, 110
3, 1340, Note_off_c, 1, 65, 100
3, 1536, Note_on_c, 1, 41, 80
3, 1724, Note_off_c, 1, 41, 100
3, 1824, Note_on_c, 1, 41, 80
3, 1916, Note_off_c, 1, 41, 100
3, 1920, Note_on_c, 1, 40, 80
3, 2300, Note_off_c, 1, 40, 100
3, 2304, Note_on_c, 1, 64, 80
3, 2492, Note_off_c, 1, 64, 100
3, 2592, Note_on_c, 1, 64, 80
3, 2684, Note_off_c, 1, 64, 100
3, 2688, Note_on_c, 1, 63, 80
3, 3068, Note_off_c, 1, 63, 100
3, 3072, Note_on_c, 1, 39, 80
3, 3260, Note_off_c, 1, 39, 100
3, 3360, Note_on_c, 1, 39, 80
3, 3452, Note_off_c, 1, 39, 100
3, 3456, Note_on_c, 1, 38, 80
3, 3836, Note_off_c, 1, 38, 100
3, 3840, Note_on_c, 1, 62, 80
3, 4028, Note_off_c, 1, 62, 100
3, 4128, Note_on_c, 1, 62, 80
3, 4220, Note_off_c, 1, 62, 100
3, 4224, Note_on_c, 1, 61, 80
3, 4604, Note_off_c, 1, 61, 100
3, 4608, Note_on_c, 1, 37, 80
3, 4796, Note_off_c, 1, 37, 100
3, 4896, Note_on_c, 1, 37, 80
3, 4988, Note_off_c, 1, 37, 100
3, 4992, Note_on_c, 1, 36, 80
3, 5372, Note_off_c, 1, 36, 100
3, 5376, Note_on_c, 1, 67, 80
3, 5376, Note_on_c, 1, 60, 80
3, 5660, Note_off_c, 1, 67, 100
3, 5664, Note_on_c, 1, 65, 80
3, 5756, Note_off_c, 1, 65, 100
3, 5760, Note_on_c, 1, 64, 80
3, 6140, Note_off_c, 1, 64, 100
3, 6144, Note_on_c, 1, 65, 80
3, 6428, Note_off_c, 1, 65, 100
3, 6432, Note_on_c, 1, 69, 80
3, 6524, Note_off_c, 1, 69, 100
3, 6528, Note_on_c, 1, 70, 80
3, 6812, Note_off_c, 1, 70, 100
3, 6816, Note_on_c, 1, 67, 80
3, 6908, Note_off_c, 1, 60, 100
3, 6908, Note_off_c, 1, 67, 100
3, 6912, Note_on_c, 1, 69, 80
3, 7100, Note_off_c, 1, 69, 100
3, 7200, Note_on_c, 1, 65, 80
3, 7292, Note_off_c, 1, 65, 100
3, 7296, Note_on_c, 1, 64, 80
3, 7484, Note_off_c, 1, 64, 100
3, 7584, Note_on_c, 1, 63, 80
3, 7676, Note_off_c, 1, 63, 100
3, 7680, Note_on_c, 1, 62, 80
3, 7868, Note_off_c, 1, 62, 100
3, 7968, Note_on_c, 1, 61, 80
3, 8060, Note_off_c, 1, 61, 100
3, 8064, Note_on_c, 1, 48, 80
3, 8448, Note_on_c, 1, 55, 80
3, 8732, Note_off_c, 1, 55, 100
3, 8736, Note_on_c, 1, 53, 80
3, 8828, Note_off_c, 1, 53, 100
3, 8832, Note_on_c, 1, 52, 80
3, 9212, Note_off_c, 1, 52, 100
3, 9216, Note_on_c, 1, 53, 80
3, 9596, Note_off_c, 1, 48, 100
3, 9596, Note_off_c, 1, 53, 100
3, 9600, Note_on_c, 1, 52, 84
3, 9600, Note_on_c, 1, 46, 84
3, 9980, Note_off_c, 1, 52, 100
3, 9980, Note_off_c, 1, 46, 100
3, 9984, Note_on_c, 1, 53, 88
3, 9984, Note_on_c, 1, 45, 88
3, 10172, Note_off_c, 1, 53, 100
3, 10172, Note_off_c, 1, 45, 100
3, 10272, Note_on_c, 1, 54, 91
3, 10272, Note_on_c, 1, 44, 91
3, 10364, Note_off_c, 1, 54, 100
3, 10364, Note_off_c, 1, 44, 100
3, 10368, Note_on_c, 1, 55, 92
3, 10368, Note_on_c, 1, 43, 92
3, 10748, Note_off_c, 1, 55, 100
3, 10748, Note_off_c, 1, 43, 100
3, 10752, Note_on_c, 1, 54, 96
3, 10752, Note_on_c, 1, 42, 96
3, 10940, Note_off_c, 1, 54, 100
3, 10940, Note_off_c, 1, 42, 100
3, 11040, Note_on_c, 1, 54, 99
3, 11040, Note_on_c, 1, 42, 99
3, 11132, Note_off_c, 1, 54, 100
3, 11132, Note_off_c, 1, 42, 100
3, 11136, Note_on_c, 1, 55, 80
3, 11136, Note_on_c, 1, 43, 80
3, 11516, Note_off_c, 1, 55, 100
3, 11516, Note_off_c, 1, 43, 100
3, 11520, Note_on_c, 1, 43, 80
3, 11520, Note_on_c, 1, 31, 80
3, 11708, Note_off_c, 1, 43, 100
3, 11708, Note_off_c, 1, 31, 100
3, 11808, Note_on_c, 1, 43, 80
3, 11808, Note_on_c, 1, 31, 80
3, 11900, Note_off_c, 1, 43, 100
3, 11900, Note_off_c, 1, 31, 100
3, 11904, Note_on_c, 1, 48, 80
3, 11904, Note_on_c, 1, 36, 80
3, 12092, Note_off_c, 1, 48, 100
3, 12092, Note_off_c, 1, 36, 100
3, 12192, Note_on_c, 1, 46, 80
3, 12192, Note_on_c, 1, 33, 80
3, 12284, Note_off_c, 1, 46, 100
3, 12284, Note_off_c, 1, 33, 100
3, 12288, Note_on_c, 1, 43, 80
3, 12288, Note_on_c, 1, 31, 80
3, 12476, Note_off_c, 1, 43, 100
3, 12476, Note_off_c, 1, 31, 100
3, 12576, Note_on_c, 1, 41, 110
3, 12576, Note_on_c, 1, 29, 110
3, 12668, Note_off_c, 1, 41, 100
3, 12668, Note_off_c, 1, 29, 100
3, 12672, Note_on_c, 1, 41, 110
3, 12672, Note_on_c, 1, 29, 110
3, 12860, Note_off_c, 1, 41, 100
3, 12860, Note_off_c, 1, 29, 100
3, 12960, Note_on_c, 1, 41, 110
3, 13052, Note_off_c, 1, 41, 100
3, 13056, Note_on_c, 1, 53, 110
3, 13244, Note_off_c, 1, 53, 100
3, 13344, Note_on_c, 1, 53, 110
3, 13436, Note_off_c, 1, 53, 100
3, 13440, Note_on_c, 1, 65, 110
3, 13628, Note_off_c, 1, 65, 100
3, 13824, Note_on_c, 1, 41, 80
3, 14012, Note_off_c, 1, 41, 100
3, 14112, Note_on_c, 1, 41, 80
3, 14204, Note_off_c, 1, 41, 100
3, 14208, Note_on_c, 1, 40, 80
3, 14588, Note_off_c, 1, 40, 100
3, 14592, Note_on_c, 1, 64, 80
3, 14780, Note_off_c, 1, 64, 100
3, 14880, Note_on_c, 1, 64, 80
3, 14972, Note_off_c, 1, 64, 100
3, 14976, Note_on_c, 1, 63, 80
3, 15356, Note_off_c, 1, 63, 100
3, 15360, Note_on_c, 1, 39, 80
3, 15548, Note_off_c, 1, 39, 100
3, 15648, Note_on_c, 1, 39, 80
3, 15740, Note_off_c, 1, 39, 100
3, 15744, Note_on_c, 1, 38, 80
3, 16124, Note_off_c, 1, 38, 100
3, 16128, Note_on_c, 1, 62, 80
3, 16316, Note_off_c, 1, 62, 100
3, 16416, Note_on_c, 1, 62, 80
3, 16508, Note_off_c, 1, 62, 100
3, 16512, Note_on_c, 1, 61, 80
3, 16892, Note_off_c, 1, 61, 100
3, 16896, Note_on_c, 1, 37, 80
3, 17084, Note_off_c, 1, 37, 100
3, 17184, Note_on_c, 1, 37, 80
3, 17276, Note_off_c, 1, 37, 100
3, 17280, Note_on_c, 1, 36, 80
3, 17660, Note_off_c, 1, 36, 100
3, 17664, Note_on_c, 1, 67, 80
3, 17664, Note_on_c, 1, 60, 80
3, 17948, Note_off_c, 1, 67, 100
3, 17952, Note_on_c, 1, 65, 80
3, 18044, Note_off_c, 1, 65, 100
3, 18048, Note_on_c, 1, 64, 80
3, 18428, Note_off_c, 1, 64, 100
3, 18432, Note_on_c, 1, 65, 80
3, 18716, Note_off_c, 1, 65, 100
3, 18720, Note_on_c, 1, 69, 80
3, 18812, Note_off_c, 1, 69, 100
3, 18816, Note_on_c, 1, 70, 80
3, 19100, Note_off_c, 1, 70, 100
3, 19104, Note_on_c, 1, 67, 80
3, 19196, Note_off_c, 1, 60, 100
3, 19196, Note_off_c, 1, 67, 100
3, 19200, Note_on_c, 1, 69, 80
3, 19388, Note_off_c, 1, 69, 100
3, 19488, Note_on_c, 1, 65, 80
3, 19580, Note_off_c, 1, 65, 100
3, 19584, Note_on_c, 1, 64, 80
3, 19772, Note_off_c, 1, 64, 100
3, 19872, Note_on_c, 1, 63, 80
3, 19964, Note_off_c, 1, 63, 100
3, 19968, Note_on_c, 1, 62, 80
3, 20156, Note_off_c, 1, 62, 100
3, 20256, Note_on_c, 1, 61, 80
3, 20348, Note_off_c, 1, 61, 100
3, 20352, Note_on_c, 1, 48, 80
3, 20736, Note_on_c, 1, 55, 80
3, 21020, Note_off_c, 1, 55, 100
3, 21024, Note_on_c, 1, 53, 80
3, 21116, Note_off_c, 1, 53, 100
3, 21120, Note_on_c, 1, 52, 80
3, 21500, Note_off_c, 1, 52, 100
3, 21504, Note_on_c, 1, 53, 80
3, 21884, Note_off_c, 1, 48, 100
3, 21884, Note_off_c, 1, 53, 100
3, 21888, Note_on_c, 1, 52, 84
3, 21888, Note_on_c, 1, 46, 84
3, 22268, Note_off_c, 1, 52, 100
3, 22268, Note_off_c, 1, 46, 100
3, 22272, Note_on_c, 1, 53, 88
3, 22272, Note_on_c, 1, 45, 88
3, 22460, Note_off_c, 1, 53, 100
3, 22460, Note_off_c, 1, 45, 100
3, 22560, Note_on_c, 1, 54, 91
3, 22560, Note_on_c, 1, 44, 91
3, 22652, Note_off_c, 1, 54, 100
3, 22652, Note_off_c, 1, 44, 100
3, 22656, Note_on_c, 1, 55, 92
3, 22656, Note_on_c, 1, 43, 92
3, 23036, Note_off_c, 1, 55, 100
3, 23036, Note_off_c, 1, 43, 100
3, 23040, Note_on_c, 1, 54, 96
3, 23040, Note_on_c, 1, 42, 96
3, 23228, Note_off_c, 1, 54, 100
3, 23228, Note_off_c, 1, 42, 100
3, 23328, Note_on_c, 1, 54, 99
3, 23328, Note_on_c, 1, 42, 99
3, 23420, Note_off_c, 1, 54, 100
3, 23420, Note_off_c, 1, 42, 100
3, 23424, Note_on_c, 1, 55, 90
3, 23424, Note_on_c, 1, 43, 90
3, 23804, Note_off_c, 1, 55, 100
3, 23804, Note_off_c, 1, 43, 100
3, 23808, Note_on_c, 1, 43, 80
3, 23808, Note_on_c, 1, 31, 80
3, 23996, Note_off_c, 1, 43, 100
3, 23996, Note_off_c, 1, 31, 100
3, 24096, Note_on_c, 1, 43, 80
3, 24096, Note_on_c, 1, 31, 80
3, 24188, Note_off_c, 1, 43, 100
3, 24188, Note_off_c, 1, 31, 100
3, 24192, Note_on_c, 1, 48, 80
3, 24192, Note_on_c, 1, 36, 80
3, 24380, Note_off_c, 1, 48, 100
3, 24380, Note_off_c, 1, 36, 100
3, 24480, Note_on_c, 1, 46, 80
3, 24480, Note_on_c, 1, 33, 80
3, 24572, Note_off_c, 1, 46, 100
3, 24572, Note_off_c, 1, 33, 100
3, 24576, Note_on_c, 1, 43, 80
3, 24576, Note_on_c, 1, 31, 80
3, 24764, Note_off_c, 1, 43, 100
3, 24764, Note_off_c, 1, 31, 100
3, 24864, Note_on_c, 1, 67, 80
3, 24864, Note_on_c, 1, 55, 80
3, 24956, Note_off_c, 1, 67, 100
3, 24956, Note_off_c, 1, 55, 100
3, 24960, Note_on_c, 1, 67, 80
3, 24960, Note_on_c, 1, 55, 80
3, 25244, Note_off_c, 1, 67, 100
3, 25248, Note_on_c, 1, 66, 80
3, 25340, Note_off_c, 1, 66, 100
3, 25344, Note_on_c, 1, 65, 80
3, 25532, Note_off_c, 1, 65, 100
3, 25632, Note_on_c, 1, 65, 80
3, 25632, Note_on_c, 1, 55, 80
3, 25724, Note_off_c, 1, 55, 100
3, 25724, Note_off_c, 1, 65, 100
3, 25724, Note_off_c, 1, 55, 100
3, 25728, Note_on_c, 1, 64, 80
3, 25728, Note_on_c, 1, 60, 80
3, 26108, Note_off_c, 1, 64, 100
3, 26108, Note_off_c, 1, 60, 100
3, 26400, Note_on_c, 1, 57, 80
3, 26400, Note_on_c, 1, 53, 80
3, 26400, Note_on_c, 1, 48, 80
3, 26492, Note_off_c, 1, 57, 100
3, 26492, Note_off_c, 1, 53, 100
3, 26492, Note_off_c, 1, 48, 100
3, 26496, Note_on_c, 1, 53, 80
3, 26496, Note_on_c, 1, 48, 80
3, 26496, Note_on_c, 1, 57, 80
3, 26780, Note_off_c, 1, 57, 100
3, 26784, Note_on_c, 1, 56, 80
3, 26876, Note_off_c, 1, 53, 100
3, 26876, Note_off_c, 1, 48, 100
3, 26876, Note_off_c, 1, 56, 100
3, 26880, Note_on_c, 1, 55, 80
3, 26880, Note_on_c, 1, 52, 80
3, 26880, Note_on_c, 1, 48, 80
3, 27068, Note_off_c, 1, 55, 100
3, 27068, Note_off_c, 1, 52, 100
3, 27068, Note_off_c, 1, 48, 100
3, 27168, Note_on_c, 1, 60, 80
3, 27168, Note_on_c, 1, 55, 80
3, 27168, Note_on_c, 1, 48, 80
3, 27260, Note_off_c, 1, 60, 100
3, 27260, Note_off_c, 1, 55, 100
3, 27260, Note_off_c, 1, 48, 100
3, 27264, Note_on_c, 1, 53, 80
3, 27644, Note_off_c, 1, 53, 100
3, 27936, Note_on_c, 1, 72, 80
3, 28028, Note_off_c, 1, 72, 100
3, 28032, Note_on_c, 1, 60, 80
3, 28032, Note_on_c, 1, 72, 80
3, 28316, Note_off_c, 1, 72, 100
3, 28320, Note_on_c, 1, 71, 80
3, 28412, Note_off_c, 1, 71, 100
3, 28416, Note_on_c, 1, 70, 80
3, 28604, Note_off_c, 1, 60, 100
3, 28604, Note_off_c, 1, 70, 100
3, 28704, Note_on_c, 1, 60, 80
3, 28704, Note_on_c, 1, 48, 80
3, 28796, Note_off_c, 1, 60, 100
3, 28796, Note_off_c, 1, 48, 100
3, 28800, Note_on_c, 1, 65, 80
3, 28800, Note_on_c, 1, 53, 80
3, 28988, Note_off_c, 1, 65, 100
3, 28988, Note_off_c, 1, 53, 100
3, 29088, Note_on_c, 1, 53, 80
3, 29180, Note_off_c, 1, 53, 100
3, 29184, Note_on_c, 1, 41, 80
3, 29372, Note_off_c, 1, 41, 100
3, 29472, Note_on_c, 1, 45, 120
3, 29472, Note_on_c, 1, 33, 120
3, 29564, Note_off_c, 1, 45, 100
3, 29564, Note_off_c, 1, 33, 100
3, 29568, Note_on_c, 1, 45, 120
3, 29568, Note_on_c, 1, 33, 120
3, 29948, Note_off_c, 1, 45, 100
3, 29948, Note_off_c, 1, 33, 100
3, 30624, Note_on_c, 1, 64, 80
3, 30716, Note_off_c, 1, 64, 100
3, 30720, Note_on_c, 1, 71, 80
3, 31004, Note_off_c, 1, 71, 100
3, 31008, Note_on_c, 1, 74, 80
3, 31100, Note_off_c, 1, 74, 100
3, 31104, Note_on_c, 1, 74, 80
3, 31484, Note_off_c, 1, 74, 100
3, 31488, Note_on_c, 1, 73, 80
3, 31868, Note_off_c, 1, 73, 100
3, 32160, Note_on_c, 1, 52, 80
3, 32252, Note_off_c, 1, 52, 100
3, 32256, Note_on_c, 1, 59, 80
3, 32540, Note_off_c, 1, 59, 100
3, 32544, Note_on_c, 1, 62, 80
3, 32636, Note_off_c, 1, 62, 100
3, 32640, Note_on_c, 1, 62, 80
3, 33020, Note_off_c, 1, 62, 100
3, 33024, Note_on_c, 1, 61, 81
3, 33404, Note_off_c, 1, 61, 100
3, 33696, Note_on_c, 1, 70, 88
3, 33696, Note_on_c, 1, 67, 88
3, 33788, Note_off_c, 1, 70, 100
3, 33788, Note_off_c, 1, 67, 100
3, 33792, Note_on_c, 1, 69, 89
3, 33792, Note_on_c, 1, 65, 89
3, 33980, Note_off_c, 1, 69, 100
3, 33980, Note_off_c, 1, 65, 100
3, 34080, Note_on_c, 1, 67, 92
3, 34080, Note_on_c, 1, 64, 92
3, 34172, Note_off_c, 1, 67, 100
3, 34172, Note_off_c, 1, 64, 100
3, 34176, Note_on_c, 1, 67, 93
3, 34176, Note_on_c, 1, 64, 93
3, 34556, Note_off_c, 1, 67, 100
3, 34556, Note_off_c, 1, 64, 100
3, 34560, Note_on_c, 1, 57, 98
3, 34560, Note_on_c, 1, 45, 98
3, 34940, Note_off_c, 1, 57, 100
3, 34940, Note_off_c, 1, 45, 100
3, 35328, Note_on_c, 1, 61, 106
3, 35708, Note_off_c, 1, 61, 100
3, 35712, Note_on_c, 1, 62, 110
3, 35900, Note_off_c, 1, 62, 100
3, 36000, Note_on_c, 1, 57, 110
3, 36092, Note_off_c, 1, 57, 100
3, 36096, Note_on_c, 1, 62, 110
3, 36284, Note_off_c, 1, 62, 100
3, 36384, Note_on_c, 1, 53, 110
3, 36476, Note_off_c, 1, 53, 100
3, 36480, Note_on_c, 1, 57, 110
3, 36668, Note_off_c, 1, 57, 100
3, 36768, Note_on_c, 1, 50, 110
3, 36860, Note_off_c, 1, 50, 100
3, 36864, Note_on_c, 1, 57, 110
3, 37052, Note_off_c, 1, 57, 100
3, 37152, Note_on_c, 1, 48, 110
3, 37244, Note_off_c, 1, 48, 100
3, 37248, Note_on_c, 1, 55, 110
3, 37248, Note_on_c, 1, 47, 110
3, 37628, Note_off_c, 1, 55, 100
3, 37628, Note_off_c, 1, 47, 100
3, 37632, Note_on_c, 1, 43, 110
3, 37632, Note_on_c, 1, 31, 110
3, 38012, Note_off_c, 1, 43, 100
3, 38012, Note_off_c, 1, 31, 100
3, 38400, Note_on_c, 1, 59, 110
3, 38780, Note_off_c, 1, 59, 100
3, 38784, Note_on_c, 1, 60, 110
3, 38972, Note_off_c, 1, 60, 100
3, 39072, Note_on_c, 1, 55, 110
3, 39164, Note_off_c, 1, 55, 100
3, 39168, Note_on_c, 1, 60, 110
3, 39356, Note_off_c, 1, 60, 100
3, 39456, Note_on_c, 1, 53, 110
3, 39548, Note_off_c, 1, 53, 100
3, 39552, Note_on_c, 1, 57, 110
3, 39740, Note_off_c, 1, 57, 100
3, 39840, Note_on_c, 1, 50, 110
3, 39932, Note_off_c, 1, 50, 100
3, 39936, Note_on_c, 1, 53, 110
3, 40124, Note_off_c, 1, 53, 100
3, 40224, Note_on_c, 1, 41, 110
3, 40316, Note_off_c, 1, 41, 100
3, 40320, Note_on_c, 1, 52, 110
3, 40320, Note_on_c, 1, 40, 110
3, 40700, Note_off_c, 1, 52, 100
3, 40700, Note_off_c, 1, 40, 100
3, 41376, Note_on_c, 1, 57, 80
3, 41468, Note_off_c, 1, 57, 100
3, 41472, Note_on_c, 1, 62, 80
3, 41472, Note_on_c, 1, 58, 80
3, 41756, Note_off_c, 1, 62, 100
3, 41760, Note_on_c, 1, 65, 80
3, 41760, Note_on_c, 1, 57, 80
3, 41852, Note_off_c, 1, 58, 100
3, 41852, Note_off_c, 1, 65, 100
3, 41852, Note_off_c, 1, 57, 100
3, 41856, Note_on_c, 1, 59, 80
3, 41856, Note_on_c, 1, 56, 80
3, 42236, Note_off_c, 1, 59, 100
3, 42236, Note_off_c, 1, 56, 100
3, 42912, Note_on_c, 1, 57, 80
3, 43004, Note_off_c, 1, 57, 100
3, 43008, Note_on_c, 1, 57, 80
3, 43008, Note_on_c, 1, 61, 80
3, 43292, Note_off_c, 1, 57, 100
3, 43292, Note_off_c, 1, 61, 100
3, 43296, Note_on_c, 1, 64, 80
3, 43296, Note_on_c, 1, 55, 80
3, 43388, Note_off_c, 1, 64, 100
3, 43388, Note_off_c, 1, 55, 100
3, 43392, Note_on_c, 1, 57, 80
3, 43392, Note_on_c, 1, 53, 80
3, 43580, Note_off_c, 1, 57, 100
3, 43580, Note_off_c, 1, 53, 100
3, 43680, Note_on_c, 1, 64, 80
3, 43680, Note_on_c, 1, 67, 80
3, 43772, Note_off_c, 1, 64, 100
3, 43772, Note_off_c, 1, 67, 100
3, 43776, Note_on_c, 1, 70, 80
3, 43776, Note_on_c, 1, 67, 80
3, 44060, Note_off_c, 1, 70, 100
3, 44060, Note_off_c, 1, 67, 100
3, 44064, Note_on_c, 1, 69, 80
3, 44064, Note_on_c, 1, 65, 80
3, 44156, Note_off_c, 1, 69, 100
3, 44156, Note_off_c, 1, 65, 100
3, 44160, Note_on_c, 1, 69, 80
3, 44160, Note_on_c, 1, 65, 80
3, 45212, Note_off_c, 1, 65, 100
3, 45212, Note_off_c, 1, 69, 100
3, 45216, Note_on_c, 1, 65, 80
3, 45216, Note_on_c, 1, 62, 80
3, 45308, Note_off_c, 1, 65, 100
3, 45308, Note_off_c, 1, 62, 100
3, 45312, Note_on_c, 1, 65, 80
3, 45312, Note_on_c, 1, 69, 80
3, 45596, Note_off_c, 1, 65, 100
3, 45596, Note_off_c, 1, 69, 100
3, 45600, Note_on_c, 1, 67, 80
3, 45600, Note_on_c, 1, 64, 80
3, 45692, Note_off_c, 1, 67, 100
3, 45692, Note_off_c, 1, 64, 100
3, 45696, Note_on_c, 1, 64, 80
3, 45696, Note_on_c, 1, 67, 80
3, 46460, Note_off_c, 1, 64, 100
3, 46460, Note_off_c, 1, 67, 100
3, 46464, Note_on_c, 1, 65, 80
3, 46464, Note_on_c, 1, 62, 80
3, 46652, Note_off_c, 1, 65, 100
3, 46652, Note_off_c, 1, 62, 100
3, 46752, Note_on_c, 1, 38, 80
3, 46844, Note_off_c, 1, 38, 100
3, 46848, Note_on_c, 1, 41, 80
3, 47132, Note_off_c, 1, 41, 100
3, 47136, Note_on_c, 1, 39, 80
3, 47228, Note_off_c, 1, 39, 100
3, 47232, Note_on_c, 1, 39, 80
3, 48284, Note_off_c, 1, 39, 100
3, 48288, Note_on_c, 1, 36, 80
3, 48380, Note_off_c, 1, 36, 100
3, 48384, Note_on_c, 1, 39, 80
3, 48668, Note_off_c, 1, 39, 100
3, 48672, Note_on_c, 1, 38, 80
3, 48764, Note_off_c, 1, 38, 100
3, 48768, Note_on_c, 1, 38, 80
3, 49148, Note_off_c, 1, 38, 100
3, 49152, Note_on_c, 1, 34, 80
3, 49532, Note_off_c, 1, 34, 100
3, 49536, Note_on_c, 1, 33, 80
3, 49916, Note_off_c, 1, 33, 100
3, 49920, Note_on_c, 1, 38, 80
3, 50108, Note_off_c, 1, 38, 100
3, 50112, Note_on_c, 1, 32, 80
3, 50300, Note_off_c, 1, 32, 100
3, 50304, Note_on_c, 1, 31, 80
3, 50684, Note_off_c, 1, 31, 100
3, 50688, Note_on_c, 1, 38, 80
3, 51356, Note_off_c, 1, 38, 100
3, 51360, Note_on_c, 1, 34, 80
3, 51452, Note_off_c, 1, 34, 100
3, 51456, Note_on_c, 1, 37, 80
3, 51740, Note_off_c, 1, 37, 100
3, 51744, Note_on_c, 1, 36, 80
3, 51836, Note_off_c, 1, 36, 100
3, 51840, Note_on_c, 1, 36, 80
3, 52892, Note_off_c, 1, 36, 100
3, 52896, Note_on_c, 1, 33, 80
3, 52988, Note_off_c, 1, 33, 100
3, 52992, Note_on_c, 1, 36, 80
3, 53276, Note_off_c, 1, 36, 100
3, 53280, Note_on_c, 1, 34, 80
3, 53372, Note_off_c, 1, 34, 100
3, 53376, Note_on_c, 1, 34, 80
3, 54140, Note_off_c, 1, 34, 100
3, 54144, Note_on_c, 1, 32, 80
3, 54524, Note_off_c, 1, 32, 100
3, 54528, Note_on_c, 1, 37, 80
3, 54908, Note_off_c, 1, 37, 100
3, 54912, Note_on_c, 1, 31, 80
3, 55292, Note_off_c, 1, 31, 100
3, 55296, Note_on_c, 1, 36, 80
3, 55676, Note_off_c, 1, 36, 100
3, 55680, Note_on_c, 1, 29, 80
3, 55968, Note_on_c, 1, 51, 80
3, 56060, Note_off_c, 1, 29, 100
3, 56060, Note_off_c, 1, 51, 100
3, 56064, Note_on_c, 1, 46, 80
3, 56064, Note_on_c, 1, 54, 80
3, 56348, Note_off_c, 1, 54, 100
3, 56352, Note_on_c, 1, 53, 80
3, 56444, Note_off_c, 1, 46, 100
3, 56444, Note_off_c, 1, 53, 100
3, 56448, Note_on_c, 1, 39, 80
3, 56736, Note_on_c, 1, 51, 80
3, 56828, Note_off_c, 1, 39, 100
3, 56828, Note_off_c, 1, 51, 100
3, 56832, Note_on_c, 1, 44, 80
3, 56832, Note_on_c, 1, 54, 80
3, 57116, Note_off_c, 1, 54, 100
3, 57120, Note_on_c, 1, 53, 80
3, 57212, Note_off_c, 1, 44, 100
3, 57212, Note_off_c, 1, 53, 100
3, 57216, Control_c, 1, 64, 127
3, 57216, Note_on_c, 1, 37, 80
3, 57504, Note_on_c, 1, 61, 80
3, 57596, Note_off_c, 1, 37, 100
3, 57596, Note_off_c, 1, 61, 100
3, 57600, Note_on_c, 1, 65, 80
3, 57884, Note_off_c, 1, 65, 100
3, 57888, Note_on_c, 1, 68, 80
3, 57980, Note_off_c, 1, 68, 100
3, 57984, Note_on_c, 1, 68, 80
3, 58364, Note_off_c, 1, 68, 100
3, 58368, Note_on_c, 1, 70, 80
3, 58748, Note_off_c, 1, 70, 100
3, 59040, Note_on_c, 1, 63, 80
3, 59136, Note_on_c, 1, 66, 80
3, 59324, Note_off_c, 1, 63, 100
3, 59424, Note_on_c, 1, 70, 80
3, 59516, Note_off_c, 1, 66, 100
3, 59520, Note_on_c, 1, 70, 80
3, 59804, Note_off_c, 1, 70, 100
3, 59904, Note_on_c, 1, 72, 80
3, 60092, Note_off_c, 1, 70, 100
3, 60476, Note_off_c, 1, 72, 100
3, 60576, Note_on_c, 1, 65, 80
3, 60672, Note_on_c, 1, 68, 80
3, 60860, Note_off_c, 1, 65, 100
3, 60952, Note_on_c, 1, 72, 80
3, 61052, Note_off_c, 1, 68, 100
3, 61056, Note_on_c, 1, 72, 80
3, 61140, Note_off_c, 1, 72, 100
3, 61440, Note_on_c, 1, 73, 80
3, 61628, Note_off_c, 1, 72, 100
3, 62204, Note_off_c, 1, 73, 100
3, 62592, Note_on_c, 1, 49, 70
3, 62592, Note_on_c, 1, 37, 70
3, 63352, Control_c, 1, 64, 0
3, 63356, Note_off_c, 1, 49, 100
3, 63356, Note_off_c, 1, 37, 100
3, 63360, Note_on_c, 1, 48, 70
3, 63360, Note_on_c, 1, 36, 70
3, 64124, Note_off_c, 1, 48, 100
3, 64124, Note_off_c, 1, 36, 100
3, 64128, Note_on_c, 1, 49, 70
3, 64128, Note_on_c, 1, 37, 70
3, 64892, Note_off_c, 1, 49, 100
3, 64892, Note_off_c, 1, 37, 100
3, 64896, Note_on_c, 1, 48, 70
3, 64896, Note_on_c, 1, 36, 70
3, 65660, Note_off_c, 1, 48, 100
3, 65660, Note_off_c, 1, 36, 100
3, 65664, Note_on_c, 1, 49, 70
3, 65664, Note_on_c, 1, 37, 70
3, 66428, Note_off_c, 1, 49, 100
3, 66428, Note_off_c, 1, 37, 100
3, 66432, Note_on_c, 1, 36, 70
3, 66556, Note_off_c, 1, 36, 100
3, 66560, Note_on_c, 1, 48, 70
3, 66684, Note_off_c, 1, 48, 100
3, 66688, Note_on_c, 1, 36, 71
3, 66812, Note_off_c, 1, 36, 100
3, 66816, Note_on_c, 1, 48, 72
3, 66940, Note_off_c, 1, 48, 100
3, 66944, Note_on_c, 1, 36, 73
3, 67068, Note_off_c, 1, 36, 100
3, 67072, Note_on_c, 1, 48, 74
3, 67196, Note_off_c, 1, 48, 100
3, 67200, Note_on_c, 1, 36, 75
3, 67324, Note_off_c, 1, 36, 100
3, 67328, Note_on_c, 1, 48, 75
3, 67452, Note_off_c, 1, 48, 100
3, 67456, Note_on_c, 1, 36, 76
3, 67580, Note_off_c, 1, 36, 100
3, 67584, Note_on_c, 1, 48, 77
3, 67708, Note_off_c, 1, 48, 100
3, 67712, Note_on_c, 1, 36, 78
3, 67836, Note_off_c, 1, 36, 100
3, 67840, Note_on_c, 1, 48, 79
3, 67964, Note_off_c, 1, 48, 100
3, 67968, Note_on_c, 1, 36, 80
3, 68092, Note_off_c, 1, 36, 100
3, 68096, Note_on_c, 1, 48, 80
3, 68220, Note_off_c, 1, 48, 100
3, 68224, Note_on_c, 1, 36, 81
3, 68348, Note_off_c, 1, 36, 100
3, 68352, Note_on_c, 1, 48, 82
3, 68476, Note_off_c, 1, 48, 100
3, 68480, Note_on_c, 1, 36, 83
3, 68604, Note_off_c, 1, 36, 100
3, 68608, Note_on_c, 1, 48, 84
3, 68732, Note_off_c, 1, 48, 100
3, 68736, Note_on_c, 1, 36, 85
3, 68860, Note_off_c, 1, 36, 100
3, 68864, Note_on_c, 1, 48, 86
3, 68988, Note_off_c, 1, 48, 100
3, 68992, Note_on_c, 1, 36, 86
3, 69116, Note_off_c, 1, 36, 100
3, 69120, Note_on_c, 1, 48, 87
3, 69244, Note_off_c, 1, 48, 100
3, 69248, Note_on_c, 1, 36, 88
3, 69372, Note_off_c, 1, 36, 100
3, 69376, Note_on_c, 1, 48, 89
3, 69500, Note_off_c, 1, 48, 100
3, 69504, Note_on_c, 1, 48, 90
3, 69628, Note_off_c, 1, 48, 100
3, 69632, Note_on_c, 1, 60, 91
3, 69756, Note_off_c, 1, 60, 100
3, 69760, Note_on_c, 1, 48, 91
3, 69884, Note_off_c, 1, 48, 100
3, 69888, Note_on_c, 1, 60, 92
3, 70012, Note_off_c, 1, 60, 100
3, 70016, Note_on_c, 1, 48, 93
3, 70140, Note_off_c, 1, 48, 100
3, 70144, Note_on_c, 1, 60, 94
3, 70268, Note_off_c, 1, 60, 100
3, 70272, Note_on_c, 1, 48, 95
3, 70396, Note_off_c, 1, 48, 100
3, 70400, Note_on_c, 1, 60, 96
3, 70524, Note_off_c, 1, 60, 100
3, 70528, Note_on_c, 1, 48, 97
3, 70652, Note_off_c, 1, 48, 100
3, 70656, Note_on_c, 1, 60, 97
3, 70780, Note_off_c, 1, 60, 100
3, 70784, Note_on_c, 1, 48, 98
3, 70908, Note_off_c, 1, 48, 100
3, 70912, Note_on_c, 1, 60, 99
3, 71036, Note_off_c, 1, 60, 100
3, 71040, Note_on_c, 1, 60, 100
3, 71164, Note_off_c, 1, 60, 100
3, 71168, Note_on_c, 1, 70, 101
3, 71292, Note_off_c, 1, 70, 100
3, 71296, Note_on_c, 1, 67, 102
3, 71420, Note_off_c, 1, 67, 100
3, 71424, Note_on_c, 1, 69, 102
3, 71548, Note_off_c, 1, 69, 100
3, 71552, Note_on_c, 1, 60, 103
3, 71676, Note_off_c, 1, 60, 100
3, 71680, Note_on_c, 1, 72, 104
3, 71804, Note_off_c, 1, 72, 100
3, 71808, Note_on_c, 1, 64, 105
3, 71932, Note_off_c, 1, 64, 100
3, 71936, Note_on_c, 1, 60, 106
3, 72060, Note_off_c, 1, 60, 100
3, 72064, Note_on_c, 1, 67, 107
3, 72188, Note_off_c, 1, 67, 100
3, 72192, Note_on_c, 1, 62, 108
3, 72316, Note_off_c, 1, 62, 100
3, 72320, Note_on_c, 1, 60, 108
3, 72444, Note_off_c, 1, 60, 100
3, 72448, Note_on_c, 1, 65, 109
3, 72572, Note_off_c, 1, 65, 100
3, 72576, Note_on_c, 1, 48, 110
3, 72576, Note_on_c, 1, 36, 110
3, 72956, Note_off_c, 1, 48, 100
3, 72956, Note_off_c, 1, 36, 100
3, 72960, Note_on_c, 1, 58, 110
3, 73628, Note_off_c, 1, 58, 100
3, 73632, Note_on_c, 1, 55, 110
3, 73724, Note_off_c, 1, 55, 100
3, 73728, Note_on_c, 1, 57, 110
3, 74012, Note_off_c, 1, 57, 100
3, 74016, Note_on_c, 1, 60, 110
3, 74108, Note_off_c, 1, 60, 100
3, 74112, Note_on_c, 1, 57, 110
3, 74396, Note_off_c, 1, 57, 100
3, 74400, Note_on_c, 1, 53, 110
3, 74492, Note_off_c, 1, 53, 100
3, 74496, Note_on_c, 1, 55, 110
3, 74780, Note_off_c, 1, 55, 100
3, 74784, Note_on_c, 1, 58, 110
3, 74876, Note_off_c, 1, 58, 100
3, 74880, Note_on_c, 1, 55, 110
3, 75164, Note_off_c, 1, 55, 100
3, 75168, Note_on_c, 1, 52, 110
3, 75260, Note_off_c, 1, 52, 100
3, 75264, Note_on_c, 1, 53, 110
3, 75548, Note_off_c, 1, 53, 100
3, 75552, Note_on_c, 1, 57, 110
3, 75644, Note_off_c, 1, 57, 100
3, 75648, Note_on_c, 1, 50, 110
3, 75932, Note_off_c, 1, 50, 100
3, 75936, Note_on_c, 1, 47, 110
3, 76028, Note_off_c, 1, 47, 100
3, 76032, Note_on_c, 1, 48, 110
3, 76316, Note_off_c, 1, 48, 100
3, 76320, Note_on_c, 1, 51, 110
3, 76412, Note_off_c, 1, 51, 100
3, 76416, Note_on_c, 1, 48, 110
3, 76700, Note_off_c, 1, 48, 100
3, 76704, Note_on_c, 1, 45, 110
3, 76796, Note_off_c, 1, 45, 100
3, 76800, Note_on_c, 1, 46, 110
3, 77084, Note_off_c, 1, 46, 100
3, 77088, Note_on_c, 1, 50, 110
3, 77180, Note_off_c, 1, 50, 100
3, 77184, Note_on_c, 1, 46, 110
3, 77468, Note_off_c, 1, 46, 100
3, 77472, Note_on_c, 1, 43, 110
3, 77564, Note_off_c, 1, 43, 100
3, 77568, Note_on_c, 1, 45, 110
3, 77852, Note_off_c, 1, 45, 100
3, 77856, Note_on_c, 1, 46, 110
3, 77948, Note_off_c, 1, 46, 100
3, 77952, Note_on_c, 1, 48, 110
3, 78236, Note_off_c, 1, 48, 100
3, 78240, Note_on_c, 1, 60, 110
3, 78332, Note_off_c, 1, 60, 100
3, 78336, Note_on_c, 1, 60, 110
3, 78524, Note_off_c, 1, 60, 100
3, 78624, Note_on_c, 1, 48, 110
3, 78716, Note_off_c, 1, 48, 100
3, 78720, Note_on_c, 1, 41, 95
3, 79100, Note_off_c, 1, 41, 100
3, 79104, Note_on_c, 1, 89, 80
3, 79776, Note_on_c, 1, 88, 80
3, 79868, Note_off_c, 1, 89, 100
3, 79868, Note_off_c, 1, 88, 100
3, 79872, Note_on_c, 1, 86, 80
3, 80156, Note_off_c, 1, 86, 100
3, 80160, Note_on_c, 1, 84, 80
3, 80252, Note_off_c, 1, 84, 100
3, 80256, Note_on_c, 1, 84, 80
3, 80636, Note_off_c, 1, 84, 100
3, 80640, Note_on_c, 1, 41, 80
3, 80640, Note_on_c, 1, 29, 80
3, 80924, Note_off_c, 1, 41, 100
3, 80924, Note_off_c, 1, 29, 100
3, 80928, Note_on_c, 1, 43, 83
3, 80928, Note_on_c, 1, 31, 83
3, 81020, Note_off_c, 1, 43, 100
3, 81020, Note_off_c, 1, 31, 100
3, 81024, Note_on_c, 1, 45, 84
3, 81024, Note_on_c, 1, 33, 84
3, 81308, Note_off_c, 1, 45, 100
3, 81308, Note_off_c, 1, 33, 100
3, 81312, Note_on_c, 1, 46, 87
3, 81312, Note_on_c, 1, 34, 87
3, 81404, Note_off_c, 1, 46, 100
3, 81404, Note_off_c, 1, 34, 100
3, 81408, Note_on_c, 1, 48, 88
3, 81408, Note_on_c, 1, 36, 88
3, 81692, Note_off_c, 1, 48, 100
3, 81692, Note_off_c, 1, 36, 100
3, 81696, Note_on_c, 1, 50, 91
3, 81696, Note_on_c, 1, 38, 91
3, 81788, Note_off_c, 1, 50, 100
3, 81788, Note_off_c, 1, 38, 100
3, 81792, Note_on_c, 1, 52, 92
3, 81792, Note_on_c, 1, 40, 92
3, 82076, Note_off_c, 1, 52, 100
3, 82076, Note_off_c, 1, 40, 100
3, 82080, Note_on_c, 1, 53, 96
3, 82080, Note_on_c, 1, 41, 96
3, 82172, Note_off_c, 1, 53, 100
3, 82172, Note_off_c, 1, 41, 100
3, 82176, Note_on_c, 1, 55, 97
3, 82176, Note_on_c, 1, 43, 97
3, 82460, Note_off_c, 1, 55, 100
3, 82460, Note_off_c, 1, 43, 100
3, 82464, Note_on_c, 1, 57, 100
3, 82464, Note_on_c, 1, 45, 100
3, 82556, Note_off_c, 1, 57, 100
3, 82556, Note_off_c, 1, 45, 100
3, 82560, Note_on_c, 1, 58, 101
3, 82560, Note_on_c, 1, 46, 101
3, 82844, Note_off_c, 1, 58, 100
3, 82844, Note_off_c, 1, 46, 100
3, 82848, Note_on_c, 1, 59, 104
3, 82848, Note_on_c, 1, 47, 104
3, 82940, Note_off_c, 1, 59, 100
3, 82940, Note_off_c, 1, 47, 100
3, 82944, Note_on_c, 1, 60, 105
3, 82944, Note_on_c, 1, 48, 105
3, 83228, Note_off_c, 1, 60, 100
3, 83228, Note_off_c, 1, 48, 100
3, 83232, Note_on_c, 1, 48, 108
3, 83232, Note_on_c, 1, 36, 108
3, 83324, Note_off_c, 1, 48, 100
3, 83324, Note_off_c, 1, 36, 100
3, 83328, Note_on_c, 1, 41, 109
3, 83328, Note_on_c, 1, 29, 109
3, 83708, Note_off_c, 1, 41, 100
3, 83708, Note_off_c, 1, 29, 100
3, 83712, Note_on_c, 1, 89, 80
3, 84384, Note_on_c, 1, 88, 80
3, 84476, Note_off_c, 1, 89, 100
3, 84476, Note_off_c, 1, 88, 100
3, 84480, Note_on_c, 1, 86, 80
3, 84764, Note_off_c, 1, 86, 100
3, 84768, Note_on_c, 1, 84, 80
3, 84860, Note_off_c, 1, 84, 100
3, 84864, Note_on_c, 1, 84, 80
3, 85244, Note_off_c, 1, 84, 100
3, 85248, Note_on_c, 1, 29, 80
3, 85340, Note_off_c, 1, 29, 100
3, 85344, Note_on_c, 1, 41, 81
3, 85436, Note_off_c, 1, 41, 100
3, 85440, Note_on_c, 1, 31, 82
3, 85532, Note_off_c, 1, 31, 100
3, 85536, Note_on_c, 1, 43, 83
3, 85628, Note_off_c, 1, 43, 100
3, 85632, Note_on_c, 1, 33, 84
3, 85724, Note_off_c, 1, 33, 100
3, 85728, Note_on_c, 1, 45, 85
3, 85820, Note_off_c, 1, 45, 100
3, 85824, Note_on_c, 1, 34, 86
3, 85916, Note_off_c, 1, 34, 100
3, 85920, Note_on_c, 1, 46, 87
3, 86012, Note_off_c, 1, 46, 100
3, 86016, Note_on_c, 1, 36, 88
3, 86108, Note_off_c, 1, 36, 100
3, 86112, Note_on_c, 1, 48, 89
3, 86204, Note_off_c, 1, 48, 100
3, 86208, Note_on_c, 1, 38, 91
3, 86300, Note_off_c, 1, 38, 100
3, 86304, Note_on_c, 1, 50, 92
3, 86396, Note_off_c, 1, 50, 100
3, 86400, Note_on_c, 1, 40, 93
3, 86492, Note_off_c, 1, 40, 100
3, 86496, Note_on_c, 1, 52, 94
3, 86588, Note_off_c, 1, 52, 100
3, 86592, Note_on_c, 1, 41, 95
3, 86684, Note_off_c, 1, 41, 100
3, 86688, Note_on_c, 1, 53, 96
3, 86780, Note_off_c, 1, 53, 100
3, 86784, Note_on_c, 1, 43, 97
3, 86876, Note_off_c, 1, 43, 100
3, 86880, Note_on_c, 1, 55, 98
3, 86972, Note_off_c, 1, 55, 100
3, 86976, Note_on_c, 1, 45, 99
3, 87068, Note_off_c, 1, 45, 100
3, 87072, Note_on_c, 1, 57, 101
3, 87164, Note_off_c, 1, 57, 100
3, 87168, Note_on_c, 1, 46, 102
3, 87260, Note_off_c, 1, 46, 100
3, 87264, Note_on_c, 1, 58, 103
3, 87356, Note_off_c, 1, 58, 100
3, 87360, Note_on_c, 1, 47, 104
3, 87452, Note_off_c, 1, 47, 100
3, 87456, Note_on_c, 1, 59, 105
3, 87548, Note_off_c, 1, 59, 100
3, 87552, Note_on_c, 1, 48, 106
3, 87644, Note_off_c, 1, 48, 100
3, 87648, Note_on_c, 1, 60, 107
3, 87740, Note_off_c, 1, 60, 100
3, 87744, Note_on_c, 1, 46, 108
3, 87836, Note_off_c, 1, 46, 100
3, 87840, Note_on_c, 1, 58, 109
3, 87932, Note_off_c, 1, 58, 100
3, 87936, Note_on_c, 1, 57, 120
3, 87936, Note_on_c, 1, 45, 120
3, 88700, Note_off_c, 1, 57, 100
3, 88700, Note_off_c, 1, 45, 100
3, 88704, Note_on_c, 1, 63, 120
3, 88704, Note_on_c, 1, 60, 120
3, 88704, Note_on_c, 1, 57, 120
3, 89468, Note_off_c, 1, 63, 100
3, 89468, Note_off_c, 1, 60, 100
3, 89468, Note_off_c, 1, 57, 100
3, 89472, Note_on_c, 1, 62, 80
3, 89472, Note_on_c, 1, 58, 80
3, 89660, Note_off_c, 1, 62, 100
3, 89660, Note_off_c, 1, 58, 100
3, 89760, Note_on_c, 1, 58, 80
3, 89852, Note_off_c, 1, 58, 100
3, 89856, Note_on_c, 1, 60, 80
3, 90044, Note_off_c, 1, 60, 100
3, 90144, Note_on_c, 1, 60, 80
3, 90236, Note_off_c, 1, 60, 100
3, 90240, Note_on_c, 1, 62, 80
3, 90428, Note_off_c, 1, 62, 100
3, 90528, Note_on_c, 1, 64, 80
3, 90620, Note_off_c, 1, 64, 100
3, 90624, Note_on_c, 1, 65, 80
3, 90812, Note_off_c, 1, 65, 100
3, 90912, Note_on_c, 1, 72, 80
3, 90912, Note_on_c, 1, 60, 80
3, 91004, Note_off_c, 1, 72, 100
3, 91004, Note_off_c, 1, 60, 100
3, 91008, Note_on_c, 1, 72, 80
3, 91292, Note_off_c, 1, 72, 100
3, 91296, Note_on_c, 1, 71, 80
3, 91388, Note_off_c, 1, 71, 100
3, 91392, Note_on_c, 1, 70, 80
3, 91392, Note_on_c, 1, 60, 80
3, 91580, Note_off_c, 1, 70, 100
3, 91580, Note_off_c, 1, 60, 100
3, 91680, Note_on_c, 1, 70, 80
3, 91680, Note_on_c, 1, 60, 80
3, 91772, Note_off_c, 1, 70, 100
3, 91772, Note_off_c, 1, 60, 100
3, 91776, Note_on_c, 1, 69, 80
3, 91776, Note_on_c, 1, 65, 80
3, 91964, Note_off_c, 1, 69, 100
3, 91964, Note_off_c, 1, 65, 100
3, 92064, Note_on_c, 1, 62, 80
3, 92156, Note_off_c, 1, 62, 100
3, 92160, Note_on_c, 1, 60, 80
3, 92348, Note_off_c, 1, 60, 100
3, 92448, Note_on_c, 1, 60, 80
3, 92448, Note_on_c, 1, 48, 80
3, 92540, Note_off_c, 1, 60, 100
3, 92540, Note_off_c, 1, 48, 100
3, 92544, Note_on_c, 1, 60, 80
3, 92544, Note_on_c, 1, 48, 80
3, 92828, Note_off_c, 1, 60, 100
3, 92832, Note_on_c, 1, 59, 80
3, 92924, Note_off_c, 1, 48, 100
3, 92924, Note_off_c, 1, 59, 100
3, 92928, Note_on_c, 1, 58, 80
3, 92928, Note_on_c, 1, 48, 80
3, 93116, Note_off_c, 1, 58, 100
3, 93116, Note_off_c, 1, 48, 100
3, 93216, Note_on_c, 1, 58, 80
3, 93216, Note_on_c, 1, 48, 80
3, 93308, Note_off_c, 1, 58, 100
3, 93308, Note_off_c, 1, 48, 100
3, 93312, Note_on_c, 1, 57, 80
3, 93312, Note_on_c, 1, 53, 80
3, 93692, Note_off_c, 1, 57, 100
3, 93692, Note_off_c, 1, 53, 100
3, 93984, Note_on_c, 1, 60, 110
3, 93984, Note_on_c, 1, 48, 110
3, 94076, Note_off_c, 1, 60, 100
3, 94076, Note_off_c, 1, 48, 100
3, 94080, Note_on_c, 1, 60, 110
3, 94080, Note_on_c, 1, 48, 110
3, 94364, Note_off_c, 1, 60, 100
3, 94364, Note_off_c, 1, 48, 100
3, 94368, Note_on_c, 1, 48, 110
3, 94368, Note_on_c, 1, 36, 110
3, 94460, Note_off_c, 1, 48, 100
3, 94460, Note_off_c, 1, 36, 100
3, 94464, Note_on_c, 1, 48, 110
3, 94464, Note_on_c, 1, 36, 110
3, 94652, Note_off_c, 1, 48, 100
3, 94652, Note_off_c, 1, 36, 100
3, 94752, Note_on_c, 1, 48, 110
3, 94752, Note_on_c, 1, 36, 110
3, 94844, Note_off_c, 1, 48, 100
3, 94844, Note_off_c, 1, 36, 100
3, 94848, Note_on_c, 1, 41, 110
3, 94848, Note_on_c, 1, 29, 110
3, 95228, Note_off_c, 1, 41, 100
3, 95228, Note_off_c, 1, 29, 100
3, 95520, Note_on_c, 1, 45, 110
3, 95520, Note_on_c, 1, 33, 110
3, 95612, Note_off_c, 1, 45, 100
3, 95612, Note_off_c, 1, 33, 100
3, 95616, Note_on_c, 1, 45, 110
3, 95616, Note_on_c, 1, 33, 110
3, 95996, Note_off_c, 1, 45, 100
3, 95996, Note_off_c, 1, 33, 100
3, 96672, Note_on_c, 1, 64, 80
3, 96764, Note_off_c, 1, 64, 100
3, 96768, Note_on_c, 1, 71, 80
3, 97052, Note_off_c, 1, 71, 100
3, 97056, Note_on_c, 1, 74, 80
3, 97148, Note_off_c, 1, 74, 100
3, 97152, Note_on_c, 1, 74, 80
3, 97532, Note_off_c, 1, 74, 100
3, 97536, Note_on_c, 1, 73, 80
3, 97916, Note_off_c, 1, 73, 100
3, 98208, Note_on_c, 1, 52, 80
3, 98300, Note_off_c, 1, 52, 100
3, 98304, Note_on_c, 1, 59, 80
3, 98588, Note_off_c, 1, 59, 100
3, 98592, Note_on_c, 1, 62, 80
3, 98684, Note_off_c, 1, 62, 100
3, 98688, Note_on_c, 1, 62, 80
3, 99068, Note_off_c, 1, 62, 100
3, 99072, Note_on_c, 1, 61, 81
3, 99452, Note_off_c, 1, 61, 100
3, 99744, Note_on_c, 1, 70, 88
3, 99744, Note_on_c, 1, 67, 88
3, 99836, Note_off_c, 1, 70, 100
3, 99836, Note_off_c, 1, 67, 100
3, 99840, Note_on_c, 1, 69, 89
3, 99840, Note_on_c, 1, 65, 89
3, 100028, Note_off_c, 1, 69, 100
3, 100028, Note_off_c, 1, 65, 100
3, 100128, Note_on_c, 1, 67, 92
3, 100128, Note_on_c, 1, 64, 92
3, 100220, Note_off_c, 1, 67, 100
3, 100220, Note_off_c, 1, 64, 100
3, 100224, Note_on_c, 1, 67, 93
3, 100224, Note_on_c, 1, 64, 93
3, 100604, Note_off_c, 1, 67, 100
3, 100604, Note_off_c, 1, 64, 100
3, 100608, Note_on_c, 1, 57, 98
3, 100608, Note_on_c, 1, 45, 98
3, 100988, Note_off_c, 1, 57, 100
3, 100988, Note_off_c, 1, 45, 100
3, 101376, Note_on_c, 1, 61, 106
3, 101756, Note_off_c, 1, 61, 100
3, 101760, Note_on_c, 1, 62, 110
3, 101948, Note_off_c, 1, 62, 100
3, 102048, Note_on_c, 1, 57, 110
3, 102140, Note_off_c, 1, 57, 100
3, 102144, Note_on_c, 1, 62, 110
3, 102332, Note_off_c, 1, 62, 100
3, 102432, Note_on_c, 1, 53, 110
3, 102524, Note_off_c, 1, 53, 100
3, 102528, Note_on_c, 1, 57, 110
3, 102716, Note_off_c, 1, 57, 100
3, 102816, Note_on_c, 1, 50, 110
3, 102908, Note_off_c, 1, 50, 100
3, 102912, Note_on_c, 1, 57, 110
3, 103100, Note_off_c, 1, 57, 100
3, 103200, Note_on_c, 1, 48, 110
3, 103292, Note_off_c, 1, 48, 100
3, 103296, Note_on_c, 1, 55, 110
3, 103296, Note_on_c, 1, 47, 110
3, 103676, Note_off_c, 1, 55, 100
3, 103676, Note_off_c, 1, 47, 100
3, 103680, Note_on_c, 1, 43, 110
3, 103680, Note_on_c, 1, 31, 110
3, 104060, Note_off_c, 1, 43, 100
3, 104060, Note_off_c, 1, 31, 100
3, 104448, Note_on_c, 1, 59, 110
3, 104828, Note_off_c, 1, 59, 100
3, 104832, Note_on_c, 1, 60, 110
3, 105020, Note_off_c, 1, 60, 100
3, 105120, Note_on_c, 1, 55, 110
3, 105212, Note_off_c, 1, 55, 100
3, 105216, Note_on_c, 1, 60, 110
3, 105404, Note_off_c, 1, 60, 100
3, 105504, Note_on_c, 1, 53, 110
3, 105596, Note_off_c, 1, 53, 100
3, 105600, Note_on_c, 1, 57, 110
3, 105788, Note_off_c, 1, 57, 100
3, 105888, Note_on_c, 1, 50, 110
3, 105980, Note_off_c, 1, 50, 100
3, 105984, Note_on_c, 1, 53, 110
3, 106172, Note_off_c, 1, 53, 100
3, 106272, Note_on_c, 1, 41, 110
3, 106364, Note_off_c, 1, 41, 100
3, 106368, Note_on_c, 1, 52, 110
3, 106368, Note_on_c, 1, 40, 110
3, 106748, Note_off_c, 1, 52, 100
3, 106748, Note_off_c, 1, 40, 100
3, 107424, Note_on_c, 1, 57, 80
3, 107516, Note_off_c, 1, 57, 100
3, 107520, Note_on_c, 1, 62, 80
3, 107520, Note_on_c, 1, 58, 80
3, 107804, Note_off_c, 1, 62, 100
3, 107808, Note_on_c, 1, 65, 80
3, 107808, Note_on_c, 1, 57, 80
3, 107900, Note_off_c, 1, 58, 100
3, 107900, Note_off_c, 1, 65, 100
3, 107900, Note_off_c, 1, 57, 100
3, 107904, Note_on_c, 1, 59, 80
3, 107904, Note_on_c, 1, 56, 80
3, 108284, Note_off_c, 1, 59, 100
3, 108284, Note_off_c, 1, 56, 100
3, 108960, Note_on_c, 1, 57, 80
3, 109052, Note_off_c, 1, 57, 100
3, 109056, Note_on_c, 1, 57, 80
3, 109056, Note_on_c, 1, 61, 80
3, 109340, Note_off_c, 1, 57, 100
3, 109340, Note_off_c, 1, 61, 100
3, 109344, Note_on_c, 1, 64, 80
3, 109344, Note_on_c, 1, 55, 80
3, 109436, Note_off_c, 1, 64, 100
3, 109436, Note_off_c, 1, 55, 100
3, 109440, Note_on_c, 1, 57, 80
3, 109440, Note_on_c, 1, 53, 80
3, 109628, Note_off_c, 1, 57, 100
3, 109628, Note_off_c, 1, 53, 100
3, 109728, Note_on_c, 1, 64, 80
3, 109728, Note_on_c, 1, 67, 80
3, 109820, Note_off_c, 1, 64, 100
3, 109820, Note_off_c, 1, 67, 100
3, 109824, Note_on_c, 1, 70, 80
3, 109824, Note_on_c, 1, 67, 80
3, 110108, Note_off_c, 1, 70, 100
3, 110108, Note_off_c, 1, 67, 100
3, 110112, Note_on_c, 1, 69, 80
3, 110112, Note_on_c, 1, 65, 80
3, 110204, Note_off_c, 1, 69, 100
3, 110204, Note_off_c, 1, 65, 100
3, 110208, Note_on_c, 1, 69, 80
3, 110208, Note_on_c, 1, 65, 80
3, 111260, Note_off_c, 1, 65, 100
3, 111260, Note_off_c, 1, 69, 100
3, 111264, Note_on_c, 1, 65, 80
3, 111264, Note_on_c, 1, 62, 80
3, 111356, Note_off_c, 1, 65, 100
3, 111356, Note_off_c, 1, 62, 100
3, 111360, Note_on_c, 1, 65, 80
3, 111360, Note_on_c, 1, 69, 80
3, 111644, Note_off_c, 1, 65, 100
3, 111644, Note_off_c, 1, 69, 100
3, 111648, Note_on_c, 1, 67, 80
3, 111648, Note_on_c, 1, 64, 80
3, 111740, Note_off_c, 1, 67, 100
3, 111740, Note_off_c, 1, 64, 100
3, 111744, Note_on_c, 1, 64, 80
3, 111744, Note_on_c, 1, 67, 80
3, 112508, Note_off_c, 1, 64, 100
3, 112508, Note_off_c, 1, 67, 100
3, 112512, Note_on_c, 1, 65, 80
3, 112512, Note_on_c, 1, 62, 80
3, 112700, Note_off_c, 1, 65, 100
3, 112700, Note_off_c, 1, 62, 100
3, 112800, Note_on_c, 1, 38, 80
3, 112892, Note_off_c, 1, 38, 100
3, 112896, Note_on_c, 1, 41, 80
3, 113180, Note_off_c, 1, 41, 100
3, 113184, Note_on_c, 1, 39, 80
3, 113276, Note_off_c, 1, 39, 100
3, 113280, Note_on_c, 1, 39, 80
3, 114332, Note_off_c, 1, 39, 100
3, 114336, Note_on_c, 1, 36, 80
3, 114428, Note_off_c, 1, 36, 100
3, 114432, Note_on_c, 1, 39, 80
3, 114716, Note_off_c, 1, 39, 100
3, 114720, Note_on_c, 1, 38, 80
3, 114812, Note_off_c, 1, 38, 100
3, 114816, Note_on_c, 1, 38, 80
3, 115196, Note_off_c, 1, 38, 100
3, 115200, Note_on_c, 1, 34, 80
3, 115580, Note_off_c, 1, 34, 100
3, 115584, Note_on_c, 1, 33, 80
3, 115964, Note_off_c, 1, 33, 100
3, 115968, Note_on_c, 1, 38, 80
3, 116156, Note_off_c, 1, 38, 100
3, 116160, Note_on_c, 1, 32, 80
3, 116348, Note_off_c, 1, 32, 100
3, 116352, Note_on_c, 1, 31, 80
3, 116732, Note_off_c, 1, 31, 100
3, 116736, Note_on_c, 1, 38, 80
3, 117404, Note_off_c, 1, 38, 100
3, 117408, Note_on_c, 1, 34, 80
3, 117500, Note_off_c, 1, 34, 100
3, 117504, Note_on_c, 1, 37, 80
3, 117788, Note_off_c, 1, 37, 100
3, 117792, Note_on_c, 1, 36, 80
3, 117884, Note_off_c, 1, 36, 100
3, 117888, Note_on_c, 1, 36, 80
3, 118940, Note_off_c, 1, 36, 100
3, 118944, Note_on_c, 1, 33, 80
3, 119036, Note_off_c, 1, 33, 100
3, 119040, Note_on_c, 1, 36, 80
3, 119324, Note_off_c, 1, 36, 100
3, 119328, Note_on_c, 1, 34, 80
3, 119420, Note_off_c, 1, 34, 100
3, 119424, Note_on_c, 1, 34, 80
3, 120188, Note_off_c, 1, 34, 100
3, 120192, Note_on_c, 1, 32, 80
3, 120572, Note_off_c, 1, 32, 100
3, 120576, Note_on_c, 1, 37, 80
3, 120956, Note_off_c, 1, 37, 100
3, 120960, Note_on_c, 1, 31, 80
3, 121340, Note_off_c, 1, 31, 100
3, 121344, Note_on_c, 1, 36, 80
3, 121724, Note_off_c, 1, 36, 100
3, 121728, Note_on_c, 1, 29, 80
3, 122016, Note_on_c, 1, 51, 80
3, 122108, Note_off_c, 1, 29, 100
3, 122108, Note_off_c, 1, 51, 100
3, 122112, Note_on_c, 1, 46, 80
3, 122112, Note_on_c, 1, 54, 80
3, 122396, Note_off_c, 1, 54, 100
3, 122400, Note_on_c, 1, 53, 80
3, 122492, Note_off_c, 1, 46, 100
3, 122492, Note_off_c, 1, 53, 100
3, 122496, Note_on_c, 1, 39, 80
3, 122784, Note_on_c, 1, 51, 80
3, 122876, Note_off_c, 1, 39, 100
3, 122876, Note_off_c, 1, 51, 100
3, 122880, Note_on_c, 1, 44, 80
3, 122880, Note_on_c, 1, 54, 80
3, 123164, Note_off_c, 1, 54, 100
3, 123168, Note_on_c, 1, 53, 80
3, 123260, Note_off_c, 1, 44, 100
3, 123260, Note_off_c, 1, 53, 100
3, 123264, Control_c, 1, 64, 127
3, 123264, Note_on_c, 1, 37, 80
3, 123552, Note_on_c, 1, 61, 80
3, 123644, Note_off_c, 1, 37, 100
3, 123644, Note_off_c, 1, 61, 100
3, 123648, Note_on_c, 1, 65, 80
3, 123932, Note_off_c, 1, 65, 100
3, 123936, Note_on_c, 1, 68, 80
3, 124028, Note_off_c, 1, 68, 100
3, 124032, Note_on_c, 1, 68, 80
3, 124412, Note_off_c, 1, 68, 100
3, 124416, Note_on_c, 1, 70, 80
3, 124796, Note_off_c, 1, 70, 100
3, 125088, Note_on_c, 1, 63, 80
3, 125184, Note_on_c, 1, 66, 80
3, 125372, Note_off_c, 1, 63, 100
3, 125472, Note_on_c, 1, 70, 80
3, 125564, Note_off_c, 1, 66, 100
3, 125568, Note_on_c, 1, 70, 80
3, 125852, Note_off_c, 1, 70, 100
3, 125952, Note_on_c, 1, 72, 80
3, 126140, Note_off_c, 1, 70, 100
3, 126524, Note_off_c, 1, 72, 100
3, 126624, Note_on_c, 1, 65, 80
3, 126720, Note_on_c, 1, 68, 80
3, 126908, Note_off_c, 1, 65, 100
3, 127000, Note_on_c, 1, 72, 80
3, 127100, Note_off_c, 1, 68, 100
3, 127104, Note_on_c, 1, 72, 80
3, 127188, Note_off_c, 1, 72, 100
3, 127488, Note_on_c, 1, 73, 80
3, 127676, Note_off_c, 1, 72, 100
3, 128252, Note_off_c, 1, 73, 100
3, 128640, Note_on_c, 1, 49, 80
3, 128640, Note_on_c, 1, 37, 80
3, 129400, Control_c, 1, 64, 0
3, 129404, Note_off_c, 1, 49, 100
3, 129404, Note_off_c, 1, 37, 100
3, 129408, Note_on_c, 1, 48, 80
3, 129408, Note_on_c, 1, 36, 80
3, 130172, Note_off_c, 1, 48, 100
3, 130172, Note_off_c, 1, 36, 100
3, 130176, Note_on_c, 1, 49, 80
3, 130176, Note_on_c, 1, 37, 80
3, 130940, Note_off_c, 1, 49, 100
3, 130940, Note_off_c, 1, 37, 100
3, 130944, Note_on_c, 1, 48, 80
3, 130944, Note_on_c, 1, 36, 80
3, 131708, Note_off_c, 1, 48, 100
3, 131708, Note_off_c, 1, 36, 100
3, 131712, Note_on_c, 1, 49, 80
3, 131712, Note_on_c, 1, 37, 80
3, 132476, Note_off_c, 1, 49, 100
3, 132476, Note_off_c, 1, 37, 100
3, 132480, Note_on_c, 1, 36, 80
3, 132604, Note_off_c, 1, 36, 100
3, 132608, Note_on_c, 1, 48, 80
3, 132732, Note_off_c, 1, 48, 100
3, 132736, Note_on_c, 1, 36, 81
3, 132860, Note_off_c, 1, 36, 100
3, 132864, Note_on_c, 1, 48, 81
3, 132988, Note_off_c, 1, 48, 100
3, 132992, Note_on_c, 1, 36, 82
3, 133116, Note_off_c, 1, 36, 100
3, 133120, Note_on_c, 1, 48, 83
3, 133244, Note_off_c, 1, 48, 100
3, 133248, Note_on_c, 1, 36, 83
3, 133372, Note_off_c, 1, 36, 100
3, 133376, Note_on_c, 1, 48, 84
3, 133500, Note_off_c, 1, 48, 100
3, 133504, Note_on_c, 1, 36, 85
3, 133628, Note_off_c, 1, 36, 100
3, 133632, Note_on_c, 1, 48, 85
3, 133756, Note_off_c, 1, 48, 100
3, 133760, Note_on_c, 1, 36, 86
3, 133884, Note_off_c, 1, 36, 100
3, 133888, Note_on_c, 1, 48, 86
3, 134012, Note_off_c, 1, 48, 100
3, 134016, Note_on_c, 1, 36, 87
3, 134140, Note_off_c, 1, 36, 100
3, 134144, Note_on_c, 1, 48, 88
3, 134268, Note_off_c, 1, 48, 100
3, 134272, Note_on_c, 1, 36, 88
3, 134396, Note_off_c, 1, 36, 100
3, 134400, Note_on_c, 1, 48, 89
3, 134524, Note_off_c, 1, 48, 100
3, 134528, Note_on_c, 1, 36, 90
3, 134652, Note_off_c, 1, 36, 100
3, 134656, Note_on_c, 1, 48, 90
3, 134780, Note_off_c, 1, 48, 100
3, 134784, Note_on_c, 1, 36, 91
3, 134908, Note_off_c, 1, 36, 100
3, 134912, Note_on_c, 1, 48, 92
3, 135036, Note_off_c, 1, 48, 100
3, 135040, Note_on_c, 1, 36, 92
3, 135164, Note_off_c, 1, 36, 100
3, 135168, Note_on_c, 1, 48, 93
3, 135292, Note_off_c, 1, 48, 100
3, 135296, Note_on_c, 1, 36, 93
3, 135420, Note_off_c, 1, 36, 100
3, 135424, Note_on_c, 1, 48, 94
3, 135548, Note_off_c, 1, 48, 100
3, 135552, Note_on_c, 1, 48, 95
3, 135676, Note_off_c, 1, 48, 100
3, 135680, Note_on_c, 1, 60, 95
3, 135804, Note_off_c, 1, 60, 100
3, 135808, Note_on_c, 1, 48, 96
3, 135932, Note_off_c, 1, 48, 100
3, 135936, Note_on_c, 1, 60, 97
3, 136060, Note_off_c, 1, 60, 100
3, 136064, Note_on_c, 1, 48, 97
3, 136188, Note_off_c, 1, 48, 100
3, 136192, Note_on_c, 1, 60, 98
3, 136316, Note_off_c, 1, 60, 100
3, 136320, Note_on_c, 1, 48, 99
3, 136444, Note_off_c, 1, 48, 100
3, 136448, Note_on_c, 1, 60, 99
3, 136572, Note_off_c, 1, 60, 100
3, 136576, Note_on_c, 1, 48, 100
3, 136700, Note_off_c, 1, 48, 100
3, 136704, Note_on_c, 1, 60, 100
3, 136828, Note_off_c, 1, 60, 100
3, 136832, Note_on_c, 1, 48, 101
3, 136956, Note_off_c, 1, 48, 100
3, 136960, Note_on_c, 1, 60, 102
3, 137084, Note_off_c, 1, 60, 100
3, 137088, Note_on_c, 1, 60, 102
3, 137212, Note_off_c, 1, 60, 100
3, 137216, Note_on_c, 1, 70, 103
3, 137340, Note_off_c, 1, 70, 100
3, 137344, Note_on_c, 1, 67, 104
3, 137468, Note_off_c, 1, 67, 100
3, 137472, Note_on_c, 1, 69, 104
3, 137596, Note_off_c, 1, 69, 100
3, 137600, Note_on_c, 1, 60, 105
3, 137724, Note_off_c, 1, 60, 100
3, 137728, Note_on_c, 1, 72, 106
3, 137852, Note_off_c, 1, 72, 100
3, 137856, Note_on_c, 1, 64, 106
3, 137980, Note_off_c, 1, 64, 100
3, 137984, Note_on_c, 1, 60, 107
3, 138108, Note_off_c, 1, 60, 100
3, 138112, Note_on_c, 1, 67, 107
3, 138236, Note_off_c, 1, 67, 100
3, 138240, Note_on_c, 1, 62, 108
3, 138364, Note_off_c, 1, 62, 100
3, 138368, Note_on_c, 1, 60, 109
3, 138492, Note_off_c, 1, 60, 100
3, 138496, Note_on_c, 1, 65, 109
3, 138620, Note_off_c, 1, 65, 100
3, 138624, Note_on_c, 1, 48, 110
3, 138624, Note_on_c, 1, 36, 110
3, 139004, Note_off_c, 1, 48, 100
3, 139004, Note_off_c, 1, 36, 100
3, 139008, Note_on_c, 1, 58, 110
3, 139676, Note_off_c, 1, 58, 100
3, 139680, Note_on_c, 1, 55, 110
3, 139772, Note_off_c, 1, 55, 100
3, 139776, Note_on_c, 1, 57, 110
3, 140060, Note_off_c, 1, 57, 100
3, 140064, Note_on_c, 1, 60, 110
3, 140156, Note_off_c, 1, 60, 100
3, 140160, Note_on_c, 1, 57, 110
3, 140444, Note_off_c, 1, 57, 100
3, 140448, Note_on_c, 1, 53, 110
3, 140540, Note_off_c, 1, 53, 100
3, 140544, Note_on_c, 1, 55, 110
3, 140828, Note_off_c, 1, 55, 100
3, 140832, Note_on_c, 1, 58, 110
3, 140924, Note_off_c, 1, 58, 100
3, 140928, Note_on_c, 1, 55, 110
3, 141212, Note_off_c, 1, 55, 100
3, 141216, Note_on_c, 1, 52, 110
3, 141308, Note_off_c, 1, 52, 100
3, 141312, Note_on_c, 1, 53, 110
3, 141596, Note_off_c, 1, 53, 100
3, 141600, Note_on_c, 1, 57, 110
3, 141692, Note_off_c, 1, 57, 100
3, 141696, Note_on_c, 1, 50, 110
3, 141980, Note_off_c, 1, 50, 100
3, 141984, Note_on_c, 1, 47, 110
3, 142076, Note_off_c, 1, 47, 100
3, 142080, Note_on_c, 1, 48, 110
3, 142364, Note_off_c, 1, 48, 100
3, 142368, Note_on_c, 1, 51, 110
3, 142460, Note_off_c, 1, 51, 100
3, 142464, Note_on_c, 1, 48, 110
3, 142748, Note_off_c, 1, 48, 100
3, 142752, Note_on_c, 1, 45, 110
3, 142844, Note_off_c, 1, 45, 100
3, 142848, Note_on_c, 1, 46, 110
3, 143132, Note_off_c, 1, 46, 100
3, 143136, Note_on_c, 1, 50, 110
3, 143228, Note_off_c, 1, 50, 100
3, 143232, Note_on_c, 1, 46, 110
3, 143516, Note_off_c, 1, 46, 100
3, 143520, Note_on_c, 1, 43, 110
3, 143612, Note_off_c, 1, 43, 100
3, 143616, Note_on_c, 1, 45, 110
3, 143900, Note_off_c, 1, 45, 100
3, 143904, Note_on_c, 1, 46, 110
3, 143996, Note_off_c, 1, 46, 100
3, 144000, Note_on_c, 1, 48, 110
3, 144284, Note_off_c, 1, 48, 100
3, 144288, Note_on_c, 1, 60, 110
3, 144380, Note_off_c, 1, 60, 100
3, 144384, Note_on_c, 1, 60, 110
3, 144572, Note_off_c, 1, 60, 100
3, 144672, Note_on_c, 1, 48, 110
3, 144764, Note_off_c, 1, 48, 100
3, 144768, Note_on_c, 1, 41, 95
3, 145148, Note_off_c, 1, 41, 100
3, 145152, Note_on_c, 1, 89, 80
3, 145824, Note_on_c, 1, 88, 80
3, 145916, Note_off_c, 1, 89, 100
3, 145916, Note_off_c, 1, 88, 100
3, 145920, Note_on_c, 1, 86, 80
3, 146204, Note_off_c, 1, 86, 100
3, 146208, Note_on_c, 1, 84, 80
3, 146300, Note_off_c, 1, 84, 100
3, 146304, Note_on_c, 1, 84, 80
3, 146684, Note_off_c, 1, 84, 100
3, 146688, Note_on_c, 1, 41, 80
3, 146688, Note_on_c, 1, 29, 80
3, 146972, Note_off_c, 1, 41, 100
3, 146972, Note_off_c, 1, 29, 100
3, 146976, Note_on_c, 1, 43, 83
3, 146976, Note_on_c, 1, 31, 83
3, 147068, Note_off_c, 1, 43, 100
3, 147068, Note_off_c, 1, 31, 100
3, 147072, Note_on_c, 1, 45, 84
3, 147072, Note_on_c, 1, 33, 84
3, 147356, Note_off_c, 1, 45, 100
3, 147356, Note_off_c, 1, 33, 100
3, 147360, Note_on_c, 1, 46, 87
3, 147360, Note_on_c, 1, 34, 87
3, 147452, Note_off_c, 1, 46, 100
3, 147452, Note_off_c, 1, 34, 100
3, 147456, Note_on_c, 1, 48, 88
3, 147456, Note_on_c, 1, 36, 88
3, 147740, Note_off_c, 1, 48, 100
3, 147740, Note_off_c, 1, 36, 100
3, 147744, Note_on_c, 1, 50, 92
3, 147744, Note_on_c, 1, 38, 92
3, 147836, Note_off_c, 1, 50, 100
3, 147836, Note_off_c, 1, 38, 100
3, 147840, Note_on_c, 1, 52, 93
3, 147840, Note_on_c, 1, 40, 93
3, 148124, Note_off_c, 1, 52, 100
3, 148124, Note_off_c, 1, 40, 100
3, 148128, Note_on_c, 1, 53, 96
3, 148128, Note_on_c, 1, 41, 96
3, 148220, Note_off_c, 1, 53, 100
3, 148220, Note_off_c, 1, 41, 100
3, 148224, Note_on_c, 1, 55, 97
3, 148224, Note_on_c, 1, 43, 97
3, 148508, Note_off_c, 1, 55, 100
3, 148508, Note_off_c, 1, 43, 100
3, 148512, Note_on_c, 1, 57, 101
3, 148512, Note_on_c, 1, 45, 101
3, 148604, Note_off_c, 1, 57, 100
3, 148604, Note_off_c, 1, 45, 100
3, 148608, Note_on_c, 1, 58, 102
3, 148608, Note_on_c, 1, 46, 102
3, 148892, Note_off_c, 1, 58, 100
3, 148892, Note_off_c, 1, 46, 100
3, 148896, Note_on_c, 1, 59, 105
3, 148896, Note_on_c, 1, 47, 105
3, 148988, Note_off_c, 1, 59, 100
3, 148988, Note_off_c, 1, 47, 100
3, 148992, Note_on_c, 1, 60, 106
3, 148992, Note_on_c, 1, 48, 106
3, 149276, Note_off_c, 1, 60, 100
3, 149276, Note_off_c, 1, 48, 100
3, 149280, Note_on_c, 1, 48, 109
3, 149280, Note_on_c, 1, 36, 109
3, 149372, Note_off_c, 1, 48, 100
3, 149372, Note_off_c, 1, 36, 100
3, 149376, Note_on_c, 1, 41, 80
3, 149376, Note_on_c, 1, 29, 80
3, 149756, Note_off_c, 1, 41, 100
3, 149756, Note_off_c, 1, 29, 100
3, 149760, Note_on_c, 1, 89, 80
3, 150432, Note_on_c, 1, 88, 80
3, 150524, Note_off_c, 1, 89, 100
3, 150524, Note_off_c, 1, 88, 100
3, 150528, Note_on_c, 1, 86, 80
3, 150812, Note_off_c, 1, 86, 100
3, 150816, Note_on_c, 1, 84, 80
3, 150908, Note_off_c, 1, 84, 100
3, 150912, Note_on_c, 1, 84, 80
3, 151292, Note_off_c, 1, 84, 100
3, 151296, Note_on_c, 1, 29, 80
3, 151388, Note_off_c, 1, 29, 100
3, 151392, Note_on_c, 1, 41, 81
3, 151484, Note_off_c, 1, 41, 100
3, 151488, Note_on_c, 1, 31, 82
3, 151580, Note_off_c, 1, 31, 100
3, 151584, Note_on_c, 1, 43, 83
3, 151676, Note_off_c, 1, 43, 100
3, 151680, Note_on_c, 1, 33, 84
3, 151772, Note_off_c, 1, 33, 100
3, 151776, Note_on_c, 1, 45, 85
3, 151868, Note_off_c, 1, 45, 100
3, 151872, Note_on_c, 1, 34, 86
3, 151964, Note_off_c, 1, 34, 100
3, 151968, Note_on_c, 1, 46, 87
3, 152060, Note_off_c, 1, 46, 100
3, 152064, Note_on_c, 1, 36, 88
3, 152156, Note_off_c, 1, 36, 100
3, 152160, Note_on_c, 1, 48, 89
3, 152252, Note_off_c, 1, 48, 100
3, 152256, Note_on_c, 1, 38, 91
3, 152348, Note_off_c, 1, 38, 100
3, 152352, Note_on_c, 1, 50, 92
3, 152444, Note_off_c, 1, 50, 100
3, 152448, Note_on_c, 1, 40, 93
3, 152540, Note_off_c, 1, 40, 100
3, 152544, Note_on_c, 1, 52, 94
3, 152636, Note_off_c, 1, 52, 100
3, 152640, Note_on_c, 1, 41, 95
3, 152732, Note_off_c, 1, 41, 100
3, 152736, Note_on_c, 1, 53, 96
3, 152828, Note_off_c, 1, 53, 100
3, 152832, Note_on_c, 1, 43, 97
3, 152924, Note_off_c, 1, 43, 100
3, 152928, Note_on_c, 1, 55, 98
3, 153020, Note_off_c, 1, 55, 100
3, 153024, Note_on_c, 1, 45, 99
3, 153116, Note_off_c, 1, 45, 100
3, 153120, Note_on_c, 1, 57, 101
3, 153212, Note_off_c, 1, 57, 100
3, 153216, Note_on_c, 1, 46, 102
3, 153308, Note_off_c, 1, 46, 100
3, 153312, Note_on_c, 1, 58, 103
3, 153404, Note_off_c, 1, 58, 100
3, 153408, Note_on_c, 1, 47, 104
3, 153500, Note_off_c, 1, 47, 100
3, 153504, Note_on_c, 1, 59, 105
3, 153596, Note_off_c, 1, 59, 100
3, 153600, Note_on_c, 1, 48, 106
3, 153692, Note_off_c, 1, 48, 100
3, 153696, Note_on_c, 1, 60, 107
3, 153788, Note_off_c, 1, 60, 100
3, 153792, Note_on_c, 1, 46, 108
3, 153884, Note_off_c, 1, 46, 100
3, 153888, Note_on_c, 1, 58, 109
3, 153980, Note_off_c, 1, 58, 100
3, 153984, Note_on_c, 1, 57, 120
3, 153984, Note_on_c, 1, 45, 120
3, 154748, Note_off_c, 1, 57, 100
3, 154748, Note_off_c, 1, 45, 100
3, 154752, Note_on_c, 1, 63, 120
3, 154752, Note_on_c, 1, 60, 120
3, 154752, Note_on_c, 1, 57, 120
3, 155516, Note_off_c, 1, 63, 100
3, 155516, Note_off_c, 1, 60, 100
3, 155516, Note_off_c, 1, 57, 100
3, 155520, Note_on_c, 1, 62, 80
3, 155520, Note_on_c, 1, 58, 80
3, 155708, Note_off_c, 1, 62, 100
3, 155708, Note_off_c, 1, 58, 100
3, 155808, Note_on_c, 1, 58, 80
3, 155900, Note_off_c, 1, 58, 100
3, 155904, Note_on_c, 1, 60, 80
3, 156092, Note_off_c, 1, 60, 100
3, 156192, Note_on_c, 1, 60, 80
3, 156284, Note_off_c, 1, 60, 100
3, 156288, Note_on_c, 1, 62, 80
3, 156476, Note_off_c, 1, 62, 100
3, 156576, Note_on_c, 1, 64, 80
3, 156668, Note_off_c, 1, 64, 100
3, 156672, Note_on_c, 1, 65, 80
3, 156860, Note_off_c, 1, 65, 100
3, 156960, Note_on_c, 1, 72, 80
3, 156960, Note_on_c, 1, 60, 80
3, 157052, Note_off_c, 1, 72, 100
3, 157052, Note_off_c, 1, 60, 100
3, 157056, Note_on_c, 1, 72, 80
3, 157340, Note_off_c, 1, 72, 100
3, 157344, Note_on_c, 1, 71, 80
3, 157436, Note_off_c, 1, 71, 100
3, 157440, Note_on_c, 1, 70, 80
3, 157440, Note_on_c, 1, 60, 80
3, 157628, Note_off_c, 1, 70, 100
3, 157628, Note_off_c, 1, 60, 100
3, 157728, Note_on_c, 1, 70, 80
3, 157728, Note_on_c, 1, 60, 80
3, 157820, Note_off_c, 1, 70, 100
3, 157820, Note_off_c, 1, 60, 100
3, 157824, Note_on_c, 1, 69, 80
3, 157824, Note_on_c, 1, 65, 80
3, 158012, Note_off_c, 1, 69, 100
3, 158012, Note_off_c, 1, 65, 100
3, 158112, Note_on_c, 1, 62, 80
3, 158204, Note_off_c, 1, 62, 100
3, 158208, Note_on_c, 1, 60, 80
3, 158396, Note_off_c, 1, 60, 100
3, 158496, Note_on_c, 1, 60, 80
3, 158496, Note_on_c, 1, 48, 80
3, 158588, Note_off_c, 1, 60, 100
3, 158588, Note_off_c, 1, 48, 100
3, 158592, Note_on_c, 1, 60, 80
3, 158592, Note_on_c, 1, 48, 80
3, 158876, Note_off_c, 1, 60, 100
3, 158880, Note_on_c, 1, 59, 80
3, 158972, Note_off_c, 1, 48, 100
3, 158972, Note_off_c, 1, 59, 100
3, 158976, Note_on_c, 1, 58, 80
3, 158976, Note_on_c, 1, 48, 80
3, 159164, Note_off_c, 1, 58, 100
3, 159164, Note_off_c, 1, 48, 100
3, 159264, Note_on_c, 1, 58, 80
3, 159264, Note_on_c, 1, 48, 80
3, 159356, Note_off_c, 1, 58, 100
3, 159356, Note_off_c, 1, 48, 100
3, 159360, Note_on_c, 1, 57, 80
3, 159360, Note_on_c, 1, 53, 80
3, 159740, Note_off_c, 1, 57, 100
3, 159740, Note_off_c, 1, 53, 100
3, 160032, Note_on_c, 1, 60, 110
3, 160032, Note_on_c, 1, 48, 110
3, 160124, Note_off_c, 1, 60, 100
3, 160124, Note_off_c, 1, 48, 100
3, 160128, Note_on_c, 1, 60, 110
3, 160128, Note_on_c, 1, 48, 110
3, 160412, Note_off_c, 1, 60, 100
3, 160412, Note_off_c, 1, 48, 100
3, 160416, Note_on_c, 1, 48, 110
3, 160416, Note_on_c, 1, 36, 110
3, 160508, Note_off_c, 1, 48, 100
3, 160508, Note_off_c, 1, 36, 100
3, 160512, Note_on_c, 1, 48, 110
3, 160512, Note_on_c, 1, 36, 110
3, 160700, Note_off_c, 1, 48, 100
3, 160700, Note_off_c, 1, 36, 100
3, 160800, Note_on_c, 1, 48, 110
3, 160800, Note_on_c, 1, 36, 110
3, 160892, Note_off_c, 1, 48, 100
3, 160892, Note_off_c, 1, 36, 100
3, 160896, Note_on_c, 1, 41, 110
3, 160896, Note_on_c, 1, 29, 110
3, 161276, Note_off_c, 1, 41, 100
3, 161276, Note_off_c, 1, 29, 100
3, 161664, Key_signature, -2, "major"
3, 163200, Note_on_c, 1, 58, 80
3, 163772, Note_off_c, 1, 58, 100
3, 163776, Note_on_c, 1, 57, 80
3, 163868, Note_off_c, 1, 57, 100
3, 163872, Note_on_c, 1, 58, 80
3, 163964, Note_off_c, 1, 58, 100
3, 163968, Note_on_c, 1, 58, 80
3, 164540, Note_off_c, 1, 58, 100
3, 164544, Note_on_c, 1, 57, 80
3, 164636, Note_off_c, 1, 57, 100
3, 164640, Note_on_c, 1, 58, 80
3, 164732, Note_off_c, 1, 58, 100
3, 164736, Note_on_c, 1, 58, 80
3, 165308, Note_off_c, 1, 58, 100
3, 165312, Note_on_c, 1, 57, 80
3, 165500, Note_off_c, 1, 57, 100
3, 165504, Note_on_c, 1, 58, 80
3, 165692, Note_off_c, 1, 58, 100
3, 165696, Note_on_c, 1, 62, 80
3, 165884, Note_off_c, 1, 62, 100
3, 165888, Note_on_c, 1, 57, 80
3, 166076, Note_off_c, 1, 57, 100
3, 166080, Note_on_c, 1, 58, 80
3, 166268, Note_off_c, 1, 58, 100
3, 166272, Note_on_c, 1, 60, 80
3, 166460, Note_off_c, 1, 60, 100
3, 166464, Note_on_c, 1, 55, 80
3, 166652, Note_off_c, 1, 55, 100
3, 166656, Note_on_c, 1, 57, 80
3, 166844, Note_off_c, 1, 57, 100
3, 166848, Note_on_c, 1, 58, 80
3, 167036, Note_off_c, 1, 58, 100
3, 167040, Note_on_c, 1, 51, 80
3, 167228, Note_off_c, 1, 51, 100
3, 167232, Note_on_c, 1, 53, 80
3, 167420, Note_off_c, 1, 53, 100
3, 167424, Note_on_c, 1, 55, 80
3, 167612, Note_off_c, 1, 55, 100
3, 167616, Note_on_c, 1, 50, 80
3, 167804, Note_off_c, 1, 50, 100
3, 167808, Note_on_c, 1, 51, 80
3, 168380, Note_off_c, 1, 51, 100
3, 168384, Note_on_c, 1, 50, 80
3, 168572, Note_off_c, 1, 50, 100
3, 168576, Note_on_c, 1, 48, 80
3, 169148, Note_off_c, 1, 48, 100
3, 169152, Note_on_c, 1, 46, 80
3, 169340, Note_off_c, 1, 46, 100
3, 170112, Note_on_c, 1, 55, 80
3, 170300, Note_off_c, 1, 55, 100
3, 170304, Note_on_c, 1, 58, 80
3, 170492, Note_off_c, 1, 58, 100
3, 170496, Note_on_c, 1, 60, 80
3, 170684, Note_off_c, 1, 60, 100
3, 170688, Note_on_c, 1, 58, 80
3, 170876, Note_off_c, 1, 58, 100
3, 170880, Note_on_c, 1, 52, 80
3, 171452, Note_off_c, 1, 52, 100
3, 171456, Note_on_c, 1, 61, 80
3, 171644, Note_off_c, 1, 61, 100
3, 171648, Note_on_c, 1, 60, 80
3, 171836, Note_off_c, 1, 60, 100
3, 171840, Note_on_c, 1, 57, 80
3, 172028, Note_off_c, 1, 57, 100
3, 172032, Note_on_c, 1, 58, 80
3, 172220, Note_off_c, 1, 58, 100
3, 172224, Note_on_c, 1, 70, 80
3, 172412, Note_off_c, 1, 70, 100
3, 172416, Note_on_c, 1, 70, 80
3, 172988, Note_off_c, 1, 70, 100
3, 172992, Note_on_c, 1, 64, 80
3, 173180, Note_off_c, 1, 64, 100
3, 173184, Note_on_c, 1, 67, 80
3, 173372, Note_off_c, 1, 67, 100
3, 173376, Note_on_c, 1, 70, 80
3, 173564, Note_off_c, 1, 70, 100
3, 173568, Note_on_c, 1, 72, 80
3, 173756, Note_off_c, 1, 72, 100
3, 173760, Note_on_c, 1, 74, 80
3, 173948, Note_off_c, 1, 74, 100
3, 173952, Note_on_c, 1, 72, 80
3, 174524, Note_off_c, 1, 72, 100
3, 174528, Note_on_c, 1, 70, 80
3, 174716, Note_off_c, 1, 70, 100
3, 174720, Note_on_c, 1, 70, 80
3, 174908, Note_off_c, 1, 70, 100
3, 174912, Note_on_c, 1, 69, 80
3, 175100, Note_off_c, 1, 69, 100
3, 175104, Note_on_c, 1, 72, 80
3, 175292, Note_off_c, 1, 72, 100
3, 175296, Note_on_c, 1, 76, 80
3, 175484, Note_off_c, 1, 76, 100
3, 175488, Note_on_c, 1, 77, 80
3, 175676, Note_off_c, 1, 77, 100
3, 175872, Note_on_c, 1, 65, 80
3, 176060, Note_off_c, 1, 65, 100
3, 176256, Note_on_c, 1, 58, 80
3, 176444, Note_off_c, 1, 58, 100
3, 176448, Note_on_c, 1, 57, 80
3, 176636, Note_off_c, 1, 57, 100
3, 176640, Note_on_c, 1, 62, 80
3, 176828, Note_off_c, 1, 62, 100
3, 176832, Note_on_c, 1, 65, 80
3, 177020, Note_off_c, 1, 65, 100
3, 177024, Note_on_c, 1, 65, 80
3, 177212, Note_off_c, 1, 65, 100
3, 177216, Note_on_c, 1, 60, 80
3, 177404, Note_off_c, 1, 60, 100
3, 177408, Note_on_c, 1, 62, 80
3, 177596, Note_off_c, 1, 62, 100
3, 177600, Note_on_c, 1, 64, 80
3, 177788, Note_off_c, 1, 64, 100
3, 177792, Note_on_c, 1, 58, 80
3, 177980, Note_off_c, 1, 58, 100
3, 177984, Note_on_c, 1, 60, 80
3, 178172, Note_off_c, 1, 60, 100
3, 178176, Note_on_c, 1, 62, 80
3, 178364, Note_off_c, 1, 62, 100
3, 178368, Note_on_c, 1, 57, 80
3, 178556, Note_off_c, 1, 57, 100
3, 178560, Note_on_c, 1, 58, 80
3, 179132, Note_off_c, 1, 58, 100
3, 179136, Note_on_c, 1, 57, 80
3, 179324, Note_off_c, 1, 57, 100
3, 179328, Note_on_c, 1, 55, 80
3, 179900, Note_off_c, 1, 55, 100
3, 179904, Note_on_c, 1, 53, 80
3, 180092, Note_off_c, 1, 53, 100
3, 180096, Note_on_c, 1, 55, 80
3, 180284, Note_off_c, 1, 55, 100
3, 180288, Note_on_c, 1, 53, 80
3, 180476, Note_off_c, 1, 53, 100
3, 180480, Note_on_c, 1, 53, 80
3, 180668, Note_off_c, 1, 53, 100
3, 180672, Note_on_c, 1, 61, 80
3, 180860, Note_off_c, 1, 61, 100
3, 180864, Note_on_c, 1, 62, 80
3, 181052, Note_off_c, 1, 62, 100
3, 181056, Note_on_c, 1, 61, 80
3, 181244, Note_off_c, 1, 61, 100
3, 181248, Note_on_c, 1, 62, 80
3, 181436, Note_off_c, 1, 62, 100
3, 181440, Note_on_c, 1, 50, 80
3, 181628, Note_off_c, 1, 50, 100
3, 181632, Note_on_c, 1, 51, 80
3, 182204, Note_off_c, 1, 51, 100
3, 182208, Note_on_c, 1, 50, 80
3, 182396, Note_off_c, 1, 50, 100
3, 182400, Note_on_c, 1, 48, 80
3, 182972, Note_off_c, 1, 48, 100
3, 182976, Note_on_c, 1, 46, 80
3, 183164, Note_off_c, 1, 46, 100
3, 183168, Note_on_c, 1, 48, 80
3, 183356, Note_off_c, 1, 48, 100
3, 183360, Note_on_c, 1, 46, 80
3, 183548, Note_off_c, 1, 46, 100
3, 183552, Note_on_c, 1, 46, 80
3, 183740, Note_off_c, 1, 46, 100
3, 183744, Note_on_c, 1, 54, 80
3, 183932, Note_off_c, 1, 54, 100
3, 183936, Note_on_c, 1, 55, 80
3, 184124, Note_off_c, 1, 55, 100
3, 184128, Note_on_c, 1, 54, 80
3, 184316, Note_off_c, 1, 54, 100
3, 184320, Note_on_c, 1, 55, 80
3, 184508, Note_off_c, 1, 55, 100
3, 184512, Note_on_c, 1, 43, 80
3, 184700, Note_off_c, 1, 43, 100
3, 185472, Note_on_c, 1, 63, 80
3, 185852, Note_off_c, 1, 63, 100
3, 185856, Note_on_c, 1, 58, 80
3, 186140, Note_off_c, 1, 58, 100
3, 186144, Note_on_c, 1, 60, 80
3, 186188, Note_off_c, 1, 60, 100
3, 186192, Note_on_c, 1, 58, 80
3, 186236, Note_off_c, 1, 58, 100
3, 186240, Note_on_c, 1, 57, 80
3, 186620, Note_off_c, 1, 57, 100
3, 186624, Note_on_c, 1, 64, 80
3, 187004, Note_off_c, 1, 64, 100
3, 187008, Note_on_c, 1, 65, 80
3, 187388, Note_off_c, 1, 65, 100
3, 187392, Note_on_c, 1, 60, 80
3, 187676, Note_off_c, 1, 60, 100
3, 187680, Note_on_c, 1, 62, 80
3, 187724, Note_off_c, 1, 62, 100
3, 187728, Note_on_c, 1, 60, 80
3, 187772, Note_off_c, 1, 60, 100
3, 187776, Note_on_c, 1, 59, 80
3, 188156, Note_off_c, 1, 59, 100
3, 188160, Note_on_c, 1, 66, 80
3, 188540, Note_off_c, 1, 66, 100
3, 188544, Note_on_c, 1, 67, 80
3, 188924, Note_off_c, 1, 67, 100
3, 188928, Note_on_c, 1, 63, 80
3, 189116, Note_off_c, 1, 63, 100
3, 189120, Note_on_c, 1, 62, 80
3, 189308, Note_off_c, 1, 62, 100
3, 189312, Note_on_c, 1, 63, 80
3, 189692, Note_off_c, 1, 63, 100
3, 189696, Note_on_c, 1, 60, 80
3, 189884, Note_off_c, 1, 60, 100
3, 189888, Note_on_c, 1, 59, 80
3, 190076, Note_off_c, 1, 59, 100
3, 190080, Note_on_c, 1, 60, 80
3, 190460, Note_off_c, 1, 60, 100
3, 190464, Note_on_c, 1, 57, 80
3, 190652, Note_off_c, 1, 57, 100
3, 190656, Note_on_c, 1, 56, 80
3, 190844, Note_off_c, 1, 56, 100
3, 190848, Note_on_c, 1, 57, 80
3, 191228, Note_off_c, 1, 57, 100
3, 191232, Note_on_c, 1, 63, 80
3, 191804, Note_off_c, 1, 63, 100
3, 191808, Note_on_c, 1, 67, 80
3, 191996, Note_off_c, 1, 67, 100
3, 192000, Note_on_c, 1, 60, 80
3, 192188, Note_off_c, 1, 60, 100
3, 192192, Note_on_c, 1, 63, 80
3, 192380, Note_off_c, 1, 63, 100
3, 192384, Note_on_c, 1, 57, 80
3, 192764, Note_off_c, 1, 57, 100
3, 192768, Note_on_c, 1, 66, 80
3, 193148, Note_off_c, 1, 66, 100
3, 193152, Note_on_c, 1, 65, 80
3, 193916, Note_off_c, 1, 65, 100
3, 193920, Note_on_c, 1, 58, 80
3, 193920, Note_on_c, 1, 62, 80
3, 194492, Note_off_c, 1, 58, 100
3, 194492, Note_off_c, 1, 62, 100
3, 194496, Note_on_c, 1, 60, 80
3, 194496, Note_on_c, 1, 57, 80
3, 194684, Note_off_c, 1, 60, 100
3, 194684, Note_off_c, 1, 57, 100
3, 194688, Note_on_c, 1, 62, 80
3, 194688, Note_on_c, 1, 58, 80
3, 194876, Note_off_c, 1, 62, 100
3, 194876, Note_off_c, 1, 58, 100
3, 194880, Note_on_c, 1, 65, 80
3, 194880, Note_on_c, 1, 62, 80
3, 195068, Note_off_c, 1, 65, 100
3, 195068, Note_off_c, 1, 62, 100
3, 195072, Note_on_c, 1, 60, 80
3, 195072, Note_on_c, 1, 57, 80
3, 195260, Note_off_c, 1, 60, 100
3, 195260, Note_off_c, 1, 57, 100
3, 195264, Note_on_c, 1, 62, 80
3, 195264, Note_on_c, 1, 58, 80
3, 195452, Note_off_c, 1, 62, 100
3, 195452, Note_off_c, 1, 58, 100
3, 195456, Note_on_c, 1, 63, 80
3, 195456, Note_on_c, 1, 60, 80
3, 195644, Note_off_c, 1, 60, 100
3, 195648, Note_on_c, 1, 55, 80
3, 195836, Note_off_c, 1, 55, 100
3, 195840, Note_on_c, 1, 57, 80
3, 196028, Note_off_c, 1, 63, 100
3, 196028, Note_off_c, 1, 57, 100
3, 196032, Note_on_c, 1, 58, 80
3, 196032, Note_on_c, 1, 62, 80
3, 196220, Note_off_c, 1, 58, 100
3, 196220, Note_off_c, 1, 62, 100
3, 196224, Note_on_c, 1, 60, 80
3, 196224, Note_on_c, 1, 51, 80
3, 196412, Note_off_c, 1, 51, 100
3, 196416, Note_on_c, 1, 53, 80
3, 196604, Note_off_c, 1, 53, 100
3, 196608, Note_on_c, 1, 55, 80
3, 196796, Note_off_c, 1, 60, 100
3, 196796, Note_off_c, 1, 55, 100
3, 196800, Note_on_c, 1, 50, 80
3, 196800, Note_on_c, 1, 58, 80
3, 196988, Note_off_c, 1, 50, 100
3, 196988, Note_off_c, 1, 58, 100
3, 196992, Note_on_c, 1, 63, 80
3, 196992, Note_on_c, 1, 72, 80
3, 197180, Note_off_c, 1, 72, 100
3, 197184, Note_on_c, 1, 67, 80
3, 197372, Note_off_c, 1, 67, 100
3, 197376, Note_on_c, 1, 69, 80
3, 197564, Note_off_c, 1, 63, 100
3, 197564, Note_off_c, 1, 69, 100
3, 197568, Note_on_c, 1, 70, 80
3, 197568, Note_on_c, 1, 62, 80
3, 197756, Note_off_c, 1, 70, 100
3, 197756, Note_off_c, 1, 62, 100
3, 197760, Note_on_c, 1, 60, 80
3, 197760, Note_on_c, 1, 63, 80
3, 197948, Note_off_c, 1, 63, 100
3, 197952, Note_on_c, 1, 65, 80
3, 198140, Note_off_c, 1, 65, 100
3, 198144, Note_on_c, 1, 67, 80
3, 198332, Note_off_c, 1, 60, 100
3, 198332, Note_off_c, 1, 67, 100
3, 198336, Note_on_c, 1, 62, 80
3, 198336, Note_on_c, 1, 58, 80
3, 198524, Note_off_c, 1, 62, 100
3, 198524, Note_off_c, 1, 58, 100
3, 198528, Note_on_c, 1, 48, 80
3, 198716, Note_off_c, 1, 48, 100
3, 198720, Note_on_c, 1, 51, 80
3, 198908, Note_off_c, 1, 51, 100
3, 198912, Note_on_c, 1, 53, 80
3, 199100, Note_off_c, 1, 53, 100
3, 199104, Note_on_c, 1, 51, 80
3, 199292, Note_off_c, 1, 51, 100
3, 199296, Note_on_c, 1, 45, 80
3, 199868, Note_off_c, 1, 45, 100
3, 199872, Note_on_c, 1, 54, 80
3, 200060, Note_off_c, 1, 54, 100
3, 200064, Note_on_c, 1, 53, 80
3, 200252, Note_off_c, 1, 53, 100
3, 200256, Note_on_c, 1, 50, 80
3, 200444, Note_off_c, 1, 50, 100
3, 200448, Note_on_c, 1, 51, 80
3, 200636, Note_off_c, 1, 51, 100
3, 200640, Note_on_c, 1, 63, 80
3, 200828, Note_off_c, 1, 63, 100
3, 200832, Note_on_c, 1, 63, 80
3, 201404, Note_off_c, 1, 63, 100
3, 201408, Note_on_c, 1, 57, 80
3, 201596, Note_off_c, 1, 57, 100
3, 201600, Note_on_c, 1, 60, 80
3, 201788, Note_off_c, 1, 60, 100
3, 201792, Note_on_c, 1, 63, 80
3, 201980, Note_off_c, 1, 63, 100
3, 201984, Note_on_c, 1, 65, 80
3, 202172, Note_off_c, 1, 65, 100
3, 202176, Note_on_c, 1, 66, 80
3, 202364, Note_off_c, 1, 66, 100
3, 202368, Note_on_c, 1, 65, 80
3, 202940, Note_off_c, 1, 65, 100
3, 202944, Note_on_c, 1, 63, 80
3, 203132, Note_off_c, 1, 63, 100
3, 203136, Note_on_c, 1, 63, 80
3, 203324, Note_off_c, 1, 63, 100
3, 203328, Note_on_c, 1, 62, 80
3, 203516, Note_off_c, 1, 62, 100
3, 203520, Note_on_c, 1, 65, 80
3, 203708, Note_off_c, 1, 65, 100
3, 203712, Note_on_c, 1, 69, 80
3, 203900, Note_off_c, 1, 69, 100
3, 203904, Note_on_c, 1, 70, 80
3, 204092, Note_off_c, 1, 70, 100
3, 204288, Note_on_c, 1, 58, 80
3, 204476, Note_off_c, 1, 58, 100
3, 204672, Note_on_c, 1, 51, 80
3, 204860, Note_off_c, 1, 51, 100
3, 204864, Note_on_c, 1, 50, 80
3, 205052, Note_off_c, 1, 50, 100
3, 205056, Note_on_c, 1, 53, 80
3, 205244, Note_off_c, 1, 53, 100
3, 205248, Note_on_c, 1, 57, 80
3, 205436, Note_off_c, 1, 57, 100
3, 205440, Note_on_c, 1, 58, 80
3, 205628, Note_off_c, 1, 58, 100
3, 205824, Note_on_c, 1, 46, 80
3, 206012, Note_off_c, 1, 46, 100
3, 207744, Note_on_c, 1, 67, 80
3, 208316, Note_off_c, 1, 67, 100
3, 208320, Note_on_c, 1, 69, 80
3, 208412, Note_off_c, 1, 69, 100
3, 208416, Note_on_c, 1, 67, 80
3, 208508, Note_off_c, 1, 67, 100
3, 208512, Note_on_c, 1, 67, 80
3, 209084, Note_off_c, 1, 67, 100
3, 209088, Note_on_c, 1, 69, 80
3, 209180, Note_off_c, 1, 69, 100
3, 209184, Note_on_c, 1, 67, 80
3, 209276, Note_off_c, 1, 67, 100
3, 209280, Note_on_c, 1, 67, 80
3, 209280, Note_on_c, 1, 60, 80
3, 209852, Note_off_c, 1, 67, 100
3, 209856, Note_on_c, 1, 68, 80
3, 209948, Note_off_c, 1, 68, 100
3, 209952, Note_on_c, 1, 67, 80
3, 210044, Note_off_c, 1, 67, 100
3, 210048, Note_on_c, 1, 67, 80
3, 210620, Note_off_c, 1, 67, 100
3, 210624, Note_on_c, 1, 68, 80
3, 210716, Note_off_c, 1, 68, 100
3, 210720, Note_on_c, 1, 67, 80
3, 210812, Note_off_c, 1, 60, 100
3, 210812, Note_off_c, 1, 67, 100
3, 210816, Note_on_c, 1, 36, 80
3, 211388, Note_off_c, 1, 36, 100
3, 211392, Note_on_c, 1, 37, 80
3, 211484, Note_off_c, 1, 37, 100
3, 211488, Note_on_c, 1, 36, 80
3, 211580, Note_off_c, 1, 36, 100
3, 211584, Note_on_c, 1, 36, 80
3, 212156, Note_off_c, 1, 36, 100
3, 212160, Note_on_c, 1, 37, 80
3, 212252, Note_off_c, 1, 37, 100
3, 212256, Note_on_c, 1, 36, 80
3, 212348, Note_off_c, 1, 36, 100
3, 212352, Note_on_c, 1, 36, 80
3, 212924, Note_off_c, 1, 36, 100
3, 212928, Note_on_c, 1, 37, 80
3, 213020, Note_off_c, 1, 37, 100
3, 213024, Note_on_c, 1, 36, 80
3, 213116, Note_off_c, 1, 36, 100
3, 213120, Note_on_c, 1, 36, 80
3, 213692, Note_off_c, 1, 36, 100
3, 213696, Note_on_c, 1, 37, 80
3, 213788, Note_off_c, 1, 37, 100
3, 213792, Note_on_c, 1, 36, 80
3, 213884, Note_off_c, 1, 36, 100
3, 213888, Note_on_c, 1, 36, 80
3, 214460, Note_off_c, 1, 36, 100
3, 214464, Note_on_c, 1, 37, 80
3, 214556, Note_off_c, 1, 37, 100
3, 214560, Note_on_c, 1, 36, 80
3, 214652, Note_off_c, 1, 36, 100
3, 214656, Note_on_c, 1, 36, 80
3, 215228, Note_off_c, 1, 36, 100
3, 215232, Note_on_c, 1, 37, 80
3, 215324, Note_off_c, 1, 37, 100
3, 215328, Note_on_c, 1, 36, 80
3, 215420, Note_off_c, 1, 36, 100
3, 215424, Note_on_c, 1, 36, 80
3, 215996, Note_off_c, 1, 36, 100
3, 216000, Note_on_c, 1, 37, 80
3, 216092, Note_off_c, 1, 37, 100
3, 216096, Note_on_c, 1, 36, 80
3, 216188, Note_off_c, 1, 36, 100
3, 216192, Note_on_c, 1, 36, 80
3, 216764, Note_off_c, 1, 36, 100
3, 216768, Note_on_c, 1, 37, 80
3, 216860, Note_off_c, 1, 37, 100
3, 216864, Note_on_c, 1, 36, 80
3, 216956, Note_off_c, 1, 36, 100
3, 216960, Note_on_c, 1, 36, 80
3, 217084, Note_off_c, 1, 36, 100
3, 217088, Note_on_c, 1, 48, 80
3, 217212, Note_off_c, 1, 48, 100
3, 217216, Note_on_c, 1, 36, 80
3, 217340, Note_off_c, 1, 36, 100
3, 217344, Note_on_c, 1, 48, 80
3, 217468, Note_off_c, 1, 48, 100
3, 217472, Note_on_c, 1, 36, 80
3, 217596, Note_off_c, 1, 36, 100
3, 217600, Note_on_c, 1, 48, 81
3, 217724, Note_off_c, 1, 48, 100
3, 217728, Note_on_c, 1, 36, 82
3, 217852, Note_off_c, 1, 36, 100
3, 217856, Note_on_c, 1, 48, 82
3, 217980, Note_off_c, 1, 48, 100
3, 217984, Note_on_c, 1, 36, 83
3, 218108, Note_off_c, 1, 36, 100
3, 218112, Note_on_c, 1, 48, 84
3, 218236, Note_off_c, 1, 48, 100
3, 218240, Note_on_c, 1, 36, 84
3, 218364, Note_off_c, 1, 36, 100
3, 218368, Note_on_c, 1, 48, 85
3, 218492, Note_off_c, 1, 48, 100
3, 218496, Note_on_c, 1, 36, 86
3, 218620, Note_off_c, 1, 36, 100
3, 218624, Note_on_c, 1, 48, 86
3, 218748, Note_off_c, 1, 48, 100
3, 218752, Note_on_c, 1, 36, 87
3, 218876, Note_off_c, 1, 36, 100
3, 218880, Note_on_c, 1, 48, 88
3, 219004, Note_off_c, 1, 48, 100
3, 219008, Note_on_c, 1, 36, 88
3, 219132, Note_off_c, 1, 36, 100
3, 219136, Note_on_c, 1, 48, 89
3, 219260, Note_off_c, 1, 48, 100
3, 219264, Note_on_c, 1, 36, 90
3, 219388, Note_off_c, 1, 36, 100
3, 219392, Note_on_c, 1, 48, 91
3, 219516, Note_off_c, 1, 48, 100
3, 219520, Note_on_c, 1, 36, 91
3, 219644, Note_off_c, 1, 36, 100
3, 219648, Note_on_c, 1, 48, 92
3, 219772, Note_off_c, 1, 48, 100
3, 219776, Note_on_c, 1, 36, 93
3, 219900, Note_off_c, 1, 36, 100
3, 219904, Note_on_c, 1, 48, 93
3, 220028, Note_off_c, 1, 48, 100
3, 220032, Note_on_c, 1, 36, 94
3, 220156, Note_off_c, 1, 36, 100
3, 220160, Note_on_c, 1, 48, 95
3, 220284, Note_off_c, 1, 48, 100
3, 220288, Note_on_c, 1, 36, 95
3, 220412, Note_off_c, 1, 36, 100
3, 220416, Note_on_c, 1, 48, 96
3, 220540, Note_off_c, 1, 48, 100
3, 220544, Note_on_c, 1, 36, 97
3, 220668, Note_off_c, 1, 36, 100
3, 220672, Note_on_c, 1, 48, 97
3, 220796, Note_off_c, 1, 48, 100
3, 220800, Note_on_c, 1, 36, 98
3, 220924, Note_off_c, 1, 36, 100
3, 220928, Note_on_c, 1, 48, 99
3, 221052, Note_off_c, 1, 48, 100
3, 221056, Note_on_c, 1, 36, 99
3, 221180, Note_off_c, 1, 36, 100
3, 221184, Note_on_c, 1, 48, 100
3, 221308, Note_off_c, 1, 48, 100
3, 221312, Note_on_c, 1, 36, 101
3, 221436, Note_off_c, 1, 36, 100
3, 221440, Note_on_c, 1, 48, 102
3, 221564, Note_off_c, 1, 48, 100
3, 221568, Note_on_c, 1, 36, 102
3, 221692, Note_off_c, 1, 36, 100
3, 221696, Note_on_c, 1, 48, 103
3, 221820, Note_off_c, 1, 48, 100
3, 221824, Note_on_c, 1, 36, 104
3, 221948, Note_off_c, 1, 36, 100
3, 221952, Note_on_c, 1, 48, 104
3, 222076, Note_off_c, 1, 48, 100
3, 222080, Note_on_c, 1, 36, 105
3, 222204, Note_off_c, 1, 36, 100
3, 222208, Note_on_c, 1, 48, 106
3, 222332, Note_off_c, 1, 48, 100
3, 222336, Note_on_c, 1, 36, 106
3, 222460, Note_off_c, 1, 36, 100
3, 222464, Note_on_c, 1, 48, 107
3, 222588, Note_off_c, 1, 48, 100
3, 222592, Note_on_c, 1, 36, 108
3, 222716, Note_off_c, 1, 36, 100
3, 222720, Note_on_c, 1, 48, 108
3, 222908, Note_off_c, 1, 48, 100
3, 223008, Note_on_c, 1, 41, 110
3, 223008, Note_on_c, 1, 29, 110
3, 223100, Note_off_c, 1, 41, 100
3, 223100, Note_off_c, 1, 29, 100
3, 223104, Note_on_c, 1, 41, 110
3, 223104, Note_on_c, 1, 29, 110
3, 223292, Note_off_c, 1, 41, 100
3, 223292, Note_off_c, 1, 29, 100
3, 223392, Note_on_c, 1, 41, 110
3, 223484, Note_off_c, 1, 41, 100
3, 223488, Note_on_c, 1, 53, 110
3, 223676, Note_off_c, 1, 53, 100
3, 223776, Note_on_c, 1, 53, 110
3, 223868, Note_off_c, 1, 53, 100
3, 223872, Note_on_c, 1, 65, 110
3, 224060, Note_off_c, 1, 65, 100
3, 224256, Note_on_c, 1, 41, 80
3, 224444, Note_off_c, 1, 41, 100
3, 224544, Note_on_c, 1, 41, 80
3, 224636, Note_off_c, 1, 41, 100
3, 224640, Note_on_c, 1, 40, 80
3, 225020, Note_off_c, 1, 40, 100
3, 225024, Note_on_c, 1, 64, 80
3, 225212, Note_off_c, 1, 64, 100
3, 225312, Note_on_c, 1, 64, 80
3, 225404, Note_off_c, 1, 64, 100
3, 225408, Note_on_c, 1, 63, 80
3, 225788, Note_off_c, 1, 63, 100
3, 225792, Note_on_c, 1, 39, 80
3, 225980, Note_off_c, 1, 39, 100
3, 226080, Note_on_c, 1, 39, 80
3, 226172, Note_off_c, 1, 39, 100
3, 226176, Note_on_c, 1, 38, 80
3, 226556, Note_off_c, 1, 38, 100
3, 226560, Note_on_c, 1, 62, 80
3, 226748, Note_off_c, 1, 62, 100
3, 226848, Note_on_c, 1, 62, 80
3, 226940, Note_off_c, 1, 62, 100
3, 226944, Note_on_c, 1, 61, 80
3, 227324, Note_off_c, 1, 61, 100
3, 227328, Note_on_c, 1, 37, 80
3, 227516, Note_off_c, 1, 37, 100
3, 227616, Note_on_c, 1, 37, 80
3, 227708, Note_off_c, 1, 37, 100
3, 227712, Note_on_c, 1, 36, 80
3, 228092, Note_off_c, 1, 36, 100
3, 228096, Note_on_c, 1, 67, 80
3, 228096, Note_on_c, 1, 60, 80
3, 228380, Note_off_c, 1, 67, 100
3, 228384, Note_on_c, 1, 65, 80
3, 228476, Note_off_c, 1, 65, 100
3, 228480, Note_on_c, 1, 64, 80
3, 228860, Note_off_c, 1, 64, 100
3, 228864, Note_on_c, 1, 65, 80
3, 229148, Note_off_c, 1, 65, 100
3, 229152, Note_on_c, 1, 69, 80
3, 229244, Note_off_c, 1, 69, 100
3, 229248, Note_on_c, 1, 70, 80
3, 229532, Note_off_c, 1, 70, 100
3, 229536, Note_on_c, 1, 67, 80
3, 229628, Note_off_c, 1, 60, 100
3, 229628, Note_off_c, 1, 67, 100
3, 229632, Note_on_c, 1, 69, 80
3, 229820, Note_off_c, 1, 69, 100
3, 229920, Note_on_c, 1, 65, 80
3, 230012, Note_off_c, 1, 65, 100
3, 230016, Note_on_c, 1, 64, 80
3, 230204, Note_off_c, 1, 64, 100
3, 230304, Note_on_c, 1, 63, 80
3, 230396, Note_off_c, 1, 63, 100
3, 230400, Note_on_c, 1, 62, 80
3, 230588, Note_off_c, 1, 62, 100
3, 230688, Note_on_c, 1, 61, 80
3, 230780, Note_off_c, 1, 61, 100
3, 230784, Note_on_c, 1, 48, 80
3, 231168, Note_on_c, 1, 55, 80
3, 231452, Note_off_c, 1, 55, 100
3, 231456, Note_on_c, 1, 53, 80
3, 231548, Note_off_c, 1, 53, 100
3, 231552, Note_on_c, 1, 52, 80
3, 231932, Note_off_c, 1, 52, 100
3, 231936, Note_on_c, 1, 53, 80
3, 232316, Note_off_c, 1, 48, 100
3, 232316, Note_off_c, 1, 53, 100
3, 232320, Note_on_c, 1, 52, 83
3, 232320, Note_on_c, 1, 46, 83
3, 232700, Note_off_c, 1, 52, 100
3, 232700, Note_off_c, 1, 46, 100
3, 232704, Note_on_c, 1, 53, 86
3, 232704, Note_on_c, 1, 45, 86
3, 232892, Note_off_c, 1, 53, 100
3, 232892, Note_off_c, 1, 45, 100
3, 232992, Note_on_c, 1, 54, 88
3, 232992, Note_on_c, 1, 44, 88
3, 233084, Note_off_c, 1, 54, 100
3, 233084, Note_off_c, 1, 44, 100
3, 233088, Note_on_c, 1, 55, 89
3, 233088, Note_on_c, 1, 43, 89
3, 233468, Note_off_c, 1, 55, 100
3, 233468, Note_off_c, 1, 43, 100
3, 233472, Note_on_c, 1, 54, 92
3, 233472, Note_on_c, 1, 42, 92
3, 233660, Note_off_c, 1, 54, 100
3, 233660, Note_off_c, 1, 42, 100
3, 233760, Note_on_c, 1, 54, 94
3, 233760, Note_on_c, 1, 42, 94
3, 233852, Note_off_c, 1, 54, 100
3, 233852, Note_off_c, 1, 42, 100
3, 233856, Note_on_c, 1, 55, 80
3, 233856, Note_on_c, 1, 43, 80
3, 234236, Note_off_c, 1, 55, 100
3, 234236, Note_off_c, 1, 43, 100
3, 234240, Note_on_c, 1, 43, 80
3, 234240, Note_on_c, 1, 31, 80
3, 234428, Note_off_c, 1, 43, 100
3, 234428, Note_off_c, 1, 31, 100
3, 234528, Note_on_c, 1, 43, 80
3, 234528, Note_on_c, 1, 31, 80
3, 234620, Note_off_c, 1, 43, 100
3, 234620, Note_off_c, 1, 31, 100
3, 234624, Note_on_c, 1, 48, 80
3, 234624, Note_on_c, 1, 36, 80
3, 234812, Note_off_c, 1, 48, 100
3, 234812, Note_off_c, 1, 36, 100
3, 234912, Note_on_c, 1, 46, 80
3, 234912, Note_on_c, 1, 33, 80
3, 235004, Note_off_c, 1, 46, 100
3, 235004, Note_off_c, 1, 33, 100
3, 235008, Note_on_c, 1, 43, 80
3, 235008, Note_on_c, 1, 31, 80
3, 235196, Note_off_c, 1, 43, 100
3, 235196, Note_off_c, 1, 31, 100
3, 235296, Note_on_c, 1, 67, 80
3, 235296, Note_on_c, 1, 55, 80
3, 235388, Note_off_c, 1, 67, 100
3, 235388, Note_off_c, 1, 55, 100
3, 235392, Note_on_c, 1, 67, 80
3, 235392, Note_on_c, 1, 55, 80
3, 235676, Note_off_c, 1, 67, 100
3, 235680, Note_on_c, 1, 66, 80
3, 235772, Note_off_c, 1, 66, 100
3, 235776, Note_on_c, 1, 65, 80
3, 235964, Note_off_c, 1, 65, 100
3, 236064, Note_on_c, 1, 65, 80
3, 236064, Note_on_c, 1, 55, 80
3, 236156, Note_off_c, 1, 55, 100
3, 236156, Note_off_c, 1, 65, 100
3, 236156, Note_off_c, 1, 55, 100
3, 236160, Note_on_c, 1, 64, 80
3, 236160, Note_on_c, 1, 60, 80
3, 236540, Note_off_c, 1, 64, 100
3, 236540, Note_off_c, 1, 60, 100
3, 236832, Note_on_c, 1, 57, 80
3, 236832, Note_on_c, 1, 53, 80
3, 236832, Note_on_c, 1, 48, 80
3, 236924, Note_off_c, 1, 57, 100
3, 236924, Note_off_c, 1, 53, 100
3, 236924, Note_off_c, 1, 48, 100
3, 236928, Note_on_c, 1, 53, 80
3, 236928, Note_on_c, 1, 48, 80
3, 236928, Note_on_c, 1, 57, 80
3, 237212, Note_off_c, 1, 57, 100
3, 237216, Note_on_c, 1, 56, 80
3, 237308, Note_off_c, 1, 53, 100
3, 237308, Note_off_c, 1, 48, 100
3, 237308, Note_off_c, 1, 56, 100
3, 237312, Note_on_c, 1, 55, 80
3, 237312, Note_on_c, 1, 52, 80
3, 237312, Note_on_c, 1, 48, 80
3, 237500, Note_off_c, 1, 55, 100
3, 237500, Note_off_c, 1, 52, 100
3, 237500, Note_off_c, 1, 48, 100
3, 237600, Note_on_c, 1, 60, 80
3, 237600, Note_on_c, 1, 55, 80
3, 237600, Note_on_c, 1, 48, 80
3, 237692, Note_off_c, 1, 60, 100
3, 237692, Note_off_c, 1, 55, 100
3, 237692, Note_off_c, 1, 48, 100
3, 237696, Note_on_c, 1, 53, 80
3, 238076, Note_off_c, 1, 53, 100
3, 238368, Note_on_c, 1, 72, 80
3, 238460, Note_off_c, 1, 72, 100
3, 238464, Note_on_c, 1, 60, 80
3, 238464, Note_on_c, 1, 72, 80
3, 238748, Note_off_c, 1, 72, 100
3, 238752, Note_on_c, 1, 71, 80
3, 238844, Note_off_c, 1, 71, 100
3, 238848, Note_on_c, 1, 70, 80
3, 239036, Note_off_c, 1, 60, 100
3, 239036, Note_off_c, 1, 70, 100
3, 239136, Note_on_c, 1, 60, 80
3, 239136, Note_on_c, 1, 48, 80
3, 239228, Note_off_c, 1, 60, 100
3, 239228, Note_off_c, 1, 48, 100
3, 239232, Note_on_c, 1, 65, 80
3, 239232, Note_on_c, 1, 53, 80
3, 239420, Note_off_c, 1, 65, 100
3, 239420, Note_off_c, 1, 53, 100
3, 239520, Note_on_c, 1, 53, 80
3, 239612, Note_off_c, 1, 53, 100
3, 239616, Note_on_c, 1, 41, 80
3, 239804, Note_off_c, 1, 41, 100
3, 239904, Note_on_c, 1, 45, 120
3, 239904, Note_on_c, 1, 33, 120
3, 239996, Note_off_c, 1, 45, 100
3, 239996, Note_off_c, 1, 33, 100
3, 240000, Note_on_c, 1, 45, 120
3, 240000, Note_on_c, 1, 33, 120
3, 240380, Note_off_c, 1, 45, 100
3, 240380, Note_off_c, 1, 33, 100
3, 241056, Note_on_c, 1, 64, 80
3, 241148, Note_off_c, 1, 64, 100
3, 241152, Note_on_c, 1, 71, 80
3, 241436, Note_off_c, 1, 71, 100
3, 241440, Note_on_c, 1, 74, 80
3, 241532, Note_off_c, 1, 74, 100
3, 241536, Note_on_c, 1, 74, 80
3, 241916, Note_off_c, 1, 74, 100
3, 241920, Note_on_c, 1, 73, 80
3, 242300, Note_off_c, 1, 73, 100
3, 242592, Note_on_c, 1, 52, 80
3, 242684, Note_off_c, 1, 52, 100
3, 242688, Note_on_c, 1, 59, 80
3, 242972, Note_off_c, 1, 59, 100
3, 242976, Note_on_c, 1, 62, 80
3, 243068, Note_off_c, 1, 62, 100
3, 243072, Note_on_c, 1, 62, 80
3, 243452, Note_off_c, 1, 62, 100
3, 243456, Note_on_c, 1, 61, 81
3, 243836, Note_off_c, 1, 61, 100
3, 244128, Note_on_c, 1, 70, 88
3, 244128, Note_on_c, 1, 67, 88
3, 244220, Note_off_c, 1, 70, 100
3, 244220, Note_off_c, 1, 67, 100
3, 244224, Note_on_c, 1, 69, 89
3, 244224, Note_on_c, 1, 65, 89
3, 244412, Note_off_c, 1, 69, 100
3, 244412, Note_off_c, 1, 65, 100
3, 244512, Note_on_c, 1, 67, 92
3, 244512, Note_on_c, 1, 64, 92
3, 244604, Note_off_c, 1, 67, 100
3, 244604, Note_off_c, 1, 64, 100
3, 244608, Note_on_c, 1, 67, 93
3, 244608, Note_on_c, 1, 64, 93
3, 244988, Note_off_c, 1, 67, 100
3, 244988, Note_off_c, 1, 64, 100
3, 244992, Note_on_c, 1, 57, 98
3, 244992, Note_on_c, 1, 45, 98
3, 245372, Note_off_c, 1, 57, 100
3, 245372, Note_off_c, 1, 45, 100
3, 245760, Note_on_c, 1, 61, 106
3, 246140, Note_off_c, 1, 61, 100
3, 246144, Note_on_c, 1, 62, 110
3, 246332, Note_off_c, 1, 62, 100
3, 246432, Note_on_c, 1, 57, 110
3, 246524, Note_off_c, 1, 57, 100
3, 246528, Note_on_c, 1, 62, 110
3, 246716, Note_off_c, 1, 62, 100
3, 246816, Note_on_c, 1, 53, 110
3, 246908, Note_off_c, 1, 53, 100
3, 246912, Note_on_c, 1, 57, 110
3, 247100, Note_off_c, 1, 57, 100
3, 247200, Note_on_c, 1, 50, 110
3, 247292, Note_off_c, 1, 50, 100
3, 247296, Note_on_c, 1, 57, 110
3, 247484, Note_off_c, 1, 57, 100
3, 247584, Note_on_c, 1, 48, 110
3, 247676, Note_off_c, 1, 48, 100
3, 247680, Note_on_c, 1, 55, 110
3, 247680, Note_on_c, 1, 47, 110
3, 248060, Note_off_c, 1, 55, 100
3, 248060, Note_off_c, 1, 47, 100
3, 248064, Note_on_c, 1, 43, 110
3, 248064, Note_on_c, 1, 31, 110
3, 248444, Note_off_c, 1, 43, 100
3, 248444, Note_off_c, 1, 31, 100
3, 248832, Note_on_c, 1, 59, 110
3, 249212, Note_off_c, 1, 59, 100
3, 249216, Note_on_c, 1, 60, 110
3, 249404, Note_off_c, 1, 60, 100
3, 249504, Note_on_c, 1, 55, 110
3, 249596, Note_off_c, 1, 55, 100
3, 249600, Note_on_c, 1, 60, 110
3, 249788, Note_off_c, 1, 60, 100
3, 249888, Note_on_c, 1, 53, 110
3, 249980, Note_off_c, 1, 53, 100
3, 249984, Note_on_c, 1, 57, 110
3, 250172, Note_off_c, 1, 57, 100
3, 250272, Note_on_c, 1, 50, 110
3, 250364, Note_off_c, 1, 50, 100
3, 250368, Note_on_c, 1, 53, 110
3, 250556, Note_off_c, 1, 53, 100
3, 250656, Note_on_c, 1, 41, 110
3, 250748, Note_off_c, 1, 41, 100
3, 250752, Note_on_c, 1, 52, 121
3, 250752, Note_on_c, 1, 40, 120
3, 251132, Note_off_c, 1, 52, 100
3, 251132, Note_off_c, 1, 40, 100
3, 251808, Note_on_c, 1, 57, 80
3, 251900, Note_off_c, 1, 57, 100
3, 251904, Note_on_c, 1, 62, 80
3, 251904, Note_on_c, 1, 58, 80
3, 252188, Note_off_c, 1, 62, 100
3, 252192, Note_on_c, 1, 65, 80
3, 252192, Note_on_c, 1, 57, 80
3, 252284, Note_off_c, 1, 58, 100
3, 252284, Note_off_c, 1, 65, 100
3, 252284, Note_off_c, 1, 57, 100
3, 252288, Note_on_c, 1, 59, 80
3, 252288, Note_on_c, 1, 56, 80
3, 252668, Note_off_c, 1, 59, 100
3, 252668, Note_off_c, 1, 56, 100
3, 253344, Note_on_c, 1, 57, 80
3, 253436, Note_off_c, 1, 57, 100
3, 253440, Note_on_c, 1, 57, 80
3, 253440, Note_on_c, 1, 61, 80
3, 253724, Note_off_c, 1, 57, 100
3, 253724, Note_off_c, 1, 61, 100
3, 253728, Note_on_c, 1, 64, 80
3, 253728, Note_on_c, 1, 55, 80
3, 253820, Note_off_c, 1, 64, 100
3, 253820, Note_off_c, 1, 55, 100
3, 253824, Note_on_c, 1, 57, 80
3, 253824, Note_on_c, 1, 53, 80
3, 254012, Note_off_c, 1, 57, 100
3, 254012, Note_off_c, 1, 53, 100
3, 254112, Note_on_c, 1, 64, 80
3, 254112, Note_on_c, 1, 67, 80
3, 254204, Note_off_c, 1, 64, 100
3, 254204, Note_off_c, 1, 67, 100
3, 254208, Note_on_c, 1, 70, 80
3, 254208, Note_on_c, 1, 67, 80
3, 254492, Note_off_c, 1, 70, 100
3, 254492, Note_off_c, 1, 67, 100
3, 254496, Note_on_c, 1, 69, 80
3, 254496, Note_on_c, 1, 65, 80
3, 254588, Note_off_c, 1, 69, 100
3, 254588, Note_off_c, 1, 65, 100
3, 254592, Note_on_c, 1, 69, 80
3, 254592, Note_on_c, 1, 65, 80
3, 255644, Note_off_c, 1, 65, 100
3, 255644, Note_off_c, 1, 69, 100
3, 255648, Note_on_c, 1, 65, 80
3, 255648, Note_on_c, 1, 62, 80
3, 255740, Note_off_c, 1, 65, 100
3, 255740, Note_off_c, 1, 62, 100
3, 255744, Note_on_c, 1, 65, 80
3, 255744, Note_on_c, 1, 69, 80
3, 256028, Note_off_c, 1, 65, 100
3, 256028, Note_off_c, 1, 69, 100
3, 256032, Note_on_c, 1, 67, 80
3, 256032, Note_on_c, 1, 64, 80
3, 256124, Note_off_c, 1, 67, 100
3, 256124, Note_off_c, 1, 64, 100
3, 256128, Note_on_c, 1, 64, 80
3, 256128, Note_on_c, 1, 67, 80
3, 256892, Note_off_c, 1, 64, 100
3, 256892, Note_off_c, 1, 67, 100
3, 256896, Note_on_c, 1, 65, 80
3, 256896, Note_on_c, 1, 62, 80
3, 257084, Note_off_c, 1, 65, 100
3, 257084, Note_off_c, 1, 62, 100
3, 257184, Note_on_c, 1, 38, 80
3, 257276, Note_off_c, 1, 38, 100
3, 257280, Note_on_c, 1, 41, 80
3, 257564, Note_off_c, 1, 41, 100
3, 257568, Note_on_c, 1, 39, 80
3, 257660, Note_off_c, 1, 39, 100
3, 257664, Note_on_c, 1, 39, 80
3, 258716, Note_off_c, 1, 39, 100
3, 258720, Note_on_c, 1, 36, 80
3, 258812, Note_off_c, 1, 36, 100
3, 258816, Note_on_c, 1, 39, 80
3, 259100, Note_off_c, 1, 39, 100
3, 259104, Note_on_c, 1, 38, 80
3, 259196, Note_off_c, 1, 38, 100
3, 259200, Note_on_c, 1, 38, 80
3, 259580, Note_off_c, 1, 38, 100
3, 259584, Note_on_c, 1, 34, 80
3, 259964, Note_off_c, 1, 34, 100
3, 259968, Note_on_c, 1, 33, 80
3, 260348, Note_off_c, 1, 33, 100
3, 260352, Note_on_c, 1, 38, 80
3, 260540, Note_off_c, 1, 38, 100
3, 260544, Note_on_c, 1, 32, 80
3, 260732, Note_off_c, 1, 32, 100
3, 260736, Note_on_c, 1, 31, 80
3, 261116, Note_off_c, 1, 31, 100
3, 261120, Note_on_c, 1, 38, 80
3, 261788, Note_off_c, 1, 38, 100
3, 261792, Note_on_c, 1, 34, 80
3, 261884, Note_off_c, 1, 34, 100
3, 261888, Note_on_c, 1, 37, 80
3, 262172, Note_off_c, 1, 37, 100
3, 262176, Note_on_c, 1, 36, 80
3, 262268, Note_off_c, 1, 36, 100
3, 262272, Note_on_c, 1, 36, 80
3, 263324, Note_off_c, 1, 36, 100
3, 263328, Note_on_c, 1, 33, 80
3, 263420, Note_off_c, 1, 33, 100
3, 263424, Note_on_c, 1, 36, 80
3, 263708, Note_off_c, 1, 36, 100
3, 263712, Note_on_c, 1, 34, 80
3, 263804, Note_off_c, 1, 34, 100
3, 263808, Note_on_c, 1, 34, 80
3, 264572, Note_off_c, 1, 34, 100
3, 264576, Note_on_c, 1, 32, 80
3, 264956, Note_off_c, 1, 32, 100
3, 264960, Note_on_c, 1, 37, 80
3, 265340, Note_off_c, 1, 37, 100
3, 265344, Note_on_c, 1, 31, 80
3, 265724, Note_off_c, 1, 31, 100
3, 265728, Note_on_c, 1, 36, 80
3, 266108, Note_off_c, 1, 36, 100
3, 266112, Note_on_c, 1, 29, 80
3, 266400, Note_on_c, 1, 51, 80
3, 266492, Note_off_c, 1, 29, 100
3, 266492, Note_off_c, 1, 51, 100
3, 266496, Note_on_c, 1, 46, 80
3, 266496, Note_on_c, 1, 54, 80
3, 266780, Note_off_c, 1, 54, 100
3, 266784, Note_on_c, 1, 53, 80
3, 266876, Note_off_c, 1, 46, 100
3, 266876, Note_off_c, 1, 53, 100
3, 266880, Note_on_c, 1, 39, 80
3, 267168, Note_on_c, 1, 51, 80
3, 267260, Note_off_c, 1, 39, 100
3, 267260, Note_off_c, 1, 51, 100
3, 267264, Note_on_c, 1, 44, 80
3, 267264, Note_on_c, 1, 54, 80
3, 267548, Note_off_c, 1, 54, 100
3, 267552, Note_on_c, 1, 53, 80
3, 267644, Note_off_c, 1, 44, 100
3, 267644, Note_off_c, 1, 53, 100
3, 267648, Control_c, 1, 64, 127
3, 267648, Note_on_c, 1, 37, 80
3, 267936, Note_on_c, 1, 61, 80
3, 268028, Note_off_c, 1, 37, 100
3, 268028, Note_off_c, 1, 61, 100
3, 268032, Note_on_c, 1, 65, 80
3, 268316, Note_off_c, 1, 65, 100
3, 268320, Note_on_c, 1, 68, 80
3, 268412, Note_off_c, 1, 68, 100
3, 268416, Note_on_c, 1, 68, 80
3, 268796, Note_off_c, 1, 68, 100
3, 268800, Note_on_c, 1, 70, 80
3, 269180, Note_off_c, 1, 70, 100
3, 269472, Note_on_c, 1, 63, 80
3, 269568, Note_on_c, 1, 66, 80
3, 269756, Note_off_c, 1, 63, 100
3, 269856, Note_on_c, 1, 70, 80
3, 269948, Note_off_c, 1, 66, 100
3, 269952, Note_on_c, 1, 70, 80
3, 270236, Note_off_c, 1, 70, 100
3, 270336, Note_on_c, 1, 72, 80
3, 270524, Note_off_c, 1, 70, 100
3, 270908, Note_off_c, 1, 72, 100
3, 271008, Note_on_c, 1, 65, 80
3, 271104, Note_on_c, 1, 68, 80
3, 271292, Note_off_c, 1, 65, 100
3, 271384, Note_on_c, 1, 72, 80
3, 271484, Note_off_c, 1, 68, 100
3, 271488, Note_on_c, 1, 72, 80
3, 271572, Note_off_c, 1, 72, 100
3, 271872, Note_on_c, 1, 73, 80
3, 272060, Note_off_c, 1, 72, 100
3, 272636, Note_off_c, 1, 73, 100
3, 273024, Note_on_c, 1, 49, 80
3, 273024, Note_on_c, 1, 37, 80
3, 273784, Control_c, 1, 64, 0
3, 273788, Note_off_c, 1, 49, 100
3, 273788, Note_off_c, 1, 37, 100
3, 273792, Note_on_c, 1, 48, 80
3, 273792, Note_on_c, 1, 36, 80
3, 274556, Note_off_c, 1, 48, 100
3, 274556, Note_off_c, 1, 36, 100
3, 274560, Note_on_c, 1, 49, 80
3, 274560, Note_on_c, 1, 37, 80
3, 275324, Note_off_c, 1, 49, 100
3, 275324, Note_off_c, 1, 37, 100
3, 275328, Note_on_c, 1, 48, 80
3, 275328, Note_on_c, 1, 36, 80
3, 276092, Note_off_c, 1, 48, 100
3, 276092, Note_off_c, 1, 36, 100
3, 276096, Note_on_c, 1, 49, 80
3, 276096, Note_on_c, 1, 37, 80
3, 276860, Note_off_c, 1, 49, 100
3, 276860, Note_off_c, 1, 37, 100
3, 276864, Note_on_c, 1, 36, 80
3, 276988, Note_off_c, 1, 36, 100
3, 276992, Note_on_c, 1, 48, 80
3, 277116, Note_off_c, 1, 48, 100
3, 277120, Note_on_c, 1, 36, 81
3, 277244, Note_off_c, 1, 36, 100
3, 277248, Note_on_c, 1, 48, 81
3, 277372, Note_off_c, 1, 48, 100
3, 277376, Note_on_c, 1, 36, 82
3, 277500, Note_off_c, 1, 36, 100
3, 277504, Note_on_c, 1, 48, 83
3, 277628, Note_off_c, 1, 48, 100
3, 277632, Note_on_c, 1, 36, 83
3, 277756, Note_off_c, 1, 36, 100
3, 277760, Note_on_c, 1, 48, 84
3, 277884, Note_off_c, 1, 48, 100
3, 277888, Note_on_c, 1, 36, 85
3, 278012, Note_off_c, 1, 36, 100
3, 278016, Note_on_c, 1, 48, 85
3, 278140, Note_off_c, 1, 48, 100
3, 278144, Note_on_c, 1, 36, 86
3, 278268, Note_off_c, 1, 36, 100
3, 278272, Note_on_c, 1, 48, 87
3, 278396, Note_off_c, 1, 48, 100
3, 278400, Note_on_c, 1, 36, 87
3, 278524, Note_off_c, 1, 36, 100
3, 278528, Note_on_c, 1, 48, 88
3, 278652, Note_off_c, 1, 48, 100
3, 278656, Note_on_c, 1, 36, 89
3, 278780, Note_off_c, 1, 36, 100
3, 278784, Note_on_c, 1, 48, 89
3, 278908, Note_off_c, 1, 48, 100
3, 278912, Note_on_c, 1, 36, 90
3, 279036, Note_off_c, 1, 36, 100
3, 279040, Note_on_c, 1, 48, 90
3, 279164, Note_off_c, 1, 48, 100
3, 279168, Note_on_c, 1, 36, 91
3, 279292, Note_off_c, 1, 36, 100
3, 279296, Note_on_c, 1, 48, 92
3, 279420, Note_off_c, 1, 48, 100
3, 279424, Note_on_c, 1, 36, 92
3, 279548, Note_off_c, 1, 36, 100
3, 279552, Note_on_c, 1, 48, 93
3, 279676, Note_off_c, 1, 48, 100
3, 279680, Note_on_c, 1, 36, 94
3, 279804, Note_off_c, 1, 36, 100
3, 279808, Note_on_c, 1, 48, 94
3, 279932, Note_off_c, 1, 48, 100
3, 279936, Note_on_c, 1, 48, 95
3, 280060, Note_off_c, 1, 48, 100
3, 280064, Note_on_c, 1, 60, 96
3, 280188, Note_off_c, 1, 60, 100
3, 280192, Note_on_c, 1, 48, 96
3, 280316, Note_off_c, 1, 48, 100
3, 280320, Note_on_c, 1, 60, 97
3, 280444, Note_off_c, 1, 60, 100
3, 280448, Note_on_c, 1, 48, 98
3, 280572, Note_off_c, 1, 48, 100
3, 280576, Note_on_c, 1, 60, 98
3, 280700, Note_off_c, 1, 60, 100
3, 280704, Note_on_c, 1, 48, 99
3, 280828, Note_off_c, 1, 48, 100
3, 280832, Note_on_c, 1, 60, 100
3, 280956, Note_off_c, 1, 60, 100
3, 280960, Note_on_c, 1, 48, 100
3, 281084, Note_off_c, 1, 48, 100
3, 281088, Note_on_c, 1, 60, 101
3, 281212, Note_off_c, 1, 60, 100
3, 281216, Note_on_c, 1, 48, 101
3, 281340, Note_off_c, 1, 48, 100
3, 281344, Note_on_c, 1, 60, 102
3, 281468, Note_off_c, 1, 60, 100
3, 281472, Note_on_c, 1, 60, 103
3, 281596, Note_off_c, 1, 60, 100
3, 281600, Note_on_c, 1, 70, 103
3, 281724, Note_off_c, 1, 70, 100
3, 281728, Note_on_c, 1, 67, 104
3, 281852, Note_off_c, 1, 67, 100
3, 281856, Note_on_c, 1, 69, 105
3, 281980, Note_off_c, 1, 69, 100
3, 281984, Note_on_c, 1, 60, 105
3, 282108, Note_off_c, 1, 60, 100
3, 282112, Note_on_c, 1, 72, 106
3, 282236, Note_off_c, 1, 72, 100
3, 282240, Note_on_c, 1, 64, 107
3, 282364, Note_off_c, 1, 64, 100
3, 282368, Note_on_c, 1, 60, 107
3, 282492, Note_off_c, 1, 60, 100
3, 282496, Note_on_c, 1, 67, 108
3, 282620, Note_off_c, 1, 67, 100
3, 282624, Note_on_c, 1, 62, 109
3, 282748, Note_off_c, 1, 62, 100
3, 282752, Note_on_c, 1, 60, 109
3, 282876, Note_off_c, 1, 60, 100
3, 282880, Note_on_c, 1, 65, 110
3, 283004, Note_off_c, 1, 65, 100
3, 283008, Note_on_c, 1, 48, 110
3, 283008, Note_on_c, 1, 36, 110
3, 283388, Note_off_c, 1, 48, 100
3, 283388, Note_off_c, 1, 36, 100
3, 283392, Note_on_c, 1, 58, 110
3, 284060, Note_off_c, 1, 58, 100
3, 284064, Note_on_c, 1, 55, 110
3, 284156, Note_off_c, 1, 55, 100
3, 284160, Note_on_c, 1, 57, 110
3, 284444, Note_off_c, 1, 57, 100
3, 284448, Note_on_c, 1, 60, 110
3, 284540, Note_off_c, 1, 60, 100
3, 284544, Note_on_c, 1, 57, 110
3, 284828, Note_off_c, 1, 57, 100
3, 284832, Note_on_c, 1, 53, 110
3, 284924, Note_off_c, 1, 53, 100
3, 284928, Note_on_c, 1, 55, 110
3, 285212, Note_off_c, 1, 55, 100
3, 285216, Note_on_c, 1, 58, 110
3, 285308, Note_off_c, 1, 58, 100
3, 285312, Note_on_c, 1, 55, 110
3, 285596, Note_off_c, 1, 55, 100
3, 285600, Note_on_c, 1, 52, 110
3, 285692, Note_off_c, 1, 52, 100
3, 285696, Note_on_c, 1, 53, 110
3, 285980, Note_off_c, 1, 53, 100
3, 285984, Note_on_c, 1, 57, 110
3, 286076, Note_off_c, 1, 57, 100
3, 286080, Note_on_c, 1, 50, 110
3, 286364, Note_off_c, 1, 50, 100
3, 286368, Note_on_c, 1, 47, 110
3, 286460, Note_off_c, 1, 47, 100
3, 286464, Note_on_c, 1, 48, 110
3, 286748, Note_off_c, 1, 48, 100
3, 286752, Note_on_c, 1, 51, 110
3, 286844, Note_off_c, 1, 51, 100
3, 286848, Note_on_c, 1, 48, 110
3, 287132, Note_off_c, 1, 48, 100
3, 287136, Note_on_c, 1, 45, 110
3, 287228, Note_off_c, 1, 45, 100
3, 287232, Note_on_c, 1, 46, 110
3, 287516, Note_off_c, 1, 46, 100
3, 287520, Note_on_c, 1, 50, 110
3, 287612, Note_off_c, 1, 50, 100
3, 287616, Note_on_c, 1, 46, 110
3, 287900, Note_off_c, 1, 46, 100
3, 287904, Note_on_c, 1, 43, 110
3, 287996, Note_off_c, 1, 43, 100
3, 288000, Note_on_c, 1, 45, 110
3, 288284, Note_off_c, 1, 45, 100
3, 288288, Note_on_c, 1, 46, 110
3, 288380, Note_off_c, 1, 46, 100
3, 288384, Note_on_c, 1, 48, 110
3, 288668, Note_off_c, 1, 48, 100
3, 288672, Note_on_c, 1, 60, 110
3, 288764, Note_off_c, 1, 60, 100
3, 288768, Note_on_c, 1, 60, 110
3, 288956, Note_off_c, 1, 60, 100
3, 289056, Note_on_c, 1, 48, 110
3, 289148, Note_off_c, 1, 48, 100
3, 289152, Note_on_c, 1, 41, 110
3, 289532, Note_off_c, 1, 41, 100
3, 289536, Note_on_c, 1, 89, 80
3, 290208, Note_on_c, 1, 88, 80
3, 290300, Note_off_c, 1, 89, 100
3, 290300, Note_off_c, 1, 88, 100
3, 290304, Note_on_c, 1, 86, 80
3, 290588, Note_off_c, 1, 86, 100
3, 290592, Note_on_c, 1, 84, 80
3, 290684, Note_off_c, 1, 84, 100
3, 290688, Note_on_c, 1, 84, 80
3, 291068, Note_off_c, 1, 84, 100
3, 291072, Note_on_c, 1, 41, 80
3, 291072, Note_on_c, 1, 29, 80
3, 291356, Note_off_c, 1, 41, 100
3, 291356, Note_off_c, 1, 29, 100
3, 291360, Note_on_c, 1, 43, 82
3, 291360, Note_on_c, 1, 31, 82
3, 291452, Note_off_c, 1, 43, 100
3, 291452, Note_off_c, 1, 31, 100
3, 291456, Note_on_c, 1, 45, 82
3, 291456, Note_on_c, 1, 33, 82
3, 291740, Note_off_c, 1, 45, 100
3, 291740, Note_off_c, 1, 33, 100
3, 291744, Note_on_c, 1, 46, 85
3, 291744, Note_on_c, 1, 34, 85
3, 291836, Note_off_c, 1, 46, 100
3, 291836, Note_off_c, 1, 34, 100
3, 291840, Note_on_c, 1, 48, 85
3, 291840, Note_on_c, 1, 36, 85
3, 292124, Note_off_c, 1, 48, 100
3, 292124, Note_off_c, 1, 36, 100
3, 292128, Note_on_c, 1, 50, 88
3, 292128, Note_on_c, 1, 38, 88
3, 292220, Note_off_c, 1, 50, 100
3, 292220, Note_off_c, 1, 38, 100
3, 292224, Note_on_c, 1, 52, 88
3, 292224, Note_on_c, 1, 40, 88
3, 292508, Note_off_c, 1, 52, 100
3, 292508, Note_off_c, 1, 40, 100
3, 292512, Note_on_c, 1, 53, 91
3, 292512, Note_on_c, 1, 41, 91
3, 292604, Note_off_c, 1, 53, 100
3, 292604, Note_off_c, 1, 41, 100
3, 292608, Note_on_c, 1, 55, 91
3, 292608, Note_on_c, 1, 43, 91
3, 292892, Note_off_c, 1, 55, 100
3, 292892, Note_off_c, 1, 43, 100
3, 292896, Note_on_c, 1, 57, 94
3, 292896, Note_on_c, 1, 45, 94
3, 292988, Note_off_c, 1, 57, 100
3, 292988, Note_off_c, 1, 45, 100
3, 292992, Note_on_c, 1, 58, 94
3, 292992, Note_on_c, 1, 46, 94
3, 293276, Note_off_c, 1, 58, 100
3, 293276, Note_off_c, 1, 46, 100
3, 293280, Note_on_c, 1, 59, 97
3, 293280, Note_on_c, 1, 47, 97
3, 293372, Note_off_c, 1, 59, 100
3, 293372, Note_off_c, 1, 47, 100
3, 293376, Note_on_c, 1, 60, 97
3, 293376, Note_on_c, 1, 48, 97
3, 293660, Note_off_c, 1, 60, 100
3, 293660, Note_off_c, 1, 48, 100
3, 293664, Note_on_c, 1, 48, 99
3, 293664, Note_on_c, 1, 36, 99
3, 293756, Note_off_c, 1, 48, 100
3, 293756, Note_off_c, 1, 36, 100
3, 293760, Note_on_c, 1, 41, 80
3, 293760, Note_on_c, 1, 29, 80
3, 294140, Note_off_c, 1, 41, 100
3, 294140, Note_off_c, 1, 29, 100
3, 294144, Note_on_c, 1, 89, 80
3, 294816, Note_on_c, 1, 88, 80
3, 294908, Note_off_c, 1, 89, 100
3, 294908, Note_off_c, 1, 88, 100
3, 294912, Note_on_c, 1, 86, 80
3, 295196, Note_off_c, 1, 86, 100
3, 295200, Note_on_c, 1, 84, 80
3, 295292, Note_off_c, 1, 84, 100
3, 295296, Note_on_c, 1, 84, 80
3, 295676, Note_off_c, 1, 84, 100
3, 295680, Note_on_c, 1, 29, 80
3, 295772, Note_off_c, 1, 29, 100
3, 295776, Note_on_c, 1, 41, 81
3, 295868, Note_off_c, 1, 41, 100
3, 295872, Note_on_c, 1, 31, 82
3, 295964, Note_off_c, 1, 31, 100
3, 295968, Note_on_c, 1, 43, 83
3, 296060, Note_off_c, 1, 43, 100
3, 296064, Note_on_c, 1, 33, 84
3, 296156, Note_off_c, 1, 33, 100
3, 296160, Note_on_c, 1, 45, 85
3, 296252, Note_off_c, 1, 45, 100
3, 296256, Note_on_c, 1, 34, 86
3, 296348, Note_off_c, 1, 34, 100
3, 296352, Note_on_c, 1, 46, 87
3, 296444, Note_off_c, 1, 46, 100
3, 296448, Note_on_c, 1, 36, 88
3, 296540, Note_off_c, 1, 36, 100
3, 296544, Note_on_c, 1, 48, 89
3, 296636, Note_off_c, 1, 48, 100
3, 296640, Note_on_c, 1, 38, 91
3, 296732, Note_off_c, 1, 38, 100
3, 296736, Note_on_c, 1, 50, 92
3, 296828, Note_off_c, 1, 50, 100
3, 296832, Note_on_c, 1, 40, 93
3, 296924, Note_off_c, 1, 40, 100
3, 296928, Note_on_c, 1, 52, 94
3, 297020, Note_off_c, 1, 52, 100
3, 297024, Note_on_c, 1, 41, 95
3, 297116, Note_off_c, 1, 41, 100
3, 297120, Note_on_c, 1, 53, 96
3, 297212, Note_off_c, 1, 53, 100
3, 297216, Note_on_c, 1, 43, 97
3, 297308, Note_off_c, 1, 43, 100
3, 297312, Note_on_c, 1, 55, 98
3, 297404, Note_off_c, 1, 55, 100
3, 297408, Note_on_c, 1, 45, 99
3, 297500, Note_off_c, 1, 45, 100
3, 297504, Note_on_c, 1, 57, 101
3, 297596, Note_off_c, 1, 57, 100
3, 297600, Note_on_c, 1, 46, 102
3, 297692, Note_off_c, 1, 46, 100
3, 297696, Note_on_c, 1, 58, 103
3, 297788, Note_off_c, 1, 58, 100
3, 297792, Note_on_c, 1, 47, 104
3, 297884, Note_off_c, 1, 47, 100
3, 297888, Note_on_c, 1, 59, 105
3, 297980, Note_off_c, 1, 59, 100
3, 297984, Note_on_c, 1, 48, 106
3, 298076, Note_off_c, 1, 48, 100
3, 298080, Note_on_c, 1, 60, 107
3, 298172, Note_off_c, 1, 60, 100
3, 298176, Note_on_c, 1, 46, 108
3, 298268, Note_off_c, 1, 46, 100
3, 298272, Note_on_c, 1, 58, 109
3, 298364, Note_off_c, 1, 58, 100
3, 298368, Note_on_c, 1, 57, 120
3, 298368, Note_on_c, 1, 45, 120
3, 299132, Note_off_c, 1, 57, 100
3, 299132, Note_off_c, 1, 45, 100
3, 299136, Note_on_c, 1, 63, 120
3, 299136, Note_on_c, 1, 60, 120
3, 299136, Note_on_c, 1, 57, 120
3, 299900, Note_off_c, 1, 63, 100
3, 299900, Note_off_c, 1, 60, 100
3, 299900, Note_off_c, 1, 57, 100
3, 299904, Note_on_c, 1, 62, 80
3, 299904, Note_on_c, 1, 58, 80
3, 300092, Note_off_c, 1, 62, 100
3, 300092, Note_off_c, 1, 58, 100
3, 300192, Note_on_c, 1, 58, 80
3, 300284, Note_off_c, 1, 58, 100
3, 300288, Note_on_c, 1, 60, 80
3, 300476, Note_off_c, 1, 60, 100
3, 300576, Note_on_c, 1, 60, 80
3, 300668, Note_off_c, 1, 60, 100
3, 300672, Note_on_c, 1, 62, 80
3, 300860, Note_off_c, 1, 62, 100
3, 300960, Note_on_c, 1, 64, 80
3, 301052, Note_off_c, 1, 64, 100
3, 301056, Note_on_c, 1, 65, 80
3, 301244, Note_off_c, 1, 65, 100
3, 301344, Note_on_c, 1, 72, 80
3, 301344, Note_on_c, 1, 60, 80
3, 301436, Note_off_c, 1, 72, 100
3, 301436, Note_off_c, 1, 60, 100
3, 301440, Note_on_c, 1, 72, 80
3, 301724, Note_off_c, 1, 72, 100
3, 301728, Note_on_c, 1, 71, 80
3, 301820, Note_off_c, 1, 71, 100
3, 301824, Note_on_c, 1, 70, 80
3, 301824, Note_on_c, 1, 60, 80
3, 302012, Note_off_c, 1, 70, 100
3, 302012, Note_off_c, 1, 60, 100
3, 302112, Note_on_c, 1, 70, 80
3, 302112, Note_on_c, 1, 60, 80
3, 302204, Note_off_c, 1, 70, 100
3, 302204, Note_off_c, 1, 60, 100
3, 302208, Note_on_c, 1, 69, 80
3, 302208, Note_on_c, 1, 65, 80
3, 302396, Note_off_c, 1, 69, 100
3, 302396, Note_off_c, 1, 65, 100
3, 302496, Note_on_c, 1, 62, 80
3, 302588, Note_off_c, 1, 62, 100
3, 302592, Note_on_c, 1, 60, 80
3, 302780, Note_off_c, 1, 60, 100
3, 302880, Note_on_c, 1, 60, 80
3, 302880, Note_on_c, 1, 48, 80
3, 302972, Note_off_c, 1, 60, 100
3, 302972, Note_off_c, 1, 48, 100
3, 302976, Note_on_c, 1, 60, 80
3, 302976, Note_on_c, 1, 48, 80
3, 303260, Note_off_c, 1, 60, 100
3, 303264, Note_on_c, 1, 59, 80
3, 303356, Note_off_c, 1, 48, 100
3, 303356, Note_off_c, 1, 59, 100
3, 303360, Note_on_c, 1, 58, 80
3, 303360, Note_on_c, 1, 48, 80
3, 303548, Note_off_c, 1, 58, 100
3, 303548, Note_off_c, 1, 48, 100
3, 303648, Note_on_c, 1, 58, 80
3, 303648, Note_on_c, 1, 48, 80
3, 303740, Note_off_c, 1, 58, 100
3, 303740, Note_off_c, 1, 48, 100
3, 303744, Note_on_c, 1, 57, 80
3, 303744, Note_on_c, 1, 53, 80
3, 304124, Note_off_c, 1, 57, 100
3, 304124, Note_off_c, 1, 53, 100
3, 304416, Note_on_c, 1, 60, 110
3, 304416, Note_on_c, 1, 48, 110
3, 304508, Note_off_c, 1, 60, 100
3, 304508, Note_off_c, 1, 48, 100
3, 304512, Note_on_c, 1, 60, 110
3, 304512, Note_on_c, 1, 48, 110
3, 304796, Note_off_c, 1, 60, 100
3, 304796, Note_off_c, 1, 48, 100
3, 304800, Note_on_c, 1, 48, 110
3, 304800, Note_on_c, 1, 36, 110
3, 304892, Note_off_c, 1, 48, 100
3, 304892, Note_off_c, 1, 36, 100
3, 304896, Note_on_c, 1, 48, 110
3, 304896, Note_on_c, 1, 36, 110
3, 305084, Note_off_c, 1, 48, 100
3, 305084, Note_off_c, 1, 36, 100
3, 305184, Note_on_c, 1, 48, 110
3, 305184, Note_on_c, 1, 36, 110
3, 305276, Note_off_c, 1, 48, 100
3, 305276, Note_off_c, 1, 36, 100
3, 305280, Note_on_c, 1, 41, 110
3, 305280, Note_on_c, 1, 29, 110
3, 305660, Note_off_c, 1, 41, 100
3, 305660, Note_off_c, 1, 29, 100
3, 305660, End_track
0, 0, End_of_file
