0, 0, Header, 1, 3, 384
1, 0, Start_track
1, 0, Title_t, "L.v.Beethoven 3mov - Piano Sonata No.28 in A Major Op.101\000"
1, 0, Copyright_t, "Copyright(C) 1995-2009, Suzuki Software\000"
1, 0, Sequencer_specific, 9, 67, 123, 0, 88, 70, 48, 50, 0, 1
1, 0, Text_t, "XFhd:2000/10/01:JP:Classical::::L.v.Beethoven:::Kaoru Suzuki\000"
1, 0, Text_t, "XFln:JP:\203s\203A\203m\203\\\203i\203^\221æ28\224Ô\203C\222·\222²\215ì\225i101\201`\221æ3\212y\217Í:L.v.\203x\201[\203g\201[\203\224\203F\203\223:::\227é\202¿\202á\202ñ:\227é\202¿\202á\202ñ\000"
1, 0, Time_signature, 2, 2, 96, 8
1, 0, Sequencer_specific, 3, 0, 0, 65
1, 0, Sequencer_specific, 5, 0, 0, 119, 14, 0
1, 0, Tempo, 2500000
1, 2880, Tempo, 3000000
1, 3072, Tempo, 2400000
1, 5760, Tempo, 2608695
1, 5952, Tempo, 3000000
1, 6144, Tempo, 2608695
1, 6528, Tempo, 2400000
1, 7488, Tempo, 2608695
1, 7584, Tempo, 3000000
1, 7680, Tempo, 2608695
1, 8256, Tempo, 2400000
1, 14208, Tempo, 2608695
1, 14400, Tempo, 2727272
1, 14496, Tempo, 3000000
1, 14976, Tempo, 1500000
1, 15936, Tempo, 1200000
1, 16128, Tempo, 1000000
1, 16896, Tempo, 500000
1, 17664, Time_signature, 6, 3, 96, 8
1, 17664, Tempo, 666666
1, 18816, Tempo, 705882
1, 19008, Tempo, 800000
1, 19200, Tempo, 923076
1, 19392, Tempo, 1714285
1, 19776, Tempo, 800000
1, 19968, Tempo, 666666
1, 21696, Tempo, 705882
1, 21888, Tempo, 750000
1, 22080, Tempo, 857142
1, 22656, Tempo, 666666
1, 22848, Tempo, 857142
1, 23040, Tempo, 750000
1, 23808, Tempo, 750000
1, 24000, Tempo, 705882
1, 24192, Tempo, 666666
1, 24576, Tempo, 600000
1, 24768, Tempo, 521739
1, 24960, Tempo, 461538
1, 25152, Tempo, 400000
1, 25728, Tempo, 1000000
1, 26016, Tempo, 666666
1, 28032, Time_signature, 2, 2, 96, 8
1, 28032, Tempo, 444444
1, 36480, Tempo, 461538
1, 36672, Tempo, 500000
1, 36864, Tempo, 545454
1, 37056, Tempo, 666666
1, 37248, Tempo, 1500000
1, 37824, Tempo, 444444
1, 47232, Tempo, 454545
1, 48000, Tempo, 461538
1, 48768, Tempo, 454545
1, 49152, Tempo, 444444
1, 67200, Tempo, 472440
1, 67968, Tempo, 500000
1, 69120, Tempo, 444444
1, 73344, Tempo, 461538
1, 74112, Tempo, 480000
1, 74880, Tempo, 444444
1, 98688, Tempo, 468750
1, 99072, Tempo, 512820
1, 99264, Tempo, 638297
1, 99456, Tempo, 1200000
1, 100032, Tempo, 444444
1, 108668, Tempo, 444444
1, 129408, Tempo, 472440
1, 130176, Tempo, 500000
1, 131328, Tempo, 444444
1, 135936, Tempo, 461538
1, 136320, Tempo, 480000
1, 137088, Tempo, 444444
1, 155904, Tempo, 472440
1, 159360, Tempo, 487804
1, 160128, Tempo, 500000
1, 160896, Tempo, 521739
1, 161280, Tempo, 545454
1, 161472, Tempo, 666666
1, 161664, Tempo, 666666
1, 162672, Tempo, 2000000
1, 163008, Tempo, 444444
1, 163200, Tempo, 444444
1, 230780, Tempo, 444444
1, 243072, Tempo, 500000
1, 243840, Tempo, 545454
1, 244608, Tempo, 400000
1, 247680, Tempo, 444444
1, 252288, Tempo, 461538
1, 252672, Tempo, 500000
1, 252864, Tempo, 600000
1, 253056, Tempo, 1200000
1, 253440, Tempo, 1714285
1, 253632, Tempo, 545454
1, 253824, Tempo, 444444
1, 275328, Tempo, 480000
1, 275904, Tempo, 500000
1, 276096, Tempo, 545454
1, 276288, Tempo, 600000
1, 276864, Tempo, 444444
1, 281856, Tempo, 461538
1, 282240, Tempo, 500000
1, 283008, Tempo, 444444
1, 299136, Tempo, 468750
1, 303744, Tempo, 500000
1, 307584, Tempo, 512820
1, 308352, Tempo, 530973
1, 309120, Tempo, 545454
1, 309504, Tempo, 571428
1, 311424, Tempo, 444444
1, 319872, Tempo, 472440
1, 322176, Tempo, 500000
1, 323712, Tempo, 530973
1, 324480, Tempo, 560747
1, 324864, Tempo, 600000
1, 325248, Tempo, 530973
1, 327552, Tempo, 560747
1, 327936, Tempo, 600000
1, 328128, Tempo, 631578
1, 328320, Tempo, 530973
1, 329472, Tempo, 545454
1, 329664, Tempo, 571428
1, 329856, Tempo, 600000
1, 330240, Tempo, 545454
1, 330624, Tempo, 521739
1, 330816, Tempo, 500000
1, 331008, Tempo, 472440
1, 334848, Tempo, 444444
1, 336000, Tempo, 461538
1, 336192, Tempo, 480000
1, 336384, Tempo, 500000
1, 336576, Tempo, 545454
1, 336960, Tempo, 444444
1, 342912, Tempo, 487804
1, 343680, Tempo, 545454
1, 344448, Tempo, 600000
1, 345216, Tempo, 666666
1, 345600, Tempo, 857142
1, 345792, Tempo, 1000000
1, 345888, Tempo, 1500000
1, 345984, Tempo, 500000
1, 346752, Tempo, 545454
1, 347136, Tempo, 666666
1, 347136, End_track
2, 0, Start_track
2, 0, Title_t, "Right"
2, 0, Control_c, 0, 0, 0
2, 0, Program_c, 0, 0
2, 0, Control_c, 0, 7, 100
2, 0, Control_c, 0, 10, 72
2, 0, Control_c, 0, 91, 127
2, 0, Note_on_c, 0, 59, 80
2, 0, Note_on_c, 0, 64, 80
2, 188, Note_off_c, 0, 59, 100
2, 192, Note_on_c, 0, 62, 80
2, 380, Note_off_c, 0, 64, 100
2, 380, Note_off_c, 0, 62, 100
2, 384, Note_on_c, 0, 64, 80
2, 384, Note_on_c, 0, 60, 80
2, 476, Note_off_c, 0, 64, 100
2, 480, Note_on_c, 0, 65, 80
2, 508, Note_off_c, 0, 65, 100
2, 512, Note_on_c, 0, 64, 80
2, 540, Note_off_c, 0, 64, 100
2, 544, Note_on_c, 0, 63, 80
2, 572, Note_off_c, 0, 63, 100
2, 576, Note_on_c, 0, 64, 80
2, 668, Note_off_c, 0, 64, 100
2, 672, Note_on_c, 0, 72, 80
2, 764, Note_off_c, 0, 60, 100
2, 764, Note_off_c, 0, 72, 100
2, 768, Note_on_c, 0, 64, 80
2, 768, Note_on_c, 0, 68, 80
2, 1052, Note_off_c, 0, 68, 100
2, 1056, Note_on_c, 0, 71, 80
2, 1100, Note_off_c, 0, 71, 100
2, 1104, Note_on_c, 0, 69, 80
2, 1148, Note_off_c, 0, 64, 100
2, 1148, Note_off_c, 0, 69, 100
2, 1152, Note_on_c, 0, 64, 80
2, 1152, Note_on_c, 0, 69, 80
2, 1340, Note_off_c, 0, 64, 100
2, 1340, Note_off_c, 0, 69, 100
2, 1344, Note_on_c, 0, 64, 80
2, 1344, Note_on_c, 0, 72, 80
2, 1344, Note_on_c, 0, 76, 80
2, 1532, Note_off_c, 0, 64, 100
2, 1532, Note_off_c, 0, 72, 100
2, 1532, Note_off_c, 0, 76, 100
2, 1536, Note_on_c, 0, 64, 80
2, 1536, Note_on_c, 0, 69, 80
2, 1536, Note_on_c, 0, 76, 80
2, 1724, Note_off_c, 0, 64, 100
2, 1724, Note_off_c, 0, 76, 100
2, 1728, Note_on_c, 0, 62, 80
2, 1728, Note_on_c, 0, 74, 80
2, 1820, Note_off_c, 0, 69, 100
2, 1820, Note_off_c, 0, 62, 100
2, 1820, Note_off_c, 0, 74, 100
2, 1824, Note_on_c, 0, 64, 80
2, 1824, Note_on_c, 0, 67, 80
2, 1824, Note_on_c, 0, 73, 80
2, 1824, Note_on_c, 0, 76, 80
2, 1916, Note_off_c, 0, 64, 100
2, 1916, Note_off_c, 0, 67, 100
2, 1916, Note_off_c, 0, 73, 100
2, 1916, Note_off_c, 0, 76, 100
2, 1920, Note_on_c, 0, 65, 80
2, 1920, Note_on_c, 0, 69, 80
2, 1920, Note_on_c, 0, 74, 80
2, 1920, Note_on_c, 0, 77, 80
2, 2108, Note_off_c, 0, 65, 100
2, 2108, Note_off_c, 0, 69, 100
2, 2108, Note_off_c, 0, 74, 100
2, 2108, Note_off_c, 0, 77, 100
2, 2112, Note_on_c, 0, 58, 80
2, 2112, Note_on_c, 0, 65, 80
2, 2112, Note_on_c, 0, 70, 80
2, 2204, Note_off_c, 0, 58, 100
2, 2204, Note_off_c, 0, 65, 100
2, 2204, Note_off_c, 0, 70, 100
2, 2208, Note_on_c, 0, 60, 80
2, 2208, Note_on_c, 0, 64, 80
2, 2208, Note_on_c, 0, 69, 80
2, 2300, Note_off_c, 0, 60, 100
2, 2300, Note_off_c, 0, 64, 100
2, 2300, Note_off_c, 0, 69, 100
2, 2304, Note_on_c, 0, 62, 80
2, 2304, Note_on_c, 0, 64, 80
2, 2304, Note_on_c, 0, 68, 80
2, 2492, Note_off_c, 0, 62, 100
2, 2492, Note_off_c, 0, 64, 100
2, 2492, Note_off_c, 0, 68, 100
2, 2496, Note_on_c, 0, 69, 80
2, 2496, Note_on_c, 0, 60, 80
2, 2496, Note_on_c, 0, 64, 80
2, 2588, Note_off_c, 0, 69, 100
2, 2592, Note_on_c, 0, 72, 80
2, 2684, Note_off_c, 0, 60, 100
2, 2684, Note_off_c, 0, 64, 100
2, 2684, Note_off_c, 0, 72, 100
2, 2688, Note_on_c, 0, 64, 80
2, 2688, Note_on_c, 0, 72, 80
2, 2688, Note_on_c, 0, 76, 80
2, 2780, Note_off_c, 0, 64, 100
2, 2780, Note_off_c, 0, 72, 100
2, 2780, Note_off_c, 0, 76, 100
2, 2784, Note_on_c, 0, 69, 80
2, 2784, Note_on_c, 0, 72, 80
2, 2876, Note_off_c, 0, 69, 100
2, 2876, Note_off_c, 0, 72, 100
2, 2880, Note_on_c, 0, 68, 80
2, 2880, Note_on_c, 0, 71, 80
2, 2972, Note_off_c, 0, 68, 100
2, 2976, Note_on_c, 0, 67, 80
2, 3068, Note_off_c, 0, 71, 100
2, 3068, Note_off_c, 0, 67, 100
2, 3072, Note_on_c, 0, 64, 80
2, 3072, Note_on_c, 0, 67, 80
2, 3072, Note_on_c, 0, 71, 80
2, 3260, Note_off_c, 0, 64, 100
2, 3260, Note_off_c, 0, 67, 100
2, 3260, Note_off_c, 0, 71, 100
2, 3264, Note_on_c, 0, 65, 80
2, 3264, Note_on_c, 0, 71, 80
2, 3264, Note_on_c, 0, 79, 80
2, 3452, Note_off_c, 0, 65, 100
2, 3452, Note_off_c, 0, 71, 100
2, 3452, Note_off_c, 0, 79, 100
2, 3456, Note_on_c, 0, 67, 80
2, 3456, Note_on_c, 0, 72, 80
2, 3456, Note_on_c, 0, 76, 80
2, 3456, Note_on_c, 0, 79, 80
2, 3644, Note_off_c, 0, 67, 100
2, 3644, Note_off_c, 0, 72, 100
2, 3644, Note_off_c, 0, 76, 100
2, 3644, Note_off_c, 0, 79, 100
2, 3648, Note_on_c, 0, 72, 80
2, 3648, Note_on_c, 0, 76, 80
2, 3648, Note_on_c, 0, 79, 80
2, 3648, Note_on_c, 0, 84, 80
2, 3836, Note_off_c, 0, 72, 100
2, 3836, Note_off_c, 0, 76, 100
2, 3836, Note_off_c, 0, 79, 100
2, 3836, Note_off_c, 0, 84, 100
2, 3840, Note_on_c, 0, 72, 80
2, 3840, Note_on_c, 0, 77, 80
2, 3840, Note_on_c, 0, 84, 80
2, 4028, Note_off_c, 0, 72, 100
2, 4028, Note_off_c, 0, 77, 100
2, 4028, Note_off_c, 0, 84, 100
2, 4032, Note_on_c, 0, 77, 80
2, 4032, Note_on_c, 0, 84, 80
2, 4032, Note_on_c, 0, 89, 80
2, 4220, Note_off_c, 0, 77, 100
2, 4220, Note_off_c, 0, 84, 100
2, 4220, Note_off_c, 0, 89, 100
2, 4224, Note_on_c, 0, 89, 80
2, 4224, Note_on_c, 0, 77, 80
2, 4224, Note_on_c, 0, 83, 80
2, 4224, Note_on_c, 0, 86, 80
2, 4508, Note_off_c, 0, 89, 100
2, 4508, Note_off_c, 0, 77, 100
2, 4508, Note_off_c, 0, 83, 100
2, 4508, Note_off_c, 0, 86, 100
2, 4512, Note_on_c, 0, 50, 80
2, 4512, Note_on_c, 0, 53, 80
2, 4512, Note_on_c, 0, 59, 80
2, 4604, Note_off_c, 0, 50, 100
2, 4604, Note_off_c, 0, 53, 100
2, 4604, Note_off_c, 0, 59, 100
2, 4608, Note_on_c, 0, 50, 80
2, 4608, Note_on_c, 0, 53, 80
2, 4608, Note_on_c, 0, 59, 80
2, 4796, Note_off_c, 0, 50, 100
2, 4796, Note_off_c, 0, 53, 100
2, 4796, Note_off_c, 0, 59, 100
2, 4800, Note_on_c, 0, 52, 80
2, 4800, Note_on_c, 0, 55, 80
2, 4800, Note_on_c, 0, 61, 80
2, 4988, Note_off_c, 0, 52, 100
2, 4988, Note_off_c, 0, 55, 100
2, 4988, Note_off_c, 0, 61, 100
2, 4992, Note_on_c, 0, 53, 80
2, 4992, Note_on_c, 0, 57, 80
2, 4992, Note_on_c, 0, 62, 80
2, 5180, Note_off_c, 0, 53, 100
2, 5180, Note_off_c, 0, 57, 100
2, 5180, Note_off_c, 0, 62, 100
2, 5184, Note_on_c, 0, 55, 80
2, 5184, Note_on_c, 0, 60, 80
2, 5276, Note_off_c, 0, 55, 100
2, 5276, Note_off_c, 0, 60, 100
2, 5280, Note_on_c, 0, 55, 80
2, 5280, Note_on_c, 0, 59, 80
2, 5372, Note_off_c, 0, 55, 100
2, 5372, Note_off_c, 0, 59, 100
2, 5376, Note_on_c, 0, 67, 80
2, 5376, Note_on_c, 0, 55, 80
2, 5376, Note_on_c, 0, 60, 80
2, 5564, Note_off_c, 0, 67, 100
2, 5564, Note_off_c, 0, 55, 100
2, 5564, Note_off_c, 0, 60, 100
2, 5568, Note_on_c, 0, 57, 80
2, 5568, Note_on_c, 0, 69, 80
2, 5568, Note_on_c, 0, 64, 80
2, 5708, Note_off_c, 0, 57, 100
2, 5708, Note_off_c, 0, 69, 100
2, 5712, Note_on_c, 0, 59, 80
2, 5712, Note_on_c, 0, 71, 80
2, 5756, Note_off_c, 0, 64, 100
2, 5756, Note_off_c, 0, 59, 100
2, 5756, Note_off_c, 0, 71, 100
2, 5760, Note_on_c, 0, 59, 80
2, 5760, Note_on_c, 0, 65, 80
2, 5760, Note_on_c, 0, 71, 80
2, 5948, Note_off_c, 0, 59, 100
2, 5948, Note_off_c, 0, 65, 100
2, 5948, Note_off_c, 0, 71, 100
2, 5952, Note_on_c, 0, 60, 80
2, 5952, Note_on_c, 0, 64, 80
2, 5952, Note_on_c, 0, 72, 80
2, 6044, Note_off_c, 0, 60, 100
2, 6044, Note_off_c, 0, 64, 100
2, 6044, Note_off_c, 0, 72, 100
2, 6912, Note_on_c, 0, 67, 80
2, 6912, Note_on_c, 0, 62, 80
2, 7100, Note_off_c, 0, 62, 100
2, 7104, Note_on_c, 0, 65, 80
2, 7292, Note_off_c, 0, 67, 100
2, 7292, Note_off_c, 0, 65, 100
2, 7296, Note_on_c, 0, 67, 80
2, 7296, Note_on_c, 0, 64, 80
2, 7388, Note_off_c, 0, 67, 100
2, 7392, Note_on_c, 0, 69, 80
2, 7420, Note_off_c, 0, 69, 100
2, 7424, Note_on_c, 0, 67, 80
2, 7452, Note_off_c, 0, 67, 100
2, 7456, Note_on_c, 0, 66, 80
2, 7484, Note_off_c, 0, 64, 100
2, 7484, Note_off_c, 0, 66, 100
2, 7488, Note_on_c, 0, 67, 80
2, 7580, Note_off_c, 0, 67, 100
2, 7584, Note_on_c, 0, 76, 80
2, 7584, Note_on_c, 0, 79, 80
2, 7584, Note_on_c, 0, 88, 80
2, 7676, Note_off_c, 0, 76, 100
2, 7676, Note_off_c, 0, 79, 100
2, 7676, Note_off_c, 0, 88, 100
2, 7680, Note_on_c, 0, 71, 80
2, 7680, Note_on_c, 0, 74, 80
2, 7680, Note_on_c, 0, 83, 80
2, 7868, Note_off_c, 0, 71, 100
2, 7868, Note_off_c, 0, 74, 100
2, 7868, Note_off_c, 0, 83, 100
2, 7872, Note_on_c, 0, 74, 80
2, 7872, Note_on_c, 0, 77, 80
2, 7872, Note_on_c, 0, 86, 80
2, 8060, Note_off_c, 0, 74, 100
2, 8060, Note_off_c, 0, 77, 100
2, 8060, Note_off_c, 0, 86, 100
2, 8064, Note_on_c, 0, 72, 80
2, 8064, Note_on_c, 0, 76, 80
2, 8064, Note_on_c, 0, 84, 80
2, 8252, Note_off_c, 0, 72, 100
2, 8252, Note_off_c, 0, 76, 100
2, 8252, Note_off_c, 0, 84, 100
2, 8448, Note_on_c, 0, 79, 80
2, 8540, Note_off_c, 0, 79, 100
2, 8544, Note_on_c, 0, 81, 80
2, 8572, Note_off_c, 0, 81, 100
2, 8576, Note_on_c, 0, 79, 80
2, 8604, Note_off_c, 0, 79, 100
2, 8608, Note_on_c, 0, 78, 80
2, 8636, Note_off_c, 0, 78, 100
2, 8640, Note_on_c, 0, 79, 80
2, 8732, Note_off_c, 0, 79, 100
2, 8736, Note_on_c, 0, 88, 80
2, 8828, Note_off_c, 0, 88, 100
2, 8832, Note_on_c, 0, 88, 80
2, 9212, Note_off_c, 0, 88, 100
2, 9216, Note_on_c, 0, 79, 80
2, 9308, Note_off_c, 0, 79, 100
2, 9312, Note_on_c, 0, 81, 80
2, 9340, Note_off_c, 0, 81, 100
2, 9344, Note_on_c, 0, 79, 80
2, 9372, Note_off_c, 0, 79, 100
2, 9376, Note_on_c, 0, 78, 80
2, 9404, Note_off_c, 0, 78, 100
2, 9408, Note_on_c, 0, 79, 80
2, 9500, Note_off_c, 0, 79, 100
2, 9504, Note_on_c, 0, 88, 80
2, 9596, Note_off_c, 0, 88, 100
2, 9600, Note_on_c, 0, 88, 80
2, 9884, Note_off_c, 0, 88, 100
2, 9888, Note_on_c, 0, 79, 80
2, 9980, Note_off_c, 0, 79, 100
2, 9984, Note_on_c, 0, 79, 80
2, 10220, Note_off_c, 0, 79, 100
2, 10224, Note_on_c, 0, 81, 80
2, 10236, Note_off_c, 0, 81, 100
2, 10240, Note_on_c, 0, 79, 80
2, 10252, Note_off_c, 0, 79, 100
2, 10256, Note_on_c, 0, 78, 80
2, 10268, Note_off_c, 0, 78, 100
2, 10272, Note_on_c, 0, 79, 80
2, 10316, Note_off_c, 0, 79, 100
2, 10320, Note_on_c, 0, 88, 80
2, 10364, Note_off_c, 0, 88, 100
2, 10368, Control_c, 0, 64, 127
2, 10368, Note_on_c, 0, 88, 80
2, 10460, Note_off_c, 0, 88, 100
2, 10464, Note_on_c, 0, 78, 80
2, 10464, Note_on_c, 0, 84, 80
2, 10464, Note_on_c, 0, 87, 80
2, 10556, Note_off_c, 0, 78, 100
2, 10556, Note_off_c, 0, 84, 100
2, 10556, Note_off_c, 0, 87, 100
2, 10560, Note_on_c, 0, 66, 80
2, 10560, Note_on_c, 0, 69, 80
2, 10560, Note_on_c, 0, 75, 80
2, 10652, Note_off_c, 0, 66, 100
2, 10652, Note_off_c, 0, 69, 100
2, 10652, Note_off_c, 0, 75, 100
2, 10744, Control_c, 0, 64, 0
2, 10752, Note_on_c, 0, 65, 80
2, 10772, Note_off_c, 0, 65, 100
2, 10776, Note_on_c, 0, 71, 80
2, 10796, Note_off_c, 0, 71, 100
2, 10800, Note_on_c, 0, 74, 80
2, 10820, Note_off_c, 0, 74, 100
2, 10824, Note_on_c, 0, 77, 80
2, 10988, Note_off_c, 0, 77, 100
2, 10992, Note_on_c, 0, 79, 80
2, 11004, Note_off_c, 0, 79, 100
2, 11008, Note_on_c, 0, 77, 80
2, 11020, Note_off_c, 0, 77, 100
2, 11024, Note_on_c, 0, 76, 80
2, 11036, Note_off_c, 0, 76, 100
2, 11040, Note_on_c, 0, 77, 80
2, 11084, Note_off_c, 0, 77, 100
2, 11088, Note_on_c, 0, 86, 80
2, 11132, Note_off_c, 0, 86, 100
2, 11136, Control_c, 0, 64, 127
2, 11136, Note_on_c, 0, 86, 80
2, 11228, Note_off_c, 0, 86, 100
2, 11232, Note_on_c, 0, 76, 80
2, 11232, Note_on_c, 0, 79, 80
2, 11232, Note_on_c, 0, 82, 80
2, 11232, Note_on_c, 0, 85, 80
2, 11324, Note_off_c, 0, 76, 100
2, 11324, Note_off_c, 0, 79, 100
2, 11324, Note_off_c, 0, 82, 100
2, 11324, Note_off_c, 0, 85, 100
2, 11328, Note_on_c, 0, 67, 80
2, 11328, Note_on_c, 0, 64, 80
2, 11328, Note_on_c, 0, 73, 80
2, 11420, Note_off_c, 0, 67, 100
2, 11420, Note_off_c, 0, 64, 100
2, 11420, Note_off_c, 0, 73, 100
2, 11512, Control_c, 0, 64, 0
2, 11520, Note_on_c, 0, 62, 80
2, 11564, Note_off_c, 0, 62, 100
2, 11568, Note_on_c, 0, 75, 80
2, 11756, Note_off_c, 0, 75, 100
2, 11760, Note_on_c, 0, 83, 80
2, 11772, Note_off_c, 0, 83, 100
2, 11776, Note_on_c, 0, 81, 80
2, 11788, Note_off_c, 0, 81, 100
2, 11792, Note_on_c, 0, 80, 80
2, 11804, Note_off_c, 0, 80, 100
2, 11808, Note_on_c, 0, 81, 80
2, 11836, Note_off_c, 0, 81, 100
2, 11840, Note_on_c, 0, 72, 80
2, 11868, Note_off_c, 0, 72, 100
2, 11872, Note_on_c, 0, 84, 80
2, 11900, Note_off_c, 0, 84, 100
2, 11904, Control_c, 0, 64, 127
2, 11904, Note_on_c, 0, 84, 80
2, 11996, Note_off_c, 0, 84, 100
2, 12000, Note_on_c, 0, 74, 80
2, 12000, Note_on_c, 0, 80, 80
2, 12000, Note_on_c, 0, 83, 80
2, 12092, Note_off_c, 0, 74, 100
2, 12092, Note_off_c, 0, 80, 100
2, 12092, Note_off_c, 0, 83, 100
2, 12096, Note_on_c, 0, 62, 80
2, 12096, Note_on_c, 0, 65, 80
2, 12096, Note_on_c, 0, 71, 80
2, 12188, Note_off_c, 0, 62, 100
2, 12188, Note_off_c, 0, 65, 100
2, 12188, Note_off_c, 0, 71, 100
2, 12280, Control_c, 0, 64, 0
2, 12288, Control_c, 0, 64, 127
2, 12288, Note_on_c, 0, 71, 80
2, 12288, Note_on_c, 0, 80, 80
2, 12288, Note_on_c, 0, 83, 80
2, 12476, Note_off_c, 0, 71, 100
2, 12476, Note_off_c, 0, 80, 100
2, 12476, Note_off_c, 0, 83, 100
2, 12480, Note_on_c, 0, 71, 80
2, 12480, Note_on_c, 0, 74, 80
2, 12480, Note_on_c, 0, 83, 80
2, 12664, Control_c, 0, 64, 0
2, 12764, Note_off_c, 0, 71, 100
2, 12764, Note_off_c, 0, 74, 100
2, 12764, Note_off_c, 0, 83, 100
2, 12768, Note_on_c, 0, 69, 80
2, 12768, Note_on_c, 0, 72, 80
2, 12768, Note_on_c, 0, 81, 80
2, 12860, Note_off_c, 0, 69, 100
2, 12860, Note_off_c, 0, 72, 100
2, 12860, Note_off_c, 0, 81, 100
2, 12864, Note_on_c, 0, 64, 80
2, 12864, Note_on_c, 0, 72, 80
2, 12864, Note_on_c, 0, 76, 80
2, 12956, Note_off_c, 0, 64, 100
2, 12956, Note_off_c, 0, 72, 100
2, 12956, Note_off_c, 0, 76, 100
2, 12960, Note_on_c, 0, 64, 80
2, 12960, Note_on_c, 0, 72, 80
2, 12960, Note_on_c, 0, 76, 80
2, 13052, Note_off_c, 0, 64, 100
2, 13052, Note_off_c, 0, 72, 100
2, 13052, Note_off_c, 0, 76, 100
2, 13056, Note_on_c, 0, 64, 80
2, 13056, Note_on_c, 0, 72, 80
2, 13056, Note_on_c, 0, 76, 80
2, 13244, Note_off_c, 0, 64, 100
2, 13244, Note_off_c, 0, 72, 100
2, 13244, Note_off_c, 0, 76, 100
2, 13248, Note_on_c, 0, 62, 80
2, 13248, Note_on_c, 0, 71, 80
2, 13248, Note_on_c, 0, 74, 80
2, 13532, Note_off_c, 0, 62, 100
2, 13532, Note_off_c, 0, 71, 100
2, 13532, Note_off_c, 0, 74, 100
2, 13536, Note_on_c, 0, 69, 80
2, 13536, Note_on_c, 0, 60, 80
2, 13536, Note_on_c, 0, 72, 80
2, 13724, Note_off_c, 0, 69, 100
2, 13724, Note_off_c, 0, 60, 100
2, 13724, Note_off_c, 0, 72, 100
2, 13728, Note_on_c, 0, 60, 80
2, 13728, Note_on_c, 0, 69, 80
2, 13728, Note_on_c, 0, 72, 80
2, 13820, Note_off_c, 0, 60, 100
2, 13820, Note_off_c, 0, 69, 100
2, 13820, Note_off_c, 0, 72, 100
2, 13824, Control_c, 0, 64, 127
2, 13824, Note_on_c, 0, 60, 80
2, 13824, Note_on_c, 0, 63, 80
2, 13824, Note_on_c, 0, 66, 80
2, 13824, Note_on_c, 0, 69, 80
2, 13824, Note_on_c, 0, 72, 80
2, 14300, Note_off_c, 0, 60, 100
2, 14300, Note_off_c, 0, 63, 100
2, 14300, Note_off_c, 0, 66, 100
2, 14300, Note_off_c, 0, 69, 100
2, 14300, Note_off_c, 0, 72, 100
2, 14304, Note_on_c, 0, 60, 80
2, 14304, Note_on_c, 0, 63, 80
2, 14304, Note_on_c, 0, 66, 80
2, 14304, Note_on_c, 0, 72, 80
2, 14396, Note_off_c, 0, 60, 100
2, 14396, Note_off_c, 0, 63, 100
2, 14396, Note_off_c, 0, 66, 100
2, 14396, Note_off_c, 0, 72, 100
2, 14400, Note_on_c, 0, 63, 80
2, 14400, Note_on_c, 0, 66, 80
2, 14400, Note_on_c, 0, 69, 80
2, 14492, Note_off_c, 0, 63, 100
2, 14492, Note_off_c, 0, 66, 100
2, 14492, Note_off_c, 0, 69, 100
2, 14496, Note_on_c, 0, 64, 80
2, 14496, Note_on_c, 0, 68, 80
2, 14584, Control_c, 0, 64, 0
2, 14588, Note_off_c, 0, 64, 100
2, 14588, Note_off_c, 0, 68, 100
2, 14592, Note_on_c, 0, 56, 80
2, 14592, Note_on_c, 0, 59, 80
2, 14592, Note_on_c, 0, 64, 80
2, 14592, Note_on_c, 0, 68, 80
2, 14972, Note_off_c, 0, 56, 100
2, 14972, Note_off_c, 0, 59, 100
2, 14972, Note_off_c, 0, 64, 100
2, 14972, Note_off_c, 0, 68, 100
2, 14976, Note_on_c, 0, 64, 80
2, 15024, Note_on_c, 0, 63, 80
2, 15072, Note_on_c, 0, 64, 80
2, 15100, Note_off_c, 0, 64, 100
2, 15120, Note_on_c, 0, 68, 80
2, 15168, Note_off_c, 0, 63, 100
2, 15168, Note_on_c, 0, 71, 80
2, 15204, Note_off_c, 0, 64, 100
2, 15216, Note_on_c, 0, 68, 80
2, 15256, Note_off_c, 0, 68, 100
2, 15264, Note_on_c, 0, 67, 80
2, 15288, Note_off_c, 0, 71, 100
2, 15312, Note_on_c, 0, 68, 80
2, 15340, Note_off_c, 0, 68, 100
2, 15360, Note_on_c, 0, 71, 80
2, 15408, Note_off_c, 0, 67, 64
2, 15408, Note_on_c, 0, 76, 80
2, 15444, Note_off_c, 0, 68, 64
2, 15456, Note_on_c, 0, 71, 80
2, 15504, Note_on_c, 0, 70, 80
2, 15508, Note_off_c, 0, 71, 100
2, 15552, Note_on_c, 0, 71, 80
2, 15556, Note_off_c, 0, 76, 100
2, 15600, Note_on_c, 0, 76, 80
2, 15604, Note_off_c, 0, 71, 100
2, 15636, Note_off_c, 0, 70, 100
2, 15648, Note_on_c, 0, 80, 80
2, 15696, Note_off_c, 0, 71, 100
2, 15696, Note_on_c, 0, 76, 80
2, 15732, Note_off_c, 0, 76, 100
2, 15744, Note_on_c, 0, 75, 80
2, 15788, Note_off_c, 0, 80, 100
2, 15792, Note_on_c, 0, 76, 80
2, 15840, Note_on_c, 0, 80, 80
2, 15868, Note_off_c, 0, 76, 100
2, 15876, Note_off_c, 0, 75, 100
2, 15888, Note_on_c, 0, 83, 80
2, 15924, Note_off_c, 0, 76, 100
2, 15936, Note_on_c, 0, 78, 80
2, 15984, Note_on_c, 0, 80, 80
2, 16000, Note_off_c, 0, 80, 100
2, 16024, Note_off_c, 0, 83, 100
2, 16032, Note_on_c, 0, 83, 80
2, 16068, Note_off_c, 0, 78, 100
2, 16080, Note_on_c, 0, 75, 80
2, 16116, Note_off_c, 0, 80, 100
2, 16128, Note_on_c, 0, 76, 80
2, 16160, Note_off_c, 0, 83, 64
2, 16176, Note_on_c, 0, 80, 80
2, 16224, Note_on_c, 0, 70, 80
2, 16228, Note_off_c, 0, 75, 64
2, 16272, Note_on_c, 0, 71, 80
2, 16280, Note_off_c, 0, 76, 100
2, 16316, Note_off_c, 0, 80, 100
2, 16320, Note_on_c, 0, 76, 80
2, 16368, Note_on_c, 0, 67, 80
2, 16372, Note_off_c, 0, 70, 100
2, 16416, Note_on_c, 0, 68, 80
2, 16436, Note_off_c, 0, 71, 100
2, 16444, Note_off_c, 0, 76, 100
2, 16464, Note_on_c, 0, 71, 80
2, 16496, Note_off_c, 0, 67, 100
2, 16512, Note_on_c, 0, 63, 80
2, 16560, Note_on_c, 0, 64, 80
2, 16584, Note_off_c, 0, 68, 100
2, 16604, Note_off_c, 0, 71, 100
2, 16608, Note_on_c, 0, 68, 80
2, 16656, Note_on_c, 0, 64, 80
2, 16676, Note_off_c, 0, 63, 100
2, 16700, Note_off_c, 0, 64, 100
2, 16704, Control_c, 0, 64, 127
2, 16704, Note_on_c, 0, 59, 80
2, 16736, Note_off_c, 0, 68, 100
2, 16752, Note_on_c, 0, 56, 80
2, 16800, Note_on_c, 0, 52, 80
2, 16812, Note_off_c, 0, 64, 100
2, 16848, Note_off_c, 0, 59, 100
2, 16884, Note_off_c, 0, 56, 100
2, 16956, Note_off_c, 0, 52, 64
2, 17656, Control_c, 0, 64, 0
2, 17664, Note_on_c, 0, 64, 80
2, 17664, Note_on_c, 0, 68, 80
2, 17852, Note_off_c, 0, 64, 100
2, 17856, Note_on_c, 0, 59, 80
2, 18044, Note_off_c, 0, 68, 100
2, 18044, Note_off_c, 0, 59, 100
2, 18048, Note_on_c, 0, 66, 80
2, 18048, Note_on_c, 0, 69, 80
2, 18236, Note_off_c, 0, 66, 100
2, 18236, Note_off_c, 0, 69, 100
2, 18240, Note_on_c, 0, 68, 80
2, 18240, Note_on_c, 0, 71, 80
2, 18428, Note_off_c, 0, 68, 100
2, 18432, Note_on_c, 0, 64, 80
2, 18620, Note_off_c, 0, 71, 100
2, 18620, Note_off_c, 0, 64, 100
2, 18624, Note_on_c, 0, 69, 80
2, 18624, Note_on_c, 0, 73, 80
2, 18812, Note_off_c, 0, 73, 100
2, 18816, Note_on_c, 0, 76, 80
2, 19004, Note_off_c, 0, 69, 64
2, 19008, Note_on_c, 0, 66, 80
2, 19196, Note_off_c, 0, 76, 100
2, 19196, Note_off_c, 0, 66, 100
2, 19200, Note_on_c, 0, 74, 80
2, 19200, Note_on_c, 0, 71, 80
2, 19388, Note_off_c, 0, 74, 100
2, 19388, Note_off_c, 0, 71, 100
2, 19392, Note_on_c, 0, 71, 80
2, 19772, Note_off_c, 0, 71, 100
2, 19776, Note_on_c, 0, 69, 80
2, 19968, Note_on_c, 0, 81, 80
2, 20156, Note_off_c, 0, 69, 64
2, 20160, Note_on_c, 0, 69, 80
2, 20348, Note_off_c, 0, 81, 100
2, 20352, Note_on_c, 0, 80, 80
2, 20540, Note_off_c, 0, 80, 100
2, 20544, Note_on_c, 0, 78, 80
2, 20732, Note_off_c, 0, 69, 100
2, 20736, Note_on_c, 0, 69, 80
2, 20924, Note_off_c, 0, 78, 100
2, 20928, Note_on_c, 0, 76, 80
2, 21116, Note_off_c, 0, 76, 100
2, 21120, Note_on_c, 0, 78, 80
2, 21308, Note_off_c, 0, 69, 64
2, 21312, Note_on_c, 0, 69, 80
2, 21500, Note_off_c, 0, 78, 100
2, 21504, Note_on_c, 0, 76, 80
2, 21884, Note_off_c, 0, 69, 100
2, 21884, Note_off_c, 0, 76, 100
2, 21888, Note_on_c, 0, 64, 80
2, 21888, Note_on_c, 0, 73, 80
2, 22076, Note_off_c, 0, 64, 100
2, 22076, Note_off_c, 0, 73, 100
2, 22080, Note_on_c, 0, 64, 80
2, 22080, Note_on_c, 0, 71, 80
2, 22268, Note_off_c, 0, 64, 100
2, 22268, Note_off_c, 0, 71, 100
2, 22656, Note_on_c, 0, 76, 80
2, 22848, Note_on_c, 0, 64, 80
2, 23036, Note_off_c, 0, 76, 100
2, 23040, Note_on_c, 0, 73, 80
2, 23228, Note_off_c, 0, 73, 100
2, 23232, Note_on_c, 0, 71, 80
2, 23420, Note_off_c, 0, 64, 100
2, 23420, Note_off_c, 0, 71, 100
2, 23808, Note_on_c, 0, 78, 80
2, 24000, Note_on_c, 0, 66, 83
2, 24188, Note_off_c, 0, 78, 100
2, 24188, Note_off_c, 0, 66, 100
2, 24192, Note_on_c, 0, 74, 86
2, 24380, Note_off_c, 0, 74, 100
2, 24384, Note_on_c, 0, 73, 89
2, 24572, Note_off_c, 0, 73, 100
2, 24576, Note_on_c, 0, 81, 93
2, 24576, Note_on_c, 0, 69, 93
2, 24764, Note_off_c, 0, 81, 100
2, 24764, Note_off_c, 0, 69, 100
2, 24768, Note_on_c, 0, 78, 96
2, 24956, Note_off_c, 0, 78, 100
2, 24960, Note_on_c, 0, 76, 99
2, 25148, Note_off_c, 0, 76, 100
2, 25152, Note_on_c, 0, 85, 103
2, 25152, Note_on_c, 0, 73, 103
2, 25340, Note_off_c, 0, 85, 100
2, 25340, Note_off_c, 0, 73, 100
2, 25344, Note_on_c, 0, 81, 106
2, 25532, Note_off_c, 0, 81, 100
2, 25536, Note_on_c, 0, 80, 109
2, 25724, Note_off_c, 0, 80, 100
2, 25728, Note_on_c, 0, 76, 110
2, 25728, Note_on_c, 0, 88, 110
2, 25760, Note_on_c, 0, 87, 106
2, 25782, Note_off_c, 0, 76, 100
2, 25786, Note_off_c, 0, 88, 100
2, 25792, Note_on_c, 0, 86, 102
2, 25822, Note_off_c, 0, 87, 100
2, 25824, Note_on_c, 0, 85, 98
2, 25850, Note_off_c, 0, 86, 100
2, 25856, Note_on_c, 0, 83, 94
2, 25882, Note_off_c, 0, 85, 100
2, 25888, Note_on_c, 0, 81, 89
2, 25914, Note_off_c, 0, 83, 100
2, 25920, Note_on_c, 0, 80, 85
2, 25934, Note_off_c, 0, 81, 100
2, 25952, Note_on_c, 0, 78, 81
2, 25980, Note_off_c, 0, 80, 100
2, 25984, Note_on_c, 0, 76, 80
2, 26012, Note_off_c, 0, 78, 100
2, 26016, Note_on_c, 0, 74, 80
2, 26040, Note_off_c, 0, 76, 100
2, 26064, Note_on_c, 0, 76, 80
2, 26110, Note_off_c, 0, 74, 100
2, 26112, Note_on_c, 0, 74, 80
2, 26158, Note_off_c, 0, 76, 100
2, 26160, Note_on_c, 0, 76, 80
2, 26206, Note_off_c, 0, 74, 100
2, 26208, Note_on_c, 0, 74, 80
2, 26254, Note_off_c, 0, 76, 100
2, 26256, Note_on_c, 0, 76, 80
2, 26302, Note_off_c, 0, 74, 100
2, 26304, Note_on_c, 0, 74, 80
2, 26350, Note_off_c, 0, 76, 100
2, 26352, Note_on_c, 0, 76, 80
2, 26398, Note_off_c, 0, 74, 100
2, 26400, Note_on_c, 0, 74, 80
2, 26446, Note_off_c, 0, 76, 100
2, 26448, Note_on_c, 0, 76, 80
2, 26494, Note_off_c, 0, 74, 100
2, 26496, Note_on_c, 0, 74, 80
2, 26542, Note_off_c, 0, 76, 100
2, 26544, Note_on_c, 0, 76, 80
2, 26590, Note_off_c, 0, 74, 100
2, 26592, Note_on_c, 0, 74, 80
2, 26638, Note_off_c, 0, 76, 100
2, 26640, Note_on_c, 0, 76, 80
2, 26686, Note_off_c, 0, 74, 100
2, 26688, Note_on_c, 0, 74, 80
2, 26734, Note_off_c, 0, 76, 100
2, 26736, Note_on_c, 0, 76, 80
2, 26782, Note_off_c, 0, 74, 100
2, 26784, Note_on_c, 0, 74, 80
2, 26830, Note_off_c, 0, 76, 100
2, 26832, Note_on_c, 0, 76, 80
2, 26878, Note_off_c, 0, 74, 100
2, 26878, Note_off_c, 0, 76, 100
2, 26880, Note_on_c, 0, 75, 80
2, 26928, Note_on_c, 0, 76, 80
2, 26974, Note_off_c, 0, 75, 100
2, 26976, Note_on_c, 0, 75, 80
2, 27022, Note_off_c, 0, 76, 100
2, 27024, Note_on_c, 0, 76, 80
2, 27070, Note_off_c, 0, 75, 100
2, 27072, Note_on_c, 0, 75, 80
2, 27118, Note_off_c, 0, 76, 100
2, 27120, Note_on_c, 0, 76, 80
2, 27166, Note_off_c, 0, 75, 100
2, 27168, Note_on_c, 0, 75, 80
2, 27214, Note_off_c, 0, 76, 100
2, 27216, Note_on_c, 0, 76, 80
2, 27262, Note_off_c, 0, 75, 100
2, 27264, Note_on_c, 0, 75, 80
2, 27310, Note_off_c, 0, 76, 100
2, 27312, Note_on_c, 0, 76, 80
2, 27358, Note_off_c, 0, 75, 100
2, 27360, Note_on_c, 0, 75, 80
2, 27406, Note_off_c, 0, 76, 100
2, 27408, Note_on_c, 0, 76, 80
2, 27454, Note_off_c, 0, 75, 100
2, 27456, Note_on_c, 0, 75, 80
2, 27502, Note_off_c, 0, 76, 100
2, 27504, Note_on_c, 0, 76, 80
2, 27550, Note_off_c, 0, 75, 100
2, 27552, Note_on_c, 0, 75, 80
2, 27598, Note_off_c, 0, 76, 100
2, 27600, Note_on_c, 0, 76, 80
2, 27646, Note_off_c, 0, 75, 100
2, 27648, Note_on_c, 0, 75, 80
2, 27694, Note_off_c, 0, 76, 100
2, 27696, Note_on_c, 0, 76, 80
2, 27742, Note_off_c, 0, 75, 100
2, 27744, Note_on_c, 0, 75, 80
2, 27790, Note_off_c, 0, 76, 100
2, 27792, Note_on_c, 0, 76, 80
2, 27838, Note_off_c, 0, 75, 100
2, 27840, Note_on_c, 0, 75, 80
2, 27886, Note_off_c, 0, 76, 100
2, 27888, Note_on_c, 0, 76, 80
2, 27934, Note_off_c, 0, 75, 100
2, 27936, Note_on_c, 0, 75, 80
2, 27982, Note_off_c, 0, 76, 100
2, 27984, Note_on_c, 0, 76, 80
2, 28030, Note_off_c, 0, 75, 100
2, 28030, Note_off_c, 0, 76, 100
2, 28032, Note_on_c, 0, 74, 80
2, 28080, Note_on_c, 0, 76, 80
2, 28124, Note_off_c, 0, 74, 100
2, 28128, Note_on_c, 0, 78, 80
2, 28172, Note_off_c, 0, 76, 100
2, 28176, Note_on_c, 0, 76, 81
2, 28220, Note_off_c, 0, 78, 100
2, 28224, Note_on_c, 0, 78, 81
2, 28268, Note_off_c, 0, 76, 100
2, 28272, Note_on_c, 0, 76, 81
2, 28316, Note_off_c, 0, 78, 100
2, 28320, Note_on_c, 0, 78, 82
2, 28364, Note_off_c, 0, 76, 100
2, 28368, Note_on_c, 0, 76, 82
2, 28412, Note_off_c, 0, 78, 100
2, 28416, Note_on_c, 0, 78, 83
2, 28460, Note_off_c, 0, 76, 100
2, 28464, Note_on_c, 0, 76, 83
2, 28508, Note_off_c, 0, 78, 100
2, 28512, Note_on_c, 0, 78, 83
2, 28556, Note_off_c, 0, 76, 100
2, 28560, Note_on_c, 0, 76, 84
2, 28604, Note_off_c, 0, 78, 100
2, 28608, Note_on_c, 0, 78, 84
2, 28652, Note_off_c, 0, 76, 100
2, 28656, Note_on_c, 0, 76, 85
2, 28700, Note_off_c, 0, 78, 100
2, 28704, Note_on_c, 0, 78, 85
2, 28748, Note_off_c, 0, 76, 100
2, 28752, Note_on_c, 0, 76, 85
2, 28796, Note_off_c, 0, 78, 100
2, 28800, Note_on_c, 0, 78, 86
2, 28844, Note_off_c, 0, 76, 64
2, 28848, Note_on_c, 0, 76, 86
2, 28892, Note_off_c, 0, 78, 100
2, 28896, Note_on_c, 0, 78, 87
2, 28940, Note_off_c, 0, 76, 100
2, 28944, Note_on_c, 0, 76, 87
2, 28988, Note_off_c, 0, 78, 100
2, 28992, Note_on_c, 0, 78, 87
2, 29036, Note_off_c, 0, 76, 100
2, 29040, Note_on_c, 0, 76, 88
2, 29084, Note_off_c, 0, 78, 100
2, 29088, Note_on_c, 0, 78, 88
2, 29132, Note_off_c, 0, 76, 100
2, 29136, Note_on_c, 0, 76, 89
2, 29180, Note_off_c, 0, 78, 100
2, 29184, Note_on_c, 0, 78, 89
2, 29228, Note_off_c, 0, 76, 100
2, 29232, Note_on_c, 0, 76, 89
2, 29276, Note_off_c, 0, 78, 100
2, 29280, Note_on_c, 0, 78, 90
2, 29324, Note_off_c, 0, 76, 100
2, 29328, Note_on_c, 0, 76, 90
2, 29372, Note_off_c, 0, 78, 100
2, 29376, Note_on_c, 0, 78, 91
2, 29420, Note_off_c, 0, 76, 100
2, 29424, Note_on_c, 0, 76, 91
2, 29468, Note_off_c, 0, 78, 100
2, 29472, Note_on_c, 0, 78, 91
2, 29516, Note_off_c, 0, 76, 100
2, 29520, Note_on_c, 0, 76, 92
2, 29564, Note_off_c, 0, 78, 100
2, 29568, Note_on_c, 0, 78, 92
2, 29612, Note_off_c, 0, 76, 64
2, 29616, Note_on_c, 0, 76, 93
2, 29660, Note_off_c, 0, 78, 100
2, 29664, Note_on_c, 0, 78, 93
2, 29708, Note_off_c, 0, 76, 100
2, 29712, Note_on_c, 0, 76, 93
2, 29756, Note_off_c, 0, 78, 100
2, 29760, Note_on_c, 0, 78, 94
2, 29804, Note_off_c, 0, 76, 100
2, 29808, Note_on_c, 0, 76, 94
2, 29852, Note_off_c, 0, 78, 100
2, 29856, Note_on_c, 0, 78, 94
2, 29900, Note_off_c, 0, 76, 100
2, 29904, Note_on_c, 0, 76, 95
2, 29948, Note_off_c, 0, 78, 100
2, 29952, Note_on_c, 0, 78, 95
2, 29996, Note_off_c, 0, 76, 100
2, 30000, Note_on_c, 0, 76, 96
2, 30044, Note_off_c, 0, 78, 100
2, 30048, Note_on_c, 0, 78, 96
2, 30092, Note_off_c, 0, 76, 100
2, 30096, Note_on_c, 0, 76, 96
2, 30140, Note_off_c, 0, 78, 100
2, 30144, Note_on_c, 0, 78, 97
2, 30188, Note_off_c, 0, 76, 100
2, 30192, Note_on_c, 0, 76, 97
2, 30236, Note_off_c, 0, 78, 100
2, 30240, Note_on_c, 0, 78, 98
2, 30284, Note_off_c, 0, 76, 100
2, 30288, Note_on_c, 0, 76, 98
2, 30332, Note_off_c, 0, 78, 100
2, 30336, Note_on_c, 0, 78, 98
2, 30380, Note_off_c, 0, 76, 64
2, 30384, Note_on_c, 0, 76, 99
2, 30428, Note_off_c, 0, 78, 100
2, 30432, Note_on_c, 0, 78, 99
2, 30476, Note_off_c, 0, 76, 100
2, 30480, Note_on_c, 0, 76, 100
2, 30524, Note_off_c, 0, 78, 100
2, 30528, Note_on_c, 0, 78, 100
2, 30572, Note_off_c, 0, 76, 100
2, 30576, Note_on_c, 0, 76, 100
2, 30620, Note_off_c, 0, 78, 100
2, 30624, Note_on_c, 0, 78, 101
2, 30668, Note_off_c, 0, 76, 100
2, 30672, Note_on_c, 0, 76, 101
2, 30716, Note_off_c, 0, 78, 100
2, 30720, Note_on_c, 0, 78, 102
2, 30764, Note_off_c, 0, 76, 100
2, 30768, Note_on_c, 0, 76, 102
2, 30812, Note_off_c, 0, 78, 100
2, 30816, Note_on_c, 0, 78, 102
2, 30860, Note_off_c, 0, 76, 100
2, 30864, Note_on_c, 0, 76, 103
2, 30908, Note_off_c, 0, 78, 100
2, 30912, Note_on_c, 0, 78, 103
2, 30956, Note_off_c, 0, 76, 100
2, 30960, Note_on_c, 0, 76, 104
2, 31004, Note_off_c, 0, 78, 100
2, 31008, Note_on_c, 0, 78, 104
2, 31052, Note_off_c, 0, 76, 100
2, 31056, Note_on_c, 0, 76, 104
2, 31100, Note_off_c, 0, 78, 100
2, 31104, Note_on_c, 0, 78, 105
2, 31148, Note_off_c, 0, 76, 64
2, 31152, Note_on_c, 0, 76, 105
2, 31196, Note_off_c, 0, 78, 100
2, 31200, Note_on_c, 0, 78, 106
2, 31244, Note_off_c, 0, 76, 100
2, 31248, Note_on_c, 0, 76, 106
2, 31292, Note_off_c, 0, 78, 100
2, 31296, Note_on_c, 0, 78, 106
2, 31340, Note_off_c, 0, 76, 100
2, 31344, Note_on_c, 0, 76, 107
2, 31388, Note_off_c, 0, 78, 100
2, 31392, Note_on_c, 0, 78, 107
2, 31436, Note_off_c, 0, 76, 100
2, 31440, Note_on_c, 0, 76, 107
2, 31484, Note_off_c, 0, 78, 100
2, 31488, Note_on_c, 0, 78, 108
2, 31532, Note_off_c, 0, 76, 100
2, 31536, Note_on_c, 0, 76, 108
2, 31580, Note_off_c, 0, 78, 100
2, 31584, Note_on_c, 0, 78, 109
2, 31628, Note_off_c, 0, 76, 100
2, 31632, Note_on_c, 0, 76, 109
2, 31676, Note_off_c, 0, 78, 100
2, 31676, Note_off_c, 0, 76, 100
2, 31680, Note_on_c, 0, 76, 110
2, 31680, Note_on_c, 0, 80, 110
2, 31680, Note_on_c, 0, 83, 110
2, 31680, Note_on_c, 0, 88, 110
2, 31868, Note_off_c, 0, 76, 100
2, 31868, Note_off_c, 0, 80, 100
2, 31868, Note_off_c, 0, 83, 100
2, 31868, Note_off_c, 0, 88, 100
2, 31872, Note_on_c, 0, 73, 110
2, 31872, Note_on_c, 0, 76, 110
2, 31872, Note_on_c, 0, 81, 110
2, 31872, Note_on_c, 0, 85, 110
2, 32348, Note_off_c, 0, 73, 100
2, 32348, Note_off_c, 0, 76, 100
2, 32348, Note_off_c, 0, 81, 100
2, 32348, Note_off_c, 0, 85, 100
2, 32352, Note_on_c, 0, 86, 110
2, 32444, Note_off_c, 0, 86, 100
2, 32448, Note_on_c, 0, 88, 110
2, 32540, Note_off_c, 0, 88, 100
2, 32544, Note_on_c, 0, 90, 110
2, 32636, Note_off_c, 0, 90, 100
2, 32640, Note_on_c, 0, 71, 110
2, 32640, Note_on_c, 0, 83, 110
2, 33020, Note_off_c, 0, 71, 100
2, 33020, Note_off_c, 0, 83, 100
2, 33216, Note_on_c, 0, 76, 110
2, 33216, Note_on_c, 0, 88, 110
2, 33404, Note_off_c, 0, 76, 100
2, 33404, Note_off_c, 0, 88, 100
2, 33408, Note_on_c, 0, 69, 110
2, 33408, Note_on_c, 0, 81, 110
2, 33884, Note_off_c, 0, 69, 100
2, 33884, Note_off_c, 0, 81, 100
2, 33888, Note_on_c, 0, 83, 110
2, 33980, Note_off_c, 0, 83, 100
2, 33984, Note_on_c, 0, 85, 110
2, 34076, Note_off_c, 0, 85, 100
2, 34080, Note_on_c, 0, 86, 110
2, 34172, Note_off_c, 0, 86, 100
2, 34176, Note_on_c, 0, 68, 110
2, 34176, Note_on_c, 0, 80, 110
2, 34556, Note_off_c, 0, 68, 100
2, 34556, Note_off_c, 0, 80, 100
2, 34752, Note_on_c, 0, 85, 80
2, 34940, Note_off_c, 0, 85, 100
2, 34944, Note_on_c, 0, 78, 80
2, 35036, Note_off_c, 0, 78, 100
2, 35040, Note_on_c, 0, 80, 80
2, 35132, Note_off_c, 0, 80, 100
2, 35136, Note_on_c, 0, 81, 80
2, 35228, Note_off_c, 0, 81, 100
2, 35232, Note_on_c, 0, 83, 80
2, 35324, Note_off_c, 0, 83, 100
2, 35328, Note_on_c, 0, 81, 80
2, 35420, Note_off_c, 0, 81, 100
2, 35424, Note_on_c, 0, 80, 80
2, 35516, Note_off_c, 0, 80, 100
2, 35520, Note_on_c, 0, 78, 80
2, 35612, Note_off_c, 0, 78, 100
2, 35616, Note_on_c, 0, 80, 80
2, 35708, Note_off_c, 0, 80, 100
2, 35712, Note_on_c, 0, 81, 80
2, 35804, Note_off_c, 0, 81, 100
2, 35808, Note_on_c, 0, 83, 80
2, 35900, Note_off_c, 0, 83, 100
2, 35904, Note_on_c, 0, 85, 80
2, 35996, Note_off_c, 0, 85, 100
2, 36000, Note_on_c, 0, 86, 80
2, 36092, Note_off_c, 0, 86, 100
2, 36096, Note_on_c, 0, 85, 80
2, 36188, Note_off_c, 0, 85, 100
2, 36192, Note_on_c, 0, 83, 80
2, 36284, Note_off_c, 0, 83, 100
2, 36288, Note_on_c, 0, 81, 80
2, 36380, Note_off_c, 0, 81, 100
2, 36384, Note_on_c, 0, 83, 80
2, 36476, Note_off_c, 0, 83, 100
2, 36480, Note_on_c, 0, 85, 80
2, 36572, Note_off_c, 0, 85, 100
2, 36576, Note_on_c, 0, 86, 80
2, 36668, Note_off_c, 0, 86, 100
2, 36672, Note_on_c, 0, 88, 80
2, 36764, Note_off_c, 0, 88, 100
2, 36768, Note_on_c, 0, 90, 80
2, 36860, Note_off_c, 0, 90, 100
2, 36864, Note_on_c, 0, 92, 80
2, 36956, Note_off_c, 0, 92, 100
2, 36960, Note_on_c, 0, 93, 80
2, 37052, Note_off_c, 0, 93, 100
2, 37056, Note_on_c, 0, 81, 80
2, 37056, Note_on_c, 0, 85, 80
2, 37148, Note_off_c, 0, 81, 100
2, 37148, Note_off_c, 0, 85, 100
2, 37152, Note_on_c, 0, 87, 80
2, 37244, Note_off_c, 0, 87, 100
2, 37248, Note_on_c, 0, 81, 80
2, 37248, Note_on_c, 0, 90, 80
2, 37628, Note_off_c, 0, 81, 100
2, 37628, Note_off_c, 0, 90, 100
2, 37632, Note_on_c, 0, 80, 80
2, 37632, Note_on_c, 0, 88, 80
2, 37820, Note_off_c, 0, 80, 100
2, 37820, Note_off_c, 0, 88, 100
2, 38208, Note_on_c, 0, 83, 110
2, 38208, Note_on_c, 0, 71, 110
2, 38396, Note_off_c, 0, 83, 100
2, 38396, Note_off_c, 0, 71, 100
2, 38400, Note_on_c, 0, 69, 110
2, 38400, Note_on_c, 0, 81, 110
2, 38876, Note_off_c, 0, 81, 64
2, 38876, Note_off_c, 0, 69, 64
2, 38880, Note_on_c, 0, 83, 110
2, 38972, Note_off_c, 0, 83, 100
2, 38976, Note_on_c, 0, 85, 110
2, 39068, Note_off_c, 0, 85, 100
2, 39072, Note_on_c, 0, 86, 110
2, 39164, Note_off_c, 0, 86, 100
2, 39168, Note_on_c, 0, 68, 110
2, 39168, Note_on_c, 0, 80, 110
2, 39356, Note_off_c, 0, 68, 100
2, 39356, Note_off_c, 0, 80, 100
2, 39744, Note_on_c, 0, 68, 110
2, 39744, Note_on_c, 0, 80, 110
2, 39932, Note_off_c, 0, 68, 100
2, 39932, Note_off_c, 0, 80, 100
2, 39936, Note_on_c, 0, 66, 110
2, 39936, Note_on_c, 0, 78, 110
2, 40412, Note_off_c, 0, 78, 64
2, 40412, Note_off_c, 0, 66, 64
2, 40416, Note_on_c, 0, 80, 110
2, 40508, Note_off_c, 0, 80, 100
2, 40512, Note_on_c, 0, 81, 110
2, 40604, Note_off_c, 0, 81, 100
2, 40608, Note_on_c, 0, 83, 110
2, 40700, Note_off_c, 0, 83, 100
2, 40704, Note_on_c, 0, 64, 110
2, 40704, Note_on_c, 0, 76, 110
2, 40892, Note_off_c, 0, 64, 100
2, 40892, Note_off_c, 0, 76, 100
2, 40896, Note_on_c, 0, 68, 80
2, 40896, Note_on_c, 0, 76, 80
2, 41276, Note_off_c, 0, 76, 64
2, 41276, Note_off_c, 0, 68, 64
2, 41280, Note_on_c, 0, 66, 80
2, 41280, Note_on_c, 0, 62, 80
2, 41280, Note_on_c, 0, 74, 80
2, 41468, Note_off_c, 0, 66, 100
2, 41472, Note_on_c, 0, 71, 80
2, 41660, Note_off_c, 0, 62, 100
2, 41660, Note_off_c, 0, 74, 100
2, 41660, Note_off_c, 0, 71, 100
2, 41664, Note_on_c, 0, 62, 80
2, 41664, Note_on_c, 0, 64, 80
2, 41664, Note_on_c, 0, 71, 80
2, 41852, Note_off_c, 0, 62, 100
2, 41852, Note_off_c, 0, 64, 100
2, 41852, Note_off_c, 0, 71, 100
2, 41856, Note_on_c, 0, 61, 80
2, 41856, Note_on_c, 0, 69, 80
2, 41948, Note_off_c, 0, 61, 100
2, 41952, Note_on_c, 0, 62, 80
2, 42044, Note_off_c, 0, 69, 100
2, 42044, Note_off_c, 0, 62, 100
2, 42048, Note_on_c, 0, 64, 80
2, 42048, Note_on_c, 0, 69, 80
2, 42140, Note_off_c, 0, 64, 100
2, 42144, Note_on_c, 0, 66, 80
2, 42236, Note_off_c, 0, 66, 100
2, 42240, Note_on_c, 0, 64, 80
2, 42332, Note_off_c, 0, 64, 100
2, 42336, Note_on_c, 0, 62, 80
2, 42428, Note_off_c, 0, 69, 100
2, 42428, Note_off_c, 0, 62, 100
2, 42432, Note_on_c, 0, 61, 80
2, 42432, Note_on_c, 0, 69, 80
2, 42524, Note_off_c, 0, 61, 100
2, 42528, Note_on_c, 0, 62, 80
2, 42620, Note_off_c, 0, 62, 100
2, 42624, Note_on_c, 0, 64, 80
2, 42812, Note_off_c, 0, 69, 64
2, 42812, Note_off_c, 0, 64, 100
2, 42816, Note_on_c, 0, 73, 80
2, 42816, Note_on_c, 0, 81, 80
2, 43196, Note_off_c, 0, 73, 100
2, 43196, Note_off_c, 0, 81, 100
2, 43200, Note_on_c, 0, 73, 80
2, 43200, Note_on_c, 0, 81, 80
2, 43580, Note_off_c, 0, 81, 64
2, 43580, Note_off_c, 0, 73, 64
2, 43584, Note_on_c, 0, 71, 80
2, 43584, Note_on_c, 0, 80, 80
2, 43772, Note_off_c, 0, 71, 100
2, 43772, Note_off_c, 0, 80, 100
2, 43776, Note_on_c, 0, 73, 80
2, 43776, Note_on_c, 0, 81, 80
2, 43964, Note_off_c, 0, 73, 100
2, 43964, Note_off_c, 0, 81, 100
2, 43968, Note_on_c, 0, 76, 80
2, 44156, Note_off_c, 0, 76, 100
2, 44160, Note_on_c, 0, 74, 80
2, 44352, Note_on_c, 0, 69, 80
2, 44540, Note_off_c, 0, 69, 100
2, 44544, Note_on_c, 0, 68, 80
2, 44732, Note_off_c, 0, 74, 100
2, 44736, Note_on_c, 0, 76, 80
2, 44924, Note_off_c, 0, 68, 100
2, 44924, Note_off_c, 0, 76, 100
2, 44928, Note_on_c, 0, 73, 80
2, 44928, Note_on_c, 0, 69, 80
2, 45116, Note_off_c, 0, 73, 100
2, 45120, Note_on_c, 0, 81, 80
2, 45308, Note_off_c, 0, 81, 100
2, 45312, Note_on_c, 0, 76, 80
2, 45500, Note_off_c, 0, 69, 100
2, 45500, Note_off_c, 0, 76, 100
2, 45888, Note_on_c, 0, 71, 80
2, 45888, Note_on_c, 0, 80, 80
2, 46268, Note_off_c, 0, 71, 100
2, 46268, Note_off_c, 0, 80, 100
2, 46272, Note_on_c, 0, 71, 80
2, 46272, Note_on_c, 0, 80, 80
2, 46460, Note_off_c, 0, 71, 100
2, 46460, Note_off_c, 0, 80, 100
2, 46464, Note_on_c, 0, 69, 80
2, 46464, Note_on_c, 0, 81, 80
2, 46652, Note_off_c, 0, 69, 100
2, 46652, Note_off_c, 0, 81, 100
2, 46656, Note_on_c, 0, 73, 80
2, 46656, Note_on_c, 0, 76, 80
2, 46844, Note_off_c, 0, 73, 100
2, 46844, Note_off_c, 0, 76, 100
2, 46848, Note_on_c, 0, 69, 80
2, 46848, Note_on_c, 0, 73, 80
2, 47036, Note_off_c, 0, 69, 100
2, 47036, Note_off_c, 0, 73, 100
2, 47040, Note_on_c, 0, 68, 80
2, 47040, Note_on_c, 0, 76, 80
2, 47228, Note_off_c, 0, 68, 100
2, 47228, Note_off_c, 0, 76, 100
2, 47232, Note_on_c, 0, 68, 80
2, 47232, Note_on_c, 0, 74, 80
2, 47420, Note_off_c, 0, 68, 100
2, 47424, Note_on_c, 0, 69, 81
2, 47612, Note_off_c, 0, 69, 100
2, 47616, Note_on_c, 0, 68, 83
2, 47804, Note_off_c, 0, 74, 100
2, 47808, Note_on_c, 0, 76, 85
2, 47996, Note_off_c, 0, 76, 100
2, 48000, Note_on_c, 0, 68, 87
2, 48000, Note_on_c, 0, 74, 87
2, 48188, Note_off_c, 0, 68, 64
2, 48188, Note_off_c, 0, 68, 100
2, 48192, Note_on_c, 0, 69, 89
2, 48380, Note_off_c, 0, 69, 100
2, 48384, Note_on_c, 0, 68, 91
2, 48572, Note_off_c, 0, 74, 100
2, 48576, Note_on_c, 0, 76, 93
2, 48764, Note_off_c, 0, 76, 100
2, 48768, Note_on_c, 0, 74, 95
2, 48956, Note_off_c, 0, 68, 64
2, 48956, Note_off_c, 0, 74, 100
2, 48960, Note_on_c, 0, 68, 97
2, 48960, Note_on_c, 0, 76, 97
2, 49148, Note_off_c, 0, 68, 100
2, 49148, Note_off_c, 0, 76, 100
2, 49152, Note_on_c, 0, 69, 99
2, 49152, Note_on_c, 0, 74, 99
2, 49340, Note_off_c, 0, 69, 100
2, 49340, Note_off_c, 0, 74, 100
2, 49344, Note_on_c, 0, 68, 101
2, 49344, Note_on_c, 0, 76, 101
2, 49532, Note_off_c, 0, 76, 100
2, 49536, Note_on_c, 0, 74, 103
2, 49628, Note_off_c, 0, 74, 100
2, 49632, Note_on_c, 0, 76, 104
2, 49724, Note_off_c, 0, 68, 64
2, 49724, Note_off_c, 0, 76, 100
2, 49728, Note_on_c, 0, 78, 105
2, 49820, Note_off_c, 0, 78, 100
2, 49824, Note_on_c, 0, 80, 106
2, 49916, Note_off_c, 0, 80, 100
2, 49920, Note_on_c, 0, 81, 107
2, 50012, Note_off_c, 0, 81, 100
2, 50016, Note_on_c, 0, 83, 108
2, 50108, Note_off_c, 0, 83, 100
2, 50112, Note_on_c, 0, 85, 109
2, 50204, Note_off_c, 0, 85, 100
2, 50208, Note_on_c, 0, 86, 110
2, 50300, Note_off_c, 0, 86, 100
2, 50304, Note_on_c, 0, 76, 110
2, 50304, Note_on_c, 0, 88, 110
2, 50492, Note_off_c, 0, 76, 100
2, 50492, Note_off_c, 0, 88, 100
2, 50496, Note_on_c, 0, 71, 110
2, 50496, Note_on_c, 0, 83, 110
2, 50684, Note_off_c, 0, 71, 100
2, 50684, Note_off_c, 0, 83, 100
2, 50688, Note_on_c, 0, 69, 120
2, 50688, Note_on_c, 0, 81, 120
2, 51164, Note_off_c, 0, 81, 64
2, 51164, Note_off_c, 0, 69, 64
2, 51168, Note_on_c, 0, 83, 110
2, 51260, Note_off_c, 0, 83, 100
2, 51264, Note_on_c, 0, 85, 110
2, 51356, Note_off_c, 0, 85, 100
2, 51360, Note_on_c, 0, 86, 110
2, 51452, Note_off_c, 0, 86, 100
2, 51456, Note_on_c, 0, 68, 110
2, 51456, Note_on_c, 0, 80, 110
2, 51836, Note_off_c, 0, 68, 100
2, 51836, Note_off_c, 0, 80, 100
2, 52032, Note_on_c, 0, 68, 110
2, 52032, Note_on_c, 0, 80, 110
2, 52220, Note_off_c, 0, 68, 100
2, 52220, Note_off_c, 0, 80, 100
2, 52224, Note_on_c, 0, 66, 110
2, 52224, Note_on_c, 0, 78, 110
2, 52700, Note_off_c, 0, 78, 64
2, 52700, Note_off_c, 0, 66, 64
2, 52704, Note_on_c, 0, 80, 110
2, 52796, Note_off_c, 0, 80, 100
2, 52800, Note_on_c, 0, 81, 110
2, 52892, Note_off_c, 0, 81, 100
2, 52896, Note_on_c, 0, 83, 110
2, 52988, Note_off_c, 0, 83, 100
2, 52992, Note_on_c, 0, 64, 110
2, 52992, Note_on_c, 0, 76, 110
2, 53372, Note_off_c, 0, 64, 100
2, 53372, Note_off_c, 0, 76, 100
2, 53568, Note_on_c, 0, 52, 110
2, 53756, Note_off_c, 0, 52, 100
2, 53760, Note_on_c, 0, 54, 110
2, 53852, Note_off_c, 0, 54, 100
2, 53856, Note_on_c, 0, 56, 110
2, 53948, Note_off_c, 0, 56, 100
2, 53952, Note_on_c, 0, 57, 110
2, 54044, Note_off_c, 0, 57, 100
2, 54048, Note_on_c, 0, 59, 110
2, 54140, Note_off_c, 0, 59, 100
2, 54144, Note_on_c, 0, 57, 110
2, 54236, Note_off_c, 0, 57, 100
2, 54240, Note_on_c, 0, 56, 110
2, 54332, Note_off_c, 0, 56, 100
2, 54336, Note_on_c, 0, 57, 110
2, 54428, Note_off_c, 0, 57, 100
2, 54432, Note_on_c, 0, 59, 110
2, 54524, Note_off_c, 0, 59, 100
2, 54528, Note_on_c, 0, 57, 110
2, 54620, Note_off_c, 0, 57, 100
2, 54624, Note_on_c, 0, 56, 110
2, 54716, Note_off_c, 0, 56, 100
2, 54720, Note_on_c, 0, 54, 110
2, 54812, Note_off_c, 0, 54, 100
2, 54816, Note_on_c, 0, 56, 110
2, 54908, Note_off_c, 0, 56, 100
2, 54912, Note_on_c, 0, 57, 110
2, 55004, Note_off_c, 0, 57, 100
2, 55008, Note_on_c, 0, 59, 109
2, 55100, Note_off_c, 0, 59, 100
2, 55104, Note_on_c, 0, 61, 107
2, 55196, Note_off_c, 0, 61, 100
2, 55200, Note_on_c, 0, 62, 105
2, 55292, Note_off_c, 0, 62, 100
2, 55296, Note_on_c, 0, 64, 103
2, 55388, Note_off_c, 0, 64, 100
2, 55392, Note_on_c, 0, 66, 101
2, 55484, Note_off_c, 0, 66, 100
2, 55488, Note_on_c, 0, 68, 99
2, 55580, Note_off_c, 0, 68, 100
2, 55584, Note_on_c, 0, 69, 97
2, 55676, Note_off_c, 0, 69, 100
2, 55680, Note_on_c, 0, 68, 95
2, 55772, Note_off_c, 0, 68, 100
2, 55776, Note_on_c, 0, 69, 93
2, 55868, Note_off_c, 0, 69, 100
2, 55872, Note_on_c, 0, 66, 91
2, 55964, Note_off_c, 0, 66, 100
2, 55968, Note_on_c, 0, 62, 89
2, 56060, Note_off_c, 0, 62, 100
2, 56064, Note_on_c, 0, 64, 87
2, 56156, Note_off_c, 0, 64, 100
2, 56160, Note_on_c, 0, 66, 85
2, 56252, Note_off_c, 0, 66, 100
2, 56256, Note_on_c, 0, 59, 83
2, 56348, Note_off_c, 0, 59, 100
2, 56352, Note_on_c, 0, 64, 81
2, 56444, Note_off_c, 0, 64, 100
2, 56448, Note_on_c, 0, 57, 80
2, 56636, Note_off_c, 0, 57, 100
2, 56832, Note_on_c, 0, 61, 80
2, 56832, Note_on_c, 0, 69, 80
2, 56924, Note_off_c, 0, 61, 100
2, 56928, Note_on_c, 0, 62, 80
2, 57020, Note_off_c, 0, 62, 100
2, 57024, Note_on_c, 0, 64, 80
2, 57116, Note_off_c, 0, 64, 100
2, 57120, Note_on_c, 0, 66, 80
2, 57212, Note_off_c, 0, 66, 100
2, 57216, Note_on_c, 0, 64, 80
2, 57404, Note_off_c, 0, 69, 64
2, 57404, Note_off_c, 0, 64, 100
2, 57600, Note_on_c, 0, 61, 80
2, 57600, Note_on_c, 0, 69, 80
2, 57692, Note_off_c, 0, 61, 100
2, 57696, Note_on_c, 0, 62, 80
2, 57788, Note_off_c, 0, 62, 100
2, 57792, Note_on_c, 0, 64, 80
2, 57884, Note_off_c, 0, 64, 100
2, 57888, Note_on_c, 0, 66, 80
2, 57980, Note_off_c, 0, 66, 100
2, 57984, Note_on_c, 0, 64, 80
2, 58172, Note_off_c, 0, 69, 64
2, 58172, Note_off_c, 0, 64, 100
2, 58368, Note_on_c, 0, 62, 80
2, 58368, Note_on_c, 0, 68, 80
2, 58460, Note_off_c, 0, 62, 100
2, 58464, Note_on_c, 0, 64, 80
2, 58556, Note_off_c, 0, 64, 100
2, 58560, Note_on_c, 0, 66, 80
2, 58652, Note_off_c, 0, 66, 100
2, 58656, Note_on_c, 0, 64, 80
2, 58748, Note_off_c, 0, 68, 100
2, 58748, Note_off_c, 0, 64, 100
2, 58752, Note_on_c, 0, 64, 80
2, 58752, Note_on_c, 0, 76, 80
2, 59132, Note_off_c, 0, 64, 100
2, 59132, Note_off_c, 0, 76, 100
2, 59136, Note_on_c, 0, 62, 80
2, 59136, Note_on_c, 0, 68, 80
2, 59228, Note_off_c, 0, 62, 100
2, 59232, Note_on_c, 0, 64, 80
2, 59324, Note_off_c, 0, 64, 100
2, 59328, Note_on_c, 0, 66, 80
2, 59420, Note_off_c, 0, 66, 100
2, 59424, Note_on_c, 0, 64, 80
2, 59516, Note_off_c, 0, 68, 100
2, 59516, Note_off_c, 0, 64, 100
2, 59520, Note_on_c, 0, 69, 80
2, 59520, Note_on_c, 0, 64, 80
2, 59708, Note_off_c, 0, 69, 100
2, 59708, Note_off_c, 0, 64, 100
2, 59904, Note_on_c, 0, 61, 80
2, 59904, Note_on_c, 0, 69, 80
2, 59996, Note_off_c, 0, 61, 100
2, 60000, Note_on_c, 0, 62, 80
2, 60092, Note_off_c, 0, 62, 100
2, 60096, Note_on_c, 0, 64, 80
2, 60188, Note_off_c, 0, 64, 100
2, 60192, Note_on_c, 0, 66, 80
2, 60284, Note_off_c, 0, 66, 100
2, 60288, Note_on_c, 0, 64, 80
2, 60476, Note_off_c, 0, 69, 64
2, 60476, Note_off_c, 0, 64, 100
2, 60672, Note_on_c, 0, 61, 80
2, 60672, Note_on_c, 0, 69, 80
2, 60764, Note_off_c, 0, 61, 100
2, 60768, Note_on_c, 0, 62, 80
2, 60860, Note_off_c, 0, 62, 100
2, 60864, Note_on_c, 0, 64, 80
2, 60956, Note_off_c, 0, 64, 100
2, 60960, Note_on_c, 0, 66, 80
2, 61052, Note_off_c, 0, 66, 100
2, 61056, Note_on_c, 0, 64, 80
2, 61244, Note_off_c, 0, 69, 64
2, 61244, Note_off_c, 0, 64, 100
2, 61440, Note_on_c, 0, 62, 80
2, 61440, Note_on_c, 0, 68, 80
2, 61532, Note_off_c, 0, 62, 100
2, 61536, Note_on_c, 0, 64, 80
2, 61628, Note_off_c, 0, 64, 100
2, 61632, Note_on_c, 0, 66, 80
2, 61724, Note_off_c, 0, 66, 100
2, 61728, Note_on_c, 0, 64, 80
2, 61820, Note_off_c, 0, 68, 100
2, 61820, Note_off_c, 0, 64, 100
2, 61824, Note_on_c, 0, 64, 80
2, 61824, Note_on_c, 0, 76, 80
2, 62204, Note_off_c, 0, 64, 100
2, 62204, Note_off_c, 0, 76, 100
2, 62208, Note_on_c, 0, 64, 83
2, 62208, Note_on_c, 0, 69, 83
2, 62300, Note_off_c, 0, 64, 100
2, 62304, Note_on_c, 0, 66, 83
2, 62396, Note_off_c, 0, 66, 100
2, 62400, Note_on_c, 0, 68, 84
2, 62492, Note_off_c, 0, 68, 100
2, 62496, Note_on_c, 0, 66, 85
2, 62588, Note_off_c, 0, 69, 100
2, 62588, Note_off_c, 0, 66, 100
2, 62592, Note_on_c, 0, 66, 86
2, 62592, Note_on_c, 0, 73, 86
2, 62972, Note_off_c, 0, 66, 100
2, 62972, Note_off_c, 0, 73, 100
2, 62976, Note_on_c, 0, 66, 89
2, 62976, Note_on_c, 0, 71, 89
2, 63068, Note_off_c, 0, 66, 100
2, 63072, Note_on_c, 0, 68, 90
2, 63164, Note_off_c, 0, 68, 100
2, 63168, Note_on_c, 0, 69, 91
2, 63260, Note_off_c, 0, 69, 100
2, 63264, Note_on_c, 0, 68, 91
2, 63356, Note_off_c, 0, 71, 100
2, 63356, Note_off_c, 0, 68, 100
2, 63360, Note_on_c, 0, 80, 92
2, 63740, Note_off_c, 0, 80, 100
2, 63744, Note_on_c, 0, 68, 95
2, 63744, Note_on_c, 0, 73, 95
2, 63836, Note_off_c, 0, 68, 100
2, 63840, Note_on_c, 0, 69, 96
2, 63932, Note_off_c, 0, 69, 100
2, 63936, Note_on_c, 0, 71, 97
2, 64028, Note_off_c, 0, 71, 100
2, 64032, Note_on_c, 0, 69, 98
2, 64124, Note_off_c, 0, 73, 100
2, 64124, Note_off_c, 0, 69, 100
2, 64128, Note_on_c, 0, 69, 99
2, 64128, Note_on_c, 0, 76, 99
2, 64508, Note_off_c, 0, 69, 100
2, 64508, Note_off_c, 0, 76, 100
2, 64512, Note_on_c, 0, 69, 102
2, 64512, Note_on_c, 0, 75, 102
2, 64604, Note_off_c, 0, 69, 100
2, 64608, Note_on_c, 0, 71, 103
2, 64700, Note_off_c, 0, 71, 100
2, 64704, Note_on_c, 0, 73, 103
2, 64796, Note_off_c, 0, 73, 100
2, 64800, Note_on_c, 0, 71, 104
2, 64892, Note_off_c, 0, 75, 100
2, 64892, Note_off_c, 0, 71, 100
2, 64896, Note_on_c, 0, 83, 105
2, 65276, Note_off_c, 0, 83, 100
2, 65280, Note_on_c, 0, 71, 108
2, 65280, Note_on_c, 0, 76, 108
2, 65280, Note_on_c, 0, 80, 108
2, 65280, Note_on_c, 0, 83, 108
2, 65660, Note_off_c, 0, 71, 100
2, 65660, Note_off_c, 0, 76, 100
2, 65660, Note_off_c, 0, 80, 100
2, 65660, Note_off_c, 0, 83, 100
2, 65664, Note_on_c, 0, 75, 110
2, 65664, Note_on_c, 0, 78, 110
2, 65664, Note_on_c, 0, 83, 110
2, 66140, Note_off_c, 0, 83, 100
2, 66144, Note_on_c, 0, 85, 110
2, 66236, Note_off_c, 0, 75, 100
2, 66236, Note_off_c, 0, 78, 100
2, 66236, Note_off_c, 0, 85, 100
2, 66240, Note_on_c, 0, 87, 110
2, 66332, Note_off_c, 0, 87, 100
2, 66336, Note_on_c, 0, 85, 110
2, 66428, Note_off_c, 0, 85, 100
2, 66432, Note_on_c, 0, 75, 110
2, 66432, Note_on_c, 0, 78, 110
2, 66432, Note_on_c, 0, 83, 110
2, 66908, Note_off_c, 0, 83, 100
2, 66912, Note_on_c, 0, 85, 110
2, 67004, Note_off_c, 0, 75, 100
2, 67004, Note_off_c, 0, 78, 100
2, 67004, Note_off_c, 0, 85, 100
2, 67008, Note_on_c, 0, 87, 110
2, 67100, Note_off_c, 0, 87, 100
2, 67104, Note_on_c, 0, 85, 110
2, 67196, Note_off_c, 0, 85, 100
2, 67200, Note_on_c, 0, 75, 110
2, 67200, Note_on_c, 0, 83, 110
2, 67388, Note_off_c, 0, 75, 100
2, 67388, Note_off_c, 0, 83, 100
2, 67392, Note_on_c, 0, 76, 110
2, 67392, Note_on_c, 0, 85, 110
2, 67580, Note_off_c, 0, 76, 100
2, 67580, Note_off_c, 0, 85, 100
2, 67584, Note_on_c, 0, 78, 110
2, 67584, Note_on_c, 0, 81, 110
2, 67584, Note_on_c, 0, 87, 110
2, 67772, Note_off_c, 0, 78, 100
2, 67772, Note_off_c, 0, 81, 100
2, 67772, Note_off_c, 0, 87, 100
2, 67776, Note_on_c, 0, 80, 110
2, 67776, Note_on_c, 0, 83, 110
2, 67776, Note_on_c, 0, 88, 110
2, 67964, Note_off_c, 0, 80, 100
2, 67964, Note_off_c, 0, 83, 100
2, 67964, Note_off_c, 0, 88, 100
2, 67968, Note_on_c, 0, 87, 110
2, 67968, Note_on_c, 0, 90, 110
2, 68156, Note_off_c, 0, 87, 100
2, 68156, Note_off_c, 0, 90, 100
2, 68160, Note_on_c, 0, 88, 110
2, 68160, Note_on_c, 0, 92, 110
2, 68348, Note_off_c, 0, 88, 100
2, 68348, Note_off_c, 0, 92, 100
2, 68352, Note_on_c, 0, 90, 120
2, 68352, Note_on_c, 0, 93, 120
2, 68732, Note_off_c, 0, 90, 100
2, 68732, Note_off_c, 0, 93, 100
2, 69120, Note_on_c, 0, 69, 80
2, 69404, Note_off_c, 0, 69, 100
2, 69408, Note_on_c, 0, 68, 80
2, 69500, Note_off_c, 0, 68, 100
2, 69504, Note_on_c, 0, 66, 80
2, 69788, Note_off_c, 0, 66, 100
2, 69792, Note_on_c, 0, 68, 80
2, 69884, Note_off_c, 0, 68, 100
2, 69888, Note_on_c, 0, 69, 80
2, 70268, Note_off_c, 0, 69, 100
2, 70272, Note_on_c, 0, 68, 80
2, 70652, Note_off_c, 0, 68, 100
2, 70656, Note_on_c, 0, 73, 80
2, 71036, Note_off_c, 0, 73, 100
2, 71040, Note_on_c, 0, 76, 80
2, 71420, Note_off_c, 0, 76, 100
2, 71424, Note_on_c, 0, 68, 80
2, 71424, Note_on_c, 0, 73, 80
2, 71804, Note_off_c, 0, 68, 100
2, 71804, Note_off_c, 0, 73, 100
2, 71808, Note_on_c, 0, 63, 80
2, 71808, Note_on_c, 0, 66, 80
2, 71808, Note_on_c, 0, 71, 80
2, 72572, Note_off_c, 0, 63, 100
2, 72572, Note_off_c, 0, 66, 100
2, 72572, Note_off_c, 0, 71, 100
2, 72576, Note_on_c, 0, 61, 80
2, 72576, Note_on_c, 0, 64, 80
2, 72576, Note_on_c, 0, 70, 80
2, 73340, Note_off_c, 0, 61, 100
2, 73340, Note_off_c, 0, 64, 100
2, 73340, Note_off_c, 0, 70, 100
2, 73344, Note_on_c, 0, 63, 80
2, 73344, Note_on_c, 0, 71, 80
2, 73724, Note_off_c, 0, 63, 100
2, 73724, Note_off_c, 0, 71, 100
2, 73728, Control_c, 0, 64, 127
2, 73728, Note_on_c, 0, 76, 70
2, 73728, Note_on_c, 0, 80, 70
2, 74012, Note_off_c, 0, 76, 100
2, 74012, Note_off_c, 0, 80, 100
2, 74016, Note_on_c, 0, 71, 70
2, 74016, Note_on_c, 0, 78, 70
2, 74108, Note_off_c, 0, 71, 100
2, 74108, Note_off_c, 0, 78, 100
2, 74112, Note_on_c, 0, 68, 70
2, 74112, Note_on_c, 0, 76, 70
2, 74396, Note_off_c, 0, 68, 100
2, 74396, Note_off_c, 0, 76, 100
2, 74400, Note_on_c, 0, 71, 70
2, 74400, Note_on_c, 0, 78, 70
2, 74492, Note_off_c, 0, 71, 100
2, 74492, Note_off_c, 0, 78, 100
2, 74496, Note_on_c, 0, 76, 70
2, 74496, Note_on_c, 0, 80, 70
2, 74872, Control_c, 0, 64, 0
2, 74876, Note_off_c, 0, 76, 100
2, 74876, Note_off_c, 0, 80, 100
2, 74880, Note_on_c, 0, 81, 110
2, 74880, Note_on_c, 0, 75, 110
2, 74880, Note_on_c, 0, 78, 110
2, 75164, Note_off_c, 0, 81, 100
2, 75168, Note_on_c, 0, 83, 110
2, 75260, Note_off_c, 0, 75, 100
2, 75260, Note_off_c, 0, 78, 100
2, 75260, Note_off_c, 0, 83, 100
2, 75264, Note_on_c, 0, 76, 110
2, 75264, Note_on_c, 0, 80, 110
2, 75452, Note_off_c, 0, 76, 100
2, 75452, Note_off_c, 0, 80, 100
2, 75456, Note_on_c, 0, 80, 110
2, 75456, Note_on_c, 0, 88, 110
2, 75644, Note_off_c, 0, 80, 100
2, 75644, Note_off_c, 0, 88, 100
2, 75648, Note_on_c, 0, 69, 110
2, 75648, Note_on_c, 0, 78, 110
2, 75932, Note_off_c, 0, 69, 100
2, 75932, Note_off_c, 0, 78, 100
2, 75936, Note_on_c, 0, 71, 110
2, 75936, Note_on_c, 0, 80, 110
2, 76028, Note_off_c, 0, 71, 100
2, 76028, Note_off_c, 0, 80, 100
2, 76032, Note_on_c, 0, 68, 110
2, 76032, Note_on_c, 0, 76, 110
2, 76220, Note_off_c, 0, 68, 100
2, 76220, Note_off_c, 0, 76, 100
2, 76224, Note_on_c, 0, 76, 80
2, 76412, Note_off_c, 0, 76, 100
2, 76416, Note_on_c, 0, 71, 80
2, 76892, Note_off_c, 0, 71, 100
2, 76896, Note_on_c, 0, 73, 80
2, 76988, Note_off_c, 0, 73, 100
2, 76992, Note_on_c, 0, 75, 80
2, 77084, Note_off_c, 0, 75, 100
2, 77088, Note_on_c, 0, 76, 80
2, 77180, Note_off_c, 0, 76, 100
2, 77184, Note_on_c, 0, 73, 80
2, 77184, Note_on_c, 0, 64, 80
2, 77564, Note_off_c, 0, 73, 100
2, 77660, Note_off_c, 0, 64, 100
2, 77664, Note_on_c, 0, 66, 80
2, 77756, Note_off_c, 0, 66, 100
2, 77760, Note_on_c, 0, 68, 80
2, 77852, Note_off_c, 0, 68, 100
2, 77856, Note_on_c, 0, 69, 80
2, 77948, Note_off_c, 0, 69, 100
2, 77952, Note_on_c, 0, 78, 80
2, 78428, Note_off_c, 0, 78, 100
2, 78432, Note_on_c, 0, 80, 80
2, 78524, Note_off_c, 0, 80, 100
2, 78528, Note_on_c, 0, 81, 80
2, 78620, Note_off_c, 0, 81, 100
2, 78624, Note_on_c, 0, 83, 80
2, 78716, Note_off_c, 0, 83, 100
2, 78720, Note_on_c, 0, 80, 80
2, 78720, Note_on_c, 0, 71, 80
2, 79100, Note_off_c, 0, 80, 100
2, 79196, Note_off_c, 0, 71, 100
2, 79200, Note_on_c, 0, 73, 80
2, 79292, Note_off_c, 0, 73, 100
2, 79296, Note_on_c, 0, 75, 80
2, 79388, Note_off_c, 0, 75, 100
2, 79392, Note_on_c, 0, 76, 80
2, 79484, Note_off_c, 0, 76, 100
2, 79488, Note_on_c, 0, 71, 80
2, 79676, Note_off_c, 0, 71, 100
2, 79680, Note_on_c, 0, 71, 81
2, 79964, Note_off_c, 0, 71, 100
2, 79968, Note_on_c, 0, 73, 84
2, 80060, Note_off_c, 0, 73, 100
2, 80064, Note_on_c, 0, 75, 85
2, 80156, Note_off_c, 0, 75, 100
2, 80160, Note_on_c, 0, 76, 86
2, 80252, Note_off_c, 0, 76, 100
2, 80256, Note_on_c, 0, 73, 87
2, 80256, Note_on_c, 0, 64, 87
2, 80444, Note_off_c, 0, 64, 100
2, 80448, Note_on_c, 0, 64, 89
2, 80636, Note_off_c, 0, 73, 100
2, 80732, Note_off_c, 0, 64, 100
2, 80736, Note_on_c, 0, 66, 91
2, 80828, Note_off_c, 0, 66, 100
2, 80832, Note_on_c, 0, 68, 92
2, 80924, Note_off_c, 0, 68, 100
2, 80928, Note_on_c, 0, 69, 93
2, 81020, Note_off_c, 0, 69, 100
2, 81024, Note_on_c, 0, 69, 94
2, 81024, Note_on_c, 0, 78, 94
2, 81212, Note_off_c, 0, 78, 100
2, 81216, Note_on_c, 0, 78, 96
2, 81404, Note_off_c, 0, 69, 100
2, 81500, Note_off_c, 0, 78, 100
2, 81504, Note_on_c, 0, 80, 99
2, 81596, Note_off_c, 0, 80, 100
2, 81600, Note_on_c, 0, 81, 100
2, 81692, Note_off_c, 0, 81, 100
2, 81696, Note_on_c, 0, 83, 100
2, 81788, Note_off_c, 0, 83, 100
2, 81792, Note_on_c, 0, 71, 80
2, 81792, Note_on_c, 0, 80, 80
2, 81792, Note_on_c, 0, 83, 80
2, 81980, Note_off_c, 0, 71, 100
2, 81980, Note_off_c, 0, 80, 100
2, 81980, Note_off_c, 0, 83, 100
2, 81984, Note_on_c, 0, 64, 84
2, 81984, Note_on_c, 0, 68, 84
2, 81984, Note_on_c, 0, 71, 84
2, 82364, Note_off_c, 0, 64, 100
2, 82364, Note_off_c, 0, 68, 100
2, 82364, Note_off_c, 0, 71, 100
2, 82368, Note_on_c, 0, 64, 92
2, 82368, Note_on_c, 0, 68, 92
2, 82368, Note_on_c, 0, 71, 92
2, 82844, Note_off_c, 0, 71, 64
2, 82844, Note_off_c, 0, 68, 64
2, 82844, Note_off_c, 0, 64, 64
2, 82848, Note_on_c, 0, 64, 102
2, 82848, Note_on_c, 0, 68, 102
2, 82848, Note_on_c, 0, 71, 102
2, 82940, Note_off_c, 0, 64, 100
2, 82940, Note_off_c, 0, 68, 100
2, 82940, Note_off_c, 0, 71, 100
2, 82944, Note_on_c, 0, 64, 104
2, 82944, Note_on_c, 0, 68, 104
2, 82944, Note_on_c, 0, 71, 104
2, 83228, Note_off_c, 0, 64, 100
2, 83228, Note_off_c, 0, 68, 100
2, 83228, Note_off_c, 0, 71, 100
2, 83232, Note_on_c, 0, 64, 110
2, 83232, Note_on_c, 0, 68, 110
2, 83232, Note_on_c, 0, 71, 110
2, 83324, Note_off_c, 0, 64, 100
2, 83324, Note_off_c, 0, 68, 100
2, 83324, Note_off_c, 0, 71, 100
2, 83328, Note_on_c, 0, 63, 110
2, 83328, Note_on_c, 0, 66, 110
2, 83328, Note_on_c, 0, 71, 110
2, 83420, Note_off_c, 0, 63, 100
2, 83420, Note_off_c, 0, 66, 100
2, 83420, Note_off_c, 0, 71, 100
2, 83424, Note_on_c, 0, 73, 110
2, 83516, Note_off_c, 0, 73, 100
2, 83520, Note_on_c, 0, 75, 110
2, 83612, Note_off_c, 0, 75, 100
2, 83616, Note_on_c, 0, 76, 110
2, 83708, Note_off_c, 0, 76, 100
2, 83712, Note_on_c, 0, 75, 110
2, 83804, Note_off_c, 0, 75, 100
2, 83808, Note_on_c, 0, 76, 110
2, 83900, Note_off_c, 0, 76, 100
2, 83904, Note_on_c, 0, 78, 110
2, 83996, Note_off_c, 0, 78, 100
2, 84000, Note_on_c, 0, 80, 110
2, 84092, Note_off_c, 0, 80, 100
2, 84096, Note_on_c, 0, 78, 110
2, 84188, Note_off_c, 0, 78, 100
2, 84192, Note_on_c, 0, 80, 110
2, 84284, Note_off_c, 0, 80, 100
2, 84288, Note_on_c, 0, 81, 110
2, 84380, Note_off_c, 0, 81, 100
2, 84384, Note_on_c, 0, 83, 110
2, 84476, Note_off_c, 0, 83, 100
2, 84480, Note_on_c, 0, 81, 110
2, 84572, Note_off_c, 0, 81, 100
2, 84576, Note_on_c, 0, 83, 110
2, 84668, Note_off_c, 0, 83, 100
2, 84672, Note_on_c, 0, 85, 110
2, 84764, Note_off_c, 0, 85, 100
2, 84768, Note_on_c, 0, 87, 110
2, 84860, Note_off_c, 0, 87, 100
2, 84864, Note_on_c, 0, 88, 110
2, 85052, Note_off_c, 0, 88, 100
2, 85056, Note_on_c, 0, 76, 82
2, 85056, Note_on_c, 0, 80, 82
2, 85056, Note_on_c, 0, 83, 82
2, 85436, Note_off_c, 0, 76, 100
2, 85436, Note_off_c, 0, 80, 100
2, 85436, Note_off_c, 0, 83, 100
2, 85440, Note_on_c, 0, 76, 91
2, 85440, Note_on_c, 0, 80, 91
2, 85440, Note_on_c, 0, 83, 91
2, 85916, Note_off_c, 0, 83, 64
2, 85916, Note_off_c, 0, 80, 64
2, 85916, Note_off_c, 0, 76, 64
2, 85920, Note_on_c, 0, 76, 102
2, 85920, Note_on_c, 0, 80, 102
2, 85920, Note_on_c, 0, 83, 102
2, 86012, Note_off_c, 0, 76, 100
2, 86012, Note_off_c, 0, 80, 100
2, 86012, Note_off_c, 0, 83, 100
2, 86016, Note_on_c, 0, 76, 104
2, 86016, Note_on_c, 0, 80, 104
2, 86016, Note_on_c, 0, 83, 104
2, 86300, Note_off_c, 0, 76, 100
2, 86300, Note_off_c, 0, 80, 100
2, 86300, Note_off_c, 0, 83, 100
2, 86304, Note_on_c, 0, 76, 110
2, 86304, Note_on_c, 0, 80, 110
2, 86304, Note_on_c, 0, 83, 110
2, 86396, Note_off_c, 0, 76, 100
2, 86396, Note_off_c, 0, 80, 100
2, 86396, Note_off_c, 0, 83, 100
2, 86400, Note_on_c, 0, 75, 120
2, 86400, Note_on_c, 0, 78, 120
2, 86400, Note_on_c, 0, 83, 120
2, 86492, Note_off_c, 0, 75, 100
2, 86492, Note_off_c, 0, 78, 100
2, 86492, Note_off_c, 0, 83, 100
2, 86496, Note_on_c, 0, 85, 120
2, 86588, Note_off_c, 0, 85, 100
2, 86592, Note_on_c, 0, 87, 120
2, 86684, Note_off_c, 0, 87, 100
2, 86688, Note_on_c, 0, 88, 120
2, 86780, Note_off_c, 0, 88, 100
2, 86784, Note_on_c, 0, 87, 120
2, 86876, Note_off_c, 0, 87, 100
2, 86880, Note_on_c, 0, 88, 120
2, 86972, Note_off_c, 0, 88, 100
2, 86976, Note_on_c, 0, 90, 120
2, 87068, Note_off_c, 0, 90, 100
2, 87072, Note_on_c, 0, 92, 120
2, 87164, Note_off_c, 0, 92, 100
2, 87168, Note_on_c, 0, 90, 120
2, 87260, Note_off_c, 0, 90, 100
2, 87264, Note_on_c, 0, 92, 120
2, 87356, Note_off_c, 0, 92, 100
2, 87360, Note_on_c, 0, 93, 120
2, 87452, Note_off_c, 0, 93, 100
2, 87456, Note_on_c, 0, 95, 120
2, 87548, Note_off_c, 0, 95, 100
2, 87552, Note_on_c, 0, 93, 120
2, 87644, Note_off_c, 0, 93, 100
2, 87648, Note_on_c, 0, 95, 120
2, 87740, Note_off_c, 0, 95, 100
2, 87744, Note_on_c, 0, 97, 120
2, 87836, Note_off_c, 0, 97, 100
2, 87840, Note_on_c, 0, 99, 120
2, 87932, Note_off_c, 0, 99, 100
2, 87936, Note_on_c, 0, 88, 120
2, 87936, Note_on_c, 0, 92, 120
2, 87936, Note_on_c, 0, 100, 120
2, 88316, Note_off_c, 0, 88, 100
2, 88316, Note_off_c, 0, 92, 100
2, 88316, Note_off_c, 0, 100, 100
2, 88512, Note_on_c, 0, 78, 80
2, 88512, Note_on_c, 0, 85, 80
2, 88512, Note_on_c, 0, 90, 80
2, 88700, Note_off_c, 0, 78, 100
2, 88700, Note_off_c, 0, 85, 100
2, 88700, Note_off_c, 0, 90, 100
2, 88704, Note_on_c, 0, 78, 80
2, 88704, Note_on_c, 0, 85, 80
2, 88704, Note_on_c, 0, 90, 80
2, 89084, Note_off_c, 0, 78, 100
2, 89084, Note_off_c, 0, 85, 100
2, 89084, Note_off_c, 0, 90, 100
2, 89280, Note_on_c, 0, 81, 80
2, 89280, Note_on_c, 0, 93, 80
2, 89468, Note_off_c, 0, 81, 100
2, 89468, Note_off_c, 0, 93, 100
2, 89472, Note_on_c, 0, 81, 80
2, 89472, Note_on_c, 0, 93, 80
2, 89660, Note_off_c, 0, 81, 100
2, 89660, Note_off_c, 0, 93, 100
2, 89664, Note_on_c, 0, 75, 80
2, 89664, Note_on_c, 0, 81, 80
2, 89664, Note_on_c, 0, 87, 80
2, 89852, Note_off_c, 0, 75, 100
2, 89852, Note_off_c, 0, 81, 100
2, 89852, Note_off_c, 0, 87, 100
2, 89856, Note_on_c, 0, 75, 80
2, 89856, Note_on_c, 0, 81, 80
2, 89856, Note_on_c, 0, 87, 80
2, 90044, Note_off_c, 0, 75, 100
2, 90044, Note_off_c, 0, 81, 100
2, 90044, Note_off_c, 0, 87, 100
2, 90048, Note_on_c, 0, 76, 80
2, 90048, Note_on_c, 0, 80, 80
2, 90048, Note_on_c, 0, 88, 80
2, 90236, Note_off_c, 0, 76, 100
2, 90236, Note_off_c, 0, 80, 100
2, 90236, Note_off_c, 0, 88, 100
2, 90240, Note_on_c, 0, 78, 80
2, 90240, Note_on_c, 0, 87, 80
2, 90240, Note_on_c, 0, 90, 80
2, 90620, Note_off_c, 0, 78, 100
2, 90620, Note_off_c, 0, 87, 100
2, 90620, Note_off_c, 0, 90, 100
2, 91008, Note_on_c, 0, 59, 70
2, 91008, Note_on_c, 0, 66, 70
2, 91008, Note_on_c, 0, 69, 70
2, 91388, Note_off_c, 0, 59, 100
2, 91388, Note_off_c, 0, 66, 100
2, 91388, Note_off_c, 0, 69, 100
2, 91584, Note_on_c, 0, 59, 70
2, 91584, Note_on_c, 0, 64, 70
2, 91584, Note_on_c, 0, 68, 70
2, 91772, Note_off_c, 0, 59, 100
2, 91772, Note_off_c, 0, 64, 100
2, 91772, Note_off_c, 0, 68, 100
2, 91776, Note_on_c, 0, 59, 70
2, 91776, Note_on_c, 0, 64, 70
2, 91776, Note_on_c, 0, 68, 70
2, 92156, Note_off_c, 0, 59, 100
2, 92156, Note_off_c, 0, 64, 100
2, 92156, Note_off_c, 0, 68, 100
2, 92352, Note_on_c, 0, 61, 70
2, 92352, Note_on_c, 0, 64, 70
2, 92352, Note_on_c, 0, 66, 70
2, 92540, Note_off_c, 0, 61, 100
2, 92540, Note_off_c, 0, 64, 100
2, 92540, Note_off_c, 0, 66, 100
2, 92544, Note_on_c, 0, 61, 70
2, 92544, Note_on_c, 0, 64, 70
2, 92544, Note_on_c, 0, 66, 70
2, 92732, Note_off_c, 0, 61, 100
2, 92732, Note_off_c, 0, 64, 100
2, 92732, Note_off_c, 0, 66, 100
2, 92736, Note_on_c, 0, 63, 70
2, 92736, Note_on_c, 0, 71, 70
2, 92924, Note_off_c, 0, 63, 100
2, 92924, Note_off_c, 0, 71, 100
2, 92928, Note_on_c, 0, 63, 70
2, 92928, Note_on_c, 0, 71, 70
2, 93116, Note_off_c, 0, 63, 100
2, 93116, Note_off_c, 0, 71, 100
2, 93120, Note_on_c, 0, 64, 70
2, 93308, Note_off_c, 0, 64, 100
2, 93312, Note_on_c, 0, 64, 70
2, 93692, Note_off_c, 0, 64, 100
2, 93888, Note_on_c, 0, 76, 110
2, 93888, Note_on_c, 0, 88, 110
2, 94076, Note_off_c, 0, 76, 100
2, 94076, Note_off_c, 0, 88, 100
2, 94080, Note_on_c, 0, 73, 110
2, 94080, Note_on_c, 0, 76, 110
2, 94080, Note_on_c, 0, 81, 110
2, 94080, Note_on_c, 0, 85, 110
2, 94556, Note_off_c, 0, 73, 100
2, 94556, Note_off_c, 0, 76, 100
2, 94556, Note_off_c, 0, 81, 100
2, 94556, Note_off_c, 0, 85, 100
2, 94560, Note_on_c, 0, 86, 110
2, 94652, Note_off_c, 0, 86, 100
2, 94656, Note_on_c, 0, 88, 110
2, 94748, Note_off_c, 0, 88, 100
2, 94752, Note_on_c, 0, 90, 110
2, 94844, Note_off_c, 0, 90, 100
2, 94848, Note_on_c, 0, 71, 110
2, 94848, Note_on_c, 0, 83, 110
2, 95228, Note_off_c, 0, 71, 100
2, 95228, Note_off_c, 0, 83, 100
2, 95424, Note_on_c, 0, 76, 110
2, 95424, Note_on_c, 0, 88, 110
2, 95612, Note_off_c, 0, 76, 100
2, 95612, Note_off_c, 0, 88, 100
2, 95616, Note_on_c, 0, 69, 110
2, 95616, Note_on_c, 0, 81, 110
2, 96092, Note_off_c, 0, 69, 100
2, 96092, Note_off_c, 0, 81, 100
2, 96096, Note_on_c, 0, 83, 110
2, 96188, Note_off_c, 0, 83, 100
2, 96192, Note_on_c, 0, 85, 110
2, 96284, Note_off_c, 0, 85, 100
2, 96288, Note_on_c, 0, 86, 110
2, 96380, Note_off_c, 0, 86, 100
2, 96384, Note_on_c, 0, 68, 110
2, 96384, Note_on_c, 0, 80, 110
2, 96764, Note_off_c, 0, 68, 100
2, 96764, Note_off_c, 0, 80, 100
2, 96960, Note_on_c, 0, 85, 80
2, 97148, Note_off_c, 0, 85, 100
2, 97152, Note_on_c, 0, 78, 80
2, 97244, Note_off_c, 0, 78, 100
2, 97248, Note_on_c, 0, 80, 80
2, 97340, Note_off_c, 0, 80, 100
2, 97344, Note_on_c, 0, 81, 80
2, 97436, Note_off_c, 0, 81, 100
2, 97440, Note_on_c, 0, 83, 80
2, 97532, Note_off_c, 0, 83, 100
2, 97536, Note_on_c, 0, 81, 80
2, 97628, Note_off_c, 0, 81, 100
2, 97632, Note_on_c, 0, 80, 80
2, 97724, Note_off_c, 0, 80, 100
2, 97728, Note_on_c, 0, 78, 80
2, 97820, Note_off_c, 0, 78, 100
2, 97824, Note_on_c, 0, 80, 80
2, 97916, Note_off_c, 0, 80, 100
2, 97920, Note_on_c, 0, 81, 80
2, 98012, Note_off_c, 0, 81, 100
2, 98016, Note_on_c, 0, 83, 80
2, 98108, Note_off_c, 0, 83, 100
2, 98112, Note_on_c, 0, 85, 80
2, 98204, Note_off_c, 0, 85, 100
2, 98208, Note_on_c, 0, 86, 80
2, 98300, Note_off_c, 0, 86, 100
2, 98304, Note_on_c, 0, 85, 80
2, 98396, Note_off_c, 0, 85, 100
2, 98400, Note_on_c, 0, 83, 80
2, 98492, Note_off_c, 0, 83, 100
2, 98496, Note_on_c, 0, 81, 80
2, 98588, Note_off_c, 0, 81, 100
2, 98592, Note_on_c, 0, 83, 80
2, 98684, Note_off_c, 0, 83, 100
2, 98688, Note_on_c, 0, 85, 80
2, 98780, Note_off_c, 0, 85, 100
2, 98784, Note_on_c, 0, 86, 80
2, 98876, Note_off_c, 0, 86, 100
2, 98880, Note_on_c, 0, 88, 80
2, 98972, Note_off_c, 0, 88, 100
2, 98976, Note_on_c, 0, 90, 80
2, 99068, Note_off_c, 0, 90, 100
2, 99072, Note_on_c, 0, 92, 80
2, 99164, Note_off_c, 0, 92, 100
2, 99168, Note_on_c, 0, 93, 80
2, 99260, Note_off_c, 0, 93, 100
2, 99264, Note_on_c, 0, 81, 80
2, 99264, Note_on_c, 0, 85, 80
2, 99356, Note_off_c, 0, 81, 100
2, 99356, Note_off_c, 0, 85, 100
2, 99360, Note_on_c, 0, 87, 80
2, 99452, Note_off_c, 0, 87, 100
2, 99456, Note_on_c, 0, 81, 80
2, 99456, Note_on_c, 0, 90, 80
2, 99836, Note_off_c, 0, 81, 100
2, 99836, Note_off_c, 0, 90, 100
2, 99840, Note_on_c, 0, 80, 80
2, 99840, Note_on_c, 0, 88, 80
2, 100028, Note_off_c, 0, 80, 100
2, 100028, Note_off_c, 0, 88, 100
2, 100416, Note_on_c, 0, 83, 110
2, 100416, Note_on_c, 0, 71, 110
2, 100604, Note_off_c, 0, 83, 100
2, 100604, Note_off_c, 0, 71, 100
2, 100608, Note_on_c, 0, 69, 110
2, 100608, Note_on_c, 0, 81, 110
2, 101084, Note_off_c, 0, 81, 64
2, 101084, Note_off_c, 0, 69, 64
2, 101088, Note_on_c, 0, 83, 110
2, 101180, Note_off_c, 0, 83, 100
2, 101184, Note_on_c, 0, 85, 110
2, 101276, Note_off_c, 0, 85, 100
2, 101280, Note_on_c, 0, 86, 110
2, 101372, Note_off_c, 0, 86, 100
2, 101376, Note_on_c, 0, 68, 110
2, 101376, Note_on_c, 0, 80, 110
2, 101564, Note_off_c, 0, 68, 100
2, 101564, Note_off_c, 0, 80, 100
2, 101952, Note_on_c, 0, 68, 110
2, 101952, Note_on_c, 0, 80, 110
2, 102140, Note_off_c, 0, 68, 100
2, 102140, Note_off_c, 0, 80, 100
2, 102144, Note_on_c, 0, 66, 110
2, 102144, Note_on_c, 0, 78, 110
2, 102620, Note_off_c, 0, 78, 64
2, 102620, Note_off_c, 0, 66, 64
2, 102624, Note_on_c, 0, 80, 110
2, 102716, Note_off_c, 0, 80, 100
2, 102720, Note_on_c, 0, 81, 110
2, 102812, Note_off_c, 0, 81, 100
2, 102816, Note_on_c, 0, 83, 110
2, 102908, Note_off_c, 0, 83, 100
2, 102912, Note_on_c, 0, 64, 110
2, 102912, Note_on_c, 0, 76, 110
2, 103100, Note_off_c, 0, 64, 100
2, 103100, Note_off_c, 0, 76, 100
2, 103104, Note_on_c, 0, 68, 80
2, 103104, Note_on_c, 0, 76, 80
2, 103484, Note_off_c, 0, 76, 64
2, 103484, Note_off_c, 0, 68, 64
2, 103488, Note_on_c, 0, 66, 80
2, 103488, Note_on_c, 0, 62, 80
2, 103488, Note_on_c, 0, 74, 80
2, 103676, Note_off_c, 0, 66, 100
2, 103680, Note_on_c, 0, 71, 80
2, 103868, Note_off_c, 0, 62, 100
2, 103868, Note_off_c, 0, 74, 100
2, 103868, Note_off_c, 0, 71, 100
2, 103872, Note_on_c, 0, 62, 80
2, 103872, Note_on_c, 0, 64, 80
2, 103872, Note_on_c, 0, 71, 80
2, 104060, Note_off_c, 0, 62, 100
2, 104060, Note_off_c, 0, 64, 100
2, 104060, Note_off_c, 0, 71, 100
2, 104064, Note_on_c, 0, 61, 80
2, 104064, Note_on_c, 0, 69, 80
2, 104156, Note_off_c, 0, 61, 100
2, 104160, Note_on_c, 0, 62, 80
2, 104252, Note_off_c, 0, 69, 100
2, 104252, Note_off_c, 0, 62, 100
2, 104256, Note_on_c, 0, 64, 80
2, 104256, Note_on_c, 0, 69, 80
2, 104348, Note_off_c, 0, 64, 100
2, 104352, Note_on_c, 0, 66, 80
2, 104444, Note_off_c, 0, 66, 100
2, 104448, Note_on_c, 0, 64, 80
2, 104540, Note_off_c, 0, 64, 100
2, 104544, Note_on_c, 0, 62, 80
2, 104636, Note_off_c, 0, 69, 100
2, 104636, Note_off_c, 0, 62, 100
2, 104640, Note_on_c, 0, 61, 80
2, 104640, Note_on_c, 0, 69, 80
2, 104732, Note_off_c, 0, 61, 100
2, 104736, Note_on_c, 0, 62, 80
2, 104828, Note_off_c, 0, 62, 100
2, 104832, Note_on_c, 0, 64, 80
2, 105020, Note_off_c, 0, 69, 64
2, 105020, Note_off_c, 0, 64, 100
2, 105024, Note_on_c, 0, 73, 80
2, 105024, Note_on_c, 0, 81, 80
2, 105404, Note_off_c, 0, 73, 100
2, 105404, Note_off_c, 0, 81, 100
2, 105408, Note_on_c, 0, 73, 80
2, 105408, Note_on_c, 0, 81, 80
2, 105788, Note_off_c, 0, 81, 64
2, 105788, Note_off_c, 0, 73, 64
2, 105792, Note_on_c, 0, 71, 80
2, 105792, Note_on_c, 0, 80, 80
2, 105980, Note_off_c, 0, 71, 100
2, 105980, Note_off_c, 0, 80, 100
2, 105984, Note_on_c, 0, 73, 80
2, 105984, Note_on_c, 0, 81, 80
2, 106172, Note_off_c, 0, 73, 100
2, 106172, Note_off_c, 0, 81, 100
2, 106176, Note_on_c, 0, 76, 80
2, 106364, Note_off_c, 0, 76, 100
2, 106368, Note_on_c, 0, 74, 80
2, 106560, Note_on_c, 0, 69, 80
2, 106748, Note_off_c, 0, 69, 100
2, 106752, Note_on_c, 0, 68, 80
2, 106940, Note_off_c, 0, 74, 100
2, 106944, Note_on_c, 0, 76, 80
2, 107132, Note_off_c, 0, 68, 100
2, 107132, Note_off_c, 0, 76, 100
2, 107136, Note_on_c, 0, 73, 80
2, 107136, Note_on_c, 0, 69, 80
2, 107324, Note_off_c, 0, 73, 100
2, 107328, Note_on_c, 0, 81, 80
2, 107516, Note_off_c, 0, 81, 100
2, 107520, Note_on_c, 0, 76, 80
2, 107708, Note_off_c, 0, 69, 100
2, 107708, Note_off_c, 0, 76, 100
2, 108096, Note_on_c, 0, 71, 80
2, 108096, Note_on_c, 0, 80, 80
2, 108476, Note_off_c, 0, 71, 100
2, 108476, Note_off_c, 0, 80, 100
2, 108480, Note_on_c, 0, 71, 80
2, 108480, Note_on_c, 0, 80, 80
2, 108668, Note_off_c, 0, 71, 100
2, 108668, Note_off_c, 0, 80, 100
2, 108672, Note_on_c, 0, 69, 80
2, 108672, Note_on_c, 0, 81, 80
2, 108860, Note_off_c, 0, 69, 100
2, 108860, Note_off_c, 0, 81, 100
2, 108864, Note_on_c, 0, 73, 80
2, 108864, Note_on_c, 0, 76, 80
2, 109052, Note_off_c, 0, 73, 100
2, 109052, Note_off_c, 0, 76, 100
2, 109056, Note_on_c, 0, 69, 80
2, 109056, Note_on_c, 0, 73, 80
2, 109244, Note_off_c, 0, 69, 100
2, 109244, Note_off_c, 0, 73, 100
2, 109248, Note_on_c, 0, 68, 80
2, 109248, Note_on_c, 0, 76, 80
2, 109436, Note_off_c, 0, 68, 100
2, 109436, Note_off_c, 0, 76, 100
2, 109440, Note_on_c, 0, 68, 80
2, 109440, Note_on_c, 0, 74, 80
2, 109628, Note_off_c, 0, 68, 100
2, 109632, Note_on_c, 0, 69, 81
2, 109820, Note_off_c, 0, 69, 100
2, 109824, Note_on_c, 0, 68, 83
2, 110012, Note_off_c, 0, 74, 100
2, 110016, Note_on_c, 0, 76, 85
2, 110204, Note_off_c, 0, 76, 100
2, 110208, Note_on_c, 0, 68, 87
2, 110208, Note_on_c, 0, 74, 87
2, 110396, Note_off_c, 0, 68, 64
2, 110396, Note_off_c, 0, 68, 100
2, 110400, Note_on_c, 0, 69, 89
2, 110588, Note_off_c, 0, 69, 100
2, 110592, Note_on_c, 0, 68, 91
2, 110780, Note_off_c, 0, 74, 100
2, 110784, Note_on_c, 0, 76, 93
2, 110972, Note_off_c, 0, 76, 100
2, 110976, Note_on_c, 0, 74, 95
2, 111164, Note_off_c, 0, 68, 64
2, 111164, Note_off_c, 0, 74, 100
2, 111168, Note_on_c, 0, 68, 97
2, 111168, Note_on_c, 0, 76, 97
2, 111356, Note_off_c, 0, 68, 100
2, 111356, Note_off_c, 0, 76, 100
2, 111360, Note_on_c, 0, 69, 99
2, 111360, Note_on_c, 0, 74, 99
2, 111548, Note_off_c, 0, 69, 100
2, 111548, Note_off_c, 0, 74, 100
2, 111552, Note_on_c, 0, 68, 101
2, 111552, Note_on_c, 0, 76, 101
2, 111740, Note_off_c, 0, 76, 100
2, 111744, Note_on_c, 0, 74, 103
2, 111836, Note_off_c, 0, 74, 100
2, 111840, Note_on_c, 0, 76, 104
2, 111932, Note_off_c, 0, 68, 64
2, 111932, Note_off_c, 0, 76, 100
2, 111936, Note_on_c, 0, 78, 105
2, 112028, Note_off_c, 0, 78, 100
2, 112032, Note_on_c, 0, 80, 106
2, 112124, Note_off_c, 0, 80, 100
2, 112128, Note_on_c, 0, 81, 107
2, 112220, Note_off_c, 0, 81, 100
2, 112224, Note_on_c, 0, 83, 108
2, 112316, Note_off_c, 0, 83, 100
2, 112320, Note_on_c, 0, 85, 109
2, 112412, Note_off_c, 0, 85, 100
2, 112416, Note_on_c, 0, 86, 110
2, 112508, Note_off_c, 0, 86, 100
2, 112512, Note_on_c, 0, 76, 110
2, 112512, Note_on_c, 0, 88, 110
2, 112700, Note_off_c, 0, 76, 100
2, 112700, Note_off_c, 0, 88, 100
2, 112704, Note_on_c, 0, 71, 110
2, 112704, Note_on_c, 0, 83, 110
2, 112892, Note_off_c, 0, 71, 100
2, 112892, Note_off_c, 0, 83, 100
2, 112896, Note_on_c, 0, 69, 120
2, 112896, Note_on_c, 0, 81, 120
2, 113372, Note_off_c, 0, 81, 64
2, 113372, Note_off_c, 0, 69, 64
2, 113376, Note_on_c, 0, 83, 110
2, 113468, Note_off_c, 0, 83, 100
2, 113472, Note_on_c, 0, 85, 110
2, 113564, Note_off_c, 0, 85, 100
2, 113568, Note_on_c, 0, 86, 110
2, 113660, Note_off_c, 0, 86, 100
2, 113664, Note_on_c, 0, 68, 110
2, 113664, Note_on_c, 0, 80, 110
2, 114044, Note_off_c, 0, 68, 100
2, 114044, Note_off_c, 0, 80, 100
2, 114240, Note_on_c, 0, 68, 110
2, 114240, Note_on_c, 0, 80, 110
2, 114428, Note_off_c, 0, 68, 100
2, 114428, Note_off_c, 0, 80, 100
2, 114432, Note_on_c, 0, 66, 110
2, 114432, Note_on_c, 0, 78, 110
2, 114908, Note_off_c, 0, 78, 64
2, 114908, Note_off_c, 0, 66, 64
2, 114912, Note_on_c, 0, 80, 110
2, 115004, Note_off_c, 0, 80, 100
2, 115008, Note_on_c, 0, 81, 110
2, 115100, Note_off_c, 0, 81, 100
2, 115104, Note_on_c, 0, 83, 110
2, 115196, Note_off_c, 0, 83, 100
2, 115200, Note_on_c, 0, 64, 110
2, 115200, Note_on_c, 0, 76, 110
2, 115580, Note_off_c, 0, 64, 100
2, 115580, Note_off_c, 0, 76, 100
2, 115776, Note_on_c, 0, 52, 110
2, 115964, Note_off_c, 0, 52, 100
2, 115968, Note_on_c, 0, 54, 110
2, 116060, Note_off_c, 0, 54, 100
2, 116064, Note_on_c, 0, 56, 110
2, 116156, Note_off_c, 0, 56, 100
2, 116160, Note_on_c, 0, 57, 110
2, 116252, Note_off_c, 0, 57, 100
2, 116256, Note_on_c, 0, 59, 110
2, 116348, Note_off_c, 0, 59, 100
2, 116352, Note_on_c, 0, 57, 110
2, 116444, Note_off_c, 0, 57, 100
2, 116448, Note_on_c, 0, 56, 110
2, 116540, Note_off_c, 0, 56, 100
2, 116544, Note_on_c, 0, 57, 110
2, 116636, Note_off_c, 0, 57, 100
2, 116640, Note_on_c, 0, 59, 110
2, 116732, Note_off_c, 0, 59, 100
2, 116736, Note_on_c, 0, 57, 110
2, 116828, Note_off_c, 0, 57, 100
2, 116832, Note_on_c, 0, 56, 110
2, 116924, Note_off_c, 0, 56, 100
2, 116928, Note_on_c, 0, 54, 110
2, 117020, Note_off_c, 0, 54, 100
2, 117024, Note_on_c, 0, 56, 110
2, 117116, Note_off_c, 0, 56, 100
2, 117120, Note_on_c, 0, 57, 110
2, 117212, Note_off_c, 0, 57, 100
2, 117216, Note_on_c, 0, 59, 109
2, 117308, Note_off_c, 0, 59, 100
2, 117312, Note_on_c, 0, 61, 107
2, 117404, Note_off_c, 0, 61, 100
2, 117408, Note_on_c, 0, 62, 105
2, 117500, Note_off_c, 0, 62, 100
2, 117504, Note_on_c, 0, 64, 103
2, 117596, Note_off_c, 0, 64, 100
2, 117600, Note_on_c, 0, 66, 101
2, 117692, Note_off_c, 0, 66, 100
2, 117696, Note_on_c, 0, 68, 99
2, 117788, Note_off_c, 0, 68, 100
2, 117792, Note_on_c, 0, 69, 97
2, 117884, Note_off_c, 0, 69, 100
2, 117888, Note_on_c, 0, 68, 95
2, 117980, Note_off_c, 0, 68, 100
2, 117984, Note_on_c, 0, 69, 93
2, 118076, Note_off_c, 0, 69, 100
2, 118080, Note_on_c, 0, 66, 91
2, 118172, Note_off_c, 0, 66, 100
2, 118176, Note_on_c, 0, 62, 89
2, 118268, Note_off_c, 0, 62, 100
2, 118272, Note_on_c, 0, 64, 87
2, 118364, Note_off_c, 0, 64, 100
2, 118368, Note_on_c, 0, 66, 85
2, 118460, Note_off_c, 0, 66, 100
2, 118464, Note_on_c, 0, 59, 83
2, 118556, Note_off_c, 0, 59, 100
2, 118560, Note_on_c, 0, 64, 81
2, 118652, Note_off_c, 0, 64, 100
2, 118656, Note_on_c, 0, 57, 80
2, 118844, Note_off_c, 0, 57, 100
2, 119040, Note_on_c, 0, 61, 80
2, 119040, Note_on_c, 0, 69, 80
2, 119132, Note_off_c, 0, 61, 100
2, 119136, Note_on_c, 0, 62, 80
2, 119228, Note_off_c, 0, 62, 100
2, 119232, Note_on_c, 0, 64, 80
2, 119324, Note_off_c, 0, 64, 100
2, 119328, Note_on_c, 0, 66, 80
2, 119420, Note_off_c, 0, 66, 100
2, 119424, Note_on_c, 0, 64, 80
2, 119612, Note_off_c, 0, 69, 64
2, 119612, Note_off_c, 0, 64, 100
2, 119808, Note_on_c, 0, 61, 80
2, 119808, Note_on_c, 0, 69, 80
2, 119900, Note_off_c, 0, 61, 100
2, 119904, Note_on_c, 0, 62, 80
2, 119996, Note_off_c, 0, 62, 100
2, 120000, Note_on_c, 0, 64, 80
2, 120092, Note_off_c, 0, 64, 100
2, 120096, Note_on_c, 0, 66, 80
2, 120188, Note_off_c, 0, 66, 100
2, 120192, Note_on_c, 0, 64, 80
2, 120380, Note_off_c, 0, 69, 64
2, 120380, Note_off_c, 0, 64, 100
2, 120576, Note_on_c, 0, 62, 80
2, 120576, Note_on_c, 0, 68, 80
2, 120668, Note_off_c, 0, 62, 100
2, 120672, Note_on_c, 0, 64, 80
2, 120764, Note_off_c, 0, 64, 100
2, 120768, Note_on_c, 0, 66, 80
2, 120860, Note_off_c, 0, 66, 100
2, 120864, Note_on_c, 0, 64, 80
2, 120956, Note_off_c, 0, 68, 100
2, 120956, Note_off_c, 0, 64, 100
2, 120960, Note_on_c, 0, 64, 80
2, 120960, Note_on_c, 0, 76, 80
2, 121340, Note_off_c, 0, 64, 100
2, 121340, Note_off_c, 0, 76, 100
2, 121344, Note_on_c, 0, 62, 80
2, 121344, Note_on_c, 0, 68, 80
2, 121436, Note_off_c, 0, 62, 100
2, 121440, Note_on_c, 0, 64, 80
2, 121532, Note_off_c, 0, 64, 100
2, 121536, Note_on_c, 0, 66, 80
2, 121628, Note_off_c, 0, 66, 100
2, 121632, Note_on_c, 0, 64, 80
2, 121724, Note_off_c, 0, 68, 100
2, 121724, Note_off_c, 0, 64, 100
2, 121728, Note_on_c, 0, 69, 80
2, 121728, Note_on_c, 0, 64, 80
2, 121916, Note_off_c, 0, 69, 100
2, 121916, Note_off_c, 0, 64, 100
2, 122112, Note_on_c, 0, 61, 80
2, 122112, Note_on_c, 0, 69, 80
2, 122204, Note_off_c, 0, 61, 100
2, 122208, Note_on_c, 0, 62, 80
2, 122300, Note_off_c, 0, 62, 100
2, 122304, Note_on_c, 0, 64, 80
2, 122396, Note_off_c, 0, 64, 100
2, 122400, Note_on_c, 0, 66, 80
2, 122492, Note_off_c, 0, 66, 100
2, 122496, Note_on_c, 0, 64, 80
2, 122684, Note_off_c, 0, 69, 64
2, 122684, Note_off_c, 0, 64, 100
2, 122880, Note_on_c, 0, 61, 80
2, 122880, Note_on_c, 0, 69, 80
2, 122972, Note_off_c, 0, 61, 100
2, 122976, Note_on_c, 0, 62, 80
2, 123068, Note_off_c, 0, 62, 100
2, 123072, Note_on_c, 0, 64, 80
2, 123164, Note_off_c, 0, 64, 100
2, 123168, Note_on_c, 0, 66, 80
2, 123260, Note_off_c, 0, 66, 100
2, 123264, Note_on_c, 0, 64, 80
2, 123452, Note_off_c, 0, 69, 64
2, 123452, Note_off_c, 0, 64, 100
2, 123648, Note_on_c, 0, 62, 80
2, 123648, Note_on_c, 0, 68, 80
2, 123740, Note_off_c, 0, 62, 100
2, 123744, Note_on_c, 0, 64, 80
2, 123836, Note_off_c, 0, 64, 100
2, 123840, Note_on_c, 0, 66, 80
2, 123932, Note_off_c, 0, 66, 100
2, 123936, Note_on_c, 0, 64, 80
2, 124028, Note_off_c, 0, 68, 100
2, 124028, Note_off_c, 0, 64, 100
2, 124032, Note_on_c, 0, 64, 80
2, 124032, Note_on_c, 0, 76, 80
2, 124412, Note_off_c, 0, 64, 100
2, 124412, Note_off_c, 0, 76, 100
2, 124416, Note_on_c, 0, 64, 83
2, 124416, Note_on_c, 0, 69, 83
2, 124508, Note_off_c, 0, 64, 100
2, 124512, Note_on_c, 0, 66, 83
2, 124604, Note_off_c, 0, 66, 100
2, 124608, Note_on_c, 0, 68, 84
2, 124700, Note_off_c, 0, 68, 100
2, 124704, Note_on_c, 0, 66, 85
2, 124796, Note_off_c, 0, 69, 100
2, 124796, Note_off_c, 0, 66, 100
2, 124800, Note_on_c, 0, 66, 86
2, 124800, Note_on_c, 0, 73, 86
2, 125180, Note_off_c, 0, 66, 100
2, 125180, Note_off_c, 0, 73, 100
2, 125184, Note_on_c, 0, 66, 89
2, 125184, Note_on_c, 0, 71, 89
2, 125276, Note_off_c, 0, 66, 100
2, 125280, Note_on_c, 0, 68, 90
2, 125372, Note_off_c, 0, 68, 100
2, 125376, Note_on_c, 0, 69, 91
2, 125468, Note_off_c, 0, 69, 100
2, 125472, Note_on_c, 0, 68, 91
2, 125564, Note_off_c, 0, 71, 100
2, 125564, Note_off_c, 0, 68, 100
2, 125568, Note_on_c, 0, 80, 92
2, 125948, Note_off_c, 0, 80, 100
2, 125952, Note_on_c, 0, 68, 95
2, 125952, Note_on_c, 0, 73, 95
2, 126044, Note_off_c, 0, 68, 100
2, 126048, Note_on_c, 0, 69, 96
2, 126140, Note_off_c, 0, 69, 100
2, 126144, Note_on_c, 0, 71, 97
2, 126236, Note_off_c, 0, 71, 100
2, 126240, Note_on_c, 0, 69, 98
2, 126332, Note_off_c, 0, 73, 100
2, 126332, Note_off_c, 0, 69, 100
2, 126336, Note_on_c, 0, 69, 99
2, 126336, Note_on_c, 0, 76, 99
2, 126716, Note_off_c, 0, 69, 100
2, 126716, Note_off_c, 0, 76, 100
2, 126720, Note_on_c, 0, 69, 102
2, 126720, Note_on_c, 0, 75, 102
2, 126812, Note_off_c, 0, 69, 100
2, 126816, Note_on_c, 0, 71, 103
2, 126908, Note_off_c, 0, 71, 100
2, 126912, Note_on_c, 0, 73, 103
2, 127004, Note_off_c, 0, 73, 100
2, 127008, Note_on_c, 0, 71, 104
2, 127100, Note_off_c, 0, 75, 100
2, 127100, Note_off_c, 0, 71, 100
2, 127104, Note_on_c, 0, 83, 105
2, 127484, Note_off_c, 0, 83, 100
2, 127488, Note_on_c, 0, 71, 108
2, 127488, Note_on_c, 0, 76, 108
2, 127488, Note_on_c, 0, 80, 108
2, 127488, Note_on_c, 0, 83, 108
2, 127868, Note_off_c, 0, 71, 100
2, 127868, Note_off_c, 0, 76, 100
2, 127868, Note_off_c, 0, 80, 100
2, 127868, Note_off_c, 0, 83, 100
2, 127872, Note_on_c, 0, 75, 110
2, 127872, Note_on_c, 0, 78, 110
2, 127872, Note_on_c, 0, 83, 110
2, 128348, Note_off_c, 0, 83, 100
2, 128352, Note_on_c, 0, 85, 110
2, 128444, Note_off_c, 0, 75, 100
2, 128444, Note_off_c, 0, 78, 100
2, 128444, Note_off_c, 0, 85, 100
2, 128448, Note_on_c, 0, 87, 110
2, 128540, Note_off_c, 0, 87, 100
2, 128544, Note_on_c, 0, 85, 110
2, 128636, Note_off_c, 0, 85, 100
2, 128640, Note_on_c, 0, 75, 110
2, 128640, Note_on_c, 0, 78, 110
2, 128640, Note_on_c, 0, 83, 110
2, 129116, Note_off_c, 0, 83, 100
2, 129120, Note_on_c, 0, 85, 110
2, 129212, Note_off_c, 0, 75, 100
2, 129212, Note_off_c, 0, 78, 100
2, 129212, Note_off_c, 0, 85, 100
2, 129216, Note_on_c, 0, 87, 110
2, 129308, Note_off_c, 0, 87, 100
2, 129312, Note_on_c, 0, 85, 110
2, 129404, Note_off_c, 0, 85, 100
2, 129408, Note_on_c, 0, 75, 110
2, 129408, Note_on_c, 0, 83, 110
2, 129596, Note_off_c, 0, 75, 100
2, 129596, Note_off_c, 0, 83, 100
2, 129600, Note_on_c, 0, 76, 110
2, 129600, Note_on_c, 0, 85, 110
2, 129788, Note_off_c, 0, 76, 100
2, 129788, Note_off_c, 0, 85, 100
2, 129792, Note_on_c, 0, 78, 110
2, 129792, Note_on_c, 0, 81, 110
2, 129792, Note_on_c, 0, 87, 110
2, 129980, Note_off_c, 0, 78, 100
2, 129980, Note_off_c, 0, 81, 100
2, 129980, Note_off_c, 0, 87, 100
2, 129984, Note_on_c, 0, 80, 110
2, 129984, Note_on_c, 0, 83, 110
2, 129984, Note_on_c, 0, 88, 110
2, 130172, Note_off_c, 0, 80, 100
2, 130172, Note_off_c, 0, 83, 100
2, 130172, Note_off_c, 0, 88, 100
2, 130176, Note_on_c, 0, 87, 110
2, 130176, Note_on_c, 0, 90, 110
2, 130364, Note_off_c, 0, 87, 100
2, 130364, Note_off_c, 0, 90, 100
2, 130368, Note_on_c, 0, 88, 110
2, 130368, Note_on_c, 0, 92, 110
2, 130556, Note_off_c, 0, 88, 100
2, 130556, Note_off_c, 0, 92, 100
2, 130560, Note_on_c, 0, 90, 120
2, 130560, Note_on_c, 0, 93, 120
2, 130940, Note_off_c, 0, 90, 100
2, 130940, Note_off_c, 0, 93, 100
2, 131328, Note_on_c, 0, 69, 80
2, 131612, Note_off_c, 0, 69, 100
2, 131616, Note_on_c, 0, 68, 80
2, 131708, Note_off_c, 0, 68, 100
2, 131712, Note_on_c, 0, 66, 80
2, 131996, Note_off_c, 0, 66, 100
2, 132000, Note_on_c, 0, 68, 80
2, 132092, Note_off_c, 0, 68, 100
2, 132096, Note_on_c, 0, 69, 80
2, 132476, Note_off_c, 0, 69, 100
2, 132480, Note_on_c, 0, 68, 80
2, 132860, Note_off_c, 0, 68, 100
2, 132864, Note_on_c, 0, 73, 80
2, 133244, Note_off_c, 0, 73, 100
2, 133248, Note_on_c, 0, 76, 80
2, 133628, Note_off_c, 0, 76, 100
2, 133632, Note_on_c, 0, 68, 80
2, 133632, Note_on_c, 0, 73, 80
2, 134012, Note_off_c, 0, 68, 100
2, 134012, Note_off_c, 0, 73, 100
2, 134016, Note_on_c, 0, 63, 80
2, 134016, Note_on_c, 0, 66, 80
2, 134016, Note_on_c, 0, 71, 80
2, 134780, Note_off_c, 0, 63, 100
2, 134780, Note_off_c, 0, 66, 100
2, 134780, Note_off_c, 0, 71, 100
2, 134784, Note_on_c, 0, 61, 80
2, 134784, Note_on_c, 0, 64, 80
2, 134784, Note_on_c, 0, 70, 80
2, 135548, Note_off_c, 0, 61, 100
2, 135548, Note_off_c, 0, 64, 100
2, 135548, Note_off_c, 0, 70, 100
2, 135552, Note_on_c, 0, 63, 80
2, 135552, Note_on_c, 0, 71, 80
2, 135932, Note_off_c, 0, 63, 100
2, 135932, Note_off_c, 0, 71, 100
2, 135936, Control_c, 0, 64, 127
2, 135936, Note_on_c, 0, 76, 70
2, 135936, Note_on_c, 0, 80, 70
2, 136220, Note_off_c, 0, 76, 100
2, 136220, Note_off_c, 0, 80, 100
2, 136224, Note_on_c, 0, 71, 70
2, 136224, Note_on_c, 0, 78, 70
2, 136316, Note_off_c, 0, 71, 100
2, 136316, Note_off_c, 0, 78, 100
2, 136320, Note_on_c, 0, 68, 70
2, 136320, Note_on_c, 0, 76, 70
2, 136604, Note_off_c, 0, 68, 100
2, 136604, Note_off_c, 0, 76, 100
2, 136608, Note_on_c, 0, 71, 70
2, 136608, Note_on_c, 0, 78, 70
2, 136700, Note_off_c, 0, 71, 100
2, 136700, Note_off_c, 0, 78, 100
2, 136704, Note_on_c, 0, 76, 70
2, 136704, Note_on_c, 0, 80, 70
2, 137080, Control_c, 0, 64, 0
2, 137084, Note_off_c, 0, 76, 100
2, 137084, Note_off_c, 0, 80, 100
2, 137088, Note_on_c, 0, 81, 110
2, 137088, Note_on_c, 0, 75, 110
2, 137088, Note_on_c, 0, 78, 110
2, 137372, Note_off_c, 0, 81, 100
2, 137376, Note_on_c, 0, 83, 110
2, 137468, Note_off_c, 0, 75, 100
2, 137468, Note_off_c, 0, 78, 100
2, 137468, Note_off_c, 0, 83, 100
2, 137472, Note_on_c, 0, 76, 110
2, 137472, Note_on_c, 0, 80, 110
2, 137660, Note_off_c, 0, 76, 100
2, 137660, Note_off_c, 0, 80, 100
2, 137664, Note_on_c, 0, 80, 110
2, 137664, Note_on_c, 0, 88, 110
2, 137852, Note_off_c, 0, 80, 100
2, 137852, Note_off_c, 0, 88, 100
2, 137856, Note_on_c, 0, 69, 110
2, 137856, Note_on_c, 0, 78, 110
2, 138140, Note_off_c, 0, 69, 100
2, 138140, Note_off_c, 0, 78, 100
2, 138144, Note_on_c, 0, 71, 110
2, 138144, Note_on_c, 0, 80, 110
2, 138236, Note_off_c, 0, 71, 100
2, 138236, Note_off_c, 0, 80, 100
2, 138240, Note_on_c, 0, 68, 110
2, 138240, Note_on_c, 0, 76, 110
2, 138428, Note_off_c, 0, 68, 100
2, 138428, Note_off_c, 0, 76, 100
2, 138432, Note_on_c, 0, 76, 80
2, 138620, Note_off_c, 0, 76, 100
2, 138624, Note_on_c, 0, 71, 80
2, 139100, Note_off_c, 0, 71, 100
2, 139104, Note_on_c, 0, 73, 80
2, 139196, Note_off_c, 0, 73, 100
2, 139200, Note_on_c, 0, 75, 80
2, 139292, Note_off_c, 0, 75, 100
2, 139296, Note_on_c, 0, 76, 80
2, 139388, Note_off_c, 0, 76, 100
2, 139392, Note_on_c, 0, 73, 80
2, 139392, Note_on_c, 0, 64, 80
2, 139772, Note_off_c, 0, 73, 100
2, 139868, Note_off_c, 0, 64, 100
2, 139872, Note_on_c, 0, 66, 80
2, 139964, Note_off_c, 0, 66, 100
2, 139968, Note_on_c, 0, 68, 80
2, 140060, Note_off_c, 0, 68, 100
2, 140064, Note_on_c, 0, 69, 80
2, 140156, Note_off_c, 0, 69, 100
2, 140160, Note_on_c, 0, 78, 80
2, 140636, Note_off_c, 0, 78, 100
2, 140640, Note_on_c, 0, 80, 80
2, 140732, Note_off_c, 0, 80, 100
2, 140736, Note_on_c, 0, 81, 80
2, 140828, Note_off_c, 0, 81, 100
2, 140832, Note_on_c, 0, 83, 80
2, 140924, Note_off_c, 0, 83, 100
2, 140928, Note_on_c, 0, 80, 80
2, 140928, Note_on_c, 0, 71, 80
2, 141308, Note_off_c, 0, 80, 100
2, 141404, Note_off_c, 0, 71, 100
2, 141408, Note_on_c, 0, 73, 80
2, 141500, Note_off_c, 0, 73, 100
2, 141504, Note_on_c, 0, 75, 80
2, 141596, Note_off_c, 0, 75, 100
2, 141600, Note_on_c, 0, 76, 80
2, 141692, Note_off_c, 0, 76, 100
2, 141696, Note_on_c, 0, 71, 80
2, 141884, Note_off_c, 0, 71, 100
2, 141888, Note_on_c, 0, 71, 81
2, 142172, Note_off_c, 0, 71, 100
2, 142176, Note_on_c, 0, 73, 84
2, 142268, Note_off_c, 0, 73, 100
2, 142272, Note_on_c, 0, 75, 85
2, 142364, Note_off_c, 0, 75, 100
2, 142368, Note_on_c, 0, 76, 86
2, 142460, Note_off_c, 0, 76, 100
2, 142464, Note_on_c, 0, 73, 87
2, 142464, Note_on_c, 0, 64, 87
2, 142652, Note_off_c, 0, 64, 100
2, 142656, Note_on_c, 0, 64, 89
2, 142844, Note_off_c, 0, 73, 100
2, 142940, Note_off_c, 0, 64, 100
2, 142944, Note_on_c, 0, 66, 91
2, 143036, Note_off_c, 0, 66, 100
2, 143040, Note_on_c, 0, 68, 92
2, 143132, Note_off_c, 0, 68, 100
2, 143136, Note_on_c, 0, 69, 93
2, 143228, Note_off_c, 0, 69, 100
2, 143232, Note_on_c, 0, 69, 94
2, 143232, Note_on_c, 0, 78, 94
2, 143420, Note_off_c, 0, 78, 100
2, 143424, Note_on_c, 0, 78, 96
2, 143612, Note_off_c, 0, 69, 100
2, 143708, Note_off_c, 0, 78, 100
2, 143712, Note_on_c, 0, 80, 99
2, 143804, Note_off_c, 0, 80, 100
2, 143808, Note_on_c, 0, 81, 100
2, 143900, Note_off_c, 0, 81, 100
2, 143904, Note_on_c, 0, 83, 100
2, 143996, Note_off_c, 0, 83, 100
2, 144000, Note_on_c, 0, 71, 80
2, 144000, Note_on_c, 0, 80, 80
2, 144000, Note_on_c, 0, 83, 80
2, 144188, Note_off_c, 0, 71, 100
2, 144188, Note_off_c, 0, 80, 100
2, 144188, Note_off_c, 0, 83, 100
2, 144192, Note_on_c, 0, 64, 84
2, 144192, Note_on_c, 0, 68, 84
2, 144192, Note_on_c, 0, 71, 84
2, 144572, Note_off_c, 0, 64, 100
2, 144572, Note_off_c, 0, 68, 100
2, 144572, Note_off_c, 0, 71, 100
2, 144576, Note_on_c, 0, 64, 92
2, 144576, Note_on_c, 0, 68, 92
2, 144576, Note_on_c, 0, 71, 92
2, 145052, Note_off_c, 0, 71, 64
2, 145052, Note_off_c, 0, 68, 64
2, 145052, Note_off_c, 0, 64, 64
2, 145056, Note_on_c, 0, 64, 102
2, 145056, Note_on_c, 0, 68, 102
2, 145056, Note_on_c, 0, 71, 102
2, 145148, Note_off_c, 0, 64, 100
2, 145148, Note_off_c, 0, 68, 100
2, 145148, Note_off_c, 0, 71, 100
2, 145152, Note_on_c, 0, 64, 104
2, 145152, Note_on_c, 0, 68, 104
2, 145152, Note_on_c, 0, 71, 104
2, 145436, Note_off_c, 0, 64, 100
2, 145436, Note_off_c, 0, 68, 100
2, 145436, Note_off_c, 0, 71, 100
2, 145440, Note_on_c, 0, 64, 110
2, 145440, Note_on_c, 0, 68, 110
2, 145440, Note_on_c, 0, 71, 110
2, 145532, Note_off_c, 0, 64, 100
2, 145532, Note_off_c, 0, 68, 100
2, 145532, Note_off_c, 0, 71, 100
2, 145536, Note_on_c, 0, 63, 110
2, 145536, Note_on_c, 0, 66, 110
2, 145536, Note_on_c, 0, 71, 110
2, 145628, Note_off_c, 0, 63, 100
2, 145628, Note_off_c, 0, 66, 100
2, 145628, Note_off_c, 0, 71, 100
2, 145632, Note_on_c, 0, 73, 110
2, 145724, Note_off_c, 0, 73, 100
2, 145728, Note_on_c, 0, 75, 110
2, 145820, Note_off_c, 0, 75, 100
2, 145824, Note_on_c, 0, 76, 110
2, 145916, Note_off_c, 0, 76, 100
2, 145920, Note_on_c, 0, 75, 110
2, 146012, Note_off_c, 0, 75, 100
2, 146016, Note_on_c, 0, 76, 110
2, 146108, Note_off_c, 0, 76, 100
2, 146112, Note_on_c, 0, 78, 110
2, 146204, Note_off_c, 0, 78, 100
2, 146208, Note_on_c, 0, 80, 110
2, 146300, Note_off_c, 0, 80, 100
2, 146304, Note_on_c, 0, 78, 110
2, 146396, Note_off_c, 0, 78, 100
2, 146400, Note_on_c, 0, 80, 110
2, 146492, Note_off_c, 0, 80, 100
2, 146496, Note_on_c, 0, 81, 110
2, 146588, Note_off_c, 0, 81, 100
2, 146592, Note_on_c, 0, 83, 110
2, 146684, Note_off_c, 0, 83, 100
2, 146688, Note_on_c, 0, 81, 110
2, 146780, Note_off_c, 0, 81, 100
2, 146784, Note_on_c, 0, 83, 110
2, 146876, Note_off_c, 0, 83, 100
2, 146880, Note_on_c, 0, 85, 110
2, 146972, Note_off_c, 0, 85, 100
2, 146976, Note_on_c, 0, 87, 110
2, 147068, Note_off_c, 0, 87, 100
2, 147072, Note_on_c, 0, 88, 110
2, 147260, Note_off_c, 0, 88, 100
2, 147264, Note_on_c, 0, 76, 82
2, 147264, Note_on_c, 0, 80, 82
2, 147264, Note_on_c, 0, 83, 82
2, 147644, Note_off_c, 0, 76, 100
2, 147644, Note_off_c, 0, 80, 100
2, 147644, Note_off_c, 0, 83, 100
2, 147648, Note_on_c, 0, 76, 91
2, 147648, Note_on_c, 0, 80, 91
2, 147648, Note_on_c, 0, 83, 91
2, 148124, Note_off_c, 0, 83, 64
2, 148124, Note_off_c, 0, 80, 64
2, 148124, Note_off_c, 0, 76, 64
2, 148128, Note_on_c, 0, 76, 102
2, 148128, Note_on_c, 0, 80, 102
2, 148128, Note_on_c, 0, 83, 102
2, 148220, Note_off_c, 0, 76, 100
2, 148220, Note_off_c, 0, 80, 100
2, 148220, Note_off_c, 0, 83, 100
2, 148224, Note_on_c, 0, 76, 104
2, 148224, Note_on_c, 0, 80, 104
2, 148224, Note_on_c, 0, 83, 104
2, 148508, Note_off_c, 0, 76, 100
2, 148508, Note_off_c, 0, 80, 100
2, 148508, Note_off_c, 0, 83, 100
2, 148512, Note_on_c, 0, 76, 110
2, 148512, Note_on_c, 0, 80, 110
2, 148512, Note_on_c, 0, 83, 110
2, 148604, Note_off_c, 0, 76, 100
2, 148604, Note_off_c, 0, 80, 100
2, 148604, Note_off_c, 0, 83, 100
2, 148608, Note_on_c, 0, 75, 120
2, 148608, Note_on_c, 0, 78, 120
2, 148608, Note_on_c, 0, 83, 120
2, 148700, Note_off_c, 0, 75, 100
2, 148700, Note_off_c, 0, 78, 100
2, 148700, Note_off_c, 0, 83, 100
2, 148704, Note_on_c, 0, 85, 120
2, 148796, Note_off_c, 0, 85, 100
2, 148800, Note_on_c, 0, 87, 120
2, 148892, Note_off_c, 0, 87, 100
2, 148896, Note_on_c, 0, 88, 120
2, 148988, Note_off_c, 0, 88, 100
2, 148992, Note_on_c, 0, 87, 120
2, 149084, Note_off_c, 0, 87, 100
2, 149088, Note_on_c, 0, 88, 120
2, 149180, Note_off_c, 0, 88, 100
2, 149184, Note_on_c, 0, 90, 120
2, 149276, Note_off_c, 0, 90, 100
2, 149280, Note_on_c, 0, 92, 120
2, 149372, Note_off_c, 0, 92, 100
2, 149376, Note_on_c, 0, 90, 120
2, 149468, Note_off_c, 0, 90, 100
2, 149472, Note_on_c, 0, 92, 120
2, 149564, Note_off_c, 0, 92, 100
2, 149568, Note_on_c, 0, 93, 120
2, 149660, Note_off_c, 0, 93, 100
2, 149664, Note_on_c, 0, 95, 120
2, 149756, Note_off_c, 0, 95, 100
2, 149760, Note_on_c, 0, 93, 120
2, 149852, Note_off_c, 0, 93, 100
2, 149856, Note_on_c, 0, 95, 120
2, 149948, Note_off_c, 0, 95, 100
2, 149952, Note_on_c, 0, 97, 120
2, 150044, Note_off_c, 0, 97, 100
2, 150048, Note_on_c, 0, 99, 120
2, 150140, Note_off_c, 0, 99, 100
2, 150144, Note_on_c, 0, 88, 120
2, 150144, Note_on_c, 0, 92, 120
2, 150144, Note_on_c, 0, 100, 120
2, 150524, Note_off_c, 0, 88, 100
2, 150524, Note_off_c, 0, 92, 100
2, 150524, Note_off_c, 0, 100, 100
2, 150720, Note_on_c, 0, 78, 80
2, 150720, Note_on_c, 0, 85, 80
2, 150720, Note_on_c, 0, 90, 80
2, 150908, Note_off_c, 0, 78, 100
2, 150908, Note_off_c, 0, 85, 100
2, 150908, Note_off_c, 0, 90, 100
2, 150912, Note_on_c, 0, 78, 80
2, 150912, Note_on_c, 0, 85, 80
2, 150912, Note_on_c, 0, 90, 80
2, 151292, Note_off_c, 0, 78, 100
2, 151292, Note_off_c, 0, 85, 100
2, 151292, Note_off_c, 0, 90, 100
2, 151488, Note_on_c, 0, 81, 80
2, 151488, Note_on_c, 0, 93, 80
2, 151676, Note_off_c, 0, 81, 100
2, 151676, Note_off_c, 0, 93, 100
2, 151680, Note_on_c, 0, 81, 80
2, 151680, Note_on_c, 0, 93, 80
2, 151868, Note_off_c, 0, 81, 100
2, 151868, Note_off_c, 0, 93, 100
2, 151872, Note_on_c, 0, 75, 80
2, 151872, Note_on_c, 0, 81, 80
2, 151872, Note_on_c, 0, 87, 80
2, 152060, Note_off_c, 0, 75, 100
2, 152060, Note_off_c, 0, 81, 100
2, 152060, Note_off_c, 0, 87, 100
2, 152064, Note_on_c, 0, 75, 80
2, 152064, Note_on_c, 0, 81, 80
2, 152064, Note_on_c, 0, 87, 80
2, 152252, Note_off_c, 0, 75, 100
2, 152252, Note_off_c, 0, 81, 100
2, 152252, Note_off_c, 0, 87, 100
2, 152256, Note_on_c, 0, 76, 80
2, 152256, Note_on_c, 0, 80, 80
2, 152256, Note_on_c, 0, 88, 80
2, 152444, Note_off_c, 0, 76, 100
2, 152444, Note_off_c, 0, 80, 100
2, 152444, Note_off_c, 0, 88, 100
2, 152448, Note_on_c, 0, 78, 80
2, 152448, Note_on_c, 0, 87, 80
2, 152448, Note_on_c, 0, 90, 80
2, 152828, Note_off_c, 0, 78, 100
2, 152828, Note_off_c, 0, 87, 100
2, 152828, Note_off_c, 0, 90, 100
2, 153216, Note_on_c, 0, 59, 70
2, 153216, Note_on_c, 0, 66, 70
2, 153216, Note_on_c, 0, 69, 70
2, 153596, Note_off_c, 0, 59, 100
2, 153596, Note_off_c, 0, 66, 100
2, 153596, Note_off_c, 0, 69, 100
2, 153792, Note_on_c, 0, 59, 70
2, 153792, Note_on_c, 0, 64, 70
2, 153792, Note_on_c, 0, 68, 70
2, 153980, Note_off_c, 0, 59, 100
2, 153980, Note_off_c, 0, 64, 100
2, 153980, Note_off_c, 0, 68, 100
2, 153984, Note_on_c, 0, 59, 70
2, 153984, Note_on_c, 0, 64, 70
2, 153984, Note_on_c, 0, 68, 70
2, 154364, Note_off_c, 0, 59, 100
2, 154364, Note_off_c, 0, 64, 100
2, 154364, Note_off_c, 0, 68, 100
2, 154560, Note_on_c, 0, 61, 70
2, 154560, Note_on_c, 0, 64, 70
2, 154560, Note_on_c, 0, 66, 70
2, 154748, Note_off_c, 0, 61, 100
2, 154748, Note_off_c, 0, 64, 100
2, 154748, Note_off_c, 0, 66, 100
2, 154752, Note_on_c, 0, 61, 70
2, 154752, Note_on_c, 0, 64, 70
2, 154752, Note_on_c, 0, 66, 70
2, 154940, Note_off_c, 0, 61, 100
2, 154940, Note_off_c, 0, 64, 100
2, 154940, Note_off_c, 0, 66, 100
2, 154944, Note_on_c, 0, 63, 70
2, 154944, Note_on_c, 0, 71, 70
2, 155132, Note_off_c, 0, 63, 100
2, 155132, Note_off_c, 0, 71, 100
2, 155136, Note_on_c, 0, 63, 70
2, 155136, Note_on_c, 0, 71, 70
2, 155324, Note_off_c, 0, 63, 100
2, 155324, Note_off_c, 0, 71, 100
2, 155328, Note_on_c, 0, 64, 70
2, 155516, Note_off_c, 0, 64, 100
2, 155520, Note_on_c, 0, 64, 70
2, 155900, Note_off_c, 0, 64, 100
2, 156096, Note_on_c, 0, 71, 70
2, 156284, Note_off_c, 0, 71, 100
2, 156288, Note_on_c, 0, 59, 70
2, 156288, Note_on_c, 0, 64, 70
2, 156288, Note_on_c, 0, 68, 70
2, 157052, Note_off_c, 0, 59, 100
2, 157052, Note_off_c, 0, 64, 100
2, 157052, Note_off_c, 0, 68, 100
2, 157056, Note_on_c, 0, 64, 70
2, 157056, Note_on_c, 0, 69, 70
2, 157820, Note_off_c, 0, 64, 100
2, 157820, Note_off_c, 0, 69, 100
2, 157824, Note_on_c, 0, 59, 70
2, 157824, Note_on_c, 0, 64, 70
2, 157824, Note_on_c, 0, 71, 70
2, 158588, Note_off_c, 0, 59, 100
2, 158588, Note_off_c, 0, 64, 100
2, 158588, Note_off_c, 0, 71, 100
2, 158592, Note_on_c, 0, 61, 70
2, 158592, Note_on_c, 0, 64, 70
2, 158592, Note_on_c, 0, 73, 70
2, 159356, Note_off_c, 0, 61, 100
2, 159356, Note_off_c, 0, 64, 100
2, 159356, Note_off_c, 0, 73, 100
2, 159360, Note_on_c, 0, 62, 70
2, 159360, Note_on_c, 0, 69, 70
2, 159360, Note_on_c, 0, 74, 70
2, 160124, Note_off_c, 0, 62, 100
2, 160124, Note_off_c, 0, 69, 100
2, 160124, Note_off_c, 0, 74, 100
2, 160128, Note_on_c, 0, 64, 70
2, 160128, Note_on_c, 0, 69, 70
2, 160128, Note_on_c, 0, 76, 70
2, 160892, Note_off_c, 0, 64, 100
2, 160892, Note_off_c, 0, 69, 100
2, 160892, Note_off_c, 0, 76, 100
2, 160896, Note_on_c, 0, 66, 70
2, 160896, Note_on_c, 0, 69, 70
2, 160896, Note_on_c, 0, 78, 70
2, 161084, Note_off_c, 0, 66, 100
2, 161084, Note_off_c, 0, 69, 100
2, 161084, Note_off_c, 0, 78, 100
2, 161088, Note_on_c, 0, 73, 70
2, 161088, Note_on_c, 0, 76, 70
2, 161276, Note_off_c, 0, 73, 100
2, 161276, Note_off_c, 0, 76, 100
2, 161280, Note_on_c, 0, 71, 70
2, 161280, Note_on_c, 0, 74, 70
2, 161468, Note_off_c, 0, 71, 100
2, 161468, Note_off_c, 0, 74, 100
2, 161472, Note_on_c, 0, 69, 70
2, 161472, Note_on_c, 0, 73, 70
2, 161660, Note_off_c, 0, 69, 100
2, 161660, Note_off_c, 0, 73, 100
2, 161664, Note_on_c, 0, 69, 70
2, 161664, Note_on_c, 0, 73, 70
2, 162428, Note_off_c, 0, 69, 100
2, 162428, Note_off_c, 0, 73, 100
2, 162576, Note_on_c, 0, 64, 70
2, 162624, Note_on_c, 0, 69, 70
2, 162672, Note_on_c, 0, 72, 70
2, 163004, Note_off_c, 0, 64, 100
2, 163004, Note_off_c, 0, 69, 100
2, 163004, Note_off_c, 0, 72, 100
2, 163008, Note_on_c, 0, 64, 120
2, 163008, Note_on_c, 0, 76, 120
2, 163196, Note_off_c, 0, 64, 100
2, 163196, Note_off_c, 0, 76, 100
2, 163200, Note_on_c, 0, 60, 120
2, 163200, Note_on_c, 0, 72, 120
2, 163580, Note_off_c, 0, 60, 100
2, 163580, Note_off_c, 0, 72, 100
2, 169920, Note_on_c, 0, 55, 80
2, 170108, Note_off_c, 0, 55, 100
2, 170112, Note_on_c, 0, 52, 80
2, 170588, Note_off_c, 0, 52, 100
2, 170592, Note_on_c, 0, 53, 80
2, 170684, Note_off_c, 0, 53, 100
2, 170688, Note_on_c, 0, 55, 80
2, 170780, Note_off_c, 0, 55, 100
2, 170784, Note_on_c, 0, 57, 80
2, 170876, Note_off_c, 0, 57, 100
2, 170880, Note_on_c, 0, 50, 80
2, 171260, Note_off_c, 0, 50, 100
2, 171456, Note_on_c, 0, 53, 80
2, 171644, Note_off_c, 0, 53, 100
2, 171648, Note_on_c, 0, 50, 80
2, 172124, Note_off_c, 0, 50, 100
2, 172128, Note_on_c, 0, 52, 80
2, 172220, Note_off_c, 0, 52, 100
2, 172224, Note_on_c, 0, 53, 80
2, 172316, Note_off_c, 0, 53, 100
2, 172320, Note_on_c, 0, 55, 80
2, 172412, Note_off_c, 0, 55, 100
2, 172416, Note_on_c, 0, 48, 80
2, 172604, Note_off_c, 0, 48, 100
2, 172608, Note_on_c, 0, 58, 80
2, 172796, Note_off_c, 0, 58, 100
2, 172800, Note_on_c, 0, 58, 80
2, 172988, Note_off_c, 0, 58, 100
2, 172992, Note_on_c, 0, 57, 80
2, 173180, Note_off_c, 0, 57, 100
2, 173184, Note_on_c, 0, 58, 80
2, 173372, Note_off_c, 0, 58, 100
2, 173376, Note_on_c, 0, 57, 80
2, 173564, Note_off_c, 0, 57, 100
2, 173568, Note_on_c, 0, 55, 80
2, 173616, Note_on_c, 0, 57, 80
2, 173648, Note_off_c, 0, 55, 100
2, 173664, Note_on_c, 0, 55, 80
2, 173696, Note_off_c, 0, 57, 100
2, 173712, Note_on_c, 0, 57, 80
2, 173756, Note_off_c, 0, 55, 100
2, 173760, Note_on_c, 0, 55, 80
2, 173796, Note_off_c, 0, 57, 100
2, 173808, Note_on_c, 0, 57, 80
2, 173844, Note_off_c, 0, 55, 100
2, 173856, Note_on_c, 0, 53, 80
2, 173896, Note_off_c, 0, 57, 100
2, 173904, Note_on_c, 0, 55, 80
2, 173936, Note_off_c, 0, 53, 100
2, 173948, Note_off_c, 0, 55, 100
2, 174144, Note_on_c, 0, 57, 80
2, 174332, Note_off_c, 0, 57, 100
2, 174336, Note_on_c, 0, 57, 80
2, 174524, Note_off_c, 0, 57, 100
2, 174528, Note_on_c, 0, 55, 80
2, 174716, Note_off_c, 0, 55, 100
2, 174720, Note_on_c, 0, 57, 80
2, 174908, Note_off_c, 0, 57, 100
2, 174912, Note_on_c, 0, 55, 80
2, 175100, Note_off_c, 0, 55, 100
2, 175296, Note_on_c, 0, 69, 80
2, 175484, Note_off_c, 0, 69, 100
2, 175488, Note_on_c, 0, 65, 80
2, 175964, Note_off_c, 0, 65, 100
2, 175968, Note_on_c, 0, 67, 80
2, 176060, Note_off_c, 0, 67, 100
2, 176064, Note_on_c, 0, 69, 80
2, 176156, Note_off_c, 0, 69, 100
2, 176160, Note_on_c, 0, 70, 80
2, 176252, Note_off_c, 0, 70, 100
2, 176256, Note_on_c, 0, 64, 80
2, 176636, Note_off_c, 0, 64, 100
2, 176832, Note_on_c, 0, 67, 80
2, 177020, Note_off_c, 0, 67, 100
2, 177024, Note_on_c, 0, 64, 80
2, 177500, Note_off_c, 0, 64, 100
2, 177504, Note_on_c, 0, 65, 80
2, 177596, Note_off_c, 0, 65, 100
2, 177600, Note_on_c, 0, 67, 80
2, 177692, Note_off_c, 0, 67, 100
2, 177696, Note_on_c, 0, 69, 80
2, 177788, Note_off_c, 0, 69, 100
2, 177792, Note_on_c, 0, 62, 80
2, 177980, Note_off_c, 0, 62, 100
2, 177984, Note_on_c, 0, 74, 80
2, 178172, Note_off_c, 0, 74, 100
2, 178176, Note_on_c, 0, 74, 80
2, 178364, Note_off_c, 0, 74, 100
2, 178368, Note_on_c, 0, 72, 80
2, 178556, Note_off_c, 0, 72, 100
2, 178560, Note_on_c, 0, 74, 80
2, 178748, Note_off_c, 0, 74, 100
2, 178752, Note_on_c, 0, 72, 80
2, 178940, Note_off_c, 0, 72, 100
2, 178944, Note_on_c, 0, 71, 80
2, 178992, Note_on_c, 0, 72, 80
2, 179028, Note_off_c, 0, 71, 100
2, 179040, Note_on_c, 0, 71, 80
2, 179080, Note_off_c, 0, 72, 100
2, 179088, Note_on_c, 0, 72, 80
2, 179132, Note_off_c, 0, 71, 100
2, 179136, Note_on_c, 0, 71, 80
2, 179168, Note_off_c, 0, 72, 100
2, 179184, Note_on_c, 0, 72, 80
2, 179216, Note_off_c, 0, 71, 100
2, 179232, Note_on_c, 0, 69, 80
2, 179268, Note_off_c, 0, 72, 100
2, 179280, Note_on_c, 0, 71, 80
2, 179312, Note_off_c, 0, 69, 100
2, 179324, Note_off_c, 0, 71, 100
2, 179520, Note_on_c, 0, 72, 80
2, 179708, Note_off_c, 0, 72, 100
2, 179712, Note_on_c, 0, 72, 80
2, 179900, Note_off_c, 0, 72, 100
2, 179904, Note_on_c, 0, 71, 80
2, 180092, Note_off_c, 0, 71, 100
2, 180096, Note_on_c, 0, 72, 80
2, 180284, Note_off_c, 0, 72, 100
2, 180288, Note_on_c, 0, 71, 80
2, 180476, Note_off_c, 0, 71, 100
2, 180480, Note_on_c, 0, 69, 80
2, 180528, Note_on_c, 0, 71, 80
2, 180568, Note_off_c, 0, 69, 100
2, 180576, Note_on_c, 0, 69, 80
2, 180620, Note_off_c, 0, 71, 100
2, 180624, Note_on_c, 0, 71, 80
2, 180660, Note_off_c, 0, 69, 100
2, 180672, Note_on_c, 0, 69, 80
2, 180708, Note_off_c, 0, 71, 100
2, 180720, Note_on_c, 0, 71, 80
2, 180752, Note_off_c, 0, 69, 100
2, 180768, Note_on_c, 0, 68, 80
2, 180812, Note_off_c, 0, 71, 100
2, 180816, Note_on_c, 0, 69, 80
2, 180852, Note_off_c, 0, 68, 100
2, 180860, Note_off_c, 0, 69, 100
2, 180864, Note_on_c, 0, 71, 80
2, 181052, Note_off_c, 0, 71, 100
2, 181056, Note_on_c, 0, 69, 80
2, 181244, Note_off_c, 0, 69, 100
2, 181248, Note_on_c, 0, 68, 80
2, 181292, Note_off_c, 0, 68, 100
2, 181296, Note_on_c, 0, 69, 80
2, 181340, Note_off_c, 0, 69, 100
2, 181344, Note_on_c, 0, 68, 80
2, 181388, Note_off_c, 0, 68, 100
2, 181392, Note_on_c, 0, 69, 80
2, 181436, Note_off_c, 0, 69, 100
2, 181440, Note_on_c, 0, 68, 80
2, 181440, Note_on_c, 0, 76, 80
2, 181484, Note_off_c, 0, 68, 100
2, 181488, Note_on_c, 0, 69, 80
2, 181532, Note_off_c, 0, 69, 100
2, 181536, Note_on_c, 0, 66, 80
2, 181580, Note_off_c, 0, 66, 100
2, 181584, Note_on_c, 0, 68, 80
2, 181628, Note_off_c, 0, 76, 100
2, 181628, Note_off_c, 0, 68, 100
2, 181632, Note_on_c, 0, 69, 80
2, 181632, Note_on_c, 0, 72, 80
2, 181724, Note_off_c, 0, 69, 100
2, 181728, Note_on_c, 0, 68, 81
2, 181820, Note_off_c, 0, 68, 100
2, 181824, Note_on_c, 0, 66, 82
2, 181916, Note_off_c, 0, 66, 100
2, 181920, Note_on_c, 0, 64, 84
2, 182012, Note_off_c, 0, 64, 100
2, 182016, Note_on_c, 0, 69, 85
2, 182108, Note_off_c, 0, 72, 100
2, 182112, Note_on_c, 0, 74, 86
2, 182204, Note_off_c, 0, 74, 100
2, 182208, Note_on_c, 0, 76, 88
2, 182300, Note_off_c, 0, 76, 100
2, 182304, Note_on_c, 0, 77, 89
2, 182396, Note_off_c, 0, 77, 100
2, 182400, Note_on_c, 0, 71, 90
2, 182492, Note_off_c, 0, 69, 64
2, 182496, Note_on_c, 0, 68, 92
2, 182588, Note_off_c, 0, 68, 100
2, 182592, Note_on_c, 0, 66, 93
2, 182684, Note_off_c, 0, 66, 100
2, 182688, Note_on_c, 0, 64, 94
2, 182780, Note_off_c, 0, 71, 100
2, 182780, Note_off_c, 0, 64, 100
2, 182784, Note_on_c, 0, 68, 96
2, 182976, Note_on_c, 0, 74, 98
2, 183164, Note_off_c, 0, 74, 100
2, 183168, Note_on_c, 0, 71, 101
2, 183260, Note_off_c, 0, 68, 64
2, 183264, Note_on_c, 0, 68, 102
2, 183356, Note_off_c, 0, 68, 100
2, 183360, Note_on_c, 0, 66, 104
2, 183452, Note_off_c, 0, 66, 100
2, 183456, Note_on_c, 0, 64, 105
2, 183548, Note_off_c, 0, 64, 100
2, 183552, Note_on_c, 0, 68, 106
2, 183644, Note_off_c, 0, 71, 100
2, 183648, Note_on_c, 0, 72, 108
2, 183740, Note_off_c, 0, 68, 100
2, 183740, Note_off_c, 0, 72, 100
2, 183744, Note_on_c, 0, 74, 109
2, 183744, Note_on_c, 0, 64, 109
2, 183836, Note_off_c, 0, 74, 100
2, 183840, Note_on_c, 0, 76, 110
2, 183932, Note_off_c, 0, 64, 100
2, 183932, Note_off_c, 0, 76, 100
2, 183936, Note_on_c, 0, 64, 110
2, 183936, Note_on_c, 0, 69, 110
2, 184124, Note_off_c, 0, 69, 100
2, 184128, Note_on_c, 0, 81, 110
2, 184316, Note_off_c, 0, 64, 100
2, 184316, Note_off_c, 0, 81, 100
2, 184320, Note_on_c, 0, 69, 110
2, 184320, Note_on_c, 0, 81, 110
2, 184508, Note_off_c, 0, 81, 100
2, 184512, Note_on_c, 0, 79, 110
2, 184700, Note_off_c, 0, 79, 100
2, 184704, Note_on_c, 0, 81, 110
2, 184892, Note_off_c, 0, 69, 64
2, 184892, Note_off_c, 0, 81, 100
2, 184896, Note_on_c, 0, 71, 110
2, 184896, Note_on_c, 0, 79, 110
2, 185084, Note_off_c, 0, 71, 100
2, 185084, Note_off_c, 0, 79, 100
2, 185088, Note_on_c, 0, 77, 110
2, 185088, Note_on_c, 0, 71, 110
2, 185136, Note_on_c, 0, 79, 110
2, 185168, Note_off_c, 0, 77, 100
2, 185184, Note_on_c, 0, 77, 110
2, 185220, Note_off_c, 0, 79, 100
2, 185232, Note_on_c, 0, 79, 110
2, 185264, Note_off_c, 0, 77, 100
2, 185276, Note_off_c, 0, 71, 100
2, 185280, Note_on_c, 0, 77, 110
2, 185280, Note_on_c, 0, 69, 110
2, 185320, Note_off_c, 0, 79, 100
2, 185328, Note_on_c, 0, 79, 110
2, 185360, Note_off_c, 0, 77, 100
2, 185376, Note_on_c, 0, 76, 110
2, 185404, Note_off_c, 0, 79, 100
2, 185424, Note_on_c, 0, 77, 110
2, 185456, Note_off_c, 0, 76, 100
2, 185468, Note_off_c, 0, 69, 100
2, 185468, Note_off_c, 0, 77, 100
2, 185472, Note_on_c, 0, 71, 110
2, 185660, Note_off_c, 0, 71, 100
2, 185664, Note_on_c, 0, 79, 110
2, 185664, Note_on_c, 0, 69, 110
2, 185852, Note_off_c, 0, 79, 100
2, 185852, Note_off_c, 0, 69, 100
2, 185856, Note_on_c, 0, 79, 110
2, 185856, Note_on_c, 0, 67, 110
2, 186044, Note_off_c, 0, 79, 100
2, 186048, Note_on_c, 0, 77, 110
2, 186236, Note_off_c, 0, 67, 100
2, 186236, Note_off_c, 0, 77, 100
2, 186240, Note_on_c, 0, 79, 110
2, 186428, Note_off_c, 0, 79, 100
2, 186432, Note_on_c, 0, 69, 110
2, 186432, Note_on_c, 0, 77, 110
2, 186620, Note_off_c, 0, 69, 100
2, 186620, Note_off_c, 0, 77, 100
2, 186624, Note_on_c, 0, 69, 110
2, 186624, Note_on_c, 0, 76, 110
2, 186812, Note_off_c, 0, 69, 100
2, 186812, Note_off_c, 0, 76, 100
2, 186816, Note_on_c, 0, 74, 110
2, 186816, Note_on_c, 0, 67, 110
2, 186908, Note_off_c, 0, 74, 100
2, 186912, Note_on_c, 0, 72, 110
2, 187004, Note_off_c, 0, 67, 100
2, 187004, Note_off_c, 0, 72, 100
2, 187008, Note_on_c, 0, 69, 110
2, 187008, Note_on_c, 0, 79, 110
2, 187196, Note_off_c, 0, 69, 100
2, 187196, Note_off_c, 0, 79, 100
2, 187200, Note_on_c, 0, 72, 110
2, 187200, Note_on_c, 0, 77, 110
2, 187388, Note_off_c, 0, 72, 100
2, 187392, Note_on_c, 0, 74, 110
2, 187580, Note_off_c, 0, 77, 100
2, 187580, Note_off_c, 0, 74, 100
2, 187584, Note_on_c, 0, 67, 110
2, 187584, Note_on_c, 0, 76, 110
2, 187772, Note_off_c, 0, 67, 100
2, 187776, Note_on_c, 0, 69, 110
2, 187964, Note_off_c, 0, 76, 64
2, 187968, Note_on_c, 0, 74, 110
2, 188156, Note_off_c, 0, 69, 100
2, 188160, Note_on_c, 0, 68, 110
2, 188348, Note_off_c, 0, 74, 100
2, 188348, Note_off_c, 0, 68, 100
2, 188352, Note_on_c, 0, 67, 110
2, 188352, Note_on_c, 0, 72, 110
2, 188540, Note_off_c, 0, 67, 100
2, 188540, Note_off_c, 0, 72, 100
2, 188544, Note_on_c, 0, 72, 110
2, 188544, Note_on_c, 0, 65, 110
2, 188636, Note_off_c, 0, 72, 100
2, 188640, Note_on_c, 0, 71, 110
2, 188732, Note_off_c, 0, 71, 100
2, 188736, Note_on_c, 0, 69, 110
2, 188828, Note_off_c, 0, 69, 100
2, 188832, Note_on_c, 0, 71, 110
2, 188924, Note_off_c, 0, 65, 100
2, 188924, Note_off_c, 0, 71, 100
2, 188928, Note_on_c, 0, 72, 110
2, 188928, Note_on_c, 0, 67, 110
2, 189020, Note_off_c, 0, 72, 100
2, 189024, Note_on_c, 0, 71, 110
2, 189116, Note_off_c, 0, 71, 100
2, 189120, Note_on_c, 0, 69, 110
2, 189212, Note_off_c, 0, 69, 100
2, 189216, Note_on_c, 0, 67, 110
2, 189308, Note_off_c, 0, 67, 100
2, 189312, Note_on_c, 0, 72, 110
2, 189404, Note_off_c, 0, 67, 64
2, 189408, Note_on_c, 0, 64, 110
2, 189500, Note_off_c, 0, 64, 100
2, 189504, Note_on_c, 0, 62, 110
2, 189596, Note_off_c, 0, 62, 100
2, 189600, Note_on_c, 0, 60, 110
2, 189692, Note_off_c, 0, 60, 100
2, 189696, Note_on_c, 0, 65, 110
2, 189788, Note_off_c, 0, 72, 100
2, 189792, Note_on_c, 0, 71, 110
2, 189884, Note_off_c, 0, 71, 100
2, 189888, Note_on_c, 0, 69, 110
2, 189980, Note_off_c, 0, 69, 100
2, 189984, Note_on_c, 0, 67, 110
2, 190076, Note_off_c, 0, 67, 100
2, 190080, Note_on_c, 0, 70, 110
2, 190172, Note_off_c, 0, 65, 64
2, 190176, Note_on_c, 0, 62, 110
2, 190268, Note_off_c, 0, 62, 100
2, 190272, Note_on_c, 0, 60, 110
2, 190364, Note_off_c, 0, 60, 100
2, 190368, Note_on_c, 0, 58, 110
2, 190460, Note_off_c, 0, 58, 100
2, 190464, Note_on_c, 0, 65, 110
2, 190556, Note_off_c, 0, 70, 100
2, 190560, Note_on_c, 0, 69, 110
2, 190652, Note_off_c, 0, 69, 100
2, 190656, Note_on_c, 0, 67, 110
2, 190748, Note_off_c, 0, 67, 100
2, 190752, Note_on_c, 0, 65, 110
2, 190844, Note_off_c, 0, 65, 100
2, 190848, Note_on_c, 0, 70, 110
2, 190940, Note_off_c, 0, 65, 64
2, 190944, Note_on_c, 0, 64, 110
2, 191036, Note_off_c, 0, 64, 100
2, 191040, Note_on_c, 0, 62, 110
2, 191132, Note_off_c, 0, 62, 100
2, 191136, Note_on_c, 0, 60, 110
2, 191228, Note_off_c, 0, 60, 100
2, 191232, Note_on_c, 0, 64, 110
2, 191324, Note_off_c, 0, 70, 100
2, 191328, Note_on_c, 0, 69, 110
2, 191420, Note_off_c, 0, 64, 100
2, 191420, Note_off_c, 0, 69, 100
2, 191424, Note_on_c, 0, 62, 110
2, 191424, Note_on_c, 0, 67, 110
2, 191516, Note_off_c, 0, 67, 100
2, 191520, Note_on_c, 0, 65, 110
2, 191612, Note_off_c, 0, 62, 100
2, 191612, Note_off_c, 0, 65, 100
2, 191616, Note_on_c, 0, 60, 110
2, 191616, Note_on_c, 0, 64, 110
2, 191804, Note_off_c, 0, 60, 100
2, 191804, Note_off_c, 0, 64, 100
2, 191808, Note_on_c, 0, 65, 110
2, 191808, Note_on_c, 0, 72, 110
2, 191996, Note_off_c, 0, 65, 100
2, 191996, Note_off_c, 0, 72, 100
2, 192000, Note_on_c, 0, 62, 110
2, 192000, Note_on_c, 0, 72, 110
2, 192188, Note_off_c, 0, 62, 100
2, 192188, Note_off_c, 0, 72, 100
2, 192192, Note_on_c, 0, 64, 110
2, 192192, Note_on_c, 0, 70, 110
2, 192380, Note_off_c, 0, 64, 100
2, 192380, Note_off_c, 0, 70, 100
2, 192384, Note_on_c, 0, 61, 110
2, 192384, Note_on_c, 0, 70, 110
2, 192432, Note_on_c, 0, 62, 110
2, 192472, Note_off_c, 0, 61, 100
2, 192480, Note_on_c, 0, 61, 110
2, 192524, Note_off_c, 0, 62, 100
2, 192528, Note_on_c, 0, 62, 110
2, 192560, Note_off_c, 0, 61, 100
2, 192572, Note_off_c, 0, 70, 100
2, 192576, Note_on_c, 0, 61, 110
2, 192576, Note_on_c, 0, 69, 110
2, 192616, Note_off_c, 0, 62, 100
2, 192624, Note_on_c, 0, 62, 110
2, 192644, Note_off_c, 0, 61, 100
2, 192672, Note_on_c, 0, 59, 110
2, 192716, Note_off_c, 0, 62, 100
2, 192720, Note_on_c, 0, 61, 110
2, 192736, Note_off_c, 0, 59, 100
2, 192764, Note_off_c, 0, 69, 100
2, 192764, Note_off_c, 0, 61, 100
2, 192768, Note_on_c, 0, 62, 110
2, 192768, Note_on_c, 0, 69, 110
2, 192956, Note_off_c, 0, 62, 100
2, 192960, Note_on_c, 0, 64, 110
2, 193052, Note_off_c, 0, 64, 100
2, 193056, Note_on_c, 0, 65, 110
2, 193148, Note_off_c, 0, 65, 100
2, 193152, Note_on_c, 0, 62, 110
2, 193340, Note_off_c, 0, 69, 64
2, 193344, Note_on_c, 0, 67, 110
2, 193532, Note_off_c, 0, 67, 100
2, 193536, Note_on_c, 0, 67, 110
2, 193724, Note_off_c, 0, 62, 100
2, 193724, Note_off_c, 0, 67, 100
2, 193728, Note_on_c, 0, 60, 110
2, 193728, Note_on_c, 0, 65, 110
2, 193916, Note_off_c, 0, 60, 100
2, 193916, Note_off_c, 0, 65, 100
2, 193920, Note_on_c, 0, 58, 110
2, 193920, Note_on_c, 0, 65, 110
2, 194108, Note_off_c, 0, 65, 100
2, 194112, Note_on_c, 0, 64, 110
2, 194300, Note_off_c, 0, 58, 100
2, 194300, Note_off_c, 0, 64, 100
2, 194304, Note_on_c, 0, 57, 110
2, 194304, Note_on_c, 0, 64, 110
2, 194492, Note_off_c, 0, 64, 100
2, 194496, Note_on_c, 0, 62, 110
2, 194588, Note_off_c, 0, 62, 100
2, 194592, Note_on_c, 0, 60, 110
2, 194684, Note_off_c, 0, 57, 100
2, 194684, Note_off_c, 0, 60, 100
2, 194688, Note_on_c, 0, 72, 110
2, 194880, Note_on_c, 0, 69, 110
2, 195068, Note_off_c, 0, 69, 100
2, 195072, Note_on_c, 0, 69, 110
2, 195260, Note_off_c, 0, 69, 100
2, 195264, Note_on_c, 0, 67, 110
2, 195452, Note_off_c, 0, 72, 100
2, 195452, Note_off_c, 0, 67, 100
2, 195456, Note_on_c, 0, 67, 110
2, 195456, Note_on_c, 0, 74, 110
2, 195644, Note_off_c, 0, 67, 100
2, 195648, Note_on_c, 0, 66, 110
2, 195836, Note_off_c, 0, 66, 100
2, 195840, Note_on_c, 0, 66, 110
2, 196028, Note_off_c, 0, 66, 100
2, 196032, Note_on_c, 0, 64, 110
2, 196124, Note_off_c, 0, 64, 100
2, 196128, Note_on_c, 0, 62, 110
2, 196220, Note_off_c, 0, 74, 100
2, 196220, Note_off_c, 0, 62, 100
2, 196224, Note_on_c, 0, 67, 110
2, 196224, Note_on_c, 0, 74, 110
2, 196412, Note_off_c, 0, 74, 100
2, 196416, Note_on_c, 0, 79, 110
2, 196604, Note_off_c, 0, 67, 100
2, 196604, Note_off_c, 0, 79, 100
2, 196608, Note_on_c, 0, 72, 110
2, 196608, Note_on_c, 0, 79, 110
2, 196796, Note_off_c, 0, 72, 100
2, 196796, Note_off_c, 0, 79, 100
2, 196800, Note_on_c, 0, 74, 110
2, 196800, Note_on_c, 0, 77, 110
2, 196988, Note_off_c, 0, 74, 100
2, 196988, Note_off_c, 0, 77, 100
2, 196992, Note_on_c, 0, 69, 110
2, 196992, Note_on_c, 0, 77, 110
2, 197180, Note_off_c, 0, 69, 100
2, 197180, Note_off_c, 0, 77, 100
2, 197184, Note_on_c, 0, 67, 110
2, 197184, Note_on_c, 0, 76, 110
2, 197372, Note_off_c, 0, 67, 100
2, 197372, Note_off_c, 0, 76, 100
2, 197376, Note_on_c, 0, 67, 110
2, 197376, Note_on_c, 0, 76, 110
2, 197564, Note_off_c, 0, 67, 100
2, 197564, Note_off_c, 0, 76, 100
2, 197568, Note_on_c, 0, 65, 110
2, 197568, Note_on_c, 0, 74, 110
2, 197660, Note_off_c, 0, 65, 100
2, 197660, Note_off_c, 0, 74, 100
2, 197664, Note_on_c, 0, 64, 110
2, 197664, Note_on_c, 0, 72, 110
2, 197756, Note_off_c, 0, 64, 100
2, 197756, Note_off_c, 0, 72, 100
2, 197760, Note_on_c, 0, 72, 110
2, 197760, Note_on_c, 0, 77, 110
2, 197948, Note_off_c, 0, 72, 100
2, 197948, Note_off_c, 0, 77, 100
2, 197952, Note_on_c, 0, 72, 110
2, 197952, Note_on_c, 0, 67, 110
2, 198044, Note_off_c, 0, 72, 100
2, 198048, Note_on_c, 0, 70, 110
2, 198140, Note_off_c, 0, 67, 100
2, 198140, Note_off_c, 0, 70, 100
2, 198144, Note_on_c, 0, 65, 110
2, 198144, Note_on_c, 0, 69, 110
2, 198332, Note_off_c, 0, 65, 100
2, 198332, Note_off_c, 0, 69, 100
2, 198336, Note_on_c, 0, 67, 110
2, 198336, Note_on_c, 0, 62, 110
2, 198428, Note_off_c, 0, 67, 100
2, 198432, Note_on_c, 0, 65, 110
2, 198524, Note_off_c, 0, 62, 100
2, 198524, Note_off_c, 0, 65, 100
2, 198528, Note_on_c, 0, 64, 110
2, 198528, Note_on_c, 0, 70, 110
2, 198620, Note_off_c, 0, 64, 100
2, 198624, Note_on_c, 0, 62, 110
2, 198716, Note_off_c, 0, 70, 100
2, 198716, Note_off_c, 0, 62, 100
2, 198720, Note_on_c, 0, 61, 109
2, 198720, Note_on_c, 0, 70, 109
2, 198812, Note_off_c, 0, 61, 100
2, 198816, Note_on_c, 0, 62, 108
2, 198908, Note_off_c, 0, 70, 100
2, 198908, Note_off_c, 0, 62, 100
2, 198912, Note_on_c, 0, 61, 107
2, 198912, Note_on_c, 0, 64, 107
2, 199100, Note_off_c, 0, 61, 100
2, 199100, Note_off_c, 0, 64, 100
2, 199104, Note_on_c, 0, 69, 106
2, 199388, Note_off_c, 0, 69, 64
2, 199392, Note_on_c, 0, 68, 103
2, 199484, Note_off_c, 0, 68, 100
2, 199488, Note_on_c, 0, 66, 103
2, 199580, Note_off_c, 0, 66, 100
2, 199584, Note_on_c, 0, 64, 102
2, 199676, Note_off_c, 0, 64, 100
2, 199680, Note_on_c, 0, 68, 101
2, 199868, Note_off_c, 0, 68, 100
2, 200064, Note_on_c, 0, 57, 98
2, 200156, Note_off_c, 0, 57, 100
2, 200160, Note_on_c, 0, 55, 97
2, 200252, Note_off_c, 0, 55, 100
2, 200256, Note_on_c, 0, 54, 96
2, 200348, Note_off_c, 0, 54, 100
2, 200352, Note_on_c, 0, 52, 96
2, 200444, Note_off_c, 0, 52, 100
2, 200448, Note_on_c, 0, 55, 95
2, 200636, Note_off_c, 0, 55, 100
2, 200832, Note_on_c, 0, 67, 92
2, 200924, Note_off_c, 0, 67, 100
2, 200928, Note_on_c, 0, 66, 91
2, 201020, Note_off_c, 0, 66, 100
2, 201024, Note_on_c, 0, 64, 90
2, 201116, Note_off_c, 0, 64, 100
2, 201120, Note_on_c, 0, 62, 89
2, 201212, Note_off_c, 0, 62, 100
2, 201216, Note_on_c, 0, 66, 88
2, 201404, Note_off_c, 0, 66, 100
2, 202176, Note_on_c, 0, 59, 81
2, 202176, Note_on_c, 0, 67, 81
2, 202364, Note_off_c, 0, 59, 100
2, 202364, Note_off_c, 0, 67, 100
2, 202368, Note_on_c, 0, 60, 80
2, 202368, Note_on_c, 0, 64, 80
2, 202460, Note_off_c, 0, 60, 100
2, 202464, Note_on_c, 0, 59, 80
2, 202556, Note_off_c, 0, 59, 100
2, 202560, Note_on_c, 0, 57, 80
2, 202652, Note_off_c, 0, 57, 100
2, 202656, Note_on_c, 0, 55, 80
2, 202748, Note_off_c, 0, 55, 100
2, 202752, Note_on_c, 0, 60, 80
2, 202844, Note_off_c, 0, 64, 100
2, 202848, Note_on_c, 0, 65, 80
2, 202940, Note_off_c, 0, 65, 100
2, 202944, Note_on_c, 0, 67, 80
2, 203036, Note_off_c, 0, 67, 100
2, 203040, Note_on_c, 0, 69, 80
2, 203132, Note_off_c, 0, 69, 100
2, 203136, Note_on_c, 0, 62, 80
2, 203228, Note_off_c, 0, 60, 64
2, 203516, Note_off_c, 0, 62, 100
2, 203712, Note_on_c, 0, 65, 80
2, 203900, Note_off_c, 0, 65, 100
2, 203904, Note_on_c, 0, 62, 80
2, 204380, Note_off_c, 0, 62, 100
2, 204384, Note_on_c, 0, 64, 80
2, 204476, Note_off_c, 0, 64, 100
2, 204480, Note_on_c, 0, 65, 80
2, 204572, Note_off_c, 0, 65, 100
2, 204576, Note_on_c, 0, 67, 80
2, 204668, Note_off_c, 0, 67, 100
2, 204672, Note_on_c, 0, 64, 80
2, 204860, Note_off_c, 0, 64, 100
2, 204864, Note_on_c, 0, 76, 80
2, 205052, Note_off_c, 0, 76, 100
2, 205056, Note_on_c, 0, 76, 80
2, 205244, Note_off_c, 0, 76, 100
2, 205248, Note_on_c, 0, 74, 80
2, 205436, Note_off_c, 0, 74, 100
2, 205440, Note_on_c, 0, 76, 80
2, 205628, Note_off_c, 0, 76, 100
2, 205632, Note_on_c, 0, 74, 80
2, 205820, Note_off_c, 0, 74, 100
2, 205824, Note_on_c, 0, 72, 80
2, 205872, Note_on_c, 0, 74, 80
2, 205908, Note_off_c, 0, 72, 100
2, 205920, Note_on_c, 0, 72, 80
2, 205960, Note_off_c, 0, 74, 100
2, 205968, Note_on_c, 0, 74, 80
2, 206004, Note_off_c, 0, 72, 100
2, 206016, Note_on_c, 0, 72, 80
2, 206052, Note_off_c, 0, 74, 100
2, 206064, Note_on_c, 0, 74, 80
2, 206104, Note_off_c, 0, 72, 100
2, 206112, Note_on_c, 0, 71, 80
2, 206148, Note_off_c, 0, 74, 100
2, 206160, Note_on_c, 0, 72, 80
2, 206184, Note_off_c, 0, 71, 100
2, 206204, Note_off_c, 0, 72, 100
2, 206400, Note_on_c, 0, 74, 80
2, 206588, Note_off_c, 0, 74, 100
2, 206592, Note_on_c, 0, 74, 80
2, 206780, Note_off_c, 0, 74, 100
2, 206784, Note_on_c, 0, 72, 80
2, 206972, Note_off_c, 0, 72, 100
2, 206976, Note_on_c, 0, 74, 80
2, 207164, Note_off_c, 0, 74, 100
2, 207168, Note_on_c, 0, 72, 80
2, 207356, Note_off_c, 0, 72, 100
2, 207360, Note_on_c, 0, 71, 80
2, 207408, Note_on_c, 0, 72, 80
2, 207440, Note_off_c, 0, 71, 100
2, 207456, Note_on_c, 0, 71, 80
2, 207492, Note_off_c, 0, 72, 100
2, 207504, Note_on_c, 0, 72, 80
2, 207536, Note_off_c, 0, 71, 100
2, 207552, Note_on_c, 0, 71, 80
2, 207580, Note_off_c, 0, 72, 100
2, 207600, Note_on_c, 0, 72, 80
2, 207632, Note_off_c, 0, 71, 100
2, 207648, Note_on_c, 0, 69, 80
2, 207684, Note_off_c, 0, 72, 100
2, 207696, Note_on_c, 0, 67, 80
2, 207732, Note_off_c, 0, 69, 100
2, 207740, Note_off_c, 0, 67, 100
2, 207744, Note_on_c, 0, 72, 80
2, 207932, Note_off_c, 0, 72, 100
2, 207936, Note_on_c, 0, 72, 80
2, 208316, Note_off_c, 0, 72, 100
2, 208320, Note_on_c, 0, 72, 80
2, 208508, Note_off_c, 0, 72, 100
2, 208512, Note_on_c, 0, 72, 80
2, 208700, Note_off_c, 0, 72, 100
2, 208704, Note_on_c, 0, 79, 88
2, 208704, Note_on_c, 0, 71, 88
2, 208892, Note_off_c, 0, 79, 100
2, 208892, Note_off_c, 0, 71, 100
2, 208896, Note_on_c, 0, 79, 97
2, 208896, Note_on_c, 0, 72, 97
2, 209084, Note_off_c, 0, 79, 100
2, 209084, Note_off_c, 0, 72, 100
2, 209088, Note_on_c, 0, 77, 106
2, 209088, Note_on_c, 0, 67, 106
2, 209180, Note_off_c, 0, 77, 100
2, 209184, Note_on_c, 0, 76, 110
2, 209276, Note_off_c, 0, 67, 100
2, 209276, Note_off_c, 0, 76, 100
2, 209280, Note_on_c, 0, 81, 110
2, 209280, Note_on_c, 0, 69, 110
2, 209468, Note_off_c, 0, 81, 100
2, 209472, Note_on_c, 0, 72, 110
2, 209660, Note_off_c, 0, 69, 100
2, 209660, Note_off_c, 0, 72, 100
2, 209664, Note_on_c, 0, 69, 110
2, 209756, Note_off_c, 0, 69, 100
2, 209760, Note_on_c, 0, 71, 110
2, 209852, Note_off_c, 0, 71, 100
2, 209856, Note_on_c, 0, 72, 110
2, 209948, Note_off_c, 0, 72, 100
2, 209952, Note_on_c, 0, 74, 110
2, 210044, Note_off_c, 0, 74, 100
2, 210048, Note_on_c, 0, 71, 110
2, 210240, Note_on_c, 0, 62, 110
2, 210428, Note_off_c, 0, 71, 100
2, 210428, Note_off_c, 0, 62, 100
2, 210432, Note_on_c, 0, 59, 110
2, 210524, Note_off_c, 0, 59, 100
2, 210528, Note_on_c, 0, 60, 110
2, 210620, Note_off_c, 0, 60, 100
2, 210624, Note_on_c, 0, 62, 110
2, 210716, Note_off_c, 0, 62, 100
2, 210720, Note_on_c, 0, 64, 110
2, 210812, Note_off_c, 0, 64, 100
2, 210816, Note_on_c, 0, 60, 110
2, 211008, Note_on_c, 0, 76, 110
2, 211196, Note_off_c, 0, 60, 100
2, 211196, Note_off_c, 0, 76, 100
2, 211200, Note_on_c, 0, 72, 110
2, 211292, Note_off_c, 0, 72, 100
2, 211296, Note_on_c, 0, 74, 110
2, 211388, Note_off_c, 0, 74, 100
2, 211392, Note_on_c, 0, 76, 110
2, 211484, Note_off_c, 0, 76, 100
2, 211488, Note_on_c, 0, 77, 110
2, 211580, Note_off_c, 0, 77, 100
2, 211584, Note_on_c, 0, 74, 110
2, 211776, Note_on_c, 0, 67, 110
2, 211868, Note_off_c, 0, 67, 100
2, 211964, Note_off_c, 0, 74, 100
2, 211968, Note_on_c, 0, 62, 110
2, 212060, Note_off_c, 0, 62, 100
2, 212064, Note_on_c, 0, 64, 110
2, 212156, Note_off_c, 0, 64, 100
2, 212160, Note_on_c, 0, 65, 110
2, 212252, Note_off_c, 0, 65, 100
2, 212256, Note_on_c, 0, 67, 110
2, 212348, Note_off_c, 0, 67, 100
2, 212352, Note_on_c, 0, 76, 110
2, 212352, Note_on_c, 0, 84, 110
2, 212540, Note_off_c, 0, 76, 100
2, 212540, Note_off_c, 0, 84, 100
2, 212736, Note_on_c, 0, 64, 110
2, 212736, Note_on_c, 0, 72, 110
2, 212924, Note_off_c, 0, 64, 100
2, 212924, Note_off_c, 0, 72, 100
2, 213120, Note_on_c, 0, 62, 110
2, 213120, Note_on_c, 0, 71, 110
2, 213308, Note_off_c, 0, 62, 100
2, 213308, Note_off_c, 0, 71, 100
2, 213504, Note_on_c, 0, 74, 110
2, 213504, Note_on_c, 0, 83, 110
2, 213692, Note_off_c, 0, 74, 100
2, 213692, Note_off_c, 0, 83, 100
2, 213888, Note_on_c, 0, 74, 110
2, 213888, Note_on_c, 0, 86, 110
2, 214076, Note_off_c, 0, 74, 100
2, 214076, Note_off_c, 0, 86, 100
2, 214272, Note_on_c, 0, 65, 110
2, 214272, Note_on_c, 0, 74, 110
2, 214460, Note_off_c, 0, 65, 100
2, 214460, Note_off_c, 0, 74, 100
2, 214656, Note_on_c, 0, 64, 110
2, 214656, Note_on_c, 0, 73, 110
2, 214844, Note_off_c, 0, 64, 100
2, 214844, Note_off_c, 0, 73, 100
2, 215040, Note_on_c, 0, 76, 110
2, 215040, Note_on_c, 0, 85, 110
2, 215420, Note_off_c, 0, 76, 100
2, 215424, Note_on_c, 0, 75, 110
2, 215804, Note_off_c, 0, 85, 64
2, 215808, Note_on_c, 0, 84, 110
2, 216188, Note_off_c, 0, 75, 100
2, 216192, Note_on_c, 0, 74, 110
2, 216572, Note_off_c, 0, 84, 64
2, 216576, Note_on_c, 0, 83, 110
2, 216956, Note_off_c, 0, 74, 100
2, 216960, Note_on_c, 0, 72, 110
2, 217340, Note_off_c, 0, 83, 64
2, 217344, Note_on_c, 0, 81, 110
2, 217724, Note_off_c, 0, 72, 100
2, 217728, Note_on_c, 0, 74, 110
2, 217916, Note_off_c, 0, 81, 64
2, 217920, Note_on_c, 0, 80, 110
2, 218108, Note_off_c, 0, 74, 100
2, 218108, Note_off_c, 0, 80, 100
2, 218112, Note_on_c, 0, 76, 110
2, 218112, Note_on_c, 0, 81, 110
2, 218300, Note_off_c, 0, 76, 100
2, 218300, Note_off_c, 0, 81, 100
2, 218304, Note_on_c, 0, 64, 110
2, 218304, Note_on_c, 0, 69, 110
2, 218396, Note_off_c, 0, 64, 100
2, 218400, Note_on_c, 0, 66, 110
2, 218492, Note_off_c, 0, 69, 100
2, 218492, Note_off_c, 0, 66, 100
2, 218496, Note_on_c, 0, 69, 110
2, 218496, Note_on_c, 0, 63, 110
2, 218588, Note_off_c, 0, 69, 100
2, 218592, Note_on_c, 0, 67, 110
2, 218684, Note_off_c, 0, 63, 100
2, 218684, Note_off_c, 0, 67, 100
2, 218688, Note_on_c, 0, 66, 110
2, 218780, Note_off_c, 0, 66, 100
2, 218784, Note_on_c, 0, 64, 110
2, 218876, Note_off_c, 0, 64, 100
2, 218880, Note_on_c, 0, 53, 110
2, 218880, Note_on_c, 0, 69, 120
2, 218972, Note_off_c, 0, 53, 100
2, 218976, Note_on_c, 0, 55, 110
2, 219068, Note_off_c, 0, 69, 100
2, 219068, Note_off_c, 0, 55, 100
2, 219072, Note_on_c, 0, 57, 110
2, 219164, Note_off_c, 0, 57, 100
2, 219168, Note_on_c, 0, 59, 110
2, 219260, Note_off_c, 0, 59, 100
2, 219264, Note_on_c, 0, 57, 110
2, 219356, Note_off_c, 0, 57, 100
2, 219360, Note_on_c, 0, 59, 110
2, 219452, Note_off_c, 0, 59, 100
2, 219456, Note_on_c, 0, 60, 110
2, 219548, Note_off_c, 0, 60, 100
2, 219552, Note_on_c, 0, 59, 110
2, 219644, Note_off_c, 0, 59, 100
2, 219648, Note_on_c, 0, 60, 110
2, 219740, Note_off_c, 0, 60, 100
2, 219744, Note_on_c, 0, 63, 110
2, 219836, Note_off_c, 0, 63, 100
2, 219840, Note_on_c, 0, 64, 110
2, 219932, Note_off_c, 0, 64, 100
2, 219936, Note_on_c, 0, 66, 110
2, 220028, Note_off_c, 0, 66, 100
2, 220032, Note_on_c, 0, 79, 110
2, 220032, Note_on_c, 0, 67, 110
2, 220124, Note_off_c, 0, 79, 100
2, 220128, Note_on_c, 0, 78, 110
2, 220220, Note_off_c, 0, 78, 100
2, 220224, Note_on_c, 0, 76, 110
2, 220316, Note_off_c, 0, 76, 100
2, 220320, Note_on_c, 0, 75, 110
2, 220412, Note_off_c, 0, 67, 100
2, 220412, Note_off_c, 0, 75, 100
2, 220416, Note_on_c, 0, 76, 110
2, 220508, Note_off_c, 0, 76, 100
2, 220512, Note_on_c, 0, 74, 110
2, 220604, Note_off_c, 0, 74, 100
2, 220608, Note_on_c, 0, 72, 110
2, 220700, Note_off_c, 0, 72, 100
2, 220704, Note_on_c, 0, 71, 110
2, 220796, Note_off_c, 0, 71, 100
2, 220800, Note_on_c, 0, 72, 110
2, 220892, Note_off_c, 0, 72, 100
2, 220896, Note_on_c, 0, 71, 110
2, 220988, Note_off_c, 0, 71, 100
2, 220992, Note_on_c, 0, 69, 110
2, 221084, Note_off_c, 0, 69, 100
2, 221088, Note_on_c, 0, 67, 110
2, 221180, Note_off_c, 0, 67, 100
2, 221184, Note_on_c, 0, 69, 110
2, 221276, Note_off_c, 0, 69, 100
2, 221280, Note_on_c, 0, 67, 110
2, 221372, Note_off_c, 0, 67, 100
2, 221376, Note_on_c, 0, 66, 110
2, 221468, Note_off_c, 0, 66, 100
2, 221472, Note_on_c, 0, 64, 110
2, 221564, Note_off_c, 0, 64, 100
2, 221568, Note_on_c, 0, 72, 110
2, 221660, Note_off_c, 0, 72, 100
2, 221664, Note_on_c, 0, 71, 110
2, 221756, Note_off_c, 0, 71, 100
2, 221760, Note_on_c, 0, 69, 110
2, 221852, Note_off_c, 0, 69, 100
2, 221856, Note_on_c, 0, 67, 110
2, 221948, Note_off_c, 0, 67, 100
2, 221952, Note_on_c, 0, 57, 110
2, 221952, Note_on_c, 0, 72, 120
2, 222044, Note_off_c, 0, 57, 100
2, 222048, Note_on_c, 0, 59, 110
2, 222140, Note_off_c, 0, 72, 100
2, 222140, Note_off_c, 0, 59, 100
2, 222144, Note_on_c, 0, 60, 110
2, 222236, Note_off_c, 0, 60, 100
2, 222240, Note_on_c, 0, 62, 110
2, 222332, Note_off_c, 0, 62, 100
2, 222336, Note_on_c, 0, 60, 110
2, 222428, Note_off_c, 0, 60, 100
2, 222432, Note_on_c, 0, 62, 110
2, 222524, Note_off_c, 0, 62, 100
2, 222528, Note_on_c, 0, 64, 110
2, 222620, Note_off_c, 0, 64, 100
2, 222624, Note_on_c, 0, 66, 110
2, 222716, Note_off_c, 0, 66, 100
2, 222720, Note_on_c, 0, 64, 110
2, 222812, Note_off_c, 0, 64, 100
2, 222816, Note_on_c, 0, 66, 110
2, 222908, Note_off_c, 0, 66, 100
2, 222912, Note_on_c, 0, 67, 110
2, 223004, Note_off_c, 0, 67, 100
2, 223008, Note_on_c, 0, 69, 110
2, 223100, Note_off_c, 0, 69, 100
2, 223104, Note_on_c, 0, 83, 110
2, 223104, Note_on_c, 0, 71, 110
2, 223196, Note_off_c, 0, 83, 100
2, 223200, Note_on_c, 0, 81, 110
2, 223292, Note_off_c, 0, 81, 100
2, 223296, Note_on_c, 0, 79, 110
2, 223388, Note_off_c, 0, 79, 100
2, 223392, Note_on_c, 0, 78, 110
2, 223484, Note_off_c, 0, 71, 100
2, 223484, Note_off_c, 0, 78, 100
2, 223488, Note_on_c, 0, 79, 110
2, 223580, Note_off_c, 0, 79, 100
2, 223584, Note_on_c, 0, 78, 110
2, 223676, Note_off_c, 0, 78, 100
2, 223680, Note_on_c, 0, 76, 110
2, 223772, Note_off_c, 0, 76, 100
2, 223776, Note_on_c, 0, 74, 110
2, 223868, Note_off_c, 0, 74, 100
2, 223872, Note_on_c, 0, 76, 110
2, 223964, Note_off_c, 0, 76, 100
2, 223968, Note_on_c, 0, 74, 110
2, 224060, Note_off_c, 0, 74, 100
2, 224064, Note_on_c, 0, 72, 110
2, 224156, Note_off_c, 0, 72, 100
2, 224160, Note_on_c, 0, 71, 110
2, 224252, Note_off_c, 0, 71, 100
2, 224256, Note_on_c, 0, 79, 121
2, 224352, Note_on_c, 0, 74, 110
2, 224444, Note_off_c, 0, 74, 100
2, 224448, Note_on_c, 0, 72, 110
2, 224540, Note_off_c, 0, 72, 100
2, 224544, Note_on_c, 0, 71, 110
2, 224636, Note_off_c, 0, 71, 100
2, 224640, Note_on_c, 0, 72, 110
2, 224732, Note_off_c, 0, 79, 64
2, 224736, Note_on_c, 0, 81, 110
2, 224828, Note_off_c, 0, 81, 100
2, 224832, Note_on_c, 0, 83, 110
2, 224924, Note_off_c, 0, 83, 100
2, 224928, Note_on_c, 0, 84, 110
2, 225020, Note_off_c, 0, 84, 100
2, 225024, Note_on_c, 0, 78, 122
2, 225116, Note_off_c, 0, 72, 100
2, 225120, Note_on_c, 0, 72, 110
2, 225212, Note_off_c, 0, 72, 100
2, 225216, Note_on_c, 0, 71, 110
2, 225308, Note_off_c, 0, 71, 100
2, 225312, Note_on_c, 0, 69, 110
2, 225404, Note_off_c, 0, 69, 100
2, 225408, Note_on_c, 0, 71, 110
2, 225500, Note_off_c, 0, 78, 64
2, 225504, Note_on_c, 0, 79, 110
2, 225596, Note_off_c, 0, 79, 100
2, 225600, Note_on_c, 0, 81, 110
2, 225692, Note_off_c, 0, 81, 100
2, 225696, Note_on_c, 0, 83, 110
2, 225788, Note_off_c, 0, 83, 100
2, 225792, Note_on_c, 0, 76, 121
2, 225884, Note_off_c, 0, 71, 100
2, 225888, Note_on_c, 0, 71, 110
2, 225980, Note_off_c, 0, 71, 100
2, 225984, Note_on_c, 0, 69, 110
2, 226076, Note_off_c, 0, 69, 100
2, 226080, Note_on_c, 0, 67, 110
2, 226172, Note_off_c, 0, 67, 100
2, 226176, Note_on_c, 0, 69, 110
2, 226268, Note_off_c, 0, 76, 64
2, 226272, Note_on_c, 0, 78, 110
2, 226364, Note_off_c, 0, 78, 100
2, 226368, Note_on_c, 0, 79, 110
2, 226460, Note_off_c, 0, 79, 100
2, 226464, Note_on_c, 0, 81, 110
2, 226556, Note_off_c, 0, 69, 100
2, 226556, Note_off_c, 0, 81, 100
2, 226560, Note_on_c, 0, 81, 110
2, 226748, Note_off_c, 0, 81, 100
2, 226752, Note_on_c, 0, 79, 110
2, 226944, Note_on_c, 0, 71, 110
2, 227132, Note_off_c, 0, 79, 64
2, 227132, Note_off_c, 0, 71, 100
2, 227136, Note_on_c, 0, 69, 110
2, 227136, Note_on_c, 0, 78, 110
2, 227516, Note_off_c, 0, 69, 100
2, 227516, Note_off_c, 0, 78, 100
2, 227520, Note_on_c, 0, 67, 110
2, 227520, Note_on_c, 0, 76, 110
2, 227900, Note_off_c, 0, 76, 64
2, 227900, Note_off_c, 0, 67, 64
2, 227904, Note_on_c, 0, 66, 110
2, 227904, Note_on_c, 0, 75, 110
2, 228092, Note_off_c, 0, 66, 100
2, 228092, Note_off_c, 0, 75, 100
2, 228096, Note_on_c, 0, 64, 110
2, 228096, Note_on_c, 0, 76, 110
2, 228188, Note_off_c, 0, 64, 100
2, 228192, Note_on_c, 0, 66, 110
2, 228284, Note_off_c, 0, 66, 100
2, 228288, Note_on_c, 0, 68, 110
2, 228380, Note_off_c, 0, 68, 100
2, 228384, Note_on_c, 0, 69, 110
2, 228476, Note_off_c, 0, 76, 100
2, 228476, Note_off_c, 0, 69, 100
2, 228480, Note_on_c, 0, 71, 110
2, 228572, Note_off_c, 0, 71, 100
2, 228576, Note_on_c, 0, 72, 110
2, 228668, Note_off_c, 0, 72, 100
2, 228672, Note_on_c, 0, 74, 110
2, 228764, Note_off_c, 0, 74, 100
2, 228768, Note_on_c, 0, 76, 110
2, 228860, Note_off_c, 0, 76, 100
2, 228864, Note_on_c, 0, 78, 110
2, 228956, Note_off_c, 0, 78, 100
2, 228960, Note_on_c, 0, 80, 110
2, 229052, Note_off_c, 0, 80, 100
2, 229056, Note_on_c, 0, 81, 110
2, 229148, Note_off_c, 0, 81, 100
2, 229152, Note_on_c, 0, 83, 110
2, 229244, Note_off_c, 0, 83, 100
2, 229248, Note_on_c, 0, 84, 110
2, 229340, Note_off_c, 0, 84, 100
2, 229344, Note_on_c, 0, 86, 110
2, 229436, Note_off_c, 0, 86, 100
2, 229440, Note_on_c, 0, 88, 110
2, 229532, Note_off_c, 0, 88, 100
2, 229536, Note_on_c, 0, 76, 110
2, 229628, Note_off_c, 0, 76, 100
2, 229632, Note_on_c, 0, 81, 110
2, 229820, Note_off_c, 0, 81, 100
2, 230592, Note_on_c, 0, 69, 110
2, 230780, Note_off_c, 0, 69, 100
2, 230784, Note_on_c, 0, 68, 110
2, 231260, Note_off_c, 0, 68, 100
2, 231264, Note_on_c, 0, 69, 110
2, 231356, Note_off_c, 0, 69, 100
2, 231360, Note_on_c, 0, 74, 110
2, 231360, Note_on_c, 0, 71, 110
2, 231452, Note_off_c, 0, 71, 100
2, 231456, Note_on_c, 0, 72, 110
2, 231548, Note_off_c, 0, 74, 100
2, 231548, Note_off_c, 0, 72, 100
2, 231552, Note_on_c, 0, 72, 110
2, 231744, Note_on_c, 0, 84, 110
2, 231932, Note_off_c, 0, 84, 100
2, 231936, Note_on_c, 0, 81, 110
2, 232028, Note_off_c, 0, 72, 100
2, 232032, Note_on_c, 0, 74, 110
2, 232124, Note_off_c, 0, 74, 100
2, 232128, Note_on_c, 0, 76, 110
2, 232220, Note_off_c, 0, 76, 100
2, 232224, Note_on_c, 0, 77, 110
2, 232316, Note_off_c, 0, 77, 100
2, 232320, Note_on_c, 0, 71, 110
2, 232412, Note_off_c, 0, 81, 64
2, 232416, Note_on_c, 0, 83, 110
2, 232508, Note_off_c, 0, 83, 100
2, 232512, Note_on_c, 0, 84, 110
2, 232604, Note_off_c, 0, 84, 100
2, 232608, Note_on_c, 0, 86, 110
2, 232700, Note_off_c, 0, 71, 100
2, 232700, Note_off_c, 0, 86, 100
2, 232704, Note_on_c, 0, 80, 110
2, 232892, Note_off_c, 0, 80, 100
2, 232896, Note_on_c, 0, 74, 110
2, 233084, Note_off_c, 0, 74, 100
2, 233088, Note_on_c, 0, 71, 110
2, 233280, Note_on_c, 0, 83, 110
2, 233468, Note_off_c, 0, 83, 100
2, 233472, Note_on_c, 0, 80, 110
2, 233564, Note_off_c, 0, 71, 100
2, 233568, Note_on_c, 0, 72, 110
2, 233660, Note_off_c, 0, 72, 100
2, 233664, Note_on_c, 0, 74, 110
2, 233756, Note_off_c, 0, 74, 100
2, 233760, Note_on_c, 0, 76, 110
2, 233852, Note_off_c, 0, 76, 100
2, 233856, Note_on_c, 0, 72, 110
2, 233948, Note_off_c, 0, 80, 64
2, 233952, Note_on_c, 0, 81, 110
2, 234044, Note_off_c, 0, 81, 100
2, 234048, Note_on_c, 0, 83, 110
2, 234140, Note_off_c, 0, 83, 100
2, 234144, Note_on_c, 0, 84, 110
2, 234236, Note_off_c, 0, 72, 100
2, 234236, Note_off_c, 0, 84, 100
2, 234240, Note_on_c, 0, 76, 110
2, 234240, Note_on_c, 0, 84, 110
2, 234428, Note_off_c, 0, 76, 100
2, 234428, Note_off_c, 0, 84, 100
2, 234432, Note_on_c, 0, 74, 110
2, 234432, Note_on_c, 0, 83, 110
2, 234620, Note_off_c, 0, 74, 100
2, 234620, Note_off_c, 0, 83, 100
2, 234624, Note_on_c, 0, 76, 110
2, 234624, Note_on_c, 0, 84, 110
2, 234812, Note_off_c, 0, 76, 100
2, 234812, Note_off_c, 0, 84, 100
2, 234816, Note_on_c, 0, 74, 110
2, 234816, Note_on_c, 0, 83, 110
2, 235004, Note_off_c, 0, 74, 100
2, 235004, Note_off_c, 0, 83, 100
2, 235008, Note_on_c, 0, 72, 110
2, 235008, Note_on_c, 0, 81, 110
2, 235056, Note_on_c, 0, 83, 110
2, 235092, Note_off_c, 0, 81, 100
2, 235104, Note_on_c, 0, 81, 110
2, 235140, Note_off_c, 0, 83, 100
2, 235152, Note_on_c, 0, 83, 110
2, 235188, Note_off_c, 0, 81, 100
2, 235200, Note_on_c, 0, 81, 110
2, 235236, Note_off_c, 0, 83, 100
2, 235248, Note_on_c, 0, 83, 110
2, 235280, Note_off_c, 0, 81, 100
2, 235296, Note_on_c, 0, 80, 110
2, 235332, Note_off_c, 0, 83, 100
2, 235344, Note_on_c, 0, 81, 110
2, 235368, Note_off_c, 0, 80, 100
2, 235388, Note_off_c, 0, 72, 100
2, 235388, Note_off_c, 0, 81, 100
2, 235584, Note_on_c, 0, 74, 110
2, 235584, Note_on_c, 0, 83, 110
2, 235772, Note_off_c, 0, 74, 100
2, 235772, Note_off_c, 0, 83, 100
2, 235776, Note_on_c, 0, 74, 110
2, 235776, Note_on_c, 0, 83, 110
2, 235964, Note_off_c, 0, 74, 100
2, 235964, Note_off_c, 0, 83, 100
2, 235968, Note_on_c, 0, 72, 110
2, 235968, Note_on_c, 0, 81, 110
2, 236156, Note_off_c, 0, 72, 100
2, 236156, Note_off_c, 0, 81, 100
2, 236160, Note_on_c, 0, 74, 110
2, 236160, Note_on_c, 0, 83, 110
2, 236348, Note_off_c, 0, 74, 100
2, 236348, Note_off_c, 0, 83, 100
2, 236352, Note_on_c, 0, 72, 110
2, 236352, Note_on_c, 0, 81, 110
2, 236540, Note_off_c, 0, 72, 100
2, 236540, Note_off_c, 0, 81, 100
2, 236544, Note_on_c, 0, 71, 110
2, 236544, Note_on_c, 0, 80, 110
2, 236592, Note_on_c, 0, 81, 110
2, 236628, Note_off_c, 0, 80, 100
2, 236640, Note_on_c, 0, 80, 110
2, 236676, Note_off_c, 0, 81, 100
2, 236688, Note_on_c, 0, 81, 110
2, 236724, Note_off_c, 0, 80, 100
2, 236736, Note_on_c, 0, 80, 110
2, 236764, Note_off_c, 0, 81, 100
2, 236784, Note_on_c, 0, 81, 110
2, 236812, Note_off_c, 0, 80, 100
2, 236832, Note_on_c, 0, 78, 110
2, 236864, Note_off_c, 0, 81, 100
2, 236880, Note_on_c, 0, 80, 110
2, 236904, Note_off_c, 0, 78, 100
2, 236924, Note_off_c, 0, 71, 100
2, 236924, Note_off_c, 0, 80, 100
2, 237120, Note_on_c, 0, 72, 123
2, 237120, Note_on_c, 0, 81, 123
2, 237308, Note_off_c, 0, 72, 100
2, 237308, Note_off_c, 0, 81, 100
2, 237312, Note_on_c, 0, 72, 110
2, 237312, Note_on_c, 0, 81, 110
2, 237500, Note_off_c, 0, 72, 100
2, 237500, Note_off_c, 0, 81, 100
2, 237504, Note_on_c, 0, 71, 110
2, 237504, Note_on_c, 0, 79, 110
2, 237692, Note_off_c, 0, 71, 100
2, 237692, Note_off_c, 0, 79, 100
2, 237888, Note_on_c, 0, 71, 123
2, 237888, Note_on_c, 0, 79, 123
2, 238076, Note_off_c, 0, 71, 100
2, 238076, Note_off_c, 0, 79, 100
2, 238080, Note_on_c, 0, 71, 110
2, 238080, Note_on_c, 0, 79, 110
2, 238268, Note_off_c, 0, 71, 100
2, 238268, Note_off_c, 0, 79, 100
2, 238272, Note_on_c, 0, 69, 110
2, 238272, Note_on_c, 0, 77, 110
2, 238460, Note_off_c, 0, 69, 100
2, 238460, Note_off_c, 0, 77, 100
2, 238656, Note_on_c, 0, 74, 123
2, 238656, Note_on_c, 0, 77, 123
2, 238844, Note_off_c, 0, 74, 100
2, 238844, Note_off_c, 0, 77, 100
2, 238848, Note_on_c, 0, 74, 110
2, 238848, Note_on_c, 0, 77, 110
2, 239036, Note_off_c, 0, 74, 100
2, 239036, Note_off_c, 0, 77, 100
2, 239040, Note_on_c, 0, 76, 123
2, 239040, Note_on_c, 0, 72, 123
2, 239228, Note_off_c, 0, 76, 100
2, 239228, Note_off_c, 0, 72, 100
2, 239232, Note_on_c, 0, 72, 110
2, 239232, Note_on_c, 0, 76, 110
2, 239420, Note_off_c, 0, 72, 100
2, 239420, Note_off_c, 0, 76, 100
2, 239424, Note_on_c, 0, 71, 123
2, 239424, Note_on_c, 0, 74, 123
2, 239612, Note_off_c, 0, 71, 100
2, 239612, Note_off_c, 0, 74, 100
2, 239616, Note_on_c, 0, 64, 110
2, 239616, Note_on_c, 0, 72, 110
2, 239804, Note_off_c, 0, 64, 100
2, 239804, Note_off_c, 0, 72, 100
2, 239808, Note_on_c, 0, 71, 123
2, 239808, Note_on_c, 0, 64, 123
2, 239900, Note_off_c, 0, 71, 100
2, 239904, Note_on_c, 0, 69, 110
2, 239996, Note_off_c, 0, 64, 100
2, 239996, Note_off_c, 0, 69, 100
2, 240000, Note_on_c, 0, 69, 110
2, 240000, Note_on_c, 0, 81, 110
2, 240188, Note_off_c, 0, 69, 100
2, 240188, Note_off_c, 0, 81, 100
2, 240192, Note_on_c, 0, 70, 123
2, 240192, Note_on_c, 0, 79, 123
2, 240380, Note_off_c, 0, 70, 100
2, 240380, Note_off_c, 0, 79, 100
2, 240384, Note_on_c, 0, 69, 110
2, 240384, Note_on_c, 0, 77, 110
2, 240572, Note_off_c, 0, 69, 100
2, 240572, Note_off_c, 0, 77, 100
2, 240576, Note_on_c, 0, 67, 123
2, 240576, Note_on_c, 0, 76, 123
2, 240668, Note_off_c, 0, 67, 100
2, 240668, Note_off_c, 0, 76, 100
2, 240672, Note_on_c, 0, 65, 110
2, 240672, Note_on_c, 0, 74, 110
2, 240764, Note_off_c, 0, 65, 100
2, 240764, Note_off_c, 0, 74, 100
2, 240768, Note_on_c, 0, 72, 110
2, 240768, Note_on_c, 0, 84, 110
2, 240956, Note_off_c, 0, 72, 100
2, 240956, Note_off_c, 0, 84, 100
2, 240960, Note_on_c, 0, 72, 120
2, 240960, Note_on_c, 0, 81, 120
2, 241148, Note_off_c, 0, 72, 100
2, 241148, Note_off_c, 0, 81, 100
2, 241152, Note_on_c, 0, 71, 120
2, 241152, Note_on_c, 0, 80, 120
2, 241340, Note_off_c, 0, 71, 100
2, 241340, Note_off_c, 0, 80, 100
2, 241344, Note_on_c, 0, 72, 120
2, 241344, Note_on_c, 0, 81, 120
2, 241532, Note_off_c, 0, 72, 100
2, 241532, Note_off_c, 0, 81, 100
2, 241536, Note_on_c, 0, 80, 120
2, 241628, Note_off_c, 0, 80, 100
2, 241632, Note_on_c, 0, 81, 120
2, 241724, Note_off_c, 0, 81, 100
2, 241728, Note_on_c, 0, 83, 120
2, 241820, Note_off_c, 0, 83, 100
2, 241824, Note_on_c, 0, 84, 120
2, 241916, Note_off_c, 0, 84, 100
2, 241920, Note_on_c, 0, 75, 120
2, 241920, Note_on_c, 0, 68, 120
2, 242012, Note_off_c, 0, 68, 100
2, 242016, Note_on_c, 0, 69, 120
2, 242108, Note_off_c, 0, 69, 100
2, 242112, Note_on_c, 0, 71, 120
2, 242204, Note_off_c, 0, 71, 100
2, 242208, Note_on_c, 0, 72, 120
2, 242300, Note_off_c, 0, 75, 100
2, 242300, Note_off_c, 0, 72, 100
2, 242304, Note_on_c, 0, 68, 120
2, 242304, Note_on_c, 0, 63, 120
2, 242396, Note_off_c, 0, 68, 100
2, 242400, Note_on_c, 0, 69, 120
2, 242492, Note_off_c, 0, 69, 100
2, 242496, Note_on_c, 0, 71, 120
2, 242588, Note_off_c, 0, 71, 100
2, 242592, Note_on_c, 0, 72, 120
2, 242684, Note_off_c, 0, 63, 100
2, 242684, Note_off_c, 0, 72, 100
2, 242688, Note_on_c, 0, 63, 120
2, 242688, Note_on_c, 0, 56, 120
2, 242780, Note_off_c, 0, 56, 100
2, 242784, Note_on_c, 0, 57, 120
2, 242876, Note_off_c, 0, 57, 100
2, 242880, Note_on_c, 0, 59, 120
2, 242972, Note_off_c, 0, 59, 100
2, 242976, Note_on_c, 0, 60, 120
2, 243068, Note_off_c, 0, 63, 100
2, 243068, Note_off_c, 0, 60, 100
2, 243072, Note_on_c, 0, 51, 120
2, 243260, Note_off_c, 0, 51, 100
2, 243264, Note_on_c, 0, 63, 120
2, 243264, Note_on_c, 0, 69, 120
2, 243264, Note_on_c, 0, 72, 120
2, 243452, Note_off_c, 0, 63, 100
2, 243452, Note_off_c, 0, 69, 100
2, 243452, Note_off_c, 0, 72, 100
2, 243456, Note_on_c, 0, 63, 120
2, 243456, Note_on_c, 0, 69, 120
2, 243456, Note_on_c, 0, 72, 120
2, 243644, Note_off_c, 0, 63, 100
2, 243644, Note_off_c, 0, 69, 100
2, 243644, Note_off_c, 0, 72, 100
2, 243648, Note_on_c, 0, 71, 120
2, 243648, Note_on_c, 0, 64, 120
2, 243648, Note_on_c, 0, 68, 120
2, 243836, Note_off_c, 0, 71, 100
2, 243836, Note_off_c, 0, 64, 100
2, 243836, Note_off_c, 0, 68, 100
2, 243840, Note_on_c, 0, 60, 120
2, 243840, Note_on_c, 0, 63, 120
2, 243840, Note_on_c, 0, 66, 120
2, 243840, Note_on_c, 0, 71, 120
2, 244028, Note_off_c, 0, 60, 100
2, 244028, Note_off_c, 0, 63, 100
2, 244028, Note_off_c, 0, 66, 100
2, 244028, Note_off_c, 0, 71, 100
2, 244032, Note_on_c, 0, 60, 120
2, 244032, Note_on_c, 0, 63, 120
2, 244032, Note_on_c, 0, 66, 120
2, 244032, Note_on_c, 0, 69, 120
2, 244220, Note_off_c, 0, 60, 100
2, 244220, Note_off_c, 0, 63, 100
2, 244220, Note_off_c, 0, 66, 100
2, 244220, Note_off_c, 0, 69, 100
2, 244224, Note_on_c, 0, 60, 120
2, 244224, Note_on_c, 0, 63, 120
2, 244224, Note_on_c, 0, 66, 120
2, 244224, Note_on_c, 0, 69, 120
2, 244412, Note_off_c, 0, 60, 100
2, 244412, Note_off_c, 0, 63, 100
2, 244412, Note_off_c, 0, 66, 100
2, 244412, Note_off_c, 0, 69, 100
2, 244416, Note_on_c, 0, 59, 120
2, 244416, Note_on_c, 0, 64, 120
2, 244416, Note_on_c, 0, 68, 120
2, 244604, Note_off_c, 0, 59, 100
2, 244604, Note_off_c, 0, 64, 100
2, 244604, Note_off_c, 0, 68, 100
2, 244608, Control_c, 0, 64, 127
2, 244704, Note_on_c, 0, 40, 120
2, 244800, Note_on_c, 0, 44, 120
2, 244896, Note_on_c, 0, 47, 120
2, 244964, Note_off_c, 0, 40, 100
2, 245048, Note_off_c, 0, 44, 100
2, 245088, Note_on_c, 0, 52, 120
2, 245140, Note_off_c, 0, 47, 100
2, 245184, Note_on_c, 0, 56, 120
2, 245280, Note_on_c, 0, 59, 120
2, 245348, Note_off_c, 0, 52, 100
2, 245456, Note_off_c, 0, 56, 64
2, 245472, Note_on_c, 0, 52, 120
2, 245540, Note_off_c, 0, 59, 64
2, 245568, Note_on_c, 0, 56, 120
2, 245664, Note_on_c, 0, 59, 120
2, 245740, Note_off_c, 0, 52, 100
2, 245836, Note_off_c, 0, 56, 100
2, 245856, Note_on_c, 0, 64, 120
2, 245928, Note_off_c, 0, 59, 100
2, 245952, Note_on_c, 0, 68, 120
2, 246048, Note_on_c, 0, 71, 120
2, 246120, Note_off_c, 0, 64, 100
2, 246216, Note_off_c, 0, 68, 64
2, 246240, Note_on_c, 0, 64, 120
2, 246316, Note_off_c, 0, 71, 64
2, 246336, Note_on_c, 0, 68, 120
2, 246432, Note_on_c, 0, 71, 120
2, 246500, Note_off_c, 0, 64, 100
2, 246600, Note_off_c, 0, 68, 100
2, 246624, Note_on_c, 0, 76, 120
2, 246704, Note_off_c, 0, 71, 100
2, 246720, Note_on_c, 0, 80, 120
2, 246816, Note_on_c, 0, 83, 120
2, 246880, Note_off_c, 0, 76, 100
2, 246976, Note_off_c, 0, 80, 64
2, 247008, Note_on_c, 0, 76, 120
2, 247088, Note_off_c, 0, 83, 64
2, 247104, Note_on_c, 0, 80, 120
2, 247200, Note_on_c, 0, 83, 120
2, 247284, Note_off_c, 0, 76, 100
2, 247296, Note_on_c, 0, 88, 120
2, 247372, Note_off_c, 0, 80, 100
2, 247392, Note_on_c, 0, 92, 120
2, 247460, Note_off_c, 0, 83, 100
2, 247488, Note_on_c, 0, 95, 120
2, 247568, Note_off_c, 0, 88, 100
2, 247584, Note_on_c, 0, 100, 120
2, 247636, Note_off_c, 0, 92, 100
2, 247672, Control_c, 0, 64, 0
2, 247676, Note_off_c, 0, 95, 100
2, 247676, Note_off_c, 0, 100, 100
2, 247680, Note_on_c, 0, 73, 120
2, 247680, Note_on_c, 0, 76, 120
2, 247680, Note_on_c, 0, 81, 120
2, 247680, Note_on_c, 0, 85, 120
2, 248156, Note_off_c, 0, 73, 100
2, 248156, Note_off_c, 0, 76, 100
2, 248156, Note_off_c, 0, 81, 100
2, 248156, Note_off_c, 0, 85, 100
2, 248160, Note_on_c, 0, 86, 120
2, 248252, Note_off_c, 0, 86, 100
2, 248256, Note_on_c, 0, 88, 120
2, 248348, Note_off_c, 0, 88, 100
2, 248352, Note_on_c, 0, 90, 120
2, 248444, Note_off_c, 0, 90, 100
2, 248448, Note_on_c, 0, 71, 120
2, 248448, Note_on_c, 0, 83, 120
2, 248828, Note_off_c, 0, 71, 100
2, 248828, Note_off_c, 0, 83, 100
2, 249024, Note_on_c, 0, 76, 120
2, 249024, Note_on_c, 0, 88, 120
2, 249212, Note_off_c, 0, 76, 100
2, 249212, Note_off_c, 0, 88, 100
2, 249216, Note_on_c, 0, 69, 120
2, 249216, Note_on_c, 0, 81, 120
2, 249692, Note_off_c, 0, 69, 100
2, 249692, Note_off_c, 0, 81, 100
2, 249696, Note_on_c, 0, 83, 120
2, 249788, Note_off_c, 0, 83, 100
2, 249792, Note_on_c, 0, 85, 120
2, 249884, Note_off_c, 0, 85, 100
2, 249888, Note_on_c, 0, 86, 120
2, 249980, Note_off_c, 0, 86, 100
2, 249984, Note_on_c, 0, 68, 120
2, 249984, Note_on_c, 0, 80, 120
2, 250364, Note_off_c, 0, 68, 100
2, 250364, Note_off_c, 0, 80, 100
2, 250560, Note_on_c, 0, 85, 80
2, 250748, Note_off_c, 0, 85, 100
2, 250752, Note_on_c, 0, 78, 80
2, 250844, Note_off_c, 0, 78, 100
2, 250848, Note_on_c, 0, 80, 80
2, 250940, Note_off_c, 0, 80, 100
2, 250944, Note_on_c, 0, 81, 80
2, 251036, Note_off_c, 0, 81, 100
2, 251040, Note_on_c, 0, 83, 80
2, 251132, Note_off_c, 0, 83, 100
2, 251136, Note_on_c, 0, 81, 80
2, 251228, Note_off_c, 0, 81, 100
2, 251232, Note_on_c, 0, 80, 80
2, 251324, Note_off_c, 0, 80, 100
2, 251328, Note_on_c, 0, 78, 80
2, 251420, Note_off_c, 0, 78, 100
2, 251424, Note_on_c, 0, 80, 80
2, 251516, Note_off_c, 0, 80, 100
2, 251520, Note_on_c, 0, 81, 80
2, 251612, Note_off_c, 0, 81, 100
2, 251616, Note_on_c, 0, 83, 80
2, 251708, Note_off_c, 0, 83, 100
2, 251712, Note_on_c, 0, 85, 80
2, 251804, Note_off_c, 0, 85, 100
2, 251808, Note_on_c, 0, 86, 80
2, 251900, Note_off_c, 0, 86, 100
2, 251904, Note_on_c, 0, 85, 80
2, 251996, Note_off_c, 0, 85, 100
2, 252000, Note_on_c, 0, 83, 80
2, 252092, Note_off_c, 0, 83, 100
2, 252096, Note_on_c, 0, 81, 80
2, 252188, Note_off_c, 0, 81, 100
2, 252192, Note_on_c, 0, 83, 80
2, 252284, Note_off_c, 0, 83, 100
2, 252288, Note_on_c, 0, 85, 80
2, 252380, Note_off_c, 0, 85, 100
2, 252384, Note_on_c, 0, 86, 80
2, 252476, Note_off_c, 0, 86, 100
2, 252480, Note_on_c, 0, 88, 80
2, 252572, Note_off_c, 0, 88, 100
2, 252576, Note_on_c, 0, 90, 80
2, 252668, Note_off_c, 0, 90, 100
2, 252672, Note_on_c, 0, 92, 80
2, 252764, Note_off_c, 0, 92, 100
2, 252768, Note_on_c, 0, 93, 80
2, 252860, Note_off_c, 0, 93, 100
2, 252864, Note_on_c, 0, 81, 80
2, 252864, Note_on_c, 0, 85, 80
2, 252956, Note_off_c, 0, 81, 100
2, 252956, Note_off_c, 0, 85, 100
2, 252960, Note_on_c, 0, 87, 80
2, 253052, Note_off_c, 0, 87, 100
2, 253056, Note_on_c, 0, 81, 80
2, 253056, Note_on_c, 0, 90, 80
2, 253436, Note_off_c, 0, 81, 100
2, 253436, Note_off_c, 0, 90, 100
2, 253440, Note_on_c, 0, 80, 80
2, 253440, Note_on_c, 0, 88, 80
2, 253628, Note_off_c, 0, 80, 100
2, 253628, Note_off_c, 0, 88, 100
2, 253632, Note_on_c, 0, 76, 80
2, 253820, Note_off_c, 0, 76, 100
2, 253824, Note_on_c, 0, 81, 80
2, 254300, Note_off_c, 0, 81, 100
2, 254304, Note_on_c, 0, 80, 80
2, 254396, Note_off_c, 0, 80, 100
2, 254400, Note_on_c, 0, 78, 80
2, 254400, Note_on_c, 0, 69, 80
2, 254492, Note_off_c, 0, 78, 100
2, 254496, Note_on_c, 0, 76, 80
2, 254588, Note_off_c, 0, 76, 100
2, 254592, Note_on_c, 0, 74, 80
2, 254684, Note_off_c, 0, 69, 64
2, 254688, Note_on_c, 0, 68, 80
2, 254780, Note_off_c, 0, 68, 100
2, 254784, Note_on_c, 0, 66, 80
2, 254876, Note_off_c, 0, 66, 100
2, 254880, Note_on_c, 0, 64, 80
2, 254972, Note_off_c, 0, 74, 100
2, 254972, Note_off_c, 0, 64, 100
2, 254976, Note_on_c, 0, 62, 80
2, 255168, Note_on_c, 0, 73, 80
2, 255356, Note_off_c, 0, 62, 100
2, 255356, Note_off_c, 0, 73, 100
2, 255360, Note_on_c, 0, 78, 80
2, 255836, Note_off_c, 0, 78, 100
2, 255840, Note_on_c, 0, 76, 80
2, 255932, Note_off_c, 0, 76, 100
2, 255936, Note_on_c, 0, 66, 80
2, 255936, Note_on_c, 0, 74, 80
2, 256028, Note_off_c, 0, 74, 100
2, 256032, Note_on_c, 0, 73, 80
2, 256124, Note_off_c, 0, 73, 100
2, 256128, Note_on_c, 0, 71, 80
2, 256220, Note_off_c, 0, 66, 64
2, 256224, Note_on_c, 0, 64, 80
2, 256316, Note_off_c, 0, 64, 100
2, 256320, Note_on_c, 0, 62, 80
2, 256412, Note_off_c, 0, 62, 100
2, 256416, Note_on_c, 0, 61, 80
2, 256508, Note_off_c, 0, 71, 100
2, 256508, Note_off_c, 0, 61, 100
2, 256512, Note_on_c, 0, 59, 80
2, 256892, Note_off_c, 0, 59, 100
2, 258240, Note_on_c, 0, 52, 80
2, 258428, Note_off_c, 0, 52, 100
2, 258432, Note_on_c, 0, 54, 80
2, 258524, Note_off_c, 0, 54, 100
2, 258528, Note_on_c, 0, 56, 80
2, 258620, Note_off_c, 0, 56, 100
2, 258624, Note_on_c, 0, 57, 80
2, 258716, Note_off_c, 0, 57, 100
2, 258720, Note_on_c, 0, 59, 80
2, 258812, Note_off_c, 0, 59, 100
2, 258816, Note_on_c, 0, 57, 80
2, 258908, Note_off_c, 0, 57, 100
2, 258912, Note_on_c, 0, 56, 80
2, 259004, Note_off_c, 0, 56, 100
2, 259008, Note_on_c, 0, 54, 80
2, 259100, Note_off_c, 0, 54, 100
2, 259104, Note_on_c, 0, 56, 80
2, 259196, Note_off_c, 0, 56, 100
2, 259200, Note_on_c, 0, 57, 80
2, 259292, Note_off_c, 0, 57, 100
2, 259296, Note_on_c, 0, 59, 80
2, 259388, Note_off_c, 0, 59, 100
2, 259392, Note_on_c, 0, 61, 80
2, 259484, Note_off_c, 0, 61, 100
2, 259488, Note_on_c, 0, 62, 80
2, 259580, Note_off_c, 0, 62, 100
2, 259584, Note_on_c, 0, 61, 80
2, 259676, Note_off_c, 0, 61, 100
2, 259680, Note_on_c, 0, 59, 80
2, 259772, Note_off_c, 0, 59, 100
2, 259776, Note_on_c, 0, 64, 80
2, 259776, Note_on_c, 0, 57, 80
2, 259868, Note_off_c, 0, 57, 100
2, 259872, Note_on_c, 0, 59, 80
2, 259964, Note_off_c, 0, 64, 100
2, 259964, Note_off_c, 0, 59, 100
2, 259968, Note_on_c, 0, 61, 80
2, 259968, Note_on_c, 0, 66, 80
2, 260060, Note_off_c, 0, 61, 100
2, 260060, Note_off_c, 0, 66, 100
2, 260064, Note_on_c, 0, 62, 80
2, 260064, Note_on_c, 0, 68, 80
2, 260156, Note_off_c, 0, 62, 100
2, 260156, Note_off_c, 0, 68, 100
2, 260160, Note_on_c, 0, 64, 81
2, 260160, Note_on_c, 0, 69, 81
2, 260252, Note_off_c, 0, 64, 100
2, 260252, Note_off_c, 0, 69, 100
2, 260256, Note_on_c, 0, 66, 82
2, 260256, Note_on_c, 0, 71, 82
2, 260348, Note_off_c, 0, 66, 100
2, 260348, Note_off_c, 0, 71, 100
2, 260352, Note_on_c, 0, 64, 82
2, 260352, Note_on_c, 0, 69, 82
2, 260444, Note_off_c, 0, 64, 100
2, 260444, Note_off_c, 0, 69, 100
2, 260448, Note_on_c, 0, 62, 83
2, 260448, Note_on_c, 0, 68, 83
2, 260540, Note_off_c, 0, 62, 100
2, 260540, Note_off_c, 0, 68, 100
2, 260544, Note_on_c, 0, 61, 84
2, 260544, Note_on_c, 0, 66, 84
2, 260636, Note_off_c, 0, 61, 100
2, 260636, Note_off_c, 0, 66, 100
2, 260640, Note_on_c, 0, 62, 84
2, 260640, Note_on_c, 0, 68, 84
2, 260732, Note_off_c, 0, 62, 100
2, 260732, Note_off_c, 0, 68, 100
2, 260736, Note_on_c, 0, 64, 85
2, 260736, Note_on_c, 0, 69, 85
2, 260828, Note_off_c, 0, 64, 100
2, 260828, Note_off_c, 0, 69, 100
2, 260832, Note_on_c, 0, 66, 86
2, 260832, Note_on_c, 0, 71, 86
2, 260924, Note_off_c, 0, 66, 100
2, 260924, Note_off_c, 0, 71, 100
2, 260928, Note_on_c, 0, 68, 86
2, 260928, Note_on_c, 0, 73, 86
2, 261020, Note_off_c, 0, 68, 100
2, 261020, Note_off_c, 0, 73, 100
2, 261024, Note_on_c, 0, 69, 87
2, 261024, Note_on_c, 0, 74, 87
2, 261116, Note_off_c, 0, 69, 100
2, 261116, Note_off_c, 0, 74, 100
2, 261120, Note_on_c, 0, 68, 88
2, 261120, Note_on_c, 0, 73, 88
2, 261212, Note_off_c, 0, 68, 100
2, 261212, Note_off_c, 0, 73, 100
2, 261216, Note_on_c, 0, 66, 88
2, 261216, Note_on_c, 0, 71, 88
2, 261308, Note_off_c, 0, 66, 100
2, 261308, Note_off_c, 0, 71, 100
2, 261312, Note_on_c, 0, 64, 89
2, 261312, Note_on_c, 0, 69, 89
2, 261404, Note_off_c, 0, 64, 100
2, 261404, Note_off_c, 0, 69, 100
2, 261408, Note_on_c, 0, 66, 90
2, 261408, Note_on_c, 0, 71, 90
2, 261500, Note_off_c, 0, 66, 100
2, 261500, Note_off_c, 0, 71, 100
2, 261504, Note_on_c, 0, 67, 90
2, 261504, Note_on_c, 0, 73, 90
2, 261596, Note_off_c, 0, 67, 100
2, 261596, Note_off_c, 0, 73, 100
2, 261600, Note_on_c, 0, 69, 91
2, 261600, Note_on_c, 0, 74, 91
2, 261692, Note_off_c, 0, 69, 100
2, 261692, Note_off_c, 0, 74, 100
2, 261696, Note_on_c, 0, 71, 92
2, 261696, Note_on_c, 0, 76, 92
2, 261788, Note_off_c, 0, 71, 100
2, 261788, Note_off_c, 0, 76, 100
2, 261792, Note_on_c, 0, 73, 92
2, 261792, Note_on_c, 0, 78, 92
2, 261884, Note_off_c, 0, 73, 100
2, 261884, Note_off_c, 0, 78, 100
2, 261888, Note_on_c, 0, 71, 93
2, 261888, Note_on_c, 0, 76, 93
2, 261980, Note_off_c, 0, 71, 100
2, 261980, Note_off_c, 0, 76, 100
2, 261984, Note_on_c, 0, 69, 94
2, 261984, Note_on_c, 0, 74, 94
2, 262076, Note_off_c, 0, 69, 100
2, 262076, Note_off_c, 0, 74, 100
2, 262080, Note_on_c, 0, 67, 94
2, 262080, Note_on_c, 0, 73, 94
2, 262172, Note_off_c, 0, 67, 100
2, 262172, Note_off_c, 0, 73, 100
2, 262176, Note_on_c, 0, 69, 95
2, 262176, Note_on_c, 0, 74, 95
2, 262268, Note_off_c, 0, 69, 100
2, 262268, Note_off_c, 0, 74, 100
2, 262272, Note_on_c, 0, 71, 96
2, 262272, Note_on_c, 0, 76, 96
2, 262364, Note_off_c, 0, 71, 100
2, 262364, Note_off_c, 0, 76, 100
2, 262368, Note_on_c, 0, 73, 96
2, 262368, Note_on_c, 0, 78, 96
2, 262460, Note_off_c, 0, 73, 100
2, 262460, Note_off_c, 0, 78, 100
2, 262464, Note_on_c, 0, 74, 97
2, 262464, Note_on_c, 0, 79, 97
2, 262556, Note_off_c, 0, 74, 100
2, 262556, Note_off_c, 0, 79, 100
2, 262560, Note_on_c, 0, 76, 98
2, 262560, Note_on_c, 0, 81, 98
2, 262652, Note_off_c, 0, 76, 100
2, 262652, Note_off_c, 0, 81, 100
2, 262656, Note_on_c, 0, 81, 98
2, 262656, Note_on_c, 0, 78, 98
2, 262748, Note_off_c, 0, 78, 100
2, 262752, Note_on_c, 0, 79, 99
2, 262844, Note_off_c, 0, 81, 100
2, 262844, Note_off_c, 0, 79, 100
2, 262848, Note_on_c, 0, 81, 100
2, 262848, Note_on_c, 0, 78, 100
2, 262940, Note_off_c, 0, 78, 100
2, 262944, Note_on_c, 0, 76, 100
2, 263036, Note_off_c, 0, 81, 100
2, 263036, Note_off_c, 0, 76, 100
2, 263040, Note_on_c, 0, 78, 80
2, 263040, Note_on_c, 0, 81, 80
2, 263228, Note_off_c, 0, 78, 100
2, 263228, Note_off_c, 0, 81, 100
2, 263424, Note_on_c, 0, 74, 80
2, 263424, Note_on_c, 0, 81, 80
2, 263516, Note_off_c, 0, 74, 100
2, 263520, Note_on_c, 0, 76, 80
2, 263612, Note_off_c, 0, 76, 100
2, 263616, Note_on_c, 0, 78, 80
2, 263708, Note_off_c, 0, 78, 100
2, 263712, Note_on_c, 0, 79, 80
2, 263804, Note_off_c, 0, 79, 100
2, 263808, Note_on_c, 0, 78, 80
2, 263996, Note_off_c, 0, 81, 64
2, 263996, Note_off_c, 0, 78, 100
2, 264192, Note_on_c, 0, 74, 80
2, 264192, Note_on_c, 0, 81, 80
2, 264284, Note_off_c, 0, 74, 100
2, 264288, Note_on_c, 0, 76, 80
2, 264380, Note_off_c, 0, 76, 100
2, 264384, Note_on_c, 0, 78, 80
2, 264476, Note_off_c, 0, 78, 100
2, 264480, Note_on_c, 0, 79, 80
2, 264572, Note_off_c, 0, 79, 100
2, 264576, Note_on_c, 0, 73, 80
2, 264764, Note_off_c, 0, 81, 64
2, 264764, Note_off_c, 0, 73, 100
2, 264960, Note_on_c, 0, 73, 80
2, 264960, Note_on_c, 0, 81, 80
2, 265052, Note_off_c, 0, 73, 100
2, 265056, Note_on_c, 0, 79, 80
2, 265148, Note_off_c, 0, 79, 100
2, 265152, Note_on_c, 0, 73, 80
2, 265244, Note_off_c, 0, 73, 100
2, 265248, Note_on_c, 0, 79, 80
2, 265340, Note_off_c, 0, 81, 100
2, 265340, Note_off_c, 0, 79, 100
2, 265344, Note_on_c, 0, 91, 80
2, 265724, Note_off_c, 0, 91, 100
2, 265728, Note_on_c, 0, 73, 80
2, 265728, Note_on_c, 0, 85, 80
2, 265820, Note_off_c, 0, 73, 100
2, 265824, Note_on_c, 0, 79, 80
2, 265916, Note_off_c, 0, 79, 100
2, 265920, Note_on_c, 0, 73, 80
2, 266012, Note_off_c, 0, 73, 100
2, 266016, Note_on_c, 0, 79, 80
2, 266108, Note_off_c, 0, 85, 100
2, 266108, Note_off_c, 0, 79, 100
2, 266112, Note_on_c, 0, 86, 80
2, 266112, Note_on_c, 0, 78, 80
2, 266300, Note_off_c, 0, 78, 100
2, 266492, Note_off_c, 0, 86, 100
2, 266496, Note_on_c, 0, 74, 80
2, 266496, Note_on_c, 0, 81, 80
2, 266588, Note_off_c, 0, 74, 100
2, 266592, Note_on_c, 0, 76, 80
2, 266684, Note_off_c, 0, 76, 100
2, 266688, Note_on_c, 0, 78, 80
2, 266780, Note_off_c, 0, 78, 100
2, 266784, Note_on_c, 0, 79, 80
2, 266876, Note_off_c, 0, 79, 100
2, 266880, Note_on_c, 0, 78, 80
2, 267068, Note_off_c, 0, 81, 64
2, 267068, Note_off_c, 0, 78, 100
2, 267264, Note_on_c, 0, 74, 80
2, 267264, Note_on_c, 0, 81, 80
2, 267356, Note_off_c, 0, 74, 100
2, 267360, Note_on_c, 0, 76, 80
2, 267452, Note_off_c, 0, 76, 100
2, 267456, Note_on_c, 0, 78, 80
2, 267548, Note_off_c, 0, 78, 100
2, 267552, Note_on_c, 0, 79, 80
2, 267644, Note_off_c, 0, 79, 100
2, 267648, Note_on_c, 0, 73, 80
2, 267836, Note_off_c, 0, 81, 64
2, 267836, Note_off_c, 0, 73, 100
2, 268032, Note_on_c, 0, 73, 80
2, 268032, Note_on_c, 0, 81, 80
2, 268124, Note_off_c, 0, 73, 100
2, 268128, Note_on_c, 0, 79, 80
2, 268220, Note_off_c, 0, 79, 100
2, 268224, Note_on_c, 0, 73, 81
2, 268316, Note_off_c, 0, 73, 100
2, 268320, Note_on_c, 0, 79, 81
2, 268412, Note_off_c, 0, 81, 100
2, 268412, Note_off_c, 0, 79, 100
2, 268416, Note_on_c, 0, 91, 82
2, 268796, Note_off_c, 0, 91, 100
2, 268800, Note_on_c, 0, 73, 84
2, 268800, Note_on_c, 0, 85, 84
2, 268892, Note_off_c, 0, 73, 100
2, 268896, Note_on_c, 0, 79, 84
2, 268988, Note_off_c, 0, 79, 100
2, 268992, Note_on_c, 0, 73, 85
2, 269084, Note_off_c, 0, 73, 100
2, 269088, Note_on_c, 0, 79, 85
2, 269180, Note_off_c, 0, 85, 100
2, 269180, Note_off_c, 0, 79, 100
2, 269184, Note_on_c, 0, 86, 86
2, 269564, Note_off_c, 0, 86, 100
2, 269568, Note_on_c, 0, 69, 88
2, 269568, Note_on_c, 0, 74, 88
2, 269660, Note_off_c, 0, 69, 100
2, 269664, Note_on_c, 0, 71, 88
2, 269756, Note_off_c, 0, 71, 100
2, 269760, Note_on_c, 0, 69, 89
2, 269852, Note_off_c, 0, 69, 100
2, 269856, Note_on_c, 0, 71, 89
2, 269948, Note_off_c, 0, 74, 100
2, 269948, Note_off_c, 0, 71, 100
2, 269952, Note_on_c, 0, 83, 90
2, 270332, Note_off_c, 0, 83, 100
2, 270336, Note_on_c, 0, 71, 92
2, 270336, Note_on_c, 0, 76, 92
2, 270428, Note_off_c, 0, 71, 100
2, 270432, Note_on_c, 0, 73, 93
2, 270524, Note_off_c, 0, 73, 100
2, 270528, Note_on_c, 0, 71, 93
2, 270620, Note_off_c, 0, 71, 100
2, 270624, Note_on_c, 0, 73, 94
2, 270716, Note_off_c, 0, 76, 100
2, 270716, Note_off_c, 0, 73, 100
2, 270720, Note_on_c, 0, 85, 94
2, 271100, Note_off_c, 0, 85, 100
2, 271104, Note_on_c, 0, 73, 96
2, 271104, Note_on_c, 0, 76, 96
2, 271196, Note_off_c, 0, 73, 100
2, 271200, Note_on_c, 0, 74, 97
2, 271292, Note_off_c, 0, 74, 100
2, 271296, Note_on_c, 0, 73, 97
2, 271388, Note_off_c, 0, 73, 100
2, 271392, Note_on_c, 0, 74, 98
2, 271484, Note_off_c, 0, 76, 100
2, 271484, Note_off_c, 0, 74, 100
2, 271488, Note_on_c, 0, 86, 98
2, 271868, Note_off_c, 0, 86, 100
2, 271872, Note_on_c, 0, 74, 101
2, 271872, Note_on_c, 0, 80, 101
2, 271964, Note_off_c, 0, 74, 100
2, 271968, Note_on_c, 0, 76, 101
2, 272060, Note_off_c, 0, 76, 100
2, 272064, Note_on_c, 0, 74, 102
2, 272156, Note_off_c, 0, 74, 100
2, 272160, Note_on_c, 0, 76, 102
2, 272252, Note_off_c, 0, 80, 100
2, 272252, Note_off_c, 0, 76, 100
2, 272256, Note_on_c, 0, 88, 103
2, 272636, Note_off_c, 0, 88, 100
2, 272640, Note_on_c, 0, 76, 105
2, 272640, Note_on_c, 0, 81, 105
2, 272732, Note_off_c, 0, 76, 100
2, 272736, Note_on_c, 0, 78, 105
2, 272828, Note_off_c, 0, 78, 100
2, 272832, Note_on_c, 0, 76, 106
2, 272924, Note_off_c, 0, 76, 100
2, 272928, Note_on_c, 0, 78, 106
2, 273020, Note_off_c, 0, 81, 100
2, 273020, Note_off_c, 0, 78, 100
2, 273024, Note_on_c, 0, 88, 107
2, 273404, Note_off_c, 0, 88, 100
2, 273408, Note_on_c, 0, 80, 109
2, 273408, Note_on_c, 0, 76, 109
2, 273500, Note_off_c, 0, 76, 100
2, 273504, Note_on_c, 0, 78, 109
2, 273596, Note_off_c, 0, 78, 100
2, 273600, Note_on_c, 0, 76, 110
2, 273692, Note_off_c, 0, 76, 100
2, 273696, Note_on_c, 0, 78, 110
2, 273788, Note_off_c, 0, 80, 100
2, 273788, Note_off_c, 0, 78, 100
2, 273792, Note_on_c, 0, 80, 110
2, 273792, Note_on_c, 0, 83, 110
2, 273792, Note_on_c, 0, 88, 110
2, 274268, Note_off_c, 0, 88, 100
2, 274272, Note_on_c, 0, 90, 110
2, 274364, Note_off_c, 0, 80, 100
2, 274364, Note_off_c, 0, 83, 100
2, 274364, Note_off_c, 0, 90, 100
2, 274368, Note_on_c, 0, 92, 110
2, 274460, Note_off_c, 0, 92, 100
2, 274464, Note_on_c, 0, 90, 110
2, 274556, Note_off_c, 0, 90, 100
2, 274560, Note_on_c, 0, 80, 110
2, 274560, Note_on_c, 0, 83, 110
2, 274560, Note_on_c, 0, 88, 110
2, 275036, Note_off_c, 0, 88, 100
2, 275040, Note_on_c, 0, 90, 110
2, 275132, Note_off_c, 0, 80, 100
2, 275132, Note_off_c, 0, 83, 100
2, 275132, Note_off_c, 0, 90, 100
2, 275136, Note_on_c, 0, 92, 110
2, 275228, Note_off_c, 0, 92, 100
2, 275232, Note_on_c, 0, 90, 110
2, 275324, Note_off_c, 0, 90, 100
2, 275328, Note_on_c, 0, 88, 120
2, 275328, Note_on_c, 0, 83, 120
2, 275328, Note_on_c, 0, 80, 120
2, 275516, Note_off_c, 0, 88, 100
2, 275520, Note_on_c, 0, 90, 120
2, 275708, Note_off_c, 0, 83, 100
2, 275708, Note_off_c, 0, 80, 100
2, 275708, Note_off_c, 0, 90, 100
2, 275712, Note_on_c, 0, 80, 120
2, 275712, Note_on_c, 0, 88, 120
2, 275712, Note_on_c, 0, 92, 120
2, 275900, Note_off_c, 0, 80, 100
2, 275900, Note_off_c, 0, 88, 100
2, 275900, Note_off_c, 0, 92, 100
2, 275904, Note_on_c, 0, 81, 120
2, 275904, Note_on_c, 0, 90, 120
2, 275904, Note_on_c, 0, 93, 120
2, 276092, Note_off_c, 0, 81, 100
2, 276092, Note_off_c, 0, 90, 100
2, 276092, Note_off_c, 0, 93, 100
2, 276096, Note_on_c, 0, 83, 120
2, 276096, Note_on_c, 0, 92, 120
2, 276096, Note_on_c, 0, 95, 120
2, 276284, Note_off_c, 0, 83, 100
2, 276284, Note_off_c, 0, 92, 100
2, 276284, Note_off_c, 0, 95, 100
2, 276288, Note_on_c, 0, 85, 120
2, 276288, Note_on_c, 0, 93, 120
2, 276288, Note_on_c, 0, 97, 120
2, 276476, Note_off_c, 0, 85, 100
2, 276476, Note_off_c, 0, 93, 100
2, 276476, Note_off_c, 0, 97, 100
2, 276480, Note_on_c, 0, 86, 120
2, 276480, Note_on_c, 0, 95, 120
2, 276480, Note_on_c, 0, 98, 120
2, 276860, Note_off_c, 0, 86, 100
2, 276860, Note_off_c, 0, 95, 100
2, 276860, Note_off_c, 0, 98, 100
2, 277248, Note_on_c, 0, 74, 80
2, 277532, Note_off_c, 0, 74, 100
2, 277536, Note_on_c, 0, 73, 80
2, 277628, Note_off_c, 0, 73, 100
2, 277632, Note_on_c, 0, 71, 80
2, 277916, Note_off_c, 0, 71, 100
2, 277920, Note_on_c, 0, 73, 80
2, 278012, Note_off_c, 0, 73, 100
2, 278016, Note_on_c, 0, 74, 80
2, 278396, Note_off_c, 0, 74, 100
2, 278400, Note_on_c, 0, 73, 80
2, 278780, Note_off_c, 0, 73, 100
2, 278784, Note_on_c, 0, 78, 80
2, 279164, Note_off_c, 0, 78, 100
2, 279168, Note_on_c, 0, 81, 80
2, 279548, Note_off_c, 0, 81, 100
2, 279552, Note_on_c, 0, 73, 80
2, 279552, Note_on_c, 0, 78, 80
2, 279932, Note_off_c, 0, 73, 100
2, 279932, Note_off_c, 0, 78, 100
2, 279936, Note_on_c, 0, 68, 80
2, 279936, Note_on_c, 0, 71, 80
2, 279936, Note_on_c, 0, 76, 80
2, 280700, Note_off_c, 0, 68, 100
2, 280700, Note_off_c, 0, 71, 100
2, 280700, Note_off_c, 0, 76, 100
2, 280704, Note_on_c, 0, 66, 80
2, 280704, Note_on_c, 0, 69, 80
2, 280704, Note_on_c, 0, 75, 80
2, 281468, Note_off_c, 0, 66, 100
2, 281468, Note_off_c, 0, 69, 100
2, 281468, Note_off_c, 0, 75, 100
2, 281472, Note_on_c, 0, 68, 80
2, 281472, Note_on_c, 0, 76, 80
2, 281852, Note_off_c, 0, 68, 100
2, 281852, Note_off_c, 0, 76, 100
2, 281856, Control_c, 0, 64, 127
2, 281856, Note_on_c, 0, 81, 70
2, 281856, Note_on_c, 0, 85, 70
2, 282140, Note_off_c, 0, 81, 100
2, 282140, Note_off_c, 0, 85, 100
2, 282144, Note_on_c, 0, 76, 70
2, 282144, Note_on_c, 0, 83, 70
2, 282236, Note_off_c, 0, 76, 100
2, 282236, Note_off_c, 0, 83, 100
2, 282240, Note_on_c, 0, 73, 70
2, 282240, Note_on_c, 0, 81, 70
2, 282524, Note_off_c, 0, 73, 100
2, 282524, Note_off_c, 0, 81, 100
2, 282528, Note_on_c, 0, 76, 70
2, 282528, Note_on_c, 0, 83, 70
2, 282620, Note_off_c, 0, 76, 100
2, 282620, Note_off_c, 0, 83, 100
2, 282624, Note_on_c, 0, 81, 70
2, 282624, Note_on_c, 0, 85, 70
2, 283000, Control_c, 0, 64, 0
2, 283004, Note_off_c, 0, 81, 100
2, 283004, Note_off_c, 0, 85, 100
2, 283008, Note_on_c, 0, 83, 110
2, 283008, Note_on_c, 0, 86, 110
2, 283292, Note_off_c, 0, 83, 100
2, 283292, Note_off_c, 0, 86, 100
2, 283296, Note_on_c, 0, 80, 110
2, 283296, Note_on_c, 0, 88, 110
2, 283388, Note_off_c, 0, 80, 100
2, 283388, Note_off_c, 0, 88, 100
2, 283392, Note_on_c, 0, 81, 110
2, 283392, Note_on_c, 0, 85, 110
2, 283580, Note_off_c, 0, 81, 100
2, 283580, Note_off_c, 0, 85, 100
2, 283584, Note_on_c, 0, 85, 110
2, 283584, Note_on_c, 0, 93, 110
2, 283772, Note_off_c, 0, 85, 100
2, 283772, Note_off_c, 0, 93, 100
2, 283776, Note_on_c, 0, 74, 110
2, 283776, Note_on_c, 0, 83, 110
2, 284060, Note_off_c, 0, 74, 100
2, 284060, Note_off_c, 0, 83, 100
2, 284064, Note_on_c, 0, 76, 110
2, 284064, Note_on_c, 0, 85, 110
2, 284156, Note_off_c, 0, 76, 100
2, 284156, Note_off_c, 0, 85, 100
2, 284160, Note_on_c, 0, 73, 110
2, 284160, Note_on_c, 0, 81, 110
2, 284348, Note_off_c, 0, 73, 100
2, 284348, Note_off_c, 0, 81, 100
2, 284352, Note_on_c, 0, 81, 80
2, 284540, Note_off_c, 0, 81, 100
2, 284544, Note_on_c, 0, 76, 80
2, 285020, Note_off_c, 0, 76, 100
2, 285024, Note_on_c, 0, 78, 80
2, 285116, Note_off_c, 0, 78, 100
2, 285120, Note_on_c, 0, 80, 80
2, 285212, Note_off_c, 0, 80, 100
2, 285216, Note_on_c, 0, 81, 80
2, 285308, Note_off_c, 0, 81, 100
2, 285312, Note_on_c, 0, 78, 80
2, 285312, Note_on_c, 0, 69, 80
2, 285692, Note_off_c, 0, 78, 100
2, 285788, Note_off_c, 0, 69, 100
2, 285792, Note_on_c, 0, 71, 80
2, 285884, Note_off_c, 0, 71, 100
2, 285888, Note_on_c, 0, 73, 80
2, 285980, Note_off_c, 0, 73, 100
2, 285984, Note_on_c, 0, 74, 80
2, 286076, Note_off_c, 0, 74, 100
2, 286080, Note_on_c, 0, 83, 80
2, 286556, Note_off_c, 0, 83, 100
2, 286560, Note_on_c, 0, 85, 80
2, 286652, Note_off_c, 0, 85, 100
2, 286656, Note_on_c, 0, 86, 80
2, 286748, Note_off_c, 0, 86, 100
2, 286752, Note_on_c, 0, 88, 80
2, 286844, Note_off_c, 0, 88, 100
2, 286848, Note_on_c, 0, 85, 80
2, 286848, Note_on_c, 0, 76, 80
2, 287228, Note_off_c, 0, 85, 100
2, 287324, Note_off_c, 0, 76, 100
2, 287328, Note_on_c, 0, 78, 80
2, 287420, Note_off_c, 0, 78, 100
2, 287424, Note_on_c, 0, 80, 80
2, 287516, Note_off_c, 0, 80, 100
2, 287520, Note_on_c, 0, 81, 80
2, 287612, Note_off_c, 0, 81, 100
2, 287616, Note_on_c, 0, 76, 80
2, 287804, Note_off_c, 0, 76, 100
2, 287808, Note_on_c, 0, 76, 81
2, 288092, Note_off_c, 0, 76, 100
2, 288096, Note_on_c, 0, 78, 84
2, 288188, Note_off_c, 0, 78, 100
2, 288192, Note_on_c, 0, 80, 85
2, 288284, Note_off_c, 0, 80, 100
2, 288288, Note_on_c, 0, 81, 86
2, 288380, Note_off_c, 0, 81, 100
2, 288384, Note_on_c, 0, 78, 87
2, 288384, Note_on_c, 0, 69, 87
2, 288572, Note_off_c, 0, 69, 100
2, 288576, Note_on_c, 0, 69, 89
2, 288764, Note_off_c, 0, 78, 100
2, 288860, Note_off_c, 0, 69, 100
2, 288864, Note_on_c, 0, 71, 91
2, 288956, Note_off_c, 0, 71, 100
2, 288960, Note_on_c, 0, 73, 92
2, 289052, Note_off_c, 0, 73, 100
2, 289056, Note_on_c, 0, 74, 93
2, 289148, Note_off_c, 0, 74, 100
2, 289152, Note_on_c, 0, 74, 94
2, 289152, Note_on_c, 0, 83, 94
2, 289340, Note_off_c, 0, 83, 100
2, 289344, Note_on_c, 0, 83, 96
2, 289532, Note_off_c, 0, 74, 100
2, 289628, Note_off_c, 0, 83, 100
2, 289632, Note_on_c, 0, 85, 99
2, 289724, Note_off_c, 0, 85, 100
2, 289728, Note_on_c, 0, 86, 100
2, 289820, Note_off_c, 0, 86, 100
2, 289824, Note_on_c, 0, 88, 100
2, 289916, Note_off_c, 0, 88, 100
2, 289920, Note_on_c, 0, 76, 80
2, 289920, Note_on_c, 0, 85, 80
2, 289920, Note_on_c, 0, 88, 80
2, 290108, Note_off_c, 0, 76, 100
2, 290108, Note_off_c, 0, 85, 100
2, 290108, Note_off_c, 0, 88, 100
2, 290112, Note_on_c, 0, 69, 84
2, 290112, Note_on_c, 0, 73, 84
2, 290112, Note_on_c, 0, 76, 84
2, 290492, Note_off_c, 0, 69, 100
2, 290492, Note_off_c, 0, 73, 100
2, 290492, Note_off_c, 0, 76, 100
2, 290496, Note_on_c, 0, 69, 92
2, 290496, Note_on_c, 0, 73, 92
2, 290496, Note_on_c, 0, 76, 92
2, 290972, Note_off_c, 0, 76, 64
2, 290972, Note_off_c, 0, 73, 64
2, 290972, Note_off_c, 0, 69, 64
2, 290976, Note_on_c, 0, 69, 102
2, 290976, Note_on_c, 0, 73, 102
2, 290976, Note_on_c, 0, 76, 102
2, 291068, Note_off_c, 0, 69, 100
2, 291068, Note_off_c, 0, 73, 100
2, 291068, Note_off_c, 0, 76, 100
2, 291072, Note_on_c, 0, 69, 104
2, 291072, Note_on_c, 0, 73, 104
2, 291072, Note_on_c, 0, 76, 104
2, 291356, Note_off_c, 0, 69, 100
2, 291356, Note_off_c, 0, 73, 100
2, 291356, Note_off_c, 0, 76, 100
2, 291360, Note_on_c, 0, 69, 110
2, 291360, Note_on_c, 0, 73, 110
2, 291360, Note_on_c, 0, 76, 110
2, 291452, Note_off_c, 0, 69, 100
2, 291452, Note_off_c, 0, 73, 100
2, 291452, Note_off_c, 0, 76, 100
2, 291456, Note_on_c, 0, 64, 110
2, 291456, Note_on_c, 0, 68, 110
2, 291456, Note_on_c, 0, 71, 110
2, 291456, Note_on_c, 0, 76, 110
2, 291548, Note_off_c, 0, 64, 100
2, 291548, Note_off_c, 0, 68, 100
2, 291548, Note_off_c, 0, 71, 100
2, 291548, Note_off_c, 0, 76, 100
2, 291552, Note_on_c, 0, 66, 110
2, 291644, Note_off_c, 0, 66, 100
2, 291648, Note_on_c, 0, 68, 110
2, 291740, Note_off_c, 0, 68, 100
2, 291744, Note_on_c, 0, 69, 110
2, 291836, Note_off_c, 0, 69, 100
2, 291840, Note_on_c, 0, 68, 110
2, 291932, Note_off_c, 0, 68, 100
2, 291936, Note_on_c, 0, 69, 110
2, 292028, Note_off_c, 0, 69, 100
2, 292032, Note_on_c, 0, 71, 110
2, 292124, Note_off_c, 0, 71, 100
2, 292128, Note_on_c, 0, 73, 110
2, 292220, Note_off_c, 0, 73, 100
2, 292224, Note_on_c, 0, 71, 110
2, 292316, Note_off_c, 0, 71, 100
2, 292320, Note_on_c, 0, 73, 110
2, 292412, Note_off_c, 0, 73, 100
2, 292416, Note_on_c, 0, 74, 110
2, 292508, Note_off_c, 0, 74, 100
2, 292512, Note_on_c, 0, 76, 110
2, 292604, Note_off_c, 0, 76, 100
2, 292608, Note_on_c, 0, 74, 110
2, 292700, Note_off_c, 0, 74, 100
2, 292704, Note_on_c, 0, 76, 110
2, 292796, Note_off_c, 0, 76, 100
2, 292800, Note_on_c, 0, 78, 110
2, 292892, Note_off_c, 0, 78, 100
2, 292896, Note_on_c, 0, 80, 110
2, 292988, Note_off_c, 0, 80, 100
2, 292992, Note_on_c, 0, 69, 110
2, 292992, Note_on_c, 0, 73, 110
2, 292992, Note_on_c, 0, 76, 110
2, 292992, Note_on_c, 0, 81, 110
2, 293180, Note_off_c, 0, 69, 100
2, 293180, Note_off_c, 0, 73, 100
2, 293180, Note_off_c, 0, 76, 100
2, 293180, Note_off_c, 0, 81, 100
2, 293184, Note_on_c, 0, 69, 82
2, 293184, Note_on_c, 0, 73, 82
2, 293184, Note_on_c, 0, 76, 82
2, 293564, Note_off_c, 0, 69, 100
2, 293564, Note_off_c, 0, 73, 100
2, 293564, Note_off_c, 0, 76, 100
2, 293568, Note_on_c, 0, 69, 91
2, 293568, Note_on_c, 0, 73, 91
2, 293568, Note_on_c, 0, 76, 91
2, 294044, Note_off_c, 0, 76, 64
2, 294044, Note_off_c, 0, 73, 64
2, 294044, Note_off_c, 0, 69, 64
2, 294048, Note_on_c, 0, 69, 102
2, 294048, Note_on_c, 0, 73, 102
2, 294048, Note_on_c, 0, 76, 102
2, 294140, Note_off_c, 0, 69, 100
2, 294140, Note_off_c, 0, 73, 100
2, 294140, Note_off_c, 0, 76, 100
2, 294144, Note_on_c, 0, 69, 104
2, 294144, Note_on_c, 0, 73, 104
2, 294144, Note_on_c, 0, 76, 104
2, 294428, Note_off_c, 0, 69, 100
2, 294428, Note_off_c, 0, 73, 100
2, 294428, Note_off_c, 0, 76, 100
2, 294432, Note_on_c, 0, 69, 110
2, 294432, Note_on_c, 0, 73, 110
2, 294432, Note_on_c, 0, 76, 110
2, 294524, Note_off_c, 0, 69, 100
2, 294524, Note_off_c, 0, 73, 100
2, 294524, Note_off_c, 0, 76, 100
2, 294528, Note_on_c, 0, 76, 120
2, 294620, Note_off_c, 0, 76, 100
2, 294624, Note_on_c, 0, 78, 120
2, 294716, Note_off_c, 0, 78, 100
2, 294720, Note_on_c, 0, 80, 120
2, 294812, Note_off_c, 0, 80, 100
2, 294816, Note_on_c, 0, 81, 120
2, 294908, Note_off_c, 0, 81, 100
2, 294912, Note_on_c, 0, 80, 120
2, 295004, Note_off_c, 0, 80, 100
2, 295008, Note_on_c, 0, 81, 120
2, 295100, Note_off_c, 0, 81, 100
2, 295104, Note_on_c, 0, 83, 120
2, 295196, Note_off_c, 0, 83, 100
2, 295200, Note_on_c, 0, 85, 120
2, 295292, Note_off_c, 0, 85, 100
2, 295296, Note_on_c, 0, 83, 120
2, 295388, Note_off_c, 0, 83, 100
2, 295392, Note_on_c, 0, 85, 120
2, 295484, Note_off_c, 0, 85, 100
2, 295488, Note_on_c, 0, 86, 120
2, 295580, Note_off_c, 0, 86, 100
2, 295584, Note_on_c, 0, 88, 120
2, 295676, Note_off_c, 0, 88, 100
2, 295680, Note_on_c, 0, 86, 120
2, 295772, Note_off_c, 0, 86, 100
2, 295776, Note_on_c, 0, 88, 120
2, 295868, Note_off_c, 0, 88, 100
2, 295872, Note_on_c, 0, 90, 120
2, 295964, Note_off_c, 0, 90, 100
2, 295968, Note_on_c, 0, 92, 120
2, 296060, Note_off_c, 0, 92, 100
2, 296064, Note_on_c, 0, 81, 120
2, 296064, Note_on_c, 0, 85, 120
2, 296064, Note_on_c, 0, 93, 120
2, 296444, Note_off_c, 0, 81, 100
2, 296444, Note_off_c, 0, 85, 100
2, 296444, Note_off_c, 0, 93, 100
2, 296640, Note_on_c, 0, 71, 80
2, 296640, Note_on_c, 0, 78, 80
2, 296640, Note_on_c, 0, 83, 80
2, 296828, Note_off_c, 0, 71, 100
2, 296828, Note_off_c, 0, 78, 100
2, 296828, Note_off_c, 0, 83, 100
2, 296832, Note_on_c, 0, 71, 80
2, 296832, Note_on_c, 0, 78, 80
2, 296832, Note_on_c, 0, 83, 80
2, 297212, Note_off_c, 0, 71, 100
2, 297212, Note_off_c, 0, 78, 100
2, 297212, Note_off_c, 0, 83, 100
2, 297408, Note_on_c, 0, 74, 80
2, 297408, Note_on_c, 0, 86, 80
2, 297596, Note_off_c, 0, 74, 100
2, 297596, Note_off_c, 0, 86, 100
2, 297600, Note_on_c, 0, 74, 80
2, 297600, Note_on_c, 0, 86, 80
2, 297788, Note_off_c, 0, 74, 100
2, 297788, Note_off_c, 0, 86, 100
2, 297792, Note_on_c, 0, 68, 80
2, 297792, Note_on_c, 0, 74, 80
2, 297792, Note_on_c, 0, 80, 80
2, 297980, Note_off_c, 0, 68, 100
2, 297980, Note_off_c, 0, 74, 100
2, 297980, Note_off_c, 0, 80, 100
2, 297984, Note_on_c, 0, 68, 80
2, 297984, Note_on_c, 0, 74, 80
2, 297984, Note_on_c, 0, 80, 80
2, 298172, Note_off_c, 0, 68, 100
2, 298172, Note_off_c, 0, 74, 100
2, 298172, Note_off_c, 0, 80, 100
2, 298176, Note_on_c, 0, 69, 80
2, 298176, Note_on_c, 0, 73, 80
2, 298176, Note_on_c, 0, 81, 80
2, 298364, Note_off_c, 0, 69, 100
2, 298364, Note_off_c, 0, 73, 100
2, 298364, Note_off_c, 0, 81, 100
2, 298368, Note_on_c, 0, 71, 80
2, 298368, Note_on_c, 0, 80, 80
2, 298368, Note_on_c, 0, 83, 80
2, 298748, Note_off_c, 0, 71, 100
2, 298748, Note_off_c, 0, 80, 100
2, 298748, Note_off_c, 0, 83, 100
2, 299136, Note_on_c, 0, 64, 70
2, 299136, Note_on_c, 0, 71, 70
2, 299136, Note_on_c, 0, 74, 70
2, 299516, Note_off_c, 0, 64, 100
2, 299516, Note_off_c, 0, 71, 100
2, 299516, Note_off_c, 0, 74, 100
2, 299712, Note_on_c, 0, 64, 70
2, 299712, Note_on_c, 0, 69, 70
2, 299712, Note_on_c, 0, 73, 70
2, 299900, Note_off_c, 0, 64, 100
2, 299900, Note_off_c, 0, 69, 100
2, 299900, Note_off_c, 0, 73, 100
2, 299904, Note_on_c, 0, 64, 70
2, 299904, Note_on_c, 0, 69, 70
2, 299904, Note_on_c, 0, 73, 70
2, 300284, Note_off_c, 0, 64, 100
2, 300284, Note_off_c, 0, 69, 100
2, 300284, Note_off_c, 0, 73, 100
2, 300480, Note_on_c, 0, 66, 70
2, 300480, Note_on_c, 0, 69, 70
2, 300480, Note_on_c, 0, 71, 70
2, 300668, Note_off_c, 0, 66, 100
2, 300668, Note_off_c, 0, 69, 100
2, 300668, Note_off_c, 0, 71, 100
2, 300672, Note_on_c, 0, 66, 70
2, 300672, Note_on_c, 0, 69, 70
2, 300672, Note_on_c, 0, 71, 70
2, 300860, Note_off_c, 0, 66, 100
2, 300860, Note_off_c, 0, 69, 100
2, 300860, Note_off_c, 0, 71, 100
2, 300864, Note_on_c, 0, 68, 70
2, 300864, Note_on_c, 0, 76, 70
2, 301052, Note_off_c, 0, 68, 100
2, 301052, Note_off_c, 0, 76, 100
2, 301056, Note_on_c, 0, 68, 70
2, 301056, Note_on_c, 0, 76, 70
2, 301244, Note_off_c, 0, 68, 100
2, 301244, Note_off_c, 0, 76, 100
2, 301248, Note_on_c, 0, 69, 70
2, 301436, Note_off_c, 0, 69, 100
2, 301440, Note_on_c, 0, 69, 70
2, 301820, Note_off_c, 0, 69, 100
2, 303744, Note_on_c, 0, 62, 80
2, 303744, Note_on_c, 0, 64, 80
2, 304508, Note_off_c, 0, 62, 100
2, 304508, Note_off_c, 0, 64, 100
2, 304512, Note_on_c, 0, 64, 80
2, 304512, Note_on_c, 0, 61, 80
2, 304988, Note_off_c, 0, 64, 100
2, 304992, Note_on_c, 0, 66, 80
2, 305084, Note_off_c, 0, 66, 100
2, 305088, Note_on_c, 0, 68, 80
2, 305180, Note_off_c, 0, 68, 100
2, 305184, Note_on_c, 0, 69, 80
2, 305276, Note_off_c, 0, 61, 100
2, 305276, Note_off_c, 0, 69, 100
2, 305280, Note_on_c, 0, 62, 80
2, 305280, Note_on_c, 0, 64, 80
2, 305280, Note_on_c, 0, 68, 80
2, 306044, Note_off_c, 0, 62, 100
2, 306044, Note_off_c, 0, 64, 100
2, 306044, Note_off_c, 0, 68, 100
2, 306048, Note_on_c, 0, 61, 80
2, 306048, Note_on_c, 0, 64, 80
2, 306048, Note_on_c, 0, 69, 80
2, 306428, Note_off_c, 0, 61, 100
2, 306428, Note_off_c, 0, 64, 100
2, 306524, Note_off_c, 0, 69, 100
2, 306528, Note_on_c, 0, 71, 80
2, 306620, Note_off_c, 0, 71, 100
2, 306624, Note_on_c, 0, 73, 80
2, 306716, Note_off_c, 0, 73, 100
2, 306720, Note_on_c, 0, 76, 80
2, 306812, Note_off_c, 0, 76, 100
2, 306816, Note_on_c, 0, 62, 80
2, 306816, Note_on_c, 0, 64, 80
2, 307580, Note_off_c, 0, 62, 100
2, 307580, Note_off_c, 0, 64, 100
2, 307584, Note_on_c, 0, 64, 80
2, 307584, Note_on_c, 0, 61, 80
2, 308060, Note_off_c, 0, 64, 100
2, 308064, Note_on_c, 0, 66, 80
2, 308156, Note_off_c, 0, 66, 100
2, 308160, Note_on_c, 0, 68, 80
2, 308252, Note_off_c, 0, 68, 100
2, 308256, Note_on_c, 0, 69, 80
2, 308348, Note_off_c, 0, 61, 100
2, 308348, Note_off_c, 0, 69, 100
2, 308352, Note_on_c, 0, 62, 80
2, 308352, Note_on_c, 0, 64, 80
2, 308352, Note_on_c, 0, 68, 80
2, 309116, Note_off_c, 0, 62, 100
2, 309116, Note_off_c, 0, 64, 100
2, 309116, Note_off_c, 0, 68, 100
2, 309120, Note_on_c, 0, 61, 80
2, 309120, Note_on_c, 0, 64, 80
2, 309120, Note_on_c, 0, 69, 80
2, 309500, Note_off_c, 0, 61, 100
2, 309500, Note_off_c, 0, 64, 100
2, 309596, Note_off_c, 0, 69, 100
2, 309600, Note_on_c, 0, 71, 80
2, 309692, Note_off_c, 0, 71, 100
2, 309696, Note_on_c, 0, 73, 80
2, 309788, Note_off_c, 0, 73, 100
2, 309792, Note_on_c, 0, 76, 80
2, 309884, Note_off_c, 0, 76, 100
2, 309888, Note_on_c, 0, 67, 80
2, 309888, Note_on_c, 0, 73, 80
2, 309888, Note_on_c, 0, 76, 80
2, 309888, Note_on_c, 0, 79, 80
2, 311228, Note_off_c, 0, 79, 64
2, 311228, Note_off_c, 0, 76, 64
2, 311228, Note_off_c, 0, 73, 64
2, 311228, Note_off_c, 0, 67, 64
2, 311232, Note_on_c, 0, 69, 120
2, 311232, Note_on_c, 0, 81, 120
2, 311420, Note_off_c, 0, 69, 100
2, 311420, Note_off_c, 0, 81, 100
2, 311424, Note_on_c, 0, 66, 120
2, 311424, Note_on_c, 0, 78, 120
2, 311804, Note_off_c, 0, 66, 100
2, 311804, Note_off_c, 0, 78, 100
2, 312768, Note_on_c, 0, 57, 80
2, 312768, Note_on_c, 0, 69, 80
2, 312956, Note_off_c, 0, 57, 100
2, 312956, Note_off_c, 0, 69, 100
2, 312960, Note_on_c, 0, 53, 80
2, 312960, Note_on_c, 0, 65, 80
2, 313340, Note_off_c, 0, 53, 100
2, 313340, Note_off_c, 0, 65, 100
2, 315840, Note_on_c, 0, 58, 80
2, 316028, Note_off_c, 0, 58, 100
2, 316032, Note_on_c, 0, 55, 80
2, 316508, Note_off_c, 0, 55, 100
2, 316512, Note_on_c, 0, 57, 80
2, 316604, Note_off_c, 0, 57, 100
2, 316608, Note_on_c, 0, 58, 80
2, 316700, Note_off_c, 0, 58, 100
2, 316704, Note_on_c, 0, 60, 80
2, 316796, Note_off_c, 0, 60, 100
2, 316800, Note_on_c, 0, 57, 80
2, 317180, Note_off_c, 0, 57, 100
2, 317376, Note_on_c, 0, 72, 80
2, 317564, Note_off_c, 0, 72, 100
2, 317568, Note_on_c, 0, 69, 80
2, 318044, Note_off_c, 0, 69, 100
2, 318048, Note_on_c, 0, 71, 80
2, 318140, Note_off_c, 0, 71, 100
2, 318144, Note_on_c, 0, 72, 80
2, 318236, Note_off_c, 0, 72, 100
2, 318240, Note_on_c, 0, 74, 80
2, 318332, Note_off_c, 0, 74, 100
2, 318336, Note_on_c, 0, 68, 80
2, 318716, Note_off_c, 0, 68, 100
2, 318912, Note_on_c, 0, 74, 80
2, 319100, Note_off_c, 0, 74, 100
2, 319104, Note_on_c, 0, 71, 80
2, 319580, Note_off_c, 0, 71, 100
2, 319584, Note_on_c, 0, 73, 80
2, 319676, Note_off_c, 0, 73, 100
2, 319680, Note_on_c, 0, 74, 80
2, 319772, Note_off_c, 0, 74, 100
2, 319776, Note_on_c, 0, 76, 80
2, 319868, Note_off_c, 0, 76, 100
2, 319872, Note_on_c, 0, 74, 80
2, 320064, Note_on_c, 0, 69, 80
2, 320252, Note_off_c, 0, 69, 100
2, 320256, Note_on_c, 0, 68, 80
2, 320444, Note_off_c, 0, 74, 100
2, 320448, Note_on_c, 0, 76, 80
2, 320636, Note_off_c, 0, 68, 100
2, 320636, Note_off_c, 0, 76, 100
2, 320640, Note_on_c, 0, 73, 80
2, 320640, Note_on_c, 0, 69, 80
2, 320828, Note_off_c, 0, 73, 100
2, 320832, Note_on_c, 0, 81, 80
2, 321020, Note_off_c, 0, 81, 100
2, 321024, Note_on_c, 0, 76, 80
2, 321212, Note_off_c, 0, 69, 100
2, 321212, Note_off_c, 0, 76, 100
2, 321600, Note_on_c, 0, 71, 80
2, 321600, Note_on_c, 0, 80, 80
2, 321980, Note_off_c, 0, 71, 100
2, 321980, Note_off_c, 0, 80, 100
2, 321984, Note_on_c, 0, 71, 80
2, 321984, Note_on_c, 0, 80, 80
2, 322172, Note_off_c, 0, 71, 100
2, 322172, Note_off_c, 0, 80, 100
2, 322176, Note_on_c, 0, 69, 80
2, 322176, Note_on_c, 0, 81, 80
2, 322364, Note_off_c, 0, 69, 100
2, 322364, Note_off_c, 0, 81, 100
2, 322368, Note_on_c, 0, 73, 80
2, 322368, Note_on_c, 0, 76, 80
2, 322556, Note_off_c, 0, 73, 100
2, 322556, Note_off_c, 0, 76, 100
2, 322560, Note_on_c, 0, 69, 80
2, 322560, Note_on_c, 0, 73, 80
2, 322748, Note_off_c, 0, 69, 100
2, 322748, Note_off_c, 0, 73, 100
2, 322752, Note_on_c, 0, 68, 80
2, 322752, Note_on_c, 0, 76, 80
2, 322940, Note_off_c, 0, 68, 100
2, 322940, Note_off_c, 0, 76, 100
2, 322944, Note_on_c, 0, 68, 80
2, 322944, Note_on_c, 0, 74, 80
2, 323132, Note_off_c, 0, 68, 100
2, 323136, Note_on_c, 0, 69, 80
2, 323324, Note_off_c, 0, 69, 100
2, 323328, Note_on_c, 0, 68, 80
2, 323516, Note_off_c, 0, 74, 100
2, 323520, Note_on_c, 0, 76, 80
2, 323708, Note_off_c, 0, 68, 100
2, 323708, Note_off_c, 0, 76, 100
2, 323712, Note_on_c, 0, 64, 80
2, 323712, Note_on_c, 0, 73, 80
2, 323900, Note_off_c, 0, 64, 100
2, 323900, Note_off_c, 0, 73, 100
2, 323904, Note_on_c, 0, 69, 80
2, 324092, Note_off_c, 0, 69, 100
2, 324096, Note_on_c, 0, 66, 80
2, 324284, Note_off_c, 0, 66, 100
2, 324288, Note_on_c, 0, 62, 80
2, 324288, Note_on_c, 0, 68, 80
2, 324476, Note_off_c, 0, 62, 100
2, 324476, Note_off_c, 0, 68, 100
2, 324480, Note_on_c, 0, 64, 80
2, 324480, Note_on_c, 0, 69, 80
2, 324668, Note_off_c, 0, 64, 100
2, 324668, Note_off_c, 0, 69, 100
2, 324672, Note_on_c, 0, 68, 80
2, 324672, Note_on_c, 0, 71, 80
2, 324860, Note_off_c, 0, 68, 100
2, 324860, Note_off_c, 0, 71, 100
2, 324864, Note_on_c, 0, 64, 80
2, 324864, Note_on_c, 0, 69, 80
2, 325052, Note_off_c, 0, 69, 100
2, 325056, Note_on_c, 0, 68, 80
2, 325148, Note_off_c, 0, 68, 100
2, 325152, Note_on_c, 0, 76, 80
2, 325244, Note_off_c, 0, 64, 100
2, 325244, Note_off_c, 0, 76, 100
2, 325248, Note_on_c, 0, 68, 80
2, 325248, Note_on_c, 0, 74, 80
2, 325296, Note_on_c, 0, 76, 80
2, 325340, Note_off_c, 0, 74, 100
2, 325344, Note_on_c, 0, 74, 80
2, 325388, Note_off_c, 0, 76, 100
2, 325392, Note_on_c, 0, 76, 80
2, 325436, Note_off_c, 0, 68, 100
2, 325436, Note_off_c, 0, 74, 100
2, 325440, Note_on_c, 0, 69, 80
2, 325440, Note_on_c, 0, 74, 80
2, 325484, Note_off_c, 0, 76, 100
2, 325488, Note_on_c, 0, 76, 80
2, 325532, Note_off_c, 0, 74, 100
2, 325536, Note_on_c, 0, 74, 80
2, 325580, Note_off_c, 0, 76, 100
2, 325584, Note_on_c, 0, 76, 80
2, 325628, Note_off_c, 0, 69, 100
2, 325628, Note_off_c, 0, 74, 100
2, 325632, Note_on_c, 0, 68, 80
2, 325632, Note_on_c, 0, 74, 80
2, 325676, Note_off_c, 0, 76, 100
2, 325680, Note_on_c, 0, 76, 80
2, 325724, Note_off_c, 0, 74, 100
2, 325728, Note_on_c, 0, 73, 80
2, 325772, Note_off_c, 0, 76, 100
2, 325776, Note_on_c, 0, 74, 80
2, 325820, Note_off_c, 0, 73, 100
2, 325820, Note_off_c, 0, 74, 100
2, 325824, Note_on_c, 0, 76, 80
2, 326012, Note_off_c, 0, 68, 100
2, 326012, Note_off_c, 0, 76, 100
2, 326016, Note_on_c, 0, 73, 80
2, 326016, Note_on_c, 0, 69, 80
2, 326204, Note_off_c, 0, 73, 100
2, 326208, Note_on_c, 0, 81, 80
2, 326396, Note_off_c, 0, 81, 100
2, 326400, Note_on_c, 0, 76, 80
2, 326588, Note_off_c, 0, 69, 100
2, 326588, Note_off_c, 0, 76, 100
2, 326976, Note_on_c, 0, 77, 80
2, 326976, Note_on_c, 0, 68, 80
2, 326976, Note_on_c, 0, 80, 80
2, 327164, Note_off_c, 0, 77, 100
2, 327168, Note_on_c, 0, 76, 80
2, 327356, Note_off_c, 0, 68, 100
2, 327356, Note_off_c, 0, 80, 100
2, 327356, Note_off_c, 0, 76, 100
2, 327360, Note_on_c, 0, 71, 80
2, 327360, Note_on_c, 0, 80, 80
2, 327548, Note_off_c, 0, 71, 100
2, 327548, Note_off_c, 0, 80, 100
2, 327552, Note_on_c, 0, 69, 80
2, 327552, Note_on_c, 0, 81, 80
2, 327740, Note_off_c, 0, 69, 100
2, 327740, Note_off_c, 0, 81, 100
2, 327744, Note_on_c, 0, 73, 80
2, 327744, Note_on_c, 0, 76, 80
2, 327932, Note_off_c, 0, 73, 100
2, 327932, Note_off_c, 0, 76, 100
2, 327936, Note_on_c, 0, 69, 80
2, 327936, Note_on_c, 0, 73, 80
2, 328124, Note_off_c, 0, 69, 100
2, 328124, Note_off_c, 0, 73, 100
2, 328128, Note_on_c, 0, 68, 80
2, 328128, Note_on_c, 0, 76, 80
2, 328316, Note_off_c, 0, 68, 100
2, 328316, Note_off_c, 0, 76, 100
2, 328320, Note_on_c, 0, 68, 80
2, 328320, Note_on_c, 0, 74, 80
2, 328368, Note_on_c, 0, 76, 80
2, 328412, Note_off_c, 0, 74, 100
2, 328416, Note_on_c, 0, 74, 80
2, 328460, Note_off_c, 0, 76, 100
2, 328464, Note_on_c, 0, 76, 80
2, 328508, Note_off_c, 0, 68, 100
2, 328508, Note_off_c, 0, 74, 100
2, 328512, Note_on_c, 0, 69, 80
2, 328512, Note_on_c, 0, 74, 80
2, 328556, Note_off_c, 0, 76, 100
2, 328560, Note_on_c, 0, 76, 80
2, 328604, Note_off_c, 0, 74, 100
2, 328608, Note_on_c, 0, 74, 80
2, 328652, Note_off_c, 0, 76, 100
2, 328656, Note_on_c, 0, 76, 80
2, 328700, Note_off_c, 0, 69, 100
2, 328700, Note_off_c, 0, 74, 100
2, 328704, Note_on_c, 0, 68, 80
2, 328704, Note_on_c, 0, 74, 80
2, 328748, Note_off_c, 0, 76, 100
2, 328752, Note_on_c, 0, 76, 80
2, 328796, Note_off_c, 0, 74, 100
2, 328800, Note_on_c, 0, 73, 80
2, 328844, Note_off_c, 0, 76, 100
2, 328848, Note_on_c, 0, 74, 80
2, 328892, Note_off_c, 0, 73, 100
2, 328892, Note_off_c, 0, 74, 100
2, 328896, Note_on_c, 0, 76, 80
2, 329084, Note_off_c, 0, 68, 100
2, 329084, Note_off_c, 0, 76, 100
2, 329088, Note_on_c, 0, 64, 80
2, 329088, Note_on_c, 0, 69, 80
2, 329088, Note_on_c, 0, 73, 80
2, 329132, Note_off_c, 0, 73, 100
2, 329136, Note_on_c, 0, 74, 80
2, 329180, Note_off_c, 0, 74, 100
2, 329184, Note_on_c, 0, 71, 80
2, 329228, Note_off_c, 0, 71, 100
2, 329232, Note_on_c, 0, 73, 80
2, 329276, Note_off_c, 0, 64, 100
2, 329276, Note_off_c, 0, 69, 100
2, 329276, Note_off_c, 0, 73, 100
2, 329280, Note_on_c, 0, 64, 80
2, 329280, Note_on_c, 0, 69, 80
2, 329468, Note_off_c, 0, 64, 100
2, 329468, Note_off_c, 0, 69, 100
2, 329472, Note_on_c, 0, 57, 80
2, 329472, Note_on_c, 0, 66, 80
2, 329660, Note_off_c, 0, 57, 100
2, 329660, Note_off_c, 0, 66, 100
2, 329664, Note_on_c, 0, 62, 80
2, 329664, Note_on_c, 0, 64, 80
2, 329664, Note_on_c, 0, 68, 80
2, 329852, Note_off_c, 0, 62, 100
2, 329852, Note_off_c, 0, 64, 100
2, 329852, Note_off_c, 0, 68, 100
2, 329856, Note_on_c, 0, 64, 80
2, 329856, Note_on_c, 0, 69, 80
2, 330044, Note_off_c, 0, 64, 100
2, 330044, Note_off_c, 0, 69, 100
2, 330048, Note_on_c, 0, 66, 80
2, 330048, Note_on_c, 0, 71, 80
2, 330236, Note_off_c, 0, 66, 100
2, 330236, Note_off_c, 0, 71, 100
2, 330240, Note_on_c, 0, 59, 80
2, 330240, Note_on_c, 0, 68, 80
2, 330332, Note_off_c, 0, 59, 100
2, 330332, Note_off_c, 0, 68, 100
2, 330336, Note_on_c, 0, 66, 80
2, 330428, Note_off_c, 0, 66, 100
2, 330432, Note_on_c, 0, 68, 80
2, 330524, Note_off_c, 0, 68, 100
2, 330528, Note_on_c, 0, 69, 80
2, 330620, Note_off_c, 0, 69, 100
2, 330624, Note_on_c, 0, 71, 80
2, 330716, Note_off_c, 0, 71, 100
2, 330720, Note_on_c, 0, 73, 80
2, 330812, Note_off_c, 0, 73, 100
2, 330816, Note_on_c, 0, 74, 80
2, 330908, Note_off_c, 0, 74, 100
2, 330912, Note_on_c, 0, 76, 80
2, 331004, Note_off_c, 0, 76, 100
2, 331008, Note_on_c, 0, 73, 80
2, 331100, Note_off_c, 0, 73, 100
2, 331104, Note_on_c, 0, 71, 80
2, 331196, Note_off_c, 0, 71, 100
2, 331200, Note_on_c, 0, 69, 80
2, 331292, Note_off_c, 0, 69, 100
2, 331296, Note_on_c, 0, 71, 80
2, 331388, Note_off_c, 0, 71, 100
2, 331392, Note_on_c, 0, 73, 80
2, 331484, Note_off_c, 0, 73, 100
2, 331488, Note_on_c, 0, 74, 80
2, 331580, Note_off_c, 0, 74, 100
2, 331584, Note_on_c, 0, 88, 80
2, 331584, Note_on_c, 0, 76, 80
2, 331676, Note_off_c, 0, 76, 100
2, 331680, Note_on_c, 0, 78, 80
2, 331772, Note_off_c, 0, 88, 100
2, 331772, Note_off_c, 0, 78, 100
2, 331776, Note_on_c, 0, 81, 80
2, 331776, Note_on_c, 0, 76, 80
2, 331868, Note_off_c, 0, 76, 100
2, 331872, Note_on_c, 0, 74, 80
2, 331964, Note_off_c, 0, 81, 100
2, 331964, Note_off_c, 0, 74, 100
2, 331968, Note_on_c, 0, 76, 80
2, 332060, Note_off_c, 0, 76, 100
2, 332064, Note_on_c, 0, 73, 80
2, 332156, Note_off_c, 0, 73, 100
2, 332160, Note_on_c, 0, 71, 80
2, 332252, Note_off_c, 0, 71, 100
2, 332256, Note_on_c, 0, 73, 80
2, 332348, Note_off_c, 0, 73, 100
2, 332352, Note_on_c, 0, 74, 80
2, 332444, Note_off_c, 0, 74, 100
2, 332448, Note_on_c, 0, 76, 80
2, 332540, Note_off_c, 0, 76, 100
2, 332544, Note_on_c, 0, 73, 80
2, 332636, Note_off_c, 0, 73, 100
2, 332640, Note_on_c, 0, 71, 80
2, 332732, Note_off_c, 0, 71, 100
2, 332736, Note_on_c, 0, 69, 80
2, 332828, Note_off_c, 0, 69, 100
2, 332832, Note_on_c, 0, 71, 80
2, 332924, Note_off_c, 0, 71, 100
2, 332928, Note_on_c, 0, 69, 80
2, 332928, Note_on_c, 0, 73, 80
2, 333020, Note_off_c, 0, 69, 100
2, 333020, Note_off_c, 0, 73, 100
2, 333024, Note_on_c, 0, 71, 80
2, 333024, Note_on_c, 0, 74, 80
2, 333116, Note_off_c, 0, 71, 100
2, 333116, Note_off_c, 0, 74, 100
2, 333120, Note_on_c, 0, 73, 80
2, 333120, Note_on_c, 0, 76, 80
2, 333212, Note_off_c, 0, 73, 100
2, 333212, Note_off_c, 0, 76, 100
2, 333216, Note_on_c, 0, 74, 80
2, 333216, Note_on_c, 0, 78, 80
2, 333308, Note_off_c, 0, 74, 100
2, 333308, Note_off_c, 0, 78, 100
2, 333312, Note_on_c, 0, 73, 80
2, 333312, Note_on_c, 0, 76, 80
2, 333404, Note_off_c, 0, 73, 100
2, 333404, Note_off_c, 0, 76, 100
2, 333408, Note_on_c, 0, 71, 80
2, 333408, Note_on_c, 0, 74, 80
2, 333500, Note_off_c, 0, 71, 100
2, 333500, Note_off_c, 0, 74, 100
2, 333504, Note_on_c, 0, 73, 80
2, 333504, Note_on_c, 0, 76, 80
2, 333596, Note_off_c, 0, 73, 100
2, 333596, Note_off_c, 0, 76, 100
2, 333600, Note_on_c, 0, 69, 80
2, 333600, Note_on_c, 0, 73, 80
2, 333692, Note_off_c, 0, 69, 100
2, 333692, Note_off_c, 0, 73, 100
2, 333696, Note_on_c, 0, 71, 80
2, 333788, Note_off_c, 0, 71, 100
2, 333792, Note_on_c, 0, 73, 80
2, 333884, Note_off_c, 0, 73, 100
2, 333888, Note_on_c, 0, 74, 80
2, 333980, Note_off_c, 0, 74, 100
2, 333984, Note_on_c, 0, 76, 80
2, 334076, Note_off_c, 0, 76, 100
2, 334080, Note_on_c, 0, 73, 80
2, 334172, Note_off_c, 0, 73, 100
2, 334176, Note_on_c, 0, 71, 80
2, 334268, Note_off_c, 0, 71, 100
2, 334272, Note_on_c, 0, 69, 80
2, 334364, Note_off_c, 0, 69, 100
2, 334368, Note_on_c, 0, 71, 80
2, 334460, Note_off_c, 0, 71, 100
2, 334464, Note_on_c, 0, 73, 80
2, 334652, Note_off_c, 0, 73, 100
2, 335040, Note_on_c, 0, 88, 80
2, 335228, Note_off_c, 0, 88, 100
2, 335232, Note_on_c, 0, 81, 80
2, 335420, Note_off_c, 0, 81, 100
2, 335808, Note_on_c, 0, 64, 80
2, 335996, Note_off_c, 0, 64, 100
2, 336000, Note_on_c, 0, 57, 80
2, 336188, Note_off_c, 0, 57, 100
2, 337728, Note_on_c, 0, 64, 80
2, 337916, Note_off_c, 0, 64, 100
2, 337920, Note_on_c, 0, 61, 79
2, 338012, Note_off_c, 0, 61, 100
2, 338016, Note_on_c, 0, 62, 79
2, 338108, Note_off_c, 0, 62, 100
2, 338112, Note_on_c, 0, 64, 79
2, 338204, Note_off_c, 0, 64, 100
2, 338208, Note_on_c, 0, 66, 78
2, 338300, Note_off_c, 0, 66, 100
2, 338304, Note_on_c, 0, 62, 78
2, 338492, Note_off_c, 0, 62, 100
2, 338496, Note_on_c, 0, 57, 77
2, 338684, Note_off_c, 0, 57, 100
2, 338688, Note_on_c, 0, 54, 77
2, 338780, Note_off_c, 0, 54, 100
2, 338784, Note_on_c, 0, 57, 76
2, 338876, Note_off_c, 0, 57, 100
2, 338880, Note_on_c, 0, 62, 76
2, 338972, Note_off_c, 0, 62, 100
2, 338976, Note_on_c, 0, 59, 76
2, 339068, Note_off_c, 0, 59, 100
2, 339072, Note_on_c, 0, 56, 75
2, 339260, Note_off_c, 0, 56, 100
2, 339264, Note_on_c, 0, 74, 75
2, 339452, Note_off_c, 0, 74, 100
2, 339456, Note_on_c, 0, 71, 74
2, 339456, Note_on_c, 0, 68, 74
2, 339548, Note_off_c, 0, 71, 100
2, 339552, Note_on_c, 0, 73, 74
2, 339644, Note_off_c, 0, 73, 100
2, 339648, Note_on_c, 0, 74, 73
2, 339740, Note_off_c, 0, 74, 100
2, 339744, Note_on_c, 0, 76, 73
2, 339836, Note_off_c, 0, 68, 100
2, 339836, Note_off_c, 0, 76, 100
2, 339840, Note_on_c, 0, 73, 73
2, 339840, Note_on_c, 0, 69, 73
2, 340028, Note_off_c, 0, 73, 100
2, 340032, Note_on_c, 0, 76, 72
2, 340220, Note_off_c, 0, 76, 100
2, 340224, Note_on_c, 0, 81, 71
2, 340412, Note_off_c, 0, 69, 100
2, 340412, Note_off_c, 0, 81, 100
2, 340800, Note_on_c, 0, 64, 70
2, 340892, Note_off_c, 0, 64, 100
2, 340896, Note_on_c, 0, 62, 70
2, 340988, Note_off_c, 0, 62, 100
2, 340992, Note_on_c, 0, 61, 70
2, 341084, Note_off_c, 0, 61, 100
2, 341088, Note_on_c, 0, 62, 70
2, 341180, Note_off_c, 0, 62, 100
2, 341184, Note_on_c, 0, 64, 70
2, 341276, Note_off_c, 0, 64, 100
2, 341280, Note_on_c, 0, 66, 70
2, 341372, Note_off_c, 0, 66, 100
2, 341376, Note_on_c, 0, 62, 70
2, 341564, Note_off_c, 0, 62, 100
2, 341568, Note_on_c, 0, 57, 70
2, 341660, Note_off_c, 0, 57, 100
2, 341664, Note_on_c, 0, 55, 70
2, 341756, Note_off_c, 0, 55, 100
2, 341760, Note_on_c, 0, 54, 70
2, 341852, Note_off_c, 0, 54, 100
2, 341856, Note_on_c, 0, 57, 70
2, 341948, Note_off_c, 0, 57, 100
2, 341952, Note_on_c, 0, 62, 70
2, 342044, Note_off_c, 0, 62, 100
2, 342048, Note_on_c, 0, 59, 70
2, 342140, Note_off_c, 0, 59, 100
2, 342144, Note_on_c, 0, 56, 70
2, 342332, Note_off_c, 0, 56, 100
2, 342336, Note_on_c, 0, 74, 70
2, 342428, Note_off_c, 0, 74, 100
2, 342432, Note_on_c, 0, 73, 70
2, 342524, Note_off_c, 0, 73, 100
2, 342528, Note_on_c, 0, 68, 70
2, 342528, Note_on_c, 0, 71, 70
2, 342620, Note_off_c, 0, 71, 100
2, 342624, Note_on_c, 0, 73, 70
2, 342716, Note_off_c, 0, 73, 100
2, 342720, Note_on_c, 0, 74, 70
2, 342812, Note_off_c, 0, 74, 100
2, 342816, Note_on_c, 0, 76, 70
2, 342908, Note_off_c, 0, 68, 100
2, 342908, Note_off_c, 0, 76, 100
2, 342912, Note_on_c, 0, 73, 70
2, 342912, Note_on_c, 0, 69, 70
2, 343100, Note_off_c, 0, 73, 100
2, 343104, Note_on_c, 0, 76, 70
2, 343292, Note_off_c, 0, 76, 100
2, 343296, Note_on_c, 0, 81, 70
2, 343484, Note_off_c, 0, 69, 100
2, 343484, Note_off_c, 0, 81, 100
2, 343680, Note_on_c, 0, 68, 70
2, 343872, Note_on_c, 0, 74, 70
2, 343964, Note_off_c, 0, 74, 100
2, 343968, Note_on_c, 0, 73, 70
2, 344060, Note_off_c, 0, 73, 100
2, 344064, Note_on_c, 0, 71, 70
2, 344156, Note_off_c, 0, 71, 100
2, 344160, Note_on_c, 0, 73, 70
2, 344252, Note_off_c, 0, 73, 100
2, 344256, Note_on_c, 0, 74, 70
2, 344348, Note_off_c, 0, 74, 100
2, 344352, Note_on_c, 0, 76, 70
2, 344444, Note_off_c, 0, 68, 100
2, 344444, Note_off_c, 0, 76, 100
2, 344448, Note_on_c, 0, 73, 70
2, 344448, Note_on_c, 0, 69, 70
2, 344636, Note_off_c, 0, 73, 100
2, 344640, Note_on_c, 0, 76, 70
2, 344828, Note_off_c, 0, 76, 100
2, 344832, Note_on_c, 0, 81, 70
2, 345020, Note_off_c, 0, 69, 100
2, 345020, Note_off_c, 0, 81, 100
2, 345216, Note_on_c, 0, 68, 70
2, 345408, Note_on_c, 0, 74, 70
2, 345500, Note_off_c, 0, 74, 100
2, 345504, Note_on_c, 0, 73, 70
2, 345596, Note_off_c, 0, 73, 100
2, 345600, Note_on_c, 0, 71, 70
2, 345692, Note_off_c, 0, 71, 100
2, 345696, Note_on_c, 0, 73, 70
2, 345788, Note_off_c, 0, 73, 100
2, 345792, Note_on_c, 0, 74, 70
2, 345884, Note_off_c, 0, 74, 100
2, 345888, Note_on_c, 0, 76, 70
2, 345980, Note_off_c, 0, 68, 100
2, 345980, Note_off_c, 0, 76, 100
2, 345984, Note_on_c, 0, 61, 125
2, 345984, Note_on_c, 0, 64, 125
2, 345984, Note_on_c, 0, 69, 125
2, 346172, Note_off_c, 0, 61, 100
2, 346172, Note_off_c, 0, 64, 100
2, 346172, Note_off_c, 0, 69, 100
2, 346176, Note_on_c, 0, 64, 125
2, 346176, Note_on_c, 0, 69, 125
2, 346176, Note_on_c, 0, 73, 125
2, 346364, Note_off_c, 0, 64, 100
2, 346364, Note_off_c, 0, 69, 100
2, 346364, Note_off_c, 0, 73, 100
2, 346368, Note_on_c, 0, 69, 125
2, 346368, Note_on_c, 0, 73, 125
2, 346368, Note_on_c, 0, 76, 125
2, 346556, Note_off_c, 0, 69, 100
2, 346556, Note_off_c, 0, 73, 100
2, 346556, Note_off_c, 0, 76, 100
2, 346560, Note_on_c, 0, 69, 125
2, 346560, Note_on_c, 0, 73, 125
2, 346560, Note_on_c, 0, 76, 125
2, 346560, Note_on_c, 0, 81, 125
2, 346748, Note_off_c, 0, 69, 100
2, 346748, Note_off_c, 0, 73, 100
2, 346748, Note_off_c, 0, 76, 100
2, 346748, Note_off_c, 0, 81, 100
2, 346752, Note_on_c, 0, 85, 125
2, 346752, Note_on_c, 0, 73, 125
2, 346752, Note_on_c, 0, 76, 125
2, 346752, Note_on_c, 0, 81, 125
2, 347132, Note_off_c, 0, 85, 100
2, 347132, Note_off_c, 0, 73, 100
2, 347132, Note_off_c, 0, 76, 100
2, 347132, Note_off_c, 0, 81, 100
2, 347136, Note_on_c, 0, 76, 125
2, 347136, Note_on_c, 0, 81, 125
2, 347136, Note_on_c, 0, 85, 125
2, 347136, Note_on_c, 0, 88, 125
2, 347516, Note_off_c, 0, 76, 100
2, 347516, Note_off_c, 0, 81, 100
2, 347516, Note_off_c, 0, 85, 100
2, 347516, Note_off_c, 0, 88, 100
2, 347520, Note_on_c, 0, 81, 125
2, 347520, Note_on_c, 0, 85, 125
2, 347520, Note_on_c, 0, 88, 125
2, 347520, Note_on_c, 0, 93, 125
2, 348668, Note_off_c, 0, 93, 64
2, 348668, Note_off_c, 0, 88, 64
2, 348668, Note_off_c, 0, 85, 64
2, 348668, Note_off_c, 0, 81, 64
2, 349824, Control_c, 0, 7, 0
2, 350208, Note_on_c, 0, 69, 1
2, 350588, Note_off_c, 0, 69, 100
2, 350588, End_track
3, 0, Start_track
3, 0, Title_t, "Left"
3, 0, Control_c, 1, 0, 0
3, 0, Program_c, 1, 0
3, 0, Control_c, 1, 10, 56
3, 0, Control_c, 1, 91, 127
3, 0, Note_on_c, 1, 32, 80
3, 0, Note_on_c, 1, 44, 80
3, 0, Control_c, 1, 0, 0
3, 188, Note_off_c, 1, 32, 100
3, 188, Note_off_c, 1, 44, 100
3, 192, Note_on_c, 1, 35, 80
3, 192, Note_on_c, 1, 47, 80
3, 380, Note_off_c, 1, 35, 100
3, 380, Note_off_c, 1, 47, 100
3, 384, Note_on_c, 1, 33, 80
3, 384, Note_on_c, 1, 45, 80
3, 764, Note_off_c, 1, 33, 100
3, 764, Note_off_c, 1, 45, 100
3, 768, Note_on_c, 1, 35, 80
3, 768, Note_on_c, 1, 47, 80
3, 956, Note_off_c, 1, 35, 100
3, 956, Note_off_c, 1, 47, 100
3, 960, Note_on_c, 1, 38, 80
3, 960, Note_on_c, 1, 50, 80
3, 1148, Note_off_c, 1, 38, 100
3, 1148, Note_off_c, 1, 50, 100
3, 1152, Note_on_c, 1, 36, 80
3, 1152, Note_on_c, 1, 48, 80
3, 1340, Note_off_c, 1, 36, 100
3, 1340, Note_off_c, 1, 48, 100
3, 1344, Note_on_c, 1, 33, 80
3, 1344, Note_on_c, 1, 45, 80
3, 1532, Note_off_c, 1, 33, 100
3, 1532, Note_off_c, 1, 45, 100
3, 1536, Note_on_c, 1, 41, 80
3, 1536, Note_on_c, 1, 53, 80
3, 1820, Note_off_c, 1, 41, 100
3, 1820, Note_off_c, 1, 53, 100
3, 1824, Note_on_c, 1, 40, 80
3, 1824, Note_on_c, 1, 52, 80
3, 1916, Note_off_c, 1, 40, 100
3, 1916, Note_off_c, 1, 52, 100
3, 1920, Note_on_c, 1, 50, 80
3, 1920, Note_on_c, 1, 38, 80
3, 2204, Note_off_c, 1, 50, 100
3, 2204, Note_off_c, 1, 38, 100
3, 2208, Note_on_c, 1, 36, 80
3, 2208, Note_on_c, 1, 48, 80
3, 2300, Note_off_c, 1, 36, 100
3, 2300, Note_off_c, 1, 48, 100
3, 2304, Note_on_c, 1, 35, 80
3, 2304, Note_on_c, 1, 47, 80
3, 2492, Note_off_c, 1, 35, 100
3, 2492, Note_off_c, 1, 47, 100
3, 2496, Note_on_c, 1, 33, 80
3, 2496, Note_on_c, 1, 45, 80
3, 2684, Note_off_c, 1, 33, 100
3, 2684, Note_off_c, 1, 45, 100
3, 2688, Note_on_c, 1, 28, 80
3, 2688, Note_on_c, 1, 40, 80
3, 3068, Note_off_c, 1, 28, 100
3, 3068, Note_off_c, 1, 40, 100
3, 3072, Note_on_c, 1, 40, 80
3, 3072, Note_on_c, 1, 52, 80
3, 3260, Note_off_c, 1, 40, 100
3, 3260, Note_off_c, 1, 52, 100
3, 3264, Note_on_c, 1, 38, 80
3, 3264, Note_on_c, 1, 50, 80
3, 3452, Note_off_c, 1, 38, 100
3, 3452, Note_off_c, 1, 50, 100
3, 3456, Note_on_c, 1, 36, 80
3, 3456, Note_on_c, 1, 48, 80
3, 3644, Note_off_c, 1, 36, 100
3, 3644, Note_off_c, 1, 48, 100
3, 3648, Note_on_c, 1, 34, 80
3, 3648, Note_on_c, 1, 46, 80
3, 3836, Note_off_c, 1, 34, 100
3, 3836, Note_off_c, 1, 46, 100
3, 3840, Note_on_c, 1, 33, 80
3, 3840, Note_on_c, 1, 45, 80
3, 4028, Note_off_c, 1, 33, 100
3, 4028, Note_off_c, 1, 45, 100
3, 4032, Note_on_c, 1, 32, 80
3, 4032, Note_on_c, 1, 44, 80
3, 4220, Note_off_c, 1, 32, 100
3, 4220, Note_off_c, 1, 44, 100
3, 4224, Note_on_c, 1, 31, 80
3, 4224, Note_on_c, 1, 43, 80
3, 4604, Note_off_c, 1, 31, 100
3, 4604, Note_off_c, 1, 43, 100
3, 4608, Note_on_c, 1, 31, 80
3, 4608, Note_on_c, 1, 43, 80
3, 5180, Note_off_c, 1, 31, 100
3, 5180, Note_off_c, 1, 43, 100
3, 5184, Note_on_c, 1, 43, 80
3, 5184, Note_on_c, 1, 52, 80
3, 5276, Note_off_c, 1, 43, 100
3, 5276, Note_off_c, 1, 52, 100
3, 5280, Note_on_c, 1, 41, 80
3, 5280, Note_on_c, 1, 50, 80
3, 5372, Note_off_c, 1, 41, 100
3, 5372, Note_off_c, 1, 50, 100
3, 5376, Note_on_c, 1, 40, 80
3, 5376, Note_on_c, 1, 52, 80
3, 5564, Note_off_c, 1, 40, 100
3, 5564, Note_off_c, 1, 52, 100
3, 5568, Note_on_c, 1, 38, 80
3, 5568, Note_on_c, 1, 50, 80
3, 5660, Note_off_c, 1, 38, 100
3, 5664, Note_on_c, 1, 43, 80
3, 5756, Note_off_c, 1, 50, 100
3, 5756, Note_off_c, 1, 43, 100
3, 5760, Note_on_c, 1, 43, 80
3, 5760, Note_on_c, 1, 50, 80
3, 5948, Note_off_c, 1, 43, 100
3, 5948, Note_off_c, 1, 50, 100
3, 5952, Note_on_c, 1, 36, 80
3, 5952, Note_on_c, 1, 48, 80
3, 6044, Note_off_c, 1, 36, 100
3, 6044, Note_off_c, 1, 48, 100
3, 6144, Note_on_c, 1, 43, 80
3, 6524, Note_off_c, 1, 43, 100
3, 6528, Note_on_c, 1, 43, 80
3, 6620, Note_off_c, 1, 43, 100
3, 6624, Note_on_c, 1, 45, 80
3, 6652, Note_off_c, 1, 45, 100
3, 6656, Note_on_c, 1, 43, 80
3, 6684, Note_off_c, 1, 43, 100
3, 6688, Note_on_c, 1, 42, 80
3, 6716, Note_off_c, 1, 42, 100
3, 6720, Note_on_c, 1, 43, 80
3, 6812, Note_off_c, 1, 43, 100
3, 6816, Note_on_c, 1, 52, 80
3, 6908, Note_off_c, 1, 52, 100
3, 6912, Note_on_c, 1, 47, 80
3, 6912, Note_on_c, 1, 55, 80
3, 7100, Note_off_c, 1, 47, 100
3, 7104, Note_on_c, 1, 50, 80
3, 7292, Note_off_c, 1, 55, 100
3, 7292, Note_off_c, 1, 50, 100
3, 7296, Note_on_c, 1, 48, 80
3, 7296, Note_on_c, 1, 55, 80
3, 7676, Note_off_c, 1, 48, 100
3, 7676, Note_off_c, 1, 55, 100
3, 7680, Note_on_c, 1, 55, 80
3, 8060, Note_off_c, 1, 55, 100
3, 8064, Note_on_c, 1, 55, 80
3, 8156, Note_off_c, 1, 55, 100
3, 8160, Note_on_c, 1, 57, 80
3, 8188, Note_off_c, 1, 57, 100
3, 8192, Note_on_c, 1, 55, 80
3, 8220, Note_off_c, 1, 55, 100
3, 8224, Note_on_c, 1, 54, 80
3, 8252, Note_off_c, 1, 54, 100
3, 8256, Note_on_c, 1, 55, 80
3, 8348, Note_off_c, 1, 55, 100
3, 8352, Note_on_c, 1, 64, 80
3, 8444, Note_off_c, 1, 64, 100
3, 8448, Note_on_c, 1, 48, 80
3, 8492, Note_off_c, 1, 48, 100
3, 8496, Note_on_c, 1, 64, 80
3, 8828, Note_off_c, 1, 64, 100
3, 8832, Note_on_c, 1, 55, 80
3, 8924, Note_off_c, 1, 55, 100
3, 8928, Note_on_c, 1, 57, 80
3, 8956, Note_off_c, 1, 57, 100
3, 8960, Note_on_c, 1, 55, 80
3, 8988, Note_off_c, 1, 55, 100
3, 8992, Note_on_c, 1, 54, 80
3, 9020, Note_off_c, 1, 54, 100
3, 9024, Note_on_c, 1, 55, 80
3, 9116, Note_off_c, 1, 55, 100
3, 9120, Note_on_c, 1, 64, 80
3, 9212, Note_off_c, 1, 64, 100
3, 9216, Note_on_c, 1, 47, 80
3, 9248, Note_on_c, 1, 64, 80
3, 9260, Note_off_c, 1, 47, 100
3, 9596, Note_off_c, 1, 64, 100
3, 9600, Note_on_c, 1, 55, 80
3, 9692, Note_off_c, 1, 55, 100
3, 9696, Note_on_c, 1, 57, 80
3, 9724, Note_off_c, 1, 57, 100
3, 9728, Note_on_c, 1, 55, 80
3, 9756, Note_off_c, 1, 55, 100
3, 9760, Note_on_c, 1, 54, 80
3, 9788, Note_off_c, 1, 54, 100
3, 9792, Note_on_c, 1, 55, 80
3, 9884, Note_off_c, 1, 55, 100
3, 9888, Note_on_c, 1, 64, 80
3, 9980, Note_off_c, 1, 64, 100
3, 9984, Note_on_c, 1, 46, 80
3, 10004, Note_off_c, 1, 46, 100
3, 10016, Note_on_c, 1, 64, 80
3, 10080, Note_on_c, 1, 61, 80
3, 10084, Note_off_c, 1, 64, 100
3, 10172, Note_off_c, 1, 61, 100
3, 10176, Note_on_c, 1, 58, 80
3, 10268, Note_off_c, 1, 58, 100
3, 10272, Note_on_c, 1, 55, 80
3, 10364, Note_off_c, 1, 55, 100
3, 10368, Control_c, 1, 64, 127
3, 10368, Note_on_c, 1, 45, 80
3, 10368, Note_on_c, 1, 54, 80
3, 10460, Note_off_c, 1, 54, 100
3, 10464, Note_on_c, 1, 57, 80
3, 10556, Note_off_c, 1, 45, 100
3, 10556, Note_off_c, 1, 57, 100
3, 10560, Note_on_c, 1, 60, 80
3, 10652, Note_off_c, 1, 60, 100
3, 10656, Note_on_c, 1, 63, 80
3, 10744, Control_c, 1, 64, 0
3, 10748, Note_off_c, 1, 63, 100
3, 10752, Note_on_c, 1, 43, 80
3, 10772, Note_off_c, 1, 43, 100
3, 10776, Note_on_c, 1, 62, 80
3, 10844, Note_off_c, 1, 62, 100
3, 10848, Note_on_c, 1, 59, 80
3, 10940, Note_off_c, 1, 59, 100
3, 10944, Note_on_c, 1, 56, 80
3, 11036, Note_off_c, 1, 56, 100
3, 11040, Note_on_c, 1, 53, 80
3, 11132, Note_off_c, 1, 53, 100
3, 11136, Control_c, 1, 64, 127
3, 11136, Note_on_c, 1, 43, 80
3, 11136, Note_on_c, 1, 52, 80
3, 11228, Note_off_c, 1, 52, 100
3, 11232, Note_on_c, 1, 55, 80
3, 11324, Note_off_c, 1, 43, 100
3, 11324, Note_off_c, 1, 55, 100
3, 11328, Note_on_c, 1, 58, 80
3, 11420, Note_off_c, 1, 58, 100
3, 11424, Note_on_c, 1, 61, 80
3, 11512, Control_c, 1, 64, 0
3, 11516, Note_off_c, 1, 61, 100
3, 11520, Note_on_c, 1, 41, 80
3, 11564, Note_off_c, 1, 41, 100
3, 11568, Note_on_c, 1, 60, 80
3, 11612, Note_off_c, 1, 60, 100
3, 11616, Note_on_c, 1, 57, 80
3, 11708, Note_off_c, 1, 57, 100
3, 11712, Note_on_c, 1, 54, 80
3, 11804, Note_off_c, 1, 54, 100
3, 11808, Note_on_c, 1, 51, 80
3, 11900, Note_off_c, 1, 51, 100
3, 11904, Control_c, 1, 64, 127
3, 11904, Note_on_c, 1, 41, 80
3, 11904, Note_on_c, 1, 50, 80
3, 12000, Note_on_c, 1, 53, 80
3, 12020, Note_off_c, 1, 50, 100
3, 12092, Note_off_c, 1, 41, 100
3, 12096, Note_on_c, 1, 56, 80
3, 12124, Note_off_c, 1, 53, 100
3, 12192, Note_on_c, 1, 59, 80
3, 12224, Note_off_c, 1, 56, 100
3, 12280, Control_c, 1, 64, 0
3, 12288, Control_c, 1, 64, 127
3, 12288, Note_on_c, 1, 40, 80
3, 12288, Note_on_c, 1, 50, 80
3, 12328, Note_off_c, 1, 59, 64
3, 12384, Note_on_c, 1, 52, 80
3, 12428, Note_off_c, 1, 50, 100
3, 12476, Note_off_c, 1, 40, 100
3, 12480, Note_on_c, 1, 56, 80
3, 12516, Note_off_c, 1, 52, 100
3, 12576, Note_on_c, 1, 59, 80
3, 12604, Note_off_c, 1, 56, 100
3, 12664, Control_c, 1, 64, 0
3, 12672, Note_on_c, 1, 40, 80
3, 12672, Note_on_c, 1, 48, 80
3, 12696, Note_off_c, 1, 59, 100
3, 12768, Note_on_c, 1, 52, 80
3, 12792, Note_off_c, 1, 48, 100
3, 12860, Note_off_c, 1, 40, 100
3, 12864, Note_on_c, 1, 56, 80
3, 12888, Note_off_c, 1, 52, 100
3, 12960, Note_on_c, 1, 57, 80
3, 12988, Note_off_c, 1, 56, 100
3, 13056, Note_on_c, 1, 47, 80
3, 13056, Note_on_c, 1, 40, 80
3, 13080, Note_off_c, 1, 57, 64
3, 13152, Note_on_c, 1, 50, 80
3, 13188, Note_off_c, 1, 47, 100
3, 13244, Note_off_c, 1, 40, 100
3, 13248, Note_on_c, 1, 52, 80
3, 13288, Note_off_c, 1, 50, 100
3, 13344, Note_on_c, 1, 56, 80
3, 13380, Note_off_c, 1, 52, 100
3, 13440, Note_on_c, 1, 45, 80
3, 13440, Note_on_c, 1, 40, 80
3, 13476, Note_off_c, 1, 56, 100
3, 13536, Note_on_c, 1, 48, 80
3, 13572, Note_off_c, 1, 45, 100
3, 13628, Note_off_c, 1, 40, 100
3, 13632, Note_on_c, 1, 51, 80
3, 13676, Note_off_c, 1, 48, 100
3, 13728, Note_on_c, 1, 52, 80
3, 13772, Note_off_c, 1, 51, 100
3, 13824, Control_c, 1, 64, 127
3, 13824, Note_on_c, 1, 42, 80
3, 13824, Note_on_c, 1, 40, 80
3, 13852, Note_off_c, 1, 52, 64
3, 13916, Note_off_c, 1, 42, 100
3, 13920, Note_on_c, 1, 45, 80
3, 14012, Note_off_c, 1, 45, 100
3, 14016, Note_on_c, 1, 48, 80
3, 14108, Note_off_c, 1, 48, 100
3, 14112, Note_on_c, 1, 51, 80
3, 14204, Note_off_c, 1, 51, 100
3, 14208, Note_on_c, 1, 54, 80
3, 14300, Note_off_c, 1, 54, 100
3, 14304, Note_on_c, 1, 57, 80
3, 14396, Note_off_c, 1, 57, 100
3, 14400, Note_on_c, 1, 60, 80
3, 14492, Note_off_c, 1, 40, 100
3, 14492, Note_off_c, 1, 60, 100
3, 14496, Note_on_c, 1, 47, 80
3, 14496, Note_on_c, 1, 52, 80
3, 14496, Note_on_c, 1, 40, 80
3, 14496, Note_on_c, 1, 44, 80
3, 14496, Note_on_c, 1, 59, 80
3, 14584, Control_c, 1, 64, 0
3, 14588, Note_off_c, 1, 47, 100
3, 14588, Note_off_c, 1, 52, 100
3, 14588, Note_off_c, 1, 40, 100
3, 14588, Note_off_c, 1, 44, 100
3, 14588, Note_off_c, 1, 59, 100
3, 14592, Note_on_c, 1, 40, 80
3, 14592, Note_on_c, 1, 44, 80
3, 14592, Note_on_c, 1, 47, 80
3, 14592, Note_on_c, 1, 52, 80
3, 15356, Note_off_c, 1, 40, 100
3, 15356, Note_off_c, 1, 44, 100
3, 15356, Note_off_c, 1, 47, 100
3, 15356, Note_off_c, 1, 52, 100
3, 16704, Control_c, 1, 64, 127
3, 16848, Note_on_c, 1, 47, 80
3, 16896, Note_on_c, 1, 44, 80
3, 16984, Note_off_c, 1, 47, 64
3, 16992, Note_on_c, 1, 40, 80
3, 17088, Note_on_c, 1, 44, 80
3, 17184, Note_on_c, 1, 47, 80
3, 17204, Note_off_c, 1, 44, 100
3, 17280, Note_on_c, 1, 52, 80
3, 17376, Note_on_c, 1, 56, 80
3, 17380, Note_off_c, 1, 40, 100
3, 17444, Note_off_c, 1, 44, 100
3, 17472, Note_on_c, 1, 59, 80
3, 17508, Note_off_c, 1, 47, 100
3, 17568, Note_on_c, 1, 64, 80
3, 17624, Note_off_c, 1, 52, 100
3, 17656, Control_c, 1, 64, 0
3, 17660, Note_off_c, 1, 56, 100
3, 17660, Note_off_c, 1, 59, 100
3, 17660, Note_off_c, 1, 64, 100
3, 17664, Note_on_c, 1, 40, 80
3, 17664, Note_on_c, 1, 52, 80
3, 18044, Note_off_c, 1, 52, 100
3, 18048, Note_on_c, 1, 51, 80
3, 18236, Note_off_c, 1, 51, 100
3, 18240, Note_on_c, 1, 50, 80
3, 18620, Note_off_c, 1, 50, 100
3, 18624, Note_on_c, 1, 49, 80
3, 18812, Note_off_c, 1, 49, 100
3, 18816, Note_on_c, 1, 47, 80
3, 19388, Note_off_c, 1, 40, 64
3, 19388, Note_off_c, 1, 47, 100
3, 19392, Note_on_c, 1, 40, 80
3, 19392, Note_on_c, 1, 52, 80
3, 19772, Note_off_c, 1, 40, 100
3, 19772, Note_off_c, 1, 52, 100
3, 19968, Note_on_c, 1, 66, 80
3, 20348, Note_off_c, 1, 66, 100
3, 20352, Note_on_c, 1, 64, 80
3, 20540, Note_off_c, 1, 64, 100
3, 20544, Note_on_c, 1, 57, 80
3, 20544, Note_on_c, 1, 62, 80
3, 20924, Note_off_c, 1, 62, 100
3, 20928, Note_on_c, 1, 61, 80
3, 21116, Note_off_c, 1, 57, 100
3, 21116, Note_off_c, 1, 61, 100
3, 21120, Note_on_c, 1, 49, 80
3, 21120, Note_on_c, 1, 61, 80
3, 21500, Note_off_c, 1, 49, 100
3, 21504, Note_on_c, 1, 50, 80
3, 21692, Note_off_c, 1, 50, 100
3, 21696, Note_on_c, 1, 52, 80
3, 21884, Note_off_c, 1, 61, 100
3, 21888, Note_on_c, 1, 57, 80
3, 22076, Note_off_c, 1, 57, 100
3, 22080, Note_on_c, 1, 56, 80
3, 22268, Note_off_c, 1, 52, 100
3, 22268, Note_off_c, 1, 56, 100
3, 22656, Note_on_c, 1, 61, 80
3, 22848, Note_on_c, 1, 52, 80
3, 23036, Note_off_c, 1, 61, 100
3, 23040, Note_on_c, 1, 57, 80
3, 23228, Note_off_c, 1, 57, 100
3, 23232, Note_on_c, 1, 56, 80
3, 23420, Note_off_c, 1, 52, 100
3, 23420, Note_off_c, 1, 56, 100
3, 23808, Note_on_c, 1, 62, 80
3, 24188, Note_off_c, 1, 62, 100
3, 24192, Note_on_c, 1, 59, 86
3, 24380, Note_off_c, 1, 59, 100
3, 24384, Note_on_c, 1, 57, 89
3, 24572, Note_off_c, 1, 57, 100
3, 24576, Note_on_c, 1, 66, 93
3, 24764, Note_off_c, 1, 66, 100
3, 24768, Note_on_c, 1, 62, 96
3, 24956, Note_off_c, 1, 62, 100
3, 24960, Note_on_c, 1, 61, 99
3, 25148, Note_off_c, 1, 61, 100
3, 25152, Note_on_c, 1, 69, 103
3, 25340, Note_off_c, 1, 69, 100
3, 25344, Note_on_c, 1, 66, 106
3, 25532, Note_off_c, 1, 66, 100
3, 25536, Note_on_c, 1, 64, 109
3, 25724, Note_off_c, 1, 64, 100
3, 25728, Note_on_c, 1, 64, 110
3, 25728, Note_on_c, 1, 68, 110
3, 25728, Note_on_c, 1, 71, 110
3, 25728, Note_on_c, 1, 74, 110
3, 26108, Note_off_c, 1, 64, 100
3, 26108, Note_off_c, 1, 68, 100
3, 26108, Note_off_c, 1, 71, 100
3, 26108, Note_off_c, 1, 74, 100
3, 29376, Note_on_c, 1, 64, 91
3, 29376, Note_on_c, 1, 68, 91
3, 29376, Note_on_c, 1, 71, 91
3, 29376, Note_on_c, 1, 74, 91
3, 29564, Note_off_c, 1, 64, 100
3, 29564, Note_off_c, 1, 68, 100
3, 29564, Note_off_c, 1, 71, 100
3, 29564, Note_off_c, 1, 74, 100
3, 29568, Note_on_c, 1, 52, 92
3, 29568, Note_on_c, 1, 56, 92
3, 29568, Note_on_c, 1, 59, 92
3, 29568, Note_on_c, 1, 62, 92
3, 29948, Note_off_c, 1, 52, 100
3, 29948, Note_off_c, 1, 56, 100
3, 29948, Note_off_c, 1, 59, 100
3, 29948, Note_off_c, 1, 62, 100
3, 30912, Note_on_c, 1, 52, 103
3, 30912, Note_on_c, 1, 56, 103
3, 30912, Note_on_c, 1, 59, 103
3, 30912, Note_on_c, 1, 62, 103
3, 31100, Note_off_c, 1, 52, 100
3, 31100, Note_off_c, 1, 56, 100
3, 31100, Note_off_c, 1, 59, 100
3, 31100, Note_off_c, 1, 62, 100
3, 31104, Note_on_c, 1, 40, 105
3, 31104, Note_on_c, 1, 44, 105
3, 31104, Note_on_c, 1, 47, 105
3, 31104, Note_on_c, 1, 50, 105
3, 31484, Note_off_c, 1, 40, 100
3, 31484, Note_off_c, 1, 44, 100
3, 31484, Note_off_c, 1, 47, 100
3, 31484, Note_off_c, 1, 50, 100
3, 31680, Note_on_c, 1, 40, 110
3, 31680, Note_on_c, 1, 52, 110
3, 31868, Note_off_c, 1, 40, 100
3, 31868, Note_off_c, 1, 52, 100
3, 31872, Note_on_c, 1, 45, 110
3, 31872, Note_on_c, 1, 57, 110
3, 32060, Note_off_c, 1, 45, 100
3, 32060, Note_off_c, 1, 57, 100
3, 32064, Note_on_c, 1, 71, 110
3, 32064, Note_on_c, 1, 59, 110
3, 32252, Note_off_c, 1, 71, 100
3, 32252, Note_off_c, 1, 59, 100
3, 32256, Note_on_c, 1, 57, 110
3, 32256, Note_on_c, 1, 69, 110
3, 32732, Note_off_c, 1, 69, 64
3, 32732, Note_off_c, 1, 57, 64
3, 32736, Note_on_c, 1, 59, 110
3, 32828, Note_off_c, 1, 59, 100
3, 32832, Note_on_c, 1, 61, 110
3, 32924, Note_off_c, 1, 61, 100
3, 32928, Note_on_c, 1, 62, 110
3, 33020, Note_off_c, 1, 62, 100
3, 33024, Note_on_c, 1, 56, 110
3, 33404, Note_off_c, 1, 56, 100
3, 33600, Note_on_c, 1, 56, 110
3, 33600, Note_on_c, 1, 68, 110
3, 33788, Note_off_c, 1, 56, 100
3, 33788, Note_off_c, 1, 68, 100
3, 33792, Note_on_c, 1, 66, 110
3, 33792, Note_on_c, 1, 54, 110
3, 34268, Note_off_c, 1, 54, 64
3, 34268, Note_off_c, 1, 66, 64
3, 34272, Note_on_c, 1, 56, 110
3, 34364, Note_off_c, 1, 56, 100
3, 34368, Note_on_c, 1, 57, 110
3, 34460, Note_off_c, 1, 57, 100
3, 34464, Note_on_c, 1, 59, 110
3, 34556, Note_off_c, 1, 59, 100
3, 34560, Note_on_c, 1, 52, 110
3, 34748, Note_off_c, 1, 52, 100
3, 34752, Note_on_c, 1, 64, 80
3, 34752, Note_on_c, 1, 76, 80
3, 35132, Note_off_c, 1, 76, 64
3, 35132, Note_off_c, 1, 64, 64
3, 35136, Note_on_c, 1, 64, 80
3, 35136, Note_on_c, 1, 74, 80
3, 35516, Note_off_c, 1, 64, 100
3, 35516, Note_off_c, 1, 74, 100
3, 35520, Note_on_c, 1, 64, 80
3, 35520, Note_on_c, 1, 71, 80
3, 35900, Note_off_c, 1, 71, 64
3, 35900, Note_off_c, 1, 64, 64
3, 35904, Note_on_c, 1, 64, 80
3, 35904, Note_on_c, 1, 69, 80
3, 36284, Note_off_c, 1, 64, 100
3, 36284, Note_off_c, 1, 69, 100
3, 36288, Note_on_c, 1, 64, 80
3, 36288, Note_on_c, 1, 68, 80
3, 36476, Note_off_c, 1, 64, 100
3, 36476, Note_off_c, 1, 68, 100
3, 36480, Note_on_c, 1, 69, 80
3, 36668, Note_off_c, 1, 69, 100
3, 36672, Note_on_c, 1, 68, 80
3, 36860, Note_off_c, 1, 68, 100
3, 36864, Note_on_c, 1, 66, 80
3, 37052, Note_off_c, 1, 66, 100
3, 37056, Note_on_c, 1, 59, 80
3, 37056, Note_on_c, 1, 71, 80
3, 37244, Note_off_c, 1, 59, 100
3, 37244, Note_off_c, 1, 71, 100
3, 37248, Note_on_c, 1, 59, 80
3, 37248, Note_on_c, 1, 71, 80
3, 37628, Note_off_c, 1, 59, 100
3, 37628, Note_off_c, 1, 71, 100
3, 37632, Note_on_c, 1, 64, 80
3, 37632, Note_on_c, 1, 71, 80
3, 37820, Note_off_c, 1, 64, 100
3, 37820, Note_off_c, 1, 71, 100
3, 37824, Note_on_c, 1, 52, 110
3, 37824, Note_on_c, 1, 64, 110
3, 38012, Note_off_c, 1, 52, 100
3, 38012, Note_off_c, 1, 64, 100
3, 38016, Note_on_c, 1, 49, 110
3, 38016, Note_on_c, 1, 61, 110
3, 38492, Note_off_c, 1, 49, 100
3, 38492, Note_off_c, 1, 61, 100
3, 38496, Note_on_c, 1, 62, 110
3, 38588, Note_off_c, 1, 62, 100
3, 38592, Note_on_c, 1, 64, 110
3, 38684, Note_off_c, 1, 64, 100
3, 38688, Note_on_c, 1, 66, 110
3, 38780, Note_off_c, 1, 66, 100
3, 38784, Note_on_c, 1, 47, 110
3, 38784, Note_on_c, 1, 59, 110
3, 39164, Note_off_c, 1, 47, 100
3, 39164, Note_off_c, 1, 59, 100
3, 39360, Note_on_c, 1, 52, 110
3, 39360, Note_on_c, 1, 64, 110
3, 39548, Note_off_c, 1, 52, 100
3, 39548, Note_off_c, 1, 64, 100
3, 39552, Note_on_c, 1, 45, 110
3, 39552, Note_on_c, 1, 57, 110
3, 40028, Note_off_c, 1, 45, 100
3, 40028, Note_off_c, 1, 57, 100
3, 40032, Note_on_c, 1, 59, 110
3, 40124, Note_off_c, 1, 59, 100
3, 40128, Note_on_c, 1, 61, 110
3, 40220, Note_off_c, 1, 61, 100
3, 40224, Note_on_c, 1, 62, 110
3, 40316, Note_off_c, 1, 62, 100
3, 40320, Note_on_c, 1, 44, 110
3, 40320, Note_on_c, 1, 56, 110
3, 40700, Note_off_c, 1, 44, 100
3, 40700, Note_off_c, 1, 56, 100
3, 40896, Note_on_c, 1, 52, 80
3, 41084, Note_off_c, 1, 52, 100
3, 41088, Note_on_c, 1, 54, 80
3, 41180, Note_off_c, 1, 54, 100
3, 41184, Note_on_c, 1, 56, 80
3, 41276, Note_off_c, 1, 56, 100
3, 41280, Note_on_c, 1, 57, 80
3, 41372, Note_off_c, 1, 57, 100
3, 41376, Note_on_c, 1, 59, 80
3, 41468, Note_off_c, 1, 59, 100
3, 41472, Note_on_c, 1, 57, 80
3, 41564, Note_off_c, 1, 57, 100
3, 41568, Note_on_c, 1, 56, 80
3, 41660, Note_off_c, 1, 56, 100
3, 41664, Note_on_c, 1, 54, 80
3, 41756, Note_off_c, 1, 54, 100
3, 41760, Note_on_c, 1, 56, 80
3, 41852, Note_off_c, 1, 56, 100
3, 41856, Note_on_c, 1, 57, 80
3, 41948, Note_off_c, 1, 57, 100
3, 41952, Note_on_c, 1, 59, 80
3, 42044, Note_off_c, 1, 59, 100
3, 42048, Note_on_c, 1, 61, 80
3, 42140, Note_off_c, 1, 61, 100
3, 42144, Note_on_c, 1, 62, 80
3, 42236, Note_off_c, 1, 62, 100
3, 42240, Note_on_c, 1, 61, 80
3, 42332, Note_off_c, 1, 61, 100
3, 42336, Note_on_c, 1, 59, 80
3, 42428, Note_off_c, 1, 59, 100
3, 42432, Note_on_c, 1, 57, 80
3, 42524, Note_off_c, 1, 57, 100
3, 42528, Note_on_c, 1, 59, 80
3, 42620, Note_off_c, 1, 59, 100
3, 42624, Note_on_c, 1, 61, 80
3, 42716, Note_off_c, 1, 61, 100
3, 42720, Note_on_c, 1, 62, 80
3, 42812, Note_off_c, 1, 62, 100
3, 42816, Note_on_c, 1, 64, 80
3, 42908, Note_off_c, 1, 64, 100
3, 42912, Note_on_c, 1, 66, 80
3, 43004, Note_off_c, 1, 66, 100
3, 43008, Note_on_c, 1, 68, 80
3, 43100, Note_off_c, 1, 68, 100
3, 43104, Note_on_c, 1, 69, 80
3, 43196, Note_off_c, 1, 69, 100
3, 43200, Note_on_c, 1, 66, 80
3, 43292, Note_off_c, 1, 66, 100
3, 43296, Note_on_c, 1, 63, 80
3, 43388, Note_off_c, 1, 63, 100
3, 43392, Note_on_c, 1, 64, 80
3, 43484, Note_off_c, 1, 64, 100
3, 43488, Note_on_c, 1, 66, 80
3, 43580, Note_off_c, 1, 66, 100
3, 43584, Note_on_c, 1, 62, 80
3, 43584, Note_on_c, 1, 52, 80
3, 43676, Note_off_c, 1, 62, 100
3, 43680, Note_on_c, 1, 59, 80
3, 43772, Note_off_c, 1, 52, 100
3, 43772, Note_off_c, 1, 59, 100
3, 43776, Note_on_c, 1, 57, 80
3, 43868, Note_off_c, 1, 57, 100
3, 43872, Note_on_c, 1, 61, 80
3, 43964, Note_off_c, 1, 61, 100
3, 43968, Note_on_c, 1, 57, 80
3, 44060, Note_off_c, 1, 57, 100
3, 44064, Note_on_c, 1, 61, 80
3, 44156, Note_off_c, 1, 61, 100
3, 44160, Note_on_c, 1, 52, 80
3, 44160, Note_on_c, 1, 59, 80
3, 44348, Note_off_c, 1, 52, 100
3, 44352, Note_on_c, 1, 53, 80
3, 44540, Note_off_c, 1, 53, 100
3, 44544, Note_on_c, 1, 52, 80
3, 44924, Note_off_c, 1, 59, 100
3, 44928, Note_on_c, 1, 57, 80
3, 45308, Note_off_c, 1, 57, 100
3, 45312, Note_on_c, 1, 61, 80
3, 45500, Note_off_c, 1, 52, 64
3, 45500, Note_off_c, 1, 61, 100
3, 45504, Note_on_c, 1, 64, 80
3, 45504, Note_on_c, 1, 52, 80
3, 45692, Note_off_c, 1, 64, 100
3, 45692, Note_off_c, 1, 52, 100
3, 45696, Note_on_c, 1, 52, 80
3, 45696, Note_on_c, 1, 62, 80
3, 45884, Note_off_c, 1, 52, 100
3, 45888, Note_on_c, 1, 53, 80
3, 46076, Note_off_c, 1, 53, 100
3, 46080, Note_on_c, 1, 52, 80
3, 46268, Note_off_c, 1, 62, 100
3, 46272, Note_on_c, 1, 64, 80
3, 46460, Note_off_c, 1, 64, 100
3, 46464, Note_on_c, 1, 61, 80
3, 46652, Note_off_c, 1, 52, 64
3, 46652, Note_off_c, 1, 61, 100
3, 46656, Note_on_c, 1, 69, 80
3, 46844, Note_off_c, 1, 69, 100
3, 46848, Note_on_c, 1, 64, 80
3, 47036, Note_off_c, 1, 64, 100
3, 47040, Note_on_c, 1, 52, 80
3, 47040, Note_on_c, 1, 59, 80
3, 47228, Note_off_c, 1, 52, 100
3, 47228, Note_off_c, 1, 59, 100
3, 47232, Note_on_c, 1, 52, 80
3, 47232, Note_on_c, 1, 59, 80
3, 47420, Note_off_c, 1, 52, 100
3, 47424, Note_on_c, 1, 53, 81
3, 47612, Note_off_c, 1, 59, 100
3, 47612, Note_off_c, 1, 53, 100
3, 47616, Note_on_c, 1, 52, 83
3, 47616, Note_on_c, 1, 59, 83
3, 48000, Note_on_c, 1, 52, 87
3, 48000, Note_on_c, 1, 59, 87
3, 48188, Note_off_c, 1, 52, 64
3, 48188, Note_off_c, 1, 52, 100
3, 48192, Note_on_c, 1, 53, 89
3, 48380, Note_off_c, 1, 59, 64
3, 48380, Note_off_c, 1, 59, 100
3, 48380, Note_off_c, 1, 53, 100
3, 48384, Note_on_c, 1, 52, 91
3, 48384, Note_on_c, 1, 59, 91
3, 48956, Note_off_c, 1, 52, 64
3, 48960, Note_on_c, 1, 52, 97
3, 48960, Note_on_c, 1, 59, 97
3, 49148, Note_off_c, 1, 59, 64
3, 49148, Note_off_c, 1, 52, 100
3, 49152, Note_on_c, 1, 53, 99
3, 49340, Note_off_c, 1, 59, 100
3, 49340, Note_off_c, 1, 53, 100
3, 49344, Note_on_c, 1, 52, 101
3, 49344, Note_on_c, 1, 59, 101
3, 49532, Note_off_c, 1, 52, 100
3, 49536, Note_on_c, 1, 53, 103
3, 49724, Note_off_c, 1, 53, 100
3, 49728, Note_on_c, 1, 52, 105
3, 49820, Note_off_c, 1, 52, 100
3, 49824, Note_on_c, 1, 50, 106
3, 49916, Note_off_c, 1, 59, 64
3, 49916, Note_off_c, 1, 50, 100
3, 49920, Note_on_c, 1, 49, 107
3, 50108, Note_off_c, 1, 49, 100
3, 50112, Note_on_c, 1, 40, 109
3, 50300, Note_off_c, 1, 40, 100
3, 50304, Note_on_c, 1, 37, 110
3, 50780, Note_off_c, 1, 37, 100
3, 50784, Note_on_c, 1, 38, 110
3, 50876, Note_off_c, 1, 38, 100
3, 50880, Note_on_c, 1, 40, 110
3, 50972, Note_off_c, 1, 40, 100
3, 50976, Note_on_c, 1, 42, 110
3, 51068, Note_off_c, 1, 42, 100
3, 51072, Note_on_c, 1, 35, 110
3, 51452, Note_off_c, 1, 35, 100
3, 51648, Note_on_c, 1, 40, 110
3, 51836, Note_off_c, 1, 40, 100
3, 51840, Note_on_c, 1, 33, 110
3, 52316, Note_off_c, 1, 33, 100
3, 52320, Note_on_c, 1, 35, 110
3, 52412, Note_off_c, 1, 35, 100
3, 52416, Note_on_c, 1, 37, 110
3, 52508, Note_off_c, 1, 37, 100
3, 52512, Note_on_c, 1, 38, 110
3, 52604, Note_off_c, 1, 38, 100
3, 52608, Note_on_c, 1, 32, 110
3, 52988, Note_off_c, 1, 32, 100
3, 53184, Note_on_c, 1, 40, 110
3, 53372, Note_off_c, 1, 40, 100
3, 53376, Note_on_c, 1, 42, 110
3, 53468, Note_off_c, 1, 42, 100
3, 53472, Note_on_c, 1, 44, 110
3, 53564, Note_off_c, 1, 44, 100
3, 53568, Note_on_c, 1, 45, 110
3, 53660, Note_off_c, 1, 45, 100
3, 53664, Note_on_c, 1, 47, 110
3, 53756, Note_off_c, 1, 47, 100
3, 53760, Note_on_c, 1, 45, 110
3, 53852, Note_off_c, 1, 45, 100
3, 53856, Note_on_c, 1, 44, 110
3, 53948, Note_off_c, 1, 44, 100
3, 53952, Note_on_c, 1, 42, 110
3, 54044, Note_off_c, 1, 42, 100
3, 54048, Note_on_c, 1, 44, 110
3, 54140, Note_off_c, 1, 44, 100
3, 54144, Note_on_c, 1, 45, 110
3, 54236, Note_off_c, 1, 45, 100
3, 54240, Note_on_c, 1, 47, 110
3, 54332, Note_off_c, 1, 47, 100
3, 54336, Note_on_c, 1, 49, 110
3, 54428, Note_off_c, 1, 49, 100
3, 54432, Note_on_c, 1, 50, 110
3, 54524, Note_off_c, 1, 50, 100
3, 54528, Note_on_c, 1, 49, 110
3, 54620, Note_off_c, 1, 49, 100
3, 54624, Note_on_c, 1, 47, 110
3, 54716, Note_off_c, 1, 47, 100
3, 54720, Note_on_c, 1, 45, 110
3, 54812, Note_off_c, 1, 45, 100
3, 54816, Note_on_c, 1, 47, 110
3, 54908, Note_off_c, 1, 47, 100
3, 54912, Note_on_c, 1, 49, 110
3, 55004, Note_off_c, 1, 49, 100
3, 55008, Note_on_c, 1, 50, 109
3, 55100, Note_off_c, 1, 50, 100
3, 55104, Note_on_c, 1, 52, 107
3, 55196, Note_off_c, 1, 52, 100
3, 55200, Note_on_c, 1, 54, 105
3, 55292, Note_off_c, 1, 54, 100
3, 55296, Note_on_c, 1, 56, 103
3, 55388, Note_off_c, 1, 56, 100
3, 55392, Note_on_c, 1, 57, 101
3, 55484, Note_off_c, 1, 57, 100
3, 55488, Note_on_c, 1, 54, 99
3, 55580, Note_off_c, 1, 54, 100
3, 55584, Note_on_c, 1, 51, 97
3, 55676, Note_off_c, 1, 51, 100
3, 55680, Note_on_c, 1, 52, 95
3, 55772, Note_off_c, 1, 52, 100
3, 55776, Note_on_c, 1, 54, 93
3, 55868, Note_off_c, 1, 54, 100
3, 55872, Note_on_c, 1, 50, 91
3, 55964, Note_off_c, 1, 50, 100
3, 55968, Note_on_c, 1, 47, 89
3, 56060, Note_off_c, 1, 47, 100
3, 56064, Note_on_c, 1, 49, 87
3, 56156, Note_off_c, 1, 49, 100
3, 56160, Note_on_c, 1, 50, 85
3, 56252, Note_off_c, 1, 50, 100
3, 56256, Note_on_c, 1, 52, 83
3, 56348, Note_off_c, 1, 52, 100
3, 56352, Note_on_c, 1, 40, 81
3, 56444, Note_off_c, 1, 40, 100
3, 56448, Note_on_c, 1, 49, 80
3, 56448, Note_on_c, 1, 45, 80
3, 56540, Note_off_c, 1, 49, 100
3, 56544, Note_on_c, 1, 50, 80
3, 56636, Note_off_c, 1, 50, 100
3, 56640, Note_on_c, 1, 52, 80
3, 56732, Note_off_c, 1, 52, 100
3, 56736, Note_on_c, 1, 54, 80
3, 56828, Note_off_c, 1, 45, 100
3, 56828, Note_off_c, 1, 54, 100
3, 56832, Note_on_c, 1, 52, 80
3, 57020, Note_off_c, 1, 52, 100
3, 57216, Note_on_c, 1, 49, 80
3, 57216, Note_on_c, 1, 45, 80
3, 57308, Note_off_c, 1, 49, 100
3, 57312, Note_on_c, 1, 50, 80
3, 57404, Note_off_c, 1, 50, 100
3, 57408, Note_on_c, 1, 52, 80
3, 57500, Note_off_c, 1, 52, 100
3, 57504, Note_on_c, 1, 54, 80
3, 57596, Note_off_c, 1, 45, 100
3, 57596, Note_off_c, 1, 54, 100
3, 57600, Note_on_c, 1, 52, 80
3, 57788, Note_off_c, 1, 52, 100
3, 57984, Note_on_c, 1, 50, 80
3, 57984, Note_on_c, 1, 47, 80
3, 58076, Note_off_c, 1, 50, 100
3, 58080, Note_on_c, 1, 52, 80
3, 58172, Note_off_c, 1, 52, 100
3, 58176, Note_on_c, 1, 54, 80
3, 58268, Note_off_c, 1, 54, 100
3, 58272, Note_on_c, 1, 52, 80
3, 58364, Note_off_c, 1, 47, 100
3, 58364, Note_off_c, 1, 52, 100
3, 58368, Note_on_c, 1, 52, 80
3, 58556, Note_off_c, 1, 52, 100
3, 58752, Note_on_c, 1, 50, 80
3, 58752, Note_on_c, 1, 47, 80
3, 58844, Note_off_c, 1, 50, 100
3, 58848, Note_on_c, 1, 52, 80
3, 58940, Note_off_c, 1, 52, 100
3, 58944, Note_on_c, 1, 54, 80
3, 59036, Note_off_c, 1, 54, 100
3, 59040, Note_on_c, 1, 52, 80
3, 59132, Note_off_c, 1, 47, 100
3, 59132, Note_off_c, 1, 52, 100
3, 59136, Note_on_c, 1, 52, 80
3, 59516, Note_off_c, 1, 52, 100
3, 59520, Note_on_c, 1, 49, 80
3, 59520, Note_on_c, 1, 45, 80
3, 59612, Note_off_c, 1, 49, 100
3, 59616, Note_on_c, 1, 50, 80
3, 59708, Note_off_c, 1, 50, 100
3, 59712, Note_on_c, 1, 52, 80
3, 59804, Note_off_c, 1, 52, 100
3, 59808, Note_on_c, 1, 54, 80
3, 59900, Note_off_c, 1, 45, 100
3, 59900, Note_off_c, 1, 54, 100
3, 59904, Note_on_c, 1, 52, 80
3, 60092, Note_off_c, 1, 52, 100
3, 60288, Note_on_c, 1, 49, 80
3, 60288, Note_on_c, 1, 45, 80
3, 60380, Note_off_c, 1, 49, 100
3, 60384, Note_on_c, 1, 50, 80
3, 60476, Note_off_c, 1, 50, 100
3, 60480, Note_on_c, 1, 52, 80
3, 60572, Note_off_c, 1, 52, 100
3, 60576, Note_on_c, 1, 54, 80
3, 60668, Note_off_c, 1, 45, 100
3, 60668, Note_off_c, 1, 54, 100
3, 60672, Note_on_c, 1, 52, 80
3, 60860, Note_off_c, 1, 52, 100
3, 61056, Note_on_c, 1, 50, 80
3, 61056, Note_on_c, 1, 47, 80
3, 61148, Note_off_c, 1, 50, 100
3, 61152, Note_on_c, 1, 52, 80
3, 61244, Note_off_c, 1, 52, 100
3, 61248, Note_on_c, 1, 54, 80
3, 61340, Note_off_c, 1, 54, 100
3, 61344, Note_on_c, 1, 52, 80
3, 61436, Note_off_c, 1, 47, 100
3, 61436, Note_off_c, 1, 52, 100
3, 61440, Note_on_c, 1, 52, 80
3, 61628, Note_off_c, 1, 52, 100
3, 61824, Note_on_c, 1, 49, 80
3, 61824, Note_on_c, 1, 52, 80
3, 61916, Note_off_c, 1, 52, 100
3, 61920, Note_on_c, 1, 57, 80
3, 62012, Note_off_c, 1, 57, 100
3, 62016, Note_on_c, 1, 52, 81
3, 62108, Note_off_c, 1, 52, 100
3, 62112, Note_on_c, 1, 57, 82
3, 62204, Note_off_c, 1, 49, 100
3, 62204, Note_off_c, 1, 57, 100
3, 62592, Note_on_c, 1, 54, 86
3, 62592, Note_on_c, 1, 50, 86
3, 62684, Note_off_c, 1, 54, 100
3, 62688, Note_on_c, 1, 57, 87
3, 62780, Note_off_c, 1, 57, 100
3, 62784, Note_on_c, 1, 54, 87
3, 62876, Note_off_c, 1, 54, 100
3, 62880, Note_on_c, 1, 59, 88
3, 62972, Note_off_c, 1, 50, 100
3, 62972, Note_off_c, 1, 59, 100
3, 63360, Note_on_c, 1, 56, 92
3, 63360, Note_on_c, 1, 52, 92
3, 63452, Note_off_c, 1, 56, 100
3, 63456, Note_on_c, 1, 57, 93
3, 63548, Note_off_c, 1, 57, 100
3, 63552, Note_on_c, 1, 56, 94
3, 63644, Note_off_c, 1, 56, 100
3, 63648, Note_on_c, 1, 59, 95
3, 63740, Note_off_c, 1, 52, 100
3, 63740, Note_off_c, 1, 59, 100
3, 64128, Note_on_c, 1, 57, 99
3, 64128, Note_on_c, 1, 54, 99
3, 64220, Note_off_c, 1, 57, 100
3, 64224, Note_on_c, 1, 59, 99
3, 64316, Note_off_c, 1, 59, 100
3, 64320, Note_on_c, 1, 57, 100
3, 64412, Note_off_c, 1, 57, 100
3, 64416, Note_on_c, 1, 59, 101
3, 64508, Note_off_c, 1, 54, 100
3, 64508, Note_off_c, 1, 59, 100
3, 64896, Note_on_c, 1, 56, 105
3, 64988, Note_off_c, 1, 56, 100
3, 64992, Note_on_c, 1, 57, 106
3, 65084, Note_off_c, 1, 57, 100
3, 65088, Note_on_c, 1, 59, 106
3, 65180, Note_off_c, 1, 59, 100
3, 65184, Note_on_c, 1, 57, 107
3, 65276, Note_off_c, 1, 57, 100
3, 65280, Note_on_c, 1, 56, 108
3, 65372, Note_off_c, 1, 56, 100
3, 65376, Note_on_c, 1, 59, 109
3, 65468, Note_off_c, 1, 59, 100
3, 65472, Note_on_c, 1, 64, 110
3, 65564, Note_off_c, 1, 64, 100
3, 65568, Note_on_c, 1, 68, 110
3, 65660, Note_off_c, 1, 68, 100
3, 65664, Note_on_c, 1, 69, 110
3, 65664, Note_on_c, 1, 71, 110
3, 65756, Note_off_c, 1, 69, 100
3, 65760, Note_on_c, 1, 68, 110
3, 65852, Note_off_c, 1, 68, 100
3, 65856, Note_on_c, 1, 66, 110
3, 65948, Note_off_c, 1, 66, 100
3, 65952, Note_on_c, 1, 68, 110
3, 66044, Note_off_c, 1, 68, 100
3, 66048, Note_on_c, 1, 69, 110
3, 66428, Note_off_c, 1, 71, 100
3, 66428, Note_off_c, 1, 69, 100
3, 66432, Note_on_c, 1, 69, 110
3, 66432, Note_on_c, 1, 71, 110
3, 66524, Note_off_c, 1, 69, 100
3, 66528, Note_on_c, 1, 68, 110
3, 66620, Note_off_c, 1, 68, 100
3, 66624, Note_on_c, 1, 66, 110
3, 66716, Note_off_c, 1, 66, 100
3, 66720, Note_on_c, 1, 68, 110
3, 66812, Note_off_c, 1, 68, 100
3, 66816, Note_on_c, 1, 69, 110
3, 67196, Note_off_c, 1, 71, 100
3, 67196, Note_off_c, 1, 69, 100
3, 67200, Note_on_c, 1, 69, 110
3, 67200, Note_on_c, 1, 71, 110
3, 67388, Note_off_c, 1, 69, 100
3, 67388, Note_off_c, 1, 71, 100
3, 67392, Note_on_c, 1, 68, 110
3, 67392, Note_on_c, 1, 71, 110
3, 67580, Note_off_c, 1, 68, 100
3, 67580, Note_off_c, 1, 71, 100
3, 67584, Note_on_c, 1, 66, 110
3, 67584, Note_on_c, 1, 69, 110
3, 67584, Note_on_c, 1, 71, 110
3, 67772, Note_off_c, 1, 66, 100
3, 67772, Note_off_c, 1, 69, 100
3, 67772, Note_off_c, 1, 71, 100
3, 67776, Note_on_c, 1, 64, 110
3, 67776, Note_on_c, 1, 68, 110
3, 67776, Note_on_c, 1, 71, 110
3, 67964, Note_off_c, 1, 64, 100
3, 67964, Note_off_c, 1, 68, 100
3, 67964, Note_off_c, 1, 71, 100
3, 67968, Note_on_c, 1, 63, 110
3, 67968, Note_on_c, 1, 66, 110
3, 67968, Note_on_c, 1, 71, 110
3, 68156, Note_off_c, 1, 63, 100
3, 68156, Note_off_c, 1, 66, 100
3, 68156, Note_off_c, 1, 71, 100
3, 68160, Note_on_c, 1, 61, 110
3, 68160, Note_on_c, 1, 64, 110
3, 68160, Note_on_c, 1, 71, 110
3, 68348, Note_off_c, 1, 61, 100
3, 68348, Note_off_c, 1, 64, 100
3, 68348, Note_off_c, 1, 71, 100
3, 68352, Note_on_c, 1, 59, 120
3, 68352, Note_on_c, 1, 63, 120
3, 68352, Note_on_c, 1, 71, 120
3, 68732, Note_off_c, 1, 59, 100
3, 68732, Note_off_c, 1, 63, 100
3, 68732, Note_off_c, 1, 71, 100
3, 70656, Note_on_c, 1, 64, 80
3, 70940, Note_off_c, 1, 64, 100
3, 70944, Note_on_c, 1, 63, 80
3, 71036, Note_off_c, 1, 63, 100
3, 71040, Note_on_c, 1, 61, 80
3, 71324, Note_off_c, 1, 61, 100
3, 71328, Note_on_c, 1, 63, 80
3, 71420, Note_off_c, 1, 63, 100
3, 71424, Note_on_c, 1, 64, 80
3, 71804, Note_off_c, 1, 64, 100
3, 72192, Note_on_c, 1, 54, 80
3, 72476, Note_off_c, 1, 54, 100
3, 72480, Note_on_c, 1, 53, 80
3, 72572, Note_off_c, 1, 53, 100
3, 72576, Note_on_c, 1, 54, 80
3, 72860, Note_off_c, 1, 54, 100
3, 72864, Note_on_c, 1, 52, 80
3, 72956, Note_off_c, 1, 52, 100
3, 72960, Note_on_c, 1, 49, 80
3, 73340, Note_off_c, 1, 49, 100
3, 73344, Note_on_c, 1, 47, 80
3, 73724, Note_off_c, 1, 47, 100
3, 73728, Control_c, 1, 64, 127
3, 73728, Note_on_c, 1, 64, 70
3, 73728, Note_on_c, 1, 68, 70
3, 74012, Note_off_c, 1, 64, 100
3, 74012, Note_off_c, 1, 68, 100
3, 74016, Note_on_c, 1, 59, 70
3, 74016, Note_on_c, 1, 66, 70
3, 74108, Note_off_c, 1, 59, 100
3, 74108, Note_off_c, 1, 66, 100
3, 74112, Note_on_c, 1, 56, 70
3, 74112, Note_on_c, 1, 64, 70
3, 74396, Note_off_c, 1, 56, 100
3, 74396, Note_off_c, 1, 64, 100
3, 74400, Note_on_c, 1, 59, 70
3, 74400, Note_on_c, 1, 66, 70
3, 74492, Note_off_c, 1, 59, 100
3, 74492, Note_off_c, 1, 66, 100
3, 74496, Note_on_c, 1, 64, 70
3, 74496, Note_on_c, 1, 68, 70
3, 74872, Control_c, 1, 64, 0
3, 74876, Note_off_c, 1, 64, 100
3, 74876, Note_off_c, 1, 68, 100
3, 74880, Note_on_c, 1, 71, 110
3, 75068, Note_off_c, 1, 71, 100
3, 75072, Note_on_c, 1, 59, 110
3, 75260, Note_off_c, 1, 59, 100
3, 75264, Note_on_c, 1, 64, 110
3, 75452, Note_off_c, 1, 64, 100
3, 75456, Note_on_c, 1, 52, 110
3, 75644, Note_off_c, 1, 52, 100
3, 75648, Note_on_c, 1, 59, 110
3, 75836, Note_off_c, 1, 59, 100
3, 75840, Note_on_c, 1, 47, 110
3, 76028, Note_off_c, 1, 47, 100
3, 76032, Note_on_c, 1, 40, 110
3, 76220, Note_off_c, 1, 40, 100
3, 76224, Note_on_c, 1, 52, 80
3, 76224, Note_on_c, 1, 56, 80
3, 76224, Note_on_c, 1, 59, 80
3, 76412, Note_off_c, 1, 52, 100
3, 76412, Note_off_c, 1, 56, 100
3, 76412, Note_off_c, 1, 59, 100
3, 76416, Note_on_c, 1, 40, 80
3, 76604, Note_off_c, 1, 40, 100
3, 76608, Note_on_c, 1, 52, 80
3, 76608, Note_on_c, 1, 56, 80
3, 76608, Note_on_c, 1, 59, 80
3, 76796, Note_off_c, 1, 52, 100
3, 76796, Note_off_c, 1, 56, 100
3, 76796, Note_off_c, 1, 59, 100
3, 76800, Note_on_c, 1, 52, 80
3, 76800, Note_on_c, 1, 56, 80
3, 76800, Note_on_c, 1, 59, 80
3, 76988, Note_off_c, 1, 52, 100
3, 76988, Note_off_c, 1, 56, 100
3, 76988, Note_off_c, 1, 59, 100
3, 76992, Note_on_c, 1, 52, 80
3, 76992, Note_on_c, 1, 56, 80
3, 76992, Note_on_c, 1, 59, 80
3, 77180, Note_off_c, 1, 52, 100
3, 77180, Note_off_c, 1, 56, 100
3, 77180, Note_off_c, 1, 59, 100
3, 77184, Note_on_c, 1, 40, 80
3, 77372, Note_off_c, 1, 40, 100
3, 77376, Note_on_c, 1, 52, 80
3, 77376, Note_on_c, 1, 57, 80
3, 77376, Note_on_c, 1, 61, 80
3, 77564, Note_off_c, 1, 52, 100
3, 77564, Note_off_c, 1, 57, 100
3, 77564, Note_off_c, 1, 61, 100
3, 77568, Note_on_c, 1, 52, 80
3, 77568, Note_on_c, 1, 57, 80
3, 77568, Note_on_c, 1, 61, 80
3, 77756, Note_off_c, 1, 52, 100
3, 77756, Note_off_c, 1, 57, 100
3, 77756, Note_off_c, 1, 61, 100
3, 77760, Note_on_c, 1, 52, 80
3, 77760, Note_on_c, 1, 57, 80
3, 77760, Note_on_c, 1, 61, 80
3, 77948, Note_off_c, 1, 52, 100
3, 77948, Note_off_c, 1, 57, 100
3, 77948, Note_off_c, 1, 61, 100
3, 77952, Note_on_c, 1, 40, 80
3, 78140, Note_off_c, 1, 40, 100
3, 78144, Note_on_c, 1, 52, 80
3, 78144, Note_on_c, 1, 54, 80
3, 78144, Note_on_c, 1, 57, 80
3, 78144, Note_on_c, 1, 59, 80
3, 78332, Note_off_c, 1, 52, 100
3, 78332, Note_off_c, 1, 54, 100
3, 78332, Note_off_c, 1, 57, 100
3, 78332, Note_off_c, 1, 59, 100
3, 78336, Note_on_c, 1, 52, 80
3, 78336, Note_on_c, 1, 54, 80
3, 78336, Note_on_c, 1, 57, 80
3, 78336, Note_on_c, 1, 59, 80
3, 78524, Note_off_c, 1, 52, 100
3, 78524, Note_off_c, 1, 54, 100
3, 78524, Note_off_c, 1, 57, 100
3, 78524, Note_off_c, 1, 59, 100
3, 78528, Note_on_c, 1, 52, 80
3, 78528, Note_on_c, 1, 54, 80
3, 78528, Note_on_c, 1, 57, 80
3, 78528, Note_on_c, 1, 59, 80
3, 78716, Note_off_c, 1, 52, 100
3, 78716, Note_off_c, 1, 54, 100
3, 78716, Note_off_c, 1, 57, 100
3, 78716, Note_off_c, 1, 59, 100
3, 78720, Note_on_c, 1, 40, 80
3, 78908, Note_off_c, 1, 40, 100
3, 78912, Note_on_c, 1, 52, 80
3, 78912, Note_on_c, 1, 56, 80
3, 78912, Note_on_c, 1, 59, 80
3, 79100, Note_off_c, 1, 52, 100
3, 79100, Note_off_c, 1, 56, 100
3, 79100, Note_off_c, 1, 59, 100
3, 79104, Note_on_c, 1, 52, 80
3, 79104, Note_on_c, 1, 56, 80
3, 79104, Note_on_c, 1, 59, 80
3, 79292, Note_off_c, 1, 52, 100
3, 79292, Note_off_c, 1, 56, 100
3, 79292, Note_off_c, 1, 59, 100
3, 79296, Note_on_c, 1, 52, 80
3, 79296, Note_on_c, 1, 56, 80
3, 79296, Note_on_c, 1, 59, 80
3, 79484, Note_off_c, 1, 52, 100
3, 79484, Note_off_c, 1, 56, 100
3, 79484, Note_off_c, 1, 59, 100
3, 79488, Note_on_c, 1, 40, 80
3, 79676, Note_off_c, 1, 40, 100
3, 79680, Note_on_c, 1, 52, 81
3, 79680, Note_on_c, 1, 56, 81
3, 79680, Note_on_c, 1, 59, 81
3, 79868, Note_off_c, 1, 52, 100
3, 79868, Note_off_c, 1, 56, 100
3, 79868, Note_off_c, 1, 59, 100
3, 79872, Note_on_c, 1, 52, 83
3, 79872, Note_on_c, 1, 56, 83
3, 79872, Note_on_c, 1, 59, 83
3, 80060, Note_off_c, 1, 52, 100
3, 80060, Note_off_c, 1, 56, 100
3, 80060, Note_off_c, 1, 59, 100
3, 80064, Note_on_c, 1, 52, 85
3, 80064, Note_on_c, 1, 56, 85
3, 80064, Note_on_c, 1, 59, 85
3, 80252, Note_off_c, 1, 52, 100
3, 80252, Note_off_c, 1, 56, 100
3, 80252, Note_off_c, 1, 59, 100
3, 80256, Note_on_c, 1, 40, 87
3, 80444, Note_off_c, 1, 40, 100
3, 80448, Note_on_c, 1, 52, 89
3, 80448, Note_on_c, 1, 57, 89
3, 80448, Note_on_c, 1, 61, 89
3, 80636, Note_off_c, 1, 52, 100
3, 80636, Note_off_c, 1, 57, 100
3, 80636, Note_off_c, 1, 61, 100
3, 80640, Note_on_c, 1, 52, 90
3, 80640, Note_on_c, 1, 57, 90
3, 80640, Note_on_c, 1, 61, 90
3, 80828, Note_off_c, 1, 52, 100
3, 80828, Note_off_c, 1, 57, 100
3, 80828, Note_off_c, 1, 61, 100
3, 80832, Note_on_c, 1, 52, 92
3, 80832, Note_on_c, 1, 57, 92
3, 80832, Note_on_c, 1, 61, 92
3, 81020, Note_off_c, 1, 52, 100
3, 81020, Note_off_c, 1, 57, 100
3, 81020, Note_off_c, 1, 61, 100
3, 81024, Note_on_c, 1, 40, 94
3, 81212, Note_off_c, 1, 40, 100
3, 81216, Note_on_c, 1, 52, 96
3, 81216, Note_on_c, 1, 54, 96
3, 81216, Note_on_c, 1, 57, 96
3, 81216, Note_on_c, 1, 59, 96
3, 81404, Note_off_c, 1, 52, 100
3, 81404, Note_off_c, 1, 54, 100
3, 81404, Note_off_c, 1, 57, 100
3, 81404, Note_off_c, 1, 59, 100
3, 81408, Note_on_c, 1, 52, 98
3, 81408, Note_on_c, 1, 54, 98
3, 81408, Note_on_c, 1, 57, 98
3, 81408, Note_on_c, 1, 59, 98
3, 81596, Note_off_c, 1, 52, 100
3, 81596, Note_off_c, 1, 54, 100
3, 81596, Note_off_c, 1, 57, 100
3, 81596, Note_off_c, 1, 59, 100
3, 81600, Note_on_c, 1, 52, 100
3, 81600, Note_on_c, 1, 54, 100
3, 81600, Note_on_c, 1, 57, 100
3, 81600, Note_on_c, 1, 59, 100
3, 81788, Note_off_c, 1, 52, 100
3, 81788, Note_off_c, 1, 54, 100
3, 81788, Note_off_c, 1, 57, 100
3, 81788, Note_off_c, 1, 59, 100
3, 81792, Note_on_c, 1, 40, 80
3, 81884, Note_off_c, 1, 40, 100
3, 81888, Note_on_c, 1, 42, 82
3, 81980, Note_off_c, 1, 42, 100
3, 81984, Note_on_c, 1, 44, 84
3, 82076, Note_off_c, 1, 44, 100
3, 82080, Note_on_c, 1, 45, 86
3, 82172, Note_off_c, 1, 45, 100
3, 82176, Note_on_c, 1, 44, 88
3, 82268, Note_off_c, 1, 44, 100
3, 82272, Note_on_c, 1, 45, 90
3, 82364, Note_off_c, 1, 45, 100
3, 82368, Note_on_c, 1, 47, 92
3, 82460, Note_off_c, 1, 47, 100
3, 82464, Note_on_c, 1, 49, 94
3, 82556, Note_off_c, 1, 49, 100
3, 82560, Note_on_c, 1, 47, 96
3, 82652, Note_off_c, 1, 47, 100
3, 82656, Note_on_c, 1, 49, 98
3, 82748, Note_off_c, 1, 49, 100
3, 82752, Note_on_c, 1, 51, 100
3, 82844, Note_off_c, 1, 51, 100
3, 82848, Note_on_c, 1, 52, 102
3, 82940, Note_off_c, 1, 52, 100
3, 82944, Note_on_c, 1, 51, 104
3, 83036, Note_off_c, 1, 51, 100
3, 83040, Note_on_c, 1, 52, 106
3, 83132, Note_off_c, 1, 52, 100
3, 83136, Note_on_c, 1, 54, 108
3, 83228, Note_off_c, 1, 54, 100
3, 83232, Note_on_c, 1, 56, 110
3, 83324, Note_off_c, 1, 56, 100
3, 83328, Note_on_c, 1, 47, 110
3, 83328, Note_on_c, 1, 54, 110
3, 83328, Note_on_c, 1, 57, 110
3, 83516, Note_off_c, 1, 47, 100
3, 83516, Note_off_c, 1, 54, 100
3, 83516, Note_off_c, 1, 57, 100
3, 83520, Note_on_c, 1, 35, 110
3, 83520, Note_on_c, 1, 47, 110
3, 83900, Note_off_c, 1, 35, 100
3, 83900, Note_off_c, 1, 47, 100
3, 83904, Note_on_c, 1, 35, 110
3, 83904, Note_on_c, 1, 47, 110
3, 84380, Note_off_c, 1, 47, 64
3, 84380, Note_off_c, 1, 35, 64
3, 84384, Note_on_c, 1, 47, 110
3, 84384, Note_on_c, 1, 54, 110
3, 84384, Note_on_c, 1, 57, 110
3, 84476, Note_off_c, 1, 47, 100
3, 84476, Note_off_c, 1, 54, 100
3, 84476, Note_off_c, 1, 57, 100
3, 84480, Note_on_c, 1, 47, 110
3, 84480, Note_on_c, 1, 54, 110
3, 84480, Note_on_c, 1, 57, 110
3, 84764, Note_off_c, 1, 47, 100
3, 84764, Note_off_c, 1, 54, 100
3, 84764, Note_off_c, 1, 57, 100
3, 84768, Note_on_c, 1, 47, 110
3, 84768, Note_on_c, 1, 54, 110
3, 84768, Note_on_c, 1, 57, 110
3, 84860, Note_off_c, 1, 47, 100
3, 84860, Note_off_c, 1, 54, 100
3, 84860, Note_off_c, 1, 57, 100
3, 84864, Note_on_c, 1, 52, 110
3, 84956, Note_off_c, 1, 52, 100
3, 84960, Note_on_c, 1, 54, 80
3, 85052, Note_off_c, 1, 54, 100
3, 85056, Note_on_c, 1, 56, 82
3, 85148, Note_off_c, 1, 56, 100
3, 85152, Note_on_c, 1, 57, 84
3, 85244, Note_off_c, 1, 57, 100
3, 85248, Note_on_c, 1, 56, 86
3, 85340, Note_off_c, 1, 56, 100
3, 85344, Note_on_c, 1, 57, 88
3, 85436, Note_off_c, 1, 57, 100
3, 85440, Note_on_c, 1, 59, 91
3, 85532, Note_off_c, 1, 59, 100
3, 85536, Note_on_c, 1, 61, 93
3, 85628, Note_off_c, 1, 61, 100
3, 85632, Note_on_c, 1, 59, 95
3, 85724, Note_off_c, 1, 59, 100
3, 85728, Note_on_c, 1, 61, 97
3, 85820, Note_off_c, 1, 61, 100
3, 85824, Note_on_c, 1, 63, 99
3, 85916, Note_off_c, 1, 63, 100
3, 85920, Note_on_c, 1, 64, 102
3, 86012, Note_off_c, 1, 64, 100
3, 86016, Note_on_c, 1, 63, 104
3, 86108, Note_off_c, 1, 63, 100
3, 86112, Note_on_c, 1, 64, 106
3, 86204, Note_off_c, 1, 64, 100
3, 86208, Note_on_c, 1, 66, 108
3, 86300, Note_off_c, 1, 66, 100
3, 86304, Note_on_c, 1, 68, 110
3, 86396, Note_off_c, 1, 68, 100
3, 86400, Note_on_c, 1, 59, 120
3, 86400, Note_on_c, 1, 66, 120
3, 86400, Note_on_c, 1, 69, 120
3, 86588, Note_off_c, 1, 59, 100
3, 86588, Note_off_c, 1, 66, 100
3, 86588, Note_off_c, 1, 69, 100
3, 86592, Note_on_c, 1, 47, 120
3, 86592, Note_on_c, 1, 59, 120
3, 86972, Note_off_c, 1, 47, 100
3, 86972, Note_off_c, 1, 59, 100
3, 86976, Note_on_c, 1, 47, 120
3, 86976, Note_on_c, 1, 59, 120
3, 87452, Note_off_c, 1, 59, 64
3, 87452, Note_off_c, 1, 47, 64
3, 87456, Note_on_c, 1, 59, 120
3, 87456, Note_on_c, 1, 66, 120
3, 87456, Note_on_c, 1, 69, 120
3, 87548, Note_off_c, 1, 59, 100
3, 87548, Note_off_c, 1, 66, 100
3, 87548, Note_off_c, 1, 69, 100
3, 87552, Note_on_c, 1, 59, 120
3, 87552, Note_on_c, 1, 66, 120
3, 87552, Note_on_c, 1, 69, 120
3, 87836, Note_off_c, 1, 59, 100
3, 87836, Note_off_c, 1, 66, 100
3, 87836, Note_off_c, 1, 69, 100
3, 87840, Note_on_c, 1, 59, 120
3, 87840, Note_on_c, 1, 66, 120
3, 87840, Note_on_c, 1, 69, 120
3, 87932, Note_off_c, 1, 59, 100
3, 87932, Note_off_c, 1, 66, 100
3, 87932, Note_off_c, 1, 69, 100
3, 87936, Note_on_c, 1, 61, 120
3, 87936, Note_on_c, 1, 64, 120
3, 87936, Note_on_c, 1, 68, 120
3, 88316, Note_off_c, 1, 61, 100
3, 88316, Note_off_c, 1, 64, 100
3, 88316, Note_off_c, 1, 68, 100
3, 88512, Note_on_c, 1, 57, 80
3, 88512, Note_on_c, 1, 69, 80
3, 88700, Note_off_c, 1, 57, 100
3, 88700, Note_off_c, 1, 69, 100
3, 88704, Note_on_c, 1, 57, 80
3, 88704, Note_on_c, 1, 69, 80
3, 89084, Note_off_c, 1, 57, 100
3, 89084, Note_off_c, 1, 69, 100
3, 89280, Note_on_c, 1, 54, 80
3, 89280, Note_on_c, 1, 66, 80
3, 89468, Note_off_c, 1, 54, 100
3, 89468, Note_off_c, 1, 66, 100
3, 89472, Note_on_c, 1, 54, 80
3, 89472, Note_on_c, 1, 66, 80
3, 89660, Note_off_c, 1, 54, 100
3, 89660, Note_off_c, 1, 66, 100
3, 89664, Note_on_c, 1, 59, 80
3, 89664, Note_on_c, 1, 66, 80
3, 89852, Note_off_c, 1, 59, 100
3, 89852, Note_off_c, 1, 66, 100
3, 89856, Note_on_c, 1, 59, 80
3, 89856, Note_on_c, 1, 66, 80
3, 90044, Note_off_c, 1, 59, 100
3, 90044, Note_off_c, 1, 66, 100
3, 90048, Note_on_c, 1, 52, 80
3, 90048, Note_on_c, 1, 66, 80
3, 90236, Note_off_c, 1, 52, 100
3, 90236, Note_off_c, 1, 66, 100
3, 90240, Note_on_c, 1, 47, 80
3, 90240, Note_on_c, 1, 59, 80
3, 90620, Note_off_c, 1, 47, 100
3, 90620, Note_off_c, 1, 59, 100
3, 91008, Note_on_c, 1, 51, 70
3, 91388, Note_off_c, 1, 51, 100
3, 91584, Note_on_c, 1, 52, 70
3, 91772, Note_off_c, 1, 52, 100
3, 91776, Note_on_c, 1, 52, 70
3, 92156, Note_off_c, 1, 52, 100
3, 92352, Note_on_c, 1, 45, 70
3, 92540, Note_off_c, 1, 45, 100
3, 92544, Note_on_c, 1, 45, 70
3, 92732, Note_off_c, 1, 45, 100
3, 92736, Note_on_c, 1, 47, 70
3, 92924, Note_off_c, 1, 47, 100
3, 92928, Note_on_c, 1, 47, 70
3, 93116, Note_off_c, 1, 47, 100
3, 93120, Note_on_c, 1, 40, 70
3, 93308, Note_off_c, 1, 40, 100
3, 93312, Note_on_c, 1, 40, 70
3, 93692, Note_off_c, 1, 40, 100
3, 94080, Note_on_c, 1, 45, 110
3, 94080, Note_on_c, 1, 57, 110
3, 94268, Note_off_c, 1, 45, 100
3, 94268, Note_off_c, 1, 57, 100
3, 94272, Note_on_c, 1, 71, 110
3, 94272, Note_on_c, 1, 59, 110
3, 94460, Note_off_c, 1, 71, 100
3, 94460, Note_off_c, 1, 59, 100
3, 94464, Note_on_c, 1, 57, 110
3, 94464, Note_on_c, 1, 69, 110
3, 94940, Note_off_c, 1, 69, 64
3, 94940, Note_off_c, 1, 57, 64
3, 94944, Note_on_c, 1, 59, 110
3, 95036, Note_off_c, 1, 59, 100
3, 95040, Note_on_c, 1, 61, 110
3, 95132, Note_off_c, 1, 61, 100
3, 95136, Note_on_c, 1, 62, 110
3, 95228, Note_off_c, 1, 62, 100
3, 95232, Note_on_c, 1, 56, 110
3, 95612, Note_off_c, 1, 56, 100
3, 95808, Note_on_c, 1, 56, 110
3, 95808, Note_on_c, 1, 68, 110
3, 95996, Note_off_c, 1, 56, 100
3, 95996, Note_off_c, 1, 68, 100
3, 96000, Note_on_c, 1, 66, 110
3, 96000, Note_on_c, 1, 54, 110
3, 96476, Note_off_c, 1, 54, 64
3, 96476, Note_off_c, 1, 66, 64
3, 96480, Note_on_c, 1, 56, 110
3, 96572, Note_off_c, 1, 56, 100
3, 96576, Note_on_c, 1, 57, 110
3, 96668, Note_off_c, 1, 57, 100
3, 96672, Note_on_c, 1, 59, 110
3, 96764, Note_off_c, 1, 59, 100
3, 96768, Note_on_c, 1, 52, 110
3, 96956, Note_off_c, 1, 52, 100
3, 96960, Note_on_c, 1, 64, 80
3, 96960, Note_on_c, 1, 76, 80
3, 97340, Note_off_c, 1, 76, 64
3, 97340, Note_off_c, 1, 64, 64
3, 97344, Note_on_c, 1, 64, 80
3, 97344, Note_on_c, 1, 74, 80
3, 97724, Note_off_c, 1, 64, 100
3, 97724, Note_off_c, 1, 74, 100
3, 97728, Note_on_c, 1, 64, 80
3, 97728, Note_on_c, 1, 71, 80
3, 98108, Note_off_c, 1, 71, 64
3, 98108, Note_off_c, 1, 64, 64
3, 98112, Note_on_c, 1, 64, 80
3, 98112, Note_on_c, 1, 69, 80
3, 98492, Note_off_c, 1, 64, 100
3, 98492, Note_off_c, 1, 69, 100
3, 98496, Note_on_c, 1, 64, 80
3, 98496, Note_on_c, 1, 68, 80
3, 98684, Note_off_c, 1, 64, 100
3, 98684, Note_off_c, 1, 68, 100
3, 98688, Note_on_c, 1, 69, 80
3, 98876, Note_off_c, 1, 69, 100
3, 98880, Note_on_c, 1, 68, 80
3, 99068, Note_off_c, 1, 68, 100
3, 99072, Note_on_c, 1, 66, 80
3, 99260, Note_off_c, 1, 66, 100
3, 99264, Note_on_c, 1, 59, 80
3, 99264, Note_on_c, 1, 71, 80
3, 99452, Note_off_c, 1, 59, 100
3, 99452, Note_off_c, 1, 71, 100
3, 99456, Note_on_c, 1, 59, 80
3, 99456, Note_on_c, 1, 71, 80
3, 99836, Note_off_c, 1, 59, 100
3, 99836, Note_off_c, 1, 71, 100
3, 99840, Note_on_c, 1, 64, 80
3, 99840, Note_on_c, 1, 71, 80
3, 100028, Note_off_c, 1, 64, 100
3, 100028, Note_off_c, 1, 71, 100
3, 100032, Note_on_c, 1, 52, 110
3, 100032, Note_on_c, 1, 64, 110
3, 100220, Note_off_c, 1, 52, 100
3, 100220, Note_off_c, 1, 64, 100
3, 100224, Note_on_c, 1, 49, 110
3, 100224, Note_on_c, 1, 61, 110
3, 100700, Note_off_c, 1, 49, 100
3, 100700, Note_off_c, 1, 61, 100
3, 100704, Note_on_c, 1, 62, 110
3, 100796, Note_off_c, 1, 62, 100
3, 100800, Note_on_c, 1, 64, 110
3, 100892, Note_off_c, 1, 64, 100
3, 100896, Note_on_c, 1, 66, 110
3, 100988, Note_off_c, 1, 66, 100
3, 100992, Note_on_c, 1, 47, 110
3, 100992, Note_on_c, 1, 59, 110
3, 101372, Note_off_c, 1, 47, 100
3, 101372, Note_off_c, 1, 59, 100
3, 101568, Note_on_c, 1, 52, 110
3, 101568, Note_on_c, 1, 64, 110
3, 101756, Note_off_c, 1, 52, 100
3, 101756, Note_off_c, 1, 64, 100
3, 101760, Note_on_c, 1, 45, 110
3, 101760, Note_on_c, 1, 57, 110
3, 102236, Note_off_c, 1, 45, 100
3, 102236, Note_off_c, 1, 57, 100
3, 102240, Note_on_c, 1, 59, 110
3, 102332, Note_off_c, 1, 59, 100
3, 102336, Note_on_c, 1, 61, 110
3, 102428, Note_off_c, 1, 61, 100
3, 102432, Note_on_c, 1, 62, 110
3, 102524, Note_off_c, 1, 62, 100
3, 102528, Note_on_c, 1, 44, 110
3, 102528, Note_on_c, 1, 56, 110
3, 102908, Note_off_c, 1, 44, 100
3, 102908, Note_off_c, 1, 56, 100
3, 103104, Note_on_c, 1, 52, 80
3, 103292, Note_off_c, 1, 52, 100
3, 103296, Note_on_c, 1, 54, 80
3, 103388, Note_off_c, 1, 54, 100
3, 103392, Note_on_c, 1, 56, 80
3, 103484, Note_off_c, 1, 56, 100
3, 103488, Note_on_c, 1, 57, 80
3, 103580, Note_off_c, 1, 57, 100
3, 103584, Note_on_c, 1, 59, 80
3, 103676, Note_off_c, 1, 59, 100
3, 103680, Note_on_c, 1, 57, 80
3, 103772, Note_off_c, 1, 57, 100
3, 103776, Note_on_c, 1, 56, 80
3, 103868, Note_off_c, 1, 56, 100
3, 103872, Note_on_c, 1, 54, 80
3, 103964, Note_off_c, 1, 54, 100
3, 103968, Note_on_c, 1, 56, 80
3, 104060, Note_off_c, 1, 56, 100
3, 104064, Note_on_c, 1, 57, 80
3, 104156, Note_off_c, 1, 57, 100
3, 104160, Note_on_c, 1, 59, 80
3, 104252, Note_off_c, 1, 59, 100
3, 104256, Note_on_c, 1, 61, 80
3, 104348, Note_off_c, 1, 61, 100
3, 104352, Note_on_c, 1, 62, 80
3, 104444, Note_off_c, 1, 62, 100
3, 104448, Note_on_c, 1, 61, 80
3, 104540, Note_off_c, 1, 61, 100
3, 104544, Note_on_c, 1, 59, 80
3, 104636, Note_off_c, 1, 59, 100
3, 104640, Note_on_c, 1, 57, 80
3, 104732, Note_off_c, 1, 57, 100
3, 104736, Note_on_c, 1, 59, 80
3, 104828, Note_off_c, 1, 59, 100
3, 104832, Note_on_c, 1, 61, 80
3, 104924, Note_off_c, 1, 61, 100
3, 104928, Note_on_c, 1, 62, 80
3, 105020, Note_off_c, 1, 62, 100
3, 105024, Note_on_c, 1, 64, 80
3, 105116, Note_off_c, 1, 64, 100
3, 105120, Note_on_c, 1, 66, 80
3, 105212, Note_off_c, 1, 66, 100
3, 105216, Note_on_c, 1, 68, 80
3, 105308, Note_off_c, 1, 68, 100
3, 105312, Note_on_c, 1, 69, 80
3, 105404, Note_off_c, 1, 69, 100
3, 105408, Note_on_c, 1, 66, 80
3, 105500, Note_off_c, 1, 66, 100
3, 105504, Note_on_c, 1, 63, 80
3, 105596, Note_off_c, 1, 63, 100
3, 105600, Note_on_c, 1, 64, 80
3, 105692, Note_off_c, 1, 64, 100
3, 105696, Note_on_c, 1, 66, 80
3, 105788, Note_off_c, 1, 66, 100
3, 105792, Note_on_c, 1, 62, 80
3, 105792, Note_on_c, 1, 52, 80
3, 105884, Note_off_c, 1, 62, 100
3, 105888, Note_on_c, 1, 59, 80
3, 105980, Note_off_c, 1, 52, 100
3, 105980, Note_off_c, 1, 59, 100
3, 105984, Note_on_c, 1, 57, 80
3, 106076, Note_off_c, 1, 57, 100
3, 106080, Note_on_c, 1, 61, 80
3, 106172, Note_off_c, 1, 61, 100
3, 106176, Note_on_c, 1, 57, 80
3, 106268, Note_off_c, 1, 57, 100
3, 106272, Note_on_c, 1, 61, 80
3, 106364, Note_off_c, 1, 61, 100
3, 106368, Note_on_c, 1, 52, 80
3, 106368, Note_on_c, 1, 59, 80
3, 106556, Note_off_c, 1, 52, 100
3, 106560, Note_on_c, 1, 53, 80
3, 106748, Note_off_c, 1, 53, 100
3, 106752, Note_on_c, 1, 52, 80
3, 107132, Note_off_c, 1, 59, 100
3, 107136, Note_on_c, 1, 57, 80
3, 107516, Note_off_c, 1, 57, 100
3, 107520, Note_on_c, 1, 61, 80
3, 107708, Note_off_c, 1, 52, 64
3, 107708, Note_off_c, 1, 61, 100
3, 107712, Note_on_c, 1, 64, 80
3, 107712, Note_on_c, 1, 52, 80
3, 107900, Note_off_c, 1, 64, 100
3, 107900, Note_off_c, 1, 52, 100
3, 107904, Note_on_c, 1, 52, 80
3, 107904, Note_on_c, 1, 62, 80
3, 108092, Note_off_c, 1, 52, 100
3, 108096, Note_on_c, 1, 53, 80
3, 108284, Note_off_c, 1, 53, 100
3, 108288, Note_on_c, 1, 52, 80
3, 108476, Note_off_c, 1, 62, 100
3, 108480, Note_on_c, 1, 64, 80
3, 108668, Note_off_c, 1, 64, 100
3, 108672, Note_on_c, 1, 61, 80
3, 108860, Note_off_c, 1, 52, 64
3, 108860, Note_off_c, 1, 61, 100
3, 108864, Note_on_c, 1, 69, 80
3, 109052, Note_off_c, 1, 69, 100
3, 109056, Note_on_c, 1, 64, 80
3, 109244, Note_off_c, 1, 64, 100
3, 109248, Note_on_c, 1, 52, 80
3, 109248, Note_on_c, 1, 59, 80
3, 109436, Note_off_c, 1, 52, 100
3, 109436, Note_off_c, 1, 59, 100
3, 109440, Note_on_c, 1, 52, 80
3, 109440, Note_on_c, 1, 59, 80
3, 109628, Note_off_c, 1, 52, 100
3, 109632, Note_on_c, 1, 53, 81
3, 109820, Note_off_c, 1, 59, 100
3, 109820, Note_off_c, 1, 53, 100
3, 109824, Note_on_c, 1, 52, 83
3, 109824, Note_on_c, 1, 59, 83
3, 110208, Note_on_c, 1, 52, 87
3, 110208, Note_on_c, 1, 59, 87
3, 110396, Note_off_c, 1, 52, 64
3, 110396, Note_off_c, 1, 52, 100
3, 110400, Note_on_c, 1, 53, 89
3, 110588, Note_off_c, 1, 59, 64
3, 110588, Note_off_c, 1, 59, 100
3, 110588, Note_off_c, 1, 53, 100
3, 110592, Note_on_c, 1, 52, 91
3, 110592, Note_on_c, 1, 59, 91
3, 111164, Note_off_c, 1, 52, 64
3, 111168, Note_on_c, 1, 52, 97
3, 111168, Note_on_c, 1, 59, 97
3, 111356, Note_off_c, 1, 59, 64
3, 111356, Note_off_c, 1, 52, 100
3, 111360, Note_on_c, 1, 53, 99
3, 111548, Note_off_c, 1, 59, 100
3, 111548, Note_off_c, 1, 53, 100
3, 111552, Note_on_c, 1, 52, 101
3, 111552, Note_on_c, 1, 59, 101
3, 111740, Note_off_c, 1, 52, 100
3, 111744, Note_on_c, 1, 53, 103
3, 111932, Note_off_c, 1, 53, 100
3, 111936, Note_on_c, 1, 52, 105
3, 112028, Note_off_c, 1, 52, 100
3, 112032, Note_on_c, 1, 50, 106
3, 112124, Note_off_c, 1, 59, 64
3, 112124, Note_off_c, 1, 50, 100
3, 112128, Note_on_c, 1, 49, 107
3, 112316, Note_off_c, 1, 49, 100
3, 112320, Note_on_c, 1, 40, 109
3, 112508, Note_off_c, 1, 40, 100
3, 112512, Note_on_c, 1, 37, 110
3, 112988, Note_off_c, 1, 37, 100
3, 112992, Note_on_c, 1, 38, 110
3, 113084, Note_off_c, 1, 38, 100
3, 113088, Note_on_c, 1, 40, 110
3, 113180, Note_off_c, 1, 40, 100
3, 113184, Note_on_c, 1, 42, 110
3, 113276, Note_off_c, 1, 42, 100
3, 113280, Note_on_c, 1, 35, 110
3, 113660, Note_off_c, 1, 35, 100
3, 113856, Note_on_c, 1, 40, 110
3, 114044, Note_off_c, 1, 40, 100
3, 114048, Note_on_c, 1, 33, 110
3, 114524, Note_off_c, 1, 33, 100
3, 114528, Note_on_c, 1, 35, 110
3, 114620, Note_off_c, 1, 35, 100
3, 114624, Note_on_c, 1, 37, 110
3, 114716, Note_off_c, 1, 37, 100
3, 114720, Note_on_c, 1, 38, 110
3, 114812, Note_off_c, 1, 38, 100
3, 114816, Note_on_c, 1, 32, 110
3, 115196, Note_off_c, 1, 32, 100
3, 115392, Note_on_c, 1, 40, 110
3, 115580, Note_off_c, 1, 40, 100
3, 115584, Note_on_c, 1, 42, 110
3, 115676, Note_off_c, 1, 42, 100
3, 115680, Note_on_c, 1, 44, 110
3, 115772, Note_off_c, 1, 44, 100
3, 115776, Note_on_c, 1, 45, 110
3, 115868, Note_off_c, 1, 45, 100
3, 115872, Note_on_c, 1, 47, 110
3, 115964, Note_off_c, 1, 47, 100
3, 115968, Note_on_c, 1, 45, 110
3, 116060, Note_off_c, 1, 45, 100
3, 116064, Note_on_c, 1, 44, 110
3, 116156, Note_off_c, 1, 44, 100
3, 116160, Note_on_c, 1, 42, 110
3, 116252, Note_off_c, 1, 42, 100
3, 116256, Note_on_c, 1, 44, 110
3, 116348, Note_off_c, 1, 44, 100
3, 116352, Note_on_c, 1, 45, 110
3, 116444, Note_off_c, 1, 45, 100
3, 116448, Note_on_c, 1, 47, 110
3, 116540, Note_off_c, 1, 47, 100
3, 116544, Note_on_c, 1, 49, 110
3, 116636, Note_off_c, 1, 49, 100
3, 116640, Note_on_c, 1, 50, 110
3, 116732, Note_off_c, 1, 50, 100
3, 116736, Note_on_c, 1, 49, 110
3, 116828, Note_off_c, 1, 49, 100
3, 116832, Note_on_c, 1, 47, 110
3, 116924, Note_off_c, 1, 47, 100
3, 116928, Note_on_c, 1, 45, 110
3, 117020, Note_off_c, 1, 45, 100
3, 117024, Note_on_c, 1, 47, 110
3, 117116, Note_off_c, 1, 47, 100
3, 117120, Note_on_c, 1, 49, 110
3, 117212, Note_off_c, 1, 49, 100
3, 117216, Note_on_c, 1, 50, 109
3, 117308, Note_off_c, 1, 50, 100
3, 117312, Note_on_c, 1, 52, 107
3, 117404, Note_off_c, 1, 52, 100
3, 117408, Note_on_c, 1, 54, 105
3, 117500, Note_off_c, 1, 54, 100
3, 117504, Note_on_c, 1, 56, 103
3, 117596, Note_off_c, 1, 56, 100
3, 117600, Note_on_c, 1, 57, 101
3, 117692, Note_off_c, 1, 57, 100
3, 117696, Note_on_c, 1, 54, 99
3, 117788, Note_off_c, 1, 54, 100
3, 117792, Note_on_c, 1, 51, 97
3, 117884, Note_off_c, 1, 51, 100
3, 117888, Note_on_c, 1, 52, 95
3, 117980, Note_off_c, 1, 52, 100
3, 117984, Note_on_c, 1, 54, 93
3, 118076, Note_off_c, 1, 54, 100
3, 118080, Note_on_c, 1, 50, 91
3, 118172, Note_off_c, 1, 50, 100
3, 118176, Note_on_c, 1, 47, 89
3, 118268, Note_off_c, 1, 47, 100
3, 118272, Note_on_c, 1, 49, 87
3, 118364, Note_off_c, 1, 49, 100
3, 118368, Note_on_c, 1, 50, 85
3, 118460, Note_off_c, 1, 50, 100
3, 118464, Note_on_c, 1, 52, 83
3, 118556, Note_off_c, 1, 52, 100
3, 118560, Note_on_c, 1, 40, 81
3, 118652, Note_off_c, 1, 40, 100
3, 118656, Note_on_c, 1, 49, 80
3, 118656, Note_on_c, 1, 45, 80
3, 118748, Note_off_c, 1, 49, 100
3, 118752, Note_on_c, 1, 50, 80
3, 118844, Note_off_c, 1, 50, 100
3, 118848, Note_on_c, 1, 52, 80
3, 118940, Note_off_c, 1, 52, 100
3, 118944, Note_on_c, 1, 54, 80
3, 119036, Note_off_c, 1, 45, 100
3, 119036, Note_off_c, 1, 54, 100
3, 119040, Note_on_c, 1, 52, 80
3, 119228, Note_off_c, 1, 52, 100
3, 119424, Note_on_c, 1, 49, 80
3, 119424, Note_on_c, 1, 45, 80
3, 119516, Note_off_c, 1, 49, 100
3, 119520, Note_on_c, 1, 50, 80
3, 119612, Note_off_c, 1, 50, 100
3, 119616, Note_on_c, 1, 52, 80
3, 119708, Note_off_c, 1, 52, 100
3, 119712, Note_on_c, 1, 54, 80
3, 119804, Note_off_c, 1, 45, 100
3, 119804, Note_off_c, 1, 54, 100
3, 119808, Note_on_c, 1, 52, 80
3, 119996, Note_off_c, 1, 52, 100
3, 120192, Note_on_c, 1, 50, 80
3, 120192, Note_on_c, 1, 47, 80
3, 120284, Note_off_c, 1, 50, 100
3, 120288, Note_on_c, 1, 52, 80
3, 120380, Note_off_c, 1, 52, 100
3, 120384, Note_on_c, 1, 54, 80
3, 120476, Note_off_c, 1, 54, 100
3, 120480, Note_on_c, 1, 52, 80
3, 120572, Note_off_c, 1, 47, 100
3, 120572, Note_off_c, 1, 52, 100
3, 120576, Note_on_c, 1, 52, 80
3, 120764, Note_off_c, 1, 52, 100
3, 120960, Note_on_c, 1, 50, 80
3, 120960, Note_on_c, 1, 47, 80
3, 121052, Note_off_c, 1, 50, 100
3, 121056, Note_on_c, 1, 52, 80
3, 121148, Note_off_c, 1, 52, 100
3, 121152, Note_on_c, 1, 54, 80
3, 121244, Note_off_c, 1, 54, 100
3, 121248, Note_on_c, 1, 52, 80
3, 121340, Note_off_c, 1, 47, 100
3, 121340, Note_off_c, 1, 52, 100
3, 121344, Note_on_c, 1, 52, 80
3, 121724, Note_off_c, 1, 52, 100
3, 121728, Note_on_c, 1, 49, 80
3, 121728, Note_on_c, 1, 45, 80
3, 121820, Note_off_c, 1, 49, 100
3, 121824, Note_on_c, 1, 50, 80
3, 121916, Note_off_c, 1, 50, 100
3, 121920, Note_on_c, 1, 52, 80
3, 122012, Note_off_c, 1, 52, 100
3, 122016, Note_on_c, 1, 54, 80
3, 122108, Note_off_c, 1, 45, 100
3, 122108, Note_off_c, 1, 54, 100
3, 122112, Note_on_c, 1, 52, 80
3, 122300, Note_off_c, 1, 52, 100
3, 122496, Note_on_c, 1, 49, 80
3, 122496, Note_on_c, 1, 45, 80
3, 122588, Note_off_c, 1, 49, 100
3, 122592, Note_on_c, 1, 50, 80
3, 122684, Note_off_c, 1, 50, 100
3, 122688, Note_on_c, 1, 52, 80
3, 122780, Note_off_c, 1, 52, 100
3, 122784, Note_on_c, 1, 54, 80
3, 122876, Note_off_c, 1, 45, 100
3, 122876, Note_off_c, 1, 54, 100
3, 122880, Note_on_c, 1, 52, 80
3, 123068, Note_off_c, 1, 52, 100
3, 123264, Note_on_c, 1, 50, 80
3, 123264, Note_on_c, 1, 47, 80
3, 123356, Note_off_c, 1, 50, 100
3, 123360, Note_on_c, 1, 52, 80
3, 123452, Note_off_c, 1, 52, 100
3, 123456, Note_on_c, 1, 54, 80
3, 123548, Note_off_c, 1, 54, 100
3, 123552, Note_on_c, 1, 52, 80
3, 123644, Note_off_c, 1, 47, 100
3, 123644, Note_off_c, 1, 52, 100
3, 123648, Note_on_c, 1, 52, 80
3, 123836, Note_off_c, 1, 52, 100
3, 124032, Note_on_c, 1, 49, 80
3, 124032, Note_on_c, 1, 52, 80
3, 124124, Note_off_c, 1, 52, 100
3, 124128, Note_on_c, 1, 57, 80
3, 124220, Note_off_c, 1, 57, 100
3, 124224, Note_on_c, 1, 52, 81
3, 124316, Note_off_c, 1, 52, 100
3, 124320, Note_on_c, 1, 57, 82
3, 124412, Note_off_c, 1, 49, 100
3, 124412, Note_off_c, 1, 57, 100
3, 124800, Note_on_c, 1, 54, 86
3, 124800, Note_on_c, 1, 50, 86
3, 124892, Note_off_c, 1, 54, 100
3, 124896, Note_on_c, 1, 57, 87
3, 124988, Note_off_c, 1, 57, 100
3, 124992, Note_on_c, 1, 54, 87
3, 125084, Note_off_c, 1, 54, 100
3, 125088, Note_on_c, 1, 59, 88
3, 125180, Note_off_c, 1, 50, 100
3, 125180, Note_off_c, 1, 59, 100
3, 125568, Note_on_c, 1, 56, 92
3, 125568, Note_on_c, 1, 52, 92
3, 125660, Note_off_c, 1, 56, 100
3, 125664, Note_on_c, 1, 57, 93
3, 125756, Note_off_c, 1, 57, 100
3, 125760, Note_on_c, 1, 56, 94
3, 125852, Note_off_c, 1, 56, 100
3, 125856, Note_on_c, 1, 59, 95
3, 125948, Note_off_c, 1, 52, 100
3, 125948, Note_off_c, 1, 59, 100
3, 126336, Note_on_c, 1, 57, 99
3, 126336, Note_on_c, 1, 54, 99
3, 126428, Note_off_c, 1, 57, 100
3, 126432, Note_on_c, 1, 59, 99
3, 126524, Note_off_c, 1, 59, 100
3, 126528, Note_on_c, 1, 57, 100
3, 126620, Note_off_c, 1, 57, 100
3, 126624, Note_on_c, 1, 59, 101
3, 126716, Note_off_c, 1, 54, 100
3, 126716, Note_off_c, 1, 59, 100
3, 127104, Note_on_c, 1, 56, 105
3, 127196, Note_off_c, 1, 56, 100
3, 127200, Note_on_c, 1, 57, 106
3, 127292, Note_off_c, 1, 57, 100
3, 127296, Note_on_c, 1, 59, 106
3, 127388, Note_off_c, 1, 59, 100
3, 127392, Note_on_c, 1, 57, 107
3, 127484, Note_off_c, 1, 57, 100
3, 127488, Note_on_c, 1, 56, 108
3, 127580, Note_off_c, 1, 56, 100
3, 127584, Note_on_c, 1, 59, 109
3, 127676, Note_off_c, 1, 59, 100
3, 127680, Note_on_c, 1, 64, 110
3, 127772, Note_off_c, 1, 64, 100
3, 127776, Note_on_c, 1, 68, 110
3, 127868, Note_off_c, 1, 68, 100
3, 127872, Note_on_c, 1, 69, 110
3, 127872, Note_on_c, 1, 71, 110
3, 127964, Note_off_c, 1, 69, 100
3, 127968, Note_on_c, 1, 68, 110
3, 128060, Note_off_c, 1, 68, 100
3, 128064, Note_on_c, 1, 66, 110
3, 128156, Note_off_c, 1, 66, 100
3, 128160, Note_on_c, 1, 68, 110
3, 128252, Note_off_c, 1, 68, 100
3, 128256, Note_on_c, 1, 69, 110
3, 128636, Note_off_c, 1, 71, 100
3, 128636, Note_off_c, 1, 69, 100
3, 128640, Note_on_c, 1, 69, 110
3, 128640, Note_on_c, 1, 71, 110
3, 128732, Note_off_c, 1, 69, 100
3, 128736, Note_on_c, 1, 68, 110
3, 128828, Note_off_c, 1, 68, 100
3, 128832, Note_on_c, 1, 66, 110
3, 128924, Note_off_c, 1, 66, 100
3, 128928, Note_on_c, 1, 68, 110
3, 129020, Note_off_c, 1, 68, 100
3, 129024, Note_on_c, 1, 69, 110
3, 129404, Note_off_c, 1, 71, 100
3, 129404, Note_off_c, 1, 69, 100
3, 129408, Note_on_c, 1, 69, 110
3, 129408, Note_on_c, 1, 71, 110
3, 129596, Note_off_c, 1, 69, 100
3, 129596, Note_off_c, 1, 71, 100
3, 129600, Note_on_c, 1, 68, 110
3, 129600, Note_on_c, 1, 71, 110
3, 129788, Note_off_c, 1, 68, 100
3, 129788, Note_off_c, 1, 71, 100
3, 129792, Note_on_c, 1, 66, 110
3, 129792, Note_on_c, 1, 69, 110
3, 129792, Note_on_c, 1, 71, 110
3, 129980, Note_off_c, 1, 66, 100
3, 129980, Note_off_c, 1, 69, 100
3, 129980, Note_off_c, 1, 71, 100
3, 129984, Note_on_c, 1, 64, 110
3, 129984, Note_on_c, 1, 68, 110
3, 129984, Note_on_c, 1, 71, 110
3, 130172, Note_off_c, 1, 64, 100
3, 130172, Note_off_c, 1, 68, 100
3, 130172, Note_off_c, 1, 71, 100
3, 130176, Note_on_c, 1, 63, 110
3, 130176, Note_on_c, 1, 66, 110
3, 130176, Note_on_c, 1, 71, 110
3, 130364, Note_off_c, 1, 63, 100
3, 130364, Note_off_c, 1, 66, 100
3, 130364, Note_off_c, 1, 71, 100
3, 130368, Note_on_c, 1, 61, 110
3, 130368, Note_on_c, 1, 64, 110
3, 130368, Note_on_c, 1, 71, 110
3, 130556, Note_off_c, 1, 61, 100
3, 130556, Note_off_c, 1, 64, 100
3, 130556, Note_off_c, 1, 71, 100
3, 130560, Note_on_c, 1, 59, 120
3, 130560, Note_on_c, 1, 63, 120
3, 130560, Note_on_c, 1, 71, 120
3, 130940, Note_off_c, 1, 59, 100
3, 130940, Note_off_c, 1, 63, 100
3, 130940, Note_off_c, 1, 71, 100
3, 132864, Note_on_c, 1, 64, 80
3, 133148, Note_off_c, 1, 64, 100
3, 133152, Note_on_c, 1, 63, 80
3, 133244, Note_off_c, 1, 63, 100
3, 133248, Note_on_c, 1, 61, 80
3, 133532, Note_off_c, 1, 61, 100
3, 133536, Note_on_c, 1, 63, 80
3, 133628, Note_off_c, 1, 63, 100
3, 133632, Note_on_c, 1, 64, 80
3, 134012, Note_off_c, 1, 64, 100
3, 134400, Note_on_c, 1, 54, 80
3, 134684, Note_off_c, 1, 54, 100
3, 134688, Note_on_c, 1, 53, 80
3, 134780, Note_off_c, 1, 53, 100
3, 134784, Note_on_c, 1, 54, 80
3, 135068, Note_off_c, 1, 54, 100
3, 135072, Note_on_c, 1, 52, 80
3, 135164, Note_off_c, 1, 52, 100
3, 135168, Note_on_c, 1, 49, 80
3, 135548, Note_off_c, 1, 49, 100
3, 135552, Note_on_c, 1, 47, 80
3, 135932, Note_off_c, 1, 47, 100
3, 135936, Control_c, 1, 64, 127
3, 135936, Note_on_c, 1, 64, 70
3, 135936, Note_on_c, 1, 68, 70
3, 136220, Note_off_c, 1, 64, 100
3, 136220, Note_off_c, 1, 68, 100
3, 136224, Note_on_c, 1, 59, 70
3, 136224, Note_on_c, 1, 66, 70
3, 136316, Note_off_c, 1, 59, 100
3, 136316, Note_off_c, 1, 66, 100
3, 136320, Note_on_c, 1, 56, 70
3, 136320, Note_on_c, 1, 64, 70
3, 136604, Note_off_c, 1, 56, 100
3, 136604, Note_off_c, 1, 64, 100
3, 136608, Note_on_c, 1, 59, 70
3, 136608, Note_on_c, 1, 66, 70
3, 136700, Note_off_c, 1, 59, 100
3, 136700, Note_off_c, 1, 66, 100
3, 136704, Note_on_c, 1, 64, 70
3, 136704, Note_on_c, 1, 68, 70
3, 137080, Control_c, 1, 64, 0
3, 137084, Note_off_c, 1, 64, 100
3, 137084, Note_off_c, 1, 68, 100
3, 137088, Note_on_c, 1, 71, 110
3, 137276, Note_off_c, 1, 71, 100
3, 137280, Note_on_c, 1, 59, 110
3, 137468, Note_off_c, 1, 59, 100
3, 137472, Note_on_c, 1, 64, 110
3, 137660, Note_off_c, 1, 64, 100
3, 137664, Note_on_c, 1, 52, 110
3, 137852, Note_off_c, 1, 52, 100
3, 137856, Note_on_c, 1, 59, 110
3, 138044, Note_off_c, 1, 59, 100
3, 138048, Note_on_c, 1, 47, 110
3, 138236, Note_off_c, 1, 47, 100
3, 138240, Note_on_c, 1, 40, 110
3, 138428, Note_off_c, 1, 40, 100
3, 138432, Note_on_c, 1, 52, 80
3, 138432, Note_on_c, 1, 56, 80
3, 138432, Note_on_c, 1, 59, 80
3, 138620, Note_off_c, 1, 52, 100
3, 138620, Note_off_c, 1, 56, 100
3, 138620, Note_off_c, 1, 59, 100
3, 138624, Note_on_c, 1, 40, 80
3, 138812, Note_off_c, 1, 40, 100
3, 138816, Note_on_c, 1, 52, 80
3, 138816, Note_on_c, 1, 56, 80
3, 138816, Note_on_c, 1, 59, 80
3, 139004, Note_off_c, 1, 52, 100
3, 139004, Note_off_c, 1, 56, 100
3, 139004, Note_off_c, 1, 59, 100
3, 139008, Note_on_c, 1, 52, 80
3, 139008, Note_on_c, 1, 56, 80
3, 139008, Note_on_c, 1, 59, 80
3, 139196, Note_off_c, 1, 52, 100
3, 139196, Note_off_c, 1, 56, 100
3, 139196, Note_off_c, 1, 59, 100
3, 139200, Note_on_c, 1, 52, 80
3, 139200, Note_on_c, 1, 56, 80
3, 139200, Note_on_c, 1, 59, 80
3, 139388, Note_off_c, 1, 52, 100
3, 139388, Note_off_c, 1, 56, 100
3, 139388, Note_off_c, 1, 59, 100
3, 139392, Note_on_c, 1, 40, 80
3, 139580, Note_off_c, 1, 40, 100
3, 139584, Note_on_c, 1, 52, 80
3, 139584, Note_on_c, 1, 57, 80
3, 139584, Note_on_c, 1, 61, 80
3, 139772, Note_off_c, 1, 52, 100
3, 139772, Note_off_c, 1, 57, 100
3, 139772, Note_off_c, 1, 61, 100
3, 139776, Note_on_c, 1, 52, 80
3, 139776, Note_on_c, 1, 57, 80
3, 139776, Note_on_c, 1, 61, 80
3, 139964, Note_off_c, 1, 52, 100
3, 139964, Note_off_c, 1, 57, 100
3, 139964, Note_off_c, 1, 61, 100
3, 139968, Note_on_c, 1, 52, 80
3, 139968, Note_on_c, 1, 57, 80
3, 139968, Note_on_c, 1, 61, 80
3, 140156, Note_off_c, 1, 52, 100
3, 140156, Note_off_c, 1, 57, 100
3, 140156, Note_off_c, 1, 61, 100
3, 140160, Note_on_c, 1, 40, 80
3, 140348, Note_off_c, 1, 40, 100
3, 140352, Note_on_c, 1, 52, 80
3, 140352, Note_on_c, 1, 54, 80
3, 140352, Note_on_c, 1, 57, 80
3, 140352, Note_on_c, 1, 59, 80
3, 140540, Note_off_c, 1, 52, 100
3, 140540, Note_off_c, 1, 54, 100
3, 140540, Note_off_c, 1, 57, 100
3, 140540, Note_off_c, 1, 59, 100
3, 140544, Note_on_c, 1, 52, 80
3, 140544, Note_on_c, 1, 54, 80
3, 140544, Note_on_c, 1, 57, 80
3, 140544, Note_on_c, 1, 59, 80
3, 140732, Note_off_c, 1, 52, 100
3, 140732, Note_off_c, 1, 54, 100
3, 140732, Note_off_c, 1, 57, 100
3, 140732, Note_off_c, 1, 59, 100
3, 140736, Note_on_c, 1, 52, 80
3, 140736, Note_on_c, 1, 54, 80
3, 140736, Note_on_c, 1, 57, 80
3, 140736, Note_on_c, 1, 59, 80
3, 140924, Note_off_c, 1, 52, 100
3, 140924, Note_off_c, 1, 54, 100
3, 140924, Note_off_c, 1, 57, 100
3, 140924, Note_off_c, 1, 59, 100
3, 140928, Note_on_c, 1, 40, 80
3, 141116, Note_off_c, 1, 40, 100
3, 141120, Note_on_c, 1, 52, 80
3, 141120, Note_on_c, 1, 56, 80
3, 141120, Note_on_c, 1, 59, 80
3, 141308, Note_off_c, 1, 52, 100
3, 141308, Note_off_c, 1, 56, 100
3, 141308, Note_off_c, 1, 59, 100
3, 141312, Note_on_c, 1, 52, 80
3, 141312, Note_on_c, 1, 56, 80
3, 141312, Note_on_c, 1, 59, 80
3, 141500, Note_off_c, 1, 52, 100
3, 141500, Note_off_c, 1, 56, 100
3, 141500, Note_off_c, 1, 59, 100
3, 141504, Note_on_c, 1, 52, 80
3, 141504, Note_on_c, 1, 56, 80
3, 141504, Note_on_c, 1, 59, 80
3, 141692, Note_off_c, 1, 52, 100
3, 141692, Note_off_c, 1, 56, 100
3, 141692, Note_off_c, 1, 59, 100
3, 141696, Note_on_c, 1, 40, 80
3, 141884, Note_off_c, 1, 40, 100
3, 141888, Note_on_c, 1, 52, 81
3, 141888, Note_on_c, 1, 56, 81
3, 141888, Note_on_c, 1, 59, 81
3, 142076, Note_off_c, 1, 52, 100
3, 142076, Note_off_c, 1, 56, 100
3, 142076, Note_off_c, 1, 59, 100
3, 142080, Note_on_c, 1, 52, 83
3, 142080, Note_on_c, 1, 56, 83
3, 142080, Note_on_c, 1, 59, 83
3, 142268, Note_off_c, 1, 52, 100
3, 142268, Note_off_c, 1, 56, 100
3, 142268, Note_off_c, 1, 59, 100
3, 142272, Note_on_c, 1, 52, 85
3, 142272, Note_on_c, 1, 56, 85
3, 142272, Note_on_c, 1, 59, 85
3, 142460, Note_off_c, 1, 52, 100
3, 142460, Note_off_c, 1, 56, 100
3, 142460, Note_off_c, 1, 59, 100
3, 142464, Note_on_c, 1, 40, 87
3, 142652, Note_off_c, 1, 40, 100
3, 142656, Note_on_c, 1, 52, 89
3, 142656, Note_on_c, 1, 57, 89
3, 142656, Note_on_c, 1, 61, 89
3, 142844, Note_off_c, 1, 52, 100
3, 142844, Note_off_c, 1, 57, 100
3, 142844, Note_off_c, 1, 61, 100
3, 142848, Note_on_c, 1, 52, 90
3, 142848, Note_on_c, 1, 57, 90
3, 142848, Note_on_c, 1, 61, 90
3, 143036, Note_off_c, 1, 52, 100
3, 143036, Note_off_c, 1, 57, 100
3, 143036, Note_off_c, 1, 61, 100
3, 143040, Note_on_c, 1, 52, 92
3, 143040, Note_on_c, 1, 57, 92
3, 143040, Note_on_c, 1, 61, 92
3, 143228, Note_off_c, 1, 52, 100
3, 143228, Note_off_c, 1, 57, 100
3, 143228, Note_off_c, 1, 61, 100
3, 143232, Note_on_c, 1, 40, 94
3, 143420, Note_off_c, 1, 40, 100
3, 143424, Note_on_c, 1, 52, 96
3, 143424, Note_on_c, 1, 54, 96
3, 143424, Note_on_c, 1, 57, 96
3, 143424, Note_on_c, 1, 59, 96
3, 143612, Note_off_c, 1, 52, 100
3, 143612, Note_off_c, 1, 54, 100
3, 143612, Note_off_c, 1, 57, 100
3, 143612, Note_off_c, 1, 59, 100
3, 143616, Note_on_c, 1, 52, 98
3, 143616, Note_on_c, 1, 54, 98
3, 143616, Note_on_c, 1, 57, 98
3, 143616, Note_on_c, 1, 59, 98
3, 143804, Note_off_c, 1, 52, 100
3, 143804, Note_off_c, 1, 54, 100
3, 143804, Note_off_c, 1, 57, 100
3, 143804, Note_off_c, 1, 59, 100
3, 143808, Note_on_c, 1, 52, 100
3, 143808, Note_on_c, 1, 54, 100
3, 143808, Note_on_c, 1, 57, 100
3, 143808, Note_on_c, 1, 59, 100
3, 143996, Note_off_c, 1, 52, 100
3, 143996, Note_off_c, 1, 54, 100
3, 143996, Note_off_c, 1, 57, 100
3, 143996, Note_off_c, 1, 59, 100
3, 144000, Note_on_c, 1, 40, 80
3, 144092, Note_off_c, 1, 40, 100
3, 144096, Note_on_c, 1, 42, 82
3, 144188, Note_off_c, 1, 42, 100
3, 144192, Note_on_c, 1, 44, 84
3, 144284, Note_off_c, 1, 44, 100
3, 144288, Note_on_c, 1, 45, 86
3, 144380, Note_off_c, 1, 45, 100
3, 144384, Note_on_c, 1, 44, 88
3, 144476, Note_off_c, 1, 44, 100
3, 144480, Note_on_c, 1, 45, 90
3, 144572, Note_off_c, 1, 45, 100
3, 144576, Note_on_c, 1, 47, 92
3, 144668, Note_off_c, 1, 47, 100
3, 144672, Note_on_c, 1, 49, 94
3, 144764, Note_off_c, 1, 49, 100
3, 144768, Note_on_c, 1, 47, 96
3, 144860, Note_off_c, 1, 47, 100
3, 144864, Note_on_c, 1, 49, 98
3, 144956, Note_off_c, 1, 49, 100
3, 144960, Note_on_c, 1, 51, 100
3, 145052, Note_off_c, 1, 51, 100
3, 145056, Note_on_c, 1, 52, 102
3, 145148, Note_off_c, 1, 52, 100
3, 145152, Note_on_c, 1, 51, 104
3, 145244, Note_off_c, 1, 51, 100
3, 145248, Note_on_c, 1, 52, 106
3, 145340, Note_off_c, 1, 52, 100
3, 145344, Note_on_c, 1, 54, 108
3, 145436, Note_off_c, 1, 54, 100
3, 145440, Note_on_c, 1, 56, 110
3, 145532, Note_off_c, 1, 56, 100
3, 145536, Note_on_c, 1, 47, 110
3, 145536, Note_on_c, 1, 54, 110
3, 145536, Note_on_c, 1, 57, 110
3, 145724, Note_off_c, 1, 47, 100
3, 145724, Note_off_c, 1, 54, 100
3, 145724, Note_off_c, 1, 57, 100
3, 145728, Note_on_c, 1, 35, 110
3, 145728, Note_on_c, 1, 47, 110
3, 146108, Note_off_c, 1, 35, 100
3, 146108, Note_off_c, 1, 47, 100
3, 146112, Note_on_c, 1, 35, 110
3, 146112, Note_on_c, 1, 47, 110
3, 146588, Note_off_c, 1, 47, 64
3, 146588, Note_off_c, 1, 35, 64
3, 146592, Note_on_c, 1, 47, 110
3, 146592, Note_on_c, 1, 54, 110
3, 146592, Note_on_c, 1, 57, 110
3, 146684, Note_off_c, 1, 47, 100
3, 146684, Note_off_c, 1, 54, 100
3, 146684, Note_off_c, 1, 57, 100
3, 146688, Note_on_c, 1, 47, 110
3, 146688, Note_on_c, 1, 54, 110
3, 146688, Note_on_c, 1, 57, 110
3, 146972, Note_off_c, 1, 47, 100
3, 146972, Note_off_c, 1, 54, 100
3, 146972, Note_off_c, 1, 57, 100
3, 146976, Note_on_c, 1, 47, 110
3, 146976, Note_on_c, 1, 54, 110
3, 146976, Note_on_c, 1, 57, 110
3, 147068, Note_off_c, 1, 47, 100
3, 147068, Note_off_c, 1, 54, 100
3, 147068, Note_off_c, 1, 57, 100
3, 147072, Note_on_c, 1, 52, 110
3, 147164, Note_off_c, 1, 52, 100
3, 147168, Note_on_c, 1, 54, 80
3, 147260, Note_off_c, 1, 54, 100
3, 147264, Note_on_c, 1, 56, 82
3, 147356, Note_off_c, 1, 56, 100
3, 147360, Note_on_c, 1, 57, 84
3, 147452, Note_off_c, 1, 57, 100
3, 147456, Note_on_c, 1, 56, 86
3, 147548, Note_off_c, 1, 56, 100
3, 147552, Note_on_c, 1, 57, 88
3, 147644, Note_off_c, 1, 57, 100
3, 147648, Note_on_c, 1, 59, 91
3, 147740, Note_off_c, 1, 59, 100
3, 147744, Note_on_c, 1, 61, 93
3, 147836, Note_off_c, 1, 61, 100
3, 147840, Note_on_c, 1, 59, 95
3, 147932, Note_off_c, 1, 59, 100
3, 147936, Note_on_c, 1, 61, 97
3, 148028, Note_off_c, 1, 61, 100
3, 148032, Note_on_c, 1, 63, 99
3, 148124, Note_off_c, 1, 63, 100
3, 148128, Note_on_c, 1, 64, 102
3, 148220, Note_off_c, 1, 64, 100
3, 148224, Note_on_c, 1, 63, 104
3, 148316, Note_off_c, 1, 63, 100
3, 148320, Note_on_c, 1, 64, 106
3, 148412, Note_off_c, 1, 64, 100
3, 148416, Note_on_c, 1, 66, 108
3, 148508, Note_off_c, 1, 66, 100
3, 148512, Note_on_c, 1, 68, 110
3, 148604, Note_off_c, 1, 68, 100
3, 148608, Note_on_c, 1, 59, 120
3, 148608, Note_on_c, 1, 66, 120
3, 148608, Note_on_c, 1, 69, 120
3, 148796, Note_off_c, 1, 59, 100
3, 148796, Note_off_c, 1, 66, 100
3, 148796, Note_off_c, 1, 69, 100
3, 148800, Note_on_c, 1, 47, 120
3, 148800, Note_on_c, 1, 59, 120
3, 149180, Note_off_c, 1, 47, 100
3, 149180, Note_off_c, 1, 59, 100
3, 149184, Note_on_c, 1, 47, 120
3, 149184, Note_on_c, 1, 59, 120
3, 149660, Note_off_c, 1, 59, 64
3, 149660, Note_off_c, 1, 47, 64
3, 149664, Note_on_c, 1, 59, 120
3, 149664, Note_on_c, 1, 66, 120
3, 149664, Note_on_c, 1, 69, 120
3, 149756, Note_off_c, 1, 59, 100
3, 149756, Note_off_c, 1, 66, 100
3, 149756, Note_off_c, 1, 69, 100
3, 149760, Note_on_c, 1, 59, 120
3, 149760, Note_on_c, 1, 66, 120
3, 149760, Note_on_c, 1, 69, 120
3, 150044, Note_off_c, 1, 59, 100
3, 150044, Note_off_c, 1, 66, 100
3, 150044, Note_off_c, 1, 69, 100
3, 150048, Note_on_c, 1, 59, 120
3, 150048, Note_on_c, 1, 66, 120
3, 150048, Note_on_c, 1, 69, 120
3, 150140, Note_off_c, 1, 59, 100
3, 150140, Note_off_c, 1, 66, 100
3, 150140, Note_off_c, 1, 69, 100
3, 150144, Note_on_c, 1, 61, 120
3, 150144, Note_on_c, 1, 64, 120
3, 150144, Note_on_c, 1, 68, 120
3, 150524, Note_off_c, 1, 61, 100
3, 150524, Note_off_c, 1, 64, 100
3, 150524, Note_off_c, 1, 68, 100
3, 150720, Note_on_c, 1, 57, 80
3, 150720, Note_on_c, 1, 69, 80
3, 150908, Note_off_c, 1, 57, 100
3, 150908, Note_off_c, 1, 69, 100
3, 150912, Note_on_c, 1, 57, 80
3, 150912, Note_on_c, 1, 69, 80
3, 151292, Note_off_c, 1, 57, 100
3, 151292, Note_off_c, 1, 69, 100
3, 151488, Note_on_c, 1, 54, 80
3, 151488, Note_on_c, 1, 66, 80
3, 151676, Note_off_c, 1, 54, 100
3, 151676, Note_off_c, 1, 66, 100
3, 151680, Note_on_c, 1, 54, 80
3, 151680, Note_on_c, 1, 66, 80
3, 151868, Note_off_c, 1, 54, 100
3, 151868, Note_off_c, 1, 66, 100
3, 151872, Note_on_c, 1, 59, 80
3, 151872, Note_on_c, 1, 66, 80
3, 152060, Note_off_c, 1, 59, 100
3, 152060, Note_off_c, 1, 66, 100
3, 152064, Note_on_c, 1, 59, 80
3, 152064, Note_on_c, 1, 66, 80
3, 152252, Note_off_c, 1, 59, 100
3, 152252, Note_off_c, 1, 66, 100
3, 152256, Note_on_c, 1, 52, 80
3, 152256, Note_on_c, 1, 66, 80
3, 152444, Note_off_c, 1, 52, 100
3, 152444, Note_off_c, 1, 66, 100
3, 152448, Note_on_c, 1, 47, 80
3, 152448, Note_on_c, 1, 59, 80
3, 152828, Note_off_c, 1, 47, 100
3, 152828, Note_off_c, 1, 59, 100
3, 153216, Note_on_c, 1, 51, 70
3, 153596, Note_off_c, 1, 51, 100
3, 153792, Note_on_c, 1, 52, 70
3, 153980, Note_off_c, 1, 52, 100
3, 153984, Note_on_c, 1, 52, 70
3, 154364, Note_off_c, 1, 52, 100
3, 154560, Note_on_c, 1, 45, 70
3, 154748, Note_off_c, 1, 45, 100
3, 154752, Note_on_c, 1, 45, 70
3, 154940, Note_off_c, 1, 45, 100
3, 154944, Note_on_c, 1, 47, 70
3, 155132, Note_off_c, 1, 47, 100
3, 155136, Note_on_c, 1, 47, 70
3, 155324, Note_off_c, 1, 47, 100
3, 155328, Note_on_c, 1, 40, 70
3, 155516, Note_off_c, 1, 40, 100
3, 155520, Note_on_c, 1, 40, 70
3, 155900, Note_off_c, 1, 40, 100
3, 156288, Note_on_c, 1, 40, 70
3, 156288, Note_on_c, 1, 52, 70
3, 157052, Note_off_c, 1, 40, 100
3, 157052, Note_off_c, 1, 52, 100
3, 157056, Note_on_c, 1, 52, 70
3, 157056, Note_on_c, 1, 49, 70
3, 157244, Note_off_c, 1, 52, 100
3, 157248, Note_on_c, 1, 57, 70
3, 157436, Note_off_c, 1, 57, 100
3, 157440, Note_on_c, 1, 57, 70
3, 157628, Note_off_c, 1, 57, 100
3, 157632, Note_on_c, 1, 52, 70
3, 157820, Note_off_c, 1, 49, 100
3, 157820, Note_off_c, 1, 52, 100
3, 157824, Note_on_c, 1, 44, 70
3, 157824, Note_on_c, 1, 52, 70
3, 158588, Note_off_c, 1, 44, 100
3, 158588, Note_off_c, 1, 52, 100
3, 158592, Note_on_c, 1, 52, 70
3, 158592, Note_on_c, 1, 45, 70
3, 158780, Note_off_c, 1, 52, 100
3, 158784, Note_on_c, 1, 57, 70
3, 158972, Note_off_c, 1, 57, 100
3, 158976, Note_on_c, 1, 57, 70
3, 159164, Note_off_c, 1, 45, 100
3, 159164, Note_off_c, 1, 57, 100
3, 159168, Note_on_c, 1, 45, 70
3, 159356, Note_off_c, 1, 45, 100
3, 159360, Note_on_c, 1, 42, 70
3, 159360, Note_on_c, 1, 45, 70
3, 160124, Note_off_c, 1, 42, 100
3, 160124, Note_off_c, 1, 45, 100
3, 160128, Note_on_c, 1, 45, 70
3, 160128, Note_on_c, 1, 37, 70
3, 160316, Note_off_c, 1, 45, 100
3, 160320, Note_on_c, 1, 52, 70
3, 160508, Note_off_c, 1, 52, 100
3, 160512, Note_on_c, 1, 52, 70
3, 160700, Note_off_c, 1, 52, 100
3, 160704, Note_on_c, 1, 45, 70
3, 160892, Note_off_c, 1, 37, 100
3, 160892, Note_off_c, 1, 45, 100
3, 160896, Note_on_c, 1, 38, 70
3, 160896, Note_on_c, 1, 50, 70
3, 161084, Note_off_c, 1, 38, 100
3, 161084, Note_off_c, 1, 50, 100
3, 161088, Note_on_c, 1, 40, 70
3, 161088, Note_on_c, 1, 52, 70
3, 161276, Note_off_c, 1, 40, 100
3, 161276, Note_off_c, 1, 52, 100
3, 161280, Note_on_c, 1, 42, 70
3, 161280, Note_on_c, 1, 54, 70
3, 161468, Note_off_c, 1, 42, 100
3, 161468, Note_off_c, 1, 54, 100
3, 161472, Note_on_c, 1, 39, 70
3, 161472, Note_on_c, 1, 51, 70
3, 161660, Note_off_c, 1, 39, 100
3, 161660, Note_off_c, 1, 51, 100
3, 161664, Note_on_c, 1, 40, 70
3, 161664, Note_on_c, 1, 52, 70
3, 162428, Note_off_c, 1, 40, 100
3, 162428, Note_off_c, 1, 52, 100
3, 162432, Note_on_c, 1, 52, 70
3, 162480, Note_on_c, 1, 57, 70
3, 162528, Note_on_c, 1, 60, 70
3, 163004, Note_off_c, 1, 52, 100
3, 163004, Note_off_c, 1, 57, 100
3, 163004, Note_off_c, 1, 60, 100
3, 163008, Note_on_c, 1, 40, 120
3, 163008, Note_on_c, 1, 52, 120
3, 163196, Note_off_c, 1, 40, 100
3, 163196, Note_off_c, 1, 52, 100
3, 163200, Note_on_c, 1, 36, 120
3, 163200, Note_on_c, 1, 48, 120
3, 163580, Note_off_c, 1, 36, 100
3, 163580, Note_off_c, 1, 48, 100
3, 164544, Note_on_c, 1, 40, 80
3, 164732, Note_off_c, 1, 40, 100
3, 164736, Note_on_c, 1, 36, 80
3, 165212, Note_off_c, 1, 36, 100
3, 165216, Note_on_c, 1, 38, 80
3, 165308, Note_off_c, 1, 38, 100
3, 165312, Note_on_c, 1, 40, 80
3, 165404, Note_off_c, 1, 40, 100
3, 165408, Note_on_c, 1, 41, 80
3, 165500, Note_off_c, 1, 41, 100
3, 165504, Note_on_c, 1, 35, 80
3, 165884, Note_off_c, 1, 35, 100
3, 166080, Note_on_c, 1, 38, 80
3, 166268, Note_off_c, 1, 38, 100
3, 166272, Note_on_c, 1, 35, 80
3, 166748, Note_off_c, 1, 35, 100
3, 166752, Note_on_c, 1, 36, 80
3, 166844, Note_off_c, 1, 36, 100
3, 166848, Note_on_c, 1, 38, 80
3, 166940, Note_off_c, 1, 38, 100
3, 166944, Note_on_c, 1, 40, 80
3, 167036, Note_off_c, 1, 40, 100
3, 167040, Note_on_c, 1, 33, 80
3, 167228, Note_off_c, 1, 33, 100
3, 167232, Note_on_c, 1, 45, 80
3, 167420, Note_off_c, 1, 45, 100
3, 167424, Note_on_c, 1, 45, 80
3, 167612, Note_off_c, 1, 45, 100
3, 167616, Note_on_c, 1, 43, 80
3, 167804, Note_off_c, 1, 43, 100
3, 167808, Note_on_c, 1, 45, 80
3, 167996, Note_off_c, 1, 45, 100
3, 168000, Note_on_c, 1, 43, 80
3, 168188, Note_off_c, 1, 43, 100
3, 168192, Note_on_c, 1, 41, 80
3, 168240, Note_on_c, 1, 43, 80
3, 168268, Note_off_c, 1, 41, 100
3, 168288, Note_on_c, 1, 41, 80
3, 168328, Note_off_c, 1, 43, 100
3, 168336, Note_on_c, 1, 43, 80
3, 168368, Note_off_c, 1, 41, 100
3, 168384, Note_on_c, 1, 41, 80
3, 168412, Note_off_c, 1, 43, 100
3, 168432, Note_on_c, 1, 43, 80
3, 168460, Note_off_c, 1, 41, 100
3, 168480, Note_on_c, 1, 40, 80
3, 168508, Note_off_c, 1, 43, 100
3, 168528, Note_on_c, 1, 41, 80
3, 168556, Note_off_c, 1, 40, 100
3, 168572, Note_off_c, 1, 41, 100
3, 168768, Note_on_c, 1, 43, 80
3, 168956, Note_off_c, 1, 43, 100
3, 168960, Note_on_c, 1, 43, 80
3, 169148, Note_off_c, 1, 43, 100
3, 169152, Note_on_c, 1, 41, 80
3, 169340, Note_off_c, 1, 41, 100
3, 169344, Note_on_c, 1, 43, 80
3, 169532, Note_off_c, 1, 43, 100
3, 169536, Note_on_c, 1, 41, 80
3, 169724, Note_off_c, 1, 41, 100
3, 169728, Note_on_c, 1, 40, 80
3, 169916, Note_off_c, 1, 40, 100
3, 169920, Note_on_c, 1, 38, 80
3, 170012, Note_off_c, 1, 38, 100
3, 170016, Note_on_c, 1, 36, 80
3, 170108, Note_off_c, 1, 36, 100
3, 170112, Note_on_c, 1, 48, 80
3, 170204, Note_off_c, 1, 48, 100
3, 170208, Note_on_c, 1, 47, 80
3, 170300, Note_off_c, 1, 47, 100
3, 170304, Note_on_c, 1, 45, 80
3, 170396, Note_off_c, 1, 45, 100
3, 170400, Note_on_c, 1, 43, 80
3, 170492, Note_off_c, 1, 43, 100
3, 170496, Note_on_c, 1, 48, 80
3, 170972, Note_off_c, 1, 48, 64
3, 170976, Note_on_c, 1, 47, 80
3, 171068, Note_off_c, 1, 47, 100
3, 171072, Note_on_c, 1, 45, 80
3, 171164, Note_off_c, 1, 45, 100
3, 171168, Note_on_c, 1, 43, 80
3, 171260, Note_off_c, 1, 43, 100
3, 171264, Note_on_c, 1, 46, 80
3, 171740, Note_off_c, 1, 46, 64
3, 171744, Note_on_c, 1, 45, 80
3, 171836, Note_off_c, 1, 45, 100
3, 171840, Note_on_c, 1, 43, 80
3, 171932, Note_off_c, 1, 43, 100
3, 171936, Note_on_c, 1, 41, 80
3, 172028, Note_off_c, 1, 41, 100
3, 172032, Note_on_c, 1, 46, 80
3, 172508, Note_off_c, 1, 46, 64
3, 172512, Note_on_c, 1, 45, 80
3, 172604, Note_off_c, 1, 45, 100
3, 172608, Note_on_c, 1, 43, 80
3, 172700, Note_off_c, 1, 43, 100
3, 172704, Note_on_c, 1, 41, 80
3, 172796, Note_off_c, 1, 41, 100
3, 172800, Note_on_c, 1, 40, 80
3, 172988, Note_off_c, 1, 40, 100
3, 172992, Note_on_c, 1, 41, 80
3, 173180, Note_off_c, 1, 41, 100
3, 173184, Note_on_c, 1, 38, 80
3, 173372, Note_off_c, 1, 38, 100
3, 173376, Note_on_c, 1, 40, 80
3, 173564, Note_off_c, 1, 40, 100
3, 173568, Note_on_c, 1, 40, 80
3, 173756, Note_off_c, 1, 40, 100
3, 173760, Note_on_c, 1, 38, 80
3, 173948, Note_off_c, 1, 38, 100
3, 173952, Note_on_c, 1, 40, 80
3, 174140, Note_off_c, 1, 40, 100
3, 174144, Note_on_c, 1, 38, 80
3, 174332, Note_off_c, 1, 38, 100
3, 174336, Note_on_c, 1, 37, 80
3, 174384, Note_on_c, 1, 38, 80
3, 174412, Note_off_c, 1, 37, 100
3, 174432, Note_on_c, 1, 37, 80
3, 174476, Note_off_c, 1, 38, 100
3, 174480, Note_on_c, 1, 38, 80
3, 174504, Note_off_c, 1, 37, 100
3, 174528, Note_on_c, 1, 37, 80
3, 174556, Note_off_c, 1, 38, 100
3, 174576, Note_on_c, 1, 38, 80
3, 174608, Note_off_c, 1, 37, 100
3, 174624, Note_on_c, 1, 35, 80
3, 174652, Note_off_c, 1, 38, 100
3, 174672, Note_on_c, 1, 37, 80
3, 174700, Note_off_c, 1, 35, 100
3, 174716, Note_off_c, 1, 37, 100
3, 174912, Note_on_c, 1, 38, 80
3, 175100, Note_off_c, 1, 38, 100
3, 175104, Note_on_c, 1, 50, 80
3, 175104, Note_on_c, 1, 53, 80
3, 175292, Note_off_c, 1, 50, 100
3, 175292, Note_off_c, 1, 53, 100
3, 175296, Note_on_c, 1, 52, 80
3, 175296, Note_on_c, 1, 55, 80
3, 175388, Note_off_c, 1, 52, 100
3, 175388, Note_off_c, 1, 55, 100
3, 175392, Note_on_c, 1, 53, 80
3, 175392, Note_on_c, 1, 57, 80
3, 175484, Note_off_c, 1, 53, 100
3, 175484, Note_off_c, 1, 57, 100
3, 175488, Note_on_c, 1, 55, 80
3, 175488, Note_on_c, 1, 58, 80
3, 175580, Note_off_c, 1, 55, 100
3, 175580, Note_off_c, 1, 58, 100
3, 175584, Note_on_c, 1, 53, 80
3, 175584, Note_on_c, 1, 57, 80
3, 175676, Note_off_c, 1, 53, 100
3, 175676, Note_off_c, 1, 57, 100
3, 175680, Note_on_c, 1, 52, 80
3, 175680, Note_on_c, 1, 55, 80
3, 175772, Note_off_c, 1, 52, 100
3, 175772, Note_off_c, 1, 55, 100
3, 175776, Note_on_c, 1, 50, 80
3, 175776, Note_on_c, 1, 53, 80
3, 175868, Note_off_c, 1, 50, 100
3, 175868, Note_off_c, 1, 53, 100
3, 175872, Note_on_c, 1, 55, 80
3, 175872, Note_on_c, 1, 59, 80
3, 176348, Note_off_c, 1, 59, 64
3, 176348, Note_off_c, 1, 55, 64
3, 176352, Note_on_c, 1, 53, 80
3, 176352, Note_on_c, 1, 57, 80
3, 176444, Note_off_c, 1, 53, 100
3, 176444, Note_off_c, 1, 57, 100
3, 176448, Note_on_c, 1, 52, 80
3, 176448, Note_on_c, 1, 55, 80
3, 176540, Note_off_c, 1, 52, 100
3, 176540, Note_off_c, 1, 55, 100
3, 176544, Note_on_c, 1, 50, 80
3, 176544, Note_on_c, 1, 53, 80
3, 176636, Note_off_c, 1, 50, 100
3, 176636, Note_off_c, 1, 53, 100
3, 176640, Note_on_c, 1, 52, 80
3, 176640, Note_on_c, 1, 55, 80
3, 176828, Note_off_c, 1, 52, 100
3, 176828, Note_off_c, 1, 55, 100
3, 177024, Note_on_c, 1, 53, 80
3, 177024, Note_on_c, 1, 57, 80
3, 177116, Note_off_c, 1, 53, 100
3, 177116, Note_off_c, 1, 57, 100
3, 177120, Note_on_c, 1, 52, 80
3, 177120, Note_on_c, 1, 55, 80
3, 177212, Note_off_c, 1, 52, 100
3, 177212, Note_off_c, 1, 55, 100
3, 177216, Note_on_c, 1, 50, 80
3, 177216, Note_on_c, 1, 53, 80
3, 177308, Note_off_c, 1, 50, 100
3, 177308, Note_off_c, 1, 53, 100
3, 177312, Note_on_c, 1, 49, 80
3, 177312, Note_on_c, 1, 52, 80
3, 177404, Note_off_c, 1, 49, 100
3, 177404, Note_off_c, 1, 52, 100
3, 177408, Note_on_c, 1, 53, 80
3, 177408, Note_on_c, 1, 57, 80
3, 177884, Note_off_c, 1, 57, 64
3, 177884, Note_off_c, 1, 53, 64
3, 177888, Note_on_c, 1, 52, 80
3, 177888, Note_on_c, 1, 55, 80
3, 177980, Note_off_c, 1, 52, 100
3, 177980, Note_off_c, 1, 55, 100
3, 177984, Note_on_c, 1, 50, 80
3, 177984, Note_on_c, 1, 53, 80
3, 178076, Note_off_c, 1, 50, 100
3, 178076, Note_off_c, 1, 53, 100
3, 178080, Note_on_c, 1, 49, 80
3, 178080, Note_on_c, 1, 52, 80
3, 178172, Note_off_c, 1, 49, 100
3, 178172, Note_off_c, 1, 52, 100
3, 178176, Note_on_c, 1, 50, 80
3, 178176, Note_on_c, 1, 53, 80
3, 178364, Note_off_c, 1, 50, 100
3, 178364, Note_off_c, 1, 53, 100
3, 178368, Note_on_c, 1, 62, 80
3, 178368, Note_on_c, 1, 53, 80
3, 178556, Note_off_c, 1, 62, 100
3, 178556, Note_off_c, 1, 53, 100
3, 178752, Note_on_c, 1, 55, 80
3, 178752, Note_on_c, 1, 64, 80
3, 178940, Note_off_c, 1, 55, 100
3, 178940, Note_off_c, 1, 64, 100
3, 178944, Note_on_c, 1, 55, 80
3, 178944, Note_on_c, 1, 64, 80
3, 179132, Note_off_c, 1, 55, 100
3, 179132, Note_off_c, 1, 64, 100
3, 179136, Note_on_c, 1, 53, 80
3, 179136, Note_on_c, 1, 62, 80
3, 179324, Note_off_c, 1, 53, 100
3, 179324, Note_off_c, 1, 62, 100
3, 179328, Note_on_c, 1, 55, 80
3, 179328, Note_on_c, 1, 64, 80
3, 179516, Note_off_c, 1, 55, 100
3, 179516, Note_off_c, 1, 64, 100
3, 179520, Note_on_c, 1, 53, 80
3, 179520, Note_on_c, 1, 62, 80
3, 179708, Note_off_c, 1, 53, 100
3, 179708, Note_off_c, 1, 62, 100
3, 179712, Note_on_c, 1, 52, 80
3, 179712, Note_on_c, 1, 60, 80
3, 180092, Note_off_c, 1, 52, 100
3, 180092, Note_off_c, 1, 60, 100
3, 180288, Note_on_c, 1, 53, 80
3, 180288, Note_on_c, 1, 62, 80
3, 180476, Note_off_c, 1, 53, 100
3, 180476, Note_off_c, 1, 62, 100
3, 180480, Note_on_c, 1, 55, 80
3, 180480, Note_on_c, 1, 62, 80
3, 180668, Note_off_c, 1, 55, 100
3, 180668, Note_off_c, 1, 62, 100
3, 180672, Note_on_c, 1, 52, 80
3, 180672, Note_on_c, 1, 60, 80
3, 180860, Note_off_c, 1, 52, 100
3, 180860, Note_off_c, 1, 60, 100
3, 180864, Note_on_c, 1, 50, 80
3, 180864, Note_on_c, 1, 62, 80
3, 181052, Note_off_c, 1, 50, 100
3, 181052, Note_off_c, 1, 62, 100
3, 181056, Note_on_c, 1, 53, 80
3, 181056, Note_on_c, 1, 60, 80
3, 181244, Note_off_c, 1, 53, 100
3, 181244, Note_off_c, 1, 60, 100
3, 181248, Note_on_c, 1, 52, 80
3, 181248, Note_on_c, 1, 60, 80
3, 181436, Note_off_c, 1, 60, 100
3, 181440, Note_on_c, 1, 59, 80
3, 181628, Note_off_c, 1, 52, 100
3, 181628, Note_off_c, 1, 59, 100
3, 181632, Note_on_c, 1, 60, 80
3, 181632, Note_on_c, 1, 45, 80
3, 181724, Note_off_c, 1, 60, 100
3, 181728, Note_on_c, 1, 59, 81
3, 181820, Note_off_c, 1, 59, 100
3, 181824, Note_on_c, 1, 57, 82
3, 181916, Note_off_c, 1, 57, 100
3, 181920, Note_on_c, 1, 56, 84
3, 182012, Note_off_c, 1, 45, 100
3, 182012, Note_off_c, 1, 56, 100
3, 182016, Note_on_c, 1, 60, 85
3, 182400, Note_on_c, 1, 52, 90
3, 182492, Note_off_c, 1, 60, 64
3, 182496, Note_on_c, 1, 59, 92
3, 182588, Note_off_c, 1, 59, 100
3, 182592, Note_on_c, 1, 57, 93
3, 182684, Note_off_c, 1, 57, 100
3, 182688, Note_on_c, 1, 56, 94
3, 182780, Note_off_c, 1, 56, 100
3, 182784, Note_on_c, 1, 59, 96
3, 183260, Note_off_c, 1, 59, 64
3, 183264, Note_on_c, 1, 59, 102
3, 183356, Note_off_c, 1, 59, 100
3, 183360, Note_on_c, 1, 57, 104
3, 183452, Note_off_c, 1, 57, 100
3, 183456, Note_on_c, 1, 56, 105
3, 183548, Note_off_c, 1, 52, 64
3, 183548, Note_off_c, 1, 56, 100
3, 183552, Note_on_c, 1, 52, 106
3, 183552, Note_on_c, 1, 59, 106
3, 183740, Note_off_c, 1, 52, 100
3, 183740, Note_off_c, 1, 59, 100
3, 183744, Note_on_c, 1, 50, 109
3, 183744, Note_on_c, 1, 56, 109
3, 183932, Note_off_c, 1, 50, 100
3, 183932, Note_off_c, 1, 56, 100
3, 183936, Note_on_c, 1, 48, 110
3, 183936, Note_on_c, 1, 57, 110
3, 184316, Note_off_c, 1, 48, 100
3, 184316, Note_off_c, 1, 57, 100
3, 184320, Note_on_c, 1, 49, 110
3, 184320, Note_on_c, 1, 64, 110
3, 184508, Note_off_c, 1, 49, 100
3, 184512, Note_on_c, 1, 57, 110
3, 184700, Note_off_c, 1, 57, 100
3, 184704, Note_on_c, 1, 50, 110
3, 184892, Note_off_c, 1, 64, 64
3, 184896, Note_on_c, 1, 62, 110
3, 185084, Note_off_c, 1, 62, 100
3, 185088, Note_on_c, 1, 62, 110
3, 185276, Note_off_c, 1, 62, 100
3, 185280, Note_on_c, 1, 60, 110
3, 185468, Note_off_c, 1, 50, 100
3, 185468, Note_off_c, 1, 60, 100
3, 185472, Note_on_c, 1, 62, 110
3, 185472, Note_on_c, 1, 55, 110
3, 185660, Note_off_c, 1, 62, 100
3, 185664, Note_on_c, 1, 60, 110
3, 185852, Note_off_c, 1, 60, 100
3, 185856, Note_on_c, 1, 59, 110
3, 186236, Note_off_c, 1, 55, 100
3, 186236, Note_off_c, 1, 59, 100
3, 186240, Note_on_c, 1, 48, 110
3, 186432, Note_on_c, 1, 60, 110
3, 186620, Note_off_c, 1, 60, 100
3, 186624, Note_on_c, 1, 60, 110
3, 186812, Note_off_c, 1, 48, 100
3, 186812, Note_off_c, 1, 60, 100
3, 186816, Note_on_c, 1, 58, 110
3, 186816, Note_on_c, 1, 64, 110
3, 187004, Note_off_c, 1, 58, 100
3, 187004, Note_off_c, 1, 64, 100
3, 187008, Note_on_c, 1, 57, 110
3, 187008, Note_on_c, 1, 60, 110
3, 187196, Note_off_c, 1, 57, 100
3, 187196, Note_off_c, 1, 60, 100
3, 187200, Note_on_c, 1, 57, 110
3, 187388, Note_off_c, 1, 57, 100
3, 187392, Note_on_c, 1, 59, 110
3, 187580, Note_off_c, 1, 59, 100
3, 187584, Note_on_c, 1, 60, 110
3, 187772, Note_off_c, 1, 60, 100
3, 187776, Note_on_c, 1, 53, 110
3, 187964, Note_off_c, 1, 53, 100
3, 187968, Note_on_c, 1, 65, 110
3, 188348, Note_off_c, 1, 65, 100
3, 188352, Note_on_c, 1, 64, 110
3, 188540, Note_off_c, 1, 64, 100
3, 188544, Note_on_c, 1, 62, 110
3, 188736, Note_on_c, 1, 43, 110
3, 188924, Note_off_c, 1, 62, 100
3, 188924, Note_off_c, 1, 43, 100
3, 188928, Note_on_c, 1, 40, 120
3, 188928, Note_on_c, 1, 60, 110
3, 189308, Note_off_c, 1, 60, 100
3, 189404, Note_off_c, 1, 40, 64
3, 189408, Note_on_c, 1, 41, 110
3, 189500, Note_off_c, 1, 41, 100
3, 189504, Note_on_c, 1, 43, 110
3, 189596, Note_off_c, 1, 43, 100
3, 189600, Note_on_c, 1, 45, 110
3, 189692, Note_off_c, 1, 45, 100
3, 189696, Note_on_c, 1, 38, 110
3, 190076, Note_off_c, 1, 38, 100
3, 190272, Note_on_c, 1, 43, 110
3, 190460, Note_off_c, 1, 43, 100
3, 190464, Note_on_c, 1, 38, 120
3, 190940, Note_off_c, 1, 38, 64
3, 190944, Note_on_c, 1, 40, 110
3, 191036, Note_off_c, 1, 40, 100
3, 191040, Note_on_c, 1, 41, 110
3, 191132, Note_off_c, 1, 41, 100
3, 191136, Note_on_c, 1, 43, 110
3, 191228, Note_off_c, 1, 43, 100
3, 191232, Note_on_c, 1, 36, 110
3, 191420, Note_off_c, 1, 36, 100
3, 191424, Note_on_c, 1, 46, 110
3, 191612, Note_off_c, 1, 46, 100
3, 191616, Note_on_c, 1, 47, 110
3, 191804, Note_off_c, 1, 47, 100
3, 191808, Note_on_c, 1, 45, 110
3, 191996, Note_off_c, 1, 45, 100
3, 192000, Note_on_c, 1, 43, 110
3, 192048, Note_on_c, 1, 45, 110
3, 192088, Note_off_c, 1, 43, 100
3, 192096, Note_on_c, 1, 43, 110
3, 192140, Note_off_c, 1, 45, 100
3, 192144, Note_on_c, 1, 45, 110
3, 192184, Note_off_c, 1, 43, 100
3, 192192, Note_on_c, 1, 43, 110
3, 192236, Note_off_c, 1, 45, 100
3, 192240, Note_on_c, 1, 45, 110
3, 192284, Note_off_c, 1, 43, 100
3, 192288, Note_on_c, 1, 41, 110
3, 192328, Note_off_c, 1, 45, 100
3, 192336, Note_on_c, 1, 43, 110
3, 192372, Note_off_c, 1, 41, 100
3, 192380, Note_off_c, 1, 43, 100
3, 192384, Note_on_c, 1, 45, 110
3, 192668, Note_off_c, 1, 45, 100
3, 192672, Note_on_c, 1, 43, 110
3, 192764, Note_off_c, 1, 43, 100
3, 192768, Note_on_c, 1, 41, 110
3, 192956, Note_off_c, 1, 41, 100
3, 192960, Note_on_c, 1, 40, 110
3, 193052, Note_off_c, 1, 40, 100
3, 193056, Note_on_c, 1, 38, 110
3, 193148, Note_off_c, 1, 38, 100
3, 193152, Note_on_c, 1, 46, 120
3, 193724, Note_off_c, 1, 46, 100
3, 193728, Note_on_c, 1, 45, 110
3, 193916, Note_off_c, 1, 45, 100
3, 193920, Note_on_c, 1, 43, 110
3, 194300, Note_off_c, 1, 43, 100
3, 194304, Note_on_c, 1, 41, 110
3, 194684, Note_off_c, 1, 41, 100
3, 194688, Note_on_c, 1, 40, 110
3, 194876, Note_off_c, 1, 40, 100
3, 194880, Note_on_c, 1, 60, 110
3, 194880, Note_on_c, 1, 52, 110
3, 195068, Note_off_c, 1, 60, 100
3, 195068, Note_off_c, 1, 52, 100
3, 195072, Note_on_c, 1, 51, 110
3, 195072, Note_on_c, 1, 60, 110
3, 195260, Note_off_c, 1, 60, 100
3, 195264, Note_on_c, 1, 58, 110
3, 195452, Note_off_c, 1, 51, 100
3, 195452, Note_off_c, 1, 58, 100
3, 195456, Note_on_c, 1, 50, 110
3, 195456, Note_on_c, 1, 58, 110
3, 195644, Note_off_c, 1, 58, 100
3, 195648, Note_on_c, 1, 57, 110
3, 195836, Note_off_c, 1, 50, 100
3, 195836, Note_off_c, 1, 57, 100
3, 195840, Note_on_c, 1, 48, 110
3, 195840, Note_on_c, 1, 57, 110
3, 196028, Note_off_c, 1, 57, 100
3, 196032, Note_on_c, 1, 55, 110
3, 196124, Note_off_c, 1, 55, 100
3, 196128, Note_on_c, 1, 54, 110
3, 196220, Note_off_c, 1, 48, 100
3, 196220, Note_off_c, 1, 54, 100
3, 196224, Note_on_c, 1, 46, 110
3, 196224, Note_on_c, 1, 58, 110
3, 196604, Note_off_c, 1, 46, 100
3, 196604, Note_off_c, 1, 58, 100
3, 196608, Note_on_c, 1, 45, 110
3, 196796, Note_off_c, 1, 45, 100
3, 196800, Note_on_c, 1, 46, 110
3, 196988, Note_off_c, 1, 46, 100
3, 196992, Note_on_c, 1, 48, 110
3, 197184, Note_on_c, 1, 58, 110
3, 197372, Note_off_c, 1, 48, 100
3, 197372, Note_off_c, 1, 58, 100
3, 197376, Note_on_c, 1, 58, 110
3, 197376, Note_on_c, 1, 46, 110
3, 197564, Note_off_c, 1, 58, 100
3, 197568, Note_on_c, 1, 57, 110
3, 197660, Note_off_c, 1, 57, 100
3, 197664, Note_on_c, 1, 55, 110
3, 197756, Note_off_c, 1, 46, 100
3, 197756, Note_off_c, 1, 55, 100
3, 197760, Note_on_c, 1, 45, 110
3, 197760, Note_on_c, 1, 57, 110
3, 197948, Note_off_c, 1, 45, 100
3, 197948, Note_off_c, 1, 57, 100
3, 197952, Note_on_c, 1, 40, 110
3, 197952, Note_on_c, 1, 60, 110
3, 198140, Note_off_c, 1, 40, 100
3, 198140, Note_off_c, 1, 60, 100
3, 198144, Note_on_c, 1, 60, 110
3, 198144, Note_on_c, 1, 41, 110
3, 198332, Note_off_c, 1, 60, 100
3, 198332, Note_off_c, 1, 41, 100
3, 198336, Note_on_c, 1, 58, 110
3, 198336, Note_on_c, 1, 46, 110
3, 198524, Note_off_c, 1, 58, 100
3, 198524, Note_off_c, 1, 46, 100
3, 198528, Note_on_c, 1, 43, 110
3, 198716, Note_off_c, 1, 43, 100
3, 198720, Note_on_c, 1, 46, 109
3, 198908, Note_off_c, 1, 46, 100
3, 198912, Note_on_c, 1, 45, 107
3, 199100, Note_off_c, 1, 45, 100
3, 199104, Note_on_c, 1, 50, 106
3, 199104, Note_on_c, 1, 41, 106
3, 199292, Note_off_c, 1, 50, 100
3, 199292, Note_off_c, 1, 41, 100
3, 199296, Note_on_c, 1, 40, 104
3, 199296, Note_on_c, 1, 47, 104
3, 199772, Note_off_c, 1, 47, 100
3, 199776, Note_on_c, 1, 48, 100
3, 199868, Note_off_c, 1, 48, 100
3, 199872, Note_on_c, 1, 50, 99
3, 199964, Note_off_c, 1, 50, 100
3, 199968, Note_on_c, 1, 52, 99
3, 200060, Note_off_c, 1, 40, 100
3, 200060, Note_off_c, 1, 52, 100
3, 200064, Note_on_c, 1, 49, 98
3, 200064, Note_on_c, 1, 40, 98
3, 200540, Note_off_c, 1, 40, 100
3, 200544, Note_on_c, 1, 42, 94
3, 200636, Note_off_c, 1, 42, 100
3, 200640, Note_on_c, 1, 43, 93
3, 200732, Note_off_c, 1, 43, 100
3, 200736, Note_on_c, 1, 45, 92
3, 200828, Note_off_c, 1, 49, 100
3, 200828, Note_off_c, 1, 45, 100
3, 200832, Note_on_c, 1, 38, 92
3, 200832, Note_on_c, 1, 47, 92
3, 201308, Note_off_c, 1, 47, 100
3, 201312, Note_on_c, 1, 47, 88
3, 201404, Note_off_c, 1, 47, 100
3, 201408, Note_on_c, 1, 48, 87
3, 201500, Note_off_c, 1, 48, 100
3, 201504, Note_on_c, 1, 50, 86
3, 201596, Note_off_c, 1, 38, 100
3, 201596, Note_off_c, 1, 50, 100
3, 201600, Note_on_c, 1, 47, 85
3, 201600, Note_on_c, 1, 55, 85
3, 201600, Note_on_c, 1, 38, 85
3, 201692, Note_off_c, 1, 55, 100
3, 201696, Note_on_c, 1, 53, 84
3, 201788, Note_off_c, 1, 53, 100
3, 201792, Note_on_c, 1, 52, 84
3, 201884, Note_off_c, 1, 52, 100
3, 201888, Note_on_c, 1, 50, 83
3, 201980, Note_off_c, 1, 47, 100
3, 201980, Note_off_c, 1, 50, 100
3, 201984, Note_on_c, 1, 53, 82
3, 202076, Note_off_c, 1, 38, 100
3, 202080, Note_on_c, 1, 40, 81
3, 202172, Note_off_c, 1, 53, 100
3, 202172, Note_off_c, 1, 40, 100
3, 202176, Note_on_c, 1, 41, 81
3, 202268, Note_off_c, 1, 41, 100
3, 202272, Note_on_c, 1, 43, 80
3, 202364, Note_off_c, 1, 43, 100
3, 202368, Note_on_c, 1, 36, 80
3, 202556, Note_off_c, 1, 36, 100
3, 202752, Note_on_c, 1, 48, 80
3, 202844, Note_off_c, 1, 48, 100
3, 202848, Note_on_c, 1, 47, 80
3, 202940, Note_off_c, 1, 47, 100
3, 202944, Note_on_c, 1, 45, 80
3, 203036, Note_off_c, 1, 45, 100
3, 203040, Note_on_c, 1, 43, 80
3, 203132, Note_off_c, 1, 43, 100
3, 203136, Note_on_c, 1, 53, 80
3, 203232, Note_on_c, 1, 59, 80
3, 203324, Note_off_c, 1, 53, 100
3, 203324, Note_off_c, 1, 59, 100
3, 203328, Note_on_c, 1, 57, 80
3, 203420, Note_off_c, 1, 57, 100
3, 203424, Note_on_c, 1, 55, 80
3, 203516, Note_off_c, 1, 55, 100
3, 203520, Note_on_c, 1, 59, 80
3, 203996, Note_off_c, 1, 59, 64
3, 204000, Note_on_c, 1, 57, 80
3, 204092, Note_off_c, 1, 57, 100
3, 204096, Note_on_c, 1, 55, 80
3, 204188, Note_off_c, 1, 55, 100
3, 204192, Note_on_c, 1, 53, 80
3, 204284, Note_off_c, 1, 53, 100
3, 204288, Note_on_c, 1, 55, 80
3, 204288, Note_on_c, 1, 59, 80
3, 204380, Note_off_c, 1, 55, 100
3, 204384, Note_on_c, 1, 53, 80
3, 204476, Note_off_c, 1, 53, 100
3, 204480, Note_on_c, 1, 52, 80
3, 204572, Note_off_c, 1, 52, 100
3, 204576, Note_on_c, 1, 50, 80
3, 204668, Note_off_c, 1, 59, 100
3, 204668, Note_off_c, 1, 50, 100
3, 204672, Note_on_c, 1, 60, 80
3, 204672, Note_on_c, 1, 48, 80
3, 204764, Note_off_c, 1, 60, 100
3, 204768, Note_on_c, 1, 59, 80
3, 204860, Note_off_c, 1, 48, 100
3, 204860, Note_off_c, 1, 59, 100
3, 204864, Note_on_c, 1, 57, 80
3, 204956, Note_off_c, 1, 57, 100
3, 204960, Note_on_c, 1, 55, 80
3, 205052, Note_off_c, 1, 55, 100
3, 205056, Note_on_c, 1, 60, 80
3, 205244, Note_off_c, 1, 60, 100
3, 205248, Note_on_c, 1, 59, 80
3, 205436, Note_off_c, 1, 59, 100
3, 205440, Note_on_c, 1, 60, 80
3, 205628, Note_off_c, 1, 60, 100
3, 205632, Note_on_c, 1, 50, 80
3, 205632, Note_on_c, 1, 59, 80
3, 205820, Note_off_c, 1, 50, 100
3, 205820, Note_off_c, 1, 59, 100
3, 205824, Note_on_c, 1, 57, 80
3, 205824, Note_on_c, 1, 50, 80
3, 205872, Note_on_c, 1, 59, 80
3, 205912, Note_off_c, 1, 57, 100
3, 205920, Note_on_c, 1, 57, 80
3, 205964, Note_off_c, 1, 59, 100
3, 205968, Note_on_c, 1, 59, 80
3, 206008, Note_off_c, 1, 57, 100
3, 206012, Note_off_c, 1, 50, 100
3, 206016, Note_on_c, 1, 57, 80
3, 206016, Note_on_c, 1, 48, 80
3, 206052, Note_off_c, 1, 59, 100
3, 206064, Note_on_c, 1, 59, 80
3, 206092, Note_off_c, 1, 57, 100
3, 206112, Note_on_c, 1, 55, 80
3, 206144, Note_off_c, 1, 59, 100
3, 206160, Note_on_c, 1, 57, 80
3, 206196, Note_off_c, 1, 55, 100
3, 206204, Note_off_c, 1, 48, 100
3, 206204, Note_off_c, 1, 57, 100
3, 206208, Note_on_c, 1, 50, 80
3, 206396, Note_off_c, 1, 50, 100
3, 206400, Note_on_c, 1, 59, 80
3, 206400, Note_on_c, 1, 48, 80
3, 206588, Note_off_c, 1, 59, 100
3, 206588, Note_off_c, 1, 48, 100
3, 206592, Note_on_c, 1, 59, 80
3, 206592, Note_on_c, 1, 47, 80
3, 206780, Note_off_c, 1, 59, 100
3, 206784, Note_on_c, 1, 57, 80
3, 206972, Note_off_c, 1, 47, 100
3, 206972, Note_off_c, 1, 57, 100
3, 206976, Note_on_c, 1, 59, 80
3, 207164, Note_off_c, 1, 59, 100
3, 207168, Note_on_c, 1, 48, 80
3, 207168, Note_on_c, 1, 57, 80
3, 207356, Note_off_c, 1, 48, 100
3, 207356, Note_off_c, 1, 57, 100
3, 207360, Note_on_c, 1, 55, 80
3, 207360, Note_on_c, 1, 48, 80
3, 207548, Note_off_c, 1, 55, 100
3, 207548, Note_off_c, 1, 48, 100
3, 207552, Note_on_c, 1, 57, 80
3, 207552, Note_on_c, 1, 47, 80
3, 207644, Note_off_c, 1, 57, 100
3, 207648, Note_on_c, 1, 59, 80
3, 207740, Note_off_c, 1, 47, 100
3, 207740, Note_off_c, 1, 59, 100
3, 207744, Note_on_c, 1, 45, 80
3, 207744, Note_on_c, 1, 52, 80
3, 207932, Note_off_c, 1, 45, 100
3, 207932, Note_off_c, 1, 52, 100
3, 207936, Note_on_c, 1, 43, 80
3, 207936, Note_on_c, 1, 52, 80
3, 208124, Note_off_c, 1, 43, 100
3, 208124, Note_off_c, 1, 52, 100
3, 208128, Note_on_c, 1, 50, 80
3, 208128, Note_on_c, 1, 42, 80
3, 208316, Note_off_c, 1, 42, 100
3, 208320, Note_on_c, 1, 40, 80
3, 208412, Note_off_c, 1, 40, 100
3, 208416, Note_on_c, 1, 38, 80
3, 208508, Note_off_c, 1, 50, 100
3, 208508, Note_off_c, 1, 38, 100
3, 208512, Note_on_c, 1, 43, 80
3, 208512, Note_on_c, 1, 50, 80
3, 208700, Note_off_c, 1, 43, 100
3, 208700, Note_off_c, 1, 50, 100
3, 208704, Note_on_c, 1, 53, 88
3, 208704, Note_on_c, 1, 55, 88
3, 208892, Note_off_c, 1, 53, 100
3, 208892, Note_off_c, 1, 55, 100
3, 208896, Note_on_c, 1, 52, 97
3, 208896, Note_on_c, 1, 55, 97
3, 209084, Note_off_c, 1, 52, 100
3, 209084, Note_off_c, 1, 55, 100
3, 209088, Note_on_c, 1, 50, 106
3, 209088, Note_on_c, 1, 60, 106
3, 209180, Note_off_c, 1, 50, 100
3, 209184, Note_on_c, 1, 48, 110
3, 209276, Note_off_c, 1, 60, 100
3, 209276, Note_off_c, 1, 48, 100
3, 209280, Note_on_c, 1, 41, 110
3, 209280, Note_on_c, 1, 53, 110
3, 209468, Note_off_c, 1, 41, 100
3, 209468, Note_off_c, 1, 53, 100
3, 209664, Note_on_c, 1, 29, 110
3, 209852, Note_off_c, 1, 29, 100
3, 210048, Note_on_c, 1, 31, 110
3, 210236, Note_off_c, 1, 31, 100
3, 210432, Note_on_c, 1, 43, 110
3, 210620, Note_off_c, 1, 43, 100
3, 210816, Note_on_c, 1, 45, 110
3, 211004, Note_off_c, 1, 45, 100
3, 211200, Note_on_c, 1, 33, 110
3, 211388, Note_off_c, 1, 33, 100
3, 211584, Note_on_c, 1, 35, 110
3, 211676, Note_off_c, 1, 35, 100
3, 211968, Note_on_c, 1, 47, 110
3, 212060, Note_off_c, 1, 47, 100
3, 212352, Note_on_c, 1, 36, 110
3, 212540, Note_off_c, 1, 36, 100
3, 212544, Note_on_c, 1, 50, 110
3, 212732, Note_off_c, 1, 50, 100
3, 212736, Note_on_c, 1, 48, 110
3, 212828, Note_off_c, 1, 48, 100
3, 212832, Note_on_c, 1, 50, 110
3, 212924, Note_off_c, 1, 50, 100
3, 212928, Note_on_c, 1, 52, 110
3, 213020, Note_off_c, 1, 52, 100
3, 213024, Note_on_c, 1, 53, 110
3, 213116, Note_off_c, 1, 53, 100
3, 213120, Note_on_c, 1, 55, 110
3, 213308, Note_off_c, 1, 55, 100
3, 213312, Note_on_c, 1, 41, 110
3, 213500, Note_off_c, 1, 41, 100
3, 213504, Note_on_c, 1, 38, 110
3, 213596, Note_off_c, 1, 38, 100
3, 213600, Note_on_c, 1, 40, 110
3, 213692, Note_off_c, 1, 40, 100
3, 213696, Note_on_c, 1, 41, 110
3, 213788, Note_off_c, 1, 41, 100
3, 213792, Note_on_c, 1, 43, 110
3, 213884, Note_off_c, 1, 43, 100
3, 213888, Note_on_c, 1, 41, 110
3, 214076, Note_off_c, 1, 41, 100
3, 214080, Note_on_c, 1, 52, 110
3, 214268, Note_off_c, 1, 52, 100
3, 214272, Note_on_c, 1, 50, 110
3, 214364, Note_off_c, 1, 50, 100
3, 214368, Note_on_c, 1, 52, 110
3, 214460, Note_off_c, 1, 52, 100
3, 214464, Note_on_c, 1, 53, 110
3, 214556, Note_off_c, 1, 53, 100
3, 214560, Note_on_c, 1, 55, 110
3, 214652, Note_off_c, 1, 55, 100
3, 214656, Note_on_c, 1, 57, 110
3, 214844, Note_off_c, 1, 57, 100
3, 214848, Note_on_c, 1, 45, 110
3, 215036, Note_off_c, 1, 45, 100
3, 215040, Note_on_c, 1, 40, 110
3, 215132, Note_off_c, 1, 40, 100
3, 215136, Note_on_c, 1, 42, 110
3, 215228, Note_off_c, 1, 42, 100
3, 215232, Note_on_c, 1, 43, 110
3, 215324, Note_off_c, 1, 43, 100
3, 215328, Note_on_c, 1, 45, 110
3, 215420, Note_off_c, 1, 45, 100
3, 215424, Note_on_c, 1, 42, 110
3, 215612, Note_off_c, 1, 42, 100
3, 215616, Note_on_c, 1, 57, 110
3, 215804, Note_off_c, 1, 57, 100
3, 215808, Note_on_c, 1, 54, 110
3, 215900, Note_off_c, 1, 54, 100
3, 215904, Note_on_c, 1, 56, 110
3, 215996, Note_off_c, 1, 56, 100
3, 216000, Note_on_c, 1, 57, 110
3, 216092, Note_off_c, 1, 57, 100
3, 216096, Note_on_c, 1, 59, 110
3, 216188, Note_off_c, 1, 59, 100
3, 216192, Note_on_c, 1, 44, 110
3, 216380, Note_off_c, 1, 44, 100
3, 216384, Note_on_c, 1, 59, 110
3, 216572, Note_off_c, 1, 59, 100
3, 216576, Note_on_c, 1, 56, 110
3, 216668, Note_off_c, 1, 56, 100
3, 216672, Note_on_c, 1, 57, 110
3, 216764, Note_off_c, 1, 57, 100
3, 216768, Note_on_c, 1, 59, 110
3, 216860, Note_off_c, 1, 59, 100
3, 216864, Note_on_c, 1, 60, 110
3, 216956, Note_off_c, 1, 60, 100
3, 216960, Note_on_c, 1, 45, 110
3, 217148, Note_off_c, 1, 45, 100
3, 217152, Note_on_c, 1, 60, 110
3, 217340, Note_off_c, 1, 60, 100
3, 217344, Note_on_c, 1, 57, 110
3, 217436, Note_off_c, 1, 57, 100
3, 217440, Note_on_c, 1, 59, 110
3, 217532, Note_off_c, 1, 59, 100
3, 217536, Note_on_c, 1, 60, 110
3, 217628, Note_off_c, 1, 60, 100
3, 217632, Note_on_c, 1, 62, 110
3, 217724, Note_off_c, 1, 62, 100
3, 217728, Note_on_c, 1, 47, 110
3, 217916, Note_off_c, 1, 47, 100
3, 217920, Note_on_c, 1, 62, 110
3, 218108, Note_off_c, 1, 62, 100
3, 218112, Note_on_c, 1, 48, 110
3, 218112, Note_on_c, 1, 59, 110
3, 218204, Note_off_c, 1, 59, 100
3, 218208, Note_on_c, 1, 60, 110
3, 218300, Note_off_c, 1, 48, 100
3, 218300, Note_off_c, 1, 60, 100
3, 218304, Note_on_c, 1, 52, 110
3, 218304, Note_on_c, 1, 48, 110
3, 218492, Note_off_c, 1, 52, 100
3, 218492, Note_off_c, 1, 48, 100
3, 218496, Note_on_c, 1, 47, 110
3, 218496, Note_on_c, 1, 54, 110
3, 218588, Note_off_c, 1, 47, 100
3, 218592, Note_on_c, 1, 49, 110
3, 218684, Note_off_c, 1, 54, 100
3, 218684, Note_off_c, 1, 49, 100
3, 218688, Note_on_c, 1, 51, 110
3, 218780, Note_off_c, 1, 51, 100
3, 218784, Note_on_c, 1, 52, 110
3, 218876, Note_off_c, 1, 52, 100
3, 218880, Note_on_c, 1, 51, 110
3, 218972, Note_off_c, 1, 51, 100
3, 218976, Note_on_c, 1, 52, 110
3, 219068, Note_off_c, 1, 52, 100
3, 219072, Note_on_c, 1, 54, 110
3, 219164, Note_off_c, 1, 54, 100
3, 219168, Note_on_c, 1, 55, 110
3, 219260, Note_off_c, 1, 55, 100
3, 219264, Note_on_c, 1, 54, 110
3, 219356, Note_off_c, 1, 54, 100
3, 219360, Note_on_c, 1, 55, 110
3, 219452, Note_off_c, 1, 55, 100
3, 219456, Note_on_c, 1, 57, 110
3, 219548, Note_off_c, 1, 57, 100
3, 219552, Note_on_c, 1, 55, 110
3, 219644, Note_off_c, 1, 55, 100
3, 219648, Note_on_c, 1, 57, 110
3, 219740, Note_off_c, 1, 57, 100
3, 219744, Note_on_c, 1, 59, 110
3, 219836, Note_off_c, 1, 59, 100
3, 219840, Note_on_c, 1, 60, 110
3, 219932, Note_off_c, 1, 60, 100
3, 219936, Note_on_c, 1, 63, 110
3, 220028, Note_off_c, 1, 63, 100
3, 220032, Note_on_c, 1, 52, 110
3, 220032, Note_on_c, 1, 64, 110
3, 220124, Note_off_c, 1, 52, 100
3, 220124, Note_off_c, 1, 64, 100
3, 220128, Note_on_c, 1, 54, 110
3, 220220, Note_off_c, 1, 54, 100
3, 220224, Note_on_c, 1, 55, 110
3, 220316, Note_off_c, 1, 55, 100
3, 220320, Note_on_c, 1, 57, 110
3, 220412, Note_off_c, 1, 57, 100
3, 220416, Note_on_c, 1, 67, 120
3, 220416, Note_on_c, 1, 52, 120
3, 220508, Note_off_c, 1, 67, 100
3, 220512, Note_on_c, 1, 66, 110
3, 220604, Note_off_c, 1, 52, 100
3, 220604, Note_off_c, 1, 66, 100
3, 220608, Note_on_c, 1, 64, 110
3, 220700, Note_off_c, 1, 64, 100
3, 220704, Note_on_c, 1, 62, 110
3, 220796, Note_off_c, 1, 62, 100
3, 220800, Note_on_c, 1, 64, 110
3, 220892, Note_off_c, 1, 64, 100
3, 220896, Note_on_c, 1, 62, 110
3, 220988, Note_off_c, 1, 62, 100
3, 220992, Note_on_c, 1, 60, 110
3, 221084, Note_off_c, 1, 60, 100
3, 221088, Note_on_c, 1, 59, 110
3, 221180, Note_off_c, 1, 59, 100
3, 221184, Note_on_c, 1, 60, 110
3, 221276, Note_off_c, 1, 60, 100
3, 221280, Note_on_c, 1, 59, 110
3, 221372, Note_off_c, 1, 59, 100
3, 221376, Note_on_c, 1, 57, 110
3, 221468, Note_off_c, 1, 57, 100
3, 221472, Note_on_c, 1, 55, 110
3, 221564, Note_off_c, 1, 55, 100
3, 221568, Note_on_c, 1, 50, 120
3, 221568, Note_on_c, 1, 57, 120
3, 221660, Note_off_c, 1, 50, 100
3, 221664, Note_on_c, 1, 52, 110
3, 221756, Note_off_c, 1, 52, 100
3, 221760, Note_on_c, 1, 53, 110
3, 221852, Note_off_c, 1, 53, 100
3, 221856, Note_on_c, 1, 55, 110
3, 221948, Note_off_c, 1, 57, 100
3, 221948, Note_off_c, 1, 55, 100
3, 221952, Note_on_c, 1, 53, 110
3, 222044, Note_off_c, 1, 53, 100
3, 222048, Note_on_c, 1, 55, 110
3, 222140, Note_off_c, 1, 55, 100
3, 222144, Note_on_c, 1, 57, 110
3, 222236, Note_off_c, 1, 57, 100
3, 222240, Note_on_c, 1, 59, 110
3, 222332, Note_off_c, 1, 59, 100
3, 222336, Note_on_c, 1, 57, 110
3, 222428, Note_off_c, 1, 57, 100
3, 222432, Note_on_c, 1, 59, 110
3, 222524, Note_off_c, 1, 59, 100
3, 222528, Note_on_c, 1, 60, 110
3, 222620, Note_off_c, 1, 60, 100
3, 222624, Note_on_c, 1, 62, 110
3, 222716, Note_off_c, 1, 62, 100
3, 222720, Note_on_c, 1, 60, 110
3, 222812, Note_off_c, 1, 60, 100
3, 222816, Note_on_c, 1, 62, 110
3, 222908, Note_off_c, 1, 62, 100
3, 222912, Note_on_c, 1, 64, 110
3, 223004, Note_off_c, 1, 64, 100
3, 223008, Note_on_c, 1, 66, 110
3, 223100, Note_off_c, 1, 66, 100
3, 223104, Note_on_c, 1, 67, 110
3, 223104, Note_on_c, 1, 55, 110
3, 223196, Note_off_c, 1, 67, 100
3, 223196, Note_off_c, 1, 55, 100
3, 223200, Note_on_c, 1, 57, 110
3, 223292, Note_off_c, 1, 57, 100
3, 223296, Note_on_c, 1, 59, 110
3, 223388, Note_off_c, 1, 59, 100
3, 223392, Note_on_c, 1, 60, 110
3, 223484, Note_off_c, 1, 60, 100
3, 223488, Note_on_c, 1, 71, 121
3, 223488, Note_on_c, 1, 55, 121
3, 223580, Note_off_c, 1, 71, 100
3, 223584, Note_on_c, 1, 69, 110
3, 223676, Note_off_c, 1, 55, 100
3, 223676, Note_off_c, 1, 69, 100
3, 223680, Note_on_c, 1, 67, 110
3, 223772, Note_off_c, 1, 67, 100
3, 223776, Note_on_c, 1, 66, 110
3, 223868, Note_off_c, 1, 66, 100
3, 223872, Note_on_c, 1, 67, 110
3, 223964, Note_off_c, 1, 67, 100
3, 223968, Note_on_c, 1, 66, 110
3, 224060, Note_off_c, 1, 66, 100
3, 224064, Note_on_c, 1, 64, 110
3, 224156, Note_off_c, 1, 64, 100
3, 224160, Note_on_c, 1, 62, 110
3, 224252, Note_off_c, 1, 62, 100
3, 224256, Note_on_c, 1, 64, 122
3, 224352, Note_on_c, 1, 59, 110
3, 224444, Note_off_c, 1, 59, 100
3, 224448, Note_on_c, 1, 57, 110
3, 224540, Note_off_c, 1, 57, 100
3, 224544, Note_on_c, 1, 55, 110
3, 224636, Note_off_c, 1, 55, 100
3, 224640, Note_on_c, 1, 57, 110
3, 224732, Note_off_c, 1, 64, 64
3, 224736, Note_on_c, 1, 66, 110
3, 224828, Note_off_c, 1, 66, 100
3, 224832, Note_on_c, 1, 67, 110
3, 224924, Note_off_c, 1, 67, 100
3, 224928, Note_on_c, 1, 69, 110
3, 225020, Note_off_c, 1, 69, 100
3, 225024, Note_on_c, 1, 62, 120
3, 225116, Note_off_c, 1, 57, 100
3, 225120, Note_on_c, 1, 57, 110
3, 225212, Note_off_c, 1, 57, 100
3, 225216, Note_on_c, 1, 55, 110
3, 225308, Note_off_c, 1, 55, 100
3, 225312, Note_on_c, 1, 54, 110
3, 225404, Note_off_c, 1, 54, 100
3, 225408, Note_on_c, 1, 55, 110
3, 225500, Note_off_c, 1, 62, 64
3, 225504, Note_on_c, 1, 64, 110
3, 225596, Note_off_c, 1, 64, 100
3, 225600, Note_on_c, 1, 66, 110
3, 225692, Note_off_c, 1, 66, 100
3, 225696, Note_on_c, 1, 67, 110
3, 225788, Note_off_c, 1, 67, 100
3, 225792, Note_on_c, 1, 60, 120
3, 225884, Note_off_c, 1, 55, 100
3, 225888, Note_on_c, 1, 55, 110
3, 225980, Note_off_c, 1, 55, 100
3, 225984, Note_on_c, 1, 54, 110
3, 226076, Note_off_c, 1, 54, 100
3, 226080, Note_on_c, 1, 52, 110
3, 226172, Note_off_c, 1, 52, 100
3, 226176, Note_on_c, 1, 54, 110
3, 226268, Note_off_c, 1, 60, 64
3, 226272, Note_on_c, 1, 63, 110
3, 226364, Note_off_c, 1, 63, 100
3, 226368, Note_on_c, 1, 64, 110
3, 226460, Note_off_c, 1, 64, 100
3, 226464, Note_on_c, 1, 66, 110
3, 226556, Note_off_c, 1, 54, 100
3, 226556, Note_off_c, 1, 66, 100
3, 226560, Note_on_c, 1, 35, 110
3, 226652, Note_off_c, 1, 35, 100
3, 226656, Note_on_c, 1, 37, 110
3, 226748, Note_off_c, 1, 37, 100
3, 226752, Note_on_c, 1, 39, 110
3, 226844, Note_off_c, 1, 39, 100
3, 226848, Note_on_c, 1, 40, 110
3, 226940, Note_off_c, 1, 40, 100
3, 226944, Note_on_c, 1, 42, 110
3, 227036, Note_off_c, 1, 42, 100
3, 227040, Note_on_c, 1, 43, 110
3, 227132, Note_off_c, 1, 43, 100
3, 227136, Note_on_c, 1, 45, 110
3, 227228, Note_off_c, 1, 45, 100
3, 227232, Note_on_c, 1, 47, 110
3, 227324, Note_off_c, 1, 47, 100
3, 227328, Note_on_c, 1, 49, 110
3, 227420, Note_off_c, 1, 49, 100
3, 227424, Note_on_c, 1, 51, 110
3, 227516, Note_off_c, 1, 51, 100
3, 227520, Note_on_c, 1, 52, 110
3, 227612, Note_off_c, 1, 52, 100
3, 227616, Note_on_c, 1, 54, 110
3, 227708, Note_off_c, 1, 54, 100
3, 227712, Note_on_c, 1, 55, 110
3, 227712, Note_on_c, 1, 59, 110
3, 227804, Note_off_c, 1, 55, 100
3, 227808, Note_on_c, 1, 57, 110
3, 227900, Note_off_c, 1, 59, 100
3, 227900, Note_off_c, 1, 57, 100
3, 227904, Note_on_c, 1, 59, 110
3, 228000, Note_on_c, 1, 47, 110
3, 228092, Note_off_c, 1, 59, 100
3, 228092, Note_off_c, 1, 47, 100
3, 228096, Note_on_c, 1, 59, 110
3, 228096, Note_on_c, 1, 62, 110
3, 228284, Note_off_c, 1, 59, 100
3, 228284, Note_off_c, 1, 62, 100
3, 228288, Note_on_c, 1, 60, 110
3, 228288, Note_on_c, 1, 57, 110
3, 228476, Note_off_c, 1, 57, 100
3, 228480, Note_on_c, 1, 52, 110
3, 228668, Note_off_c, 1, 60, 64
3, 228668, Note_off_c, 1, 52, 100
3, 228672, Note_on_c, 1, 59, 110
3, 228672, Note_on_c, 1, 50, 110
3, 229052, Note_off_c, 1, 59, 100
3, 229052, Note_off_c, 1, 50, 100
3, 229056, Note_on_c, 1, 48, 110
3, 229056, Note_on_c, 1, 57, 110
3, 229436, Note_off_c, 1, 57, 64
3, 229436, Note_off_c, 1, 48, 64
3, 229440, Note_on_c, 1, 47, 110
3, 229440, Note_on_c, 1, 56, 110
3, 229628, Note_off_c, 1, 47, 100
3, 229628, Note_off_c, 1, 56, 100
3, 229632, Note_on_c, 1, 45, 110
3, 229632, Note_on_c, 1, 57, 110
3, 229820, Note_off_c, 1, 45, 100
3, 229820, Note_off_c, 1, 57, 100
3, 229824, Note_on_c, 1, 52, 110
3, 230012, Note_off_c, 1, 52, 100
3, 230016, Note_on_c, 1, 48, 110
3, 230208, Note_on_c, 1, 60, 110
3, 230396, Note_off_c, 1, 60, 100
3, 230400, Note_on_c, 1, 57, 110
3, 230492, Note_off_c, 1, 48, 100
3, 230496, Note_on_c, 1, 50, 110
3, 230588, Note_off_c, 1, 50, 100
3, 230592, Note_on_c, 1, 52, 110
3, 230684, Note_off_c, 1, 52, 100
3, 230688, Note_on_c, 1, 53, 110
3, 230780, Note_off_c, 1, 53, 100
3, 230784, Note_on_c, 1, 47, 110
3, 230876, Note_off_c, 1, 57, 64
3, 230880, Note_on_c, 1, 59, 110
3, 230972, Note_off_c, 1, 59, 100
3, 230976, Note_on_c, 1, 60, 110
3, 231068, Note_off_c, 1, 60, 100
3, 231072, Note_on_c, 1, 62, 110
3, 231164, Note_off_c, 1, 47, 100
3, 231164, Note_off_c, 1, 62, 100
3, 231168, Note_on_c, 1, 56, 110
3, 231360, Note_on_c, 1, 52, 110
3, 231548, Note_off_c, 1, 56, 100
3, 231548, Note_off_c, 1, 52, 100
3, 231552, Note_on_c, 1, 52, 110
3, 231552, Note_on_c, 1, 57, 110
3, 231740, Note_off_c, 1, 57, 100
3, 231744, Note_on_c, 1, 64, 110
3, 231932, Note_off_c, 1, 64, 100
3, 231936, Note_on_c, 1, 60, 110
3, 232412, Note_off_c, 1, 60, 64
3, 232416, Note_on_c, 1, 62, 110
3, 232508, Note_off_c, 1, 62, 100
3, 232512, Note_on_c, 1, 64, 110
3, 232604, Note_off_c, 1, 64, 100
3, 232608, Note_on_c, 1, 65, 110
3, 232700, Note_off_c, 1, 52, 64
3, 232700, Note_off_c, 1, 65, 100
3, 232704, Note_on_c, 1, 59, 110
3, 232892, Note_off_c, 1, 59, 100
3, 233088, Note_on_c, 1, 52, 110
3, 233280, Note_on_c, 1, 62, 110
3, 233468, Note_off_c, 1, 62, 100
3, 233472, Note_on_c, 1, 59, 110
3, 233948, Note_off_c, 1, 59, 64
3, 233952, Note_on_c, 1, 60, 110
3, 234044, Note_off_c, 1, 52, 64
3, 234044, Note_off_c, 1, 60, 100
3, 234048, Note_on_c, 1, 62, 110
3, 234048, Note_on_c, 1, 52, 110
3, 234140, Note_off_c, 1, 62, 100
3, 234144, Note_on_c, 1, 64, 110
3, 234236, Note_off_c, 1, 52, 100
3, 234236, Note_off_c, 1, 64, 100
3, 234240, Note_on_c, 1, 48, 110
3, 234332, Note_off_c, 1, 48, 100
3, 234336, Note_on_c, 1, 50, 110
3, 234428, Note_off_c, 1, 50, 100
3, 234432, Note_on_c, 1, 52, 110
3, 234524, Note_off_c, 1, 52, 100
3, 234528, Note_on_c, 1, 53, 110
3, 234620, Note_off_c, 1, 53, 100
3, 234624, Note_on_c, 1, 52, 110
3, 234812, Note_off_c, 1, 52, 100
3, 234816, Note_on_c, 1, 53, 110
3, 234816, Note_on_c, 1, 62, 110
3, 235004, Note_off_c, 1, 53, 100
3, 235004, Note_off_c, 1, 62, 100
3, 235008, Note_on_c, 1, 53, 110
3, 235008, Note_on_c, 1, 62, 110
3, 235196, Note_off_c, 1, 53, 100
3, 235196, Note_off_c, 1, 62, 100
3, 235200, Note_on_c, 1, 52, 110
3, 235200, Note_on_c, 1, 60, 110
3, 235388, Note_off_c, 1, 52, 100
3, 235388, Note_off_c, 1, 60, 100
3, 235392, Note_on_c, 1, 53, 110
3, 235392, Note_on_c, 1, 62, 110
3, 235580, Note_off_c, 1, 53, 100
3, 235580, Note_off_c, 1, 62, 100
3, 235584, Note_on_c, 1, 52, 110
3, 235584, Note_on_c, 1, 60, 110
3, 235772, Note_off_c, 1, 52, 100
3, 235772, Note_off_c, 1, 60, 100
3, 235776, Note_on_c, 1, 50, 110
3, 235776, Note_on_c, 1, 59, 110
3, 236156, Note_off_c, 1, 50, 100
3, 236156, Note_off_c, 1, 59, 100
3, 236352, Note_on_c, 1, 52, 110
3, 236352, Note_on_c, 1, 60, 110
3, 236540, Note_off_c, 1, 52, 100
3, 236540, Note_off_c, 1, 60, 100
3, 236544, Note_on_c, 1, 52, 110
3, 236544, Note_on_c, 1, 60, 110
3, 236732, Note_off_c, 1, 52, 100
3, 236732, Note_off_c, 1, 60, 100
3, 236736, Note_on_c, 1, 50, 110
3, 236736, Note_on_c, 1, 59, 110
3, 236924, Note_off_c, 1, 50, 100
3, 236924, Note_off_c, 1, 59, 100
3, 236928, Note_on_c, 1, 50, 110
3, 236928, Note_on_c, 1, 59, 110
3, 237116, Note_off_c, 1, 50, 100
3, 237116, Note_off_c, 1, 59, 100
3, 237120, Note_on_c, 1, 48, 110
3, 237120, Note_on_c, 1, 57, 110
3, 237308, Note_off_c, 1, 48, 100
3, 237308, Note_off_c, 1, 57, 100
3, 237504, Note_on_c, 1, 59, 110
3, 237504, Note_on_c, 1, 62, 110
3, 237692, Note_off_c, 1, 59, 100
3, 237692, Note_off_c, 1, 62, 100
3, 237696, Note_on_c, 1, 59, 110
3, 237696, Note_on_c, 1, 62, 110
3, 237884, Note_off_c, 1, 59, 100
3, 237884, Note_off_c, 1, 62, 100
3, 237888, Note_on_c, 1, 57, 110
3, 237888, Note_on_c, 1, 60, 110
3, 238076, Note_off_c, 1, 57, 100
3, 238076, Note_off_c, 1, 60, 100
3, 238272, Note_on_c, 1, 57, 110
3, 238272, Note_on_c, 1, 60, 110
3, 238460, Note_off_c, 1, 57, 100
3, 238460, Note_off_c, 1, 60, 100
3, 238464, Note_on_c, 1, 57, 110
3, 238464, Note_on_c, 1, 60, 110
3, 238652, Note_off_c, 1, 57, 100
3, 238652, Note_off_c, 1, 60, 100
3, 238656, Note_on_c, 1, 56, 110
3, 238656, Note_on_c, 1, 59, 110
3, 238844, Note_off_c, 1, 56, 100
3, 238844, Note_off_c, 1, 59, 100
3, 238848, Note_on_c, 1, 56, 110
3, 238848, Note_on_c, 1, 59, 110
3, 239036, Note_off_c, 1, 56, 100
3, 239036, Note_off_c, 1, 59, 100
3, 239040, Note_on_c, 1, 57, 110
3, 239040, Note_on_c, 1, 60, 110
3, 239228, Note_off_c, 1, 57, 100
3, 239228, Note_off_c, 1, 60, 100
3, 239232, Note_on_c, 1, 45, 110
3, 239232, Note_on_c, 1, 48, 110
3, 239420, Note_off_c, 1, 45, 100
3, 239420, Note_off_c, 1, 48, 100
3, 239424, Note_on_c, 1, 47, 110
3, 239424, Note_on_c, 1, 50, 110
3, 239612, Note_off_c, 1, 47, 100
3, 239612, Note_off_c, 1, 50, 100
3, 239616, Note_on_c, 1, 47, 110
3, 239616, Note_on_c, 1, 50, 110
3, 239804, Note_off_c, 1, 47, 100
3, 239804, Note_off_c, 1, 50, 100
3, 239808, Note_on_c, 1, 48, 110
3, 239808, Note_on_c, 1, 52, 110
3, 239996, Note_off_c, 1, 48, 100
3, 239996, Note_off_c, 1, 52, 100
3, 240000, Note_on_c, 1, 48, 110
3, 240000, Note_on_c, 1, 52, 110
3, 240188, Note_off_c, 1, 48, 100
3, 240188, Note_off_c, 1, 52, 100
3, 240192, Note_on_c, 1, 49, 110
3, 240192, Note_on_c, 1, 52, 110
3, 240380, Note_off_c, 1, 49, 100
3, 240380, Note_off_c, 1, 52, 100
3, 240384, Note_on_c, 1, 49, 110
3, 240384, Note_on_c, 1, 52, 110
3, 240572, Note_off_c, 1, 49, 100
3, 240572, Note_off_c, 1, 52, 100
3, 240576, Note_on_c, 1, 50, 110
3, 240576, Note_on_c, 1, 53, 110
3, 240764, Note_off_c, 1, 50, 100
3, 240764, Note_off_c, 1, 53, 100
3, 240768, Note_on_c, 1, 51, 110
3, 240768, Note_on_c, 1, 54, 110
3, 240768, Note_on_c, 1, 57, 110
3, 240768, Note_on_c, 1, 60, 110
3, 240956, Note_off_c, 1, 51, 100
3, 240956, Note_off_c, 1, 54, 100
3, 240956, Note_off_c, 1, 57, 100
3, 240956, Note_off_c, 1, 60, 100
3, 240960, Note_on_c, 1, 52, 120
3, 240960, Note_on_c, 1, 57, 120
3, 240960, Note_on_c, 1, 60, 120
3, 241148, Note_off_c, 1, 52, 100
3, 241148, Note_off_c, 1, 57, 100
3, 241148, Note_off_c, 1, 60, 100
3, 241152, Note_on_c, 1, 28, 120
3, 241152, Note_on_c, 1, 33, 120
3, 241152, Note_on_c, 1, 40, 120
3, 241532, Note_off_c, 1, 28, 100
3, 241532, Note_off_c, 1, 33, 100
3, 241532, Note_off_c, 1, 40, 100
3, 241536, Note_on_c, 1, 24, 120
3, 241536, Note_on_c, 1, 27, 120
3, 241536, Note_on_c, 1, 40, 120
3, 243452, Note_off_c, 1, 40, 64
3, 243452, Note_off_c, 1, 27, 64
3, 243452, Note_off_c, 1, 24, 64
3, 243456, Note_on_c, 1, 28, 120
3, 243456, Note_on_c, 1, 32, 120
3, 243456, Note_on_c, 1, 40, 120
3, 243836, Note_off_c, 1, 28, 100
3, 243836, Note_off_c, 1, 32, 100
3, 243836, Note_off_c, 1, 40, 100
3, 243840, Note_on_c, 1, 28, 120
3, 243840, Note_on_c, 1, 33, 120
3, 243840, Note_on_c, 1, 40, 120
3, 244220, Note_off_c, 1, 28, 100
3, 244220, Note_off_c, 1, 33, 100
3, 244220, Note_off_c, 1, 40, 100
3, 244224, Note_on_c, 1, 28, 120
3, 244224, Note_on_c, 1, 35, 120
3, 244224, Note_on_c, 1, 40, 120
3, 244604, Note_off_c, 1, 28, 100
3, 244604, Note_off_c, 1, 35, 100
3, 244604, Note_off_c, 1, 40, 100
3, 244608, Control_c, 1, 64, 127
3, 244608, Note_on_c, 1, 28, 120
3, 244704, Note_on_c, 1, 32, 120
3, 244800, Note_on_c, 1, 35, 120
3, 244888, Note_off_c, 1, 28, 100
3, 244988, Note_off_c, 1, 32, 100
3, 244992, Note_on_c, 1, 40, 120
3, 245080, Note_off_c, 1, 35, 100
3, 245088, Note_on_c, 1, 44, 120
3, 245184, Note_on_c, 1, 47, 120
3, 245260, Note_off_c, 1, 40, 100
3, 245356, Note_off_c, 1, 44, 100
3, 245376, Note_on_c, 1, 40, 120
3, 245460, Note_off_c, 1, 47, 64
3, 245472, Note_on_c, 1, 44, 120
3, 245568, Note_on_c, 1, 47, 120
3, 245652, Note_off_c, 1, 40, 100
3, 245720, Note_off_c, 1, 44, 100
3, 245760, Note_on_c, 1, 52, 120
3, 245852, Note_off_c, 1, 47, 100
3, 245856, Note_on_c, 1, 56, 120
3, 245952, Note_on_c, 1, 59, 120
3, 246044, Note_off_c, 1, 52, 100
3, 246140, Note_off_c, 1, 56, 100
3, 246144, Note_on_c, 1, 52, 120
3, 246212, Note_off_c, 1, 59, 64
3, 246240, Note_on_c, 1, 56, 120
3, 246336, Note_on_c, 1, 59, 120
3, 246400, Note_off_c, 1, 52, 100
3, 246504, Note_off_c, 1, 56, 100
3, 246528, Note_on_c, 1, 64, 120
3, 246616, Note_off_c, 1, 59, 100
3, 246624, Note_on_c, 1, 68, 120
3, 246720, Note_on_c, 1, 71, 120
3, 246804, Note_off_c, 1, 64, 100
3, 246884, Note_off_c, 1, 68, 100
3, 246912, Note_on_c, 1, 64, 120
3, 246984, Note_off_c, 1, 71, 64
3, 247008, Note_on_c, 1, 68, 120
3, 247104, Note_on_c, 1, 71, 120
3, 247176, Note_off_c, 1, 64, 100
3, 247268, Note_off_c, 1, 68, 100
3, 247372, Note_off_c, 1, 71, 100
3, 247488, Note_on_c, 1, 28, 120
3, 247488, Note_on_c, 1, 40, 120
3, 247672, Control_c, 1, 64, 0
3, 247676, Note_off_c, 1, 28, 100
3, 247676, Note_off_c, 1, 40, 100
3, 247680, Note_on_c, 1, 45, 120
3, 247680, Note_on_c, 1, 57, 120
3, 247868, Note_off_c, 1, 45, 100
3, 247868, Note_off_c, 1, 57, 100
3, 247872, Note_on_c, 1, 71, 120
3, 247872, Note_on_c, 1, 59, 120
3, 248060, Note_off_c, 1, 71, 100
3, 248060, Note_off_c, 1, 59, 100
3, 248064, Note_on_c, 1, 57, 120
3, 248064, Note_on_c, 1, 69, 120
3, 248540, Note_off_c, 1, 69, 64
3, 248540, Note_off_c, 1, 57, 64
3, 248544, Note_on_c, 1, 59, 120
3, 248636, Note_off_c, 1, 59, 100
3, 248640, Note_on_c, 1, 61, 120
3, 248732, Note_off_c, 1, 61, 100
3, 248736, Note_on_c, 1, 62, 120
3, 248828, Note_off_c, 1, 62, 100
3, 248832, Note_on_c, 1, 56, 120
3, 249212, Note_off_c, 1, 56, 100
3, 249408, Note_on_c, 1, 56, 120
3, 249408, Note_on_c, 1, 68, 120
3, 249596, Note_off_c, 1, 56, 100
3, 249596, Note_off_c, 1, 68, 100
3, 249600, Note_on_c, 1, 66, 120
3, 249600, Note_on_c, 1, 54, 120
3, 250076, Note_off_c, 1, 54, 64
3, 250076, Note_off_c, 1, 66, 64
3, 250080, Note_on_c, 1, 56, 120
3, 250172, Note_off_c, 1, 56, 100
3, 250176, Note_on_c, 1, 57, 120
3, 250268, Note_off_c, 1, 57, 100
3, 250272, Note_on_c, 1, 59, 120
3, 250364, Note_off_c, 1, 59, 100
3, 250368, Note_on_c, 1, 52, 120
3, 250748, Note_off_c, 1, 52, 100
3, 250944, Note_on_c, 1, 64, 80
3, 250944, Note_on_c, 1, 74, 80
3, 251324, Note_off_c, 1, 64, 100
3, 251324, Note_off_c, 1, 74, 100
3, 251328, Note_on_c, 1, 64, 80
3, 251328, Note_on_c, 1, 71, 80
3, 251708, Note_off_c, 1, 71, 64
3, 251708, Note_off_c, 1, 64, 64
3, 251712, Note_on_c, 1, 64, 80
3, 251712, Note_on_c, 1, 69, 80
3, 252092, Note_off_c, 1, 64, 100
3, 252092, Note_off_c, 1, 69, 100
3, 252096, Note_on_c, 1, 64, 80
3, 252096, Note_on_c, 1, 68, 80
3, 252284, Note_off_c, 1, 64, 100
3, 252284, Note_off_c, 1, 68, 100
3, 252288, Note_on_c, 1, 69, 80
3, 252476, Note_off_c, 1, 69, 100
3, 252480, Note_on_c, 1, 68, 80
3, 252668, Note_off_c, 1, 68, 100
3, 252672, Note_on_c, 1, 66, 80
3, 252860, Note_off_c, 1, 66, 100
3, 252864, Note_on_c, 1, 59, 80
3, 252864, Note_on_c, 1, 71, 80
3, 253052, Note_off_c, 1, 59, 100
3, 253052, Note_off_c, 1, 71, 100
3, 253056, Note_on_c, 1, 59, 80
3, 253056, Note_on_c, 1, 71, 80
3, 253436, Note_off_c, 1, 59, 100
3, 253436, Note_off_c, 1, 71, 100
3, 253440, Note_on_c, 1, 64, 80
3, 253440, Note_on_c, 1, 71, 80
3, 253628, Note_off_c, 1, 64, 100
3, 253628, Note_off_c, 1, 71, 100
3, 253632, Note_on_c, 1, 40, 80
3, 253820, Note_off_c, 1, 40, 100
3, 253824, Note_on_c, 1, 37, 80
3, 253824, Note_on_c, 1, 40, 80
3, 254012, Note_off_c, 1, 40, 100
3, 254016, Note_on_c, 1, 40, 80
3, 254204, Note_off_c, 1, 40, 100
3, 254208, Note_on_c, 1, 40, 80
3, 254300, Note_off_c, 1, 37, 100
3, 254304, Note_on_c, 1, 38, 80
3, 254396, Note_off_c, 1, 40, 100
3, 254396, Note_off_c, 1, 38, 100
3, 254400, Note_on_c, 1, 40, 80
3, 254496, Note_on_c, 1, 42, 80
3, 254588, Note_off_c, 1, 40, 100
3, 254588, Note_off_c, 1, 42, 100
3, 254592, Note_on_c, 1, 35, 80
3, 254592, Note_on_c, 1, 40, 80
3, 254780, Note_off_c, 1, 40, 100
3, 254784, Note_on_c, 1, 40, 80
3, 254972, Note_off_c, 1, 35, 100
3, 254972, Note_off_c, 1, 40, 100
3, 254976, Note_on_c, 1, 40, 80
3, 255164, Note_off_c, 1, 40, 100
3, 255168, Note_on_c, 1, 40, 80
3, 255356, Note_off_c, 1, 40, 100
3, 255360, Note_on_c, 1, 33, 80
3, 255360, Note_on_c, 1, 40, 80
3, 255548, Note_off_c, 1, 40, 100
3, 255552, Note_on_c, 1, 40, 80
3, 255740, Note_off_c, 1, 40, 100
3, 255744, Note_on_c, 1, 40, 80
3, 255836, Note_off_c, 1, 33, 100
3, 255840, Note_on_c, 1, 35, 80
3, 255932, Note_off_c, 1, 40, 100
3, 255932, Note_off_c, 1, 35, 100
3, 255936, Note_on_c, 1, 37, 80
3, 255936, Note_on_c, 1, 40, 80
3, 256028, Note_off_c, 1, 37, 100
3, 256032, Note_on_c, 1, 38, 80
3, 256124, Note_off_c, 1, 40, 100
3, 256124, Note_off_c, 1, 38, 100
3, 256128, Note_on_c, 1, 32, 80
3, 256128, Note_on_c, 1, 40, 80
3, 256316, Note_off_c, 1, 40, 100
3, 256320, Note_on_c, 1, 40, 80
3, 256508, Note_off_c, 1, 32, 100
3, 256508, Note_off_c, 1, 40, 100
3, 256512, Note_on_c, 1, 40, 80
3, 256700, Note_off_c, 1, 40, 100
3, 256704, Note_on_c, 1, 40, 80
3, 256892, Note_off_c, 1, 40, 100
3, 256896, Note_on_c, 1, 42, 80
3, 256988, Note_off_c, 1, 42, 100
3, 256992, Note_on_c, 1, 44, 80
3, 257084, Note_off_c, 1, 44, 100
3, 257088, Note_on_c, 1, 45, 80
3, 257180, Note_off_c, 1, 45, 100
3, 257184, Note_on_c, 1, 47, 80
3, 257276, Note_off_c, 1, 47, 100
3, 257280, Note_on_c, 1, 45, 80
3, 257372, Note_off_c, 1, 45, 100
3, 257376, Note_on_c, 1, 44, 80
3, 257468, Note_off_c, 1, 44, 100
3, 257472, Note_on_c, 1, 42, 80
3, 257564, Note_off_c, 1, 42, 100
3, 257568, Note_on_c, 1, 44, 80
3, 257660, Note_off_c, 1, 44, 100
3, 257664, Note_on_c, 1, 45, 80
3, 257756, Note_off_c, 1, 45, 100
3, 257760, Note_on_c, 1, 47, 80
3, 257852, Note_off_c, 1, 47, 100
3, 257856, Note_on_c, 1, 49, 80
3, 257948, Note_off_c, 1, 49, 100
3, 257952, Note_on_c, 1, 50, 80
3, 258044, Note_off_c, 1, 50, 100
3, 258048, Note_on_c, 1, 49, 80
3, 258140, Note_off_c, 1, 49, 100
3, 258144, Note_on_c, 1, 47, 80
3, 258236, Note_off_c, 1, 47, 100
3, 258240, Note_on_c, 1, 45, 80
3, 258332, Note_off_c, 1, 45, 100
3, 258336, Note_on_c, 1, 47, 80
3, 258428, Note_off_c, 1, 47, 100
3, 258432, Note_on_c, 1, 45, 80
3, 258524, Note_off_c, 1, 45, 100
3, 258528, Note_on_c, 1, 47, 80
3, 258620, Note_off_c, 1, 47, 100
3, 258624, Note_on_c, 1, 49, 80
3, 258716, Note_off_c, 1, 49, 100
3, 258720, Note_on_c, 1, 50, 80
3, 258812, Note_off_c, 1, 50, 100
3, 258816, Note_on_c, 1, 49, 80
3, 258908, Note_off_c, 1, 49, 100
3, 258912, Note_on_c, 1, 47, 80
3, 259004, Note_off_c, 1, 47, 100
3, 259008, Note_on_c, 1, 45, 80
3, 259100, Note_off_c, 1, 45, 100
3, 259104, Note_on_c, 1, 47, 80
3, 259196, Note_off_c, 1, 47, 100
3, 259200, Note_on_c, 1, 49, 80
3, 259292, Note_off_c, 1, 49, 100
3, 259296, Note_on_c, 1, 56, 80
3, 259388, Note_off_c, 1, 56, 100
3, 259392, Note_on_c, 1, 57, 80
3, 259484, Note_off_c, 1, 57, 100
3, 259488, Note_on_c, 1, 59, 80
3, 259580, Note_off_c, 1, 59, 100
3, 259584, Note_on_c, 1, 57, 80
3, 259676, Note_off_c, 1, 57, 100
3, 259680, Note_on_c, 1, 56, 80
3, 259772, Note_off_c, 1, 56, 100
3, 259776, Note_on_c, 1, 54, 80
3, 259868, Note_off_c, 1, 54, 100
3, 259872, Note_on_c, 1, 56, 80
3, 259964, Note_off_c, 1, 56, 100
3, 259968, Note_on_c, 1, 57, 80
3, 260060, Note_off_c, 1, 57, 100
3, 260064, Note_on_c, 1, 59, 80
3, 260156, Note_off_c, 1, 59, 100
3, 260160, Note_on_c, 1, 61, 81
3, 260252, Note_off_c, 1, 61, 100
3, 260256, Note_on_c, 1, 62, 82
3, 260348, Note_off_c, 1, 62, 100
3, 260352, Note_on_c, 1, 61, 82
3, 260444, Note_off_c, 1, 61, 100
3, 260448, Note_on_c, 1, 59, 83
3, 260540, Note_off_c, 1, 59, 100
3, 260544, Note_on_c, 1, 57, 84
3, 260636, Note_off_c, 1, 57, 100
3, 260640, Note_on_c, 1, 59, 84
3, 260732, Note_off_c, 1, 59, 100
3, 260736, Note_on_c, 1, 61, 85
3, 260828, Note_off_c, 1, 61, 100
3, 260832, Note_on_c, 1, 62, 86
3, 260924, Note_off_c, 1, 62, 100
3, 260928, Note_on_c, 1, 64, 86
3, 261020, Note_off_c, 1, 64, 100
3, 261024, Note_on_c, 1, 66, 87
3, 261116, Note_off_c, 1, 66, 100
3, 261120, Note_on_c, 1, 64, 88
3, 261212, Note_off_c, 1, 64, 100
3, 261216, Note_on_c, 1, 62, 88
3, 261308, Note_off_c, 1, 62, 100
3, 261312, Note_on_c, 1, 61, 89
3, 261404, Note_off_c, 1, 61, 100
3, 261408, Note_on_c, 1, 62, 90
3, 261500, Note_off_c, 1, 62, 100
3, 261504, Note_on_c, 1, 64, 90
3, 261596, Note_off_c, 1, 64, 100
3, 261600, Note_on_c, 1, 66, 91
3, 261692, Note_off_c, 1, 66, 100
3, 261696, Note_on_c, 1, 67, 92
3, 261788, Note_off_c, 1, 67, 100
3, 261792, Note_on_c, 1, 69, 92
3, 261884, Note_off_c, 1, 69, 100
3, 261888, Note_on_c, 1, 67, 93
3, 261980, Note_off_c, 1, 67, 100
3, 261984, Note_on_c, 1, 66, 94
3, 262076, Note_off_c, 1, 66, 100
3, 262080, Note_on_c, 1, 64, 94
3, 262172, Note_off_c, 1, 64, 100
3, 262176, Note_on_c, 1, 66, 95
3, 262268, Note_off_c, 1, 66, 100
3, 262272, Note_on_c, 1, 67, 96
3, 262364, Note_off_c, 1, 67, 100
3, 262368, Note_on_c, 1, 69, 96
3, 262460, Note_off_c, 1, 69, 100
3, 262464, Note_on_c, 1, 71, 97
3, 262556, Note_off_c, 1, 71, 100
3, 262560, Note_on_c, 1, 73, 98
3, 262652, Note_off_c, 1, 73, 100
3, 262656, Note_on_c, 1, 74, 98
3, 262748, Note_off_c, 1, 74, 100
3, 262752, Note_on_c, 1, 76, 99
3, 262844, Note_off_c, 1, 76, 100
3, 262848, Note_on_c, 1, 74, 100
3, 262940, Note_off_c, 1, 74, 100
3, 262944, Note_on_c, 1, 73, 100
3, 263036, Note_off_c, 1, 73, 100
3, 263040, Note_on_c, 1, 66, 80
3, 263040, Note_on_c, 1, 62, 80
3, 263132, Note_off_c, 1, 66, 100
3, 263136, Note_on_c, 1, 67, 80
3, 263228, Note_off_c, 1, 67, 100
3, 263232, Note_on_c, 1, 69, 80
3, 263324, Note_off_c, 1, 69, 100
3, 263328, Note_on_c, 1, 71, 80
3, 263420, Note_off_c, 1, 62, 100
3, 263420, Note_off_c, 1, 71, 100
3, 263424, Note_on_c, 1, 69, 80
3, 263612, Note_off_c, 1, 69, 100
3, 263808, Note_on_c, 1, 66, 80
3, 263808, Note_on_c, 1, 62, 80
3, 263900, Note_off_c, 1, 66, 100
3, 263904, Note_on_c, 1, 67, 80
3, 263996, Note_off_c, 1, 67, 100
3, 264000, Note_on_c, 1, 69, 80
3, 264092, Note_off_c, 1, 69, 100
3, 264096, Note_on_c, 1, 71, 80
3, 264188, Note_off_c, 1, 62, 100
3, 264188, Note_off_c, 1, 71, 100
3, 264192, Note_on_c, 1, 69, 80
3, 264380, Note_off_c, 1, 69, 100
3, 264576, Note_on_c, 1, 67, 80
3, 264576, Note_on_c, 1, 64, 80
3, 264668, Note_off_c, 1, 67, 100
3, 264672, Note_on_c, 1, 69, 80
3, 264764, Note_off_c, 1, 69, 100
3, 264768, Note_on_c, 1, 71, 80
3, 264860, Note_off_c, 1, 71, 100
3, 264864, Note_on_c, 1, 69, 80
3, 264956, Note_off_c, 1, 64, 100
3, 264956, Note_off_c, 1, 69, 100
3, 265344, Note_on_c, 1, 67, 80
3, 265344, Note_on_c, 1, 64, 80
3, 265436, Note_off_c, 1, 67, 100
3, 265440, Note_on_c, 1, 69, 80
3, 265532, Note_off_c, 1, 69, 100
3, 265536, Note_on_c, 1, 71, 80
3, 265628, Note_off_c, 1, 71, 100
3, 265632, Note_on_c, 1, 69, 80
3, 265724, Note_off_c, 1, 64, 100
3, 265724, Note_off_c, 1, 69, 100
3, 266112, Note_on_c, 1, 66, 80
3, 266112, Note_on_c, 1, 62, 80
3, 266204, Note_off_c, 1, 66, 100
3, 266208, Note_on_c, 1, 67, 80
3, 266300, Note_off_c, 1, 67, 100
3, 266304, Note_on_c, 1, 69, 80
3, 266396, Note_off_c, 1, 69, 100
3, 266400, Note_on_c, 1, 71, 80
3, 266492, Note_off_c, 1, 62, 100
3, 266492, Note_off_c, 1, 71, 100
3, 266496, Note_on_c, 1, 69, 80
3, 266684, Note_off_c, 1, 69, 100
3, 266880, Note_on_c, 1, 66, 80
3, 266880, Note_on_c, 1, 62, 80
3, 266972, Note_off_c, 1, 66, 100
3, 266976, Note_on_c, 1, 67, 80
3, 267068, Note_off_c, 1, 67, 100
3, 267072, Note_on_c, 1, 69, 80
3, 267164, Note_off_c, 1, 69, 100
3, 267168, Note_on_c, 1, 71, 80
3, 267260, Note_off_c, 1, 62, 100
3, 267260, Note_off_c, 1, 71, 100
3, 267264, Note_on_c, 1, 69, 80
3, 267452, Note_off_c, 1, 69, 100
3, 267648, Note_on_c, 1, 67, 80
3, 267648, Note_on_c, 1, 64, 80
3, 267740, Note_off_c, 1, 67, 100
3, 267744, Note_on_c, 1, 69, 80
3, 267836, Note_off_c, 1, 69, 100
3, 267840, Note_on_c, 1, 71, 80
3, 267932, Note_off_c, 1, 71, 100
3, 267936, Note_on_c, 1, 69, 80
3, 268028, Note_off_c, 1, 64, 100
3, 268028, Note_off_c, 1, 69, 100
3, 268416, Note_on_c, 1, 67, 82
3, 268416, Note_on_c, 1, 64, 82
3, 268508, Note_off_c, 1, 67, 100
3, 268512, Note_on_c, 1, 69, 82
3, 268604, Note_off_c, 1, 69, 100
3, 268608, Note_on_c, 1, 71, 83
3, 268700, Note_off_c, 1, 71, 100
3, 268704, Note_on_c, 1, 69, 83
3, 268796, Note_off_c, 1, 64, 100
3, 268796, Note_off_c, 1, 69, 100
3, 269184, Note_on_c, 1, 57, 86
3, 269184, Note_on_c, 1, 54, 86
3, 269276, Note_off_c, 1, 57, 100
3, 269280, Note_on_c, 1, 62, 86
3, 269372, Note_off_c, 1, 62, 100
3, 269376, Note_on_c, 1, 57, 87
3, 269468, Note_off_c, 1, 57, 100
3, 269472, Note_on_c, 1, 62, 87
3, 269564, Note_off_c, 1, 54, 100
3, 269564, Note_off_c, 1, 62, 100
3, 269568, Note_on_c, 1, 66, 88
3, 269756, Note_off_c, 1, 66, 100
3, 269952, Note_on_c, 1, 59, 90
3, 269952, Note_on_c, 1, 56, 90
3, 270044, Note_off_c, 1, 59, 100
3, 270048, Note_on_c, 1, 66, 91
3, 270140, Note_off_c, 1, 66, 100
3, 270144, Note_on_c, 1, 59, 91
3, 270236, Note_off_c, 1, 59, 100
3, 270240, Note_on_c, 1, 64, 92
3, 270332, Note_off_c, 1, 56, 100
3, 270332, Note_off_c, 1, 64, 100
3, 270336, Note_on_c, 1, 68, 92
3, 270524, Note_off_c, 1, 68, 100
3, 270720, Note_on_c, 1, 61, 94
3, 270720, Note_on_c, 1, 57, 94
3, 270812, Note_off_c, 1, 61, 100
3, 270816, Note_on_c, 1, 64, 95
3, 270908, Note_off_c, 1, 64, 100
3, 270912, Note_on_c, 1, 61, 95
3, 271004, Note_off_c, 1, 61, 100
3, 271008, Note_on_c, 1, 64, 96
3, 271100, Note_off_c, 1, 57, 100
3, 271100, Note_off_c, 1, 64, 100
3, 271104, Note_on_c, 1, 69, 96
3, 271292, Note_off_c, 1, 69, 100
3, 271488, Note_on_c, 1, 62, 98
3, 271488, Note_on_c, 1, 59, 98
3, 271580, Note_off_c, 1, 62, 100
3, 271584, Note_on_c, 1, 64, 99
3, 271676, Note_off_c, 1, 64, 100
3, 271680, Note_on_c, 1, 62, 99
3, 271772, Note_off_c, 1, 62, 100
3, 271776, Note_on_c, 1, 64, 100
3, 271868, Note_off_c, 1, 59, 100
3, 271868, Note_off_c, 1, 64, 100
3, 271872, Note_on_c, 1, 71, 101
3, 272060, Note_off_c, 1, 71, 100
3, 272256, Note_on_c, 1, 61, 103
3, 272348, Note_off_c, 1, 61, 100
3, 272352, Note_on_c, 1, 64, 103
3, 272444, Note_off_c, 1, 64, 100
3, 272448, Note_on_c, 1, 61, 104
3, 272540, Note_off_c, 1, 61, 100
3, 272544, Note_on_c, 1, 64, 104
3, 272636, Note_off_c, 1, 64, 100
3, 272640, Note_on_c, 1, 73, 105
3, 272828, Note_off_c, 1, 73, 100
3, 273024, Note_on_c, 1, 62, 107
3, 273116, Note_off_c, 1, 62, 100
3, 273120, Note_on_c, 1, 64, 107
3, 273212, Note_off_c, 1, 64, 100
3, 273216, Note_on_c, 1, 68, 108
3, 273308, Note_off_c, 1, 68, 100
3, 273312, Note_on_c, 1, 71, 108
3, 273404, Note_off_c, 1, 71, 100
3, 273408, Note_on_c, 1, 74, 109
3, 273596, Note_off_c, 1, 74, 100
3, 273600, Note_on_c, 1, 74, 110
3, 273788, Note_off_c, 1, 74, 100
3, 273792, Note_on_c, 1, 74, 110
3, 273792, Note_on_c, 1, 76, 110
3, 273884, Note_off_c, 1, 74, 100
3, 273888, Note_on_c, 1, 73, 110
3, 273980, Note_off_c, 1, 73, 100
3, 273984, Note_on_c, 1, 71, 110
3, 274076, Note_off_c, 1, 71, 100
3, 274080, Note_on_c, 1, 73, 110
3, 274172, Note_off_c, 1, 73, 100
3, 274176, Note_on_c, 1, 74, 110
3, 274556, Note_off_c, 1, 76, 100
3, 274556, Note_off_c, 1, 74, 100
3, 274560, Note_on_c, 1, 74, 110
3, 274560, Note_on_c, 1, 76, 110
3, 274652, Note_off_c, 1, 74, 100
3, 274656, Note_on_c, 1, 73, 110
3, 274748, Note_off_c, 1, 73, 100
3, 274752, Note_on_c, 1, 71, 110
3, 274844, Note_off_c, 1, 71, 100
3, 274848, Note_on_c, 1, 73, 110
3, 274940, Note_off_c, 1, 73, 100
3, 274944, Note_on_c, 1, 74, 110
3, 275324, Note_off_c, 1, 76, 100
3, 275324, Note_off_c, 1, 74, 100
3, 275328, Note_on_c, 1, 74, 120
3, 275328, Note_on_c, 1, 76, 120
3, 275516, Note_off_c, 1, 74, 100
3, 275516, Note_off_c, 1, 76, 100
3, 275520, Note_on_c, 1, 73, 120
3, 275520, Note_on_c, 1, 76, 120
3, 275708, Note_off_c, 1, 73, 100
3, 275708, Note_off_c, 1, 76, 100
3, 275712, Note_on_c, 1, 71, 120
3, 275712, Note_on_c, 1, 74, 120
3, 275712, Note_on_c, 1, 76, 120
3, 275900, Note_off_c, 1, 71, 100
3, 275900, Note_off_c, 1, 74, 100
3, 275900, Note_off_c, 1, 76, 100
3, 275904, Note_on_c, 1, 69, 120
3, 275904, Note_on_c, 1, 73, 120
3, 275904, Note_on_c, 1, 76, 120
3, 276092, Note_off_c, 1, 69, 100
3, 276092, Note_off_c, 1, 73, 100
3, 276092, Note_off_c, 1, 76, 100
3, 276096, Note_on_c, 1, 68, 120
3, 276096, Note_on_c, 1, 71, 120
3, 276096, Note_on_c, 1, 76, 120
3, 276284, Note_off_c, 1, 68, 100
3, 276284, Note_off_c, 1, 71, 100
3, 276284, Note_off_c, 1, 76, 100
3, 276288, Note_on_c, 1, 66, 120
3, 276288, Note_on_c, 1, 69, 120
3, 276288, Note_on_c, 1, 76, 120
3, 276476, Note_off_c, 1, 66, 100
3, 276476, Note_off_c, 1, 69, 100
3, 276476, Note_off_c, 1, 76, 100
3, 276480, Note_on_c, 1, 64, 120
3, 276480, Note_on_c, 1, 68, 120
3, 276480, Note_on_c, 1, 76, 120
3, 276860, Note_off_c, 1, 64, 100
3, 276860, Note_off_c, 1, 68, 100
3, 276860, Note_off_c, 1, 76, 100
3, 278784, Note_on_c, 1, 69, 80
3, 279068, Note_off_c, 1, 69, 100
3, 279072, Note_on_c, 1, 68, 80
3, 279164, Note_off_c, 1, 68, 100
3, 279168, Note_on_c, 1, 66, 80
3, 279452, Note_off_c, 1, 66, 100
3, 279456, Note_on_c, 1, 68, 80
3, 279548, Note_off_c, 1, 68, 100
3, 279552, Note_on_c, 1, 69, 80
3, 279932, Note_off_c, 1, 69, 100
3, 280320, Note_on_c, 1, 47, 80
3, 280604, Note_off_c, 1, 47, 100
3, 280608, Note_on_c, 1, 46, 80
3, 280700, Note_off_c, 1, 46, 100
3, 280704, Note_on_c, 1, 47, 80
3, 280988, Note_off_c, 1, 47, 100
3, 280992, Note_on_c, 1, 45, 80
3, 281084, Note_off_c, 1, 45, 100
3, 281088, Note_on_c, 1, 42, 80
3, 281468, Note_off_c, 1, 42, 100
3, 281472, Note_on_c, 1, 40, 80
3, 281852, Note_off_c, 1, 40, 100
3, 281856, Control_c, 1, 64, 127
3, 281856, Note_on_c, 1, 69, 70
3, 281856, Note_on_c, 1, 73, 70
3, 282140, Note_off_c, 1, 69, 100
3, 282140, Note_off_c, 1, 73, 100
3, 282144, Note_on_c, 1, 64, 70
3, 282144, Note_on_c, 1, 71, 70
3, 282236, Note_off_c, 1, 64, 100
3, 282236, Note_off_c, 1, 71, 100
3, 282240, Note_on_c, 1, 61, 70
3, 282240, Note_on_c, 1, 69, 70
3, 282524, Note_off_c, 1, 61, 100
3, 282524, Note_off_c, 1, 69, 100
3, 282528, Note_on_c, 1, 64, 70
3, 282528, Note_on_c, 1, 71, 70
3, 282620, Note_off_c, 1, 64, 100
3, 282620, Note_off_c, 1, 71, 100
3, 282624, Note_on_c, 1, 69, 70
3, 282624, Note_on_c, 1, 73, 70
3, 283000, Control_c, 1, 64, 0
3, 283004, Note_off_c, 1, 69, 100
3, 283004, Note_off_c, 1, 73, 100
3, 283008, Note_on_c, 1, 76, 110
3, 283196, Note_off_c, 1, 76, 100
3, 283200, Note_on_c, 1, 64, 110
3, 283388, Note_off_c, 1, 64, 100
3, 283392, Note_on_c, 1, 69, 110
3, 283580, Note_off_c, 1, 69, 100
3, 283584, Note_on_c, 1, 57, 110
3, 283772, Note_off_c, 1, 57, 100
3, 283776, Note_on_c, 1, 64, 110
3, 283964, Note_off_c, 1, 64, 100
3, 283968, Note_on_c, 1, 52, 110
3, 284156, Note_off_c, 1, 52, 100
3, 284160, Note_on_c, 1, 45, 110
3, 284540, Note_off_c, 1, 45, 100
3, 284544, Note_on_c, 1, 45, 80
3, 284732, Note_off_c, 1, 45, 100
3, 284736, Note_on_c, 1, 64, 80
3, 284736, Note_on_c, 1, 61, 80
3, 284736, Note_on_c, 1, 57, 80
3, 284924, Note_off_c, 1, 64, 100
3, 284924, Note_off_c, 1, 61, 100
3, 284924, Note_off_c, 1, 57, 100
3, 284928, Note_on_c, 1, 64, 80
3, 284928, Note_on_c, 1, 61, 80
3, 284928, Note_on_c, 1, 57, 80
3, 285116, Note_off_c, 1, 64, 100
3, 285116, Note_off_c, 1, 61, 100
3, 285116, Note_off_c, 1, 57, 100
3, 285120, Note_on_c, 1, 64, 80
3, 285120, Note_on_c, 1, 61, 80
3, 285120, Note_on_c, 1, 57, 80
3, 285308, Note_off_c, 1, 64, 100
3, 285308, Note_off_c, 1, 61, 100
3, 285308, Note_off_c, 1, 57, 100
3, 285312, Note_on_c, 1, 45, 80
3, 285500, Note_off_c, 1, 45, 100
3, 285504, Note_on_c, 1, 66, 80
3, 285504, Note_on_c, 1, 62, 80
3, 285504, Note_on_c, 1, 57, 80
3, 285692, Note_off_c, 1, 66, 100
3, 285692, Note_off_c, 1, 62, 100
3, 285692, Note_off_c, 1, 57, 100
3, 285696, Note_on_c, 1, 66, 80
3, 285696, Note_on_c, 1, 62, 80
3, 285696, Note_on_c, 1, 57, 80
3, 285884, Note_off_c, 1, 66, 100
3, 285884, Note_off_c, 1, 62, 100
3, 285884, Note_off_c, 1, 57, 100
3, 285888, Note_on_c, 1, 66, 80
3, 285888, Note_on_c, 1, 62, 80
3, 285888, Note_on_c, 1, 57, 80
3, 286076, Note_off_c, 1, 66, 100
3, 286076, Note_off_c, 1, 62, 100
3, 286076, Note_off_c, 1, 57, 100
3, 286080, Note_on_c, 1, 45, 80
3, 286268, Note_off_c, 1, 45, 100
3, 286272, Note_on_c, 1, 64, 80
3, 286272, Note_on_c, 1, 62, 80
3, 286272, Note_on_c, 1, 59, 80
3, 286272, Note_on_c, 1, 57, 80
3, 286460, Note_off_c, 1, 64, 100
3, 286460, Note_off_c, 1, 62, 100
3, 286460, Note_off_c, 1, 59, 100
3, 286460, Note_off_c, 1, 57, 100
3, 286464, Note_on_c, 1, 64, 80
3, 286464, Note_on_c, 1, 62, 80
3, 286464, Note_on_c, 1, 59, 80
3, 286464, Note_on_c, 1, 57, 80
3, 286652, Note_off_c, 1, 64, 100
3, 286652, Note_off_c, 1, 62, 100
3, 286652, Note_off_c, 1, 59, 100
3, 286652, Note_off_c, 1, 57, 100
3, 286656, Note_on_c, 1, 64, 80
3, 286656, Note_on_c, 1, 62, 80
3, 286656, Note_on_c, 1, 59, 80
3, 286656, Note_on_c, 1, 57, 80
3, 286844, Note_off_c, 1, 64, 100
3, 286844, Note_off_c, 1, 62, 100
3, 286844, Note_off_c, 1, 59, 100
3, 286844, Note_off_c, 1, 57, 100
3, 286848, Note_on_c, 1, 45, 80
3, 287036, Note_off_c, 1, 45, 100
3, 287040, Note_on_c, 1, 64, 80
3, 287040, Note_on_c, 1, 61, 80
3, 287040, Note_on_c, 1, 57, 80
3, 287228, Note_off_c, 1, 64, 100
3, 287228, Note_off_c, 1, 61, 100
3, 287228, Note_off_c, 1, 57, 100
3, 287232, Note_on_c, 1, 64, 80
3, 287232, Note_on_c, 1, 61, 80
3, 287232, Note_on_c, 1, 57, 80
3, 287420, Note_off_c, 1, 64, 100
3, 287420, Note_off_c, 1, 61, 100
3, 287420, Note_off_c, 1, 57, 100
3, 287424, Note_on_c, 1, 64, 80
3, 287424, Note_on_c, 1, 61, 80
3, 287424, Note_on_c, 1, 57, 80
3, 287612, Note_off_c, 1, 64, 100
3, 287612, Note_off_c, 1, 61, 100
3, 287612, Note_off_c, 1, 57, 100
3, 287616, Note_on_c, 1, 45, 80
3, 287804, Note_off_c, 1, 45, 100
3, 287808, Note_on_c, 1, 64, 81
3, 287808, Note_on_c, 1, 61, 81
3, 287808, Note_on_c, 1, 57, 81
3, 287996, Note_off_c, 1, 64, 100
3, 287996, Note_off_c, 1, 61, 100
3, 287996, Note_off_c, 1, 57, 100
3, 288000, Note_on_c, 1, 64, 83
3, 288000, Note_on_c, 1, 61, 83
3, 288000, Note_on_c, 1, 57, 83
3, 288188, Note_off_c, 1, 64, 100
3, 288188, Note_off_c, 1, 61, 100
3, 288188, Note_off_c, 1, 57, 100
3, 288192, Note_on_c, 1, 64, 85
3, 288192, Note_on_c, 1, 61, 85
3, 288192, Note_on_c, 1, 57, 85
3, 288380, Note_off_c, 1, 64, 100
3, 288380, Note_off_c, 1, 61, 100
3, 288380, Note_off_c, 1, 57, 100
3, 288384, Note_on_c, 1, 45, 87
3, 288572, Note_off_c, 1, 45, 100
3, 288576, Note_on_c, 1, 66, 89
3, 288576, Note_on_c, 1, 62, 89
3, 288576, Note_on_c, 1, 57, 89
3, 288764, Note_off_c, 1, 66, 100
3, 288764, Note_off_c, 1, 62, 100
3, 288764, Note_off_c, 1, 57, 100
3, 288768, Note_on_c, 1, 66, 90
3, 288768, Note_on_c, 1, 62, 90
3, 288768, Note_on_c, 1, 57, 90
3, 288956, Note_off_c, 1, 66, 100
3, 288956, Note_off_c, 1, 62, 100
3, 288956, Note_off_c, 1, 57, 100
3, 288960, Note_on_c, 1, 66, 92
3, 288960, Note_on_c, 1, 62, 92
3, 288960, Note_on_c, 1, 57, 92
3, 289148, Note_off_c, 1, 66, 100
3, 289148, Note_off_c, 1, 62, 100
3, 289148, Note_off_c, 1, 57, 100
3, 289152, Note_on_c, 1, 45, 94
3, 289340, Note_off_c, 1, 45, 100
3, 289344, Note_on_c, 1, 64, 96
3, 289344, Note_on_c, 1, 62, 96
3, 289344, Note_on_c, 1, 59, 96
3, 289344, Note_on_c, 1, 57, 96
3, 289532, Note_off_c, 1, 64, 100
3, 289532, Note_off_c, 1, 62, 100
3, 289532, Note_off_c, 1, 59, 100
3, 289532, Note_off_c, 1, 57, 100
3, 289536, Note_on_c, 1, 64, 98
3, 289536, Note_on_c, 1, 62, 98
3, 289536, Note_on_c, 1, 59, 98
3, 289536, Note_on_c, 1, 57, 98
3, 289724, Note_off_c, 1, 64, 100
3, 289724, Note_off_c, 1, 62, 100
3, 289724, Note_off_c, 1, 59, 100
3, 289724, Note_off_c, 1, 57, 100
3, 289728, Note_on_c, 1, 64, 100
3, 289728, Note_on_c, 1, 62, 100
3, 289728, Note_on_c, 1, 59, 100
3, 289728, Note_on_c, 1, 57, 100
3, 289916, Note_off_c, 1, 64, 100
3, 289916, Note_off_c, 1, 62, 100
3, 289916, Note_off_c, 1, 59, 100
3, 289916, Note_off_c, 1, 57, 100
3, 289920, Note_on_c, 1, 45, 80
3, 290012, Note_off_c, 1, 45, 100
3, 290016, Note_on_c, 1, 47, 82
3, 290108, Note_off_c, 1, 47, 100
3, 290112, Note_on_c, 1, 49, 84
3, 290204, Note_off_c, 1, 49, 100
3, 290208, Note_on_c, 1, 50, 86
3, 290300, Note_off_c, 1, 50, 100
3, 290304, Note_on_c, 1, 49, 88
3, 290396, Note_off_c, 1, 49, 100
3, 290400, Note_on_c, 1, 50, 90
3, 290492, Note_off_c, 1, 50, 100
3, 290496, Note_on_c, 1, 52, 92
3, 290588, Note_off_c, 1, 52, 100
3, 290592, Note_on_c, 1, 54, 94
3, 290684, Note_off_c, 1, 54, 100
3, 290688, Note_on_c, 1, 52, 96
3, 290780, Note_off_c, 1, 52, 100
3, 290784, Note_on_c, 1, 54, 98
3, 290876, Note_off_c, 1, 54, 100
3, 290880, Note_on_c, 1, 56, 100
3, 290972, Note_off_c, 1, 56, 100
3, 290976, Note_on_c, 1, 57, 102
3, 291068, Note_off_c, 1, 57, 100
3, 291072, Note_on_c, 1, 56, 104
3, 291164, Note_off_c, 1, 56, 100
3, 291168, Note_on_c, 1, 57, 106
3, 291260, Note_off_c, 1, 57, 100
3, 291264, Note_on_c, 1, 59, 108
3, 291356, Note_off_c, 1, 59, 100
3, 291360, Note_on_c, 1, 61, 110
3, 291452, Note_off_c, 1, 61, 100
3, 291456, Note_on_c, 1, 52, 110
3, 291456, Note_on_c, 1, 59, 110
3, 291456, Note_on_c, 1, 62, 110
3, 291644, Note_off_c, 1, 52, 100
3, 291644, Note_off_c, 1, 59, 100
3, 291644, Note_off_c, 1, 62, 100
3, 291648, Note_on_c, 1, 40, 110
3, 291648, Note_on_c, 1, 52, 110
3, 292028, Note_off_c, 1, 40, 100
3, 292028, Note_off_c, 1, 52, 100
3, 292032, Note_on_c, 1, 40, 110
3, 292032, Note_on_c, 1, 52, 110
3, 292508, Note_off_c, 1, 52, 64
3, 292508, Note_off_c, 1, 40, 64
3, 292512, Note_on_c, 1, 40, 110
3, 292512, Note_on_c, 1, 47, 110
3, 292512, Note_on_c, 1, 50, 110
3, 292604, Note_off_c, 1, 40, 100
3, 292604, Note_off_c, 1, 47, 100
3, 292604, Note_off_c, 1, 50, 100
3, 292608, Note_on_c, 1, 40, 110
3, 292608, Note_on_c, 1, 47, 110
3, 292608, Note_on_c, 1, 50, 110
3, 292892, Note_off_c, 1, 40, 100
3, 292892, Note_off_c, 1, 47, 100
3, 292892, Note_off_c, 1, 50, 100
3, 292896, Note_on_c, 1, 40, 110
3, 292896, Note_on_c, 1, 47, 110
3, 292896, Note_on_c, 1, 50, 110
3, 292988, Note_off_c, 1, 40, 100
3, 292988, Note_off_c, 1, 47, 100
3, 292988, Note_off_c, 1, 50, 100
3, 292992, Note_on_c, 1, 45, 110
3, 293084, Note_off_c, 1, 45, 100
3, 293088, Note_on_c, 1, 47, 80
3, 293180, Note_off_c, 1, 47, 100
3, 293184, Note_on_c, 1, 49, 82
3, 293276, Note_off_c, 1, 49, 100
3, 293280, Note_on_c, 1, 50, 84
3, 293372, Note_off_c, 1, 50, 100
3, 293376, Note_on_c, 1, 49, 86
3, 293468, Note_off_c, 1, 49, 100
3, 293472, Note_on_c, 1, 50, 88
3, 293564, Note_off_c, 1, 50, 100
3, 293568, Note_on_c, 1, 52, 91
3, 293660, Note_off_c, 1, 52, 100
3, 293664, Note_on_c, 1, 54, 93
3, 293756, Note_off_c, 1, 54, 100
3, 293760, Note_on_c, 1, 52, 95
3, 293852, Note_off_c, 1, 52, 100
3, 293856, Note_on_c, 1, 54, 97
3, 293948, Note_off_c, 1, 54, 100
3, 293952, Note_on_c, 1, 56, 99
3, 294044, Note_off_c, 1, 56, 100
3, 294048, Note_on_c, 1, 57, 102
3, 294140, Note_off_c, 1, 57, 100
3, 294144, Note_on_c, 1, 56, 104
3, 294236, Note_off_c, 1, 56, 100
3, 294240, Note_on_c, 1, 57, 106
3, 294332, Note_off_c, 1, 57, 100
3, 294336, Note_on_c, 1, 59, 108
3, 294428, Note_off_c, 1, 59, 100
3, 294432, Note_on_c, 1, 61, 110
3, 294524, Note_off_c, 1, 61, 100
3, 294528, Note_on_c, 1, 52, 120
3, 294528, Note_on_c, 1, 59, 120
3, 294528, Note_on_c, 1, 62, 120
3, 294716, Note_off_c, 1, 52, 100
3, 294716, Note_off_c, 1, 59, 100
3, 294716, Note_off_c, 1, 62, 100
3, 294720, Note_on_c, 1, 52, 120
3, 294720, Note_on_c, 1, 64, 120
3, 295100, Note_off_c, 1, 52, 100
3, 295100, Note_off_c, 1, 64, 100
3, 295104, Note_on_c, 1, 52, 120
3, 295104, Note_on_c, 1, 64, 120
3, 295580, Note_off_c, 1, 64, 64
3, 295580, Note_off_c, 1, 52, 64
3, 295584, Note_on_c, 1, 64, 120
3, 295584, Note_on_c, 1, 71, 120
3, 295584, Note_on_c, 1, 74, 120
3, 295676, Note_off_c, 1, 64, 100
3, 295676, Note_off_c, 1, 71, 100
3, 295676, Note_off_c, 1, 74, 100
3, 295680, Note_on_c, 1, 64, 120
3, 295680, Note_on_c, 1, 71, 120
3, 295680, Note_on_c, 1, 74, 120
3, 295964, Note_off_c, 1, 64, 100
3, 295964, Note_off_c, 1, 71, 100
3, 295964, Note_off_c, 1, 74, 100
3, 295968, Note_on_c, 1, 64, 120
3, 295968, Note_on_c, 1, 71, 120
3, 295968, Note_on_c, 1, 74, 120
3, 296060, Note_off_c, 1, 64, 100
3, 296060, Note_off_c, 1, 71, 100
3, 296060, Note_off_c, 1, 74, 100
3, 296064, Note_on_c, 1, 66, 120
3, 296064, Note_on_c, 1, 69, 120
3, 296064, Note_on_c, 1, 73, 120
3, 296444, Note_off_c, 1, 66, 100
3, 296444, Note_off_c, 1, 69, 100
3, 296444, Note_off_c, 1, 73, 100
3, 296640, Note_on_c, 1, 50, 80
3, 296640, Note_on_c, 1, 62, 80
3, 296828, Note_off_c, 1, 50, 100
3, 296828, Note_off_c, 1, 62, 100
3, 296832, Note_on_c, 1, 50, 80
3, 296832, Note_on_c, 1, 62, 80
3, 297212, Note_off_c, 1, 50, 100
3, 297212, Note_off_c, 1, 62, 100
3, 297408, Note_on_c, 1, 47, 80
3, 297408, Note_on_c, 1, 59, 80
3, 297596, Note_off_c, 1, 47, 100
3, 297596, Note_off_c, 1, 59, 100
3, 297600, Note_on_c, 1, 47, 80
3, 297600, Note_on_c, 1, 59, 80
3, 297788, Note_off_c, 1, 47, 100
3, 297788, Note_off_c, 1, 59, 100
3, 297792, Note_on_c, 1, 52, 80
3, 297792, Note_on_c, 1, 64, 80
3, 297980, Note_off_c, 1, 52, 100
3, 297980, Note_off_c, 1, 64, 100
3, 297984, Note_on_c, 1, 52, 80
3, 297984, Note_on_c, 1, 64, 80
3, 298172, Note_off_c, 1, 52, 100
3, 298172, Note_off_c, 1, 64, 100
3, 298176, Note_on_c, 1, 45, 80
3, 298176, Note_on_c, 1, 57, 80
3, 298364, Note_off_c, 1, 45, 100
3, 298364, Note_off_c, 1, 57, 100
3, 298368, Note_on_c, 1, 40, 80
3, 298368, Note_on_c, 1, 52, 80
3, 298748, Note_off_c, 1, 40, 100
3, 298748, Note_off_c, 1, 52, 100
3, 299136, Note_on_c, 1, 56, 70
3, 299516, Note_off_c, 1, 56, 100
3, 299712, Note_on_c, 1, 57, 70
3, 299900, Note_off_c, 1, 57, 100
3, 299904, Note_on_c, 1, 57, 70
3, 300284, Note_off_c, 1, 57, 100
3, 300480, Note_on_c, 1, 50, 70
3, 300668, Note_off_c, 1, 50, 100
3, 300672, Note_on_c, 1, 50, 70
3, 300860, Note_off_c, 1, 50, 100
3, 300864, Note_on_c, 1, 52, 70
3, 301052, Note_off_c, 1, 52, 100
3, 301056, Note_on_c, 1, 52, 70
3, 301244, Note_off_c, 1, 52, 100
3, 301248, Note_on_c, 1, 45, 70
3, 301436, Note_off_c, 1, 45, 100
3, 301440, Note_on_c, 1, 45, 70
3, 301820, Note_off_c, 1, 45, 100
3, 302208, Note_on_c, 1, 35, 70
3, 302396, Note_off_c, 1, 35, 100
3, 302400, Note_on_c, 1, 40, 70
3, 302588, Note_off_c, 1, 40, 100
3, 302592, Note_on_c, 1, 40, 70
3, 302780, Note_off_c, 1, 40, 100
3, 302784, Note_on_c, 1, 33, 70
3, 302972, Note_off_c, 1, 33, 100
3, 302976, Note_on_c, 1, 33, 70
3, 303356, Note_off_c, 1, 33, 100
3, 303744, Note_on_c, 1, 35, 80
3, 303932, Note_off_c, 1, 35, 100
3, 303936, Note_on_c, 1, 40, 80
3, 304124, Note_off_c, 1, 40, 100
3, 304128, Note_on_c, 1, 40, 80
3, 304316, Note_off_c, 1, 40, 100
3, 304320, Note_on_c, 1, 33, 80
3, 304508, Note_off_c, 1, 33, 100
3, 304512, Note_on_c, 1, 33, 80
3, 304892, Note_off_c, 1, 33, 100
3, 305280, Note_on_c, 1, 35, 80
3, 305468, Note_off_c, 1, 35, 100
3, 305472, Note_on_c, 1, 40, 80
3, 305660, Note_off_c, 1, 40, 100
3, 305664, Note_on_c, 1, 40, 80
3, 305852, Note_off_c, 1, 40, 100
3, 305856, Note_on_c, 1, 33, 80
3, 306044, Note_off_c, 1, 33, 100
3, 306048, Note_on_c, 1, 33, 80
3, 306428, Note_off_c, 1, 33, 100
3, 306816, Note_on_c, 1, 35, 80
3, 307004, Note_off_c, 1, 35, 100
3, 307008, Note_on_c, 1, 40, 80
3, 307196, Note_off_c, 1, 40, 100
3, 307200, Note_on_c, 1, 40, 80
3, 307388, Note_off_c, 1, 40, 100
3, 307392, Note_on_c, 1, 33, 80
3, 307580, Note_off_c, 1, 33, 100
3, 307584, Note_on_c, 1, 33, 80
3, 307964, Note_off_c, 1, 33, 100
3, 308352, Note_on_c, 1, 35, 80
3, 308540, Note_off_c, 1, 35, 100
3, 308544, Note_on_c, 1, 40, 80
3, 308732, Note_off_c, 1, 40, 100
3, 308736, Note_on_c, 1, 40, 80
3, 308924, Note_off_c, 1, 40, 100
3, 308928, Note_on_c, 1, 33, 80
3, 309116, Note_off_c, 1, 33, 100
3, 309120, Note_on_c, 1, 33, 80
3, 309500, Note_off_c, 1, 33, 100
3, 309888, Note_on_c, 1, 45, 80
3, 309888, Note_on_c, 1, 49, 80
3, 309888, Note_on_c, 1, 52, 80
3, 309888, Note_on_c, 1, 57, 80
3, 311228, Note_off_c, 1, 57, 64
3, 311228, Note_off_c, 1, 52, 64
3, 311228, Note_off_c, 1, 49, 64
3, 311228, Note_off_c, 1, 45, 64
3, 311232, Note_on_c, 1, 33, 120
3, 311232, Note_on_c, 1, 45, 120
3, 311420, Note_off_c, 1, 33, 100
3, 311420, Note_off_c, 1, 45, 100
3, 311424, Note_on_c, 1, 30, 120
3, 311424, Note_on_c, 1, 42, 120
3, 311804, Note_off_c, 1, 30, 100
3, 311804, Note_off_c, 1, 42, 100
3, 312768, Note_on_c, 1, 33, 80
3, 312768, Note_on_c, 1, 45, 80
3, 312956, Note_off_c, 1, 33, 100
3, 312956, Note_off_c, 1, 45, 100
3, 312960, Note_on_c, 1, 29, 80
3, 312960, Note_on_c, 1, 41, 80
3, 313340, Note_off_c, 1, 29, 100
3, 313340, Note_off_c, 1, 41, 100
3, 314304, Note_on_c, 1, 45, 80
3, 314492, Note_off_c, 1, 45, 100
3, 314496, Note_on_c, 1, 41, 80
3, 314972, Note_off_c, 1, 41, 100
3, 314976, Note_on_c, 1, 43, 80
3, 315068, Note_off_c, 1, 43, 100
3, 315072, Note_on_c, 1, 45, 80
3, 315164, Note_off_c, 1, 45, 100
3, 315168, Note_on_c, 1, 46, 80
3, 315260, Note_off_c, 1, 46, 100
3, 315264, Note_on_c, 1, 40, 80
3, 315644, Note_off_c, 1, 40, 100
3, 315840, Note_on_c, 1, 43, 80
3, 316028, Note_off_c, 1, 43, 100
3, 316032, Note_on_c, 1, 40, 80
3, 316508, Note_off_c, 1, 40, 100
3, 316512, Note_on_c, 1, 41, 80
3, 316604, Note_off_c, 1, 41, 100
3, 316608, Note_on_c, 1, 43, 80
3, 316700, Note_off_c, 1, 43, 100
3, 316704, Note_on_c, 1, 45, 80
3, 316796, Note_off_c, 1, 45, 100
3, 316800, Note_on_c, 1, 41, 80
3, 317180, Note_off_c, 1, 41, 100
3, 317568, Note_on_c, 1, 53, 80
3, 317568, Note_on_c, 1, 57, 80
3, 318332, Note_off_c, 1, 53, 100
3, 318332, Note_off_c, 1, 57, 100
3, 318336, Note_on_c, 1, 52, 80
3, 318336, Note_on_c, 1, 59, 80
3, 318716, Note_off_c, 1, 52, 100
3, 318716, Note_off_c, 1, 59, 100
3, 318912, Note_on_c, 1, 59, 80
3, 319100, Note_off_c, 1, 59, 100
3, 319104, Note_on_c, 1, 52, 80
3, 319104, Note_on_c, 1, 56, 80
3, 319580, Note_off_c, 1, 56, 100
3, 319584, Note_on_c, 1, 57, 80
3, 319676, Note_off_c, 1, 57, 100
3, 319680, Note_on_c, 1, 59, 80
3, 319772, Note_off_c, 1, 59, 100
3, 319776, Note_on_c, 1, 61, 80
3, 319868, Note_off_c, 1, 61, 100
3, 319872, Note_on_c, 1, 59, 80
3, 320060, Note_off_c, 1, 52, 64
3, 320064, Note_on_c, 1, 53, 80
3, 320252, Note_off_c, 1, 53, 100
3, 320256, Note_on_c, 1, 52, 80
3, 320636, Note_off_c, 1, 59, 100
3, 320640, Note_on_c, 1, 57, 80
3, 321020, Note_off_c, 1, 57, 100
3, 321024, Note_on_c, 1, 61, 80
3, 321212, Note_off_c, 1, 52, 64
3, 321212, Note_off_c, 1, 61, 100
3, 321216, Note_on_c, 1, 52, 80
3, 321216, Note_on_c, 1, 64, 80
3, 321404, Note_off_c, 1, 52, 100
3, 321404, Note_off_c, 1, 64, 100
3, 321408, Note_on_c, 1, 52, 80
3, 321408, Note_on_c, 1, 62, 80
3, 321596, Note_off_c, 1, 52, 100
3, 321600, Note_on_c, 1, 53, 80
3, 321788, Note_off_c, 1, 53, 100
3, 321792, Note_on_c, 1, 52, 80
3, 321980, Note_off_c, 1, 62, 100
3, 321984, Note_on_c, 1, 64, 80
3, 322172, Note_off_c, 1, 64, 100
3, 322176, Note_on_c, 1, 61, 80
3, 322364, Note_off_c, 1, 52, 64
3, 322364, Note_off_c, 1, 61, 100
3, 322368, Note_on_c, 1, 69, 80
3, 322556, Note_off_c, 1, 69, 100
3, 322560, Note_on_c, 1, 64, 80
3, 322748, Note_off_c, 1, 64, 100
3, 322752, Note_on_c, 1, 52, 80
3, 322752, Note_on_c, 1, 59, 80
3, 322940, Note_off_c, 1, 52, 100
3, 322940, Note_off_c, 1, 59, 100
3, 322944, Note_on_c, 1, 59, 80
3, 322944, Note_on_c, 1, 52, 80
3, 323132, Note_off_c, 1, 52, 100
3, 323136, Note_on_c, 1, 53, 80
3, 323324, Note_off_c, 1, 53, 100
3, 323328, Note_on_c, 1, 52, 80
3, 323708, Note_off_c, 1, 59, 100
3, 323708, Note_off_c, 1, 52, 100
3, 323712, Note_on_c, 1, 45, 80
3, 323712, Note_on_c, 1, 57, 80
3, 323900, Note_off_c, 1, 45, 100
3, 323900, Note_off_c, 1, 57, 100
3, 323904, Note_on_c, 1, 49, 80
3, 324092, Note_off_c, 1, 49, 100
3, 324096, Note_on_c, 1, 50, 80
3, 324284, Note_off_c, 1, 50, 100
3, 324288, Note_on_c, 1, 47, 80
3, 324476, Note_off_c, 1, 47, 100
3, 324480, Note_on_c, 1, 49, 80
3, 324668, Note_off_c, 1, 49, 100
3, 324672, Note_on_c, 1, 50, 80
3, 324672, Note_on_c, 1, 62, 80
3, 324860, Note_off_c, 1, 50, 100
3, 324860, Note_off_c, 1, 62, 100
3, 324864, Note_on_c, 1, 52, 80
3, 324864, Note_on_c, 1, 61, 80
3, 325052, Note_off_c, 1, 52, 100
3, 325052, Note_off_c, 1, 61, 100
3, 325056, Note_on_c, 1, 52, 80
3, 325056, Note_on_c, 1, 59, 80
3, 325244, Note_off_c, 1, 52, 100
3, 325244, Note_off_c, 1, 59, 100
3, 325248, Note_on_c, 1, 52, 80
3, 325248, Note_on_c, 1, 59, 80
3, 325436, Note_off_c, 1, 52, 100
3, 325440, Note_on_c, 1, 53, 80
3, 325628, Note_off_c, 1, 53, 100
3, 325632, Note_on_c, 1, 52, 80
3, 326012, Note_off_c, 1, 59, 100
3, 326012, Note_off_c, 1, 52, 100
3, 326016, Note_on_c, 1, 57, 80
3, 326016, Note_on_c, 1, 52, 80
3, 326396, Note_off_c, 1, 57, 100
3, 326400, Note_on_c, 1, 61, 80
3, 326588, Note_off_c, 1, 52, 100
3, 326588, Note_off_c, 1, 61, 100
3, 326592, Note_on_c, 1, 52, 80
3, 326592, Note_on_c, 1, 64, 80
3, 326780, Note_off_c, 1, 52, 100
3, 326780, Note_off_c, 1, 64, 100
3, 326784, Note_on_c, 1, 52, 80
3, 326784, Note_on_c, 1, 62, 80
3, 326832, Note_on_c, 1, 64, 80
3, 326876, Note_off_c, 1, 62, 100
3, 326880, Note_on_c, 1, 62, 80
3, 326924, Note_off_c, 1, 64, 100
3, 326928, Note_on_c, 1, 64, 80
3, 326972, Note_off_c, 1, 62, 100
3, 326976, Note_on_c, 1, 62, 80
3, 327020, Note_off_c, 1, 64, 100
3, 327024, Note_on_c, 1, 64, 80
3, 327068, Note_off_c, 1, 62, 100
3, 327072, Note_on_c, 1, 62, 80
3, 327116, Note_off_c, 1, 64, 100
3, 327120, Note_on_c, 1, 64, 80
3, 327164, Note_off_c, 1, 52, 100
3, 327164, Note_off_c, 1, 62, 100
3, 327168, Note_on_c, 1, 62, 80
3, 327212, Note_off_c, 1, 64, 100
3, 327216, Note_on_c, 1, 64, 80
3, 327260, Note_off_c, 1, 62, 100
3, 327264, Note_on_c, 1, 61, 80
3, 327308, Note_off_c, 1, 64, 100
3, 327312, Note_on_c, 1, 62, 80
3, 327356, Note_off_c, 1, 61, 100
3, 327356, Note_off_c, 1, 62, 100
3, 327360, Note_on_c, 1, 64, 80
3, 327548, Note_off_c, 1, 64, 100
3, 327552, Note_on_c, 1, 52, 80
3, 327552, Note_on_c, 1, 61, 80
3, 327740, Note_off_c, 1, 52, 100
3, 327740, Note_off_c, 1, 61, 100
3, 327744, Note_on_c, 1, 69, 80
3, 327932, Note_off_c, 1, 69, 100
3, 327936, Note_on_c, 1, 64, 80
3, 328124, Note_off_c, 1, 64, 100
3, 328128, Note_on_c, 1, 52, 80
3, 328128, Note_on_c, 1, 59, 80
3, 328316, Note_off_c, 1, 52, 100
3, 328316, Note_off_c, 1, 59, 100
3, 328320, Note_on_c, 1, 52, 80
3, 328320, Note_on_c, 1, 59, 80
3, 328508, Note_off_c, 1, 52, 100
3, 328512, Note_on_c, 1, 54, 80
3, 328700, Note_off_c, 1, 54, 100
3, 328704, Note_on_c, 1, 52, 80
3, 329084, Note_off_c, 1, 59, 100
3, 329084, Note_off_c, 1, 52, 100
3, 329088, Note_on_c, 1, 57, 80
3, 329088, Note_on_c, 1, 61, 80
3, 329276, Note_off_c, 1, 57, 100
3, 329276, Note_off_c, 1, 61, 100
3, 329280, Note_on_c, 1, 49, 80
3, 329468, Note_off_c, 1, 49, 100
3, 329472, Note_on_c, 1, 50, 80
3, 329660, Note_off_c, 1, 50, 100
3, 329664, Note_on_c, 1, 47, 80
3, 329852, Note_off_c, 1, 47, 100
3, 329856, Note_on_c, 1, 49, 80
3, 330044, Note_off_c, 1, 49, 100
3, 330048, Note_on_c, 1, 50, 80
3, 330236, Note_off_c, 1, 50, 100
3, 330240, Note_on_c, 1, 52, 80
3, 330332, Note_off_c, 1, 52, 100
3, 330336, Note_on_c, 1, 63, 80
3, 330428, Note_off_c, 1, 63, 100
3, 330432, Note_on_c, 1, 64, 80
3, 330524, Note_off_c, 1, 64, 100
3, 330528, Note_on_c, 1, 66, 80
3, 330620, Note_off_c, 1, 66, 100
3, 330624, Note_on_c, 1, 68, 80
3, 330716, Note_off_c, 1, 68, 100
3, 330720, Note_on_c, 1, 69, 80
3, 330812, Note_off_c, 1, 69, 100
3, 330816, Note_on_c, 1, 71, 80
3, 330908, Note_off_c, 1, 71, 100
3, 330912, Note_on_c, 1, 73, 80
3, 331004, Note_off_c, 1, 73, 100
3, 331008, Note_on_c, 1, 69, 80
3, 331100, Note_off_c, 1, 69, 100
3, 331104, Note_on_c, 1, 68, 80
3, 331196, Note_off_c, 1, 68, 100
3, 331200, Note_on_c, 1, 66, 80
3, 331292, Note_off_c, 1, 66, 100
3, 331296, Note_on_c, 1, 68, 80
3, 331388, Note_off_c, 1, 68, 100
3, 331392, Note_on_c, 1, 69, 80
3, 331484, Note_off_c, 1, 69, 100
3, 331488, Note_on_c, 1, 71, 80
3, 331580, Note_off_c, 1, 71, 100
3, 331584, Note_on_c, 1, 73, 80
3, 331676, Note_off_c, 1, 73, 100
3, 331680, Note_on_c, 1, 74, 80
3, 331772, Note_off_c, 1, 74, 100
3, 331776, Note_on_c, 1, 73, 80
3, 331868, Note_off_c, 1, 73, 100
3, 331872, Note_on_c, 1, 71, 80
3, 331964, Note_off_c, 1, 71, 100
3, 331968, Note_on_c, 1, 73, 80
3, 332060, Note_off_c, 1, 73, 100
3, 332064, Note_on_c, 1, 69, 80
3, 332156, Note_off_c, 1, 69, 100
3, 332160, Note_on_c, 1, 68, 80
3, 332252, Note_off_c, 1, 68, 100
3, 332256, Note_on_c, 1, 69, 80
3, 332348, Note_off_c, 1, 69, 100
3, 332352, Note_on_c, 1, 71, 80
3, 332444, Note_off_c, 1, 71, 100
3, 332448, Note_on_c, 1, 73, 80
3, 332540, Note_off_c, 1, 73, 100
3, 332544, Note_on_c, 1, 69, 80
3, 332636, Note_off_c, 1, 69, 100
3, 332640, Note_on_c, 1, 68, 80
3, 332732, Note_off_c, 1, 68, 100
3, 332736, Note_on_c, 1, 66, 80
3, 332828, Note_off_c, 1, 66, 100
3, 332832, Note_on_c, 1, 68, 80
3, 332924, Note_off_c, 1, 68, 100
3, 333120, Note_on_c, 1, 64, 80
3, 333308, Note_off_c, 1, 64, 100
3, 333312, Note_on_c, 1, 57, 80
3, 333500, Note_off_c, 1, 57, 100
3, 333696, Note_on_c, 1, 68, 80
3, 333788, Note_off_c, 1, 68, 100
3, 333792, Note_on_c, 1, 69, 80
3, 333884, Note_off_c, 1, 69, 100
3, 333888, Note_on_c, 1, 71, 80
3, 333980, Note_off_c, 1, 71, 100
3, 333984, Note_on_c, 1, 73, 80
3, 334076, Note_off_c, 1, 73, 100
3, 334080, Note_on_c, 1, 69, 80
3, 334172, Note_off_c, 1, 69, 100
3, 334176, Note_on_c, 1, 68, 80
3, 334268, Note_off_c, 1, 68, 100
3, 334272, Note_on_c, 1, 66, 80
3, 334364, Note_off_c, 1, 66, 100
3, 334368, Note_on_c, 1, 68, 80
3, 334460, Note_off_c, 1, 68, 100
3, 334464, Note_on_c, 1, 69, 80
3, 334652, Note_off_c, 1, 69, 100
3, 334656, Note_on_c, 1, 76, 80
3, 334844, Note_off_c, 1, 76, 100
3, 334848, Note_on_c, 1, 69, 80
3, 335036, Note_off_c, 1, 69, 100
3, 335424, Note_on_c, 1, 76, 80
3, 335612, Note_off_c, 1, 76, 100
3, 335616, Note_on_c, 1, 69, 80
3, 335804, Note_off_c, 1, 69, 100
3, 336192, Note_on_c, 1, 52, 80
3, 336380, Note_off_c, 1, 52, 100
3, 336384, Note_on_c, 1, 45, 80
3, 336572, Note_off_c, 1, 45, 100
3, 336576, Note_on_c, 1, 40, 80
3, 336764, Note_off_c, 1, 40, 100
3, 336768, Note_on_c, 1, 32, 80
3, 336860, Note_off_c, 1, 32, 100
3, 336864, Note_on_c, 1, 33, 80
3, 336956, Note_off_c, 1, 33, 100
3, 336960, Note_on_c, 1, 32, 80
3, 337052, Note_off_c, 1, 32, 100
3, 337056, Note_on_c, 1, 33, 80
3, 337148, Note_off_c, 1, 33, 100
3, 337152, Note_on_c, 1, 32, 80
3, 337244, Note_off_c, 1, 32, 100
3, 337248, Note_on_c, 1, 33, 80
3, 337340, Note_off_c, 1, 33, 100
3, 337344, Note_on_c, 1, 32, 80
3, 337436, Note_off_c, 1, 32, 100
3, 337440, Note_on_c, 1, 33, 80
3, 337532, Note_off_c, 1, 33, 100
3, 337536, Note_on_c, 1, 32, 80
3, 337628, Note_off_c, 1, 32, 100
3, 337632, Note_on_c, 1, 33, 80
3, 337724, Note_off_c, 1, 33, 100
3, 337728, Note_on_c, 1, 32, 80
3, 337820, Note_off_c, 1, 32, 100
3, 337824, Note_on_c, 1, 33, 80
3, 337916, Note_off_c, 1, 33, 100
3, 337920, Note_on_c, 1, 32, 79
3, 338012, Note_off_c, 1, 32, 100
3, 338016, Note_on_c, 1, 33, 79
3, 338108, Note_off_c, 1, 33, 100
3, 338112, Note_on_c, 1, 32, 79
3, 338204, Note_off_c, 1, 32, 100
3, 338208, Note_on_c, 1, 33, 78
3, 338300, Note_off_c, 1, 33, 100
3, 338304, Note_on_c, 1, 32, 78
3, 338396, Note_off_c, 1, 32, 100
3, 338400, Note_on_c, 1, 33, 78
3, 338492, Note_off_c, 1, 33, 100
3, 338496, Note_on_c, 1, 32, 77
3, 338588, Note_off_c, 1, 32, 100
3, 338592, Note_on_c, 1, 33, 77
3, 338684, Note_off_c, 1, 33, 100
3, 338688, Note_on_c, 1, 32, 77
3, 338780, Note_off_c, 1, 32, 100
3, 338784, Note_on_c, 1, 33, 76
3, 338876, Note_off_c, 1, 33, 100
3, 338880, Note_on_c, 1, 32, 76
3, 338972, Note_off_c, 1, 32, 100
3, 338976, Note_on_c, 1, 33, 76
3, 339068, Note_off_c, 1, 33, 100
3, 339072, Note_on_c, 1, 28, 75
3, 339072, Note_on_c, 1, 32, 75
3, 339164, Note_off_c, 1, 32, 100
3, 339168, Note_on_c, 1, 33, 75
3, 339260, Note_off_c, 1, 33, 100
3, 339264, Note_on_c, 1, 32, 75
3, 339356, Note_off_c, 1, 32, 100
3, 339360, Note_on_c, 1, 33, 74
3, 339452, Note_off_c, 1, 33, 100
3, 339456, Note_on_c, 1, 32, 74
3, 339548, Note_off_c, 1, 32, 100
3, 339552, Note_on_c, 1, 33, 74
3, 339644, Note_off_c, 1, 33, 100
3, 339648, Note_on_c, 1, 32, 73
3, 339740, Note_off_c, 1, 32, 100
3, 339744, Note_on_c, 1, 33, 73
3, 339836, Note_off_c, 1, 28, 100
3, 339836, Note_off_c, 1, 33, 100
3, 339840, Note_on_c, 1, 32, 73
3, 339932, Note_off_c, 1, 32, 100
3, 339936, Note_on_c, 1, 33, 72
3, 340028, Note_off_c, 1, 33, 100
3, 340032, Note_on_c, 1, 32, 72
3, 340124, Note_off_c, 1, 32, 100
3, 340128, Note_on_c, 1, 33, 72
3, 340220, Note_off_c, 1, 33, 100
3, 340224, Note_on_c, 1, 32, 71
3, 340316, Note_off_c, 1, 32, 100
3, 340320, Note_on_c, 1, 33, 71
3, 340412, Note_off_c, 1, 33, 100
3, 340416, Note_on_c, 1, 32, 71
3, 340508, Note_off_c, 1, 32, 100
3, 340512, Note_on_c, 1, 33, 71
3, 340604, Note_off_c, 1, 33, 100
3, 340608, Note_on_c, 1, 32, 70
3, 340700, Note_off_c, 1, 32, 100
3, 340704, Note_on_c, 1, 33, 70
3, 340796, Note_off_c, 1, 33, 100
3, 340800, Note_on_c, 1, 32, 70
3, 340892, Note_off_c, 1, 32, 100
3, 340896, Note_on_c, 1, 33, 70
3, 340988, Note_off_c, 1, 33, 100
3, 340992, Note_on_c, 1, 32, 70
3, 341084, Note_off_c, 1, 32, 100
3, 341088, Note_on_c, 1, 33, 70
3, 341180, Note_off_c, 1, 33, 100
3, 341184, Note_on_c, 1, 32, 70
3, 341276, Note_off_c, 1, 32, 100
3, 341280, Note_on_c, 1, 33, 70
3, 341372, Note_off_c, 1, 33, 100
3, 341376, Note_on_c, 1, 32, 70
3, 341468, Note_off_c, 1, 32, 100
3, 341472, Note_on_c, 1, 33, 70
3, 341564, Note_off_c, 1, 33, 100
3, 341568, Note_on_c, 1, 32, 70
3, 341660, Note_off_c, 1, 32, 100
3, 341664, Note_on_c, 1, 33, 70
3, 341756, Note_off_c, 1, 33, 100
3, 341760, Note_on_c, 1, 32, 70
3, 341852, Note_off_c, 1, 32, 100
3, 341856, Note_on_c, 1, 33, 70
3, 341948, Note_off_c, 1, 33, 100
3, 341952, Note_on_c, 1, 32, 70
3, 342044, Note_off_c, 1, 32, 100
3, 342048, Note_on_c, 1, 33, 70
3, 342140, Note_off_c, 1, 33, 100
3, 342144, Note_on_c, 1, 28, 70
3, 342144, Note_on_c, 1, 32, 70
3, 342236, Note_off_c, 1, 32, 100
3, 342240, Note_on_c, 1, 33, 70
3, 342332, Note_off_c, 1, 33, 100
3, 342336, Note_on_c, 1, 32, 70
3, 342428, Note_off_c, 1, 32, 100
3, 342432, Note_on_c, 1, 33, 70
3, 342524, Note_off_c, 1, 33, 100
3, 342528, Note_on_c, 1, 32, 70
3, 342620, Note_off_c, 1, 32, 100
3, 342624, Note_on_c, 1, 33, 70
3, 342716, Note_off_c, 1, 33, 100
3, 342720, Note_on_c, 1, 32, 70
3, 342812, Note_off_c, 1, 32, 100
3, 342816, Note_on_c, 1, 33, 70
3, 342908, Note_off_c, 1, 28, 100
3, 342908, Note_off_c, 1, 33, 100
3, 342912, Note_on_c, 1, 32, 70
3, 343004, Note_off_c, 1, 32, 100
3, 343008, Note_on_c, 1, 33, 70
3, 343100, Note_off_c, 1, 33, 100
3, 343104, Note_on_c, 1, 32, 70
3, 343196, Note_off_c, 1, 32, 100
3, 343200, Note_on_c, 1, 33, 70
3, 343292, Note_off_c, 1, 33, 100
3, 343296, Note_on_c, 1, 32, 70
3, 343388, Note_off_c, 1, 32, 100
3, 343392, Note_on_c, 1, 33, 70
3, 343484, Note_off_c, 1, 33, 100
3, 343488, Note_on_c, 1, 32, 70
3, 343580, Note_off_c, 1, 32, 100
3, 343584, Note_on_c, 1, 33, 70
3, 343676, Note_off_c, 1, 33, 100
3, 343680, Note_on_c, 1, 28, 70
3, 343680, Note_on_c, 1, 32, 70
3, 343772, Note_off_c, 1, 32, 100
3, 343776, Note_on_c, 1, 33, 70
3, 343868, Note_off_c, 1, 33, 100
3, 343872, Note_on_c, 1, 32, 70
3, 343964, Note_off_c, 1, 32, 100
3, 343968, Note_on_c, 1, 33, 70
3, 344060, Note_off_c, 1, 33, 100
3, 344064, Note_on_c, 1, 32, 70
3, 344156, Note_off_c, 1, 32, 100
3, 344160, Note_on_c, 1, 33, 70
3, 344252, Note_off_c, 1, 33, 100
3, 344256, Note_on_c, 1, 32, 70
3, 344348, Note_off_c, 1, 32, 100
3, 344352, Note_on_c, 1, 33, 70
3, 344444, Note_off_c, 1, 28, 100
3, 344444, Note_off_c, 1, 33, 100
3, 344448, Note_on_c, 1, 32, 70
3, 344540, Note_off_c, 1, 32, 100
3, 344544, Note_on_c, 1, 33, 70
3, 344636, Note_off_c, 1, 33, 100
3, 344640, Note_on_c, 1, 32, 70
3, 344732, Note_off_c, 1, 32, 100
3, 344736, Note_on_c, 1, 33, 70
3, 344828, Note_off_c, 1, 33, 100
3, 344832, Note_on_c, 1, 32, 70
3, 344924, Note_off_c, 1, 32, 100
3, 344928, Note_on_c, 1, 33, 70
3, 345020, Note_off_c, 1, 33, 100
3, 345024, Note_on_c, 1, 32, 70
3, 345116, Note_off_c, 1, 32, 100
3, 345120, Note_on_c, 1, 33, 70
3, 345212, Note_off_c, 1, 33, 100
3, 345216, Note_on_c, 1, 28, 70
3, 345216, Note_on_c, 1, 32, 70
3, 345308, Note_off_c, 1, 32, 100
3, 345312, Note_on_c, 1, 33, 70
3, 345404, Note_off_c, 1, 33, 100
3, 345408, Note_on_c, 1, 32, 70
3, 345500, Note_off_c, 1, 32, 100
3, 345504, Note_on_c, 1, 33, 70
3, 345596, Note_off_c, 1, 33, 100
3, 345600, Note_on_c, 1, 32, 70
3, 345692, Note_off_c, 1, 32, 100
3, 345696, Note_on_c, 1, 33, 70
3, 345788, Note_off_c, 1, 33, 100
3, 345792, Note_on_c, 1, 32, 70
3, 345884, Note_off_c, 1, 32, 100
3, 345888, Note_on_c, 1, 33, 70
3, 345980, Note_off_c, 1, 28, 100
3, 345980, Note_off_c, 1, 33, 100
3, 345984, Note_on_c, 1, 33, 125
3, 345984, Note_on_c, 1, 45, 125
3, 346172, Note_off_c, 1, 33, 100
3, 346172, Note_off_c, 1, 45, 100
3, 346176, Note_on_c, 1, 33, 125
3, 346176, Note_on_c, 1, 37, 125
3, 346176, Note_on_c, 1, 40, 125
3, 346176, Note_on_c, 1, 45, 125
3, 346364, Note_off_c, 1, 33, 100
3, 346364, Note_off_c, 1, 37, 100
3, 346364, Note_off_c, 1, 40, 100
3, 346364, Note_off_c, 1, 45, 100
3, 346368, Note_on_c, 1, 33, 125
3, 346368, Note_on_c, 1, 37, 125
3, 346368, Note_on_c, 1, 40, 125
3, 346368, Note_on_c, 1, 45, 125
3, 346556, Note_off_c, 1, 33, 100
3, 346556, Note_off_c, 1, 37, 100
3, 346556, Note_off_c, 1, 40, 100
3, 346556, Note_off_c, 1, 45, 100
3, 346560, Note_on_c, 1, 33, 125
3, 346560, Note_on_c, 1, 37, 125
3, 346560, Note_on_c, 1, 40, 125
3, 346560, Note_on_c, 1, 45, 125
3, 346748, Note_off_c, 1, 33, 100
3, 346748, Note_off_c, 1, 37, 100
3, 346748, Note_off_c, 1, 40, 100
3, 346748, Note_off_c, 1, 45, 100
3, 346752, Note_on_c, 1, 33, 125
3, 346752, Note_on_c, 1, 37, 125
3, 346752, Note_on_c, 1, 40, 125
3, 346752, Note_on_c, 1, 45, 125
3, 347132, Note_off_c, 1, 33, 100
3, 347132, Note_off_c, 1, 37, 100
3, 347132, Note_off_c, 1, 40, 100
3, 347132, Note_off_c, 1, 45, 100
3, 347136, Note_on_c, 1, 33, 125
3, 347136, Note_on_c, 1, 37, 125
3, 347136, Note_on_c, 1, 40, 125
3, 347136, Note_on_c, 1, 45, 125
3, 347516, Note_off_c, 1, 33, 100
3, 347516, Note_off_c, 1, 37, 100
3, 347516, Note_off_c, 1, 40, 100
3, 347516, Note_off_c, 1, 45, 100
3, 347520, Note_on_c, 1, 45, 125
3, 347520, Note_on_c, 1, 40, 125
3, 347520, Note_on_c, 1, 37, 125
3, 347520, Note_on_c, 1, 33, 125
3, 348668, Note_off_c, 1, 33, 64
3, 348668, Note_off_c, 1, 37, 64
3, 348668, Note_off_c, 1, 40, 64
3, 348668, Note_off_c, 1, 45, 64
3, 348668, End_track
0, 0, End_of_file
