0, 0, Header, 1, 3, 384
1, 0, Start_track
1, 0, Title_t, "L.v.Beethoven 2mov - Piano Sonata No.29 in Bb Major Op.106\000"
1, 0, Copyright_t, "Copyright(C) 1995-2009, Suzuki Software\000"
1, 0, Sequencer_specific, 9, 67, 123, 0, 88, 70, 48, 50, 0, 1
1, 0, Text_t, "XFhd:2000/10/07:JP:Classical::::L.v.Beethoven:::Kaoru Suzuki\000"
1, 0, Text_t, "XFln:JP:\203s\203A\203m\203\\\203i\203^\221æ29\224Ô\225Ï\203\215\222·\222²\215ì\225i106\201`\221æ2\212y\217Í:L.v.\203x\201[\203g\201[\203\224\203F\203\223:::\227é\202¿\202á\202ñ:\227é\202¿\202á\202ñ\000"
1, 0, Time_signature, 1, 2, 96, 8
1, 0, Sequencer_specific, 3, 0, 0, 65
1, 0, Sequencer_specific, 5, 0, 0, 119, 14, 0
1, 0, Tempo, 333333
1, 384, Time_signature, 3, 2, 96, 8
1, 23808, Tempo, 352941
1, 24192, Tempo, 375000
1, 24576, Tempo, 400000
1, 25728, Tempo, 333333
1, 41088, Tempo, 352941
1, 42240, Tempo, 375000
1, 43008, Tempo, 400000
1, 44160, Tempo, 333333
1, 92544, Time_signature, 2, 2, 96, 8
1, 92544, Tempo, 222222
1, 121728, Tempo, 285714
1, 122496, Time_signature, 1, 2, 96, 8
1, 122880, Time_signature, 3, 2, 96, 8
1, 123648, Tempo, 333333
1, 147456, Tempo, 352941
1, 148608, Tempo, 375000
1, 149376, Tempo, 400000
1, 151296, Tempo, 333333
1, 165888, Tempo, 352941
1, 167040, Tempo, 375000
1, 167808, Tempo, 400000
1, 169728, Tempo, 333333
1, 180096, Tempo, 352941
1, 181248, Tempo, 375000
1, 182400, Tempo, 428571
1, 182784, Tempo, 500000
1, 183168, Tempo, 750000
1, 183552, Tempo, 333333
1, 184704, Tempo, 300000
1, 185856, Tempo, 272727
1, 186240, Time_signature, 4, 2, 96, 8
1, 187008, Tempo, 250000
1, 187776, Tempo, 230769
1, 188544, Tempo, 214285
1, 189312, Tempo, 200000
1, 190080, Tempo, 187500
1, 191616, Tempo, 222222
1, 192000, Tempo, 272727
1, 192384, Time_signature, 3, 2, 96, 8
1, 193152, Tempo, 333333
1, 194304, Tempo, 352941
1, 195072, Tempo, 375000
1, 195456, Tempo, 400000
1, 195840, Tempo, 458015
1, 196032, Tempo, 666666
1, 196224, Tempo, 857142
1, 196224, End_track
2, 0, Start_track
2, 0, Title_t, "Right"
2, 0, Control_c, 0, 0, 0
2, 0, Program_c, 0, 0
2, 0, Control_c, 0, 7, 100
2, 0, Control_c, 0, 10, 80
2, 0, Control_c, 0, 91, 127
2, 0, Key_signature, -2, "major"
2, 0, Note_on_c, 0, 74, 80
2, 284, Note_off_c, 0, 74, 100
2, 288, Note_on_c, 0, 77, 80
2, 288, Note_on_c, 0, 69, 80
2, 380, Note_off_c, 0, 77, 100
2, 380, Note_off_c, 0, 69, 100
2, 384, Note_on_c, 0, 77, 80
2, 384, Note_on_c, 0, 69, 80
2, 764, Note_off_c, 0, 77, 100
2, 764, Note_off_c, 0, 69, 100
2, 768, Note_on_c, 0, 74, 80
2, 768, Note_on_c, 0, 65, 80
2, 956, Note_off_c, 0, 74, 100
2, 956, Note_off_c, 0, 65, 100
2, 1152, Note_on_c, 0, 70, 80
2, 1436, Note_off_c, 0, 70, 100
2, 1440, Note_on_c, 0, 74, 80
2, 1440, Note_on_c, 0, 66, 80
2, 1532, Note_off_c, 0, 74, 100
2, 1532, Note_off_c, 0, 66, 100
2, 1536, Note_on_c, 0, 74, 80
2, 1536, Note_on_c, 0, 69, 80
2, 1916, Note_off_c, 0, 74, 100
2, 1916, Note_off_c, 0, 69, 100
2, 1920, Note_on_c, 0, 70, 80
2, 1920, Note_on_c, 0, 62, 80
2, 2108, Note_off_c, 0, 70, 100
2, 2108, Note_off_c, 0, 62, 100
2, 2328, Note_on_c, 0, 67, 80
2, 2592, Note_on_c, 0, 70, 80
2, 2592, Note_on_c, 0, 62, 80
2, 2612, Note_off_c, 0, 67, 100
2, 2684, Note_off_c, 0, 70, 100
2, 2684, Note_off_c, 0, 62, 100
2, 2688, Note_on_c, 0, 70, 80
2, 2688, Note_on_c, 0, 65, 80
2, 3068, Note_off_c, 0, 70, 100
2, 3068, Note_off_c, 0, 65, 100
2, 3072, Note_on_c, 0, 67, 80
2, 3072, Note_on_c, 0, 58, 80
2, 3260, Note_off_c, 0, 67, 100
2, 3260, Note_off_c, 0, 58, 100
2, 3456, Note_on_c, 0, 58, 80
2, 3456, Note_on_c, 0, 67, 80
2, 3740, Note_off_c, 0, 58, 100
2, 3740, Note_off_c, 0, 67, 100
2, 3744, Note_on_c, 0, 69, 80
2, 3744, Note_on_c, 0, 63, 80
2, 3836, Note_off_c, 0, 69, 100
2, 3836, Note_off_c, 0, 63, 100
2, 3840, Note_on_c, 0, 69, 80
2, 3840, Note_on_c, 0, 63, 80
2, 4220, Note_off_c, 0, 69, 100
2, 4220, Note_off_c, 0, 63, 100
2, 4224, Note_on_c, 0, 70, 80
2, 4224, Note_on_c, 0, 58, 80
2, 4412, Note_off_c, 0, 70, 100
2, 4412, Note_off_c, 0, 58, 100
2, 4608, Note_on_c, 0, 70, 80
2, 4608, Note_on_c, 0, 65, 80
2, 4892, Note_off_c, 0, 70, 100
2, 4896, Note_on_c, 0, 72, 80
2, 4988, Note_off_c, 0, 65, 100
2, 4988, Note_off_c, 0, 72, 100
2, 4992, Note_on_c, 0, 72, 80
2, 4992, Note_on_c, 0, 65, 80
2, 5372, Note_off_c, 0, 72, 100
2, 5372, Note_off_c, 0, 65, 100
2, 5376, Note_on_c, 0, 74, 80
2, 5376, Note_on_c, 0, 70, 80
2, 5376, Note_on_c, 0, 65, 80
2, 5564, Note_off_c, 0, 74, 100
2, 5564, Note_off_c, 0, 70, 100
2, 5564, Note_off_c, 0, 65, 100
2, 5760, Note_on_c, 0, 70, 80
2, 5760, Note_on_c, 0, 74, 80
2, 6044, Note_off_c, 0, 74, 100
2, 6048, Note_on_c, 0, 75, 91
2, 6140, Note_off_c, 0, 70, 100
2, 6140, Note_off_c, 0, 75, 100
2, 6144, Note_on_c, 0, 75, 95
2, 6144, Note_on_c, 0, 70, 95
2, 6524, Note_off_c, 0, 75, 100
2, 6524, Note_off_c, 0, 70, 100
2, 6528, Note_on_c, 0, 77, 110
2, 6528, Note_on_c, 0, 73, 110
2, 6528, Note_on_c, 0, 70, 110
2, 6528, Note_on_c, 0, 65, 110
2, 6716, Note_off_c, 0, 77, 100
2, 6716, Note_off_c, 0, 73, 100
2, 6716, Note_off_c, 0, 70, 100
2, 6716, Note_off_c, 0, 65, 100
2, 6912, Note_on_c, 0, 79, 110
2, 6912, Note_on_c, 0, 72, 110
2, 6912, Note_on_c, 0, 70, 110
2, 6912, Note_on_c, 0, 67, 110
2, 7100, Note_off_c, 0, 79, 100
2, 7100, Note_off_c, 0, 72, 100
2, 7100, Note_off_c, 0, 70, 100
2, 7100, Note_off_c, 0, 67, 100
2, 7296, Note_on_c, 0, 72, 110
2, 7296, Note_on_c, 0, 69, 110
2, 7296, Note_on_c, 0, 60, 110
2, 7484, Note_off_c, 0, 72, 100
2, 7484, Note_off_c, 0, 69, 100
2, 7484, Note_off_c, 0, 60, 100
2, 8064, Note_on_c, 0, 86, 80
2, 8348, Note_off_c, 0, 86, 100
2, 8352, Note_on_c, 0, 89, 80
2, 8352, Note_on_c, 0, 81, 80
2, 8444, Note_off_c, 0, 89, 100
2, 8444, Note_off_c, 0, 81, 100
2, 8448, Note_on_c, 0, 89, 80
2, 8448, Note_on_c, 0, 81, 80
2, 8828, Note_off_c, 0, 89, 100
2, 8828, Note_off_c, 0, 81, 100
2, 8832, Note_on_c, 0, 86, 80
2, 8832, Note_on_c, 0, 77, 80
2, 9020, Note_off_c, 0, 86, 100
2, 9020, Note_off_c, 0, 77, 100
2, 9216, Note_on_c, 0, 82, 80
2, 9500, Note_off_c, 0, 82, 100
2, 9504, Note_on_c, 0, 86, 80
2, 9504, Note_on_c, 0, 78, 80
2, 9596, Note_off_c, 0, 86, 100
2, 9596, Note_off_c, 0, 78, 100
2, 9600, Note_on_c, 0, 86, 80
2, 9600, Note_on_c, 0, 81, 80
2, 9980, Note_off_c, 0, 86, 100
2, 9980, Note_off_c, 0, 81, 100
2, 9984, Note_on_c, 0, 82, 80
2, 9984, Note_on_c, 0, 74, 80
2, 10172, Note_off_c, 0, 82, 100
2, 10172, Note_off_c, 0, 74, 100
2, 10392, Note_on_c, 0, 79, 80
2, 10656, Note_on_c, 0, 82, 80
2, 10656, Note_on_c, 0, 74, 80
2, 10676, Note_off_c, 0, 79, 100
2, 10748, Note_off_c, 0, 82, 100
2, 10748, Note_off_c, 0, 74, 100
2, 10752, Note_on_c, 0, 82, 80
2, 10752, Note_on_c, 0, 77, 80
2, 11132, Note_off_c, 0, 82, 100
2, 11132, Note_off_c, 0, 77, 100
2, 11136, Note_on_c, 0, 79, 80
2, 11136, Note_on_c, 0, 70, 80
2, 11324, Note_off_c, 0, 79, 100
2, 11324, Note_off_c, 0, 70, 100
2, 11520, Note_on_c, 0, 70, 80
2, 11520, Note_on_c, 0, 79, 80
2, 11804, Note_off_c, 0, 70, 100
2, 11804, Note_off_c, 0, 79, 100
2, 11808, Note_on_c, 0, 81, 80
2, 11808, Note_on_c, 0, 75, 80
2, 11900, Note_off_c, 0, 81, 100
2, 11900, Note_off_c, 0, 75, 100
2, 11904, Note_on_c, 0, 81, 80
2, 11904, Note_on_c, 0, 75, 80
2, 12284, Note_off_c, 0, 81, 100
2, 12284, Note_off_c, 0, 75, 100
2, 12288, Note_on_c, 0, 82, 80
2, 12288, Note_on_c, 0, 70, 80
2, 12476, Note_off_c, 0, 82, 100
2, 12476, Note_off_c, 0, 70, 100
2, 12672, Note_on_c, 0, 82, 80
2, 12672, Note_on_c, 0, 77, 80
2, 12956, Note_off_c, 0, 82, 100
2, 12960, Note_on_c, 0, 84, 84
2, 13052, Note_off_c, 0, 77, 100
2, 13052, Note_off_c, 0, 84, 100
2, 13056, Note_on_c, 0, 84, 86
2, 13056, Note_on_c, 0, 77, 86
2, 13436, Note_off_c, 0, 84, 100
2, 13436, Note_off_c, 0, 77, 100
2, 13440, Note_on_c, 0, 86, 92
2, 13440, Note_on_c, 0, 77, 92
2, 13628, Note_off_c, 0, 86, 100
2, 13628, Note_off_c, 0, 77, 100
2, 13824, Note_on_c, 0, 82, 98
2, 13824, Note_on_c, 0, 87, 98
2, 14108, Note_off_c, 0, 87, 100
2, 14112, Note_on_c, 0, 88, 103
2, 14204, Note_off_c, 0, 82, 100
2, 14204, Note_off_c, 0, 88, 100
2, 14208, Note_on_c, 0, 88, 104
2, 14208, Note_on_c, 0, 82, 104
2, 14588, Note_off_c, 0, 88, 100
2, 14588, Note_off_c, 0, 82, 100
2, 14592, Note_on_c, 0, 89, 110
2, 14592, Note_on_c, 0, 81, 110
2, 14592, Note_on_c, 0, 77, 110
2, 14780, Note_off_c, 0, 89, 100
2, 14780, Note_off_c, 0, 81, 100
2, 14780, Note_off_c, 0, 77, 100
2, 14976, Note_on_c, 0, 91, 110
2, 14976, Note_on_c, 0, 88, 110
2, 14976, Note_on_c, 0, 82, 110
2, 14976, Note_on_c, 0, 79, 110
2, 15164, Note_off_c, 0, 91, 100
2, 15164, Note_off_c, 0, 88, 100
2, 15164, Note_off_c, 0, 82, 100
2, 15164, Note_off_c, 0, 79, 100
2, 15360, Note_on_c, 0, 89, 110
2, 15360, Note_on_c, 0, 81, 110
2, 15360, Note_on_c, 0, 77, 110
2, 15548, Note_off_c, 0, 89, 100
2, 15548, Note_off_c, 0, 81, 100
2, 15548, Note_off_c, 0, 77, 100
2, 16128, Note_on_c, 0, 71, 80
2, 16128, Note_on_c, 0, 74, 80
2, 16412, Note_off_c, 0, 71, 100
2, 16412, Note_off_c, 0, 74, 100
2, 16416, Note_on_c, 0, 77, 80
2, 16416, Note_on_c, 0, 74, 80
2, 16508, Note_off_c, 0, 77, 100
2, 16508, Note_off_c, 0, 74, 100
2, 16512, Note_on_c, 0, 77, 80
2, 16512, Note_on_c, 0, 74, 80
2, 16892, Note_off_c, 0, 77, 100
2, 16892, Note_off_c, 0, 74, 100
2, 16896, Note_on_c, 0, 74, 80
2, 16896, Note_on_c, 0, 71, 80
2, 17084, Note_off_c, 0, 74, 100
2, 17084, Note_off_c, 0, 71, 100
2, 17280, Note_on_c, 0, 71, 80
2, 17280, Note_on_c, 0, 74, 80
2, 17564, Note_off_c, 0, 71, 100
2, 17564, Note_off_c, 0, 74, 100
2, 17568, Note_on_c, 0, 79, 80
2, 17568, Note_on_c, 0, 75, 80
2, 17660, Note_off_c, 0, 79, 100
2, 17660, Note_off_c, 0, 75, 100
2, 17664, Note_on_c, 0, 79, 80
2, 17664, Note_on_c, 0, 75, 80
2, 18044, Note_off_c, 0, 79, 100
2, 18044, Note_off_c, 0, 75, 100
2, 18048, Note_on_c, 0, 75, 80
2, 18048, Note_on_c, 0, 72, 80
2, 18236, Note_off_c, 0, 75, 100
2, 18236, Note_off_c, 0, 72, 100
2, 18432, Note_on_c, 0, 69, 80
2, 18432, Note_on_c, 0, 72, 80
2, 18716, Note_off_c, 0, 69, 100
2, 18716, Note_off_c, 0, 72, 100
2, 18720, Note_on_c, 0, 75, 80
2, 18720, Note_on_c, 0, 72, 80
2, 18812, Note_off_c, 0, 75, 100
2, 18812, Note_off_c, 0, 72, 100
2, 18816, Note_on_c, 0, 75, 80
2, 18816, Note_on_c, 0, 72, 80
2, 19196, Note_off_c, 0, 75, 100
2, 19196, Note_off_c, 0, 72, 100
2, 19200, Note_on_c, 0, 72, 80
2, 19200, Note_on_c, 0, 69, 80
2, 19388, Note_off_c, 0, 72, 100
2, 19388, Note_off_c, 0, 69, 100
2, 19584, Note_on_c, 0, 72, 80
2, 19584, Note_on_c, 0, 69, 80
2, 19868, Note_off_c, 0, 72, 100
2, 19868, Note_off_c, 0, 69, 100
2, 19872, Note_on_c, 0, 77, 80
2, 19872, Note_on_c, 0, 73, 80
2, 19964, Note_off_c, 0, 77, 100
2, 19964, Note_off_c, 0, 73, 100
2, 19968, Note_on_c, 0, 77, 80
2, 19968, Note_on_c, 0, 74, 80
2, 20348, Note_off_c, 0, 77, 100
2, 20348, Note_off_c, 0, 74, 100
2, 20352, Note_on_c, 0, 74, 80
2, 20352, Note_on_c, 0, 70, 80
2, 20540, Note_off_c, 0, 74, 100
2, 20540, Note_off_c, 0, 70, 100
2, 20736, Note_on_c, 0, 60, 80
2, 20736, Note_on_c, 0, 57, 80
2, 21020, Note_off_c, 0, 60, 100
2, 21020, Note_off_c, 0, 57, 100
2, 21024, Note_on_c, 0, 63, 80
2, 21024, Note_on_c, 0, 60, 80
2, 21116, Note_off_c, 0, 63, 100
2, 21116, Note_off_c, 0, 60, 100
2, 21120, Note_on_c, 0, 63, 80
2, 21120, Note_on_c, 0, 60, 80
2, 21884, Note_off_c, 0, 63, 100
2, 21884, Note_off_c, 0, 60, 100
2, 21888, Note_on_c, 0, 62, 80
2, 21888, Note_on_c, 0, 58, 80
2, 22268, Note_off_c, 0, 62, 100
2, 22268, Note_off_c, 0, 58, 100
2, 22272, Note_on_c, 0, 60, 79
2, 22272, Note_on_c, 0, 57, 79
2, 22652, Note_off_c, 0, 60, 100
2, 22652, Note_off_c, 0, 57, 100
2, 22656, Note_on_c, 0, 58, 77
2, 22656, Note_on_c, 0, 55, 77
2, 23036, Note_off_c, 0, 58, 100
2, 23036, Note_off_c, 0, 55, 100
2, 23040, Note_on_c, 0, 57, 75
2, 23040, Note_on_c, 0, 53, 75
2, 23804, Note_off_c, 0, 53, 100
2, 23804, Note_off_c, 0, 57, 100
2, 23808, Note_on_c, 0, 55, 71
2, 23808, Note_on_c, 0, 52, 71
2, 24188, Note_off_c, 0, 55, 100
2, 24188, Note_off_c, 0, 52, 100
2, 24192, Note_on_c, 0, 60, 70
2, 24192, Note_on_c, 0, 51, 70
2, 24192, Note_on_c, 0, 55, 70
2, 24956, Note_off_c, 0, 51, 100
2, 24956, Note_off_c, 0, 60, 100
2, 24960, Note_on_c, 0, 59, 70
2, 24960, Note_on_c, 0, 50, 70
2, 25340, Note_off_c, 0, 55, 100
2, 25340, Note_off_c, 0, 59, 100
2, 25340, Note_off_c, 0, 50, 100
2, 26496, Note_on_c, 0, 59, 70
2, 26780, Note_off_c, 0, 59, 100
2, 26784, Note_on_c, 0, 62, 70
2, 26876, Note_off_c, 0, 62, 100
2, 26880, Note_on_c, 0, 62, 70
2, 27260, Note_off_c, 0, 62, 100
2, 27264, Note_on_c, 0, 59, 70
2, 27452, Note_off_c, 0, 59, 100
2, 27648, Note_on_c, 0, 62, 70
2, 27648, Note_on_c, 0, 71, 70
2, 27932, Note_off_c, 0, 71, 100
2, 27936, Note_on_c, 0, 74, 70
2, 28028, Note_off_c, 0, 74, 100
2, 28032, Note_on_c, 0, 74, 70
2, 28412, Note_off_c, 0, 74, 100
2, 28416, Note_on_c, 0, 71, 70
2, 28604, Note_off_c, 0, 62, 100
2, 28604, Note_off_c, 0, 71, 100
2, 28800, Control_c, 0, 64, 127
2, 28800, Note_on_c, 0, 84, 70
2, 29084, Note_off_c, 0, 84, 100
2, 29088, Note_on_c, 0, 87, 70
2, 29180, Note_off_c, 0, 87, 100
2, 29184, Note_on_c, 0, 87, 70
2, 29564, Note_off_c, 0, 87, 100
2, 29568, Note_on_c, 0, 84, 70
2, 29756, Note_off_c, 0, 84, 100
2, 29944, Control_c, 0, 64, 0
2, 29952, Note_on_c, 0, 71, 70
2, 29952, Note_on_c, 0, 62, 70
2, 30236, Note_off_c, 0, 71, 100
2, 30236, Note_off_c, 0, 62, 100
2, 30240, Note_on_c, 0, 74, 76
2, 30240, Note_on_c, 0, 65, 76
2, 30332, Note_off_c, 0, 74, 100
2, 30332, Note_off_c, 0, 65, 100
2, 30336, Note_on_c, 0, 74, 78
2, 30336, Note_on_c, 0, 65, 78
2, 30716, Note_off_c, 0, 74, 100
2, 30716, Note_off_c, 0, 65, 100
2, 30720, Note_on_c, 0, 71, 86
2, 30720, Note_on_c, 0, 62, 86
2, 30908, Note_off_c, 0, 71, 100
2, 30908, Note_off_c, 0, 62, 100
2, 31104, Note_on_c, 0, 62, 94
2, 31104, Note_on_c, 0, 71, 94
2, 31388, Note_off_c, 0, 62, 100
2, 31388, Note_off_c, 0, 71, 100
2, 31392, Note_on_c, 0, 75, 100
2, 31392, Note_on_c, 0, 67, 100
2, 31484, Note_off_c, 0, 75, 100
2, 31484, Note_off_c, 0, 67, 100
2, 31488, Note_on_c, 0, 75, 102
2, 31488, Note_on_c, 0, 67, 102
2, 31868, Note_off_c, 0, 75, 100
2, 31868, Note_off_c, 0, 67, 100
2, 31872, Note_on_c, 0, 72, 110
2, 31872, Note_on_c, 0, 63, 110
2, 32060, Note_off_c, 0, 72, 100
2, 32060, Note_off_c, 0, 63, 100
2, 32256, Note_on_c, 0, 69, 110
2, 32256, Note_on_c, 0, 72, 110
2, 32540, Note_off_c, 0, 69, 100
2, 32540, Note_off_c, 0, 72, 100
2, 32544, Note_on_c, 0, 81, 110
2, 32544, Note_on_c, 0, 72, 110
2, 32636, Note_off_c, 0, 81, 100
2, 32636, Note_off_c, 0, 72, 100
2, 32640, Note_on_c, 0, 81, 110
2, 32640, Note_on_c, 0, 72, 110
2, 33020, Note_off_c, 0, 81, 100
2, 33020, Note_off_c, 0, 72, 100
2, 33024, Note_on_c, 0, 77, 110
2, 33024, Note_on_c, 0, 69, 110
2, 33212, Note_off_c, 0, 77, 100
2, 33212, Note_off_c, 0, 69, 100
2, 33408, Note_on_c, 0, 82, 110
2, 33408, Note_on_c, 0, 70, 110
2, 33596, Note_off_c, 0, 82, 100
2, 33596, Note_off_c, 0, 70, 100
2, 33792, Note_on_c, 0, 82, 110
2, 33792, Note_on_c, 0, 70, 110
2, 33980, Note_off_c, 0, 82, 100
2, 33980, Note_off_c, 0, 70, 100
2, 34560, Note_on_c, 0, 83, 80
2, 34560, Note_on_c, 0, 86, 80
2, 34844, Note_off_c, 0, 83, 100
2, 34844, Note_off_c, 0, 86, 100
2, 34848, Note_on_c, 0, 89, 80
2, 34848, Note_on_c, 0, 86, 80
2, 34940, Note_off_c, 0, 89, 100
2, 34940, Note_off_c, 0, 86, 100
2, 34944, Note_on_c, 0, 89, 80
2, 34944, Note_on_c, 0, 86, 80
2, 35324, Note_off_c, 0, 89, 100
2, 35324, Note_off_c, 0, 86, 100
2, 35328, Note_on_c, 0, 86, 80
2, 35328, Note_on_c, 0, 83, 80
2, 35516, Note_off_c, 0, 86, 100
2, 35516, Note_off_c, 0, 83, 100
2, 35712, Note_on_c, 0, 83, 80
2, 35712, Note_on_c, 0, 86, 80
2, 35996, Note_off_c, 0, 83, 100
2, 35996, Note_off_c, 0, 86, 100
2, 36000, Note_on_c, 0, 91, 80
2, 36000, Note_on_c, 0, 87, 80
2, 36092, Note_off_c, 0, 91, 100
2, 36092, Note_off_c, 0, 87, 100
2, 36096, Note_on_c, 0, 91, 80
2, 36096, Note_on_c, 0, 87, 80
2, 36476, Note_off_c, 0, 91, 100
2, 36476, Note_off_c, 0, 87, 100
2, 36480, Note_on_c, 0, 87, 80
2, 36480, Note_on_c, 0, 84, 80
2, 36668, Note_off_c, 0, 87, 100
2, 36668, Note_off_c, 0, 84, 100
2, 36864, Note_on_c, 0, 81, 80
2, 36864, Note_on_c, 0, 84, 80
2, 37148, Note_off_c, 0, 81, 100
2, 37148, Note_off_c, 0, 84, 100
2, 37152, Note_on_c, 0, 87, 80
2, 37152, Note_on_c, 0, 84, 80
2, 37244, Note_off_c, 0, 87, 100
2, 37244, Note_off_c, 0, 84, 100
2, 37248, Note_on_c, 0, 87, 80
2, 37248, Note_on_c, 0, 84, 80
2, 37628, Note_off_c, 0, 87, 100
2, 37628, Note_off_c, 0, 84, 100
2, 37632, Note_on_c, 0, 84, 80
2, 37632, Note_on_c, 0, 81, 80
2, 37820, Note_off_c, 0, 84, 100
2, 37820, Note_off_c, 0, 81, 100
2, 38016, Note_on_c, 0, 84, 80
2, 38016, Note_on_c, 0, 81, 80
2, 38300, Note_off_c, 0, 84, 100
2, 38300, Note_off_c, 0, 81, 100
2, 38304, Note_on_c, 0, 89, 80
2, 38304, Note_on_c, 0, 85, 80
2, 38396, Note_off_c, 0, 89, 100
2, 38396, Note_off_c, 0, 85, 100
2, 38400, Note_on_c, 0, 89, 80
2, 38400, Note_on_c, 0, 86, 80
2, 38780, Note_off_c, 0, 89, 100
2, 38780, Note_off_c, 0, 86, 100
2, 38784, Note_on_c, 0, 86, 80
2, 38784, Note_on_c, 0, 82, 80
2, 38972, Note_off_c, 0, 86, 100
2, 38972, Note_off_c, 0, 82, 100
2, 39168, Note_on_c, 0, 72, 80
2, 39168, Note_on_c, 0, 69, 80
2, 39452, Note_off_c, 0, 72, 100
2, 39452, Note_off_c, 0, 69, 100
2, 39456, Note_on_c, 0, 75, 80
2, 39456, Note_on_c, 0, 72, 80
2, 39548, Note_off_c, 0, 75, 100
2, 39548, Note_off_c, 0, 72, 100
2, 39552, Note_on_c, 0, 75, 80
2, 39552, Note_on_c, 0, 72, 80
2, 40316, Note_off_c, 0, 75, 100
2, 40316, Note_off_c, 0, 72, 100
2, 40320, Note_on_c, 0, 74, 80
2, 40320, Note_on_c, 0, 70, 80
2, 40700, Note_off_c, 0, 74, 100
2, 40700, Note_off_c, 0, 70, 100
2, 40704, Note_on_c, 0, 72, 79
2, 40704, Note_on_c, 0, 69, 79
2, 41084, Note_off_c, 0, 72, 100
2, 41084, Note_off_c, 0, 69, 100
2, 41088, Note_on_c, 0, 70, 77
2, 41088, Note_on_c, 0, 67, 77
2, 41468, Note_off_c, 0, 70, 100
2, 41468, Note_off_c, 0, 67, 100
2, 41472, Note_on_c, 0, 69, 75
2, 41472, Note_on_c, 0, 65, 75
2, 42236, Note_off_c, 0, 65, 100
2, 42236, Note_off_c, 0, 69, 100
2, 42240, Note_on_c, 0, 67, 71
2, 42240, Note_on_c, 0, 64, 71
2, 42620, Note_off_c, 0, 67, 100
2, 42620, Note_off_c, 0, 64, 100
2, 42624, Note_on_c, 0, 72, 70
2, 42624, Note_on_c, 0, 63, 70
2, 42624, Note_on_c, 0, 67, 70
2, 43388, Note_off_c, 0, 63, 100
2, 43388, Note_off_c, 0, 72, 100
2, 43392, Note_on_c, 0, 71, 70
2, 43392, Note_on_c, 0, 62, 70
2, 43772, Note_off_c, 0, 67, 100
2, 43772, Note_off_c, 0, 71, 100
2, 43772, Note_off_c, 0, 62, 100
2, 44928, Note_on_c, 0, 71, 70
2, 45212, Note_off_c, 0, 71, 100
2, 45216, Note_on_c, 0, 74, 70
2, 45308, Note_off_c, 0, 74, 100
2, 45312, Note_on_c, 0, 74, 70
2, 45692, Note_off_c, 0, 74, 100
2, 45696, Note_on_c, 0, 71, 70
2, 45884, Note_off_c, 0, 71, 100
2, 46080, Note_on_c, 0, 74, 70
2, 46080, Note_on_c, 0, 83, 70
2, 46364, Note_off_c, 0, 83, 100
2, 46368, Note_on_c, 0, 86, 70
2, 46460, Note_off_c, 0, 86, 100
2, 46464, Note_on_c, 0, 86, 70
2, 46844, Note_off_c, 0, 86, 100
2, 46848, Note_on_c, 0, 83, 70
2, 47036, Note_off_c, 0, 74, 100
2, 47036, Note_off_c, 0, 83, 100
2, 47232, Control_c, 0, 64, 127
2, 47232, Note_on_c, 0, 72, 70
2, 47516, Note_off_c, 0, 72, 100
2, 47520, Note_on_c, 0, 75, 70
2, 47612, Note_off_c, 0, 75, 100
2, 47616, Note_on_c, 0, 75, 70
2, 47996, Note_off_c, 0, 75, 100
2, 48000, Note_on_c, 0, 72, 70
2, 48188, Note_off_c, 0, 72, 100
2, 48376, Control_c, 0, 64, 0
2, 48384, Note_on_c, 0, 83, 70
2, 48384, Note_on_c, 0, 74, 70
2, 48668, Note_off_c, 0, 83, 100
2, 48668, Note_off_c, 0, 74, 100
2, 48672, Note_on_c, 0, 86, 76
2, 48672, Note_on_c, 0, 77, 76
2, 48764, Note_off_c, 0, 86, 100
2, 48764, Note_off_c, 0, 77, 100
2, 48768, Note_on_c, 0, 86, 78
2, 48768, Note_on_c, 0, 77, 78
2, 49148, Note_off_c, 0, 86, 100
2, 49148, Note_off_c, 0, 77, 100
2, 49152, Note_on_c, 0, 83, 86
2, 49152, Note_on_c, 0, 74, 86
2, 49340, Note_off_c, 0, 83, 100
2, 49340, Note_off_c, 0, 74, 100
2, 49536, Note_on_c, 0, 74, 94
2, 49536, Note_on_c, 0, 83, 94
2, 49820, Note_off_c, 0, 74, 100
2, 49820, Note_off_c, 0, 83, 100
2, 49824, Note_on_c, 0, 87, 100
2, 49824, Note_on_c, 0, 79, 100
2, 49916, Note_off_c, 0, 87, 100
2, 49916, Note_off_c, 0, 79, 100
2, 49920, Note_on_c, 0, 87, 102
2, 49920, Note_on_c, 0, 79, 102
2, 50300, Note_off_c, 0, 87, 100
2, 50300, Note_off_c, 0, 79, 100
2, 50304, Note_on_c, 0, 84, 110
2, 50304, Note_on_c, 0, 75, 110
2, 50492, Note_off_c, 0, 84, 100
2, 50492, Note_off_c, 0, 75, 100
2, 50688, Note_on_c, 0, 81, 110
2, 50688, Note_on_c, 0, 84, 110
2, 50972, Note_off_c, 0, 81, 100
2, 50972, Note_off_c, 0, 84, 100
2, 50976, Note_on_c, 0, 93, 110
2, 50976, Note_on_c, 0, 84, 110
2, 51068, Note_off_c, 0, 93, 100
2, 51068, Note_off_c, 0, 84, 100
2, 51072, Note_on_c, 0, 93, 110
2, 51072, Note_on_c, 0, 84, 110
2, 51452, Note_off_c, 0, 93, 100
2, 51452, Note_off_c, 0, 84, 100
2, 51456, Note_on_c, 0, 89, 110
2, 51456, Note_on_c, 0, 81, 110
2, 51644, Note_off_c, 0, 89, 100
2, 51644, Note_off_c, 0, 81, 100
2, 51840, Note_on_c, 0, 94, 110
2, 51840, Note_on_c, 0, 82, 110
2, 52028, Note_off_c, 0, 94, 100
2, 52028, Note_off_c, 0, 82, 100
2, 52224, Key_signature, -5, "minor"
2, 52224, Note_on_c, 0, 94, 110
2, 52224, Note_on_c, 0, 82, 110
2, 52412, Note_off_c, 0, 94, 100
2, 52412, Note_off_c, 0, 82, 100
2, 52992, Note_on_c, 0, 85, 80
2, 52992, Note_on_c, 0, 73, 80
2, 53756, Note_off_c, 0, 73, 100
2, 53756, Note_off_c, 0, 85, 100
2, 53760, Note_on_c, 0, 77, 80
2, 53760, Note_on_c, 0, 89, 80
2, 54140, Note_off_c, 0, 77, 100
2, 54140, Note_off_c, 0, 89, 100
2, 54144, Control_c, 0, 64, 127
2, 54144, Note_on_c, 0, 73, 80
2, 54144, Note_on_c, 0, 85, 80
2, 54908, Note_off_c, 0, 73, 100
2, 54908, Note_off_c, 0, 85, 100
2, 54912, Note_on_c, 0, 82, 80
2, 54912, Note_on_c, 0, 70, 80
2, 55292, Note_off_c, 0, 82, 100
2, 55292, Note_off_c, 0, 70, 100
2, 55296, Note_on_c, 0, 77, 80
2, 55296, Note_on_c, 0, 65, 80
2, 55676, Note_off_c, 0, 77, 100
2, 55676, Note_off_c, 0, 65, 100
2, 55680, Note_on_c, 0, 82, 80
2, 55680, Note_on_c, 0, 70, 80
2, 56444, Note_off_c, 0, 82, 100
2, 56444, Note_off_c, 0, 70, 100
2, 56448, Note_on_c, 0, 85, 80
2, 56448, Note_on_c, 0, 73, 80
2, 56828, Note_off_c, 0, 85, 100
2, 56828, Note_off_c, 0, 73, 100
2, 56832, Note_on_c, 0, 89, 80
2, 56832, Note_on_c, 0, 77, 80
2, 57596, Note_off_c, 0, 89, 100
2, 57596, Note_off_c, 0, 77, 100
2, 57600, Note_on_c, 0, 85, 80
2, 57600, Note_on_c, 0, 73, 80
2, 57980, Note_off_c, 0, 85, 100
2, 57980, Note_off_c, 0, 73, 100
2, 57984, Note_on_c, 0, 82, 80
2, 57984, Note_on_c, 0, 70, 80
2, 58748, Note_off_c, 0, 82, 100
2, 58748, Note_off_c, 0, 70, 100
2, 58752, Note_on_c, 0, 77, 80
2, 58752, Note_on_c, 0, 65, 80
2, 59132, Note_off_c, 0, 77, 100
2, 59132, Note_off_c, 0, 65, 100
2, 59136, Note_on_c, 0, 82, 80
2, 59136, Note_on_c, 0, 70, 80
2, 59896, Control_c, 0, 64, 0
2, 59900, Note_off_c, 0, 82, 100
2, 59900, Note_off_c, 0, 70, 100
2, 59904, Note_on_c, 0, 85, 80
2, 59904, Note_on_c, 0, 73, 80
2, 60284, Note_off_c, 0, 85, 100
2, 60284, Note_off_c, 0, 73, 100
2, 60288, Control_c, 0, 64, 127
2, 60288, Note_on_c, 0, 77, 80
2, 60288, Note_on_c, 0, 89, 80
2, 61052, Note_off_c, 0, 77, 100
2, 61052, Note_off_c, 0, 89, 100
2, 61056, Note_on_c, 0, 80, 80
2, 61056, Note_on_c, 0, 92, 80
2, 61436, Note_off_c, 0, 80, 100
2, 61436, Note_off_c, 0, 92, 100
2, 61440, Note_on_c, 0, 85, 80
2, 61440, Note_on_c, 0, 73, 80
2, 61820, Note_off_c, 0, 85, 100
2, 61820, Note_off_c, 0, 73, 100
2, 62208, Note_on_c, 0, 82, 80
2, 62208, Note_on_c, 0, 70, 80
2, 62396, Note_off_c, 0, 82, 100
2, 62396, Note_off_c, 0, 70, 100
2, 62592, Note_on_c, 0, 82, 80
2, 62592, Note_on_c, 0, 70, 80
2, 62780, Note_off_c, 0, 82, 100
2, 62780, Note_off_c, 0, 70, 100
2, 62976, Control_c, 0, 64, 127
2, 63352, Control_c, 0, 64, 0
2, 63360, Note_on_c, 0, 73, 80
2, 63488, Note_on_c, 0, 70, 80
2, 63616, Note_on_c, 0, 65, 80
2, 63740, Note_off_c, 0, 73, 100
2, 63744, Note_on_c, 0, 73, 80
2, 63868, Note_off_c, 0, 70, 100
2, 63872, Note_on_c, 0, 70, 80
2, 63996, Note_off_c, 0, 65, 100
2, 64000, Note_on_c, 0, 65, 80
2, 64124, Note_off_c, 0, 73, 100
2, 64128, Note_on_c, 0, 77, 80
2, 64252, Note_off_c, 0, 70, 100
2, 64256, Note_on_c, 0, 73, 80
2, 64380, Note_off_c, 0, 65, 100
2, 64384, Note_on_c, 0, 70, 80
2, 64508, Note_off_c, 0, 77, 100
2, 64508, Note_off_c, 0, 73, 100
2, 64512, Note_on_c, 0, 73, 80
2, 64636, Note_off_c, 0, 70, 100
2, 64640, Note_on_c, 0, 70, 80
2, 64768, Note_on_c, 0, 65, 80
2, 64892, Note_off_c, 0, 73, 100
2, 64896, Note_on_c, 0, 73, 80
2, 65020, Note_off_c, 0, 70, 100
2, 65024, Note_on_c, 0, 70, 80
2, 65148, Note_off_c, 0, 65, 100
2, 65152, Note_on_c, 0, 65, 80
2, 65276, Note_off_c, 0, 73, 100
2, 65276, Note_off_c, 0, 70, 100
2, 65280, Note_on_c, 0, 70, 80
2, 65404, Note_off_c, 0, 65, 100
2, 65408, Note_on_c, 0, 65, 80
2, 65536, Note_on_c, 0, 61, 80
2, 65660, Note_off_c, 0, 70, 100
2, 65660, Note_off_c, 0, 65, 100
2, 65664, Note_on_c, 0, 65, 80
2, 65788, Note_off_c, 0, 61, 100
2, 65792, Note_on_c, 0, 61, 80
2, 65920, Note_on_c, 0, 58, 80
2, 66044, Note_off_c, 0, 65, 100
2, 66044, Note_off_c, 0, 61, 100
2, 66048, Note_on_c, 0, 70, 80
2, 66048, Note_on_c, 0, 61, 80
2, 66172, Note_off_c, 0, 58, 100
2, 66176, Note_on_c, 0, 58, 80
2, 66300, Note_off_c, 0, 61, 100
2, 66304, Note_on_c, 0, 61, 80
2, 66428, Note_off_c, 0, 70, 100
2, 66432, Note_on_c, 0, 70, 80
2, 66556, Note_off_c, 0, 58, 100
2, 66556, Note_off_c, 0, 61, 100
2, 66560, Note_on_c, 0, 61, 80
2, 66688, Note_on_c, 0, 58, 80
2, 66812, Note_off_c, 0, 70, 100
2, 66812, Note_off_c, 0, 58, 100
2, 66816, Note_on_c, 0, 73, 80
2, 66816, Note_on_c, 0, 65, 80
2, 66940, Note_off_c, 0, 61, 100
2, 66944, Note_on_c, 0, 61, 80
2, 67068, Note_off_c, 0, 65, 100
2, 67072, Note_on_c, 0, 65, 80
2, 67196, Note_off_c, 0, 73, 100
2, 67200, Note_on_c, 0, 77, 80
2, 67324, Note_off_c, 0, 61, 100
2, 67328, Note_on_c, 0, 73, 80
2, 67452, Note_off_c, 0, 65, 100
2, 67456, Note_on_c, 0, 70, 80
2, 67580, Note_off_c, 0, 77, 100
2, 67584, Note_on_c, 0, 77, 80
2, 67708, Note_off_c, 0, 73, 100
2, 67712, Note_on_c, 0, 73, 80
2, 67836, Note_off_c, 0, 70, 100
2, 67840, Note_on_c, 0, 70, 80
2, 67964, Note_off_c, 0, 77, 100
2, 67964, Note_off_c, 0, 73, 100
2, 67968, Note_on_c, 0, 73, 80
2, 68092, Note_off_c, 0, 70, 100
2, 68096, Note_on_c, 0, 70, 80
2, 68224, Note_on_c, 0, 65, 80
2, 68348, Note_off_c, 0, 73, 100
2, 68348, Note_off_c, 0, 70, 100
2, 68352, Note_on_c, 0, 70, 80
2, 68476, Note_off_c, 0, 65, 100
2, 68480, Note_on_c, 0, 65, 80
2, 68608, Note_on_c, 0, 61, 80
2, 68732, Note_off_c, 0, 70, 100
2, 68736, Note_on_c, 0, 70, 80
2, 68860, Note_off_c, 0, 65, 100
2, 68864, Note_on_c, 0, 65, 80
2, 68988, Note_off_c, 0, 61, 100
2, 68992, Note_on_c, 0, 61, 80
2, 69112, Control_c, 0, 64, 0
2, 69116, Note_off_c, 0, 70, 100
2, 69116, Note_off_c, 0, 65, 100
2, 69120, Note_on_c, 0, 65, 80
2, 69244, Note_off_c, 0, 61, 100
2, 69244, Note_off_c, 0, 65, 100
2, 69248, Note_on_c, 0, 61, 80
2, 69372, Note_off_c, 0, 61, 100
2, 69376, Note_on_c, 0, 58, 80
2, 69500, Note_off_c, 0, 58, 100
2, 69504, Note_on_c, 0, 68, 80
2, 69504, Note_on_c, 0, 61, 80
2, 69628, Note_off_c, 0, 68, 100
2, 69628, Note_off_c, 0, 61, 100
2, 69632, Note_on_c, 0, 56, 80
2, 69756, Note_off_c, 0, 56, 100
2, 69760, Note_on_c, 0, 61, 80
2, 69884, Note_off_c, 0, 61, 100
2, 69888, Note_on_c, 0, 68, 80
2, 70012, Note_off_c, 0, 68, 100
2, 70016, Note_on_c, 0, 65, 80
2, 70140, Note_off_c, 0, 65, 100
2, 70144, Note_on_c, 0, 61, 80
2, 70268, Note_off_c, 0, 61, 100
2, 70272, Note_on_c, 0, 65, 80
2, 70272, Note_on_c, 0, 73, 80
2, 70396, Note_off_c, 0, 65, 100
2, 70396, Note_off_c, 0, 73, 100
2, 70400, Note_on_c, 0, 61, 80
2, 70524, Note_off_c, 0, 61, 100
2, 70528, Note_on_c, 0, 65, 80
2, 70652, Note_off_c, 0, 65, 100
2, 70656, Control_c, 0, 64, 127
2, 70656, Note_on_c, 0, 77, 80
2, 70784, Note_on_c, 0, 73, 80
2, 70912, Note_on_c, 0, 68, 80
2, 71036, Note_off_c, 0, 77, 100
2, 71040, Note_on_c, 0, 77, 80
2, 71164, Note_off_c, 0, 73, 100
2, 71168, Note_on_c, 0, 73, 80
2, 71292, Note_off_c, 0, 68, 100
2, 71296, Note_on_c, 0, 68, 80
2, 71420, Note_off_c, 0, 77, 100
2, 71424, Note_on_c, 0, 80, 80
2, 71548, Note_off_c, 0, 73, 100
2, 71552, Note_on_c, 0, 77, 80
2, 71676, Note_off_c, 0, 68, 100
2, 71680, Note_on_c, 0, 73, 80
2, 71804, Note_off_c, 0, 80, 100
2, 71804, Note_off_c, 0, 77, 100
2, 71804, Note_off_c, 0, 73, 100
2, 71808, Note_on_c, 0, 73, 80
2, 71808, Note_on_c, 0, 65, 80
2, 72572, Note_off_c, 0, 73, 100
2, 72572, Note_off_c, 0, 65, 100
2, 72576, Note_on_c, 0, 89, 80
2, 72576, Note_on_c, 0, 77, 80
2, 73340, Note_off_c, 0, 77, 100
2, 73340, Note_off_c, 0, 89, 100
2, 73344, Note_on_c, 0, 92, 80
2, 73344, Note_on_c, 0, 80, 80
2, 73724, Note_off_c, 0, 92, 100
2, 73724, Note_off_c, 0, 80, 100
2, 73728, Note_on_c, 0, 89, 80
2, 73728, Note_on_c, 0, 77, 80
2, 74492, Note_off_c, 0, 77, 100
2, 74492, Note_off_c, 0, 89, 100
2, 74496, Note_on_c, 0, 85, 80
2, 74496, Note_on_c, 0, 73, 80
2, 74876, Note_off_c, 0, 85, 100
2, 74876, Note_off_c, 0, 73, 100
2, 74880, Note_on_c, 0, 80, 80
2, 74880, Note_on_c, 0, 68, 80
2, 75260, Note_off_c, 0, 80, 100
2, 75260, Note_off_c, 0, 68, 100
2, 75264, Note_on_c, 0, 85, 80
2, 75264, Note_on_c, 0, 73, 80
2, 76028, Note_off_c, 0, 85, 100
2, 76028, Note_off_c, 0, 73, 100
2, 76032, Note_on_c, 0, 89, 80
2, 76032, Note_on_c, 0, 77, 80
2, 76408, Control_c, 0, 64, 0
2, 76412, Note_off_c, 0, 89, 100
2, 76412, Note_off_c, 0, 77, 100
2, 76416, Note_on_c, 0, 92, 80
2, 76416, Note_on_c, 0, 80, 80
2, 77180, Note_off_c, 0, 92, 100
2, 77180, Note_off_c, 0, 80, 100
2, 77184, Note_on_c, 0, 89, 80
2, 77184, Note_on_c, 0, 77, 80
2, 77564, Note_off_c, 0, 89, 100
2, 77564, Note_off_c, 0, 77, 100
2, 77568, Control_c, 0, 64, 127
2, 77568, Note_on_c, 0, 85, 80
2, 77568, Note_on_c, 0, 73, 80
2, 78332, Note_off_c, 0, 85, 100
2, 78332, Note_off_c, 0, 73, 100
2, 78336, Note_on_c, 0, 82, 80
2, 78336, Note_on_c, 0, 70, 80
2, 78716, Note_off_c, 0, 82, 100
2, 78716, Note_off_c, 0, 70, 100
2, 78720, Note_on_c, 0, 77, 80
2, 78720, Note_on_c, 0, 65, 80
2, 79484, Note_off_c, 0, 77, 100
2, 79484, Note_off_c, 0, 65, 100
2, 79488, Note_on_c, 0, 82, 80
2, 79488, Note_on_c, 0, 70, 80
2, 79868, Note_off_c, 0, 82, 100
2, 79868, Note_off_c, 0, 70, 100
2, 79872, Note_on_c, 0, 85, 80
2, 79872, Note_on_c, 0, 73, 80
2, 80636, Note_off_c, 0, 85, 100
2, 80636, Note_off_c, 0, 73, 100
2, 80640, Note_on_c, 0, 89, 80
2, 80640, Note_on_c, 0, 77, 80
2, 81020, Note_off_c, 0, 89, 100
2, 81020, Note_off_c, 0, 77, 100
2, 81024, Note_on_c, 0, 82, 80
2, 81024, Note_on_c, 0, 70, 80
2, 81784, Control_c, 0, 64, 0
2, 81788, Note_off_c, 0, 82, 100
2, 81788, Note_off_c, 0, 70, 100
2, 81792, Note_on_c, 0, 73, 80
2, 81792, Note_on_c, 0, 61, 80
2, 81980, Note_off_c, 0, 73, 100
2, 81980, Note_off_c, 0, 61, 100
2, 82176, Note_on_c, 0, 73, 80
2, 82176, Note_on_c, 0, 61, 80
2, 82364, Note_off_c, 0, 73, 100
2, 82364, Note_off_c, 0, 61, 100
2, 82560, Note_on_c, 0, 61, 80
2, 82684, Note_off_c, 0, 61, 100
2, 82688, Note_on_c, 0, 65, 80
2, 82816, Note_on_c, 0, 73, 80
2, 82932, Note_off_c, 0, 65, 100
2, 82940, Note_off_c, 0, 73, 100
2, 82944, Note_on_c, 0, 77, 80
2, 83072, Note_on_c, 0, 73, 80
2, 83200, Note_on_c, 0, 68, 80
2, 83316, Note_off_c, 0, 73, 100
2, 83324, Note_off_c, 0, 77, 100
2, 83324, Note_off_c, 0, 68, 100
2, 83328, Control_c, 0, 64, 127
2, 83328, Note_on_c, 0, 77, 80
2, 83456, Note_on_c, 0, 73, 80
2, 83584, Note_on_c, 0, 68, 80
2, 83700, Note_off_c, 0, 73, 100
2, 83708, Note_off_c, 0, 77, 100
2, 83708, Note_off_c, 0, 68, 100
2, 83712, Note_on_c, 0, 80, 80
2, 83712, Note_on_c, 0, 77, 80
2, 83840, Note_on_c, 0, 73, 80
2, 83968, Note_on_c, 0, 68, 80
2, 84092, Note_off_c, 0, 80, 100
2, 84092, Note_off_c, 0, 77, 100
2, 84096, Note_on_c, 0, 77, 80
2, 84220, Note_off_c, 0, 73, 100
2, 84224, Note_on_c, 0, 73, 80
2, 84348, Note_off_c, 0, 68, 100
2, 84352, Note_on_c, 0, 68, 80
2, 84476, Note_off_c, 0, 77, 100
2, 84480, Note_on_c, 0, 77, 80
2, 84604, Note_off_c, 0, 73, 100
2, 84608, Note_on_c, 0, 73, 80
2, 84732, Note_off_c, 0, 68, 100
2, 84736, Note_on_c, 0, 68, 80
2, 84860, Note_off_c, 0, 77, 100
2, 84860, Note_off_c, 0, 73, 100
2, 84864, Note_on_c, 0, 73, 80
2, 84988, Note_off_c, 0, 68, 100
2, 84992, Note_on_c, 0, 68, 80
2, 85120, Note_on_c, 0, 65, 80
2, 85244, Note_off_c, 0, 73, 100
2, 85244, Note_off_c, 0, 68, 100
2, 85248, Note_on_c, 0, 68, 80
2, 85248, Note_on_c, 0, 61, 80
2, 85376, Note_on_c, 0, 56, 80
2, 85500, Note_off_c, 0, 65, 100
2, 85500, Note_off_c, 0, 61, 100
2, 85504, Note_on_c, 0, 61, 80
2, 85628, Note_off_c, 0, 68, 100
2, 85632, Note_on_c, 0, 73, 80
2, 85632, Note_on_c, 0, 65, 80
2, 85756, Note_off_c, 0, 56, 100
2, 85756, Note_off_c, 0, 61, 100
2, 85756, Note_off_c, 0, 65, 100
2, 85760, Note_on_c, 0, 61, 80
2, 85888, Note_on_c, 0, 65, 80
2, 86012, Note_off_c, 0, 73, 100
2, 86016, Note_on_c, 0, 73, 80
2, 86140, Note_off_c, 0, 61, 100
2, 86144, Note_on_c, 0, 68, 80
2, 86268, Note_off_c, 0, 65, 100
2, 86272, Note_on_c, 0, 65, 80
2, 86396, Note_off_c, 0, 73, 100
2, 86400, Note_on_c, 0, 77, 80
2, 86524, Note_off_c, 0, 68, 100
2, 86528, Note_on_c, 0, 73, 80
2, 86652, Note_off_c, 0, 65, 100
2, 86656, Note_on_c, 0, 68, 80
2, 86780, Note_off_c, 0, 77, 100
2, 86784, Control_c, 0, 64, 127
2, 86784, Note_on_c, 0, 80, 80
2, 86908, Note_off_c, 0, 73, 100
2, 86912, Note_on_c, 0, 77, 80
2, 87036, Note_off_c, 0, 68, 100
2, 87040, Note_on_c, 0, 73, 80
2, 87164, Note_off_c, 0, 80, 100
2, 87164, Note_off_c, 0, 77, 100
2, 87168, Note_on_c, 0, 77, 80
2, 87292, Note_off_c, 0, 73, 100
2, 87296, Note_on_c, 0, 73, 80
2, 87420, Note_off_c, 0, 77, 100
2, 87424, Note_on_c, 0, 77, 80
2, 87544, Control_c, 0, 64, 0
2, 87548, Note_off_c, 0, 77, 100
2, 87552, Note_on_c, 0, 77, 80
2, 87676, Note_off_c, 0, 73, 100
2, 87680, Note_on_c, 0, 73, 80
2, 87808, Note_on_c, 0, 65, 80
2, 87932, Note_off_c, 0, 77, 100
2, 87936, Note_on_c, 0, 73, 80
2, 88060, Note_off_c, 0, 73, 100
2, 88064, Note_on_c, 0, 70, 80
2, 88188, Note_off_c, 0, 65, 100
2, 88192, Note_on_c, 0, 65, 80
2, 88316, Note_off_c, 0, 73, 100
2, 88320, Note_on_c, 0, 73, 80
2, 88444, Note_off_c, 0, 70, 100
2, 88448, Note_on_c, 0, 70, 80
2, 88572, Note_off_c, 0, 65, 100
2, 88576, Note_on_c, 0, 65, 80
2, 88700, Note_off_c, 0, 73, 100
2, 88700, Note_off_c, 0, 70, 100
2, 88704, Note_on_c, 0, 70, 80
2, 88828, Note_off_c, 0, 65, 100
2, 88832, Note_on_c, 0, 65, 80
2, 88960, Note_on_c, 0, 61, 80
2, 89084, Note_off_c, 0, 70, 100
2, 89084, Note_off_c, 0, 65, 100
2, 89088, Note_on_c, 0, 65, 80
2, 89212, Note_off_c, 0, 61, 100
2, 89216, Note_on_c, 0, 61, 80
2, 89344, Note_on_c, 0, 58, 80
2, 89468, Note_off_c, 0, 65, 100
2, 89472, Note_on_c, 0, 65, 80
2, 89596, Note_off_c, 0, 61, 100
2, 89600, Note_on_c, 0, 61, 80
2, 89724, Note_off_c, 0, 58, 100
2, 89728, Note_on_c, 0, 58, 80
2, 89852, Note_off_c, 0, 65, 100
2, 89852, Note_off_c, 0, 61, 100
2, 89856, Note_on_c, 0, 70, 80
2, 89856, Note_on_c, 0, 61, 80
2, 89980, Note_off_c, 0, 58, 100
2, 89984, Note_on_c, 0, 58, 80
2, 90108, Note_off_c, 0, 61, 100
2, 90112, Note_on_c, 0, 61, 80
2, 90236, Note_off_c, 0, 70, 100
2, 90240, Note_on_c, 0, 73, 80
2, 90364, Note_off_c, 0, 58, 100
2, 90368, Note_on_c, 0, 70, 80
2, 90492, Note_off_c, 0, 61, 100
2, 90496, Note_on_c, 0, 65, 80
2, 90620, Note_off_c, 0, 73, 100
2, 90624, Note_on_c, 0, 73, 80
2, 90748, Note_off_c, 0, 70, 100
2, 90752, Note_on_c, 0, 70, 80
2, 90876, Note_off_c, 0, 65, 100
2, 90880, Note_on_c, 0, 65, 80
2, 91004, Note_off_c, 0, 73, 100
2, 91008, Note_on_c, 0, 77, 80
2, 91132, Note_off_c, 0, 70, 100
2, 91136, Note_on_c, 0, 73, 80
2, 91260, Note_off_c, 0, 65, 100
2, 91264, Note_on_c, 0, 65, 80
2, 91388, Note_off_c, 0, 77, 100
2, 91392, Note_on_c, 0, 70, 80
2, 91516, Note_off_c, 0, 73, 100
2, 91644, Note_off_c, 0, 65, 100
2, 92536, Control_c, 0, 64, 0
2, 92540, Note_off_c, 0, 70, 100
2, 92544, Note_on_c, 0, 70, 80
2, 92732, Note_off_c, 0, 70, 100
2, 92928, Note_on_c, 0, 73, 80
2, 93116, Note_off_c, 0, 73, 100
2, 93312, Note_on_c, 0, 72, 80
2, 93500, Note_off_c, 0, 72, 100
2, 93696, Note_on_c, 0, 65, 80
2, 93884, Note_off_c, 0, 65, 100
2, 94080, Note_on_c, 0, 77, 80
2, 94268, Note_off_c, 0, 77, 100
2, 94464, Note_on_c, 0, 75, 80
2, 94652, Note_off_c, 0, 75, 100
2, 94848, Note_on_c, 0, 73, 80
2, 95036, Note_off_c, 0, 73, 100
2, 95232, Note_on_c, 0, 72, 80
2, 95420, Note_off_c, 0, 72, 100
2, 95616, Note_on_c, 0, 70, 80
2, 95804, Note_off_c, 0, 70, 100
2, 96000, Note_on_c, 0, 73, 80
2, 96188, Note_off_c, 0, 73, 100
2, 96384, Note_on_c, 0, 72, 80
2, 96572, Note_off_c, 0, 72, 100
2, 96768, Note_on_c, 0, 68, 80
2, 96956, Note_off_c, 0, 68, 100
2, 97152, Note_on_c, 0, 72, 80
2, 97340, Note_off_c, 0, 72, 100
2, 97536, Note_on_c, 0, 67, 80
2, 97724, Note_off_c, 0, 67, 100
2, 97920, Note_on_c, 0, 65, 80
2, 98684, Note_off_c, 0, 65, 100
2, 98880, Note_on_c, 0, 72, 81
2, 98880, Note_on_c, 0, 68, 81
2, 98880, Note_on_c, 0, 65, 81
2, 99068, Note_off_c, 0, 72, 100
2, 99068, Note_off_c, 0, 68, 100
2, 99068, Note_off_c, 0, 65, 100
2, 99264, Note_on_c, 0, 72, 83
2, 99264, Note_on_c, 0, 68, 83
2, 99264, Note_on_c, 0, 65, 83
2, 99452, Note_off_c, 0, 72, 100
2, 99452, Note_off_c, 0, 68, 100
2, 99452, Note_off_c, 0, 65, 100
2, 99648, Note_on_c, 0, 72, 86
2, 99648, Note_on_c, 0, 70, 86
2, 99648, Note_on_c, 0, 64, 86
2, 99836, Note_off_c, 0, 72, 100
2, 99836, Note_off_c, 0, 70, 100
2, 99836, Note_off_c, 0, 64, 100
2, 100032, Note_on_c, 0, 72, 89
2, 100032, Note_on_c, 0, 70, 89
2, 100032, Note_on_c, 0, 67, 89
2, 100032, Note_on_c, 0, 64, 89
2, 100220, Note_off_c, 0, 72, 100
2, 100220, Note_off_c, 0, 70, 100
2, 100220, Note_off_c, 0, 67, 100
2, 100220, Note_off_c, 0, 64, 100
2, 100416, Note_on_c, 0, 72, 91
2, 100416, Note_on_c, 0, 67, 91
2, 100416, Note_on_c, 0, 64, 91
2, 100604, Note_off_c, 0, 72, 100
2, 100604, Note_off_c, 0, 67, 100
2, 100604, Note_off_c, 0, 64, 100
2, 100800, Note_on_c, 0, 72, 94
2, 100800, Note_on_c, 0, 67, 94
2, 100800, Note_on_c, 0, 64, 94
2, 100988, Note_off_c, 0, 72, 100
2, 100988, Note_off_c, 0, 67, 100
2, 100988, Note_off_c, 0, 64, 100
2, 101184, Note_on_c, 0, 72, 97
2, 101184, Note_on_c, 0, 68, 97
2, 101184, Note_on_c, 0, 63, 97
2, 101372, Note_off_c, 0, 72, 100
2, 101372, Note_off_c, 0, 68, 100
2, 101372, Note_off_c, 0, 63, 100
2, 101568, Note_on_c, 0, 72, 99
2, 101568, Note_on_c, 0, 70, 99
2, 101568, Note_on_c, 0, 64, 99
2, 101756, Note_off_c, 0, 72, 100
2, 101756, Note_off_c, 0, 70, 100
2, 101756, Note_off_c, 0, 64, 100
2, 101952, Note_on_c, 0, 72, 102
2, 101952, Note_on_c, 0, 68, 102
2, 101952, Note_on_c, 0, 65, 102
2, 102140, Note_off_c, 0, 72, 100
2, 102140, Note_off_c, 0, 68, 100
2, 102140, Note_off_c, 0, 65, 100
2, 102336, Note_on_c, 0, 77, 105
2, 102336, Note_on_c, 0, 72, 105
2, 102336, Note_on_c, 0, 68, 105
2, 102336, Note_on_c, 0, 65, 105
2, 102524, Note_off_c, 0, 77, 100
2, 102524, Note_off_c, 0, 72, 100
2, 102524, Note_off_c, 0, 68, 100
2, 102524, Note_off_c, 0, 65, 100
2, 102720, Note_on_c, 0, 77, 107
2, 102720, Note_on_c, 0, 72, 107
2, 102720, Note_on_c, 0, 70, 107
2, 102720, Note_on_c, 0, 65, 107
2, 102908, Note_off_c, 0, 77, 100
2, 102908, Note_off_c, 0, 72, 100
2, 102908, Note_off_c, 0, 70, 100
2, 102908, Note_off_c, 0, 65, 100
2, 103104, Note_on_c, 0, 76, 110
2, 103104, Note_on_c, 0, 72, 110
2, 103104, Note_on_c, 0, 70, 110
2, 103104, Note_on_c, 0, 64, 110
2, 103292, Note_off_c, 0, 76, 100
2, 103292, Note_off_c, 0, 72, 100
2, 103292, Note_off_c, 0, 70, 100
2, 103292, Note_off_c, 0, 64, 100
2, 103488, Note_on_c, 0, 77, 113
2, 103488, Note_on_c, 0, 72, 113
2, 103488, Note_on_c, 0, 65, 113
2, 103676, Note_off_c, 0, 77, 100
2, 103676, Note_off_c, 0, 72, 100
2, 103676, Note_off_c, 0, 65, 100
2, 103872, Note_on_c, 0, 75, 115
2, 103872, Note_on_c, 0, 72, 115
2, 103872, Note_on_c, 0, 65, 115
2, 104060, Note_off_c, 0, 75, 100
2, 104060, Note_off_c, 0, 72, 100
2, 104060, Note_off_c, 0, 65, 100
2, 104256, Note_on_c, 0, 73, 118
2, 104256, Note_on_c, 0, 70, 118
2, 104256, Note_on_c, 0, 65, 118
2, 104444, Note_off_c, 0, 73, 100
2, 104444, Note_off_c, 0, 70, 100
2, 104444, Note_off_c, 0, 65, 100
2, 104640, Note_on_c, 0, 72, 120
2, 104640, Note_on_c, 0, 69, 120
2, 104640, Note_on_c, 0, 63, 120
2, 104828, Note_off_c, 0, 72, 100
2, 104828, Note_off_c, 0, 69, 100
2, 104828, Note_off_c, 0, 63, 100
2, 104832, Note_on_c, 0, 82, 120
2, 104832, Note_on_c, 0, 77, 120
2, 104832, Note_on_c, 0, 70, 120
2, 105020, Note_off_c, 0, 82, 100
2, 105020, Note_off_c, 0, 77, 100
2, 105020, Note_off_c, 0, 70, 100
2, 105216, Note_on_c, 0, 85, 120
2, 105216, Note_on_c, 0, 82, 120
2, 105216, Note_on_c, 0, 77, 120
2, 105216, Note_on_c, 0, 73, 120
2, 105404, Note_off_c, 0, 85, 100
2, 105404, Note_off_c, 0, 82, 100
2, 105404, Note_off_c, 0, 77, 100
2, 105404, Note_off_c, 0, 73, 100
2, 105600, Note_on_c, 0, 84, 120
2, 105600, Note_on_c, 0, 81, 120
2, 105600, Note_on_c, 0, 77, 120
2, 105600, Note_on_c, 0, 72, 120
2, 105788, Note_off_c, 0, 84, 100
2, 105788, Note_off_c, 0, 81, 100
2, 105788, Note_off_c, 0, 77, 100
2, 105788, Note_off_c, 0, 72, 100
2, 105984, Note_on_c, 0, 77, 120
2, 105984, Note_on_c, 0, 72, 120
2, 105984, Note_on_c, 0, 69, 120
2, 105984, Note_on_c, 0, 65, 120
2, 106172, Note_off_c, 0, 77, 100
2, 106172, Note_off_c, 0, 72, 100
2, 106172, Note_off_c, 0, 69, 100
2, 106172, Note_off_c, 0, 65, 100
2, 106368, Note_on_c, 0, 89, 120
2, 106368, Note_on_c, 0, 82, 120
2, 106368, Note_on_c, 0, 77, 120
2, 106556, Note_off_c, 0, 89, 100
2, 106556, Note_off_c, 0, 82, 100
2, 106556, Note_off_c, 0, 77, 100
2, 106752, Note_on_c, 0, 87, 120
2, 106752, Note_on_c, 0, 81, 120
2, 106752, Note_on_c, 0, 77, 120
2, 106752, Note_on_c, 0, 75, 120
2, 106940, Note_off_c, 0, 87, 100
2, 106940, Note_off_c, 0, 81, 100
2, 106940, Note_off_c, 0, 77, 100
2, 106940, Note_off_c, 0, 75, 100
2, 107136, Note_on_c, 0, 85, 120
2, 107136, Note_on_c, 0, 82, 120
2, 107136, Note_on_c, 0, 77, 120
2, 107136, Note_on_c, 0, 73, 120
2, 107324, Note_off_c, 0, 85, 100
2, 107324, Note_off_c, 0, 82, 100
2, 107324, Note_off_c, 0, 77, 100
2, 107324, Note_off_c, 0, 73, 100
2, 107520, Note_on_c, 0, 84, 120
2, 107520, Note_on_c, 0, 77, 120
2, 107520, Note_on_c, 0, 72, 120
2, 107708, Note_off_c, 0, 84, 100
2, 107708, Note_off_c, 0, 77, 100
2, 107708, Note_off_c, 0, 72, 100
2, 107904, Note_on_c, 0, 82, 120
2, 107904, Note_on_c, 0, 77, 120
2, 107904, Note_on_c, 0, 73, 120
2, 107904, Note_on_c, 0, 70, 120
2, 108092, Note_off_c, 0, 82, 100
2, 108092, Note_off_c, 0, 77, 100
2, 108092, Note_off_c, 0, 73, 100
2, 108092, Note_off_c, 0, 70, 100
2, 108288, Note_on_c, 0, 85, 120
2, 108288, Note_on_c, 0, 82, 120
2, 108288, Note_on_c, 0, 77, 120
2, 108288, Note_on_c, 0, 73, 120
2, 108476, Note_off_c, 0, 85, 100
2, 108476, Note_off_c, 0, 82, 100
2, 108476, Note_off_c, 0, 77, 100
2, 108476, Note_off_c, 0, 73, 100
2, 108672, Note_on_c, 0, 84, 120
2, 108672, Note_on_c, 0, 77, 120
2, 108672, Note_on_c, 0, 72, 120
2, 108860, Note_off_c, 0, 84, 100
2, 108860, Note_off_c, 0, 77, 100
2, 108860, Note_off_c, 0, 72, 100
2, 109056, Note_on_c, 0, 77, 120
2, 109056, Note_on_c, 0, 72, 120
2, 109056, Note_on_c, 0, 69, 120
2, 109056, Note_on_c, 0, 65, 120
2, 109244, Note_off_c, 0, 77, 100
2, 109244, Note_off_c, 0, 72, 100
2, 109244, Note_off_c, 0, 69, 100
2, 109244, Note_off_c, 0, 65, 100
2, 109440, Note_on_c, 0, 89, 120
2, 109440, Note_on_c, 0, 77, 120
2, 109628, Note_off_c, 0, 89, 100
2, 109628, Note_off_c, 0, 77, 100
2, 109824, Note_on_c, 0, 85, 120
2, 109824, Note_on_c, 0, 82, 120
2, 109824, Note_on_c, 0, 73, 120
2, 110012, Note_off_c, 0, 85, 100
2, 110012, Note_off_c, 0, 82, 100
2, 110012, Note_off_c, 0, 73, 100
2, 110208, Note_on_c, 0, 84, 120
2, 110208, Note_on_c, 0, 81, 120
2, 110208, Note_on_c, 0, 72, 120
2, 110972, Note_off_c, 0, 84, 100
2, 110972, Note_off_c, 0, 81, 100
2, 110972, Note_off_c, 0, 72, 100
2, 110976, Note_on_c, 0, 89, 120
2, 110976, Note_on_c, 0, 77, 120
2, 111164, Note_off_c, 0, 89, 100
2, 111164, Note_off_c, 0, 77, 100
2, 111360, Note_on_c, 0, 85, 120
2, 111360, Note_on_c, 0, 82, 120
2, 111548, Note_off_c, 0, 85, 100
2, 111548, Note_off_c, 0, 82, 100
2, 111744, Note_on_c, 0, 84, 120
2, 111744, Note_on_c, 0, 81, 120
2, 112508, Note_off_c, 0, 84, 100
2, 112508, Note_off_c, 0, 81, 100
2, 112512, Key_signature, -2, "major"
2, 112512, Note_on_c, 0, 72, 120
2, 112512, Note_on_c, 0, 69, 120
2, 113276, Note_off_c, 0, 72, 100
2, 113276, Note_off_c, 0, 69, 100
2, 113280, Note_on_c, 0, 60, 120
2, 113280, Note_on_c, 0, 57, 120
2, 114044, Note_off_c, 0, 60, 100
2, 114044, Note_off_c, 0, 57, 100
2, 114048, Note_on_c, 0, 48, 120
2, 114048, Note_on_c, 0, 45, 120
2, 114812, Note_off_c, 0, 48, 100
2, 114812, Note_off_c, 0, 45, 100
2, 114816, Note_on_c, 0, 36, 120
2, 114816, Note_on_c, 0, 33, 120
2, 117116, Note_off_c, 0, 33, 100
2, 117116, Note_off_c, 0, 36, 100
2, 117888, Note_on_c, 0, 41, 120
2, 118016, Note_on_c, 0, 43, 120
2, 118140, Note_off_c, 0, 41, 100
2, 118144, Note_on_c, 0, 45, 120
2, 118268, Note_off_c, 0, 43, 100
2, 118272, Note_on_c, 0, 46, 120
2, 118368, Note_on_c, 0, 48, 120
2, 118396, Note_off_c, 0, 45, 100
2, 118460, Note_off_c, 0, 46, 100
2, 118464, Note_on_c, 0, 50, 120
2, 118556, Note_off_c, 0, 48, 100
2, 118560, Note_on_c, 0, 52, 120
2, 118652, Note_off_c, 0, 50, 100
2, 118748, Note_off_c, 0, 52, 100
2, 119424, Note_on_c, 0, 65, 120
2, 119552, Note_on_c, 0, 67, 120
2, 119676, Note_off_c, 0, 65, 100
2, 119680, Note_on_c, 0, 69, 120
2, 119804, Note_off_c, 0, 67, 100
2, 119808, Note_on_c, 0, 70, 120
2, 119904, Note_on_c, 0, 72, 120
2, 119932, Note_off_c, 0, 69, 100
2, 119996, Note_off_c, 0, 70, 100
2, 120000, Note_on_c, 0, 74, 120
2, 120092, Note_off_c, 0, 72, 100
2, 120096, Note_on_c, 0, 76, 120
2, 120188, Note_off_c, 0, 74, 100
2, 120284, Note_off_c, 0, 76, 100
2, 120960, Note_on_c, 0, 89, 120
2, 121088, Note_on_c, 0, 91, 120
2, 121212, Note_off_c, 0, 89, 100
2, 121216, Note_on_c, 0, 93, 120
2, 121340, Note_off_c, 0, 91, 100
2, 121344, Note_on_c, 0, 94, 120
2, 121440, Note_on_c, 0, 96, 120
2, 121468, Note_off_c, 0, 93, 100
2, 121532, Note_off_c, 0, 94, 100
2, 121536, Note_on_c, 0, 98, 120
2, 121628, Note_off_c, 0, 96, 100
2, 121632, Note_on_c, 0, 100, 120
2, 121724, Note_off_c, 0, 98, 100
2, 121724, Note_off_c, 0, 100, 100
2, 121728, Note_on_c, 0, 101, 120
2, 121916, Note_off_c, 0, 101, 100
2, 122496, Control_c, 0, 64, 127
2, 122496, Note_on_c, 0, 78, 120
2, 122496, Note_on_c, 0, 75, 120
2, 122592, Note_on_c, 0, 69, 120
2, 122676, Note_off_c, 0, 78, 100
2, 122676, Note_off_c, 0, 75, 100
2, 122688, Note_on_c, 0, 78, 120
2, 122688, Note_on_c, 0, 75, 120
2, 122772, Note_off_c, 0, 69, 100
2, 122784, Note_on_c, 0, 69, 120
2, 122868, Note_off_c, 0, 78, 100
2, 122868, Note_off_c, 0, 75, 100
2, 122880, Note_on_c, 0, 78, 120
2, 122880, Note_on_c, 0, 75, 120
2, 122964, Note_off_c, 0, 69, 100
2, 122976, Note_on_c, 0, 69, 120
2, 123060, Note_off_c, 0, 78, 100
2, 123060, Note_off_c, 0, 75, 100
2, 123072, Note_on_c, 0, 78, 120
2, 123072, Note_on_c, 0, 75, 120
2, 123156, Note_off_c, 0, 69, 100
2, 123168, Note_on_c, 0, 69, 120
2, 123252, Note_off_c, 0, 78, 100
2, 123252, Note_off_c, 0, 75, 100
2, 123264, Note_on_c, 0, 78, 120
2, 123264, Note_on_c, 0, 75, 120
2, 123348, Note_off_c, 0, 69, 100
2, 123360, Note_on_c, 0, 69, 120
2, 123444, Note_off_c, 0, 78, 100
2, 123444, Note_off_c, 0, 75, 100
2, 123456, Note_on_c, 0, 75, 120
2, 123456, Note_on_c, 0, 78, 120
2, 123540, Note_off_c, 0, 69, 100
2, 123552, Note_on_c, 0, 69, 120
2, 124124, Note_off_c, 0, 69, 100
2, 124124, Note_off_c, 0, 75, 100
2, 124124, Note_off_c, 0, 78, 100
2, 124408, Control_c, 0, 64, 0
2, 124800, Note_on_c, 0, 74, 80
2, 125084, Note_off_c, 0, 74, 100
2, 125088, Note_on_c, 0, 77, 80
2, 125088, Note_on_c, 0, 69, 80
2, 125180, Note_off_c, 0, 77, 100
2, 125180, Note_off_c, 0, 69, 100
2, 125184, Note_on_c, 0, 77, 80
2, 125184, Note_on_c, 0, 69, 80
2, 125564, Note_off_c, 0, 77, 100
2, 125564, Note_off_c, 0, 69, 100
2, 125568, Note_on_c, 0, 74, 80
2, 125568, Note_on_c, 0, 65, 80
2, 125756, Note_off_c, 0, 74, 100
2, 125756, Note_off_c, 0, 65, 100
2, 125952, Note_on_c, 0, 70, 80
2, 126236, Note_off_c, 0, 70, 100
2, 126240, Note_on_c, 0, 74, 80
2, 126240, Note_on_c, 0, 66, 80
2, 126332, Note_off_c, 0, 74, 100
2, 126332, Note_off_c, 0, 66, 100
2, 126336, Note_on_c, 0, 74, 80
2, 126336, Note_on_c, 0, 69, 80
2, 126716, Note_off_c, 0, 74, 100
2, 126716, Note_off_c, 0, 69, 100
2, 126720, Note_on_c, 0, 70, 80
2, 126720, Note_on_c, 0, 62, 80
2, 126908, Note_off_c, 0, 70, 100
2, 126908, Note_off_c, 0, 62, 100
2, 127128, Note_on_c, 0, 67, 80
2, 127392, Note_on_c, 0, 70, 80
2, 127392, Note_on_c, 0, 62, 80
2, 127412, Note_off_c, 0, 67, 100
2, 127484, Note_off_c, 0, 70, 100
2, 127484, Note_off_c, 0, 62, 100
2, 127488, Note_on_c, 0, 70, 80
2, 127488, Note_on_c, 0, 65, 80
2, 127868, Note_off_c, 0, 70, 100
2, 127868, Note_off_c, 0, 65, 100
2, 127872, Note_on_c, 0, 67, 80
2, 127872, Note_on_c, 0, 58, 80
2, 128060, Note_off_c, 0, 67, 100
2, 128060, Note_off_c, 0, 58, 100
2, 128256, Note_on_c, 0, 58, 80
2, 128256, Note_on_c, 0, 67, 80
2, 128540, Note_off_c, 0, 58, 100
2, 128540, Note_off_c, 0, 67, 100
2, 128544, Note_on_c, 0, 69, 80
2, 128544, Note_on_c, 0, 63, 80
2, 128636, Note_off_c, 0, 69, 100
2, 128636, Note_off_c, 0, 63, 100
2, 128640, Note_on_c, 0, 69, 80
2, 128640, Note_on_c, 0, 63, 80
2, 129020, Note_off_c, 0, 69, 100
2, 129020, Note_off_c, 0, 63, 100
2, 129024, Note_on_c, 0, 70, 80
2, 129024, Note_on_c, 0, 58, 80
2, 129212, Note_off_c, 0, 70, 100
2, 129212, Note_off_c, 0, 58, 100
2, 129408, Note_on_c, 0, 70, 80
2, 129408, Note_on_c, 0, 65, 80
2, 129692, Note_off_c, 0, 70, 100
2, 129696, Note_on_c, 0, 72, 80
2, 129788, Note_off_c, 0, 65, 100
2, 129788, Note_off_c, 0, 72, 100
2, 129792, Note_on_c, 0, 72, 80
2, 129792, Note_on_c, 0, 65, 80
2, 130172, Note_off_c, 0, 72, 100
2, 130172, Note_off_c, 0, 65, 100
2, 130176, Note_on_c, 0, 74, 80
2, 130176, Note_on_c, 0, 70, 80
2, 130176, Note_on_c, 0, 65, 80
2, 130364, Note_off_c, 0, 74, 100
2, 130364, Note_off_c, 0, 70, 100
2, 130364, Note_off_c, 0, 65, 100
2, 130560, Note_on_c, 0, 70, 80
2, 130560, Note_on_c, 0, 74, 80
2, 130844, Note_off_c, 0, 74, 100
2, 130848, Note_on_c, 0, 75, 91
2, 130940, Note_off_c, 0, 70, 100
2, 130940, Note_off_c, 0, 75, 100
2, 130944, Note_on_c, 0, 75, 95
2, 130944, Note_on_c, 0, 70, 95
2, 131324, Note_off_c, 0, 75, 100
2, 131324, Note_off_c, 0, 70, 100
2, 131328, Note_on_c, 0, 77, 110
2, 131328, Note_on_c, 0, 73, 110
2, 131328, Note_on_c, 0, 70, 110
2, 131328, Note_on_c, 0, 65, 110
2, 131516, Note_off_c, 0, 77, 100
2, 131516, Note_off_c, 0, 73, 100
2, 131516, Note_off_c, 0, 70, 100
2, 131516, Note_off_c, 0, 65, 100
2, 131712, Note_on_c, 0, 79, 110
2, 131712, Note_on_c, 0, 72, 110
2, 131712, Note_on_c, 0, 70, 110
2, 131712, Note_on_c, 0, 67, 110
2, 131900, Note_off_c, 0, 79, 100
2, 131900, Note_off_c, 0, 72, 100
2, 131900, Note_off_c, 0, 70, 100
2, 131900, Note_off_c, 0, 67, 100
2, 132096, Note_on_c, 0, 72, 110
2, 132096, Note_on_c, 0, 69, 110
2, 132096, Note_on_c, 0, 60, 110
2, 132284, Note_off_c, 0, 72, 100
2, 132284, Note_off_c, 0, 69, 100
2, 132284, Note_off_c, 0, 60, 100
2, 132864, Note_on_c, 0, 86, 80
2, 133148, Note_off_c, 0, 86, 100
2, 133152, Note_on_c, 0, 89, 80
2, 133152, Note_on_c, 0, 81, 80
2, 133244, Note_off_c, 0, 89, 100
2, 133244, Note_off_c, 0, 81, 100
2, 133248, Note_on_c, 0, 89, 80
2, 133424, Note_on_c, 0, 77, 80
2, 133628, Note_off_c, 0, 89, 100
2, 133632, Note_on_c, 0, 86, 80
2, 133804, Note_off_c, 0, 77, 100
2, 133820, Note_off_c, 0, 86, 100
2, 134016, Note_on_c, 0, 82, 80
2, 134300, Note_off_c, 0, 82, 100
2, 134304, Note_on_c, 0, 86, 80
2, 134304, Note_on_c, 0, 78, 80
2, 134396, Note_off_c, 0, 86, 100
2, 134396, Note_off_c, 0, 78, 100
2, 134400, Note_on_c, 0, 86, 80
2, 134592, Note_on_c, 0, 74, 80
2, 134780, Note_off_c, 0, 86, 100
2, 134784, Note_on_c, 0, 82, 80
2, 134972, Note_off_c, 0, 74, 100
2, 134972, Note_off_c, 0, 82, 100
2, 135192, Note_on_c, 0, 79, 80
2, 135456, Note_on_c, 0, 82, 80
2, 135456, Note_on_c, 0, 74, 80
2, 135476, Note_off_c, 0, 79, 100
2, 135548, Note_off_c, 0, 82, 100
2, 135548, Note_off_c, 0, 74, 100
2, 135552, Note_on_c, 0, 82, 80
2, 135728, Note_on_c, 0, 70, 80
2, 135932, Note_off_c, 0, 82, 100
2, 135936, Note_on_c, 0, 79, 80
2, 136108, Note_off_c, 0, 70, 100
2, 136124, Note_off_c, 0, 79, 100
2, 136320, Note_on_c, 0, 70, 80
2, 136320, Note_on_c, 0, 79, 80
2, 136604, Note_off_c, 0, 70, 100
2, 136604, Note_off_c, 0, 79, 100
2, 136608, Note_on_c, 0, 81, 80
2, 136608, Note_on_c, 0, 75, 80
2, 136700, Note_off_c, 0, 81, 100
2, 136700, Note_off_c, 0, 75, 100
2, 136704, Note_on_c, 0, 81, 80
2, 136896, Note_on_c, 0, 75, 80
2, 137084, Note_off_c, 0, 81, 100
2, 137084, Note_off_c, 0, 75, 100
2, 137088, Note_on_c, 0, 82, 80
2, 137088, Note_on_c, 0, 70, 80
2, 137276, Note_off_c, 0, 82, 100
2, 137276, Note_off_c, 0, 70, 100
2, 137472, Note_on_c, 0, 82, 80
2, 137472, Note_on_c, 0, 77, 80
2, 137756, Note_off_c, 0, 82, 100
2, 137760, Note_on_c, 0, 84, 84
2, 137852, Note_off_c, 0, 77, 100
2, 137852, Note_off_c, 0, 84, 100
2, 137856, Note_on_c, 0, 84, 86
2, 138032, Note_on_c, 0, 77, 89
2, 138236, Note_off_c, 0, 84, 100
2, 138240, Note_on_c, 0, 86, 92
2, 138412, Note_off_c, 0, 77, 100
2, 138428, Note_off_c, 0, 86, 100
2, 138624, Note_on_c, 0, 82, 98
2, 138624, Note_on_c, 0, 87, 98
2, 138908, Note_off_c, 0, 87, 100
2, 138912, Note_on_c, 0, 88, 103
2, 139004, Note_off_c, 0, 82, 100
2, 139004, Note_off_c, 0, 88, 100
2, 139008, Note_on_c, 0, 88, 104
2, 139200, Note_on_c, 0, 82, 107
2, 139388, Note_off_c, 0, 88, 100
2, 139388, Note_off_c, 0, 82, 100
2, 139392, Note_on_c, 0, 89, 110
2, 139392, Note_on_c, 0, 81, 110
2, 139580, Note_off_c, 0, 89, 100
2, 139580, Note_off_c, 0, 81, 100
2, 139776, Note_on_c, 0, 91, 110
2, 139776, Note_on_c, 0, 88, 110
2, 139776, Note_on_c, 0, 82, 110
2, 139776, Note_on_c, 0, 79, 110
2, 139964, Note_off_c, 0, 91, 100
2, 139964, Note_off_c, 0, 88, 100
2, 139964, Note_off_c, 0, 82, 100
2, 139964, Note_off_c, 0, 79, 100
2, 140160, Note_on_c, 0, 89, 110
2, 140160, Note_on_c, 0, 81, 110
2, 140160, Note_on_c, 0, 77, 110
2, 140348, Note_off_c, 0, 89, 100
2, 140348, Note_off_c, 0, 81, 100
2, 140348, Note_off_c, 0, 77, 100
2, 140928, Note_on_c, 0, 71, 80
2, 140928, Note_on_c, 0, 74, 80
2, 141212, Note_off_c, 0, 71, 100
2, 141212, Note_off_c, 0, 74, 100
2, 141216, Note_on_c, 0, 77, 80
2, 141216, Note_on_c, 0, 74, 80
2, 141308, Note_off_c, 0, 77, 100
2, 141308, Note_off_c, 0, 74, 100
2, 141312, Note_on_c, 0, 77, 80
2, 141312, Note_on_c, 0, 74, 80
2, 141692, Note_off_c, 0, 77, 100
2, 141692, Note_off_c, 0, 74, 100
2, 141696, Note_on_c, 0, 74, 80
2, 141696, Note_on_c, 0, 71, 80
2, 141884, Note_off_c, 0, 74, 100
2, 141884, Note_off_c, 0, 71, 100
2, 142080, Note_on_c, 0, 71, 80
2, 142080, Note_on_c, 0, 74, 80
2, 142364, Note_off_c, 0, 71, 100
2, 142364, Note_off_c, 0, 74, 100
2, 142368, Note_on_c, 0, 79, 80
2, 142368, Note_on_c, 0, 75, 80
2, 142460, Note_off_c, 0, 79, 100
2, 142460, Note_off_c, 0, 75, 100
2, 142464, Note_on_c, 0, 79, 80
2, 142464, Note_on_c, 0, 75, 80
2, 142844, Note_off_c, 0, 79, 100
2, 142844, Note_off_c, 0, 75, 100
2, 142848, Note_on_c, 0, 75, 80
2, 142848, Note_on_c, 0, 72, 80
2, 143036, Note_off_c, 0, 75, 100
2, 143036, Note_off_c, 0, 72, 100
2, 143232, Note_on_c, 0, 69, 80
2, 143232, Note_on_c, 0, 72, 80
2, 143516, Note_off_c, 0, 69, 100
2, 143516, Note_off_c, 0, 72, 100
2, 143520, Note_on_c, 0, 75, 80
2, 143520, Note_on_c, 0, 72, 80
2, 143612, Note_off_c, 0, 75, 100
2, 143612, Note_off_c, 0, 72, 100
2, 143616, Note_on_c, 0, 75, 80
2, 143616, Note_on_c, 0, 72, 80
2, 143996, Note_off_c, 0, 75, 100
2, 143996, Note_off_c, 0, 72, 100
2, 144000, Note_on_c, 0, 72, 80
2, 144000, Note_on_c, 0, 69, 80
2, 144188, Note_off_c, 0, 72, 100
2, 144188, Note_off_c, 0, 69, 100
2, 144384, Note_on_c, 0, 72, 80
2, 144384, Note_on_c, 0, 69, 80
2, 144668, Note_off_c, 0, 72, 100
2, 144668, Note_off_c, 0, 69, 100
2, 144672, Note_on_c, 0, 77, 80
2, 144672, Note_on_c, 0, 73, 80
2, 144764, Note_off_c, 0, 77, 100
2, 144764, Note_off_c, 0, 73, 100
2, 144768, Note_on_c, 0, 77, 80
2, 144768, Note_on_c, 0, 74, 80
2, 145148, Note_off_c, 0, 77, 100
2, 145148, Note_off_c, 0, 74, 100
2, 145152, Note_on_c, 0, 74, 80
2, 145152, Note_on_c, 0, 70, 80
2, 145340, Note_off_c, 0, 74, 100
2, 145340, Note_off_c, 0, 70, 100
2, 145536, Note_on_c, 0, 60, 80
2, 145536, Note_on_c, 0, 57, 80
2, 145820, Note_off_c, 0, 60, 100
2, 145820, Note_off_c, 0, 57, 100
2, 145824, Note_on_c, 0, 63, 80
2, 145824, Note_on_c, 0, 60, 80
2, 145916, Note_off_c, 0, 63, 100
2, 145916, Note_off_c, 0, 60, 100
2, 145920, Note_on_c, 0, 63, 80
2, 145920, Note_on_c, 0, 60, 80
2, 146684, Note_off_c, 0, 63, 100
2, 146684, Note_off_c, 0, 60, 100
2, 146688, Note_on_c, 0, 62, 80
2, 146688, Note_on_c, 0, 58, 80
2, 147068, Note_off_c, 0, 62, 100
2, 147068, Note_off_c, 0, 58, 100
2, 147072, Note_on_c, 0, 60, 79
2, 147072, Note_on_c, 0, 57, 79
2, 147452, Note_off_c, 0, 60, 100
2, 147452, Note_off_c, 0, 57, 100
2, 147456, Note_on_c, 0, 58, 77
2, 147456, Note_on_c, 0, 55, 77
2, 147836, Note_off_c, 0, 58, 100
2, 147836, Note_off_c, 0, 55, 100
2, 147840, Note_on_c, 0, 57, 75
2, 147840, Note_on_c, 0, 53, 75
2, 148604, Note_off_c, 0, 53, 100
2, 148604, Note_off_c, 0, 57, 100
2, 148608, Note_on_c, 0, 55, 71
2, 148608, Note_on_c, 0, 52, 71
2, 148988, Note_off_c, 0, 55, 100
2, 148988, Note_off_c, 0, 52, 100
2, 148992, Note_on_c, 0, 60, 70
2, 148992, Note_on_c, 0, 51, 70
2, 148992, Note_on_c, 0, 55, 70
2, 149756, Note_off_c, 0, 51, 100
2, 149756, Note_off_c, 0, 60, 100
2, 149760, Note_on_c, 0, 59, 70
2, 149760, Note_on_c, 0, 50, 70
2, 150140, Note_off_c, 0, 55, 100
2, 150140, Note_off_c, 0, 59, 100
2, 150140, Note_off_c, 0, 50, 100
2, 151296, Note_on_c, 0, 59, 70
2, 151580, Note_off_c, 0, 59, 100
2, 151584, Note_on_c, 0, 62, 70
2, 151676, Note_off_c, 0, 62, 100
2, 151680, Note_on_c, 0, 62, 70
2, 152060, Note_off_c, 0, 62, 100
2, 152064, Note_on_c, 0, 59, 70
2, 152252, Note_off_c, 0, 59, 100
2, 152448, Note_on_c, 0, 62, 70
2, 152448, Note_on_c, 0, 71, 70
2, 152732, Note_off_c, 0, 71, 100
2, 152736, Note_on_c, 0, 74, 70
2, 152828, Note_off_c, 0, 74, 100
2, 152832, Note_on_c, 0, 74, 70
2, 153212, Note_off_c, 0, 74, 100
2, 153216, Note_on_c, 0, 71, 70
2, 153404, Note_off_c, 0, 62, 100
2, 153404, Note_off_c, 0, 71, 100
2, 153600, Control_c, 0, 64, 127
2, 153600, Note_on_c, 0, 84, 70
2, 153884, Note_off_c, 0, 84, 100
2, 153888, Note_on_c, 0, 87, 70
2, 153980, Note_off_c, 0, 87, 100
2, 153984, Note_on_c, 0, 87, 70
2, 154364, Note_off_c, 0, 87, 100
2, 154368, Note_on_c, 0, 84, 70
2, 154556, Note_off_c, 0, 84, 100
2, 154744, Control_c, 0, 64, 0
2, 154752, Note_on_c, 0, 71, 70
2, 154752, Note_on_c, 0, 62, 70
2, 155036, Note_off_c, 0, 71, 100
2, 155036, Note_off_c, 0, 62, 100
2, 155040, Note_on_c, 0, 74, 76
2, 155040, Note_on_c, 0, 65, 76
2, 155132, Note_off_c, 0, 74, 100
2, 155132, Note_off_c, 0, 65, 100
2, 155136, Note_on_c, 0, 74, 78
2, 155136, Note_on_c, 0, 65, 78
2, 155516, Note_off_c, 0, 74, 100
2, 155516, Note_off_c, 0, 65, 100
2, 155520, Note_on_c, 0, 71, 86
2, 155520, Note_on_c, 0, 62, 86
2, 155708, Note_off_c, 0, 71, 100
2, 155708, Note_off_c, 0, 62, 100
2, 155904, Note_on_c, 0, 62, 94
2, 155904, Note_on_c, 0, 71, 94
2, 156188, Note_off_c, 0, 62, 100
2, 156188, Note_off_c, 0, 71, 100
2, 156192, Note_on_c, 0, 75, 100
2, 156192, Note_on_c, 0, 67, 100
2, 156284, Note_off_c, 0, 75, 100
2, 156284, Note_off_c, 0, 67, 100
2, 156288, Note_on_c, 0, 75, 102
2, 156288, Note_on_c, 0, 67, 102
2, 156668, Note_off_c, 0, 75, 100
2, 156668, Note_off_c, 0, 67, 100
2, 156672, Note_on_c, 0, 72, 110
2, 156672, Note_on_c, 0, 63, 110
2, 156860, Note_off_c, 0, 72, 100
2, 156860, Note_off_c, 0, 63, 100
2, 157056, Note_on_c, 0, 69, 110
2, 157056, Note_on_c, 0, 72, 110
2, 157340, Note_off_c, 0, 69, 100
2, 157340, Note_off_c, 0, 72, 100
2, 157344, Note_on_c, 0, 81, 110
2, 157344, Note_on_c, 0, 72, 110
2, 157436, Note_off_c, 0, 81, 100
2, 157436, Note_off_c, 0, 72, 100
2, 157440, Note_on_c, 0, 81, 110
2, 157440, Note_on_c, 0, 72, 110
2, 157820, Note_off_c, 0, 81, 100
2, 157820, Note_off_c, 0, 72, 100
2, 157824, Note_on_c, 0, 77, 110
2, 157824, Note_on_c, 0, 69, 110
2, 158012, Note_off_c, 0, 77, 100
2, 158012, Note_off_c, 0, 69, 100
2, 158208, Note_on_c, 0, 82, 110
2, 158208, Note_on_c, 0, 70, 110
2, 158396, Note_off_c, 0, 82, 100
2, 158396, Note_off_c, 0, 70, 100
2, 158592, Note_on_c, 0, 82, 110
2, 158592, Note_on_c, 0, 70, 110
2, 158780, Note_off_c, 0, 82, 100
2, 158780, Note_off_c, 0, 70, 100
2, 159360, Note_on_c, 0, 83, 80
2, 159360, Note_on_c, 0, 86, 80
2, 159644, Note_off_c, 0, 83, 100
2, 159644, Note_off_c, 0, 86, 100
2, 159648, Note_on_c, 0, 89, 80
2, 159648, Note_on_c, 0, 86, 80
2, 159740, Note_off_c, 0, 89, 100
2, 159740, Note_off_c, 0, 86, 100
2, 159744, Note_on_c, 0, 89, 80
2, 159744, Note_on_c, 0, 86, 80
2, 160124, Note_off_c, 0, 89, 100
2, 160124, Note_off_c, 0, 86, 100
2, 160128, Note_on_c, 0, 86, 80
2, 160128, Note_on_c, 0, 83, 80
2, 160316, Note_off_c, 0, 86, 100
2, 160316, Note_off_c, 0, 83, 100
2, 160512, Note_on_c, 0, 83, 80
2, 160512, Note_on_c, 0, 86, 80
2, 160796, Note_off_c, 0, 83, 100
2, 160796, Note_off_c, 0, 86, 100
2, 160800, Note_on_c, 0, 91, 80
2, 160800, Note_on_c, 0, 87, 80
2, 160892, Note_off_c, 0, 91, 100
2, 160892, Note_off_c, 0, 87, 100
2, 160896, Note_on_c, 0, 91, 80
2, 160896, Note_on_c, 0, 87, 80
2, 161276, Note_off_c, 0, 91, 100
2, 161276, Note_off_c, 0, 87, 100
2, 161280, Note_on_c, 0, 87, 80
2, 161280, Note_on_c, 0, 84, 80
2, 161468, Note_off_c, 0, 87, 100
2, 161468, Note_off_c, 0, 84, 100
2, 161664, Note_on_c, 0, 81, 80
2, 161664, Note_on_c, 0, 84, 80
2, 161948, Note_off_c, 0, 81, 100
2, 161948, Note_off_c, 0, 84, 100
2, 161952, Note_on_c, 0, 87, 80
2, 161952, Note_on_c, 0, 84, 80
2, 162044, Note_off_c, 0, 87, 100
2, 162044, Note_off_c, 0, 84, 100
2, 162048, Note_on_c, 0, 87, 80
2, 162048, Note_on_c, 0, 84, 80
2, 162428, Note_off_c, 0, 87, 100
2, 162428, Note_off_c, 0, 84, 100
2, 162432, Note_on_c, 0, 84, 80
2, 162432, Note_on_c, 0, 81, 80
2, 162620, Note_off_c, 0, 84, 100
2, 162620, Note_off_c, 0, 81, 100
2, 162816, Note_on_c, 0, 84, 80
2, 162816, Note_on_c, 0, 81, 80
2, 163100, Note_off_c, 0, 84, 100
2, 163100, Note_off_c, 0, 81, 100
2, 163104, Note_on_c, 0, 89, 80
2, 163104, Note_on_c, 0, 85, 80
2, 163196, Note_off_c, 0, 89, 100
2, 163196, Note_off_c, 0, 85, 100
2, 163200, Note_on_c, 0, 89, 80
2, 163200, Note_on_c, 0, 86, 80
2, 163580, Note_off_c, 0, 89, 100
2, 163580, Note_off_c, 0, 86, 100
2, 163584, Note_on_c, 0, 86, 80
2, 163584, Note_on_c, 0, 82, 80
2, 163772, Note_off_c, 0, 86, 100
2, 163772, Note_off_c, 0, 82, 100
2, 163968, Note_on_c, 0, 72, 80
2, 163968, Note_on_c, 0, 69, 80
2, 164252, Note_off_c, 0, 72, 100
2, 164252, Note_off_c, 0, 69, 100
2, 164256, Note_on_c, 0, 75, 80
2, 164256, Note_on_c, 0, 72, 80
2, 164348, Note_off_c, 0, 75, 100
2, 164348, Note_off_c, 0, 72, 100
2, 164352, Note_on_c, 0, 75, 80
2, 164352, Note_on_c, 0, 72, 80
2, 165116, Note_off_c, 0, 75, 100
2, 165116, Note_off_c, 0, 72, 100
2, 165120, Note_on_c, 0, 74, 80
2, 165120, Note_on_c, 0, 70, 80
2, 165500, Note_off_c, 0, 74, 100
2, 165500, Note_off_c, 0, 70, 100
2, 165504, Note_on_c, 0, 72, 79
2, 165504, Note_on_c, 0, 69, 79
2, 165884, Note_off_c, 0, 72, 100
2, 165884, Note_off_c, 0, 69, 100
2, 165888, Note_on_c, 0, 70, 77
2, 165888, Note_on_c, 0, 67, 77
2, 166268, Note_off_c, 0, 70, 100
2, 166268, Note_off_c, 0, 67, 100
2, 166272, Note_on_c, 0, 69, 75
2, 166272, Note_on_c, 0, 65, 75
2, 167036, Note_off_c, 0, 65, 100
2, 167036, Note_off_c, 0, 69, 100
2, 167040, Note_on_c, 0, 67, 71
2, 167040, Note_on_c, 0, 64, 71
2, 167420, Note_off_c, 0, 67, 100
2, 167420, Note_off_c, 0, 64, 100
2, 167424, Note_on_c, 0, 72, 70
2, 167424, Note_on_c, 0, 63, 70
2, 167424, Note_on_c, 0, 67, 70
2, 168188, Note_off_c, 0, 63, 100
2, 168188, Note_off_c, 0, 72, 100
2, 168192, Note_on_c, 0, 71, 70
2, 168192, Note_on_c, 0, 62, 70
2, 168572, Note_off_c, 0, 67, 100
2, 168572, Note_off_c, 0, 71, 100
2, 168572, Note_off_c, 0, 62, 100
2, 169728, Note_on_c, 0, 71, 70
2, 170012, Note_off_c, 0, 71, 100
2, 170016, Note_on_c, 0, 74, 70
2, 170108, Note_off_c, 0, 74, 100
2, 170112, Note_on_c, 0, 74, 70
2, 170492, Note_off_c, 0, 74, 100
2, 170496, Note_on_c, 0, 71, 70
2, 170684, Note_off_c, 0, 71, 100
2, 170880, Note_on_c, 0, 50, 70
2, 170880, Note_on_c, 0, 59, 70
2, 171164, Note_off_c, 0, 59, 100
2, 171168, Note_on_c, 0, 62, 70
2, 171260, Note_off_c, 0, 62, 100
2, 171264, Note_on_c, 0, 62, 70
2, 171644, Note_off_c, 0, 62, 100
2, 171648, Note_on_c, 0, 59, 70
2, 171836, Note_off_c, 0, 50, 100
2, 171836, Note_off_c, 0, 59, 100
2, 172032, Control_c, 0, 64, 127
2, 172032, Note_on_c, 0, 84, 70
2, 172316, Note_off_c, 0, 84, 100
2, 172320, Note_on_c, 0, 87, 70
2, 172412, Note_off_c, 0, 87, 100
2, 172416, Note_on_c, 0, 87, 70
2, 172796, Note_off_c, 0, 87, 100
2, 172800, Note_on_c, 0, 84, 70
2, 172988, Note_off_c, 0, 84, 100
2, 173176, Control_c, 0, 64, 0
2, 173184, Note_on_c, 0, 83, 70
2, 173184, Note_on_c, 0, 74, 70
2, 173468, Note_off_c, 0, 83, 100
2, 173468, Note_off_c, 0, 74, 100
2, 173472, Note_on_c, 0, 86, 76
2, 173472, Note_on_c, 0, 77, 76
2, 173564, Note_off_c, 0, 86, 100
2, 173564, Note_off_c, 0, 77, 100
2, 173568, Note_on_c, 0, 86, 78
2, 173568, Note_on_c, 0, 77, 78
2, 173948, Note_off_c, 0, 86, 100
2, 173948, Note_off_c, 0, 77, 100
2, 173952, Note_on_c, 0, 83, 86
2, 173952, Note_on_c, 0, 74, 86
2, 174140, Note_off_c, 0, 83, 100
2, 174140, Note_off_c, 0, 74, 100
2, 174336, Note_on_c, 0, 74, 94
2, 174336, Note_on_c, 0, 83, 94
2, 174620, Note_off_c, 0, 74, 100
2, 174620, Note_off_c, 0, 83, 100
2, 174624, Note_on_c, 0, 87, 100
2, 174624, Note_on_c, 0, 79, 100
2, 174716, Note_off_c, 0, 87, 100
2, 174716, Note_off_c, 0, 79, 100
2, 174720, Note_on_c, 0, 87, 102
2, 174720, Note_on_c, 0, 79, 102
2, 175100, Note_off_c, 0, 87, 100
2, 175100, Note_off_c, 0, 79, 100
2, 175104, Note_on_c, 0, 84, 110
2, 175104, Note_on_c, 0, 75, 110
2, 175292, Note_off_c, 0, 84, 100
2, 175292, Note_off_c, 0, 75, 100
2, 175488, Note_on_c, 0, 81, 110
2, 175488, Note_on_c, 0, 84, 110
2, 175772, Note_off_c, 0, 81, 100
2, 175772, Note_off_c, 0, 84, 100
2, 175776, Note_on_c, 0, 93, 110
2, 175776, Note_on_c, 0, 84, 110
2, 175868, Note_off_c, 0, 93, 100
2, 175868, Note_off_c, 0, 84, 100
2, 175872, Note_on_c, 0, 93, 110
2, 175872, Note_on_c, 0, 84, 110
2, 176252, Note_off_c, 0, 93, 100
2, 176252, Note_off_c, 0, 84, 100
2, 176256, Note_on_c, 0, 89, 110
2, 176256, Note_on_c, 0, 81, 110
2, 176444, Note_off_c, 0, 89, 100
2, 176444, Note_off_c, 0, 81, 100
2, 176640, Note_on_c, 0, 94, 110
2, 176640, Note_on_c, 0, 82, 110
2, 176828, Note_off_c, 0, 94, 100
2, 176828, Note_off_c, 0, 82, 100
2, 177024, Note_on_c, 0, 94, 110
2, 177024, Note_on_c, 0, 82, 110
2, 177212, Note_off_c, 0, 94, 100
2, 177212, Note_off_c, 0, 82, 100
2, 177792, Note_on_c, 0, 71, 80
2, 177792, Note_on_c, 0, 59, 80
2, 177980, Note_off_c, 0, 71, 100
2, 177980, Note_off_c, 0, 59, 100
2, 178176, Note_on_c, 0, 71, 80
2, 178176, Note_on_c, 0, 59, 80
2, 178364, Note_off_c, 0, 71, 100
2, 178364, Note_off_c, 0, 59, 100
2, 178944, Note_on_c, 0, 94, 110
2, 178944, Note_on_c, 0, 82, 110
2, 179132, Note_off_c, 0, 94, 100
2, 179132, Note_off_c, 0, 82, 100
2, 179328, Note_on_c, 0, 94, 110
2, 179328, Note_on_c, 0, 82, 110
2, 179516, Note_off_c, 0, 94, 100
2, 179516, Note_off_c, 0, 82, 100
2, 180096, Note_on_c, 0, 71, 80
2, 180096, Note_on_c, 0, 59, 80
2, 180284, Note_off_c, 0, 71, 100
2, 180284, Note_off_c, 0, 59, 100
2, 180480, Note_on_c, 0, 71, 79
2, 180480, Note_on_c, 0, 59, 79
2, 180668, Note_off_c, 0, 71, 100
2, 180668, Note_off_c, 0, 59, 100
2, 181248, Note_on_c, 0, 70, 77
2, 181248, Note_on_c, 0, 58, 77
2, 181436, Note_off_c, 0, 70, 100
2, 181436, Note_off_c, 0, 58, 100
2, 181632, Note_on_c, 0, 70, 76
2, 181632, Note_on_c, 0, 58, 76
2, 181820, Note_off_c, 0, 70, 100
2, 181820, Note_off_c, 0, 58, 100
2, 182400, Note_on_c, 0, 62, 73
2, 182684, Note_off_c, 0, 62, 100
2, 182688, Note_on_c, 0, 66, 72
2, 182780, Note_off_c, 0, 66, 100
2, 182784, Note_on_c, 0, 66, 72
2, 183164, Note_off_c, 0, 66, 100
2, 183168, Note_on_c, 0, 62, 71
2, 183356, Note_off_c, 0, 62, 100
2, 183552, Note_on_c, 0, 71, 70
2, 183552, Note_on_c, 0, 59, 70
2, 183740, Note_off_c, 0, 71, 100
2, 183740, Note_off_c, 0, 59, 100
2, 183936, Note_on_c, 0, 71, 70
2, 183936, Note_on_c, 0, 59, 70
2, 184124, Note_off_c, 0, 71, 100
2, 184124, Note_off_c, 0, 59, 100
2, 184704, Note_on_c, 0, 71, 70
2, 184704, Note_on_c, 0, 59, 70
2, 184892, Note_off_c, 0, 71, 100
2, 184892, Note_off_c, 0, 59, 100
2, 185088, Note_on_c, 0, 71, 74
2, 185088, Note_on_c, 0, 59, 74
2, 185276, Note_off_c, 0, 71, 100
2, 185276, Note_off_c, 0, 59, 100
2, 185856, Note_on_c, 0, 71, 83
2, 185856, Note_on_c, 0, 59, 83
2, 186044, Note_off_c, 0, 71, 100
2, 186044, Note_off_c, 0, 59, 100
2, 186240, Key_signature, 0, "major"
2, 186240, Note_on_c, 0, 71, 88
2, 186240, Note_on_c, 0, 59, 88
2, 186620, Note_off_c, 0, 71, 100
2, 186620, Note_off_c, 0, 59, 100
2, 186624, Note_on_c, 0, 71, 93
2, 186624, Note_on_c, 0, 59, 93
2, 187004, Note_off_c, 0, 71, 100
2, 187004, Note_off_c, 0, 59, 100
2, 187008, Note_on_c, 0, 71, 97
2, 187008, Note_on_c, 0, 59, 97
2, 187388, Note_off_c, 0, 71, 100
2, 187388, Note_off_c, 0, 59, 100
2, 187392, Note_on_c, 0, 71, 102
2, 187392, Note_on_c, 0, 59, 102
2, 187772, Note_off_c, 0, 71, 100
2, 187772, Note_off_c, 0, 59, 100
2, 187776, Note_on_c, 0, 71, 107
2, 187776, Note_on_c, 0, 59, 107
2, 188156, Note_off_c, 0, 71, 100
2, 188156, Note_off_c, 0, 59, 100
2, 188160, Note_on_c, 0, 83, 111
2, 188160, Note_on_c, 0, 71, 111
2, 188540, Note_off_c, 0, 83, 100
2, 188540, Note_off_c, 0, 71, 100
2, 188544, Note_on_c, 0, 83, 116
2, 188544, Note_on_c, 0, 71, 116
2, 188924, Note_off_c, 0, 83, 100
2, 188924, Note_off_c, 0, 71, 100
2, 188928, Note_on_c, 0, 83, 120
2, 188928, Note_on_c, 0, 71, 120
2, 189308, Note_off_c, 0, 83, 100
2, 189308, Note_off_c, 0, 71, 100
2, 189312, Note_on_c, 0, 83, 120
2, 189312, Note_on_c, 0, 71, 120
2, 189692, Note_off_c, 0, 83, 100
2, 189692, Note_off_c, 0, 71, 100
2, 189696, Note_on_c, 0, 95, 120
2, 189696, Note_on_c, 0, 83, 120
2, 190076, Note_off_c, 0, 95, 100
2, 190076, Note_off_c, 0, 83, 100
2, 190080, Note_on_c, 0, 95, 120
2, 190080, Note_on_c, 0, 83, 120
2, 190460, Note_off_c, 0, 95, 100
2, 190460, Note_off_c, 0, 83, 100
2, 190464, Note_on_c, 0, 95, 120
2, 190464, Note_on_c, 0, 83, 120
2, 190844, Note_off_c, 0, 95, 100
2, 190844, Note_off_c, 0, 83, 100
2, 190848, Note_on_c, 0, 95, 120
2, 190848, Note_on_c, 0, 83, 120
2, 191228, Note_off_c, 0, 95, 100
2, 191228, Note_off_c, 0, 83, 100
2, 191232, Note_on_c, 0, 95, 120
2, 191232, Note_on_c, 0, 83, 120
2, 191612, Note_off_c, 0, 95, 100
2, 191612, Note_off_c, 0, 83, 100
2, 191616, Note_on_c, 0, 95, 120
2, 191616, Note_on_c, 0, 83, 120
2, 191996, Note_off_c, 0, 95, 100
2, 191996, Note_off_c, 0, 83, 100
2, 192000, Note_on_c, 0, 94, 120
2, 192000, Note_on_c, 0, 82, 120
2, 192188, Note_off_c, 0, 94, 100
2, 192188, Note_off_c, 0, 82, 100
2, 192384, Key_signature, -2, "major"
2, 192384, Note_on_c, 0, 94, 120
2, 192384, Note_on_c, 0, 82, 120
2, 192572, Note_off_c, 0, 94, 100
2, 192572, Note_off_c, 0, 82, 100
2, 193152, Note_on_c, 0, 62, 80
2, 193436, Note_off_c, 0, 62, 100
2, 193440, Note_on_c, 0, 65, 80
2, 193532, Note_off_c, 0, 65, 100
2, 193536, Note_on_c, 0, 65, 80
2, 193728, Note_on_c, 0, 60, 80
2, 193916, Note_off_c, 0, 65, 100
2, 193916, Note_off_c, 0, 60, 100
2, 193920, Note_on_c, 0, 62, 80
2, 193920, Note_on_c, 0, 53, 80
2, 194108, Note_off_c, 0, 62, 100
2, 194108, Note_off_c, 0, 53, 100
2, 194304, Note_on_c, 0, 74, 80
2, 194588, Note_off_c, 0, 74, 100
2, 194592, Note_on_c, 0, 77, 80
2, 194684, Note_off_c, 0, 77, 100
2, 194688, Note_on_c, 0, 77, 80
2, 194880, Note_on_c, 0, 72, 80
2, 195068, Note_off_c, 0, 77, 100
2, 195068, Note_off_c, 0, 72, 100
2, 195072, Note_on_c, 0, 74, 80
2, 195072, Note_on_c, 0, 65, 80
2, 195260, Note_off_c, 0, 74, 100
2, 195260, Note_off_c, 0, 65, 100
2, 195456, Note_on_c, 0, 86, 80
2, 195740, Note_off_c, 0, 86, 100
2, 195744, Note_on_c, 0, 89, 80
2, 195836, Note_off_c, 0, 89, 100
2, 195840, Note_on_c, 0, 89, 80
2, 196032, Note_on_c, 0, 84, 80
2, 196220, Note_off_c, 0, 89, 100
2, 196220, Note_off_c, 0, 84, 100
2, 196224, Note_on_c, 0, 86, 80
2, 196224, Note_on_c, 0, 77, 80
2, 196604, Note_off_c, 0, 86, 100
2, 196604, Note_off_c, 0, 77, 100
2, 198144, Control_c, 0, 7, 0
2, 198912, Note_on_c, 0, 70, 1
2, 199100, Note_off_c, 0, 70, 100
2, 199100, End_track
3, 0, Start_track
3, 0, Title_t, "Left"
3, 0, Control_c, 1, 0, 0
3, 0, Program_c, 1, 0
3, 0, Control_c, 1, 7, 100
3, 0, Control_c, 1, 10, 54
3, 0, Control_c, 1, 91, 127
3, 0, Key_signature, -2, "major"
3, 0, Note_on_c, 1, 50, 1
3, 0, Note_on_c, 1, 62, 80
3, 0, Note_on_c, 1, 58, 80
3, 284, Note_off_c, 1, 62, 100
3, 284, Note_off_c, 1, 58, 100
3, 288, Note_on_c, 1, 60, 80
3, 288, Note_on_c, 1, 53, 80
3, 380, Note_off_c, 1, 50, 100
3, 380, Note_off_c, 1, 60, 100
3, 380, Note_off_c, 1, 53, 100
3, 384, Note_on_c, 1, 60, 80
3, 384, Note_on_c, 1, 57, 80
3, 764, Note_off_c, 1, 60, 100
3, 764, Note_off_c, 1, 57, 100
3, 768, Note_on_c, 1, 62, 80
3, 768, Note_on_c, 1, 58, 80
3, 956, Note_off_c, 1, 62, 100
3, 956, Note_off_c, 1, 58, 100
3, 1152, Note_on_c, 1, 55, 80
3, 1176, Note_on_c, 1, 58, 80
3, 1436, Note_off_c, 1, 55, 100
3, 1440, Note_on_c, 1, 57, 80
3, 1440, Note_on_c, 1, 50, 80
3, 1460, Note_off_c, 1, 58, 100
3, 1532, Note_off_c, 1, 57, 100
3, 1532, Note_off_c, 1, 50, 100
3, 1536, Note_on_c, 1, 57, 80
3, 1536, Note_on_c, 1, 54, 80
3, 1916, Note_off_c, 1, 57, 100
3, 1916, Note_off_c, 1, 54, 100
3, 1920, Note_on_c, 1, 58, 80
3, 1920, Note_on_c, 1, 55, 80
3, 2108, Note_off_c, 1, 58, 100
3, 2108, Note_off_c, 1, 55, 100
3, 2328, Note_on_c, 1, 51, 80
3, 2352, Note_on_c, 1, 55, 80
3, 2592, Note_on_c, 1, 53, 80
3, 2592, Note_on_c, 1, 46, 80
3, 2612, Note_off_c, 1, 51, 100
3, 2636, Note_off_c, 1, 55, 100
3, 2684, Note_off_c, 1, 53, 100
3, 2684, Note_off_c, 1, 46, 100
3, 2688, Note_on_c, 1, 53, 80
3, 2688, Note_on_c, 1, 50, 80
3, 3068, Note_off_c, 1, 53, 100
3, 3068, Note_off_c, 1, 50, 100
3, 3072, Note_on_c, 1, 55, 80
3, 3072, Note_on_c, 1, 51, 80
3, 3260, Note_off_c, 1, 55, 100
3, 3260, Note_off_c, 1, 51, 100
3, 3480, Note_on_c, 1, 55, 80
3, 3480, Note_on_c, 1, 51, 80
3, 3744, Note_on_c, 1, 53, 80
3, 3744, Note_on_c, 1, 48, 80
3, 3764, Note_off_c, 1, 55, 100
3, 3764, Note_off_c, 1, 51, 100
3, 3836, Note_off_c, 1, 53, 100
3, 3836, Note_off_c, 1, 48, 100
3, 3840, Note_on_c, 1, 53, 80
3, 3840, Note_on_c, 1, 48, 80
3, 4220, Note_off_c, 1, 53, 100
3, 4220, Note_off_c, 1, 48, 100
3, 4224, Note_on_c, 1, 53, 80
3, 4224, Note_on_c, 1, 50, 80
3, 4412, Note_off_c, 1, 53, 100
3, 4412, Note_off_c, 1, 50, 100
3, 4608, Note_on_c, 1, 53, 80
3, 4608, Note_on_c, 1, 50, 80
3, 4892, Note_off_c, 1, 50, 100
3, 4896, Note_on_c, 1, 45, 80
3, 4988, Note_off_c, 1, 53, 100
3, 4988, Note_off_c, 1, 45, 100
3, 4992, Note_on_c, 1, 53, 80
3, 4992, Note_on_c, 1, 45, 80
3, 5372, Note_off_c, 1, 53, 100
3, 5372, Note_off_c, 1, 45, 100
3, 5376, Note_on_c, 1, 44, 80
3, 5376, Note_on_c, 1, 53, 80
3, 5564, Note_off_c, 1, 44, 100
3, 5564, Note_off_c, 1, 53, 100
3, 5760, Note_on_c, 1, 53, 80
3, 5760, Note_on_c, 1, 44, 80
3, 6044, Note_off_c, 1, 53, 100
3, 6044, Note_off_c, 1, 44, 100
3, 6048, Note_on_c, 1, 51, 91
3, 6048, Note_on_c, 1, 43, 91
3, 6140, Note_off_c, 1, 51, 100
3, 6140, Note_off_c, 1, 43, 100
3, 6144, Note_on_c, 1, 51, 95
3, 6144, Note_on_c, 1, 43, 95
3, 6524, Note_off_c, 1, 51, 100
3, 6524, Note_off_c, 1, 43, 100
3, 6528, Note_on_c, 1, 49, 110
3, 6528, Note_on_c, 1, 41, 110
3, 6716, Note_off_c, 1, 49, 100
3, 6716, Note_off_c, 1, 41, 100
3, 6912, Note_on_c, 1, 48, 110
3, 6912, Note_on_c, 1, 40, 110
3, 7100, Note_off_c, 1, 48, 100
3, 7100, Note_off_c, 1, 40, 100
3, 7296, Note_on_c, 1, 53, 110
3, 7296, Note_on_c, 1, 41, 110
3, 7484, Note_off_c, 1, 53, 100
3, 7484, Note_off_c, 1, 41, 100
3, 8064, Note_on_c, 1, 74, 80
3, 8064, Note_on_c, 1, 70, 80
3, 8348, Note_off_c, 1, 74, 100
3, 8348, Note_off_c, 1, 70, 100
3, 8352, Note_on_c, 1, 72, 80
3, 8352, Note_on_c, 1, 65, 80
3, 8444, Note_off_c, 1, 72, 100
3, 8444, Note_off_c, 1, 65, 100
3, 8448, Note_on_c, 1, 72, 80
3, 8448, Note_on_c, 1, 69, 80
3, 8828, Note_off_c, 1, 72, 100
3, 8828, Note_off_c, 1, 69, 100
3, 8832, Note_on_c, 1, 74, 80
3, 8832, Note_on_c, 1, 70, 80
3, 9020, Note_off_c, 1, 74, 100
3, 9020, Note_off_c, 1, 70, 100
3, 9216, Note_on_c, 1, 67, 80
3, 9240, Note_on_c, 1, 70, 80
3, 9500, Note_off_c, 1, 67, 100
3, 9504, Note_on_c, 1, 69, 80
3, 9504, Note_on_c, 1, 62, 80
3, 9524, Note_off_c, 1, 70, 100
3, 9596, Note_off_c, 1, 69, 100
3, 9596, Note_off_c, 1, 62, 100
3, 9600, Note_on_c, 1, 69, 80
3, 9600, Note_on_c, 1, 66, 80
3, 9980, Note_off_c, 1, 69, 100
3, 9980, Note_off_c, 1, 66, 100
3, 9984, Note_on_c, 1, 70, 80
3, 9984, Note_on_c, 1, 67, 80
3, 10172, Note_off_c, 1, 70, 100
3, 10172, Note_off_c, 1, 67, 100
3, 10392, Note_on_c, 1, 63, 80
3, 10416, Note_on_c, 1, 67, 80
3, 10656, Note_on_c, 1, 65, 80
3, 10656, Note_on_c, 1, 58, 80
3, 10676, Note_off_c, 1, 63, 100
3, 10700, Note_off_c, 1, 67, 100
3, 10748, Note_off_c, 1, 65, 100
3, 10748, Note_off_c, 1, 58, 100
3, 10752, Note_on_c, 1, 65, 80
3, 10752, Note_on_c, 1, 62, 80
3, 11132, Note_off_c, 1, 65, 100
3, 11132, Note_off_c, 1, 62, 100
3, 11136, Note_on_c, 1, 67, 80
3, 11136, Note_on_c, 1, 63, 80
3, 11324, Note_off_c, 1, 67, 100
3, 11324, Note_off_c, 1, 63, 100
3, 11544, Note_on_c, 1, 67, 80
3, 11544, Note_on_c, 1, 63, 80
3, 11808, Note_on_c, 1, 65, 80
3, 11808, Note_on_c, 1, 60, 80
3, 11828, Note_off_c, 1, 67, 100
3, 11828, Note_off_c, 1, 63, 100
3, 11900, Note_off_c, 1, 65, 100
3, 11900, Note_off_c, 1, 60, 100
3, 11904, Note_on_c, 1, 65, 80
3, 11904, Note_on_c, 1, 60, 80
3, 12284, Note_off_c, 1, 65, 100
3, 12284, Note_off_c, 1, 60, 100
3, 12288, Note_on_c, 1, 65, 80
3, 12288, Note_on_c, 1, 62, 80
3, 12476, Note_off_c, 1, 65, 100
3, 12476, Note_off_c, 1, 62, 100
3, 12696, Note_on_c, 1, 74, 80
3, 12960, Note_on_c, 1, 72, 84
3, 12960, Note_on_c, 1, 69, 84
3, 12980, Note_off_c, 1, 74, 100
3, 13052, Note_off_c, 1, 72, 100
3, 13052, Note_off_c, 1, 69, 100
3, 13056, Note_on_c, 1, 72, 86
3, 13056, Note_on_c, 1, 69, 86
3, 13436, Note_off_c, 1, 72, 100
3, 13436, Note_off_c, 1, 69, 100
3, 13440, Note_on_c, 1, 70, 92
3, 13440, Note_on_c, 1, 68, 92
3, 13628, Note_off_c, 1, 70, 100
3, 13628, Note_off_c, 1, 68, 100
3, 13824, Note_on_c, 1, 70, 98
3, 13824, Note_on_c, 1, 67, 98
3, 14108, Note_off_c, 1, 67, 100
3, 14112, Note_on_c, 1, 66, 103
3, 14204, Note_off_c, 1, 70, 100
3, 14204, Note_off_c, 1, 66, 100
3, 14208, Note_on_c, 1, 70, 104
3, 14208, Note_on_c, 1, 66, 104
3, 14588, Note_off_c, 1, 70, 100
3, 14588, Note_off_c, 1, 66, 100
3, 14592, Note_on_c, 1, 72, 110
3, 14592, Note_on_c, 1, 65, 110
3, 14780, Note_off_c, 1, 72, 100
3, 14780, Note_off_c, 1, 65, 100
3, 14976, Note_on_c, 1, 60, 110
3, 14976, Note_on_c, 1, 48, 110
3, 15164, Note_off_c, 1, 60, 100
3, 15164, Note_off_c, 1, 48, 100
3, 15360, Note_on_c, 1, 65, 110
3, 15360, Note_on_c, 1, 53, 110
3, 15548, Note_off_c, 1, 65, 100
3, 15548, Note_off_c, 1, 53, 100
3, 16128, Note_on_c, 1, 53, 80
3, 16128, Note_on_c, 1, 65, 80
3, 17276, Note_off_c, 1, 53, 100
3, 17276, Note_off_c, 1, 65, 100
3, 17280, Note_on_c, 1, 53, 80
3, 17280, Note_on_c, 1, 41, 80
3, 18428, Note_off_c, 1, 41, 100
3, 18428, Note_off_c, 1, 53, 100
3, 18432, Note_on_c, 1, 53, 80
3, 18432, Note_on_c, 1, 41, 80
3, 19580, Note_off_c, 1, 41, 100
3, 19580, Note_off_c, 1, 53, 100
3, 19584, Note_on_c, 1, 29, 80
3, 19584, Note_on_c, 1, 41, 80
3, 20732, Note_off_c, 1, 29, 100
3, 20732, Note_off_c, 1, 41, 100
3, 20736, Note_on_c, 1, 42, 80
3, 20736, Note_on_c, 1, 30, 80
3, 21500, Note_off_c, 1, 30, 100
3, 21500, Note_off_c, 1, 42, 100
3, 21504, Note_on_c, 1, 31, 80
3, 21504, Note_on_c, 1, 43, 80
3, 22268, Note_off_c, 1, 31, 100
3, 22272, Note_on_c, 1, 45, 79
3, 22272, Note_on_c, 1, 33, 79
3, 22276, Note_off_c, 1, 43, 100
3, 22652, Note_off_c, 1, 45, 100
3, 22652, Note_off_c, 1, 33, 100
3, 22656, Note_on_c, 1, 46, 77
3, 22656, Note_on_c, 1, 34, 77
3, 23036, Note_off_c, 1, 46, 100
3, 23036, Note_off_c, 1, 34, 100
3, 23040, Note_on_c, 1, 47, 75
3, 23040, Note_on_c, 1, 35, 75
3, 23420, Note_off_c, 1, 47, 100
3, 23420, Note_off_c, 1, 35, 100
3, 23424, Note_on_c, 1, 48, 73
3, 23424, Note_on_c, 1, 36, 73
3, 24188, Note_off_c, 1, 48, 100
3, 24188, Note_off_c, 1, 36, 100
3, 24192, Note_on_c, 1, 36, 70
3, 24572, Note_off_c, 1, 36, 100
3, 24576, Note_on_c, 1, 43, 70
3, 25340, Note_off_c, 1, 43, 100
3, 27648, Note_on_c, 1, 55, 70
3, 27648, Note_on_c, 1, 43, 70
3, 27932, Note_off_c, 1, 43, 100
3, 27936, Note_on_c, 1, 47, 70
3, 28028, Note_off_c, 1, 47, 100
3, 28032, Note_on_c, 1, 47, 70
3, 28412, Note_off_c, 1, 47, 100
3, 28416, Note_on_c, 1, 43, 70
3, 28604, Note_off_c, 1, 55, 100
3, 28604, Note_off_c, 1, 43, 100
3, 28800, Control_c, 1, 64, 127
3, 28800, Note_on_c, 1, 72, 70
3, 29084, Note_off_c, 1, 72, 100
3, 29088, Note_on_c, 1, 75, 70
3, 29180, Note_off_c, 1, 75, 100
3, 29184, Note_on_c, 1, 75, 70
3, 29564, Note_off_c, 1, 75, 100
3, 29568, Note_on_c, 1, 72, 70
3, 29756, Note_off_c, 1, 72, 100
3, 29944, Control_c, 1, 64, 0
3, 29952, Note_on_c, 1, 43, 70
3, 29952, Note_on_c, 1, 55, 70
3, 31100, Note_off_c, 1, 43, 100
3, 31100, Note_off_c, 1, 55, 100
3, 31104, Note_on_c, 1, 36, 94
3, 31104, Note_on_c, 1, 48, 94
3, 32252, Note_off_c, 1, 36, 100
3, 32252, Note_off_c, 1, 48, 100
3, 32256, Note_on_c, 1, 29, 110
3, 32256, Note_on_c, 1, 41, 110
3, 33024, Note_on_c, 1, 53, 110
3, 33024, Note_on_c, 1, 41, 110
3, 33212, Note_off_c, 1, 41, 100
3, 33212, Note_off_c, 1, 53, 100
3, 33404, Note_off_c, 1, 29, 100
3, 33404, Note_off_c, 1, 41, 100
3, 33408, Note_on_c, 1, 46, 110
3, 33408, Note_on_c, 1, 34, 110
3, 33596, Note_off_c, 1, 46, 100
3, 33596, Note_off_c, 1, 34, 100
3, 33792, Note_on_c, 1, 46, 110
3, 33792, Note_on_c, 1, 34, 110
3, 33980, Note_off_c, 1, 46, 100
3, 33980, Note_off_c, 1, 34, 100
3, 34560, Note_on_c, 1, 65, 80
3, 34560, Note_on_c, 1, 77, 80
3, 35708, Note_off_c, 1, 65, 100
3, 35708, Note_off_c, 1, 77, 100
3, 35712, Note_on_c, 1, 65, 80
3, 35712, Note_on_c, 1, 53, 80
3, 36860, Note_off_c, 1, 53, 100
3, 36860, Note_off_c, 1, 65, 100
3, 36864, Note_on_c, 1, 65, 80
3, 36864, Note_on_c, 1, 53, 80
3, 38012, Note_off_c, 1, 53, 100
3, 38012, Note_off_c, 1, 65, 100
3, 38016, Note_on_c, 1, 41, 80
3, 38016, Note_on_c, 1, 53, 80
3, 39164, Note_off_c, 1, 41, 100
3, 39164, Note_off_c, 1, 53, 100
3, 39168, Note_on_c, 1, 54, 80
3, 39168, Note_on_c, 1, 42, 80
3, 39932, Note_off_c, 1, 42, 100
3, 39932, Note_off_c, 1, 54, 100
3, 39936, Note_on_c, 1, 63, 80
3, 39936, Note_on_c, 1, 60, 80
3, 39936, Note_on_c, 1, 54, 80
3, 40316, Note_off_c, 1, 63, 100
3, 40316, Note_off_c, 1, 60, 100
3, 40316, Note_off_c, 1, 54, 100
3, 40320, Note_on_c, 1, 62, 80
3, 40320, Note_on_c, 1, 58, 80
3, 40320, Note_on_c, 1, 55, 80
3, 40700, Note_off_c, 1, 62, 100
3, 40700, Note_off_c, 1, 58, 100
3, 40700, Note_off_c, 1, 55, 100
3, 40704, Note_on_c, 1, 60, 79
3, 40704, Note_on_c, 1, 57, 79
3, 41084, Note_off_c, 1, 60, 100
3, 41084, Note_off_c, 1, 57, 100
3, 41088, Note_on_c, 1, 58, 77
3, 41088, Note_on_c, 1, 55, 77
3, 41468, Note_off_c, 1, 58, 100
3, 41468, Note_off_c, 1, 55, 100
3, 41472, Note_on_c, 1, 47, 75
3, 41472, Note_on_c, 1, 57, 75
3, 41472, Note_on_c, 1, 53, 75
3, 41852, Note_off_c, 1, 47, 100
3, 41856, Note_on_c, 1, 48, 73
3, 42236, Note_off_c, 1, 53, 100
3, 42236, Note_off_c, 1, 57, 100
3, 42240, Note_on_c, 1, 55, 71
3, 42240, Note_on_c, 1, 52, 71
3, 42620, Note_off_c, 1, 48, 100
3, 42620, Note_off_c, 1, 55, 100
3, 42620, Note_off_c, 1, 52, 100
3, 42624, Note_on_c, 1, 51, 70
3, 42624, Note_on_c, 1, 48, 70
3, 42624, Note_on_c, 1, 60, 70
3, 42624, Note_on_c, 1, 55, 70
3, 43004, Note_off_c, 1, 51, 100
3, 43004, Note_off_c, 1, 48, 100
3, 43388, Note_off_c, 1, 60, 100
3, 43392, Note_on_c, 1, 59, 70
3, 43772, Note_off_c, 1, 55, 100
3, 43772, Note_off_c, 1, 59, 100
3, 46080, Note_on_c, 1, 67, 70
3, 46080, Note_on_c, 1, 55, 70
3, 46364, Note_off_c, 1, 55, 100
3, 46368, Note_on_c, 1, 59, 70
3, 46460, Note_off_c, 1, 59, 100
3, 46464, Note_on_c, 1, 59, 70
3, 46844, Note_off_c, 1, 59, 100
3, 46848, Note_on_c, 1, 55, 70
3, 47036, Note_off_c, 1, 67, 100
3, 47036, Note_off_c, 1, 55, 100
3, 47232, Control_c, 1, 64, 127
3, 47232, Note_on_c, 1, 60, 70
3, 47516, Note_off_c, 1, 60, 100
3, 47520, Note_on_c, 1, 63, 70
3, 47612, Note_off_c, 1, 63, 100
3, 47616, Note_on_c, 1, 63, 70
3, 47996, Note_off_c, 1, 63, 100
3, 48000, Note_on_c, 1, 60, 70
3, 48188, Note_off_c, 1, 60, 100
3, 48376, Control_c, 1, 64, 0
3, 48384, Note_on_c, 1, 55, 70
3, 48384, Note_on_c, 1, 67, 70
3, 49532, Note_off_c, 1, 55, 100
3, 49532, Note_off_c, 1, 67, 100
3, 49536, Note_on_c, 1, 48, 94
3, 49536, Note_on_c, 1, 60, 94
3, 50684, Note_off_c, 1, 48, 100
3, 50684, Note_off_c, 1, 60, 100
3, 50688, Note_on_c, 1, 41, 110
3, 50688, Note_on_c, 1, 53, 110
3, 51836, Note_off_c, 1, 41, 100
3, 51836, Note_off_c, 1, 53, 100
3, 51840, Note_on_c, 1, 46, 110
3, 51840, Note_on_c, 1, 34, 110
3, 52028, Note_off_c, 1, 46, 100
3, 52028, Note_off_c, 1, 34, 100
3, 52224, Key_signature, -5, "minor"
3, 52224, Note_on_c, 1, 46, 110
3, 52224, Note_on_c, 1, 34, 110
3, 52412, Note_off_c, 1, 46, 100
3, 52412, Note_off_c, 1, 34, 100
3, 52992, Note_on_c, 1, 46, 80
3, 52992, Note_on_c, 1, 34, 80
3, 53180, Note_off_c, 1, 46, 100
3, 53180, Note_off_c, 1, 34, 100
3, 53376, Note_on_c, 1, 46, 80
3, 53376, Note_on_c, 1, 34, 80
3, 53564, Note_off_c, 1, 46, 100
3, 53564, Note_off_c, 1, 34, 100
3, 53760, Control_c, 1, 64, 127
3, 54144, Note_on_c, 1, 34, 80
3, 54272, Note_on_c, 1, 41, 80
3, 54400, Note_on_c, 1, 49, 80
3, 54524, Note_off_c, 1, 34, 100
3, 54528, Note_on_c, 1, 34, 80
3, 54652, Note_off_c, 1, 41, 100
3, 54656, Note_on_c, 1, 41, 80
3, 54780, Note_off_c, 1, 49, 100
3, 54784, Note_on_c, 1, 49, 80
3, 54908, Note_off_c, 1, 34, 100
3, 54912, Note_on_c, 1, 34, 80
3, 55036, Note_off_c, 1, 41, 100
3, 55040, Note_on_c, 1, 41, 80
3, 55164, Note_off_c, 1, 49, 100
3, 55168, Note_on_c, 1, 49, 80
3, 55292, Note_off_c, 1, 34, 100
3, 55296, Note_on_c, 1, 34, 80
3, 55420, Note_off_c, 1, 41, 100
3, 55424, Note_on_c, 1, 41, 80
3, 55548, Note_off_c, 1, 49, 100
3, 55552, Note_on_c, 1, 49, 80
3, 55676, Note_off_c, 1, 34, 100
3, 55680, Note_on_c, 1, 34, 80
3, 55804, Note_off_c, 1, 41, 100
3, 55808, Note_on_c, 1, 41, 80
3, 55932, Note_off_c, 1, 49, 100
3, 55936, Note_on_c, 1, 49, 80
3, 56060, Note_off_c, 1, 34, 100
3, 56064, Note_on_c, 1, 34, 80
3, 56188, Note_off_c, 1, 41, 100
3, 56192, Note_on_c, 1, 41, 80
3, 56316, Note_off_c, 1, 49, 100
3, 56320, Note_on_c, 1, 49, 80
3, 56444, Note_off_c, 1, 34, 100
3, 56448, Note_on_c, 1, 34, 80
3, 56572, Note_off_c, 1, 41, 100
3, 56576, Note_on_c, 1, 41, 80
3, 56700, Note_off_c, 1, 49, 100
3, 56704, Note_on_c, 1, 49, 80
3, 56828, Note_off_c, 1, 34, 100
3, 56832, Note_on_c, 1, 34, 80
3, 56956, Note_off_c, 1, 41, 100
3, 56960, Note_on_c, 1, 41, 80
3, 57084, Note_off_c, 1, 49, 100
3, 57088, Note_on_c, 1, 49, 80
3, 57212, Note_off_c, 1, 34, 100
3, 57216, Note_on_c, 1, 34, 80
3, 57340, Note_off_c, 1, 41, 100
3, 57344, Note_on_c, 1, 41, 80
3, 57468, Note_off_c, 1, 49, 100
3, 57472, Note_on_c, 1, 49, 80
3, 57596, Note_off_c, 1, 34, 100
3, 57600, Note_on_c, 1, 34, 80
3, 57724, Note_off_c, 1, 41, 100
3, 57728, Note_on_c, 1, 41, 80
3, 57852, Note_off_c, 1, 49, 100
3, 57856, Note_on_c, 1, 49, 80
3, 57980, Note_off_c, 1, 34, 100
3, 57984, Note_on_c, 1, 34, 80
3, 58108, Note_off_c, 1, 41, 100
3, 58112, Note_on_c, 1, 41, 80
3, 58236, Note_off_c, 1, 49, 100
3, 58240, Note_on_c, 1, 49, 80
3, 58364, Note_off_c, 1, 34, 100
3, 58368, Note_on_c, 1, 34, 80
3, 58492, Note_off_c, 1, 41, 100
3, 58496, Note_on_c, 1, 41, 80
3, 58620, Note_off_c, 1, 49, 100
3, 58624, Note_on_c, 1, 49, 80
3, 58748, Note_off_c, 1, 34, 100
3, 58752, Note_on_c, 1, 34, 80
3, 58876, Note_off_c, 1, 41, 100
3, 58880, Note_on_c, 1, 41, 80
3, 59004, Note_off_c, 1, 49, 100
3, 59008, Note_on_c, 1, 49, 80
3, 59132, Note_off_c, 1, 34, 100
3, 59136, Note_on_c, 1, 34, 80
3, 59260, Note_off_c, 1, 41, 100
3, 59264, Note_on_c, 1, 41, 80
3, 59388, Note_off_c, 1, 49, 100
3, 59392, Note_on_c, 1, 49, 80
3, 59516, Note_off_c, 1, 34, 100
3, 59520, Note_on_c, 1, 34, 80
3, 59644, Note_off_c, 1, 41, 100
3, 59648, Note_on_c, 1, 41, 80
3, 59772, Note_off_c, 1, 49, 100
3, 59776, Note_on_c, 1, 49, 80
3, 59896, Control_c, 1, 64, 0
3, 59900, Note_off_c, 1, 34, 100
3, 59904, Note_on_c, 1, 32, 80
3, 60028, Note_off_c, 1, 41, 100
3, 60032, Note_on_c, 1, 41, 80
3, 60156, Note_off_c, 1, 49, 100
3, 60156, Note_off_c, 1, 32, 100
3, 60160, Note_on_c, 1, 49, 80
3, 60284, Note_off_c, 1, 41, 100
3, 60284, Note_off_c, 1, 49, 100
3, 60288, Note_on_c, 1, 32, 80
3, 60416, Note_on_c, 1, 41, 80
3, 60544, Note_on_c, 1, 49, 80
3, 60672, Control_c, 1, 64, 127
3, 60672, Note_on_c, 1, 32, 80
3, 60796, Note_off_c, 1, 32, 100
3, 60800, Note_on_c, 1, 41, 80
3, 60924, Note_off_c, 1, 41, 100
3, 60928, Note_on_c, 1, 49, 80
3, 61052, Note_off_c, 1, 49, 100
3, 61056, Note_on_c, 1, 37, 80
3, 61180, Note_off_c, 1, 32, 100
3, 61184, Note_on_c, 1, 41, 80
3, 61308, Note_off_c, 1, 41, 100
3, 61312, Note_on_c, 1, 49, 80
3, 61440, Note_on_c, 1, 37, 80
3, 61452, Note_off_c, 1, 49, 100
3, 61564, Note_off_c, 1, 37, 100
3, 61568, Note_on_c, 1, 41, 80
3, 61692, Note_off_c, 1, 41, 100
3, 61696, Note_on_c, 1, 49, 80
3, 61804, Note_off_c, 1, 49, 100
3, 61824, Note_on_c, 1, 37, 80
3, 61948, Note_off_c, 1, 37, 100
3, 61952, Note_on_c, 1, 41, 80
3, 62044, Note_off_c, 1, 41, 100
3, 62080, Note_on_c, 1, 49, 80
3, 62204, Note_off_c, 1, 49, 100
3, 62204, Note_off_c, 1, 49, 100
3, 62208, Note_on_c, 1, 49, 80
3, 62208, Note_on_c, 1, 37, 80
3, 62316, Note_off_c, 1, 41, 100
3, 62332, Note_off_c, 1, 37, 100
3, 62972, Note_off_c, 1, 37, 100
3, 62972, Note_off_c, 1, 49, 100
3, 62976, Control_c, 1, 64, 127
3, 62976, Note_on_c, 1, 53, 80
3, 62976, Note_on_c, 1, 41, 80
3, 63352, Control_c, 1, 64, 0
3, 63356, Note_off_c, 1, 53, 100
3, 63356, Note_off_c, 1, 41, 100
3, 63360, Note_on_c, 1, 49, 80
3, 63360, Note_on_c, 1, 37, 80
3, 64124, Note_off_c, 1, 37, 100
3, 64124, Note_off_c, 1, 49, 100
3, 64128, Note_on_c, 1, 46, 80
3, 64128, Note_on_c, 1, 34, 80
3, 64508, Note_off_c, 1, 46, 100
3, 64508, Note_off_c, 1, 34, 100
3, 64512, Note_on_c, 1, 41, 80
3, 64512, Note_on_c, 1, 29, 80
3, 64892, Note_off_c, 1, 41, 100
3, 64892, Note_off_c, 1, 29, 100
3, 64896, Note_on_c, 1, 46, 80
3, 64896, Note_on_c, 1, 34, 80
3, 65660, Note_off_c, 1, 46, 100
3, 65660, Note_off_c, 1, 34, 100
3, 65664, Note_on_c, 1, 49, 80
3, 65664, Note_on_c, 1, 37, 80
3, 66044, Note_off_c, 1, 49, 100
3, 66044, Note_off_c, 1, 37, 100
3, 66048, Note_on_c, 1, 53, 80
3, 66048, Note_on_c, 1, 41, 80
3, 66812, Note_off_c, 1, 53, 100
3, 66812, Note_off_c, 1, 41, 100
3, 66816, Note_on_c, 1, 49, 80
3, 66816, Note_on_c, 1, 37, 80
3, 67196, Note_off_c, 1, 49, 100
3, 67196, Note_off_c, 1, 37, 100
3, 67200, Note_on_c, 1, 46, 80
3, 67200, Note_on_c, 1, 34, 80
3, 67964, Note_off_c, 1, 46, 100
3, 67964, Note_off_c, 1, 34, 100
3, 67968, Note_on_c, 1, 41, 80
3, 67968, Note_on_c, 1, 29, 80
3, 68348, Note_off_c, 1, 41, 100
3, 68348, Note_off_c, 1, 29, 100
3, 68352, Note_on_c, 1, 46, 80
3, 68352, Note_on_c, 1, 34, 80
3, 69112, Control_c, 1, 64, 0
3, 69116, Note_off_c, 1, 46, 100
3, 69116, Note_off_c, 1, 34, 100
3, 69120, Note_on_c, 1, 49, 80
3, 69120, Note_on_c, 1, 37, 80
3, 69500, Note_off_c, 1, 49, 100
3, 69500, Note_off_c, 1, 37, 100
3, 69504, Note_on_c, 1, 53, 80
3, 69504, Note_on_c, 1, 41, 80
3, 70268, Note_off_c, 1, 53, 100
3, 70268, Note_off_c, 1, 41, 100
3, 70272, Note_on_c, 1, 56, 80
3, 70272, Note_on_c, 1, 44, 80
3, 70652, Note_off_c, 1, 56, 100
3, 70652, Note_off_c, 1, 44, 100
3, 70656, Control_c, 1, 64, 127
3, 70656, Note_on_c, 1, 49, 80
3, 70656, Note_on_c, 1, 37, 80
3, 71420, Note_off_c, 1, 49, 100
3, 71420, Note_off_c, 1, 37, 100
3, 71424, Note_on_c, 1, 49, 80
3, 71424, Note_on_c, 1, 37, 80
3, 71804, Note_off_c, 1, 49, 100
3, 71804, Note_off_c, 1, 37, 100
3, 71808, Note_on_c, 1, 49, 80
3, 71808, Note_on_c, 1, 37, 80
3, 72188, Note_off_c, 1, 49, 100
3, 72188, Note_off_c, 1, 37, 100
3, 72192, Note_on_c, 1, 37, 80
3, 72320, Note_on_c, 1, 41, 80
3, 72448, Note_on_c, 1, 49, 80
3, 72572, Note_off_c, 1, 37, 100
3, 72576, Note_on_c, 1, 37, 80
3, 72700, Note_off_c, 1, 41, 100
3, 72704, Note_on_c, 1, 41, 80
3, 72828, Note_off_c, 1, 49, 100
3, 72832, Note_on_c, 1, 49, 80
3, 72956, Note_off_c, 1, 37, 100
3, 72960, Note_on_c, 1, 37, 80
3, 73084, Note_off_c, 1, 41, 100
3, 73088, Note_on_c, 1, 41, 80
3, 73212, Note_off_c, 1, 49, 100
3, 73216, Note_on_c, 1, 49, 80
3, 73340, Note_off_c, 1, 37, 100
3, 73344, Note_on_c, 1, 37, 80
3, 73468, Note_off_c, 1, 41, 100
3, 73472, Note_on_c, 1, 41, 80
3, 73596, Note_off_c, 1, 49, 100
3, 73600, Note_on_c, 1, 49, 80
3, 73724, Note_off_c, 1, 37, 100
3, 73728, Note_on_c, 1, 37, 80
3, 73852, Note_off_c, 1, 41, 100
3, 73856, Note_on_c, 1, 41, 80
3, 73980, Note_off_c, 1, 49, 100
3, 73984, Note_on_c, 1, 49, 80
3, 74108, Note_off_c, 1, 37, 100
3, 74112, Note_on_c, 1, 37, 80
3, 74236, Note_off_c, 1, 41, 100
3, 74240, Note_on_c, 1, 41, 80
3, 74364, Note_off_c, 1, 49, 100
3, 74368, Note_on_c, 1, 49, 80
3, 74492, Note_off_c, 1, 37, 100
3, 74496, Note_on_c, 1, 37, 80
3, 74620, Note_off_c, 1, 41, 100
3, 74624, Note_on_c, 1, 41, 80
3, 74748, Note_off_c, 1, 49, 100
3, 74752, Note_on_c, 1, 49, 80
3, 74876, Note_off_c, 1, 37, 100
3, 74880, Note_on_c, 1, 37, 80
3, 75004, Note_off_c, 1, 41, 100
3, 75008, Note_on_c, 1, 41, 80
3, 75132, Note_off_c, 1, 49, 100
3, 75136, Note_on_c, 1, 49, 80
3, 75260, Note_off_c, 1, 37, 100
3, 75264, Note_on_c, 1, 37, 80
3, 75388, Note_off_c, 1, 41, 100
3, 75392, Note_on_c, 1, 41, 80
3, 75516, Note_off_c, 1, 49, 100
3, 75520, Note_on_c, 1, 49, 80
3, 75644, Note_off_c, 1, 37, 100
3, 75648, Note_on_c, 1, 37, 80
3, 75772, Note_off_c, 1, 41, 100
3, 75776, Note_on_c, 1, 41, 80
3, 75900, Note_off_c, 1, 49, 100
3, 75904, Note_on_c, 1, 49, 80
3, 76028, Note_off_c, 1, 37, 100
3, 76032, Note_on_c, 1, 32, 80
3, 76156, Note_off_c, 1, 41, 100
3, 76160, Note_on_c, 1, 41, 80
3, 76284, Note_off_c, 1, 49, 100
3, 76288, Note_on_c, 1, 49, 80
3, 76408, Control_c, 1, 64, 0
3, 76412, Note_off_c, 1, 32, 100
3, 76412, Note_off_c, 1, 41, 100
3, 76412, Note_off_c, 1, 49, 100
3, 76416, Note_on_c, 1, 32, 80
3, 76540, Note_off_c, 1, 32, 100
3, 76544, Note_on_c, 1, 41, 80
3, 76668, Note_off_c, 1, 41, 100
3, 76672, Note_on_c, 1, 49, 80
3, 76796, Note_off_c, 1, 49, 100
3, 76800, Note_on_c, 1, 32, 80
3, 76924, Note_off_c, 1, 32, 100
3, 76928, Note_on_c, 1, 41, 80
3, 77052, Note_off_c, 1, 41, 100
3, 77056, Note_on_c, 1, 49, 80
3, 77180, Note_off_c, 1, 49, 100
3, 77184, Note_on_c, 1, 32, 80
3, 77308, Note_off_c, 1, 32, 100
3, 77312, Note_on_c, 1, 41, 80
3, 77436, Note_off_c, 1, 41, 100
3, 77440, Note_on_c, 1, 49, 80
3, 77564, Note_off_c, 1, 49, 100
3, 77568, Control_c, 1, 64, 127
3, 77568, Note_on_c, 1, 34, 80
3, 77696, Note_on_c, 1, 41, 80
3, 77824, Note_on_c, 1, 49, 80
3, 77948, Note_off_c, 1, 34, 100
3, 77952, Note_on_c, 1, 34, 80
3, 78076, Note_off_c, 1, 41, 100
3, 78080, Note_on_c, 1, 41, 80
3, 78204, Note_off_c, 1, 49, 100
3, 78208, Note_on_c, 1, 49, 80
3, 78332, Note_off_c, 1, 34, 100
3, 78336, Note_on_c, 1, 34, 80
3, 78460, Note_off_c, 1, 41, 100
3, 78464, Note_on_c, 1, 41, 80
3, 78588, Note_off_c, 1, 49, 100
3, 78592, Note_on_c, 1, 49, 80
3, 78716, Note_off_c, 1, 34, 100
3, 78720, Note_on_c, 1, 34, 80
3, 78844, Note_off_c, 1, 41, 100
3, 78848, Note_on_c, 1, 41, 80
3, 78972, Note_off_c, 1, 49, 100
3, 78976, Note_on_c, 1, 49, 80
3, 79100, Note_off_c, 1, 34, 100
3, 79104, Note_on_c, 1, 34, 80
3, 79228, Note_off_c, 1, 41, 100
3, 79232, Note_on_c, 1, 41, 80
3, 79356, Note_off_c, 1, 49, 100
3, 79360, Note_on_c, 1, 49, 80
3, 79484, Note_off_c, 1, 34, 100
3, 79488, Note_on_c, 1, 34, 80
3, 79612, Note_off_c, 1, 41, 100
3, 79616, Note_on_c, 1, 41, 80
3, 79740, Note_off_c, 1, 49, 100
3, 79744, Note_on_c, 1, 49, 80
3, 79868, Note_off_c, 1, 34, 100
3, 79872, Note_on_c, 1, 29, 80
3, 79996, Note_off_c, 1, 41, 100
3, 80000, Note_on_c, 1, 41, 80
3, 80124, Note_off_c, 1, 49, 100
3, 80128, Note_on_c, 1, 49, 80
3, 80252, Note_off_c, 1, 29, 100
3, 80256, Note_on_c, 1, 29, 80
3, 80380, Note_off_c, 1, 41, 100
3, 80384, Note_on_c, 1, 41, 80
3, 80508, Note_off_c, 1, 49, 100
3, 80512, Note_on_c, 1, 49, 80
3, 80636, Note_off_c, 1, 29, 100
3, 80640, Note_on_c, 1, 29, 80
3, 80764, Note_off_c, 1, 41, 100
3, 80768, Note_on_c, 1, 41, 80
3, 80892, Note_off_c, 1, 49, 100
3, 80896, Note_on_c, 1, 49, 80
3, 81020, Note_off_c, 1, 29, 100
3, 81024, Note_on_c, 1, 34, 80
3, 81148, Note_off_c, 1, 41, 100
3, 81152, Note_on_c, 1, 41, 80
3, 81276, Note_off_c, 1, 49, 100
3, 81280, Note_on_c, 1, 49, 80
3, 81404, Note_off_c, 1, 34, 100
3, 81408, Note_on_c, 1, 34, 80
3, 81532, Note_off_c, 1, 41, 100
3, 81660, Note_off_c, 1, 49, 100
3, 81784, Control_c, 1, 64, 0
3, 81788, Note_off_c, 1, 34, 100
3, 81792, Note_on_c, 1, 53, 80
3, 81792, Note_on_c, 1, 41, 80
3, 82556, Note_off_c, 1, 41, 100
3, 82556, Note_off_c, 1, 53, 100
3, 82560, Note_on_c, 1, 56, 80
3, 82560, Note_on_c, 1, 44, 80
3, 82940, Note_off_c, 1, 56, 100
3, 82940, Note_off_c, 1, 44, 100
3, 82944, Note_on_c, 1, 53, 80
3, 82944, Note_on_c, 1, 41, 80
3, 83328, Control_c, 1, 64, 127
3, 83708, Note_off_c, 1, 41, 100
3, 83708, Note_off_c, 1, 53, 100
3, 83712, Note_on_c, 1, 49, 80
3, 83712, Note_on_c, 1, 37, 80
3, 84092, Note_off_c, 1, 49, 100
3, 84092, Note_off_c, 1, 37, 100
3, 84096, Note_on_c, 1, 44, 80
3, 84096, Note_on_c, 1, 32, 80
3, 84476, Note_off_c, 1, 44, 100
3, 84476, Note_off_c, 1, 32, 100
3, 84480, Note_on_c, 1, 49, 80
3, 84480, Note_on_c, 1, 37, 80
3, 85244, Note_off_c, 1, 49, 100
3, 85244, Note_off_c, 1, 37, 100
3, 85248, Note_on_c, 1, 53, 80
3, 85248, Note_on_c, 1, 41, 80
3, 85628, Note_off_c, 1, 53, 100
3, 85628, Note_off_c, 1, 41, 100
3, 85632, Note_on_c, 1, 56, 80
3, 85632, Note_on_c, 1, 44, 80
3, 86396, Note_off_c, 1, 56, 100
3, 86396, Note_off_c, 1, 44, 100
3, 86400, Note_on_c, 1, 53, 80
3, 86400, Note_on_c, 1, 41, 80
3, 86780, Note_off_c, 1, 53, 100
3, 86780, Note_off_c, 1, 41, 100
3, 86784, Note_on_c, 1, 49, 80
3, 86784, Note_on_c, 1, 37, 80
3, 87544, Control_c, 1, 64, 0
3, 87548, Note_off_c, 1, 49, 100
3, 87548, Note_off_c, 1, 37, 100
3, 87552, Note_on_c, 1, 34, 80
3, 87552, Note_on_c, 1, 46, 80
3, 87932, Note_off_c, 1, 34, 100
3, 87932, Note_off_c, 1, 46, 100
3, 87936, Control_c, 1, 64, 127
3, 87936, Note_on_c, 1, 41, 80
3, 87936, Note_on_c, 1, 29, 80
3, 88700, Note_off_c, 1, 41, 100
3, 88700, Note_off_c, 1, 29, 100
3, 88704, Note_on_c, 1, 46, 80
3, 88704, Note_on_c, 1, 34, 80
3, 89084, Note_off_c, 1, 46, 100
3, 89084, Note_off_c, 1, 34, 100
3, 89088, Note_on_c, 1, 49, 80
3, 89088, Note_on_c, 1, 37, 80
3, 89852, Note_off_c, 1, 49, 100
3, 89852, Note_off_c, 1, 37, 100
3, 89856, Note_on_c, 1, 53, 80
3, 89856, Note_on_c, 1, 41, 80
3, 90236, Note_off_c, 1, 53, 100
3, 90236, Note_off_c, 1, 41, 100
3, 90240, Note_on_c, 1, 46, 80
3, 90240, Note_on_c, 1, 34, 80
3, 91388, Note_off_c, 1, 46, 100
3, 91388, Note_off_c, 1, 34, 100
3, 91392, Note_on_c, 1, 61, 80
3, 91520, Note_on_c, 1, 58, 80
3, 91648, Note_on_c, 1, 53, 80
3, 91772, Note_off_c, 1, 61, 100
3, 91776, Note_on_c, 1, 61, 80
3, 91900, Note_off_c, 1, 58, 100
3, 91904, Note_on_c, 1, 58, 80
3, 92028, Note_off_c, 1, 53, 100
3, 92032, Note_on_c, 1, 53, 80
3, 92156, Note_off_c, 1, 61, 100
3, 92160, Note_on_c, 1, 65, 80
3, 92284, Note_off_c, 1, 58, 100
3, 92288, Note_on_c, 1, 61, 80
3, 92412, Note_off_c, 1, 53, 100
3, 92416, Note_on_c, 1, 53, 80
3, 92536, Control_c, 1, 64, 0
3, 92540, Note_off_c, 1, 65, 100
3, 92540, Note_off_c, 1, 61, 100
3, 92540, Note_off_c, 1, 53, 100
3, 92544, Note_on_c, 1, 58, 80
3, 92732, Note_off_c, 1, 58, 100
3, 92928, Note_on_c, 1, 61, 80
3, 93116, Note_off_c, 1, 61, 100
3, 93312, Note_on_c, 1, 60, 80
3, 93500, Note_off_c, 1, 60, 100
3, 93696, Note_on_c, 1, 53, 80
3, 93884, Note_off_c, 1, 53, 100
3, 94080, Note_on_c, 1, 65, 80
3, 94268, Note_off_c, 1, 65, 100
3, 94464, Note_on_c, 1, 63, 80
3, 94652, Note_off_c, 1, 63, 100
3, 94848, Note_on_c, 1, 61, 80
3, 95036, Note_off_c, 1, 61, 100
3, 95232, Note_on_c, 1, 60, 80
3, 95420, Note_off_c, 1, 60, 100
3, 95616, Note_on_c, 1, 58, 80
3, 95804, Note_off_c, 1, 58, 100
3, 96000, Note_on_c, 1, 61, 80
3, 96188, Note_off_c, 1, 61, 100
3, 96384, Note_on_c, 1, 60, 80
3, 96572, Note_off_c, 1, 60, 100
3, 96768, Note_on_c, 1, 56, 80
3, 96956, Note_off_c, 1, 56, 100
3, 97152, Note_on_c, 1, 60, 80
3, 97340, Note_off_c, 1, 60, 100
3, 97536, Note_on_c, 1, 55, 80
3, 97724, Note_off_c, 1, 55, 100
3, 97920, Note_on_c, 1, 53, 80
3, 98684, Note_off_c, 1, 53, 100
3, 98688, Note_on_c, 1, 53, 80
3, 98688, Note_on_c, 1, 41, 80
3, 98876, Note_off_c, 1, 53, 100
3, 98876, Note_off_c, 1, 41, 100
3, 99072, Note_on_c, 1, 56, 82
3, 99072, Note_on_c, 1, 48, 82
3, 99260, Note_off_c, 1, 56, 100
3, 99260, Note_off_c, 1, 48, 100
3, 99456, Note_on_c, 1, 55, 85
3, 99456, Note_on_c, 1, 43, 85
3, 99644, Note_off_c, 1, 55, 100
3, 99644, Note_off_c, 1, 43, 100
3, 99840, Note_on_c, 1, 48, 87
3, 99840, Note_on_c, 1, 36, 87
3, 100028, Note_off_c, 1, 48, 100
3, 100028, Note_off_c, 1, 36, 100
3, 100224, Note_on_c, 1, 60, 90
3, 100224, Note_on_c, 1, 48, 90
3, 100412, Note_off_c, 1, 60, 100
3, 100412, Note_off_c, 1, 48, 100
3, 100608, Note_on_c, 1, 58, 93
3, 100608, Note_on_c, 1, 46, 93
3, 100796, Note_off_c, 1, 58, 100
3, 100796, Note_off_c, 1, 46, 100
3, 100992, Note_on_c, 1, 56, 95
3, 100992, Note_on_c, 1, 44, 95
3, 101180, Note_off_c, 1, 56, 100
3, 101180, Note_off_c, 1, 44, 100
3, 101376, Note_on_c, 1, 55, 98
3, 101376, Note_on_c, 1, 43, 98
3, 101564, Note_off_c, 1, 55, 100
3, 101564, Note_off_c, 1, 43, 100
3, 101760, Note_on_c, 1, 53, 101
3, 101760, Note_on_c, 1, 41, 101
3, 101948, Note_off_c, 1, 53, 100
3, 101948, Note_off_c, 1, 41, 100
3, 102144, Note_on_c, 1, 56, 103
3, 102144, Note_on_c, 1, 44, 103
3, 102332, Note_off_c, 1, 56, 100
3, 102332, Note_off_c, 1, 44, 100
3, 102528, Note_on_c, 1, 55, 106
3, 102528, Note_on_c, 1, 43, 106
3, 102716, Note_off_c, 1, 55, 100
3, 102716, Note_off_c, 1, 43, 100
3, 102912, Note_on_c, 1, 60, 109
3, 102912, Note_on_c, 1, 48, 109
3, 103100, Note_off_c, 1, 60, 100
3, 103100, Note_off_c, 1, 48, 100
3, 103296, Note_on_c, 1, 57, 111
3, 103296, Note_on_c, 1, 45, 111
3, 103484, Note_off_c, 1, 57, 100
3, 103484, Note_off_c, 1, 45, 100
3, 103680, Note_on_c, 1, 53, 114
3, 103680, Note_on_c, 1, 41, 114
3, 103868, Note_off_c, 1, 53, 100
3, 103868, Note_off_c, 1, 41, 100
3, 104064, Note_on_c, 1, 58, 117
3, 104064, Note_on_c, 1, 46, 117
3, 104252, Note_off_c, 1, 58, 100
3, 104252, Note_off_c, 1, 46, 100
3, 104448, Note_on_c, 1, 60, 119
3, 104448, Note_on_c, 1, 48, 119
3, 104636, Note_off_c, 1, 60, 100
3, 104636, Note_off_c, 1, 48, 100
3, 104832, Note_on_c, 1, 49, 120
3, 105020, Note_off_c, 1, 49, 100
3, 105024, Note_on_c, 1, 61, 120
3, 105212, Note_off_c, 1, 61, 100
3, 105216, Note_on_c, 1, 46, 120
3, 105404, Note_off_c, 1, 46, 100
3, 105408, Note_on_c, 1, 58, 120
3, 105596, Note_off_c, 1, 58, 100
3, 105600, Note_on_c, 1, 41, 120
3, 105788, Note_off_c, 1, 41, 100
3, 105792, Note_on_c, 1, 53, 120
3, 105980, Note_off_c, 1, 53, 100
3, 105984, Note_on_c, 1, 39, 120
3, 106172, Note_off_c, 1, 39, 100
3, 106176, Note_on_c, 1, 51, 120
3, 106364, Note_off_c, 1, 51, 100
3, 106368, Note_on_c, 1, 37, 120
3, 106556, Note_off_c, 1, 37, 100
3, 106560, Note_on_c, 1, 49, 120
3, 106748, Note_off_c, 1, 49, 100
3, 106752, Note_on_c, 1, 36, 120
3, 106940, Note_off_c, 1, 36, 100
3, 106944, Note_on_c, 1, 48, 120
3, 107132, Note_off_c, 1, 48, 100
3, 107136, Note_on_c, 1, 34, 120
3, 107324, Note_off_c, 1, 34, 100
3, 107328, Note_on_c, 1, 46, 120
3, 107516, Note_off_c, 1, 46, 100
3, 107520, Note_on_c, 1, 33, 120
3, 107708, Note_off_c, 1, 33, 100
3, 107712, Note_on_c, 1, 45, 120
3, 107900, Note_off_c, 1, 45, 100
3, 107904, Note_on_c, 1, 34, 120
3, 108092, Note_off_c, 1, 34, 100
3, 108096, Note_on_c, 1, 46, 120
3, 108284, Note_off_c, 1, 46, 100
3, 108288, Note_on_c, 1, 34, 120
3, 108476, Note_off_c, 1, 34, 100
3, 108480, Note_on_c, 1, 46, 120
3, 108668, Note_off_c, 1, 46, 100
3, 108672, Note_on_c, 1, 33, 120
3, 108860, Note_off_c, 1, 33, 100
3, 108864, Note_on_c, 1, 45, 120
3, 109052, Note_off_c, 1, 45, 100
3, 109056, Note_on_c, 1, 39, 120
3, 109244, Note_off_c, 1, 39, 100
3, 109248, Note_on_c, 1, 51, 120
3, 109436, Note_off_c, 1, 51, 100
3, 109440, Note_on_c, 1, 37, 120
3, 109628, Note_off_c, 1, 37, 100
3, 109632, Note_on_c, 1, 49, 120
3, 109820, Note_off_c, 1, 49, 100
3, 109824, Note_on_c, 1, 34, 120
3, 110012, Note_off_c, 1, 34, 100
3, 110016, Note_on_c, 1, 46, 120
3, 110204, Note_off_c, 1, 46, 100
3, 110208, Note_on_c, 1, 53, 120
3, 110208, Note_on_c, 1, 41, 120
3, 110972, Note_off_c, 1, 53, 100
3, 110972, Note_off_c, 1, 41, 100
3, 110976, Note_on_c, 1, 61, 120
3, 111164, Note_off_c, 1, 61, 100
3, 111168, Note_on_c, 1, 73, 120
3, 111356, Note_off_c, 1, 73, 100
3, 111360, Note_on_c, 1, 58, 120
3, 111548, Note_off_c, 1, 58, 100
3, 111552, Note_on_c, 1, 70, 120
3, 111740, Note_off_c, 1, 70, 100
3, 112128, Note_on_c, 1, 77, 120
3, 112508, Note_off_c, 1, 77, 100
3, 112512, Key_signature, -2, "major"
3, 112896, Note_on_c, 1, 65, 120
3, 113276, Note_off_c, 1, 65, 100
3, 113664, Note_on_c, 1, 53, 120
3, 114044, Note_off_c, 1, 53, 100
3, 114432, Note_on_c, 1, 41, 120
3, 114812, Note_off_c, 1, 41, 100
3, 115200, Note_on_c, 1, 29, 120
3, 117116, Note_off_c, 1, 29, 100
3, 117120, Note_on_c, 1, 29, 120
3, 117248, Note_on_c, 1, 31, 120
3, 117372, Note_off_c, 1, 29, 100
3, 117376, Note_on_c, 1, 33, 120
3, 117500, Note_off_c, 1, 31, 100
3, 117504, Note_on_c, 1, 34, 120
3, 117600, Note_on_c, 1, 36, 120
3, 117628, Note_off_c, 1, 33, 100
3, 117692, Note_off_c, 1, 34, 100
3, 117696, Note_on_c, 1, 38, 120
3, 117788, Note_off_c, 1, 36, 100
3, 117792, Note_on_c, 1, 40, 120
3, 117884, Note_off_c, 1, 38, 100
3, 117980, Note_off_c, 1, 40, 100
3, 118656, Note_on_c, 1, 53, 120
3, 118784, Note_on_c, 1, 55, 120
3, 118908, Note_off_c, 1, 53, 100
3, 118912, Note_on_c, 1, 57, 120
3, 119036, Note_off_c, 1, 55, 100
3, 119040, Note_on_c, 1, 58, 120
3, 119136, Note_on_c, 1, 60, 120
3, 119164, Note_off_c, 1, 57, 100
3, 119228, Note_off_c, 1, 58, 100
3, 119232, Note_on_c, 1, 62, 120
3, 119324, Note_off_c, 1, 60, 100
3, 119328, Note_on_c, 1, 64, 120
3, 119420, Note_off_c, 1, 62, 100
3, 119516, Note_off_c, 1, 64, 100
3, 120192, Note_on_c, 1, 77, 120
3, 120320, Note_on_c, 1, 79, 120
3, 120444, Note_off_c, 1, 77, 100
3, 120448, Note_on_c, 1, 81, 120
3, 120572, Note_off_c, 1, 79, 100
3, 120576, Note_on_c, 1, 82, 120
3, 120672, Note_on_c, 1, 84, 120
3, 120700, Note_off_c, 1, 81, 100
3, 120764, Note_off_c, 1, 82, 100
3, 120768, Note_on_c, 1, 86, 120
3, 120860, Note_off_c, 1, 84, 100
3, 120864, Note_on_c, 1, 88, 120
3, 120956, Note_off_c, 1, 86, 100
3, 120960, Note_on_c, 1, 65, 120
3, 121052, Note_off_c, 1, 88, 100
3, 121088, Note_on_c, 1, 67, 120
3, 121212, Note_off_c, 1, 65, 100
3, 121216, Note_on_c, 1, 69, 120
3, 121340, Note_off_c, 1, 67, 100
3, 121344, Note_on_c, 1, 70, 120
3, 121440, Note_on_c, 1, 72, 120
3, 121468, Note_off_c, 1, 69, 100
3, 121532, Note_off_c, 1, 70, 100
3, 121536, Note_on_c, 1, 74, 120
3, 121628, Note_off_c, 1, 72, 100
3, 121632, Note_on_c, 1, 76, 120
3, 121724, Note_off_c, 1, 74, 100
3, 121724, Note_off_c, 1, 76, 100
3, 121728, Note_on_c, 1, 77, 120
3, 121916, Note_off_c, 1, 77, 100
3, 122496, Control_c, 1, 64, 127
3, 122496, Note_on_c, 1, 53, 120
3, 122592, Note_on_c, 1, 63, 120
3, 122676, Note_off_c, 1, 53, 100
3, 122688, Note_on_c, 1, 53, 120
3, 122772, Note_off_c, 1, 63, 100
3, 122784, Note_on_c, 1, 63, 120
3, 122868, Note_off_c, 1, 53, 100
3, 122880, Note_on_c, 1, 53, 120
3, 122964, Note_off_c, 1, 63, 100
3, 122976, Note_on_c, 1, 63, 120
3, 123060, Note_off_c, 1, 53, 100
3, 123072, Note_on_c, 1, 53, 120
3, 123156, Note_off_c, 1, 63, 100
3, 123168, Note_on_c, 1, 63, 120
3, 123252, Note_off_c, 1, 53, 100
3, 123264, Note_on_c, 1, 53, 120
3, 123348, Note_off_c, 1, 63, 100
3, 123360, Note_on_c, 1, 63, 120
3, 123444, Note_off_c, 1, 53, 100
3, 123456, Note_on_c, 1, 53, 120
3, 123540, Note_off_c, 1, 63, 100
3, 123552, Note_on_c, 1, 63, 120
3, 124124, Note_off_c, 1, 53, 100
3, 124124, Note_off_c, 1, 63, 100
3, 124408, Control_c, 1, 64, 0
3, 124800, Note_on_c, 1, 62, 80
3, 124800, Note_on_c, 1, 58, 80
3, 125084, Note_off_c, 1, 62, 100
3, 125084, Note_off_c, 1, 58, 100
3, 125088, Note_on_c, 1, 60, 80
3, 125088, Note_on_c, 1, 53, 80
3, 125180, Note_off_c, 1, 60, 100
3, 125180, Note_off_c, 1, 53, 100
3, 125184, Note_on_c, 1, 60, 80
3, 125184, Note_on_c, 1, 57, 80
3, 125564, Note_off_c, 1, 60, 100
3, 125564, Note_off_c, 1, 57, 100
3, 125568, Note_on_c, 1, 62, 80
3, 125568, Note_on_c, 1, 58, 80
3, 125756, Note_off_c, 1, 62, 100
3, 125756, Note_off_c, 1, 58, 100
3, 125952, Note_on_c, 1, 55, 80
3, 125976, Note_on_c, 1, 58, 80
3, 126236, Note_off_c, 1, 55, 100
3, 126240, Note_on_c, 1, 57, 80
3, 126240, Note_on_c, 1, 50, 80
3, 126260, Note_off_c, 1, 58, 100
3, 126332, Note_off_c, 1, 57, 100
3, 126332, Note_off_c, 1, 50, 100
3, 126336, Note_on_c, 1, 57, 80
3, 126336, Note_on_c, 1, 54, 80
3, 126716, Note_off_c, 1, 57, 100
3, 126716, Note_off_c, 1, 54, 100
3, 126720, Note_on_c, 1, 58, 80
3, 126720, Note_on_c, 1, 55, 80
3, 126908, Note_off_c, 1, 58, 100
3, 126908, Note_off_c, 1, 55, 100
3, 127128, Note_on_c, 1, 51, 80
3, 127152, Note_on_c, 1, 55, 80
3, 127392, Note_on_c, 1, 53, 80
3, 127392, Note_on_c, 1, 46, 80
3, 127412, Note_off_c, 1, 51, 100
3, 127436, Note_off_c, 1, 55, 100
3, 127484, Note_off_c, 1, 53, 100
3, 127484, Note_off_c, 1, 46, 100
3, 127488, Note_on_c, 1, 53, 80
3, 127488, Note_on_c, 1, 50, 80
3, 127868, Note_off_c, 1, 53, 100
3, 127868, Note_off_c, 1, 50, 100
3, 127872, Note_on_c, 1, 55, 80
3, 127872, Note_on_c, 1, 51, 80
3, 128060, Note_off_c, 1, 55, 100
3, 128060, Note_off_c, 1, 51, 100
3, 128280, Note_on_c, 1, 55, 80
3, 128280, Note_on_c, 1, 51, 80
3, 128544, Note_on_c, 1, 53, 80
3, 128544, Note_on_c, 1, 48, 80
3, 128564, Note_off_c, 1, 55, 100
3, 128564, Note_off_c, 1, 51, 100
3, 128636, Note_off_c, 1, 53, 100
3, 128636, Note_off_c, 1, 48, 100
3, 128640, Note_on_c, 1, 53, 80
3, 128640, Note_on_c, 1, 48, 80
3, 129020, Note_off_c, 1, 53, 100
3, 129020, Note_off_c, 1, 48, 100
3, 129024, Note_on_c, 1, 53, 80
3, 129024, Note_on_c, 1, 50, 80
3, 129212, Note_off_c, 1, 53, 100
3, 129212, Note_off_c, 1, 50, 100
3, 129408, Note_on_c, 1, 53, 80
3, 129408, Note_on_c, 1, 50, 80
3, 129692, Note_off_c, 1, 50, 100
3, 129696, Note_on_c, 1, 45, 80
3, 129788, Note_off_c, 1, 53, 100
3, 129788, Note_off_c, 1, 45, 100
3, 129792, Note_on_c, 1, 53, 80
3, 129792, Note_on_c, 1, 45, 80
3, 130172, Note_off_c, 1, 53, 100
3, 130172, Note_off_c, 1, 45, 100
3, 130176, Note_on_c, 1, 44, 80
3, 130176, Note_on_c, 1, 53, 80
3, 130364, Note_off_c, 1, 44, 100
3, 130364, Note_off_c, 1, 53, 100
3, 130560, Note_on_c, 1, 53, 80
3, 130560, Note_on_c, 1, 44, 80
3, 130844, Note_off_c, 1, 53, 100
3, 130844, Note_off_c, 1, 44, 100
3, 130848, Note_on_c, 1, 51, 91
3, 130848, Note_on_c, 1, 43, 91
3, 130940, Note_off_c, 1, 51, 100
3, 130940, Note_off_c, 1, 43, 100
3, 130944, Note_on_c, 1, 51, 95
3, 130944, Note_on_c, 1, 43, 95
3, 131324, Note_off_c, 1, 51, 100
3, 131324, Note_off_c, 1, 43, 100
3, 131328, Note_on_c, 1, 49, 110
3, 131328, Note_on_c, 1, 41, 110
3, 131516, Note_off_c, 1, 49, 100
3, 131516, Note_off_c, 1, 41, 100
3, 131712, Note_on_c, 1, 48, 110
3, 131712, Note_on_c, 1, 40, 110
3, 131900, Note_off_c, 1, 48, 100
3, 131900, Note_off_c, 1, 40, 100
3, 132096, Note_on_c, 1, 53, 110
3, 132096, Note_on_c, 1, 41, 110
3, 132284, Note_off_c, 1, 53, 100
3, 132284, Note_off_c, 1, 41, 100
3, 132864, Note_on_c, 1, 74, 80
3, 132864, Note_on_c, 1, 70, 80
3, 133148, Note_off_c, 1, 74, 100
3, 133148, Note_off_c, 1, 70, 100
3, 133152, Note_on_c, 1, 72, 80
3, 133152, Note_on_c, 1, 65, 80
3, 133244, Note_off_c, 1, 72, 100
3, 133244, Note_off_c, 1, 65, 100
3, 133248, Note_on_c, 1, 72, 80
3, 133248, Note_on_c, 1, 69, 80
3, 133628, Note_off_c, 1, 72, 100
3, 133628, Note_off_c, 1, 69, 100
3, 133632, Note_on_c, 1, 74, 80
3, 133632, Note_on_c, 1, 70, 80
3, 133820, Note_off_c, 1, 74, 100
3, 133820, Note_off_c, 1, 70, 100
3, 134016, Note_on_c, 1, 67, 80
3, 134040, Note_on_c, 1, 70, 80
3, 134300, Note_off_c, 1, 67, 100
3, 134304, Note_on_c, 1, 69, 80
3, 134304, Note_on_c, 1, 62, 80
3, 134324, Note_off_c, 1, 70, 100
3, 134396, Note_off_c, 1, 69, 100
3, 134396, Note_off_c, 1, 62, 100
3, 134400, Note_on_c, 1, 69, 80
3, 134400, Note_on_c, 1, 66, 80
3, 134780, Note_off_c, 1, 69, 100
3, 134780, Note_off_c, 1, 66, 100
3, 134784, Note_on_c, 1, 70, 80
3, 134784, Note_on_c, 1, 67, 80
3, 134972, Note_off_c, 1, 70, 100
3, 134972, Note_off_c, 1, 67, 100
3, 135192, Note_on_c, 1, 63, 80
3, 135216, Note_on_c, 1, 67, 80
3, 135456, Note_on_c, 1, 65, 80
3, 135456, Note_on_c, 1, 58, 80
3, 135476, Note_off_c, 1, 63, 100
3, 135500, Note_off_c, 1, 67, 100
3, 135548, Note_off_c, 1, 65, 100
3, 135548, Note_off_c, 1, 58, 100
3, 135552, Note_on_c, 1, 65, 80
3, 135552, Note_on_c, 1, 62, 80
3, 135932, Note_off_c, 1, 65, 100
3, 135932, Note_off_c, 1, 62, 100
3, 135936, Note_on_c, 1, 67, 80
3, 135936, Note_on_c, 1, 63, 80
3, 136124, Note_off_c, 1, 67, 100
3, 136124, Note_off_c, 1, 63, 100
3, 136344, Note_on_c, 1, 67, 80
3, 136344, Note_on_c, 1, 63, 80
3, 136608, Note_on_c, 1, 65, 80
3, 136608, Note_on_c, 1, 60, 80
3, 136628, Note_off_c, 1, 67, 100
3, 136628, Note_off_c, 1, 63, 100
3, 136700, Note_off_c, 1, 65, 100
3, 136700, Note_off_c, 1, 60, 100
3, 136704, Note_on_c, 1, 65, 80
3, 136704, Note_on_c, 1, 60, 80
3, 137084, Note_off_c, 1, 65, 100
3, 137084, Note_off_c, 1, 60, 100
3, 137088, Note_on_c, 1, 65, 80
3, 137088, Note_on_c, 1, 62, 80
3, 137276, Note_off_c, 1, 65, 100
3, 137276, Note_off_c, 1, 62, 100
3, 137496, Note_on_c, 1, 74, 80
3, 137760, Note_on_c, 1, 72, 84
3, 137760, Note_on_c, 1, 69, 84
3, 137780, Note_off_c, 1, 74, 100
3, 137852, Note_off_c, 1, 72, 100
3, 137852, Note_off_c, 1, 69, 100
3, 137856, Note_on_c, 1, 72, 86
3, 137856, Note_on_c, 1, 69, 86
3, 138236, Note_off_c, 1, 72, 100
3, 138236, Note_off_c, 1, 69, 100
3, 138240, Note_on_c, 1, 70, 92
3, 138240, Note_on_c, 1, 68, 92
3, 138428, Note_off_c, 1, 70, 100
3, 138428, Note_off_c, 1, 68, 100
3, 138624, Note_on_c, 1, 70, 98
3, 138624, Note_on_c, 1, 67, 98
3, 138908, Note_off_c, 1, 67, 100
3, 138912, Note_on_c, 1, 66, 103
3, 139004, Note_off_c, 1, 70, 100
3, 139004, Note_off_c, 1, 66, 100
3, 139008, Note_on_c, 1, 70, 104
3, 139008, Note_on_c, 1, 66, 104
3, 139388, Note_off_c, 1, 70, 100
3, 139388, Note_off_c, 1, 66, 100
3, 139392, Note_on_c, 1, 72, 110
3, 139392, Note_on_c, 1, 65, 110
3, 139580, Note_off_c, 1, 72, 100
3, 139580, Note_off_c, 1, 65, 100
3, 139776, Note_on_c, 1, 60, 110
3, 139776, Note_on_c, 1, 48, 110
3, 139964, Note_off_c, 1, 60, 100
3, 139964, Note_off_c, 1, 48, 100
3, 140160, Note_on_c, 1, 65, 110
3, 140160, Note_on_c, 1, 53, 110
3, 140348, Note_off_c, 1, 65, 100
3, 140348, Note_off_c, 1, 53, 100
3, 140928, Note_on_c, 1, 65, 80
3, 140928, Note_on_c, 1, 53, 80
3, 141500, Note_off_c, 1, 53, 100
3, 141500, Note_off_c, 1, 65, 100
3, 141504, Note_on_c, 1, 53, 80
3, 141692, Note_off_c, 1, 53, 100
3, 141696, Note_on_c, 1, 65, 80
3, 141884, Note_off_c, 1, 65, 100
3, 142080, Note_on_c, 1, 53, 80
3, 142080, Note_on_c, 1, 41, 80
3, 142652, Note_off_c, 1, 41, 100
3, 142652, Note_off_c, 1, 53, 100
3, 142656, Note_on_c, 1, 41, 80
3, 142844, Note_off_c, 1, 41, 100
3, 142848, Note_on_c, 1, 53, 80
3, 143036, Note_off_c, 1, 53, 100
3, 143232, Note_on_c, 1, 53, 80
3, 143232, Note_on_c, 1, 41, 80
3, 143804, Note_off_c, 1, 41, 100
3, 143804, Note_off_c, 1, 53, 100
3, 143808, Note_on_c, 1, 41, 80
3, 143996, Note_off_c, 1, 41, 100
3, 144000, Note_on_c, 1, 53, 80
3, 144188, Note_off_c, 1, 53, 100
3, 144384, Note_on_c, 1, 41, 80
3, 144384, Note_on_c, 1, 29, 80
3, 144956, Note_off_c, 1, 29, 100
3, 144956, Note_off_c, 1, 41, 100
3, 144960, Note_on_c, 1, 29, 80
3, 145148, Note_off_c, 1, 29, 100
3, 145152, Note_on_c, 1, 41, 80
3, 145340, Note_off_c, 1, 41, 100
3, 145536, Note_on_c, 1, 42, 80
3, 145536, Note_on_c, 1, 30, 80
3, 146300, Note_off_c, 1, 30, 100
3, 146300, Note_off_c, 1, 42, 100
3, 146304, Note_on_c, 1, 31, 80
3, 146304, Note_on_c, 1, 43, 80
3, 147068, Note_off_c, 1, 31, 100
3, 147068, Note_off_c, 1, 43, 100
3, 147072, Note_on_c, 1, 45, 79
3, 147072, Note_on_c, 1, 33, 79
3, 147452, Note_off_c, 1, 45, 100
3, 147452, Note_off_c, 1, 33, 100
3, 147456, Note_on_c, 1, 46, 77
3, 147456, Note_on_c, 1, 34, 77
3, 147836, Note_off_c, 1, 46, 100
3, 147836, Note_off_c, 1, 34, 100
3, 147840, Note_on_c, 1, 47, 75
3, 147840, Note_on_c, 1, 35, 75
3, 148220, Note_off_c, 1, 47, 100
3, 148220, Note_off_c, 1, 35, 100
3, 148224, Note_on_c, 1, 48, 73
3, 148224, Note_on_c, 1, 36, 73
3, 148988, Note_off_c, 1, 48, 100
3, 148988, Note_off_c, 1, 36, 100
3, 148992, Note_on_c, 1, 36, 70
3, 149372, Note_off_c, 1, 36, 100
3, 149376, Note_on_c, 1, 43, 70
3, 150140, Note_off_c, 1, 43, 100
3, 152448, Note_on_c, 1, 55, 70
3, 152448, Note_on_c, 1, 43, 70
3, 152732, Note_off_c, 1, 43, 100
3, 152736, Note_on_c, 1, 47, 70
3, 152828, Note_off_c, 1, 47, 100
3, 152832, Note_on_c, 1, 47, 70
3, 153212, Note_off_c, 1, 47, 100
3, 153216, Note_on_c, 1, 43, 70
3, 153404, Note_off_c, 1, 55, 100
3, 153404, Note_off_c, 1, 43, 100
3, 153600, Control_c, 1, 64, 127
3, 153600, Note_on_c, 1, 72, 70
3, 153884, Note_off_c, 1, 72, 100
3, 153888, Note_on_c, 1, 75, 70
3, 153980, Note_off_c, 1, 75, 100
3, 153984, Note_on_c, 1, 75, 70
3, 154364, Note_off_c, 1, 75, 100
3, 154368, Note_on_c, 1, 72, 70
3, 154556, Note_off_c, 1, 72, 100
3, 154744, Control_c, 1, 64, 0
3, 154752, Note_on_c, 1, 55, 70
3, 154752, Note_on_c, 1, 43, 70
3, 155324, Note_off_c, 1, 43, 100
3, 155324, Note_off_c, 1, 55, 100
3, 155328, Note_on_c, 1, 43, 82
3, 155516, Note_off_c, 1, 43, 100
3, 155520, Note_on_c, 1, 55, 86
3, 155708, Note_off_c, 1, 55, 100
3, 155904, Note_on_c, 1, 48, 94
3, 155904, Note_on_c, 1, 36, 94
3, 156476, Note_off_c, 1, 36, 100
3, 156476, Note_off_c, 1, 48, 100
3, 156480, Note_on_c, 1, 36, 106
3, 156668, Note_off_c, 1, 36, 100
3, 156672, Note_on_c, 1, 48, 110
3, 156860, Note_off_c, 1, 48, 100
3, 157056, Note_on_c, 1, 41, 110
3, 157056, Note_on_c, 1, 29, 110
3, 157628, Note_off_c, 1, 29, 100
3, 157628, Note_off_c, 1, 41, 100
3, 157632, Note_on_c, 1, 41, 110
3, 157820, Note_off_c, 1, 41, 100
3, 157824, Note_on_c, 1, 53, 110
3, 158012, Note_off_c, 1, 53, 100
3, 158208, Note_on_c, 1, 46, 110
3, 158208, Note_on_c, 1, 34, 110
3, 158396, Note_off_c, 1, 46, 100
3, 158396, Note_off_c, 1, 34, 100
3, 158592, Note_on_c, 1, 46, 110
3, 158592, Note_on_c, 1, 34, 110
3, 158780, Note_off_c, 1, 46, 100
3, 158780, Note_off_c, 1, 34, 100
3, 159360, Note_on_c, 1, 77, 80
3, 159360, Note_on_c, 1, 65, 80
3, 159932, Note_off_c, 1, 65, 100
3, 159932, Note_off_c, 1, 77, 100
3, 159936, Note_on_c, 1, 65, 80
3, 160124, Note_off_c, 1, 65, 100
3, 160128, Note_on_c, 1, 77, 80
3, 160316, Note_off_c, 1, 77, 100
3, 160512, Note_on_c, 1, 65, 80
3, 160512, Note_on_c, 1, 53, 80
3, 161084, Note_off_c, 1, 53, 100
3, 161084, Note_off_c, 1, 65, 100
3, 161088, Note_on_c, 1, 53, 80
3, 161276, Note_off_c, 1, 53, 100
3, 161280, Note_on_c, 1, 65, 80
3, 161468, Note_off_c, 1, 65, 100
3, 161664, Note_on_c, 1, 65, 80
3, 161664, Note_on_c, 1, 53, 80
3, 162236, Note_off_c, 1, 53, 100
3, 162236, Note_off_c, 1, 65, 100
3, 162240, Note_on_c, 1, 53, 80
3, 162428, Note_off_c, 1, 53, 100
3, 162432, Note_on_c, 1, 65, 80
3, 162620, Note_off_c, 1, 65, 100
3, 162816, Note_on_c, 1, 53, 80
3, 162816, Note_on_c, 1, 41, 80
3, 163388, Note_off_c, 1, 41, 100
3, 163388, Note_off_c, 1, 53, 100
3, 163392, Note_on_c, 1, 41, 80
3, 163580, Note_off_c, 1, 41, 100
3, 163584, Note_on_c, 1, 53, 80
3, 163772, Note_off_c, 1, 53, 100
3, 163968, Note_on_c, 1, 63, 80
3, 163968, Note_on_c, 1, 60, 80
3, 163968, Note_on_c, 1, 54, 80
3, 164732, Note_off_c, 1, 54, 100
3, 164732, Note_off_c, 1, 60, 100
3, 164732, Note_off_c, 1, 63, 100
3, 164736, Note_on_c, 1, 63, 80
3, 164736, Note_on_c, 1, 60, 80
3, 164736, Note_on_c, 1, 54, 80
3, 165116, Note_off_c, 1, 63, 100
3, 165116, Note_off_c, 1, 60, 100
3, 165116, Note_off_c, 1, 54, 100
3, 165120, Note_on_c, 1, 62, 80
3, 165120, Note_on_c, 1, 58, 80
3, 165120, Note_on_c, 1, 55, 80
3, 165500, Note_off_c, 1, 62, 100
3, 165500, Note_off_c, 1, 58, 100
3, 165500, Note_off_c, 1, 55, 100
3, 165504, Note_on_c, 1, 60, 79
3, 165504, Note_on_c, 1, 57, 79
3, 165692, Note_off_c, 1, 57, 100
3, 165696, Note_on_c, 1, 45, 78
3, 165884, Note_off_c, 1, 60, 100
3, 165884, Note_off_c, 1, 45, 100
3, 165888, Note_on_c, 1, 58, 77
3, 165888, Note_on_c, 1, 55, 77
3, 165888, Note_on_c, 1, 46, 77
3, 166268, Note_off_c, 1, 58, 100
3, 166268, Note_off_c, 1, 55, 100
3, 166268, Note_off_c, 1, 46, 100
3, 166272, Note_on_c, 1, 47, 75
3, 166272, Note_on_c, 1, 57, 75
3, 166272, Note_on_c, 1, 53, 75
3, 166652, Note_off_c, 1, 47, 100
3, 166656, Note_on_c, 1, 48, 73
3, 167036, Note_off_c, 1, 53, 100
3, 167036, Note_off_c, 1, 57, 100
3, 167040, Note_on_c, 1, 55, 71
3, 167040, Note_on_c, 1, 52, 71
3, 167420, Note_off_c, 1, 48, 100
3, 167420, Note_off_c, 1, 55, 100
3, 167420, Note_off_c, 1, 52, 100
3, 167424, Note_on_c, 1, 51, 70
3, 167424, Note_on_c, 1, 48, 70
3, 167424, Note_on_c, 1, 60, 70
3, 167424, Note_on_c, 1, 55, 70
3, 167804, Note_off_c, 1, 51, 100
3, 167804, Note_off_c, 1, 48, 100
3, 168188, Note_off_c, 1, 60, 100
3, 168192, Note_on_c, 1, 59, 70
3, 168572, Note_off_c, 1, 55, 100
3, 168572, Note_off_c, 1, 59, 100
3, 170880, Note_on_c, 1, 43, 70
3, 170880, Note_on_c, 1, 31, 70
3, 171164, Note_off_c, 1, 31, 100
3, 171168, Note_on_c, 1, 35, 70
3, 171260, Note_off_c, 1, 35, 100
3, 171264, Note_on_c, 1, 35, 70
3, 171644, Note_off_c, 1, 35, 100
3, 171648, Note_on_c, 1, 31, 70
3, 171836, Note_off_c, 1, 43, 100
3, 171836, Note_off_c, 1, 31, 100
3, 172032, Control_c, 1, 64, 127
3, 172032, Note_on_c, 1, 72, 70
3, 172316, Note_off_c, 1, 72, 100
3, 172320, Note_on_c, 1, 75, 70
3, 172412, Note_off_c, 1, 75, 100
3, 172416, Note_on_c, 1, 75, 70
3, 172796, Note_off_c, 1, 75, 100
3, 172800, Note_on_c, 1, 72, 70
3, 172988, Note_off_c, 1, 72, 100
3, 173176, Control_c, 1, 64, 0
3, 173184, Note_on_c, 1, 67, 70
3, 173184, Note_on_c, 1, 55, 70
3, 173756, Note_off_c, 1, 55, 100
3, 173756, Note_off_c, 1, 67, 100
3, 173760, Note_on_c, 1, 55, 82
3, 173948, Note_off_c, 1, 55, 100
3, 173952, Note_on_c, 1, 67, 86
3, 174140, Note_off_c, 1, 67, 100
3, 174336, Note_on_c, 1, 60, 94
3, 174336, Note_on_c, 1, 48, 94
3, 174908, Note_off_c, 1, 48, 100
3, 174908, Note_off_c, 1, 60, 100
3, 174912, Note_on_c, 1, 48, 106
3, 175100, Note_off_c, 1, 48, 100
3, 175104, Note_on_c, 1, 60, 110
3, 175292, Note_off_c, 1, 60, 100
3, 175488, Note_on_c, 1, 53, 110
3, 175488, Note_on_c, 1, 41, 110
3, 176060, Note_off_c, 1, 41, 100
3, 176060, Note_off_c, 1, 53, 100
3, 176064, Note_on_c, 1, 41, 110
3, 176252, Note_off_c, 1, 41, 100
3, 176256, Note_on_c, 1, 53, 110
3, 176444, Note_off_c, 1, 53, 100
3, 176640, Note_on_c, 1, 46, 110
3, 176640, Note_on_c, 1, 34, 110
3, 176828, Note_off_c, 1, 46, 100
3, 176828, Note_off_c, 1, 34, 100
3, 177024, Note_on_c, 1, 46, 110
3, 177024, Note_on_c, 1, 34, 110
3, 177212, Note_off_c, 1, 46, 100
3, 177212, Note_off_c, 1, 34, 100
3, 177792, Note_on_c, 1, 47, 80
3, 177792, Note_on_c, 1, 35, 80
3, 177980, Note_off_c, 1, 47, 100
3, 177980, Note_off_c, 1, 35, 100
3, 178176, Note_on_c, 1, 47, 80
3, 178176, Note_on_c, 1, 35, 80
3, 178364, Note_off_c, 1, 47, 100
3, 178364, Note_off_c, 1, 35, 100
3, 178944, Note_on_c, 1, 46, 110
3, 178944, Note_on_c, 1, 34, 110
3, 179132, Note_off_c, 1, 46, 100
3, 179132, Note_off_c, 1, 34, 100
3, 179328, Note_on_c, 1, 46, 110
3, 179328, Note_on_c, 1, 34, 110
3, 179516, Note_off_c, 1, 46, 100
3, 179516, Note_off_c, 1, 34, 100
3, 180096, Note_on_c, 1, 47, 80
3, 180096, Note_on_c, 1, 35, 80
3, 180284, Note_off_c, 1, 47, 100
3, 180284, Note_off_c, 1, 35, 100
3, 180480, Note_on_c, 1, 47, 79
3, 180480, Note_on_c, 1, 35, 79
3, 180668, Note_off_c, 1, 47, 100
3, 180668, Note_off_c, 1, 35, 100
3, 181248, Note_on_c, 1, 34, 77
3, 181248, Note_on_c, 1, 46, 77
3, 181436, Note_off_c, 1, 34, 100
3, 181436, Note_off_c, 1, 46, 100
3, 181632, Note_on_c, 1, 46, 76
3, 181632, Note_on_c, 1, 34, 76
3, 181820, Note_off_c, 1, 46, 100
3, 181820, Note_off_c, 1, 34, 100
3, 183552, Note_on_c, 1, 47, 70
3, 183552, Note_on_c, 1, 35, 70
3, 183740, Note_off_c, 1, 47, 100
3, 183740, Note_off_c, 1, 35, 100
3, 183936, Note_on_c, 1, 47, 70
3, 183936, Note_on_c, 1, 35, 70
3, 184124, Note_off_c, 1, 47, 100
3, 184124, Note_off_c, 1, 35, 100
3, 184704, Note_on_c, 1, 47, 70
3, 184704, Note_on_c, 1, 35, 70
3, 184892, Note_off_c, 1, 47, 100
3, 184892, Note_off_c, 1, 35, 100
3, 185088, Note_on_c, 1, 47, 74
3, 185088, Note_on_c, 1, 35, 74
3, 185276, Note_off_c, 1, 47, 100
3, 185276, Note_off_c, 1, 35, 100
3, 185856, Note_on_c, 1, 47, 83
3, 185856, Note_on_c, 1, 35, 83
3, 186044, Note_off_c, 1, 47, 100
3, 186044, Note_off_c, 1, 35, 100
3, 186240, Key_signature, 0, "major"
3, 186240, Note_on_c, 1, 47, 88
3, 186240, Note_on_c, 1, 35, 88
3, 186620, Note_off_c, 1, 47, 100
3, 186620, Note_off_c, 1, 35, 100
3, 186624, Note_on_c, 1, 47, 93
3, 186624, Note_on_c, 1, 35, 93
3, 187004, Note_off_c, 1, 47, 100
3, 187004, Note_off_c, 1, 35, 100
3, 187008, Note_on_c, 1, 47, 97
3, 187008, Note_on_c, 1, 35, 97
3, 187388, Note_off_c, 1, 47, 100
3, 187388, Note_off_c, 1, 35, 100
3, 187392, Note_on_c, 1, 47, 102
3, 187392, Note_on_c, 1, 35, 102
3, 187772, Note_off_c, 1, 47, 100
3, 187772, Note_off_c, 1, 35, 100
3, 187776, Note_on_c, 1, 47, 107
3, 187776, Note_on_c, 1, 35, 107
3, 188156, Note_off_c, 1, 47, 100
3, 188156, Note_off_c, 1, 35, 100
3, 188160, Note_on_c, 1, 47, 111
3, 188160, Note_on_c, 1, 35, 111
3, 188540, Note_off_c, 1, 47, 100
3, 188540, Note_off_c, 1, 35, 100
3, 188544, Note_on_c, 1, 47, 116
3, 188544, Note_on_c, 1, 35, 116
3, 188924, Note_off_c, 1, 47, 100
3, 188924, Note_off_c, 1, 35, 100
3, 188928, Note_on_c, 1, 47, 120
3, 188928, Note_on_c, 1, 35, 120
3, 189308, Note_off_c, 1, 47, 100
3, 189308, Note_off_c, 1, 35, 100
3, 189312, Note_on_c, 1, 47, 120
3, 189312, Note_on_c, 1, 35, 120
3, 189692, Note_off_c, 1, 47, 100
3, 189692, Note_off_c, 1, 35, 100
3, 189696, Note_on_c, 1, 47, 120
3, 189696, Note_on_c, 1, 35, 120
3, 190076, Note_off_c, 1, 47, 100
3, 190076, Note_off_c, 1, 35, 100
3, 190080, Note_on_c, 1, 47, 120
3, 190080, Note_on_c, 1, 35, 120
3, 190460, Note_off_c, 1, 47, 100
3, 190460, Note_off_c, 1, 35, 100
3, 190464, Note_on_c, 1, 47, 120
3, 190464, Note_on_c, 1, 35, 120
3, 190844, Note_off_c, 1, 47, 100
3, 190844, Note_off_c, 1, 35, 100
3, 190848, Note_on_c, 1, 47, 120
3, 190848, Note_on_c, 1, 35, 120
3, 191228, Note_off_c, 1, 47, 100
3, 191228, Note_off_c, 1, 35, 100
3, 191232, Note_on_c, 1, 47, 120
3, 191232, Note_on_c, 1, 35, 120
3, 191612, Note_off_c, 1, 47, 100
3, 191612, Note_off_c, 1, 35, 100
3, 191616, Note_on_c, 1, 47, 120
3, 191616, Note_on_c, 1, 35, 120
3, 191996, Note_off_c, 1, 47, 100
3, 191996, Note_off_c, 1, 35, 100
3, 192000, Note_on_c, 1, 46, 120
3, 192000, Note_on_c, 1, 34, 120
3, 192188, Note_off_c, 1, 46, 100
3, 192188, Note_off_c, 1, 34, 100
3, 192384, Key_signature, -2, "major"
3, 192384, Note_on_c, 1, 46, 120
3, 192384, Note_on_c, 1, 34, 120
3, 192572, Note_off_c, 1, 46, 100
3, 192572, Note_off_c, 1, 34, 100
3, 193152, Note_on_c, 1, 58, 80
3, 193436, Note_off_c, 1, 58, 100
3, 193440, Note_on_c, 1, 53, 80
3, 193532, Note_off_c, 1, 53, 100
3, 193536, Note_on_c, 1, 57, 80
3, 193916, Note_off_c, 1, 57, 100
3, 193920, Note_on_c, 1, 58, 80
3, 194108, Note_off_c, 1, 58, 100
3, 194304, Note_on_c, 1, 70, 80
3, 194588, Note_off_c, 1, 70, 100
3, 194592, Note_on_c, 1, 65, 80
3, 194684, Note_off_c, 1, 65, 100
3, 194688, Note_on_c, 1, 69, 80
3, 195068, Note_off_c, 1, 69, 100
3, 195072, Note_on_c, 1, 70, 80
3, 195260, Note_off_c, 1, 70, 100
3, 195456, Note_on_c, 1, 82, 80
3, 195740, Note_off_c, 1, 82, 100
3, 195744, Note_on_c, 1, 77, 80
3, 195836, Note_off_c, 1, 77, 100
3, 195840, Note_on_c, 1, 81, 80
3, 196220, Note_off_c, 1, 81, 100
3, 196224, Note_on_c, 1, 82, 80
3, 196604, Note_off_c, 1, 82, 100
3, 196604, End_track
0, 0, End_of_file
