0, 0, Header, 1, 3, 384
1, 0, Start_track
1, 0, Title_t, "L.v.Beethoven 3mov - Piano Sonata No.29 in Bb Major Op.106\000"
1, 0, Copyright_t, "Copyright(C) 1995-2009, Suzuki Software\000"
1, 0, Sequencer_specific, 9, 67, 123, 0, 88, 70, 48, 50, 0, 1
1, 0, Text_t, "XFhd:2000/10/13:JP:Classical::::L.v.Beethoven:::Kaoru Suzuki\000"
1, 0, Text_t, "XFln:JP:\203s\203A\203m\203\\\203i\203^\221æ29\224Ô\225Ï\203\215\222·\222²\215ì\225i106\201`\221æ3\212y\217Í:L.v.\203x\201[\203g\201[\203\224\203F\203\223:::\227é\202¿\202á\202ñ:\227é\202¿\202á\202ñ\000"
1, 0, Time_signature, 6, 3, 96, 8
1, 0, Sequencer_specific, 3, 0, 0, 65
1, 0, Sequencer_specific, 5, 0, 0, 119, 14, 0
1, 0, Tempo, 1304347
1, 576, Tempo, 1363636
1, 1152, Tempo, 1304347
1, 1920, Tempo, 1333333
1, 2112, Tempo, 1363636
1, 2880, Tempo, 1304347
1, 4224, Tempo, 1363636
1, 4416, Tempo, 1395348
1, 5760, Tempo, 1304347
1, 8832, Tempo, 1363636
1, 9024, Tempo, 1395348
1, 9216, Tempo, 1333333
1, 9600, Tempo, 1304347
1, 11520, Tempo, 1333333
1, 11904, Tempo, 1395348
1, 12288, Tempo, 1348314
1, 12480, Tempo, 1304347
1, 13824, Tempo, 1363636
1, 14400, Tempo, 1395348
1, 14784, Tempo, 1621621
1, 14976, Tempo, 2000000
1, 15360, Tempo, 1428571
1, 16128, Tempo, 1500000
1, 16704, Tempo, 1578947
1, 17280, Tempo, 1333333
1, 18816, Tempo, 1363636
1, 19392, Tempo, 1395348
1, 19488, Tempo, 1463414
1, 19584, Tempo, 1363636
1, 21888, Tempo, 1428571
1, 22656, Tempo, 1463414
1, 22848, Tempo, 1500000
1, 23808, Tempo, 1621621
1, 24000, Tempo, 2000000
1, 24384, Tempo, 1621621
1, 24960, Tempo, 1500000
1, 25728, Tempo, 1538461
1, 25920, Tempo, 1621621
1, 26112, Tempo, 1714285
1, 26496, Tempo, 1500000
1, 26688, Tempo, 1428571
1, 28416, Tempo, 1463414
1, 28608, Tempo, 1538461
1, 28800, Tempo, 1463414
1, 29376, Tempo, 1538461
1, 29568, Tempo, 1621621
1, 29760, Tempo, 2000000
1, 30144, Tempo, 1621621
1, 43200, Tempo, 1666666
1, 43392, Tempo, 1764705
1, 43584, Tempo, 2000000
1, 43680, Tempo, 2400000
1, 43776, Tempo, 2000000
1, 43872, Tempo, 1875000
1, 43968, Tempo, 1714285
1, 49152, Tempo, 1818181
1, 49344, Tempo, 2000000
1, 49536, Tempo, 1500000
1, 49650, Tempo, 1578947
1, 49764, Tempo, 1621621
1, 49878, Tempo, 1714285
1, 49992, Tempo, 1818181
1, 50106, Tempo, 1875000
1, 50220, Tempo, 1935483
1, 50334, Tempo, 2068965
1, 50448, Tempo, 2142857
1, 50562, Tempo, 2307692
1, 50676, Tempo, 2400000
1, 50688, Tempo, 1714285
1, 50784, Tempo, 1500000
1, 50880, Tempo, 1304347
1, 57216, Tempo, 1363636
1, 57408, Tempo, 1428571
1, 57504, Tempo, 1714285
1, 57600, Tempo, 1500000
1, 57696, Tempo, 1395348
1, 57792, Tempo, 1304347
1, 64008, Tempo, 1363636
1, 64080, Tempo, 1428571
1, 64152, Tempo, 1500000
1, 64224, Tempo, 1578947
1, 64314, Tempo, 1714285
1, 64386, Tempo, 1818181
1, 64448, Tempo, 2727272
1, 64512, Tempo, 1500000
1, 65664, Tempo, 1875000
1, 65740, Tempo, 1818181
1, 65816, Tempo, 1818181
1, 65892, Tempo, 1764705
1, 65968, Tempo, 1764705
1, 66044, Tempo, 1714285
1, 66196, Tempo, 1666666
1, 66348, Tempo, 1621621
1, 66500, Tempo, 1578947
1, 66652, Tempo, 1538461
1, 66804, Tempo, 1500000
1, 67968, Tempo, 1875000
1, 69024, Tempo, 2222222
1, 69120, Tempo, 2000000
1, 70464, Tempo, 1935483
1, 78336, Tempo, 1875000
1, 79488, Tempo, 1714285
1, 79718, Tempo, 1714285
1, 79948, Tempo, 1666666
1, 80178, Tempo, 1666666
1, 80408, Tempo, 1621621
1, 80638, Tempo, 1621621
1, 85248, Tempo, 1500000
1, 86400, Tempo, 1428571
1, 113664, Tempo, 1500000
1, 113856, Tempo, 1578947
1, 113952, Tempo, 1621621
1, 114096, Tempo, 1538461
1, 114144, Tempo, 1500000
1, 114240, Tempo, 1428571
1, 118272, Tempo, 1428571
1, 118310, Tempo, 1463414
1, 118348, Tempo, 1500000
1, 118386, Tempo, 1500000
1, 118424, Tempo, 1538461
1, 118462, Tempo, 1578947
1, 118500, Tempo, 1578947
1, 118538, Tempo, 1621621
1, 118576, Tempo, 1666666
1, 118614, Tempo, 1714285
1, 118652, Tempo, 1764705
1, 120192, Tempo, 1875000
1, 120288, Tempo, 2000000
1, 120384, Tempo, 1875000
1, 120480, Tempo, 1764705
1, 122688, Tempo, 1818181
1, 122880, Tempo, 1935483
1, 123072, Tempo, 2000000
1, 123168, Tempo, 2400000
1, 123456, Tempo, 2142857
1, 123648, Tempo, 1875000
1, 124416, Tempo, 1875000
1, 124876, Tempo, 1875000
1, 125336, Tempo, 1935483
1, 125796, Tempo, 1935483
1, 126256, Tempo, 2000000
1, 126716, Tempo, 2000000
1, 127176, Tempo, 2068965
1, 127636, Tempo, 2068965
1, 128096, Tempo, 2142857
1, 128556, Tempo, 2142857
1, 128974, Tempo, 3000000
1, 129024, Tempo, 1500000
1, 141312, Tempo, 1578947
1, 141504, Tempo, 1714285
1, 141600, Tempo, 2000000
1, 141696, Tempo, 1714285
1, 141792, Tempo, 1621621
1, 141888, Tempo, 1500000
1, 142464, Tempo, 1578947
1, 142656, Tempo, 1666666
1, 142848, Tempo, 1578947
1, 142944, Tempo, 1500000
1, 143616, Tempo, 1578947
1, 143808, Tempo, 1666666
1, 144096, Tempo, 1578947
1, 144192, Tempo, 1500000
1, 147072, Tempo, 1621621
1, 147264, Tempo, 1714285
1, 147360, Tempo, 2000000
1, 147456, Tempo, 1621621
1, 147568, Tempo, 1500000
1, 147680, Tempo, 1621621
1, 147792, Tempo, 1621621
1, 147904, Tempo, 1666666
1, 148016, Tempo, 1714285
1, 148128, Tempo, 1764705
1, 148240, Tempo, 1818181
1, 148352, Tempo, 1875000
1, 148464, Tempo, 1935483
1, 148576, Tempo, 2000000
1, 148608, Tempo, 1304347
1, 150528, Tempo, 1395348
1, 150720, Tempo, 1463414
1, 150816, Tempo, 1500000
1, 151008, Tempo, 1395348
1, 151104, Tempo, 1363636
1, 151296, Tempo, 1304347
1, 161856, Tempo, 1304347
1, 161908, Tempo, 1333333
1, 161960, Tempo, 1363636
1, 162012, Tempo, 1395348
1, 162064, Tempo, 1428571
1, 162116, Tempo, 1463414
1, 162168, Tempo, 1500000
1, 162220, Tempo, 1538461
1, 162272, Tempo, 1578947
1, 162324, Tempo, 1621621
1, 162376, Tempo, 1666666
1, 162428, Tempo, 1714285
1, 162432, Tempo, 1500000
1, 163584, Tempo, 1714285
1, 166272, Tempo, 2000000
1, 167040, Tempo, 1714285
1, 176256, Tempo, 1500000
1, 180480, Tempo, 1578947
1, 180672, Tempo, 1666666
1, 180768, Tempo, 2000000
1, 180864, Tempo, 1714285
1, 180960, Tempo, 1621621
1, 181056, Tempo, 1500000
1, 182784, Tempo, 1621621
1, 182976, Tempo, 1714285
1, 183072, Tempo, 2000000
1, 183168, Tempo, 1714285
1, 183264, Tempo, 1621621
1, 183360, Tempo, 1500000
1, 187776, Tempo, 1395348
1, 189888, Tempo, 1500000
1, 189984, Tempo, 1714285
1, 190028, Tempo, 3000000
1, 190080, Tempo, 1500000
1, 190464, Tempo, 1428571
1, 193536, Tempo, 1395348
1, 193776, Tempo, 1428571
1, 193968, Tempo, 1428571
1, 194208, Tempo, 1463414
1, 194400, Tempo, 1463414
1, 194496, Tempo, 1714285
1, 194688, Tempo, 1621621
1, 194880, Tempo, 1500000
1, 195076, Tempo, 1538461
1, 195296, Tempo, 1538461
1, 195516, Tempo, 1578947
1, 195736, Tempo, 1578947
1, 195956, Tempo, 1621621
1, 196176, Tempo, 1621621
1, 196396, Tempo, 1666666
1, 196616, Tempo, 1666666
1, 196836, Tempo, 1714285
1, 197056, Tempo, 1714285
1, 197276, Tempo, 1764705
1, 197496, Tempo, 1764705
1, 197716, Tempo, 1818181
1, 197936, Tempo, 1818181
1, 198156, Tempo, 1875000
1, 198376, Tempo, 1875000
1, 198596, Tempo, 1935483
1, 198816, Tempo, 1935483
1, 199036, Tempo, 2000000
1, 199256, Tempo, 2000000
1, 199296, Tempo, 1304347
1, 202944, Tempo, 1578947
1, 203136, Tempo, 1666666
1, 203232, Tempo, 2000000
1, 203328, Tempo, 1875000
1, 203424, Tempo, 1621621
1, 203520, Tempo, 1500000
1, 206976, Tempo, 1621621
1, 207168, Tempo, 1714285
1, 207264, Tempo, 2000000
1, 207360, Tempo, 1875000
1, 207456, Tempo, 1714285
1, 207552, Tempo, 1621621
1, 210816, Tempo, 1666666
1, 211392, Tempo, 1666666
1, 211968, Tempo, 1714285
1, 212544, Tempo, 1714285
1, 213120, Tempo, 1764705
1, 213696, Tempo, 1818181
1, 213696, End_track
2, 0, Start_track
2, 0, Title_t, "Right"
2, 0, Control_c, 0, 0, 0
2, 0, Program_c, 0, 0
2, 0, Control_c, 0, 7, 100
2, 0, Control_c, 0, 10, 79
2, 0, Control_c, 0, 91, 127
2, 0, Key_signature, 3, "minor"
2, 0, Note_on_c, 0, 57, 80
2, 572, Note_off_c, 0, 57, 100
2, 576, Note_on_c, 0, 61, 80
2, 1148, Note_off_c, 0, 61, 100
2, 1152, Note_on_c, 0, 66, 80
2, 1152, Note_on_c, 0, 61, 80
2, 1152, Note_on_c, 0, 73, 80
2, 1152, Note_on_c, 0, 69, 80
2, 1532, Note_off_c, 0, 73, 100
2, 1532, Note_off_c, 0, 69, 100
2, 1536, Note_on_c, 0, 69, 80
2, 1724, Note_off_c, 0, 66, 100
2, 1724, Note_off_c, 0, 61, 100
2, 1724, Note_off_c, 0, 69, 100
2, 1728, Note_on_c, 0, 69, 80
2, 1728, Note_on_c, 0, 61, 80
2, 1916, Note_off_c, 0, 69, 100
2, 1916, Note_off_c, 0, 61, 100
2, 1920, Note_on_c, 0, 66, 80
2, 1920, Note_on_c, 0, 61, 80
2, 2108, Note_off_c, 0, 66, 100
2, 2108, Note_off_c, 0, 61, 100
2, 2112, Note_on_c, 0, 68, 80
2, 2112, Note_on_c, 0, 65, 80
2, 2112, Note_on_c, 0, 61, 80
2, 2112, Note_on_c, 0, 59, 80
2, 2300, Note_off_c, 0, 68, 100
2, 2300, Note_off_c, 0, 65, 100
2, 2300, Note_off_c, 0, 61, 100
2, 2300, Note_off_c, 0, 59, 100
2, 2304, Note_on_c, 0, 69, 80
2, 2304, Note_on_c, 0, 66, 80
2, 2304, Note_on_c, 0, 61, 80
2, 2304, Note_on_c, 0, 57, 80
2, 2876, Note_off_c, 0, 69, 100
2, 2876, Note_off_c, 0, 66, 100
2, 2876, Note_off_c, 0, 61, 100
2, 2876, Note_off_c, 0, 57, 100
2, 2880, Note_on_c, 0, 59, 80
2, 2880, Note_on_c, 0, 71, 80
2, 2880, Note_on_c, 0, 66, 80
2, 3260, Note_off_c, 0, 59, 100
2, 3260, Note_off_c, 0, 71, 100
2, 3260, Note_off_c, 0, 66, 100
2, 3264, Note_on_c, 0, 74, 80
2, 3264, Note_on_c, 0, 66, 80
2, 3264, Note_on_c, 0, 62, 80
2, 3452, Note_off_c, 0, 74, 100
2, 3452, Note_off_c, 0, 66, 100
2, 3452, Note_off_c, 0, 62, 100
2, 3456, Note_on_c, 0, 74, 80
2, 3456, Note_on_c, 0, 66, 80
2, 3456, Note_on_c, 0, 62, 80
2, 3836, Note_off_c, 0, 74, 100
2, 3836, Note_off_c, 0, 66, 100
2, 3836, Note_off_c, 0, 62, 100
2, 3840, Note_on_c, 0, 73, 80
2, 3840, Note_on_c, 0, 66, 80
2, 3840, Note_on_c, 0, 61, 80
2, 4028, Note_off_c, 0, 73, 100
2, 4028, Note_off_c, 0, 66, 100
2, 4028, Note_off_c, 0, 61, 100
2, 4032, Note_on_c, 0, 73, 80
2, 4032, Note_on_c, 0, 66, 80
2, 4032, Note_on_c, 0, 61, 80
2, 4220, Note_off_c, 0, 73, 100
2, 4220, Note_off_c, 0, 66, 100
2, 4220, Note_off_c, 0, 61, 100
2, 4224, Note_on_c, 0, 77, 80
2, 4224, Note_on_c, 0, 73, 80
2, 4224, Note_on_c, 0, 71, 80
2, 4224, Note_on_c, 0, 65, 80
2, 4412, Note_off_c, 0, 77, 100
2, 4412, Note_off_c, 0, 73, 100
2, 4412, Note_off_c, 0, 71, 100
2, 4412, Note_off_c, 0, 65, 100
2, 4416, Note_on_c, 0, 78, 80
2, 4416, Note_on_c, 0, 73, 80
2, 4416, Note_on_c, 0, 69, 80
2, 4416, Note_on_c, 0, 66, 80
2, 4604, Note_off_c, 0, 78, 100
2, 4604, Note_off_c, 0, 73, 100
2, 4604, Note_off_c, 0, 69, 100
2, 4604, Note_off_c, 0, 66, 100
2, 4608, Note_on_c, 0, 80, 80
2, 4608, Note_on_c, 0, 73, 80
2, 4608, Note_on_c, 0, 68, 80
2, 5180, Note_off_c, 0, 80, 100
2, 5180, Note_off_c, 0, 73, 100
2, 5180, Note_off_c, 0, 68, 100
2, 5184, Control_c, 0, 64, 127
2, 5184, Note_on_c, 0, 74, 80
2, 5184, Note_on_c, 0, 71, 80
2, 5184, Note_on_c, 0, 68, 80
2, 5756, Note_off_c, 0, 74, 100
2, 5756, Note_off_c, 0, 71, 100
2, 5756, Note_off_c, 0, 68, 100
2, 5760, Note_on_c, 0, 74, 80
2, 5760, Note_on_c, 0, 71, 80
2, 5760, Note_on_c, 0, 68, 80
2, 6140, Control_c, 0, 64, 0
2, 6144, Note_on_c, 0, 62, 80
2, 6332, Note_off_c, 0, 74, 100
2, 6332, Note_off_c, 0, 71, 100
2, 6332, Note_off_c, 0, 68, 100
2, 6332, Note_off_c, 0, 62, 100
2, 6336, Note_on_c, 0, 73, 80
2, 6336, Note_on_c, 0, 69, 80
2, 6336, Note_on_c, 0, 61, 80
2, 6716, Note_off_c, 0, 73, 100
2, 6716, Note_off_c, 0, 69, 100
2, 6716, Note_off_c, 0, 61, 100
2, 6720, Note_on_c, 0, 71, 80
2, 6720, Note_on_c, 0, 65, 80
2, 6720, Note_on_c, 0, 62, 80
2, 6720, Note_on_c, 0, 59, 80
2, 6908, Note_off_c, 0, 71, 100
2, 6908, Note_off_c, 0, 65, 100
2, 6908, Note_off_c, 0, 62, 100
2, 6908, Note_off_c, 0, 59, 100
2, 6912, Note_on_c, 0, 71, 80
2, 6912, Note_on_c, 0, 65, 80
2, 6912, Note_on_c, 0, 62, 80
2, 6912, Note_on_c, 0, 59, 80
2, 7484, Note_off_c, 0, 71, 100
2, 7484, Note_off_c, 0, 65, 100
2, 7484, Note_off_c, 0, 62, 100
2, 7484, Note_off_c, 0, 59, 100
2, 7488, Note_on_c, 0, 71, 80
2, 7488, Note_on_c, 0, 65, 80
2, 7488, Note_on_c, 0, 62, 80
2, 7488, Note_on_c, 0, 59, 80
2, 7676, Note_off_c, 0, 71, 100
2, 7676, Note_off_c, 0, 65, 100
2, 7676, Note_off_c, 0, 62, 100
2, 7676, Note_off_c, 0, 59, 100
2, 7680, Note_on_c, 0, 69, 80
2, 7680, Note_on_c, 0, 66, 80
2, 7680, Note_on_c, 0, 61, 80
2, 7680, Note_on_c, 0, 57, 80
2, 7868, Note_off_c, 0, 69, 100
2, 7868, Note_off_c, 0, 66, 100
2, 7868, Note_off_c, 0, 61, 100
2, 7868, Note_off_c, 0, 57, 100
2, 7872, Note_on_c, 0, 68, 80
2, 7872, Note_on_c, 0, 66, 80
2, 7872, Note_on_c, 0, 62, 80
2, 7872, Note_on_c, 0, 56, 80
2, 8060, Note_off_c, 0, 68, 100
2, 8060, Note_off_c, 0, 66, 100
2, 8060, Note_off_c, 0, 62, 100
2, 8060, Note_off_c, 0, 56, 100
2, 8064, Note_on_c, 0, 68, 80
2, 8064, Note_on_c, 0, 66, 80
2, 8064, Note_on_c, 0, 63, 80
2, 8064, Note_on_c, 0, 56, 80
2, 8444, Note_off_c, 0, 68, 100
2, 8444, Note_off_c, 0, 66, 100
2, 8444, Note_off_c, 0, 63, 100
2, 8444, Note_off_c, 0, 56, 100
2, 8448, Note_on_c, 0, 68, 80
2, 8448, Note_on_c, 0, 66, 80
2, 8448, Note_on_c, 0, 63, 80
2, 8448, Note_on_c, 0, 56, 80
2, 8636, Note_off_c, 0, 68, 100
2, 8636, Note_off_c, 0, 66, 100
2, 8636, Note_off_c, 0, 63, 100
2, 8636, Note_off_c, 0, 56, 100
2, 8640, Note_on_c, 0, 68, 80
2, 8640, Note_on_c, 0, 66, 80
2, 8640, Note_on_c, 0, 63, 80
2, 8640, Note_on_c, 0, 56, 80
2, 8828, Note_off_c, 0, 68, 100
2, 8828, Note_off_c, 0, 66, 100
2, 8828, Note_off_c, 0, 63, 100
2, 8828, Note_off_c, 0, 56, 100
2, 8832, Note_on_c, 0, 69, 80
2, 8832, Note_on_c, 0, 66, 80
2, 8832, Note_on_c, 0, 63, 80
2, 8832, Note_on_c, 0, 57, 80
2, 9020, Note_off_c, 0, 69, 100
2, 9020, Note_off_c, 0, 66, 100
2, 9020, Note_off_c, 0, 63, 100
2, 9020, Note_off_c, 0, 57, 100
2, 9024, Note_on_c, 0, 66, 80
2, 9024, Note_on_c, 0, 63, 80
2, 9024, Note_on_c, 0, 57, 80
2, 9024, Note_on_c, 0, 54, 80
2, 9212, Note_off_c, 0, 66, 100
2, 9212, Note_off_c, 0, 63, 100
2, 9212, Note_off_c, 0, 57, 100
2, 9212, Note_off_c, 0, 54, 100
2, 9216, Note_on_c, 0, 66, 80
2, 9216, Note_on_c, 0, 57, 80
2, 9216, Note_on_c, 0, 54, 80
2, 9216, Note_on_c, 0, 63, 80
2, 9404, Note_off_c, 0, 63, 100
2, 9408, Note_on_c, 0, 60, 80
2, 9596, Note_off_c, 0, 60, 100
2, 9600, Note_on_c, 0, 61, 81
2, 9788, Note_off_c, 0, 66, 100
2, 9788, Note_off_c, 0, 57, 100
2, 9788, Note_off_c, 0, 54, 100
2, 9788, Note_off_c, 0, 61, 100
2, 9792, Note_on_c, 0, 65, 82
2, 9792, Note_on_c, 0, 61, 82
2, 9792, Note_on_c, 0, 56, 82
2, 9792, Note_on_c, 0, 53, 82
2, 9980, Note_off_c, 0, 65, 100
2, 9980, Note_off_c, 0, 61, 100
2, 9980, Note_off_c, 0, 56, 100
2, 9980, Note_off_c, 0, 53, 100
2, 9984, Note_on_c, 0, 68, 83
2, 10172, Note_off_c, 0, 68, 100
2, 10176, Note_on_c, 0, 71, 84
2, 10364, Note_off_c, 0, 71, 100
2, 10368, Note_on_c, 0, 71, 85
2, 10368, Note_on_c, 0, 62, 85
2, 10368, Note_on_c, 0, 65, 85
2, 10556, Note_off_c, 0, 65, 100
2, 10560, Note_on_c, 0, 68, 85
2, 10748, Note_off_c, 0, 71, 100
2, 10748, Note_off_c, 0, 62, 100
2, 10748, Note_off_c, 0, 68, 100
2, 10752, Note_on_c, 0, 69, 86
2, 10752, Note_on_c, 0, 66, 86
2, 10752, Note_on_c, 0, 61, 86
2, 10940, Note_off_c, 0, 69, 100
2, 10940, Note_off_c, 0, 66, 100
2, 10940, Note_off_c, 0, 61, 100
2, 10944, Note_on_c, 0, 69, 87
2, 10944, Note_on_c, 0, 66, 87
2, 10944, Note_on_c, 0, 61, 87
2, 11132, Note_off_c, 0, 69, 100
2, 11132, Note_off_c, 0, 66, 100
2, 11132, Note_off_c, 0, 61, 100
2, 11136, Note_on_c, 0, 68, 88
2, 11136, Note_on_c, 0, 65, 88
2, 11136, Note_on_c, 0, 62, 88
2, 11136, Note_on_c, 0, 59, 88
2, 11324, Note_off_c, 0, 68, 100
2, 11324, Note_off_c, 0, 65, 100
2, 11324, Note_off_c, 0, 62, 100
2, 11324, Note_off_c, 0, 59, 100
2, 11328, Note_on_c, 0, 66, 89
2, 11328, Note_on_c, 0, 63, 89
2, 11328, Note_on_c, 0, 57, 89
2, 11420, Note_off_c, 0, 57, 100
2, 11424, Note_on_c, 0, 60, 89
2, 11516, Note_off_c, 0, 66, 100
2, 11516, Note_off_c, 0, 63, 100
2, 11516, Note_off_c, 0, 60, 100
2, 11520, Note_on_c, 0, 66, 90
2, 11520, Note_on_c, 0, 63, 90
2, 11520, Note_on_c, 0, 60, 90
2, 11520, Note_on_c, 0, 57, 90
2, 11900, Note_off_c, 0, 66, 100
2, 11900, Note_off_c, 0, 63, 100
2, 11900, Note_off_c, 0, 60, 100
2, 11900, Note_off_c, 0, 57, 100
2, 11904, Note_on_c, 0, 61, 91
2, 11904, Note_on_c, 0, 56, 91
2, 11904, Note_on_c, 0, 65, 91
2, 12092, Note_off_c, 0, 61, 100
2, 12092, Note_off_c, 0, 56, 100
2, 12092, Note_off_c, 0, 65, 100
2, 12096, Note_on_c, 0, 65, 92
2, 12284, Note_off_c, 0, 65, 100
2, 12288, Note_on_c, 0, 68, 93
2, 12476, Note_off_c, 0, 68, 100
2, 12480, Note_on_c, 0, 68, 94
2, 12480, Note_on_c, 0, 65, 94
2, 12480, Note_on_c, 0, 71, 94
2, 12572, Note_off_c, 0, 71, 100
2, 12576, Note_on_c, 0, 74, 94
2, 12668, Note_off_c, 0, 74, 100
2, 12672, Note_on_c, 0, 74, 95
2, 12672, Note_on_c, 0, 71, 95
2, 12860, Note_off_c, 0, 65, 100
2, 12860, Note_off_c, 0, 68, 100
2, 12864, Note_on_c, 0, 68, 91
2, 12864, Note_on_c, 0, 65, 91
2, 13052, Note_off_c, 0, 74, 100
2, 13052, Note_off_c, 0, 71, 100
2, 13052, Note_off_c, 0, 68, 100
2, 13052, Note_off_c, 0, 65, 100
2, 13056, Note_on_c, 0, 73, 86
2, 13056, Note_on_c, 0, 69, 86
2, 13056, Note_on_c, 0, 66, 86
2, 13244, Note_off_c, 0, 73, 100
2, 13244, Note_off_c, 0, 69, 100
2, 13244, Note_off_c, 0, 66, 100
2, 13248, Note_on_c, 0, 73, 80
2, 13248, Note_on_c, 0, 69, 80
2, 13344, Note_on_c, 0, 66, 80
2, 13436, Note_off_c, 0, 73, 100
2, 13436, Note_off_c, 0, 69, 100
2, 13436, Note_off_c, 0, 66, 100
2, 13440, Note_on_c, 0, 71, 80
2, 13440, Note_on_c, 0, 68, 80
2, 13440, Note_on_c, 0, 65, 80
2, 13440, Note_on_c, 0, 62, 80
2, 13628, Note_off_c, 0, 71, 100
2, 13628, Note_off_c, 0, 68, 100
2, 13628, Note_off_c, 0, 65, 100
2, 13628, Note_off_c, 0, 62, 100
2, 13632, Note_on_c, 0, 69, 80
2, 13632, Note_on_c, 0, 66, 80
2, 13632, Note_on_c, 0, 63, 80
2, 13632, Note_on_c, 0, 60, 80
2, 13820, Note_off_c, 0, 69, 100
2, 13820, Note_off_c, 0, 66, 100
2, 13820, Note_off_c, 0, 63, 100
2, 13820, Note_off_c, 0, 60, 100
2, 13824, Note_on_c, 0, 69, 80
2, 13824, Note_on_c, 0, 66, 80
2, 14016, Note_on_c, 0, 63, 80
2, 14016, Note_on_c, 0, 60, 80
2, 14204, Note_off_c, 0, 69, 100
2, 14204, Note_off_c, 0, 66, 100
2, 14204, Note_off_c, 0, 63, 100
2, 14204, Note_off_c, 0, 60, 100
2, 14208, Note_on_c, 0, 68, 80
2, 14208, Note_on_c, 0, 65, 80
2, 14208, Note_on_c, 0, 61, 80
2, 14396, Note_off_c, 0, 68, 100
2, 14396, Note_off_c, 0, 65, 100
2, 14396, Note_off_c, 0, 61, 100
2, 14400, Note_on_c, 0, 65, 80
2, 14400, Note_on_c, 0, 61, 80
2, 14400, Note_on_c, 0, 68, 80
2, 14780, Note_off_c, 0, 65, 100
2, 14780, Note_off_c, 0, 61, 100
2, 14780, Note_off_c, 0, 68, 100
2, 14784, Note_on_c, 0, 67, 80
2, 14784, Note_on_c, 0, 64, 80
2, 14784, Note_on_c, 0, 61, 80
2, 14972, Note_off_c, 0, 67, 100
2, 14972, Note_off_c, 0, 64, 100
2, 14972, Note_off_c, 0, 61, 100
2, 14976, Note_on_c, 0, 67, 80
2, 15068, Note_off_c, 0, 67, 100
2, 15072, Note_on_c, 0, 83, 80
2, 15168, Note_on_c, 0, 71, 80
2, 15356, Note_off_c, 0, 83, 100
2, 15356, Note_off_c, 0, 71, 100
2, 15360, Note_on_c, 0, 69, 80
2, 15360, Note_on_c, 0, 81, 80
2, 15548, Note_off_c, 0, 69, 100
2, 15548, Note_off_c, 0, 81, 100
2, 15552, Note_on_c, 0, 67, 80
2, 15552, Note_on_c, 0, 79, 80
2, 15932, Note_off_c, 0, 79, 100
2, 15936, Note_on_c, 0, 78, 90
2, 16124, Note_off_c, 0, 67, 100
2, 16124, Note_off_c, 0, 78, 100
2, 16128, Note_on_c, 0, 76, 90
2, 16128, Note_on_c, 0, 67, 90
2, 16508, Note_off_c, 0, 76, 100
2, 16512, Note_on_c, 0, 78, 80
2, 16700, Note_off_c, 0, 67, 100
2, 16700, Note_off_c, 0, 78, 100
2, 16704, Note_on_c, 0, 79, 80
2, 16704, Note_on_c, 0, 67, 80
2, 17084, Note_off_c, 0, 79, 100
2, 17084, Note_off_c, 0, 67, 100
2, 17088, Note_on_c, 0, 66, 80
2, 17276, Note_off_c, 0, 66, 100
2, 17280, Note_on_c, 0, 66, 80
2, 17468, Note_off_c, 0, 66, 100
2, 17472, Note_on_c, 0, 69, 80
2, 17472, Note_on_c, 0, 66, 80
2, 17660, Note_off_c, 0, 69, 100
2, 17660, Note_off_c, 0, 66, 100
2, 17664, Note_on_c, 0, 73, 80
2, 17664, Note_on_c, 0, 69, 80
2, 17664, Note_on_c, 0, 66, 80
2, 17852, Note_off_c, 0, 73, 100
2, 17852, Note_off_c, 0, 69, 100
2, 17852, Note_off_c, 0, 66, 100
2, 17856, Note_on_c, 0, 65, 80
2, 17856, Note_on_c, 0, 73, 80
2, 17856, Note_on_c, 0, 68, 80
2, 18236, Note_off_c, 0, 65, 100
2, 18236, Note_off_c, 0, 73, 100
2, 18236, Note_off_c, 0, 68, 100
2, 18240, Note_on_c, 0, 73, 80
2, 18240, Note_on_c, 0, 68, 80
2, 18240, Note_on_c, 0, 65, 80
2, 18428, Note_off_c, 0, 73, 100
2, 18428, Note_off_c, 0, 68, 100
2, 18428, Note_off_c, 0, 65, 100
2, 18432, Note_on_c, 0, 73, 80
2, 18432, Note_on_c, 0, 68, 80
2, 18432, Note_on_c, 0, 65, 80
2, 18812, Note_off_c, 0, 73, 100
2, 18812, Note_off_c, 0, 68, 100
2, 18812, Note_off_c, 0, 65, 100
2, 18816, Note_on_c, 0, 69, 80
2, 18816, Note_on_c, 0, 66, 80
2, 19004, Note_off_c, 0, 69, 100
2, 19004, Note_off_c, 0, 66, 100
2, 19008, Note_on_c, 0, 69, 80
2, 19008, Note_on_c, 0, 66, 80
2, 19196, Note_off_c, 0, 69, 100
2, 19196, Note_off_c, 0, 66, 100
2, 19200, Note_on_c, 0, 66, 80
2, 19200, Note_on_c, 0, 61, 80
2, 19388, Note_off_c, 0, 66, 100
2, 19388, Note_off_c, 0, 61, 100
2, 19392, Note_on_c, 0, 68, 80
2, 19392, Note_on_c, 0, 65, 80
2, 19392, Note_on_c, 0, 61, 80
2, 19484, Note_off_c, 0, 68, 100
2, 19484, Note_off_c, 0, 65, 100
2, 19484, Note_off_c, 0, 61, 100
2, 19488, Note_on_c, 0, 69, 80
2, 19488, Note_on_c, 0, 66, 80
2, 19580, Note_off_c, 0, 69, 100
2, 19580, Note_off_c, 0, 66, 100
2, 19584, Note_on_c, 0, 71, 80
2, 19584, Note_on_c, 0, 68, 80
2, 19776, Note_on_c, 0, 62, 80
2, 19964, Note_off_c, 0, 71, 100
2, 19964, Note_off_c, 0, 68, 100
2, 19964, Note_off_c, 0, 62, 100
2, 19968, Note_on_c, 0, 69, 82
2, 19968, Note_on_c, 0, 66, 82
2, 19968, Note_on_c, 0, 61, 82
2, 20156, Note_off_c, 0, 69, 100
2, 20156, Note_off_c, 0, 66, 100
2, 20156, Note_off_c, 0, 61, 100
2, 20160, Note_on_c, 0, 69, 84
2, 20160, Note_on_c, 0, 65, 84
2, 20160, Note_on_c, 0, 62, 84
2, 20160, Note_on_c, 0, 59, 84
2, 20348, Note_off_c, 0, 69, 100
2, 20352, Note_on_c, 0, 68, 86
2, 20540, Note_off_c, 0, 65, 100
2, 20540, Note_off_c, 0, 62, 100
2, 20540, Note_off_c, 0, 59, 100
2, 20540, Note_off_c, 0, 68, 100
2, 20544, Note_on_c, 0, 66, 88
2, 20544, Note_on_c, 0, 63, 88
2, 20544, Note_on_c, 0, 57, 88
2, 20732, Note_off_c, 0, 66, 100
2, 20732, Note_off_c, 0, 63, 100
2, 20732, Note_off_c, 0, 57, 100
2, 20736, Note_on_c, 0, 61, 80
2, 20736, Note_on_c, 0, 66, 80
2, 20736, Note_on_c, 0, 57, 80
2, 20924, Note_off_c, 0, 66, 100
2, 20924, Note_off_c, 0, 57, 100
2, 20928, Note_on_c, 0, 64, 80
2, 20928, Note_on_c, 0, 55, 80
2, 21116, Note_off_c, 0, 64, 100
2, 21116, Note_off_c, 0, 55, 100
2, 21120, Note_on_c, 0, 65, 80
2, 21120, Note_on_c, 0, 56, 80
2, 21308, Note_off_c, 0, 61, 100
2, 21308, Note_off_c, 0, 65, 100
2, 21308, Note_off_c, 0, 56, 100
2, 21312, Note_on_c, 0, 65, 80
2, 21312, Note_on_c, 0, 61, 80
2, 21312, Note_on_c, 0, 56, 80
2, 21596, Note_off_c, 0, 65, 100
2, 21596, Note_off_c, 0, 61, 100
2, 21596, Note_off_c, 0, 56, 100
2, 21600, Note_on_c, 0, 68, 80
2, 21692, Note_off_c, 0, 68, 100
2, 21696, Note_on_c, 0, 71, 80
2, 21788, Note_off_c, 0, 71, 100
2, 21792, Note_on_c, 0, 74, 80
2, 21884, Note_off_c, 0, 74, 100
2, 21888, Note_on_c, 0, 74, 80
2, 21888, Note_on_c, 0, 71, 80
2, 21888, Note_on_c, 0, 68, 80
2, 21888, Note_on_c, 0, 65, 80
2, 21888, Note_on_c, 0, 62, 80
2, 22076, Note_off_c, 0, 68, 100
2, 22076, Note_off_c, 0, 65, 100
2, 22076, Note_off_c, 0, 62, 100
2, 22080, Note_on_c, 0, 71, 80
2, 22080, Note_on_c, 0, 68, 80
2, 22268, Note_off_c, 0, 74, 100
2, 22268, Note_off_c, 0, 71, 100
2, 22268, Note_off_c, 0, 71, 100
2, 22268, Note_off_c, 0, 68, 100
2, 22272, Note_on_c, 0, 73, 80
2, 22272, Note_on_c, 0, 69, 80
2, 22460, Note_off_c, 0, 73, 100
2, 22460, Note_off_c, 0, 69, 100
2, 22464, Note_on_c, 0, 68, 80
2, 22464, Note_on_c, 0, 65, 80
2, 22464, Note_on_c, 0, 62, 80
2, 22464, Note_on_c, 0, 73, 80
2, 22652, Note_off_c, 0, 73, 100
2, 22656, Note_on_c, 0, 71, 80
2, 22844, Note_off_c, 0, 68, 100
2, 22844, Note_off_c, 0, 65, 100
2, 22844, Note_off_c, 0, 62, 100
2, 22844, Note_off_c, 0, 71, 100
2, 22848, Note_on_c, 0, 69, 80
2, 22848, Note_on_c, 0, 66, 80
2, 22848, Note_on_c, 0, 63, 80
2, 23036, Note_off_c, 0, 69, 100
2, 23036, Note_off_c, 0, 66, 100
2, 23036, Note_off_c, 0, 63, 100
2, 23040, Note_on_c, 0, 69, 80
2, 23040, Note_on_c, 0, 66, 80
2, 23040, Note_on_c, 0, 63, 80
2, 23040, Note_on_c, 0, 60, 80
2, 23228, Note_off_c, 0, 63, 100
2, 23228, Note_off_c, 0, 60, 100
2, 23232, Note_on_c, 0, 63, 80
2, 23232, Note_on_c, 0, 60, 80
2, 23420, Note_off_c, 0, 69, 100
2, 23420, Note_off_c, 0, 66, 100
2, 23420, Note_off_c, 0, 63, 100
2, 23420, Note_off_c, 0, 60, 100
2, 23424, Note_on_c, 0, 68, 80
2, 23424, Note_on_c, 0, 65, 80
2, 23424, Note_on_c, 0, 61, 80
2, 23612, Note_off_c, 0, 68, 100
2, 23612, Note_off_c, 0, 65, 100
2, 23612, Note_off_c, 0, 61, 100
2, 23616, Note_on_c, 0, 68, 80
2, 23616, Note_on_c, 0, 65, 80
2, 23616, Note_on_c, 0, 61, 80
2, 23804, Note_off_c, 0, 68, 100
2, 23804, Note_off_c, 0, 65, 100
2, 23804, Note_off_c, 0, 61, 100
2, 23808, Note_on_c, 0, 67, 80
2, 23808, Note_on_c, 0, 64, 80
2, 23996, Note_off_c, 0, 67, 100
2, 23996, Note_off_c, 0, 64, 100
2, 24000, Note_on_c, 0, 62, 80
2, 24188, Note_off_c, 0, 62, 100
2, 24192, Note_on_c, 0, 67, 80
2, 24284, Note_off_c, 0, 67, 100
2, 24288, Note_on_c, 0, 83, 80
2, 24556, Note_off_c, 0, 83, 100
2, 24576, Note_on_c, 0, 81, 80
2, 24764, Note_off_c, 0, 81, 100
2, 24768, Note_on_c, 0, 81, 80
2, 24956, Note_off_c, 0, 81, 100
2, 24960, Note_on_c, 0, 79, 84
2, 24960, Note_on_c, 0, 91, 84
2, 25148, Note_off_c, 0, 79, 100
2, 25148, Note_off_c, 0, 91, 100
2, 25152, Note_on_c, 0, 78, 89
2, 25152, Note_on_c, 0, 90, 89
2, 25340, Note_off_c, 0, 78, 100
2, 25340, Note_off_c, 0, 90, 100
2, 25344, Note_on_c, 0, 90, 94
2, 25344, Note_on_c, 0, 78, 94
2, 25532, Note_off_c, 0, 90, 100
2, 25532, Note_off_c, 0, 78, 100
2, 25536, Note_on_c, 0, 88, 99
2, 25536, Note_on_c, 0, 76, 99
2, 25724, Note_off_c, 0, 88, 100
2, 25724, Note_off_c, 0, 76, 100
2, 25728, Note_on_c, 0, 90, 100
2, 25728, Note_on_c, 0, 78, 100
2, 25916, Note_off_c, 0, 90, 100
2, 25916, Note_off_c, 0, 78, 100
2, 25920, Note_on_c, 0, 90, 100
2, 25920, Note_on_c, 0, 78, 100
2, 26108, Note_off_c, 0, 90, 100
2, 26108, Note_off_c, 0, 78, 100
2, 26112, Note_on_c, 0, 91, 90
2, 26112, Note_on_c, 0, 79, 90
2, 26396, Note_off_c, 0, 91, 100
2, 26396, Note_off_c, 0, 79, 100
2, 26400, Note_on_c, 0, 78, 80
2, 26400, Note_on_c, 0, 66, 80
2, 26492, Note_off_c, 0, 78, 100
2, 26492, Note_off_c, 0, 66, 100
2, 26496, Note_on_c, 0, 78, 80
2, 26496, Note_on_c, 0, 66, 80
2, 26684, Note_off_c, 0, 78, 100
2, 26684, Note_off_c, 0, 66, 100
2, 26688, Note_on_c, 0, 81, 80
2, 26688, Note_on_c, 0, 69, 80
2, 26876, Note_off_c, 0, 81, 100
2, 26876, Note_off_c, 0, 69, 100
2, 26880, Note_on_c, 0, 85, 80
2, 26880, Note_on_c, 0, 73, 80
2, 27068, Note_off_c, 0, 85, 100
2, 27068, Note_off_c, 0, 73, 100
2, 27072, Note_on_c, 0, 85, 80
2, 27072, Note_on_c, 0, 73, 80
2, 27452, Note_off_c, 0, 85, 100
2, 27452, Note_off_c, 0, 73, 100
2, 27456, Note_on_c, 0, 85, 80
2, 27456, Note_on_c, 0, 73, 80
2, 27644, Note_off_c, 0, 85, 100
2, 27644, Note_off_c, 0, 73, 100
2, 27648, Note_on_c, 0, 85, 80
2, 27648, Note_on_c, 0, 73, 80
2, 27836, Note_off_c, 0, 85, 100
2, 27836, Note_off_c, 0, 73, 100
2, 27840, Note_on_c, 0, 86, 80
2, 27840, Note_on_c, 0, 74, 80
2, 28028, Note_off_c, 0, 86, 100
2, 28028, Note_off_c, 0, 74, 100
2, 28032, Note_on_c, 0, 79, 80
2, 28032, Note_on_c, 0, 67, 80
2, 28220, Note_off_c, 0, 79, 100
2, 28220, Note_off_c, 0, 67, 100
2, 28224, Note_on_c, 0, 83, 80
2, 28224, Note_on_c, 0, 71, 80
2, 28412, Note_off_c, 0, 83, 100
2, 28412, Note_off_c, 0, 71, 100
2, 28416, Note_on_c, 0, 73, 80
2, 28416, Note_on_c, 0, 61, 80
2, 28604, Note_off_c, 0, 73, 100
2, 28604, Note_off_c, 0, 61, 100
2, 28608, Note_on_c, 0, 77, 80
2, 28608, Note_on_c, 0, 65, 80
2, 28796, Note_off_c, 0, 77, 100
2, 28796, Note_off_c, 0, 65, 100
2, 28800, Note_on_c, 0, 78, 80
2, 28800, Note_on_c, 0, 66, 80
2, 28988, Note_off_c, 0, 78, 100
2, 28988, Note_off_c, 0, 66, 100
2, 28992, Note_on_c, 0, 85, 80
2, 28992, Note_on_c, 0, 73, 80
2, 29276, Note_off_c, 0, 85, 100
2, 29276, Note_off_c, 0, 73, 100
2, 29280, Note_on_c, 0, 80, 80
2, 29280, Note_on_c, 0, 68, 80
2, 29372, Note_off_c, 0, 80, 100
2, 29372, Note_off_c, 0, 68, 100
2, 29376, Note_on_c, 0, 81, 80
2, 29376, Note_on_c, 0, 69, 80
2, 29564, Note_off_c, 0, 81, 100
2, 29564, Note_off_c, 0, 69, 100
2, 29568, Note_on_c, 0, 81, 80
2, 29568, Note_on_c, 0, 69, 80
2, 29852, Note_off_c, 0, 81, 100
2, 29852, Note_off_c, 0, 69, 100
2, 29856, Note_on_c, 0, 77, 80
2, 29856, Note_on_c, 0, 65, 80
2, 29948, Note_off_c, 0, 77, 100
2, 29948, Note_off_c, 0, 65, 100
2, 30912, Note_on_c, 0, 73, 80
2, 31196, Note_off_c, 0, 73, 100
2, 31200, Note_on_c, 0, 73, 80
2, 31388, Note_off_c, 0, 73, 100
2, 31392, Note_on_c, 0, 73, 80
2, 31488, Note_on_c, 0, 78, 80
2, 31580, Note_off_c, 0, 73, 100
2, 31584, Note_on_c, 0, 73, 80
2, 31676, Note_off_c, 0, 78, 100
2, 31680, Note_on_c, 0, 78, 80
2, 31772, Note_off_c, 0, 73, 100
2, 31776, Note_on_c, 0, 73, 80
2, 31868, Note_off_c, 0, 78, 100
2, 31872, Note_on_c, 0, 81, 80
2, 31964, Note_off_c, 0, 73, 100
2, 31968, Note_on_c, 0, 73, 80
2, 32060, Note_off_c, 0, 81, 100
2, 32064, Note_on_c, 0, 85, 80
2, 32156, Note_off_c, 0, 73, 100
2, 32160, Note_on_c, 0, 73, 80
2, 32252, Note_off_c, 0, 85, 100
2, 32252, Note_off_c, 0, 73, 100
2, 32256, Note_on_c, 0, 85, 80
2, 32352, Note_on_c, 0, 83, 80
2, 32352, Note_on_c, 0, 77, 80
2, 32540, Note_off_c, 0, 83, 100
2, 32540, Note_off_c, 0, 77, 100
2, 32544, Note_on_c, 0, 83, 80
2, 32544, Note_on_c, 0, 77, 80
2, 32636, Note_off_c, 0, 85, 100
2, 32640, Note_on_c, 0, 88, 80
2, 32732, Note_off_c, 0, 88, 100
2, 32736, Note_on_c, 0, 86, 80
2, 32828, Note_off_c, 0, 83, 100
2, 32828, Note_off_c, 0, 77, 100
2, 32828, Note_off_c, 0, 86, 100
2, 32832, Note_on_c, 0, 86, 80
2, 32928, Note_on_c, 0, 71, 80
2, 33020, Note_off_c, 0, 86, 100
2, 33024, Note_on_c, 0, 77, 80
2, 33116, Note_off_c, 0, 71, 100
2, 33120, Note_on_c, 0, 71, 80
2, 33212, Note_off_c, 0, 77, 100
2, 33216, Note_on_c, 0, 83, 80
2, 33308, Note_off_c, 0, 71, 100
2, 33312, Note_on_c, 0, 71, 80
2, 33404, Note_off_c, 0, 83, 100
2, 33408, Note_on_c, 0, 83, 80
2, 33500, Note_off_c, 0, 71, 100
2, 33504, Note_on_c, 0, 65, 80
2, 33596, Note_off_c, 0, 83, 100
2, 33600, Note_on_c, 0, 71, 80
2, 33692, Note_off_c, 0, 65, 100
2, 33696, Note_on_c, 0, 65, 80
2, 33788, Note_off_c, 0, 71, 100
2, 33792, Note_on_c, 0, 73, 80
2, 33884, Note_off_c, 0, 65, 100
2, 33884, Note_off_c, 0, 73, 100
2, 33888, Note_on_c, 0, 65, 80
2, 33888, Note_on_c, 0, 74, 80
2, 33980, Note_off_c, 0, 74, 100
2, 33984, Note_on_c, 0, 74, 80
2, 34076, Note_off_c, 0, 65, 100
2, 34080, Note_on_c, 0, 65, 80
2, 34080, Note_on_c, 0, 71, 80
2, 34172, Note_off_c, 0, 74, 100
2, 34176, Note_on_c, 0, 73, 80
2, 34268, Note_off_c, 0, 65, 100
2, 34268, Note_off_c, 0, 71, 100
2, 34272, Note_on_c, 0, 65, 80
2, 34272, Note_on_c, 0, 71, 80
2, 34460, Note_off_c, 0, 73, 100
2, 34460, Note_off_c, 0, 65, 100
2, 34460, Note_off_c, 0, 71, 100
2, 34464, Note_on_c, 0, 65, 80
2, 34464, Note_on_c, 0, 71, 80
2, 34556, Note_off_c, 0, 65, 100
2, 34556, Note_off_c, 0, 71, 100
2, 34560, Note_on_c, 0, 71, 80
2, 34652, Note_off_c, 0, 71, 100
2, 34656, Note_on_c, 0, 69, 81
2, 34844, Note_off_c, 0, 69, 100
2, 34848, Note_on_c, 0, 73, 85
2, 35036, Note_off_c, 0, 73, 100
2, 35040, Note_on_c, 0, 78, 88
2, 35196, Note_off_c, 0, 78, 100
2, 35200, Note_on_c, 0, 81, 91
2, 35260, Note_off_c, 0, 81, 100
2, 35264, Note_on_c, 0, 85, 92
2, 35388, Note_off_c, 0, 85, 100
2, 35392, Note_on_c, 0, 90, 95
2, 35452, Note_off_c, 0, 90, 100
2, 35456, Note_on_c, 0, 92, 96
2, 35516, Note_off_c, 0, 92, 100
2, 35520, Note_on_c, 0, 93, 97
2, 35580, Note_off_c, 0, 93, 100
2, 35584, Note_on_c, 0, 90, 98
2, 35644, Note_off_c, 0, 90, 100
2, 35648, Note_on_c, 0, 85, 99
2, 35708, Note_off_c, 0, 85, 100
2, 35712, Note_on_c, 0, 85, 100
2, 35732, Note_off_c, 0, 85, 100
2, 35736, Note_on_c, 0, 86, 100
2, 35756, Note_off_c, 0, 86, 100
2, 35760, Note_on_c, 0, 85, 100
2, 35780, Note_off_c, 0, 85, 100
2, 35784, Note_on_c, 0, 86, 100
2, 35804, Note_off_c, 0, 86, 100
2, 35808, Note_on_c, 0, 85, 100
2, 35828, Note_off_c, 0, 85, 100
2, 35832, Note_on_c, 0, 86, 100
2, 35852, Note_off_c, 0, 86, 100
2, 35856, Note_on_c, 0, 85, 100
2, 35876, Note_off_c, 0, 85, 100
2, 35880, Note_on_c, 0, 86, 100
2, 35900, Note_off_c, 0, 86, 100
2, 35904, Note_on_c, 0, 85, 100
2, 35924, Note_off_c, 0, 85, 100
2, 35928, Note_on_c, 0, 86, 100
2, 35948, Note_off_c, 0, 86, 100
2, 35952, Note_on_c, 0, 85, 100
2, 35972, Note_off_c, 0, 85, 100
2, 35976, Note_on_c, 0, 86, 100
2, 35996, Note_off_c, 0, 86, 100
2, 36000, Note_on_c, 0, 85, 100
2, 36020, Note_off_c, 0, 85, 100
2, 36024, Note_on_c, 0, 86, 100
2, 36044, Note_off_c, 0, 86, 100
2, 36048, Note_on_c, 0, 84, 100
2, 36068, Note_off_c, 0, 84, 100
2, 36072, Note_on_c, 0, 85, 100
2, 36092, Note_off_c, 0, 85, 100
2, 36096, Note_on_c, 0, 88, 100
2, 36156, Note_off_c, 0, 88, 100
2, 36160, Note_on_c, 0, 85, 100
2, 36220, Note_off_c, 0, 85, 100
2, 36224, Note_on_c, 0, 86, 100
2, 36284, Note_off_c, 0, 86, 100
2, 36288, Note_on_c, 0, 86, 100
2, 36348, Note_off_c, 0, 86, 100
2, 36352, Note_on_c, 0, 76, 100
2, 36412, Note_off_c, 0, 76, 100
2, 36416, Note_on_c, 0, 77, 96
2, 36476, Note_off_c, 0, 77, 100
2, 36480, Note_on_c, 0, 77, 92
2, 36540, Note_off_c, 0, 77, 100
2, 36544, Note_on_c, 0, 86, 88
2, 36604, Note_off_c, 0, 86, 100
2, 36608, Note_on_c, 0, 85, 83
2, 36668, Note_off_c, 0, 85, 100
2, 36672, Note_on_c, 0, 85, 79
2, 36732, Note_off_c, 0, 85, 100
2, 36736, Note_on_c, 0, 82, 75
2, 36796, Note_off_c, 0, 82, 100
2, 36800, Note_on_c, 0, 83, 71
2, 36860, Note_off_c, 0, 83, 100
2, 36864, Note_on_c, 0, 83, 70
2, 36908, Note_off_c, 0, 83, 100
2, 36912, Note_on_c, 0, 65, 70
2, 36956, Note_off_c, 0, 65, 100
2, 36960, Note_on_c, 0, 66, 70
2, 37004, Note_off_c, 0, 66, 100
2, 37008, Note_on_c, 0, 68, 70
2, 37052, Note_off_c, 0, 68, 100
2, 37056, Note_on_c, 0, 69, 70
2, 37100, Note_off_c, 0, 69, 100
2, 37104, Note_on_c, 0, 70, 70
2, 37148, Note_off_c, 0, 70, 100
2, 37152, Note_on_c, 0, 71, 70
2, 37196, Note_off_c, 0, 71, 100
2, 37200, Note_on_c, 0, 72, 70
2, 37244, Note_off_c, 0, 72, 100
2, 37248, Note_on_c, 0, 73, 70
2, 37308, Note_off_c, 0, 73, 100
2, 37312, Note_on_c, 0, 74, 70
2, 37372, Note_off_c, 0, 74, 100
2, 37376, Note_on_c, 0, 75, 70
2, 37436, Note_off_c, 0, 75, 100
2, 37440, Note_on_c, 0, 76, 70
2, 37500, Note_off_c, 0, 76, 100
2, 37504, Note_on_c, 0, 73, 70
2, 37564, Note_off_c, 0, 73, 100
2, 37568, Note_on_c, 0, 74, 70
2, 37628, Note_off_c, 0, 74, 100
2, 37632, Note_on_c, 0, 74, 70
2, 37676, Note_off_c, 0, 74, 100
2, 37680, Note_on_c, 0, 83, 71
2, 37724, Note_off_c, 0, 83, 100
2, 37728, Note_on_c, 0, 80, 72
2, 37772, Note_off_c, 0, 80, 100
2, 37776, Note_on_c, 0, 77, 74
2, 37820, Note_off_c, 0, 77, 100
2, 37824, Note_on_c, 0, 74, 75
2, 37868, Note_off_c, 0, 74, 100
2, 37872, Note_on_c, 0, 72, 77
2, 37916, Note_off_c, 0, 72, 100
2, 37920, Note_on_c, 0, 74, 78
2, 37964, Note_off_c, 0, 74, 100
2, 37968, Note_on_c, 0, 73, 79
2, 38012, Note_off_c, 0, 73, 100
2, 38016, Note_on_c, 0, 73, 80
2, 38112, Note_on_c, 0, 66, 80
2, 38204, Note_off_c, 0, 73, 100
2, 38208, Note_on_c, 0, 78, 80
2, 38300, Note_off_c, 0, 66, 100
2, 38304, Note_on_c, 0, 66, 80
2, 38492, Note_off_c, 0, 78, 100
2, 38492, Note_off_c, 0, 66, 100
2, 38496, Note_on_c, 0, 73, 100
2, 38588, Note_off_c, 0, 73, 100
2, 38592, Note_on_c, 0, 74, 100
2, 38688, Note_on_c, 0, 71, 100
2, 38688, Note_on_c, 0, 65, 100
2, 38876, Note_off_c, 0, 71, 100
2, 38876, Note_off_c, 0, 65, 100
2, 38880, Note_on_c, 0, 71, 80
2, 38880, Note_on_c, 0, 65, 80
2, 38972, Note_off_c, 0, 74, 100
2, 38976, Note_on_c, 0, 73, 80
2, 39068, Note_off_c, 0, 71, 100
2, 39068, Note_off_c, 0, 65, 100
2, 39072, Note_on_c, 0, 71, 80
2, 39072, Note_on_c, 0, 65, 80
2, 39164, Note_off_c, 0, 73, 100
2, 39164, Note_off_c, 0, 71, 100
2, 39164, Note_off_c, 0, 65, 100
2, 39168, Note_on_c, 0, 73, 80
2, 39228, Note_off_c, 0, 73, 100
2, 39232, Note_on_c, 0, 85, 82
2, 39292, Note_off_c, 0, 85, 100
2, 39296, Note_on_c, 0, 80, 84
2, 39356, Note_off_c, 0, 80, 100
2, 39360, Note_on_c, 0, 83, 87
2, 39404, Note_off_c, 0, 83, 100
2, 39408, Note_on_c, 0, 81, 89
2, 39452, Note_off_c, 0, 81, 100
2, 39456, Note_on_c, 0, 77, 91
2, 39500, Note_off_c, 0, 77, 100
2, 39504, Note_on_c, 0, 78, 93
2, 39548, Note_off_c, 0, 78, 100
2, 39552, Note_on_c, 0, 80, 94
2, 39596, Note_off_c, 0, 80, 100
2, 39600, Note_on_c, 0, 78, 90
2, 39644, Note_off_c, 0, 78, 100
2, 39648, Note_on_c, 0, 81, 89
2, 39676, Note_off_c, 0, 81, 100
2, 39680, Note_on_c, 0, 78, 87
2, 39708, Note_off_c, 0, 78, 100
2, 39712, Note_on_c, 0, 73, 86
2, 39740, Note_off_c, 0, 73, 100
2, 39744, Note_on_c, 0, 76, 85
2, 39836, Note_off_c, 0, 76, 100
2, 39840, Note_on_c, 0, 71, 81
2, 39840, Note_on_c, 0, 65, 81
2, 39840, Note_on_c, 0, 75, 81
2, 39932, Note_off_c, 0, 75, 100
2, 39936, Note_on_c, 0, 74, 80
2, 40028, Note_off_c, 0, 71, 100
2, 40028, Note_off_c, 0, 65, 100
2, 40028, Note_off_c, 0, 74, 100
2, 40032, Note_on_c, 0, 71, 80
2, 40032, Note_on_c, 0, 65, 80
2, 40032, Note_on_c, 0, 74, 80
2, 40220, Note_off_c, 0, 71, 100
2, 40220, Note_off_c, 0, 65, 100
2, 40220, Note_off_c, 0, 74, 100
2, 40224, Note_on_c, 0, 71, 80
2, 40224, Note_on_c, 0, 65, 80
2, 40224, Note_on_c, 0, 73, 80
2, 40316, Note_off_c, 0, 71, 100
2, 40316, Note_off_c, 0, 65, 100
2, 40416, Note_on_c, 0, 66, 80
2, 40604, Note_off_c, 0, 73, 100
2, 40604, Note_off_c, 0, 66, 100
2, 40608, Note_on_c, 0, 78, 82
2, 40796, Note_off_c, 0, 78, 100
2, 40800, Note_on_c, 0, 78, 84
2, 40992, Note_on_c, 0, 66, 85
2, 41180, Note_off_c, 0, 78, 100
2, 41180, Note_off_c, 0, 66, 100
2, 41184, Note_on_c, 0, 78, 87
2, 41372, Note_off_c, 0, 78, 100
2, 41376, Note_on_c, 0, 78, 89
2, 41568, Note_on_c, 0, 71, 91
2, 41756, Note_off_c, 0, 78, 100
2, 41756, Note_off_c, 0, 71, 100
2, 41760, Note_on_c, 0, 83, 92
2, 41948, Note_off_c, 0, 83, 100
2, 41952, Note_on_c, 0, 83, 94
2, 42144, Note_on_c, 0, 71, 96
2, 42332, Note_off_c, 0, 83, 100
2, 42332, Note_off_c, 0, 71, 100
2, 42336, Note_on_c, 0, 83, 97
2, 42336, Note_on_c, 0, 71, 97
2, 42524, Note_off_c, 0, 83, 100
2, 42524, Note_off_c, 0, 71, 100
2, 42528, Note_on_c, 0, 83, 99
2, 42528, Note_on_c, 0, 71, 99
2, 42716, Note_off_c, 0, 71, 100
2, 42716, Note_off_c, 0, 83, 100
2, 42720, Note_on_c, 0, 83, 101
2, 42720, Note_on_c, 0, 71, 101
2, 42908, Note_off_c, 0, 83, 100
2, 42908, Note_off_c, 0, 71, 100
2, 42912, Note_on_c, 0, 83, 103
2, 42912, Note_on_c, 0, 71, 103
2, 43100, Note_off_c, 0, 83, 100
2, 43100, Note_off_c, 0, 71, 100
2, 43104, Note_on_c, 0, 83, 104
2, 43104, Note_on_c, 0, 71, 104
2, 43196, Note_off_c, 0, 71, 100
2, 43292, Note_off_c, 0, 83, 100
2, 43296, Note_on_c, 0, 76, 106
2, 43296, Note_on_c, 0, 83, 106
2, 43296, Note_on_c, 0, 88, 106
2, 43484, Note_off_c, 0, 76, 100
2, 43484, Note_off_c, 0, 83, 100
2, 43484, Note_off_c, 0, 88, 100
2, 43488, Note_on_c, 0, 76, 108
2, 43488, Note_on_c, 0, 83, 108
2, 43488, Note_on_c, 0, 86, 108
2, 43488, Note_on_c, 0, 88, 108
2, 43676, Note_off_c, 0, 76, 100
2, 43676, Note_off_c, 0, 83, 100
2, 43676, Note_off_c, 0, 86, 100
2, 43676, Note_off_c, 0, 88, 100
2, 43680, Note_on_c, 0, 81, 109
2, 43680, Note_on_c, 0, 85, 109
2, 43680, Note_on_c, 0, 88, 109
2, 43680, Note_on_c, 0, 76, 109
2, 43772, Note_off_c, 0, 81, 100
2, 43772, Note_off_c, 0, 85, 100
2, 43772, Note_off_c, 0, 88, 100
2, 43776, Note_on_c, 0, 88, 80
2, 43868, Note_off_c, 0, 88, 100
2, 43872, Note_on_c, 0, 80, 80
2, 43964, Note_off_c, 0, 76, 100
2, 43964, Note_off_c, 0, 80, 100
2, 43968, Note_on_c, 0, 83, 80
2, 43968, Note_on_c, 0, 76, 80
2, 44060, Note_off_c, 0, 83, 100
2, 44064, Note_on_c, 0, 81, 80
2, 44156, Note_off_c, 0, 76, 100
2, 44156, Note_off_c, 0, 81, 100
2, 44160, Note_on_c, 0, 80, 80
2, 44160, Note_on_c, 0, 78, 80
2, 44252, Note_off_c, 0, 80, 100
2, 44256, Note_on_c, 0, 81, 80
2, 44348, Note_off_c, 0, 81, 100
2, 44352, Note_on_c, 0, 84, 80
2, 44444, Note_off_c, 0, 78, 100
2, 44448, Note_on_c, 0, 78, 80
2, 44540, Note_off_c, 0, 84, 100
2, 44540, Note_off_c, 0, 78, 100
2, 44544, Note_on_c, 0, 81, 80
2, 44544, Note_on_c, 0, 83, 80
2, 44636, Note_off_c, 0, 81, 100
2, 44640, Note_on_c, 0, 79, 80
2, 44732, Note_off_c, 0, 79, 100
2, 44736, Note_on_c, 0, 78, 80
2, 44828, Note_off_c, 0, 78, 100
2, 44832, Note_on_c, 0, 79, 80
2, 44924, Note_off_c, 0, 79, 100
2, 44928, Note_on_c, 0, 77, 80
2, 45020, Note_off_c, 0, 83, 100
2, 45024, Note_on_c, 0, 80, 80
2, 45116, Note_off_c, 0, 77, 100
2, 45116, Note_off_c, 0, 80, 100
2, 45120, Note_on_c, 0, 82, 80
2, 45120, Note_on_c, 0, 76, 80
2, 45212, Note_off_c, 0, 82, 100
2, 45216, Note_on_c, 0, 81, 80
2, 45308, Note_off_c, 0, 81, 100
2, 45312, Note_on_c, 0, 80, 80
2, 45404, Note_off_c, 0, 80, 100
2, 45408, Note_on_c, 0, 81, 80
2, 45500, Note_off_c, 0, 81, 100
2, 45504, Note_on_c, 0, 83, 80
2, 45596, Note_off_c, 0, 76, 100
2, 45600, Note_on_c, 0, 76, 80
2, 45692, Note_off_c, 0, 83, 100
2, 45692, Note_off_c, 0, 76, 100
2, 45696, Note_on_c, 0, 79, 80
2, 45696, Note_on_c, 0, 81, 80
2, 45788, Note_off_c, 0, 79, 100
2, 45792, Note_on_c, 0, 78, 80
2, 45884, Note_off_c, 0, 78, 100
2, 45888, Note_on_c, 0, 77, 80
2, 45980, Note_off_c, 0, 77, 100
2, 45984, Note_on_c, 0, 78, 80
2, 46076, Note_off_c, 0, 78, 100
2, 46080, Key_signature, 2, "major"
2, 46080, Note_on_c, 0, 75, 80
2, 46172, Note_off_c, 0, 81, 100
2, 46176, Note_on_c, 0, 78, 80
2, 46268, Note_off_c, 0, 75, 100
2, 46268, Note_off_c, 0, 78, 100
2, 46272, Note_on_c, 0, 76, 80
2, 46272, Note_on_c, 0, 81, 80
2, 46364, Note_off_c, 0, 81, 100
2, 46368, Note_on_c, 0, 79, 80
2, 46460, Note_off_c, 0, 76, 100
2, 46460, Note_off_c, 0, 79, 100
2, 46464, Note_on_c, 0, 73, 80
2, 46464, Note_on_c, 0, 78, 80
2, 46556, Note_off_c, 0, 78, 100
2, 46560, Note_on_c, 0, 79, 80
2, 46652, Note_off_c, 0, 79, 100
2, 46656, Note_on_c, 0, 79, 80
2, 46748, Note_off_c, 0, 79, 100
2, 46752, Note_on_c, 0, 76, 80
2, 46844, Note_off_c, 0, 73, 100
2, 46844, Note_off_c, 0, 76, 100
2, 46848, Note_on_c, 0, 74, 80
2, 46848, Note_on_c, 0, 79, 80
2, 46940, Note_off_c, 0, 79, 100
2, 46944, Note_on_c, 0, 78, 80
2, 47036, Note_off_c, 0, 74, 100
2, 47036, Note_off_c, 0, 78, 100
2, 47040, Note_on_c, 0, 71, 80
2, 47040, Note_on_c, 0, 76, 80
2, 47132, Note_off_c, 0, 76, 100
2, 47136, Note_on_c, 0, 77, 80
2, 47228, Note_off_c, 0, 77, 100
2, 47232, Note_on_c, 0, 77, 80
2, 47324, Note_off_c, 0, 71, 100
2, 47328, Note_on_c, 0, 65, 80
2, 47420, Note_off_c, 0, 77, 100
2, 47420, Note_off_c, 0, 65, 100
2, 47424, Note_on_c, 0, 76, 80
2, 47424, Note_on_c, 0, 64, 80
2, 47424, Note_on_c, 0, 70, 80
2, 47516, Note_off_c, 0, 70, 100
2, 47520, Note_on_c, 0, 69, 80
2, 47612, Note_off_c, 0, 76, 100
2, 47612, Note_off_c, 0, 64, 100
2, 47612, Note_off_c, 0, 69, 100
2, 47616, Note_on_c, 0, 74, 80
2, 47616, Note_on_c, 0, 66, 80
2, 47616, Note_on_c, 0, 68, 80
2, 47708, Note_off_c, 0, 68, 100
2, 47712, Note_on_c, 0, 69, 80
2, 47804, Note_off_c, 0, 74, 100
2, 47804, Note_off_c, 0, 66, 100
2, 47804, Note_off_c, 0, 69, 100
2, 47808, Note_on_c, 0, 79, 80
2, 47808, Note_on_c, 0, 73, 80
2, 47900, Note_off_c, 0, 73, 100
2, 47904, Note_on_c, 0, 76, 80
2, 47996, Note_off_c, 0, 79, 100
2, 47996, Note_off_c, 0, 76, 100
2, 48000, Note_on_c, 0, 78, 80
2, 48000, Note_on_c, 0, 74, 80
2, 48188, Note_off_c, 0, 78, 100
2, 48188, Note_off_c, 0, 74, 100
2, 48192, Note_on_c, 0, 83, 80
2, 48192, Note_on_c, 0, 77, 80
2, 48192, Note_on_c, 0, 71, 80
2, 48380, Note_off_c, 0, 83, 100
2, 48380, Note_off_c, 0, 77, 100
2, 48380, Note_off_c, 0, 71, 100
2, 48384, Note_on_c, 0, 83, 80
2, 48384, Note_on_c, 0, 80, 80
2, 48384, Note_on_c, 0, 74, 80
2, 48384, Note_on_c, 0, 71, 80
2, 48572, Note_off_c, 0, 83, 100
2, 48572, Note_off_c, 0, 80, 100
2, 48572, Note_off_c, 0, 74, 100
2, 48572, Note_off_c, 0, 71, 100
2, 48576, Note_on_c, 0, 81, 80
2, 48576, Note_on_c, 0, 74, 80
2, 48576, Note_on_c, 0, 69, 80
2, 48764, Note_off_c, 0, 81, 100
2, 48764, Note_off_c, 0, 74, 100
2, 48764, Note_off_c, 0, 69, 100
2, 48768, Note_on_c, 0, 86, 80
2, 48768, Note_on_c, 0, 74, 80
2, 48960, Note_on_c, 0, 79, 80
2, 49148, Note_off_c, 0, 86, 100
2, 49148, Note_off_c, 0, 74, 100
2, 49148, Note_off_c, 0, 79, 100
2, 49152, Note_on_c, 0, 85, 80
2, 49152, Note_on_c, 0, 79, 80
2, 49152, Note_on_c, 0, 76, 80
2, 49152, Note_on_c, 0, 73, 80
2, 49340, Note_off_c, 0, 85, 100
2, 49340, Note_off_c, 0, 79, 100
2, 49340, Note_off_c, 0, 76, 100
2, 49340, Note_off_c, 0, 73, 100
2, 49344, Note_on_c, 0, 91, 80
2, 49344, Note_on_c, 0, 88, 80
2, 49344, Note_on_c, 0, 85, 80
2, 49344, Note_on_c, 0, 79, 80
2, 49820, Note_off_c, 0, 79, 100
2, 49820, Note_off_c, 0, 85, 100
2, 49820, Note_off_c, 0, 88, 100
2, 49820, Note_off_c, 0, 91, 100
2, 49824, Note_on_c, 0, 67, 80
2, 49916, Note_off_c, 0, 67, 100
2, 49920, Note_on_c, 0, 64, 80
2, 50012, Note_off_c, 0, 64, 100
2, 50016, Note_on_c, 0, 70, 80
2, 50108, Note_off_c, 0, 70, 100
2, 50112, Note_on_c, 0, 68, 80
2, 50204, Note_off_c, 0, 68, 100
2, 50208, Note_on_c, 0, 69, 80
2, 50300, Note_off_c, 0, 69, 100
2, 50304, Note_on_c, 0, 64, 80
2, 50396, Note_off_c, 0, 64, 100
2, 50400, Note_on_c, 0, 71, 80
2, 50492, Note_off_c, 0, 71, 100
2, 50496, Note_on_c, 0, 69, 80
2, 50588, Note_off_c, 0, 69, 100
2, 50592, Note_on_c, 0, 67, 80
2, 50684, Note_off_c, 0, 67, 100
2, 50688, Note_on_c, 0, 66, 80
2, 50876, Note_off_c, 0, 66, 100
2, 51072, Note_on_c, 0, 38, 80
2, 51644, Note_off_c, 0, 38, 100
2, 51648, Note_on_c, 0, 38, 80
2, 51740, Note_off_c, 0, 38, 100
2, 51744, Note_on_c, 0, 33, 80
2, 51836, Note_off_c, 0, 33, 100
2, 51840, Note_on_c, 0, 33, 80
2, 52412, Note_off_c, 0, 33, 100
2, 52416, Note_on_c, 0, 33, 80
2, 52796, Note_off_c, 0, 33, 100
2, 52800, Note_on_c, 0, 33, 80
2, 52988, Note_off_c, 0, 33, 100
2, 52992, Note_on_c, 0, 30, 80
2, 53180, Note_off_c, 0, 30, 100
2, 53376, Note_on_c, 0, 86, 80
2, 53376, Note_on_c, 0, 74, 80
2, 53948, Note_off_c, 0, 86, 100
2, 53948, Note_off_c, 0, 74, 100
2, 53952, Note_on_c, 0, 86, 80
2, 53952, Note_on_c, 0, 74, 80
2, 54044, Note_off_c, 0, 86, 100
2, 54044, Note_off_c, 0, 74, 100
2, 54048, Note_on_c, 0, 81, 80
2, 54048, Note_on_c, 0, 69, 80
2, 54140, Note_off_c, 0, 81, 100
2, 54140, Note_off_c, 0, 69, 100
2, 54144, Note_on_c, 0, 81, 80
2, 54144, Note_on_c, 0, 69, 80
2, 54716, Note_off_c, 0, 81, 100
2, 54716, Note_off_c, 0, 69, 100
2, 54720, Note_on_c, 0, 69, 80
2, 54720, Note_on_c, 0, 81, 80
2, 55100, Note_off_c, 0, 69, 100
2, 55100, Note_off_c, 0, 81, 100
2, 55104, Note_on_c, 0, 81, 80
2, 55104, Note_on_c, 0, 69, 80
2, 55292, Note_off_c, 0, 81, 100
2, 55292, Note_off_c, 0, 69, 100
2, 55296, Note_on_c, 0, 78, 80
2, 55296, Note_on_c, 0, 66, 80
2, 55484, Note_off_c, 0, 78, 100
2, 55484, Note_off_c, 0, 66, 100
2, 55680, Note_on_c, 0, 38, 80
2, 56060, Note_off_c, 0, 38, 100
2, 56064, Note_on_c, 0, 38, 80
2, 56252, Note_off_c, 0, 38, 100
2, 56256, Note_on_c, 0, 38, 80
2, 56316, Note_off_c, 0, 38, 100
2, 56320, Note_on_c, 0, 37, 80
2, 56380, Note_off_c, 0, 37, 100
2, 56384, Note_on_c, 0, 38, 80
2, 56444, Note_off_c, 0, 38, 100
2, 56448, Note_on_c, 0, 33, 80
2, 56828, Note_off_c, 0, 33, 100
2, 56832, Note_on_c, 0, 33, 80
2, 57212, Note_off_c, 0, 33, 100
2, 57216, Note_on_c, 0, 33, 80
2, 57596, Note_off_c, 0, 33, 100
2, 57600, Note_on_c, 0, 30, 80
2, 57788, Note_off_c, 0, 30, 100
2, 57984, Note_on_c, 0, 86, 80
2, 57984, Note_on_c, 0, 74, 80
2, 58364, Note_off_c, 0, 86, 100
2, 58364, Note_off_c, 0, 74, 100
2, 58368, Note_on_c, 0, 86, 80
2, 58368, Note_on_c, 0, 74, 80
2, 58556, Note_off_c, 0, 86, 100
2, 58556, Note_off_c, 0, 74, 100
2, 58560, Note_on_c, 0, 86, 80
2, 58560, Note_on_c, 0, 74, 80
2, 58620, Note_off_c, 0, 86, 100
2, 58620, Note_off_c, 0, 74, 100
2, 58624, Note_on_c, 0, 85, 80
2, 58624, Note_on_c, 0, 73, 80
2, 58684, Note_off_c, 0, 85, 100
2, 58684, Note_off_c, 0, 73, 100
2, 58688, Note_on_c, 0, 86, 80
2, 58688, Note_on_c, 0, 74, 80
2, 58748, Note_off_c, 0, 86, 100
2, 58748, Note_off_c, 0, 74, 100
2, 58752, Note_on_c, 0, 81, 80
2, 58752, Note_on_c, 0, 69, 80
2, 59132, Note_off_c, 0, 81, 100
2, 59132, Note_off_c, 0, 69, 100
2, 59136, Note_on_c, 0, 81, 82
2, 59136, Note_on_c, 0, 69, 82
2, 59516, Note_off_c, 0, 81, 100
2, 59516, Note_off_c, 0, 69, 100
2, 59520, Note_on_c, 0, 81, 84
2, 59520, Note_on_c, 0, 69, 84
2, 59836, Note_off_c, 0, 81, 100
2, 59836, Note_off_c, 0, 69, 100
2, 59840, Note_on_c, 0, 79, 86
2, 59840, Note_on_c, 0, 67, 86
2, 59900, Note_off_c, 0, 79, 100
2, 59900, Note_off_c, 0, 67, 100
2, 59904, Note_on_c, 0, 78, 86
2, 59904, Note_on_c, 0, 66, 86
2, 60092, Note_off_c, 0, 78, 100
2, 60092, Note_off_c, 0, 66, 100
2, 60096, Note_on_c, 0, 78, 87
2, 60096, Note_on_c, 0, 66, 87
2, 60156, Note_off_c, 0, 66, 100
2, 60160, Note_on_c, 0, 76, 88
2, 60220, Note_off_c, 0, 76, 100
2, 60224, Note_on_c, 0, 74, 88
2, 60284, Note_off_c, 0, 74, 100
2, 60288, Note_on_c, 0, 73, 88
2, 60348, Note_off_c, 0, 73, 100
2, 60352, Note_on_c, 0, 71, 89
2, 60412, Note_off_c, 0, 71, 100
2, 60416, Note_on_c, 0, 69, 89
2, 60476, Note_off_c, 0, 78, 100
2, 60476, Note_off_c, 0, 69, 100
2, 60480, Note_on_c, 0, 79, 90
2, 60480, Note_on_c, 0, 67, 90
2, 60540, Note_off_c, 0, 67, 100
2, 60544, Note_on_c, 0, 70, 90
2, 60604, Note_off_c, 0, 70, 100
2, 60608, Note_on_c, 0, 69, 90
2, 60668, Note_off_c, 0, 69, 100
2, 60672, Note_on_c, 0, 67, 91
2, 60732, Note_off_c, 0, 67, 100
2, 60736, Note_on_c, 0, 69, 91
2, 60796, Note_off_c, 0, 69, 100
2, 60800, Note_on_c, 0, 71, 91
2, 60860, Note_off_c, 0, 71, 100
2, 60864, Note_on_c, 0, 73, 92
2, 60924, Note_off_c, 0, 73, 100
2, 60928, Note_on_c, 0, 74, 92
2, 60988, Note_off_c, 0, 74, 100
2, 60992, Note_on_c, 0, 76, 93
2, 61052, Note_off_c, 0, 79, 100
2, 61052, Note_off_c, 0, 76, 100
2, 61056, Note_on_c, 0, 81, 93
2, 61056, Note_on_c, 0, 69, 93
2, 61244, Note_off_c, 0, 81, 100
2, 61244, Note_off_c, 0, 69, 100
2, 61248, Note_on_c, 0, 81, 94
2, 61248, Note_on_c, 0, 69, 94
2, 61308, Note_off_c, 0, 69, 100
2, 61312, Note_on_c, 0, 79, 94
2, 61372, Note_off_c, 0, 79, 100
2, 61376, Note_on_c, 0, 78, 95
2, 61436, Note_off_c, 0, 78, 100
2, 61440, Note_on_c, 0, 76, 95
2, 61500, Note_off_c, 0, 76, 100
2, 61504, Note_on_c, 0, 74, 96
2, 61564, Note_off_c, 0, 74, 100
2, 61568, Note_on_c, 0, 72, 96
2, 61628, Note_off_c, 0, 81, 100
2, 61628, Note_off_c, 0, 72, 100
2, 61632, Note_on_c, 0, 83, 96
2, 61632, Note_on_c, 0, 71, 96
2, 61692, Note_off_c, 0, 71, 100
2, 61696, Note_on_c, 0, 74, 97
2, 61756, Note_off_c, 0, 74, 100
2, 61760, Note_on_c, 0, 72, 97
2, 61820, Note_off_c, 0, 72, 100
2, 61824, Note_on_c, 0, 71, 97
2, 61884, Note_off_c, 0, 71, 100
2, 61888, Note_on_c, 0, 72, 98
2, 61948, Note_off_c, 0, 72, 100
2, 61952, Note_on_c, 0, 74, 98
2, 62012, Note_off_c, 0, 74, 100
2, 62016, Note_on_c, 0, 76, 99
2, 62076, Note_off_c, 0, 76, 100
2, 62080, Note_on_c, 0, 78, 99
2, 62140, Note_off_c, 0, 78, 100
2, 62144, Note_on_c, 0, 79, 99
2, 62204, Note_off_c, 0, 83, 100
2, 62208, Note_on_c, 0, 85, 100
2, 62268, Note_off_c, 0, 79, 100
2, 62272, Note_on_c, 0, 79, 100
2, 62332, Note_off_c, 0, 79, 100
2, 62336, Note_on_c, 0, 78, 100
2, 62396, Note_off_c, 0, 78, 100
2, 62400, Note_on_c, 0, 76, 101
2, 62460, Note_off_c, 0, 76, 100
2, 62464, Note_on_c, 0, 74, 101
2, 62524, Note_off_c, 0, 74, 100
2, 62528, Note_on_c, 0, 73, 102
2, 62588, Note_off_c, 0, 85, 100
2, 62588, Note_off_c, 0, 73, 100
2, 62592, Note_on_c, 0, 86, 102
2, 62592, Note_on_c, 0, 74, 102
2, 62652, Note_off_c, 0, 74, 100
2, 62656, Note_on_c, 0, 76, 102
2, 62716, Note_off_c, 0, 76, 100
2, 62720, Note_on_c, 0, 78, 103
2, 62780, Note_off_c, 0, 86, 100
2, 62780, Note_off_c, 0, 78, 100
2, 62784, Note_on_c, 0, 88, 103
2, 62784, Note_on_c, 0, 76, 103
2, 62844, Note_off_c, 0, 76, 100
2, 62848, Note_on_c, 0, 82, 103
2, 62908, Note_off_c, 0, 82, 100
2, 62912, Note_on_c, 0, 81, 104
2, 62972, Note_off_c, 0, 81, 100
2, 62976, Note_on_c, 0, 79, 104
2, 63036, Note_off_c, 0, 79, 100
2, 63040, Note_on_c, 0, 78, 105
2, 63100, Note_off_c, 0, 78, 100
2, 63104, Note_on_c, 0, 76, 105
2, 63164, Note_off_c, 0, 88, 100
2, 63164, Note_off_c, 0, 76, 100
2, 63168, Note_on_c, 0, 90, 105
2, 63168, Note_on_c, 0, 78, 105
2, 63228, Note_off_c, 0, 78, 100
2, 63232, Note_on_c, 0, 79, 106
2, 63292, Note_off_c, 0, 79, 100
2, 63296, Note_on_c, 0, 81, 106
2, 63356, Note_off_c, 0, 90, 100
2, 63356, Note_off_c, 0, 81, 100
2, 63360, Note_on_c, 0, 91, 110
2, 63360, Note_on_c, 0, 79, 110
2, 63420, Note_off_c, 0, 79, 100
2, 63424, Note_on_c, 0, 78, 110
2, 63484, Note_off_c, 0, 78, 100
2, 63488, Note_on_c, 0, 76, 110
2, 63548, Note_off_c, 0, 91, 100
2, 63548, Note_off_c, 0, 76, 100
2, 63552, Note_on_c, 0, 81, 110
2, 63552, Note_on_c, 0, 75, 110
2, 63612, Note_off_c, 0, 75, 100
2, 63616, Note_on_c, 0, 74, 110
2, 63676, Note_off_c, 0, 74, 100
2, 63680, Note_on_c, 0, 75, 110
2, 63740, Note_off_c, 0, 81, 100
2, 63740, Note_off_c, 0, 75, 100
2, 63744, Note_on_c, 0, 83, 110
2, 63744, Note_on_c, 0, 74, 110
2, 63804, Note_off_c, 0, 74, 100
2, 63808, Note_on_c, 0, 72, 110
2, 63868, Note_off_c, 0, 72, 100
2, 63872, Note_on_c, 0, 71, 110
2, 63932, Note_off_c, 0, 83, 100
2, 63932, Note_off_c, 0, 71, 100
2, 63936, Note_on_c, 0, 77, 105
2, 63936, Note_on_c, 0, 74, 105
2, 63996, Note_off_c, 0, 74, 100
2, 64000, Note_on_c, 0, 73, 104
2, 64060, Note_off_c, 0, 73, 100
2, 64064, Note_on_c, 0, 71, 102
2, 64124, Note_off_c, 0, 71, 100
2, 64128, Note_on_c, 0, 68, 100
2, 64188, Note_off_c, 0, 68, 100
2, 64192, Note_on_c, 0, 69, 98
2, 64252, Note_off_c, 0, 69, 100
2, 64256, Note_on_c, 0, 71, 96
2, 64316, Note_off_c, 0, 77, 100
2, 64316, Note_off_c, 0, 71, 100
2, 64320, Note_on_c, 0, 76, 94
2, 64320, Note_on_c, 0, 73, 94
2, 64380, Note_off_c, 0, 73, 100
2, 64384, Note_on_c, 0, 70, 92
2, 64444, Note_off_c, 0, 70, 100
2, 64448, Note_on_c, 0, 69, 91
2, 64508, Note_off_c, 0, 76, 100
2, 64508, Note_off_c, 0, 69, 100
2, 64512, Note_on_c, 0, 81, 80
2, 64512, Note_on_c, 0, 75, 80
2, 65084, Note_off_c, 0, 81, 100
2, 65084, Note_off_c, 0, 75, 100
2, 65088, Note_on_c, 0, 71, 80
2, 65088, Note_on_c, 0, 83, 80
2, 65088, Note_on_c, 0, 78, 80
2, 65468, Note_off_c, 0, 71, 100
2, 65468, Note_off_c, 0, 83, 100
2, 65468, Note_off_c, 0, 78, 100
2, 65472, Note_on_c, 0, 78, 80
2, 65472, Note_on_c, 0, 75, 80
2, 65472, Note_on_c, 0, 71, 80
2, 65660, Note_off_c, 0, 78, 100
2, 65660, Note_off_c, 0, 75, 100
2, 65660, Note_off_c, 0, 71, 100
2, 65664, Note_on_c, 0, 81, 80
2, 65756, Note_off_c, 0, 81, 100
2, 65760, Note_on_c, 0, 78, 80
2, 65852, Note_off_c, 0, 78, 100
2, 65856, Note_on_c, 0, 79, 80
2, 65856, Note_on_c, 0, 91, 80
2, 65948, Note_off_c, 0, 79, 100
2, 65948, Note_off_c, 0, 91, 100
2, 65952, Note_on_c, 0, 83, 80
2, 65952, Note_on_c, 0, 71, 80
2, 66044, Note_off_c, 0, 83, 100
2, 66044, Note_off_c, 0, 71, 100
2, 66048, Note_on_c, 0, 78, 80
2, 66048, Note_on_c, 0, 90, 80
2, 66140, Note_off_c, 0, 78, 100
2, 66140, Note_off_c, 0, 90, 100
2, 66144, Note_on_c, 0, 76, 80
2, 66144, Note_on_c, 0, 88, 80
2, 66236, Note_off_c, 0, 76, 100
2, 66236, Note_off_c, 0, 88, 100
2, 66240, Note_on_c, 0, 74, 80
2, 66240, Note_on_c, 0, 86, 80
2, 66332, Note_off_c, 0, 74, 100
2, 66336, Note_on_c, 0, 77, 80
2, 66428, Note_off_c, 0, 77, 100
2, 66432, Note_on_c, 0, 79, 80
2, 66524, Note_off_c, 0, 79, 100
2, 66528, Note_on_c, 0, 78, 80
2, 66620, Note_off_c, 0, 86, 100
2, 66620, Note_off_c, 0, 78, 100
2, 66624, Note_on_c, 0, 85, 80
2, 66624, Note_on_c, 0, 81, 80
2, 66624, Note_on_c, 0, 76, 80
2, 66624, Note_on_c, 0, 73, 80
2, 66716, Note_off_c, 0, 85, 100
2, 66716, Note_off_c, 0, 81, 100
2, 66716, Note_off_c, 0, 76, 100
2, 66716, Note_off_c, 0, 73, 100
2, 66720, Note_on_c, 0, 72, 80
2, 66720, Note_on_c, 0, 75, 80
2, 66720, Note_on_c, 0, 81, 80
2, 66720, Note_on_c, 0, 84, 80
2, 66812, Note_off_c, 0, 72, 100
2, 66812, Note_off_c, 0, 75, 100
2, 66812, Note_off_c, 0, 81, 100
2, 66812, Note_off_c, 0, 84, 100
2, 66816, Control_c, 0, 64, 127
2, 66816, Note_on_c, 0, 84, 80
2, 66816, Note_on_c, 0, 81, 80
2, 66860, Note_off_c, 0, 81, 100
2, 66864, Note_on_c, 0, 78, 80
2, 66908, Note_off_c, 0, 78, 100
2, 66912, Note_on_c, 0, 75, 80
2, 66956, Note_off_c, 0, 75, 100
2, 66960, Note_on_c, 0, 72, 80
2, 67004, Note_off_c, 0, 84, 100
2, 67004, Note_off_c, 0, 72, 100
2, 67008, Note_on_c, 0, 72, 80
2, 67008, Note_on_c, 0, 69, 80
2, 67052, Note_off_c, 0, 69, 100
2, 67056, Note_on_c, 0, 66, 80
2, 67100, Note_off_c, 0, 66, 100
2, 67104, Note_on_c, 0, 63, 80
2, 67148, Note_off_c, 0, 63, 100
2, 67152, Note_on_c, 0, 60, 80
2, 67196, Note_off_c, 0, 60, 100
2, 67200, Note_on_c, 0, 69, 80
2, 67244, Note_off_c, 0, 69, 100
2, 67246, Control_c, 0, 64, 0
2, 67248, Note_on_c, 0, 63, 80
2, 67292, Note_off_c, 0, 72, 100
2, 67292, Note_off_c, 0, 63, 100
2, 67296, Note_on_c, 0, 71, 80
2, 67296, Note_on_c, 0, 62, 80
2, 67296, Note_on_c, 0, 59, 80
2, 67340, Note_off_c, 0, 62, 100
2, 67340, Note_off_c, 0, 59, 100
2, 67344, Note_on_c, 0, 67, 80
2, 67388, Note_off_c, 0, 71, 100
2, 67388, Note_off_c, 0, 67, 100
2, 67392, Note_on_c, 0, 70, 80
2, 67392, Note_on_c, 0, 67, 80
2, 67392, Note_on_c, 0, 62, 80
2, 67392, Note_on_c, 0, 58, 80
2, 67964, Note_off_c, 0, 70, 100
2, 67964, Note_off_c, 0, 67, 100
2, 67964, Note_off_c, 0, 62, 100
2, 67964, Note_off_c, 0, 58, 100
2, 67968, Control_c, 0, 64, 127
2, 67968, Note_on_c, 0, 69, 80
2, 67968, Note_on_c, 0, 66, 80
2, 68028, Note_off_c, 0, 66, 100
2, 68032, Note_on_c, 0, 62, 79
2, 68092, Note_off_c, 0, 62, 100
2, 68096, Note_on_c, 0, 61, 78
2, 68156, Note_off_c, 0, 69, 100
2, 68156, Note_off_c, 0, 61, 100
2, 68160, Note_on_c, 0, 69, 77
2, 68160, Note_on_c, 0, 66, 77
2, 68204, Note_off_c, 0, 66, 100
2, 68208, Note_on_c, 0, 62, 76
2, 68252, Note_off_c, 0, 62, 100
2, 68256, Note_on_c, 0, 57, 76
2, 68300, Note_off_c, 0, 57, 100
2, 68304, Note_on_c, 0, 66, 75
2, 68348, Note_off_c, 0, 66, 100
2, 68352, Note_on_c, 0, 66, 74
2, 68396, Note_off_c, 0, 66, 100
2, 68398, Control_c, 0, 64, 0
2, 68400, Note_on_c, 0, 62, 73
2, 68444, Note_off_c, 0, 69, 100
2, 68444, Note_off_c, 0, 62, 100
2, 68448, Note_on_c, 0, 68, 72
2, 68448, Note_on_c, 0, 65, 72
2, 68492, Note_off_c, 0, 65, 100
2, 68496, Note_on_c, 0, 62, 71
2, 68540, Note_off_c, 0, 68, 100
2, 68540, Note_off_c, 0, 62, 100
2, 68544, Control_c, 0, 64, 127
2, 68544, Note_on_c, 0, 67, 71
2, 68544, Note_on_c, 0, 64, 71
2, 68544, Note_on_c, 0, 58, 71
2, 68544, Note_on_c, 0, 55, 71
2, 68732, Note_off_c, 0, 67, 100
2, 68732, Note_off_c, 0, 64, 100
2, 68732, Note_off_c, 0, 58, 100
2, 68732, Note_off_c, 0, 55, 100
2, 69116, Control_c, 0, 64, 0
2, 69120, Control_c, 0, 64, 127
2, 69696, Note_on_c, 0, 66, 70
2, 69696, Note_on_c, 0, 63, 70
2, 70076, Note_off_c, 0, 66, 100
2, 70076, Note_off_c, 0, 63, 100
2, 70080, Note_on_c, 0, 71, 70
2, 70080, Note_on_c, 0, 66, 70
2, 70080, Note_on_c, 0, 63, 70
2, 70268, Note_off_c, 0, 71, 100
2, 70268, Note_off_c, 0, 66, 100
2, 70268, Note_off_c, 0, 63, 100
2, 70272, Note_on_c, 0, 71, 70
2, 70272, Note_on_c, 0, 66, 70
2, 70272, Note_on_c, 0, 63, 70
2, 70272, Note_on_c, 0, 59, 70
2, 70652, Note_off_c, 0, 71, 100
2, 70652, Note_off_c, 0, 66, 100
2, 70652, Note_off_c, 0, 63, 100
2, 70652, Note_off_c, 0, 59, 100
2, 70656, Note_on_c, 0, 71, 70
2, 70656, Note_on_c, 0, 66, 70
2, 70656, Note_on_c, 0, 63, 70
2, 70656, Note_on_c, 0, 59, 70
2, 70844, Note_off_c, 0, 71, 100
2, 70844, Note_off_c, 0, 66, 100
2, 70844, Note_off_c, 0, 63, 100
2, 70844, Note_off_c, 0, 59, 100
2, 70844, Control_c, 0, 64, 0
2, 70848, Note_on_c, 0, 71, 70
2, 70848, Note_on_c, 0, 64, 70
2, 70848, Note_on_c, 0, 59, 70
2, 71036, Note_off_c, 0, 71, 100
2, 71036, Note_off_c, 0, 64, 100
2, 71036, Note_off_c, 0, 59, 100
2, 71040, Note_on_c, 0, 69, 70
2, 71040, Note_on_c, 0, 64, 70
2, 71040, Note_on_c, 0, 61, 70
2, 71040, Note_on_c, 0, 57, 70
2, 71420, Note_off_c, 0, 69, 100
2, 71420, Note_off_c, 0, 64, 100
2, 71420, Note_off_c, 0, 61, 100
2, 71420, Note_off_c, 0, 57, 100
2, 71424, Note_on_c, 0, 69, 70
2, 71424, Note_on_c, 0, 66, 70
2, 71424, Note_on_c, 0, 62, 70
2, 71424, Note_on_c, 0, 57, 70
2, 71804, Note_off_c, 0, 69, 100
2, 71804, Note_off_c, 0, 66, 100
2, 71804, Note_off_c, 0, 62, 100
2, 71804, Note_off_c, 0, 57, 100
2, 71808, Note_on_c, 0, 66, 70
2, 71996, Note_off_c, 0, 66, 100
2, 72000, Note_on_c, 0, 57, 70
2, 72380, Note_off_c, 0, 57, 100
2, 72384, Note_on_c, 0, 69, 70
2, 72572, Note_off_c, 0, 69, 100
2, 72576, Note_on_c, 0, 66, 70
2, 72956, Note_off_c, 0, 66, 100
2, 72960, Note_on_c, 0, 90, 70
2, 72960, Note_on_c, 0, 81, 70
2, 72960, Note_on_c, 0, 78, 70
2, 73148, Note_off_c, 0, 90, 100
2, 73148, Note_off_c, 0, 81, 100
2, 73148, Note_off_c, 0, 78, 100
2, 73152, Note_on_c, 0, 79, 70
2, 73152, Note_on_c, 0, 76, 70
2, 73152, Note_on_c, 0, 88, 70
2, 73532, Note_off_c, 0, 79, 100
2, 73532, Note_off_c, 0, 76, 100
2, 73532, Note_off_c, 0, 88, 100
2, 73536, Note_on_c, 0, 81, 70
2, 73536, Note_on_c, 0, 79, 70
2, 73536, Note_on_c, 0, 76, 70
2, 73536, Note_on_c, 0, 69, 70
2, 73724, Note_off_c, 0, 81, 100
2, 73724, Note_off_c, 0, 79, 100
2, 73724, Note_off_c, 0, 76, 100
2, 73724, Note_off_c, 0, 69, 100
2, 73728, Note_on_c, 0, 81, 70
2, 73728, Note_on_c, 0, 78, 70
2, 73728, Note_on_c, 0, 69, 70
2, 74108, Note_off_c, 0, 81, 100
2, 74108, Note_off_c, 0, 78, 100
2, 74108, Note_off_c, 0, 69, 100
2, 74112, Note_on_c, 0, 78, 70
2, 74300, Note_off_c, 0, 78, 100
2, 74304, Note_on_c, 0, 69, 70
2, 74684, Note_off_c, 0, 69, 100
2, 74688, Note_on_c, 0, 81, 70
2, 74688, Note_on_c, 0, 69, 70
2, 74876, Note_off_c, 0, 81, 100
2, 74876, Note_off_c, 0, 69, 100
2, 74880, Note_on_c, 0, 78, 70
2, 74880, Note_on_c, 0, 66, 70
2, 75260, Note_off_c, 0, 78, 100
2, 75260, Note_off_c, 0, 66, 100
2, 75264, Note_on_c, 0, 81, 70
2, 75264, Note_on_c, 0, 69, 70
2, 75452, Note_off_c, 0, 81, 100
2, 75452, Note_off_c, 0, 69, 100
2, 75456, Note_on_c, 0, 71, 70
2, 75456, Note_on_c, 0, 83, 70
2, 75836, Note_off_c, 0, 71, 100
2, 75836, Note_off_c, 0, 83, 100
2, 75840, Note_on_c, 0, 85, 70
2, 75840, Note_on_c, 0, 79, 70
2, 75840, Note_on_c, 0, 76, 70
2, 75840, Note_on_c, 0, 73, 70
2, 76028, Note_off_c, 0, 85, 100
2, 76028, Note_off_c, 0, 79, 100
2, 76028, Note_off_c, 0, 76, 100
2, 76028, Note_off_c, 0, 73, 100
2, 76032, Note_on_c, 0, 86, 70
2, 76032, Note_on_c, 0, 78, 70
2, 76032, Note_on_c, 0, 74, 70
2, 76604, Note_off_c, 0, 86, 100
2, 76604, Note_off_c, 0, 78, 100
2, 76604, Note_off_c, 0, 74, 100
2, 76608, Note_on_c, 0, 88, 70
2, 76608, Note_on_c, 0, 85, 70
2, 76608, Note_on_c, 0, 76, 70
2, 77180, Note_off_c, 0, 88, 100
2, 77180, Note_off_c, 0, 85, 100
2, 77180, Note_off_c, 0, 76, 100
2, 77184, Note_on_c, 0, 88, 70
2, 77184, Note_on_c, 0, 85, 70
2, 77184, Note_on_c, 0, 76, 70
2, 77564, Note_off_c, 0, 88, 100
2, 77564, Note_off_c, 0, 85, 100
2, 77564, Note_off_c, 0, 76, 100
2, 77568, Note_on_c, 0, 90, 73
2, 77568, Note_on_c, 0, 87, 73
2, 77568, Note_on_c, 0, 78, 73
2, 77756, Note_off_c, 0, 90, 100
2, 77756, Note_off_c, 0, 87, 100
2, 77756, Note_off_c, 0, 78, 100
2, 77760, Note_on_c, 0, 91, 75
2, 77760, Note_on_c, 0, 88, 75
2, 77760, Note_on_c, 0, 79, 75
2, 77948, Note_off_c, 0, 91, 100
2, 77948, Note_off_c, 0, 88, 100
2, 77948, Note_off_c, 0, 79, 100
2, 77952, Note_on_c, 0, 93, 77
2, 77952, Note_on_c, 0, 88, 77
2, 77952, Note_on_c, 0, 81, 77
2, 78140, Note_off_c, 0, 93, 100
2, 78140, Note_off_c, 0, 88, 100
2, 78140, Note_off_c, 0, 81, 100
2, 78144, Note_on_c, 0, 91, 78
2, 78144, Note_on_c, 0, 88, 78
2, 78144, Note_on_c, 0, 81, 78
2, 78144, Note_on_c, 0, 93, 78
2, 78332, Note_off_c, 0, 91, 100
2, 78332, Note_off_c, 0, 88, 100
2, 78332, Note_off_c, 0, 81, 100
2, 78332, Note_off_c, 0, 93, 100
2, 78336, Note_on_c, 0, 93, 80
2, 78336, Note_on_c, 0, 81, 80
2, 78524, Note_off_c, 0, 93, 100
2, 78524, Note_off_c, 0, 81, 100
2, 78528, Note_on_c, 0, 81, 80
2, 78528, Note_on_c, 0, 69, 80
2, 78716, Note_off_c, 0, 81, 100
2, 78716, Note_off_c, 0, 69, 100
2, 78720, Note_on_c, 0, 78, 80
2, 78720, Note_on_c, 0, 66, 80
2, 78908, Note_off_c, 0, 78, 100
2, 78908, Note_off_c, 0, 66, 100
2, 78912, Note_on_c, 0, 78, 80
2, 78912, Note_on_c, 0, 66, 80
2, 79100, Note_off_c, 0, 78, 100
2, 79100, Note_off_c, 0, 66, 100
2, 79104, Note_on_c, 0, 74, 80
2, 79104, Note_on_c, 0, 62, 80
2, 79292, Note_off_c, 0, 74, 100
2, 79292, Note_off_c, 0, 62, 100
2, 79296, Note_on_c, 0, 76, 80
2, 79296, Note_on_c, 0, 64, 80
2, 79484, Note_off_c, 0, 76, 100
2, 79484, Note_off_c, 0, 64, 100
2, 79488, Note_on_c, 0, 78, 80
2, 79488, Note_on_c, 0, 66, 80
2, 80060, Note_off_c, 0, 78, 100
2, 80060, Note_off_c, 0, 66, 100
2, 80064, Note_on_c, 0, 79, 80
2, 80064, Note_on_c, 0, 67, 80
2, 80444, Note_off_c, 0, 79, 100
2, 80444, Note_off_c, 0, 67, 100
2, 80448, Note_on_c, 0, 83, 80
2, 80448, Note_on_c, 0, 71, 80
2, 80636, Note_off_c, 0, 83, 100
2, 80636, Note_off_c, 0, 71, 100
2, 80640, Note_on_c, 0, 83, 80
2, 80640, Note_on_c, 0, 79, 80
2, 80640, Note_on_c, 0, 71, 80
2, 81020, Note_off_c, 0, 83, 100
2, 81020, Note_off_c, 0, 79, 100
2, 81020, Note_off_c, 0, 71, 100
2, 81024, Note_on_c, 0, 82, 80
2, 81024, Note_on_c, 0, 79, 80
2, 81024, Note_on_c, 0, 70, 80
2, 81212, Note_off_c, 0, 82, 100
2, 81212, Note_off_c, 0, 79, 100
2, 81212, Note_off_c, 0, 70, 100
2, 81216, Note_on_c, 0, 82, 80
2, 81216, Note_on_c, 0, 70, 80
2, 81404, Note_off_c, 0, 82, 100
2, 81404, Note_off_c, 0, 70, 100
2, 81408, Note_on_c, 0, 88, 80
2, 81408, Note_on_c, 0, 76, 80
2, 81596, Note_off_c, 0, 88, 100
2, 81596, Note_off_c, 0, 76, 100
2, 81600, Note_on_c, 0, 89, 80
2, 81600, Note_on_c, 0, 77, 80
2, 81692, Note_off_c, 0, 89, 100
2, 81692, Note_off_c, 0, 77, 100
2, 81696, Note_on_c, 0, 90, 80
2, 81696, Note_on_c, 0, 78, 80
2, 81788, Note_off_c, 0, 90, 100
2, 81788, Note_off_c, 0, 78, 100
2, 81792, Control_c, 0, 64, 127
2, 81792, Note_on_c, 0, 90, 80
2, 81792, Note_on_c, 0, 78, 80
2, 82364, Note_off_c, 0, 90, 100
2, 82364, Note_off_c, 0, 78, 100
2, 82364, Control_c, 0, 64, 0
2, 82368, Control_c, 0, 64, 127
2, 82368, Note_on_c, 0, 75, 80
2, 82464, Note_on_c, 0, 78, 80
2, 82560, Note_on_c, 0, 80, 80
2, 82652, Note_off_c, 0, 75, 100
2, 82656, Note_on_c, 0, 87, 80
2, 82748, Note_off_c, 0, 78, 100
2, 82752, Note_on_c, 0, 90, 80
2, 82844, Note_off_c, 0, 80, 100
2, 82844, Note_off_c, 0, 90, 100
2, 82846, Note_off_c, 0, 87, 100
2, 82848, Note_on_c, 0, 92, 80
2, 82940, Note_off_c, 0, 92, 100
2, 82940, Control_c, 0, 64, 0
2, 82944, Key_signature, 3, "major"
2, 82944, Note_on_c, 0, 77, 80
2, 82944, Note_on_c, 0, 65, 80
2, 83516, Note_off_c, 0, 77, 100
2, 83516, Note_off_c, 0, 65, 100
2, 83520, Note_on_c, 0, 68, 80
2, 83520, Note_on_c, 0, 80, 80
2, 83708, Note_off_c, 0, 68, 100
2, 83712, Note_on_c, 0, 77, 80
2, 83900, Note_off_c, 0, 80, 100
2, 83900, Note_off_c, 0, 77, 100
2, 83904, Note_on_c, 0, 78, 80
2, 83904, Note_on_c, 0, 80, 80
2, 84092, Note_off_c, 0, 78, 100
2, 84092, Note_off_c, 0, 80, 100
2, 84096, Note_on_c, 0, 85, 80
2, 84096, Note_on_c, 0, 80, 80
2, 84284, Note_off_c, 0, 80, 100
2, 84288, Note_on_c, 0, 73, 80
2, 84476, Note_off_c, 0, 73, 100
2, 84480, Note_on_c, 0, 73, 80
2, 84668, Note_off_c, 0, 85, 100
2, 84668, Note_off_c, 0, 73, 100
2, 84672, Note_on_c, 0, 73, 80
2, 84672, Note_on_c, 0, 81, 80
2, 84860, Note_off_c, 0, 73, 100
2, 84864, Note_on_c, 0, 69, 80
2, 85052, Note_off_c, 0, 81, 100
2, 85052, Note_off_c, 0, 69, 100
2, 85056, Note_on_c, 0, 66, 80
2, 85056, Note_on_c, 0, 73, 80
2, 85056, Note_on_c, 0, 78, 80
2, 85244, Note_off_c, 0, 66, 100
2, 85244, Note_off_c, 0, 73, 100
2, 85244, Note_off_c, 0, 78, 100
2, 85248, Note_on_c, 0, 90, 80
2, 85248, Note_on_c, 0, 78, 80
2, 85436, Note_off_c, 0, 78, 100
2, 85440, Note_on_c, 0, 87, 80
2, 85628, Note_off_c, 0, 90, 100
2, 85628, Note_off_c, 0, 87, 100
2, 85632, Note_on_c, 0, 90, 80
2, 85632, Note_on_c, 0, 87, 80
2, 85632, Note_on_c, 0, 78, 80
2, 85820, Note_off_c, 0, 90, 100
2, 85820, Note_off_c, 0, 87, 100
2, 85820, Note_off_c, 0, 78, 100
2, 85824, Note_on_c, 0, 90, 80
2, 85824, Note_on_c, 0, 87, 80
2, 85824, Note_on_c, 0, 78, 80
2, 86012, Note_off_c, 0, 90, 100
2, 86012, Note_off_c, 0, 87, 100
2, 86012, Note_off_c, 0, 78, 100
2, 86016, Note_on_c, 0, 87, 80
2, 86016, Note_on_c, 0, 80, 80
2, 86016, Note_on_c, 0, 78, 80
2, 86204, Note_off_c, 0, 87, 100
2, 86204, Note_off_c, 0, 80, 100
2, 86204, Note_off_c, 0, 78, 100
2, 86208, Note_on_c, 0, 85, 80
2, 86208, Note_on_c, 0, 80, 80
2, 86208, Note_on_c, 0, 77, 80
2, 86396, Note_off_c, 0, 85, 100
2, 86396, Note_off_c, 0, 80, 100
2, 86396, Note_off_c, 0, 77, 100
2, 86400, Key_signature, -3, "major"
2, 86400, Control_c, 0, 64, 127
2, 86400, Note_on_c, 0, 83, 80
2, 86400, Note_on_c, 0, 80, 80
2, 86400, Note_on_c, 0, 77, 80
2, 86780, Note_off_c, 0, 83, 100
2, 86780, Note_off_c, 0, 80, 100
2, 86780, Note_off_c, 0, 77, 100
2, 86784, Note_on_c, 0, 56, 85
2, 86880, Note_on_c, 0, 53, 86
2, 86972, Note_off_c, 0, 53, 100
2, 86972, Control_c, 0, 64, 0
2, 86974, Note_off_c, 0, 56, 100
2, 86976, Control_c, 0, 64, 127
2, 86976, Note_on_c, 0, 50, 88
2, 87072, Note_on_c, 0, 53, 89
2, 87168, Note_on_c, 0, 58, 90
2, 87260, Note_off_c, 0, 50, 100
2, 87264, Note_on_c, 0, 62, 92
2, 87356, Note_off_c, 0, 53, 100
2, 87360, Note_on_c, 0, 65, 93
2, 87452, Note_off_c, 0, 58, 100
2, 87456, Note_on_c, 0, 70, 94
2, 87548, Note_off_c, 0, 62, 100
2, 87548, Note_off_c, 0, 70, 100
2, 87548, Control_c, 0, 64, 0
2, 87550, Note_off_c, 0, 65, 100
2, 87552, Note_on_c, 0, 82, 96
2, 87552, Note_on_c, 0, 70, 96
2, 87932, Note_off_c, 0, 82, 100
2, 87932, Note_off_c, 0, 70, 100
2, 87936, Note_on_c, 0, 79, 101
2, 87936, Note_on_c, 0, 67, 101
2, 88124, Note_off_c, 0, 79, 100
2, 88124, Note_off_c, 0, 67, 100
2, 88128, Note_on_c, 0, 79, 104
2, 88128, Note_on_c, 0, 67, 104
2, 88316, Note_off_c, 0, 79, 100
2, 88316, Note_off_c, 0, 67, 100
2, 88320, Note_on_c, 0, 75, 106
2, 88320, Note_on_c, 0, 63, 106
2, 88508, Note_off_c, 0, 75, 100
2, 88508, Note_off_c, 0, 63, 100
2, 88512, Note_on_c, 0, 77, 109
2, 88512, Note_on_c, 0, 74, 109
2, 88512, Note_on_c, 0, 70, 109
2, 88512, Note_on_c, 0, 65, 109
2, 88604, Note_off_c, 0, 65, 100
2, 88608, Note_on_c, 0, 68, 110
2, 88700, Note_off_c, 0, 77, 100
2, 88700, Note_off_c, 0, 74, 100
2, 88700, Note_off_c, 0, 70, 100
2, 88700, Note_off_c, 0, 68, 100
2, 88704, Note_on_c, 0, 79, 110
2, 88704, Note_on_c, 0, 75, 110
2, 88704, Note_on_c, 0, 70, 110
2, 88704, Note_on_c, 0, 67, 110
2, 89084, Note_off_c, 0, 79, 100
2, 89084, Note_off_c, 0, 75, 100
2, 89084, Note_off_c, 0, 70, 100
2, 89084, Note_off_c, 0, 67, 100
2, 89088, Note_on_c, 0, 83, 110
2, 89088, Note_on_c, 0, 71, 110
2, 89276, Note_off_c, 0, 83, 100
2, 89276, Note_off_c, 0, 71, 100
2, 89280, Note_on_c, 0, 80, 110
2, 89280, Note_on_c, 0, 68, 110
2, 89660, Note_off_c, 0, 80, 100
2, 89660, Note_off_c, 0, 68, 100
2, 89664, Note_on_c, 0, 77, 110
2, 89664, Note_on_c, 0, 65, 110
2, 89852, Note_off_c, 0, 77, 100
2, 89852, Note_off_c, 0, 65, 100
2, 89856, Note_on_c, 0, 85, 110
2, 89856, Note_on_c, 0, 73, 110
2, 90236, Note_off_c, 0, 85, 100
2, 90236, Note_off_c, 0, 73, 100
2, 90240, Note_on_c, 0, 82, 110
2, 90240, Note_on_c, 0, 70, 110
2, 90428, Note_off_c, 0, 82, 100
2, 90428, Note_off_c, 0, 70, 100
2, 90432, Note_on_c, 0, 79, 110
2, 90432, Note_on_c, 0, 67, 110
2, 90812, Note_off_c, 0, 79, 100
2, 90812, Note_off_c, 0, 67, 100
2, 90816, Note_on_c, 0, 75, 110
2, 90912, Note_on_c, 0, 67, 110
2, 90912, Note_on_c, 0, 63, 110
2, 91004, Note_off_c, 0, 75, 100
2, 91004, Note_off_c, 0, 67, 100
2, 91004, Note_off_c, 0, 63, 100
2, 91008, Note_on_c, 0, 71, 100
2, 91008, Note_on_c, 0, 68, 100
2, 91008, Note_on_c, 0, 63, 100
2, 91196, Note_off_c, 0, 68, 100
2, 91196, Note_off_c, 0, 63, 100
2, 91388, Note_off_c, 0, 71, 100
2, 91392, Note_on_c, 0, 68, 98
2, 91580, Note_off_c, 0, 68, 100
2, 91584, Note_on_c, 0, 76, 97
2, 91964, Note_off_c, 0, 76, 100
2, 91968, Note_on_c, 0, 73, 94
2, 92156, Note_off_c, 0, 73, 100
2, 92160, Key_signature, 0, "major"
2, 92160, Note_on_c, 0, 70, 93
2, 92540, Note_off_c, 0, 70, 100
2, 92544, Note_on_c, 0, 90, 110
2, 92544, Note_on_c, 0, 78, 110
2, 92732, Note_off_c, 0, 90, 100
2, 92732, Note_off_c, 0, 78, 100
2, 92736, Note_on_c, 0, 87, 110
2, 92736, Note_on_c, 0, 75, 110
2, 93116, Note_off_c, 0, 87, 100
2, 93116, Note_off_c, 0, 75, 100
2, 93120, Note_on_c, 0, 84, 110
2, 93120, Note_on_c, 0, 72, 110
2, 93308, Note_off_c, 0, 84, 100
2, 93308, Note_off_c, 0, 72, 100
2, 93312, Note_on_c, 0, 92, 110
2, 93312, Note_on_c, 0, 80, 110
2, 93692, Note_off_c, 0, 92, 100
2, 93692, Note_off_c, 0, 80, 100
2, 93696, Note_on_c, 0, 88, 110
2, 93696, Note_on_c, 0, 76, 110
2, 93884, Note_off_c, 0, 88, 100
2, 93884, Note_off_c, 0, 76, 100
2, 93888, Note_on_c, 0, 85, 110
2, 93888, Note_on_c, 0, 73, 110
2, 94268, Note_off_c, 0, 85, 100
2, 94268, Note_off_c, 0, 73, 100
2, 94272, Note_on_c, 0, 69, 100
2, 94272, Note_on_c, 0, 57, 100
2, 94460, Note_off_c, 0, 69, 100
2, 94460, Note_off_c, 0, 57, 100
2, 94464, Note_on_c, 0, 66, 99
2, 94464, Note_on_c, 0, 57, 99
2, 94652, Note_off_c, 0, 57, 100
2, 94656, Note_on_c, 0, 58, 97
2, 94748, Note_off_c, 0, 58, 100
2, 94752, Note_on_c, 0, 63, 97
2, 94844, Note_off_c, 0, 66, 100
2, 94844, Note_off_c, 0, 63, 100
2, 94848, Note_on_c, 0, 63, 96
2, 95036, Note_off_c, 0, 63, 100
2, 95040, Note_on_c, 0, 83, 94
2, 95420, Note_off_c, 0, 83, 100
2, 95424, Note_on_c, 0, 80, 91
2, 95612, Note_off_c, 0, 80, 100
2, 95616, Note_on_c, 0, 77, 90
2, 95996, Note_off_c, 0, 77, 100
2, 96000, Note_on_c, 0, 85, 90
2, 96000, Note_on_c, 0, 73, 90
2, 96188, Note_off_c, 0, 85, 100
2, 96188, Note_off_c, 0, 73, 100
2, 96192, Note_on_c, 0, 81, 90
2, 96192, Note_on_c, 0, 73, 90
2, 96284, Note_off_c, 0, 73, 100
2, 96288, Note_on_c, 0, 78, 90
2, 96476, Note_off_c, 0, 78, 100
2, 96480, Note_on_c, 0, 69, 90
2, 96572, Note_off_c, 0, 81, 100
2, 96572, Note_off_c, 0, 69, 100
2, 96576, Note_on_c, 0, 86, 90
2, 96576, Note_on_c, 0, 74, 90
2, 96764, Note_off_c, 0, 86, 100
2, 96764, Note_off_c, 0, 74, 100
2, 96768, Key_signature, 3, "major"
2, 96768, Control_c, 0, 64, 127
2, 96768, Note_on_c, 0, 83, 90
2, 96768, Note_on_c, 0, 71, 90
2, 97148, Note_off_c, 0, 83, 100
2, 97148, Note_off_c, 0, 71, 100
2, 97152, Note_on_c, 0, 80, 87
2, 97152, Note_on_c, 0, 68, 87
2, 97340, Note_off_c, 0, 80, 100
2, 97340, Note_off_c, 0, 68, 100
2, 97344, Note_on_c, 0, 65, 86
2, 97344, Note_on_c, 0, 77, 86
2, 97724, Note_off_c, 0, 65, 100
2, 97724, Note_off_c, 0, 77, 100
2, 97728, Note_on_c, 0, 74, 82
2, 97728, Note_on_c, 0, 71, 82
2, 97728, Note_on_c, 0, 68, 82
2, 97728, Note_on_c, 0, 65, 82
2, 97916, Note_off_c, 0, 74, 100
2, 97916, Note_off_c, 0, 71, 100
2, 97916, Note_off_c, 0, 68, 100
2, 97916, Note_off_c, 0, 65, 100
2, 97920, Note_on_c, 0, 71, 81
2, 97920, Note_on_c, 0, 68, 81
2, 97920, Note_on_c, 0, 65, 81
2, 97920, Note_on_c, 0, 62, 81
2, 98300, Note_off_c, 0, 71, 100
2, 98300, Note_off_c, 0, 68, 100
2, 98300, Note_off_c, 0, 65, 100
2, 98300, Note_off_c, 0, 62, 100
2, 98304, Note_on_c, 0, 68, 77
2, 98304, Note_on_c, 0, 65, 77
2, 98304, Note_on_c, 0, 62, 77
2, 98304, Note_on_c, 0, 59, 77
2, 98492, Note_off_c, 0, 68, 100
2, 98492, Note_off_c, 0, 65, 100
2, 98492, Note_off_c, 0, 62, 100
2, 98492, Note_off_c, 0, 59, 100
2, 98496, Note_on_c, 0, 59, 76
2, 98496, Note_on_c, 0, 65, 76
2, 98496, Note_on_c, 0, 62, 76
2, 98496, Note_on_c, 0, 56, 76
2, 98876, Note_off_c, 0, 59, 100
2, 98876, Note_off_c, 0, 65, 100
2, 98876, Note_off_c, 0, 62, 100
2, 98876, Note_off_c, 0, 56, 100
2, 98880, Note_on_c, 0, 56, 72
2, 98880, Note_on_c, 0, 53, 72
2, 98880, Note_on_c, 0, 59, 72
2, 98880, Note_on_c, 0, 62, 72
2, 99118, Note_off_c, 0, 53, 100
2, 99118, Note_off_c, 0, 56, 100
2, 99118, Note_off_c, 0, 59, 100
2, 99118, Note_off_c, 0, 62, 100
2, 99120, Note_on_c, 0, 59, 70
2, 99168, Note_on_c, 0, 56, 70
2, 99216, Note_on_c, 0, 53, 70
2, 99264, Note_on_c, 0, 50, 70
2, 99310, Note_off_c, 0, 59, 100
2, 99312, Note_on_c, 0, 47, 70
2, 99358, Note_off_c, 0, 56, 100
2, 99360, Note_on_c, 0, 44, 70
2, 99406, Note_off_c, 0, 53, 100
2, 99406, Note_off_c, 0, 47, 100
2, 99408, Note_on_c, 0, 47, 70
2, 99454, Note_off_c, 0, 50, 100
2, 99456, Note_on_c, 0, 47, 70
2, 99456, Note_on_c, 0, 50, 70
2, 99504, Note_on_c, 0, 53, 70
2, 99550, Note_off_c, 0, 44, 100
2, 99552, Note_on_c, 0, 56, 70
2, 99598, Note_off_c, 0, 47, 100
2, 99600, Note_on_c, 0, 59, 70
2, 99646, Note_off_c, 0, 47, 100
2, 99646, Note_off_c, 0, 50, 100
2, 99648, Note_on_c, 0, 62, 70
2, 99648, Note_on_c, 0, 59, 70
2, 99694, Note_off_c, 0, 53, 100
2, 99696, Note_on_c, 0, 65, 70
2, 99742, Note_off_c, 0, 56, 100
2, 99744, Note_on_c, 0, 68, 70
2, 99790, Note_off_c, 0, 59, 100
2, 99792, Note_on_c, 0, 71, 70
2, 99826, Note_off_c, 0, 65, 100
2, 99838, Note_off_c, 0, 62, 100
2, 99838, Note_off_c, 0, 59, 100
2, 99838, Note_off_c, 0, 68, 100
2, 99838, Note_off_c, 0, 71, 100
2, 99840, Note_on_c, 0, 71, 70
2, 99840, Note_on_c, 0, 74, 70
2, 99888, Note_on_c, 0, 77, 70
2, 99930, Note_off_c, 0, 71, 100
2, 99930, Note_off_c, 0, 74, 100
2, 99936, Note_on_c, 0, 80, 70
2, 99974, Note_off_c, 0, 77, 100
2, 99984, Note_on_c, 0, 83, 70
2, 100028, Control_c, 0, 64, 0
2, 100030, Note_off_c, 0, 80, 100
2, 100032, Note_on_c, 0, 86, 70
2, 100032, Note_on_c, 0, 81, 70
2, 100068, Note_off_c, 0, 83, 100
2, 100080, Note_on_c, 0, 84, 70
2, 100124, Note_off_c, 0, 86, 100
2, 100128, Note_on_c, 0, 86, 70
2, 100168, Note_off_c, 0, 84, 100
2, 100176, Note_on_c, 0, 85, 70
2, 100216, Note_off_c, 0, 86, 100
2, 100220, Note_off_c, 0, 81, 100
2, 100220, Note_off_c, 0, 85, 100
2, 100224, Note_on_c, 0, 81, 70
2, 100224, Note_on_c, 0, 86, 70
2, 100272, Note_on_c, 0, 73, 70
2, 100316, Note_off_c, 0, 86, 100
2, 100320, Note_on_c, 0, 86, 70
2, 100362, Note_off_c, 0, 73, 100
2, 100368, Note_on_c, 0, 85, 70
2, 100410, Note_off_c, 0, 86, 100
2, 100414, Note_off_c, 0, 81, 100
2, 100416, Note_on_c, 0, 81, 70
2, 100416, Note_on_c, 0, 73, 70
2, 100460, Note_off_c, 0, 85, 100
2, 100464, Note_on_c, 0, 85, 70
2, 100504, Note_off_c, 0, 73, 100
2, 100512, Note_on_c, 0, 86, 70
2, 100552, Note_off_c, 0, 85, 100
2, 100560, Note_on_c, 0, 85, 70
2, 100604, Note_off_c, 0, 81, 100
2, 100606, Note_off_c, 0, 86, 100
2, 100608, Note_on_c, 0, 83, 70
2, 100650, Note_off_c, 0, 85, 100
2, 100656, Note_on_c, 0, 69, 70
2, 100694, Note_off_c, 0, 83, 100
2, 100704, Note_on_c, 0, 83, 70
2, 100746, Note_off_c, 0, 69, 100
2, 100752, Note_on_c, 0, 81, 70
2, 100792, Note_off_c, 0, 83, 100
2, 100800, Note_on_c, 0, 69, 70
2, 100846, Note_off_c, 0, 81, 100
2, 100848, Note_on_c, 0, 81, 70
2, 100890, Note_off_c, 0, 69, 100
2, 100896, Note_on_c, 0, 83, 70
2, 100942, Note_off_c, 0, 81, 100
2, 100944, Note_on_c, 0, 81, 70
2, 100990, Note_off_c, 0, 83, 100
2, 100992, Note_on_c, 0, 80, 70
2, 101034, Note_off_c, 0, 81, 100
2, 101040, Note_on_c, 0, 66, 70
2, 101086, Note_off_c, 0, 80, 100
2, 101088, Note_on_c, 0, 80, 70
2, 101134, Note_off_c, 0, 66, 100
2, 101136, Note_on_c, 0, 78, 70
2, 101182, Note_off_c, 0, 80, 100
2, 101184, Note_on_c, 0, 68, 70
2, 101228, Note_off_c, 0, 78, 100
2, 101232, Note_on_c, 0, 80, 70
2, 101266, Note_off_c, 0, 68, 100
2, 101280, Note_on_c, 0, 81, 70
2, 101326, Note_off_c, 0, 80, 100
2, 101328, Note_on_c, 0, 80, 70
2, 101374, Note_off_c, 0, 81, 100
2, 101376, Note_on_c, 0, 69, 70
2, 101422, Note_off_c, 0, 80, 100
2, 101424, Note_on_c, 0, 81, 70
2, 101468, Note_off_c, 0, 69, 100
2, 101472, Note_on_c, 0, 83, 70
2, 101516, Note_off_c, 0, 81, 100
2, 101520, Note_on_c, 0, 81, 70
2, 101558, Note_off_c, 0, 83, 100
2, 101568, Note_on_c, 0, 83, 70
2, 101604, Note_off_c, 0, 81, 100
2, 101616, Note_on_c, 0, 70, 70
2, 101656, Note_off_c, 0, 83, 100
2, 101664, Note_on_c, 0, 83, 70
2, 101702, Note_off_c, 0, 70, 100
2, 101712, Note_on_c, 0, 82, 70
2, 101750, Note_off_c, 0, 83, 100
2, 101760, Note_on_c, 0, 71, 70
2, 101802, Note_off_c, 0, 82, 100
2, 101808, Note_on_c, 0, 83, 70
2, 101854, Note_off_c, 0, 71, 100
2, 101856, Note_on_c, 0, 85, 70
2, 101888, Note_off_c, 0, 83, 100
2, 101904, Note_on_c, 0, 83, 70
2, 101942, Note_off_c, 0, 85, 100
2, 101952, Note_on_c, 0, 85, 70
2, 101998, Note_off_c, 0, 83, 100
2, 102000, Note_on_c, 0, 83, 70
2, 102046, Note_off_c, 0, 85, 100
2, 102048, Note_on_c, 0, 71, 70
2, 102094, Note_off_c, 0, 83, 100
2, 102096, Note_on_c, 0, 83, 70
2, 102142, Note_off_c, 0, 71, 100
2, 102144, Note_on_c, 0, 71, 70
2, 102188, Note_off_c, 0, 83, 100
2, 102192, Note_on_c, 0, 83, 70
2, 102236, Note_off_c, 0, 71, 100
2, 102240, Note_on_c, 0, 85, 70
2, 102286, Note_off_c, 0, 83, 100
2, 102288, Note_on_c, 0, 83, 70
2, 102332, Note_off_c, 0, 85, 100
2, 102336, Note_on_c, 0, 88, 70
2, 102378, Note_off_c, 0, 83, 100
2, 102384, Note_on_c, 0, 86, 70
2, 102428, Note_off_c, 0, 88, 100
2, 102432, Note_on_c, 0, 74, 70
2, 102466, Note_off_c, 0, 86, 100
2, 102480, Note_on_c, 0, 86, 70
2, 102522, Note_off_c, 0, 74, 100
2, 102528, Note_on_c, 0, 74, 70
2, 102564, Note_off_c, 0, 86, 100
2, 102576, Note_on_c, 0, 86, 70
2, 102616, Note_off_c, 0, 74, 100
2, 102624, Note_on_c, 0, 88, 71
2, 102664, Note_off_c, 0, 86, 100
2, 102672, Note_on_c, 0, 86, 71
2, 102714, Note_off_c, 0, 88, 100
2, 102720, Note_on_c, 0, 88, 72
2, 102758, Note_off_c, 0, 86, 100
2, 102768, Note_on_c, 0, 86, 72
2, 102814, Note_off_c, 0, 88, 100
2, 102816, Note_on_c, 0, 74, 73
2, 102856, Note_off_c, 0, 86, 100
2, 102864, Note_on_c, 0, 86, 73
2, 102910, Note_off_c, 0, 74, 100
2, 102912, Note_on_c, 0, 73, 74
2, 102958, Note_off_c, 0, 86, 100
2, 102960, Note_on_c, 0, 85, 74
2, 103006, Note_off_c, 0, 73, 100
2, 103008, Note_on_c, 0, 86, 75
2, 103044, Note_off_c, 0, 85, 100
2, 103056, Note_on_c, 0, 85, 75
2, 103096, Note_off_c, 0, 86, 100
2, 103104, Note_on_c, 0, 86, 76
2, 103148, Note_off_c, 0, 85, 100
2, 103152, Note_on_c, 0, 85, 76
2, 103188, Note_off_c, 0, 86, 100
2, 103200, Note_on_c, 0, 73, 77
2, 103242, Note_off_c, 0, 85, 100
2, 103248, Note_on_c, 0, 85, 77
2, 103286, Note_off_c, 0, 73, 100
2, 103296, Note_on_c, 0, 83, 78
2, 103296, Note_on_c, 0, 77, 78
2, 103342, Note_off_c, 0, 85, 100
2, 103344, Note_on_c, 0, 89, 78
2, 103386, Note_off_c, 0, 77, 100
2, 103390, Note_off_c, 0, 83, 100
2, 103392, Note_on_c, 0, 90, 79
2, 103426, Note_off_c, 0, 89, 100
2, 103440, Note_on_c, 0, 89, 79
2, 103484, Note_off_c, 0, 90, 100
2, 103488, Note_on_c, 0, 92, 80
2, 103524, Note_off_c, 0, 89, 100
2, 103536, Note_on_c, 0, 90, 81
2, 103574, Note_off_c, 0, 92, 100
2, 103584, Note_on_c, 0, 81, 81
2, 103584, Note_on_c, 0, 78, 81
2, 103626, Note_off_c, 0, 90, 100
2, 103632, Note_on_c, 0, 90, 82
2, 103666, Note_off_c, 0, 78, 100
2, 103670, Note_off_c, 0, 81, 100
2, 103680, Note_on_c, 0, 93, 82
2, 103722, Note_off_c, 0, 90, 100
2, 103728, Note_on_c, 0, 92, 83
2, 103768, Note_off_c, 0, 93, 100
2, 103776, Note_on_c, 0, 80, 83
2, 103812, Note_off_c, 0, 92, 100
2, 103824, Note_on_c, 0, 92, 84
2, 103860, Note_off_c, 0, 80, 100
2, 103904, Note_off_c, 0, 92, 100
2, 103920, Note_on_c, 0, 92, 85
2, 103968, Note_on_c, 0, 80, 85
2, 104002, Note_off_c, 0, 92, 100
2, 104016, Note_on_c, 0, 92, 86
2, 104056, Note_off_c, 0, 80, 100
2, 104104, Note_off_c, 0, 92, 100
2, 104112, Note_on_c, 0, 92, 87
2, 104160, Note_on_c, 0, 80, 87
2, 104196, Note_off_c, 0, 92, 100
2, 104208, Note_on_c, 0, 92, 88
2, 104246, Note_off_c, 0, 80, 100
2, 104290, Note_off_c, 0, 92, 100
2, 104304, Note_on_c, 0, 80, 89
2, 104352, Note_on_c, 0, 88, 89
2, 104398, Note_off_c, 0, 80, 100
2, 104400, Note_on_c, 0, 86, 90
2, 104444, Note_off_c, 0, 88, 100
2, 104448, Note_on_c, 0, 85, 90
2, 104494, Note_off_c, 0, 86, 100
2, 104496, Note_on_c, 0, 86, 90
2, 104540, Note_off_c, 0, 85, 100
2, 104544, Note_on_c, 0, 80, 90
2, 104590, Note_off_c, 0, 86, 100
2, 104592, Note_on_c, 0, 86, 90
2, 104634, Note_off_c, 0, 80, 100
2, 104678, Note_off_c, 0, 86, 100
2, 104688, Note_on_c, 0, 86, 90
2, 104736, Note_on_c, 0, 80, 90
2, 104776, Note_off_c, 0, 86, 100
2, 104784, Note_on_c, 0, 86, 90
2, 104822, Note_off_c, 0, 80, 100
2, 104830, Note_off_c, 0, 86, 100
2, 104832, Note_on_c, 0, 74, 90
2, 104880, Note_on_c, 0, 85, 90
2, 104926, Note_off_c, 0, 74, 100
2, 104928, Note_on_c, 0, 88, 90
2, 104964, Note_off_c, 0, 85, 100
2, 104976, Note_on_c, 0, 86, 90
2, 105022, Note_off_c, 0, 88, 100
2, 105024, Note_on_c, 0, 85, 90
2, 105068, Note_off_c, 0, 86, 100
2, 105072, Note_on_c, 0, 86, 90
2, 105108, Note_off_c, 0, 85, 100
2, 105120, Note_on_c, 0, 74, 90
2, 105162, Note_off_c, 0, 86, 100
2, 105168, Note_on_c, 0, 86, 90
2, 105210, Note_off_c, 0, 74, 100
2, 105216, Note_on_c, 0, 74, 90
2, 105252, Note_off_c, 0, 86, 100
2, 105264, Note_on_c, 0, 86, 90
2, 105302, Note_off_c, 0, 74, 100
2, 105312, Note_on_c, 0, 88, 90
2, 105354, Note_off_c, 0, 86, 100
2, 105360, Note_on_c, 0, 86, 90
2, 105398, Note_off_c, 0, 88, 100
2, 105406, Note_off_c, 0, 86, 100
2, 105408, Note_on_c, 0, 86, 90
2, 105456, Note_on_c, 0, 85, 90
2, 105496, Note_off_c, 0, 86, 100
2, 105504, Note_on_c, 0, 73, 90
2, 105546, Note_off_c, 0, 85, 100
2, 105552, Note_on_c, 0, 85, 90
2, 105594, Note_off_c, 0, 73, 100
2, 105600, Note_on_c, 0, 84, 90
2, 105644, Note_off_c, 0, 85, 100
2, 105648, Note_on_c, 0, 85, 90
2, 105692, Note_off_c, 0, 84, 100
2, 105696, Note_on_c, 0, 73, 90
2, 105738, Note_off_c, 0, 85, 100
2, 105744, Note_on_c, 0, 85, 89
2, 105790, Note_off_c, 0, 73, 100
2, 105792, Note_on_c, 0, 82, 89
2, 105832, Note_off_c, 0, 85, 100
2, 105840, Note_on_c, 0, 83, 89
2, 105884, Note_off_c, 0, 82, 100
2, 105888, Note_on_c, 0, 71, 89
2, 105930, Note_off_c, 0, 83, 100
2, 105936, Note_on_c, 0, 83, 88
2, 105970, Note_off_c, 0, 71, 100
2, 105982, Note_off_c, 0, 83, 100
2, 105984, Note_on_c, 0, 71, 88
2, 106032, Note_on_c, 0, 83, 88
2, 106078, Note_off_c, 0, 71, 100
2, 106080, Note_on_c, 0, 85, 87
2, 106118, Note_off_c, 0, 83, 100
2, 106128, Note_on_c, 0, 83, 87
2, 106172, Note_off_c, 0, 85, 100
2, 106176, Note_on_c, 0, 82, 87
2, 106214, Note_off_c, 0, 83, 100
2, 106224, Note_on_c, 0, 83, 87
2, 106266, Note_off_c, 0, 82, 100
2, 106272, Note_on_c, 0, 71, 86
2, 106312, Note_off_c, 0, 83, 100
2, 106320, Note_on_c, 0, 83, 86
2, 106362, Note_off_c, 0, 71, 100
2, 106368, Note_on_c, 0, 71, 86
2, 106408, Note_off_c, 0, 83, 100
2, 106416, Note_on_c, 0, 83, 85
2, 106454, Note_off_c, 0, 71, 100
2, 106464, Note_on_c, 0, 85, 85
2, 106500, Note_off_c, 0, 83, 100
2, 106512, Note_on_c, 0, 83, 85
2, 106552, Note_off_c, 0, 85, 100
2, 106606, Note_off_c, 0, 83, 100
2, 106608, Note_on_c, 0, 85, 84
2, 106656, Note_on_c, 0, 71, 84
2, 106696, Note_off_c, 0, 85, 100
2, 106704, Note_on_c, 0, 83, 84
2, 106748, Note_off_c, 0, 71, 100
2, 106750, Note_off_c, 0, 83, 100
2, 106800, Note_on_c, 0, 83, 83
2, 106848, Note_on_c, 0, 69, 83
2, 106894, Note_off_c, 0, 83, 100
2, 106896, Note_on_c, 0, 81, 83
2, 106934, Note_off_c, 0, 69, 100
2, 106942, Note_off_c, 0, 81, 100
2, 106992, Note_on_c, 0, 81, 82
2, 107040, Note_on_c, 0, 68, 82
2, 107080, Note_off_c, 0, 81, 100
2, 107088, Note_on_c, 0, 80, 81
2, 107130, Note_off_c, 0, 68, 100
2, 107134, Note_off_c, 0, 80, 100
2, 107136, Note_on_c, 0, 68, 81
2, 107184, Note_on_c, 0, 80, 81
2, 107230, Note_off_c, 0, 68, 100
2, 107232, Note_on_c, 0, 79, 81
2, 107268, Note_off_c, 0, 80, 100
2, 107280, Note_on_c, 0, 80, 80
2, 107324, Note_off_c, 0, 79, 100
2, 107328, Note_on_c, 0, 81, 80
2, 107372, Note_off_c, 0, 80, 100
2, 107376, Note_on_c, 0, 80, 80
2, 107414, Note_off_c, 0, 81, 100
2, 107424, Note_on_c, 0, 68, 80
2, 107466, Note_off_c, 0, 80, 100
2, 107472, Note_on_c, 0, 80, 79
2, 107506, Note_off_c, 0, 68, 100
2, 107520, Note_on_c, 0, 68, 79
2, 107566, Note_off_c, 0, 80, 100
2, 107568, Note_on_c, 0, 80, 79
2, 107612, Note_off_c, 0, 68, 100
2, 107616, Note_on_c, 0, 81, 78
2, 107658, Note_off_c, 0, 80, 100
2, 107664, Note_on_c, 0, 80, 78
2, 107702, Note_off_c, 0, 81, 100
2, 107712, Note_on_c, 0, 81, 78
2, 107758, Note_off_c, 0, 80, 100
2, 107760, Note_on_c, 0, 80, 78
2, 107800, Note_off_c, 0, 81, 100
2, 107808, Note_on_c, 0, 68, 77
2, 107846, Note_off_c, 0, 80, 100
2, 107856, Note_on_c, 0, 80, 77
2, 107900, Note_off_c, 0, 68, 100
2, 107904, Note_on_c, 0, 69, 77
2, 107944, Note_off_c, 0, 80, 100
2, 107952, Note_on_c, 0, 81, 76
2, 107994, Note_off_c, 0, 69, 100
2, 108000, Note_on_c, 0, 83, 76
2, 108042, Note_off_c, 0, 81, 100
2, 108048, Note_on_c, 0, 81, 76
2, 108084, Note_off_c, 0, 83, 100
2, 108096, Note_on_c, 0, 80, 76
2, 108140, Note_off_c, 0, 81, 100
2, 108144, Note_on_c, 0, 78, 75
2, 108190, Note_off_c, 0, 80, 100
2, 108192, Note_on_c, 0, 66, 75
2, 108228, Note_off_c, 0, 78, 100
2, 108240, Note_on_c, 0, 78, 75
2, 108282, Note_off_c, 0, 66, 100
2, 108286, Note_off_c, 0, 78, 100
2, 108288, Note_on_c, 0, 77, 74
2, 108336, Note_on_c, 0, 78, 74
2, 108372, Note_off_c, 0, 77, 100
2, 108384, Note_on_c, 0, 66, 74
2, 108424, Note_off_c, 0, 78, 100
2, 108432, Note_on_c, 0, 78, 74
2, 108468, Note_off_c, 0, 66, 100
2, 108480, Note_on_c, 0, 80, 73
2, 108526, Note_off_c, 0, 78, 100
2, 108528, Note_on_c, 0, 78, 73
2, 108568, Note_off_c, 0, 80, 100
2, 108576, Note_on_c, 0, 66, 73
2, 108620, Note_off_c, 0, 78, 100
2, 108624, Note_on_c, 0, 78, 72
2, 108660, Note_off_c, 0, 66, 100
2, 108672, Note_on_c, 0, 77, 72
2, 108714, Note_off_c, 0, 78, 100
2, 108720, Note_on_c, 0, 78, 72
2, 108758, Note_off_c, 0, 77, 100
2, 108768, Note_on_c, 0, 66, 72
2, 108810, Note_off_c, 0, 78, 100
2, 108816, Note_on_c, 0, 78, 71
2, 108858, Note_off_c, 0, 66, 100
2, 108910, Note_off_c, 0, 78, 100
2, 108912, Note_on_c, 0, 78, 71
2, 108960, Note_on_c, 0, 65, 71
2, 109006, Note_off_c, 0, 78, 100
2, 109008, Note_on_c, 0, 77, 80
2, 109044, Note_off_c, 0, 65, 100
2, 109102, Note_off_c, 0, 77, 100
2, 109104, Note_on_c, 0, 81, 80
2, 109152, Note_on_c, 0, 68, 80
2, 109196, Note_off_c, 0, 81, 100
2, 109200, Note_on_c, 0, 80, 80
2, 109240, Note_off_c, 0, 68, 100
2, 109292, Note_off_c, 0, 80, 100
2, 109296, Note_on_c, 0, 85, 80
2, 109344, Note_on_c, 0, 71, 80
2, 109384, Note_off_c, 0, 85, 100
2, 109392, Note_on_c, 0, 84, 80
2, 109438, Note_off_c, 0, 71, 100
2, 109438, Note_off_c, 0, 84, 100
2, 109440, Note_on_c, 0, 85, 80
2, 109488, Note_on_c, 0, 71, 80
2, 109532, Note_off_c, 0, 85, 100
2, 109536, Note_on_c, 0, 85, 80
2, 109580, Note_off_c, 0, 71, 100
2, 109584, Note_on_c, 0, 83, 80
2, 109626, Note_off_c, 0, 85, 100
2, 109632, Note_on_c, 0, 82, 80
2, 109678, Note_off_c, 0, 83, 100
2, 109680, Note_on_c, 0, 83, 80
2, 109724, Note_off_c, 0, 82, 100
2, 109728, Note_on_c, 0, 71, 80
2, 109764, Note_off_c, 0, 83, 100
2, 109776, Note_on_c, 0, 83, 80
2, 109814, Note_off_c, 0, 71, 100
2, 109822, Note_off_c, 0, 83, 100
2, 109824, Note_on_c, 0, 83, 80
2, 109872, Note_on_c, 0, 81, 80
2, 109918, Note_off_c, 0, 83, 100
2, 109920, Note_on_c, 0, 69, 80
2, 109962, Note_off_c, 0, 81, 100
2, 109968, Note_on_c, 0, 81, 80
2, 110012, Note_off_c, 0, 69, 100
2, 110016, Note_on_c, 0, 83, 80
2, 110060, Note_off_c, 0, 81, 100
2, 110064, Note_on_c, 0, 69, 80
2, 110106, Note_off_c, 0, 83, 100
2, 110112, Note_on_c, 0, 83, 80
2, 110158, Note_off_c, 0, 69, 100
2, 110160, Note_on_c, 0, 81, 80
2, 110198, Note_off_c, 0, 83, 100
2, 110206, Note_off_c, 0, 81, 100
2, 110208, Note_on_c, 0, 81, 80
2, 110256, Note_on_c, 0, 68, 80
2, 110292, Note_off_c, 0, 81, 100
2, 110304, Note_on_c, 0, 81, 80
2, 110350, Note_off_c, 0, 68, 100
2, 110352, Note_on_c, 0, 80, 80
2, 110392, Note_off_c, 0, 81, 100
2, 110398, Note_off_c, 0, 80, 100
2, 110400, Note_on_c, 0, 80, 80
2, 110448, Note_on_c, 0, 66, 80
2, 110488, Note_off_c, 0, 80, 100
2, 110496, Note_on_c, 0, 80, 80
2, 110540, Note_off_c, 0, 66, 100
2, 110544, Note_on_c, 0, 78, 80
2, 110584, Note_off_c, 0, 80, 100
2, 110590, Note_off_c, 0, 78, 100
2, 110592, Note_on_c, 0, 77, 80
2, 110640, Note_on_c, 0, 78, 80
2, 110680, Note_off_c, 0, 77, 100
2, 110688, Note_on_c, 0, 66, 80
2, 110728, Note_off_c, 0, 78, 100
2, 110736, Note_on_c, 0, 78, 80
2, 110776, Note_off_c, 0, 66, 100
2, 110784, Note_on_c, 0, 80, 80
2, 110830, Note_off_c, 0, 78, 100
2, 110832, Note_on_c, 0, 78, 80
2, 110876, Note_off_c, 0, 80, 100
2, 110880, Note_on_c, 0, 66, 80
2, 110914, Note_off_c, 0, 78, 100
2, 110928, Note_on_c, 0, 78, 80
2, 110968, Note_off_c, 0, 66, 100
2, 110976, Note_on_c, 0, 65, 80
2, 111022, Note_off_c, 0, 78, 100
2, 111024, Note_on_c, 0, 77, 80
2, 111066, Note_off_c, 0, 65, 100
2, 111072, Note_on_c, 0, 78, 80
2, 111118, Note_off_c, 0, 77, 100
2, 111120, Note_on_c, 0, 77, 80
2, 111160, Note_off_c, 0, 78, 100
2, 111168, Note_on_c, 0, 78, 80
2, 111214, Note_off_c, 0, 77, 100
2, 111216, Note_on_c, 0, 65, 80
2, 111256, Note_off_c, 0, 78, 100
2, 111264, Note_on_c, 0, 78, 80
2, 111304, Note_off_c, 0, 65, 100
2, 111312, Note_on_c, 0, 77, 80
2, 111358, Note_off_c, 0, 78, 100
2, 111360, Note_on_c, 0, 68, 80
2, 111406, Note_off_c, 0, 77, 100
2, 111408, Note_on_c, 0, 80, 80
2, 111454, Note_off_c, 0, 68, 100
2, 111456, Note_on_c, 0, 81, 80
2, 111496, Note_off_c, 0, 80, 100
2, 111504, Note_on_c, 0, 80, 80
2, 111542, Note_off_c, 0, 81, 100
2, 111552, Note_on_c, 0, 83, 80
2, 111598, Note_off_c, 0, 80, 100
2, 111600, Note_on_c, 0, 71, 80
2, 111646, Note_off_c, 0, 83, 100
2, 111648, Note_on_c, 0, 74, 80
2, 111688, Note_off_c, 0, 71, 100
2, 111696, Note_on_c, 0, 86, 80
2, 111742, Note_off_c, 0, 74, 100
2, 111742, Note_off_c, 0, 86, 100
2, 111744, Note_on_c, 0, 85, 80
2, 111792, Note_on_c, 0, 86, 80
2, 111832, Note_off_c, 0, 85, 100
2, 111840, Note_on_c, 0, 74, 80
2, 111880, Note_off_c, 0, 86, 100
2, 111888, Note_on_c, 0, 86, 80
2, 111928, Note_off_c, 0, 74, 100
2, 111936, Note_on_c, 0, 88, 80
2, 111976, Note_off_c, 0, 86, 100
2, 111984, Note_on_c, 0, 86, 80
2, 112022, Note_off_c, 0, 88, 100
2, 112032, Note_on_c, 0, 74, 80
2, 112072, Note_off_c, 0, 86, 100
2, 112080, Note_on_c, 0, 86, 80
2, 112124, Note_off_c, 0, 74, 100
2, 112126, Note_off_c, 0, 86, 100
2, 112128, Note_on_c, 0, 86, 80
2, 112176, Note_on_c, 0, 73, 80
2, 112214, Note_off_c, 0, 86, 100
2, 112224, Note_on_c, 0, 86, 80
2, 112266, Note_off_c, 0, 73, 100
2, 112272, Note_on_c, 0, 85, 80
2, 112312, Note_off_c, 0, 86, 100
2, 112362, Note_off_c, 0, 85, 100
2, 112368, Note_on_c, 0, 86, 80
2, 112416, Note_on_c, 0, 73, 80
2, 112462, Note_off_c, 0, 86, 100
2, 112464, Note_on_c, 0, 85, 80
2, 112504, Note_off_c, 0, 73, 100
2, 112510, Note_off_c, 0, 85, 100
2, 112560, Note_on_c, 0, 85, 80
2, 112608, Note_on_c, 0, 71, 80
2, 112654, Note_off_c, 0, 85, 100
2, 112656, Note_on_c, 0, 83, 80
2, 112702, Note_off_c, 0, 71, 100
2, 112702, Note_off_c, 0, 83, 100
2, 112752, Note_on_c, 0, 83, 80
2, 112800, Note_on_c, 0, 69, 80
2, 112846, Note_off_c, 0, 83, 100
2, 112848, Note_on_c, 0, 81, 80
2, 112888, Note_off_c, 0, 69, 100
2, 112894, Note_off_c, 0, 81, 100
2, 112896, Note_on_c, 0, 83, 80
2, 112944, Note_on_c, 0, 69, 80
2, 112988, Note_off_c, 0, 83, 100
2, 112992, Note_on_c, 0, 83, 80
2, 113032, Note_off_c, 0, 69, 100
2, 113040, Note_on_c, 0, 81, 80
2, 113084, Note_off_c, 0, 83, 100
2, 113088, Note_on_c, 0, 80, 80
2, 113128, Note_off_c, 0, 81, 100
2, 113136, Note_on_c, 0, 81, 80
2, 113176, Note_off_c, 0, 80, 100
2, 113184, Note_on_c, 0, 69, 80
2, 113230, Note_off_c, 0, 81, 100
2, 113232, Note_on_c, 0, 81, 80
2, 113278, Note_off_c, 0, 69, 100
2, 113278, Note_off_c, 0, 81, 100
2, 113280, Note_on_c, 0, 81, 80
2, 113328, Note_on_c, 0, 68, 80
2, 113374, Note_off_c, 0, 81, 100
2, 113376, Note_on_c, 0, 81, 80
2, 113412, Note_off_c, 0, 68, 100
2, 113424, Note_on_c, 0, 80, 80
2, 113464, Note_off_c, 0, 81, 100
2, 113470, Note_off_c, 0, 80, 100
2, 113520, Note_on_c, 0, 80, 80
2, 113568, Note_on_c, 0, 68, 80
2, 113606, Note_off_c, 0, 80, 100
2, 113616, Note_on_c, 0, 80, 80
2, 113662, Note_off_c, 0, 68, 100
2, 113706, Note_off_c, 0, 80, 100
2, 113712, Note_on_c, 0, 92, 80
2, 113760, Note_on_c, 0, 80, 80
2, 113800, Note_off_c, 0, 92, 100
2, 113808, Note_on_c, 0, 92, 80
2, 113850, Note_off_c, 0, 80, 100
2, 113896, Note_off_c, 0, 92, 100
2, 113904, Note_on_c, 0, 91, 80
2, 113952, Note_on_c, 0, 79, 80
2, 113992, Note_off_c, 0, 91, 100
2, 114000, Note_on_c, 0, 91, 80
2, 114046, Note_off_c, 0, 79, 100
2, 114046, Note_off_c, 0, 91, 100
2, 114096, Note_on_c, 0, 91, 80
2, 114144, Note_on_c, 0, 79, 80
2, 114188, Note_off_c, 0, 91, 100
2, 114192, Note_on_c, 0, 91, 80
2, 114236, Note_off_c, 0, 79, 100
2, 114280, Note_off_c, 0, 91, 100
2, 114288, Note_on_c, 0, 91, 80
2, 114336, Note_on_c, 0, 83, 80
2, 114380, Note_off_c, 0, 91, 100
2, 114384, Note_on_c, 0, 95, 80
2, 114426, Note_off_c, 0, 83, 100
2, 114476, Note_off_c, 0, 95, 100
2, 114480, Note_on_c, 0, 95, 80
2, 114528, Note_on_c, 0, 81, 80
2, 114566, Note_off_c, 0, 95, 100
2, 114576, Note_on_c, 0, 93, 80
2, 114608, Note_off_c, 0, 81, 100
2, 114668, Note_off_c, 0, 93, 100
2, 114672, Note_on_c, 0, 93, 80
2, 114720, Note_on_c, 0, 79, 80
2, 114766, Note_off_c, 0, 93, 100
2, 114768, Note_on_c, 0, 91, 80
2, 114808, Note_off_c, 0, 79, 100
2, 114856, Note_off_c, 0, 91, 100
2, 114864, Note_on_c, 0, 91, 80
2, 114912, Note_on_c, 0, 79, 80
2, 114948, Note_off_c, 0, 91, 100
2, 114960, Note_on_c, 0, 91, 80
2, 115006, Note_off_c, 0, 79, 100
2, 115054, Note_off_c, 0, 91, 100
2, 115056, Note_on_c, 0, 91, 80
2, 115104, Note_on_c, 0, 79, 80
2, 115138, Note_off_c, 0, 91, 100
2, 115152, Note_on_c, 0, 78, 80
2, 115152, Note_on_c, 0, 90, 80
2, 115188, Note_off_c, 0, 79, 100
2, 115198, Note_off_c, 0, 78, 100
2, 115198, Note_off_c, 0, 90, 100
2, 115248, Note_on_c, 0, 90, 80
2, 115296, Note_on_c, 0, 76, 80
2, 115336, Note_off_c, 0, 90, 100
2, 115344, Note_on_c, 0, 88, 80
2, 115380, Note_off_c, 0, 76, 100
2, 115432, Note_off_c, 0, 88, 100
2, 115440, Note_on_c, 0, 88, 80
2, 115488, Note_on_c, 0, 76, 80
2, 115524, Note_off_c, 0, 88, 100
2, 115536, Note_on_c, 0, 88, 80
2, 115578, Note_off_c, 0, 76, 100
2, 115624, Note_off_c, 0, 88, 100
2, 115632, Note_on_c, 0, 88, 80
2, 115664, Note_on_c, 0, 76, 80
2, 115726, Note_off_c, 0, 88, 100
2, 115728, Note_on_c, 0, 90, 80
2, 115728, Note_on_c, 0, 78, 80
2, 115754, Note_off_c, 0, 76, 100
2, 115812, Note_off_c, 0, 90, 100
2, 115822, Note_off_c, 0, 78, 100
2, 115824, Note_on_c, 0, 90, 80
2, 115872, Note_on_c, 0, 79, 80
2, 115912, Note_off_c, 0, 90, 100
2, 115920, Note_on_c, 0, 91, 80
2, 115956, Note_off_c, 0, 79, 100
2, 116008, Note_off_c, 0, 91, 100
2, 116016, Note_on_c, 0, 91, 80
2, 116064, Note_on_c, 0, 79, 80
2, 116110, Note_off_c, 0, 91, 100
2, 116112, Note_on_c, 0, 91, 80
2, 116150, Note_off_c, 0, 79, 100
2, 116200, Note_off_c, 0, 91, 100
2, 116208, Note_on_c, 0, 91, 80
2, 116256, Note_on_c, 0, 79, 80
2, 116294, Note_off_c, 0, 91, 100
2, 116304, Note_on_c, 0, 90, 80
2, 116304, Note_on_c, 0, 78, 80
2, 116338, Note_off_c, 0, 79, 100
2, 116350, Note_off_c, 0, 90, 100
2, 116350, Note_off_c, 0, 78, 100
2, 116352, Note_on_c, 0, 90, 80
2, 116400, Note_on_c, 0, 78, 80
2, 116440, Note_off_c, 0, 90, 100
2, 116446, Note_off_c, 0, 78, 100
2, 116448, Note_on_c, 0, 78, 80
2, 116496, Note_on_c, 0, 90, 80
2, 116536, Note_off_c, 0, 78, 100
2, 116544, Note_on_c, 0, 93, 80
2, 116584, Note_off_c, 0, 90, 100
2, 116592, Note_on_c, 0, 81, 80
2, 116632, Note_off_c, 0, 93, 100
2, 116638, Note_off_c, 0, 81, 100
2, 116640, Note_on_c, 0, 81, 80
2, 116688, Note_on_c, 0, 93, 80
2, 116726, Note_off_c, 0, 81, 100
2, 116736, Note_on_c, 0, 97, 80
2, 116780, Note_off_c, 0, 93, 100
2, 116784, Note_on_c, 0, 85, 80
2, 116824, Note_off_c, 0, 97, 100
2, 116830, Note_off_c, 0, 85, 100
2, 116832, Note_on_c, 0, 85, 80
2, 116880, Note_on_c, 0, 97, 80
2, 116922, Note_off_c, 0, 85, 100
2, 116968, Note_off_c, 0, 97, 100
2, 116976, Note_on_c, 0, 97, 81
2, 117024, Note_on_c, 0, 85, 82
2, 117058, Note_off_c, 0, 97, 100
2, 117072, Note_on_c, 0, 97, 83
2, 117112, Note_off_c, 0, 85, 100
2, 117158, Note_off_c, 0, 97, 100
2, 117168, Note_on_c, 0, 85, 86
2, 117216, Note_on_c, 0, 73, 87
2, 117252, Note_off_c, 0, 85, 100
2, 117264, Note_on_c, 0, 85, 88
2, 117310, Note_off_c, 0, 73, 100
2, 117348, Note_off_c, 0, 85, 100
2, 117360, Note_on_c, 0, 97, 91
2, 117408, Note_on_c, 0, 85, 92
2, 117450, Note_off_c, 0, 97, 100
2, 117456, Note_on_c, 0, 97, 93
2, 117498, Note_off_c, 0, 85, 100
2, 117550, Note_off_c, 0, 97, 100
2, 117552, Note_on_c, 0, 85, 96
2, 117600, Note_on_c, 0, 73, 97
2, 117640, Note_off_c, 0, 85, 100
2, 117648, Note_on_c, 0, 85, 98
2, 117690, Note_off_c, 0, 73, 100
2, 117738, Note_off_c, 0, 85, 100
2, 117744, Note_on_c, 0, 97, 100
2, 117792, Note_on_c, 0, 85, 100
2, 117832, Note_off_c, 0, 97, 100
2, 117840, Note_on_c, 0, 97, 100
2, 117880, Note_off_c, 0, 85, 100
2, 117888, Note_on_c, 0, 93, 100
2, 117928, Note_off_c, 0, 97, 100
2, 117936, Note_on_c, 0, 81, 98
2, 117982, Note_off_c, 0, 93, 100
2, 117982, Note_off_c, 0, 81, 100
2, 117984, Note_on_c, 0, 81, 96
2, 118032, Note_on_c, 0, 93, 93
2, 118070, Note_off_c, 0, 81, 100
2, 118078, Note_off_c, 0, 93, 100
2, 118080, Note_on_c, 0, 93, 91
2, 118128, Note_on_c, 0, 81, 88
2, 118168, Note_off_c, 0, 93, 100
2, 118174, Note_off_c, 0, 81, 100
2, 118176, Note_on_c, 0, 81, 86
2, 118224, Note_on_c, 0, 93, 83
2, 118260, Note_off_c, 0, 81, 100
2, 118272, Note_on_c, 0, 90, 81
2, 118308, Note_off_c, 0, 93, 100
2, 118320, Note_on_c, 0, 78, 80
2, 118366, Note_off_c, 0, 90, 100
2, 118366, Note_off_c, 0, 78, 100
2, 118368, Note_on_c, 0, 78, 80
2, 118416, Note_on_c, 0, 66, 80
2, 118460, Note_off_c, 0, 78, 100
2, 118464, Note_on_c, 0, 80, 80
2, 118464, Note_on_c, 0, 77, 80
2, 118464, Note_on_c, 0, 71, 80
2, 118504, Note_off_c, 0, 66, 100
2, 118512, Note_on_c, 0, 68, 80
2, 118552, Note_off_c, 0, 77, 100
2, 118552, Note_off_c, 0, 71, 100
2, 118556, Note_off_c, 0, 80, 100
2, 118560, Note_on_c, 0, 81, 80
2, 118560, Note_on_c, 0, 78, 80
2, 118560, Note_on_c, 0, 73, 80
2, 118606, Note_off_c, 0, 68, 100
2, 118608, Note_on_c, 0, 69, 80
2, 118646, Note_off_c, 0, 81, 100
2, 118650, Note_off_c, 0, 78, 100
2, 118654, Note_off_c, 0, 69, 100
2, 118656, Note_off_c, 0, 73, 100
2, 118656, Note_on_c, 0, 83, 80
2, 118656, Note_on_c, 0, 80, 80
2, 118656, Note_on_c, 0, 71, 80
2, 118844, Note_off_c, 0, 83, 100
2, 118844, Note_off_c, 0, 80, 100
2, 118844, Note_off_c, 0, 71, 100
2, 118848, Note_on_c, 0, 71, 80
2, 118848, Note_on_c, 0, 68, 80
2, 118848, Note_on_c, 0, 62, 80
2, 119036, Note_off_c, 0, 71, 100
2, 119036, Note_off_c, 0, 68, 100
2, 119036, Note_off_c, 0, 62, 100
2, 119040, Note_on_c, 0, 69, 80
2, 119040, Note_on_c, 0, 66, 80
2, 119040, Note_on_c, 0, 61, 80
2, 119228, Note_off_c, 0, 69, 100
2, 119228, Note_off_c, 0, 66, 100
2, 119228, Note_off_c, 0, 61, 100
2, 119232, Note_on_c, 0, 69, 80
2, 119232, Note_on_c, 0, 65, 80
2, 119232, Note_on_c, 0, 62, 80
2, 119232, Note_on_c, 0, 59, 80
2, 119420, Note_off_c, 0, 69, 100
2, 119420, Note_off_c, 0, 65, 100
2, 119420, Note_off_c, 0, 62, 100
2, 119420, Note_off_c, 0, 59, 100
2, 119424, Note_on_c, 0, 68, 80
2, 119424, Note_on_c, 0, 65, 80
2, 119424, Note_on_c, 0, 62, 80
2, 119424, Note_on_c, 0, 59, 80
2, 119612, Note_off_c, 0, 68, 100
2, 119612, Note_off_c, 0, 65, 100
2, 119612, Note_off_c, 0, 62, 100
2, 119612, Note_off_c, 0, 59, 100
2, 119616, Note_on_c, 0, 63, 80
2, 119616, Note_on_c, 0, 57, 80
2, 119616, Note_on_c, 0, 66, 80
2, 119804, Note_off_c, 0, 63, 100
2, 119804, Note_off_c, 0, 57, 100
2, 119804, Note_off_c, 0, 66, 100
2, 119808, Note_on_c, 0, 66, 80
2, 119808, Note_on_c, 0, 57, 80
2, 119808, Note_on_c, 0, 63, 80
2, 119996, Note_off_c, 0, 63, 100
2, 120096, Note_on_c, 0, 60, 80
2, 120188, Note_off_c, 0, 60, 100
2, 120192, Note_on_c, 0, 61, 80
2, 120284, Note_off_c, 0, 61, 100
2, 120288, Note_on_c, 0, 60, 80
2, 120380, Note_off_c, 0, 66, 100
2, 120380, Note_off_c, 0, 57, 100
2, 120380, Note_off_c, 0, 60, 100
2, 120384, Note_on_c, 0, 65, 80
2, 120384, Note_on_c, 0, 61, 80
2, 120384, Note_on_c, 0, 56, 80
2, 120668, Note_off_c, 0, 65, 100
2, 120668, Note_off_c, 0, 61, 100
2, 120668, Note_off_c, 0, 56, 100
2, 120672, Note_on_c, 0, 68, 80
2, 120764, Note_off_c, 0, 68, 100
2, 120768, Note_on_c, 0, 71, 80
2, 120860, Note_off_c, 0, 71, 100
2, 120864, Note_on_c, 0, 74, 80
2, 120956, Note_off_c, 0, 74, 100
2, 120960, Note_on_c, 0, 74, 80
2, 120960, Note_on_c, 0, 71, 80
2, 120960, Note_on_c, 0, 68, 80
2, 120960, Note_on_c, 0, 65, 80
2, 120960, Note_on_c, 0, 62, 80
2, 121148, Note_off_c, 0, 74, 100
2, 121148, Note_off_c, 0, 71, 100
2, 121148, Note_off_c, 0, 68, 100
2, 121148, Note_off_c, 0, 65, 100
2, 121148, Note_off_c, 0, 62, 100
2, 121152, Note_on_c, 0, 74, 80
2, 121152, Note_on_c, 0, 71, 80
2, 121152, Note_on_c, 0, 68, 80
2, 121152, Note_on_c, 0, 62, 80
2, 121340, Note_off_c, 0, 74, 100
2, 121340, Note_off_c, 0, 71, 100
2, 121340, Note_off_c, 0, 68, 100
2, 121340, Note_off_c, 0, 62, 100
2, 121344, Note_on_c, 0, 73, 80
2, 121344, Note_on_c, 0, 69, 80
2, 121344, Note_on_c, 0, 61, 80
2, 121532, Note_off_c, 0, 73, 100
2, 121532, Note_off_c, 0, 69, 100
2, 121532, Note_off_c, 0, 61, 100
2, 121536, Note_on_c, 0, 73, 80
2, 121536, Note_on_c, 0, 68, 80
2, 121536, Note_on_c, 0, 65, 80
2, 121536, Note_on_c, 0, 62, 80
2, 121724, Note_off_c, 0, 73, 100
2, 121724, Note_off_c, 0, 68, 100
2, 121724, Note_off_c, 0, 65, 100
2, 121724, Note_off_c, 0, 62, 100
2, 121728, Note_on_c, 0, 71, 80
2, 121728, Note_on_c, 0, 68, 80
2, 121728, Note_on_c, 0, 65, 80
2, 121728, Note_on_c, 0, 62, 80
2, 121916, Note_off_c, 0, 71, 100
2, 121916, Note_off_c, 0, 68, 100
2, 121916, Note_off_c, 0, 65, 100
2, 121916, Note_off_c, 0, 62, 100
2, 121920, Note_on_c, 0, 69, 80
2, 121920, Note_on_c, 0, 66, 80
2, 121920, Note_on_c, 0, 63, 80
2, 122108, Note_off_c, 0, 69, 100
2, 122108, Note_off_c, 0, 66, 100
2, 122108, Note_off_c, 0, 63, 100
2, 122112, Note_on_c, 0, 69, 80
2, 122112, Note_on_c, 0, 66, 80
2, 122304, Note_on_c, 0, 60, 80
2, 122396, Note_off_c, 0, 60, 100
2, 122400, Note_on_c, 0, 61, 80
2, 122492, Note_off_c, 0, 69, 100
2, 122492, Note_off_c, 0, 66, 100
2, 122492, Note_off_c, 0, 61, 100
2, 122496, Note_on_c, 0, 60, 80
2, 122496, Note_on_c, 0, 65, 80
2, 122496, Note_on_c, 0, 68, 80
2, 122588, Note_off_c, 0, 60, 100
2, 122592, Note_on_c, 0, 61, 80
2, 122684, Note_off_c, 0, 65, 100
2, 122684, Note_off_c, 0, 68, 100
2, 122684, Note_off_c, 0, 61, 100
2, 122688, Note_on_c, 0, 68, 80
2, 122688, Note_on_c, 0, 65, 80
2, 122688, Note_on_c, 0, 61, 80
2, 122688, Note_on_c, 0, 56, 80
2, 122876, Note_off_c, 0, 68, 100
2, 122876, Note_off_c, 0, 65, 100
2, 122876, Note_off_c, 0, 61, 100
2, 122876, Note_off_c, 0, 56, 100
2, 122880, Note_on_c, 0, 64, 80
2, 122880, Note_on_c, 0, 58, 80
2, 122880, Note_on_c, 0, 55, 80
2, 122880, Note_on_c, 0, 67, 80
2, 123068, Note_off_c, 0, 64, 100
2, 123068, Note_off_c, 0, 58, 100
2, 123068, Note_off_c, 0, 55, 100
2, 123072, Note_on_c, 0, 62, 80
2, 123072, Note_on_c, 0, 59, 80
2, 123072, Note_on_c, 0, 55, 80
2, 123260, Note_off_c, 0, 67, 100
2, 123260, Note_off_c, 0, 62, 100
2, 123260, Note_off_c, 0, 59, 100
2, 123260, Note_off_c, 0, 55, 100
2, 123264, Note_on_c, 0, 67, 80
2, 123308, Note_off_c, 0, 67, 100
2, 123312, Note_on_c, 0, 83, 80
2, 123456, Note_on_c, 0, 71, 80
2, 123644, Note_off_c, 0, 83, 100
2, 123644, Note_off_c, 0, 71, 100
2, 123648, Note_on_c, 0, 81, 80
2, 123648, Note_on_c, 0, 69, 80
2, 123836, Note_off_c, 0, 81, 100
2, 123836, Note_off_c, 0, 69, 100
2, 123840, Note_on_c, 0, 81, 80
2, 123840, Note_on_c, 0, 69, 80
2, 124028, Note_off_c, 0, 81, 100
2, 124028, Note_off_c, 0, 69, 100
2, 124032, Note_on_c, 0, 79, 80
2, 124032, Note_on_c, 0, 67, 80
2, 124220, Note_off_c, 0, 79, 100
2, 124220, Note_off_c, 0, 67, 100
2, 124224, Note_on_c, 0, 79, 80
2, 124224, Note_on_c, 0, 71, 80
2, 124224, Note_on_c, 0, 67, 80
2, 124316, Note_off_c, 0, 79, 100
2, 124316, Note_off_c, 0, 71, 100
2, 124320, Note_on_c, 0, 78, 80
2, 124320, Note_on_c, 0, 74, 80
2, 124412, Note_off_c, 0, 67, 100
2, 124412, Note_off_c, 0, 78, 100
2, 124412, Note_off_c, 0, 74, 100
2, 124416, Note_on_c, 0, 78, 80
2, 124416, Note_on_c, 0, 74, 80
2, 124416, Note_on_c, 0, 67, 80
2, 124604, Note_off_c, 0, 78, 100
2, 124604, Note_off_c, 0, 74, 100
2, 124604, Note_off_c, 0, 67, 100
2, 124608, Note_on_c, 0, 76, 80
2, 124608, Note_on_c, 0, 72, 80
2, 124608, Note_on_c, 0, 67, 80
2, 124796, Note_off_c, 0, 76, 100
2, 124796, Note_off_c, 0, 72, 100
2, 124796, Note_off_c, 0, 67, 100
2, 124800, Note_on_c, 0, 76, 80
2, 124800, Note_on_c, 0, 72, 80
2, 124800, Note_on_c, 0, 67, 80
2, 124892, Note_off_c, 0, 76, 100
2, 124892, Note_off_c, 0, 72, 100
2, 124892, Note_off_c, 0, 67, 100
2, 124896, Note_on_c, 0, 78, 80
2, 124896, Note_on_c, 0, 75, 80
2, 124896, Note_on_c, 0, 72, 80
2, 124896, Note_on_c, 0, 69, 80
2, 124988, Note_off_c, 0, 78, 100
2, 124988, Note_off_c, 0, 75, 100
2, 124988, Note_off_c, 0, 72, 100
2, 124988, Note_off_c, 0, 69, 100
2, 124992, Note_on_c, 0, 78, 80
2, 124992, Note_on_c, 0, 75, 80
2, 124992, Note_on_c, 0, 72, 80
2, 124992, Note_on_c, 0, 69, 80
2, 125084, Note_off_c, 0, 78, 100
2, 125084, Note_off_c, 0, 75, 100
2, 125084, Note_off_c, 0, 72, 100
2, 125084, Note_off_c, 0, 69, 100
2, 125088, Note_on_c, 0, 79, 80
2, 125088, Note_on_c, 0, 74, 80
2, 125088, Note_on_c, 0, 71, 80
2, 125180, Note_off_c, 0, 79, 100
2, 125180, Note_off_c, 0, 74, 100
2, 125180, Note_off_c, 0, 71, 100
2, 125184, Note_on_c, 0, 79, 80
2, 125184, Note_on_c, 0, 74, 80
2, 125184, Note_on_c, 0, 71, 80
2, 125372, Note_off_c, 0, 79, 100
2, 125372, Note_off_c, 0, 74, 100
2, 125372, Note_off_c, 0, 71, 100
2, 125376, Note_on_c, 0, 67, 80
2, 125468, Note_off_c, 0, 67, 100
2, 125472, Note_on_c, 0, 66, 80
2, 125472, Note_on_c, 0, 54, 80
2, 125564, Note_off_c, 0, 66, 100
2, 125564, Note_off_c, 0, 54, 100
2, 125568, Note_on_c, 0, 66, 80
2, 125568, Note_on_c, 0, 54, 80
2, 125756, Note_off_c, 0, 66, 100
2, 125756, Note_off_c, 0, 54, 100
2, 125760, Note_on_c, 0, 69, 80
2, 125760, Note_on_c, 0, 66, 80
2, 125760, Note_on_c, 0, 61, 80
2, 125760, Note_on_c, 0, 57, 80
2, 125948, Note_off_c, 0, 69, 100
2, 125948, Note_off_c, 0, 66, 100
2, 125948, Note_off_c, 0, 61, 100
2, 125948, Note_off_c, 0, 57, 100
2, 125952, Note_on_c, 0, 73, 80
2, 125952, Note_on_c, 0, 69, 80
2, 125952, Note_on_c, 0, 66, 80
2, 125952, Note_on_c, 0, 61, 80
2, 126140, Note_off_c, 0, 73, 100
2, 126140, Note_off_c, 0, 69, 100
2, 126140, Note_off_c, 0, 66, 100
2, 126140, Note_off_c, 0, 61, 100
2, 126144, Note_on_c, 0, 68, 80
2, 126144, Note_on_c, 0, 73, 80
2, 126144, Note_on_c, 0, 65, 80
2, 126144, Note_on_c, 0, 61, 80
2, 126524, Note_off_c, 0, 68, 100
2, 126524, Note_off_c, 0, 73, 100
2, 126524, Note_off_c, 0, 65, 100
2, 126524, Note_off_c, 0, 61, 100
2, 126528, Note_on_c, 0, 73, 80
2, 126528, Note_on_c, 0, 69, 80
2, 126528, Note_on_c, 0, 66, 80
2, 126528, Note_on_c, 0, 61, 80
2, 126716, Note_off_c, 0, 73, 100
2, 126716, Note_off_c, 0, 69, 100
2, 126716, Note_off_c, 0, 66, 100
2, 126716, Note_off_c, 0, 61, 100
2, 126720, Note_on_c, 0, 73, 80
2, 126720, Note_on_c, 0, 69, 80
2, 126720, Note_on_c, 0, 61, 80
2, 126908, Note_off_c, 0, 73, 100
2, 126908, Note_off_c, 0, 69, 100
2, 126908, Note_off_c, 0, 61, 100
2, 126912, Note_on_c, 0, 74, 80
2, 126912, Note_on_c, 0, 67, 80
2, 126912, Note_on_c, 0, 62, 80
2, 127100, Note_off_c, 0, 74, 100
2, 127100, Note_off_c, 0, 67, 100
2, 127100, Note_off_c, 0, 62, 100
2, 127104, Note_on_c, 0, 67, 80
2, 127104, Note_on_c, 0, 55, 80
2, 127292, Note_off_c, 0, 67, 100
2, 127292, Note_off_c, 0, 55, 100
2, 127296, Note_on_c, 0, 71, 80
2, 127296, Note_on_c, 0, 59, 80
2, 127484, Note_off_c, 0, 71, 100
2, 127484, Note_off_c, 0, 59, 100
2, 127488, Note_on_c, 0, 61, 80
2, 127676, Note_off_c, 0, 61, 100
2, 127680, Note_on_c, 0, 65, 80
2, 127680, Note_on_c, 0, 53, 80
2, 127868, Note_off_c, 0, 65, 100
2, 127868, Note_off_c, 0, 53, 100
2, 127872, Note_on_c, 0, 66, 80
2, 127872, Note_on_c, 0, 54, 80
2, 128060, Note_off_c, 0, 66, 100
2, 128060, Note_off_c, 0, 54, 100
2, 128064, Note_on_c, 0, 61, 80
2, 128064, Note_on_c, 0, 73, 80
2, 128348, Note_off_c, 0, 61, 100
2, 128348, Note_off_c, 0, 73, 100
2, 128352, Note_on_c, 0, 68, 80
2, 128352, Note_on_c, 0, 56, 80
2, 128444, Note_off_c, 0, 68, 100
2, 128444, Note_off_c, 0, 56, 100
2, 128448, Note_on_c, 0, 69, 80
2, 128448, Note_on_c, 0, 57, 80
2, 128636, Note_off_c, 0, 69, 100
2, 128636, Note_off_c, 0, 57, 100
2, 128640, Note_on_c, 0, 81, 80
2, 128640, Note_on_c, 0, 69, 80
2, 128924, Note_off_c, 0, 81, 100
2, 128924, Note_off_c, 0, 69, 100
2, 128928, Note_on_c, 0, 77, 80
2, 128928, Note_on_c, 0, 65, 80
2, 129020, Note_off_c, 0, 77, 100
2, 129020, Note_off_c, 0, 65, 100
2, 129984, Note_on_c, 0, 78, 80
2, 130268, Note_off_c, 0, 78, 100
2, 130272, Note_on_c, 0, 78, 80
2, 130460, Note_off_c, 0, 78, 100
2, 130464, Note_on_c, 0, 78, 80
2, 130560, Note_on_c, 0, 81, 80
2, 130652, Note_off_c, 0, 78, 100
2, 130656, Note_on_c, 0, 78, 80
2, 130748, Note_off_c, 0, 81, 100
2, 130752, Note_on_c, 0, 86, 80
2, 130844, Note_off_c, 0, 78, 100
2, 130848, Note_on_c, 0, 78, 80
2, 130940, Note_off_c, 0, 86, 100
2, 130944, Note_on_c, 0, 88, 80
2, 131036, Note_off_c, 0, 78, 100
2, 131040, Note_on_c, 0, 78, 80
2, 131132, Note_off_c, 0, 88, 100
2, 131136, Note_on_c, 0, 90, 80
2, 131228, Note_off_c, 0, 78, 100
2, 131232, Note_on_c, 0, 78, 80
2, 131324, Note_off_c, 0, 90, 100
2, 131324, Note_off_c, 0, 78, 100
2, 131328, Note_on_c, 0, 90, 80
2, 131348, Note_off_c, 0, 90, 100
2, 131352, Note_on_c, 0, 91, 80
2, 131372, Note_off_c, 0, 91, 100
2, 131376, Note_on_c, 0, 90, 80
2, 131396, Note_off_c, 0, 90, 100
2, 131400, Note_on_c, 0, 91, 80
2, 131420, Note_off_c, 0, 91, 100
2, 131424, Note_on_c, 0, 90, 80
2, 131444, Note_off_c, 0, 90, 100
2, 131448, Note_on_c, 0, 91, 80
2, 131468, Note_off_c, 0, 91, 100
2, 131472, Note_on_c, 0, 88, 80
2, 131492, Note_off_c, 0, 88, 100
2, 131496, Note_on_c, 0, 90, 80
2, 131516, Note_off_c, 0, 90, 100
2, 131520, Note_on_c, 0, 93, 80
2, 131616, Note_on_c, 0, 81, 80
2, 131708, Note_off_c, 0, 93, 100
2, 131712, Note_on_c, 0, 91, 80
2, 131900, Note_off_c, 0, 91, 100
2, 131904, Note_on_c, 0, 91, 80
2, 131996, Note_off_c, 0, 81, 100
2, 132000, Note_on_c, 0, 81, 80
2, 132188, Note_off_c, 0, 91, 100
2, 132188, Note_off_c, 0, 81, 100
2, 132192, Note_on_c, 0, 88, 80
2, 132284, Note_off_c, 0, 88, 100
2, 132288, Note_on_c, 0, 85, 80
2, 132380, Note_off_c, 0, 85, 100
2, 132384, Note_on_c, 0, 86, 80
2, 132476, Note_off_c, 0, 86, 100
2, 132480, Note_on_c, 0, 87, 80
2, 132572, Note_off_c, 0, 87, 100
2, 132576, Note_on_c, 0, 88, 80
2, 132732, Note_off_c, 0, 88, 100
2, 132736, Note_on_c, 0, 79, 80
2, 132796, Note_off_c, 0, 79, 100
2, 132800, Note_on_c, 0, 78, 80
2, 132860, Note_off_c, 0, 78, 100
2, 132864, Note_on_c, 0, 79, 80
2, 132924, Note_off_c, 0, 79, 100
2, 132928, Note_on_c, 0, 81, 80
2, 132988, Note_off_c, 0, 81, 100
2, 132992, Note_on_c, 0, 82, 80
2, 133052, Note_off_c, 0, 82, 100
2, 133056, Note_on_c, 0, 85, 80
2, 133116, Note_off_c, 0, 85, 100
2, 133120, Note_on_c, 0, 83, 80
2, 133180, Note_off_c, 0, 83, 100
2, 133184, Note_on_c, 0, 81, 80
2, 133244, Note_off_c, 0, 81, 100
2, 133248, Note_on_c, 0, 79, 80
2, 133308, Note_off_c, 0, 79, 100
2, 133312, Note_on_c, 0, 78, 80
2, 133372, Note_off_c, 0, 78, 100
2, 133376, Note_on_c, 0, 79, 80
2, 133436, Note_off_c, 0, 79, 100
2, 133440, Note_on_c, 0, 80, 80
2, 133500, Note_off_c, 0, 80, 100
2, 133504, Note_on_c, 0, 81, 80
2, 133564, Note_off_c, 0, 81, 100
2, 133568, Note_on_c, 0, 76, 80
2, 133628, Note_off_c, 0, 76, 100
2, 133632, Note_on_c, 0, 79, 80
2, 133724, Note_off_c, 0, 79, 100
2, 133728, Note_on_c, 0, 78, 81
2, 133916, Note_off_c, 0, 78, 100
2, 133920, Note_on_c, 0, 81, 85
2, 134108, Note_off_c, 0, 81, 100
2, 134112, Note_on_c, 0, 86, 89
2, 134300, Note_off_c, 0, 86, 100
2, 134304, Note_on_c, 0, 86, 92
2, 134492, Note_off_c, 0, 86, 100
2, 134496, Note_on_c, 0, 88, 96
2, 134684, Note_off_c, 0, 88, 100
2, 134688, Note_on_c, 0, 90, 99
2, 134780, Note_off_c, 0, 90, 100
2, 134784, Note_on_c, 0, 90, 100
2, 134804, Note_off_c, 0, 90, 100
2, 134808, Note_on_c, 0, 91, 100
2, 134828, Note_off_c, 0, 91, 100
2, 134832, Note_on_c, 0, 90, 100
2, 134852, Note_off_c, 0, 90, 100
2, 134856, Note_on_c, 0, 91, 100
2, 134876, Note_off_c, 0, 91, 100
2, 134880, Note_on_c, 0, 90, 100
2, 134900, Note_off_c, 0, 90, 100
2, 134904, Note_on_c, 0, 91, 100
2, 134924, Note_off_c, 0, 91, 100
2, 134928, Note_on_c, 0, 90, 100
2, 134948, Note_off_c, 0, 90, 100
2, 134952, Note_on_c, 0, 91, 100
2, 134972, Note_off_c, 0, 91, 100
2, 134976, Note_on_c, 0, 90, 100
2, 134996, Note_off_c, 0, 90, 100
2, 135000, Note_on_c, 0, 91, 100
2, 135020, Note_off_c, 0, 91, 100
2, 135024, Note_on_c, 0, 90, 100
2, 135044, Note_off_c, 0, 90, 100
2, 135048, Note_on_c, 0, 91, 100
2, 135068, Note_off_c, 0, 91, 100
2, 135072, Note_on_c, 0, 90, 100
2, 135092, Note_off_c, 0, 90, 100
2, 135096, Note_on_c, 0, 91, 100
2, 135116, Note_off_c, 0, 91, 100
2, 135120, Note_on_c, 0, 89, 100
2, 135140, Note_off_c, 0, 89, 100
2, 135144, Note_on_c, 0, 90, 100
2, 135164, Note_off_c, 0, 90, 100
2, 135168, Note_on_c, 0, 93, 100
2, 135260, Note_off_c, 0, 93, 100
2, 135264, Note_on_c, 0, 91, 94
2, 135356, Note_off_c, 0, 91, 100
2, 135360, Note_on_c, 0, 91, 86
2, 135612, Note_off_c, 0, 91, 100
2, 135616, Note_on_c, 0, 87, 80
2, 135676, Note_off_c, 0, 87, 100
2, 135680, Note_on_c, 0, 88, 80
2, 135740, Note_off_c, 0, 88, 100
2, 135744, Note_on_c, 0, 91, 80
2, 135804, Note_off_c, 0, 91, 100
2, 135808, Note_on_c, 0, 90, 80
2, 135868, Note_off_c, 0, 90, 100
2, 135872, Note_on_c, 0, 88, 80
2, 135932, Note_off_c, 0, 88, 100
2, 135936, Note_on_c, 0, 88, 80
2, 136188, Note_off_c, 0, 88, 100
2, 136192, Note_on_c, 0, 84, 80
2, 136252, Note_off_c, 0, 84, 100
2, 136256, Note_on_c, 0, 85, 80
2, 136316, Note_off_c, 0, 85, 100
2, 136320, Note_on_c, 0, 88, 80
2, 136380, Note_off_c, 0, 88, 100
2, 136384, Note_on_c, 0, 86, 80
2, 136444, Note_off_c, 0, 86, 100
2, 136448, Note_on_c, 0, 85, 80
2, 136508, Note_off_c, 0, 85, 100
2, 136512, Note_on_c, 0, 83, 80
2, 136556, Note_off_c, 0, 83, 100
2, 136560, Note_on_c, 0, 82, 80
2, 136604, Note_off_c, 0, 82, 100
2, 136608, Note_on_c, 0, 86, 80
2, 136652, Note_off_c, 0, 86, 100
2, 136656, Note_on_c, 0, 85, 80
2, 136700, Note_off_c, 0, 85, 100
2, 136704, Note_on_c, 0, 84, 80
2, 136748, Note_off_c, 0, 84, 100
2, 136752, Note_on_c, 0, 85, 80
2, 136796, Note_off_c, 0, 85, 100
2, 136800, Note_on_c, 0, 76, 80
2, 136844, Note_off_c, 0, 76, 100
2, 136848, Note_on_c, 0, 79, 80
2, 136892, Note_off_c, 0, 79, 100
2, 136896, Note_on_c, 0, 77, 80
2, 136940, Note_off_c, 0, 77, 100
2, 136944, Note_on_c, 0, 78, 80
2, 136988, Note_off_c, 0, 78, 100
2, 136992, Note_on_c, 0, 73, 80
2, 137036, Note_off_c, 0, 73, 100
2, 137040, Note_on_c, 0, 76, 80
2, 137084, Note_off_c, 0, 76, 100
2, 137088, Note_on_c, 0, 74, 80
2, 137276, Note_off_c, 0, 74, 100
2, 137280, Note_on_c, 0, 83, 80
2, 137564, Note_off_c, 0, 83, 100
2, 137568, Note_on_c, 0, 78, 80
2, 137660, Note_off_c, 0, 78, 100
2, 137664, Note_on_c, 0, 79, 80
2, 137760, Note_on_c, 0, 76, 80
2, 137760, Note_on_c, 0, 70, 80
2, 137948, Note_off_c, 0, 76, 100
2, 137948, Note_off_c, 0, 70, 100
2, 137952, Note_on_c, 0, 76, 80
2, 137952, Note_on_c, 0, 70, 80
2, 138044, Note_off_c, 0, 79, 100
2, 138048, Note_on_c, 0, 78, 80
2, 138140, Note_off_c, 0, 76, 100
2, 138140, Note_off_c, 0, 70, 100
2, 138144, Note_on_c, 0, 76, 80
2, 138144, Note_on_c, 0, 70, 80
2, 138236, Note_off_c, 0, 78, 100
2, 138236, Note_off_c, 0, 76, 100
2, 138236, Note_off_c, 0, 70, 100
2, 138240, Note_on_c, 0, 78, 80
2, 138240, Note_on_c, 0, 74, 80
2, 138240, Note_on_c, 0, 71, 80
2, 138284, Note_off_c, 0, 78, 100
2, 138288, Note_on_c, 0, 90, 80
2, 138332, Note_off_c, 0, 90, 100
2, 138336, Note_on_c, 0, 85, 80
2, 138380, Note_off_c, 0, 85, 100
2, 138384, Note_on_c, 0, 86, 80
2, 138428, Note_off_c, 0, 74, 100
2, 138428, Note_off_c, 0, 71, 100
2, 138428, Note_off_c, 0, 86, 100
2, 138432, Note_on_c, 0, 88, 80
2, 138476, Note_off_c, 0, 88, 100
2, 138480, Note_on_c, 0, 86, 80
2, 138524, Note_off_c, 0, 86, 100
2, 138528, Note_on_c, 0, 82, 80
2, 138572, Note_off_c, 0, 82, 100
2, 138576, Note_on_c, 0, 83, 80
2, 138620, Note_off_c, 0, 83, 100
2, 138624, Note_on_c, 0, 85, 80
2, 138668, Note_off_c, 0, 85, 100
2, 138672, Note_on_c, 0, 83, 80
2, 138716, Note_off_c, 0, 83, 100
2, 138720, Note_on_c, 0, 86, 80
2, 138748, Note_off_c, 0, 86, 100
2, 138752, Note_on_c, 0, 83, 80
2, 138780, Note_off_c, 0, 83, 100
2, 138784, Note_on_c, 0, 78, 80
2, 138812, Note_off_c, 0, 78, 100
2, 138816, Note_on_c, 0, 81, 80
2, 138908, Note_off_c, 0, 81, 100
2, 138912, Note_on_c, 0, 79, 80
2, 138912, Note_on_c, 0, 76, 80
2, 138912, Note_on_c, 0, 70, 80
2, 139100, Note_off_c, 0, 79, 100
2, 139100, Note_off_c, 0, 76, 100
2, 139100, Note_off_c, 0, 70, 100
2, 139104, Note_on_c, 0, 79, 80
2, 139104, Note_on_c, 0, 76, 80
2, 139104, Note_on_c, 0, 70, 80
2, 139292, Note_off_c, 0, 79, 100
2, 139292, Note_off_c, 0, 76, 100
2, 139292, Note_off_c, 0, 70, 100
2, 139296, Note_on_c, 0, 78, 80
2, 139296, Note_on_c, 0, 76, 80
2, 139296, Note_on_c, 0, 70, 80
2, 139388, Note_off_c, 0, 78, 100
2, 139388, Note_off_c, 0, 76, 100
2, 139388, Note_off_c, 0, 70, 100
2, 139392, Note_on_c, 0, 78, 80
2, 139392, Note_on_c, 0, 74, 80
2, 139392, Note_on_c, 0, 71, 80
2, 139484, Note_off_c, 0, 74, 100
2, 139484, Note_off_c, 0, 71, 100
2, 139488, Note_on_c, 0, 66, 81
2, 139676, Note_off_c, 0, 78, 100
2, 139676, Note_off_c, 0, 66, 100
2, 139680, Note_on_c, 0, 78, 83
2, 139680, Note_on_c, 0, 66, 83
2, 139680, Note_on_c, 0, 74, 83
2, 139680, Note_on_c, 0, 71, 83
2, 139772, Note_off_c, 0, 74, 100
2, 139772, Note_off_c, 0, 71, 100
2, 139776, Note_on_c, 0, 70, 84
2, 139776, Note_on_c, 0, 76, 84
2, 139868, Note_off_c, 0, 78, 100
2, 139868, Note_off_c, 0, 66, 100
2, 139868, Note_off_c, 0, 70, 100
2, 139868, Note_off_c, 0, 76, 100
2, 139872, Note_on_c, 0, 78, 86
2, 139872, Note_on_c, 0, 66, 86
2, 139872, Note_on_c, 0, 76, 86
2, 139872, Note_on_c, 0, 70, 86
2, 139964, Note_off_c, 0, 78, 100
2, 139964, Note_off_c, 0, 66, 100
2, 139964, Note_off_c, 0, 76, 100
2, 139964, Note_off_c, 0, 70, 100
2, 139968, Note_on_c, 0, 78, 87
2, 139968, Note_on_c, 0, 74, 87
2, 139968, Note_on_c, 0, 71, 87
2, 139968, Note_on_c, 0, 66, 87
2, 140060, Note_off_c, 0, 74, 100
2, 140060, Note_off_c, 0, 71, 100
2, 140060, Note_off_c, 0, 66, 100
2, 140064, Note_on_c, 0, 71, 88
2, 140252, Note_off_c, 0, 78, 100
2, 140252, Note_off_c, 0, 71, 100
2, 140256, Note_on_c, 0, 83, 91
2, 140256, Note_on_c, 0, 71, 91
2, 140256, Note_on_c, 0, 78, 91
2, 140256, Note_on_c, 0, 74, 91
2, 140348, Note_off_c, 0, 78, 100
2, 140348, Note_off_c, 0, 74, 100
2, 140352, Note_on_c, 0, 78, 92
2, 140352, Note_on_c, 0, 75, 92
2, 140444, Note_off_c, 0, 83, 100
2, 140444, Note_off_c, 0, 71, 100
2, 140444, Note_off_c, 0, 78, 100
2, 140444, Note_off_c, 0, 75, 100
2, 140448, Note_on_c, 0, 83, 93
2, 140448, Note_on_c, 0, 71, 93
2, 140448, Note_on_c, 0, 78, 93
2, 140448, Note_on_c, 0, 75, 93
2, 140540, Note_off_c, 0, 83, 100
2, 140540, Note_off_c, 0, 71, 100
2, 140540, Note_off_c, 0, 78, 100
2, 140540, Note_off_c, 0, 75, 100
2, 140544, Note_on_c, 0, 84, 94
2, 140544, Note_on_c, 0, 78, 94
2, 140544, Note_on_c, 0, 75, 94
2, 140544, Note_on_c, 0, 72, 94
2, 140636, Note_off_c, 0, 84, 100
2, 140636, Note_off_c, 0, 78, 100
2, 140636, Note_off_c, 0, 75, 100
2, 140636, Note_off_c, 0, 72, 100
2, 140640, Note_on_c, 0, 84, 96
2, 140640, Note_on_c, 0, 78, 96
2, 140640, Note_on_c, 0, 75, 96
2, 140640, Note_on_c, 0, 72, 96
2, 140828, Note_off_c, 0, 84, 100
2, 140828, Note_off_c, 0, 78, 100
2, 140828, Note_off_c, 0, 75, 100
2, 140828, Note_off_c, 0, 72, 100
2, 140832, Note_on_c, 0, 84, 98
2, 140832, Note_on_c, 0, 75, 98
2, 140832, Note_on_c, 0, 72, 98
2, 140832, Note_on_c, 0, 78, 98
2, 140924, Note_off_c, 0, 78, 100
2, 140928, Note_on_c, 0, 81, 99
2, 141020, Note_off_c, 0, 84, 100
2, 141020, Note_off_c, 0, 75, 100
2, 141020, Note_off_c, 0, 72, 100
2, 141020, Note_off_c, 0, 81, 100
2, 141024, Note_on_c, 0, 84, 101
2, 141024, Note_on_c, 0, 81, 101
2, 141024, Note_on_c, 0, 75, 101
2, 141024, Note_on_c, 0, 72, 101
2, 141116, Note_off_c, 0, 84, 100
2, 141116, Note_off_c, 0, 81, 100
2, 141116, Note_off_c, 0, 75, 100
2, 141116, Note_off_c, 0, 72, 100
2, 141120, Note_on_c, 0, 85, 102
2, 141120, Note_on_c, 0, 80, 102
2, 141120, Note_on_c, 0, 73, 102
2, 141212, Note_off_c, 0, 85, 100
2, 141212, Note_off_c, 0, 80, 100
2, 141212, Note_off_c, 0, 73, 100
2, 141216, Note_on_c, 0, 85, 103
2, 141216, Note_on_c, 0, 80, 103
2, 141216, Note_on_c, 0, 73, 103
2, 141404, Note_off_c, 0, 85, 100
2, 141404, Note_off_c, 0, 80, 100
2, 141404, Note_off_c, 0, 73, 100
2, 141408, Note_on_c, 0, 85, 106
2, 141408, Note_on_c, 0, 73, 106
2, 141408, Note_on_c, 0, 80, 106
2, 141500, Note_off_c, 0, 80, 100
2, 141504, Note_on_c, 0, 78, 107
2, 141596, Note_off_c, 0, 85, 100
2, 141596, Note_off_c, 0, 73, 100
2, 141596, Note_off_c, 0, 78, 100
2, 141600, Note_on_c, 0, 85, 108
2, 141600, Note_on_c, 0, 73, 108
2, 141600, Note_on_c, 0, 78, 108
2, 141692, Note_off_c, 0, 78, 100
2, 141696, Note_on_c, 0, 77, 109
2, 141788, Note_off_c, 0, 73, 100
2, 141788, Note_off_c, 0, 85, 100
2, 141788, Note_off_c, 0, 77, 100
2, 141792, Note_on_c, 0, 84, 80
2, 141792, Note_on_c, 0, 72, 80
2, 141884, Note_off_c, 0, 84, 100
2, 141884, Note_off_c, 0, 72, 100
2, 141888, Note_on_c, 0, 87, 80
2, 141888, Note_on_c, 0, 75, 80
2, 141980, Note_off_c, 0, 87, 100
2, 141980, Note_off_c, 0, 75, 100
2, 141984, Note_on_c, 0, 85, 80
2, 141984, Note_on_c, 0, 73, 80
2, 142076, Note_off_c, 0, 85, 100
2, 142076, Note_off_c, 0, 73, 100
2, 142080, Note_on_c, 0, 84, 80
2, 142080, Note_on_c, 0, 72, 80
2, 142172, Note_off_c, 0, 84, 100
2, 142172, Note_off_c, 0, 72, 100
2, 142176, Note_on_c, 0, 85, 80
2, 142176, Note_on_c, 0, 73, 80
2, 142268, Note_off_c, 0, 85, 100
2, 142268, Note_off_c, 0, 73, 100
2, 142272, Note_on_c, 0, 88, 80
2, 142272, Note_on_c, 0, 76, 80
2, 142460, Note_off_c, 0, 88, 100
2, 142460, Note_off_c, 0, 76, 100
2, 142464, Note_on_c, 0, 87, 80
2, 142464, Note_on_c, 0, 75, 80
2, 142848, Key_signature, 6, "major"
2, 142940, Note_off_c, 0, 75, 100
2, 142940, Note_off_c, 0, 87, 100
2, 142944, Note_on_c, 0, 84, 80
2, 142944, Note_on_c, 0, 72, 80
2, 143036, Note_off_c, 0, 84, 100
2, 143036, Note_off_c, 0, 72, 100
2, 143040, Note_on_c, 0, 87, 80
2, 143040, Note_on_c, 0, 75, 80
2, 143132, Note_off_c, 0, 87, 100
2, 143132, Note_off_c, 0, 75, 100
2, 143136, Note_on_c, 0, 85, 80
2, 143136, Note_on_c, 0, 73, 80
2, 143228, Note_off_c, 0, 85, 100
2, 143228, Note_off_c, 0, 73, 100
2, 143232, Note_on_c, 0, 84, 80
2, 143232, Note_on_c, 0, 72, 80
2, 143324, Note_off_c, 0, 84, 100
2, 143324, Note_off_c, 0, 72, 100
2, 143328, Note_on_c, 0, 85, 80
2, 143328, Note_on_c, 0, 73, 80
2, 143420, Note_off_c, 0, 85, 100
2, 143420, Note_off_c, 0, 73, 100
2, 143424, Note_on_c, 0, 87, 80
2, 143424, Note_on_c, 0, 75, 80
2, 143612, Note_off_c, 0, 87, 100
2, 143612, Note_off_c, 0, 75, 100
2, 143616, Note_on_c, 0, 85, 80
2, 143616, Note_on_c, 0, 73, 80
2, 144092, Note_off_c, 0, 73, 100
2, 144092, Note_off_c, 0, 85, 100
2, 144096, Note_on_c, 0, 82, 80
2, 144096, Note_on_c, 0, 70, 80
2, 144188, Note_off_c, 0, 82, 100
2, 144188, Note_off_c, 0, 70, 100
2, 144192, Note_on_c, 0, 85, 80
2, 144192, Note_on_c, 0, 73, 80
2, 144284, Note_off_c, 0, 85, 100
2, 144284, Note_off_c, 0, 73, 100
2, 144288, Note_on_c, 0, 83, 80
2, 144288, Note_on_c, 0, 71, 80
2, 144380, Note_off_c, 0, 83, 100
2, 144380, Note_off_c, 0, 71, 100
2, 144384, Note_on_c, 0, 82, 80
2, 144384, Note_on_c, 0, 70, 80
2, 144476, Note_off_c, 0, 82, 100
2, 144476, Note_off_c, 0, 70, 100
2, 144480, Note_on_c, 0, 83, 80
2, 144480, Note_on_c, 0, 71, 80
2, 144572, Note_off_c, 0, 83, 100
2, 144572, Note_off_c, 0, 71, 100
2, 144576, Note_on_c, 0, 83, 80
2, 144576, Note_on_c, 0, 71, 80
2, 144668, Note_off_c, 0, 83, 100
2, 144668, Note_off_c, 0, 71, 100
2, 144672, Note_on_c, 0, 80, 80
2, 144672, Note_on_c, 0, 68, 80
2, 144764, Note_off_c, 0, 80, 100
2, 144764, Note_off_c, 0, 68, 100
2, 144768, Note_on_c, 0, 83, 80
2, 144768, Note_on_c, 0, 71, 80
2, 144860, Note_off_c, 0, 83, 100
2, 144860, Note_off_c, 0, 71, 100
2, 144864, Note_on_c, 0, 82, 80
2, 144864, Note_on_c, 0, 70, 80
2, 144956, Note_off_c, 0, 82, 100
2, 144956, Note_off_c, 0, 70, 100
2, 144960, Note_on_c, 0, 80, 80
2, 144960, Note_on_c, 0, 68, 80
2, 145052, Note_off_c, 0, 80, 100
2, 145052, Note_off_c, 0, 68, 100
2, 145056, Note_on_c, 0, 81, 80
2, 145056, Note_on_c, 0, 69, 80
2, 145148, Note_off_c, 0, 81, 100
2, 145148, Note_off_c, 0, 69, 100
2, 145152, Note_on_c, 0, 81, 80
2, 145152, Note_on_c, 0, 69, 80
2, 145340, Note_off_c, 0, 81, 100
2, 145340, Note_off_c, 0, 69, 100
2, 145344, Note_on_c, 0, 80, 80
2, 145344, Note_on_c, 0, 73, 80
2, 145344, Note_on_c, 0, 68, 80
2, 145532, Note_off_c, 0, 80, 100
2, 145532, Note_off_c, 0, 73, 100
2, 145532, Note_off_c, 0, 68, 100
2, 145536, Note_on_c, 0, 78, 80
2, 145536, Note_on_c, 0, 73, 80
2, 145724, Note_off_c, 0, 78, 100
2, 145728, Note_on_c, 0, 83, 80
2, 145820, Note_off_c, 0, 73, 100
2, 145824, Note_on_c, 0, 73, 80
2, 145916, Note_off_c, 0, 83, 100
2, 145916, Note_off_c, 0, 73, 100
2, 145920, Note_on_c, 0, 82, 80
2, 145920, Note_on_c, 0, 80, 80
2, 146012, Note_off_c, 0, 80, 100
2, 146016, Note_on_c, 0, 78, 80
2, 146108, Note_off_c, 0, 82, 100
2, 146108, Note_off_c, 0, 78, 100
2, 146112, Note_on_c, 0, 87, 80
2, 146112, Note_on_c, 0, 77, 80
2, 146204, Note_off_c, 0, 77, 100
2, 146208, Note_on_c, 0, 78, 80
2, 146300, Note_off_c, 0, 78, 100
2, 146304, Note_on_c, 0, 78, 80
2, 146304, Note_on_c, 0, 75, 80
2, 146492, Note_off_c, 0, 87, 100
2, 146492, Note_off_c, 0, 78, 100
2, 146492, Note_off_c, 0, 75, 100
2, 146496, Note_on_c, 0, 85, 80
2, 146496, Note_on_c, 0, 78, 80
2, 146496, Note_on_c, 0, 73, 80
2, 146684, Note_off_c, 0, 85, 100
2, 146684, Note_off_c, 0, 78, 100
2, 146684, Note_off_c, 0, 73, 100
2, 146688, Note_on_c, 0, 90, 80
2, 146688, Note_on_c, 0, 78, 80
2, 147068, Note_off_c, 0, 90, 100
2, 147068, Note_off_c, 0, 78, 100
2, 147072, Note_on_c, 0, 89, 80
2, 147072, Note_on_c, 0, 77, 80
2, 147260, Note_off_c, 0, 89, 100
2, 147260, Note_off_c, 0, 77, 100
2, 147264, Note_on_c, 0, 95, 80
2, 147264, Note_on_c, 0, 92, 80
2, 147264, Note_on_c, 0, 89, 80
2, 147264, Note_on_c, 0, 83, 80
2, 147456, Control_c, 0, 64, 127
2, 147740, Note_off_c, 0, 83, 100
2, 147740, Note_off_c, 0, 89, 100
2, 147740, Note_off_c, 0, 92, 100
2, 147740, Note_off_c, 0, 95, 100
2, 147744, Note_on_c, 0, 71, 80
2, 147840, Note_on_c, 0, 68, 80
2, 147936, Note_on_c, 0, 74, 80
2, 148028, Note_off_c, 0, 71, 100
2, 148028, Note_off_c, 0, 74, 100
2, 148028, Control_c, 0, 64, 0
2, 148030, Note_off_c, 0, 68, 100
2, 148032, Note_on_c, 0, 72, 80
2, 148124, Note_off_c, 0, 72, 100
2, 148128, Note_on_c, 0, 73, 80
2, 148220, Note_off_c, 0, 73, 100
2, 148224, Note_on_c, 0, 68, 80
2, 148316, Note_off_c, 0, 68, 100
2, 148320, Note_on_c, 0, 75, 80
2, 148412, Note_off_c, 0, 75, 100
2, 148416, Note_on_c, 0, 73, 80
2, 148508, Note_off_c, 0, 73, 100
2, 148512, Note_on_c, 0, 71, 80
2, 148604, Note_off_c, 0, 71, 100
2, 148608, Note_on_c, 0, 70, 80
2, 148796, Note_off_c, 0, 70, 100
2, 148992, Note_on_c, 0, 42, 80
2, 149564, Note_off_c, 0, 42, 100
2, 149568, Note_on_c, 0, 42, 80
2, 149660, Note_off_c, 0, 42, 100
2, 149664, Note_on_c, 0, 37, 80
2, 149756, Note_off_c, 0, 37, 100
2, 149760, Note_on_c, 0, 37, 80
2, 150332, Note_off_c, 0, 37, 100
2, 150336, Note_on_c, 0, 37, 80
2, 150716, Note_off_c, 0, 37, 100
2, 150720, Note_on_c, 0, 37, 80
2, 150908, Note_off_c, 0, 37, 100
2, 150912, Note_on_c, 0, 34, 80
2, 151100, Note_off_c, 0, 34, 100
2, 151296, Note_on_c, 0, 90, 80
2, 151296, Note_on_c, 0, 78, 80
2, 151868, Note_off_c, 0, 90, 100
2, 151868, Note_off_c, 0, 78, 100
2, 151872, Note_on_c, 0, 90, 80
2, 151872, Note_on_c, 0, 78, 80
2, 151964, Note_off_c, 0, 90, 100
2, 151964, Note_off_c, 0, 78, 100
2, 151968, Note_on_c, 0, 85, 80
2, 151968, Note_on_c, 0, 73, 80
2, 152060, Note_off_c, 0, 85, 100
2, 152060, Note_off_c, 0, 73, 100
2, 152064, Note_on_c, 0, 85, 80
2, 152064, Note_on_c, 0, 73, 80
2, 152636, Note_off_c, 0, 85, 100
2, 152636, Note_off_c, 0, 73, 100
2, 152640, Note_on_c, 0, 85, 80
2, 152640, Note_on_c, 0, 73, 80
2, 153020, Note_off_c, 0, 85, 100
2, 153020, Note_off_c, 0, 73, 100
2, 153024, Note_on_c, 0, 85, 80
2, 153024, Note_on_c, 0, 73, 80
2, 153212, Note_off_c, 0, 85, 100
2, 153212, Note_off_c, 0, 73, 100
2, 153216, Note_on_c, 0, 82, 80
2, 153216, Note_on_c, 0, 70, 80
2, 153404, Note_off_c, 0, 82, 100
2, 153404, Note_off_c, 0, 70, 100
2, 153600, Note_on_c, 0, 42, 80
2, 153980, Note_off_c, 0, 42, 100
2, 153984, Note_on_c, 0, 42, 80
2, 154172, Note_off_c, 0, 42, 100
2, 154176, Note_on_c, 0, 42, 80
2, 154236, Note_off_c, 0, 42, 100
2, 154240, Note_on_c, 0, 41, 80
2, 154300, Note_off_c, 0, 41, 100
2, 154304, Note_on_c, 0, 42, 80
2, 154364, Note_off_c, 0, 42, 100
2, 154368, Note_on_c, 0, 37, 80
2, 154748, Note_off_c, 0, 37, 100
2, 154752, Note_on_c, 0, 37, 80
2, 155132, Note_off_c, 0, 37, 100
2, 155136, Note_on_c, 0, 37, 80
2, 155516, Note_off_c, 0, 37, 100
2, 155520, Note_on_c, 0, 34, 80
2, 155708, Note_off_c, 0, 34, 100
2, 155904, Note_on_c, 0, 78, 80
2, 155904, Note_on_c, 0, 90, 80
2, 156284, Note_off_c, 0, 78, 100
2, 156284, Note_off_c, 0, 90, 100
2, 156288, Note_on_c, 0, 90, 80
2, 156288, Note_on_c, 0, 78, 80
2, 156476, Note_off_c, 0, 90, 100
2, 156476, Note_off_c, 0, 78, 100
2, 156480, Note_on_c, 0, 90, 80
2, 156480, Note_on_c, 0, 78, 80
2, 156540, Note_off_c, 0, 90, 100
2, 156540, Note_off_c, 0, 78, 100
2, 156544, Note_on_c, 0, 89, 80
2, 156544, Note_on_c, 0, 77, 80
2, 156604, Note_off_c, 0, 89, 100
2, 156604, Note_off_c, 0, 77, 100
2, 156608, Note_on_c, 0, 90, 80
2, 156608, Note_on_c, 0, 78, 80
2, 156668, Note_off_c, 0, 90, 100
2, 156668, Note_off_c, 0, 78, 100
2, 156672, Note_on_c, 0, 85, 80
2, 156672, Note_on_c, 0, 73, 80
2, 157052, Note_off_c, 0, 85, 100
2, 157052, Note_off_c, 0, 73, 100
2, 157056, Note_on_c, 0, 85, 80
2, 157056, Note_on_c, 0, 73, 80
2, 157436, Note_off_c, 0, 85, 100
2, 157436, Note_off_c, 0, 73, 100
2, 157440, Note_on_c, 0, 85, 80
2, 157440, Note_on_c, 0, 73, 80
2, 157756, Note_off_c, 0, 85, 100
2, 157756, Note_off_c, 0, 73, 100
2, 157760, Note_on_c, 0, 83, 80
2, 157760, Note_on_c, 0, 71, 80
2, 157820, Note_off_c, 0, 83, 100
2, 157820, Note_off_c, 0, 71, 100
2, 157824, Note_on_c, 0, 82, 80
2, 157824, Note_on_c, 0, 70, 80
2, 158012, Note_off_c, 0, 82, 100
2, 158012, Note_off_c, 0, 70, 100
2, 158016, Note_on_c, 0, 82, 80
2, 158016, Note_on_c, 0, 70, 80
2, 158076, Note_off_c, 0, 70, 100
2, 158080, Note_on_c, 0, 80, 80
2, 158140, Note_off_c, 0, 80, 100
2, 158144, Note_on_c, 0, 78, 80
2, 158204, Note_off_c, 0, 78, 100
2, 158208, Note_on_c, 0, 77, 80
2, 158268, Note_off_c, 0, 77, 100
2, 158272, Note_on_c, 0, 75, 80
2, 158332, Note_off_c, 0, 75, 100
2, 158336, Note_on_c, 0, 73, 80
2, 158396, Note_off_c, 0, 82, 100
2, 158396, Note_off_c, 0, 73, 100
2, 158400, Note_on_c, 0, 83, 80
2, 158400, Note_on_c, 0, 71, 80
2, 158460, Note_off_c, 0, 71, 100
2, 158464, Note_on_c, 0, 73, 80
2, 158524, Note_off_c, 0, 73, 100
2, 158528, Note_on_c, 0, 70, 80
2, 158588, Note_off_c, 0, 70, 100
2, 158592, Note_on_c, 0, 71, 80
2, 158652, Note_off_c, 0, 71, 100
2, 158656, Note_on_c, 0, 73, 80
2, 158716, Note_off_c, 0, 73, 100
2, 158720, Note_on_c, 0, 75, 80
2, 158780, Note_off_c, 0, 75, 100
2, 158784, Note_on_c, 0, 77, 80
2, 158844, Note_off_c, 0, 77, 100
2, 158848, Note_on_c, 0, 78, 80
2, 158908, Note_off_c, 0, 78, 100
2, 158912, Note_on_c, 0, 80, 80
2, 158972, Note_off_c, 0, 83, 100
2, 158972, Note_off_c, 0, 80, 100
2, 158976, Note_on_c, 0, 85, 80
2, 158976, Note_on_c, 0, 73, 80
2, 159164, Note_off_c, 0, 85, 100
2, 159164, Note_off_c, 0, 73, 100
2, 159168, Note_on_c, 0, 85, 80
2, 159168, Note_on_c, 0, 82, 80
2, 159228, Note_off_c, 0, 82, 100
2, 159232, Note_on_c, 0, 80, 80
2, 159292, Note_off_c, 0, 80, 100
2, 159296, Note_on_c, 0, 78, 80
2, 159356, Note_off_c, 0, 78, 100
2, 159360, Note_on_c, 0, 76, 80
2, 159420, Note_off_c, 0, 76, 100
2, 159424, Note_on_c, 0, 75, 80
2, 159484, Note_off_c, 0, 75, 100
2, 159488, Note_on_c, 0, 73, 80
2, 159548, Note_off_c, 0, 85, 100
2, 159552, Note_on_c, 0, 87, 80
2, 159612, Note_off_c, 0, 73, 100
2, 159616, Note_on_c, 0, 75, 80
2, 159676, Note_off_c, 0, 75, 100
2, 159680, Note_on_c, 0, 77, 80
2, 159740, Note_off_c, 0, 77, 100
2, 159744, Note_on_c, 0, 75, 80
2, 159804, Note_off_c, 0, 75, 100
2, 159808, Note_on_c, 0, 77, 80
2, 159868, Note_off_c, 0, 77, 100
2, 159872, Note_on_c, 0, 78, 80
2, 159932, Note_off_c, 0, 78, 100
2, 159936, Note_on_c, 0, 80, 80
2, 159996, Note_off_c, 0, 80, 100
2, 160000, Note_on_c, 0, 82, 80
2, 160060, Note_off_c, 0, 82, 100
2, 160064, Note_on_c, 0, 83, 80
2, 160124, Note_off_c, 0, 87, 100
2, 160128, Note_on_c, 0, 89, 80
2, 160188, Note_off_c, 0, 83, 100
2, 160192, Note_on_c, 0, 83, 81
2, 160252, Note_off_c, 0, 83, 100
2, 160256, Note_on_c, 0, 82, 83
2, 160316, Note_off_c, 0, 82, 100
2, 160320, Note_on_c, 0, 80, 84
2, 160380, Note_off_c, 0, 80, 100
2, 160384, Note_on_c, 0, 78, 86
2, 160444, Note_off_c, 0, 78, 100
2, 160448, Note_on_c, 0, 77, 88
2, 160508, Note_off_c, 0, 89, 100
2, 160508, Note_off_c, 0, 77, 100
2, 160512, Note_on_c, 0, 90, 89
2, 160512, Note_on_c, 0, 78, 89
2, 160572, Note_off_c, 0, 78, 100
2, 160576, Note_on_c, 0, 80, 91
2, 160636, Note_off_c, 0, 80, 100
2, 160640, Note_on_c, 0, 82, 93
2, 160700, Note_off_c, 0, 90, 100
2, 160700, Note_off_c, 0, 82, 100
2, 160704, Note_on_c, 0, 92, 94
2, 160704, Note_on_c, 0, 80, 94
2, 160764, Note_off_c, 0, 80, 100
2, 160768, Note_on_c, 0, 83, 96
2, 160828, Note_off_c, 0, 83, 100
2, 160832, Note_on_c, 0, 82, 98
2, 160892, Note_off_c, 0, 82, 100
2, 160896, Note_on_c, 0, 80, 99
2, 160956, Note_off_c, 0, 80, 100
2, 160960, Note_on_c, 0, 82, 101
2, 161020, Note_off_c, 0, 82, 100
2, 161024, Note_on_c, 0, 83, 103
2, 161084, Note_off_c, 0, 92, 100
2, 161084, Note_off_c, 0, 83, 100
2, 161088, Note_on_c, 0, 94, 104
2, 161088, Note_on_c, 0, 82, 104
2, 161148, Note_off_c, 0, 82, 100
2, 161152, Note_on_c, 0, 83, 106
2, 161212, Note_off_c, 0, 83, 100
2, 161216, Note_on_c, 0, 85, 108
2, 161276, Note_off_c, 0, 94, 100
2, 161280, Note_on_c, 0, 95, 110
2, 161340, Note_off_c, 0, 85, 100
2, 161344, Note_on_c, 0, 82, 110
2, 161404, Note_off_c, 0, 82, 100
2, 161408, Note_on_c, 0, 83, 110
2, 161468, Note_off_c, 0, 95, 100
2, 161468, Note_off_c, 0, 83, 100
2, 161472, Note_on_c, 0, 85, 110
2, 161472, Note_on_c, 0, 79, 110
2, 161532, Note_off_c, 0, 79, 100
2, 161536, Note_on_c, 0, 78, 110
2, 161596, Note_off_c, 0, 78, 100
2, 161600, Note_on_c, 0, 76, 110
2, 161660, Note_off_c, 0, 85, 100
2, 161660, Note_off_c, 0, 76, 100
2, 161664, Note_on_c, 0, 87, 110
2, 161664, Note_on_c, 0, 75, 110
2, 161724, Note_off_c, 0, 75, 100
2, 161728, Note_on_c, 0, 76, 110
2, 161788, Note_off_c, 0, 76, 100
2, 161792, Note_on_c, 0, 78, 110
2, 161852, Note_off_c, 0, 87, 100
2, 161856, Note_on_c, 0, 81, 105
2, 161916, Note_off_c, 0, 78, 100
2, 161920, Note_on_c, 0, 77, 103
2, 161980, Note_off_c, 0, 77, 100
2, 161984, Note_on_c, 0, 75, 101
2, 162044, Note_off_c, 0, 75, 100
2, 162048, Note_on_c, 0, 72, 98
2, 162108, Note_off_c, 0, 72, 100
2, 162112, Note_on_c, 0, 73, 96
2, 162172, Note_off_c, 0, 73, 100
2, 162176, Note_on_c, 0, 75, 93
2, 162236, Note_off_c, 0, 81, 100
2, 162236, Note_off_c, 0, 75, 100
2, 162240, Note_on_c, 0, 80, 91
2, 162240, Note_on_c, 0, 77, 91
2, 162300, Note_off_c, 0, 77, 100
2, 162304, Note_on_c, 0, 74, 88
2, 162364, Note_off_c, 0, 74, 100
2, 162368, Note_on_c, 0, 73, 86
2, 162428, Note_off_c, 0, 80, 100
2, 162428, Note_off_c, 0, 73, 100
2, 162432, Note_on_c, 0, 85, 80
2, 162432, Note_on_c, 0, 79, 80
2, 162432, Note_on_c, 0, 76, 80
2, 162812, Note_off_c, 0, 76, 100
2, 162816, Note_on_c, 0, 75, 80
2, 163004, Note_off_c, 0, 85, 100
2, 163004, Note_off_c, 0, 79, 100
2, 163004, Note_off_c, 0, 75, 100
2, 163008, Note_on_c, 0, 87, 80
2, 163008, Note_on_c, 0, 82, 80
2, 163008, Note_on_c, 0, 75, 80
2, 163388, Note_off_c, 0, 87, 100
2, 163388, Note_off_c, 0, 82, 100
2, 163388, Note_off_c, 0, 75, 100
2, 163392, Note_on_c, 0, 82, 80
2, 163392, Note_on_c, 0, 75, 80
2, 163392, Note_on_c, 0, 73, 80
2, 163580, Note_off_c, 0, 82, 100
2, 163580, Note_off_c, 0, 75, 100
2, 163580, Note_off_c, 0, 73, 100
2, 163584, Note_on_c, 0, 85, 80
2, 163584, Note_on_c, 0, 73, 80
2, 163676, Note_off_c, 0, 85, 100
2, 163676, Note_off_c, 0, 73, 100
2, 163680, Note_on_c, 0, 82, 80
2, 163680, Note_on_c, 0, 70, 80
2, 163772, Note_off_c, 0, 82, 100
2, 163772, Note_off_c, 0, 70, 100
2, 163776, Note_on_c, 0, 83, 80
2, 163776, Note_on_c, 0, 71, 80
2, 163868, Note_off_c, 0, 83, 100
2, 163868, Note_off_c, 0, 71, 100
2, 163872, Note_on_c, 0, 87, 80
2, 163872, Note_on_c, 0, 75, 80
2, 163964, Note_off_c, 0, 87, 100
2, 163964, Note_off_c, 0, 75, 100
2, 163968, Note_on_c, 0, 94, 80
2, 163968, Note_on_c, 0, 82, 80
2, 164060, Note_off_c, 0, 94, 100
2, 164060, Note_off_c, 0, 82, 100
2, 164064, Note_on_c, 0, 92, 80
2, 164064, Note_on_c, 0, 80, 80
2, 164252, Note_off_c, 0, 92, 100
2, 164252, Note_off_c, 0, 80, 100
2, 164256, Note_on_c, 0, 90, 80
2, 164256, Note_on_c, 0, 78, 80
2, 164444, Note_off_c, 0, 90, 100
2, 164444, Note_off_c, 0, 78, 100
2, 164448, Note_on_c, 0, 78, 80
2, 164448, Note_on_c, 0, 70, 80
2, 164448, Note_on_c, 0, 66, 80
2, 164540, Note_off_c, 0, 78, 100
2, 164540, Note_off_c, 0, 70, 100
2, 164540, Note_off_c, 0, 66, 100
2, 164544, Note_on_c, 0, 68, 80
2, 164544, Note_on_c, 0, 65, 80
2, 164544, Note_on_c, 0, 77, 80
2, 164636, Note_off_c, 0, 68, 100
2, 164636, Note_off_c, 0, 65, 100
2, 164636, Note_off_c, 0, 77, 100
2, 164640, Note_on_c, 0, 76, 80
2, 164640, Note_on_c, 0, 67, 80
2, 164640, Note_on_c, 0, 64, 80
2, 164640, Note_on_c, 0, 73, 80
2, 164732, Note_off_c, 0, 76, 100
2, 164732, Note_off_c, 0, 67, 100
2, 164732, Note_off_c, 0, 64, 100
2, 164732, Note_off_c, 0, 73, 100
2, 164736, Control_c, 0, 64, 127
2, 164736, Note_on_c, 0, 76, 80
2, 164736, Note_on_c, 0, 73, 80
2, 164736, Note_on_c, 0, 67, 80
2, 164736, Note_on_c, 0, 64, 80
2, 165116, Note_off_c, 0, 73, 100
2, 165116, Note_off_c, 0, 67, 100
2, 165116, Note_off_c, 0, 64, 100
2, 165120, Note_on_c, 0, 73, 80
2, 165164, Note_off_c, 0, 73, 100
2, 165168, Note_on_c, 0, 67, 80
2, 165212, Note_off_c, 0, 76, 100
2, 165212, Note_off_c, 0, 67, 100
2, 165212, Control_c, 0, 64, 0
2, 165216, Note_on_c, 0, 75, 80
2, 165216, Note_on_c, 0, 71, 80
2, 165260, Note_off_c, 0, 71, 100
2, 165264, Note_on_c, 0, 66, 80
2, 165308, Note_off_c, 0, 75, 100
2, 165308, Note_off_c, 0, 66, 100
2, 165312, Note_on_c, 0, 71, 80
2, 165312, Note_on_c, 0, 66, 80
2, 165312, Note_on_c, 0, 62, 80
2, 165312, Note_on_c, 0, 74, 80
2, 165692, Note_off_c, 0, 71, 100
2, 165692, Note_off_c, 0, 66, 100
2, 165692, Note_off_c, 0, 62, 100
2, 165692, Note_off_c, 0, 74, 100
2, 165888, Control_c, 0, 64, 127
2, 165888, Note_on_c, 0, 73, 80
2, 165888, Note_on_c, 0, 70, 80
2, 165888, Note_on_c, 0, 66, 80
2, 165888, Note_on_c, 0, 61, 80
2, 166268, Note_off_c, 0, 70, 100
2, 166268, Note_off_c, 0, 66, 100
2, 166268, Note_off_c, 0, 61, 100
2, 166272, Note_on_c, 0, 70, 80
2, 166316, Note_off_c, 0, 70, 100
2, 166320, Note_on_c, 0, 66, 80
2, 166348, Note_off_c, 0, 73, 100
2, 166364, Note_off_c, 0, 66, 100
2, 166364, Control_c, 0, 64, 0
2, 166368, Note_on_c, 0, 72, 80
2, 166368, Note_on_c, 0, 69, 80
2, 166412, Note_off_c, 0, 69, 100
2, 166416, Note_on_c, 0, 66, 70
2, 166460, Note_off_c, 0, 72, 100
2, 166460, Note_off_c, 0, 66, 100
2, 166464, Control_c, 0, 64, 127
2, 166464, Note_on_c, 0, 71, 70
2, 166464, Note_on_c, 0, 68, 70
2, 166464, Note_on_c, 0, 65, 70
2, 166464, Note_on_c, 0, 62, 70
2, 166652, Note_off_c, 0, 71, 100
2, 166652, Note_off_c, 0, 68, 100
2, 166652, Note_off_c, 0, 65, 100
2, 166652, Note_off_c, 0, 62, 100
2, 167036, Control_c, 0, 64, 0
2, 167040, Control_c, 0, 64, 127
2, 167616, Note_on_c, 0, 67, 70
2, 167616, Note_on_c, 0, 70, 70
2, 167996, Note_off_c, 0, 67, 100
2, 167996, Note_off_c, 0, 70, 100
2, 168000, Note_on_c, 0, 75, 70
2, 168000, Note_on_c, 0, 70, 70
2, 168000, Note_on_c, 0, 67, 70
2, 168188, Note_off_c, 0, 75, 100
2, 168188, Note_off_c, 0, 70, 100
2, 168188, Note_off_c, 0, 67, 100
2, 168192, Note_on_c, 0, 75, 70
2, 168192, Note_on_c, 0, 70, 70
2, 168192, Note_on_c, 0, 63, 70
2, 168192, Note_on_c, 0, 67, 70
2, 168572, Note_off_c, 0, 75, 100
2, 168572, Note_off_c, 0, 70, 100
2, 168572, Note_off_c, 0, 63, 100
2, 168572, Note_off_c, 0, 67, 100
2, 168576, Note_on_c, 0, 67, 70
2, 168576, Note_on_c, 0, 63, 70
2, 168576, Note_on_c, 0, 75, 70
2, 168764, Note_off_c, 0, 67, 100
2, 168764, Note_off_c, 0, 63, 100
2, 168764, Note_off_c, 0, 75, 100
2, 168764, Control_c, 0, 64, 0
2, 168768, Note_on_c, 0, 66, 70
2, 168768, Note_on_c, 0, 63, 70
2, 168768, Note_on_c, 0, 75, 70
2, 168956, Note_off_c, 0, 66, 100
2, 168956, Note_off_c, 0, 63, 100
2, 168956, Note_off_c, 0, 75, 100
2, 168960, Note_on_c, 0, 73, 70
2, 168960, Note_on_c, 0, 65, 70
2, 168960, Note_on_c, 0, 61, 70
2, 169340, Note_off_c, 0, 73, 100
2, 169340, Note_off_c, 0, 65, 100
2, 169340, Note_off_c, 0, 61, 100
2, 169344, Note_on_c, 0, 73, 70
2, 169344, Note_on_c, 0, 70, 70
2, 169344, Note_on_c, 0, 66, 70
2, 169344, Note_on_c, 0, 61, 70
2, 169724, Note_off_c, 0, 73, 100
2, 169724, Note_off_c, 0, 70, 100
2, 169724, Note_off_c, 0, 66, 100
2, 169724, Note_off_c, 0, 61, 100
2, 169728, Note_on_c, 0, 70, 70
2, 169916, Note_off_c, 0, 70, 100
2, 169920, Note_on_c, 0, 61, 70
2, 170300, Note_off_c, 0, 61, 100
2, 170304, Note_on_c, 0, 73, 70
2, 170492, Note_off_c, 0, 73, 100
2, 170496, Note_on_c, 0, 70, 70
2, 170876, Note_off_c, 0, 70, 100
2, 170880, Note_on_c, 0, 82, 70
2, 170880, Note_on_c, 0, 73, 70
2, 170880, Note_on_c, 0, 70, 70
2, 171068, Note_off_c, 0, 82, 100
2, 171068, Note_off_c, 0, 73, 100
2, 171068, Note_off_c, 0, 70, 100
2, 171072, Note_on_c, 0, 80, 70
2, 171072, Note_on_c, 0, 71, 70
2, 171072, Note_on_c, 0, 68, 70
2, 171452, Note_off_c, 0, 80, 100
2, 171452, Note_off_c, 0, 71, 100
2, 171452, Note_off_c, 0, 68, 100
2, 171456, Note_on_c, 0, 73, 70
2, 171456, Note_on_c, 0, 71, 70
2, 171456, Note_on_c, 0, 68, 70
2, 171456, Note_on_c, 0, 61, 70
2, 171644, Note_off_c, 0, 73, 100
2, 171644, Note_off_c, 0, 71, 100
2, 171644, Note_off_c, 0, 68, 100
2, 171644, Note_off_c, 0, 61, 100
2, 171648, Note_on_c, 0, 73, 70
2, 171648, Note_on_c, 0, 70, 70
2, 171648, Note_on_c, 0, 66, 70
2, 171648, Note_on_c, 0, 61, 70
2, 172028, Note_off_c, 0, 73, 100
2, 172028, Note_off_c, 0, 70, 100
2, 172028, Note_off_c, 0, 66, 100
2, 172028, Note_off_c, 0, 61, 100
2, 172032, Note_on_c, 0, 82, 70
2, 172220, Note_off_c, 0, 82, 100
2, 172224, Note_on_c, 0, 73, 70
2, 172604, Note_off_c, 0, 73, 100
2, 172608, Note_on_c, 0, 85, 70
2, 172608, Note_on_c, 0, 73, 70
2, 172796, Note_off_c, 0, 85, 100
2, 172796, Note_off_c, 0, 73, 100
2, 172800, Note_on_c, 0, 82, 70
2, 172800, Note_on_c, 0, 70, 70
2, 173180, Note_off_c, 0, 82, 100
2, 173180, Note_off_c, 0, 70, 100
2, 173184, Note_on_c, 0, 85, 70
2, 173184, Note_on_c, 0, 73, 70
2, 173564, Note_off_c, 0, 85, 100
2, 173564, Note_off_c, 0, 73, 100
2, 173568, Note_on_c, 0, 87, 70
2, 173568, Note_on_c, 0, 75, 70
2, 173568, Note_on_c, 0, 85, 70
2, 173660, Note_off_c, 0, 85, 100
2, 173664, Note_on_c, 0, 83, 70
2, 173756, Note_off_c, 0, 87, 100
2, 173756, Note_off_c, 0, 75, 100
2, 173756, Note_off_c, 0, 83, 100
2, 173760, Note_on_c, 0, 89, 70
2, 173760, Note_on_c, 0, 77, 70
2, 173760, Note_on_c, 0, 82, 70
2, 173852, Note_off_c, 0, 82, 100
2, 173856, Note_on_c, 0, 83, 70
2, 173948, Note_off_c, 0, 89, 100
2, 173948, Note_off_c, 0, 77, 100
2, 173948, Note_off_c, 0, 83, 100
2, 173952, Note_on_c, 0, 90, 70
2, 173952, Note_on_c, 0, 78, 70
2, 173952, Note_on_c, 0, 82, 70
2, 174332, Note_off_c, 0, 82, 100
2, 174524, Note_off_c, 0, 90, 100
2, 174524, Note_off_c, 0, 78, 100
2, 174528, Note_on_c, 0, 92, 70
2, 174528, Note_on_c, 0, 89, 70
2, 174528, Note_on_c, 0, 80, 70
2, 174912, Note_on_c, 0, 85, 70
2, 175100, Note_off_c, 0, 92, 100
2, 175100, Note_off_c, 0, 89, 100
2, 175100, Note_off_c, 0, 80, 100
2, 175100, Note_off_c, 0, 85, 100
2, 175104, Note_on_c, 0, 94, 70
2, 175104, Note_on_c, 0, 90, 70
2, 175104, Note_on_c, 0, 85, 70
2, 175104, Note_on_c, 0, 82, 70
2, 175484, Note_off_c, 0, 94, 100
2, 175484, Note_off_c, 0, 90, 100
2, 175484, Note_off_c, 0, 85, 100
2, 175484, Note_off_c, 0, 82, 100
2, 175488, Note_on_c, 0, 82, 70
2, 175488, Note_on_c, 0, 73, 70
2, 175488, Note_on_c, 0, 70, 70
2, 175676, Note_off_c, 0, 82, 100
2, 175676, Note_off_c, 0, 73, 100
2, 175676, Note_off_c, 0, 70, 100
2, 175680, Note_on_c, 0, 85, 70
2, 175680, Note_on_c, 0, 82, 70
2, 175680, Note_on_c, 0, 73, 70
2, 175964, Note_off_c, 0, 85, 100
2, 175964, Note_off_c, 0, 82, 100
2, 175964, Note_off_c, 0, 73, 100
2, 175968, Note_on_c, 0, 86, 70
2, 175968, Note_on_c, 0, 83, 70
2, 175968, Note_on_c, 0, 74, 70
2, 176060, Note_off_c, 0, 86, 100
2, 176060, Note_off_c, 0, 83, 100
2, 176060, Note_off_c, 0, 74, 100
2, 176064, Note_on_c, 0, 88, 70
2, 176064, Note_on_c, 0, 85, 70
2, 176064, Note_on_c, 0, 76, 70
2, 176156, Note_off_c, 0, 88, 100
2, 176156, Note_off_c, 0, 85, 100
2, 176156, Note_off_c, 0, 76, 100
2, 176160, Note_on_c, 0, 90, 70
2, 176160, Note_on_c, 0, 86, 70
2, 176160, Note_on_c, 0, 78, 70
2, 176252, Note_off_c, 0, 90, 100
2, 176252, Note_off_c, 0, 86, 100
2, 176252, Note_off_c, 0, 78, 100
2, 176256, Note_on_c, 0, 90, 70
2, 176256, Note_on_c, 0, 78, 70
2, 176636, Note_off_c, 0, 90, 100
2, 176636, Note_off_c, 0, 78, 100
2, 176640, Note_on_c, 0, 86, 70
2, 176640, Note_on_c, 0, 74, 70
2, 176828, Note_off_c, 0, 86, 100
2, 176828, Note_off_c, 0, 74, 100
2, 176832, Note_on_c, 0, 86, 70
2, 176832, Note_on_c, 0, 74, 70
2, 177020, Note_off_c, 0, 86, 100
2, 177020, Note_off_c, 0, 74, 100
2, 177024, Note_on_c, 0, 83, 70
2, 177024, Note_on_c, 0, 71, 70
2, 177212, Note_off_c, 0, 83, 100
2, 177212, Note_off_c, 0, 71, 100
2, 177216, Note_on_c, 0, 85, 70
2, 177216, Note_on_c, 0, 73, 70
2, 177404, Note_off_c, 0, 85, 100
2, 177404, Note_off_c, 0, 73, 100
2, 177408, Note_on_c, 0, 86, 70
2, 177408, Note_on_c, 0, 74, 70
2, 177788, Note_off_c, 0, 86, 100
2, 177788, Note_off_c, 0, 74, 100
2, 178560, Key_signature, 1, "major"
2, 178560, Note_on_c, 0, 83, 70
2, 178560, Note_on_c, 0, 71, 70
2, 179132, Note_off_c, 0, 83, 100
2, 179132, Note_off_c, 0, 71, 100
2, 179136, Note_on_c, 0, 86, 70
2, 179136, Note_on_c, 0, 74, 70
2, 179708, Note_off_c, 0, 86, 100
2, 179708, Note_off_c, 0, 74, 100
2, 179712, Note_on_c, 0, 91, 70
2, 179712, Note_on_c, 0, 79, 70
2, 180476, Note_off_c, 0, 91, 100
2, 180476, Note_off_c, 0, 79, 100
2, 180480, Note_on_c, 0, 74, 77
2, 180480, Note_on_c, 0, 71, 77
2, 180668, Note_off_c, 0, 74, 100
2, 180668, Note_off_c, 0, 71, 100
2, 180672, Note_on_c, 0, 72, 79
2, 180672, Note_on_c, 0, 66, 79
2, 180764, Note_off_c, 0, 72, 100
2, 180764, Note_off_c, 0, 66, 100
2, 180768, Note_on_c, 0, 71, 79
2, 180768, Note_on_c, 0, 67, 79
2, 180860, Note_off_c, 0, 71, 100
2, 180860, Note_off_c, 0, 67, 100
2, 180864, Note_on_c, 0, 71, 80
2, 180864, Note_on_c, 0, 67, 80
2, 181052, Note_off_c, 0, 71, 100
2, 181052, Note_off_c, 0, 67, 100
2, 181248, Note_on_c, 0, 43, 80
2, 181628, Note_off_c, 0, 43, 100
2, 181632, Note_on_c, 0, 43, 80
2, 181820, Note_off_c, 0, 43, 100
2, 181824, Note_on_c, 0, 43, 80
2, 181884, Note_off_c, 0, 43, 100
2, 181888, Note_on_c, 0, 42, 80
2, 181948, Note_off_c, 0, 42, 100
2, 181952, Note_on_c, 0, 43, 80
2, 182012, Note_off_c, 0, 43, 100
2, 182016, Note_on_c, 0, 38, 80
2, 182396, Note_off_c, 0, 38, 100
2, 182400, Note_on_c, 0, 38, 80
2, 182780, Note_off_c, 0, 38, 100
2, 182784, Note_on_c, 0, 38, 80
2, 183164, Note_off_c, 0, 38, 100
2, 183168, Note_on_c, 0, 35, 80
2, 183356, Note_off_c, 0, 35, 100
2, 183552, Note_on_c, 0, 91, 80
2, 183552, Note_on_c, 0, 79, 80
2, 183932, Note_off_c, 0, 91, 100
2, 183932, Note_off_c, 0, 79, 100
2, 183936, Note_on_c, 0, 91, 80
2, 183936, Note_on_c, 0, 79, 80
2, 184124, Note_off_c, 0, 91, 100
2, 184124, Note_off_c, 0, 79, 100
2, 184128, Note_on_c, 0, 91, 80
2, 184128, Note_on_c, 0, 79, 80
2, 184188, Note_off_c, 0, 91, 100
2, 184188, Note_off_c, 0, 79, 100
2, 184192, Note_on_c, 0, 90, 80
2, 184192, Note_on_c, 0, 78, 80
2, 184252, Note_off_c, 0, 90, 100
2, 184252, Note_off_c, 0, 78, 100
2, 184256, Note_on_c, 0, 91, 80
2, 184256, Note_on_c, 0, 79, 80
2, 184316, Note_off_c, 0, 91, 100
2, 184316, Note_off_c, 0, 79, 100
2, 184320, Note_on_c, 0, 86, 80
2, 184320, Note_on_c, 0, 74, 80
2, 184700, Note_off_c, 0, 86, 100
2, 184700, Note_off_c, 0, 74, 100
2, 184704, Note_on_c, 0, 86, 80
2, 184704, Note_on_c, 0, 74, 80
2, 185084, Note_off_c, 0, 86, 100
2, 185084, Note_off_c, 0, 74, 100
2, 185088, Note_on_c, 0, 86, 80
2, 185088, Note_on_c, 0, 74, 80
2, 185468, Note_off_c, 0, 86, 100
2, 185468, Note_off_c, 0, 74, 100
2, 185472, Note_on_c, 0, 86, 80
2, 185472, Note_on_c, 0, 74, 80
2, 185852, Note_off_c, 0, 86, 100
2, 185852, Note_off_c, 0, 74, 100
2, 185856, Note_on_c, 0, 86, 80
2, 185856, Note_on_c, 0, 74, 80
2, 186236, Note_off_c, 0, 86, 100
2, 186236, Note_off_c, 0, 74, 100
2, 186240, Note_on_c, 0, 86, 81
2, 186240, Note_on_c, 0, 74, 81
2, 186492, Note_off_c, 0, 86, 100
2, 186492, Note_off_c, 0, 74, 100
2, 186496, Note_on_c, 0, 85, 84
2, 186496, Note_on_c, 0, 73, 84
2, 186556, Note_off_c, 0, 85, 100
2, 186556, Note_off_c, 0, 73, 100
2, 186560, Note_on_c, 0, 86, 85
2, 186560, Note_on_c, 0, 74, 85
2, 186620, Note_off_c, 0, 86, 100
2, 186620, Note_off_c, 0, 74, 100
2, 186624, Note_on_c, 0, 86, 85
2, 186624, Note_on_c, 0, 78, 85
2, 186624, Note_on_c, 0, 74, 85
2, 187004, Note_off_c, 0, 86, 100
2, 187004, Note_off_c, 0, 78, 100
2, 187004, Note_off_c, 0, 74, 100
2, 187008, Note_on_c, 0, 86, 90
2, 187008, Note_on_c, 0, 78, 90
2, 187008, Note_on_c, 0, 74, 90
2, 187388, Note_off_c, 0, 86, 100
2, 187388, Note_off_c, 0, 78, 100
2, 187388, Note_off_c, 0, 74, 100
2, 187392, Note_on_c, 0, 90, 94
2, 187392, Note_on_c, 0, 78, 94
2, 187644, Note_off_c, 0, 90, 100
2, 187644, Note_off_c, 0, 78, 100
2, 187648, Note_on_c, 0, 89, 97
2, 187648, Note_on_c, 0, 77, 97
2, 187708, Note_off_c, 0, 89, 100
2, 187708, Note_off_c, 0, 77, 100
2, 187712, Note_on_c, 0, 90, 98
2, 187712, Note_on_c, 0, 78, 98
2, 187772, Note_off_c, 0, 90, 100
2, 187772, Note_off_c, 0, 78, 100
2, 187776, Key_signature, 2, "major"
2, 187776, Note_on_c, 0, 90, 98
2, 187776, Note_on_c, 0, 78, 98
2, 188156, Note_off_c, 0, 90, 100
2, 188156, Note_off_c, 0, 78, 100
2, 188160, Note_on_c, 0, 78, 103
2, 188160, Note_on_c, 0, 90, 103
2, 188352, Control_c, 0, 64, 127
2, 188444, Note_off_c, 0, 78, 100
2, 188444, Note_off_c, 0, 90, 100
2, 188544, Note_on_c, 0, 90, 107
2, 188544, Note_on_c, 0, 78, 107
2, 188828, Note_off_c, 0, 90, 100
2, 188828, Note_off_c, 0, 78, 100
2, 188928, Note_on_c, 0, 90, 110
2, 188928, Note_on_c, 0, 78, 110
2, 189020, Note_off_c, 0, 90, 100
2, 189020, Note_off_c, 0, 78, 100
2, 189024, Note_on_c, 0, 90, 110
2, 189116, Note_off_c, 0, 90, 100
2, 189120, Note_on_c, 0, 90, 110
2, 189212, Note_off_c, 0, 90, 100
2, 189216, Note_on_c, 0, 90, 110
2, 189308, Note_off_c, 0, 90, 100
2, 189312, Note_on_c, 0, 90, 110
2, 189404, Note_off_c, 0, 90, 100
2, 189408, Note_on_c, 0, 90, 110
2, 189500, Note_off_c, 0, 90, 100
2, 189504, Note_on_c, 0, 90, 110
2, 189596, Note_off_c, 0, 90, 100
2, 189600, Note_on_c, 0, 90, 110
2, 189692, Note_off_c, 0, 90, 100
2, 189696, Note_on_c, 0, 90, 110
2, 189788, Note_off_c, 0, 90, 100
2, 189792, Note_on_c, 0, 90, 110
2, 189884, Note_off_c, 0, 90, 100
2, 189888, Note_on_c, 0, 90, 110
2, 189980, Note_off_c, 0, 90, 100
2, 189984, Note_on_c, 0, 90, 110
2, 190076, Note_off_c, 0, 90, 100
2, 190076, Control_c, 0, 64, 0
2, 190080, Key_signature, 3, "major"
2, 190080, Note_on_c, 0, 73, 80
2, 190460, Note_off_c, 0, 73, 100
2, 190464, Note_on_c, 0, 69, 80
2, 190652, Note_off_c, 0, 69, 100
2, 190656, Note_on_c, 0, 69, 80
2, 190844, Note_off_c, 0, 69, 100
2, 190848, Note_on_c, 0, 66, 80
2, 191036, Note_off_c, 0, 66, 100
2, 191040, Note_on_c, 0, 68, 80
2, 191040, Note_on_c, 0, 65, 80
2, 191040, Note_on_c, 0, 61, 80
2, 191228, Note_off_c, 0, 68, 100
2, 191228, Note_off_c, 0, 65, 100
2, 191228, Note_off_c, 0, 61, 100
2, 191232, Note_on_c, 0, 69, 80
2, 191232, Note_on_c, 0, 66, 80
2, 191232, Note_on_c, 0, 61, 80
2, 191232, Note_on_c, 0, 57, 80
2, 191612, Note_off_c, 0, 69, 100
2, 191612, Note_off_c, 0, 66, 100
2, 191612, Note_off_c, 0, 61, 100
2, 191612, Note_off_c, 0, 57, 100
2, 191616, Note_on_c, 0, 70, 80
2, 191616, Note_on_c, 0, 66, 80
2, 191616, Note_on_c, 0, 61, 80
2, 191616, Note_on_c, 0, 58, 80
2, 191804, Note_off_c, 0, 70, 100
2, 191804, Note_off_c, 0, 66, 100
2, 191804, Note_off_c, 0, 61, 100
2, 191804, Note_off_c, 0, 58, 100
2, 191808, Note_on_c, 0, 71, 80
2, 191808, Note_on_c, 0, 66, 80
2, 191808, Note_on_c, 0, 59, 80
2, 191808, Note_on_c, 0, 62, 80
2, 192188, Note_off_c, 0, 71, 100
2, 192188, Note_off_c, 0, 66, 100
2, 192188, Note_off_c, 0, 59, 100
2, 192188, Note_off_c, 0, 62, 100
2, 192192, Note_on_c, 0, 74, 80
2, 192192, Note_on_c, 0, 71, 80
2, 192192, Note_on_c, 0, 66, 80
2, 192192, Note_on_c, 0, 62, 80
2, 192380, Note_off_c, 0, 74, 100
2, 192380, Note_off_c, 0, 71, 100
2, 192380, Note_off_c, 0, 66, 100
2, 192380, Note_off_c, 0, 62, 100
2, 192384, Note_on_c, 0, 74, 80
2, 192384, Note_on_c, 0, 71, 80
2, 192384, Note_on_c, 0, 65, 80
2, 192384, Note_on_c, 0, 62, 80
2, 192764, Note_off_c, 0, 74, 100
2, 192764, Note_off_c, 0, 71, 100
2, 192764, Note_off_c, 0, 65, 100
2, 192764, Note_off_c, 0, 62, 100
2, 192768, Note_on_c, 0, 73, 80
2, 192768, Note_on_c, 0, 69, 80
2, 192768, Note_on_c, 0, 66, 80
2, 192768, Note_on_c, 0, 61, 80
2, 192956, Note_off_c, 0, 73, 100
2, 192956, Note_off_c, 0, 69, 100
2, 192956, Note_off_c, 0, 66, 100
2, 192956, Note_off_c, 0, 61, 100
2, 192960, Note_on_c, 0, 73, 80
2, 192960, Note_on_c, 0, 69, 80
2, 192960, Note_on_c, 0, 66, 80
2, 192960, Note_on_c, 0, 61, 80
2, 193148, Note_off_c, 0, 73, 100
2, 193148, Note_off_c, 0, 69, 100
2, 193148, Note_off_c, 0, 66, 100
2, 193148, Note_off_c, 0, 61, 100
2, 193152, Note_on_c, 0, 71, 80
2, 193152, Note_on_c, 0, 68, 80
2, 193152, Note_on_c, 0, 62, 80
2, 193152, Note_on_c, 0, 59, 80
2, 193340, Note_off_c, 0, 71, 100
2, 193340, Note_off_c, 0, 68, 100
2, 193340, Note_off_c, 0, 62, 100
2, 193340, Note_off_c, 0, 59, 100
2, 193344, Note_on_c, 0, 69, 80
2, 193344, Note_on_c, 0, 66, 80
2, 193344, Note_on_c, 0, 63, 80
2, 193344, Note_on_c, 0, 57, 80
2, 193532, Note_off_c, 0, 69, 100
2, 193532, Note_off_c, 0, 66, 100
2, 193532, Note_off_c, 0, 63, 100
2, 193532, Note_off_c, 0, 57, 100
2, 193536, Note_on_c, 0, 63, 80
2, 193536, Note_on_c, 0, 69, 80
2, 193536, Note_on_c, 0, 66, 80
2, 193536, Note_on_c, 0, 57, 80
2, 193724, Note_off_c, 0, 63, 100
2, 193728, Note_on_c, 0, 61, 80
2, 193916, Note_off_c, 0, 69, 100
2, 193916, Note_off_c, 0, 66, 100
2, 193916, Note_off_c, 0, 57, 100
2, 193920, Note_on_c, 0, 68, 80
2, 193920, Note_on_c, 0, 65, 80
2, 193920, Note_on_c, 0, 56, 80
2, 194108, Note_off_c, 0, 61, 100
2, 194108, Note_off_c, 0, 68, 100
2, 194108, Note_off_c, 0, 65, 100
2, 194108, Note_off_c, 0, 56, 100
2, 194112, Note_on_c, 0, 68, 80
2, 194112, Note_on_c, 0, 65, 80
2, 194112, Note_on_c, 0, 61, 80
2, 194112, Note_on_c, 0, 56, 80
2, 194300, Note_off_c, 0, 68, 100
2, 194300, Note_off_c, 0, 65, 100
2, 194300, Note_off_c, 0, 61, 100
2, 194300, Note_off_c, 0, 56, 100
2, 194304, Note_on_c, 0, 58, 80
2, 194304, Note_on_c, 0, 55, 80
2, 194304, Note_on_c, 0, 67, 80
2, 194304, Note_on_c, 0, 64, 80
2, 194492, Note_off_c, 0, 58, 100
2, 194492, Note_off_c, 0, 55, 100
2, 194492, Note_off_c, 0, 64, 100
2, 194496, Note_on_c, 0, 62, 80
2, 194496, Note_on_c, 0, 59, 80
2, 194496, Note_on_c, 0, 55, 80
2, 194684, Note_off_c, 0, 67, 100
2, 194684, Note_off_c, 0, 62, 100
2, 194684, Note_off_c, 0, 59, 100
2, 194684, Note_off_c, 0, 55, 100
2, 194688, Note_on_c, 0, 71, 80
2, 194716, Note_off_c, 0, 71, 100
2, 194720, Note_on_c, 0, 83, 80
2, 194880, Note_on_c, 0, 71, 80
2, 195068, Note_off_c, 0, 83, 100
2, 195068, Note_off_c, 0, 71, 100
2, 195072, Note_on_c, 0, 81, 80
2, 195072, Note_on_c, 0, 69, 80
2, 195260, Note_off_c, 0, 81, 100
2, 195260, Note_off_c, 0, 69, 100
2, 195264, Note_on_c, 0, 81, 80
2, 195264, Note_on_c, 0, 69, 80
2, 195452, Note_off_c, 0, 81, 100
2, 195452, Note_off_c, 0, 69, 100
2, 195456, Note_on_c, 0, 79, 80
2, 195456, Note_on_c, 0, 67, 80
2, 195644, Note_off_c, 0, 79, 100
2, 195644, Note_off_c, 0, 67, 100
2, 195648, Note_on_c, 0, 78, 80
2, 195648, Note_on_c, 0, 66, 80
2, 195836, Note_off_c, 0, 78, 100
2, 195836, Note_off_c, 0, 66, 100
2, 195840, Note_on_c, 0, 78, 80
2, 195840, Note_on_c, 0, 66, 80
2, 196028, Note_off_c, 0, 78, 100
2, 196028, Note_off_c, 0, 66, 100
2, 196032, Note_on_c, 0, 76, 80
2, 196032, Note_on_c, 0, 64, 80
2, 196220, Note_off_c, 0, 76, 100
2, 196220, Note_off_c, 0, 64, 100
2, 196224, Note_on_c, 0, 78, 80
2, 196224, Note_on_c, 0, 66, 80
2, 196412, Note_off_c, 0, 78, 100
2, 196412, Note_off_c, 0, 66, 100
2, 196416, Note_on_c, 0, 78, 80
2, 196416, Note_on_c, 0, 66, 80
2, 196604, Note_off_c, 0, 78, 100
2, 196604, Note_off_c, 0, 66, 100
2, 196608, Note_on_c, 0, 67, 80
2, 196608, Note_on_c, 0, 79, 80
2, 196892, Note_off_c, 0, 67, 100
2, 196892, Note_off_c, 0, 79, 100
2, 196896, Note_on_c, 0, 66, 80
2, 196896, Note_on_c, 0, 54, 80
2, 196988, Note_off_c, 0, 66, 100
2, 196988, Note_off_c, 0, 54, 100
2, 196992, Note_on_c, 0, 66, 80
2, 196992, Note_on_c, 0, 54, 80
2, 197180, Note_off_c, 0, 66, 100
2, 197180, Note_off_c, 0, 54, 100
2, 197184, Note_on_c, 0, 69, 80
2, 197184, Note_on_c, 0, 57, 80
2, 197372, Note_off_c, 0, 69, 100
2, 197372, Note_off_c, 0, 57, 100
2, 197376, Note_on_c, 0, 69, 80
2, 197376, Note_on_c, 0, 66, 80
2, 197376, Note_on_c, 0, 73, 80
2, 197376, Note_on_c, 0, 61, 80
2, 197564, Note_off_c, 0, 69, 100
2, 197564, Note_off_c, 0, 66, 100
2, 197564, Note_off_c, 0, 73, 100
2, 197564, Note_off_c, 0, 61, 100
2, 197568, Note_on_c, 0, 65, 80
2, 197568, Note_on_c, 0, 61, 80
2, 197568, Note_on_c, 0, 73, 80
2, 197568, Note_on_c, 0, 68, 80
2, 197948, Note_off_c, 0, 65, 100
2, 197948, Note_off_c, 0, 61, 100
2, 197948, Note_off_c, 0, 73, 100
2, 197948, Note_off_c, 0, 68, 100
2, 197952, Note_on_c, 0, 73, 80
2, 197952, Note_on_c, 0, 61, 80
2, 197952, Note_on_c, 0, 69, 80
2, 197952, Note_on_c, 0, 66, 80
2, 198140, Note_off_c, 0, 73, 100
2, 198140, Note_off_c, 0, 61, 100
2, 198140, Note_off_c, 0, 69, 100
2, 198140, Note_off_c, 0, 66, 100
2, 198144, Note_on_c, 0, 73, 80
2, 198144, Note_on_c, 0, 69, 80
2, 198144, Note_on_c, 0, 61, 80
2, 198332, Note_off_c, 0, 73, 100
2, 198332, Note_off_c, 0, 69, 100
2, 198332, Note_off_c, 0, 61, 100
2, 198336, Note_on_c, 0, 74, 80
2, 198336, Note_on_c, 0, 67, 80
2, 198336, Note_on_c, 0, 62, 80
2, 198524, Note_off_c, 0, 74, 100
2, 198524, Note_off_c, 0, 67, 100
2, 198524, Note_off_c, 0, 62, 100
2, 198528, Note_on_c, 0, 67, 80
2, 198528, Note_on_c, 0, 55, 80
2, 198716, Note_off_c, 0, 67, 100
2, 198716, Note_off_c, 0, 55, 100
2, 198720, Note_on_c, 0, 71, 80
2, 198720, Note_on_c, 0, 59, 80
2, 198908, Note_off_c, 0, 71, 100
2, 198908, Note_off_c, 0, 59, 100
2, 198912, Note_on_c, 0, 61, 80
2, 198912, Note_on_c, 0, 49, 80
2, 199100, Note_off_c, 0, 61, 100
2, 199100, Note_off_c, 0, 49, 100
2, 199104, Note_on_c, 0, 65, 80
2, 199104, Note_on_c, 0, 53, 80
2, 199196, Note_off_c, 0, 65, 100
2, 199196, Note_off_c, 0, 53, 100
2, 199200, Note_on_c, 0, 66, 80
2, 199200, Note_on_c, 0, 54, 80
2, 199292, Note_off_c, 0, 66, 100
2, 199292, Note_off_c, 0, 54, 100
2, 199296, Note_on_c, 0, 66, 80
2, 199296, Note_on_c, 0, 64, 80
2, 199296, Note_on_c, 0, 58, 80
2, 199296, Note_on_c, 0, 54, 80
2, 199484, Note_off_c, 0, 66, 100
2, 199580, Note_off_c, 0, 64, 100
2, 199580, Note_off_c, 0, 58, 100
2, 199580, Note_off_c, 0, 54, 100
2, 199584, Note_on_c, 0, 66, 80
2, 199680, Note_on_c, 0, 78, 80
2, 199772, Note_off_c, 0, 66, 100
2, 199776, Note_on_c, 0, 66, 80
2, 199868, Note_off_c, 0, 78, 100
2, 199872, Note_on_c, 0, 78, 80
2, 199964, Note_off_c, 0, 66, 100
2, 199968, Note_on_c, 0, 66, 80
2, 200156, Note_off_c, 0, 66, 100
2, 200160, Note_on_c, 0, 66, 80
2, 200252, Note_off_c, 0, 78, 100
2, 200256, Note_on_c, 0, 73, 80
2, 200348, Note_off_c, 0, 66, 100
2, 200352, Note_on_c, 0, 66, 80
2, 200444, Note_off_c, 0, 73, 100
2, 200448, Note_on_c, 0, 76, 80
2, 200540, Note_off_c, 0, 66, 100
2, 200544, Note_on_c, 0, 66, 80
2, 200636, Note_off_c, 0, 76, 100
2, 200640, Note_on_c, 0, 74, 80
2, 200732, Note_off_c, 0, 66, 100
2, 200736, Note_on_c, 0, 68, 80
2, 200736, Note_on_c, 0, 65, 80
2, 200736, Note_on_c, 0, 62, 80
2, 200828, Note_off_c, 0, 74, 100
2, 200832, Note_on_c, 0, 71, 80
2, 200924, Note_off_c, 0, 68, 100
2, 200924, Note_off_c, 0, 65, 100
2, 200924, Note_off_c, 0, 62, 100
2, 200928, Note_on_c, 0, 68, 80
2, 200928, Note_on_c, 0, 65, 80
2, 200928, Note_on_c, 0, 62, 80
2, 201020, Note_off_c, 0, 71, 100
2, 201024, Note_on_c, 0, 71, 80
2, 201116, Note_off_c, 0, 68, 100
2, 201116, Note_off_c, 0, 65, 100
2, 201116, Note_off_c, 0, 62, 100
2, 201120, Note_on_c, 0, 68, 80
2, 201120, Note_on_c, 0, 65, 80
2, 201120, Note_on_c, 0, 62, 80
2, 201212, Note_off_c, 0, 71, 100
2, 201216, Note_on_c, 0, 74, 80
2, 201308, Note_off_c, 0, 68, 100
2, 201308, Note_off_c, 0, 65, 100
2, 201308, Note_off_c, 0, 62, 100
2, 201312, Note_on_c, 0, 68, 80
2, 201312, Note_on_c, 0, 65, 80
2, 201312, Note_on_c, 0, 62, 80
2, 201404, Note_off_c, 0, 74, 100
2, 201408, Note_on_c, 0, 71, 80
2, 201500, Note_off_c, 0, 68, 100
2, 201500, Note_off_c, 0, 65, 100
2, 201500, Note_off_c, 0, 62, 100
2, 201504, Note_on_c, 0, 68, 80
2, 201504, Note_on_c, 0, 65, 80
2, 201504, Note_on_c, 0, 62, 80
2, 201596, Note_off_c, 0, 71, 100
2, 201596, Note_off_c, 0, 68, 100
2, 201596, Note_off_c, 0, 65, 100
2, 201596, Note_off_c, 0, 62, 100
2, 201600, Note_on_c, 0, 70, 80
2, 201600, Note_on_c, 0, 66, 80
2, 201600, Note_on_c, 0, 61, 80
2, 201660, Note_off_c, 0, 70, 100
2, 201664, Note_on_c, 0, 78, 81
2, 201724, Note_off_c, 0, 78, 100
2, 201728, Note_on_c, 0, 73, 83
2, 201788, Note_off_c, 0, 66, 100
2, 201788, Note_off_c, 0, 61, 100
2, 201788, Note_off_c, 0, 73, 100
2, 201792, Note_on_c, 0, 82, 85
2, 201852, Note_off_c, 0, 82, 100
2, 201856, Note_on_c, 0, 78, 86
2, 201916, Note_off_c, 0, 78, 100
2, 201920, Note_on_c, 0, 85, 88
2, 201980, Note_off_c, 0, 85, 100
2, 201984, Note_on_c, 0, 78, 90
2, 202044, Note_off_c, 0, 78, 100
2, 202048, Note_on_c, 0, 91, 92
2, 202108, Note_off_c, 0, 91, 100
2, 202112, Note_on_c, 0, 90, 93
2, 202172, Note_off_c, 0, 90, 100
2, 202176, Note_on_c, 0, 89, 95
2, 202236, Note_off_c, 0, 89, 100
2, 202240, Note_on_c, 0, 90, 97
2, 202300, Note_off_c, 0, 90, 100
2, 202304, Note_on_c, 0, 88, 98
2, 202428, Note_off_c, 0, 88, 100
2, 202432, Note_on_c, 0, 85, 102
2, 202492, Note_off_c, 0, 85, 100
2, 202496, Note_on_c, 0, 82, 104
2, 202556, Note_off_c, 0, 82, 100
2, 202560, Note_on_c, 0, 79, 105
2, 202560, Note_on_c, 0, 73, 105
2, 202620, Note_off_c, 0, 79, 100
2, 202624, Note_on_c, 0, 78, 107
2, 202684, Note_off_c, 0, 78, 100
2, 202688, Note_on_c, 0, 76, 109
2, 202748, Note_off_c, 0, 73, 100
2, 202812, Note_off_c, 0, 76, 100
2, 202816, Note_on_c, 0, 73, 110
2, 202876, Note_off_c, 0, 73, 100
2, 202880, Note_on_c, 0, 74, 110
2, 202940, Note_off_c, 0, 74, 100
2, 202944, Note_on_c, 0, 83, 110
2, 203004, Note_off_c, 0, 83, 100
2, 203008, Note_on_c, 0, 78, 110
2, 203068, Note_off_c, 0, 78, 100
2, 203072, Note_on_c, 0, 86, 110
2, 203196, Note_off_c, 0, 86, 100
2, 203200, Note_on_c, 0, 85, 110
2, 203260, Note_off_c, 0, 85, 100
2, 203264, Note_on_c, 0, 83, 110
2, 203324, Note_off_c, 0, 83, 100
2, 203328, Control_c, 0, 64, 127
2, 203328, Note_on_c, 0, 74, 110
2, 203328, Note_on_c, 0, 77, 110
2, 203328, Note_on_c, 0, 83, 110
2, 203328, Note_on_c, 0, 71, 110
2, 203328, Note_on_c, 0, 80, 110
2, 203708, Note_off_c, 0, 74, 100
2, 203708, Note_off_c, 0, 77, 100
2, 203708, Note_off_c, 0, 83, 100
2, 203708, Note_off_c, 0, 71, 100
2, 203708, Note_off_c, 0, 80, 100
2, 203712, Note_on_c, 0, 83, 96
2, 203712, Note_on_c, 0, 80, 96
2, 203712, Note_on_c, 0, 77, 96
2, 203712, Note_on_c, 0, 74, 96
2, 203712, Note_on_c, 0, 71, 96
2, 203900, Note_off_c, 0, 83, 100
2, 203900, Note_off_c, 0, 80, 100
2, 203900, Note_off_c, 0, 77, 100
2, 203900, Note_off_c, 0, 74, 100
2, 203900, Note_off_c, 0, 71, 100
2, 203900, Control_c, 0, 64, 0
2, 203904, Control_c, 0, 64, 127
2, 203904, Note_on_c, 0, 82, 80
2, 203904, Note_on_c, 0, 78, 80
2, 203904, Note_on_c, 0, 73, 80
2, 203904, Note_on_c, 0, 70, 80
2, 204860, Note_off_c, 0, 82, 100
2, 204860, Note_off_c, 0, 78, 100
2, 204860, Note_off_c, 0, 73, 100
2, 204860, Note_off_c, 0, 70, 100
2, 204864, Note_on_c, 0, 82, 76
2, 204864, Note_on_c, 0, 78, 76
2, 204864, Note_on_c, 0, 73, 76
2, 204864, Note_on_c, 0, 70, 76
2, 205436, Note_off_c, 0, 70, 100
2, 205436, Note_off_c, 0, 73, 100
2, 205436, Note_off_c, 0, 78, 100
2, 205436, Note_off_c, 0, 82, 100
2, 205440, Note_on_c, 0, 90, 74
2, 205440, Note_on_c, 0, 82, 74
2, 205440, Note_on_c, 0, 78, 74
2, 206012, Note_off_c, 0, 90, 100
2, 206012, Note_off_c, 0, 82, 100
2, 206012, Note_off_c, 0, 78, 100
2, 206016, Note_on_c, 0, 90, 71
2, 206016, Note_on_c, 0, 82, 71
2, 206016, Note_on_c, 0, 78, 71
2, 206396, Note_off_c, 0, 78, 100
2, 206396, Note_off_c, 0, 82, 100
2, 206396, Note_off_c, 0, 90, 100
2, 206400, Note_on_c, 0, 94, 70
2, 206400, Note_on_c, 0, 85, 70
2, 206400, Note_on_c, 0, 82, 70
2, 207164, Note_off_c, 0, 94, 100
2, 207164, Note_off_c, 0, 85, 100
2, 207164, Note_off_c, 0, 82, 100
2, 207168, Note_on_c, 0, 73, 70
2, 207356, Note_off_c, 0, 73, 100
2, 207356, Control_c, 0, 64, 0
2, 207360, Note_on_c, 0, 73, 70
2, 207740, Note_off_c, 0, 73, 100
2, 207744, Note_on_c, 0, 69, 70
2, 207932, Note_off_c, 0, 69, 100
2, 207936, Note_on_c, 0, 69, 70
2, 208124, Note_off_c, 0, 69, 100
2, 208128, Note_on_c, 0, 66, 70
2, 208316, Note_off_c, 0, 66, 100
2, 208320, Note_on_c, 0, 68, 70
2, 208320, Note_on_c, 0, 65, 70
2, 208320, Note_on_c, 0, 61, 70
2, 208508, Note_off_c, 0, 68, 100
2, 208508, Note_off_c, 0, 65, 100
2, 208508, Note_off_c, 0, 61, 100
2, 208512, Note_on_c, 0, 69, 70
2, 208512, Note_on_c, 0, 66, 70
2, 208512, Note_on_c, 0, 61, 70
2, 208892, Note_off_c, 0, 69, 100
2, 208892, Note_off_c, 0, 66, 100
2, 208892, Note_off_c, 0, 61, 100
2, 208896, Note_on_c, 0, 70, 70
2, 208896, Note_on_c, 0, 66, 70
2, 208896, Note_on_c, 0, 61, 70
2, 208896, Note_on_c, 0, 58, 70
2, 209084, Note_off_c, 0, 70, 100
2, 209084, Note_off_c, 0, 66, 100
2, 209084, Note_off_c, 0, 61, 100
2, 209084, Note_off_c, 0, 58, 100
2, 209088, Note_on_c, 0, 66, 70
2, 209088, Note_on_c, 0, 62, 70
2, 209088, Note_on_c, 0, 59, 70
2, 209088, Note_on_c, 0, 71, 70
2, 209468, Note_off_c, 0, 66, 100
2, 209468, Note_off_c, 0, 62, 100
2, 209468, Note_off_c, 0, 59, 100
2, 209468, Note_off_c, 0, 71, 100
2, 209472, Note_on_c, 0, 73, 70
2, 209472, Note_on_c, 0, 70, 70
2, 209472, Note_on_c, 0, 66, 70
2, 209472, Note_on_c, 0, 61, 70
2, 209660, Note_off_c, 0, 73, 100
2, 209660, Note_off_c, 0, 70, 100
2, 209660, Note_off_c, 0, 66, 100
2, 209660, Note_off_c, 0, 61, 100
2, 209664, Note_on_c, 0, 74, 70
2, 209664, Note_on_c, 0, 71, 70
2, 209664, Note_on_c, 0, 66, 70
2, 209664, Note_on_c, 0, 62, 70
2, 209852, Note_off_c, 0, 74, 100
2, 209852, Note_off_c, 0, 71, 100
2, 209852, Note_off_c, 0, 66, 100
2, 209852, Note_off_c, 0, 62, 100
2, 209856, Note_on_c, 0, 74, 70
2, 209856, Note_on_c, 0, 71, 70
2, 209856, Note_on_c, 0, 68, 70
2, 209856, Note_on_c, 0, 62, 70
2, 210236, Note_off_c, 0, 74, 100
2, 210236, Note_off_c, 0, 71, 100
2, 210236, Note_off_c, 0, 68, 100
2, 210236, Note_off_c, 0, 62, 100
2, 210240, Note_on_c, 0, 74, 70
2, 210240, Note_on_c, 0, 71, 70
2, 210240, Note_on_c, 0, 68, 70
2, 210240, Note_on_c, 0, 62, 70
2, 210620, Note_off_c, 0, 74, 100
2, 210620, Note_off_c, 0, 71, 100
2, 210620, Note_off_c, 0, 68, 100
2, 210620, Note_off_c, 0, 62, 100
2, 210624, Note_on_c, 0, 74, 70
2, 210624, Note_on_c, 0, 71, 70
2, 210624, Note_on_c, 0, 68, 70
2, 210624, Note_on_c, 0, 62, 70
2, 210716, Note_off_c, 0, 74, 100
2, 210716, Note_off_c, 0, 71, 100
2, 210716, Note_off_c, 0, 68, 100
2, 210716, Note_off_c, 0, 62, 100
2, 210720, Note_on_c, 0, 73, 70
2, 210720, Note_on_c, 0, 70, 70
2, 210720, Note_on_c, 0, 61, 70
2, 210812, Note_off_c, 0, 73, 100
2, 210812, Note_off_c, 0, 70, 100
2, 210812, Note_off_c, 0, 61, 100
2, 210816, Control_c, 0, 64, 127
2, 210816, Note_on_c, 0, 73, 70
2, 210816, Note_on_c, 0, 70, 70
2, 210816, Note_on_c, 0, 61, 70
2, 211964, Note_off_c, 0, 73, 100
2, 211964, Note_off_c, 0, 70, 100
2, 211964, Note_off_c, 0, 61, 100
2, 211968, Note_on_c, 0, 85, 70
2, 211968, Note_on_c, 0, 78, 70
2, 211968, Note_on_c, 0, 70, 70
2, 213116, Note_off_c, 0, 85, 100
2, 213116, Note_off_c, 0, 78, 100
2, 213116, Note_off_c, 0, 70, 100
2, 213120, Note_on_c, 0, 85, 70
2, 213120, Note_on_c, 0, 78, 70
2, 213120, Note_on_c, 0, 70, 70
2, 213692, Note_off_c, 0, 85, 100
2, 213692, Note_off_c, 0, 78, 100
2, 213692, Note_off_c, 0, 70, 100
2, 213696, Note_on_c, 0, 73, 70
2, 213696, Note_on_c, 0, 66, 70
2, 213696, Note_on_c, 0, 58, 70
2, 214268, Note_off_c, 0, 73, 100
2, 214268, Note_off_c, 0, 66, 100
2, 214268, Note_off_c, 0, 58, 100
2, 214560, Note_on_c, 0, 58, 60
2, 214656, Note_on_c, 0, 66, 60
2, 214752, Note_on_c, 0, 73, 60
2, 215612, Note_off_c, 0, 58, 100
2, 215612, Note_off_c, 0, 66, 100
2, 215612, Note_off_c, 0, 73, 100
2, 215804, Control_c, 0, 64, 0
2, 216576, Control_c, 0, 7, 0
2, 216768, Note_on_c, 0, 66, 1
2, 216956, Note_off_c, 0, 66, 100
2, 216956, End_track
3, 0, Start_track
3, 0, Title_t, "Left"
3, 0, Control_c, 1, 0, 0
3, 0, Program_c, 1, 0
3, 0, Control_c, 1, 7, 100
3, 0, Control_c, 1, 10, 54
3, 0, Control_c, 1, 91, 127
3, 0, Key_signature, 3, "minor"
3, 0, Note_on_c, 1, 45, 80
3, 0, Note_on_c, 1, 33, 80
3, 572, Note_off_c, 1, 45, 100
3, 572, Note_off_c, 1, 33, 100
3, 576, Note_on_c, 1, 49, 80
3, 576, Note_on_c, 1, 37, 80
3, 1148, Note_off_c, 1, 49, 100
3, 1148, Note_off_c, 1, 37, 100
3, 1152, Note_on_c, 1, 54, 80
3, 1152, Note_on_c, 1, 49, 80
3, 1152, Note_on_c, 1, 42, 80
3, 1724, Note_off_c, 1, 54, 100
3, 1724, Note_off_c, 1, 49, 100
3, 1724, Note_off_c, 1, 42, 100
3, 1728, Note_on_c, 1, 54, 80
3, 1728, Note_on_c, 1, 49, 80
3, 1728, Note_on_c, 1, 42, 80
3, 1916, Note_off_c, 1, 54, 100
3, 1916, Note_off_c, 1, 49, 100
3, 1916, Note_off_c, 1, 42, 100
3, 1920, Note_on_c, 1, 57, 80
3, 1920, Note_on_c, 1, 49, 80
3, 1920, Note_on_c, 1, 45, 80
3, 2108, Note_off_c, 1, 57, 100
3, 2108, Note_off_c, 1, 49, 100
3, 2108, Note_off_c, 1, 45, 100
3, 2112, Note_on_c, 1, 56, 80
3, 2112, Note_on_c, 1, 49, 80
3, 2112, Note_on_c, 1, 44, 80
3, 2300, Note_off_c, 1, 56, 100
3, 2300, Note_off_c, 1, 49, 100
3, 2300, Note_off_c, 1, 44, 100
3, 2304, Note_on_c, 1, 54, 80
3, 2304, Note_on_c, 1, 49, 80
3, 2304, Note_on_c, 1, 42, 80
3, 2876, Note_off_c, 1, 54, 100
3, 2876, Note_off_c, 1, 49, 100
3, 2876, Note_off_c, 1, 42, 100
3, 2880, Note_on_c, 1, 50, 80
3, 2880, Note_on_c, 1, 38, 80
3, 3260, Note_off_c, 1, 50, 100
3, 3260, Note_off_c, 1, 38, 100
3, 3264, Note_on_c, 1, 47, 80
3, 3264, Note_on_c, 1, 35, 80
3, 3452, Note_off_c, 1, 47, 100
3, 3452, Note_off_c, 1, 35, 100
3, 3456, Note_on_c, 1, 47, 80
3, 3456, Note_on_c, 1, 35, 80
3, 3836, Note_off_c, 1, 47, 100
3, 3836, Note_off_c, 1, 35, 100
3, 3840, Note_on_c, 1, 45, 80
3, 3840, Note_on_c, 1, 33, 80
3, 4028, Note_off_c, 1, 45, 100
3, 4028, Note_off_c, 1, 33, 100
3, 4032, Note_on_c, 1, 45, 80
3, 4032, Note_on_c, 1, 33, 80
3, 4220, Note_off_c, 1, 45, 100
3, 4220, Note_off_c, 1, 33, 100
3, 4224, Note_on_c, 1, 44, 80
3, 4224, Note_on_c, 1, 32, 80
3, 4412, Note_off_c, 1, 44, 100
3, 4412, Note_off_c, 1, 32, 100
3, 4416, Note_on_c, 1, 42, 80
3, 4416, Note_on_c, 1, 30, 80
3, 4604, Note_off_c, 1, 42, 100
3, 4604, Note_off_c, 1, 30, 100
3, 4608, Note_on_c, 1, 41, 80
3, 4608, Note_on_c, 1, 29, 80
3, 5180, Note_off_c, 1, 41, 100
3, 5180, Note_off_c, 1, 29, 100
3, 5184, Control_c, 1, 64, 127
3, 5184, Note_on_c, 1, 62, 80
3, 5184, Note_on_c, 1, 59, 80
3, 5184, Note_on_c, 1, 56, 80
3, 5184, Note_on_c, 1, 53, 80
3, 5756, Note_off_c, 1, 62, 100
3, 5756, Note_off_c, 1, 59, 100
3, 5756, Note_off_c, 1, 56, 100
3, 5756, Note_off_c, 1, 53, 100
3, 5760, Note_on_c, 1, 40, 80
3, 5760, Note_on_c, 1, 28, 80
3, 6140, Control_c, 1, 64, 0
3, 6332, Note_off_c, 1, 40, 100
3, 6332, Note_off_c, 1, 28, 100
3, 6336, Note_on_c, 1, 42, 80
3, 6336, Note_on_c, 1, 30, 80
3, 6716, Note_off_c, 1, 42, 100
3, 6716, Note_off_c, 1, 30, 100
3, 6720, Note_on_c, 1, 44, 80
3, 6720, Note_on_c, 1, 32, 80
3, 6908, Note_off_c, 1, 44, 100
3, 6908, Note_off_c, 1, 32, 100
3, 6912, Note_on_c, 1, 44, 80
3, 6912, Note_on_c, 1, 32, 80
3, 7484, Note_off_c, 1, 44, 100
3, 7484, Note_off_c, 1, 32, 100
3, 7488, Note_on_c, 1, 44, 80
3, 7488, Note_on_c, 1, 32, 80
3, 7676, Note_off_c, 1, 44, 100
3, 7676, Note_off_c, 1, 32, 100
3, 7680, Note_on_c, 1, 45, 80
3, 7680, Note_on_c, 1, 33, 80
3, 7868, Note_off_c, 1, 45, 100
3, 7868, Note_off_c, 1, 33, 100
3, 7872, Note_on_c, 1, 47, 80
3, 7872, Note_on_c, 1, 35, 80
3, 8060, Note_off_c, 1, 47, 100
3, 8060, Note_off_c, 1, 35, 100
3, 8064, Note_on_c, 1, 48, 80
3, 8064, Note_on_c, 1, 36, 80
3, 8444, Note_off_c, 1, 48, 100
3, 8444, Note_off_c, 1, 36, 100
3, 8448, Note_on_c, 1, 48, 80
3, 8448, Note_on_c, 1, 36, 80
3, 8636, Note_off_c, 1, 48, 100
3, 8636, Note_off_c, 1, 36, 100
3, 8640, Note_on_c, 1, 48, 80
3, 8640, Note_on_c, 1, 36, 80
3, 8828, Note_off_c, 1, 48, 100
3, 8828, Note_off_c, 1, 36, 100
3, 8832, Note_on_c, 1, 48, 80
3, 8832, Note_on_c, 1, 36, 80
3, 9020, Note_off_c, 1, 48, 100
3, 9020, Note_off_c, 1, 36, 100
3, 9024, Note_on_c, 1, 48, 80
3, 9024, Note_on_c, 1, 36, 80
3, 9212, Note_off_c, 1, 48, 100
3, 9212, Note_off_c, 1, 36, 100
3, 9216, Note_on_c, 1, 49, 80
3, 9216, Note_on_c, 1, 37, 80
3, 9788, Note_off_c, 1, 49, 100
3, 9788, Note_off_c, 1, 37, 100
3, 9792, Note_on_c, 1, 49, 82
3, 9792, Note_on_c, 1, 37, 82
3, 9980, Note_off_c, 1, 49, 100
3, 9980, Note_off_c, 1, 37, 100
3, 9984, Note_on_c, 1, 56, 83
3, 9984, Note_on_c, 1, 53, 83
3, 9984, Note_on_c, 1, 49, 83
3, 10172, Note_off_c, 1, 56, 100
3, 10172, Note_off_c, 1, 53, 100
3, 10172, Note_off_c, 1, 49, 100
3, 10176, Note_on_c, 1, 59, 84
3, 10176, Note_on_c, 1, 56, 84
3, 10176, Note_on_c, 1, 49, 84
3, 10364, Note_off_c, 1, 59, 100
3, 10364, Note_off_c, 1, 56, 100
3, 10364, Note_off_c, 1, 49, 100
3, 10368, Note_on_c, 1, 59, 85
3, 10368, Note_on_c, 1, 49, 85
3, 10748, Note_off_c, 1, 59, 100
3, 10748, Note_off_c, 1, 49, 100
3, 10752, Note_on_c, 1, 57, 86
3, 10752, Note_on_c, 1, 49, 86
3, 10940, Note_off_c, 1, 57, 100
3, 10940, Note_off_c, 1, 49, 100
3, 10944, Note_on_c, 1, 57, 87
3, 10944, Note_on_c, 1, 49, 87
3, 11132, Note_off_c, 1, 57, 100
3, 11132, Note_off_c, 1, 49, 100
3, 11136, Note_on_c, 1, 56, 88
3, 11136, Note_on_c, 1, 49, 88
3, 11324, Note_off_c, 1, 56, 100
3, 11324, Note_off_c, 1, 49, 100
3, 11328, Note_on_c, 1, 54, 89
3, 11328, Note_on_c, 1, 49, 89
3, 11516, Note_off_c, 1, 54, 100
3, 11516, Note_off_c, 1, 49, 100
3, 11520, Note_on_c, 1, 54, 90
3, 11520, Note_on_c, 1, 49, 90
3, 11900, Note_off_c, 1, 54, 100
3, 11900, Note_off_c, 1, 49, 100
3, 11904, Note_on_c, 1, 53, 91
3, 11904, Note_on_c, 1, 49, 91
3, 12092, Note_off_c, 1, 53, 100
3, 12092, Note_off_c, 1, 49, 100
3, 12096, Note_on_c, 1, 49, 92
3, 12096, Note_on_c, 1, 53, 92
3, 12284, Note_off_c, 1, 53, 100
3, 12288, Note_on_c, 1, 56, 93
3, 12476, Note_off_c, 1, 49, 100
3, 12476, Note_off_c, 1, 56, 100
3, 12480, Note_on_c, 1, 56, 94
3, 12480, Note_on_c, 1, 49, 94
3, 12480, Note_on_c, 1, 59, 94
3, 12572, Note_off_c, 1, 59, 100
3, 12576, Note_on_c, 1, 62, 94
3, 12668, Note_off_c, 1, 56, 100
3, 12668, Note_off_c, 1, 49, 100
3, 12668, Note_off_c, 1, 62, 100
3, 12672, Note_on_c, 1, 62, 95
3, 12672, Note_on_c, 1, 59, 95
3, 12672, Note_on_c, 1, 49, 95
3, 13052, Note_off_c, 1, 62, 100
3, 13052, Note_off_c, 1, 59, 100
3, 13052, Note_off_c, 1, 49, 100
3, 13056, Note_on_c, 1, 61, 86
3, 13056, Note_on_c, 1, 57, 86
3, 13056, Note_on_c, 1, 49, 86
3, 13244, Note_off_c, 1, 61, 100
3, 13244, Note_off_c, 1, 57, 100
3, 13244, Note_off_c, 1, 49, 100
3, 13248, Note_on_c, 1, 61, 80
3, 13248, Note_on_c, 1, 57, 80
3, 13248, Note_on_c, 1, 49, 80
3, 13436, Note_off_c, 1, 61, 100
3, 13436, Note_off_c, 1, 57, 100
3, 13436, Note_off_c, 1, 49, 100
3, 13440, Note_on_c, 1, 59, 80
3, 13440, Note_on_c, 1, 56, 80
3, 13440, Note_on_c, 1, 49, 80
3, 13628, Note_off_c, 1, 59, 100
3, 13628, Note_off_c, 1, 56, 100
3, 13628, Note_off_c, 1, 49, 100
3, 13632, Note_on_c, 1, 57, 80
3, 13632, Note_on_c, 1, 54, 80
3, 13632, Note_on_c, 1, 49, 80
3, 13820, Note_off_c, 1, 57, 100
3, 13820, Note_off_c, 1, 54, 100
3, 13820, Note_off_c, 1, 49, 100
3, 13824, Note_on_c, 1, 57, 80
3, 13824, Note_on_c, 1, 54, 80
3, 13824, Note_on_c, 1, 49, 80
3, 14204, Note_off_c, 1, 57, 100
3, 14204, Note_off_c, 1, 54, 100
3, 14204, Note_off_c, 1, 49, 100
3, 14208, Note_on_c, 1, 56, 80
3, 14208, Note_on_c, 1, 53, 80
3, 14208, Note_on_c, 1, 49, 80
3, 14396, Note_off_c, 1, 56, 100
3, 14396, Note_off_c, 1, 53, 100
3, 14396, Note_off_c, 1, 49, 100
3, 14400, Note_on_c, 1, 56, 80
3, 14400, Note_on_c, 1, 53, 80
3, 14400, Note_on_c, 1, 49, 80
3, 14780, Note_off_c, 1, 56, 100
3, 14780, Note_off_c, 1, 53, 100
3, 14780, Note_off_c, 1, 49, 100
3, 14784, Note_on_c, 1, 58, 80
3, 14784, Note_on_c, 1, 55, 80
3, 14784, Note_on_c, 1, 52, 80
3, 14784, Note_on_c, 1, 49, 80
3, 14972, Note_off_c, 1, 58, 100
3, 14972, Note_off_c, 1, 55, 100
3, 14972, Note_off_c, 1, 52, 100
3, 14972, Note_off_c, 1, 49, 100
3, 14976, Note_on_c, 1, 59, 80
3, 14976, Note_on_c, 1, 55, 80
3, 14976, Note_on_c, 1, 50, 80
3, 15548, Note_off_c, 1, 59, 100
3, 15548, Note_off_c, 1, 55, 100
3, 15548, Note_off_c, 1, 50, 100
3, 15552, Note_on_c, 1, 59, 80
3, 15552, Note_on_c, 1, 55, 80
3, 15552, Note_on_c, 1, 62, 80
3, 15932, Note_off_c, 1, 62, 100
3, 15936, Note_on_c, 1, 62, 90
3, 16124, Note_off_c, 1, 59, 100
3, 16124, Note_off_c, 1, 55, 100
3, 16124, Note_off_c, 1, 62, 100
3, 16128, Note_on_c, 1, 64, 90
3, 16128, Note_on_c, 1, 60, 90
3, 16700, Note_off_c, 1, 64, 100
3, 16700, Note_off_c, 1, 60, 100
3, 16704, Note_on_c, 1, 62, 80
3, 16704, Note_on_c, 1, 59, 80
3, 17084, Note_off_c, 1, 62, 100
3, 17084, Note_off_c, 1, 59, 100
3, 17088, Note_on_c, 1, 62, 80
3, 17276, Note_off_c, 1, 62, 100
3, 17280, Note_on_c, 1, 62, 80
3, 17468, Note_off_c, 1, 62, 100
3, 17472, Note_on_c, 1, 61, 80
3, 17660, Note_off_c, 1, 61, 100
3, 17664, Note_on_c, 1, 61, 80
3, 17664, Note_on_c, 1, 57, 80
3, 17664, Note_on_c, 1, 54, 80
3, 17664, Note_on_c, 1, 49, 80
3, 17852, Note_off_c, 1, 61, 100
3, 17852, Note_off_c, 1, 57, 100
3, 17852, Note_off_c, 1, 54, 100
3, 17852, Note_off_c, 1, 49, 100
3, 17856, Note_on_c, 1, 61, 80
3, 17856, Note_on_c, 1, 56, 80
3, 17856, Note_on_c, 1, 53, 80
3, 17856, Note_on_c, 1, 49, 80
3, 18236, Note_off_c, 1, 61, 100
3, 18236, Note_off_c, 1, 56, 100
3, 18236, Note_off_c, 1, 53, 100
3, 18236, Note_off_c, 1, 49, 100
3, 18240, Note_on_c, 1, 61, 80
3, 18240, Note_on_c, 1, 56, 80
3, 18240, Note_on_c, 1, 53, 80
3, 18240, Note_on_c, 1, 49, 80
3, 18428, Note_off_c, 1, 61, 100
3, 18428, Note_off_c, 1, 56, 100
3, 18428, Note_off_c, 1, 53, 100
3, 18428, Note_off_c, 1, 49, 100
3, 18432, Note_on_c, 1, 61, 80
3, 18432, Note_on_c, 1, 56, 80
3, 18432, Note_on_c, 1, 53, 80
3, 18432, Note_on_c, 1, 49, 80
3, 18812, Note_off_c, 1, 61, 100
3, 18812, Note_off_c, 1, 56, 100
3, 18812, Note_off_c, 1, 53, 100
3, 18812, Note_off_c, 1, 49, 100
3, 18816, Note_on_c, 1, 61, 80
3, 18816, Note_on_c, 1, 57, 80
3, 18816, Note_on_c, 1, 54, 80
3, 19004, Note_off_c, 1, 61, 100
3, 19004, Note_off_c, 1, 57, 100
3, 19004, Note_off_c, 1, 54, 100
3, 19008, Note_on_c, 1, 61, 80
3, 19008, Note_on_c, 1, 57, 80
3, 19008, Note_on_c, 1, 54, 80
3, 19196, Note_off_c, 1, 61, 100
3, 19196, Note_off_c, 1, 57, 100
3, 19196, Note_off_c, 1, 54, 100
3, 19200, Note_on_c, 1, 57, 80
3, 19388, Note_off_c, 1, 57, 100
3, 19392, Note_on_c, 1, 59, 80
3, 19392, Note_on_c, 1, 56, 80
3, 19484, Note_off_c, 1, 59, 100
3, 19484, Note_off_c, 1, 56, 100
3, 19488, Note_on_c, 1, 57, 80
3, 19488, Note_on_c, 1, 54, 80
3, 19580, Note_off_c, 1, 57, 100
3, 19580, Note_off_c, 1, 54, 100
3, 19584, Note_on_c, 1, 37, 80
3, 19776, Note_on_c, 1, 41, 80
3, 19964, Note_off_c, 1, 41, 100
3, 19968, Note_on_c, 1, 42, 82
3, 20156, Note_off_c, 1, 42, 100
3, 20160, Note_on_c, 1, 44, 84
3, 20444, Note_off_c, 1, 44, 100
3, 20448, Note_on_c, 1, 45, 87
3, 20540, Note_off_c, 1, 45, 100
3, 20544, Note_on_c, 1, 47, 88
3, 20636, Note_off_c, 1, 47, 100
3, 20640, Note_on_c, 1, 48, 89
3, 20732, Note_off_c, 1, 37, 100
3, 20732, Note_off_c, 1, 48, 100
3, 20736, Note_on_c, 1, 49, 80
3, 20736, Note_on_c, 1, 37, 80
3, 21404, Note_off_c, 1, 49, 100
3, 21404, Note_off_c, 1, 37, 100
3, 21408, Note_on_c, 1, 49, 80
3, 21500, Note_off_c, 1, 49, 100
3, 21504, Note_on_c, 1, 53, 80
3, 21596, Note_off_c, 1, 53, 100
3, 21600, Note_on_c, 1, 56, 80
3, 21692, Note_off_c, 1, 56, 100
3, 21696, Note_on_c, 1, 59, 80
3, 21788, Note_off_c, 1, 59, 100
3, 21792, Note_on_c, 1, 62, 80
3, 21884, Note_off_c, 1, 62, 100
3, 21888, Note_on_c, 1, 49, 80
3, 21888, Note_on_c, 1, 37, 80
3, 22076, Note_off_c, 1, 49, 100
3, 22076, Note_off_c, 1, 37, 100
3, 22080, Note_on_c, 1, 53, 80
3, 22080, Note_on_c, 1, 49, 80
3, 22080, Note_on_c, 1, 41, 80
3, 22268, Note_off_c, 1, 53, 100
3, 22268, Note_off_c, 1, 49, 100
3, 22268, Note_off_c, 1, 41, 100
3, 22272, Note_on_c, 1, 54, 80
3, 22272, Note_on_c, 1, 49, 80
3, 22272, Note_on_c, 1, 42, 80
3, 22460, Note_off_c, 1, 54, 100
3, 22460, Note_off_c, 1, 49, 100
3, 22460, Note_off_c, 1, 42, 100
3, 22464, Note_on_c, 1, 56, 80
3, 22464, Note_on_c, 1, 49, 80
3, 22464, Note_on_c, 1, 44, 80
3, 22748, Note_off_c, 1, 56, 100
3, 22748, Note_off_c, 1, 49, 100
3, 22748, Note_off_c, 1, 44, 100
3, 22752, Note_on_c, 1, 57, 80
3, 22752, Note_on_c, 1, 45, 80
3, 22844, Note_off_c, 1, 57, 100
3, 22844, Note_off_c, 1, 45, 100
3, 22848, Note_on_c, 1, 59, 80
3, 22848, Note_on_c, 1, 47, 80
3, 22940, Note_off_c, 1, 59, 100
3, 22940, Note_off_c, 1, 47, 100
3, 22944, Note_on_c, 1, 60, 80
3, 22944, Note_on_c, 1, 48, 80
3, 23036, Note_off_c, 1, 60, 100
3, 23036, Note_off_c, 1, 48, 100
3, 23040, Note_on_c, 1, 49, 80
3, 23232, Note_on_c, 1, 57, 80
3, 23232, Note_on_c, 1, 54, 80
3, 23420, Note_off_c, 1, 49, 100
3, 23420, Note_off_c, 1, 57, 100
3, 23420, Note_off_c, 1, 54, 100
3, 23424, Note_on_c, 1, 56, 80
3, 23424, Note_on_c, 1, 53, 80
3, 23424, Note_on_c, 1, 49, 80
3, 23612, Note_off_c, 1, 56, 100
3, 23612, Note_off_c, 1, 53, 100
3, 23612, Note_off_c, 1, 49, 100
3, 23616, Note_on_c, 1, 56, 80
3, 23616, Note_on_c, 1, 53, 80
3, 23616, Note_on_c, 1, 49, 80
3, 23804, Note_off_c, 1, 56, 100
3, 23804, Note_off_c, 1, 53, 100
3, 23804, Note_off_c, 1, 49, 100
3, 23808, Note_on_c, 1, 58, 80
3, 23808, Note_on_c, 1, 55, 80
3, 23808, Note_on_c, 1, 52, 80
3, 23808, Note_on_c, 1, 49, 80
3, 23996, Note_off_c, 1, 58, 100
3, 23996, Note_off_c, 1, 55, 100
3, 23996, Note_off_c, 1, 52, 100
3, 23996, Note_off_c, 1, 49, 100
3, 24000, Note_on_c, 1, 59, 80
3, 24000, Note_on_c, 1, 55, 80
3, 24000, Note_on_c, 1, 50, 80
3, 24188, Note_off_c, 1, 59, 100
3, 24188, Note_off_c, 1, 55, 100
3, 24188, Note_off_c, 1, 50, 100
3, 24192, Note_on_c, 1, 59, 80
3, 24192, Note_on_c, 1, 50, 80
3, 24192, Note_on_c, 1, 43, 80
3, 24764, Note_off_c, 1, 59, 100
3, 24764, Note_off_c, 1, 50, 100
3, 24764, Note_off_c, 1, 43, 100
3, 24768, Note_on_c, 1, 62, 80
3, 24768, Note_on_c, 1, 55, 80
3, 24768, Note_on_c, 1, 47, 80
3, 25340, Note_off_c, 1, 62, 100
3, 25340, Note_off_c, 1, 55, 100
3, 25340, Note_off_c, 1, 47, 100
3, 25344, Note_on_c, 1, 64, 94
3, 25344, Note_on_c, 1, 55, 94
3, 25344, Note_on_c, 1, 48, 94
3, 25916, Note_off_c, 1, 64, 100
3, 25916, Note_off_c, 1, 55, 100
3, 25916, Note_off_c, 1, 48, 100
3, 25920, Note_on_c, 1, 62, 100
3, 25920, Note_on_c, 1, 55, 100
3, 25920, Note_on_c, 1, 47, 100
3, 26108, Note_off_c, 1, 62, 100
3, 26108, Note_off_c, 1, 55, 100
3, 26112, Note_on_c, 1, 55, 90
3, 26300, Note_off_c, 1, 47, 100
3, 26300, Note_off_c, 1, 55, 100
3, 26304, Note_on_c, 1, 54, 80
3, 26304, Note_on_c, 1, 50, 80
3, 26492, Note_off_c, 1, 54, 100
3, 26492, Note_off_c, 1, 50, 100
3, 26496, Note_on_c, 1, 54, 80
3, 26496, Note_on_c, 1, 50, 80
3, 26684, Note_off_c, 1, 54, 100
3, 26684, Note_off_c, 1, 50, 100
3, 26688, Note_on_c, 1, 57, 80
3, 26688, Note_on_c, 1, 54, 80
3, 26688, Note_on_c, 1, 49, 80
3, 26876, Note_off_c, 1, 57, 100
3, 26876, Note_off_c, 1, 54, 100
3, 26876, Note_off_c, 1, 49, 100
3, 26880, Note_on_c, 1, 61, 80
3, 26880, Note_on_c, 1, 57, 80
3, 26880, Note_on_c, 1, 54, 80
3, 26880, Note_on_c, 1, 49, 80
3, 27068, Note_off_c, 1, 61, 100
3, 27068, Note_off_c, 1, 57, 100
3, 27068, Note_off_c, 1, 54, 100
3, 27068, Note_off_c, 1, 49, 100
3, 27072, Note_on_c, 1, 56, 80
3, 27072, Note_on_c, 1, 53, 80
3, 27072, Note_on_c, 1, 49, 80
3, 27072, Note_on_c, 1, 61, 80
3, 27452, Note_off_c, 1, 56, 100
3, 27452, Note_off_c, 1, 53, 100
3, 27452, Note_off_c, 1, 49, 100
3, 27452, Note_off_c, 1, 61, 100
3, 27456, Note_on_c, 1, 61, 80
3, 27456, Note_on_c, 1, 57, 80
3, 27456, Note_on_c, 1, 54, 80
3, 27644, Note_off_c, 1, 61, 100
3, 27644, Note_off_c, 1, 57, 100
3, 27644, Note_off_c, 1, 54, 100
3, 27648, Note_on_c, 1, 61, 80
3, 27648, Note_on_c, 1, 57, 80
3, 27648, Note_on_c, 1, 54, 80
3, 27836, Note_off_c, 1, 61, 100
3, 27836, Note_off_c, 1, 57, 100
3, 27836, Note_off_c, 1, 54, 100
3, 27840, Note_on_c, 1, 62, 80
3, 27840, Note_on_c, 1, 47, 80
3, 28028, Note_off_c, 1, 62, 100
3, 28032, Note_on_c, 1, 55, 80
3, 28220, Note_off_c, 1, 47, 100
3, 28220, Note_off_c, 1, 55, 100
3, 28224, Note_on_c, 1, 59, 80
3, 28412, Note_off_c, 1, 59, 100
3, 28416, Note_on_c, 1, 49, 80
3, 28416, Note_on_c, 1, 37, 80
3, 28604, Note_off_c, 1, 49, 100
3, 28604, Note_off_c, 1, 37, 100
3, 28608, Note_on_c, 1, 53, 80
3, 28796, Note_off_c, 1, 53, 100
3, 28800, Note_on_c, 1, 54, 80
3, 28800, Note_on_c, 1, 49, 80
3, 28800, Note_on_c, 1, 42, 80
3, 28988, Note_off_c, 1, 54, 100
3, 28988, Note_off_c, 1, 49, 100
3, 28988, Note_off_c, 1, 42, 100
3, 28992, Note_on_c, 1, 49, 80
3, 28992, Note_on_c, 1, 41, 80
3, 29008, Note_on_c, 1, 56, 80
3, 29372, Note_off_c, 1, 49, 100
3, 29372, Note_off_c, 1, 41, 100
3, 29376, Note_on_c, 1, 54, 80
3, 29376, Note_on_c, 1, 49, 80
3, 29376, Note_on_c, 1, 42, 80
3, 29388, Note_off_c, 1, 56, 100
3, 29564, Note_off_c, 1, 54, 100
3, 29564, Note_off_c, 1, 49, 100
3, 29564, Note_off_c, 1, 42, 100
3, 29568, Note_on_c, 1, 57, 80
3, 29568, Note_on_c, 1, 49, 80
3, 29852, Note_off_c, 1, 57, 100
3, 29856, Note_on_c, 1, 53, 80
3, 29948, Note_off_c, 1, 49, 100
3, 29948, Note_off_c, 1, 53, 100
3, 30144, Note_on_c, 1, 42, 70
3, 30236, Note_off_c, 1, 42, 100
3, 30336, Note_on_c, 1, 49, 70
3, 30336, Note_on_c, 1, 54, 70
3, 30336, Note_on_c, 1, 57, 70
3, 30336, Note_on_c, 1, 61, 70
3, 30428, Note_off_c, 1, 49, 100
3, 30428, Note_off_c, 1, 54, 100
3, 30428, Note_off_c, 1, 57, 100
3, 30428, Note_off_c, 1, 61, 100
3, 30528, Note_on_c, 1, 49, 70
3, 30528, Note_on_c, 1, 54, 70
3, 30528, Note_on_c, 1, 57, 70
3, 30528, Note_on_c, 1, 61, 70
3, 30620, Note_off_c, 1, 49, 100
3, 30620, Note_off_c, 1, 54, 100
3, 30620, Note_off_c, 1, 57, 100
3, 30620, Note_off_c, 1, 61, 100
3, 30720, Note_on_c, 1, 42, 70
3, 30812, Note_off_c, 1, 42, 100
3, 30912, Note_on_c, 1, 49, 70
3, 30912, Note_on_c, 1, 54, 70
3, 30912, Note_on_c, 1, 57, 70
3, 30912, Note_on_c, 1, 61, 70
3, 31004, Note_off_c, 1, 49, 100
3, 31004, Note_off_c, 1, 54, 100
3, 31004, Note_off_c, 1, 57, 100
3, 31004, Note_off_c, 1, 61, 100
3, 31104, Note_on_c, 1, 49, 70
3, 31104, Note_on_c, 1, 54, 70
3, 31104, Note_on_c, 1, 57, 70
3, 31104, Note_on_c, 1, 61, 70
3, 31196, Note_off_c, 1, 49, 100
3, 31196, Note_off_c, 1, 54, 100
3, 31196, Note_off_c, 1, 57, 100
3, 31196, Note_off_c, 1, 61, 100
3, 31296, Note_on_c, 1, 42, 70
3, 31388, Note_off_c, 1, 42, 100
3, 31488, Note_on_c, 1, 49, 70
3, 31488, Note_on_c, 1, 54, 70
3, 31488, Note_on_c, 1, 57, 70
3, 31488, Note_on_c, 1, 61, 70
3, 31580, Note_off_c, 1, 49, 100
3, 31580, Note_off_c, 1, 54, 100
3, 31580, Note_off_c, 1, 57, 100
3, 31580, Note_off_c, 1, 61, 100
3, 31680, Note_on_c, 1, 49, 70
3, 31680, Note_on_c, 1, 54, 70
3, 31680, Note_on_c, 1, 57, 70
3, 31680, Note_on_c, 1, 61, 70
3, 31772, Note_off_c, 1, 49, 100
3, 31772, Note_off_c, 1, 54, 100
3, 31772, Note_off_c, 1, 57, 100
3, 31772, Note_off_c, 1, 61, 100
3, 31872, Note_on_c, 1, 42, 70
3, 31964, Note_off_c, 1, 42, 100
3, 32064, Note_on_c, 1, 49, 70
3, 32064, Note_on_c, 1, 54, 70
3, 32064, Note_on_c, 1, 57, 70
3, 32064, Note_on_c, 1, 61, 70
3, 32156, Note_off_c, 1, 49, 100
3, 32156, Note_off_c, 1, 54, 100
3, 32156, Note_off_c, 1, 57, 100
3, 32156, Note_off_c, 1, 61, 100
3, 32256, Note_on_c, 1, 49, 70
3, 32256, Note_on_c, 1, 53, 70
3, 32256, Note_on_c, 1, 56, 70
3, 32256, Note_on_c, 1, 59, 70
3, 32256, Note_on_c, 1, 61, 70
3, 32348, Note_off_c, 1, 49, 100
3, 32348, Note_off_c, 1, 53, 100
3, 32348, Note_off_c, 1, 56, 100
3, 32348, Note_off_c, 1, 59, 100
3, 32348, Note_off_c, 1, 61, 100
3, 32448, Note_on_c, 1, 44, 70
3, 32540, Note_off_c, 1, 44, 100
3, 32640, Note_on_c, 1, 53, 70
3, 32640, Note_on_c, 1, 56, 70
3, 32640, Note_on_c, 1, 59, 70
3, 32640, Note_on_c, 1, 62, 70
3, 32732, Note_off_c, 1, 53, 100
3, 32732, Note_off_c, 1, 56, 100
3, 32732, Note_off_c, 1, 59, 100
3, 32732, Note_off_c, 1, 62, 100
3, 32832, Note_on_c, 1, 53, 70
3, 32832, Note_on_c, 1, 56, 70
3, 32832, Note_on_c, 1, 59, 70
3, 32832, Note_on_c, 1, 62, 70
3, 32924, Note_off_c, 1, 53, 100
3, 32924, Note_off_c, 1, 56, 100
3, 32924, Note_off_c, 1, 59, 100
3, 32924, Note_off_c, 1, 62, 100
3, 33024, Note_on_c, 1, 44, 70
3, 33116, Note_off_c, 1, 44, 100
3, 33216, Note_on_c, 1, 53, 70
3, 33216, Note_on_c, 1, 56, 70
3, 33216, Note_on_c, 1, 59, 70
3, 33216, Note_on_c, 1, 62, 70
3, 33308, Note_off_c, 1, 53, 100
3, 33308, Note_off_c, 1, 56, 100
3, 33308, Note_off_c, 1, 59, 100
3, 33308, Note_off_c, 1, 62, 100
3, 33408, Note_on_c, 1, 49, 70
3, 33408, Note_on_c, 1, 53, 70
3, 33408, Note_on_c, 1, 56, 70
3, 33408, Note_on_c, 1, 59, 70
3, 33408, Note_on_c, 1, 62, 70
3, 33500, Note_off_c, 1, 49, 100
3, 33500, Note_off_c, 1, 53, 100
3, 33500, Note_off_c, 1, 56, 100
3, 33500, Note_off_c, 1, 59, 100
3, 33500, Note_off_c, 1, 62, 100
3, 33600, Note_on_c, 1, 44, 70
3, 33692, Note_off_c, 1, 44, 100
3, 33792, Note_on_c, 1, 53, 70
3, 33792, Note_on_c, 1, 56, 70
3, 33792, Note_on_c, 1, 59, 70
3, 33792, Note_on_c, 1, 62, 70
3, 33884, Note_off_c, 1, 53, 100
3, 33884, Note_off_c, 1, 56, 100
3, 33884, Note_off_c, 1, 59, 100
3, 33884, Note_off_c, 1, 62, 100
3, 33984, Note_on_c, 1, 53, 70
3, 33984, Note_on_c, 1, 56, 70
3, 33984, Note_on_c, 1, 59, 70
3, 33984, Note_on_c, 1, 62, 70
3, 34076, Note_off_c, 1, 53, 100
3, 34076, Note_off_c, 1, 56, 100
3, 34076, Note_off_c, 1, 59, 100
3, 34076, Note_off_c, 1, 62, 100
3, 34176, Note_on_c, 1, 44, 70
3, 34268, Note_off_c, 1, 44, 100
3, 34368, Note_on_c, 1, 53, 70
3, 34368, Note_on_c, 1, 56, 70
3, 34368, Note_on_c, 1, 59, 70
3, 34368, Note_on_c, 1, 61, 70
3, 34460, Note_off_c, 1, 53, 100
3, 34460, Note_off_c, 1, 56, 100
3, 34460, Note_off_c, 1, 59, 100
3, 34460, Note_off_c, 1, 61, 100
3, 34560, Note_on_c, 1, 61, 70
3, 34560, Note_on_c, 1, 57, 70
3, 34560, Note_on_c, 1, 49, 70
3, 34560, Note_on_c, 1, 54, 70
3, 34652, Note_off_c, 1, 61, 100
3, 34652, Note_off_c, 1, 57, 100
3, 34652, Note_off_c, 1, 49, 100
3, 34652, Note_off_c, 1, 54, 100
3, 34752, Note_on_c, 1, 42, 73
3, 34844, Note_off_c, 1, 42, 100
3, 34944, Note_on_c, 1, 61, 77
3, 34944, Note_on_c, 1, 57, 77
3, 34944, Note_on_c, 1, 49, 77
3, 34944, Note_on_c, 1, 54, 77
3, 35036, Note_off_c, 1, 61, 100
3, 35036, Note_off_c, 1, 57, 100
3, 35036, Note_off_c, 1, 49, 100
3, 35036, Note_off_c, 1, 54, 100
3, 35136, Note_on_c, 1, 61, 80
3, 35136, Note_on_c, 1, 57, 80
3, 35136, Note_on_c, 1, 49, 80
3, 35136, Note_on_c, 1, 54, 80
3, 35228, Note_off_c, 1, 61, 100
3, 35228, Note_off_c, 1, 57, 100
3, 35228, Note_off_c, 1, 49, 100
3, 35228, Note_off_c, 1, 54, 100
3, 35328, Note_on_c, 1, 42, 84
3, 35420, Note_off_c, 1, 42, 100
3, 35520, Note_on_c, 1, 61, 87
3, 35520, Note_on_c, 1, 57, 87
3, 35520, Note_on_c, 1, 49, 87
3, 35520, Note_on_c, 1, 54, 87
3, 35612, Note_off_c, 1, 61, 100
3, 35612, Note_off_c, 1, 57, 100
3, 35612, Note_off_c, 1, 49, 100
3, 35612, Note_off_c, 1, 54, 100
3, 35712, Note_on_c, 1, 61, 90
3, 35712, Note_on_c, 1, 59, 90
3, 35712, Note_on_c, 1, 56, 90
3, 35712, Note_on_c, 1, 53, 90
3, 35712, Note_on_c, 1, 49, 90
3, 35804, Note_off_c, 1, 61, 100
3, 35804, Note_off_c, 1, 59, 100
3, 35804, Note_off_c, 1, 56, 100
3, 35804, Note_off_c, 1, 53, 100
3, 35804, Note_off_c, 1, 49, 100
3, 35904, Note_on_c, 1, 44, 90
3, 35996, Note_off_c, 1, 44, 100
3, 36096, Note_on_c, 1, 53, 90
3, 36096, Note_on_c, 1, 56, 90
3, 36096, Note_on_c, 1, 59, 90
3, 36096, Note_on_c, 1, 62, 90
3, 36188, Note_off_c, 1, 53, 100
3, 36188, Note_off_c, 1, 56, 100
3, 36188, Note_off_c, 1, 59, 100
3, 36188, Note_off_c, 1, 62, 100
3, 36288, Note_on_c, 1, 53, 90
3, 36288, Note_on_c, 1, 56, 90
3, 36288, Note_on_c, 1, 59, 90
3, 36288, Note_on_c, 1, 62, 90
3, 36380, Note_off_c, 1, 53, 100
3, 36380, Note_off_c, 1, 56, 100
3, 36380, Note_off_c, 1, 59, 100
3, 36380, Note_off_c, 1, 62, 100
3, 36480, Note_on_c, 1, 44, 82
3, 36572, Note_off_c, 1, 44, 100
3, 36672, Note_on_c, 1, 53, 69
3, 36672, Note_on_c, 1, 56, 69
3, 36672, Note_on_c, 1, 59, 69
3, 36672, Note_on_c, 1, 62, 69
3, 36764, Note_off_c, 1, 53, 100
3, 36764, Note_off_c, 1, 56, 100
3, 36764, Note_off_c, 1, 59, 100
3, 36764, Note_off_c, 1, 62, 100
3, 36864, Note_on_c, 1, 59, 70
3, 36864, Note_on_c, 1, 56, 70
3, 36864, Note_on_c, 1, 53, 70
3, 36864, Note_on_c, 1, 49, 70
3, 36864, Note_on_c, 1, 62, 70
3, 36956, Note_off_c, 1, 59, 100
3, 36956, Note_off_c, 1, 56, 100
3, 36956, Note_off_c, 1, 53, 100
3, 36956, Note_off_c, 1, 49, 100
3, 36956, Note_off_c, 1, 62, 100
3, 37056, Note_on_c, 1, 44, 70
3, 37148, Note_off_c, 1, 44, 100
3, 37248, Note_on_c, 1, 53, 70
3, 37248, Note_on_c, 1, 56, 70
3, 37248, Note_on_c, 1, 59, 70
3, 37248, Note_on_c, 1, 62, 70
3, 37340, Note_off_c, 1, 53, 100
3, 37340, Note_off_c, 1, 56, 100
3, 37340, Note_off_c, 1, 59, 100
3, 37340, Note_off_c, 1, 62, 100
3, 37440, Note_on_c, 1, 53, 70
3, 37440, Note_on_c, 1, 56, 70
3, 37440, Note_on_c, 1, 59, 70
3, 37440, Note_on_c, 1, 62, 70
3, 37532, Note_off_c, 1, 53, 100
3, 37532, Note_off_c, 1, 56, 100
3, 37532, Note_off_c, 1, 59, 100
3, 37532, Note_off_c, 1, 62, 100
3, 37632, Note_on_c, 1, 44, 70
3, 37724, Note_off_c, 1, 44, 100
3, 37824, Note_on_c, 1, 53, 70
3, 37824, Note_on_c, 1, 56, 70
3, 37824, Note_on_c, 1, 59, 70
3, 37824, Note_on_c, 1, 61, 70
3, 37916, Note_off_c, 1, 53, 100
3, 37916, Note_off_c, 1, 56, 100
3, 37916, Note_off_c, 1, 59, 100
3, 37916, Note_off_c, 1, 61, 100
3, 38016, Note_on_c, 1, 54, 70
3, 38016, Note_on_c, 1, 57, 70
3, 38016, Note_on_c, 1, 61, 70
3, 38108, Note_off_c, 1, 54, 100
3, 38108, Note_off_c, 1, 57, 100
3, 38108, Note_off_c, 1, 61, 100
3, 38208, Note_on_c, 1, 45, 70
3, 38300, Note_off_c, 1, 45, 100
3, 38400, Note_on_c, 1, 54, 70
3, 38400, Note_on_c, 1, 57, 70
3, 38400, Note_on_c, 1, 61, 70
3, 38492, Note_off_c, 1, 54, 100
3, 38492, Note_off_c, 1, 57, 100
3, 38492, Note_off_c, 1, 61, 100
3, 38592, Note_on_c, 1, 53, 70
3, 38592, Note_on_c, 1, 56, 70
3, 38592, Note_on_c, 1, 59, 70
3, 38592, Note_on_c, 1, 62, 70
3, 38684, Note_off_c, 1, 53, 100
3, 38684, Note_off_c, 1, 56, 100
3, 38684, Note_off_c, 1, 59, 100
3, 38684, Note_off_c, 1, 62, 100
3, 38784, Note_on_c, 1, 44, 70
3, 38876, Note_off_c, 1, 44, 100
3, 38976, Note_on_c, 1, 53, 70
3, 38976, Note_on_c, 1, 56, 70
3, 38976, Note_on_c, 1, 59, 70
3, 38976, Note_on_c, 1, 61, 70
3, 39068, Note_off_c, 1, 53, 100
3, 39068, Note_off_c, 1, 56, 100
3, 39068, Note_off_c, 1, 59, 100
3, 39068, Note_off_c, 1, 61, 100
3, 39168, Note_on_c, 1, 61, 70
3, 39168, Note_on_c, 1, 57, 70
3, 39168, Note_on_c, 1, 54, 70
3, 39260, Note_off_c, 1, 61, 100
3, 39260, Note_off_c, 1, 57, 100
3, 39260, Note_off_c, 1, 54, 100
3, 39360, Note_on_c, 1, 45, 70
3, 39452, Note_off_c, 1, 45, 100
3, 39552, Note_on_c, 1, 49, 70
3, 39552, Note_on_c, 1, 54, 70
3, 39552, Note_on_c, 1, 57, 70
3, 39552, Note_on_c, 1, 61, 70
3, 39644, Note_off_c, 1, 49, 100
3, 39644, Note_off_c, 1, 54, 100
3, 39644, Note_off_c, 1, 57, 100
3, 39644, Note_off_c, 1, 61, 100
3, 39744, Note_on_c, 1, 49, 70
3, 39744, Note_on_c, 1, 53, 70
3, 39744, Note_on_c, 1, 56, 70
3, 39744, Note_on_c, 1, 59, 70
3, 39744, Note_on_c, 1, 61, 70
3, 39836, Note_off_c, 1, 49, 100
3, 39836, Note_off_c, 1, 53, 100
3, 39836, Note_off_c, 1, 56, 100
3, 39836, Note_off_c, 1, 59, 100
3, 39836, Note_off_c, 1, 61, 100
3, 39936, Note_on_c, 1, 44, 70
3, 40028, Note_off_c, 1, 44, 100
3, 40128, Note_on_c, 1, 56, 70
3, 40128, Note_on_c, 1, 59, 70
3, 40128, Note_on_c, 1, 61, 70
3, 40220, Note_off_c, 1, 56, 100
3, 40220, Note_off_c, 1, 59, 100
3, 40220, Note_off_c, 1, 61, 100
3, 40320, Note_on_c, 1, 61, 70
3, 40320, Note_on_c, 1, 57, 70
3, 40412, Note_off_c, 1, 61, 100
3, 40412, Note_off_c, 1, 57, 100
3, 40512, Note_on_c, 1, 45, 72
3, 40604, Note_off_c, 1, 45, 100
3, 40704, Note_on_c, 1, 58, 74
3, 40704, Note_on_c, 1, 61, 74
3, 40796, Note_off_c, 1, 58, 100
3, 40796, Note_off_c, 1, 61, 100
3, 40896, Note_on_c, 1, 58, 76
3, 40896, Note_on_c, 1, 61, 76
3, 40988, Note_off_c, 1, 58, 100
3, 40988, Note_off_c, 1, 61, 100
3, 41088, Note_on_c, 1, 46, 79
3, 41180, Note_off_c, 1, 46, 100
3, 41280, Note_on_c, 1, 59, 81
3, 41280, Note_on_c, 1, 63, 81
3, 41372, Note_off_c, 1, 59, 100
3, 41372, Note_off_c, 1, 63, 100
3, 41472, Note_on_c, 1, 59, 83
3, 41472, Note_on_c, 1, 63, 83
3, 41564, Note_off_c, 1, 59, 100
3, 41564, Note_off_c, 1, 63, 100
3, 41664, Note_on_c, 1, 47, 85
3, 41756, Note_off_c, 1, 47, 100
3, 41856, Note_on_c, 1, 61, 88
3, 41856, Note_on_c, 1, 64, 88
3, 41948, Note_off_c, 1, 61, 100
3, 41948, Note_off_c, 1, 64, 100
3, 42048, Note_on_c, 1, 61, 90
3, 42048, Note_on_c, 1, 64, 90
3, 42140, Note_off_c, 1, 61, 100
3, 42140, Note_off_c, 1, 64, 100
3, 42240, Note_on_c, 1, 49, 92
3, 42332, Note_off_c, 1, 49, 100
3, 42432, Note_on_c, 1, 63, 95
3, 42432, Note_on_c, 1, 66, 95
3, 42524, Note_off_c, 1, 63, 100
3, 42524, Note_off_c, 1, 66, 100
3, 42624, Note_on_c, 1, 63, 97
3, 42624, Note_on_c, 1, 66, 97
3, 42716, Note_off_c, 1, 63, 100
3, 42716, Note_off_c, 1, 66, 100
3, 42720, Note_on_c, 1, 51, 98
3, 42812, Note_off_c, 1, 51, 100
3, 42816, Note_on_c, 1, 64, 99
3, 42816, Note_on_c, 1, 67, 99
3, 42908, Note_off_c, 1, 64, 100
3, 42908, Note_off_c, 1, 67, 100
3, 42912, Note_on_c, 1, 52, 100
3, 43004, Note_off_c, 1, 52, 100
3, 43008, Note_on_c, 1, 66, 101
3, 43008, Note_on_c, 1, 69, 101
3, 43100, Note_off_c, 1, 66, 100
3, 43100, Note_off_c, 1, 69, 100
3, 43104, Note_on_c, 1, 54, 103
3, 43196, Note_off_c, 1, 54, 100
3, 43200, Note_on_c, 1, 71, 104
3, 43200, Note_on_c, 1, 67, 104
3, 43292, Note_off_c, 1, 71, 100
3, 43292, Note_off_c, 1, 67, 100
3, 43296, Note_on_c, 1, 55, 105
3, 43388, Note_off_c, 1, 55, 100
3, 43392, Note_on_c, 1, 71, 106
3, 43392, Note_on_c, 1, 68, 106
3, 43484, Note_off_c, 1, 71, 100
3, 43484, Note_off_c, 1, 68, 100
3, 43488, Note_on_c, 1, 56, 107
3, 43580, Note_off_c, 1, 56, 100
3, 43584, Note_on_c, 1, 73, 108
3, 43584, Note_on_c, 1, 69, 108
3, 43676, Note_off_c, 1, 73, 100
3, 43676, Note_off_c, 1, 69, 100
3, 43680, Note_on_c, 1, 57, 109
3, 43772, Note_off_c, 1, 57, 100
3, 43776, Note_on_c, 1, 73, 80
3, 43776, Note_on_c, 1, 69, 80
3, 43964, Note_off_c, 1, 73, 100
3, 43964, Note_off_c, 1, 69, 100
3, 43968, Note_on_c, 1, 61, 80
3, 43968, Note_on_c, 1, 57, 80
3, 44156, Note_off_c, 1, 61, 100
3, 44160, Note_on_c, 1, 63, 80
3, 44348, Note_off_c, 1, 57, 100
3, 44352, Note_on_c, 1, 57, 80
3, 44444, Note_off_c, 1, 63, 100
3, 44448, Note_on_c, 1, 63, 80
3, 44540, Note_off_c, 1, 63, 100
3, 44544, Note_on_c, 1, 66, 80
3, 44636, Note_off_c, 1, 66, 100
3, 44640, Note_on_c, 1, 64, 80
3, 44732, Note_off_c, 1, 64, 100
3, 44736, Note_on_c, 1, 63, 80
3, 44828, Note_off_c, 1, 63, 100
3, 44832, Note_on_c, 1, 64, 80
3, 44924, Note_off_c, 1, 57, 100
3, 44924, Note_off_c, 1, 64, 100
3, 44928, Note_on_c, 1, 62, 80
3, 44928, Note_on_c, 1, 57, 80
3, 45116, Note_off_c, 1, 62, 100
3, 45120, Note_on_c, 1, 61, 80
3, 45500, Note_off_c, 1, 57, 100
3, 45504, Note_on_c, 1, 57, 80
3, 45596, Note_off_c, 1, 61, 100
3, 45600, Note_on_c, 1, 61, 80
3, 45692, Note_off_c, 1, 61, 100
3, 45696, Note_on_c, 1, 64, 80
3, 45788, Note_off_c, 1, 64, 100
3, 45792, Note_on_c, 1, 62, 80
3, 45884, Note_off_c, 1, 62, 100
3, 45888, Note_on_c, 1, 61, 80
3, 45980, Note_off_c, 1, 61, 100
3, 45984, Note_on_c, 1, 62, 80
3, 46076, Note_off_c, 1, 57, 100
3, 46076, Note_off_c, 1, 62, 100
3, 46080, Key_signature, 2, "major"
3, 46080, Note_on_c, 1, 57, 80
3, 46080, Note_on_c, 1, 60, 80
3, 46096, Note_on_c, 1, 63, 80
3, 46268, Note_off_c, 1, 60, 100
3, 46272, Note_on_c, 1, 61, 80
3, 46272, Note_on_c, 1, 64, 80
3, 46284, Note_off_c, 1, 63, 100
3, 46460, Note_off_c, 1, 57, 100
3, 46460, Note_off_c, 1, 61, 100
3, 46460, Note_off_c, 1, 64, 100
3, 46464, Note_on_c, 1, 58, 80
3, 46464, Note_on_c, 1, 63, 80
3, 46556, Note_off_c, 1, 63, 100
3, 46560, Note_on_c, 1, 64, 80
3, 46652, Note_off_c, 1, 64, 100
3, 46656, Note_on_c, 1, 64, 80
3, 46748, Note_off_c, 1, 64, 100
3, 46752, Note_on_c, 1, 61, 80
3, 46844, Note_off_c, 1, 58, 100
3, 46844, Note_off_c, 1, 61, 100
3, 46848, Note_on_c, 1, 59, 80
3, 46848, Note_on_c, 1, 64, 80
3, 46940, Note_off_c, 1, 64, 100
3, 46944, Note_on_c, 1, 62, 80
3, 47036, Note_off_c, 1, 59, 100
3, 47036, Note_off_c, 1, 62, 100
3, 47040, Note_on_c, 1, 56, 80
3, 47040, Note_on_c, 1, 61, 80
3, 47132, Note_off_c, 1, 61, 100
3, 47136, Note_on_c, 1, 62, 80
3, 47228, Note_off_c, 1, 62, 100
3, 47232, Note_on_c, 1, 62, 80
3, 47420, Note_off_c, 1, 56, 100
3, 47420, Note_off_c, 1, 62, 100
3, 47424, Note_on_c, 1, 55, 80
3, 47424, Note_on_c, 1, 61, 80
3, 47612, Note_off_c, 1, 55, 100
3, 47612, Note_off_c, 1, 61, 100
3, 47616, Note_on_c, 1, 54, 80
3, 47616, Note_on_c, 1, 57, 80
3, 47616, Note_on_c, 1, 62, 80
3, 47804, Note_off_c, 1, 54, 100
3, 47804, Note_off_c, 1, 57, 100
3, 47804, Note_off_c, 1, 62, 100
3, 47808, Note_on_c, 1, 45, 80
3, 47808, Note_on_c, 1, 52, 80
3, 47900, Note_off_c, 1, 52, 100
3, 47904, Note_on_c, 1, 49, 80
3, 47996, Note_off_c, 1, 45, 100
3, 47996, Note_off_c, 1, 49, 100
3, 48000, Note_on_c, 1, 47, 80
3, 48000, Note_on_c, 1, 52, 80
3, 48092, Note_off_c, 1, 52, 100
3, 48096, Note_on_c, 1, 50, 80
3, 48188, Note_off_c, 1, 47, 100
3, 48188, Note_off_c, 1, 50, 100
3, 48192, Note_on_c, 1, 44, 80
3, 48192, Note_on_c, 1, 49, 80
3, 48284, Note_off_c, 1, 49, 100
3, 48288, Note_on_c, 1, 50, 80
3, 48380, Note_off_c, 1, 44, 100
3, 48380, Note_off_c, 1, 50, 100
3, 48384, Note_on_c, 1, 41, 80
3, 48384, Note_on_c, 1, 50, 80
3, 48476, Note_off_c, 1, 50, 100
3, 48480, Note_on_c, 1, 44, 80
3, 48572, Note_off_c, 1, 41, 100
3, 48572, Note_off_c, 1, 44, 100
3, 48576, Note_on_c, 1, 42, 80
3, 48576, Note_on_c, 1, 47, 80
3, 48668, Note_off_c, 1, 47, 100
3, 48672, Note_on_c, 1, 45, 80
3, 48764, Note_off_c, 1, 45, 100
3, 48768, Note_on_c, 1, 44, 80
3, 48860, Note_off_c, 1, 42, 100
3, 48860, Note_off_c, 1, 44, 100
3, 48864, Note_on_c, 1, 41, 80
3, 48864, Note_on_c, 1, 45, 80
3, 48956, Note_off_c, 1, 41, 100
3, 48956, Note_off_c, 1, 45, 100
3, 48960, Note_on_c, 1, 45, 80
3, 48960, Note_on_c, 1, 40, 80
3, 49052, Note_off_c, 1, 45, 100
3, 49052, Note_off_c, 1, 40, 100
3, 49056, Note_on_c, 1, 32, 80
3, 49148, Note_off_c, 1, 32, 100
3, 49152, Note_on_c, 1, 34, 80
3, 49244, Note_off_c, 1, 34, 100
3, 49248, Note_on_c, 1, 33, 80
3, 49340, Note_off_c, 1, 33, 100
3, 49344, Note_on_c, 1, 32, 80
3, 49436, Note_off_c, 1, 32, 100
3, 49440, Note_on_c, 1, 33, 80
3, 49532, Note_off_c, 1, 33, 100
3, 49536, Note_on_c, 1, 33, 80
3, 49628, Note_off_c, 1, 33, 100
3, 49632, Note_on_c, 1, 52, 80
3, 49724, Note_off_c, 1, 52, 100
3, 49728, Note_on_c, 1, 49, 80
3, 49820, Note_off_c, 1, 49, 100
3, 49824, Note_on_c, 1, 55, 80
3, 49916, Note_off_c, 1, 55, 100
3, 49920, Note_on_c, 1, 52, 80
3, 50012, Note_off_c, 1, 52, 100
3, 50016, Note_on_c, 1, 58, 80
3, 50108, Note_off_c, 1, 58, 100
3, 50112, Note_on_c, 1, 56, 80
3, 50204, Note_off_c, 1, 56, 100
3, 50208, Note_on_c, 1, 57, 80
3, 50300, Note_off_c, 1, 57, 100
3, 50304, Note_on_c, 1, 52, 80
3, 50396, Note_off_c, 1, 52, 100
3, 50400, Note_on_c, 1, 59, 80
3, 50492, Note_off_c, 1, 59, 100
3, 50496, Note_on_c, 1, 57, 80
3, 50588, Note_off_c, 1, 57, 100
3, 50592, Note_on_c, 1, 55, 80
3, 50684, Note_off_c, 1, 55, 100
3, 50688, Note_on_c, 1, 50, 80
3, 50688, Note_on_c, 1, 54, 80
3, 50780, Note_off_c, 1, 54, 100
3, 50784, Note_on_c, 1, 59, 80
3, 50876, Note_off_c, 1, 59, 100
3, 50880, Note_on_c, 1, 56, 80
3, 50972, Note_off_c, 1, 56, 100
3, 50976, Note_on_c, 1, 57, 80
3, 51068, Note_off_c, 1, 57, 100
3, 51072, Note_on_c, 1, 54, 80
3, 51164, Note_off_c, 1, 54, 100
3, 51168, Note_on_c, 1, 59, 80
3, 51260, Note_off_c, 1, 59, 100
3, 51264, Note_on_c, 1, 56, 80
3, 51356, Note_off_c, 1, 56, 100
3, 51360, Note_on_c, 1, 57, 80
3, 51452, Note_off_c, 1, 57, 100
3, 51456, Note_on_c, 1, 54, 80
3, 51548, Note_off_c, 1, 54, 100
3, 51552, Note_on_c, 1, 59, 80
3, 51644, Note_off_c, 1, 50, 100
3, 51644, Note_off_c, 1, 59, 100
3, 51648, Note_on_c, 1, 54, 80
3, 51648, Note_on_c, 1, 50, 80
3, 51740, Note_off_c, 1, 54, 100
3, 51744, Note_on_c, 1, 57, 80
3, 51836, Note_off_c, 1, 50, 100
3, 51836, Note_off_c, 1, 57, 100
3, 51840, Note_on_c, 1, 49, 80
3, 51840, Note_on_c, 1, 52, 80
3, 51932, Note_off_c, 1, 52, 100
3, 51936, Note_on_c, 1, 57, 80
3, 52028, Note_off_c, 1, 49, 100
3, 52028, Note_off_c, 1, 57, 100
3, 52032, Note_on_c, 1, 50, 80
3, 52032, Note_on_c, 1, 54, 80
3, 52124, Note_off_c, 1, 54, 100
3, 52128, Note_on_c, 1, 57, 80
3, 52220, Note_off_c, 1, 50, 100
3, 52220, Note_off_c, 1, 57, 100
3, 52224, Note_on_c, 1, 52, 80
3, 52224, Note_on_c, 1, 55, 80
3, 52316, Note_off_c, 1, 55, 100
3, 52320, Note_on_c, 1, 57, 80
3, 52412, Note_off_c, 1, 52, 100
3, 52412, Note_off_c, 1, 57, 100
3, 52416, Note_on_c, 1, 52, 80
3, 52416, Note_on_c, 1, 55, 80
3, 52508, Note_off_c, 1, 55, 100
3, 52512, Note_on_c, 1, 57, 80
3, 52604, Note_off_c, 1, 52, 100
3, 52604, Note_off_c, 1, 57, 100
3, 52608, Note_on_c, 1, 50, 80
3, 52608, Note_on_c, 1, 54, 80
3, 52700, Note_off_c, 1, 54, 100
3, 52704, Note_on_c, 1, 57, 80
3, 52796, Note_off_c, 1, 50, 100
3, 52796, Note_off_c, 1, 57, 100
3, 52800, Note_on_c, 1, 49, 80
3, 52800, Note_on_c, 1, 52, 80
3, 52892, Note_off_c, 1, 52, 100
3, 52896, Note_on_c, 1, 57, 80
3, 52988, Note_off_c, 1, 49, 100
3, 52988, Note_off_c, 1, 57, 100
3, 52992, Note_on_c, 1, 50, 80
3, 52992, Note_on_c, 1, 54, 80
3, 53084, Note_off_c, 1, 54, 100
3, 53088, Note_on_c, 1, 59, 80
3, 53180, Note_off_c, 1, 59, 100
3, 53184, Note_on_c, 1, 56, 80
3, 53276, Note_off_c, 1, 56, 100
3, 53280, Note_on_c, 1, 57, 80
3, 53372, Note_off_c, 1, 57, 100
3, 53376, Note_on_c, 1, 54, 80
3, 53468, Note_off_c, 1, 54, 100
3, 53472, Note_on_c, 1, 59, 80
3, 53564, Note_off_c, 1, 59, 100
3, 53568, Note_on_c, 1, 56, 80
3, 53660, Note_off_c, 1, 56, 100
3, 53664, Note_on_c, 1, 57, 80
3, 53756, Note_off_c, 1, 57, 100
3, 53760, Note_on_c, 1, 54, 80
3, 53852, Note_off_c, 1, 54, 100
3, 53856, Note_on_c, 1, 59, 80
3, 53948, Note_off_c, 1, 50, 100
3, 53948, Note_off_c, 1, 59, 100
3, 53952, Note_on_c, 1, 54, 80
3, 53952, Note_on_c, 1, 50, 80
3, 54044, Note_off_c, 1, 54, 100
3, 54048, Note_on_c, 1, 57, 80
3, 54140, Note_off_c, 1, 50, 100
3, 54140, Note_off_c, 1, 57, 100
3, 54144, Note_on_c, 1, 49, 80
3, 54144, Note_on_c, 1, 52, 80
3, 54236, Note_off_c, 1, 52, 100
3, 54240, Note_on_c, 1, 57, 80
3, 54332, Note_off_c, 1, 49, 100
3, 54332, Note_off_c, 1, 57, 100
3, 54336, Note_on_c, 1, 50, 80
3, 54336, Note_on_c, 1, 54, 80
3, 54428, Note_off_c, 1, 54, 100
3, 54432, Note_on_c, 1, 57, 80
3, 54524, Note_off_c, 1, 50, 100
3, 54524, Note_off_c, 1, 57, 100
3, 54528, Note_on_c, 1, 52, 80
3, 54528, Note_on_c, 1, 55, 80
3, 54620, Note_off_c, 1, 55, 100
3, 54624, Note_on_c, 1, 57, 80
3, 54716, Note_off_c, 1, 52, 100
3, 54716, Note_off_c, 1, 57, 100
3, 54720, Note_on_c, 1, 52, 80
3, 54720, Note_on_c, 1, 55, 80
3, 54812, Note_off_c, 1, 55, 100
3, 54816, Note_on_c, 1, 57, 80
3, 54908, Note_off_c, 1, 52, 100
3, 54908, Note_off_c, 1, 57, 100
3, 54912, Note_on_c, 1, 50, 80
3, 54912, Note_on_c, 1, 54, 80
3, 55004, Note_off_c, 1, 54, 100
3, 55008, Note_on_c, 1, 57, 80
3, 55100, Note_off_c, 1, 50, 100
3, 55100, Note_off_c, 1, 57, 100
3, 55104, Note_on_c, 1, 49, 80
3, 55104, Note_on_c, 1, 52, 80
3, 55196, Note_off_c, 1, 52, 100
3, 55200, Note_on_c, 1, 57, 80
3, 55292, Note_off_c, 1, 49, 100
3, 55292, Note_off_c, 1, 57, 100
3, 55296, Note_on_c, 1, 50, 80
3, 55296, Note_on_c, 1, 54, 80
3, 55356, Note_off_c, 1, 54, 100
3, 55360, Note_on_c, 1, 59, 80
3, 55420, Note_off_c, 1, 59, 100
3, 55424, Note_on_c, 1, 57, 80
3, 55484, Note_off_c, 1, 57, 100
3, 55488, Note_on_c, 1, 56, 80
3, 55548, Note_off_c, 1, 56, 100
3, 55552, Note_on_c, 1, 59, 80
3, 55612, Note_off_c, 1, 59, 100
3, 55616, Note_on_c, 1, 57, 80
3, 55676, Note_off_c, 1, 57, 100
3, 55680, Note_on_c, 1, 54, 80
3, 55740, Note_off_c, 1, 54, 100
3, 55744, Note_on_c, 1, 59, 80
3, 55804, Note_off_c, 1, 59, 100
3, 55808, Note_on_c, 1, 57, 80
3, 55868, Note_off_c, 1, 57, 100
3, 55872, Note_on_c, 1, 56, 80
3, 55932, Note_off_c, 1, 56, 100
3, 55936, Note_on_c, 1, 59, 80
3, 55996, Note_off_c, 1, 59, 100
3, 56000, Note_on_c, 1, 57, 80
3, 56060, Note_off_c, 1, 57, 100
3, 56064, Note_on_c, 1, 54, 80
3, 56124, Note_off_c, 1, 54, 100
3, 56128, Note_on_c, 1, 59, 80
3, 56188, Note_off_c, 1, 59, 100
3, 56192, Note_on_c, 1, 57, 80
3, 56252, Note_off_c, 1, 50, 100
3, 56252, Note_off_c, 1, 57, 100
3, 56256, Note_on_c, 1, 50, 80
3, 56256, Note_on_c, 1, 56, 80
3, 56316, Note_off_c, 1, 56, 100
3, 56320, Note_on_c, 1, 58, 80
3, 56380, Note_off_c, 1, 58, 100
3, 56384, Note_on_c, 1, 57, 80
3, 56444, Note_off_c, 1, 50, 100
3, 56444, Note_off_c, 1, 57, 100
3, 56448, Note_on_c, 1, 49, 80
3, 56448, Note_on_c, 1, 52, 80
3, 56508, Note_off_c, 1, 52, 100
3, 56512, Note_on_c, 1, 59, 80
3, 56572, Note_off_c, 1, 59, 100
3, 56576, Note_on_c, 1, 57, 80
3, 56636, Note_off_c, 1, 49, 100
3, 56636, Note_off_c, 1, 57, 100
3, 56640, Note_on_c, 1, 50, 80
3, 56640, Note_on_c, 1, 54, 80
3, 56700, Note_off_c, 1, 54, 100
3, 56704, Note_on_c, 1, 59, 80
3, 56764, Note_off_c, 1, 59, 100
3, 56768, Note_on_c, 1, 57, 80
3, 56828, Note_off_c, 1, 50, 100
3, 56828, Note_off_c, 1, 57, 100
3, 56832, Note_on_c, 1, 52, 80
3, 56832, Note_on_c, 1, 55, 80
3, 56892, Note_off_c, 1, 55, 100
3, 56896, Note_on_c, 1, 59, 80
3, 56956, Note_off_c, 1, 59, 100
3, 56960, Note_on_c, 1, 57, 80
3, 57020, Note_off_c, 1, 52, 100
3, 57020, Note_off_c, 1, 57, 100
3, 57024, Note_on_c, 1, 52, 80
3, 57024, Note_on_c, 1, 55, 80
3, 57084, Note_off_c, 1, 55, 100
3, 57088, Note_on_c, 1, 59, 80
3, 57148, Note_off_c, 1, 59, 100
3, 57152, Note_on_c, 1, 57, 80
3, 57212, Note_off_c, 1, 52, 100
3, 57212, Note_off_c, 1, 57, 100
3, 57216, Note_on_c, 1, 50, 80
3, 57216, Note_on_c, 1, 54, 80
3, 57276, Note_off_c, 1, 54, 100
3, 57280, Note_on_c, 1, 59, 80
3, 57340, Note_off_c, 1, 59, 100
3, 57344, Note_on_c, 1, 57, 80
3, 57404, Note_off_c, 1, 50, 100
3, 57404, Note_off_c, 1, 57, 100
3, 57408, Note_on_c, 1, 49, 80
3, 57408, Note_on_c, 1, 52, 80
3, 57468, Note_off_c, 1, 52, 100
3, 57472, Note_on_c, 1, 59, 80
3, 57532, Note_off_c, 1, 59, 100
3, 57536, Note_on_c, 1, 57, 80
3, 57596, Note_off_c, 1, 49, 100
3, 57596, Note_off_c, 1, 57, 100
3, 57600, Note_on_c, 1, 50, 80
3, 57600, Note_on_c, 1, 54, 80
3, 57660, Note_off_c, 1, 54, 100
3, 57664, Note_on_c, 1, 59, 80
3, 57724, Note_off_c, 1, 59, 100
3, 57728, Note_on_c, 1, 57, 80
3, 57788, Note_off_c, 1, 57, 100
3, 57792, Note_on_c, 1, 56, 80
3, 57852, Note_off_c, 1, 56, 100
3, 57856, Note_on_c, 1, 59, 80
3, 57916, Note_off_c, 1, 59, 100
3, 57920, Note_on_c, 1, 57, 80
3, 57980, Note_off_c, 1, 57, 100
3, 57984, Note_on_c, 1, 54, 80
3, 58044, Note_off_c, 1, 54, 100
3, 58048, Note_on_c, 1, 59, 80
3, 58108, Note_off_c, 1, 59, 100
3, 58112, Note_on_c, 1, 57, 80
3, 58172, Note_off_c, 1, 57, 100
3, 58176, Note_on_c, 1, 56, 80
3, 58236, Note_off_c, 1, 56, 100
3, 58240, Note_on_c, 1, 59, 80
3, 58300, Note_off_c, 1, 59, 100
3, 58304, Note_on_c, 1, 57, 80
3, 58364, Note_off_c, 1, 57, 100
3, 58368, Note_on_c, 1, 54, 80
3, 58428, Note_off_c, 1, 54, 100
3, 58432, Note_on_c, 1, 59, 80
3, 58492, Note_off_c, 1, 59, 100
3, 58496, Note_on_c, 1, 57, 80
3, 58556, Note_off_c, 1, 50, 100
3, 58556, Note_off_c, 1, 57, 100
3, 58560, Note_on_c, 1, 50, 80
3, 58560, Note_on_c, 1, 56, 80
3, 58620, Note_off_c, 1, 56, 100
3, 58624, Note_on_c, 1, 58, 80
3, 58684, Note_off_c, 1, 58, 100
3, 58688, Note_on_c, 1, 57, 80
3, 58748, Note_off_c, 1, 50, 100
3, 58748, Note_off_c, 1, 57, 100
3, 58752, Note_on_c, 1, 49, 80
3, 58752, Note_on_c, 1, 52, 80
3, 58812, Note_off_c, 1, 52, 100
3, 58816, Note_on_c, 1, 59, 80
3, 58876, Note_off_c, 1, 59, 100
3, 58880, Note_on_c, 1, 57, 80
3, 58940, Note_off_c, 1, 49, 100
3, 58940, Note_off_c, 1, 57, 100
3, 58944, Note_on_c, 1, 50, 81
3, 58944, Note_on_c, 1, 54, 81
3, 59004, Note_off_c, 1, 54, 100
3, 59008, Note_on_c, 1, 59, 81
3, 59068, Note_off_c, 1, 59, 100
3, 59072, Note_on_c, 1, 57, 81
3, 59132, Note_off_c, 1, 50, 100
3, 59132, Note_off_c, 1, 57, 100
3, 59136, Note_on_c, 1, 52, 82
3, 59136, Note_on_c, 1, 55, 82
3, 59196, Note_off_c, 1, 55, 100
3, 59200, Note_on_c, 1, 59, 82
3, 59260, Note_off_c, 1, 59, 100
3, 59264, Note_on_c, 1, 57, 82
3, 59324, Note_off_c, 1, 52, 100
3, 59324, Note_off_c, 1, 57, 100
3, 59328, Note_on_c, 1, 52, 83
3, 59328, Note_on_c, 1, 55, 83
3, 59388, Note_off_c, 1, 55, 100
3, 59392, Note_on_c, 1, 59, 83
3, 59452, Note_off_c, 1, 59, 100
3, 59456, Note_on_c, 1, 57, 84
3, 59516, Note_off_c, 1, 52, 100
3, 59516, Note_off_c, 1, 57, 100
3, 59520, Note_on_c, 1, 50, 84
3, 59520, Note_on_c, 1, 54, 84
3, 59580, Note_off_c, 1, 54, 100
3, 59584, Note_on_c, 1, 59, 84
3, 59644, Note_off_c, 1, 59, 100
3, 59648, Note_on_c, 1, 57, 85
3, 59708, Note_off_c, 1, 50, 100
3, 59708, Note_off_c, 1, 57, 100
3, 59712, Note_on_c, 1, 49, 85
3, 59712, Note_on_c, 1, 52, 85
3, 59772, Note_off_c, 1, 52, 100
3, 59776, Note_on_c, 1, 59, 85
3, 59836, Note_off_c, 1, 59, 100
3, 59840, Note_on_c, 1, 57, 86
3, 59900, Note_off_c, 1, 49, 100
3, 59900, Note_off_c, 1, 57, 100
3, 59904, Note_on_c, 1, 50, 86
3, 59904, Note_on_c, 1, 54, 86
3, 59964, Note_off_c, 1, 54, 100
3, 59968, Note_on_c, 1, 57, 87
3, 60028, Note_off_c, 1, 57, 100
3, 60032, Note_on_c, 1, 55, 87
3, 60092, Note_off_c, 1, 55, 100
3, 60096, Note_on_c, 1, 54, 87
3, 60156, Note_off_c, 1, 54, 100
3, 60160, Note_on_c, 1, 55, 88
3, 60220, Note_off_c, 1, 55, 100
3, 60224, Note_on_c, 1, 57, 88
3, 60284, Note_off_c, 1, 57, 100
3, 60288, Note_on_c, 1, 59, 88
3, 60348, Note_off_c, 1, 59, 100
3, 60352, Note_on_c, 1, 61, 89
3, 60412, Note_off_c, 1, 61, 100
3, 60416, Note_on_c, 1, 62, 89
3, 60476, Note_off_c, 1, 50, 100
3, 60476, Note_off_c, 1, 62, 100
3, 60480, Note_on_c, 1, 52, 90
3, 60480, Note_on_c, 1, 64, 90
3, 60732, Note_off_c, 1, 64, 100
3, 60736, Note_on_c, 1, 62, 91
3, 60796, Note_off_c, 1, 62, 100
3, 60800, Note_on_c, 1, 61, 91
3, 60860, Note_off_c, 1, 61, 100
3, 60864, Note_on_c, 1, 59, 92
3, 60924, Note_off_c, 1, 59, 100
3, 60928, Note_on_c, 1, 57, 92
3, 60988, Note_off_c, 1, 57, 100
3, 60992, Note_on_c, 1, 55, 93
3, 61052, Note_off_c, 1, 52, 100
3, 61052, Note_off_c, 1, 55, 100
3, 61056, Note_on_c, 1, 54, 93
3, 61056, Note_on_c, 1, 61, 93
3, 61116, Note_off_c, 1, 61, 100
3, 61120, Note_on_c, 1, 64, 93
3, 61180, Note_off_c, 1, 64, 100
3, 61184, Note_on_c, 1, 62, 94
3, 61244, Note_off_c, 1, 62, 100
3, 61248, Note_on_c, 1, 57, 94
3, 61308, Note_off_c, 1, 57, 100
3, 61312, Note_on_c, 1, 59, 94
3, 61372, Note_off_c, 1, 59, 100
3, 61376, Note_on_c, 1, 61, 95
3, 61436, Note_off_c, 1, 61, 100
3, 61440, Note_on_c, 1, 62, 95
3, 61500, Note_off_c, 1, 62, 100
3, 61504, Note_on_c, 1, 64, 96
3, 61564, Note_off_c, 1, 64, 100
3, 61568, Note_on_c, 1, 66, 96
3, 61628, Note_off_c, 1, 54, 100
3, 61628, Note_off_c, 1, 66, 100
3, 61632, Note_on_c, 1, 55, 96
3, 61632, Note_on_c, 1, 67, 96
3, 61884, Note_off_c, 1, 67, 100
3, 61888, Note_on_c, 1, 66, 98
3, 61948, Note_off_c, 1, 66, 100
3, 61952, Note_on_c, 1, 64, 98
3, 62012, Note_off_c, 1, 64, 100
3, 62016, Note_on_c, 1, 62, 99
3, 62076, Note_off_c, 1, 62, 100
3, 62080, Note_on_c, 1, 61, 99
3, 62140, Note_off_c, 1, 61, 100
3, 62144, Note_on_c, 1, 59, 99
3, 62204, Note_off_c, 1, 55, 100
3, 62204, Note_off_c, 1, 59, 100
3, 62208, Note_on_c, 1, 64, 100
3, 62208, Note_on_c, 1, 57, 100
3, 62268, Note_off_c, 1, 64, 100
3, 62272, Note_on_c, 1, 61, 100
3, 62332, Note_off_c, 1, 61, 100
3, 62336, Note_on_c, 1, 62, 100
3, 62396, Note_off_c, 1, 62, 100
3, 62400, Note_on_c, 1, 64, 101
3, 62460, Note_off_c, 1, 64, 100
3, 62464, Note_on_c, 1, 66, 101
3, 62524, Note_off_c, 1, 66, 100
3, 62528, Note_on_c, 1, 67, 102
3, 62588, Note_off_c, 1, 57, 100
3, 62588, Note_off_c, 1, 67, 100
3, 62592, Note_on_c, 1, 66, 102
3, 62592, Note_on_c, 1, 59, 102
3, 62652, Note_off_c, 1, 66, 100
3, 62656, Note_on_c, 1, 64, 102
3, 62716, Note_off_c, 1, 64, 100
3, 62720, Note_on_c, 1, 62, 103
3, 62780, Note_off_c, 1, 59, 100
3, 62780, Note_off_c, 1, 62, 100
3, 62784, Note_on_c, 1, 70, 103
3, 62784, Note_on_c, 1, 61, 103
3, 62844, Note_off_c, 1, 70, 100
3, 62848, Note_on_c, 1, 64, 103
3, 62908, Note_off_c, 1, 64, 100
3, 62912, Note_on_c, 1, 66, 104
3, 62972, Note_off_c, 1, 66, 100
3, 62976, Note_on_c, 1, 67, 104
3, 63036, Note_off_c, 1, 67, 100
3, 63040, Note_on_c, 1, 69, 105
3, 63100, Note_off_c, 1, 69, 100
3, 63104, Note_on_c, 1, 70, 105
3, 63164, Note_off_c, 1, 61, 100
3, 63164, Note_off_c, 1, 70, 100
3, 63168, Note_on_c, 1, 69, 105
3, 63168, Note_on_c, 1, 63, 105
3, 63228, Note_off_c, 1, 69, 100
3, 63232, Note_on_c, 1, 67, 106
3, 63292, Note_off_c, 1, 67, 100
3, 63296, Note_on_c, 1, 66, 106
3, 63356, Note_off_c, 1, 63, 100
3, 63356, Note_off_c, 1, 66, 100
3, 63360, Note_on_c, 1, 64, 110
3, 63360, Note_on_c, 1, 67, 110
3, 63420, Note_off_c, 1, 67, 100
3, 63424, Note_on_c, 1, 69, 110
3, 63484, Note_off_c, 1, 69, 100
3, 63488, Note_on_c, 1, 70, 110
3, 63548, Note_off_c, 1, 64, 100
3, 63548, Note_off_c, 1, 70, 100
3, 63552, Note_on_c, 1, 66, 110
3, 63552, Note_on_c, 1, 72, 110
3, 63612, Note_off_c, 1, 72, 100
3, 63616, Note_on_c, 1, 71, 110
3, 63676, Note_off_c, 1, 71, 100
3, 63680, Note_on_c, 1, 72, 110
3, 63740, Note_off_c, 1, 66, 100
3, 63740, Note_off_c, 1, 72, 100
3, 63744, Note_on_c, 1, 71, 110
3, 63744, Note_on_c, 1, 67, 110
3, 63804, Note_off_c, 1, 71, 100
3, 63808, Note_on_c, 1, 69, 110
3, 63868, Note_off_c, 1, 67, 100
3, 63868, Note_off_c, 1, 69, 100
3, 63872, Note_on_c, 1, 67, 110
3, 63872, Note_on_c, 1, 55, 110
3, 63932, Note_off_c, 1, 67, 100
3, 63932, Note_off_c, 1, 55, 100
3, 63936, Note_on_c, 1, 59, 105
3, 63936, Note_on_c, 1, 56, 105
3, 63996, Note_off_c, 1, 59, 100
3, 64000, Note_on_c, 1, 61, 104
3, 64060, Note_off_c, 1, 61, 100
3, 64064, Note_on_c, 1, 62, 102
3, 64124, Note_off_c, 1, 62, 100
3, 64128, Note_on_c, 1, 65, 100
3, 64188, Note_off_c, 1, 65, 100
3, 64192, Note_on_c, 1, 64, 98
3, 64252, Note_off_c, 1, 64, 100
3, 64256, Note_on_c, 1, 62, 96
3, 64316, Note_off_c, 1, 56, 100
3, 64316, Note_off_c, 1, 62, 100
3, 64320, Note_on_c, 1, 55, 94
3, 64320, Note_on_c, 1, 61, 94
3, 64380, Note_off_c, 1, 61, 100
3, 64384, Note_on_c, 1, 63, 92
3, 64444, Note_off_c, 1, 63, 100
3, 64448, Note_on_c, 1, 64, 91
3, 64508, Note_off_c, 1, 55, 100
3, 64508, Note_off_c, 1, 64, 100
3, 64512, Note_on_c, 1, 69, 80
3, 64512, Note_on_c, 1, 66, 80
3, 65084, Note_off_c, 1, 69, 100
3, 65084, Note_off_c, 1, 66, 100
3, 65088, Note_on_c, 1, 63, 80
3, 65088, Note_on_c, 1, 66, 80
3, 65468, Note_off_c, 1, 63, 100
3, 65468, Note_off_c, 1, 66, 100
3, 65472, Note_on_c, 1, 66, 80
3, 65472, Note_on_c, 1, 63, 80
3, 65472, Note_on_c, 1, 59, 80
3, 65660, Note_off_c, 1, 66, 100
3, 65660, Note_off_c, 1, 63, 100
3, 65660, Note_off_c, 1, 59, 100
3, 65664, Note_on_c, 1, 67, 80
3, 65664, Note_on_c, 1, 64, 80
3, 65948, Note_off_c, 1, 67, 100
3, 65948, Note_off_c, 1, 64, 100
3, 65952, Note_on_c, 1, 59, 80
3, 65952, Note_on_c, 1, 55, 80
3, 66044, Note_off_c, 1, 59, 100
3, 66048, Note_on_c, 1, 69, 80
3, 66140, Note_off_c, 1, 69, 100
3, 66144, Note_on_c, 1, 67, 80
3, 66236, Note_off_c, 1, 55, 100
3, 66236, Note_off_c, 1, 67, 100
3, 66240, Note_on_c, 1, 66, 80
3, 66332, Note_off_c, 1, 66, 100
3, 66336, Note_on_c, 1, 68, 80
3, 66428, Note_off_c, 1, 68, 100
3, 66432, Note_on_c, 1, 71, 80
3, 66524, Note_off_c, 1, 71, 100
3, 66528, Note_on_c, 1, 69, 80
3, 66620, Note_off_c, 1, 69, 100
3, 66624, Note_on_c, 1, 45, 80
3, 66624, Note_on_c, 1, 33, 80
3, 66716, Note_off_c, 1, 45, 100
3, 66716, Note_off_c, 1, 33, 100
3, 66720, Note_on_c, 1, 43, 80
3, 66720, Note_on_c, 1, 31, 80
3, 66764, Note_off_c, 1, 43, 100
3, 66764, Note_off_c, 1, 31, 100
3, 66768, Note_on_c, 1, 42, 80
3, 66768, Note_on_c, 1, 30, 80
3, 66812, Note_off_c, 1, 42, 100
3, 66812, Note_off_c, 1, 30, 100
3, 66816, Control_c, 1, 64, 127
3, 66816, Note_on_c, 1, 30, 80
3, 66860, Note_off_c, 1, 30, 100
3, 66864, Note_on_c, 1, 33, 80
3, 66908, Note_off_c, 1, 33, 100
3, 66912, Note_on_c, 1, 36, 80
3, 66956, Note_off_c, 1, 36, 100
3, 66960, Note_on_c, 1, 39, 80
3, 67004, Note_off_c, 1, 39, 100
3, 67008, Note_on_c, 1, 42, 80
3, 67052, Note_off_c, 1, 42, 100
3, 67056, Note_on_c, 1, 45, 80
3, 67100, Note_off_c, 1, 45, 100
3, 67104, Note_on_c, 1, 48, 80
3, 67148, Note_off_c, 1, 48, 100
3, 67152, Note_on_c, 1, 51, 80
3, 67196, Note_off_c, 1, 51, 100
3, 67200, Note_on_c, 1, 54, 80
3, 67244, Note_off_c, 1, 54, 100
3, 67246, Control_c, 1, 64, 0
3, 67248, Note_on_c, 1, 60, 80
3, 67292, Note_off_c, 1, 60, 100
3, 67296, Note_on_c, 1, 55, 80
3, 67340, Note_off_c, 1, 55, 100
3, 67344, Note_on_c, 1, 59, 80
3, 67388, Note_off_c, 1, 59, 100
3, 67392, Note_on_c, 1, 55, 80
3, 67392, Note_on_c, 1, 43, 80
3, 67964, Note_off_c, 1, 55, 100
3, 67964, Note_off_c, 1, 43, 100
3, 67968, Control_c, 1, 64, 127
3, 67968, Note_on_c, 1, 33, 80
3, 68028, Note_off_c, 1, 33, 100
3, 68032, Note_on_c, 1, 38, 79
3, 68092, Note_off_c, 1, 38, 100
3, 68096, Note_on_c, 1, 42, 78
3, 68156, Note_off_c, 1, 42, 100
3, 68160, Note_on_c, 1, 45, 77
3, 68208, Note_on_c, 1, 50, 76
3, 68252, Note_off_c, 1, 50, 100
3, 68256, Note_on_c, 1, 54, 76
3, 68300, Note_off_c, 1, 54, 100
3, 68304, Note_on_c, 1, 57, 75
3, 68348, Note_off_c, 1, 57, 100
3, 68352, Note_on_c, 1, 50, 74
3, 68396, Note_off_c, 1, 50, 100
3, 68398, Control_c, 1, 64, 0
3, 68400, Note_on_c, 1, 54, 73
3, 68444, Note_off_c, 1, 45, 100
3, 68444, Note_off_c, 1, 54, 100
3, 68448, Note_on_c, 1, 47, 72
3, 68448, Note_on_c, 1, 50, 72
3, 68492, Note_off_c, 1, 50, 100
3, 68496, Note_on_c, 1, 53, 71
3, 68540, Note_off_c, 1, 47, 100
3, 68540, Note_off_c, 1, 53, 100
3, 68544, Control_c, 1, 64, 127
3, 68544, Note_on_c, 1, 52, 71
3, 68544, Note_on_c, 1, 49, 71
3, 68732, Note_off_c, 1, 52, 100
3, 68732, Note_off_c, 1, 49, 100
3, 68736, Note_on_c, 1, 49, 70
3, 68736, Note_on_c, 1, 46, 70
3, 68736, Note_on_c, 1, 55, 70
3, 68736, Note_on_c, 1, 52, 70
3, 69020, Note_off_c, 1, 49, 100
3, 69020, Note_off_c, 1, 46, 100
3, 69020, Note_off_c, 1, 55, 100
3, 69020, Note_off_c, 1, 52, 100
3, 69024, Note_on_c, 1, 54, 70
3, 69024, Note_on_c, 1, 51, 70
3, 69024, Note_on_c, 1, 47, 70
3, 69116, Note_off_c, 1, 54, 100
3, 69116, Note_off_c, 1, 51, 100
3, 69116, Note_off_c, 1, 47, 100
3, 69116, Control_c, 1, 64, 0
3, 69120, Control_c, 1, 64, 127
3, 69120, Note_on_c, 1, 54, 70
3, 69120, Note_on_c, 1, 51, 70
3, 69120, Note_on_c, 1, 47, 70
3, 69500, Note_off_c, 1, 54, 100
3, 69500, Note_off_c, 1, 51, 100
3, 69500, Note_off_c, 1, 47, 100
3, 69504, Note_on_c, 1, 59, 70
3, 69504, Note_on_c, 1, 54, 70
3, 69504, Note_on_c, 1, 51, 70
3, 69504, Note_on_c, 1, 47, 70
3, 69692, Note_off_c, 1, 59, 100
3, 69692, Note_off_c, 1, 54, 100
3, 69692, Note_off_c, 1, 51, 100
3, 69692, Note_off_c, 1, 47, 100
3, 69696, Note_on_c, 1, 59, 70
3, 69696, Note_on_c, 1, 54, 70
3, 69696, Note_on_c, 1, 51, 70
3, 69696, Note_on_c, 1, 47, 70
3, 70076, Note_off_c, 1, 59, 100
3, 70076, Note_off_c, 1, 54, 100
3, 70076, Note_off_c, 1, 51, 100
3, 70076, Note_off_c, 1, 47, 100
3, 70080, Note_on_c, 1, 59, 70
3, 70080, Note_on_c, 1, 54, 70
3, 70080, Note_on_c, 1, 51, 70
3, 70080, Note_on_c, 1, 47, 70
3, 70268, Note_off_c, 1, 59, 100
3, 70268, Note_off_c, 1, 54, 100
3, 70268, Note_off_c, 1, 51, 100
3, 70268, Note_off_c, 1, 47, 100
3, 70272, Note_on_c, 1, 47, 70
3, 70272, Note_on_c, 1, 35, 70
3, 70460, Note_off_c, 1, 47, 100
3, 70460, Note_off_c, 1, 35, 100
3, 70464, Note_on_c, 1, 42, 70
3, 70464, Note_on_c, 1, 30, 70
3, 70844, Note_off_c, 1, 42, 100
3, 70844, Note_off_c, 1, 30, 100
3, 70844, Control_c, 1, 64, 0
3, 70848, Note_on_c, 1, 43, 70
3, 70848, Note_on_c, 1, 31, 70
3, 71036, Note_off_c, 1, 43, 100
3, 71036, Note_off_c, 1, 31, 100
3, 71040, Note_on_c, 1, 45, 70
3, 71040, Note_on_c, 1, 33, 70
3, 71420, Note_off_c, 1, 45, 100
3, 71420, Note_off_c, 1, 33, 100
3, 71424, Note_on_c, 1, 38, 70
3, 71424, Note_on_c, 1, 26, 70
3, 71804, Note_off_c, 1, 38, 100
3, 71804, Note_off_c, 1, 26, 100
3, 71808, Note_on_c, 1, 54, 70
3, 71996, Note_off_c, 1, 54, 100
3, 72000, Note_on_c, 1, 45, 70
3, 72380, Note_off_c, 1, 45, 100
3, 72384, Note_on_c, 1, 57, 70
3, 72572, Note_off_c, 1, 57, 100
3, 72576, Note_on_c, 1, 54, 70
3, 72956, Note_off_c, 1, 54, 100
3, 72960, Note_on_c, 1, 45, 70
3, 72960, Note_on_c, 1, 33, 70
3, 73148, Note_off_c, 1, 45, 100
3, 73148, Note_off_c, 1, 33, 100
3, 73152, Note_on_c, 1, 35, 70
3, 73152, Note_on_c, 1, 47, 70
3, 73152, Note_on_c, 1, 45, 70
3, 73532, Note_off_c, 1, 35, 100
3, 73532, Note_off_c, 1, 47, 100
3, 73532, Note_off_c, 1, 45, 100
3, 73536, Note_on_c, 1, 49, 70
3, 73536, Note_on_c, 1, 45, 70
3, 73536, Note_on_c, 1, 37, 70
3, 73724, Note_off_c, 1, 49, 100
3, 73724, Note_off_c, 1, 45, 100
3, 73724, Note_off_c, 1, 37, 100
3, 73728, Note_on_c, 1, 50, 70
3, 73728, Note_on_c, 1, 38, 70
3, 73728, Note_on_c, 1, 45, 70
3, 74108, Note_off_c, 1, 50, 100
3, 74108, Note_off_c, 1, 38, 100
3, 74108, Note_off_c, 1, 45, 100
3, 74112, Note_on_c, 1, 66, 70
3, 74300, Note_off_c, 1, 66, 100
3, 74304, Note_on_c, 1, 57, 70
3, 74684, Note_off_c, 1, 57, 100
3, 74688, Note_on_c, 1, 54, 70
3, 74688, Note_on_c, 1, 42, 70
3, 74876, Note_off_c, 1, 54, 100
3, 74876, Note_off_c, 1, 42, 100
3, 74880, Note_on_c, 1, 57, 70
3, 74880, Note_on_c, 1, 45, 70
3, 75260, Note_off_c, 1, 57, 100
3, 75260, Note_off_c, 1, 45, 100
3, 75264, Note_on_c, 1, 54, 70
3, 75264, Note_on_c, 1, 45, 70
3, 75264, Note_on_c, 1, 42, 70
3, 75644, Note_off_c, 1, 54, 100
3, 75644, Note_off_c, 1, 42, 100
3, 75648, Note_on_c, 1, 52, 70
3, 75648, Note_on_c, 1, 40, 70
3, 75836, Note_off_c, 1, 45, 100
3, 75836, Note_off_c, 1, 52, 100
3, 75836, Note_off_c, 1, 40, 100
3, 75840, Note_on_c, 1, 45, 70
3, 75840, Note_on_c, 1, 33, 70
3, 76028, Note_off_c, 1, 45, 100
3, 76028, Note_off_c, 1, 33, 100
3, 76032, Note_on_c, 1, 45, 70
3, 76032, Note_on_c, 1, 38, 70
3, 76604, Note_off_c, 1, 45, 100
3, 76604, Note_off_c, 1, 38, 100
3, 76608, Note_on_c, 1, 45, 70
3, 76608, Note_on_c, 1, 33, 70
3, 77180, Note_off_c, 1, 45, 100
3, 77180, Note_off_c, 1, 33, 100
3, 77184, Note_on_c, 1, 45, 70
3, 77184, Note_on_c, 1, 33, 70
3, 77564, Note_off_c, 1, 45, 100
3, 77564, Note_off_c, 1, 33, 100
3, 77568, Note_on_c, 1, 43, 73
3, 77660, Note_off_c, 1, 43, 100
3, 77664, Note_on_c, 1, 42, 74
3, 77756, Note_off_c, 1, 42, 100
3, 77760, Note_on_c, 1, 40, 75
3, 77852, Note_off_c, 1, 40, 100
3, 77856, Note_on_c, 1, 38, 76
3, 77948, Note_off_c, 1, 38, 100
3, 77952, Note_on_c, 1, 37, 77
3, 78012, Note_off_c, 1, 37, 100
3, 78016, Note_on_c, 1, 40, 77
3, 78076, Note_off_c, 1, 40, 100
3, 78080, Note_on_c, 1, 45, 78
3, 78140, Note_off_c, 1, 45, 100
3, 78144, Note_on_c, 1, 49, 78
3, 78204, Note_off_c, 1, 49, 100
3, 78208, Note_on_c, 1, 52, 79
3, 78268, Note_off_c, 1, 52, 100
3, 78272, Note_on_c, 1, 57, 79
3, 78332, Note_off_c, 1, 57, 100
3, 78336, Note_on_c, 1, 54, 80
3, 78336, Note_on_c, 1, 42, 80
3, 78908, Note_off_c, 1, 54, 100
3, 78908, Note_off_c, 1, 42, 100
3, 78912, Note_on_c, 1, 57, 80
3, 78912, Note_on_c, 1, 45, 80
3, 79484, Note_off_c, 1, 57, 100
3, 79484, Note_off_c, 1, 45, 100
3, 79488, Note_on_c, 1, 62, 80
3, 79488, Note_on_c, 1, 50, 80
3, 80060, Note_off_c, 1, 62, 100
3, 80060, Note_off_c, 1, 50, 100
3, 80064, Note_on_c, 1, 47, 80
3, 80064, Note_on_c, 1, 59, 80
3, 80444, Note_off_c, 1, 47, 100
3, 80444, Note_off_c, 1, 59, 100
3, 80448, Note_on_c, 1, 55, 80
3, 80448, Note_on_c, 1, 43, 80
3, 80636, Note_off_c, 1, 55, 100
3, 80636, Note_off_c, 1, 43, 100
3, 80640, Note_on_c, 1, 40, 80
3, 80640, Note_on_c, 1, 52, 80
3, 81020, Note_off_c, 1, 40, 100
3, 81020, Note_off_c, 1, 52, 100
3, 81024, Note_on_c, 1, 55, 80
3, 81024, Note_on_c, 1, 52, 80
3, 81212, Note_off_c, 1, 55, 100
3, 81212, Note_off_c, 1, 52, 100
3, 81216, Note_on_c, 1, 52, 80
3, 81216, Note_on_c, 1, 49, 80
3, 81596, Note_off_c, 1, 52, 100
3, 81596, Note_off_c, 1, 49, 100
3, 81600, Note_on_c, 1, 50, 80
3, 81600, Note_on_c, 1, 47, 80
3, 81692, Note_off_c, 1, 50, 100
3, 81692, Note_off_c, 1, 47, 100
3, 81696, Note_on_c, 1, 49, 80
3, 81696, Note_on_c, 1, 46, 80
3, 81788, Note_off_c, 1, 49, 100
3, 81788, Note_off_c, 1, 46, 100
3, 81792, Control_c, 1, 64, 127
3, 81792, Note_on_c, 1, 46, 80
3, 81888, Note_on_c, 1, 49, 80
3, 81984, Note_on_c, 1, 54, 80
3, 82076, Note_off_c, 1, 46, 100
3, 82080, Note_on_c, 1, 58, 80
3, 82172, Note_off_c, 1, 49, 100
3, 82176, Note_on_c, 1, 61, 80
3, 82268, Note_off_c, 1, 54, 100
3, 82268, Note_off_c, 1, 61, 100
3, 82270, Note_off_c, 1, 58, 100
3, 82272, Note_on_c, 1, 66, 80
3, 82364, Note_off_c, 1, 66, 100
3, 82364, Control_c, 1, 64, 0
3, 82368, Control_c, 1, 64, 127
3, 82368, Note_on_c, 1, 68, 80
3, 82368, Note_on_c, 1, 66, 80
3, 82368, Note_on_c, 1, 63, 80
3, 82368, Note_on_c, 1, 60, 80
3, 82940, Note_off_c, 1, 68, 100
3, 82940, Note_off_c, 1, 66, 100
3, 82940, Note_off_c, 1, 63, 100
3, 82940, Note_off_c, 1, 60, 100
3, 82940, Control_c, 1, 64, 0
3, 82944, Key_signature, 3, "major"
3, 82944, Note_on_c, 1, 56, 80
3, 82944, Note_on_c, 1, 44, 80
3, 83324, Note_off_c, 1, 56, 100
3, 83324, Note_off_c, 1, 44, 100
3, 83328, Note_on_c, 1, 53, 80
3, 83328, Note_on_c, 1, 41, 80
3, 83516, Note_off_c, 1, 53, 100
3, 83516, Note_off_c, 1, 41, 100
3, 83520, Note_on_c, 1, 53, 80
3, 83520, Note_on_c, 1, 41, 80
3, 83708, Note_off_c, 1, 53, 100
3, 83708, Note_off_c, 1, 41, 100
3, 83712, Note_on_c, 1, 49, 80
3, 83712, Note_on_c, 1, 37, 80
3, 83900, Note_off_c, 1, 49, 100
3, 83900, Note_off_c, 1, 37, 100
3, 83904, Note_on_c, 1, 51, 80
3, 83904, Note_on_c, 1, 39, 80
3, 84092, Note_off_c, 1, 51, 100
3, 84092, Note_off_c, 1, 39, 100
3, 84096, Note_on_c, 1, 53, 80
3, 84096, Note_on_c, 1, 41, 80
3, 84476, Note_off_c, 1, 53, 100
3, 84476, Note_off_c, 1, 41, 100
3, 84480, Note_on_c, 1, 56, 80
3, 84480, Note_on_c, 1, 53, 80
3, 84668, Note_off_c, 1, 56, 100
3, 84668, Note_off_c, 1, 53, 100
3, 84672, Note_on_c, 1, 54, 80
3, 84672, Note_on_c, 1, 57, 80
3, 85052, Note_off_c, 1, 54, 100
3, 85052, Note_off_c, 1, 57, 100
3, 85056, Note_on_c, 1, 61, 80
3, 85056, Note_on_c, 1, 57, 80
3, 85244, Note_off_c, 1, 61, 100
3, 85244, Note_off_c, 1, 57, 100
3, 85248, Note_on_c, 1, 61, 80
3, 85248, Note_on_c, 1, 57, 80
3, 85628, Note_off_c, 1, 61, 100
3, 85628, Note_off_c, 1, 57, 100
3, 85632, Note_on_c, 1, 60, 80
3, 85632, Note_on_c, 1, 56, 80
3, 85820, Note_off_c, 1, 60, 100
3, 85820, Note_off_c, 1, 56, 100
3, 85824, Note_on_c, 1, 60, 80
3, 85824, Note_on_c, 1, 56, 80
3, 86012, Note_off_c, 1, 60, 100
3, 86012, Note_off_c, 1, 56, 100
3, 86016, Note_on_c, 1, 63, 80
3, 86016, Note_on_c, 1, 60, 80
3, 86204, Note_off_c, 1, 63, 100
3, 86204, Note_off_c, 1, 60, 100
3, 86208, Note_on_c, 1, 65, 80
3, 86208, Note_on_c, 1, 61, 80
3, 86396, Note_off_c, 1, 65, 100
3, 86396, Note_off_c, 1, 61, 100
3, 86400, Key_signature, -3, "major"
3, 86400, Control_c, 1, 64, 127
3, 86400, Note_on_c, 1, 62, 80
3, 86496, Note_on_c, 1, 65, 81
3, 86592, Note_on_c, 1, 68, 82
3, 86684, Note_off_c, 1, 62, 100
3, 86688, Note_on_c, 1, 74, 84
3, 86780, Note_off_c, 1, 65, 100
3, 86784, Note_on_c, 1, 77, 85
3, 86876, Note_off_c, 1, 68, 100
3, 86880, Note_on_c, 1, 80, 86
3, 86972, Note_off_c, 1, 74, 100
3, 86972, Note_off_c, 1, 80, 100
3, 86972, Control_c, 1, 64, 0
3, 86974, Note_off_c, 1, 77, 100
3, 86976, Control_c, 1, 64, 127
3, 86976, Note_on_c, 1, 82, 88
3, 86976, Note_on_c, 1, 80, 88
3, 86976, Note_on_c, 1, 77, 88
3, 86976, Note_on_c, 1, 74, 88
3, 87548, Note_off_c, 1, 82, 100
3, 87548, Note_off_c, 1, 80, 100
3, 87548, Note_off_c, 1, 77, 100
3, 87548, Note_off_c, 1, 74, 100
3, 87548, Control_c, 1, 64, 0
3, 87552, Note_on_c, 1, 43, 96
3, 87644, Note_off_c, 1, 43, 100
3, 87648, Note_on_c, 1, 46, 97
3, 87740, Note_off_c, 1, 46, 100
3, 87744, Note_on_c, 1, 51, 98
3, 87836, Note_off_c, 1, 51, 100
3, 87840, Note_on_c, 1, 55, 100
3, 87932, Note_off_c, 1, 55, 100
3, 87936, Note_on_c, 1, 58, 101
3, 88028, Note_off_c, 1, 58, 100
3, 88032, Note_on_c, 1, 63, 102
3, 88124, Note_off_c, 1, 63, 100
3, 88128, Note_on_c, 1, 46, 104
3, 88220, Note_off_c, 1, 46, 100
3, 88224, Note_on_c, 1, 51, 105
3, 88316, Note_off_c, 1, 51, 100
3, 88320, Note_on_c, 1, 55, 106
3, 88412, Note_off_c, 1, 55, 100
3, 88416, Note_on_c, 1, 58, 108
3, 88508, Note_off_c, 1, 58, 100
3, 88512, Note_on_c, 1, 56, 109
3, 88604, Note_off_c, 1, 56, 100
3, 88608, Note_on_c, 1, 53, 110
3, 88700, Note_off_c, 1, 53, 100
3, 88704, Note_on_c, 1, 51, 110
3, 88796, Note_off_c, 1, 51, 100
3, 88800, Note_on_c, 1, 55, 110
3, 88892, Note_off_c, 1, 55, 100
3, 88896, Note_on_c, 1, 58, 110
3, 88988, Note_off_c, 1, 58, 100
3, 88992, Note_on_c, 1, 63, 110
3, 89084, Note_off_c, 1, 63, 100
3, 89088, Note_on_c, 1, 44, 110
3, 89180, Note_off_c, 1, 44, 100
3, 89184, Note_on_c, 1, 56, 110
3, 89276, Note_off_c, 1, 56, 100
3, 89280, Note_on_c, 1, 47, 110
3, 89372, Note_off_c, 1, 47, 100
3, 89376, Note_on_c, 1, 51, 110
3, 89468, Note_off_c, 1, 51, 100
3, 89472, Note_on_c, 1, 56, 110
3, 89564, Note_off_c, 1, 56, 100
3, 89568, Note_on_c, 1, 59, 110
3, 89660, Note_off_c, 1, 59, 100
3, 89664, Note_on_c, 1, 49, 110
3, 89756, Note_off_c, 1, 49, 100
3, 89760, Note_on_c, 1, 61, 110
3, 89852, Note_off_c, 1, 61, 100
3, 89856, Note_on_c, 1, 46, 110
3, 89948, Note_off_c, 1, 46, 100
3, 89952, Note_on_c, 1, 49, 110
3, 90044, Note_off_c, 1, 49, 100
3, 90048, Note_on_c, 1, 54, 110
3, 90140, Note_off_c, 1, 54, 100
3, 90144, Note_on_c, 1, 58, 110
3, 90236, Note_off_c, 1, 58, 100
3, 90240, Note_on_c, 1, 49, 110
3, 90332, Note_off_c, 1, 49, 100
3, 90336, Note_on_c, 1, 61, 110
3, 90428, Note_off_c, 1, 61, 100
3, 90432, Note_on_c, 1, 51, 110
3, 90524, Note_off_c, 1, 51, 100
3, 90528, Note_on_c, 1, 55, 110
3, 90620, Note_off_c, 1, 55, 100
3, 90624, Note_on_c, 1, 58, 110
3, 90716, Note_off_c, 1, 58, 100
3, 90720, Note_on_c, 1, 61, 110
3, 90812, Note_off_c, 1, 61, 100
3, 90816, Note_on_c, 1, 55, 110
3, 90908, Note_off_c, 1, 55, 100
3, 90912, Note_on_c, 1, 58, 110
3, 91004, Note_off_c, 1, 58, 100
3, 91008, Note_on_c, 1, 56, 100
3, 91100, Note_off_c, 1, 56, 100
3, 91104, Note_on_c, 1, 59, 100
3, 91196, Note_off_c, 1, 59, 100
3, 91200, Note_on_c, 1, 63, 99
3, 91292, Note_off_c, 1, 63, 100
3, 91296, Note_on_c, 1, 68, 99
3, 91388, Note_off_c, 1, 68, 100
3, 91392, Note_on_c, 1, 60, 98
3, 91484, Note_off_c, 1, 60, 100
3, 91488, Note_on_c, 1, 63, 97
3, 91580, Note_off_c, 1, 63, 100
3, 91584, Note_on_c, 1, 61, 97
3, 91676, Note_off_c, 1, 61, 100
3, 91680, Note_on_c, 1, 64, 96
3, 91772, Note_off_c, 1, 64, 100
3, 91776, Note_on_c, 1, 68, 95
3, 91868, Note_off_c, 1, 68, 100
3, 91872, Note_on_c, 1, 73, 95
3, 91964, Note_off_c, 1, 73, 100
3, 91968, Note_on_c, 1, 64, 94
3, 92060, Note_off_c, 1, 64, 100
3, 92064, Note_on_c, 1, 68, 93
3, 92156, Note_off_c, 1, 68, 100
3, 92160, Key_signature, 0, "major"
3, 92160, Note_on_c, 1, 54, 93
3, 92252, Note_off_c, 1, 54, 100
3, 92256, Note_on_c, 1, 58, 92
3, 92348, Note_off_c, 1, 58, 100
3, 92352, Note_on_c, 1, 61, 91
3, 92444, Note_off_c, 1, 61, 100
3, 92448, Note_on_c, 1, 66, 91
3, 92540, Note_off_c, 1, 66, 100
3, 92544, Note_on_c, 1, 39, 110
3, 92636, Note_off_c, 1, 39, 100
3, 92640, Note_on_c, 1, 51, 110
3, 92732, Note_off_c, 1, 51, 100
3, 92736, Note_on_c, 1, 42, 110
3, 92828, Note_off_c, 1, 42, 100
3, 92832, Note_on_c, 1, 46, 110
3, 92924, Note_off_c, 1, 46, 100
3, 92928, Note_on_c, 1, 51, 110
3, 93020, Note_off_c, 1, 51, 100
3, 93024, Note_on_c, 1, 54, 110
3, 93116, Note_off_c, 1, 54, 100
3, 93120, Note_on_c, 1, 44, 110
3, 93212, Note_off_c, 1, 44, 100
3, 93216, Note_on_c, 1, 56, 110
3, 93308, Note_off_c, 1, 56, 100
3, 93312, Note_on_c, 1, 40, 110
3, 93404, Note_off_c, 1, 40, 100
3, 93408, Note_on_c, 1, 44, 110
3, 93500, Note_off_c, 1, 44, 100
3, 93504, Note_on_c, 1, 49, 110
3, 93596, Note_off_c, 1, 49, 100
3, 93600, Note_on_c, 1, 52, 110
3, 93692, Note_off_c, 1, 52, 100
3, 93696, Note_on_c, 1, 44, 110
3, 93788, Note_off_c, 1, 44, 100
3, 93792, Note_on_c, 1, 56, 110
3, 93884, Note_off_c, 1, 56, 100
3, 93888, Note_on_c, 1, 45, 110
3, 93980, Note_off_c, 1, 45, 100
3, 93984, Note_on_c, 1, 49, 110
3, 94076, Note_off_c, 1, 49, 100
3, 94080, Note_on_c, 1, 52, 110
3, 94172, Note_off_c, 1, 52, 100
3, 94176, Note_on_c, 1, 57, 110
3, 94268, Note_off_c, 1, 57, 100
3, 94272, Note_on_c, 1, 49, 100
3, 94364, Note_off_c, 1, 49, 100
3, 94368, Note_on_c, 1, 61, 100
3, 94460, Note_off_c, 1, 61, 100
3, 94464, Note_on_c, 1, 51, 99
3, 94560, Note_on_c, 1, 54, 98
3, 94748, Note_off_c, 1, 54, 100
3, 94844, Note_off_c, 1, 51, 100
3, 94848, Note_on_c, 1, 55, 96
3, 94940, Note_off_c, 1, 55, 100
3, 94944, Note_on_c, 1, 58, 95
3, 95036, Note_off_c, 1, 58, 100
3, 95040, Note_on_c, 1, 56, 94
3, 95132, Note_off_c, 1, 56, 100
3, 95136, Note_on_c, 1, 59, 94
3, 95228, Note_off_c, 1, 59, 100
3, 95232, Note_on_c, 1, 63, 93
3, 95324, Note_off_c, 1, 63, 100
3, 95328, Note_on_c, 1, 68, 92
3, 95420, Note_off_c, 1, 68, 100
3, 95424, Note_on_c, 1, 60, 91
3, 95516, Note_off_c, 1, 60, 100
3, 95520, Note_on_c, 1, 63, 91
3, 95612, Note_off_c, 1, 63, 100
3, 95616, Note_on_c, 1, 61, 90
3, 95708, Note_off_c, 1, 61, 100
3, 95712, Note_on_c, 1, 65, 90
3, 95804, Note_off_c, 1, 65, 100
3, 95808, Note_on_c, 1, 68, 90
3, 95900, Note_off_c, 1, 68, 100
3, 95904, Note_on_c, 1, 73, 90
3, 95996, Note_off_c, 1, 73, 100
3, 96000, Note_on_c, 1, 65, 90
3, 96092, Note_off_c, 1, 65, 100
3, 96096, Note_on_c, 1, 68, 90
3, 96188, Note_off_c, 1, 68, 100
3, 96192, Note_on_c, 1, 66, 90
3, 96284, Note_off_c, 1, 66, 100
3, 96288, Note_on_c, 1, 69, 90
3, 96380, Note_off_c, 1, 69, 100
3, 96384, Note_on_c, 1, 73, 90
3, 96476, Note_off_c, 1, 73, 100
3, 96480, Note_on_c, 1, 78, 90
3, 96572, Note_off_c, 1, 78, 100
3, 96576, Note_on_c, 1, 59, 90
3, 96668, Note_off_c, 1, 59, 100
3, 96672, Note_on_c, 1, 71, 90
3, 96672, Note_on_c, 1, 59, 90
3, 96764, Note_off_c, 1, 71, 100
3, 96764, Note_off_c, 1, 59, 100
3, 96768, Key_signature, 3, "major"
3, 96768, Control_c, 1, 64, 127
3, 96864, Note_on_c, 1, 68, 90
3, 96864, Note_on_c, 1, 56, 90
3, 97056, Note_on_c, 1, 53, 88
3, 97056, Note_on_c, 1, 65, 88
3, 97148, Note_off_c, 1, 68, 100
3, 97148, Note_off_c, 1, 56, 100
3, 97340, Note_off_c, 1, 53, 99
3, 97340, Note_off_c, 1, 65, 99
3, 97440, Note_on_c, 1, 61, 85
3, 97440, Note_on_c, 1, 49, 85
3, 97632, Note_on_c, 1, 49, 83
3, 97632, Note_on_c, 1, 37, 83
3, 97724, Note_off_c, 1, 61, 99
3, 97724, Note_off_c, 1, 49, 100
3, 97916, Note_off_c, 1, 49, 100
3, 97916, Note_off_c, 1, 37, 100
3, 98016, Note_on_c, 1, 49, 80
3, 98016, Note_on_c, 1, 37, 80
3, 98208, Note_on_c, 1, 37, 78
3, 98300, Note_off_c, 1, 49, 100
3, 98300, Note_off_c, 1, 37, 100
3, 98492, Note_off_c, 1, 37, 100
3, 98592, Note_on_c, 1, 37, 75
3, 98782, Note_off_c, 1, 37, 100
3, 98784, Note_on_c, 1, 37, 73
3, 98876, Note_off_c, 1, 37, 100
3, 98880, Note_on_c, 1, 37, 72
3, 99068, Note_off_c, 1, 37, 100
3, 99072, Note_on_c, 1, 37, 70
3, 99260, Note_off_c, 1, 37, 100
3, 99264, Note_on_c, 1, 37, 70
3, 99452, Note_off_c, 1, 37, 100
3, 99456, Note_on_c, 1, 37, 70
3, 99456, Note_on_c, 1, 44, 70
3, 99644, Note_off_c, 1, 37, 100
3, 99644, Note_off_c, 1, 44, 100
3, 99648, Note_on_c, 1, 37, 70
3, 99648, Note_on_c, 1, 44, 70
3, 99836, Note_off_c, 1, 37, 100
3, 99836, Note_off_c, 1, 44, 100
3, 99840, Note_on_c, 1, 37, 70
3, 99840, Note_on_c, 1, 44, 70
3, 100028, Note_off_c, 1, 37, 100
3, 100028, Note_off_c, 1, 44, 100
3, 100028, Control_c, 1, 64, 0
3, 100032, Note_on_c, 1, 42, 70
3, 100032, Note_on_c, 1, 37, 70
3, 100032, Note_on_c, 1, 30, 70
3, 100220, Note_off_c, 1, 42, 100
3, 100220, Note_off_c, 1, 37, 100
3, 100220, Note_off_c, 1, 30, 100
3, 100224, Note_on_c, 1, 42, 70
3, 100224, Note_on_c, 1, 37, 70
3, 100224, Note_on_c, 1, 30, 70
3, 100412, Note_off_c, 1, 42, 100
3, 100412, Note_off_c, 1, 37, 100
3, 100412, Note_off_c, 1, 30, 100
3, 100416, Note_on_c, 1, 49, 70
3, 100416, Note_on_c, 1, 42, 70
3, 100416, Note_on_c, 1, 37, 70
3, 100604, Note_off_c, 1, 49, 100
3, 100604, Note_off_c, 1, 42, 100
3, 100604, Note_off_c, 1, 37, 100
3, 100608, Note_on_c, 1, 49, 70
3, 100608, Note_on_c, 1, 42, 70
3, 100608, Note_on_c, 1, 37, 70
3, 100796, Note_off_c, 1, 49, 100
3, 100796, Note_off_c, 1, 42, 100
3, 100796, Note_off_c, 1, 37, 100
3, 100800, Note_on_c, 1, 49, 70
3, 100800, Note_on_c, 1, 42, 70
3, 100800, Note_on_c, 1, 37, 70
3, 100988, Note_off_c, 1, 49, 100
3, 100988, Note_off_c, 1, 42, 100
3, 100988, Note_off_c, 1, 37, 100
3, 100992, Note_on_c, 1, 49, 70
3, 100992, Note_on_c, 1, 42, 70
3, 100992, Note_on_c, 1, 37, 70
3, 101180, Note_off_c, 1, 49, 100
3, 101180, Note_off_c, 1, 42, 100
3, 101180, Note_off_c, 1, 37, 100
3, 101184, Note_on_c, 1, 49, 70
3, 101184, Note_on_c, 1, 41, 70
3, 101184, Note_on_c, 1, 37, 70
3, 101372, Note_off_c, 1, 49, 100
3, 101372, Note_off_c, 1, 41, 100
3, 101372, Note_off_c, 1, 37, 100
3, 101376, Note_on_c, 1, 49, 70
3, 101376, Note_on_c, 1, 42, 70
3, 101376, Note_on_c, 1, 37, 70
3, 101564, Note_off_c, 1, 49, 100
3, 101564, Note_off_c, 1, 42, 100
3, 101564, Note_off_c, 1, 37, 100
3, 101568, Note_on_c, 1, 49, 70
3, 101568, Note_on_c, 1, 42, 70
3, 101568, Note_on_c, 1, 37, 70
3, 101756, Note_off_c, 1, 49, 100
3, 101756, Note_off_c, 1, 42, 100
3, 101756, Note_off_c, 1, 37, 100
3, 101760, Note_on_c, 1, 50, 70
3, 101760, Note_on_c, 1, 42, 70
3, 101760, Note_on_c, 1, 38, 70
3, 101948, Note_off_c, 1, 50, 100
3, 101948, Note_off_c, 1, 42, 100
3, 101948, Note_off_c, 1, 38, 100
3, 101952, Note_on_c, 1, 50, 70
3, 101952, Note_on_c, 1, 42, 70
3, 101952, Note_on_c, 1, 38, 70
3, 102140, Note_off_c, 1, 50, 100
3, 102140, Note_off_c, 1, 42, 100
3, 102140, Note_off_c, 1, 38, 100
3, 102144, Note_on_c, 1, 50, 70
3, 102144, Note_on_c, 1, 42, 70
3, 102144, Note_on_c, 1, 38, 70
3, 102332, Note_off_c, 1, 50, 100
3, 102332, Note_off_c, 1, 42, 100
3, 102332, Note_off_c, 1, 38, 100
3, 102336, Note_on_c, 1, 47, 70
3, 102336, Note_on_c, 1, 42, 70
3, 102336, Note_on_c, 1, 35, 70
3, 102524, Note_off_c, 1, 47, 100
3, 102524, Note_off_c, 1, 42, 100
3, 102524, Note_off_c, 1, 35, 100
3, 102528, Note_on_c, 1, 47, 70
3, 102528, Note_on_c, 1, 42, 70
3, 102528, Note_on_c, 1, 35, 70
3, 102716, Note_off_c, 1, 47, 100
3, 102716, Note_off_c, 1, 42, 100
3, 102716, Note_off_c, 1, 35, 100
3, 102720, Note_on_c, 1, 59, 72
3, 102720, Note_on_c, 1, 54, 72
3, 102720, Note_on_c, 1, 47, 72
3, 102908, Note_off_c, 1, 59, 100
3, 102908, Note_off_c, 1, 54, 100
3, 102908, Note_off_c, 1, 47, 100
3, 102912, Note_on_c, 1, 57, 74
3, 102912, Note_on_c, 1, 54, 74
3, 102912, Note_on_c, 1, 45, 74
3, 103100, Note_off_c, 1, 57, 100
3, 103100, Note_off_c, 1, 54, 100
3, 103100, Note_off_c, 1, 45, 100
3, 103104, Note_on_c, 1, 57, 76
3, 103104, Note_on_c, 1, 54, 76
3, 103104, Note_on_c, 1, 45, 76
3, 103292, Note_off_c, 1, 57, 100
3, 103292, Note_off_c, 1, 54, 100
3, 103292, Note_off_c, 1, 45, 100
3, 103296, Note_on_c, 1, 56, 78
3, 103296, Note_on_c, 1, 49, 78
3, 103296, Note_on_c, 1, 44, 78
3, 103484, Note_off_c, 1, 56, 100
3, 103484, Note_off_c, 1, 49, 100
3, 103484, Note_off_c, 1, 44, 100
3, 103488, Note_on_c, 1, 54, 80
3, 103488, Note_on_c, 1, 49, 80
3, 103488, Note_on_c, 1, 42, 80
3, 103676, Note_off_c, 1, 54, 100
3, 103676, Note_off_c, 1, 49, 100
3, 103676, Note_off_c, 1, 42, 100
3, 103680, Note_on_c, 1, 56, 82
3, 103680, Note_on_c, 1, 49, 82
3, 103680, Note_on_c, 1, 41, 82
3, 103868, Note_off_c, 1, 56, 100
3, 103868, Note_off_c, 1, 49, 100
3, 103868, Note_off_c, 1, 41, 100
3, 103872, Note_on_c, 1, 56, 84
3, 103872, Note_on_c, 1, 49, 84
3, 103872, Note_on_c, 1, 41, 84
3, 104060, Note_off_c, 1, 56, 100
3, 104060, Note_off_c, 1, 49, 100
3, 104060, Note_off_c, 1, 41, 100
3, 104064, Note_on_c, 1, 61, 86
3, 104064, Note_on_c, 1, 59, 86
3, 104064, Note_on_c, 1, 56, 86
3, 104064, Note_on_c, 1, 53, 86
3, 104252, Note_off_c, 1, 61, 100
3, 104252, Note_off_c, 1, 59, 100
3, 104252, Note_off_c, 1, 56, 100
3, 104252, Note_off_c, 1, 53, 100
3, 104256, Note_on_c, 1, 62, 88
3, 104256, Note_on_c, 1, 59, 88
3, 104256, Note_on_c, 1, 56, 88
3, 104256, Note_on_c, 1, 53, 88
3, 104444, Note_off_c, 1, 62, 100
3, 104444, Note_off_c, 1, 59, 100
3, 104444, Note_off_c, 1, 56, 100
3, 104444, Note_off_c, 1, 53, 100
3, 104448, Note_on_c, 1, 62, 90
3, 104448, Note_on_c, 1, 59, 90
3, 104448, Note_on_c, 1, 56, 90
3, 104448, Note_on_c, 1, 53, 90
3, 104636, Note_off_c, 1, 62, 100
3, 104636, Note_off_c, 1, 59, 100
3, 104636, Note_off_c, 1, 56, 100
3, 104636, Note_off_c, 1, 53, 100
3, 104640, Note_on_c, 1, 62, 90
3, 104640, Note_on_c, 1, 59, 90
3, 104640, Note_on_c, 1, 56, 90
3, 104640, Note_on_c, 1, 53, 90
3, 104828, Note_off_c, 1, 62, 100
3, 104828, Note_off_c, 1, 59, 100
3, 104828, Note_off_c, 1, 56, 100
3, 104828, Note_off_c, 1, 53, 100
3, 104832, Note_on_c, 1, 62, 90
3, 104832, Note_on_c, 1, 59, 90
3, 104832, Note_on_c, 1, 56, 90
3, 104832, Note_on_c, 1, 53, 90
3, 105020, Note_off_c, 1, 62, 100
3, 105020, Note_off_c, 1, 59, 100
3, 105020, Note_off_c, 1, 56, 100
3, 105020, Note_off_c, 1, 53, 100
3, 105024, Note_on_c, 1, 53, 90
3, 105024, Note_on_c, 1, 44, 90
3, 105024, Note_on_c, 1, 41, 90
3, 105212, Note_off_c, 1, 53, 100
3, 105212, Note_off_c, 1, 44, 100
3, 105212, Note_off_c, 1, 41, 100
3, 105216, Note_on_c, 1, 53, 90
3, 105216, Note_on_c, 1, 44, 90
3, 105216, Note_on_c, 1, 41, 90
3, 105404, Note_off_c, 1, 53, 100
3, 105404, Note_off_c, 1, 44, 100
3, 105404, Note_off_c, 1, 41, 100
3, 105408, Note_on_c, 1, 53, 90
3, 105408, Note_on_c, 1, 44, 90
3, 105408, Note_on_c, 1, 41, 90
3, 105596, Note_off_c, 1, 53, 100
3, 105596, Note_off_c, 1, 44, 100
3, 105596, Note_off_c, 1, 41, 100
3, 105600, Note_on_c, 1, 54, 90
3, 105600, Note_on_c, 1, 45, 90
3, 105600, Note_on_c, 1, 42, 90
3, 105788, Note_off_c, 1, 54, 100
3, 105788, Note_off_c, 1, 45, 100
3, 105788, Note_off_c, 1, 42, 100
3, 105792, Note_on_c, 1, 56, 89
3, 105792, Note_on_c, 1, 47, 89
3, 105792, Note_on_c, 1, 44, 89
3, 105980, Note_off_c, 1, 56, 100
3, 105980, Note_off_c, 1, 47, 100
3, 105980, Note_off_c, 1, 44, 100
3, 105984, Note_on_c, 1, 56, 88
3, 105984, Note_on_c, 1, 47, 88
3, 105984, Note_on_c, 1, 44, 88
3, 106172, Note_off_c, 1, 56, 100
3, 106172, Note_off_c, 1, 47, 100
3, 106172, Note_off_c, 1, 44, 100
3, 106176, Note_on_c, 1, 65, 87
3, 106176, Note_on_c, 1, 62, 87
3, 106176, Note_on_c, 1, 59, 87
3, 106176, Note_on_c, 1, 56, 87
3, 106364, Note_off_c, 1, 65, 100
3, 106364, Note_off_c, 1, 62, 100
3, 106364, Note_off_c, 1, 59, 100
3, 106364, Note_off_c, 1, 56, 100
3, 106368, Note_on_c, 1, 65, 86
3, 106368, Note_on_c, 1, 62, 86
3, 106368, Note_on_c, 1, 59, 86
3, 106368, Note_on_c, 1, 56, 86
3, 106556, Note_off_c, 1, 65, 100
3, 106556, Note_off_c, 1, 62, 100
3, 106556, Note_off_c, 1, 59, 100
3, 106556, Note_off_c, 1, 56, 100
3, 106560, Note_on_c, 1, 65, 85
3, 106560, Note_on_c, 1, 62, 85
3, 106560, Note_on_c, 1, 59, 85
3, 106560, Note_on_c, 1, 56, 85
3, 106748, Note_off_c, 1, 65, 100
3, 106748, Note_off_c, 1, 62, 100
3, 106748, Note_off_c, 1, 59, 100
3, 106748, Note_off_c, 1, 56, 100
3, 106752, Note_on_c, 1, 66, 83
3, 106752, Note_on_c, 1, 61, 83
3, 106752, Note_on_c, 1, 57, 83
3, 106940, Note_off_c, 1, 66, 100
3, 106940, Note_off_c, 1, 61, 100
3, 106940, Note_off_c, 1, 57, 100
3, 106944, Note_on_c, 1, 66, 82
3, 106944, Note_on_c, 1, 62, 82
3, 106944, Note_on_c, 1, 59, 82
3, 107036, Note_off_c, 1, 66, 100
3, 107036, Note_off_c, 1, 62, 100
3, 107036, Note_off_c, 1, 59, 100
3, 107040, Note_on_c, 1, 66, 82
3, 107040, Note_on_c, 1, 63, 82
3, 107040, Note_on_c, 1, 60, 82
3, 107132, Note_off_c, 1, 66, 100
3, 107132, Note_off_c, 1, 63, 100
3, 107132, Note_off_c, 1, 60, 100
3, 107232, Note_on_c, 1, 68, 81
3, 107232, Note_on_c, 1, 66, 81
3, 107232, Note_on_c, 1, 63, 81
3, 107232, Note_on_c, 1, 60, 81
3, 107324, Note_off_c, 1, 68, 100
3, 107324, Note_off_c, 1, 66, 100
3, 107324, Note_off_c, 1, 63, 100
3, 107324, Note_off_c, 1, 60, 100
3, 107424, Note_on_c, 1, 66, 80
3, 107424, Note_on_c, 1, 63, 80
3, 107424, Note_on_c, 1, 60, 80
3, 107516, Note_off_c, 1, 66, 100
3, 107516, Note_off_c, 1, 63, 100
3, 107516, Note_off_c, 1, 60, 100
3, 107616, Note_on_c, 1, 68, 78
3, 107616, Note_on_c, 1, 66, 78
3, 107616, Note_on_c, 1, 63, 78
3, 107616, Note_on_c, 1, 60, 78
3, 107708, Note_off_c, 1, 68, 100
3, 107708, Note_off_c, 1, 66, 100
3, 107708, Note_off_c, 1, 63, 100
3, 107708, Note_off_c, 1, 60, 100
3, 107808, Note_on_c, 1, 66, 77
3, 107808, Note_on_c, 1, 63, 77
3, 107808, Note_on_c, 1, 60, 77
3, 107900, Note_off_c, 1, 66, 100
3, 107900, Note_off_c, 1, 63, 100
3, 107900, Note_off_c, 1, 60, 100
3, 108000, Note_on_c, 1, 69, 76
3, 108000, Note_on_c, 1, 66, 76
3, 108000, Note_on_c, 1, 63, 76
3, 108000, Note_on_c, 1, 60, 76
3, 108092, Note_off_c, 1, 69, 100
3, 108092, Note_off_c, 1, 66, 100
3, 108092, Note_off_c, 1, 63, 100
3, 108092, Note_off_c, 1, 60, 100
3, 108192, Note_on_c, 1, 57, 75
3, 108192, Note_on_c, 1, 54, 75
3, 108192, Note_on_c, 1, 51, 75
3, 108192, Note_on_c, 1, 48, 75
3, 108284, Note_off_c, 1, 57, 100
3, 108284, Note_off_c, 1, 54, 100
3, 108284, Note_off_c, 1, 51, 100
3, 108284, Note_off_c, 1, 48, 100
3, 108384, Note_on_c, 1, 57, 74
3, 108384, Note_on_c, 1, 54, 74
3, 108384, Note_on_c, 1, 49, 74
3, 108476, Note_off_c, 1, 57, 100
3, 108476, Note_off_c, 1, 54, 100
3, 108476, Note_off_c, 1, 49, 100
3, 108576, Note_on_c, 1, 60, 73
3, 108576, Note_on_c, 1, 57, 73
3, 108576, Note_on_c, 1, 54, 73
3, 108576, Note_on_c, 1, 49, 73
3, 108668, Note_off_c, 1, 60, 100
3, 108668, Note_off_c, 1, 57, 100
3, 108668, Note_off_c, 1, 54, 100
3, 108668, Note_off_c, 1, 49, 100
3, 108768, Note_on_c, 1, 61, 72
3, 108768, Note_on_c, 1, 57, 72
3, 108768, Note_on_c, 1, 54, 72
3, 108768, Note_on_c, 1, 49, 72
3, 108860, Note_off_c, 1, 61, 100
3, 108860, Note_off_c, 1, 57, 100
3, 108860, Note_off_c, 1, 54, 100
3, 108860, Note_off_c, 1, 49, 100
3, 108864, Note_on_c, 1, 61, 71
3, 108864, Note_on_c, 1, 56, 71
3, 108864, Note_on_c, 1, 53, 71
3, 108864, Note_on_c, 1, 49, 71
3, 109052, Note_off_c, 1, 61, 100
3, 109052, Note_off_c, 1, 56, 100
3, 109052, Note_off_c, 1, 53, 100
3, 109052, Note_off_c, 1, 49, 100
3, 109056, Note_on_c, 1, 56, 80
3, 109056, Note_on_c, 1, 53, 80
3, 109056, Note_on_c, 1, 49, 80
3, 109244, Note_off_c, 1, 56, 100
3, 109244, Note_off_c, 1, 53, 100
3, 109244, Note_off_c, 1, 49, 100
3, 109248, Note_on_c, 1, 59, 80
3, 109248, Note_on_c, 1, 56, 80
3, 109248, Note_on_c, 1, 49, 80
3, 109436, Note_off_c, 1, 59, 100
3, 109436, Note_off_c, 1, 56, 100
3, 109436, Note_off_c, 1, 49, 100
3, 109440, Note_on_c, 1, 59, 80
3, 109440, Note_on_c, 1, 56, 80
3, 109440, Note_on_c, 1, 49, 80
3, 109628, Note_off_c, 1, 59, 100
3, 109628, Note_off_c, 1, 56, 100
3, 109628, Note_off_c, 1, 49, 100
3, 109632, Note_on_c, 1, 59, 80
3, 109632, Note_on_c, 1, 56, 80
3, 109632, Note_on_c, 1, 49, 80
3, 109820, Note_off_c, 1, 59, 100
3, 109820, Note_off_c, 1, 56, 100
3, 109820, Note_off_c, 1, 49, 100
3, 109824, Note_on_c, 1, 57, 80
3, 109824, Note_on_c, 1, 54, 80
3, 109824, Note_on_c, 1, 49, 80
3, 110012, Note_off_c, 1, 57, 100
3, 110012, Note_off_c, 1, 54, 100
3, 110012, Note_off_c, 1, 49, 100
3, 110016, Note_on_c, 1, 57, 80
3, 110016, Note_on_c, 1, 54, 80
3, 110016, Note_on_c, 1, 49, 80
3, 110204, Note_off_c, 1, 57, 100
3, 110204, Note_off_c, 1, 54, 100
3, 110204, Note_off_c, 1, 49, 100
3, 110208, Note_on_c, 1, 56, 80
3, 110208, Note_on_c, 1, 53, 80
3, 110208, Note_on_c, 1, 50, 80
3, 110208, Note_on_c, 1, 47, 80
3, 110396, Note_off_c, 1, 56, 100
3, 110396, Note_off_c, 1, 53, 100
3, 110396, Note_off_c, 1, 50, 100
3, 110396, Note_off_c, 1, 47, 100
3, 110400, Note_on_c, 1, 54, 80
3, 110400, Note_on_c, 1, 51, 80
3, 110400, Note_on_c, 1, 48, 80
3, 110400, Note_on_c, 1, 45, 80
3, 110588, Note_off_c, 1, 54, 100
3, 110588, Note_off_c, 1, 51, 100
3, 110588, Note_off_c, 1, 48, 100
3, 110588, Note_off_c, 1, 45, 100
3, 110592, Note_on_c, 1, 54, 80
3, 110592, Note_on_c, 1, 51, 80
3, 110592, Note_on_c, 1, 48, 80
3, 110592, Note_on_c, 1, 45, 80
3, 110780, Note_off_c, 1, 54, 100
3, 110780, Note_off_c, 1, 51, 100
3, 110780, Note_off_c, 1, 48, 100
3, 110780, Note_off_c, 1, 45, 100
3, 110784, Note_on_c, 1, 54, 80
3, 110784, Note_on_c, 1, 51, 80
3, 110784, Note_on_c, 1, 48, 80
3, 110784, Note_on_c, 1, 45, 80
3, 110972, Note_off_c, 1, 54, 100
3, 110972, Note_off_c, 1, 51, 100
3, 110972, Note_off_c, 1, 48, 100
3, 110972, Note_off_c, 1, 45, 100
3, 110976, Note_on_c, 1, 53, 80
3, 110976, Note_on_c, 1, 49, 80
3, 110976, Note_on_c, 1, 44, 80
3, 111164, Note_off_c, 1, 53, 100
3, 111164, Note_off_c, 1, 49, 100
3, 111164, Note_off_c, 1, 44, 100
3, 111168, Note_on_c, 1, 53, 80
3, 111168, Note_on_c, 1, 49, 80
3, 111168, Note_on_c, 1, 44, 80
3, 111356, Note_off_c, 1, 53, 100
3, 111356, Note_off_c, 1, 49, 100
3, 111356, Note_off_c, 1, 44, 100
3, 111360, Note_on_c, 1, 49, 80
3, 111360, Note_on_c, 1, 53, 80
3, 111452, Note_off_c, 1, 53, 100
3, 111456, Note_on_c, 1, 53, 80
3, 111456, Note_on_c, 1, 56, 80
3, 111548, Note_off_c, 1, 49, 100
3, 111548, Note_off_c, 1, 53, 100
3, 111548, Note_off_c, 1, 56, 100
3, 111552, Note_on_c, 1, 49, 80
3, 111552, Note_on_c, 1, 56, 80
3, 111552, Note_on_c, 1, 59, 80
3, 111644, Note_off_c, 1, 56, 100
3, 111644, Note_off_c, 1, 59, 100
3, 111648, Note_on_c, 1, 59, 80
3, 111648, Note_on_c, 1, 62, 80
3, 111740, Note_off_c, 1, 49, 100
3, 111740, Note_off_c, 1, 59, 100
3, 111740, Note_off_c, 1, 62, 100
3, 111744, Note_on_c, 1, 49, 80
3, 111744, Note_on_c, 1, 59, 80
3, 111744, Note_on_c, 1, 62, 80
3, 111932, Note_off_c, 1, 49, 100
3, 111932, Note_off_c, 1, 59, 100
3, 111932, Note_off_c, 1, 62, 100
3, 111936, Note_on_c, 1, 62, 80
3, 111936, Note_on_c, 1, 59, 80
3, 111936, Note_on_c, 1, 49, 80
3, 112124, Note_off_c, 1, 62, 100
3, 112124, Note_off_c, 1, 59, 100
3, 112124, Note_off_c, 1, 49, 100
3, 112128, Note_on_c, 1, 61, 80
3, 112128, Note_on_c, 1, 57, 80
3, 112128, Note_on_c, 1, 49, 80
3, 112316, Note_off_c, 1, 61, 100
3, 112316, Note_off_c, 1, 57, 100
3, 112316, Note_off_c, 1, 49, 100
3, 112320, Note_on_c, 1, 61, 80
3, 112320, Note_on_c, 1, 57, 80
3, 112320, Note_on_c, 1, 49, 80
3, 112508, Note_off_c, 1, 61, 100
3, 112508, Note_off_c, 1, 57, 100
3, 112508, Note_off_c, 1, 49, 100
3, 112512, Note_on_c, 1, 59, 80
3, 112512, Note_on_c, 1, 56, 80
3, 112512, Note_on_c, 1, 49, 80
3, 112700, Note_off_c, 1, 59, 100
3, 112700, Note_off_c, 1, 56, 100
3, 112700, Note_off_c, 1, 49, 100
3, 112704, Note_on_c, 1, 57, 80
3, 112704, Note_on_c, 1, 54, 80
3, 112704, Note_on_c, 1, 49, 80
3, 112892, Note_off_c, 1, 57, 100
3, 112892, Note_off_c, 1, 54, 100
3, 112892, Note_off_c, 1, 49, 100
3, 112896, Note_on_c, 1, 57, 80
3, 112896, Note_on_c, 1, 54, 80
3, 112896, Note_on_c, 1, 49, 80
3, 113084, Note_off_c, 1, 57, 100
3, 113084, Note_off_c, 1, 54, 100
3, 113084, Note_off_c, 1, 49, 100
3, 113088, Note_on_c, 1, 49, 80
3, 113088, Note_on_c, 1, 60, 80
3, 113088, Note_on_c, 1, 57, 80
3, 113088, Note_on_c, 1, 54, 80
3, 113276, Note_off_c, 1, 49, 100
3, 113276, Note_off_c, 1, 60, 100
3, 113276, Note_off_c, 1, 57, 100
3, 113276, Note_off_c, 1, 54, 100
3, 113280, Note_on_c, 1, 61, 80
3, 113280, Note_on_c, 1, 56, 80
3, 113280, Note_on_c, 1, 53, 80
3, 113280, Note_on_c, 1, 49, 80
3, 113468, Note_off_c, 1, 61, 100
3, 113468, Note_off_c, 1, 56, 100
3, 113468, Note_off_c, 1, 53, 100
3, 113468, Note_off_c, 1, 49, 100
3, 113472, Note_on_c, 1, 61, 80
3, 113472, Note_on_c, 1, 56, 80
3, 113472, Note_on_c, 1, 53, 80
3, 113472, Note_on_c, 1, 49, 80
3, 113660, Note_off_c, 1, 61, 100
3, 113660, Note_off_c, 1, 56, 100
3, 113660, Note_off_c, 1, 53, 100
3, 113660, Note_off_c, 1, 49, 100
3, 113664, Note_on_c, 1, 61, 80
3, 113664, Note_on_c, 1, 56, 80
3, 113664, Note_on_c, 1, 53, 80
3, 113664, Note_on_c, 1, 49, 80
3, 113852, Note_off_c, 1, 61, 100
3, 113852, Note_off_c, 1, 56, 100
3, 113852, Note_off_c, 1, 53, 100
3, 113852, Note_off_c, 1, 49, 100
3, 113856, Note_on_c, 1, 61, 80
3, 113856, Note_on_c, 1, 55, 80
3, 113856, Note_on_c, 1, 52, 80
3, 113856, Note_on_c, 1, 49, 80
3, 113856, Note_on_c, 1, 58, 80
3, 114044, Note_off_c, 1, 61, 100
3, 114044, Note_off_c, 1, 55, 100
3, 114044, Note_off_c, 1, 52, 100
3, 114044, Note_off_c, 1, 49, 100
3, 114044, Note_off_c, 1, 58, 100
3, 114048, Note_on_c, 1, 62, 80
3, 114048, Note_on_c, 1, 59, 80
3, 114048, Note_on_c, 1, 55, 80
3, 114048, Note_on_c, 1, 50, 80
3, 114236, Note_off_c, 1, 62, 100
3, 114236, Note_off_c, 1, 59, 100
3, 114236, Note_off_c, 1, 55, 100
3, 114236, Note_off_c, 1, 50, 100
3, 114240, Note_on_c, 1, 62, 80
3, 114240, Note_on_c, 1, 59, 80
3, 114240, Note_on_c, 1, 55, 80
3, 114240, Note_on_c, 1, 50, 80
3, 114428, Note_off_c, 1, 62, 100
3, 114428, Note_off_c, 1, 59, 100
3, 114428, Note_off_c, 1, 55, 100
3, 114428, Note_off_c, 1, 50, 100
3, 114432, Note_on_c, 1, 62, 80
3, 114432, Note_on_c, 1, 59, 80
3, 114432, Note_on_c, 1, 55, 80
3, 114432, Note_on_c, 1, 50, 80
3, 114620, Note_off_c, 1, 62, 100
3, 114620, Note_off_c, 1, 59, 100
3, 114620, Note_off_c, 1, 55, 100
3, 114620, Note_off_c, 1, 50, 100
3, 114624, Note_on_c, 1, 62, 80
3, 114624, Note_on_c, 1, 59, 80
3, 114624, Note_on_c, 1, 55, 80
3, 114624, Note_on_c, 1, 50, 80
3, 114812, Note_off_c, 1, 62, 100
3, 114812, Note_off_c, 1, 59, 100
3, 114812, Note_off_c, 1, 55, 100
3, 114812, Note_off_c, 1, 50, 100
3, 114816, Note_on_c, 1, 62, 80
3, 114816, Note_on_c, 1, 59, 80
3, 114816, Note_on_c, 1, 55, 80
3, 115004, Note_off_c, 1, 62, 100
3, 115004, Note_off_c, 1, 59, 100
3, 115004, Note_off_c, 1, 55, 100
3, 115008, Note_on_c, 1, 62, 80
3, 115008, Note_on_c, 1, 59, 80
3, 115008, Note_on_c, 1, 55, 80
3, 115196, Note_off_c, 1, 62, 100
3, 115196, Note_off_c, 1, 59, 100
3, 115196, Note_off_c, 1, 55, 100
3, 115200, Note_on_c, 1, 64, 80
3, 115200, Note_on_c, 1, 61, 80
3, 115200, Note_on_c, 1, 55, 80
3, 115388, Note_off_c, 1, 64, 100
3, 115388, Note_off_c, 1, 61, 100
3, 115388, Note_off_c, 1, 55, 100
3, 115392, Note_on_c, 1, 64, 80
3, 115392, Note_on_c, 1, 61, 80
3, 115392, Note_on_c, 1, 55, 80
3, 115580, Note_off_c, 1, 64, 100
3, 115580, Note_off_c, 1, 61, 100
3, 115580, Note_off_c, 1, 55, 100
3, 115584, Note_on_c, 1, 64, 80
3, 115584, Note_on_c, 1, 61, 80
3, 115584, Note_on_c, 1, 55, 80
3, 115772, Note_off_c, 1, 64, 100
3, 115772, Note_off_c, 1, 61, 100
3, 115772, Note_off_c, 1, 55, 100
3, 115776, Note_on_c, 1, 62, 80
3, 115776, Note_on_c, 1, 59, 80
3, 115776, Note_on_c, 1, 55, 80
3, 115964, Note_off_c, 1, 62, 100
3, 115964, Note_off_c, 1, 59, 100
3, 115964, Note_off_c, 1, 55, 100
3, 115968, Note_on_c, 1, 62, 80
3, 115968, Note_on_c, 1, 59, 80
3, 115968, Note_on_c, 1, 55, 80
3, 115968, Note_on_c, 1, 50, 80
3, 116156, Note_off_c, 1, 62, 100
3, 116156, Note_off_c, 1, 59, 100
3, 116156, Note_off_c, 1, 55, 100
3, 116156, Note_off_c, 1, 50, 100
3, 116160, Note_on_c, 1, 62, 80
3, 116160, Note_on_c, 1, 57, 80
3, 116160, Note_on_c, 1, 54, 80
3, 116160, Note_on_c, 1, 50, 80
3, 116348, Note_off_c, 1, 62, 100
3, 116348, Note_off_c, 1, 57, 100
3, 116348, Note_off_c, 1, 54, 100
3, 116348, Note_off_c, 1, 50, 100
3, 116352, Note_on_c, 1, 62, 80
3, 116352, Note_on_c, 1, 57, 80
3, 116352, Note_on_c, 1, 54, 80
3, 116352, Note_on_c, 1, 50, 80
3, 116540, Note_off_c, 1, 62, 100
3, 116540, Note_off_c, 1, 57, 100
3, 116540, Note_off_c, 1, 54, 100
3, 116540, Note_off_c, 1, 50, 100
3, 116544, Note_on_c, 1, 61, 80
3, 116544, Note_on_c, 1, 57, 80
3, 116544, Note_on_c, 1, 54, 80
3, 116544, Note_on_c, 1, 49, 80
3, 116732, Note_off_c, 1, 61, 100
3, 116732, Note_off_c, 1, 57, 100
3, 116732, Note_off_c, 1, 54, 100
3, 116732, Note_off_c, 1, 49, 100
3, 116736, Note_on_c, 1, 61, 80
3, 116736, Note_on_c, 1, 57, 80
3, 116736, Note_on_c, 1, 54, 80
3, 116736, Note_on_c, 1, 49, 80
3, 116924, Note_off_c, 1, 61, 100
3, 116924, Note_off_c, 1, 57, 100
3, 116924, Note_off_c, 1, 54, 100
3, 116924, Note_off_c, 1, 49, 100
3, 116928, Note_on_c, 1, 61, 80
3, 116928, Note_on_c, 1, 56, 80
3, 116928, Note_on_c, 1, 53, 80
3, 116928, Note_on_c, 1, 49, 80
3, 117116, Note_off_c, 1, 61, 100
3, 117116, Note_off_c, 1, 56, 100
3, 117116, Note_off_c, 1, 53, 100
3, 117116, Note_off_c, 1, 49, 100
3, 117120, Note_on_c, 1, 61, 84
3, 117120, Note_on_c, 1, 56, 84
3, 117120, Note_on_c, 1, 53, 84
3, 117120, Note_on_c, 1, 49, 84
3, 117308, Note_off_c, 1, 61, 100
3, 117308, Note_off_c, 1, 56, 100
3, 117308, Note_off_c, 1, 53, 100
3, 117308, Note_off_c, 1, 49, 100
3, 117312, Note_on_c, 1, 61, 89
3, 117312, Note_on_c, 1, 56, 89
3, 117312, Note_on_c, 1, 53, 89
3, 117312, Note_on_c, 1, 49, 89
3, 117500, Note_off_c, 1, 61, 100
3, 117500, Note_off_c, 1, 56, 100
3, 117500, Note_off_c, 1, 53, 100
3, 117500, Note_off_c, 1, 49, 100
3, 117504, Note_on_c, 1, 61, 94
3, 117504, Note_on_c, 1, 56, 94
3, 117504, Note_on_c, 1, 53, 94
3, 117504, Note_on_c, 1, 49, 94
3, 117692, Note_off_c, 1, 61, 100
3, 117692, Note_off_c, 1, 56, 100
3, 117692, Note_off_c, 1, 53, 100
3, 117692, Note_off_c, 1, 49, 100
3, 117696, Note_on_c, 1, 61, 99
3, 117696, Note_on_c, 1, 56, 99
3, 117696, Note_on_c, 1, 53, 99
3, 117696, Note_on_c, 1, 49, 99
3, 117884, Note_off_c, 1, 61, 100
3, 117884, Note_off_c, 1, 56, 100
3, 117884, Note_off_c, 1, 53, 100
3, 117884, Note_off_c, 1, 49, 100
3, 117888, Note_on_c, 1, 61, 100
3, 117888, Note_on_c, 1, 57, 100
3, 117888, Note_on_c, 1, 54, 100
3, 118076, Note_off_c, 1, 61, 100
3, 118076, Note_off_c, 1, 57, 100
3, 118076, Note_off_c, 1, 54, 100
3, 118080, Note_on_c, 1, 61, 91
3, 118080, Note_on_c, 1, 57, 91
3, 118080, Note_on_c, 1, 54, 91
3, 118268, Note_off_c, 1, 61, 100
3, 118268, Note_off_c, 1, 57, 100
3, 118268, Note_off_c, 1, 54, 100
3, 118272, Note_on_c, 1, 61, 81
3, 118272, Note_on_c, 1, 57, 81
3, 118364, Note_off_c, 1, 61, 100
3, 118364, Note_off_c, 1, 57, 100
3, 118368, Note_on_c, 1, 57, 80
3, 118368, Note_on_c, 1, 49, 80
3, 118368, Note_on_c, 1, 45, 80
3, 118460, Note_off_c, 1, 57, 100
3, 118460, Note_off_c, 1, 49, 100
3, 118460, Note_off_c, 1, 45, 100
3, 118464, Note_on_c, 1, 56, 80
3, 118464, Note_on_c, 1, 49, 80
3, 118464, Note_on_c, 1, 44, 80
3, 118556, Note_off_c, 1, 56, 100
3, 118556, Note_off_c, 1, 49, 100
3, 118556, Note_off_c, 1, 44, 100
3, 118560, Note_on_c, 1, 54, 80
3, 118560, Note_on_c, 1, 49, 80
3, 118560, Note_on_c, 1, 42, 80
3, 118652, Note_off_c, 1, 54, 100
3, 118652, Note_off_c, 1, 49, 100
3, 118652, Note_off_c, 1, 42, 100
3, 118656, Note_on_c, 1, 37, 80
3, 118656, Note_on_c, 1, 49, 80
3, 118748, Note_off_c, 1, 37, 100
3, 118748, Note_off_c, 1, 49, 100
3, 118752, Note_on_c, 1, 37, 80
3, 118752, Note_on_c, 1, 25, 80
3, 118940, Note_off_c, 1, 37, 100
3, 118940, Note_off_c, 1, 25, 100
3, 118944, Note_on_c, 1, 41, 80
3, 118944, Note_on_c, 1, 29, 80
3, 119132, Note_off_c, 1, 41, 100
3, 119132, Note_off_c, 1, 29, 100
3, 119136, Note_on_c, 1, 42, 80
3, 119136, Note_on_c, 1, 30, 80
3, 119324, Note_off_c, 1, 42, 100
3, 119324, Note_off_c, 1, 30, 100
3, 119328, Note_on_c, 1, 44, 80
3, 119328, Note_on_c, 1, 32, 80
3, 119516, Note_off_c, 1, 44, 100
3, 119516, Note_off_c, 1, 32, 100
3, 119520, Note_on_c, 1, 45, 80
3, 119520, Note_on_c, 1, 33, 80
3, 119612, Note_off_c, 1, 45, 100
3, 119612, Note_off_c, 1, 33, 100
3, 119616, Note_on_c, 1, 47, 80
3, 119616, Note_on_c, 1, 35, 80
3, 119708, Note_off_c, 1, 47, 100
3, 119708, Note_off_c, 1, 35, 100
3, 119712, Note_on_c, 1, 48, 80
3, 119712, Note_on_c, 1, 36, 80
3, 119804, Note_off_c, 1, 48, 100
3, 119804, Note_off_c, 1, 36, 100
3, 119808, Note_on_c, 1, 49, 80
3, 119808, Note_on_c, 1, 37, 80
3, 119900, Note_off_c, 1, 49, 100
3, 119900, Note_off_c, 1, 37, 100
3, 119904, Note_on_c, 1, 48, 80
3, 119904, Note_on_c, 1, 36, 80
3, 119996, Note_off_c, 1, 48, 100
3, 119996, Note_off_c, 1, 36, 100
3, 120000, Note_on_c, 1, 49, 80
3, 120000, Note_on_c, 1, 37, 80
3, 120092, Note_off_c, 1, 49, 100
3, 120092, Note_off_c, 1, 37, 100
3, 120096, Note_on_c, 1, 48, 80
3, 120096, Note_on_c, 1, 36, 80
3, 120188, Note_off_c, 1, 48, 100
3, 120188, Note_off_c, 1, 36, 100
3, 120192, Note_on_c, 1, 49, 80
3, 120192, Note_on_c, 1, 37, 80
3, 120284, Note_off_c, 1, 49, 100
3, 120284, Note_off_c, 1, 37, 100
3, 120288, Note_on_c, 1, 48, 80
3, 120288, Note_on_c, 1, 36, 80
3, 120380, Note_off_c, 1, 48, 100
3, 120380, Note_off_c, 1, 36, 100
3, 120384, Note_on_c, 1, 49, 80
3, 120384, Note_on_c, 1, 37, 80
3, 120476, Note_off_c, 1, 49, 100
3, 120476, Note_off_c, 1, 37, 100
3, 120480, Note_on_c, 1, 53, 80
3, 120572, Note_off_c, 1, 53, 100
3, 120576, Note_on_c, 1, 56, 80
3, 120668, Note_off_c, 1, 56, 100
3, 120672, Note_on_c, 1, 53, 80
3, 120764, Note_off_c, 1, 53, 100
3, 120768, Note_on_c, 1, 56, 80
3, 120860, Note_off_c, 1, 56, 100
3, 120864, Note_on_c, 1, 59, 80
3, 120956, Note_off_c, 1, 59, 100
3, 120960, Note_on_c, 1, 56, 80
3, 120960, Note_on_c, 1, 53, 80
3, 120960, Note_on_c, 1, 49, 80
3, 120960, Note_on_c, 1, 59, 80
3, 121052, Note_off_c, 1, 56, 100
3, 121052, Note_off_c, 1, 53, 100
3, 121052, Note_off_c, 1, 49, 100
3, 121052, Note_off_c, 1, 59, 100
3, 121056, Note_on_c, 1, 49, 80
3, 121056, Note_on_c, 1, 37, 80
3, 121244, Note_off_c, 1, 49, 100
3, 121244, Note_off_c, 1, 37, 100
3, 121248, Note_on_c, 1, 53, 80
3, 121248, Note_on_c, 1, 41, 80
3, 121436, Note_off_c, 1, 53, 100
3, 121436, Note_off_c, 1, 41, 100
3, 121440, Note_on_c, 1, 54, 80
3, 121440, Note_on_c, 1, 42, 80
3, 121628, Note_off_c, 1, 54, 100
3, 121628, Note_off_c, 1, 42, 100
3, 121632, Note_on_c, 1, 56, 80
3, 121632, Note_on_c, 1, 44, 80
3, 121820, Note_off_c, 1, 56, 100
3, 121820, Note_off_c, 1, 44, 100
3, 121824, Note_on_c, 1, 57, 80
3, 121824, Note_on_c, 1, 45, 80
3, 121916, Note_off_c, 1, 57, 100
3, 121916, Note_off_c, 1, 45, 100
3, 121920, Note_on_c, 1, 59, 80
3, 121920, Note_on_c, 1, 47, 80
3, 122012, Note_off_c, 1, 59, 100
3, 122012, Note_off_c, 1, 47, 100
3, 122016, Note_on_c, 1, 60, 80
3, 122016, Note_on_c, 1, 48, 80
3, 122204, Note_off_c, 1, 48, 100
3, 122204, Note_off_c, 1, 60, 100
3, 122208, Note_on_c, 1, 61, 80
3, 122208, Note_on_c, 1, 49, 80
3, 122300, Note_off_c, 1, 61, 100
3, 122300, Note_off_c, 1, 49, 100
3, 122304, Note_on_c, 1, 36, 80
3, 122304, Note_on_c, 1, 48, 80
3, 122396, Note_off_c, 1, 36, 100
3, 122396, Note_off_c, 1, 48, 100
3, 122400, Note_on_c, 1, 49, 80
3, 122400, Note_on_c, 1, 37, 80
3, 122492, Note_off_c, 1, 49, 100
3, 122492, Note_off_c, 1, 37, 100
3, 122496, Note_on_c, 1, 48, 80
3, 122496, Note_on_c, 1, 36, 80
3, 122588, Note_off_c, 1, 48, 100
3, 122588, Note_off_c, 1, 36, 100
3, 122592, Note_on_c, 1, 49, 80
3, 122592, Note_on_c, 1, 37, 80
3, 122684, Note_off_c, 1, 49, 100
3, 122684, Note_off_c, 1, 37, 100
3, 122688, Note_on_c, 1, 48, 80
3, 122688, Note_on_c, 1, 36, 80
3, 122780, Note_off_c, 1, 48, 100
3, 122780, Note_off_c, 1, 36, 100
3, 122784, Note_on_c, 1, 49, 80
3, 122784, Note_on_c, 1, 37, 80
3, 122876, Note_off_c, 1, 49, 100
3, 122876, Note_off_c, 1, 37, 100
3, 122880, Note_on_c, 1, 37, 80
3, 122972, Note_off_c, 1, 37, 100
3, 122976, Note_on_c, 1, 46, 80
3, 123068, Note_off_c, 1, 46, 100
3, 123072, Note_on_c, 1, 38, 80
3, 123164, Note_off_c, 1, 38, 100
3, 123168, Note_on_c, 1, 47, 80
3, 123260, Note_off_c, 1, 47, 100
3, 123264, Note_on_c, 1, 31, 80
3, 123356, Note_off_c, 1, 31, 100
3, 123360, Note_on_c, 1, 43, 80
3, 123452, Note_off_c, 1, 43, 100
3, 123456, Note_on_c, 1, 50, 80
3, 123548, Note_off_c, 1, 50, 100
3, 123552, Note_on_c, 1, 43, 80
3, 123644, Note_off_c, 1, 43, 100
3, 123648, Note_on_c, 1, 50, 80
3, 123740, Note_off_c, 1, 50, 100
3, 123744, Note_on_c, 1, 43, 80
3, 123836, Note_off_c, 1, 43, 100
3, 123840, Note_on_c, 1, 35, 80
3, 123932, Note_off_c, 1, 35, 100
3, 123936, Note_on_c, 1, 43, 80
3, 124028, Note_off_c, 1, 43, 100
3, 124032, Note_on_c, 1, 55, 80
3, 124124, Note_off_c, 1, 55, 100
3, 124128, Note_on_c, 1, 43, 80
3, 124220, Note_off_c, 1, 43, 100
3, 124224, Note_on_c, 1, 55, 80
3, 124316, Note_off_c, 1, 55, 100
3, 124320, Note_on_c, 1, 43, 80
3, 124412, Note_off_c, 1, 43, 100
3, 124416, Note_on_c, 1, 36, 80
3, 124508, Note_off_c, 1, 36, 100
3, 124512, Note_on_c, 1, 43, 80
3, 124604, Note_off_c, 1, 43, 100
3, 124608, Note_on_c, 1, 55, 80
3, 124700, Note_off_c, 1, 55, 100
3, 124704, Note_on_c, 1, 43, 80
3, 124796, Note_off_c, 1, 43, 100
3, 124800, Note_on_c, 1, 55, 80
3, 124892, Note_off_c, 1, 55, 100
3, 124896, Note_on_c, 1, 43, 80
3, 124988, Note_off_c, 1, 43, 100
3, 124992, Note_on_c, 1, 31, 80
3, 125084, Note_off_c, 1, 31, 100
3, 125088, Note_on_c, 1, 43, 80
3, 125180, Note_off_c, 1, 43, 100
3, 125184, Note_on_c, 1, 55, 80
3, 125276, Note_off_c, 1, 55, 100
3, 125280, Note_on_c, 1, 43, 80
3, 125372, Note_off_c, 1, 43, 100
3, 125376, Note_on_c, 1, 55, 80
3, 125420, Note_off_c, 1, 55, 100
3, 125424, Note_on_c, 1, 43, 80
3, 125468, Note_off_c, 1, 43, 100
3, 125472, Note_on_c, 1, 42, 80
3, 125472, Note_on_c, 1, 38, 80
3, 125564, Note_off_c, 1, 42, 100
3, 125564, Note_off_c, 1, 38, 100
3, 125568, Note_on_c, 1, 42, 80
3, 125568, Note_on_c, 1, 38, 80
3, 125660, Note_off_c, 1, 42, 100
3, 125660, Note_off_c, 1, 38, 100
3, 125664, Note_on_c, 1, 45, 80
3, 125756, Note_off_c, 1, 45, 100
3, 125760, Note_on_c, 1, 37, 80
3, 125760, Note_on_c, 1, 42, 80
3, 125760, Note_on_c, 1, 45, 80
3, 125852, Note_off_c, 1, 37, 100
3, 125852, Note_off_c, 1, 42, 100
3, 125852, Note_off_c, 1, 45, 100
3, 125856, Note_on_c, 1, 49, 80
3, 125948, Note_off_c, 1, 49, 100
3, 125952, Note_on_c, 1, 37, 80
3, 125952, Note_on_c, 1, 42, 80
3, 125952, Note_on_c, 1, 45, 80
3, 126044, Note_off_c, 1, 37, 100
3, 126044, Note_off_c, 1, 42, 100
3, 126044, Note_off_c, 1, 45, 100
3, 126048, Note_on_c, 1, 49, 80
3, 126140, Note_off_c, 1, 49, 100
3, 126144, Note_on_c, 1, 37, 80
3, 126144, Note_on_c, 1, 41, 80
3, 126144, Note_on_c, 1, 44, 80
3, 126236, Note_off_c, 1, 37, 100
3, 126236, Note_off_c, 1, 41, 100
3, 126236, Note_off_c, 1, 44, 100
3, 126240, Note_on_c, 1, 49, 80
3, 126332, Note_off_c, 1, 49, 100
3, 126336, Note_on_c, 1, 37, 80
3, 126336, Note_on_c, 1, 41, 80
3, 126336, Note_on_c, 1, 44, 80
3, 126428, Note_off_c, 1, 37, 100
3, 126428, Note_off_c, 1, 41, 100
3, 126428, Note_off_c, 1, 44, 100
3, 126432, Note_on_c, 1, 49, 80
3, 126524, Note_off_c, 1, 49, 100
3, 126528, Note_on_c, 1, 42, 80
3, 126528, Note_on_c, 1, 45, 80
3, 126620, Note_off_c, 1, 42, 100
3, 126620, Note_off_c, 1, 45, 100
3, 126624, Note_on_c, 1, 49, 80
3, 126716, Note_off_c, 1, 49, 100
3, 126720, Note_on_c, 1, 42, 80
3, 126720, Note_on_c, 1, 45, 80
3, 126812, Note_off_c, 1, 42, 100
3, 126812, Note_off_c, 1, 45, 100
3, 126816, Note_on_c, 1, 49, 80
3, 126908, Note_off_c, 1, 49, 100
3, 126912, Note_on_c, 1, 47, 80
3, 126912, Note_on_c, 1, 35, 80
3, 127004, Note_off_c, 1, 47, 100
3, 127004, Note_off_c, 1, 35, 100
3, 127008, Note_on_c, 1, 49, 80
3, 127100, Note_off_c, 1, 49, 100
3, 127104, Note_on_c, 1, 43, 80
3, 127104, Note_on_c, 1, 35, 80
3, 127196, Note_off_c, 1, 43, 100
3, 127196, Note_off_c, 1, 35, 100
3, 127200, Note_on_c, 1, 47, 80
3, 127292, Note_off_c, 1, 47, 100
3, 127296, Note_on_c, 1, 47, 80
3, 127296, Note_on_c, 1, 35, 80
3, 127388, Note_off_c, 1, 47, 100
3, 127388, Note_off_c, 1, 35, 100
3, 127392, Note_on_c, 1, 47, 80
3, 127484, Note_off_c, 1, 47, 100
3, 127488, Note_on_c, 1, 49, 80
3, 127488, Note_on_c, 1, 37, 80
3, 127580, Note_off_c, 1, 49, 100
3, 127580, Note_off_c, 1, 37, 100
3, 127584, Note_on_c, 1, 49, 80
3, 127676, Note_off_c, 1, 49, 100
3, 127680, Note_on_c, 1, 37, 80
3, 127772, Note_off_c, 1, 37, 100
3, 127776, Note_on_c, 1, 41, 80
3, 127868, Note_off_c, 1, 41, 100
3, 127872, Note_on_c, 1, 30, 80
3, 127964, Note_off_c, 1, 30, 100
3, 127968, Note_on_c, 1, 42, 80
3, 127968, Note_on_c, 1, 37, 80
3, 128060, Note_off_c, 1, 42, 100
3, 128060, Note_off_c, 1, 37, 100
3, 128064, Note_on_c, 1, 29, 80
3, 128156, Note_off_c, 1, 29, 100
3, 128160, Note_on_c, 1, 44, 80
3, 128160, Note_on_c, 1, 37, 80
3, 128252, Note_off_c, 1, 44, 100
3, 128252, Note_off_c, 1, 37, 100
3, 128256, Note_on_c, 1, 29, 80
3, 128348, Note_off_c, 1, 29, 100
3, 128352, Note_on_c, 1, 44, 80
3, 128352, Note_on_c, 1, 37, 80
3, 128444, Note_off_c, 1, 44, 100
3, 128444, Note_off_c, 1, 37, 100
3, 128448, Note_on_c, 1, 30, 80
3, 128540, Note_off_c, 1, 30, 100
3, 128544, Note_on_c, 1, 45, 80
3, 128544, Note_on_c, 1, 37, 80
3, 128636, Note_off_c, 1, 45, 100
3, 128636, Note_off_c, 1, 37, 100
3, 128640, Note_on_c, 1, 37, 80
3, 128732, Note_off_c, 1, 37, 100
3, 128736, Note_on_c, 1, 42, 80
3, 128736, Note_on_c, 1, 49, 80
3, 128828, Note_off_c, 1, 42, 100
3, 128828, Note_off_c, 1, 49, 100
3, 128832, Note_on_c, 1, 37, 80
3, 128924, Note_off_c, 1, 37, 100
3, 128928, Note_on_c, 1, 49, 80
3, 129020, Note_off_c, 1, 49, 100
3, 129216, Note_on_c, 1, 50, 80
3, 129216, Note_on_c, 1, 38, 80
3, 129308, Note_off_c, 1, 50, 100
3, 129308, Note_off_c, 1, 38, 100
3, 129408, Note_on_c, 1, 57, 80
3, 129408, Note_on_c, 1, 62, 80
3, 129408, Note_on_c, 1, 66, 80
3, 129408, Note_on_c, 1, 69, 80
3, 129500, Note_off_c, 1, 57, 100
3, 129500, Note_off_c, 1, 62, 100
3, 129500, Note_off_c, 1, 66, 100
3, 129500, Note_off_c, 1, 69, 100
3, 129600, Note_on_c, 1, 57, 80
3, 129600, Note_on_c, 1, 62, 80
3, 129600, Note_on_c, 1, 66, 80
3, 129600, Note_on_c, 1, 69, 80
3, 129692, Note_off_c, 1, 57, 100
3, 129692, Note_off_c, 1, 62, 100
3, 129692, Note_off_c, 1, 66, 100
3, 129692, Note_off_c, 1, 69, 100
3, 129792, Note_on_c, 1, 50, 80
3, 129792, Note_on_c, 1, 38, 80
3, 129884, Note_off_c, 1, 50, 100
3, 129884, Note_off_c, 1, 38, 100
3, 129984, Note_on_c, 1, 57, 80
3, 129984, Note_on_c, 1, 62, 80
3, 129984, Note_on_c, 1, 66, 80
3, 129984, Note_on_c, 1, 69, 80
3, 130076, Note_off_c, 1, 57, 100
3, 130076, Note_off_c, 1, 62, 100
3, 130076, Note_off_c, 1, 66, 100
3, 130076, Note_off_c, 1, 69, 100
3, 130176, Note_on_c, 1, 57, 80
3, 130176, Note_on_c, 1, 62, 80
3, 130176, Note_on_c, 1, 66, 80
3, 130176, Note_on_c, 1, 69, 80
3, 130268, Note_off_c, 1, 57, 100
3, 130268, Note_off_c, 1, 62, 100
3, 130268, Note_off_c, 1, 66, 100
3, 130268, Note_off_c, 1, 69, 100
3, 130368, Note_on_c, 1, 50, 80
3, 130368, Note_on_c, 1, 38, 80
3, 130460, Note_off_c, 1, 50, 100
3, 130460, Note_off_c, 1, 38, 100
3, 130560, Note_on_c, 1, 57, 80
3, 130560, Note_on_c, 1, 62, 80
3, 130560, Note_on_c, 1, 66, 80
3, 130560, Note_on_c, 1, 69, 80
3, 130652, Note_off_c, 1, 57, 100
3, 130652, Note_off_c, 1, 62, 100
3, 130652, Note_off_c, 1, 66, 100
3, 130652, Note_off_c, 1, 69, 100
3, 130752, Note_on_c, 1, 57, 80
3, 130752, Note_on_c, 1, 62, 80
3, 130752, Note_on_c, 1, 66, 80
3, 130752, Note_on_c, 1, 69, 80
3, 130844, Note_off_c, 1, 57, 100
3, 130844, Note_off_c, 1, 62, 100
3, 130844, Note_off_c, 1, 66, 100
3, 130844, Note_off_c, 1, 69, 100
3, 130944, Note_on_c, 1, 50, 80
3, 130944, Note_on_c, 1, 38, 80
3, 131036, Note_off_c, 1, 50, 100
3, 131036, Note_off_c, 1, 38, 100
3, 131136, Note_on_c, 1, 57, 80
3, 131136, Note_on_c, 1, 62, 80
3, 131136, Note_on_c, 1, 66, 80
3, 131136, Note_on_c, 1, 69, 80
3, 131228, Note_off_c, 1, 57, 100
3, 131228, Note_off_c, 1, 62, 100
3, 131228, Note_off_c, 1, 66, 100
3, 131228, Note_off_c, 1, 69, 100
3, 131328, Note_on_c, 1, 69, 80
3, 131328, Note_on_c, 1, 64, 80
3, 131328, Note_on_c, 1, 61, 80
3, 131328, Note_on_c, 1, 57, 80
3, 131420, Note_off_c, 1, 69, 100
3, 131420, Note_off_c, 1, 64, 100
3, 131420, Note_off_c, 1, 61, 100
3, 131420, Note_off_c, 1, 57, 100
3, 131520, Note_on_c, 1, 49, 80
3, 131520, Note_on_c, 1, 37, 80
3, 131612, Note_off_c, 1, 49, 100
3, 131612, Note_off_c, 1, 37, 100
3, 131712, Note_on_c, 1, 69, 80
3, 131712, Note_on_c, 1, 64, 80
3, 131712, Note_on_c, 1, 61, 80
3, 131712, Note_on_c, 1, 57, 80
3, 131804, Note_off_c, 1, 69, 100
3, 131804, Note_off_c, 1, 64, 100
3, 131804, Note_off_c, 1, 61, 100
3, 131804, Note_off_c, 1, 57, 100
3, 131904, Note_on_c, 1, 69, 80
3, 131904, Note_on_c, 1, 64, 80
3, 131904, Note_on_c, 1, 61, 80
3, 131904, Note_on_c, 1, 57, 80
3, 131996, Note_off_c, 1, 69, 100
3, 131996, Note_off_c, 1, 64, 100
3, 131996, Note_off_c, 1, 61, 100
3, 131996, Note_off_c, 1, 57, 100
3, 132096, Note_on_c, 1, 49, 80
3, 132096, Note_on_c, 1, 37, 80
3, 132188, Note_off_c, 1, 49, 100
3, 132188, Note_off_c, 1, 37, 100
3, 132288, Note_on_c, 1, 69, 80
3, 132288, Note_on_c, 1, 64, 80
3, 132288, Note_on_c, 1, 61, 80
3, 132288, Note_on_c, 1, 57, 80
3, 132380, Note_off_c, 1, 69, 100
3, 132380, Note_off_c, 1, 64, 100
3, 132380, Note_off_c, 1, 61, 100
3, 132380, Note_off_c, 1, 57, 100
3, 132480, Note_on_c, 1, 69, 80
3, 132480, Note_on_c, 1, 64, 80
3, 132480, Note_on_c, 1, 61, 80
3, 132480, Note_on_c, 1, 57, 80
3, 132572, Note_off_c, 1, 69, 100
3, 132572, Note_off_c, 1, 64, 100
3, 132572, Note_off_c, 1, 61, 100
3, 132572, Note_off_c, 1, 57, 100
3, 132672, Note_on_c, 1, 49, 80
3, 132672, Note_on_c, 1, 37, 80
3, 132764, Note_off_c, 1, 49, 100
3, 132764, Note_off_c, 1, 37, 100
3, 132864, Note_on_c, 1, 69, 80
3, 132864, Note_on_c, 1, 64, 80
3, 132864, Note_on_c, 1, 61, 80
3, 132864, Note_on_c, 1, 57, 80
3, 132956, Note_off_c, 1, 69, 100
3, 132956, Note_off_c, 1, 64, 100
3, 132956, Note_off_c, 1, 61, 100
3, 132956, Note_off_c, 1, 57, 100
3, 133056, Note_on_c, 1, 69, 80
3, 133056, Note_on_c, 1, 64, 80
3, 133056, Note_on_c, 1, 61, 80
3, 133056, Note_on_c, 1, 57, 80
3, 133148, Note_off_c, 1, 69, 100
3, 133148, Note_off_c, 1, 64, 100
3, 133148, Note_off_c, 1, 61, 100
3, 133148, Note_off_c, 1, 57, 100
3, 133248, Note_on_c, 1, 49, 80
3, 133248, Note_on_c, 1, 37, 80
3, 133340, Note_off_c, 1, 49, 100
3, 133340, Note_off_c, 1, 37, 100
3, 133440, Note_on_c, 1, 69, 80
3, 133440, Note_on_c, 1, 64, 80
3, 133440, Note_on_c, 1, 61, 80
3, 133440, Note_on_c, 1, 57, 80
3, 133532, Note_off_c, 1, 69, 100
3, 133532, Note_off_c, 1, 64, 100
3, 133532, Note_off_c, 1, 61, 100
3, 133532, Note_off_c, 1, 57, 100
3, 133632, Note_on_c, 1, 66, 80
3, 133632, Note_on_c, 1, 62, 80
3, 133632, Note_on_c, 1, 57, 80
3, 133632, Note_on_c, 1, 69, 80
3, 133724, Note_off_c, 1, 66, 100
3, 133724, Note_off_c, 1, 62, 100
3, 133724, Note_off_c, 1, 57, 100
3, 133724, Note_off_c, 1, 69, 100
3, 133824, Note_on_c, 1, 50, 83
3, 133824, Note_on_c, 1, 38, 83
3, 133916, Note_off_c, 1, 50, 100
3, 133916, Note_off_c, 1, 38, 100
3, 134016, Note_on_c, 1, 66, 87
3, 134016, Note_on_c, 1, 62, 87
3, 134016, Note_on_c, 1, 57, 87
3, 134016, Note_on_c, 1, 54, 87
3, 134108, Note_off_c, 1, 66, 100
3, 134108, Note_off_c, 1, 62, 100
3, 134108, Note_off_c, 1, 57, 100
3, 134108, Note_off_c, 1, 54, 100
3, 134208, Note_on_c, 1, 66, 90
3, 134208, Note_on_c, 1, 62, 90
3, 134208, Note_on_c, 1, 59, 90
3, 134208, Note_on_c, 1, 54, 90
3, 134300, Note_off_c, 1, 66, 100
3, 134300, Note_off_c, 1, 62, 100
3, 134300, Note_off_c, 1, 59, 100
3, 134300, Note_off_c, 1, 54, 100
3, 134400, Note_on_c, 1, 47, 94
3, 134400, Note_on_c, 1, 35, 94
3, 134492, Note_off_c, 1, 47, 100
3, 134492, Note_off_c, 1, 35, 100
3, 134592, Note_on_c, 1, 66, 98
3, 134592, Note_on_c, 1, 62, 98
3, 134592, Note_on_c, 1, 59, 98
3, 134592, Note_on_c, 1, 54, 98
3, 134684, Note_off_c, 1, 66, 100
3, 134684, Note_off_c, 1, 62, 100
3, 134684, Note_off_c, 1, 59, 100
3, 134684, Note_off_c, 1, 54, 100
3, 134784, Note_on_c, 1, 66, 100
3, 134784, Note_on_c, 1, 64, 100
3, 134784, Note_on_c, 1, 61, 100
3, 134784, Note_on_c, 1, 58, 100
3, 134784, Note_on_c, 1, 54, 100
3, 134876, Note_off_c, 1, 66, 100
3, 134876, Note_off_c, 1, 64, 100
3, 134876, Note_off_c, 1, 61, 100
3, 134876, Note_off_c, 1, 58, 100
3, 134876, Note_off_c, 1, 54, 100
3, 134976, Note_on_c, 1, 46, 100
3, 134976, Note_on_c, 1, 34, 100
3, 135068, Note_off_c, 1, 46, 100
3, 135068, Note_off_c, 1, 34, 100
3, 135168, Note_on_c, 1, 67, 100
3, 135168, Note_on_c, 1, 64, 100
3, 135168, Note_on_c, 1, 61, 100
3, 135168, Note_on_c, 1, 58, 100
3, 135168, Note_on_c, 1, 55, 100
3, 135260, Note_off_c, 1, 67, 100
3, 135260, Note_off_c, 1, 64, 100
3, 135260, Note_off_c, 1, 61, 100
3, 135260, Note_off_c, 1, 58, 100
3, 135260, Note_off_c, 1, 55, 100
3, 135360, Note_on_c, 1, 67, 80
3, 135360, Note_on_c, 1, 64, 80
3, 135360, Note_on_c, 1, 61, 80
3, 135360, Note_on_c, 1, 58, 80
3, 135360, Note_on_c, 1, 55, 80
3, 135452, Note_off_c, 1, 67, 100
3, 135452, Note_off_c, 1, 64, 100
3, 135452, Note_off_c, 1, 61, 100
3, 135452, Note_off_c, 1, 58, 100
3, 135452, Note_off_c, 1, 55, 100
3, 135552, Note_on_c, 1, 46, 80
3, 135552, Note_on_c, 1, 34, 80
3, 135644, Note_off_c, 1, 46, 100
3, 135644, Note_off_c, 1, 34, 100
3, 135744, Note_on_c, 1, 67, 80
3, 135744, Note_on_c, 1, 64, 80
3, 135744, Note_on_c, 1, 61, 80
3, 135744, Note_on_c, 1, 58, 80
3, 135744, Note_on_c, 1, 55, 80
3, 135836, Note_off_c, 1, 67, 100
3, 135836, Note_off_c, 1, 64, 100
3, 135836, Note_off_c, 1, 61, 100
3, 135836, Note_off_c, 1, 58, 100
3, 135836, Note_off_c, 1, 55, 100
3, 135936, Note_on_c, 1, 67, 80
3, 135936, Note_on_c, 1, 64, 80
3, 135936, Note_on_c, 1, 61, 80
3, 135936, Note_on_c, 1, 58, 80
3, 135936, Note_on_c, 1, 55, 80
3, 136028, Note_off_c, 1, 67, 100
3, 136028, Note_off_c, 1, 64, 100
3, 136028, Note_off_c, 1, 61, 100
3, 136028, Note_off_c, 1, 58, 100
3, 136028, Note_off_c, 1, 55, 100
3, 136128, Note_on_c, 1, 46, 80
3, 136128, Note_on_c, 1, 34, 80
3, 136220, Note_off_c, 1, 46, 100
3, 136220, Note_off_c, 1, 34, 100
3, 136320, Note_on_c, 1, 67, 80
3, 136320, Note_on_c, 1, 64, 80
3, 136320, Note_on_c, 1, 61, 80
3, 136320, Note_on_c, 1, 58, 80
3, 136320, Note_on_c, 1, 55, 80
3, 136412, Note_off_c, 1, 67, 100
3, 136412, Note_off_c, 1, 64, 100
3, 136412, Note_off_c, 1, 61, 100
3, 136412, Note_off_c, 1, 58, 100
3, 136412, Note_off_c, 1, 55, 100
3, 136512, Note_on_c, 1, 66, 80
3, 136512, Note_on_c, 1, 64, 80
3, 136512, Note_on_c, 1, 61, 80
3, 136512, Note_on_c, 1, 58, 80
3, 136512, Note_on_c, 1, 54, 80
3, 136604, Note_off_c, 1, 66, 100
3, 136604, Note_off_c, 1, 64, 100
3, 136604, Note_off_c, 1, 61, 100
3, 136604, Note_off_c, 1, 58, 100
3, 136604, Note_off_c, 1, 54, 100
3, 136704, Note_on_c, 1, 46, 80
3, 136704, Note_on_c, 1, 34, 80
3, 136796, Note_off_c, 1, 46, 100
3, 136796, Note_off_c, 1, 34, 100
3, 136896, Note_on_c, 1, 66, 80
3, 136896, Note_on_c, 1, 64, 80
3, 136896, Note_on_c, 1, 61, 80
3, 136896, Note_on_c, 1, 58, 80
3, 136896, Note_on_c, 1, 54, 80
3, 136988, Note_off_c, 1, 66, 100
3, 136988, Note_off_c, 1, 64, 100
3, 136988, Note_off_c, 1, 61, 100
3, 136988, Note_off_c, 1, 58, 100
3, 136988, Note_off_c, 1, 54, 100
3, 137088, Note_on_c, 1, 66, 80
3, 137088, Note_on_c, 1, 62, 80
3, 137088, Note_on_c, 1, 59, 80
3, 137088, Note_on_c, 1, 54, 80
3, 137180, Note_off_c, 1, 66, 100
3, 137180, Note_off_c, 1, 62, 100
3, 137180, Note_off_c, 1, 59, 100
3, 137180, Note_off_c, 1, 54, 100
3, 137280, Note_on_c, 1, 47, 80
3, 137280, Note_on_c, 1, 35, 80
3, 137372, Note_off_c, 1, 47, 100
3, 137372, Note_off_c, 1, 35, 100
3, 137472, Note_on_c, 1, 66, 80
3, 137472, Note_on_c, 1, 62, 80
3, 137472, Note_on_c, 1, 59, 80
3, 137472, Note_on_c, 1, 54, 80
3, 137564, Note_off_c, 1, 66, 100
3, 137564, Note_off_c, 1, 62, 100
3, 137564, Note_off_c, 1, 59, 100
3, 137564, Note_off_c, 1, 54, 100
3, 137664, Note_on_c, 1, 66, 80
3, 137664, Note_on_c, 1, 64, 80
3, 137664, Note_on_c, 1, 58, 80
3, 137664, Note_on_c, 1, 54, 80
3, 137756, Note_off_c, 1, 66, 100
3, 137756, Note_off_c, 1, 64, 100
3, 137756, Note_off_c, 1, 58, 100
3, 137756, Note_off_c, 1, 54, 100
3, 137856, Note_on_c, 1, 49, 80
3, 137856, Note_on_c, 1, 37, 80
3, 137948, Note_off_c, 1, 49, 100
3, 137948, Note_off_c, 1, 37, 100
3, 138048, Note_on_c, 1, 66, 80
3, 138048, Note_on_c, 1, 64, 80
3, 138048, Note_on_c, 1, 58, 80
3, 138048, Note_on_c, 1, 54, 80
3, 138140, Note_off_c, 1, 66, 100
3, 138140, Note_off_c, 1, 64, 100
3, 138140, Note_off_c, 1, 58, 100
3, 138140, Note_off_c, 1, 54, 100
3, 138240, Note_on_c, 1, 66, 80
3, 138240, Note_on_c, 1, 62, 80
3, 138240, Note_on_c, 1, 59, 80
3, 138240, Note_on_c, 1, 54, 80
3, 138332, Note_off_c, 1, 66, 100
3, 138332, Note_off_c, 1, 62, 100
3, 138332, Note_off_c, 1, 59, 100
3, 138332, Note_off_c, 1, 54, 100
3, 138432, Note_on_c, 1, 47, 80
3, 138432, Note_on_c, 1, 35, 80
3, 138524, Note_off_c, 1, 47, 100
3, 138524, Note_off_c, 1, 35, 100
3, 138624, Note_on_c, 1, 66, 80
3, 138624, Note_on_c, 1, 62, 80
3, 138624, Note_on_c, 1, 59, 80
3, 138624, Note_on_c, 1, 54, 80
3, 138716, Note_off_c, 1, 66, 100
3, 138716, Note_off_c, 1, 62, 100
3, 138716, Note_off_c, 1, 59, 100
3, 138716, Note_off_c, 1, 54, 100
3, 138816, Note_on_c, 1, 66, 80
3, 138816, Note_on_c, 1, 64, 80
3, 138816, Note_on_c, 1, 58, 80
3, 138816, Note_on_c, 1, 54, 80
3, 138908, Note_off_c, 1, 66, 100
3, 138908, Note_off_c, 1, 64, 100
3, 138908, Note_off_c, 1, 58, 100
3, 138908, Note_off_c, 1, 54, 100
3, 139008, Note_on_c, 1, 49, 80
3, 139008, Note_on_c, 1, 37, 80
3, 139100, Note_off_c, 1, 49, 100
3, 139100, Note_off_c, 1, 37, 100
3, 139200, Note_on_c, 1, 66, 80
3, 139200, Note_on_c, 1, 64, 80
3, 139200, Note_on_c, 1, 58, 80
3, 139200, Note_on_c, 1, 54, 80
3, 139292, Note_off_c, 1, 66, 100
3, 139292, Note_off_c, 1, 64, 100
3, 139292, Note_off_c, 1, 58, 100
3, 139292, Note_off_c, 1, 54, 100
3, 139392, Note_on_c, 1, 66, 80
3, 139392, Note_on_c, 1, 62, 80
3, 139392, Note_on_c, 1, 59, 80
3, 139392, Note_on_c, 1, 54, 80
3, 139484, Note_off_c, 1, 66, 100
3, 139484, Note_off_c, 1, 62, 100
3, 139484, Note_off_c, 1, 59, 100
3, 139484, Note_off_c, 1, 54, 100
3, 139584, Note_on_c, 1, 50, 82
3, 139584, Note_on_c, 1, 38, 82
3, 139676, Note_off_c, 1, 50, 100
3, 139676, Note_off_c, 1, 38, 100
3, 139776, Note_on_c, 1, 61, 84
3, 139776, Note_on_c, 1, 54, 84
3, 139776, Note_on_c, 1, 49, 84
3, 139868, Note_off_c, 1, 61, 100
3, 139868, Note_off_c, 1, 54, 100
3, 139868, Note_off_c, 1, 49, 100
3, 139968, Note_on_c, 1, 59, 87
3, 139968, Note_on_c, 1, 54, 87
3, 139968, Note_on_c, 1, 47, 87
3, 140060, Note_off_c, 1, 59, 100
3, 140060, Note_off_c, 1, 54, 100
3, 140060, Note_off_c, 1, 47, 100
3, 140160, Note_on_c, 1, 47, 89
3, 140160, Note_on_c, 1, 35, 89
3, 140252, Note_off_c, 1, 47, 100
3, 140252, Note_off_c, 1, 35, 100
3, 140352, Note_on_c, 1, 57, 92
3, 140352, Note_on_c, 1, 45, 92
3, 140444, Note_off_c, 1, 57, 100
3, 140444, Note_off_c, 1, 45, 100
3, 140544, Note_on_c, 1, 56, 94
3, 140544, Note_on_c, 1, 44, 94
3, 140636, Note_off_c, 1, 56, 100
3, 140636, Note_off_c, 1, 44, 100
3, 140736, Note_on_c, 1, 44, 97
3, 140736, Note_on_c, 1, 32, 97
3, 140828, Note_off_c, 1, 44, 100
3, 140828, Note_off_c, 1, 32, 100
3, 140928, Note_on_c, 1, 54, 99
3, 140928, Note_on_c, 1, 42, 99
3, 141020, Note_off_c, 1, 54, 100
3, 141020, Note_off_c, 1, 42, 100
3, 141120, Note_on_c, 1, 53, 102
3, 141120, Note_on_c, 1, 41, 102
3, 141212, Note_off_c, 1, 53, 100
3, 141212, Note_off_c, 1, 41, 100
3, 141216, Note_on_c, 1, 65, 103
3, 141216, Note_on_c, 1, 53, 103
3, 141308, Note_off_c, 1, 65, 100
3, 141308, Note_off_c, 1, 53, 100
3, 141312, Note_on_c, 1, 53, 104
3, 141312, Note_on_c, 1, 41, 104
3, 141404, Note_off_c, 1, 53, 100
3, 141404, Note_off_c, 1, 41, 100
3, 141408, Note_on_c, 1, 65, 106
3, 141408, Note_on_c, 1, 53, 106
3, 141500, Note_off_c, 1, 65, 100
3, 141500, Note_off_c, 1, 53, 100
3, 141504, Note_on_c, 1, 51, 107
3, 141504, Note_on_c, 1, 39, 107
3, 141596, Note_off_c, 1, 51, 100
3, 141596, Note_off_c, 1, 39, 100
3, 141600, Note_on_c, 1, 63, 108
3, 141600, Note_on_c, 1, 51, 108
3, 141692, Note_off_c, 1, 63, 100
3, 141692, Note_off_c, 1, 51, 100
3, 141696, Note_on_c, 1, 49, 109
3, 141696, Note_on_c, 1, 37, 109
3, 141884, Note_off_c, 1, 49, 100
3, 141884, Note_off_c, 1, 37, 100
3, 141888, Note_on_c, 1, 68, 80
3, 141888, Note_on_c, 1, 65, 80
3, 141888, Note_on_c, 1, 61, 80
3, 142076, Note_off_c, 1, 68, 100
3, 142076, Note_off_c, 1, 65, 100
3, 142080, Note_on_c, 1, 70, 80
3, 142080, Note_on_c, 1, 66, 80
3, 142268, Note_off_c, 1, 61, 100
3, 142268, Note_off_c, 1, 66, 100
3, 142272, Note_on_c, 1, 61, 80
3, 142272, Note_on_c, 1, 67, 80
3, 142364, Note_off_c, 1, 70, 100
3, 142364, Note_off_c, 1, 67, 100
3, 142368, Note_on_c, 1, 70, 80
3, 142368, Note_on_c, 1, 66, 80
3, 142460, Note_off_c, 1, 70, 100
3, 142460, Note_off_c, 1, 66, 100
3, 142464, Note_on_c, 1, 73, 80
3, 142464, Note_on_c, 1, 70, 80
3, 142556, Note_off_c, 1, 73, 100
3, 142556, Note_off_c, 1, 70, 100
3, 142560, Note_on_c, 1, 71, 80
3, 142560, Note_on_c, 1, 68, 80
3, 142652, Note_off_c, 1, 71, 100
3, 142652, Note_off_c, 1, 68, 100
3, 142656, Note_on_c, 1, 70, 80
3, 142656, Note_on_c, 1, 66, 80
3, 142748, Note_off_c, 1, 70, 100
3, 142748, Note_off_c, 1, 66, 100
3, 142752, Note_on_c, 1, 71, 80
3, 142752, Note_on_c, 1, 68, 80
3, 142844, Note_off_c, 1, 61, 100
3, 142844, Note_off_c, 1, 71, 100
3, 142844, Note_off_c, 1, 68, 100
3, 142848, Key_signature, 6, "major"
3, 142848, Note_on_c, 1, 70, 80
3, 142848, Note_on_c, 1, 66, 80
3, 142848, Note_on_c, 1, 61, 80
3, 142940, Note_off_c, 1, 70, 100
3, 142940, Note_off_c, 1, 66, 100
3, 142944, Note_on_c, 1, 69, 80
3, 142944, Note_on_c, 1, 66, 80
3, 143036, Note_off_c, 1, 69, 100
3, 143036, Note_off_c, 1, 66, 100
3, 143040, Note_on_c, 1, 68, 80
3, 143040, Note_on_c, 1, 65, 80
3, 143420, Note_off_c, 1, 61, 100
3, 143424, Note_on_c, 1, 61, 80
3, 143516, Note_off_c, 1, 68, 100
3, 143516, Note_off_c, 1, 65, 100
3, 143520, Note_on_c, 1, 68, 80
3, 143520, Note_on_c, 1, 65, 80
3, 143612, Note_off_c, 1, 68, 100
3, 143612, Note_off_c, 1, 65, 100
3, 143616, Note_on_c, 1, 71, 80
3, 143616, Note_on_c, 1, 68, 80
3, 143708, Note_off_c, 1, 71, 100
3, 143708, Note_off_c, 1, 68, 100
3, 143712, Note_on_c, 1, 70, 80
3, 143712, Note_on_c, 1, 66, 80
3, 143804, Note_off_c, 1, 70, 100
3, 143804, Note_off_c, 1, 66, 100
3, 143808, Note_on_c, 1, 68, 80
3, 143808, Note_on_c, 1, 65, 80
3, 143900, Note_off_c, 1, 68, 100
3, 143900, Note_off_c, 1, 65, 100
3, 143904, Note_on_c, 1, 70, 80
3, 143904, Note_on_c, 1, 66, 80
3, 143996, Note_off_c, 1, 61, 100
3, 143996, Note_off_c, 1, 70, 100
3, 143996, Note_off_c, 1, 66, 100
3, 144000, Note_on_c, 1, 67, 80
3, 144000, Note_on_c, 1, 64, 80
3, 144000, Note_on_c, 1, 61, 80
3, 144188, Note_off_c, 1, 67, 100
3, 144188, Note_off_c, 1, 64, 100
3, 144192, Note_on_c, 1, 68, 80
3, 144192, Note_on_c, 1, 65, 80
3, 144380, Note_off_c, 1, 68, 100
3, 144380, Note_off_c, 1, 65, 100
3, 144384, Note_on_c, 1, 68, 80
3, 144384, Note_on_c, 1, 65, 80
3, 144384, Note_on_c, 1, 62, 80
3, 144572, Note_off_c, 1, 61, 100
3, 144572, Note_off_c, 1, 68, 100
3, 144572, Note_off_c, 1, 65, 100
3, 144572, Note_off_c, 1, 62, 100
3, 144576, Note_on_c, 1, 62, 80
3, 144576, Note_on_c, 1, 68, 80
3, 144668, Note_off_c, 1, 68, 100
3, 144672, Note_on_c, 1, 65, 80
3, 144764, Note_off_c, 1, 62, 100
3, 144764, Note_off_c, 1, 65, 100
3, 144768, Note_on_c, 1, 63, 80
3, 144768, Note_on_c, 1, 68, 80
3, 144860, Note_off_c, 1, 68, 100
3, 144864, Note_on_c, 1, 66, 80
3, 144956, Note_off_c, 1, 63, 100
3, 144956, Note_off_c, 1, 66, 100
3, 144960, Note_on_c, 1, 60, 80
3, 144960, Note_on_c, 1, 65, 80
3, 145052, Note_off_c, 1, 65, 100
3, 145056, Note_on_c, 1, 66, 80
3, 145148, Note_off_c, 1, 60, 100
3, 145148, Note_off_c, 1, 66, 100
3, 145152, Note_on_c, 1, 60, 80
3, 145152, Note_on_c, 1, 66, 80
3, 145244, Note_off_c, 1, 66, 100
3, 145248, Note_on_c, 1, 63, 80
3, 145340, Note_off_c, 1, 60, 100
3, 145340, Note_off_c, 1, 63, 100
3, 145344, Note_on_c, 1, 59, 80
3, 145344, Note_on_c, 1, 66, 80
3, 145436, Note_off_c, 1, 66, 100
3, 145440, Note_on_c, 1, 65, 80
3, 145532, Note_off_c, 1, 59, 100
3, 145532, Note_off_c, 1, 65, 100
3, 145536, Note_on_c, 1, 58, 80
3, 145536, Note_on_c, 1, 66, 80
3, 145628, Note_off_c, 1, 66, 100
3, 145632, Note_on_c, 1, 61, 80
3, 145724, Note_off_c, 1, 58, 100
3, 145724, Note_off_c, 1, 61, 100
3, 145728, Note_on_c, 1, 61, 80
3, 145728, Note_on_c, 1, 56, 80
3, 145728, Note_on_c, 1, 66, 80
3, 145820, Note_off_c, 1, 66, 100
3, 145824, Note_on_c, 1, 65, 80
3, 145916, Note_off_c, 1, 61, 100
3, 145916, Note_off_c, 1, 56, 100
3, 145916, Note_off_c, 1, 65, 100
3, 145920, Note_on_c, 1, 61, 80
3, 145920, Note_on_c, 1, 54, 80
3, 145920, Note_on_c, 1, 66, 80
3, 146108, Note_off_c, 1, 61, 100
3, 146108, Note_off_c, 1, 54, 100
3, 146108, Note_off_c, 1, 66, 100
3, 146112, Note_on_c, 1, 59, 80
3, 146112, Note_on_c, 1, 47, 80
3, 146300, Note_off_c, 1, 59, 100
3, 146304, Note_on_c, 1, 59, 80
3, 146396, Note_off_c, 1, 59, 100
3, 146400, Note_on_c, 1, 53, 80
3, 146492, Note_off_c, 1, 47, 100
3, 146492, Note_off_c, 1, 53, 100
3, 146496, Note_on_c, 1, 46, 80
3, 146496, Note_on_c, 1, 56, 80
3, 146588, Note_off_c, 1, 56, 100
3, 146592, Note_on_c, 1, 54, 80
3, 146684, Note_off_c, 1, 46, 100
3, 146684, Note_off_c, 1, 54, 100
3, 146688, Note_on_c, 1, 45, 80
3, 146688, Note_on_c, 1, 51, 80
3, 146780, Note_off_c, 1, 51, 100
3, 146784, Note_on_c, 1, 49, 80
3, 146876, Note_off_c, 1, 45, 100
3, 146876, Note_off_c, 1, 49, 100
3, 146880, Note_on_c, 1, 44, 80
3, 146880, Note_on_c, 1, 48, 80
3, 146972, Note_off_c, 1, 48, 100
3, 146976, Note_on_c, 1, 49, 80
3, 147068, Note_off_c, 1, 44, 100
3, 147068, Note_off_c, 1, 49, 100
3, 147072, Note_on_c, 1, 39, 80
3, 147164, Note_off_c, 1, 39, 100
3, 147168, Note_on_c, 1, 37, 80
3, 147260, Note_off_c, 1, 37, 100
3, 147264, Note_on_c, 1, 36, 80
3, 147356, Note_off_c, 1, 36, 100
3, 147360, Note_on_c, 1, 37, 80
3, 147452, Note_off_c, 1, 37, 100
3, 147456, Control_c, 1, 64, 127
3, 147456, Note_on_c, 1, 37, 80
3, 147552, Note_on_c, 1, 56, 80
3, 147648, Note_on_c, 1, 53, 80
3, 147740, Note_off_c, 1, 37, 100
3, 147744, Note_on_c, 1, 59, 80
3, 147836, Note_off_c, 1, 56, 100
3, 147840, Note_on_c, 1, 56, 80
3, 147932, Note_off_c, 1, 53, 100
3, 147936, Note_on_c, 1, 62, 80
3, 148028, Note_off_c, 1, 59, 100
3, 148028, Note_off_c, 1, 62, 100
3, 148028, Control_c, 1, 64, 0
3, 148030, Note_off_c, 1, 56, 100
3, 148032, Note_on_c, 1, 60, 80
3, 148124, Note_off_c, 1, 60, 100
3, 148128, Note_on_c, 1, 61, 80
3, 148220, Note_off_c, 1, 61, 100
3, 148224, Note_on_c, 1, 56, 80
3, 148316, Note_off_c, 1, 56, 100
3, 148320, Note_on_c, 1, 63, 80
3, 148412, Note_off_c, 1, 63, 100
3, 148416, Note_on_c, 1, 61, 80
3, 148508, Note_off_c, 1, 61, 100
3, 148512, Note_on_c, 1, 59, 80
3, 148604, Note_off_c, 1, 59, 100
3, 148608, Note_on_c, 1, 58, 80
3, 148608, Note_on_c, 1, 54, 80
3, 148700, Note_off_c, 1, 58, 100
3, 148704, Note_on_c, 1, 63, 80
3, 148796, Note_off_c, 1, 63, 100
3, 148800, Note_on_c, 1, 60, 80
3, 148892, Note_off_c, 1, 60, 100
3, 148896, Note_on_c, 1, 61, 80
3, 148988, Note_off_c, 1, 61, 100
3, 148992, Note_on_c, 1, 58, 80
3, 149084, Note_off_c, 1, 58, 100
3, 149088, Note_on_c, 1, 63, 80
3, 149180, Note_off_c, 1, 63, 100
3, 149184, Note_on_c, 1, 60, 80
3, 149276, Note_off_c, 1, 60, 100
3, 149280, Note_on_c, 1, 61, 80
3, 149372, Note_off_c, 1, 61, 100
3, 149376, Note_on_c, 1, 58, 80
3, 149468, Note_off_c, 1, 58, 100
3, 149472, Note_on_c, 1, 63, 80
3, 149564, Note_off_c, 1, 54, 100
3, 149564, Note_off_c, 1, 63, 100
3, 149568, Note_on_c, 1, 54, 80
3, 149568, Note_on_c, 1, 58, 80
3, 149660, Note_off_c, 1, 58, 100
3, 149664, Note_on_c, 1, 61, 80
3, 149756, Note_off_c, 1, 54, 100
3, 149756, Note_off_c, 1, 61, 100
3, 149760, Note_on_c, 1, 56, 80
3, 149760, Note_on_c, 1, 53, 80
3, 149852, Note_off_c, 1, 56, 100
3, 149856, Note_on_c, 1, 61, 80
3, 149948, Note_off_c, 1, 53, 100
3, 149948, Note_off_c, 1, 61, 100
3, 149952, Note_on_c, 1, 54, 80
3, 149952, Note_on_c, 1, 58, 80
3, 150044, Note_off_c, 1, 58, 100
3, 150048, Note_on_c, 1, 61, 80
3, 150140, Note_off_c, 1, 54, 100
3, 150140, Note_off_c, 1, 61, 100
3, 150144, Note_on_c, 1, 56, 80
3, 150144, Note_on_c, 1, 59, 80
3, 150236, Note_off_c, 1, 59, 100
3, 150240, Note_on_c, 1, 61, 80
3, 150332, Note_off_c, 1, 56, 100
3, 150332, Note_off_c, 1, 61, 100
3, 150336, Note_on_c, 1, 56, 80
3, 150336, Note_on_c, 1, 59, 80
3, 150428, Note_off_c, 1, 59, 100
3, 150432, Note_on_c, 1, 61, 80
3, 150524, Note_off_c, 1, 56, 100
3, 150524, Note_off_c, 1, 61, 100
3, 150528, Note_on_c, 1, 54, 80
3, 150528, Note_on_c, 1, 58, 80
3, 150620, Note_off_c, 1, 58, 100
3, 150624, Note_on_c, 1, 61, 80
3, 150716, Note_off_c, 1, 54, 100
3, 150716, Note_off_c, 1, 61, 100
3, 150720, Note_on_c, 1, 53, 80
3, 150720, Note_on_c, 1, 56, 80
3, 150812, Note_off_c, 1, 56, 100
3, 150816, Note_on_c, 1, 61, 80
3, 150908, Note_off_c, 1, 53, 100
3, 150908, Note_off_c, 1, 61, 100
3, 150912, Note_on_c, 1, 58, 80
3, 150912, Note_on_c, 1, 54, 80
3, 151004, Note_off_c, 1, 58, 100
3, 151008, Note_on_c, 1, 63, 80
3, 151100, Note_off_c, 1, 63, 100
3, 151104, Note_on_c, 1, 60, 80
3, 151196, Note_off_c, 1, 60, 100
3, 151200, Note_on_c, 1, 61, 80
3, 151292, Note_off_c, 1, 61, 100
3, 151296, Note_on_c, 1, 58, 80
3, 151388, Note_off_c, 1, 58, 100
3, 151392, Note_on_c, 1, 63, 80
3, 151484, Note_off_c, 1, 63, 100
3, 151488, Note_on_c, 1, 60, 80
3, 151580, Note_off_c, 1, 60, 100
3, 151584, Note_on_c, 1, 61, 80
3, 151676, Note_off_c, 1, 61, 100
3, 151680, Note_on_c, 1, 58, 80
3, 151772, Note_off_c, 1, 58, 100
3, 151776, Note_on_c, 1, 63, 80
3, 151868, Note_off_c, 1, 54, 100
3, 151868, Note_off_c, 1, 63, 100
3, 151872, Note_on_c, 1, 54, 80
3, 151872, Note_on_c, 1, 58, 80
3, 151964, Note_off_c, 1, 58, 100
3, 151968, Note_on_c, 1, 61, 80
3, 152060, Note_off_c, 1, 54, 100
3, 152060, Note_off_c, 1, 61, 100
3, 152064, Note_on_c, 1, 56, 80
3, 152064, Note_on_c, 1, 53, 80
3, 152156, Note_off_c, 1, 56, 100
3, 152160, Note_on_c, 1, 61, 80
3, 152252, Note_off_c, 1, 53, 100
3, 152252, Note_off_c, 1, 61, 100
3, 152256, Note_on_c, 1, 54, 80
3, 152256, Note_on_c, 1, 58, 80
3, 152348, Note_off_c, 1, 58, 100
3, 152352, Note_on_c, 1, 61, 80
3, 152444, Note_off_c, 1, 54, 100
3, 152444, Note_off_c, 1, 61, 100
3, 152448, Note_on_c, 1, 56, 80
3, 152448, Note_on_c, 1, 59, 80
3, 152540, Note_off_c, 1, 59, 100
3, 152544, Note_on_c, 1, 61, 80
3, 152636, Note_off_c, 1, 56, 100
3, 152636, Note_off_c, 1, 61, 100
3, 152640, Note_on_c, 1, 56, 80
3, 152640, Note_on_c, 1, 59, 80
3, 152732, Note_off_c, 1, 59, 100
3, 152736, Note_on_c, 1, 61, 80
3, 152828, Note_off_c, 1, 56, 100
3, 152828, Note_off_c, 1, 61, 100
3, 152832, Note_on_c, 1, 54, 80
3, 152832, Note_on_c, 1, 58, 80
3, 152924, Note_off_c, 1, 58, 100
3, 152928, Note_on_c, 1, 61, 80
3, 153020, Note_off_c, 1, 54, 100
3, 153020, Note_off_c, 1, 61, 100
3, 153024, Note_on_c, 1, 53, 80
3, 153024, Note_on_c, 1, 56, 80
3, 153116, Note_off_c, 1, 56, 100
3, 153120, Note_on_c, 1, 61, 80
3, 153212, Note_off_c, 1, 53, 100
3, 153212, Note_off_c, 1, 61, 100
3, 153216, Note_on_c, 1, 54, 80
3, 153216, Note_on_c, 1, 58, 80
3, 153276, Note_off_c, 1, 58, 100
3, 153280, Note_on_c, 1, 63, 80
3, 153340, Note_off_c, 1, 63, 100
3, 153344, Note_on_c, 1, 61, 80
3, 153404, Note_off_c, 1, 61, 100
3, 153408, Note_on_c, 1, 60, 80
3, 153468, Note_off_c, 1, 60, 100
3, 153472, Note_on_c, 1, 63, 80
3, 153532, Note_off_c, 1, 63, 100
3, 153536, Note_on_c, 1, 61, 80
3, 153596, Note_off_c, 1, 61, 100
3, 153600, Note_on_c, 1, 58, 80
3, 153660, Note_off_c, 1, 58, 100
3, 153664, Note_on_c, 1, 63, 80
3, 153724, Note_off_c, 1, 63, 100
3, 153728, Note_on_c, 1, 61, 80
3, 153788, Note_off_c, 1, 61, 100
3, 153792, Note_on_c, 1, 60, 80
3, 153852, Note_off_c, 1, 60, 100
3, 153856, Note_on_c, 1, 63, 80
3, 153916, Note_off_c, 1, 63, 100
3, 153920, Note_on_c, 1, 61, 80
3, 153980, Note_off_c, 1, 61, 100
3, 153984, Note_on_c, 1, 58, 80
3, 154044, Note_off_c, 1, 58, 100
3, 154048, Note_on_c, 1, 63, 80
3, 154108, Note_off_c, 1, 63, 100
3, 154112, Note_on_c, 1, 61, 80
3, 154172, Note_off_c, 1, 54, 100
3, 154172, Note_off_c, 1, 61, 100
3, 154176, Note_on_c, 1, 58, 80
3, 154176, Note_on_c, 1, 54, 80
3, 154236, Note_off_c, 1, 58, 100
3, 154240, Note_on_c, 1, 62, 80
3, 154300, Note_off_c, 1, 62, 100
3, 154304, Note_on_c, 1, 61, 80
3, 154364, Note_off_c, 1, 54, 100
3, 154364, Note_off_c, 1, 61, 100
3, 154368, Note_on_c, 1, 53, 80
3, 154368, Note_on_c, 1, 56, 80
3, 154428, Note_off_c, 1, 56, 100
3, 154432, Note_on_c, 1, 63, 80
3, 154492, Note_off_c, 1, 63, 100
3, 154496, Note_on_c, 1, 61, 80
3, 154556, Note_off_c, 1, 53, 100
3, 154556, Note_off_c, 1, 61, 100
3, 154560, Note_on_c, 1, 54, 80
3, 154560, Note_on_c, 1, 58, 80
3, 154620, Note_off_c, 1, 58, 100
3, 154624, Note_on_c, 1, 63, 80
3, 154684, Note_off_c, 1, 63, 100
3, 154688, Note_on_c, 1, 61, 80
3, 154748, Note_off_c, 1, 54, 100
3, 154748, Note_off_c, 1, 61, 100
3, 154752, Note_on_c, 1, 56, 80
3, 154752, Note_on_c, 1, 59, 80
3, 154812, Note_off_c, 1, 59, 100
3, 154816, Note_on_c, 1, 63, 80
3, 154876, Note_off_c, 1, 63, 100
3, 154880, Note_on_c, 1, 61, 80
3, 154940, Note_off_c, 1, 56, 100
3, 154940, Note_off_c, 1, 61, 100
3, 154944, Note_on_c, 1, 56, 80
3, 154944, Note_on_c, 1, 59, 80
3, 155004, Note_off_c, 1, 59, 100
3, 155008, Note_on_c, 1, 63, 80
3, 155068, Note_off_c, 1, 63, 100
3, 155072, Note_on_c, 1, 61, 80
3, 155132, Note_off_c, 1, 56, 100
3, 155132, Note_off_c, 1, 61, 100
3, 155136, Note_on_c, 1, 54, 80
3, 155136, Note_on_c, 1, 58, 80
3, 155196, Note_off_c, 1, 58, 100
3, 155200, Note_on_c, 1, 63, 80
3, 155260, Note_off_c, 1, 63, 100
3, 155264, Note_on_c, 1, 61, 80
3, 155324, Note_off_c, 1, 54, 100
3, 155324, Note_off_c, 1, 61, 100
3, 155328, Note_on_c, 1, 53, 80
3, 155328, Note_on_c, 1, 56, 80
3, 155388, Note_off_c, 1, 56, 100
3, 155392, Note_on_c, 1, 63, 80
3, 155452, Note_off_c, 1, 63, 100
3, 155456, Note_on_c, 1, 61, 80
3, 155516, Note_off_c, 1, 53, 100
3, 155516, Note_off_c, 1, 61, 100
3, 155520, Note_on_c, 1, 54, 80
3, 155520, Note_on_c, 1, 58, 80
3, 155580, Note_off_c, 1, 58, 100
3, 155584, Note_on_c, 1, 63, 80
3, 155644, Note_off_c, 1, 63, 100
3, 155648, Note_on_c, 1, 61, 80
3, 155708, Note_off_c, 1, 61, 100
3, 155712, Note_on_c, 1, 60, 80
3, 155772, Note_off_c, 1, 60, 100
3, 155776, Note_on_c, 1, 63, 80
3, 155836, Note_off_c, 1, 63, 100
3, 155840, Note_on_c, 1, 61, 80
3, 155900, Note_off_c, 1, 61, 100
3, 155904, Note_on_c, 1, 58, 80
3, 155964, Note_off_c, 1, 58, 100
3, 155968, Note_on_c, 1, 63, 80
3, 156028, Note_off_c, 1, 63, 100
3, 156032, Note_on_c, 1, 61, 80
3, 156092, Note_off_c, 1, 61, 100
3, 156096, Note_on_c, 1, 60, 80
3, 156156, Note_off_c, 1, 60, 100
3, 156160, Note_on_c, 1, 63, 80
3, 156220, Note_off_c, 1, 63, 100
3, 156224, Note_on_c, 1, 61, 80
3, 156284, Note_off_c, 1, 61, 100
3, 156288, Note_on_c, 1, 58, 80
3, 156348, Note_off_c, 1, 58, 100
3, 156352, Note_on_c, 1, 63, 80
3, 156412, Note_off_c, 1, 63, 100
3, 156416, Note_on_c, 1, 61, 80
3, 156476, Note_off_c, 1, 54, 100
3, 156476, Note_off_c, 1, 61, 100
3, 156480, Note_on_c, 1, 58, 80
3, 156480, Note_on_c, 1, 54, 80
3, 156540, Note_off_c, 1, 58, 100
3, 156544, Note_on_c, 1, 62, 80
3, 156604, Note_off_c, 1, 62, 100
3, 156608, Note_on_c, 1, 61, 80
3, 156668, Note_off_c, 1, 54, 100
3, 156668, Note_off_c, 1, 61, 100
3, 156672, Note_on_c, 1, 53, 80
3, 156672, Note_on_c, 1, 56, 80
3, 156732, Note_off_c, 1, 56, 100
3, 156736, Note_on_c, 1, 63, 80
3, 156796, Note_off_c, 1, 63, 100
3, 156800, Note_on_c, 1, 61, 80
3, 156860, Note_off_c, 1, 53, 100
3, 156860, Note_off_c, 1, 61, 100
3, 156864, Note_on_c, 1, 54, 80
3, 156864, Note_on_c, 1, 58, 80
3, 156924, Note_off_c, 1, 58, 100
3, 156928, Note_on_c, 1, 63, 80
3, 156988, Note_off_c, 1, 63, 100
3, 156992, Note_on_c, 1, 61, 80
3, 157052, Note_off_c, 1, 54, 100
3, 157052, Note_off_c, 1, 61, 100
3, 157056, Note_on_c, 1, 56, 80
3, 157056, Note_on_c, 1, 59, 80
3, 157116, Note_off_c, 1, 59, 100
3, 157120, Note_on_c, 1, 63, 80
3, 157180, Note_off_c, 1, 63, 100
3, 157184, Note_on_c, 1, 61, 80
3, 157244, Note_off_c, 1, 56, 100
3, 157244, Note_off_c, 1, 61, 100
3, 157248, Note_on_c, 1, 56, 80
3, 157248, Note_on_c, 1, 59, 80
3, 157308, Note_off_c, 1, 59, 100
3, 157312, Note_on_c, 1, 63, 80
3, 157372, Note_off_c, 1, 63, 100
3, 157376, Note_on_c, 1, 61, 80
3, 157436, Note_off_c, 1, 56, 100
3, 157436, Note_off_c, 1, 61, 100
3, 157440, Note_on_c, 1, 54, 80
3, 157440, Note_on_c, 1, 58, 80
3, 157500, Note_off_c, 1, 58, 100
3, 157504, Note_on_c, 1, 63, 80
3, 157564, Note_off_c, 1, 63, 100
3, 157568, Note_on_c, 1, 61, 80
3, 157628, Note_off_c, 1, 54, 100
3, 157628, Note_off_c, 1, 61, 100
3, 157632, Note_on_c, 1, 53, 80
3, 157632, Note_on_c, 1, 56, 80
3, 157692, Note_off_c, 1, 56, 100
3, 157696, Note_on_c, 1, 63, 80
3, 157756, Note_off_c, 1, 63, 100
3, 157760, Note_on_c, 1, 61, 80
3, 157820, Note_off_c, 1, 53, 100
3, 157820, Note_off_c, 1, 61, 100
3, 157824, Note_on_c, 1, 54, 80
3, 157824, Note_on_c, 1, 58, 80
3, 157884, Note_off_c, 1, 58, 100
3, 157888, Note_on_c, 1, 63, 80
3, 157948, Note_off_c, 1, 63, 100
3, 157952, Note_on_c, 1, 61, 80
3, 158012, Note_off_c, 1, 61, 100
3, 158016, Note_on_c, 1, 58, 80
3, 158076, Note_off_c, 1, 58, 100
3, 158080, Note_on_c, 1, 59, 80
3, 158140, Note_off_c, 1, 59, 100
3, 158144, Note_on_c, 1, 61, 80
3, 158204, Note_off_c, 1, 61, 100
3, 158208, Note_on_c, 1, 63, 80
3, 158268, Note_off_c, 1, 63, 100
3, 158272, Note_on_c, 1, 65, 80
3, 158332, Note_off_c, 1, 65, 100
3, 158336, Note_on_c, 1, 66, 80
3, 158396, Note_off_c, 1, 54, 100
3, 158396, Note_off_c, 1, 66, 100
3, 158400, Note_on_c, 1, 56, 80
3, 158400, Note_on_c, 1, 68, 80
3, 158652, Note_off_c, 1, 68, 100
3, 158656, Note_on_c, 1, 66, 80
3, 158716, Note_off_c, 1, 66, 100
3, 158720, Note_on_c, 1, 65, 80
3, 158780, Note_off_c, 1, 65, 100
3, 158784, Note_on_c, 1, 63, 80
3, 158844, Note_off_c, 1, 63, 100
3, 158848, Note_on_c, 1, 61, 80
3, 158908, Note_off_c, 1, 61, 100
3, 158912, Note_on_c, 1, 59, 80
3, 158972, Note_off_c, 1, 56, 100
3, 158972, Note_off_c, 1, 59, 100
3, 158976, Note_on_c, 1, 58, 80
3, 158976, Note_on_c, 1, 65, 80
3, 159036, Note_off_c, 1, 65, 100
3, 159040, Note_on_c, 1, 68, 80
3, 159100, Note_off_c, 1, 68, 100
3, 159104, Note_on_c, 1, 66, 80
3, 159164, Note_off_c, 1, 66, 100
3, 159168, Note_on_c, 1, 61, 80
3, 159228, Note_off_c, 1, 61, 100
3, 159232, Note_on_c, 1, 63, 80
3, 159292, Note_off_c, 1, 63, 100
3, 159296, Note_on_c, 1, 64, 80
3, 159356, Note_off_c, 1, 64, 100
3, 159360, Note_on_c, 1, 66, 80
3, 159420, Note_off_c, 1, 66, 100
3, 159424, Note_on_c, 1, 68, 80
3, 159484, Note_off_c, 1, 68, 100
3, 159488, Note_on_c, 1, 70, 80
3, 159548, Note_off_c, 1, 58, 100
3, 159548, Note_off_c, 1, 70, 100
3, 159552, Note_on_c, 1, 71, 80
3, 159552, Note_on_c, 1, 59, 80
3, 159804, Note_off_c, 1, 71, 100
3, 159808, Note_on_c, 1, 70, 80
3, 159868, Note_off_c, 1, 70, 100
3, 159872, Note_on_c, 1, 68, 80
3, 159932, Note_off_c, 1, 68, 100
3, 159936, Note_on_c, 1, 66, 80
3, 159996, Note_off_c, 1, 66, 100
3, 160000, Note_on_c, 1, 65, 80
3, 160060, Note_off_c, 1, 65, 100
3, 160064, Note_on_c, 1, 63, 80
3, 160124, Note_off_c, 1, 59, 100
3, 160124, Note_off_c, 1, 63, 100
3, 160128, Note_on_c, 1, 61, 80
3, 160192, Note_on_c, 1, 65, 81
3, 160252, Note_off_c, 1, 65, 100
3, 160256, Note_on_c, 1, 66, 83
3, 160316, Note_off_c, 1, 66, 100
3, 160320, Note_on_c, 1, 68, 84
3, 160380, Note_off_c, 1, 68, 100
3, 160384, Note_on_c, 1, 70, 86
3, 160444, Note_off_c, 1, 70, 100
3, 160448, Note_on_c, 1, 71, 88
3, 160508, Note_off_c, 1, 61, 100
3, 160508, Note_off_c, 1, 71, 100
3, 160512, Note_on_c, 1, 63, 89
3, 160512, Note_on_c, 1, 70, 89
3, 160572, Note_off_c, 1, 70, 100
3, 160576, Note_on_c, 1, 68, 91
3, 160636, Note_off_c, 1, 68, 100
3, 160640, Note_on_c, 1, 66, 93
3, 160700, Note_off_c, 1, 63, 100
3, 160700, Note_off_c, 1, 66, 100
3, 160704, Note_on_c, 1, 65, 94
3, 160768, Note_on_c, 1, 68, 96
3, 160828, Note_off_c, 1, 68, 100
3, 160832, Note_on_c, 1, 70, 98
3, 160892, Note_off_c, 1, 70, 100
3, 160896, Note_on_c, 1, 71, 99
3, 160956, Note_off_c, 1, 71, 100
3, 160960, Note_on_c, 1, 73, 101
3, 161020, Note_off_c, 1, 73, 100
3, 161024, Note_on_c, 1, 75, 103
3, 161084, Note_off_c, 1, 65, 100
3, 161084, Note_off_c, 1, 75, 100
3, 161088, Note_on_c, 1, 66, 104
3, 161088, Note_on_c, 1, 73, 104
3, 161148, Note_off_c, 1, 73, 100
3, 161152, Note_on_c, 1, 71, 106
3, 161212, Note_off_c, 1, 71, 100
3, 161216, Note_on_c, 1, 70, 108
3, 161276, Note_off_c, 1, 66, 100
3, 161276, Note_off_c, 1, 70, 100
3, 161280, Note_on_c, 1, 76, 110
3, 161280, Note_on_c, 1, 68, 110
3, 161340, Note_off_c, 1, 76, 100
3, 161344, Note_on_c, 1, 73, 110
3, 161404, Note_off_c, 1, 73, 100
3, 161408, Note_on_c, 1, 75, 110
3, 161468, Note_off_c, 1, 68, 100
3, 161468, Note_off_c, 1, 75, 100
3, 161472, Note_on_c, 1, 76, 110
3, 161472, Note_on_c, 1, 70, 110
3, 161532, Note_off_c, 1, 76, 100
3, 161532, Note_off_c, 1, 70, 100
3, 161536, Note_on_c, 1, 66, 110
3, 161536, Note_on_c, 1, 58, 110
3, 161596, Note_off_c, 1, 66, 100
3, 161600, Note_on_c, 1, 67, 110
3, 161656, Note_off_c, 1, 58, 100
3, 161660, Note_off_c, 1, 67, 100
3, 161664, Note_on_c, 1, 66, 110
3, 161664, Note_on_c, 1, 59, 110
3, 161724, Note_off_c, 1, 66, 100
3, 161728, Note_on_c, 1, 64, 110
3, 161788, Note_off_c, 1, 64, 100
3, 161792, Note_on_c, 1, 63, 110
3, 161852, Note_off_c, 1, 59, 100
3, 161856, Note_on_c, 1, 60, 105
3, 161916, Note_off_c, 1, 63, 100
3, 161916, Note_off_c, 1, 60, 100
3, 161920, Note_on_c, 1, 65, 103
3, 161980, Note_off_c, 1, 65, 100
3, 161984, Note_on_c, 1, 66, 101
3, 162044, Note_off_c, 1, 66, 100
3, 162048, Note_on_c, 1, 69, 98
3, 162108, Note_off_c, 1, 69, 100
3, 162112, Note_on_c, 1, 68, 96
3, 162172, Note_off_c, 1, 68, 100
3, 162176, Note_on_c, 1, 66, 93
3, 162236, Note_off_c, 1, 66, 100
3, 162240, Note_on_c, 1, 60, 91
3, 162240, Note_on_c, 1, 60, 91
3, 162300, Note_off_c, 1, 60, 100
3, 162304, Note_on_c, 1, 65, 88
3, 162364, Note_off_c, 1, 65, 100
3, 162368, Note_on_c, 1, 68, 86
3, 162428, Note_off_c, 1, 60, 100
3, 162428, Note_off_c, 1, 68, 100
3, 162432, Note_on_c, 1, 73, 80
3, 162432, Note_on_c, 1, 70, 80
3, 163004, Note_off_c, 1, 73, 100
3, 163004, Note_off_c, 1, 70, 100
3, 163008, Note_on_c, 1, 67, 80
3, 163008, Note_on_c, 1, 70, 80
3, 163388, Note_off_c, 1, 67, 100
3, 163388, Note_off_c, 1, 70, 100
3, 163392, Note_on_c, 1, 67, 80
3, 163392, Note_on_c, 1, 63, 80
3, 163580, Note_off_c, 1, 67, 100
3, 163580, Note_off_c, 1, 63, 100
3, 163584, Note_on_c, 1, 70, 80
3, 163676, Note_off_c, 1, 70, 100
3, 163680, Note_on_c, 1, 67, 80
3, 163772, Note_off_c, 1, 67, 100
3, 163776, Note_on_c, 1, 56, 80
3, 163776, Note_on_c, 1, 68, 80
3, 163868, Note_off_c, 1, 68, 100
3, 163872, Note_on_c, 1, 63, 80
3, 163964, Note_off_c, 1, 56, 100
3, 163964, Note_off_c, 1, 63, 100
3, 163968, Note_on_c, 1, 47, 80
3, 163968, Note_on_c, 1, 61, 80
3, 164060, Note_off_c, 1, 61, 100
3, 164064, Note_on_c, 1, 59, 80
3, 164156, Note_off_c, 1, 47, 100
3, 164156, Note_off_c, 1, 59, 100
3, 164160, Note_on_c, 1, 58, 80
3, 164160, Note_on_c, 1, 49, 80
3, 164348, Note_off_c, 1, 58, 100
3, 164348, Note_off_c, 1, 49, 100
3, 164352, Note_on_c, 1, 46, 80
3, 164352, Note_on_c, 1, 37, 80
3, 164444, Note_off_c, 1, 46, 100
3, 164444, Note_off_c, 1, 37, 100
3, 164448, Note_on_c, 1, 49, 80
3, 164448, Note_on_c, 1, 37, 80
3, 164588, Note_off_c, 1, 49, 100
3, 164588, Note_off_c, 1, 37, 100
3, 164592, Note_on_c, 1, 47, 80
3, 164592, Note_on_c, 1, 35, 80
3, 164636, Note_off_c, 1, 47, 100
3, 164636, Note_off_c, 1, 35, 100
3, 164640, Note_on_c, 1, 46, 80
3, 164640, Note_on_c, 1, 34, 80
3, 164684, Note_off_c, 1, 46, 100
3, 164684, Note_off_c, 1, 34, 100
3, 164688, Note_on_c, 1, 47, 80
3, 164688, Note_on_c, 1, 35, 80
3, 164732, Note_off_c, 1, 47, 100
3, 164732, Note_off_c, 1, 35, 100
3, 164736, Control_c, 1, 64, 127
3, 164736, Note_on_c, 1, 34, 80
3, 164784, Note_on_c, 1, 37, 80
3, 164832, Note_on_c, 1, 40, 80
3, 164880, Note_on_c, 1, 43, 80
3, 164926, Note_off_c, 1, 34, 100
3, 164928, Note_on_c, 1, 46, 80
3, 164974, Note_off_c, 1, 37, 100
3, 164976, Note_on_c, 1, 49, 80
3, 165022, Note_off_c, 1, 40, 100
3, 165024, Note_on_c, 1, 52, 80
3, 165070, Note_off_c, 1, 43, 100
3, 165072, Note_on_c, 1, 55, 80
3, 165118, Note_off_c, 1, 46, 100
3, 165120, Note_on_c, 1, 61, 80
3, 165120, Note_on_c, 1, 58, 80
3, 165154, Note_off_c, 1, 52, 100
3, 165164, Note_off_c, 1, 61, 100
3, 165164, Note_off_c, 1, 58, 100
3, 165166, Note_off_c, 1, 49, 100
3, 165166, Note_off_c, 1, 55, 100
3, 165168, Note_on_c, 1, 64, 80
3, 165212, Note_off_c, 1, 64, 100
3, 165212, Control_c, 1, 64, 0
3, 165216, Note_on_c, 1, 59, 80
3, 165260, Note_off_c, 1, 59, 100
3, 165264, Note_on_c, 1, 63, 80
3, 165308, Note_off_c, 1, 63, 100
3, 165312, Note_on_c, 1, 47, 80
3, 165312, Note_on_c, 1, 59, 80
3, 165692, Note_off_c, 1, 47, 100
3, 165692, Note_off_c, 1, 59, 100
3, 165888, Control_c, 1, 64, 127
3, 165888, Note_on_c, 1, 37, 80
3, 165952, Note_on_c, 1, 42, 80
3, 166016, Note_on_c, 1, 46, 80
3, 166080, Note_on_c, 1, 49, 80
3, 166140, Note_off_c, 1, 37, 100
3, 166144, Note_on_c, 1, 54, 80
3, 166204, Note_off_c, 1, 42, 100
3, 166208, Note_on_c, 1, 58, 80
3, 166268, Note_off_c, 1, 46, 100
3, 166268, Note_off_c, 1, 58, 100
3, 166270, Note_off_c, 1, 49, 100
3, 166270, Note_off_c, 1, 54, 100
3, 166272, Note_on_c, 1, 49, 80
3, 166272, Note_on_c, 1, 54, 80
3, 166316, Note_off_c, 1, 54, 100
3, 166320, Note_on_c, 1, 58, 80
3, 166364, Note_off_c, 1, 49, 100
3, 166364, Note_off_c, 1, 58, 100
3, 166364, Control_c, 1, 64, 0
3, 166368, Note_on_c, 1, 51, 80
3, 166368, Note_on_c, 1, 54, 80
3, 166412, Note_off_c, 1, 54, 100
3, 166416, Note_on_c, 1, 57, 70
3, 166460, Note_off_c, 1, 51, 100
3, 166460, Note_off_c, 1, 57, 100
3, 166464, Control_c, 1, 64, 127
3, 166464, Note_on_c, 1, 59, 70
3, 166464, Note_on_c, 1, 56, 70
3, 166464, Note_on_c, 1, 53, 70
3, 166464, Note_on_c, 1, 50, 70
3, 166652, Note_off_c, 1, 59, 100
3, 166652, Note_off_c, 1, 56, 100
3, 166652, Note_off_c, 1, 53, 100
3, 166652, Note_off_c, 1, 50, 100
3, 166656, Note_on_c, 1, 56, 70
3, 166656, Note_on_c, 1, 53, 70
3, 166656, Note_on_c, 1, 50, 70
3, 166656, Note_on_c, 1, 59, 70
3, 166940, Note_off_c, 1, 56, 100
3, 166940, Note_off_c, 1, 53, 100
3, 166940, Note_off_c, 1, 50, 100
3, 166940, Note_off_c, 1, 59, 100
3, 166944, Note_on_c, 1, 58, 70
3, 166944, Note_on_c, 1, 55, 70
3, 166944, Note_on_c, 1, 51, 70
3, 167036, Note_off_c, 1, 58, 100
3, 167036, Note_off_c, 1, 55, 100
3, 167036, Note_off_c, 1, 51, 100
3, 167036, Control_c, 1, 64, 0
3, 167040, Control_c, 1, 64, 127
3, 167040, Note_on_c, 1, 58, 70
3, 167040, Note_on_c, 1, 55, 70
3, 167040, Note_on_c, 1, 51, 70
3, 167420, Note_off_c, 1, 58, 100
3, 167420, Note_off_c, 1, 55, 100
3, 167420, Note_off_c, 1, 51, 100
3, 167424, Note_on_c, 1, 63, 70
3, 167424, Note_on_c, 1, 58, 70
3, 167424, Note_on_c, 1, 55, 70
3, 167424, Note_on_c, 1, 51, 70
3, 167612, Note_off_c, 1, 63, 100
3, 167612, Note_off_c, 1, 58, 100
3, 167612, Note_off_c, 1, 55, 100
3, 167612, Note_off_c, 1, 51, 100
3, 167616, Note_on_c, 1, 58, 70
3, 167616, Note_on_c, 1, 63, 70
3, 167616, Note_on_c, 1, 55, 70
3, 167616, Note_on_c, 1, 51, 70
3, 167996, Note_off_c, 1, 58, 100
3, 167996, Note_off_c, 1, 63, 100
3, 167996, Note_off_c, 1, 55, 100
3, 167996, Note_off_c, 1, 51, 100
3, 168000, Note_on_c, 1, 63, 70
3, 168000, Note_on_c, 1, 58, 70
3, 168000, Note_on_c, 1, 55, 70
3, 168000, Note_on_c, 1, 51, 70
3, 168188, Note_off_c, 1, 63, 100
3, 168188, Note_off_c, 1, 58, 100
3, 168188, Note_off_c, 1, 55, 100
3, 168188, Note_off_c, 1, 51, 100
3, 168192, Note_on_c, 1, 51, 70
3, 168192, Note_on_c, 1, 39, 70
3, 168380, Note_off_c, 1, 51, 100
3, 168380, Note_off_c, 1, 39, 100
3, 168384, Note_on_c, 1, 34, 70
3, 168384, Note_on_c, 1, 46, 70
3, 168764, Note_off_c, 1, 34, 100
3, 168764, Note_off_c, 1, 46, 100
3, 168764, Control_c, 1, 64, 0
3, 168768, Note_on_c, 1, 47, 70
3, 168768, Note_on_c, 1, 35, 70
3, 168956, Note_off_c, 1, 47, 100
3, 168956, Note_off_c, 1, 35, 100
3, 168960, Note_on_c, 1, 49, 70
3, 168960, Note_on_c, 1, 37, 70
3, 169340, Note_off_c, 1, 49, 100
3, 169340, Note_off_c, 1, 37, 100
3, 169344, Note_on_c, 1, 42, 70
3, 169344, Note_on_c, 1, 30, 70
3, 169724, Note_off_c, 1, 42, 100
3, 169724, Note_off_c, 1, 30, 100
3, 169728, Note_on_c, 1, 58, 70
3, 169916, Note_off_c, 1, 58, 100
3, 169920, Note_on_c, 1, 49, 70
3, 170300, Note_off_c, 1, 49, 100
3, 170304, Note_on_c, 1, 61, 70
3, 170492, Note_off_c, 1, 61, 100
3, 170496, Note_on_c, 1, 58, 70
3, 170876, Note_off_c, 1, 58, 100
3, 170880, Note_on_c, 1, 49, 70
3, 170880, Note_on_c, 1, 37, 70
3, 171260, Note_off_c, 1, 49, 100
3, 171260, Note_off_c, 1, 37, 100
3, 171264, Note_on_c, 1, 51, 70
3, 171264, Note_on_c, 1, 39, 70
3, 171356, Note_off_c, 1, 51, 100
3, 171356, Note_off_c, 1, 39, 100
3, 171360, Note_on_c, 1, 49, 70
3, 171360, Note_on_c, 1, 37, 70
3, 171452, Note_off_c, 1, 49, 100
3, 171452, Note_off_c, 1, 37, 100
3, 171456, Note_on_c, 1, 51, 70
3, 171456, Note_on_c, 1, 49, 70
3, 171456, Note_on_c, 1, 39, 70
3, 171548, Note_off_c, 1, 51, 100
3, 171548, Note_off_c, 1, 49, 100
3, 171548, Note_off_c, 1, 39, 100
3, 171552, Note_on_c, 1, 53, 70
3, 171552, Note_on_c, 1, 49, 70
3, 171552, Note_on_c, 1, 41, 70
3, 171644, Note_off_c, 1, 53, 100
3, 171644, Note_off_c, 1, 49, 100
3, 171644, Note_off_c, 1, 41, 100
3, 171648, Note_on_c, 1, 54, 70
3, 171648, Note_on_c, 1, 49, 70
3, 171648, Note_on_c, 1, 42, 70
3, 172028, Note_off_c, 1, 54, 100
3, 172028, Note_off_c, 1, 49, 100
3, 172028, Note_off_c, 1, 42, 100
3, 172032, Note_on_c, 1, 70, 70
3, 172220, Note_off_c, 1, 70, 100
3, 172224, Note_on_c, 1, 61, 70
3, 172604, Note_off_c, 1, 61, 100
3, 172608, Note_on_c, 1, 30, 70
3, 172608, Note_on_c, 1, 42, 70
3, 172796, Note_off_c, 1, 30, 100
3, 172796, Note_off_c, 1, 42, 100
3, 172800, Note_on_c, 1, 49, 70
3, 172800, Note_on_c, 1, 37, 70
3, 172988, Note_off_c, 1, 49, 100
3, 172988, Note_off_c, 1, 37, 100
3, 172992, Note_on_c, 1, 61, 70
3, 172992, Note_on_c, 1, 49, 70
3, 173180, Note_off_c, 1, 61, 100
3, 173180, Note_off_c, 1, 49, 100
3, 173184, Note_on_c, 1, 58, 70
3, 173184, Note_on_c, 1, 49, 70
3, 173184, Note_on_c, 1, 46, 70
3, 173372, Note_off_c, 1, 58, 100
3, 173372, Note_off_c, 1, 49, 100
3, 173372, Note_off_c, 1, 46, 100
3, 173376, Note_on_c, 1, 49, 70
3, 173376, Note_on_c, 1, 44, 70
3, 173376, Note_on_c, 1, 56, 70
3, 173756, Note_off_c, 1, 49, 100
3, 173756, Note_off_c, 1, 44, 100
3, 173756, Note_off_c, 1, 56, 100
3, 173760, Note_on_c, 1, 49, 70
3, 173760, Note_on_c, 1, 37, 70
3, 173948, Note_off_c, 1, 49, 100
3, 173948, Note_off_c, 1, 37, 100
3, 173952, Note_on_c, 1, 54, 70
3, 173952, Note_on_c, 1, 49, 70
3, 173952, Note_on_c, 1, 42, 70
3, 174524, Note_off_c, 1, 54, 100
3, 174524, Note_off_c, 1, 49, 100
3, 174524, Note_off_c, 1, 42, 100
3, 174528, Note_on_c, 1, 49, 70
3, 174528, Note_on_c, 1, 37, 70
3, 175100, Note_off_c, 1, 49, 100
3, 175100, Note_off_c, 1, 37, 100
3, 175104, Note_on_c, 1, 42, 70
3, 175104, Note_on_c, 1, 30, 70
3, 175484, Note_off_c, 1, 42, 100
3, 175484, Note_off_c, 1, 30, 100
3, 175488, Note_on_c, 1, 54, 70
3, 175488, Note_on_c, 1, 42, 70
3, 175676, Note_off_c, 1, 54, 100
3, 175676, Note_off_c, 1, 42, 100
3, 175680, Note_on_c, 1, 54, 70
3, 175680, Note_on_c, 1, 42, 70
3, 176060, Note_off_c, 1, 54, 100
3, 176060, Note_off_c, 1, 42, 100
3, 176064, Note_on_c, 1, 42, 70
3, 176064, Note_on_c, 1, 54, 70
3, 176204, Note_off_c, 1, 42, 100
3, 176204, Note_off_c, 1, 54, 100
3, 176208, Note_on_c, 1, 52, 70
3, 176208, Note_on_c, 1, 40, 70
3, 176252, Note_off_c, 1, 52, 100
3, 176252, Note_off_c, 1, 40, 100
3, 176256, Note_on_c, 1, 50, 70
3, 176256, Note_on_c, 1, 38, 70
3, 176828, Note_off_c, 1, 50, 100
3, 176828, Note_off_c, 1, 38, 100
3, 176832, Note_on_c, 1, 54, 70
3, 176832, Note_on_c, 1, 42, 70
3, 177404, Note_off_c, 1, 54, 100
3, 177404, Note_off_c, 1, 42, 100
3, 177408, Note_on_c, 1, 59, 70
3, 177408, Note_on_c, 1, 47, 70
3, 177788, Note_off_c, 1, 59, 100
3, 177788, Note_off_c, 1, 47, 100
3, 178176, Note_on_c, 1, 59, 70
3, 178176, Note_on_c, 1, 47, 70
3, 178364, Note_off_c, 1, 59, 100
3, 178364, Note_off_c, 1, 47, 100
3, 178368, Note_on_c, 1, 55, 70
3, 178368, Note_on_c, 1, 43, 70
3, 178460, Note_off_c, 1, 55, 100
3, 178460, Note_off_c, 1, 43, 100
3, 178464, Note_on_c, 1, 50, 70
3, 178464, Note_on_c, 1, 38, 70
3, 178556, Note_off_c, 1, 50, 100
3, 178556, Note_off_c, 1, 38, 100
3, 178560, Key_signature, 1, "major"
3, 178560, Note_on_c, 1, 50, 70
3, 178560, Note_on_c, 1, 38, 70
3, 178940, Note_off_c, 1, 50, 100
3, 178940, Note_off_c, 1, 38, 100
3, 178944, Note_on_c, 1, 47, 70
3, 178944, Note_on_c, 1, 35, 70
3, 179132, Note_off_c, 1, 47, 100
3, 179132, Note_off_c, 1, 35, 100
3, 179136, Note_on_c, 1, 47, 70
3, 179136, Note_on_c, 1, 35, 70
3, 179324, Note_off_c, 1, 47, 100
3, 179324, Note_off_c, 1, 35, 100
3, 179328, Note_on_c, 1, 43, 70
3, 179328, Note_on_c, 1, 31, 70
3, 179516, Note_off_c, 1, 43, 100
3, 179516, Note_off_c, 1, 31, 100
3, 179520, Note_on_c, 1, 45, 70
3, 179520, Note_on_c, 1, 33, 70
3, 179708, Note_off_c, 1, 45, 100
3, 179708, Note_off_c, 1, 33, 100
3, 179712, Note_on_c, 1, 47, 70
3, 179712, Note_on_c, 1, 35, 70
3, 179900, Note_off_c, 1, 47, 100
3, 179900, Note_off_c, 1, 35, 100
3, 179904, Note_on_c, 1, 55, 71
3, 179904, Note_on_c, 1, 47, 71
3, 180092, Note_off_c, 1, 55, 100
3, 180092, Note_off_c, 1, 47, 100
3, 180096, Note_on_c, 1, 57, 73
3, 180096, Note_on_c, 1, 48, 73
3, 180284, Note_off_c, 1, 57, 100
3, 180284, Note_off_c, 1, 48, 100
3, 180288, Note_on_c, 1, 59, 75
3, 180288, Note_on_c, 1, 50, 75
3, 180476, Note_off_c, 1, 59, 100
3, 180476, Note_off_c, 1, 50, 100
3, 180480, Note_on_c, 1, 59, 77
3, 180480, Note_on_c, 1, 62, 77
3, 180668, Note_off_c, 1, 59, 100
3, 180668, Note_off_c, 1, 62, 100
3, 180672, Note_on_c, 1, 60, 79
3, 180672, Note_on_c, 1, 57, 79
3, 180672, Note_on_c, 1, 50, 79
3, 180764, Note_off_c, 1, 60, 100
3, 180764, Note_off_c, 1, 57, 100
3, 180764, Note_off_c, 1, 50, 100
3, 180768, Note_on_c, 1, 59, 79
3, 180768, Note_on_c, 1, 55, 79
3, 180860, Note_off_c, 1, 59, 100
3, 180860, Note_off_c, 1, 55, 100
3, 180864, Note_on_c, 1, 59, 80
3, 180864, Note_on_c, 1, 55, 80
3, 180924, Note_off_c, 1, 59, 100
3, 180928, Note_on_c, 1, 64, 80
3, 180988, Note_off_c, 1, 64, 100
3, 180992, Note_on_c, 1, 62, 80
3, 181052, Note_off_c, 1, 62, 100
3, 181056, Note_on_c, 1, 61, 80
3, 181116, Note_off_c, 1, 61, 100
3, 181120, Note_on_c, 1, 64, 80
3, 181180, Note_off_c, 1, 64, 100
3, 181184, Note_on_c, 1, 62, 80
3, 181244, Note_off_c, 1, 62, 100
3, 181248, Note_on_c, 1, 59, 80
3, 181308, Note_off_c, 1, 59, 100
3, 181312, Note_on_c, 1, 64, 80
3, 181372, Note_off_c, 1, 64, 100
3, 181376, Note_on_c, 1, 62, 80
3, 181436, Note_off_c, 1, 62, 100
3, 181440, Note_on_c, 1, 61, 80
3, 181500, Note_off_c, 1, 61, 100
3, 181504, Note_on_c, 1, 64, 80
3, 181564, Note_off_c, 1, 64, 100
3, 181568, Note_on_c, 1, 62, 80
3, 181628, Note_off_c, 1, 62, 100
3, 181632, Note_on_c, 1, 59, 80
3, 181692, Note_off_c, 1, 59, 100
3, 181696, Note_on_c, 1, 64, 80
3, 181756, Note_off_c, 1, 64, 100
3, 181760, Note_on_c, 1, 62, 80
3, 181820, Note_off_c, 1, 55, 100
3, 181820, Note_off_c, 1, 62, 100
3, 181824, Note_on_c, 1, 59, 80
3, 181824, Note_on_c, 1, 55, 80
3, 181884, Note_off_c, 1, 59, 100
3, 181888, Note_on_c, 1, 63, 80
3, 181948, Note_off_c, 1, 63, 100
3, 181952, Note_on_c, 1, 62, 80
3, 182012, Note_off_c, 1, 55, 100
3, 182012, Note_off_c, 1, 62, 100
3, 182016, Note_on_c, 1, 57, 80
3, 182016, Note_on_c, 1, 54, 80
3, 182076, Note_off_c, 1, 57, 100
3, 182080, Note_on_c, 1, 64, 80
3, 182140, Note_off_c, 1, 64, 100
3, 182144, Note_on_c, 1, 62, 80
3, 182204, Note_off_c, 1, 54, 100
3, 182204, Note_off_c, 1, 62, 100
3, 182208, Note_on_c, 1, 59, 80
3, 182208, Note_on_c, 1, 55, 80
3, 182268, Note_off_c, 1, 59, 100
3, 182272, Note_on_c, 1, 64, 80
3, 182332, Note_off_c, 1, 64, 100
3, 182336, Note_on_c, 1, 62, 80
3, 182396, Note_off_c, 1, 55, 100
3, 182396, Note_off_c, 1, 62, 100
3, 182400, Note_on_c, 1, 60, 80
3, 182400, Note_on_c, 1, 57, 80
3, 182460, Note_off_c, 1, 60, 100
3, 182464, Note_on_c, 1, 64, 80
3, 182524, Note_off_c, 1, 64, 100
3, 182528, Note_on_c, 1, 62, 80
3, 182588, Note_off_c, 1, 57, 100
3, 182588, Note_off_c, 1, 62, 100
3, 182592, Note_on_c, 1, 60, 80
3, 182592, Note_on_c, 1, 57, 80
3, 182652, Note_off_c, 1, 60, 100
3, 182656, Note_on_c, 1, 64, 80
3, 182716, Note_off_c, 1, 64, 100
3, 182720, Note_on_c, 1, 62, 80
3, 182780, Note_off_c, 1, 57, 100
3, 182780, Note_off_c, 1, 62, 100
3, 182784, Note_on_c, 1, 59, 80
3, 182784, Note_on_c, 1, 55, 80
3, 182844, Note_off_c, 1, 59, 100
3, 182848, Note_on_c, 1, 64, 80
3, 182908, Note_off_c, 1, 64, 100
3, 182912, Note_on_c, 1, 62, 80
3, 182972, Note_off_c, 1, 55, 100
3, 182972, Note_off_c, 1, 62, 100
3, 182976, Note_on_c, 1, 58, 80
3, 182976, Note_on_c, 1, 54, 80
3, 183036, Note_off_c, 1, 58, 100
3, 183040, Note_on_c, 1, 64, 80
3, 183100, Note_off_c, 1, 64, 100
3, 183104, Note_on_c, 1, 62, 80
3, 183164, Note_off_c, 1, 54, 100
3, 183164, Note_off_c, 1, 62, 100
3, 183168, Note_on_c, 1, 59, 80
3, 183168, Note_on_c, 1, 55, 80
3, 183228, Note_off_c, 1, 59, 100
3, 183232, Note_on_c, 1, 64, 80
3, 183292, Note_off_c, 1, 64, 100
3, 183296, Note_on_c, 1, 62, 80
3, 183356, Note_off_c, 1, 62, 100
3, 183360, Note_on_c, 1, 61, 80
3, 183420, Note_off_c, 1, 61, 100
3, 183424, Note_on_c, 1, 64, 80
3, 183484, Note_off_c, 1, 64, 100
3, 183488, Note_on_c, 1, 62, 80
3, 183548, Note_off_c, 1, 62, 100
3, 183552, Note_on_c, 1, 59, 80
3, 183612, Note_off_c, 1, 59, 100
3, 183616, Note_on_c, 1, 64, 80
3, 183676, Note_off_c, 1, 64, 100
3, 183680, Note_on_c, 1, 62, 80
3, 183740, Note_off_c, 1, 62, 100
3, 183744, Note_on_c, 1, 61, 80
3, 183804, Note_off_c, 1, 61, 100
3, 183808, Note_on_c, 1, 64, 80
3, 183868, Note_off_c, 1, 64, 100
3, 183872, Note_on_c, 1, 62, 80
3, 183932, Note_off_c, 1, 62, 100
3, 183936, Note_on_c, 1, 59, 80
3, 183996, Note_off_c, 1, 59, 100
3, 184000, Note_on_c, 1, 64, 80
3, 184060, Note_off_c, 1, 64, 100
3, 184064, Note_on_c, 1, 62, 80
3, 184124, Note_off_c, 1, 55, 100
3, 184124, Note_off_c, 1, 62, 100
3, 184128, Note_on_c, 1, 59, 80
3, 184128, Note_on_c, 1, 55, 80
3, 184188, Note_off_c, 1, 59, 100
3, 184192, Note_on_c, 1, 63, 80
3, 184252, Note_off_c, 1, 63, 100
3, 184256, Note_on_c, 1, 62, 80
3, 184316, Note_off_c, 1, 55, 100
3, 184316, Note_off_c, 1, 62, 100
3, 184320, Note_on_c, 1, 57, 80
3, 184320, Note_on_c, 1, 54, 80
3, 184380, Note_off_c, 1, 57, 100
3, 184384, Note_on_c, 1, 64, 80
3, 184444, Note_off_c, 1, 64, 100
3, 184448, Note_on_c, 1, 62, 80
3, 184508, Note_off_c, 1, 54, 100
3, 184508, Note_off_c, 1, 62, 100
3, 184512, Note_on_c, 1, 59, 80
3, 184512, Note_on_c, 1, 55, 80
3, 184572, Note_off_c, 1, 59, 100
3, 184576, Note_on_c, 1, 64, 80
3, 184636, Note_off_c, 1, 64, 100
3, 184640, Note_on_c, 1, 62, 80
3, 184700, Note_off_c, 1, 55, 100
3, 184700, Note_off_c, 1, 62, 100
3, 184704, Note_on_c, 1, 60, 80
3, 184704, Note_on_c, 1, 57, 80
3, 184764, Note_off_c, 1, 60, 100
3, 184768, Note_on_c, 1, 64, 80
3, 184828, Note_off_c, 1, 64, 100
3, 184832, Note_on_c, 1, 62, 80
3, 184892, Note_off_c, 1, 57, 100
3, 184892, Note_off_c, 1, 62, 100
3, 184896, Note_on_c, 1, 60, 80
3, 184896, Note_on_c, 1, 57, 80
3, 184956, Note_off_c, 1, 60, 100
3, 184960, Note_on_c, 1, 64, 80
3, 185020, Note_off_c, 1, 64, 100
3, 185024, Note_on_c, 1, 62, 80
3, 185084, Note_off_c, 1, 57, 100
3, 185084, Note_off_c, 1, 62, 100
3, 185088, Note_on_c, 1, 59, 80
3, 185088, Note_on_c, 1, 55, 80
3, 185148, Note_off_c, 1, 59, 100
3, 185152, Note_on_c, 1, 64, 80
3, 185212, Note_off_c, 1, 64, 100
3, 185216, Note_on_c, 1, 62, 80
3, 185276, Note_off_c, 1, 55, 100
3, 185276, Note_off_c, 1, 62, 100
3, 185280, Note_on_c, 1, 58, 80
3, 185280, Note_on_c, 1, 54, 80
3, 185340, Note_off_c, 1, 58, 100
3, 185344, Note_on_c, 1, 64, 80
3, 185404, Note_off_c, 1, 64, 100
3, 185408, Note_on_c, 1, 62, 80
3, 185468, Note_off_c, 1, 54, 100
3, 185468, Note_off_c, 1, 62, 100
3, 185472, Note_on_c, 1, 58, 80
3, 185472, Note_on_c, 1, 54, 80
3, 185532, Note_off_c, 1, 58, 100
3, 185536, Note_on_c, 1, 64, 80
3, 185596, Note_off_c, 1, 64, 100
3, 185600, Note_on_c, 1, 62, 80
3, 185660, Note_off_c, 1, 54, 100
3, 185660, Note_off_c, 1, 62, 100
3, 185664, Note_on_c, 1, 59, 80
3, 185664, Note_on_c, 1, 55, 80
3, 185724, Note_off_c, 1, 59, 100
3, 185728, Note_on_c, 1, 64, 80
3, 185788, Note_off_c, 1, 64, 100
3, 185792, Note_on_c, 1, 62, 80
3, 185852, Note_off_c, 1, 55, 100
3, 185852, Note_off_c, 1, 62, 100
3, 185856, Note_on_c, 1, 59, 80
3, 185856, Note_on_c, 1, 56, 80
3, 185916, Note_off_c, 1, 59, 100
3, 185920, Note_on_c, 1, 64, 80
3, 185980, Note_off_c, 1, 64, 100
3, 185984, Note_on_c, 1, 62, 80
3, 186044, Note_off_c, 1, 56, 100
3, 186044, Note_off_c, 1, 62, 100
3, 186048, Note_on_c, 1, 59, 80
3, 186048, Note_on_c, 1, 56, 80
3, 186108, Note_off_c, 1, 59, 100
3, 186112, Note_on_c, 1, 64, 80
3, 186172, Note_off_c, 1, 64, 100
3, 186176, Note_on_c, 1, 62, 80
3, 186236, Note_off_c, 1, 56, 100
3, 186236, Note_off_c, 1, 62, 100
3, 186240, Note_on_c, 1, 59, 81
3, 186240, Note_on_c, 1, 56, 81
3, 186300, Note_off_c, 1, 59, 100
3, 186304, Note_on_c, 1, 65, 82
3, 186364, Note_off_c, 1, 65, 100
3, 186368, Note_on_c, 1, 62, 82
3, 186428, Note_off_c, 1, 56, 100
3, 186428, Note_off_c, 1, 62, 100
3, 186432, Note_on_c, 1, 59, 83
3, 186432, Note_on_c, 1, 56, 83
3, 186492, Note_off_c, 1, 59, 100
3, 186496, Note_on_c, 1, 65, 84
3, 186556, Note_off_c, 1, 65, 100
3, 186560, Note_on_c, 1, 62, 85
3, 186620, Note_off_c, 1, 56, 100
3, 186620, Note_off_c, 1, 62, 100
3, 186624, Note_on_c, 1, 62, 85
3, 186624, Note_on_c, 1, 57, 85
3, 186684, Note_off_c, 1, 62, 100
3, 186688, Note_on_c, 1, 66, 86
3, 186748, Note_off_c, 1, 66, 100
3, 186752, Note_on_c, 1, 64, 87
3, 186812, Note_off_c, 1, 57, 100
3, 186812, Note_off_c, 1, 64, 100
3, 186816, Note_on_c, 1, 62, 87
3, 186816, Note_on_c, 1, 58, 87
3, 186876, Note_off_c, 1, 62, 100
3, 186880, Note_on_c, 1, 66, 88
3, 186940, Note_off_c, 1, 66, 100
3, 186944, Note_on_c, 1, 64, 89
3, 187004, Note_off_c, 1, 58, 100
3, 187004, Note_off_c, 1, 64, 100
3, 187008, Note_on_c, 1, 62, 90
3, 187008, Note_on_c, 1, 59, 90
3, 187068, Note_off_c, 1, 62, 100
3, 187072, Note_on_c, 1, 66, 90
3, 187132, Note_off_c, 1, 66, 100
3, 187136, Note_on_c, 1, 64, 91
3, 187196, Note_off_c, 1, 59, 100
3, 187196, Note_off_c, 1, 64, 100
3, 187200, Note_on_c, 1, 62, 92
3, 187200, Note_on_c, 1, 59, 92
3, 187260, Note_off_c, 1, 62, 100
3, 187264, Note_on_c, 1, 66, 92
3, 187324, Note_off_c, 1, 66, 100
3, 187328, Note_on_c, 1, 64, 93
3, 187388, Note_off_c, 1, 59, 100
3, 187388, Note_off_c, 1, 64, 100
3, 187392, Note_on_c, 1, 62, 94
3, 187392, Note_on_c, 1, 59, 94
3, 187452, Note_off_c, 1, 62, 100
3, 187456, Note_on_c, 1, 66, 95
3, 187516, Note_off_c, 1, 66, 100
3, 187520, Note_on_c, 1, 64, 95
3, 187580, Note_off_c, 1, 59, 100
3, 187580, Note_off_c, 1, 64, 100
3, 187584, Note_on_c, 1, 62, 96
3, 187584, Note_on_c, 1, 59, 96
3, 187644, Note_off_c, 1, 62, 100
3, 187648, Note_on_c, 1, 65, 97
3, 187708, Note_off_c, 1, 65, 100
3, 187712, Note_on_c, 1, 66, 98
3, 187772, Note_off_c, 1, 59, 100
3, 187772, Note_off_c, 1, 66, 100
3, 187776, Key_signature, 2, "major"
3, 187776, Note_on_c, 1, 62, 98
3, 187776, Note_on_c, 1, 59, 98
3, 187836, Note_off_c, 1, 62, 100
3, 187840, Note_on_c, 1, 67, 99
3, 187900, Note_off_c, 1, 67, 100
3, 187904, Note_on_c, 1, 66, 100
3, 187964, Note_off_c, 1, 59, 100
3, 187964, Note_off_c, 1, 66, 100
3, 187968, Note_on_c, 1, 63, 100
3, 187968, Note_on_c, 1, 60, 100
3, 188028, Note_off_c, 1, 63, 100
3, 188032, Note_on_c, 1, 67, 101
3, 188092, Note_off_c, 1, 67, 100
3, 188096, Note_on_c, 1, 66, 102
3, 188156, Note_off_c, 1, 60, 100
3, 188156, Note_off_c, 1, 66, 100
3, 188160, Note_on_c, 1, 63, 103
3, 188160, Note_on_c, 1, 60, 103
3, 188220, Note_off_c, 1, 63, 100
3, 188224, Note_on_c, 1, 69, 103
3, 188284, Note_off_c, 1, 69, 100
3, 188288, Note_on_c, 1, 66, 104
3, 188348, Note_off_c, 1, 60, 100
3, 188348, Note_off_c, 1, 66, 100
3, 188352, Control_c, 1, 64, 127
3, 188352, Note_on_c, 1, 51, 105
3, 188352, Note_on_c, 1, 48, 105
3, 188412, Note_off_c, 1, 51, 100
3, 188416, Note_on_c, 1, 57, 105
3, 188476, Note_off_c, 1, 57, 100
3, 188480, Note_on_c, 1, 54, 106
3, 188540, Note_off_c, 1, 48, 100
3, 188540, Note_off_c, 1, 54, 100
3, 188544, Note_on_c, 1, 63, 107
3, 188544, Note_on_c, 1, 60, 107
3, 188604, Note_off_c, 1, 63, 100
3, 188608, Note_on_c, 1, 69, 108
3, 188668, Note_off_c, 1, 69, 100
3, 188672, Note_on_c, 1, 66, 108
3, 188732, Note_off_c, 1, 60, 100
3, 188732, Note_off_c, 1, 66, 100
3, 188736, Note_on_c, 1, 51, 109
3, 188736, Note_on_c, 1, 48, 109
3, 188796, Note_off_c, 1, 51, 100
3, 188800, Note_on_c, 1, 57, 110
3, 188860, Note_off_c, 1, 57, 100
3, 188864, Note_on_c, 1, 54, 110
3, 188924, Note_off_c, 1, 48, 100
3, 188924, Note_off_c, 1, 54, 100
3, 188928, Note_on_c, 1, 60, 110
3, 188976, Note_on_c, 1, 69, 110
3, 189020, Note_off_c, 1, 60, 100
3, 189024, Note_on_c, 1, 66, 110
3, 189024, Note_on_c, 1, 63, 110
3, 189068, Note_off_c, 1, 69, 100
3, 189072, Note_on_c, 1, 69, 110
3, 189116, Note_off_c, 1, 66, 100
3, 189116, Note_off_c, 1, 63, 100
3, 189120, Note_on_c, 1, 48, 110
3, 189164, Note_off_c, 1, 69, 100
3, 189168, Note_on_c, 1, 57, 110
3, 189212, Note_off_c, 1, 48, 100
3, 189216, Note_on_c, 1, 54, 110
3, 189216, Note_on_c, 1, 51, 110
3, 189260, Note_off_c, 1, 57, 100
3, 189264, Note_on_c, 1, 57, 110
3, 189308, Note_off_c, 1, 54, 100
3, 189308, Note_off_c, 1, 51, 100
3, 189312, Note_on_c, 1, 60, 110
3, 189356, Note_off_c, 1, 57, 100
3, 189360, Note_on_c, 1, 69, 110
3, 189404, Note_off_c, 1, 60, 100
3, 189408, Note_on_c, 1, 66, 110
3, 189408, Note_on_c, 1, 63, 110
3, 189452, Note_off_c, 1, 69, 100
3, 189456, Note_on_c, 1, 69, 110
3, 189500, Note_off_c, 1, 66, 100
3, 189500, Note_off_c, 1, 63, 100
3, 189504, Note_on_c, 1, 48, 110
3, 189536, Note_on_c, 1, 57, 110
3, 189548, Note_off_c, 1, 69, 100
3, 189564, Note_off_c, 1, 48, 100
3, 189568, Note_on_c, 1, 54, 110
3, 189568, Note_on_c, 1, 51, 110
3, 189596, Note_off_c, 1, 57, 100
3, 189600, Note_on_c, 1, 57, 110
3, 189628, Note_off_c, 1, 54, 100
3, 189628, Note_off_c, 1, 51, 100
3, 189632, Note_on_c, 1, 54, 110
3, 189632, Note_on_c, 1, 51, 110
3, 189660, Note_off_c, 1, 57, 100
3, 189664, Note_on_c, 1, 57, 110
3, 189692, Note_off_c, 1, 54, 100
3, 189692, Note_off_c, 1, 51, 100
3, 189696, Note_on_c, 1, 60, 110
3, 189724, Note_off_c, 1, 57, 100
3, 189728, Note_on_c, 1, 69, 110
3, 189756, Note_off_c, 1, 60, 100
3, 189760, Note_on_c, 1, 66, 110
3, 189760, Note_on_c, 1, 63, 110
3, 189788, Note_off_c, 1, 69, 100
3, 189792, Note_on_c, 1, 69, 110
3, 189820, Note_off_c, 1, 66, 100
3, 189820, Note_off_c, 1, 63, 100
3, 189824, Note_on_c, 1, 66, 110
3, 189824, Note_on_c, 1, 63, 110
3, 189852, Note_off_c, 1, 69, 100
3, 189856, Note_on_c, 1, 69, 110
3, 189884, Note_off_c, 1, 66, 100
3, 189884, Note_off_c, 1, 63, 100
3, 189888, Note_on_c, 1, 48, 110
3, 189916, Note_off_c, 1, 69, 100
3, 189920, Note_on_c, 1, 57, 110
3, 189948, Note_off_c, 1, 48, 100
3, 189952, Note_on_c, 1, 54, 110
3, 189952, Note_on_c, 1, 51, 110
3, 189980, Note_off_c, 1, 57, 100
3, 189984, Note_on_c, 1, 57, 110
3, 190012, Note_off_c, 1, 54, 100
3, 190012, Note_off_c, 1, 51, 100
3, 190016, Note_on_c, 1, 54, 110
3, 190016, Note_on_c, 1, 51, 110
3, 190044, Note_off_c, 1, 57, 100
3, 190048, Note_on_c, 1, 57, 80
3, 190076, Note_off_c, 1, 54, 100
3, 190076, Note_off_c, 1, 51, 100
3, 190076, Control_c, 1, 64, 0
3, 190080, Key_signature, 3, "major"
3, 190080, Note_on_c, 1, 61, 80
3, 190108, Note_off_c, 1, 57, 100
3, 190460, Note_off_c, 1, 61, 100
3, 190464, Note_on_c, 1, 57, 80
3, 190652, Note_off_c, 1, 57, 100
3, 190656, Note_on_c, 1, 57, 80
3, 190844, Note_off_c, 1, 57, 100
3, 190848, Note_on_c, 1, 54, 80
3, 191036, Note_off_c, 1, 54, 100
3, 191040, Note_on_c, 1, 56, 80
3, 191040, Note_on_c, 1, 49, 80
3, 191228, Note_off_c, 1, 56, 100
3, 191228, Note_off_c, 1, 49, 100
3, 191232, Note_on_c, 1, 54, 80
3, 191232, Note_on_c, 1, 42, 80
3, 191612, Note_off_c, 1, 54, 100
3, 191612, Note_off_c, 1, 42, 100
3, 191616, Note_on_c, 1, 54, 80
3, 191616, Note_on_c, 1, 42, 80
3, 191804, Note_off_c, 1, 54, 100
3, 191804, Note_off_c, 1, 42, 100
3, 191808, Note_on_c, 1, 47, 80
3, 191808, Note_on_c, 1, 35, 80
3, 192188, Note_off_c, 1, 47, 100
3, 192188, Note_off_c, 1, 35, 100
3, 192192, Note_on_c, 1, 47, 80
3, 192192, Note_on_c, 1, 35, 80
3, 192380, Note_off_c, 1, 47, 100
3, 192380, Note_off_c, 1, 35, 100
3, 192384, Note_on_c, 1, 44, 80
3, 192384, Note_on_c, 1, 32, 80
3, 192764, Note_off_c, 1, 44, 100
3, 192764, Note_off_c, 1, 32, 100
3, 192768, Note_on_c, 1, 45, 80
3, 192768, Note_on_c, 1, 33, 80
3, 192956, Note_off_c, 1, 45, 100
3, 192956, Note_off_c, 1, 33, 100
3, 192960, Note_on_c, 1, 45, 80
3, 192960, Note_on_c, 1, 33, 80
3, 193148, Note_off_c, 1, 45, 100
3, 193148, Note_off_c, 1, 33, 100
3, 193152, Note_on_c, 1, 47, 80
3, 193152, Note_on_c, 1, 35, 80
3, 193340, Note_off_c, 1, 47, 100
3, 193340, Note_off_c, 1, 35, 100
3, 193344, Note_on_c, 1, 48, 80
3, 193344, Note_on_c, 1, 36, 80
3, 193532, Note_off_c, 1, 48, 100
3, 193532, Note_off_c, 1, 36, 100
3, 193536, Note_on_c, 1, 48, 80
3, 193536, Note_on_c, 1, 36, 80
3, 193724, Note_off_c, 1, 48, 100
3, 193724, Note_off_c, 1, 36, 100
3, 193728, Note_on_c, 1, 49, 80
3, 193728, Note_on_c, 1, 37, 80
3, 194012, Note_off_c, 1, 49, 100
3, 194012, Note_off_c, 1, 37, 100
3, 194016, Note_on_c, 1, 48, 80
3, 194016, Note_on_c, 1, 36, 80
3, 194108, Note_off_c, 1, 48, 100
3, 194108, Note_off_c, 1, 36, 100
3, 194112, Note_on_c, 1, 49, 80
3, 194112, Note_on_c, 1, 37, 80
3, 194300, Note_off_c, 1, 49, 100
3, 194300, Note_off_c, 1, 37, 100
3, 194304, Note_on_c, 1, 49, 80
3, 194304, Note_on_c, 1, 37, 80
3, 194492, Note_off_c, 1, 49, 100
3, 194492, Note_off_c, 1, 37, 100
3, 194496, Note_on_c, 1, 50, 80
3, 194496, Note_on_c, 1, 38, 80
3, 194684, Note_off_c, 1, 50, 100
3, 194684, Note_off_c, 1, 38, 100
3, 194688, Note_on_c, 1, 47, 80
3, 194688, Note_on_c, 1, 38, 80
3, 194688, Note_on_c, 1, 31, 80
3, 195260, Note_off_c, 1, 47, 100
3, 195260, Note_off_c, 1, 38, 100
3, 195260, Note_off_c, 1, 31, 100
3, 195264, Note_on_c, 1, 50, 80
3, 195264, Note_on_c, 1, 43, 80
3, 195264, Note_on_c, 1, 35, 80
3, 195836, Note_off_c, 1, 50, 100
3, 195836, Note_off_c, 1, 43, 100
3, 195836, Note_off_c, 1, 35, 100
3, 195840, Note_on_c, 1, 52, 80
3, 195840, Note_on_c, 1, 43, 80
3, 195840, Note_on_c, 1, 36, 80
3, 196412, Note_off_c, 1, 52, 100
3, 196412, Note_off_c, 1, 43, 100
3, 196412, Note_off_c, 1, 36, 100
3, 196416, Note_on_c, 1, 50, 80
3, 196416, Note_on_c, 1, 43, 80
3, 196416, Note_on_c, 1, 35, 80
3, 196604, Note_off_c, 1, 50, 100
3, 196604, Note_off_c, 1, 43, 100
3, 196604, Note_off_c, 1, 35, 100
3, 196608, Note_on_c, 1, 43, 80
3, 196800, Note_on_c, 1, 38, 80
3, 196892, Note_off_c, 1, 43, 100
3, 196896, Note_on_c, 1, 42, 80
3, 196988, Note_off_c, 1, 38, 100
3, 196988, Note_off_c, 1, 42, 100
3, 196992, Note_on_c, 1, 42, 80
3, 196992, Note_on_c, 1, 38, 80
3, 197180, Note_off_c, 1, 42, 100
3, 197180, Note_off_c, 1, 38, 100
3, 197184, Note_on_c, 1, 45, 80
3, 197184, Note_on_c, 1, 37, 80
3, 197372, Note_off_c, 1, 45, 100
3, 197372, Note_off_c, 1, 37, 100
3, 197376, Note_on_c, 1, 49, 80
3, 197376, Note_on_c, 1, 37, 80
3, 197564, Note_off_c, 1, 49, 100
3, 197564, Note_off_c, 1, 37, 100
3, 197568, Note_on_c, 1, 49, 80
3, 197568, Note_on_c, 1, 37, 80
3, 197948, Note_off_c, 1, 49, 100
3, 197948, Note_off_c, 1, 37, 100
3, 197952, Note_on_c, 1, 49, 80
3, 197952, Note_on_c, 1, 42, 80
3, 198140, Note_off_c, 1, 49, 100
3, 198140, Note_off_c, 1, 42, 100
3, 198144, Note_on_c, 1, 49, 80
3, 198144, Note_on_c, 1, 42, 80
3, 198332, Note_off_c, 1, 49, 100
3, 198332, Note_off_c, 1, 42, 100
3, 198336, Note_on_c, 1, 50, 80
3, 198336, Note_on_c, 1, 35, 80
3, 198524, Note_off_c, 1, 50, 100
3, 198524, Note_off_c, 1, 35, 100
3, 198528, Note_on_c, 1, 43, 80
3, 198716, Note_off_c, 1, 43, 100
3, 198720, Note_on_c, 1, 47, 80
3, 198720, Note_on_c, 1, 35, 80
3, 198908, Note_off_c, 1, 47, 100
3, 198908, Note_off_c, 1, 35, 100
3, 198912, Note_on_c, 1, 37, 80
3, 199100, Note_off_c, 1, 37, 100
3, 199104, Note_on_c, 1, 37, 80
3, 199104, Note_on_c, 1, 41, 80
3, 199196, Note_off_c, 1, 41, 100
3, 199200, Note_on_c, 1, 42, 80
3, 199292, Note_off_c, 1, 37, 100
3, 199292, Note_off_c, 1, 42, 100
3, 199296, Note_on_c, 1, 42, 80
3, 199296, Note_on_c, 1, 37, 80
3, 199484, Note_off_c, 1, 42, 100
3, 199484, Note_off_c, 1, 37, 100
3, 199488, Note_on_c, 1, 42, 80
3, 199488, Note_on_c, 1, 30, 80
3, 199676, Note_off_c, 1, 42, 100
3, 199676, Note_off_c, 1, 30, 100
3, 199680, Note_on_c, 1, 46, 80
3, 199680, Note_on_c, 1, 34, 80
3, 199868, Note_off_c, 1, 46, 100
3, 199868, Note_off_c, 1, 34, 100
3, 199872, Note_on_c, 1, 49, 80
3, 199872, Note_on_c, 1, 37, 80
3, 200060, Note_off_c, 1, 49, 100
3, 200060, Note_off_c, 1, 37, 100
3, 200064, Note_on_c, 1, 42, 80
3, 200064, Note_on_c, 1, 30, 80
3, 200252, Note_off_c, 1, 42, 100
3, 200252, Note_off_c, 1, 30, 100
3, 200256, Note_on_c, 1, 46, 80
3, 200256, Note_on_c, 1, 34, 80
3, 200444, Note_off_c, 1, 46, 100
3, 200444, Note_off_c, 1, 34, 100
3, 200448, Note_on_c, 1, 47, 80
3, 200448, Note_on_c, 1, 35, 80
3, 200636, Note_off_c, 1, 47, 100
3, 200636, Note_off_c, 1, 35, 100
3, 200640, Note_on_c, 1, 42, 80
3, 200640, Note_on_c, 1, 30, 80
3, 200828, Note_off_c, 1, 42, 100
3, 200828, Note_off_c, 1, 30, 100
3, 200832, Note_on_c, 1, 47, 80
3, 200832, Note_on_c, 1, 35, 80
3, 201020, Note_off_c, 1, 47, 100
3, 201020, Note_off_c, 1, 35, 100
3, 201024, Note_on_c, 1, 50, 80
3, 201024, Note_on_c, 1, 38, 80
3, 201212, Note_off_c, 1, 50, 100
3, 201212, Note_off_c, 1, 38, 100
3, 201216, Note_on_c, 1, 42, 80
3, 201216, Note_on_c, 1, 30, 80
3, 201404, Note_off_c, 1, 42, 100
3, 201404, Note_off_c, 1, 30, 100
3, 201408, Note_on_c, 1, 47, 80
3, 201408, Note_on_c, 1, 35, 80
3, 201596, Note_off_c, 1, 47, 100
3, 201596, Note_off_c, 1, 35, 100
3, 201600, Note_on_c, 1, 49, 80
3, 201600, Note_on_c, 1, 37, 80
3, 201788, Note_off_c, 1, 49, 100
3, 201788, Note_off_c, 1, 37, 100
3, 201792, Note_on_c, 1, 42, 85
3, 201792, Note_on_c, 1, 30, 85
3, 201980, Note_off_c, 1, 42, 100
3, 201980, Note_off_c, 1, 30, 100
3, 201984, Note_on_c, 1, 45, 90
3, 201984, Note_on_c, 1, 33, 90
3, 202172, Note_off_c, 1, 45, 100
3, 202172, Note_off_c, 1, 33, 100
3, 202176, Note_on_c, 1, 49, 95
3, 202176, Note_on_c, 1, 37, 95
3, 202364, Note_off_c, 1, 49, 100
3, 202364, Note_off_c, 1, 37, 100
3, 202368, Note_on_c, 1, 42, 100
3, 202368, Note_on_c, 1, 30, 100
3, 202556, Note_off_c, 1, 42, 100
3, 202556, Note_off_c, 1, 30, 100
3, 202560, Note_on_c, 1, 45, 105
3, 202560, Note_on_c, 1, 33, 105
3, 202748, Note_off_c, 1, 45, 100
3, 202748, Note_off_c, 1, 33, 100
3, 202752, Note_on_c, 1, 47, 110
3, 202752, Note_on_c, 1, 35, 110
3, 202940, Note_off_c, 1, 47, 100
3, 202940, Note_off_c, 1, 35, 100
3, 202944, Note_on_c, 1, 42, 110
3, 202944, Note_on_c, 1, 30, 110
3, 203132, Note_off_c, 1, 42, 100
3, 203132, Note_off_c, 1, 30, 100
3, 203136, Note_on_c, 1, 47, 110
3, 203136, Note_on_c, 1, 35, 110
3, 203324, Note_off_c, 1, 47, 100
3, 203324, Note_off_c, 1, 35, 100
3, 203328, Control_c, 1, 64, 127
3, 203328, Note_on_c, 1, 38, 110
3, 203328, Note_on_c, 1, 50, 110
3, 203392, Note_on_c, 1, 30, 108
3, 203448, Note_off_c, 1, 50, 100
3, 203452, Note_off_c, 1, 38, 100
3, 203456, Note_on_c, 1, 35, 106
3, 203516, Note_off_c, 1, 30, 100
3, 203520, Note_on_c, 1, 38, 103
3, 203578, Note_off_c, 1, 35, 100
3, 203584, Note_on_c, 1, 42, 101
3, 203646, Note_off_c, 1, 38, 100
3, 203648, Note_on_c, 1, 47, 98
3, 203710, Note_off_c, 1, 42, 100
3, 203712, Note_on_c, 1, 50, 96
3, 203774, Note_off_c, 1, 47, 100
3, 203776, Note_on_c, 1, 42, 93
3, 203836, Note_off_c, 1, 50, 100
3, 203840, Note_on_c, 1, 50, 91
3, 203900, Control_c, 1, 64, 0
3, 203902, Note_off_c, 1, 42, 100
3, 203904, Control_c, 1, 64, 127
3, 203904, Note_on_c, 1, 42, 80
3, 203966, Note_off_c, 1, 50, 100
3, 203968, Note_on_c, 1, 49, 80
3, 204026, Note_off_c, 1, 42, 100
3, 204032, Note_on_c, 1, 42, 80
3, 204092, Note_off_c, 1, 49, 100
3, 204096, Note_on_c, 1, 54, 80
3, 204156, Note_off_c, 1, 42, 100
3, 204160, Note_on_c, 1, 49, 79
3, 204220, Note_off_c, 1, 54, 100
3, 204224, Note_on_c, 1, 54, 79
3, 204284, Note_off_c, 1, 49, 100
3, 204288, Note_on_c, 1, 42, 79
3, 204348, Note_off_c, 1, 54, 100
3, 204352, Note_on_c, 1, 49, 79
3, 204412, Note_off_c, 1, 42, 100
3, 204416, Note_on_c, 1, 42, 78
3, 204472, Note_off_c, 1, 49, 100
3, 204480, Note_on_c, 1, 54, 78
3, 204542, Note_off_c, 1, 42, 100
3, 204544, Note_on_c, 1, 49, 78
3, 204606, Note_off_c, 1, 54, 100
3, 204608, Note_on_c, 1, 54, 77
3, 204664, Note_off_c, 1, 49, 100
3, 204672, Note_on_c, 1, 49, 77
3, 204730, Note_off_c, 1, 54, 100
3, 204736, Note_on_c, 1, 42, 77
3, 204794, Note_off_c, 1, 49, 100
3, 204800, Note_on_c, 1, 49, 77
3, 204858, Note_off_c, 1, 42, 100
3, 204864, Note_on_c, 1, 54, 76
3, 204926, Note_off_c, 1, 49, 100
3, 204928, Note_on_c, 1, 49, 76
3, 204990, Note_off_c, 1, 54, 100
3, 204992, Note_on_c, 1, 54, 76
3, 205054, Note_off_c, 1, 49, 100
3, 205056, Note_on_c, 1, 37, 75
3, 205112, Note_off_c, 1, 54, 100
3, 205120, Note_on_c, 1, 42, 75
3, 205178, Note_off_c, 1, 37, 100
3, 205184, Note_on_c, 1, 37, 75
3, 205240, Note_off_c, 1, 42, 100
3, 205248, Note_on_c, 1, 49, 75
3, 205306, Note_off_c, 1, 37, 100
3, 205312, Note_on_c, 1, 42, 74
3, 205374, Note_off_c, 1, 49, 100
3, 205376, Note_on_c, 1, 49, 74
3, 205436, Note_off_c, 1, 42, 100
3, 205440, Note_on_c, 1, 37, 74
3, 205496, Note_off_c, 1, 49, 100
3, 205504, Note_on_c, 1, 42, 73
3, 205562, Note_off_c, 1, 37, 100
3, 205568, Note_on_c, 1, 37, 73
3, 205628, Note_off_c, 1, 42, 100
3, 205632, Note_on_c, 1, 49, 73
3, 205690, Note_off_c, 1, 37, 100
3, 205696, Note_on_c, 1, 42, 73
3, 205756, Note_off_c, 1, 49, 100
3, 205760, Note_on_c, 1, 49, 72
3, 205816, Note_off_c, 1, 42, 100
3, 205824, Note_on_c, 1, 37, 72
3, 205882, Note_off_c, 1, 49, 100
3, 205888, Note_on_c, 1, 42, 72
3, 205948, Note_off_c, 1, 37, 100
3, 205952, Note_on_c, 1, 37, 71
3, 206012, Note_off_c, 1, 42, 100
3, 206016, Note_on_c, 1, 49, 71
3, 206074, Note_off_c, 1, 37, 100
3, 206080, Note_on_c, 1, 42, 71
3, 206136, Note_off_c, 1, 49, 100
3, 206144, Note_on_c, 1, 49, 71
3, 206200, Note_off_c, 1, 42, 100
3, 206208, Note_on_c, 1, 42, 70
3, 206266, Note_off_c, 1, 49, 100
3, 206272, Note_on_c, 1, 37, 70
3, 206330, Note_off_c, 1, 42, 100
3, 206336, Note_on_c, 1, 42, 70
3, 206394, Note_off_c, 1, 37, 100
3, 206400, Note_on_c, 1, 30, 70
3, 206458, Note_off_c, 1, 42, 100
3, 206464, Note_on_c, 1, 37, 70
3, 206524, Note_off_c, 1, 30, 100
3, 206528, Note_on_c, 1, 30, 70
3, 206586, Note_off_c, 1, 37, 100
3, 206592, Note_on_c, 1, 42, 70
3, 206650, Note_off_c, 1, 30, 100
3, 206656, Note_on_c, 1, 37, 70
3, 206718, Note_off_c, 1, 42, 100
3, 206720, Note_on_c, 1, 42, 70
3, 206782, Note_off_c, 1, 37, 100
3, 206784, Note_on_c, 1, 30, 70
3, 206840, Note_off_c, 1, 42, 100
3, 206848, Note_on_c, 1, 37, 70
3, 206904, Note_off_c, 1, 30, 100
3, 206912, Note_on_c, 1, 30, 70
3, 206970, Note_off_c, 1, 37, 100
3, 206976, Note_on_c, 1, 42, 70
3, 207034, Note_off_c, 1, 30, 100
3, 207040, Note_on_c, 1, 37, 70
3, 207102, Note_off_c, 1, 42, 100
3, 207104, Note_on_c, 1, 42, 70
3, 207164, Note_off_c, 1, 37, 100
3, 207168, Note_on_c, 1, 37, 70
3, 207228, Note_off_c, 1, 42, 100
3, 207232, Note_on_c, 1, 42, 70
3, 207292, Note_off_c, 1, 37, 100
3, 207296, Note_on_c, 1, 37, 70
3, 207356, Control_c, 1, 64, 0
3, 207358, Note_off_c, 1, 42, 100
3, 207358, Note_off_c, 1, 37, 100
3, 207360, Note_on_c, 1, 49, 70
3, 207548, Note_off_c, 1, 49, 100
3, 207552, Note_on_c, 1, 61, 70
3, 207740, Note_off_c, 1, 61, 100
3, 207744, Note_on_c, 1, 57, 70
3, 207932, Note_off_c, 1, 57, 100
3, 207936, Note_on_c, 1, 57, 70
3, 208124, Note_off_c, 1, 57, 100
3, 208128, Note_on_c, 1, 54, 70
3, 208316, Note_off_c, 1, 54, 100
3, 208320, Note_on_c, 1, 56, 70
3, 208320, Note_on_c, 1, 53, 70
3, 208320, Note_on_c, 1, 49, 70
3, 208508, Note_off_c, 1, 56, 100
3, 208508, Note_off_c, 1, 53, 100
3, 208508, Note_off_c, 1, 49, 100
3, 208512, Note_on_c, 1, 57, 70
3, 208512, Note_on_c, 1, 54, 70
3, 208700, Note_off_c, 1, 57, 100
3, 208700, Note_off_c, 1, 54, 100
3, 208704, Note_on_c, 1, 54, 70
3, 208704, Note_on_c, 1, 42, 70
3, 209276, Note_off_c, 1, 54, 100
3, 209276, Note_off_c, 1, 42, 100
3, 209280, Note_on_c, 1, 47, 70
3, 209280, Note_on_c, 1, 35, 70
3, 209468, Note_off_c, 1, 47, 100
3, 209468, Note_off_c, 1, 35, 100
3, 209472, Note_on_c, 1, 42, 70
3, 209472, Note_on_c, 1, 30, 70
3, 209660, Note_off_c, 1, 42, 100
3, 209660, Note_off_c, 1, 30, 100
3, 209664, Note_on_c, 1, 35, 70
3, 209852, Note_off_c, 1, 35, 100
3, 209856, Note_on_c, 1, 41, 70
3, 209856, Note_on_c, 1, 29, 70
3, 210236, Note_off_c, 1, 41, 100
3, 210236, Note_off_c, 1, 29, 100
3, 210240, Note_on_c, 1, 41, 70
3, 210240, Note_on_c, 1, 29, 70
3, 210620, Note_off_c, 1, 41, 100
3, 210620, Note_off_c, 1, 29, 100
3, 210624, Note_on_c, 1, 41, 70
3, 210624, Note_on_c, 1, 29, 70
3, 210716, Note_off_c, 1, 41, 100
3, 210716, Note_off_c, 1, 29, 100
3, 210720, Note_on_c, 1, 42, 70
3, 210720, Note_on_c, 1, 30, 70
3, 210812, Note_off_c, 1, 42, 100
3, 210812, Note_off_c, 1, 30, 100
3, 210816, Control_c, 1, 64, 127
3, 210816, Note_on_c, 1, 42, 70
3, 210816, Note_on_c, 1, 30, 70
3, 211388, Note_off_c, 1, 42, 100
3, 211388, Note_off_c, 1, 30, 100
3, 211392, Note_on_c, 1, 58, 70
3, 211392, Note_on_c, 1, 49, 70
3, 211392, Note_on_c, 1, 42, 70
3, 212540, Note_off_c, 1, 42, 100
3, 212540, Note_off_c, 1, 49, 100
3, 212540, Note_off_c, 1, 58, 100
3, 212544, Note_on_c, 1, 46, 70
3, 212544, Note_on_c, 1, 37, 70
3, 212544, Note_on_c, 1, 30, 70
3, 213692, Note_off_c, 1, 30, 100
3, 213692, Note_off_c, 1, 37, 100
3, 213692, Note_off_c, 1, 46, 100
3, 213696, Note_on_c, 1, 46, 70
3, 213696, Note_on_c, 1, 37, 70
3, 213696, Note_on_c, 1, 30, 70
3, 214268, Note_off_c, 1, 46, 100
3, 214268, Note_off_c, 1, 37, 100
3, 214268, Note_off_c, 1, 30, 100
3, 214272, Note_on_c, 1, 30, 60
3, 214368, Note_on_c, 1, 37, 60
3, 214464, Note_on_c, 1, 46, 60
3, 215612, Note_off_c, 1, 30, 100
3, 215612, Note_off_c, 1, 37, 100
3, 215612, Note_off_c, 1, 46, 100
3, 215804, Control_c, 1, 64, 0
3, 215804, End_track
0, 0, End_of_file
