0, 0, Header, 1, 3, 384
1, 0, Start_track
1, 0, Title_t, "L.v.Beethoven 4mov - Piano Sonata No.29 in Bb Major Op.106\000"
1, 0, Copyright_t, "Copyright(C) 1995-2009, Suzuki Software\000"
1, 0, Sequencer_specific, 9, 67, 123, 0, 88, 70, 48, 50, 0, 1
1, 0, Text_t, "XFhd:2000/10/14:JP:Classical::::L.v.Beethoven:::Kaoru Suzuki\000"
1, 0, Text_t, "XFln:JP:\203s\203A\203m\203\\\203i\203^\221æ29\224Ô\225Ï\203\215\222·\222²\215ì\225i106\201`\221æ4\212y\217Í:L.v.\203x\201[\203g\201[\203\224\203F\203\223:::\227é\202¿\202á\202ñ:\227é\202¿\202á\202ñ\000"
1, 0, Time_signature, 4, 2, 96, 8
1, 0, Sequencer_specific, 3, 0, 0, 65
1, 0, Sequencer_specific, 5, 0, 0, 119, 14, 0
1, 0, Tempo, 2727272
1, 36, Tempo, 2307692
1, 96, Tempo, 2000000
1, 4608, Tempo, 2307692
1, 5184, Tempo, 2727272
1, 5424, Tempo, 1714285
1, 5568, Tempo, 1500000
1, 5664, Tempo, 1333333
1, 5760, Tempo, 1200000
1, 7296, Tempo, 1276595
1, 7488, Tempo, 1333333
1, 7680, Time_signature, 2, 2, 96, 8
1, 7680, Tempo, 1500000
1, 7776, Tempo, 1714285
1, 7824, Tempo, 2400000
1, 7872, Tempo, 2000000
1, 8448, Time_signature, 4, 2, 96, 8
1, 8448, Tempo, 400000
1, 15360, Tempo, 428571
1, 15744, Tempo, 461538
1, 15936, Tempo, 545454
1, 16032, Tempo, 1200000
1, 16128, Tempo, 2000000
1, 20736, Time_signature, 2, 2, 96, 8
1, 23928, Tempo, 1714285
1, 24048, Tempo, 1500000
1, 24168, Tempo, 1333333
1, 24288, Tempo, 1200000
1, 24408, Tempo, 1090909
1, 24528, Tempo, 1000000
1, 24648, Tempo, 923076
1, 24768, Tempo, 857142
1, 24888, Tempo, 800000
1, 25008, Tempo, 750000
1, 25128, Tempo, 705882
1, 25248, Tempo, 666666
1, 26332, Tempo, 705882
1, 26552, Tempo, 750000
1, 26772, Tempo, 800000
1, 26992, Tempo, 857142
1, 27212, Tempo, 923076
1, 27432, Tempo, 1000000
1, 27648, Time_signature, 3, 2, 96, 8
1, 27648, Tempo, 400000
1, 112512, Tempo, 428571
1, 112704, Tempo, 461538
1, 113088, Tempo, 428571
1, 113280, Tempo, 400000
1, 193152, Tempo, 413793
1, 193536, Tempo, 428571
1, 221184, Tempo, 419580
1, 224640, Tempo, 410958
1, 226944, Tempo, 400000
1, 297984, Tempo, 413793
1, 298368, Tempo, 428571
1, 300288, Tempo, 444444
1, 300672, Tempo, 500000
1, 301824, Tempo, 413793
1, 333488, Tempo, 428571
1, 333768, Tempo, 444444
1, 334048, Tempo, 461538
1, 334328, Tempo, 480000
1, 334608, Tempo, 500000
1, 334888, Tempo, 521739
1, 335168, Tempo, 545454
1, 335448, Tempo, 571428
1, 335728, Tempo, 600000
1, 336008, Tempo, 631578
1, 336288, Tempo, 666666
1, 336384, Tempo, 400000
1, 337536, Tempo, 400000
1, 397056, Tempo, 413793
1, 397824, Tempo, 428571
1, 398208, Tempo, 461538
1, 398976, Tempo, 428571
1, 399744, Tempo, 413793
1, 400128, Tempo, 400000
1, 435840, Tempo, 413793
1, 436608, Tempo, 437956
1, 437376, Tempo, 461538
1, 437760, Tempo, 413793
1, 450432, Tempo, 400000
1, 450632, Tempo, 413793
1, 450832, Tempo, 428571
1, 451032, Tempo, 444444
1, 451232, Tempo, 461538
1, 451432, Tempo, 480000
1, 451632, Tempo, 500000
1, 451832, Tempo, 521739
1, 452032, Tempo, 545454
1, 452232, Tempo, 571428
1, 452432, Tempo, 600000
1, 452632, Tempo, 631578
1, 452832, Tempo, 666666
1, 453032, Tempo, 705882
1, 453232, Tempo, 750000
1, 453432, Tempo, 800000
1, 453632, Tempo, 857142
1, 453832, Tempo, 923076
1, 456576, Tempo, 1000000
1, 456960, Tempo, 1200000
1, 457920, Tempo, 428571
1, 459072, Tempo, 400000
1, 471168, Tempo, 413793
1, 471936, Tempo, 428571
1, 472320, Tempo, 461538
1, 472704, Tempo, 500000
1, 474240, Tempo, 545454
1, 474912, Tempo, 400000
1, 474912, End_track
2, 0, Start_track
2, 0, Title_t, "Right"
2, 0, Control_c, 0, 0, 0
2, 0, Program_c, 0, 0
2, 0, Control_c, 0, 7, 100
2, 0, Control_c, 0, 10, 79
2, 0, Control_c, 0, 91, 127
2, 0, Key_signature, -1, "major"
2, 0, Control_c, 0, 64, 127
2, 96, Note_on_c, 0, 65, 80
2, 124, Note_off_c, 0, 65, 100
2, 128, Note_on_c, 0, 65, 80
2, 156, Note_off_c, 0, 65, 100
2, 160, Note_on_c, 0, 77, 80
2, 188, Note_off_c, 0, 77, 100
2, 192, Note_on_c, 0, 77, 80
2, 220, Note_off_c, 0, 77, 100
2, 224, Note_on_c, 0, 89, 80
2, 476, Note_off_c, 0, 89, 100
2, 528, Note_on_c, 0, 89, 80
2, 528, Note_on_c, 0, 77, 80
2, 716, Note_off_c, 0, 89, 100
2, 716, Note_off_c, 0, 77, 100
2, 1104, Control_c, 0, 64, 0
2, 1112, Control_c, 0, 64, 127
2, 1112, Note_on_c, 0, 85, 80
2, 1112, Note_on_c, 0, 80, 80
2, 1112, Note_on_c, 0, 89, 80
2, 1112, Note_on_c, 0, 77, 80
2, 1300, Note_off_c, 0, 85, 100
2, 1300, Note_off_c, 0, 80, 100
2, 1300, Note_off_c, 0, 89, 100
2, 1300, Note_off_c, 0, 77, 100
2, 1732, Control_c, 0, 64, 0
2, 1736, Control_c, 0, 64, 127
2, 1736, Note_on_c, 0, 85, 80
2, 1736, Note_on_c, 0, 89, 80
2, 1736, Note_on_c, 0, 77, 80
2, 1736, Note_on_c, 0, 82, 80
2, 1924, Note_off_c, 0, 85, 100
2, 1924, Note_off_c, 0, 89, 100
2, 1924, Note_off_c, 0, 77, 100
2, 1924, Note_off_c, 0, 82, 100
2, 2296, Control_c, 0, 64, 0
2, 2304, Control_c, 0, 64, 127
2, 2304, Note_on_c, 0, 90, 80
2, 2304, Note_on_c, 0, 85, 80
2, 2304, Note_on_c, 0, 82, 80
2, 2304, Note_on_c, 0, 78, 80
2, 2684, Note_off_c, 0, 90, 100
2, 2684, Note_off_c, 0, 85, 100
2, 2684, Note_off_c, 0, 82, 100
2, 2684, Note_off_c, 0, 78, 100
2, 2924, Control_c, 0, 64, 0
2, 2928, Note_on_c, 0, 73, 80
2, 2972, Note_off_c, 0, 73, 100
2, 2976, Note_on_c, 0, 78, 80
2, 3020, Note_off_c, 0, 78, 100
2, 3024, Note_on_c, 0, 73, 80
2, 3068, Note_off_c, 0, 73, 100
2, 3072, Key_signature, -2, "major"
2, 3072, Note_on_c, 0, 78, 80
2, 3116, Note_off_c, 0, 78, 100
2, 3120, Note_on_c, 0, 73, 80
2, 3164, Note_off_c, 0, 73, 100
2, 3168, Note_on_c, 0, 78, 80
2, 3212, Note_off_c, 0, 78, 100
2, 3216, Note_on_c, 0, 70, 80
2, 3260, Note_off_c, 0, 70, 100
2, 3264, Note_on_c, 0, 75, 80
2, 3312, Note_on_c, 0, 66, 80
2, 3356, Note_off_c, 0, 66, 100
2, 3360, Note_on_c, 0, 71, 80
2, 3404, Note_off_c, 0, 71, 100
2, 3408, Note_on_c, 0, 66, 80
2, 3452, Note_off_c, 0, 66, 100
2, 3456, Note_on_c, 0, 71, 80
2, 3500, Note_off_c, 0, 71, 100
2, 3504, Note_on_c, 0, 66, 80
2, 3548, Note_off_c, 0, 66, 100
2, 3552, Note_on_c, 0, 71, 80
2, 3596, Note_off_c, 0, 71, 100
2, 3600, Note_on_c, 0, 63, 80
2, 3644, Note_off_c, 0, 75, 100
2, 3644, Note_off_c, 0, 63, 100
2, 3648, Note_on_c, 0, 75, 80
2, 3648, Note_on_c, 0, 65, 80
2, 3692, Note_off_c, 0, 65, 100
2, 3696, Note_on_c, 0, 68, 80
2, 3740, Note_off_c, 0, 75, 100
2, 3740, Note_off_c, 0, 68, 100
2, 3744, Note_on_c, 0, 73, 80
2, 3744, Note_on_c, 0, 65, 80
2, 3788, Note_off_c, 0, 65, 100
2, 3792, Note_on_c, 0, 68, 80
2, 3836, Note_off_c, 0, 68, 100
2, 3840, Note_on_c, 0, 65, 80
2, 3884, Note_off_c, 0, 65, 100
2, 3888, Note_on_c, 0, 68, 80
2, 3932, Note_off_c, 0, 73, 100
2, 3932, Note_off_c, 0, 68, 100
2, 3936, Note_on_c, 0, 71, 80
2, 3936, Note_on_c, 0, 65, 80
2, 3980, Note_off_c, 0, 65, 100
2, 3984, Note_on_c, 0, 68, 80
2, 4028, Note_off_c, 0, 71, 100
2, 4028, Note_off_c, 0, 68, 100
2, 4032, Note_on_c, 0, 70, 80
2, 4032, Note_on_c, 0, 66, 80
2, 4124, Note_off_c, 0, 70, 100
2, 4124, Note_off_c, 0, 66, 100
2, 4128, Note_on_c, 0, 75, 80
2, 4128, Note_on_c, 0, 69, 80
2, 4128, Note_on_c, 0, 66, 80
2, 4220, Note_off_c, 0, 75, 100
2, 4220, Note_off_c, 0, 69, 100
2, 4220, Note_off_c, 0, 66, 100
2, 4224, Note_on_c, 0, 68, 80
2, 4224, Note_on_c, 0, 65, 80
2, 4412, Note_off_c, 0, 65, 100
2, 4556, Note_off_c, 0, 68, 100
2, 4560, Note_on_c, 0, 70, 80
2, 4560, Note_on_c, 0, 66, 80
2, 4604, Note_off_c, 0, 70, 100
2, 4604, Note_off_c, 0, 66, 100
2, 4608, Note_on_c, 0, 82, 80
2, 4608, Note_on_c, 0, 78, 80
2, 4608, Note_on_c, 0, 73, 80
2, 4608, Note_on_c, 0, 70, 80
2, 4700, Note_off_c, 0, 82, 100
2, 4700, Note_off_c, 0, 78, 100
2, 4700, Note_off_c, 0, 73, 100
2, 4700, Note_off_c, 0, 70, 100
2, 4892, Control_c, 0, 64, 0
2, 4896, Control_c, 0, 64, 127
2, 4896, Note_on_c, 0, 82, 80
2, 4896, Note_on_c, 0, 78, 80
2, 4896, Note_on_c, 0, 73, 80
2, 4896, Note_on_c, 0, 70, 80
2, 5084, Note_off_c, 0, 82, 100
2, 5084, Note_off_c, 0, 78, 100
2, 5084, Note_off_c, 0, 73, 100
2, 5084, Note_off_c, 0, 70, 100
2, 5176, Control_c, 0, 64, 0
2, 5184, Control_c, 0, 64, 127
2, 5184, Note_on_c, 0, 87, 80
2, 5184, Note_on_c, 0, 78, 80
2, 5184, Note_on_c, 0, 75, 80
2, 5372, Note_off_c, 0, 87, 100
2, 5372, Note_off_c, 0, 78, 100
2, 5372, Note_off_c, 0, 75, 100
2, 5412, Control_c, 0, 64, 0
2, 5808, Note_on_c, 0, 66, 80
2, 5852, Note_off_c, 0, 66, 100
2, 5856, Note_on_c, 0, 68, 80
2, 5900, Note_off_c, 0, 68, 100
2, 5904, Note_on_c, 0, 70, 80
2, 5948, Note_off_c, 0, 70, 100
2, 5952, Note_on_c, 0, 71, 80
2, 5996, Note_off_c, 0, 71, 100
2, 6000, Note_on_c, 0, 73, 80
2, 6044, Note_off_c, 0, 73, 100
2, 6048, Note_on_c, 0, 75, 80
2, 6092, Note_off_c, 0, 75, 100
2, 6096, Note_on_c, 0, 76, 80
2, 6140, Note_off_c, 0, 76, 100
2, 6144, Key_signature, 5, "major"
2, 6144, Control_c, 0, 64, 127
2, 6144, Note_on_c, 0, 75, 80
2, 6188, Note_off_c, 0, 75, 100
2, 6192, Note_on_c, 0, 71, 80
2, 6236, Note_off_c, 0, 71, 100
2, 6240, Note_on_c, 0, 78, 80
2, 6284, Note_off_c, 0, 78, 100
2, 6288, Note_on_c, 0, 76, 80
2, 6332, Note_off_c, 0, 76, 100
2, 6336, Note_on_c, 0, 75, 80
2, 6380, Note_off_c, 0, 75, 100
2, 6384, Note_on_c, 0, 73, 80
2, 6428, Note_off_c, 0, 73, 100
2, 6432, Note_on_c, 0, 71, 80
2, 6476, Note_off_c, 0, 71, 100
2, 6480, Note_on_c, 0, 70, 80
2, 6524, Note_off_c, 0, 70, 100
2, 6528, Note_on_c, 0, 71, 80
2, 6572, Note_off_c, 0, 71, 100
2, 6576, Note_on_c, 0, 78, 80
2, 6620, Note_off_c, 0, 78, 100
2, 6624, Note_on_c, 0, 80, 80
2, 6668, Note_off_c, 0, 80, 100
2, 6672, Note_on_c, 0, 82, 80
2, 6716, Note_off_c, 0, 82, 100
2, 6720, Note_on_c, 0, 83, 80
2, 6764, Note_off_c, 0, 83, 100
2, 6768, Note_on_c, 0, 85, 80
2, 6812, Note_off_c, 0, 85, 100
2, 6816, Note_on_c, 0, 87, 80
2, 6860, Note_off_c, 0, 87, 100
2, 6864, Note_on_c, 0, 88, 80
2, 6908, Note_off_c, 0, 88, 100
2, 6912, Note_on_c, 0, 87, 80
2, 6956, Note_off_c, 0, 87, 100
2, 6960, Note_on_c, 0, 85, 80
2, 7004, Note_off_c, 0, 85, 100
2, 7008, Note_on_c, 0, 83, 80
2, 7052, Note_off_c, 0, 83, 100
2, 7056, Note_on_c, 0, 82, 80
2, 7100, Note_off_c, 0, 82, 100
2, 7104, Note_on_c, 0, 80, 80
2, 7148, Note_off_c, 0, 80, 100
2, 7152, Note_on_c, 0, 78, 80
2, 7196, Note_off_c, 0, 78, 100
2, 7200, Note_on_c, 0, 76, 80
2, 7244, Note_off_c, 0, 76, 100
2, 7248, Note_on_c, 0, 75, 80
2, 7292, Note_off_c, 0, 75, 100
2, 7296, Note_on_c, 0, 73, 80
2, 7340, Note_off_c, 0, 73, 100
2, 7344, Note_on_c, 0, 71, 80
2, 7388, Note_off_c, 0, 71, 100
2, 7392, Note_on_c, 0, 70, 80
2, 7436, Note_off_c, 0, 70, 100
2, 7440, Note_on_c, 0, 68, 80
2, 7484, Note_off_c, 0, 68, 100
2, 7488, Note_on_c, 0, 66, 80
2, 7532, Note_off_c, 0, 66, 100
2, 7536, Note_on_c, 0, 76, 80
2, 7580, Note_off_c, 0, 76, 100
2, 7584, Note_on_c, 0, 75, 80
2, 7628, Note_off_c, 0, 75, 100
2, 7632, Note_on_c, 0, 80, 80
2, 7676, Note_off_c, 0, 80, 100
2, 7680, Note_on_c, 0, 78, 80
2, 7724, Note_off_c, 0, 78, 100
2, 7728, Note_on_c, 0, 83, 80
2, 7772, Note_off_c, 0, 83, 100
2, 7776, Note_on_c, 0, 82, 80
2, 7820, Note_off_c, 0, 82, 100
2, 7824, Note_on_c, 0, 88, 80
2, 7868, Note_off_c, 0, 88, 100
2, 7872, Control_c, 0, 64, 127
2, 7872, Note_on_c, 0, 88, 80
2, 7872, Note_on_c, 0, 82, 80
2, 7872, Note_on_c, 0, 76, 80
2, 8008, Control_c, 0, 64, 0
2, 8016, Control_c, 0, 64, 127
2, 8016, Note_on_c, 0, 87, 80
2, 8016, Note_on_c, 0, 83, 80
2, 8016, Note_on_c, 0, 78, 80
2, 8016, Note_on_c, 0, 75, 80
2, 8060, Note_off_c, 0, 88, 100
2, 8060, Note_off_c, 0, 82, 100
2, 8060, Note_off_c, 0, 76, 100
2, 8108, Note_off_c, 0, 87, 100
2, 8108, Note_off_c, 0, 83, 100
2, 8108, Note_off_c, 0, 78, 100
2, 8108, Note_off_c, 0, 75, 100
2, 8348, Control_c, 0, 64, 0
2, 8352, Note_on_c, 0, 75, 80
2, 8352, Note_on_c, 0, 83, 80
2, 8352, Note_on_c, 0, 87, 80
2, 8444, Note_off_c, 0, 75, 100
2, 8444, Note_off_c, 0, 83, 100
2, 8444, Note_off_c, 0, 87, 100
2, 8448, Note_on_c, 0, 87, 110
2, 8544, Note_on_c, 0, 75, 80
2, 8636, Note_off_c, 0, 87, 100
2, 8636, Note_off_c, 0, 75, 100
2, 8640, Note_on_c, 0, 68, 80
2, 8732, Note_off_c, 0, 68, 100
2, 8736, Note_on_c, 0, 75, 80
2, 8828, Note_off_c, 0, 75, 100
2, 8832, Note_on_c, 0, 76, 80
2, 8924, Note_off_c, 0, 76, 100
2, 8928, Note_on_c, 0, 75, 80
2, 9020, Note_off_c, 0, 75, 100
2, 9024, Note_on_c, 0, 68, 80
2, 9116, Note_off_c, 0, 68, 100
2, 9120, Note_on_c, 0, 75, 80
2, 9212, Note_off_c, 0, 75, 100
2, 9216, Note_on_c, 0, 76, 80
2, 10076, Note_off_c, 0, 76, 100
2, 10080, Note_on_c, 0, 70, 80
2, 10172, Note_off_c, 0, 70, 100
2, 10176, Note_on_c, 0, 75, 80
2, 10268, Note_off_c, 0, 75, 100
2, 10272, Note_on_c, 0, 74, 80
2, 10364, Note_off_c, 0, 74, 100
2, 10368, Note_on_c, 0, 75, 80
2, 10460, Note_off_c, 0, 75, 100
2, 10464, Note_on_c, 0, 70, 80
2, 10556, Note_off_c, 0, 70, 100
2, 10560, Note_on_c, 0, 75, 80
2, 10652, Note_off_c, 0, 75, 100
2, 10656, Note_on_c, 0, 73, 80
2, 10748, Note_off_c, 0, 73, 100
2, 10752, Note_on_c, 0, 72, 80
2, 10844, Note_off_c, 0, 72, 100
2, 10848, Note_on_c, 0, 75, 80
2, 10940, Note_off_c, 0, 75, 100
2, 10944, Note_on_c, 0, 72, 80
2, 11036, Note_off_c, 0, 72, 100
2, 11040, Note_on_c, 0, 80, 80
2, 11132, Note_off_c, 0, 80, 100
2, 11136, Note_on_c, 0, 73, 80
2, 11228, Note_off_c, 0, 73, 100
2, 11232, Note_on_c, 0, 80, 80
2, 11324, Note_off_c, 0, 80, 100
2, 11328, Note_on_c, 0, 75, 80
2, 11420, Note_off_c, 0, 75, 100
2, 11424, Note_on_c, 0, 80, 80
2, 11516, Note_off_c, 0, 80, 100
2, 11520, Note_on_c, 0, 76, 80
2, 11900, Note_off_c, 0, 76, 100
2, 11904, Note_on_c, 0, 64, 80
2, 12380, Note_off_c, 0, 64, 100
2, 12384, Note_on_c, 0, 61, 80
2, 12476, Note_off_c, 0, 61, 100
2, 12480, Note_on_c, 0, 66, 80
2, 12572, Note_off_c, 0, 66, 100
2, 12576, Note_on_c, 0, 65, 80
2, 12668, Note_off_c, 0, 65, 100
2, 12672, Note_on_c, 0, 66, 80
2, 12764, Note_off_c, 0, 66, 100
2, 12768, Note_on_c, 0, 61, 80
2, 12860, Note_off_c, 0, 61, 100
2, 12864, Note_on_c, 0, 66, 80
2, 12956, Note_off_c, 0, 66, 100
2, 12960, Note_on_c, 0, 64, 80
2, 13052, Note_off_c, 0, 64, 100
2, 13056, Note_on_c, 0, 63, 80
2, 13244, Note_off_c, 0, 63, 100
2, 13248, Note_on_c, 0, 75, 80
2, 13628, Note_off_c, 0, 75, 100
2, 13632, Note_on_c, 0, 73, 80
2, 13820, Note_off_c, 0, 73, 100
2, 13824, Note_on_c, 0, 71, 80
2, 13916, Note_off_c, 0, 71, 100
2, 13920, Note_on_c, 0, 75, 81
2, 14012, Note_off_c, 0, 75, 100
2, 14016, Note_on_c, 0, 71, 83
2, 14108, Note_off_c, 0, 71, 100
2, 14112, Note_on_c, 0, 75, 84
2, 14204, Note_off_c, 0, 75, 100
2, 14208, Note_on_c, 0, 76, 86
2, 14208, Note_on_c, 0, 83, 86
2, 14300, Note_off_c, 0, 76, 100
2, 14304, Note_on_c, 0, 75, 87
2, 14396, Note_off_c, 0, 75, 100
2, 14400, Note_on_c, 0, 71, 89
2, 14492, Note_off_c, 0, 71, 100
2, 14496, Note_on_c, 0, 75, 91
2, 14588, Note_off_c, 0, 75, 100
2, 14592, Note_on_c, 0, 76, 92
2, 14684, Note_off_c, 0, 83, 100
2, 14688, Note_on_c, 0, 80, 94
2, 14780, Note_off_c, 0, 80, 100
2, 14784, Note_on_c, 0, 81, 95
2, 14876, Note_off_c, 0, 81, 100
2, 14880, Note_on_c, 0, 85, 97
2, 14972, Note_off_c, 0, 76, 100
2, 14972, Note_off_c, 0, 85, 100
2, 14976, Note_on_c, 0, 76, 98
2, 14976, Note_on_c, 0, 69, 98
2, 15068, Note_off_c, 0, 76, 100
2, 15072, Note_on_c, 0, 81, 100
2, 15164, Note_off_c, 0, 69, 100
2, 15164, Note_off_c, 0, 81, 100
2, 15168, Note_on_c, 0, 75, 102
2, 15168, Note_on_c, 0, 71, 102
2, 15260, Note_off_c, 0, 75, 100
2, 15264, Note_on_c, 0, 80, 103
2, 15356, Note_off_c, 0, 71, 100
2, 15356, Note_off_c, 0, 80, 100
2, 15360, Note_on_c, 0, 75, 105
2, 15360, Note_on_c, 0, 71, 105
2, 15452, Note_off_c, 0, 75, 100
2, 15456, Note_on_c, 0, 80, 106
2, 15548, Note_off_c, 0, 71, 100
2, 15548, Note_off_c, 0, 80, 100
2, 15552, Note_on_c, 0, 75, 108
2, 15552, Note_on_c, 0, 73, 108
2, 15644, Note_off_c, 0, 75, 100
2, 15648, Note_on_c, 0, 79, 109
2, 15740, Note_off_c, 0, 73, 100
2, 15740, Note_off_c, 0, 79, 100
2, 15744, Note_on_c, 0, 75, 110
2, 15744, Note_on_c, 0, 71, 110
2, 15836, Note_off_c, 0, 75, 100
2, 15840, Note_on_c, 0, 80, 110
2, 15932, Note_off_c, 0, 71, 100
2, 15932, Note_off_c, 0, 80, 100
2, 15936, Note_on_c, 0, 75, 110
2, 15936, Note_on_c, 0, 70, 110
2, 16028, Note_off_c, 0, 75, 100
2, 16032, Note_on_c, 0, 82, 110
2, 16124, Note_off_c, 0, 70, 100
2, 16124, Note_off_c, 0, 82, 100
2, 16224, Note_on_c, 0, 71, 81
2, 16224, Note_on_c, 0, 83, 81
2, 16224, Note_on_c, 0, 80, 81
2, 16224, Note_on_c, 0, 75, 81
2, 16604, Note_off_c, 0, 71, 100
2, 16604, Note_off_c, 0, 83, 100
2, 16604, Note_off_c, 0, 80, 100
2, 16604, Note_off_c, 0, 75, 100
2, 16608, Note_on_c, 0, 71, 86
2, 16608, Note_on_c, 0, 83, 86
2, 16608, Note_on_c, 0, 80, 86
2, 16608, Note_on_c, 0, 76, 86
2, 16988, Note_off_c, 0, 71, 100
2, 16988, Note_off_c, 0, 83, 100
2, 16988, Note_off_c, 0, 80, 100
2, 16988, Note_off_c, 0, 76, 100
2, 16992, Note_on_c, 0, 73, 91
2, 16992, Note_on_c, 0, 76, 91
2, 16992, Note_on_c, 0, 80, 91
2, 16992, Note_on_c, 0, 85, 91
2, 17372, Note_off_c, 0, 73, 100
2, 17372, Note_off_c, 0, 76, 100
2, 17372, Note_off_c, 0, 80, 100
2, 17372, Note_off_c, 0, 85, 100
2, 17376, Control_c, 0, 64, 127
2, 17376, Note_on_c, 0, 73, 96
2, 17376, Note_on_c, 0, 76, 96
2, 17376, Note_on_c, 0, 81, 96
2, 17376, Note_on_c, 0, 85, 96
2, 17664, Key_signature, 3, "major"
2, 17756, Note_off_c, 0, 73, 100
2, 17756, Note_off_c, 0, 76, 100
2, 17756, Note_off_c, 0, 81, 100
2, 17756, Note_off_c, 0, 85, 100
2, 17856, Note_on_c, 0, 69, 91
2, 17884, Note_off_c, 0, 69, 100
2, 17888, Note_on_c, 0, 69, 93
2, 17916, Note_off_c, 0, 69, 100
2, 17920, Note_on_c, 0, 81, 95
2, 17948, Note_off_c, 0, 81, 100
2, 17952, Note_on_c, 0, 81, 97
2, 18044, Note_off_c, 0, 81, 100
2, 18048, Note_on_c, 0, 93, 103
2, 18048, Note_on_c, 0, 81, 103
2, 18136, Control_c, 0, 64, 0
2, 18240, Control_c, 0, 64, 127
2, 18428, Note_off_c, 0, 93, 100
2, 18428, Note_off_c, 0, 81, 100
2, 18432, Note_on_c, 0, 80, 110
2, 18432, Note_on_c, 0, 92, 110
2, 18620, Note_off_c, 0, 80, 100
2, 18620, Note_off_c, 0, 92, 100
2, 18624, Note_on_c, 0, 88, 110
2, 18624, Note_on_c, 0, 76, 110
2, 18812, Note_off_c, 0, 88, 100
2, 18812, Note_off_c, 0, 76, 100
2, 18816, Note_on_c, 0, 75, 110
2, 18816, Note_on_c, 0, 87, 110
2, 18940, Note_off_c, 0, 75, 100
2, 18940, Note_off_c, 0, 87, 100
2, 18944, Note_on_c, 0, 74, 110
2, 18944, Note_on_c, 0, 86, 110
2, 19068, Note_off_c, 0, 74, 100
2, 19068, Note_off_c, 0, 86, 100
2, 19072, Note_on_c, 0, 71, 110
2, 19072, Note_on_c, 0, 83, 110
2, 19196, Note_off_c, 0, 71, 100
2, 19196, Note_off_c, 0, 83, 100
2, 19200, Note_on_c, 0, 80, 110
2, 19264, Note_on_c, 0, 76, 110
2, 19328, Note_on_c, 0, 75, 109
2, 19376, Note_off_c, 0, 80, 100
2, 19392, Note_on_c, 0, 74, 108
2, 19440, Note_off_c, 0, 76, 100
2, 19456, Note_on_c, 0, 71, 107
2, 19504, Note_off_c, 0, 75, 100
2, 19520, Note_on_c, 0, 68, 106
2, 19568, Note_off_c, 0, 74, 100
2, 19584, Note_on_c, 0, 64, 105
2, 19632, Note_off_c, 0, 71, 100
2, 19648, Note_on_c, 0, 63, 105
2, 19696, Note_off_c, 0, 68, 100
2, 19712, Note_on_c, 0, 62, 104
2, 19760, Note_off_c, 0, 64, 100
2, 19776, Note_on_c, 0, 59, 103
2, 19824, Note_off_c, 0, 63, 100
2, 19824, Note_on_c, 0, 56, 102
2, 19872, Note_on_c, 0, 52, 102
2, 19888, Note_off_c, 0, 62, 100
2, 19896, Note_off_c, 0, 59, 100
2, 19920, Note_on_c, 0, 51, 101
2, 19944, Note_off_c, 0, 56, 100
2, 19968, Note_on_c, 0, 50, 100
2, 19992, Note_off_c, 0, 52, 100
2, 19992, Note_on_c, 0, 52, 100
2, 20012, Note_off_c, 0, 50, 100
2, 20016, Note_on_c, 0, 50, 100
2, 20036, Note_off_c, 0, 52, 100
2, 20040, Note_off_c, 0, 51, 100
2, 20040, Note_on_c, 0, 52, 99
2, 20060, Note_off_c, 0, 50, 100
2, 20064, Note_on_c, 0, 50, 99
2, 20084, Note_off_c, 0, 52, 100
2, 20088, Note_on_c, 0, 52, 99
2, 20108, Note_off_c, 0, 50, 100
2, 20112, Note_on_c, 0, 50, 99
2, 20132, Note_off_c, 0, 52, 100
2, 20136, Note_on_c, 0, 52, 98
2, 20156, Note_off_c, 0, 50, 100
2, 20160, Note_on_c, 0, 50, 98
2, 20180, Note_off_c, 0, 52, 100
2, 20184, Note_on_c, 0, 52, 98
2, 20204, Note_off_c, 0, 50, 100
2, 20208, Note_on_c, 0, 50, 97
2, 20228, Note_off_c, 0, 52, 100
2, 20232, Note_on_c, 0, 52, 97
2, 20252, Note_off_c, 0, 50, 100
2, 20256, Note_on_c, 0, 50, 97
2, 20276, Note_off_c, 0, 52, 100
2, 20280, Note_on_c, 0, 52, 96
2, 20300, Note_off_c, 0, 50, 100
2, 20304, Note_on_c, 0, 50, 96
2, 20324, Note_off_c, 0, 52, 100
2, 20328, Note_on_c, 0, 52, 96
2, 20348, Note_off_c, 0, 50, 100
2, 20352, Note_on_c, 0, 51, 95
2, 20372, Note_off_c, 0, 52, 100
2, 20376, Note_on_c, 0, 52, 95
2, 20396, Note_off_c, 0, 51, 100
2, 20400, Note_on_c, 0, 51, 95
2, 20420, Note_off_c, 0, 52, 100
2, 20424, Note_on_c, 0, 52, 94
2, 20444, Note_off_c, 0, 51, 100
2, 20448, Note_on_c, 0, 51, 94
2, 20468, Note_off_c, 0, 52, 100
2, 20472, Note_on_c, 0, 52, 94
2, 20492, Note_off_c, 0, 51, 100
2, 20496, Note_on_c, 0, 51, 93
2, 20516, Note_off_c, 0, 52, 100
2, 20520, Note_on_c, 0, 52, 93
2, 20540, Note_off_c, 0, 51, 100
2, 20544, Note_on_c, 0, 51, 93
2, 20564, Note_off_c, 0, 52, 100
2, 20568, Note_on_c, 0, 52, 93
2, 20588, Note_off_c, 0, 51, 100
2, 20592, Note_on_c, 0, 51, 92
2, 20612, Note_off_c, 0, 52, 100
2, 20616, Note_on_c, 0, 52, 92
2, 20636, Note_off_c, 0, 51, 100
2, 20640, Note_on_c, 0, 51, 92
2, 20660, Note_off_c, 0, 52, 100
2, 20664, Note_on_c, 0, 52, 91
2, 20684, Note_off_c, 0, 51, 100
2, 20688, Note_on_c, 0, 51, 91
2, 20708, Note_off_c, 0, 52, 100
2, 20712, Note_on_c, 0, 52, 91
2, 20732, Note_off_c, 0, 51, 100
2, 20736, Note_on_c, 0, 52, 90
2, 20756, Note_off_c, 0, 52, 64
2, 20760, Note_on_c, 0, 54, 90
2, 20780, Note_off_c, 0, 52, 100
2, 20784, Note_on_c, 0, 52, 90
2, 20804, Note_off_c, 0, 54, 100
2, 20808, Note_on_c, 0, 54, 89
2, 20828, Note_off_c, 0, 52, 100
2, 20832, Note_on_c, 0, 52, 89
2, 20852, Note_off_c, 0, 54, 100
2, 20856, Note_on_c, 0, 54, 89
2, 20876, Note_off_c, 0, 52, 100
2, 20880, Note_on_c, 0, 52, 88
2, 20900, Note_off_c, 0, 54, 100
2, 20904, Note_on_c, 0, 54, 88
2, 20924, Note_off_c, 0, 52, 100
2, 20928, Note_on_c, 0, 52, 88
2, 20948, Note_off_c, 0, 54, 100
2, 20952, Note_on_c, 0, 54, 87
2, 20972, Note_off_c, 0, 52, 100
2, 20976, Note_on_c, 0, 52, 87
2, 20996, Note_off_c, 0, 54, 100
2, 21000, Note_on_c, 0, 54, 87
2, 21020, Note_off_c, 0, 52, 100
2, 21024, Note_on_c, 0, 52, 87
2, 21044, Note_off_c, 0, 54, 100
2, 21048, Note_on_c, 0, 54, 86
2, 21068, Note_off_c, 0, 52, 100
2, 21072, Note_on_c, 0, 52, 86
2, 21092, Note_off_c, 0, 54, 100
2, 21096, Note_on_c, 0, 54, 86
2, 21116, Note_off_c, 0, 52, 100
2, 21120, Note_on_c, 0, 52, 85
2, 21140, Note_off_c, 0, 54, 100
2, 21144, Note_on_c, 0, 54, 85
2, 21164, Note_off_c, 0, 52, 100
2, 21168, Note_on_c, 0, 52, 85
2, 21188, Note_off_c, 0, 54, 100
2, 21192, Note_on_c, 0, 54, 84
2, 21212, Note_off_c, 0, 52, 100
2, 21216, Note_on_c, 0, 52, 84
2, 21236, Note_off_c, 0, 54, 100
2, 21240, Note_on_c, 0, 54, 84
2, 21260, Note_off_c, 0, 52, 100
2, 21264, Note_on_c, 0, 52, 83
2, 21284, Note_off_c, 0, 54, 100
2, 21288, Note_on_c, 0, 54, 83
2, 21308, Note_off_c, 0, 52, 100
2, 21312, Note_on_c, 0, 52, 83
2, 21332, Note_off_c, 0, 54, 100
2, 21336, Note_on_c, 0, 54, 82
2, 21356, Note_off_c, 0, 52, 100
2, 21360, Note_on_c, 0, 52, 82
2, 21380, Note_off_c, 0, 54, 100
2, 21384, Note_on_c, 0, 54, 82
2, 21404, Note_off_c, 0, 52, 100
2, 21408, Note_on_c, 0, 52, 81
2, 21428, Note_off_c, 0, 54, 100
2, 21432, Note_on_c, 0, 54, 81
2, 21452, Note_off_c, 0, 52, 100
2, 21456, Note_on_c, 0, 51, 81
2, 21476, Note_off_c, 0, 54, 100
2, 21480, Note_on_c, 0, 52, 81
2, 21496, Control_c, 0, 64, 0
2, 21500, Note_off_c, 0, 51, 100
2, 21500, Note_off_c, 0, 52, 64
2, 21504, Note_on_c, 0, 52, 80
2, 21504, Note_on_c, 0, 49, 80
2, 21692, Note_off_c, 0, 52, 100
2, 21692, Note_off_c, 0, 49, 100
2, 21696, Note_on_c, 0, 52, 80
2, 21696, Note_on_c, 0, 49, 80
2, 21788, Note_off_c, 0, 52, 100
2, 21788, Note_off_c, 0, 49, 100
2, 21792, Note_on_c, 0, 52, 80
2, 21792, Note_on_c, 0, 49, 80
2, 21884, Note_off_c, 0, 52, 100
2, 21884, Note_off_c, 0, 49, 100
2, 21888, Note_on_c, 0, 52, 80
2, 21888, Note_on_c, 0, 49, 80
2, 22076, Note_off_c, 0, 52, 100
2, 22076, Note_off_c, 0, 49, 100
2, 22080, Note_on_c, 0, 57, 80
2, 22080, Note_on_c, 0, 49, 80
2, 22172, Note_off_c, 0, 57, 100
2, 22172, Note_off_c, 0, 49, 100
2, 22176, Note_on_c, 0, 57, 80
2, 22176, Note_on_c, 0, 49, 80
2, 22176, Note_on_c, 0, 54, 80
2, 22268, Note_off_c, 0, 57, 100
2, 22268, Note_off_c, 0, 49, 100
2, 22268, Note_off_c, 0, 54, 100
2, 22272, Note_on_c, 0, 57, 80
2, 22272, Note_on_c, 0, 54, 80
2, 22460, Note_off_c, 0, 57, 100
2, 22460, Note_off_c, 0, 54, 100
2, 22464, Note_on_c, 0, 57, 80
2, 22464, Note_on_c, 0, 54, 80
2, 22556, Note_off_c, 0, 57, 100
2, 22556, Note_off_c, 0, 54, 100
2, 22560, Note_on_c, 0, 57, 80
2, 22560, Note_on_c, 0, 54, 80
2, 22652, Note_off_c, 0, 57, 100
2, 22652, Note_off_c, 0, 54, 100
2, 22656, Note_on_c, 0, 57, 80
2, 22656, Note_on_c, 0, 54, 80
2, 22844, Note_off_c, 0, 57, 100
2, 22844, Note_off_c, 0, 54, 100
2, 22848, Note_on_c, 0, 62, 80
2, 22848, Note_on_c, 0, 54, 80
2, 22940, Note_off_c, 0, 62, 100
2, 22940, Note_off_c, 0, 54, 100
2, 22944, Note_on_c, 0, 62, 80
2, 22944, Note_on_c, 0, 54, 80
2, 23036, Note_off_c, 0, 62, 100
2, 23036, Note_off_c, 0, 54, 100
2, 23040, Key_signature, 0, "major"
2, 23040, Note_on_c, 0, 62, 80
2, 23040, Note_on_c, 0, 59, 80
2, 23228, Note_off_c, 0, 62, 100
2, 23228, Note_off_c, 0, 59, 100
2, 23232, Note_on_c, 0, 62, 83
2, 23232, Note_on_c, 0, 59, 83
2, 23324, Note_off_c, 0, 62, 100
2, 23324, Note_off_c, 0, 59, 100
2, 23328, Note_on_c, 0, 62, 85
2, 23328, Note_on_c, 0, 59, 85
2, 23420, Note_off_c, 0, 62, 100
2, 23420, Note_off_c, 0, 59, 100
2, 23424, Note_on_c, 0, 62, 87
2, 23424, Note_on_c, 0, 59, 87
2, 23612, Note_off_c, 0, 62, 100
2, 23612, Note_off_c, 0, 59, 100
2, 23616, Note_on_c, 0, 67, 90
2, 23616, Note_on_c, 0, 59, 90
2, 23708, Note_off_c, 0, 67, 100
2, 23708, Note_off_c, 0, 59, 100
2, 23712, Note_on_c, 0, 67, 92
2, 23712, Note_on_c, 0, 59, 92
2, 23804, Note_off_c, 0, 67, 100
2, 23804, Note_off_c, 0, 59, 100
2, 23808, Note_on_c, 0, 67, 94
2, 23808, Note_on_c, 0, 64, 94
2, 23996, Note_off_c, 0, 67, 100
2, 23996, Note_off_c, 0, 64, 100
2, 24000, Note_on_c, 0, 67, 97
2, 24000, Note_on_c, 0, 64, 97
2, 24092, Note_off_c, 0, 67, 100
2, 24092, Note_off_c, 0, 64, 100
2, 24096, Note_on_c, 0, 67, 99
2, 24096, Note_on_c, 0, 64, 99
2, 24188, Note_off_c, 0, 67, 100
2, 24188, Note_off_c, 0, 64, 100
2, 24192, Note_on_c, 0, 72, 101
2, 24192, Note_on_c, 0, 64, 101
2, 24380, Note_off_c, 0, 72, 100
2, 24380, Note_off_c, 0, 64, 100
2, 24384, Note_on_c, 0, 72, 104
2, 24384, Note_on_c, 0, 64, 104
2, 24476, Note_off_c, 0, 72, 100
2, 24476, Note_off_c, 0, 64, 100
2, 24480, Note_on_c, 0, 72, 106
2, 24480, Note_on_c, 0, 64, 106
2, 24572, Note_off_c, 0, 72, 100
2, 24572, Note_off_c, 0, 64, 100
2, 24576, Note_on_c, 0, 72, 108
2, 24576, Note_on_c, 0, 69, 108
2, 24764, Note_off_c, 0, 72, 100
2, 24764, Note_off_c, 0, 69, 100
2, 24768, Note_on_c, 0, 72, 112
2, 24768, Note_on_c, 0, 69, 112
2, 24860, Note_off_c, 0, 72, 100
2, 24860, Note_off_c, 0, 69, 100
2, 24864, Note_on_c, 0, 72, 113
2, 24864, Note_on_c, 0, 69, 113
2, 24956, Note_off_c, 0, 72, 100
2, 24956, Note_off_c, 0, 69, 100
2, 24960, Note_on_c, 0, 77, 115
2, 24960, Note_on_c, 0, 69, 115
2, 25148, Note_off_c, 0, 77, 100
2, 25148, Note_off_c, 0, 69, 100
2, 25152, Note_on_c, 0, 77, 119
2, 25152, Note_on_c, 0, 69, 119
2, 25152, Note_on_c, 0, 74, 119
2, 25244, Note_off_c, 0, 77, 100
2, 25244, Note_off_c, 0, 69, 100
2, 25244, Note_off_c, 0, 74, 100
2, 25248, Note_on_c, 0, 77, 120
2, 25248, Note_on_c, 0, 74, 120
2, 25248, Note_on_c, 0, 69, 120
2, 25340, Note_off_c, 0, 77, 100
2, 25340, Note_off_c, 0, 74, 100
2, 25340, Note_off_c, 0, 69, 100
2, 25344, Control_c, 0, 64, 127
2, 25344, Note_on_c, 0, 81, 120
2, 25344, Note_on_c, 0, 76, 120
2, 25344, Note_on_c, 0, 73, 120
2, 25344, Note_on_c, 0, 69, 120
2, 25532, Note_off_c, 0, 81, 100
2, 25532, Note_off_c, 0, 76, 100
2, 25532, Note_off_c, 0, 73, 100
2, 25532, Note_off_c, 0, 69, 100
2, 25536, Note_on_c, 0, 81, 120
2, 25536, Note_on_c, 0, 76, 120
2, 25536, Note_on_c, 0, 73, 120
2, 25536, Note_on_c, 0, 69, 120
2, 25628, Note_off_c, 0, 81, 100
2, 25628, Note_off_c, 0, 76, 100
2, 25628, Note_off_c, 0, 73, 100
2, 25628, Note_off_c, 0, 69, 100
2, 25632, Note_on_c, 0, 81, 120
2, 25632, Note_on_c, 0, 76, 120
2, 25632, Note_on_c, 0, 73, 120
2, 25632, Note_on_c, 0, 69, 120
2, 25724, Note_off_c, 0, 81, 100
2, 25724, Note_off_c, 0, 76, 100
2, 25724, Note_off_c, 0, 73, 100
2, 25724, Note_off_c, 0, 69, 100
2, 25728, Note_on_c, 0, 81, 120
2, 25728, Note_on_c, 0, 76, 120
2, 25728, Note_on_c, 0, 73, 120
2, 25728, Note_on_c, 0, 69, 120
2, 25916, Note_off_c, 0, 81, 100
2, 25916, Note_off_c, 0, 76, 100
2, 25916, Note_off_c, 0, 73, 100
2, 25916, Note_off_c, 0, 69, 100
2, 25920, Note_on_c, 0, 81, 120
2, 25920, Note_on_c, 0, 76, 120
2, 25920, Note_on_c, 0, 73, 120
2, 25920, Note_on_c, 0, 69, 120
2, 26012, Note_off_c, 0, 81, 100
2, 26012, Note_off_c, 0, 76, 100
2, 26012, Note_off_c, 0, 73, 100
2, 26012, Note_off_c, 0, 69, 100
2, 26016, Note_on_c, 0, 81, 120
2, 26016, Note_on_c, 0, 76, 120
2, 26016, Note_on_c, 0, 73, 120
2, 26016, Note_on_c, 0, 69, 120
2, 26108, Note_off_c, 0, 81, 100
2, 26108, Note_off_c, 0, 76, 100
2, 26108, Note_off_c, 0, 73, 100
2, 26108, Note_off_c, 0, 69, 100
2, 26112, Note_on_c, 0, 81, 120
2, 26112, Note_on_c, 0, 76, 120
2, 26112, Note_on_c, 0, 73, 120
2, 26112, Note_on_c, 0, 69, 120
2, 26300, Note_off_c, 0, 81, 100
2, 26300, Note_off_c, 0, 76, 100
2, 26300, Note_off_c, 0, 73, 100
2, 26300, Note_off_c, 0, 69, 100
2, 26304, Note_on_c, 0, 81, 120
2, 26304, Note_on_c, 0, 69, 120
2, 26396, Note_off_c, 0, 81, 100
2, 26396, Note_off_c, 0, 69, 100
2, 26400, Note_on_c, 0, 81, 120
2, 26400, Note_on_c, 0, 69, 120
2, 26492, Note_off_c, 0, 81, 100
2, 26492, Note_off_c, 0, 69, 100
2, 26496, Note_on_c, 0, 81, 120
2, 26496, Note_on_c, 0, 69, 120
2, 26684, Note_off_c, 0, 81, 100
2, 26684, Note_off_c, 0, 69, 100
2, 26688, Note_on_c, 0, 81, 113
2, 26688, Note_on_c, 0, 69, 113
2, 26780, Note_off_c, 0, 81, 100
2, 26780, Note_off_c, 0, 69, 100
2, 26784, Note_on_c, 0, 81, 110
2, 26784, Note_on_c, 0, 69, 110
2, 26876, Note_off_c, 0, 81, 100
2, 26876, Note_off_c, 0, 69, 100
2, 26880, Note_on_c, 0, 81, 106
2, 26880, Note_on_c, 0, 69, 106
2, 27068, Note_off_c, 0, 81, 100
2, 27068, Note_off_c, 0, 69, 100
2, 27072, Note_on_c, 0, 81, 99
2, 27072, Note_on_c, 0, 69, 99
2, 27164, Note_off_c, 0, 81, 100
2, 27164, Note_off_c, 0, 69, 100
2, 27168, Note_on_c, 0, 81, 95
2, 27168, Note_on_c, 0, 69, 95
2, 27260, Note_off_c, 0, 81, 100
2, 27260, Note_off_c, 0, 69, 100
2, 27264, Note_on_c, 0, 81, 92
2, 27264, Note_on_c, 0, 69, 92
2, 27452, Note_off_c, 0, 81, 100
2, 27452, Note_off_c, 0, 69, 100
2, 27456, Note_on_c, 0, 81, 84
2, 27456, Note_on_c, 0, 69, 84
2, 27548, Note_off_c, 0, 81, 100
2, 27548, Note_off_c, 0, 69, 100
2, 27552, Note_on_c, 0, 81, 81
2, 27552, Note_on_c, 0, 69, 81
2, 27640, Control_c, 0, 64, 0
2, 27644, Note_off_c, 0, 81, 100
2, 27644, Note_off_c, 0, 69, 100
2, 27648, Key_signature, -2, "major"
2, 27648, Note_on_c, 0, 81, 70
2, 27696, Note_on_c, 0, 82, 70
2, 27740, Note_off_c, 0, 81, 100
2, 27744, Note_on_c, 0, 81, 70
2, 27788, Note_off_c, 0, 82, 100
2, 27792, Note_on_c, 0, 82, 70
2, 27836, Note_off_c, 0, 81, 100
2, 27840, Note_on_c, 0, 81, 70
2, 27884, Note_off_c, 0, 82, 100
2, 27888, Note_on_c, 0, 82, 70
2, 27932, Note_off_c, 0, 81, 100
2, 27936, Note_on_c, 0, 81, 70
2, 27980, Note_off_c, 0, 82, 100
2, 27984, Note_on_c, 0, 82, 70
2, 28028, Note_off_c, 0, 81, 100
2, 28032, Note_on_c, 0, 81, 70
2, 28076, Note_off_c, 0, 82, 100
2, 28080, Note_on_c, 0, 82, 70
2, 28124, Note_off_c, 0, 81, 100
2, 28128, Note_on_c, 0, 81, 70
2, 28160, Note_off_c, 0, 82, 100
2, 28176, Note_on_c, 0, 82, 70
2, 28208, Note_off_c, 0, 81, 100
2, 28224, Note_on_c, 0, 81, 70
2, 28256, Note_off_c, 0, 82, 100
2, 28272, Note_on_c, 0, 82, 70
2, 28304, Note_off_c, 0, 81, 100
2, 28320, Note_on_c, 0, 81, 70
2, 28352, Note_off_c, 0, 82, 100
2, 28368, Note_on_c, 0, 82, 70
2, 28400, Note_off_c, 0, 81, 100
2, 28416, Note_on_c, 0, 81, 70
2, 28448, Note_off_c, 0, 82, 100
2, 28464, Note_on_c, 0, 82, 70
2, 28496, Note_off_c, 0, 81, 100
2, 28512, Note_on_c, 0, 81, 70
2, 28544, Note_off_c, 0, 82, 100
2, 28560, Note_on_c, 0, 82, 70
2, 28592, Note_off_c, 0, 81, 100
2, 28608, Note_on_c, 0, 81, 70
2, 28640, Note_off_c, 0, 82, 100
2, 28656, Note_on_c, 0, 82, 70
2, 28688, Note_off_c, 0, 81, 100
2, 28704, Note_on_c, 0, 81, 70
2, 28736, Note_off_c, 0, 82, 100
2, 28752, Note_on_c, 0, 82, 70
2, 28784, Note_off_c, 0, 81, 100
2, 28800, Note_on_c, 0, 81, 70
2, 28832, Note_off_c, 0, 82, 100
2, 28848, Note_on_c, 0, 82, 70
2, 28880, Note_off_c, 0, 81, 100
2, 28896, Note_on_c, 0, 81, 70
2, 28928, Note_off_c, 0, 82, 100
2, 28944, Note_on_c, 0, 82, 70
2, 28976, Note_off_c, 0, 81, 100
2, 28992, Note_on_c, 0, 81, 70
2, 29024, Note_off_c, 0, 82, 100
2, 29040, Note_on_c, 0, 82, 70
2, 29072, Note_off_c, 0, 81, 100
2, 29088, Note_on_c, 0, 81, 70
2, 29120, Note_off_c, 0, 82, 100
2, 29136, Note_on_c, 0, 82, 70
2, 29168, Note_off_c, 0, 81, 100
2, 29184, Note_on_c, 0, 84, 70
2, 29216, Note_off_c, 0, 82, 100
2, 29232, Note_on_c, 0, 86, 70
2, 29264, Note_off_c, 0, 84, 100
2, 29280, Note_on_c, 0, 84, 70
2, 29312, Note_off_c, 0, 86, 100
2, 29328, Note_on_c, 0, 86, 70
2, 29360, Note_off_c, 0, 84, 100
2, 29376, Note_on_c, 0, 84, 70
2, 29408, Note_off_c, 0, 86, 100
2, 29424, Note_on_c, 0, 86, 70
2, 29456, Note_off_c, 0, 84, 100
2, 29472, Note_on_c, 0, 84, 70
2, 29504, Note_off_c, 0, 86, 100
2, 29520, Note_on_c, 0, 86, 70
2, 29552, Note_off_c, 0, 84, 100
2, 29568, Note_on_c, 0, 84, 70
2, 29600, Note_off_c, 0, 86, 100
2, 29616, Note_on_c, 0, 86, 70
2, 29648, Note_off_c, 0, 84, 100
2, 29664, Note_on_c, 0, 84, 70
2, 29696, Note_off_c, 0, 86, 100
2, 29712, Note_on_c, 0, 86, 70
2, 29744, Note_off_c, 0, 84, 100
2, 29760, Note_on_c, 0, 84, 70
2, 29792, Note_off_c, 0, 86, 100
2, 29808, Note_on_c, 0, 86, 70
2, 29840, Note_off_c, 0, 84, 100
2, 29856, Note_on_c, 0, 84, 70
2, 29888, Note_off_c, 0, 86, 100
2, 29904, Note_on_c, 0, 86, 70
2, 29936, Note_off_c, 0, 84, 100
2, 29952, Note_on_c, 0, 84, 71
2, 29984, Note_off_c, 0, 86, 100
2, 30000, Note_on_c, 0, 86, 73
2, 30032, Note_off_c, 0, 84, 100
2, 30048, Note_on_c, 0, 84, 75
2, 30080, Note_off_c, 0, 86, 100
2, 30096, Note_on_c, 0, 86, 77
2, 30128, Note_off_c, 0, 84, 100
2, 30144, Note_on_c, 0, 84, 78
2, 30176, Note_off_c, 0, 86, 100
2, 30192, Note_on_c, 0, 86, 80
2, 30224, Note_off_c, 0, 84, 100
2, 30240, Note_on_c, 0, 84, 82
2, 30272, Note_off_c, 0, 86, 100
2, 30288, Note_on_c, 0, 86, 84
2, 30320, Note_off_c, 0, 84, 100
2, 30336, Note_on_c, 0, 89, 85
2, 30368, Note_off_c, 0, 86, 100
2, 30384, Note_on_c, 0, 91, 87
2, 30416, Note_off_c, 0, 89, 100
2, 30432, Note_on_c, 0, 89, 89
2, 30464, Note_off_c, 0, 91, 100
2, 30480, Note_on_c, 0, 91, 91
2, 30512, Note_off_c, 0, 89, 100
2, 30528, Note_on_c, 0, 89, 93
2, 30560, Note_off_c, 0, 91, 100
2, 30576, Note_on_c, 0, 91, 94
2, 30608, Note_off_c, 0, 89, 100
2, 30624, Note_on_c, 0, 89, 96
2, 30656, Note_off_c, 0, 91, 100
2, 30672, Note_on_c, 0, 91, 98
2, 30704, Note_off_c, 0, 89, 100
2, 30720, Note_on_c, 0, 89, 100
2, 30752, Note_off_c, 0, 91, 100
2, 30768, Note_on_c, 0, 91, 101
2, 30800, Note_off_c, 0, 89, 100
2, 30816, Note_on_c, 0, 89, 103
2, 30848, Note_off_c, 0, 91, 100
2, 30864, Note_on_c, 0, 91, 105
2, 30896, Note_off_c, 0, 89, 100
2, 30912, Note_on_c, 0, 89, 107
2, 30944, Note_off_c, 0, 91, 100
2, 30960, Note_on_c, 0, 91, 109
2, 30992, Note_off_c, 0, 89, 100
2, 31008, Note_on_c, 0, 89, 110
2, 31040, Note_off_c, 0, 91, 100
2, 31056, Note_on_c, 0, 91, 110
2, 31088, Note_off_c, 0, 89, 100
2, 31104, Note_on_c, 0, 89, 110
2, 31136, Note_off_c, 0, 91, 100
2, 31196, Note_off_c, 0, 89, 100
2, 31200, Note_on_c, 0, 87, 110
2, 31292, Note_off_c, 0, 87, 100
2, 31296, Note_on_c, 0, 86, 110
2, 31388, Note_off_c, 0, 86, 100
2, 31392, Note_on_c, 0, 84, 110
2, 31484, Note_off_c, 0, 84, 100
2, 31488, Note_on_c, 0, 82, 120
2, 31580, Note_off_c, 0, 82, 100
2, 31584, Note_on_c, 0, 81, 120
2, 31676, Note_off_c, 0, 81, 100
2, 31680, Note_on_c, 0, 79, 120
2, 31772, Note_off_c, 0, 79, 100
2, 31776, Note_on_c, 0, 77, 120
2, 31868, Note_off_c, 0, 77, 100
2, 31872, Note_on_c, 0, 75, 120
2, 31964, Note_off_c, 0, 75, 100
2, 31968, Note_on_c, 0, 74, 120
2, 32060, Note_off_c, 0, 74, 100
2, 32064, Note_on_c, 0, 72, 120
2, 32156, Note_off_c, 0, 72, 100
2, 32160, Note_on_c, 0, 77, 120
2, 32252, Note_off_c, 0, 77, 100
2, 32256, Note_on_c, 0, 70, 120
2, 32256, Note_on_c, 0, 65, 120
2, 32256, Note_on_c, 0, 62, 120
2, 32256, Note_on_c, 0, 58, 120
2, 32444, Note_off_c, 0, 70, 100
2, 32444, Note_off_c, 0, 65, 100
2, 32444, Note_off_c, 0, 62, 100
2, 32444, Note_off_c, 0, 58, 100
2, 32832, Note_on_c, 0, 67, 80
2, 32924, Note_off_c, 0, 67, 100
2, 32928, Note_on_c, 0, 65, 80
2, 33020, Note_off_c, 0, 65, 100
2, 33024, Note_on_c, 0, 63, 80
2, 33116, Note_off_c, 0, 63, 100
2, 33120, Note_on_c, 0, 62, 80
2, 33212, Note_off_c, 0, 62, 100
2, 33216, Note_on_c, 0, 60, 80
2, 33308, Note_off_c, 0, 60, 100
2, 33312, Note_on_c, 0, 58, 80
2, 33404, Note_off_c, 0, 58, 100
2, 33408, Note_on_c, 0, 57, 80
2, 33500, Note_off_c, 0, 57, 100
2, 33504, Note_on_c, 0, 58, 80
2, 33596, Note_off_c, 0, 58, 100
2, 33600, Note_on_c, 0, 57, 80
2, 33692, Note_off_c, 0, 57, 100
2, 33696, Note_on_c, 0, 55, 80
2, 33788, Note_off_c, 0, 55, 100
2, 33792, Note_on_c, 0, 53, 80
2, 33884, Note_off_c, 0, 53, 100
2, 33888, Note_on_c, 0, 55, 80
2, 33980, Note_off_c, 0, 55, 100
2, 33984, Note_on_c, 0, 53, 80
2, 34076, Note_off_c, 0, 53, 100
2, 34080, Note_on_c, 0, 51, 80
2, 34172, Note_off_c, 0, 51, 100
2, 34176, Note_on_c, 0, 50, 80
2, 34268, Note_off_c, 0, 50, 100
2, 34272, Note_on_c, 0, 51, 80
2, 34364, Note_off_c, 0, 51, 100
2, 34368, Note_on_c, 0, 50, 80
2, 34460, Note_off_c, 0, 50, 100
2, 34464, Note_on_c, 0, 48, 80
2, 34556, Note_off_c, 0, 48, 100
2, 34560, Note_on_c, 0, 46, 80
2, 34940, Note_off_c, 0, 46, 100
2, 44928, Note_on_c, 0, 58, 109
2, 45116, Note_off_c, 0, 58, 100
2, 45312, Note_on_c, 0, 76, 110
2, 45360, Note_on_c, 0, 77, 110
2, 45404, Note_off_c, 0, 76, 100
2, 45408, Note_on_c, 0, 76, 110
2, 45452, Note_off_c, 0, 77, 100
2, 45456, Note_on_c, 0, 77, 110
2, 45500, Note_off_c, 0, 76, 100
2, 45504, Note_on_c, 0, 76, 110
2, 45548, Note_off_c, 0, 77, 100
2, 45552, Note_on_c, 0, 77, 110
2, 45596, Note_off_c, 0, 76, 100
2, 45600, Note_on_c, 0, 76, 110
2, 45644, Note_off_c, 0, 77, 100
2, 45648, Note_on_c, 0, 77, 110
2, 45692, Note_off_c, 0, 76, 100
2, 45696, Note_on_c, 0, 76, 110
2, 45740, Note_off_c, 0, 77, 100
2, 45744, Note_on_c, 0, 77, 110
2, 45788, Note_off_c, 0, 76, 100
2, 45792, Note_on_c, 0, 76, 110
2, 45836, Note_off_c, 0, 77, 100
2, 45840, Note_on_c, 0, 77, 110
2, 45884, Note_off_c, 0, 76, 100
2, 45888, Note_on_c, 0, 76, 110
2, 45932, Note_off_c, 0, 77, 100
2, 45936, Note_on_c, 0, 77, 110
2, 45980, Note_off_c, 0, 76, 100
2, 45984, Note_on_c, 0, 74, 110
2, 46028, Note_off_c, 0, 77, 100
2, 46032, Note_on_c, 0, 76, 110
2, 46076, Note_off_c, 0, 74, 100
2, 46076, Note_off_c, 0, 76, 64
2, 46080, Note_on_c, 0, 77, 110
2, 46460, Note_off_c, 0, 77, 100
2, 46656, Note_on_c, 0, 77, 80
2, 46748, Note_off_c, 0, 77, 100
2, 46752, Note_on_c, 0, 76, 80
2, 46844, Note_off_c, 0, 76, 100
2, 46848, Note_on_c, 0, 74, 80
2, 46940, Note_off_c, 0, 74, 100
2, 46944, Note_on_c, 0, 72, 80
2, 47036, Note_off_c, 0, 72, 100
2, 47040, Note_on_c, 0, 70, 80
2, 47132, Note_off_c, 0, 70, 100
2, 47136, Note_on_c, 0, 69, 80
2, 47228, Note_off_c, 0, 69, 100
2, 47232, Note_on_c, 0, 74, 80
2, 47612, Note_off_c, 0, 74, 100
2, 47808, Note_on_c, 0, 74, 80
2, 47900, Note_off_c, 0, 74, 100
2, 47904, Note_on_c, 0, 72, 80
2, 47996, Note_off_c, 0, 72, 100
2, 48000, Note_on_c, 0, 70, 80
2, 48092, Note_off_c, 0, 70, 100
2, 48096, Note_on_c, 0, 69, 80
2, 48188, Note_off_c, 0, 69, 100
2, 48192, Note_on_c, 0, 67, 80
2, 48284, Note_off_c, 0, 67, 100
2, 48288, Note_on_c, 0, 65, 80
2, 48380, Note_off_c, 0, 65, 100
2, 48384, Note_on_c, 0, 70, 80
2, 48764, Note_off_c, 0, 70, 100
2, 48960, Note_on_c, 0, 70, 80
2, 49052, Note_off_c, 0, 70, 100
2, 49056, Note_on_c, 0, 69, 80
2, 49148, Note_off_c, 0, 69, 100
2, 49152, Note_on_c, 0, 67, 80
2, 49244, Note_off_c, 0, 67, 100
2, 49248, Note_on_c, 0, 69, 80
2, 49340, Note_off_c, 0, 69, 100
2, 49344, Note_on_c, 0, 67, 80
2, 49436, Note_off_c, 0, 67, 100
2, 49440, Note_on_c, 0, 65, 80
2, 49532, Note_off_c, 0, 65, 100
2, 49536, Note_on_c, 0, 64, 80
2, 49628, Note_off_c, 0, 64, 100
2, 49632, Note_on_c, 0, 65, 80
2, 49724, Note_off_c, 0, 65, 100
2, 49728, Note_on_c, 0, 64, 80
2, 49820, Note_off_c, 0, 64, 100
2, 49824, Note_on_c, 0, 62, 80
2, 49916, Note_off_c, 0, 62, 100
2, 49920, Note_on_c, 0, 60, 80
2, 50012, Note_off_c, 0, 60, 100
2, 50016, Note_on_c, 0, 62, 80
2, 50108, Note_off_c, 0, 62, 100
2, 50112, Note_on_c, 0, 64, 80
2, 50204, Note_off_c, 0, 64, 100
2, 50208, Note_on_c, 0, 65, 80
2, 50300, Note_off_c, 0, 65, 100
2, 50304, Note_on_c, 0, 66, 80
2, 50396, Note_off_c, 0, 66, 100
2, 50400, Note_on_c, 0, 67, 80
2, 50492, Note_off_c, 0, 67, 100
2, 50496, Note_on_c, 0, 69, 80
2, 50588, Note_off_c, 0, 69, 100
2, 50592, Note_on_c, 0, 67, 80
2, 50684, Note_off_c, 0, 67, 100
2, 50688, Note_on_c, 0, 65, 80
2, 50780, Note_off_c, 0, 65, 100
2, 50784, Note_on_c, 0, 67, 80
2, 50876, Note_off_c, 0, 67, 100
2, 50880, Note_on_c, 0, 69, 80
2, 50972, Note_off_c, 0, 69, 100
2, 50976, Note_on_c, 0, 70, 80
2, 51068, Note_off_c, 0, 70, 100
2, 51072, Note_on_c, 0, 71, 80
2, 51164, Note_off_c, 0, 71, 100
2, 51168, Note_on_c, 0, 72, 80
2, 51260, Note_off_c, 0, 72, 100
2, 51264, Note_on_c, 0, 74, 80
2, 51356, Note_off_c, 0, 74, 100
2, 51360, Note_on_c, 0, 72, 80
2, 51452, Note_off_c, 0, 72, 100
2, 51456, Note_on_c, 0, 70, 80
2, 51548, Note_off_c, 0, 70, 100
2, 51552, Note_on_c, 0, 69, 80
2, 51644, Note_off_c, 0, 69, 100
2, 51648, Note_on_c, 0, 67, 80
2, 51740, Note_off_c, 0, 67, 100
2, 51744, Note_on_c, 0, 65, 80
2, 51836, Note_off_c, 0, 65, 100
2, 51840, Note_on_c, 0, 64, 80
2, 51932, Note_off_c, 0, 64, 100
2, 51936, Note_on_c, 0, 65, 80
2, 52028, Note_off_c, 0, 65, 100
2, 52032, Note_on_c, 0, 64, 81
2, 52124, Note_off_c, 0, 64, 100
2, 52128, Note_on_c, 0, 62, 82
2, 52220, Note_off_c, 0, 62, 100
2, 52224, Note_on_c, 0, 60, 83
2, 52316, Note_off_c, 0, 60, 100
2, 52320, Note_on_c, 0, 62, 84
2, 52412, Note_off_c, 0, 62, 100
2, 52416, Note_on_c, 0, 64, 85
2, 52508, Note_off_c, 0, 64, 100
2, 52512, Note_on_c, 0, 65, 86
2, 52604, Note_off_c, 0, 65, 100
2, 52608, Note_on_c, 0, 66, 87
2, 52700, Note_off_c, 0, 66, 100
2, 52704, Note_on_c, 0, 67, 87
2, 52796, Note_off_c, 0, 67, 100
2, 52800, Note_on_c, 0, 69, 88
2, 52892, Note_off_c, 0, 69, 100
2, 52896, Note_on_c, 0, 65, 89
2, 52988, Note_off_c, 0, 65, 100
2, 52992, Note_on_c, 0, 64, 90
2, 53084, Note_off_c, 0, 64, 100
2, 53088, Note_on_c, 0, 65, 91
2, 53180, Note_off_c, 0, 65, 100
2, 53184, Note_on_c, 0, 72, 92
2, 53276, Note_off_c, 0, 72, 100
2, 53280, Note_on_c, 0, 70, 93
2, 53372, Note_off_c, 0, 70, 100
2, 53376, Note_on_c, 0, 69, 94
2, 53468, Note_off_c, 0, 69, 100
2, 53472, Note_on_c, 0, 70, 95
2, 53564, Note_off_c, 0, 70, 100
2, 53568, Note_on_c, 0, 72, 95
2, 53660, Note_off_c, 0, 72, 100
2, 53664, Note_on_c, 0, 70, 96
2, 53756, Note_off_c, 0, 70, 100
2, 53760, Note_on_c, 0, 68, 97
2, 53852, Note_off_c, 0, 68, 100
2, 53856, Note_on_c, 0, 69, 98
2, 53948, Note_off_c, 0, 69, 100
2, 53952, Note_on_c, 0, 70, 99
2, 54044, Note_off_c, 0, 70, 100
2, 54048, Note_on_c, 0, 69, 100
2, 54140, Note_off_c, 0, 69, 100
2, 54144, Note_on_c, 0, 67, 101
2, 54236, Note_off_c, 0, 67, 100
2, 54240, Note_on_c, 0, 68, 102
2, 54332, Note_off_c, 0, 68, 100
2, 54336, Note_on_c, 0, 75, 103
2, 54428, Note_off_c, 0, 75, 100
2, 54432, Note_on_c, 0, 74, 103
2, 54524, Note_off_c, 0, 74, 100
2, 54528, Note_on_c, 0, 72, 104
2, 54620, Note_off_c, 0, 72, 100
2, 54624, Note_on_c, 0, 73, 105
2, 54716, Note_off_c, 0, 73, 100
2, 54720, Note_on_c, 0, 74, 106
2, 54812, Note_off_c, 0, 74, 100
2, 54816, Note_on_c, 0, 73, 107
2, 54908, Note_off_c, 0, 73, 100
2, 54912, Note_on_c, 0, 71, 108
2, 55004, Note_off_c, 0, 71, 100
2, 55008, Note_on_c, 0, 72, 109
2, 55100, Note_off_c, 0, 72, 100
2, 55104, Note_on_c, 0, 74, 110
2, 55196, Note_off_c, 0, 74, 100
2, 55200, Note_on_c, 0, 72, 110
2, 55292, Note_off_c, 0, 72, 100
2, 55296, Note_on_c, 0, 63, 110
2, 55296, Note_on_c, 0, 68, 110
2, 55388, Note_off_c, 0, 68, 100
2, 55392, Note_on_c, 0, 69, 110
2, 55484, Note_off_c, 0, 69, 100
2, 55488, Note_on_c, 0, 70, 110
2, 55580, Note_off_c, 0, 70, 100
2, 55584, Note_on_c, 0, 69, 110
2, 55676, Note_off_c, 0, 69, 100
2, 55680, Note_on_c, 0, 64, 110
2, 55772, Note_off_c, 0, 64, 100
2, 55776, Note_on_c, 0, 65, 110
2, 55868, Note_off_c, 0, 65, 100
2, 55872, Note_on_c, 0, 67, 110
2, 55964, Note_off_c, 0, 67, 100
2, 55968, Note_on_c, 0, 65, 110
2, 56060, Note_off_c, 0, 63, 100
2, 56060, Note_off_c, 0, 65, 100
2, 56064, Note_on_c, 0, 71, 110
2, 56064, Note_on_c, 0, 65, 110
2, 56156, Note_off_c, 0, 71, 100
2, 56160, Note_on_c, 0, 72, 110
2, 56252, Note_off_c, 0, 72, 100
2, 56256, Note_on_c, 0, 74, 110
2, 56348, Note_off_c, 0, 74, 100
2, 56352, Note_on_c, 0, 72, 110
2, 56444, Note_off_c, 0, 72, 100
2, 56636, Note_off_c, 0, 65, 100
2, 56640, Note_on_c, 0, 62, 101
2, 56828, Note_off_c, 0, 62, 100
2, 56832, Note_on_c, 0, 74, 100
2, 57024, Note_on_c, 0, 69, 80
2, 57212, Note_off_c, 0, 69, 100
2, 57216, Note_on_c, 0, 70, 80
2, 57404, Note_off_c, 0, 74, 100
2, 57596, Note_off_c, 0, 70, 100
2, 57792, Note_on_c, 0, 58, 80
2, 57980, Note_off_c, 0, 58, 100
2, 57984, Note_on_c, 0, 70, 101
2, 58176, Note_on_c, 0, 66, 80
2, 58364, Note_off_c, 0, 66, 100
2, 58368, Note_on_c, 0, 67, 80
2, 58556, Note_off_c, 0, 70, 100
2, 58748, Note_off_c, 0, 67, 100
2, 58944, Note_on_c, 0, 67, 80
2, 59132, Note_off_c, 0, 67, 100
2, 59136, Note_on_c, 0, 79, 80
2, 59324, Note_off_c, 0, 79, 100
2, 59328, Note_on_c, 0, 77, 80
2, 59328, Note_on_c, 0, 70, 80
2, 59516, Note_off_c, 0, 77, 100
2, 59516, Note_off_c, 0, 70, 100
2, 59520, Note_on_c, 0, 75, 80
2, 59520, Note_on_c, 0, 72, 80
2, 59708, Note_off_c, 0, 75, 100
2, 59708, Note_off_c, 0, 72, 100
2, 59712, Note_on_c, 0, 67, 80
2, 59712, Note_on_c, 0, 76, 80
2, 59900, Note_off_c, 0, 67, 100
2, 59900, Note_off_c, 0, 76, 100
2, 59904, Note_on_c, 0, 77, 80
2, 59904, Note_on_c, 0, 72, 80
2, 60092, Note_off_c, 0, 77, 100
2, 60092, Note_off_c, 0, 72, 100
2, 60096, Note_on_c, 0, 65, 80
2, 60284, Note_off_c, 0, 65, 100
2, 60288, Note_on_c, 0, 75, 100
2, 60288, Note_on_c, 0, 72, 80
2, 60476, Note_off_c, 0, 72, 100
2, 60480, Note_on_c, 0, 67, 80
2, 60668, Note_off_c, 0, 67, 100
2, 60672, Note_on_c, 0, 65, 80
2, 60860, Note_off_c, 0, 75, 100
2, 60864, Note_on_c, 0, 75, 80
2, 61052, Note_off_c, 0, 75, 100
2, 61056, Note_on_c, 0, 75, 80
2, 61244, Note_off_c, 0, 65, 100
2, 61244, Note_off_c, 0, 75, 100
2, 61248, Note_on_c, 0, 74, 80
2, 61248, Note_on_c, 0, 65, 80
2, 61436, Note_off_c, 0, 74, 100
2, 61436, Note_off_c, 0, 65, 100
2, 61440, Note_on_c, 0, 72, 80
2, 61440, Note_on_c, 0, 63, 80
2, 61628, Note_off_c, 0, 72, 100
2, 61628, Note_off_c, 0, 63, 100
2, 61632, Note_on_c, 0, 70, 80
2, 61632, Note_on_c, 0, 62, 80
2, 61820, Note_off_c, 0, 70, 100
2, 61820, Note_off_c, 0, 62, 100
2, 61824, Note_on_c, 0, 69, 80
2, 61824, Note_on_c, 0, 60, 80
2, 62012, Note_off_c, 0, 69, 100
2, 62012, Note_off_c, 0, 60, 100
2, 62016, Note_on_c, 0, 70, 80
2, 62016, Note_on_c, 0, 62, 80
2, 62204, Note_off_c, 0, 70, 100
2, 62204, Note_off_c, 0, 62, 100
2, 62208, Note_on_c, 0, 65, 80
2, 62396, Note_off_c, 0, 65, 100
2, 62400, Note_on_c, 0, 70, 80
2, 62588, Note_off_c, 0, 70, 100
2, 62592, Note_on_c, 0, 72, 80
2, 62592, Note_on_c, 0, 63, 101
2, 62780, Note_off_c, 0, 72, 100
2, 62784, Note_on_c, 0, 66, 80
2, 62972, Note_off_c, 0, 66, 100
2, 62976, Note_on_c, 0, 65, 80
2, 63164, Note_off_c, 0, 63, 100
2, 63168, Note_on_c, 0, 62, 80
2, 63356, Note_off_c, 0, 65, 100
2, 63356, Note_off_c, 0, 62, 100
2, 63360, Note_on_c, 0, 80, 80
2, 63548, Note_off_c, 0, 80, 100
2, 63552, Note_on_c, 0, 70, 80
2, 63740, Note_off_c, 0, 70, 100
2, 63744, Note_on_c, 0, 76, 80
2, 63744, Note_on_c, 0, 79, 100
2, 63932, Note_off_c, 0, 76, 100
2, 63936, Note_on_c, 0, 70, 80
2, 64316, Note_off_c, 0, 79, 100
2, 64320, Note_on_c, 0, 77, 80
2, 64508, Note_off_c, 0, 70, 100
2, 64508, Note_off_c, 0, 77, 100
2, 64512, Note_on_c, 0, 72, 80
2, 64700, Note_off_c, 0, 72, 100
2, 64704, Note_on_c, 0, 76, 80
2, 64892, Note_off_c, 0, 76, 100
2, 64896, Note_on_c, 0, 79, 80
2, 64896, Note_on_c, 0, 70, 100
2, 65084, Note_off_c, 0, 79, 100
2, 65088, Note_on_c, 0, 73, 80
2, 65276, Note_off_c, 0, 73, 100
2, 65280, Note_on_c, 0, 72, 80
2, 65468, Note_off_c, 0, 70, 100
2, 65472, Note_on_c, 0, 69, 80
2, 65660, Note_off_c, 0, 72, 100
2, 65660, Note_off_c, 0, 69, 100
2, 65664, Note_on_c, 0, 89, 80
2, 65852, Note_off_c, 0, 89, 100
2, 65856, Note_on_c, 0, 81, 80
2, 66044, Note_off_c, 0, 81, 100
2, 66048, Note_on_c, 0, 84, 80
2, 66048, Note_on_c, 0, 87, 100
2, 66236, Note_off_c, 0, 84, 100
2, 66240, Note_on_c, 0, 78, 80
2, 66428, Note_off_c, 0, 78, 100
2, 66432, Note_on_c, 0, 77, 80
2, 66620, Note_off_c, 0, 87, 100
2, 66624, Note_on_c, 0, 86, 80
2, 66812, Note_off_c, 0, 77, 100
2, 66812, Note_off_c, 0, 86, 100
2, 66816, Note_on_c, 0, 92, 80
2, 67004, Note_off_c, 0, 92, 100
2, 67008, Note_on_c, 0, 82, 80
2, 67196, Note_off_c, 0, 82, 100
2, 67200, Note_on_c, 0, 88, 80
2, 67200, Note_on_c, 0, 91, 100
2, 67388, Note_off_c, 0, 88, 100
2, 67392, Note_on_c, 0, 82, 80
2, 67772, Note_off_c, 0, 91, 100
2, 67772, Note_off_c, 0, 82, 100
2, 67776, Note_on_c, 0, 86, 80
2, 67776, Note_on_c, 0, 89, 80
2, 67964, Note_off_c, 0, 86, 100
2, 67968, Note_on_c, 0, 83, 80
2, 68156, Note_off_c, 0, 89, 100
2, 68156, Note_off_c, 0, 83, 100
2, 68160, Note_on_c, 0, 79, 80
2, 68160, Note_on_c, 0, 89, 80
2, 68348, Note_off_c, 0, 79, 100
2, 68352, Note_on_c, 0, 84, 80
2, 68540, Note_off_c, 0, 89, 100
2, 68540, Note_off_c, 0, 84, 100
2, 68544, Note_on_c, 0, 79, 80
2, 68544, Note_on_c, 0, 88, 80
2, 68732, Note_off_c, 0, 79, 100
2, 68732, Note_off_c, 0, 88, 100
2, 68736, Note_on_c, 0, 84, 80
2, 68736, Note_on_c, 0, 87, 80
2, 68924, Note_off_c, 0, 84, 100
2, 68928, Note_on_c, 0, 77, 80
2, 69308, Note_off_c, 0, 77, 100
2, 69308, Note_off_c, 0, 87, 100
2, 69312, Note_on_c, 0, 86, 80
2, 69500, Note_off_c, 0, 86, 100
2, 69504, Note_on_c, 0, 85, 80
2, 69692, Note_off_c, 0, 85, 100
2, 69696, Note_on_c, 0, 74, 80
2, 69696, Note_on_c, 0, 70, 80
2, 69788, Note_off_c, 0, 70, 100
2, 69980, Note_off_c, 0, 74, 100
2, 69984, Note_on_c, 0, 79, 80
2, 70076, Note_off_c, 0, 79, 100
2, 70080, Note_on_c, 0, 82, 80
2, 70172, Note_off_c, 0, 82, 100
2, 70176, Note_on_c, 0, 86, 80
2, 70268, Note_off_c, 0, 86, 100
2, 70272, Note_on_c, 0, 86, 80
2, 70460, Note_off_c, 0, 86, 100
2, 70464, Note_on_c, 0, 84, 80
2, 70556, Note_off_c, 0, 84, 100
2, 70560, Note_on_c, 0, 82, 80
2, 70652, Note_off_c, 0, 82, 100
2, 70656, Note_on_c, 0, 81, 80
2, 70748, Note_off_c, 0, 81, 100
2, 70752, Note_on_c, 0, 82, 80
2, 70844, Note_off_c, 0, 82, 100
2, 70848, Note_on_c, 0, 84, 80
2, 70940, Note_off_c, 0, 84, 100
2, 70944, Note_on_c, 0, 82, 80
2, 71036, Note_off_c, 0, 82, 100
2, 71040, Note_on_c, 0, 81, 80
2, 71132, Note_off_c, 0, 81, 100
2, 71136, Note_on_c, 0, 79, 80
2, 71228, Note_off_c, 0, 79, 100
2, 71232, Note_on_c, 0, 81, 80
2, 71324, Note_off_c, 0, 81, 100
2, 71328, Note_on_c, 0, 82, 80
2, 71420, Note_off_c, 0, 82, 100
2, 71424, Note_on_c, 0, 84, 80
2, 71516, Note_off_c, 0, 84, 100
2, 71520, Note_on_c, 0, 82, 80
2, 71612, Note_off_c, 0, 82, 100
2, 71616, Note_on_c, 0, 81, 80
2, 71708, Note_off_c, 0, 81, 100
2, 71712, Note_on_c, 0, 79, 80
2, 71804, Note_off_c, 0, 79, 100
2, 71808, Note_on_c, 0, 77, 80
2, 71900, Note_off_c, 0, 77, 100
2, 71904, Note_on_c, 0, 79, 80
2, 71996, Note_off_c, 0, 79, 100
2, 72000, Note_on_c, 0, 77, 80
2, 72092, Note_off_c, 0, 77, 100
2, 72096, Note_on_c, 0, 75, 80
2, 72188, Note_off_c, 0, 75, 100
2, 72192, Note_on_c, 0, 74, 80
2, 72284, Note_off_c, 0, 74, 100
2, 72288, Note_on_c, 0, 85, 80
2, 72380, Note_off_c, 0, 85, 100
2, 72384, Note_on_c, 0, 86, 80
2, 72476, Note_off_c, 0, 86, 100
2, 72480, Note_on_c, 0, 85, 80
2, 72572, Note_off_c, 0, 85, 100
2, 72576, Note_on_c, 0, 87, 80
2, 72764, Note_off_c, 0, 87, 100
2, 72768, Note_on_c, 0, 86, 80
2, 72860, Note_off_c, 0, 86, 100
2, 72864, Note_on_c, 0, 84, 80
2, 72956, Note_off_c, 0, 84, 100
2, 72960, Note_on_c, 0, 83, 80
2, 73052, Note_off_c, 0, 83, 100
2, 73056, Note_on_c, 0, 84, 80
2, 73148, Note_off_c, 0, 84, 100
2, 73152, Note_on_c, 0, 86, 80
2, 73244, Note_off_c, 0, 86, 100
2, 73248, Note_on_c, 0, 84, 80
2, 73340, Note_off_c, 0, 84, 100
2, 73344, Note_on_c, 0, 83, 80
2, 73436, Note_off_c, 0, 83, 100
2, 73440, Note_on_c, 0, 81, 80
2, 73532, Note_off_c, 0, 81, 100
2, 73536, Note_on_c, 0, 83, 80
2, 73628, Note_off_c, 0, 83, 100
2, 73632, Note_on_c, 0, 84, 80
2, 73724, Note_off_c, 0, 84, 100
2, 73728, Note_on_c, 0, 86, 80
2, 73820, Note_off_c, 0, 86, 100
2, 73824, Note_on_c, 0, 84, 80
2, 73916, Note_off_c, 0, 84, 100
2, 73920, Note_on_c, 0, 83, 80
2, 74012, Note_off_c, 0, 83, 100
2, 74016, Note_on_c, 0, 80, 80
2, 74108, Note_off_c, 0, 80, 100
2, 74112, Note_on_c, 0, 79, 80
2, 74204, Note_off_c, 0, 79, 100
2, 74208, Note_on_c, 0, 80, 80
2, 74300, Note_off_c, 0, 80, 100
2, 74304, Note_on_c, 0, 79, 80
2, 74396, Note_off_c, 0, 79, 100
2, 74400, Note_on_c, 0, 77, 80
2, 74492, Note_off_c, 0, 77, 100
2, 74496, Note_on_c, 0, 67, 80
2, 74496, Note_on_c, 0, 75, 80
2, 74588, Note_off_c, 0, 67, 100
2, 74592, Note_on_c, 0, 71, 80
2, 74684, Note_off_c, 0, 71, 100
2, 74688, Note_on_c, 0, 72, 80
2, 74780, Note_off_c, 0, 72, 100
2, 74784, Note_on_c, 0, 73, 80
2, 74876, Note_off_c, 0, 75, 100
2, 74876, Note_off_c, 0, 73, 100
2, 74880, Note_on_c, 0, 75, 80
2, 74972, Note_off_c, 0, 75, 100
2, 74976, Note_on_c, 0, 73, 80
2, 75068, Note_off_c, 0, 73, 100
2, 75072, Note_on_c, 0, 72, 80
2, 75164, Note_off_c, 0, 72, 100
2, 75168, Note_on_c, 0, 70, 80
2, 75260, Note_off_c, 0, 70, 100
2, 75264, Note_on_c, 0, 68, 80
2, 75264, Note_on_c, 0, 75, 100
2, 75356, Note_off_c, 0, 68, 100
2, 75360, Note_on_c, 0, 70, 80
2, 75452, Note_off_c, 0, 70, 100
2, 75456, Note_on_c, 0, 68, 80
2, 75548, Note_off_c, 0, 68, 100
2, 75552, Note_on_c, 0, 66, 80
2, 75644, Note_off_c, 0, 66, 100
2, 75648, Note_on_c, 0, 65, 80
2, 75836, Note_off_c, 0, 75, 100
2, 75840, Note_on_c, 0, 73, 80
2, 75932, Note_off_c, 0, 73, 100
2, 75936, Note_on_c, 0, 75, 80
2, 76028, Note_off_c, 0, 65, 100
2, 76028, Note_off_c, 0, 75, 100
2, 76032, Key_signature, -4, "major"
2, 76032, Note_on_c, 0, 77, 80
2, 76124, Note_off_c, 0, 77, 100
2, 76128, Note_on_c, 0, 78, 80
2, 76220, Note_off_c, 0, 78, 100
2, 76224, Note_on_c, 0, 77, 80
2, 76316, Note_off_c, 0, 77, 100
2, 76320, Note_on_c, 0, 75, 80
2, 76412, Note_off_c, 0, 75, 100
2, 76416, Note_on_c, 0, 73, 80
2, 76508, Note_off_c, 0, 73, 100
2, 76512, Note_on_c, 0, 72, 80
2, 76604, Note_off_c, 0, 72, 100
2, 76608, Note_on_c, 0, 70, 80
2, 76700, Note_off_c, 0, 70, 100
2, 76704, Note_on_c, 0, 68, 80
2, 76796, Note_off_c, 0, 68, 100
2, 76800, Note_on_c, 0, 61, 80
2, 76800, Note_on_c, 0, 73, 80
2, 76892, Note_off_c, 0, 61, 100
2, 76896, Note_on_c, 0, 63, 80
2, 76988, Note_off_c, 0, 63, 100
2, 76992, Note_on_c, 0, 64, 80
2, 77084, Note_off_c, 0, 64, 100
2, 77088, Note_on_c, 0, 65, 80
2, 77180, Note_off_c, 0, 65, 100
2, 77184, Note_on_c, 0, 66, 80
2, 77276, Note_off_c, 0, 73, 100
2, 77280, Note_on_c, 0, 75, 80
2, 77372, Note_off_c, 0, 75, 100
2, 77376, Note_on_c, 0, 73, 80
2, 77468, Note_off_c, 0, 73, 100
2, 77472, Note_on_c, 0, 72, 80
2, 77564, Note_off_c, 0, 66, 100
2, 77564, Note_off_c, 0, 72, 100
2, 77568, Note_on_c, 0, 70, 80
2, 77660, Note_off_c, 0, 70, 100
2, 77664, Note_on_c, 0, 68, 80
2, 77756, Note_off_c, 0, 68, 100
2, 77760, Note_on_c, 0, 67, 80
2, 77852, Note_off_c, 0, 67, 100
2, 77856, Note_on_c, 0, 65, 80
2, 77948, Note_off_c, 0, 65, 100
2, 77952, Note_on_c, 0, 58, 80
2, 77952, Note_on_c, 0, 70, 80
2, 78044, Note_off_c, 0, 58, 100
2, 78048, Note_on_c, 0, 60, 80
2, 78140, Note_off_c, 0, 60, 100
2, 78144, Note_on_c, 0, 61, 80
2, 78236, Note_off_c, 0, 61, 100
2, 78240, Note_on_c, 0, 62, 80
2, 78332, Note_off_c, 0, 70, 100
2, 78332, Note_off_c, 0, 62, 100
2, 78336, Note_on_c, 0, 70, 80
2, 78336, Note_on_c, 0, 63, 80
2, 78428, Note_off_c, 0, 63, 100
2, 78432, Note_on_c, 0, 62, 80
2, 78524, Note_off_c, 0, 62, 100
2, 78528, Note_on_c, 0, 63, 80
2, 78620, Note_off_c, 0, 63, 100
2, 78624, Note_on_c, 0, 65, 80
2, 78716, Note_off_c, 0, 65, 100
2, 78720, Note_on_c, 0, 66, 80
2, 78908, Note_off_c, 0, 70, 100
2, 78908, Note_off_c, 0, 66, 100
2, 78912, Note_on_c, 0, 67, 80
2, 78912, Note_on_c, 0, 70, 80
2, 79100, Note_off_c, 0, 67, 100
2, 79100, Note_off_c, 0, 70, 100
2, 79104, Note_on_c, 0, 68, 80
2, 79104, Note_on_c, 0, 72, 80
2, 79292, Note_off_c, 0, 68, 100
2, 79292, Note_off_c, 0, 72, 100
2, 79296, Note_on_c, 0, 73, 80
2, 79484, Note_off_c, 0, 73, 100
2, 79488, Note_on_c, 0, 75, 100
2, 79488, Note_on_c, 0, 66, 101
2, 80060, Note_off_c, 0, 75, 100
2, 80060, Note_off_c, 0, 66, 100
2, 80064, Note_on_c, 0, 75, 80
2, 80064, Note_on_c, 0, 66, 80
2, 80252, Note_off_c, 0, 75, 100
2, 80252, Note_off_c, 0, 66, 100
2, 80256, Note_on_c, 0, 75, 80
2, 80256, Note_on_c, 0, 66, 80
2, 80444, Note_off_c, 0, 75, 100
2, 80444, Note_off_c, 0, 66, 100
2, 80448, Note_on_c, 0, 73, 80
2, 80448, Note_on_c, 0, 65, 80
2, 80636, Note_off_c, 0, 73, 100
2, 80636, Note_off_c, 0, 65, 100
2, 80640, Note_on_c, 0, 72, 80
2, 80640, Note_on_c, 0, 63, 80
2, 80828, Note_off_c, 0, 72, 100
2, 80828, Note_off_c, 0, 63, 100
2, 80832, Note_on_c, 0, 73, 80
2, 80832, Note_on_c, 0, 61, 80
2, 81020, Note_off_c, 0, 73, 100
2, 81020, Note_off_c, 0, 61, 100
2, 81024, Note_on_c, 0, 63, 80
2, 81024, Note_on_c, 0, 60, 80
2, 81212, Note_off_c, 0, 63, 100
2, 81212, Note_off_c, 0, 60, 100
2, 81216, Note_on_c, 0, 61, 80
2, 81216, Note_on_c, 0, 65, 80
2, 81308, Note_off_c, 0, 65, 100
2, 81312, Note_on_c, 0, 66, 80
2, 81404, Note_off_c, 0, 61, 100
2, 81404, Note_off_c, 0, 66, 100
2, 81408, Note_on_c, 0, 60, 80
2, 81408, Note_on_c, 0, 68, 80
2, 81500, Note_off_c, 0, 68, 100
2, 81504, Note_on_c, 0, 70, 80
2, 81596, Note_off_c, 0, 60, 100
2, 81596, Note_off_c, 0, 70, 100
2, 81600, Note_on_c, 0, 63, 80
2, 81600, Note_on_c, 0, 72, 80
2, 81692, Note_off_c, 0, 72, 100
2, 81696, Note_on_c, 0, 73, 80
2, 81788, Note_off_c, 0, 63, 100
2, 81788, Note_off_c, 0, 73, 100
2, 81792, Note_on_c, 0, 74, 80
2, 81884, Note_off_c, 0, 74, 100
2, 81888, Note_on_c, 0, 75, 80
2, 81980, Note_off_c, 0, 75, 100
2, 81984, Note_on_c, 0, 77, 80
2, 82076, Note_off_c, 0, 77, 100
2, 82080, Note_on_c, 0, 75, 80
2, 82172, Note_off_c, 0, 75, 100
2, 82176, Note_on_c, 0, 73, 80
2, 82268, Note_off_c, 0, 73, 100
2, 82272, Note_on_c, 0, 72, 80
2, 82364, Note_off_c, 0, 72, 100
2, 82368, Note_on_c, 0, 70, 80
2, 82460, Note_off_c, 0, 70, 100
2, 82464, Note_on_c, 0, 68, 80
2, 82556, Note_off_c, 0, 68, 100
2, 82560, Note_on_c, 0, 73, 80
2, 82652, Note_off_c, 0, 73, 100
2, 82656, Note_on_c, 0, 75, 80
2, 82748, Note_off_c, 0, 75, 100
2, 82752, Note_on_c, 0, 77, 80
2, 82844, Note_off_c, 0, 77, 100
2, 82848, Note_on_c, 0, 78, 80
2, 82940, Note_off_c, 0, 78, 100
2, 82944, Note_on_c, 0, 79, 80
2, 83036, Note_off_c, 0, 79, 100
2, 83040, Note_on_c, 0, 80, 80
2, 83132, Note_off_c, 0, 80, 100
2, 83136, Note_on_c, 0, 82, 80
2, 83228, Note_off_c, 0, 82, 100
2, 83232, Note_on_c, 0, 80, 80
2, 83324, Note_off_c, 0, 80, 100
2, 83328, Note_on_c, 0, 78, 80
2, 83420, Note_off_c, 0, 78, 100
2, 83424, Note_on_c, 0, 77, 80
2, 83516, Note_off_c, 0, 77, 100
2, 83520, Note_on_c, 0, 75, 80
2, 83612, Note_off_c, 0, 75, 100
2, 83616, Note_on_c, 0, 73, 80
2, 83708, Note_off_c, 0, 73, 100
2, 83712, Note_on_c, 0, 68, 80
2, 83900, Note_off_c, 0, 68, 100
2, 84096, Note_on_c, 0, 56, 80
2, 84096, Note_on_c, 0, 66, 80
2, 84188, Note_off_c, 0, 56, 100
2, 84192, Note_on_c, 0, 58, 80
2, 84284, Note_off_c, 0, 58, 100
2, 84288, Note_on_c, 0, 60, 80
2, 84380, Note_off_c, 0, 60, 100
2, 84384, Note_on_c, 0, 61, 80
2, 84476, Note_off_c, 0, 61, 100
2, 84480, Note_on_c, 0, 62, 80
2, 84572, Note_off_c, 0, 62, 100
2, 84576, Note_on_c, 0, 63, 80
2, 84668, Note_off_c, 0, 66, 100
2, 84668, Note_off_c, 0, 63, 100
2, 84672, Note_on_c, 0, 60, 80
2, 84672, Note_on_c, 0, 65, 80
2, 84764, Note_off_c, 0, 60, 100
2, 84768, Note_on_c, 0, 61, 80
2, 84860, Note_off_c, 0, 65, 100
2, 84860, Note_off_c, 0, 61, 100
2, 84864, Note_on_c, 0, 64, 80
2, 84864, Note_on_c, 0, 70, 80
2, 84956, Note_off_c, 0, 64, 100
2, 84960, Note_on_c, 0, 65, 80
2, 85052, Note_off_c, 0, 65, 100
2, 85056, Note_on_c, 0, 66, 80
2, 85148, Note_off_c, 0, 66, 100
2, 85152, Note_on_c, 0, 65, 80
2, 85244, Note_off_c, 0, 70, 100
2, 85244, Note_off_c, 0, 65, 100
2, 85248, Note_on_c, 0, 62, 80
2, 85340, Note_off_c, 0, 62, 100
2, 85344, Note_on_c, 0, 63, 80
2, 85436, Note_off_c, 0, 63, 100
2, 85440, Note_on_c, 0, 67, 80
2, 85532, Note_off_c, 0, 67, 100
2, 85536, Note_on_c, 0, 68, 80
2, 85628, Note_off_c, 0, 68, 100
2, 85632, Note_on_c, 0, 66, 80
2, 85724, Note_off_c, 0, 66, 100
2, 85728, Note_on_c, 0, 67, 80
2, 85820, Note_off_c, 0, 67, 100
2, 85824, Note_on_c, 0, 68, 80
2, 85916, Note_off_c, 0, 68, 100
2, 85920, Note_on_c, 0, 67, 80
2, 86012, Note_off_c, 0, 67, 100
2, 86016, Note_on_c, 0, 69, 80
2, 86016, Note_on_c, 0, 73, 100
2, 86108, Note_off_c, 0, 69, 100
2, 86112, Note_on_c, 0, 70, 80
2, 86204, Note_off_c, 0, 73, 100
2, 86204, Note_off_c, 0, 70, 100
2, 86208, Note_on_c, 0, 72, 80
2, 86300, Note_off_c, 0, 72, 100
2, 86304, Note_on_c, 0, 70, 80
2, 86396, Note_off_c, 0, 70, 100
2, 86400, Note_on_c, 0, 67, 80
2, 86400, Note_on_c, 0, 72, 103
2, 86492, Note_off_c, 0, 67, 100
2, 86496, Note_on_c, 0, 68, 80
2, 86588, Note_off_c, 0, 68, 100
2, 86592, Note_on_c, 0, 70, 80
2, 86684, Note_off_c, 0, 70, 100
2, 86688, Note_on_c, 0, 68, 80
2, 86780, Note_off_c, 0, 68, 100
2, 86784, Note_on_c, 0, 66, 80
2, 86876, Note_off_c, 0, 66, 100
2, 86880, Note_on_c, 0, 67, 80
2, 86972, Note_off_c, 0, 72, 100
2, 86972, Note_off_c, 0, 67, 100
2, 86976, Note_on_c, 0, 68, 80
2, 86976, Note_on_c, 0, 70, 80
2, 87068, Note_off_c, 0, 68, 100
2, 87072, Note_on_c, 0, 67, 80
2, 87164, Note_off_c, 0, 70, 100
2, 87164, Note_off_c, 0, 67, 100
2, 87168, Note_on_c, 0, 69, 80
2, 87168, Note_on_c, 0, 75, 80
2, 87260, Note_off_c, 0, 69, 100
2, 87264, Note_on_c, 0, 70, 80
2, 87356, Note_off_c, 0, 70, 100
2, 87360, Note_on_c, 0, 72, 80
2, 87452, Note_off_c, 0, 72, 100
2, 87456, Note_on_c, 0, 70, 80
2, 87548, Note_off_c, 0, 75, 100
2, 87548, Note_off_c, 0, 70, 100
2, 87552, Note_on_c, 0, 68, 80
2, 87644, Note_off_c, 0, 68, 100
2, 87648, Note_on_c, 0, 70, 80
2, 87740, Note_off_c, 0, 70, 100
2, 87744, Note_on_c, 0, 72, 80
2, 87836, Note_off_c, 0, 72, 100
2, 87840, Note_on_c, 0, 73, 80
2, 87932, Note_off_c, 0, 73, 100
2, 87936, Note_on_c, 0, 72, 80
2, 88028, Note_off_c, 0, 72, 100
2, 88032, Note_on_c, 0, 73, 80
2, 88124, Note_off_c, 0, 73, 100
2, 88128, Note_on_c, 0, 71, 80
2, 88220, Note_off_c, 0, 71, 100
2, 88224, Note_on_c, 0, 72, 80
2, 88316, Note_off_c, 0, 72, 100
2, 88320, Note_on_c, 0, 71, 80
2, 88320, Note_on_c, 0, 77, 102
2, 88412, Note_off_c, 0, 71, 100
2, 88416, Note_on_c, 0, 72, 80
2, 88508, Note_off_c, 0, 77, 100
2, 88508, Note_off_c, 0, 72, 100
2, 88512, Note_on_c, 0, 73, 80
2, 88604, Note_off_c, 0, 73, 100
2, 88608, Note_on_c, 0, 72, 80
2, 88700, Note_off_c, 0, 72, 100
2, 88704, Note_on_c, 0, 69, 80
2, 88704, Note_on_c, 0, 77, 101
2, 88796, Note_off_c, 0, 69, 100
2, 88800, Note_on_c, 0, 70, 80
2, 88892, Note_off_c, 0, 77, 100
2, 88892, Note_off_c, 0, 70, 100
2, 88896, Note_on_c, 0, 72, 80
2, 88896, Note_on_c, 0, 75, 80
2, 88988, Note_off_c, 0, 72, 100
2, 88992, Note_on_c, 0, 70, 80
2, 89084, Note_off_c, 0, 75, 100
2, 89084, Note_off_c, 0, 70, 100
2, 89088, Note_on_c, 0, 62, 80
2, 89180, Note_off_c, 0, 62, 100
2, 89184, Note_on_c, 0, 63, 80
2, 89276, Note_off_c, 0, 63, 100
2, 89280, Note_on_c, 0, 65, 80
2, 89372, Note_off_c, 0, 65, 100
2, 89376, Note_on_c, 0, 63, 80
2, 89468, Note_off_c, 0, 63, 100
2, 89472, Note_on_c, 0, 67, 80
2, 89472, Note_on_c, 0, 73, 80
2, 89564, Note_off_c, 0, 67, 100
2, 89568, Note_on_c, 0, 68, 80
2, 89660, Note_off_c, 0, 73, 100
2, 89660, Note_off_c, 0, 68, 100
2, 89664, Note_on_c, 0, 70, 80
2, 89756, Note_off_c, 0, 70, 100
2, 89760, Note_on_c, 0, 68, 80
2, 89852, Note_off_c, 0, 68, 100
2, 89856, Note_on_c, 0, 67, 80
2, 89856, Note_on_c, 0, 73, 80
2, 89948, Note_off_c, 0, 67, 100
2, 89952, Note_on_c, 0, 68, 80
2, 90044, Note_off_c, 0, 73, 100
2, 90044, Note_off_c, 0, 68, 100
2, 90048, Note_on_c, 0, 70, 80
2, 90048, Note_on_c, 0, 72, 80
2, 90140, Note_off_c, 0, 70, 100
2, 90144, Note_on_c, 0, 68, 80
2, 90236, Note_off_c, 0, 72, 100
2, 90236, Note_off_c, 0, 68, 100
2, 90240, Note_on_c, 0, 67, 80
2, 90332, Note_off_c, 0, 67, 100
2, 90336, Note_on_c, 0, 68, 80
2, 90428, Note_off_c, 0, 68, 100
2, 90432, Note_on_c, 0, 70, 80
2, 90432, Note_on_c, 0, 73, 80
2, 90524, Note_off_c, 0, 70, 100
2, 90528, Note_on_c, 0, 71, 80
2, 90620, Note_off_c, 0, 73, 100
2, 90620, Note_off_c, 0, 71, 100
2, 90624, Note_on_c, 0, 91, 100
2, 90672, Note_on_c, 0, 92, 100
2, 90716, Note_off_c, 0, 91, 100
2, 90720, Note_on_c, 0, 91, 100
2, 90764, Note_off_c, 0, 92, 100
2, 90768, Note_on_c, 0, 92, 100
2, 90812, Note_off_c, 0, 91, 100
2, 90816, Note_on_c, 0, 91, 100
2, 90860, Note_off_c, 0, 92, 100
2, 90864, Note_on_c, 0, 92, 100
2, 90908, Note_off_c, 0, 91, 100
2, 90912, Note_on_c, 0, 91, 100
2, 90956, Note_off_c, 0, 92, 100
2, 90960, Note_on_c, 0, 92, 100
2, 91004, Note_off_c, 0, 91, 100
2, 91008, Note_on_c, 0, 91, 100
2, 91052, Note_off_c, 0, 92, 100
2, 91056, Note_on_c, 0, 92, 100
2, 91100, Note_off_c, 0, 91, 100
2, 91104, Note_on_c, 0, 91, 100
2, 91148, Note_off_c, 0, 92, 100
2, 91152, Note_on_c, 0, 92, 100
2, 91196, Note_off_c, 0, 91, 100
2, 91200, Note_on_c, 0, 91, 100
2, 91244, Note_off_c, 0, 92, 100
2, 91248, Note_on_c, 0, 92, 100
2, 91292, Note_off_c, 0, 91, 100
2, 91296, Note_on_c, 0, 89, 100
2, 91340, Note_off_c, 0, 92, 100
2, 91344, Note_on_c, 0, 91, 100
2, 91388, Note_off_c, 0, 89, 100
2, 91388, Note_off_c, 0, 91, 100
2, 91392, Note_on_c, 0, 92, 100
2, 91772, Note_off_c, 0, 92, 100
2, 91968, Note_on_c, 0, 92, 80
2, 92060, Note_off_c, 0, 92, 100
2, 92064, Note_on_c, 0, 91, 80
2, 92156, Note_off_c, 0, 91, 100
2, 92160, Note_on_c, 0, 89, 80
2, 92252, Note_off_c, 0, 89, 100
2, 92256, Note_on_c, 0, 87, 80
2, 92348, Note_off_c, 0, 87, 100
2, 92352, Note_on_c, 0, 85, 80
2, 92444, Note_off_c, 0, 85, 100
2, 92448, Note_on_c, 0, 84, 80
2, 92540, Note_off_c, 0, 84, 100
2, 92544, Note_on_c, 0, 89, 80
2, 92924, Note_off_c, 0, 89, 100
2, 93120, Note_on_c, 0, 89, 80
2, 93212, Note_off_c, 0, 89, 100
2, 93216, Note_on_c, 0, 87, 80
2, 93308, Note_off_c, 0, 87, 100
2, 93312, Note_on_c, 0, 85, 80
2, 93404, Note_off_c, 0, 85, 100
2, 93408, Note_on_c, 0, 84, 80
2, 93500, Note_off_c, 0, 84, 100
2, 93504, Note_on_c, 0, 82, 80
2, 93596, Note_off_c, 0, 82, 100
2, 93600, Note_on_c, 0, 80, 80
2, 93692, Note_off_c, 0, 80, 100
2, 93696, Note_on_c, 0, 85, 80
2, 94076, Note_off_c, 0, 85, 100
2, 94272, Note_on_c, 0, 85, 80
2, 94272, Note_on_c, 0, 75, 80
2, 94364, Note_off_c, 0, 85, 100
2, 94368, Note_on_c, 0, 84, 80
2, 94460, Note_off_c, 0, 75, 100
2, 94460, Note_off_c, 0, 84, 100
2, 94464, Note_on_c, 0, 82, 80
2, 94464, Note_on_c, 0, 73, 80
2, 94556, Note_off_c, 0, 82, 100
2, 94560, Note_on_c, 0, 84, 80
2, 94652, Note_off_c, 0, 73, 100
2, 94652, Note_off_c, 0, 84, 100
2, 94656, Note_on_c, 0, 82, 80
2, 94656, Note_on_c, 0, 70, 80
2, 94748, Note_off_c, 0, 82, 100
2, 94752, Note_on_c, 0, 80, 80
2, 94844, Note_off_c, 0, 70, 100
2, 94844, Note_off_c, 0, 80, 100
2, 94848, Note_on_c, 0, 79, 80
2, 94848, Note_on_c, 0, 70, 80
2, 94940, Note_off_c, 0, 79, 100
2, 94944, Note_on_c, 0, 80, 80
2, 95036, Note_off_c, 0, 70, 100
2, 95036, Note_off_c, 0, 80, 100
2, 95040, Note_on_c, 0, 79, 80
2, 95132, Note_off_c, 0, 79, 100
2, 95136, Note_on_c, 0, 77, 80
2, 95228, Note_off_c, 0, 77, 100
2, 95232, Note_on_c, 0, 75, 80
2, 95324, Note_off_c, 0, 75, 100
2, 95328, Note_on_c, 0, 77, 80
2, 95420, Note_off_c, 0, 77, 100
2, 95424, Note_on_c, 0, 79, 80
2, 95516, Note_off_c, 0, 79, 100
2, 95520, Note_on_c, 0, 80, 80
2, 95612, Note_off_c, 0, 80, 100
2, 95616, Note_on_c, 0, 81, 80
2, 95708, Note_off_c, 0, 81, 100
2, 95712, Note_on_c, 0, 82, 80
2, 95804, Note_off_c, 0, 82, 100
2, 95808, Note_on_c, 0, 84, 80
2, 95900, Note_off_c, 0, 84, 100
2, 95904, Note_on_c, 0, 82, 80
2, 95996, Note_off_c, 0, 82, 100
2, 96000, Note_on_c, 0, 80, 80
2, 96092, Note_off_c, 0, 80, 100
2, 96096, Note_on_c, 0, 82, 80
2, 96188, Note_off_c, 0, 82, 100
2, 96192, Note_on_c, 0, 84, 80
2, 96284, Note_off_c, 0, 84, 100
2, 96288, Note_on_c, 0, 85, 80
2, 96380, Note_off_c, 0, 85, 100
2, 96384, Note_on_c, 0, 85, 80
2, 96476, Note_off_c, 0, 85, 100
2, 96480, Note_on_c, 0, 87, 80
2, 96572, Note_off_c, 0, 87, 100
2, 96576, Note_on_c, 0, 89, 80
2, 96668, Note_off_c, 0, 89, 100
2, 96672, Note_on_c, 0, 87, 80
2, 96764, Note_off_c, 0, 87, 100
2, 96768, Note_on_c, 0, 85, 80
2, 96860, Note_off_c, 0, 85, 100
2, 96864, Note_on_c, 0, 84, 80
2, 96956, Note_off_c, 0, 84, 100
2, 96960, Note_on_c, 0, 82, 80
2, 97052, Note_off_c, 0, 82, 100
2, 97056, Note_on_c, 0, 80, 80
2, 97148, Note_off_c, 0, 80, 100
2, 97152, Note_on_c, 0, 82, 80
2, 97152, Note_on_c, 0, 73, 80
2, 97340, Note_off_c, 0, 82, 100
2, 97340, Note_off_c, 0, 73, 100
2, 97536, Note_on_c, 0, 73, 92
2, 97536, Note_on_c, 0, 70, 94
2, 98108, Note_off_c, 0, 70, 100
2, 98108, Note_off_c, 0, 73, 100
2, 98112, Note_on_c, 0, 73, 80
2, 98112, Note_on_c, 0, 65, 80
2, 98300, Note_off_c, 0, 73, 100
2, 98300, Note_off_c, 0, 65, 100
2, 98304, Note_on_c, 0, 65, 80
2, 98304, Note_on_c, 0, 73, 80
2, 98492, Note_off_c, 0, 65, 100
2, 98492, Note_off_c, 0, 73, 100
2, 98496, Note_on_c, 0, 72, 80
2, 98496, Note_on_c, 0, 63, 80
2, 98684, Note_off_c, 0, 72, 100
2, 98684, Note_off_c, 0, 63, 100
2, 98688, Note_on_c, 0, 70, 80
2, 98688, Note_on_c, 0, 61, 80
2, 98876, Note_off_c, 0, 70, 100
2, 98876, Note_off_c, 0, 61, 100
2, 98880, Note_on_c, 0, 68, 80
2, 98880, Note_on_c, 0, 60, 80
2, 99068, Note_off_c, 0, 68, 100
2, 99068, Note_off_c, 0, 60, 100
2, 99072, Note_on_c, 0, 67, 80
2, 99072, Note_on_c, 0, 58, 80
2, 99260, Note_off_c, 0, 67, 100
2, 99260, Note_off_c, 0, 58, 100
2, 99264, Note_on_c, 0, 68, 80
2, 99264, Note_on_c, 0, 60, 80
2, 99452, Note_off_c, 0, 68, 100
2, 99452, Note_off_c, 0, 60, 100
2, 99456, Note_on_c, 0, 68, 80
2, 99548, Note_off_c, 0, 68, 100
2, 99552, Note_on_c, 0, 70, 80
2, 99644, Note_off_c, 0, 70, 100
2, 99648, Note_on_c, 0, 72, 80
2, 99740, Note_off_c, 0, 72, 100
2, 99744, Note_on_c, 0, 73, 80
2, 99836, Note_off_c, 0, 73, 100
2, 99840, Note_on_c, 0, 75, 80
2, 99932, Note_off_c, 0, 75, 100
2, 99936, Note_on_c, 0, 77, 80
2, 100028, Note_off_c, 0, 77, 100
2, 100032, Note_on_c, 0, 78, 80
2, 100124, Note_off_c, 0, 78, 100
2, 100128, Note_on_c, 0, 77, 80
2, 100220, Note_off_c, 0, 77, 100
2, 100224, Note_on_c, 0, 75, 80
2, 100316, Note_off_c, 0, 75, 100
2, 100320, Note_on_c, 0, 73, 80
2, 100412, Note_off_c, 0, 73, 100
2, 100416, Note_on_c, 0, 72, 80
2, 100508, Note_off_c, 0, 72, 100
2, 100512, Note_on_c, 0, 70, 80
2, 100604, Note_off_c, 0, 70, 100
2, 100608, Note_on_c, 0, 75, 90
2, 100608, Note_on_c, 0, 66, 92
2, 100796, Note_off_c, 0, 75, 100
2, 100796, Note_off_c, 0, 66, 100
2, 100800, Note_on_c, 0, 73, 80
2, 100800, Note_on_c, 0, 65, 80
2, 100988, Note_off_c, 0, 73, 100
2, 100988, Note_off_c, 0, 65, 100
2, 100992, Note_on_c, 0, 72, 80
2, 100992, Note_on_c, 0, 63, 80
2, 101180, Note_off_c, 0, 72, 100
2, 101180, Note_off_c, 0, 63, 100
2, 101184, Note_on_c, 0, 70, 80
2, 101184, Note_on_c, 0, 61, 80
2, 101372, Note_off_c, 0, 70, 100
2, 101372, Note_off_c, 0, 61, 100
2, 101376, Note_on_c, 0, 69, 80
2, 101376, Note_on_c, 0, 60, 80
2, 101564, Note_off_c, 0, 69, 100
2, 101564, Note_off_c, 0, 60, 100
2, 101568, Note_on_c, 0, 70, 80
2, 101568, Note_on_c, 0, 61, 80
2, 101756, Note_off_c, 0, 70, 100
2, 101756, Note_off_c, 0, 61, 100
2, 104064, Note_on_c, 0, 75, 100
2, 104064, Note_on_c, 0, 71, 100
2, 104252, Note_off_c, 0, 75, 100
2, 104252, Note_off_c, 0, 71, 100
2, 104256, Note_on_c, 0, 73, 90
2, 104256, Note_on_c, 0, 70, 90
2, 104444, Note_off_c, 0, 73, 100
2, 104444, Note_off_c, 0, 70, 100
2, 104448, Note_on_c, 0, 71, 80
2, 104448, Note_on_c, 0, 68, 80
2, 104636, Note_off_c, 0, 71, 100
2, 104636, Note_off_c, 0, 68, 100
2, 104640, Note_on_c, 0, 70, 80
2, 104640, Note_on_c, 0, 66, 80
2, 104828, Note_off_c, 0, 70, 100
2, 104828, Note_off_c, 0, 66, 100
2, 104832, Note_on_c, 0, 68, 80
2, 104832, Note_on_c, 0, 65, 80
2, 105020, Note_off_c, 0, 68, 100
2, 105020, Note_off_c, 0, 65, 100
2, 105024, Note_on_c, 0, 70, 80
2, 105024, Note_on_c, 0, 66, 80
2, 105212, Note_off_c, 0, 70, 100
2, 105212, Note_off_c, 0, 66, 100
2, 105216, Note_on_c, 0, 85, 110
2, 105216, Note_on_c, 0, 76, 110
2, 105404, Note_off_c, 0, 85, 100
2, 105404, Note_off_c, 0, 76, 100
2, 105408, Note_on_c, 0, 83, 90
2, 105408, Note_on_c, 0, 75, 90
2, 105596, Note_off_c, 0, 83, 100
2, 105596, Note_off_c, 0, 75, 100
2, 105600, Note_on_c, 0, 82, 80
2, 105600, Note_on_c, 0, 73, 80
2, 105788, Note_off_c, 0, 82, 100
2, 105788, Note_off_c, 0, 73, 100
2, 105792, Note_on_c, 0, 80, 80
2, 105792, Note_on_c, 0, 71, 80
2, 105980, Note_off_c, 0, 80, 100
2, 105980, Note_off_c, 0, 71, 100
2, 105984, Note_on_c, 0, 79, 80
2, 105984, Note_on_c, 0, 70, 80
2, 106172, Note_off_c, 0, 79, 100
2, 106172, Note_off_c, 0, 70, 100
2, 106176, Note_on_c, 0, 71, 83
2, 106176, Note_on_c, 0, 80, 83
2, 106556, Note_off_c, 0, 71, 100
2, 106556, Note_off_c, 0, 80, 100
2, 106560, Note_on_c, 0, 83, 91
2, 106560, Note_on_c, 0, 80, 91
2, 106940, Note_off_c, 0, 83, 100
2, 106940, Note_off_c, 0, 80, 100
2, 106944, Note_on_c, 0, 82, 99
2, 106944, Note_on_c, 0, 79, 99
2, 107132, Note_off_c, 0, 82, 100
2, 107132, Note_off_c, 0, 79, 100
2, 107136, Note_on_c, 0, 76, 110
2, 107136, Note_on_c, 0, 73, 110
2, 107708, Note_off_c, 0, 76, 100
2, 107708, Note_off_c, 0, 73, 100
2, 107712, Note_on_c, 0, 76, 110
2, 107712, Note_on_c, 0, 73, 110
2, 108092, Note_off_c, 0, 76, 100
2, 108092, Note_off_c, 0, 73, 100
2, 108096, Note_on_c, 0, 75, 110
2, 108096, Note_on_c, 0, 71, 110
2, 108284, Note_off_c, 0, 75, 100
2, 108284, Note_off_c, 0, 71, 100
2, 108288, Note_on_c, 0, 73, 110
2, 108288, Note_on_c, 0, 70, 110
2, 108476, Note_off_c, 0, 73, 100
2, 108476, Note_off_c, 0, 70, 100
2, 108480, Note_on_c, 0, 71, 110
2, 108480, Note_on_c, 0, 68, 110
2, 108668, Note_off_c, 0, 71, 100
2, 108668, Note_off_c, 0, 68, 100
2, 108672, Note_on_c, 0, 70, 110
2, 108672, Note_on_c, 0, 67, 110
2, 108860, Note_off_c, 0, 70, 100
2, 108860, Note_off_c, 0, 67, 100
2, 108864, Note_on_c, 0, 71, 110
2, 108864, Note_on_c, 0, 68, 110
2, 109052, Note_off_c, 0, 71, 100
2, 109052, Note_off_c, 0, 68, 100
2, 109056, Note_on_c, 0, 73, 110
2, 109056, Note_on_c, 0, 70, 110
2, 109244, Note_off_c, 0, 73, 100
2, 109244, Note_off_c, 0, 70, 100
2, 109248, Note_on_c, 0, 75, 110
2, 109248, Note_on_c, 0, 71, 110
2, 109628, Note_off_c, 0, 71, 100
2, 109628, Note_off_c, 0, 75, 100
2, 109632, Note_on_c, 0, 75, 110
2, 109632, Note_on_c, 0, 71, 110
2, 109820, Note_off_c, 0, 75, 100
2, 109820, Note_off_c, 0, 71, 100
2, 109824, Note_on_c, 0, 75, 110
2, 109824, Note_on_c, 0, 71, 110
2, 110396, Note_off_c, 0, 75, 100
2, 110396, Note_off_c, 0, 71, 100
2, 110400, Note_on_c, 0, 73, 110
2, 110400, Note_on_c, 0, 70, 110
2, 110780, Note_off_c, 0, 70, 100
2, 110780, Note_off_c, 0, 73, 100
2, 110784, Note_on_c, 0, 71, 110
2, 110784, Note_on_c, 0, 68, 110
2, 110972, Note_off_c, 0, 71, 100
2, 110972, Note_off_c, 0, 68, 100
2, 110976, Note_on_c, 0, 70, 110
2, 110976, Note_on_c, 0, 66, 110
2, 111164, Note_off_c, 0, 70, 100
2, 111164, Note_off_c, 0, 66, 100
2, 111168, Note_on_c, 0, 68, 110
2, 111168, Note_on_c, 0, 65, 110
2, 111356, Note_off_c, 0, 68, 100
2, 111356, Note_off_c, 0, 65, 100
2, 111360, Note_on_c, 0, 70, 110
2, 111360, Note_on_c, 0, 66, 110
2, 111548, Note_off_c, 0, 70, 100
2, 111548, Note_off_c, 0, 66, 100
2, 111552, Note_on_c, 0, 71, 110
2, 111552, Note_on_c, 0, 68, 110
2, 111740, Note_off_c, 0, 71, 100
2, 111740, Note_off_c, 0, 68, 100
2, 111744, Note_on_c, 0, 73, 110
2, 111744, Note_on_c, 0, 66, 110
2, 111932, Note_off_c, 0, 73, 100
2, 111932, Note_off_c, 0, 66, 100
2, 111936, Note_on_c, 0, 75, 105
2, 111936, Note_on_c, 0, 66, 105
2, 112124, Note_off_c, 0, 66, 100
2, 112128, Note_on_c, 0, 65, 100
2, 112316, Note_off_c, 0, 75, 100
2, 112316, Note_off_c, 0, 65, 100
2, 112320, Note_on_c, 0, 73, 94
2, 112320, Note_on_c, 0, 66, 94
2, 112508, Note_off_c, 0, 66, 100
2, 112512, Note_on_c, 0, 68, 89
2, 112604, Note_off_c, 0, 68, 100
2, 112608, Note_on_c, 0, 66, 86
2, 112700, Note_off_c, 0, 73, 100
2, 112700, Note_off_c, 0, 66, 100
2, 112704, Note_on_c, 0, 73, 83
2, 112704, Note_on_c, 0, 65, 83
2, 112796, Note_off_c, 0, 65, 100
2, 112800, Note_on_c, 0, 68, 81
2, 112892, Note_off_c, 0, 73, 100
2, 112892, Note_off_c, 0, 68, 100
2, 112896, Key_signature, -6, "major"
2, 112896, Note_on_c, 0, 73, 80
2, 112896, Note_on_c, 0, 70, 80
2, 112988, Note_off_c, 0, 73, 100
2, 112992, Note_on_c, 0, 58, 80
2, 113084, Note_off_c, 0, 70, 100
2, 113084, Note_off_c, 0, 58, 100
2, 113088, Note_on_c, 0, 61, 80
2, 113180, Note_off_c, 0, 61, 100
2, 113184, Note_on_c, 0, 63, 80
2, 113276, Note_off_c, 0, 63, 100
2, 113280, Note_on_c, 0, 70, 80
2, 113376, Note_on_c, 0, 66, 80
2, 113468, Note_off_c, 0, 70, 100
2, 113468, Note_off_c, 0, 66, 100
2, 113472, Note_on_c, 0, 71, 80
2, 113472, Note_on_c, 0, 65, 80
2, 113564, Note_off_c, 0, 65, 100
2, 113568, Note_on_c, 0, 63, 80
2, 113660, Note_off_c, 0, 71, 100
2, 113660, Note_off_c, 0, 63, 100
2, 113664, Note_on_c, 0, 73, 80
2, 113664, Note_on_c, 0, 65, 80
2, 113852, Note_off_c, 0, 65, 100
2, 113856, Note_on_c, 0, 66, 80
2, 113948, Note_off_c, 0, 66, 100
2, 113952, Note_on_c, 0, 68, 80
2, 114044, Note_off_c, 0, 73, 100
2, 114044, Note_off_c, 0, 68, 100
2, 114048, Note_on_c, 0, 70, 80
2, 114428, Note_off_c, 0, 70, 100
2, 114528, Note_on_c, 0, 78, 80
2, 114620, Note_off_c, 0, 78, 100
2, 114624, Note_on_c, 0, 77, 80
2, 114716, Note_off_c, 0, 77, 100
2, 114720, Note_on_c, 0, 75, 80
2, 114812, Note_off_c, 0, 75, 100
2, 114816, Note_on_c, 0, 77, 80
2, 115004, Note_off_c, 0, 77, 100
2, 115008, Note_on_c, 0, 78, 80
2, 115100, Note_off_c, 0, 78, 100
2, 115104, Note_on_c, 0, 80, 80
2, 115200, Note_on_c, 0, 77, 80
2, 115292, Note_off_c, 0, 77, 100
2, 115296, Note_on_c, 0, 65, 80
2, 115388, Note_off_c, 0, 65, 100
2, 115392, Note_on_c, 0, 68, 81
2, 115484, Note_off_c, 0, 68, 100
2, 115488, Note_on_c, 0, 73, 82
2, 115580, Note_off_c, 0, 73, 100
2, 115584, Note_on_c, 0, 77, 84
2, 115676, Note_off_c, 0, 80, 100
2, 115680, Note_on_c, 0, 89, 85
2, 115772, Note_off_c, 0, 77, 100
2, 115772, Note_off_c, 0, 89, 100
2, 115776, Note_on_c, 0, 78, 86
2, 115776, Note_on_c, 0, 87, 86
2, 115868, Note_off_c, 0, 87, 100
2, 115872, Note_on_c, 0, 85, 88
2, 115964, Note_off_c, 0, 78, 100
2, 115964, Note_off_c, 0, 85, 100
2, 115968, Note_on_c, 0, 80, 89
2, 115968, Note_on_c, 0, 84, 89
2, 116156, Note_off_c, 0, 84, 100
2, 116160, Note_on_c, 0, 85, 92
2, 116252, Note_off_c, 0, 85, 100
2, 116256, Note_on_c, 0, 87, 93
2, 116348, Note_off_c, 0, 80, 100
2, 116348, Note_off_c, 0, 87, 100
2, 116352, Note_on_c, 0, 80, 94
2, 116352, Note_on_c, 0, 77, 94
2, 116732, Note_off_c, 0, 80, 100
2, 116828, Note_off_c, 0, 77, 100
2, 116832, Note_on_c, 0, 77, 101
2, 116924, Note_off_c, 0, 77, 100
2, 116928, Note_on_c, 0, 75, 102
2, 117020, Note_off_c, 0, 75, 100
2, 117024, Note_on_c, 0, 73, 104
2, 117116, Note_off_c, 0, 73, 100
2, 117120, Note_on_c, 0, 72, 105
2, 117212, Note_off_c, 0, 72, 100
2, 117216, Note_on_c, 0, 70, 106
2, 117308, Note_off_c, 0, 70, 100
2, 117312, Note_on_c, 0, 68, 108
2, 117404, Note_off_c, 0, 68, 100
2, 117408, Note_on_c, 0, 66, 109
2, 117500, Note_off_c, 0, 66, 100
2, 117504, Note_on_c, 0, 65, 110
2, 117504, Note_on_c, 0, 77, 110
2, 117692, Note_off_c, 0, 65, 100
2, 117692, Note_off_c, 0, 77, 100
2, 117696, Note_on_c, 0, 78, 110
2, 117884, Note_off_c, 0, 78, 100
2, 117888, Note_on_c, 0, 80, 127
2, 117984, Note_on_c, 0, 68, 110
2, 118076, Note_off_c, 0, 68, 100
2, 118080, Note_on_c, 0, 70, 110
2, 118172, Note_off_c, 0, 70, 100
2, 118176, Note_on_c, 0, 72, 110
2, 118268, Note_off_c, 0, 72, 100
2, 118272, Note_on_c, 0, 74, 110
2, 118364, Note_off_c, 0, 80, 100
2, 118368, Note_on_c, 0, 77, 110
2, 118460, Note_off_c, 0, 74, 100
2, 118460, Note_off_c, 0, 77, 100
2, 118464, Note_on_c, 0, 75, 110
2, 118464, Note_on_c, 0, 70, 110
2, 118556, Note_off_c, 0, 75, 100
2, 118560, Note_on_c, 0, 74, 110
2, 118652, Note_off_c, 0, 74, 100
2, 118656, Note_on_c, 0, 75, 110
2, 118748, Note_off_c, 0, 70, 100
2, 118752, Note_on_c, 0, 54, 110
2, 118844, Note_off_c, 0, 54, 100
2, 118848, Note_on_c, 0, 58, 110
2, 118940, Note_off_c, 0, 58, 100
2, 118944, Note_on_c, 0, 63, 110
2, 119036, Note_off_c, 0, 75, 100
2, 119036, Note_off_c, 0, 63, 100
2, 119040, Note_on_c, 0, 66, 110
2, 119136, Note_on_c, 0, 90, 110
2, 119228, Note_off_c, 0, 66, 100
2, 119228, Note_off_c, 0, 90, 100
2, 119232, Note_on_c, 0, 89, 110
2, 119232, Note_on_c, 0, 68, 110
2, 119324, Note_off_c, 0, 89, 100
2, 119328, Note_on_c, 0, 87, 110
2, 119420, Note_off_c, 0, 68, 100
2, 119420, Note_off_c, 0, 87, 100
2, 119424, Note_on_c, 0, 86, 110
2, 119424, Note_on_c, 0, 70, 127
2, 119516, Note_off_c, 0, 86, 100
2, 119520, Note_on_c, 0, 83, 110
2, 119612, Note_off_c, 0, 83, 100
2, 119616, Note_on_c, 0, 82, 110
2, 119708, Note_off_c, 0, 82, 100
2, 119712, Note_on_c, 0, 80, 110
2, 119804, Note_off_c, 0, 80, 100
2, 119808, Note_on_c, 0, 78, 110
2, 119996, Note_off_c, 0, 70, 100
2, 120000, Note_on_c, 0, 66, 110
2, 120188, Note_off_c, 0, 78, 100
2, 120288, Note_on_c, 0, 78, 110
2, 120380, Note_off_c, 0, 66, 100
2, 120380, Note_off_c, 0, 78, 100
2, 120384, Note_on_c, 0, 77, 110
2, 120476, Note_off_c, 0, 77, 100
2, 120480, Note_on_c, 0, 75, 110
2, 120572, Note_off_c, 0, 75, 100
2, 120576, Note_on_c, 0, 74, 110
2, 120668, Note_off_c, 0, 74, 100
2, 120672, Note_on_c, 0, 71, 110
2, 120764, Note_off_c, 0, 71, 100
2, 120768, Note_on_c, 0, 70, 110
2, 120860, Note_off_c, 0, 70, 100
2, 120864, Note_on_c, 0, 68, 110
2, 120956, Note_off_c, 0, 68, 100
2, 120960, Note_on_c, 0, 78, 110
2, 121148, Note_off_c, 0, 78, 100
2, 121152, Note_on_c, 0, 80, 110
2, 121340, Note_off_c, 0, 80, 100
2, 121344, Note_on_c, 0, 82, 127
2, 121820, Note_off_c, 0, 82, 100
2, 121824, Note_on_c, 0, 79, 110
2, 121916, Note_off_c, 0, 79, 100
2, 121920, Note_on_c, 0, 77, 110
2, 122012, Note_off_c, 0, 77, 100
2, 122016, Note_on_c, 0, 75, 110
2, 122108, Note_off_c, 0, 75, 100
2, 122112, Note_on_c, 0, 87, 110
2, 122204, Note_off_c, 0, 87, 100
2, 122208, Note_on_c, 0, 83, 110
2, 122300, Note_off_c, 0, 83, 100
2, 122304, Note_on_c, 0, 82, 110
2, 122396, Note_off_c, 0, 82, 100
2, 122400, Note_on_c, 0, 80, 110
2, 122492, Note_off_c, 0, 80, 100
2, 122496, Note_on_c, 0, 92, 110
2, 122588, Note_off_c, 0, 92, 100
2, 122592, Note_on_c, 0, 89, 110
2, 122684, Note_off_c, 0, 89, 100
2, 122688, Note_on_c, 0, 87, 110
2, 122780, Note_off_c, 0, 87, 100
2, 122784, Note_on_c, 0, 86, 110
2, 122876, Note_off_c, 0, 86, 100
2, 122880, Note_on_c, 0, 92, 110
2, 123356, Note_off_c, 0, 92, 100
2, 123360, Note_on_c, 0, 80, 110
2, 123452, Note_off_c, 0, 80, 100
2, 123456, Note_on_c, 0, 78, 110
2, 123548, Note_off_c, 0, 78, 100
2, 123552, Note_on_c, 0, 77, 110
2, 123644, Note_off_c, 0, 77, 100
2, 123648, Note_on_c, 0, 80, 110
2, 123740, Note_off_c, 0, 80, 100
2, 123744, Note_on_c, 0, 77, 110
2, 123836, Note_off_c, 0, 77, 100
2, 123840, Note_on_c, 0, 75, 110
2, 123932, Note_off_c, 0, 75, 100
2, 123936, Note_on_c, 0, 74, 110
2, 124028, Note_off_c, 0, 74, 100
2, 124032, Note_on_c, 0, 77, 110
2, 124124, Note_off_c, 0, 77, 100
2, 124128, Note_on_c, 0, 70, 110
2, 124220, Note_off_c, 0, 70, 100
2, 124224, Note_on_c, 0, 69, 110
2, 124316, Note_off_c, 0, 69, 100
2, 124320, Note_on_c, 0, 70, 110
2, 124412, Note_off_c, 0, 70, 100
2, 124416, Note_on_c, 0, 82, 110
2, 124508, Note_off_c, 0, 82, 100
2, 124512, Note_on_c, 0, 77, 110
2, 124604, Note_off_c, 0, 77, 100
2, 124608, Note_on_c, 0, 76, 110
2, 124700, Note_off_c, 0, 76, 100
2, 124704, Note_on_c, 0, 77, 110
2, 124796, Note_off_c, 0, 77, 100
2, 124800, Note_on_c, 0, 89, 110
2, 124892, Note_off_c, 0, 89, 100
2, 124896, Note_on_c, 0, 82, 110
2, 124988, Note_off_c, 0, 82, 100
2, 124992, Note_on_c, 0, 81, 110
2, 125084, Note_off_c, 0, 81, 100
2, 125088, Note_on_c, 0, 82, 110
2, 125180, Note_off_c, 0, 82, 100
2, 125184, Note_on_c, 0, 94, 110
2, 125276, Note_off_c, 0, 94, 100
2, 125280, Note_on_c, 0, 92, 110
2, 125372, Note_off_c, 0, 92, 100
2, 125376, Note_on_c, 0, 90, 110
2, 125468, Note_off_c, 0, 90, 100
2, 125472, Note_on_c, 0, 89, 110
2, 125564, Note_off_c, 0, 89, 100
2, 125568, Note_on_c, 0, 90, 110
2, 125948, Note_off_c, 0, 90, 100
2, 125952, Note_on_c, 0, 47, 110
2, 126332, Note_off_c, 0, 47, 100
2, 126336, Note_on_c, 0, 59, 127
2, 127100, Note_off_c, 0, 59, 100
2, 127104, Note_on_c, 0, 86, 110
2, 127292, Note_off_c, 0, 86, 100
2, 127488, Note_on_c, 0, 87, 110
2, 128252, Note_off_c, 0, 87, 100
2, 128256, Note_on_c, 0, 44, 110
2, 128636, Note_off_c, 0, 44, 100
2, 128640, Note_on_c, 0, 56, 126
2, 129404, Note_off_c, 0, 56, 100
2, 129408, Note_on_c, 0, 82, 110
2, 129596, Note_off_c, 0, 82, 100
2, 129792, Note_on_c, 0, 83, 110
2, 130556, Note_off_c, 0, 83, 100
2, 130560, Note_on_c, 0, 41, 110
2, 130940, Note_off_c, 0, 41, 100
2, 130944, Note_on_c, 0, 53, 124
2, 131708, Note_off_c, 0, 53, 100
2, 131712, Note_on_c, 0, 82, 110
2, 132092, Note_off_c, 0, 82, 100
2, 132096, Note_on_c, 0, 83, 110
2, 132860, Note_off_c, 0, 83, 100
2, 132864, Note_on_c, 0, 82, 110
2, 133244, Note_off_c, 0, 82, 100
2, 133248, Note_on_c, 0, 80, 110
2, 134396, Note_off_c, 0, 80, 100
2, 134400, Note_on_c, 0, 92, 126
2, 134972, Note_off_c, 0, 92, 100
2, 135168, Note_on_c, 0, 90, 110
2, 135356, Note_off_c, 0, 90, 100
2, 135552, Note_on_c, 0, 89, 110
2, 135740, Note_off_c, 0, 89, 100
2, 135936, Note_on_c, 0, 87, 110
2, 136124, Note_off_c, 0, 87, 100
2, 136320, Note_on_c, 0, 86, 110
2, 136508, Note_off_c, 0, 86, 100
2, 136704, Note_on_c, 0, 68, 110
2, 136704, Note_on_c, 0, 65, 110
2, 136892, Note_off_c, 0, 68, 100
2, 136892, Note_off_c, 0, 65, 100
2, 136896, Note_on_c, 0, 66, 110
2, 136896, Note_on_c, 0, 63, 110
2, 137084, Note_off_c, 0, 66, 100
2, 137084, Note_off_c, 0, 63, 100
2, 137088, Note_on_c, 0, 65, 110
2, 137088, Note_on_c, 0, 56, 110
2, 137276, Note_off_c, 0, 65, 100
2, 137276, Note_off_c, 0, 56, 100
2, 137280, Note_on_c, 0, 66, 110
2, 137280, Note_on_c, 0, 58, 110
2, 137468, Note_off_c, 0, 66, 100
2, 137468, Note_off_c, 0, 58, 100
2, 137472, Note_on_c, 0, 65, 110
2, 137472, Note_on_c, 0, 56, 110
2, 137660, Note_off_c, 0, 65, 100
2, 137660, Note_off_c, 0, 56, 100
2, 137664, Note_on_c, 0, 63, 110
2, 137664, Note_on_c, 0, 54, 110
2, 137852, Note_off_c, 0, 63, 100
2, 137852, Note_off_c, 0, 54, 100
2, 137856, Note_on_c, 0, 62, 110
2, 137856, Note_on_c, 0, 53, 110
2, 138044, Note_off_c, 0, 62, 100
2, 138044, Note_off_c, 0, 53, 100
2, 138048, Note_on_c, 0, 63, 110
2, 138048, Note_on_c, 0, 54, 110
2, 138236, Note_off_c, 0, 63, 100
2, 138236, Note_off_c, 0, 54, 100
2, 138240, Note_on_c, 0, 65, 110
2, 138240, Note_on_c, 0, 62, 110
2, 138428, Note_off_c, 0, 65, 100
2, 138428, Note_off_c, 0, 62, 100
2, 138432, Note_on_c, 0, 66, 110
2, 138432, Note_on_c, 0, 63, 110
2, 138620, Note_off_c, 0, 66, 100
2, 138620, Note_off_c, 0, 63, 100
2, 138624, Note_on_c, 0, 68, 110
2, 138624, Note_on_c, 0, 65, 110
2, 138812, Note_off_c, 0, 68, 100
2, 138812, Note_off_c, 0, 65, 100
2, 138816, Note_on_c, 0, 70, 110
2, 138816, Note_on_c, 0, 66, 110
2, 139004, Note_off_c, 0, 70, 100
2, 139004, Note_off_c, 0, 66, 100
2, 139008, Note_on_c, 0, 72, 110
2, 139008, Note_on_c, 0, 63, 110
2, 139196, Note_off_c, 0, 72, 100
2, 139196, Note_off_c, 0, 63, 100
2, 139200, Note_on_c, 0, 74, 110
2, 139200, Note_on_c, 0, 65, 110
2, 139388, Note_off_c, 0, 74, 100
2, 139388, Note_off_c, 0, 65, 100
2, 139392, Note_on_c, 0, 75, 110
2, 139392, Note_on_c, 0, 66, 110
2, 139580, Note_off_c, 0, 75, 100
2, 139580, Note_off_c, 0, 66, 100
2, 139584, Note_on_c, 0, 77, 110
2, 139584, Note_on_c, 0, 68, 110
2, 139772, Note_off_c, 0, 77, 100
2, 139772, Note_off_c, 0, 68, 100
2, 139776, Note_on_c, 0, 78, 110
2, 139776, Note_on_c, 0, 70, 110
2, 139964, Note_off_c, 0, 78, 100
2, 139964, Note_off_c, 0, 70, 100
2, 139968, Note_on_c, 0, 79, 110
2, 139968, Note_on_c, 0, 71, 110
2, 140156, Note_off_c, 0, 79, 100
2, 140156, Note_off_c, 0, 71, 100
2, 140160, Note_on_c, 0, 80, 110
2, 140160, Note_on_c, 0, 77, 110
2, 140348, Note_off_c, 0, 80, 100
2, 140348, Note_off_c, 0, 77, 100
2, 140352, Note_on_c, 0, 82, 110
2, 140352, Note_on_c, 0, 78, 110
2, 140540, Note_off_c, 0, 82, 100
2, 140540, Note_off_c, 0, 78, 100
2, 140544, Note_on_c, 0, 83, 110
2, 140544, Note_on_c, 0, 80, 110
2, 140732, Note_off_c, 0, 83, 100
2, 140732, Note_off_c, 0, 80, 100
2, 140736, Note_on_c, 0, 82, 110
2, 140736, Note_on_c, 0, 78, 110
2, 140924, Note_off_c, 0, 82, 100
2, 140924, Note_off_c, 0, 78, 100
2, 140928, Note_on_c, 0, 80, 110
2, 140928, Note_on_c, 0, 71, 110
2, 141116, Note_off_c, 0, 80, 100
2, 141116, Note_off_c, 0, 71, 100
2, 141120, Note_on_c, 0, 78, 110
2, 141120, Note_on_c, 0, 70, 110
2, 141308, Note_off_c, 0, 78, 100
2, 141308, Note_off_c, 0, 70, 100
2, 141312, Note_on_c, 0, 75, 110
2, 141312, Note_on_c, 0, 68, 110
2, 141500, Note_off_c, 0, 75, 100
2, 141500, Note_off_c, 0, 68, 100
2, 141504, Note_on_c, 0, 66, 110
2, 141692, Note_off_c, 0, 66, 100
2, 141696, Note_on_c, 0, 73, 110
2, 141696, Note_on_c, 0, 65, 110
2, 141884, Note_off_c, 0, 73, 100
2, 141884, Note_off_c, 0, 65, 100
2, 141888, Note_on_c, 0, 63, 110
2, 142076, Note_off_c, 0, 63, 100
2, 142080, Note_on_c, 0, 72, 110
2, 142080, Note_on_c, 0, 61, 110
2, 142268, Note_off_c, 0, 72, 100
2, 142268, Note_off_c, 0, 61, 100
2, 142272, Note_on_c, 0, 60, 110
2, 142460, Note_off_c, 0, 60, 100
2, 142464, Note_on_c, 0, 63, 110
2, 142464, Note_on_c, 0, 58, 110
2, 142652, Note_off_c, 0, 58, 100
2, 142656, Note_on_c, 0, 57, 110
2, 142844, Note_off_c, 0, 57, 100
2, 142848, Key_signature, -5, "major"
2, 142848, Note_on_c, 0, 54, 110
2, 143036, Note_off_c, 0, 54, 100
2, 143040, Note_on_c, 0, 53, 110
2, 143228, Note_off_c, 0, 53, 100
2, 143232, Note_on_c, 0, 51, 110
2, 143420, Note_off_c, 0, 51, 100
2, 143424, Note_on_c, 0, 49, 110
2, 143612, Note_off_c, 0, 63, 100
2, 143612, Note_off_c, 0, 49, 100
2, 143616, Note_on_c, 0, 51, 110
2, 143616, Note_on_c, 0, 81, 110
2, 143616, Note_on_c, 0, 73, 110
2, 143664, Note_on_c, 0, 82, 110
2, 143708, Note_off_c, 0, 81, 100
2, 143712, Note_on_c, 0, 81, 110
2, 143756, Note_off_c, 0, 82, 100
2, 143760, Note_on_c, 0, 82, 110
2, 143804, Note_off_c, 0, 73, 100
2, 143804, Note_off_c, 0, 81, 100
2, 143808, Note_on_c, 0, 81, 110
2, 143808, Note_on_c, 0, 72, 110
2, 143852, Note_off_c, 0, 82, 100
2, 143856, Note_on_c, 0, 82, 110
2, 143900, Note_off_c, 0, 81, 100
2, 143904, Note_on_c, 0, 81, 110
2, 143948, Note_off_c, 0, 82, 100
2, 143952, Note_on_c, 0, 82, 110
2, 143996, Note_off_c, 0, 72, 100
2, 143996, Note_off_c, 0, 81, 100
2, 144000, Note_on_c, 0, 81, 110
2, 144000, Note_on_c, 0, 77, 110
2, 144044, Note_off_c, 0, 82, 64
2, 144048, Note_on_c, 0, 82, 110
2, 144080, Note_off_c, 0, 81, 100
2, 144096, Note_on_c, 0, 81, 110
2, 144140, Note_off_c, 0, 82, 100
2, 144144, Note_on_c, 0, 82, 110
2, 144188, Note_off_c, 0, 77, 100
2, 144188, Note_off_c, 0, 81, 100
2, 144192, Note_on_c, 0, 81, 110
2, 144192, Note_on_c, 0, 75, 110
2, 144236, Note_off_c, 0, 82, 100
2, 144240, Note_on_c, 0, 82, 110
2, 144284, Note_off_c, 0, 81, 100
2, 144288, Note_on_c, 0, 81, 110
2, 144332, Note_off_c, 0, 82, 100
2, 144336, Note_on_c, 0, 82, 110
2, 144380, Note_off_c, 0, 75, 100
2, 144380, Note_off_c, 0, 81, 100
2, 144384, Note_on_c, 0, 81, 110
2, 144384, Note_on_c, 0, 73, 110
2, 144428, Note_off_c, 0, 82, 100
2, 144432, Note_on_c, 0, 82, 110
2, 144476, Note_off_c, 0, 81, 100
2, 144480, Note_on_c, 0, 81, 110
2, 144524, Note_off_c, 0, 82, 100
2, 144528, Note_on_c, 0, 82, 110
2, 144572, Note_off_c, 0, 73, 100
2, 144572, Note_off_c, 0, 81, 100
2, 144576, Note_on_c, 0, 81, 110
2, 144576, Note_on_c, 0, 72, 110
2, 144620, Note_off_c, 0, 82, 100
2, 144624, Note_on_c, 0, 82, 110
2, 144668, Note_off_c, 0, 81, 100
2, 144672, Note_on_c, 0, 81, 110
2, 144716, Note_off_c, 0, 82, 100
2, 144720, Note_on_c, 0, 82, 110
2, 144764, Note_off_c, 0, 51, 100
2, 144764, Note_off_c, 0, 72, 100
2, 144764, Note_off_c, 0, 81, 100
2, 144768, Note_on_c, 0, 81, 110
2, 144768, Note_on_c, 0, 78, 110
2, 144812, Note_off_c, 0, 82, 100
2, 144816, Note_on_c, 0, 82, 110
2, 144860, Note_off_c, 0, 81, 100
2, 144864, Note_on_c, 0, 81, 110
2, 144908, Note_off_c, 0, 82, 100
2, 144912, Note_on_c, 0, 82, 110
2, 144956, Note_off_c, 0, 78, 100
2, 144956, Note_off_c, 0, 81, 100
2, 144960, Note_on_c, 0, 81, 110
2, 144960, Note_on_c, 0, 72, 110
2, 145004, Note_off_c, 0, 82, 100
2, 145008, Note_on_c, 0, 82, 110
2, 145052, Note_off_c, 0, 81, 100
2, 145056, Note_on_c, 0, 79, 110
2, 145100, Note_off_c, 0, 82, 100
2, 145104, Note_on_c, 0, 81, 110
2, 145148, Note_off_c, 0, 72, 100
2, 145148, Note_off_c, 0, 79, 100
2, 145152, Note_on_c, 0, 82, 110
2, 145152, Note_on_c, 0, 75, 110
2, 145196, Note_off_c, 0, 81, 64
2, 145200, Note_on_c, 0, 77, 110
2, 145244, Note_off_c, 0, 75, 100
2, 145248, Note_on_c, 0, 75, 110
2, 145292, Note_off_c, 0, 77, 100
2, 145296, Note_on_c, 0, 77, 110
2, 145340, Note_off_c, 0, 75, 100
2, 145344, Note_on_c, 0, 75, 110
2, 145388, Note_off_c, 0, 77, 100
2, 145392, Note_on_c, 0, 77, 110
2, 145436, Note_off_c, 0, 75, 100
2, 145440, Note_on_c, 0, 75, 110
2, 145484, Note_off_c, 0, 77, 100
2, 145488, Note_on_c, 0, 77, 110
2, 145532, Note_off_c, 0, 75, 100
2, 145536, Note_on_c, 0, 75, 110
2, 145580, Note_off_c, 0, 77, 100
2, 145584, Note_on_c, 0, 77, 110
2, 145628, Note_off_c, 0, 75, 100
2, 145632, Note_on_c, 0, 75, 110
2, 145676, Note_off_c, 0, 77, 100
2, 145680, Note_on_c, 0, 77, 110
2, 145724, Note_off_c, 0, 75, 100
2, 145728, Note_on_c, 0, 75, 110
2, 145772, Note_off_c, 0, 77, 100
2, 145776, Note_on_c, 0, 77, 110
2, 145820, Note_off_c, 0, 75, 100
2, 145824, Note_on_c, 0, 75, 110
2, 145868, Note_off_c, 0, 77, 100
2, 145872, Note_on_c, 0, 77, 110
2, 145916, Note_off_c, 0, 75, 100
2, 145920, Note_on_c, 0, 75, 110
2, 145964, Note_off_c, 0, 77, 100
2, 145968, Note_on_c, 0, 77, 110
2, 146012, Note_off_c, 0, 75, 100
2, 146016, Note_on_c, 0, 75, 110
2, 146060, Note_off_c, 0, 77, 100
2, 146064, Note_on_c, 0, 77, 110
2, 146108, Note_off_c, 0, 75, 100
2, 146112, Note_on_c, 0, 75, 110
2, 146156, Note_off_c, 0, 77, 100
2, 146160, Note_on_c, 0, 77, 110
2, 146204, Note_off_c, 0, 75, 100
2, 146208, Note_on_c, 0, 73, 110
2, 146252, Note_off_c, 0, 77, 100
2, 146256, Note_on_c, 0, 75, 110
2, 146300, Note_off_c, 0, 82, 100
2, 146300, Note_off_c, 0, 73, 100
2, 146304, Note_on_c, 0, 82, 110
2, 146304, Note_on_c, 0, 73, 110
2, 146336, Note_off_c, 0, 75, 100
2, 146492, Note_off_c, 0, 82, 100
2, 146492, Note_off_c, 0, 73, 100
2, 146496, Note_on_c, 0, 80, 110
2, 146496, Note_on_c, 0, 72, 110
2, 146684, Note_off_c, 0, 80, 100
2, 146684, Note_off_c, 0, 72, 100
2, 146688, Note_on_c, 0, 78, 110
2, 146688, Note_on_c, 0, 70, 110
2, 146876, Note_off_c, 0, 78, 100
2, 146876, Note_off_c, 0, 70, 100
2, 146880, Note_on_c, 0, 77, 110
2, 146880, Note_on_c, 0, 68, 110
2, 147068, Note_off_c, 0, 77, 100
2, 147068, Note_off_c, 0, 68, 100
2, 147072, Note_on_c, 0, 75, 110
2, 147072, Note_on_c, 0, 66, 110
2, 147260, Note_off_c, 0, 75, 100
2, 147260, Note_off_c, 0, 66, 100
2, 147264, Note_on_c, 0, 73, 110
2, 147264, Note_on_c, 0, 65, 110
2, 147452, Note_off_c, 0, 73, 100
2, 147452, Note_off_c, 0, 65, 100
2, 147456, Note_on_c, 0, 78, 110
2, 147456, Note_on_c, 0, 75, 110
2, 147644, Note_off_c, 0, 75, 100
2, 147648, Note_on_c, 0, 63, 110
2, 147836, Note_off_c, 0, 63, 100
2, 147840, Note_on_c, 0, 65, 110
2, 148028, Note_off_c, 0, 65, 100
2, 148032, Note_on_c, 0, 66, 110
2, 148220, Note_off_c, 0, 78, 100
2, 148220, Note_off_c, 0, 66, 100
2, 148224, Note_on_c, 0, 68, 110
2, 148412, Note_off_c, 0, 68, 100
2, 148416, Note_on_c, 0, 70, 110
2, 148608, Note_on_c, 0, 78, 110
2, 148796, Note_off_c, 0, 70, 100
2, 148796, Note_off_c, 0, 78, 100
2, 148800, Note_on_c, 0, 77, 110
2, 148800, Note_on_c, 0, 68, 110
2, 148988, Note_off_c, 0, 77, 100
2, 148988, Note_off_c, 0, 68, 100
2, 148992, Note_on_c, 0, 75, 110
2, 148992, Note_on_c, 0, 66, 110
2, 149180, Note_off_c, 0, 75, 100
2, 149180, Note_off_c, 0, 66, 100
2, 149184, Note_on_c, 0, 73, 110
2, 149184, Note_on_c, 0, 65, 110
2, 149372, Note_off_c, 0, 73, 100
2, 149372, Note_off_c, 0, 65, 100
2, 149376, Note_on_c, 0, 76, 110
2, 149376, Note_on_c, 0, 79, 110
2, 149468, Note_off_c, 0, 79, 100
2, 149472, Note_on_c, 0, 85, 110
2, 149564, Note_off_c, 0, 85, 100
2, 149568, Note_on_c, 0, 82, 110
2, 149660, Note_off_c, 0, 82, 100
2, 149664, Note_on_c, 0, 79, 110
2, 149756, Note_off_c, 0, 76, 100
2, 149756, Note_off_c, 0, 79, 100
2, 149760, Note_on_c, 0, 76, 110
2, 149852, Note_off_c, 0, 76, 100
2, 149856, Note_on_c, 0, 82, 110
2, 149948, Note_off_c, 0, 82, 100
2, 149952, Note_on_c, 0, 79, 110
2, 150044, Note_off_c, 0, 79, 100
2, 150048, Note_on_c, 0, 76, 110
2, 150140, Note_off_c, 0, 76, 100
2, 150144, Note_on_c, 0, 73, 110
2, 150236, Note_off_c, 0, 73, 100
2, 150240, Note_on_c, 0, 79, 110
2, 150332, Note_off_c, 0, 79, 100
2, 150336, Note_on_c, 0, 76, 110
2, 150428, Note_off_c, 0, 76, 100
2, 150432, Note_on_c, 0, 73, 110
2, 150524, Note_off_c, 0, 73, 100
2, 150528, Note_on_c, 0, 72, 110
2, 150528, Note_on_c, 0, 70, 110
2, 150620, Note_off_c, 0, 72, 100
2, 150624, Note_on_c, 0, 79, 110
2, 150716, Note_off_c, 0, 79, 100
2, 150720, Note_on_c, 0, 76, 110
2, 150812, Note_off_c, 0, 76, 100
2, 150816, Note_on_c, 0, 72, 110
2, 150908, Note_off_c, 0, 72, 100
2, 150912, Note_on_c, 0, 73, 110
2, 151004, Note_off_c, 0, 73, 100
2, 151008, Note_on_c, 0, 82, 110
2, 151100, Note_off_c, 0, 82, 100
2, 151104, Note_on_c, 0, 79, 110
2, 151196, Note_off_c, 0, 79, 100
2, 151200, Note_on_c, 0, 76, 110
2, 151292, Note_off_c, 0, 76, 100
2, 151296, Note_on_c, 0, 72, 110
2, 151676, Note_off_c, 0, 70, 100
2, 151676, Note_off_c, 0, 72, 100
2, 152064, Note_on_c, 0, 82, 126
2, 152828, Note_off_c, 0, 82, 100
2, 152832, Note_on_c, 0, 67, 110
2, 152832, Note_on_c, 0, 58, 110
2, 152880, Note_on_c, 0, 68, 110
2, 152912, Note_off_c, 0, 67, 100
2, 152928, Note_on_c, 0, 67, 110
2, 152960, Note_off_c, 0, 68, 100
2, 152976, Note_on_c, 0, 68, 110
2, 153008, Note_off_c, 0, 67, 100
2, 153024, Note_on_c, 0, 67, 110
2, 153056, Note_off_c, 0, 68, 100
2, 153072, Note_on_c, 0, 68, 110
2, 153104, Note_off_c, 0, 67, 100
2, 153120, Note_on_c, 0, 67, 110
2, 153152, Note_off_c, 0, 68, 100
2, 153168, Note_on_c, 0, 68, 110
2, 153200, Note_off_c, 0, 67, 100
2, 153216, Note_on_c, 0, 67, 110
2, 153248, Note_off_c, 0, 68, 100
2, 153264, Note_on_c, 0, 68, 110
2, 153296, Note_off_c, 0, 67, 100
2, 153312, Note_on_c, 0, 67, 110
2, 153344, Note_off_c, 0, 68, 100
2, 153360, Note_on_c, 0, 68, 110
2, 153392, Note_off_c, 0, 67, 100
2, 153408, Note_on_c, 0, 67, 110
2, 153440, Note_off_c, 0, 68, 100
2, 153456, Note_on_c, 0, 68, 110
2, 153488, Note_off_c, 0, 67, 100
2, 153504, Note_on_c, 0, 67, 110
2, 153536, Note_off_c, 0, 68, 100
2, 153552, Note_on_c, 0, 68, 110
2, 153584, Note_off_c, 0, 67, 100
2, 153600, Note_on_c, 0, 67, 110
2, 153632, Note_off_c, 0, 68, 100
2, 153648, Note_on_c, 0, 68, 110
2, 153680, Note_off_c, 0, 67, 100
2, 153696, Note_on_c, 0, 67, 110
2, 153728, Note_off_c, 0, 68, 100
2, 153744, Note_on_c, 0, 68, 110
2, 153776, Note_off_c, 0, 67, 100
2, 153792, Note_on_c, 0, 67, 110
2, 153824, Note_off_c, 0, 68, 100
2, 153840, Note_on_c, 0, 68, 110
2, 153872, Note_off_c, 0, 67, 100
2, 153888, Note_on_c, 0, 67, 110
2, 153920, Note_off_c, 0, 68, 100
2, 153936, Note_on_c, 0, 68, 110
2, 153960, Note_on_c, 0, 60, 110
2, 153968, Note_off_c, 0, 67, 100
2, 153980, Note_off_c, 0, 58, 100
2, 153984, Note_on_c, 0, 65, 110
2, 154016, Note_off_c, 0, 68, 100
2, 154148, Note_off_c, 0, 60, 100
2, 154176, Note_on_c, 0, 75, 126
2, 154364, Note_off_c, 0, 65, 100
2, 155132, Note_off_c, 0, 75, 100
2, 155520, Note_on_c, 0, 87, 127
2, 156284, Note_off_c, 0, 87, 100
2, 156288, Note_on_c, 0, 63, 110
2, 156288, Note_on_c, 0, 72, 110
2, 156336, Note_on_c, 0, 73, 110
2, 156368, Note_off_c, 0, 72, 100
2, 156384, Note_on_c, 0, 72, 110
2, 156416, Note_off_c, 0, 73, 100
2, 156432, Note_on_c, 0, 73, 110
2, 156464, Note_off_c, 0, 72, 100
2, 156480, Note_on_c, 0, 72, 110
2, 156512, Note_off_c, 0, 73, 100
2, 156528, Note_on_c, 0, 73, 110
2, 156560, Note_off_c, 0, 72, 100
2, 156576, Note_on_c, 0, 72, 110
2, 156608, Note_off_c, 0, 73, 100
2, 156624, Note_on_c, 0, 73, 110
2, 156656, Note_off_c, 0, 72, 100
2, 156672, Note_on_c, 0, 72, 110
2, 156704, Note_off_c, 0, 73, 100
2, 156720, Note_on_c, 0, 73, 110
2, 156752, Note_off_c, 0, 72, 100
2, 156768, Note_on_c, 0, 72, 110
2, 156800, Note_off_c, 0, 73, 100
2, 156816, Note_on_c, 0, 73, 110
2, 156848, Note_off_c, 0, 72, 100
2, 156864, Note_on_c, 0, 72, 110
2, 156896, Note_off_c, 0, 73, 100
2, 156912, Note_on_c, 0, 73, 110
2, 156944, Note_off_c, 0, 72, 100
2, 156960, Note_on_c, 0, 72, 110
2, 156992, Note_off_c, 0, 73, 100
2, 157008, Note_on_c, 0, 73, 110
2, 157040, Note_off_c, 0, 72, 100
2, 157052, Note_off_c, 0, 63, 100
2, 157056, Note_on_c, 0, 72, 110
2, 157056, Note_on_c, 0, 64, 110
2, 157088, Note_off_c, 0, 73, 100
2, 157104, Note_on_c, 0, 73, 110
2, 157136, Note_off_c, 0, 72, 100
2, 157152, Note_on_c, 0, 72, 110
2, 157184, Note_off_c, 0, 73, 100
2, 157200, Note_on_c, 0, 73, 110
2, 157232, Note_off_c, 0, 72, 100
2, 157248, Note_on_c, 0, 72, 110
2, 157280, Note_off_c, 0, 73, 100
2, 157296, Note_on_c, 0, 73, 110
2, 157328, Note_off_c, 0, 72, 100
2, 157344, Note_on_c, 0, 72, 110
2, 157376, Note_off_c, 0, 73, 100
2, 157392, Note_on_c, 0, 73, 110
2, 157424, Note_off_c, 0, 72, 100
2, 157436, Note_off_c, 0, 64, 100
2, 157440, Note_on_c, 0, 70, 110
2, 157440, Note_on_c, 0, 65, 110
2, 157472, Note_off_c, 0, 73, 100
2, 157628, Note_off_c, 0, 65, 100
2, 157632, Note_on_c, 0, 73, 110
2, 157820, Note_off_c, 0, 70, 100
2, 158588, Note_off_c, 0, 73, 100
2, 158592, Note_on_c, 0, 85, 127
2, 158976, Key_signature, -4, "major"
2, 159740, Note_off_c, 0, 85, 100
2, 159744, Note_on_c, 0, 61, 110
2, 159744, Note_on_c, 0, 70, 110
2, 159792, Note_on_c, 0, 72, 110
2, 159824, Note_off_c, 0, 70, 100
2, 159840, Note_on_c, 0, 70, 110
2, 159872, Note_off_c, 0, 72, 100
2, 159888, Note_on_c, 0, 72, 110
2, 159920, Note_off_c, 0, 70, 100
2, 159936, Note_on_c, 0, 70, 110
2, 159968, Note_off_c, 0, 72, 100
2, 159984, Note_on_c, 0, 72, 110
2, 160016, Note_off_c, 0, 70, 100
2, 160032, Note_on_c, 0, 70, 110
2, 160064, Note_off_c, 0, 72, 100
2, 160080, Note_on_c, 0, 72, 110
2, 160112, Note_off_c, 0, 70, 100
2, 160128, Note_on_c, 0, 70, 110
2, 160160, Note_off_c, 0, 72, 100
2, 160176, Note_on_c, 0, 72, 110
2, 160208, Note_off_c, 0, 70, 100
2, 160224, Note_on_c, 0, 70, 110
2, 160256, Note_off_c, 0, 72, 100
2, 160272, Note_on_c, 0, 72, 109
2, 160304, Note_off_c, 0, 70, 100
2, 160320, Note_on_c, 0, 70, 109
2, 160352, Note_off_c, 0, 72, 100
2, 160368, Note_on_c, 0, 72, 109
2, 160400, Note_off_c, 0, 70, 100
2, 160416, Note_on_c, 0, 70, 108
2, 160448, Note_off_c, 0, 72, 100
2, 160464, Note_on_c, 0, 72, 108
2, 160496, Note_off_c, 0, 70, 100
2, 160512, Note_on_c, 0, 70, 108
2, 160544, Note_off_c, 0, 72, 100
2, 160560, Note_on_c, 0, 72, 107
2, 160592, Note_off_c, 0, 70, 100
2, 160608, Note_on_c, 0, 70, 107
2, 160640, Note_off_c, 0, 72, 100
2, 160656, Note_on_c, 0, 72, 107
2, 160688, Note_off_c, 0, 70, 100
2, 160704, Note_on_c, 0, 70, 106
2, 160736, Note_off_c, 0, 72, 100
2, 160752, Note_on_c, 0, 72, 106
2, 160784, Note_off_c, 0, 70, 100
2, 160800, Note_on_c, 0, 70, 106
2, 160832, Note_off_c, 0, 72, 100
2, 160848, Note_on_c, 0, 72, 105
2, 160880, Note_off_c, 0, 70, 100
2, 160892, Note_off_c, 0, 61, 100
2, 160896, Note_on_c, 0, 67, 105
2, 160896, Note_on_c, 0, 70, 105
2, 160928, Note_off_c, 0, 72, 100
2, 160944, Note_on_c, 0, 72, 105
2, 160976, Note_off_c, 0, 70, 100
2, 160992, Note_on_c, 0, 70, 104
2, 161024, Note_off_c, 0, 72, 100
2, 161040, Note_on_c, 0, 72, 104
2, 161072, Note_off_c, 0, 70, 100
2, 161088, Note_on_c, 0, 70, 104
2, 161120, Note_off_c, 0, 72, 100
2, 161136, Note_on_c, 0, 72, 103
2, 161168, Note_off_c, 0, 70, 100
2, 161184, Note_on_c, 0, 70, 103
2, 161216, Note_off_c, 0, 72, 100
2, 161232, Note_on_c, 0, 72, 103
2, 161264, Note_off_c, 0, 70, 100
2, 161280, Note_on_c, 0, 70, 102
2, 161312, Note_off_c, 0, 72, 100
2, 161328, Note_on_c, 0, 72, 102
2, 161360, Note_off_c, 0, 70, 100
2, 161376, Note_on_c, 0, 70, 102
2, 161408, Note_off_c, 0, 72, 100
2, 161424, Note_on_c, 0, 72, 101
2, 161456, Note_off_c, 0, 70, 100
2, 161468, Note_off_c, 0, 67, 100
2, 161472, Note_on_c, 0, 65, 101
2, 161472, Note_on_c, 0, 70, 101
2, 161504, Note_off_c, 0, 72, 100
2, 161520, Note_on_c, 0, 72, 101
2, 161552, Note_off_c, 0, 70, 100
2, 161568, Note_on_c, 0, 70, 101
2, 161600, Note_off_c, 0, 72, 100
2, 161616, Note_on_c, 0, 72, 100
2, 161648, Note_off_c, 0, 70, 100
2, 161660, Note_off_c, 0, 65, 100
2, 161664, Note_on_c, 0, 63, 100
2, 161664, Note_on_c, 0, 70, 100
2, 161696, Note_off_c, 0, 72, 100
2, 161712, Note_on_c, 0, 72, 100
2, 161744, Note_off_c, 0, 70, 100
2, 161760, Note_on_c, 0, 70, 99
2, 161792, Note_off_c, 0, 72, 100
2, 161808, Note_on_c, 0, 72, 99
2, 161840, Note_off_c, 0, 70, 100
2, 161852, Note_off_c, 0, 63, 100
2, 161856, Note_on_c, 0, 61, 99
2, 161856, Note_on_c, 0, 70, 99
2, 161888, Note_off_c, 0, 72, 100
2, 161904, Note_on_c, 0, 72, 98
2, 161936, Note_off_c, 0, 70, 100
2, 161952, Note_on_c, 0, 69, 98
2, 161984, Note_off_c, 0, 72, 100
2, 162000, Note_on_c, 0, 70, 98
2, 162032, Note_off_c, 0, 69, 100
2, 162044, Note_off_c, 0, 61, 100
2, 162048, Note_on_c, 0, 60, 97
2, 162048, Note_on_c, 0, 77, 97
2, 162080, Note_off_c, 0, 70, 100
2, 162236, Note_off_c, 0, 60, 100
2, 162240, Note_on_c, 0, 61, 96
2, 162428, Note_off_c, 0, 61, 100
2, 162432, Note_on_c, 0, 58, 95
2, 162620, Note_off_c, 0, 77, 100
2, 162620, Note_off_c, 0, 58, 100
2, 162624, Note_on_c, 0, 75, 93
2, 162624, Note_on_c, 0, 60, 93
2, 162812, Note_off_c, 0, 75, 100
2, 162812, Note_off_c, 0, 60, 100
2, 162816, Note_on_c, 0, 73, 92
2, 162816, Note_on_c, 0, 58, 92
2, 163004, Note_off_c, 0, 73, 100
2, 163004, Note_off_c, 0, 58, 100
2, 163008, Note_on_c, 0, 72, 91
2, 163008, Note_on_c, 0, 56, 91
2, 163196, Note_off_c, 0, 72, 100
2, 163196, Note_off_c, 0, 56, 100
2, 163200, Note_on_c, 0, 71, 90
2, 163200, Note_on_c, 0, 67, 90
2, 163388, Note_off_c, 0, 71, 100
2, 163388, Note_off_c, 0, 67, 100
2, 163392, Note_on_c, 0, 72, 88
2, 163392, Note_on_c, 0, 68, 88
2, 163580, Note_off_c, 0, 72, 100
2, 163580, Note_off_c, 0, 68, 100
2, 163584, Note_on_c, 0, 75, 87
2, 163584, Note_on_c, 0, 68, 87
2, 163772, Note_off_c, 0, 75, 100
2, 163772, Note_off_c, 0, 68, 100
2, 163776, Note_on_c, 0, 73, 86
2, 163776, Note_on_c, 0, 70, 86
2, 163964, Note_off_c, 0, 73, 100
2, 163964, Note_off_c, 0, 70, 100
2, 163968, Note_on_c, 0, 72, 84
2, 163968, Note_on_c, 0, 63, 84
2, 164156, Note_off_c, 0, 72, 100
2, 164156, Note_off_c, 0, 63, 100
2, 164160, Note_on_c, 0, 70, 83
2, 164160, Note_on_c, 0, 61, 83
2, 164348, Note_off_c, 0, 70, 100
2, 164352, Note_on_c, 0, 68, 82
2, 164540, Note_off_c, 0, 61, 100
2, 164540, Note_off_c, 0, 68, 100
2, 164544, Note_on_c, 0, 70, 81
2, 164544, Note_on_c, 0, 61, 81
2, 164732, Note_off_c, 0, 70, 100
2, 164924, Note_off_c, 0, 61, 100
2, 164928, Note_on_c, 0, 60, 80
2, 165116, Note_off_c, 0, 60, 100
2, 165216, Note_on_c, 0, 80, 80
2, 165308, Note_off_c, 0, 80, 100
2, 165312, Note_on_c, 0, 79, 80
2, 165404, Note_off_c, 0, 79, 100
2, 165408, Note_on_c, 0, 77, 80
2, 165500, Note_off_c, 0, 77, 100
2, 165504, Note_on_c, 0, 75, 80
2, 165600, Note_on_c, 0, 70, 80
2, 165692, Note_off_c, 0, 75, 100
2, 165692, Note_off_c, 0, 70, 100
2, 165696, Note_on_c, 0, 79, 80
2, 165696, Note_on_c, 0, 72, 80
2, 165788, Note_off_c, 0, 72, 100
2, 165792, Note_on_c, 0, 73, 80
2, 165884, Note_off_c, 0, 79, 100
2, 165884, Note_off_c, 0, 73, 100
2, 165888, Note_on_c, 0, 80, 80
2, 165888, Note_on_c, 0, 72, 80
2, 165980, Note_off_c, 0, 72, 100
2, 165984, Note_on_c, 0, 60, 80
2, 166076, Note_off_c, 0, 80, 100
2, 166076, Note_off_c, 0, 60, 100
2, 166080, Note_on_c, 0, 63, 81
2, 166172, Note_off_c, 0, 63, 100
2, 166176, Note_on_c, 0, 68, 82
2, 166268, Note_off_c, 0, 68, 100
2, 166272, Note_on_c, 0, 72, 83
2, 166368, Note_on_c, 0, 84, 84
2, 166460, Note_off_c, 0, 72, 100
2, 166460, Note_off_c, 0, 84, 100
2, 166464, Note_on_c, 0, 73, 85
2, 166464, Note_on_c, 0, 82, 85
2, 166556, Note_off_c, 0, 82, 100
2, 166560, Note_on_c, 0, 80, 86
2, 166652, Note_off_c, 0, 73, 100
2, 166652, Note_off_c, 0, 80, 100
2, 166656, Note_on_c, 0, 75, 86
2, 166656, Note_on_c, 0, 79, 86
2, 167036, Note_off_c, 0, 79, 100
2, 167040, Note_on_c, 0, 80, 90
2, 167132, Note_off_c, 0, 80, 100
2, 167136, Note_on_c, 0, 72, 91
2, 167228, Note_off_c, 0, 75, 100
2, 167228, Note_off_c, 0, 72, 100
2, 167232, Note_on_c, 0, 75, 92
2, 167324, Note_off_c, 0, 75, 100
2, 167328, Note_on_c, 0, 80, 93
2, 167420, Note_off_c, 0, 80, 100
2, 167424, Note_on_c, 0, 84, 93
2, 167612, Note_off_c, 0, 84, 100
2, 167616, Note_on_c, 0, 85, 95
2, 167804, Note_off_c, 0, 85, 100
2, 167808, Note_on_c, 0, 87, 97
2, 168188, Note_off_c, 0, 87, 100
2, 168288, Note_on_c, 0, 72, 100
2, 168380, Note_off_c, 0, 72, 100
2, 168384, Note_on_c, 0, 70, 100
2, 168476, Note_off_c, 0, 70, 100
2, 168480, Note_on_c, 0, 68, 100
2, 168572, Note_off_c, 0, 68, 100
2, 168576, Note_on_c, 0, 67, 100
2, 168956, Note_off_c, 0, 67, 100
2, 168960, Note_on_c, 0, 68, 100
2, 169340, Note_off_c, 0, 68, 100
2, 169440, Note_on_c, 0, 68, 100
2, 169532, Note_off_c, 0, 68, 100
2, 169536, Note_on_c, 0, 72, 100
2, 169628, Note_off_c, 0, 72, 100
2, 169632, Note_on_c, 0, 77, 100
2, 169724, Note_off_c, 0, 77, 100
2, 169728, Note_on_c, 0, 80, 100
2, 169824, Note_on_c, 0, 77, 100
2, 169916, Note_off_c, 0, 80, 100
2, 169916, Note_off_c, 0, 77, 100
2, 169920, Note_on_c, 0, 82, 100
2, 169920, Note_on_c, 0, 75, 100
2, 170012, Note_off_c, 0, 75, 100
2, 170016, Note_on_c, 0, 73, 100
2, 170108, Note_off_c, 0, 82, 100
2, 170108, Note_off_c, 0, 73, 100
2, 170112, Note_on_c, 0, 84, 100
2, 170112, Note_on_c, 0, 72, 100
2, 170588, Note_off_c, 0, 72, 100
2, 170592, Note_on_c, 0, 68, 100
2, 170684, Note_off_c, 0, 68, 100
2, 170688, Note_on_c, 0, 67, 100
2, 170780, Note_off_c, 0, 67, 100
2, 170784, Note_on_c, 0, 65, 100
2, 170876, Note_off_c, 0, 84, 100
2, 170876, Note_off_c, 0, 65, 100
2, 170880, Note_on_c, 0, 68, 100
2, 170976, Note_on_c, 0, 80, 100
2, 171068, Note_off_c, 0, 80, 100
2, 171072, Note_on_c, 0, 79, 100
2, 171164, Note_off_c, 0, 79, 100
2, 171168, Note_on_c, 0, 77, 100
2, 171260, Note_off_c, 0, 77, 100
2, 171264, Note_on_c, 0, 76, 100
2, 171356, Note_off_c, 0, 68, 100
2, 171360, Note_on_c, 0, 72, 100
2, 171452, Note_off_c, 0, 76, 100
2, 171452, Note_off_c, 0, 72, 100
2, 171456, Note_on_c, 0, 70, 100
2, 171456, Note_on_c, 0, 77, 100
2, 171548, Note_off_c, 0, 70, 100
2, 171552, Note_on_c, 0, 68, 100
2, 171644, Note_off_c, 0, 77, 100
2, 171644, Note_off_c, 0, 68, 100
2, 171648, Note_on_c, 0, 80, 100
2, 171836, Note_off_c, 0, 80, 100
2, 171840, Note_on_c, 0, 82, 100
2, 172028, Note_off_c, 0, 82, 100
2, 172032, Note_on_c, 0, 84, 100
2, 172128, Note_on_c, 0, 72, 100
2, 172220, Note_off_c, 0, 72, 100
2, 172224, Note_on_c, 0, 74, 100
2, 172316, Note_off_c, 0, 74, 100
2, 172320, Note_on_c, 0, 76, 100
2, 172412, Note_off_c, 0, 76, 100
2, 172416, Note_on_c, 0, 77, 100
2, 172508, Note_off_c, 0, 84, 100
2, 172512, Note_on_c, 0, 80, 100
2, 172604, Note_off_c, 0, 80, 100
2, 172608, Note_on_c, 0, 79, 100
2, 172700, Note_off_c, 0, 79, 100
2, 172704, Note_on_c, 0, 77, 100
2, 172796, Note_off_c, 0, 77, 100
2, 172796, Note_off_c, 0, 77, 100
2, 172800, Note_on_c, 0, 81, 100
2, 172988, Note_off_c, 0, 81, 100
2, 172992, Note_on_c, 0, 82, 100
2, 173180, Note_off_c, 0, 82, 100
2, 173184, Note_on_c, 0, 84, 100
2, 173280, Note_on_c, 0, 72, 100
2, 173372, Note_off_c, 0, 72, 100
2, 173376, Note_on_c, 0, 74, 100
2, 173468, Note_off_c, 0, 74, 100
2, 173472, Note_on_c, 0, 76, 100
2, 173564, Note_off_c, 0, 76, 100
2, 173568, Note_on_c, 0, 77, 100
2, 173660, Note_off_c, 0, 84, 100
2, 173664, Note_on_c, 0, 81, 100
2, 173756, Note_off_c, 0, 81, 100
2, 173760, Note_on_c, 0, 79, 100
2, 173852, Note_off_c, 0, 79, 100
2, 173856, Note_on_c, 0, 77, 100
2, 173948, Note_off_c, 0, 77, 100
2, 173948, Note_off_c, 0, 77, 100
2, 173952, Note_on_c, 0, 82, 100
2, 174140, Note_off_c, 0, 82, 100
2, 174144, Note_on_c, 0, 84, 100
2, 174332, Note_off_c, 0, 84, 100
2, 174336, Note_on_c, 0, 85, 100
2, 174432, Note_on_c, 0, 77, 100
2, 174524, Note_off_c, 0, 77, 100
2, 174528, Note_on_c, 0, 79, 100
2, 174620, Note_off_c, 0, 79, 100
2, 174624, Note_on_c, 0, 81, 100
2, 174716, Note_off_c, 0, 81, 100
2, 174720, Note_on_c, 0, 82, 100
2, 174812, Note_off_c, 0, 85, 100
2, 174816, Note_on_c, 0, 82, 100
2, 174908, Note_off_c, 0, 82, 100
2, 174912, Note_on_c, 0, 78, 100
2, 175004, Note_off_c, 0, 78, 100
2, 175008, Note_on_c, 0, 77, 100
2, 175100, Note_off_c, 0, 82, 100
2, 175100, Note_off_c, 0, 77, 100
2, 175104, Note_on_c, 0, 81, 100
2, 175104, Note_on_c, 0, 75, 100
2, 175292, Note_off_c, 0, 75, 100
2, 175296, Note_on_c, 0, 77, 100
2, 175484, Note_off_c, 0, 81, 100
2, 175484, Note_off_c, 0, 77, 100
2, 175488, Note_on_c, 0, 78, 100
2, 175584, Note_on_c, 0, 81, 100
2, 175676, Note_off_c, 0, 81, 100
2, 175680, Note_on_c, 0, 84, 100
2, 175772, Note_off_c, 0, 84, 100
2, 175776, Note_on_c, 0, 85, 100
2, 175868, Note_off_c, 0, 85, 100
2, 175872, Note_on_c, 0, 87, 100
2, 175964, Note_off_c, 0, 78, 100
2, 175968, Note_on_c, 0, 75, 100
2, 176060, Note_off_c, 0, 75, 100
2, 176064, Note_on_c, 0, 73, 100
2, 176156, Note_off_c, 0, 73, 100
2, 176160, Note_on_c, 0, 72, 100
2, 176252, Note_off_c, 0, 87, 100
2, 176252, Note_off_c, 0, 72, 100
2, 176256, Note_on_c, 0, 77, 100
2, 176348, Note_off_c, 0, 77, 100
2, 176352, Note_on_c, 0, 82, 100
2, 176444, Note_off_c, 0, 82, 100
2, 176448, Note_on_c, 0, 81, 100
2, 176540, Note_off_c, 0, 81, 100
2, 176544, Note_on_c, 0, 79, 100
2, 176636, Note_off_c, 0, 79, 100
2, 176640, Note_on_c, 0, 77, 100
2, 176732, Note_off_c, 0, 77, 100
2, 176736, Note_on_c, 0, 75, 100
2, 176828, Note_off_c, 0, 75, 100
2, 176832, Note_on_c, 0, 74, 100
2, 176924, Note_off_c, 0, 74, 100
2, 176928, Note_on_c, 0, 72, 100
2, 177020, Note_off_c, 0, 72, 100
2, 177024, Note_on_c, 0, 70, 100
2, 177024, Note_on_c, 0, 74, 100
2, 177116, Note_off_c, 0, 74, 100
2, 177120, Note_on_c, 0, 77, 100
2, 177212, Note_off_c, 0, 77, 100
2, 177216, Note_on_c, 0, 78, 100
2, 177308, Note_off_c, 0, 78, 100
2, 177312, Note_on_c, 0, 80, 100
2, 177404, Note_off_c, 0, 80, 100
2, 177408, Note_on_c, 0, 79, 100
2, 177500, Note_off_c, 0, 79, 100
2, 177504, Note_on_c, 0, 82, 100
2, 177596, Note_off_c, 0, 70, 100
2, 177596, Note_off_c, 0, 82, 100
2, 177600, Note_on_c, 0, 80, 100
2, 177692, Note_off_c, 0, 80, 100
2, 177696, Note_on_c, 0, 79, 100
2, 177788, Note_off_c, 0, 79, 100
2, 177792, Note_on_c, 0, 77, 100
2, 177884, Note_off_c, 0, 77, 100
2, 177888, Note_on_c, 0, 75, 100
2, 177980, Note_off_c, 0, 75, 100
2, 177984, Note_on_c, 0, 74, 100
2, 177984, Note_on_c, 0, 63, 100
2, 178076, Note_off_c, 0, 74, 100
2, 178080, Note_on_c, 0, 72, 100
2, 178172, Note_off_c, 0, 72, 100
2, 178176, Note_on_c, 0, 70, 100
2, 178268, Note_off_c, 0, 63, 100
2, 178272, Note_on_c, 0, 67, 100
2, 178364, Note_off_c, 0, 67, 100
2, 178368, Note_on_c, 0, 68, 100
2, 178460, Note_off_c, 0, 68, 100
2, 178464, Note_on_c, 0, 70, 100
2, 178556, Note_off_c, 0, 70, 100
2, 178556, Note_off_c, 0, 70, 100
2, 178560, Note_on_c, 0, 63, 100
2, 178652, Note_off_c, 0, 63, 100
2, 178656, Note_on_c, 0, 75, 100
2, 178748, Note_off_c, 0, 75, 100
2, 178752, Note_on_c, 0, 73, 100
2, 178844, Note_off_c, 0, 73, 100
2, 178848, Note_on_c, 0, 72, 100
2, 178940, Note_off_c, 0, 72, 100
2, 178944, Note_on_c, 0, 70, 100
2, 179036, Note_off_c, 0, 70, 100
2, 179040, Note_on_c, 0, 68, 100
2, 179132, Note_off_c, 0, 68, 100
2, 179136, Note_on_c, 0, 67, 100
2, 179228, Note_off_c, 0, 67, 100
2, 179232, Note_on_c, 0, 65, 100
2, 179324, Note_off_c, 0, 65, 100
2, 179328, Note_on_c, 0, 67, 100
2, 179328, Note_on_c, 0, 63, 100
2, 179420, Note_off_c, 0, 67, 100
2, 179424, Note_on_c, 0, 70, 100
2, 179516, Note_off_c, 0, 70, 100
2, 179520, Note_on_c, 0, 72, 100
2, 179612, Note_off_c, 0, 72, 100
2, 179616, Note_on_c, 0, 73, 100
2, 179708, Note_off_c, 0, 73, 100
2, 179712, Note_on_c, 0, 72, 100
2, 179804, Note_off_c, 0, 72, 100
2, 179808, Note_on_c, 0, 84, 100
2, 179900, Note_off_c, 0, 63, 100
2, 179900, Note_off_c, 0, 84, 100
2, 179904, Note_on_c, 0, 82, 100
2, 179996, Note_off_c, 0, 82, 100
2, 180000, Note_on_c, 0, 80, 100
2, 180092, Note_off_c, 0, 80, 100
2, 180096, Note_on_c, 0, 79, 100
2, 180188, Note_off_c, 0, 79, 100
2, 180192, Note_on_c, 0, 77, 100
2, 180284, Note_off_c, 0, 77, 100
2, 180288, Note_on_c, 0, 75, 100
2, 180380, Note_off_c, 0, 75, 100
2, 180384, Note_on_c, 0, 73, 100
2, 180476, Note_off_c, 0, 73, 100
2, 180480, Note_on_c, 0, 72, 100
2, 180480, Note_on_c, 0, 63, 100
2, 180668, Note_off_c, 0, 63, 100
2, 180672, Note_on_c, 0, 67, 100
2, 180860, Note_off_c, 0, 67, 100
2, 180864, Note_on_c, 0, 68, 100
2, 181052, Note_off_c, 0, 72, 100
2, 181052, Note_off_c, 0, 68, 100
2, 181056, Note_on_c, 0, 79, 100
2, 181056, Note_on_c, 0, 70, 100
2, 181244, Note_off_c, 0, 79, 100
2, 181244, Note_off_c, 0, 70, 100
2, 181248, Note_on_c, 0, 80, 100
2, 181248, Note_on_c, 0, 72, 100
2, 181436, Note_off_c, 0, 72, 100
2, 181440, Note_on_c, 0, 73, 100
2, 181628, Note_off_c, 0, 73, 100
2, 181632, Note_on_c, 0, 75, 100
2, 181820, Note_off_c, 0, 80, 100
2, 181824, Note_on_c, 0, 84, 100
2, 182012, Note_off_c, 0, 75, 100
2, 182012, Note_off_c, 0, 84, 100
2, 182016, Note_on_c, 0, 85, 100
2, 182016, Note_on_c, 0, 73, 100
2, 182108, Note_off_c, 0, 73, 100
2, 182112, Note_on_c, 0, 77, 100
2, 182204, Note_off_c, 0, 77, 100
2, 182208, Note_on_c, 0, 75, 100
2, 182300, Note_off_c, 0, 75, 100
2, 182304, Note_on_c, 0, 73, 100
2, 182396, Note_off_c, 0, 85, 100
2, 182396, Note_off_c, 0, 73, 100
2, 182400, Note_on_c, 0, 72, 100
2, 182492, Note_off_c, 0, 72, 100
2, 182496, Note_on_c, 0, 70, 100
2, 182588, Note_off_c, 0, 70, 100
2, 182592, Note_on_c, 0, 68, 100
2, 182684, Note_off_c, 0, 68, 100
2, 182688, Note_on_c, 0, 66, 100
2, 182780, Note_off_c, 0, 66, 100
2, 182784, Note_on_c, 0, 68, 100
2, 182784, Note_on_c, 0, 65, 100
2, 182972, Note_off_c, 0, 68, 100
2, 182976, Note_on_c, 0, 72, 100
2, 183164, Note_off_c, 0, 72, 100
2, 183168, Note_on_c, 0, 73, 100
2, 183356, Note_off_c, 0, 65, 100
2, 183360, Note_on_c, 0, 66, 100
2, 183548, Note_off_c, 0, 66, 100
2, 183552, Note_on_c, 0, 68, 121
2, 183740, Note_off_c, 0, 73, 100
2, 183744, Note_on_c, 0, 76, 100
2, 183932, Note_off_c, 0, 76, 100
2, 183936, Note_on_c, 0, 77, 100
2, 184124, Note_off_c, 0, 68, 100
2, 184124, Note_off_c, 0, 77, 100
2, 184128, Note_on_c, 0, 70, 100
2, 184128, Note_on_c, 0, 78, 100
2, 184412, Note_off_c, 0, 78, 100
2, 184416, Note_on_c, 0, 82, 100
2, 184508, Note_off_c, 0, 82, 100
2, 184512, Note_on_c, 0, 80, 100
2, 184604, Note_off_c, 0, 80, 100
2, 184608, Note_on_c, 0, 78, 100
2, 184700, Note_off_c, 0, 70, 100
2, 184700, Note_off_c, 0, 78, 100
2, 184704, Note_on_c, 0, 77, 100
2, 184796, Note_off_c, 0, 77, 100
2, 184800, Note_on_c, 0, 75, 100
2, 184892, Note_off_c, 0, 75, 100
2, 184896, Note_on_c, 0, 73, 100
2, 184988, Note_off_c, 0, 73, 100
2, 184992, Note_on_c, 0, 71, 100
2, 185084, Note_off_c, 0, 71, 100
2, 185088, Note_on_c, 0, 70, 100
2, 185088, Note_on_c, 0, 61, 100
2, 185276, Note_off_c, 0, 61, 100
2, 185280, Note_on_c, 0, 65, 100
2, 185468, Note_off_c, 0, 65, 100
2, 185472, Note_on_c, 0, 66, 100
2, 185660, Note_off_c, 0, 70, 100
2, 185664, Note_on_c, 0, 71, 100
2, 185852, Note_off_c, 0, 71, 100
2, 185856, Note_on_c, 0, 73, 121
2, 186044, Note_off_c, 0, 66, 100
2, 186048, Note_on_c, 0, 68, 100
2, 186236, Note_off_c, 0, 68, 100
2, 186240, Note_on_c, 0, 70, 100
2, 186428, Note_off_c, 0, 73, 100
2, 186428, Note_off_c, 0, 70, 100
2, 186432, Note_on_c, 0, 82, 100
2, 186432, Note_on_c, 0, 78, 100
2, 186716, Note_off_c, 0, 78, 100
2, 186720, Note_on_c, 0, 74, 100
2, 186812, Note_off_c, 0, 82, 100
2, 186812, Note_off_c, 0, 74, 100
2, 186816, Note_on_c, 0, 73, 100
2, 186908, Note_off_c, 0, 73, 100
2, 186912, Note_on_c, 0, 71, 100
2, 187004, Note_off_c, 0, 71, 100
2, 187008, Note_on_c, 0, 70, 100
2, 187100, Note_off_c, 0, 70, 100
2, 187104, Note_on_c, 0, 67, 100
2, 187196, Note_off_c, 0, 67, 100
2, 187200, Note_on_c, 0, 66, 100
2, 187292, Note_off_c, 0, 66, 100
2, 187296, Note_on_c, 0, 64, 100
2, 187388, Note_off_c, 0, 64, 100
2, 187392, Note_on_c, 0, 66, 100
2, 187392, Note_on_c, 0, 62, 100
2, 187580, Note_off_c, 0, 66, 100
2, 187584, Note_on_c, 0, 70, 100
2, 187772, Note_off_c, 0, 70, 100
2, 187776, Key_signature, 2, "major"
2, 187776, Note_on_c, 0, 71, 100
2, 187964, Note_off_c, 0, 62, 100
2, 187968, Note_on_c, 0, 64, 100
2, 188156, Note_off_c, 0, 64, 100
2, 188160, Note_on_c, 0, 66, 121
2, 188348, Note_off_c, 0, 71, 100
2, 188352, Note_on_c, 0, 73, 100
2, 188540, Note_off_c, 0, 73, 100
2, 188544, Note_on_c, 0, 74, 100
2, 188732, Note_off_c, 0, 66, 100
2, 188732, Note_off_c, 0, 74, 100
2, 188736, Note_on_c, 0, 76, 100
2, 188736, Note_on_c, 0, 73, 100
2, 188924, Note_off_c, 0, 76, 100
2, 188924, Note_off_c, 0, 73, 100
2, 188928, Note_on_c, 0, 78, 100
2, 188928, Note_on_c, 0, 74, 100
2, 189116, Note_off_c, 0, 78, 100
2, 189116, Note_off_c, 0, 74, 100
2, 189120, Note_on_c, 0, 82, 100
2, 189120, Note_on_c, 0, 73, 100
2, 189212, Note_off_c, 0, 73, 100
2, 189216, Note_on_c, 0, 71, 100
2, 189308, Note_off_c, 0, 82, 100
2, 189308, Note_off_c, 0, 71, 100
2, 189312, Note_on_c, 0, 83, 122
2, 189312, Note_on_c, 0, 74, 100
2, 189404, Note_off_c, 0, 74, 100
2, 189408, Note_on_c, 0, 71, 100
2, 189500, Note_off_c, 0, 71, 100
2, 189884, Note_off_c, 0, 83, 100
2, 189888, Note_on_c, 0, 85, 100
2, 190076, Note_off_c, 0, 85, 100
2, 190080, Note_on_c, 0, 86, 100
2, 190268, Note_off_c, 0, 86, 100
2, 190272, Note_on_c, 0, 88, 100
2, 190460, Note_off_c, 0, 88, 100
2, 190464, Note_on_c, 0, 90, 119
2, 190652, Note_off_c, 0, 90, 100
2, 190848, Note_on_c, 0, 78, 80
2, 191036, Note_off_c, 0, 78, 100
2, 192000, Note_on_c, 0, 78, 80
2, 192380, Note_off_c, 0, 78, 100
2, 192384, Note_on_c, 0, 76, 80
2, 193148, Note_off_c, 0, 76, 100
2, 193152, Note_on_c, 0, 73, 80
2, 193532, Note_off_c, 0, 73, 100
2, 193536, Note_on_c, 0, 74, 80
2, 194300, Note_off_c, 0, 74, 100
2, 194304, Note_on_c, 0, 73, 80
2, 195068, Note_off_c, 0, 73, 100
2, 195072, Note_on_c, 0, 71, 80
2, 195452, Note_off_c, 0, 71, 100
2, 195456, Note_on_c, 0, 71, 80
2, 196220, Note_off_c, 0, 71, 100
2, 196224, Note_on_c, 0, 66, 80
2, 196604, Note_off_c, 0, 66, 100
2, 196608, Note_on_c, 0, 74, 80
2, 196988, Note_off_c, 0, 74, 100
2, 196992, Note_on_c, 0, 73, 80
2, 197372, Note_off_c, 0, 73, 100
2, 197376, Note_on_c, 0, 66, 80
2, 197564, Note_off_c, 0, 66, 100
2, 197760, Note_on_c, 0, 82, 80
2, 197808, Note_on_c, 0, 83, 80
2, 197840, Note_off_c, 0, 82, 100
2, 197856, Note_on_c, 0, 82, 80
2, 197888, Note_off_c, 0, 83, 100
2, 197904, Note_on_c, 0, 83, 80
2, 197936, Note_off_c, 0, 82, 100
2, 197952, Note_on_c, 0, 82, 80
2, 197984, Note_off_c, 0, 83, 100
2, 198000, Note_on_c, 0, 83, 80
2, 198032, Note_off_c, 0, 82, 100
2, 198048, Note_on_c, 0, 82, 80
2, 198080, Note_off_c, 0, 83, 100
2, 198096, Note_on_c, 0, 83, 80
2, 198128, Note_off_c, 0, 82, 100
2, 198144, Note_on_c, 0, 82, 80
2, 198176, Note_off_c, 0, 83, 100
2, 198192, Note_on_c, 0, 83, 80
2, 198224, Note_off_c, 0, 82, 100
2, 198240, Note_on_c, 0, 82, 80
2, 198272, Note_off_c, 0, 83, 100
2, 198288, Note_on_c, 0, 83, 80
2, 198320, Note_off_c, 0, 82, 100
2, 198336, Note_on_c, 0, 82, 80
2, 198368, Note_off_c, 0, 83, 100
2, 198384, Note_on_c, 0, 83, 80
2, 198416, Note_off_c, 0, 82, 100
2, 198432, Note_on_c, 0, 80, 80
2, 198464, Note_off_c, 0, 83, 100
2, 198480, Note_on_c, 0, 82, 80
2, 198512, Note_off_c, 0, 80, 100
2, 198528, Note_on_c, 0, 83, 80
2, 198560, Note_off_c, 0, 82, 100
2, 198908, Note_off_c, 0, 83, 100
2, 199104, Note_on_c, 0, 83, 80
2, 199196, Note_off_c, 0, 83, 100
2, 199200, Note_on_c, 0, 81, 80
2, 199292, Note_off_c, 0, 81, 100
2, 199296, Note_on_c, 0, 79, 80
2, 199388, Note_off_c, 0, 79, 100
2, 199392, Note_on_c, 0, 78, 80
2, 199484, Note_off_c, 0, 78, 100
2, 199488, Note_on_c, 0, 76, 80
2, 199580, Note_off_c, 0, 76, 100
2, 199584, Note_on_c, 0, 78, 80
2, 199676, Note_off_c, 0, 78, 100
2, 199680, Note_on_c, 0, 79, 80
2, 199772, Note_off_c, 0, 79, 100
2, 199776, Note_on_c, 0, 81, 80
2, 199868, Note_off_c, 0, 81, 100
2, 199872, Note_on_c, 0, 79, 80
2, 199964, Note_off_c, 0, 79, 100
2, 199968, Note_on_c, 0, 78, 80
2, 200060, Note_off_c, 0, 78, 100
2, 200064, Note_on_c, 0, 76, 80
2, 200064, Note_on_c, 0, 67, 80
2, 200156, Note_off_c, 0, 76, 100
2, 200160, Note_on_c, 0, 74, 80
2, 200252, Note_off_c, 0, 74, 100
2, 200256, Note_on_c, 0, 73, 80
2, 200348, Note_off_c, 0, 73, 100
2, 200352, Note_on_c, 0, 74, 80
2, 200444, Note_off_c, 0, 67, 100
2, 200444, Note_off_c, 0, 74, 100
2, 200448, Note_on_c, 0, 76, 80
2, 200540, Note_off_c, 0, 76, 100
2, 200544, Note_on_c, 0, 74, 80
2, 200636, Note_off_c, 0, 74, 100
2, 200640, Note_on_c, 0, 73, 80
2, 200732, Note_off_c, 0, 73, 100
2, 200736, Note_on_c, 0, 71, 80
2, 200828, Note_off_c, 0, 71, 100
2, 200832, Note_on_c, 0, 69, 80
2, 200924, Note_off_c, 0, 69, 100
2, 200928, Note_on_c, 0, 68, 80
2, 201020, Note_off_c, 0, 68, 100
2, 201024, Note_on_c, 0, 69, 80
2, 201116, Note_off_c, 0, 69, 100
2, 201120, Note_on_c, 0, 67, 80
2, 201212, Note_off_c, 0, 67, 100
2, 201216, Note_on_c, 0, 66, 80
2, 201308, Note_off_c, 0, 66, 100
2, 201312, Note_on_c, 0, 69, 80
2, 201404, Note_off_c, 0, 69, 100
2, 201408, Note_on_c, 0, 71, 80
2, 201408, Note_on_c, 0, 69, 80
2, 201500, Note_off_c, 0, 71, 100
2, 201504, Note_on_c, 0, 73, 80
2, 201596, Note_off_c, 0, 69, 100
2, 201596, Note_off_c, 0, 73, 100
2, 201600, Note_on_c, 0, 74, 80
2, 201692, Note_off_c, 0, 74, 100
2, 201696, Note_on_c, 0, 76, 80
2, 201788, Note_off_c, 0, 76, 100
2, 201792, Note_on_c, 0, 78, 80
2, 201884, Note_off_c, 0, 78, 100
2, 201888, Note_on_c, 0, 79, 80
2, 201980, Note_off_c, 0, 79, 100
2, 201984, Note_on_c, 0, 81, 80
2, 202076, Note_off_c, 0, 81, 100
2, 202080, Note_on_c, 0, 83, 80
2, 202172, Note_off_c, 0, 83, 100
2, 202176, Note_on_c, 0, 81, 80
2, 202268, Note_off_c, 0, 81, 100
2, 202272, Note_on_c, 0, 80, 80
2, 202364, Note_off_c, 0, 80, 100
2, 202368, Note_on_c, 0, 79, 80
2, 202460, Note_off_c, 0, 79, 100
2, 202464, Note_on_c, 0, 78, 80
2, 202556, Note_off_c, 0, 78, 100
2, 202560, Note_on_c, 0, 76, 80
2, 202652, Note_off_c, 0, 76, 100
2, 202656, Note_on_c, 0, 75, 80
2, 202748, Note_off_c, 0, 75, 100
2, 202752, Note_on_c, 0, 76, 80
2, 202844, Note_off_c, 0, 76, 100
2, 202848, Note_on_c, 0, 78, 80
2, 202940, Note_off_c, 0, 78, 100
2, 202944, Note_on_c, 0, 76, 80
2, 203036, Note_off_c, 0, 76, 100
2, 203040, Note_on_c, 0, 74, 80
2, 203132, Note_off_c, 0, 74, 100
2, 203136, Note_on_c, 0, 74, 80
2, 203228, Note_off_c, 0, 74, 100
2, 203232, Note_on_c, 0, 73, 80
2, 203324, Note_off_c, 0, 73, 100
2, 203328, Note_on_c, 0, 71, 80
2, 203420, Note_off_c, 0, 71, 100
2, 203424, Note_on_c, 0, 69, 80
2, 203516, Note_off_c, 0, 69, 100
2, 203520, Note_on_c, 0, 71, 80
2, 203612, Note_off_c, 0, 71, 100
2, 203616, Note_on_c, 0, 73, 80
2, 203708, Note_off_c, 0, 73, 100
2, 203712, Note_on_c, 0, 74, 80
2, 203804, Note_off_c, 0, 74, 100
2, 203808, Note_on_c, 0, 73, 80
2, 203900, Note_off_c, 0, 73, 100
2, 203904, Note_on_c, 0, 74, 80
2, 203996, Note_off_c, 0, 74, 100
2, 204000, Note_on_c, 0, 76, 80
2, 204092, Note_off_c, 0, 76, 100
2, 204096, Note_on_c, 0, 78, 80
2, 204188, Note_off_c, 0, 78, 100
2, 204192, Note_on_c, 0, 76, 80
2, 204284, Note_off_c, 0, 76, 100
2, 204288, Note_on_c, 0, 78, 80
2, 204380, Note_off_c, 0, 78, 100
2, 204384, Note_on_c, 0, 79, 80
2, 204476, Note_off_c, 0, 79, 100
2, 204672, Note_on_c, 0, 79, 80
2, 205052, Note_off_c, 0, 79, 100
2, 205056, Note_on_c, 0, 74, 80
2, 205148, Note_off_c, 0, 74, 100
2, 205152, Note_on_c, 0, 76, 80
2, 205244, Note_off_c, 0, 76, 100
2, 205248, Note_on_c, 0, 78, 80
2, 205340, Note_off_c, 0, 78, 100
2, 205344, Note_on_c, 0, 79, 80
2, 205436, Note_off_c, 0, 79, 100
2, 205440, Note_on_c, 0, 81, 80
2, 205532, Note_off_c, 0, 81, 100
2, 205536, Note_on_c, 0, 83, 80
2, 205628, Note_off_c, 0, 83, 100
2, 205824, Note_on_c, 0, 83, 80
2, 206204, Note_off_c, 0, 83, 100
2, 206208, Note_on_c, 0, 78, 80
2, 206300, Note_off_c, 0, 78, 100
2, 206304, Note_on_c, 0, 79, 80
2, 206396, Note_off_c, 0, 79, 100
2, 206400, Note_on_c, 0, 81, 80
2, 206492, Note_off_c, 0, 81, 100
2, 206496, Note_on_c, 0, 83, 80
2, 206588, Note_off_c, 0, 83, 100
2, 206592, Note_on_c, 0, 85, 80
2, 206684, Note_off_c, 0, 85, 100
2, 206688, Note_on_c, 0, 86, 80
2, 206780, Note_off_c, 0, 86, 100
2, 206976, Note_on_c, 0, 86, 80
2, 207356, Note_off_c, 0, 86, 100
2, 207360, Note_on_c, 0, 85, 80
2, 207408, Note_on_c, 0, 86, 80
2, 207440, Note_off_c, 0, 85, 100
2, 207456, Note_on_c, 0, 85, 80
2, 207488, Note_off_c, 0, 86, 100
2, 207504, Note_on_c, 0, 86, 80
2, 207536, Note_off_c, 0, 85, 100
2, 207552, Note_on_c, 0, 85, 80
2, 207584, Note_off_c, 0, 86, 100
2, 207600, Note_on_c, 0, 86, 80
2, 207632, Note_off_c, 0, 85, 100
2, 207648, Note_on_c, 0, 85, 80
2, 207680, Note_off_c, 0, 86, 100
2, 207696, Note_on_c, 0, 86, 80
2, 207728, Note_off_c, 0, 85, 100
2, 207744, Note_on_c, 0, 85, 80
2, 207776, Note_off_c, 0, 86, 100
2, 207792, Note_on_c, 0, 86, 80
2, 207824, Note_off_c, 0, 85, 100
2, 207840, Note_on_c, 0, 85, 80
2, 207872, Note_off_c, 0, 86, 100
2, 207888, Note_on_c, 0, 86, 80
2, 207920, Note_off_c, 0, 85, 100
2, 207936, Note_on_c, 0, 85, 80
2, 207968, Note_off_c, 0, 86, 100
2, 207984, Note_on_c, 0, 86, 80
2, 208016, Note_off_c, 0, 85, 100
2, 208032, Note_on_c, 0, 83, 80
2, 208064, Note_off_c, 0, 86, 100
2, 208080, Note_on_c, 0, 85, 80
2, 208112, Note_off_c, 0, 83, 100
2, 208128, Note_on_c, 0, 70, 80
2, 208160, Note_off_c, 0, 85, 100
2, 208316, Note_off_c, 0, 70, 100
2, 208512, Note_on_c, 0, 78, 80
2, 208512, Note_on_c, 0, 70, 80
2, 208560, Note_on_c, 0, 71, 80
2, 208592, Note_off_c, 0, 70, 100
2, 208608, Note_on_c, 0, 70, 80
2, 208640, Note_off_c, 0, 71, 100
2, 208656, Note_on_c, 0, 71, 80
2, 208688, Note_off_c, 0, 70, 100
2, 208704, Note_on_c, 0, 70, 80
2, 208736, Note_off_c, 0, 71, 100
2, 208752, Note_on_c, 0, 71, 80
2, 208784, Note_off_c, 0, 70, 100
2, 208800, Note_on_c, 0, 70, 80
2, 208832, Note_off_c, 0, 71, 100
2, 208848, Note_on_c, 0, 71, 80
2, 208880, Note_off_c, 0, 70, 100
2, 208892, Note_off_c, 0, 78, 100
2, 208896, Note_on_c, 0, 76, 80
2, 208896, Note_on_c, 0, 70, 80
2, 208928, Note_off_c, 0, 71, 100
2, 208944, Note_on_c, 0, 71, 80
2, 208976, Note_off_c, 0, 70, 100
2, 208992, Note_on_c, 0, 70, 80
2, 209024, Note_off_c, 0, 71, 100
2, 209040, Note_on_c, 0, 71, 80
2, 209072, Note_off_c, 0, 70, 100
2, 209088, Note_on_c, 0, 70, 80
2, 209120, Note_off_c, 0, 71, 100
2, 209136, Note_on_c, 0, 71, 80
2, 209168, Note_off_c, 0, 70, 100
2, 209184, Note_on_c, 0, 70, 80
2, 209216, Note_off_c, 0, 71, 100
2, 209232, Note_on_c, 0, 71, 80
2, 209264, Note_off_c, 0, 70, 100
2, 209276, Note_off_c, 0, 76, 100
2, 209280, Note_on_c, 0, 73, 80
2, 209280, Note_on_c, 0, 70, 80
2, 209312, Note_off_c, 0, 71, 100
2, 209328, Note_on_c, 0, 71, 80
2, 209360, Note_off_c, 0, 70, 100
2, 209376, Note_on_c, 0, 70, 80
2, 209408, Note_off_c, 0, 71, 100
2, 209424, Note_on_c, 0, 71, 80
2, 209456, Note_off_c, 0, 70, 100
2, 209472, Note_on_c, 0, 70, 80
2, 209504, Note_off_c, 0, 71, 100
2, 209520, Note_on_c, 0, 71, 80
2, 209552, Note_off_c, 0, 70, 100
2, 209568, Note_on_c, 0, 68, 80
2, 209600, Note_off_c, 0, 71, 100
2, 209616, Note_on_c, 0, 69, 80
2, 209648, Note_off_c, 0, 68, 100
2, 209660, Note_off_c, 0, 73, 100
2, 209664, Note_on_c, 0, 71, 80
2, 209664, Note_on_c, 0, 76, 80
2, 209696, Note_off_c, 0, 69, 100
2, 210044, Note_off_c, 0, 76, 100
2, 210048, Note_on_c, 0, 74, 80
2, 210428, Note_off_c, 0, 71, 100
2, 210432, Note_on_c, 0, 66, 80
2, 210812, Note_off_c, 0, 66, 100
2, 210816, Note_on_c, 0, 64, 80
2, 211196, Note_off_c, 0, 74, 100
2, 211200, Note_on_c, 0, 73, 80
2, 211580, Note_off_c, 0, 64, 100
2, 211584, Note_on_c, 0, 61, 80
2, 211964, Note_off_c, 0, 61, 100
2, 211968, Note_on_c, 0, 64, 80
2, 212348, Note_off_c, 0, 73, 100
2, 212348, Note_off_c, 0, 64, 100
2, 212352, Note_on_c, 0, 62, 80
2, 212352, Note_on_c, 0, 71, 80
2, 212732, Note_off_c, 0, 62, 100
2, 212736, Note_on_c, 0, 61, 80
2, 213500, Note_off_c, 0, 61, 100
2, 213504, Note_on_c, 0, 59, 80
2, 213884, Note_off_c, 0, 71, 100
2, 213884, Note_off_c, 0, 59, 100
2, 213888, Note_on_c, 0, 59, 80
2, 213888, Note_on_c, 0, 64, 80
2, 214076, Note_off_c, 0, 64, 100
2, 214080, Note_on_c, 0, 62, 80
2, 214268, Note_off_c, 0, 59, 100
2, 214268, Note_off_c, 0, 62, 100
2, 214272, Note_on_c, 0, 61, 80
2, 214272, Note_on_c, 0, 59, 80
2, 214460, Note_off_c, 0, 61, 100
2, 214464, Note_on_c, 0, 62, 80
2, 214652, Note_off_c, 0, 59, 100
2, 214652, Note_off_c, 0, 62, 100
2, 214656, Note_on_c, 0, 61, 80
2, 214656, Note_on_c, 0, 54, 80
2, 214844, Note_off_c, 0, 61, 100
2, 214848, Note_on_c, 0, 62, 80
2, 215036, Note_off_c, 0, 54, 100
2, 215036, Note_off_c, 0, 62, 100
2, 215040, Note_on_c, 0, 64, 80
2, 215040, Note_on_c, 0, 62, 80
2, 215228, Note_off_c, 0, 64, 100
2, 215232, Note_on_c, 0, 65, 80
2, 215420, Note_off_c, 0, 62, 100
2, 215420, Note_off_c, 0, 65, 100
2, 215424, Note_on_c, 0, 66, 80
2, 215424, Note_on_c, 0, 61, 80
2, 215804, Note_off_c, 0, 61, 100
2, 215808, Note_on_c, 0, 54, 80
2, 216188, Note_off_c, 0, 66, 100
2, 216188, Note_off_c, 0, 54, 100
2, 216192, Note_on_c, 0, 78, 80
2, 216572, Note_off_c, 0, 78, 100
2, 216576, Note_on_c, 0, 74, 80
2, 216624, Note_on_c, 0, 76, 80
2, 216656, Note_off_c, 0, 74, 100
2, 216672, Note_on_c, 0, 74, 80
2, 216704, Note_off_c, 0, 76, 100
2, 216720, Note_on_c, 0, 76, 80
2, 216752, Note_off_c, 0, 74, 100
2, 216768, Note_on_c, 0, 74, 80
2, 216800, Note_off_c, 0, 76, 100
2, 216816, Note_on_c, 0, 76, 80
2, 216848, Note_off_c, 0, 74, 100
2, 216864, Note_on_c, 0, 74, 80
2, 216896, Note_off_c, 0, 76, 100
2, 216912, Note_on_c, 0, 76, 80
2, 216944, Note_off_c, 0, 74, 100
2, 216960, Note_on_c, 0, 74, 80
2, 216992, Note_off_c, 0, 76, 100
2, 217008, Note_on_c, 0, 76, 80
2, 217040, Note_off_c, 0, 74, 100
2, 217056, Note_on_c, 0, 74, 80
2, 217088, Note_off_c, 0, 76, 100
2, 217104, Note_on_c, 0, 76, 80
2, 217136, Note_off_c, 0, 74, 100
2, 217152, Note_on_c, 0, 74, 80
2, 217184, Note_off_c, 0, 76, 100
2, 217200, Note_on_c, 0, 76, 80
2, 217232, Note_off_c, 0, 74, 100
2, 217248, Note_on_c, 0, 74, 80
2, 217280, Note_off_c, 0, 76, 100
2, 217296, Note_on_c, 0, 76, 80
2, 217328, Note_off_c, 0, 74, 100
2, 217344, Note_on_c, 0, 71, 80
2, 217344, Note_on_c, 0, 62, 80
2, 217376, Note_off_c, 0, 76, 100
2, 217532, Note_off_c, 0, 71, 100
2, 217536, Note_on_c, 0, 65, 80
2, 217724, Note_off_c, 0, 62, 100
2, 217724, Note_off_c, 0, 65, 100
2, 217728, Note_on_c, 0, 66, 80
2, 217728, Note_on_c, 0, 61, 80
2, 218108, Note_off_c, 0, 61, 100
2, 218112, Note_on_c, 0, 54, 80
2, 218492, Note_off_c, 0, 66, 100
2, 218492, Note_off_c, 0, 54, 100
2, 218496, Note_on_c, 0, 66, 80
2, 218684, Note_off_c, 0, 66, 100
2, 218688, Note_on_c, 0, 68, 80
2, 218780, Note_off_c, 0, 68, 100
2, 218784, Note_on_c, 0, 70, 80
2, 218876, Note_off_c, 0, 70, 100
2, 218880, Note_on_c, 0, 71, 80
2, 218972, Note_off_c, 0, 71, 100
2, 218976, Note_on_c, 0, 73, 80
2, 219068, Note_off_c, 0, 73, 100
2, 219072, Note_on_c, 0, 74, 80
2, 219164, Note_off_c, 0, 74, 100
2, 219168, Note_on_c, 0, 76, 80
2, 219260, Note_off_c, 0, 76, 100
2, 219264, Note_on_c, 0, 78, 80
2, 219356, Note_off_c, 0, 78, 100
2, 219360, Note_on_c, 0, 79, 80
2, 219452, Note_off_c, 0, 79, 100
2, 219648, Note_on_c, 0, 79, 80
2, 220028, Note_off_c, 0, 79, 100
2, 220032, Note_on_c, 0, 78, 80
2, 220080, Note_on_c, 0, 79, 80
2, 220112, Note_off_c, 0, 78, 100
2, 220128, Note_on_c, 0, 78, 80
2, 220160, Note_off_c, 0, 79, 100
2, 220176, Note_on_c, 0, 79, 80
2, 220200, Note_on_c, 0, 78, 80
2, 220208, Note_off_c, 0, 78, 100
2, 220248, Note_on_c, 0, 79, 80
2, 220256, Note_off_c, 0, 79, 100
2, 220280, Note_off_c, 0, 78, 100
2, 220296, Note_on_c, 0, 78, 80
2, 220328, Note_off_c, 0, 79, 100
2, 220344, Note_on_c, 0, 79, 80
2, 220376, Note_off_c, 0, 78, 100
2, 220416, Note_on_c, 0, 78, 80
2, 220424, Note_off_c, 0, 79, 100
2, 220464, Note_on_c, 0, 79, 80
2, 220496, Note_off_c, 0, 78, 100
2, 220512, Note_on_c, 0, 78, 80
2, 220544, Note_off_c, 0, 79, 100
2, 220560, Note_on_c, 0, 79, 80
2, 220592, Note_off_c, 0, 78, 100
2, 220608, Note_on_c, 0, 78, 80
2, 220640, Note_off_c, 0, 79, 100
2, 220656, Note_on_c, 0, 79, 80
2, 220688, Note_off_c, 0, 78, 100
2, 220704, Note_on_c, 0, 78, 80
2, 220736, Note_off_c, 0, 79, 100
2, 220752, Note_on_c, 0, 79, 80
2, 220784, Note_off_c, 0, 78, 100
2, 220800, Note_on_c, 0, 74, 80
2, 220832, Note_off_c, 0, 79, 100
2, 221180, Note_off_c, 0, 74, 100
2, 221184, Note_on_c, 0, 71, 80
2, 221184, Note_on_c, 0, 62, 80
2, 221232, Note_on_c, 0, 64, 80
2, 221264, Note_off_c, 0, 62, 100
2, 221280, Note_on_c, 0, 62, 80
2, 221312, Note_off_c, 0, 64, 100
2, 221328, Note_on_c, 0, 64, 80
2, 221360, Note_off_c, 0, 62, 100
2, 221376, Note_on_c, 0, 62, 80
2, 221408, Note_off_c, 0, 64, 100
2, 221424, Note_on_c, 0, 64, 80
2, 221456, Note_off_c, 0, 62, 100
2, 221472, Note_on_c, 0, 62, 80
2, 221504, Note_off_c, 0, 64, 100
2, 221520, Note_on_c, 0, 64, 80
2, 221552, Note_off_c, 0, 62, 100
2, 221568, Note_on_c, 0, 62, 80
2, 221600, Note_off_c, 0, 64, 100
2, 221616, Note_on_c, 0, 64, 80
2, 221648, Note_off_c, 0, 62, 100
2, 221664, Note_on_c, 0, 62, 80
2, 221696, Note_off_c, 0, 64, 100
2, 221712, Note_on_c, 0, 64, 80
2, 221744, Note_off_c, 0, 62, 100
2, 221760, Note_on_c, 0, 62, 80
2, 221792, Note_off_c, 0, 64, 100
2, 221808, Note_on_c, 0, 64, 80
2, 221840, Note_off_c, 0, 62, 100
2, 221856, Note_on_c, 0, 62, 80
2, 221888, Note_off_c, 0, 64, 100
2, 221904, Note_on_c, 0, 64, 80
2, 221936, Note_off_c, 0, 62, 100
2, 221948, Note_off_c, 0, 71, 100
2, 221952, Note_on_c, 0, 67, 80
2, 221952, Note_on_c, 0, 61, 80
2, 221984, Note_off_c, 0, 64, 100
2, 222332, Note_off_c, 0, 67, 100
2, 222332, Note_off_c, 0, 61, 100
2, 222336, Note_on_c, 0, 64, 80
2, 222428, Note_off_c, 0, 64, 100
2, 222432, Note_on_c, 0, 66, 80
2, 222524, Note_off_c, 0, 66, 100
2, 222528, Note_on_c, 0, 67, 81
2, 222620, Note_off_c, 0, 67, 100
2, 222624, Note_on_c, 0, 69, 82
2, 222716, Note_off_c, 0, 69, 100
2, 222720, Note_on_c, 0, 71, 83
2, 222812, Note_off_c, 0, 71, 100
2, 222816, Note_on_c, 0, 73, 84
2, 222908, Note_off_c, 0, 73, 100
2, 222912, Note_on_c, 0, 61, 85
2, 223004, Note_off_c, 0, 61, 100
2, 223008, Note_on_c, 0, 62, 86
2, 223100, Note_off_c, 0, 62, 100
2, 223104, Note_on_c, 0, 73, 86
2, 223104, Note_on_c, 0, 64, 86
2, 223196, Note_off_c, 0, 64, 100
2, 223200, Note_on_c, 0, 66, 87
2, 223292, Note_off_c, 0, 66, 100
2, 223296, Note_on_c, 0, 67, 88
2, 223388, Note_off_c, 0, 67, 100
2, 223392, Note_on_c, 0, 69, 89
2, 223484, Note_off_c, 0, 73, 100
2, 223484, Note_off_c, 0, 69, 100
2, 223488, Note_on_c, 0, 67, 90
2, 223580, Note_off_c, 0, 67, 100
2, 223584, Note_on_c, 0, 69, 91
2, 223676, Note_off_c, 0, 69, 100
2, 223680, Note_on_c, 0, 71, 92
2, 223772, Note_off_c, 0, 71, 100
2, 223776, Note_on_c, 0, 73, 93
2, 223868, Note_off_c, 0, 73, 100
2, 223872, Note_on_c, 0, 74, 93
2, 223964, Note_off_c, 0, 74, 100
2, 223968, Note_on_c, 0, 76, 94
2, 224060, Note_off_c, 0, 76, 100
2, 224064, Note_on_c, 0, 64, 95
2, 224156, Note_off_c, 0, 64, 100
2, 224160, Note_on_c, 0, 66, 96
2, 224252, Note_off_c, 0, 66, 100
2, 224256, Note_on_c, 0, 67, 97
2, 224256, Note_on_c, 0, 76, 97
2, 224348, Note_off_c, 0, 67, 100
2, 224352, Note_on_c, 0, 69, 98
2, 224444, Note_off_c, 0, 69, 100
2, 224448, Note_on_c, 0, 71, 99
2, 224540, Note_off_c, 0, 71, 100
2, 224544, Note_on_c, 0, 73, 99
2, 224636, Note_off_c, 0, 76, 100
2, 224636, Note_off_c, 0, 73, 100
2, 224640, Note_on_c, 0, 79, 100
2, 224732, Note_off_c, 0, 79, 100
2, 224736, Note_on_c, 0, 78, 100
2, 224828, Note_off_c, 0, 78, 100
2, 224832, Note_on_c, 0, 76, 100
2, 224924, Note_off_c, 0, 76, 100
2, 224928, Note_on_c, 0, 74, 100
2, 225020, Note_off_c, 0, 74, 100
2, 225024, Note_on_c, 0, 73, 100
2, 225116, Note_off_c, 0, 73, 100
2, 225120, Note_on_c, 0, 71, 100
2, 225212, Note_off_c, 0, 71, 100
2, 225216, Note_on_c, 0, 67, 100
2, 225308, Note_off_c, 0, 67, 100
2, 225312, Note_on_c, 0, 66, 100
2, 225404, Note_off_c, 0, 66, 100
2, 225408, Note_on_c, 0, 64, 100
2, 225408, Note_on_c, 0, 71, 100
2, 225500, Note_off_c, 0, 64, 100
2, 225504, Note_on_c, 0, 62, 100
2, 225596, Note_off_c, 0, 62, 100
2, 225600, Note_on_c, 0, 61, 100
2, 225692, Note_off_c, 0, 61, 100
2, 225696, Note_on_c, 0, 59, 100
2, 225788, Note_off_c, 0, 71, 100
2, 225788, Note_off_c, 0, 59, 100
2, 225792, Note_on_c, 0, 76, 100
2, 225884, Note_off_c, 0, 76, 100
2, 225888, Note_on_c, 0, 74, 100
2, 225980, Note_off_c, 0, 74, 100
2, 225984, Note_on_c, 0, 73, 100
2, 226076, Note_off_c, 0, 73, 100
2, 226080, Note_on_c, 0, 71, 100
2, 226172, Note_off_c, 0, 71, 100
2, 226176, Note_on_c, 0, 69, 100
2, 226268, Note_off_c, 0, 69, 100
2, 226272, Note_on_c, 0, 67, 100
2, 226364, Note_off_c, 0, 67, 100
2, 226368, Note_on_c, 0, 64, 100
2, 226460, Note_off_c, 0, 64, 100
2, 226464, Note_on_c, 0, 62, 100
2, 226556, Note_off_c, 0, 62, 100
2, 226560, Note_on_c, 0, 61, 100
2, 226560, Note_on_c, 0, 67, 100
2, 226652, Note_off_c, 0, 61, 100
2, 226656, Note_on_c, 0, 59, 100
2, 226748, Note_off_c, 0, 59, 100
2, 226752, Note_on_c, 0, 57, 100
2, 226844, Note_off_c, 0, 57, 100
2, 226848, Note_on_c, 0, 55, 100
2, 226940, Note_off_c, 0, 67, 100
2, 226940, Note_off_c, 0, 55, 100
2, 226944, Note_on_c, 0, 66, 123
2, 226944, Note_on_c, 0, 62, 110
2, 227036, Note_off_c, 0, 62, 100
2, 227040, Note_on_c, 0, 61, 110
2, 227132, Note_off_c, 0, 61, 100
2, 227136, Note_on_c, 0, 59, 110
2, 227228, Note_off_c, 0, 59, 100
2, 227232, Note_on_c, 0, 57, 110
2, 227324, Note_off_c, 0, 66, 100
2, 227324, Note_off_c, 0, 57, 100
2, 227328, Note_on_c, 0, 55, 110
2, 227420, Note_off_c, 0, 55, 100
2, 227424, Note_on_c, 0, 54, 110
2, 227516, Note_off_c, 0, 54, 100
2, 227520, Note_on_c, 0, 66, 110
2, 227612, Note_off_c, 0, 66, 100
2, 227616, Note_on_c, 0, 67, 110
2, 227708, Note_off_c, 0, 67, 100
2, 227712, Note_on_c, 0, 69, 110
2, 227804, Note_off_c, 0, 69, 100
2, 227808, Note_on_c, 0, 71, 110
2, 227900, Note_off_c, 0, 71, 100
2, 227904, Note_on_c, 0, 73, 110
2, 227996, Note_off_c, 0, 73, 100
2, 228000, Note_on_c, 0, 74, 110
2, 228092, Note_off_c, 0, 74, 100
2, 228096, Note_on_c, 0, 69, 125
2, 228096, Note_on_c, 0, 66, 110
2, 228188, Note_off_c, 0, 66, 100
2, 228192, Note_on_c, 0, 64, 110
2, 228284, Note_off_c, 0, 64, 100
2, 228288, Note_on_c, 0, 62, 110
2, 228380, Note_off_c, 0, 62, 100
2, 228384, Note_on_c, 0, 61, 110
2, 228476, Note_off_c, 0, 69, 100
2, 228476, Note_off_c, 0, 61, 100
2, 228480, Note_on_c, 0, 59, 110
2, 228572, Note_off_c, 0, 59, 100
2, 228576, Note_on_c, 0, 57, 110
2, 228668, Note_off_c, 0, 57, 100
2, 228672, Note_on_c, 0, 69, 110
2, 228764, Note_off_c, 0, 69, 100
2, 228768, Note_on_c, 0, 71, 110
2, 228860, Note_off_c, 0, 71, 100
2, 228864, Note_on_c, 0, 73, 110
2, 228956, Note_off_c, 0, 73, 100
2, 228960, Note_on_c, 0, 74, 110
2, 229052, Note_off_c, 0, 74, 100
2, 229056, Note_on_c, 0, 76, 110
2, 229148, Note_off_c, 0, 76, 100
2, 229152, Note_on_c, 0, 78, 110
2, 229244, Note_off_c, 0, 78, 100
2, 229248, Note_on_c, 0, 71, 126
2, 229248, Note_on_c, 0, 67, 110
2, 229340, Note_off_c, 0, 67, 100
2, 229344, Note_on_c, 0, 66, 110
2, 229436, Note_off_c, 0, 66, 100
2, 229440, Note_on_c, 0, 64, 110
2, 229532, Note_off_c, 0, 64, 100
2, 229536, Note_on_c, 0, 62, 110
2, 229628, Note_off_c, 0, 71, 100
2, 229628, Note_off_c, 0, 62, 100
2, 229632, Note_on_c, 0, 61, 110
2, 229724, Note_off_c, 0, 61, 100
2, 229728, Note_on_c, 0, 59, 110
2, 229820, Note_off_c, 0, 59, 100
2, 229824, Note_on_c, 0, 71, 110
2, 229916, Note_off_c, 0, 71, 100
2, 229920, Note_on_c, 0, 73, 110
2, 230012, Note_off_c, 0, 73, 100
2, 230016, Note_on_c, 0, 67, 110
2, 230016, Note_on_c, 0, 74, 110
2, 230108, Note_off_c, 0, 74, 100
2, 230112, Note_on_c, 0, 76, 110
2, 230204, Note_off_c, 0, 76, 100
2, 230208, Note_on_c, 0, 78, 110
2, 230300, Note_off_c, 0, 78, 100
2, 230304, Note_on_c, 0, 79, 110
2, 230396, Note_off_c, 0, 67, 100
2, 230396, Note_off_c, 0, 79, 100
2, 230400, Note_on_c, 0, 79, 127
2, 230400, Note_on_c, 0, 76, 110
2, 230492, Note_off_c, 0, 76, 100
2, 230496, Note_on_c, 0, 74, 110
2, 230588, Note_off_c, 0, 74, 100
2, 230592, Note_on_c, 0, 73, 110
2, 230684, Note_off_c, 0, 73, 100
2, 230688, Note_on_c, 0, 71, 110
2, 230780, Note_off_c, 0, 79, 100
2, 230780, Note_off_c, 0, 71, 100
2, 230784, Note_on_c, 0, 69, 110
2, 230876, Note_off_c, 0, 69, 100
2, 230880, Note_on_c, 0, 67, 110
2, 230972, Note_off_c, 0, 67, 100
2, 230976, Note_on_c, 0, 79, 110
2, 231068, Note_off_c, 0, 79, 100
2, 231072, Note_on_c, 0, 81, 110
2, 231164, Note_off_c, 0, 81, 100
2, 231168, Note_on_c, 0, 79, 110
2, 231168, Note_on_c, 0, 83, 110
2, 231260, Note_off_c, 0, 83, 100
2, 231264, Note_on_c, 0, 85, 110
2, 231356, Note_off_c, 0, 85, 100
2, 231360, Note_on_c, 0, 86, 110
2, 231452, Note_off_c, 0, 86, 100
2, 231456, Note_on_c, 0, 88, 110
2, 231548, Note_off_c, 0, 79, 100
2, 231548, Note_off_c, 0, 88, 100
2, 231552, Note_on_c, 0, 78, 110
2, 231552, Note_on_c, 0, 90, 110
2, 231644, Note_off_c, 0, 90, 100
2, 231648, Note_on_c, 0, 88, 110
2, 231740, Note_off_c, 0, 88, 100
2, 231744, Note_on_c, 0, 86, 110
2, 231836, Note_off_c, 0, 86, 100
2, 231840, Note_on_c, 0, 85, 110
2, 231932, Note_off_c, 0, 78, 100
2, 231932, Note_off_c, 0, 85, 100
2, 231936, Note_on_c, 0, 83, 110
2, 232028, Note_off_c, 0, 83, 100
2, 232032, Note_on_c, 0, 81, 110
2, 232124, Note_off_c, 0, 81, 100
2, 232320, Note_on_c, 0, 81, 110
2, 232700, Note_off_c, 0, 81, 100
2, 232704, Note_on_c, 0, 74, 110
2, 232704, Note_on_c, 0, 86, 110
2, 232796, Note_off_c, 0, 86, 100
2, 232800, Note_on_c, 0, 85, 110
2, 232892, Note_off_c, 0, 85, 100
2, 232896, Note_on_c, 0, 83, 110
2, 232988, Note_off_c, 0, 83, 100
2, 232992, Note_on_c, 0, 81, 110
2, 233084, Note_off_c, 0, 74, 100
2, 233084, Note_off_c, 0, 81, 100
2, 233088, Note_on_c, 0, 79, 110
2, 233180, Note_off_c, 0, 79, 100
2, 233184, Note_on_c, 0, 78, 110
2, 233276, Note_off_c, 0, 78, 100
2, 233472, Note_on_c, 0, 78, 110
2, 233852, Note_off_c, 0, 78, 100
2, 234432, Note_on_c, 0, 74, 110
2, 234524, Note_off_c, 0, 74, 100
2, 234528, Note_on_c, 0, 76, 110
2, 234620, Note_off_c, 0, 76, 100
2, 234624, Note_on_c, 0, 78, 110
2, 234716, Note_off_c, 0, 78, 100
2, 234720, Note_on_c, 0, 79, 110
2, 234812, Note_off_c, 0, 79, 100
2, 234816, Note_on_c, 0, 81, 110
2, 234908, Note_off_c, 0, 81, 100
2, 234912, Note_on_c, 0, 82, 110
2, 235004, Note_off_c, 0, 82, 100
2, 235008, Note_on_c, 0, 83, 125
2, 235100, Note_off_c, 0, 83, 100
2, 235104, Note_on_c, 0, 81, 111
2, 235196, Note_off_c, 0, 81, 100
2, 235200, Note_on_c, 0, 79, 110
2, 235292, Note_off_c, 0, 79, 100
2, 235296, Note_on_c, 0, 78, 110
2, 235388, Note_off_c, 0, 78, 100
2, 235392, Note_on_c, 0, 76, 125
2, 235484, Note_off_c, 0, 76, 100
2, 235488, Note_on_c, 0, 74, 110
2, 235580, Note_off_c, 0, 74, 100
2, 235584, Note_on_c, 0, 79, 110
2, 235676, Note_off_c, 0, 79, 100
2, 235680, Note_on_c, 0, 78, 110
2, 235772, Note_off_c, 0, 78, 100
2, 235776, Note_on_c, 0, 76, 125
2, 235868, Note_off_c, 0, 76, 100
2, 235872, Note_on_c, 0, 74, 110
2, 235964, Note_off_c, 0, 74, 100
2, 235968, Note_on_c, 0, 72, 110
2, 236060, Note_off_c, 0, 72, 100
2, 236064, Note_on_c, 0, 71, 110
2, 236156, Note_off_c, 0, 71, 100
2, 236160, Note_on_c, 0, 76, 122
2, 236252, Note_off_c, 0, 76, 100
2, 236256, Note_on_c, 0, 74, 110
2, 236348, Note_off_c, 0, 74, 100
2, 236352, Note_on_c, 0, 73, 110
2, 236444, Note_off_c, 0, 73, 100
2, 236448, Note_on_c, 0, 71, 110
2, 236540, Note_off_c, 0, 71, 100
2, 236544, Note_on_c, 0, 69, 125
2, 236636, Note_off_c, 0, 69, 100
2, 236640, Note_on_c, 0, 68, 110
2, 236732, Note_off_c, 0, 68, 100
2, 236736, Note_on_c, 0, 64, 110
2, 236736, Note_on_c, 0, 67, 110
2, 236828, Note_off_c, 0, 64, 100
2, 236832, Note_on_c, 0, 62, 110
2, 236924, Note_off_c, 0, 62, 100
2, 236928, Note_on_c, 0, 61, 110
2, 237020, Note_off_c, 0, 61, 100
2, 237024, Note_on_c, 0, 59, 110
2, 237116, Note_off_c, 0, 59, 100
2, 237120, Note_on_c, 0, 57, 110
2, 237212, Note_off_c, 0, 57, 100
2, 237216, Note_on_c, 0, 56, 110
2, 237308, Note_off_c, 0, 56, 100
2, 237312, Note_on_c, 0, 64, 110
2, 237404, Note_off_c, 0, 64, 100
2, 237408, Note_on_c, 0, 62, 110
2, 237500, Note_off_c, 0, 62, 100
2, 237504, Note_on_c, 0, 61, 110
2, 237596, Note_off_c, 0, 61, 100
2, 237600, Note_on_c, 0, 62, 110
2, 237692, Note_off_c, 0, 67, 100
2, 237692, Note_off_c, 0, 62, 100
2, 237696, Note_on_c, 0, 64, 122
2, 237696, Note_on_c, 0, 66, 122
2, 238172, Note_off_c, 0, 64, 100
2, 238176, Note_on_c, 0, 61, 110
2, 238268, Note_off_c, 0, 61, 100
2, 238272, Note_on_c, 0, 62, 110
2, 238364, Note_off_c, 0, 62, 100
2, 238368, Note_on_c, 0, 64, 110
2, 238460, Note_off_c, 0, 66, 100
2, 238460, Note_off_c, 0, 64, 100
2, 238464, Note_on_c, 0, 66, 110
2, 238464, Note_on_c, 0, 62, 110
2, 238844, Note_off_c, 0, 66, 100
2, 238848, Note_on_c, 0, 71, 127
2, 239228, Note_off_c, 0, 62, 100
2, 239328, Note_on_c, 0, 62, 110
2, 239420, Note_off_c, 0, 62, 100
2, 239424, Note_on_c, 0, 59, 110
2, 239516, Note_off_c, 0, 59, 100
2, 239520, Note_on_c, 0, 65, 110
2, 239612, Note_off_c, 0, 65, 100
2, 239616, Note_on_c, 0, 66, 110
2, 239804, Note_off_c, 0, 71, 100
2, 239808, Note_on_c, 0, 69, 110
2, 239996, Note_off_c, 0, 66, 100
2, 240000, Note_on_c, 0, 62, 110
2, 240092, Note_off_c, 0, 62, 100
2, 240096, Note_on_c, 0, 66, 110
2, 240188, Note_off_c, 0, 69, 100
2, 240188, Note_off_c, 0, 66, 100
2, 240192, Note_on_c, 0, 68, 110
2, 240192, Note_on_c, 0, 65, 110
2, 240284, Note_off_c, 0, 65, 100
2, 240288, Note_on_c, 0, 62, 110
2, 240380, Note_off_c, 0, 68, 100
2, 240380, Note_off_c, 0, 62, 100
2, 240384, Note_on_c, 0, 67, 110
2, 240384, Note_on_c, 0, 58, 110
2, 240476, Note_off_c, 0, 58, 100
2, 240480, Note_on_c, 0, 64, 110
2, 240572, Note_off_c, 0, 67, 100
2, 240572, Note_off_c, 0, 64, 100
2, 240576, Note_on_c, 0, 62, 110
2, 240576, Note_on_c, 0, 66, 110
2, 240668, Note_off_c, 0, 62, 100
2, 240672, Note_on_c, 0, 57, 110
2, 240764, Note_off_c, 0, 57, 100
2, 240768, Note_on_c, 0, 58, 110
2, 240956, Note_off_c, 0, 66, 100
2, 240960, Note_on_c, 0, 64, 110
2, 241148, Note_off_c, 0, 58, 100
2, 241148, Note_off_c, 0, 64, 100
2, 241152, Note_on_c, 0, 58, 110
2, 241344, Note_on_c, 0, 55, 110
2, 241532, Note_off_c, 0, 55, 100
2, 241536, Note_on_c, 0, 52, 110
2, 241724, Note_off_c, 0, 58, 100
2, 241728, Note_on_c, 0, 58, 110
2, 241916, Note_off_c, 0, 52, 100
2, 241920, Note_on_c, 0, 54, 110
2, 242012, Note_off_c, 0, 58, 100
2, 242016, Note_on_c, 0, 56, 110
2, 242108, Note_off_c, 0, 56, 100
2, 242112, Note_on_c, 0, 57, 110
2, 242204, Note_off_c, 0, 54, 100
2, 242208, Note_on_c, 0, 53, 110
2, 242300, Note_off_c, 0, 53, 100
2, 242304, Note_on_c, 0, 54, 110
2, 242396, Note_off_c, 0, 57, 100
2, 242400, Note_on_c, 0, 61, 110
2, 242492, Note_off_c, 0, 61, 100
2, 242496, Note_on_c, 0, 62, 110
2, 242588, Note_off_c, 0, 54, 100
2, 242592, Note_on_c, 0, 55, 110
2, 242664, Note_on_c, 0, 57, 110
2, 242684, Note_off_c, 0, 55, 100
2, 242780, Note_off_c, 0, 62, 100
2, 242784, Note_on_c, 0, 61, 110
2, 242876, Note_off_c, 0, 61, 100
2, 242880, Note_on_c, 0, 62, 110
2, 242948, Note_off_c, 0, 57, 100
2, 242976, Note_on_c, 0, 58, 110
2, 243068, Note_off_c, 0, 58, 100
2, 243072, Note_on_c, 0, 59, 110
2, 243164, Note_off_c, 0, 62, 100
2, 243168, Note_on_c, 0, 53, 110
2, 243260, Note_off_c, 0, 53, 100
2, 243264, Note_on_c, 0, 54, 110
2, 243356, Note_off_c, 0, 59, 100
2, 243360, Note_on_c, 0, 49, 110
2, 243452, Note_off_c, 0, 49, 100
2, 243456, Note_on_c, 0, 50, 110
2, 243548, Note_off_c, 0, 54, 100
2, 243552, Note_on_c, 0, 54, 110
2, 243644, Note_off_c, 0, 54, 100
2, 243648, Note_on_c, 0, 55, 110
2, 243740, Note_off_c, 0, 50, 100
2, 243744, Note_on_c, 0, 51, 110
2, 243836, Note_off_c, 0, 51, 100
2, 243840, Note_on_c, 0, 49, 110
2, 243932, Note_off_c, 0, 55, 100
2, 243936, Note_on_c, 0, 57, 110
2, 244028, Note_off_c, 0, 57, 100
2, 244032, Note_on_c, 0, 59, 110
2, 244124, Note_off_c, 0, 49, 100
2, 244128, Note_on_c, 0, 54, 110
2, 244220, Note_off_c, 0, 54, 100
2, 244224, Note_on_c, 0, 55, 110
2, 244316, Note_off_c, 0, 59, 100
2, 244320, Note_on_c, 0, 58, 110
2, 244412, Note_off_c, 0, 58, 100
2, 244416, Note_on_c, 0, 59, 110
2, 244508, Note_off_c, 0, 55, 100
2, 244512, Note_on_c, 0, 54, 110
2, 244604, Note_off_c, 0, 54, 100
2, 244608, Note_on_c, 0, 55, 110
2, 244700, Note_off_c, 0, 59, 100
2, 244704, Note_on_c, 0, 63, 110
2, 244796, Note_off_c, 0, 63, 100
2, 244800, Note_on_c, 0, 64, 110
2, 244892, Note_off_c, 0, 55, 100
2, 244896, Note_on_c, 0, 57, 110
2, 244988, Note_off_c, 0, 57, 100
2, 244992, Note_on_c, 0, 59, 110
2, 245084, Note_off_c, 0, 64, 100
2, 245088, Note_on_c, 0, 66, 110
2, 245180, Note_off_c, 0, 66, 100
2, 245184, Note_on_c, 0, 67, 110
2, 245276, Note_off_c, 0, 59, 100
2, 245280, Note_on_c, 0, 58, 110
2, 245372, Note_off_c, 0, 58, 100
2, 245376, Note_on_c, 0, 57, 110
2, 245564, Note_off_c, 0, 67, 100
2, 245568, Note_on_c, 0, 68, 110
2, 245756, Note_off_c, 0, 57, 100
2, 245756, Note_off_c, 0, 68, 100
2, 245760, Note_on_c, 0, 69, 127
2, 245952, Note_on_c, 0, 64, 110
2, 246140, Note_off_c, 0, 64, 100
2, 246144, Note_on_c, 0, 61, 110
2, 246332, Note_off_c, 0, 69, 100
2, 246332, Note_off_c, 0, 61, 100
2, 246336, Note_on_c, 0, 67, 110
2, 246336, Note_on_c, 0, 57, 110
2, 246524, Note_off_c, 0, 67, 100
2, 246528, Note_on_c, 0, 66, 110
2, 246716, Note_off_c, 0, 57, 100
2, 246720, Note_on_c, 0, 58, 110
2, 246908, Note_off_c, 0, 66, 100
2, 246908, Note_off_c, 0, 58, 100
2, 246912, Note_on_c, 0, 59, 127
2, 247104, Note_on_c, 0, 66, 110
2, 247292, Note_off_c, 0, 66, 100
2, 247296, Note_on_c, 0, 63, 110
2, 247484, Note_off_c, 0, 59, 100
2, 247484, Note_off_c, 0, 63, 100
2, 247488, Note_on_c, 0, 57, 110
2, 247488, Note_on_c, 0, 59, 110
2, 247676, Note_off_c, 0, 57, 100
2, 247680, Note_on_c, 0, 55, 110
2, 247868, Note_off_c, 0, 59, 100
2, 247868, Note_off_c, 0, 55, 100
2, 247872, Note_on_c, 0, 71, 110
2, 248060, Note_off_c, 0, 71, 100
2, 248064, Note_on_c, 0, 72, 125
2, 248256, Note_on_c, 0, 67, 110
2, 248444, Note_off_c, 0, 67, 100
2, 248448, Note_on_c, 0, 64, 110
2, 248636, Note_off_c, 0, 72, 100
2, 248636, Note_off_c, 0, 64, 100
2, 248640, Note_on_c, 0, 71, 110
2, 248640, Note_on_c, 0, 60, 110
2, 248828, Note_off_c, 0, 71, 100
2, 248832, Note_on_c, 0, 69, 110
2, 249020, Note_off_c, 0, 60, 100
2, 249024, Note_on_c, 0, 61, 110
2, 249212, Note_off_c, 0, 69, 100
2, 249212, Note_off_c, 0, 61, 100
2, 249216, Note_on_c, 0, 62, 126
2, 249408, Note_on_c, 0, 69, 110
2, 249596, Note_off_c, 0, 69, 100
2, 249600, Note_on_c, 0, 66, 110
2, 249764, Note_off_c, 0, 62, 100
2, 249788, Note_off_c, 0, 66, 100
2, 249792, Note_on_c, 0, 60, 110
2, 249792, Note_on_c, 0, 62, 110
2, 249980, Note_off_c, 0, 60, 100
2, 250172, Note_off_c, 0, 62, 100
2, 250176, Note_on_c, 0, 74, 110
2, 250268, Note_off_c, 0, 74, 100
2, 250272, Note_on_c, 0, 73, 110
2, 250364, Note_off_c, 0, 73, 100
2, 250368, Note_on_c, 0, 71, 100
2, 250940, Note_off_c, 0, 71, 100
2, 250944, Note_on_c, 0, 76, 102
2, 251136, Key_signature, 1, "major"
2, 251324, Note_off_c, 0, 76, 100
2, 251328, Note_on_c, 0, 76, 104
2, 251420, Note_off_c, 0, 76, 100
2, 251424, Note_on_c, 0, 74, 105
2, 251516, Note_off_c, 0, 74, 100
2, 251520, Note_on_c, 0, 72, 105
2, 251900, Note_off_c, 0, 72, 100
2, 251904, Note_on_c, 0, 73, 107
2, 252092, Note_off_c, 0, 73, 100
2, 252096, Note_on_c, 0, 78, 108
2, 252476, Note_off_c, 0, 78, 100
2, 252480, Note_on_c, 0, 78, 110
2, 252572, Note_off_c, 0, 78, 100
2, 252576, Note_on_c, 0, 76, 110
2, 252668, Note_off_c, 0, 76, 100
2, 252672, Note_on_c, 0, 74, 111
2, 253244, Note_off_c, 0, 74, 100
2, 253248, Note_on_c, 0, 71, 113
2, 253340, Note_off_c, 0, 71, 100
2, 253344, Note_on_c, 0, 79, 114
2, 253628, Note_off_c, 0, 79, 100
2, 253632, Note_on_c, 0, 79, 115
2, 253724, Note_off_c, 0, 79, 100
2, 253728, Note_on_c, 0, 77, 116
2, 253820, Note_off_c, 0, 77, 100
2, 253824, Note_on_c, 0, 76, 116
2, 254012, Note_off_c, 0, 76, 100
2, 254016, Note_on_c, 0, 79, 117
2, 254204, Note_off_c, 0, 79, 100
2, 254208, Note_on_c, 0, 78, 118
2, 254396, Note_off_c, 0, 78, 100
2, 254400, Note_on_c, 0, 79, 119
2, 254588, Note_off_c, 0, 79, 100
2, 254592, Note_on_c, 0, 84, 120
2, 254780, Note_off_c, 0, 84, 100
2, 254976, Note_on_c, 0, 69, 120
2, 255024, Note_on_c, 0, 71, 120
2, 255056, Note_off_c, 0, 69, 100
2, 255072, Note_on_c, 0, 69, 120
2, 255104, Note_off_c, 0, 71, 100
2, 255120, Note_on_c, 0, 71, 120
2, 255152, Note_off_c, 0, 69, 100
2, 255168, Note_on_c, 0, 69, 120
2, 255200, Note_off_c, 0, 71, 100
2, 255216, Note_on_c, 0, 71, 120
2, 255248, Note_off_c, 0, 69, 100
2, 255264, Note_on_c, 0, 69, 120
2, 255296, Note_off_c, 0, 71, 100
2, 255312, Note_on_c, 0, 71, 120
2, 255344, Note_off_c, 0, 69, 100
2, 255360, Note_on_c, 0, 66, 120
2, 255360, Note_on_c, 0, 69, 120
2, 255392, Note_off_c, 0, 71, 100
2, 255408, Note_on_c, 0, 71, 120
2, 255440, Note_off_c, 0, 69, 100
2, 255456, Note_on_c, 0, 69, 120
2, 255488, Note_off_c, 0, 71, 100
2, 255504, Note_on_c, 0, 71, 120
2, 255536, Note_off_c, 0, 69, 100
2, 255552, Note_on_c, 0, 69, 120
2, 255584, Note_off_c, 0, 71, 100
2, 255600, Note_on_c, 0, 71, 120
2, 255632, Note_off_c, 0, 69, 100
2, 255648, Note_on_c, 0, 67, 120
2, 255680, Note_off_c, 0, 71, 100
2, 255696, Note_on_c, 0, 69, 120
2, 255728, Note_off_c, 0, 67, 100
2, 255740, Note_off_c, 0, 66, 100
2, 255744, Note_on_c, 0, 67, 120
2, 255776, Note_off_c, 0, 69, 100
2, 256124, Note_off_c, 0, 67, 100
2, 256320, Note_on_c, 0, 67, 110
2, 256412, Note_off_c, 0, 67, 100
2, 256416, Note_on_c, 0, 69, 110
2, 256508, Note_off_c, 0, 69, 100
2, 256512, Note_on_c, 0, 71, 110
2, 256604, Note_off_c, 0, 71, 100
2, 256608, Note_on_c, 0, 72, 110
2, 256700, Note_off_c, 0, 72, 100
2, 256704, Note_on_c, 0, 74, 110
2, 256796, Note_off_c, 0, 74, 100
2, 256800, Note_on_c, 0, 76, 110
2, 256892, Note_off_c, 0, 76, 100
2, 256896, Note_on_c, 0, 71, 124
2, 257276, Note_off_c, 0, 71, 100
2, 257448, Note_on_c, 0, 71, 110
2, 257540, Note_off_c, 0, 71, 100
2, 257568, Note_on_c, 0, 72, 110
2, 257660, Note_off_c, 0, 72, 100
2, 257664, Note_on_c, 0, 74, 110
2, 257756, Note_off_c, 0, 74, 100
2, 257760, Note_on_c, 0, 76, 110
2, 257852, Note_off_c, 0, 76, 100
2, 257856, Note_on_c, 0, 78, 110
2, 257948, Note_off_c, 0, 78, 100
2, 257952, Note_on_c, 0, 79, 110
2, 258044, Note_off_c, 0, 79, 100
2, 258048, Note_on_c, 0, 74, 125
2, 258428, Note_off_c, 0, 74, 100
2, 258624, Note_on_c, 0, 74, 110
2, 258716, Note_off_c, 0, 74, 100
2, 258720, Note_on_c, 0, 76, 110
2, 258812, Note_off_c, 0, 76, 100
2, 258816, Note_on_c, 0, 78, 110
2, 258908, Note_off_c, 0, 78, 100
2, 258912, Note_on_c, 0, 76, 110
2, 259004, Note_off_c, 0, 76, 100
2, 259008, Note_on_c, 0, 78, 110
2, 259100, Note_off_c, 0, 78, 100
2, 259104, Note_on_c, 0, 79, 110
2, 259196, Note_off_c, 0, 79, 100
2, 259200, Note_on_c, 0, 81, 110
2, 259292, Note_off_c, 0, 81, 100
2, 259296, Note_on_c, 0, 80, 110
2, 259388, Note_off_c, 0, 80, 100
2, 259392, Note_on_c, 0, 81, 110
2, 259484, Note_off_c, 0, 81, 100
2, 259488, Note_on_c, 0, 83, 110
2, 259580, Note_off_c, 0, 83, 100
2, 259584, Note_on_c, 0, 84, 110
2, 259676, Note_off_c, 0, 84, 100
2, 259680, Note_on_c, 0, 83, 110
2, 259772, Note_off_c, 0, 83, 100
2, 259776, Note_on_c, 0, 81, 110
2, 259868, Note_off_c, 0, 81, 100
2, 259872, Note_on_c, 0, 79, 110
2, 259964, Note_off_c, 0, 79, 100
2, 259968, Note_on_c, 0, 78, 110
2, 260060, Note_off_c, 0, 78, 100
2, 260064, Note_on_c, 0, 75, 110
2, 260156, Note_off_c, 0, 75, 100
2, 260160, Note_on_c, 0, 74, 110
2, 260252, Note_off_c, 0, 74, 100
2, 260256, Note_on_c, 0, 76, 110
2, 260348, Note_off_c, 0, 76, 100
2, 260352, Note_on_c, 0, 78, 110
2, 260444, Note_off_c, 0, 78, 100
2, 260448, Note_on_c, 0, 76, 110
2, 260540, Note_off_c, 0, 76, 100
2, 260544, Note_on_c, 0, 74, 110
2, 260636, Note_off_c, 0, 74, 100
2, 260640, Note_on_c, 0, 72, 110
2, 260732, Note_off_c, 0, 72, 100
2, 260736, Note_on_c, 0, 71, 110
2, 260828, Note_off_c, 0, 71, 100
2, 260832, Note_on_c, 0, 69, 110
2, 260924, Note_off_c, 0, 69, 100
2, 260928, Note_on_c, 0, 67, 110
2, 261020, Note_off_c, 0, 67, 100
2, 261024, Note_on_c, 0, 69, 110
2, 261116, Note_off_c, 0, 69, 100
2, 261120, Note_on_c, 0, 71, 110
2, 261212, Note_off_c, 0, 71, 100
2, 261216, Note_on_c, 0, 72, 110
2, 261308, Note_off_c, 0, 72, 100
2, 261312, Note_on_c, 0, 74, 110
2, 261404, Note_off_c, 0, 74, 100
2, 261408, Note_on_c, 0, 75, 110
2, 261500, Note_off_c, 0, 75, 100
2, 261504, Note_on_c, 0, 76, 110
2, 261596, Note_off_c, 0, 76, 100
2, 261600, Note_on_c, 0, 79, 110
2, 261692, Note_off_c, 0, 79, 100
2, 261696, Note_on_c, 0, 78, 110
2, 261788, Note_off_c, 0, 78, 100
2, 261792, Note_on_c, 0, 76, 110
2, 261884, Note_off_c, 0, 76, 100
2, 261888, Note_on_c, 0, 74, 110
2, 261980, Note_off_c, 0, 74, 100
2, 261984, Note_on_c, 0, 79, 110
2, 262076, Note_off_c, 0, 79, 100
2, 262080, Note_on_c, 0, 78, 110
2, 262172, Note_off_c, 0, 78, 100
2, 262176, Note_on_c, 0, 79, 110
2, 262268, Note_off_c, 0, 79, 100
2, 262272, Note_on_c, 0, 73, 110
2, 262368, Note_on_c, 0, 67, 110
2, 262460, Note_off_c, 0, 67, 100
2, 262464, Note_on_c, 0, 66, 110
2, 262556, Note_off_c, 0, 66, 100
2, 262560, Note_on_c, 0, 67, 110
2, 262652, Note_off_c, 0, 73, 100
2, 262652, Note_off_c, 0, 67, 100
2, 262656, Note_on_c, 0, 72, 110
2, 262656, Note_on_c, 0, 69, 110
2, 262844, Note_off_c, 0, 69, 100
2, 262848, Note_on_c, 0, 63, 110
2, 263036, Note_off_c, 0, 63, 100
2, 263040, Note_on_c, 0, 66, 110
2, 263228, Note_off_c, 0, 66, 100
2, 263232, Note_on_c, 0, 69, 110
2, 263420, Note_off_c, 0, 72, 100
2, 263424, Note_on_c, 0, 71, 110
2, 263612, Note_off_c, 0, 69, 100
2, 263616, Note_on_c, 0, 67, 110
2, 263804, Note_off_c, 0, 71, 100
2, 263804, Note_off_c, 0, 67, 100
2, 263808, Note_on_c, 0, 73, 110
2, 263996, Note_off_c, 0, 73, 100
2, 264000, Note_on_c, 0, 74, 110
2, 264188, Note_off_c, 0, 74, 100
2, 264192, Note_on_c, 0, 76, 110
2, 264192, Note_on_c, 0, 67, 110
2, 264380, Note_off_c, 0, 76, 100
2, 264380, Note_off_c, 0, 67, 100
2, 264384, Note_on_c, 0, 78, 110
2, 264572, Note_off_c, 0, 78, 100
2, 264576, Note_on_c, 0, 79, 110
2, 265148, Note_off_c, 0, 79, 100
2, 265152, Note_on_c, 0, 78, 110
2, 265340, Note_off_c, 0, 78, 100
2, 265344, Note_on_c, 0, 76, 110
2, 265532, Note_off_c, 0, 76, 100
2, 265536, Note_on_c, 0, 79, 110
2, 265628, Note_off_c, 0, 79, 100
2, 265632, Note_on_c, 0, 78, 110
2, 265724, Note_off_c, 0, 78, 100
2, 265728, Note_on_c, 0, 66, 110
2, 266108, Note_off_c, 0, 66, 100
2, 266688, Note_on_c, 0, 76, 110
2, 266780, Note_off_c, 0, 76, 100
2, 266784, Note_on_c, 0, 74, 110
2, 266876, Note_off_c, 0, 74, 100
2, 266880, Note_on_c, 0, 62, 110
2, 267260, Note_off_c, 0, 62, 100
2, 267840, Note_on_c, 0, 83, 110
2, 267932, Note_off_c, 0, 83, 100
2, 267936, Note_on_c, 0, 81, 110
2, 268028, Note_off_c, 0, 81, 100
2, 268032, Note_on_c, 0, 78, 110
2, 268124, Note_off_c, 0, 78, 100
2, 268128, Note_on_c, 0, 74, 110
2, 268220, Note_off_c, 0, 74, 100
2, 268224, Note_on_c, 0, 73, 110
2, 268316, Note_off_c, 0, 73, 100
2, 268320, Note_on_c, 0, 71, 110
2, 268412, Note_off_c, 0, 71, 100
2, 268416, Note_on_c, 0, 70, 110
2, 268416, Note_on_c, 0, 61, 110
2, 268508, Note_off_c, 0, 61, 100
2, 268512, Note_on_c, 0, 60, 110
2, 268604, Note_off_c, 0, 60, 100
2, 268608, Note_on_c, 0, 61, 110
2, 268700, Note_off_c, 0, 61, 100
2, 268704, Note_on_c, 0, 63, 110
2, 268796, Note_off_c, 0, 70, 100
2, 268796, Note_off_c, 0, 63, 100
2, 268800, Note_on_c, 0, 69, 110
2, 268800, Note_on_c, 0, 64, 110
2, 268892, Note_off_c, 0, 64, 100
2, 268896, Note_on_c, 0, 63, 110
2, 268988, Note_off_c, 0, 63, 100
2, 268992, Note_on_c, 0, 64, 110
2, 269084, Note_off_c, 0, 64, 100
2, 269088, Note_on_c, 0, 66, 110
2, 269180, Note_off_c, 0, 66, 100
2, 269184, Note_on_c, 0, 67, 110
2, 269276, Note_off_c, 0, 67, 100
2, 269280, Note_on_c, 0, 66, 110
2, 269372, Note_off_c, 0, 69, 100
2, 269372, Note_off_c, 0, 66, 100
2, 269376, Note_on_c, 0, 71, 110
2, 269376, Note_on_c, 0, 64, 110
2, 269468, Note_off_c, 0, 64, 100
2, 269472, Note_on_c, 0, 62, 110
2, 269564, Note_off_c, 0, 71, 100
2, 269564, Note_off_c, 0, 62, 100
2, 269568, Note_on_c, 0, 73, 110
2, 269660, Note_off_c, 0, 73, 100
2, 269664, Note_on_c, 0, 72, 110
2, 269756, Note_off_c, 0, 72, 100
2, 269760, Note_on_c, 0, 73, 110
2, 269852, Note_off_c, 0, 73, 100
2, 269856, Note_on_c, 0, 74, 110
2, 269948, Note_off_c, 0, 74, 100
2, 269952, Note_on_c, 0, 76, 110
2, 270044, Note_off_c, 0, 76, 100
2, 270048, Note_on_c, 0, 75, 110
2, 270140, Note_off_c, 0, 75, 100
2, 270144, Note_on_c, 0, 76, 110
2, 270236, Note_off_c, 0, 76, 100
2, 270240, Note_on_c, 0, 78, 110
2, 270332, Note_off_c, 0, 78, 100
2, 270336, Note_on_c, 0, 79, 110
2, 270428, Note_off_c, 0, 79, 100
2, 270432, Note_on_c, 0, 78, 110
2, 270524, Note_off_c, 0, 78, 100
2, 270528, Note_on_c, 0, 76, 110
2, 270620, Note_off_c, 0, 76, 100
2, 270624, Note_on_c, 0, 74, 110
2, 270716, Note_off_c, 0, 74, 100
2, 270720, Note_on_c, 0, 73, 110
2, 270812, Note_off_c, 0, 73, 100
2, 270816, Note_on_c, 0, 70, 110
2, 270908, Note_off_c, 0, 70, 100
2, 270912, Note_on_c, 0, 69, 110
2, 271004, Note_off_c, 0, 69, 100
2, 271008, Note_on_c, 0, 71, 110
2, 271100, Note_off_c, 0, 71, 100
2, 271104, Note_on_c, 0, 72, 110
2, 271196, Note_off_c, 0, 72, 100
2, 271200, Note_on_c, 0, 71, 110
2, 271292, Note_off_c, 0, 71, 100
2, 271296, Note_on_c, 0, 69, 110
2, 271388, Note_off_c, 0, 69, 100
2, 271392, Note_on_c, 0, 67, 110
2, 271484, Note_off_c, 0, 67, 100
2, 271488, Note_on_c, 0, 66, 110
2, 271580, Note_off_c, 0, 66, 100
2, 271584, Note_on_c, 0, 67, 110
2, 271676, Note_off_c, 0, 67, 100
2, 271680, Note_on_c, 0, 69, 110
2, 271772, Note_off_c, 0, 69, 100
2, 271776, Note_on_c, 0, 71, 110
2, 271868, Note_off_c, 0, 71, 100
2, 271872, Note_on_c, 0, 72, 110
2, 271920, Note_on_c, 0, 74, 110
2, 271952, Note_off_c, 0, 72, 100
2, 271968, Note_on_c, 0, 72, 110
2, 272000, Note_off_c, 0, 74, 100
2, 272016, Note_on_c, 0, 74, 110
2, 272048, Note_off_c, 0, 72, 100
2, 272064, Note_on_c, 0, 72, 110
2, 272096, Note_off_c, 0, 74, 100
2, 272112, Note_on_c, 0, 74, 110
2, 272144, Note_off_c, 0, 72, 100
2, 272160, Note_on_c, 0, 72, 110
2, 272192, Note_off_c, 0, 74, 100
2, 272208, Note_on_c, 0, 74, 110
2, 272240, Note_off_c, 0, 72, 100
2, 272256, Note_on_c, 0, 72, 110
2, 272288, Note_off_c, 0, 74, 100
2, 272304, Note_on_c, 0, 74, 110
2, 272336, Note_off_c, 0, 72, 100
2, 272352, Note_on_c, 0, 72, 110
2, 272384, Note_off_c, 0, 74, 100
2, 272400, Note_on_c, 0, 74, 110
2, 272432, Note_off_c, 0, 72, 100
2, 272448, Note_on_c, 0, 72, 110
2, 272480, Note_off_c, 0, 74, 100
2, 272496, Note_on_c, 0, 74, 110
2, 272528, Note_off_c, 0, 72, 100
2, 272544, Note_on_c, 0, 72, 110
2, 272576, Note_off_c, 0, 74, 100
2, 272592, Note_on_c, 0, 74, 110
2, 272624, Note_off_c, 0, 72, 100
2, 272640, Note_on_c, 0, 71, 110
2, 272672, Note_off_c, 0, 74, 100
2, 273020, Note_off_c, 0, 71, 100
2, 273024, Note_on_c, 0, 69, 110
2, 273072, Note_on_c, 0, 71, 110
2, 273104, Note_off_c, 0, 69, 100
2, 273120, Note_on_c, 0, 69, 110
2, 273152, Note_off_c, 0, 71, 100
2, 273168, Note_on_c, 0, 71, 110
2, 273200, Note_off_c, 0, 69, 100
2, 273216, Note_on_c, 0, 69, 110
2, 273248, Note_off_c, 0, 71, 100
2, 273264, Note_on_c, 0, 71, 110
2, 273296, Note_off_c, 0, 69, 100
2, 273312, Note_on_c, 0, 69, 110
2, 273344, Note_off_c, 0, 71, 100
2, 273360, Note_on_c, 0, 71, 110
2, 273392, Note_off_c, 0, 69, 100
2, 273408, Note_on_c, 0, 69, 110
2, 273440, Note_off_c, 0, 71, 100
2, 273456, Note_on_c, 0, 71, 110
2, 273488, Note_off_c, 0, 69, 100
2, 273504, Note_on_c, 0, 69, 110
2, 273536, Note_off_c, 0, 71, 100
2, 273552, Note_on_c, 0, 71, 110
2, 273584, Note_off_c, 0, 69, 100
2, 273600, Note_on_c, 0, 69, 110
2, 273632, Note_off_c, 0, 71, 100
2, 273648, Note_on_c, 0, 71, 110
2, 273680, Note_off_c, 0, 69, 100
2, 273696, Note_on_c, 0, 69, 110
2, 273728, Note_off_c, 0, 71, 100
2, 273744, Note_on_c, 0, 71, 110
2, 273776, Note_off_c, 0, 69, 100
2, 273792, Note_on_c, 0, 68, 110
2, 273824, Note_off_c, 0, 71, 100
2, 273884, Note_off_c, 0, 68, 100
2, 273888, Note_on_c, 0, 71, 110
2, 273980, Note_off_c, 0, 71, 100
2, 273984, Note_on_c, 0, 68, 110
2, 274076, Note_off_c, 0, 68, 100
2, 274080, Note_on_c, 0, 64, 110
2, 274172, Note_off_c, 0, 64, 100
2, 274176, Note_on_c, 0, 67, 110
2, 274224, Note_on_c, 0, 69, 110
2, 274256, Note_off_c, 0, 67, 100
2, 274272, Note_on_c, 0, 67, 110
2, 274304, Note_off_c, 0, 69, 100
2, 274320, Note_on_c, 0, 69, 110
2, 274352, Note_off_c, 0, 67, 100
2, 274368, Note_on_c, 0, 67, 110
2, 274400, Note_off_c, 0, 69, 100
2, 274416, Note_on_c, 0, 69, 110
2, 274448, Note_off_c, 0, 67, 100
2, 274464, Note_on_c, 0, 67, 110
2, 274496, Note_off_c, 0, 69, 100
2, 274512, Note_on_c, 0, 69, 110
2, 274544, Note_off_c, 0, 67, 100
2, 274560, Note_on_c, 0, 67, 110
2, 274592, Note_off_c, 0, 69, 100
2, 274608, Note_on_c, 0, 69, 110
2, 274640, Note_off_c, 0, 67, 100
2, 274656, Note_on_c, 0, 67, 110
2, 274688, Note_off_c, 0, 69, 100
2, 274704, Note_on_c, 0, 69, 110
2, 274736, Note_off_c, 0, 67, 100
2, 274752, Note_on_c, 0, 67, 110
2, 274784, Note_off_c, 0, 69, 100
2, 274800, Note_on_c, 0, 69, 110
2, 274832, Note_off_c, 0, 67, 100
2, 274848, Note_on_c, 0, 67, 110
2, 274880, Note_off_c, 0, 69, 100
2, 274896, Note_on_c, 0, 69, 110
2, 274928, Note_off_c, 0, 67, 100
2, 274944, Note_on_c, 0, 66, 110
2, 274976, Note_off_c, 0, 69, 100
2, 275036, Note_off_c, 0, 66, 100
2, 275040, Note_on_c, 0, 69, 110
2, 275132, Note_off_c, 0, 69, 100
2, 275136, Note_on_c, 0, 66, 110
2, 275228, Note_off_c, 0, 66, 100
2, 275232, Note_on_c, 0, 62, 110
2, 275324, Note_off_c, 0, 62, 100
2, 275328, Note_on_c, 0, 66, 110
2, 275420, Note_off_c, 0, 66, 100
2, 275424, Note_on_c, 0, 64, 110
2, 275516, Note_off_c, 0, 64, 100
2, 275520, Note_on_c, 0, 66, 110
2, 275612, Note_off_c, 0, 66, 100
2, 275616, Note_on_c, 0, 67, 110
2, 275708, Note_off_c, 0, 67, 100
2, 275712, Note_on_c, 0, 69, 110
2, 275804, Note_off_c, 0, 69, 100
2, 275808, Note_on_c, 0, 71, 110
2, 275900, Note_off_c, 0, 71, 100
2, 275904, Note_on_c, 0, 83, 110
2, 275904, Note_on_c, 0, 73, 110
2, 275996, Note_off_c, 0, 73, 100
2, 276000, Note_on_c, 0, 75, 110
2, 276092, Note_off_c, 0, 83, 100
2, 276092, Note_off_c, 0, 75, 100
2, 276096, Note_on_c, 0, 76, 110
2, 276284, Note_off_c, 0, 76, 100
2, 276288, Note_on_c, 0, 88, 110
2, 276476, Note_off_c, 0, 88, 100
2, 276480, Note_on_c, 0, 64, 110
2, 276572, Note_off_c, 0, 64, 100
2, 276576, Note_on_c, 0, 62, 110
2, 276668, Note_off_c, 0, 62, 100
2, 276672, Note_on_c, 0, 64, 110
2, 276764, Note_off_c, 0, 64, 100
2, 276768, Note_on_c, 0, 66, 110
2, 276860, Note_off_c, 0, 66, 100
2, 276864, Note_on_c, 0, 67, 110
2, 276956, Note_off_c, 0, 67, 100
2, 276960, Note_on_c, 0, 69, 110
2, 277052, Note_off_c, 0, 69, 100
2, 277056, Note_on_c, 0, 81, 110
2, 277056, Note_on_c, 0, 71, 110
2, 277148, Note_off_c, 0, 71, 100
2, 277152, Note_on_c, 0, 73, 110
2, 277244, Note_off_c, 0, 81, 100
2, 277244, Note_off_c, 0, 73, 100
2, 277248, Note_on_c, 0, 74, 110
2, 277436, Note_off_c, 0, 74, 100
2, 277440, Note_on_c, 0, 86, 110
2, 277628, Note_off_c, 0, 86, 100
2, 277632, Note_on_c, 0, 62, 110
2, 277724, Note_off_c, 0, 62, 100
2, 277728, Note_on_c, 0, 60, 110
2, 277820, Note_off_c, 0, 60, 100
2, 277824, Note_on_c, 0, 62, 110
2, 277916, Note_off_c, 0, 62, 100
2, 277920, Note_on_c, 0, 63, 110
2, 278012, Note_off_c, 0, 63, 100
2, 278016, Note_on_c, 0, 65, 110
2, 278108, Note_off_c, 0, 65, 100
2, 278112, Note_on_c, 0, 67, 110
2, 278204, Note_off_c, 0, 67, 100
2, 278208, Note_on_c, 0, 69, 110
2, 278208, Note_on_c, 0, 79, 110
2, 278300, Note_off_c, 0, 69, 100
2, 278304, Note_on_c, 0, 71, 110
2, 278396, Note_off_c, 0, 79, 100
2, 278396, Note_off_c, 0, 71, 100
2, 278400, Note_on_c, 0, 72, 110
2, 278588, Note_off_c, 0, 72, 100
2, 278592, Note_on_c, 0, 84, 110
2, 278876, Note_off_c, 0, 84, 100
2, 278880, Note_on_c, 0, 76, 120
2, 278972, Note_off_c, 0, 76, 100
2, 278976, Note_on_c, 0, 77, 120
2, 279068, Note_off_c, 0, 77, 100
2, 279072, Note_on_c, 0, 79, 120
2, 279164, Note_off_c, 0, 79, 100
2, 279168, Note_on_c, 0, 80, 120
2, 279264, Note_on_c, 0, 64, 120
2, 279356, Note_off_c, 0, 80, 100
2, 279356, Note_off_c, 0, 64, 100
2, 279360, Note_on_c, 0, 65, 120
2, 279452, Note_off_c, 0, 65, 100
2, 279456, Note_on_c, 0, 67, 120
2, 279548, Note_off_c, 0, 67, 100
2, 279552, Note_on_c, 0, 68, 120
2, 279648, Note_on_c, 0, 70, 120
2, 279740, Note_off_c, 0, 70, 100
2, 279744, Note_on_c, 0, 72, 120
2, 279836, Note_off_c, 0, 72, 100
2, 279840, Note_on_c, 0, 74, 120
2, 279932, Note_off_c, 0, 74, 100
2, 279936, Key_signature, -3, "major"
2, 279936, Note_on_c, 0, 75, 120
2, 280028, Note_off_c, 0, 68, 100
2, 280032, Note_on_c, 0, 67, 110
2, 280124, Note_off_c, 0, 67, 100
2, 280128, Note_on_c, 0, 70, 110
2, 280220, Note_off_c, 0, 70, 100
2, 280224, Note_on_c, 0, 68, 110
2, 280316, Note_off_c, 0, 75, 100
2, 280316, Note_off_c, 0, 68, 100
2, 280320, Note_on_c, 0, 67, 110
2, 280412, Note_off_c, 0, 67, 100
2, 280416, Note_on_c, 0, 65, 110
2, 280508, Note_off_c, 0, 65, 100
2, 280512, Note_on_c, 0, 63, 110
2, 280604, Note_off_c, 0, 63, 100
2, 280608, Note_on_c, 0, 62, 110
2, 280700, Note_off_c, 0, 62, 100
2, 280704, Note_on_c, 0, 75, 110
2, 280704, Note_on_c, 0, 63, 126
2, 280796, Note_off_c, 0, 75, 100
2, 280800, Note_on_c, 0, 74, 110
2, 280892, Note_off_c, 0, 74, 100
2, 280896, Note_on_c, 0, 72, 110
2, 280988, Note_off_c, 0, 72, 100
2, 280992, Note_on_c, 0, 70, 110
2, 281084, Note_off_c, 0, 70, 100
2, 281088, Note_on_c, 0, 75, 110
2, 281180, Note_off_c, 0, 75, 100
2, 281184, Note_on_c, 0, 70, 110
2, 281276, Note_off_c, 0, 70, 100
2, 281280, Note_on_c, 0, 75, 110
2, 281372, Note_off_c, 0, 75, 100
2, 281376, Note_on_c, 0, 74, 110
2, 281468, Note_off_c, 0, 63, 100
2, 281468, Note_off_c, 0, 74, 100
2, 281472, Note_on_c, 0, 72, 110
2, 281564, Note_off_c, 0, 72, 100
2, 281568, Note_on_c, 0, 70, 110
2, 281660, Note_off_c, 0, 70, 100
2, 281664, Note_on_c, 0, 68, 110
2, 281756, Note_off_c, 0, 68, 100
2, 281760, Note_on_c, 0, 67, 110
2, 281852, Note_off_c, 0, 67, 100
2, 281856, Note_on_c, 0, 75, 110
2, 281856, Note_on_c, 0, 79, 126
2, 281948, Note_off_c, 0, 75, 100
2, 281952, Note_on_c, 0, 74, 110
2, 282044, Note_off_c, 0, 74, 100
2, 282048, Note_on_c, 0, 72, 110
2, 282140, Note_off_c, 0, 72, 100
2, 282144, Note_on_c, 0, 70, 110
2, 282236, Note_off_c, 0, 70, 100
2, 282240, Note_on_c, 0, 74, 110
2, 282332, Note_off_c, 0, 79, 100
2, 282336, Note_on_c, 0, 77, 110
2, 282428, Note_off_c, 0, 77, 100
2, 282432, Note_on_c, 0, 80, 110
2, 282524, Note_off_c, 0, 80, 100
2, 282528, Note_on_c, 0, 79, 110
2, 282620, Note_off_c, 0, 74, 100
2, 282620, Note_off_c, 0, 79, 100
2, 282624, Note_on_c, 0, 77, 110
2, 282716, Note_off_c, 0, 77, 100
2, 282720, Note_on_c, 0, 75, 110
2, 282812, Note_off_c, 0, 75, 100
2, 282816, Note_on_c, 0, 74, 110
2, 282908, Note_off_c, 0, 74, 100
2, 282912, Note_on_c, 0, 72, 110
2, 283004, Note_off_c, 0, 72, 100
2, 283008, Note_on_c, 0, 70, 110
2, 283008, Note_on_c, 0, 65, 110
2, 283100, Note_off_c, 0, 65, 100
2, 283104, Note_on_c, 0, 67, 110
2, 283196, Note_off_c, 0, 67, 100
2, 283200, Note_on_c, 0, 65, 110
2, 283292, Note_off_c, 0, 65, 100
2, 283296, Note_on_c, 0, 63, 110
2, 283388, Note_off_c, 0, 63, 100
2, 283392, Note_on_c, 0, 62, 110
2, 283484, Note_off_c, 0, 62, 100
2, 283488, Note_on_c, 0, 60, 110
2, 283580, Note_off_c, 0, 60, 100
2, 283584, Note_on_c, 0, 62, 110
2, 283676, Note_off_c, 0, 62, 100
2, 283680, Note_on_c, 0, 63, 110
2, 283772, Note_off_c, 0, 63, 100
2, 283776, Note_on_c, 0, 65, 110
2, 283868, Note_off_c, 0, 70, 100
2, 283872, Note_on_c, 0, 72, 110
2, 283964, Note_off_c, 0, 72, 100
2, 283968, Note_on_c, 0, 74, 110
2, 284060, Note_off_c, 0, 74, 100
2, 284064, Note_on_c, 0, 75, 110
2, 284156, Note_off_c, 0, 75, 100
2, 284160, Note_on_c, 0, 77, 110
2, 284252, Note_off_c, 0, 65, 100
2, 284256, Note_on_c, 0, 67, 110
2, 284348, Note_off_c, 0, 67, 100
2, 284352, Note_on_c, 0, 68, 110
2, 284444, Note_off_c, 0, 68, 100
2, 284448, Note_on_c, 0, 69, 110
2, 284540, Note_off_c, 0, 69, 100
2, 284544, Note_on_c, 0, 70, 110
2, 284636, Note_off_c, 0, 77, 100
2, 284640, Note_on_c, 0, 79, 110
2, 284732, Note_off_c, 0, 79, 100
2, 284736, Note_on_c, 0, 80, 110
2, 284828, Note_off_c, 0, 80, 100
2, 284832, Note_on_c, 0, 81, 110
2, 284924, Note_off_c, 0, 81, 100
2, 284928, Note_on_c, 0, 82, 110
2, 285020, Note_off_c, 0, 70, 100
2, 285024, Note_on_c, 0, 72, 110
2, 285116, Note_off_c, 0, 72, 100
2, 285120, Note_on_c, 0, 74, 110
2, 285212, Note_off_c, 0, 74, 100
2, 285216, Note_on_c, 0, 75, 110
2, 285308, Note_off_c, 0, 82, 100
2, 285308, Note_off_c, 0, 75, 100
2, 285312, Note_on_c, 0, 77, 110
2, 285312, Note_on_c, 0, 80, 110
2, 285404, Note_off_c, 0, 77, 100
2, 285404, Note_off_c, 0, 80, 100
2, 285408, Note_on_c, 0, 75, 110
2, 285408, Note_on_c, 0, 79, 110
2, 285500, Note_off_c, 0, 75, 100
2, 285500, Note_off_c, 0, 79, 100
2, 285504, Note_on_c, 0, 74, 110
2, 285504, Note_on_c, 0, 77, 110
2, 285596, Note_off_c, 0, 74, 100
2, 285596, Note_off_c, 0, 77, 100
2, 285600, Note_on_c, 0, 75, 110
2, 285600, Note_on_c, 0, 75, 110
2, 285692, Note_off_c, 0, 75, 100
2, 285692, Note_off_c, 0, 75, 100
2, 285696, Note_on_c, 0, 84, 120
2, 285884, Note_off_c, 0, 84, 100
2, 286080, Note_on_c, 0, 68, 120
2, 286128, Note_on_c, 0, 70, 120
2, 286160, Note_off_c, 0, 68, 100
2, 286176, Note_on_c, 0, 68, 120
2, 286208, Note_off_c, 0, 70, 100
2, 286224, Note_on_c, 0, 70, 120
2, 286256, Note_off_c, 0, 68, 100
2, 286272, Note_on_c, 0, 68, 120
2, 286304, Note_off_c, 0, 70, 100
2, 286320, Note_on_c, 0, 70, 120
2, 286352, Note_off_c, 0, 68, 100
2, 286368, Note_on_c, 0, 68, 120
2, 286400, Note_off_c, 0, 70, 100
2, 286416, Note_on_c, 0, 70, 120
2, 286448, Note_off_c, 0, 68, 100
2, 286464, Note_on_c, 0, 68, 120
2, 286496, Note_off_c, 0, 70, 100
2, 286512, Note_on_c, 0, 70, 120
2, 286544, Note_off_c, 0, 68, 100
2, 286560, Note_on_c, 0, 68, 120
2, 286592, Note_off_c, 0, 70, 100
2, 286608, Note_on_c, 0, 70, 120
2, 286640, Note_off_c, 0, 68, 100
2, 286656, Note_on_c, 0, 68, 120
2, 286688, Note_off_c, 0, 70, 100
2, 286704, Note_on_c, 0, 70, 120
2, 286736, Note_off_c, 0, 68, 100
2, 286752, Note_on_c, 0, 68, 120
2, 286784, Note_off_c, 0, 70, 100
2, 286800, Note_on_c, 0, 70, 120
2, 286832, Note_off_c, 0, 68, 100
2, 286848, Note_on_c, 0, 77, 120
2, 286880, Note_off_c, 0, 70, 100
2, 286940, Note_off_c, 0, 77, 100
2, 286944, Note_on_c, 0, 79, 120
2, 287036, Note_off_c, 0, 79, 100
2, 287040, Note_on_c, 0, 80, 120
2, 287132, Note_off_c, 0, 80, 100
2, 287136, Note_on_c, 0, 82, 120
2, 287228, Note_off_c, 0, 82, 100
2, 287232, Note_on_c, 0, 84, 120
2, 287324, Note_off_c, 0, 84, 100
2, 287328, Note_on_c, 0, 86, 120
2, 287420, Note_off_c, 0, 86, 100
2, 287424, Note_on_c, 0, 87, 120
2, 287516, Note_off_c, 0, 87, 100
2, 287520, Note_on_c, 0, 88, 120
2, 287612, Note_off_c, 0, 88, 100
2, 287616, Note_on_c, 0, 89, 120
2, 287708, Note_off_c, 0, 89, 100
2, 287712, Note_on_c, 0, 91, 120
2, 287804, Note_off_c, 0, 91, 100
2, 287808, Note_on_c, 0, 92, 120
2, 287996, Note_off_c, 0, 92, 100
2, 288000, Note_on_c, 0, 94, 120
2, 288188, Note_off_c, 0, 94, 100
2, 288384, Note_on_c, 0, 79, 120
2, 288432, Note_on_c, 0, 80, 120
2, 288464, Note_off_c, 0, 79, 100
2, 288480, Note_on_c, 0, 79, 120
2, 288512, Note_off_c, 0, 80, 100
2, 288528, Note_on_c, 0, 80, 120
2, 288560, Note_off_c, 0, 79, 100
2, 288576, Note_on_c, 0, 79, 120
2, 288608, Note_off_c, 0, 80, 100
2, 288624, Note_on_c, 0, 80, 120
2, 288656, Note_off_c, 0, 79, 100
2, 288672, Note_on_c, 0, 79, 120
2, 288704, Note_off_c, 0, 80, 100
2, 288720, Note_on_c, 0, 80, 120
2, 288752, Note_off_c, 0, 79, 100
2, 288768, Note_on_c, 0, 79, 120
2, 288800, Note_off_c, 0, 80, 100
2, 288816, Note_on_c, 0, 80, 120
2, 288848, Note_off_c, 0, 79, 100
2, 288864, Note_on_c, 0, 79, 120
2, 288896, Note_off_c, 0, 80, 100
2, 288912, Note_on_c, 0, 80, 120
2, 288944, Note_off_c, 0, 79, 100
2, 288960, Note_on_c, 0, 79, 120
2, 288992, Note_off_c, 0, 80, 100
2, 289008, Note_on_c, 0, 80, 120
2, 289040, Note_off_c, 0, 79, 100
2, 289056, Note_on_c, 0, 79, 120
2, 289088, Note_off_c, 0, 80, 100
2, 289104, Note_on_c, 0, 80, 120
2, 289136, Note_off_c, 0, 79, 100
2, 289152, Note_on_c, 0, 75, 120
2, 289184, Note_off_c, 0, 80, 100
2, 289244, Note_off_c, 0, 75, 100
2, 289248, Note_on_c, 0, 77, 120
2, 289340, Note_off_c, 0, 77, 100
2, 289344, Note_on_c, 0, 79, 120
2, 289436, Note_off_c, 0, 79, 100
2, 289440, Note_on_c, 0, 80, 120
2, 289532, Note_off_c, 0, 80, 100
2, 289536, Note_on_c, 0, 82, 120
2, 289628, Note_off_c, 0, 82, 100
2, 289632, Note_on_c, 0, 84, 120
2, 289724, Note_off_c, 0, 84, 100
2, 289728, Note_on_c, 0, 85, 120
2, 289820, Note_off_c, 0, 85, 100
2, 289824, Note_on_c, 0, 86, 120
2, 289916, Note_off_c, 0, 86, 100
2, 289920, Note_on_c, 0, 87, 120
2, 290012, Note_off_c, 0, 87, 100
2, 290016, Note_on_c, 0, 89, 120
2, 290108, Note_off_c, 0, 89, 100
2, 290112, Note_on_c, 0, 90, 120
2, 290204, Note_off_c, 0, 90, 100
2, 290208, Note_on_c, 0, 91, 120
2, 290300, Note_off_c, 0, 91, 100
2, 290304, Note_on_c, 0, 92, 120
2, 290304, Note_on_c, 0, 82, 120
2, 290396, Note_off_c, 0, 82, 100
2, 290400, Note_on_c, 0, 80, 120
2, 290492, Note_off_c, 0, 92, 100
2, 290492, Note_off_c, 0, 80, 100
2, 290496, Note_on_c, 0, 79, 120
2, 290588, Note_off_c, 0, 79, 100
2, 290592, Note_on_c, 0, 77, 120
2, 290684, Note_off_c, 0, 77, 100
2, 290688, Note_on_c, 0, 75, 120
2, 290688, Note_on_c, 0, 77, 120
2, 290780, Note_off_c, 0, 75, 100
2, 290784, Note_on_c, 0, 74, 120
2, 290876, Note_off_c, 0, 74, 100
2, 290880, Note_on_c, 0, 72, 120
2, 290972, Note_off_c, 0, 72, 100
2, 290976, Note_on_c, 0, 70, 120
2, 291068, Note_off_c, 0, 70, 100
2, 291072, Note_on_c, 0, 69, 120
2, 291164, Note_off_c, 0, 69, 100
2, 291168, Note_on_c, 0, 70, 120
2, 291260, Note_off_c, 0, 70, 100
2, 291264, Note_on_c, 0, 65, 120
2, 291356, Note_off_c, 0, 65, 100
2, 291360, Note_on_c, 0, 68, 120
2, 291452, Note_off_c, 0, 77, 100
2, 291452, Note_off_c, 0, 68, 100
2, 291456, Note_on_c, 0, 67, 120
2, 291552, Note_on_c, 0, 82, 120
2, 291644, Note_off_c, 0, 67, 100
2, 291644, Note_off_c, 0, 82, 100
2, 291648, Note_on_c, 0, 84, 120
2, 291740, Note_off_c, 0, 84, 100
2, 291744, Note_on_c, 0, 86, 120
2, 291836, Note_off_c, 0, 86, 100
2, 291840, Note_on_c, 0, 87, 120
2, 291840, Note_on_c, 0, 70, 120
2, 291932, Note_off_c, 0, 87, 100
2, 291936, Note_on_c, 0, 86, 120
2, 292028, Note_off_c, 0, 86, 100
2, 292032, Note_on_c, 0, 87, 120
2, 292124, Note_off_c, 0, 87, 100
2, 292128, Note_on_c, 0, 89, 120
2, 292220, Note_off_c, 0, 89, 100
2, 292224, Note_on_c, 0, 91, 120
2, 292316, Note_off_c, 0, 91, 100
2, 292320, Note_on_c, 0, 89, 120
2, 292412, Note_off_c, 0, 89, 100
2, 292416, Note_on_c, 0, 91, 120
2, 292508, Note_off_c, 0, 91, 100
2, 292512, Note_on_c, 0, 92, 120
2, 292604, Note_off_c, 0, 70, 100
2, 292604, Note_off_c, 0, 92, 100
2, 292608, Note_on_c, 0, 94, 120
2, 292796, Note_off_c, 0, 94, 100
2, 292800, Note_on_c, 0, 80, 120
2, 292892, Note_off_c, 0, 80, 100
2, 292896, Note_on_c, 0, 79, 120
2, 292988, Note_off_c, 0, 79, 100
2, 292992, Note_on_c, 0, 79, 120
2, 292992, Note_on_c, 0, 77, 120
2, 293084, Note_off_c, 0, 77, 100
2, 293088, Note_on_c, 0, 76, 120
2, 293180, Note_off_c, 0, 76, 100
2, 293184, Note_on_c, 0, 73, 120
2, 293276, Note_off_c, 0, 73, 100
2, 293280, Note_on_c, 0, 72, 120
2, 293372, Note_off_c, 0, 72, 100
2, 293376, Note_on_c, 0, 71, 120
2, 293468, Note_off_c, 0, 71, 100
2, 293472, Note_on_c, 0, 72, 120
2, 293564, Note_off_c, 0, 72, 100
2, 293568, Note_on_c, 0, 67, 120
2, 293660, Note_off_c, 0, 67, 100
2, 293664, Note_on_c, 0, 70, 120
2, 293756, Note_off_c, 0, 79, 100
2, 293756, Note_off_c, 0, 70, 100
2, 293760, Note_on_c, 0, 68, 120
2, 293948, Note_off_c, 0, 68, 100
2, 293952, Note_on_c, 0, 84, 120
2, 294044, Note_off_c, 0, 84, 100
2, 294048, Note_on_c, 0, 88, 120
2, 294140, Note_off_c, 0, 88, 100
2, 294144, Note_on_c, 0, 89, 120
2, 294144, Note_on_c, 0, 72, 120
2, 294236, Note_off_c, 0, 89, 100
2, 294240, Note_on_c, 0, 91, 120
2, 294332, Note_off_c, 0, 91, 100
2, 294336, Note_on_c, 0, 92, 120
2, 294428, Note_off_c, 0, 92, 100
2, 294432, Note_on_c, 0, 91, 120
2, 294524, Note_off_c, 0, 91, 100
2, 294528, Note_on_c, 0, 89, 120
2, 294620, Note_off_c, 0, 89, 100
2, 294624, Note_on_c, 0, 87, 120
2, 294716, Note_off_c, 0, 72, 100
2, 294716, Note_off_c, 0, 87, 100
2, 294720, Note_on_c, 0, 86, 120
2, 294720, Note_on_c, 0, 66, 120
2, 294812, Note_off_c, 0, 86, 100
2, 294816, Note_on_c, 0, 84, 120
2, 294908, Note_off_c, 0, 66, 100
2, 294908, Note_off_c, 0, 84, 100
2, 294912, Note_on_c, 0, 83, 120
2, 294912, Note_on_c, 0, 67, 120
2, 295100, Note_off_c, 0, 83, 100
2, 295100, Note_off_c, 0, 67, 100
2, 295104, Note_on_c, 0, 74, 120
2, 295292, Note_off_c, 0, 74, 100
2, 295296, Note_on_c, 0, 59, 120
2, 295344, Note_on_c, 0, 60, 120
2, 295376, Note_off_c, 0, 59, 100
2, 295392, Note_on_c, 0, 59, 120
2, 295424, Note_off_c, 0, 60, 100
2, 295440, Note_on_c, 0, 60, 120
2, 295472, Note_off_c, 0, 59, 100
2, 295488, Note_on_c, 0, 55, 120
2, 295520, Note_off_c, 0, 60, 100
2, 295676, Note_off_c, 0, 55, 100
2, 295680, Note_on_c, 0, 71, 120
2, 295728, Note_on_c, 0, 72, 120
2, 295760, Note_off_c, 0, 71, 100
2, 295776, Note_on_c, 0, 71, 120
2, 295808, Note_off_c, 0, 72, 100
2, 295824, Note_on_c, 0, 72, 120
2, 295856, Note_off_c, 0, 71, 100
2, 295872, Note_on_c, 0, 79, 120
2, 295904, Note_off_c, 0, 72, 100
2, 296060, Note_off_c, 0, 79, 100
2, 296064, Note_on_c, 0, 63, 120
2, 296112, Note_on_c, 0, 65, 120
2, 296144, Note_off_c, 0, 63, 100
2, 296160, Note_on_c, 0, 63, 120
2, 296192, Note_off_c, 0, 65, 100
2, 296208, Note_on_c, 0, 65, 120
2, 296240, Note_off_c, 0, 63, 100
2, 296256, Note_on_c, 0, 60, 120
2, 296288, Note_off_c, 0, 65, 100
2, 296444, Note_off_c, 0, 60, 100
2, 296448, Note_on_c, 0, 75, 120
2, 296496, Note_on_c, 0, 77, 120
2, 296528, Note_off_c, 0, 75, 100
2, 296544, Note_on_c, 0, 75, 120
2, 296576, Note_off_c, 0, 77, 100
2, 296592, Note_on_c, 0, 77, 120
2, 296624, Note_off_c, 0, 75, 100
2, 296640, Note_on_c, 0, 84, 120
2, 296672, Note_off_c, 0, 77, 100
2, 296828, Note_off_c, 0, 84, 100
2, 296832, Note_on_c, 0, 69, 120
2, 296880, Note_on_c, 0, 70, 120
2, 296912, Note_off_c, 0, 69, 100
2, 296928, Note_on_c, 0, 69, 120
2, 296960, Note_off_c, 0, 70, 100
2, 296976, Note_on_c, 0, 70, 120
2, 297008, Note_off_c, 0, 69, 100
2, 297024, Note_on_c, 0, 62, 120
2, 297056, Note_off_c, 0, 70, 100
2, 297212, Note_off_c, 0, 62, 100
2, 297216, Note_on_c, 0, 78, 120
2, 297264, Note_on_c, 0, 79, 120
2, 297296, Note_off_c, 0, 78, 100
2, 297312, Note_on_c, 0, 78, 120
2, 297344, Note_off_c, 0, 79, 100
2, 297360, Note_on_c, 0, 79, 120
2, 297392, Note_off_c, 0, 78, 100
2, 297408, Note_on_c, 0, 86, 120
2, 297440, Note_off_c, 0, 79, 100
2, 297596, Note_off_c, 0, 86, 100
2, 297600, Note_on_c, 0, 70, 120
2, 297648, Note_on_c, 0, 72, 120
2, 297680, Note_off_c, 0, 70, 100
2, 297696, Note_on_c, 0, 70, 120
2, 297728, Note_off_c, 0, 72, 100
2, 297744, Note_on_c, 0, 72, 120
2, 297776, Note_off_c, 0, 70, 100
2, 297792, Note_on_c, 0, 67, 120
2, 297824, Note_off_c, 0, 72, 100
2, 297980, Note_off_c, 0, 67, 100
2, 297984, Note_on_c, 0, 82, 120
2, 298032, Note_on_c, 0, 84, 120
2, 298064, Note_off_c, 0, 82, 100
2, 298080, Note_on_c, 0, 82, 120
2, 298112, Note_off_c, 0, 84, 100
2, 298128, Note_on_c, 0, 84, 120
2, 298160, Note_off_c, 0, 82, 100
2, 298176, Note_on_c, 0, 91, 120
2, 298208, Note_off_c, 0, 84, 100
2, 298364, Note_off_c, 0, 91, 100
2, 298368, Key_signature, -1, "major"
2, 298368, Note_on_c, 0, 76, 120
2, 298416, Note_on_c, 0, 77, 120
2, 298448, Note_off_c, 0, 76, 100
2, 298464, Note_on_c, 0, 76, 120
2, 298496, Note_off_c, 0, 77, 100
2, 298512, Note_on_c, 0, 77, 120
2, 298544, Note_off_c, 0, 76, 100
2, 298560, Note_on_c, 0, 73, 120
2, 298592, Note_off_c, 0, 77, 100
2, 298748, Note_off_c, 0, 73, 100
2, 298752, Note_on_c, 0, 88, 120
2, 298800, Note_on_c, 0, 89, 120
2, 298832, Note_off_c, 0, 88, 100
2, 298848, Note_on_c, 0, 88, 120
2, 298880, Note_off_c, 0, 89, 100
2, 298896, Note_on_c, 0, 89, 120
2, 298928, Note_off_c, 0, 88, 100
2, 298944, Note_on_c, 0, 93, 120
2, 298944, Note_on_c, 0, 81, 120
2, 298976, Note_off_c, 0, 89, 100
2, 299132, Note_off_c, 0, 93, 100
2, 299132, Note_off_c, 0, 81, 100
2, 299136, Note_on_c, 0, 89, 120
2, 299136, Note_on_c, 0, 77, 120
2, 299324, Note_off_c, 0, 89, 100
2, 299324, Note_off_c, 0, 77, 100
2, 299328, Note_on_c, 0, 86, 120
2, 299328, Note_on_c, 0, 74, 120
2, 299516, Note_off_c, 0, 86, 100
2, 299516, Note_off_c, 0, 74, 100
2, 299520, Note_on_c, 0, 81, 120
2, 299520, Note_on_c, 0, 69, 120
2, 299708, Note_off_c, 0, 81, 100
2, 299708, Note_off_c, 0, 69, 100
2, 299712, Note_on_c, 0, 77, 120
2, 299712, Note_on_c, 0, 65, 120
2, 299900, Note_off_c, 0, 77, 100
2, 299900, Note_off_c, 0, 65, 100
2, 299904, Note_on_c, 0, 74, 120
2, 299904, Note_on_c, 0, 62, 120
2, 300092, Note_off_c, 0, 74, 100
2, 300092, Note_off_c, 0, 62, 100
2, 300096, Note_on_c, 0, 69, 120
2, 300096, Note_on_c, 0, 57, 120
2, 300284, Note_off_c, 0, 69, 100
2, 300284, Note_off_c, 0, 57, 100
2, 300288, Note_on_c, 0, 68, 120
2, 300288, Note_on_c, 0, 62, 120
2, 300288, Note_on_c, 0, 56, 120
2, 300476, Note_off_c, 0, 68, 100
2, 300476, Note_off_c, 0, 62, 100
2, 300476, Note_off_c, 0, 56, 100
2, 300480, Note_on_c, 0, 80, 120
2, 300480, Note_on_c, 0, 74, 120
2, 300480, Note_on_c, 0, 68, 120
2, 300668, Note_off_c, 0, 80, 100
2, 300668, Note_off_c, 0, 74, 100
2, 300668, Note_off_c, 0, 68, 100
2, 300672, Note_on_c, 0, 81, 120
2, 300672, Note_on_c, 0, 73, 120
2, 300672, Note_on_c, 0, 69, 120
2, 300860, Note_off_c, 0, 81, 100
2, 300860, Note_off_c, 0, 73, 100
2, 300860, Note_off_c, 0, 69, 100
2, 301056, Note_on_c, 0, 93, 120
2, 301056, Note_on_c, 0, 88, 120
2, 301056, Note_on_c, 0, 85, 120
2, 301056, Note_on_c, 0, 81, 120
2, 301244, Note_off_c, 0, 93, 100
2, 301244, Note_off_c, 0, 88, 100
2, 301244, Note_off_c, 0, 85, 100
2, 301244, Note_off_c, 0, 81, 100
2, 302976, Key_signature, 2, "major"
2, 303360, Note_on_c, 0, 69, 80
2, 303740, Note_off_c, 0, 69, 100
2, 303744, Note_on_c, 0, 67, 80
2, 304124, Note_off_c, 0, 67, 100
2, 304128, Note_on_c, 0, 66, 80
2, 304508, Note_off_c, 0, 66, 100
2, 304512, Note_on_c, 0, 67, 80
2, 304892, Note_off_c, 0, 67, 100
2, 304896, Note_on_c, 0, 69, 80
2, 305276, Note_off_c, 0, 69, 100
2, 305280, Note_on_c, 0, 62, 80
2, 305660, Note_off_c, 0, 62, 100
2, 305664, Note_on_c, 0, 64, 80
2, 305664, Note_on_c, 0, 62, 80
2, 306044, Note_off_c, 0, 64, 100
2, 306044, Note_off_c, 0, 62, 100
2, 306048, Note_on_c, 0, 66, 80
2, 306048, Note_on_c, 0, 60, 80
2, 306428, Note_off_c, 0, 66, 100
2, 306428, Note_off_c, 0, 60, 100
2, 306432, Note_on_c, 0, 67, 80
2, 306432, Note_on_c, 0, 59, 80
2, 306812, Note_off_c, 0, 59, 100
2, 306816, Note_on_c, 0, 61, 80
2, 307196, Note_off_c, 0, 67, 100
2, 307196, Note_off_c, 0, 61, 100
2, 307200, Note_on_c, 0, 66, 80
2, 307200, Note_on_c, 0, 62, 80
2, 307580, Note_off_c, 0, 66, 100
2, 307584, Note_on_c, 0, 64, 80
2, 307964, Note_off_c, 0, 62, 100
2, 307968, Note_on_c, 0, 61, 80
2, 308348, Note_off_c, 0, 64, 100
2, 308352, Note_on_c, 0, 69, 80
2, 308732, Note_off_c, 0, 61, 100
2, 308736, Note_on_c, 0, 63, 80
2, 309116, Note_off_c, 0, 63, 100
2, 309120, Note_on_c, 0, 64, 80
2, 309500, Note_off_c, 0, 64, 100
2, 309504, Note_on_c, 0, 66, 80
2, 309884, Note_off_c, 0, 69, 100
2, 309888, Note_on_c, 0, 71, 80
2, 310268, Note_off_c, 0, 66, 100
2, 310268, Note_off_c, 0, 71, 100
2, 310272, Note_on_c, 0, 73, 80
2, 310272, Note_on_c, 0, 64, 80
2, 310652, Note_off_c, 0, 73, 100
2, 310652, Note_off_c, 0, 64, 100
2, 310656, Note_on_c, 0, 74, 80
2, 310656, Note_on_c, 0, 62, 80
2, 311036, Note_off_c, 0, 74, 100
2, 311040, Note_on_c, 0, 69, 80
2, 311420, Note_off_c, 0, 62, 100
2, 311420, Note_off_c, 0, 69, 100
2, 311424, Note_on_c, 0, 67, 80
2, 311424, Note_on_c, 0, 64, 80
2, 311804, Note_off_c, 0, 67, 100
2, 311804, Note_off_c, 0, 64, 100
2, 311808, Note_on_c, 0, 57, 80
2, 311808, Note_on_c, 0, 66, 80
2, 312188, Note_off_c, 0, 57, 100
2, 312192, Note_on_c, 0, 58, 80
2, 312572, Note_off_c, 0, 66, 100
2, 312572, Note_off_c, 0, 58, 100
2, 312576, Note_on_c, 0, 64, 80
2, 312576, Note_on_c, 0, 59, 80
2, 312956, Note_off_c, 0, 59, 100
2, 312960, Note_on_c, 0, 61, 80
2, 313340, Note_off_c, 0, 61, 100
2, 313344, Note_on_c, 0, 62, 80
2, 313724, Note_off_c, 0, 64, 100
2, 313724, Note_off_c, 0, 62, 100
2, 313728, Note_on_c, 0, 76, 80
2, 313728, Note_on_c, 0, 69, 80
2, 314108, Note_off_c, 0, 76, 100
2, 314108, Note_off_c, 0, 69, 100
2, 314112, Note_on_c, 0, 74, 80
2, 314112, Note_on_c, 0, 71, 80
2, 314492, Note_off_c, 0, 74, 100
2, 314496, Note_on_c, 0, 73, 80
2, 314876, Note_off_c, 0, 71, 100
2, 314876, Note_off_c, 0, 73, 100
2, 314880, Note_on_c, 0, 74, 80
2, 314880, Note_on_c, 0, 69, 80
2, 315260, Note_off_c, 0, 74, 100
2, 315260, Note_off_c, 0, 69, 100
2, 315264, Note_on_c, 0, 76, 80
2, 315264, Note_on_c, 0, 67, 80
2, 315644, Note_off_c, 0, 76, 100
2, 315644, Note_off_c, 0, 67, 100
2, 315648, Note_on_c, 0, 69, 80
2, 315648, Note_on_c, 0, 66, 80
2, 316028, Note_off_c, 0, 69, 100
2, 316028, Note_off_c, 0, 66, 100
2, 316032, Note_on_c, 0, 71, 80
2, 316032, Note_on_c, 0, 67, 80
2, 316412, Note_off_c, 0, 71, 100
2, 316412, Note_off_c, 0, 67, 100
2, 316416, Note_on_c, 0, 72, 80
2, 316416, Note_on_c, 0, 69, 80
2, 316796, Note_off_c, 0, 72, 100
2, 316796, Note_off_c, 0, 69, 100
2, 316800, Note_on_c, 0, 62, 80
2, 316800, Note_on_c, 0, 74, 80
2, 317180, Note_off_c, 0, 62, 100
2, 317184, Note_on_c, 0, 64, 80
2, 317564, Note_off_c, 0, 74, 100
2, 317564, Note_off_c, 0, 64, 100
2, 317568, Note_on_c, 0, 66, 80
2, 317568, Note_on_c, 0, 72, 80
2, 317948, Note_off_c, 0, 66, 100
2, 317952, Note_on_c, 0, 67, 80
2, 318332, Note_off_c, 0, 72, 100
2, 318336, Note_on_c, 0, 71, 80
2, 318716, Note_off_c, 0, 67, 100
2, 318716, Note_off_c, 0, 71, 100
2, 318720, Note_on_c, 0, 69, 80
2, 318720, Note_on_c, 0, 66, 80
2, 319484, Note_off_c, 0, 66, 100
2, 319484, Note_off_c, 0, 69, 100
2, 319488, Note_on_c, 0, 67, 80
2, 319488, Note_on_c, 0, 64, 80
2, 319868, Note_off_c, 0, 67, 100
2, 319868, Note_off_c, 0, 64, 100
2, 319872, Note_on_c, 0, 66, 80
2, 319872, Note_on_c, 0, 62, 80
2, 320252, Note_off_c, 0, 66, 100
2, 320256, Note_on_c, 0, 64, 80
2, 320636, Note_off_c, 0, 62, 100
2, 320640, Note_on_c, 0, 61, 80
2, 321020, Note_off_c, 0, 64, 100
2, 321024, Note_on_c, 0, 69, 80
2, 321404, Note_off_c, 0, 61, 100
2, 321408, Note_on_c, 0, 63, 80
2, 321788, Note_off_c, 0, 69, 100
2, 321792, Note_on_c, 0, 66, 80
2, 322172, Note_off_c, 0, 66, 100
2, 322176, Note_on_c, 0, 71, 80
2, 322556, Note_off_c, 0, 63, 100
2, 322560, Note_on_c, 0, 64, 80
2, 322940, Note_off_c, 0, 71, 100
2, 322940, Note_off_c, 0, 64, 100
2, 322944, Note_on_c, 0, 76, 80
2, 323324, Note_off_c, 0, 76, 100
2, 323328, Note_on_c, 0, 74, 80
2, 323708, Note_off_c, 0, 74, 100
2, 323712, Note_on_c, 0, 73, 80
2, 324092, Note_off_c, 0, 73, 100
2, 324096, Note_on_c, 0, 78, 80
2, 324476, Note_off_c, 0, 78, 100
2, 324480, Note_on_c, 0, 76, 80
2, 324860, Note_off_c, 0, 76, 100
2, 324864, Note_on_c, 0, 74, 80
2, 325244, Note_off_c, 0, 74, 100
2, 325248, Note_on_c, 0, 81, 80
2, 325628, Note_off_c, 0, 81, 100
2, 325632, Note_on_c, 0, 79, 80
2, 326012, Note_off_c, 0, 79, 100
2, 326016, Note_on_c, 0, 78, 80
2, 326396, Note_off_c, 0, 78, 100
2, 326400, Note_on_c, 0, 75, 80
2, 326400, Note_on_c, 0, 71, 80
2, 326780, Note_off_c, 0, 75, 100
2, 326780, Note_off_c, 0, 71, 100
2, 326784, Note_on_c, 0, 78, 80
2, 326784, Note_on_c, 0, 69, 80
2, 327164, Note_off_c, 0, 78, 100
2, 327164, Note_off_c, 0, 69, 100
2, 327168, Note_on_c, 0, 71, 80
2, 327168, Note_on_c, 0, 67, 80
2, 327548, Note_off_c, 0, 71, 100
2, 327548, Note_off_c, 0, 67, 100
2, 327552, Note_on_c, 0, 69, 80
2, 327552, Note_on_c, 0, 66, 80
2, 327932, Note_off_c, 0, 69, 100
2, 327932, Note_off_c, 0, 66, 100
2, 327936, Note_on_c, 0, 71, 80
2, 327936, Note_on_c, 0, 68, 80
2, 328316, Note_off_c, 0, 71, 100
2, 328316, Note_off_c, 0, 68, 100
2, 328320, Note_on_c, 0, 73, 80
2, 328320, Note_on_c, 0, 69, 80
2, 328700, Note_off_c, 0, 73, 100
2, 328700, Note_off_c, 0, 69, 100
2, 328704, Note_on_c, 0, 74, 80
2, 328704, Note_on_c, 0, 71, 80
2, 329084, Note_off_c, 0, 74, 100
2, 329084, Note_off_c, 0, 71, 100
2, 329088, Note_on_c, 0, 73, 80
2, 329088, Note_on_c, 0, 76, 80
2, 329468, Note_off_c, 0, 73, 100
2, 329472, Note_on_c, 0, 69, 80
2, 329852, Note_off_c, 0, 76, 100
2, 329852, Note_off_c, 0, 69, 100
2, 329856, Note_on_c, 0, 74, 80
2, 329856, Note_on_c, 0, 65, 80
2, 330236, Note_off_c, 0, 74, 100
2, 330236, Note_off_c, 0, 65, 100
2, 330240, Note_on_c, 0, 73, 80
2, 330240, Note_on_c, 0, 64, 80
2, 330620, Note_off_c, 0, 73, 100
2, 330620, Note_off_c, 0, 64, 100
2, 330624, Note_on_c, 0, 71, 80
2, 330624, Note_on_c, 0, 62, 80
2, 332156, Note_off_c, 0, 62, 100
2, 332156, Note_off_c, 0, 71, 100
2, 332160, Note_on_c, 0, 69, 80
2, 332160, Note_on_c, 0, 61, 80
2, 332540, Note_off_c, 0, 69, 100
2, 332540, Note_off_c, 0, 61, 100
2, 332544, Note_on_c, 0, 72, 80
2, 332544, Note_on_c, 0, 63, 80
2, 333308, Note_off_c, 0, 63, 100
2, 333308, Note_off_c, 0, 72, 100
2, 333312, Note_on_c, 0, 71, 80
2, 333312, Note_on_c, 0, 64, 80
2, 333692, Note_off_c, 0, 71, 100
2, 333692, Note_off_c, 0, 64, 100
2, 333696, Note_on_c, 0, 73, 80
2, 333696, Note_on_c, 0, 67, 80
2, 334460, Note_off_c, 0, 67, 100
2, 334460, Note_off_c, 0, 73, 100
2, 334464, Note_on_c, 0, 66, 80
2, 334464, Note_on_c, 0, 74, 80
2, 334844, Note_off_c, 0, 66, 100
2, 334844, Note_off_c, 0, 74, 100
2, 334848, Note_on_c, 0, 67, 80
2, 334848, Note_on_c, 0, 75, 80
2, 335228, Note_off_c, 0, 67, 100
2, 335612, Note_off_c, 0, 75, 100
2, 335616, Note_on_c, 0, 74, 80
2, 335996, Note_off_c, 0, 74, 100
2, 336000, Note_on_c, 0, 73, 80
2, 336380, Note_off_c, 0, 73, 100
2, 336384, Key_signature, -2, "major"
2, 336384, Note_on_c, 0, 72, 70
2, 336572, Note_off_c, 0, 72, 100
2, 336768, Note_on_c, 0, 77, 70
2, 336768, Note_on_c, 0, 69, 70
2, 336816, Note_on_c, 0, 70, 70
2, 336848, Note_off_c, 0, 69, 100
2, 336864, Note_on_c, 0, 69, 70
2, 336896, Note_off_c, 0, 70, 100
2, 336912, Note_on_c, 0, 70, 70
2, 336944, Note_off_c, 0, 69, 100
2, 336960, Note_on_c, 0, 69, 70
2, 336992, Note_off_c, 0, 70, 100
2, 337008, Note_on_c, 0, 70, 70
2, 337040, Note_off_c, 0, 69, 100
2, 337056, Note_on_c, 0, 69, 70
2, 337088, Note_off_c, 0, 70, 100
2, 337104, Note_on_c, 0, 70, 70
2, 337136, Note_off_c, 0, 69, 100
2, 337148, Note_off_c, 0, 77, 100
2, 337152, Note_on_c, 0, 75, 70
2, 337152, Note_on_c, 0, 69, 70
2, 337184, Note_off_c, 0, 70, 100
2, 337200, Note_on_c, 0, 70, 70
2, 337232, Note_off_c, 0, 69, 100
2, 337248, Note_on_c, 0, 69, 70
2, 337280, Note_off_c, 0, 70, 100
2, 337296, Note_on_c, 0, 70, 70
2, 337328, Note_off_c, 0, 69, 100
2, 337344, Note_on_c, 0, 69, 70
2, 337376, Note_off_c, 0, 70, 100
2, 337392, Note_on_c, 0, 70, 70
2, 337424, Note_off_c, 0, 69, 100
2, 337440, Note_on_c, 0, 67, 70
2, 337472, Note_off_c, 0, 70, 100
2, 337488, Note_on_c, 0, 69, 70
2, 337520, Note_off_c, 0, 67, 100
2, 337532, Note_off_c, 0, 75, 100
2, 337536, Note_on_c, 0, 70, 70
2, 337536, Note_on_c, 0, 74, 70
2, 337568, Note_off_c, 0, 69, 100
2, 337916, Note_off_c, 0, 70, 100
2, 337916, Note_off_c, 0, 74, 100
2, 337920, Note_on_c, 0, 75, 70
2, 338112, Note_on_c, 0, 70, 70
2, 338204, Note_off_c, 0, 70, 100
2, 338208, Note_on_c, 0, 69, 70
2, 338300, Note_off_c, 0, 75, 100
2, 338300, Note_off_c, 0, 69, 100
2, 338304, Note_on_c, 0, 77, 70
2, 338304, Note_on_c, 0, 67, 70
2, 338396, Note_off_c, 0, 67, 100
2, 338400, Note_on_c, 0, 65, 70
2, 338492, Note_off_c, 0, 65, 100
2, 338496, Note_on_c, 0, 63, 70
2, 338588, Note_off_c, 0, 63, 100
2, 338592, Note_on_c, 0, 62, 70
2, 338684, Note_off_c, 0, 77, 100
2, 338684, Note_off_c, 0, 62, 100
2, 338688, Note_on_c, 0, 71, 70
2, 338688, Note_on_c, 0, 67, 70
2, 339068, Note_off_c, 0, 71, 100
2, 339068, Note_off_c, 0, 67, 100
2, 339072, Note_on_c, 0, 72, 70
2, 339264, Note_on_c, 0, 67, 70
2, 339356, Note_off_c, 0, 67, 100
2, 339360, Note_on_c, 0, 65, 70
2, 339452, Note_off_c, 0, 72, 100
2, 339452, Note_off_c, 0, 65, 100
2, 339456, Note_on_c, 0, 74, 70
2, 339456, Note_on_c, 0, 63, 70
2, 339548, Note_off_c, 0, 63, 100
2, 339552, Note_on_c, 0, 62, 70
2, 339644, Note_off_c, 0, 62, 100
2, 339648, Note_on_c, 0, 60, 70
2, 339740, Note_off_c, 0, 60, 100
2, 339744, Note_on_c, 0, 59, 70
2, 339836, Note_off_c, 0, 74, 100
2, 339836, Note_off_c, 0, 59, 100
2, 339840, Note_on_c, 0, 62, 70
2, 339840, Note_on_c, 0, 71, 70
2, 340028, Note_off_c, 0, 71, 100
2, 340220, Note_off_c, 0, 62, 100
2, 340224, Note_on_c, 0, 67, 70
2, 340604, Note_off_c, 0, 67, 100
2, 340608, Note_on_c, 0, 65, 70
2, 340988, Note_off_c, 0, 65, 100
2, 340992, Note_on_c, 0, 64, 70
2, 341372, Note_off_c, 0, 64, 100
2, 341376, Note_on_c, 0, 65, 74
2, 341756, Note_off_c, 0, 65, 100
2, 341760, Note_on_c, 0, 67, 78
2, 342140, Note_off_c, 0, 67, 100
2, 342144, Note_on_c, 0, 60, 82
2, 342524, Note_off_c, 0, 60, 100
2, 342528, Note_on_c, 0, 72, 86
2, 342528, Note_on_c, 0, 62, 86
2, 342908, Note_off_c, 0, 72, 100
2, 342908, Note_off_c, 0, 62, 100
2, 342912, Note_on_c, 0, 70, 90
2, 342912, Note_on_c, 0, 64, 90
2, 343292, Note_off_c, 0, 70, 100
2, 343292, Note_off_c, 0, 64, 100
2, 343296, Note_on_c, 0, 69, 94
2, 343296, Note_on_c, 0, 65, 94
2, 343676, Note_off_c, 0, 69, 100
2, 343676, Note_off_c, 0, 65, 100
2, 343680, Note_on_c, 0, 70, 98
2, 343680, Note_on_c, 0, 67, 98
2, 344060, Note_off_c, 0, 70, 100
2, 344060, Note_off_c, 0, 67, 100
2, 344064, Note_on_c, 0, 72, 102
2, 344064, Note_on_c, 0, 69, 102
2, 344444, Note_off_c, 0, 72, 100
2, 344444, Note_off_c, 0, 69, 100
2, 344448, Note_on_c, 0, 63, 106
2, 344448, Note_on_c, 0, 65, 106
2, 344636, Note_off_c, 0, 63, 100
2, 344636, Note_off_c, 0, 65, 100
2, 344640, Note_on_c, 0, 72, 108
2, 344832, Note_on_c, 0, 81, 110
2, 344880, Note_on_c, 0, 82, 110
2, 344912, Note_off_c, 0, 81, 100
2, 344928, Note_on_c, 0, 81, 110
2, 344960, Note_off_c, 0, 82, 100
2, 344976, Note_on_c, 0, 82, 110
2, 345008, Note_off_c, 0, 81, 100
2, 345020, Note_off_c, 0, 72, 100
2, 345024, Note_on_c, 0, 77, 110
2, 345024, Note_on_c, 0, 81, 110
2, 345056, Note_off_c, 0, 82, 100
2, 345072, Note_on_c, 0, 82, 110
2, 345104, Note_off_c, 0, 81, 100
2, 345120, Note_on_c, 0, 81, 110
2, 345152, Note_off_c, 0, 82, 100
2, 345168, Note_on_c, 0, 82, 110
2, 345200, Note_off_c, 0, 81, 100
2, 345216, Note_on_c, 0, 81, 110
2, 345248, Note_off_c, 0, 82, 100
2, 345264, Note_on_c, 0, 82, 110
2, 345296, Note_off_c, 0, 81, 100
2, 345312, Note_on_c, 0, 81, 110
2, 345344, Note_off_c, 0, 82, 100
2, 345360, Note_on_c, 0, 82, 110
2, 345392, Note_off_c, 0, 81, 100
2, 345404, Note_off_c, 0, 77, 100
2, 345408, Note_on_c, 0, 78, 110
2, 345408, Note_on_c, 0, 81, 110
2, 345440, Note_off_c, 0, 82, 100
2, 345456, Note_on_c, 0, 82, 110
2, 345488, Note_off_c, 0, 81, 100
2, 345504, Note_on_c, 0, 81, 110
2, 345536, Note_off_c, 0, 82, 100
2, 345552, Note_on_c, 0, 82, 110
2, 345584, Note_off_c, 0, 81, 100
2, 345596, Note_off_c, 0, 78, 100
2, 345632, Note_off_c, 0, 82, 100
2, 345792, Note_on_c, 0, 82, 110
2, 345884, Note_off_c, 0, 82, 100
2, 345888, Note_on_c, 0, 81, 110
2, 345980, Note_off_c, 0, 81, 100
2, 345984, Note_on_c, 0, 79, 110
2, 346076, Note_off_c, 0, 79, 100
2, 346080, Note_on_c, 0, 77, 110
2, 346172, Note_off_c, 0, 77, 100
2, 346176, Note_on_c, 0, 75, 110
2, 346268, Note_off_c, 0, 75, 100
2, 346272, Note_on_c, 0, 74, 110
2, 346364, Note_off_c, 0, 74, 100
2, 347328, Note_on_c, 0, 79, 110
2, 347420, Note_off_c, 0, 79, 100
2, 347424, Note_on_c, 0, 77, 110
2, 347516, Note_off_c, 0, 77, 100
2, 347520, Note_on_c, 0, 75, 110
2, 347612, Note_off_c, 0, 75, 100
2, 347616, Note_on_c, 0, 74, 110
2, 347708, Note_off_c, 0, 74, 100
2, 347712, Note_on_c, 0, 72, 110
2, 347804, Note_off_c, 0, 72, 100
2, 347808, Note_on_c, 0, 70, 110
2, 347900, Note_off_c, 0, 70, 100
2, 348864, Note_on_c, 0, 77, 110
2, 348956, Note_off_c, 0, 77, 100
2, 348960, Note_on_c, 0, 76, 110
2, 349052, Note_off_c, 0, 76, 100
2, 349056, Note_on_c, 0, 73, 110
2, 349148, Note_off_c, 0, 73, 100
2, 349152, Note_on_c, 0, 72, 110
2, 349244, Note_off_c, 0, 72, 100
2, 349248, Note_on_c, 0, 70, 110
2, 349340, Note_off_c, 0, 70, 100
2, 349344, Note_on_c, 0, 69, 110
2, 349436, Note_off_c, 0, 69, 100
2, 350400, Note_on_c, 0, 86, 110
2, 350492, Note_off_c, 0, 86, 100
2, 350496, Note_on_c, 0, 84, 110
2, 350588, Note_off_c, 0, 84, 100
2, 350592, Note_on_c, 0, 82, 110
2, 350684, Note_off_c, 0, 82, 100
2, 350688, Note_on_c, 0, 81, 110
2, 350780, Note_off_c, 0, 81, 100
2, 350784, Note_on_c, 0, 79, 110
2, 350876, Note_off_c, 0, 79, 100
2, 350880, Note_on_c, 0, 78, 110
2, 350972, Note_off_c, 0, 78, 100
2, 351168, Note_on_c, 0, 62, 110
2, 351260, Note_off_c, 0, 62, 100
2, 351264, Note_on_c, 0, 61, 110
2, 351356, Note_off_c, 0, 61, 100
2, 351360, Note_on_c, 0, 60, 110
2, 351452, Note_off_c, 0, 60, 100
2, 351456, Note_on_c, 0, 58, 110
2, 351548, Note_off_c, 0, 58, 100
2, 351552, Note_on_c, 0, 57, 110
2, 351644, Note_off_c, 0, 57, 100
2, 351648, Note_on_c, 0, 55, 110
2, 351740, Note_off_c, 0, 55, 100
2, 351936, Note_on_c, 0, 75, 110
2, 352028, Note_off_c, 0, 75, 100
2, 352032, Note_on_c, 0, 74, 110
2, 352124, Note_off_c, 0, 74, 100
2, 352128, Note_on_c, 0, 72, 110
2, 352220, Note_off_c, 0, 72, 100
2, 352224, Note_on_c, 0, 70, 110
2, 352316, Note_off_c, 0, 70, 100
2, 352320, Note_on_c, 0, 69, 110
2, 352412, Note_off_c, 0, 69, 100
2, 352416, Note_on_c, 0, 67, 110
2, 352508, Note_off_c, 0, 67, 100
2, 352512, Note_on_c, 0, 65, 110
2, 352604, Note_off_c, 0, 65, 100
2, 352608, Note_on_c, 0, 64, 110
2, 352700, Note_off_c, 0, 64, 100
2, 352704, Note_on_c, 0, 70, 110
2, 352704, Note_on_c, 0, 62, 110
2, 352796, Note_off_c, 0, 62, 100
2, 352800, Note_on_c, 0, 60, 110
2, 352892, Note_off_c, 0, 70, 100
2, 352892, Note_off_c, 0, 60, 100
2, 352896, Note_on_c, 0, 58, 110
2, 352988, Note_off_c, 0, 58, 100
2, 352992, Note_on_c, 0, 57, 110
2, 353084, Note_off_c, 0, 57, 100
2, 353088, Note_on_c, 0, 55, 110
2, 353180, Note_off_c, 0, 55, 100
2, 353184, Note_on_c, 0, 53, 110
2, 353276, Note_off_c, 0, 53, 100
2, 353280, Note_on_c, 0, 52, 110
2, 353372, Note_off_c, 0, 52, 100
2, 353376, Note_on_c, 0, 50, 110
2, 353468, Note_off_c, 0, 50, 100
2, 353472, Note_on_c, 0, 60, 110
2, 353564, Note_off_c, 0, 60, 100
2, 353568, Note_on_c, 0, 58, 110
2, 353660, Note_off_c, 0, 58, 100
2, 353664, Note_on_c, 0, 57, 110
2, 353756, Note_off_c, 0, 57, 100
2, 353760, Note_on_c, 0, 55, 110
2, 353852, Note_off_c, 0, 55, 100
2, 353856, Note_on_c, 0, 53, 110
2, 353948, Note_off_c, 0, 53, 100
2, 353952, Note_on_c, 0, 52, 110
2, 354044, Note_off_c, 0, 52, 100
2, 354048, Note_on_c, 0, 50, 110
2, 354140, Note_off_c, 0, 50, 100
2, 354144, Note_on_c, 0, 48, 110
2, 354236, Note_off_c, 0, 48, 100
2, 354240, Note_on_c, 0, 52, 110
2, 354332, Note_off_c, 0, 52, 100
2, 354336, Note_on_c, 0, 55, 110
2, 354428, Note_off_c, 0, 55, 100
2, 354432, Note_on_c, 0, 46, 110
2, 354620, Note_off_c, 0, 46, 100
2, 354816, Note_on_c, 0, 64, 110
2, 354864, Note_on_c, 0, 65, 110
2, 354896, Note_off_c, 0, 64, 100
2, 354912, Note_on_c, 0, 64, 110
2, 354944, Note_off_c, 0, 65, 100
2, 354960, Note_on_c, 0, 65, 110
2, 354992, Note_off_c, 0, 64, 100
2, 355008, Note_on_c, 0, 64, 110
2, 355040, Note_off_c, 0, 65, 100
2, 355056, Note_on_c, 0, 65, 110
2, 355088, Note_off_c, 0, 64, 100
2, 355104, Note_on_c, 0, 64, 110
2, 355136, Note_off_c, 0, 65, 100
2, 355152, Note_on_c, 0, 65, 110
2, 355184, Note_off_c, 0, 64, 100
2, 355200, Note_on_c, 0, 64, 110
2, 355232, Note_off_c, 0, 65, 100
2, 355248, Note_on_c, 0, 65, 110
2, 355280, Note_off_c, 0, 64, 100
2, 355296, Note_on_c, 0, 64, 110
2, 355328, Note_off_c, 0, 65, 100
2, 355344, Note_on_c, 0, 65, 110
2, 355376, Note_off_c, 0, 64, 100
2, 355392, Note_on_c, 0, 64, 110
2, 355424, Note_off_c, 0, 65, 100
2, 355440, Note_on_c, 0, 65, 110
2, 355472, Note_off_c, 0, 64, 100
2, 355488, Note_on_c, 0, 62, 110
2, 355520, Note_off_c, 0, 65, 100
2, 355536, Note_on_c, 0, 64, 110
2, 355568, Note_off_c, 0, 62, 100
2, 355584, Note_on_c, 0, 65, 110
2, 355616, Note_off_c, 0, 64, 100
2, 355964, Note_off_c, 0, 65, 100
2, 356160, Note_on_c, 0, 65, 110
2, 356252, Note_off_c, 0, 65, 100
2, 356256, Note_on_c, 0, 64, 110
2, 356348, Note_off_c, 0, 64, 100
2, 356352, Note_on_c, 0, 62, 110
2, 356444, Note_off_c, 0, 62, 100
2, 356448, Note_on_c, 0, 60, 110
2, 356540, Note_off_c, 0, 60, 100
2, 356544, Note_on_c, 0, 58, 110
2, 356636, Note_off_c, 0, 58, 100
2, 356640, Note_on_c, 0, 57, 110
2, 356732, Note_off_c, 0, 57, 100
2, 356736, Note_on_c, 0, 62, 110
2, 357116, Note_off_c, 0, 62, 100
2, 357288, Note_on_c, 0, 62, 110
2, 357380, Note_off_c, 0, 62, 100
2, 357408, Note_on_c, 0, 60, 110
2, 357500, Note_off_c, 0, 60, 100
2, 357504, Note_on_c, 0, 58, 110
2, 357596, Note_off_c, 0, 58, 100
2, 357600, Note_on_c, 0, 57, 110
2, 357692, Note_off_c, 0, 57, 100
2, 357696, Note_on_c, 0, 55, 110
2, 357788, Note_off_c, 0, 55, 100
2, 357792, Note_on_c, 0, 53, 110
2, 357884, Note_off_c, 0, 53, 100
2, 357888, Note_on_c, 0, 58, 110
2, 358268, Note_off_c, 0, 58, 100
2, 358464, Note_on_c, 0, 70, 110
2, 358556, Note_off_c, 0, 70, 100
2, 358560, Note_on_c, 0, 69, 110
2, 358652, Note_off_c, 0, 69, 100
2, 358656, Note_on_c, 0, 67, 110
2, 358748, Note_off_c, 0, 67, 100
2, 358752, Note_on_c, 0, 69, 110
2, 358844, Note_off_c, 0, 69, 100
2, 358848, Note_on_c, 0, 67, 110
2, 358940, Note_off_c, 0, 67, 100
2, 358944, Note_on_c, 0, 65, 110
2, 359036, Note_off_c, 0, 65, 100
2, 359040, Note_on_c, 0, 64, 110
2, 359132, Note_off_c, 0, 64, 100
2, 359136, Note_on_c, 0, 65, 110
2, 359228, Note_off_c, 0, 65, 100
2, 359232, Note_on_c, 0, 64, 110
2, 359324, Note_off_c, 0, 64, 100
2, 359328, Note_on_c, 0, 62, 110
2, 359420, Note_off_c, 0, 62, 100
2, 359424, Note_on_c, 0, 60, 110
2, 359516, Note_off_c, 0, 60, 100
2, 359520, Note_on_c, 0, 62, 110
2, 359612, Note_off_c, 0, 62, 100
2, 359616, Note_on_c, 0, 64, 110
2, 359708, Note_off_c, 0, 64, 100
2, 359712, Note_on_c, 0, 65, 110
2, 359804, Note_off_c, 0, 65, 100
2, 359808, Note_on_c, 0, 66, 110
2, 359900, Note_off_c, 0, 66, 100
2, 359904, Note_on_c, 0, 67, 110
2, 359996, Note_off_c, 0, 67, 100
2, 360000, Note_on_c, 0, 69, 110
2, 360092, Note_off_c, 0, 69, 100
2, 360096, Note_on_c, 0, 67, 110
2, 360188, Note_off_c, 0, 67, 100
2, 360192, Note_on_c, 0, 65, 110
2, 360284, Note_off_c, 0, 65, 100
2, 360288, Note_on_c, 0, 67, 110
2, 360380, Note_off_c, 0, 67, 100
2, 360384, Note_on_c, 0, 69, 110
2, 360476, Note_off_c, 0, 69, 100
2, 360480, Note_on_c, 0, 70, 110
2, 360572, Note_off_c, 0, 70, 100
2, 360576, Note_on_c, 0, 71, 110
2, 360668, Note_off_c, 0, 71, 100
2, 360672, Note_on_c, 0, 72, 110
2, 360764, Note_off_c, 0, 72, 100
2, 360768, Note_on_c, 0, 74, 110
2, 360860, Note_off_c, 0, 74, 100
2, 360864, Note_on_c, 0, 72, 110
2, 360956, Note_off_c, 0, 72, 100
2, 360960, Note_on_c, 0, 75, 110
2, 360960, Note_on_c, 0, 74, 110
2, 361052, Note_off_c, 0, 74, 100
2, 361056, Note_on_c, 0, 72, 110
2, 361148, Note_off_c, 0, 75, 100
2, 361148, Note_off_c, 0, 72, 100
2, 361152, Note_on_c, 0, 70, 110
2, 361244, Note_off_c, 0, 70, 100
2, 361248, Note_on_c, 0, 69, 110
2, 361340, Note_off_c, 0, 69, 100
2, 361344, Note_on_c, 0, 60, 110
2, 361392, Note_on_c, 0, 62, 110
2, 361424, Note_off_c, 0, 60, 100
2, 361440, Note_on_c, 0, 60, 110
2, 361472, Note_off_c, 0, 62, 100
2, 361488, Note_on_c, 0, 62, 110
2, 361520, Note_off_c, 0, 60, 100
2, 361536, Note_on_c, 0, 60, 110
2, 361568, Note_off_c, 0, 62, 100
2, 361584, Note_on_c, 0, 62, 110
2, 361616, Note_off_c, 0, 60, 100
2, 361632, Note_on_c, 0, 60, 110
2, 361664, Note_off_c, 0, 62, 100
2, 361680, Note_on_c, 0, 62, 110
2, 361712, Note_off_c, 0, 60, 100
2, 361728, Note_on_c, 0, 60, 110
2, 361760, Note_off_c, 0, 62, 100
2, 361776, Note_on_c, 0, 62, 110
2, 361808, Note_off_c, 0, 60, 100
2, 361824, Note_on_c, 0, 60, 110
2, 361856, Note_off_c, 0, 62, 100
2, 361872, Note_on_c, 0, 62, 110
2, 361904, Note_off_c, 0, 60, 100
2, 361920, Note_on_c, 0, 60, 110
2, 361952, Note_off_c, 0, 62, 100
2, 361968, Note_on_c, 0, 62, 110
2, 362000, Note_off_c, 0, 60, 100
2, 362016, Note_on_c, 0, 60, 110
2, 362048, Note_off_c, 0, 62, 100
2, 362064, Note_on_c, 0, 62, 110
2, 362096, Note_off_c, 0, 60, 100
2, 362112, Note_on_c, 0, 58, 110
2, 362144, Note_off_c, 0, 62, 100
2, 362492, Note_off_c, 0, 58, 100
2, 362688, Note_on_c, 0, 58, 110
2, 362780, Note_off_c, 0, 58, 100
2, 362784, Note_on_c, 0, 60, 110
2, 362876, Note_off_c, 0, 60, 100
2, 362880, Note_on_c, 0, 62, 110
2, 362972, Note_off_c, 0, 62, 100
2, 362976, Note_on_c, 0, 63, 110
2, 363068, Note_off_c, 0, 63, 100
2, 363072, Note_on_c, 0, 65, 110
2, 363072, Note_on_c, 0, 62, 110
2, 363164, Note_off_c, 0, 65, 100
2, 363164, Note_off_c, 0, 62, 100
2, 363168, Note_on_c, 0, 67, 110
2, 363168, Note_on_c, 0, 60, 110
2, 363260, Note_off_c, 0, 67, 100
2, 363260, Note_off_c, 0, 60, 100
2, 363264, Note_on_c, 0, 63, 110
2, 363264, Note_on_c, 0, 58, 110
2, 363356, Note_off_c, 0, 58, 100
2, 363360, Note_on_c, 0, 57, 110
2, 363452, Note_off_c, 0, 57, 100
2, 363456, Note_on_c, 0, 55, 110
2, 363548, Note_off_c, 0, 55, 100
2, 363552, Note_on_c, 0, 53, 110
2, 363644, Note_off_c, 0, 63, 100
2, 363644, Note_off_c, 0, 53, 100
2, 363648, Note_on_c, 0, 58, 110
2, 363840, Note_on_c, 0, 62, 110
2, 363932, Note_off_c, 0, 62, 100
2, 363936, Note_on_c, 0, 63, 110
2, 364028, Note_off_c, 0, 58, 100
2, 364028, Note_off_c, 0, 63, 100
2, 364032, Note_on_c, 0, 65, 110
2, 364124, Note_off_c, 0, 65, 100
2, 364128, Note_on_c, 0, 67, 110
2, 364220, Note_off_c, 0, 67, 100
2, 364224, Note_on_c, 0, 69, 110
2, 364224, Note_on_c, 0, 58, 110
2, 364316, Note_off_c, 0, 69, 100
2, 364320, Note_on_c, 0, 70, 110
2, 364412, Note_off_c, 0, 70, 100
2, 364416, Note_on_c, 0, 67, 110
2, 364508, Note_off_c, 0, 58, 100
2, 364512, Note_on_c, 0, 59, 110
2, 364604, Note_off_c, 0, 59, 100
2, 364608, Note_on_c, 0, 60, 110
2, 364700, Note_off_c, 0, 60, 100
2, 364704, Note_on_c, 0, 62, 110
2, 364796, Note_off_c, 0, 67, 100
2, 364796, Note_off_c, 0, 62, 100
2, 364800, Note_on_c, 0, 63, 110
2, 364992, Note_on_c, 0, 65, 110
2, 365084, Note_off_c, 0, 65, 100
2, 365088, Note_on_c, 0, 67, 110
2, 365180, Note_off_c, 0, 63, 100
2, 365180, Note_off_c, 0, 67, 100
2, 365184, Note_on_c, 0, 69, 110
2, 365276, Note_off_c, 0, 69, 100
2, 365280, Note_on_c, 0, 67, 110
2, 365372, Note_off_c, 0, 67, 100
2, 365376, Note_on_c, 0, 69, 110
2, 365376, Note_on_c, 0, 63, 110
2, 365468, Note_off_c, 0, 69, 100
2, 365472, Note_on_c, 0, 70, 110
2, 365564, Note_off_c, 0, 70, 100
2, 365568, Note_on_c, 0, 72, 110
2, 365660, Note_off_c, 0, 72, 100
2, 365664, Note_on_c, 0, 70, 110
2, 365756, Note_off_c, 0, 63, 100
2, 365756, Note_off_c, 0, 70, 100
2, 365760, Note_on_c, 0, 72, 110
2, 365760, Note_on_c, 0, 64, 110
2, 365852, Note_off_c, 0, 72, 100
2, 365856, Note_on_c, 0, 74, 110
2, 365948, Note_off_c, 0, 74, 100
2, 365952, Note_on_c, 0, 75, 110
2, 366044, Note_off_c, 0, 75, 100
2, 366048, Note_on_c, 0, 74, 110
2, 366140, Note_off_c, 0, 64, 100
2, 366140, Note_off_c, 0, 74, 100
2, 366144, Note_on_c, 0, 72, 110
2, 366144, Note_on_c, 0, 65, 110
2, 366236, Note_off_c, 0, 72, 100
2, 366240, Note_on_c, 0, 74, 110
2, 366332, Note_off_c, 0, 74, 100
2, 366336, Note_on_c, 0, 75, 110
2, 366428, Note_off_c, 0, 75, 100
2, 366432, Note_on_c, 0, 74, 110
2, 366524, Note_off_c, 0, 74, 100
2, 366528, Note_on_c, 0, 73, 110
2, 366620, Note_off_c, 0, 73, 100
2, 366624, Note_on_c, 0, 72, 110
2, 366716, Note_off_c, 0, 72, 100
2, 366720, Note_on_c, 0, 70, 110
2, 366812, Note_off_c, 0, 70, 100
2, 366816, Note_on_c, 0, 69, 110
2, 366908, Note_off_c, 0, 65, 100
2, 366908, Note_off_c, 0, 69, 100
2, 366912, Note_on_c, 0, 67, 110
2, 366912, Note_on_c, 0, 63, 110
2, 367004, Note_off_c, 0, 67, 100
2, 367008, Note_on_c, 0, 69, 110
2, 367100, Note_off_c, 0, 63, 100
2, 367100, Note_off_c, 0, 69, 100
2, 367104, Note_on_c, 0, 70, 110
2, 367104, Note_on_c, 0, 62, 110
2, 367196, Note_off_c, 0, 70, 100
2, 367200, Note_on_c, 0, 69, 110
2, 367292, Note_off_c, 0, 69, 100
2, 367296, Note_on_c, 0, 67, 110
2, 367388, Note_off_c, 0, 67, 100
2, 367392, Note_on_c, 0, 65, 110
2, 367484, Note_off_c, 0, 62, 100
2, 367488, Note_on_c, 0, 60, 110
2, 367580, Note_off_c, 0, 65, 100
2, 367584, Note_on_c, 0, 78, 110
2, 367676, Note_off_c, 0, 60, 100
2, 367676, Note_off_c, 0, 78, 100
2, 367680, Note_on_c, 0, 79, 110
2, 367772, Note_off_c, 0, 79, 100
2, 367776, Note_on_c, 0, 77, 110
2, 367868, Note_off_c, 0, 77, 100
2, 367872, Note_on_c, 0, 75, 110
2, 367964, Note_off_c, 0, 75, 100
2, 367968, Note_on_c, 0, 74, 110
2, 368060, Note_off_c, 0, 74, 100
2, 368064, Note_on_c, 0, 72, 110
2, 368156, Note_off_c, 0, 72, 100
2, 368160, Note_on_c, 0, 70, 110
2, 368252, Note_off_c, 0, 70, 100
2, 368256, Note_on_c, 0, 69, 110
2, 368348, Note_off_c, 0, 69, 100
2, 368352, Note_on_c, 0, 70, 110
2, 368444, Note_off_c, 0, 70, 100
2, 368448, Note_on_c, 0, 69, 110
2, 368540, Note_off_c, 0, 69, 100
2, 368544, Note_on_c, 0, 67, 110
2, 368636, Note_off_c, 0, 67, 100
2, 368640, Note_on_c, 0, 65, 110
2, 368732, Note_off_c, 0, 65, 100
2, 368736, Note_on_c, 0, 67, 110
2, 368828, Note_off_c, 0, 67, 100
2, 368832, Note_on_c, 0, 69, 110
2, 368924, Note_off_c, 0, 69, 100
2, 368928, Note_on_c, 0, 70, 110
2, 369020, Note_off_c, 0, 70, 100
2, 369024, Note_on_c, 0, 72, 110
2, 369116, Note_off_c, 0, 72, 100
2, 369120, Note_on_c, 0, 73, 110
2, 369212, Note_off_c, 0, 73, 100
2, 369216, Note_on_c, 0, 74, 110
2, 369308, Note_off_c, 0, 74, 100
2, 369312, Note_on_c, 0, 72, 110
2, 369404, Note_off_c, 0, 72, 100
2, 369408, Note_on_c, 0, 74, 110
2, 369408, Note_on_c, 0, 70, 110
2, 369500, Note_off_c, 0, 74, 100
2, 369504, Note_on_c, 0, 76, 110
2, 369596, Note_off_c, 0, 70, 100
2, 369596, Note_off_c, 0, 76, 100
2, 369624, Note_on_c, 0, 77, 110
2, 369696, Note_on_c, 0, 79, 110
2, 369716, Note_off_c, 0, 77, 100
2, 369884, Note_off_c, 0, 79, 100
2, 369888, Note_on_c, 0, 72, 110
2, 369980, Note_off_c, 0, 72, 100
2, 369984, Note_on_c, 0, 74, 110
2, 370076, Note_off_c, 0, 74, 100
2, 370080, Note_on_c, 0, 76, 110
2, 370172, Note_off_c, 0, 76, 100
2, 370176, Note_on_c, 0, 77, 110
2, 370268, Note_off_c, 0, 77, 100
2, 370272, Note_on_c, 0, 79, 110
2, 370364, Note_off_c, 0, 79, 100
2, 370368, Note_on_c, 0, 81, 110
2, 370460, Note_off_c, 0, 81, 100
2, 370464, Note_on_c, 0, 82, 110
2, 370556, Note_off_c, 0, 82, 100
2, 370560, Note_on_c, 0, 84, 110
2, 370652, Note_off_c, 0, 84, 100
2, 370656, Note_on_c, 0, 81, 110
2, 370748, Note_off_c, 0, 81, 100
2, 370752, Note_on_c, 0, 79, 110
2, 370844, Note_off_c, 0, 79, 100
2, 370848, Note_on_c, 0, 77, 110
2, 370940, Note_off_c, 0, 77, 100
2, 370944, Note_on_c, 0, 75, 110
2, 371036, Note_off_c, 0, 75, 100
2, 371040, Note_on_c, 0, 74, 110
2, 371132, Note_off_c, 0, 74, 100
2, 371136, Note_on_c, 0, 76, 110
2, 371228, Note_off_c, 0, 76, 100
2, 371232, Note_on_c, 0, 78, 110
2, 371324, Note_off_c, 0, 78, 100
2, 371328, Note_on_c, 0, 79, 110
2, 371420, Note_off_c, 0, 79, 100
2, 371424, Note_on_c, 0, 81, 110
2, 371516, Note_off_c, 0, 81, 100
2, 371520, Note_on_c, 0, 82, 110
2, 371612, Note_off_c, 0, 82, 100
2, 371616, Note_on_c, 0, 84, 110
2, 371708, Note_off_c, 0, 84, 100
2, 371712, Note_on_c, 0, 86, 110
2, 371804, Note_off_c, 0, 86, 100
2, 371808, Note_on_c, 0, 82, 110
2, 371900, Note_off_c, 0, 82, 100
2, 371904, Note_on_c, 0, 81, 110
2, 371996, Note_off_c, 0, 81, 100
2, 372000, Note_on_c, 0, 79, 110
2, 372092, Note_off_c, 0, 79, 100
2, 372096, Note_on_c, 0, 77, 110
2, 372188, Note_off_c, 0, 77, 100
2, 372192, Note_on_c, 0, 75, 110
2, 372284, Note_off_c, 0, 75, 100
2, 372288, Note_on_c, 0, 77, 110
2, 372380, Note_off_c, 0, 77, 100
2, 372384, Note_on_c, 0, 79, 110
2, 372476, Note_off_c, 0, 79, 100
2, 372480, Note_on_c, 0, 81, 110
2, 372572, Note_off_c, 0, 81, 100
2, 372576, Note_on_c, 0, 82, 110
2, 372668, Note_off_c, 0, 82, 100
2, 372672, Note_on_c, 0, 84, 110
2, 372764, Note_off_c, 0, 84, 100
2, 372768, Note_on_c, 0, 86, 110
2, 372860, Note_off_c, 0, 86, 100
2, 372864, Note_on_c, 0, 87, 110
2, 373052, Note_off_c, 0, 87, 100
2, 373248, Note_on_c, 0, 72, 110
2, 373248, Note_on_c, 0, 69, 110
2, 373296, Note_on_c, 0, 74, 110
2, 373328, Note_off_c, 0, 72, 100
2, 373344, Note_on_c, 0, 72, 110
2, 373376, Note_off_c, 0, 74, 100
2, 373392, Note_on_c, 0, 74, 110
2, 373424, Note_off_c, 0, 72, 100
2, 373440, Note_on_c, 0, 72, 110
2, 373472, Note_off_c, 0, 74, 100
2, 373488, Note_on_c, 0, 74, 110
2, 373520, Note_off_c, 0, 72, 100
2, 373536, Note_on_c, 0, 72, 110
2, 373568, Note_off_c, 0, 74, 100
2, 373584, Note_on_c, 0, 74, 110
2, 373616, Note_off_c, 0, 72, 100
2, 373628, Note_off_c, 0, 69, 100
2, 373632, Note_on_c, 0, 72, 110
2, 373632, Note_on_c, 0, 63, 110
2, 373664, Note_off_c, 0, 74, 100
2, 373680, Note_on_c, 0, 74, 110
2, 373712, Note_off_c, 0, 72, 100
2, 373728, Note_on_c, 0, 72, 110
2, 373760, Note_off_c, 0, 74, 100
2, 373776, Note_on_c, 0, 74, 110
2, 373808, Note_off_c, 0, 72, 100
2, 373824, Note_on_c, 0, 72, 110
2, 373856, Note_off_c, 0, 74, 100
2, 373872, Note_on_c, 0, 74, 110
2, 373904, Note_off_c, 0, 72, 100
2, 373920, Note_on_c, 0, 72, 110
2, 373952, Note_off_c, 0, 74, 100
2, 373968, Note_on_c, 0, 74, 110
2, 374000, Note_off_c, 0, 72, 100
2, 374012, Note_off_c, 0, 63, 100
2, 374016, Note_on_c, 0, 70, 110
2, 374016, Note_on_c, 0, 62, 110
2, 374048, Note_off_c, 0, 74, 100
2, 374204, Note_off_c, 0, 62, 100
2, 374208, Note_on_c, 0, 61, 110
2, 374396, Note_off_c, 0, 70, 100
2, 374396, Note_off_c, 0, 61, 100
2, 374400, Note_on_c, 0, 70, 110
2, 374400, Note_on_c, 0, 67, 110
2, 374448, Note_on_c, 0, 72, 110
2, 374480, Note_off_c, 0, 70, 100
2, 374496, Note_on_c, 0, 70, 110
2, 374528, Note_off_c, 0, 72, 100
2, 374544, Note_on_c, 0, 72, 110
2, 374576, Note_off_c, 0, 70, 100
2, 374592, Note_on_c, 0, 70, 110
2, 374624, Note_off_c, 0, 72, 100
2, 374640, Note_on_c, 0, 72, 110
2, 374672, Note_off_c, 0, 70, 100
2, 374688, Note_on_c, 0, 70, 110
2, 374720, Note_off_c, 0, 72, 100
2, 374736, Note_on_c, 0, 72, 110
2, 374768, Note_off_c, 0, 70, 100
2, 374780, Note_off_c, 0, 67, 100
2, 374784, Note_on_c, 0, 70, 110
2, 374784, Note_on_c, 0, 61, 110
2, 374816, Note_off_c, 0, 72, 100
2, 374832, Note_on_c, 0, 72, 110
2, 374864, Note_off_c, 0, 70, 100
2, 374880, Note_on_c, 0, 70, 110
2, 374912, Note_off_c, 0, 72, 100
2, 374928, Note_on_c, 0, 72, 110
2, 374960, Note_off_c, 0, 70, 100
2, 374976, Note_on_c, 0, 70, 110
2, 375008, Note_off_c, 0, 72, 100
2, 375024, Note_on_c, 0, 72, 110
2, 375056, Note_off_c, 0, 70, 100
2, 375072, Note_on_c, 0, 70, 110
2, 375104, Note_off_c, 0, 72, 100
2, 375120, Note_on_c, 0, 72, 110
2, 375152, Note_off_c, 0, 70, 100
2, 375164, Note_off_c, 0, 61, 100
2, 375168, Note_on_c, 0, 69, 110
2, 375168, Note_on_c, 0, 60, 110
2, 375200, Note_off_c, 0, 72, 100
2, 375356, Note_off_c, 0, 69, 100
2, 375356, Note_off_c, 0, 60, 100
2, 375360, Note_on_c, 0, 68, 110
2, 375360, Note_on_c, 0, 59, 110
2, 375548, Note_off_c, 0, 68, 100
2, 375548, Note_off_c, 0, 59, 100
2, 375552, Note_on_c, 0, 68, 110
2, 375552, Note_on_c, 0, 65, 110
2, 375600, Note_on_c, 0, 70, 110
2, 375632, Note_off_c, 0, 68, 100
2, 375648, Note_on_c, 0, 68, 110
2, 375680, Note_off_c, 0, 70, 100
2, 375696, Note_on_c, 0, 70, 110
2, 375728, Note_off_c, 0, 68, 100
2, 375744, Note_on_c, 0, 68, 110
2, 375776, Note_off_c, 0, 70, 100
2, 375792, Note_on_c, 0, 70, 110
2, 375824, Note_off_c, 0, 68, 100
2, 375840, Note_on_c, 0, 68, 110
2, 375872, Note_off_c, 0, 70, 100
2, 375888, Note_on_c, 0, 70, 110
2, 375920, Note_off_c, 0, 68, 100
2, 375932, Note_off_c, 0, 65, 100
2, 375936, Note_on_c, 0, 68, 110
2, 375936, Note_on_c, 0, 59, 110
2, 375968, Note_off_c, 0, 70, 100
2, 375984, Note_on_c, 0, 70, 110
2, 376016, Note_off_c, 0, 68, 100
2, 376032, Note_on_c, 0, 68, 110
2, 376064, Note_off_c, 0, 70, 100
2, 376080, Note_on_c, 0, 70, 110
2, 376112, Note_off_c, 0, 68, 100
2, 376128, Note_on_c, 0, 68, 110
2, 376160, Note_off_c, 0, 70, 100
2, 376176, Note_on_c, 0, 70, 110
2, 376208, Note_off_c, 0, 68, 100
2, 376224, Note_on_c, 0, 68, 110
2, 376256, Note_off_c, 0, 70, 100
2, 376272, Note_on_c, 0, 70, 110
2, 376304, Note_off_c, 0, 68, 100
2, 376316, Note_off_c, 0, 59, 100
2, 376320, Note_on_c, 0, 67, 110
2, 376320, Note_on_c, 0, 58, 110
2, 376352, Note_off_c, 0, 70, 100
2, 376508, Note_off_c, 0, 58, 100
2, 376512, Note_on_c, 0, 64, 110
2, 376700, Note_off_c, 0, 67, 100
2, 376700, Note_off_c, 0, 64, 100
2, 376704, Note_on_c, 0, 49, 110
2, 376796, Note_off_c, 0, 49, 100
2, 376800, Note_on_c, 0, 48, 110
2, 376892, Note_off_c, 0, 48, 100
2, 376896, Note_on_c, 0, 50, 110
2, 376988, Note_off_c, 0, 50, 100
2, 376992, Note_on_c, 0, 52, 110
2, 377084, Note_off_c, 0, 52, 100
2, 377088, Note_on_c, 0, 53, 110
2, 377180, Note_off_c, 0, 53, 100
2, 377184, Note_on_c, 0, 55, 110
2, 377276, Note_off_c, 0, 55, 100
2, 377280, Note_on_c, 0, 57, 110
2, 377280, Note_on_c, 0, 67, 110
2, 377372, Note_off_c, 0, 57, 100
2, 377376, Note_on_c, 0, 58, 110
2, 377468, Note_off_c, 0, 67, 100
2, 377468, Note_off_c, 0, 58, 100
2, 377472, Note_on_c, 0, 60, 110
2, 377472, Note_on_c, 0, 64, 110
2, 377564, Note_off_c, 0, 60, 100
2, 377568, Note_on_c, 0, 57, 110
2, 377660, Note_off_c, 0, 64, 100
2, 377660, Note_off_c, 0, 57, 100
2, 377664, Note_on_c, 0, 65, 110
2, 377664, Note_on_c, 0, 55, 110
2, 377756, Note_off_c, 0, 55, 100
2, 377760, Note_on_c, 0, 53, 110
2, 377852, Note_off_c, 0, 65, 100
2, 377852, Note_off_c, 0, 53, 100
2, 377856, Note_on_c, 0, 51, 110
2, 377948, Note_off_c, 0, 51, 100
2, 377952, Note_on_c, 0, 50, 110
2, 378044, Note_off_c, 0, 50, 100
2, 378048, Note_on_c, 0, 52, 110
2, 378140, Note_off_c, 0, 52, 100
2, 378144, Note_on_c, 0, 54, 110
2, 378236, Note_off_c, 0, 54, 100
2, 378240, Note_on_c, 0, 55, 110
2, 378332, Note_off_c, 0, 55, 100
2, 378336, Note_on_c, 0, 57, 110
2, 378428, Note_off_c, 0, 57, 100
2, 378432, Note_on_c, 0, 58, 110
2, 378432, Note_on_c, 0, 69, 110
2, 378524, Note_off_c, 0, 58, 100
2, 378528, Note_on_c, 0, 60, 110
2, 378620, Note_off_c, 0, 69, 100
2, 378620, Note_off_c, 0, 60, 100
2, 378624, Note_on_c, 0, 62, 110
2, 378624, Note_on_c, 0, 66, 110
2, 378716, Note_off_c, 0, 62, 100
2, 378720, Note_on_c, 0, 58, 110
2, 378812, Note_off_c, 0, 66, 100
2, 378812, Note_off_c, 0, 58, 100
2, 378816, Note_on_c, 0, 57, 110
2, 378816, Note_on_c, 0, 67, 110
2, 378908, Note_off_c, 0, 57, 100
2, 378912, Note_on_c, 0, 55, 110
2, 379004, Note_off_c, 0, 67, 100
2, 379004, Note_off_c, 0, 55, 100
2, 379008, Note_on_c, 0, 53, 110
2, 379100, Note_off_c, 0, 53, 100
2, 379104, Note_on_c, 0, 51, 110
2, 379196, Note_off_c, 0, 51, 100
2, 379200, Note_on_c, 0, 53, 110
2, 379292, Note_off_c, 0, 53, 100
2, 379296, Note_on_c, 0, 55, 110
2, 379388, Note_off_c, 0, 55, 100
2, 379392, Note_on_c, 0, 57, 110
2, 379484, Note_off_c, 0, 57, 100
2, 379488, Note_on_c, 0, 58, 110
2, 379580, Note_off_c, 0, 58, 100
2, 379584, Note_on_c, 0, 60, 110
2, 379584, Note_on_c, 0, 70, 110
2, 379676, Note_off_c, 0, 60, 100
2, 379680, Note_on_c, 0, 62, 110
2, 379772, Note_off_c, 0, 70, 100
2, 379772, Note_off_c, 0, 62, 100
2, 379776, Note_on_c, 0, 63, 110
2, 379776, Note_on_c, 0, 67, 110
2, 379868, Note_off_c, 0, 63, 100
2, 379872, Note_on_c, 0, 60, 110
2, 379964, Note_off_c, 0, 67, 100
2, 379964, Note_off_c, 0, 60, 100
2, 379968, Note_on_c, 0, 58, 110
2, 379968, Note_on_c, 0, 69, 110
2, 380060, Note_off_c, 0, 58, 100
2, 380064, Note_on_c, 0, 57, 110
2, 380156, Note_off_c, 0, 69, 100
2, 380156, Note_off_c, 0, 57, 100
2, 380160, Note_on_c, 0, 72, 110
2, 380160, Note_on_c, 0, 69, 110
2, 380252, Note_off_c, 0, 69, 100
2, 380256, Note_on_c, 0, 65, 110
2, 380348, Note_off_c, 0, 72, 100
2, 380348, Note_off_c, 0, 65, 100
2, 380352, Note_on_c, 0, 77, 110
2, 380352, Note_on_c, 0, 67, 110
2, 380444, Note_off_c, 0, 67, 100
2, 380448, Note_on_c, 0, 69, 110
2, 380540, Note_off_c, 0, 69, 100
2, 380544, Note_on_c, 0, 70, 110
2, 380636, Note_off_c, 0, 70, 100
2, 380640, Note_on_c, 0, 69, 110
2, 380732, Note_off_c, 0, 77, 100
2, 380732, Note_off_c, 0, 69, 100
2, 380736, Note_on_c, 0, 74, 110
2, 380736, Note_on_c, 0, 70, 110
2, 380828, Note_off_c, 0, 70, 100
2, 380832, Note_on_c, 0, 65, 110
2, 380924, Note_off_c, 0, 74, 100
2, 380924, Note_off_c, 0, 65, 100
2, 380928, Note_on_c, 0, 72, 110
2, 380928, Note_on_c, 0, 67, 110
2, 381020, Note_off_c, 0, 67, 100
2, 381024, Note_on_c, 0, 65, 110
2, 381116, Note_off_c, 0, 72, 100
2, 381116, Note_off_c, 0, 65, 100
2, 381120, Note_on_c, 0, 70, 110
2, 381120, Note_on_c, 0, 67, 110
2, 381212, Note_off_c, 0, 67, 100
2, 381216, Note_on_c, 0, 60, 110
2, 381308, Note_off_c, 0, 70, 100
2, 381312, Note_on_c, 0, 69, 110
2, 381404, Note_off_c, 0, 60, 100
2, 381500, Note_off_c, 0, 69, 100
2, 381504, Note_on_c, 0, 68, 110
2, 381692, Note_off_c, 0, 68, 100
2, 381696, Note_on_c, 0, 79, 127
2, 381696, Note_on_c, 0, 67, 110
2, 381788, Note_off_c, 0, 67, 100
2, 381792, Note_on_c, 0, 69, 110
2, 381884, Note_off_c, 0, 69, 100
2, 381888, Note_on_c, 0, 71, 110
2, 381980, Note_off_c, 0, 71, 100
2, 381984, Note_on_c, 0, 72, 110
2, 382076, Note_off_c, 0, 72, 100
2, 382080, Note_on_c, 0, 73, 110
2, 382172, Note_off_c, 0, 73, 100
2, 382176, Note_on_c, 0, 74, 110
2, 382268, Note_off_c, 0, 79, 100
2, 382268, Note_off_c, 0, 74, 100
2, 382272, Note_on_c, 0, 77, 110
2, 382272, Note_on_c, 0, 75, 110
2, 382364, Note_off_c, 0, 75, 100
2, 382368, Note_on_c, 0, 74, 110
2, 382460, Note_off_c, 0, 77, 100
2, 382460, Note_off_c, 0, 74, 100
2, 382464, Note_on_c, 0, 77, 110
2, 382652, Note_off_c, 0, 77, 100
2, 382656, Note_on_c, 0, 75, 110
2, 382844, Note_off_c, 0, 75, 100
2, 382848, Note_on_c, 0, 74, 110
2, 383036, Note_off_c, 0, 74, 100
2, 383040, Note_on_c, 0, 72, 110
2, 383228, Note_off_c, 0, 72, 100
2, 383232, Note_on_c, 0, 71, 110
2, 383420, Note_off_c, 0, 71, 100
2, 383424, Note_on_c, 0, 72, 110
2, 383612, Note_off_c, 0, 72, 100
2, 383616, Note_on_c, 0, 77, 110
2, 383616, Note_on_c, 0, 69, 110
2, 383708, Note_off_c, 0, 69, 100
2, 383712, Note_on_c, 0, 70, 110
2, 383804, Note_off_c, 0, 77, 100
2, 383804, Note_off_c, 0, 70, 100
2, 383808, Note_on_c, 0, 69, 110
2, 383900, Note_off_c, 0, 69, 100
2, 383904, Note_on_c, 0, 67, 110
2, 383996, Note_off_c, 0, 67, 100
2, 384000, Note_on_c, 0, 75, 127
2, 384000, Note_on_c, 0, 65, 110
2, 384092, Note_off_c, 0, 65, 100
2, 384096, Note_on_c, 0, 67, 110
2, 384188, Note_off_c, 0, 67, 100
2, 384192, Note_on_c, 0, 69, 110
2, 384284, Note_off_c, 0, 69, 100
2, 384288, Note_on_c, 0, 70, 110
2, 384380, Note_off_c, 0, 70, 100
2, 384384, Note_on_c, 0, 71, 110
2, 384476, Note_off_c, 0, 71, 100
2, 384480, Note_on_c, 0, 72, 110
2, 384572, Note_off_c, 0, 75, 100
2, 384572, Note_off_c, 0, 72, 100
2, 384576, Note_on_c, 0, 75, 110
2, 384576, Note_on_c, 0, 74, 110
2, 384668, Note_off_c, 0, 74, 100
2, 384672, Note_on_c, 0, 72, 110
2, 384764, Note_off_c, 0, 75, 100
2, 384764, Note_off_c, 0, 72, 100
2, 384768, Note_on_c, 0, 75, 110
2, 384956, Note_off_c, 0, 75, 100
2, 384960, Note_on_c, 0, 74, 110
2, 385148, Note_off_c, 0, 74, 100
2, 385152, Note_on_c, 0, 72, 110
2, 385340, Note_off_c, 0, 72, 100
2, 385344, Note_on_c, 0, 70, 110
2, 385532, Note_off_c, 0, 70, 100
2, 385536, Note_on_c, 0, 69, 110
2, 385724, Note_off_c, 0, 69, 100
2, 385728, Note_on_c, 0, 70, 110
2, 385916, Note_off_c, 0, 70, 100
2, 385920, Note_on_c, 0, 59, 110
2, 386012, Note_off_c, 0, 59, 100
2, 386016, Note_on_c, 0, 60, 110
2, 386108, Note_off_c, 0, 60, 100
2, 386112, Note_on_c, 0, 59, 110
2, 386204, Note_off_c, 0, 59, 100
2, 386208, Note_on_c, 0, 57, 110
2, 386300, Note_off_c, 0, 57, 100
2, 386304, Note_on_c, 0, 55, 110
2, 386396, Note_off_c, 0, 55, 100
2, 386400, Note_on_c, 0, 57, 110
2, 386492, Note_off_c, 0, 57, 100
2, 386496, Note_on_c, 0, 59, 110
2, 386588, Note_off_c, 0, 59, 100
2, 386592, Note_on_c, 0, 60, 110
2, 386684, Note_off_c, 0, 60, 100
2, 386688, Note_on_c, 0, 61, 110
2, 386780, Note_off_c, 0, 61, 100
2, 386784, Note_on_c, 0, 62, 110
2, 386876, Note_off_c, 0, 62, 100
2, 386880, Note_on_c, 0, 63, 110
2, 386972, Note_off_c, 0, 63, 100
2, 386976, Note_on_c, 0, 62, 110
2, 387068, Note_off_c, 0, 62, 100
2, 387072, Note_on_c, 0, 72, 110
2, 387072, Note_on_c, 0, 60, 110
2, 387164, Note_off_c, 0, 60, 100
2, 387168, Note_on_c, 0, 62, 110
2, 387260, Note_off_c, 0, 72, 100
2, 387260, Note_off_c, 0, 62, 100
2, 387264, Note_on_c, 0, 64, 110
2, 387356, Note_off_c, 0, 64, 100
2, 387360, Note_on_c, 0, 65, 110
2, 387452, Note_off_c, 0, 65, 100
2, 387456, Note_on_c, 0, 70, 127
2, 387456, Note_on_c, 0, 66, 110
2, 387548, Note_off_c, 0, 66, 100
2, 387552, Note_on_c, 0, 67, 110
2, 387644, Note_off_c, 0, 67, 100
2, 387648, Note_on_c, 0, 68, 110
2, 387740, Note_off_c, 0, 68, 100
2, 387744, Note_on_c, 0, 67, 110
2, 387836, Note_off_c, 0, 67, 100
2, 387840, Note_on_c, 0, 65, 110
2, 387932, Note_off_c, 0, 65, 100
2, 387936, Note_on_c, 0, 63, 110
2, 388028, Note_off_c, 0, 70, 100
2, 388028, Note_off_c, 0, 63, 100
2, 388032, Note_on_c, 0, 70, 110
2, 388032, Note_on_c, 0, 61, 110
2, 388124, Note_off_c, 0, 61, 100
2, 388128, Note_on_c, 0, 60, 110
2, 388220, Note_off_c, 0, 70, 100
2, 388220, Note_off_c, 0, 60, 100
2, 388224, Note_on_c, 0, 69, 110
2, 388316, Note_off_c, 0, 69, 100
2, 388320, Note_on_c, 0, 70, 110
2, 388412, Note_off_c, 0, 70, 100
2, 388416, Note_on_c, 0, 69, 110
2, 388508, Note_off_c, 0, 69, 100
2, 388512, Note_on_c, 0, 67, 110
2, 388604, Note_off_c, 0, 67, 100
2, 388608, Note_on_c, 0, 65, 110
2, 388700, Note_off_c, 0, 65, 100
2, 388704, Note_on_c, 0, 67, 110
2, 388796, Note_off_c, 0, 67, 100
2, 388800, Note_on_c, 0, 69, 110
2, 388892, Note_off_c, 0, 69, 100
2, 388896, Note_on_c, 0, 70, 110
2, 388988, Note_off_c, 0, 70, 100
2, 388992, Note_on_c, 0, 71, 110
2, 389084, Note_off_c, 0, 71, 100
2, 389088, Note_on_c, 0, 72, 110
2, 389180, Note_off_c, 0, 72, 100
2, 389184, Note_on_c, 0, 74, 110
2, 389276, Note_off_c, 0, 74, 100
2, 389280, Note_on_c, 0, 72, 110
2, 389372, Note_off_c, 0, 72, 100
2, 389376, Note_on_c, 0, 70, 110
2, 389468, Note_off_c, 0, 70, 100
2, 389472, Note_on_c, 0, 72, 110
2, 389564, Note_off_c, 0, 72, 100
2, 389568, Note_on_c, 0, 74, 110
2, 389660, Note_off_c, 0, 74, 100
2, 389664, Note_on_c, 0, 75, 110
2, 389756, Note_off_c, 0, 75, 100
2, 389760, Note_on_c, 0, 76, 110
2, 389852, Note_off_c, 0, 76, 100
2, 389856, Note_on_c, 0, 77, 110
2, 389948, Note_off_c, 0, 77, 100
2, 389952, Note_on_c, 0, 79, 110
2, 390044, Note_off_c, 0, 79, 100
2, 390048, Note_on_c, 0, 77, 110
2, 390140, Note_off_c, 0, 77, 100
2, 390144, Note_on_c, 0, 71, 110
2, 390236, Note_off_c, 0, 71, 100
2, 390240, Note_on_c, 0, 74, 110
2, 390332, Note_off_c, 0, 74, 100
2, 390336, Note_on_c, 0, 75, 110
2, 390428, Note_off_c, 0, 75, 100
2, 390432, Note_on_c, 0, 77, 110
2, 390524, Note_off_c, 0, 77, 100
2, 390528, Note_on_c, 0, 71, 110
2, 390620, Note_off_c, 0, 71, 100
2, 390624, Note_on_c, 0, 72, 110
2, 390716, Note_off_c, 0, 72, 100
2, 390720, Note_on_c, 0, 74, 110
2, 390812, Note_off_c, 0, 74, 100
2, 390816, Note_on_c, 0, 72, 110
2, 390908, Note_off_c, 0, 72, 100
2, 390912, Note_on_c, 0, 74, 110
2, 391004, Note_off_c, 0, 74, 100
2, 391008, Note_on_c, 0, 75, 110
2, 391100, Note_off_c, 0, 75, 100
2, 391104, Note_on_c, 0, 77, 110
2, 391196, Note_off_c, 0, 77, 100
2, 391200, Note_on_c, 0, 75, 110
2, 391292, Note_off_c, 0, 75, 100
2, 391296, Note_on_c, 0, 69, 110
2, 391388, Note_off_c, 0, 69, 100
2, 391392, Note_on_c, 0, 72, 110
2, 391484, Note_off_c, 0, 72, 100
2, 391488, Note_on_c, 0, 74, 110
2, 391580, Note_off_c, 0, 74, 100
2, 391584, Note_on_c, 0, 75, 110
2, 391676, Note_off_c, 0, 75, 100
2, 391680, Note_on_c, 0, 76, 110
2, 391772, Note_off_c, 0, 76, 100
2, 391776, Note_on_c, 0, 77, 110
2, 391868, Note_off_c, 0, 77, 100
2, 391872, Note_on_c, 0, 79, 110
2, 391964, Note_off_c, 0, 79, 100
2, 391968, Note_on_c, 0, 77, 110
2, 392060, Note_off_c, 0, 77, 100
2, 392064, Note_on_c, 0, 81, 110
2, 392156, Note_off_c, 0, 81, 100
2, 392160, Note_on_c, 0, 82, 110
2, 392252, Note_off_c, 0, 82, 100
2, 392256, Note_on_c, 0, 84, 110
2, 392348, Note_off_c, 0, 84, 100
2, 392352, Note_on_c, 0, 82, 110
2, 392444, Note_off_c, 0, 82, 100
2, 392448, Note_on_c, 0, 78, 110
2, 392540, Note_off_c, 0, 78, 100
2, 392544, Note_on_c, 0, 79, 110
2, 392636, Note_off_c, 0, 79, 100
2, 392640, Note_on_c, 0, 81, 110
2, 392732, Note_off_c, 0, 81, 100
2, 392736, Note_on_c, 0, 79, 110
2, 392828, Note_off_c, 0, 79, 100
2, 392832, Note_on_c, 0, 80, 110
2, 392924, Note_off_c, 0, 80, 100
2, 392928, Note_on_c, 0, 81, 110
2, 393020, Note_off_c, 0, 81, 100
2, 393024, Note_on_c, 0, 82, 110
2, 393116, Note_off_c, 0, 82, 100
2, 393120, Note_on_c, 0, 81, 110
2, 393212, Note_off_c, 0, 81, 100
2, 393216, Note_on_c, 0, 83, 110
2, 393308, Note_off_c, 0, 83, 100
2, 393312, Note_on_c, 0, 84, 110
2, 393404, Note_off_c, 0, 84, 100
2, 393408, Note_on_c, 0, 86, 110
2, 393500, Note_off_c, 0, 86, 100
2, 393504, Note_on_c, 0, 84, 110
2, 393596, Note_off_c, 0, 84, 100
2, 393600, Note_on_c, 0, 76, 110
2, 393692, Note_off_c, 0, 76, 100
2, 393696, Note_on_c, 0, 78, 110
2, 393788, Note_off_c, 0, 78, 100
2, 393792, Note_on_c, 0, 79, 110
2, 393884, Note_off_c, 0, 79, 100
2, 393888, Note_on_c, 0, 78, 110
2, 393980, Note_off_c, 0, 78, 100
2, 393984, Note_on_c, 0, 79, 110
2, 394076, Note_off_c, 0, 79, 100
2, 394080, Note_on_c, 0, 80, 110
2, 394172, Note_off_c, 0, 80, 100
2, 394176, Note_on_c, 0, 81, 110
2, 394268, Note_off_c, 0, 81, 100
2, 394272, Note_on_c, 0, 79, 110
2, 394364, Note_off_c, 0, 79, 100
2, 394368, Note_on_c, 0, 82, 110
2, 394460, Note_off_c, 0, 82, 100
2, 394464, Note_on_c, 0, 83, 110
2, 394556, Note_off_c, 0, 83, 100
2, 394560, Note_on_c, 0, 84, 110
2, 394652, Note_off_c, 0, 84, 100
2, 394656, Note_on_c, 0, 82, 110
2, 394748, Note_off_c, 0, 82, 100
2, 394752, Note_on_c, 0, 80, 110
2, 394844, Note_off_c, 0, 80, 100
2, 394848, Note_on_c, 0, 81, 110
2, 394940, Note_off_c, 0, 81, 100
2, 394944, Note_on_c, 0, 82, 110
2, 395036, Note_off_c, 0, 82, 100
2, 395040, Note_on_c, 0, 81, 110
2, 395132, Note_off_c, 0, 81, 100
2, 395136, Note_on_c, 0, 85, 110
2, 395228, Note_off_c, 0, 85, 100
2, 395232, Note_on_c, 0, 86, 110
2, 395324, Note_off_c, 0, 86, 100
2, 395328, Note_on_c, 0, 87, 110
2, 395420, Note_off_c, 0, 87, 100
2, 395424, Note_on_c, 0, 86, 110
2, 395516, Note_off_c, 0, 86, 100
2, 395520, Note_on_c, 0, 83, 110
2, 395612, Note_off_c, 0, 83, 100
2, 395616, Note_on_c, 0, 84, 110
2, 395708, Note_off_c, 0, 84, 100
2, 395712, Note_on_c, 0, 86, 110
2, 395804, Note_off_c, 0, 86, 100
2, 395808, Note_on_c, 0, 82, 110
2, 395900, Note_off_c, 0, 82, 100
2, 395904, Note_on_c, 0, 73, 110
2, 395996, Note_off_c, 0, 73, 100
2, 396000, Note_on_c, 0, 74, 110
2, 396092, Note_off_c, 0, 74, 100
2, 396096, Note_on_c, 0, 72, 110
2, 396188, Note_off_c, 0, 72, 100
2, 396192, Note_on_c, 0, 70, 110
2, 396284, Note_off_c, 0, 70, 100
2, 396288, Note_on_c, 0, 71, 110
2, 396288, Note_on_c, 0, 69, 110
2, 396380, Note_off_c, 0, 69, 100
2, 396384, Note_on_c, 0, 62, 110
2, 396476, Note_off_c, 0, 71, 100
2, 396476, Note_off_c, 0, 62, 100
2, 396480, Note_on_c, 0, 72, 110
2, 396480, Note_on_c, 0, 67, 110
2, 396572, Note_off_c, 0, 67, 100
2, 396576, Note_on_c, 0, 64, 111
2, 396668, Note_off_c, 0, 72, 100
2, 396668, Note_off_c, 0, 64, 100
2, 396672, Note_on_c, 0, 70, 111
2, 396672, Note_on_c, 0, 62, 111
2, 396764, Note_off_c, 0, 62, 100
2, 396768, Note_on_c, 0, 63, 112
2, 396860, Note_off_c, 0, 70, 100
2, 396860, Note_off_c, 0, 63, 100
2, 396864, Note_on_c, 0, 69, 112
2, 396864, Note_on_c, 0, 61, 112
2, 396956, Note_off_c, 0, 61, 100
2, 396960, Note_on_c, 0, 62, 113
2, 397052, Note_off_c, 0, 69, 100
2, 397052, Note_off_c, 0, 62, 100
2, 397056, Note_on_c, 0, 73, 113
2, 397056, Note_on_c, 0, 70, 113
2, 397148, Note_off_c, 0, 70, 100
2, 397152, Note_on_c, 0, 63, 113
2, 397244, Note_off_c, 0, 73, 100
2, 397244, Note_off_c, 0, 63, 100
2, 397248, Note_on_c, 0, 74, 114
2, 397248, Note_on_c, 0, 69, 114
2, 397340, Note_off_c, 0, 69, 100
2, 397344, Note_on_c, 0, 66, 114
2, 397436, Note_off_c, 0, 74, 100
2, 397436, Note_off_c, 0, 66, 100
2, 397440, Note_on_c, 0, 72, 115
2, 397440, Note_on_c, 0, 63, 115
2, 397532, Note_off_c, 0, 63, 100
2, 397536, Note_on_c, 0, 66, 115
2, 397628, Note_off_c, 0, 72, 100
2, 397628, Note_off_c, 0, 66, 100
2, 397632, Note_on_c, 0, 70, 116
2, 397632, Note_on_c, 0, 62, 116
2, 397724, Note_off_c, 0, 62, 100
2, 397728, Note_on_c, 0, 67, 116
2, 397820, Note_off_c, 0, 70, 100
2, 397820, Note_off_c, 0, 67, 100
2, 397824, Note_on_c, 0, 75, 116
2, 397824, Note_on_c, 0, 70, 116
2, 397916, Note_off_c, 0, 70, 100
2, 397920, Note_on_c, 0, 69, 117
2, 398012, Note_off_c, 0, 75, 100
2, 398012, Note_off_c, 0, 69, 100
2, 398016, Note_on_c, 0, 76, 117
2, 398016, Note_on_c, 0, 70, 117
2, 398108, Note_off_c, 0, 70, 100
2, 398112, Note_on_c, 0, 67, 118
2, 398204, Note_off_c, 0, 76, 100
2, 398204, Note_off_c, 0, 67, 100
2, 398208, Note_on_c, 0, 78, 118
2, 398208, Note_on_c, 0, 73, 118
2, 398300, Note_off_c, 0, 73, 100
2, 398304, Note_on_c, 0, 72, 119
2, 398396, Note_off_c, 0, 78, 100
2, 398396, Note_off_c, 0, 72, 100
2, 398400, Note_on_c, 0, 79, 119
2, 398400, Note_on_c, 0, 73, 119
2, 398492, Note_off_c, 0, 73, 100
2, 398496, Note_on_c, 0, 70, 119
2, 398588, Note_off_c, 0, 79, 100
2, 398588, Note_off_c, 0, 70, 100
2, 398592, Note_on_c, 0, 70, 125
2, 398592, Note_on_c, 0, 67, 125
2, 398592, Note_on_c, 0, 64, 125
2, 398780, Note_off_c, 0, 70, 100
2, 398780, Note_off_c, 0, 67, 100
2, 398780, Note_off_c, 0, 64, 100
2, 398976, Note_on_c, 0, 88, 110
2, 398976, Note_on_c, 0, 85, 110
2, 398976, Note_on_c, 0, 82, 110
2, 399024, Note_on_c, 0, 89, 110
2, 399056, Note_off_c, 0, 88, 100
2, 399072, Note_on_c, 0, 88, 110
2, 399104, Note_off_c, 0, 89, 100
2, 399120, Note_on_c, 0, 89, 110
2, 399152, Note_off_c, 0, 88, 100
2, 399168, Note_on_c, 0, 88, 110
2, 399200, Note_off_c, 0, 89, 100
2, 399216, Note_on_c, 0, 89, 110
2, 399248, Note_off_c, 0, 88, 100
2, 399264, Note_on_c, 0, 88, 110
2, 399296, Note_off_c, 0, 89, 100
2, 399312, Note_on_c, 0, 89, 110
2, 399344, Note_off_c, 0, 88, 100
2, 399360, Note_on_c, 0, 88, 110
2, 399392, Note_off_c, 0, 89, 100
2, 399408, Note_on_c, 0, 89, 110
2, 399440, Note_off_c, 0, 88, 100
2, 399456, Note_on_c, 0, 88, 110
2, 399488, Note_off_c, 0, 89, 100
2, 399504, Note_on_c, 0, 89, 110
2, 399536, Note_off_c, 0, 88, 100
2, 399552, Note_on_c, 0, 88, 110
2, 399584, Note_off_c, 0, 89, 100
2, 399600, Note_on_c, 0, 89, 110
2, 399632, Note_off_c, 0, 88, 100
2, 399648, Note_on_c, 0, 86, 110
2, 399680, Note_off_c, 0, 89, 100
2, 399696, Note_on_c, 0, 88, 110
2, 399728, Note_off_c, 0, 86, 100
2, 399740, Note_off_c, 0, 85, 100
2, 399740, Note_off_c, 0, 82, 100
2, 399744, Note_on_c, 0, 91, 110
2, 399776, Note_off_c, 0, 88, 100
2, 399936, Note_on_c, 0, 58, 90
2, 400124, Note_off_c, 0, 91, 100
2, 400124, Note_off_c, 0, 58, 100
2, 400128, Note_on_c, 0, 76, 90
2, 400176, Note_on_c, 0, 77, 90
2, 400208, Note_off_c, 0, 76, 100
2, 400224, Note_on_c, 0, 76, 90
2, 400256, Note_off_c, 0, 77, 100
2, 400272, Note_on_c, 0, 77, 90
2, 400304, Note_off_c, 0, 76, 100
2, 400320, Note_on_c, 0, 76, 90
2, 400352, Note_off_c, 0, 77, 100
2, 400368, Note_on_c, 0, 77, 90
2, 400400, Note_off_c, 0, 76, 100
2, 400416, Note_on_c, 0, 76, 90
2, 400448, Note_off_c, 0, 77, 100
2, 400464, Note_on_c, 0, 77, 90
2, 400496, Note_off_c, 0, 76, 100
2, 400512, Note_on_c, 0, 76, 90
2, 400544, Note_off_c, 0, 77, 100
2, 400560, Note_on_c, 0, 77, 90
2, 400592, Note_off_c, 0, 76, 100
2, 400608, Note_on_c, 0, 76, 90
2, 400640, Note_off_c, 0, 77, 100
2, 400656, Note_on_c, 0, 77, 90
2, 400688, Note_off_c, 0, 76, 100
2, 400704, Note_on_c, 0, 76, 90
2, 400736, Note_off_c, 0, 77, 100
2, 400752, Note_on_c, 0, 77, 90
2, 400784, Note_off_c, 0, 76, 100
2, 400800, Note_on_c, 0, 74, 90
2, 400832, Note_off_c, 0, 77, 100
2, 400848, Note_on_c, 0, 76, 90
2, 400880, Note_off_c, 0, 74, 100
2, 400896, Note_on_c, 0, 77, 90
2, 400928, Note_off_c, 0, 76, 100
2, 401088, Note_on_c, 0, 81, 90
2, 401276, Note_off_c, 0, 77, 100
2, 401276, Note_off_c, 0, 81, 100
2, 401280, Note_on_c, 0, 93, 90
2, 401468, Note_off_c, 0, 93, 100
2, 401472, Note_on_c, 0, 64, 90
2, 401660, Note_off_c, 0, 64, 100
2, 401664, Note_on_c, 0, 65, 90
2, 401852, Note_off_c, 0, 65, 100
2, 402048, Note_on_c, 0, 74, 90
2, 402240, Note_on_c, 0, 77, 90
2, 402428, Note_off_c, 0, 74, 100
2, 402428, Note_off_c, 0, 77, 100
2, 402432, Note_on_c, 0, 89, 90
2, 402620, Note_off_c, 0, 89, 100
2, 402624, Note_on_c, 0, 61, 90
2, 402812, Note_off_c, 0, 61, 100
2, 402816, Note_on_c, 0, 62, 90
2, 403004, Note_off_c, 0, 62, 100
2, 403200, Note_on_c, 0, 70, 90
2, 403392, Note_on_c, 0, 74, 90
2, 403580, Note_off_c, 0, 70, 100
2, 403580, Note_off_c, 0, 74, 100
2, 403584, Note_on_c, 0, 86, 90
2, 403772, Note_off_c, 0, 86, 100
2, 403776, Note_on_c, 0, 84, 90
2, 403964, Note_off_c, 0, 84, 100
2, 403968, Note_on_c, 0, 82, 90
2, 404156, Note_off_c, 0, 82, 100
2, 404160, Note_on_c, 0, 83, 90
2, 404348, Note_off_c, 0, 83, 100
2, 404352, Note_on_c, 0, 84, 90
2, 404540, Note_off_c, 0, 84, 100
2, 404736, Note_on_c, 0, 82, 90
2, 405308, Note_off_c, 0, 82, 100
2, 405312, Note_on_c, 0, 82, 90
2, 405500, Note_off_c, 0, 82, 100
2, 405504, Note_on_c, 0, 77, 90
2, 405596, Note_off_c, 0, 77, 100
2, 405600, Note_on_c, 0, 79, 90
2, 405692, Note_off_c, 0, 79, 100
2, 405696, Note_on_c, 0, 81, 90
2, 405788, Note_off_c, 0, 81, 100
2, 405792, Note_on_c, 0, 82, 90
2, 405884, Note_off_c, 0, 82, 100
2, 405888, Note_on_c, 0, 83, 90
2, 405980, Note_off_c, 0, 83, 100
2, 405984, Note_on_c, 0, 84, 90
2, 406076, Note_off_c, 0, 84, 100
2, 406080, Note_on_c, 0, 86, 90
2, 406172, Note_off_c, 0, 86, 100
2, 406176, Note_on_c, 0, 84, 90
2, 406268, Note_off_c, 0, 84, 100
2, 406272, Note_on_c, 0, 82, 90
2, 406364, Note_off_c, 0, 82, 100
2, 406368, Note_on_c, 0, 81, 90
2, 406460, Note_off_c, 0, 81, 100
2, 406464, Note_on_c, 0, 79, 90
2, 406556, Note_off_c, 0, 79, 100
2, 406560, Note_on_c, 0, 77, 90
2, 406652, Note_off_c, 0, 77, 100
2, 406656, Note_on_c, 0, 86, 90
2, 406844, Note_off_c, 0, 86, 100
2, 407040, Note_on_c, 0, 84, 90
2, 407612, Note_off_c, 0, 84, 100
2, 407616, Note_on_c, 0, 84, 90
2, 407804, Note_off_c, 0, 84, 100
2, 407808, Note_on_c, 0, 79, 90
2, 407900, Note_off_c, 0, 79, 100
2, 407904, Note_on_c, 0, 81, 90
2, 407996, Note_off_c, 0, 81, 100
2, 408000, Note_on_c, 0, 82, 90
2, 408092, Note_off_c, 0, 82, 100
2, 408096, Note_on_c, 0, 84, 90
2, 408188, Note_off_c, 0, 84, 100
2, 408192, Note_on_c, 0, 85, 90
2, 408284, Note_off_c, 0, 85, 100
2, 408288, Note_on_c, 0, 86, 90
2, 408380, Note_off_c, 0, 86, 100
2, 408384, Note_on_c, 0, 87, 90
2, 408476, Note_off_c, 0, 87, 100
2, 408480, Note_on_c, 0, 86, 90
2, 408572, Note_off_c, 0, 86, 100
2, 408576, Note_on_c, 0, 84, 90
2, 408668, Note_off_c, 0, 84, 100
2, 408672, Note_on_c, 0, 82, 90
2, 408764, Note_off_c, 0, 82, 100
2, 408768, Note_on_c, 0, 81, 90
2, 408860, Note_off_c, 0, 81, 100
2, 408864, Note_on_c, 0, 79, 90
2, 408956, Note_off_c, 0, 79, 100
2, 408960, Note_on_c, 0, 89, 90
2, 409148, Note_off_c, 0, 89, 100
2, 409344, Note_on_c, 0, 87, 90
2, 409916, Note_off_c, 0, 87, 100
2, 409920, Note_on_c, 0, 87, 90
2, 410108, Note_off_c, 0, 87, 100
2, 410112, Note_on_c, 0, 82, 90
2, 410204, Note_off_c, 0, 82, 100
2, 410208, Note_on_c, 0, 84, 90
2, 410300, Note_off_c, 0, 84, 100
2, 410304, Note_on_c, 0, 86, 91
2, 410396, Note_off_c, 0, 86, 100
2, 410400, Note_on_c, 0, 87, 92
2, 410492, Note_off_c, 0, 87, 100
2, 410496, Note_on_c, 0, 88, 93
2, 410588, Note_off_c, 0, 88, 100
2, 410592, Note_on_c, 0, 89, 94
2, 410684, Note_off_c, 0, 89, 100
2, 410688, Note_on_c, 0, 91, 95
2, 410780, Note_off_c, 0, 91, 100
2, 410784, Note_on_c, 0, 89, 96
2, 410876, Note_off_c, 0, 89, 100
2, 410880, Note_on_c, 0, 88, 96
2, 410972, Note_off_c, 0, 88, 100
2, 410976, Note_on_c, 0, 89, 97
2, 411068, Note_off_c, 0, 89, 100
2, 411072, Note_on_c, 0, 90, 98
2, 411164, Note_off_c, 0, 90, 100
2, 411168, Note_on_c, 0, 89, 99
2, 411260, Note_off_c, 0, 89, 100
2, 411264, Note_on_c, 0, 86, 100
2, 411356, Note_off_c, 0, 86, 100
2, 411360, Note_on_c, 0, 87, 101
2, 411452, Note_off_c, 0, 87, 100
2, 411456, Note_on_c, 0, 89, 102
2, 411548, Note_off_c, 0, 89, 100
2, 411552, Note_on_c, 0, 87, 103
2, 411644, Note_off_c, 0, 87, 100
2, 411648, Note_on_c, 0, 84, 103
2, 411740, Note_off_c, 0, 84, 100
2, 411744, Note_on_c, 0, 85, 104
2, 411836, Note_off_c, 0, 85, 100
2, 411840, Note_on_c, 0, 87, 105
2, 411932, Note_off_c, 0, 87, 100
2, 411936, Note_on_c, 0, 85, 106
2, 412028, Note_off_c, 0, 85, 100
2, 412032, Note_on_c, 0, 83, 107
2, 412124, Note_off_c, 0, 83, 100
2, 412128, Note_on_c, 0, 84, 108
2, 412220, Note_off_c, 0, 84, 100
2, 412224, Note_on_c, 0, 85, 109
2, 412316, Note_off_c, 0, 85, 100
2, 412320, Note_on_c, 0, 84, 109
2, 412412, Note_off_c, 0, 84, 100
2, 412416, Note_on_c, 0, 75, 110
2, 412604, Note_off_c, 0, 75, 100
2, 412608, Note_on_c, 0, 90, 110
2, 412796, Note_off_c, 0, 90, 100
2, 412800, Note_on_c, 0, 77, 110
2, 412800, Note_on_c, 0, 72, 110
2, 412800, Note_on_c, 0, 66, 110
2, 412892, Note_off_c, 0, 77, 100
2, 412896, Note_on_c, 0, 75, 110
2, 412988, Note_off_c, 0, 75, 100
2, 412992, Note_on_c, 0, 77, 110
2, 413084, Note_off_c, 0, 77, 100
2, 413088, Note_on_c, 0, 75, 110
2, 413180, Note_off_c, 0, 75, 100
2, 413184, Note_on_c, 0, 77, 110
2, 413276, Note_off_c, 0, 77, 100
2, 413280, Note_on_c, 0, 75, 110
2, 413372, Note_off_c, 0, 75, 100
2, 413376, Note_on_c, 0, 74, 110
2, 413468, Note_off_c, 0, 74, 100
2, 413472, Note_on_c, 0, 75, 110
2, 413564, Note_off_c, 0, 72, 100
2, 413564, Note_off_c, 0, 75, 100
2, 413568, Note_on_c, 0, 70, 110
2, 413568, Note_on_c, 0, 74, 110
2, 413756, Note_off_c, 0, 66, 100
2, 413760, Note_on_c, 0, 65, 110
2, 413760, Note_on_c, 0, 58, 110
2, 413948, Note_off_c, 0, 70, 100
2, 413948, Note_off_c, 0, 74, 100
2, 413948, Note_off_c, 0, 65, 100
2, 413948, Note_off_c, 0, 58, 100
2, 413952, Note_on_c, 0, 70, 110
2, 414140, Note_off_c, 0, 70, 100
2, 414144, Note_on_c, 0, 74, 110
2, 414236, Note_off_c, 0, 74, 100
2, 414240, Note_on_c, 0, 75, 110
2, 414332, Note_off_c, 0, 75, 100
2, 414336, Note_on_c, 0, 77, 110
2, 414428, Note_off_c, 0, 77, 100
2, 414432, Note_on_c, 0, 79, 110
2, 414524, Note_off_c, 0, 79, 100
2, 414528, Note_on_c, 0, 81, 110
2, 414620, Note_off_c, 0, 81, 100
2, 414624, Note_on_c, 0, 82, 110
2, 414716, Note_off_c, 0, 82, 100
2, 414720, Note_on_c, 0, 77, 110
2, 414912, Note_on_c, 0, 62, 110
2, 415100, Note_off_c, 0, 77, 100
2, 415100, Note_off_c, 0, 62, 100
2, 415104, Note_on_c, 0, 74, 110
2, 415292, Note_off_c, 0, 74, 100
2, 415296, Note_on_c, 0, 77, 110
2, 415388, Note_off_c, 0, 77, 100
2, 415392, Note_on_c, 0, 79, 110
2, 415484, Note_off_c, 0, 79, 100
2, 415488, Note_on_c, 0, 81, 110
2, 415580, Note_off_c, 0, 81, 100
2, 415584, Note_on_c, 0, 82, 110
2, 415676, Note_off_c, 0, 82, 100
2, 415680, Note_on_c, 0, 84, 110
2, 415772, Note_off_c, 0, 84, 100
2, 415776, Note_on_c, 0, 86, 110
2, 415868, Note_off_c, 0, 86, 100
2, 415872, Note_on_c, 0, 79, 110
2, 416064, Note_on_c, 0, 63, 110
2, 416252, Note_off_c, 0, 79, 100
2, 416252, Note_off_c, 0, 63, 100
2, 416256, Note_on_c, 0, 75, 110
2, 416444, Note_off_c, 0, 75, 100
2, 416448, Note_on_c, 0, 79, 110
2, 416540, Note_off_c, 0, 79, 100
2, 416544, Note_on_c, 0, 81, 110
2, 416636, Note_off_c, 0, 81, 100
2, 416640, Note_on_c, 0, 82, 110
2, 416732, Note_off_c, 0, 82, 100
2, 416736, Note_on_c, 0, 83, 110
2, 416828, Note_off_c, 0, 83, 100
2, 416832, Note_on_c, 0, 84, 110
2, 416924, Note_off_c, 0, 84, 100
2, 416928, Note_on_c, 0, 86, 110
2, 417020, Note_off_c, 0, 86, 100
2, 417024, Note_on_c, 0, 87, 110
2, 417212, Note_off_c, 0, 87, 100
2, 417216, Note_on_c, 0, 88, 110
2, 417500, Note_off_c, 0, 88, 100
2, 417504, Note_on_c, 0, 89, 110
2, 417596, Note_off_c, 0, 89, 100
2, 417600, Note_on_c, 0, 87, 110
2, 417692, Note_off_c, 0, 87, 100
2, 417696, Note_on_c, 0, 86, 110
2, 417788, Note_off_c, 0, 86, 100
2, 417792, Note_on_c, 0, 84, 110
2, 417792, Note_on_c, 0, 69, 110
2, 417840, Note_on_c, 0, 70, 110
2, 417872, Note_off_c, 0, 69, 100
2, 417884, Note_off_c, 0, 84, 100
2, 417888, Note_on_c, 0, 82, 110
2, 417888, Note_on_c, 0, 69, 110
2, 417920, Note_off_c, 0, 70, 100
2, 417936, Note_on_c, 0, 70, 110
2, 417968, Note_off_c, 0, 69, 100
2, 417980, Note_off_c, 0, 82, 100
2, 417984, Note_on_c, 0, 81, 110
2, 417984, Note_on_c, 0, 69, 110
2, 418016, Note_off_c, 0, 70, 100
2, 418032, Note_on_c, 0, 70, 110
2, 418064, Note_off_c, 0, 69, 100
2, 418076, Note_off_c, 0, 81, 100
2, 418080, Note_on_c, 0, 79, 110
2, 418080, Note_on_c, 0, 69, 110
2, 418112, Note_off_c, 0, 70, 100
2, 418128, Note_on_c, 0, 70, 110
2, 418160, Note_off_c, 0, 69, 100
2, 418172, Note_off_c, 0, 79, 100
2, 418176, Note_on_c, 0, 69, 110
2, 418176, Note_on_c, 0, 77, 110
2, 418208, Note_off_c, 0, 70, 100
2, 418224, Note_on_c, 0, 70, 110
2, 418256, Note_off_c, 0, 69, 100
2, 418268, Note_off_c, 0, 77, 100
2, 418272, Note_on_c, 0, 69, 110
2, 418272, Note_on_c, 0, 79, 110
2, 418304, Note_off_c, 0, 70, 100
2, 418320, Note_on_c, 0, 70, 110
2, 418352, Note_off_c, 0, 69, 100
2, 418364, Note_off_c, 0, 79, 100
2, 418368, Note_on_c, 0, 69, 110
2, 418368, Note_on_c, 0, 77, 110
2, 418400, Note_off_c, 0, 70, 100
2, 418416, Note_on_c, 0, 70, 110
2, 418448, Note_off_c, 0, 69, 100
2, 418460, Note_off_c, 0, 77, 100
2, 418464, Note_on_c, 0, 67, 110
2, 418464, Note_on_c, 0, 75, 110
2, 418496, Note_off_c, 0, 70, 100
2, 418512, Note_on_c, 0, 69, 110
2, 418544, Note_off_c, 0, 67, 100
2, 418556, Note_off_c, 0, 75, 100
2, 418560, Note_on_c, 0, 70, 110
2, 418560, Note_on_c, 0, 74, 110
2, 418592, Note_off_c, 0, 69, 100
2, 418652, Note_off_c, 0, 74, 100
2, 418656, Note_on_c, 0, 75, 110
2, 418748, Note_off_c, 0, 75, 100
2, 418752, Note_on_c, 0, 77, 110
2, 418844, Note_off_c, 0, 77, 100
2, 418848, Note_on_c, 0, 76, 110
2, 418940, Note_off_c, 0, 70, 100
2, 418940, Note_off_c, 0, 76, 100
2, 418944, Note_on_c, 0, 77, 110
2, 419132, Note_off_c, 0, 77, 100
2, 419136, Note_on_c, 0, 70, 110
2, 419228, Note_off_c, 0, 70, 100
2, 419232, Note_on_c, 0, 69, 110
2, 419324, Note_off_c, 0, 69, 100
2, 419328, Note_on_c, 0, 67, 110
2, 419420, Note_off_c, 0, 67, 100
2, 419424, Note_on_c, 0, 65, 110
2, 419516, Note_off_c, 0, 65, 100
2, 419520, Note_on_c, 0, 63, 110
2, 419612, Note_off_c, 0, 63, 100
2, 419616, Note_on_c, 0, 62, 110
2, 419708, Note_off_c, 0, 62, 100
2, 419712, Note_on_c, 0, 59, 110
2, 419712, Note_on_c, 0, 67, 110
2, 419900, Note_off_c, 0, 59, 100
2, 420092, Note_off_c, 0, 67, 100
2, 420096, Note_on_c, 0, 75, 110
2, 420144, Note_on_c, 0, 77, 110
2, 420176, Note_off_c, 0, 75, 100
2, 420192, Note_on_c, 0, 75, 110
2, 420224, Note_off_c, 0, 77, 100
2, 420240, Note_on_c, 0, 77, 110
2, 420272, Note_off_c, 0, 75, 100
2, 420288, Note_on_c, 0, 75, 110
2, 420288, Note_on_c, 0, 67, 110
2, 420320, Note_off_c, 0, 77, 100
2, 420336, Note_on_c, 0, 77, 110
2, 420368, Note_off_c, 0, 75, 100
2, 420380, Note_off_c, 0, 67, 100
2, 420384, Note_on_c, 0, 75, 110
2, 420384, Note_on_c, 0, 65, 110
2, 420416, Note_off_c, 0, 77, 100
2, 420432, Note_on_c, 0, 77, 110
2, 420464, Note_off_c, 0, 75, 100
2, 420476, Note_off_c, 0, 65, 100
2, 420480, Note_on_c, 0, 75, 110
2, 420480, Note_on_c, 0, 63, 110
2, 420512, Note_off_c, 0, 77, 100
2, 420528, Note_on_c, 0, 77, 110
2, 420560, Note_off_c, 0, 75, 100
2, 420572, Note_off_c, 0, 63, 100
2, 420576, Note_on_c, 0, 75, 110
2, 420576, Note_on_c, 0, 62, 110
2, 420608, Note_off_c, 0, 77, 100
2, 420624, Note_on_c, 0, 77, 110
2, 420656, Note_off_c, 0, 75, 100
2, 420668, Note_off_c, 0, 62, 100
2, 420672, Note_on_c, 0, 75, 110
2, 420672, Note_on_c, 0, 60, 110
2, 420704, Note_off_c, 0, 77, 100
2, 420720, Note_on_c, 0, 77, 110
2, 420752, Note_off_c, 0, 75, 100
2, 420764, Note_off_c, 0, 60, 100
2, 420768, Note_on_c, 0, 74, 110
2, 420768, Note_on_c, 0, 58, 110
2, 420800, Note_off_c, 0, 77, 100
2, 420816, Note_on_c, 0, 75, 110
2, 420848, Note_off_c, 0, 74, 100
2, 420860, Note_off_c, 0, 58, 100
2, 420864, Note_on_c, 0, 79, 110
2, 420864, Note_on_c, 0, 63, 110
2, 420896, Note_off_c, 0, 75, 100
2, 421244, Note_off_c, 0, 79, 100
2, 421244, Note_off_c, 0, 63, 100
2, 421440, Note_on_c, 0, 79, 110
2, 421440, Note_on_c, 0, 63, 110
2, 421532, Note_off_c, 0, 79, 100
2, 421532, Note_off_c, 0, 63, 100
2, 421536, Note_on_c, 0, 77, 110
2, 421536, Note_on_c, 0, 62, 110
2, 421628, Note_off_c, 0, 77, 100
2, 421628, Note_off_c, 0, 62, 100
2, 421632, Note_on_c, 0, 75, 110
2, 421632, Note_on_c, 0, 60, 110
2, 421724, Note_off_c, 0, 75, 100
2, 421724, Note_off_c, 0, 60, 100
2, 421728, Note_on_c, 0, 74, 110
2, 421728, Note_on_c, 0, 59, 110
2, 421820, Note_off_c, 0, 74, 100
2, 421820, Note_off_c, 0, 59, 100
2, 421824, Note_on_c, 0, 72, 110
2, 421824, Note_on_c, 0, 57, 110
2, 421916, Note_off_c, 0, 72, 100
2, 421916, Note_off_c, 0, 57, 100
2, 421920, Note_on_c, 0, 71, 110
2, 421920, Note_on_c, 0, 55, 110
2, 422012, Note_off_c, 0, 71, 100
2, 422012, Note_off_c, 0, 55, 100
2, 422016, Note_on_c, 0, 72, 110
2, 422016, Note_on_c, 0, 63, 110
2, 422396, Note_off_c, 0, 72, 100
2, 422396, Note_off_c, 0, 63, 100
2, 422400, Note_on_c, 0, 67, 110
2, 422592, Note_on_c, 0, 72, 110
2, 422684, Note_off_c, 0, 72, 100
2, 422688, Note_on_c, 0, 70, 110
2, 422780, Note_off_c, 0, 67, 100
2, 422780, Note_off_c, 0, 70, 100
2, 422784, Note_on_c, 0, 69, 110
2, 422784, Note_on_c, 0, 60, 110
2, 422876, Note_off_c, 0, 69, 100
2, 422880, Note_on_c, 0, 67, 110
2, 422972, Note_off_c, 0, 67, 100
2, 422976, Note_on_c, 0, 65, 110
2, 423068, Note_off_c, 0, 65, 100
2, 423072, Note_on_c, 0, 64, 110
2, 423164, Note_off_c, 0, 60, 100
2, 423164, Note_off_c, 0, 64, 100
2, 423168, Note_on_c, 0, 62, 110
2, 423260, Note_off_c, 0, 62, 100
2, 423264, Note_on_c, 0, 60, 110
2, 423356, Note_off_c, 0, 60, 100
2, 423360, Note_on_c, 0, 58, 110
2, 423452, Note_off_c, 0, 58, 100
2, 423456, Note_on_c, 0, 57, 110
2, 423548, Note_off_c, 0, 57, 100
2, 423552, Note_on_c, 0, 69, 110
2, 423740, Note_off_c, 0, 69, 100
2, 423744, Note_on_c, 0, 62, 110
2, 423836, Note_off_c, 0, 62, 100
2, 423840, Note_on_c, 0, 60, 110
2, 423932, Note_off_c, 0, 60, 100
2, 423936, Note_on_c, 0, 58, 110
2, 424028, Note_off_c, 0, 58, 100
2, 424032, Note_on_c, 0, 57, 110
2, 424124, Note_off_c, 0, 57, 100
2, 424128, Note_on_c, 0, 55, 110
2, 424220, Note_off_c, 0, 55, 100
2, 424224, Note_on_c, 0, 53, 110
2, 424316, Note_off_c, 0, 53, 100
2, 424320, Note_on_c, 0, 52, 110
2, 424412, Note_off_c, 0, 52, 100
2, 424416, Note_on_c, 0, 50, 110
2, 424508, Note_off_c, 0, 50, 100
2, 424512, Note_on_c, 0, 48, 110
2, 424604, Note_off_c, 0, 48, 100
2, 424608, Note_on_c, 0, 46, 110
2, 424700, Note_off_c, 0, 46, 100
2, 424704, Note_on_c, 0, 58, 110
2, 424892, Note_off_c, 0, 58, 100
2, 424896, Note_on_c, 0, 75, 110
2, 424988, Note_off_c, 0, 75, 100
2, 424992, Note_on_c, 0, 74, 110
2, 425084, Note_off_c, 0, 74, 100
2, 425088, Note_on_c, 0, 72, 110
2, 425180, Note_off_c, 0, 72, 100
2, 425184, Note_on_c, 0, 70, 110
2, 425276, Note_off_c, 0, 70, 100
2, 425280, Note_on_c, 0, 69, 110
2, 425372, Note_off_c, 0, 69, 100
2, 425376, Note_on_c, 0, 67, 110
2, 425468, Note_off_c, 0, 67, 100
2, 425472, Note_on_c, 0, 65, 110
2, 425564, Note_off_c, 0, 65, 100
2, 425568, Note_on_c, 0, 63, 110
2, 425660, Note_off_c, 0, 63, 100
2, 425664, Note_on_c, 0, 62, 110
2, 425756, Note_off_c, 0, 62, 100
2, 425760, Note_on_c, 0, 60, 110
2, 425852, Note_off_c, 0, 60, 100
2, 425856, Note_on_c, 0, 72, 110
2, 426044, Note_off_c, 0, 72, 100
2, 426048, Note_on_c, 0, 60, 110
2, 426140, Note_off_c, 0, 60, 100
2, 426144, Note_on_c, 0, 58, 110
2, 426236, Note_off_c, 0, 58, 100
2, 427008, Note_on_c, 0, 74, 110
2, 427008, Note_on_c, 0, 62, 110
2, 427100, Note_off_c, 0, 74, 100
2, 427104, Note_on_c, 0, 72, 110
2, 427196, Note_off_c, 0, 62, 100
2, 427196, Note_off_c, 0, 72, 100
2, 427200, Note_on_c, 0, 77, 110
2, 427292, Note_off_c, 0, 77, 100
2, 427296, Note_on_c, 0, 75, 110
2, 427388, Note_off_c, 0, 75, 100
2, 427392, Note_on_c, 0, 74, 110
2, 427484, Note_off_c, 0, 74, 100
2, 427488, Note_on_c, 0, 72, 110
2, 427580, Note_off_c, 0, 72, 100
2, 427584, Note_on_c, 0, 70, 110
2, 427676, Note_off_c, 0, 70, 100
2, 427680, Note_on_c, 0, 69, 110
2, 427772, Note_off_c, 0, 69, 100
2, 427776, Note_on_c, 0, 79, 110
2, 427868, Note_off_c, 0, 79, 100
2, 427872, Note_on_c, 0, 77, 110
2, 427964, Note_off_c, 0, 77, 100
2, 427968, Note_on_c, 0, 75, 110
2, 428060, Note_off_c, 0, 75, 100
2, 428064, Note_on_c, 0, 74, 110
2, 428156, Note_off_c, 0, 74, 100
2, 428160, Note_on_c, 0, 82, 110
2, 428160, Note_on_c, 0, 74, 110
2, 428252, Note_off_c, 0, 82, 100
2, 428256, Note_on_c, 0, 81, 110
2, 428348, Note_off_c, 0, 81, 100
2, 428352, Note_on_c, 0, 79, 110
2, 428444, Note_off_c, 0, 79, 100
2, 428448, Note_on_c, 0, 77, 110
2, 428540, Note_off_c, 0, 74, 100
2, 428540, Note_off_c, 0, 77, 100
2, 428544, Note_on_c, 0, 75, 110
2, 428544, Note_on_c, 0, 67, 110
2, 428732, Note_off_c, 0, 75, 100
2, 428732, Note_off_c, 0, 67, 100
2, 428736, Note_on_c, 0, 72, 110
2, 428924, Note_off_c, 0, 72, 100
2, 428928, Note_on_c, 0, 93, 120
2, 428976, Note_on_c, 0, 94, 120
2, 429008, Note_off_c, 0, 93, 100
2, 429024, Note_on_c, 0, 93, 120
2, 429056, Note_off_c, 0, 94, 100
2, 429072, Note_on_c, 0, 94, 120
2, 429104, Note_off_c, 0, 93, 100
2, 429120, Note_on_c, 0, 93, 120
2, 429120, Note_on_c, 0, 72, 108
2, 429152, Note_off_c, 0, 94, 100
2, 429168, Note_on_c, 0, 94, 120
2, 429200, Note_off_c, 0, 93, 100
2, 429216, Note_on_c, 0, 93, 120
2, 429248, Note_off_c, 0, 94, 100
2, 429264, Note_on_c, 0, 94, 120
2, 429296, Note_off_c, 0, 93, 100
2, 429308, Note_off_c, 0, 72, 100
2, 429312, Note_on_c, 0, 93, 120
2, 429344, Note_off_c, 0, 94, 100
2, 429360, Note_on_c, 0, 94, 120
2, 429392, Note_off_c, 0, 93, 100
2, 429408, Note_on_c, 0, 93, 120
2, 429440, Note_off_c, 0, 94, 100
2, 429456, Note_on_c, 0, 94, 120
2, 429488, Note_off_c, 0, 93, 100
2, 429504, Note_on_c, 0, 93, 120
2, 429504, Note_on_c, 0, 77, 108
2, 429536, Note_off_c, 0, 94, 100
2, 429552, Note_on_c, 0, 94, 120
2, 429584, Note_off_c, 0, 93, 100
2, 429600, Note_on_c, 0, 91, 120
2, 429632, Note_off_c, 0, 94, 100
2, 429648, Note_on_c, 0, 93, 120
2, 429680, Note_off_c, 0, 91, 100
2, 429692, Note_off_c, 0, 77, 100
2, 429696, Note_on_c, 0, 94, 120
2, 429728, Note_off_c, 0, 93, 100
2, 429888, Note_on_c, 0, 74, 110
2, 430076, Note_off_c, 0, 94, 100
2, 430076, Note_off_c, 0, 74, 100
2, 430272, Note_on_c, 0, 94, 110
2, 430364, Note_off_c, 0, 94, 100
2, 430368, Note_on_c, 0, 93, 110
2, 430460, Note_off_c, 0, 93, 100
2, 430464, Note_on_c, 0, 91, 110
2, 430556, Note_off_c, 0, 91, 100
2, 430560, Note_on_c, 0, 89, 110
2, 430652, Note_off_c, 0, 89, 100
2, 430656, Note_on_c, 0, 87, 110
2, 430748, Note_off_c, 0, 87, 100
2, 430752, Note_on_c, 0, 86, 110
2, 430844, Note_off_c, 0, 86, 100
2, 430848, Note_on_c, 0, 91, 110
2, 431036, Note_off_c, 0, 91, 100
2, 431040, Note_on_c, 0, 67, 110
2, 431228, Note_off_c, 0, 67, 100
2, 431232, Note_on_c, 0, 67, 110
2, 431280, Note_on_c, 0, 69, 110
2, 431312, Note_off_c, 0, 67, 100
2, 431328, Note_on_c, 0, 67, 110
2, 431360, Note_off_c, 0, 69, 100
2, 431376, Note_on_c, 0, 69, 110
2, 431408, Note_off_c, 0, 67, 100
2, 431424, Note_on_c, 0, 67, 110
2, 431424, Note_on_c, 0, 91, 110
2, 431456, Note_off_c, 0, 69, 100
2, 431472, Note_on_c, 0, 69, 110
2, 431504, Note_off_c, 0, 67, 100
2, 431516, Note_off_c, 0, 91, 100
2, 431520, Note_on_c, 0, 67, 110
2, 431520, Note_on_c, 0, 89, 110
2, 431552, Note_off_c, 0, 69, 100
2, 431568, Note_on_c, 0, 69, 110
2, 431600, Note_off_c, 0, 67, 100
2, 431612, Note_off_c, 0, 89, 100
2, 431616, Note_on_c, 0, 67, 110
2, 431616, Note_on_c, 0, 87, 110
2, 431648, Note_off_c, 0, 69, 100
2, 431664, Note_on_c, 0, 69, 110
2, 431696, Note_off_c, 0, 67, 100
2, 431708, Note_off_c, 0, 87, 100
2, 431712, Note_on_c, 0, 67, 110
2, 431712, Note_on_c, 0, 86, 110
2, 431744, Note_off_c, 0, 69, 100
2, 431760, Note_on_c, 0, 69, 110
2, 431784, Note_on_c, 0, 67, 110
2, 431792, Note_off_c, 0, 67, 100
2, 431804, Note_off_c, 0, 86, 100
2, 431808, Note_on_c, 0, 84, 110
2, 431832, Note_on_c, 0, 69, 110
2, 431840, Note_off_c, 0, 69, 100
2, 431864, Note_off_c, 0, 67, 100
2, 431880, Note_on_c, 0, 67, 110
2, 431900, Note_off_c, 0, 84, 100
2, 431904, Note_on_c, 0, 82, 110
2, 431912, Note_off_c, 0, 69, 100
2, 431928, Note_on_c, 0, 69, 110
2, 431960, Note_off_c, 0, 67, 100
2, 431996, Note_off_c, 0, 82, 100
2, 432000, Note_on_c, 0, 67, 110
2, 432000, Note_on_c, 0, 87, 110
2, 432008, Note_off_c, 0, 69, 100
2, 432188, Note_off_c, 0, 67, 100
2, 432192, Note_on_c, 0, 68, 110
2, 432380, Note_off_c, 0, 87, 100
2, 432380, Note_off_c, 0, 68, 100
2, 432384, Note_on_c, 0, 69, 110
2, 432572, Note_off_c, 0, 69, 100
2, 432576, Note_on_c, 0, 87, 110
2, 432668, Note_off_c, 0, 87, 100
2, 432672, Note_on_c, 0, 86, 110
2, 432764, Note_off_c, 0, 86, 100
2, 432768, Note_on_c, 0, 84, 110
2, 432860, Note_off_c, 0, 84, 100
2, 432864, Note_on_c, 0, 86, 110
2, 432956, Note_off_c, 0, 86, 100
2, 432960, Note_on_c, 0, 84, 110
2, 433052, Note_off_c, 0, 84, 100
2, 433056, Note_on_c, 0, 82, 110
2, 433148, Note_off_c, 0, 82, 100
2, 433152, Note_on_c, 0, 81, 110
2, 433244, Note_off_c, 0, 81, 100
2, 433248, Note_on_c, 0, 82, 110
2, 433340, Note_off_c, 0, 82, 100
2, 433344, Note_on_c, 0, 81, 110
2, 433436, Note_off_c, 0, 81, 100
2, 433440, Note_on_c, 0, 79, 110
2, 433532, Note_off_c, 0, 79, 100
2, 433536, Note_on_c, 0, 77, 110
2, 433628, Note_off_c, 0, 77, 100
2, 433632, Note_on_c, 0, 79, 110
2, 433724, Note_off_c, 0, 79, 100
2, 433728, Note_on_c, 0, 81, 110
2, 433820, Note_off_c, 0, 81, 100
2, 433824, Note_on_c, 0, 82, 110
2, 433916, Note_off_c, 0, 82, 100
2, 433920, Note_on_c, 0, 83, 110
2, 434012, Note_off_c, 0, 83, 100
2, 434016, Note_on_c, 0, 84, 110
2, 434108, Note_off_c, 0, 84, 100
2, 434112, Note_on_c, 0, 86, 110
2, 434204, Note_off_c, 0, 86, 100
2, 434208, Note_on_c, 0, 84, 110
2, 434300, Note_off_c, 0, 84, 100
2, 434304, Note_on_c, 0, 82, 110
2, 434396, Note_off_c, 0, 82, 100
2, 434400, Note_on_c, 0, 84, 110
2, 434492, Note_off_c, 0, 84, 100
2, 434496, Note_on_c, 0, 86, 110
2, 434588, Note_off_c, 0, 86, 100
2, 434592, Note_on_c, 0, 87, 110
2, 434684, Note_off_c, 0, 87, 100
2, 434688, Note_on_c, 0, 89, 110
2, 434780, Note_off_c, 0, 89, 100
2, 434784, Note_on_c, 0, 80, 110
2, 434876, Note_off_c, 0, 80, 100
2, 434880, Note_on_c, 0, 81, 110
2, 434972, Note_off_c, 0, 81, 100
2, 434976, Note_on_c, 0, 82, 110
2, 435068, Note_off_c, 0, 82, 100
2, 435072, Note_on_c, 0, 84, 110
2, 435260, Note_off_c, 0, 84, 100
2, 435264, Note_on_c, 0, 82, 110
2, 435452, Note_off_c, 0, 82, 100
2, 435456, Note_on_c, 0, 82, 110
2, 435456, Note_on_c, 0, 79, 110
2, 435644, Note_off_c, 0, 82, 100
2, 435644, Note_off_c, 0, 79, 100
2, 435648, Note_on_c, 0, 80, 110
2, 435648, Note_on_c, 0, 77, 110
2, 435836, Note_off_c, 0, 80, 100
2, 435836, Note_off_c, 0, 77, 100
2, 435840, Note_on_c, 0, 79, 110
2, 435840, Note_on_c, 0, 70, 110
2, 436028, Note_off_c, 0, 79, 100
2, 436028, Note_off_c, 0, 70, 100
2, 436032, Note_on_c, 0, 77, 110
2, 436032, Note_on_c, 0, 68, 110
2, 436220, Note_off_c, 0, 77, 100
2, 436220, Note_off_c, 0, 68, 100
2, 436224, Note_on_c, 0, 92, 125
2, 436224, Note_on_c, 0, 89, 125
2, 436412, Note_off_c, 0, 92, 100
2, 436412, Note_off_c, 0, 89, 100
2, 436416, Note_on_c, 0, 91, 125
2, 436416, Note_on_c, 0, 87, 125
2, 436604, Note_off_c, 0, 91, 100
2, 436604, Note_off_c, 0, 87, 100
2, 436608, Note_on_c, 0, 91, 125
2, 436608, Note_on_c, 0, 86, 125
2, 436796, Note_off_c, 0, 91, 100
2, 436796, Note_off_c, 0, 86, 100
2, 436800, Note_on_c, 0, 87, 125
2, 436800, Note_on_c, 0, 84, 125
2, 436988, Note_off_c, 0, 87, 100
2, 436988, Note_off_c, 0, 84, 100
2, 436992, Note_on_c, 0, 86, 125
2, 436992, Note_on_c, 0, 82, 125
2, 437180, Note_off_c, 0, 86, 100
2, 437180, Note_off_c, 0, 82, 100
2, 437184, Note_on_c, 0, 89, 125
2, 437184, Note_on_c, 0, 86, 125
2, 437372, Note_off_c, 0, 89, 100
2, 437372, Note_off_c, 0, 86, 100
2, 437376, Note_on_c, 0, 81, 125
2, 437376, Note_on_c, 0, 75, 125
2, 437376, Note_on_c, 0, 72, 125
2, 437564, Note_off_c, 0, 81, 100
2, 437564, Note_off_c, 0, 75, 100
2, 437564, Note_off_c, 0, 72, 100
2, 437568, Note_on_c, 0, 82, 125
2, 437568, Note_on_c, 0, 74, 125
2, 437568, Note_on_c, 0, 70, 125
2, 437756, Note_off_c, 0, 82, 100
2, 437756, Note_off_c, 0, 74, 100
2, 437756, Note_off_c, 0, 70, 100
2, 438144, Note_on_c, 0, 80, 80
2, 438332, Note_off_c, 0, 80, 100
2, 438528, Note_on_c, 0, 66, 80
2, 438576, Note_on_c, 0, 67, 80
2, 438608, Note_off_c, 0, 66, 100
2, 438624, Note_on_c, 0, 66, 81
2, 438656, Note_off_c, 0, 67, 100
2, 438672, Note_on_c, 0, 67, 82
2, 438704, Note_off_c, 0, 66, 100
2, 438720, Note_on_c, 0, 66, 82
2, 438752, Note_off_c, 0, 67, 100
2, 438768, Note_on_c, 0, 67, 83
2, 438800, Note_off_c, 0, 66, 100
2, 438816, Note_on_c, 0, 66, 84
2, 438848, Note_off_c, 0, 67, 100
2, 438864, Note_on_c, 0, 67, 85
2, 438896, Note_off_c, 0, 66, 100
2, 438912, Note_on_c, 0, 66, 85
2, 438944, Note_off_c, 0, 67, 100
2, 438960, Note_on_c, 0, 67, 86
2, 438992, Note_off_c, 0, 66, 100
2, 439008, Note_on_c, 0, 66, 87
2, 439040, Note_off_c, 0, 67, 100
2, 439056, Note_on_c, 0, 67, 88
2, 439088, Note_off_c, 0, 66, 100
2, 439104, Note_on_c, 0, 66, 88
2, 439136, Note_off_c, 0, 67, 100
2, 439152, Note_on_c, 0, 67, 89
2, 439184, Note_off_c, 0, 66, 100
2, 439200, Note_on_c, 0, 66, 90
2, 439232, Note_off_c, 0, 67, 100
2, 439248, Note_on_c, 0, 67, 91
2, 439280, Note_off_c, 0, 66, 100
2, 439296, Note_on_c, 0, 78, 91
2, 439328, Note_off_c, 0, 67, 100
2, 439484, Note_off_c, 0, 78, 100
2, 439680, Note_on_c, 0, 63, 97
2, 439728, Note_on_c, 0, 65, 98
2, 439760, Note_off_c, 0, 63, 100
2, 439776, Note_on_c, 0, 63, 99
2, 439808, Note_off_c, 0, 65, 100
2, 439824, Note_on_c, 0, 65, 100
2, 439856, Note_off_c, 0, 63, 100
2, 439872, Note_on_c, 0, 63, 100
2, 439904, Note_off_c, 0, 65, 100
2, 439920, Note_on_c, 0, 65, 101
2, 439952, Note_off_c, 0, 63, 100
2, 439968, Note_on_c, 0, 63, 102
2, 440000, Note_off_c, 0, 65, 100
2, 440016, Note_on_c, 0, 65, 103
2, 440048, Note_off_c, 0, 63, 100
2, 440064, Note_on_c, 0, 63, 103
2, 440096, Note_off_c, 0, 65, 100
2, 440112, Note_on_c, 0, 65, 104
2, 440144, Note_off_c, 0, 63, 100
2, 440160, Note_on_c, 0, 63, 105
2, 440192, Note_off_c, 0, 65, 100
2, 440208, Note_on_c, 0, 65, 106
2, 440240, Note_off_c, 0, 63, 100
2, 440256, Note_on_c, 0, 63, 106
2, 440288, Note_off_c, 0, 65, 100
2, 440304, Note_on_c, 0, 65, 107
2, 440336, Note_off_c, 0, 63, 100
2, 440352, Note_on_c, 0, 62, 108
2, 440384, Note_off_c, 0, 65, 100
2, 440400, Note_on_c, 0, 63, 120
2, 440432, Note_off_c, 0, 62, 100
2, 440444, Note_off_c, 0, 63, 100
2, 440448, Note_on_c, 0, 66, 120
2, 440540, Note_off_c, 0, 66, 100
2, 440544, Note_on_c, 0, 45, 120
2, 440636, Note_off_c, 0, 45, 100
2, 440640, Note_on_c, 0, 48, 120
2, 440732, Note_off_c, 0, 48, 100
2, 440736, Note_on_c, 0, 51, 120
2, 440828, Note_off_c, 0, 51, 100
2, 440832, Note_on_c, 0, 54, 120
2, 440924, Note_off_c, 0, 54, 100
2, 440928, Note_on_c, 0, 57, 120
2, 441020, Note_off_c, 0, 57, 100
2, 441024, Note_on_c, 0, 60, 120
2, 441116, Note_off_c, 0, 60, 100
2, 441120, Note_on_c, 0, 63, 120
2, 441212, Note_off_c, 0, 63, 100
2, 441216, Note_on_c, 0, 66, 120
2, 441308, Note_off_c, 0, 66, 100
2, 441312, Note_on_c, 0, 57, 120
2, 441404, Note_off_c, 0, 57, 100
2, 441408, Note_on_c, 0, 60, 120
2, 441500, Note_off_c, 0, 60, 100
2, 441504, Note_on_c, 0, 63, 120
2, 441596, Note_off_c, 0, 63, 100
2, 441600, Note_on_c, 0, 66, 120
2, 441692, Note_off_c, 0, 66, 100
2, 441696, Note_on_c, 0, 69, 120
2, 441788, Note_off_c, 0, 69, 100
2, 441792, Note_on_c, 0, 72, 120
2, 441884, Note_off_c, 0, 72, 100
2, 441888, Note_on_c, 0, 75, 120
2, 441980, Note_off_c, 0, 75, 100
2, 441984, Note_on_c, 0, 78, 120
2, 442076, Note_off_c, 0, 78, 100
2, 442080, Note_on_c, 0, 69, 120
2, 442172, Note_off_c, 0, 69, 100
2, 442176, Note_on_c, 0, 72, 120
2, 442268, Note_off_c, 0, 72, 100
2, 442272, Note_on_c, 0, 75, 120
2, 442364, Note_off_c, 0, 75, 100
2, 442368, Note_on_c, 0, 78, 120
2, 442460, Note_off_c, 0, 78, 100
2, 442464, Note_on_c, 0, 81, 120
2, 442556, Note_off_c, 0, 81, 100
2, 442560, Note_on_c, 0, 84, 120
2, 442652, Note_off_c, 0, 84, 100
2, 442656, Note_on_c, 0, 87, 120
2, 442748, Note_off_c, 0, 87, 100
2, 442752, Note_on_c, 0, 90, 120
2, 442844, Note_off_c, 0, 90, 100
2, 442848, Note_on_c, 0, 69, 120
2, 442940, Note_off_c, 0, 69, 100
2, 442944, Note_on_c, 0, 72, 120
2, 443036, Note_off_c, 0, 72, 100
2, 443040, Note_on_c, 0, 75, 120
2, 443132, Note_off_c, 0, 75, 100
2, 443136, Note_on_c, 0, 78, 120
2, 443228, Note_off_c, 0, 78, 100
2, 443232, Note_on_c, 0, 57, 120
2, 443324, Note_off_c, 0, 57, 100
2, 443328, Note_on_c, 0, 60, 120
2, 443420, Note_off_c, 0, 60, 100
2, 443424, Note_on_c, 0, 63, 120
2, 443516, Note_off_c, 0, 63, 100
2, 443520, Note_on_c, 0, 66, 120
2, 443612, Note_off_c, 0, 66, 100
2, 443616, Note_on_c, 0, 45, 120
2, 443708, Note_off_c, 0, 45, 100
2, 443712, Note_on_c, 0, 48, 120
2, 443804, Note_off_c, 0, 48, 100
2, 443808, Note_on_c, 0, 51, 120
2, 443900, Note_off_c, 0, 51, 100
2, 443904, Note_on_c, 0, 54, 120
2, 444284, Note_off_c, 0, 54, 100
2, 444288, Note_on_c, 0, 51, 120
2, 444288, Note_on_c, 0, 45, 120
2, 444288, Note_on_c, 0, 42, 120
2, 444860, Note_off_c, 0, 42, 100
2, 444860, Note_off_c, 0, 45, 100
2, 444860, Note_off_c, 0, 51, 100
2, 444864, Note_on_c, 0, 50, 99
2, 444864, Note_on_c, 0, 44, 99
2, 444864, Note_on_c, 0, 41, 99
2, 445052, Note_off_c, 0, 50, 100
2, 445052, Note_off_c, 0, 44, 100
2, 445052, Note_off_c, 0, 41, 100
2, 445056, Note_on_c, 0, 70, 92
2, 445148, Note_off_c, 0, 70, 100
2, 445152, Note_on_c, 0, 68, 88
2, 445244, Note_off_c, 0, 68, 100
2, 445248, Note_on_c, 0, 70, 84
2, 445340, Note_off_c, 0, 70, 100
2, 445344, Note_on_c, 0, 68, 81
2, 445436, Note_off_c, 0, 68, 100
2, 445440, Note_on_c, 0, 70, 80
2, 445532, Note_off_c, 0, 70, 100
2, 445536, Note_on_c, 0, 68, 80
2, 445628, Note_off_c, 0, 68, 100
2, 445632, Note_on_c, 0, 67, 80
2, 445724, Note_off_c, 0, 67, 100
2, 445728, Note_on_c, 0, 68, 80
2, 445820, Note_off_c, 0, 68, 100
2, 445824, Note_on_c, 0, 71, 80
2, 446016, Note_on_c, 0, 56, 80
2, 446204, Note_off_c, 0, 71, 100
2, 446204, Note_off_c, 0, 56, 100
2, 446208, Note_on_c, 0, 68, 80
2, 446396, Note_off_c, 0, 68, 100
2, 446400, Note_on_c, 0, 79, 80
2, 446400, Note_on_c, 0, 71, 80
2, 446492, Note_off_c, 0, 71, 100
2, 446496, Note_on_c, 0, 70, 80
2, 446588, Note_off_c, 0, 79, 100
2, 446588, Note_off_c, 0, 70, 100
2, 446592, Note_on_c, 0, 80, 80
2, 446592, Note_on_c, 0, 68, 80
2, 446684, Note_off_c, 0, 68, 100
2, 446688, Note_on_c, 0, 67, 80
2, 446780, Note_off_c, 0, 80, 100
2, 446780, Note_off_c, 0, 67, 100
2, 446784, Note_on_c, 0, 65, 80
2, 446876, Note_off_c, 0, 65, 100
2, 446880, Note_on_c, 0, 63, 80
2, 446972, Note_off_c, 0, 63, 100
2, 446976, Note_on_c, 0, 68, 80
2, 447168, Note_on_c, 0, 53, 80
2, 447356, Note_off_c, 0, 68, 100
2, 447356, Note_off_c, 0, 53, 100
2, 447360, Note_on_c, 0, 65, 80
2, 447548, Note_off_c, 0, 65, 100
2, 447552, Note_on_c, 0, 76, 80
2, 447552, Note_on_c, 0, 68, 80
2, 447644, Note_off_c, 0, 68, 100
2, 447648, Note_on_c, 0, 66, 80
2, 447740, Note_off_c, 0, 76, 100
2, 447740, Note_off_c, 0, 66, 100
2, 447744, Note_on_c, 0, 77, 80
2, 447744, Note_on_c, 0, 65, 80
2, 447836, Note_off_c, 0, 65, 100
2, 447840, Note_on_c, 0, 63, 80
2, 447932, Note_off_c, 0, 77, 100
2, 447932, Note_off_c, 0, 63, 100
2, 447936, Note_on_c, 0, 62, 80
2, 448028, Note_off_c, 0, 62, 100
2, 448032, Note_on_c, 0, 59, 80
2, 448124, Note_off_c, 0, 59, 100
2, 448128, Note_on_c, 0, 66, 80
2, 448320, Note_on_c, 0, 51, 80
2, 448508, Note_off_c, 0, 66, 100
2, 448508, Note_off_c, 0, 51, 100
2, 448512, Note_on_c, 0, 63, 80
2, 448700, Note_off_c, 0, 63, 100
2, 448704, Note_on_c, 0, 74, 80
2, 448704, Note_on_c, 0, 66, 80
2, 448796, Note_off_c, 0, 66, 100
2, 448800, Note_on_c, 0, 65, 80
2, 448892, Note_off_c, 0, 74, 100
2, 448892, Note_off_c, 0, 65, 100
2, 448896, Note_on_c, 0, 75, 80
2, 448896, Note_on_c, 0, 63, 80
2, 448988, Note_off_c, 0, 63, 100
2, 448992, Note_on_c, 0, 61, 80
2, 449084, Note_off_c, 0, 75, 100
2, 449084, Note_off_c, 0, 61, 100
2, 449088, Note_on_c, 0, 63, 80
2, 449088, Note_on_c, 0, 59, 80
2, 449180, Note_off_c, 0, 59, 100
2, 449184, Note_on_c, 0, 58, 80
2, 449276, Note_off_c, 0, 58, 100
2, 449280, Note_on_c, 0, 57, 80
2, 449372, Note_off_c, 0, 63, 100
2, 449376, Note_on_c, 0, 65, 80
2, 449468, Note_off_c, 0, 57, 100
2, 449468, Note_off_c, 0, 65, 100
2, 449472, Note_on_c, 0, 63, 80
2, 449564, Note_off_c, 0, 63, 100
2, 449568, Note_on_c, 0, 62, 80
2, 449660, Note_off_c, 0, 62, 100
2, 449664, Note_on_c, 0, 63, 80
2, 449664, Note_on_c, 0, 54, 80
2, 449756, Note_off_c, 0, 63, 100
2, 449760, Note_on_c, 0, 61, 80
2, 449852, Note_off_c, 0, 61, 100
2, 449856, Note_on_c, 0, 60, 80
2, 449948, Note_off_c, 0, 60, 100
2, 449952, Note_on_c, 0, 59, 80
2, 450044, Note_off_c, 0, 59, 100
2, 450048, Note_on_c, 0, 60, 80
2, 450140, Note_off_c, 0, 60, 100
2, 450144, Note_on_c, 0, 59, 80
2, 450236, Note_off_c, 0, 54, 100
2, 450236, Note_off_c, 0, 59, 100
2, 450240, Note_on_c, 0, 60, 80
2, 450240, Note_on_c, 0, 54, 80
2, 450332, Note_off_c, 0, 60, 100
2, 450336, Note_on_c, 0, 61, 80
2, 450428, Note_off_c, 0, 54, 100
2, 450428, Note_off_c, 0, 61, 100
2, 450432, Note_on_c, 0, 63, 80
2, 450432, Note_on_c, 0, 54, 80
2, 450620, Note_off_c, 0, 63, 100
2, 450620, Note_off_c, 0, 54, 100
2, 450624, Note_on_c, 0, 53, 80
2, 450812, Note_off_c, 0, 53, 100
2, 450816, Note_on_c, 0, 60, 80
2, 450816, Note_on_c, 0, 53, 80
2, 451004, Note_off_c, 0, 53, 100
2, 451008, Note_on_c, 0, 51, 80
2, 451196, Note_off_c, 0, 51, 100
2, 451200, Note_on_c, 0, 50, 80
2, 451388, Note_off_c, 0, 60, 100
2, 451388, Note_off_c, 0, 50, 100
2, 451392, Note_on_c, 0, 60, 80
2, 451392, Note_on_c, 0, 51, 80
2, 451580, Note_off_c, 0, 60, 100
2, 451580, Note_off_c, 0, 51, 100
2, 451584, Note_on_c, 0, 60, 80
2, 451584, Note_on_c, 0, 51, 80
2, 451772, Note_off_c, 0, 60, 100
2, 451772, Note_off_c, 0, 51, 100
2, 451776, Note_on_c, 0, 58, 80
2, 451776, Note_on_c, 0, 50, 80
2, 451964, Note_off_c, 0, 58, 100
2, 451964, Note_off_c, 0, 50, 100
2, 451968, Note_on_c, 0, 57, 80
2, 451968, Note_on_c, 0, 51, 80
2, 452156, Note_off_c, 0, 57, 100
2, 452156, Note_off_c, 0, 51, 100
2, 452160, Note_on_c, 0, 58, 80
2, 452160, Note_on_c, 0, 50, 80
2, 452348, Note_off_c, 0, 58, 100
2, 452348, Note_off_c, 0, 50, 100
2, 452352, Note_on_c, 0, 54, 80
2, 452352, Note_on_c, 0, 51, 80
2, 452352, Note_on_c, 0, 45, 80
2, 452540, Note_off_c, 0, 54, 100
2, 452540, Note_off_c, 0, 51, 100
2, 452540, Note_off_c, 0, 45, 100
2, 452544, Note_on_c, 0, 53, 80
2, 452544, Note_on_c, 0, 50, 80
2, 452544, Note_on_c, 0, 46, 80
2, 452732, Note_off_c, 0, 53, 100
2, 452732, Note_off_c, 0, 50, 100
2, 452732, Note_off_c, 0, 46, 100
2, 452736, Note_on_c, 0, 63, 80
2, 452736, Note_on_c, 0, 57, 80
2, 452736, Note_on_c, 0, 54, 80
2, 452924, Note_off_c, 0, 63, 100
2, 452924, Note_off_c, 0, 57, 100
2, 452924, Note_off_c, 0, 54, 100
2, 452928, Note_on_c, 0, 62, 80
2, 452928, Note_on_c, 0, 58, 80
2, 452928, Note_on_c, 0, 53, 80
2, 453116, Note_off_c, 0, 62, 100
2, 453116, Note_off_c, 0, 58, 100
2, 453116, Note_off_c, 0, 53, 100
2, 453120, Note_on_c, 0, 66, 80
2, 453120, Note_on_c, 0, 69, 80
2, 453120, Note_on_c, 0, 63, 80
2, 453308, Note_off_c, 0, 66, 100
2, 453308, Note_off_c, 0, 69, 100
2, 453308, Note_off_c, 0, 63, 100
2, 453312, Note_on_c, 0, 70, 80
2, 453312, Note_on_c, 0, 65, 80
2, 453312, Note_on_c, 0, 62, 80
2, 453500, Note_off_c, 0, 70, 100
2, 453500, Note_off_c, 0, 65, 100
2, 453500, Note_off_c, 0, 62, 100
2, 453504, Note_on_c, 0, 78, 80
2, 453504, Note_on_c, 0, 75, 80
2, 453504, Note_on_c, 0, 69, 80
2, 453692, Note_off_c, 0, 78, 100
2, 453692, Note_off_c, 0, 75, 100
2, 453692, Note_off_c, 0, 69, 100
2, 453696, Note_on_c, 0, 77, 80
2, 453696, Note_on_c, 0, 74, 80
2, 453696, Note_on_c, 0, 70, 80
2, 453884, Note_off_c, 0, 77, 100
2, 453884, Note_off_c, 0, 74, 100
2, 453884, Note_off_c, 0, 70, 100
2, 453888, Note_on_c, 0, 81, 80
2, 453888, Note_on_c, 0, 75, 80
2, 453888, Note_on_c, 0, 72, 80
2, 453936, Note_on_c, 0, 82, 80
2, 453968, Note_off_c, 0, 81, 100
2, 453984, Note_on_c, 0, 81, 80
2, 454016, Note_off_c, 0, 82, 100
2, 454032, Note_on_c, 0, 82, 80
2, 454064, Note_off_c, 0, 81, 100
2, 454080, Note_on_c, 0, 81, 80
2, 454112, Note_off_c, 0, 82, 100
2, 454128, Note_on_c, 0, 82, 80
2, 454160, Note_off_c, 0, 81, 100
2, 454176, Note_on_c, 0, 81, 80
2, 454208, Note_off_c, 0, 82, 100
2, 454224, Note_on_c, 0, 82, 80
2, 454256, Note_off_c, 0, 81, 100
2, 454272, Note_on_c, 0, 81, 80
2, 454304, Note_off_c, 0, 82, 100
2, 454320, Note_on_c, 0, 82, 80
2, 454352, Note_off_c, 0, 81, 100
2, 454368, Note_on_c, 0, 81, 80
2, 454400, Note_off_c, 0, 82, 100
2, 454416, Note_on_c, 0, 82, 80
2, 454448, Note_off_c, 0, 81, 100
2, 454464, Note_on_c, 0, 81, 80
2, 454496, Note_off_c, 0, 82, 100
2, 454512, Note_on_c, 0, 82, 80
2, 454544, Note_off_c, 0, 81, 100
2, 454560, Note_on_c, 0, 79, 80
2, 454592, Note_off_c, 0, 82, 100
2, 454608, Note_on_c, 0, 81, 80
2, 454640, Note_off_c, 0, 79, 100
2, 454652, Note_off_c, 0, 75, 100
2, 454652, Note_off_c, 0, 72, 100
2, 454656, Note_on_c, 0, 82, 80
2, 454656, Note_on_c, 0, 73, 80
2, 454656, Note_on_c, 0, 70, 80
2, 454688, Note_off_c, 0, 81, 100
2, 455036, Note_off_c, 0, 82, 100
2, 455036, Note_off_c, 0, 73, 100
2, 455036, Note_off_c, 0, 70, 100
2, 455040, Note_on_c, 0, 64, 80
2, 455088, Note_on_c, 0, 65, 80
2, 455120, Note_off_c, 0, 64, 100
2, 455136, Note_on_c, 0, 64, 80
2, 455168, Note_off_c, 0, 65, 100
2, 455184, Note_on_c, 0, 65, 80
2, 455216, Note_off_c, 0, 64, 100
2, 455232, Note_on_c, 0, 64, 80
2, 455264, Note_off_c, 0, 65, 100
2, 455280, Note_on_c, 0, 65, 80
2, 455312, Note_off_c, 0, 64, 100
2, 455328, Note_on_c, 0, 64, 80
2, 455360, Note_off_c, 0, 65, 100
2, 455376, Note_on_c, 0, 65, 80
2, 455408, Note_off_c, 0, 64, 100
2, 455424, Note_on_c, 0, 64, 80
2, 455424, Note_on_c, 0, 73, 80
2, 455424, Note_on_c, 0, 70, 80
2, 455456, Note_off_c, 0, 65, 100
2, 455472, Note_on_c, 0, 65, 80
2, 455504, Note_off_c, 0, 64, 100
2, 455520, Note_on_c, 0, 64, 80
2, 455552, Note_off_c, 0, 65, 100
2, 455568, Note_on_c, 0, 65, 80
2, 455600, Note_off_c, 0, 64, 100
2, 455616, Note_on_c, 0, 64, 80
2, 455648, Note_off_c, 0, 65, 100
2, 455664, Note_on_c, 0, 65, 80
2, 455696, Note_off_c, 0, 64, 100
2, 455712, Note_on_c, 0, 62, 80
2, 455744, Note_off_c, 0, 65, 100
2, 455760, Note_on_c, 0, 64, 80
2, 455792, Note_off_c, 0, 62, 100
2, 455804, Note_off_c, 0, 73, 100
2, 455804, Note_off_c, 0, 70, 100
2, 455808, Note_on_c, 0, 65, 80
2, 455808, Note_on_c, 0, 72, 80
2, 455840, Note_off_c, 0, 64, 100
2, 456188, Note_off_c, 0, 65, 100
2, 456188, Note_off_c, 0, 72, 100
2, 456192, Note_on_c, 0, 69, 80
2, 456240, Note_on_c, 0, 70, 80
2, 456272, Note_off_c, 0, 69, 100
2, 456288, Note_on_c, 0, 69, 81
2, 456320, Note_off_c, 0, 70, 100
2, 456336, Note_on_c, 0, 70, 81
2, 456368, Note_off_c, 0, 69, 100
2, 456384, Note_on_c, 0, 69, 82
2, 456416, Note_off_c, 0, 70, 100
2, 456432, Note_on_c, 0, 70, 83
2, 456464, Note_off_c, 0, 69, 100
2, 456480, Note_on_c, 0, 69, 83
2, 456512, Note_off_c, 0, 70, 100
2, 456528, Note_on_c, 0, 70, 84
2, 456560, Note_off_c, 0, 69, 100
2, 456576, Note_on_c, 0, 69, 85
2, 456576, Note_on_c, 0, 75, 85
2, 456608, Note_off_c, 0, 70, 100
2, 456624, Note_on_c, 0, 70, 85
2, 456656, Note_off_c, 0, 69, 100
2, 456672, Note_on_c, 0, 69, 86
2, 456704, Note_off_c, 0, 70, 100
2, 456720, Note_on_c, 0, 70, 87
2, 456752, Note_off_c, 0, 69, 100
2, 456768, Note_on_c, 0, 69, 87
2, 456800, Note_off_c, 0, 70, 100
2, 456816, Note_on_c, 0, 70, 88
2, 456848, Note_off_c, 0, 69, 100
2, 456864, Note_on_c, 0, 67, 89
2, 456896, Note_off_c, 0, 70, 100
2, 456912, Note_on_c, 0, 69, 89
2, 456944, Note_off_c, 0, 67, 100
2, 456956, Note_off_c, 0, 75, 100
2, 456960, Note_on_c, 0, 75, 70
2, 456960, Note_on_c, 0, 72, 70
2, 456960, Note_on_c, 0, 65, 70
2, 456992, Note_off_c, 0, 69, 100
2, 457340, Note_off_c, 0, 75, 100
2, 457340, Note_off_c, 0, 72, 100
2, 457340, Note_off_c, 0, 65, 100
2, 457344, Note_on_c, 0, 75, 70
2, 457344, Note_on_c, 0, 72, 70
2, 457344, Note_on_c, 0, 67, 70
2, 457916, Note_off_c, 0, 75, 100
2, 457916, Note_off_c, 0, 72, 100
2, 457916, Note_off_c, 0, 67, 100
2, 457920, Note_on_c, 0, 79, 70
2, 458012, Note_off_c, 0, 79, 100
2, 458016, Note_on_c, 0, 77, 70
2, 458108, Note_off_c, 0, 77, 100
2, 458112, Note_on_c, 0, 75, 70
2, 458204, Note_off_c, 0, 75, 100
2, 458208, Note_on_c, 0, 74, 70
2, 458300, Note_off_c, 0, 74, 100
2, 458304, Note_on_c, 0, 72, 70
2, 458396, Note_off_c, 0, 72, 100
2, 458400, Note_on_c, 0, 70, 70
2, 458492, Note_off_c, 0, 70, 100
2, 458496, Note_on_c, 0, 75, 70
2, 458876, Note_off_c, 0, 75, 100
2, 459072, Note_on_c, 0, 67, 70
2, 459164, Note_off_c, 0, 67, 100
2, 459168, Note_on_c, 0, 65, 70
2, 459260, Note_off_c, 0, 65, 100
2, 459264, Note_on_c, 0, 63, 70
2, 459356, Note_off_c, 0, 63, 100
2, 459360, Note_on_c, 0, 62, 70
2, 459452, Note_off_c, 0, 62, 100
2, 459456, Note_on_c, 0, 60, 70
2, 459548, Note_off_c, 0, 60, 100
2, 459552, Note_on_c, 0, 59, 70
2, 459644, Note_off_c, 0, 59, 100
2, 459648, Note_on_c, 0, 63, 70
2, 460028, Note_off_c, 0, 63, 100
2, 460224, Note_on_c, 0, 79, 70
2, 460316, Note_off_c, 0, 79, 100
2, 460320, Note_on_c, 0, 77, 70
2, 460412, Note_off_c, 0, 77, 100
2, 460416, Note_on_c, 0, 75, 70
2, 460508, Note_off_c, 0, 75, 100
2, 460512, Note_on_c, 0, 74, 70
2, 460604, Note_off_c, 0, 74, 100
2, 460608, Note_on_c, 0, 72, 70
2, 460700, Note_off_c, 0, 72, 100
2, 460704, Note_on_c, 0, 71, 70
2, 460796, Note_off_c, 0, 71, 100
2, 460800, Note_on_c, 0, 79, 70
2, 460892, Note_off_c, 0, 79, 100
2, 460896, Note_on_c, 0, 77, 72
2, 460988, Note_off_c, 0, 77, 100
2, 460992, Note_on_c, 0, 75, 74
2, 461084, Note_off_c, 0, 75, 100
2, 461088, Note_on_c, 0, 74, 76
2, 461180, Note_off_c, 0, 74, 100
2, 461184, Note_on_c, 0, 72, 78
2, 461276, Note_off_c, 0, 72, 100
2, 461280, Note_on_c, 0, 70, 81
2, 461372, Note_off_c, 0, 70, 100
2, 461376, Note_on_c, 0, 69, 83
2, 461468, Note_off_c, 0, 69, 100
2, 461472, Note_on_c, 0, 67, 85
2, 461564, Note_off_c, 0, 67, 100
2, 461568, Note_on_c, 0, 65, 87
2, 461660, Note_off_c, 0, 65, 100
2, 461664, Note_on_c, 0, 63, 89
2, 461756, Note_off_c, 0, 63, 100
2, 461760, Note_on_c, 0, 62, 92
2, 461852, Note_off_c, 0, 62, 100
2, 461856, Note_on_c, 0, 60, 94
2, 461948, Note_off_c, 0, 60, 100
2, 461952, Note_on_c, 0, 58, 96
2, 462044, Note_off_c, 0, 58, 100
2, 462048, Note_on_c, 0, 57, 98
2, 462140, Note_off_c, 0, 57, 100
2, 462144, Note_on_c, 0, 55, 100
2, 462236, Note_off_c, 0, 55, 100
2, 462240, Note_on_c, 0, 53, 103
2, 462332, Note_off_c, 0, 53, 100
2, 462336, Note_on_c, 0, 51, 105
2, 462428, Note_off_c, 0, 51, 100
2, 462432, Note_on_c, 0, 50, 107
2, 462524, Note_off_c, 0, 50, 100
2, 462528, Note_on_c, 0, 48, 109
2, 462620, Note_off_c, 0, 48, 100
2, 462624, Note_on_c, 0, 46, 112
2, 462716, Note_off_c, 0, 46, 100
2, 462720, Note_on_c, 0, 45, 114
2, 462812, Note_off_c, 0, 45, 100
2, 462816, Note_on_c, 0, 43, 116
2, 462908, Note_off_c, 0, 43, 100
2, 462912, Note_on_c, 0, 41, 118
2, 463004, Note_off_c, 0, 41, 100
2, 463008, Note_on_c, 0, 40, 120
2, 463100, Note_off_c, 0, 40, 100
2, 463104, Note_on_c, 0, 53, 110
2, 463104, Note_on_c, 0, 41, 110
2, 463292, Note_off_c, 0, 53, 100
2, 463292, Note_off_c, 0, 41, 100
2, 463488, Note_on_c, 0, 81, 110
2, 463488, Note_on_c, 0, 69, 110
2, 463536, Note_on_c, 0, 82, 110
2, 463568, Note_off_c, 0, 81, 100
2, 463584, Note_on_c, 0, 81, 110
2, 463616, Note_off_c, 0, 82, 100
2, 463632, Note_on_c, 0, 82, 110
2, 463664, Note_off_c, 0, 81, 100
2, 463680, Note_on_c, 0, 81, 110
2, 463712, Note_off_c, 0, 82, 100
2, 463728, Note_on_c, 0, 82, 110
2, 463760, Note_off_c, 0, 81, 100
2, 463776, Note_on_c, 0, 81, 110
2, 463808, Note_off_c, 0, 82, 100
2, 463824, Note_on_c, 0, 82, 110
2, 463856, Note_off_c, 0, 81, 100
2, 463872, Note_on_c, 0, 81, 110
2, 463904, Note_off_c, 0, 82, 100
2, 463920, Note_on_c, 0, 82, 110
2, 463952, Note_off_c, 0, 81, 100
2, 463968, Note_on_c, 0, 81, 110
2, 464000, Note_off_c, 0, 82, 100
2, 464016, Note_on_c, 0, 82, 110
2, 464048, Note_off_c, 0, 81, 100
2, 464064, Note_on_c, 0, 81, 110
2, 464096, Note_off_c, 0, 82, 100
2, 464112, Note_on_c, 0, 82, 110
2, 464144, Note_off_c, 0, 81, 100
2, 464160, Note_on_c, 0, 79, 110
2, 464192, Note_off_c, 0, 82, 100
2, 464208, Note_on_c, 0, 81, 110
2, 464240, Note_off_c, 0, 79, 100
2, 464252, Note_off_c, 0, 69, 100
2, 464256, Note_on_c, 0, 82, 110
2, 464256, Note_on_c, 0, 70, 110
2, 464288, Note_off_c, 0, 81, 100
2, 464444, Note_off_c, 0, 82, 100
2, 464444, Note_off_c, 0, 70, 100
2, 464640, Note_on_c, 0, 67, 110
2, 464640, Note_on_c, 0, 55, 110
2, 464828, Note_off_c, 0, 67, 100
2, 464828, Note_off_c, 0, 55, 100
2, 465024, Note_on_c, 0, 83, 110
2, 465024, Note_on_c, 0, 71, 110
2, 465072, Note_on_c, 0, 84, 110
2, 465104, Note_off_c, 0, 83, 100
2, 465120, Note_on_c, 0, 83, 110
2, 465152, Note_off_c, 0, 84, 100
2, 465168, Note_on_c, 0, 84, 110
2, 465200, Note_off_c, 0, 83, 100
2, 465216, Note_on_c, 0, 83, 110
2, 465248, Note_off_c, 0, 84, 100
2, 465264, Note_on_c, 0, 84, 110
2, 465296, Note_off_c, 0, 83, 100
2, 465312, Note_on_c, 0, 83, 110
2, 465344, Note_off_c, 0, 84, 100
2, 465360, Note_on_c, 0, 84, 110
2, 465392, Note_off_c, 0, 83, 100
2, 465408, Note_on_c, 0, 83, 110
2, 465440, Note_off_c, 0, 84, 100
2, 465456, Note_on_c, 0, 84, 110
2, 465488, Note_off_c, 0, 83, 100
2, 465504, Note_on_c, 0, 83, 110
2, 465536, Note_off_c, 0, 84, 100
2, 465552, Note_on_c, 0, 84, 110
2, 465584, Note_off_c, 0, 83, 100
2, 465600, Note_on_c, 0, 83, 110
2, 465632, Note_off_c, 0, 84, 100
2, 465648, Note_on_c, 0, 84, 110
2, 465680, Note_off_c, 0, 83, 100
2, 465696, Note_on_c, 0, 81, 110
2, 465728, Note_off_c, 0, 84, 100
2, 465744, Note_on_c, 0, 83, 110
2, 465776, Note_off_c, 0, 81, 100
2, 465788, Note_off_c, 0, 71, 100
2, 465792, Note_on_c, 0, 84, 110
2, 465792, Note_on_c, 0, 72, 110
2, 465824, Note_off_c, 0, 83, 100
2, 465980, Note_off_c, 0, 84, 100
2, 465980, Note_off_c, 0, 72, 100
2, 466176, Note_on_c, 0, 69, 110
2, 466176, Note_on_c, 0, 57, 110
2, 466364, Note_off_c, 0, 69, 100
2, 466364, Note_off_c, 0, 57, 100
2, 466560, Note_on_c, 0, 85, 110
2, 466560, Note_on_c, 0, 73, 110
2, 466608, Note_on_c, 0, 86, 110
2, 466640, Note_off_c, 0, 85, 100
2, 466656, Note_on_c, 0, 85, 110
2, 466688, Note_off_c, 0, 86, 100
2, 466704, Note_on_c, 0, 86, 110
2, 466736, Note_off_c, 0, 85, 100
2, 466752, Note_on_c, 0, 85, 110
2, 466784, Note_off_c, 0, 86, 100
2, 466800, Note_on_c, 0, 86, 110
2, 466832, Note_off_c, 0, 85, 100
2, 466848, Note_on_c, 0, 85, 110
2, 466880, Note_off_c, 0, 86, 100
2, 466896, Note_on_c, 0, 86, 110
2, 466928, Note_off_c, 0, 85, 100
2, 466944, Note_on_c, 0, 85, 110
2, 466976, Note_off_c, 0, 86, 100
2, 466992, Note_on_c, 0, 86, 110
2, 467024, Note_off_c, 0, 85, 100
2, 467040, Note_on_c, 0, 85, 110
2, 467072, Note_off_c, 0, 86, 100
2, 467088, Note_on_c, 0, 86, 110
2, 467120, Note_off_c, 0, 85, 100
2, 467136, Note_on_c, 0, 85, 110
2, 467168, Note_off_c, 0, 86, 100
2, 467184, Note_on_c, 0, 86, 110
2, 467216, Note_off_c, 0, 85, 100
2, 467232, Note_on_c, 0, 83, 110
2, 467264, Note_off_c, 0, 86, 100
2, 467280, Note_on_c, 0, 85, 110
2, 467312, Note_off_c, 0, 83, 100
2, 467324, Note_off_c, 0, 73, 100
2, 467328, Note_on_c, 0, 86, 110
2, 467328, Note_on_c, 0, 74, 110
2, 467360, Note_off_c, 0, 85, 100
2, 467516, Note_off_c, 0, 86, 100
2, 467516, Note_off_c, 0, 74, 100
2, 467712, Note_on_c, 0, 70, 110
2, 467712, Note_on_c, 0, 58, 110
2, 467900, Note_off_c, 0, 70, 100
2, 467900, Note_off_c, 0, 58, 100
2, 468096, Note_on_c, 0, 86, 110
2, 468096, Note_on_c, 0, 74, 110
2, 468144, Note_on_c, 0, 87, 110
2, 468176, Note_off_c, 0, 86, 100
2, 468192, Note_on_c, 0, 86, 110
2, 468224, Note_off_c, 0, 87, 100
2, 468240, Note_on_c, 0, 87, 110
2, 468272, Note_off_c, 0, 86, 100
2, 468288, Note_on_c, 0, 86, 110
2, 468320, Note_off_c, 0, 87, 100
2, 468336, Note_on_c, 0, 87, 110
2, 468368, Note_off_c, 0, 86, 100
2, 468384, Note_on_c, 0, 86, 110
2, 468416, Note_off_c, 0, 87, 100
2, 468432, Note_on_c, 0, 87, 110
2, 468464, Note_off_c, 0, 86, 100
2, 468480, Note_on_c, 0, 86, 110
2, 468512, Note_off_c, 0, 87, 100
2, 468528, Note_on_c, 0, 87, 110
2, 468560, Note_off_c, 0, 86, 100
2, 468576, Note_on_c, 0, 86, 110
2, 468608, Note_off_c, 0, 87, 100
2, 468624, Note_on_c, 0, 87, 110
2, 468656, Note_off_c, 0, 86, 100
2, 468672, Note_on_c, 0, 86, 110
2, 468704, Note_off_c, 0, 87, 100
2, 468720, Note_on_c, 0, 87, 110
2, 468752, Note_off_c, 0, 86, 100
2, 468768, Note_on_c, 0, 84, 110
2, 468800, Note_off_c, 0, 87, 100
2, 468816, Note_on_c, 0, 86, 110
2, 468848, Note_off_c, 0, 84, 100
2, 468860, Note_off_c, 0, 74, 100
2, 468864, Note_on_c, 0, 87, 110
2, 468864, Note_on_c, 0, 75, 110
2, 468896, Note_off_c, 0, 86, 100
2, 469052, Note_off_c, 0, 87, 100
2, 469052, Note_off_c, 0, 75, 100
2, 469248, Note_on_c, 0, 72, 110
2, 469248, Note_on_c, 0, 60, 110
2, 469436, Note_off_c, 0, 72, 100
2, 469436, Note_off_c, 0, 60, 100
2, 469632, Note_on_c, 0, 88, 110
2, 469632, Note_on_c, 0, 76, 110
2, 469680, Note_on_c, 0, 89, 110
2, 469712, Note_off_c, 0, 88, 100
2, 469728, Note_on_c, 0, 88, 110
2, 469760, Note_off_c, 0, 89, 100
2, 469776, Note_on_c, 0, 89, 110
2, 469808, Note_off_c, 0, 88, 100
2, 469824, Note_on_c, 0, 88, 110
2, 469856, Note_off_c, 0, 89, 100
2, 469872, Note_on_c, 0, 89, 110
2, 469904, Note_off_c, 0, 88, 100
2, 469920, Note_on_c, 0, 88, 110
2, 469952, Note_off_c, 0, 89, 100
2, 469968, Note_on_c, 0, 89, 110
2, 470000, Note_off_c, 0, 88, 100
2, 470016, Note_on_c, 0, 88, 110
2, 470048, Note_off_c, 0, 89, 100
2, 470064, Note_on_c, 0, 89, 110
2, 470096, Note_off_c, 0, 88, 100
2, 470112, Note_on_c, 0, 88, 110
2, 470144, Note_off_c, 0, 89, 100
2, 470160, Note_on_c, 0, 89, 110
2, 470192, Note_off_c, 0, 88, 100
2, 470208, Note_on_c, 0, 88, 110
2, 470240, Note_off_c, 0, 89, 100
2, 470256, Note_on_c, 0, 89, 110
2, 470288, Note_off_c, 0, 88, 100
2, 470304, Note_on_c, 0, 86, 110
2, 470336, Note_off_c, 0, 89, 100
2, 470352, Note_on_c, 0, 88, 110
2, 470384, Note_off_c, 0, 86, 100
2, 470396, Note_off_c, 0, 76, 100
2, 470400, Note_on_c, 0, 89, 110
2, 470400, Note_on_c, 0, 77, 110
2, 470432, Note_off_c, 0, 88, 100
2, 470588, Note_off_c, 0, 89, 100
2, 470588, Note_off_c, 0, 77, 100
2, 470784, Note_on_c, 0, 74, 110
2, 470784, Note_on_c, 0, 62, 110
2, 470972, Note_off_c, 0, 74, 100
2, 470972, Note_off_c, 0, 62, 100
2, 471168, Note_on_c, 0, 90, 110
2, 471168, Note_on_c, 0, 78, 110
2, 471216, Note_on_c, 0, 91, 110
2, 471248, Note_off_c, 0, 90, 100
2, 471264, Note_on_c, 0, 90, 110
2, 471296, Note_off_c, 0, 91, 100
2, 471312, Note_on_c, 0, 91, 110
2, 471344, Note_off_c, 0, 90, 100
2, 471360, Note_on_c, 0, 90, 110
2, 471392, Note_off_c, 0, 91, 100
2, 471408, Note_on_c, 0, 91, 110
2, 471440, Note_off_c, 0, 90, 100
2, 471456, Note_on_c, 0, 90, 110
2, 471488, Note_off_c, 0, 91, 100
2, 471504, Note_on_c, 0, 91, 110
2, 471536, Note_off_c, 0, 90, 100
2, 471552, Note_on_c, 0, 90, 110
2, 471584, Note_off_c, 0, 91, 100
2, 471600, Note_on_c, 0, 91, 110
2, 471632, Note_off_c, 0, 90, 100
2, 471648, Note_on_c, 0, 90, 110
2, 471680, Note_off_c, 0, 91, 100
2, 471696, Note_on_c, 0, 91, 110
2, 471728, Note_off_c, 0, 90, 100
2, 471744, Note_on_c, 0, 90, 110
2, 471776, Note_off_c, 0, 91, 100
2, 471792, Note_on_c, 0, 91, 110
2, 471824, Note_off_c, 0, 90, 100
2, 471840, Note_on_c, 0, 88, 110
2, 471872, Note_off_c, 0, 91, 100
2, 471888, Note_on_c, 0, 90, 110
2, 471920, Note_off_c, 0, 88, 100
2, 471932, Note_off_c, 0, 78, 100
2, 471936, Note_on_c, 0, 79, 110
2, 471936, Note_on_c, 0, 91, 110
2, 471968, Note_off_c, 0, 90, 100
2, 472124, Note_off_c, 0, 79, 100
2, 472124, Note_off_c, 0, 91, 100
2, 472320, Note_on_c, 0, 75, 110
2, 472320, Note_on_c, 0, 63, 110
2, 472508, Note_off_c, 0, 75, 100
2, 472508, Note_off_c, 0, 63, 100
2, 472704, Note_on_c, 0, 93, 120
2, 472704, Note_on_c, 0, 89, 120
2, 472704, Note_on_c, 0, 87, 120
2, 472704, Note_on_c, 0, 84, 120
2, 472704, Note_on_c, 0, 81, 120
2, 473276, Note_off_c, 0, 93, 100
2, 473276, Note_off_c, 0, 89, 100
2, 473276, Note_off_c, 0, 87, 100
2, 473276, Note_off_c, 0, 84, 100
2, 473276, Note_off_c, 0, 81, 100
2, 473472, Note_on_c, 0, 94, 120
2, 473472, Note_on_c, 0, 89, 120
2, 473472, Note_on_c, 0, 86, 120
2, 473472, Note_on_c, 0, 82, 120
2, 474044, Note_off_c, 0, 94, 100
2, 474044, Note_off_c, 0, 89, 100
2, 474044, Note_off_c, 0, 86, 100
2, 474044, Note_off_c, 0, 82, 100
2, 474240, Note_on_c, 0, 81, 120
2, 474240, Note_on_c, 0, 77, 120
2, 474240, Note_on_c, 0, 75, 120
2, 474240, Note_on_c, 0, 72, 120
2, 474240, Note_on_c, 0, 69, 120
2, 474812, Note_off_c, 0, 69, 100
2, 474812, Note_off_c, 0, 72, 100
2, 474812, Note_off_c, 0, 75, 100
2, 474812, Note_off_c, 0, 77, 100
2, 474812, Note_off_c, 0, 81, 100
2, 475392, Note_on_c, 0, 82, 120
2, 475392, Note_on_c, 0, 77, 120
2, 475392, Note_on_c, 0, 74, 120
2, 475392, Note_on_c, 0, 70, 120
2, 478076, Note_off_c, 0, 70, 100
2, 478076, Note_off_c, 0, 74, 100
2, 478076, Note_off_c, 0, 77, 100
2, 478076, Note_off_c, 0, 82, 100
2, 479232, Control_c, 0, 7, 0
2, 480000, Note_on_c, 0, 70, 1
2, 480188, Note_off_c, 0, 70, 100
2, 480188, End_track
3, 0, Start_track
3, 0, Title_t, "Left"
3, 0, Control_c, 1, 0, 0
3, 0, Program_c, 1, 0
3, 0, Control_c, 1, 7, 100
3, 0, Control_c, 1, 10, 51
3, 0, Control_c, 1, 91, 127
3, 0, Key_signature, -1, "major"
3, 0, Control_c, 1, 64, 127
3, 0, Note_on_c, 1, 41, 80
3, 28, Note_off_c, 1, 41, 100
3, 32, Note_on_c, 1, 53, 80
3, 60, Note_off_c, 1, 53, 100
3, 64, Note_on_c, 1, 53, 80
3, 92, Note_off_c, 1, 53, 100
3, 256, Note_on_c, 1, 41, 80
3, 256, Note_on_c, 1, 29, 80
3, 572, Note_off_c, 1, 41, 100
3, 572, Note_off_c, 1, 29, 100
3, 720, Note_on_c, 1, 41, 80
3, 720, Note_on_c, 1, 53, 80
3, 908, Note_off_c, 1, 41, 100
3, 908, Note_off_c, 1, 53, 100
3, 1104, Control_c, 1, 64, 0
3, 1112, Control_c, 1, 64, 127
3, 1440, Note_on_c, 1, 49, 80
3, 1440, Note_on_c, 1, 37, 80
3, 1628, Note_off_c, 1, 37, 100
3, 1628, Note_off_c, 1, 49, 100
3, 1732, Control_c, 1, 64, 0
3, 1736, Control_c, 1, 64, 127
3, 2032, Note_on_c, 1, 34, 80
3, 2032, Note_on_c, 1, 46, 80
3, 2220, Note_off_c, 1, 34, 100
3, 2220, Note_off_c, 1, 46, 100
3, 2296, Control_c, 1, 64, 0
3, 2304, Control_c, 1, 64, 127
3, 2688, Note_on_c, 1, 42, 80
3, 2688, Note_on_c, 1, 30, 80
3, 2876, Note_off_c, 1, 42, 100
3, 2876, Note_off_c, 1, 30, 100
3, 2924, Control_c, 1, 64, 0
3, 3072, Key_signature, -2, "major"
3, 3696, Note_on_c, 1, 53, 80
3, 3740, Note_off_c, 1, 53, 100
3, 3744, Note_on_c, 1, 56, 80
3, 3788, Note_off_c, 1, 56, 100
3, 3792, Note_on_c, 1, 53, 80
3, 3836, Note_off_c, 1, 53, 100
3, 3840, Note_on_c, 1, 56, 80
3, 3884, Note_off_c, 1, 56, 100
3, 3888, Note_on_c, 1, 53, 80
3, 3932, Note_off_c, 1, 53, 100
3, 3936, Note_on_c, 1, 56, 80
3, 3980, Note_off_c, 1, 56, 100
3, 3984, Note_on_c, 1, 49, 80
3, 4028, Note_off_c, 1, 49, 100
3, 4032, Note_on_c, 1, 54, 80
3, 4124, Note_off_c, 1, 54, 100
3, 4128, Note_on_c, 1, 48, 80
3, 4220, Note_off_c, 1, 48, 100
3, 4224, Note_on_c, 1, 49, 80
3, 4316, Note_off_c, 1, 49, 100
3, 4320, Note_on_c, 1, 42, 80
3, 4412, Note_off_c, 1, 42, 100
3, 4608, Control_c, 1, 64, 127
3, 4704, Note_on_c, 1, 54, 80
3, 4704, Note_on_c, 1, 42, 80
3, 4796, Note_off_c, 1, 54, 100
3, 4796, Note_off_c, 1, 42, 100
3, 4892, Control_c, 1, 64, 0
3, 4896, Control_c, 1, 64, 127
3, 4992, Note_on_c, 1, 51, 80
3, 4992, Note_on_c, 1, 39, 80
3, 5084, Note_off_c, 1, 51, 100
3, 5084, Note_off_c, 1, 39, 100
3, 5176, Control_c, 1, 64, 0
3, 5184, Control_c, 1, 64, 127
3, 5280, Note_on_c, 1, 47, 80
3, 5280, Note_on_c, 1, 35, 80
3, 5372, Note_off_c, 1, 47, 100
3, 5372, Note_off_c, 1, 35, 100
3, 5412, Control_c, 1, 64, 0
3, 5424, Note_on_c, 1, 54, 80
3, 5468, Note_off_c, 1, 54, 100
3, 5472, Note_on_c, 1, 56, 80
3, 5516, Note_off_c, 1, 56, 100
3, 5520, Note_on_c, 1, 58, 80
3, 5564, Note_off_c, 1, 58, 100
3, 5568, Note_on_c, 1, 59, 80
3, 5612, Note_off_c, 1, 59, 100
3, 5616, Note_on_c, 1, 61, 80
3, 5660, Note_off_c, 1, 61, 100
3, 5664, Note_on_c, 1, 63, 80
3, 5708, Note_off_c, 1, 63, 100
3, 5712, Note_on_c, 1, 64, 80
3, 5756, Note_off_c, 1, 64, 100
3, 5760, Note_on_c, 1, 63, 80
3, 5804, Note_off_c, 1, 63, 100
3, 5808, Note_on_c, 1, 59, 80
3, 5852, Note_off_c, 1, 59, 100
3, 5856, Note_on_c, 1, 66, 80
3, 5900, Note_off_c, 1, 66, 100
3, 5904, Note_on_c, 1, 64, 80
3, 5948, Note_off_c, 1, 64, 100
3, 5952, Note_on_c, 1, 63, 80
3, 5996, Note_off_c, 1, 63, 100
3, 6000, Note_on_c, 1, 61, 80
3, 6044, Note_off_c, 1, 61, 100
3, 6048, Note_on_c, 1, 59, 80
3, 6092, Note_off_c, 1, 59, 100
3, 6096, Note_on_c, 1, 58, 80
3, 6140, Note_off_c, 1, 58, 100
3, 6144, Key_signature, 5, "major"
3, 6144, Note_on_c, 1, 59, 80
3, 6188, Note_off_c, 1, 59, 100
3, 6192, Note_on_c, 1, 54, 80
3, 6236, Note_off_c, 1, 54, 100
3, 6240, Note_on_c, 1, 56, 80
3, 6284, Note_off_c, 1, 56, 100
3, 6288, Note_on_c, 1, 58, 80
3, 6332, Note_off_c, 1, 58, 100
3, 6336, Note_on_c, 1, 59, 80
3, 6380, Note_off_c, 1, 59, 100
3, 6384, Note_on_c, 1, 61, 80
3, 6428, Note_off_c, 1, 61, 100
3, 6432, Note_on_c, 1, 63, 80
3, 6476, Note_off_c, 1, 63, 100
3, 6480, Note_on_c, 1, 64, 80
3, 6524, Note_off_c, 1, 64, 100
3, 6528, Note_on_c, 1, 63, 80
3, 6572, Note_off_c, 1, 63, 100
3, 6576, Note_on_c, 1, 75, 80
3, 6620, Note_off_c, 1, 75, 100
3, 6624, Note_on_c, 1, 78, 80
3, 6668, Note_off_c, 1, 78, 100
3, 6672, Note_on_c, 1, 76, 80
3, 6716, Note_off_c, 1, 76, 100
3, 6720, Note_on_c, 1, 75, 80
3, 6764, Note_off_c, 1, 75, 100
3, 6768, Note_on_c, 1, 73, 80
3, 6812, Note_off_c, 1, 73, 100
3, 6816, Note_on_c, 1, 71, 80
3, 6860, Note_off_c, 1, 71, 100
3, 6864, Note_on_c, 1, 70, 80
3, 6908, Note_off_c, 1, 70, 100
3, 6912, Note_on_c, 1, 71, 80
3, 6956, Note_off_c, 1, 71, 100
3, 6960, Note_on_c, 1, 70, 80
3, 7004, Note_off_c, 1, 70, 100
3, 7008, Note_on_c, 1, 75, 80
3, 7052, Note_off_c, 1, 75, 100
3, 7056, Note_on_c, 1, 73, 80
3, 7100, Note_off_c, 1, 73, 100
3, 7104, Note_on_c, 1, 71, 80
3, 7148, Note_off_c, 1, 71, 100
3, 7152, Note_on_c, 1, 70, 80
3, 7196, Note_off_c, 1, 70, 100
3, 7200, Note_on_c, 1, 68, 80
3, 7244, Note_off_c, 1, 68, 100
3, 7248, Note_on_c, 1, 66, 80
3, 7292, Note_off_c, 1, 66, 100
3, 7296, Note_on_c, 1, 64, 80
3, 7340, Note_off_c, 1, 64, 100
3, 7344, Note_on_c, 1, 63, 80
3, 7388, Note_off_c, 1, 63, 100
3, 7392, Note_on_c, 1, 61, 80
3, 7436, Note_off_c, 1, 61, 100
3, 7440, Note_on_c, 1, 59, 80
3, 7484, Note_off_c, 1, 59, 100
3, 7488, Note_on_c, 1, 58, 80
3, 7532, Note_off_c, 1, 58, 100
3, 7536, Note_on_c, 1, 61, 80
3, 7580, Note_off_c, 1, 61, 100
3, 7584, Note_on_c, 1, 59, 80
3, 7628, Note_off_c, 1, 59, 100
3, 7632, Note_on_c, 1, 64, 80
3, 7676, Note_off_c, 1, 64, 100
3, 7680, Note_on_c, 1, 63, 80
3, 7724, Note_off_c, 1, 63, 100
3, 7728, Note_on_c, 1, 63, 80
3, 7772, Note_off_c, 1, 63, 100
3, 7776, Note_on_c, 1, 61, 80
3, 7820, Note_off_c, 1, 61, 100
3, 7824, Note_on_c, 1, 54, 80
3, 7868, Note_off_c, 1, 54, 100
3, 7872, Control_c, 1, 64, 127
3, 7872, Note_on_c, 1, 66, 80
3, 7872, Note_on_c, 1, 61, 80
3, 7872, Note_on_c, 1, 54, 80
3, 8008, Control_c, 1, 64, 0
3, 8016, Control_c, 1, 64, 127
3, 8060, Note_off_c, 1, 66, 100
3, 8060, Note_off_c, 1, 61, 100
3, 8060, Note_off_c, 1, 54, 100
3, 8184, Note_on_c, 1, 35, 80
3, 8184, Note_on_c, 1, 47, 80
3, 8348, Control_c, 1, 64, 0
3, 8372, Note_off_c, 1, 35, 100
3, 8372, Note_off_c, 1, 47, 100
3, 8448, Note_on_c, 1, 44, 110
3, 8448, Note_on_c, 1, 32, 110
3, 8636, Note_off_c, 1, 44, 100
3, 8636, Note_off_c, 1, 32, 100
3, 9312, Note_on_c, 1, 68, 80
3, 9404, Note_off_c, 1, 68, 100
3, 9408, Note_on_c, 1, 61, 80
3, 9500, Note_off_c, 1, 61, 100
3, 9504, Note_on_c, 1, 68, 80
3, 9596, Note_off_c, 1, 68, 100
3, 9600, Note_on_c, 1, 70, 80
3, 9692, Note_off_c, 1, 70, 100
3, 9696, Note_on_c, 1, 68, 80
3, 9788, Note_off_c, 1, 68, 100
3, 9792, Note_on_c, 1, 61, 80
3, 9884, Note_off_c, 1, 61, 100
3, 9888, Note_on_c, 1, 68, 80
3, 9980, Note_off_c, 1, 68, 100
3, 9984, Note_on_c, 1, 67, 80
3, 10556, Note_off_c, 1, 67, 100
3, 10560, Note_on_c, 1, 66, 80
3, 10940, Note_off_c, 1, 66, 100
3, 10944, Note_on_c, 1, 66, 80
3, 11132, Note_off_c, 1, 66, 100
3, 11136, Note_on_c, 1, 64, 80
3, 11324, Note_off_c, 1, 64, 100
3, 11328, Note_on_c, 1, 63, 80
3, 11516, Note_off_c, 1, 63, 100
3, 11520, Note_on_c, 1, 61, 80
3, 11612, Note_off_c, 1, 61, 100
3, 11616, Note_on_c, 1, 56, 80
3, 11708, Note_off_c, 1, 56, 100
3, 11712, Note_on_c, 1, 51, 80
3, 11804, Note_off_c, 1, 51, 100
3, 11808, Note_on_c, 1, 56, 80
3, 11900, Note_off_c, 1, 56, 100
3, 11904, Note_on_c, 1, 57, 80
3, 11996, Note_off_c, 1, 57, 100
3, 12000, Note_on_c, 1, 56, 80
3, 12092, Note_off_c, 1, 56, 100
3, 12096, Note_on_c, 1, 49, 80
3, 12188, Note_off_c, 1, 49, 100
3, 12192, Note_on_c, 1, 56, 80
3, 12284, Note_off_c, 1, 56, 100
3, 12288, Note_on_c, 1, 57, 80
3, 12860, Note_off_c, 1, 57, 100
3, 12864, Note_on_c, 1, 56, 80
3, 13052, Note_off_c, 1, 56, 100
3, 13056, Note_on_c, 1, 58, 80
3, 13056, Note_on_c, 1, 55, 80
3, 13148, Note_off_c, 1, 58, 100
3, 13152, Note_on_c, 1, 61, 80
3, 13244, Note_off_c, 1, 61, 100
3, 13248, Note_on_c, 1, 58, 80
3, 13340, Note_off_c, 1, 58, 100
3, 13344, Note_on_c, 1, 63, 80
3, 13436, Note_off_c, 1, 63, 100
3, 13440, Note_on_c, 1, 64, 80
3, 13532, Note_off_c, 1, 64, 100
3, 13536, Note_on_c, 1, 63, 80
3, 13628, Note_off_c, 1, 63, 100
3, 13632, Note_on_c, 1, 58, 80
3, 13724, Note_off_c, 1, 58, 100
3, 13728, Note_on_c, 1, 63, 80
3, 13820, Note_off_c, 1, 55, 100
3, 13820, Note_off_c, 1, 63, 100
3, 13824, Note_on_c, 1, 56, 80
3, 13916, Note_off_c, 1, 56, 100
3, 13920, Note_on_c, 1, 59, 81
3, 14012, Note_off_c, 1, 59, 100
3, 14016, Note_on_c, 1, 56, 83
3, 14108, Note_off_c, 1, 56, 100
3, 14112, Note_on_c, 1, 59, 84
3, 14204, Note_off_c, 1, 59, 100
3, 14208, Note_on_c, 1, 61, 86
3, 14300, Note_off_c, 1, 61, 100
3, 14304, Note_on_c, 1, 59, 87
3, 14396, Note_off_c, 1, 59, 100
3, 14400, Note_on_c, 1, 56, 89
3, 14400, Note_on_c, 1, 47, 89
3, 14492, Note_off_c, 1, 56, 100
3, 14496, Note_on_c, 1, 59, 91
3, 14588, Note_off_c, 1, 47, 100
3, 14588, Note_off_c, 1, 59, 100
3, 14592, Note_on_c, 1, 52, 92
3, 14592, Note_on_c, 1, 49, 92
3, 14780, Note_off_c, 1, 52, 100
3, 14784, Note_on_c, 1, 61, 95
3, 15164, Note_off_c, 1, 49, 100
3, 15164, Note_off_c, 1, 61, 100
3, 15168, Note_on_c, 1, 59, 102
3, 15168, Note_on_c, 1, 51, 102
3, 15356, Note_off_c, 1, 59, 100
3, 15356, Note_off_c, 1, 51, 100
3, 15360, Note_on_c, 1, 59, 105
3, 15360, Note_on_c, 1, 51, 105
3, 15548, Note_off_c, 1, 59, 100
3, 15552, Note_on_c, 1, 58, 108
3, 15740, Note_off_c, 1, 58, 100
3, 15744, Note_on_c, 1, 56, 110
3, 15932, Note_off_c, 1, 51, 100
3, 15932, Note_off_c, 1, 56, 100
3, 15936, Note_on_c, 1, 55, 110
3, 15936, Note_on_c, 1, 51, 110
3, 16124, Note_off_c, 1, 55, 100
3, 16124, Note_off_c, 1, 51, 100
3, 16320, Note_on_c, 1, 56, 82
3, 16320, Note_on_c, 1, 44, 82
3, 16604, Note_off_c, 1, 56, 100
3, 16604, Note_off_c, 1, 44, 100
3, 16704, Note_on_c, 1, 52, 87
3, 16704, Note_on_c, 1, 40, 87
3, 16988, Note_off_c, 1, 52, 100
3, 16988, Note_off_c, 1, 40, 100
3, 17088, Note_on_c, 1, 49, 92
3, 17088, Note_on_c, 1, 37, 92
3, 17372, Note_off_c, 1, 49, 100
3, 17372, Note_off_c, 1, 37, 100
3, 17376, Control_c, 1, 64, 127
3, 17664, Key_signature, 3, "major"
3, 17696, Note_on_c, 1, 33, 81
3, 17732, Note_off_c, 1, 33, 100
3, 17736, Note_on_c, 1, 45, 84
3, 17756, Note_off_c, 1, 45, 100
3, 17760, Note_on_c, 1, 45, 85
3, 17788, Note_off_c, 1, 45, 100
3, 17792, Note_on_c, 1, 57, 87
3, 17820, Note_off_c, 1, 57, 100
3, 17824, Note_on_c, 1, 57, 89
3, 17852, Note_off_c, 1, 57, 100
3, 18136, Control_c, 1, 64, 0
3, 18144, Note_on_c, 1, 45, 109
3, 18144, Note_on_c, 1, 33, 109
3, 18236, Note_off_c, 1, 45, 100
3, 18236, Note_off_c, 1, 33, 100
3, 18240, Control_c, 1, 64, 127
3, 18240, Note_on_c, 1, 47, 110
3, 18240, Note_on_c, 1, 40, 110
3, 18240, Note_on_c, 1, 38, 110
3, 18240, Note_on_c, 1, 33, 110
3, 20732, Note_off_c, 1, 33, 100
3, 20732, Note_off_c, 1, 38, 100
3, 20732, Note_off_c, 1, 40, 100
3, 20732, Note_off_c, 1, 47, 100
3, 21496, Control_c, 1, 64, 0
3, 21600, Note_on_c, 1, 45, 80
3, 21600, Note_on_c, 1, 33, 80
3, 21692, Note_off_c, 1, 45, 100
3, 21692, Note_off_c, 1, 33, 100
3, 21760, Note_on_c, 1, 45, 80
3, 21760, Note_on_c, 1, 33, 80
3, 21804, Note_off_c, 1, 45, 100
3, 21804, Note_off_c, 1, 33, 100
3, 21984, Note_on_c, 1, 45, 80
3, 21984, Note_on_c, 1, 33, 80
3, 22076, Note_off_c, 1, 45, 100
3, 22076, Note_off_c, 1, 33, 100
3, 22144, Note_on_c, 1, 42, 80
3, 22144, Note_on_c, 1, 30, 80
3, 22188, Note_off_c, 1, 42, 100
3, 22188, Note_off_c, 1, 30, 100
3, 22368, Note_on_c, 1, 50, 80
3, 22368, Note_on_c, 1, 38, 80
3, 22460, Note_off_c, 1, 50, 100
3, 22460, Note_off_c, 1, 38, 100
3, 22528, Note_on_c, 1, 50, 80
3, 22528, Note_on_c, 1, 38, 80
3, 22572, Note_off_c, 1, 50, 100
3, 22572, Note_off_c, 1, 38, 100
3, 22752, Note_on_c, 1, 50, 80
3, 22752, Note_on_c, 1, 38, 80
3, 22844, Note_off_c, 1, 50, 100
3, 22844, Note_off_c, 1, 38, 100
3, 22912, Note_on_c, 1, 47, 80
3, 22912, Note_on_c, 1, 35, 80
3, 22956, Note_off_c, 1, 47, 100
3, 22956, Note_off_c, 1, 35, 100
3, 23040, Key_signature, 0, "major"
3, 23136, Note_on_c, 1, 55, 81
3, 23136, Note_on_c, 1, 43, 81
3, 23228, Note_off_c, 1, 55, 100
3, 23228, Note_off_c, 1, 43, 100
3, 23296, Note_on_c, 1, 55, 84
3, 23296, Note_on_c, 1, 43, 84
3, 23340, Note_off_c, 1, 55, 100
3, 23340, Note_off_c, 1, 43, 100
3, 23520, Note_on_c, 1, 55, 88
3, 23520, Note_on_c, 1, 43, 88
3, 23612, Note_off_c, 1, 55, 100
3, 23612, Note_off_c, 1, 43, 100
3, 23680, Note_on_c, 1, 52, 91
3, 23680, Note_on_c, 1, 40, 91
3, 23724, Note_off_c, 1, 52, 100
3, 23724, Note_off_c, 1, 40, 100
3, 23904, Note_on_c, 1, 60, 96
3, 23904, Note_on_c, 1, 48, 96
3, 23996, Note_off_c, 1, 60, 100
3, 23996, Note_off_c, 1, 48, 100
3, 24064, Note_on_c, 1, 60, 98
3, 24064, Note_on_c, 1, 48, 98
3, 24108, Note_off_c, 1, 60, 100
3, 24108, Note_off_c, 1, 48, 100
3, 24288, Note_on_c, 1, 57, 103
3, 24288, Note_on_c, 1, 45, 103
3, 24380, Note_off_c, 1, 57, 100
3, 24380, Note_off_c, 1, 45, 100
3, 24448, Note_on_c, 1, 57, 106
3, 24448, Note_on_c, 1, 43, 106
3, 24492, Note_off_c, 1, 57, 100
3, 24492, Note_off_c, 1, 43, 100
3, 24672, Note_on_c, 1, 53, 110
3, 24672, Note_on_c, 1, 41, 110
3, 24764, Note_off_c, 1, 53, 100
3, 24764, Note_off_c, 1, 41, 100
3, 24832, Note_on_c, 1, 53, 113
3, 24832, Note_on_c, 1, 41, 113
3, 24876, Note_off_c, 1, 53, 100
3, 24876, Note_off_c, 1, 41, 100
3, 25056, Note_on_c, 1, 50, 117
3, 25056, Note_on_c, 1, 38, 117
3, 25148, Note_off_c, 1, 50, 100
3, 25148, Note_off_c, 1, 38, 100
3, 25216, Note_on_c, 1, 50, 120
3, 25216, Note_on_c, 1, 38, 120
3, 25260, Note_off_c, 1, 50, 100
3, 25260, Note_off_c, 1, 38, 100
3, 25344, Control_c, 1, 64, 127
3, 25440, Note_on_c, 1, 45, 120
3, 25440, Note_on_c, 1, 40, 120
3, 25440, Note_on_c, 1, 37, 120
3, 25440, Note_on_c, 1, 33, 120
3, 25532, Note_off_c, 1, 45, 100
3, 25532, Note_off_c, 1, 40, 100
3, 25532, Note_off_c, 1, 37, 100
3, 25532, Note_off_c, 1, 33, 100
3, 25600, Note_on_c, 1, 45, 120
3, 25600, Note_on_c, 1, 40, 120
3, 25600, Note_on_c, 1, 37, 120
3, 25600, Note_on_c, 1, 33, 120
3, 25644, Note_off_c, 1, 45, 100
3, 25644, Note_off_c, 1, 40, 100
3, 25644, Note_off_c, 1, 37, 100
3, 25644, Note_off_c, 1, 33, 100
3, 25824, Note_on_c, 1, 45, 120
3, 25824, Note_on_c, 1, 40, 120
3, 25824, Note_on_c, 1, 37, 120
3, 25824, Note_on_c, 1, 33, 120
3, 25916, Note_off_c, 1, 45, 100
3, 25916, Note_off_c, 1, 40, 100
3, 25916, Note_off_c, 1, 37, 100
3, 25916, Note_off_c, 1, 33, 100
3, 25984, Note_on_c, 1, 45, 120
3, 25984, Note_on_c, 1, 40, 120
3, 25984, Note_on_c, 1, 37, 120
3, 25984, Note_on_c, 1, 33, 120
3, 26028, Note_off_c, 1, 45, 100
3, 26028, Note_off_c, 1, 40, 100
3, 26028, Note_off_c, 1, 37, 100
3, 26028, Note_off_c, 1, 33, 100
3, 26208, Note_on_c, 1, 45, 120
3, 26208, Note_on_c, 1, 40, 120
3, 26208, Note_on_c, 1, 36, 120
3, 26208, Note_on_c, 1, 33, 120
3, 26300, Note_off_c, 1, 45, 100
3, 26300, Note_off_c, 1, 40, 100
3, 26300, Note_off_c, 1, 36, 100
3, 26300, Note_off_c, 1, 33, 100
3, 26368, Note_on_c, 1, 45, 120
3, 26368, Note_on_c, 1, 33, 120
3, 26412, Note_off_c, 1, 45, 100
3, 26412, Note_off_c, 1, 33, 100
3, 26592, Note_on_c, 1, 33, 117
3, 26592, Note_on_c, 1, 45, 117
3, 26684, Note_off_c, 1, 33, 100
3, 26684, Note_off_c, 1, 45, 100
3, 26752, Note_on_c, 1, 45, 111
3, 26752, Note_on_c, 1, 33, 111
3, 26796, Note_off_c, 1, 45, 100
3, 26796, Note_off_c, 1, 33, 100
3, 26976, Note_on_c, 1, 33, 102
3, 26976, Note_on_c, 1, 45, 102
3, 27068, Note_off_c, 1, 33, 100
3, 27068, Note_off_c, 1, 45, 100
3, 27136, Note_on_c, 1, 45, 96
3, 27136, Note_on_c, 1, 33, 96
3, 27180, Note_off_c, 1, 45, 100
3, 27180, Note_off_c, 1, 33, 100
3, 27360, Note_on_c, 1, 29, 88
3, 27360, Note_on_c, 1, 41, 88
3, 27452, Note_off_c, 1, 29, 100
3, 27452, Note_off_c, 1, 41, 100
3, 27520, Note_on_c, 1, 41, 82
3, 27520, Note_on_c, 1, 29, 82
3, 27564, Note_off_c, 1, 41, 100
3, 27564, Note_off_c, 1, 29, 100
3, 27640, Control_c, 1, 64, 0
3, 27648, Key_signature, -2, "major"
3, 27648, Control_c, 1, 64, 127
3, 27648, Note_on_c, 1, 41, 70
3, 27648, Note_on_c, 1, 29, 70
3, 27836, Note_off_c, 1, 41, 100
3, 27836, Note_off_c, 1, 29, 100
3, 28032, Note_on_c, 1, 57, 70
3, 28032, Note_on_c, 1, 53, 70
3, 28220, Note_off_c, 1, 57, 100
3, 28220, Note_off_c, 1, 53, 100
3, 28800, Note_on_c, 1, 41, 70
3, 28800, Note_on_c, 1, 29, 70
3, 28988, Note_off_c, 1, 41, 100
3, 28988, Note_off_c, 1, 29, 100
3, 29184, Note_on_c, 1, 57, 70
3, 29184, Note_on_c, 1, 60, 70
3, 29372, Note_off_c, 1, 57, 100
3, 29372, Note_off_c, 1, 60, 100
3, 29952, Note_on_c, 1, 41, 71
3, 29952, Note_on_c, 1, 29, 71
3, 30140, Note_off_c, 1, 41, 100
3, 30140, Note_off_c, 1, 29, 100
3, 30336, Note_on_c, 1, 65, 85
3, 30336, Note_on_c, 1, 60, 85
3, 30336, Note_on_c, 1, 57, 85
3, 30336, Note_on_c, 1, 53, 85
3, 30524, Note_off_c, 1, 65, 100
3, 30524, Note_off_c, 1, 60, 100
3, 30524, Note_off_c, 1, 57, 100
3, 30524, Note_off_c, 1, 53, 100
3, 30720, Note_on_c, 1, 41, 100
3, 30720, Note_on_c, 1, 29, 100
3, 30908, Note_off_c, 1, 41, 100
3, 30908, Note_off_c, 1, 29, 100
3, 31104, Note_on_c, 1, 65, 110
3, 31104, Note_on_c, 1, 60, 110
3, 31104, Note_on_c, 1, 57, 110
3, 31104, Note_on_c, 1, 53, 110
3, 31292, Note_off_c, 1, 65, 100
3, 31292, Note_off_c, 1, 60, 100
3, 31292, Note_off_c, 1, 57, 100
3, 31292, Note_off_c, 1, 53, 100
3, 31488, Note_on_c, 1, 29, 120
3, 31488, Note_on_c, 1, 41, 120
3, 31864, Control_c, 1, 64, 0
3, 32060, Note_off_c, 1, 29, 100
3, 32060, Note_off_c, 1, 41, 100
3, 32064, Note_on_c, 1, 43, 120
3, 32156, Note_off_c, 1, 43, 100
3, 32160, Note_on_c, 1, 45, 120
3, 32252, Note_off_c, 1, 45, 100
3, 32256, Note_on_c, 1, 46, 120
3, 32256, Note_on_c, 1, 41, 120
3, 32256, Note_on_c, 1, 38, 120
3, 32256, Note_on_c, 1, 34, 120
3, 32444, Note_off_c, 1, 46, 100
3, 32444, Note_off_c, 1, 41, 100
3, 32444, Note_off_c, 1, 38, 100
3, 32444, Note_off_c, 1, 34, 100
3, 33408, Note_on_c, 1, 53, 80
3, 33596, Note_off_c, 1, 53, 100
3, 33792, Note_on_c, 1, 69, 80
3, 33840, Note_on_c, 1, 70, 80
3, 33884, Note_off_c, 1, 69, 100
3, 33888, Note_on_c, 1, 69, 80
3, 33932, Note_off_c, 1, 70, 100
3, 33936, Note_on_c, 1, 70, 80
3, 33980, Note_off_c, 1, 69, 100
3, 33984, Note_on_c, 1, 69, 80
3, 34028, Note_off_c, 1, 70, 100
3, 34032, Note_on_c, 1, 70, 80
3, 34076, Note_off_c, 1, 69, 100
3, 34080, Note_on_c, 1, 69, 80
3, 34124, Note_off_c, 1, 70, 100
3, 34128, Note_on_c, 1, 70, 80
3, 34172, Note_off_c, 1, 69, 100
3, 34176, Note_on_c, 1, 69, 80
3, 34220, Note_off_c, 1, 70, 100
3, 34224, Note_on_c, 1, 70, 80
3, 34268, Note_off_c, 1, 69, 100
3, 34272, Note_on_c, 1, 69, 80
3, 34316, Note_off_c, 1, 70, 100
3, 34320, Note_on_c, 1, 70, 80
3, 34364, Note_off_c, 1, 69, 100
3, 34368, Note_on_c, 1, 69, 80
3, 34412, Note_off_c, 1, 70, 100
3, 34416, Note_on_c, 1, 70, 80
3, 34460, Note_off_c, 1, 69, 100
3, 34464, Note_on_c, 1, 67, 80
3, 34508, Note_off_c, 1, 70, 100
3, 34512, Note_on_c, 1, 69, 80
3, 34556, Note_off_c, 1, 67, 100
3, 34556, Note_off_c, 1, 69, 100
3, 34560, Note_on_c, 1, 70, 80
3, 34940, Note_off_c, 1, 70, 100
3, 35136, Note_on_c, 1, 70, 80
3, 35228, Note_off_c, 1, 70, 100
3, 35232, Note_on_c, 1, 69, 80
3, 35324, Note_off_c, 1, 69, 100
3, 35328, Note_on_c, 1, 67, 80
3, 35420, Note_off_c, 1, 67, 100
3, 35424, Note_on_c, 1, 65, 80
3, 35516, Note_off_c, 1, 65, 100
3, 35520, Note_on_c, 1, 63, 80
3, 35612, Note_off_c, 1, 63, 100
3, 35616, Note_on_c, 1, 62, 80
3, 35708, Note_off_c, 1, 62, 100
3, 35712, Note_on_c, 1, 67, 80
3, 36092, Note_off_c, 1, 67, 100
3, 36288, Note_on_c, 1, 67, 80
3, 36380, Note_off_c, 1, 67, 100
3, 36384, Note_on_c, 1, 65, 80
3, 36476, Note_off_c, 1, 65, 100
3, 36480, Note_on_c, 1, 63, 80
3, 36572, Note_off_c, 1, 63, 100
3, 36576, Note_on_c, 1, 62, 80
3, 36668, Note_off_c, 1, 62, 100
3, 36672, Note_on_c, 1, 60, 80
3, 36764, Note_off_c, 1, 60, 100
3, 36768, Note_on_c, 1, 58, 80
3, 36860, Note_off_c, 1, 58, 100
3, 36864, Note_on_c, 1, 63, 80
3, 37244, Note_off_c, 1, 63, 100
3, 37440, Note_on_c, 1, 63, 80
3, 37532, Note_off_c, 1, 63, 100
3, 37536, Note_on_c, 1, 62, 80
3, 37628, Note_off_c, 1, 62, 100
3, 37632, Note_on_c, 1, 60, 80
3, 37724, Note_off_c, 1, 60, 100
3, 37728, Note_on_c, 1, 62, 80
3, 37820, Note_off_c, 1, 62, 100
3, 37824, Note_on_c, 1, 60, 80
3, 37916, Note_off_c, 1, 60, 100
3, 37920, Note_on_c, 1, 58, 80
3, 38012, Note_off_c, 1, 58, 100
3, 38016, Note_on_c, 1, 57, 80
3, 38108, Note_off_c, 1, 57, 100
3, 38112, Note_on_c, 1, 58, 80
3, 38204, Note_off_c, 1, 58, 100
3, 38208, Note_on_c, 1, 57, 80
3, 38300, Note_off_c, 1, 57, 100
3, 38304, Note_on_c, 1, 55, 80
3, 38396, Note_off_c, 1, 55, 100
3, 38400, Note_on_c, 1, 53, 80
3, 38492, Note_off_c, 1, 53, 100
3, 38496, Note_on_c, 1, 55, 80
3, 38588, Note_off_c, 1, 55, 100
3, 38592, Note_on_c, 1, 57, 80
3, 38684, Note_off_c, 1, 57, 100
3, 38688, Note_on_c, 1, 58, 80
3, 38780, Note_off_c, 1, 58, 100
3, 38784, Note_on_c, 1, 59, 80
3, 38876, Note_off_c, 1, 59, 100
3, 38880, Note_on_c, 1, 60, 80
3, 38972, Note_off_c, 1, 60, 100
3, 38976, Note_on_c, 1, 62, 80
3, 39068, Note_off_c, 1, 62, 100
3, 39072, Note_on_c, 1, 60, 80
3, 39164, Note_off_c, 1, 60, 100
3, 39168, Note_on_c, 1, 58, 80
3, 39260, Note_off_c, 1, 58, 100
3, 39264, Note_on_c, 1, 60, 80
3, 39356, Note_off_c, 1, 60, 100
3, 39360, Note_on_c, 1, 62, 80
3, 39452, Note_off_c, 1, 62, 100
3, 39456, Note_on_c, 1, 63, 80
3, 39548, Note_off_c, 1, 63, 100
3, 39552, Note_on_c, 1, 64, 80
3, 39644, Note_off_c, 1, 64, 100
3, 39648, Note_on_c, 1, 65, 80
3, 39740, Note_off_c, 1, 65, 100
3, 39744, Note_on_c, 1, 67, 80
3, 39836, Note_off_c, 1, 67, 100
3, 39840, Note_on_c, 1, 65, 80
3, 39932, Note_off_c, 1, 65, 100
3, 39936, Note_on_c, 1, 63, 80
3, 40028, Note_off_c, 1, 63, 100
3, 40032, Note_on_c, 1, 62, 80
3, 40124, Note_off_c, 1, 62, 100
3, 40128, Note_on_c, 1, 60, 80
3, 40220, Note_off_c, 1, 60, 100
3, 40224, Note_on_c, 1, 58, 80
3, 40316, Note_off_c, 1, 58, 100
3, 40320, Note_on_c, 1, 57, 80
3, 40412, Note_off_c, 1, 57, 100
3, 40416, Note_on_c, 1, 58, 80
3, 40508, Note_off_c, 1, 58, 100
3, 40512, Note_on_c, 1, 57, 81
3, 40604, Note_off_c, 1, 57, 100
3, 40608, Note_on_c, 1, 55, 81
3, 40700, Note_off_c, 1, 55, 100
3, 40704, Note_on_c, 1, 53, 82
3, 40796, Note_off_c, 1, 53, 100
3, 40800, Note_on_c, 1, 55, 83
3, 40892, Note_off_c, 1, 55, 100
3, 40896, Note_on_c, 1, 57, 83
3, 40988, Note_off_c, 1, 57, 100
3, 40992, Note_on_c, 1, 58, 84
3, 41084, Note_off_c, 1, 58, 100
3, 41088, Note_on_c, 1, 59, 84
3, 41180, Note_off_c, 1, 59, 100
3, 41184, Note_on_c, 1, 60, 85
3, 41276, Note_off_c, 1, 60, 100
3, 41280, Note_on_c, 1, 62, 86
3, 41372, Note_off_c, 1, 62, 100
3, 41376, Note_on_c, 1, 60, 86
3, 41468, Note_off_c, 1, 60, 100
3, 41472, Note_on_c, 1, 58, 87
3, 41564, Note_off_c, 1, 58, 100
3, 41568, Note_on_c, 1, 60, 87
3, 41660, Note_off_c, 1, 60, 100
3, 41664, Note_on_c, 1, 62, 88
3, 41756, Note_off_c, 1, 62, 100
3, 41760, Note_on_c, 1, 63, 89
3, 41852, Note_off_c, 1, 63, 100
3, 41856, Note_on_c, 1, 64, 89
3, 41948, Note_off_c, 1, 64, 100
3, 41952, Note_on_c, 1, 65, 90
3, 42044, Note_off_c, 1, 65, 100
3, 42048, Note_on_c, 1, 67, 90
3, 42140, Note_off_c, 1, 67, 100
3, 42144, Note_on_c, 1, 65, 91
3, 42236, Note_off_c, 1, 65, 100
3, 42240, Note_on_c, 1, 58, 92
3, 42332, Note_off_c, 1, 58, 100
3, 42336, Note_on_c, 1, 66, 92
3, 42428, Note_off_c, 1, 66, 100
3, 42432, Note_on_c, 1, 67, 93
3, 42524, Note_off_c, 1, 67, 100
3, 42528, Note_on_c, 1, 66, 93
3, 42620, Note_off_c, 1, 66, 100
3, 42624, Note_on_c, 1, 58, 94
3, 42716, Note_off_c, 1, 58, 100
3, 42720, Note_on_c, 1, 67, 95
3, 42812, Note_off_c, 1, 67, 100
3, 42816, Note_on_c, 1, 69, 95
3, 42908, Note_off_c, 1, 69, 100
3, 42912, Note_on_c, 1, 67, 96
3, 43004, Note_off_c, 1, 67, 100
3, 43008, Note_on_c, 1, 66, 97
3, 43100, Note_off_c, 1, 66, 100
3, 43104, Note_on_c, 1, 67, 97
3, 43196, Note_off_c, 1, 67, 100
3, 43200, Note_on_c, 1, 69, 98
3, 43292, Note_off_c, 1, 69, 100
3, 43296, Note_on_c, 1, 67, 98
3, 43388, Note_off_c, 1, 67, 100
3, 43392, Note_on_c, 1, 64, 99
3, 43484, Note_off_c, 1, 64, 100
3, 43488, Note_on_c, 1, 65, 100
3, 43580, Note_off_c, 1, 65, 100
3, 43584, Note_on_c, 1, 67, 100
3, 43676, Note_off_c, 1, 67, 100
3, 43680, Note_on_c, 1, 65, 101
3, 43772, Note_off_c, 1, 65, 100
3, 43776, Note_on_c, 1, 64, 101
3, 43868, Note_off_c, 1, 64, 100
3, 43872, Note_on_c, 1, 65, 102
3, 43964, Note_off_c, 1, 65, 100
3, 43968, Note_on_c, 1, 67, 103
3, 44060, Note_off_c, 1, 67, 100
3, 44064, Note_on_c, 1, 65, 103
3, 44156, Note_off_c, 1, 65, 100
3, 44160, Note_on_c, 1, 62, 104
3, 44252, Note_off_c, 1, 62, 100
3, 44256, Note_on_c, 1, 63, 104
3, 44348, Note_off_c, 1, 63, 100
3, 44352, Note_on_c, 1, 65, 105
3, 44444, Note_off_c, 1, 65, 100
3, 44448, Note_on_c, 1, 63, 106
3, 44540, Note_off_c, 1, 63, 100
3, 44544, Note_on_c, 1, 61, 106
3, 44636, Note_off_c, 1, 61, 100
3, 44640, Note_on_c, 1, 62, 107
3, 44732, Note_off_c, 1, 62, 100
3, 44736, Note_on_c, 1, 63, 107
3, 44828, Note_off_c, 1, 63, 100
3, 44832, Note_on_c, 1, 62, 108
3, 44924, Note_off_c, 1, 62, 100
3, 44928, Note_on_c, 1, 61, 109
3, 45020, Note_off_c, 1, 61, 100
3, 45024, Note_on_c, 1, 62, 109
3, 45116, Note_off_c, 1, 62, 100
3, 45120, Note_on_c, 1, 63, 110
3, 45212, Note_off_c, 1, 63, 100
3, 45216, Note_on_c, 1, 62, 110
3, 45308, Note_off_c, 1, 62, 100
3, 45312, Note_on_c, 1, 59, 110
3, 45404, Note_off_c, 1, 59, 100
3, 45408, Note_on_c, 1, 60, 110
3, 45500, Note_off_c, 1, 60, 100
3, 45504, Note_on_c, 1, 62, 110
3, 45596, Note_off_c, 1, 62, 100
3, 45600, Note_on_c, 1, 60, 110
3, 45692, Note_off_c, 1, 60, 100
3, 45696, Note_on_c, 1, 57, 110
3, 45788, Note_off_c, 1, 57, 100
3, 45792, Note_on_c, 1, 58, 110
3, 45884, Note_off_c, 1, 58, 100
3, 45888, Note_on_c, 1, 60, 110
3, 45980, Note_off_c, 1, 60, 100
3, 45984, Note_on_c, 1, 58, 110
3, 46076, Note_off_c, 1, 58, 100
3, 46272, Note_on_c, 1, 57, 80
3, 46460, Note_off_c, 1, 57, 100
3, 46464, Note_on_c, 1, 69, 100
3, 46844, Note_off_c, 1, 69, 100
3, 47424, Note_on_c, 1, 53, 80
3, 47612, Note_off_c, 1, 53, 100
3, 47616, Note_on_c, 1, 65, 100
3, 48188, Note_off_c, 1, 65, 100
3, 48576, Note_on_c, 1, 50, 80
3, 48764, Note_off_c, 1, 50, 100
3, 48768, Note_on_c, 1, 62, 80
3, 48956, Note_off_c, 1, 62, 100
3, 48960, Note_on_c, 1, 60, 80
3, 49148, Note_off_c, 1, 60, 100
3, 49152, Note_on_c, 1, 58, 80
3, 49340, Note_off_c, 1, 58, 100
3, 49344, Note_on_c, 1, 59, 80
3, 49532, Note_off_c, 1, 59, 100
3, 49536, Note_on_c, 1, 60, 80
3, 49724, Note_off_c, 1, 60, 100
3, 49920, Note_on_c, 1, 58, 80
3, 50492, Note_off_c, 1, 58, 100
3, 50496, Note_on_c, 1, 58, 80
3, 50684, Note_off_c, 1, 58, 100
3, 50688, Note_on_c, 1, 58, 80
3, 50876, Note_off_c, 1, 58, 100
3, 50880, Note_on_c, 1, 57, 80
3, 51068, Note_off_c, 1, 57, 100
3, 51072, Note_on_c, 1, 55, 80
3, 51260, Note_off_c, 1, 55, 100
3, 51264, Note_on_c, 1, 53, 80
3, 51452, Note_off_c, 1, 53, 100
3, 51456, Note_on_c, 1, 52, 80
3, 51644, Note_off_c, 1, 52, 100
3, 51648, Note_on_c, 1, 53, 80
3, 51836, Note_off_c, 1, 53, 100
3, 51840, Note_on_c, 1, 60, 80
3, 52028, Note_off_c, 1, 60, 100
3, 52224, Note_on_c, 1, 58, 83
3, 52796, Note_off_c, 1, 58, 100
3, 52800, Note_on_c, 1, 57, 88
3, 52988, Note_off_c, 1, 57, 100
3, 52992, Note_on_c, 1, 62, 90
3, 53180, Note_off_c, 1, 62, 100
3, 53376, Note_on_c, 1, 61, 94
3, 53948, Note_off_c, 1, 61, 100
3, 53952, Note_on_c, 1, 60, 99
3, 54140, Note_off_c, 1, 60, 100
3, 54144, Note_on_c, 1, 65, 101
3, 54332, Note_off_c, 1, 65, 100
3, 54528, Note_on_c, 1, 64, 104
3, 55100, Note_off_c, 1, 64, 100
3, 55104, Note_on_c, 1, 63, 110
3, 55292, Note_off_c, 1, 63, 100
3, 55296, Note_on_c, 1, 41, 110
3, 55484, Note_off_c, 1, 41, 100
3, 55680, Note_on_c, 1, 57, 110
3, 55728, Note_on_c, 1, 58, 110
3, 55772, Note_off_c, 1, 57, 100
3, 55776, Note_on_c, 1, 57, 110
3, 55820, Note_off_c, 1, 58, 100
3, 55824, Note_on_c, 1, 58, 110
3, 55868, Note_off_c, 1, 57, 100
3, 55872, Note_on_c, 1, 57, 110
3, 55916, Note_off_c, 1, 58, 100
3, 55920, Note_on_c, 1, 58, 110
3, 55964, Note_off_c, 1, 57, 100
3, 55968, Note_on_c, 1, 57, 110
3, 56012, Note_off_c, 1, 58, 100
3, 56016, Note_on_c, 1, 58, 110
3, 56060, Note_off_c, 1, 57, 100
3, 56064, Note_on_c, 1, 57, 110
3, 56108, Note_off_c, 1, 58, 100
3, 56112, Note_on_c, 1, 58, 110
3, 56156, Note_off_c, 1, 57, 100
3, 56160, Note_on_c, 1, 57, 110
3, 56204, Note_off_c, 1, 58, 100
3, 56208, Note_on_c, 1, 58, 110
3, 56252, Note_off_c, 1, 57, 100
3, 56256, Note_on_c, 1, 57, 110
3, 56300, Note_off_c, 1, 58, 100
3, 56304, Note_on_c, 1, 58, 110
3, 56348, Note_off_c, 1, 57, 100
3, 56352, Note_on_c, 1, 55, 110
3, 56396, Note_off_c, 1, 58, 100
3, 56400, Note_on_c, 1, 57, 110
3, 56444, Note_off_c, 1, 55, 100
3, 56444, Note_off_c, 1, 57, 100
3, 56448, Note_on_c, 1, 58, 110
3, 56828, Note_off_c, 1, 58, 100
3, 57024, Note_on_c, 1, 58, 80
3, 57116, Note_off_c, 1, 58, 100
3, 57120, Note_on_c, 1, 57, 80
3, 57212, Note_off_c, 1, 57, 100
3, 57216, Note_on_c, 1, 55, 80
3, 57308, Note_off_c, 1, 55, 100
3, 57312, Note_on_c, 1, 53, 80
3, 57404, Note_off_c, 1, 53, 100
3, 57408, Note_on_c, 1, 51, 80
3, 57500, Note_off_c, 1, 51, 100
3, 57504, Note_on_c, 1, 50, 80
3, 57596, Note_off_c, 1, 50, 100
3, 57600, Note_on_c, 1, 55, 80
3, 57980, Note_off_c, 1, 55, 100
3, 58176, Note_on_c, 1, 55, 80
3, 58268, Note_off_c, 1, 55, 100
3, 58272, Note_on_c, 1, 53, 80
3, 58364, Note_off_c, 1, 53, 100
3, 58368, Note_on_c, 1, 51, 80
3, 58460, Note_off_c, 1, 51, 100
3, 58464, Note_on_c, 1, 50, 80
3, 58556, Note_off_c, 1, 50, 100
3, 58560, Note_on_c, 1, 48, 80
3, 58652, Note_off_c, 1, 48, 100
3, 58656, Note_on_c, 1, 46, 80
3, 58748, Note_off_c, 1, 46, 100
3, 58752, Note_on_c, 1, 51, 80
3, 59132, Note_off_c, 1, 51, 100
3, 59328, Note_on_c, 1, 51, 80
3, 59420, Note_off_c, 1, 51, 100
3, 59424, Note_on_c, 1, 50, 80
3, 59516, Note_off_c, 1, 50, 100
3, 59520, Note_on_c, 1, 48, 80
3, 59612, Note_off_c, 1, 48, 100
3, 59616, Note_on_c, 1, 50, 80
3, 59708, Note_off_c, 1, 50, 100
3, 59712, Note_on_c, 1, 48, 80
3, 59804, Note_off_c, 1, 48, 100
3, 59808, Note_on_c, 1, 46, 80
3, 59900, Note_off_c, 1, 46, 100
3, 59904, Note_on_c, 1, 45, 80
3, 59996, Note_off_c, 1, 45, 100
3, 60000, Note_on_c, 1, 46, 80
3, 60092, Note_off_c, 1, 46, 100
3, 60096, Note_on_c, 1, 45, 80
3, 60188, Note_off_c, 1, 45, 100
3, 60192, Note_on_c, 1, 43, 80
3, 60284, Note_off_c, 1, 43, 100
3, 60288, Note_on_c, 1, 41, 80
3, 60380, Note_off_c, 1, 41, 100
3, 60384, Note_on_c, 1, 43, 80
3, 60476, Note_off_c, 1, 43, 100
3, 60480, Note_on_c, 1, 45, 80
3, 60572, Note_off_c, 1, 45, 100
3, 60576, Note_on_c, 1, 46, 80
3, 60668, Note_off_c, 1, 46, 100
3, 60672, Note_on_c, 1, 47, 80
3, 60764, Note_off_c, 1, 47, 100
3, 60768, Note_on_c, 1, 48, 80
3, 60860, Note_off_c, 1, 48, 100
3, 60864, Note_on_c, 1, 50, 80
3, 60956, Note_off_c, 1, 50, 100
3, 60960, Note_on_c, 1, 48, 80
3, 61052, Note_off_c, 1, 48, 100
3, 61056, Note_on_c, 1, 46, 80
3, 61148, Note_off_c, 1, 46, 100
3, 61152, Note_on_c, 1, 48, 80
3, 61244, Note_off_c, 1, 48, 100
3, 61248, Note_on_c, 1, 50, 80
3, 61340, Note_off_c, 1, 50, 100
3, 61344, Note_on_c, 1, 51, 80
3, 61436, Note_off_c, 1, 51, 100
3, 61440, Note_on_c, 1, 52, 80
3, 61532, Note_off_c, 1, 52, 100
3, 61536, Note_on_c, 1, 53, 80
3, 61628, Note_off_c, 1, 53, 100
3, 61632, Note_on_c, 1, 55, 80
3, 61724, Note_off_c, 1, 55, 100
3, 61728, Note_on_c, 1, 53, 80
3, 61820, Note_off_c, 1, 53, 100
3, 61824, Note_on_c, 1, 51, 80
3, 61916, Note_off_c, 1, 51, 100
3, 61920, Note_on_c, 1, 50, 80
3, 62012, Note_off_c, 1, 50, 100
3, 62016, Note_on_c, 1, 48, 80
3, 62108, Note_off_c, 1, 48, 100
3, 62112, Note_on_c, 1, 46, 80
3, 62204, Note_off_c, 1, 46, 100
3, 62208, Note_on_c, 1, 45, 80
3, 62300, Note_off_c, 1, 45, 100
3, 62304, Note_on_c, 1, 46, 80
3, 62396, Note_off_c, 1, 46, 100
3, 62400, Note_on_c, 1, 45, 80
3, 62492, Note_off_c, 1, 45, 100
3, 62496, Note_on_c, 1, 43, 80
3, 62588, Note_off_c, 1, 43, 100
3, 62592, Note_on_c, 1, 41, 80
3, 62684, Note_off_c, 1, 41, 100
3, 62688, Note_on_c, 1, 43, 80
3, 62780, Note_off_c, 1, 43, 100
3, 62784, Note_on_c, 1, 45, 80
3, 62876, Note_off_c, 1, 45, 100
3, 62880, Note_on_c, 1, 46, 80
3, 62972, Note_off_c, 1, 46, 100
3, 62976, Note_on_c, 1, 45, 80
3, 63068, Note_off_c, 1, 45, 100
3, 63072, Note_on_c, 1, 46, 80
3, 63164, Note_off_c, 1, 46, 100
3, 63168, Note_on_c, 1, 48, 80
3, 63260, Note_off_c, 1, 48, 100
3, 63264, Note_on_c, 1, 50, 80
3, 63356, Note_off_c, 1, 50, 100
3, 63360, Note_on_c, 1, 51, 80
3, 63452, Note_off_c, 1, 51, 100
3, 63456, Note_on_c, 1, 53, 80
3, 63548, Note_off_c, 1, 53, 100
3, 63552, Note_on_c, 1, 55, 80
3, 63644, Note_off_c, 1, 55, 100
3, 63648, Note_on_c, 1, 51, 80
3, 63740, Note_off_c, 1, 51, 100
3, 63744, Note_on_c, 1, 49, 80
3, 63836, Note_off_c, 1, 49, 100
3, 63840, Note_on_c, 1, 50, 80
3, 63932, Note_off_c, 1, 50, 100
3, 63936, Note_on_c, 1, 52, 80
3, 64028, Note_off_c, 1, 52, 100
3, 64032, Note_on_c, 1, 49, 80
3, 64124, Note_off_c, 1, 49, 100
3, 64128, Note_on_c, 1, 50, 80
3, 64220, Note_off_c, 1, 50, 100
3, 64224, Note_on_c, 1, 53, 80
3, 64316, Note_off_c, 1, 53, 100
3, 64320, Note_on_c, 1, 58, 80
3, 64412, Note_off_c, 1, 58, 100
3, 64416, Note_on_c, 1, 62, 80
3, 64508, Note_off_c, 1, 62, 100
3, 64512, Note_on_c, 1, 54, 80
3, 64604, Note_off_c, 1, 54, 100
3, 64608, Note_on_c, 1, 55, 80
3, 64700, Note_off_c, 1, 55, 100
3, 64704, Note_on_c, 1, 57, 80
3, 64796, Note_off_c, 1, 57, 100
3, 64800, Note_on_c, 1, 55, 80
3, 64892, Note_off_c, 1, 55, 100
3, 64896, Note_on_c, 1, 51, 80
3, 64988, Note_off_c, 1, 51, 100
3, 64992, Note_on_c, 1, 51, 80
3, 65084, Note_off_c, 1, 51, 100
3, 65088, Note_on_c, 1, 53, 80
3, 65180, Note_off_c, 1, 53, 100
3, 65184, Note_on_c, 1, 51, 80
3, 65276, Note_off_c, 1, 51, 100
3, 65280, Note_on_c, 1, 53, 80
3, 65372, Note_off_c, 1, 53, 100
3, 65376, Note_on_c, 1, 57, 80
3, 65468, Note_off_c, 1, 57, 100
3, 65472, Note_on_c, 1, 60, 80
3, 65564, Note_off_c, 1, 60, 100
3, 65568, Note_on_c, 1, 65, 80
3, 65660, Note_off_c, 1, 65, 100
3, 65664, Note_on_c, 1, 59, 80
3, 65756, Note_off_c, 1, 59, 100
3, 65760, Note_on_c, 1, 60, 80
3, 65852, Note_off_c, 1, 60, 100
3, 65856, Note_on_c, 1, 62, 80
3, 65948, Note_off_c, 1, 62, 100
3, 65952, Note_on_c, 1, 60, 80
3, 66044, Note_off_c, 1, 60, 100
3, 66048, Note_on_c, 1, 56, 80
3, 66140, Note_off_c, 1, 56, 100
3, 66144, Note_on_c, 1, 57, 80
3, 66236, Note_off_c, 1, 57, 100
3, 66240, Note_on_c, 1, 58, 80
3, 66332, Note_off_c, 1, 58, 100
3, 66336, Note_on_c, 1, 57, 80
3, 66428, Note_off_c, 1, 57, 100
3, 66432, Note_on_c, 1, 58, 80
3, 66524, Note_off_c, 1, 58, 100
3, 66528, Note_on_c, 1, 57, 80
3, 66620, Note_off_c, 1, 57, 100
3, 66624, Note_on_c, 1, 55, 80
3, 66716, Note_off_c, 1, 55, 100
3, 66720, Note_on_c, 1, 53, 80
3, 66812, Note_off_c, 1, 53, 100
3, 66816, Note_on_c, 1, 51, 80
3, 66908, Note_off_c, 1, 51, 100
3, 66912, Note_on_c, 1, 53, 80
3, 67004, Note_off_c, 1, 53, 100
3, 67008, Note_on_c, 1, 55, 80
3, 67100, Note_off_c, 1, 55, 100
3, 67104, Note_on_c, 1, 51, 80
3, 67196, Note_off_c, 1, 51, 100
3, 67200, Note_on_c, 1, 50, 80
3, 67292, Note_off_c, 1, 50, 100
3, 67296, Note_on_c, 1, 49, 80
3, 67388, Note_off_c, 1, 49, 100
3, 67392, Note_on_c, 1, 48, 80
3, 67484, Note_off_c, 1, 48, 100
3, 67488, Note_on_c, 1, 49, 80
3, 67580, Note_off_c, 1, 49, 100
3, 67584, Note_on_c, 1, 50, 80
3, 67676, Note_off_c, 1, 50, 100
3, 67680, Note_on_c, 1, 52, 80
3, 67772, Note_off_c, 1, 52, 100
3, 67776, Note_on_c, 1, 53, 80
3, 67868, Note_off_c, 1, 53, 100
3, 67872, Note_on_c, 1, 54, 80
3, 67964, Note_off_c, 1, 54, 100
3, 67968, Note_on_c, 1, 55, 80
3, 68060, Note_off_c, 1, 55, 100
3, 68064, Note_on_c, 1, 57, 80
3, 68156, Note_off_c, 1, 57, 100
3, 68160, Note_on_c, 1, 58, 80
3, 68252, Note_off_c, 1, 58, 100
3, 68256, Note_on_c, 1, 59, 80
3, 68348, Note_off_c, 1, 59, 100
3, 68352, Note_on_c, 1, 48, 80
3, 68444, Note_off_c, 1, 48, 100
3, 68448, Note_on_c, 1, 52, 80
3, 68540, Note_off_c, 1, 52, 100
3, 68544, Note_on_c, 1, 55, 80
3, 68636, Note_off_c, 1, 55, 100
3, 68640, Note_on_c, 1, 60, 80
3, 68732, Note_off_c, 1, 60, 100
3, 68736, Note_on_c, 1, 53, 80
3, 68828, Note_off_c, 1, 53, 100
3, 68832, Note_on_c, 1, 55, 80
3, 68924, Note_off_c, 1, 55, 100
3, 68928, Note_on_c, 1, 56, 80
3, 69020, Note_off_c, 1, 56, 100
3, 69024, Note_on_c, 1, 57, 80
3, 69116, Note_off_c, 1, 57, 100
3, 69120, Note_on_c, 1, 46, 80
3, 69212, Note_off_c, 1, 46, 100
3, 69216, Note_on_c, 1, 50, 80
3, 69308, Note_off_c, 1, 50, 100
3, 69312, Note_on_c, 1, 53, 80
3, 69404, Note_off_c, 1, 53, 100
3, 69408, Note_on_c, 1, 58, 80
3, 69500, Note_off_c, 1, 58, 100
3, 69504, Note_on_c, 1, 51, 80
3, 69596, Note_off_c, 1, 51, 100
3, 69600, Note_on_c, 1, 55, 80
3, 69692, Note_off_c, 1, 55, 100
3, 69696, Note_on_c, 1, 58, 80
3, 69788, Note_off_c, 1, 58, 100
3, 69792, Note_on_c, 1, 60, 80
3, 69884, Note_off_c, 1, 60, 100
3, 69888, Note_on_c, 1, 55, 80
3, 69888, Note_on_c, 1, 58, 80
3, 69980, Note_off_c, 1, 55, 100
3, 69984, Note_on_c, 1, 51, 80
3, 70076, Note_off_c, 1, 58, 100
3, 70076, Note_off_c, 1, 51, 100
3, 70080, Note_on_c, 1, 55, 80
3, 70172, Note_off_c, 1, 55, 100
3, 70176, Note_on_c, 1, 51, 80
3, 70268, Note_off_c, 1, 51, 100
3, 70272, Note_on_c, 1, 76, 100
3, 70320, Note_on_c, 1, 77, 100
3, 70364, Note_off_c, 1, 76, 100
3, 70368, Note_on_c, 1, 76, 99
3, 70412, Note_off_c, 1, 77, 100
3, 70416, Note_on_c, 1, 77, 99
3, 70460, Note_off_c, 1, 76, 100
3, 70464, Note_on_c, 1, 76, 98
3, 70508, Note_off_c, 1, 77, 100
3, 70512, Note_on_c, 1, 77, 97
3, 70556, Note_off_c, 1, 76, 100
3, 70560, Note_on_c, 1, 76, 97
3, 70604, Note_off_c, 1, 77, 100
3, 70608, Note_on_c, 1, 77, 96
3, 70652, Note_off_c, 1, 76, 100
3, 70656, Note_on_c, 1, 76, 96
3, 70700, Note_off_c, 1, 77, 100
3, 70704, Note_on_c, 1, 77, 95
3, 70748, Note_off_c, 1, 76, 100
3, 70752, Note_on_c, 1, 76, 94
3, 70796, Note_off_c, 1, 77, 100
3, 70800, Note_on_c, 1, 77, 94
3, 70844, Note_off_c, 1, 76, 100
3, 70848, Note_on_c, 1, 76, 93
3, 70892, Note_off_c, 1, 77, 100
3, 70896, Note_on_c, 1, 77, 92
3, 70940, Note_off_c, 1, 76, 100
3, 70944, Note_on_c, 1, 74, 92
3, 70988, Note_off_c, 1, 77, 100
3, 70992, Note_on_c, 1, 76, 91
3, 71036, Note_off_c, 1, 74, 100
3, 71036, Note_off_c, 1, 76, 100
3, 71040, Note_on_c, 1, 77, 91
3, 71040, Note_on_c, 1, 41, 91
3, 71228, Note_off_c, 1, 41, 100
3, 71420, Note_off_c, 1, 77, 100
3, 71424, Note_on_c, 1, 57, 100
3, 71472, Note_on_c, 1, 58, 100
3, 71516, Note_off_c, 1, 57, 100
3, 71520, Note_on_c, 1, 57, 100
3, 71564, Note_off_c, 1, 58, 100
3, 71568, Note_on_c, 1, 58, 100
3, 71612, Note_off_c, 1, 57, 100
3, 71616, Note_on_c, 1, 57, 100
3, 71660, Note_off_c, 1, 58, 100
3, 71664, Note_on_c, 1, 58, 100
3, 71708, Note_off_c, 1, 57, 100
3, 71712, Note_on_c, 1, 57, 100
3, 71756, Note_off_c, 1, 58, 100
3, 71760, Note_on_c, 1, 58, 100
3, 71804, Note_off_c, 1, 57, 100
3, 71808, Note_on_c, 1, 57, 100
3, 71852, Note_off_c, 1, 58, 100
3, 71856, Note_on_c, 1, 58, 100
3, 71900, Note_off_c, 1, 57, 100
3, 71904, Note_on_c, 1, 57, 100
3, 71948, Note_off_c, 1, 58, 100
3, 71952, Note_on_c, 1, 58, 100
3, 71996, Note_off_c, 1, 57, 100
3, 72000, Note_on_c, 1, 57, 100
3, 72044, Note_off_c, 1, 58, 100
3, 72048, Note_on_c, 1, 58, 100
3, 72092, Note_off_c, 1, 57, 100
3, 72096, Note_on_c, 1, 55, 100
3, 72140, Note_off_c, 1, 58, 100
3, 72144, Note_on_c, 1, 57, 100
3, 72188, Note_off_c, 1, 55, 100
3, 72188, Note_off_c, 1, 57, 100
3, 72192, Note_on_c, 1, 58, 100
3, 72192, Note_on_c, 1, 62, 100
3, 72380, Note_off_c, 1, 62, 100
3, 72572, Note_off_c, 1, 58, 100
3, 72576, Note_on_c, 1, 78, 100
3, 72624, Note_on_c, 1, 79, 100
3, 72668, Note_off_c, 1, 78, 100
3, 72672, Note_on_c, 1, 78, 100
3, 72716, Note_off_c, 1, 79, 100
3, 72720, Note_on_c, 1, 79, 100
3, 72764, Note_off_c, 1, 78, 100
3, 72768, Note_on_c, 1, 78, 100
3, 72812, Note_off_c, 1, 79, 100
3, 72816, Note_on_c, 1, 79, 100
3, 72860, Note_off_c, 1, 78, 100
3, 72864, Note_on_c, 1, 78, 100
3, 72908, Note_off_c, 1, 79, 100
3, 72912, Note_on_c, 1, 79, 100
3, 72956, Note_off_c, 1, 78, 100
3, 72960, Note_on_c, 1, 78, 100
3, 73004, Note_off_c, 1, 79, 100
3, 73008, Note_on_c, 1, 79, 100
3, 73052, Note_off_c, 1, 78, 100
3, 73056, Note_on_c, 1, 78, 100
3, 73100, Note_off_c, 1, 79, 100
3, 73104, Note_on_c, 1, 79, 100
3, 73148, Note_off_c, 1, 78, 100
3, 73152, Note_on_c, 1, 78, 100
3, 73192, Note_off_c, 1, 79, 100
3, 73200, Note_on_c, 1, 79, 100
3, 73244, Note_off_c, 1, 78, 100
3, 73248, Note_on_c, 1, 76, 100
3, 73292, Note_off_c, 1, 79, 100
3, 73296, Note_on_c, 1, 78, 100
3, 73340, Note_off_c, 1, 76, 100
3, 73340, Note_off_c, 1, 78, 100
3, 73344, Note_on_c, 1, 79, 100
3, 73344, Note_on_c, 1, 43, 100
3, 73532, Note_off_c, 1, 43, 100
3, 73724, Note_off_c, 1, 79, 100
3, 73728, Note_on_c, 1, 59, 100
3, 73776, Note_on_c, 1, 60, 100
3, 73820, Note_off_c, 1, 59, 100
3, 73824, Note_on_c, 1, 59, 100
3, 73868, Note_off_c, 1, 60, 100
3, 73872, Note_on_c, 1, 60, 100
3, 73916, Note_off_c, 1, 59, 100
3, 73920, Note_on_c, 1, 59, 100
3, 73964, Note_off_c, 1, 60, 100
3, 73968, Note_on_c, 1, 60, 100
3, 74012, Note_off_c, 1, 59, 100
3, 74016, Note_on_c, 1, 59, 100
3, 74060, Note_off_c, 1, 60, 100
3, 74064, Note_on_c, 1, 60, 100
3, 74108, Note_off_c, 1, 59, 100
3, 74112, Note_on_c, 1, 59, 100
3, 74156, Note_off_c, 1, 60, 100
3, 74160, Note_on_c, 1, 60, 100
3, 74204, Note_off_c, 1, 59, 100
3, 74208, Note_on_c, 1, 59, 100
3, 74252, Note_off_c, 1, 60, 100
3, 74256, Note_on_c, 1, 60, 100
3, 74300, Note_off_c, 1, 59, 100
3, 74304, Note_on_c, 1, 59, 100
3, 74348, Note_off_c, 1, 60, 100
3, 74352, Note_on_c, 1, 60, 100
3, 74396, Note_off_c, 1, 59, 100
3, 74400, Note_on_c, 1, 57, 100
3, 74444, Note_off_c, 1, 60, 100
3, 74448, Note_on_c, 1, 59, 100
3, 74492, Note_off_c, 1, 57, 100
3, 74492, Note_off_c, 1, 59, 100
3, 74496, Note_on_c, 1, 60, 100
3, 74684, Note_off_c, 1, 60, 100
3, 74688, Note_on_c, 1, 44, 100
3, 74876, Note_off_c, 1, 44, 100
3, 74880, Note_on_c, 1, 60, 100
3, 74928, Note_on_c, 1, 61, 100
3, 74972, Note_off_c, 1, 60, 100
3, 74976, Note_on_c, 1, 60, 100
3, 75020, Note_off_c, 1, 61, 100
3, 75024, Note_on_c, 1, 61, 100
3, 75068, Note_off_c, 1, 60, 100
3, 75072, Note_on_c, 1, 60, 100
3, 75116, Note_off_c, 1, 61, 100
3, 75120, Note_on_c, 1, 61, 100
3, 75164, Note_off_c, 1, 60, 100
3, 75168, Note_on_c, 1, 60, 100
3, 75212, Note_off_c, 1, 61, 100
3, 75216, Note_on_c, 1, 61, 100
3, 75260, Note_off_c, 1, 60, 100
3, 75264, Note_on_c, 1, 60, 100
3, 75308, Note_off_c, 1, 61, 100
3, 75312, Note_on_c, 1, 61, 100
3, 75356, Note_off_c, 1, 60, 100
3, 75360, Note_on_c, 1, 60, 100
3, 75404, Note_off_c, 1, 61, 100
3, 75408, Note_on_c, 1, 61, 100
3, 75452, Note_off_c, 1, 60, 100
3, 75456, Note_on_c, 1, 60, 100
3, 75500, Note_off_c, 1, 61, 100
3, 75504, Note_on_c, 1, 61, 100
3, 75548, Note_off_c, 1, 60, 100
3, 75552, Note_on_c, 1, 58, 100
3, 75576, Note_on_c, 1, 60, 100
3, 75596, Note_off_c, 1, 61, 100
3, 75620, Note_off_c, 1, 60, 100
3, 75644, Note_off_c, 1, 58, 100
3, 75648, Note_on_c, 1, 61, 100
3, 76028, Note_off_c, 1, 61, 100
3, 76032, Key_signature, -4, "major"
3, 76224, Note_on_c, 1, 61, 80
3, 76316, Note_off_c, 1, 61, 100
3, 76320, Note_on_c, 1, 60, 80
3, 76412, Note_off_c, 1, 60, 100
3, 76416, Note_on_c, 1, 58, 80
3, 76508, Note_off_c, 1, 58, 100
3, 76512, Note_on_c, 1, 56, 80
3, 76604, Note_off_c, 1, 56, 100
3, 76608, Note_on_c, 1, 54, 80
3, 76700, Note_off_c, 1, 54, 100
3, 76704, Note_on_c, 1, 53, 80
3, 76796, Note_off_c, 1, 53, 100
3, 76800, Note_on_c, 1, 58, 80
3, 77180, Note_off_c, 1, 58, 100
3, 77376, Note_on_c, 1, 58, 80
3, 77468, Note_off_c, 1, 58, 100
3, 77472, Note_on_c, 1, 56, 80
3, 77564, Note_off_c, 1, 56, 100
3, 77568, Note_on_c, 1, 54, 80
3, 77660, Note_off_c, 1, 54, 100
3, 77664, Note_on_c, 1, 53, 80
3, 77756, Note_off_c, 1, 53, 100
3, 77760, Note_on_c, 1, 51, 80
3, 77852, Note_off_c, 1, 51, 100
3, 77856, Note_on_c, 1, 49, 80
3, 77948, Note_off_c, 1, 49, 100
3, 77952, Note_on_c, 1, 54, 80
3, 78332, Note_off_c, 1, 54, 100
3, 78528, Note_on_c, 1, 54, 80
3, 78620, Note_off_c, 1, 54, 100
3, 78624, Note_on_c, 1, 53, 80
3, 78716, Note_off_c, 1, 53, 100
3, 78720, Note_on_c, 1, 51, 80
3, 78812, Note_off_c, 1, 51, 100
3, 78816, Note_on_c, 1, 53, 80
3, 78908, Note_off_c, 1, 53, 100
3, 78912, Note_on_c, 1, 51, 80
3, 79004, Note_off_c, 1, 51, 100
3, 79008, Note_on_c, 1, 49, 80
3, 79100, Note_off_c, 1, 49, 100
3, 79104, Note_on_c, 1, 48, 80
3, 79196, Note_off_c, 1, 48, 100
3, 79200, Note_on_c, 1, 49, 80
3, 79292, Note_off_c, 1, 49, 100
3, 79296, Note_on_c, 1, 48, 80
3, 79388, Note_off_c, 1, 48, 100
3, 79392, Note_on_c, 1, 46, 80
3, 79484, Note_off_c, 1, 46, 100
3, 79488, Note_on_c, 1, 44, 80
3, 79580, Note_off_c, 1, 44, 100
3, 79584, Note_on_c, 1, 46, 80
3, 79676, Note_off_c, 1, 46, 100
3, 79680, Note_on_c, 1, 48, 80
3, 79772, Note_off_c, 1, 48, 100
3, 79776, Note_on_c, 1, 49, 80
3, 79868, Note_off_c, 1, 49, 100
3, 79872, Note_on_c, 1, 50, 80
3, 79964, Note_off_c, 1, 50, 100
3, 79968, Note_on_c, 1, 51, 80
3, 80060, Note_off_c, 1, 51, 100
3, 80064, Note_on_c, 1, 53, 80
3, 80156, Note_off_c, 1, 53, 100
3, 80160, Note_on_c, 1, 51, 80
3, 80252, Note_off_c, 1, 51, 100
3, 80256, Note_on_c, 1, 49, 80
3, 80348, Note_off_c, 1, 49, 100
3, 80352, Note_on_c, 1, 51, 80
3, 80444, Note_off_c, 1, 51, 100
3, 80448, Note_on_c, 1, 53, 80
3, 80540, Note_off_c, 1, 53, 100
3, 80544, Note_on_c, 1, 54, 80
3, 80636, Note_off_c, 1, 54, 100
3, 80640, Note_on_c, 1, 55, 80
3, 80732, Note_off_c, 1, 55, 100
3, 80736, Note_on_c, 1, 56, 80
3, 80828, Note_off_c, 1, 56, 100
3, 80832, Note_on_c, 1, 58, 80
3, 80924, Note_off_c, 1, 58, 100
3, 80928, Note_on_c, 1, 56, 80
3, 81020, Note_off_c, 1, 56, 100
3, 81024, Note_on_c, 1, 54, 80
3, 81116, Note_off_c, 1, 54, 100
3, 81120, Note_on_c, 1, 53, 80
3, 81212, Note_off_c, 1, 53, 100
3, 81216, Note_on_c, 1, 51, 80
3, 81308, Note_off_c, 1, 51, 100
3, 81312, Note_on_c, 1, 49, 80
3, 81404, Note_off_c, 1, 49, 100
3, 81408, Note_on_c, 1, 44, 80
3, 81596, Note_off_c, 1, 44, 100
3, 81792, Note_on_c, 1, 51, 101
3, 81792, Note_on_c, 1, 42, 101
3, 82364, Note_off_c, 1, 51, 100
3, 82364, Note_off_c, 1, 42, 100
3, 82368, Note_on_c, 1, 51, 80
3, 82368, Note_on_c, 1, 42, 80
3, 82556, Note_off_c, 1, 51, 100
3, 82556, Note_off_c, 1, 42, 100
3, 82560, Note_on_c, 1, 51, 80
3, 82560, Note_on_c, 1, 42, 80
3, 82748, Note_off_c, 1, 51, 100
3, 82748, Note_off_c, 1, 42, 100
3, 82752, Note_on_c, 1, 49, 80
3, 82752, Note_on_c, 1, 41, 80
3, 82940, Note_off_c, 1, 49, 100
3, 82940, Note_off_c, 1, 41, 100
3, 82944, Note_on_c, 1, 48, 80
3, 82944, Note_on_c, 1, 39, 80
3, 83132, Note_off_c, 1, 48, 100
3, 83132, Note_off_c, 1, 39, 100
3, 83136, Note_on_c, 1, 49, 80
3, 83136, Note_on_c, 1, 37, 80
3, 83324, Note_off_c, 1, 49, 100
3, 83324, Note_off_c, 1, 37, 100
3, 83328, Note_on_c, 1, 51, 80
3, 83328, Note_on_c, 1, 48, 80
3, 83516, Note_off_c, 1, 51, 100
3, 83516, Note_off_c, 1, 48, 100
3, 83520, Note_on_c, 1, 53, 80
3, 83520, Note_on_c, 1, 49, 80
3, 83708, Note_off_c, 1, 53, 100
3, 83708, Note_off_c, 1, 49, 100
3, 83712, Note_on_c, 1, 60, 80
3, 83804, Note_off_c, 1, 60, 100
3, 83808, Note_on_c, 1, 61, 80
3, 83900, Note_off_c, 1, 61, 100
3, 83904, Note_on_c, 1, 60, 80
3, 83996, Note_off_c, 1, 60, 100
3, 84000, Note_on_c, 1, 58, 80
3, 84092, Note_off_c, 1, 58, 100
3, 84864, Note_on_c, 1, 49, 80
3, 84864, Note_on_c, 1, 37, 80
3, 85052, Note_off_c, 1, 49, 100
3, 85052, Note_off_c, 1, 37, 100
3, 85248, Note_on_c, 1, 48, 100
3, 85248, Note_on_c, 1, 36, 102
3, 85820, Note_off_c, 1, 48, 100
3, 85820, Note_off_c, 1, 36, 100
3, 85824, Note_on_c, 1, 46, 80
3, 85824, Note_on_c, 1, 34, 80
3, 86012, Note_off_c, 1, 46, 100
3, 86012, Note_off_c, 1, 34, 100
3, 86016, Note_on_c, 1, 51, 80
3, 86016, Note_on_c, 1, 39, 80
3, 86396, Note_off_c, 1, 51, 100
3, 86396, Note_off_c, 1, 39, 100
3, 87168, Note_on_c, 1, 43, 80
3, 87168, Note_on_c, 1, 55, 80
3, 87356, Note_off_c, 1, 43, 100
3, 87356, Note_off_c, 1, 55, 100
3, 87552, Note_on_c, 1, 53, 100
3, 87552, Note_on_c, 1, 41, 102
3, 88124, Note_off_c, 1, 53, 100
3, 88124, Note_off_c, 1, 41, 100
3, 88128, Note_on_c, 1, 51, 80
3, 88128, Note_on_c, 1, 39, 80
3, 88316, Note_off_c, 1, 51, 100
3, 88316, Note_off_c, 1, 39, 100
3, 88320, Note_on_c, 1, 56, 80
3, 88320, Note_on_c, 1, 44, 80
3, 88700, Note_off_c, 1, 56, 100
3, 88700, Note_off_c, 1, 44, 100
3, 89088, Note_on_c, 1, 55, 80
3, 89088, Note_on_c, 1, 43, 80
3, 89276, Note_off_c, 1, 55, 100
3, 89276, Note_off_c, 1, 43, 100
3, 89472, Note_on_c, 1, 43, 80
3, 89472, Note_on_c, 1, 55, 80
3, 89660, Note_off_c, 1, 43, 100
3, 89660, Note_off_c, 1, 55, 100
3, 89664, Note_on_c, 1, 53, 80
3, 89664, Note_on_c, 1, 41, 80
3, 89852, Note_off_c, 1, 53, 100
3, 89852, Note_off_c, 1, 41, 100
3, 90240, Note_on_c, 1, 63, 80
3, 90240, Note_on_c, 1, 51, 80
3, 90428, Note_off_c, 1, 63, 100
3, 90428, Note_off_c, 1, 51, 100
3, 90624, Note_on_c, 1, 63, 80
3, 90624, Note_on_c, 1, 72, 80
3, 90716, Note_off_c, 1, 72, 100
3, 90720, Note_on_c, 1, 70, 80
3, 90812, Note_off_c, 1, 63, 100
3, 90812, Note_off_c, 1, 70, 100
3, 90816, Note_on_c, 1, 61, 80
3, 90816, Note_on_c, 1, 69, 80
3, 90908, Note_off_c, 1, 69, 100
3, 90912, Note_on_c, 1, 70, 80
3, 91004, Note_off_c, 1, 61, 100
3, 91004, Note_off_c, 1, 70, 100
3, 91008, Note_on_c, 1, 70, 80
3, 91008, Note_on_c, 1, 61, 80
3, 91100, Note_off_c, 1, 70, 100
3, 91104, Note_on_c, 1, 68, 80
3, 91196, Note_off_c, 1, 61, 100
3, 91196, Note_off_c, 1, 68, 100
3, 91200, Note_on_c, 1, 67, 80
3, 91200, Note_on_c, 1, 60, 80
3, 91292, Note_off_c, 1, 67, 100
3, 91296, Note_on_c, 1, 68, 80
3, 91388, Note_off_c, 1, 60, 100
3, 91388, Note_off_c, 1, 68, 100
3, 91584, Note_on_c, 1, 48, 80
3, 91772, Note_off_c, 1, 48, 100
3, 91776, Note_on_c, 1, 60, 100
3, 91968, Note_on_c, 1, 67, 80
3, 92156, Note_off_c, 1, 60, 100
3, 92156, Note_off_c, 1, 67, 100
3, 92160, Note_on_c, 1, 68, 80
3, 92540, Note_off_c, 1, 68, 100
3, 92736, Note_on_c, 1, 44, 80
3, 92924, Note_off_c, 1, 44, 100
3, 92928, Note_on_c, 1, 56, 100
3, 93120, Note_on_c, 1, 64, 80
3, 93308, Note_off_c, 1, 56, 100
3, 93308, Note_off_c, 1, 64, 100
3, 93312, Note_on_c, 1, 65, 80
3, 93692, Note_off_c, 1, 65, 100
3, 93888, Note_on_c, 1, 41, 80
3, 94076, Note_off_c, 1, 41, 100
3, 94080, Note_on_c, 1, 53, 80
3, 94268, Note_off_c, 1, 53, 100
3, 94272, Note_on_c, 1, 57, 80
3, 94460, Note_off_c, 1, 57, 100
3, 94464, Note_on_c, 1, 58, 80
3, 94652, Note_off_c, 1, 58, 100
3, 94656, Note_on_c, 1, 62, 80
3, 94844, Note_off_c, 1, 62, 100
3, 94848, Note_on_c, 1, 63, 80
3, 95036, Note_off_c, 1, 63, 100
3, 95232, Note_on_c, 1, 61, 100
3, 95232, Note_on_c, 1, 58, 101
3, 95804, Note_off_c, 1, 58, 100
3, 95804, Note_off_c, 1, 61, 100
3, 95808, Note_on_c, 1, 61, 80
3, 95808, Note_on_c, 1, 58, 80
3, 95996, Note_off_c, 1, 61, 100
3, 95996, Note_off_c, 1, 58, 100
3, 96000, Note_on_c, 1, 61, 80
3, 96000, Note_on_c, 1, 58, 80
3, 96188, Note_off_c, 1, 61, 100
3, 96188, Note_off_c, 1, 58, 100
3, 96192, Note_on_c, 1, 60, 80
3, 96192, Note_on_c, 1, 56, 80
3, 96380, Note_off_c, 1, 60, 100
3, 96380, Note_off_c, 1, 56, 100
3, 96384, Note_on_c, 1, 58, 80
3, 96384, Note_on_c, 1, 49, 80
3, 96572, Note_off_c, 1, 58, 100
3, 96572, Note_off_c, 1, 49, 100
3, 96576, Note_on_c, 1, 56, 80
3, 96576, Note_on_c, 1, 48, 80
3, 96764, Note_off_c, 1, 56, 100
3, 96764, Note_off_c, 1, 48, 100
3, 96768, Note_on_c, 1, 55, 80
3, 96768, Note_on_c, 1, 46, 80
3, 96956, Note_off_c, 1, 55, 100
3, 96956, Note_off_c, 1, 46, 100
3, 96960, Note_on_c, 1, 56, 80
3, 96960, Note_on_c, 1, 48, 80
3, 97148, Note_off_c, 1, 56, 100
3, 97148, Note_off_c, 1, 48, 100
3, 97152, Note_on_c, 1, 43, 80
3, 97244, Note_off_c, 1, 43, 100
3, 97248, Note_on_c, 1, 44, 80
3, 97340, Note_off_c, 1, 44, 100
3, 97344, Note_on_c, 1, 43, 80
3, 97436, Note_off_c, 1, 43, 100
3, 97440, Note_on_c, 1, 41, 80
3, 97532, Note_off_c, 1, 41, 100
3, 97536, Note_on_c, 1, 39, 80
3, 97628, Note_off_c, 1, 39, 100
3, 97632, Note_on_c, 1, 41, 80
3, 97724, Note_off_c, 1, 41, 100
3, 97728, Note_on_c, 1, 43, 80
3, 97820, Note_off_c, 1, 43, 100
3, 97824, Note_on_c, 1, 44, 80
3, 97916, Note_off_c, 1, 44, 100
3, 97920, Note_on_c, 1, 45, 80
3, 98012, Note_off_c, 1, 45, 100
3, 98016, Note_on_c, 1, 46, 80
3, 98108, Note_off_c, 1, 46, 100
3, 98112, Note_on_c, 1, 48, 80
3, 98204, Note_off_c, 1, 48, 100
3, 98208, Note_on_c, 1, 46, 80
3, 98300, Note_off_c, 1, 46, 100
3, 98304, Note_on_c, 1, 43, 80
3, 98396, Note_off_c, 1, 43, 100
3, 98400, Note_on_c, 1, 44, 80
3, 98492, Note_off_c, 1, 44, 100
3, 98496, Note_on_c, 1, 46, 80
3, 98588, Note_off_c, 1, 46, 100
3, 98592, Note_on_c, 1, 48, 80
3, 98684, Note_off_c, 1, 48, 100
3, 98688, Note_on_c, 1, 49, 80
3, 98780, Note_off_c, 1, 49, 100
3, 98784, Note_on_c, 1, 51, 80
3, 98876, Note_off_c, 1, 51, 100
3, 98880, Note_on_c, 1, 53, 80
3, 98972, Note_off_c, 1, 53, 100
3, 98976, Note_on_c, 1, 51, 80
3, 99068, Note_off_c, 1, 51, 100
3, 99072, Note_on_c, 1, 49, 80
3, 99164, Note_off_c, 1, 49, 100
3, 99168, Note_on_c, 1, 48, 80
3, 99260, Note_off_c, 1, 48, 100
3, 99264, Note_on_c, 1, 46, 80
3, 99356, Note_off_c, 1, 46, 100
3, 99360, Note_on_c, 1, 44, 80
3, 99452, Note_off_c, 1, 44, 100
3, 99456, Note_on_c, 1, 63, 101
3, 99456, Note_on_c, 1, 54, 100
3, 99644, Note_off_c, 1, 63, 100
3, 99644, Note_off_c, 1, 54, 100
3, 99648, Note_on_c, 1, 61, 80
3, 99648, Note_on_c, 1, 53, 80
3, 99836, Note_off_c, 1, 61, 100
3, 99836, Note_off_c, 1, 53, 100
3, 99840, Note_on_c, 1, 60, 80
3, 99840, Note_on_c, 1, 51, 80
3, 100028, Note_off_c, 1, 60, 100
3, 100028, Note_off_c, 1, 51, 100
3, 100032, Note_on_c, 1, 58, 80
3, 100032, Note_on_c, 1, 49, 80
3, 100220, Note_off_c, 1, 58, 100
3, 100220, Note_off_c, 1, 49, 100
3, 100224, Note_on_c, 1, 56, 80
3, 100224, Note_on_c, 1, 48, 80
3, 100412, Note_off_c, 1, 56, 100
3, 100412, Note_off_c, 1, 48, 100
3, 100416, Note_on_c, 1, 58, 80
3, 100416, Note_on_c, 1, 49, 80
3, 100604, Note_off_c, 1, 58, 100
3, 100604, Note_off_c, 1, 49, 100
3, 100608, Note_on_c, 1, 45, 80
3, 100700, Note_off_c, 1, 45, 100
3, 100704, Note_on_c, 1, 46, 80
3, 100796, Note_off_c, 1, 46, 100
3, 100800, Note_on_c, 1, 48, 80
3, 100892, Note_off_c, 1, 48, 100
3, 100896, Note_on_c, 1, 49, 80
3, 100988, Note_off_c, 1, 49, 100
3, 100992, Note_on_c, 1, 51, 80
3, 101084, Note_off_c, 1, 51, 100
3, 101088, Note_on_c, 1, 53, 80
3, 101180, Note_off_c, 1, 53, 100
3, 101184, Note_on_c, 1, 54, 80
3, 101276, Note_off_c, 1, 54, 100
3, 101280, Note_on_c, 1, 53, 80
3, 101372, Note_off_c, 1, 53, 100
3, 101376, Note_on_c, 1, 51, 80
3, 101468, Note_off_c, 1, 51, 100
3, 101472, Note_on_c, 1, 49, 80
3, 101564, Note_off_c, 1, 49, 100
3, 101568, Note_on_c, 1, 48, 80
3, 101660, Note_off_c, 1, 48, 100
3, 101664, Note_on_c, 1, 46, 80
3, 101756, Note_off_c, 1, 46, 100
3, 101760, Note_on_c, 1, 50, 80
3, 101760, Note_on_c, 1, 44, 100
3, 101852, Note_off_c, 1, 50, 100
3, 101856, Note_on_c, 1, 51, 80
3, 101948, Note_off_c, 1, 44, 100
3, 101948, Note_off_c, 1, 51, 100
3, 101952, Note_on_c, 1, 53, 80
3, 101952, Note_on_c, 1, 43, 80
3, 102044, Note_off_c, 1, 53, 100
3, 102048, Note_on_c, 1, 55, 80
3, 102140, Note_off_c, 1, 43, 100
3, 102140, Note_off_c, 1, 55, 100
3, 102144, Note_on_c, 1, 56, 80
3, 102144, Note_on_c, 1, 41, 80
3, 102236, Note_off_c, 1, 56, 100
3, 102240, Note_on_c, 1, 58, 80
3, 102332, Note_off_c, 1, 41, 100
3, 102332, Note_off_c, 1, 58, 100
3, 102336, Note_on_c, 1, 59, 80
3, 102336, Note_on_c, 1, 39, 80
3, 102428, Note_off_c, 1, 59, 100
3, 102432, Note_on_c, 1, 58, 80
3, 102524, Note_off_c, 1, 39, 100
3, 102524, Note_off_c, 1, 58, 100
3, 102528, Note_on_c, 1, 56, 80
3, 102528, Note_on_c, 1, 37, 80
3, 102620, Note_off_c, 1, 56, 100
3, 102624, Note_on_c, 1, 55, 80
3, 102716, Note_off_c, 1, 37, 100
3, 102716, Note_off_c, 1, 55, 100
3, 102720, Note_on_c, 1, 53, 80
3, 102720, Note_on_c, 1, 39, 80
3, 102812, Note_off_c, 1, 53, 100
3, 102816, Note_on_c, 1, 51, 80
3, 102908, Note_off_c, 1, 39, 100
3, 102908, Note_off_c, 1, 51, 100
3, 102912, Note_on_c, 1, 52, 80
3, 102912, Note_on_c, 1, 46, 100
3, 103004, Note_off_c, 1, 52, 100
3, 103008, Note_on_c, 1, 53, 80
3, 103100, Note_off_c, 1, 46, 100
3, 103100, Note_off_c, 1, 53, 100
3, 103104, Note_on_c, 1, 55, 80
3, 103104, Note_on_c, 1, 44, 80
3, 103196, Note_off_c, 1, 55, 100
3, 103200, Note_on_c, 1, 56, 80
3, 103292, Note_off_c, 1, 44, 100
3, 103292, Note_off_c, 1, 56, 100
3, 103296, Note_on_c, 1, 58, 80
3, 103296, Note_on_c, 1, 43, 80
3, 103388, Note_off_c, 1, 58, 100
3, 103392, Note_on_c, 1, 60, 80
3, 103484, Note_off_c, 1, 43, 100
3, 103484, Note_off_c, 1, 60, 100
3, 103488, Note_on_c, 1, 61, 80
3, 103488, Note_on_c, 1, 41, 80
3, 103580, Note_off_c, 1, 61, 100
3, 103584, Note_on_c, 1, 60, 80
3, 103676, Note_off_c, 1, 41, 100
3, 103676, Note_off_c, 1, 60, 100
3, 103680, Note_on_c, 1, 58, 80
3, 103680, Note_on_c, 1, 39, 80
3, 103772, Note_off_c, 1, 58, 100
3, 103776, Note_on_c, 1, 56, 80
3, 103868, Note_off_c, 1, 39, 100
3, 103868, Note_off_c, 1, 56, 100
3, 103872, Note_on_c, 1, 55, 80
3, 103872, Note_on_c, 1, 41, 80
3, 103964, Note_off_c, 1, 55, 100
3, 103968, Note_on_c, 1, 53, 80
3, 104060, Note_off_c, 1, 41, 100
3, 104060, Note_off_c, 1, 53, 100
3, 104064, Note_on_c, 1, 53, 80
3, 104156, Note_off_c, 1, 53, 100
3, 104160, Note_on_c, 1, 54, 80
3, 104252, Note_off_c, 1, 54, 100
3, 104256, Note_on_c, 1, 56, 80
3, 104348, Note_off_c, 1, 56, 100
3, 104352, Note_on_c, 1, 58, 80
3, 104444, Note_off_c, 1, 58, 100
3, 104448, Note_on_c, 1, 59, 80
3, 104540, Note_off_c, 1, 59, 100
3, 104544, Note_on_c, 1, 61, 80
3, 104636, Note_off_c, 1, 61, 100
3, 104640, Note_on_c, 1, 63, 80
3, 104732, Note_off_c, 1, 63, 100
3, 104736, Note_on_c, 1, 61, 80
3, 104828, Note_off_c, 1, 61, 100
3, 104832, Note_on_c, 1, 59, 80
3, 104924, Note_off_c, 1, 59, 100
3, 104928, Note_on_c, 1, 58, 80
3, 105020, Note_off_c, 1, 58, 100
3, 105024, Note_on_c, 1, 56, 80
3, 105116, Note_off_c, 1, 56, 100
3, 105120, Note_on_c, 1, 54, 80
3, 105212, Note_off_c, 1, 54, 100
3, 105216, Note_on_c, 1, 43, 80
3, 105308, Note_off_c, 1, 43, 100
3, 105312, Note_on_c, 1, 44, 80
3, 105404, Note_off_c, 1, 44, 100
3, 105408, Note_on_c, 1, 46, 80
3, 105500, Note_off_c, 1, 46, 100
3, 105504, Note_on_c, 1, 47, 80
3, 105596, Note_off_c, 1, 47, 100
3, 105600, Note_on_c, 1, 49, 80
3, 105692, Note_off_c, 1, 49, 100
3, 105696, Note_on_c, 1, 51, 80
3, 105788, Note_off_c, 1, 51, 100
3, 105792, Note_on_c, 1, 52, 80
3, 105884, Note_off_c, 1, 52, 100
3, 105888, Note_on_c, 1, 51, 80
3, 105980, Note_off_c, 1, 51, 100
3, 105984, Note_on_c, 1, 49, 80
3, 106076, Note_off_c, 1, 49, 100
3, 106080, Note_on_c, 1, 47, 81
3, 106172, Note_off_c, 1, 47, 100
3, 106176, Note_on_c, 1, 46, 83
3, 106268, Note_off_c, 1, 46, 100
3, 106272, Note_on_c, 1, 44, 85
3, 106364, Note_off_c, 1, 44, 100
3, 106368, Note_on_c, 1, 42, 87
3, 106460, Note_off_c, 1, 42, 100
3, 106464, Note_on_c, 1, 40, 89
3, 106556, Note_off_c, 1, 40, 100
3, 106560, Note_on_c, 1, 39, 91
3, 106652, Note_off_c, 1, 39, 100
3, 106656, Note_on_c, 1, 38, 93
3, 106748, Note_off_c, 1, 38, 100
3, 106752, Note_on_c, 1, 39, 95
3, 106844, Note_off_c, 1, 39, 100
3, 106848, Note_on_c, 1, 43, 97
3, 106940, Note_off_c, 1, 43, 100
3, 106944, Note_on_c, 1, 46, 99
3, 107036, Note_off_c, 1, 46, 100
3, 107040, Note_on_c, 1, 51, 100
3, 107132, Note_off_c, 1, 51, 100
3, 107136, Note_on_c, 1, 55, 110
3, 107136, Note_on_c, 1, 43, 110
3, 107184, Note_on_c, 1, 56, 110
3, 107228, Note_off_c, 1, 55, 100
3, 107232, Note_on_c, 1, 55, 110
3, 107276, Note_off_c, 1, 56, 100
3, 107280, Note_on_c, 1, 56, 110
3, 107324, Note_off_c, 1, 55, 100
3, 107328, Note_on_c, 1, 55, 110
3, 107372, Note_off_c, 1, 56, 100
3, 107376, Note_on_c, 1, 56, 110
3, 107420, Note_off_c, 1, 55, 100
3, 107424, Note_on_c, 1, 55, 110
3, 107468, Note_off_c, 1, 56, 100
3, 107472, Note_on_c, 1, 56, 110
3, 107516, Note_off_c, 1, 55, 100
3, 107520, Note_on_c, 1, 55, 110
3, 107564, Note_off_c, 1, 56, 100
3, 107568, Note_on_c, 1, 56, 110
3, 107612, Note_off_c, 1, 55, 100
3, 107616, Note_on_c, 1, 55, 110
3, 107660, Note_off_c, 1, 56, 100
3, 107664, Note_on_c, 1, 56, 110
3, 107708, Note_off_c, 1, 55, 100
3, 107712, Note_on_c, 1, 55, 110
3, 107756, Note_off_c, 1, 56, 100
3, 107760, Note_on_c, 1, 56, 110
3, 107804, Note_off_c, 1, 55, 100
3, 107808, Note_on_c, 1, 53, 110
3, 107852, Note_off_c, 1, 56, 100
3, 107856, Note_on_c, 1, 55, 110
3, 107900, Note_off_c, 1, 43, 100
3, 107900, Note_off_c, 1, 53, 100
3, 107900, Note_off_c, 1, 55, 100
3, 107904, Note_on_c, 1, 56, 110
3, 107904, Note_on_c, 1, 44, 110
3, 108668, Note_off_c, 1, 44, 100
3, 108668, Note_off_c, 1, 56, 100
3, 108672, Note_on_c, 1, 51, 110
3, 108672, Note_on_c, 1, 39, 110
3, 109052, Note_off_c, 1, 51, 100
3, 109052, Note_off_c, 1, 39, 100
3, 109056, Note_on_c, 1, 49, 110
3, 109056, Note_on_c, 1, 37, 110
3, 109436, Note_off_c, 1, 49, 100
3, 109436, Note_off_c, 1, 37, 100
3, 109440, Note_on_c, 1, 53, 110
3, 109440, Note_on_c, 1, 41, 110
3, 109488, Note_on_c, 1, 54, 110
3, 109532, Note_off_c, 1, 53, 100
3, 109536, Note_on_c, 1, 53, 110
3, 109580, Note_off_c, 1, 54, 100
3, 109584, Note_on_c, 1, 54, 110
3, 109628, Note_off_c, 1, 53, 100
3, 109632, Note_on_c, 1, 53, 110
3, 109676, Note_off_c, 1, 54, 100
3, 109680, Note_on_c, 1, 54, 110
3, 109724, Note_off_c, 1, 53, 100
3, 109728, Note_on_c, 1, 53, 110
3, 109772, Note_off_c, 1, 54, 100
3, 109776, Note_on_c, 1, 54, 110
3, 109820, Note_off_c, 1, 53, 100
3, 109824, Note_on_c, 1, 53, 110
3, 109868, Note_off_c, 1, 54, 100
3, 109872, Note_on_c, 1, 54, 110
3, 109916, Note_off_c, 1, 53, 100
3, 109920, Note_on_c, 1, 53, 110
3, 109964, Note_off_c, 1, 54, 100
3, 109968, Note_on_c, 1, 54, 110
3, 110012, Note_off_c, 1, 53, 100
3, 110016, Note_on_c, 1, 53, 110
3, 110060, Note_off_c, 1, 54, 100
3, 110064, Note_on_c, 1, 54, 110
3, 110108, Note_off_c, 1, 53, 100
3, 110112, Note_on_c, 1, 51, 110
3, 110156, Note_off_c, 1, 54, 100
3, 110160, Note_on_c, 1, 53, 110
3, 110204, Note_off_c, 1, 41, 100
3, 110204, Note_off_c, 1, 51, 100
3, 110204, Note_off_c, 1, 53, 100
3, 110208, Note_on_c, 1, 54, 110
3, 110208, Note_on_c, 1, 42, 110
3, 110588, Note_off_c, 1, 54, 100
3, 110588, Note_off_c, 1, 42, 100
3, 110592, Note_on_c, 1, 49, 110
3, 110592, Note_on_c, 1, 37, 110
3, 110972, Note_off_c, 1, 49, 100
3, 110972, Note_off_c, 1, 37, 100
3, 110976, Note_on_c, 1, 51, 110
3, 110976, Note_on_c, 1, 39, 110
3, 111356, Note_off_c, 1, 51, 100
3, 111356, Note_off_c, 1, 39, 100
3, 111360, Note_on_c, 1, 47, 110
3, 111360, Note_on_c, 1, 35, 110
3, 111932, Note_off_c, 1, 35, 100
3, 111932, Note_off_c, 1, 47, 100
3, 111936, Note_on_c, 1, 46, 105
3, 111936, Note_on_c, 1, 34, 105
3, 112124, Note_off_c, 1, 46, 100
3, 112124, Note_off_c, 1, 34, 100
3, 112128, Note_on_c, 1, 44, 100
3, 112128, Note_on_c, 1, 32, 100
3, 112316, Note_off_c, 1, 44, 100
3, 112316, Note_off_c, 1, 32, 100
3, 112320, Note_on_c, 1, 46, 94
3, 112320, Note_on_c, 1, 34, 94
3, 112508, Note_off_c, 1, 46, 100
3, 112508, Note_off_c, 1, 34, 100
3, 112512, Note_on_c, 1, 47, 89
3, 112512, Note_on_c, 1, 35, 89
3, 112700, Note_off_c, 1, 47, 100
3, 112700, Note_off_c, 1, 35, 100
3, 112704, Note_on_c, 1, 49, 83
3, 112704, Note_on_c, 1, 37, 83
3, 112892, Note_off_c, 1, 49, 100
3, 112892, Note_off_c, 1, 37, 100
3, 112896, Key_signature, -6, "major"
3, 112896, Note_on_c, 1, 42, 80
3, 112896, Note_on_c, 1, 30, 80
3, 113276, Note_off_c, 1, 42, 100
3, 113276, Note_off_c, 1, 30, 100
3, 113760, Note_on_c, 1, 49, 80
3, 113852, Note_off_c, 1, 49, 100
3, 113856, Note_on_c, 1, 51, 80
3, 113948, Note_off_c, 1, 51, 100
3, 113952, Note_on_c, 1, 53, 80
3, 114044, Note_off_c, 1, 53, 100
3, 114048, Note_on_c, 1, 54, 80
3, 114140, Note_off_c, 1, 54, 100
3, 114144, Note_on_c, 1, 46, 80
3, 114236, Note_off_c, 1, 46, 100
3, 114240, Note_on_c, 1, 49, 80
3, 114332, Note_off_c, 1, 49, 100
3, 114336, Note_on_c, 1, 54, 80
3, 114428, Note_off_c, 1, 54, 100
3, 114432, Note_on_c, 1, 58, 80
3, 114620, Note_off_c, 1, 58, 100
3, 114624, Note_on_c, 1, 59, 80
3, 114812, Note_off_c, 1, 59, 100
3, 114816, Note_on_c, 1, 61, 80
3, 115196, Note_off_c, 1, 61, 100
3, 116064, Note_on_c, 1, 56, 90
3, 116156, Note_off_c, 1, 56, 100
3, 116160, Note_on_c, 1, 58, 92
3, 116252, Note_off_c, 1, 58, 100
3, 116256, Note_on_c, 1, 60, 93
3, 116348, Note_off_c, 1, 60, 100
3, 116352, Note_on_c, 1, 61, 94
3, 116444, Note_off_c, 1, 61, 100
3, 116448, Note_on_c, 1, 53, 96
3, 116540, Note_off_c, 1, 53, 100
3, 116544, Note_on_c, 1, 56, 97
3, 116636, Note_off_c, 1, 56, 100
3, 116640, Note_on_c, 1, 61, 98
3, 116732, Note_off_c, 1, 61, 100
3, 116736, Note_on_c, 1, 53, 100
3, 116924, Note_off_c, 1, 53, 100
3, 116928, Note_on_c, 1, 54, 102
3, 117116, Note_off_c, 1, 54, 100
3, 117120, Note_on_c, 1, 56, 105
3, 117596, Note_off_c, 1, 56, 100
3, 117600, Note_on_c, 1, 65, 110
3, 117692, Note_off_c, 1, 65, 100
3, 117696, Note_on_c, 1, 63, 110
3, 117788, Note_off_c, 1, 63, 100
3, 117792, Note_on_c, 1, 61, 110
3, 117884, Note_off_c, 1, 61, 100
3, 117888, Note_on_c, 1, 60, 110
3, 117980, Note_off_c, 1, 60, 100
3, 117984, Note_on_c, 1, 58, 110
3, 118076, Note_off_c, 1, 58, 100
3, 118080, Note_on_c, 1, 56, 110
3, 118172, Note_off_c, 1, 56, 100
3, 118176, Note_on_c, 1, 54, 110
3, 118268, Note_off_c, 1, 54, 100
3, 118272, Note_on_c, 1, 53, 110
3, 118460, Note_off_c, 1, 53, 100
3, 118464, Note_on_c, 1, 56, 110
3, 118652, Note_off_c, 1, 56, 100
3, 118656, Note_on_c, 1, 54, 110
3, 118748, Note_off_c, 1, 54, 100
3, 119520, Note_on_c, 1, 61, 110
3, 119612, Note_off_c, 1, 61, 100
3, 119616, Note_on_c, 1, 63, 110
3, 119708, Note_off_c, 1, 63, 100
3, 119712, Note_on_c, 1, 65, 110
3, 119804, Note_off_c, 1, 65, 100
3, 119808, Note_on_c, 1, 63, 110
3, 119900, Note_off_c, 1, 63, 100
3, 119904, Note_on_c, 1, 54, 110
3, 119996, Note_off_c, 1, 54, 100
3, 120000, Note_on_c, 1, 58, 110
3, 120092, Note_off_c, 1, 58, 100
3, 120096, Note_on_c, 1, 51, 110
3, 120188, Note_off_c, 1, 51, 100
3, 120192, Note_on_c, 1, 54, 110
3, 120380, Note_off_c, 1, 54, 100
3, 120384, Note_on_c, 1, 56, 110
3, 120572, Note_off_c, 1, 56, 100
3, 120576, Note_on_c, 1, 58, 127
3, 121052, Note_off_c, 1, 58, 100
3, 121056, Note_on_c, 1, 54, 110
3, 121148, Note_off_c, 1, 54, 100
3, 121152, Note_on_c, 1, 53, 110
3, 121244, Note_off_c, 1, 53, 100
3, 121248, Note_on_c, 1, 51, 110
3, 121340, Note_off_c, 1, 51, 100
3, 121344, Note_on_c, 1, 50, 110
3, 121436, Note_off_c, 1, 50, 100
3, 121440, Note_on_c, 1, 47, 110
3, 121532, Note_off_c, 1, 47, 100
3, 121536, Note_on_c, 1, 46, 110
3, 121628, Note_off_c, 1, 46, 100
3, 121632, Note_on_c, 1, 44, 110
3, 121724, Note_off_c, 1, 44, 100
3, 121728, Note_on_c, 1, 43, 110
3, 121916, Note_off_c, 1, 43, 100
3, 121920, Note_on_c, 1, 44, 110
3, 122108, Note_off_c, 1, 44, 100
3, 122112, Note_on_c, 1, 46, 110
3, 122300, Note_off_c, 1, 46, 100
3, 122304, Note_on_c, 1, 47, 110
3, 122492, Note_off_c, 1, 47, 100
3, 122496, Note_on_c, 1, 59, 126
3, 122972, Note_off_c, 1, 59, 100
3, 122976, Note_on_c, 1, 56, 110
3, 123068, Note_off_c, 1, 56, 100
3, 123072, Note_on_c, 1, 54, 110
3, 123164, Note_off_c, 1, 54, 100
3, 123168, Note_on_c, 1, 53, 110
3, 123260, Note_off_c, 1, 53, 100
3, 123264, Note_on_c, 1, 58, 110
3, 123264, Note_on_c, 1, 51, 110
3, 123644, Note_off_c, 1, 51, 100
3, 123648, Note_on_c, 1, 50, 110
3, 124028, Note_off_c, 1, 58, 100
3, 124028, Note_off_c, 1, 50, 100
3, 124032, Note_on_c, 1, 74, 110
3, 124080, Note_on_c, 1, 75, 110
3, 124120, Note_off_c, 1, 74, 100
3, 124128, Note_on_c, 1, 74, 110
3, 124172, Note_off_c, 1, 75, 100
3, 124176, Note_on_c, 1, 75, 110
3, 124220, Note_off_c, 1, 74, 100
3, 124224, Note_on_c, 1, 74, 110
3, 124268, Note_off_c, 1, 75, 100
3, 124272, Note_on_c, 1, 75, 110
3, 124316, Note_off_c, 1, 74, 100
3, 124320, Note_on_c, 1, 74, 110
3, 124364, Note_off_c, 1, 75, 100
3, 124368, Note_on_c, 1, 75, 110
3, 124412, Note_off_c, 1, 74, 100
3, 124416, Note_on_c, 1, 74, 110
3, 124460, Note_off_c, 1, 75, 100
3, 124464, Note_on_c, 1, 75, 110
3, 124508, Note_off_c, 1, 74, 100
3, 124512, Note_on_c, 1, 74, 110
3, 124556, Note_off_c, 1, 75, 100
3, 124560, Note_on_c, 1, 75, 110
3, 124604, Note_off_c, 1, 74, 100
3, 124608, Note_on_c, 1, 74, 110
3, 124652, Note_off_c, 1, 75, 100
3, 124656, Note_on_c, 1, 75, 110
3, 124700, Note_off_c, 1, 74, 100
3, 124704, Note_on_c, 1, 74, 110
3, 124748, Note_off_c, 1, 75, 100
3, 124752, Note_on_c, 1, 75, 110
3, 124796, Note_off_c, 1, 74, 100
3, 124800, Note_on_c, 1, 74, 110
3, 124844, Note_off_c, 1, 75, 100
3, 124848, Note_on_c, 1, 75, 110
3, 124892, Note_off_c, 1, 74, 100
3, 124896, Note_on_c, 1, 74, 110
3, 124940, Note_off_c, 1, 75, 100
3, 124944, Note_on_c, 1, 75, 110
3, 124988, Note_off_c, 1, 74, 100
3, 124992, Note_on_c, 1, 74, 110
3, 125036, Note_off_c, 1, 75, 100
3, 125040, Note_on_c, 1, 75, 110
3, 125084, Note_off_c, 1, 74, 100
3, 125088, Note_on_c, 1, 74, 110
3, 125132, Note_off_c, 1, 75, 100
3, 125136, Note_on_c, 1, 75, 110
3, 125180, Note_off_c, 1, 74, 100
3, 125184, Note_on_c, 1, 74, 110
3, 125228, Note_off_c, 1, 75, 100
3, 125232, Note_on_c, 1, 75, 110
3, 125276, Note_off_c, 1, 74, 100
3, 125280, Note_on_c, 1, 74, 110
3, 125324, Note_off_c, 1, 75, 100
3, 125328, Note_on_c, 1, 75, 110
3, 125372, Note_off_c, 1, 74, 100
3, 125376, Note_on_c, 1, 74, 110
3, 125420, Note_off_c, 1, 75, 100
3, 125424, Note_on_c, 1, 75, 110
3, 125468, Note_off_c, 1, 74, 100
3, 125472, Note_on_c, 1, 72, 110
3, 125516, Note_off_c, 1, 75, 100
3, 125520, Note_on_c, 1, 74, 110
3, 125564, Note_off_c, 1, 72, 100
3, 125564, Note_off_c, 1, 74, 100
3, 125568, Note_on_c, 1, 75, 110
3, 126332, Note_off_c, 1, 75, 100
3, 126720, Note_on_c, 1, 75, 110
3, 126908, Note_off_c, 1, 75, 100
3, 126912, Note_on_c, 1, 73, 110
3, 126912, Note_on_c, 1, 65, 110
3, 127100, Note_off_c, 1, 73, 100
3, 127100, Note_off_c, 1, 65, 100
3, 127104, Note_on_c, 1, 71, 110
3, 127104, Note_on_c, 1, 63, 110
3, 127292, Note_off_c, 1, 71, 100
3, 127292, Note_off_c, 1, 63, 100
3, 127296, Note_on_c, 1, 70, 110
3, 127296, Note_on_c, 1, 61, 110
3, 127484, Note_off_c, 1, 70, 100
3, 127484, Note_off_c, 1, 61, 100
3, 127488, Note_on_c, 1, 68, 110
3, 127488, Note_on_c, 1, 59, 110
3, 127676, Note_off_c, 1, 68, 100
3, 127676, Note_off_c, 1, 59, 100
3, 127680, Note_on_c, 1, 66, 110
3, 127680, Note_on_c, 1, 58, 110
3, 127868, Note_off_c, 1, 66, 100
3, 127868, Note_off_c, 1, 58, 100
3, 127872, Note_on_c, 1, 71, 110
3, 127872, Note_on_c, 1, 63, 110
3, 128636, Note_off_c, 1, 71, 100
3, 128636, Note_off_c, 1, 63, 100
3, 129024, Note_on_c, 1, 71, 110
3, 129024, Note_on_c, 1, 63, 110
3, 129212, Note_off_c, 1, 71, 100
3, 129212, Note_off_c, 1, 63, 100
3, 129216, Note_on_c, 1, 70, 110
3, 129216, Note_on_c, 1, 61, 110
3, 129404, Note_off_c, 1, 70, 100
3, 129404, Note_off_c, 1, 61, 100
3, 129408, Note_on_c, 1, 68, 110
3, 129408, Note_on_c, 1, 59, 110
3, 129596, Note_off_c, 1, 68, 100
3, 129596, Note_off_c, 1, 59, 100
3, 129600, Note_on_c, 1, 66, 110
3, 129600, Note_on_c, 1, 58, 110
3, 129788, Note_off_c, 1, 66, 100
3, 129788, Note_off_c, 1, 58, 100
3, 129792, Note_on_c, 1, 65, 110
3, 129792, Note_on_c, 1, 56, 110
3, 129980, Note_off_c, 1, 65, 100
3, 129980, Note_off_c, 1, 56, 100
3, 129984, Note_on_c, 1, 63, 110
3, 129984, Note_on_c, 1, 54, 110
3, 130172, Note_off_c, 1, 63, 100
3, 130172, Note_off_c, 1, 54, 100
3, 130176, Note_on_c, 1, 68, 110
3, 130176, Note_on_c, 1, 59, 110
3, 130940, Note_off_c, 1, 68, 100
3, 130940, Note_off_c, 1, 59, 100
3, 131328, Note_on_c, 1, 68, 110
3, 131328, Note_on_c, 1, 59, 110
3, 131516, Note_off_c, 1, 68, 100
3, 131516, Note_off_c, 1, 59, 100
3, 131520, Note_on_c, 1, 66, 110
3, 131520, Note_on_c, 1, 58, 110
3, 131708, Note_off_c, 1, 66, 100
3, 131708, Note_off_c, 1, 58, 100
3, 131712, Note_on_c, 1, 65, 110
3, 131712, Note_on_c, 1, 56, 110
3, 131900, Note_off_c, 1, 65, 100
3, 131900, Note_off_c, 1, 56, 100
3, 131904, Note_on_c, 1, 66, 110
3, 131904, Note_on_c, 1, 58, 110
3, 132092, Note_off_c, 1, 66, 100
3, 132092, Note_off_c, 1, 58, 100
3, 132096, Note_on_c, 1, 65, 110
3, 132096, Note_on_c, 1, 56, 110
3, 132284, Note_off_c, 1, 65, 100
3, 132284, Note_off_c, 1, 56, 100
3, 132288, Note_on_c, 1, 63, 110
3, 132288, Note_on_c, 1, 54, 110
3, 132476, Note_off_c, 1, 63, 100
3, 132476, Note_off_c, 1, 54, 100
3, 132480, Note_on_c, 1, 62, 110
3, 132480, Note_on_c, 1, 53, 110
3, 132668, Note_off_c, 1, 62, 100
3, 132668, Note_off_c, 1, 53, 100
3, 132672, Note_on_c, 1, 63, 110
3, 132672, Note_on_c, 1, 54, 110
3, 132860, Note_off_c, 1, 63, 100
3, 132860, Note_off_c, 1, 54, 100
3, 132864, Note_on_c, 1, 62, 110
3, 132864, Note_on_c, 1, 53, 110
3, 133052, Note_off_c, 1, 62, 100
3, 133052, Note_off_c, 1, 53, 100
3, 133056, Note_on_c, 1, 60, 110
3, 133056, Note_on_c, 1, 51, 110
3, 133244, Note_off_c, 1, 60, 100
3, 133244, Note_off_c, 1, 51, 100
3, 133248, Note_on_c, 1, 58, 110
3, 133248, Note_on_c, 1, 50, 110
3, 133436, Note_off_c, 1, 58, 100
3, 133436, Note_off_c, 1, 50, 100
3, 133440, Note_on_c, 1, 60, 110
3, 133440, Note_on_c, 1, 51, 110
3, 133628, Note_off_c, 1, 60, 100
3, 133628, Note_off_c, 1, 51, 100
3, 133632, Note_on_c, 1, 62, 110
3, 133632, Note_on_c, 1, 53, 110
3, 133820, Note_off_c, 1, 62, 100
3, 133820, Note_off_c, 1, 53, 100
3, 133824, Note_on_c, 1, 63, 110
3, 133824, Note_on_c, 1, 54, 110
3, 134012, Note_off_c, 1, 63, 100
3, 134012, Note_off_c, 1, 54, 100
3, 134016, Note_on_c, 1, 64, 110
3, 134016, Note_on_c, 1, 55, 110
3, 134204, Note_off_c, 1, 64, 100
3, 134204, Note_off_c, 1, 55, 100
3, 134208, Note_on_c, 1, 65, 110
3, 134208, Note_on_c, 1, 56, 110
3, 134396, Note_off_c, 1, 65, 100
3, 134396, Note_off_c, 1, 56, 100
3, 134400, Note_on_c, 1, 66, 110
3, 134400, Note_on_c, 1, 58, 110
3, 134588, Note_off_c, 1, 66, 100
3, 134588, Note_off_c, 1, 58, 100
3, 134592, Note_on_c, 1, 65, 110
3, 134592, Note_on_c, 1, 56, 110
3, 134780, Note_off_c, 1, 65, 100
3, 134780, Note_off_c, 1, 56, 100
3, 134784, Note_on_c, 1, 63, 110
3, 134784, Note_on_c, 1, 54, 110
3, 134972, Note_off_c, 1, 63, 100
3, 134972, Note_off_c, 1, 54, 100
3, 134976, Note_on_c, 1, 65, 110
3, 134976, Note_on_c, 1, 56, 110
3, 135164, Note_off_c, 1, 65, 100
3, 135164, Note_off_c, 1, 56, 100
3, 135168, Note_on_c, 1, 66, 110
3, 135168, Note_on_c, 1, 58, 110
3, 135356, Note_off_c, 1, 66, 100
3, 135356, Note_off_c, 1, 58, 100
3, 135360, Note_on_c, 1, 68, 110
3, 135360, Note_on_c, 1, 59, 110
3, 135548, Note_off_c, 1, 68, 100
3, 135548, Note_off_c, 1, 59, 100
3, 135552, Note_on_c, 1, 69, 110
3, 135552, Note_on_c, 1, 65, 110
3, 135740, Note_off_c, 1, 69, 100
3, 135740, Note_off_c, 1, 65, 100
3, 135744, Note_on_c, 1, 70, 110
3, 135744, Note_on_c, 1, 66, 110
3, 135932, Note_off_c, 1, 70, 100
3, 135932, Note_off_c, 1, 66, 100
3, 135936, Note_on_c, 1, 71, 110
3, 135936, Note_on_c, 1, 68, 110
3, 136124, Note_off_c, 1, 71, 100
3, 136124, Note_off_c, 1, 68, 100
3, 136128, Note_on_c, 1, 70, 110
3, 136128, Note_on_c, 1, 66, 110
3, 136316, Note_off_c, 1, 70, 100
3, 136316, Note_off_c, 1, 66, 100
3, 136320, Note_on_c, 1, 68, 110
3, 136320, Note_on_c, 1, 59, 110
3, 136508, Note_off_c, 1, 68, 100
3, 136508, Note_off_c, 1, 59, 100
3, 136512, Note_on_c, 1, 66, 110
3, 136512, Note_on_c, 1, 58, 110
3, 136700, Note_off_c, 1, 66, 100
3, 136700, Note_off_c, 1, 58, 100
3, 136704, Note_on_c, 1, 46, 110
3, 136704, Note_on_c, 1, 34, 110
3, 137852, Note_off_c, 1, 34, 100
3, 137852, Note_off_c, 1, 46, 100
3, 137856, Note_on_c, 1, 44, 110
3, 137856, Note_on_c, 1, 32, 110
3, 139004, Note_off_c, 1, 32, 100
3, 139004, Note_off_c, 1, 44, 100
3, 139008, Note_on_c, 1, 44, 110
3, 139008, Note_on_c, 1, 32, 110
3, 139580, Note_off_c, 1, 32, 100
3, 139580, Note_off_c, 1, 44, 100
3, 139776, Note_on_c, 1, 42, 110
3, 139776, Note_on_c, 1, 30, 110
3, 139964, Note_off_c, 1, 42, 100
3, 139964, Note_off_c, 1, 30, 100
3, 140160, Note_on_c, 1, 41, 110
3, 140160, Note_on_c, 1, 29, 110
3, 140348, Note_off_c, 1, 41, 100
3, 140348, Note_off_c, 1, 29, 100
3, 140544, Note_on_c, 1, 39, 110
3, 140544, Note_on_c, 1, 27, 110
3, 140732, Note_off_c, 1, 39, 100
3, 140732, Note_off_c, 1, 27, 100
3, 140928, Note_on_c, 1, 38, 110
3, 140928, Note_on_c, 1, 26, 110
3, 141116, Note_off_c, 1, 38, 100
3, 141116, Note_off_c, 1, 26, 100
3, 141312, Note_on_c, 1, 39, 110
3, 141312, Note_on_c, 1, 27, 110
3, 141500, Note_off_c, 1, 39, 100
3, 141500, Note_off_c, 1, 27, 100
3, 141504, Note_on_c, 1, 58, 110
3, 141692, Note_off_c, 1, 58, 100
3, 141696, Note_on_c, 1, 56, 110
3, 141884, Note_off_c, 1, 56, 100
3, 141888, Note_on_c, 1, 54, 110
3, 142076, Note_off_c, 1, 54, 100
3, 142080, Note_on_c, 1, 53, 110
3, 142268, Note_off_c, 1, 53, 100
3, 142272, Note_on_c, 1, 51, 110
3, 142460, Note_off_c, 1, 51, 100
3, 142464, Note_on_c, 1, 49, 110
3, 142652, Note_off_c, 1, 49, 100
3, 142656, Note_on_c, 1, 48, 110
3, 142844, Note_off_c, 1, 48, 100
3, 142848, Key_signature, -5, "major"
3, 142848, Note_on_c, 1, 46, 110
3, 143036, Note_off_c, 1, 46, 100
3, 143040, Note_on_c, 1, 44, 110
3, 143228, Note_off_c, 1, 44, 100
3, 143232, Note_on_c, 1, 42, 110
3, 143420, Note_off_c, 1, 42, 100
3, 143424, Note_on_c, 1, 41, 110
3, 143612, Note_off_c, 1, 41, 100
3, 143616, Note_on_c, 1, 39, 110
3, 144764, Note_off_c, 1, 39, 100
3, 144768, Note_on_c, 1, 36, 110
3, 144768, Note_on_c, 1, 24, 110
3, 144816, Note_on_c, 1, 37, 110
3, 144848, Note_off_c, 1, 36, 100
3, 144864, Note_on_c, 1, 36, 110
3, 144896, Note_off_c, 1, 37, 100
3, 144912, Note_on_c, 1, 37, 110
3, 144944, Note_off_c, 1, 36, 100
3, 144960, Note_on_c, 1, 36, 110
3, 144992, Note_off_c, 1, 37, 100
3, 145008, Note_on_c, 1, 37, 110
3, 145040, Note_off_c, 1, 36, 100
3, 145056, Note_on_c, 1, 36, 110
3, 145088, Note_off_c, 1, 37, 100
3, 145104, Note_on_c, 1, 37, 110
3, 145136, Note_off_c, 1, 36, 100
3, 145152, Note_on_c, 1, 36, 110
3, 145184, Note_off_c, 1, 37, 100
3, 145200, Note_on_c, 1, 37, 110
3, 145232, Note_off_c, 1, 36, 100
3, 145248, Note_on_c, 1, 36, 110
3, 145280, Note_off_c, 1, 37, 100
3, 145296, Note_on_c, 1, 37, 110
3, 145328, Note_off_c, 1, 36, 100
3, 145344, Note_on_c, 1, 36, 110
3, 145376, Note_off_c, 1, 37, 100
3, 145392, Note_on_c, 1, 37, 110
3, 145424, Note_off_c, 1, 36, 100
3, 145440, Note_on_c, 1, 36, 110
3, 145472, Note_off_c, 1, 37, 100
3, 145488, Note_on_c, 1, 37, 110
3, 145520, Note_off_c, 1, 36, 100
3, 145536, Note_on_c, 1, 36, 110
3, 145568, Note_off_c, 1, 37, 100
3, 145584, Note_on_c, 1, 37, 110
3, 145616, Note_off_c, 1, 36, 100
3, 145632, Note_on_c, 1, 36, 110
3, 145664, Note_off_c, 1, 37, 100
3, 145680, Note_on_c, 1, 37, 110
3, 145712, Note_off_c, 1, 36, 100
3, 145728, Note_on_c, 1, 36, 110
3, 145760, Note_off_c, 1, 37, 100
3, 145776, Note_on_c, 1, 37, 110
3, 145808, Note_off_c, 1, 36, 100
3, 145824, Note_on_c, 1, 36, 110
3, 145856, Note_off_c, 1, 37, 100
3, 145872, Note_on_c, 1, 37, 110
3, 145904, Note_off_c, 1, 36, 100
3, 145920, Note_on_c, 1, 36, 110
3, 145952, Note_off_c, 1, 37, 100
3, 145968, Note_on_c, 1, 37, 110
3, 146000, Note_off_c, 1, 36, 100
3, 146016, Note_on_c, 1, 36, 110
3, 146048, Note_off_c, 1, 37, 100
3, 146064, Note_on_c, 1, 37, 110
3, 146096, Note_off_c, 1, 36, 100
3, 146112, Note_on_c, 1, 36, 110
3, 146144, Note_off_c, 1, 37, 100
3, 146160, Note_on_c, 1, 37, 110
3, 146192, Note_off_c, 1, 36, 100
3, 146208, Note_on_c, 1, 34, 110
3, 146240, Note_off_c, 1, 37, 100
3, 146256, Note_on_c, 1, 36, 110
3, 146288, Note_off_c, 1, 34, 100
3, 146300, Note_off_c, 1, 24, 100
3, 146304, Note_on_c, 1, 34, 110
3, 146336, Note_off_c, 1, 36, 100
3, 147068, Note_off_c, 1, 34, 100
3, 147456, Note_on_c, 1, 34, 110
3, 147644, Note_off_c, 1, 34, 100
3, 147648, Note_on_c, 1, 36, 110
3, 147648, Note_on_c, 1, 24, 110
3, 147836, Note_off_c, 1, 36, 100
3, 147836, Note_off_c, 1, 24, 100
3, 147840, Note_on_c, 1, 37, 110
3, 147840, Note_on_c, 1, 25, 110
3, 148028, Note_off_c, 1, 37, 100
3, 148028, Note_off_c, 1, 25, 100
3, 148032, Note_on_c, 1, 39, 110
3, 148032, Note_on_c, 1, 27, 110
3, 148220, Note_off_c, 1, 39, 100
3, 148220, Note_off_c, 1, 27, 100
3, 148224, Note_on_c, 1, 41, 110
3, 148224, Note_on_c, 1, 29, 110
3, 148412, Note_off_c, 1, 41, 100
3, 148412, Note_off_c, 1, 29, 100
3, 148416, Note_on_c, 1, 42, 110
3, 148416, Note_on_c, 1, 30, 110
3, 148604, Note_off_c, 1, 42, 100
3, 148604, Note_off_c, 1, 30, 100
3, 148608, Note_on_c, 1, 37, 110
3, 148608, Note_on_c, 1, 25, 110
3, 149372, Note_off_c, 1, 37, 100
3, 149372, Note_off_c, 1, 25, 100
3, 149376, Note_on_c, 1, 36, 110
3, 149376, Note_on_c, 1, 24, 110
3, 150524, Note_off_c, 1, 24, 100
3, 150524, Note_off_c, 1, 36, 100
3, 150528, Note_on_c, 1, 52, 110
3, 150528, Note_on_c, 1, 40, 110
3, 150576, Note_on_c, 1, 53, 110
3, 150608, Note_off_c, 1, 52, 100
3, 150624, Note_on_c, 1, 52, 110
3, 150656, Note_off_c, 1, 53, 100
3, 150672, Note_on_c, 1, 53, 110
3, 150704, Note_off_c, 1, 52, 100
3, 150720, Note_on_c, 1, 52, 110
3, 150752, Note_off_c, 1, 53, 100
3, 150768, Note_on_c, 1, 53, 110
3, 150800, Note_off_c, 1, 52, 100
3, 150816, Note_on_c, 1, 52, 110
3, 150848, Note_off_c, 1, 53, 100
3, 150864, Note_on_c, 1, 53, 110
3, 150896, Note_off_c, 1, 52, 100
3, 150912, Note_on_c, 1, 52, 110
3, 150944, Note_off_c, 1, 53, 100
3, 150960, Note_on_c, 1, 53, 110
3, 150992, Note_off_c, 1, 52, 100
3, 151008, Note_on_c, 1, 52, 110
3, 151040, Note_off_c, 1, 53, 100
3, 151056, Note_on_c, 1, 53, 110
3, 151088, Note_off_c, 1, 52, 100
3, 151104, Note_on_c, 1, 52, 110
3, 151136, Note_off_c, 1, 53, 100
3, 151152, Note_on_c, 1, 53, 110
3, 151184, Note_off_c, 1, 52, 100
3, 151200, Note_on_c, 1, 52, 110
3, 151232, Note_off_c, 1, 53, 100
3, 151248, Note_on_c, 1, 53, 110
3, 151280, Note_off_c, 1, 52, 100
3, 151296, Note_on_c, 1, 52, 110
3, 151328, Note_off_c, 1, 53, 100
3, 151344, Note_on_c, 1, 53, 110
3, 151376, Note_off_c, 1, 52, 100
3, 151392, Note_on_c, 1, 52, 110
3, 151424, Note_off_c, 1, 53, 100
3, 151440, Note_on_c, 1, 53, 110
3, 151472, Note_off_c, 1, 52, 100
3, 151488, Note_on_c, 1, 52, 110
3, 151520, Note_off_c, 1, 53, 100
3, 151536, Note_on_c, 1, 53, 110
3, 151568, Note_off_c, 1, 52, 100
3, 151584, Note_on_c, 1, 52, 110
3, 151616, Note_off_c, 1, 53, 100
3, 151632, Note_on_c, 1, 53, 110
3, 151664, Note_off_c, 1, 52, 100
3, 151676, Note_off_c, 1, 40, 100
3, 151680, Note_on_c, 1, 55, 110
3, 151712, Note_off_c, 1, 53, 100
3, 151728, Note_on_c, 1, 56, 110
3, 151760, Note_off_c, 1, 55, 100
3, 151776, Note_on_c, 1, 55, 110
3, 151808, Note_off_c, 1, 56, 100
3, 151824, Note_on_c, 1, 56, 110
3, 151856, Note_off_c, 1, 55, 100
3, 151872, Note_on_c, 1, 55, 110
3, 151904, Note_off_c, 1, 56, 100
3, 151920, Note_on_c, 1, 56, 110
3, 151952, Note_off_c, 1, 55, 100
3, 151968, Note_on_c, 1, 55, 110
3, 152000, Note_off_c, 1, 56, 100
3, 152016, Note_on_c, 1, 56, 110
3, 152048, Note_off_c, 1, 55, 100
3, 152064, Note_on_c, 1, 55, 110
3, 152096, Note_off_c, 1, 56, 100
3, 152112, Note_on_c, 1, 56, 110
3, 152144, Note_off_c, 1, 55, 100
3, 152160, Note_on_c, 1, 55, 110
3, 152192, Note_off_c, 1, 56, 100
3, 152208, Note_on_c, 1, 56, 110
3, 152240, Note_off_c, 1, 55, 100
3, 152256, Note_on_c, 1, 55, 110
3, 152288, Note_off_c, 1, 56, 100
3, 152304, Note_on_c, 1, 56, 110
3, 152336, Note_off_c, 1, 55, 100
3, 152352, Note_on_c, 1, 55, 110
3, 152384, Note_off_c, 1, 56, 100
3, 152400, Note_on_c, 1, 56, 110
3, 152432, Note_off_c, 1, 55, 100
3, 152448, Note_on_c, 1, 55, 110
3, 152480, Note_off_c, 1, 56, 100
3, 152496, Note_on_c, 1, 56, 110
3, 152528, Note_off_c, 1, 55, 100
3, 152544, Note_on_c, 1, 55, 110
3, 152576, Note_off_c, 1, 56, 100
3, 152592, Note_on_c, 1, 56, 110
3, 152624, Note_off_c, 1, 55, 100
3, 152640, Note_on_c, 1, 55, 110
3, 152672, Note_off_c, 1, 56, 100
3, 152688, Note_on_c, 1, 56, 110
3, 152720, Note_off_c, 1, 55, 100
3, 152736, Note_on_c, 1, 55, 110
3, 152768, Note_off_c, 1, 56, 100
3, 152784, Note_on_c, 1, 56, 110
3, 152816, Note_off_c, 1, 55, 100
3, 152832, Note_on_c, 1, 29, 110
3, 152864, Note_off_c, 1, 56, 100
3, 153980, Note_off_c, 1, 29, 100
3, 153984, Note_on_c, 1, 45, 110
3, 154032, Note_on_c, 1, 46, 110
3, 154064, Note_off_c, 1, 45, 100
3, 154080, Note_on_c, 1, 45, 110
3, 154112, Note_off_c, 1, 46, 100
3, 154128, Note_on_c, 1, 46, 110
3, 154160, Note_off_c, 1, 45, 100
3, 154176, Note_on_c, 1, 45, 110
3, 154208, Note_off_c, 1, 46, 100
3, 154224, Note_on_c, 1, 46, 110
3, 154256, Note_off_c, 1, 45, 100
3, 154272, Note_on_c, 1, 45, 110
3, 154304, Note_off_c, 1, 46, 100
3, 154320, Note_on_c, 1, 46, 110
3, 154352, Note_off_c, 1, 45, 100
3, 154368, Note_on_c, 1, 45, 110
3, 154400, Note_off_c, 1, 46, 100
3, 154416, Note_on_c, 1, 46, 110
3, 154448, Note_off_c, 1, 45, 100
3, 154464, Note_on_c, 1, 45, 110
3, 154496, Note_off_c, 1, 46, 100
3, 154512, Note_on_c, 1, 46, 110
3, 154544, Note_off_c, 1, 45, 100
3, 154560, Note_on_c, 1, 45, 110
3, 154592, Note_off_c, 1, 46, 100
3, 154608, Note_on_c, 1, 46, 110
3, 154640, Note_off_c, 1, 45, 100
3, 154656, Note_on_c, 1, 45, 110
3, 154688, Note_off_c, 1, 46, 100
3, 154704, Note_on_c, 1, 46, 110
3, 154736, Note_off_c, 1, 45, 100
3, 154752, Note_on_c, 1, 45, 110
3, 154784, Note_off_c, 1, 46, 100
3, 154800, Note_on_c, 1, 46, 110
3, 154832, Note_off_c, 1, 45, 100
3, 154848, Note_on_c, 1, 45, 110
3, 154880, Note_off_c, 1, 46, 100
3, 154896, Note_on_c, 1, 46, 110
3, 154928, Note_off_c, 1, 45, 100
3, 154944, Note_on_c, 1, 45, 110
3, 154976, Note_off_c, 1, 46, 100
3, 154992, Note_on_c, 1, 46, 110
3, 155024, Note_off_c, 1, 45, 100
3, 155040, Note_on_c, 1, 45, 110
3, 155072, Note_off_c, 1, 46, 100
3, 155088, Note_on_c, 1, 46, 110
3, 155120, Note_off_c, 1, 45, 100
3, 155136, Note_on_c, 1, 60, 110
3, 155168, Note_off_c, 1, 46, 100
3, 155184, Note_on_c, 1, 61, 110
3, 155216, Note_off_c, 1, 60, 100
3, 155232, Note_on_c, 1, 60, 110
3, 155264, Note_off_c, 1, 61, 100
3, 155280, Note_on_c, 1, 61, 110
3, 155312, Note_off_c, 1, 60, 100
3, 155328, Note_on_c, 1, 60, 110
3, 155360, Note_off_c, 1, 61, 100
3, 155376, Note_on_c, 1, 61, 110
3, 155408, Note_off_c, 1, 60, 100
3, 155424, Note_on_c, 1, 60, 110
3, 155456, Note_off_c, 1, 61, 100
3, 155472, Note_on_c, 1, 61, 110
3, 155504, Note_off_c, 1, 60, 100
3, 155520, Note_on_c, 1, 60, 110
3, 155552, Note_off_c, 1, 61, 100
3, 155568, Note_on_c, 1, 61, 110
3, 155600, Note_off_c, 1, 60, 100
3, 155616, Note_on_c, 1, 60, 110
3, 155648, Note_off_c, 1, 61, 100
3, 155664, Note_on_c, 1, 61, 110
3, 155696, Note_off_c, 1, 60, 100
3, 155712, Note_on_c, 1, 60, 110
3, 155744, Note_off_c, 1, 61, 100
3, 155760, Note_on_c, 1, 61, 110
3, 155792, Note_off_c, 1, 60, 100
3, 155808, Note_on_c, 1, 60, 110
3, 155840, Note_off_c, 1, 61, 100
3, 155856, Note_on_c, 1, 61, 110
3, 155888, Note_off_c, 1, 60, 100
3, 155904, Note_on_c, 1, 60, 110
3, 155936, Note_off_c, 1, 61, 100
3, 155952, Note_on_c, 1, 61, 110
3, 155984, Note_off_c, 1, 60, 100
3, 156000, Note_on_c, 1, 60, 110
3, 156032, Note_off_c, 1, 61, 100
3, 156048, Note_on_c, 1, 61, 110
3, 156080, Note_off_c, 1, 60, 100
3, 156096, Note_on_c, 1, 60, 110
3, 156128, Note_off_c, 1, 61, 100
3, 156144, Note_on_c, 1, 61, 110
3, 156176, Note_off_c, 1, 60, 100
3, 156192, Note_on_c, 1, 60, 110
3, 156224, Note_off_c, 1, 61, 100
3, 156240, Note_on_c, 1, 61, 110
3, 156272, Note_off_c, 1, 60, 100
3, 156288, Note_on_c, 1, 34, 110
3, 156320, Note_off_c, 1, 61, 100
3, 157436, Note_off_c, 1, 34, 100
3, 157440, Note_on_c, 1, 49, 110
3, 157488, Note_on_c, 1, 51, 110
3, 157520, Note_off_c, 1, 49, 100
3, 157536, Note_on_c, 1, 49, 110
3, 157568, Note_off_c, 1, 51, 100
3, 157584, Note_on_c, 1, 51, 110
3, 157616, Note_off_c, 1, 49, 100
3, 157632, Note_on_c, 1, 49, 110
3, 157664, Note_off_c, 1, 51, 100
3, 157680, Note_on_c, 1, 51, 110
3, 157712, Note_off_c, 1, 49, 100
3, 157728, Note_on_c, 1, 49, 110
3, 157760, Note_off_c, 1, 51, 100
3, 157776, Note_on_c, 1, 51, 110
3, 157808, Note_off_c, 1, 49, 100
3, 157824, Note_on_c, 1, 49, 110
3, 157856, Note_off_c, 1, 51, 100
3, 157872, Note_on_c, 1, 51, 110
3, 157904, Note_off_c, 1, 49, 100
3, 157920, Note_on_c, 1, 49, 110
3, 157952, Note_off_c, 1, 51, 100
3, 157968, Note_on_c, 1, 51, 110
3, 158000, Note_off_c, 1, 49, 100
3, 158016, Note_on_c, 1, 49, 110
3, 158048, Note_off_c, 1, 51, 100
3, 158064, Note_on_c, 1, 51, 110
3, 158096, Note_off_c, 1, 49, 100
3, 158112, Note_on_c, 1, 49, 110
3, 158144, Note_off_c, 1, 51, 100
3, 158160, Note_on_c, 1, 51, 110
3, 158192, Note_off_c, 1, 49, 100
3, 158208, Note_on_c, 1, 49, 110
3, 158240, Note_off_c, 1, 51, 100
3, 158256, Note_on_c, 1, 51, 110
3, 158288, Note_off_c, 1, 49, 100
3, 158304, Note_on_c, 1, 49, 110
3, 158336, Note_off_c, 1, 51, 100
3, 158352, Note_on_c, 1, 51, 110
3, 158384, Note_off_c, 1, 49, 100
3, 158400, Note_on_c, 1, 49, 110
3, 158432, Note_off_c, 1, 51, 100
3, 158448, Note_on_c, 1, 51, 110
3, 158480, Note_off_c, 1, 49, 100
3, 158496, Note_on_c, 1, 48, 110
3, 158528, Note_off_c, 1, 51, 100
3, 158544, Note_on_c, 1, 49, 110
3, 158576, Note_off_c, 1, 48, 100
3, 158592, Note_on_c, 1, 48, 110
3, 158592, Note_on_c, 1, 58, 110
3, 158624, Note_off_c, 1, 49, 100
3, 158640, Note_on_c, 1, 60, 110
3, 158672, Note_off_c, 1, 58, 100
3, 158688, Note_on_c, 1, 58, 110
3, 158720, Note_off_c, 1, 60, 100
3, 158736, Note_on_c, 1, 60, 110
3, 158768, Note_off_c, 1, 58, 100
3, 158784, Note_on_c, 1, 58, 110
3, 158816, Note_off_c, 1, 60, 100
3, 158832, Note_on_c, 1, 60, 110
3, 158864, Note_off_c, 1, 58, 100
3, 158880, Note_on_c, 1, 58, 110
3, 158912, Note_off_c, 1, 60, 100
3, 158928, Note_on_c, 1, 60, 110
3, 158960, Note_off_c, 1, 58, 100
3, 158976, Key_signature, -4, "major"
3, 158976, Note_on_c, 1, 58, 110
3, 159008, Note_off_c, 1, 60, 100
3, 159024, Note_on_c, 1, 60, 110
3, 159056, Note_off_c, 1, 58, 100
3, 159072, Note_on_c, 1, 58, 110
3, 159104, Note_off_c, 1, 60, 100
3, 159120, Note_on_c, 1, 60, 110
3, 159152, Note_off_c, 1, 58, 100
3, 159168, Note_on_c, 1, 58, 110
3, 159200, Note_off_c, 1, 60, 100
3, 159216, Note_on_c, 1, 60, 110
3, 159248, Note_off_c, 1, 58, 100
3, 159264, Note_on_c, 1, 58, 110
3, 159296, Note_off_c, 1, 60, 100
3, 159312, Note_on_c, 1, 60, 110
3, 159344, Note_off_c, 1, 58, 100
3, 159360, Note_on_c, 1, 58, 110
3, 159392, Note_off_c, 1, 60, 100
3, 159408, Note_on_c, 1, 60, 110
3, 159440, Note_off_c, 1, 58, 100
3, 159456, Note_on_c, 1, 58, 110
3, 159488, Note_off_c, 1, 60, 100
3, 159504, Note_on_c, 1, 60, 110
3, 159536, Note_off_c, 1, 58, 100
3, 159552, Note_on_c, 1, 58, 110
3, 159584, Note_off_c, 1, 60, 100
3, 159600, Note_on_c, 1, 60, 110
3, 159632, Note_off_c, 1, 58, 100
3, 159648, Note_on_c, 1, 57, 110
3, 159680, Note_off_c, 1, 60, 100
3, 159696, Note_on_c, 1, 58, 110
3, 159728, Note_off_c, 1, 57, 100
3, 159740, Note_off_c, 1, 48, 100
3, 159744, Note_on_c, 1, 56, 110
3, 159776, Note_off_c, 1, 58, 100
3, 160316, Note_off_c, 1, 56, 100
3, 160320, Note_on_c, 1, 55, 109
3, 160508, Note_off_c, 1, 55, 100
3, 160512, Note_on_c, 1, 53, 108
3, 160700, Note_off_c, 1, 53, 100
3, 160704, Note_on_c, 1, 51, 106
3, 160892, Note_off_c, 1, 51, 100
3, 160896, Note_on_c, 1, 50, 105
3, 161084, Note_off_c, 1, 50, 100
3, 161088, Note_on_c, 1, 51, 104
3, 161276, Note_off_c, 1, 51, 100
3, 161280, Note_on_c, 1, 51, 102
3, 162428, Note_off_c, 1, 51, 100
3, 162432, Note_on_c, 1, 51, 95
3, 163196, Note_off_c, 1, 51, 100
3, 163200, Note_on_c, 1, 51, 90
3, 163248, Note_on_c, 1, 53, 89
3, 163280, Note_off_c, 1, 51, 100
3, 163296, Note_on_c, 1, 51, 89
3, 163328, Note_off_c, 1, 53, 100
3, 163344, Note_on_c, 1, 53, 89
3, 163376, Note_off_c, 1, 51, 100
3, 163392, Note_on_c, 1, 51, 88
3, 163424, Note_off_c, 1, 53, 100
3, 163440, Note_on_c, 1, 53, 88
3, 163472, Note_off_c, 1, 51, 100
3, 163488, Note_on_c, 1, 51, 88
3, 163520, Note_off_c, 1, 53, 100
3, 163536, Note_on_c, 1, 53, 87
3, 163568, Note_off_c, 1, 51, 100
3, 163584, Note_on_c, 1, 51, 87
3, 163616, Note_off_c, 1, 53, 100
3, 163632, Note_on_c, 1, 53, 87
3, 163664, Note_off_c, 1, 51, 100
3, 163680, Note_on_c, 1, 51, 86
3, 163712, Note_off_c, 1, 53, 100
3, 163728, Note_on_c, 1, 53, 86
3, 163760, Note_off_c, 1, 51, 100
3, 163776, Note_on_c, 1, 51, 86
3, 163808, Note_off_c, 1, 53, 100
3, 163824, Note_on_c, 1, 53, 85
3, 163856, Note_off_c, 1, 51, 100
3, 163872, Note_on_c, 1, 51, 85
3, 163904, Note_off_c, 1, 53, 100
3, 163920, Note_on_c, 1, 53, 85
3, 163952, Note_off_c, 1, 51, 100
3, 163968, Note_on_c, 1, 51, 84
3, 164000, Note_off_c, 1, 53, 100
3, 164016, Note_on_c, 1, 53, 84
3, 164048, Note_off_c, 1, 51, 100
3, 164064, Note_on_c, 1, 51, 84
3, 164096, Note_off_c, 1, 53, 100
3, 164112, Note_on_c, 1, 53, 83
3, 164144, Note_off_c, 1, 51, 100
3, 164160, Note_on_c, 1, 51, 83
3, 164192, Note_off_c, 1, 53, 100
3, 164208, Note_on_c, 1, 53, 83
3, 164240, Note_off_c, 1, 51, 100
3, 164256, Note_on_c, 1, 50, 82
3, 164288, Note_off_c, 1, 53, 100
3, 164304, Note_on_c, 1, 51, 82
3, 164336, Note_off_c, 1, 50, 100
3, 164352, Note_on_c, 1, 53, 82
3, 164384, Note_off_c, 1, 51, 100
3, 164540, Note_off_c, 1, 53, 100
3, 164544, Note_on_c, 1, 55, 81
3, 164732, Note_off_c, 1, 55, 100
3, 164736, Note_on_c, 1, 56, 80
3, 164828, Note_off_c, 1, 56, 100
3, 164832, Note_on_c, 1, 48, 80
3, 164924, Note_off_c, 1, 48, 100
3, 164928, Note_on_c, 1, 51, 80
3, 165020, Note_off_c, 1, 51, 100
3, 165024, Note_on_c, 1, 56, 80
3, 165116, Note_off_c, 1, 56, 100
3, 165120, Note_on_c, 1, 60, 80
3, 165308, Note_off_c, 1, 60, 100
3, 165312, Note_on_c, 1, 61, 80
3, 165500, Note_off_c, 1, 61, 100
3, 165504, Note_on_c, 1, 63, 80
3, 165884, Note_off_c, 1, 63, 100
3, 166752, Note_on_c, 1, 58, 87
3, 166844, Note_off_c, 1, 58, 100
3, 166848, Note_on_c, 1, 60, 88
3, 166940, Note_off_c, 1, 60, 100
3, 166944, Note_on_c, 1, 61, 89
3, 167036, Note_off_c, 1, 61, 100
3, 167040, Note_on_c, 1, 60, 90
3, 167420, Note_off_c, 1, 60, 100
3, 167520, Note_on_c, 1, 56, 94
3, 167612, Note_off_c, 1, 56, 100
3, 167616, Note_on_c, 1, 55, 95
3, 167708, Note_off_c, 1, 55, 100
3, 167712, Note_on_c, 1, 53, 96
3, 167804, Note_off_c, 1, 53, 100
3, 167808, Note_on_c, 1, 51, 97
3, 167904, Note_on_c, 1, 55, 98
3, 167996, Note_off_c, 1, 55, 100
3, 168000, Note_on_c, 1, 56, 99
3, 168092, Note_off_c, 1, 56, 100
3, 168096, Note_on_c, 1, 58, 99
3, 168188, Note_off_c, 1, 51, 100
3, 168188, Note_off_c, 1, 58, 100
3, 168192, Note_on_c, 1, 60, 100
3, 168380, Note_off_c, 1, 60, 100
3, 168384, Note_on_c, 1, 61, 100
3, 168572, Note_off_c, 1, 61, 100
3, 168576, Note_on_c, 1, 63, 100
3, 168672, Note_on_c, 1, 53, 100
3, 168764, Note_off_c, 1, 53, 100
3, 168768, Note_on_c, 1, 51, 100
3, 168860, Note_off_c, 1, 51, 100
3, 168864, Note_on_c, 1, 49, 100
3, 168956, Note_off_c, 1, 49, 100
3, 168960, Note_on_c, 1, 48, 100
3, 169052, Note_off_c, 1, 63, 100
3, 169056, Note_on_c, 1, 60, 100
3, 169148, Note_off_c, 1, 60, 100
3, 169152, Note_on_c, 1, 58, 100
3, 169152, Note_on_c, 1, 50, 100
3, 169244, Note_off_c, 1, 58, 100
3, 169244, Note_off_c, 1, 50, 100
3, 169248, Note_on_c, 1, 56, 100
3, 169248, Note_on_c, 1, 52, 100
3, 169340, Note_off_c, 1, 48, 100
3, 169340, Note_off_c, 1, 56, 100
3, 169340, Note_off_c, 1, 52, 100
3, 169344, Note_on_c, 1, 60, 100
3, 169344, Note_on_c, 1, 53, 100
3, 169532, Note_off_c, 1, 60, 100
3, 169724, Note_off_c, 1, 53, 100
3, 170208, Note_on_c, 1, 52, 100
3, 170300, Note_off_c, 1, 52, 100
3, 170304, Note_on_c, 1, 53, 100
3, 170396, Note_off_c, 1, 53, 100
3, 170400, Note_on_c, 1, 55, 100
3, 170492, Note_off_c, 1, 55, 100
3, 170496, Note_on_c, 1, 56, 100
3, 170684, Note_off_c, 1, 56, 100
3, 170688, Note_on_c, 1, 58, 100
3, 170876, Note_off_c, 1, 58, 100
3, 170880, Note_on_c, 1, 60, 100
3, 171356, Note_off_c, 1, 60, 100
3, 171360, Note_on_c, 1, 56, 100
3, 171452, Note_off_c, 1, 56, 100
3, 171456, Note_on_c, 1, 55, 100
3, 171548, Note_off_c, 1, 55, 100
3, 171552, Note_on_c, 1, 53, 100
3, 171644, Note_off_c, 1, 53, 100
3, 171648, Note_on_c, 1, 60, 100
3, 171740, Note_off_c, 1, 60, 100
3, 171744, Note_on_c, 1, 65, 100
3, 171836, Note_off_c, 1, 65, 100
3, 171840, Note_on_c, 1, 64, 100
3, 171932, Note_off_c, 1, 64, 100
3, 171936, Note_on_c, 1, 62, 100
3, 172028, Note_off_c, 1, 62, 100
3, 172032, Note_on_c, 1, 60, 100
3, 172124, Note_off_c, 1, 60, 100
3, 172128, Note_on_c, 1, 58, 100
3, 172220, Note_off_c, 1, 58, 100
3, 172224, Note_on_c, 1, 56, 100
3, 172316, Note_off_c, 1, 56, 100
3, 172320, Note_on_c, 1, 55, 100
3, 172412, Note_off_c, 1, 55, 100
3, 172416, Note_on_c, 1, 53, 100
3, 172604, Note_off_c, 1, 53, 100
3, 172800, Note_on_c, 1, 60, 100
3, 172892, Note_off_c, 1, 60, 100
3, 172896, Note_on_c, 1, 63, 100
3, 172988, Note_off_c, 1, 63, 100
3, 172992, Note_on_c, 1, 61, 100
3, 173084, Note_off_c, 1, 61, 100
3, 173088, Note_on_c, 1, 60, 100
3, 173180, Note_off_c, 1, 60, 100
3, 173184, Note_on_c, 1, 58, 100
3, 173276, Note_off_c, 1, 58, 100
3, 173280, Note_on_c, 1, 57, 100
3, 173372, Note_off_c, 1, 57, 100
3, 173376, Note_on_c, 1, 55, 100
3, 173468, Note_off_c, 1, 55, 100
3, 173472, Note_on_c, 1, 53, 100
3, 173564, Note_off_c, 1, 53, 100
3, 173568, Note_on_c, 1, 51, 100
3, 173948, Note_off_c, 1, 51, 100
3, 173952, Note_on_c, 1, 49, 100
3, 174044, Note_off_c, 1, 49, 100
3, 174048, Note_on_c, 1, 61, 100
3, 174140, Note_off_c, 1, 61, 100
3, 174144, Note_on_c, 1, 60, 100
3, 174236, Note_off_c, 1, 60, 100
3, 174240, Note_on_c, 1, 58, 100
3, 174332, Note_off_c, 1, 58, 100
3, 174336, Note_on_c, 1, 57, 100
3, 174428, Note_off_c, 1, 57, 100
3, 174432, Note_on_c, 1, 55, 100
3, 174524, Note_off_c, 1, 55, 100
3, 174528, Note_on_c, 1, 53, 100
3, 174620, Note_off_c, 1, 53, 100
3, 174624, Note_on_c, 1, 51, 100
3, 174716, Note_off_c, 1, 51, 100
3, 174720, Note_on_c, 1, 49, 100
3, 175100, Note_off_c, 1, 49, 100
3, 175104, Note_on_c, 1, 48, 100
3, 175196, Note_off_c, 1, 48, 100
3, 175200, Note_on_c, 1, 60, 100
3, 175292, Note_off_c, 1, 60, 100
3, 175296, Note_on_c, 1, 58, 100
3, 175388, Note_off_c, 1, 58, 100
3, 175392, Note_on_c, 1, 57, 100
3, 175484, Note_off_c, 1, 57, 100
3, 175488, Note_on_c, 1, 54, 100
3, 175580, Note_off_c, 1, 54, 100
3, 175584, Note_on_c, 1, 53, 100
3, 175676, Note_off_c, 1, 53, 100
3, 175680, Note_on_c, 1, 51, 100
3, 175772, Note_off_c, 1, 51, 100
3, 175776, Note_on_c, 1, 49, 100
3, 175868, Note_off_c, 1, 49, 100
3, 175872, Note_on_c, 1, 48, 100
3, 176252, Note_off_c, 1, 48, 100
3, 176256, Note_on_c, 1, 50, 100
3, 176256, Note_on_c, 1, 38, 100
3, 176444, Note_off_c, 1, 50, 100
3, 176444, Note_off_c, 1, 38, 100
3, 176448, Note_on_c, 1, 51, 100
3, 176448, Note_on_c, 1, 39, 100
3, 176636, Note_off_c, 1, 51, 100
3, 176636, Note_off_c, 1, 39, 100
3, 176640, Note_on_c, 1, 53, 115
3, 176640, Note_on_c, 1, 41, 115
3, 177116, Note_off_c, 1, 53, 100
3, 177116, Note_off_c, 1, 41, 100
3, 177120, Note_on_c, 1, 49, 100
3, 177212, Note_off_c, 1, 49, 100
3, 177216, Note_on_c, 1, 48, 100
3, 177308, Note_off_c, 1, 48, 100
3, 177312, Note_on_c, 1, 46, 100
3, 177404, Note_off_c, 1, 46, 100
3, 177408, Note_on_c, 1, 51, 100
3, 177408, Note_on_c, 1, 39, 100
3, 177596, Note_off_c, 1, 51, 100
3, 177596, Note_off_c, 1, 39, 100
3, 177600, Note_on_c, 1, 53, 100
3, 177600, Note_on_c, 1, 41, 100
3, 177788, Note_off_c, 1, 53, 100
3, 177788, Note_off_c, 1, 41, 100
3, 177792, Note_on_c, 1, 55, 123
3, 177792, Note_on_c, 1, 43, 120
3, 178268, Note_off_c, 1, 55, 100
3, 178268, Note_off_c, 1, 43, 100
3, 178272, Note_on_c, 1, 51, 100
3, 178364, Note_off_c, 1, 51, 100
3, 178368, Note_on_c, 1, 47, 100
3, 178460, Note_off_c, 1, 47, 100
3, 178464, Note_on_c, 1, 46, 100
3, 178556, Note_off_c, 1, 46, 100
3, 178560, Note_on_c, 1, 55, 100
3, 178560, Note_on_c, 1, 43, 100
3, 178748, Note_off_c, 1, 55, 100
3, 178748, Note_off_c, 1, 43, 100
3, 178752, Note_on_c, 1, 56, 100
3, 178752, Note_on_c, 1, 44, 100
3, 178940, Note_off_c, 1, 56, 100
3, 178940, Note_off_c, 1, 44, 100
3, 178944, Note_on_c, 1, 58, 120
3, 178944, Note_on_c, 1, 46, 121
3, 179420, Note_off_c, 1, 58, 100
3, 179420, Note_off_c, 1, 46, 100
3, 179424, Note_on_c, 1, 55, 100
3, 179516, Note_off_c, 1, 55, 100
3, 179520, Note_on_c, 1, 53, 100
3, 179612, Note_off_c, 1, 53, 100
3, 179616, Note_on_c, 1, 51, 100
3, 179708, Note_off_c, 1, 51, 100
3, 179712, Note_on_c, 1, 56, 100
3, 179712, Note_on_c, 1, 44, 100
3, 179900, Note_off_c, 1, 56, 100
3, 179900, Note_off_c, 1, 44, 100
3, 179904, Note_on_c, 1, 58, 100
3, 179904, Note_on_c, 1, 46, 100
3, 180092, Note_off_c, 1, 58, 100
3, 180092, Note_off_c, 1, 46, 100
3, 180096, Note_on_c, 1, 60, 123
3, 180096, Note_on_c, 1, 48, 121
3, 180572, Note_off_c, 1, 60, 100
3, 180572, Note_off_c, 1, 48, 100
3, 180576, Note_on_c, 1, 56, 100
3, 180668, Note_off_c, 1, 56, 100
3, 180672, Note_on_c, 1, 51, 100
3, 180764, Note_off_c, 1, 51, 100
3, 180768, Note_on_c, 1, 48, 100
3, 180860, Note_off_c, 1, 48, 100
3, 180864, Note_on_c, 1, 56, 100
3, 180956, Note_off_c, 1, 56, 100
3, 180960, Note_on_c, 1, 51, 100
3, 181052, Note_off_c, 1, 51, 100
3, 181056, Note_on_c, 1, 48, 100
3, 181148, Note_off_c, 1, 48, 100
3, 181152, Note_on_c, 1, 44, 100
3, 181244, Note_off_c, 1, 44, 100
3, 181248, Note_on_c, 1, 51, 100
3, 181340, Note_off_c, 1, 51, 100
3, 181344, Note_on_c, 1, 48, 100
3, 181436, Note_off_c, 1, 48, 100
3, 181440, Note_on_c, 1, 44, 100
3, 181532, Note_off_c, 1, 44, 100
3, 181536, Note_on_c, 1, 39, 100
3, 181628, Note_off_c, 1, 39, 100
3, 181632, Note_on_c, 1, 42, 100
3, 181724, Note_off_c, 1, 42, 100
3, 181728, Note_on_c, 1, 51, 100
3, 181820, Note_off_c, 1, 51, 100
3, 181824, Note_on_c, 1, 48, 100
3, 181916, Note_off_c, 1, 48, 100
3, 181920, Note_on_c, 1, 42, 100
3, 182012, Note_off_c, 1, 42, 100
3, 182016, Note_on_c, 1, 53, 100
3, 182016, Note_on_c, 1, 41, 100
3, 182204, Note_off_c, 1, 53, 100
3, 182204, Note_off_c, 1, 41, 100
3, 182208, Note_on_c, 1, 54, 100
3, 182208, Note_on_c, 1, 42, 100
3, 182396, Note_off_c, 1, 54, 100
3, 182396, Note_off_c, 1, 42, 100
3, 182400, Note_on_c, 1, 56, 120
3, 182400, Note_on_c, 1, 44, 120
3, 182876, Note_off_c, 1, 56, 100
3, 182876, Note_off_c, 1, 44, 100
3, 182880, Note_on_c, 1, 53, 100
3, 182972, Note_off_c, 1, 53, 100
3, 182976, Note_on_c, 1, 49, 100
3, 183068, Note_off_c, 1, 49, 100
3, 183072, Note_on_c, 1, 44, 100
3, 183164, Note_off_c, 1, 44, 100
3, 183168, Note_on_c, 1, 53, 100
3, 183260, Note_off_c, 1, 53, 100
3, 183264, Note_on_c, 1, 49, 100
3, 183356, Note_off_c, 1, 49, 100
3, 183360, Note_on_c, 1, 44, 100
3, 183452, Note_off_c, 1, 44, 100
3, 183456, Note_on_c, 1, 41, 100
3, 183548, Note_off_c, 1, 41, 100
3, 183552, Note_on_c, 1, 49, 100
3, 183644, Note_off_c, 1, 49, 100
3, 183648, Note_on_c, 1, 44, 100
3, 183740, Note_off_c, 1, 44, 100
3, 183744, Note_on_c, 1, 41, 100
3, 183836, Note_off_c, 1, 41, 100
3, 183840, Note_on_c, 1, 37, 100
3, 183932, Note_off_c, 1, 37, 100
3, 183936, Note_on_c, 1, 44, 100
3, 184028, Note_off_c, 1, 44, 100
3, 184032, Note_on_c, 1, 41, 100
3, 184124, Note_off_c, 1, 41, 100
3, 184128, Note_on_c, 1, 39, 100
3, 184220, Note_off_c, 1, 39, 100
3, 184224, Note_on_c, 1, 37, 100
3, 184316, Note_off_c, 1, 37, 100
3, 184320, Note_on_c, 1, 58, 100
3, 184320, Note_on_c, 1, 46, 100
3, 184508, Note_off_c, 1, 58, 100
3, 184508, Note_off_c, 1, 46, 100
3, 184512, Note_on_c, 1, 59, 100
3, 184512, Note_on_c, 1, 47, 100
3, 184700, Note_off_c, 1, 59, 100
3, 184700, Note_off_c, 1, 47, 100
3, 184704, Note_on_c, 1, 61, 121
3, 184704, Note_on_c, 1, 49, 122
3, 185180, Note_off_c, 1, 61, 100
3, 185180, Note_off_c, 1, 49, 100
3, 185184, Note_on_c, 1, 58, 100
3, 185276, Note_off_c, 1, 58, 100
3, 185280, Note_on_c, 1, 54, 100
3, 185372, Note_off_c, 1, 54, 100
3, 185376, Note_on_c, 1, 49, 100
3, 185468, Note_off_c, 1, 49, 100
3, 185472, Note_on_c, 1, 58, 100
3, 185564, Note_off_c, 1, 58, 100
3, 185568, Note_on_c, 1, 54, 100
3, 185660, Note_off_c, 1, 54, 100
3, 185664, Note_on_c, 1, 49, 100
3, 185756, Note_off_c, 1, 49, 100
3, 185760, Note_on_c, 1, 46, 100
3, 185852, Note_off_c, 1, 46, 100
3, 185856, Note_on_c, 1, 54, 100
3, 185948, Note_off_c, 1, 54, 100
3, 185952, Note_on_c, 1, 49, 100
3, 186044, Note_off_c, 1, 49, 100
3, 186048, Note_on_c, 1, 46, 100
3, 186140, Note_off_c, 1, 46, 100
3, 186144, Note_on_c, 1, 42, 100
3, 186236, Note_off_c, 1, 42, 100
3, 186240, Note_on_c, 1, 49, 100
3, 186332, Note_off_c, 1, 49, 100
3, 186336, Note_on_c, 1, 46, 100
3, 186428, Note_off_c, 1, 46, 100
3, 186432, Note_on_c, 1, 44, 100
3, 186524, Note_off_c, 1, 44, 100
3, 186528, Note_on_c, 1, 42, 100
3, 186620, Note_off_c, 1, 42, 100
3, 186624, Note_on_c, 1, 38, 100
3, 186624, Note_on_c, 1, 50, 100
3, 186812, Note_off_c, 1, 38, 100
3, 186812, Note_off_c, 1, 50, 100
3, 186816, Note_on_c, 1, 52, 100
3, 186816, Note_on_c, 1, 40, 100
3, 187004, Note_off_c, 1, 52, 100
3, 187004, Note_off_c, 1, 40, 100
3, 187008, Note_on_c, 1, 54, 120
3, 187008, Note_on_c, 1, 42, 123
3, 187484, Note_off_c, 1, 54, 100
3, 187484, Note_off_c, 1, 42, 100
3, 187488, Note_on_c, 1, 50, 100
3, 187580, Note_off_c, 1, 50, 100
3, 187584, Note_on_c, 1, 47, 100
3, 187676, Note_off_c, 1, 47, 100
3, 187680, Note_on_c, 1, 41, 100
3, 187772, Note_off_c, 1, 41, 100
3, 187776, Key_signature, 2, "major"
3, 187776, Note_on_c, 1, 50, 100
3, 187868, Note_off_c, 1, 50, 100
3, 187872, Note_on_c, 1, 47, 100
3, 187964, Note_off_c, 1, 47, 100
3, 187968, Note_on_c, 1, 42, 100
3, 188060, Note_off_c, 1, 42, 100
3, 188064, Note_on_c, 1, 38, 100
3, 188156, Note_off_c, 1, 38, 100
3, 188160, Note_on_c, 1, 47, 100
3, 188252, Note_off_c, 1, 47, 100
3, 188256, Note_on_c, 1, 42, 100
3, 188348, Note_off_c, 1, 42, 100
3, 188352, Note_on_c, 1, 38, 100
3, 188444, Note_off_c, 1, 38, 100
3, 188448, Note_on_c, 1, 35, 100
3, 188540, Note_off_c, 1, 35, 100
3, 188544, Note_on_c, 1, 42, 100
3, 188636, Note_off_c, 1, 42, 100
3, 188640, Note_on_c, 1, 38, 100
3, 188732, Note_off_c, 1, 38, 100
3, 188736, Note_on_c, 1, 37, 100
3, 188828, Note_off_c, 1, 37, 100
3, 188832, Note_on_c, 1, 35, 100
3, 188924, Note_off_c, 1, 35, 100
3, 188928, Note_on_c, 1, 30, 100
3, 189116, Note_off_c, 1, 30, 100
3, 189528, Note_on_c, 1, 67, 100
3, 189600, Note_on_c, 1, 66, 100
3, 189620, Note_off_c, 1, 67, 100
3, 189692, Note_off_c, 1, 66, 100
3, 189696, Note_on_c, 1, 71, 100
3, 189788, Note_off_c, 1, 71, 100
3, 189792, Note_on_c, 1, 66, 100
3, 189884, Note_off_c, 1, 66, 100
3, 189888, Note_on_c, 1, 64, 100
3, 189980, Note_off_c, 1, 64, 100
3, 189984, Note_on_c, 1, 62, 100
3, 190076, Note_off_c, 1, 62, 100
3, 190080, Note_on_c, 1, 66, 100
3, 190172, Note_off_c, 1, 66, 100
3, 190176, Note_on_c, 1, 62, 100
3, 190268, Note_off_c, 1, 62, 100
3, 190272, Note_on_c, 1, 61, 100
3, 190364, Note_off_c, 1, 61, 100
3, 190368, Note_on_c, 1, 59, 100
3, 190460, Note_off_c, 1, 59, 100
3, 190464, Note_on_c, 1, 62, 80
3, 190556, Note_off_c, 1, 62, 100
3, 190560, Note_on_c, 1, 59, 100
3, 190652, Note_off_c, 1, 59, 100
3, 190656, Note_on_c, 1, 55, 97
3, 190748, Note_off_c, 1, 55, 100
3, 190752, Note_on_c, 1, 54, 94
3, 190844, Note_off_c, 1, 54, 100
3, 190848, Note_on_c, 1, 55, 91
3, 190940, Note_off_c, 1, 55, 100
3, 190944, Note_on_c, 1, 54, 87
3, 191036, Note_off_c, 1, 54, 100
3, 191040, Note_on_c, 1, 56, 84
3, 191132, Note_off_c, 1, 56, 100
3, 191136, Note_on_c, 1, 58, 81
3, 191228, Note_off_c, 1, 58, 100
3, 191232, Note_on_c, 1, 59, 80
3, 191324, Note_off_c, 1, 59, 100
3, 191328, Note_on_c, 1, 61, 80
3, 191420, Note_off_c, 1, 61, 100
3, 191424, Note_on_c, 1, 62, 80
3, 191516, Note_off_c, 1, 62, 100
3, 191520, Note_on_c, 1, 64, 80
3, 191612, Note_off_c, 1, 64, 100
3, 191616, Note_on_c, 1, 66, 80
3, 191708, Note_off_c, 1, 66, 100
3, 191712, Note_on_c, 1, 67, 80
3, 191804, Note_off_c, 1, 67, 100
3, 191808, Note_on_c, 1, 66, 80
3, 191900, Note_off_c, 1, 66, 100
3, 191904, Note_on_c, 1, 65, 80
3, 191996, Note_off_c, 1, 65, 100
3, 192000, Note_on_c, 1, 64, 80
3, 192092, Note_off_c, 1, 64, 100
3, 192096, Note_on_c, 1, 62, 80
3, 192188, Note_off_c, 1, 62, 100
3, 192192, Note_on_c, 1, 61, 80
3, 192284, Note_off_c, 1, 61, 100
3, 192288, Note_on_c, 1, 59, 80
3, 192380, Note_off_c, 1, 59, 100
3, 192384, Note_on_c, 1, 61, 80
3, 192476, Note_off_c, 1, 61, 100
3, 192480, Note_on_c, 1, 62, 80
3, 192572, Note_off_c, 1, 62, 100
3, 192576, Note_on_c, 1, 61, 80
3, 192668, Note_off_c, 1, 61, 100
3, 192672, Note_on_c, 1, 60, 80
3, 192764, Note_off_c, 1, 60, 100
3, 192768, Note_on_c, 1, 59, 80
3, 192860, Note_off_c, 1, 59, 100
3, 192864, Note_on_c, 1, 58, 80
3, 192956, Note_off_c, 1, 58, 100
3, 192960, Note_on_c, 1, 56, 80
3, 193052, Note_off_c, 1, 56, 100
3, 193056, Note_on_c, 1, 54, 80
3, 193148, Note_off_c, 1, 54, 100
3, 193152, Note_on_c, 1, 56, 80
3, 193244, Note_off_c, 1, 56, 100
3, 193248, Note_on_c, 1, 58, 80
3, 193340, Note_off_c, 1, 58, 100
3, 193344, Note_on_c, 1, 59, 80
3, 193436, Note_off_c, 1, 59, 100
3, 193440, Note_on_c, 1, 58, 80
3, 193532, Note_off_c, 1, 58, 100
3, 193536, Note_on_c, 1, 59, 80
3, 193628, Note_off_c, 1, 59, 100
3, 193632, Note_on_c, 1, 61, 80
3, 193724, Note_off_c, 1, 61, 100
3, 193728, Note_on_c, 1, 62, 80
3, 193820, Note_off_c, 1, 62, 100
3, 193824, Note_on_c, 1, 61, 80
3, 193916, Note_off_c, 1, 61, 100
3, 193920, Note_on_c, 1, 62, 80
3, 194012, Note_off_c, 1, 62, 100
3, 194016, Note_on_c, 1, 64, 80
3, 194108, Note_off_c, 1, 64, 100
3, 194304, Note_on_c, 1, 64, 80
3, 194684, Note_off_c, 1, 64, 100
3, 194688, Note_on_c, 1, 59, 80
3, 194780, Note_off_c, 1, 59, 100
3, 194784, Note_on_c, 1, 61, 80
3, 194876, Note_off_c, 1, 61, 100
3, 194880, Note_on_c, 1, 62, 80
3, 194972, Note_off_c, 1, 62, 100
3, 194976, Note_on_c, 1, 64, 80
3, 195068, Note_off_c, 1, 64, 100
3, 195072, Note_on_c, 1, 66, 80
3, 195164, Note_off_c, 1, 66, 100
3, 195168, Note_on_c, 1, 67, 80
3, 195260, Note_off_c, 1, 67, 100
3, 195456, Note_on_c, 1, 67, 80
3, 195836, Note_off_c, 1, 67, 100
3, 195840, Note_on_c, 1, 62, 80
3, 195932, Note_off_c, 1, 62, 100
3, 195936, Note_on_c, 1, 64, 80
3, 196028, Note_off_c, 1, 64, 100
3, 196032, Note_on_c, 1, 66, 80
3, 196124, Note_off_c, 1, 66, 100
3, 196128, Note_on_c, 1, 68, 80
3, 196220, Note_off_c, 1, 68, 100
3, 196224, Note_on_c, 1, 70, 80
3, 196316, Note_off_c, 1, 70, 100
3, 196320, Note_on_c, 1, 71, 80
3, 196412, Note_off_c, 1, 71, 100
3, 196608, Note_on_c, 1, 71, 80
3, 196988, Note_off_c, 1, 71, 100
3, 196992, Note_on_c, 1, 70, 80
3, 197040, Note_on_c, 1, 71, 80
3, 197072, Note_off_c, 1, 70, 100
3, 197088, Note_on_c, 1, 70, 80
3, 197120, Note_off_c, 1, 71, 100
3, 197136, Note_on_c, 1, 71, 80
3, 197168, Note_off_c, 1, 70, 100
3, 197184, Note_on_c, 1, 70, 80
3, 197216, Note_off_c, 1, 71, 100
3, 197232, Note_on_c, 1, 71, 80
3, 197264, Note_off_c, 1, 70, 100
3, 197280, Note_on_c, 1, 70, 80
3, 197312, Note_off_c, 1, 71, 100
3, 197328, Note_on_c, 1, 71, 80
3, 197360, Note_off_c, 1, 70, 100
3, 197376, Note_on_c, 1, 70, 80
3, 197408, Note_off_c, 1, 71, 100
3, 197424, Note_on_c, 1, 71, 80
3, 197456, Note_off_c, 1, 70, 100
3, 197472, Note_on_c, 1, 70, 80
3, 197504, Note_off_c, 1, 71, 100
3, 197520, Note_on_c, 1, 71, 80
3, 197552, Note_off_c, 1, 70, 100
3, 197568, Note_on_c, 1, 70, 80
3, 197600, Note_off_c, 1, 71, 100
3, 197616, Note_on_c, 1, 71, 80
3, 197648, Note_off_c, 1, 70, 100
3, 197664, Note_on_c, 1, 68, 80
3, 197696, Note_off_c, 1, 71, 100
3, 197712, Note_on_c, 1, 70, 80
3, 197744, Note_off_c, 1, 68, 100
3, 197760, Note_on_c, 1, 54, 80
3, 197792, Note_off_c, 1, 70, 100
3, 197948, Note_off_c, 1, 54, 100
3, 198528, Note_on_c, 1, 59, 80
3, 198716, Note_off_c, 1, 59, 100
3, 198912, Note_on_c, 1, 74, 80
3, 198960, Note_on_c, 1, 76, 80
3, 198992, Note_off_c, 1, 74, 100
3, 199008, Note_on_c, 1, 74, 80
3, 199040, Note_off_c, 1, 76, 100
3, 199056, Note_on_c, 1, 76, 80
3, 199088, Note_off_c, 1, 74, 100
3, 199104, Note_on_c, 1, 74, 80
3, 199136, Note_off_c, 1, 76, 100
3, 199152, Note_on_c, 1, 76, 80
3, 199184, Note_off_c, 1, 74, 100
3, 199200, Note_on_c, 1, 74, 80
3, 199232, Note_off_c, 1, 76, 100
3, 199248, Note_on_c, 1, 76, 80
3, 199280, Note_off_c, 1, 74, 100
3, 199296, Note_on_c, 1, 74, 80
3, 199328, Note_off_c, 1, 76, 100
3, 199344, Note_on_c, 1, 76, 80
3, 199376, Note_off_c, 1, 74, 100
3, 199392, Note_on_c, 1, 74, 80
3, 199424, Note_off_c, 1, 76, 100
3, 199440, Note_on_c, 1, 76, 80
3, 199472, Note_off_c, 1, 74, 100
3, 199488, Note_on_c, 1, 74, 80
3, 199520, Note_off_c, 1, 76, 100
3, 199536, Note_on_c, 1, 76, 80
3, 199568, Note_off_c, 1, 74, 100
3, 199584, Note_on_c, 1, 73, 80
3, 199616, Note_off_c, 1, 76, 100
3, 199632, Note_on_c, 1, 74, 80
3, 199664, Note_off_c, 1, 73, 100
3, 199680, Note_on_c, 1, 76, 80
3, 199712, Note_off_c, 1, 74, 100
3, 200060, Note_off_c, 1, 76, 100
3, 200064, Note_on_c, 1, 45, 80
3, 200252, Note_off_c, 1, 45, 100
3, 200448, Note_on_c, 1, 61, 80
3, 200496, Note_on_c, 1, 62, 80
3, 200528, Note_off_c, 1, 61, 100
3, 200544, Note_on_c, 1, 61, 80
3, 200576, Note_off_c, 1, 62, 100
3, 200592, Note_on_c, 1, 62, 80
3, 200624, Note_off_c, 1, 61, 100
3, 200640, Note_on_c, 1, 61, 80
3, 200672, Note_off_c, 1, 62, 100
3, 200688, Note_on_c, 1, 62, 80
3, 200720, Note_off_c, 1, 61, 100
3, 200736, Note_on_c, 1, 61, 80
3, 200768, Note_off_c, 1, 62, 100
3, 200784, Note_on_c, 1, 62, 80
3, 200816, Note_off_c, 1, 61, 100
3, 200832, Note_on_c, 1, 61, 80
3, 200864, Note_off_c, 1, 62, 100
3, 200880, Note_on_c, 1, 62, 80
3, 200912, Note_off_c, 1, 61, 100
3, 200928, Note_on_c, 1, 61, 80
3, 200960, Note_off_c, 1, 62, 100
3, 200976, Note_on_c, 1, 62, 80
3, 201008, Note_off_c, 1, 61, 100
3, 201024, Note_on_c, 1, 61, 80
3, 201056, Note_off_c, 1, 62, 100
3, 201072, Note_on_c, 1, 62, 80
3, 201104, Note_off_c, 1, 61, 100
3, 201120, Note_on_c, 1, 59, 80
3, 201152, Note_off_c, 1, 62, 100
3, 201168, Note_on_c, 1, 61, 80
3, 201200, Note_off_c, 1, 59, 100
3, 201216, Note_on_c, 1, 62, 80
3, 201248, Note_off_c, 1, 61, 100
3, 201596, Note_off_c, 1, 62, 100
3, 201600, Note_on_c, 1, 71, 80
3, 201788, Note_off_c, 1, 71, 100
3, 201792, Note_on_c, 1, 67, 80
3, 201980, Note_off_c, 1, 67, 100
3, 201984, Note_on_c, 1, 66, 80
3, 202172, Note_off_c, 1, 66, 100
3, 202176, Note_on_c, 1, 65, 80
3, 202364, Note_off_c, 1, 65, 100
3, 202368, Note_on_c, 1, 66, 80
3, 202368, Note_on_c, 1, 57, 80
3, 202748, Note_off_c, 1, 57, 100
3, 203132, Note_off_c, 1, 66, 100
3, 203136, Note_on_c, 1, 64, 80
3, 203516, Note_off_c, 1, 64, 100
3, 203520, Note_on_c, 1, 55, 80
3, 203520, Note_on_c, 1, 52, 80
3, 203900, Note_off_c, 1, 55, 100
3, 203900, Note_off_c, 1, 52, 100
3, 203904, Note_on_c, 1, 59, 80
3, 203904, Note_on_c, 1, 54, 80
3, 204284, Note_off_c, 1, 59, 100
3, 204288, Note_on_c, 1, 57, 80
3, 204668, Note_off_c, 1, 54, 100
3, 204668, Note_off_c, 1, 57, 100
3, 204672, Note_on_c, 1, 55, 80
3, 204672, Note_on_c, 1, 52, 80
3, 205436, Note_off_c, 1, 52, 100
3, 205436, Note_off_c, 1, 55, 100
3, 205440, Note_on_c, 1, 54, 80
3, 205440, Note_on_c, 1, 50, 80
3, 205820, Note_off_c, 1, 54, 100
3, 205820, Note_off_c, 1, 50, 100
3, 205824, Note_on_c, 1, 50, 80
3, 205824, Note_on_c, 1, 55, 80
3, 206396, Note_off_c, 1, 55, 100
3, 206400, Note_on_c, 1, 54, 80
3, 206588, Note_off_c, 1, 50, 100
3, 206588, Note_off_c, 1, 54, 100
3, 206592, Note_on_c, 1, 52, 80
3, 206592, Note_on_c, 1, 45, 80
3, 206780, Note_off_c, 1, 52, 100
3, 206784, Note_on_c, 1, 54, 80
3, 206972, Note_off_c, 1, 45, 100
3, 206972, Note_off_c, 1, 54, 100
3, 206976, Note_on_c, 1, 56, 80
3, 206976, Note_on_c, 1, 54, 80
3, 207164, Note_off_c, 1, 56, 100
3, 207168, Note_on_c, 1, 57, 80
3, 207356, Note_off_c, 1, 54, 100
3, 207356, Note_off_c, 1, 57, 100
3, 207360, Note_on_c, 1, 55, 80
3, 207360, Note_on_c, 1, 52, 80
3, 207740, Note_off_c, 1, 52, 100
3, 207744, Note_on_c, 1, 45, 80
3, 208124, Note_off_c, 1, 55, 100
3, 208124, Note_off_c, 1, 45, 100
3, 208128, Note_on_c, 1, 54, 80
3, 208316, Note_off_c, 1, 54, 100
3, 209280, Note_on_c, 1, 54, 80
3, 209372, Note_off_c, 1, 54, 100
3, 209376, Note_on_c, 1, 52, 80
3, 209468, Note_off_c, 1, 52, 100
3, 209472, Note_on_c, 1, 50, 80
3, 209564, Note_off_c, 1, 50, 100
3, 209568, Note_on_c, 1, 49, 80
3, 209660, Note_off_c, 1, 49, 100
3, 209664, Note_on_c, 1, 47, 80
3, 209756, Note_off_c, 1, 47, 100
3, 209760, Note_on_c, 1, 49, 80
3, 209852, Note_off_c, 1, 49, 100
3, 209856, Note_on_c, 1, 50, 80
3, 209948, Note_off_c, 1, 50, 100
3, 209952, Note_on_c, 1, 52, 80
3, 210044, Note_off_c, 1, 52, 100
3, 210048, Note_on_c, 1, 54, 80
3, 210140, Note_off_c, 1, 54, 100
3, 210144, Note_on_c, 1, 55, 80
3, 210236, Note_off_c, 1, 55, 100
3, 210240, Note_on_c, 1, 54, 80
3, 210332, Note_off_c, 1, 54, 100
3, 210336, Note_on_c, 1, 53, 80
3, 210428, Note_off_c, 1, 53, 100
3, 210432, Note_on_c, 1, 52, 80
3, 210524, Note_off_c, 1, 52, 100
3, 210528, Note_on_c, 1, 50, 80
3, 210620, Note_off_c, 1, 50, 100
3, 210624, Note_on_c, 1, 49, 80
3, 210716, Note_off_c, 1, 49, 100
3, 210720, Note_on_c, 1, 47, 80
3, 210812, Note_off_c, 1, 47, 100
3, 210816, Note_on_c, 1, 49, 80
3, 210908, Note_off_c, 1, 49, 100
3, 210912, Note_on_c, 1, 50, 80
3, 211004, Note_off_c, 1, 50, 100
3, 211008, Note_on_c, 1, 49, 80
3, 211100, Note_off_c, 1, 49, 100
3, 211104, Note_on_c, 1, 48, 80
3, 211196, Note_off_c, 1, 48, 100
3, 211200, Note_on_c, 1, 47, 80
3, 211292, Note_off_c, 1, 47, 100
3, 211296, Note_on_c, 1, 46, 80
3, 211388, Note_off_c, 1, 46, 100
3, 211392, Note_on_c, 1, 44, 80
3, 211484, Note_off_c, 1, 44, 100
3, 211488, Note_on_c, 1, 42, 80
3, 211580, Note_off_c, 1, 42, 100
3, 211584, Note_on_c, 1, 44, 80
3, 211676, Note_off_c, 1, 44, 100
3, 211680, Note_on_c, 1, 46, 80
3, 211772, Note_off_c, 1, 46, 100
3, 211776, Note_on_c, 1, 47, 80
3, 211868, Note_off_c, 1, 47, 100
3, 211872, Note_on_c, 1, 46, 80
3, 211964, Note_off_c, 1, 46, 100
3, 211968, Note_on_c, 1, 47, 80
3, 212060, Note_off_c, 1, 47, 100
3, 212064, Note_on_c, 1, 49, 80
3, 212156, Note_off_c, 1, 49, 100
3, 212160, Note_on_c, 1, 50, 80
3, 212252, Note_off_c, 1, 50, 100
3, 212256, Note_on_c, 1, 49, 80
3, 212348, Note_off_c, 1, 49, 100
3, 212352, Note_on_c, 1, 50, 80
3, 212444, Note_off_c, 1, 50, 100
3, 212448, Note_on_c, 1, 52, 80
3, 212540, Note_off_c, 1, 52, 100
3, 212736, Note_on_c, 1, 52, 80
3, 213116, Note_off_c, 1, 52, 100
3, 213120, Note_on_c, 1, 47, 80
3, 213212, Note_off_c, 1, 47, 100
3, 213216, Note_on_c, 1, 49, 80
3, 213308, Note_off_c, 1, 49, 100
3, 213312, Note_on_c, 1, 50, 80
3, 213404, Note_off_c, 1, 50, 100
3, 213408, Note_on_c, 1, 52, 80
3, 213500, Note_off_c, 1, 52, 100
3, 213504, Note_on_c, 1, 54, 80
3, 213596, Note_off_c, 1, 54, 100
3, 213600, Note_on_c, 1, 55, 80
3, 213692, Note_off_c, 1, 55, 100
3, 213888, Note_on_c, 1, 55, 80
3, 214268, Note_off_c, 1, 55, 100
3, 214272, Note_on_c, 1, 50, 80
3, 214364, Note_off_c, 1, 50, 100
3, 214368, Note_on_c, 1, 52, 80
3, 214460, Note_off_c, 1, 52, 100
3, 214464, Note_on_c, 1, 54, 80
3, 214556, Note_off_c, 1, 54, 100
3, 214560, Note_on_c, 1, 56, 80
3, 214652, Note_off_c, 1, 56, 100
3, 214656, Note_on_c, 1, 58, 80
3, 214748, Note_off_c, 1, 58, 100
3, 214752, Note_on_c, 1, 59, 80
3, 214844, Note_off_c, 1, 59, 100
3, 215040, Note_on_c, 1, 59, 80
3, 215420, Note_off_c, 1, 59, 100
3, 215424, Note_on_c, 1, 58, 80
3, 215472, Note_on_c, 1, 59, 80
3, 215504, Note_off_c, 1, 58, 100
3, 215520, Note_on_c, 1, 58, 80
3, 215552, Note_off_c, 1, 59, 100
3, 215568, Note_on_c, 1, 59, 80
3, 215600, Note_off_c, 1, 58, 100
3, 215616, Note_on_c, 1, 58, 80
3, 215648, Note_off_c, 1, 59, 100
3, 215664, Note_on_c, 1, 59, 80
3, 215696, Note_off_c, 1, 58, 100
3, 215712, Note_on_c, 1, 58, 80
3, 215744, Note_off_c, 1, 59, 100
3, 215760, Note_on_c, 1, 59, 80
3, 215792, Note_off_c, 1, 58, 100
3, 215808, Note_on_c, 1, 58, 80
3, 215840, Note_off_c, 1, 59, 100
3, 215856, Note_on_c, 1, 59, 80
3, 215888, Note_off_c, 1, 58, 100
3, 215904, Note_on_c, 1, 58, 80
3, 215936, Note_off_c, 1, 59, 100
3, 215952, Note_on_c, 1, 59, 80
3, 215984, Note_off_c, 1, 58, 100
3, 216000, Note_on_c, 1, 58, 80
3, 216032, Note_off_c, 1, 59, 100
3, 216048, Note_on_c, 1, 59, 80
3, 216080, Note_off_c, 1, 58, 100
3, 216096, Note_on_c, 1, 58, 80
3, 216128, Note_off_c, 1, 59, 100
3, 216144, Note_on_c, 1, 59, 80
3, 216176, Note_off_c, 1, 58, 100
3, 216192, Note_on_c, 1, 42, 80
3, 216224, Note_off_c, 1, 59, 100
3, 216380, Note_off_c, 1, 42, 100
3, 216384, Note_on_c, 1, 44, 80
3, 216476, Note_off_c, 1, 44, 100
3, 216480, Note_on_c, 1, 46, 80
3, 216572, Note_off_c, 1, 46, 100
3, 216576, Note_on_c, 1, 47, 80
3, 216668, Note_off_c, 1, 47, 100
3, 216672, Note_on_c, 1, 49, 80
3, 216764, Note_off_c, 1, 49, 100
3, 216768, Note_on_c, 1, 50, 80
3, 216860, Note_off_c, 1, 50, 100
3, 216864, Note_on_c, 1, 52, 80
3, 216956, Note_off_c, 1, 52, 100
3, 216960, Note_on_c, 1, 54, 80
3, 217148, Note_off_c, 1, 54, 100
3, 217344, Note_on_c, 1, 59, 80
3, 217724, Note_off_c, 1, 59, 100
3, 217728, Note_on_c, 1, 58, 80
3, 217776, Note_on_c, 1, 59, 80
3, 217808, Note_off_c, 1, 58, 100
3, 217824, Note_on_c, 1, 58, 80
3, 217856, Note_off_c, 1, 59, 100
3, 217872, Note_on_c, 1, 59, 80
3, 217904, Note_off_c, 1, 58, 100
3, 217920, Note_on_c, 1, 58, 80
3, 217952, Note_off_c, 1, 59, 100
3, 217968, Note_on_c, 1, 59, 80
3, 218000, Note_off_c, 1, 58, 100
3, 218016, Note_on_c, 1, 58, 80
3, 218048, Note_off_c, 1, 59, 100
3, 218064, Note_on_c, 1, 59, 80
3, 218096, Note_off_c, 1, 58, 100
3, 218112, Note_on_c, 1, 58, 80
3, 218144, Note_off_c, 1, 59, 100
3, 218160, Note_on_c, 1, 59, 80
3, 218192, Note_off_c, 1, 58, 100
3, 218208, Note_on_c, 1, 58, 80
3, 218240, Note_off_c, 1, 59, 100
3, 218256, Note_on_c, 1, 59, 80
3, 218288, Note_off_c, 1, 58, 100
3, 218304, Note_on_c, 1, 58, 80
3, 218336, Note_off_c, 1, 59, 100
3, 218352, Note_on_c, 1, 59, 80
3, 218384, Note_off_c, 1, 58, 100
3, 218400, Note_on_c, 1, 58, 80
3, 218432, Note_off_c, 1, 59, 100
3, 218448, Note_on_c, 1, 59, 80
3, 218480, Note_off_c, 1, 58, 100
3, 218496, Note_on_c, 1, 54, 80
3, 218496, Note_on_c, 1, 42, 80
3, 218528, Note_off_c, 1, 59, 100
3, 218876, Note_off_c, 1, 54, 100
3, 218876, Note_off_c, 1, 42, 100
3, 218880, Note_on_c, 1, 50, 80
3, 218928, Note_on_c, 1, 52, 80
3, 218960, Note_off_c, 1, 50, 100
3, 218976, Note_on_c, 1, 50, 80
3, 219008, Note_off_c, 1, 52, 100
3, 219024, Note_on_c, 1, 52, 80
3, 219056, Note_off_c, 1, 50, 100
3, 219072, Note_on_c, 1, 50, 80
3, 219104, Note_off_c, 1, 52, 100
3, 219120, Note_on_c, 1, 52, 80
3, 219152, Note_off_c, 1, 50, 100
3, 219168, Note_on_c, 1, 50, 80
3, 219200, Note_off_c, 1, 52, 100
3, 219216, Note_on_c, 1, 52, 80
3, 219248, Note_off_c, 1, 50, 100
3, 219264, Note_on_c, 1, 50, 80
3, 219296, Note_off_c, 1, 52, 100
3, 219312, Note_on_c, 1, 52, 80
3, 219344, Note_off_c, 1, 50, 100
3, 219360, Note_on_c, 1, 50, 80
3, 219392, Note_off_c, 1, 52, 100
3, 219408, Note_on_c, 1, 52, 80
3, 219440, Note_off_c, 1, 50, 100
3, 219456, Note_on_c, 1, 50, 80
3, 219488, Note_off_c, 1, 52, 100
3, 219504, Note_on_c, 1, 52, 80
3, 219536, Note_off_c, 1, 50, 100
3, 219552, Note_on_c, 1, 50, 80
3, 219584, Note_off_c, 1, 52, 100
3, 219600, Note_on_c, 1, 52, 80
3, 219632, Note_off_c, 1, 50, 100
3, 219648, Note_on_c, 1, 47, 80
3, 219680, Note_off_c, 1, 52, 100
3, 219836, Note_off_c, 1, 47, 100
3, 219840, Note_on_c, 1, 46, 80
3, 219840, Note_on_c, 1, 37, 80
3, 220028, Note_off_c, 1, 46, 100
3, 220028, Note_off_c, 1, 37, 100
3, 220032, Note_on_c, 1, 45, 80
3, 220032, Note_on_c, 1, 38, 80
3, 220124, Note_off_c, 1, 38, 100
3, 220128, Note_on_c, 1, 40, 80
3, 220220, Note_off_c, 1, 40, 100
3, 220224, Note_on_c, 1, 42, 80
3, 220316, Note_off_c, 1, 42, 100
3, 220320, Note_on_c, 1, 43, 80
3, 220412, Note_off_c, 1, 45, 100
3, 220412, Note_off_c, 1, 43, 100
3, 220416, Note_on_c, 1, 45, 80
3, 220508, Note_off_c, 1, 45, 100
3, 220512, Note_on_c, 1, 47, 80
3, 220604, Note_off_c, 1, 47, 100
3, 220800, Note_on_c, 1, 47, 80
3, 220800, Note_on_c, 1, 54, 80
3, 221180, Note_off_c, 1, 47, 100
3, 221180, Note_off_c, 1, 54, 100
3, 221184, Note_on_c, 1, 43, 80
3, 221276, Note_off_c, 1, 43, 100
3, 221280, Note_on_c, 1, 45, 80
3, 221372, Note_off_c, 1, 45, 100
3, 221376, Note_on_c, 1, 47, 80
3, 221468, Note_off_c, 1, 47, 100
3, 221472, Note_on_c, 1, 49, 80
3, 221564, Note_off_c, 1, 49, 100
3, 221568, Note_on_c, 1, 50, 80
3, 221660, Note_off_c, 1, 50, 100
3, 221664, Note_on_c, 1, 52, 80
3, 221756, Note_off_c, 1, 52, 100
3, 221952, Note_on_c, 1, 52, 80
3, 222332, Note_off_c, 1, 52, 100
3, 222336, Note_on_c, 1, 49, 80
3, 222428, Note_off_c, 1, 49, 100
3, 222432, Note_on_c, 1, 50, 80
3, 222524, Note_off_c, 1, 50, 100
3, 222528, Note_on_c, 1, 52, 81
3, 222620, Note_off_c, 1, 52, 100
3, 222624, Note_on_c, 1, 54, 82
3, 222716, Note_off_c, 1, 54, 100
3, 222720, Note_on_c, 1, 55, 83
3, 222812, Note_off_c, 1, 55, 100
3, 222816, Note_on_c, 1, 57, 84
3, 222908, Note_off_c, 1, 57, 100
3, 223104, Note_on_c, 1, 57, 86
3, 223484, Note_off_c, 1, 57, 100
3, 223488, Note_on_c, 1, 52, 90
3, 223580, Note_off_c, 1, 52, 100
3, 223584, Note_on_c, 1, 54, 91
3, 223676, Note_off_c, 1, 54, 100
3, 223680, Note_on_c, 1, 55, 92
3, 223772, Note_off_c, 1, 55, 100
3, 223776, Note_on_c, 1, 57, 93
3, 223868, Note_off_c, 1, 57, 100
3, 223872, Note_on_c, 1, 59, 93
3, 223964, Note_off_c, 1, 59, 100
3, 223968, Note_on_c, 1, 61, 94
3, 224060, Note_off_c, 1, 61, 100
3, 224256, Note_on_c, 1, 61, 97
3, 224636, Note_off_c, 1, 61, 100
3, 224640, Note_on_c, 1, 64, 100
3, 224732, Note_off_c, 1, 64, 100
3, 224736, Note_on_c, 1, 62, 100
3, 224828, Note_off_c, 1, 62, 100
3, 224832, Note_on_c, 1, 61, 100
3, 224924, Note_off_c, 1, 61, 100
3, 224928, Note_on_c, 1, 59, 100
3, 225020, Note_off_c, 1, 59, 100
3, 225024, Note_on_c, 1, 57, 100
3, 225116, Note_off_c, 1, 57, 100
3, 225120, Note_on_c, 1, 55, 100
3, 225212, Note_off_c, 1, 55, 100
3, 225408, Note_on_c, 1, 55, 100
3, 225788, Note_off_c, 1, 55, 100
3, 225792, Note_on_c, 1, 61, 100
3, 225884, Note_off_c, 1, 61, 100
3, 225888, Note_on_c, 1, 59, 100
3, 225980, Note_off_c, 1, 59, 100
3, 225984, Note_on_c, 1, 57, 100
3, 226076, Note_off_c, 1, 57, 100
3, 226080, Note_on_c, 1, 55, 100
3, 226172, Note_off_c, 1, 55, 100
3, 226176, Note_on_c, 1, 54, 100
3, 226268, Note_off_c, 1, 54, 100
3, 226272, Note_on_c, 1, 52, 100
3, 226364, Note_off_c, 1, 52, 100
3, 226560, Note_on_c, 1, 52, 100
3, 226940, Note_off_c, 1, 52, 100
3, 226944, Note_on_c, 1, 38, 110
3, 227036, Note_off_c, 1, 38, 100
3, 227040, Note_on_c, 1, 40, 110
3, 227132, Note_off_c, 1, 40, 100
3, 227136, Note_on_c, 1, 42, 110
3, 227228, Note_off_c, 1, 42, 100
3, 227232, Note_on_c, 1, 43, 110
3, 227324, Note_off_c, 1, 43, 100
3, 227328, Note_on_c, 1, 44, 110
3, 227420, Note_off_c, 1, 44, 100
3, 227424, Note_on_c, 1, 45, 110
3, 227516, Note_off_c, 1, 45, 100
3, 227712, Note_on_c, 1, 54, 110
3, 227712, Note_on_c, 1, 45, 110
3, 228092, Note_off_c, 1, 54, 100
3, 228092, Note_off_c, 1, 45, 100
3, 228096, Note_on_c, 1, 42, 110
3, 228188, Note_off_c, 1, 42, 100
3, 228192, Note_on_c, 1, 43, 110
3, 228284, Note_off_c, 1, 43, 100
3, 228288, Note_on_c, 1, 45, 110
3, 228380, Note_off_c, 1, 45, 100
3, 228384, Note_on_c, 1, 47, 110
3, 228476, Note_off_c, 1, 47, 100
3, 228480, Note_on_c, 1, 49, 110
3, 228572, Note_off_c, 1, 49, 100
3, 228576, Note_on_c, 1, 50, 110
3, 228668, Note_off_c, 1, 50, 100
3, 228864, Note_on_c, 1, 57, 110
3, 228864, Note_on_c, 1, 50, 110
3, 229244, Note_off_c, 1, 57, 100
3, 229244, Note_off_c, 1, 50, 100
3, 229248, Note_on_c, 1, 43, 110
3, 229340, Note_off_c, 1, 43, 100
3, 229344, Note_on_c, 1, 45, 110
3, 229436, Note_off_c, 1, 45, 100
3, 229440, Note_on_c, 1, 47, 110
3, 229532, Note_off_c, 1, 47, 100
3, 229536, Note_on_c, 1, 49, 110
3, 229628, Note_off_c, 1, 49, 100
3, 229632, Note_on_c, 1, 50, 110
3, 229724, Note_off_c, 1, 50, 100
3, 229728, Note_on_c, 1, 52, 110
3, 229820, Note_off_c, 1, 52, 100
3, 230016, Note_on_c, 1, 52, 110
3, 230396, Note_off_c, 1, 52, 100
3, 230400, Note_on_c, 1, 49, 110
3, 230492, Note_off_c, 1, 49, 100
3, 230496, Note_on_c, 1, 50, 110
3, 230588, Note_off_c, 1, 50, 100
3, 230592, Note_on_c, 1, 52, 110
3, 230684, Note_off_c, 1, 52, 100
3, 230688, Note_on_c, 1, 54, 110
3, 230780, Note_off_c, 1, 54, 100
3, 230784, Note_on_c, 1, 55, 110
3, 230876, Note_off_c, 1, 55, 100
3, 230880, Note_on_c, 1, 57, 110
3, 230972, Note_off_c, 1, 57, 100
3, 231168, Note_on_c, 1, 57, 110
3, 231548, Note_off_c, 1, 57, 100
3, 231552, Note_on_c, 1, 50, 110
3, 231644, Note_off_c, 1, 50, 100
3, 231648, Note_on_c, 1, 49, 110
3, 231740, Note_off_c, 1, 49, 100
3, 231744, Note_on_c, 1, 47, 110
3, 231836, Note_off_c, 1, 47, 100
3, 231840, Note_on_c, 1, 45, 110
3, 231932, Note_off_c, 1, 45, 100
3, 231936, Note_on_c, 1, 43, 110
3, 232028, Note_off_c, 1, 43, 100
3, 232032, Note_on_c, 1, 42, 110
3, 232124, Note_off_c, 1, 42, 100
3, 232128, Note_on_c, 1, 54, 110
3, 232220, Note_off_c, 1, 54, 100
3, 232224, Note_on_c, 1, 55, 110
3, 232316, Note_off_c, 1, 55, 100
3, 232320, Note_on_c, 1, 57, 110
3, 232412, Note_off_c, 1, 57, 100
3, 232416, Note_on_c, 1, 59, 110
3, 232508, Note_off_c, 1, 59, 100
3, 232512, Note_on_c, 1, 61, 110
3, 232604, Note_off_c, 1, 61, 100
3, 232608, Note_on_c, 1, 62, 110
3, 232700, Note_off_c, 1, 62, 100
3, 232704, Note_on_c, 1, 47, 110
3, 232796, Note_off_c, 1, 47, 100
3, 232800, Note_on_c, 1, 45, 110
3, 232892, Note_off_c, 1, 45, 100
3, 232896, Note_on_c, 1, 43, 110
3, 232988, Note_off_c, 1, 43, 100
3, 232992, Note_on_c, 1, 42, 110
3, 233084, Note_off_c, 1, 42, 100
3, 233088, Note_on_c, 1, 40, 110
3, 233180, Note_off_c, 1, 40, 100
3, 233184, Note_on_c, 1, 38, 110
3, 233276, Note_off_c, 1, 38, 100
3, 233280, Note_on_c, 1, 50, 110
3, 233372, Note_off_c, 1, 50, 100
3, 233376, Note_on_c, 1, 52, 110
3, 233468, Note_off_c, 1, 52, 100
3, 233472, Note_on_c, 1, 54, 110
3, 233564, Note_off_c, 1, 54, 100
3, 233568, Note_on_c, 1, 55, 110
3, 233660, Note_off_c, 1, 55, 100
3, 233664, Note_on_c, 1, 57, 110
3, 233756, Note_off_c, 1, 57, 100
3, 233760, Note_on_c, 1, 59, 110
3, 233852, Note_off_c, 1, 59, 100
3, 233856, Note_on_c, 1, 59, 110
3, 233856, Note_on_c, 1, 55, 110
3, 233948, Note_off_c, 1, 59, 100
3, 233948, Note_off_c, 1, 55, 100
3, 233952, Note_on_c, 1, 57, 110
3, 233952, Note_on_c, 1, 54, 110
3, 234044, Note_off_c, 1, 57, 100
3, 234044, Note_off_c, 1, 54, 100
3, 234048, Note_on_c, 1, 55, 110
3, 234048, Note_on_c, 1, 52, 110
3, 234140, Note_off_c, 1, 55, 100
3, 234140, Note_off_c, 1, 52, 100
3, 234144, Note_on_c, 1, 54, 110
3, 234144, Note_on_c, 1, 50, 110
3, 234236, Note_off_c, 1, 54, 100
3, 234236, Note_off_c, 1, 50, 100
3, 234240, Note_on_c, 1, 52, 110
3, 234240, Note_on_c, 1, 49, 110
3, 234332, Note_off_c, 1, 52, 100
3, 234332, Note_off_c, 1, 49, 100
3, 234336, Note_on_c, 1, 50, 110
3, 234336, Note_on_c, 1, 47, 110
3, 234428, Note_off_c, 1, 50, 100
3, 234428, Note_off_c, 1, 47, 100
3, 234624, Note_on_c, 1, 50, 110
3, 234624, Note_on_c, 1, 47, 110
3, 235004, Note_off_c, 1, 50, 100
3, 235004, Note_off_c, 1, 47, 100
3, 235008, Note_on_c, 1, 43, 110
3, 235100, Note_off_c, 1, 43, 100
3, 235104, Note_on_c, 1, 45, 110
3, 235196, Note_off_c, 1, 45, 100
3, 235200, Note_on_c, 1, 47, 110
3, 235292, Note_off_c, 1, 47, 100
3, 235296, Note_on_c, 1, 48, 110
3, 235388, Note_off_c, 1, 48, 100
3, 235392, Note_on_c, 1, 50, 110
3, 235484, Note_off_c, 1, 50, 100
3, 235488, Note_on_c, 1, 52, 110
3, 235580, Note_off_c, 1, 52, 100
3, 235584, Note_on_c, 1, 47, 110
3, 235676, Note_off_c, 1, 47, 100
3, 235680, Note_on_c, 1, 49, 110
3, 235772, Note_off_c, 1, 49, 100
3, 235776, Note_on_c, 1, 50, 110
3, 235868, Note_off_c, 1, 50, 100
3, 235872, Note_on_c, 1, 52, 110
3, 235964, Note_off_c, 1, 52, 100
3, 235968, Note_on_c, 1, 54, 110
3, 236060, Note_off_c, 1, 54, 100
3, 236064, Note_on_c, 1, 55, 110
3, 236156, Note_off_c, 1, 55, 100
3, 236160, Note_on_c, 1, 45, 110
3, 236252, Note_off_c, 1, 45, 100
3, 236256, Note_on_c, 1, 47, 110
3, 236348, Note_off_c, 1, 47, 100
3, 236352, Note_on_c, 1, 49, 110
3, 236444, Note_off_c, 1, 49, 100
3, 236448, Note_on_c, 1, 50, 110
3, 236540, Note_off_c, 1, 50, 100
3, 236544, Note_on_c, 1, 52, 110
3, 236636, Note_off_c, 1, 52, 100
3, 236640, Note_on_c, 1, 53, 110
3, 236732, Note_off_c, 1, 53, 100
3, 236736, Note_on_c, 1, 45, 110
3, 236828, Note_off_c, 1, 45, 100
3, 236832, Note_on_c, 1, 47, 110
3, 236924, Note_off_c, 1, 47, 100
3, 236928, Note_on_c, 1, 49, 110
3, 237020, Note_off_c, 1, 49, 100
3, 237024, Note_on_c, 1, 50, 110
3, 237116, Note_off_c, 1, 50, 100
3, 237120, Note_on_c, 1, 49, 110
3, 237212, Note_off_c, 1, 49, 100
3, 237216, Note_on_c, 1, 47, 110
3, 237308, Note_off_c, 1, 47, 100
3, 237312, Note_on_c, 1, 46, 110
3, 237788, Note_off_c, 1, 46, 100
3, 237792, Note_on_c, 1, 44, 110
3, 237884, Note_off_c, 1, 44, 100
3, 237888, Note_on_c, 1, 42, 110
3, 237980, Note_off_c, 1, 42, 100
3, 237984, Note_on_c, 1, 44, 110
3, 238076, Note_off_c, 1, 44, 100
3, 238080, Note_on_c, 1, 46, 110
3, 238460, Note_off_c, 1, 46, 100
3, 238464, Note_on_c, 1, 47, 110
3, 238556, Note_off_c, 1, 47, 100
3, 238560, Note_on_c, 1, 49, 110
3, 238652, Note_off_c, 1, 49, 100
3, 238656, Note_on_c, 1, 47, 110
3, 238748, Note_off_c, 1, 47, 100
3, 238752, Note_on_c, 1, 45, 110
3, 238844, Note_off_c, 1, 45, 100
3, 238848, Note_on_c, 1, 44, 110
3, 238940, Note_off_c, 1, 44, 100
3, 238944, Note_on_c, 1, 50, 110
3, 239036, Note_off_c, 1, 50, 100
3, 239040, Note_on_c, 1, 47, 110
3, 239132, Note_off_c, 1, 47, 100
3, 239136, Note_on_c, 1, 53, 110
3, 239228, Note_off_c, 1, 53, 100
3, 239232, Note_on_c, 1, 56, 110
3, 239324, Note_off_c, 1, 56, 100
3, 239616, Note_on_c, 1, 45, 110
3, 239708, Note_off_c, 1, 45, 100
3, 239712, Note_on_c, 1, 54, 110
3, 239804, Note_off_c, 1, 54, 100
3, 239808, Note_on_c, 1, 50, 110
3, 239900, Note_off_c, 1, 50, 100
3, 239904, Note_on_c, 1, 57, 110
3, 239996, Note_off_c, 1, 57, 100
3, 240000, Note_on_c, 1, 54, 110
3, 240092, Note_off_c, 1, 54, 100
3, 240096, Note_on_c, 1, 62, 110
3, 240188, Note_off_c, 1, 62, 100
3, 240192, Note_on_c, 1, 47, 110
3, 240380, Note_off_c, 1, 47, 100
3, 240384, Note_on_c, 1, 49, 110
3, 240572, Note_off_c, 1, 49, 100
3, 240576, Note_on_c, 1, 50, 110
3, 240764, Note_off_c, 1, 50, 100
3, 240768, Note_on_c, 1, 31, 110
3, 240956, Note_off_c, 1, 31, 100
3, 241152, Note_on_c, 1, 49, 110
3, 241200, Note_on_c, 1, 50, 110
3, 241232, Note_off_c, 1, 49, 100
3, 241248, Note_on_c, 1, 49, 110
3, 241280, Note_off_c, 1, 50, 100
3, 241296, Note_on_c, 1, 50, 110
3, 241328, Note_off_c, 1, 49, 100
3, 241344, Note_on_c, 1, 49, 110
3, 241376, Note_off_c, 1, 50, 100
3, 241392, Note_on_c, 1, 50, 110
3, 241424, Note_off_c, 1, 49, 100
3, 241440, Note_on_c, 1, 49, 110
3, 241472, Note_off_c, 1, 50, 100
3, 241488, Note_on_c, 1, 50, 110
3, 241520, Note_off_c, 1, 49, 100
3, 241536, Note_on_c, 1, 49, 110
3, 241568, Note_off_c, 1, 50, 100
3, 241584, Note_on_c, 1, 50, 110
3, 241616, Note_off_c, 1, 49, 100
3, 241632, Note_on_c, 1, 49, 110
3, 241664, Note_off_c, 1, 50, 100
3, 241680, Note_on_c, 1, 50, 110
3, 241712, Note_off_c, 1, 49, 100
3, 241728, Note_on_c, 1, 49, 110
3, 241760, Note_off_c, 1, 50, 100
3, 241776, Note_on_c, 1, 50, 110
3, 241808, Note_off_c, 1, 49, 100
3, 241824, Note_on_c, 1, 47, 110
3, 241856, Note_off_c, 1, 50, 100
3, 241872, Note_on_c, 1, 49, 110
3, 241904, Note_off_c, 1, 47, 100
3, 241920, Note_on_c, 1, 50, 110
3, 241952, Note_off_c, 1, 49, 100
3, 242300, Note_off_c, 1, 50, 100
3, 242496, Note_on_c, 1, 50, 110
3, 242588, Note_off_c, 1, 50, 100
3, 242592, Note_on_c, 1, 49, 110
3, 242684, Note_off_c, 1, 49, 100
3, 242688, Note_on_c, 1, 47, 110
3, 242780, Note_off_c, 1, 47, 100
3, 242784, Note_on_c, 1, 45, 110
3, 242876, Note_off_c, 1, 45, 100
3, 242880, Note_on_c, 1, 43, 110
3, 242972, Note_off_c, 1, 43, 100
3, 242976, Note_on_c, 1, 42, 110
3, 243068, Note_off_c, 1, 42, 100
3, 243072, Note_on_c, 1, 47, 110
3, 243452, Note_off_c, 1, 47, 100
3, 243648, Note_on_c, 1, 47, 110
3, 243740, Note_off_c, 1, 47, 100
3, 243744, Note_on_c, 1, 45, 110
3, 243836, Note_off_c, 1, 45, 100
3, 243840, Note_on_c, 1, 43, 110
3, 243932, Note_off_c, 1, 43, 100
3, 243936, Note_on_c, 1, 42, 110
3, 244028, Note_off_c, 1, 42, 100
3, 244032, Note_on_c, 1, 40, 110
3, 244124, Note_off_c, 1, 40, 100
3, 244128, Note_on_c, 1, 38, 110
3, 244220, Note_off_c, 1, 38, 100
3, 244224, Note_on_c, 1, 43, 110
3, 244604, Note_off_c, 1, 43, 100
3, 244800, Note_on_c, 1, 43, 110
3, 244892, Note_off_c, 1, 43, 100
3, 244896, Note_on_c, 1, 42, 110
3, 244988, Note_off_c, 1, 42, 100
3, 244992, Note_on_c, 1, 40, 110
3, 245084, Note_off_c, 1, 40, 100
3, 245088, Note_on_c, 1, 39, 110
3, 245180, Note_off_c, 1, 39, 100
3, 245184, Note_on_c, 1, 40, 110
3, 245276, Note_off_c, 1, 40, 100
3, 245280, Note_on_c, 1, 38, 110
3, 245372, Note_off_c, 1, 38, 100
3, 245376, Note_on_c, 1, 37, 110
3, 245468, Note_off_c, 1, 37, 100
3, 245472, Note_on_c, 1, 38, 110
3, 245564, Note_off_c, 1, 38, 100
3, 245568, Note_on_c, 1, 37, 110
3, 245660, Note_off_c, 1, 37, 100
3, 245664, Note_on_c, 1, 35, 110
3, 245756, Note_off_c, 1, 35, 100
3, 245760, Note_on_c, 1, 33, 110
3, 245852, Note_off_c, 1, 33, 100
3, 245856, Note_on_c, 1, 35, 110
3, 245948, Note_off_c, 1, 35, 100
3, 245952, Note_on_c, 1, 37, 110
3, 246044, Note_off_c, 1, 37, 100
3, 246048, Note_on_c, 1, 38, 110
3, 246140, Note_off_c, 1, 38, 100
3, 246144, Note_on_c, 1, 39, 110
3, 246236, Note_off_c, 1, 39, 100
3, 246240, Note_on_c, 1, 40, 110
3, 246332, Note_off_c, 1, 40, 100
3, 246336, Note_on_c, 1, 42, 110
3, 246428, Note_off_c, 1, 42, 100
3, 246432, Note_on_c, 1, 40, 110
3, 246524, Note_off_c, 1, 40, 100
3, 246528, Note_on_c, 1, 38, 110
3, 246620, Note_off_c, 1, 38, 100
3, 246624, Note_on_c, 1, 40, 110
3, 246716, Note_off_c, 1, 40, 100
3, 246720, Note_on_c, 1, 38, 110
3, 246812, Note_off_c, 1, 38, 100
3, 246816, Note_on_c, 1, 37, 110
3, 246908, Note_off_c, 1, 37, 100
3, 246912, Note_on_c, 1, 35, 110
3, 247004, Note_off_c, 1, 35, 100
3, 247008, Note_on_c, 1, 37, 110
3, 247100, Note_off_c, 1, 37, 100
3, 247104, Note_on_c, 1, 38, 110
3, 247196, Note_off_c, 1, 38, 100
3, 247200, Note_on_c, 1, 40, 110
3, 247292, Note_off_c, 1, 40, 100
3, 247296, Note_on_c, 1, 41, 110
3, 247388, Note_off_c, 1, 41, 100
3, 247392, Note_on_c, 1, 42, 110
3, 247484, Note_off_c, 1, 42, 100
3, 247488, Note_on_c, 1, 43, 110
3, 247580, Note_off_c, 1, 43, 100
3, 247584, Note_on_c, 1, 42, 110
3, 247676, Note_off_c, 1, 42, 100
3, 247680, Note_on_c, 1, 40, 110
3, 247772, Note_off_c, 1, 40, 100
3, 247776, Note_on_c, 1, 41, 110
3, 247868, Note_off_c, 1, 41, 100
3, 247872, Note_on_c, 1, 40, 110
3, 247964, Note_off_c, 1, 40, 100
3, 247968, Note_on_c, 1, 38, 110
3, 248060, Note_off_c, 1, 38, 100
3, 248064, Note_on_c, 1, 36, 110
3, 248156, Note_off_c, 1, 36, 100
3, 248160, Note_on_c, 1, 38, 110
3, 248252, Note_off_c, 1, 38, 100
3, 248256, Note_on_c, 1, 40, 110
3, 248348, Note_off_c, 1, 40, 100
3, 248352, Note_on_c, 1, 41, 110
3, 248444, Note_off_c, 1, 41, 100
3, 248448, Note_on_c, 1, 42, 110
3, 248540, Note_off_c, 1, 42, 100
3, 248544, Note_on_c, 1, 43, 110
3, 248636, Note_off_c, 1, 43, 100
3, 248640, Note_on_c, 1, 45, 110
3, 248732, Note_off_c, 1, 45, 100
3, 248736, Note_on_c, 1, 43, 110
3, 248828, Note_off_c, 1, 43, 100
3, 248832, Note_on_c, 1, 42, 110
3, 248924, Note_off_c, 1, 42, 100
3, 248928, Note_on_c, 1, 43, 110
3, 249020, Note_off_c, 1, 43, 100
3, 249024, Note_on_c, 1, 42, 110
3, 249116, Note_off_c, 1, 42, 100
3, 249120, Note_on_c, 1, 40, 110
3, 249212, Note_off_c, 1, 40, 100
3, 249216, Note_on_c, 1, 38, 110
3, 249308, Note_off_c, 1, 38, 100
3, 249312, Note_on_c, 1, 40, 110
3, 249404, Note_off_c, 1, 40, 100
3, 249408, Note_on_c, 1, 42, 110
3, 249500, Note_off_c, 1, 42, 100
3, 249504, Note_on_c, 1, 43, 110
3, 249596, Note_off_c, 1, 43, 100
3, 249600, Note_on_c, 1, 44, 110
3, 249692, Note_off_c, 1, 44, 100
3, 249696, Note_on_c, 1, 45, 110
3, 249788, Note_off_c, 1, 45, 100
3, 249792, Note_on_c, 1, 47, 110
3, 249884, Note_off_c, 1, 47, 100
3, 249888, Note_on_c, 1, 45, 110
3, 249980, Note_off_c, 1, 45, 100
3, 249984, Note_on_c, 1, 43, 110
3, 249984, Note_on_c, 1, 59, 110
3, 250076, Note_off_c, 1, 59, 100
3, 250080, Note_on_c, 1, 60, 110
3, 250172, Note_off_c, 1, 43, 100
3, 250172, Note_off_c, 1, 60, 100
3, 250176, Note_on_c, 1, 59, 110
3, 250268, Note_off_c, 1, 59, 100
3, 250272, Note_on_c, 1, 57, 110
3, 250364, Note_off_c, 1, 57, 100
3, 250368, Note_on_c, 1, 55, 100
3, 250464, Note_on_c, 1, 57, 100
3, 250556, Note_off_c, 1, 55, 100
3, 250556, Note_off_c, 1, 57, 100
3, 250560, Note_on_c, 1, 53, 100
3, 250560, Note_on_c, 1, 59, 100
3, 250652, Note_off_c, 1, 59, 100
3, 250656, Note_on_c, 1, 60, 101
3, 250748, Note_off_c, 1, 53, 100
3, 250748, Note_off_c, 1, 60, 100
3, 250752, Note_on_c, 1, 52, 101
3, 250752, Note_on_c, 1, 61, 101
3, 250844, Note_off_c, 1, 61, 100
3, 250848, Note_on_c, 1, 62, 102
3, 250940, Note_off_c, 1, 52, 100
3, 250940, Note_off_c, 1, 62, 100
3, 250944, Note_on_c, 1, 56, 102
3, 251036, Note_off_c, 1, 56, 100
3, 251040, Note_on_c, 1, 62, 103
3, 251132, Note_off_c, 1, 62, 100
3, 251136, Key_signature, 1, "major"
3, 251136, Note_on_c, 1, 56, 103
3, 251136, Note_on_c, 1, 60, 103
3, 251228, Note_off_c, 1, 60, 100
3, 251232, Note_on_c, 1, 62, 104
3, 251324, Note_off_c, 1, 62, 100
3, 251328, Note_on_c, 1, 60, 104
3, 251420, Note_off_c, 1, 60, 100
3, 251424, Note_on_c, 1, 59, 105
3, 251516, Note_off_c, 1, 56, 100
3, 251516, Note_off_c, 1, 59, 100
3, 251520, Note_on_c, 1, 57, 105
3, 251520, Note_on_c, 1, 57, 105
3, 251612, Note_off_c, 1, 57, 100
3, 251616, Note_on_c, 1, 59, 106
3, 251708, Note_off_c, 1, 57, 100
3, 251708, Note_off_c, 1, 59, 100
3, 251712, Note_on_c, 1, 55, 106
3, 251712, Note_on_c, 1, 60, 106
3, 251804, Note_off_c, 1, 60, 100
3, 251808, Note_on_c, 1, 62, 106
3, 251900, Note_off_c, 1, 55, 100
3, 251900, Note_off_c, 1, 62, 100
3, 251904, Note_on_c, 1, 54, 107
3, 251904, Note_on_c, 1, 63, 107
3, 251996, Note_off_c, 1, 63, 100
3, 252000, Note_on_c, 1, 64, 107
3, 252092, Note_off_c, 1, 54, 100
3, 252092, Note_off_c, 1, 64, 100
3, 252096, Note_on_c, 1, 58, 108
3, 252188, Note_off_c, 1, 58, 100
3, 252192, Note_on_c, 1, 64, 108
3, 252284, Note_off_c, 1, 64, 100
3, 252288, Note_on_c, 1, 58, 109
3, 252288, Note_on_c, 1, 62, 109
3, 252380, Note_off_c, 1, 62, 100
3, 252384, Note_on_c, 1, 64, 109
3, 252476, Note_off_c, 1, 64, 100
3, 252480, Note_on_c, 1, 62, 110
3, 252572, Note_off_c, 1, 62, 100
3, 252576, Note_on_c, 1, 61, 110
3, 252668, Note_off_c, 1, 58, 100
3, 252668, Note_off_c, 1, 61, 100
3, 252672, Note_on_c, 1, 59, 111
3, 252672, Note_on_c, 1, 59, 111
3, 252764, Note_off_c, 1, 59, 100
3, 252768, Note_on_c, 1, 61, 111
3, 252860, Note_off_c, 1, 59, 100
3, 252860, Note_off_c, 1, 61, 100
3, 252864, Note_on_c, 1, 57, 112
3, 252864, Note_on_c, 1, 62, 112
3, 252956, Note_off_c, 1, 62, 100
3, 252960, Note_on_c, 1, 64, 112
3, 253052, Note_off_c, 1, 57, 100
3, 253052, Note_off_c, 1, 64, 100
3, 253056, Note_on_c, 1, 55, 113
3, 253056, Note_on_c, 1, 65, 113
3, 253148, Note_off_c, 1, 65, 100
3, 253152, Note_on_c, 1, 66, 113
3, 253244, Note_off_c, 1, 55, 100
3, 253244, Note_off_c, 1, 66, 100
3, 253248, Note_on_c, 1, 67, 113
3, 253340, Note_off_c, 1, 67, 100
3, 253344, Note_on_c, 1, 65, 114
3, 253436, Note_off_c, 1, 65, 100
3, 253440, Note_on_c, 1, 59, 114
3, 253440, Note_on_c, 1, 64, 114
3, 253532, Note_off_c, 1, 64, 100
3, 253536, Note_on_c, 1, 65, 115
3, 253628, Note_off_c, 1, 65, 100
3, 253632, Note_on_c, 1, 64, 115
3, 253724, Note_off_c, 1, 64, 100
3, 253728, Note_on_c, 1, 62, 116
3, 253820, Note_off_c, 1, 59, 100
3, 253820, Note_off_c, 1, 62, 100
3, 253824, Note_on_c, 1, 60, 116
3, 253824, Note_on_c, 1, 60, 116
3, 253916, Note_off_c, 1, 60, 100
3, 253920, Note_on_c, 1, 62, 117
3, 254012, Note_off_c, 1, 60, 100
3, 254012, Note_off_c, 1, 62, 100
3, 254016, Note_on_c, 1, 59, 117
3, 254016, Note_on_c, 1, 64, 117
3, 254108, Note_off_c, 1, 64, 100
3, 254112, Note_on_c, 1, 62, 118
3, 254204, Note_off_c, 1, 59, 100
3, 254204, Note_off_c, 1, 62, 100
3, 254208, Note_on_c, 1, 57, 118
3, 254208, Note_on_c, 1, 60, 118
3, 254300, Note_off_c, 1, 60, 100
3, 254304, Note_on_c, 1, 62, 119
3, 254396, Note_off_c, 1, 57, 100
3, 254396, Note_off_c, 1, 62, 100
3, 254400, Note_on_c, 1, 55, 119
3, 254400, Note_on_c, 1, 60, 119
3, 254492, Note_off_c, 1, 60, 100
3, 254496, Note_on_c, 1, 59, 119
3, 254588, Note_off_c, 1, 55, 100
3, 254588, Note_off_c, 1, 59, 100
3, 254592, Note_on_c, 1, 54, 120
3, 254592, Note_on_c, 1, 57, 120
3, 254684, Note_off_c, 1, 57, 100
3, 254688, Note_on_c, 1, 59, 120
3, 254780, Note_off_c, 1, 54, 100
3, 254780, Note_off_c, 1, 59, 100
3, 254784, Note_on_c, 1, 52, 120
3, 254784, Note_on_c, 1, 57, 120
3, 254876, Note_off_c, 1, 57, 100
3, 254880, Note_on_c, 1, 55, 120
3, 254972, Note_off_c, 1, 52, 100
3, 254972, Note_off_c, 1, 55, 100
3, 254976, Note_on_c, 1, 54, 120
3, 254976, Note_on_c, 1, 51, 120
3, 255068, Note_off_c, 1, 51, 100
3, 255072, Note_on_c, 1, 50, 120
3, 255164, Note_off_c, 1, 50, 100
3, 255168, Note_on_c, 1, 48, 120
3, 255260, Note_off_c, 1, 48, 100
3, 255264, Note_on_c, 1, 50, 120
3, 255356, Note_off_c, 1, 54, 100
3, 255356, Note_off_c, 1, 50, 100
3, 255360, Note_on_c, 1, 51, 120
3, 255452, Note_off_c, 1, 51, 100
3, 255456, Note_on_c, 1, 50, 120
3, 255548, Note_off_c, 1, 50, 100
3, 255552, Note_on_c, 1, 51, 120
3, 255644, Note_off_c, 1, 51, 100
3, 255648, Note_on_c, 1, 48, 120
3, 255740, Note_off_c, 1, 48, 100
3, 255936, Note_on_c, 1, 59, 110
3, 256124, Note_off_c, 1, 59, 100
3, 256128, Note_on_c, 1, 47, 125
3, 256320, Note_on_c, 1, 57, 110
3, 256508, Note_off_c, 1, 57, 100
3, 256512, Note_on_c, 1, 55, 110
3, 256700, Note_off_c, 1, 47, 100
3, 256892, Note_off_c, 1, 55, 100
3, 257088, Note_on_c, 1, 55, 110
3, 257276, Note_off_c, 1, 55, 100
3, 257280, Note_on_c, 1, 43, 125
3, 257472, Note_on_c, 1, 54, 110
3, 257660, Note_off_c, 1, 54, 100
3, 257664, Note_on_c, 1, 52, 110
3, 257852, Note_off_c, 1, 43, 100
3, 257852, Note_off_c, 1, 52, 100
3, 257856, Note_on_c, 1, 50, 110
3, 257856, Note_on_c, 1, 47, 110
3, 258044, Note_off_c, 1, 50, 100
3, 258044, Note_off_c, 1, 47, 100
3, 258048, Note_on_c, 1, 48, 110
3, 258048, Note_on_c, 1, 45, 110
3, 258236, Note_off_c, 1, 48, 100
3, 258236, Note_off_c, 1, 45, 100
3, 258240, Note_on_c, 1, 60, 110
3, 258428, Note_off_c, 1, 60, 100
3, 258432, Note_on_c, 1, 52, 110
3, 258432, Note_on_c, 1, 48, 110
3, 258620, Note_off_c, 1, 52, 100
3, 258620, Note_off_c, 1, 48, 100
3, 258624, Note_on_c, 1, 50, 110
3, 258624, Note_on_c, 1, 47, 110
3, 258812, Note_off_c, 1, 50, 100
3, 258812, Note_off_c, 1, 47, 100
3, 258816, Note_on_c, 1, 48, 110
3, 258816, Note_on_c, 1, 45, 110
3, 259004, Note_off_c, 1, 48, 100
3, 259004, Note_off_c, 1, 45, 100
3, 259008, Note_on_c, 1, 47, 110
3, 259008, Note_on_c, 1, 43, 110
3, 259196, Note_off_c, 1, 47, 100
3, 259196, Note_off_c, 1, 43, 100
3, 259200, Note_on_c, 1, 45, 110
3, 259200, Note_on_c, 1, 42, 110
3, 259388, Note_off_c, 1, 42, 100
3, 259392, Note_on_c, 1, 51, 110
3, 259580, Note_off_c, 1, 45, 100
3, 259580, Note_off_c, 1, 51, 100
3, 259584, Note_on_c, 1, 50, 127
3, 259776, Note_on_c, 1, 52, 110
3, 259964, Note_off_c, 1, 52, 100
3, 259968, Note_on_c, 1, 54, 110
3, 260156, Note_off_c, 1, 54, 100
3, 260160, Note_on_c, 1, 55, 110
3, 260348, Note_off_c, 1, 55, 100
3, 260352, Note_on_c, 1, 57, 110
3, 260540, Note_off_c, 1, 57, 100
3, 260544, Note_on_c, 1, 59, 110
3, 260732, Note_off_c, 1, 59, 100
3, 260736, Note_on_c, 1, 60, 110
3, 260924, Note_off_c, 1, 50, 100
3, 260924, Note_off_c, 1, 60, 100
3, 260928, Note_on_c, 1, 59, 110
3, 260928, Note_on_c, 1, 50, 110
3, 261116, Note_off_c, 1, 59, 100
3, 261116, Note_off_c, 1, 50, 100
3, 261120, Note_on_c, 1, 57, 110
3, 261120, Note_on_c, 1, 48, 110
3, 261308, Note_off_c, 1, 57, 100
3, 261308, Note_off_c, 1, 48, 100
3, 261312, Note_on_c, 1, 47, 110
3, 261312, Note_on_c, 1, 55, 110
3, 261500, Note_off_c, 1, 47, 100
3, 261504, Note_on_c, 1, 47, 110
3, 261692, Note_off_c, 1, 55, 100
3, 261696, Note_on_c, 1, 60, 110
3, 261884, Note_off_c, 1, 47, 100
3, 261888, Note_on_c, 1, 50, 110
3, 262076, Note_off_c, 1, 60, 100
3, 262080, Note_on_c, 1, 59, 110
3, 262268, Note_off_c, 1, 50, 100
3, 262268, Note_off_c, 1, 59, 100
3, 262272, Note_on_c, 1, 58, 110
3, 262272, Note_on_c, 1, 52, 110
3, 262364, Note_off_c, 1, 58, 100
3, 262652, Note_off_c, 1, 52, 100
3, 262656, Note_on_c, 1, 54, 110
3, 262748, Note_off_c, 1, 54, 100
3, 262752, Note_on_c, 1, 57, 110
3, 262844, Note_off_c, 1, 57, 100
3, 262848, Note_on_c, 1, 55, 110
3, 262940, Note_off_c, 1, 55, 100
3, 262944, Note_on_c, 1, 54, 110
3, 263036, Note_off_c, 1, 54, 100
3, 263040, Note_on_c, 1, 52, 110
3, 263132, Note_off_c, 1, 52, 100
3, 263136, Note_on_c, 1, 50, 110
3, 263228, Note_off_c, 1, 50, 100
3, 263232, Note_on_c, 1, 52, 110
3, 263324, Note_off_c, 1, 52, 100
3, 263328, Note_on_c, 1, 54, 110
3, 263420, Note_off_c, 1, 54, 100
3, 263424, Note_on_c, 1, 55, 110
3, 263516, Note_off_c, 1, 55, 100
3, 263520, Note_on_c, 1, 50, 110
3, 263612, Note_off_c, 1, 50, 100
3, 263616, Note_on_c, 1, 55, 110
3, 263708, Note_off_c, 1, 55, 100
3, 263712, Note_on_c, 1, 54, 110
3, 263804, Note_off_c, 1, 54, 100
3, 263808, Note_on_c, 1, 52, 110
3, 263900, Note_off_c, 1, 52, 100
3, 263904, Note_on_c, 1, 54, 110
3, 263996, Note_off_c, 1, 54, 100
3, 264000, Note_on_c, 1, 52, 110
3, 264092, Note_off_c, 1, 52, 100
3, 264096, Note_on_c, 1, 50, 110
3, 264188, Note_off_c, 1, 50, 100
3, 264192, Note_on_c, 1, 49, 110
3, 264284, Note_off_c, 1, 49, 100
3, 264288, Note_on_c, 1, 50, 110
3, 264380, Note_off_c, 1, 50, 100
3, 264384, Note_on_c, 1, 49, 110
3, 264476, Note_off_c, 1, 49, 100
3, 264480, Note_on_c, 1, 47, 110
3, 264572, Note_off_c, 1, 47, 100
3, 264576, Note_on_c, 1, 50, 110
3, 264576, Note_on_c, 1, 45, 110
3, 264624, Note_on_c, 1, 52, 110
3, 264656, Note_off_c, 1, 50, 100
3, 264672, Note_on_c, 1, 50, 110
3, 264704, Note_off_c, 1, 52, 100
3, 264720, Note_on_c, 1, 52, 110
3, 264752, Note_off_c, 1, 50, 100
3, 264764, Note_off_c, 1, 45, 100
3, 264768, Note_on_c, 1, 50, 110
3, 264768, Note_on_c, 1, 44, 110
3, 264800, Note_off_c, 1, 52, 100
3, 264816, Note_on_c, 1, 52, 110
3, 264848, Note_off_c, 1, 50, 100
3, 264864, Note_on_c, 1, 50, 110
3, 264896, Note_off_c, 1, 52, 100
3, 264912, Note_on_c, 1, 52, 110
3, 264944, Note_off_c, 1, 50, 100
3, 264956, Note_off_c, 1, 44, 100
3, 264960, Note_on_c, 1, 50, 110
3, 264960, Note_on_c, 1, 45, 110
3, 264992, Note_off_c, 1, 52, 100
3, 265008, Note_on_c, 1, 52, 110
3, 265040, Note_off_c, 1, 50, 100
3, 265056, Note_on_c, 1, 50, 110
3, 265088, Note_off_c, 1, 52, 100
3, 265104, Note_on_c, 1, 52, 110
3, 265136, Note_off_c, 1, 50, 100
3, 265152, Note_on_c, 1, 50, 110
3, 265184, Note_off_c, 1, 52, 100
3, 265200, Note_on_c, 1, 52, 110
3, 265232, Note_off_c, 1, 50, 100
3, 265248, Note_on_c, 1, 49, 110
3, 265280, Note_off_c, 1, 52, 100
3, 265296, Note_on_c, 1, 50, 110
3, 265328, Note_off_c, 1, 49, 100
3, 265344, Note_on_c, 1, 49, 110
3, 265376, Note_off_c, 1, 50, 100
3, 265724, Note_off_c, 1, 45, 100
3, 265724, Note_off_c, 1, 49, 100
3, 265920, Note_on_c, 1, 50, 110
3, 265920, Note_on_c, 1, 47, 110
3, 266012, Note_off_c, 1, 50, 100
3, 266016, Note_on_c, 1, 52, 110
3, 266108, Note_off_c, 1, 47, 100
3, 266108, Note_off_c, 1, 52, 100
3, 266112, Note_on_c, 1, 45, 110
3, 266112, Note_on_c, 1, 54, 110
3, 266204, Note_off_c, 1, 54, 100
3, 266208, Note_on_c, 1, 55, 110
3, 266300, Note_off_c, 1, 55, 100
3, 266304, Note_on_c, 1, 57, 110
3, 266396, Note_off_c, 1, 57, 100
3, 266400, Note_on_c, 1, 59, 110
3, 266492, Note_off_c, 1, 45, 100
3, 266492, Note_off_c, 1, 59, 100
3, 266496, Note_on_c, 1, 54, 110
3, 266876, Note_off_c, 1, 54, 100
3, 267072, Note_on_c, 1, 43, 110
3, 267072, Note_on_c, 1, 54, 110
3, 267164, Note_off_c, 1, 54, 100
3, 267168, Note_on_c, 1, 55, 110
3, 267260, Note_off_c, 1, 43, 100
3, 267260, Note_off_c, 1, 55, 100
3, 267264, Note_on_c, 1, 54, 110
3, 267264, Note_on_c, 1, 57, 110
3, 267356, Note_off_c, 1, 57, 100
3, 267360, Note_on_c, 1, 59, 110
3, 267452, Note_off_c, 1, 59, 100
3, 267456, Note_on_c, 1, 61, 110
3, 267548, Note_off_c, 1, 61, 100
3, 267552, Note_on_c, 1, 62, 110
3, 267644, Note_off_c, 1, 54, 100
3, 267644, Note_off_c, 1, 62, 100
3, 267648, Note_on_c, 1, 57, 110
3, 268028, Note_off_c, 1, 57, 100
3, 268224, Note_on_c, 1, 50, 110
3, 268224, Note_on_c, 1, 57, 110
3, 268316, Note_off_c, 1, 57, 100
3, 268320, Note_on_c, 1, 59, 110
3, 268412, Note_off_c, 1, 50, 100
3, 268412, Note_off_c, 1, 59, 100
3, 268416, Note_on_c, 1, 52, 110
3, 268508, Note_off_c, 1, 52, 100
3, 268512, Note_on_c, 1, 51, 110
3, 268604, Note_off_c, 1, 51, 100
3, 268608, Note_on_c, 1, 52, 110
3, 268700, Note_off_c, 1, 52, 100
3, 268704, Note_on_c, 1, 54, 110
3, 268796, Note_off_c, 1, 54, 100
3, 268800, Note_on_c, 1, 55, 110
3, 268892, Note_off_c, 1, 55, 100
3, 268896, Note_on_c, 1, 54, 110
3, 268988, Note_off_c, 1, 54, 100
3, 268992, Note_on_c, 1, 55, 110
3, 269084, Note_off_c, 1, 55, 100
3, 269088, Note_on_c, 1, 57, 110
3, 269180, Note_off_c, 1, 57, 100
3, 269184, Note_on_c, 1, 59, 110
3, 269276, Note_off_c, 1, 59, 100
3, 269280, Note_on_c, 1, 57, 110
3, 269372, Note_off_c, 1, 57, 100
3, 269376, Note_on_c, 1, 55, 110
3, 269468, Note_off_c, 1, 55, 100
3, 269472, Note_on_c, 1, 56, 110
3, 269564, Note_off_c, 1, 56, 100
3, 269568, Note_on_c, 1, 45, 110
3, 269568, Note_on_c, 1, 57, 110
3, 269660, Note_off_c, 1, 57, 100
3, 269664, Note_on_c, 1, 56, 110
3, 269756, Note_off_c, 1, 45, 100
3, 269756, Note_off_c, 1, 56, 100
3, 269760, Note_on_c, 1, 57, 110
3, 269852, Note_off_c, 1, 57, 100
3, 269856, Note_on_c, 1, 59, 110
3, 269948, Note_off_c, 1, 59, 100
3, 269952, Note_on_c, 1, 61, 110
3, 270140, Note_off_c, 1, 61, 100
3, 270144, Note_on_c, 1, 45, 110
3, 270144, Note_on_c, 1, 49, 110
3, 270236, Note_off_c, 1, 49, 100
3, 270240, Note_on_c, 1, 50, 110
3, 270332, Note_off_c, 1, 50, 100
3, 270336, Note_on_c, 1, 52, 110
3, 270524, Note_off_c, 1, 45, 100
3, 270528, Note_on_c, 1, 47, 110
3, 270716, Note_off_c, 1, 47, 100
3, 270720, Note_on_c, 1, 49, 110
3, 270908, Note_off_c, 1, 52, 100
3, 270908, Note_off_c, 1, 49, 100
3, 270912, Note_on_c, 1, 50, 110
3, 270912, Note_on_c, 1, 54, 110
3, 271004, Note_off_c, 1, 54, 100
3, 271008, Note_on_c, 1, 55, 110
3, 271100, Note_off_c, 1, 55, 100
3, 271104, Note_on_c, 1, 57, 110
3, 271196, Note_off_c, 1, 57, 100
3, 271200, Note_on_c, 1, 55, 110
3, 271292, Note_off_c, 1, 55, 100
3, 271296, Note_on_c, 1, 54, 110
3, 271388, Note_off_c, 1, 54, 100
3, 271392, Note_on_c, 1, 52, 110
3, 271484, Note_off_c, 1, 50, 100
3, 271484, Note_off_c, 1, 52, 100
3, 271488, Note_on_c, 1, 50, 110
3, 271580, Note_off_c, 1, 50, 100
3, 271584, Note_on_c, 1, 52, 110
3, 271676, Note_off_c, 1, 52, 100
3, 271680, Note_on_c, 1, 54, 110
3, 271772, Note_off_c, 1, 54, 100
3, 271776, Note_on_c, 1, 55, 110
3, 271868, Note_off_c, 1, 55, 100
3, 271872, Note_on_c, 1, 57, 110
3, 271964, Note_off_c, 1, 57, 100
3, 271968, Note_on_c, 1, 59, 110
3, 272060, Note_off_c, 1, 59, 100
3, 272064, Note_on_c, 1, 60, 110
3, 272156, Note_off_c, 1, 60, 100
3, 272160, Note_on_c, 1, 62, 110
3, 272252, Note_off_c, 1, 62, 100
3, 272256, Note_on_c, 1, 64, 110
3, 272348, Note_off_c, 1, 64, 100
3, 272352, Note_on_c, 1, 62, 110
3, 272444, Note_off_c, 1, 62, 100
3, 272448, Note_on_c, 1, 64, 110
3, 272448, Note_on_c, 1, 50, 110
3, 272540, Note_off_c, 1, 64, 100
3, 272544, Note_on_c, 1, 66, 110
3, 272636, Note_off_c, 1, 50, 100
3, 272636, Note_off_c, 1, 66, 100
3, 272640, Note_on_c, 1, 67, 110
3, 272640, Note_on_c, 1, 55, 110
3, 272732, Note_off_c, 1, 55, 100
3, 272736, Note_on_c, 1, 59, 110
3, 272828, Note_off_c, 1, 59, 100
3, 272832, Note_on_c, 1, 55, 110
3, 272924, Note_off_c, 1, 55, 100
3, 272928, Note_on_c, 1, 52, 110
3, 273020, Note_off_c, 1, 67, 100
3, 273020, Note_off_c, 1, 52, 100
3, 273024, Note_on_c, 1, 54, 110
3, 273116, Note_off_c, 1, 54, 100
3, 273120, Note_on_c, 1, 52, 110
3, 273212, Note_off_c, 1, 52, 100
3, 273216, Note_on_c, 1, 54, 110
3, 273308, Note_off_c, 1, 54, 100
3, 273312, Note_on_c, 1, 55, 110
3, 273404, Note_off_c, 1, 55, 100
3, 273408, Note_on_c, 1, 57, 110
3, 273500, Note_off_c, 1, 57, 100
3, 273504, Note_on_c, 1, 59, 110
3, 273596, Note_off_c, 1, 59, 100
3, 273600, Note_on_c, 1, 61, 110
3, 273600, Note_on_c, 1, 47, 110
3, 273692, Note_off_c, 1, 61, 100
3, 273696, Note_on_c, 1, 63, 110
3, 273788, Note_off_c, 1, 47, 100
3, 273788, Note_off_c, 1, 63, 100
3, 273792, Note_on_c, 1, 64, 110
3, 273792, Note_on_c, 1, 52, 110
3, 274172, Note_off_c, 1, 64, 100
3, 274172, Note_off_c, 1, 52, 100
3, 274176, Note_on_c, 1, 52, 110
3, 274268, Note_off_c, 1, 52, 100
3, 274272, Note_on_c, 1, 50, 110
3, 274364, Note_off_c, 1, 50, 100
3, 274368, Note_on_c, 1, 52, 110
3, 274460, Note_off_c, 1, 52, 100
3, 274464, Note_on_c, 1, 54, 110
3, 274556, Note_off_c, 1, 54, 100
3, 274560, Note_on_c, 1, 55, 110
3, 274652, Note_off_c, 1, 55, 100
3, 274656, Note_on_c, 1, 57, 110
3, 274748, Note_off_c, 1, 57, 100
3, 274752, Note_on_c, 1, 59, 110
3, 274752, Note_on_c, 1, 45, 110
3, 274844, Note_off_c, 1, 59, 100
3, 274848, Note_on_c, 1, 61, 110
3, 274940, Note_off_c, 1, 45, 100
3, 274940, Note_off_c, 1, 61, 100
3, 274944, Note_on_c, 1, 62, 110
3, 274944, Note_on_c, 1, 50, 110
3, 275324, Note_off_c, 1, 62, 100
3, 275324, Note_off_c, 1, 50, 100
3, 275328, Note_on_c, 1, 57, 110
3, 275376, Note_on_c, 1, 59, 110
3, 275408, Note_off_c, 1, 57, 100
3, 275424, Note_on_c, 1, 57, 110
3, 275456, Note_off_c, 1, 59, 100
3, 275472, Note_on_c, 1, 59, 110
3, 275504, Note_off_c, 1, 57, 100
3, 275520, Note_on_c, 1, 57, 110
3, 275552, Note_off_c, 1, 59, 100
3, 275568, Note_on_c, 1, 59, 110
3, 275600, Note_off_c, 1, 57, 100
3, 275616, Note_on_c, 1, 57, 110
3, 275648, Note_off_c, 1, 59, 100
3, 275664, Note_on_c, 1, 59, 110
3, 275696, Note_off_c, 1, 57, 100
3, 275712, Note_on_c, 1, 57, 110
3, 275744, Note_off_c, 1, 59, 100
3, 275760, Note_on_c, 1, 59, 110
3, 275792, Note_off_c, 1, 57, 100
3, 275808, Note_on_c, 1, 57, 110
3, 275840, Note_off_c, 1, 59, 100
3, 275856, Note_on_c, 1, 59, 110
3, 275888, Note_off_c, 1, 57, 100
3, 275904, Note_on_c, 1, 57, 110
3, 275936, Note_off_c, 1, 59, 100
3, 275952, Note_on_c, 1, 59, 110
3, 275984, Note_off_c, 1, 57, 100
3, 276000, Note_on_c, 1, 57, 110
3, 276032, Note_off_c, 1, 59, 100
3, 276048, Note_on_c, 1, 59, 110
3, 276080, Note_off_c, 1, 57, 100
3, 276096, Note_on_c, 1, 56, 110
3, 276128, Note_off_c, 1, 59, 100
3, 276188, Note_off_c, 1, 56, 100
3, 276192, Note_on_c, 1, 59, 110
3, 276284, Note_off_c, 1, 59, 100
3, 276288, Note_on_c, 1, 56, 110
3, 276380, Note_off_c, 1, 56, 100
3, 276384, Note_on_c, 1, 52, 110
3, 276476, Note_off_c, 1, 52, 100
3, 276480, Note_on_c, 1, 55, 110
3, 276528, Note_on_c, 1, 57, 110
3, 276560, Note_off_c, 1, 55, 100
3, 276576, Note_on_c, 1, 55, 110
3, 276608, Note_off_c, 1, 57, 100
3, 276624, Note_on_c, 1, 57, 110
3, 276656, Note_off_c, 1, 55, 100
3, 276672, Note_on_c, 1, 55, 110
3, 276704, Note_off_c, 1, 57, 100
3, 276720, Note_on_c, 1, 57, 110
3, 276752, Note_off_c, 1, 55, 100
3, 276768, Note_on_c, 1, 55, 110
3, 276800, Note_off_c, 1, 57, 100
3, 276816, Note_on_c, 1, 57, 110
3, 276848, Note_off_c, 1, 55, 100
3, 276864, Note_on_c, 1, 55, 110
3, 276896, Note_off_c, 1, 57, 100
3, 276912, Note_on_c, 1, 57, 110
3, 276944, Note_off_c, 1, 55, 100
3, 276960, Note_on_c, 1, 55, 110
3, 276992, Note_off_c, 1, 57, 100
3, 277008, Note_on_c, 1, 57, 110
3, 277040, Note_off_c, 1, 55, 100
3, 277056, Note_on_c, 1, 55, 110
3, 277088, Note_off_c, 1, 57, 100
3, 277104, Note_on_c, 1, 57, 110
3, 277136, Note_off_c, 1, 55, 100
3, 277152, Note_on_c, 1, 55, 110
3, 277184, Note_off_c, 1, 57, 100
3, 277200, Note_on_c, 1, 57, 110
3, 277232, Note_off_c, 1, 55, 100
3, 277248, Note_on_c, 1, 54, 110
3, 277280, Note_off_c, 1, 57, 100
3, 277340, Note_off_c, 1, 54, 100
3, 277344, Note_on_c, 1, 57, 110
3, 277436, Note_off_c, 1, 57, 100
3, 277440, Note_on_c, 1, 54, 110
3, 277532, Note_off_c, 1, 54, 100
3, 277536, Note_on_c, 1, 50, 110
3, 277628, Note_off_c, 1, 50, 100
3, 277632, Note_on_c, 1, 53, 110
3, 277680, Note_on_c, 1, 55, 110
3, 277712, Note_off_c, 1, 53, 100
3, 277728, Note_on_c, 1, 53, 110
3, 277760, Note_off_c, 1, 55, 100
3, 277776, Note_on_c, 1, 55, 110
3, 277808, Note_off_c, 1, 53, 100
3, 277824, Note_on_c, 1, 53, 110
3, 277856, Note_off_c, 1, 55, 100
3, 277872, Note_on_c, 1, 55, 110
3, 277904, Note_off_c, 1, 53, 100
3, 277920, Note_on_c, 1, 53, 110
3, 277952, Note_off_c, 1, 55, 100
3, 277968, Note_on_c, 1, 55, 110
3, 278000, Note_off_c, 1, 53, 100
3, 278016, Note_on_c, 1, 53, 110
3, 278048, Note_off_c, 1, 55, 100
3, 278064, Note_on_c, 1, 55, 110
3, 278096, Note_off_c, 1, 53, 100
3, 278112, Note_on_c, 1, 53, 110
3, 278144, Note_off_c, 1, 55, 100
3, 278160, Note_on_c, 1, 55, 110
3, 278192, Note_off_c, 1, 53, 100
3, 278208, Note_on_c, 1, 53, 110
3, 278240, Note_off_c, 1, 55, 100
3, 278256, Note_on_c, 1, 55, 110
3, 278288, Note_off_c, 1, 53, 100
3, 278304, Note_on_c, 1, 53, 110
3, 278336, Note_off_c, 1, 55, 100
3, 278352, Note_on_c, 1, 55, 110
3, 278384, Note_off_c, 1, 53, 100
3, 278400, Note_on_c, 1, 51, 110
3, 278432, Note_off_c, 1, 55, 100
3, 278492, Note_off_c, 1, 51, 100
3, 278496, Note_on_c, 1, 55, 110
3, 278588, Note_off_c, 1, 55, 100
3, 278592, Note_on_c, 1, 51, 110
3, 278684, Note_off_c, 1, 51, 100
3, 278688, Note_on_c, 1, 48, 110
3, 278780, Note_off_c, 1, 48, 100
3, 278784, Note_on_c, 1, 56, 120
3, 278972, Note_off_c, 1, 56, 100
3, 279168, Note_on_c, 1, 41, 120
3, 279216, Note_on_c, 1, 43, 120
3, 279248, Note_off_c, 1, 41, 100
3, 279264, Note_on_c, 1, 41, 120
3, 279296, Note_off_c, 1, 43, 100
3, 279312, Note_on_c, 1, 43, 120
3, 279344, Note_off_c, 1, 41, 100
3, 279360, Note_on_c, 1, 41, 120
3, 279392, Note_off_c, 1, 43, 100
3, 279408, Note_on_c, 1, 43, 120
3, 279440, Note_off_c, 1, 41, 100
3, 279456, Note_on_c, 1, 41, 120
3, 279488, Note_off_c, 1, 43, 100
3, 279504, Note_on_c, 1, 43, 120
3, 279536, Note_off_c, 1, 41, 100
3, 279552, Note_on_c, 1, 41, 120
3, 279584, Note_off_c, 1, 43, 100
3, 279600, Note_on_c, 1, 43, 120
3, 279632, Note_off_c, 1, 41, 100
3, 279648, Note_on_c, 1, 41, 120
3, 279680, Note_off_c, 1, 43, 100
3, 279696, Note_on_c, 1, 43, 120
3, 279728, Note_off_c, 1, 41, 100
3, 279744, Note_on_c, 1, 41, 120
3, 279776, Note_off_c, 1, 43, 100
3, 279792, Note_on_c, 1, 43, 120
3, 279824, Note_off_c, 1, 41, 100
3, 279840, Note_on_c, 1, 41, 120
3, 279872, Note_off_c, 1, 43, 100
3, 279888, Note_on_c, 1, 43, 120
3, 279920, Note_off_c, 1, 41, 100
3, 279936, Key_signature, -3, "major"
3, 279936, Note_on_c, 1, 39, 120
3, 279968, Note_off_c, 1, 43, 100
3, 280316, Note_off_c, 1, 39, 100
3, 280512, Note_on_c, 1, 39, 110
3, 280604, Note_off_c, 1, 39, 100
3, 280608, Note_on_c, 1, 41, 110
3, 280700, Note_off_c, 1, 41, 100
3, 280704, Note_on_c, 1, 43, 110
3, 280796, Note_off_c, 1, 43, 100
3, 280800, Note_on_c, 1, 44, 110
3, 280892, Note_off_c, 1, 44, 100
3, 280896, Note_on_c, 1, 46, 110
3, 280988, Note_off_c, 1, 46, 100
3, 280992, Note_on_c, 1, 48, 110
3, 281084, Note_off_c, 1, 48, 100
3, 281088, Note_on_c, 1, 43, 110
3, 281468, Note_off_c, 1, 43, 100
3, 281664, Note_on_c, 1, 43, 110
3, 281756, Note_off_c, 1, 43, 100
3, 281760, Note_on_c, 1, 44, 110
3, 281852, Note_off_c, 1, 44, 100
3, 281856, Note_on_c, 1, 46, 110
3, 281948, Note_off_c, 1, 46, 100
3, 281952, Note_on_c, 1, 48, 110
3, 282044, Note_off_c, 1, 48, 100
3, 282048, Note_on_c, 1, 50, 110
3, 282140, Note_off_c, 1, 50, 100
3, 282144, Note_on_c, 1, 51, 110
3, 282236, Note_off_c, 1, 51, 100
3, 282240, Note_on_c, 1, 46, 110
3, 282620, Note_off_c, 1, 46, 100
3, 282816, Note_on_c, 1, 46, 110
3, 282908, Note_off_c, 1, 46, 100
3, 282912, Note_on_c, 1, 48, 110
3, 283004, Note_off_c, 1, 48, 100
3, 283008, Note_on_c, 1, 50, 110
3, 283100, Note_off_c, 1, 50, 100
3, 283104, Note_on_c, 1, 48, 110
3, 283196, Note_off_c, 1, 48, 100
3, 283200, Note_on_c, 1, 50, 110
3, 283292, Note_off_c, 1, 50, 100
3, 283296, Note_on_c, 1, 51, 110
3, 283388, Note_off_c, 1, 51, 100
3, 283392, Note_on_c, 1, 53, 110
3, 283484, Note_off_c, 1, 53, 100
3, 283488, Note_on_c, 1, 52, 110
3, 283580, Note_off_c, 1, 52, 100
3, 283584, Note_on_c, 1, 53, 110
3, 283676, Note_off_c, 1, 53, 100
3, 283680, Note_on_c, 1, 55, 110
3, 283772, Note_off_c, 1, 55, 100
3, 283776, Note_on_c, 1, 56, 110
3, 283868, Note_off_c, 1, 56, 100
3, 283872, Note_on_c, 1, 55, 110
3, 283964, Note_off_c, 1, 55, 100
3, 283968, Note_on_c, 1, 53, 110
3, 284060, Note_off_c, 1, 53, 100
3, 284064, Note_on_c, 1, 51, 110
3, 284156, Note_off_c, 1, 51, 100
3, 284160, Note_on_c, 1, 50, 110
3, 284252, Note_off_c, 1, 50, 100
3, 284256, Note_on_c, 1, 51, 110
3, 284348, Note_off_c, 1, 51, 100
3, 284352, Note_on_c, 1, 50, 110
3, 284444, Note_off_c, 1, 50, 100
3, 284448, Note_on_c, 1, 48, 110
3, 284540, Note_off_c, 1, 48, 100
3, 284544, Note_on_c, 1, 46, 110
3, 284636, Note_off_c, 1, 46, 100
3, 284640, Note_on_c, 1, 48, 110
3, 284732, Note_off_c, 1, 48, 100
3, 284736, Note_on_c, 1, 46, 110
3, 284828, Note_off_c, 1, 46, 100
3, 284832, Note_on_c, 1, 44, 110
3, 284924, Note_off_c, 1, 44, 100
3, 284928, Note_on_c, 1, 43, 110
3, 285020, Note_off_c, 1, 43, 100
3, 285024, Note_on_c, 1, 44, 110
3, 285116, Note_off_c, 1, 44, 100
3, 285120, Note_on_c, 1, 46, 110
3, 285212, Note_off_c, 1, 46, 100
3, 285216, Note_on_c, 1, 48, 110
3, 285308, Note_off_c, 1, 48, 100
3, 285312, Note_on_c, 1, 50, 110
3, 285404, Note_off_c, 1, 50, 100
3, 285408, Note_on_c, 1, 51, 110
3, 285500, Note_off_c, 1, 51, 100
3, 285504, Note_on_c, 1, 53, 110
3, 285596, Note_off_c, 1, 53, 100
3, 285600, Note_on_c, 1, 55, 110
3, 285692, Note_off_c, 1, 55, 100
3, 285696, Note_on_c, 1, 44, 120
3, 285788, Note_off_c, 1, 44, 100
3, 285792, Note_on_c, 1, 46, 120
3, 285884, Note_off_c, 1, 46, 100
3, 285888, Note_on_c, 1, 48, 120
3, 285980, Note_off_c, 1, 48, 100
3, 285984, Note_on_c, 1, 49, 120
3, 286076, Note_off_c, 1, 49, 100
3, 286080, Note_on_c, 1, 51, 120
3, 286172, Note_off_c, 1, 51, 100
3, 286176, Note_on_c, 1, 53, 120
3, 286268, Note_off_c, 1, 53, 100
3, 286272, Note_on_c, 1, 55, 120
3, 286364, Note_off_c, 1, 55, 100
3, 286368, Note_on_c, 1, 56, 120
3, 286460, Note_off_c, 1, 56, 100
3, 286464, Note_on_c, 1, 58, 120
3, 286556, Note_off_c, 1, 58, 100
3, 286560, Note_on_c, 1, 59, 120
3, 286652, Note_off_c, 1, 59, 100
3, 286656, Note_on_c, 1, 60, 120
3, 286844, Note_off_c, 1, 60, 100
3, 286848, Note_on_c, 1, 80, 120
3, 287036, Note_off_c, 1, 80, 100
3, 287232, Note_on_c, 1, 65, 120
3, 287280, Note_on_c, 1, 67, 120
3, 287312, Note_off_c, 1, 65, 100
3, 287328, Note_on_c, 1, 65, 120
3, 287360, Note_off_c, 1, 67, 100
3, 287376, Note_on_c, 1, 67, 120
3, 287408, Note_off_c, 1, 65, 100
3, 287424, Note_on_c, 1, 65, 120
3, 287456, Note_off_c, 1, 67, 100
3, 287472, Note_on_c, 1, 67, 120
3, 287504, Note_off_c, 1, 65, 100
3, 287520, Note_on_c, 1, 65, 120
3, 287552, Note_off_c, 1, 67, 100
3, 287568, Note_on_c, 1, 67, 120
3, 287600, Note_off_c, 1, 65, 100
3, 287616, Note_on_c, 1, 65, 120
3, 287648, Note_off_c, 1, 67, 100
3, 287664, Note_on_c, 1, 67, 120
3, 287696, Note_off_c, 1, 65, 100
3, 287712, Note_on_c, 1, 65, 120
3, 287744, Note_off_c, 1, 67, 100
3, 287760, Note_on_c, 1, 67, 120
3, 287792, Note_off_c, 1, 65, 100
3, 287808, Note_on_c, 1, 65, 120
3, 287840, Note_off_c, 1, 67, 100
3, 287856, Note_on_c, 1, 67, 120
3, 287888, Note_off_c, 1, 65, 100
3, 287904, Note_on_c, 1, 65, 120
3, 287936, Note_off_c, 1, 67, 100
3, 287952, Note_on_c, 1, 67, 120
3, 287984, Note_off_c, 1, 65, 100
3, 288000, Note_on_c, 1, 55, 120
3, 288032, Note_off_c, 1, 67, 100
3, 288092, Note_off_c, 1, 55, 100
3, 288096, Note_on_c, 1, 56, 120
3, 288188, Note_off_c, 1, 56, 100
3, 288192, Note_on_c, 1, 58, 120
3, 288284, Note_off_c, 1, 58, 100
3, 288288, Note_on_c, 1, 60, 120
3, 288380, Note_off_c, 1, 60, 100
3, 288384, Note_on_c, 1, 62, 120
3, 288476, Note_off_c, 1, 62, 100
3, 288480, Note_on_c, 1, 63, 120
3, 288572, Note_off_c, 1, 63, 100
3, 288576, Note_on_c, 1, 65, 120
3, 288668, Note_off_c, 1, 65, 100
3, 288672, Note_on_c, 1, 67, 120
3, 288764, Note_off_c, 1, 67, 100
3, 288768, Note_on_c, 1, 68, 120
3, 288860, Note_off_c, 1, 68, 100
3, 288864, Note_on_c, 1, 69, 120
3, 288956, Note_off_c, 1, 69, 100
3, 288960, Note_on_c, 1, 70, 120
3, 289148, Note_off_c, 1, 70, 100
3, 289152, Note_on_c, 1, 55, 120
3, 289340, Note_off_c, 1, 55, 100
3, 289536, Note_on_c, 1, 39, 120
3, 289584, Note_on_c, 1, 41, 120
3, 289616, Note_off_c, 1, 39, 100
3, 289632, Note_on_c, 1, 39, 120
3, 289664, Note_off_c, 1, 41, 100
3, 289680, Note_on_c, 1, 41, 120
3, 289712, Note_off_c, 1, 39, 100
3, 289728, Note_on_c, 1, 39, 120
3, 289760, Note_off_c, 1, 41, 100
3, 289776, Note_on_c, 1, 41, 120
3, 289808, Note_off_c, 1, 39, 100
3, 289824, Note_on_c, 1, 39, 120
3, 289856, Note_off_c, 1, 41, 100
3, 289872, Note_on_c, 1, 41, 120
3, 289904, Note_off_c, 1, 39, 100
3, 289920, Note_on_c, 1, 39, 120
3, 289952, Note_off_c, 1, 41, 100
3, 289968, Note_on_c, 1, 41, 120
3, 290000, Note_off_c, 1, 39, 100
3, 290016, Note_on_c, 1, 39, 120
3, 290048, Note_off_c, 1, 41, 100
3, 290064, Note_on_c, 1, 41, 120
3, 290096, Note_off_c, 1, 39, 100
3, 290112, Note_on_c, 1, 39, 120
3, 290144, Note_off_c, 1, 41, 100
3, 290160, Note_on_c, 1, 41, 120
3, 290192, Note_off_c, 1, 39, 100
3, 290208, Note_on_c, 1, 39, 120
3, 290240, Note_off_c, 1, 41, 100
3, 290256, Note_on_c, 1, 41, 120
3, 290288, Note_off_c, 1, 39, 100
3, 290304, Note_on_c, 1, 34, 120
3, 290336, Note_off_c, 1, 41, 100
3, 290492, Note_off_c, 1, 34, 100
3, 290688, Note_on_c, 1, 50, 120
3, 290736, Note_on_c, 1, 51, 120
3, 290768, Note_off_c, 1, 50, 100
3, 290784, Note_on_c, 1, 50, 120
3, 290808, Note_on_c, 1, 51, 120
3, 290816, Note_off_c, 1, 51, 100
3, 290864, Note_off_c, 1, 50, 100
3, 290880, Note_on_c, 1, 50, 120
3, 290888, Note_off_c, 1, 51, 100
3, 290928, Note_on_c, 1, 51, 120
3, 290960, Note_off_c, 1, 50, 100
3, 290976, Note_on_c, 1, 50, 120
3, 291000, Note_on_c, 1, 51, 120
3, 291008, Note_off_c, 1, 51, 100
3, 291056, Note_off_c, 1, 50, 100
3, 291072, Note_on_c, 1, 50, 120
3, 291080, Note_off_c, 1, 51, 100
3, 291120, Note_on_c, 1, 51, 120
3, 291152, Note_off_c, 1, 50, 100
3, 291168, Note_on_c, 1, 50, 120
3, 291192, Note_on_c, 1, 51, 120
3, 291200, Note_off_c, 1, 51, 100
3, 291248, Note_off_c, 1, 50, 100
3, 291264, Note_on_c, 1, 50, 120
3, 291272, Note_off_c, 1, 51, 100
3, 291312, Note_on_c, 1, 51, 120
3, 291344, Note_off_c, 1, 50, 100
3, 291360, Note_on_c, 1, 50, 120
3, 291384, Note_on_c, 1, 51, 120
3, 291392, Note_off_c, 1, 51, 100
3, 291440, Note_off_c, 1, 50, 100
3, 291456, Note_on_c, 1, 39, 120
3, 291464, Note_off_c, 1, 51, 100
3, 291644, Note_off_c, 1, 39, 100
3, 291840, Note_on_c, 1, 55, 120
3, 291888, Note_on_c, 1, 56, 120
3, 291920, Note_off_c, 1, 55, 100
3, 291936, Note_on_c, 1, 55, 120
3, 291968, Note_off_c, 1, 56, 100
3, 291984, Note_on_c, 1, 56, 120
3, 292016, Note_off_c, 1, 55, 100
3, 292032, Note_on_c, 1, 55, 120
3, 292064, Note_off_c, 1, 56, 100
3, 292080, Note_on_c, 1, 56, 120
3, 292112, Note_off_c, 1, 55, 100
3, 292128, Note_on_c, 1, 55, 120
3, 292160, Note_off_c, 1, 56, 100
3, 292176, Note_on_c, 1, 56, 120
3, 292208, Note_off_c, 1, 55, 100
3, 292224, Note_on_c, 1, 55, 120
3, 292256, Note_off_c, 1, 56, 100
3, 292272, Note_on_c, 1, 56, 120
3, 292304, Note_off_c, 1, 55, 100
3, 292320, Note_on_c, 1, 55, 120
3, 292352, Note_off_c, 1, 56, 100
3, 292368, Note_on_c, 1, 56, 120
3, 292400, Note_off_c, 1, 55, 100
3, 292416, Note_on_c, 1, 55, 120
3, 292448, Note_off_c, 1, 56, 100
3, 292464, Note_on_c, 1, 56, 120
3, 292496, Note_off_c, 1, 55, 100
3, 292512, Note_on_c, 1, 55, 120
3, 292544, Note_off_c, 1, 56, 100
3, 292560, Note_on_c, 1, 56, 120
3, 292592, Note_off_c, 1, 55, 100
3, 292608, Note_on_c, 1, 36, 120
3, 292640, Note_off_c, 1, 56, 100
3, 292796, Note_off_c, 1, 36, 100
3, 292992, Note_on_c, 1, 52, 120
3, 293040, Note_on_c, 1, 53, 120
3, 293072, Note_off_c, 1, 52, 100
3, 293088, Note_on_c, 1, 52, 120
3, 293120, Note_off_c, 1, 53, 100
3, 293136, Note_on_c, 1, 53, 120
3, 293168, Note_off_c, 1, 52, 100
3, 293184, Note_on_c, 1, 52, 120
3, 293216, Note_off_c, 1, 53, 100
3, 293232, Note_on_c, 1, 53, 120
3, 293264, Note_off_c, 1, 52, 100
3, 293280, Note_on_c, 1, 52, 120
3, 293312, Note_off_c, 1, 53, 100
3, 293328, Note_on_c, 1, 53, 120
3, 293360, Note_off_c, 1, 52, 100
3, 293376, Note_on_c, 1, 52, 120
3, 293408, Note_off_c, 1, 53, 100
3, 293424, Note_on_c, 1, 53, 120
3, 293456, Note_off_c, 1, 52, 100
3, 293472, Note_on_c, 1, 52, 120
3, 293504, Note_off_c, 1, 53, 100
3, 293520, Note_on_c, 1, 53, 120
3, 293552, Note_off_c, 1, 52, 100
3, 293568, Note_on_c, 1, 52, 120
3, 293600, Note_off_c, 1, 53, 100
3, 293616, Note_on_c, 1, 53, 120
3, 293648, Note_off_c, 1, 52, 100
3, 293664, Note_on_c, 1, 52, 120
3, 293696, Note_off_c, 1, 53, 100
3, 293712, Note_on_c, 1, 53, 120
3, 293744, Note_off_c, 1, 52, 100
3, 293760, Note_on_c, 1, 41, 123
3, 293792, Note_off_c, 1, 53, 100
3, 293948, Note_off_c, 1, 41, 100
3, 294144, Note_on_c, 1, 56, 120
3, 294192, Note_on_c, 1, 58, 120
3, 294224, Note_off_c, 1, 56, 100
3, 294240, Note_on_c, 1, 56, 120
3, 294272, Note_off_c, 1, 58, 100
3, 294288, Note_on_c, 1, 58, 120
3, 294320, Note_off_c, 1, 56, 100
3, 294336, Note_on_c, 1, 56, 120
3, 294368, Note_off_c, 1, 58, 100
3, 294384, Note_on_c, 1, 58, 120
3, 294416, Note_off_c, 1, 56, 100
3, 294432, Note_on_c, 1, 56, 120
3, 294464, Note_off_c, 1, 58, 100
3, 294480, Note_on_c, 1, 58, 120
3, 294512, Note_off_c, 1, 56, 100
3, 294528, Note_on_c, 1, 56, 120
3, 294560, Note_off_c, 1, 58, 100
3, 294576, Note_on_c, 1, 58, 120
3, 294608, Note_off_c, 1, 56, 100
3, 294624, Note_on_c, 1, 56, 120
3, 294656, Note_off_c, 1, 58, 100
3, 294672, Note_on_c, 1, 58, 120
3, 294704, Note_off_c, 1, 56, 100
3, 294720, Note_on_c, 1, 56, 120
3, 294752, Note_off_c, 1, 58, 100
3, 294768, Note_on_c, 1, 58, 120
3, 294800, Note_off_c, 1, 56, 100
3, 294816, Note_on_c, 1, 56, 120
3, 294848, Note_off_c, 1, 58, 100
3, 294864, Note_on_c, 1, 58, 120
3, 294896, Note_off_c, 1, 56, 100
3, 294912, Note_on_c, 1, 55, 120
3, 294944, Note_off_c, 1, 58, 100
3, 295100, Note_off_c, 1, 55, 100
3, 295104, Note_on_c, 1, 59, 120
3, 295292, Note_off_c, 1, 59, 100
3, 295296, Note_on_c, 1, 43, 120
3, 295344, Note_on_c, 1, 44, 120
3, 295376, Note_off_c, 1, 43, 100
3, 295392, Note_on_c, 1, 43, 120
3, 295424, Note_off_c, 1, 44, 100
3, 295440, Note_on_c, 1, 44, 120
3, 295472, Note_off_c, 1, 43, 100
3, 295520, Note_off_c, 1, 44, 100
3, 295872, Note_on_c, 1, 63, 120
3, 296060, Note_off_c, 1, 63, 100
3, 296064, Note_on_c, 1, 48, 120
3, 296112, Note_on_c, 1, 50, 120
3, 296144, Note_off_c, 1, 48, 100
3, 296160, Note_on_c, 1, 48, 120
3, 296192, Note_off_c, 1, 50, 100
3, 296208, Note_on_c, 1, 50, 120
3, 296240, Note_off_c, 1, 48, 100
3, 296288, Note_off_c, 1, 50, 100
3, 296640, Note_on_c, 1, 56, 120
3, 296828, Note_off_c, 1, 56, 100
3, 296832, Note_on_c, 1, 42, 120
3, 296880, Note_on_c, 1, 43, 120
3, 296912, Note_off_c, 1, 42, 100
3, 296928, Note_on_c, 1, 42, 120
3, 296960, Note_off_c, 1, 43, 100
3, 296976, Note_on_c, 1, 43, 120
3, 297008, Note_off_c, 1, 42, 100
3, 297056, Note_off_c, 1, 43, 100
3, 297408, Note_on_c, 1, 58, 120
3, 297596, Note_off_c, 1, 58, 100
3, 297600, Note_on_c, 1, 43, 120
3, 297648, Note_on_c, 1, 45, 120
3, 297680, Note_off_c, 1, 43, 100
3, 297696, Note_on_c, 1, 43, 120
3, 297728, Note_off_c, 1, 45, 100
3, 297744, Note_on_c, 1, 45, 120
3, 297776, Note_off_c, 1, 43, 100
3, 297824, Note_off_c, 1, 45, 100
3, 298176, Note_on_c, 1, 64, 120
3, 298364, Note_off_c, 1, 64, 100
3, 298368, Key_signature, -1, "major"
3, 298368, Note_on_c, 1, 49, 120
3, 298416, Note_on_c, 1, 50, 120
3, 298448, Note_off_c, 1, 49, 100
3, 298464, Note_on_c, 1, 49, 120
3, 298496, Note_off_c, 1, 50, 100
3, 298512, Note_on_c, 1, 50, 120
3, 298544, Note_off_c, 1, 49, 100
3, 298592, Note_off_c, 1, 50, 100
3, 298944, Note_on_c, 1, 57, 120
3, 299132, Note_off_c, 1, 57, 100
3, 299136, Note_on_c, 1, 53, 120
3, 299324, Note_off_c, 1, 53, 100
3, 299328, Note_on_c, 1, 50, 120
3, 299516, Note_off_c, 1, 50, 100
3, 299520, Note_on_c, 1, 45, 120
3, 299708, Note_off_c, 1, 45, 100
3, 299712, Note_on_c, 1, 41, 120
3, 299900, Note_off_c, 1, 41, 100
3, 299904, Note_on_c, 1, 38, 120
3, 300092, Note_off_c, 1, 38, 100
3, 300096, Note_on_c, 1, 45, 120
3, 300096, Note_on_c, 1, 33, 120
3, 300284, Note_off_c, 1, 45, 100
3, 300284, Note_off_c, 1, 33, 100
3, 300288, Note_on_c, 1, 46, 120
3, 300288, Note_on_c, 1, 34, 120
3, 300476, Note_off_c, 1, 46, 100
3, 300476, Note_off_c, 1, 34, 100
3, 300480, Note_on_c, 1, 46, 120
3, 300480, Note_on_c, 1, 34, 120
3, 300668, Note_off_c, 1, 46, 100
3, 300668, Note_off_c, 1, 34, 100
3, 300672, Note_on_c, 1, 45, 120
3, 300672, Note_on_c, 1, 40, 120
3, 300672, Note_on_c, 1, 37, 120
3, 300672, Note_on_c, 1, 33, 120
3, 300860, Note_off_c, 1, 45, 100
3, 300860, Note_off_c, 1, 40, 100
3, 300860, Note_off_c, 1, 37, 100
3, 300860, Note_off_c, 1, 33, 100
3, 301056, Note_on_c, 1, 45, 120
3, 301056, Note_on_c, 1, 40, 120
3, 301056, Note_on_c, 1, 37, 120
3, 301056, Note_on_c, 1, 33, 120
3, 301244, Note_off_c, 1, 45, 100
3, 301244, Note_off_c, 1, 40, 100
3, 301244, Note_off_c, 1, 37, 100
3, 301244, Note_off_c, 1, 33, 100
3, 302976, Key_signature, 2, "major"
3, 307968, Note_on_c, 1, 57, 80
3, 308348, Note_off_c, 1, 57, 100
3, 308352, Note_on_c, 1, 55, 80
3, 308732, Note_off_c, 1, 55, 100
3, 308736, Note_on_c, 1, 54, 80
3, 309116, Note_off_c, 1, 54, 100
3, 309120, Note_on_c, 1, 55, 80
3, 309500, Note_off_c, 1, 55, 100
3, 309504, Note_on_c, 1, 57, 80
3, 310268, Note_off_c, 1, 57, 100
3, 310272, Note_on_c, 1, 55, 80
3, 310652, Note_off_c, 1, 55, 100
3, 310656, Note_on_c, 1, 54, 80
3, 311036, Note_off_c, 1, 54, 100
3, 311040, Note_on_c, 1, 59, 80
3, 311420, Note_off_c, 1, 59, 100
3, 311424, Note_on_c, 1, 49, 80
3, 311804, Note_off_c, 1, 49, 100
3, 311808, Note_on_c, 1, 50, 80
3, 312188, Note_off_c, 1, 50, 100
3, 312192, Note_on_c, 1, 43, 80
3, 312572, Note_off_c, 1, 43, 100
3, 312576, Note_on_c, 1, 44, 80
3, 312956, Note_off_c, 1, 44, 100
3, 312960, Note_on_c, 1, 45, 80
3, 313340, Note_off_c, 1, 45, 100
3, 313344, Note_on_c, 1, 47, 80
3, 313724, Note_off_c, 1, 47, 100
3, 313728, Note_on_c, 1, 42, 80
3, 314108, Note_off_c, 1, 42, 100
3, 314112, Note_on_c, 1, 44, 80
3, 314492, Note_off_c, 1, 44, 100
3, 314496, Note_on_c, 1, 43, 80
3, 314876, Note_off_c, 1, 43, 100
3, 314880, Note_on_c, 1, 47, 80
3, 315260, Note_off_c, 1, 47, 100
3, 315264, Note_on_c, 1, 49, 80
3, 315644, Note_off_c, 1, 49, 100
3, 315648, Note_on_c, 1, 50, 80
3, 316028, Note_off_c, 1, 50, 100
3, 316032, Note_on_c, 1, 62, 80
3, 316412, Note_off_c, 1, 62, 100
3, 316416, Note_on_c, 1, 60, 80
3, 316796, Note_off_c, 1, 60, 100
3, 316800, Note_on_c, 1, 59, 80
3, 317180, Note_off_c, 1, 59, 100
3, 317184, Note_on_c, 1, 60, 80
3, 317564, Note_off_c, 1, 60, 100
3, 317568, Note_on_c, 1, 62, 80
3, 317948, Note_off_c, 1, 62, 100
3, 317952, Note_on_c, 1, 55, 80
3, 318332, Note_off_c, 1, 55, 100
3, 318336, Note_on_c, 1, 57, 80
3, 318716, Note_off_c, 1, 57, 100
3, 318720, Note_on_c, 1, 59, 80
3, 319100, Note_off_c, 1, 59, 100
3, 319104, Note_on_c, 1, 52, 80
3, 319484, Note_off_c, 1, 52, 100
3, 319488, Note_on_c, 1, 54, 80
3, 319868, Note_off_c, 1, 54, 100
3, 319872, Note_on_c, 1, 55, 80
3, 320252, Note_off_c, 1, 55, 100
3, 320256, Note_on_c, 1, 56, 80
3, 320636, Note_off_c, 1, 56, 100
3, 320640, Note_on_c, 1, 57, 80
3, 321020, Note_off_c, 1, 57, 100
3, 321024, Note_on_c, 1, 55, 80
3, 321404, Note_off_c, 1, 55, 100
3, 321408, Note_on_c, 1, 54, 80
3, 321788, Note_off_c, 1, 54, 100
3, 321792, Note_on_c, 1, 59, 80
3, 322172, Note_off_c, 1, 59, 100
3, 322176, Note_on_c, 1, 57, 80
3, 322556, Note_off_c, 1, 57, 100
3, 322560, Note_on_c, 1, 55, 80
3, 322944, Note_on_c, 1, 61, 80
3, 323324, Note_off_c, 1, 55, 100
3, 323324, Note_off_c, 1, 61, 100
3, 323328, Note_on_c, 1, 59, 80
3, 323328, Note_on_c, 1, 53, 80
3, 323708, Note_off_c, 1, 59, 100
3, 323708, Note_off_c, 1, 53, 100
3, 323712, Note_on_c, 1, 58, 80
3, 323712, Note_on_c, 1, 54, 80
3, 324092, Note_off_c, 1, 58, 100
3, 324096, Note_on_c, 1, 62, 80
3, 324476, Note_off_c, 1, 54, 100
3, 324476, Note_off_c, 1, 62, 100
3, 324480, Note_on_c, 1, 61, 80
3, 324480, Note_on_c, 1, 56, 80
3, 324668, Note_off_c, 1, 56, 100
3, 324672, Note_on_c, 1, 58, 80
3, 324860, Note_off_c, 1, 61, 100
3, 324860, Note_off_c, 1, 58, 100
3, 324864, Note_on_c, 1, 62, 80
3, 324864, Note_on_c, 1, 59, 80
3, 325244, Note_off_c, 1, 62, 100
3, 325244, Note_off_c, 1, 59, 100
3, 325248, Note_on_c, 1, 61, 80
3, 325248, Note_on_c, 1, 57, 80
3, 325628, Note_off_c, 1, 61, 100
3, 325628, Note_off_c, 1, 57, 100
3, 325632, Note_on_c, 1, 64, 80
3, 325632, Note_on_c, 1, 61, 80
3, 326012, Note_off_c, 1, 64, 100
3, 326012, Note_off_c, 1, 61, 100
3, 326016, Note_on_c, 1, 62, 80
3, 326016, Note_on_c, 1, 66, 80
3, 326396, Note_off_c, 1, 62, 100
3, 326396, Note_off_c, 1, 66, 100
3, 326400, Note_on_c, 1, 54, 80
3, 326780, Note_off_c, 1, 54, 100
3, 326784, Note_on_c, 1, 51, 80
3, 327164, Note_off_c, 1, 51, 100
3, 327168, Note_on_c, 1, 52, 80
3, 327548, Note_off_c, 1, 52, 100
3, 327552, Note_on_c, 1, 64, 80
3, 327932, Note_off_c, 1, 64, 100
3, 327936, Note_on_c, 1, 62, 80
3, 328316, Note_off_c, 1, 62, 100
3, 328320, Note_on_c, 1, 61, 80
3, 328700, Note_off_c, 1, 61, 100
3, 328704, Note_on_c, 1, 45, 80
3, 329084, Note_off_c, 1, 45, 100
3, 329088, Note_on_c, 1, 43, 80
3, 329468, Note_off_c, 1, 43, 100
3, 329472, Note_on_c, 1, 42, 80
3, 329852, Note_off_c, 1, 42, 100
3, 329856, Note_on_c, 1, 44, 80
3, 330236, Note_off_c, 1, 44, 100
3, 330240, Note_on_c, 1, 45, 80
3, 331004, Note_off_c, 1, 45, 100
3, 331008, Note_on_c, 1, 44, 80
3, 331388, Note_off_c, 1, 44, 100
3, 331392, Note_on_c, 1, 40, 80
3, 331772, Note_off_c, 1, 40, 100
3, 331776, Note_on_c, 1, 45, 80
3, 332156, Note_off_c, 1, 45, 100
3, 332160, Note_on_c, 1, 57, 80
3, 332540, Note_off_c, 1, 57, 100
3, 332544, Note_on_c, 1, 54, 80
3, 332924, Note_off_c, 1, 54, 100
3, 332928, Note_on_c, 1, 55, 80
3, 333692, Note_off_c, 1, 55, 100
3, 333696, Note_on_c, 1, 52, 80
3, 334076, Note_off_c, 1, 52, 100
3, 334080, Note_on_c, 1, 51, 80
3, 334460, Note_off_c, 1, 51, 100
3, 334464, Note_on_c, 1, 50, 80
3, 334844, Note_off_c, 1, 50, 100
3, 334848, Note_on_c, 1, 48, 80
3, 335228, Note_off_c, 1, 48, 100
3, 335232, Note_on_c, 1, 57, 80
3, 335232, Note_on_c, 1, 53, 80
3, 335612, Note_off_c, 1, 57, 100
3, 335612, Note_off_c, 1, 53, 100
3, 335616, Note_on_c, 1, 58, 80
3, 335616, Note_on_c, 1, 46, 80
3, 335996, Note_off_c, 1, 58, 100
3, 335996, Note_off_c, 1, 46, 100
3, 336000, Note_on_c, 1, 52, 80
3, 336000, Note_on_c, 1, 46, 80
3, 336380, Note_off_c, 1, 52, 100
3, 336380, Note_off_c, 1, 46, 100
3, 336384, Key_signature, -2, "major"
3, 336384, Note_on_c, 1, 53, 70
3, 336384, Note_on_c, 1, 45, 70
3, 336764, Note_off_c, 1, 53, 100
3, 336764, Note_off_c, 1, 45, 100
3, 336768, Note_on_c, 1, 48, 70
3, 337148, Note_off_c, 1, 48, 100
3, 337152, Note_on_c, 1, 41, 70
3, 337532, Note_off_c, 1, 41, 100
3, 337536, Note_on_c, 1, 46, 70
3, 337916, Note_off_c, 1, 46, 100
3, 339840, Note_on_c, 1, 43, 70
3, 340220, Note_off_c, 1, 43, 100
3, 340224, Note_on_c, 1, 59, 70
3, 340272, Note_on_c, 1, 60, 70
3, 340304, Note_off_c, 1, 59, 100
3, 340320, Note_on_c, 1, 59, 70
3, 340352, Note_off_c, 1, 60, 100
3, 340368, Note_on_c, 1, 60, 70
3, 340400, Note_off_c, 1, 59, 100
3, 340416, Note_on_c, 1, 59, 70
3, 340448, Note_off_c, 1, 60, 100
3, 340464, Note_on_c, 1, 60, 70
3, 340496, Note_off_c, 1, 59, 100
3, 340512, Note_on_c, 1, 59, 70
3, 340544, Note_off_c, 1, 60, 100
3, 340560, Note_on_c, 1, 60, 70
3, 340592, Note_off_c, 1, 59, 100
3, 340608, Note_on_c, 1, 59, 70
3, 340640, Note_off_c, 1, 60, 100
3, 340656, Note_on_c, 1, 60, 70
3, 340688, Note_off_c, 1, 59, 100
3, 340704, Note_on_c, 1, 59, 70
3, 340736, Note_off_c, 1, 60, 100
3, 340752, Note_on_c, 1, 60, 70
3, 340784, Note_off_c, 1, 59, 100
3, 340800, Note_on_c, 1, 59, 70
3, 340832, Note_off_c, 1, 60, 100
3, 340848, Note_on_c, 1, 60, 70
3, 340880, Note_off_c, 1, 59, 100
3, 340896, Note_on_c, 1, 57, 70
3, 340928, Note_off_c, 1, 60, 100
3, 340944, Note_on_c, 1, 59, 70
3, 340976, Note_off_c, 1, 57, 100
3, 340992, Note_on_c, 1, 60, 70
3, 341024, Note_off_c, 1, 59, 100
3, 341372, Note_off_c, 1, 60, 100
3, 341568, Note_on_c, 1, 60, 76
3, 341660, Note_off_c, 1, 60, 100
3, 341664, Note_on_c, 1, 58, 77
3, 341756, Note_off_c, 1, 58, 100
3, 341760, Note_on_c, 1, 57, 78
3, 341852, Note_off_c, 1, 57, 100
3, 341856, Note_on_c, 1, 55, 79
3, 341948, Note_off_c, 1, 55, 100
3, 341952, Note_on_c, 1, 53, 80
3, 342044, Note_off_c, 1, 53, 100
3, 342048, Note_on_c, 1, 52, 81
3, 342140, Note_off_c, 1, 52, 100
3, 342144, Note_on_c, 1, 57, 82
3, 342524, Note_off_c, 1, 57, 100
3, 342720, Note_on_c, 1, 57, 88
3, 342812, Note_off_c, 1, 57, 100
3, 342816, Note_on_c, 1, 55, 89
3, 342908, Note_off_c, 1, 55, 100
3, 342912, Note_on_c, 1, 53, 90
3, 343004, Note_off_c, 1, 53, 100
3, 343008, Note_on_c, 1, 52, 91
3, 343100, Note_off_c, 1, 52, 100
3, 343104, Note_on_c, 1, 50, 92
3, 343196, Note_off_c, 1, 50, 100
3, 343200, Note_on_c, 1, 48, 93
3, 343292, Note_off_c, 1, 48, 100
3, 343296, Note_on_c, 1, 53, 94
3, 343676, Note_off_c, 1, 53, 100
3, 343872, Note_on_c, 1, 53, 100
3, 343964, Note_off_c, 1, 53, 100
3, 343968, Note_on_c, 1, 52, 101
3, 344060, Note_off_c, 1, 52, 100
3, 344064, Note_on_c, 1, 50, 102
3, 344156, Note_off_c, 1, 50, 100
3, 344160, Note_on_c, 1, 48, 103
3, 344252, Note_off_c, 1, 48, 100
3, 344256, Note_on_c, 1, 46, 104
3, 344348, Note_off_c, 1, 46, 100
3, 344352, Note_on_c, 1, 45, 105
3, 344444, Note_off_c, 1, 45, 100
3, 344448, Note_on_c, 1, 48, 106
3, 344540, Note_off_c, 1, 48, 100
3, 344544, Note_on_c, 1, 46, 107
3, 344636, Note_off_c, 1, 46, 100
3, 344640, Note_on_c, 1, 45, 108
3, 344732, Note_off_c, 1, 45, 100
3, 344736, Note_on_c, 1, 43, 109
3, 344828, Note_off_c, 1, 43, 100
3, 344832, Note_on_c, 1, 41, 110
3, 344832, Note_on_c, 1, 29, 110
3, 345212, Note_off_c, 1, 41, 100
3, 345212, Note_off_c, 1, 29, 100
3, 345216, Note_on_c, 1, 39, 110
3, 345216, Note_on_c, 1, 27, 110
3, 345596, Note_off_c, 1, 39, 100
3, 345596, Note_off_c, 1, 27, 100
3, 345600, Note_on_c, 1, 38, 110
3, 345600, Note_on_c, 1, 26, 110
3, 345980, Note_off_c, 1, 38, 100
3, 345980, Note_off_c, 1, 26, 100
3, 345984, Note_on_c, 1, 39, 110
3, 345984, Note_on_c, 1, 27, 110
3, 346364, Note_off_c, 1, 39, 100
3, 346364, Note_off_c, 1, 27, 100
3, 346368, Note_on_c, 1, 41, 110
3, 346368, Note_on_c, 1, 29, 110
3, 346560, Note_on_c, 1, 58, 110
3, 346652, Note_off_c, 1, 58, 100
3, 346656, Note_on_c, 1, 56, 110
3, 346748, Note_off_c, 1, 41, 100
3, 346748, Note_off_c, 1, 29, 100
3, 346748, Note_off_c, 1, 56, 100
3, 346752, Note_on_c, 1, 39, 110
3, 346752, Note_on_c, 1, 27, 110
3, 346752, Note_on_c, 1, 55, 110
3, 346844, Note_off_c, 1, 55, 100
3, 346848, Note_on_c, 1, 53, 110
3, 346940, Note_off_c, 1, 53, 100
3, 346944, Note_on_c, 1, 51, 110
3, 347036, Note_off_c, 1, 51, 100
3, 347040, Note_on_c, 1, 50, 110
3, 347132, Note_off_c, 1, 39, 100
3, 347132, Note_off_c, 1, 27, 100
3, 347132, Note_off_c, 1, 50, 100
3, 347136, Note_on_c, 1, 41, 110
3, 347136, Note_on_c, 1, 29, 110
3, 347516, Note_off_c, 1, 41, 100
3, 347516, Note_off_c, 1, 29, 100
3, 347520, Note_on_c, 1, 43, 110
3, 347520, Note_on_c, 1, 31, 110
3, 347900, Note_off_c, 1, 43, 100
3, 347900, Note_off_c, 1, 31, 100
3, 347904, Note_on_c, 1, 40, 110
3, 347904, Note_on_c, 1, 28, 110
3, 348096, Note_on_c, 1, 60, 110
3, 348188, Note_off_c, 1, 60, 100
3, 348192, Note_on_c, 1, 58, 110
3, 348284, Note_off_c, 1, 40, 100
3, 348284, Note_off_c, 1, 28, 100
3, 348284, Note_off_c, 1, 58, 100
3, 348288, Note_on_c, 1, 41, 110
3, 348288, Note_on_c, 1, 29, 110
3, 348288, Note_on_c, 1, 56, 110
3, 348380, Note_off_c, 1, 56, 100
3, 348384, Note_on_c, 1, 55, 110
3, 348476, Note_off_c, 1, 55, 100
3, 348480, Note_on_c, 1, 53, 110
3, 348572, Note_off_c, 1, 53, 100
3, 348576, Note_on_c, 1, 52, 110
3, 348668, Note_off_c, 1, 41, 100
3, 348668, Note_off_c, 1, 29, 100
3, 348668, Note_off_c, 1, 52, 100
3, 348672, Note_on_c, 1, 43, 110
3, 348672, Note_on_c, 1, 31, 110
3, 349052, Note_off_c, 1, 43, 100
3, 349052, Note_off_c, 1, 31, 100
3, 349056, Note_on_c, 1, 41, 110
3, 349056, Note_on_c, 1, 29, 110
3, 349436, Note_off_c, 1, 41, 100
3, 349436, Note_off_c, 1, 29, 100
3, 349440, Note_on_c, 1, 43, 110
3, 349440, Note_on_c, 1, 31, 110
3, 349632, Note_on_c, 1, 57, 110
3, 349724, Note_off_c, 1, 57, 100
3, 349728, Note_on_c, 1, 55, 110
3, 349820, Note_off_c, 1, 43, 100
3, 349820, Note_off_c, 1, 31, 100
3, 349820, Note_off_c, 1, 55, 100
3, 349824, Note_on_c, 1, 45, 110
3, 349824, Note_on_c, 1, 33, 110
3, 349824, Note_on_c, 1, 54, 110
3, 349916, Note_off_c, 1, 54, 100
3, 349920, Note_on_c, 1, 51, 110
3, 350012, Note_off_c, 1, 51, 100
3, 350016, Note_on_c, 1, 50, 110
3, 350108, Note_off_c, 1, 50, 100
3, 350112, Note_on_c, 1, 48, 110
3, 350204, Note_off_c, 1, 45, 100
3, 350204, Note_off_c, 1, 33, 100
3, 350204, Note_off_c, 1, 48, 100
3, 350208, Note_on_c, 1, 42, 110
3, 350208, Note_on_c, 1, 30, 110
3, 350588, Note_off_c, 1, 42, 100
3, 350588, Note_off_c, 1, 30, 100
3, 350592, Note_on_c, 1, 43, 110
3, 350592, Note_on_c, 1, 31, 110
3, 350972, Note_off_c, 1, 43, 100
3, 350972, Note_off_c, 1, 31, 100
3, 350976, Note_on_c, 1, 45, 110
3, 350976, Note_on_c, 1, 33, 110
3, 351356, Note_off_c, 1, 45, 100
3, 351356, Note_off_c, 1, 33, 100
3, 351360, Note_on_c, 1, 43, 110
3, 351360, Note_on_c, 1, 31, 110
3, 351740, Note_off_c, 1, 43, 100
3, 351740, Note_off_c, 1, 31, 100
3, 351744, Note_on_c, 1, 45, 110
3, 351744, Note_on_c, 1, 33, 110
3, 352124, Note_off_c, 1, 45, 100
3, 352124, Note_off_c, 1, 33, 100
3, 352128, Note_on_c, 1, 34, 110
3, 352220, Note_off_c, 1, 34, 100
3, 352224, Note_on_c, 1, 46, 110
3, 352316, Note_off_c, 1, 46, 100
3, 352320, Note_on_c, 1, 48, 110
3, 352412, Note_off_c, 1, 48, 100
3, 352416, Note_on_c, 1, 46, 110
3, 352508, Note_off_c, 1, 46, 100
3, 352512, Note_on_c, 1, 45, 110
3, 352604, Note_off_c, 1, 45, 100
3, 352608, Note_on_c, 1, 43, 110
3, 352700, Note_off_c, 1, 43, 100
3, 352704, Note_on_c, 1, 41, 110
3, 352796, Note_off_c, 1, 41, 100
3, 352800, Note_on_c, 1, 40, 110
3, 352892, Note_off_c, 1, 40, 100
3, 352896, Note_on_c, 1, 43, 110
3, 352988, Note_off_c, 1, 43, 100
3, 352992, Note_on_c, 1, 41, 110
3, 353084, Note_off_c, 1, 41, 100
3, 353088, Note_on_c, 1, 52, 110
3, 353180, Note_off_c, 1, 52, 100
3, 353184, Note_on_c, 1, 50, 110
3, 353276, Note_off_c, 1, 50, 100
3, 353280, Note_on_c, 1, 48, 110
3, 353372, Note_off_c, 1, 48, 100
3, 353376, Note_on_c, 1, 46, 110
3, 353468, Note_off_c, 1, 46, 100
3, 353472, Note_on_c, 1, 45, 110
3, 353564, Note_off_c, 1, 45, 100
3, 353568, Note_on_c, 1, 43, 110
3, 353660, Note_off_c, 1, 43, 100
3, 353664, Note_on_c, 1, 41, 110
3, 353756, Note_off_c, 1, 41, 100
3, 353760, Note_on_c, 1, 40, 110
3, 353852, Note_off_c, 1, 40, 100
3, 353856, Note_on_c, 1, 38, 110
3, 353948, Note_off_c, 1, 38, 100
3, 353952, Note_on_c, 1, 36, 110
3, 354044, Note_off_c, 1, 36, 100
3, 354048, Note_on_c, 1, 58, 110
3, 354236, Note_off_c, 1, 58, 100
3, 354432, Note_on_c, 1, 43, 110
3, 354480, Note_on_c, 1, 45, 110
3, 354512, Note_off_c, 1, 43, 100
3, 354528, Note_on_c, 1, 43, 110
3, 354560, Note_off_c, 1, 45, 100
3, 354576, Note_on_c, 1, 45, 110
3, 354608, Note_off_c, 1, 43, 100
3, 354624, Note_on_c, 1, 43, 110
3, 354656, Note_off_c, 1, 45, 100
3, 354672, Note_on_c, 1, 45, 110
3, 354704, Note_off_c, 1, 43, 100
3, 354720, Note_on_c, 1, 43, 110
3, 354752, Note_off_c, 1, 45, 100
3, 354768, Note_on_c, 1, 45, 110
3, 354800, Note_off_c, 1, 43, 100
3, 354816, Note_on_c, 1, 43, 110
3, 354848, Note_off_c, 1, 45, 100
3, 354864, Note_on_c, 1, 45, 110
3, 354896, Note_off_c, 1, 43, 100
3, 354912, Note_on_c, 1, 43, 110
3, 354944, Note_off_c, 1, 45, 100
3, 354960, Note_on_c, 1, 45, 110
3, 354992, Note_off_c, 1, 43, 100
3, 355008, Note_on_c, 1, 43, 110
3, 355040, Note_off_c, 1, 45, 100
3, 355056, Note_on_c, 1, 45, 110
3, 355088, Note_off_c, 1, 43, 100
3, 355104, Note_on_c, 1, 43, 110
3, 355136, Note_off_c, 1, 45, 100
3, 355152, Note_on_c, 1, 45, 110
3, 355184, Note_off_c, 1, 43, 100
3, 355200, Note_on_c, 1, 41, 110
3, 355232, Note_off_c, 1, 45, 100
3, 355580, Note_off_c, 1, 41, 100
3, 355776, Note_on_c, 1, 41, 110
3, 355868, Note_off_c, 1, 41, 100
3, 355872, Note_on_c, 1, 43, 110
3, 355964, Note_off_c, 1, 43, 100
3, 355968, Note_on_c, 1, 45, 110
3, 356060, Note_off_c, 1, 45, 100
3, 356064, Note_on_c, 1, 46, 110
3, 356156, Note_off_c, 1, 46, 100
3, 356160, Note_on_c, 1, 48, 110
3, 356252, Note_off_c, 1, 48, 100
3, 356256, Note_on_c, 1, 50, 110
3, 356348, Note_off_c, 1, 50, 100
3, 356352, Note_on_c, 1, 45, 110
3, 356732, Note_off_c, 1, 45, 100
3, 356928, Note_on_c, 1, 45, 110
3, 357020, Note_off_c, 1, 45, 100
3, 357024, Note_on_c, 1, 46, 110
3, 357116, Note_off_c, 1, 46, 100
3, 357120, Note_on_c, 1, 48, 110
3, 357212, Note_off_c, 1, 48, 100
3, 357216, Note_on_c, 1, 50, 110
3, 357308, Note_off_c, 1, 50, 100
3, 357312, Note_on_c, 1, 52, 110
3, 357404, Note_off_c, 1, 52, 100
3, 357408, Note_on_c, 1, 53, 110
3, 357500, Note_off_c, 1, 53, 100
3, 357504, Note_on_c, 1, 48, 110
3, 357884, Note_off_c, 1, 48, 100
3, 358080, Note_on_c, 1, 48, 110
3, 358172, Note_off_c, 1, 48, 100
3, 358176, Note_on_c, 1, 50, 110
3, 358268, Note_off_c, 1, 50, 100
3, 358272, Note_on_c, 1, 52, 110
3, 358364, Note_off_c, 1, 52, 100
3, 358368, Note_on_c, 1, 50, 110
3, 358460, Note_off_c, 1, 50, 100
3, 358464, Note_on_c, 1, 52, 110
3, 358556, Note_off_c, 1, 52, 100
3, 358560, Note_on_c, 1, 53, 110
3, 358652, Note_off_c, 1, 53, 100
3, 358656, Note_on_c, 1, 55, 110
3, 358748, Note_off_c, 1, 55, 100
3, 358752, Note_on_c, 1, 53, 110
3, 358844, Note_off_c, 1, 53, 100
3, 358848, Note_on_c, 1, 55, 110
3, 358940, Note_off_c, 1, 55, 100
3, 358944, Note_on_c, 1, 57, 110
3, 359036, Note_off_c, 1, 57, 100
3, 359040, Note_on_c, 1, 58, 110
3, 359132, Note_off_c, 1, 58, 100
3, 359136, Note_on_c, 1, 57, 110
3, 359228, Note_off_c, 1, 57, 100
3, 359232, Note_on_c, 1, 55, 110
3, 359324, Note_off_c, 1, 55, 100
3, 359328, Note_on_c, 1, 57, 110
3, 359420, Note_off_c, 1, 57, 100
3, 359424, Note_on_c, 1, 58, 110
3, 359516, Note_off_c, 1, 58, 100
3, 359520, Note_on_c, 1, 57, 110
3, 359612, Note_off_c, 1, 57, 100
3, 359616, Note_on_c, 1, 55, 110
3, 359708, Note_off_c, 1, 55, 100
3, 359712, Note_on_c, 1, 53, 110
3, 359804, Note_off_c, 1, 53, 100
3, 359808, Note_on_c, 1, 52, 110
3, 359900, Note_off_c, 1, 52, 100
3, 359904, Note_on_c, 1, 50, 110
3, 359996, Note_off_c, 1, 50, 100
3, 360000, Note_on_c, 1, 48, 110
3, 360092, Note_off_c, 1, 48, 100
3, 360096, Note_on_c, 1, 50, 110
3, 360188, Note_off_c, 1, 50, 100
3, 360192, Note_on_c, 1, 51, 110
3, 360284, Note_off_c, 1, 51, 100
3, 360288, Note_on_c, 1, 50, 110
3, 360380, Note_off_c, 1, 50, 100
3, 360384, Note_on_c, 1, 48, 110
3, 360476, Note_off_c, 1, 48, 100
3, 360480, Note_on_c, 1, 46, 110
3, 360572, Note_off_c, 1, 46, 100
3, 360576, Note_on_c, 1, 50, 110
3, 360668, Note_off_c, 1, 50, 100
3, 360672, Note_on_c, 1, 48, 110
3, 360764, Note_off_c, 1, 48, 100
3, 360768, Note_on_c, 1, 46, 110
3, 360860, Note_off_c, 1, 46, 100
3, 360864, Note_on_c, 1, 45, 110
3, 360956, Note_off_c, 1, 45, 100
3, 360960, Note_on_c, 1, 46, 110
3, 361052, Note_off_c, 1, 46, 100
3, 361056, Note_on_c, 1, 45, 110
3, 361148, Note_off_c, 1, 45, 100
3, 361152, Note_on_c, 1, 43, 110
3, 361244, Note_off_c, 1, 43, 100
3, 361248, Note_on_c, 1, 41, 110
3, 361340, Note_off_c, 1, 41, 100
3, 361344, Note_on_c, 1, 51, 110
3, 361536, Note_on_c, 1, 29, 110
3, 361724, Note_off_c, 1, 29, 100
3, 361728, Note_on_c, 1, 45, 110
3, 361776, Note_on_c, 1, 46, 110
3, 361808, Note_off_c, 1, 45, 100
3, 361824, Note_on_c, 1, 45, 110
3, 361856, Note_off_c, 1, 46, 100
3, 361872, Note_on_c, 1, 46, 110
3, 361904, Note_off_c, 1, 45, 100
3, 361920, Note_on_c, 1, 45, 110
3, 361952, Note_off_c, 1, 46, 100
3, 361968, Note_on_c, 1, 46, 110
3, 362000, Note_off_c, 1, 45, 100
3, 362016, Note_on_c, 1, 45, 110
3, 362048, Note_off_c, 1, 46, 100
3, 362064, Note_on_c, 1, 46, 110
3, 362096, Note_off_c, 1, 45, 100
3, 362108, Note_off_c, 1, 51, 100
3, 362112, Note_on_c, 1, 45, 110
3, 362144, Note_off_c, 1, 46, 100
3, 362160, Note_on_c, 1, 46, 110
3, 362192, Note_off_c, 1, 45, 100
3, 362208, Note_on_c, 1, 45, 110
3, 362240, Note_off_c, 1, 46, 100
3, 362256, Note_on_c, 1, 46, 110
3, 362288, Note_off_c, 1, 45, 100
3, 362304, Note_on_c, 1, 45, 110
3, 362336, Note_off_c, 1, 46, 100
3, 362352, Note_on_c, 1, 46, 110
3, 362384, Note_off_c, 1, 45, 100
3, 362400, Note_on_c, 1, 43, 110
3, 362432, Note_off_c, 1, 46, 100
3, 362448, Note_on_c, 1, 45, 110
3, 362480, Note_off_c, 1, 43, 100
3, 362496, Note_on_c, 1, 46, 110
3, 362528, Note_off_c, 1, 45, 100
3, 362876, Note_off_c, 1, 46, 100
3, 363072, Note_on_c, 1, 46, 110
3, 363164, Note_off_c, 1, 46, 100
3, 363168, Note_on_c, 1, 45, 110
3, 363260, Note_off_c, 1, 45, 100
3, 363264, Note_on_c, 1, 43, 110
3, 363356, Note_off_c, 1, 43, 100
3, 363360, Note_on_c, 1, 41, 110
3, 363452, Note_off_c, 1, 41, 100
3, 363456, Note_on_c, 1, 39, 110
3, 363548, Note_off_c, 1, 39, 100
3, 363552, Note_on_c, 1, 38, 110
3, 363644, Note_off_c, 1, 38, 100
3, 363648, Note_on_c, 1, 43, 110
3, 364028, Note_off_c, 1, 43, 100
3, 364224, Note_on_c, 1, 43, 110
3, 364316, Note_off_c, 1, 43, 100
3, 364320, Note_on_c, 1, 41, 110
3, 364412, Note_off_c, 1, 41, 100
3, 364416, Note_on_c, 1, 39, 110
3, 364508, Note_off_c, 1, 39, 100
3, 364512, Note_on_c, 1, 38, 110
3, 364604, Note_off_c, 1, 38, 100
3, 364608, Note_on_c, 1, 36, 110
3, 364700, Note_off_c, 1, 36, 100
3, 364704, Note_on_c, 1, 35, 110
3, 364796, Note_off_c, 1, 35, 100
3, 364800, Note_on_c, 1, 36, 110
3, 365180, Note_off_c, 1, 36, 100
3, 365376, Note_on_c, 1, 51, 110
3, 365468, Note_off_c, 1, 51, 100
3, 365472, Note_on_c, 1, 50, 110
3, 365564, Note_off_c, 1, 50, 100
3, 365568, Note_on_c, 1, 48, 110
3, 365660, Note_off_c, 1, 48, 100
3, 365664, Note_on_c, 1, 50, 110
3, 365756, Note_off_c, 1, 50, 100
3, 365760, Note_on_c, 1, 48, 110
3, 365852, Note_off_c, 1, 48, 100
3, 365856, Note_on_c, 1, 46, 110
3, 365948, Note_off_c, 1, 46, 100
3, 365952, Note_on_c, 1, 45, 110
3, 366044, Note_off_c, 1, 45, 100
3, 366048, Note_on_c, 1, 46, 110
3, 366140, Note_off_c, 1, 46, 100
3, 366144, Note_on_c, 1, 45, 110
3, 366236, Note_off_c, 1, 45, 100
3, 366240, Note_on_c, 1, 43, 110
3, 366332, Note_off_c, 1, 43, 100
3, 366336, Note_on_c, 1, 41, 110
3, 366428, Note_off_c, 1, 41, 100
3, 366432, Note_on_c, 1, 43, 110
3, 366524, Note_off_c, 1, 43, 100
3, 366528, Note_on_c, 1, 45, 110
3, 366620, Note_off_c, 1, 45, 100
3, 366624, Note_on_c, 1, 46, 110
3, 366716, Note_off_c, 1, 46, 100
3, 366720, Note_on_c, 1, 48, 110
3, 366812, Note_off_c, 1, 48, 100
3, 366816, Note_on_c, 1, 49, 110
3, 366908, Note_off_c, 1, 49, 100
3, 366912, Note_on_c, 1, 50, 110
3, 367004, Note_off_c, 1, 50, 100
3, 367008, Note_on_c, 1, 48, 110
3, 367100, Note_off_c, 1, 48, 100
3, 367104, Note_on_c, 1, 46, 110
3, 367196, Note_off_c, 1, 46, 100
3, 367200, Note_on_c, 1, 48, 110
3, 367292, Note_off_c, 1, 48, 100
3, 367296, Note_on_c, 1, 50, 110
3, 367388, Note_off_c, 1, 50, 100
3, 367392, Note_on_c, 1, 51, 110
3, 367484, Note_off_c, 1, 51, 100
3, 367488, Note_on_c, 1, 52, 110
3, 367580, Note_off_c, 1, 52, 100
3, 367584, Note_on_c, 1, 51, 110
3, 367676, Note_off_c, 1, 51, 100
3, 367680, Note_on_c, 1, 50, 110
3, 367772, Note_off_c, 1, 50, 100
3, 367776, Note_on_c, 1, 51, 110
3, 367868, Note_off_c, 1, 51, 100
3, 367872, Note_on_c, 1, 53, 110
3, 367964, Note_off_c, 1, 53, 100
3, 367968, Note_on_c, 1, 55, 110
3, 368060, Note_off_c, 1, 55, 100
3, 368064, Note_on_c, 1, 57, 110
3, 368156, Note_off_c, 1, 57, 100
3, 368160, Note_on_c, 1, 58, 110
3, 368252, Note_off_c, 1, 58, 100
3, 368256, Note_on_c, 1, 60, 110
3, 368348, Note_off_c, 1, 60, 100
3, 368352, Note_on_c, 1, 58, 110
3, 368444, Note_off_c, 1, 58, 100
3, 368448, Note_on_c, 1, 60, 110
3, 368540, Note_off_c, 1, 60, 100
3, 368544, Note_on_c, 1, 62, 110
3, 368636, Note_off_c, 1, 62, 100
3, 368640, Note_on_c, 1, 63, 110
3, 368732, Note_off_c, 1, 63, 100
3, 368736, Note_on_c, 1, 62, 110
3, 368828, Note_off_c, 1, 62, 100
3, 368832, Note_on_c, 1, 61, 110
3, 368924, Note_off_c, 1, 61, 100
3, 368928, Note_on_c, 1, 60, 110
3, 369020, Note_off_c, 1, 60, 100
3, 369024, Note_on_c, 1, 58, 110
3, 369116, Note_off_c, 1, 58, 100
3, 369120, Note_on_c, 1, 57, 110
3, 369212, Note_off_c, 1, 57, 100
3, 369216, Note_on_c, 1, 55, 110
3, 369308, Note_off_c, 1, 55, 100
3, 369312, Note_on_c, 1, 57, 110
3, 369404, Note_off_c, 1, 57, 100
3, 369408, Note_on_c, 1, 58, 110
3, 369500, Note_off_c, 1, 58, 100
3, 369504, Note_on_c, 1, 57, 110
3, 369596, Note_off_c, 1, 57, 100
3, 369600, Note_on_c, 1, 55, 110
3, 369692, Note_off_c, 1, 55, 100
3, 369696, Note_on_c, 1, 53, 110
3, 369788, Note_off_c, 1, 53, 100
3, 369792, Note_on_c, 1, 55, 110
3, 369792, Note_on_c, 1, 52, 110
3, 369840, Note_on_c, 1, 57, 110
3, 369872, Note_off_c, 1, 55, 100
3, 369888, Note_on_c, 1, 55, 110
3, 369920, Note_off_c, 1, 57, 100
3, 369936, Note_on_c, 1, 57, 110
3, 369968, Note_off_c, 1, 55, 100
3, 369984, Note_on_c, 1, 55, 110
3, 370016, Note_off_c, 1, 57, 100
3, 370032, Note_on_c, 1, 57, 110
3, 370064, Note_off_c, 1, 55, 100
3, 370080, Note_on_c, 1, 55, 110
3, 370112, Note_off_c, 1, 57, 100
3, 370128, Note_on_c, 1, 57, 110
3, 370160, Note_off_c, 1, 55, 100
3, 370172, Note_off_c, 1, 52, 100
3, 370176, Note_on_c, 1, 55, 110
3, 370176, Note_on_c, 1, 46, 110
3, 370208, Note_off_c, 1, 57, 100
3, 370224, Note_on_c, 1, 57, 110
3, 370256, Note_off_c, 1, 55, 100
3, 370272, Note_on_c, 1, 55, 110
3, 370304, Note_off_c, 1, 57, 100
3, 370320, Note_on_c, 1, 57, 110
3, 370352, Note_off_c, 1, 55, 100
3, 370368, Note_on_c, 1, 55, 110
3, 370400, Note_off_c, 1, 57, 100
3, 370416, Note_on_c, 1, 57, 110
3, 370448, Note_off_c, 1, 55, 100
3, 370464, Note_on_c, 1, 55, 110
3, 370496, Note_off_c, 1, 57, 100
3, 370512, Note_on_c, 1, 57, 110
3, 370544, Note_off_c, 1, 55, 100
3, 370556, Note_off_c, 1, 46, 100
3, 370560, Note_on_c, 1, 53, 110
3, 370560, Note_on_c, 1, 45, 110
3, 370592, Note_off_c, 1, 57, 100
3, 370940, Note_off_c, 1, 53, 100
3, 370940, Note_off_c, 1, 45, 100
3, 370944, Note_on_c, 1, 57, 110
3, 370944, Note_on_c, 1, 54, 110
3, 370992, Note_on_c, 1, 58, 110
3, 371024, Note_off_c, 1, 57, 100
3, 371040, Note_on_c, 1, 57, 110
3, 371072, Note_off_c, 1, 58, 100
3, 371088, Note_on_c, 1, 58, 110
3, 371120, Note_off_c, 1, 57, 100
3, 371136, Note_on_c, 1, 57, 110
3, 371168, Note_off_c, 1, 58, 100
3, 371184, Note_on_c, 1, 58, 110
3, 371216, Note_off_c, 1, 57, 100
3, 371232, Note_on_c, 1, 57, 110
3, 371264, Note_off_c, 1, 58, 100
3, 371280, Note_on_c, 1, 58, 110
3, 371304, Note_on_c, 1, 57, 110
3, 371312, Note_off_c, 1, 57, 100
3, 371324, Note_off_c, 1, 54, 100
3, 371328, Note_on_c, 1, 48, 110
3, 371352, Note_on_c, 1, 58, 110
3, 371360, Note_off_c, 1, 58, 100
3, 371384, Note_off_c, 1, 57, 100
3, 371400, Note_on_c, 1, 57, 110
3, 371432, Note_off_c, 1, 58, 100
3, 371448, Note_on_c, 1, 58, 110
3, 371480, Note_off_c, 1, 57, 100
3, 371520, Note_on_c, 1, 57, 110
3, 371528, Note_off_c, 1, 58, 100
3, 371568, Note_on_c, 1, 58, 110
3, 371600, Note_off_c, 1, 57, 100
3, 371616, Note_on_c, 1, 57, 110
3, 371648, Note_off_c, 1, 58, 100
3, 371664, Note_on_c, 1, 58, 110
3, 371696, Note_off_c, 1, 57, 100
3, 371708, Note_off_c, 1, 48, 100
3, 371712, Note_on_c, 1, 55, 110
3, 371712, Note_on_c, 1, 46, 110
3, 371744, Note_off_c, 1, 58, 100
3, 372092, Note_off_c, 1, 55, 100
3, 372092, Note_off_c, 1, 46, 100
3, 372096, Note_on_c, 1, 58, 110
3, 372096, Note_on_c, 1, 55, 110
3, 372144, Note_on_c, 1, 60, 110
3, 372176, Note_off_c, 1, 58, 100
3, 372192, Note_on_c, 1, 58, 110
3, 372224, Note_off_c, 1, 60, 100
3, 372240, Note_on_c, 1, 60, 110
3, 372272, Note_off_c, 1, 58, 100
3, 372288, Note_on_c, 1, 58, 110
3, 372320, Note_off_c, 1, 60, 100
3, 372336, Note_on_c, 1, 60, 110
3, 372368, Note_off_c, 1, 58, 100
3, 372384, Note_on_c, 1, 58, 110
3, 372416, Note_off_c, 1, 60, 100
3, 372432, Note_on_c, 1, 60, 110
3, 372464, Note_off_c, 1, 58, 100
3, 372476, Note_off_c, 1, 55, 100
3, 372480, Note_on_c, 1, 58, 110
3, 372480, Note_on_c, 1, 50, 110
3, 372512, Note_off_c, 1, 60, 100
3, 372528, Note_on_c, 1, 60, 110
3, 372560, Note_off_c, 1, 58, 100
3, 372576, Note_on_c, 1, 58, 110
3, 372608, Note_off_c, 1, 60, 100
3, 372624, Note_on_c, 1, 60, 110
3, 372656, Note_off_c, 1, 58, 100
3, 372672, Note_on_c, 1, 58, 110
3, 372704, Note_off_c, 1, 60, 100
3, 372720, Note_on_c, 1, 60, 110
3, 372752, Note_off_c, 1, 58, 100
3, 372768, Note_on_c, 1, 58, 110
3, 372800, Note_off_c, 1, 60, 100
3, 372816, Note_on_c, 1, 60, 110
3, 372848, Note_off_c, 1, 58, 100
3, 372860, Note_off_c, 1, 50, 100
3, 372864, Note_on_c, 1, 57, 110
3, 372864, Note_on_c, 1, 48, 110
3, 372896, Note_off_c, 1, 60, 100
3, 373052, Note_off_c, 1, 48, 100
3, 373056, Note_on_c, 1, 42, 110
3, 373244, Note_off_c, 1, 57, 100
3, 373340, Note_off_c, 1, 42, 100
3, 373344, Note_on_c, 1, 43, 110
3, 373436, Note_off_c, 1, 43, 100
3, 373440, Note_on_c, 1, 45, 110
3, 373532, Note_off_c, 1, 45, 100
3, 373536, Note_on_c, 1, 46, 110
3, 373628, Note_off_c, 1, 46, 100
3, 373632, Note_on_c, 1, 48, 110
3, 373724, Note_off_c, 1, 48, 100
3, 373728, Note_on_c, 1, 50, 110
3, 373820, Note_off_c, 1, 50, 100
3, 373824, Note_on_c, 1, 52, 110
3, 373916, Note_off_c, 1, 52, 100
3, 373920, Note_on_c, 1, 54, 110
3, 374012, Note_off_c, 1, 54, 100
3, 374016, Note_on_c, 1, 43, 110
3, 374108, Note_off_c, 1, 43, 100
3, 374112, Note_on_c, 1, 55, 110
3, 374204, Note_off_c, 1, 55, 100
3, 374208, Note_on_c, 1, 41, 110
3, 374300, Note_off_c, 1, 41, 100
3, 374304, Note_on_c, 1, 53, 110
3, 374396, Note_off_c, 1, 53, 100
3, 374400, Note_on_c, 1, 40, 110
3, 374492, Note_off_c, 1, 40, 100
3, 374496, Note_on_c, 1, 41, 110
3, 374588, Note_off_c, 1, 41, 100
3, 374592, Note_on_c, 1, 43, 110
3, 374684, Note_off_c, 1, 43, 100
3, 374688, Note_on_c, 1, 45, 110
3, 374780, Note_off_c, 1, 45, 100
3, 374784, Note_on_c, 1, 46, 110
3, 374876, Note_off_c, 1, 46, 100
3, 374880, Note_on_c, 1, 48, 110
3, 374972, Note_off_c, 1, 48, 100
3, 374976, Note_on_c, 1, 50, 110
3, 375068, Note_off_c, 1, 50, 100
3, 375072, Note_on_c, 1, 52, 110
3, 375164, Note_off_c, 1, 52, 100
3, 375168, Note_on_c, 1, 41, 110
3, 375260, Note_off_c, 1, 41, 100
3, 375264, Note_on_c, 1, 53, 110
3, 375356, Note_off_c, 1, 53, 100
3, 375360, Note_on_c, 1, 39, 110
3, 375452, Note_off_c, 1, 39, 100
3, 375456, Note_on_c, 1, 51, 110
3, 375548, Note_off_c, 1, 51, 100
3, 375552, Note_on_c, 1, 38, 110
3, 375644, Note_off_c, 1, 38, 100
3, 375648, Note_on_c, 1, 39, 110
3, 375740, Note_off_c, 1, 39, 100
3, 375744, Note_on_c, 1, 41, 110
3, 375836, Note_off_c, 1, 41, 100
3, 375840, Note_on_c, 1, 43, 110
3, 375932, Note_off_c, 1, 43, 100
3, 375936, Note_on_c, 1, 44, 110
3, 376028, Note_off_c, 1, 44, 100
3, 376032, Note_on_c, 1, 46, 110
3, 376124, Note_off_c, 1, 46, 100
3, 376128, Note_on_c, 1, 48, 110
3, 376220, Note_off_c, 1, 48, 100
3, 376224, Note_on_c, 1, 50, 110
3, 376316, Note_off_c, 1, 50, 100
3, 376320, Note_on_c, 1, 39, 110
3, 376412, Note_off_c, 1, 39, 100
3, 376416, Note_on_c, 1, 51, 110
3, 376508, Note_off_c, 1, 51, 100
3, 376512, Note_on_c, 1, 49, 110
3, 376512, Note_on_c, 1, 37, 110
3, 376700, Note_off_c, 1, 49, 100
3, 376700, Note_off_c, 1, 37, 100
3, 376704, Note_on_c, 1, 34, 110
3, 376752, Note_on_c, 1, 36, 110
3, 376784, Note_off_c, 1, 34, 100
3, 376800, Note_on_c, 1, 34, 110
3, 376832, Note_off_c, 1, 36, 100
3, 376848, Note_on_c, 1, 36, 110
3, 376880, Note_off_c, 1, 34, 100
3, 376896, Note_on_c, 1, 34, 110
3, 376928, Note_off_c, 1, 36, 100
3, 376944, Note_on_c, 1, 36, 110
3, 376976, Note_off_c, 1, 34, 100
3, 376992, Note_on_c, 1, 34, 110
3, 377024, Note_off_c, 1, 36, 100
3, 377040, Note_on_c, 1, 36, 110
3, 377072, Note_off_c, 1, 34, 100
3, 377088, Note_on_c, 1, 34, 110
3, 377120, Note_off_c, 1, 36, 100
3, 377136, Note_on_c, 1, 36, 110
3, 377168, Note_off_c, 1, 34, 100
3, 377184, Note_on_c, 1, 34, 110
3, 377216, Note_off_c, 1, 36, 100
3, 377232, Note_on_c, 1, 36, 110
3, 377264, Note_off_c, 1, 34, 100
3, 377280, Note_on_c, 1, 34, 110
3, 377312, Note_off_c, 1, 36, 100
3, 377328, Note_on_c, 1, 36, 110
3, 377360, Note_off_c, 1, 34, 100
3, 377376, Note_on_c, 1, 34, 110
3, 377408, Note_off_c, 1, 36, 100
3, 377424, Note_on_c, 1, 36, 110
3, 377456, Note_off_c, 1, 34, 100
3, 377472, Note_on_c, 1, 33, 110
3, 377504, Note_off_c, 1, 36, 100
3, 377852, Note_off_c, 1, 33, 100
3, 377856, Note_on_c, 1, 36, 110
3, 377904, Note_on_c, 1, 38, 110
3, 377936, Note_off_c, 1, 36, 100
3, 377952, Note_on_c, 1, 36, 110
3, 377984, Note_off_c, 1, 38, 100
3, 378000, Note_on_c, 1, 38, 110
3, 378032, Note_off_c, 1, 36, 100
3, 378048, Note_on_c, 1, 36, 110
3, 378080, Note_off_c, 1, 38, 100
3, 378096, Note_on_c, 1, 38, 110
3, 378128, Note_off_c, 1, 36, 100
3, 378144, Note_on_c, 1, 36, 110
3, 378176, Note_off_c, 1, 38, 100
3, 378192, Note_on_c, 1, 38, 110
3, 378224, Note_off_c, 1, 36, 100
3, 378240, Note_on_c, 1, 36, 110
3, 378272, Note_off_c, 1, 38, 100
3, 378288, Note_on_c, 1, 38, 110
3, 378320, Note_off_c, 1, 36, 100
3, 378336, Note_on_c, 1, 36, 110
3, 378368, Note_off_c, 1, 38, 100
3, 378384, Note_on_c, 1, 38, 110
3, 378416, Note_off_c, 1, 36, 100
3, 378432, Note_on_c, 1, 36, 110
3, 378464, Note_off_c, 1, 38, 100
3, 378480, Note_on_c, 1, 38, 110
3, 378512, Note_off_c, 1, 36, 100
3, 378528, Note_on_c, 1, 36, 110
3, 378560, Note_off_c, 1, 38, 100
3, 378576, Note_on_c, 1, 38, 110
3, 378608, Note_off_c, 1, 36, 100
3, 378624, Note_on_c, 1, 34, 110
3, 378656, Note_off_c, 1, 38, 100
3, 379004, Note_off_c, 1, 34, 100
3, 379008, Note_on_c, 1, 38, 110
3, 379056, Note_on_c, 1, 39, 110
3, 379088, Note_off_c, 1, 38, 100
3, 379104, Note_on_c, 1, 38, 110
3, 379136, Note_off_c, 1, 39, 100
3, 379152, Note_on_c, 1, 39, 110
3, 379184, Note_off_c, 1, 38, 100
3, 379200, Note_on_c, 1, 38, 110
3, 379232, Note_off_c, 1, 39, 100
3, 379248, Note_on_c, 1, 39, 110
3, 379280, Note_off_c, 1, 38, 100
3, 379296, Note_on_c, 1, 38, 110
3, 379328, Note_off_c, 1, 39, 100
3, 379344, Note_on_c, 1, 39, 110
3, 379376, Note_off_c, 1, 38, 100
3, 379392, Note_on_c, 1, 38, 110
3, 379424, Note_off_c, 1, 39, 100
3, 379440, Note_on_c, 1, 39, 110
3, 379472, Note_off_c, 1, 38, 100
3, 379488, Note_on_c, 1, 38, 110
3, 379520, Note_off_c, 1, 39, 100
3, 379536, Note_on_c, 1, 39, 110
3, 379568, Note_off_c, 1, 38, 100
3, 379584, Note_on_c, 1, 38, 110
3, 379616, Note_off_c, 1, 39, 100
3, 379632, Note_on_c, 1, 39, 110
3, 379664, Note_off_c, 1, 38, 100
3, 379680, Note_on_c, 1, 38, 110
3, 379712, Note_off_c, 1, 39, 100
3, 379728, Note_on_c, 1, 39, 110
3, 379760, Note_off_c, 1, 38, 100
3, 379776, Note_on_c, 1, 36, 110
3, 379808, Note_off_c, 1, 39, 100
3, 380156, Note_off_c, 1, 36, 100
3, 380160, Note_on_c, 1, 39, 110
3, 380208, Note_on_c, 1, 41, 110
3, 380240, Note_off_c, 1, 39, 100
3, 380256, Note_on_c, 1, 39, 110
3, 380288, Note_off_c, 1, 41, 100
3, 380304, Note_on_c, 1, 41, 110
3, 380336, Note_off_c, 1, 39, 100
3, 380352, Note_on_c, 1, 39, 110
3, 380384, Note_off_c, 1, 41, 100
3, 380400, Note_on_c, 1, 41, 110
3, 380432, Note_off_c, 1, 39, 100
3, 380448, Note_on_c, 1, 39, 110
3, 380480, Note_off_c, 1, 41, 100
3, 380496, Note_on_c, 1, 41, 110
3, 380528, Note_off_c, 1, 39, 100
3, 380544, Note_on_c, 1, 38, 110
3, 380576, Note_off_c, 1, 41, 100
3, 380924, Note_off_c, 1, 38, 100
3, 380928, Note_on_c, 1, 40, 110
3, 381116, Note_off_c, 1, 40, 100
3, 381120, Note_on_c, 1, 52, 110
3, 381308, Note_off_c, 1, 52, 100
3, 381312, Note_on_c, 1, 53, 110
3, 381408, Note_on_c, 1, 63, 110
3, 381500, Note_off_c, 1, 63, 100
3, 381504, Note_on_c, 1, 62, 110
3, 381596, Note_off_c, 1, 62, 100
3, 381600, Note_on_c, 1, 60, 110
3, 381692, Note_off_c, 1, 60, 100
3, 381696, Note_on_c, 1, 59, 110
3, 381788, Note_off_c, 1, 59, 100
3, 381792, Note_on_c, 1, 60, 110
3, 381884, Note_off_c, 1, 60, 100
3, 381888, Note_on_c, 1, 62, 110
3, 381980, Note_off_c, 1, 62, 100
3, 381984, Note_on_c, 1, 63, 110
3, 382076, Note_off_c, 1, 63, 100
3, 382080, Note_on_c, 1, 64, 110
3, 382172, Note_off_c, 1, 64, 100
3, 382176, Note_on_c, 1, 65, 110
3, 382268, Note_off_c, 1, 65, 100
3, 382272, Note_on_c, 1, 67, 110
3, 382364, Note_off_c, 1, 67, 100
3, 382368, Note_on_c, 1, 65, 110
3, 382460, Note_off_c, 1, 53, 100
3, 382460, Note_off_c, 1, 65, 100
3, 382464, Note_on_c, 1, 53, 110
3, 382464, Note_on_c, 1, 60, 110
3, 382556, Note_off_c, 1, 60, 100
3, 382560, Note_on_c, 1, 62, 110
3, 382652, Note_off_c, 1, 62, 100
3, 382656, Note_on_c, 1, 63, 110
3, 382748, Note_off_c, 1, 63, 100
3, 382752, Note_on_c, 1, 65, 110
3, 382844, Note_off_c, 1, 65, 100
3, 382848, Note_on_c, 1, 66, 110
3, 382940, Note_off_c, 1, 66, 100
3, 382944, Note_on_c, 1, 67, 110
3, 383036, Note_off_c, 1, 67, 100
3, 383040, Note_on_c, 1, 68, 110
3, 383132, Note_off_c, 1, 68, 100
3, 383136, Note_on_c, 1, 67, 110
3, 383228, Note_off_c, 1, 67, 100
3, 383232, Note_on_c, 1, 65, 110
3, 383324, Note_off_c, 1, 65, 100
3, 383328, Note_on_c, 1, 63, 110
3, 383420, Note_off_c, 1, 63, 100
3, 383424, Note_on_c, 1, 62, 110
3, 383516, Note_off_c, 1, 62, 100
3, 383520, Note_on_c, 1, 63, 110
3, 383612, Note_off_c, 1, 53, 100
3, 383612, Note_off_c, 1, 63, 100
3, 383616, Note_on_c, 1, 53, 110
3, 383616, Note_on_c, 1, 60, 110
3, 383708, Note_off_c, 1, 60, 100
3, 383712, Note_on_c, 1, 62, 110
3, 383804, Note_off_c, 1, 62, 100
3, 383808, Note_on_c, 1, 60, 110
3, 383900, Note_off_c, 1, 60, 100
3, 383904, Note_on_c, 1, 58, 110
3, 383996, Note_off_c, 1, 58, 100
3, 384000, Note_on_c, 1, 57, 110
3, 384092, Note_off_c, 1, 57, 100
3, 384096, Note_on_c, 1, 58, 110
3, 384188, Note_off_c, 1, 58, 100
3, 384192, Note_on_c, 1, 60, 110
3, 384284, Note_off_c, 1, 60, 100
3, 384288, Note_on_c, 1, 62, 110
3, 384380, Note_off_c, 1, 62, 100
3, 384384, Note_on_c, 1, 63, 110
3, 384476, Note_off_c, 1, 63, 100
3, 384480, Note_on_c, 1, 64, 110
3, 384572, Note_off_c, 1, 64, 100
3, 384576, Note_on_c, 1, 65, 110
3, 384668, Note_off_c, 1, 65, 100
3, 384672, Note_on_c, 1, 63, 110
3, 384764, Note_off_c, 1, 53, 100
3, 384764, Note_off_c, 1, 63, 100
3, 384768, Note_on_c, 1, 53, 110
3, 384768, Note_on_c, 1, 58, 110
3, 384860, Note_off_c, 1, 58, 100
3, 384864, Note_on_c, 1, 60, 110
3, 384956, Note_off_c, 1, 60, 100
3, 384960, Note_on_c, 1, 62, 110
3, 385052, Note_off_c, 1, 62, 100
3, 385056, Note_on_c, 1, 63, 110
3, 385148, Note_off_c, 1, 63, 100
3, 385152, Note_on_c, 1, 64, 110
3, 385244, Note_off_c, 1, 64, 100
3, 385248, Note_on_c, 1, 65, 110
3, 385340, Note_off_c, 1, 65, 100
3, 385344, Note_on_c, 1, 67, 110
3, 385436, Note_off_c, 1, 67, 100
3, 385440, Note_on_c, 1, 65, 110
3, 385532, Note_off_c, 1, 65, 100
3, 385536, Note_on_c, 1, 63, 110
3, 385628, Note_off_c, 1, 63, 100
3, 385632, Note_on_c, 1, 62, 110
3, 385724, Note_off_c, 1, 53, 100
3, 385724, Note_off_c, 1, 62, 100
3, 385728, Note_on_c, 1, 54, 110
3, 385728, Note_on_c, 1, 60, 110
3, 385820, Note_off_c, 1, 60, 100
3, 385824, Note_on_c, 1, 58, 110
3, 385916, Note_off_c, 1, 54, 100
3, 385916, Note_off_c, 1, 58, 100
3, 385920, Note_on_c, 1, 55, 110
3, 385920, Note_on_c, 1, 43, 110
3, 386108, Note_off_c, 1, 55, 100
3, 386108, Note_off_c, 1, 43, 100
3, 386304, Note_on_c, 1, 53, 125
3, 386304, Note_on_c, 1, 41, 127
3, 386876, Note_off_c, 1, 53, 100
3, 386876, Note_off_c, 1, 41, 100
3, 386880, Note_on_c, 1, 41, 110
3, 386880, Note_on_c, 1, 53, 110
3, 387068, Note_off_c, 1, 41, 100
3, 387068, Note_off_c, 1, 53, 100
3, 387072, Note_on_c, 1, 53, 110
3, 387072, Note_on_c, 1, 41, 110
3, 387260, Note_off_c, 1, 53, 100
3, 387260, Note_off_c, 1, 41, 100
3, 387264, Note_on_c, 1, 52, 110
3, 387264, Note_on_c, 1, 40, 110
3, 387452, Note_off_c, 1, 52, 100
3, 387452, Note_off_c, 1, 40, 100
3, 387456, Note_on_c, 1, 49, 110
3, 387456, Note_on_c, 1, 37, 110
3, 387644, Note_off_c, 1, 49, 100
3, 387644, Note_off_c, 1, 37, 100
3, 387648, Note_on_c, 1, 48, 110
3, 387648, Note_on_c, 1, 36, 110
3, 387836, Note_off_c, 1, 48, 100
3, 387836, Note_off_c, 1, 36, 100
3, 387840, Note_on_c, 1, 47, 110
3, 387840, Note_on_c, 1, 35, 110
3, 388028, Note_off_c, 1, 47, 100
3, 388028, Note_off_c, 1, 35, 100
3, 388032, Note_on_c, 1, 48, 110
3, 388032, Note_on_c, 1, 36, 110
3, 388220, Note_off_c, 1, 48, 100
3, 388220, Note_off_c, 1, 36, 100
3, 388224, Note_on_c, 1, 53, 110
3, 388224, Note_on_c, 1, 41, 110
3, 388412, Note_off_c, 1, 53, 100
3, 388412, Note_off_c, 1, 41, 100
3, 388608, Note_on_c, 1, 51, 124
3, 388608, Note_on_c, 1, 39, 125
3, 389180, Note_off_c, 1, 51, 100
3, 389180, Note_off_c, 1, 39, 100
3, 389184, Note_on_c, 1, 51, 110
3, 389184, Note_on_c, 1, 39, 110
3, 389372, Note_off_c, 1, 51, 100
3, 389372, Note_off_c, 1, 39, 100
3, 389376, Note_on_c, 1, 51, 110
3, 389376, Note_on_c, 1, 39, 110
3, 389564, Note_off_c, 1, 51, 100
3, 389564, Note_off_c, 1, 39, 100
3, 389568, Note_on_c, 1, 50, 110
3, 389568, Note_on_c, 1, 38, 110
3, 389756, Note_off_c, 1, 50, 100
3, 389756, Note_off_c, 1, 38, 100
3, 389760, Note_on_c, 1, 48, 110
3, 389760, Note_on_c, 1, 36, 110
3, 389948, Note_off_c, 1, 48, 100
3, 389948, Note_off_c, 1, 36, 100
3, 389952, Note_on_c, 1, 46, 110
3, 389952, Note_on_c, 1, 34, 110
3, 390140, Note_off_c, 1, 46, 100
3, 390140, Note_off_c, 1, 34, 100
3, 390144, Note_on_c, 1, 67, 110
3, 390332, Note_off_c, 1, 67, 100
3, 390336, Note_on_c, 1, 65, 110
3, 390524, Note_off_c, 1, 65, 100
3, 390528, Note_on_c, 1, 65, 110
3, 390716, Note_off_c, 1, 65, 100
3, 390720, Note_on_c, 1, 63, 110
3, 390908, Note_off_c, 1, 63, 100
3, 390912, Note_on_c, 1, 62, 110
3, 391100, Note_off_c, 1, 62, 100
3, 391104, Note_on_c, 1, 60, 110
3, 391292, Note_off_c, 1, 60, 100
3, 391296, Note_on_c, 1, 53, 110
3, 391296, Note_on_c, 1, 41, 110
3, 391484, Note_off_c, 1, 53, 100
3, 391484, Note_off_c, 1, 41, 100
3, 391488, Note_on_c, 1, 39, 110
3, 391488, Note_on_c, 1, 51, 110
3, 391676, Note_off_c, 1, 39, 100
3, 391676, Note_off_c, 1, 51, 100
3, 391680, Note_on_c, 1, 51, 110
3, 391680, Note_on_c, 1, 39, 110
3, 391868, Note_off_c, 1, 51, 100
3, 391868, Note_off_c, 1, 39, 100
3, 391872, Note_on_c, 1, 50, 110
3, 391872, Note_on_c, 1, 38, 110
3, 392060, Note_off_c, 1, 50, 100
3, 392060, Note_off_c, 1, 38, 100
3, 392064, Note_on_c, 1, 48, 110
3, 392064, Note_on_c, 1, 36, 110
3, 392252, Note_off_c, 1, 48, 100
3, 392252, Note_off_c, 1, 36, 100
3, 392256, Note_on_c, 1, 46, 110
3, 392256, Note_on_c, 1, 34, 110
3, 392444, Note_off_c, 1, 46, 100
3, 392444, Note_off_c, 1, 34, 100
3, 392448, Note_on_c, 1, 75, 110
3, 392636, Note_off_c, 1, 75, 100
3, 392640, Note_on_c, 1, 74, 110
3, 392828, Note_off_c, 1, 74, 100
3, 392832, Note_on_c, 1, 74, 110
3, 393020, Note_off_c, 1, 74, 100
3, 393024, Note_on_c, 1, 72, 110
3, 393212, Note_off_c, 1, 72, 100
3, 393216, Note_on_c, 1, 70, 110
3, 393404, Note_off_c, 1, 70, 100
3, 393408, Note_on_c, 1, 69, 110
3, 393596, Note_off_c, 1, 69, 100
3, 393600, Note_on_c, 1, 74, 110
3, 393788, Note_off_c, 1, 74, 100
3, 393792, Note_on_c, 1, 72, 110
3, 393980, Note_off_c, 1, 72, 100
3, 393984, Note_on_c, 1, 72, 110
3, 394172, Note_off_c, 1, 72, 100
3, 394176, Note_on_c, 1, 70, 110
3, 394364, Note_off_c, 1, 70, 100
3, 394368, Note_on_c, 1, 74, 110
3, 394556, Note_off_c, 1, 74, 100
3, 394560, Note_on_c, 1, 75, 110
3, 394748, Note_off_c, 1, 75, 100
3, 394752, Note_on_c, 1, 74, 110
3, 394940, Note_off_c, 1, 74, 100
3, 394944, Note_on_c, 1, 72, 110
3, 395132, Note_off_c, 1, 72, 100
3, 395136, Note_on_c, 1, 76, 110
3, 395324, Note_off_c, 1, 76, 100
3, 395328, Note_on_c, 1, 77, 110
3, 395516, Note_off_c, 1, 77, 100
3, 395520, Note_on_c, 1, 75, 110
3, 395708, Note_off_c, 1, 75, 100
3, 395712, Note_on_c, 1, 74, 110
3, 395900, Note_off_c, 1, 74, 100
3, 395904, Note_on_c, 1, 54, 110
3, 395904, Note_on_c, 1, 42, 110
3, 396092, Note_off_c, 1, 54, 100
3, 396092, Note_off_c, 1, 42, 100
3, 396096, Note_on_c, 1, 55, 110
3, 396096, Note_on_c, 1, 43, 110
3, 396284, Note_off_c, 1, 55, 100
3, 396284, Note_off_c, 1, 43, 100
3, 396288, Note_on_c, 1, 53, 110
3, 396288, Note_on_c, 1, 41, 110
3, 396476, Note_off_c, 1, 53, 100
3, 396476, Note_off_c, 1, 41, 100
3, 396480, Note_on_c, 1, 52, 110
3, 396480, Note_on_c, 1, 40, 110
3, 396668, Note_off_c, 1, 52, 100
3, 396668, Note_off_c, 1, 40, 100
3, 396672, Note_on_c, 1, 55, 111
3, 396672, Note_on_c, 1, 43, 111
3, 396860, Note_off_c, 1, 55, 100
3, 396860, Note_off_c, 1, 43, 100
3, 396864, Note_on_c, 1, 57, 112
3, 396864, Note_on_c, 1, 45, 112
3, 397052, Note_off_c, 1, 57, 100
3, 397052, Note_off_c, 1, 45, 100
3, 397056, Note_on_c, 1, 55, 113
3, 397056, Note_on_c, 1, 43, 113
3, 397244, Note_off_c, 1, 55, 100
3, 397244, Note_off_c, 1, 43, 100
3, 397248, Note_on_c, 1, 54, 114
3, 397248, Note_on_c, 1, 42, 114
3, 397436, Note_off_c, 1, 54, 100
3, 397436, Note_off_c, 1, 42, 100
3, 397440, Note_on_c, 1, 57, 115
3, 397440, Note_on_c, 1, 45, 115
3, 397628, Note_off_c, 1, 57, 100
3, 397628, Note_off_c, 1, 45, 100
3, 397632, Note_on_c, 1, 58, 116
3, 397632, Note_on_c, 1, 46, 116
3, 397820, Note_off_c, 1, 58, 100
3, 397820, Note_off_c, 1, 46, 100
3, 397824, Note_on_c, 1, 54, 116
3, 397824, Note_on_c, 1, 42, 116
3, 398012, Note_off_c, 1, 54, 100
3, 398012, Note_off_c, 1, 42, 100
3, 398016, Note_on_c, 1, 55, 117
3, 398016, Note_on_c, 1, 43, 117
3, 398204, Note_off_c, 1, 55, 100
3, 398204, Note_off_c, 1, 43, 100
3, 398208, Note_on_c, 1, 51, 118
3, 398208, Note_on_c, 1, 39, 118
3, 398396, Note_off_c, 1, 51, 100
3, 398396, Note_off_c, 1, 39, 100
3, 398400, Note_on_c, 1, 52, 119
3, 398400, Note_on_c, 1, 40, 119
3, 398588, Note_off_c, 1, 52, 100
3, 398588, Note_off_c, 1, 40, 100
3, 398592, Note_on_c, 1, 61, 125
3, 398592, Note_on_c, 1, 58, 125
3, 398780, Note_off_c, 1, 61, 100
3, 398780, Note_off_c, 1, 58, 100
3, 398976, Note_on_c, 1, 43, 110
3, 398976, Note_on_c, 1, 46, 110
3, 399024, Note_on_c, 1, 45, 110
3, 399068, Note_off_c, 1, 43, 100
3, 399072, Note_on_c, 1, 43, 110
3, 399116, Note_off_c, 1, 45, 100
3, 399120, Note_on_c, 1, 45, 110
3, 399164, Note_off_c, 1, 43, 100
3, 399168, Note_on_c, 1, 43, 110
3, 399212, Note_off_c, 1, 45, 100
3, 399216, Note_on_c, 1, 45, 110
3, 399260, Note_off_c, 1, 43, 100
3, 399264, Note_on_c, 1, 43, 110
3, 399308, Note_off_c, 1, 45, 100
3, 399312, Note_on_c, 1, 45, 110
3, 399356, Note_off_c, 1, 43, 100
3, 399360, Note_on_c, 1, 43, 110
3, 399404, Note_off_c, 1, 45, 100
3, 399408, Note_on_c, 1, 45, 110
3, 399452, Note_off_c, 1, 43, 100
3, 399456, Note_on_c, 1, 43, 110
3, 399500, Note_off_c, 1, 45, 100
3, 399504, Note_on_c, 1, 45, 110
3, 399548, Note_off_c, 1, 43, 100
3, 399552, Note_on_c, 1, 43, 110
3, 399596, Note_off_c, 1, 45, 100
3, 399600, Note_on_c, 1, 45, 110
3, 399644, Note_off_c, 1, 43, 100
3, 399648, Note_on_c, 1, 41, 110
3, 399692, Note_off_c, 1, 45, 100
3, 399696, Note_on_c, 1, 43, 110
3, 399740, Note_off_c, 1, 46, 100
3, 399740, Note_off_c, 1, 41, 100
3, 399740, Note_off_c, 1, 43, 100
3, 400320, Note_on_c, 1, 91, 90
3, 400412, Note_off_c, 1, 91, 100
3, 400416, Note_on_c, 1, 89, 90
3, 400508, Note_off_c, 1, 89, 100
3, 400512, Note_on_c, 1, 88, 90
3, 400604, Note_off_c, 1, 88, 100
3, 400608, Note_on_c, 1, 85, 90
3, 400700, Note_off_c, 1, 85, 100
3, 400704, Note_on_c, 1, 84, 90
3, 400796, Note_off_c, 1, 84, 100
3, 400800, Note_on_c, 1, 82, 90
3, 400892, Note_off_c, 1, 82, 100
3, 401472, Note_on_c, 1, 77, 90
3, 401564, Note_off_c, 1, 77, 100
3, 401568, Note_on_c, 1, 76, 90
3, 401660, Note_off_c, 1, 76, 100
3, 401664, Note_on_c, 1, 74, 90
3, 401756, Note_off_c, 1, 74, 100
3, 401760, Note_on_c, 1, 72, 90
3, 401852, Note_off_c, 1, 72, 100
3, 401856, Note_on_c, 1, 70, 90
3, 401948, Note_off_c, 1, 70, 100
3, 401952, Note_on_c, 1, 69, 90
3, 402044, Note_off_c, 1, 69, 100
3, 402624, Note_on_c, 1, 74, 90
3, 402716, Note_off_c, 1, 74, 100
3, 402720, Note_on_c, 1, 72, 90
3, 402812, Note_off_c, 1, 72, 100
3, 402816, Note_on_c, 1, 70, 90
3, 402908, Note_off_c, 1, 70, 100
3, 402912, Note_on_c, 1, 69, 90
3, 403004, Note_off_c, 1, 69, 100
3, 403008, Note_on_c, 1, 67, 90
3, 403100, Note_off_c, 1, 67, 100
3, 403104, Note_on_c, 1, 65, 90
3, 403196, Note_off_c, 1, 65, 100
3, 403776, Note_on_c, 1, 70, 90
3, 403868, Note_off_c, 1, 70, 100
3, 403872, Note_on_c, 1, 69, 90
3, 403964, Note_off_c, 1, 69, 100
3, 403968, Note_on_c, 1, 67, 90
3, 404060, Note_off_c, 1, 67, 100
3, 404064, Note_on_c, 1, 69, 90
3, 404156, Note_off_c, 1, 69, 100
3, 404160, Note_on_c, 1, 67, 90
3, 404252, Note_off_c, 1, 67, 100
3, 404256, Note_on_c, 1, 65, 90
3, 404348, Note_off_c, 1, 65, 100
3, 404352, Note_on_c, 1, 64, 90
3, 404444, Note_off_c, 1, 64, 100
3, 404448, Note_on_c, 1, 65, 90
3, 404540, Note_off_c, 1, 65, 100
3, 404544, Note_on_c, 1, 64, 90
3, 404636, Note_off_c, 1, 64, 100
3, 404640, Note_on_c, 1, 62, 90
3, 404732, Note_off_c, 1, 62, 100
3, 404736, Note_on_c, 1, 60, 90
3, 404828, Note_off_c, 1, 60, 100
3, 404832, Note_on_c, 1, 62, 90
3, 404924, Note_off_c, 1, 62, 100
3, 404928, Note_on_c, 1, 64, 90
3, 405020, Note_off_c, 1, 64, 100
3, 405024, Note_on_c, 1, 65, 90
3, 405116, Note_off_c, 1, 65, 100
3, 405120, Note_on_c, 1, 66, 90
3, 405212, Note_off_c, 1, 66, 100
3, 405216, Note_on_c, 1, 67, 90
3, 405308, Note_off_c, 1, 67, 100
3, 405312, Note_on_c, 1, 69, 90
3, 405404, Note_off_c, 1, 69, 100
3, 405408, Note_on_c, 1, 67, 90
3, 405500, Note_off_c, 1, 67, 100
3, 405504, Note_on_c, 1, 70, 90
3, 405692, Note_off_c, 1, 70, 100
3, 405888, Note_on_c, 1, 69, 90
3, 406460, Note_off_c, 1, 69, 100
3, 406464, Note_on_c, 1, 69, 90
3, 406652, Note_off_c, 1, 69, 100
3, 406656, Note_on_c, 1, 66, 90
3, 406748, Note_off_c, 1, 66, 100
3, 406752, Note_on_c, 1, 67, 90
3, 406844, Note_off_c, 1, 67, 100
3, 406848, Note_on_c, 1, 66, 90
3, 406940, Note_off_c, 1, 66, 100
3, 406944, Note_on_c, 1, 64, 90
3, 407036, Note_off_c, 1, 64, 100
3, 407040, Note_on_c, 1, 62, 90
3, 407132, Note_off_c, 1, 62, 100
3, 407136, Note_on_c, 1, 64, 90
3, 407228, Note_off_c, 1, 64, 100
3, 407232, Note_on_c, 1, 66, 90
3, 407324, Note_off_c, 1, 66, 100
3, 407328, Note_on_c, 1, 67, 90
3, 407420, Note_off_c, 1, 67, 100
3, 407424, Note_on_c, 1, 68, 90
3, 407516, Note_off_c, 1, 68, 100
3, 407520, Note_on_c, 1, 69, 90
3, 407612, Note_off_c, 1, 69, 100
3, 407616, Note_on_c, 1, 70, 90
3, 407708, Note_off_c, 1, 70, 100
3, 407712, Note_on_c, 1, 69, 90
3, 407804, Note_off_c, 1, 69, 100
3, 407808, Note_on_c, 1, 72, 90
3, 407996, Note_off_c, 1, 72, 100
3, 408192, Note_on_c, 1, 70, 90
3, 408764, Note_off_c, 1, 70, 100
3, 408768, Note_on_c, 1, 70, 90
3, 408956, Note_off_c, 1, 70, 100
3, 408960, Note_on_c, 1, 69, 90
3, 409052, Note_off_c, 1, 69, 100
3, 409056, Note_on_c, 1, 70, 90
3, 409148, Note_off_c, 1, 70, 100
3, 409152, Note_on_c, 1, 69, 90
3, 409244, Note_off_c, 1, 69, 100
3, 409248, Note_on_c, 1, 67, 90
3, 409340, Note_off_c, 1, 67, 100
3, 409344, Note_on_c, 1, 65, 90
3, 409436, Note_off_c, 1, 65, 100
3, 409440, Note_on_c, 1, 67, 90
3, 409532, Note_off_c, 1, 67, 100
3, 409536, Note_on_c, 1, 69, 90
3, 409628, Note_off_c, 1, 69, 100
3, 409632, Note_on_c, 1, 70, 90
3, 409724, Note_off_c, 1, 70, 100
3, 409728, Note_on_c, 1, 71, 90
3, 409820, Note_off_c, 1, 71, 100
3, 409824, Note_on_c, 1, 72, 90
3, 409916, Note_off_c, 1, 72, 100
3, 409920, Note_on_c, 1, 74, 90
3, 410012, Note_off_c, 1, 74, 100
3, 410016, Note_on_c, 1, 72, 90
3, 410108, Note_off_c, 1, 72, 100
3, 410112, Note_on_c, 1, 75, 90
3, 410300, Note_off_c, 1, 75, 100
3, 410496, Note_on_c, 1, 74, 93
3, 411068, Note_off_c, 1, 74, 100
3, 411072, Note_on_c, 1, 75, 98
3, 411164, Note_off_c, 1, 75, 100
3, 411168, Note_on_c, 1, 73, 99
3, 411260, Note_off_c, 1, 73, 100
3, 411264, Note_on_c, 1, 71, 100
3, 411356, Note_off_c, 1, 71, 100
3, 411360, Note_on_c, 1, 72, 101
3, 411452, Note_off_c, 1, 72, 100
3, 411456, Note_on_c, 1, 73, 102
3, 411548, Note_off_c, 1, 73, 100
3, 411552, Note_on_c, 1, 72, 103
3, 411644, Note_off_c, 1, 72, 100
3, 411648, Note_on_c, 1, 69, 103
3, 411740, Note_off_c, 1, 69, 100
3, 411744, Note_on_c, 1, 70, 104
3, 411836, Note_off_c, 1, 70, 100
3, 411840, Note_on_c, 1, 72, 105
3, 411932, Note_off_c, 1, 72, 100
3, 411936, Note_on_c, 1, 70, 106
3, 412028, Note_off_c, 1, 70, 100
3, 412032, Note_on_c, 1, 68, 107
3, 412124, Note_off_c, 1, 68, 100
3, 412128, Note_on_c, 1, 69, 108
3, 412220, Note_off_c, 1, 69, 100
3, 412224, Note_on_c, 1, 70, 109
3, 412316, Note_off_c, 1, 70, 100
3, 412320, Note_on_c, 1, 69, 109
3, 412412, Note_off_c, 1, 69, 100
3, 412416, Note_on_c, 1, 29, 110
3, 412604, Note_off_c, 1, 29, 100
3, 412800, Note_on_c, 1, 45, 110
3, 412848, Note_on_c, 1, 46, 110
3, 412880, Note_off_c, 1, 45, 100
3, 412896, Note_on_c, 1, 45, 110
3, 412928, Note_off_c, 1, 46, 100
3, 412944, Note_on_c, 1, 46, 110
3, 412976, Note_off_c, 1, 45, 100
3, 412992, Note_on_c, 1, 45, 110
3, 413024, Note_off_c, 1, 46, 100
3, 413040, Note_on_c, 1, 46, 110
3, 413072, Note_off_c, 1, 45, 100
3, 413088, Note_on_c, 1, 45, 110
3, 413120, Note_off_c, 1, 46, 100
3, 413136, Note_on_c, 1, 46, 110
3, 413168, Note_off_c, 1, 45, 100
3, 413184, Note_on_c, 1, 45, 110
3, 413216, Note_off_c, 1, 46, 100
3, 413232, Note_on_c, 1, 46, 110
3, 413264, Note_off_c, 1, 45, 100
3, 413280, Note_on_c, 1, 45, 110
3, 413312, Note_off_c, 1, 46, 100
3, 413328, Note_on_c, 1, 46, 110
3, 413360, Note_off_c, 1, 45, 100
3, 413376, Note_on_c, 1, 45, 110
3, 413408, Note_off_c, 1, 46, 100
3, 413424, Note_on_c, 1, 46, 110
3, 413456, Note_off_c, 1, 45, 100
3, 413472, Note_on_c, 1, 43, 110
3, 413504, Note_off_c, 1, 46, 100
3, 413520, Note_on_c, 1, 45, 110
3, 413552, Note_off_c, 1, 43, 100
3, 413568, Note_on_c, 1, 46, 110
3, 413600, Note_off_c, 1, 45, 100
3, 413948, Note_off_c, 1, 46, 100
3, 414144, Note_on_c, 1, 46, 110
3, 414236, Note_off_c, 1, 46, 100
3, 414240, Note_on_c, 1, 45, 110
3, 414332, Note_off_c, 1, 45, 100
3, 414336, Note_on_c, 1, 43, 110
3, 414428, Note_off_c, 1, 43, 100
3, 414432, Note_on_c, 1, 41, 110
3, 414524, Note_off_c, 1, 41, 100
3, 414528, Note_on_c, 1, 39, 110
3, 414620, Note_off_c, 1, 39, 100
3, 414624, Note_on_c, 1, 38, 110
3, 414716, Note_off_c, 1, 38, 100
3, 414720, Note_on_c, 1, 41, 110
3, 415100, Note_off_c, 1, 41, 100
3, 415296, Note_on_c, 1, 43, 110
3, 415388, Note_off_c, 1, 43, 100
3, 415392, Note_on_c, 1, 41, 110
3, 415484, Note_off_c, 1, 41, 100
3, 415488, Note_on_c, 1, 39, 110
3, 415580, Note_off_c, 1, 39, 100
3, 415584, Note_on_c, 1, 38, 110
3, 415676, Note_off_c, 1, 38, 100
3, 415680, Note_on_c, 1, 36, 110
3, 415772, Note_off_c, 1, 36, 100
3, 415776, Note_on_c, 1, 34, 110
3, 415868, Note_off_c, 1, 34, 100
3, 415872, Note_on_c, 1, 39, 110
3, 416252, Note_off_c, 1, 39, 100
3, 416448, Note_on_c, 1, 39, 110
3, 416540, Note_off_c, 1, 39, 100
3, 416544, Note_on_c, 1, 38, 110
3, 416636, Note_off_c, 1, 38, 100
3, 416640, Note_on_c, 1, 36, 110
3, 416732, Note_off_c, 1, 36, 100
3, 416736, Note_on_c, 1, 38, 110
3, 416828, Note_off_c, 1, 38, 100
3, 416832, Note_on_c, 1, 36, 110
3, 416924, Note_off_c, 1, 36, 100
3, 416928, Note_on_c, 1, 34, 110
3, 417020, Note_off_c, 1, 34, 100
3, 417024, Note_on_c, 1, 33, 110
3, 417212, Note_off_c, 1, 33, 100
3, 417216, Note_on_c, 1, 45, 110
3, 417308, Note_off_c, 1, 45, 100
3, 417312, Note_on_c, 1, 43, 110
3, 417404, Note_off_c, 1, 43, 100
3, 417408, Note_on_c, 1, 41, 110
3, 417408, Note_on_c, 1, 53, 110
3, 417596, Note_off_c, 1, 41, 100
3, 417596, Note_off_c, 1, 53, 100
3, 418752, Note_on_c, 1, 46, 110
3, 418940, Note_off_c, 1, 46, 100
3, 418944, Note_on_c, 1, 62, 110
3, 418992, Note_on_c, 1, 63, 110
3, 419024, Note_off_c, 1, 62, 100
3, 419040, Note_on_c, 1, 62, 110
3, 419072, Note_off_c, 1, 63, 100
3, 419088, Note_on_c, 1, 63, 110
3, 419120, Note_off_c, 1, 62, 100
3, 419168, Note_off_c, 1, 63, 100
3, 421056, Note_on_c, 1, 51, 110
3, 421244, Note_off_c, 1, 51, 100
3, 421248, Note_on_c, 1, 60, 110
3, 421296, Note_on_c, 1, 62, 110
3, 421328, Note_off_c, 1, 60, 100
3, 421344, Note_on_c, 1, 60, 110
3, 421376, Note_off_c, 1, 62, 100
3, 421392, Note_on_c, 1, 62, 110
3, 421424, Note_off_c, 1, 60, 100
3, 421472, Note_off_c, 1, 62, 100
3, 422016, Note_on_c, 1, 36, 110
3, 422204, Note_off_c, 1, 36, 100
3, 422400, Note_on_c, 1, 52, 110
3, 422448, Note_on_c, 1, 53, 110
3, 422480, Note_off_c, 1, 52, 100
3, 422496, Note_on_c, 1, 52, 110
3, 422528, Note_off_c, 1, 53, 100
3, 422544, Note_on_c, 1, 53, 110
3, 422576, Note_off_c, 1, 52, 100
3, 422592, Note_on_c, 1, 52, 110
3, 422624, Note_off_c, 1, 53, 100
3, 422640, Note_on_c, 1, 53, 110
3, 422672, Note_off_c, 1, 52, 100
3, 422688, Note_on_c, 1, 52, 110
3, 422720, Note_off_c, 1, 53, 100
3, 422736, Note_on_c, 1, 53, 110
3, 422768, Note_off_c, 1, 52, 100
3, 422784, Note_on_c, 1, 52, 110
3, 422816, Note_off_c, 1, 53, 100
3, 422832, Note_on_c, 1, 53, 110
3, 422864, Note_off_c, 1, 52, 100
3, 422880, Note_on_c, 1, 52, 110
3, 422912, Note_off_c, 1, 53, 100
3, 422928, Note_on_c, 1, 53, 110
3, 422960, Note_off_c, 1, 52, 100
3, 422976, Note_on_c, 1, 52, 110
3, 423008, Note_off_c, 1, 53, 100
3, 423024, Note_on_c, 1, 53, 110
3, 423056, Note_off_c, 1, 52, 100
3, 423072, Note_on_c, 1, 50, 110
3, 423104, Note_off_c, 1, 53, 100
3, 423120, Note_on_c, 1, 52, 110
3, 423152, Note_off_c, 1, 50, 100
3, 423168, Note_on_c, 1, 53, 110
3, 423200, Note_off_c, 1, 52, 100
3, 423548, Note_off_c, 1, 53, 100
3, 423744, Note_on_c, 1, 53, 110
3, 423836, Note_off_c, 1, 53, 100
3, 423840, Note_on_c, 1, 52, 110
3, 423932, Note_off_c, 1, 52, 100
3, 423936, Note_on_c, 1, 50, 110
3, 424028, Note_off_c, 1, 50, 100
3, 424032, Note_on_c, 1, 48, 110
3, 424124, Note_off_c, 1, 48, 100
3, 424128, Note_on_c, 1, 46, 110
3, 424220, Note_off_c, 1, 46, 100
3, 424224, Note_on_c, 1, 45, 110
3, 424316, Note_off_c, 1, 45, 100
3, 424320, Note_on_c, 1, 55, 110
3, 424700, Note_off_c, 1, 55, 100
3, 424896, Note_on_c, 1, 55, 110
3, 424988, Note_off_c, 1, 55, 100
3, 424992, Note_on_c, 1, 53, 110
3, 425084, Note_off_c, 1, 53, 100
3, 425088, Note_on_c, 1, 51, 110
3, 425180, Note_off_c, 1, 51, 100
3, 425184, Note_on_c, 1, 50, 110
3, 425276, Note_off_c, 1, 50, 100
3, 425280, Note_on_c, 1, 48, 110
3, 425372, Note_off_c, 1, 48, 100
3, 425376, Note_on_c, 1, 46, 110
3, 425468, Note_off_c, 1, 46, 100
3, 425472, Note_on_c, 1, 57, 110
3, 425852, Note_off_c, 1, 57, 100
3, 426048, Note_on_c, 1, 57, 110
3, 426140, Note_off_c, 1, 57, 100
3, 426144, Note_on_c, 1, 55, 110
3, 426236, Note_off_c, 1, 55, 100
3, 426240, Note_on_c, 1, 53, 110
3, 426240, Note_on_c, 1, 57, 110
3, 426332, Note_off_c, 1, 53, 100
3, 426332, Note_off_c, 1, 57, 100
3, 426336, Note_on_c, 1, 51, 110
3, 426336, Note_on_c, 1, 55, 110
3, 426428, Note_off_c, 1, 51, 100
3, 426428, Note_off_c, 1, 55, 100
3, 426432, Note_on_c, 1, 50, 110
3, 426432, Note_on_c, 1, 53, 110
3, 426524, Note_off_c, 1, 50, 100
3, 426524, Note_off_c, 1, 53, 100
3, 426528, Note_on_c, 1, 48, 110
3, 426528, Note_on_c, 1, 51, 110
3, 426620, Note_off_c, 1, 48, 100
3, 426620, Note_off_c, 1, 51, 100
3, 426624, Note_on_c, 1, 50, 110
3, 426624, Note_on_c, 1, 46, 110
3, 426716, Note_off_c, 1, 50, 100
3, 426716, Note_off_c, 1, 46, 100
3, 426720, Note_on_c, 1, 57, 110
3, 426720, Note_on_c, 1, 60, 110
3, 426812, Note_off_c, 1, 57, 100
3, 426812, Note_off_c, 1, 60, 100
3, 426816, Note_on_c, 1, 55, 110
3, 426816, Note_on_c, 1, 58, 110
3, 426908, Note_off_c, 1, 55, 100
3, 426908, Note_off_c, 1, 58, 100
3, 426912, Note_on_c, 1, 53, 110
3, 426912, Note_on_c, 1, 57, 110
3, 427004, Note_off_c, 1, 53, 100
3, 427004, Note_off_c, 1, 57, 100
3, 427008, Note_on_c, 1, 58, 110
3, 427100, Note_off_c, 1, 58, 100
3, 427104, Note_on_c, 1, 57, 110
3, 427196, Note_off_c, 1, 57, 100
3, 427200, Note_on_c, 1, 62, 110
3, 427292, Note_off_c, 1, 62, 100
3, 427296, Note_on_c, 1, 60, 110
3, 427388, Note_off_c, 1, 60, 100
3, 427392, Note_on_c, 1, 58, 110
3, 427484, Note_off_c, 1, 58, 100
3, 427488, Note_on_c, 1, 57, 110
3, 427580, Note_off_c, 1, 57, 100
3, 427584, Note_on_c, 1, 55, 110
3, 427676, Note_off_c, 1, 55, 100
3, 427680, Note_on_c, 1, 53, 110
3, 427772, Note_off_c, 1, 53, 100
3, 427776, Note_on_c, 1, 51, 110
3, 427868, Note_off_c, 1, 51, 100
3, 427872, Note_on_c, 1, 50, 110
3, 427964, Note_off_c, 1, 50, 100
3, 427968, Note_on_c, 1, 48, 110
3, 428060, Note_off_c, 1, 48, 100
3, 428064, Note_on_c, 1, 46, 110
3, 428156, Note_off_c, 1, 46, 100
3, 428160, Note_on_c, 1, 43, 110
3, 428252, Note_off_c, 1, 43, 100
3, 428256, Note_on_c, 1, 45, 110
3, 428348, Note_off_c, 1, 45, 100
3, 428352, Note_on_c, 1, 46, 110
3, 428444, Note_off_c, 1, 46, 100
3, 428448, Note_on_c, 1, 47, 110
3, 428540, Note_off_c, 1, 47, 100
3, 428544, Note_on_c, 1, 48, 110
3, 428636, Note_off_c, 1, 48, 100
3, 428640, Note_on_c, 1, 50, 110
3, 428732, Note_off_c, 1, 50, 100
3, 428736, Note_on_c, 1, 51, 110
3, 428828, Note_off_c, 1, 51, 100
3, 428832, Note_on_c, 1, 50, 110
3, 428924, Note_off_c, 1, 50, 100
3, 428928, Note_on_c, 1, 48, 110
3, 429020, Note_off_c, 1, 48, 100
3, 429024, Note_on_c, 1, 46, 110
3, 429116, Note_off_c, 1, 46, 100
3, 429120, Note_on_c, 1, 45, 110
3, 429212, Note_off_c, 1, 45, 100
3, 429216, Note_on_c, 1, 43, 110
3, 429308, Note_off_c, 1, 43, 100
3, 429312, Note_on_c, 1, 41, 110
3, 429404, Note_off_c, 1, 41, 100
3, 429408, Note_on_c, 1, 39, 110
3, 429500, Note_off_c, 1, 39, 100
3, 429504, Note_on_c, 1, 38, 110
3, 429596, Note_off_c, 1, 38, 100
3, 429600, Note_on_c, 1, 36, 110
3, 429692, Note_off_c, 1, 36, 100
3, 429696, Note_on_c, 1, 34, 110
3, 429884, Note_off_c, 1, 34, 100
3, 430080, Note_on_c, 1, 50, 110
3, 430128, Note_on_c, 1, 51, 110
3, 430160, Note_off_c, 1, 50, 100
3, 430176, Note_on_c, 1, 50, 110
3, 430208, Note_off_c, 1, 51, 100
3, 430224, Note_on_c, 1, 51, 110
3, 430256, Note_off_c, 1, 50, 100
3, 430272, Note_on_c, 1, 50, 110
3, 430304, Note_off_c, 1, 51, 100
3, 430320, Note_on_c, 1, 51, 110
3, 430352, Note_off_c, 1, 50, 100
3, 430368, Note_on_c, 1, 50, 110
3, 430400, Note_off_c, 1, 51, 100
3, 430416, Note_on_c, 1, 51, 110
3, 430448, Note_off_c, 1, 50, 100
3, 430464, Note_on_c, 1, 50, 110
3, 430496, Note_off_c, 1, 51, 100
3, 430512, Note_on_c, 1, 51, 110
3, 430544, Note_off_c, 1, 50, 100
3, 430560, Note_on_c, 1, 50, 110
3, 430592, Note_off_c, 1, 51, 100
3, 430608, Note_on_c, 1, 51, 110
3, 430640, Note_off_c, 1, 50, 100
3, 430656, Note_on_c, 1, 50, 110
3, 430688, Note_off_c, 1, 51, 100
3, 430704, Note_on_c, 1, 51, 110
3, 430736, Note_off_c, 1, 50, 100
3, 430752, Note_on_c, 1, 48, 110
3, 430784, Note_off_c, 1, 51, 100
3, 430800, Note_on_c, 1, 50, 110
3, 430832, Note_off_c, 1, 48, 100
3, 430848, Note_on_c, 1, 51, 110
3, 430848, Note_on_c, 1, 63, 110
3, 430880, Note_off_c, 1, 50, 100
3, 431036, Note_off_c, 1, 51, 100
3, 431036, Note_off_c, 1, 63, 100
3, 432576, Note_on_c, 1, 52, 110
3, 432764, Note_off_c, 1, 52, 100
3, 432768, Note_on_c, 1, 53, 110
3, 432960, Note_on_c, 1, 64, 110
3, 433148, Note_off_c, 1, 53, 100
3, 433148, Note_off_c, 1, 64, 100
3, 433152, Note_on_c, 1, 65, 110
3, 433340, Note_off_c, 1, 65, 100
3, 433344, Note_on_c, 1, 53, 110
3, 433532, Note_off_c, 1, 53, 100
3, 433536, Note_on_c, 1, 63, 110
3, 433536, Note_on_c, 1, 66, 110
3, 434108, Note_off_c, 1, 63, 100
3, 434108, Note_off_c, 1, 66, 100
3, 434112, Note_on_c, 1, 63, 110
3, 434112, Note_on_c, 1, 66, 110
3, 434300, Note_off_c, 1, 63, 100
3, 434300, Note_off_c, 1, 66, 100
3, 434304, Note_on_c, 1, 63, 110
3, 434304, Note_on_c, 1, 66, 110
3, 434492, Note_off_c, 1, 63, 100
3, 434492, Note_off_c, 1, 66, 100
3, 434496, Note_on_c, 1, 62, 110
3, 434496, Note_on_c, 1, 65, 110
3, 434684, Note_off_c, 1, 62, 100
3, 434684, Note_off_c, 1, 65, 100
3, 434688, Note_on_c, 1, 60, 110
3, 434688, Note_on_c, 1, 63, 110
3, 434876, Note_off_c, 1, 60, 100
3, 434876, Note_off_c, 1, 63, 100
3, 434880, Note_on_c, 1, 58, 110
3, 434880, Note_on_c, 1, 62, 110
3, 435068, Note_off_c, 1, 58, 100
3, 435068, Note_off_c, 1, 62, 100
3, 435072, Note_on_c, 1, 50, 110
3, 435164, Note_off_c, 1, 50, 100
3, 435168, Note_on_c, 1, 51, 110
3, 435260, Note_off_c, 1, 51, 100
3, 435264, Note_on_c, 1, 50, 110
3, 435356, Note_off_c, 1, 50, 100
3, 435360, Note_on_c, 1, 48, 110
3, 435452, Note_off_c, 1, 48, 100
3, 435456, Note_on_c, 1, 46, 110
3, 435548, Note_off_c, 1, 46, 100
3, 435552, Note_on_c, 1, 48, 110
3, 435644, Note_off_c, 1, 48, 100
3, 435648, Note_on_c, 1, 50, 110
3, 435740, Note_off_c, 1, 50, 100
3, 435744, Note_on_c, 1, 51, 110
3, 435836, Note_off_c, 1, 51, 100
3, 435840, Note_on_c, 1, 52, 110
3, 435932, Note_off_c, 1, 52, 100
3, 435936, Note_on_c, 1, 53, 110
3, 436028, Note_off_c, 1, 53, 100
3, 436032, Note_on_c, 1, 55, 110
3, 436124, Note_off_c, 1, 55, 100
3, 436128, Note_on_c, 1, 53, 110
3, 436220, Note_off_c, 1, 53, 100
3, 436224, Note_on_c, 1, 50, 125
3, 436316, Note_off_c, 1, 50, 100
3, 436320, Note_on_c, 1, 51, 125
3, 436412, Note_off_c, 1, 51, 100
3, 436416, Note_on_c, 1, 53, 125
3, 436508, Note_off_c, 1, 53, 100
3, 436512, Note_on_c, 1, 51, 125
3, 436604, Note_off_c, 1, 51, 100
3, 436608, Note_on_c, 1, 47, 125
3, 436700, Note_off_c, 1, 47, 100
3, 436704, Note_on_c, 1, 48, 125
3, 436796, Note_off_c, 1, 48, 100
3, 436800, Note_on_c, 1, 50, 125
3, 436892, Note_off_c, 1, 50, 100
3, 436896, Note_on_c, 1, 51, 125
3, 436988, Note_off_c, 1, 51, 100
3, 436992, Note_on_c, 1, 52, 125
3, 437084, Note_off_c, 1, 52, 100
3, 437088, Note_on_c, 1, 53, 125
3, 437180, Note_off_c, 1, 53, 100
3, 437184, Note_on_c, 1, 55, 125
3, 437276, Note_off_c, 1, 55, 100
3, 437280, Note_on_c, 1, 53, 125
3, 437372, Note_off_c, 1, 53, 100
3, 437376, Note_on_c, 1, 53, 125
3, 437376, Note_on_c, 1, 41, 125
3, 437564, Note_off_c, 1, 53, 100
3, 437564, Note_off_c, 1, 41, 100
3, 437568, Note_on_c, 1, 46, 125
3, 437568, Note_on_c, 1, 34, 125
3, 437756, Note_off_c, 1, 46, 100
3, 437756, Note_off_c, 1, 34, 100
3, 438528, Note_on_c, 1, 34, 80
3, 438716, Note_off_c, 1, 34, 100
3, 438912, Note_on_c, 1, 50, 85
3, 438960, Note_on_c, 1, 51, 86
3, 438992, Note_off_c, 1, 50, 100
3, 439008, Note_on_c, 1, 50, 87
3, 439040, Note_off_c, 1, 51, 100
3, 439056, Note_on_c, 1, 51, 88
3, 439088, Note_off_c, 1, 50, 100
3, 439104, Note_on_c, 1, 50, 88
3, 439136, Note_off_c, 1, 51, 100
3, 439152, Note_on_c, 1, 51, 89
3, 439184, Note_off_c, 1, 50, 100
3, 439200, Note_on_c, 1, 48, 90
3, 439232, Note_off_c, 1, 51, 100
3, 439248, Note_on_c, 1, 50, 91
3, 439280, Note_off_c, 1, 48, 100
3, 439296, Note_on_c, 1, 51, 91
3, 439296, Note_on_c, 1, 63, 91
3, 439328, Note_off_c, 1, 50, 100
3, 439484, Note_off_c, 1, 51, 100
3, 439484, Note_off_c, 1, 63, 100
3, 439680, Note_on_c, 1, 78, 97
3, 439728, Note_on_c, 1, 80, 98
3, 439760, Note_off_c, 1, 78, 100
3, 439776, Note_on_c, 1, 78, 99
3, 439808, Note_off_c, 1, 80, 100
3, 439824, Note_on_c, 1, 80, 100
3, 439856, Note_off_c, 1, 78, 100
3, 439872, Note_on_c, 1, 78, 100
3, 439904, Note_off_c, 1, 80, 100
3, 439920, Note_on_c, 1, 80, 101
3, 439952, Note_off_c, 1, 78, 100
3, 439968, Note_on_c, 1, 78, 102
3, 440000, Note_off_c, 1, 80, 100
3, 440016, Note_on_c, 1, 80, 103
3, 440048, Note_off_c, 1, 78, 100
3, 440064, Note_on_c, 1, 54, 103
3, 440064, Note_on_c, 1, 42, 103
3, 440096, Note_off_c, 1, 80, 100
3, 440252, Note_off_c, 1, 54, 100
3, 440252, Note_off_c, 1, 42, 100
3, 440448, Note_on_c, 1, 27, 120
3, 440496, Note_on_c, 1, 29, 120
3, 440528, Note_off_c, 1, 27, 100
3, 440544, Note_on_c, 1, 27, 120
3, 440576, Note_off_c, 1, 29, 100
3, 440592, Note_on_c, 1, 29, 120
3, 440624, Note_off_c, 1, 27, 100
3, 440640, Note_on_c, 1, 27, 120
3, 440672, Note_off_c, 1, 29, 100
3, 440688, Note_on_c, 1, 29, 120
3, 440720, Note_off_c, 1, 27, 100
3, 440736, Note_on_c, 1, 27, 120
3, 440768, Note_off_c, 1, 29, 100
3, 440784, Note_on_c, 1, 29, 120
3, 440816, Note_off_c, 1, 27, 100
3, 440832, Note_on_c, 1, 27, 120
3, 440864, Note_off_c, 1, 29, 100
3, 440880, Note_on_c, 1, 29, 120
3, 440912, Note_off_c, 1, 27, 100
3, 440928, Note_on_c, 1, 27, 120
3, 440960, Note_off_c, 1, 29, 100
3, 440976, Note_on_c, 1, 29, 120
3, 441008, Note_off_c, 1, 27, 100
3, 441024, Note_on_c, 1, 27, 120
3, 441056, Note_off_c, 1, 29, 100
3, 441072, Note_on_c, 1, 29, 120
3, 441104, Note_off_c, 1, 27, 100
3, 441120, Note_on_c, 1, 27, 120
3, 441152, Note_off_c, 1, 29, 100
3, 441168, Note_on_c, 1, 29, 120
3, 441200, Note_off_c, 1, 27, 100
3, 441216, Note_on_c, 1, 27, 120
3, 441248, Note_off_c, 1, 29, 100
3, 441264, Note_on_c, 1, 29, 120
3, 441296, Note_off_c, 1, 27, 100
3, 441312, Note_on_c, 1, 27, 120
3, 441344, Note_off_c, 1, 29, 100
3, 441360, Note_on_c, 1, 29, 120
3, 441392, Note_off_c, 1, 27, 100
3, 441408, Note_on_c, 1, 27, 120
3, 441440, Note_off_c, 1, 29, 100
3, 441456, Note_on_c, 1, 29, 120
3, 441488, Note_off_c, 1, 27, 100
3, 441504, Note_on_c, 1, 27, 120
3, 441536, Note_off_c, 1, 29, 100
3, 441552, Note_on_c, 1, 29, 120
3, 441584, Note_off_c, 1, 27, 100
3, 441600, Note_on_c, 1, 27, 120
3, 441632, Note_off_c, 1, 29, 100
3, 441648, Note_on_c, 1, 29, 120
3, 441680, Note_off_c, 1, 27, 100
3, 441696, Note_on_c, 1, 27, 120
3, 441728, Note_off_c, 1, 29, 100
3, 441744, Note_on_c, 1, 29, 120
3, 441776, Note_off_c, 1, 27, 100
3, 441792, Note_on_c, 1, 27, 120
3, 441824, Note_off_c, 1, 29, 100
3, 441840, Note_on_c, 1, 29, 120
3, 441872, Note_off_c, 1, 27, 100
3, 441888, Note_on_c, 1, 27, 120
3, 441920, Note_off_c, 1, 29, 100
3, 441936, Note_on_c, 1, 29, 120
3, 441968, Note_off_c, 1, 27, 100
3, 441984, Note_on_c, 1, 27, 120
3, 442016, Note_off_c, 1, 29, 100
3, 442032, Note_on_c, 1, 29, 120
3, 442064, Note_off_c, 1, 27, 100
3, 442080, Note_on_c, 1, 27, 120
3, 442112, Note_off_c, 1, 29, 100
3, 442128, Note_on_c, 1, 29, 120
3, 442160, Note_off_c, 1, 27, 100
3, 442176, Note_on_c, 1, 27, 120
3, 442208, Note_off_c, 1, 29, 100
3, 442224, Note_on_c, 1, 29, 120
3, 442256, Note_off_c, 1, 27, 100
3, 442272, Note_on_c, 1, 27, 120
3, 442304, Note_off_c, 1, 29, 100
3, 442320, Note_on_c, 1, 29, 120
3, 442352, Note_off_c, 1, 27, 100
3, 442368, Note_on_c, 1, 27, 120
3, 442400, Note_off_c, 1, 29, 100
3, 442416, Note_on_c, 1, 29, 120
3, 442448, Note_off_c, 1, 27, 100
3, 442464, Note_on_c, 1, 27, 120
3, 442496, Note_off_c, 1, 29, 100
3, 442512, Note_on_c, 1, 29, 120
3, 442544, Note_off_c, 1, 27, 100
3, 442560, Note_on_c, 1, 27, 120
3, 442592, Note_off_c, 1, 29, 100
3, 442608, Note_on_c, 1, 29, 120
3, 442640, Note_off_c, 1, 27, 100
3, 442656, Note_on_c, 1, 27, 120
3, 442688, Note_off_c, 1, 29, 100
3, 442704, Note_on_c, 1, 29, 120
3, 442736, Note_off_c, 1, 27, 100
3, 442752, Note_on_c, 1, 27, 120
3, 442784, Note_off_c, 1, 29, 100
3, 442800, Note_on_c, 1, 29, 120
3, 442832, Note_off_c, 1, 27, 100
3, 442848, Note_on_c, 1, 27, 120
3, 442880, Note_off_c, 1, 29, 100
3, 442896, Note_on_c, 1, 29, 120
3, 442928, Note_off_c, 1, 27, 100
3, 442944, Note_on_c, 1, 27, 120
3, 442976, Note_off_c, 1, 29, 100
3, 442992, Note_on_c, 1, 29, 120
3, 443024, Note_off_c, 1, 27, 100
3, 443040, Note_on_c, 1, 27, 120
3, 443072, Note_off_c, 1, 29, 100
3, 443088, Note_on_c, 1, 29, 120
3, 443120, Note_off_c, 1, 27, 100
3, 443136, Note_on_c, 1, 27, 120
3, 443168, Note_off_c, 1, 29, 100
3, 443184, Note_on_c, 1, 29, 120
3, 443216, Note_off_c, 1, 27, 100
3, 443232, Note_on_c, 1, 27, 120
3, 443264, Note_off_c, 1, 29, 100
3, 443280, Note_on_c, 1, 29, 120
3, 443312, Note_off_c, 1, 27, 100
3, 443328, Note_on_c, 1, 27, 120
3, 443360, Note_off_c, 1, 29, 100
3, 443376, Note_on_c, 1, 29, 120
3, 443420, Note_off_c, 1, 27, 100
3, 443424, Note_on_c, 1, 27, 120
3, 443468, Note_off_c, 1, 29, 100
3, 443472, Note_on_c, 1, 29, 120
3, 443516, Note_off_c, 1, 27, 100
3, 443520, Note_on_c, 1, 27, 120
3, 443564, Note_off_c, 1, 29, 100
3, 443568, Note_on_c, 1, 29, 120
3, 443600, Note_off_c, 1, 27, 100
3, 443616, Note_on_c, 1, 27, 120
3, 443648, Note_off_c, 1, 29, 100
3, 443664, Note_on_c, 1, 29, 120
3, 443696, Note_off_c, 1, 27, 100
3, 443712, Note_on_c, 1, 27, 120
3, 443744, Note_off_c, 1, 29, 100
3, 443760, Note_on_c, 1, 29, 120
3, 443792, Note_off_c, 1, 27, 100
3, 443808, Note_on_c, 1, 27, 120
3, 443840, Note_off_c, 1, 29, 100
3, 443856, Note_on_c, 1, 29, 120
3, 443888, Note_off_c, 1, 27, 100
3, 443904, Note_on_c, 1, 27, 120
3, 443936, Note_off_c, 1, 29, 100
3, 443952, Note_on_c, 1, 29, 120
3, 443984, Note_off_c, 1, 27, 100
3, 444000, Note_on_c, 1, 27, 120
3, 444032, Note_off_c, 1, 29, 100
3, 444048, Note_on_c, 1, 29, 120
3, 444080, Note_off_c, 1, 27, 100
3, 444096, Note_on_c, 1, 27, 120
3, 444128, Note_off_c, 1, 29, 100
3, 444144, Note_on_c, 1, 29, 120
3, 444176, Note_off_c, 1, 27, 100
3, 444192, Note_on_c, 1, 27, 120
3, 444224, Note_off_c, 1, 29, 100
3, 444240, Note_on_c, 1, 29, 120
3, 444272, Note_off_c, 1, 27, 100
3, 444288, Note_on_c, 1, 34, 120
3, 444288, Note_on_c, 1, 29, 120
3, 444320, Note_off_c, 1, 29, 100
3, 444336, Note_on_c, 1, 36, 119
3, 444368, Note_off_c, 1, 34, 100
3, 444384, Note_on_c, 1, 34, 117
3, 444416, Note_off_c, 1, 36, 100
3, 444432, Note_on_c, 1, 36, 115
3, 444464, Note_off_c, 1, 34, 100
3, 444480, Note_on_c, 1, 34, 113
3, 444512, Note_off_c, 1, 36, 100
3, 444528, Note_on_c, 1, 36, 111
3, 444560, Note_off_c, 1, 34, 100
3, 444576, Note_on_c, 1, 34, 110
3, 444608, Note_off_c, 1, 36, 100
3, 444624, Note_on_c, 1, 36, 108
3, 444656, Note_off_c, 1, 34, 100
3, 444672, Note_on_c, 1, 34, 106
3, 444704, Note_off_c, 1, 36, 100
3, 444720, Note_on_c, 1, 36, 104
3, 444752, Note_off_c, 1, 34, 100
3, 444768, Note_on_c, 1, 34, 102
3, 444800, Note_off_c, 1, 36, 100
3, 444816, Note_on_c, 1, 36, 101
3, 444848, Note_off_c, 1, 34, 100
3, 444864, Note_on_c, 1, 34, 99
3, 444896, Note_off_c, 1, 36, 100
3, 444912, Note_on_c, 1, 36, 97
3, 444944, Note_off_c, 1, 34, 100
3, 444960, Note_on_c, 1, 34, 95
3, 444992, Note_off_c, 1, 36, 100
3, 445008, Note_on_c, 1, 36, 93
3, 445040, Note_off_c, 1, 34, 100
3, 445056, Note_on_c, 1, 34, 92
3, 445088, Note_off_c, 1, 36, 100
3, 445104, Note_on_c, 1, 36, 90
3, 445136, Note_off_c, 1, 34, 100
3, 445152, Note_on_c, 1, 34, 88
3, 445184, Note_off_c, 1, 36, 100
3, 445200, Note_on_c, 1, 36, 86
3, 445232, Note_off_c, 1, 34, 100
3, 445248, Note_on_c, 1, 34, 84
3, 445280, Note_off_c, 1, 36, 100
3, 445296, Note_on_c, 1, 36, 82
3, 445328, Note_off_c, 1, 34, 100
3, 445344, Note_on_c, 1, 34, 81
3, 445376, Note_off_c, 1, 36, 100
3, 445392, Note_on_c, 1, 36, 80
3, 445424, Note_off_c, 1, 34, 100
3, 445440, Note_on_c, 1, 34, 80
3, 445472, Note_off_c, 1, 36, 100
3, 445488, Note_on_c, 1, 36, 80
3, 445520, Note_off_c, 1, 34, 100
3, 445536, Note_on_c, 1, 34, 80
3, 445568, Note_off_c, 1, 36, 100
3, 445584, Note_on_c, 1, 36, 80
3, 445616, Note_off_c, 1, 34, 100
3, 445632, Note_on_c, 1, 34, 80
3, 445664, Note_off_c, 1, 36, 100
3, 445680, Note_on_c, 1, 36, 80
3, 445712, Note_off_c, 1, 34, 100
3, 445728, Note_on_c, 1, 34, 80
3, 445760, Note_off_c, 1, 36, 100
3, 445776, Note_on_c, 1, 36, 80
3, 445808, Note_off_c, 1, 34, 100
3, 445824, Note_on_c, 1, 34, 80
3, 445856, Note_off_c, 1, 36, 100
3, 445872, Note_on_c, 1, 36, 80
3, 445904, Note_off_c, 1, 34, 100
3, 445920, Note_on_c, 1, 34, 80
3, 445952, Note_off_c, 1, 36, 100
3, 445968, Note_on_c, 1, 36, 80
3, 446000, Note_off_c, 1, 34, 100
3, 446016, Note_on_c, 1, 34, 80
3, 446048, Note_off_c, 1, 36, 100
3, 446064, Note_on_c, 1, 36, 80
3, 446096, Note_off_c, 1, 34, 100
3, 446112, Note_on_c, 1, 34, 80
3, 446144, Note_off_c, 1, 36, 100
3, 446160, Note_on_c, 1, 36, 80
3, 446192, Note_off_c, 1, 34, 100
3, 446208, Note_on_c, 1, 34, 80
3, 446240, Note_off_c, 1, 36, 100
3, 446256, Note_on_c, 1, 36, 80
3, 446288, Note_off_c, 1, 34, 100
3, 446304, Note_on_c, 1, 34, 80
3, 446336, Note_off_c, 1, 36, 100
3, 446352, Note_on_c, 1, 36, 80
3, 446384, Note_off_c, 1, 34, 100
3, 446400, Note_on_c, 1, 34, 80
3, 446432, Note_off_c, 1, 36, 100
3, 446448, Note_on_c, 1, 36, 80
3, 446480, Note_off_c, 1, 34, 100
3, 446496, Note_on_c, 1, 34, 80
3, 446528, Note_off_c, 1, 36, 100
3, 446544, Note_on_c, 1, 36, 80
3, 446576, Note_off_c, 1, 34, 100
3, 446592, Note_on_c, 1, 34, 80
3, 446624, Note_off_c, 1, 36, 100
3, 446640, Note_on_c, 1, 36, 80
3, 446672, Note_off_c, 1, 34, 100
3, 446688, Note_on_c, 1, 34, 80
3, 446720, Note_off_c, 1, 36, 100
3, 446736, Note_on_c, 1, 36, 80
3, 446768, Note_off_c, 1, 34, 100
3, 446784, Note_on_c, 1, 34, 80
3, 446816, Note_off_c, 1, 36, 100
3, 446832, Note_on_c, 1, 36, 80
3, 446864, Note_off_c, 1, 34, 100
3, 446880, Note_on_c, 1, 34, 80
3, 446912, Note_off_c, 1, 36, 100
3, 446928, Note_on_c, 1, 36, 80
3, 446960, Note_off_c, 1, 34, 100
3, 446976, Note_on_c, 1, 34, 80
3, 447008, Note_off_c, 1, 36, 100
3, 447024, Note_on_c, 1, 36, 80
3, 447056, Note_off_c, 1, 34, 100
3, 447072, Note_on_c, 1, 34, 80
3, 447104, Note_off_c, 1, 36, 100
3, 447120, Note_on_c, 1, 36, 80
3, 447152, Note_off_c, 1, 34, 100
3, 447168, Note_on_c, 1, 34, 80
3, 447200, Note_off_c, 1, 36, 100
3, 447216, Note_on_c, 1, 36, 80
3, 447248, Note_off_c, 1, 34, 100
3, 447264, Note_on_c, 1, 34, 80
3, 447296, Note_off_c, 1, 36, 100
3, 447312, Note_on_c, 1, 36, 80
3, 447344, Note_off_c, 1, 34, 100
3, 447360, Note_on_c, 1, 34, 80
3, 447392, Note_off_c, 1, 36, 100
3, 447408, Note_on_c, 1, 36, 80
3, 447440, Note_off_c, 1, 34, 100
3, 447456, Note_on_c, 1, 34, 80
3, 447488, Note_off_c, 1, 36, 100
3, 447504, Note_on_c, 1, 36, 80
3, 447536, Note_off_c, 1, 34, 100
3, 447552, Note_on_c, 1, 34, 80
3, 447584, Note_off_c, 1, 36, 100
3, 447600, Note_on_c, 1, 36, 80
3, 447632, Note_off_c, 1, 34, 100
3, 447648, Note_on_c, 1, 34, 80
3, 447680, Note_off_c, 1, 36, 100
3, 447696, Note_on_c, 1, 36, 80
3, 447728, Note_off_c, 1, 34, 100
3, 447744, Note_on_c, 1, 34, 80
3, 447776, Note_off_c, 1, 36, 100
3, 447792, Note_on_c, 1, 36, 80
3, 447824, Note_off_c, 1, 34, 100
3, 447840, Note_on_c, 1, 34, 80
3, 447872, Note_off_c, 1, 36, 100
3, 447888, Note_on_c, 1, 36, 80
3, 447920, Note_off_c, 1, 34, 100
3, 447936, Note_on_c, 1, 34, 80
3, 447968, Note_off_c, 1, 36, 100
3, 447984, Note_on_c, 1, 36, 80
3, 448016, Note_off_c, 1, 34, 100
3, 448032, Note_on_c, 1, 34, 80
3, 448064, Note_off_c, 1, 36, 100
3, 448080, Note_on_c, 1, 36, 80
3, 448112, Note_off_c, 1, 34, 100
3, 448128, Note_on_c, 1, 34, 80
3, 448160, Note_off_c, 1, 36, 100
3, 448176, Note_on_c, 1, 36, 80
3, 448208, Note_off_c, 1, 34, 100
3, 448224, Note_on_c, 1, 34, 80
3, 448256, Note_off_c, 1, 36, 100
3, 448272, Note_on_c, 1, 36, 80
3, 448304, Note_off_c, 1, 34, 100
3, 448320, Note_on_c, 1, 34, 80
3, 448352, Note_off_c, 1, 36, 100
3, 448368, Note_on_c, 1, 36, 80
3, 448400, Note_off_c, 1, 34, 100
3, 448416, Note_on_c, 1, 34, 80
3, 448448, Note_off_c, 1, 36, 100
3, 448464, Note_on_c, 1, 36, 80
3, 448496, Note_off_c, 1, 34, 100
3, 448512, Note_on_c, 1, 34, 80
3, 448544, Note_off_c, 1, 36, 100
3, 448560, Note_on_c, 1, 36, 80
3, 448592, Note_off_c, 1, 34, 100
3, 448608, Note_on_c, 1, 34, 80
3, 448640, Note_off_c, 1, 36, 100
3, 448656, Note_on_c, 1, 36, 80
3, 448688, Note_off_c, 1, 34, 100
3, 448704, Note_on_c, 1, 34, 80
3, 448736, Note_off_c, 1, 36, 100
3, 448752, Note_on_c, 1, 36, 80
3, 448784, Note_off_c, 1, 34, 100
3, 448800, Note_on_c, 1, 34, 80
3, 448832, Note_off_c, 1, 36, 100
3, 448848, Note_on_c, 1, 36, 80
3, 448880, Note_off_c, 1, 34, 100
3, 448896, Note_on_c, 1, 34, 80
3, 448928, Note_off_c, 1, 36, 100
3, 448944, Note_on_c, 1, 36, 80
3, 448976, Note_off_c, 1, 34, 100
3, 448992, Note_on_c, 1, 34, 80
3, 449024, Note_off_c, 1, 36, 100
3, 449040, Note_on_c, 1, 36, 80
3, 449072, Note_off_c, 1, 34, 100
3, 449088, Note_on_c, 1, 34, 80
3, 449120, Note_off_c, 1, 36, 100
3, 449136, Note_on_c, 1, 36, 80
3, 449168, Note_off_c, 1, 34, 100
3, 449184, Note_on_c, 1, 34, 80
3, 449216, Note_off_c, 1, 36, 100
3, 449232, Note_on_c, 1, 36, 80
3, 449264, Note_off_c, 1, 34, 100
3, 449280, Note_on_c, 1, 34, 80
3, 449312, Note_off_c, 1, 36, 100
3, 449328, Note_on_c, 1, 36, 80
3, 449360, Note_off_c, 1, 34, 100
3, 449376, Note_on_c, 1, 34, 80
3, 449408, Note_off_c, 1, 36, 100
3, 449424, Note_on_c, 1, 36, 80
3, 449456, Note_off_c, 1, 34, 100
3, 449472, Note_on_c, 1, 34, 80
3, 449504, Note_off_c, 1, 36, 100
3, 449520, Note_on_c, 1, 36, 80
3, 449552, Note_off_c, 1, 34, 100
3, 449568, Note_on_c, 1, 34, 80
3, 449600, Note_off_c, 1, 36, 100
3, 449616, Note_on_c, 1, 36, 80
3, 449648, Note_off_c, 1, 34, 100
3, 449664, Note_on_c, 1, 34, 80
3, 449696, Note_off_c, 1, 36, 100
3, 449712, Note_on_c, 1, 36, 80
3, 449744, Note_off_c, 1, 34, 100
3, 449760, Note_on_c, 1, 34, 80
3, 449792, Note_off_c, 1, 36, 100
3, 449808, Note_on_c, 1, 36, 80
3, 449840, Note_off_c, 1, 34, 100
3, 449856, Note_on_c, 1, 34, 80
3, 449888, Note_off_c, 1, 36, 100
3, 449904, Note_on_c, 1, 36, 80
3, 449936, Note_off_c, 1, 34, 100
3, 449952, Note_on_c, 1, 34, 80
3, 449984, Note_off_c, 1, 36, 100
3, 450000, Note_on_c, 1, 36, 80
3, 450032, Note_off_c, 1, 34, 100
3, 450048, Note_on_c, 1, 34, 80
3, 450080, Note_off_c, 1, 36, 100
3, 450096, Note_on_c, 1, 36, 80
3, 450128, Note_off_c, 1, 34, 100
3, 450144, Note_on_c, 1, 34, 80
3, 450176, Note_off_c, 1, 36, 100
3, 450192, Note_on_c, 1, 36, 80
3, 450224, Note_off_c, 1, 34, 100
3, 450240, Note_on_c, 1, 34, 80
3, 450272, Note_off_c, 1, 36, 100
3, 450288, Note_on_c, 1, 36, 80
3, 450320, Note_off_c, 1, 34, 100
3, 450336, Note_on_c, 1, 34, 80
3, 450368, Note_off_c, 1, 36, 100
3, 450384, Note_on_c, 1, 36, 80
3, 450416, Note_off_c, 1, 34, 100
3, 450432, Note_on_c, 1, 34, 80
3, 450464, Note_off_c, 1, 36, 100
3, 450480, Note_on_c, 1, 36, 80
3, 450512, Note_off_c, 1, 34, 100
3, 450528, Note_on_c, 1, 34, 80
3, 450560, Note_off_c, 1, 36, 100
3, 450576, Note_on_c, 1, 36, 80
3, 450608, Note_off_c, 1, 34, 100
3, 450624, Note_on_c, 1, 34, 80
3, 450656, Note_off_c, 1, 36, 100
3, 450672, Note_on_c, 1, 36, 80
3, 450704, Note_off_c, 1, 34, 100
3, 450720, Note_on_c, 1, 34, 80
3, 450752, Note_off_c, 1, 36, 100
3, 450768, Note_on_c, 1, 36, 80
3, 450800, Note_off_c, 1, 34, 100
3, 450816, Note_on_c, 1, 34, 80
3, 450848, Note_off_c, 1, 36, 100
3, 450864, Note_on_c, 1, 36, 80
3, 450896, Note_off_c, 1, 34, 100
3, 450912, Note_on_c, 1, 34, 80
3, 450944, Note_off_c, 1, 36, 100
3, 450960, Note_on_c, 1, 36, 80
3, 450992, Note_off_c, 1, 34, 100
3, 451008, Note_on_c, 1, 34, 80
3, 451040, Note_off_c, 1, 36, 100
3, 451056, Note_on_c, 1, 36, 80
3, 451088, Note_off_c, 1, 34, 100
3, 451104, Note_on_c, 1, 34, 80
3, 451136, Note_off_c, 1, 36, 100
3, 451152, Note_on_c, 1, 36, 80
3, 451184, Note_off_c, 1, 34, 100
3, 451196, Note_off_c, 1, 29, 100
3, 451200, Note_on_c, 1, 34, 80
3, 451232, Note_off_c, 1, 36, 100
3, 451248, Note_on_c, 1, 36, 80
3, 451280, Note_off_c, 1, 34, 100
3, 451296, Note_on_c, 1, 34, 80
3, 451328, Note_off_c, 1, 36, 100
3, 451344, Note_on_c, 1, 36, 80
3, 451376, Note_off_c, 1, 34, 100
3, 451392, Note_on_c, 1, 34, 80
3, 451424, Note_off_c, 1, 36, 100
3, 451440, Note_on_c, 1, 36, 80
3, 451472, Note_off_c, 1, 34, 100
3, 451488, Note_on_c, 1, 34, 80
3, 451520, Note_off_c, 1, 36, 100
3, 451536, Note_on_c, 1, 36, 80
3, 451568, Note_off_c, 1, 34, 100
3, 451584, Note_on_c, 1, 34, 80
3, 451584, Note_on_c, 1, 29, 80
3, 451616, Note_off_c, 1, 36, 100
3, 451632, Note_on_c, 1, 36, 80
3, 451664, Note_off_c, 1, 34, 100
3, 451680, Note_on_c, 1, 34, 80
3, 451712, Note_off_c, 1, 36, 100
3, 451728, Note_on_c, 1, 36, 80
3, 451760, Note_off_c, 1, 34, 100
3, 451776, Note_on_c, 1, 34, 80
3, 451808, Note_off_c, 1, 36, 100
3, 451824, Note_on_c, 1, 36, 80
3, 451856, Note_off_c, 1, 34, 100
3, 451872, Note_on_c, 1, 34, 80
3, 451904, Note_off_c, 1, 36, 100
3, 451920, Note_on_c, 1, 36, 80
3, 451944, Note_on_c, 1, 34, 80
3, 451952, Note_off_c, 1, 34, 100
3, 451964, Note_off_c, 1, 29, 100
3, 451968, Note_on_c, 1, 29, 80
3, 451992, Note_on_c, 1, 36, 80
3, 452000, Note_off_c, 1, 36, 100
3, 452024, Note_off_c, 1, 34, 100
3, 452040, Note_on_c, 1, 34, 80
3, 452072, Note_off_c, 1, 36, 100
3, 452088, Note_on_c, 1, 36, 80
3, 452120, Note_off_c, 1, 34, 100
3, 452160, Note_on_c, 1, 34, 80
3, 452168, Note_off_c, 1, 36, 100
3, 452208, Note_on_c, 1, 36, 80
3, 452240, Note_off_c, 1, 34, 100
3, 452256, Note_on_c, 1, 34, 80
3, 452288, Note_off_c, 1, 36, 100
3, 452304, Note_on_c, 1, 36, 80
3, 452336, Note_off_c, 1, 34, 100
3, 452348, Note_off_c, 1, 29, 100
3, 452352, Note_on_c, 1, 34, 80
3, 452352, Note_on_c, 1, 29, 80
3, 452384, Note_off_c, 1, 36, 100
3, 452400, Note_on_c, 1, 36, 80
3, 452432, Note_off_c, 1, 34, 100
3, 452448, Note_on_c, 1, 34, 80
3, 452480, Note_off_c, 1, 36, 100
3, 452496, Note_on_c, 1, 36, 80
3, 452528, Note_off_c, 1, 34, 100
3, 452544, Note_on_c, 1, 34, 80
3, 452576, Note_off_c, 1, 36, 100
3, 452592, Note_on_c, 1, 36, 80
3, 452624, Note_off_c, 1, 34, 100
3, 452640, Note_on_c, 1, 34, 80
3, 452672, Note_off_c, 1, 36, 100
3, 452688, Note_on_c, 1, 36, 80
3, 452720, Note_off_c, 1, 34, 100
3, 452732, Note_off_c, 1, 29, 100
3, 452736, Note_on_c, 1, 34, 80
3, 452736, Note_on_c, 1, 29, 80
3, 452768, Note_off_c, 1, 36, 100
3, 452784, Note_on_c, 1, 36, 80
3, 452816, Note_off_c, 1, 34, 100
3, 452832, Note_on_c, 1, 34, 80
3, 452864, Note_off_c, 1, 36, 100
3, 452880, Note_on_c, 1, 36, 80
3, 452912, Note_off_c, 1, 34, 100
3, 452928, Note_on_c, 1, 34, 80
3, 452960, Note_off_c, 1, 36, 100
3, 452976, Note_on_c, 1, 36, 80
3, 453008, Note_off_c, 1, 34, 100
3, 453024, Note_on_c, 1, 34, 80
3, 453056, Note_off_c, 1, 36, 100
3, 453072, Note_on_c, 1, 36, 80
3, 453096, Note_on_c, 1, 34, 80
3, 453104, Note_off_c, 1, 34, 100
3, 453116, Note_off_c, 1, 29, 100
3, 453120, Note_on_c, 1, 29, 80
3, 453144, Note_on_c, 1, 36, 80
3, 453152, Note_off_c, 1, 36, 100
3, 453176, Note_off_c, 1, 34, 100
3, 453192, Note_on_c, 1, 34, 80
3, 453224, Note_off_c, 1, 36, 100
3, 453240, Note_on_c, 1, 36, 80
3, 453272, Note_off_c, 1, 34, 100
3, 453312, Note_on_c, 1, 34, 80
3, 453320, Note_off_c, 1, 36, 100
3, 453360, Note_on_c, 1, 36, 80
3, 453392, Note_off_c, 1, 34, 100
3, 453408, Note_on_c, 1, 34, 80
3, 453440, Note_off_c, 1, 36, 100
3, 453456, Note_on_c, 1, 36, 80
3, 453488, Note_off_c, 1, 34, 100
3, 453500, Note_off_c, 1, 29, 100
3, 453504, Note_on_c, 1, 34, 80
3, 453504, Note_on_c, 1, 29, 80
3, 453536, Note_off_c, 1, 36, 100
3, 453552, Note_on_c, 1, 36, 80
3, 453584, Note_off_c, 1, 34, 100
3, 453600, Note_on_c, 1, 34, 80
3, 453632, Note_off_c, 1, 36, 100
3, 453648, Note_on_c, 1, 36, 80
3, 453680, Note_off_c, 1, 34, 100
3, 453696, Note_on_c, 1, 34, 80
3, 453728, Note_off_c, 1, 36, 100
3, 453744, Note_on_c, 1, 36, 80
3, 453776, Note_off_c, 1, 34, 100
3, 453792, Note_on_c, 1, 33, 80
3, 453824, Note_off_c, 1, 36, 100
3, 453840, Note_on_c, 1, 34, 80
3, 453872, Note_off_c, 1, 33, 100
3, 453884, Note_off_c, 1, 29, 100
3, 453888, Note_on_c, 1, 42, 80
3, 453888, Note_on_c, 1, 34, 80
3, 453888, Note_on_c, 1, 30, 80
3, 453920, Note_off_c, 1, 34, 100
3, 454268, Note_off_c, 1, 42, 100
3, 454268, Note_off_c, 1, 34, 100
3, 454268, Note_off_c, 1, 30, 100
3, 454272, Note_on_c, 1, 43, 80
3, 454272, Note_on_c, 1, 31, 80
3, 455036, Note_off_c, 1, 43, 100
3, 455036, Note_off_c, 1, 31, 100
3, 455040, Note_on_c, 1, 55, 80
3, 455088, Note_on_c, 1, 57, 80
3, 455120, Note_off_c, 1, 55, 100
3, 455136, Note_on_c, 1, 55, 80
3, 455168, Note_off_c, 1, 57, 100
3, 455184, Note_on_c, 1, 57, 80
3, 455216, Note_off_c, 1, 55, 100
3, 455232, Note_on_c, 1, 55, 80
3, 455264, Note_off_c, 1, 57, 100
3, 455280, Note_on_c, 1, 57, 80
3, 455312, Note_off_c, 1, 55, 100
3, 455328, Note_on_c, 1, 55, 80
3, 455360, Note_off_c, 1, 57, 100
3, 455376, Note_on_c, 1, 57, 80
3, 455408, Note_off_c, 1, 55, 100
3, 455424, Note_on_c, 1, 55, 80
3, 455456, Note_off_c, 1, 57, 100
3, 455472, Note_on_c, 1, 57, 80
3, 455504, Note_off_c, 1, 55, 100
3, 455520, Note_on_c, 1, 55, 80
3, 455552, Note_off_c, 1, 57, 100
3, 455568, Note_on_c, 1, 57, 80
3, 455600, Note_off_c, 1, 55, 100
3, 455616, Note_on_c, 1, 55, 80
3, 455648, Note_off_c, 1, 57, 100
3, 455664, Note_on_c, 1, 57, 80
3, 455696, Note_off_c, 1, 55, 100
3, 455712, Note_on_c, 1, 53, 80
3, 455744, Note_off_c, 1, 57, 100
3, 455760, Note_on_c, 1, 55, 80
3, 455792, Note_off_c, 1, 53, 100
3, 455808, Note_on_c, 1, 57, 80
3, 455840, Note_off_c, 1, 55, 100
3, 456188, Note_off_c, 1, 57, 100
3, 456192, Note_on_c, 1, 60, 80
3, 456240, Note_on_c, 1, 62, 80
3, 456272, Note_off_c, 1, 60, 100
3, 456288, Note_on_c, 1, 60, 81
3, 456320, Note_off_c, 1, 62, 100
3, 456336, Note_on_c, 1, 62, 81
3, 456368, Note_off_c, 1, 60, 100
3, 456384, Note_on_c, 1, 60, 82
3, 456416, Note_off_c, 1, 62, 100
3, 456432, Note_on_c, 1, 62, 83
3, 456464, Note_off_c, 1, 60, 100
3, 456480, Note_on_c, 1, 60, 83
3, 456512, Note_off_c, 1, 62, 100
3, 456528, Note_on_c, 1, 62, 84
3, 456560, Note_off_c, 1, 60, 100
3, 456576, Note_on_c, 1, 60, 85
3, 456576, Note_on_c, 1, 53, 85
3, 456608, Note_off_c, 1, 62, 100
3, 456624, Note_on_c, 1, 62, 85
3, 456656, Note_off_c, 1, 60, 100
3, 456672, Note_on_c, 1, 60, 86
3, 456704, Note_off_c, 1, 62, 100
3, 456720, Note_on_c, 1, 62, 87
3, 456752, Note_off_c, 1, 60, 100
3, 456768, Note_on_c, 1, 60, 87
3, 456800, Note_off_c, 1, 62, 100
3, 456816, Note_on_c, 1, 62, 88
3, 456848, Note_off_c, 1, 60, 100
3, 456864, Note_on_c, 1, 58, 89
3, 456896, Note_off_c, 1, 62, 100
3, 456912, Note_on_c, 1, 60, 89
3, 456944, Note_off_c, 1, 58, 100
3, 456956, Note_off_c, 1, 53, 100
3, 456960, Note_on_c, 1, 60, 70
3, 456960, Note_on_c, 1, 57, 70
3, 456960, Note_on_c, 1, 53, 70
3, 456992, Note_off_c, 1, 60, 100
3, 457340, Note_off_c, 1, 60, 100
3, 457340, Note_off_c, 1, 57, 100
3, 457340, Note_off_c, 1, 53, 100
3, 457344, Note_on_c, 1, 60, 70
3, 457344, Note_on_c, 1, 57, 70
3, 457344, Note_on_c, 1, 53, 70
3, 457916, Note_off_c, 1, 60, 100
3, 457916, Note_off_c, 1, 57, 100
3, 457916, Note_off_c, 1, 53, 100
3, 459072, Note_on_c, 1, 55, 70
3, 459164, Note_off_c, 1, 55, 100
3, 459168, Note_on_c, 1, 53, 70
3, 459260, Note_off_c, 1, 53, 100
3, 459264, Note_on_c, 1, 51, 70
3, 459356, Note_off_c, 1, 51, 100
3, 459360, Note_on_c, 1, 50, 70
3, 459452, Note_off_c, 1, 50, 100
3, 459456, Note_on_c, 1, 48, 70
3, 459548, Note_off_c, 1, 48, 100
3, 459552, Note_on_c, 1, 47, 70
3, 459644, Note_off_c, 1, 47, 100
3, 459648, Note_on_c, 1, 51, 70
3, 460028, Note_off_c, 1, 51, 100
3, 460224, Note_on_c, 1, 67, 70
3, 460316, Note_off_c, 1, 67, 100
3, 460320, Note_on_c, 1, 65, 70
3, 460412, Note_off_c, 1, 65, 100
3, 460416, Note_on_c, 1, 63, 70
3, 460508, Note_off_c, 1, 63, 100
3, 460512, Note_on_c, 1, 62, 70
3, 460604, Note_off_c, 1, 62, 100
3, 460608, Note_on_c, 1, 60, 70
3, 460700, Note_off_c, 1, 60, 100
3, 460704, Note_on_c, 1, 59, 70
3, 460796, Note_off_c, 1, 59, 100
3, 460800, Note_on_c, 1, 67, 70
3, 460892, Note_off_c, 1, 67, 100
3, 460896, Note_on_c, 1, 65, 72
3, 460988, Note_off_c, 1, 65, 100
3, 460992, Note_on_c, 1, 63, 74
3, 461084, Note_off_c, 1, 63, 100
3, 461088, Note_on_c, 1, 62, 76
3, 461180, Note_off_c, 1, 62, 100
3, 461184, Note_on_c, 1, 60, 78
3, 461276, Note_off_c, 1, 60, 100
3, 461280, Note_on_c, 1, 58, 81
3, 461372, Note_off_c, 1, 58, 100
3, 461376, Note_on_c, 1, 57, 83
3, 461468, Note_off_c, 1, 57, 100
3, 461472, Note_on_c, 1, 55, 85
3, 461564, Note_off_c, 1, 55, 100
3, 461568, Note_on_c, 1, 53, 87
3, 461660, Note_off_c, 1, 53, 100
3, 461664, Note_on_c, 1, 51, 89
3, 461756, Note_off_c, 1, 51, 100
3, 461760, Note_on_c, 1, 50, 92
3, 461852, Note_off_c, 1, 50, 100
3, 461856, Note_on_c, 1, 48, 94
3, 461948, Note_off_c, 1, 48, 100
3, 461952, Note_on_c, 1, 46, 96
3, 462044, Note_off_c, 1, 46, 100
3, 462048, Note_on_c, 1, 45, 98
3, 462140, Note_off_c, 1, 45, 100
3, 462144, Note_on_c, 1, 43, 100
3, 462236, Note_off_c, 1, 43, 100
3, 462240, Note_on_c, 1, 41, 103
3, 462332, Note_off_c, 1, 41, 100
3, 462336, Note_on_c, 1, 39, 105
3, 462428, Note_off_c, 1, 39, 100
3, 462432, Note_on_c, 1, 38, 107
3, 462524, Note_off_c, 1, 38, 100
3, 462528, Note_on_c, 1, 36, 109
3, 462620, Note_off_c, 1, 36, 100
3, 462624, Note_on_c, 1, 34, 112
3, 462716, Note_off_c, 1, 34, 100
3, 462720, Note_on_c, 1, 33, 114
3, 462812, Note_off_c, 1, 33, 100
3, 462816, Note_on_c, 1, 31, 116
3, 462908, Note_off_c, 1, 31, 100
3, 462912, Note_on_c, 1, 29, 118
3, 463004, Note_off_c, 1, 29, 100
3, 463008, Note_on_c, 1, 28, 120
3, 463100, Note_off_c, 1, 28, 100
3, 463104, Note_on_c, 1, 29, 110
3, 463292, Note_off_c, 1, 29, 100
3, 463488, Note_on_c, 1, 45, 110
3, 463536, Note_on_c, 1, 46, 110
3, 463568, Note_off_c, 1, 45, 100
3, 463584, Note_on_c, 1, 45, 110
3, 463616, Note_off_c, 1, 46, 100
3, 463632, Note_on_c, 1, 46, 110
3, 463664, Note_off_c, 1, 45, 100
3, 463680, Note_on_c, 1, 45, 110
3, 463712, Note_off_c, 1, 46, 100
3, 463728, Note_on_c, 1, 46, 110
3, 463760, Note_off_c, 1, 45, 100
3, 463776, Note_on_c, 1, 45, 110
3, 463808, Note_off_c, 1, 46, 100
3, 463824, Note_on_c, 1, 46, 110
3, 463856, Note_off_c, 1, 45, 100
3, 463872, Note_on_c, 1, 45, 110
3, 463904, Note_off_c, 1, 46, 100
3, 463920, Note_on_c, 1, 46, 110
3, 463952, Note_off_c, 1, 45, 100
3, 463968, Note_on_c, 1, 45, 110
3, 464000, Note_off_c, 1, 46, 100
3, 464016, Note_on_c, 1, 46, 110
3, 464048, Note_off_c, 1, 45, 100
3, 464064, Note_on_c, 1, 45, 110
3, 464096, Note_off_c, 1, 46, 100
3, 464112, Note_on_c, 1, 46, 110
3, 464144, Note_off_c, 1, 45, 100
3, 464160, Note_on_c, 1, 43, 110
3, 464192, Note_off_c, 1, 46, 100
3, 464208, Note_on_c, 1, 45, 110
3, 464240, Note_off_c, 1, 43, 100
3, 464256, Note_on_c, 1, 46, 110
3, 464288, Note_off_c, 1, 45, 100
3, 464444, Note_off_c, 1, 46, 100
3, 464640, Note_on_c, 1, 31, 110
3, 464828, Note_off_c, 1, 31, 100
3, 465024, Note_on_c, 1, 47, 110
3, 465072, Note_on_c, 1, 48, 110
3, 465104, Note_off_c, 1, 47, 100
3, 465120, Note_on_c, 1, 47, 110
3, 465152, Note_off_c, 1, 48, 100
3, 465168, Note_on_c, 1, 48, 110
3, 465200, Note_off_c, 1, 47, 100
3, 465216, Note_on_c, 1, 47, 110
3, 465248, Note_off_c, 1, 48, 100
3, 465264, Note_on_c, 1, 48, 110
3, 465296, Note_off_c, 1, 47, 100
3, 465312, Note_on_c, 1, 47, 110
3, 465344, Note_off_c, 1, 48, 100
3, 465360, Note_on_c, 1, 48, 110
3, 465392, Note_off_c, 1, 47, 100
3, 465408, Note_on_c, 1, 47, 110
3, 465440, Note_off_c, 1, 48, 100
3, 465456, Note_on_c, 1, 48, 110
3, 465488, Note_off_c, 1, 47, 100
3, 465504, Note_on_c, 1, 47, 110
3, 465536, Note_off_c, 1, 48, 100
3, 465552, Note_on_c, 1, 48, 110
3, 465584, Note_off_c, 1, 47, 100
3, 465600, Note_on_c, 1, 47, 110
3, 465632, Note_off_c, 1, 48, 100
3, 465648, Note_on_c, 1, 48, 110
3, 465680, Note_off_c, 1, 47, 100
3, 465696, Note_on_c, 1, 45, 110
3, 465728, Note_off_c, 1, 48, 100
3, 465744, Note_on_c, 1, 47, 110
3, 465776, Note_off_c, 1, 45, 100
3, 465792, Note_on_c, 1, 48, 110
3, 465824, Note_off_c, 1, 47, 100
3, 465980, Note_off_c, 1, 48, 100
3, 466176, Note_on_c, 1, 33, 110
3, 466364, Note_off_c, 1, 33, 100
3, 466560, Note_on_c, 1, 49, 110
3, 466608, Note_on_c, 1, 50, 110
3, 466640, Note_off_c, 1, 49, 100
3, 466656, Note_on_c, 1, 49, 110
3, 466688, Note_off_c, 1, 50, 100
3, 466704, Note_on_c, 1, 50, 110
3, 466736, Note_off_c, 1, 49, 100
3, 466752, Note_on_c, 1, 49, 110
3, 466784, Note_off_c, 1, 50, 100
3, 466800, Note_on_c, 1, 50, 110
3, 466832, Note_off_c, 1, 49, 100
3, 466848, Note_on_c, 1, 49, 110
3, 466880, Note_off_c, 1, 50, 100
3, 466896, Note_on_c, 1, 50, 110
3, 466928, Note_off_c, 1, 49, 100
3, 466944, Note_on_c, 1, 49, 110
3, 466976, Note_off_c, 1, 50, 100
3, 466992, Note_on_c, 1, 50, 110
3, 467024, Note_off_c, 1, 49, 100
3, 467040, Note_on_c, 1, 49, 110
3, 467072, Note_off_c, 1, 50, 100
3, 467088, Note_on_c, 1, 50, 110
3, 467120, Note_off_c, 1, 49, 100
3, 467136, Note_on_c, 1, 49, 110
3, 467168, Note_off_c, 1, 50, 100
3, 467184, Note_on_c, 1, 50, 110
3, 467216, Note_off_c, 1, 49, 100
3, 467232, Note_on_c, 1, 47, 110
3, 467264, Note_off_c, 1, 50, 100
3, 467280, Note_on_c, 1, 49, 110
3, 467312, Note_off_c, 1, 47, 100
3, 467328, Note_on_c, 1, 50, 110
3, 467360, Note_off_c, 1, 49, 100
3, 467516, Note_off_c, 1, 50, 100
3, 467712, Note_on_c, 1, 34, 110
3, 467900, Note_off_c, 1, 34, 100
3, 468096, Note_on_c, 1, 50, 110
3, 468144, Note_on_c, 1, 51, 110
3, 468176, Note_off_c, 1, 50, 100
3, 468192, Note_on_c, 1, 50, 110
3, 468224, Note_off_c, 1, 51, 100
3, 468240, Note_on_c, 1, 51, 110
3, 468272, Note_off_c, 1, 50, 100
3, 468288, Note_on_c, 1, 50, 110
3, 468320, Note_off_c, 1, 51, 100
3, 468336, Note_on_c, 1, 51, 110
3, 468368, Note_off_c, 1, 50, 100
3, 468384, Note_on_c, 1, 50, 110
3, 468416, Note_off_c, 1, 51, 100
3, 468432, Note_on_c, 1, 51, 110
3, 468464, Note_off_c, 1, 50, 100
3, 468480, Note_on_c, 1, 50, 110
3, 468512, Note_off_c, 1, 51, 100
3, 468528, Note_on_c, 1, 51, 110
3, 468560, Note_off_c, 1, 50, 100
3, 468576, Note_on_c, 1, 50, 110
3, 468608, Note_off_c, 1, 51, 100
3, 468624, Note_on_c, 1, 51, 110
3, 468656, Note_off_c, 1, 50, 100
3, 468672, Note_on_c, 1, 50, 110
3, 468704, Note_off_c, 1, 51, 100
3, 468720, Note_on_c, 1, 51, 110
3, 468752, Note_off_c, 1, 50, 100
3, 468768, Note_on_c, 1, 48, 110
3, 468800, Note_off_c, 1, 51, 100
3, 468816, Note_on_c, 1, 50, 110
3, 468848, Note_off_c, 1, 48, 100
3, 468864, Note_on_c, 1, 51, 110
3, 468896, Note_off_c, 1, 50, 100
3, 469052, Note_off_c, 1, 51, 100
3, 469248, Note_on_c, 1, 48, 110
3, 469436, Note_off_c, 1, 48, 100
3, 469632, Note_on_c, 1, 52, 110
3, 469680, Note_on_c, 1, 53, 110
3, 469712, Note_off_c, 1, 52, 100
3, 469728, Note_on_c, 1, 52, 110
3, 469760, Note_off_c, 1, 53, 100
3, 469776, Note_on_c, 1, 53, 110
3, 469808, Note_off_c, 1, 52, 100
3, 469824, Note_on_c, 1, 52, 110
3, 469856, Note_off_c, 1, 53, 100
3, 469872, Note_on_c, 1, 53, 110
3, 469904, Note_off_c, 1, 52, 100
3, 469920, Note_on_c, 1, 52, 110
3, 469952, Note_off_c, 1, 53, 100
3, 469968, Note_on_c, 1, 53, 110
3, 470000, Note_off_c, 1, 52, 100
3, 470016, Note_on_c, 1, 52, 110
3, 470048, Note_off_c, 1, 53, 100
3, 470064, Note_on_c, 1, 53, 110
3, 470096, Note_off_c, 1, 52, 100
3, 470112, Note_on_c, 1, 52, 110
3, 470144, Note_off_c, 1, 53, 100
3, 470160, Note_on_c, 1, 53, 110
3, 470192, Note_off_c, 1, 52, 100
3, 470208, Note_on_c, 1, 52, 110
3, 470240, Note_off_c, 1, 53, 100
3, 470256, Note_on_c, 1, 53, 110
3, 470288, Note_off_c, 1, 52, 100
3, 470304, Note_on_c, 1, 50, 110
3, 470336, Note_off_c, 1, 53, 100
3, 470352, Note_on_c, 1, 52, 110
3, 470384, Note_off_c, 1, 50, 100
3, 470400, Note_on_c, 1, 53, 110
3, 470432, Note_off_c, 1, 52, 100
3, 470588, Note_off_c, 1, 53, 100
3, 470784, Note_on_c, 1, 38, 110
3, 470972, Note_off_c, 1, 38, 100
3, 471168, Note_on_c, 1, 54, 110
3, 471216, Note_on_c, 1, 55, 110
3, 471248, Note_off_c, 1, 54, 100
3, 471264, Note_on_c, 1, 54, 110
3, 471296, Note_off_c, 1, 55, 100
3, 471312, Note_on_c, 1, 55, 110
3, 471344, Note_off_c, 1, 54, 100
3, 471360, Note_on_c, 1, 54, 110
3, 471392, Note_off_c, 1, 55, 100
3, 471408, Note_on_c, 1, 55, 110
3, 471440, Note_off_c, 1, 54, 100
3, 471456, Note_on_c, 1, 54, 110
3, 471488, Note_off_c, 1, 55, 100
3, 471504, Note_on_c, 1, 55, 110
3, 471536, Note_off_c, 1, 54, 100
3, 471552, Note_on_c, 1, 54, 110
3, 471584, Note_off_c, 1, 55, 100
3, 471600, Note_on_c, 1, 55, 110
3, 471632, Note_off_c, 1, 54, 100
3, 471648, Note_on_c, 1, 54, 110
3, 471680, Note_off_c, 1, 55, 100
3, 471696, Note_on_c, 1, 55, 110
3, 471728, Note_off_c, 1, 54, 100
3, 471744, Note_on_c, 1, 54, 110
3, 471776, Note_off_c, 1, 55, 100
3, 471792, Note_on_c, 1, 55, 110
3, 471824, Note_off_c, 1, 54, 100
3, 471840, Note_on_c, 1, 52, 110
3, 471872, Note_off_c, 1, 55, 100
3, 471888, Note_on_c, 1, 54, 110
3, 471920, Note_off_c, 1, 52, 100
3, 471936, Note_on_c, 1, 55, 110
3, 471968, Note_off_c, 1, 54, 100
3, 472124, Note_off_c, 1, 55, 100
3, 472320, Note_on_c, 1, 39, 110
3, 472320, Note_on_c, 1, 51, 110
3, 472508, Note_off_c, 1, 39, 100
3, 472508, Note_off_c, 1, 51, 100
3, 472704, Note_on_c, 1, 60, 120
3, 472704, Note_on_c, 1, 63, 120
3, 472704, Note_on_c, 1, 65, 120
3, 472704, Note_on_c, 1, 53, 120
3, 473276, Note_off_c, 1, 60, 100
3, 473276, Note_off_c, 1, 63, 100
3, 473276, Note_off_c, 1, 65, 100
3, 473276, Note_off_c, 1, 53, 100
3, 473472, Note_on_c, 1, 58, 120
3, 473472, Note_on_c, 1, 53, 120
3, 473472, Note_on_c, 1, 50, 120
3, 473472, Note_on_c, 1, 46, 120
3, 474044, Note_off_c, 1, 58, 100
3, 474044, Note_off_c, 1, 53, 100
3, 474044, Note_off_c, 1, 50, 100
3, 474044, Note_off_c, 1, 46, 100
3, 474240, Note_on_c, 1, 53, 120
3, 474240, Note_on_c, 1, 51, 120
3, 474240, Note_on_c, 1, 48, 120
3, 474240, Note_on_c, 1, 41, 120
3, 474812, Note_off_c, 1, 41, 100
3, 474812, Note_off_c, 1, 48, 100
3, 474812, Note_off_c, 1, 51, 100
3, 474812, Note_off_c, 1, 53, 100
3, 475392, Note_on_c, 1, 46, 120
3, 475392, Note_on_c, 1, 41, 120
3, 475392, Note_on_c, 1, 38, 120
3, 475392, Note_on_c, 1, 34, 120
3, 478076, Note_off_c, 1, 34, 100
3, 478076, Note_off_c, 1, 38, 100
3, 478076, Note_off_c, 1, 41, 100
3, 478076, Note_off_c, 1, 46, 100
3, 478076, End_track
0, 0, End_of_file
