0, 0, Header, 1, 3, 384
1, 0, Start_track
1, 0, Title_t, "L.v.Beethoven 1mov - Piano Sonata No.29 in Bb Major Op.106\000"
1, 0, Copyright_t, "Copyright(C) 1995-2009, Suzuki Software\000"
1, 0, Sequencer_specific, 9, 67, 123, 0, 88, 70, 48, 50, 0, 1
1, 0, Text_t, "XFhd:2000/10/07:JP:Classical::::L.v.Beethoven:::Kaoru Suzuki\000"
1, 0, Text_t, "XFln:JP:\203s\203A\203m\203\\\203i\203^\221æ29\224Ô\225Ï\203\215\222·\222²\215ì\225i106\201`\221æ1\212y\217Í:L.v.\203x\201[\203g\201[\203\224\203F\203\223:::\227é\202¿\202á\202ñ:\227é\202¿\202á\202ñ\000"
1, 0, Time_signature, 4, 2, 96, 8
1, 0, Sequencer_specific, 3, 0, 0, 65
1, 0, Sequencer_specific, 5, 0, 0, 119, 14, 0
1, 0, Tempo, 272727
1, 13056, Tempo, 300000
1, 13824, Tempo, 333333
1, 14208, Tempo, 375000
1, 14400, Tempo, 461538
1, 15360, Tempo, 272727
1, 52224, Tempo, 285714
1, 53760, Tempo, 300000
1, 54528, Tempo, 333333
1, 55296, Tempo, 400000
1, 56064, Tempo, 600000
1, 56640, Tempo, 375000
1, 56832, Tempo, 272727
1, 60672, Tempo, 300000
1, 61440, Tempo, 333333
1, 64512, Tempo, 272727
1, 105216, Tempo, 285714
1, 105600, Tempo, 300000
1, 105984, Tempo, 333333
1, 106368, Tempo, 375000
1, 107136, Tempo, 300000
1, 107520, Tempo, 272727
1, 110592, Tempo, 285714
1, 110976, Tempo, 300000
1, 111360, Tempo, 333333
1, 112128, Tempo, 300000
1, 112512, Tempo, 272727
1, 119040, Tempo, 285714
1, 119424, Tempo, 300000
1, 120000, Tempo, 285714
1, 120192, Tempo, 272727
1, 209280, Tempo, 285714
1, 209664, Tempo, 300000
1, 210432, Tempo, 333333
1, 210816, Tempo, 375000
1, 211008, Tempo, 428571
1, 211968, Tempo, 272727
1, 248832, Tempo, 285714
1, 250368, Tempo, 300000
1, 251136, Tempo, 333333
1, 251904, Tempo, 375000
1, 252864, Tempo, 500000
1, 253248, Tempo, 375000
1, 253440, Tempo, 272727
1, 257280, Tempo, 300000
1, 257664, Tempo, 333333
1, 261120, Tempo, 272727
1, 299904, Tempo, 285714
1, 300672, Tempo, 300000
1, 301824, Tempo, 333333
1, 302592, Tempo, 375000
1, 303744, Tempo, 315789
1, 304128, Tempo, 272727
1, 307584, Tempo, 285714
1, 307968, Tempo, 300000
1, 308352, Tempo, 333333
1, 308736, Tempo, 300000
1, 309120, Tempo, 272727
1, 390144, Tempo, 285714
1, 390912, Tempo, 300000
1, 391680, Tempo, 333333
1, 394752, Tempo, 272727
1, 404352, Tempo, 285714
1, 404736, Tempo, 300000
1, 405120, Tempo, 315789
1, 405504, Tempo, 333333
1, 407040, Tempo, 300000
1, 417792, Tempo, 272727
1, 512256, Tempo, 285714
1, 513024, Tempo, 300000
1, 513408, Tempo, 315789
1, 513792, Tempo, 333333
1, 514176, Tempo, 375000
1, 514560, Tempo, 300000
1, 514944, Tempo, 272727
1, 564480, Tempo, 285714
1, 564864, Tempo, 300000
1, 565248, Tempo, 333333
1, 565632, Tempo, 428571
1, 565824, Tempo, 600000
1, 566784, Tempo, 300000
1, 568320, Tempo, 272727
1, 612864, Tempo, 285714
1, 614400, Tempo, 300000
1, 615168, Tempo, 333333
1, 615936, Tempo, 375000
1, 616704, Tempo, 428571
1, 618624, Tempo, 300000
1, 620544, Tempo, 333333
1, 623616, Tempo, 272727
1, 662784, Tempo, 285714
1, 663168, Tempo, 300000
1, 663936, Tempo, 272727
1, 667392, Tempo, 285714
1, 668160, Tempo, 300000
1, 668544, Tempo, 333333
1, 669312, Tempo, 300000
1, 669696, Tempo, 272727
1, 672768, Tempo, 285714
1, 673152, Tempo, 300000
1, 673536, Tempo, 333333
1, 674304, Tempo, 300000
1, 674688, Tempo, 272727
1, 681216, Tempo, 285714
1, 681600, Tempo, 300000
1, 682368, Tempo, 272727
1, 765696, Tempo, 285714
1, 766080, Tempo, 300000
1, 766272, Tempo, 333333
1, 766464, Tempo, 279069
1, 791040, Tempo, 272727
1, 796800, Tempo, 279069
1, 798336, Tempo, 285714
1, 798720, Tempo, 300000
1, 801408, Tempo, 315789
1, 802368, Tempo, 375000
1, 804480, Tempo, 300000
1, 804864, Tempo, 285714
1, 805248, Tempo, 272727
1, 826368, Tempo, 285714
1, 827904, Tempo, 300000
1, 828672, Tempo, 315789
1, 829440, Tempo, 333333
1, 830208, Tempo, 375000
1, 832512, Tempo, 428571
1, 832512, End_track
2, 0, Start_track
2, 0, Title_t, "Right"
2, 0, Control_c, 0, 0, 0
2, 0, Program_c, 0, 0
2, 0, Control_c, 0, 7, 100
2, 0, Control_c, 0, 10, 77
2, 0, Control_c, 0, 91, 127
2, 0, Key_signature, -2, "major"
2, 0, Note_on_c, 0, 70, 1
2, 0, Control_c, 0, 64, 127
2, 380, Note_off_c, 0, 70, 100
2, 2112, Note_on_c, 0, 86, 120
2, 2112, Note_on_c, 0, 82, 120
2, 2112, Note_on_c, 0, 77, 120
2, 2112, Note_on_c, 0, 74, 120
2, 2300, Note_off_c, 0, 86, 100
2, 2300, Note_off_c, 0, 82, 100
2, 2300, Note_off_c, 0, 77, 100
2, 2300, Note_off_c, 0, 74, 100
2, 2304, Note_on_c, 0, 86, 120
2, 2304, Note_on_c, 0, 82, 120
2, 2304, Note_on_c, 0, 77, 120
2, 2304, Note_on_c, 0, 74, 120
2, 2684, Note_off_c, 0, 86, 100
2, 2684, Note_off_c, 0, 82, 100
2, 2684, Note_off_c, 0, 77, 100
2, 2684, Note_off_c, 0, 74, 100
2, 2688, Note_on_c, 0, 87, 120
2, 2688, Note_on_c, 0, 82, 120
2, 2688, Note_on_c, 0, 77, 120
2, 2688, Note_on_c, 0, 74, 120
2, 2876, Note_off_c, 0, 87, 100
2, 2876, Note_off_c, 0, 82, 100
2, 2876, Note_off_c, 0, 77, 100
2, 2876, Note_off_c, 0, 74, 100
2, 2880, Note_on_c, 0, 86, 120
2, 2880, Note_on_c, 0, 82, 120
2, 2880, Note_on_c, 0, 77, 120
2, 2880, Note_on_c, 0, 74, 120
2, 3068, Note_off_c, 0, 86, 100
2, 3068, Note_off_c, 0, 82, 100
2, 3068, Note_off_c, 0, 77, 100
2, 3068, Note_off_c, 0, 74, 100
2, 3072, Note_on_c, 0, 86, 120
2, 3072, Note_on_c, 0, 82, 120
2, 3072, Note_on_c, 0, 77, 120
2, 3072, Note_on_c, 0, 74, 120
2, 3452, Note_off_c, 0, 86, 100
2, 3452, Note_off_c, 0, 82, 100
2, 3452, Note_off_c, 0, 77, 100
2, 3452, Note_off_c, 0, 74, 100
2, 3456, Note_on_c, 0, 82, 120
2, 3456, Note_on_c, 0, 77, 120
2, 3456, Note_on_c, 0, 74, 120
2, 3456, Note_on_c, 0, 70, 120
2, 3836, Note_off_c, 0, 82, 100
2, 3836, Note_off_c, 0, 77, 100
2, 3836, Note_off_c, 0, 74, 100
2, 3836, Note_off_c, 0, 70, 100
2, 5184, Note_on_c, 0, 89, 120
2, 5184, Note_on_c, 0, 86, 120
2, 5184, Note_on_c, 0, 82, 120
2, 5184, Note_on_c, 0, 77, 120
2, 5372, Note_off_c, 0, 89, 100
2, 5372, Note_off_c, 0, 86, 100
2, 5372, Note_off_c, 0, 82, 100
2, 5372, Note_off_c, 0, 77, 100
2, 5376, Note_on_c, 0, 89, 120
2, 5376, Note_on_c, 0, 86, 120
2, 5376, Note_on_c, 0, 82, 120
2, 5376, Note_on_c, 0, 77, 120
2, 5756, Note_off_c, 0, 89, 100
2, 5756, Note_off_c, 0, 86, 100
2, 5756, Note_off_c, 0, 82, 100
2, 5756, Note_off_c, 0, 77, 100
2, 5760, Note_on_c, 0, 91, 120
2, 5760, Note_on_c, 0, 86, 120
2, 5760, Note_on_c, 0, 82, 120
2, 5760, Note_on_c, 0, 77, 120
2, 5948, Note_off_c, 0, 91, 100
2, 5948, Note_off_c, 0, 86, 100
2, 5948, Note_off_c, 0, 82, 100
2, 5948, Note_off_c, 0, 77, 100
2, 5952, Note_on_c, 0, 89, 120
2, 5952, Note_on_c, 0, 86, 120
2, 5952, Note_on_c, 0, 82, 120
2, 5952, Note_on_c, 0, 77, 120
2, 6140, Note_off_c, 0, 89, 100
2, 6140, Note_off_c, 0, 86, 100
2, 6140, Note_off_c, 0, 82, 100
2, 6140, Note_off_c, 0, 77, 100
2, 6144, Note_on_c, 0, 89, 120
2, 6144, Note_on_c, 0, 86, 120
2, 6144, Note_on_c, 0, 82, 120
2, 6144, Note_on_c, 0, 77, 120
2, 6524, Note_off_c, 0, 89, 100
2, 6524, Note_off_c, 0, 86, 100
2, 6524, Note_off_c, 0, 82, 100
2, 6524, Note_off_c, 0, 77, 100
2, 6528, Note_on_c, 0, 82, 120
2, 6528, Note_on_c, 0, 77, 120
2, 6528, Note_on_c, 0, 74, 120
2, 6528, Note_on_c, 0, 86, 120
2, 7676, Note_off_c, 0, 82, 100
2, 7676, Note_off_c, 0, 77, 100
2, 7676, Note_off_c, 0, 74, 100
2, 7676, Note_off_c, 0, 86, 100
2, 8440, Control_c, 0, 64, 0
2, 8832, Note_on_c, 0, 70, 80
2, 9020, Note_off_c, 0, 70, 100
2, 9024, Note_on_c, 0, 72, 80
2, 9212, Note_off_c, 0, 72, 100
2, 9216, Note_on_c, 0, 74, 80
2, 9600, Note_on_c, 0, 67, 80
2, 9980, Note_off_c, 0, 74, 100
2, 9980, Note_off_c, 0, 67, 100
2, 9984, Note_on_c, 0, 69, 80
2, 9984, Note_on_c, 0, 72, 80
2, 10364, Note_off_c, 0, 69, 100
2, 10364, Note_off_c, 0, 72, 100
2, 10368, Note_on_c, 0, 68, 80
2, 10368, Note_on_c, 0, 72, 80
2, 10556, Note_off_c, 0, 72, 100
2, 10560, Note_on_c, 0, 74, 80
2, 10748, Note_off_c, 0, 68, 100
2, 10748, Note_off_c, 0, 74, 100
2, 10752, Note_on_c, 0, 75, 80
2, 10752, Note_on_c, 0, 67, 80
2, 11132, Note_off_c, 0, 67, 100
2, 11136, Note_on_c, 0, 69, 80
2, 11516, Note_off_c, 0, 75, 100
2, 11516, Note_off_c, 0, 69, 100
2, 11520, Note_on_c, 0, 70, 80
2, 11520, Note_on_c, 0, 74, 80
2, 11900, Note_off_c, 0, 70, 100
2, 11900, Note_off_c, 0, 74, 100
2, 11904, Note_on_c, 0, 74, 80
2, 11904, Note_on_c, 0, 67, 80
2, 12092, Note_off_c, 0, 74, 100
2, 12096, Note_on_c, 0, 75, 80
2, 12284, Note_off_c, 0, 67, 100
2, 12284, Note_off_c, 0, 75, 100
2, 12288, Note_on_c, 0, 77, 80
2, 12288, Note_on_c, 0, 69, 80
2, 12668, Note_off_c, 0, 69, 100
2, 12672, Note_on_c, 0, 70, 80
2, 12860, Note_off_c, 0, 77, 100
2, 12864, Note_on_c, 0, 79, 80
2, 13052, Note_off_c, 0, 70, 100
2, 13052, Note_off_c, 0, 79, 100
2, 13056, Note_on_c, 0, 77, 80
2, 13056, Note_on_c, 0, 67, 80
2, 13244, Note_off_c, 0, 77, 100
2, 13248, Note_on_c, 0, 75, 80
2, 13436, Note_off_c, 0, 67, 100
2, 13440, Note_on_c, 0, 69, 80
2, 13628, Note_off_c, 0, 75, 100
2, 13632, Note_on_c, 0, 77, 80
2, 13820, Note_off_c, 0, 69, 100
2, 13820, Note_off_c, 0, 77, 100
2, 13824, Note_on_c, 0, 75, 80
2, 13824, Note_on_c, 0, 70, 80
2, 13824, Note_on_c, 0, 65, 80
2, 14012, Note_off_c, 0, 75, 100
2, 14016, Note_on_c, 0, 74, 80
2, 14204, Note_off_c, 0, 70, 100
2, 14204, Note_off_c, 0, 65, 100
2, 14204, Note_off_c, 0, 74, 100
2, 14208, Note_on_c, 0, 77, 80
2, 14208, Note_on_c, 0, 72, 80
2, 14208, Note_on_c, 0, 67, 80
2, 14396, Note_off_c, 0, 77, 100
2, 14400, Note_on_c, 0, 75, 80
2, 14588, Note_off_c, 0, 72, 100
2, 14588, Note_off_c, 0, 67, 100
2, 14588, Note_off_c, 0, 75, 100
2, 14592, Note_on_c, 0, 72, 80
2, 14592, Note_on_c, 0, 69, 80
2, 15356, Note_off_c, 0, 72, 100
2, 15356, Note_off_c, 0, 69, 100
2, 16512, Note_on_c, 0, 82, 80
2, 16700, Note_off_c, 0, 82, 100
2, 16704, Note_on_c, 0, 84, 80
2, 16892, Note_off_c, 0, 84, 100
2, 16896, Note_on_c, 0, 86, 80
2, 17280, Note_on_c, 0, 79, 80
2, 17660, Note_off_c, 0, 86, 100
2, 17660, Note_off_c, 0, 79, 100
2, 17664, Note_on_c, 0, 81, 80
2, 17664, Note_on_c, 0, 84, 80
2, 18044, Note_off_c, 0, 81, 100
2, 18044, Note_off_c, 0, 84, 100
2, 18048, Note_on_c, 0, 80, 80
2, 18048, Note_on_c, 0, 84, 80
2, 18236, Note_off_c, 0, 84, 100
2, 18240, Note_on_c, 0, 86, 80
2, 18428, Note_off_c, 0, 80, 100
2, 18428, Note_off_c, 0, 86, 100
2, 18432, Note_on_c, 0, 87, 80
2, 18432, Note_on_c, 0, 79, 80
2, 18812, Note_off_c, 0, 79, 100
2, 18816, Note_on_c, 0, 81, 80
2, 19196, Note_off_c, 0, 87, 100
2, 19196, Note_off_c, 0, 81, 100
2, 19200, Note_on_c, 0, 82, 80
2, 19200, Note_on_c, 0, 86, 80
2, 19580, Note_off_c, 0, 82, 100
2, 19580, Note_off_c, 0, 86, 100
2, 19584, Note_on_c, 0, 86, 80
2, 19584, Note_on_c, 0, 79, 80
2, 19772, Note_off_c, 0, 86, 100
2, 19776, Note_on_c, 0, 87, 80
2, 19964, Note_off_c, 0, 79, 100
2, 19964, Note_off_c, 0, 87, 100
2, 19968, Note_on_c, 0, 89, 80
2, 19968, Note_on_c, 0, 81, 80
2, 20348, Note_off_c, 0, 81, 100
2, 20352, Note_on_c, 0, 82, 81
2, 20540, Note_off_c, 0, 89, 100
2, 20544, Note_on_c, 0, 91, 82
2, 20732, Note_off_c, 0, 82, 100
2, 20732, Note_off_c, 0, 91, 100
2, 20736, Note_on_c, 0, 89, 83
2, 20736, Note_on_c, 0, 79, 83
2, 20924, Note_off_c, 0, 89, 100
2, 20928, Note_on_c, 0, 87, 83
2, 21116, Note_off_c, 0, 79, 100
2, 21120, Note_on_c, 0, 81, 84
2, 21308, Note_off_c, 0, 87, 100
2, 21312, Note_on_c, 0, 89, 85
2, 21500, Note_off_c, 0, 81, 100
2, 21500, Note_off_c, 0, 89, 100
2, 21504, Note_on_c, 0, 87, 86
2, 21504, Note_on_c, 0, 77, 86
2, 21692, Note_off_c, 0, 87, 100
2, 21696, Note_on_c, 0, 86, 86
2, 21884, Note_off_c, 0, 77, 100
2, 21888, Note_on_c, 0, 82, 87
2, 22076, Note_off_c, 0, 86, 100
2, 22080, Note_on_c, 0, 87, 88
2, 22268, Note_off_c, 0, 87, 100
2, 22272, Note_on_c, 0, 86, 89
2, 22460, Note_off_c, 0, 86, 100
2, 22464, Note_on_c, 0, 84, 89
2, 22652, Note_off_c, 0, 82, 100
2, 22652, Note_off_c, 0, 84, 100
2, 22656, Note_on_c, 0, 86, 90
2, 22656, Note_on_c, 0, 81, 90
2, 22656, Note_on_c, 0, 77, 90
2, 22844, Note_off_c, 0, 86, 100
2, 22848, Note_on_c, 0, 87, 91
2, 23036, Note_off_c, 0, 81, 100
2, 23036, Note_off_c, 0, 77, 100
2, 23036, Note_off_c, 0, 87, 100
2, 23040, Note_on_c, 0, 91, 92
2, 23040, Note_on_c, 0, 82, 92
2, 23040, Note_on_c, 0, 77, 92
2, 23228, Note_off_c, 0, 91, 100
2, 23232, Note_on_c, 0, 89, 93
2, 23420, Note_off_c, 0, 82, 100
2, 23420, Note_off_c, 0, 77, 100
2, 23420, Note_off_c, 0, 89, 100
2, 23424, Note_on_c, 0, 91, 93
2, 23424, Note_on_c, 0, 82, 93
2, 23612, Note_off_c, 0, 91, 100
2, 23616, Note_on_c, 0, 89, 94
2, 23804, Note_off_c, 0, 82, 100
2, 23804, Note_off_c, 0, 89, 100
2, 23808, Note_on_c, 0, 89, 95
2, 23808, Note_on_c, 0, 79, 95
2, 23996, Note_off_c, 0, 89, 100
2, 24000, Note_on_c, 0, 87, 96
2, 24188, Note_off_c, 0, 79, 100
2, 24188, Note_off_c, 0, 87, 100
2, 24192, Note_on_c, 0, 89, 96
2, 24192, Note_on_c, 0, 81, 96
2, 24380, Note_off_c, 0, 89, 100
2, 24384, Note_on_c, 0, 87, 97
2, 24572, Note_off_c, 0, 81, 100
2, 24572, Note_off_c, 0, 87, 100
2, 24576, Note_on_c, 0, 87, 98
2, 24576, Note_on_c, 0, 77, 98
2, 24764, Note_off_c, 0, 87, 100
2, 24768, Note_on_c, 0, 86, 99
2, 24956, Note_off_c, 0, 77, 100
2, 24956, Note_off_c, 0, 86, 100
2, 24960, Note_on_c, 0, 87, 99
2, 24960, Note_on_c, 0, 82, 99
2, 25148, Note_off_c, 0, 87, 100
2, 25152, Note_on_c, 0, 86, 100
2, 25340, Note_off_c, 0, 86, 100
2, 25344, Note_on_c, 0, 86, 101
2, 25532, Note_off_c, 0, 86, 100
2, 25536, Note_on_c, 0, 84, 102
2, 25724, Note_off_c, 0, 82, 100
2, 25724, Note_off_c, 0, 84, 100
2, 25728, Note_on_c, 0, 86, 103
2, 25728, Note_on_c, 0, 81, 103
2, 25728, Note_on_c, 0, 77, 103
2, 25916, Note_off_c, 0, 86, 100
2, 25920, Note_on_c, 0, 87, 103
2, 26108, Note_off_c, 0, 81, 100
2, 26108, Note_off_c, 0, 77, 100
2, 26108, Note_off_c, 0, 87, 100
2, 26112, Note_on_c, 0, 91, 104
2, 26112, Note_on_c, 0, 82, 104
2, 26112, Note_on_c, 0, 77, 104
2, 26300, Note_off_c, 0, 91, 100
2, 26304, Note_on_c, 0, 89, 105
2, 26492, Note_off_c, 0, 82, 100
2, 26492, Note_off_c, 0, 77, 100
2, 26492, Note_off_c, 0, 89, 100
2, 26496, Note_on_c, 0, 88, 106
2, 26496, Note_on_c, 0, 82, 106
2, 26688, Note_on_c, 0, 91, 106
2, 26876, Note_off_c, 0, 88, 100
2, 26876, Note_off_c, 0, 82, 100
2, 26880, Note_on_c, 0, 87, 107
2, 27068, Note_off_c, 0, 91, 100
2, 27072, Note_on_c, 0, 92, 108
2, 27260, Note_off_c, 0, 87, 100
2, 27264, Note_on_c, 0, 87, 109
2, 27264, Note_on_c, 0, 84, 109
2, 27452, Note_off_c, 0, 92, 100
2, 27456, Note_on_c, 0, 93, 109
2, 27644, Note_off_c, 0, 87, 100
2, 27644, Note_off_c, 0, 84, 100
2, 27644, Note_off_c, 0, 93, 100
2, 27648, Note_on_c, 0, 96, 110
2, 27648, Note_on_c, 0, 86, 110
2, 27648, Note_on_c, 0, 82, 110
2, 27836, Note_off_c, 0, 96, 100
2, 27840, Note_on_c, 0, 94, 110
2, 28028, Note_off_c, 0, 86, 100
2, 28028, Note_off_c, 0, 82, 100
2, 28028, Note_off_c, 0, 94, 100
2, 28032, Note_on_c, 0, 93, 110
2, 28032, Note_on_c, 0, 87, 110
2, 28032, Note_on_c, 0, 82, 110
2, 28220, Note_off_c, 0, 93, 100
2, 28224, Note_on_c, 0, 91, 110
2, 28412, Note_off_c, 0, 87, 100
2, 28412, Note_off_c, 0, 82, 100
2, 28412, Note_off_c, 0, 91, 100
2, 28416, Note_on_c, 0, 89, 110
2, 28416, Note_on_c, 0, 86, 110
2, 28416, Note_on_c, 0, 82, 110
2, 28796, Note_off_c, 0, 89, 100
2, 28796, Note_off_c, 0, 86, 100
2, 28796, Note_off_c, 0, 82, 100
2, 28800, Note_on_c, 0, 93, 110
2, 28800, Note_on_c, 0, 89, 110
2, 28800, Note_on_c, 0, 84, 110
2, 28800, Note_on_c, 0, 81, 110
2, 29180, Note_off_c, 0, 93, 100
2, 29180, Note_off_c, 0, 89, 100
2, 29180, Note_off_c, 0, 84, 100
2, 29180, Note_off_c, 0, 81, 100
2, 29184, Control_c, 0, 64, 127
2, 29184, Note_on_c, 0, 94, 110
2, 29184, Note_on_c, 0, 89, 110
2, 29184, Note_on_c, 0, 86, 110
2, 29184, Note_on_c, 0, 82, 110
2, 29948, Note_off_c, 0, 94, 100
2, 29948, Note_off_c, 0, 89, 100
2, 29948, Note_off_c, 0, 86, 100
2, 29948, Note_off_c, 0, 82, 100
2, 29952, Note_on_c, 0, 82, 110
2, 29952, Note_on_c, 0, 74, 110
2, 29952, Note_on_c, 0, 70, 110
2, 30712, Control_c, 0, 64, 0
2, 30716, Note_off_c, 0, 82, 100
2, 30716, Note_off_c, 0, 74, 100
2, 30716, Note_off_c, 0, 70, 100
2, 30720, Note_on_c, 0, 86, 80
2, 30720, Note_on_c, 0, 77, 80
2, 30720, Note_on_c, 0, 74, 80
2, 31100, Note_off_c, 0, 86, 100
2, 31100, Note_off_c, 0, 77, 100
2, 31100, Note_off_c, 0, 74, 100
2, 31104, Note_on_c, 0, 82, 80
2, 31104, Note_on_c, 0, 74, 80
2, 31104, Note_on_c, 0, 70, 80
2, 31484, Note_off_c, 0, 82, 100
2, 31484, Note_off_c, 0, 74, 100
2, 31484, Note_off_c, 0, 70, 100
2, 31488, Note_on_c, 0, 86, 80
2, 31488, Note_on_c, 0, 77, 80
2, 31488, Note_on_c, 0, 74, 80
2, 31868, Note_off_c, 0, 86, 100
2, 31868, Note_off_c, 0, 77, 100
2, 31868, Note_off_c, 0, 74, 100
2, 31872, Note_on_c, 0, 84, 80
2, 31872, Note_on_c, 0, 75, 80
2, 31872, Note_on_c, 0, 72, 80
2, 32252, Note_off_c, 0, 84, 100
2, 32252, Note_off_c, 0, 75, 100
2, 32252, Note_off_c, 0, 72, 100
2, 32256, Control_c, 0, 64, 127
2, 32256, Note_on_c, 0, 87, 110
2, 32256, Note_on_c, 0, 79, 110
2, 32256, Note_on_c, 0, 75, 110
2, 33020, Note_off_c, 0, 87, 100
2, 33020, Note_off_c, 0, 79, 100
2, 33020, Note_off_c, 0, 75, 100
2, 33024, Note_on_c, 0, 84, 110
2, 33024, Note_on_c, 0, 75, 110
2, 33024, Note_on_c, 0, 72, 110
2, 33784, Control_c, 0, 64, 0
2, 33788, Note_off_c, 0, 84, 100
2, 33788, Note_off_c, 0, 75, 100
2, 33788, Note_off_c, 0, 72, 100
2, 33792, Note_on_c, 0, 87, 80
2, 33792, Note_on_c, 0, 79, 80
2, 33792, Note_on_c, 0, 75, 80
2, 34172, Note_off_c, 0, 87, 100
2, 34172, Note_off_c, 0, 79, 100
2, 34172, Note_off_c, 0, 75, 100
2, 34176, Note_on_c, 0, 85, 80
2, 34176, Note_on_c, 0, 76, 80
2, 34176, Note_on_c, 0, 73, 80
2, 34556, Note_off_c, 0, 85, 100
2, 34556, Note_off_c, 0, 76, 100
2, 34556, Note_off_c, 0, 73, 100
2, 34560, Note_on_c, 0, 87, 80
2, 34560, Note_on_c, 0, 78, 80
2, 34560, Note_on_c, 0, 75, 80
2, 34940, Note_off_c, 0, 87, 100
2, 34940, Note_off_c, 0, 78, 100
2, 34940, Note_off_c, 0, 75, 100
2, 34944, Note_on_c, 0, 86, 80
2, 34944, Note_on_c, 0, 77, 80
2, 34944, Note_on_c, 0, 74, 80
2, 35324, Note_off_c, 0, 86, 100
2, 35324, Note_off_c, 0, 77, 100
2, 35324, Note_off_c, 0, 74, 100
2, 35328, Control_c, 0, 64, 127
2, 35328, Note_on_c, 0, 89, 110
2, 35328, Note_on_c, 0, 80, 110
2, 35328, Note_on_c, 0, 77, 110
2, 36092, Note_off_c, 0, 89, 100
2, 36092, Note_off_c, 0, 80, 100
2, 36092, Note_off_c, 0, 77, 100
2, 36096, Note_on_c, 0, 86, 110
2, 36096, Note_on_c, 0, 77, 110
2, 36096, Note_on_c, 0, 74, 110
2, 36856, Control_c, 0, 64, 0
2, 36860, Note_off_c, 0, 86, 100
2, 36860, Note_off_c, 0, 77, 100
2, 36860, Note_off_c, 0, 74, 100
2, 36864, Note_on_c, 0, 89, 80
2, 36864, Note_on_c, 0, 80, 80
2, 36864, Note_on_c, 0, 77, 80
2, 37244, Note_off_c, 0, 89, 100
2, 37244, Note_off_c, 0, 80, 100
2, 37244, Note_off_c, 0, 77, 100
2, 37248, Note_on_c, 0, 78, 80
2, 37248, Note_on_c, 0, 74, 80
2, 37248, Note_on_c, 0, 86, 80
2, 37628, Note_off_c, 0, 78, 100
2, 37628, Note_off_c, 0, 74, 100
2, 37628, Note_off_c, 0, 86, 100
2, 37632, Note_on_c, 0, 89, 80
2, 37632, Note_on_c, 0, 80, 80
2, 37632, Note_on_c, 0, 77, 80
2, 38012, Note_off_c, 0, 89, 100
2, 38012, Note_off_c, 0, 80, 100
2, 38012, Note_off_c, 0, 77, 100
2, 38016, Note_on_c, 0, 87, 80
2, 38016, Note_on_c, 0, 79, 80
2, 38016, Note_on_c, 0, 75, 80
2, 38396, Note_off_c, 0, 87, 100
2, 38396, Note_off_c, 0, 79, 100
2, 38396, Note_off_c, 0, 75, 100
2, 38400, Control_c, 0, 64, 127
2, 38400, Note_on_c, 0, 91, 110
2, 38400, Note_on_c, 0, 82, 110
2, 38400, Note_on_c, 0, 79, 110
2, 39164, Note_off_c, 0, 91, 100
2, 39164, Note_off_c, 0, 82, 100
2, 39164, Note_off_c, 0, 79, 100
2, 39168, Note_on_c, 0, 87, 110
2, 39168, Note_on_c, 0, 82, 110
2, 39168, Note_on_c, 0, 79, 110
2, 39168, Note_on_c, 0, 75, 110
2, 39928, Control_c, 0, 64, 0
2, 39932, Note_off_c, 0, 87, 100
2, 39932, Note_off_c, 0, 82, 100
2, 39932, Note_off_c, 0, 79, 100
2, 39932, Note_off_c, 0, 75, 100
2, 39936, Note_on_c, 0, 91, 80
2, 39936, Note_on_c, 0, 82, 80
2, 39936, Note_on_c, 0, 79, 80
2, 40316, Note_off_c, 0, 91, 100
2, 40316, Note_off_c, 0, 82, 100
2, 40316, Note_off_c, 0, 79, 100
2, 40320, Note_on_c, 0, 88, 82
2, 40320, Note_on_c, 0, 82, 82
2, 40320, Note_on_c, 0, 76, 82
2, 40700, Note_off_c, 0, 88, 100
2, 40700, Note_off_c, 0, 82, 100
2, 40700, Note_off_c, 0, 76, 100
2, 40704, Note_on_c, 0, 90, 85
2, 40704, Note_on_c, 0, 82, 85
2, 40704, Note_on_c, 0, 78, 85
2, 41084, Note_off_c, 0, 90, 100
2, 41084, Note_off_c, 0, 82, 100
2, 41084, Note_off_c, 0, 78, 100
2, 41088, Note_on_c, 0, 89, 87
2, 41088, Note_on_c, 0, 82, 87
2, 41088, Note_on_c, 0, 77, 87
2, 41468, Note_off_c, 0, 89, 100
2, 41468, Note_off_c, 0, 82, 100
2, 41468, Note_off_c, 0, 77, 100
2, 41472, Note_on_c, 0, 92, 90
2, 41472, Note_on_c, 0, 82, 90
2, 41472, Note_on_c, 0, 80, 90
2, 41852, Note_off_c, 0, 92, 100
2, 41852, Note_off_c, 0, 82, 100
2, 41852, Note_off_c, 0, 80, 100
2, 41856, Note_on_c, 0, 90, 93
2, 41856, Note_on_c, 0, 82, 93
2, 41856, Note_on_c, 0, 78, 93
2, 42236, Note_off_c, 0, 90, 100
2, 42236, Note_off_c, 0, 82, 100
2, 42236, Note_off_c, 0, 78, 100
2, 42240, Note_on_c, 0, 92, 95
2, 42240, Note_on_c, 0, 82, 95
2, 42240, Note_on_c, 0, 80, 95
2, 42620, Note_off_c, 0, 92, 100
2, 42620, Note_off_c, 0, 82, 100
2, 42620, Note_off_c, 0, 80, 100
2, 42624, Note_on_c, 0, 91, 98
2, 42624, Note_on_c, 0, 82, 98
2, 42624, Note_on_c, 0, 79, 98
2, 43004, Note_off_c, 0, 91, 100
2, 43004, Note_off_c, 0, 82, 100
2, 43004, Note_off_c, 0, 79, 100
2, 43008, Note_on_c, 0, 94, 100
2, 43008, Note_on_c, 0, 91, 100
2, 43008, Note_on_c, 0, 87, 100
2, 43008, Note_on_c, 0, 82, 100
2, 43388, Note_off_c, 0, 94, 100
2, 43388, Note_off_c, 0, 91, 100
2, 43388, Note_off_c, 0, 87, 100
2, 43388, Note_off_c, 0, 82, 100
2, 43392, Note_on_c, 0, 92, 103
2, 43392, Note_on_c, 0, 80, 103
2, 43772, Note_off_c, 0, 92, 100
2, 43772, Note_off_c, 0, 80, 100
2, 43776, Note_on_c, 0, 94, 106
2, 43776, Note_on_c, 0, 82, 106
2, 44156, Note_off_c, 0, 94, 100
2, 44156, Note_off_c, 0, 82, 100
2, 44160, Note_on_c, 0, 93, 108
2, 44160, Note_on_c, 0, 81, 108
2, 44540, Note_off_c, 0, 93, 100
2, 44540, Note_off_c, 0, 81, 100
2, 44544, Note_on_c, 0, 96, 110
2, 44544, Note_on_c, 0, 84, 110
2, 44924, Note_off_c, 0, 96, 100
2, 44924, Note_off_c, 0, 84, 100
2, 44928, Note_on_c, 0, 94, 110
2, 44928, Note_on_c, 0, 82, 110
2, 45308, Note_off_c, 0, 94, 100
2, 45308, Note_off_c, 0, 82, 100
2, 45312, Note_on_c, 0, 91, 110
2, 45312, Note_on_c, 0, 79, 110
2, 45692, Note_off_c, 0, 91, 100
2, 45692, Note_off_c, 0, 79, 100
2, 45696, Note_on_c, 0, 89, 110
2, 45696, Note_on_c, 0, 77, 110
2, 46076, Note_off_c, 0, 89, 100
2, 46076, Note_off_c, 0, 77, 100
2, 46080, Note_on_c, 0, 87, 110
2, 46080, Note_on_c, 0, 75, 110
2, 46460, Note_off_c, 0, 87, 100
2, 46460, Note_off_c, 0, 75, 100
2, 46464, Note_on_c, 0, 86, 110
2, 46464, Note_on_c, 0, 74, 110
2, 46844, Note_off_c, 0, 86, 100
2, 46844, Note_off_c, 0, 74, 100
2, 46848, Note_on_c, 0, 84, 110
2, 46848, Note_on_c, 0, 72, 110
2, 47228, Note_off_c, 0, 84, 100
2, 47228, Note_off_c, 0, 72, 100
2, 47232, Note_on_c, 0, 82, 110
2, 47232, Note_on_c, 0, 70, 110
2, 47612, Note_off_c, 0, 82, 100
2, 47612, Note_off_c, 0, 70, 100
2, 47616, Note_on_c, 0, 79, 110
2, 47616, Note_on_c, 0, 67, 110
2, 47996, Note_off_c, 0, 79, 100
2, 47996, Note_off_c, 0, 67, 100
2, 48000, Note_on_c, 0, 77, 110
2, 48000, Note_on_c, 0, 65, 110
2, 48380, Note_off_c, 0, 77, 100
2, 48380, Note_off_c, 0, 65, 100
2, 48384, Note_on_c, 0, 75, 110
2, 48384, Note_on_c, 0, 63, 110
2, 48764, Note_off_c, 0, 75, 100
2, 48764, Note_off_c, 0, 63, 100
2, 48768, Note_on_c, 0, 74, 110
2, 48768, Note_on_c, 0, 62, 110
2, 49148, Note_off_c, 0, 74, 100
2, 49148, Note_off_c, 0, 62, 100
2, 49152, Note_on_c, 0, 72, 110
2, 49152, Note_on_c, 0, 60, 110
2, 49532, Note_off_c, 0, 72, 100
2, 49532, Note_off_c, 0, 60, 100
2, 49536, Note_on_c, 0, 70, 110
2, 49536, Note_on_c, 0, 58, 110
2, 49916, Note_off_c, 0, 70, 100
2, 49916, Note_off_c, 0, 58, 100
2, 49920, Note_on_c, 0, 67, 110
2, 49920, Note_on_c, 0, 55, 110
2, 50300, Note_off_c, 0, 67, 100
2, 50300, Note_off_c, 0, 55, 100
2, 50304, Note_on_c, 0, 65, 110
2, 50304, Note_on_c, 0, 53, 110
2, 50684, Note_off_c, 0, 65, 100
2, 50684, Note_off_c, 0, 53, 100
2, 50688, Control_c, 0, 64, 127
2, 50688, Note_on_c, 0, 69, 110
2, 51072, Note_on_c, 0, 65, 108
2, 51452, Note_off_c, 0, 69, 100
2, 51456, Note_on_c, 0, 72, 105
2, 51836, Note_off_c, 0, 65, 100
2, 51840, Note_on_c, 0, 65, 102
2, 52220, Note_off_c, 0, 72, 100
2, 52224, Note_on_c, 0, 77, 99
2, 52604, Note_off_c, 0, 65, 100
2, 52608, Note_on_c, 0, 65, 97
2, 52988, Note_off_c, 0, 77, 100
2, 52992, Note_on_c, 0, 81, 94
2, 53372, Note_off_c, 0, 65, 100
2, 53376, Note_on_c, 0, 65, 91
2, 53756, Note_off_c, 0, 81, 100
2, 53760, Note_on_c, 0, 84, 88
2, 54140, Note_off_c, 0, 65, 100
2, 54144, Note_on_c, 0, 65, 86
2, 54524, Note_off_c, 0, 84, 100
2, 54528, Note_on_c, 0, 89, 83
2, 54908, Note_off_c, 0, 65, 100
2, 54912, Note_on_c, 0, 65, 80
2, 55292, Note_off_c, 0, 89, 100
2, 55296, Note_on_c, 0, 89, 77
2, 55676, Note_off_c, 0, 65, 100
2, 55680, Note_on_c, 0, 65, 75
2, 56060, Note_off_c, 0, 89, 100
2, 56064, Note_on_c, 0, 89, 72
2, 56440, Control_c, 0, 64, 0
2, 56444, Note_off_c, 0, 65, 100
2, 56828, Note_off_c, 0, 89, 100
2, 56832, Control_c, 0, 64, 127
2, 57408, Note_on_c, 0, 86, 110
2, 57408, Note_on_c, 0, 82, 110
2, 57408, Note_on_c, 0, 77, 110
2, 57408, Note_on_c, 0, 74, 110
2, 57596, Note_off_c, 0, 86, 100
2, 57596, Note_off_c, 0, 82, 100
2, 57596, Note_off_c, 0, 77, 100
2, 57596, Note_off_c, 0, 74, 100
2, 57600, Note_on_c, 0, 86, 110
2, 57600, Note_on_c, 0, 82, 110
2, 57600, Note_on_c, 0, 77, 110
2, 57600, Note_on_c, 0, 74, 110
2, 57980, Note_off_c, 0, 86, 100
2, 57980, Note_off_c, 0, 82, 100
2, 57980, Note_off_c, 0, 77, 100
2, 57980, Note_off_c, 0, 74, 100
2, 57984, Note_on_c, 0, 87, 110
2, 57984, Note_on_c, 0, 82, 110
2, 57984, Note_on_c, 0, 77, 110
2, 57984, Note_on_c, 0, 74, 110
2, 58172, Note_off_c, 0, 87, 100
2, 58172, Note_off_c, 0, 82, 100
2, 58172, Note_off_c, 0, 77, 100
2, 58172, Note_off_c, 0, 74, 100
2, 58176, Note_on_c, 0, 86, 110
2, 58176, Note_on_c, 0, 82, 110
2, 58176, Note_on_c, 0, 77, 110
2, 58176, Note_on_c, 0, 74, 110
2, 58364, Note_off_c, 0, 86, 100
2, 58364, Note_off_c, 0, 82, 100
2, 58364, Note_off_c, 0, 77, 100
2, 58364, Note_off_c, 0, 74, 100
2, 58368, Note_on_c, 0, 86, 110
2, 58368, Note_on_c, 0, 82, 110
2, 58368, Note_on_c, 0, 77, 110
2, 58368, Note_on_c, 0, 74, 110
2, 58748, Note_off_c, 0, 86, 100
2, 58748, Note_off_c, 0, 82, 100
2, 58748, Note_off_c, 0, 77, 100
2, 58748, Note_off_c, 0, 74, 100
2, 58752, Note_on_c, 0, 82, 110
2, 58752, Note_on_c, 0, 77, 110
2, 58752, Note_on_c, 0, 74, 110
2, 58752, Note_on_c, 0, 70, 110
2, 59132, Note_off_c, 0, 82, 100
2, 59132, Note_off_c, 0, 77, 100
2, 59132, Note_off_c, 0, 74, 100
2, 59132, Note_off_c, 0, 70, 100
2, 60472, Control_c, 0, 64, 0
2, 60480, Note_on_c, 0, 86, 110
2, 60480, Note_on_c, 0, 82, 110
2, 60480, Note_on_c, 0, 77, 110
2, 60480, Note_on_c, 0, 74, 110
2, 60668, Note_off_c, 0, 86, 100
2, 60668, Note_off_c, 0, 82, 100
2, 60668, Note_off_c, 0, 77, 100
2, 60668, Note_off_c, 0, 74, 100
2, 60672, Control_c, 0, 64, 127
2, 60672, Note_on_c, 0, 86, 110
2, 60672, Note_on_c, 0, 74, 110
2, 61052, Note_off_c, 0, 86, 100
2, 61052, Note_off_c, 0, 74, 100
2, 61056, Note_on_c, 0, 86, 110
2, 61056, Note_on_c, 0, 81, 110
2, 61056, Note_on_c, 0, 78, 110
2, 61056, Note_on_c, 0, 74, 110
2, 61244, Note_off_c, 0, 86, 100
2, 61244, Note_off_c, 0, 81, 100
2, 61244, Note_off_c, 0, 78, 100
2, 61244, Note_off_c, 0, 74, 100
2, 61248, Note_on_c, 0, 86, 110
2, 61248, Note_on_c, 0, 81, 110
2, 61248, Note_on_c, 0, 78, 110
2, 61248, Note_on_c, 0, 74, 110
2, 61436, Note_off_c, 0, 86, 100
2, 61436, Note_off_c, 0, 81, 100
2, 61436, Note_off_c, 0, 78, 100
2, 61436, Note_off_c, 0, 74, 100
2, 61440, Note_on_c, 0, 86, 110
2, 61440, Note_on_c, 0, 81, 110
2, 61440, Note_on_c, 0, 78, 110
2, 61440, Note_on_c, 0, 74, 110
2, 61820, Note_off_c, 0, 86, 100
2, 61820, Note_off_c, 0, 81, 100
2, 61820, Note_off_c, 0, 78, 100
2, 61820, Note_off_c, 0, 74, 100
2, 61824, Note_on_c, 0, 86, 110
2, 61824, Note_on_c, 0, 81, 110
2, 61824, Note_on_c, 0, 78, 110
2, 61824, Note_on_c, 0, 74, 110
2, 63740, Note_off_c, 0, 74, 100
2, 63740, Note_off_c, 0, 78, 100
2, 63740, Note_off_c, 0, 81, 100
2, 63740, Note_off_c, 0, 86, 100
2, 64120, Control_c, 0, 64, 0
2, 64896, Note_on_c, 0, 74, 80
2, 64896, Note_on_c, 0, 69, 80
2, 64896, Note_on_c, 0, 66, 80
2, 65276, Note_off_c, 0, 74, 100
2, 65276, Note_off_c, 0, 69, 100
2, 65276, Note_off_c, 0, 66, 100
2, 65664, Note_on_c, 0, 74, 80
2, 65664, Note_on_c, 0, 69, 80
2, 65664, Note_on_c, 0, 66, 80
2, 66044, Note_off_c, 0, 74, 100
2, 66044, Note_off_c, 0, 69, 100
2, 66044, Note_off_c, 0, 66, 100
2, 66432, Note_on_c, 0, 74, 80
2, 66432, Note_on_c, 0, 69, 80
2, 66432, Note_on_c, 0, 66, 80
2, 66812, Note_off_c, 0, 74, 100
2, 66812, Note_off_c, 0, 69, 100
2, 66812, Note_off_c, 0, 66, 100
2, 67200, Note_on_c, 0, 74, 80
2, 67200, Note_on_c, 0, 69, 80
2, 67200, Note_on_c, 0, 66, 80
2, 67580, Note_off_c, 0, 74, 100
2, 67580, Note_off_c, 0, 69, 100
2, 67580, Note_off_c, 0, 66, 100
2, 67968, Note_on_c, 0, 78, 82
2, 67968, Note_on_c, 0, 74, 82
2, 67968, Note_on_c, 0, 72, 82
2, 67968, Note_on_c, 0, 69, 82
2, 68348, Note_off_c, 0, 78, 100
2, 68348, Note_off_c, 0, 74, 100
2, 68348, Note_off_c, 0, 72, 100
2, 68348, Note_off_c, 0, 69, 100
2, 68736, Note_on_c, 0, 78, 86
2, 68736, Note_on_c, 0, 74, 86
2, 68736, Note_on_c, 0, 72, 86
2, 68736, Note_on_c, 0, 69, 86
2, 69116, Note_off_c, 0, 78, 100
2, 69116, Note_off_c, 0, 74, 100
2, 69116, Note_off_c, 0, 72, 100
2, 69116, Note_off_c, 0, 69, 100
2, 69504, Note_on_c, 0, 81, 90
2, 69504, Note_on_c, 0, 78, 90
2, 69504, Note_on_c, 0, 72, 90
2, 69504, Note_on_c, 0, 69, 90
2, 69884, Note_off_c, 0, 81, 100
2, 69884, Note_off_c, 0, 78, 100
2, 69884, Note_off_c, 0, 72, 100
2, 69884, Note_off_c, 0, 69, 100
2, 70272, Note_on_c, 0, 84, 94
2, 70272, Note_on_c, 0, 81, 94
2, 70272, Note_on_c, 0, 78, 94
2, 70272, Note_on_c, 0, 72, 94
2, 70652, Note_off_c, 0, 84, 100
2, 70652, Note_off_c, 0, 81, 100
2, 70652, Note_off_c, 0, 78, 100
2, 70652, Note_off_c, 0, 72, 100
2, 71040, Note_on_c, 0, 90, 99
2, 71040, Note_on_c, 0, 84, 99
2, 71040, Note_on_c, 0, 81, 99
2, 71040, Note_on_c, 0, 78, 99
2, 71420, Note_off_c, 0, 90, 100
2, 71420, Note_off_c, 0, 84, 100
2, 71420, Note_off_c, 0, 81, 100
2, 71420, Note_off_c, 0, 78, 100
2, 71808, Note_on_c, 0, 93, 103
2, 71808, Note_on_c, 0, 84, 103
2, 71808, Note_on_c, 0, 81, 103
2, 72188, Note_off_c, 0, 93, 100
2, 72188, Note_off_c, 0, 84, 100
2, 72188, Note_off_c, 0, 81, 100
2, 72576, Note_on_c, 0, 96, 107
2, 72576, Note_on_c, 0, 93, 107
2, 72576, Note_on_c, 0, 84, 107
2, 72956, Note_off_c, 0, 96, 100
2, 72956, Note_off_c, 0, 93, 100
2, 72956, Note_off_c, 0, 84, 100
2, 73344, Note_on_c, 0, 96, 110
2, 73344, Note_on_c, 0, 93, 110
2, 73344, Note_on_c, 0, 90, 110
2, 73344, Note_on_c, 0, 84, 110
2, 73724, Note_off_c, 0, 96, 100
2, 73724, Note_off_c, 0, 93, 100
2, 73724, Note_off_c, 0, 90, 100
2, 73724, Note_off_c, 0, 84, 100
2, 73728, Key_signature, 1, "major"
2, 73728, Note_on_c, 0, 96, 110
2, 73728, Note_on_c, 0, 93, 110
2, 73728, Note_on_c, 0, 90, 110
2, 73728, Note_on_c, 0, 84, 110
2, 74108, Note_off_c, 0, 96, 100
2, 74108, Note_off_c, 0, 93, 100
2, 74108, Note_off_c, 0, 90, 100
2, 74108, Note_off_c, 0, 84, 100
2, 74112, Note_on_c, 0, 84, 110
2, 74112, Note_on_c, 0, 81, 110
2, 74300, Note_off_c, 0, 84, 100
2, 74300, Note_off_c, 0, 81, 100
2, 74304, Note_on_c, 0, 80, 108
2, 74304, Note_on_c, 0, 83, 108
2, 74492, Note_off_c, 0, 80, 100
2, 74492, Note_off_c, 0, 83, 100
2, 74496, Note_on_c, 0, 84, 106
2, 74496, Note_on_c, 0, 81, 106
2, 74876, Note_off_c, 0, 84, 100
2, 74876, Note_off_c, 0, 81, 100
2, 74880, Note_on_c, 0, 69, 101
2, 74880, Note_on_c, 0, 66, 101
2, 75068, Note_off_c, 0, 69, 100
2, 75068, Note_off_c, 0, 66, 100
2, 75072, Note_on_c, 0, 67, 99
2, 75072, Note_on_c, 0, 70, 99
2, 75260, Note_off_c, 0, 67, 100
2, 75260, Note_off_c, 0, 70, 100
2, 75264, Note_on_c, 0, 69, 97
2, 75264, Note_on_c, 0, 66, 97
2, 75644, Note_off_c, 0, 69, 100
2, 75644, Note_off_c, 0, 66, 100
2, 75648, Note_on_c, 0, 84, 92
2, 75648, Note_on_c, 0, 81, 92
2, 75836, Note_off_c, 0, 84, 100
2, 75836, Note_off_c, 0, 81, 100
2, 75840, Note_on_c, 0, 80, 90
2, 75840, Note_on_c, 0, 83, 90
2, 76028, Note_off_c, 0, 80, 100
2, 76028, Note_off_c, 0, 83, 100
2, 76032, Note_on_c, 0, 84, 87
2, 76032, Note_on_c, 0, 81, 87
2, 76412, Note_off_c, 0, 84, 100
2, 76412, Note_off_c, 0, 81, 100
2, 76416, Note_on_c, 0, 90, 83
2, 76604, Note_off_c, 0, 90, 100
2, 76608, Note_on_c, 0, 93, 81
2, 76796, Note_off_c, 0, 93, 100
2, 76800, Note_on_c, 0, 96, 80
2, 76988, Note_off_c, 0, 96, 100
2, 76992, Note_on_c, 0, 98, 80
2, 77180, Note_off_c, 0, 98, 100
2, 77184, Note_on_c, 0, 96, 80
2, 77372, Note_off_c, 0, 96, 100
2, 77376, Note_on_c, 0, 95, 80
2, 77564, Note_off_c, 0, 95, 100
2, 77568, Note_on_c, 0, 96, 80
2, 77756, Note_off_c, 0, 96, 100
2, 77760, Note_on_c, 0, 98, 80
2, 77948, Note_off_c, 0, 98, 100
2, 77952, Note_on_c, 0, 100, 80
2, 78140, Note_off_c, 0, 100, 100
2, 78144, Note_on_c, 0, 96, 80
2, 78332, Note_off_c, 0, 96, 100
2, 78336, Note_on_c, 0, 93, 80
2, 78524, Note_off_c, 0, 93, 100
2, 78528, Note_on_c, 0, 95, 80
2, 78716, Note_off_c, 0, 95, 100
2, 78720, Note_on_c, 0, 96, 80
2, 78908, Note_off_c, 0, 96, 100
2, 78912, Note_on_c, 0, 93, 80
2, 79100, Note_off_c, 0, 93, 100
2, 79104, Note_on_c, 0, 90, 80
2, 79292, Note_off_c, 0, 90, 100
2, 79296, Note_on_c, 0, 91, 80
2, 79484, Note_off_c, 0, 91, 100
2, 79488, Note_on_c, 0, 93, 80
2, 79676, Note_off_c, 0, 93, 100
2, 79680, Note_on_c, 0, 90, 80
2, 79868, Note_off_c, 0, 90, 100
2, 79872, Note_on_c, 0, 84, 80
2, 80060, Note_off_c, 0, 84, 100
2, 80064, Note_on_c, 0, 86, 80
2, 80252, Note_off_c, 0, 86, 100
2, 80256, Note_on_c, 0, 88, 80
2, 80444, Note_off_c, 0, 88, 100
2, 80448, Note_on_c, 0, 84, 80
2, 80636, Note_off_c, 0, 84, 100
2, 80640, Note_on_c, 0, 81, 80
2, 80828, Note_off_c, 0, 81, 100
2, 80832, Note_on_c, 0, 83, 80
2, 81020, Note_off_c, 0, 83, 100
2, 81024, Note_on_c, 0, 84, 80
2, 81212, Note_off_c, 0, 84, 100
2, 81216, Note_on_c, 0, 81, 80
2, 81404, Note_off_c, 0, 81, 100
2, 81408, Note_on_c, 0, 78, 80
2, 81596, Note_off_c, 0, 78, 100
2, 81600, Note_on_c, 0, 79, 80
2, 81788, Note_off_c, 0, 79, 100
2, 81792, Note_on_c, 0, 81, 80
2, 81980, Note_off_c, 0, 81, 100
2, 81984, Note_on_c, 0, 78, 80
2, 82172, Note_off_c, 0, 78, 100
2, 82176, Note_on_c, 0, 74, 80
2, 82176, Note_on_c, 0, 72, 80
2, 82176, Note_on_c, 0, 69, 80
2, 82556, Note_off_c, 0, 74, 100
2, 82556, Note_off_c, 0, 72, 100
2, 82556, Note_off_c, 0, 69, 100
2, 82944, Note_on_c, 0, 95, 80
2, 83132, Note_off_c, 0, 95, 100
2, 83136, Note_on_c, 0, 96, 80
2, 83324, Note_off_c, 0, 96, 100
2, 83328, Note_on_c, 0, 95, 80
2, 83516, Note_off_c, 0, 95, 100
2, 83520, Note_on_c, 0, 93, 80
2, 83708, Note_off_c, 0, 93, 100
2, 83712, Note_on_c, 0, 95, 80
2, 83900, Note_off_c, 0, 95, 100
2, 83904, Note_on_c, 0, 96, 80
2, 84092, Note_off_c, 0, 96, 100
2, 84096, Note_on_c, 0, 98, 80
2, 84284, Note_off_c, 0, 98, 100
2, 84288, Note_on_c, 0, 95, 80
2, 84476, Note_off_c, 0, 95, 100
2, 84480, Note_on_c, 0, 91, 80
2, 84668, Note_off_c, 0, 91, 100
2, 84672, Note_on_c, 0, 93, 80
2, 84860, Note_off_c, 0, 93, 100
2, 84864, Note_on_c, 0, 95, 80
2, 85052, Note_off_c, 0, 95, 100
2, 85056, Note_on_c, 0, 91, 80
2, 85244, Note_off_c, 0, 91, 100
2, 85248, Note_on_c, 0, 86, 80
2, 85436, Note_off_c, 0, 86, 100
2, 85440, Note_on_c, 0, 90, 80
2, 85628, Note_off_c, 0, 90, 100
2, 85632, Note_on_c, 0, 91, 80
2, 85820, Note_off_c, 0, 91, 100
2, 85824, Note_on_c, 0, 86, 80
2, 86012, Note_off_c, 0, 86, 100
2, 86016, Note_on_c, 0, 83, 80
2, 86204, Note_off_c, 0, 83, 100
2, 86208, Note_on_c, 0, 84, 80
2, 86396, Note_off_c, 0, 84, 100
2, 86400, Note_on_c, 0, 86, 80
2, 86588, Note_off_c, 0, 86, 100
2, 86592, Note_on_c, 0, 83, 80
2, 86780, Note_off_c, 0, 83, 100
2, 86784, Note_on_c, 0, 79, 80
2, 86972, Note_off_c, 0, 79, 100
2, 86976, Note_on_c, 0, 81, 80
2, 87164, Note_off_c, 0, 81, 100
2, 87168, Note_on_c, 0, 83, 80
2, 87356, Note_off_c, 0, 83, 100
2, 87360, Note_on_c, 0, 79, 80
2, 87548, Note_off_c, 0, 79, 100
2, 87552, Note_on_c, 0, 74, 80
2, 87740, Note_off_c, 0, 74, 100
2, 87744, Note_on_c, 0, 78, 80
2, 87932, Note_off_c, 0, 78, 100
2, 87936, Note_on_c, 0, 79, 80
2, 88124, Note_off_c, 0, 79, 100
2, 88128, Note_on_c, 0, 71, 80
2, 88316, Note_off_c, 0, 71, 100
2, 88320, Note_on_c, 0, 67, 80
2, 88508, Note_off_c, 0, 67, 100
2, 88512, Note_on_c, 0, 69, 80
2, 88700, Note_off_c, 0, 69, 100
2, 88704, Note_on_c, 0, 71, 80
2, 88892, Note_off_c, 0, 71, 100
2, 88896, Note_on_c, 0, 67, 80
2, 89084, Note_off_c, 0, 67, 100
2, 89088, Note_on_c, 0, 69, 80
2, 89088, Note_on_c, 0, 66, 80
2, 89088, Note_on_c, 0, 62, 80
2, 89468, Note_off_c, 0, 69, 100
2, 89468, Note_off_c, 0, 66, 100
2, 89468, Note_off_c, 0, 62, 100
2, 89472, Note_on_c, 0, 88, 80
2, 89660, Note_off_c, 0, 88, 100
2, 89664, Note_on_c, 0, 86, 80
2, 89852, Note_off_c, 0, 86, 100
2, 89856, Note_on_c, 0, 88, 80
2, 90044, Note_off_c, 0, 88, 100
2, 90048, Note_on_c, 0, 86, 80
2, 90236, Note_off_c, 0, 86, 100
2, 90240, Note_on_c, 0, 84, 80
2, 90428, Note_off_c, 0, 84, 100
2, 90432, Note_on_c, 0, 88, 80
2, 90620, Note_off_c, 0, 88, 100
2, 90624, Note_on_c, 0, 84, 80
2, 90812, Note_off_c, 0, 84, 100
2, 90816, Note_on_c, 0, 83, 80
2, 91004, Note_off_c, 0, 83, 100
2, 91008, Note_on_c, 0, 81, 80
2, 91196, Note_off_c, 0, 81, 100
2, 91200, Note_on_c, 0, 84, 80
2, 91388, Note_off_c, 0, 84, 100
2, 91392, Note_on_c, 0, 81, 80
2, 91580, Note_off_c, 0, 81, 100
2, 91584, Note_on_c, 0, 79, 80
2, 91772, Note_off_c, 0, 79, 100
2, 91776, Note_on_c, 0, 78, 80
2, 91964, Note_off_c, 0, 78, 100
2, 91968, Note_on_c, 0, 81, 80
2, 92156, Note_off_c, 0, 81, 100
2, 92160, Note_on_c, 0, 76, 80
2, 92348, Note_off_c, 0, 76, 100
2, 92352, Note_on_c, 0, 74, 80
2, 92540, Note_off_c, 0, 74, 100
2, 92544, Note_on_c, 0, 72, 80
2, 92732, Note_off_c, 0, 72, 100
2, 92736, Note_on_c, 0, 76, 80
2, 92924, Note_off_c, 0, 76, 100
2, 92928, Note_on_c, 0, 72, 80
2, 93116, Note_off_c, 0, 72, 100
2, 93120, Note_on_c, 0, 71, 80
2, 93308, Note_off_c, 0, 71, 100
2, 93312, Note_on_c, 0, 69, 80
2, 93500, Note_off_c, 0, 69, 100
2, 93504, Note_on_c, 0, 72, 80
2, 93692, Note_off_c, 0, 72, 100
2, 93696, Note_on_c, 0, 69, 80
2, 93884, Note_off_c, 0, 69, 100
2, 93888, Note_on_c, 0, 67, 80
2, 94076, Note_off_c, 0, 67, 100
2, 94080, Note_on_c, 0, 66, 80
2, 94268, Note_off_c, 0, 66, 100
2, 94272, Note_on_c, 0, 69, 80
2, 94460, Note_off_c, 0, 69, 100
2, 94464, Note_on_c, 0, 72, 80
2, 94652, Note_off_c, 0, 72, 100
2, 94656, Note_on_c, 0, 71, 80
2, 94844, Note_off_c, 0, 71, 100
2, 94848, Note_on_c, 0, 69, 80
2, 95036, Note_off_c, 0, 69, 100
2, 95040, Note_on_c, 0, 72, 80
2, 95228, Note_off_c, 0, 72, 100
2, 95232, Note_on_c, 0, 67, 80
2, 95232, Note_on_c, 0, 62, 80
2, 95612, Note_off_c, 0, 67, 100
2, 95612, Note_off_c, 0, 62, 100
2, 95616, Note_on_c, 0, 98, 80
2, 95804, Note_off_c, 0, 98, 100
2, 95808, Note_on_c, 0, 96, 80
2, 95996, Note_off_c, 0, 96, 100
2, 96000, Note_on_c, 0, 98, 80
2, 96188, Note_off_c, 0, 98, 100
2, 96192, Note_on_c, 0, 96, 80
2, 96380, Note_off_c, 0, 96, 100
2, 96384, Note_on_c, 0, 95, 80
2, 96572, Note_off_c, 0, 95, 100
2, 96576, Note_on_c, 0, 98, 80
2, 96764, Note_off_c, 0, 98, 100
2, 96768, Note_on_c, 0, 95, 80
2, 96956, Note_off_c, 0, 95, 100
2, 96960, Note_on_c, 0, 93, 80
2, 97148, Note_off_c, 0, 93, 100
2, 97152, Note_on_c, 0, 91, 80
2, 97340, Note_off_c, 0, 91, 100
2, 97344, Note_on_c, 0, 95, 80
2, 97532, Note_off_c, 0, 95, 100
2, 97536, Note_on_c, 0, 83, 80
2, 97724, Note_off_c, 0, 83, 100
2, 97728, Note_on_c, 0, 81, 80
2, 97916, Note_off_c, 0, 81, 100
2, 97920, Note_on_c, 0, 79, 80
2, 98108, Note_off_c, 0, 79, 100
2, 98112, Note_on_c, 0, 83, 80
2, 98300, Note_off_c, 0, 83, 100
2, 98304, Note_on_c, 0, 74, 80
2, 98492, Note_off_c, 0, 74, 100
2, 98496, Note_on_c, 0, 72, 80
2, 98684, Note_off_c, 0, 72, 100
2, 98688, Note_on_c, 0, 71, 80
2, 98876, Note_off_c, 0, 71, 100
2, 98880, Note_on_c, 0, 74, 80
2, 99068, Note_off_c, 0, 74, 100
2, 99072, Note_on_c, 0, 83, 80
2, 99260, Note_off_c, 0, 83, 100
2, 99264, Note_on_c, 0, 81, 80
2, 99452, Note_off_c, 0, 81, 100
2, 99456, Note_on_c, 0, 79, 80
2, 99644, Note_off_c, 0, 79, 100
2, 99648, Note_on_c, 0, 83, 80
2, 99836, Note_off_c, 0, 83, 100
2, 99840, Note_on_c, 0, 86, 80
2, 100028, Note_off_c, 0, 86, 100
2, 100032, Note_on_c, 0, 84, 80
2, 100220, Note_off_c, 0, 84, 100
2, 100224, Note_on_c, 0, 83, 80
2, 100412, Note_off_c, 0, 83, 100
2, 100416, Note_on_c, 0, 86, 80
2, 100604, Note_off_c, 0, 86, 100
2, 100608, Note_on_c, 0, 88, 80
2, 100988, Note_off_c, 0, 88, 100
2, 100992, Note_on_c, 0, 90, 80
2, 100992, Note_on_c, 0, 86, 80
2, 100992, Note_on_c, 0, 81, 80
2, 101372, Note_off_c, 0, 90, 100
2, 101372, Note_off_c, 0, 86, 100
2, 101372, Note_off_c, 0, 81, 100
2, 101376, Note_on_c, 0, 91, 80
2, 101376, Note_on_c, 0, 86, 80
2, 101376, Note_on_c, 0, 79, 80
2, 101756, Note_off_c, 0, 91, 100
2, 101756, Note_off_c, 0, 86, 100
2, 101756, Note_off_c, 0, 79, 100
2, 103296, Note_on_c, 0, 69, 80
2, 103296, Note_on_c, 0, 66, 80
2, 103676, Note_off_c, 0, 69, 100
2, 103676, Note_off_c, 0, 66, 100
2, 103680, Note_on_c, 0, 71, 80
2, 103680, Note_on_c, 0, 67, 80
2, 103868, Note_off_c, 0, 71, 100
2, 103868, Note_off_c, 0, 67, 100
2, 104064, Note_on_c, 0, 83, 80
2, 104064, Note_on_c, 0, 91, 80
2, 104252, Note_off_c, 0, 83, 100
2, 104252, Note_off_c, 0, 91, 100
2, 104256, Note_on_c, 0, 81, 80
2, 104256, Note_on_c, 0, 90, 80
2, 104444, Note_off_c, 0, 81, 100
2, 104444, Note_off_c, 0, 90, 100
2, 104448, Note_on_c, 0, 91, 80
2, 104448, Note_on_c, 0, 83, 80
2, 104828, Note_off_c, 0, 91, 100
2, 104828, Note_off_c, 0, 83, 100
2, 104832, Note_on_c, 0, 88, 80
2, 104832, Note_on_c, 0, 83, 80
2, 104832, Note_on_c, 0, 79, 80
2, 105212, Note_off_c, 0, 88, 100
2, 105212, Note_off_c, 0, 83, 100
2, 105212, Note_off_c, 0, 79, 100
2, 105216, Note_on_c, 0, 86, 80
2, 105216, Note_on_c, 0, 81, 80
2, 105216, Note_on_c, 0, 78, 80
2, 105596, Note_off_c, 0, 86, 100
2, 105596, Note_off_c, 0, 81, 100
2, 105596, Note_off_c, 0, 78, 100
2, 105600, Note_on_c, 0, 85, 80
2, 105600, Note_on_c, 0, 79, 80
2, 105600, Note_on_c, 0, 76, 80
2, 105980, Note_off_c, 0, 85, 100
2, 105980, Note_off_c, 0, 79, 100
2, 105980, Note_off_c, 0, 76, 100
2, 105984, Note_on_c, 0, 88, 80
2, 105984, Note_on_c, 0, 79, 80
2, 106364, Note_off_c, 0, 88, 100
2, 106364, Note_off_c, 0, 79, 100
2, 106368, Note_on_c, 0, 86, 80
2, 106368, Note_on_c, 0, 78, 80
2, 106748, Note_off_c, 0, 86, 100
2, 106748, Note_off_c, 0, 78, 100
2, 106752, Note_on_c, 0, 86, 80
2, 106752, Note_on_c, 0, 78, 80
2, 107132, Note_off_c, 0, 86, 100
2, 107132, Note_off_c, 0, 78, 100
2, 107136, Note_on_c, 0, 86, 80
2, 107136, Note_on_c, 0, 79, 80
2, 107324, Note_off_c, 0, 86, 100
2, 107324, Note_off_c, 0, 79, 100
2, 107328, Note_on_c, 0, 84, 80
2, 107328, Note_on_c, 0, 81, 80
2, 107516, Note_off_c, 0, 84, 100
2, 107516, Note_off_c, 0, 81, 100
2, 107520, Note_on_c, 0, 83, 80
2, 107900, Note_off_c, 0, 83, 100
2, 107904, Note_on_c, 0, 91, 80
2, 107904, Note_on_c, 0, 79, 80
2, 108284, Note_off_c, 0, 91, 100
2, 108288, Note_on_c, 0, 88, 80
2, 108476, Note_off_c, 0, 79, 100
2, 108476, Note_off_c, 0, 88, 100
2, 108672, Note_on_c, 0, 96, 80
2, 108672, Note_on_c, 0, 84, 80
2, 108860, Note_off_c, 0, 96, 100
2, 108860, Note_off_c, 0, 84, 100
2, 108864, Note_on_c, 0, 93, 80
2, 108864, Note_on_c, 0, 88, 80
2, 109052, Note_off_c, 0, 93, 100
2, 109052, Note_off_c, 0, 88, 100
2, 109056, Note_on_c, 0, 90, 80
2, 109436, Note_off_c, 0, 90, 100
2, 109440, Note_on_c, 0, 98, 80
2, 109440, Note_on_c, 0, 86, 80
2, 109820, Note_off_c, 0, 98, 100
2, 109824, Note_on_c, 0, 95, 80
2, 110012, Note_off_c, 0, 86, 100
2, 110012, Note_off_c, 0, 95, 100
2, 110208, Note_on_c, 0, 91, 80
2, 110396, Note_off_c, 0, 91, 100
2, 110400, Note_on_c, 0, 90, 80
2, 110588, Note_off_c, 0, 90, 100
2, 110592, Note_on_c, 0, 91, 80
2, 110972, Note_off_c, 0, 91, 100
2, 110976, Note_on_c, 0, 88, 80
2, 111356, Note_off_c, 0, 88, 100
2, 111360, Note_on_c, 0, 84, 80
2, 111740, Note_off_c, 0, 84, 100
2, 111744, Note_on_c, 0, 83, 80
2, 111744, Note_on_c, 0, 78, 80
2, 112124, Note_off_c, 0, 83, 100
2, 112124, Note_off_c, 0, 78, 100
2, 112128, Note_on_c, 0, 78, 80
2, 112128, Note_on_c, 0, 83, 80
2, 112508, Note_off_c, 0, 78, 100
2, 112512, Note_on_c, 0, 81, 80
2, 112700, Note_off_c, 0, 81, 100
2, 112704, Note_on_c, 0, 79, 80
2, 112892, Note_off_c, 0, 79, 100
2, 112896, Note_on_c, 0, 79, 80
2, 113276, Note_off_c, 0, 83, 100
2, 113276, Note_off_c, 0, 79, 100
2, 113280, Note_on_c, 0, 79, 80
2, 113280, Note_on_c, 0, 82, 80
2, 113280, Note_on_c, 0, 88, 80
2, 113660, Note_off_c, 0, 82, 100
2, 113660, Note_off_c, 0, 88, 100
2, 113664, Note_on_c, 0, 81, 80
2, 114044, Note_off_c, 0, 79, 100
2, 114048, Note_on_c, 0, 79, 80
2, 114236, Note_off_c, 0, 79, 100
2, 114240, Note_on_c, 0, 77, 80
2, 114428, Note_off_c, 0, 77, 100
2, 114432, Note_on_c, 0, 77, 80
2, 114812, Note_off_c, 0, 81, 100
2, 114812, Note_off_c, 0, 77, 100
2, 114816, Note_on_c, 0, 86, 80
2, 114816, Note_on_c, 0, 80, 80
2, 114816, Note_on_c, 0, 77, 80
2, 115196, Note_off_c, 0, 86, 100
2, 115196, Note_off_c, 0, 80, 100
2, 115200, Note_on_c, 0, 79, 80
2, 115580, Note_off_c, 0, 77, 100
2, 115584, Note_on_c, 0, 77, 80
2, 115772, Note_off_c, 0, 77, 100
2, 115776, Note_on_c, 0, 76, 80
2, 115964, Note_off_c, 0, 76, 100
2, 115968, Note_on_c, 0, 76, 80
2, 116348, Note_off_c, 0, 79, 100
2, 116348, Note_off_c, 0, 76, 100
2, 116352, Note_on_c, 0, 76, 80
2, 116352, Note_on_c, 0, 79, 80
2, 116352, Note_on_c, 0, 85, 80
2, 116732, Note_off_c, 0, 79, 100
2, 116732, Note_off_c, 0, 85, 100
2, 116736, Note_on_c, 0, 78, 80
2, 117116, Note_off_c, 0, 76, 100
2, 117120, Note_on_c, 0, 76, 80
2, 117308, Note_off_c, 0, 76, 100
2, 117312, Note_on_c, 0, 75, 80
2, 117500, Note_off_c, 0, 75, 100
2, 117504, Note_on_c, 0, 74, 80
2, 117884, Note_off_c, 0, 78, 100
2, 117884, Note_off_c, 0, 74, 100
2, 117888, Note_on_c, 0, 83, 80
2, 117888, Note_on_c, 0, 74, 80
2, 117888, Note_on_c, 0, 77, 80
2, 118268, Note_off_c, 0, 83, 100
2, 118268, Note_off_c, 0, 77, 100
2, 118272, Note_on_c, 0, 77, 80
2, 118460, Note_off_c, 0, 77, 100
2, 118464, Note_on_c, 0, 76, 80
2, 118652, Note_off_c, 0, 74, 100
2, 118656, Note_on_c, 0, 73, 80
2, 118844, Note_off_c, 0, 76, 100
2, 118848, Note_on_c, 0, 81, 80
2, 119036, Note_off_c, 0, 73, 100
2, 119036, Note_off_c, 0, 81, 100
2, 119040, Note_on_c, 0, 75, 80
2, 119040, Note_on_c, 0, 72, 80
2, 119228, Note_off_c, 0, 75, 100
2, 119232, Note_on_c, 0, 74, 80
2, 119420, Note_off_c, 0, 72, 100
2, 119424, Note_on_c, 0, 71, 80
2, 119612, Note_off_c, 0, 74, 100
2, 119616, Note_on_c, 0, 79, 80
2, 119804, Note_off_c, 0, 71, 100
2, 119804, Note_off_c, 0, 79, 100
2, 119808, Note_on_c, 0, 74, 80
2, 119996, Note_off_c, 0, 74, 100
2, 120000, Note_on_c, 0, 86, 81
2, 120188, Note_off_c, 0, 86, 100
2, 120192, Note_on_c, 0, 85, 82
2, 120380, Note_off_c, 0, 85, 100
2, 120384, Note_on_c, 0, 84, 84
2, 120572, Note_off_c, 0, 84, 100
2, 120576, Note_on_c, 0, 81, 85
2, 120764, Note_off_c, 0, 81, 100
2, 120768, Note_on_c, 0, 78, 86
2, 120956, Note_off_c, 0, 78, 100
2, 120960, Note_on_c, 0, 75, 88
2, 121148, Note_off_c, 0, 75, 100
2, 121152, Note_on_c, 0, 74, 89
2, 121340, Note_off_c, 0, 74, 100
2, 121344, Note_on_c, 0, 73, 90
2, 121532, Note_off_c, 0, 73, 100
2, 121536, Note_on_c, 0, 72, 92
2, 121724, Note_off_c, 0, 72, 100
2, 121728, Note_on_c, 0, 69, 93
2, 121916, Note_off_c, 0, 69, 100
2, 121920, Note_on_c, 0, 66, 94
2, 122088, Note_on_c, 0, 67, 80
2, 122108, Note_off_c, 0, 66, 100
2, 122112, Note_on_c, 0, 63, 80
2, 122300, Note_off_c, 0, 63, 100
2, 122304, Note_on_c, 0, 62, 80
2, 122468, Note_off_c, 0, 67, 100
2, 122492, Note_off_c, 0, 62, 100
2, 122496, Note_on_c, 0, 76, 80
2, 122496, Note_on_c, 0, 67, 80
2, 122684, Note_off_c, 0, 76, 100
2, 122688, Note_on_c, 0, 74, 80
2, 122876, Note_off_c, 0, 67, 100
2, 122876, Note_off_c, 0, 74, 100
2, 122880, Note_on_c, 0, 74, 80
2, 123068, Note_off_c, 0, 74, 100
2, 123072, Note_on_c, 0, 86, 81
2, 123260, Note_off_c, 0, 86, 100
2, 123264, Note_on_c, 0, 85, 82
2, 123452, Note_off_c, 0, 85, 100
2, 123456, Note_on_c, 0, 84, 84
2, 123644, Note_off_c, 0, 84, 100
2, 123648, Note_on_c, 0, 81, 85
2, 123836, Note_off_c, 0, 81, 100
2, 123840, Note_on_c, 0, 78, 86
2, 124028, Note_off_c, 0, 78, 100
2, 124032, Note_on_c, 0, 75, 88
2, 124220, Note_off_c, 0, 75, 100
2, 124224, Note_on_c, 0, 74, 89
2, 124412, Note_off_c, 0, 74, 100
2, 124416, Note_on_c, 0, 73, 90
2, 124604, Note_off_c, 0, 73, 100
2, 124608, Note_on_c, 0, 72, 92
2, 124796, Note_off_c, 0, 72, 100
2, 124800, Note_on_c, 0, 69, 93
2, 124988, Note_off_c, 0, 69, 100
2, 124992, Note_on_c, 0, 66, 94
2, 125160, Note_on_c, 0, 67, 80
2, 125180, Note_off_c, 0, 66, 100
2, 125184, Note_on_c, 0, 63, 80
2, 125372, Note_off_c, 0, 63, 100
2, 125376, Note_on_c, 0, 62, 80
2, 125540, Note_off_c, 0, 67, 100
2, 125564, Note_off_c, 0, 62, 100
2, 125568, Note_on_c, 0, 76, 80
2, 125568, Note_on_c, 0, 67, 80
2, 125756, Note_off_c, 0, 76, 100
2, 125760, Note_on_c, 0, 74, 80
2, 125948, Note_off_c, 0, 67, 100
2, 125948, Note_off_c, 0, 74, 100
2, 125952, Note_on_c, 0, 74, 80
2, 126140, Note_off_c, 0, 74, 100
2, 126144, Note_on_c, 0, 79, 80
2, 126144, Note_on_c, 0, 71, 80
2, 126332, Note_off_c, 0, 79, 100
2, 126332, Note_off_c, 0, 71, 100
2, 126336, Note_on_c, 0, 83, 80
2, 126336, Note_on_c, 0, 74, 80
2, 126524, Note_off_c, 0, 83, 100
2, 126524, Note_off_c, 0, 74, 100
2, 126528, Note_on_c, 0, 81, 80
2, 126528, Note_on_c, 0, 72, 80
2, 126716, Note_off_c, 0, 81, 100
2, 126716, Note_off_c, 0, 72, 100
2, 126720, Note_on_c, 0, 71, 80
2, 126720, Note_on_c, 0, 79, 80
2, 126908, Note_off_c, 0, 71, 100
2, 126912, Note_on_c, 0, 75, 80
2, 127100, Note_off_c, 0, 75, 100
2, 127104, Note_on_c, 0, 76, 80
2, 127292, Note_off_c, 0, 76, 100
2, 127296, Note_on_c, 0, 71, 80
2, 127484, Note_off_c, 0, 71, 100
2, 127488, Note_on_c, 0, 70, 80
2, 127676, Note_off_c, 0, 70, 100
2, 127680, Note_on_c, 0, 75, 80
2, 127868, Note_off_c, 0, 75, 100
2, 127872, Note_on_c, 0, 76, 80
2, 128060, Note_off_c, 0, 76, 100
2, 128064, Note_on_c, 0, 70, 80
2, 128252, Note_off_c, 0, 79, 100
2, 128252, Note_off_c, 0, 70, 100
2, 128256, Note_on_c, 0, 78, 80
2, 128256, Note_on_c, 0, 69, 80
2, 128444, Note_off_c, 0, 69, 100
2, 128448, Note_on_c, 0, 73, 80
2, 128636, Note_off_c, 0, 78, 100
2, 128636, Note_off_c, 0, 73, 100
2, 128640, Note_on_c, 0, 74, 80
2, 128832, Note_on_c, 0, 86, 80
2, 129020, Note_off_c, 0, 74, 100
2, 129020, Note_off_c, 0, 86, 100
2, 129024, Note_on_c, 0, 86, 80
2, 129212, Note_off_c, 0, 86, 100
2, 129216, Note_on_c, 0, 98, 81
2, 129404, Note_off_c, 0, 98, 100
2, 129408, Note_on_c, 0, 97, 82
2, 129596, Note_off_c, 0, 97, 100
2, 129600, Note_on_c, 0, 96, 84
2, 129788, Note_off_c, 0, 96, 100
2, 129792, Note_on_c, 0, 93, 85
2, 129980, Note_off_c, 0, 93, 100
2, 129984, Note_on_c, 0, 90, 86
2, 130172, Note_off_c, 0, 90, 100
2, 130176, Note_on_c, 0, 87, 88
2, 130364, Note_off_c, 0, 87, 100
2, 130368, Note_on_c, 0, 86, 89
2, 130556, Note_off_c, 0, 86, 100
2, 130560, Note_on_c, 0, 85, 90
2, 130748, Note_off_c, 0, 85, 100
2, 130752, Note_on_c, 0, 84, 92
2, 130940, Note_off_c, 0, 84, 100
2, 130944, Note_on_c, 0, 81, 93
2, 131132, Note_off_c, 0, 81, 100
2, 131136, Note_on_c, 0, 78, 94
2, 131304, Note_on_c, 0, 79, 80
2, 131324, Note_off_c, 0, 78, 100
2, 131328, Note_on_c, 0, 75, 80
2, 131516, Note_off_c, 0, 75, 100
2, 131520, Note_on_c, 0, 74, 80
2, 131684, Note_off_c, 0, 79, 100
2, 131708, Note_off_c, 0, 74, 100
2, 131712, Note_on_c, 0, 88, 80
2, 131712, Note_on_c, 0, 79, 80
2, 131900, Note_off_c, 0, 88, 100
2, 131904, Note_on_c, 0, 86, 80
2, 132092, Note_off_c, 0, 79, 100
2, 132092, Note_off_c, 0, 86, 100
2, 132096, Note_on_c, 0, 86, 80
2, 132284, Note_off_c, 0, 86, 100
2, 132288, Note_on_c, 0, 98, 81
2, 132476, Note_off_c, 0, 98, 100
2, 132480, Note_on_c, 0, 97, 82
2, 132668, Note_off_c, 0, 97, 100
2, 132672, Note_on_c, 0, 96, 84
2, 132860, Note_off_c, 0, 96, 100
2, 132864, Note_on_c, 0, 93, 85
2, 133052, Note_off_c, 0, 93, 100
2, 133056, Note_on_c, 0, 90, 86
2, 133244, Note_off_c, 0, 90, 100
2, 133248, Note_on_c, 0, 87, 88
2, 133436, Note_off_c, 0, 87, 100
2, 133440, Note_on_c, 0, 86, 89
2, 133628, Note_off_c, 0, 86, 100
2, 133632, Note_on_c, 0, 85, 90
2, 133820, Note_off_c, 0, 85, 100
2, 133824, Note_on_c, 0, 84, 92
2, 134012, Note_off_c, 0, 84, 100
2, 134016, Note_on_c, 0, 81, 93
2, 134204, Note_off_c, 0, 81, 100
2, 134208, Note_on_c, 0, 78, 94
2, 134376, Note_on_c, 0, 79, 80
2, 134396, Note_off_c, 0, 78, 100
2, 134400, Note_on_c, 0, 75, 80
2, 134588, Note_off_c, 0, 75, 100
2, 134592, Note_on_c, 0, 74, 80
2, 134756, Note_off_c, 0, 79, 100
2, 134780, Note_off_c, 0, 74, 100
2, 134784, Note_on_c, 0, 88, 80
2, 134784, Note_on_c, 0, 79, 80
2, 134972, Note_off_c, 0, 88, 100
2, 134976, Note_on_c, 0, 86, 80
2, 135164, Note_off_c, 0, 79, 100
2, 135164, Note_off_c, 0, 86, 100
2, 135168, Note_on_c, 0, 86, 80
2, 135356, Note_off_c, 0, 86, 100
2, 135360, Note_on_c, 0, 79, 80
2, 135360, Note_on_c, 0, 71, 80
2, 135548, Note_off_c, 0, 79, 100
2, 135548, Note_off_c, 0, 71, 100
2, 135552, Note_on_c, 0, 83, 80
2, 135552, Note_on_c, 0, 74, 80
2, 135740, Note_off_c, 0, 83, 100
2, 135740, Note_off_c, 0, 74, 100
2, 135744, Note_on_c, 0, 81, 80
2, 135744, Note_on_c, 0, 72, 80
2, 135932, Note_off_c, 0, 81, 100
2, 135932, Note_off_c, 0, 72, 100
2, 135936, Note_on_c, 0, 79, 80
2, 135936, Note_on_c, 0, 71, 80
2, 136124, Note_off_c, 0, 71, 100
2, 136128, Note_on_c, 0, 75, 80
2, 136316, Note_off_c, 0, 75, 100
2, 136320, Note_on_c, 0, 76, 80
2, 136508, Note_off_c, 0, 76, 100
2, 136512, Note_on_c, 0, 71, 80
2, 136700, Note_off_c, 0, 71, 100
2, 136704, Note_on_c, 0, 70, 80
2, 136892, Note_off_c, 0, 70, 100
2, 136896, Note_on_c, 0, 75, 80
2, 137084, Note_off_c, 0, 75, 100
2, 137088, Note_on_c, 0, 76, 80
2, 137276, Note_off_c, 0, 76, 100
2, 137280, Note_on_c, 0, 70, 80
2, 137468, Note_off_c, 0, 79, 100
2, 137468, Note_off_c, 0, 70, 100
2, 137472, Note_on_c, 0, 69, 80
2, 137472, Note_on_c, 0, 78, 80
2, 137660, Note_off_c, 0, 69, 100
2, 137664, Note_on_c, 0, 74, 80
2, 137852, Note_off_c, 0, 78, 100
2, 137852, Note_off_c, 0, 74, 100
2, 137856, Note_on_c, 0, 67, 80
2, 137856, Note_on_c, 0, 79, 80
2, 138044, Note_off_c, 0, 67, 100
2, 138048, Note_on_c, 0, 72, 80
2, 138236, Note_off_c, 0, 79, 100
2, 138236, Note_off_c, 0, 72, 100
2, 138240, Note_on_c, 0, 79, 80
2, 138428, Note_off_c, 0, 79, 100
2, 138432, Note_on_c, 0, 84, 80
2, 138432, Note_on_c, 0, 76, 80
2, 138620, Note_off_c, 0, 84, 100
2, 138620, Note_off_c, 0, 76, 100
2, 138624, Note_on_c, 0, 88, 81
2, 138624, Note_on_c, 0, 79, 81
2, 138812, Note_off_c, 0, 88, 100
2, 138812, Note_off_c, 0, 79, 100
2, 138816, Note_on_c, 0, 86, 82
2, 138816, Note_on_c, 0, 77, 82
2, 139004, Note_off_c, 0, 86, 100
2, 139004, Note_off_c, 0, 77, 100
2, 139008, Note_on_c, 0, 84, 83
2, 139008, Note_on_c, 0, 76, 83
2, 139196, Note_off_c, 0, 76, 100
2, 139200, Note_on_c, 0, 80, 84
2, 139388, Note_off_c, 0, 80, 100
2, 139392, Note_on_c, 0, 81, 85
2, 139580, Note_off_c, 0, 81, 100
2, 139584, Note_on_c, 0, 76, 86
2, 139772, Note_off_c, 0, 76, 100
2, 139776, Note_on_c, 0, 75, 87
2, 139964, Note_off_c, 0, 75, 100
2, 139968, Note_on_c, 0, 80, 88
2, 140156, Note_off_c, 0, 80, 100
2, 140160, Note_on_c, 0, 81, 89
2, 140348, Note_off_c, 0, 81, 100
2, 140352, Note_on_c, 0, 76, 90
2, 140540, Note_off_c, 0, 84, 100
2, 140540, Note_off_c, 0, 76, 100
2, 140544, Note_on_c, 0, 74, 91
2, 140544, Note_on_c, 0, 83, 91
2, 140732, Note_off_c, 0, 74, 100
2, 140736, Note_on_c, 0, 79, 92
2, 140924, Note_off_c, 0, 83, 100
2, 140924, Note_off_c, 0, 79, 100
2, 140928, Note_on_c, 0, 72, 93
2, 140928, Note_on_c, 0, 84, 93
2, 141116, Note_off_c, 0, 72, 100
2, 141120, Note_on_c, 0, 77, 94
2, 141308, Note_off_c, 0, 84, 100
2, 141308, Note_off_c, 0, 77, 100
2, 141312, Note_on_c, 0, 84, 94
2, 141500, Note_off_c, 0, 84, 100
2, 141504, Note_on_c, 0, 89, 95
2, 141504, Note_on_c, 0, 81, 95
2, 141692, Note_off_c, 0, 89, 100
2, 141692, Note_off_c, 0, 81, 100
2, 141696, Note_on_c, 0, 93, 96
2, 141696, Note_on_c, 0, 84, 96
2, 141884, Note_off_c, 0, 93, 100
2, 141884, Note_off_c, 0, 84, 100
2, 141888, Note_on_c, 0, 91, 97
2, 141888, Note_on_c, 0, 82, 97
2, 142076, Note_off_c, 0, 91, 100
2, 142076, Note_off_c, 0, 82, 100
2, 142080, Note_on_c, 0, 89, 98
2, 142080, Note_on_c, 0, 80, 98
2, 142268, Note_off_c, 0, 80, 100
2, 142272, Note_on_c, 0, 77, 99
2, 142460, Note_off_c, 0, 77, 100
2, 142464, Note_on_c, 0, 80, 100
2, 142652, Note_off_c, 0, 80, 100
2, 142656, Note_on_c, 0, 79, 101
2, 142844, Note_off_c, 0, 79, 100
2, 142848, Note_on_c, 0, 80, 102
2, 143036, Note_off_c, 0, 80, 100
2, 143040, Note_on_c, 0, 85, 103
2, 143228, Note_off_c, 0, 85, 100
2, 143232, Note_on_c, 0, 86, 104
2, 143420, Note_off_c, 0, 86, 100
2, 143424, Note_on_c, 0, 80, 105
2, 143612, Note_off_c, 0, 89, 100
2, 143612, Note_off_c, 0, 80, 100
2, 143616, Note_on_c, 0, 88, 106
2, 143616, Note_on_c, 0, 79, 106
2, 143804, Note_off_c, 0, 79, 100
2, 143808, Note_on_c, 0, 83, 107
2, 143996, Note_off_c, 0, 83, 100
2, 144000, Note_on_c, 0, 84, 108
2, 144188, Note_off_c, 0, 84, 100
2, 144192, Note_on_c, 0, 79, 109
2, 144380, Note_off_c, 0, 79, 100
2, 144384, Note_on_c, 0, 84, 109
2, 144764, Note_off_c, 0, 88, 100
2, 144764, Note_off_c, 0, 84, 100
2, 144768, Note_on_c, 0, 88, 120
2, 144768, Note_on_c, 0, 84, 120
2, 144768, Note_on_c, 0, 79, 120
2, 144768, Note_on_c, 0, 76, 120
2, 145148, Note_off_c, 0, 88, 100
2, 145148, Note_off_c, 0, 84, 100
2, 145148, Note_off_c, 0, 79, 100
2, 145148, Note_off_c, 0, 76, 100
2, 145152, Note_on_c, 0, 86, 120
2, 145152, Note_on_c, 0, 83, 120
2, 145532, Note_off_c, 0, 86, 100
2, 145532, Note_off_c, 0, 83, 100
2, 145536, Note_on_c, 0, 88, 120
2, 145536, Note_on_c, 0, 84, 120
2, 145724, Note_off_c, 0, 88, 100
2, 145724, Note_off_c, 0, 84, 100
2, 145728, Note_on_c, 0, 89, 120
2, 145728, Note_on_c, 0, 86, 120
2, 145916, Note_off_c, 0, 89, 100
2, 145916, Note_off_c, 0, 86, 100
2, 145920, Note_on_c, 0, 91, 120
2, 145920, Note_on_c, 0, 88, 120
2, 146300, Note_off_c, 0, 91, 100
2, 146300, Note_off_c, 0, 88, 100
2, 146304, Note_on_c, 0, 88, 120
2, 146304, Note_on_c, 0, 84, 120
2, 146684, Note_off_c, 0, 88, 100
2, 146684, Note_off_c, 0, 84, 100
2, 147840, Note_on_c, 0, 88, 120
2, 147840, Note_on_c, 0, 84, 120
2, 147840, Note_on_c, 0, 79, 120
2, 147840, Note_on_c, 0, 76, 120
2, 148220, Note_off_c, 0, 88, 100
2, 148220, Note_off_c, 0, 84, 100
2, 148220, Note_off_c, 0, 79, 100
2, 148220, Note_off_c, 0, 76, 100
2, 148224, Note_on_c, 0, 86, 120
2, 148224, Note_on_c, 0, 83, 120
2, 148604, Note_off_c, 0, 86, 100
2, 148604, Note_off_c, 0, 83, 100
2, 148608, Note_on_c, 0, 88, 120
2, 148608, Note_on_c, 0, 84, 120
2, 148796, Note_off_c, 0, 88, 100
2, 148796, Note_off_c, 0, 84, 100
2, 148800, Note_on_c, 0, 89, 120
2, 148800, Note_on_c, 0, 86, 120
2, 148988, Note_off_c, 0, 89, 100
2, 148988, Note_off_c, 0, 86, 100
2, 148992, Note_on_c, 0, 91, 120
2, 148992, Note_on_c, 0, 88, 120
2, 149372, Note_off_c, 0, 91, 100
2, 149372, Note_off_c, 0, 88, 100
2, 149376, Note_on_c, 0, 91, 120
2, 149376, Note_on_c, 0, 88, 120
2, 149376, Note_on_c, 0, 81, 120
2, 149376, Note_on_c, 0, 79, 120
2, 149756, Note_off_c, 0, 91, 100
2, 149756, Note_off_c, 0, 88, 100
2, 149756, Note_off_c, 0, 81, 100
2, 149756, Note_off_c, 0, 79, 100
2, 150144, Note_on_c, 0, 88, 120
2, 150144, Note_on_c, 0, 85, 120
2, 150144, Note_on_c, 0, 79, 120
2, 150144, Note_on_c, 0, 91, 120
2, 150524, Note_off_c, 0, 88, 100
2, 150524, Note_off_c, 0, 85, 100
2, 150524, Note_off_c, 0, 79, 100
2, 150524, Note_off_c, 0, 91, 100
2, 150912, Note_on_c, 0, 91, 120
2, 150912, Note_on_c, 0, 86, 120
2, 150912, Note_on_c, 0, 83, 120
2, 150912, Note_on_c, 0, 79, 120
2, 151292, Note_off_c, 0, 91, 100
2, 151292, Note_off_c, 0, 86, 100
2, 151292, Note_off_c, 0, 83, 100
2, 151292, Note_off_c, 0, 79, 100
2, 151680, Note_on_c, 0, 91, 120
2, 151680, Note_on_c, 0, 85, 120
2, 151680, Note_on_c, 0, 81, 120
2, 151680, Note_on_c, 0, 79, 120
2, 152060, Note_off_c, 0, 91, 100
2, 152060, Note_off_c, 0, 85, 100
2, 152060, Note_off_c, 0, 81, 100
2, 152060, Note_off_c, 0, 79, 100
2, 152064, Note_on_c, 0, 86, 120
2, 152064, Note_on_c, 0, 83, 120
2, 152064, Note_on_c, 0, 79, 120
2, 152064, Note_on_c, 0, 91, 120
2, 152828, Note_off_c, 0, 86, 100
2, 152828, Note_off_c, 0, 83, 100
2, 152828, Note_off_c, 0, 79, 100
2, 152828, Note_off_c, 0, 91, 100
2, 152832, Note_on_c, 0, 86, 113
2, 152832, Note_on_c, 0, 83, 113
2, 152832, Note_on_c, 0, 79, 113
2, 153980, Note_off_c, 0, 79, 100
2, 153980, Note_off_c, 0, 83, 100
2, 153980, Note_off_c, 0, 86, 100
2, 153984, Note_on_c, 0, 83, 102
2, 153984, Note_on_c, 0, 79, 102
2, 153984, Note_on_c, 0, 74, 102
2, 154364, Note_off_c, 0, 83, 100
2, 154364, Note_off_c, 0, 79, 100
2, 154364, Note_off_c, 0, 74, 100
2, 154368, Note_on_c, 0, 74, 100
2, 154556, Note_off_c, 0, 74, 100
2, 154560, Note_on_c, 0, 78, 100
2, 154748, Note_off_c, 0, 78, 100
2, 154752, Note_on_c, 0, 79, 101
2, 154940, Note_off_c, 0, 79, 100
2, 154944, Note_on_c, 0, 83, 101
2, 155132, Note_off_c, 0, 83, 100
2, 155136, Note_on_c, 0, 85, 102
2, 155324, Note_off_c, 0, 85, 100
2, 155328, Note_on_c, 0, 86, 103
2, 155516, Note_off_c, 0, 86, 100
2, 155520, Note_on_c, 0, 88, 103
2, 155708, Note_off_c, 0, 88, 100
2, 155712, Note_on_c, 0, 86, 104
2, 155900, Note_off_c, 0, 86, 100
2, 155904, Note_on_c, 0, 90, 104
2, 156092, Note_off_c, 0, 90, 100
2, 156096, Note_on_c, 0, 91, 105
2, 156284, Note_off_c, 0, 91, 100
2, 156288, Note_on_c, 0, 93, 106
2, 156476, Note_off_c, 0, 93, 100
2, 156480, Note_on_c, 0, 91, 106
2, 156668, Note_off_c, 0, 91, 100
2, 156672, Note_on_c, 0, 94, 107
2, 156860, Note_off_c, 0, 94, 100
2, 156864, Note_on_c, 0, 95, 108
2, 157052, Note_off_c, 0, 95, 100
2, 157056, Note_on_c, 0, 96, 108
2, 157244, Note_off_c, 0, 96, 100
2, 157248, Note_on_c, 0, 95, 109
2, 157436, Note_off_c, 0, 95, 100
2, 157440, Note_on_c, 0, 98, 110
2, 157820, Note_off_c, 0, 98, 100
2, 157824, Note_on_c, 0, 84, 80
2, 157824, Note_on_c, 0, 81, 80
2, 157824, Note_on_c, 0, 74, 80
2, 158204, Note_off_c, 0, 84, 100
2, 158204, Note_off_c, 0, 81, 100
2, 158204, Note_off_c, 0, 74, 100
2, 158208, Note_on_c, 0, 83, 80
2, 158208, Note_on_c, 0, 79, 80
2, 158208, Note_on_c, 0, 74, 80
2, 159740, Note_off_c, 0, 83, 100
2, 159740, Note_off_c, 0, 79, 100
2, 159740, Note_off_c, 0, 74, 100
2, 159744, Note_on_c, 0, 84, 80
2, 159744, Note_on_c, 0, 79, 80
2, 160508, Note_off_c, 0, 84, 100
2, 160508, Note_off_c, 0, 79, 100
2, 160512, Note_on_c, 0, 87, 80
2, 160512, Note_on_c, 0, 84, 80
2, 160512, Note_on_c, 0, 79, 80
2, 161276, Note_off_c, 0, 87, 100
2, 161276, Note_off_c, 0, 84, 100
2, 161276, Note_off_c, 0, 79, 100
2, 161280, Note_on_c, 0, 91, 80
2, 161280, Note_on_c, 0, 79, 80
2, 161280, Note_on_c, 0, 86, 80
2, 162044, Note_off_c, 0, 86, 100
2, 162048, Note_on_c, 0, 83, 80
2, 162812, Note_off_c, 0, 91, 100
2, 162812, Note_off_c, 0, 79, 100
2, 162812, Note_off_c, 0, 83, 100
2, 162816, Note_on_c, 0, 87, 80
2, 162816, Note_on_c, 0, 84, 80
2, 162816, Note_on_c, 0, 79, 80
2, 163580, Note_off_c, 0, 87, 100
2, 163580, Note_off_c, 0, 84, 100
2, 163580, Note_off_c, 0, 79, 100
2, 163584, Note_on_c, 0, 84, 80
2, 163584, Note_on_c, 0, 79, 80
2, 164348, Note_off_c, 0, 84, 100
2, 164348, Note_off_c, 0, 79, 100
2, 164352, Note_on_c, 0, 79, 80
2, 164352, Note_on_c, 0, 82, 80
2, 165116, Note_off_c, 0, 82, 100
2, 165120, Note_on_c, 0, 83, 80
2, 165884, Note_off_c, 0, 79, 100
2, 165884, Note_off_c, 0, 83, 100
2, 165888, Note_on_c, 0, 86, 80
2, 165888, Note_on_c, 0, 78, 80
2, 166652, Note_off_c, 0, 86, 100
2, 166652, Note_off_c, 0, 78, 100
2, 166656, Note_on_c, 0, 84, 80
2, 166656, Note_on_c, 0, 81, 80
2, 167040, Note_on_c, 0, 74, 80
2, 167228, Note_off_c, 0, 84, 100
2, 167228, Note_off_c, 0, 81, 100
2, 167232, Note_on_c, 0, 81, 80
2, 167232, Note_on_c, 0, 78, 80
2, 167420, Note_off_c, 0, 74, 100
2, 167420, Note_off_c, 0, 81, 100
2, 167420, Note_off_c, 0, 78, 100
2, 167424, Note_on_c, 0, 79, 80
2, 167424, Note_on_c, 0, 74, 80
2, 167424, Note_on_c, 0, 83, 80
2, 167520, Note_on_c, 0, 81, 80
2, 167612, Note_off_c, 0, 79, 100
2, 167616, Note_on_c, 0, 79, 80
2, 167708, Note_off_c, 0, 81, 100
2, 167712, Note_on_c, 0, 81, 80
2, 167804, Note_off_c, 0, 74, 100
2, 167804, Note_off_c, 0, 79, 100
2, 167808, Note_on_c, 0, 79, 81
2, 167900, Note_off_c, 0, 81, 100
2, 167904, Note_on_c, 0, 81, 81
2, 167996, Note_off_c, 0, 79, 100
2, 168000, Note_on_c, 0, 79, 81
2, 168092, Note_off_c, 0, 81, 100
2, 168096, Note_on_c, 0, 81, 82
2, 168188, Note_off_c, 0, 79, 100
2, 168192, Note_on_c, 0, 79, 82
2, 168284, Note_off_c, 0, 81, 100
2, 168288, Note_on_c, 0, 81, 82
2, 168380, Note_off_c, 0, 79, 100
2, 168384, Note_on_c, 0, 79, 83
2, 168476, Note_off_c, 0, 81, 100
2, 168480, Note_on_c, 0, 81, 83
2, 168572, Note_off_c, 0, 79, 100
2, 168576, Note_on_c, 0, 79, 83
2, 168668, Note_off_c, 0, 81, 100
2, 168672, Note_on_c, 0, 81, 84
2, 168764, Note_off_c, 0, 79, 100
2, 168768, Note_on_c, 0, 79, 84
2, 168860, Note_off_c, 0, 81, 100
2, 168864, Note_on_c, 0, 81, 84
2, 168956, Note_off_c, 0, 83, 100
2, 168956, Note_off_c, 0, 79, 100
2, 168960, Note_on_c, 0, 79, 84
2, 168960, Note_on_c, 0, 84, 84
2, 169052, Note_off_c, 0, 81, 100
2, 169056, Note_on_c, 0, 81, 85
2, 169148, Note_off_c, 0, 79, 100
2, 169152, Note_on_c, 0, 79, 85
2, 169244, Note_off_c, 0, 81, 100
2, 169248, Note_on_c, 0, 81, 85
2, 169340, Note_off_c, 0, 79, 100
2, 169344, Note_on_c, 0, 79, 86
2, 169436, Note_off_c, 0, 81, 100
2, 169440, Note_on_c, 0, 81, 86
2, 169532, Note_off_c, 0, 79, 100
2, 169536, Note_on_c, 0, 79, 86
2, 169628, Note_off_c, 0, 81, 100
2, 169632, Note_on_c, 0, 81, 87
2, 169724, Note_off_c, 0, 84, 100
2, 169724, Note_off_c, 0, 79, 100
2, 169728, Note_on_c, 0, 79, 87
2, 169728, Note_on_c, 0, 88, 87
2, 169820, Note_off_c, 0, 81, 100
2, 169824, Note_on_c, 0, 81, 87
2, 169916, Note_off_c, 0, 79, 100
2, 169920, Note_on_c, 0, 79, 88
2, 170012, Note_off_c, 0, 81, 100
2, 170016, Note_on_c, 0, 81, 88
2, 170108, Note_off_c, 0, 79, 100
2, 170112, Note_on_c, 0, 79, 88
2, 170204, Note_off_c, 0, 81, 100
2, 170208, Note_on_c, 0, 81, 89
2, 170300, Note_off_c, 0, 79, 100
2, 170304, Note_on_c, 0, 79, 89
2, 170396, Note_off_c, 0, 81, 100
2, 170400, Note_on_c, 0, 81, 89
2, 170492, Note_off_c, 0, 88, 100
2, 170492, Note_off_c, 0, 79, 100
2, 170496, Note_on_c, 0, 79, 89
2, 170496, Note_on_c, 0, 91, 89
2, 170588, Note_off_c, 0, 81, 100
2, 170592, Note_on_c, 0, 81, 90
2, 170684, Note_off_c, 0, 79, 100
2, 170688, Note_on_c, 0, 79, 90
2, 170780, Note_off_c, 0, 81, 100
2, 170784, Note_on_c, 0, 81, 90
2, 170876, Note_off_c, 0, 79, 100
2, 170880, Note_on_c, 0, 79, 91
2, 170972, Note_off_c, 0, 81, 100
2, 170976, Note_on_c, 0, 81, 91
2, 171068, Note_off_c, 0, 79, 100
2, 171072, Note_on_c, 0, 79, 91
2, 171164, Note_off_c, 0, 81, 100
2, 171168, Note_on_c, 0, 81, 92
2, 171260, Note_off_c, 0, 79, 100
2, 171264, Note_on_c, 0, 79, 92
2, 171356, Note_off_c, 0, 81, 100
2, 171360, Note_on_c, 0, 81, 92
2, 171452, Note_off_c, 0, 79, 100
2, 171456, Note_on_c, 0, 79, 93
2, 171548, Note_off_c, 0, 81, 100
2, 171552, Note_on_c, 0, 81, 93
2, 171644, Note_off_c, 0, 79, 100
2, 171648, Note_on_c, 0, 79, 93
2, 171740, Note_off_c, 0, 81, 100
2, 171744, Note_on_c, 0, 81, 94
2, 171836, Note_off_c, 0, 79, 100
2, 171840, Note_on_c, 0, 79, 94
2, 171932, Note_off_c, 0, 81, 100
2, 171936, Note_on_c, 0, 81, 94
2, 172028, Note_off_c, 0, 91, 100
2, 172028, Note_off_c, 0, 79, 100
2, 172032, Note_on_c, 0, 79, 94
2, 172032, Note_on_c, 0, 88, 94
2, 172124, Note_off_c, 0, 81, 100
2, 172128, Note_on_c, 0, 81, 95
2, 172220, Note_off_c, 0, 79, 100
2, 172224, Note_on_c, 0, 79, 95
2, 172316, Note_off_c, 0, 81, 100
2, 172320, Note_on_c, 0, 81, 95
2, 172412, Note_off_c, 0, 79, 100
2, 172416, Note_on_c, 0, 79, 96
2, 172508, Note_off_c, 0, 81, 100
2, 172512, Note_on_c, 0, 81, 96
2, 172604, Note_off_c, 0, 79, 100
2, 172608, Note_on_c, 0, 79, 96
2, 172700, Note_off_c, 0, 81, 100
2, 172704, Note_on_c, 0, 81, 97
2, 172796, Note_off_c, 0, 88, 100
2, 172796, Note_off_c, 0, 79, 100
2, 172800, Note_on_c, 0, 79, 97
2, 172800, Note_on_c, 0, 84, 97
2, 172892, Note_off_c, 0, 81, 100
2, 172896, Note_on_c, 0, 81, 97
2, 172988, Note_off_c, 0, 79, 100
2, 172992, Note_on_c, 0, 79, 98
2, 173084, Note_off_c, 0, 81, 100
2, 173088, Note_on_c, 0, 81, 98
2, 173180, Note_off_c, 0, 79, 100
2, 173184, Note_on_c, 0, 79, 98
2, 173276, Note_off_c, 0, 81, 100
2, 173280, Note_on_c, 0, 81, 99
2, 173372, Note_off_c, 0, 79, 100
2, 173376, Note_on_c, 0, 79, 99
2, 173468, Note_off_c, 0, 81, 100
2, 173472, Note_on_c, 0, 81, 99
2, 173564, Note_off_c, 0, 84, 100
2, 173564, Note_off_c, 0, 79, 100
2, 173568, Note_on_c, 0, 79, 99
2, 173568, Note_on_c, 0, 82, 99
2, 173660, Note_off_c, 0, 81, 100
2, 173664, Note_on_c, 0, 81, 100
2, 173756, Note_off_c, 0, 79, 100
2, 173760, Note_on_c, 0, 79, 100
2, 173852, Note_off_c, 0, 81, 100
2, 173856, Note_on_c, 0, 81, 100
2, 173948, Note_off_c, 0, 82, 100
2, 173948, Note_off_c, 0, 79, 100
2, 173952, Note_on_c, 0, 79, 101
2, 173952, Note_on_c, 0, 83, 101
2, 174044, Note_off_c, 0, 81, 100
2, 174048, Note_on_c, 0, 81, 101
2, 174140, Note_off_c, 0, 79, 100
2, 174144, Note_on_c, 0, 79, 101
2, 174236, Note_off_c, 0, 81, 100
2, 174240, Note_on_c, 0, 81, 102
2, 174332, Note_off_c, 0, 79, 100
2, 174336, Note_on_c, 0, 79, 102
2, 174428, Note_off_c, 0, 81, 100
2, 174432, Note_on_c, 0, 81, 102
2, 174524, Note_off_c, 0, 79, 100
2, 174528, Note_on_c, 0, 79, 103
2, 174620, Note_off_c, 0, 81, 100
2, 174624, Note_on_c, 0, 81, 103
2, 174716, Note_off_c, 0, 83, 100
2, 174716, Note_off_c, 0, 79, 100
2, 174720, Note_on_c, 0, 79, 103
2, 174720, Note_on_c, 0, 86, 103
2, 174812, Note_off_c, 0, 81, 100
2, 174816, Note_on_c, 0, 81, 104
2, 174908, Note_off_c, 0, 79, 100
2, 174912, Note_on_c, 0, 79, 104
2, 175004, Note_off_c, 0, 81, 100
2, 175008, Note_on_c, 0, 81, 104
2, 175100, Note_off_c, 0, 86, 100
2, 175100, Note_off_c, 0, 79, 100
2, 175104, Note_off_c, 0, 81, 100
2, 175104, Note_on_c, 0, 86, 104
2, 175200, Note_on_c, 0, 88, 105
2, 175292, Note_off_c, 0, 86, 100
2, 175296, Note_on_c, 0, 86, 105
2, 175388, Note_off_c, 0, 88, 100
2, 175392, Note_on_c, 0, 88, 105
2, 175484, Note_off_c, 0, 86, 100
2, 175488, Note_on_c, 0, 86, 106
2, 175488, Note_on_c, 0, 74, 106
2, 175580, Note_off_c, 0, 88, 100
2, 175584, Note_on_c, 0, 88, 106
2, 175676, Note_off_c, 0, 86, 100
2, 175680, Note_on_c, 0, 86, 106
2, 175772, Note_off_c, 0, 88, 100
2, 175776, Note_on_c, 0, 88, 107
2, 175868, Note_off_c, 0, 74, 100
2, 175868, Note_off_c, 0, 86, 100
2, 175872, Note_on_c, 0, 86, 107
2, 175964, Note_off_c, 0, 88, 100
2, 175968, Note_on_c, 0, 88, 107
2, 176060, Note_off_c, 0, 86, 100
2, 176064, Note_on_c, 0, 86, 108
2, 176156, Note_off_c, 0, 88, 100
2, 176160, Note_on_c, 0, 88, 108
2, 176252, Note_off_c, 0, 86, 100
2, 176256, Note_on_c, 0, 86, 108
2, 176348, Note_off_c, 0, 88, 100
2, 176352, Note_on_c, 0, 88, 109
2, 176444, Note_off_c, 0, 86, 100
2, 176448, Note_on_c, 0, 85, 109
2, 176540, Note_off_c, 0, 88, 100
2, 176544, Note_on_c, 0, 86, 109
2, 176636, Note_off_c, 0, 85, 100
2, 176640, Control_c, 0, 64, 127
2, 176640, Note_on_c, 0, 98, 120
2, 176640, Note_on_c, 0, 95, 120
2, 176640, Note_on_c, 0, 89, 120
2, 176640, Note_on_c, 0, 86, 120
2, 176732, Note_off_c, 0, 86, 100
2, 177020, Note_off_c, 0, 98, 100
2, 177020, Note_off_c, 0, 95, 100
2, 177020, Note_off_c, 0, 89, 100
2, 177020, Note_off_c, 0, 86, 100
2, 177024, Note_on_c, 0, 95, 120
2, 177024, Note_on_c, 0, 89, 120
2, 177024, Note_on_c, 0, 86, 120
2, 177024, Note_on_c, 0, 98, 120
2, 177788, Note_off_c, 0, 95, 100
2, 177788, Note_off_c, 0, 89, 100
2, 177788, Note_off_c, 0, 86, 100
2, 177788, Note_off_c, 0, 98, 100
2, 177792, Note_on_c, 0, 96, 120
2, 177792, Note_on_c, 0, 89, 120
2, 177792, Note_on_c, 0, 86, 120
2, 177792, Note_on_c, 0, 84, 120
2, 178172, Note_off_c, 0, 96, 100
2, 178172, Note_off_c, 0, 89, 100
2, 178172, Note_off_c, 0, 86, 100
2, 178172, Note_off_c, 0, 84, 100
2, 178176, Note_on_c, 0, 95, 120
2, 178176, Note_on_c, 0, 89, 120
2, 178176, Note_on_c, 0, 86, 120
2, 178176, Note_on_c, 0, 83, 120
2, 178556, Note_off_c, 0, 95, 100
2, 178556, Note_off_c, 0, 89, 100
2, 178556, Note_off_c, 0, 86, 100
2, 178556, Note_off_c, 0, 83, 100
2, 178560, Note_on_c, 0, 96, 120
2, 178560, Note_on_c, 0, 89, 120
2, 178560, Note_on_c, 0, 86, 120
2, 178560, Note_on_c, 0, 84, 120
2, 178940, Note_off_c, 0, 96, 100
2, 178940, Note_off_c, 0, 89, 100
2, 178940, Note_off_c, 0, 86, 100
2, 178940, Note_off_c, 0, 84, 100
2, 178944, Note_on_c, 0, 98, 120
2, 178944, Note_on_c, 0, 89, 120
2, 178944, Note_on_c, 0, 86, 120
2, 179320, Control_c, 0, 64, 0
2, 179324, Note_off_c, 0, 98, 100
2, 179324, Note_off_c, 0, 89, 100
2, 179324, Note_off_c, 0, 86, 100
2, 179328, Note_on_c, 0, 95, 80
2, 179328, Note_on_c, 0, 88, 80
2, 179328, Note_on_c, 0, 86, 80
2, 179328, Note_on_c, 0, 83, 80
2, 179708, Note_off_c, 0, 95, 100
2, 179708, Note_off_c, 0, 88, 100
2, 179708, Note_off_c, 0, 86, 100
2, 179708, Note_off_c, 0, 83, 100
2, 179712, Note_on_c, 0, 96, 80
2, 179712, Note_on_c, 0, 88, 80
2, 179712, Note_on_c, 0, 84, 80
2, 180092, Note_off_c, 0, 96, 100
2, 180092, Note_off_c, 0, 88, 100
2, 180092, Note_off_c, 0, 84, 100
2, 180096, Note_on_c, 0, 95, 80
2, 180096, Note_on_c, 0, 88, 80
2, 180096, Note_on_c, 0, 86, 80
2, 180096, Note_on_c, 0, 83, 80
2, 180476, Note_off_c, 0, 95, 100
2, 180476, Note_off_c, 0, 88, 100
2, 180476, Note_off_c, 0, 86, 100
2, 180476, Note_off_c, 0, 83, 100
2, 180480, Note_on_c, 0, 96, 80
2, 180480, Note_on_c, 0, 88, 80
2, 180480, Note_on_c, 0, 84, 80
2, 180860, Note_off_c, 0, 96, 100
2, 180860, Note_off_c, 0, 88, 100
2, 180860, Note_off_c, 0, 84, 100
2, 180864, Note_on_c, 0, 93, 80
2, 180864, Note_on_c, 0, 88, 80
2, 180864, Note_on_c, 0, 84, 80
2, 180864, Note_on_c, 0, 81, 80
2, 181244, Note_off_c, 0, 93, 100
2, 181244, Note_off_c, 0, 88, 100
2, 181244, Note_off_c, 0, 84, 100
2, 181244, Note_off_c, 0, 81, 100
2, 181248, Note_on_c, 0, 91, 80
2, 181248, Note_on_c, 0, 88, 80
2, 181248, Note_on_c, 0, 81, 80
2, 181628, Note_off_c, 0, 91, 100
2, 181628, Note_off_c, 0, 88, 100
2, 181628, Note_off_c, 0, 81, 100
2, 181632, Note_on_c, 0, 91, 80
2, 181632, Note_on_c, 0, 85, 80
2, 181632, Note_on_c, 0, 81, 80
2, 182012, Note_off_c, 0, 91, 100
2, 182012, Note_off_c, 0, 85, 100
2, 182012, Note_off_c, 0, 81, 100
2, 182016, Note_on_c, 0, 90, 80
2, 182016, Note_on_c, 0, 84, 80
2, 182016, Note_on_c, 0, 81, 80
2, 182396, Note_off_c, 0, 90, 100
2, 182396, Note_off_c, 0, 84, 100
2, 182396, Note_off_c, 0, 81, 100
2, 182400, Note_on_c, 0, 93, 80
2, 182400, Note_on_c, 0, 84, 80
2, 182400, Note_on_c, 0, 81, 80
2, 182780, Note_off_c, 0, 93, 100
2, 182780, Note_off_c, 0, 84, 100
2, 182780, Note_off_c, 0, 81, 100
2, 182784, Note_on_c, 0, 91, 80
2, 182784, Note_on_c, 0, 83, 80
2, 182784, Note_on_c, 0, 79, 80
2, 183164, Note_off_c, 0, 91, 100
2, 183164, Note_off_c, 0, 83, 100
2, 183164, Note_off_c, 0, 79, 100
2, 183168, Note_on_c, 0, 86, 83
2, 183168, Note_on_c, 0, 83, 83
2, 183168, Note_on_c, 0, 74, 83
2, 183548, Note_off_c, 0, 86, 100
2, 183548, Note_off_c, 0, 83, 100
2, 183548, Note_off_c, 0, 74, 100
2, 183552, Note_on_c, 0, 90, 87
2, 183552, Note_on_c, 0, 84, 87
2, 183552, Note_on_c, 0, 78, 87
2, 183932, Note_off_c, 0, 90, 100
2, 183932, Note_off_c, 0, 84, 100
2, 183932, Note_off_c, 0, 78, 100
2, 183936, Note_on_c, 0, 93, 91
2, 183936, Note_on_c, 0, 90, 91
2, 183936, Note_on_c, 0, 84, 91
2, 183936, Note_on_c, 0, 81, 91
2, 184316, Note_off_c, 0, 93, 100
2, 184316, Note_off_c, 0, 90, 100
2, 184316, Note_off_c, 0, 84, 100
2, 184316, Note_off_c, 0, 81, 100
2, 184320, Note_on_c, 0, 91, 95
2, 184320, Note_on_c, 0, 83, 95
2, 184320, Note_on_c, 0, 79, 95
2, 184700, Note_off_c, 0, 91, 100
2, 184700, Note_off_c, 0, 83, 100
2, 184700, Note_off_c, 0, 79, 100
2, 184704, Note_on_c, 0, 86, 99
2, 184704, Note_on_c, 0, 83, 99
2, 184704, Note_on_c, 0, 74, 99
2, 185084, Note_off_c, 0, 86, 100
2, 185084, Note_off_c, 0, 83, 100
2, 185084, Note_off_c, 0, 74, 100
2, 185088, Note_on_c, 0, 90, 103
2, 185088, Note_on_c, 0, 84, 103
2, 185088, Note_on_c, 0, 78, 103
2, 185468, Note_off_c, 0, 90, 100
2, 185468, Note_off_c, 0, 84, 100
2, 185468, Note_off_c, 0, 78, 100
2, 185472, Note_on_c, 0, 93, 107
2, 185472, Note_on_c, 0, 90, 107
2, 185472, Note_on_c, 0, 84, 107
2, 185472, Note_on_c, 0, 81, 107
2, 185852, Note_off_c, 0, 93, 100
2, 185852, Note_off_c, 0, 90, 100
2, 185852, Note_off_c, 0, 84, 100
2, 185852, Note_off_c, 0, 81, 100
2, 185856, Note_on_c, 0, 79, 110
2, 186044, Note_off_c, 0, 79, 100
2, 186048, Note_on_c, 0, 91, 110
2, 186236, Note_off_c, 0, 91, 100
2, 186240, Note_on_c, 0, 74, 110
2, 186428, Note_off_c, 0, 74, 100
2, 186432, Note_on_c, 0, 86, 110
2, 186620, Note_off_c, 0, 86, 100
2, 186624, Note_on_c, 0, 78, 110
2, 186812, Note_off_c, 0, 78, 100
2, 186816, Note_on_c, 0, 90, 110
2, 187004, Note_off_c, 0, 90, 100
2, 187008, Note_on_c, 0, 81, 110
2, 187196, Note_off_c, 0, 81, 100
2, 187200, Note_on_c, 0, 93, 110
2, 187388, Note_off_c, 0, 93, 100
2, 187392, Note_on_c, 0, 79, 110
2, 187580, Note_off_c, 0, 79, 100
2, 187584, Note_on_c, 0, 91, 110
2, 187772, Note_off_c, 0, 91, 100
2, 187776, Note_on_c, 0, 74, 110
2, 187964, Note_off_c, 0, 74, 100
2, 187968, Note_on_c, 0, 86, 110
2, 188156, Note_off_c, 0, 86, 100
2, 188160, Note_on_c, 0, 78, 110
2, 188348, Note_off_c, 0, 78, 100
2, 188352, Note_on_c, 0, 90, 110
2, 188540, Note_off_c, 0, 90, 100
2, 188544, Note_on_c, 0, 81, 110
2, 188732, Note_off_c, 0, 81, 100
2, 188736, Note_on_c, 0, 93, 110
2, 188924, Note_off_c, 0, 93, 100
2, 188928, Note_on_c, 0, 91, 120
2, 188928, Note_on_c, 0, 79, 120
2, 189308, Note_off_c, 0, 91, 100
2, 189308, Note_off_c, 0, 79, 100
2, 189696, Note_on_c, 0, 93, 120
2, 189696, Note_on_c, 0, 81, 120
2, 190076, Note_off_c, 0, 93, 100
2, 190076, Note_off_c, 0, 81, 100
2, 190464, Control_c, 0, 64, 127
2, 190464, Note_on_c, 0, 94, 120
2, 190464, Note_on_c, 0, 82, 120
2, 193532, Note_off_c, 0, 82, 100
2, 193532, Note_off_c, 0, 94, 100
2, 194880, Note_on_c, 0, 58, 80
2, 195068, Note_off_c, 0, 58, 100
2, 195072, Note_on_c, 0, 70, 80
2, 195644, Note_off_c, 0, 70, 100
2, 195648, Note_on_c, 0, 70, 80
2, 195836, Note_off_c, 0, 70, 100
2, 195840, Note_on_c, 0, 70, 80
2, 197752, Control_c, 0, 64, 0
2, 197760, Control_c, 0, 64, 127
2, 198140, Note_off_c, 0, 70, 100
2, 198720, Note_on_c, 0, 86, 120
2, 198720, Note_on_c, 0, 82, 120
2, 198720, Note_on_c, 0, 77, 120
2, 198720, Note_on_c, 0, 74, 120
2, 198908, Note_off_c, 0, 86, 100
2, 198908, Note_off_c, 0, 82, 100
2, 198908, Note_off_c, 0, 77, 100
2, 198908, Note_off_c, 0, 74, 100
2, 198912, Note_on_c, 0, 86, 120
2, 198912, Note_on_c, 0, 82, 120
2, 198912, Note_on_c, 0, 77, 120
2, 198912, Note_on_c, 0, 74, 120
2, 199292, Note_off_c, 0, 86, 100
2, 199292, Note_off_c, 0, 82, 100
2, 199292, Note_off_c, 0, 77, 100
2, 199292, Note_off_c, 0, 74, 100
2, 199296, Note_on_c, 0, 87, 120
2, 199296, Note_on_c, 0, 82, 120
2, 199296, Note_on_c, 0, 77, 120
2, 199296, Note_on_c, 0, 74, 120
2, 199484, Note_off_c, 0, 87, 100
2, 199484, Note_off_c, 0, 82, 100
2, 199484, Note_off_c, 0, 77, 100
2, 199484, Note_off_c, 0, 74, 100
2, 199488, Note_on_c, 0, 86, 120
2, 199488, Note_on_c, 0, 82, 120
2, 199488, Note_on_c, 0, 77, 120
2, 199488, Note_on_c, 0, 74, 120
2, 199676, Note_off_c, 0, 86, 100
2, 199676, Note_off_c, 0, 82, 100
2, 199676, Note_off_c, 0, 77, 100
2, 199676, Note_off_c, 0, 74, 100
2, 199680, Note_on_c, 0, 86, 120
2, 199680, Note_on_c, 0, 82, 120
2, 199680, Note_on_c, 0, 77, 120
2, 199680, Note_on_c, 0, 74, 120
2, 200060, Note_off_c, 0, 86, 100
2, 200060, Note_off_c, 0, 82, 100
2, 200060, Note_off_c, 0, 77, 100
2, 200060, Note_off_c, 0, 74, 100
2, 200064, Note_on_c, 0, 82, 120
2, 200064, Note_on_c, 0, 77, 120
2, 200064, Note_on_c, 0, 74, 120
2, 200064, Note_on_c, 0, 70, 120
2, 200444, Note_off_c, 0, 82, 100
2, 200444, Note_off_c, 0, 77, 100
2, 200444, Note_off_c, 0, 74, 100
2, 200444, Note_off_c, 0, 70, 100
2, 201792, Note_on_c, 0, 89, 120
2, 201792, Note_on_c, 0, 86, 120
2, 201792, Note_on_c, 0, 82, 120
2, 201792, Note_on_c, 0, 77, 120
2, 201980, Note_off_c, 0, 89, 100
2, 201980, Note_off_c, 0, 86, 100
2, 201980, Note_off_c, 0, 82, 100
2, 201980, Note_off_c, 0, 77, 100
2, 201984, Note_on_c, 0, 89, 120
2, 201984, Note_on_c, 0, 86, 120
2, 201984, Note_on_c, 0, 82, 120
2, 201984, Note_on_c, 0, 77, 120
2, 202364, Note_off_c, 0, 89, 100
2, 202364, Note_off_c, 0, 86, 100
2, 202364, Note_off_c, 0, 82, 100
2, 202364, Note_off_c, 0, 77, 100
2, 202368, Note_on_c, 0, 91, 120
2, 202368, Note_on_c, 0, 86, 120
2, 202368, Note_on_c, 0, 82, 120
2, 202368, Note_on_c, 0, 77, 120
2, 202556, Note_off_c, 0, 91, 100
2, 202556, Note_off_c, 0, 86, 100
2, 202556, Note_off_c, 0, 82, 100
2, 202556, Note_off_c, 0, 77, 100
2, 202560, Note_on_c, 0, 89, 120
2, 202560, Note_on_c, 0, 86, 120
2, 202560, Note_on_c, 0, 82, 120
2, 202560, Note_on_c, 0, 77, 120
2, 202748, Note_off_c, 0, 89, 100
2, 202748, Note_off_c, 0, 86, 100
2, 202748, Note_off_c, 0, 82, 100
2, 202748, Note_off_c, 0, 77, 100
2, 202752, Note_on_c, 0, 89, 120
2, 202752, Note_on_c, 0, 86, 120
2, 202752, Note_on_c, 0, 82, 120
2, 202752, Note_on_c, 0, 77, 120
2, 203132, Note_off_c, 0, 89, 100
2, 203132, Note_off_c, 0, 86, 100
2, 203132, Note_off_c, 0, 82, 100
2, 203132, Note_off_c, 0, 77, 100
2, 203136, Note_on_c, 0, 82, 120
2, 203136, Note_on_c, 0, 77, 120
2, 203136, Note_on_c, 0, 74, 120
2, 203136, Note_on_c, 0, 86, 120
2, 204284, Note_off_c, 0, 82, 100
2, 204284, Note_off_c, 0, 77, 100
2, 204284, Note_off_c, 0, 74, 100
2, 204284, Note_off_c, 0, 86, 100
2, 205048, Control_c, 0, 64, 0
2, 205440, Note_on_c, 0, 70, 80
2, 205628, Note_off_c, 0, 70, 100
2, 205632, Note_on_c, 0, 72, 80
2, 205820, Note_off_c, 0, 72, 100
2, 205824, Note_on_c, 0, 74, 80
2, 206208, Note_on_c, 0, 67, 80
2, 206588, Note_off_c, 0, 74, 100
2, 206588, Note_off_c, 0, 67, 100
2, 206592, Note_on_c, 0, 69, 80
2, 206592, Note_on_c, 0, 72, 80
2, 206972, Note_off_c, 0, 69, 100
2, 206972, Note_off_c, 0, 72, 100
2, 206976, Note_on_c, 0, 68, 80
2, 206976, Note_on_c, 0, 72, 80
2, 207164, Note_off_c, 0, 72, 100
2, 207168, Note_on_c, 0, 74, 80
2, 207356, Note_off_c, 0, 68, 100
2, 207356, Note_off_c, 0, 74, 100
2, 207360, Note_on_c, 0, 75, 80
2, 207360, Note_on_c, 0, 67, 80
2, 207740, Note_off_c, 0, 67, 100
2, 207744, Note_on_c, 0, 69, 80
2, 208124, Note_off_c, 0, 75, 100
2, 208124, Note_off_c, 0, 69, 100
2, 208128, Note_on_c, 0, 70, 80
2, 208128, Note_on_c, 0, 74, 80
2, 208508, Note_off_c, 0, 70, 100
2, 208508, Note_off_c, 0, 74, 100
2, 208512, Note_on_c, 0, 74, 80
2, 208512, Note_on_c, 0, 67, 80
2, 208700, Note_off_c, 0, 74, 100
2, 208704, Note_on_c, 0, 75, 80
2, 208892, Note_off_c, 0, 67, 100
2, 208892, Note_off_c, 0, 75, 100
2, 208896, Note_on_c, 0, 77, 80
2, 208896, Note_on_c, 0, 69, 80
2, 209276, Note_off_c, 0, 69, 100
2, 209280, Note_on_c, 0, 70, 80
2, 209468, Note_off_c, 0, 77, 100
2, 209472, Note_on_c, 0, 79, 80
2, 209660, Note_off_c, 0, 70, 100
2, 209660, Note_off_c, 0, 79, 100
2, 209664, Note_on_c, 0, 77, 80
2, 209664, Note_on_c, 0, 67, 80
2, 209852, Note_off_c, 0, 77, 100
2, 209856, Note_on_c, 0, 75, 80
2, 210044, Note_off_c, 0, 67, 100
2, 210048, Note_on_c, 0, 69, 80
2, 210236, Note_off_c, 0, 75, 100
2, 210240, Note_on_c, 0, 77, 80
2, 210428, Note_off_c, 0, 69, 100
2, 210428, Note_off_c, 0, 77, 100
2, 210432, Note_on_c, 0, 75, 80
2, 210432, Note_on_c, 0, 70, 80
2, 210432, Note_on_c, 0, 65, 80
2, 210620, Note_off_c, 0, 75, 100
2, 210624, Note_on_c, 0, 74, 80
2, 210812, Note_off_c, 0, 70, 100
2, 210812, Note_off_c, 0, 65, 100
2, 210812, Note_off_c, 0, 74, 100
2, 210816, Note_on_c, 0, 77, 80
2, 210816, Note_on_c, 0, 72, 80
2, 210816, Note_on_c, 0, 67, 80
2, 211004, Note_off_c, 0, 77, 100
2, 211008, Note_on_c, 0, 75, 80
2, 211196, Note_off_c, 0, 72, 100
2, 211196, Note_off_c, 0, 67, 100
2, 211196, Note_off_c, 0, 75, 100
2, 211200, Note_on_c, 0, 72, 80
2, 211200, Note_on_c, 0, 69, 80
2, 211964, Note_off_c, 0, 72, 100
2, 211964, Note_off_c, 0, 69, 100
2, 213120, Note_on_c, 0, 82, 80
2, 213308, Note_off_c, 0, 82, 100
2, 213312, Note_on_c, 0, 84, 80
2, 213500, Note_off_c, 0, 84, 100
2, 213504, Note_on_c, 0, 86, 80
2, 213888, Note_on_c, 0, 79, 80
2, 214268, Note_off_c, 0, 86, 100
2, 214268, Note_off_c, 0, 79, 100
2, 214272, Note_on_c, 0, 81, 80
2, 214272, Note_on_c, 0, 84, 80
2, 214652, Note_off_c, 0, 81, 100
2, 214652, Note_off_c, 0, 84, 100
2, 214656, Note_on_c, 0, 80, 80
2, 214656, Note_on_c, 0, 84, 80
2, 214844, Note_off_c, 0, 84, 100
2, 214848, Note_on_c, 0, 86, 80
2, 215036, Note_off_c, 0, 80, 100
2, 215036, Note_off_c, 0, 86, 100
2, 215040, Note_on_c, 0, 87, 80
2, 215040, Note_on_c, 0, 79, 80
2, 215420, Note_off_c, 0, 79, 100
2, 215424, Note_on_c, 0, 81, 80
2, 215804, Note_off_c, 0, 87, 100
2, 215804, Note_off_c, 0, 81, 100
2, 215808, Note_on_c, 0, 82, 80
2, 215808, Note_on_c, 0, 86, 80
2, 216188, Note_off_c, 0, 82, 100
2, 216188, Note_off_c, 0, 86, 100
2, 216192, Note_on_c, 0, 86, 80
2, 216192, Note_on_c, 0, 79, 80
2, 216380, Note_off_c, 0, 86, 100
2, 216384, Note_on_c, 0, 87, 80
2, 216572, Note_off_c, 0, 79, 100
2, 216572, Note_off_c, 0, 87, 100
2, 216576, Note_on_c, 0, 89, 80
2, 216576, Note_on_c, 0, 81, 80
2, 216956, Note_off_c, 0, 81, 100
2, 216960, Note_on_c, 0, 82, 81
2, 217148, Note_off_c, 0, 89, 100
2, 217152, Note_on_c, 0, 91, 82
2, 217340, Note_off_c, 0, 82, 100
2, 217340, Note_off_c, 0, 91, 100
2, 217344, Note_on_c, 0, 89, 83
2, 217344, Note_on_c, 0, 79, 83
2, 217532, Note_off_c, 0, 89, 100
2, 217536, Note_on_c, 0, 87, 83
2, 217724, Note_off_c, 0, 79, 100
2, 217728, Note_on_c, 0, 81, 84
2, 217916, Note_off_c, 0, 87, 100
2, 217920, Note_on_c, 0, 89, 85
2, 218108, Note_off_c, 0, 81, 100
2, 218108, Note_off_c, 0, 89, 100
2, 218112, Note_on_c, 0, 87, 86
2, 218112, Note_on_c, 0, 77, 86
2, 218300, Note_off_c, 0, 87, 100
2, 218304, Note_on_c, 0, 86, 86
2, 218492, Note_off_c, 0, 77, 100
2, 218496, Note_on_c, 0, 82, 87
2, 218684, Note_off_c, 0, 86, 100
2, 218688, Note_on_c, 0, 87, 88
2, 218876, Note_off_c, 0, 87, 100
2, 218880, Note_on_c, 0, 86, 89
2, 219068, Note_off_c, 0, 86, 100
2, 219072, Note_on_c, 0, 84, 89
2, 219260, Note_off_c, 0, 82, 100
2, 219260, Note_off_c, 0, 84, 100
2, 219264, Note_on_c, 0, 86, 90
2, 219264, Note_on_c, 0, 81, 90
2, 219264, Note_on_c, 0, 77, 90
2, 219452, Note_off_c, 0, 86, 100
2, 219456, Note_on_c, 0, 87, 91
2, 219644, Note_off_c, 0, 81, 100
2, 219644, Note_off_c, 0, 77, 100
2, 219644, Note_off_c, 0, 87, 100
2, 219648, Note_on_c, 0, 91, 92
2, 219648, Note_on_c, 0, 82, 92
2, 219648, Note_on_c, 0, 77, 92
2, 219836, Note_off_c, 0, 91, 100
2, 219840, Note_on_c, 0, 89, 93
2, 220028, Note_off_c, 0, 82, 100
2, 220028, Note_off_c, 0, 77, 100
2, 220028, Note_off_c, 0, 89, 100
2, 220032, Note_on_c, 0, 91, 93
2, 220032, Note_on_c, 0, 82, 93
2, 220220, Note_off_c, 0, 91, 100
2, 220224, Note_on_c, 0, 89, 94
2, 220412, Note_off_c, 0, 82, 100
2, 220412, Note_off_c, 0, 89, 100
2, 220416, Note_on_c, 0, 89, 95
2, 220416, Note_on_c, 0, 79, 95
2, 220604, Note_off_c, 0, 89, 100
2, 220608, Note_on_c, 0, 87, 96
2, 220796, Note_off_c, 0, 79, 100
2, 220796, Note_off_c, 0, 87, 100
2, 220800, Note_on_c, 0, 89, 96
2, 220800, Note_on_c, 0, 81, 96
2, 220988, Note_off_c, 0, 89, 100
2, 220992, Note_on_c, 0, 87, 97
2, 221180, Note_off_c, 0, 81, 100
2, 221180, Note_off_c, 0, 87, 100
2, 221184, Note_on_c, 0, 87, 98
2, 221184, Note_on_c, 0, 77, 98
2, 221372, Note_off_c, 0, 87, 100
2, 221376, Note_on_c, 0, 86, 99
2, 221564, Note_off_c, 0, 77, 100
2, 221564, Note_off_c, 0, 86, 100
2, 221568, Note_on_c, 0, 87, 99
2, 221568, Note_on_c, 0, 82, 99
2, 221756, Note_off_c, 0, 87, 100
2, 221760, Note_on_c, 0, 86, 100
2, 221948, Note_off_c, 0, 86, 100
2, 221952, Note_on_c, 0, 86, 101
2, 222140, Note_off_c, 0, 86, 100
2, 222144, Note_on_c, 0, 84, 102
2, 222332, Note_off_c, 0, 82, 100
2, 222332, Note_off_c, 0, 84, 100
2, 222336, Note_on_c, 0, 86, 103
2, 222336, Note_on_c, 0, 81, 103
2, 222336, Note_on_c, 0, 77, 103
2, 222524, Note_off_c, 0, 86, 100
2, 222528, Note_on_c, 0, 87, 103
2, 222716, Note_off_c, 0, 81, 100
2, 222716, Note_off_c, 0, 77, 100
2, 222716, Note_off_c, 0, 87, 100
2, 222720, Note_on_c, 0, 91, 104
2, 222720, Note_on_c, 0, 82, 104
2, 222720, Note_on_c, 0, 77, 104
2, 222908, Note_off_c, 0, 91, 100
2, 222912, Note_on_c, 0, 89, 105
2, 223100, Note_off_c, 0, 82, 100
2, 223100, Note_off_c, 0, 77, 100
2, 223100, Note_off_c, 0, 89, 100
2, 223104, Note_on_c, 0, 88, 106
2, 223104, Note_on_c, 0, 82, 106
2, 223296, Note_on_c, 0, 91, 106
2, 223484, Note_off_c, 0, 88, 100
2, 223484, Note_off_c, 0, 82, 100
2, 223488, Note_on_c, 0, 87, 107
2, 223676, Note_off_c, 0, 91, 100
2, 223680, Note_on_c, 0, 92, 108
2, 223868, Note_off_c, 0, 87, 100
2, 223872, Note_on_c, 0, 87, 109
2, 223872, Note_on_c, 0, 84, 109
2, 224060, Note_off_c, 0, 92, 100
2, 224064, Note_on_c, 0, 93, 109
2, 224252, Note_off_c, 0, 87, 100
2, 224252, Note_off_c, 0, 84, 100
2, 224252, Note_off_c, 0, 93, 100
2, 224256, Note_on_c, 0, 96, 110
2, 224256, Note_on_c, 0, 86, 110
2, 224256, Note_on_c, 0, 82, 110
2, 224444, Note_off_c, 0, 96, 100
2, 224448, Note_on_c, 0, 94, 110
2, 224636, Note_off_c, 0, 86, 100
2, 224636, Note_off_c, 0, 82, 100
2, 224636, Note_off_c, 0, 94, 100
2, 224640, Note_on_c, 0, 93, 110
2, 224640, Note_on_c, 0, 87, 110
2, 224640, Note_on_c, 0, 82, 110
2, 224828, Note_off_c, 0, 93, 100
2, 224832, Note_on_c, 0, 91, 110
2, 225020, Note_off_c, 0, 87, 100
2, 225020, Note_off_c, 0, 82, 100
2, 225020, Note_off_c, 0, 91, 100
2, 225024, Note_on_c, 0, 89, 110
2, 225024, Note_on_c, 0, 86, 110
2, 225024, Note_on_c, 0, 82, 110
2, 225404, Note_off_c, 0, 89, 100
2, 225404, Note_off_c, 0, 86, 100
2, 225404, Note_off_c, 0, 82, 100
2, 225408, Note_on_c, 0, 93, 110
2, 225408, Note_on_c, 0, 89, 110
2, 225408, Note_on_c, 0, 84, 110
2, 225408, Note_on_c, 0, 81, 110
2, 225788, Note_off_c, 0, 93, 100
2, 225788, Note_off_c, 0, 89, 100
2, 225788, Note_off_c, 0, 84, 100
2, 225788, Note_off_c, 0, 81, 100
2, 225792, Control_c, 0, 64, 127
2, 225792, Note_on_c, 0, 94, 110
2, 225792, Note_on_c, 0, 89, 110
2, 225792, Note_on_c, 0, 86, 110
2, 225792, Note_on_c, 0, 82, 110
2, 226556, Note_off_c, 0, 94, 100
2, 226556, Note_off_c, 0, 89, 100
2, 226556, Note_off_c, 0, 86, 100
2, 226556, Note_off_c, 0, 82, 100
2, 226560, Note_on_c, 0, 82, 110
2, 226560, Note_on_c, 0, 74, 110
2, 226560, Note_on_c, 0, 70, 110
2, 227320, Control_c, 0, 64, 0
2, 227324, Note_off_c, 0, 82, 100
2, 227324, Note_off_c, 0, 74, 100
2, 227324, Note_off_c, 0, 70, 100
2, 227328, Note_on_c, 0, 86, 80
2, 227328, Note_on_c, 0, 77, 80
2, 227328, Note_on_c, 0, 74, 80
2, 227708, Note_off_c, 0, 86, 100
2, 227708, Note_off_c, 0, 77, 100
2, 227708, Note_off_c, 0, 74, 100
2, 227712, Note_on_c, 0, 82, 80
2, 227712, Note_on_c, 0, 74, 80
2, 227712, Note_on_c, 0, 70, 80
2, 228092, Note_off_c, 0, 82, 100
2, 228092, Note_off_c, 0, 74, 100
2, 228092, Note_off_c, 0, 70, 100
2, 228096, Note_on_c, 0, 86, 80
2, 228096, Note_on_c, 0, 77, 80
2, 228096, Note_on_c, 0, 74, 80
2, 228476, Note_off_c, 0, 86, 100
2, 228476, Note_off_c, 0, 77, 100
2, 228476, Note_off_c, 0, 74, 100
2, 228480, Note_on_c, 0, 84, 80
2, 228480, Note_on_c, 0, 75, 80
2, 228480, Note_on_c, 0, 72, 80
2, 228860, Note_off_c, 0, 84, 100
2, 228860, Note_off_c, 0, 75, 100
2, 228860, Note_off_c, 0, 72, 100
2, 228864, Control_c, 0, 64, 127
2, 228864, Note_on_c, 0, 87, 110
2, 228864, Note_on_c, 0, 79, 110
2, 228864, Note_on_c, 0, 75, 110
2, 229628, Note_off_c, 0, 87, 100
2, 229628, Note_off_c, 0, 79, 100
2, 229628, Note_off_c, 0, 75, 100
2, 229632, Note_on_c, 0, 84, 110
2, 229632, Note_on_c, 0, 75, 110
2, 229632, Note_on_c, 0, 72, 110
2, 230392, Control_c, 0, 64, 0
2, 230396, Note_off_c, 0, 84, 100
2, 230396, Note_off_c, 0, 75, 100
2, 230396, Note_off_c, 0, 72, 100
2, 230400, Note_on_c, 0, 87, 80
2, 230400, Note_on_c, 0, 79, 80
2, 230400, Note_on_c, 0, 75, 80
2, 230780, Note_off_c, 0, 87, 100
2, 230780, Note_off_c, 0, 79, 100
2, 230780, Note_off_c, 0, 75, 100
2, 230784, Note_on_c, 0, 85, 80
2, 230784, Note_on_c, 0, 76, 80
2, 230784, Note_on_c, 0, 73, 80
2, 231164, Note_off_c, 0, 85, 100
2, 231164, Note_off_c, 0, 76, 100
2, 231164, Note_off_c, 0, 73, 100
2, 231168, Note_on_c, 0, 87, 80
2, 231168, Note_on_c, 0, 78, 80
2, 231168, Note_on_c, 0, 75, 80
2, 231548, Note_off_c, 0, 87, 100
2, 231548, Note_off_c, 0, 78, 100
2, 231548, Note_off_c, 0, 75, 100
2, 231552, Note_on_c, 0, 86, 80
2, 231552, Note_on_c, 0, 77, 80
2, 231552, Note_on_c, 0, 74, 80
2, 231932, Note_off_c, 0, 86, 100
2, 231932, Note_off_c, 0, 77, 100
2, 231932, Note_off_c, 0, 74, 100
2, 231936, Control_c, 0, 64, 127
2, 231936, Note_on_c, 0, 89, 110
2, 231936, Note_on_c, 0, 80, 110
2, 231936, Note_on_c, 0, 77, 110
2, 232700, Note_off_c, 0, 89, 100
2, 232700, Note_off_c, 0, 80, 100
2, 232700, Note_off_c, 0, 77, 100
2, 232704, Note_on_c, 0, 86, 110
2, 232704, Note_on_c, 0, 77, 110
2, 232704, Note_on_c, 0, 74, 110
2, 233464, Control_c, 0, 64, 0
2, 233468, Note_off_c, 0, 86, 100
2, 233468, Note_off_c, 0, 77, 100
2, 233468, Note_off_c, 0, 74, 100
2, 233472, Note_on_c, 0, 89, 80
2, 233472, Note_on_c, 0, 80, 80
2, 233472, Note_on_c, 0, 77, 80
2, 233852, Note_off_c, 0, 89, 100
2, 233852, Note_off_c, 0, 80, 100
2, 233852, Note_off_c, 0, 77, 100
2, 233856, Note_on_c, 0, 78, 80
2, 233856, Note_on_c, 0, 74, 80
2, 233856, Note_on_c, 0, 86, 80
2, 234236, Note_off_c, 0, 78, 100
2, 234236, Note_off_c, 0, 74, 100
2, 234236, Note_off_c, 0, 86, 100
2, 234240, Note_on_c, 0, 89, 80
2, 234240, Note_on_c, 0, 80, 80
2, 234240, Note_on_c, 0, 77, 80
2, 234620, Note_off_c, 0, 89, 100
2, 234620, Note_off_c, 0, 80, 100
2, 234620, Note_off_c, 0, 77, 100
2, 234624, Note_on_c, 0, 87, 80
2, 234624, Note_on_c, 0, 79, 80
2, 234624, Note_on_c, 0, 75, 80
2, 235004, Note_off_c, 0, 87, 100
2, 235004, Note_off_c, 0, 79, 100
2, 235004, Note_off_c, 0, 75, 100
2, 235008, Control_c, 0, 64, 127
2, 235008, Note_on_c, 0, 91, 110
2, 235008, Note_on_c, 0, 82, 110
2, 235008, Note_on_c, 0, 79, 110
2, 235772, Note_off_c, 0, 91, 100
2, 235772, Note_off_c, 0, 82, 100
2, 235772, Note_off_c, 0, 79, 100
2, 235776, Note_on_c, 0, 87, 110
2, 235776, Note_on_c, 0, 82, 110
2, 235776, Note_on_c, 0, 79, 110
2, 235776, Note_on_c, 0, 75, 110
2, 236536, Control_c, 0, 64, 0
2, 236540, Note_off_c, 0, 87, 100
2, 236540, Note_off_c, 0, 82, 100
2, 236540, Note_off_c, 0, 79, 100
2, 236540, Note_off_c, 0, 75, 100
2, 236544, Note_on_c, 0, 91, 80
2, 236544, Note_on_c, 0, 82, 80
2, 236544, Note_on_c, 0, 79, 80
2, 236924, Note_off_c, 0, 91, 100
2, 236924, Note_off_c, 0, 82, 100
2, 236924, Note_off_c, 0, 79, 100
2, 236928, Note_on_c, 0, 88, 82
2, 236928, Note_on_c, 0, 82, 82
2, 236928, Note_on_c, 0, 76, 82
2, 237308, Note_off_c, 0, 88, 100
2, 237308, Note_off_c, 0, 82, 100
2, 237308, Note_off_c, 0, 76, 100
2, 237312, Note_on_c, 0, 90, 85
2, 237312, Note_on_c, 0, 82, 85
2, 237312, Note_on_c, 0, 78, 85
2, 237692, Note_off_c, 0, 90, 100
2, 237692, Note_off_c, 0, 82, 100
2, 237692, Note_off_c, 0, 78, 100
2, 237696, Note_on_c, 0, 89, 87
2, 237696, Note_on_c, 0, 82, 87
2, 237696, Note_on_c, 0, 77, 87
2, 238076, Note_off_c, 0, 89, 100
2, 238076, Note_off_c, 0, 82, 100
2, 238076, Note_off_c, 0, 77, 100
2, 238080, Note_on_c, 0, 92, 90
2, 238080, Note_on_c, 0, 82, 90
2, 238080, Note_on_c, 0, 80, 90
2, 238460, Note_off_c, 0, 92, 100
2, 238460, Note_off_c, 0, 82, 100
2, 238460, Note_off_c, 0, 80, 100
2, 238464, Note_on_c, 0, 90, 93
2, 238464, Note_on_c, 0, 82, 93
2, 238464, Note_on_c, 0, 78, 93
2, 238844, Note_off_c, 0, 90, 100
2, 238844, Note_off_c, 0, 82, 100
2, 238844, Note_off_c, 0, 78, 100
2, 238848, Note_on_c, 0, 92, 95
2, 238848, Note_on_c, 0, 82, 95
2, 238848, Note_on_c, 0, 80, 95
2, 239228, Note_off_c, 0, 92, 100
2, 239228, Note_off_c, 0, 82, 100
2, 239228, Note_off_c, 0, 80, 100
2, 239232, Note_on_c, 0, 91, 98
2, 239232, Note_on_c, 0, 82, 98
2, 239232, Note_on_c, 0, 79, 98
2, 239612, Note_off_c, 0, 91, 100
2, 239612, Note_off_c, 0, 82, 100
2, 239612, Note_off_c, 0, 79, 100
2, 239616, Note_on_c, 0, 94, 100
2, 239616, Note_on_c, 0, 91, 100
2, 239616, Note_on_c, 0, 87, 100
2, 239616, Note_on_c, 0, 82, 100
2, 239996, Note_off_c, 0, 94, 100
2, 239996, Note_off_c, 0, 91, 100
2, 239996, Note_off_c, 0, 87, 100
2, 239996, Note_off_c, 0, 82, 100
2, 240000, Note_on_c, 0, 92, 103
2, 240000, Note_on_c, 0, 80, 103
2, 240380, Note_off_c, 0, 92, 100
2, 240380, Note_off_c, 0, 80, 100
2, 240384, Note_on_c, 0, 94, 106
2, 240384, Note_on_c, 0, 82, 106
2, 240764, Note_off_c, 0, 94, 100
2, 240764, Note_off_c, 0, 82, 100
2, 240768, Note_on_c, 0, 93, 108
2, 240768, Note_on_c, 0, 81, 108
2, 241148, Note_off_c, 0, 93, 100
2, 241148, Note_off_c, 0, 81, 100
2, 241152, Note_on_c, 0, 96, 110
2, 241152, Note_on_c, 0, 84, 110
2, 241532, Note_off_c, 0, 96, 100
2, 241532, Note_off_c, 0, 84, 100
2, 241536, Note_on_c, 0, 94, 110
2, 241536, Note_on_c, 0, 82, 110
2, 241916, Note_off_c, 0, 94, 100
2, 241916, Note_off_c, 0, 82, 100
2, 241920, Note_on_c, 0, 91, 110
2, 241920, Note_on_c, 0, 79, 110
2, 242300, Note_off_c, 0, 91, 100
2, 242300, Note_off_c, 0, 79, 100
2, 242304, Note_on_c, 0, 89, 110
2, 242304, Note_on_c, 0, 77, 110
2, 242684, Note_off_c, 0, 89, 100
2, 242684, Note_off_c, 0, 77, 100
2, 242688, Note_on_c, 0, 87, 110
2, 242688, Note_on_c, 0, 75, 110
2, 243068, Note_off_c, 0, 87, 100
2, 243068, Note_off_c, 0, 75, 100
2, 243072, Note_on_c, 0, 86, 110
2, 243072, Note_on_c, 0, 74, 110
2, 243452, Note_off_c, 0, 86, 100
2, 243452, Note_off_c, 0, 74, 100
2, 243456, Note_on_c, 0, 84, 110
2, 243456, Note_on_c, 0, 72, 110
2, 243836, Note_off_c, 0, 84, 100
2, 243836, Note_off_c, 0, 72, 100
2, 243840, Note_on_c, 0, 82, 110
2, 243840, Note_on_c, 0, 70, 110
2, 244220, Note_off_c, 0, 82, 100
2, 244220, Note_off_c, 0, 70, 100
2, 244224, Note_on_c, 0, 79, 110
2, 244224, Note_on_c, 0, 67, 110
2, 244604, Note_off_c, 0, 79, 100
2, 244604, Note_off_c, 0, 67, 100
2, 244608, Note_on_c, 0, 77, 110
2, 244608, Note_on_c, 0, 65, 110
2, 244988, Note_off_c, 0, 77, 100
2, 244988, Note_off_c, 0, 65, 100
2, 244992, Note_on_c, 0, 75, 110
2, 244992, Note_on_c, 0, 63, 110
2, 245372, Note_off_c, 0, 75, 100
2, 245372, Note_off_c, 0, 63, 100
2, 245376, Note_on_c, 0, 74, 110
2, 245376, Note_on_c, 0, 62, 110
2, 245756, Note_off_c, 0, 74, 100
2, 245756, Note_off_c, 0, 62, 100
2, 245760, Note_on_c, 0, 72, 110
2, 245760, Note_on_c, 0, 60, 110
2, 246140, Note_off_c, 0, 72, 100
2, 246140, Note_off_c, 0, 60, 100
2, 246144, Note_on_c, 0, 70, 110
2, 246144, Note_on_c, 0, 58, 110
2, 246524, Note_off_c, 0, 70, 100
2, 246524, Note_off_c, 0, 58, 100
2, 246528, Note_on_c, 0, 67, 110
2, 246528, Note_on_c, 0, 55, 110
2, 246908, Note_off_c, 0, 67, 100
2, 246908, Note_off_c, 0, 55, 100
2, 246912, Note_on_c, 0, 65, 110
2, 246912, Note_on_c, 0, 53, 110
2, 247292, Note_off_c, 0, 65, 100
2, 247292, Note_off_c, 0, 53, 100
2, 247296, Control_c, 0, 64, 127
2, 247296, Note_on_c, 0, 69, 110
2, 247680, Note_on_c, 0, 65, 108
2, 248060, Note_off_c, 0, 69, 100
2, 248064, Note_on_c, 0, 72, 105
2, 248444, Note_off_c, 0, 65, 100
2, 248448, Note_on_c, 0, 65, 102
2, 248828, Note_off_c, 0, 72, 100
2, 248832, Note_on_c, 0, 77, 99
2, 249212, Note_off_c, 0, 65, 64
2, 249216, Note_on_c, 0, 65, 97
2, 249596, Note_off_c, 0, 77, 100
2, 249600, Note_on_c, 0, 81, 94
2, 249980, Note_off_c, 0, 65, 100
2, 249984, Note_on_c, 0, 65, 91
2, 250364, Note_off_c, 0, 81, 100
2, 250368, Note_on_c, 0, 84, 88
2, 250748, Note_off_c, 0, 65, 64
2, 250752, Note_on_c, 0, 65, 86
2, 251132, Note_off_c, 0, 84, 100
2, 251136, Note_on_c, 0, 89, 83
2, 251516, Note_off_c, 0, 65, 100
2, 251520, Note_on_c, 0, 65, 80
2, 251900, Note_off_c, 0, 89, 100
2, 251904, Note_on_c, 0, 89, 77
2, 252284, Note_off_c, 0, 65, 64
2, 252288, Note_on_c, 0, 65, 75
2, 252668, Note_off_c, 0, 89, 100
2, 252672, Note_on_c, 0, 89, 72
2, 253048, Control_c, 0, 64, 0
2, 253052, Note_off_c, 0, 65, 100
2, 253436, Note_off_c, 0, 89, 100
2, 253440, Control_c, 0, 64, 127
2, 254016, Note_on_c, 0, 86, 110
2, 254016, Note_on_c, 0, 82, 110
2, 254016, Note_on_c, 0, 77, 110
2, 254016, Note_on_c, 0, 74, 110
2, 254204, Note_off_c, 0, 86, 100
2, 254204, Note_off_c, 0, 82, 100
2, 254204, Note_off_c, 0, 77, 100
2, 254204, Note_off_c, 0, 74, 100
2, 254208, Note_on_c, 0, 86, 110
2, 254208, Note_on_c, 0, 82, 110
2, 254208, Note_on_c, 0, 77, 110
2, 254208, Note_on_c, 0, 74, 110
2, 254588, Note_off_c, 0, 86, 100
2, 254588, Note_off_c, 0, 82, 100
2, 254588, Note_off_c, 0, 77, 100
2, 254588, Note_off_c, 0, 74, 100
2, 254592, Note_on_c, 0, 87, 110
2, 254592, Note_on_c, 0, 82, 110
2, 254592, Note_on_c, 0, 77, 110
2, 254592, Note_on_c, 0, 74, 110
2, 254780, Note_off_c, 0, 87, 100
2, 254780, Note_off_c, 0, 82, 100
2, 254780, Note_off_c, 0, 77, 100
2, 254780, Note_off_c, 0, 74, 100
2, 254784, Note_on_c, 0, 86, 110
2, 254784, Note_on_c, 0, 82, 110
2, 254784, Note_on_c, 0, 77, 110
2, 254784, Note_on_c, 0, 74, 110
2, 254972, Note_off_c, 0, 86, 100
2, 254972, Note_off_c, 0, 82, 100
2, 254972, Note_off_c, 0, 77, 100
2, 254972, Note_off_c, 0, 74, 100
2, 254976, Note_on_c, 0, 86, 110
2, 254976, Note_on_c, 0, 82, 110
2, 254976, Note_on_c, 0, 77, 110
2, 254976, Note_on_c, 0, 74, 110
2, 255356, Note_off_c, 0, 86, 100
2, 255356, Note_off_c, 0, 82, 100
2, 255356, Note_off_c, 0, 77, 100
2, 255356, Note_off_c, 0, 74, 100
2, 255360, Note_on_c, 0, 82, 110
2, 255360, Note_on_c, 0, 77, 110
2, 255360, Note_on_c, 0, 74, 110
2, 255360, Note_on_c, 0, 70, 110
2, 255740, Note_off_c, 0, 82, 100
2, 255740, Note_off_c, 0, 77, 100
2, 255740, Note_off_c, 0, 74, 100
2, 255740, Note_off_c, 0, 70, 100
2, 257080, Control_c, 0, 64, 0
2, 257088, Note_on_c, 0, 86, 110
2, 257088, Note_on_c, 0, 82, 110
2, 257088, Note_on_c, 0, 77, 110
2, 257088, Note_on_c, 0, 74, 110
2, 257276, Note_off_c, 0, 86, 100
2, 257276, Note_off_c, 0, 82, 100
2, 257276, Note_off_c, 0, 77, 100
2, 257276, Note_off_c, 0, 74, 100
2, 257280, Control_c, 0, 64, 127
2, 257280, Note_on_c, 0, 86, 110
2, 257280, Note_on_c, 0, 74, 110
2, 257660, Note_off_c, 0, 86, 100
2, 257660, Note_off_c, 0, 74, 100
2, 257664, Note_on_c, 0, 86, 110
2, 257664, Note_on_c, 0, 81, 110
2, 257664, Note_on_c, 0, 78, 110
2, 257664, Note_on_c, 0, 74, 110
2, 257852, Note_off_c, 0, 86, 100
2, 257852, Note_off_c, 0, 81, 100
2, 257852, Note_off_c, 0, 78, 100
2, 257852, Note_off_c, 0, 74, 100
2, 257856, Note_on_c, 0, 86, 110
2, 257856, Note_on_c, 0, 81, 110
2, 257856, Note_on_c, 0, 78, 110
2, 257856, Note_on_c, 0, 74, 110
2, 258044, Note_off_c, 0, 86, 100
2, 258044, Note_off_c, 0, 81, 100
2, 258044, Note_off_c, 0, 78, 100
2, 258044, Note_off_c, 0, 74, 100
2, 258048, Note_on_c, 0, 86, 110
2, 258048, Note_on_c, 0, 81, 110
2, 258048, Note_on_c, 0, 78, 110
2, 258048, Note_on_c, 0, 74, 110
2, 258428, Note_off_c, 0, 86, 100
2, 258428, Note_off_c, 0, 81, 100
2, 258428, Note_off_c, 0, 78, 100
2, 258428, Note_off_c, 0, 74, 100
2, 258432, Note_on_c, 0, 86, 110
2, 258432, Note_on_c, 0, 81, 110
2, 258432, Note_on_c, 0, 78, 110
2, 258432, Note_on_c, 0, 74, 110
2, 260348, Note_off_c, 0, 74, 64
2, 260348, Note_off_c, 0, 78, 64
2, 260348, Note_off_c, 0, 81, 64
2, 260348, Note_off_c, 0, 86, 64
2, 260728, Control_c, 0, 64, 0
2, 261504, Note_on_c, 0, 74, 80
2, 261504, Note_on_c, 0, 69, 80
2, 261504, Note_on_c, 0, 66, 80
2, 261884, Note_off_c, 0, 74, 100
2, 261884, Note_off_c, 0, 69, 100
2, 261884, Note_off_c, 0, 66, 100
2, 262272, Note_on_c, 0, 74, 80
2, 262272, Note_on_c, 0, 69, 80
2, 262272, Note_on_c, 0, 66, 80
2, 262652, Note_off_c, 0, 74, 100
2, 262652, Note_off_c, 0, 69, 100
2, 262652, Note_off_c, 0, 66, 100
2, 263040, Note_on_c, 0, 74, 80
2, 263040, Note_on_c, 0, 69, 80
2, 263040, Note_on_c, 0, 66, 80
2, 263420, Note_off_c, 0, 74, 100
2, 263420, Note_off_c, 0, 69, 100
2, 263420, Note_off_c, 0, 66, 100
2, 263808, Note_on_c, 0, 74, 80
2, 263808, Note_on_c, 0, 69, 80
2, 263808, Note_on_c, 0, 66, 80
2, 264188, Note_off_c, 0, 74, 100
2, 264188, Note_off_c, 0, 69, 100
2, 264188, Note_off_c, 0, 66, 100
2, 264576, Note_on_c, 0, 78, 82
2, 264576, Note_on_c, 0, 74, 82
2, 264576, Note_on_c, 0, 72, 82
2, 264576, Note_on_c, 0, 69, 82
2, 264956, Note_off_c, 0, 78, 100
2, 264956, Note_off_c, 0, 74, 100
2, 264956, Note_off_c, 0, 72, 100
2, 264956, Note_off_c, 0, 69, 100
2, 265344, Note_on_c, 0, 78, 86
2, 265344, Note_on_c, 0, 74, 86
2, 265344, Note_on_c, 0, 72, 86
2, 265344, Note_on_c, 0, 69, 86
2, 265724, Note_off_c, 0, 78, 100
2, 265724, Note_off_c, 0, 74, 100
2, 265724, Note_off_c, 0, 72, 100
2, 265724, Note_off_c, 0, 69, 100
2, 266112, Note_on_c, 0, 81, 90
2, 266112, Note_on_c, 0, 78, 90
2, 266112, Note_on_c, 0, 72, 90
2, 266112, Note_on_c, 0, 69, 90
2, 266492, Note_off_c, 0, 81, 100
2, 266492, Note_off_c, 0, 78, 100
2, 266492, Note_off_c, 0, 72, 100
2, 266492, Note_off_c, 0, 69, 100
2, 266880, Note_on_c, 0, 84, 94
2, 266880, Note_on_c, 0, 81, 94
2, 266880, Note_on_c, 0, 78, 94
2, 266880, Note_on_c, 0, 72, 94
2, 267260, Note_off_c, 0, 84, 100
2, 267260, Note_off_c, 0, 81, 100
2, 267260, Note_off_c, 0, 78, 100
2, 267260, Note_off_c, 0, 72, 100
2, 267648, Note_on_c, 0, 90, 99
2, 267648, Note_on_c, 0, 84, 99
2, 267648, Note_on_c, 0, 81, 99
2, 267648, Note_on_c, 0, 78, 99
2, 268028, Note_off_c, 0, 90, 100
2, 268028, Note_off_c, 0, 84, 100
2, 268028, Note_off_c, 0, 81, 100
2, 268028, Note_off_c, 0, 78, 100
2, 268416, Note_on_c, 0, 93, 103
2, 268416, Note_on_c, 0, 84, 103
2, 268416, Note_on_c, 0, 81, 103
2, 268796, Note_off_c, 0, 93, 100
2, 268796, Note_off_c, 0, 84, 100
2, 268796, Note_off_c, 0, 81, 100
2, 269184, Note_on_c, 0, 96, 107
2, 269184, Note_on_c, 0, 93, 107
2, 269184, Note_on_c, 0, 84, 107
2, 269564, Note_off_c, 0, 96, 100
2, 269564, Note_off_c, 0, 93, 100
2, 269564, Note_off_c, 0, 84, 100
2, 269952, Note_on_c, 0, 96, 110
2, 269952, Note_on_c, 0, 93, 110
2, 269952, Note_on_c, 0, 90, 110
2, 269952, Note_on_c, 0, 84, 110
2, 270332, Note_off_c, 0, 96, 100
2, 270332, Note_off_c, 0, 93, 100
2, 270332, Note_off_c, 0, 90, 100
2, 270332, Note_off_c, 0, 84, 100
2, 270336, Note_on_c, 0, 96, 110
2, 270336, Note_on_c, 0, 93, 110
2, 270336, Note_on_c, 0, 90, 110
2, 270336, Note_on_c, 0, 84, 110
2, 270716, Note_off_c, 0, 96, 100
2, 270716, Note_off_c, 0, 93, 100
2, 270716, Note_off_c, 0, 90, 100
2, 270716, Note_off_c, 0, 84, 100
2, 270720, Note_on_c, 0, 84, 110
2, 270720, Note_on_c, 0, 81, 110
2, 270908, Note_off_c, 0, 84, 100
2, 270908, Note_off_c, 0, 81, 100
2, 270912, Note_on_c, 0, 80, 108
2, 270912, Note_on_c, 0, 83, 108
2, 271100, Note_off_c, 0, 80, 100
2, 271100, Note_off_c, 0, 83, 100
2, 271104, Note_on_c, 0, 84, 106
2, 271104, Note_on_c, 0, 81, 106
2, 271484, Note_off_c, 0, 84, 100
2, 271484, Note_off_c, 0, 81, 100
2, 271488, Note_on_c, 0, 69, 101
2, 271488, Note_on_c, 0, 66, 101
2, 271676, Note_off_c, 0, 69, 100
2, 271676, Note_off_c, 0, 66, 100
2, 271680, Note_on_c, 0, 67, 99
2, 271680, Note_on_c, 0, 70, 99
2, 271868, Note_off_c, 0, 67, 100
2, 271868, Note_off_c, 0, 70, 100
2, 271872, Note_on_c, 0, 69, 97
2, 271872, Note_on_c, 0, 66, 97
2, 272252, Note_off_c, 0, 69, 100
2, 272252, Note_off_c, 0, 66, 100
2, 272256, Note_on_c, 0, 84, 92
2, 272256, Note_on_c, 0, 81, 92
2, 272444, Note_off_c, 0, 84, 100
2, 272444, Note_off_c, 0, 81, 100
2, 272448, Note_on_c, 0, 80, 90
2, 272448, Note_on_c, 0, 83, 90
2, 272636, Note_off_c, 0, 80, 100
2, 272636, Note_off_c, 0, 83, 100
2, 272640, Note_on_c, 0, 84, 87
2, 272640, Note_on_c, 0, 81, 87
2, 273020, Note_off_c, 0, 84, 100
2, 273020, Note_off_c, 0, 81, 100
2, 273024, Note_on_c, 0, 90, 83
2, 273212, Note_off_c, 0, 90, 100
2, 273216, Note_on_c, 0, 93, 81
2, 273404, Note_off_c, 0, 93, 100
2, 273408, Note_on_c, 0, 96, 80
2, 273596, Note_off_c, 0, 96, 100
2, 273600, Note_on_c, 0, 98, 80
2, 273788, Note_off_c, 0, 98, 100
2, 273792, Note_on_c, 0, 96, 80
2, 273980, Note_off_c, 0, 96, 100
2, 273984, Note_on_c, 0, 95, 80
2, 274172, Note_off_c, 0, 95, 100
2, 274176, Note_on_c, 0, 96, 80
2, 274364, Note_off_c, 0, 96, 100
2, 274368, Note_on_c, 0, 98, 80
2, 274556, Note_off_c, 0, 98, 100
2, 274560, Note_on_c, 0, 100, 80
2, 274748, Note_off_c, 0, 100, 100
2, 274752, Note_on_c, 0, 96, 80
2, 274940, Note_off_c, 0, 96, 100
2, 274944, Note_on_c, 0, 93, 80
2, 275132, Note_off_c, 0, 93, 100
2, 275136, Note_on_c, 0, 95, 80
2, 275324, Note_off_c, 0, 95, 100
2, 275328, Note_on_c, 0, 96, 80
2, 275516, Note_off_c, 0, 96, 100
2, 275520, Note_on_c, 0, 93, 80
2, 275708, Note_off_c, 0, 93, 100
2, 275712, Note_on_c, 0, 90, 80
2, 275900, Note_off_c, 0, 90, 100
2, 275904, Note_on_c, 0, 91, 80
2, 276092, Note_off_c, 0, 91, 100
2, 276096, Note_on_c, 0, 93, 80
2, 276284, Note_off_c, 0, 93, 100
2, 276288, Note_on_c, 0, 90, 80
2, 276476, Note_off_c, 0, 90, 100
2, 276480, Note_on_c, 0, 84, 80
2, 276668, Note_off_c, 0, 84, 100
2, 276672, Note_on_c, 0, 86, 80
2, 276860, Note_off_c, 0, 86, 100
2, 276864, Note_on_c, 0, 88, 80
2, 277052, Note_off_c, 0, 88, 100
2, 277056, Note_on_c, 0, 84, 80
2, 277244, Note_off_c, 0, 84, 100
2, 277248, Note_on_c, 0, 81, 80
2, 277436, Note_off_c, 0, 81, 100
2, 277440, Note_on_c, 0, 83, 80
2, 277628, Note_off_c, 0, 83, 100
2, 277632, Note_on_c, 0, 84, 80
2, 277820, Note_off_c, 0, 84, 100
2, 277824, Note_on_c, 0, 81, 80
2, 278012, Note_off_c, 0, 81, 100
2, 278016, Note_on_c, 0, 78, 80
2, 278204, Note_off_c, 0, 78, 100
2, 278208, Note_on_c, 0, 79, 80
2, 278396, Note_off_c, 0, 79, 100
2, 278400, Note_on_c, 0, 81, 80
2, 278588, Note_off_c, 0, 81, 100
2, 278592, Note_on_c, 0, 78, 80
2, 278780, Note_off_c, 0, 78, 100
2, 278784, Note_on_c, 0, 74, 80
2, 278784, Note_on_c, 0, 72, 80
2, 278784, Note_on_c, 0, 69, 80
2, 279164, Note_off_c, 0, 74, 100
2, 279164, Note_off_c, 0, 72, 100
2, 279164, Note_off_c, 0, 69, 100
2, 279552, Note_on_c, 0, 95, 80
2, 279740, Note_off_c, 0, 95, 100
2, 279744, Note_on_c, 0, 96, 80
2, 279932, Note_off_c, 0, 96, 100
2, 279936, Note_on_c, 0, 95, 80
2, 280124, Note_off_c, 0, 95, 100
2, 280128, Note_on_c, 0, 93, 80
2, 280316, Note_off_c, 0, 93, 100
2, 280320, Note_on_c, 0, 95, 80
2, 280508, Note_off_c, 0, 95, 100
2, 280512, Note_on_c, 0, 96, 80
2, 280700, Note_off_c, 0, 96, 100
2, 280704, Note_on_c, 0, 98, 80
2, 280892, Note_off_c, 0, 98, 100
2, 280896, Note_on_c, 0, 95, 80
2, 281084, Note_off_c, 0, 95, 100
2, 281088, Note_on_c, 0, 91, 80
2, 281276, Note_off_c, 0, 91, 100
2, 281280, Note_on_c, 0, 93, 80
2, 281468, Note_off_c, 0, 93, 100
2, 281472, Note_on_c, 0, 95, 80
2, 281660, Note_off_c, 0, 95, 100
2, 281664, Note_on_c, 0, 91, 80
2, 281852, Note_off_c, 0, 91, 100
2, 281856, Note_on_c, 0, 86, 80
2, 282044, Note_off_c, 0, 86, 100
2, 282048, Note_on_c, 0, 90, 80
2, 282236, Note_off_c, 0, 90, 100
2, 282240, Note_on_c, 0, 91, 80
2, 282428, Note_off_c, 0, 91, 100
2, 282432, Note_on_c, 0, 86, 80
2, 282620, Note_off_c, 0, 86, 100
2, 282624, Note_on_c, 0, 83, 80
2, 282812, Note_off_c, 0, 83, 100
2, 282816, Note_on_c, 0, 84, 80
2, 283004, Note_off_c, 0, 84, 100
2, 283008, Note_on_c, 0, 86, 80
2, 283196, Note_off_c, 0, 86, 100
2, 283200, Note_on_c, 0, 83, 80
2, 283388, Note_off_c, 0, 83, 100
2, 283392, Note_on_c, 0, 79, 80
2, 283580, Note_off_c, 0, 79, 100
2, 283584, Note_on_c, 0, 81, 80
2, 283772, Note_off_c, 0, 81, 100
2, 283776, Note_on_c, 0, 83, 80
2, 283964, Note_off_c, 0, 83, 100
2, 283968, Note_on_c, 0, 79, 80
2, 284156, Note_off_c, 0, 79, 100
2, 284160, Note_on_c, 0, 74, 80
2, 284348, Note_off_c, 0, 74, 100
2, 284352, Note_on_c, 0, 78, 80
2, 284540, Note_off_c, 0, 78, 100
2, 284544, Note_on_c, 0, 79, 80
2, 284732, Note_off_c, 0, 79, 100
2, 284736, Note_on_c, 0, 71, 80
2, 284924, Note_off_c, 0, 71, 100
2, 284928, Note_on_c, 0, 67, 80
2, 285116, Note_off_c, 0, 67, 100
2, 285120, Note_on_c, 0, 69, 80
2, 285308, Note_off_c, 0, 69, 100
2, 285312, Note_on_c, 0, 71, 80
2, 285500, Note_off_c, 0, 71, 100
2, 285504, Note_on_c, 0, 67, 80
2, 285692, Note_off_c, 0, 67, 100
2, 285696, Note_on_c, 0, 69, 80
2, 285696, Note_on_c, 0, 66, 80
2, 285696, Note_on_c, 0, 62, 80
2, 286076, Note_off_c, 0, 69, 100
2, 286076, Note_off_c, 0, 66, 100
2, 286076, Note_off_c, 0, 62, 100
2, 286080, Note_on_c, 0, 88, 80
2, 286268, Note_off_c, 0, 88, 100
2, 286272, Note_on_c, 0, 86, 80
2, 286460, Note_off_c, 0, 86, 100
2, 286464, Note_on_c, 0, 88, 80
2, 286652, Note_off_c, 0, 88, 100
2, 286656, Note_on_c, 0, 86, 80
2, 286844, Note_off_c, 0, 86, 100
2, 286848, Note_on_c, 0, 84, 80
2, 287036, Note_off_c, 0, 84, 100
2, 287040, Note_on_c, 0, 88, 80
2, 287228, Note_off_c, 0, 88, 100
2, 287232, Note_on_c, 0, 84, 80
2, 287420, Note_off_c, 0, 84, 100
2, 287424, Note_on_c, 0, 83, 80
2, 287612, Note_off_c, 0, 83, 100
2, 287616, Note_on_c, 0, 81, 80
2, 287804, Note_off_c, 0, 81, 100
2, 287808, Note_on_c, 0, 84, 80
2, 287996, Note_off_c, 0, 84, 100
2, 288000, Note_on_c, 0, 81, 80
2, 288188, Note_off_c, 0, 81, 100
2, 288192, Note_on_c, 0, 79, 80
2, 288380, Note_off_c, 0, 79, 100
2, 288384, Note_on_c, 0, 78, 80
2, 288572, Note_off_c, 0, 78, 100
2, 288576, Note_on_c, 0, 81, 80
2, 288764, Note_off_c, 0, 81, 100
2, 288768, Note_on_c, 0, 76, 80
2, 288956, Note_off_c, 0, 76, 100
2, 288960, Note_on_c, 0, 74, 80
2, 289148, Note_off_c, 0, 74, 100
2, 289152, Note_on_c, 0, 72, 80
2, 289340, Note_off_c, 0, 72, 100
2, 289344, Note_on_c, 0, 76, 80
2, 289532, Note_off_c, 0, 76, 100
2, 289536, Note_on_c, 0, 72, 80
2, 289724, Note_off_c, 0, 72, 100
2, 289728, Note_on_c, 0, 71, 80
2, 289916, Note_off_c, 0, 71, 100
2, 289920, Note_on_c, 0, 69, 80
2, 290108, Note_off_c, 0, 69, 100
2, 290112, Note_on_c, 0, 72, 80
2, 290300, Note_off_c, 0, 72, 100
2, 290304, Note_on_c, 0, 69, 80
2, 290492, Note_off_c, 0, 69, 100
2, 290496, Note_on_c, 0, 67, 80
2, 290684, Note_off_c, 0, 67, 100
2, 290688, Note_on_c, 0, 66, 80
2, 290876, Note_off_c, 0, 66, 100
2, 290880, Note_on_c, 0, 69, 80
2, 291068, Note_off_c, 0, 69, 100
2, 291072, Note_on_c, 0, 72, 80
2, 291260, Note_off_c, 0, 72, 100
2, 291264, Note_on_c, 0, 71, 80
2, 291452, Note_off_c, 0, 71, 100
2, 291456, Note_on_c, 0, 69, 80
2, 291644, Note_off_c, 0, 69, 100
2, 291648, Note_on_c, 0, 72, 80
2, 291836, Note_off_c, 0, 72, 100
2, 291840, Note_on_c, 0, 67, 80
2, 291840, Note_on_c, 0, 62, 80
2, 292220, Note_off_c, 0, 67, 100
2, 292220, Note_off_c, 0, 62, 100
2, 292224, Note_on_c, 0, 98, 80
2, 292412, Note_off_c, 0, 98, 100
2, 292416, Note_on_c, 0, 96, 80
2, 292604, Note_off_c, 0, 96, 100
2, 292608, Note_on_c, 0, 98, 80
2, 292796, Note_off_c, 0, 98, 100
2, 292800, Note_on_c, 0, 96, 80
2, 292988, Note_off_c, 0, 96, 100
2, 292992, Note_on_c, 0, 95, 80
2, 293180, Note_off_c, 0, 95, 100
2, 293184, Note_on_c, 0, 98, 80
2, 293372, Note_off_c, 0, 98, 100
2, 293376, Note_on_c, 0, 95, 80
2, 293564, Note_off_c, 0, 95, 100
2, 293568, Note_on_c, 0, 93, 80
2, 293756, Note_off_c, 0, 93, 100
2, 293760, Note_on_c, 0, 91, 80
2, 293948, Note_off_c, 0, 91, 100
2, 293952, Note_on_c, 0, 95, 80
2, 294140, Note_off_c, 0, 95, 100
2, 294144, Note_on_c, 0, 83, 80
2, 294332, Note_off_c, 0, 83, 100
2, 294336, Note_on_c, 0, 81, 80
2, 294524, Note_off_c, 0, 81, 100
2, 294528, Note_on_c, 0, 79, 80
2, 294716, Note_off_c, 0, 79, 100
2, 294720, Note_on_c, 0, 83, 80
2, 294908, Note_off_c, 0, 83, 100
2, 294912, Note_on_c, 0, 74, 80
2, 295100, Note_off_c, 0, 74, 100
2, 295104, Note_on_c, 0, 72, 80
2, 295292, Note_off_c, 0, 72, 100
2, 295296, Note_on_c, 0, 71, 80
2, 295484, Note_off_c, 0, 71, 100
2, 295488, Note_on_c, 0, 74, 80
2, 295676, Note_off_c, 0, 74, 100
2, 295680, Note_on_c, 0, 83, 80
2, 295868, Note_off_c, 0, 83, 100
2, 295872, Note_on_c, 0, 81, 80
2, 296060, Note_off_c, 0, 81, 100
2, 296064, Note_on_c, 0, 79, 80
2, 296252, Note_off_c, 0, 79, 100
2, 296256, Note_on_c, 0, 83, 80
2, 296444, Note_off_c, 0, 83, 100
2, 296448, Note_on_c, 0, 86, 80
2, 296636, Note_off_c, 0, 86, 100
2, 296640, Note_on_c, 0, 84, 80
2, 296828, Note_off_c, 0, 84, 100
2, 296832, Note_on_c, 0, 83, 80
2, 297020, Note_off_c, 0, 83, 100
2, 297024, Note_on_c, 0, 86, 80
2, 297212, Note_off_c, 0, 86, 100
2, 297216, Note_on_c, 0, 88, 80
2, 297596, Note_off_c, 0, 88, 100
2, 297600, Note_on_c, 0, 90, 80
2, 297600, Note_on_c, 0, 86, 80
2, 297600, Note_on_c, 0, 81, 80
2, 297980, Note_off_c, 0, 90, 100
2, 297980, Note_off_c, 0, 86, 100
2, 297980, Note_off_c, 0, 81, 100
2, 297984, Note_on_c, 0, 91, 80
2, 297984, Note_on_c, 0, 86, 80
2, 297984, Note_on_c, 0, 79, 80
2, 298364, Note_off_c, 0, 91, 100
2, 298364, Note_off_c, 0, 86, 100
2, 298364, Note_off_c, 0, 79, 100
2, 299904, Note_on_c, 0, 69, 80
2, 299904, Note_on_c, 0, 66, 80
2, 300284, Note_off_c, 0, 69, 100
2, 300284, Note_off_c, 0, 66, 100
2, 300288, Note_on_c, 0, 71, 80
2, 300288, Note_on_c, 0, 67, 80
2, 300476, Note_off_c, 0, 71, 100
2, 300476, Note_off_c, 0, 67, 100
2, 300672, Note_on_c, 0, 83, 80
2, 300672, Note_on_c, 0, 91, 80
2, 300860, Note_off_c, 0, 83, 100
2, 300860, Note_off_c, 0, 91, 100
2, 300864, Note_on_c, 0, 81, 80
2, 300864, Note_on_c, 0, 90, 80
2, 301052, Note_off_c, 0, 81, 100
2, 301052, Note_off_c, 0, 90, 100
2, 301056, Note_on_c, 0, 91, 80
2, 301056, Note_on_c, 0, 83, 80
2, 301436, Note_off_c, 0, 91, 100
2, 301436, Note_off_c, 0, 83, 100
2, 301440, Note_on_c, 0, 88, 80
2, 301440, Note_on_c, 0, 83, 80
2, 301440, Note_on_c, 0, 79, 80
2, 301820, Note_off_c, 0, 88, 100
2, 301820, Note_off_c, 0, 83, 100
2, 301820, Note_off_c, 0, 79, 100
2, 301824, Note_on_c, 0, 86, 80
2, 301824, Note_on_c, 0, 81, 80
2, 301824, Note_on_c, 0, 78, 80
2, 302204, Note_off_c, 0, 86, 100
2, 302204, Note_off_c, 0, 81, 100
2, 302204, Note_off_c, 0, 78, 100
2, 302208, Note_on_c, 0, 85, 80
2, 302208, Note_on_c, 0, 79, 80
2, 302208, Note_on_c, 0, 76, 80
2, 302588, Note_off_c, 0, 85, 100
2, 302588, Note_off_c, 0, 79, 100
2, 302588, Note_off_c, 0, 76, 100
2, 302592, Note_on_c, 0, 88, 80
2, 302592, Note_on_c, 0, 79, 80
2, 302972, Note_off_c, 0, 88, 100
2, 302972, Note_off_c, 0, 79, 100
2, 302976, Note_on_c, 0, 86, 80
2, 302976, Note_on_c, 0, 78, 80
2, 303356, Note_off_c, 0, 86, 100
2, 303356, Note_off_c, 0, 78, 100
2, 303360, Note_on_c, 0, 86, 80
2, 303360, Note_on_c, 0, 78, 80
2, 303740, Note_off_c, 0, 86, 100
2, 303740, Note_off_c, 0, 78, 100
2, 303744, Note_on_c, 0, 86, 80
2, 303744, Note_on_c, 0, 79, 80
2, 303932, Note_off_c, 0, 86, 100
2, 303932, Note_off_c, 0, 79, 100
2, 303936, Note_on_c, 0, 84, 80
2, 303936, Note_on_c, 0, 81, 80
2, 304124, Note_off_c, 0, 84, 100
2, 304124, Note_off_c, 0, 81, 100
2, 304128, Note_on_c, 0, 83, 80
2, 304508, Note_off_c, 0, 83, 100
2, 304512, Note_on_c, 0, 91, 80
2, 304512, Note_on_c, 0, 79, 80
2, 304892, Note_off_c, 0, 91, 100
2, 304896, Note_on_c, 0, 88, 80
2, 305084, Note_off_c, 0, 79, 100
2, 305084, Note_off_c, 0, 88, 100
2, 305280, Note_on_c, 0, 96, 80
2, 305280, Note_on_c, 0, 84, 80
2, 305468, Note_off_c, 0, 96, 100
2, 305468, Note_off_c, 0, 84, 100
2, 305472, Note_on_c, 0, 93, 80
2, 305472, Note_on_c, 0, 88, 80
2, 305660, Note_off_c, 0, 93, 100
2, 305660, Note_off_c, 0, 88, 100
2, 305664, Note_on_c, 0, 90, 80
2, 306044, Note_off_c, 0, 90, 100
2, 306048, Note_on_c, 0, 98, 80
2, 306048, Note_on_c, 0, 86, 80
2, 306428, Note_off_c, 0, 98, 100
2, 306432, Note_on_c, 0, 95, 80
2, 306620, Note_off_c, 0, 86, 100
2, 306620, Note_off_c, 0, 95, 100
2, 306816, Note_on_c, 0, 91, 80
2, 307004, Note_off_c, 0, 91, 100
2, 307008, Note_on_c, 0, 90, 80
2, 307196, Note_off_c, 0, 90, 100
2, 307200, Note_on_c, 0, 91, 80
2, 307580, Note_off_c, 0, 91, 100
2, 307584, Note_on_c, 0, 88, 80
2, 307964, Note_off_c, 0, 88, 100
2, 307968, Note_on_c, 0, 84, 80
2, 308348, Note_off_c, 0, 84, 100
2, 308352, Note_on_c, 0, 83, 80
2, 308352, Note_on_c, 0, 78, 80
2, 308732, Note_off_c, 0, 83, 100
2, 308732, Note_off_c, 0, 78, 100
2, 308736, Note_on_c, 0, 78, 80
2, 308736, Note_on_c, 0, 83, 80
2, 309116, Note_off_c, 0, 78, 100
2, 309120, Note_on_c, 0, 81, 80
2, 309308, Note_off_c, 0, 81, 100
2, 309312, Note_on_c, 0, 79, 80
2, 309500, Note_off_c, 0, 79, 100
2, 309504, Note_on_c, 0, 79, 80
2, 309884, Note_off_c, 0, 83, 100
2, 309884, Note_off_c, 0, 79, 100
2, 309888, Note_on_c, 0, 79, 80
2, 309888, Note_on_c, 0, 82, 80
2, 309888, Note_on_c, 0, 88, 80
2, 310268, Note_off_c, 0, 82, 100
2, 310268, Note_off_c, 0, 88, 100
2, 310272, Note_on_c, 0, 81, 80
2, 310652, Note_off_c, 0, 79, 64
2, 310656, Note_on_c, 0, 79, 80
2, 310844, Note_off_c, 0, 79, 100
2, 310848, Note_on_c, 0, 77, 80
2, 311036, Note_off_c, 0, 77, 100
2, 311040, Note_on_c, 0, 77, 80
2, 311420, Note_off_c, 0, 81, 100
2, 311420, Note_off_c, 0, 77, 100
2, 311424, Note_on_c, 0, 86, 80
2, 311424, Note_on_c, 0, 80, 80
2, 311424, Note_on_c, 0, 77, 80
2, 311804, Note_off_c, 0, 86, 100
2, 311804, Note_off_c, 0, 80, 100
2, 311808, Note_on_c, 0, 79, 80
2, 312188, Note_off_c, 0, 77, 64
2, 312192, Note_on_c, 0, 77, 80
2, 312380, Note_off_c, 0, 77, 100
2, 312384, Note_on_c, 0, 76, 80
2, 312572, Note_off_c, 0, 76, 100
2, 312576, Note_on_c, 0, 76, 80
2, 312956, Note_off_c, 0, 79, 100
2, 312956, Note_off_c, 0, 76, 100
2, 312960, Note_on_c, 0, 76, 80
2, 312960, Note_on_c, 0, 79, 80
2, 312960, Note_on_c, 0, 85, 80
2, 313340, Note_off_c, 0, 79, 100
2, 313340, Note_off_c, 0, 85, 100
2, 313344, Note_on_c, 0, 78, 80
2, 313724, Note_off_c, 0, 76, 64
2, 313728, Note_on_c, 0, 76, 80
2, 313916, Note_off_c, 0, 76, 100
2, 313920, Note_on_c, 0, 75, 80
2, 314108, Note_off_c, 0, 75, 100
2, 314112, Note_on_c, 0, 74, 80
2, 314492, Note_off_c, 0, 78, 100
2, 314492, Note_off_c, 0, 74, 100
2, 314496, Note_on_c, 0, 83, 80
2, 314496, Note_on_c, 0, 74, 80
2, 314496, Note_on_c, 0, 77, 80
2, 314876, Note_off_c, 0, 83, 100
2, 314876, Note_off_c, 0, 77, 100
2, 314880, Note_on_c, 0, 77, 80
2, 315068, Note_off_c, 0, 77, 100
2, 315072, Note_on_c, 0, 76, 80
2, 315260, Note_off_c, 0, 74, 64
2, 315264, Note_on_c, 0, 73, 80
2, 315452, Note_off_c, 0, 76, 100
2, 315456, Note_on_c, 0, 81, 80
2, 315644, Note_off_c, 0, 73, 100
2, 315644, Note_off_c, 0, 81, 100
2, 315648, Note_on_c, 0, 75, 80
2, 315648, Note_on_c, 0, 72, 80
2, 315836, Note_off_c, 0, 75, 100
2, 315840, Note_on_c, 0, 74, 80
2, 316028, Note_off_c, 0, 72, 100
2, 316032, Note_on_c, 0, 71, 80
2, 316220, Note_off_c, 0, 74, 100
2, 316224, Note_on_c, 0, 79, 80
2, 316412, Note_off_c, 0, 71, 100
2, 316412, Note_off_c, 0, 79, 100
2, 316416, Note_on_c, 0, 74, 80
2, 316604, Note_off_c, 0, 74, 100
2, 316608, Note_on_c, 0, 86, 81
2, 316796, Note_off_c, 0, 86, 100
2, 316800, Note_on_c, 0, 85, 82
2, 316988, Note_off_c, 0, 85, 100
2, 316992, Note_on_c, 0, 84, 84
2, 317180, Note_off_c, 0, 84, 100
2, 317184, Note_on_c, 0, 81, 85
2, 317372, Note_off_c, 0, 81, 100
2, 317376, Note_on_c, 0, 78, 86
2, 317564, Note_off_c, 0, 78, 100
2, 317568, Note_on_c, 0, 75, 88
2, 317756, Note_off_c, 0, 75, 100
2, 317760, Note_on_c, 0, 74, 89
2, 317948, Note_off_c, 0, 74, 100
2, 317952, Note_on_c, 0, 73, 90
2, 318140, Note_off_c, 0, 73, 100
2, 318144, Note_on_c, 0, 72, 92
2, 318332, Note_off_c, 0, 72, 100
2, 318336, Note_on_c, 0, 69, 93
2, 318524, Note_off_c, 0, 69, 100
2, 318528, Note_on_c, 0, 66, 94
2, 318696, Note_on_c, 0, 67, 80
2, 318716, Note_off_c, 0, 66, 100
2, 318720, Note_on_c, 0, 63, 80
2, 318908, Note_off_c, 0, 63, 100
2, 318912, Note_on_c, 0, 62, 80
2, 319076, Note_off_c, 0, 67, 100
2, 319100, Note_off_c, 0, 62, 100
2, 319104, Note_on_c, 0, 76, 80
2, 319104, Note_on_c, 0, 67, 80
2, 319292, Note_off_c, 0, 76, 100
2, 319296, Note_on_c, 0, 74, 80
2, 319484, Note_off_c, 0, 67, 100
2, 319484, Note_off_c, 0, 74, 100
2, 319488, Note_on_c, 0, 74, 80
2, 319676, Note_off_c, 0, 74, 100
2, 319680, Note_on_c, 0, 86, 81
2, 319868, Note_off_c, 0, 86, 100
2, 319872, Note_on_c, 0, 85, 82
2, 320060, Note_off_c, 0, 85, 100
2, 320064, Note_on_c, 0, 84, 84
2, 320252, Note_off_c, 0, 84, 100
2, 320256, Note_on_c, 0, 81, 85
2, 320444, Note_off_c, 0, 81, 100
2, 320448, Note_on_c, 0, 78, 86
2, 320636, Note_off_c, 0, 78, 100
2, 320640, Note_on_c, 0, 75, 88
2, 320828, Note_off_c, 0, 75, 100
2, 320832, Note_on_c, 0, 74, 89
2, 321020, Note_off_c, 0, 74, 100
2, 321024, Note_on_c, 0, 73, 90
2, 321212, Note_off_c, 0, 73, 100
2, 321216, Note_on_c, 0, 72, 92
2, 321404, Note_off_c, 0, 72, 100
2, 321408, Note_on_c, 0, 69, 93
2, 321596, Note_off_c, 0, 69, 100
2, 321600, Note_on_c, 0, 66, 94
2, 321768, Note_on_c, 0, 67, 80
2, 321788, Note_off_c, 0, 66, 100
2, 321792, Note_on_c, 0, 63, 80
2, 321980, Note_off_c, 0, 63, 100
2, 321984, Note_on_c, 0, 62, 80
2, 322148, Note_off_c, 0, 67, 100
2, 322172, Note_off_c, 0, 62, 100
2, 322176, Note_on_c, 0, 76, 80
2, 322176, Note_on_c, 0, 67, 80
2, 322364, Note_off_c, 0, 76, 100
2, 322368, Note_on_c, 0, 74, 80
2, 322556, Note_off_c, 0, 67, 100
2, 322556, Note_off_c, 0, 74, 100
2, 322560, Note_on_c, 0, 74, 80
2, 322748, Note_off_c, 0, 74, 100
2, 322752, Note_on_c, 0, 79, 80
2, 322752, Note_on_c, 0, 71, 80
2, 322940, Note_off_c, 0, 79, 100
2, 322940, Note_off_c, 0, 71, 100
2, 322944, Note_on_c, 0, 83, 80
2, 322944, Note_on_c, 0, 74, 80
2, 323132, Note_off_c, 0, 83, 100
2, 323132, Note_off_c, 0, 74, 100
2, 323136, Note_on_c, 0, 81, 80
2, 323136, Note_on_c, 0, 72, 80
2, 323324, Note_off_c, 0, 81, 100
2, 323324, Note_off_c, 0, 72, 100
2, 323328, Note_on_c, 0, 71, 80
2, 323328, Note_on_c, 0, 79, 80
2, 323516, Note_off_c, 0, 71, 100
2, 323520, Note_on_c, 0, 75, 80
2, 323708, Note_off_c, 0, 75, 100
2, 323712, Note_on_c, 0, 76, 80
2, 323900, Note_off_c, 0, 76, 100
2, 323904, Note_on_c, 0, 71, 80
2, 324092, Note_off_c, 0, 71, 100
2, 324096, Note_on_c, 0, 70, 80
2, 324284, Note_off_c, 0, 70, 100
2, 324288, Note_on_c, 0, 75, 80
2, 324476, Note_off_c, 0, 75, 100
2, 324480, Note_on_c, 0, 76, 80
2, 324668, Note_off_c, 0, 76, 100
2, 324672, Note_on_c, 0, 70, 80
2, 324860, Note_off_c, 0, 79, 64
2, 324860, Note_off_c, 0, 70, 100
2, 324864, Note_on_c, 0, 78, 80
2, 324864, Note_on_c, 0, 69, 80
2, 325052, Note_off_c, 0, 69, 100
2, 325056, Note_on_c, 0, 73, 80
2, 325244, Note_off_c, 0, 78, 100
2, 325244, Note_off_c, 0, 73, 100
2, 325248, Note_on_c, 0, 74, 80
2, 325440, Note_on_c, 0, 86, 80
2, 325628, Note_off_c, 0, 74, 100
2, 325628, Note_off_c, 0, 86, 100
2, 325632, Note_on_c, 0, 86, 80
2, 325820, Note_off_c, 0, 86, 100
2, 325824, Note_on_c, 0, 98, 81
2, 326012, Note_off_c, 0, 98, 100
2, 326016, Note_on_c, 0, 97, 82
2, 326204, Note_off_c, 0, 97, 100
2, 326208, Note_on_c, 0, 96, 84
2, 326396, Note_off_c, 0, 96, 100
2, 326400, Note_on_c, 0, 93, 85
2, 326588, Note_off_c, 0, 93, 100
2, 326592, Note_on_c, 0, 90, 86
2, 326780, Note_off_c, 0, 90, 100
2, 326784, Note_on_c, 0, 87, 88
2, 326972, Note_off_c, 0, 87, 100
2, 326976, Note_on_c, 0, 86, 89
2, 327164, Note_off_c, 0, 86, 100
2, 327168, Note_on_c, 0, 85, 90
2, 327356, Note_off_c, 0, 85, 100
2, 327360, Note_on_c, 0, 84, 92
2, 327548, Note_off_c, 0, 84, 100
2, 327552, Note_on_c, 0, 81, 93
2, 327740, Note_off_c, 0, 81, 100
2, 327744, Note_on_c, 0, 78, 94
2, 327912, Note_on_c, 0, 79, 80
2, 327932, Note_off_c, 0, 78, 100
2, 327936, Note_on_c, 0, 75, 80
2, 328124, Note_off_c, 0, 75, 100
2, 328128, Note_on_c, 0, 74, 80
2, 328292, Note_off_c, 0, 79, 100
2, 328316, Note_off_c, 0, 74, 100
2, 328320, Note_on_c, 0, 88, 80
2, 328320, Note_on_c, 0, 79, 80
2, 328508, Note_off_c, 0, 88, 100
2, 328512, Note_on_c, 0, 86, 80
2, 328700, Note_off_c, 0, 79, 100
2, 328700, Note_off_c, 0, 86, 100
2, 328704, Note_on_c, 0, 86, 80
2, 328892, Note_off_c, 0, 86, 100
2, 328896, Note_on_c, 0, 98, 81
2, 329084, Note_off_c, 0, 98, 100
2, 329088, Note_on_c, 0, 97, 82
2, 329276, Note_off_c, 0, 97, 100
2, 329280, Note_on_c, 0, 96, 84
2, 329468, Note_off_c, 0, 96, 100
2, 329472, Note_on_c, 0, 93, 85
2, 329660, Note_off_c, 0, 93, 100
2, 329664, Note_on_c, 0, 90, 86
2, 329852, Note_off_c, 0, 90, 100
2, 329856, Note_on_c, 0, 87, 88
2, 330044, Note_off_c, 0, 87, 100
2, 330048, Note_on_c, 0, 86, 89
2, 330236, Note_off_c, 0, 86, 100
2, 330240, Note_on_c, 0, 85, 90
2, 330428, Note_off_c, 0, 85, 100
2, 330432, Note_on_c, 0, 84, 92
2, 330620, Note_off_c, 0, 84, 100
2, 330624, Note_on_c, 0, 81, 93
2, 330812, Note_off_c, 0, 81, 100
2, 330816, Note_on_c, 0, 78, 94
2, 330984, Note_on_c, 0, 79, 80
2, 331004, Note_off_c, 0, 78, 100
2, 331008, Note_on_c, 0, 75, 80
2, 331196, Note_off_c, 0, 75, 100
2, 331200, Note_on_c, 0, 74, 80
2, 331364, Note_off_c, 0, 79, 100
2, 331388, Note_off_c, 0, 74, 100
2, 331392, Note_on_c, 0, 88, 80
2, 331392, Note_on_c, 0, 79, 80
2, 331580, Note_off_c, 0, 88, 100
2, 331584, Note_on_c, 0, 86, 80
2, 331772, Note_off_c, 0, 79, 100
2, 331772, Note_off_c, 0, 86, 100
2, 331776, Note_on_c, 0, 86, 80
2, 331964, Note_off_c, 0, 86, 100
2, 331968, Note_on_c, 0, 79, 80
2, 331968, Note_on_c, 0, 71, 80
2, 332156, Note_off_c, 0, 79, 100
2, 332156, Note_off_c, 0, 71, 100
2, 332160, Note_on_c, 0, 83, 80
2, 332160, Note_on_c, 0, 74, 80
2, 332348, Note_off_c, 0, 83, 100
2, 332348, Note_off_c, 0, 74, 100
2, 332352, Note_on_c, 0, 81, 80
2, 332352, Note_on_c, 0, 72, 80
2, 332540, Note_off_c, 0, 81, 100
2, 332540, Note_off_c, 0, 72, 100
2, 332544, Note_on_c, 0, 79, 80
2, 332544, Note_on_c, 0, 71, 80
2, 332732, Note_off_c, 0, 71, 100
2, 332736, Note_on_c, 0, 75, 80
2, 332924, Note_off_c, 0, 75, 100
2, 332928, Note_on_c, 0, 76, 80
2, 333116, Note_off_c, 0, 76, 100
2, 333120, Note_on_c, 0, 71, 80
2, 333308, Note_off_c, 0, 71, 100
2, 333312, Note_on_c, 0, 70, 80
2, 333500, Note_off_c, 0, 70, 100
2, 333504, Note_on_c, 0, 75, 80
2, 333692, Note_off_c, 0, 75, 100
2, 333696, Note_on_c, 0, 76, 80
2, 333884, Note_off_c, 0, 76, 100
2, 333888, Note_on_c, 0, 70, 80
2, 334076, Note_off_c, 0, 79, 64
2, 334076, Note_off_c, 0, 70, 100
2, 334080, Note_on_c, 0, 69, 80
2, 334080, Note_on_c, 0, 78, 80
2, 334268, Note_off_c, 0, 69, 100
2, 334272, Note_on_c, 0, 74, 80
2, 334460, Note_off_c, 0, 78, 100
2, 334460, Note_off_c, 0, 74, 100
2, 334464, Note_on_c, 0, 67, 80
2, 334464, Note_on_c, 0, 79, 80
2, 334652, Note_off_c, 0, 67, 100
2, 334656, Note_on_c, 0, 72, 80
2, 334844, Note_off_c, 0, 79, 100
2, 334844, Note_off_c, 0, 72, 100
2, 334848, Note_on_c, 0, 79, 80
2, 335036, Note_off_c, 0, 79, 100
2, 335040, Note_on_c, 0, 84, 80
2, 335040, Note_on_c, 0, 76, 80
2, 335228, Note_off_c, 0, 84, 100
2, 335228, Note_off_c, 0, 76, 100
2, 335232, Note_on_c, 0, 88, 81
2, 335232, Note_on_c, 0, 79, 81
2, 335420, Note_off_c, 0, 88, 100
2, 335420, Note_off_c, 0, 79, 100
2, 335424, Note_on_c, 0, 86, 82
2, 335424, Note_on_c, 0, 77, 82
2, 335612, Note_off_c, 0, 86, 100
2, 335612, Note_off_c, 0, 77, 100
2, 335616, Note_on_c, 0, 84, 83
2, 335616, Note_on_c, 0, 76, 83
2, 335804, Note_off_c, 0, 76, 100
2, 335808, Note_on_c, 0, 80, 84
2, 335996, Note_off_c, 0, 80, 100
2, 336000, Note_on_c, 0, 81, 85
2, 336188, Note_off_c, 0, 81, 100
2, 336192, Note_on_c, 0, 76, 86
2, 336380, Note_off_c, 0, 76, 100
2, 336384, Note_on_c, 0, 75, 87
2, 336572, Note_off_c, 0, 75, 100
2, 336576, Note_on_c, 0, 80, 88
2, 336764, Note_off_c, 0, 80, 100
2, 336768, Note_on_c, 0, 81, 89
2, 336956, Note_off_c, 0, 81, 100
2, 336960, Note_on_c, 0, 76, 90
2, 337148, Note_off_c, 0, 84, 64
2, 337148, Note_off_c, 0, 76, 100
2, 337152, Note_on_c, 0, 74, 91
2, 337152, Note_on_c, 0, 83, 91
2, 337340, Note_off_c, 0, 74, 100
2, 337344, Note_on_c, 0, 79, 92
2, 337532, Note_off_c, 0, 83, 100
2, 337532, Note_off_c, 0, 79, 100
2, 337536, Note_on_c, 0, 72, 93
2, 337536, Note_on_c, 0, 84, 93
2, 337724, Note_off_c, 0, 72, 100
2, 337728, Note_on_c, 0, 77, 94
2, 337916, Note_off_c, 0, 84, 100
2, 337916, Note_off_c, 0, 77, 100
2, 337920, Note_on_c, 0, 84, 94
2, 338108, Note_off_c, 0, 84, 100
2, 338112, Note_on_c, 0, 89, 95
2, 338112, Note_on_c, 0, 81, 95
2, 338300, Note_off_c, 0, 89, 100
2, 338300, Note_off_c, 0, 81, 100
2, 338304, Note_on_c, 0, 93, 96
2, 338304, Note_on_c, 0, 84, 96
2, 338492, Note_off_c, 0, 93, 100
2, 338492, Note_off_c, 0, 84, 100
2, 338496, Note_on_c, 0, 91, 97
2, 338496, Note_on_c, 0, 82, 97
2, 338684, Note_off_c, 0, 91, 100
2, 338684, Note_off_c, 0, 82, 100
2, 338688, Note_on_c, 0, 89, 98
2, 338688, Note_on_c, 0, 80, 98
2, 338876, Note_off_c, 0, 80, 100
2, 338880, Note_on_c, 0, 77, 99
2, 339068, Note_off_c, 0, 77, 100
2, 339072, Note_on_c, 0, 80, 100
2, 339260, Note_off_c, 0, 80, 100
2, 339264, Note_on_c, 0, 79, 101
2, 339452, Note_off_c, 0, 79, 100
2, 339456, Note_on_c, 0, 80, 102
2, 339644, Note_off_c, 0, 80, 100
2, 339648, Note_on_c, 0, 85, 103
2, 339836, Note_off_c, 0, 85, 100
2, 339840, Note_on_c, 0, 86, 104
2, 340028, Note_off_c, 0, 86, 100
2, 340032, Note_on_c, 0, 80, 105
2, 340220, Note_off_c, 0, 89, 64
2, 340220, Note_off_c, 0, 80, 100
2, 340224, Note_on_c, 0, 88, 106
2, 340224, Note_on_c, 0, 79, 106
2, 340412, Note_off_c, 0, 79, 100
2, 340416, Note_on_c, 0, 83, 107
2, 340604, Note_off_c, 0, 83, 100
2, 340608, Note_on_c, 0, 84, 108
2, 340796, Note_off_c, 0, 84, 100
2, 340800, Note_on_c, 0, 79, 109
2, 340988, Note_off_c, 0, 79, 100
2, 340992, Note_on_c, 0, 84, 109
2, 341372, Note_off_c, 0, 88, 64
2, 341372, Note_off_c, 0, 84, 100
2, 341376, Note_on_c, 0, 88, 120
2, 341376, Note_on_c, 0, 84, 120
2, 341376, Note_on_c, 0, 79, 120
2, 341376, Note_on_c, 0, 76, 120
2, 341756, Note_off_c, 0, 88, 100
2, 341756, Note_off_c, 0, 84, 100
2, 341756, Note_off_c, 0, 79, 100
2, 341756, Note_off_c, 0, 76, 100
2, 341760, Note_on_c, 0, 86, 120
2, 341760, Note_on_c, 0, 83, 120
2, 342140, Note_off_c, 0, 86, 100
2, 342140, Note_off_c, 0, 83, 100
2, 342144, Note_on_c, 0, 88, 120
2, 342144, Note_on_c, 0, 84, 120
2, 342332, Note_off_c, 0, 88, 100
2, 342332, Note_off_c, 0, 84, 100
2, 342336, Note_on_c, 0, 89, 120
2, 342336, Note_on_c, 0, 86, 120
2, 342524, Note_off_c, 0, 89, 100
2, 342524, Note_off_c, 0, 86, 100
2, 342528, Note_on_c, 0, 91, 120
2, 342528, Note_on_c, 0, 88, 120
2, 342908, Note_off_c, 0, 91, 100
2, 342908, Note_off_c, 0, 88, 100
2, 342912, Note_on_c, 0, 88, 120
2, 342912, Note_on_c, 0, 84, 120
2, 343292, Note_off_c, 0, 88, 100
2, 343292, Note_off_c, 0, 84, 100
2, 344448, Note_on_c, 0, 88, 120
2, 344448, Note_on_c, 0, 84, 120
2, 344448, Note_on_c, 0, 79, 120
2, 344448, Note_on_c, 0, 76, 120
2, 344828, Note_off_c, 0, 88, 100
2, 344828, Note_off_c, 0, 84, 100
2, 344828, Note_off_c, 0, 79, 100
2, 344828, Note_off_c, 0, 76, 100
2, 344832, Note_on_c, 0, 86, 120
2, 344832, Note_on_c, 0, 83, 120
2, 345212, Note_off_c, 0, 86, 100
2, 345212, Note_off_c, 0, 83, 100
2, 345216, Note_on_c, 0, 88, 120
2, 345216, Note_on_c, 0, 84, 120
2, 345404, Note_off_c, 0, 88, 100
2, 345404, Note_off_c, 0, 84, 100
2, 345408, Note_on_c, 0, 89, 120
2, 345408, Note_on_c, 0, 86, 120
2, 345596, Note_off_c, 0, 89, 100
2, 345596, Note_off_c, 0, 86, 100
2, 345600, Note_on_c, 0, 91, 120
2, 345600, Note_on_c, 0, 88, 120
2, 345980, Note_off_c, 0, 91, 100
2, 345980, Note_off_c, 0, 88, 100
2, 345984, Note_on_c, 0, 91, 120
2, 345984, Note_on_c, 0, 88, 120
2, 345984, Note_on_c, 0, 81, 120
2, 345984, Note_on_c, 0, 79, 120
2, 346364, Note_off_c, 0, 91, 100
2, 346364, Note_off_c, 0, 88, 100
2, 346364, Note_off_c, 0, 81, 100
2, 346364, Note_off_c, 0, 79, 100
2, 346752, Note_on_c, 0, 88, 120
2, 346752, Note_on_c, 0, 85, 120
2, 346752, Note_on_c, 0, 79, 120
2, 346752, Note_on_c, 0, 91, 120
2, 347132, Note_off_c, 0, 88, 100
2, 347132, Note_off_c, 0, 85, 100
2, 347132, Note_off_c, 0, 79, 100
2, 347132, Note_off_c, 0, 91, 100
2, 347520, Note_on_c, 0, 91, 120
2, 347520, Note_on_c, 0, 86, 120
2, 347520, Note_on_c, 0, 83, 120
2, 347520, Note_on_c, 0, 79, 120
2, 347900, Note_off_c, 0, 91, 100
2, 347900, Note_off_c, 0, 86, 100
2, 347900, Note_off_c, 0, 83, 100
2, 347900, Note_off_c, 0, 79, 100
2, 348288, Note_on_c, 0, 91, 120
2, 348288, Note_on_c, 0, 85, 120
2, 348288, Note_on_c, 0, 81, 120
2, 348288, Note_on_c, 0, 79, 120
2, 348668, Note_off_c, 0, 91, 100
2, 348668, Note_off_c, 0, 85, 100
2, 348668, Note_off_c, 0, 81, 100
2, 348668, Note_off_c, 0, 79, 100
2, 348672, Note_on_c, 0, 86, 120
2, 348672, Note_on_c, 0, 83, 120
2, 348672, Note_on_c, 0, 79, 120
2, 348672, Note_on_c, 0, 91, 120
2, 349436, Note_off_c, 0, 86, 100
2, 349436, Note_off_c, 0, 83, 100
2, 349436, Note_off_c, 0, 79, 100
2, 349436, Note_off_c, 0, 91, 100
2, 349440, Note_on_c, 0, 86, 113
2, 349440, Note_on_c, 0, 83, 113
2, 349440, Note_on_c, 0, 79, 113
2, 350588, Note_off_c, 0, 79, 64
2, 350588, Note_off_c, 0, 83, 64
2, 350588, Note_off_c, 0, 86, 64
2, 350592, Note_on_c, 0, 83, 102
2, 350592, Note_on_c, 0, 79, 102
2, 350592, Note_on_c, 0, 74, 102
2, 350972, Note_off_c, 0, 83, 100
2, 350972, Note_off_c, 0, 79, 100
2, 350972, Note_off_c, 0, 74, 100
2, 350976, Note_on_c, 0, 74, 100
2, 351164, Note_off_c, 0, 74, 100
2, 351168, Note_on_c, 0, 78, 100
2, 351356, Note_off_c, 0, 78, 100
2, 351360, Note_on_c, 0, 79, 101
2, 351548, Note_off_c, 0, 79, 100
2, 351552, Note_on_c, 0, 83, 101
2, 351740, Note_off_c, 0, 83, 100
2, 351744, Note_on_c, 0, 85, 102
2, 351932, Note_off_c, 0, 85, 100
2, 351936, Note_on_c, 0, 86, 103
2, 352124, Note_off_c, 0, 86, 100
2, 352128, Note_on_c, 0, 88, 103
2, 352316, Note_off_c, 0, 88, 100
2, 352320, Note_on_c, 0, 86, 104
2, 352508, Note_off_c, 0, 86, 100
2, 352512, Note_on_c, 0, 90, 104
2, 352700, Note_off_c, 0, 90, 100
2, 352704, Note_on_c, 0, 91, 105
2, 352892, Note_off_c, 0, 91, 100
2, 352896, Note_on_c, 0, 93, 106
2, 353084, Note_off_c, 0, 93, 100
2, 353088, Note_on_c, 0, 91, 106
2, 353276, Note_off_c, 0, 91, 100
2, 353280, Note_on_c, 0, 94, 107
2, 353468, Note_off_c, 0, 94, 100
2, 353472, Note_on_c, 0, 95, 108
2, 353660, Note_off_c, 0, 95, 100
2, 353664, Note_on_c, 0, 96, 108
2, 353852, Note_off_c, 0, 96, 100
2, 353856, Note_on_c, 0, 95, 109
2, 354044, Note_off_c, 0, 95, 100
2, 354048, Note_on_c, 0, 98, 110
2, 354428, Note_off_c, 0, 98, 100
2, 354432, Note_on_c, 0, 84, 80
2, 354432, Note_on_c, 0, 81, 80
2, 354432, Note_on_c, 0, 74, 80
2, 354812, Note_off_c, 0, 84, 100
2, 354812, Note_off_c, 0, 81, 100
2, 354812, Note_off_c, 0, 74, 100
2, 354816, Note_on_c, 0, 83, 80
2, 354816, Note_on_c, 0, 79, 80
2, 354816, Note_on_c, 0, 74, 80
2, 356348, Note_off_c, 0, 83, 100
2, 356348, Note_off_c, 0, 79, 100
2, 356348, Note_off_c, 0, 74, 100
2, 356352, Note_on_c, 0, 84, 80
2, 356352, Note_on_c, 0, 79, 80
2, 357116, Note_off_c, 0, 84, 100
2, 357116, Note_off_c, 0, 79, 100
2, 357120, Note_on_c, 0, 87, 80
2, 357120, Note_on_c, 0, 84, 80
2, 357120, Note_on_c, 0, 79, 80
2, 357884, Note_off_c, 0, 87, 100
2, 357884, Note_off_c, 0, 84, 100
2, 357884, Note_off_c, 0, 79, 100
2, 357888, Note_on_c, 0, 91, 80
2, 357888, Note_on_c, 0, 79, 80
2, 357888, Note_on_c, 0, 86, 80
2, 358652, Note_off_c, 0, 86, 100
2, 358656, Note_on_c, 0, 83, 80
2, 359420, Note_off_c, 0, 91, 100
2, 359420, Note_off_c, 0, 79, 100
2, 359420, Note_off_c, 0, 83, 100
2, 359424, Note_on_c, 0, 87, 80
2, 359424, Note_on_c, 0, 84, 80
2, 359424, Note_on_c, 0, 79, 80
2, 360188, Note_off_c, 0, 87, 100
2, 360188, Note_off_c, 0, 84, 100
2, 360188, Note_off_c, 0, 79, 100
2, 360192, Note_on_c, 0, 84, 80
2, 360192, Note_on_c, 0, 79, 80
2, 360956, Note_off_c, 0, 84, 100
2, 360956, Note_off_c, 0, 79, 100
2, 360960, Note_on_c, 0, 79, 80
2, 360960, Note_on_c, 0, 82, 80
2, 361724, Note_off_c, 0, 82, 100
2, 361728, Note_on_c, 0, 83, 80
2, 362492, Note_off_c, 0, 79, 100
2, 362492, Note_off_c, 0, 83, 100
2, 362496, Note_on_c, 0, 86, 80
2, 362496, Note_on_c, 0, 78, 80
2, 363260, Note_off_c, 0, 86, 100
2, 363260, Note_off_c, 0, 78, 100
2, 363264, Note_on_c, 0, 84, 80
2, 363264, Note_on_c, 0, 81, 80
2, 363648, Note_on_c, 0, 74, 80
2, 363836, Note_off_c, 0, 84, 100
2, 363836, Note_off_c, 0, 81, 100
2, 363840, Note_on_c, 0, 81, 80
2, 363840, Note_on_c, 0, 78, 80
2, 364028, Note_off_c, 0, 74, 100
2, 364028, Note_off_c, 0, 81, 100
2, 364028, Note_off_c, 0, 78, 100
2, 364032, Note_on_c, 0, 79, 80
2, 364032, Note_on_c, 0, 74, 80
2, 364032, Note_on_c, 0, 83, 80
2, 364128, Note_on_c, 0, 81, 80
2, 364220, Note_off_c, 0, 79, 100
2, 364224, Note_on_c, 0, 79, 80
2, 364316, Note_off_c, 0, 81, 100
2, 364320, Note_on_c, 0, 81, 80
2, 364412, Note_off_c, 0, 74, 100
2, 364412, Note_off_c, 0, 79, 100
2, 364416, Note_on_c, 0, 79, 81
2, 364508, Note_off_c, 0, 81, 100
2, 364512, Note_on_c, 0, 81, 81
2, 364604, Note_off_c, 0, 79, 100
2, 364608, Note_on_c, 0, 79, 81
2, 364700, Note_off_c, 0, 81, 100
2, 364704, Note_on_c, 0, 81, 82
2, 364796, Note_off_c, 0, 79, 100
2, 364800, Note_on_c, 0, 79, 82
2, 364892, Note_off_c, 0, 81, 100
2, 364896, Note_on_c, 0, 81, 82
2, 364988, Note_off_c, 0, 79, 100
2, 364992, Note_on_c, 0, 79, 83
2, 365084, Note_off_c, 0, 81, 100
2, 365088, Note_on_c, 0, 81, 83
2, 365180, Note_off_c, 0, 79, 100
2, 365184, Note_on_c, 0, 79, 83
2, 365276, Note_off_c, 0, 81, 100
2, 365280, Note_on_c, 0, 81, 84
2, 365372, Note_off_c, 0, 79, 100
2, 365376, Note_on_c, 0, 79, 84
2, 365468, Note_off_c, 0, 81, 100
2, 365472, Note_on_c, 0, 81, 84
2, 365564, Note_off_c, 0, 83, 100
2, 365564, Note_off_c, 0, 79, 100
2, 365568, Note_on_c, 0, 79, 84
2, 365568, Note_on_c, 0, 84, 84
2, 365660, Note_off_c, 0, 81, 64
2, 365664, Note_on_c, 0, 81, 85
2, 365756, Note_off_c, 0, 79, 100
2, 365760, Note_on_c, 0, 79, 85
2, 365852, Note_off_c, 0, 81, 100
2, 365856, Note_on_c, 0, 81, 85
2, 365948, Note_off_c, 0, 79, 100
2, 365952, Note_on_c, 0, 79, 86
2, 366044, Note_off_c, 0, 81, 100
2, 366048, Note_on_c, 0, 81, 86
2, 366140, Note_off_c, 0, 79, 100
2, 366144, Note_on_c, 0, 79, 86
2, 366236, Note_off_c, 0, 81, 100
2, 366240, Note_on_c, 0, 81, 87
2, 366332, Note_off_c, 0, 84, 100
2, 366332, Note_off_c, 0, 79, 100
2, 366336, Note_on_c, 0, 79, 87
2, 366336, Note_on_c, 0, 88, 87
2, 366428, Note_off_c, 0, 81, 100
2, 366432, Note_on_c, 0, 81, 87
2, 366524, Note_off_c, 0, 79, 100
2, 366528, Note_on_c, 0, 79, 88
2, 366620, Note_off_c, 0, 81, 100
2, 366624, Note_on_c, 0, 81, 88
2, 366716, Note_off_c, 0, 79, 100
2, 366720, Note_on_c, 0, 79, 88
2, 366812, Note_off_c, 0, 81, 100
2, 366816, Note_on_c, 0, 81, 89
2, 366908, Note_off_c, 0, 79, 100
2, 366912, Note_on_c, 0, 79, 89
2, 367004, Note_off_c, 0, 81, 100
2, 367008, Note_on_c, 0, 81, 89
2, 367100, Note_off_c, 0, 88, 100
2, 367100, Note_off_c, 0, 79, 100
2, 367104, Note_on_c, 0, 79, 89
2, 367104, Note_on_c, 0, 91, 89
2, 367196, Note_off_c, 0, 81, 64
2, 367200, Note_on_c, 0, 81, 90
2, 367292, Note_off_c, 0, 79, 100
2, 367296, Note_on_c, 0, 79, 90
2, 367388, Note_off_c, 0, 81, 100
2, 367392, Note_on_c, 0, 81, 90
2, 367484, Note_off_c, 0, 79, 100
2, 367488, Note_on_c, 0, 79, 91
2, 367580, Note_off_c, 0, 81, 100
2, 367584, Note_on_c, 0, 81, 91
2, 367676, Note_off_c, 0, 79, 100
2, 367680, Note_on_c, 0, 79, 91
2, 367772, Note_off_c, 0, 81, 100
2, 367776, Note_on_c, 0, 81, 92
2, 367868, Note_off_c, 0, 79, 100
2, 367872, Note_on_c, 0, 79, 92
2, 367964, Note_off_c, 0, 81, 100
2, 367968, Note_on_c, 0, 81, 92
2, 368060, Note_off_c, 0, 79, 100
2, 368064, Note_on_c, 0, 79, 93
2, 368156, Note_off_c, 0, 81, 100
2, 368160, Note_on_c, 0, 81, 93
2, 368252, Note_off_c, 0, 79, 100
2, 368256, Note_on_c, 0, 79, 93
2, 368348, Note_off_c, 0, 81, 100
2, 368352, Note_on_c, 0, 81, 94
2, 368444, Note_off_c, 0, 79, 100
2, 368448, Note_on_c, 0, 79, 94
2, 368540, Note_off_c, 0, 81, 100
2, 368544, Note_on_c, 0, 81, 94
2, 368636, Note_off_c, 0, 91, 100
2, 368636, Note_off_c, 0, 79, 100
2, 368640, Note_on_c, 0, 79, 94
2, 368640, Note_on_c, 0, 88, 94
2, 368732, Note_off_c, 0, 81, 64
2, 368736, Note_on_c, 0, 81, 95
2, 368828, Note_off_c, 0, 79, 100
2, 368832, Note_on_c, 0, 79, 95
2, 368924, Note_off_c, 0, 81, 100
2, 368928, Note_on_c, 0, 81, 95
2, 369020, Note_off_c, 0, 79, 100
2, 369024, Note_on_c, 0, 79, 96
2, 369116, Note_off_c, 0, 81, 100
2, 369120, Note_on_c, 0, 81, 96
2, 369212, Note_off_c, 0, 79, 100
2, 369216, Note_on_c, 0, 79, 96
2, 369308, Note_off_c, 0, 81, 100
2, 369312, Note_on_c, 0, 81, 97
2, 369404, Note_off_c, 0, 88, 100
2, 369404, Note_off_c, 0, 79, 100
2, 369408, Note_on_c, 0, 79, 97
2, 369408, Note_on_c, 0, 84, 97
2, 369500, Note_off_c, 0, 81, 100
2, 369504, Note_on_c, 0, 81, 97
2, 369596, Note_off_c, 0, 79, 100
2, 369600, Note_on_c, 0, 79, 98
2, 369692, Note_off_c, 0, 81, 100
2, 369696, Note_on_c, 0, 81, 98
2, 369788, Note_off_c, 0, 79, 100
2, 369792, Note_on_c, 0, 79, 98
2, 369884, Note_off_c, 0, 81, 100
2, 369888, Note_on_c, 0, 81, 99
2, 369980, Note_off_c, 0, 79, 100
2, 369984, Note_on_c, 0, 79, 99
2, 370076, Note_off_c, 0, 81, 100
2, 370080, Note_on_c, 0, 81, 99
2, 370172, Note_off_c, 0, 84, 100
2, 370172, Note_off_c, 0, 79, 100
2, 370176, Note_on_c, 0, 79, 99
2, 370176, Note_on_c, 0, 82, 99
2, 370268, Note_off_c, 0, 81, 64
2, 370272, Note_on_c, 0, 81, 100
2, 370364, Note_off_c, 0, 79, 100
2, 370368, Note_on_c, 0, 79, 100
2, 370460, Note_off_c, 0, 81, 100
2, 370464, Note_on_c, 0, 81, 100
2, 370556, Note_off_c, 0, 82, 100
2, 370556, Note_off_c, 0, 79, 100
2, 370560, Note_on_c, 0, 79, 101
2, 370560, Note_on_c, 0, 83, 101
2, 370652, Note_off_c, 0, 81, 100
2, 370656, Note_on_c, 0, 81, 101
2, 370748, Note_off_c, 0, 79, 100
2, 370752, Note_on_c, 0, 79, 101
2, 370844, Note_off_c, 0, 81, 100
2, 370848, Note_on_c, 0, 81, 102
2, 370940, Note_off_c, 0, 79, 100
2, 370944, Note_on_c, 0, 79, 102
2, 371036, Note_off_c, 0, 81, 100
2, 371040, Note_on_c, 0, 81, 102
2, 371132, Note_off_c, 0, 79, 100
2, 371136, Note_on_c, 0, 79, 103
2, 371228, Note_off_c, 0, 81, 100
2, 371232, Note_on_c, 0, 81, 103
2, 371324, Note_off_c, 0, 83, 100
2, 371324, Note_off_c, 0, 79, 100
2, 371328, Note_on_c, 0, 79, 103
2, 371328, Note_on_c, 0, 86, 103
2, 371420, Note_off_c, 0, 81, 100
2, 371424, Note_on_c, 0, 81, 104
2, 371516, Note_off_c, 0, 79, 100
2, 371520, Note_on_c, 0, 79, 104
2, 371612, Note_off_c, 0, 81, 100
2, 371616, Note_on_c, 0, 81, 104
2, 371708, Note_off_c, 0, 86, 100
2, 371708, Note_off_c, 0, 79, 100
2, 371712, Note_off_c, 0, 81, 100
2, 371712, Note_on_c, 0, 86, 104
2, 371808, Note_on_c, 0, 88, 105
2, 371900, Note_off_c, 0, 86, 100
2, 371904, Note_on_c, 0, 86, 105
2, 371996, Note_off_c, 0, 88, 100
2, 372000, Note_on_c, 0, 88, 105
2, 372092, Note_off_c, 0, 86, 100
2, 372096, Note_on_c, 0, 86, 106
2, 372096, Note_on_c, 0, 74, 106
2, 372188, Note_off_c, 0, 88, 100
2, 372192, Note_on_c, 0, 88, 106
2, 372284, Note_off_c, 0, 86, 100
2, 372288, Note_on_c, 0, 86, 106
2, 372380, Note_off_c, 0, 88, 100
2, 372384, Note_on_c, 0, 88, 107
2, 372476, Note_off_c, 0, 74, 100
2, 372476, Note_off_c, 0, 86, 100
2, 372480, Note_on_c, 0, 86, 107
2, 372572, Note_off_c, 0, 88, 100
2, 372576, Note_on_c, 0, 88, 107
2, 372668, Note_off_c, 0, 86, 100
2, 372672, Note_on_c, 0, 86, 108
2, 372764, Note_off_c, 0, 88, 100
2, 372768, Note_on_c, 0, 88, 108
2, 372860, Note_off_c, 0, 86, 100
2, 372864, Note_on_c, 0, 86, 108
2, 372956, Note_off_c, 0, 88, 100
2, 372960, Note_on_c, 0, 88, 109
2, 373052, Note_off_c, 0, 86, 100
2, 373056, Note_on_c, 0, 85, 109
2, 373148, Note_off_c, 0, 88, 100
2, 373152, Note_on_c, 0, 86, 109
2, 373244, Note_off_c, 0, 85, 100
2, 373248, Control_c, 0, 64, 127
2, 373248, Note_on_c, 0, 98, 120
2, 373248, Note_on_c, 0, 95, 120
2, 373248, Note_on_c, 0, 89, 120
2, 373248, Note_on_c, 0, 86, 120
2, 373340, Note_off_c, 0, 86, 64
2, 373628, Note_off_c, 0, 98, 100
2, 373628, Note_off_c, 0, 95, 100
2, 373628, Note_off_c, 0, 89, 100
2, 373628, Note_off_c, 0, 86, 100
2, 373632, Note_on_c, 0, 95, 120
2, 373632, Note_on_c, 0, 89, 120
2, 373632, Note_on_c, 0, 86, 120
2, 373632, Note_on_c, 0, 98, 120
2, 374396, Note_off_c, 0, 95, 100
2, 374396, Note_off_c, 0, 89, 100
2, 374396, Note_off_c, 0, 86, 100
2, 374396, Note_off_c, 0, 98, 100
2, 374400, Note_on_c, 0, 96, 120
2, 374400, Note_on_c, 0, 89, 120
2, 374400, Note_on_c, 0, 86, 120
2, 374400, Note_on_c, 0, 84, 120
2, 374780, Note_off_c, 0, 96, 100
2, 374780, Note_off_c, 0, 89, 100
2, 374780, Note_off_c, 0, 86, 100
2, 374780, Note_off_c, 0, 84, 100
2, 374784, Note_on_c, 0, 95, 120
2, 374784, Note_on_c, 0, 89, 120
2, 374784, Note_on_c, 0, 86, 120
2, 374784, Note_on_c, 0, 83, 120
2, 375164, Note_off_c, 0, 95, 100
2, 375164, Note_off_c, 0, 89, 100
2, 375164, Note_off_c, 0, 86, 100
2, 375164, Note_off_c, 0, 83, 100
2, 375168, Note_on_c, 0, 96, 120
2, 375168, Note_on_c, 0, 89, 120
2, 375168, Note_on_c, 0, 86, 120
2, 375168, Note_on_c, 0, 84, 120
2, 375548, Note_off_c, 0, 96, 100
2, 375548, Note_off_c, 0, 89, 100
2, 375548, Note_off_c, 0, 86, 100
2, 375548, Note_off_c, 0, 84, 100
2, 375552, Note_on_c, 0, 98, 120
2, 375552, Note_on_c, 0, 89, 120
2, 375552, Note_on_c, 0, 86, 120
2, 375928, Control_c, 0, 64, 0
2, 375932, Note_off_c, 0, 98, 100
2, 375932, Note_off_c, 0, 89, 100
2, 375932, Note_off_c, 0, 86, 100
2, 375936, Note_on_c, 0, 95, 80
2, 375936, Note_on_c, 0, 88, 80
2, 375936, Note_on_c, 0, 86, 80
2, 375936, Note_on_c, 0, 83, 80
2, 376316, Note_off_c, 0, 95, 100
2, 376316, Note_off_c, 0, 88, 100
2, 376316, Note_off_c, 0, 86, 100
2, 376316, Note_off_c, 0, 83, 100
2, 376320, Note_on_c, 0, 96, 80
2, 376320, Note_on_c, 0, 88, 80
2, 376320, Note_on_c, 0, 84, 80
2, 376700, Note_off_c, 0, 96, 100
2, 376700, Note_off_c, 0, 88, 100
2, 376700, Note_off_c, 0, 84, 100
2, 376704, Note_on_c, 0, 95, 80
2, 376704, Note_on_c, 0, 88, 80
2, 376704, Note_on_c, 0, 86, 80
2, 376704, Note_on_c, 0, 83, 80
2, 377084, Note_off_c, 0, 95, 100
2, 377084, Note_off_c, 0, 88, 100
2, 377084, Note_off_c, 0, 86, 100
2, 377084, Note_off_c, 0, 83, 100
2, 377088, Note_on_c, 0, 96, 80
2, 377088, Note_on_c, 0, 88, 80
2, 377088, Note_on_c, 0, 84, 80
2, 377468, Note_off_c, 0, 96, 100
2, 377468, Note_off_c, 0, 88, 100
2, 377468, Note_off_c, 0, 84, 100
2, 377472, Note_on_c, 0, 93, 80
2, 377472, Note_on_c, 0, 88, 80
2, 377472, Note_on_c, 0, 84, 80
2, 377472, Note_on_c, 0, 81, 80
2, 377852, Note_off_c, 0, 93, 100
2, 377852, Note_off_c, 0, 88, 100
2, 377852, Note_off_c, 0, 84, 100
2, 377852, Note_off_c, 0, 81, 100
2, 377856, Note_on_c, 0, 91, 80
2, 377856, Note_on_c, 0, 88, 80
2, 377856, Note_on_c, 0, 81, 80
2, 378236, Note_off_c, 0, 91, 100
2, 378236, Note_off_c, 0, 88, 100
2, 378236, Note_off_c, 0, 81, 100
2, 378240, Note_on_c, 0, 91, 80
2, 378240, Note_on_c, 0, 85, 80
2, 378240, Note_on_c, 0, 81, 80
2, 378620, Note_off_c, 0, 91, 100
2, 378620, Note_off_c, 0, 85, 100
2, 378620, Note_off_c, 0, 81, 100
2, 378624, Note_on_c, 0, 90, 80
2, 378624, Note_on_c, 0, 84, 80
2, 378624, Note_on_c, 0, 81, 80
2, 379004, Note_off_c, 0, 90, 100
2, 379004, Note_off_c, 0, 84, 100
2, 379004, Note_off_c, 0, 81, 100
2, 379008, Note_on_c, 0, 93, 80
2, 379008, Note_on_c, 0, 84, 80
2, 379008, Note_on_c, 0, 81, 80
2, 379388, Note_off_c, 0, 93, 100
2, 379388, Note_off_c, 0, 84, 100
2, 379388, Note_off_c, 0, 81, 100
2, 379392, Note_on_c, 0, 91, 80
2, 379392, Note_on_c, 0, 83, 80
2, 379392, Note_on_c, 0, 79, 80
2, 379772, Note_off_c, 0, 91, 100
2, 379772, Note_off_c, 0, 83, 100
2, 379772, Note_off_c, 0, 79, 100
2, 379776, Note_on_c, 0, 86, 83
2, 379776, Note_on_c, 0, 83, 83
2, 379776, Note_on_c, 0, 74, 83
2, 380156, Note_off_c, 0, 86, 100
2, 380156, Note_off_c, 0, 83, 100
2, 380156, Note_off_c, 0, 74, 100
2, 380160, Note_on_c, 0, 90, 87
2, 380160, Note_on_c, 0, 84, 87
2, 380160, Note_on_c, 0, 78, 87
2, 380540, Note_off_c, 0, 90, 100
2, 380540, Note_off_c, 0, 84, 100
2, 380540, Note_off_c, 0, 78, 100
2, 380544, Note_on_c, 0, 93, 91
2, 380544, Note_on_c, 0, 90, 91
2, 380544, Note_on_c, 0, 84, 91
2, 380544, Note_on_c, 0, 81, 91
2, 380924, Note_off_c, 0, 93, 100
2, 380924, Note_off_c, 0, 90, 100
2, 380924, Note_off_c, 0, 84, 100
2, 380924, Note_off_c, 0, 81, 100
2, 380928, Note_on_c, 0, 91, 95
2, 380928, Note_on_c, 0, 83, 95
2, 380928, Note_on_c, 0, 79, 95
2, 381308, Note_off_c, 0, 91, 100
2, 381308, Note_off_c, 0, 83, 100
2, 381308, Note_off_c, 0, 79, 100
2, 381312, Note_on_c, 0, 86, 99
2, 381312, Note_on_c, 0, 83, 99
2, 381312, Note_on_c, 0, 74, 99
2, 381692, Note_off_c, 0, 86, 100
2, 381692, Note_off_c, 0, 83, 100
2, 381692, Note_off_c, 0, 74, 100
2, 381696, Note_on_c, 0, 90, 103
2, 381696, Note_on_c, 0, 84, 103
2, 381696, Note_on_c, 0, 78, 103
2, 382076, Note_off_c, 0, 90, 100
2, 382076, Note_off_c, 0, 84, 100
2, 382076, Note_off_c, 0, 78, 100
2, 382080, Note_on_c, 0, 93, 107
2, 382080, Note_on_c, 0, 90, 107
2, 382080, Note_on_c, 0, 84, 107
2, 382080, Note_on_c, 0, 81, 107
2, 382460, Note_off_c, 0, 93, 100
2, 382460, Note_off_c, 0, 90, 100
2, 382460, Note_off_c, 0, 84, 100
2, 382460, Note_off_c, 0, 81, 100
2, 382464, Note_on_c, 0, 79, 110
2, 382652, Note_off_c, 0, 79, 100
2, 382656, Note_on_c, 0, 91, 110
2, 382844, Note_off_c, 0, 91, 100
2, 382848, Note_on_c, 0, 74, 110
2, 383036, Note_off_c, 0, 74, 100
2, 383040, Note_on_c, 0, 86, 110
2, 383228, Note_off_c, 0, 86, 100
2, 383232, Note_on_c, 0, 78, 110
2, 383420, Note_off_c, 0, 78, 100
2, 383424, Note_on_c, 0, 90, 110
2, 383612, Note_off_c, 0, 90, 100
2, 383616, Note_on_c, 0, 81, 110
2, 383804, Note_off_c, 0, 81, 100
2, 383808, Note_on_c, 0, 93, 110
2, 383996, Note_off_c, 0, 93, 100
2, 384000, Note_on_c, 0, 79, 110
2, 384188, Note_off_c, 0, 79, 100
2, 384192, Note_on_c, 0, 91, 110
2, 384380, Note_off_c, 0, 91, 100
2, 384384, Note_on_c, 0, 74, 110
2, 384572, Note_off_c, 0, 74, 100
2, 384576, Note_on_c, 0, 86, 110
2, 384764, Note_off_c, 0, 86, 100
2, 384768, Note_on_c, 0, 78, 110
2, 384956, Note_off_c, 0, 78, 100
2, 384960, Note_on_c, 0, 90, 110
2, 385148, Note_off_c, 0, 90, 100
2, 385152, Note_on_c, 0, 81, 110
2, 385340, Note_off_c, 0, 81, 100
2, 385344, Note_on_c, 0, 93, 110
2, 385532, Note_off_c, 0, 93, 100
2, 385536, Note_on_c, 0, 91, 120
2, 385536, Note_on_c, 0, 79, 120
2, 385916, Note_off_c, 0, 91, 100
2, 385916, Note_off_c, 0, 79, 100
2, 386304, Note_on_c, 0, 93, 120
2, 386304, Note_on_c, 0, 81, 120
2, 386684, Note_off_c, 0, 93, 100
2, 386684, Note_off_c, 0, 81, 100
2, 387072, Note_on_c, 0, 95, 120
2, 387072, Note_on_c, 0, 83, 120
2, 390140, Note_off_c, 0, 83, 64
2, 390140, Note_off_c, 0, 95, 64
2, 390144, Note_on_c, 0, 95, 120
2, 390144, Note_on_c, 0, 83, 120
2, 390524, Note_off_c, 0, 95, 100
2, 390524, Note_off_c, 0, 83, 100
2, 390912, Note_on_c, 0, 96, 120
2, 390912, Note_on_c, 0, 84, 120
2, 391292, Note_off_c, 0, 96, 100
2, 391292, Note_off_c, 0, 84, 100
2, 391680, Note_on_c, 0, 98, 120
2, 391680, Note_on_c, 0, 86, 120
2, 393980, Note_off_c, 0, 86, 64
2, 393980, Note_off_c, 0, 98, 64
2, 394752, Note_on_c, 0, 86, 70
2, 394752, Note_on_c, 0, 79, 70
2, 394752, Note_on_c, 0, 74, 70
2, 395132, Note_off_c, 0, 86, 100
2, 395132, Note_off_c, 0, 79, 100
2, 395132, Note_off_c, 0, 74, 100
2, 395136, Note_on_c, 0, 86, 70
2, 395136, Note_on_c, 0, 79, 70
2, 395136, Note_on_c, 0, 74, 70
2, 395900, Note_off_c, 0, 86, 100
2, 395900, Note_off_c, 0, 79, 100
2, 395900, Note_off_c, 0, 74, 100
2, 395904, Note_on_c, 0, 84, 70
2, 395904, Note_on_c, 0, 79, 70
2, 395904, Note_on_c, 0, 75, 70
2, 396284, Note_off_c, 0, 84, 100
2, 396284, Note_off_c, 0, 79, 100
2, 396284, Note_off_c, 0, 75, 100
2, 396288, Note_on_c, 0, 83, 70
2, 396288, Note_on_c, 0, 79, 70
2, 396288, Note_on_c, 0, 77, 70
2, 396668, Note_off_c, 0, 83, 100
2, 396668, Note_off_c, 0, 79, 100
2, 396668, Note_off_c, 0, 77, 100
2, 396672, Note_on_c, 0, 84, 70
2, 396672, Note_on_c, 0, 79, 70
2, 396672, Note_on_c, 0, 75, 70
2, 397052, Note_off_c, 0, 84, 100
2, 397052, Note_off_c, 0, 79, 100
2, 397052, Note_off_c, 0, 75, 100
2, 397056, Note_on_c, 0, 86, 70
2, 397056, Note_on_c, 0, 79, 70
2, 397056, Note_on_c, 0, 74, 70
2, 397436, Note_off_c, 0, 86, 100
2, 397436, Note_off_c, 0, 79, 100
2, 397436, Note_off_c, 0, 74, 100
2, 397440, Note_on_c, 0, 83, 70
2, 397440, Note_on_c, 0, 79, 70
2, 397440, Note_on_c, 0, 77, 70
2, 397820, Note_off_c, 0, 83, 100
2, 397820, Note_off_c, 0, 79, 100
2, 397820, Note_off_c, 0, 77, 100
2, 397824, Note_on_c, 0, 87, 70
2, 397824, Note_on_c, 0, 79, 70
2, 397824, Note_on_c, 0, 75, 70
2, 398204, Note_off_c, 0, 87, 100
2, 398204, Note_off_c, 0, 79, 100
2, 398204, Note_off_c, 0, 75, 100
2, 398208, Note_on_c, 0, 87, 70
2, 398208, Note_on_c, 0, 79, 70
2, 398208, Note_on_c, 0, 75, 70
2, 398972, Note_off_c, 0, 87, 100
2, 398972, Note_off_c, 0, 79, 100
2, 398972, Note_off_c, 0, 75, 100
2, 398976, Note_on_c, 0, 86, 70
2, 398976, Note_on_c, 0, 79, 70
2, 398976, Note_on_c, 0, 77, 70
2, 398976, Note_on_c, 0, 74, 70
2, 399356, Note_off_c, 0, 86, 100
2, 399356, Note_off_c, 0, 79, 100
2, 399356, Note_off_c, 0, 77, 100
2, 399356, Note_off_c, 0, 74, 100
2, 399360, Note_on_c, 0, 84, 70
2, 399360, Note_on_c, 0, 79, 70
2, 399360, Note_on_c, 0, 75, 70
2, 399740, Note_off_c, 0, 84, 100
2, 399740, Note_off_c, 0, 79, 100
2, 399740, Note_off_c, 0, 75, 100
2, 399744, Note_on_c, 0, 86, 70
2, 399744, Note_on_c, 0, 79, 70
2, 399744, Note_on_c, 0, 77, 70
2, 399744, Note_on_c, 0, 74, 70
2, 400124, Note_off_c, 0, 86, 100
2, 400124, Note_off_c, 0, 79, 100
2, 400124, Note_off_c, 0, 77, 100
2, 400124, Note_off_c, 0, 74, 100
2, 400128, Note_on_c, 0, 87, 70
2, 400128, Note_on_c, 0, 79, 70
2, 400128, Note_on_c, 0, 75, 70
2, 400508, Note_off_c, 0, 87, 100
2, 400508, Note_off_c, 0, 79, 100
2, 400508, Note_off_c, 0, 75, 100
2, 400512, Note_on_c, 0, 84, 70
2, 400512, Note_on_c, 0, 79, 70
2, 400512, Note_on_c, 0, 75, 70
2, 400892, Note_off_c, 0, 84, 100
2, 400892, Note_off_c, 0, 79, 100
2, 400892, Note_off_c, 0, 75, 100
2, 400896, Note_on_c, 0, 89, 70
2, 400896, Note_on_c, 0, 80, 70
2, 400896, Note_on_c, 0, 77, 70
2, 401276, Note_off_c, 0, 89, 100
2, 401276, Note_off_c, 0, 80, 100
2, 401276, Note_off_c, 0, 77, 100
2, 401280, Note_on_c, 0, 89, 75
2, 401280, Note_on_c, 0, 80, 75
2, 401280, Note_on_c, 0, 77, 75
2, 402044, Note_off_c, 0, 89, 100
2, 402044, Note_off_c, 0, 80, 100
2, 402044, Note_off_c, 0, 77, 100
2, 402048, Note_on_c, 0, 87, 86
2, 402048, Note_on_c, 0, 79, 86
2, 402048, Note_on_c, 0, 75, 86
2, 402428, Note_off_c, 0, 87, 100
2, 402428, Note_off_c, 0, 79, 100
2, 402428, Note_off_c, 0, 75, 100
2, 402432, Note_on_c, 0, 86, 91
2, 402432, Note_on_c, 0, 77, 91
2, 402432, Note_on_c, 0, 74, 91
2, 402812, Note_off_c, 0, 86, 100
2, 402812, Note_off_c, 0, 77, 100
2, 402812, Note_off_c, 0, 74, 100
2, 402816, Note_on_c, 0, 87, 97
2, 402816, Note_on_c, 0, 79, 97
2, 402816, Note_on_c, 0, 75, 97
2, 403196, Note_off_c, 0, 87, 100
2, 403196, Note_off_c, 0, 79, 100
2, 403196, Note_off_c, 0, 75, 100
2, 403200, Note_on_c, 0, 89, 102
2, 403200, Note_on_c, 0, 80, 102
2, 403200, Note_on_c, 0, 77, 102
2, 403580, Note_off_c, 0, 89, 100
2, 403580, Note_off_c, 0, 80, 100
2, 403580, Note_off_c, 0, 77, 100
2, 403584, Note_on_c, 0, 86, 108
2, 403584, Note_on_c, 0, 82, 108
2, 403584, Note_on_c, 0, 77, 108
2, 403584, Note_on_c, 0, 74, 108
2, 403964, Note_off_c, 0, 86, 100
2, 403964, Note_off_c, 0, 82, 100
2, 403964, Note_off_c, 0, 77, 100
2, 403964, Note_off_c, 0, 74, 100
2, 403968, Key_signature, -3, "major"
2, 403968, Note_on_c, 0, 91, 110
2, 403968, Note_on_c, 0, 87, 110
2, 403968, Note_on_c, 0, 79, 110
2, 404348, Note_off_c, 0, 91, 100
2, 404348, Note_off_c, 0, 87, 100
2, 404348, Note_off_c, 0, 79, 100
2, 404736, Note_on_c, 0, 92, 110
2, 404736, Note_on_c, 0, 89, 110
2, 404736, Note_on_c, 0, 80, 110
2, 405116, Note_off_c, 0, 92, 100
2, 405116, Note_off_c, 0, 89, 100
2, 405116, Note_off_c, 0, 80, 100
2, 405504, Note_on_c, 0, 94, 110
2, 405504, Note_on_c, 0, 91, 110
2, 405504, Note_on_c, 0, 82, 110
2, 407036, Note_off_c, 0, 94, 100
2, 407036, Note_off_c, 0, 91, 100
2, 407036, Note_off_c, 0, 82, 100
2, 407808, Note_on_c, 0, 67, 80
2, 407808, Note_on_c, 0, 63, 80
2, 408188, Note_off_c, 0, 67, 100
2, 408188, Note_off_c, 0, 63, 100
2, 408576, Note_on_c, 0, 68, 80
2, 408576, Note_on_c, 0, 65, 80
2, 408956, Note_off_c, 0, 68, 100
2, 408956, Note_off_c, 0, 65, 100
2, 409344, Note_on_c, 0, 70, 80
2, 409344, Note_on_c, 0, 67, 80
2, 410876, Note_off_c, 0, 67, 100
2, 410876, Note_off_c, 0, 70, 100
2, 411264, Control_c, 0, 64, 127
2, 414528, Note_on_c, 0, 51, 120
2, 414716, Note_off_c, 0, 51, 100
2, 414720, Note_on_c, 0, 63, 120
2, 415292, Note_off_c, 0, 63, 100
2, 415296, Note_on_c, 0, 63, 120
2, 415484, Note_off_c, 0, 63, 100
2, 415488, Note_on_c, 0, 63, 120
2, 417400, Control_c, 0, 64, 0
2, 417596, Note_off_c, 0, 63, 100
2, 417600, Note_on_c, 0, 46, 80
2, 417788, Note_off_c, 0, 46, 100
2, 417792, Note_on_c, 0, 51, 80
2, 418364, Note_off_c, 0, 51, 100
2, 418368, Note_on_c, 0, 51, 80
2, 418556, Note_off_c, 0, 51, 100
2, 418560, Note_on_c, 0, 51, 80
2, 418940, Note_off_c, 0, 51, 100
2, 418944, Note_on_c, 0, 53, 80
2, 419132, Note_off_c, 0, 53, 100
2, 419136, Note_on_c, 0, 51, 80
2, 419324, Note_off_c, 0, 51, 100
2, 419328, Note_on_c, 0, 51, 80
2, 419708, Note_off_c, 0, 51, 100
2, 419712, Note_on_c, 0, 48, 80
2, 420092, Note_off_c, 0, 48, 100
2, 420096, Note_on_c, 0, 48, 80
2, 420860, Note_off_c, 0, 48, 100
2, 420864, Note_on_c, 0, 56, 80
2, 421244, Note_off_c, 0, 56, 100
2, 421248, Note_on_c, 0, 56, 80
2, 421436, Note_off_c, 0, 56, 100
2, 421440, Note_on_c, 0, 55, 80
2, 421628, Note_off_c, 0, 55, 100
2, 421632, Note_on_c, 0, 53, 80
2, 422012, Note_off_c, 0, 53, 100
2, 422016, Note_on_c, 0, 53, 80
2, 422204, Note_off_c, 0, 53, 100
2, 422208, Note_on_c, 0, 51, 80
2, 422396, Note_off_c, 0, 51, 100
2, 422400, Note_on_c, 0, 50, 80
2, 422780, Note_off_c, 0, 50, 100
2, 423168, Note_on_c, 0, 50, 80
2, 423932, Note_off_c, 0, 50, 100
2, 423936, Note_on_c, 0, 58, 80
2, 424316, Note_off_c, 0, 58, 100
2, 424320, Note_on_c, 0, 58, 80
2, 424508, Note_off_c, 0, 58, 100
2, 424512, Note_on_c, 0, 56, 80
2, 424700, Note_off_c, 0, 56, 100
2, 424704, Note_on_c, 0, 55, 80
2, 425084, Note_off_c, 0, 55, 100
2, 425088, Note_on_c, 0, 55, 80
2, 425276, Note_off_c, 0, 55, 100
2, 425280, Note_on_c, 0, 53, 80
2, 425468, Note_off_c, 0, 53, 100
2, 425472, Note_on_c, 0, 52, 80
2, 425852, Note_off_c, 0, 52, 100
2, 426240, Note_on_c, 0, 52, 80
2, 427004, Note_off_c, 0, 52, 100
2, 427008, Note_on_c, 0, 60, 80
2, 427388, Note_off_c, 0, 60, 100
2, 427392, Note_on_c, 0, 60, 80
2, 427580, Note_off_c, 0, 60, 100
2, 427584, Note_on_c, 0, 58, 80
2, 427772, Note_off_c, 0, 58, 100
2, 427776, Note_on_c, 0, 56, 81
2, 428156, Note_off_c, 0, 56, 100
2, 428160, Note_on_c, 0, 56, 81
2, 428348, Note_off_c, 0, 56, 100
2, 428352, Note_on_c, 0, 55, 82
2, 428540, Note_off_c, 0, 55, 100
2, 428544, Note_on_c, 0, 53, 82
2, 428924, Note_off_c, 0, 53, 100
2, 428928, Note_on_c, 0, 53, 83
2, 429116, Note_off_c, 0, 53, 100
2, 429120, Note_on_c, 0, 55, 83
2, 429308, Note_off_c, 0, 55, 100
2, 429312, Note_on_c, 0, 56, 83
2, 429692, Note_off_c, 0, 56, 100
2, 429696, Note_on_c, 0, 56, 84
2, 429884, Note_off_c, 0, 56, 100
2, 429888, Note_on_c, 0, 58, 84
2, 430076, Note_off_c, 0, 58, 100
2, 430080, Note_on_c, 0, 55, 85
2, 430460, Note_off_c, 0, 55, 100
2, 430464, Note_on_c, 0, 55, 85
2, 430652, Note_off_c, 0, 55, 100
2, 430656, Note_on_c, 0, 53, 86
2, 430844, Note_off_c, 0, 53, 100
2, 430848, Note_on_c, 0, 51, 86
2, 431228, Note_off_c, 0, 51, 100
2, 431424, Note_on_c, 0, 65, 87
2, 431612, Note_off_c, 0, 65, 100
2, 431616, Note_on_c, 0, 70, 87
2, 432188, Note_off_c, 0, 70, 100
2, 432192, Note_on_c, 0, 70, 88
2, 432380, Note_off_c, 0, 70, 100
2, 432384, Note_on_c, 0, 70, 89
2, 432764, Note_off_c, 0, 70, 100
2, 432768, Note_on_c, 0, 72, 89
2, 432956, Note_off_c, 0, 72, 100
2, 432960, Note_on_c, 0, 70, 90
2, 433148, Note_off_c, 0, 70, 100
2, 433152, Note_on_c, 0, 70, 90
2, 433152, Note_on_c, 0, 63, 90
2, 433532, Note_off_c, 0, 70, 100
2, 433536, Note_on_c, 0, 67, 91
2, 433724, Note_off_c, 0, 63, 100
2, 433728, Note_on_c, 0, 63, 91
2, 433916, Note_off_c, 0, 67, 100
2, 433916, Note_off_c, 0, 63, 100
2, 433920, Note_on_c, 0, 63, 91
2, 433920, Note_on_c, 0, 67, 91
2, 434300, Note_off_c, 0, 63, 100
2, 434304, Note_on_c, 0, 65, 92
2, 434492, Note_off_c, 0, 65, 100
2, 434496, Note_on_c, 0, 63, 92
2, 434684, Note_off_c, 0, 67, 100
2, 434684, Note_off_c, 0, 63, 100
2, 434688, Note_on_c, 0, 75, 93
2, 434688, Note_on_c, 0, 63, 93
2, 435068, Note_off_c, 0, 75, 100
2, 435068, Note_off_c, 0, 63, 100
2, 435072, Note_on_c, 0, 75, 93
2, 435260, Note_off_c, 0, 75, 100
2, 435264, Note_on_c, 0, 74, 94
2, 435452, Note_off_c, 0, 74, 100
2, 435456, Note_on_c, 0, 72, 94
2, 435456, Note_on_c, 0, 60, 94
2, 435836, Note_off_c, 0, 72, 100
2, 435840, Note_on_c, 0, 72, 95
2, 436028, Note_off_c, 0, 72, 100
2, 436032, Note_on_c, 0, 70, 95
2, 436220, Note_off_c, 0, 60, 100
2, 436220, Note_off_c, 0, 70, 100
2, 436224, Note_on_c, 0, 69, 95
2, 436224, Note_on_c, 0, 65, 95
2, 436604, Note_off_c, 0, 69, 100
2, 436604, Note_off_c, 0, 65, 100
2, 436608, Note_on_c, 0, 65, 96
2, 436796, Note_off_c, 0, 65, 100
2, 436800, Note_on_c, 0, 63, 96
2, 436988, Note_off_c, 0, 63, 100
2, 436992, Note_on_c, 0, 62, 96
2, 436992, Note_on_c, 0, 69, 96
2, 437372, Note_off_c, 0, 62, 100
2, 437376, Note_on_c, 0, 62, 97
2, 437564, Note_off_c, 0, 62, 100
2, 437568, Note_on_c, 0, 60, 97
2, 437756, Note_off_c, 0, 69, 100
2, 437756, Note_off_c, 0, 60, 100
2, 437760, Note_on_c, 0, 77, 98
2, 438140, Note_off_c, 0, 77, 100
2, 438144, Note_on_c, 0, 77, 98
2, 438332, Note_off_c, 0, 77, 100
2, 438336, Note_on_c, 0, 75, 99
2, 438524, Note_off_c, 0, 75, 100
2, 438528, Note_on_c, 0, 74, 99
2, 438908, Note_off_c, 0, 74, 100
2, 438912, Note_on_c, 0, 74, 100
2, 439100, Note_off_c, 0, 74, 100
2, 439104, Note_on_c, 0, 72, 100
2, 439292, Note_off_c, 0, 72, 100
2, 439296, Note_on_c, 0, 71, 100
2, 439296, Note_on_c, 0, 67, 100
2, 439676, Note_off_c, 0, 71, 100
2, 439676, Note_off_c, 0, 67, 100
2, 439680, Note_on_c, 0, 67, 101
2, 439868, Note_off_c, 0, 67, 100
2, 439872, Note_on_c, 0, 65, 101
2, 440060, Note_off_c, 0, 65, 100
2, 440064, Note_on_c, 0, 63, 102
2, 440064, Note_on_c, 0, 71, 102
2, 440444, Note_off_c, 0, 63, 100
2, 440448, Note_on_c, 0, 63, 102
2, 440636, Note_off_c, 0, 63, 100
2, 440640, Note_on_c, 0, 62, 103
2, 440828, Note_off_c, 0, 71, 100
2, 440828, Note_off_c, 0, 62, 100
2, 440832, Note_on_c, 0, 79, 103
2, 441212, Note_off_c, 0, 79, 100
2, 441216, Note_on_c, 0, 79, 104
2, 441404, Note_off_c, 0, 79, 100
2, 441408, Note_on_c, 0, 77, 104
2, 441596, Note_off_c, 0, 77, 100
2, 441600, Note_on_c, 0, 75, 104
2, 441980, Note_off_c, 0, 75, 100
2, 441984, Note_on_c, 0, 75, 105
2, 441984, Note_on_c, 0, 67, 105
2, 442172, Note_off_c, 0, 75, 100
2, 442172, Note_off_c, 0, 67, 100
2, 442176, Note_on_c, 0, 74, 105
2, 442176, Note_on_c, 0, 65, 105
2, 442364, Note_off_c, 0, 74, 100
2, 442364, Note_off_c, 0, 65, 100
2, 442368, Note_on_c, 0, 72, 106
2, 442368, Note_on_c, 0, 63, 106
2, 442748, Note_off_c, 0, 72, 100
2, 442748, Note_off_c, 0, 63, 100
2, 442752, Note_on_c, 0, 72, 106
2, 442752, Note_on_c, 0, 65, 106
2, 442940, Note_off_c, 0, 72, 100
2, 442940, Note_off_c, 0, 65, 100
2, 442944, Note_on_c, 0, 70, 107
2, 442944, Note_on_c, 0, 67, 107
2, 443132, Note_off_c, 0, 70, 100
2, 443132, Note_off_c, 0, 67, 100
2, 443136, Note_on_c, 0, 68, 107
2, 443136, Note_on_c, 0, 60, 107
2, 443516, Note_off_c, 0, 68, 100
2, 443516, Note_off_c, 0, 60, 100
2, 443520, Note_on_c, 0, 68, 108
2, 443520, Note_on_c, 0, 60, 108
2, 443708, Note_off_c, 0, 68, 100
2, 443708, Note_off_c, 0, 60, 100
2, 443712, Note_on_c, 0, 67, 108
2, 443712, Note_on_c, 0, 58, 108
2, 443900, Note_off_c, 0, 67, 100
2, 443900, Note_off_c, 0, 58, 100
2, 443904, Note_on_c, 0, 65, 108
2, 443904, Note_on_c, 0, 60, 108
2, 444284, Note_off_c, 0, 65, 100
2, 444284, Note_off_c, 0, 60, 100
2, 444288, Note_on_c, 0, 62, 109
2, 444288, Note_on_c, 0, 65, 109
2, 444476, Note_off_c, 0, 65, 100
2, 444480, Note_on_c, 0, 67, 109
2, 444668, Note_off_c, 0, 62, 100
2, 444668, Note_off_c, 0, 67, 100
2, 444672, Note_on_c, 0, 63, 110
2, 444672, Note_on_c, 0, 68, 110
2, 445052, Note_off_c, 0, 63, 100
2, 445052, Note_off_c, 0, 68, 100
2, 445056, Note_on_c, 0, 70, 110
2, 445056, Note_on_c, 0, 62, 110
2, 445244, Note_off_c, 0, 62, 100
2, 445248, Note_on_c, 0, 65, 110
2, 445248, Note_on_c, 0, 62, 110
2, 445436, Note_off_c, 0, 70, 100
2, 445436, Note_off_c, 0, 65, 100
2, 445436, Note_off_c, 0, 62, 100
2, 445440, Note_on_c, 0, 70, 110
2, 445440, Note_on_c, 0, 67, 110
2, 445440, Note_on_c, 0, 63, 110
2, 445820, Note_off_c, 0, 70, 100
2, 445820, Note_off_c, 0, 67, 100
2, 446012, Note_off_c, 0, 63, 100
2, 446016, Note_on_c, 0, 67, 110
2, 446204, Note_off_c, 0, 67, 100
2, 446208, Note_on_c, 0, 67, 110
2, 446588, Note_off_c, 0, 67, 100
2, 446592, Note_on_c, 0, 68, 110
2, 446780, Note_off_c, 0, 68, 100
2, 446784, Note_on_c, 0, 67, 110
2, 446784, Note_on_c, 0, 70, 110
2, 446972, Note_off_c, 0, 67, 100
2, 446972, Note_off_c, 0, 70, 100
2, 446976, Note_on_c, 0, 67, 110
2, 446976, Note_on_c, 0, 75, 110
2, 447356, Note_off_c, 0, 67, 100
2, 447360, Note_on_c, 0, 63, 110
2, 447548, Note_off_c, 0, 75, 100
2, 447552, Note_on_c, 0, 75, 110
2, 447740, Note_off_c, 0, 63, 100
2, 447740, Note_off_c, 0, 75, 100
2, 447744, Note_on_c, 0, 75, 110
2, 447744, Note_on_c, 0, 63, 110
2, 448124, Note_off_c, 0, 75, 100
2, 448128, Note_on_c, 0, 77, 110
2, 448316, Note_off_c, 0, 77, 100
2, 448320, Note_on_c, 0, 75, 110
2, 448508, Note_off_c, 0, 75, 100
2, 448512, Note_on_c, 0, 75, 110
2, 448892, Note_off_c, 0, 63, 100
2, 448892, Note_off_c, 0, 75, 100
2, 448896, Note_on_c, 0, 72, 110
2, 449088, Note_on_c, 0, 70, 110
2, 449276, Note_off_c, 0, 72, 100
2, 449276, Note_off_c, 0, 70, 100
2, 449280, Note_on_c, 0, 68, 110
2, 449280, Note_on_c, 0, 72, 110
2, 449660, Note_off_c, 0, 68, 100
2, 449664, Note_on_c, 0, 68, 110
2, 449852, Note_off_c, 0, 68, 100
2, 449856, Note_on_c, 0, 67, 110
2, 450044, Note_off_c, 0, 72, 100
2, 450044, Note_off_c, 0, 67, 100
2, 450048, Note_on_c, 0, 80, 110
2, 450048, Note_on_c, 0, 65, 110
2, 450428, Note_off_c, 0, 80, 100
2, 450428, Note_off_c, 0, 65, 100
2, 450432, Note_on_c, 0, 80, 110
2, 450620, Note_off_c, 0, 80, 100
2, 450624, Note_on_c, 0, 79, 110
2, 450812, Note_off_c, 0, 79, 100
2, 450816, Note_on_c, 0, 77, 110
2, 450816, Note_on_c, 0, 65, 110
2, 451196, Note_off_c, 0, 77, 100
2, 451200, Note_on_c, 0, 77, 110
2, 451388, Note_off_c, 0, 77, 100
2, 451392, Note_on_c, 0, 75, 110
2, 451580, Note_off_c, 0, 65, 100
2, 451580, Note_off_c, 0, 75, 100
2, 451584, Note_on_c, 0, 74, 110
2, 451964, Note_off_c, 0, 74, 100
2, 451968, Note_on_c, 0, 74, 110
2, 452156, Note_off_c, 0, 74, 100
2, 452160, Note_on_c, 0, 72, 110
2, 452348, Note_off_c, 0, 72, 100
2, 452352, Note_on_c, 0, 70, 110
2, 452352, Note_on_c, 0, 74, 110
2, 452732, Note_off_c, 0, 70, 100
2, 452736, Note_on_c, 0, 70, 110
2, 452924, Note_off_c, 0, 70, 100
2, 452928, Note_on_c, 0, 68, 110
2, 453116, Note_off_c, 0, 74, 100
2, 453116, Note_off_c, 0, 68, 100
2, 453120, Note_on_c, 0, 82, 110
2, 453120, Note_on_c, 0, 67, 110
2, 453500, Note_off_c, 0, 82, 100
2, 453500, Note_off_c, 0, 67, 100
2, 453504, Note_on_c, 0, 82, 110
2, 453692, Note_off_c, 0, 82, 100
2, 453696, Note_on_c, 0, 80, 110
2, 453884, Note_off_c, 0, 80, 100
2, 453888, Note_on_c, 0, 79, 110
2, 453888, Note_on_c, 0, 67, 110
2, 454268, Note_off_c, 0, 79, 100
2, 454272, Note_on_c, 0, 79, 110
2, 454460, Note_off_c, 0, 79, 100
2, 454464, Note_on_c, 0, 77, 110
2, 454652, Note_off_c, 0, 77, 100
2, 454656, Note_on_c, 0, 76, 110
2, 454656, Note_on_c, 0, 67, 110
2, 455036, Note_off_c, 0, 67, 100
2, 455036, Note_off_c, 0, 76, 100
2, 455036, Note_off_c, 0, 67, 100
2, 455040, Note_on_c, 0, 64, 110
2, 455040, Note_on_c, 0, 55, 110
2, 455228, Note_off_c, 0, 55, 100
2, 455232, Note_on_c, 0, 61, 110
2, 455420, Note_off_c, 0, 64, 100
2, 455420, Note_off_c, 0, 61, 100
2, 455424, Note_on_c, 0, 65, 110
2, 455804, Note_off_c, 0, 65, 100
2, 455808, Note_on_c, 0, 67, 110
2, 455808, Note_on_c, 0, 60, 110
2, 455996, Note_off_c, 0, 60, 100
2, 456000, Note_on_c, 0, 58, 110
2, 456188, Note_off_c, 0, 67, 100
2, 456188, Note_off_c, 0, 58, 100
2, 456192, Note_on_c, 0, 56, 80
2, 456192, Note_on_c, 0, 68, 80
2, 456572, Note_off_c, 0, 56, 100
2, 456576, Note_on_c, 0, 65, 80
2, 456764, Note_off_c, 0, 65, 100
2, 456768, Note_on_c, 0, 63, 80
2, 456956, Note_off_c, 0, 63, 100
2, 456960, Note_on_c, 0, 62, 80
2, 457340, Note_off_c, 0, 68, 100
2, 457340, Note_off_c, 0, 62, 100
2, 457344, Note_on_c, 0, 69, 80
2, 457344, Note_on_c, 0, 62, 80
2, 457532, Note_off_c, 0, 62, 100
2, 457536, Note_on_c, 0, 60, 80
2, 457724, Note_off_c, 0, 69, 100
2, 457724, Note_off_c, 0, 60, 100
2, 457728, Note_on_c, 0, 70, 80
2, 457728, Note_on_c, 0, 58, 80
2, 458108, Note_off_c, 0, 70, 100
2, 458108, Note_off_c, 0, 58, 100
2, 458112, Note_on_c, 0, 79, 82
2, 458300, Note_off_c, 0, 79, 100
2, 458304, Note_on_c, 0, 77, 84
2, 458492, Note_off_c, 0, 77, 100
2, 458496, Note_on_c, 0, 75, 85
2, 458876, Note_off_c, 0, 75, 100
2, 458880, Note_on_c, 0, 75, 88
2, 459068, Note_off_c, 0, 75, 100
2, 459072, Note_on_c, 0, 74, 89
2, 459260, Note_off_c, 0, 74, 100
2, 459264, Note_on_c, 0, 72, 90
2, 459648, Note_on_c, 0, 60, 93
2, 460028, Note_off_c, 0, 60, 100
2, 460032, Note_on_c, 0, 65, 96
2, 460412, Note_off_c, 0, 72, 100
2, 460416, Note_on_c, 0, 73, 98
2, 460796, Note_off_c, 0, 65, 100
2, 460796, Note_off_c, 0, 73, 100
2, 460800, Note_on_c, 0, 74, 101
2, 460800, Note_on_c, 0, 65, 101
2, 461180, Note_off_c, 0, 74, 100
2, 461180, Note_off_c, 0, 65, 100
2, 461184, Note_on_c, 0, 75, 104
2, 461184, Note_on_c, 0, 67, 104
2, 461372, Note_off_c, 0, 75, 100
2, 461372, Note_off_c, 0, 67, 100
2, 461376, Note_on_c, 0, 74, 105
2, 461376, Note_on_c, 0, 65, 105
2, 461564, Note_off_c, 0, 74, 100
2, 461564, Note_off_c, 0, 65, 100
2, 461568, Note_on_c, 0, 72, 106
2, 461568, Note_on_c, 0, 63, 106
2, 461948, Note_off_c, 0, 72, 100
2, 461948, Note_off_c, 0, 63, 100
2, 461952, Note_on_c, 0, 62, 109
2, 461952, Note_on_c, 0, 71, 109
2, 462140, Note_off_c, 0, 71, 100
2, 462144, Note_on_c, 0, 67, 110
2, 462332, Note_off_c, 0, 62, 100
2, 462332, Note_off_c, 0, 67, 100
2, 462336, Note_on_c, 0, 75, 110
2, 462336, Note_on_c, 0, 72, 110
2, 462908, Note_off_c, 0, 75, 100
2, 462908, Note_off_c, 0, 72, 100
2, 462912, Note_on_c, 0, 75, 110
2, 462912, Note_on_c, 0, 72, 110
2, 463100, Note_off_c, 0, 75, 100
2, 463100, Note_off_c, 0, 72, 100
2, 463104, Note_on_c, 0, 75, 110
2, 463104, Note_on_c, 0, 72, 110
2, 463484, Note_off_c, 0, 75, 100
2, 463484, Note_off_c, 0, 72, 100
2, 463488, Note_on_c, 0, 77, 110
2, 463488, Note_on_c, 0, 74, 110
2, 463676, Note_off_c, 0, 77, 100
2, 463676, Note_off_c, 0, 74, 100
2, 463680, Note_on_c, 0, 75, 110
2, 463680, Note_on_c, 0, 72, 110
2, 463868, Note_off_c, 0, 75, 100
2, 463868, Note_off_c, 0, 72, 100
2, 463872, Note_on_c, 0, 75, 110
2, 463872, Note_on_c, 0, 72, 110
2, 464252, Note_off_c, 0, 75, 100
2, 464252, Note_off_c, 0, 72, 100
2, 464256, Note_on_c, 0, 72, 110
2, 464256, Note_on_c, 0, 68, 110
2, 464636, Note_off_c, 0, 72, 100
2, 464636, Note_off_c, 0, 68, 100
2, 464640, Note_on_c, 0, 72, 110
2, 464640, Note_on_c, 0, 68, 110
2, 465404, Note_off_c, 0, 72, 100
2, 465404, Note_off_c, 0, 68, 100
2, 465408, Note_on_c, 0, 80, 110
2, 465408, Note_on_c, 0, 77, 110
2, 465788, Note_off_c, 0, 80, 100
2, 465788, Note_off_c, 0, 77, 100
2, 465792, Note_on_c, 0, 80, 110
2, 465792, Note_on_c, 0, 77, 110
2, 465980, Note_off_c, 0, 80, 100
2, 465980, Note_off_c, 0, 77, 100
2, 465984, Note_on_c, 0, 79, 110
2, 465984, Note_on_c, 0, 75, 110
2, 466172, Note_off_c, 0, 79, 100
2, 466172, Note_off_c, 0, 75, 100
2, 466176, Note_on_c, 0, 77, 110
2, 466176, Note_on_c, 0, 73, 110
2, 466556, Note_off_c, 0, 77, 100
2, 466556, Note_off_c, 0, 73, 100
2, 466560, Note_on_c, 0, 77, 110
2, 466560, Note_on_c, 0, 73, 110
2, 466748, Note_off_c, 0, 77, 100
2, 466748, Note_off_c, 0, 73, 100
2, 466752, Note_on_c, 0, 75, 110
2, 466752, Note_on_c, 0, 72, 110
2, 466940, Note_off_c, 0, 75, 100
2, 466940, Note_off_c, 0, 72, 100
2, 466944, Note_on_c, 0, 73, 110
2, 466944, Note_on_c, 0, 70, 110
2, 467324, Note_off_c, 0, 73, 100
2, 467324, Note_off_c, 0, 70, 100
2, 467712, Note_on_c, 0, 73, 110
2, 467712, Note_on_c, 0, 70, 110
2, 468476, Note_off_c, 0, 73, 100
2, 468476, Note_off_c, 0, 70, 100
2, 468480, Note_on_c, 0, 82, 110
2, 468480, Note_on_c, 0, 79, 110
2, 468860, Note_off_c, 0, 82, 100
2, 468860, Note_off_c, 0, 79, 100
2, 468864, Note_on_c, 0, 82, 110
2, 468864, Note_on_c, 0, 79, 110
2, 469052, Note_off_c, 0, 82, 100
2, 469052, Note_off_c, 0, 79, 100
2, 469056, Note_on_c, 0, 80, 110
2, 469056, Note_on_c, 0, 77, 110
2, 469244, Note_off_c, 0, 80, 100
2, 469244, Note_off_c, 0, 77, 100
2, 469248, Note_on_c, 0, 79, 110
2, 469248, Note_on_c, 0, 76, 110
2, 469628, Note_off_c, 0, 79, 100
2, 469628, Note_off_c, 0, 76, 100
2, 469632, Note_on_c, 0, 79, 110
2, 469632, Note_on_c, 0, 76, 110
2, 469820, Note_off_c, 0, 79, 100
2, 469820, Note_off_c, 0, 76, 100
2, 469824, Note_on_c, 0, 77, 110
2, 469824, Note_on_c, 0, 74, 110
2, 470012, Note_off_c, 0, 77, 100
2, 470012, Note_off_c, 0, 74, 100
2, 470016, Note_on_c, 0, 76, 110
2, 470016, Note_on_c, 0, 72, 110
2, 470396, Note_off_c, 0, 76, 100
2, 470396, Note_off_c, 0, 72, 100
2, 470784, Note_on_c, 0, 77, 110
2, 470784, Note_on_c, 0, 72, 110
2, 471548, Note_off_c, 0, 77, 100
2, 471548, Note_off_c, 0, 72, 100
2, 471552, Note_on_c, 0, 84, 110
2, 471552, Note_on_c, 0, 80, 110
2, 471932, Note_off_c, 0, 84, 100
2, 471932, Note_off_c, 0, 80, 100
2, 471936, Note_on_c, 0, 84, 110
2, 471936, Note_on_c, 0, 80, 110
2, 472124, Note_off_c, 0, 84, 100
2, 472124, Note_off_c, 0, 80, 100
2, 472128, Note_on_c, 0, 82, 110
2, 472128, Note_on_c, 0, 79, 110
2, 472316, Note_off_c, 0, 82, 100
2, 472316, Note_off_c, 0, 79, 100
2, 472320, Note_on_c, 0, 80, 110
2, 472320, Note_on_c, 0, 77, 110
2, 472700, Note_off_c, 0, 80, 100
2, 472700, Note_off_c, 0, 77, 100
2, 472704, Note_on_c, 0, 82, 110
2, 472704, Note_on_c, 0, 79, 110
2, 472892, Note_off_c, 0, 82, 100
2, 472892, Note_off_c, 0, 79, 100
2, 472896, Note_on_c, 0, 80, 110
2, 472896, Note_on_c, 0, 77, 110
2, 473084, Note_off_c, 0, 80, 100
2, 473084, Note_off_c, 0, 77, 100
2, 473088, Note_on_c, 0, 79, 110
2, 473088, Note_on_c, 0, 75, 110
2, 473468, Note_off_c, 0, 79, 100
2, 473468, Note_off_c, 0, 75, 100
2, 473472, Note_on_c, 0, 89, 110
2, 473472, Note_on_c, 0, 80, 110
2, 473660, Note_off_c, 0, 89, 100
2, 473660, Note_off_c, 0, 80, 100
2, 473664, Note_on_c, 0, 87, 110
2, 473664, Note_on_c, 0, 79, 110
2, 473852, Note_off_c, 0, 87, 100
2, 473852, Note_off_c, 0, 79, 100
2, 473856, Note_on_c, 0, 86, 110
2, 473856, Note_on_c, 0, 77, 110
2, 474236, Note_off_c, 0, 86, 100
2, 474236, Note_off_c, 0, 77, 100
2, 474240, Note_on_c, 0, 87, 110
2, 474240, Note_on_c, 0, 79, 110
2, 474428, Note_off_c, 0, 87, 100
2, 474428, Note_off_c, 0, 79, 100
2, 474432, Note_on_c, 0, 86, 110
2, 474432, Note_on_c, 0, 77, 110
2, 474620, Note_off_c, 0, 86, 100
2, 474620, Note_off_c, 0, 77, 100
2, 474624, Note_on_c, 0, 84, 110
2, 474624, Note_on_c, 0, 75, 110
2, 475004, Note_off_c, 0, 84, 100
2, 475004, Note_off_c, 0, 75, 100
2, 475008, Note_on_c, 0, 82, 110
2, 475008, Note_on_c, 0, 79, 110
2, 475196, Note_off_c, 0, 82, 100
2, 475196, Note_off_c, 0, 79, 100
2, 475200, Note_on_c, 0, 84, 110
2, 475200, Note_on_c, 0, 80, 110
2, 475388, Note_off_c, 0, 84, 100
2, 475388, Note_off_c, 0, 80, 100
2, 475392, Note_on_c, 0, 85, 110
2, 475392, Note_on_c, 0, 82, 110
2, 475772, Note_off_c, 0, 85, 100
2, 475772, Note_off_c, 0, 82, 100
2, 475776, Note_on_c, 0, 80, 110
2, 475776, Note_on_c, 0, 77, 110
2, 475964, Note_off_c, 0, 80, 100
2, 475964, Note_off_c, 0, 77, 100
2, 475968, Note_on_c, 0, 82, 110
2, 475968, Note_on_c, 0, 79, 110
2, 476156, Note_off_c, 0, 82, 100
2, 476156, Note_off_c, 0, 79, 100
2, 476160, Note_on_c, 0, 84, 110
2, 476160, Note_on_c, 0, 80, 110
2, 476540, Note_off_c, 0, 84, 100
2, 476540, Note_off_c, 0, 80, 100
2, 476544, Note_on_c, 0, 72, 110
2, 476544, Note_on_c, 0, 75, 110
2, 476732, Note_off_c, 0, 75, 100
2, 476736, Note_on_c, 0, 77, 110
2, 476924, Note_off_c, 0, 72, 100
2, 476924, Note_off_c, 0, 77, 100
2, 476928, Note_on_c, 0, 79, 110
2, 476928, Note_on_c, 0, 71, 110
2, 477308, Note_off_c, 0, 79, 100
2, 477308, Note_off_c, 0, 71, 100
2, 477312, Control_c, 0, 64, 127
2, 477504, Note_on_c, 0, 74, 110
2, 477504, Note_on_c, 0, 71, 110
2, 477692, Note_off_c, 0, 74, 100
2, 477692, Note_off_c, 0, 71, 100
2, 477696, Note_on_c, 0, 83, 120
2, 477696, Note_on_c, 0, 79, 120
2, 479040, Note_on_c, 0, 74, 120
2, 479040, Note_on_c, 0, 71, 120
2, 479228, Note_off_c, 0, 83, 100
2, 479228, Note_off_c, 0, 79, 100
2, 479228, Note_off_c, 0, 74, 100
2, 479228, Note_off_c, 0, 71, 100
2, 479232, Note_on_c, 0, 83, 120
2, 479232, Note_on_c, 0, 79, 120
2, 480376, Control_c, 0, 64, 0
2, 480380, Note_off_c, 0, 83, 100
2, 480380, Note_off_c, 0, 79, 100
2, 480384, Note_on_c, 0, 83, 80
2, 480384, Note_on_c, 0, 79, 80
2, 480384, Note_on_c, 0, 87, 80
2, 480572, Note_off_c, 0, 87, 100
2, 480576, Note_on_c, 0, 86, 80
2, 480764, Note_off_c, 0, 83, 100
2, 480764, Note_off_c, 0, 79, 100
2, 480764, Note_off_c, 0, 86, 100
2, 480768, Note_on_c, 0, 91, 80
2, 480768, Note_on_c, 0, 86, 80
2, 480768, Note_on_c, 0, 83, 80
2, 480956, Note_off_c, 0, 91, 100
2, 480960, Note_on_c, 0, 89, 80
2, 481148, Note_off_c, 0, 86, 100
2, 481148, Note_off_c, 0, 83, 100
2, 481148, Note_off_c, 0, 89, 100
2, 481536, Note_on_c, 0, 74, 80
2, 481536, Note_on_c, 0, 71, 80
2, 481536, Note_on_c, 0, 79, 80
2, 481724, Note_off_c, 0, 79, 100
2, 481728, Note_on_c, 0, 77, 80
2, 481916, Note_off_c, 0, 74, 100
2, 481916, Note_off_c, 0, 71, 100
2, 481916, Note_off_c, 0, 77, 100
2, 482304, Note_on_c, 0, 62, 80
2, 482304, Note_on_c, 0, 59, 80
2, 482304, Note_on_c, 0, 67, 80
2, 482492, Note_off_c, 0, 67, 100
2, 482496, Note_on_c, 0, 65, 80
2, 482684, Note_off_c, 0, 62, 100
2, 482684, Note_off_c, 0, 59, 100
2, 482684, Note_off_c, 0, 65, 100
2, 483072, Note_on_c, 0, 79, 80
2, 483072, Note_on_c, 0, 74, 80
2, 483072, Note_on_c, 0, 71, 80
2, 483260, Note_off_c, 0, 79, 100
2, 483264, Note_on_c, 0, 77, 80
2, 483452, Note_off_c, 0, 74, 100
2, 483452, Note_off_c, 0, 71, 100
2, 483452, Note_off_c, 0, 77, 100
2, 483840, Control_c, 0, 64, 127
2, 483840, Note_on_c, 0, 87, 120
2, 483840, Note_on_c, 0, 84, 120
2, 483840, Note_on_c, 0, 79, 120
2, 485180, Note_off_c, 0, 87, 100
2, 485180, Note_off_c, 0, 84, 100
2, 485180, Note_off_c, 0, 79, 100
2, 485184, Note_on_c, 0, 79, 120
2, 485184, Note_on_c, 0, 75, 120
2, 485376, Note_on_c, 0, 87, 120
2, 485376, Note_on_c, 0, 84, 120
2, 486520, Control_c, 0, 64, 0
2, 486524, Note_off_c, 0, 87, 100
2, 486524, Note_off_c, 0, 84, 100
2, 486528, Note_on_c, 0, 84, 80
2, 486528, Note_on_c, 0, 79, 80
2, 486528, Note_on_c, 0, 89, 80
2, 486716, Note_off_c, 0, 75, 100
2, 486716, Note_off_c, 0, 79, 100
2, 486716, Note_off_c, 0, 89, 100
2, 486720, Note_on_c, 0, 87, 80
2, 486908, Note_off_c, 0, 84, 100
2, 486908, Note_off_c, 0, 79, 100
2, 486908, Note_off_c, 0, 87, 100
2, 486912, Note_on_c, 0, 87, 80
2, 486912, Note_on_c, 0, 84, 80
2, 486912, Note_on_c, 0, 92, 80
2, 487100, Note_off_c, 0, 92, 100
2, 487104, Note_on_c, 0, 91, 80
2, 487292, Note_off_c, 0, 87, 100
2, 487292, Note_off_c, 0, 84, 100
2, 487292, Note_off_c, 0, 91, 100
2, 487680, Note_on_c, 0, 75, 80
2, 487680, Note_on_c, 0, 72, 80
2, 487680, Note_on_c, 0, 80, 80
2, 487868, Note_off_c, 0, 80, 100
2, 487872, Note_on_c, 0, 79, 80
2, 488060, Note_off_c, 0, 75, 100
2, 488060, Note_off_c, 0, 72, 100
2, 488060, Note_off_c, 0, 79, 100
2, 488448, Note_on_c, 0, 63, 80
2, 488448, Note_on_c, 0, 60, 80
2, 488448, Note_on_c, 0, 68, 80
2, 488636, Note_off_c, 0, 68, 100
2, 488640, Note_on_c, 0, 67, 80
2, 488828, Note_off_c, 0, 63, 100
2, 488828, Note_off_c, 0, 60, 100
2, 488828, Note_off_c, 0, 67, 100
2, 489216, Note_on_c, 0, 75, 80
2, 489216, Note_on_c, 0, 72, 80
2, 489216, Note_on_c, 0, 80, 80
2, 489404, Note_off_c, 0, 80, 100
2, 489408, Note_on_c, 0, 79, 80
2, 489596, Note_off_c, 0, 75, 100
2, 489596, Note_off_c, 0, 72, 100
2, 489596, Note_off_c, 0, 79, 100
2, 489984, Control_c, 0, 64, 127
2, 489984, Note_on_c, 0, 89, 120
2, 489984, Note_on_c, 0, 86, 120
2, 489984, Note_on_c, 0, 77, 120
2, 491324, Note_off_c, 0, 89, 100
2, 491324, Note_off_c, 0, 86, 100
2, 491324, Note_off_c, 0, 77, 100
2, 491328, Note_on_c, 0, 77, 120
2, 491328, Note_on_c, 0, 74, 120
2, 491516, Note_off_c, 0, 77, 100
2, 491516, Note_off_c, 0, 74, 100
2, 491520, Note_on_c, 0, 89, 120
2, 491520, Note_on_c, 0, 86, 120
2, 492096, Note_on_c, 0, 77, 120
2, 492284, Note_off_c, 0, 77, 100
2, 492288, Note_on_c, 0, 82, 120
2, 492664, Control_c, 0, 64, 0
2, 492668, Note_off_c, 0, 89, 100
2, 492668, Note_off_c, 0, 86, 100
2, 492668, Note_off_c, 0, 82, 100
2, 492672, Note_on_c, 0, 86, 80
2, 492672, Note_on_c, 0, 82, 80
2, 492672, Note_on_c, 0, 91, 80
2, 492860, Note_off_c, 0, 91, 100
2, 492864, Note_on_c, 0, 89, 80
2, 493052, Note_off_c, 0, 86, 100
2, 493052, Note_off_c, 0, 82, 100
2, 493052, Note_off_c, 0, 89, 100
2, 493056, Note_on_c, 0, 89, 80
2, 493056, Note_on_c, 0, 86, 80
2, 493056, Note_on_c, 0, 94, 80
2, 493244, Note_off_c, 0, 94, 100
2, 493248, Note_on_c, 0, 92, 80
2, 493436, Note_off_c, 0, 89, 100
2, 493436, Note_off_c, 0, 86, 100
2, 493436, Note_off_c, 0, 92, 100
2, 493824, Note_on_c, 0, 77, 80
2, 493824, Note_on_c, 0, 74, 80
2, 493824, Note_on_c, 0, 82, 80
2, 494012, Note_off_c, 0, 82, 100
2, 494016, Note_on_c, 0, 80, 82
2, 494204, Note_off_c, 0, 77, 100
2, 494204, Note_off_c, 0, 74, 100
2, 494204, Note_off_c, 0, 80, 100
2, 494592, Note_on_c, 0, 65, 91
2, 494592, Note_on_c, 0, 62, 91
2, 494592, Note_on_c, 0, 70, 91
2, 494780, Note_off_c, 0, 70, 100
2, 494784, Note_on_c, 0, 68, 94
2, 494972, Note_off_c, 0, 65, 100
2, 494972, Note_off_c, 0, 62, 100
2, 494972, Note_off_c, 0, 68, 100
2, 495360, Note_on_c, 0, 77, 102
2, 495360, Note_on_c, 0, 74, 102
2, 495360, Note_on_c, 0, 82, 102
2, 495548, Note_off_c, 0, 82, 100
2, 495552, Note_on_c, 0, 80, 105
2, 495740, Note_off_c, 0, 77, 100
2, 495740, Note_off_c, 0, 74, 100
2, 495740, Note_off_c, 0, 80, 100
2, 496128, Control_c, 0, 64, 127
2, 496128, Note_on_c, 0, 91, 120
2, 496128, Note_on_c, 0, 87, 120
2, 497472, Note_on_c, 0, 82, 120
2, 497472, Note_on_c, 0, 79, 120
2, 497660, Note_off_c, 0, 91, 100
2, 497660, Note_off_c, 0, 87, 100
2, 497660, Note_off_c, 0, 82, 100
2, 497660, Note_off_c, 0, 79, 100
2, 497664, Note_on_c, 0, 91, 120
2, 497664, Note_on_c, 0, 87, 120
2, 498240, Note_on_c, 0, 79, 120
2, 498428, Note_off_c, 0, 79, 100
2, 498432, Note_on_c, 0, 84, 120
2, 498808, Control_c, 0, 64, 0
2, 498812, Note_off_c, 0, 91, 100
2, 498812, Note_off_c, 0, 87, 100
2, 498812, Note_off_c, 0, 84, 100
2, 499008, Note_on_c, 0, 81, 120
2, 499008, Note_on_c, 0, 78, 120
2, 499196, Note_off_c, 0, 81, 100
2, 499196, Note_off_c, 0, 78, 100
2, 499200, Control_c, 0, 64, 127
2, 499200, Note_on_c, 0, 93, 120
2, 499200, Note_on_c, 0, 90, 120
2, 500544, Note_on_c, 0, 81, 120
2, 500544, Note_on_c, 0, 78, 120
2, 500732, Note_off_c, 0, 93, 100
2, 500732, Note_off_c, 0, 90, 100
2, 500732, Note_off_c, 0, 81, 100
2, 500732, Note_off_c, 0, 78, 100
2, 500736, Note_on_c, 0, 93, 120
2, 500736, Note_on_c, 0, 90, 120
2, 501312, Note_on_c, 0, 81, 120
2, 501500, Note_off_c, 0, 81, 100
2, 501504, Note_on_c, 0, 86, 120
2, 501880, Control_c, 0, 64, 0
2, 502076, Note_off_c, 0, 93, 100
2, 502076, Note_off_c, 0, 90, 100
2, 502076, Note_off_c, 0, 86, 100
2, 502080, Note_on_c, 0, 83, 120
2, 502080, Note_on_c, 0, 80, 120
2, 502268, Note_off_c, 0, 83, 100
2, 502268, Note_off_c, 0, 80, 100
2, 502272, Key_signature, 0, "major"
2, 502272, Control_c, 0, 64, 127
2, 502272, Note_on_c, 0, 95, 120
2, 502272, Note_on_c, 0, 92, 120
2, 502272, Note_on_c, 0, 89, 120
2, 502272, Note_on_c, 0, 86, 120
2, 502272, Note_on_c, 0, 83, 120
2, 503616, Note_on_c, 0, 83, 120
2, 503616, Note_on_c, 0, 80, 120
2, 503804, Note_off_c, 0, 95, 100
2, 503804, Note_off_c, 0, 92, 100
2, 503804, Note_off_c, 0, 89, 100
2, 503804, Note_off_c, 0, 86, 100
2, 503804, Note_off_c, 0, 83, 100
2, 503804, Note_off_c, 0, 83, 100
2, 503804, Note_off_c, 0, 80, 100
2, 503808, Note_on_c, 0, 95, 120
2, 503808, Note_on_c, 0, 92, 120
2, 503808, Note_on_c, 0, 89, 120
2, 503808, Note_on_c, 0, 86, 120
2, 503808, Note_on_c, 0, 83, 120
2, 504952, Control_c, 0, 64, 0
2, 504960, Control_c, 0, 64, 127
2, 505148, Note_off_c, 0, 95, 100
2, 505148, Note_off_c, 0, 92, 100
2, 505148, Note_off_c, 0, 89, 100
2, 505148, Note_off_c, 0, 86, 100
2, 505148, Note_off_c, 0, 83, 100
2, 505152, Note_on_c, 0, 85, 120
2, 505152, Note_on_c, 0, 83, 120
2, 505152, Note_on_c, 0, 79, 120
2, 505152, Note_on_c, 0, 76, 120
2, 505340, Note_off_c, 0, 85, 100
2, 505340, Note_off_c, 0, 83, 100
2, 505340, Note_off_c, 0, 79, 100
2, 505340, Note_off_c, 0, 76, 100
2, 505344, Note_on_c, 0, 97, 120
2, 505344, Note_on_c, 0, 91, 120
2, 505344, Note_on_c, 0, 88, 120
2, 505344, Note_on_c, 0, 94, 120
2, 506688, Note_on_c, 0, 85, 120
2, 506688, Note_on_c, 0, 82, 120
2, 506688, Note_on_c, 0, 79, 120
2, 506688, Note_on_c, 0, 76, 120
2, 506876, Note_off_c, 0, 97, 100
2, 506876, Note_off_c, 0, 91, 100
2, 506876, Note_off_c, 0, 88, 100
2, 506876, Note_off_c, 0, 94, 100
2, 506876, Note_off_c, 0, 85, 100
2, 506876, Note_off_c, 0, 82, 100
2, 506876, Note_off_c, 0, 79, 100
2, 506876, Note_off_c, 0, 76, 100
2, 506880, Note_on_c, 0, 91, 120
2, 506880, Note_on_c, 0, 88, 120
2, 506880, Note_on_c, 0, 97, 120
2, 506880, Note_on_c, 0, 94, 120
2, 508024, Control_c, 0, 64, 0
2, 508032, Control_c, 0, 64, 127
2, 508220, Note_off_c, 0, 91, 100
2, 508220, Note_off_c, 0, 88, 100
2, 508220, Note_off_c, 0, 97, 100
2, 508220, Note_off_c, 0, 94, 100
2, 508224, Note_on_c, 0, 86, 120
2, 508224, Note_on_c, 0, 81, 120
2, 508224, Note_on_c, 0, 78, 120
2, 508412, Note_off_c, 0, 86, 100
2, 508412, Note_off_c, 0, 81, 100
2, 508412, Note_off_c, 0, 78, 100
2, 508416, Note_on_c, 0, 98, 120
2, 508416, Note_on_c, 0, 93, 120
2, 508416, Note_on_c, 0, 90, 120
2, 508416, Note_on_c, 0, 86, 120
2, 508988, Note_off_c, 0, 98, 100
2, 508988, Note_off_c, 0, 93, 100
2, 508988, Note_off_c, 0, 90, 100
2, 508988, Note_off_c, 0, 86, 100
2, 508992, Note_on_c, 0, 86, 120
2, 509180, Note_off_c, 0, 86, 100
2, 509184, Note_on_c, 0, 98, 120
2, 509752, Control_c, 0, 64, 0
2, 509756, Note_off_c, 0, 98, 100
2, 509760, Note_on_c, 0, 74, 120
2, 509948, Note_off_c, 0, 74, 100
2, 509952, Note_on_c, 0, 86, 119
2, 510524, Note_off_c, 0, 86, 100
2, 510528, Note_on_c, 0, 74, 114
2, 510716, Note_off_c, 0, 74, 100
2, 510720, Note_on_c, 0, 86, 112
2, 511292, Note_off_c, 0, 86, 100
2, 511296, Note_on_c, 0, 74, 107
2, 511484, Note_off_c, 0, 74, 100
2, 511488, Note_on_c, 0, 86, 105
2, 512060, Note_off_c, 0, 86, 100
2, 512064, Note_on_c, 0, 74, 100
2, 512252, Note_off_c, 0, 74, 100
2, 512256, Note_on_c, 0, 86, 99
2, 512828, Note_off_c, 0, 86, 100
2, 512832, Note_on_c, 0, 74, 94
2, 513020, Note_off_c, 0, 74, 100
2, 513024, Note_on_c, 0, 86, 92
2, 513596, Note_off_c, 0, 86, 100
2, 513600, Note_on_c, 0, 74, 87
2, 513788, Note_off_c, 0, 74, 100
2, 513792, Note_on_c, 0, 86, 86
2, 514364, Note_off_c, 0, 86, 100
2, 514368, Note_on_c, 0, 75, 81
2, 514556, Note_off_c, 0, 75, 100
2, 514560, Key_signature, 2, "major"
2, 514560, Note_on_c, 0, 87, 80
2, 515328, Note_on_c, 0, 75, 80
2, 516092, Note_off_c, 0, 87, 100
2, 516092, Note_off_c, 0, 75, 100
2, 516096, Note_on_c, 0, 76, 80
2, 516096, Note_on_c, 0, 88, 80
2, 516860, Note_off_c, 0, 88, 100
2, 516864, Note_on_c, 0, 79, 80
2, 517628, Note_off_c, 0, 76, 100
2, 517628, Note_off_c, 0, 79, 100
2, 517632, Note_on_c, 0, 83, 80
2, 517632, Note_on_c, 0, 78, 80
2, 518396, Note_off_c, 0, 78, 100
2, 518400, Note_on_c, 0, 75, 80
2, 519164, Note_off_c, 0, 83, 100
2, 519164, Note_off_c, 0, 75, 100
2, 519168, Note_on_c, 0, 79, 80
2, 519168, Note_on_c, 0, 76, 80
2, 519168, Note_on_c, 0, 71, 80
2, 519932, Note_off_c, 0, 79, 100
2, 519932, Note_off_c, 0, 76, 100
2, 519932, Note_off_c, 0, 71, 100
2, 519936, Note_on_c, 0, 76, 80
2, 519936, Note_on_c, 0, 71, 80
2, 520700, Note_off_c, 0, 76, 100
2, 520700, Note_off_c, 0, 71, 100
2, 520704, Note_on_c, 0, 74, 80
2, 521468, Note_off_c, 0, 74, 100
2, 521472, Note_on_c, 0, 75, 80
2, 522236, Note_off_c, 0, 75, 100
2, 522240, Note_on_c, 0, 78, 80
2, 523004, Note_off_c, 0, 78, 100
2, 523008, Note_on_c, 0, 76, 80
2, 523388, Note_off_c, 0, 76, 100
2, 523392, Note_on_c, 0, 73, 80
2, 523772, Note_off_c, 0, 73, 100
2, 523776, Note_on_c, 0, 75, 80
2, 524156, Note_off_c, 0, 75, 100
2, 524160, Note_on_c, 0, 62, 80
2, 524540, Note_off_c, 0, 62, 100
2, 524544, Note_on_c, 0, 63, 80
2, 525308, Note_off_c, 0, 63, 100
2, 525312, Note_on_c, 0, 66, 80
2, 526076, Note_off_c, 0, 66, 100
2, 526080, Note_on_c, 0, 64, 80
2, 526460, Note_off_c, 0, 64, 100
2, 526464, Note_on_c, 0, 61, 80
2, 526844, Note_off_c, 0, 61, 100
2, 526848, Note_on_c, 0, 75, 80
2, 526848, Note_on_c, 0, 71, 80
2, 527036, Note_off_c, 0, 75, 100
2, 527036, Note_off_c, 0, 71, 100
2, 527040, Note_on_c, 0, 76, 80
2, 527228, Note_off_c, 0, 76, 100
2, 527232, Note_on_c, 0, 75, 80
2, 527420, Note_off_c, 0, 75, 100
2, 527424, Note_on_c, 0, 74, 80
2, 527612, Note_off_c, 0, 74, 100
2, 527616, Note_on_c, 0, 75, 80
2, 527804, Note_off_c, 0, 75, 100
2, 527808, Note_on_c, 0, 76, 80
2, 527996, Note_off_c, 0, 76, 100
2, 528000, Note_on_c, 0, 78, 80
2, 528188, Note_off_c, 0, 78, 100
2, 528192, Note_on_c, 0, 77, 80
2, 528380, Note_off_c, 0, 77, 100
2, 528384, Note_on_c, 0, 80, 80
2, 528572, Note_off_c, 0, 80, 100
2, 528576, Note_on_c, 0, 78, 80
2, 528764, Note_off_c, 0, 78, 100
2, 528768, Note_on_c, 0, 77, 80
2, 528956, Note_off_c, 0, 77, 100
2, 528960, Note_on_c, 0, 78, 80
2, 529148, Note_off_c, 0, 78, 100
2, 529152, Note_on_c, 0, 76, 80
2, 529340, Note_off_c, 0, 76, 100
2, 529344, Note_on_c, 0, 75, 80
2, 529532, Note_off_c, 0, 75, 100
2, 529536, Note_on_c, 0, 76, 80
2, 529724, Note_off_c, 0, 76, 100
2, 529728, Note_on_c, 0, 73, 80
2, 529916, Note_off_c, 0, 73, 100
2, 529920, Note_on_c, 0, 75, 80
2, 529920, Note_on_c, 0, 63, 80
2, 530108, Note_off_c, 0, 63, 100
2, 530112, Note_on_c, 0, 64, 80
2, 530300, Note_off_c, 0, 75, 100
2, 530300, Note_off_c, 0, 64, 100
2, 530304, Note_on_c, 0, 63, 80
2, 530492, Note_off_c, 0, 63, 100
2, 530496, Note_on_c, 0, 62, 80
2, 530684, Note_off_c, 0, 62, 100
2, 530688, Note_on_c, 0, 63, 80
2, 530876, Note_off_c, 0, 63, 100
2, 530880, Note_on_c, 0, 64, 80
2, 531068, Note_off_c, 0, 64, 100
2, 531072, Note_on_c, 0, 66, 80
2, 531260, Note_off_c, 0, 66, 100
2, 531264, Note_on_c, 0, 65, 80
2, 531452, Note_off_c, 0, 65, 100
2, 531456, Note_on_c, 0, 68, 80
2, 531644, Note_off_c, 0, 68, 100
2, 531648, Note_on_c, 0, 66, 80
2, 531836, Note_off_c, 0, 66, 100
2, 531840, Note_on_c, 0, 65, 80
2, 532028, Note_off_c, 0, 65, 100
2, 532032, Note_on_c, 0, 66, 80
2, 532220, Note_off_c, 0, 66, 100
2, 532224, Note_on_c, 0, 64, 80
2, 532412, Note_off_c, 0, 64, 100
2, 532416, Note_on_c, 0, 63, 80
2, 532604, Note_off_c, 0, 63, 100
2, 532608, Note_on_c, 0, 64, 80
2, 532796, Note_off_c, 0, 64, 100
2, 532800, Note_on_c, 0, 66, 80
2, 532988, Note_off_c, 0, 66, 100
2, 532992, Note_on_c, 0, 64, 80
2, 532992, Note_on_c, 0, 61, 80
2, 532992, Note_on_c, 0, 54, 80
2, 533372, Note_off_c, 0, 64, 100
2, 533372, Note_off_c, 0, 61, 100
2, 533372, Note_off_c, 0, 54, 100
2, 534336, Note_on_c, 0, 54, 110
2, 534524, Note_off_c, 0, 54, 100
2, 534528, Key_signature, 5, "major"
2, 534528, Note_on_c, 0, 58, 110
2, 535100, Note_off_c, 0, 58, 100
2, 535104, Note_on_c, 0, 58, 110
2, 535292, Note_off_c, 0, 58, 100
2, 535296, Note_on_c, 0, 58, 110
2, 535676, Note_off_c, 0, 58, 100
2, 535680, Note_on_c, 0, 59, 110
2, 535868, Note_off_c, 0, 59, 100
2, 535872, Note_on_c, 0, 58, 80
2, 535872, Note_on_c, 0, 66, 80
2, 536060, Note_off_c, 0, 58, 100
2, 536060, Note_off_c, 0, 66, 100
2, 536064, Note_on_c, 0, 73, 80
2, 536636, Note_off_c, 0, 73, 100
2, 536640, Note_on_c, 0, 73, 80
2, 536828, Note_off_c, 0, 73, 100
2, 536832, Note_on_c, 0, 73, 80
2, 537212, Note_off_c, 0, 73, 100
2, 537216, Note_on_c, 0, 75, 80
2, 537404, Note_off_c, 0, 75, 100
2, 537408, Note_on_c, 0, 73, 80
2, 537408, Note_on_c, 0, 61, 80
2, 537596, Note_off_c, 0, 73, 100
2, 537596, Note_off_c, 0, 61, 100
2, 537600, Note_on_c, 0, 73, 80
2, 537600, Note_on_c, 0, 64, 80
2, 537980, Note_off_c, 0, 73, 100
2, 537984, Note_on_c, 0, 70, 80
2, 538172, Note_off_c, 0, 64, 100
2, 538176, Note_on_c, 0, 64, 80
2, 538364, Note_off_c, 0, 70, 100
2, 538364, Note_off_c, 0, 64, 100
2, 538368, Note_on_c, 0, 64, 80
2, 538748, Note_off_c, 0, 64, 100
2, 538752, Note_on_c, 0, 66, 80
2, 538940, Note_off_c, 0, 66, 100
2, 538944, Note_on_c, 0, 64, 80
2, 539132, Note_off_c, 0, 64, 100
2, 539136, Note_on_c, 0, 64, 80
2, 539324, Note_off_c, 0, 64, 100
2, 539328, Note_on_c, 0, 61, 80
2, 539516, Note_off_c, 0, 61, 100
2, 540480, Note_on_c, 0, 66, 80
2, 540668, Note_off_c, 0, 66, 100
2, 540672, Note_on_c, 0, 76, 80
2, 541244, Note_off_c, 0, 76, 100
2, 541248, Note_on_c, 0, 76, 80
2, 541248, Note_on_c, 0, 64, 80
2, 541436, Note_off_c, 0, 76, 100
2, 541436, Note_off_c, 0, 64, 100
2, 541440, Note_on_c, 0, 76, 80
2, 541440, Note_on_c, 0, 73, 80
2, 541820, Note_off_c, 0, 76, 100
2, 542012, Note_off_c, 0, 73, 100
2, 542016, Note_on_c, 0, 73, 80
2, 542204, Note_off_c, 0, 73, 100
2, 542208, Note_on_c, 0, 73, 80
2, 542588, Note_off_c, 0, 73, 100
2, 543552, Note_on_c, 0, 73, 80
2, 543740, Note_off_c, 0, 73, 100
2, 543744, Note_on_c, 0, 82, 80
2, 544316, Note_off_c, 0, 82, 100
2, 544320, Note_on_c, 0, 82, 80
2, 544508, Note_off_c, 0, 82, 100
2, 544512, Note_on_c, 0, 82, 80
2, 544892, Note_off_c, 0, 82, 100
2, 545088, Note_on_c, 0, 70, 80
2, 545276, Note_off_c, 0, 70, 100
2, 545280, Note_on_c, 0, 70, 80
2, 545660, Note_off_c, 0, 70, 100
2, 545856, Note_on_c, 0, 52, 80
2, 546044, Note_off_c, 0, 52, 100
2, 546048, Note_on_c, 0, 61, 80
2, 547388, Note_off_c, 0, 61, 100
2, 547392, Note_on_c, 0, 55, 80
2, 547580, Note_off_c, 0, 55, 100
2, 547584, Note_on_c, 0, 64, 80
2, 548540, Note_off_c, 0, 64, 100
2, 548544, Note_on_c, 0, 55, 80
2, 548732, Note_off_c, 0, 55, 100
2, 548736, Note_on_c, 0, 64, 81
2, 549308, Note_off_c, 0, 64, 100
2, 549312, Note_on_c, 0, 79, 84
2, 549500, Note_off_c, 0, 79, 100
2, 549504, Note_on_c, 0, 88, 85
2, 550076, Note_off_c, 0, 88, 100
2, 550080, Note_on_c, 0, 56, 88
2, 550268, Note_off_c, 0, 56, 100
2, 550272, Note_on_c, 0, 64, 89
2, 550844, Note_off_c, 0, 64, 100
2, 550848, Note_on_c, 0, 80, 92
2, 551036, Note_off_c, 0, 80, 100
2, 551040, Note_on_c, 0, 88, 93
2, 551612, Note_off_c, 0, 88, 100
2, 551616, Note_on_c, 0, 57, 96
2, 551804, Note_off_c, 0, 57, 100
2, 551808, Note_on_c, 0, 64, 97
2, 552380, Note_off_c, 0, 64, 100
2, 552384, Note_on_c, 0, 81, 100
2, 552572, Note_off_c, 0, 81, 100
2, 552576, Note_on_c, 0, 88, 101
2, 553148, Note_off_c, 0, 88, 100
2, 553152, Note_on_c, 0, 57, 104
2, 553340, Note_off_c, 0, 57, 100
2, 553344, Note_on_c, 0, 65, 105
2, 553916, Note_off_c, 0, 65, 100
2, 553920, Note_on_c, 0, 81, 108
2, 554108, Note_off_c, 0, 81, 100
2, 554112, Note_on_c, 0, 89, 109
2, 554304, Control_c, 0, 64, 127
2, 554492, Note_off_c, 0, 89, 100
2, 554496, Key_signature, -2, "major"
2, 554496, Note_on_c, 0, 86, 120
2, 554496, Note_on_c, 0, 82, 120
2, 554496, Note_on_c, 0, 77, 120
2, 554496, Note_on_c, 0, 74, 120
2, 555068, Note_off_c, 0, 86, 100
2, 555068, Note_off_c, 0, 82, 100
2, 555068, Note_off_c, 0, 77, 100
2, 555068, Note_off_c, 0, 74, 100
2, 555072, Note_on_c, 0, 86, 120
2, 555072, Note_on_c, 0, 82, 120
2, 555072, Note_on_c, 0, 77, 120
2, 555072, Note_on_c, 0, 74, 120
2, 555256, Control_c, 0, 64, 0
2, 555260, Note_off_c, 0, 86, 100
2, 555260, Note_off_c, 0, 82, 100
2, 555260, Note_off_c, 0, 77, 100
2, 555260, Note_off_c, 0, 74, 100
2, 555264, Note_on_c, 0, 86, 120
2, 555264, Note_on_c, 0, 82, 120
2, 555264, Note_on_c, 0, 77, 120
2, 555264, Note_on_c, 0, 74, 120
2, 555644, Note_off_c, 0, 86, 100
2, 555644, Note_off_c, 0, 82, 100
2, 555644, Note_off_c, 0, 77, 100
2, 555644, Note_off_c, 0, 74, 100
2, 555648, Note_on_c, 0, 87, 120
2, 555648, Note_on_c, 0, 82, 120
2, 555648, Note_on_c, 0, 77, 120
2, 555648, Note_on_c, 0, 74, 120
2, 555836, Note_off_c, 0, 87, 100
2, 555836, Note_off_c, 0, 82, 100
2, 555836, Note_off_c, 0, 77, 100
2, 555836, Note_off_c, 0, 74, 100
2, 555840, Note_on_c, 0, 86, 120
2, 555840, Note_on_c, 0, 82, 120
2, 555840, Note_on_c, 0, 77, 120
2, 555840, Note_on_c, 0, 74, 120
2, 556028, Note_off_c, 0, 86, 100
2, 556028, Note_off_c, 0, 82, 100
2, 556028, Note_off_c, 0, 77, 100
2, 556028, Note_off_c, 0, 74, 100
2, 556032, Note_on_c, 0, 86, 120
2, 556032, Note_on_c, 0, 82, 120
2, 556032, Note_on_c, 0, 77, 120
2, 556032, Note_on_c, 0, 74, 120
2, 556412, Note_off_c, 0, 86, 100
2, 556412, Note_off_c, 0, 82, 100
2, 556412, Note_off_c, 0, 77, 100
2, 556412, Note_off_c, 0, 74, 100
2, 556416, Note_on_c, 0, 82, 120
2, 556416, Note_on_c, 0, 77, 120
2, 556416, Note_on_c, 0, 74, 120
2, 556416, Note_on_c, 0, 70, 120
2, 556796, Note_off_c, 0, 82, 100
2, 556796, Note_off_c, 0, 77, 100
2, 556796, Note_off_c, 0, 74, 100
2, 556796, Note_off_c, 0, 70, 100
2, 557376, Note_on_c, 0, 77, 120
2, 557376, Note_on_c, 0, 74, 120
2, 557564, Note_off_c, 0, 77, 100
2, 557564, Note_off_c, 0, 74, 100
2, 557568, Control_c, 0, 64, 127
2, 557568, Note_on_c, 0, 89, 120
2, 557568, Note_on_c, 0, 82, 120
2, 557568, Note_on_c, 0, 77, 120
2, 558140, Note_off_c, 0, 89, 100
2, 558140, Note_off_c, 0, 82, 100
2, 558140, Note_off_c, 0, 77, 100
2, 558144, Note_on_c, 0, 89, 120
2, 558144, Note_on_c, 0, 86, 120
2, 558144, Note_on_c, 0, 82, 120
2, 558144, Note_on_c, 0, 77, 120
2, 558328, Control_c, 0, 64, 0
2, 558332, Note_off_c, 0, 89, 100
2, 558332, Note_off_c, 0, 86, 100
2, 558332, Note_off_c, 0, 82, 100
2, 558332, Note_off_c, 0, 77, 100
2, 558336, Note_on_c, 0, 89, 120
2, 558336, Note_on_c, 0, 86, 120
2, 558336, Note_on_c, 0, 82, 120
2, 558336, Note_on_c, 0, 77, 120
2, 558716, Note_off_c, 0, 89, 100
2, 558716, Note_off_c, 0, 86, 100
2, 558716, Note_off_c, 0, 82, 100
2, 558716, Note_off_c, 0, 77, 100
2, 558720, Note_on_c, 0, 91, 120
2, 558720, Note_on_c, 0, 86, 120
2, 558720, Note_on_c, 0, 82, 120
2, 558720, Note_on_c, 0, 77, 120
2, 558908, Note_off_c, 0, 91, 100
2, 558908, Note_off_c, 0, 86, 100
2, 558908, Note_off_c, 0, 82, 100
2, 558908, Note_off_c, 0, 77, 100
2, 558912, Note_on_c, 0, 89, 120
2, 558912, Note_on_c, 0, 86, 120
2, 558912, Note_on_c, 0, 82, 120
2, 558912, Note_on_c, 0, 77, 120
2, 559100, Note_off_c, 0, 89, 100
2, 559100, Note_off_c, 0, 86, 100
2, 559100, Note_off_c, 0, 82, 100
2, 559100, Note_off_c, 0, 77, 100
2, 559104, Note_on_c, 0, 89, 120
2, 559104, Note_on_c, 0, 86, 120
2, 559104, Note_on_c, 0, 82, 120
2, 559104, Note_on_c, 0, 77, 120
2, 559484, Note_off_c, 0, 89, 100
2, 559484, Note_off_c, 0, 86, 100
2, 559484, Note_off_c, 0, 82, 100
2, 559484, Note_off_c, 0, 77, 100
2, 559488, Note_on_c, 0, 86, 120
2, 559488, Note_on_c, 0, 82, 120
2, 559488, Note_on_c, 0, 77, 120
2, 559488, Note_on_c, 0, 74, 120
2, 559868, Note_off_c, 0, 86, 100
2, 559868, Note_off_c, 0, 82, 100
2, 559868, Note_off_c, 0, 77, 100
2, 559868, Note_off_c, 0, 74, 100
2, 560256, Note_on_c, 0, 82, 80
2, 560256, Note_on_c, 0, 79, 80
2, 560444, Note_off_c, 0, 82, 100
2, 560444, Note_off_c, 0, 79, 100
2, 560448, Note_on_c, 0, 84, 80
2, 560448, Note_on_c, 0, 81, 80
2, 560636, Note_off_c, 0, 84, 100
2, 560636, Note_off_c, 0, 81, 100
2, 560640, Note_on_c, 0, 86, 80
2, 560640, Note_on_c, 0, 82, 80
2, 560640, Note_on_c, 0, 74, 80
2, 561404, Note_off_c, 0, 86, 100
2, 561404, Note_off_c, 0, 82, 100
2, 561404, Note_off_c, 0, 74, 100
2, 561408, Note_on_c, 0, 84, 80
2, 561408, Note_on_c, 0, 81, 80
2, 561408, Note_on_c, 0, 77, 80
2, 561788, Note_off_c, 0, 84, 100
2, 561788, Note_off_c, 0, 81, 100
2, 561788, Note_off_c, 0, 77, 100
2, 561792, Note_on_c, 0, 65, 80
2, 561792, Note_on_c, 0, 72, 80
2, 561792, Note_on_c, 0, 69, 80
2, 561980, Note_off_c, 0, 72, 100
2, 561980, Note_off_c, 0, 69, 100
2, 561984, Note_on_c, 0, 74, 80
2, 561984, Note_on_c, 0, 71, 80
2, 562172, Note_off_c, 0, 65, 100
2, 562172, Note_off_c, 0, 74, 100
2, 562172, Note_off_c, 0, 71, 100
2, 562176, Note_on_c, 0, 75, 80
2, 562176, Note_on_c, 0, 72, 80
2, 562176, Note_on_c, 0, 67, 80
2, 562940, Note_off_c, 0, 75, 100
2, 562940, Note_off_c, 0, 72, 100
2, 562940, Note_off_c, 0, 67, 100
2, 562944, Note_on_c, 0, 74, 80
2, 562944, Note_on_c, 0, 70, 80
2, 562944, Note_on_c, 0, 67, 80
2, 563324, Note_off_c, 0, 74, 100
2, 563324, Note_off_c, 0, 70, 100
2, 563324, Note_off_c, 0, 67, 100
2, 563328, Note_on_c, 0, 70, 80
2, 563328, Note_on_c, 0, 74, 80
2, 563516, Note_off_c, 0, 74, 100
2, 563520, Note_on_c, 0, 75, 80
2, 563708, Note_off_c, 0, 75, 100
2, 563712, Note_on_c, 0, 77, 80
2, 564092, Note_off_c, 0, 70, 100
2, 564096, Note_on_c, 0, 70, 80
2, 564096, Note_on_c, 0, 67, 80
2, 564284, Note_off_c, 0, 77, 100
2, 564288, Note_on_c, 0, 79, 80
2, 564476, Note_off_c, 0, 70, 100
2, 564476, Note_off_c, 0, 67, 100
2, 564476, Note_off_c, 0, 79, 100
2, 564480, Note_on_c, 0, 67, 80
2, 564480, Note_on_c, 0, 77, 80
2, 564668, Note_off_c, 0, 77, 100
2, 564672, Note_on_c, 0, 75, 80
2, 564860, Note_off_c, 0, 67, 100
2, 564864, Note_on_c, 0, 69, 80
2, 565052, Note_off_c, 0, 75, 100
2, 565056, Note_on_c, 0, 77, 80
2, 565244, Note_off_c, 0, 69, 100
2, 565244, Note_off_c, 0, 77, 100
2, 565248, Note_on_c, 0, 75, 80
2, 565436, Note_off_c, 0, 75, 100
2, 565440, Note_on_c, 0, 74, 80
2, 565628, Note_off_c, 0, 74, 100
2, 565632, Note_on_c, 0, 77, 80
2, 565632, Note_on_c, 0, 74, 80
2, 565632, Note_on_c, 0, 68, 80
2, 565632, Note_on_c, 0, 65, 80
2, 565820, Note_off_c, 0, 77, 100
2, 565820, Note_off_c, 0, 74, 100
2, 565820, Note_off_c, 0, 68, 100
2, 565820, Note_off_c, 0, 65, 100
2, 565824, Note_on_c, 0, 75, 80
2, 565824, Note_on_c, 0, 72, 80
2, 565824, Note_on_c, 0, 67, 80
2, 565824, Note_on_c, 0, 63, 80
2, 566012, Note_off_c, 0, 75, 100
2, 566012, Note_off_c, 0, 72, 100
2, 566012, Note_off_c, 0, 67, 100
2, 566012, Note_off_c, 0, 63, 100
2, 566016, Note_on_c, 0, 72, 80
2, 566016, Note_on_c, 0, 69, 80
2, 566016, Note_on_c, 0, 60, 80
2, 567932, Note_off_c, 0, 60, 100
2, 567932, Note_off_c, 0, 69, 100
2, 567932, Note_off_c, 0, 72, 100
2, 567936, Note_on_c, 0, 74, 80
2, 568124, Note_off_c, 0, 74, 100
2, 568128, Note_on_c, 0, 75, 80
2, 568316, Note_off_c, 0, 75, 100
2, 568320, Note_on_c, 0, 77, 80
2, 568512, Note_on_c, 0, 69, 80
2, 568700, Note_off_c, 0, 69, 100
2, 568704, Note_on_c, 0, 70, 80
2, 568892, Note_off_c, 0, 77, 100
2, 568896, Note_on_c, 0, 79, 80
2, 569084, Note_off_c, 0, 79, 100
2, 569088, Note_on_c, 0, 75, 80
2, 569276, Note_off_c, 0, 70, 100
2, 569280, Note_on_c, 0, 66, 80
2, 569468, Note_off_c, 0, 66, 100
2, 569472, Note_on_c, 0, 69, 80
2, 569660, Note_off_c, 0, 75, 100
2, 569664, Note_on_c, 0, 77, 80
2, 569852, Note_off_c, 0, 77, 100
2, 569856, Note_on_c, 0, 75, 80
2, 570044, Note_off_c, 0, 69, 100
2, 570044, Note_off_c, 0, 75, 100
2, 570048, Note_on_c, 0, 74, 80
2, 570236, Note_off_c, 0, 74, 100
2, 570240, Note_on_c, 0, 77, 80
2, 570428, Note_off_c, 0, 77, 100
2, 570432, Note_on_c, 0, 75, 80
2, 570620, Note_off_c, 0, 75, 100
2, 570624, Note_on_c, 0, 72, 80
2, 571004, Note_off_c, 0, 72, 100
2, 571008, Note_on_c, 0, 75, 80
2, 571008, Note_on_c, 0, 63, 80
2, 571196, Note_off_c, 0, 75, 100
2, 571196, Note_off_c, 0, 63, 100
2, 571200, Note_on_c, 0, 77, 80
2, 571200, Note_on_c, 0, 65, 80
2, 571388, Note_off_c, 0, 77, 100
2, 571388, Note_off_c, 0, 65, 100
2, 571392, Note_on_c, 0, 79, 80
2, 571392, Note_on_c, 0, 67, 80
2, 571580, Note_off_c, 0, 67, 100
2, 571584, Note_on_c, 0, 69, 80
2, 571772, Note_off_c, 0, 69, 100
2, 571776, Note_on_c, 0, 70, 80
2, 571964, Note_off_c, 0, 79, 100
2, 571968, Note_on_c, 0, 81, 80
2, 572156, Note_off_c, 0, 81, 100
2, 572160, Note_on_c, 0, 77, 80
2, 572348, Note_off_c, 0, 70, 100
2, 572352, Note_on_c, 0, 69, 80
2, 572540, Note_off_c, 0, 69, 100
2, 572544, Note_on_c, 0, 70, 80
2, 572732, Note_off_c, 0, 77, 100
2, 572736, Note_on_c, 0, 79, 80
2, 572924, Note_off_c, 0, 79, 100
2, 572928, Note_on_c, 0, 77, 80
2, 573116, Note_off_c, 0, 77, 100
2, 573120, Note_on_c, 0, 75, 80
2, 573308, Note_off_c, 0, 70, 100
2, 573308, Note_off_c, 0, 75, 100
2, 573312, Note_on_c, 0, 79, 80
2, 573312, Note_on_c, 0, 70, 80
2, 573500, Note_off_c, 0, 79, 100
2, 573504, Note_on_c, 0, 77, 80
2, 573692, Note_off_c, 0, 77, 100
2, 573696, Note_on_c, 0, 74, 80
2, 574076, Note_off_c, 0, 70, 100
2, 574076, Note_off_c, 0, 74, 100
2, 574080, Note_on_c, 0, 77, 80
2, 574268, Note_off_c, 0, 77, 100
2, 574272, Note_on_c, 0, 78, 80
2, 574460, Note_off_c, 0, 78, 100
2, 574464, Note_on_c, 0, 80, 80
2, 574656, Note_on_c, 0, 69, 80
2, 574844, Note_off_c, 0, 69, 100
2, 574848, Note_on_c, 0, 70, 80
2, 575036, Note_off_c, 0, 80, 100
2, 575040, Note_on_c, 0, 82, 80
2, 575228, Note_off_c, 0, 82, 100
2, 575232, Note_on_c, 0, 78, 80
2, 575612, Note_off_c, 0, 70, 100
2, 575612, Note_off_c, 0, 78, 100
2, 575616, Note_on_c, 0, 78, 80
2, 575616, Note_on_c, 0, 66, 80
2, 575804, Note_off_c, 0, 78, 100
2, 575804, Note_off_c, 0, 66, 100
2, 575808, Note_on_c, 0, 80, 80
2, 575808, Note_on_c, 0, 68, 80
2, 575996, Note_off_c, 0, 80, 100
2, 575996, Note_off_c, 0, 68, 100
2, 576000, Note_on_c, 0, 82, 80
2, 576000, Note_on_c, 0, 70, 80
2, 576188, Note_off_c, 0, 70, 100
2, 576192, Note_on_c, 0, 72, 80
2, 576380, Note_off_c, 0, 72, 100
2, 576384, Note_on_c, 0, 73, 80
2, 576572, Note_off_c, 0, 82, 100
2, 576576, Note_on_c, 0, 83, 80
2, 576764, Note_off_c, 0, 83, 100
2, 576768, Note_on_c, 0, 80, 80
2, 576956, Note_off_c, 0, 73, 100
2, 576960, Note_on_c, 0, 77, 80
2, 577148, Note_off_c, 0, 80, 100
2, 577148, Note_off_c, 0, 77, 100
2, 577152, Note_on_c, 0, 82, 80
2, 577152, Note_on_c, 0, 78, 80
2, 577340, Note_off_c, 0, 82, 100
2, 577340, Note_off_c, 0, 78, 100
2, 577344, Note_on_c, 0, 83, 80
2, 577344, Note_on_c, 0, 80, 80
2, 577532, Note_off_c, 0, 83, 100
2, 577532, Note_off_c, 0, 80, 100
2, 577536, Note_on_c, 0, 85, 80
2, 577536, Note_on_c, 0, 82, 80
2, 577916, Note_off_c, 0, 82, 100
2, 577920, Note_on_c, 0, 78, 81
2, 578108, Note_off_c, 0, 85, 100
2, 578112, Note_on_c, 0, 87, 81
2, 578300, Note_off_c, 0, 87, 100
2, 578304, Note_on_c, 0, 85, 82
2, 578492, Note_off_c, 0, 85, 100
2, 578496, Note_on_c, 0, 83, 82
2, 578684, Note_off_c, 0, 78, 100
2, 578688, Note_on_c, 0, 77, 83
2, 578876, Note_off_c, 0, 83, 100
2, 578880, Note_on_c, 0, 85, 83
2, 579068, Note_off_c, 0, 85, 100
2, 579072, Note_on_c, 0, 83, 84
2, 579260, Note_off_c, 0, 83, 100
2, 579264, Note_on_c, 0, 82, 85
2, 579452, Note_off_c, 0, 77, 100
2, 579456, Note_on_c, 0, 78, 85
2, 579644, Note_off_c, 0, 82, 100
2, 579648, Note_on_c, 0, 83, 86
2, 579836, Note_off_c, 0, 83, 100
2, 579840, Note_on_c, 0, 82, 86
2, 580028, Note_off_c, 0, 78, 100
2, 580028, Note_off_c, 0, 82, 100
2, 580032, Note_on_c, 0, 77, 87
2, 580032, Note_on_c, 0, 80, 87
2, 580220, Note_off_c, 0, 77, 100
2, 580220, Note_off_c, 0, 80, 100
2, 580224, Note_on_c, 0, 78, 87
2, 580224, Note_on_c, 0, 82, 87
2, 580412, Note_off_c, 0, 78, 100
2, 580412, Note_off_c, 0, 82, 100
2, 580416, Note_on_c, 0, 80, 88
2, 580416, Note_on_c, 0, 83, 88
2, 580604, Note_off_c, 0, 80, 100
2, 580604, Note_off_c, 0, 83, 100
2, 580608, Note_on_c, 0, 87, 89
2, 580608, Note_on_c, 0, 80, 89
2, 580796, Note_off_c, 0, 87, 100
2, 580796, Note_off_c, 0, 80, 100
2, 580800, Note_on_c, 0, 85, 89
2, 580800, Note_on_c, 0, 77, 89
2, 580988, Note_off_c, 0, 85, 100
2, 580988, Note_off_c, 0, 77, 100
2, 580992, Note_on_c, 0, 87, 90
2, 580992, Note_on_c, 0, 78, 90
2, 581180, Note_off_c, 0, 87, 100
2, 581184, Note_on_c, 0, 85, 90
2, 581372, Note_off_c, 0, 85, 100
2, 581376, Note_on_c, 0, 85, 91
2, 581564, Note_off_c, 0, 78, 100
2, 581564, Note_off_c, 0, 85, 100
2, 581568, Note_on_c, 0, 83, 91
2, 581568, Note_on_c, 0, 76, 91
2, 581756, Note_off_c, 0, 83, 100
2, 581756, Note_off_c, 0, 76, 100
2, 581760, Note_on_c, 0, 85, 92
2, 581760, Note_on_c, 0, 77, 92
2, 581948, Note_off_c, 0, 85, 100
2, 581952, Note_on_c, 0, 83, 92
2, 582140, Note_off_c, 0, 83, 100
2, 582144, Note_on_c, 0, 83, 93
2, 582332, Note_off_c, 0, 77, 100
2, 582332, Note_off_c, 0, 83, 100
2, 582336, Note_on_c, 0, 82, 94
2, 582336, Note_on_c, 0, 73, 94
2, 582524, Note_off_c, 0, 82, 100
2, 582524, Note_off_c, 0, 73, 100
2, 582528, Note_on_c, 0, 83, 94
2, 582528, Note_on_c, 0, 78, 94
2, 582716, Note_off_c, 0, 83, 100
2, 582720, Note_on_c, 0, 82, 95
2, 582908, Note_off_c, 0, 82, 100
2, 582912, Note_on_c, 0, 82, 95
2, 583100, Note_off_c, 0, 78, 100
2, 583100, Note_off_c, 0, 82, 100
2, 583104, Note_on_c, 0, 80, 96
2, 583104, Note_on_c, 0, 77, 96
2, 583292, Note_off_c, 0, 80, 100
2, 583292, Note_off_c, 0, 77, 100
2, 583296, Note_on_c, 0, 82, 96
2, 583296, Note_on_c, 0, 78, 96
2, 583484, Note_off_c, 0, 82, 100
2, 583484, Note_off_c, 0, 78, 100
2, 583488, Note_on_c, 0, 83, 97
2, 583488, Note_on_c, 0, 80, 97
2, 583676, Note_off_c, 0, 83, 100
2, 583676, Note_off_c, 0, 80, 100
2, 583680, Note_on_c, 0, 87, 98
2, 583680, Note_on_c, 0, 77, 98
2, 583868, Note_off_c, 0, 87, 100
2, 583868, Note_off_c, 0, 77, 100
2, 583872, Note_on_c, 0, 85, 98
2, 583872, Note_on_c, 0, 78, 98
2, 584060, Note_off_c, 0, 85, 100
2, 584060, Note_off_c, 0, 78, 100
2, 584064, Note_on_c, 0, 73, 99
2, 584064, Note_on_c, 0, 78, 99
2, 584252, Note_off_c, 0, 73, 100
2, 584256, Note_on_c, 0, 85, 99
2, 584444, Note_off_c, 0, 78, 100
2, 584444, Note_off_c, 0, 85, 100
2, 584448, Note_on_c, 0, 85, 100
2, 584448, Note_on_c, 0, 76, 100
2, 584636, Note_off_c, 0, 85, 100
2, 584636, Note_off_c, 0, 76, 100
2, 584640, Note_on_c, 0, 83, 100
2, 584640, Note_on_c, 0, 77, 100
2, 584828, Note_off_c, 0, 83, 100
2, 584828, Note_off_c, 0, 77, 100
2, 584832, Note_on_c, 0, 71, 101
2, 584832, Note_on_c, 0, 77, 101
2, 585020, Note_off_c, 0, 71, 100
2, 585024, Note_on_c, 0, 83, 101
2, 585212, Note_off_c, 0, 77, 100
2, 585212, Note_off_c, 0, 83, 100
2, 585216, Note_on_c, 0, 83, 102
2, 585216, Note_on_c, 0, 77, 102
2, 585404, Note_off_c, 0, 83, 100
2, 585404, Note_off_c, 0, 77, 100
2, 585408, Note_on_c, 0, 82, 103
2, 585408, Note_on_c, 0, 78, 103
2, 585596, Note_off_c, 0, 82, 100
2, 585596, Note_off_c, 0, 78, 100
2, 585600, Note_on_c, 0, 70, 103
2, 585600, Note_on_c, 0, 78, 103
2, 585788, Note_off_c, 0, 70, 100
2, 585792, Note_on_c, 0, 82, 104
2, 585980, Note_off_c, 0, 78, 100
2, 585980, Note_off_c, 0, 82, 100
2, 585984, Note_on_c, 0, 82, 104
2, 586172, Note_off_c, 0, 82, 100
2, 586176, Note_on_c, 0, 80, 105
2, 586364, Note_off_c, 0, 80, 100
2, 586368, Note_on_c, 0, 82, 105
2, 586368, Note_on_c, 0, 73, 105
2, 586556, Note_off_c, 0, 82, 100
2, 586560, Note_on_c, 0, 83, 106
2, 586748, Note_off_c, 0, 83, 100
2, 586752, Note_on_c, 0, 87, 107
2, 586940, Note_off_c, 0, 73, 100
2, 586940, Note_off_c, 0, 87, 100
2, 586944, Note_on_c, 0, 85, 107
2, 586944, Note_on_c, 0, 78, 107
2, 587132, Note_off_c, 0, 78, 100
2, 587136, Note_on_c, 0, 83, 108
2, 587136, Note_on_c, 0, 77, 108
2, 587324, Note_off_c, 0, 85, 100
2, 587328, Note_on_c, 0, 86, 108
2, 587516, Note_off_c, 0, 83, 100
2, 587516, Note_off_c, 0, 77, 100
2, 587520, Note_on_c, 0, 82, 109
2, 587520, Note_on_c, 0, 78, 109
2, 587708, Note_off_c, 0, 86, 100
2, 587712, Note_on_c, 0, 87, 109
2, 587900, Note_off_c, 0, 82, 100
2, 587900, Note_off_c, 0, 78, 100
2, 587900, Note_off_c, 0, 87, 100
2, 587904, Note_on_c, 0, 88, 110
2, 587904, Note_on_c, 0, 82, 110
2, 587904, Note_on_c, 0, 77, 110
2, 588092, Note_off_c, 0, 88, 100
2, 588096, Note_on_c, 0, 89, 110
2, 588284, Note_off_c, 0, 82, 100
2, 588284, Note_off_c, 0, 77, 100
2, 588284, Note_off_c, 0, 89, 100
2, 588288, Note_on_c, 0, 92, 110
2, 588288, Note_on_c, 0, 82, 110
2, 588288, Note_on_c, 0, 78, 110
2, 588476, Note_off_c, 0, 92, 100
2, 588480, Note_on_c, 0, 90, 110
2, 588668, Note_off_c, 0, 82, 100
2, 588668, Note_off_c, 0, 78, 100
2, 588668, Note_off_c, 0, 90, 100
2, 588672, Note_on_c, 0, 89, 110
2, 588672, Note_on_c, 0, 82, 110
2, 588672, Note_on_c, 0, 78, 110
2, 588860, Note_off_c, 0, 89, 100
2, 588864, Note_on_c, 0, 87, 110
2, 589052, Note_off_c, 0, 82, 100
2, 589052, Note_off_c, 0, 78, 100
2, 589052, Note_off_c, 0, 87, 100
2, 589056, Note_on_c, 0, 85, 110
2, 589056, Note_on_c, 0, 80, 110
2, 589056, Note_on_c, 0, 77, 110
2, 589436, Note_off_c, 0, 85, 100
2, 589436, Note_off_c, 0, 80, 100
2, 589436, Note_off_c, 0, 77, 100
2, 589440, Note_on_c, 0, 89, 110
2, 589440, Note_on_c, 0, 80, 110
2, 589440, Note_on_c, 0, 77, 110
2, 589820, Note_off_c, 0, 89, 100
2, 589820, Note_off_c, 0, 80, 100
2, 589820, Note_off_c, 0, 77, 100
2, 589824, Control_c, 0, 64, 127
2, 589824, Note_on_c, 0, 90, 110
2, 589824, Note_on_c, 0, 85, 110
2, 589824, Note_on_c, 0, 82, 110
2, 589824, Note_on_c, 0, 78, 110
2, 590588, Note_off_c, 0, 90, 100
2, 590588, Note_off_c, 0, 85, 100
2, 590588, Note_off_c, 0, 82, 100
2, 590588, Note_off_c, 0, 78, 100
2, 590592, Note_on_c, 0, 66, 110
2, 590592, Note_on_c, 0, 61, 110
2, 590592, Note_on_c, 0, 58, 110
2, 591352, Control_c, 0, 64, 0
2, 591356, Note_off_c, 0, 66, 100
2, 591356, Note_off_c, 0, 61, 100
2, 591356, Note_off_c, 0, 58, 100
2, 591360, Note_on_c, 0, 70, 80
2, 591360, Note_on_c, 0, 66, 80
2, 591360, Note_on_c, 0, 61, 80
2, 591740, Note_off_c, 0, 70, 100
2, 591740, Note_off_c, 0, 66, 100
2, 591740, Note_off_c, 0, 61, 100
2, 591744, Note_on_c, 0, 66, 80
2, 591744, Note_on_c, 0, 61, 80
2, 591744, Note_on_c, 0, 58, 80
2, 592124, Note_off_c, 0, 66, 100
2, 592124, Note_off_c, 0, 61, 100
2, 592124, Note_off_c, 0, 58, 100
2, 592128, Note_on_c, 0, 70, 80
2, 592128, Note_on_c, 0, 66, 80
2, 592128, Note_on_c, 0, 61, 80
2, 592508, Note_off_c, 0, 70, 100
2, 592508, Note_off_c, 0, 66, 100
2, 592508, Note_off_c, 0, 61, 100
2, 592512, Note_on_c, 0, 68, 80
2, 592512, Note_on_c, 0, 65, 80
2, 592512, Note_on_c, 0, 62, 80
2, 592512, Note_on_c, 0, 59, 80
2, 592892, Note_off_c, 0, 68, 100
2, 592892, Note_off_c, 0, 65, 100
2, 592892, Note_off_c, 0, 62, 100
2, 592892, Note_off_c, 0, 59, 100
2, 592896, Control_c, 0, 64, 127
2, 592896, Note_on_c, 0, 92, 110
2, 592896, Note_on_c, 0, 89, 110
2, 592896, Note_on_c, 0, 86, 110
2, 592896, Note_on_c, 0, 83, 110
2, 592896, Note_on_c, 0, 80, 110
2, 593660, Note_off_c, 0, 92, 100
2, 593660, Note_off_c, 0, 89, 100
2, 593660, Note_off_c, 0, 86, 100
2, 593660, Note_off_c, 0, 83, 100
2, 593660, Note_off_c, 0, 80, 100
2, 593664, Note_on_c, 0, 68, 110
2, 593664, Note_on_c, 0, 65, 110
2, 593664, Note_on_c, 0, 62, 110
2, 593664, Note_on_c, 0, 59, 110
2, 594424, Control_c, 0, 64, 0
2, 594428, Note_off_c, 0, 68, 100
2, 594428, Note_off_c, 0, 65, 100
2, 594428, Note_off_c, 0, 62, 100
2, 594428, Note_off_c, 0, 59, 100
2, 594432, Note_on_c, 0, 71, 80
2, 594432, Note_on_c, 0, 68, 80
2, 594432, Note_on_c, 0, 65, 80
2, 594432, Note_on_c, 0, 62, 80
2, 594812, Note_off_c, 0, 71, 100
2, 594812, Note_off_c, 0, 68, 100
2, 594812, Note_off_c, 0, 65, 100
2, 594812, Note_off_c, 0, 62, 100
2, 594816, Note_on_c, 0, 68, 80
2, 594816, Note_on_c, 0, 65, 80
2, 594816, Note_on_c, 0, 62, 80
2, 594816, Note_on_c, 0, 59, 80
2, 595196, Note_off_c, 0, 68, 100
2, 595196, Note_off_c, 0, 65, 100
2, 595196, Note_off_c, 0, 62, 100
2, 595196, Note_off_c, 0, 59, 100
2, 595200, Note_on_c, 0, 71, 80
2, 595200, Note_on_c, 0, 68, 80
2, 595200, Note_on_c, 0, 65, 80
2, 595200, Note_on_c, 0, 62, 80
2, 595580, Note_off_c, 0, 71, 100
2, 595580, Note_off_c, 0, 68, 100
2, 595580, Note_off_c, 0, 65, 100
2, 595580, Note_off_c, 0, 62, 100
2, 595584, Note_on_c, 0, 70, 80
2, 595584, Note_on_c, 0, 67, 80
2, 595584, Note_on_c, 0, 64, 80
2, 595584, Note_on_c, 0, 61, 80
2, 595964, Note_off_c, 0, 70, 100
2, 595964, Note_off_c, 0, 67, 100
2, 595964, Note_off_c, 0, 64, 100
2, 595964, Note_off_c, 0, 61, 100
2, 595968, Control_c, 0, 64, 127
2, 595968, Note_on_c, 0, 94, 110
2, 595968, Note_on_c, 0, 88, 110
2, 595968, Note_on_c, 0, 85, 110
2, 595968, Note_on_c, 0, 82, 110
2, 596732, Note_off_c, 0, 94, 100
2, 596732, Note_off_c, 0, 88, 100
2, 596732, Note_off_c, 0, 85, 100
2, 596732, Note_off_c, 0, 82, 100
2, 596736, Note_on_c, 0, 70, 110
2, 596736, Note_on_c, 0, 67, 110
2, 596736, Note_on_c, 0, 64, 110
2, 596736, Note_on_c, 0, 61, 110
2, 597496, Control_c, 0, 64, 0
2, 597500, Note_off_c, 0, 70, 100
2, 597500, Note_off_c, 0, 67, 100
2, 597500, Note_off_c, 0, 64, 100
2, 597500, Note_off_c, 0, 61, 100
2, 597504, Note_on_c, 0, 73, 80
2, 597504, Note_on_c, 0, 70, 80
2, 597504, Note_on_c, 0, 67, 80
2, 597504, Note_on_c, 0, 64, 80
2, 597884, Note_off_c, 0, 73, 100
2, 597884, Note_off_c, 0, 70, 100
2, 597884, Note_off_c, 0, 67, 100
2, 597884, Note_off_c, 0, 64, 100
2, 597888, Note_on_c, 0, 70, 80
2, 597888, Note_on_c, 0, 67, 80
2, 597888, Note_on_c, 0, 64, 80
2, 597888, Note_on_c, 0, 61, 80
2, 598268, Note_off_c, 0, 70, 100
2, 598268, Note_off_c, 0, 67, 100
2, 598268, Note_off_c, 0, 64, 100
2, 598268, Note_off_c, 0, 61, 100
2, 598272, Note_on_c, 0, 73, 80
2, 598272, Note_on_c, 0, 70, 80
2, 598272, Note_on_c, 0, 67, 80
2, 598272, Note_on_c, 0, 64, 80
2, 598652, Note_off_c, 0, 73, 100
2, 598652, Note_off_c, 0, 70, 100
2, 598652, Note_off_c, 0, 67, 100
2, 598652, Note_off_c, 0, 64, 100
2, 598656, Note_on_c, 0, 71, 80
2, 598656, Note_on_c, 0, 66, 80
2, 598656, Note_on_c, 0, 62, 80
2, 599036, Note_off_c, 0, 71, 100
2, 599036, Note_off_c, 0, 66, 100
2, 599036, Note_off_c, 0, 62, 100
2, 599040, Control_c, 0, 64, 127
2, 599040, Note_on_c, 0, 95, 110
2, 599040, Note_on_c, 0, 90, 110
2, 599040, Note_on_c, 0, 86, 110
2, 599040, Note_on_c, 0, 83, 110
2, 599804, Note_off_c, 0, 95, 100
2, 599804, Note_off_c, 0, 90, 100
2, 599804, Note_off_c, 0, 86, 100
2, 599804, Note_off_c, 0, 83, 100
2, 599808, Note_on_c, 0, 71, 110
2, 599808, Note_on_c, 0, 66, 110
2, 599808, Note_on_c, 0, 62, 110
2, 600568, Control_c, 0, 64, 0
2, 600572, Note_off_c, 0, 71, 100
2, 600572, Note_off_c, 0, 66, 100
2, 600572, Note_off_c, 0, 62, 100
2, 600576, Note_on_c, 0, 74, 80
2, 600576, Note_on_c, 0, 71, 80
2, 600576, Note_on_c, 0, 68, 80
2, 600576, Note_on_c, 0, 65, 80
2, 600956, Note_off_c, 0, 74, 100
2, 600956, Note_off_c, 0, 71, 100
2, 600956, Note_off_c, 0, 68, 100
2, 600956, Note_off_c, 0, 65, 100
2, 600960, Note_on_c, 0, 71, 80
2, 600960, Note_on_c, 0, 68, 80
2, 600960, Note_on_c, 0, 65, 80
2, 600960, Note_on_c, 0, 62, 80
2, 601340, Note_off_c, 0, 71, 100
2, 601340, Note_off_c, 0, 68, 100
2, 601340, Note_off_c, 0, 65, 100
2, 601340, Note_off_c, 0, 62, 100
2, 601344, Note_on_c, 0, 74, 80
2, 601344, Note_on_c, 0, 71, 80
2, 601344, Note_on_c, 0, 68, 80
2, 601344, Note_on_c, 0, 65, 80
2, 601724, Note_off_c, 0, 74, 100
2, 601724, Note_off_c, 0, 71, 100
2, 601724, Note_off_c, 0, 68, 100
2, 601724, Note_off_c, 0, 65, 100
2, 601728, Note_on_c, 0, 73, 83
2, 601728, Note_on_c, 0, 70, 83
2, 601728, Note_on_c, 0, 67, 83
2, 601728, Note_on_c, 0, 64, 83
2, 602108, Note_off_c, 0, 73, 100
2, 602108, Note_off_c, 0, 70, 100
2, 602108, Note_off_c, 0, 67, 100
2, 602108, Note_off_c, 0, 64, 100
2, 602112, Note_on_c, 0, 76, 86
2, 602112, Note_on_c, 0, 70, 86
2, 602112, Note_on_c, 0, 67, 86
2, 602112, Note_on_c, 0, 73, 86
2, 602492, Note_off_c, 0, 76, 100
2, 602492, Note_off_c, 0, 70, 100
2, 602492, Note_off_c, 0, 67, 100
2, 602492, Note_off_c, 0, 73, 100
2, 602496, Note_on_c, 0, 73, 89
2, 602496, Note_on_c, 0, 70, 89
2, 602496, Note_on_c, 0, 67, 89
2, 602496, Note_on_c, 0, 64, 89
2, 602876, Note_off_c, 0, 73, 100
2, 602876, Note_off_c, 0, 70, 100
2, 602876, Note_off_c, 0, 67, 100
2, 602876, Note_off_c, 0, 64, 100
2, 602880, Note_on_c, 0, 76, 93
2, 602880, Note_on_c, 0, 73, 93
2, 602880, Note_on_c, 0, 70, 93
2, 602880, Note_on_c, 0, 67, 93
2, 603260, Note_off_c, 0, 76, 100
2, 603260, Note_off_c, 0, 73, 100
2, 603260, Note_off_c, 0, 70, 100
2, 603260, Note_off_c, 0, 67, 100
2, 603264, Note_on_c, 0, 74, 96
2, 603264, Note_on_c, 0, 71, 96
2, 603264, Note_on_c, 0, 66, 96
2, 603644, Note_off_c, 0, 74, 100
2, 603644, Note_off_c, 0, 71, 100
2, 603644, Note_off_c, 0, 66, 100
2, 603648, Note_on_c, 0, 78, 99
2, 603648, Note_on_c, 0, 74, 99
2, 603648, Note_on_c, 0, 71, 99
2, 603648, Note_on_c, 0, 66, 99
2, 604028, Note_off_c, 0, 78, 100
2, 604028, Note_off_c, 0, 74, 100
2, 604028, Note_off_c, 0, 71, 100
2, 604028, Note_off_c, 0, 66, 100
2, 604032, Note_on_c, 0, 74, 102
2, 604032, Note_on_c, 0, 71, 102
2, 604032, Note_on_c, 0, 66, 102
2, 604412, Note_off_c, 0, 74, 100
2, 604412, Note_off_c, 0, 71, 100
2, 604412, Note_off_c, 0, 66, 100
2, 604416, Note_on_c, 0, 78, 106
2, 604416, Note_on_c, 0, 74, 106
2, 604416, Note_on_c, 0, 71, 106
2, 604416, Note_on_c, 0, 66, 106
2, 604796, Note_off_c, 0, 78, 100
2, 604796, Note_off_c, 0, 74, 100
2, 604796, Note_off_c, 0, 71, 100
2, 604796, Note_off_c, 0, 66, 100
2, 604800, Note_on_c, 0, 77, 109
2, 604800, Note_on_c, 0, 73, 109
2, 604800, Note_on_c, 0, 71, 109
2, 604800, Note_on_c, 0, 68, 109
2, 605180, Note_off_c, 0, 77, 100
2, 605180, Note_off_c, 0, 73, 100
2, 605180, Note_off_c, 0, 71, 100
2, 605180, Note_off_c, 0, 68, 100
2, 605184, Note_on_c, 0, 92, 110
2, 605184, Note_on_c, 0, 80, 110
2, 605564, Note_off_c, 0, 92, 100
2, 605564, Note_off_c, 0, 80, 100
2, 605568, Note_on_c, 0, 90, 110
2, 605568, Note_on_c, 0, 78, 110
2, 605948, Note_off_c, 0, 90, 100
2, 605948, Note_off_c, 0, 78, 100
2, 605952, Note_on_c, 0, 87, 110
2, 605952, Note_on_c, 0, 75, 110
2, 606332, Note_off_c, 0, 87, 100
2, 606332, Note_off_c, 0, 75, 100
2, 606336, Note_on_c, 0, 85, 110
2, 606336, Note_on_c, 0, 73, 110
2, 606716, Note_off_c, 0, 85, 100
2, 606716, Note_off_c, 0, 73, 100
2, 606720, Note_on_c, 0, 83, 110
2, 606720, Note_on_c, 0, 71, 110
2, 607100, Note_off_c, 0, 83, 100
2, 607100, Note_off_c, 0, 71, 100
2, 607104, Note_on_c, 0, 82, 110
2, 607104, Note_on_c, 0, 70, 110
2, 607484, Note_off_c, 0, 82, 100
2, 607484, Note_off_c, 0, 70, 100
2, 607488, Note_on_c, 0, 80, 110
2, 607488, Note_on_c, 0, 68, 110
2, 607868, Note_off_c, 0, 80, 100
2, 607868, Note_off_c, 0, 68, 100
2, 607872, Note_on_c, 0, 78, 110
2, 607872, Note_on_c, 0, 66, 110
2, 608252, Note_off_c, 0, 78, 100
2, 608252, Note_off_c, 0, 66, 100
2, 608256, Note_on_c, 0, 75, 110
2, 608256, Note_on_c, 0, 63, 110
2, 608636, Note_off_c, 0, 75, 100
2, 608636, Note_off_c, 0, 63, 100
2, 608640, Note_on_c, 0, 73, 110
2, 608640, Note_on_c, 0, 61, 110
2, 609020, Note_off_c, 0, 73, 100
2, 609020, Note_off_c, 0, 61, 100
2, 609024, Note_on_c, 0, 71, 110
2, 609024, Note_on_c, 0, 59, 110
2, 609404, Note_off_c, 0, 71, 100
2, 609404, Note_off_c, 0, 59, 100
2, 609408, Note_on_c, 0, 70, 110
2, 609408, Note_on_c, 0, 58, 110
2, 609788, Note_off_c, 0, 70, 100
2, 609788, Note_off_c, 0, 58, 100
2, 609792, Note_on_c, 0, 68, 110
2, 609792, Note_on_c, 0, 56, 110
2, 610172, Note_off_c, 0, 68, 100
2, 610172, Note_off_c, 0, 56, 100
2, 610176, Note_on_c, 0, 66, 110
2, 610176, Note_on_c, 0, 54, 110
2, 610556, Note_off_c, 0, 66, 100
2, 610556, Note_off_c, 0, 54, 100
2, 610560, Note_on_c, 0, 63, 110
2, 610560, Note_on_c, 0, 51, 110
2, 610940, Note_off_c, 0, 63, 100
2, 610940, Note_off_c, 0, 51, 100
2, 610944, Note_on_c, 0, 61, 110
2, 610944, Note_on_c, 0, 49, 110
2, 611324, Note_off_c, 0, 61, 100
2, 611324, Note_off_c, 0, 49, 100
2, 611328, Control_c, 0, 64, 127
2, 611328, Note_on_c, 0, 65, 110
2, 611712, Note_on_c, 0, 61, 108
2, 612092, Note_off_c, 0, 65, 100
2, 612096, Note_on_c, 0, 68, 106
2, 612476, Note_off_c, 0, 61, 100
2, 612480, Note_on_c, 0, 61, 103
2, 612860, Note_off_c, 0, 68, 100
2, 612864, Note_on_c, 0, 73, 101
2, 613244, Note_off_c, 0, 61, 100
2, 613248, Note_on_c, 0, 61, 98
2, 613628, Note_off_c, 0, 73, 100
2, 613632, Note_on_c, 0, 77, 96
2, 614012, Note_off_c, 0, 61, 100
2, 614016, Note_on_c, 0, 61, 93
2, 614396, Note_off_c, 0, 77, 100
2, 614400, Note_on_c, 0, 80, 91
2, 614780, Note_off_c, 0, 61, 100
2, 614784, Note_on_c, 0, 61, 88
2, 615164, Note_off_c, 0, 80, 100
2, 615168, Note_on_c, 0, 85, 86
2, 615548, Note_off_c, 0, 61, 100
2, 615552, Note_on_c, 0, 61, 83
2, 615932, Note_off_c, 0, 85, 100
2, 615936, Note_on_c, 0, 85, 81
2, 616316, Note_off_c, 0, 61, 100
2, 616320, Note_on_c, 0, 61, 78
2, 616700, Note_off_c, 0, 85, 100
2, 616704, Note_on_c, 0, 85, 76
2, 617084, Note_off_c, 0, 61, 100
2, 618236, Note_off_c, 0, 85, 100
2, 618808, Control_c, 0, 64, 0
2, 618816, Control_c, 0, 64, 127
2, 619008, Key_signature, 2, "major"
2, 619584, Note_on_c, 0, 86, 120
2, 619584, Note_on_c, 0, 83, 120
2, 619584, Note_on_c, 0, 78, 120
2, 619584, Note_on_c, 0, 74, 120
2, 619772, Note_off_c, 0, 86, 100
2, 619772, Note_off_c, 0, 83, 100
2, 619772, Note_off_c, 0, 78, 100
2, 619772, Note_off_c, 0, 74, 100
2, 619776, Note_on_c, 0, 86, 120
2, 619776, Note_on_c, 0, 83, 120
2, 619776, Note_on_c, 0, 78, 120
2, 619776, Note_on_c, 0, 74, 120
2, 620156, Note_off_c, 0, 86, 100
2, 620156, Note_off_c, 0, 83, 100
2, 620156, Note_off_c, 0, 78, 100
2, 620156, Note_off_c, 0, 74, 100
2, 620160, Note_on_c, 0, 88, 120
2, 620160, Note_on_c, 0, 78, 120
2, 620160, Note_on_c, 0, 74, 120
2, 620160, Note_on_c, 0, 83, 120
2, 620348, Note_off_c, 0, 88, 100
2, 620348, Note_off_c, 0, 78, 100
2, 620348, Note_off_c, 0, 74, 100
2, 620348, Note_off_c, 0, 83, 100
2, 620352, Note_on_c, 0, 86, 120
2, 620352, Note_on_c, 0, 83, 120
2, 620352, Note_on_c, 0, 78, 120
2, 620352, Note_on_c, 0, 74, 120
2, 620540, Note_off_c, 0, 86, 100
2, 620540, Note_off_c, 0, 83, 100
2, 620540, Note_off_c, 0, 78, 100
2, 620540, Note_off_c, 0, 74, 100
2, 620544, Note_on_c, 0, 86, 120
2, 620544, Note_on_c, 0, 83, 120
2, 620544, Note_on_c, 0, 78, 120
2, 620544, Note_on_c, 0, 74, 120
2, 620924, Note_off_c, 0, 86, 100
2, 620924, Note_off_c, 0, 83, 100
2, 620924, Note_off_c, 0, 78, 100
2, 620924, Note_off_c, 0, 74, 100
2, 620928, Note_on_c, 0, 83, 120
2, 620928, Note_on_c, 0, 78, 120
2, 620928, Note_on_c, 0, 74, 120
2, 620928, Note_on_c, 0, 71, 120
2, 622844, Note_off_c, 0, 71, 100
2, 622844, Note_off_c, 0, 74, 100
2, 622844, Note_off_c, 0, 78, 100
2, 622844, Note_off_c, 0, 83, 100
2, 623224, Control_c, 0, 64, 0
2, 624000, Note_on_c, 0, 86, 80
2, 624000, Note_on_c, 0, 83, 80
2, 624000, Note_on_c, 0, 78, 80
2, 624000, Note_on_c, 0, 74, 80
2, 624380, Note_off_c, 0, 86, 100
2, 624380, Note_off_c, 0, 83, 100
2, 624380, Note_off_c, 0, 78, 100
2, 624380, Note_off_c, 0, 74, 100
2, 624768, Note_on_c, 0, 86, 80
2, 624768, Note_on_c, 0, 83, 80
2, 624768, Note_on_c, 0, 78, 80
2, 624768, Note_on_c, 0, 74, 80
2, 625148, Note_off_c, 0, 86, 100
2, 625148, Note_off_c, 0, 83, 100
2, 625148, Note_off_c, 0, 78, 100
2, 625148, Note_off_c, 0, 74, 100
2, 625536, Note_on_c, 0, 86, 80
2, 625536, Note_on_c, 0, 83, 80
2, 625536, Note_on_c, 0, 78, 80
2, 625536, Note_on_c, 0, 74, 80
2, 625916, Note_off_c, 0, 86, 100
2, 625916, Note_off_c, 0, 83, 100
2, 625916, Note_off_c, 0, 78, 100
2, 625916, Note_off_c, 0, 74, 100
2, 626304, Note_on_c, 0, 86, 80
2, 626304, Note_on_c, 0, 83, 80
2, 626304, Note_on_c, 0, 78, 80
2, 626304, Note_on_c, 0, 74, 80
2, 626684, Note_off_c, 0, 86, 100
2, 626684, Note_off_c, 0, 83, 100
2, 626684, Note_off_c, 0, 78, 100
2, 626684, Note_off_c, 0, 74, 100
2, 627072, Note_on_c, 0, 86, 80
2, 627072, Note_on_c, 0, 83, 80
2, 627072, Note_on_c, 0, 78, 80
2, 627072, Note_on_c, 0, 74, 80
2, 627452, Note_off_c, 0, 86, 100
2, 627452, Note_off_c, 0, 83, 100
2, 627452, Note_off_c, 0, 78, 100
2, 627452, Note_off_c, 0, 74, 100
2, 627840, Note_on_c, 0, 86, 80
2, 627840, Note_on_c, 0, 83, 80
2, 627840, Note_on_c, 0, 78, 80
2, 627840, Note_on_c, 0, 74, 80
2, 628220, Note_off_c, 0, 86, 100
2, 628220, Note_off_c, 0, 83, 100
2, 628220, Note_off_c, 0, 78, 100
2, 628220, Note_off_c, 0, 74, 100
2, 628608, Note_on_c, 0, 87, 81
2, 628608, Note_on_c, 0, 79, 81
2, 628608, Note_on_c, 0, 75, 81
2, 628608, Note_on_c, 0, 84, 81
2, 628988, Note_off_c, 0, 87, 100
2, 628988, Note_off_c, 0, 79, 100
2, 628988, Note_off_c, 0, 75, 100
2, 628988, Note_off_c, 0, 84, 100
2, 629376, Note_on_c, 0, 87, 85
2, 629376, Note_on_c, 0, 84, 85
2, 629376, Note_on_c, 0, 79, 85
2, 629376, Note_on_c, 0, 75, 85
2, 629756, Note_off_c, 0, 87, 100
2, 629756, Note_off_c, 0, 84, 100
2, 629756, Note_off_c, 0, 79, 100
2, 629756, Note_off_c, 0, 75, 100
2, 629760, Key_signature, -2, "major"
2, 630144, Note_on_c, 0, 87, 88
2, 630144, Note_on_c, 0, 84, 88
2, 630144, Note_on_c, 0, 79, 88
2, 630144, Note_on_c, 0, 75, 88
2, 630524, Note_off_c, 0, 87, 100
2, 630524, Note_off_c, 0, 84, 100
2, 630524, Note_off_c, 0, 79, 100
2, 630524, Note_off_c, 0, 75, 100
2, 630912, Note_on_c, 0, 87, 92
2, 630912, Note_on_c, 0, 84, 92
2, 630912, Note_on_c, 0, 79, 92
2, 630912, Note_on_c, 0, 75, 92
2, 631292, Note_off_c, 0, 87, 100
2, 631292, Note_off_c, 0, 84, 100
2, 631292, Note_off_c, 0, 79, 100
2, 631292, Note_off_c, 0, 75, 100
2, 631680, Note_on_c, 0, 87, 95
2, 631680, Note_on_c, 0, 84, 95
2, 631680, Note_on_c, 0, 79, 95
2, 631680, Note_on_c, 0, 75, 95
2, 632060, Note_off_c, 0, 87, 100
2, 632060, Note_off_c, 0, 84, 100
2, 632060, Note_off_c, 0, 79, 100
2, 632060, Note_off_c, 0, 75, 100
2, 632448, Note_on_c, 0, 87, 98
2, 632448, Note_on_c, 0, 84, 98
2, 632448, Note_on_c, 0, 79, 98
2, 632448, Note_on_c, 0, 75, 98
2, 632828, Note_off_c, 0, 87, 100
2, 632828, Note_off_c, 0, 84, 100
2, 632828, Note_off_c, 0, 79, 100
2, 632828, Note_off_c, 0, 75, 100
2, 633216, Note_on_c, 0, 87, 102
2, 633216, Note_on_c, 0, 84, 102
2, 633216, Note_on_c, 0, 79, 102
2, 633216, Note_on_c, 0, 75, 102
2, 633596, Note_off_c, 0, 87, 100
2, 633596, Note_off_c, 0, 84, 100
2, 633596, Note_off_c, 0, 79, 100
2, 633596, Note_off_c, 0, 75, 100
2, 633984, Note_on_c, 0, 93, 105
2, 633984, Note_on_c, 0, 87, 105
2, 633984, Note_on_c, 0, 84, 105
2, 633984, Note_on_c, 0, 81, 105
2, 634364, Note_off_c, 0, 93, 100
2, 634364, Note_off_c, 0, 87, 100
2, 634364, Note_off_c, 0, 84, 100
2, 634364, Note_off_c, 0, 81, 100
2, 634752, Note_on_c, 0, 96, 109
2, 634752, Note_on_c, 0, 93, 109
2, 634752, Note_on_c, 0, 87, 109
2, 634752, Note_on_c, 0, 84, 109
2, 635132, Note_off_c, 0, 96, 100
2, 635132, Note_off_c, 0, 93, 100
2, 635132, Note_off_c, 0, 87, 100
2, 635132, Note_off_c, 0, 84, 100
2, 635520, Note_on_c, 0, 99, 110
2, 635520, Note_on_c, 0, 96, 110
2, 635520, Note_on_c, 0, 93, 110
2, 635520, Note_on_c, 0, 87, 110
2, 635900, Note_off_c, 0, 99, 100
2, 635900, Note_off_c, 0, 96, 100
2, 635900, Note_off_c, 0, 93, 100
2, 635900, Note_off_c, 0, 87, 100
2, 635904, Note_on_c, 0, 99, 110
2, 635904, Note_on_c, 0, 96, 110
2, 635904, Note_on_c, 0, 93, 110
2, 635904, Note_on_c, 0, 87, 110
2, 636284, Note_off_c, 0, 99, 100
2, 636284, Note_off_c, 0, 96, 100
2, 636284, Note_off_c, 0, 93, 100
2, 636284, Note_off_c, 0, 87, 100
2, 636288, Note_on_c, 0, 87, 80
2, 636288, Note_on_c, 0, 84, 80
2, 636476, Note_off_c, 0, 87, 100
2, 636476, Note_off_c, 0, 84, 100
2, 636480, Note_on_c, 0, 86, 80
2, 636480, Note_on_c, 0, 83, 80
2, 636668, Note_off_c, 0, 86, 100
2, 636668, Note_off_c, 0, 83, 100
2, 636672, Note_on_c, 0, 87, 80
2, 636672, Note_on_c, 0, 84, 80
2, 637032, Note_on_c, 0, 69, 80
2, 637052, Note_off_c, 0, 87, 100
2, 637052, Note_off_c, 0, 84, 100
2, 637056, Note_on_c, 0, 72, 80
2, 637220, Note_off_c, 0, 69, 100
2, 637244, Note_off_c, 0, 72, 100
2, 637248, Note_on_c, 0, 73, 80
2, 637248, Note_on_c, 0, 70, 80
2, 637436, Note_off_c, 0, 73, 100
2, 637436, Note_off_c, 0, 70, 100
2, 637440, Note_on_c, 0, 72, 80
2, 637440, Note_on_c, 0, 69, 80
2, 637820, Note_off_c, 0, 72, 100
2, 637820, Note_off_c, 0, 69, 100
2, 637824, Note_on_c, 0, 75, 80
2, 637824, Note_on_c, 0, 72, 80
2, 638012, Note_off_c, 0, 75, 100
2, 638012, Note_off_c, 0, 72, 100
2, 638016, Note_on_c, 0, 74, 80
2, 638016, Note_on_c, 0, 71, 80
2, 638204, Note_off_c, 0, 74, 100
2, 638204, Note_off_c, 0, 71, 100
2, 638208, Note_on_c, 0, 75, 80
2, 638208, Note_on_c, 0, 72, 80
2, 638588, Note_off_c, 0, 75, 100
2, 638588, Note_off_c, 0, 72, 100
2, 638592, Note_on_c, 0, 81, 80
2, 638780, Note_off_c, 0, 81, 100
2, 638784, Note_on_c, 0, 84, 80
2, 638972, Note_off_c, 0, 84, 100
2, 638976, Note_on_c, 0, 87, 80
2, 639164, Note_off_c, 0, 87, 100
2, 639168, Note_on_c, 0, 89, 80
2, 639356, Note_off_c, 0, 89, 100
2, 639360, Note_on_c, 0, 87, 80
2, 639548, Note_off_c, 0, 87, 100
2, 639552, Note_on_c, 0, 86, 80
2, 639740, Note_off_c, 0, 86, 100
2, 639744, Note_on_c, 0, 87, 80
2, 639932, Note_off_c, 0, 87, 100
2, 639936, Note_on_c, 0, 89, 80
2, 640124, Note_off_c, 0, 89, 100
2, 640128, Note_on_c, 0, 91, 80
2, 640316, Note_off_c, 0, 91, 100
2, 640320, Note_on_c, 0, 87, 80
2, 640508, Note_off_c, 0, 87, 100
2, 640512, Note_on_c, 0, 84, 80
2, 640700, Note_off_c, 0, 84, 100
2, 640704, Note_on_c, 0, 86, 80
2, 640892, Note_off_c, 0, 86, 100
2, 640896, Note_on_c, 0, 87, 80
2, 641084, Note_off_c, 0, 87, 100
2, 641088, Note_on_c, 0, 84, 80
2, 641276, Note_off_c, 0, 84, 100
2, 641280, Note_on_c, 0, 81, 80
2, 641468, Note_off_c, 0, 81, 100
2, 641472, Note_on_c, 0, 82, 80
2, 641660, Note_off_c, 0, 82, 100
2, 641664, Note_on_c, 0, 84, 80
2, 641852, Note_off_c, 0, 84, 100
2, 641856, Note_on_c, 0, 81, 80
2, 642044, Note_off_c, 0, 81, 100
2, 642048, Note_on_c, 0, 75, 80
2, 642236, Note_off_c, 0, 75, 100
2, 642240, Note_on_c, 0, 77, 80
2, 642428, Note_off_c, 0, 77, 100
2, 642432, Note_on_c, 0, 79, 80
2, 642620, Note_off_c, 0, 79, 100
2, 642624, Note_on_c, 0, 75, 80
2, 642812, Note_off_c, 0, 75, 100
2, 642816, Note_on_c, 0, 72, 80
2, 643004, Note_off_c, 0, 72, 100
2, 643008, Note_on_c, 0, 74, 80
2, 643196, Note_off_c, 0, 74, 100
2, 643200, Note_on_c, 0, 75, 80
2, 643388, Note_off_c, 0, 75, 100
2, 643392, Note_on_c, 0, 72, 80
2, 643580, Note_off_c, 0, 72, 100
2, 643584, Note_on_c, 0, 69, 80
2, 643772, Note_off_c, 0, 69, 100
2, 643776, Note_on_c, 0, 70, 80
2, 643964, Note_off_c, 0, 70, 100
2, 643968, Note_on_c, 0, 72, 80
2, 644156, Note_off_c, 0, 72, 100
2, 644160, Note_on_c, 0, 69, 80
2, 644348, Note_off_c, 0, 69, 100
2, 644352, Note_on_c, 0, 65, 80
2, 644352, Note_on_c, 0, 63, 80
2, 644352, Note_on_c, 0, 60, 80
2, 644732, Note_off_c, 0, 65, 100
2, 644732, Note_off_c, 0, 63, 100
2, 644732, Note_off_c, 0, 60, 100
2, 645120, Note_on_c, 0, 86, 80
2, 645308, Note_off_c, 0, 86, 100
2, 645312, Note_on_c, 0, 87, 80
2, 645500, Note_off_c, 0, 87, 100
2, 645504, Note_on_c, 0, 86, 80
2, 645692, Note_off_c, 0, 86, 100
2, 645696, Note_on_c, 0, 84, 80
2, 645884, Note_off_c, 0, 84, 100
2, 645888, Note_on_c, 0, 86, 80
2, 646076, Note_off_c, 0, 86, 100
2, 646080, Note_on_c, 0, 87, 80
2, 646268, Note_off_c, 0, 87, 100
2, 646272, Note_on_c, 0, 89, 80
2, 646460, Note_off_c, 0, 89, 100
2, 646464, Note_on_c, 0, 86, 80
2, 646652, Note_off_c, 0, 86, 100
2, 646656, Note_on_c, 0, 82, 80
2, 646844, Note_off_c, 0, 82, 100
2, 646848, Note_on_c, 0, 84, 80
2, 647036, Note_off_c, 0, 84, 100
2, 647040, Note_on_c, 0, 86, 80
2, 647228, Note_off_c, 0, 86, 100
2, 647232, Note_on_c, 0, 82, 80
2, 647420, Note_off_c, 0, 82, 100
2, 647424, Note_on_c, 0, 77, 80
2, 647612, Note_off_c, 0, 77, 100
2, 647616, Note_on_c, 0, 81, 80
2, 647804, Note_off_c, 0, 81, 100
2, 647808, Note_on_c, 0, 82, 80
2, 647996, Note_off_c, 0, 82, 100
2, 648000, Note_on_c, 0, 77, 80
2, 648188, Note_off_c, 0, 77, 100
2, 648192, Note_on_c, 0, 74, 80
2, 648380, Note_off_c, 0, 74, 100
2, 648384, Note_on_c, 0, 75, 80
2, 648572, Note_off_c, 0, 75, 100
2, 648576, Note_on_c, 0, 77, 80
2, 648764, Note_off_c, 0, 77, 100
2, 648768, Note_on_c, 0, 74, 80
2, 648956, Note_off_c, 0, 74, 100
2, 648960, Note_on_c, 0, 70, 80
2, 649148, Note_off_c, 0, 70, 100
2, 649152, Note_on_c, 0, 72, 80
2, 649340, Note_off_c, 0, 72, 100
2, 649344, Note_on_c, 0, 74, 80
2, 649532, Note_off_c, 0, 74, 100
2, 649536, Note_on_c, 0, 70, 80
2, 649724, Note_off_c, 0, 70, 100
2, 649728, Note_on_c, 0, 65, 80
2, 649916, Note_off_c, 0, 65, 100
2, 649920, Note_on_c, 0, 69, 80
2, 650108, Note_off_c, 0, 69, 100
2, 650112, Note_on_c, 0, 70, 80
2, 650300, Note_off_c, 0, 70, 100
2, 650304, Note_on_c, 0, 62, 80
2, 650492, Note_off_c, 0, 62, 100
2, 650496, Note_on_c, 0, 70, 80
2, 650684, Note_off_c, 0, 70, 100
2, 650688, Note_on_c, 0, 72, 80
2, 650876, Note_off_c, 0, 72, 100
2, 650880, Note_on_c, 0, 74, 80
2, 651068, Note_off_c, 0, 74, 100
2, 651072, Note_on_c, 0, 70, 80
2, 651260, Note_off_c, 0, 70, 100
2, 651264, Note_on_c, 0, 72, 80
2, 651264, Note_on_c, 0, 69, 80
2, 651264, Note_on_c, 0, 65, 80
2, 651644, Note_off_c, 0, 72, 100
2, 651644, Note_off_c, 0, 69, 100
2, 651644, Note_off_c, 0, 65, 100
2, 651648, Note_on_c, 0, 91, 80
2, 651836, Note_off_c, 0, 91, 100
2, 651840, Note_on_c, 0, 89, 80
2, 652028, Note_off_c, 0, 89, 100
2, 652032, Note_on_c, 0, 91, 80
2, 652220, Note_off_c, 0, 91, 100
2, 652224, Note_on_c, 0, 89, 80
2, 652412, Note_off_c, 0, 89, 100
2, 652416, Note_on_c, 0, 87, 80
2, 652604, Note_off_c, 0, 87, 100
2, 652608, Note_on_c, 0, 91, 80
2, 652796, Note_off_c, 0, 91, 100
2, 652800, Note_on_c, 0, 87, 80
2, 652988, Note_off_c, 0, 87, 100
2, 652992, Note_on_c, 0, 86, 80
2, 653180, Note_off_c, 0, 86, 100
2, 653184, Note_on_c, 0, 84, 80
2, 653372, Note_off_c, 0, 84, 100
2, 653376, Note_on_c, 0, 87, 80
2, 653564, Note_off_c, 0, 87, 100
2, 653568, Note_on_c, 0, 84, 80
2, 653756, Note_off_c, 0, 84, 100
2, 653760, Note_on_c, 0, 82, 80
2, 653948, Note_off_c, 0, 82, 100
2, 653952, Note_on_c, 0, 81, 80
2, 654140, Note_off_c, 0, 81, 100
2, 654144, Note_on_c, 0, 84, 80
2, 654332, Note_off_c, 0, 84, 100
2, 654336, Note_on_c, 0, 78, 80
2, 654524, Note_off_c, 0, 78, 100
2, 654528, Note_on_c, 0, 77, 80
2, 654716, Note_off_c, 0, 77, 100
2, 654720, Note_on_c, 0, 75, 80
2, 654908, Note_off_c, 0, 75, 100
2, 654912, Note_on_c, 0, 78, 80
2, 655100, Note_off_c, 0, 78, 100
2, 655104, Note_on_c, 0, 75, 80
2, 655292, Note_off_c, 0, 75, 100
2, 655296, Note_on_c, 0, 74, 80
2, 655484, Note_off_c, 0, 74, 100
2, 655488, Note_on_c, 0, 72, 80
2, 655676, Note_off_c, 0, 72, 100
2, 655680, Note_on_c, 0, 75, 80
2, 655868, Note_off_c, 0, 75, 100
2, 655872, Note_on_c, 0, 72, 80
2, 656060, Note_off_c, 0, 72, 100
2, 656064, Note_on_c, 0, 70, 80
2, 656252, Note_off_c, 0, 70, 100
2, 656256, Note_on_c, 0, 69, 80
2, 656444, Note_off_c, 0, 69, 100
2, 656448, Note_on_c, 0, 72, 80
2, 656636, Note_off_c, 0, 72, 100
2, 656640, Note_on_c, 0, 63, 80
2, 656828, Note_off_c, 0, 63, 100
2, 656832, Note_on_c, 0, 62, 80
2, 657020, Note_off_c, 0, 62, 100
2, 657024, Note_on_c, 0, 60, 80
2, 657212, Note_off_c, 0, 60, 100
2, 657216, Note_on_c, 0, 63, 80
2, 657404, Note_off_c, 0, 63, 100
2, 657408, Note_on_c, 0, 70, 80
2, 657408, Note_on_c, 0, 65, 80
2, 657788, Note_off_c, 0, 70, 100
2, 657788, Note_off_c, 0, 65, 100
2, 657792, Note_on_c, 0, 89, 80
2, 657980, Note_off_c, 0, 89, 100
2, 657984, Note_on_c, 0, 87, 80
2, 658172, Note_off_c, 0, 87, 100
2, 658176, Note_on_c, 0, 89, 80
2, 658364, Note_off_c, 0, 89, 100
2, 658368, Note_on_c, 0, 87, 80
2, 658556, Note_off_c, 0, 87, 100
2, 658560, Note_on_c, 0, 86, 80
2, 658748, Note_off_c, 0, 86, 100
2, 658752, Note_on_c, 0, 89, 80
2, 658940, Note_off_c, 0, 89, 100
2, 658944, Note_on_c, 0, 86, 80
2, 659132, Note_off_c, 0, 86, 100
2, 659136, Note_on_c, 0, 84, 80
2, 659324, Note_off_c, 0, 84, 100
2, 659328, Note_on_c, 0, 82, 80
2, 659516, Note_off_c, 0, 82, 100
2, 659520, Note_on_c, 0, 86, 80
2, 659708, Note_off_c, 0, 86, 100
2, 659712, Note_on_c, 0, 77, 80
2, 659900, Note_off_c, 0, 77, 100
2, 659904, Note_on_c, 0, 75, 80
2, 660092, Note_off_c, 0, 75, 100
2, 660096, Note_on_c, 0, 74, 80
2, 660284, Note_off_c, 0, 74, 100
2, 660288, Note_on_c, 0, 77, 80
2, 660476, Note_off_c, 0, 77, 100
2, 660480, Note_on_c, 0, 82, 80
2, 660668, Note_off_c, 0, 82, 100
2, 660672, Note_on_c, 0, 79, 80
2, 660860, Note_off_c, 0, 79, 100
2, 660864, Note_on_c, 0, 77, 80
2, 661052, Note_off_c, 0, 77, 100
2, 661056, Note_on_c, 0, 82, 80
2, 661244, Note_off_c, 0, 82, 100
2, 661248, Note_on_c, 0, 77, 80
2, 661436, Note_off_c, 0, 77, 100
2, 661440, Note_on_c, 0, 75, 80
2, 661628, Note_off_c, 0, 75, 100
2, 661632, Note_on_c, 0, 74, 80
2, 661820, Note_off_c, 0, 74, 100
2, 661824, Note_on_c, 0, 77, 80
2, 662012, Note_off_c, 0, 77, 100
2, 662016, Note_on_c, 0, 86, 80
2, 662016, Note_on_c, 0, 74, 80
2, 662204, Note_off_c, 0, 86, 100
2, 662208, Note_on_c, 0, 84, 80
2, 662396, Note_off_c, 0, 84, 100
2, 662400, Note_on_c, 0, 82, 80
2, 662588, Note_off_c, 0, 82, 100
2, 662592, Note_on_c, 0, 86, 80
2, 662780, Note_off_c, 0, 74, 100
2, 662780, Note_off_c, 0, 86, 100
2, 662784, Note_on_c, 0, 87, 80
2, 662784, Note_on_c, 0, 78, 80
2, 662972, Note_off_c, 0, 87, 100
2, 662976, Note_on_c, 0, 84, 80
2, 663164, Note_off_c, 0, 84, 100
2, 663168, Note_on_c, 0, 86, 80
2, 663356, Note_off_c, 0, 86, 100
2, 663360, Note_on_c, 0, 87, 80
2, 663548, Note_off_c, 0, 78, 100
2, 663548, Note_off_c, 0, 87, 100
2, 663552, Note_on_c, 0, 86, 80
2, 663552, Note_on_c, 0, 74, 80
2, 663932, Note_off_c, 0, 86, 100
2, 663932, Note_off_c, 0, 74, 100
2, 665472, Note_on_c, 0, 72, 80
2, 665472, Note_on_c, 0, 69, 80
2, 665852, Note_off_c, 0, 72, 100
2, 665852, Note_off_c, 0, 69, 100
2, 665856, Note_on_c, 0, 74, 80
2, 665856, Note_on_c, 0, 70, 80
2, 666236, Note_off_c, 0, 74, 100
2, 666236, Note_off_c, 0, 70, 100
2, 666240, Note_on_c, 0, 94, 80
2, 666428, Note_off_c, 0, 94, 100
2, 666432, Note_on_c, 0, 93, 80
2, 666620, Note_off_c, 0, 93, 100
2, 666624, Note_on_c, 0, 94, 80
2, 667004, Note_off_c, 0, 94, 100
2, 667008, Note_on_c, 0, 91, 80
2, 667008, Note_on_c, 0, 82, 80
2, 667008, Note_on_c, 0, 79, 80
2, 667388, Note_off_c, 0, 91, 100
2, 667388, Note_off_c, 0, 82, 100
2, 667388, Note_off_c, 0, 79, 100
2, 667392, Note_on_c, 0, 89, 80
2, 667392, Note_on_c, 0, 81, 80
2, 667392, Note_on_c, 0, 77, 80
2, 667772, Note_off_c, 0, 89, 100
2, 667772, Note_off_c, 0, 81, 100
2, 667772, Note_off_c, 0, 77, 100
2, 667776, Note_on_c, 0, 88, 80
2, 667776, Note_on_c, 0, 79, 80
2, 667776, Note_on_c, 0, 76, 80
2, 668156, Note_off_c, 0, 88, 100
2, 668156, Note_off_c, 0, 79, 100
2, 668156, Note_off_c, 0, 76, 100
2, 668160, Note_on_c, 0, 91, 80
2, 668160, Note_on_c, 0, 82, 80
2, 668160, Note_on_c, 0, 79, 80
2, 668540, Note_off_c, 0, 91, 100
2, 668540, Note_off_c, 0, 82, 100
2, 668540, Note_off_c, 0, 79, 100
2, 668544, Note_on_c, 0, 89, 80
2, 668544, Note_on_c, 0, 77, 80
2, 668544, Note_on_c, 0, 81, 80
2, 668924, Note_off_c, 0, 89, 100
2, 668924, Note_off_c, 0, 77, 100
2, 668924, Note_off_c, 0, 81, 100
2, 668928, Note_on_c, 0, 89, 80
2, 668928, Note_on_c, 0, 81, 80
2, 669308, Note_off_c, 0, 89, 100
2, 669308, Note_off_c, 0, 81, 100
2, 669312, Note_on_c, 0, 77, 80
2, 669312, Note_on_c, 0, 70, 80
2, 669500, Note_off_c, 0, 77, 100
2, 669500, Note_off_c, 0, 70, 100
2, 669504, Note_on_c, 0, 75, 80
2, 669504, Note_on_c, 0, 72, 80
2, 669692, Note_off_c, 0, 75, 100
2, 669692, Note_off_c, 0, 72, 100
2, 669696, Note_on_c, 0, 74, 80
2, 670076, Note_off_c, 0, 74, 100
2, 670080, Note_on_c, 0, 86, 80
2, 670080, Note_on_c, 0, 70, 80
2, 670460, Note_off_c, 0, 86, 100
2, 670464, Note_on_c, 0, 79, 80
2, 670652, Note_off_c, 0, 70, 100
2, 670652, Note_off_c, 0, 79, 100
2, 670848, Note_on_c, 0, 87, 80
2, 670848, Note_on_c, 0, 75, 80
2, 671036, Note_off_c, 0, 87, 100
2, 671036, Note_off_c, 0, 75, 100
2, 671040, Note_on_c, 0, 84, 80
2, 671040, Note_on_c, 0, 79, 80
2, 671228, Note_off_c, 0, 84, 100
2, 671228, Note_off_c, 0, 79, 100
2, 671232, Note_on_c, 0, 81, 80
2, 671612, Note_off_c, 0, 81, 100
2, 671616, Note_on_c, 0, 89, 80
2, 671616, Note_on_c, 0, 77, 80
2, 671996, Note_off_c, 0, 89, 100
2, 672000, Note_on_c, 0, 86, 80
2, 672188, Note_off_c, 0, 77, 100
2, 672188, Note_off_c, 0, 86, 100
2, 672384, Note_on_c, 0, 82, 80
2, 672572, Note_off_c, 0, 82, 100
2, 672576, Note_on_c, 0, 81, 80
2, 672764, Note_off_c, 0, 81, 100
2, 672768, Note_on_c, 0, 82, 80
2, 673148, Note_off_c, 0, 82, 100
2, 673152, Note_on_c, 0, 91, 80
2, 673152, Note_on_c, 0, 79, 80
2, 673532, Note_off_c, 0, 91, 100
2, 673532, Note_off_c, 0, 79, 100
2, 673536, Note_on_c, 0, 87, 80
2, 673536, Note_on_c, 0, 79, 80
2, 673536, Note_on_c, 0, 75, 80
2, 673916, Note_off_c, 0, 87, 100
2, 673916, Note_off_c, 0, 79, 100
2, 673916, Note_off_c, 0, 75, 100
2, 673920, Note_on_c, 0, 86, 80
2, 673920, Note_on_c, 0, 81, 80
2, 673920, Note_on_c, 0, 74, 80
2, 674300, Note_off_c, 0, 86, 100
2, 674300, Note_off_c, 0, 81, 100
2, 674300, Note_off_c, 0, 74, 100
2, 674304, Note_on_c, 0, 86, 80
2, 674304, Note_on_c, 0, 74, 80
2, 674684, Note_off_c, 0, 74, 100
2, 674688, Note_on_c, 0, 84, 80
2, 674876, Note_off_c, 0, 84, 100
2, 674880, Note_on_c, 0, 82, 80
2, 675068, Note_off_c, 0, 82, 100
2, 675072, Note_on_c, 0, 82, 80
2, 675452, Note_off_c, 0, 86, 100
2, 675452, Note_off_c, 0, 82, 100
2, 675456, Note_on_c, 0, 91, 80
2, 675456, Note_on_c, 0, 85, 80
2, 675456, Note_on_c, 0, 82, 80
2, 675836, Note_off_c, 0, 91, 100
2, 675836, Note_off_c, 0, 85, 100
2, 675840, Note_on_c, 0, 84, 80
2, 676220, Note_off_c, 0, 82, 100
2, 676224, Note_on_c, 0, 82, 80
2, 676412, Note_off_c, 0, 82, 100
2, 676416, Note_on_c, 0, 80, 80
2, 676604, Note_off_c, 0, 80, 100
2, 676608, Note_on_c, 0, 80, 80
2, 676988, Note_off_c, 0, 84, 100
2, 676988, Note_off_c, 0, 80, 100
2, 676992, Note_on_c, 0, 80, 80
2, 676992, Note_on_c, 0, 83, 80
2, 676992, Note_on_c, 0, 89, 80
2, 677372, Note_off_c, 0, 83, 100
2, 677372, Note_off_c, 0, 89, 100
2, 677376, Note_on_c, 0, 82, 80
2, 677756, Note_off_c, 0, 80, 100
2, 677760, Note_on_c, 0, 80, 80
2, 677948, Note_off_c, 0, 80, 100
2, 677952, Note_on_c, 0, 79, 80
2, 678140, Note_off_c, 0, 79, 100
2, 678144, Note_on_c, 0, 79, 80
2, 678524, Note_off_c, 0, 82, 100
2, 678524, Note_off_c, 0, 79, 100
2, 678528, Note_on_c, 0, 79, 80
2, 678528, Note_on_c, 0, 82, 80
2, 678528, Note_on_c, 0, 88, 80
2, 678908, Note_off_c, 0, 82, 100
2, 678908, Note_off_c, 0, 88, 100
2, 678912, Note_on_c, 0, 81, 80
2, 679292, Note_off_c, 0, 79, 100
2, 679296, Note_on_c, 0, 79, 80
2, 679484, Note_off_c, 0, 79, 100
2, 679488, Note_on_c, 0, 77, 80
2, 679676, Note_off_c, 0, 77, 100
2, 679680, Note_on_c, 0, 77, 80
2, 680060, Note_off_c, 0, 81, 100
2, 680060, Note_off_c, 0, 77, 100
2, 680064, Note_on_c, 0, 77, 80
2, 680064, Note_on_c, 0, 80, 80
2, 680064, Note_on_c, 0, 86, 80
2, 680444, Note_off_c, 0, 80, 100
2, 680444, Note_off_c, 0, 86, 100
2, 680448, Note_on_c, 0, 80, 80
2, 680636, Note_off_c, 0, 80, 100
2, 680640, Note_on_c, 0, 79, 80
2, 680828, Note_off_c, 0, 77, 100
2, 680832, Note_on_c, 0, 75, 80
2, 681020, Note_off_c, 0, 79, 100
2, 681024, Note_on_c, 0, 84, 80
2, 681212, Note_off_c, 0, 75, 100
2, 681212, Note_off_c, 0, 84, 100
2, 681216, Note_on_c, 0, 78, 80
2, 681216, Note_on_c, 0, 75, 80
2, 681404, Note_off_c, 0, 78, 100
2, 681408, Note_on_c, 0, 77, 80
2, 681596, Note_off_c, 0, 75, 100
2, 681600, Note_on_c, 0, 74, 80
2, 681788, Note_off_c, 0, 77, 100
2, 681792, Note_on_c, 0, 82, 80
2, 681980, Note_off_c, 0, 74, 100
2, 681980, Note_off_c, 0, 82, 100
2, 681984, Note_on_c, 0, 77, 80
2, 682172, Note_off_c, 0, 77, 100
2, 682176, Note_on_c, 0, 89, 81
2, 682364, Note_off_c, 0, 89, 100
2, 682368, Note_on_c, 0, 88, 82
2, 682556, Note_off_c, 0, 88, 100
2, 682560, Note_on_c, 0, 87, 84
2, 682748, Note_off_c, 0, 87, 100
2, 682752, Note_on_c, 0, 84, 85
2, 682940, Note_off_c, 0, 84, 100
2, 682944, Note_on_c, 0, 81, 86
2, 683132, Note_off_c, 0, 81, 100
2, 683136, Note_on_c, 0, 78, 88
2, 683324, Note_off_c, 0, 78, 100
2, 683328, Note_on_c, 0, 77, 89
2, 683516, Note_off_c, 0, 77, 100
2, 683520, Note_on_c, 0, 76, 90
2, 683708, Note_off_c, 0, 76, 100
2, 683712, Note_on_c, 0, 75, 92
2, 683900, Note_off_c, 0, 75, 100
2, 683904, Note_on_c, 0, 72, 93
2, 684092, Note_off_c, 0, 72, 100
2, 684096, Note_on_c, 0, 69, 94
2, 684284, Note_off_c, 0, 69, 100
2, 684288, Note_on_c, 0, 70, 80
2, 684288, Note_on_c, 0, 66, 80
2, 684476, Note_off_c, 0, 66, 100
2, 684480, Note_on_c, 0, 65, 80
2, 684668, Note_off_c, 0, 70, 100
2, 684668, Note_off_c, 0, 65, 100
2, 684672, Note_on_c, 0, 70, 80
2, 684672, Note_on_c, 0, 79, 80
2, 684860, Note_off_c, 0, 79, 100
2, 684864, Note_on_c, 0, 77, 80
2, 685052, Note_off_c, 0, 70, 100
2, 685052, Note_off_c, 0, 77, 100
2, 685056, Note_on_c, 0, 77, 80
2, 685244, Note_off_c, 0, 77, 100
2, 685248, Note_on_c, 0, 89, 81
2, 685436, Note_off_c, 0, 89, 100
2, 685440, Note_on_c, 0, 88, 82
2, 685628, Note_off_c, 0, 88, 100
2, 685632, Note_on_c, 0, 87, 84
2, 685820, Note_off_c, 0, 87, 100
2, 685824, Note_on_c, 0, 84, 85
2, 686012, Note_off_c, 0, 84, 100
2, 686016, Note_on_c, 0, 81, 86
2, 686204, Note_off_c, 0, 81, 100
2, 686208, Note_on_c, 0, 78, 88
2, 686396, Note_off_c, 0, 78, 100
2, 686400, Note_on_c, 0, 77, 89
2, 686588, Note_off_c, 0, 77, 100
2, 686592, Note_on_c, 0, 76, 90
2, 686780, Note_off_c, 0, 76, 100
2, 686784, Note_on_c, 0, 75, 92
2, 686972, Note_off_c, 0, 75, 100
2, 686976, Note_on_c, 0, 72, 93
2, 687164, Note_off_c, 0, 72, 100
2, 687168, Note_on_c, 0, 69, 94
2, 687356, Note_off_c, 0, 69, 100
2, 687360, Note_on_c, 0, 70, 80
2, 687360, Note_on_c, 0, 66, 80
2, 687548, Note_off_c, 0, 66, 100
2, 687552, Note_on_c, 0, 65, 80
2, 687740, Note_off_c, 0, 70, 100
2, 687740, Note_off_c, 0, 65, 100
2, 687744, Note_on_c, 0, 70, 80
2, 687744, Note_on_c, 0, 79, 80
2, 687932, Note_off_c, 0, 79, 100
2, 687936, Note_on_c, 0, 77, 80
2, 688124, Note_off_c, 0, 70, 100
2, 688124, Note_off_c, 0, 77, 100
2, 688128, Note_on_c, 0, 77, 80
2, 688316, Note_off_c, 0, 77, 100
2, 688320, Note_on_c, 0, 82, 80
2, 688320, Note_on_c, 0, 74, 80
2, 688508, Note_off_c, 0, 82, 100
2, 688508, Note_off_c, 0, 74, 100
2, 688512, Note_on_c, 0, 86, 80
2, 688512, Note_on_c, 0, 77, 80
2, 688700, Note_off_c, 0, 86, 100
2, 688700, Note_off_c, 0, 77, 100
2, 688704, Note_on_c, 0, 84, 80
2, 688704, Note_on_c, 0, 75, 80
2, 688892, Note_off_c, 0, 84, 100
2, 688892, Note_off_c, 0, 75, 100
2, 688896, Note_on_c, 0, 82, 80
2, 688896, Note_on_c, 0, 74, 80
2, 689084, Note_off_c, 0, 74, 100
2, 689088, Note_on_c, 0, 78, 80
2, 689276, Note_off_c, 0, 78, 100
2, 689280, Note_on_c, 0, 79, 80
2, 689468, Note_off_c, 0, 79, 100
2, 689472, Note_on_c, 0, 74, 80
2, 689660, Note_off_c, 0, 74, 100
2, 689664, Note_on_c, 0, 73, 80
2, 689852, Note_off_c, 0, 73, 100
2, 689856, Note_on_c, 0, 78, 80
2, 690044, Note_off_c, 0, 78, 100
2, 690048, Note_on_c, 0, 79, 80
2, 690236, Note_off_c, 0, 79, 100
2, 690240, Note_on_c, 0, 74, 80
2, 690428, Note_off_c, 0, 82, 100
2, 690428, Note_off_c, 0, 74, 100
2, 690432, Note_on_c, 0, 81, 80
2, 690432, Note_on_c, 0, 72, 80
2, 690620, Note_off_c, 0, 72, 100
2, 690624, Note_on_c, 0, 76, 80
2, 690812, Note_off_c, 0, 81, 100
2, 690812, Note_off_c, 0, 76, 100
2, 690816, Note_on_c, 0, 77, 80
2, 691008, Note_on_c, 0, 89, 80
2, 691196, Note_off_c, 0, 77, 100
2, 691196, Note_off_c, 0, 89, 100
2, 691200, Note_on_c, 0, 89, 80
2, 691388, Note_off_c, 0, 89, 100
2, 691392, Note_on_c, 0, 101, 81
2, 691580, Note_off_c, 0, 101, 100
2, 691584, Note_on_c, 0, 100, 82
2, 691772, Note_off_c, 0, 100, 100
2, 691776, Note_on_c, 0, 99, 84
2, 691964, Note_off_c, 0, 99, 100
2, 691968, Note_on_c, 0, 96, 85
2, 692156, Note_off_c, 0, 96, 100
2, 692160, Note_on_c, 0, 93, 86
2, 692348, Note_off_c, 0, 93, 100
2, 692352, Note_on_c, 0, 90, 88
2, 692540, Note_off_c, 0, 90, 100
2, 692544, Note_on_c, 0, 89, 89
2, 692732, Note_off_c, 0, 89, 100
2, 692736, Note_on_c, 0, 88, 90
2, 692924, Note_off_c, 0, 88, 100
2, 692928, Note_on_c, 0, 87, 92
2, 693116, Note_off_c, 0, 87, 100
2, 693120, Note_on_c, 0, 84, 93
2, 693308, Note_off_c, 0, 84, 100
2, 693312, Note_on_c, 0, 81, 94
2, 693500, Note_off_c, 0, 81, 100
2, 693504, Note_on_c, 0, 82, 80
2, 693504, Note_on_c, 0, 78, 80
2, 693692, Note_off_c, 0, 78, 100
2, 693696, Note_on_c, 0, 77, 80
2, 693884, Note_off_c, 0, 82, 100
2, 693884, Note_off_c, 0, 77, 100
2, 693888, Note_on_c, 0, 82, 80
2, 693888, Note_on_c, 0, 91, 80
2, 694076, Note_off_c, 0, 91, 100
2, 694080, Note_on_c, 0, 89, 80
2, 694268, Note_off_c, 0, 82, 100
2, 694268, Note_off_c, 0, 89, 100
2, 694272, Note_on_c, 0, 77, 80
2, 694460, Note_off_c, 0, 77, 100
2, 694464, Note_on_c, 0, 89, 81
2, 694652, Note_off_c, 0, 89, 100
2, 694656, Note_on_c, 0, 88, 82
2, 694844, Note_off_c, 0, 88, 100
2, 694848, Note_on_c, 0, 87, 84
2, 695036, Note_off_c, 0, 87, 100
2, 695040, Note_on_c, 0, 84, 85
2, 695228, Note_off_c, 0, 84, 100
2, 695232, Note_on_c, 0, 81, 86
2, 695420, Note_off_c, 0, 81, 100
2, 695424, Note_on_c, 0, 78, 88
2, 695612, Note_off_c, 0, 78, 100
2, 695616, Note_on_c, 0, 77, 89
2, 695804, Note_off_c, 0, 77, 100
2, 695808, Note_on_c, 0, 76, 90
2, 695996, Note_off_c, 0, 76, 100
2, 696000, Note_on_c, 0, 75, 92
2, 696188, Note_off_c, 0, 75, 100
2, 696192, Note_on_c, 0, 72, 93
2, 696380, Note_off_c, 0, 72, 100
2, 696384, Note_on_c, 0, 69, 94
2, 696572, Note_off_c, 0, 69, 100
2, 696576, Note_on_c, 0, 70, 80
2, 696576, Note_on_c, 0, 66, 80
2, 696764, Note_off_c, 0, 66, 100
2, 696768, Note_on_c, 0, 65, 80
2, 696956, Note_off_c, 0, 70, 100
2, 696956, Note_off_c, 0, 65, 100
2, 696960, Note_on_c, 0, 70, 80
2, 696960, Note_on_c, 0, 79, 80
2, 697148, Note_off_c, 0, 79, 100
2, 697152, Note_on_c, 0, 77, 80
2, 697340, Note_off_c, 0, 70, 100
2, 697340, Note_off_c, 0, 77, 100
2, 697344, Note_on_c, 0, 77, 80
2, 697532, Note_off_c, 0, 77, 100
2, 697536, Note_on_c, 0, 82, 80
2, 697536, Note_on_c, 0, 74, 80
2, 697724, Note_off_c, 0, 82, 100
2, 697724, Note_off_c, 0, 74, 100
2, 697728, Note_on_c, 0, 86, 80
2, 697728, Note_on_c, 0, 77, 80
2, 697916, Note_off_c, 0, 86, 100
2, 697916, Note_off_c, 0, 77, 100
2, 697920, Note_on_c, 0, 84, 80
2, 697920, Note_on_c, 0, 75, 80
2, 698108, Note_off_c, 0, 84, 100
2, 698108, Note_off_c, 0, 75, 100
2, 698112, Note_on_c, 0, 82, 80
2, 698112, Note_on_c, 0, 74, 80
2, 698300, Note_off_c, 0, 74, 100
2, 698304, Note_on_c, 0, 78, 80
2, 698492, Note_off_c, 0, 78, 100
2, 698496, Note_on_c, 0, 79, 80
2, 698684, Note_off_c, 0, 79, 100
2, 698688, Note_on_c, 0, 74, 80
2, 698876, Note_off_c, 0, 74, 100
2, 698880, Note_on_c, 0, 73, 80
2, 699068, Note_off_c, 0, 73, 100
2, 699072, Note_on_c, 0, 78, 80
2, 699260, Note_off_c, 0, 78, 100
2, 699264, Note_on_c, 0, 79, 80
2, 699452, Note_off_c, 0, 79, 100
2, 699456, Note_on_c, 0, 73, 80
2, 699644, Note_off_c, 0, 82, 100
2, 699644, Note_off_c, 0, 73, 100
2, 699648, Note_on_c, 0, 81, 80
2, 699648, Note_on_c, 0, 72, 80
2, 699836, Note_off_c, 0, 72, 100
2, 699840, Note_on_c, 0, 77, 80
2, 700028, Note_off_c, 0, 81, 100
2, 700028, Note_off_c, 0, 77, 100
2, 700032, Note_on_c, 0, 82, 80
2, 700032, Note_on_c, 0, 70, 80
2, 700220, Note_off_c, 0, 70, 100
2, 700224, Note_on_c, 0, 75, 80
2, 700412, Note_off_c, 0, 82, 100
2, 700412, Note_off_c, 0, 75, 100
2, 700416, Note_on_c, 0, 82, 80
2, 700604, Note_off_c, 0, 82, 100
2, 700608, Note_on_c, 0, 87, 80
2, 700608, Note_on_c, 0, 79, 80
2, 700796, Note_off_c, 0, 87, 100
2, 700796, Note_off_c, 0, 79, 100
2, 700800, Note_on_c, 0, 91, 81
2, 700800, Note_on_c, 0, 82, 81
2, 700988, Note_off_c, 0, 91, 100
2, 700988, Note_off_c, 0, 82, 100
2, 700992, Note_on_c, 0, 89, 82
2, 700992, Note_on_c, 0, 80, 82
2, 701180, Note_off_c, 0, 89, 100
2, 701180, Note_off_c, 0, 80, 100
2, 701184, Note_on_c, 0, 87, 83
2, 701184, Note_on_c, 0, 79, 83
2, 701372, Note_off_c, 0, 79, 100
2, 701376, Note_on_c, 0, 83, 84
2, 701564, Note_off_c, 0, 83, 100
2, 701568, Note_on_c, 0, 84, 85
2, 701756, Note_off_c, 0, 84, 100
2, 701760, Note_on_c, 0, 79, 86
2, 701948, Note_off_c, 0, 79, 100
2, 701952, Note_on_c, 0, 78, 87
2, 702140, Note_off_c, 0, 78, 100
2, 702144, Note_on_c, 0, 83, 88
2, 702332, Note_off_c, 0, 83, 100
2, 702336, Note_on_c, 0, 84, 89
2, 702524, Note_off_c, 0, 84, 100
2, 702528, Note_on_c, 0, 78, 90
2, 702716, Note_off_c, 0, 87, 100
2, 702716, Note_off_c, 0, 78, 100
2, 702720, Note_on_c, 0, 77, 91
2, 702720, Note_on_c, 0, 86, 91
2, 702908, Note_off_c, 0, 77, 100
2, 702912, Note_on_c, 0, 82, 92
2, 703100, Note_off_c, 0, 86, 100
2, 703100, Note_off_c, 0, 82, 100
2, 703104, Note_on_c, 0, 75, 93
2, 703104, Note_on_c, 0, 87, 93
2, 703292, Note_off_c, 0, 75, 100
2, 703296, Note_on_c, 0, 80, 94
2, 703484, Note_off_c, 0, 87, 100
2, 703484, Note_off_c, 0, 80, 100
2, 703488, Note_on_c, 0, 87, 95
2, 703680, Note_on_c, 0, 84, 96
2, 703868, Note_off_c, 0, 87, 100
2, 703868, Note_off_c, 0, 84, 100
2, 703872, Note_on_c, 0, 92, 97
2, 703872, Note_on_c, 0, 87, 97
2, 704060, Note_off_c, 0, 87, 100
2, 704064, Note_on_c, 0, 85, 98
2, 704252, Note_off_c, 0, 92, 100
2, 704252, Note_off_c, 0, 85, 100
2, 704256, Note_on_c, 0, 92, 99
2, 704256, Note_on_c, 0, 85, 99
2, 704444, Note_off_c, 0, 85, 100
2, 704448, Note_on_c, 0, 83, 100
2, 704636, Note_off_c, 0, 83, 100
2, 704640, Note_on_c, 0, 82, 101
2, 704828, Note_off_c, 0, 82, 100
2, 704832, Note_on_c, 0, 83, 102
2, 705020, Note_off_c, 0, 83, 100
2, 705024, Note_on_c, 0, 83, 103
2, 705212, Note_off_c, 0, 83, 100
2, 705216, Note_on_c, 0, 88, 104
2, 705404, Note_off_c, 0, 88, 100
2, 705408, Note_on_c, 0, 89, 105
2, 705596, Note_off_c, 0, 89, 100
2, 705600, Note_on_c, 0, 83, 106
2, 705788, Note_off_c, 0, 92, 100
2, 705788, Note_off_c, 0, 83, 100
2, 705792, Note_on_c, 0, 91, 107
2, 705792, Note_on_c, 0, 82, 107
2, 705980, Note_off_c, 0, 82, 100
2, 705984, Note_on_c, 0, 86, 108
2, 706172, Note_off_c, 0, 86, 100
2, 706176, Note_on_c, 0, 87, 109
2, 706364, Note_off_c, 0, 87, 100
2, 706368, Note_on_c, 0, 82, 110
2, 706556, Note_off_c, 0, 82, 100
2, 706560, Note_on_c, 0, 79, 110
2, 706940, Note_off_c, 0, 91, 100
2, 706940, Note_off_c, 0, 79, 100
2, 706944, Note_on_c, 0, 91, 120
2, 706944, Note_on_c, 0, 87, 120
2, 706944, Note_on_c, 0, 82, 120
2, 706944, Note_on_c, 0, 79, 120
2, 707324, Note_off_c, 0, 91, 100
2, 707324, Note_off_c, 0, 87, 100
2, 707324, Note_off_c, 0, 82, 100
2, 707324, Note_off_c, 0, 79, 100
2, 707328, Note_on_c, 0, 89, 120
2, 707328, Note_on_c, 0, 86, 120
2, 707708, Note_off_c, 0, 89, 100
2, 707708, Note_off_c, 0, 86, 100
2, 707712, Note_on_c, 0, 91, 120
2, 707712, Note_on_c, 0, 87, 120
2, 707900, Note_off_c, 0, 91, 100
2, 707900, Note_off_c, 0, 87, 100
2, 707904, Note_on_c, 0, 92, 120
2, 707904, Note_on_c, 0, 89, 120
2, 708092, Note_off_c, 0, 92, 100
2, 708092, Note_off_c, 0, 89, 100
2, 708096, Note_on_c, 0, 94, 120
2, 708096, Note_on_c, 0, 91, 120
2, 708476, Note_off_c, 0, 94, 100
2, 708476, Note_off_c, 0, 91, 100
2, 708480, Note_on_c, 0, 87, 120
2, 708480, Note_on_c, 0, 91, 120
2, 708860, Note_off_c, 0, 87, 100
2, 708860, Note_off_c, 0, 91, 100
2, 710016, Note_on_c, 0, 91, 120
2, 710016, Note_on_c, 0, 87, 120
2, 710016, Note_on_c, 0, 82, 120
2, 710016, Note_on_c, 0, 79, 120
2, 710396, Note_off_c, 0, 91, 100
2, 710396, Note_off_c, 0, 87, 100
2, 710396, Note_off_c, 0, 82, 100
2, 710396, Note_off_c, 0, 79, 100
2, 710400, Note_on_c, 0, 89, 120
2, 710400, Note_on_c, 0, 86, 120
2, 710780, Note_off_c, 0, 89, 100
2, 710780, Note_off_c, 0, 86, 100
2, 710784, Note_on_c, 0, 91, 120
2, 710784, Note_on_c, 0, 87, 120
2, 710972, Note_off_c, 0, 91, 100
2, 710972, Note_off_c, 0, 87, 100
2, 710976, Note_on_c, 0, 92, 120
2, 710976, Note_on_c, 0, 89, 120
2, 711164, Note_off_c, 0, 92, 100
2, 711164, Note_off_c, 0, 89, 100
2, 711168, Note_on_c, 0, 94, 120
2, 711168, Note_on_c, 0, 91, 120
2, 711548, Note_off_c, 0, 94, 100
2, 711548, Note_off_c, 0, 91, 100
2, 711552, Note_on_c, 0, 82, 120
2, 711552, Note_on_c, 0, 79, 120
2, 711552, Note_on_c, 0, 72, 120
2, 711552, Note_on_c, 0, 70, 120
2, 711932, Note_off_c, 0, 82, 100
2, 711932, Note_off_c, 0, 79, 100
2, 711932, Note_off_c, 0, 72, 100
2, 711932, Note_off_c, 0, 70, 100
2, 712320, Note_on_c, 0, 82, 120
2, 712320, Note_on_c, 0, 79, 120
2, 712320, Note_on_c, 0, 76, 120
2, 712320, Note_on_c, 0, 70, 120
2, 712700, Note_off_c, 0, 82, 100
2, 712700, Note_off_c, 0, 79, 100
2, 712700, Note_off_c, 0, 76, 100
2, 712700, Note_off_c, 0, 70, 100
2, 713088, Note_on_c, 0, 82, 120
2, 713088, Note_on_c, 0, 77, 120
2, 713088, Note_on_c, 0, 74, 120
2, 713088, Note_on_c, 0, 70, 120
2, 713468, Note_off_c, 0, 82, 100
2, 713468, Note_off_c, 0, 77, 100
2, 713468, Note_off_c, 0, 74, 100
2, 713468, Note_off_c, 0, 70, 100
2, 713856, Note_on_c, 0, 82, 120
2, 713856, Note_on_c, 0, 76, 120
2, 713856, Note_on_c, 0, 72, 120
2, 713856, Note_on_c, 0, 70, 120
2, 714236, Note_off_c, 0, 82, 100
2, 714236, Note_off_c, 0, 76, 100
2, 714236, Note_off_c, 0, 72, 100
2, 714236, Note_off_c, 0, 70, 100
2, 714240, Note_on_c, 0, 82, 120
2, 714240, Note_on_c, 0, 77, 120
2, 714240, Note_on_c, 0, 74, 120
2, 714240, Note_on_c, 0, 70, 120
2, 715004, Note_off_c, 0, 82, 100
2, 715004, Note_off_c, 0, 77, 100
2, 715004, Note_off_c, 0, 74, 100
2, 715004, Note_off_c, 0, 70, 100
2, 715008, Note_on_c, 0, 77, 113
2, 715008, Note_on_c, 0, 74, 113
2, 716156, Note_off_c, 0, 74, 100
2, 716156, Note_off_c, 0, 77, 100
2, 716160, Note_on_c, 0, 74, 102
2, 716348, Note_off_c, 0, 74, 100
2, 716544, Note_on_c, 0, 77, 100
2, 716732, Note_off_c, 0, 77, 100
2, 716736, Note_on_c, 0, 81, 100
2, 716924, Note_off_c, 0, 81, 100
2, 716928, Note_on_c, 0, 82, 101
2, 717116, Note_off_c, 0, 82, 100
2, 717120, Note_on_c, 0, 86, 102
2, 717308, Note_off_c, 0, 86, 100
2, 717312, Note_on_c, 0, 88, 102
2, 717500, Note_off_c, 0, 88, 100
2, 717504, Note_on_c, 0, 89, 103
2, 717692, Note_off_c, 0, 89, 100
2, 717696, Note_on_c, 0, 91, 104
2, 717884, Note_off_c, 0, 91, 100
2, 717888, Note_on_c, 0, 89, 104
2, 718076, Note_off_c, 0, 89, 100
2, 718080, Note_on_c, 0, 93, 105
2, 718268, Note_off_c, 0, 93, 100
2, 718272, Note_on_c, 0, 94, 106
2, 718460, Note_off_c, 0, 94, 100
2, 718464, Note_on_c, 0, 96, 106
2, 718652, Note_off_c, 0, 96, 100
2, 718656, Note_on_c, 0, 94, 107
2, 718844, Note_off_c, 0, 94, 100
2, 718848, Note_on_c, 0, 97, 108
2, 719036, Note_off_c, 0, 97, 100
2, 719040, Note_on_c, 0, 98, 108
2, 719228, Note_off_c, 0, 98, 100
2, 719232, Note_on_c, 0, 99, 109
2, 719420, Note_off_c, 0, 99, 100
2, 719424, Note_on_c, 0, 98, 110
2, 719612, Note_off_c, 0, 98, 100
2, 719616, Note_on_c, 0, 101, 110
2, 719996, Note_off_c, 0, 101, 100
2, 720000, Note_on_c, 0, 75, 80
2, 720000, Note_on_c, 0, 72, 80
2, 720380, Note_off_c, 0, 75, 100
2, 720380, Note_off_c, 0, 72, 100
2, 720384, Note_on_c, 0, 74, 80
2, 721152, Note_on_c, 0, 86, 80
2, 721916, Note_off_c, 0, 74, 100
2, 721916, Note_off_c, 0, 86, 100
2, 721920, Note_on_c, 0, 75, 80
2, 721920, Note_on_c, 0, 87, 80
2, 722684, Note_off_c, 0, 75, 100
2, 722684, Note_off_c, 0, 87, 100
2, 722688, Note_on_c, 0, 78, 80
2, 722688, Note_on_c, 0, 90, 80
2, 723452, Note_off_c, 0, 78, 100
2, 723452, Note_off_c, 0, 90, 100
2, 723456, Note_on_c, 0, 82, 80
2, 724224, Note_on_c, 0, 77, 80
2, 724224, Note_on_c, 0, 74, 80
2, 724988, Note_off_c, 0, 82, 100
2, 724988, Note_off_c, 0, 77, 100
2, 724988, Note_off_c, 0, 74, 100
2, 724992, Note_on_c, 0, 78, 80
2, 724992, Note_on_c, 0, 82, 80
2, 725372, Note_off_c, 0, 82, 100
2, 725376, Note_on_c, 0, 90, 80
2, 725756, Note_off_c, 0, 78, 100
2, 725756, Note_off_c, 0, 90, 100
2, 725760, Note_on_c, 0, 75, 80
2, 725760, Note_on_c, 0, 87, 80
2, 726524, Note_off_c, 0, 75, 100
2, 726524, Note_off_c, 0, 87, 100
2, 726528, Note_on_c, 0, 85, 80
2, 726528, Note_on_c, 0, 73, 80
2, 727292, Note_off_c, 0, 85, 100
2, 727292, Note_off_c, 0, 73, 100
2, 727296, Note_on_c, 0, 86, 80
2, 727296, Note_on_c, 0, 74, 80
2, 728060, Note_off_c, 0, 86, 100
2, 728060, Note_off_c, 0, 74, 100
2, 728064, Note_on_c, 0, 89, 80
2, 728064, Note_on_c, 0, 77, 80
2, 728828, Note_off_c, 0, 89, 100
2, 728828, Note_off_c, 0, 77, 100
2, 728832, Note_on_c, 0, 75, 80
2, 728840, Note_on_c, 0, 87, 80
2, 729404, Note_off_c, 0, 75, 100
2, 729408, Note_on_c, 0, 84, 80
2, 729408, Note_on_c, 0, 72, 80
2, 729412, Note_off_c, 0, 87, 100
2, 729596, Note_off_c, 0, 84, 100
2, 729596, Note_off_c, 0, 72, 100
2, 729600, Note_on_c, 0, 82, 80
2, 729600, Note_on_c, 0, 74, 80
2, 729600, Note_on_c, 0, 86, 80
2, 729696, Note_on_c, 0, 84, 80
2, 729788, Note_off_c, 0, 82, 100
2, 729792, Note_on_c, 0, 82, 80
2, 729884, Note_off_c, 0, 84, 100
2, 729888, Note_on_c, 0, 84, 80
2, 729980, Note_off_c, 0, 82, 100
2, 729984, Note_on_c, 0, 82, 81
2, 730076, Note_off_c, 0, 84, 100
2, 730080, Note_on_c, 0, 84, 81
2, 730172, Note_off_c, 0, 82, 100
2, 730176, Note_on_c, 0, 82, 81
2, 730268, Note_off_c, 0, 84, 100
2, 730272, Note_on_c, 0, 84, 82
2, 730364, Note_off_c, 0, 82, 100
2, 730368, Note_on_c, 0, 82, 82
2, 730460, Note_off_c, 0, 84, 100
2, 730464, Note_on_c, 0, 84, 82
2, 730556, Note_off_c, 0, 82, 100
2, 730560, Note_on_c, 0, 82, 83
2, 730652, Note_off_c, 0, 84, 100
2, 730656, Note_on_c, 0, 84, 83
2, 730748, Note_off_c, 0, 82, 100
2, 730752, Note_on_c, 0, 82, 83
2, 730844, Note_off_c, 0, 84, 100
2, 730848, Note_on_c, 0, 84, 84
2, 730940, Note_off_c, 0, 82, 100
2, 730944, Note_on_c, 0, 82, 84
2, 731036, Note_off_c, 0, 84, 100
2, 731040, Note_on_c, 0, 84, 84
2, 731132, Note_off_c, 0, 74, 100
2, 731132, Note_off_c, 0, 86, 100
2, 731132, Note_off_c, 0, 82, 100
2, 731136, Note_on_c, 0, 82, 85
2, 731136, Note_on_c, 0, 75, 85
2, 731136, Note_on_c, 0, 87, 85
2, 731228, Note_off_c, 0, 84, 100
2, 731232, Note_on_c, 0, 84, 85
2, 731324, Note_off_c, 0, 82, 100
2, 731328, Note_on_c, 0, 82, 85
2, 731420, Note_off_c, 0, 84, 100
2, 731424, Note_on_c, 0, 84, 86
2, 731516, Note_off_c, 0, 82, 100
2, 731520, Note_on_c, 0, 82, 86
2, 731612, Note_off_c, 0, 84, 100
2, 731616, Note_on_c, 0, 84, 86
2, 731708, Note_off_c, 0, 82, 100
2, 731712, Note_on_c, 0, 82, 87
2, 731804, Note_off_c, 0, 84, 100
2, 731808, Note_on_c, 0, 84, 87
2, 731900, Note_off_c, 0, 75, 100
2, 731900, Note_off_c, 0, 87, 100
2, 731900, Note_off_c, 0, 82, 100
2, 731904, Note_on_c, 0, 82, 87
2, 731904, Note_on_c, 0, 79, 87
2, 731904, Note_on_c, 0, 91, 87
2, 731996, Note_off_c, 0, 84, 100
2, 732000, Note_on_c, 0, 84, 88
2, 732092, Note_off_c, 0, 82, 100
2, 732096, Note_on_c, 0, 82, 88
2, 732188, Note_off_c, 0, 84, 100
2, 732192, Note_on_c, 0, 84, 88
2, 732284, Note_off_c, 0, 82, 100
2, 732288, Note_on_c, 0, 82, 89
2, 732380, Note_off_c, 0, 84, 100
2, 732384, Note_on_c, 0, 84, 89
2, 732476, Note_off_c, 0, 82, 100
2, 732480, Note_on_c, 0, 82, 89
2, 732572, Note_off_c, 0, 84, 100
2, 732576, Note_on_c, 0, 84, 90
2, 732668, Note_off_c, 0, 79, 100
2, 732668, Note_off_c, 0, 91, 100
2, 732668, Note_off_c, 0, 82, 100
2, 732672, Note_on_c, 0, 82, 90
2, 732672, Note_on_c, 0, 94, 90
2, 732764, Note_off_c, 0, 84, 100
2, 732768, Note_on_c, 0, 84, 90
2, 732860, Note_off_c, 0, 82, 100
2, 732864, Note_on_c, 0, 82, 91
2, 732956, Note_off_c, 0, 84, 100
2, 732960, Note_on_c, 0, 84, 91
2, 733052, Note_off_c, 0, 82, 100
2, 733056, Note_on_c, 0, 82, 91
2, 733148, Note_off_c, 0, 84, 100
2, 733152, Note_on_c, 0, 84, 92
2, 733244, Note_off_c, 0, 82, 100
2, 733248, Note_on_c, 0, 82, 92
2, 733340, Note_off_c, 0, 84, 100
2, 733344, Note_on_c, 0, 84, 92
2, 733436, Note_off_c, 0, 82, 100
2, 733440, Note_on_c, 0, 82, 93
2, 733532, Note_off_c, 0, 84, 100
2, 733536, Note_on_c, 0, 84, 93
2, 733628, Note_off_c, 0, 82, 100
2, 733632, Note_on_c, 0, 82, 93
2, 733724, Note_off_c, 0, 84, 100
2, 733728, Note_on_c, 0, 84, 94
2, 733820, Note_off_c, 0, 82, 100
2, 733824, Note_on_c, 0, 82, 94
2, 733916, Note_off_c, 0, 84, 100
2, 733920, Note_on_c, 0, 84, 94
2, 734012, Note_off_c, 0, 82, 100
2, 734016, Note_on_c, 0, 82, 95
2, 734108, Note_off_c, 0, 84, 100
2, 734112, Note_on_c, 0, 84, 95
2, 734204, Note_off_c, 0, 94, 100
2, 734204, Note_off_c, 0, 82, 100
2, 734208, Note_on_c, 0, 82, 95
2, 734208, Note_on_c, 0, 91, 95
2, 734208, Note_on_c, 0, 79, 95
2, 734300, Note_off_c, 0, 84, 100
2, 734304, Note_on_c, 0, 84, 95
2, 734396, Note_off_c, 0, 82, 100
2, 734400, Note_on_c, 0, 82, 96
2, 734492, Note_off_c, 0, 84, 100
2, 734496, Note_on_c, 0, 84, 96
2, 734588, Note_off_c, 0, 82, 100
2, 734592, Note_on_c, 0, 82, 96
2, 734684, Note_off_c, 0, 84, 100
2, 734688, Note_on_c, 0, 84, 97
2, 734780, Note_off_c, 0, 82, 100
2, 734784, Note_on_c, 0, 82, 97
2, 734876, Note_off_c, 0, 84, 100
2, 734880, Note_on_c, 0, 84, 97
2, 734972, Note_off_c, 0, 91, 100
2, 734972, Note_off_c, 0, 79, 100
2, 734972, Note_off_c, 0, 82, 100
2, 734976, Note_on_c, 0, 82, 98
2, 734976, Note_on_c, 0, 75, 98
2, 734976, Note_on_c, 0, 87, 98
2, 735068, Note_off_c, 0, 84, 100
2, 735072, Note_on_c, 0, 84, 98
2, 735164, Note_off_c, 0, 82, 100
2, 735168, Note_on_c, 0, 82, 98
2, 735260, Note_off_c, 0, 84, 100
2, 735264, Note_on_c, 0, 84, 99
2, 735356, Note_off_c, 0, 82, 100
2, 735360, Note_on_c, 0, 82, 99
2, 735452, Note_off_c, 0, 84, 100
2, 735456, Note_on_c, 0, 84, 99
2, 735548, Note_off_c, 0, 82, 100
2, 735552, Note_on_c, 0, 82, 100
2, 735644, Note_off_c, 0, 84, 100
2, 735648, Note_on_c, 0, 84, 100
2, 735740, Note_off_c, 0, 75, 100
2, 735740, Note_off_c, 0, 87, 100
2, 735740, Note_off_c, 0, 82, 100
2, 735744, Note_on_c, 0, 82, 100
2, 735744, Note_on_c, 0, 73, 100
2, 735744, Note_on_c, 0, 85, 100
2, 735836, Note_off_c, 0, 84, 100
2, 735840, Note_on_c, 0, 84, 101
2, 735932, Note_off_c, 0, 82, 100
2, 735936, Note_on_c, 0, 82, 101
2, 736028, Note_off_c, 0, 84, 100
2, 736032, Note_on_c, 0, 84, 101
2, 736124, Note_off_c, 0, 73, 100
2, 736124, Note_off_c, 0, 85, 100
2, 736124, Note_off_c, 0, 82, 100
2, 736128, Note_on_c, 0, 74, 102
2, 736128, Note_on_c, 0, 86, 102
2, 736128, Note_on_c, 0, 82, 102
2, 736220, Note_off_c, 0, 84, 100
2, 736224, Note_on_c, 0, 84, 102
2, 736316, Note_off_c, 0, 82, 100
2, 736320, Note_on_c, 0, 82, 102
2, 736412, Note_off_c, 0, 84, 100
2, 736416, Note_on_c, 0, 84, 103
2, 736508, Note_off_c, 0, 82, 100
2, 736512, Note_on_c, 0, 82, 103
2, 736604, Note_off_c, 0, 84, 100
2, 736608, Note_on_c, 0, 84, 103
2, 736700, Note_off_c, 0, 82, 100
2, 736704, Note_on_c, 0, 82, 104
2, 736796, Note_off_c, 0, 84, 100
2, 736800, Note_on_c, 0, 84, 104
2, 736892, Note_off_c, 0, 74, 100
2, 736892, Note_off_c, 0, 86, 100
2, 736892, Note_off_c, 0, 82, 100
2, 736896, Note_on_c, 0, 82, 104
2, 736896, Note_on_c, 0, 77, 104
2, 736896, Note_on_c, 0, 89, 104
2, 736988, Note_off_c, 0, 84, 100
2, 736992, Note_on_c, 0, 84, 105
2, 737084, Note_off_c, 0, 82, 100
2, 737088, Note_on_c, 0, 82, 105
2, 737180, Note_off_c, 0, 84, 100
2, 737184, Note_on_c, 0, 84, 105
2, 737276, Note_off_c, 0, 77, 100
2, 737276, Note_off_c, 0, 89, 100
2, 737276, Note_off_c, 0, 82, 100
2, 737280, Note_on_c, 0, 81, 106
2, 737280, Note_on_c, 0, 89, 106
2, 737372, Note_off_c, 0, 84, 100
2, 737376, Note_on_c, 0, 82, 106
2, 737468, Note_off_c, 0, 81, 100
2, 737472, Note_on_c, 0, 81, 106
2, 737564, Note_off_c, 0, 82, 100
2, 737568, Note_on_c, 0, 82, 107
2, 737660, Note_off_c, 0, 81, 100
2, 737664, Note_on_c, 0, 81, 107
2, 737756, Note_off_c, 0, 82, 100
2, 737760, Note_on_c, 0, 82, 107
2, 737852, Note_off_c, 0, 81, 100
2, 737856, Note_on_c, 0, 81, 108
2, 737948, Note_off_c, 0, 82, 100
2, 737952, Note_on_c, 0, 82, 108
2, 738044, Note_off_c, 0, 81, 100
2, 738048, Note_on_c, 0, 81, 108
2, 738140, Note_off_c, 0, 82, 100
2, 738144, Note_on_c, 0, 82, 109
2, 738236, Note_off_c, 0, 89, 100
2, 738236, Note_off_c, 0, 81, 100
2, 738240, Note_on_c, 0, 81, 109
2, 738240, Note_on_c, 0, 87, 109
2, 738332, Note_off_c, 0, 82, 100
2, 738336, Note_on_c, 0, 82, 109
2, 738428, Note_off_c, 0, 81, 100
2, 738428, Note_off_c, 0, 87, 100
2, 738432, Note_on_c, 0, 81, 110
2, 738432, Note_on_c, 0, 84, 110
2, 738524, Note_off_c, 0, 82, 100
2, 738528, Note_on_c, 0, 82, 110
2, 738620, Note_off_c, 0, 81, 100
2, 738620, Note_off_c, 0, 84, 100
2, 738624, Note_on_c, 0, 81, 110
2, 738624, Note_on_c, 0, 89, 110
2, 738716, Note_off_c, 0, 82, 100
2, 738720, Note_on_c, 0, 82, 110
2, 738812, Note_off_c, 0, 81, 100
2, 738812, Note_off_c, 0, 89, 100
2, 738812, Note_off_c, 0, 82, 100
2, 738816, Control_c, 0, 64, 127
2, 738816, Note_on_c, 0, 89, 120
2, 738816, Note_on_c, 0, 86, 120
2, 738816, Note_on_c, 0, 80, 120
2, 738816, Note_on_c, 0, 77, 120
2, 739196, Note_off_c, 0, 89, 100
2, 739196, Note_off_c, 0, 86, 100
2, 739196, Note_off_c, 0, 80, 100
2, 739196, Note_off_c, 0, 77, 100
2, 739200, Note_on_c, 0, 98, 120
2, 739200, Note_on_c, 0, 92, 120
2, 739200, Note_on_c, 0, 89, 120
2, 739200, Note_on_c, 0, 101, 120
2, 739964, Note_off_c, 0, 98, 100
2, 739964, Note_off_c, 0, 92, 100
2, 739964, Note_off_c, 0, 89, 100
2, 739964, Note_off_c, 0, 101, 100
2, 739968, Note_on_c, 0, 99, 120
2, 739968, Note_on_c, 0, 92, 120
2, 739968, Note_on_c, 0, 89, 120
2, 739968, Note_on_c, 0, 87, 120
2, 740348, Note_off_c, 0, 99, 100
2, 740348, Note_off_c, 0, 92, 100
2, 740348, Note_off_c, 0, 89, 100
2, 740348, Note_off_c, 0, 87, 100
2, 740352, Note_on_c, 0, 98, 120
2, 740352, Note_on_c, 0, 92, 120
2, 740352, Note_on_c, 0, 89, 120
2, 740352, Note_on_c, 0, 86, 120
2, 740732, Note_off_c, 0, 98, 100
2, 740732, Note_off_c, 0, 92, 100
2, 740732, Note_off_c, 0, 89, 100
2, 740732, Note_off_c, 0, 86, 100
2, 740736, Note_on_c, 0, 99, 120
2, 740736, Note_on_c, 0, 92, 120
2, 740736, Note_on_c, 0, 89, 120
2, 740736, Note_on_c, 0, 87, 120
2, 741112, Control_c, 0, 64, 0
2, 741116, Note_off_c, 0, 99, 100
2, 741116, Note_off_c, 0, 92, 100
2, 741116, Note_off_c, 0, 89, 100
2, 741116, Note_off_c, 0, 87, 100
2, 741120, Note_on_c, 0, 101, 120
2, 741120, Note_on_c, 0, 92, 120
2, 741120, Note_on_c, 0, 89, 120
2, 741500, Note_off_c, 0, 101, 100
2, 741500, Note_off_c, 0, 92, 100
2, 741500, Note_off_c, 0, 89, 100
2, 741504, Note_on_c, 0, 98, 80
2, 741504, Note_on_c, 0, 91, 80
2, 741504, Note_on_c, 0, 89, 80
2, 741504, Note_on_c, 0, 86, 80
2, 741884, Note_off_c, 0, 98, 100
2, 741884, Note_off_c, 0, 91, 100
2, 741884, Note_off_c, 0, 89, 100
2, 741884, Note_off_c, 0, 86, 100
2, 741888, Note_on_c, 0, 99, 80
2, 741888, Note_on_c, 0, 91, 80
2, 741888, Note_on_c, 0, 87, 80
2, 742268, Note_off_c, 0, 99, 100
2, 742268, Note_off_c, 0, 91, 100
2, 742268, Note_off_c, 0, 87, 100
2, 742272, Note_on_c, 0, 98, 80
2, 742272, Note_on_c, 0, 91, 80
2, 742272, Note_on_c, 0, 89, 80
2, 742272, Note_on_c, 0, 86, 80
2, 742652, Note_off_c, 0, 98, 100
2, 742652, Note_off_c, 0, 91, 100
2, 742652, Note_off_c, 0, 89, 100
2, 742652, Note_off_c, 0, 86, 100
2, 742656, Note_on_c, 0, 99, 80
2, 742656, Note_on_c, 0, 91, 80
2, 742656, Note_on_c, 0, 87, 80
2, 743036, Note_off_c, 0, 99, 100
2, 743036, Note_off_c, 0, 91, 100
2, 743036, Note_off_c, 0, 87, 100
2, 743040, Note_on_c, 0, 96, 80
2, 743040, Note_on_c, 0, 91, 80
2, 743040, Note_on_c, 0, 84, 80
2, 743420, Note_off_c, 0, 96, 100
2, 743420, Note_off_c, 0, 91, 100
2, 743420, Note_off_c, 0, 84, 100
2, 743424, Note_on_c, 0, 94, 80
2, 743424, Note_on_c, 0, 91, 80
2, 743424, Note_on_c, 0, 84, 80
2, 743804, Note_off_c, 0, 94, 100
2, 743804, Note_off_c, 0, 91, 100
2, 743804, Note_off_c, 0, 84, 100
2, 743808, Note_on_c, 0, 94, 80
2, 743808, Note_on_c, 0, 88, 80
2, 743808, Note_on_c, 0, 84, 80
2, 744188, Note_off_c, 0, 94, 100
2, 744188, Note_off_c, 0, 88, 100
2, 744188, Note_off_c, 0, 84, 100
2, 744192, Note_on_c, 0, 93, 80
2, 744192, Note_on_c, 0, 87, 80
2, 744192, Note_on_c, 0, 84, 80
2, 744572, Note_off_c, 0, 93, 100
2, 744572, Note_off_c, 0, 87, 100
2, 744572, Note_off_c, 0, 84, 100
2, 744576, Note_on_c, 0, 96, 80
2, 744576, Note_on_c, 0, 87, 80
2, 744576, Note_on_c, 0, 84, 80
2, 744956, Note_off_c, 0, 96, 100
2, 744956, Note_off_c, 0, 87, 100
2, 744956, Note_off_c, 0, 84, 100
2, 744960, Note_on_c, 0, 94, 80
2, 744960, Note_on_c, 0, 86, 80
2, 744960, Note_on_c, 0, 82, 80
2, 745340, Note_off_c, 0, 94, 100
2, 745340, Note_off_c, 0, 86, 100
2, 745340, Note_off_c, 0, 82, 100
2, 745344, Note_on_c, 0, 89, 84
2, 745344, Note_on_c, 0, 86, 84
2, 745344, Note_on_c, 0, 77, 84
2, 745724, Note_off_c, 0, 89, 100
2, 745724, Note_off_c, 0, 86, 100
2, 745724, Note_off_c, 0, 77, 100
2, 745728, Note_on_c, 0, 93, 88
2, 745728, Note_on_c, 0, 89, 88
2, 745728, Note_on_c, 0, 87, 88
2, 745728, Note_on_c, 0, 81, 88
2, 746108, Note_off_c, 0, 93, 100
2, 746108, Note_off_c, 0, 89, 100
2, 746108, Note_off_c, 0, 87, 100
2, 746108, Note_off_c, 0, 81, 100
2, 746112, Note_on_c, 0, 96, 92
2, 746112, Note_on_c, 0, 89, 92
2, 746112, Note_on_c, 0, 87, 92
2, 746112, Note_on_c, 0, 84, 92
2, 746492, Note_off_c, 0, 96, 100
2, 746492, Note_off_c, 0, 89, 100
2, 746492, Note_off_c, 0, 87, 100
2, 746492, Note_off_c, 0, 84, 100
2, 746496, Note_on_c, 0, 94, 96
2, 746496, Note_on_c, 0, 89, 96
2, 746496, Note_on_c, 0, 86, 96
2, 746496, Note_on_c, 0, 82, 96
2, 746876, Note_off_c, 0, 94, 100
2, 746876, Note_off_c, 0, 89, 100
2, 746876, Note_off_c, 0, 86, 100
2, 746876, Note_off_c, 0, 82, 100
2, 746880, Note_on_c, 0, 89, 100
2, 746880, Note_on_c, 0, 86, 100
2, 746880, Note_on_c, 0, 77, 100
2, 747260, Note_off_c, 0, 89, 100
2, 747260, Note_off_c, 0, 86, 100
2, 747260, Note_off_c, 0, 77, 100
2, 747264, Note_on_c, 0, 93, 104
2, 747264, Note_on_c, 0, 89, 104
2, 747264, Note_on_c, 0, 87, 104
2, 747264, Note_on_c, 0, 81, 104
2, 747644, Note_off_c, 0, 93, 100
2, 747644, Note_off_c, 0, 89, 100
2, 747644, Note_off_c, 0, 87, 100
2, 747644, Note_off_c, 0, 81, 100
2, 747648, Note_on_c, 0, 96, 108
2, 747648, Note_on_c, 0, 89, 108
2, 747648, Note_on_c, 0, 87, 108
2, 747648, Note_on_c, 0, 84, 108
2, 748028, Note_off_c, 0, 96, 100
2, 748028, Note_off_c, 0, 89, 100
2, 748028, Note_off_c, 0, 87, 100
2, 748028, Note_off_c, 0, 84, 100
2, 748032, Note_on_c, 0, 82, 110
2, 748220, Note_off_c, 0, 82, 100
2, 748224, Note_on_c, 0, 94, 110
2, 748412, Note_off_c, 0, 94, 100
2, 748416, Note_on_c, 0, 77, 110
2, 748604, Note_off_c, 0, 77, 100
2, 748608, Note_on_c, 0, 89, 110
2, 748796, Note_off_c, 0, 89, 100
2, 748800, Note_on_c, 0, 81, 110
2, 748988, Note_off_c, 0, 81, 100
2, 748992, Note_on_c, 0, 93, 110
2, 749180, Note_off_c, 0, 93, 100
2, 749184, Note_on_c, 0, 84, 110
2, 749372, Note_off_c, 0, 84, 100
2, 749376, Note_on_c, 0, 96, 110
2, 749564, Note_off_c, 0, 96, 100
2, 749568, Note_on_c, 0, 82, 110
2, 749756, Note_off_c, 0, 82, 100
2, 749760, Note_on_c, 0, 94, 110
2, 749948, Note_off_c, 0, 94, 100
2, 749952, Note_on_c, 0, 77, 110
2, 750140, Note_off_c, 0, 77, 100
2, 750144, Note_on_c, 0, 89, 110
2, 750332, Note_off_c, 0, 89, 100
2, 750336, Note_on_c, 0, 69, 110
2, 750524, Note_off_c, 0, 69, 100
2, 750528, Note_on_c, 0, 81, 110
2, 750716, Note_off_c, 0, 81, 100
2, 750720, Note_on_c, 0, 72, 110
2, 750908, Note_off_c, 0, 72, 100
2, 750912, Note_on_c, 0, 84, 110
2, 751100, Note_off_c, 0, 84, 100
2, 751104, Note_on_c, 0, 70, 110
2, 751292, Note_off_c, 0, 70, 100
2, 751296, Note_on_c, 0, 82, 110
2, 751484, Note_off_c, 0, 82, 100
2, 751488, Note_on_c, 0, 65, 110
2, 751676, Note_off_c, 0, 65, 100
2, 751680, Note_on_c, 0, 77, 110
2, 751868, Note_off_c, 0, 77, 100
2, 751872, Note_on_c, 0, 71, 110
2, 752060, Note_off_c, 0, 71, 100
2, 752064, Note_on_c, 0, 83, 110
2, 752252, Note_off_c, 0, 83, 100
2, 752256, Note_on_c, 0, 74, 110
2, 752444, Note_off_c, 0, 74, 100
2, 752448, Note_on_c, 0, 86, 110
2, 752636, Note_off_c, 0, 86, 100
2, 752640, Note_on_c, 0, 72, 110
2, 752828, Note_off_c, 0, 72, 100
2, 752832, Note_on_c, 0, 84, 110
2, 753020, Note_off_c, 0, 84, 100
2, 753024, Note_on_c, 0, 67, 110
2, 753212, Note_off_c, 0, 67, 100
2, 753216, Note_on_c, 0, 79, 110
2, 753404, Note_off_c, 0, 79, 100
2, 753408, Note_on_c, 0, 71, 110
2, 753596, Note_off_c, 0, 71, 100
2, 753600, Note_on_c, 0, 83, 110
2, 753788, Note_off_c, 0, 83, 100
2, 753792, Note_on_c, 0, 74, 110
2, 753980, Note_off_c, 0, 74, 100
2, 753984, Note_on_c, 0, 86, 110
2, 754172, Note_off_c, 0, 86, 100
2, 754176, Note_on_c, 0, 72, 110
2, 754364, Note_off_c, 0, 72, 100
2, 754368, Note_on_c, 0, 84, 110
2, 754556, Note_off_c, 0, 84, 100
2, 754560, Note_on_c, 0, 67, 110
2, 754748, Note_off_c, 0, 67, 100
2, 754752, Note_on_c, 0, 79, 110
2, 754940, Note_off_c, 0, 79, 100
2, 754944, Note_on_c, 0, 72, 110
2, 755132, Note_off_c, 0, 72, 100
2, 755136, Note_on_c, 0, 84, 110
2, 755324, Note_off_c, 0, 84, 100
2, 755328, Note_on_c, 0, 75, 110
2, 755516, Note_off_c, 0, 75, 100
2, 755520, Note_on_c, 0, 87, 110
2, 755708, Note_off_c, 0, 87, 100
2, 755712, Note_on_c, 0, 74, 110
2, 755900, Note_off_c, 0, 74, 100
2, 755904, Note_on_c, 0, 86, 110
2, 756092, Note_off_c, 0, 86, 100
2, 756096, Note_on_c, 0, 69, 110
2, 756284, Note_off_c, 0, 69, 100
2, 756288, Note_on_c, 0, 81, 110
2, 756476, Note_off_c, 0, 81, 100
2, 756480, Note_on_c, 0, 73, 110
2, 756668, Note_off_c, 0, 73, 100
2, 756672, Note_on_c, 0, 85, 110
2, 756860, Note_off_c, 0, 85, 100
2, 756864, Note_on_c, 0, 76, 110
2, 757052, Note_off_c, 0, 76, 100
2, 757056, Note_on_c, 0, 88, 110
2, 757244, Note_off_c, 0, 88, 100
2, 757248, Note_on_c, 0, 74, 110
2, 757436, Note_off_c, 0, 74, 100
2, 757440, Note_on_c, 0, 86, 110
2, 757628, Note_off_c, 0, 86, 100
2, 757632, Note_on_c, 0, 69, 110
2, 757820, Note_off_c, 0, 69, 100
2, 757824, Note_on_c, 0, 81, 110
2, 758012, Note_off_c, 0, 81, 100
2, 758016, Note_on_c, 0, 74, 110
2, 758204, Note_off_c, 0, 74, 100
2, 758208, Note_on_c, 0, 86, 110
2, 758396, Note_off_c, 0, 86, 100
2, 758400, Note_on_c, 0, 77, 110
2, 758588, Note_off_c, 0, 77, 100
2, 758592, Note_on_c, 0, 89, 110
2, 758780, Note_off_c, 0, 89, 100
2, 758784, Note_on_c, 0, 75, 110
2, 758972, Note_off_c, 0, 75, 100
2, 758976, Note_on_c, 0, 87, 110
2, 759164, Note_off_c, 0, 87, 100
2, 759168, Note_on_c, 0, 70, 110
2, 759356, Note_off_c, 0, 70, 100
2, 759360, Note_on_c, 0, 82, 110
2, 759548, Note_off_c, 0, 82, 100
2, 759552, Note_on_c, 0, 74, 110
2, 759740, Note_off_c, 0, 74, 100
2, 759744, Note_on_c, 0, 86, 110
2, 759932, Note_off_c, 0, 86, 100
2, 759936, Note_on_c, 0, 77, 110
2, 760124, Note_off_c, 0, 77, 100
2, 760128, Note_on_c, 0, 89, 110
2, 760316, Note_off_c, 0, 89, 100
2, 760320, Note_on_c, 0, 75, 110
2, 760508, Note_off_c, 0, 75, 100
2, 760512, Note_on_c, 0, 87, 110
2, 760700, Note_off_c, 0, 87, 100
2, 760704, Note_on_c, 0, 70, 110
2, 760892, Note_off_c, 0, 70, 100
2, 760896, Note_on_c, 0, 82, 110
2, 761084, Note_off_c, 0, 82, 100
2, 761088, Note_on_c, 0, 75, 110
2, 761276, Note_off_c, 0, 75, 100
2, 761280, Note_on_c, 0, 87, 110
2, 761468, Note_off_c, 0, 87, 100
2, 761472, Note_on_c, 0, 78, 110
2, 761660, Note_off_c, 0, 78, 100
2, 761664, Note_on_c, 0, 90, 110
2, 761852, Note_off_c, 0, 90, 100
2, 761856, Note_on_c, 0, 77, 110
2, 762044, Note_off_c, 0, 77, 100
2, 762048, Note_on_c, 0, 89, 110
2, 762236, Note_off_c, 0, 89, 100
2, 762240, Note_on_c, 0, 72, 110
2, 762428, Note_off_c, 0, 72, 100
2, 762432, Note_on_c, 0, 84, 110
2, 762620, Note_off_c, 0, 84, 100
2, 762624, Note_on_c, 0, 75, 110
2, 762812, Note_off_c, 0, 75, 100
2, 762816, Note_on_c, 0, 87, 110
2, 763004, Note_off_c, 0, 87, 100
2, 763008, Note_on_c, 0, 78, 110
2, 763196, Note_off_c, 0, 78, 100
2, 763200, Note_on_c, 0, 90, 110
2, 763388, Note_off_c, 0, 90, 100
2, 763392, Note_on_c, 0, 73, 110
2, 763580, Note_off_c, 0, 73, 100
2, 763584, Note_on_c, 0, 85, 110
2, 763772, Note_off_c, 0, 85, 100
2, 763776, Note_on_c, 0, 69, 110
2, 763964, Note_off_c, 0, 69, 100
2, 763968, Note_on_c, 0, 81, 110
2, 764156, Note_off_c, 0, 81, 100
2, 764160, Note_on_c, 0, 72, 110
2, 764348, Note_off_c, 0, 72, 100
2, 764352, Note_on_c, 0, 84, 110
2, 764540, Note_off_c, 0, 84, 100
2, 764544, Note_on_c, 0, 75, 110
2, 764732, Note_off_c, 0, 75, 100
2, 764736, Note_on_c, 0, 87, 110
2, 764924, Note_off_c, 0, 87, 100
2, 764928, Note_on_c, 0, 66, 110
2, 765116, Note_off_c, 0, 66, 100
2, 765120, Note_on_c, 0, 78, 110
2, 765308, Note_off_c, 0, 78, 100
2, 765312, Note_on_c, 0, 65, 110
2, 765500, Note_off_c, 0, 65, 100
2, 765504, Note_on_c, 0, 77, 110
2, 765692, Note_off_c, 0, 77, 100
2, 765696, Note_on_c, 0, 69, 110
2, 765884, Note_off_c, 0, 69, 100
2, 765888, Note_on_c, 0, 81, 110
2, 766076, Note_off_c, 0, 81, 100
2, 766080, Note_on_c, 0, 75, 110
2, 766268, Note_off_c, 0, 75, 100
2, 766272, Note_on_c, 0, 87, 110
2, 766460, Note_off_c, 0, 87, 100
2, 766464, Note_on_c, 0, 74, 80
2, 766464, Note_on_c, 0, 71, 80
2, 766652, Note_off_c, 0, 71, 100
2, 766656, Note_on_c, 0, 70, 80
2, 766844, Note_off_c, 0, 70, 100
2, 766848, Note_on_c, 0, 71, 80
2, 767036, Note_off_c, 0, 71, 100
2, 767040, Note_on_c, 0, 70, 80
2, 767228, Note_off_c, 0, 70, 100
2, 767232, Note_on_c, 0, 71, 80
2, 767420, Note_off_c, 0, 71, 100
2, 767424, Note_on_c, 0, 70, 80
2, 767612, Note_off_c, 0, 70, 100
2, 767616, Note_on_c, 0, 71, 80
2, 767804, Note_off_c, 0, 71, 100
2, 767808, Note_on_c, 0, 70, 80
2, 767996, Note_off_c, 0, 74, 100
2, 767996, Note_off_c, 0, 70, 100
2, 768000, Note_on_c, 0, 75, 80
2, 768000, Note_on_c, 0, 71, 80
2, 768188, Note_off_c, 0, 71, 100
2, 768192, Note_on_c, 0, 70, 80
2, 768380, Note_off_c, 0, 70, 100
2, 768384, Note_on_c, 0, 71, 80
2, 768572, Note_off_c, 0, 71, 100
2, 768576, Note_on_c, 0, 70, 80
2, 768764, Note_off_c, 0, 75, 100
2, 768764, Note_off_c, 0, 70, 100
2, 768768, Note_on_c, 0, 78, 80
2, 768768, Note_on_c, 0, 71, 80
2, 768956, Note_off_c, 0, 71, 100
2, 768960, Note_on_c, 0, 70, 80
2, 769148, Note_off_c, 0, 70, 100
2, 769152, Note_on_c, 0, 71, 80
2, 769340, Note_off_c, 0, 71, 100
2, 769344, Note_on_c, 0, 70, 80
2, 769532, Note_off_c, 0, 78, 100
2, 769532, Note_off_c, 0, 70, 100
2, 769536, Note_on_c, 0, 82, 80
2, 769536, Note_on_c, 0, 71, 80
2, 769724, Note_off_c, 0, 71, 100
2, 769728, Note_on_c, 0, 70, 80
2, 769916, Note_off_c, 0, 70, 100
2, 769920, Note_on_c, 0, 71, 80
2, 770108, Note_off_c, 0, 71, 100
2, 770112, Note_on_c, 0, 70, 80
2, 770300, Note_off_c, 0, 70, 100
2, 770304, Note_on_c, 0, 71, 80
2, 770492, Note_off_c, 0, 71, 100
2, 770496, Note_on_c, 0, 70, 80
2, 770684, Note_off_c, 0, 70, 100
2, 770688, Note_on_c, 0, 71, 80
2, 770876, Note_off_c, 0, 71, 100
2, 770880, Note_on_c, 0, 70, 80
2, 771068, Note_off_c, 0, 82, 100
2, 771068, Note_off_c, 0, 70, 100
2, 771072, Note_on_c, 0, 78, 80
2, 771072, Note_on_c, 0, 71, 80
2, 771260, Note_off_c, 0, 71, 100
2, 771264, Note_on_c, 0, 70, 80
2, 771452, Note_off_c, 0, 70, 100
2, 771456, Note_on_c, 0, 71, 80
2, 771644, Note_off_c, 0, 71, 100
2, 771648, Note_on_c, 0, 70, 80
2, 771836, Note_off_c, 0, 78, 100
2, 771836, Note_off_c, 0, 70, 100
2, 771840, Note_on_c, 0, 75, 80
2, 771840, Note_on_c, 0, 71, 80
2, 772028, Note_off_c, 0, 71, 100
2, 772032, Note_on_c, 0, 70, 80
2, 772220, Note_off_c, 0, 70, 100
2, 772224, Note_on_c, 0, 70, 80
2, 772320, Note_on_c, 0, 72, 80
2, 772412, Note_off_c, 0, 70, 100
2, 772416, Note_on_c, 0, 70, 80
2, 772508, Note_off_c, 0, 72, 100
2, 772512, Note_on_c, 0, 72, 80
2, 772604, Note_off_c, 0, 75, 100
2, 772604, Note_off_c, 0, 70, 100
2, 772608, Note_on_c, 0, 70, 80
2, 772608, Note_on_c, 0, 74, 100
2, 772700, Note_off_c, 0, 72, 100
2, 772704, Note_on_c, 0, 72, 80
2, 772796, Note_off_c, 0, 70, 100
2, 772800, Note_on_c, 0, 70, 80
2, 772892, Note_off_c, 0, 72, 100
2, 772896, Note_on_c, 0, 72, 80
2, 772988, Note_off_c, 0, 70, 100
2, 772992, Note_on_c, 0, 70, 80
2, 773084, Note_off_c, 0, 72, 100
2, 773088, Note_on_c, 0, 72, 80
2, 773180, Note_off_c, 0, 70, 100
2, 773184, Note_on_c, 0, 70, 80
2, 773276, Note_off_c, 0, 72, 100
2, 773280, Note_on_c, 0, 72, 80
2, 773372, Note_off_c, 0, 70, 100
2, 773376, Note_on_c, 0, 70, 80
2, 773468, Note_off_c, 0, 72, 100
2, 773472, Note_on_c, 0, 72, 80
2, 773564, Note_off_c, 0, 70, 100
2, 773568, Note_on_c, 0, 70, 80
2, 773660, Note_off_c, 0, 72, 100
2, 773664, Note_on_c, 0, 72, 80
2, 773756, Note_off_c, 0, 70, 100
2, 773760, Note_on_c, 0, 70, 80
2, 773852, Note_off_c, 0, 72, 100
2, 773856, Note_on_c, 0, 72, 80
2, 773948, Note_off_c, 0, 70, 100
2, 773952, Note_on_c, 0, 70, 80
2, 774044, Note_off_c, 0, 72, 100
2, 774048, Note_on_c, 0, 72, 80
2, 774140, Note_off_c, 0, 74, 100
2, 774140, Note_off_c, 0, 70, 100
2, 774144, Note_on_c, 0, 70, 80
2, 774144, Note_on_c, 0, 75, 100
2, 774236, Note_off_c, 0, 72, 100
2, 774240, Note_on_c, 0, 72, 80
2, 774332, Note_off_c, 0, 70, 100
2, 774336, Note_on_c, 0, 70, 80
2, 774428, Note_off_c, 0, 72, 100
2, 774432, Note_on_c, 0, 72, 80
2, 774524, Note_off_c, 0, 70, 100
2, 774528, Note_on_c, 0, 70, 80
2, 774620, Note_off_c, 0, 72, 100
2, 774624, Note_on_c, 0, 72, 80
2, 774716, Note_off_c, 0, 70, 100
2, 774720, Note_on_c, 0, 70, 80
2, 774812, Note_off_c, 0, 72, 100
2, 774816, Note_on_c, 0, 72, 80
2, 774908, Note_off_c, 0, 70, 100
2, 774912, Note_on_c, 0, 70, 80
2, 775004, Note_off_c, 0, 72, 100
2, 775008, Note_on_c, 0, 72, 80
2, 775100, Note_off_c, 0, 70, 100
2, 775104, Note_on_c, 0, 70, 80
2, 775196, Note_off_c, 0, 72, 100
2, 775200, Note_on_c, 0, 72, 80
2, 775292, Note_off_c, 0, 75, 100
2, 775292, Note_off_c, 0, 70, 100
2, 775296, Note_on_c, 0, 70, 80
2, 775296, Note_on_c, 0, 79, 103
2, 775388, Note_off_c, 0, 72, 100
2, 775392, Note_on_c, 0, 72, 80
2, 775484, Note_off_c, 0, 70, 100
2, 775488, Note_on_c, 0, 70, 80
2, 775580, Note_off_c, 0, 72, 100
2, 775584, Note_on_c, 0, 72, 80
2, 775676, Note_off_c, 0, 79, 100
2, 775676, Note_off_c, 0, 70, 100
2, 775680, Note_on_c, 0, 70, 80
2, 775680, Note_on_c, 0, 82, 104
2, 775772, Note_off_c, 0, 72, 100
2, 775776, Note_on_c, 0, 72, 80
2, 775868, Note_off_c, 0, 70, 100
2, 775872, Note_on_c, 0, 70, 80
2, 775964, Note_off_c, 0, 72, 100
2, 775968, Note_on_c, 0, 72, 80
2, 776060, Note_off_c, 0, 70, 100
2, 776064, Note_on_c, 0, 70, 80
2, 776156, Note_off_c, 0, 72, 100
2, 776160, Note_on_c, 0, 72, 80
2, 776252, Note_off_c, 0, 70, 100
2, 776256, Note_on_c, 0, 70, 80
2, 776348, Note_off_c, 0, 72, 100
2, 776352, Note_on_c, 0, 72, 80
2, 776444, Note_off_c, 0, 70, 100
2, 776448, Note_on_c, 0, 70, 80
2, 776540, Note_off_c, 0, 72, 100
2, 776544, Note_on_c, 0, 72, 80
2, 776636, Note_off_c, 0, 70, 100
2, 776640, Note_on_c, 0, 70, 80
2, 776732, Note_off_c, 0, 72, 100
2, 776736, Note_on_c, 0, 72, 80
2, 776828, Note_off_c, 0, 82, 100
2, 776828, Note_off_c, 0, 70, 100
2, 776832, Note_on_c, 0, 70, 80
2, 776832, Note_on_c, 0, 80, 100
2, 776924, Note_off_c, 0, 72, 100
2, 776928, Note_on_c, 0, 72, 80
2, 777020, Note_off_c, 0, 70, 100
2, 777024, Note_on_c, 0, 70, 80
2, 777116, Note_off_c, 0, 72, 100
2, 777120, Note_on_c, 0, 72, 80
2, 777212, Note_off_c, 0, 80, 100
2, 777212, Note_off_c, 0, 70, 100
2, 777216, Note_on_c, 0, 70, 80
2, 777216, Note_on_c, 0, 79, 100
2, 777308, Note_off_c, 0, 72, 100
2, 777312, Note_on_c, 0, 72, 80
2, 777404, Note_off_c, 0, 70, 100
2, 777408, Note_on_c, 0, 70, 80
2, 777500, Note_off_c, 0, 72, 100
2, 777504, Note_on_c, 0, 72, 80
2, 777596, Note_off_c, 0, 79, 100
2, 777596, Note_off_c, 0, 70, 100
2, 777600, Note_on_c, 0, 70, 80
2, 777600, Note_on_c, 0, 77, 100
2, 777692, Note_off_c, 0, 72, 100
2, 777696, Note_on_c, 0, 72, 80
2, 777788, Note_off_c, 0, 70, 100
2, 777792, Note_on_c, 0, 70, 80
2, 777884, Note_off_c, 0, 72, 100
2, 777888, Note_on_c, 0, 72, 80
2, 777980, Note_off_c, 0, 77, 100
2, 777980, Note_off_c, 0, 70, 100
2, 777984, Note_on_c, 0, 70, 80
2, 777984, Note_on_c, 0, 75, 100
2, 778076, Note_off_c, 0, 72, 100
2, 778080, Note_on_c, 0, 72, 80
2, 778172, Note_off_c, 0, 70, 100
2, 778176, Note_on_c, 0, 70, 80
2, 778268, Note_off_c, 0, 72, 100
2, 778272, Note_on_c, 0, 72, 80
2, 778364, Note_off_c, 0, 75, 100
2, 778364, Note_off_c, 0, 70, 100
2, 778368, Note_on_c, 0, 70, 80
2, 778368, Note_on_c, 0, 74, 100
2, 778460, Note_off_c, 0, 72, 100
2, 778464, Note_on_c, 0, 72, 80
2, 778556, Note_off_c, 0, 70, 100
2, 778560, Note_on_c, 0, 70, 80
2, 778652, Note_off_c, 0, 72, 100
2, 778656, Note_on_c, 0, 72, 80
2, 778748, Note_off_c, 0, 74, 100
2, 778748, Note_off_c, 0, 70, 100
2, 778752, Note_on_c, 0, 70, 80
2, 778752, Note_on_c, 0, 75, 101
2, 778844, Note_off_c, 0, 72, 100
2, 778848, Note_on_c, 0, 72, 80
2, 778940, Note_off_c, 0, 70, 100
2, 778944, Note_on_c, 0, 70, 80
2, 779036, Note_off_c, 0, 72, 100
2, 779040, Note_on_c, 0, 72, 80
2, 779132, Note_off_c, 0, 70, 100
2, 779136, Note_on_c, 0, 70, 80
2, 779228, Note_off_c, 0, 72, 100
2, 779232, Note_on_c, 0, 72, 80
2, 779324, Note_off_c, 0, 70, 100
2, 779328, Note_on_c, 0, 70, 80
2, 779420, Note_off_c, 0, 72, 100
2, 779424, Note_on_c, 0, 72, 80
2, 779516, Note_off_c, 0, 70, 100
2, 779520, Note_on_c, 0, 70, 80
2, 779612, Note_off_c, 0, 72, 100
2, 779616, Note_on_c, 0, 72, 80
2, 779708, Note_off_c, 0, 70, 100
2, 779712, Note_on_c, 0, 70, 80
2, 779804, Note_off_c, 0, 72, 100
2, 779808, Note_on_c, 0, 72, 80
2, 779900, Note_off_c, 0, 75, 100
2, 779900, Note_off_c, 0, 70, 100
2, 779904, Note_on_c, 0, 70, 80
2, 779904, Note_on_c, 0, 74, 80
2, 779996, Note_off_c, 0, 72, 100
2, 780000, Note_on_c, 0, 72, 80
2, 780092, Note_off_c, 0, 70, 100
2, 780096, Note_on_c, 0, 70, 80
2, 780188, Note_off_c, 0, 72, 100
2, 780192, Note_on_c, 0, 72, 80
2, 780284, Note_off_c, 0, 74, 100
2, 780284, Note_off_c, 0, 70, 100
2, 780288, Note_on_c, 0, 70, 80
2, 780288, Note_on_c, 0, 77, 100
2, 780380, Note_off_c, 0, 72, 100
2, 780384, Note_on_c, 0, 72, 80
2, 780476, Note_off_c, 0, 70, 100
2, 780480, Note_on_c, 0, 70, 80
2, 780572, Note_off_c, 0, 72, 100
2, 780576, Note_on_c, 0, 72, 80
2, 780668, Note_off_c, 0, 77, 100
2, 780668, Note_off_c, 0, 70, 100
2, 780672, Note_on_c, 0, 70, 80
2, 780672, Note_on_c, 0, 75, 100
2, 780764, Note_off_c, 0, 72, 100
2, 780768, Note_on_c, 0, 72, 80
2, 780860, Note_off_c, 0, 70, 100
2, 780864, Note_on_c, 0, 70, 80
2, 780956, Note_off_c, 0, 72, 100
2, 780960, Note_on_c, 0, 72, 80
2, 781052, Note_off_c, 0, 70, 100
2, 781056, Note_on_c, 0, 70, 80
2, 781148, Note_off_c, 0, 72, 100
2, 781152, Note_on_c, 0, 72, 80
2, 781244, Note_off_c, 0, 70, 100
2, 781248, Note_on_c, 0, 70, 80
2, 781340, Note_off_c, 0, 72, 100
2, 781344, Note_on_c, 0, 72, 80
2, 781436, Note_off_c, 0, 75, 100
2, 781436, Note_off_c, 0, 70, 100
2, 781440, Note_on_c, 0, 70, 80
2, 781440, Note_on_c, 0, 74, 100
2, 781532, Note_off_c, 0, 72, 100
2, 781536, Note_on_c, 0, 72, 80
2, 781628, Note_off_c, 0, 70, 100
2, 781632, Note_on_c, 0, 70, 80
2, 781724, Note_off_c, 0, 72, 100
2, 781728, Note_on_c, 0, 72, 80
2, 781820, Note_off_c, 0, 74, 100
2, 781820, Note_off_c, 0, 70, 100
2, 781820, Note_off_c, 0, 72, 100
2, 781824, Note_on_c, 0, 70, 80
2, 781824, Note_on_c, 0, 74, 80
2, 781920, Note_on_c, 0, 75, 80
2, 782012, Note_off_c, 0, 74, 100
2, 782016, Note_on_c, 0, 74, 81
2, 782108, Note_off_c, 0, 75, 100
2, 782112, Note_on_c, 0, 75, 82
2, 782204, Note_off_c, 0, 74, 100
2, 782208, Note_on_c, 0, 74, 83
2, 782300, Note_off_c, 0, 75, 100
2, 782304, Note_on_c, 0, 75, 84
2, 782396, Note_off_c, 0, 74, 100
2, 782400, Note_on_c, 0, 74, 85
2, 782492, Note_off_c, 0, 75, 100
2, 782496, Note_on_c, 0, 75, 86
2, 782588, Note_off_c, 0, 74, 100
2, 782592, Note_on_c, 0, 74, 87
2, 782684, Note_off_c, 0, 75, 100
2, 782688, Note_on_c, 0, 75, 88
2, 782780, Note_off_c, 0, 74, 100
2, 782784, Note_on_c, 0, 74, 89
2, 782876, Note_off_c, 0, 75, 100
2, 782880, Note_on_c, 0, 75, 90
2, 782972, Note_off_c, 0, 74, 100
2, 782976, Note_on_c, 0, 74, 91
2, 783068, Note_off_c, 0, 75, 100
2, 783072, Note_on_c, 0, 75, 92
2, 783164, Note_off_c, 0, 74, 100
2, 783168, Note_on_c, 0, 74, 93
2, 783260, Note_off_c, 0, 75, 100
2, 783264, Note_on_c, 0, 75, 94
2, 783356, Note_off_c, 0, 70, 100
2, 783356, Note_off_c, 0, 74, 100
2, 783360, Note_on_c, 0, 74, 95
2, 783452, Note_off_c, 0, 75, 100
2, 783456, Note_on_c, 0, 75, 95
2, 783548, Note_off_c, 0, 74, 100
2, 783552, Note_on_c, 0, 74, 94
2, 783644, Note_off_c, 0, 75, 100
2, 783648, Note_on_c, 0, 75, 93
2, 783740, Note_off_c, 0, 74, 100
2, 783744, Note_on_c, 0, 74, 92
2, 783836, Note_off_c, 0, 75, 100
2, 783840, Note_on_c, 0, 75, 91
2, 783932, Note_off_c, 0, 74, 100
2, 783936, Note_on_c, 0, 74, 90
2, 784028, Note_off_c, 0, 75, 100
2, 784032, Note_on_c, 0, 75, 89
2, 784124, Note_off_c, 0, 74, 100
2, 784128, Note_on_c, 0, 74, 88
2, 784220, Note_off_c, 0, 75, 100
2, 784224, Note_on_c, 0, 75, 87
2, 784316, Note_off_c, 0, 74, 100
2, 784320, Note_on_c, 0, 74, 86
2, 784412, Note_off_c, 0, 75, 100
2, 784416, Note_on_c, 0, 75, 85
2, 784508, Note_off_c, 0, 74, 100
2, 784512, Note_on_c, 0, 74, 84
2, 784604, Note_off_c, 0, 75, 100
2, 784608, Note_on_c, 0, 75, 83
2, 784700, Note_off_c, 0, 74, 100
2, 784704, Note_on_c, 0, 74, 82
2, 784796, Note_off_c, 0, 75, 100
2, 784800, Note_on_c, 0, 72, 81
2, 784892, Note_off_c, 0, 74, 100
2, 784892, Note_off_c, 0, 72, 100
2, 784896, Note_on_c, 0, 74, 80
2, 785084, Note_off_c, 0, 74, 100
2, 785088, Note_on_c, 0, 75, 80
2, 785276, Note_off_c, 0, 75, 100
2, 785280, Note_on_c, 0, 74, 80
2, 785468, Note_off_c, 0, 74, 100
2, 785472, Note_on_c, 0, 72, 80
2, 785660, Note_off_c, 0, 72, 100
2, 785664, Note_on_c, 0, 70, 80
2, 785852, Note_off_c, 0, 70, 100
2, 785856, Note_on_c, 0, 69, 80
2, 786044, Note_off_c, 0, 69, 100
2, 786048, Note_on_c, 0, 70, 80
2, 786236, Note_off_c, 0, 70, 100
2, 786240, Note_on_c, 0, 72, 80
2, 786428, Note_off_c, 0, 72, 100
2, 786432, Note_on_c, 0, 74, 80
2, 786620, Note_off_c, 0, 74, 100
2, 786624, Note_on_c, 0, 75, 80
2, 786812, Note_off_c, 0, 75, 100
2, 786816, Note_on_c, 0, 77, 80
2, 787004, Note_off_c, 0, 77, 100
2, 787008, Note_on_c, 0, 79, 80
2, 787196, Note_off_c, 0, 79, 100
2, 787200, Note_on_c, 0, 81, 80
2, 787388, Note_off_c, 0, 81, 100
2, 787392, Note_on_c, 0, 82, 80
2, 787580, Note_off_c, 0, 82, 100
2, 787584, Note_on_c, 0, 84, 80
2, 787772, Note_off_c, 0, 84, 100
2, 787776, Note_on_c, 0, 86, 80
2, 787964, Note_off_c, 0, 86, 100
2, 787968, Note_on_c, 0, 87, 80
2, 788156, Note_off_c, 0, 87, 100
2, 788160, Note_on_c, 0, 89, 80
2, 788348, Note_off_c, 0, 89, 100
2, 788352, Note_on_c, 0, 87, 80
2, 788540, Note_off_c, 0, 87, 100
2, 788544, Note_on_c, 0, 86, 80
2, 788732, Note_off_c, 0, 86, 100
2, 788736, Note_on_c, 0, 84, 80
2, 788924, Note_off_c, 0, 84, 100
2, 788928, Note_on_c, 0, 82, 80
2, 789116, Note_off_c, 0, 82, 100
2, 789120, Note_on_c, 0, 81, 80
2, 789308, Note_off_c, 0, 81, 100
2, 789312, Note_on_c, 0, 79, 80
2, 789500, Note_off_c, 0, 79, 100
2, 789504, Note_on_c, 0, 77, 80
2, 789692, Note_off_c, 0, 77, 100
2, 789696, Note_on_c, 0, 75, 80
2, 789884, Note_off_c, 0, 75, 100
2, 789888, Note_on_c, 0, 74, 80
2, 790076, Note_off_c, 0, 74, 100
2, 790080, Note_on_c, 0, 72, 80
2, 790268, Note_off_c, 0, 72, 100
2, 790272, Note_on_c, 0, 70, 80
2, 790460, Note_off_c, 0, 70, 100
2, 790464, Note_on_c, 0, 69, 80
2, 790652, Note_off_c, 0, 69, 100
2, 790656, Note_on_c, 0, 67, 80
2, 790844, Note_off_c, 0, 67, 100
2, 790848, Note_on_c, 0, 65, 80
2, 791036, Note_off_c, 0, 65, 100
2, 791040, Note_on_c, 0, 74, 70
2, 791040, Note_on_c, 0, 65, 70
2, 791612, Note_off_c, 0, 74, 100
2, 791612, Note_off_c, 0, 65, 100
2, 791616, Note_on_c, 0, 74, 70
2, 791616, Note_on_c, 0, 65, 70
2, 791784, Note_on_c, 0, 74, 70
2, 791804, Note_off_c, 0, 74, 100
2, 791804, Note_off_c, 0, 65, 100
2, 791808, Note_on_c, 0, 65, 70
2, 792164, Note_off_c, 0, 74, 100
2, 792188, Note_off_c, 0, 65, 100
2, 792384, Note_on_c, 0, 67, 110
2, 792384, Note_on_c, 0, 65, 110
2, 792384, Note_on_c, 0, 62, 110
2, 792572, Note_off_c, 0, 67, 100
2, 792572, Note_off_c, 0, 65, 100
2, 792572, Note_off_c, 0, 62, 100
2, 792576, Note_on_c, 0, 75, 110
2, 792576, Note_on_c, 0, 67, 110
2, 792576, Note_on_c, 0, 63, 110
2, 793148, Note_off_c, 0, 75, 100
2, 793148, Note_off_c, 0, 67, 100
2, 793148, Note_off_c, 0, 63, 100
2, 793152, Note_on_c, 0, 75, 110
2, 793152, Note_on_c, 0, 67, 110
2, 793152, Note_on_c, 0, 63, 110
2, 793340, Note_off_c, 0, 75, 100
2, 793340, Note_off_c, 0, 67, 100
2, 793340, Note_off_c, 0, 63, 100
2, 793344, Note_on_c, 0, 75, 110
2, 793344, Note_on_c, 0, 67, 110
2, 793344, Note_on_c, 0, 63, 110
2, 793724, Note_off_c, 0, 75, 100
2, 793724, Note_off_c, 0, 67, 100
2, 793724, Note_off_c, 0, 63, 100
2, 793920, Note_on_c, 0, 67, 70
2, 793920, Note_on_c, 0, 65, 70
2, 794108, Note_off_c, 0, 67, 100
2, 794108, Note_off_c, 0, 65, 100
2, 794112, Note_on_c, 0, 75, 70
2, 794112, Note_on_c, 0, 67, 70
2, 794684, Note_off_c, 0, 75, 100
2, 794684, Note_off_c, 0, 67, 100
2, 794688, Note_on_c, 0, 75, 70
2, 794688, Note_on_c, 0, 67, 70
2, 794876, Note_off_c, 0, 75, 100
2, 794876, Note_off_c, 0, 67, 100
2, 794880, Note_on_c, 0, 75, 70
2, 794880, Note_on_c, 0, 67, 70
2, 795260, Note_off_c, 0, 75, 100
2, 795260, Note_off_c, 0, 67, 100
2, 795456, Note_on_c, 0, 69, 110
2, 795456, Note_on_c, 0, 67, 110
2, 795456, Note_on_c, 0, 64, 110
2, 795644, Note_off_c, 0, 69, 100
2, 795644, Note_off_c, 0, 67, 100
2, 795644, Note_off_c, 0, 64, 100
2, 795648, Note_on_c, 0, 77, 110
2, 795648, Note_on_c, 0, 69, 110
2, 795648, Note_on_c, 0, 65, 110
2, 796220, Note_off_c, 0, 77, 100
2, 796220, Note_off_c, 0, 69, 100
2, 796220, Note_off_c, 0, 65, 100
2, 796224, Note_on_c, 0, 77, 110
2, 796224, Note_on_c, 0, 69, 110
2, 796224, Note_on_c, 0, 65, 110
2, 796412, Note_off_c, 0, 77, 100
2, 796412, Note_off_c, 0, 69, 100
2, 796412, Note_off_c, 0, 65, 100
2, 796416, Note_on_c, 0, 77, 110
2, 796416, Note_on_c, 0, 69, 110
2, 796416, Note_on_c, 0, 65, 110
2, 796796, Note_off_c, 0, 77, 100
2, 796796, Note_off_c, 0, 69, 100
2, 796796, Note_off_c, 0, 65, 100
2, 796992, Note_on_c, 0, 67, 70
2, 796992, Note_on_c, 0, 69, 70
2, 797180, Note_off_c, 0, 67, 100
2, 797180, Note_off_c, 0, 69, 100
2, 797184, Note_on_c, 0, 77, 70
2, 797184, Note_on_c, 0, 69, 70
2, 797756, Note_off_c, 0, 77, 100
2, 797756, Note_off_c, 0, 69, 100
2, 797760, Note_on_c, 0, 77, 70
2, 797760, Note_on_c, 0, 69, 70
2, 797948, Note_off_c, 0, 77, 100
2, 797948, Note_off_c, 0, 69, 100
2, 797952, Note_on_c, 0, 77, 70
2, 797952, Note_on_c, 0, 69, 70
2, 798332, Note_off_c, 0, 77, 100
2, 798332, Note_off_c, 0, 69, 100
2, 798528, Note_on_c, 0, 70, 110
2, 798528, Note_on_c, 0, 68, 110
2, 798528, Note_on_c, 0, 65, 110
2, 798716, Note_off_c, 0, 70, 100
2, 798716, Note_off_c, 0, 68, 100
2, 798716, Note_off_c, 0, 65, 100
2, 798720, Note_on_c, 0, 79, 110
2, 798720, Note_on_c, 0, 70, 110
2, 798720, Note_on_c, 0, 67, 110
2, 799292, Note_off_c, 0, 79, 100
2, 799292, Note_off_c, 0, 70, 100
2, 799292, Note_off_c, 0, 67, 100
2, 799296, Note_on_c, 0, 79, 110
2, 799296, Note_on_c, 0, 70, 110
2, 799296, Note_on_c, 0, 67, 110
2, 799484, Note_off_c, 0, 79, 100
2, 799484, Note_off_c, 0, 70, 100
2, 799484, Note_off_c, 0, 67, 100
2, 799488, Note_on_c, 0, 79, 110
2, 799488, Note_on_c, 0, 70, 110
2, 799488, Note_on_c, 0, 67, 110
2, 799868, Note_off_c, 0, 79, 100
2, 799868, Note_off_c, 0, 70, 100
2, 799868, Note_off_c, 0, 67, 100
2, 801600, Note_on_c, 0, 75, 120
2, 801600, Note_on_c, 0, 67, 120
2, 801788, Note_off_c, 0, 75, 100
2, 801788, Note_off_c, 0, 67, 100
2, 801792, Note_on_c, 0, 81, 120
2, 801792, Note_on_c, 0, 75, 120
2, 801792, Note_on_c, 0, 72, 120
2, 801792, Note_on_c, 0, 69, 120
2, 802364, Note_off_c, 0, 81, 100
2, 802364, Note_off_c, 0, 75, 100
2, 802364, Note_off_c, 0, 72, 100
2, 802364, Note_off_c, 0, 69, 100
2, 802368, Note_on_c, 0, 81, 120
2, 802368, Note_on_c, 0, 75, 120
2, 802368, Note_on_c, 0, 72, 120
2, 802368, Note_on_c, 0, 69, 120
2, 802556, Note_off_c, 0, 81, 100
2, 802556, Note_off_c, 0, 75, 100
2, 802556, Note_off_c, 0, 72, 100
2, 802556, Note_off_c, 0, 69, 100
2, 802560, Note_on_c, 0, 81, 120
2, 802560, Note_on_c, 0, 75, 120
2, 802560, Note_on_c, 0, 72, 120
2, 802560, Note_on_c, 0, 69, 120
2, 802940, Note_off_c, 0, 81, 100
2, 802940, Note_off_c, 0, 75, 100
2, 802940, Note_off_c, 0, 72, 100
2, 802940, Note_off_c, 0, 69, 100
2, 805440, Note_on_c, 0, 86, 80
2, 805440, Note_on_c, 0, 82, 80
2, 805440, Note_on_c, 0, 77, 80
2, 805440, Note_on_c, 0, 74, 80
2, 805628, Note_off_c, 0, 86, 100
2, 805628, Note_off_c, 0, 82, 100
2, 805628, Note_off_c, 0, 77, 100
2, 805628, Note_off_c, 0, 74, 100
2, 805632, Note_on_c, 0, 86, 80
2, 805632, Note_on_c, 0, 82, 80
2, 805632, Note_on_c, 0, 77, 80
2, 805632, Note_on_c, 0, 74, 80
2, 806012, Note_off_c, 0, 86, 100
2, 806012, Note_off_c, 0, 82, 100
2, 806012, Note_off_c, 0, 77, 100
2, 806012, Note_off_c, 0, 74, 100
2, 806016, Note_on_c, 0, 87, 80
2, 806016, Note_on_c, 0, 82, 80
2, 806016, Note_on_c, 0, 77, 80
2, 806016, Note_on_c, 0, 74, 80
2, 806204, Note_off_c, 0, 87, 100
2, 806204, Note_off_c, 0, 82, 100
2, 806204, Note_off_c, 0, 77, 100
2, 806204, Note_off_c, 0, 74, 100
2, 806208, Note_on_c, 0, 86, 80
2, 806208, Note_on_c, 0, 82, 80
2, 806208, Note_on_c, 0, 77, 80
2, 806208, Note_on_c, 0, 74, 80
2, 806396, Note_off_c, 0, 86, 100
2, 806396, Note_off_c, 0, 82, 100
2, 806396, Note_off_c, 0, 77, 100
2, 806396, Note_off_c, 0, 74, 100
2, 806400, Note_on_c, 0, 86, 80
2, 806400, Note_on_c, 0, 82, 80
2, 806400, Note_on_c, 0, 77, 80
2, 806400, Note_on_c, 0, 74, 80
2, 806780, Note_off_c, 0, 86, 100
2, 806780, Note_off_c, 0, 82, 100
2, 806780, Note_off_c, 0, 77, 100
2, 806780, Note_off_c, 0, 74, 100
2, 806784, Note_on_c, 0, 82, 80
2, 806784, Note_on_c, 0, 77, 80
2, 806784, Note_on_c, 0, 74, 80
2, 806784, Note_on_c, 0, 70, 80
2, 807164, Note_off_c, 0, 82, 100
2, 807164, Note_off_c, 0, 77, 100
2, 807164, Note_off_c, 0, 74, 100
2, 807164, Note_off_c, 0, 70, 100
2, 807168, Note_on_c, 0, 74, 110
2, 807168, Note_on_c, 0, 70, 110
2, 807168, Note_on_c, 0, 65, 110
2, 807168, Note_on_c, 0, 62, 110
2, 807548, Note_off_c, 0, 74, 100
2, 807548, Note_off_c, 0, 70, 100
2, 807548, Note_off_c, 0, 65, 100
2, 807548, Note_off_c, 0, 62, 100
2, 807552, Note_on_c, 0, 70, 110
2, 807552, Note_on_c, 0, 65, 110
2, 807552, Note_on_c, 0, 62, 110
2, 807552, Note_on_c, 0, 58, 110
2, 807932, Note_off_c, 0, 70, 100
2, 807932, Note_off_c, 0, 65, 100
2, 807932, Note_off_c, 0, 62, 100
2, 807932, Note_off_c, 0, 58, 100
2, 807936, Note_on_c, 0, 89, 80
2, 807936, Note_on_c, 0, 86, 80
2, 807936, Note_on_c, 0, 82, 80
2, 807936, Note_on_c, 0, 77, 80
2, 808508, Note_off_c, 0, 89, 100
2, 808508, Note_off_c, 0, 86, 100
2, 808508, Note_off_c, 0, 82, 100
2, 808508, Note_off_c, 0, 77, 100
2, 808512, Note_on_c, 0, 89, 80
2, 808512, Note_on_c, 0, 86, 80
2, 808512, Note_on_c, 0, 82, 80
2, 808512, Note_on_c, 0, 77, 80
2, 808700, Note_off_c, 0, 89, 100
2, 808700, Note_off_c, 0, 86, 100
2, 808700, Note_off_c, 0, 82, 100
2, 808700, Note_off_c, 0, 77, 100
2, 808704, Note_on_c, 0, 89, 80
2, 808704, Note_on_c, 0, 86, 80
2, 808704, Note_on_c, 0, 82, 80
2, 808704, Note_on_c, 0, 77, 80
2, 809084, Note_off_c, 0, 89, 100
2, 809084, Note_off_c, 0, 86, 100
2, 809084, Note_off_c, 0, 82, 100
2, 809084, Note_off_c, 0, 77, 100
2, 809088, Note_on_c, 0, 91, 80
2, 809088, Note_on_c, 0, 86, 80
2, 809088, Note_on_c, 0, 82, 80
2, 809088, Note_on_c, 0, 77, 80
2, 809276, Note_off_c, 0, 91, 100
2, 809276, Note_off_c, 0, 86, 100
2, 809276, Note_off_c, 0, 82, 100
2, 809276, Note_off_c, 0, 77, 100
2, 809280, Note_on_c, 0, 89, 80
2, 809280, Note_on_c, 0, 86, 80
2, 809280, Note_on_c, 0, 82, 80
2, 809280, Note_on_c, 0, 77, 80
2, 809468, Note_off_c, 0, 89, 100
2, 809468, Note_off_c, 0, 86, 100
2, 809468, Note_off_c, 0, 82, 100
2, 809468, Note_off_c, 0, 77, 100
2, 809472, Note_on_c, 0, 89, 80
2, 809472, Note_on_c, 0, 86, 80
2, 809472, Note_on_c, 0, 82, 80
2, 809472, Note_on_c, 0, 77, 80
2, 809852, Note_off_c, 0, 89, 100
2, 809852, Note_off_c, 0, 86, 100
2, 809852, Note_off_c, 0, 82, 100
2, 809852, Note_off_c, 0, 77, 100
2, 809856, Note_on_c, 0, 86, 80
2, 809856, Note_on_c, 0, 82, 80
2, 809856, Note_on_c, 0, 77, 80
2, 809856, Note_on_c, 0, 74, 80
2, 810236, Note_off_c, 0, 86, 100
2, 810236, Note_off_c, 0, 82, 100
2, 810236, Note_off_c, 0, 77, 100
2, 810236, Note_off_c, 0, 74, 100
2, 810240, Note_on_c, 0, 77, 110
2, 810240, Note_on_c, 0, 74, 110
2, 810240, Note_on_c, 0, 70, 110
2, 810240, Note_on_c, 0, 65, 110
2, 810620, Note_off_c, 0, 77, 100
2, 810620, Note_off_c, 0, 74, 100
2, 810620, Note_off_c, 0, 70, 100
2, 810620, Note_off_c, 0, 65, 100
2, 810624, Note_on_c, 0, 74, 110
2, 810624, Note_on_c, 0, 65, 110
2, 810624, Note_on_c, 0, 62, 110
2, 810624, Note_on_c, 0, 70, 110
2, 811004, Note_off_c, 0, 74, 100
2, 811004, Note_off_c, 0, 65, 100
2, 811004, Note_off_c, 0, 62, 100
2, 811004, Note_off_c, 0, 70, 100
2, 811008, Note_on_c, 0, 89, 80
2, 811008, Note_on_c, 0, 86, 80
2, 811388, Note_off_c, 0, 89, 100
2, 811388, Note_off_c, 0, 86, 100
2, 811392, Note_on_c, 0, 86, 80
2, 811392, Note_on_c, 0, 82, 80
2, 811772, Note_off_c, 0, 86, 100
2, 811772, Note_off_c, 0, 82, 100
2, 811776, Note_on_c, 0, 77, 110
2, 811776, Note_on_c, 0, 74, 110
2, 812156, Note_off_c, 0, 77, 100
2, 812156, Note_off_c, 0, 74, 100
2, 812160, Note_on_c, 0, 74, 110
2, 812160, Note_on_c, 0, 70, 110
2, 812540, Note_off_c, 0, 74, 100
2, 812540, Note_off_c, 0, 70, 100
2, 812544, Note_on_c, 0, 86, 80
2, 812544, Note_on_c, 0, 82, 80
2, 812924, Note_off_c, 0, 86, 100
2, 812924, Note_off_c, 0, 82, 100
2, 812928, Note_on_c, 0, 82, 80
2, 812928, Note_on_c, 0, 77, 80
2, 813308, Note_off_c, 0, 82, 100
2, 813308, Note_off_c, 0, 77, 100
2, 813312, Note_on_c, 0, 74, 110
2, 813312, Note_on_c, 0, 70, 110
2, 813692, Note_off_c, 0, 74, 100
2, 813692, Note_off_c, 0, 70, 100
2, 813696, Note_on_c, 0, 70, 110
2, 813696, Note_on_c, 0, 65, 110
2, 814076, Note_off_c, 0, 70, 100
2, 814076, Note_off_c, 0, 65, 100
2, 814080, Note_on_c, 0, 82, 80
2, 814080, Note_on_c, 0, 77, 80
2, 814460, Note_off_c, 0, 82, 100
2, 814460, Note_off_c, 0, 77, 100
2, 814464, Note_on_c, 0, 77, 80
2, 814464, Note_on_c, 0, 74, 80
2, 814844, Note_off_c, 0, 77, 100
2, 814844, Note_off_c, 0, 74, 100
2, 814848, Note_on_c, 0, 70, 110
2, 814848, Note_on_c, 0, 65, 110
2, 815228, Note_off_c, 0, 70, 100
2, 815228, Note_off_c, 0, 65, 100
2, 815232, Note_on_c, 0, 65, 110
2, 815232, Note_on_c, 0, 62, 110
2, 815612, Note_off_c, 0, 65, 100
2, 815612, Note_off_c, 0, 62, 100
2, 815616, Note_on_c, 0, 75, 80
2, 815616, Note_on_c, 0, 69, 80
2, 817148, Note_off_c, 0, 75, 100
2, 817148, Note_off_c, 0, 69, 100
2, 817152, Note_on_c, 0, 77, 80
2, 817152, Note_on_c, 0, 74, 80
2, 817532, Note_off_c, 0, 77, 100
2, 817532, Note_off_c, 0, 74, 100
2, 817536, Note_on_c, 0, 74, 80
2, 817536, Note_on_c, 0, 70, 80
2, 817916, Note_off_c, 0, 74, 100
2, 817916, Note_off_c, 0, 70, 100
2, 817920, Note_on_c, 0, 65, 110
2, 817920, Note_on_c, 0, 62, 110
2, 818300, Note_off_c, 0, 65, 100
2, 818300, Note_off_c, 0, 62, 100
2, 818304, Note_on_c, 0, 62, 110
2, 818304, Note_on_c, 0, 58, 110
2, 818684, Note_off_c, 0, 62, 100
2, 818684, Note_off_c, 0, 58, 100
2, 818688, Note_on_c, 0, 74, 80
2, 818688, Note_on_c, 0, 70, 80
2, 819068, Note_off_c, 0, 74, 100
2, 819068, Note_off_c, 0, 70, 100
2, 819072, Note_on_c, 0, 70, 80
2, 819072, Note_on_c, 0, 65, 80
2, 819452, Note_off_c, 0, 70, 100
2, 819452, Note_off_c, 0, 65, 100
2, 819456, Note_on_c, 0, 62, 110
2, 819456, Note_on_c, 0, 58, 110
2, 819836, Note_off_c, 0, 62, 100
2, 819836, Note_off_c, 0, 58, 100
2, 819840, Note_on_c, 0, 58, 110
2, 819840, Note_on_c, 0, 53, 110
2, 820220, Note_off_c, 0, 58, 100
2, 820220, Note_off_c, 0, 53, 100
2, 820224, Note_on_c, 0, 70, 80
2, 820224, Note_on_c, 0, 65, 80
2, 820604, Note_off_c, 0, 70, 100
2, 820604, Note_off_c, 0, 65, 100
2, 820608, Note_on_c, 0, 65, 80
2, 820608, Note_on_c, 0, 62, 80
2, 820988, Note_off_c, 0, 65, 100
2, 820988, Note_off_c, 0, 62, 100
2, 820992, Note_on_c, 0, 58, 110
2, 820992, Note_on_c, 0, 53, 110
2, 821372, Note_off_c, 0, 58, 100
2, 821372, Note_off_c, 0, 53, 100
2, 821376, Note_on_c, 0, 53, 110
2, 821376, Note_on_c, 0, 50, 110
2, 821756, Note_off_c, 0, 53, 100
2, 821756, Note_off_c, 0, 50, 100
2, 821760, Note_on_c, 0, 63, 80
2, 821760, Note_on_c, 0, 57, 80
2, 823292, Note_off_c, 0, 63, 100
2, 823292, Note_off_c, 0, 57, 100
2, 823872, Note_on_c, 0, 66, 80
2, 823872, Note_on_c, 0, 63, 80
2, 823872, Note_on_c, 0, 57, 80
2, 824060, Note_off_c, 0, 66, 100
2, 824060, Note_off_c, 0, 63, 100
2, 824060, Note_off_c, 0, 57, 100
2, 824064, Note_on_c, 0, 66, 79
2, 824064, Note_on_c, 0, 63, 79
2, 824064, Note_on_c, 0, 57, 79
2, 824444, Note_off_c, 0, 66, 100
2, 824444, Note_off_c, 0, 63, 100
2, 824444, Note_off_c, 0, 57, 100
2, 824448, Note_on_c, 0, 65, 79
2, 824448, Note_on_c, 0, 62, 79
2, 824448, Note_on_c, 0, 58, 79
2, 824828, Note_off_c, 0, 65, 100
2, 824828, Note_off_c, 0, 62, 100
2, 824828, Note_off_c, 0, 58, 100
2, 825408, Note_on_c, 0, 63, 78
2, 825408, Note_on_c, 0, 60, 78
2, 825408, Note_on_c, 0, 57, 78
2, 825408, Note_on_c, 0, 54, 78
2, 825596, Note_off_c, 0, 63, 100
2, 825596, Note_off_c, 0, 60, 100
2, 825596, Note_off_c, 0, 57, 100
2, 825596, Note_off_c, 0, 54, 100
2, 825600, Note_on_c, 0, 63, 77
2, 825600, Note_on_c, 0, 60, 77
2, 825600, Note_on_c, 0, 57, 77
2, 825600, Note_on_c, 0, 54, 77
2, 825980, Note_off_c, 0, 63, 100
2, 825980, Note_off_c, 0, 60, 100
2, 825980, Note_off_c, 0, 57, 100
2, 825980, Note_off_c, 0, 54, 100
2, 825984, Note_on_c, 0, 62, 77
2, 825984, Note_on_c, 0, 58, 77
2, 825984, Note_on_c, 0, 53, 77
2, 826364, Note_off_c, 0, 62, 100
2, 826364, Note_off_c, 0, 58, 100
2, 826364, Note_off_c, 0, 53, 100
2, 826944, Note_on_c, 0, 63, 76
2, 826944, Note_on_c, 0, 60, 76
2, 826944, Note_on_c, 0, 57, 76
2, 826944, Note_on_c, 0, 54, 76
2, 827132, Note_off_c, 0, 63, 100
2, 827132, Note_off_c, 0, 60, 100
2, 827132, Note_off_c, 0, 57, 100
2, 827132, Note_off_c, 0, 54, 100
2, 827136, Note_on_c, 0, 63, 75
2, 827136, Note_on_c, 0, 60, 75
2, 827136, Note_on_c, 0, 57, 75
2, 827136, Note_on_c, 0, 54, 75
2, 827516, Note_off_c, 0, 63, 100
2, 827516, Note_off_c, 0, 60, 100
2, 827516, Note_off_c, 0, 57, 100
2, 827516, Note_off_c, 0, 54, 100
2, 827520, Note_on_c, 0, 62, 75
2, 827520, Note_on_c, 0, 58, 75
2, 827520, Note_on_c, 0, 53, 75
2, 827900, Note_off_c, 0, 62, 100
2, 827900, Note_off_c, 0, 58, 100
2, 827900, Note_off_c, 0, 53, 100
2, 828480, Note_on_c, 0, 60, 74
2, 828480, Note_on_c, 0, 57, 74
2, 828480, Note_on_c, 0, 54, 74
2, 828480, Note_on_c, 0, 51, 74
2, 828668, Note_off_c, 0, 60, 100
2, 828668, Note_off_c, 0, 57, 100
2, 828668, Note_off_c, 0, 54, 100
2, 828668, Note_off_c, 0, 51, 100
2, 828672, Note_on_c, 0, 60, 73
2, 828672, Note_on_c, 0, 57, 73
2, 828672, Note_on_c, 0, 54, 73
2, 828672, Note_on_c, 0, 51, 73
2, 829052, Note_off_c, 0, 60, 100
2, 829052, Note_off_c, 0, 57, 100
2, 829052, Note_off_c, 0, 54, 100
2, 829052, Note_off_c, 0, 51, 100
2, 829056, Note_on_c, 0, 58, 73
2, 829056, Note_on_c, 0, 53, 73
2, 829056, Note_on_c, 0, 50, 73
2, 829436, Note_off_c, 0, 58, 100
2, 829436, Note_off_c, 0, 53, 100
2, 829436, Note_off_c, 0, 50, 100
2, 829440, Control_c, 0, 64, 127
2, 830016, Note_on_c, 0, 62, 66
2, 830016, Note_on_c, 0, 58, 66
2, 830016, Note_on_c, 0, 53, 66
2, 830016, Note_on_c, 0, 50, 66
2, 830204, Note_off_c, 0, 62, 100
2, 830204, Note_off_c, 0, 58, 100
2, 830204, Note_off_c, 0, 53, 100
2, 830204, Note_off_c, 0, 50, 100
2, 830208, Note_on_c, 0, 62, 65
2, 830208, Note_on_c, 0, 58, 65
2, 830208, Note_on_c, 0, 53, 65
2, 830208, Note_on_c, 0, 50, 65
2, 830588, Note_off_c, 0, 62, 100
2, 830588, Note_off_c, 0, 58, 100
2, 830588, Note_off_c, 0, 53, 100
2, 830588, Note_off_c, 0, 50, 100
2, 830592, Note_on_c, 0, 58, 62
2, 830592, Note_on_c, 0, 53, 62
2, 830592, Note_on_c, 0, 50, 62
2, 830968, Control_c, 0, 64, 0
2, 830972, Note_off_c, 0, 58, 100
2, 830972, Note_off_c, 0, 53, 100
2, 830972, Note_off_c, 0, 50, 100
2, 830976, Control_c, 0, 64, 127
2, 831360, Note_on_c, 0, 62, 60
2, 831360, Note_on_c, 0, 53, 60
2, 831360, Note_on_c, 0, 50, 60
2, 831360, Note_on_c, 0, 58, 60
2, 833276, Note_off_c, 0, 50, 100
2, 833276, Note_off_c, 0, 53, 100
2, 833276, Note_off_c, 0, 58, 100
2, 833276, Note_off_c, 0, 62, 100
2, 833280, Note_on_c, 0, 82, 120
2, 833280, Note_on_c, 0, 77, 120
2, 833280, Note_on_c, 0, 74, 120
2, 833280, Note_on_c, 0, 70, 120
2, 834044, Note_off_c, 0, 82, 100
2, 834044, Note_off_c, 0, 77, 100
2, 834044, Note_off_c, 0, 74, 100
2, 834044, Note_off_c, 0, 70, 100
2, 834048, Note_on_c, 0, 70, 120
2, 834048, Note_on_c, 0, 58, 120
2, 835576, Control_c, 0, 64, 0
2, 835580, Note_off_c, 0, 70, 100
2, 835580, Note_off_c, 0, 58, 100
2, 837888, Control_c, 0, 7, 0
2, 838656, Note_on_c, 0, 58, 1
2, 839036, Note_off_c, 0, 58, 100
2, 839036, End_track
3, 0, Start_track
3, 0, Title_t, "Left"
3, 0, Control_c, 1, 0, 0
3, 0, Program_c, 1, 0
3, 0, Control_c, 1, 7, 100
3, 0, Control_c, 1, 10, 51
3, 0, Control_c, 1, 91, 127
3, 0, Key_signature, -2, "major"
3, 0, Note_on_c, 1, 58, 1
3, 0, Control_c, 1, 64, 127
3, 380, Note_off_c, 1, 58, 100
3, 1344, Note_on_c, 1, 34, 120
3, 1532, Note_off_c, 1, 34, 100
3, 1536, Note_on_c, 1, 62, 120
3, 1536, Note_on_c, 1, 58, 120
3, 1536, Note_on_c, 1, 53, 120
3, 2108, Note_off_c, 1, 62, 100
3, 2108, Note_off_c, 1, 58, 100
3, 2108, Note_off_c, 1, 53, 100
3, 2112, Note_on_c, 1, 62, 120
3, 2112, Note_on_c, 1, 58, 120
3, 2112, Note_on_c, 1, 53, 120
3, 2300, Note_off_c, 1, 62, 100
3, 2300, Note_off_c, 1, 58, 100
3, 2300, Note_off_c, 1, 53, 100
3, 2304, Note_on_c, 1, 62, 120
3, 2304, Note_on_c, 1, 58, 120
3, 2304, Note_on_c, 1, 53, 120
3, 2684, Note_off_c, 1, 62, 100
3, 2684, Note_off_c, 1, 58, 100
3, 2684, Note_off_c, 1, 53, 100
3, 2688, Note_on_c, 1, 62, 120
3, 2688, Note_on_c, 1, 58, 120
3, 2688, Note_on_c, 1, 53, 120
3, 2876, Note_off_c, 1, 62, 100
3, 2876, Note_off_c, 1, 58, 100
3, 2876, Note_off_c, 1, 53, 100
3, 2880, Note_on_c, 1, 62, 120
3, 2880, Note_on_c, 1, 58, 120
3, 2880, Note_on_c, 1, 53, 120
3, 3068, Note_off_c, 1, 62, 100
3, 3068, Note_off_c, 1, 58, 100
3, 3068, Note_off_c, 1, 53, 100
3, 3072, Note_on_c, 1, 58, 120
3, 3072, Note_on_c, 1, 53, 120
3, 3072, Note_on_c, 1, 62, 120
3, 3452, Note_off_c, 1, 58, 100
3, 3452, Note_off_c, 1, 53, 100
3, 3452, Note_off_c, 1, 62, 100
3, 3456, Note_on_c, 1, 58, 120
3, 3456, Note_on_c, 1, 53, 120
3, 3456, Note_on_c, 1, 50, 120
3, 3836, Note_off_c, 1, 58, 100
3, 3836, Note_off_c, 1, 53, 100
3, 3836, Note_off_c, 1, 50, 100
3, 4416, Note_on_c, 1, 34, 120
3, 4604, Note_off_c, 1, 34, 100
3, 4608, Note_on_c, 1, 65, 120
3, 4608, Note_on_c, 1, 62, 120
3, 4608, Note_on_c, 1, 58, 120
3, 4608, Note_on_c, 1, 53, 120
3, 5180, Note_off_c, 1, 65, 100
3, 5180, Note_off_c, 1, 62, 100
3, 5180, Note_off_c, 1, 58, 100
3, 5180, Note_off_c, 1, 53, 100
3, 5184, Note_on_c, 1, 65, 120
3, 5184, Note_on_c, 1, 62, 120
3, 5184, Note_on_c, 1, 58, 120
3, 5184, Note_on_c, 1, 53, 120
3, 5372, Note_off_c, 1, 65, 100
3, 5372, Note_off_c, 1, 62, 100
3, 5372, Note_off_c, 1, 58, 100
3, 5372, Note_off_c, 1, 53, 100
3, 5376, Note_on_c, 1, 65, 120
3, 5376, Note_on_c, 1, 62, 120
3, 5376, Note_on_c, 1, 58, 120
3, 5376, Note_on_c, 1, 53, 120
3, 5756, Note_off_c, 1, 65, 100
3, 5756, Note_off_c, 1, 62, 100
3, 5756, Note_off_c, 1, 58, 100
3, 5756, Note_off_c, 1, 53, 100
3, 5760, Note_on_c, 1, 65, 120
3, 5760, Note_on_c, 1, 62, 120
3, 5760, Note_on_c, 1, 58, 120
3, 5760, Note_on_c, 1, 53, 120
3, 5948, Note_off_c, 1, 65, 100
3, 5948, Note_off_c, 1, 62, 100
3, 5948, Note_off_c, 1, 58, 100
3, 5948, Note_off_c, 1, 53, 100
3, 5952, Note_on_c, 1, 65, 120
3, 5952, Note_on_c, 1, 62, 120
3, 5952, Note_on_c, 1, 58, 120
3, 5952, Note_on_c, 1, 53, 120
3, 6140, Note_off_c, 1, 65, 100
3, 6140, Note_off_c, 1, 62, 100
3, 6140, Note_off_c, 1, 58, 100
3, 6140, Note_off_c, 1, 53, 100
3, 6144, Note_on_c, 1, 65, 120
3, 6144, Note_on_c, 1, 62, 120
3, 6144, Note_on_c, 1, 58, 120
3, 6144, Note_on_c, 1, 53, 120
3, 6524, Note_off_c, 1, 65, 100
3, 6524, Note_off_c, 1, 62, 100
3, 6524, Note_off_c, 1, 58, 100
3, 6524, Note_off_c, 1, 53, 100
3, 6528, Note_on_c, 1, 62, 120
3, 6528, Note_on_c, 1, 58, 120
3, 6528, Note_on_c, 1, 53, 120
3, 7676, Note_off_c, 1, 62, 100
3, 7676, Note_off_c, 1, 58, 100
3, 7676, Note_off_c, 1, 53, 100
3, 8440, Control_c, 1, 64, 0
3, 9600, Note_on_c, 1, 64, 80
3, 9980, Note_off_c, 1, 64, 100
3, 9984, Note_on_c, 1, 65, 80
3, 10364, Note_off_c, 1, 65, 100
3, 10368, Note_on_c, 1, 59, 80
3, 10748, Note_off_c, 1, 59, 100
3, 10752, Note_on_c, 1, 60, 80
3, 11132, Note_off_c, 1, 60, 100
3, 11136, Note_on_c, 1, 54, 80
3, 11516, Note_off_c, 1, 54, 100
3, 11520, Note_on_c, 1, 55, 80
3, 11900, Note_off_c, 1, 55, 100
3, 11904, Note_on_c, 1, 51, 80
3, 12284, Note_off_c, 1, 51, 100
3, 12288, Note_on_c, 1, 50, 80
3, 12668, Note_off_c, 1, 50, 100
3, 12672, Note_on_c, 1, 49, 80
3, 13052, Note_off_c, 1, 49, 100
3, 13056, Note_on_c, 1, 48, 80
3, 13436, Note_off_c, 1, 48, 100
3, 13440, Note_on_c, 1, 41, 80
3, 13820, Note_off_c, 1, 41, 100
3, 13824, Note_on_c, 1, 46, 80
3, 14204, Note_off_c, 1, 46, 100
3, 14208, Note_on_c, 1, 39, 80
3, 14588, Note_off_c, 1, 39, 100
3, 14592, Note_on_c, 1, 41, 80
3, 15356, Note_off_c, 1, 41, 100
3, 17280, Note_on_c, 1, 76, 80
3, 17660, Note_off_c, 1, 76, 100
3, 17664, Note_on_c, 1, 77, 80
3, 18044, Note_off_c, 1, 77, 100
3, 18048, Note_on_c, 1, 71, 80
3, 18428, Note_off_c, 1, 71, 100
3, 18432, Note_on_c, 1, 72, 80
3, 18812, Note_off_c, 1, 72, 100
3, 18816, Note_on_c, 1, 66, 80
3, 19196, Note_off_c, 1, 66, 100
3, 19200, Note_on_c, 1, 67, 80
3, 19580, Note_off_c, 1, 67, 100
3, 19584, Note_on_c, 1, 63, 80
3, 19964, Note_off_c, 1, 63, 100
3, 19968, Note_on_c, 1, 62, 80
3, 20348, Note_off_c, 1, 62, 100
3, 20352, Note_on_c, 1, 61, 81
3, 20732, Note_off_c, 1, 61, 100
3, 20736, Note_on_c, 1, 60, 83
3, 21116, Note_off_c, 1, 60, 100
3, 21120, Note_on_c, 1, 53, 84
3, 21500, Note_off_c, 1, 53, 100
3, 21504, Note_on_c, 1, 58, 86
3, 21884, Note_off_c, 1, 58, 100
3, 21888, Note_on_c, 1, 54, 87
3, 22268, Note_off_c, 1, 54, 100
3, 22272, Note_on_c, 1, 53, 89
3, 22652, Note_off_c, 1, 53, 100
3, 22656, Note_on_c, 1, 51, 90
3, 23036, Note_off_c, 1, 51, 100
3, 23040, Note_on_c, 1, 50, 92
3, 23420, Note_off_c, 1, 50, 100
3, 23424, Note_on_c, 1, 49, 93
3, 23804, Note_off_c, 1, 49, 100
3, 23808, Note_on_c, 1, 48, 95
3, 24188, Note_off_c, 1, 48, 100
3, 24192, Note_on_c, 1, 41, 96
3, 24572, Note_off_c, 1, 41, 100
3, 24576, Note_on_c, 1, 46, 98
3, 24956, Note_off_c, 1, 46, 100
3, 24960, Note_on_c, 1, 42, 99
3, 25340, Note_off_c, 1, 42, 100
3, 25344, Note_on_c, 1, 41, 101
3, 25724, Note_off_c, 1, 41, 100
3, 25728, Note_on_c, 1, 39, 103
3, 26108, Note_off_c, 1, 39, 100
3, 26112, Note_on_c, 1, 38, 104
3, 26492, Note_off_c, 1, 38, 100
3, 26496, Note_on_c, 1, 37, 106
3, 26876, Note_off_c, 1, 37, 100
3, 26880, Note_on_c, 1, 36, 107
3, 27260, Note_off_c, 1, 36, 100
3, 27264, Note_on_c, 1, 30, 109
3, 27644, Note_off_c, 1, 30, 100
3, 27648, Note_on_c, 1, 31, 110
3, 28028, Note_off_c, 1, 31, 100
3, 28032, Note_on_c, 1, 39, 110
3, 28412, Note_off_c, 1, 39, 100
3, 28416, Note_on_c, 1, 41, 110
3, 28796, Note_off_c, 1, 41, 100
3, 28800, Note_on_c, 1, 41, 110
3, 28800, Note_on_c, 1, 29, 110
3, 29180, Note_off_c, 1, 41, 100
3, 29180, Note_off_c, 1, 29, 100
3, 29184, Control_c, 1, 64, 127
3, 29184, Note_on_c, 1, 46, 110
3, 29184, Note_on_c, 1, 34, 110
3, 29372, Note_off_c, 1, 46, 100
3, 29372, Note_off_c, 1, 34, 100
3, 29376, Note_on_c, 1, 62, 110
3, 29376, Note_on_c, 1, 58, 110
3, 29376, Note_on_c, 1, 53, 110
3, 29564, Note_off_c, 1, 62, 100
3, 29564, Note_off_c, 1, 58, 100
3, 29564, Note_off_c, 1, 53, 100
3, 29568, Note_on_c, 1, 62, 110
3, 29568, Note_on_c, 1, 58, 110
3, 29568, Note_on_c, 1, 53, 110
3, 29756, Note_off_c, 1, 62, 100
3, 29756, Note_off_c, 1, 58, 100
3, 29756, Note_off_c, 1, 53, 100
3, 29760, Note_on_c, 1, 62, 110
3, 29760, Note_on_c, 1, 58, 110
3, 29760, Note_on_c, 1, 53, 110
3, 29948, Note_off_c, 1, 62, 100
3, 29948, Note_off_c, 1, 58, 100
3, 29948, Note_off_c, 1, 53, 100
3, 30144, Note_on_c, 1, 58, 110
3, 30144, Note_on_c, 1, 53, 110
3, 30144, Note_on_c, 1, 50, 110
3, 30332, Note_off_c, 1, 58, 100
3, 30332, Note_off_c, 1, 53, 100
3, 30332, Note_off_c, 1, 50, 100
3, 30336, Note_on_c, 1, 58, 110
3, 30336, Note_on_c, 1, 53, 110
3, 30336, Note_on_c, 1, 50, 110
3, 30524, Note_off_c, 1, 58, 100
3, 30524, Note_off_c, 1, 53, 100
3, 30524, Note_off_c, 1, 50, 100
3, 30528, Note_on_c, 1, 58, 110
3, 30528, Note_on_c, 1, 53, 110
3, 30528, Note_on_c, 1, 50, 110
3, 30712, Control_c, 1, 64, 0
3, 30716, Note_off_c, 1, 58, 100
3, 30716, Note_off_c, 1, 53, 100
3, 30716, Note_off_c, 1, 50, 100
3, 30912, Note_on_c, 1, 62, 80
3, 30912, Note_on_c, 1, 58, 80
3, 30912, Note_on_c, 1, 53, 80
3, 31100, Note_off_c, 1, 62, 100
3, 31100, Note_off_c, 1, 58, 100
3, 31100, Note_off_c, 1, 53, 100
3, 31296, Note_on_c, 1, 58, 80
3, 31296, Note_on_c, 1, 50, 80
3, 31484, Note_off_c, 1, 58, 100
3, 31484, Note_off_c, 1, 50, 100
3, 31680, Note_on_c, 1, 62, 80
3, 31680, Note_on_c, 1, 58, 80
3, 31680, Note_on_c, 1, 53, 80
3, 31868, Note_off_c, 1, 62, 100
3, 31868, Note_off_c, 1, 58, 100
3, 31868, Note_off_c, 1, 53, 100
3, 32064, Note_on_c, 1, 60, 80
3, 32064, Note_on_c, 1, 58, 80
3, 32064, Note_on_c, 1, 51, 80
3, 32252, Note_off_c, 1, 60, 100
3, 32252, Note_off_c, 1, 58, 100
3, 32252, Note_off_c, 1, 51, 100
3, 32256, Control_c, 1, 64, 127
3, 32256, Note_on_c, 1, 46, 110
3, 32256, Note_on_c, 1, 34, 110
3, 32444, Note_off_c, 1, 46, 100
3, 32444, Note_off_c, 1, 34, 100
3, 32448, Note_on_c, 1, 63, 110
3, 32448, Note_on_c, 1, 58, 110
3, 32448, Note_on_c, 1, 55, 110
3, 32636, Note_off_c, 1, 63, 100
3, 32636, Note_off_c, 1, 58, 100
3, 32636, Note_off_c, 1, 55, 100
3, 32640, Note_on_c, 1, 63, 110
3, 32640, Note_on_c, 1, 58, 110
3, 32640, Note_on_c, 1, 55, 110
3, 32828, Note_off_c, 1, 63, 100
3, 32828, Note_off_c, 1, 58, 100
3, 32828, Note_off_c, 1, 55, 100
3, 32832, Note_on_c, 1, 63, 110
3, 32832, Note_on_c, 1, 58, 110
3, 32832, Note_on_c, 1, 55, 110
3, 33020, Note_off_c, 1, 63, 100
3, 33020, Note_off_c, 1, 58, 100
3, 33020, Note_off_c, 1, 55, 100
3, 33216, Note_on_c, 1, 60, 110
3, 33216, Note_on_c, 1, 57, 110
3, 33216, Note_on_c, 1, 51, 110
3, 33404, Note_off_c, 1, 60, 100
3, 33404, Note_off_c, 1, 57, 100
3, 33404, Note_off_c, 1, 51, 100
3, 33408, Note_on_c, 1, 60, 110
3, 33408, Note_on_c, 1, 57, 110
3, 33408, Note_on_c, 1, 51, 110
3, 33596, Note_off_c, 1, 60, 100
3, 33596, Note_off_c, 1, 57, 100
3, 33596, Note_off_c, 1, 51, 100
3, 33600, Note_on_c, 1, 60, 110
3, 33600, Note_on_c, 1, 57, 110
3, 33600, Note_on_c, 1, 51, 110
3, 33784, Control_c, 1, 64, 0
3, 33788, Note_off_c, 1, 60, 100
3, 33788, Note_off_c, 1, 57, 100
3, 33788, Note_off_c, 1, 51, 100
3, 33984, Note_on_c, 1, 63, 80
3, 33984, Note_on_c, 1, 58, 80
3, 33984, Note_on_c, 1, 55, 80
3, 34172, Note_off_c, 1, 63, 100
3, 34172, Note_off_c, 1, 58, 100
3, 34172, Note_off_c, 1, 55, 100
3, 34368, Note_on_c, 1, 61, 80
3, 34368, Note_on_c, 1, 58, 80
3, 34368, Note_on_c, 1, 52, 80
3, 34556, Note_off_c, 1, 61, 100
3, 34556, Note_off_c, 1, 58, 100
3, 34556, Note_off_c, 1, 52, 100
3, 34752, Note_on_c, 1, 63, 80
3, 34752, Note_on_c, 1, 58, 80
3, 34752, Note_on_c, 1, 54, 80
3, 34940, Note_off_c, 1, 63, 100
3, 34940, Note_off_c, 1, 58, 100
3, 34940, Note_off_c, 1, 54, 100
3, 35136, Note_on_c, 1, 62, 80
3, 35136, Note_on_c, 1, 58, 80
3, 35136, Note_on_c, 1, 53, 80
3, 35324, Note_off_c, 1, 62, 100
3, 35324, Note_off_c, 1, 58, 100
3, 35324, Note_off_c, 1, 53, 100
3, 35328, Control_c, 1, 64, 127
3, 35328, Note_on_c, 1, 46, 110
3, 35328, Note_on_c, 1, 34, 110
3, 35516, Note_off_c, 1, 46, 100
3, 35516, Note_off_c, 1, 34, 100
3, 35520, Note_on_c, 1, 65, 110
3, 35520, Note_on_c, 1, 58, 110
3, 35520, Note_on_c, 1, 56, 110
3, 35708, Note_off_c, 1, 65, 100
3, 35708, Note_off_c, 1, 58, 100
3, 35708, Note_off_c, 1, 56, 100
3, 35712, Note_on_c, 1, 65, 110
3, 35712, Note_on_c, 1, 58, 110
3, 35712, Note_on_c, 1, 56, 110
3, 35900, Note_off_c, 1, 65, 100
3, 35900, Note_off_c, 1, 58, 100
3, 35900, Note_off_c, 1, 56, 100
3, 35904, Note_on_c, 1, 65, 110
3, 35904, Note_on_c, 1, 58, 110
3, 35904, Note_on_c, 1, 56, 110
3, 36092, Note_off_c, 1, 65, 100
3, 36092, Note_off_c, 1, 58, 100
3, 36092, Note_off_c, 1, 56, 100
3, 36288, Note_on_c, 1, 62, 110
3, 36288, Note_on_c, 1, 58, 110
3, 36288, Note_on_c, 1, 53, 110
3, 36476, Note_off_c, 1, 62, 100
3, 36476, Note_off_c, 1, 58, 100
3, 36476, Note_off_c, 1, 53, 100
3, 36480, Note_on_c, 1, 62, 110
3, 36480, Note_on_c, 1, 58, 110
3, 36480, Note_on_c, 1, 53, 110
3, 36668, Note_off_c, 1, 62, 100
3, 36668, Note_off_c, 1, 58, 100
3, 36668, Note_off_c, 1, 53, 100
3, 36672, Note_on_c, 1, 62, 110
3, 36672, Note_on_c, 1, 58, 110
3, 36672, Note_on_c, 1, 53, 110
3, 36856, Control_c, 1, 64, 0
3, 36860, Note_off_c, 1, 62, 100
3, 36860, Note_off_c, 1, 58, 100
3, 36860, Note_off_c, 1, 53, 100
3, 37056, Note_on_c, 1, 65, 80
3, 37056, Note_on_c, 1, 58, 80
3, 37056, Note_on_c, 1, 56, 80
3, 37244, Note_off_c, 1, 65, 100
3, 37244, Note_off_c, 1, 58, 100
3, 37244, Note_off_c, 1, 56, 100
3, 37440, Note_on_c, 1, 62, 80
3, 37440, Note_on_c, 1, 58, 80
3, 37440, Note_on_c, 1, 54, 80
3, 37628, Note_off_c, 1, 62, 100
3, 37628, Note_off_c, 1, 58, 100
3, 37628, Note_off_c, 1, 54, 100
3, 37824, Note_on_c, 1, 65, 80
3, 37824, Note_on_c, 1, 58, 80
3, 37824, Note_on_c, 1, 56, 80
3, 38012, Note_off_c, 1, 65, 100
3, 38012, Note_off_c, 1, 58, 100
3, 38012, Note_off_c, 1, 56, 100
3, 38208, Note_on_c, 1, 63, 80
3, 38208, Note_on_c, 1, 58, 80
3, 38208, Note_on_c, 1, 55, 80
3, 38396, Note_off_c, 1, 63, 100
3, 38396, Note_off_c, 1, 58, 100
3, 38396, Note_off_c, 1, 55, 100
3, 38400, Control_c, 1, 64, 127
3, 38400, Note_on_c, 1, 46, 110
3, 38400, Note_on_c, 1, 34, 110
3, 38588, Note_off_c, 1, 46, 100
3, 38588, Note_off_c, 1, 34, 100
3, 38592, Note_on_c, 1, 67, 110
3, 38592, Note_on_c, 1, 63, 110
3, 38592, Note_on_c, 1, 58, 110
3, 38780, Note_off_c, 1, 67, 100
3, 38780, Note_off_c, 1, 63, 100
3, 38780, Note_off_c, 1, 58, 100
3, 38784, Note_on_c, 1, 67, 110
3, 38784, Note_on_c, 1, 63, 110
3, 38784, Note_on_c, 1, 58, 110
3, 38972, Note_off_c, 1, 67, 100
3, 38972, Note_off_c, 1, 63, 100
3, 38972, Note_off_c, 1, 58, 100
3, 38976, Note_on_c, 1, 67, 110
3, 38976, Note_on_c, 1, 63, 110
3, 38976, Note_on_c, 1, 58, 110
3, 39164, Note_off_c, 1, 67, 100
3, 39164, Note_off_c, 1, 63, 100
3, 39164, Note_off_c, 1, 58, 100
3, 39360, Note_on_c, 1, 63, 110
3, 39360, Note_on_c, 1, 58, 110
3, 39360, Note_on_c, 1, 55, 110
3, 39548, Note_off_c, 1, 63, 100
3, 39548, Note_off_c, 1, 58, 100
3, 39548, Note_off_c, 1, 55, 100
3, 39552, Note_on_c, 1, 63, 110
3, 39552, Note_on_c, 1, 58, 110
3, 39552, Note_on_c, 1, 55, 110
3, 39740, Note_off_c, 1, 63, 100
3, 39740, Note_off_c, 1, 58, 100
3, 39740, Note_off_c, 1, 55, 100
3, 39744, Note_on_c, 1, 63, 110
3, 39744, Note_on_c, 1, 58, 110
3, 39744, Note_on_c, 1, 55, 110
3, 39928, Control_c, 1, 64, 0
3, 39932, Note_off_c, 1, 63, 100
3, 39932, Note_off_c, 1, 58, 100
3, 39932, Note_off_c, 1, 55, 100
3, 40128, Note_on_c, 1, 67, 81
3, 40128, Note_on_c, 1, 63, 81
3, 40128, Note_on_c, 1, 58, 81
3, 40316, Note_off_c, 1, 67, 100
3, 40316, Note_off_c, 1, 63, 100
3, 40316, Note_off_c, 1, 58, 100
3, 40512, Note_on_c, 1, 64, 83
3, 40512, Note_on_c, 1, 61, 83
3, 40512, Note_on_c, 1, 58, 83
3, 40700, Note_off_c, 1, 64, 100
3, 40700, Note_off_c, 1, 61, 100
3, 40700, Note_off_c, 1, 58, 100
3, 40896, Note_on_c, 1, 66, 86
3, 40896, Note_on_c, 1, 63, 86
3, 40896, Note_on_c, 1, 58, 86
3, 41084, Note_off_c, 1, 66, 100
3, 41084, Note_off_c, 1, 63, 100
3, 41084, Note_off_c, 1, 58, 100
3, 41280, Note_on_c, 1, 65, 89
3, 41280, Note_on_c, 1, 62, 89
3, 41280, Note_on_c, 1, 58, 89
3, 41468, Note_off_c, 1, 65, 100
3, 41468, Note_off_c, 1, 62, 100
3, 41468, Note_off_c, 1, 58, 100
3, 41664, Note_on_c, 1, 68, 91
3, 41664, Note_on_c, 1, 65, 91
3, 41664, Note_on_c, 1, 58, 91
3, 41852, Note_off_c, 1, 68, 100
3, 41852, Note_off_c, 1, 65, 100
3, 41852, Note_off_c, 1, 58, 100
3, 42048, Note_on_c, 1, 66, 94
3, 42048, Note_on_c, 1, 62, 94
3, 42048, Note_on_c, 1, 58, 94
3, 42236, Note_off_c, 1, 66, 100
3, 42236, Note_off_c, 1, 62, 100
3, 42236, Note_off_c, 1, 58, 100
3, 42432, Note_on_c, 1, 68, 96
3, 42432, Note_on_c, 1, 65, 96
3, 42432, Note_on_c, 1, 58, 96
3, 42620, Note_off_c, 1, 68, 100
3, 42620, Note_off_c, 1, 65, 100
3, 42620, Note_off_c, 1, 58, 100
3, 42816, Note_on_c, 1, 67, 99
3, 42816, Note_on_c, 1, 63, 99
3, 42816, Note_on_c, 1, 58, 99
3, 43004, Note_off_c, 1, 67, 100
3, 43004, Note_off_c, 1, 63, 100
3, 43004, Note_off_c, 1, 58, 100
3, 43200, Note_on_c, 1, 67, 102
3, 43200, Note_on_c, 1, 63, 102
3, 43200, Note_on_c, 1, 60, 102
3, 43200, Note_on_c, 1, 58, 102
3, 43388, Note_off_c, 1, 67, 100
3, 43388, Note_off_c, 1, 63, 100
3, 43388, Note_off_c, 1, 60, 100
3, 43388, Note_off_c, 1, 58, 100
3, 43584, Note_on_c, 1, 68, 104
3, 43584, Note_on_c, 1, 63, 104
3, 43584, Note_on_c, 1, 60, 104
3, 43584, Note_on_c, 1, 58, 104
3, 43772, Note_off_c, 1, 68, 100
3, 43772, Note_off_c, 1, 63, 100
3, 43772, Note_off_c, 1, 60, 100
3, 43772, Note_off_c, 1, 58, 100
3, 43968, Note_on_c, 1, 70, 107
3, 43968, Note_on_c, 1, 63, 107
3, 43968, Note_on_c, 1, 60, 107
3, 43968, Note_on_c, 1, 58, 107
3, 44156, Note_off_c, 1, 70, 100
3, 44156, Note_off_c, 1, 63, 100
3, 44156, Note_off_c, 1, 60, 100
3, 44156, Note_off_c, 1, 58, 100
3, 44352, Note_on_c, 1, 69, 109
3, 44352, Note_on_c, 1, 63, 109
3, 44352, Note_on_c, 1, 60, 109
3, 44352, Note_on_c, 1, 58, 109
3, 44540, Note_off_c, 1, 69, 100
3, 44540, Note_off_c, 1, 63, 100
3, 44540, Note_off_c, 1, 60, 100
3, 44540, Note_off_c, 1, 58, 100
3, 44736, Note_on_c, 1, 72, 110
3, 44736, Note_on_c, 1, 60, 110
3, 44924, Note_off_c, 1, 72, 100
3, 44924, Note_off_c, 1, 60, 100
3, 45120, Note_on_c, 1, 70, 110
3, 45120, Note_on_c, 1, 58, 110
3, 45308, Note_off_c, 1, 70, 100
3, 45308, Note_off_c, 1, 58, 100
3, 45504, Note_on_c, 1, 67, 110
3, 45504, Note_on_c, 1, 55, 110
3, 45692, Note_off_c, 1, 67, 100
3, 45692, Note_off_c, 1, 55, 100
3, 45888, Note_on_c, 1, 65, 110
3, 45888, Note_on_c, 1, 53, 110
3, 46076, Note_off_c, 1, 65, 100
3, 46076, Note_off_c, 1, 53, 100
3, 46272, Note_on_c, 1, 63, 110
3, 46272, Note_on_c, 1, 51, 110
3, 46460, Note_off_c, 1, 63, 100
3, 46460, Note_off_c, 1, 51, 100
3, 46656, Note_on_c, 1, 50, 110
3, 46656, Note_on_c, 1, 62, 110
3, 46844, Note_off_c, 1, 50, 100
3, 46844, Note_off_c, 1, 62, 100
3, 47040, Note_on_c, 1, 60, 110
3, 47040, Note_on_c, 1, 48, 110
3, 47228, Note_off_c, 1, 60, 100
3, 47228, Note_off_c, 1, 48, 100
3, 47424, Note_on_c, 1, 58, 110
3, 47424, Note_on_c, 1, 46, 110
3, 47612, Note_off_c, 1, 58, 100
3, 47612, Note_off_c, 1, 46, 100
3, 47808, Note_on_c, 1, 55, 110
3, 47808, Note_on_c, 1, 43, 110
3, 47996, Note_off_c, 1, 55, 100
3, 47996, Note_off_c, 1, 43, 100
3, 48192, Note_on_c, 1, 53, 110
3, 48192, Note_on_c, 1, 41, 110
3, 48380, Note_off_c, 1, 53, 100
3, 48380, Note_off_c, 1, 41, 100
3, 48576, Note_on_c, 1, 51, 110
3, 48576, Note_on_c, 1, 39, 110
3, 48764, Note_off_c, 1, 51, 100
3, 48764, Note_off_c, 1, 39, 100
3, 48960, Note_on_c, 1, 50, 110
3, 48960, Note_on_c, 1, 38, 110
3, 49148, Note_off_c, 1, 50, 100
3, 49148, Note_off_c, 1, 38, 100
3, 49344, Note_on_c, 1, 48, 110
3, 49344, Note_on_c, 1, 36, 110
3, 49532, Note_off_c, 1, 48, 100
3, 49532, Note_off_c, 1, 36, 100
3, 49728, Note_on_c, 1, 46, 110
3, 49728, Note_on_c, 1, 34, 110
3, 49916, Note_off_c, 1, 46, 100
3, 49916, Note_off_c, 1, 34, 100
3, 50112, Note_on_c, 1, 31, 110
3, 50112, Note_on_c, 1, 43, 110
3, 50300, Note_off_c, 1, 31, 100
3, 50300, Note_off_c, 1, 43, 100
3, 50496, Note_on_c, 1, 41, 110
3, 50496, Note_on_c, 1, 29, 110
3, 50684, Note_off_c, 1, 41, 100
3, 50684, Note_off_c, 1, 29, 100
3, 50688, Control_c, 1, 64, 127
3, 50880, Note_on_c, 1, 33, 109
3, 51264, Note_on_c, 1, 29, 106
3, 51644, Note_off_c, 1, 33, 100
3, 51648, Note_on_c, 1, 36, 104
3, 52028, Note_off_c, 1, 29, 100
3, 52032, Note_on_c, 1, 29, 101
3, 52412, Note_off_c, 1, 36, 100
3, 52416, Note_on_c, 1, 41, 98
3, 52796, Note_off_c, 1, 29, 100
3, 52800, Note_on_c, 1, 29, 95
3, 53180, Note_off_c, 1, 41, 100
3, 53184, Note_on_c, 1, 45, 93
3, 53564, Note_off_c, 1, 29, 100
3, 53568, Note_on_c, 1, 29, 90
3, 53948, Note_off_c, 1, 45, 100
3, 53952, Note_on_c, 1, 48, 87
3, 54332, Note_off_c, 1, 29, 100
3, 54336, Note_on_c, 1, 29, 84
3, 54716, Note_off_c, 1, 48, 100
3, 54720, Note_on_c, 1, 53, 82
3, 55100, Note_off_c, 1, 29, 100
3, 55104, Note_on_c, 1, 29, 79
3, 55484, Note_off_c, 1, 53, 100
3, 55488, Note_on_c, 1, 53, 76
3, 55868, Note_off_c, 1, 29, 100
3, 55872, Note_on_c, 1, 29, 73
3, 56252, Note_off_c, 1, 53, 100
3, 56256, Note_on_c, 1, 53, 71
3, 56440, Control_c, 1, 64, 0
3, 56636, Note_off_c, 1, 29, 100
3, 56640, Note_on_c, 1, 29, 110
3, 56828, Note_off_c, 1, 53, 100
3, 56828, Note_off_c, 1, 29, 100
3, 56832, Control_c, 1, 64, 127
3, 56832, Note_on_c, 1, 62, 110
3, 56832, Note_on_c, 1, 58, 110
3, 56832, Note_on_c, 1, 53, 110
3, 57404, Note_off_c, 1, 62, 100
3, 57404, Note_off_c, 1, 58, 100
3, 57404, Note_off_c, 1, 53, 100
3, 57408, Note_on_c, 1, 62, 110
3, 57408, Note_on_c, 1, 58, 110
3, 57408, Note_on_c, 1, 53, 110
3, 57596, Note_off_c, 1, 62, 100
3, 57596, Note_off_c, 1, 58, 100
3, 57596, Note_off_c, 1, 53, 100
3, 57600, Note_on_c, 1, 62, 110
3, 57600, Note_on_c, 1, 58, 110
3, 57600, Note_on_c, 1, 53, 110
3, 57980, Note_off_c, 1, 62, 100
3, 57980, Note_off_c, 1, 58, 100
3, 57980, Note_off_c, 1, 53, 100
3, 57984, Note_on_c, 1, 62, 110
3, 57984, Note_on_c, 1, 58, 110
3, 57984, Note_on_c, 1, 53, 110
3, 58172, Note_off_c, 1, 62, 100
3, 58172, Note_off_c, 1, 58, 100
3, 58172, Note_off_c, 1, 53, 100
3, 58176, Note_on_c, 1, 62, 110
3, 58176, Note_on_c, 1, 58, 110
3, 58176, Note_on_c, 1, 53, 110
3, 58364, Note_off_c, 1, 62, 100
3, 58364, Note_off_c, 1, 58, 100
3, 58364, Note_off_c, 1, 53, 100
3, 58368, Note_on_c, 1, 62, 110
3, 58368, Note_on_c, 1, 58, 110
3, 58368, Note_on_c, 1, 53, 110
3, 58748, Note_off_c, 1, 62, 100
3, 58748, Note_off_c, 1, 58, 100
3, 58748, Note_off_c, 1, 53, 100
3, 58752, Note_on_c, 1, 58, 110
3, 58752, Note_on_c, 1, 53, 110
3, 58752, Note_on_c, 1, 50, 110
3, 59132, Note_off_c, 1, 58, 100
3, 59132, Note_off_c, 1, 53, 100
3, 59132, Note_off_c, 1, 50, 100
3, 59712, Note_on_c, 1, 34, 110
3, 59900, Note_off_c, 1, 34, 100
3, 59904, Note_on_c, 1, 62, 110
3, 59904, Note_on_c, 1, 58, 110
3, 59904, Note_on_c, 1, 53, 110
3, 59904, Note_on_c, 1, 50, 110
3, 60472, Control_c, 1, 64, 0
3, 60476, Note_off_c, 1, 62, 100
3, 60476, Note_off_c, 1, 58, 100
3, 60476, Note_off_c, 1, 53, 100
3, 60476, Note_off_c, 1, 50, 100
3, 60480, Note_on_c, 1, 62, 110
3, 60480, Note_on_c, 1, 58, 110
3, 60480, Note_on_c, 1, 53, 110
3, 60480, Note_on_c, 1, 50, 110
3, 60668, Note_off_c, 1, 62, 100
3, 60668, Note_off_c, 1, 58, 100
3, 60668, Note_off_c, 1, 53, 100
3, 60668, Note_off_c, 1, 50, 100
3, 60672, Control_c, 1, 64, 127
3, 60672, Note_on_c, 1, 62, 110
3, 60672, Note_on_c, 1, 50, 110
3, 61052, Note_off_c, 1, 62, 100
3, 61052, Note_off_c, 1, 50, 100
3, 61056, Note_on_c, 1, 62, 110
3, 61056, Note_on_c, 1, 57, 110
3, 61056, Note_on_c, 1, 54, 110
3, 61056, Note_on_c, 1, 50, 110
3, 61244, Note_off_c, 1, 62, 100
3, 61244, Note_off_c, 1, 57, 100
3, 61244, Note_off_c, 1, 54, 100
3, 61244, Note_off_c, 1, 50, 100
3, 61248, Note_on_c, 1, 62, 110
3, 61248, Note_on_c, 1, 57, 110
3, 61248, Note_on_c, 1, 54, 110
3, 61248, Note_on_c, 1, 50, 110
3, 61436, Note_off_c, 1, 62, 100
3, 61436, Note_off_c, 1, 57, 100
3, 61436, Note_off_c, 1, 54, 100
3, 61436, Note_off_c, 1, 50, 100
3, 61440, Note_on_c, 1, 62, 110
3, 61440, Note_on_c, 1, 57, 110
3, 61440, Note_on_c, 1, 54, 110
3, 61440, Note_on_c, 1, 50, 110
3, 61820, Note_off_c, 1, 62, 100
3, 61820, Note_off_c, 1, 57, 100
3, 61820, Note_off_c, 1, 54, 100
3, 61820, Note_off_c, 1, 50, 100
3, 61824, Note_on_c, 1, 62, 110
3, 61824, Note_on_c, 1, 57, 110
3, 61824, Note_on_c, 1, 54, 110
3, 61824, Note_on_c, 1, 50, 110
3, 63740, Note_off_c, 1, 50, 100
3, 63740, Note_off_c, 1, 54, 100
3, 63740, Note_off_c, 1, 57, 100
3, 63740, Note_off_c, 1, 62, 100
3, 64120, Control_c, 1, 64, 0
3, 64320, Note_on_c, 1, 50, 80
3, 64508, Note_off_c, 1, 50, 100
3, 64512, Note_on_c, 1, 62, 80
3, 65084, Note_off_c, 1, 62, 100
3, 65088, Note_on_c, 1, 50, 80
3, 65276, Note_off_c, 1, 50, 100
3, 65280, Note_on_c, 1, 62, 80
3, 65852, Note_off_c, 1, 62, 100
3, 65856, Note_on_c, 1, 50, 80
3, 66044, Note_off_c, 1, 50, 100
3, 66048, Note_on_c, 1, 62, 80
3, 66620, Note_off_c, 1, 62, 100
3, 66624, Note_on_c, 1, 50, 80
3, 66812, Note_off_c, 1, 50, 100
3, 66816, Note_on_c, 1, 62, 80
3, 67388, Note_off_c, 1, 62, 100
3, 67392, Note_on_c, 1, 50, 80
3, 67580, Note_off_c, 1, 50, 100
3, 67584, Note_on_c, 1, 60, 80
3, 67584, Note_on_c, 1, 57, 80
3, 68156, Note_off_c, 1, 60, 100
3, 68156, Note_off_c, 1, 57, 100
3, 68160, Note_on_c, 1, 50, 83
3, 68348, Note_off_c, 1, 50, 100
3, 68352, Note_on_c, 1, 60, 84
3, 68352, Note_on_c, 1, 57, 84
3, 68924, Note_off_c, 1, 60, 100
3, 68924, Note_off_c, 1, 57, 100
3, 68928, Note_on_c, 1, 50, 87
3, 69116, Note_off_c, 1, 50, 100
3, 69120, Note_on_c, 1, 57, 88
3, 69120, Note_on_c, 1, 54, 88
3, 69692, Note_off_c, 1, 57, 100
3, 69692, Note_off_c, 1, 54, 100
3, 69696, Note_on_c, 1, 50, 91
3, 69884, Note_off_c, 1, 50, 100
3, 69888, Note_on_c, 1, 45, 92
3, 70460, Note_off_c, 1, 45, 100
3, 70464, Note_on_c, 1, 50, 96
3, 70652, Note_off_c, 1, 50, 100
3, 70656, Note_on_c, 1, 45, 97
3, 71228, Note_off_c, 1, 45, 100
3, 71232, Note_on_c, 1, 50, 100
3, 71420, Note_off_c, 1, 50, 100
3, 71424, Note_on_c, 1, 43, 101
3, 71996, Note_off_c, 1, 43, 100
3, 72000, Note_on_c, 1, 50, 104
3, 72188, Note_off_c, 1, 50, 100
3, 72192, Note_on_c, 1, 41, 105
3, 72764, Note_off_c, 1, 41, 100
3, 72768, Note_on_c, 1, 50, 108
3, 72956, Note_off_c, 1, 50, 100
3, 72960, Note_on_c, 1, 39, 109
3, 73532, Note_off_c, 1, 39, 100
3, 73536, Note_on_c, 1, 50, 110
3, 73724, Note_off_c, 1, 50, 100
3, 73728, Key_signature, 1, "major"
3, 73728, Note_on_c, 1, 50, 110
3, 73728, Note_on_c, 1, 38, 110
3, 74108, Note_off_c, 1, 50, 100
3, 74108, Note_off_c, 1, 38, 100
3, 74112, Note_on_c, 1, 75, 110
3, 74300, Note_off_c, 1, 75, 100
3, 74304, Note_on_c, 1, 74, 108
3, 74492, Note_off_c, 1, 74, 100
3, 74496, Note_on_c, 1, 75, 106
3, 74876, Note_off_c, 1, 75, 100
3, 74880, Note_on_c, 1, 74, 101
3, 75068, Note_off_c, 1, 74, 100
3, 75072, Note_on_c, 1, 73, 99
3, 75260, Note_off_c, 1, 73, 100
3, 75264, Note_on_c, 1, 74, 97
3, 75644, Note_off_c, 1, 74, 100
3, 75648, Note_on_c, 1, 63, 92
3, 75836, Note_off_c, 1, 63, 100
3, 75840, Note_on_c, 1, 62, 90
3, 76028, Note_off_c, 1, 62, 100
3, 76032, Note_on_c, 1, 63, 87
3, 76412, Note_off_c, 1, 63, 100
3, 76416, Note_on_c, 1, 62, 83
3, 76604, Note_off_c, 1, 62, 100
3, 76608, Note_on_c, 1, 61, 81
3, 76796, Note_off_c, 1, 61, 100
3, 76800, Note_on_c, 1, 62, 80
3, 77180, Note_off_c, 1, 62, 100
3, 77376, Note_on_c, 1, 50, 80
3, 77564, Note_off_c, 1, 50, 100
3, 77568, Note_on_c, 1, 54, 80
3, 77948, Note_off_c, 1, 54, 100
3, 78144, Note_on_c, 1, 57, 80
3, 78332, Note_off_c, 1, 57, 100
3, 78336, Note_on_c, 1, 60, 80
3, 78716, Note_off_c, 1, 60, 100
3, 78912, Note_on_c, 1, 66, 80
3, 79100, Note_off_c, 1, 66, 100
3, 79104, Note_on_c, 1, 69, 80
3, 79484, Note_off_c, 1, 69, 100
3, 79488, Note_on_c, 1, 72, 80
3, 79676, Note_off_c, 1, 72, 100
3, 79680, Note_on_c, 1, 69, 80
3, 79868, Note_off_c, 1, 69, 100
3, 79872, Note_on_c, 1, 81, 80
3, 80060, Note_off_c, 1, 81, 100
3, 80064, Note_on_c, 1, 83, 80
3, 80252, Note_off_c, 1, 83, 100
3, 80256, Note_on_c, 1, 84, 80
3, 80444, Note_off_c, 1, 84, 100
3, 80448, Note_on_c, 1, 81, 80
3, 80636, Note_off_c, 1, 81, 100
3, 80640, Note_on_c, 1, 72, 80
3, 80828, Note_off_c, 1, 72, 100
3, 80832, Note_on_c, 1, 74, 80
3, 81020, Note_off_c, 1, 74, 100
3, 81024, Note_on_c, 1, 76, 80
3, 81212, Note_off_c, 1, 76, 100
3, 81216, Note_on_c, 1, 72, 80
3, 81404, Note_off_c, 1, 72, 100
3, 81408, Note_on_c, 1, 69, 80
3, 81596, Note_off_c, 1, 69, 100
3, 81600, Note_on_c, 1, 71, 80
3, 81788, Note_off_c, 1, 71, 100
3, 81792, Note_on_c, 1, 72, 80
3, 81980, Note_off_c, 1, 72, 100
3, 81984, Note_on_c, 1, 69, 80
3, 82172, Note_off_c, 1, 69, 100
3, 82176, Note_on_c, 1, 66, 80
3, 82364, Note_off_c, 1, 66, 100
3, 82368, Note_on_c, 1, 67, 80
3, 82556, Note_off_c, 1, 67, 100
3, 82560, Note_on_c, 1, 69, 80
3, 82748, Note_off_c, 1, 69, 100
3, 82752, Note_on_c, 1, 66, 80
3, 82940, Note_off_c, 1, 66, 100
3, 82944, Note_on_c, 1, 71, 80
3, 82944, Note_on_c, 1, 67, 80
3, 82944, Note_on_c, 1, 62, 80
3, 83324, Note_off_c, 1, 71, 100
3, 83324, Note_off_c, 1, 67, 100
3, 83324, Note_off_c, 1, 62, 100
3, 83520, Note_on_c, 1, 50, 80
3, 83708, Note_off_c, 1, 50, 100
3, 83712, Note_on_c, 1, 55, 80
3, 84092, Note_off_c, 1, 55, 100
3, 84288, Note_on_c, 1, 59, 80
3, 84476, Note_off_c, 1, 59, 100
3, 84480, Note_on_c, 1, 62, 80
3, 84860, Note_off_c, 1, 62, 100
3, 85056, Note_on_c, 1, 67, 80
3, 85244, Note_off_c, 1, 67, 100
3, 85248, Note_on_c, 1, 71, 80
3, 85628, Note_off_c, 1, 71, 100
3, 85824, Note_on_c, 1, 74, 80
3, 86012, Note_off_c, 1, 74, 100
3, 86016, Note_on_c, 1, 79, 80
3, 86204, Note_off_c, 1, 79, 100
3, 86208, Note_on_c, 1, 81, 80
3, 86396, Note_off_c, 1, 81, 100
3, 86400, Note_on_c, 1, 83, 80
3, 86588, Note_off_c, 1, 83, 100
3, 86592, Note_on_c, 1, 79, 80
3, 86780, Note_off_c, 1, 79, 100
3, 86784, Note_on_c, 1, 71, 80
3, 86972, Note_off_c, 1, 71, 100
3, 86976, Note_on_c, 1, 72, 80
3, 87164, Note_off_c, 1, 72, 100
3, 87168, Note_on_c, 1, 74, 80
3, 87356, Note_off_c, 1, 74, 100
3, 87360, Note_on_c, 1, 71, 80
3, 87548, Note_off_c, 1, 71, 100
3, 87552, Note_on_c, 1, 67, 80
3, 87740, Note_off_c, 1, 67, 100
3, 87744, Note_on_c, 1, 69, 80
3, 87932, Note_off_c, 1, 69, 100
3, 87936, Note_on_c, 1, 71, 80
3, 88124, Note_off_c, 1, 71, 100
3, 88128, Note_on_c, 1, 67, 80
3, 88316, Note_off_c, 1, 67, 100
3, 88320, Note_on_c, 1, 71, 80
3, 88508, Note_off_c, 1, 71, 100
3, 88512, Note_on_c, 1, 72, 80
3, 88700, Note_off_c, 1, 72, 100
3, 88704, Note_on_c, 1, 74, 80
3, 88892, Note_off_c, 1, 74, 100
3, 88896, Note_on_c, 1, 71, 80
3, 89084, Note_off_c, 1, 71, 100
3, 89088, Note_on_c, 1, 72, 80
3, 89276, Note_off_c, 1, 72, 100
3, 89280, Note_on_c, 1, 74, 80
3, 89468, Note_off_c, 1, 74, 100
3, 89472, Note_on_c, 1, 72, 80
3, 89660, Note_off_c, 1, 72, 100
3, 89664, Note_on_c, 1, 71, 80
3, 89852, Note_off_c, 1, 71, 100
3, 89856, Note_on_c, 1, 72, 80
3, 90044, Note_off_c, 1, 72, 100
3, 90048, Note_on_c, 1, 74, 80
3, 90236, Note_off_c, 1, 74, 100
3, 90240, Note_on_c, 1, 76, 80
3, 90428, Note_off_c, 1, 76, 100
3, 90432, Note_on_c, 1, 72, 80
3, 90620, Note_off_c, 1, 72, 100
3, 90624, Note_on_c, 1, 69, 80
3, 90812, Note_off_c, 1, 69, 100
3, 90816, Note_on_c, 1, 71, 80
3, 91004, Note_off_c, 1, 71, 100
3, 91008, Note_on_c, 1, 72, 80
3, 91196, Note_off_c, 1, 72, 100
3, 91200, Note_on_c, 1, 69, 80
3, 91388, Note_off_c, 1, 69, 100
3, 91392, Note_on_c, 1, 66, 80
3, 91580, Note_off_c, 1, 66, 100
3, 91584, Note_on_c, 1, 67, 80
3, 91772, Note_off_c, 1, 67, 100
3, 91776, Note_on_c, 1, 69, 80
3, 91964, Note_off_c, 1, 69, 100
3, 91968, Note_on_c, 1, 66, 80
3, 92156, Note_off_c, 1, 66, 100
3, 92160, Note_on_c, 1, 60, 80
3, 92348, Note_off_c, 1, 60, 100
3, 92352, Note_on_c, 1, 62, 80
3, 92540, Note_off_c, 1, 62, 100
3, 92544, Note_on_c, 1, 64, 80
3, 92732, Note_off_c, 1, 64, 100
3, 92736, Note_on_c, 1, 60, 80
3, 92924, Note_off_c, 1, 60, 100
3, 92928, Note_on_c, 1, 57, 80
3, 93116, Note_off_c, 1, 57, 100
3, 93120, Note_on_c, 1, 59, 80
3, 93308, Note_off_c, 1, 59, 100
3, 93312, Note_on_c, 1, 60, 80
3, 93500, Note_off_c, 1, 60, 100
3, 93504, Note_on_c, 1, 57, 80
3, 93692, Note_off_c, 1, 57, 100
3, 93696, Note_on_c, 1, 54, 80
3, 93884, Note_off_c, 1, 54, 100
3, 93888, Note_on_c, 1, 55, 80
3, 94076, Note_off_c, 1, 55, 100
3, 94080, Note_on_c, 1, 57, 80
3, 94268, Note_off_c, 1, 57, 100
3, 94272, Note_on_c, 1, 54, 80
3, 94460, Note_off_c, 1, 54, 100
3, 94464, Note_on_c, 1, 69, 80
3, 94652, Note_off_c, 1, 69, 100
3, 94656, Note_on_c, 1, 67, 80
3, 94844, Note_off_c, 1, 67, 100
3, 94848, Note_on_c, 1, 66, 80
3, 95036, Note_off_c, 1, 66, 100
3, 95040, Note_on_c, 1, 69, 80
3, 95228, Note_off_c, 1, 69, 100
3, 95232, Note_on_c, 1, 71, 80
3, 95420, Note_off_c, 1, 71, 100
3, 95424, Note_on_c, 1, 72, 80
3, 95612, Note_off_c, 1, 72, 100
3, 95616, Note_on_c, 1, 71, 80
3, 95804, Note_off_c, 1, 71, 100
3, 95808, Note_on_c, 1, 69, 80
3, 95996, Note_off_c, 1, 69, 100
3, 96000, Note_on_c, 1, 71, 80
3, 96188, Note_off_c, 1, 71, 100
3, 96192, Note_on_c, 1, 72, 80
3, 96380, Note_off_c, 1, 72, 100
3, 96384, Note_on_c, 1, 74, 80
3, 96572, Note_off_c, 1, 74, 100
3, 96576, Note_on_c, 1, 71, 80
3, 96764, Note_off_c, 1, 71, 100
3, 96768, Note_on_c, 1, 67, 80
3, 96956, Note_off_c, 1, 67, 100
3, 96960, Note_on_c, 1, 69, 80
3, 97148, Note_off_c, 1, 69, 100
3, 97152, Note_on_c, 1, 71, 80
3, 97340, Note_off_c, 1, 71, 100
3, 97344, Note_on_c, 1, 67, 80
3, 97532, Note_off_c, 1, 67, 100
3, 97536, Note_on_c, 1, 62, 80
3, 97724, Note_off_c, 1, 62, 100
3, 97728, Note_on_c, 1, 66, 80
3, 97916, Note_off_c, 1, 66, 100
3, 97920, Note_on_c, 1, 67, 80
3, 98108, Note_off_c, 1, 67, 100
3, 98112, Note_on_c, 1, 62, 80
3, 98300, Note_off_c, 1, 62, 100
3, 98304, Note_on_c, 1, 59, 80
3, 98492, Note_off_c, 1, 59, 100
3, 98496, Note_on_c, 1, 60, 80
3, 98684, Note_off_c, 1, 60, 100
3, 98688, Note_on_c, 1, 62, 80
3, 98876, Note_off_c, 1, 62, 100
3, 98880, Note_on_c, 1, 59, 80
3, 99068, Note_off_c, 1, 59, 100
3, 99072, Note_on_c, 1, 55, 80
3, 99260, Note_off_c, 1, 55, 100
3, 99264, Note_on_c, 1, 57, 80
3, 99452, Note_off_c, 1, 57, 100
3, 99456, Note_on_c, 1, 59, 80
3, 99644, Note_off_c, 1, 59, 100
3, 99648, Note_on_c, 1, 55, 80
3, 99836, Note_off_c, 1, 55, 100
3, 99840, Note_on_c, 1, 50, 80
3, 100028, Note_off_c, 1, 50, 100
3, 100032, Note_on_c, 1, 54, 80
3, 100220, Note_off_c, 1, 54, 100
3, 100224, Note_on_c, 1, 55, 80
3, 100412, Note_off_c, 1, 55, 100
3, 100416, Note_on_c, 1, 50, 80
3, 100604, Note_off_c, 1, 50, 100
3, 100608, Note_on_c, 1, 48, 80
3, 100796, Note_off_c, 1, 48, 100
3, 100800, Note_on_c, 1, 55, 80
3, 100988, Note_off_c, 1, 55, 100
3, 100992, Note_on_c, 1, 50, 80
3, 101180, Note_off_c, 1, 50, 100
3, 101184, Note_on_c, 1, 48, 80
3, 101372, Note_off_c, 1, 48, 100
3, 101376, Note_on_c, 1, 47, 80
3, 101756, Note_off_c, 1, 47, 100
3, 101760, Note_on_c, 1, 55, 80
3, 101760, Note_on_c, 1, 43, 80
3, 102140, Note_off_c, 1, 55, 100
3, 102140, Note_off_c, 1, 43, 100
3, 102144, Note_on_c, 1, 52, 80
3, 102144, Note_on_c, 1, 48, 80
3, 102332, Note_off_c, 1, 52, 100
3, 102332, Note_off_c, 1, 48, 100
3, 102528, Note_on_c, 1, 60, 80
3, 102716, Note_off_c, 1, 60, 100
3, 102720, Note_on_c, 1, 57, 80
3, 102908, Note_off_c, 1, 57, 100
3, 102912, Note_on_c, 1, 54, 80
3, 103292, Note_off_c, 1, 54, 100
3, 103296, Note_on_c, 1, 62, 80
3, 103296, Note_on_c, 1, 50, 80
3, 103676, Note_off_c, 1, 62, 100
3, 103676, Note_off_c, 1, 50, 100
3, 103680, Note_on_c, 1, 59, 80
3, 103680, Note_on_c, 1, 55, 80
3, 103868, Note_off_c, 1, 59, 100
3, 103868, Note_off_c, 1, 55, 100
3, 104064, Note_on_c, 1, 55, 80
3, 104064, Note_on_c, 1, 64, 80
3, 104828, Note_off_c, 1, 55, 100
3, 104828, Note_off_c, 1, 64, 100
3, 104832, Note_on_c, 1, 64, 80
3, 104832, Note_on_c, 1, 55, 80
3, 105212, Note_off_c, 1, 64, 100
3, 105212, Note_off_c, 1, 55, 100
3, 105216, Note_on_c, 1, 66, 80
3, 105216, Note_on_c, 1, 57, 80
3, 105596, Note_off_c, 1, 66, 100
3, 105596, Note_off_c, 1, 57, 100
3, 105600, Note_on_c, 1, 57, 80
3, 105600, Note_on_c, 1, 67, 80
3, 105788, Note_off_c, 1, 67, 100
3, 105792, Note_on_c, 1, 69, 80
3, 105980, Note_off_c, 1, 57, 100
3, 105980, Note_off_c, 1, 69, 100
3, 105984, Note_on_c, 1, 69, 80
3, 105984, Note_on_c, 1, 62, 80
3, 106364, Note_off_c, 1, 69, 100
3, 106368, Note_on_c, 1, 71, 80
3, 106652, Note_off_c, 1, 71, 100
3, 106656, Note_on_c, 1, 73, 80
3, 106748, Note_off_c, 1, 73, 100
3, 106752, Note_on_c, 1, 74, 80
3, 107132, Note_off_c, 1, 62, 100
3, 107132, Note_off_c, 1, 74, 100
3, 107136, Note_on_c, 1, 76, 80
3, 107324, Note_off_c, 1, 76, 100
3, 107328, Note_on_c, 1, 78, 80
3, 107516, Note_off_c, 1, 78, 100
3, 107520, Note_on_c, 1, 79, 80
3, 107900, Note_off_c, 1, 79, 100
3, 107904, Note_on_c, 1, 74, 80
3, 107904, Note_on_c, 1, 71, 80
3, 108284, Note_off_c, 1, 74, 100
3, 108284, Note_off_c, 1, 71, 100
3, 108288, Note_on_c, 1, 76, 80
3, 108288, Note_on_c, 1, 72, 80
3, 108476, Note_off_c, 1, 76, 100
3, 108476, Note_off_c, 1, 72, 100
3, 108672, Note_on_c, 1, 69, 80
3, 108860, Note_off_c, 1, 69, 100
3, 108864, Note_on_c, 1, 72, 80
3, 109052, Note_off_c, 1, 72, 100
3, 109056, Note_on_c, 1, 74, 80
3, 109436, Note_off_c, 1, 74, 100
3, 109440, Note_on_c, 1, 69, 80
3, 109440, Note_on_c, 1, 66, 80
3, 109820, Note_off_c, 1, 69, 100
3, 109820, Note_off_c, 1, 66, 100
3, 109824, Note_on_c, 1, 71, 80
3, 109824, Note_on_c, 1, 67, 80
3, 110012, Note_off_c, 1, 71, 100
3, 110012, Note_off_c, 1, 67, 100
3, 110592, Note_on_c, 1, 71, 80
3, 110592, Note_on_c, 1, 67, 80
3, 110592, Note_on_c, 1, 64, 80
3, 110972, Note_off_c, 1, 71, 100
3, 110972, Note_off_c, 1, 67, 100
3, 110972, Note_off_c, 1, 64, 100
3, 110976, Note_on_c, 1, 72, 80
3, 110976, Note_on_c, 1, 67, 80
3, 110976, Note_on_c, 1, 64, 80
3, 111356, Note_off_c, 1, 72, 100
3, 111356, Note_off_c, 1, 67, 100
3, 111356, Note_off_c, 1, 64, 100
3, 111360, Note_on_c, 1, 72, 80
3, 111360, Note_on_c, 1, 64, 80
3, 111360, Note_on_c, 1, 67, 80
3, 111548, Note_off_c, 1, 67, 100
3, 111552, Note_on_c, 1, 69, 80
3, 111740, Note_off_c, 1, 72, 100
3, 111740, Note_off_c, 1, 64, 100
3, 111740, Note_off_c, 1, 69, 100
3, 111744, Note_on_c, 1, 71, 80
3, 111744, Note_on_c, 1, 66, 80
3, 111744, Note_on_c, 1, 63, 80
3, 112124, Note_off_c, 1, 71, 100
3, 112124, Note_off_c, 1, 66, 100
3, 112124, Note_off_c, 1, 63, 100
3, 112128, Note_on_c, 1, 71, 80
3, 112128, Note_on_c, 1, 66, 80
3, 112128, Note_on_c, 1, 63, 80
3, 112508, Note_off_c, 1, 71, 100
3, 112508, Note_off_c, 1, 66, 100
3, 112508, Note_off_c, 1, 63, 100
3, 112512, Note_on_c, 1, 63, 80
3, 112512, Note_on_c, 1, 59, 80
3, 112892, Note_off_c, 1, 63, 100
3, 112892, Note_off_c, 1, 59, 100
3, 112896, Note_on_c, 1, 67, 80
3, 112896, Note_on_c, 1, 64, 80
3, 113276, Note_off_c, 1, 67, 100
3, 113276, Note_off_c, 1, 64, 100
3, 113280, Note_on_c, 1, 65, 80
3, 113280, Note_on_c, 1, 62, 80
3, 113468, Note_off_c, 1, 65, 100
3, 113468, Note_off_c, 1, 62, 100
3, 113472, Note_on_c, 1, 64, 80
3, 113472, Note_on_c, 1, 61, 80
3, 113660, Note_off_c, 1, 64, 100
3, 113660, Note_off_c, 1, 61, 100
3, 113664, Note_on_c, 1, 64, 80
3, 113664, Note_on_c, 1, 61, 80
3, 114044, Note_off_c, 1, 64, 100
3, 114044, Note_off_c, 1, 61, 100
3, 114048, Note_on_c, 1, 61, 80
3, 114048, Note_on_c, 1, 57, 80
3, 114428, Note_off_c, 1, 61, 100
3, 114428, Note_off_c, 1, 57, 100
3, 114432, Note_on_c, 1, 65, 80
3, 114432, Note_on_c, 1, 62, 80
3, 114812, Note_off_c, 1, 65, 100
3, 114812, Note_off_c, 1, 62, 100
3, 114816, Note_on_c, 1, 63, 80
3, 114816, Note_on_c, 1, 60, 80
3, 115004, Note_off_c, 1, 63, 100
3, 115004, Note_off_c, 1, 60, 100
3, 115008, Note_on_c, 1, 62, 80
3, 115008, Note_on_c, 1, 59, 80
3, 115196, Note_off_c, 1, 62, 100
3, 115196, Note_off_c, 1, 59, 100
3, 115200, Note_on_c, 1, 62, 80
3, 115200, Note_on_c, 1, 59, 80
3, 115580, Note_off_c, 1, 62, 100
3, 115580, Note_off_c, 1, 59, 100
3, 115584, Note_on_c, 1, 59, 80
3, 115584, Note_on_c, 1, 55, 80
3, 115964, Note_off_c, 1, 59, 100
3, 115964, Note_off_c, 1, 55, 100
3, 115968, Note_on_c, 1, 64, 80
3, 115968, Note_on_c, 1, 60, 80
3, 116348, Note_off_c, 1, 64, 100
3, 116348, Note_off_c, 1, 60, 100
3, 116352, Note_on_c, 1, 62, 80
3, 116352, Note_on_c, 1, 59, 80
3, 116540, Note_off_c, 1, 62, 100
3, 116540, Note_off_c, 1, 59, 100
3, 116544, Note_on_c, 1, 61, 80
3, 116544, Note_on_c, 1, 58, 80
3, 116732, Note_off_c, 1, 61, 100
3, 116732, Note_off_c, 1, 58, 100
3, 116736, Note_on_c, 1, 58, 80
3, 116736, Note_on_c, 1, 61, 80
3, 117116, Note_off_c, 1, 58, 100
3, 117116, Note_off_c, 1, 61, 100
3, 117120, Note_on_c, 1, 58, 80
3, 117120, Note_on_c, 1, 54, 80
3, 117500, Note_off_c, 1, 58, 100
3, 117500, Note_off_c, 1, 54, 100
3, 117504, Note_on_c, 1, 62, 80
3, 117504, Note_on_c, 1, 59, 80
3, 117884, Note_off_c, 1, 62, 100
3, 117884, Note_off_c, 1, 59, 100
3, 117888, Note_on_c, 1, 60, 80
3, 117888, Note_on_c, 1, 57, 80
3, 118076, Note_off_c, 1, 60, 100
3, 118076, Note_off_c, 1, 57, 100
3, 118080, Note_on_c, 1, 59, 80
3, 118080, Note_on_c, 1, 56, 80
3, 118652, Note_off_c, 1, 56, 100
3, 118652, Note_off_c, 1, 59, 100
3, 118656, Note_on_c, 1, 64, 80
3, 118656, Note_on_c, 1, 57, 80
3, 118844, Note_off_c, 1, 57, 100
3, 118848, Note_on_c, 1, 55, 80
3, 119036, Note_off_c, 1, 64, 100
3, 119036, Note_off_c, 1, 55, 100
3, 119040, Note_on_c, 1, 57, 80
3, 119040, Note_on_c, 1, 54, 80
3, 119420, Note_off_c, 1, 57, 100
3, 119420, Note_off_c, 1, 54, 100
3, 119424, Note_on_c, 1, 59, 80
3, 119424, Note_on_c, 1, 55, 80
3, 119612, Note_off_c, 1, 55, 100
3, 119616, Note_on_c, 1, 47, 80
3, 119804, Note_off_c, 1, 59, 100
3, 119804, Note_off_c, 1, 47, 100
3, 119808, Note_on_c, 1, 60, 80
3, 119808, Note_on_c, 1, 45, 80
3, 119808, Note_on_c, 1, 50, 80
3, 122108, Note_off_c, 1, 45, 100
3, 122108, Note_off_c, 1, 50, 100
3, 122108, Note_off_c, 1, 60, 100
3, 122112, Note_on_c, 1, 59, 80
3, 122112, Note_on_c, 1, 50, 80
3, 122112, Note_on_c, 1, 47, 80
3, 122876, Note_off_c, 1, 59, 100
3, 122876, Note_off_c, 1, 50, 100
3, 122876, Note_off_c, 1, 47, 100
3, 122880, Note_on_c, 1, 60, 80
3, 122880, Note_on_c, 1, 45, 80
3, 122880, Note_on_c, 1, 50, 80
3, 125180, Note_off_c, 1, 45, 100
3, 125180, Note_off_c, 1, 50, 100
3, 125180, Note_off_c, 1, 60, 100
3, 125184, Note_on_c, 1, 59, 80
3, 125184, Note_on_c, 1, 50, 80
3, 125184, Note_on_c, 1, 47, 80
3, 125948, Note_off_c, 1, 59, 100
3, 125948, Note_off_c, 1, 50, 100
3, 125948, Note_off_c, 1, 47, 100
3, 125952, Note_on_c, 1, 47, 80
3, 125952, Note_on_c, 1, 35, 80
3, 126716, Note_off_c, 1, 47, 100
3, 126716, Note_off_c, 1, 35, 100
3, 126720, Note_on_c, 1, 52, 80
3, 126720, Note_on_c, 1, 40, 80
3, 127484, Note_off_c, 1, 52, 100
3, 127484, Note_off_c, 1, 40, 100
3, 127488, Note_on_c, 1, 49, 80
3, 127488, Note_on_c, 1, 37, 80
3, 128252, Note_off_c, 1, 49, 100
3, 128252, Note_off_c, 1, 37, 100
3, 128256, Note_on_c, 1, 50, 80
3, 128256, Note_on_c, 1, 38, 80
3, 128636, Note_off_c, 1, 50, 100
3, 128636, Note_off_c, 1, 38, 100
3, 129024, Note_on_c, 1, 72, 80
3, 129024, Note_on_c, 1, 57, 80
3, 129024, Note_on_c, 1, 62, 80
3, 131324, Note_off_c, 1, 57, 100
3, 131324, Note_off_c, 1, 62, 100
3, 131324, Note_off_c, 1, 72, 100
3, 131328, Note_on_c, 1, 71, 80
3, 131328, Note_on_c, 1, 62, 80
3, 131328, Note_on_c, 1, 59, 80
3, 132092, Note_off_c, 1, 71, 100
3, 132092, Note_off_c, 1, 62, 100
3, 132092, Note_off_c, 1, 59, 100
3, 132096, Note_on_c, 1, 60, 80
3, 132096, Note_on_c, 1, 50, 80
3, 132096, Note_on_c, 1, 45, 80
3, 134396, Note_off_c, 1, 45, 100
3, 134396, Note_off_c, 1, 50, 100
3, 134396, Note_off_c, 1, 60, 100
3, 134400, Note_on_c, 1, 59, 80
3, 134400, Note_on_c, 1, 50, 80
3, 134400, Note_on_c, 1, 47, 80
3, 134780, Note_off_c, 1, 59, 100
3, 134780, Note_off_c, 1, 50, 100
3, 134780, Note_off_c, 1, 47, 100
3, 134784, Note_on_c, 1, 59, 80
3, 135164, Note_off_c, 1, 59, 100
3, 135168, Note_on_c, 1, 59, 80
3, 135932, Note_off_c, 1, 59, 100
3, 135936, Note_on_c, 1, 64, 80
3, 136700, Note_off_c, 1, 64, 100
3, 136704, Note_on_c, 1, 61, 80
3, 137468, Note_off_c, 1, 61, 100
3, 137472, Note_on_c, 1, 62, 80
3, 137852, Note_off_c, 1, 62, 100
3, 137856, Note_on_c, 1, 63, 80
3, 138236, Note_off_c, 1, 63, 100
3, 138240, Note_on_c, 1, 65, 80
3, 139004, Note_off_c, 1, 65, 100
3, 139008, Note_on_c, 1, 69, 83
3, 139772, Note_off_c, 1, 69, 100
3, 139776, Note_on_c, 1, 66, 87
3, 140540, Note_off_c, 1, 66, 100
3, 140544, Note_on_c, 1, 67, 91
3, 140924, Note_off_c, 1, 67, 100
3, 140928, Note_on_c, 1, 68, 93
3, 141308, Note_off_c, 1, 68, 100
3, 141312, Note_on_c, 1, 69, 94
3, 142076, Note_off_c, 1, 69, 100
3, 142080, Note_on_c, 1, 73, 98
3, 142844, Note_off_c, 1, 73, 100
3, 142848, Note_on_c, 1, 71, 102
3, 143612, Note_off_c, 1, 71, 100
3, 143616, Note_on_c, 1, 72, 106
3, 143616, Note_on_c, 1, 60, 106
3, 144764, Note_off_c, 1, 60, 100
3, 144764, Note_off_c, 1, 72, 100
3, 144768, Note_on_c, 1, 48, 120
3, 144768, Note_on_c, 1, 36, 120
3, 145148, Note_off_c, 1, 48, 100
3, 145148, Note_off_c, 1, 36, 100
3, 146304, Note_on_c, 1, 64, 120
3, 146304, Note_on_c, 1, 60, 120
3, 146684, Note_off_c, 1, 64, 100
3, 146684, Note_off_c, 1, 60, 100
3, 146688, Note_on_c, 1, 62, 120
3, 146688, Note_on_c, 1, 59, 120
3, 147068, Note_off_c, 1, 62, 100
3, 147068, Note_off_c, 1, 59, 100
3, 147072, Note_on_c, 1, 64, 120
3, 147072, Note_on_c, 1, 60, 120
3, 147260, Note_off_c, 1, 64, 100
3, 147260, Note_off_c, 1, 60, 100
3, 147264, Note_on_c, 1, 65, 120
3, 147264, Note_on_c, 1, 62, 120
3, 147452, Note_off_c, 1, 65, 100
3, 147452, Note_off_c, 1, 62, 100
3, 147456, Note_on_c, 1, 67, 120
3, 147456, Note_on_c, 1, 64, 120
3, 147836, Note_off_c, 1, 67, 100
3, 147836, Note_off_c, 1, 64, 100
3, 147840, Note_on_c, 1, 48, 120
3, 147840, Note_on_c, 1, 36, 120
3, 148988, Note_off_c, 1, 48, 100
3, 148988, Note_off_c, 1, 36, 100
3, 149376, Note_on_c, 1, 49, 120
3, 149376, Note_on_c, 1, 37, 120
3, 149756, Note_off_c, 1, 49, 100
3, 149756, Note_off_c, 1, 37, 100
3, 150144, Note_on_c, 1, 45, 120
3, 150144, Note_on_c, 1, 33, 120
3, 150524, Note_off_c, 1, 45, 100
3, 150524, Note_off_c, 1, 33, 100
3, 150912, Note_on_c, 1, 50, 120
3, 150912, Note_on_c, 1, 38, 120
3, 151292, Note_off_c, 1, 50, 100
3, 151292, Note_off_c, 1, 38, 100
3, 151680, Note_on_c, 1, 52, 120
3, 151680, Note_on_c, 1, 40, 120
3, 152060, Note_off_c, 1, 52, 100
3, 152060, Note_off_c, 1, 40, 100
3, 152064, Note_on_c, 1, 38, 120
3, 152252, Note_off_c, 1, 38, 100
3, 152256, Note_on_c, 1, 42, 119
3, 152444, Note_off_c, 1, 42, 100
3, 152448, Note_on_c, 1, 43, 117
3, 152636, Note_off_c, 1, 43, 100
3, 152640, Note_on_c, 1, 47, 115
3, 152828, Note_off_c, 1, 47, 100
3, 152832, Note_on_c, 1, 50, 113
3, 153020, Note_off_c, 1, 50, 100
3, 153024, Note_on_c, 1, 54, 111
3, 153212, Note_off_c, 1, 54, 100
3, 153216, Note_on_c, 1, 55, 110
3, 153404, Note_off_c, 1, 55, 100
3, 153408, Note_on_c, 1, 59, 108
3, 153596, Note_off_c, 1, 59, 100
3, 153600, Note_on_c, 1, 62, 106
3, 153788, Note_off_c, 1, 62, 100
3, 153792, Note_on_c, 1, 66, 104
3, 153980, Note_off_c, 1, 66, 100
3, 153984, Note_on_c, 1, 67, 102
3, 154172, Note_off_c, 1, 67, 100
3, 154176, Note_on_c, 1, 71, 101
3, 154364, Note_off_c, 1, 71, 100
3, 154752, Note_on_c, 1, 67, 101
3, 154940, Note_off_c, 1, 67, 100
3, 154944, Note_on_c, 1, 71, 101
3, 155132, Note_off_c, 1, 71, 100
3, 155136, Note_on_c, 1, 73, 102
3, 155324, Note_off_c, 1, 73, 100
3, 155328, Note_on_c, 1, 74, 103
3, 155516, Note_off_c, 1, 74, 100
3, 155520, Note_on_c, 1, 76, 103
3, 155708, Note_off_c, 1, 76, 100
3, 155712, Note_on_c, 1, 74, 104
3, 155900, Note_off_c, 1, 74, 100
3, 155904, Note_on_c, 1, 78, 104
3, 156092, Note_off_c, 1, 78, 100
3, 156096, Note_on_c, 1, 79, 105
3, 156284, Note_off_c, 1, 79, 100
3, 156288, Note_on_c, 1, 81, 106
3, 156476, Note_off_c, 1, 81, 100
3, 156480, Note_on_c, 1, 79, 106
3, 156668, Note_off_c, 1, 79, 100
3, 156672, Note_on_c, 1, 82, 107
3, 156860, Note_off_c, 1, 82, 100
3, 156864, Note_on_c, 1, 83, 108
3, 157052, Note_off_c, 1, 83, 100
3, 157056, Note_on_c, 1, 84, 108
3, 157244, Note_off_c, 1, 84, 100
3, 157248, Note_on_c, 1, 83, 109
3, 157436, Note_off_c, 1, 83, 100
3, 157440, Note_on_c, 1, 86, 110
3, 157820, Note_off_c, 1, 86, 100
3, 157824, Note_on_c, 1, 62, 80
3, 157948, Note_off_c, 1, 62, 100
3, 157952, Note_on_c, 1, 64, 80
3, 158076, Note_off_c, 1, 64, 100
3, 158080, Note_on_c, 1, 66, 80
3, 158204, Note_off_c, 1, 66, 100
3, 158208, Note_on_c, 1, 55, 80
3, 158460, Note_off_c, 1, 55, 100
3, 158464, Note_on_c, 1, 71, 80
3, 158716, Note_off_c, 1, 71, 100
3, 158720, Note_on_c, 1, 67, 80
3, 158972, Note_off_c, 1, 67, 100
3, 158976, Note_on_c, 1, 66, 80
3, 159228, Note_off_c, 1, 66, 100
3, 159232, Note_on_c, 1, 71, 80
3, 159484, Note_off_c, 1, 71, 100
3, 159488, Note_on_c, 1, 67, 80
3, 159740, Note_off_c, 1, 67, 100
3, 159744, Note_on_c, 1, 63, 80
3, 159996, Note_off_c, 1, 63, 100
3, 160000, Note_on_c, 1, 72, 80
3, 160252, Note_off_c, 1, 72, 100
3, 160256, Note_on_c, 1, 67, 80
3, 160508, Note_off_c, 1, 67, 100
3, 160512, Note_on_c, 1, 60, 80
3, 160764, Note_off_c, 1, 60, 100
3, 160768, Note_on_c, 1, 72, 80
3, 161020, Note_off_c, 1, 72, 100
3, 161024, Note_on_c, 1, 67, 80
3, 161276, Note_off_c, 1, 67, 100
3, 161280, Note_on_c, 1, 59, 80
3, 161532, Note_off_c, 1, 59, 100
3, 161536, Note_on_c, 1, 71, 80
3, 161788, Note_off_c, 1, 71, 100
3, 161792, Note_on_c, 1, 67, 80
3, 162044, Note_off_c, 1, 67, 100
3, 162048, Note_on_c, 1, 55, 80
3, 162300, Note_off_c, 1, 55, 100
3, 162304, Note_on_c, 1, 71, 80
3, 162556, Note_off_c, 1, 71, 100
3, 162560, Note_on_c, 1, 67, 80
3, 162812, Note_off_c, 1, 67, 100
3, 162816, Note_on_c, 1, 60, 80
3, 163068, Note_off_c, 1, 60, 100
3, 163072, Note_on_c, 1, 72, 80
3, 163324, Note_off_c, 1, 72, 100
3, 163328, Note_on_c, 1, 67, 80
3, 163580, Note_off_c, 1, 67, 100
3, 163584, Note_on_c, 1, 63, 80
3, 163836, Note_off_c, 1, 63, 100
3, 163840, Note_on_c, 1, 72, 80
3, 164092, Note_off_c, 1, 72, 100
3, 164096, Note_on_c, 1, 67, 80
3, 164348, Note_off_c, 1, 67, 100
3, 164352, Note_on_c, 1, 62, 80
3, 164604, Note_off_c, 1, 62, 100
3, 164608, Note_on_c, 1, 70, 80
3, 164860, Note_off_c, 1, 70, 100
3, 164864, Note_on_c, 1, 67, 80
3, 165116, Note_off_c, 1, 67, 100
3, 165120, Note_on_c, 1, 62, 80
3, 165372, Note_off_c, 1, 62, 100
3, 165376, Note_on_c, 1, 71, 80
3, 165628, Note_off_c, 1, 71, 100
3, 165632, Note_on_c, 1, 67, 80
3, 165884, Note_off_c, 1, 67, 100
3, 165888, Note_on_c, 1, 62, 80
3, 166140, Note_off_c, 1, 62, 100
3, 166144, Note_on_c, 1, 72, 80
3, 166396, Note_off_c, 1, 72, 100
3, 166400, Note_on_c, 1, 69, 80
3, 166652, Note_off_c, 1, 69, 100
3, 166656, Note_on_c, 1, 50, 80
3, 166908, Note_off_c, 1, 50, 100
3, 166912, Note_on_c, 1, 62, 80
3, 167164, Note_off_c, 1, 62, 100
3, 167168, Note_on_c, 1, 60, 80
3, 167420, Note_off_c, 1, 60, 100
3, 167424, Note_on_c, 1, 43, 80
3, 167612, Note_off_c, 1, 43, 100
3, 167616, Note_on_c, 1, 55, 80
3, 167804, Note_off_c, 1, 55, 100
3, 167808, Note_on_c, 1, 59, 81
3, 167996, Note_off_c, 1, 59, 100
3, 168000, Note_on_c, 1, 55, 81
3, 168188, Note_off_c, 1, 55, 100
3, 168192, Note_on_c, 1, 54, 82
3, 168380, Note_off_c, 1, 54, 100
3, 168384, Note_on_c, 1, 55, 83
3, 168572, Note_off_c, 1, 55, 100
3, 168576, Note_on_c, 1, 67, 83
3, 168764, Note_off_c, 1, 67, 100
3, 168768, Note_on_c, 1, 55, 84
3, 168956, Note_off_c, 1, 55, 100
3, 168960, Note_on_c, 1, 52, 84
3, 169148, Note_off_c, 1, 52, 100
3, 169152, Note_on_c, 1, 55, 85
3, 169340, Note_off_c, 1, 55, 100
3, 169344, Note_on_c, 1, 67, 86
3, 169532, Note_off_c, 1, 67, 100
3, 169536, Note_on_c, 1, 55, 86
3, 169724, Note_off_c, 1, 55, 100
3, 169728, Note_on_c, 1, 48, 87
3, 169916, Note_off_c, 1, 48, 100
3, 169920, Note_on_c, 1, 55, 88
3, 170108, Note_off_c, 1, 55, 100
3, 170112, Note_on_c, 1, 64, 88
3, 170300, Note_off_c, 1, 64, 100
3, 170304, Note_on_c, 1, 55, 89
3, 170492, Note_off_c, 1, 55, 100
3, 170496, Note_on_c, 1, 47, 89
3, 170684, Note_off_c, 1, 47, 100
3, 170688, Note_on_c, 1, 55, 90
3, 170876, Note_off_c, 1, 55, 100
3, 170880, Note_on_c, 1, 62, 91
3, 171068, Note_off_c, 1, 62, 100
3, 171072, Note_on_c, 1, 55, 91
3, 171260, Note_off_c, 1, 55, 100
3, 171264, Note_on_c, 1, 43, 92
3, 171452, Note_off_c, 1, 43, 100
3, 171456, Note_on_c, 1, 55, 93
3, 171644, Note_off_c, 1, 55, 100
3, 171648, Note_on_c, 1, 59, 93
3, 171836, Note_off_c, 1, 59, 100
3, 171840, Note_on_c, 1, 55, 94
3, 172028, Note_off_c, 1, 55, 100
3, 172032, Note_on_c, 1, 48, 94
3, 172220, Note_off_c, 1, 48, 100
3, 172224, Note_on_c, 1, 55, 95
3, 172412, Note_off_c, 1, 55, 100
3, 172416, Note_on_c, 1, 64, 96
3, 172604, Note_off_c, 1, 64, 100
3, 172608, Note_on_c, 1, 55, 96
3, 172796, Note_off_c, 1, 55, 100
3, 172800, Note_on_c, 1, 52, 97
3, 172988, Note_off_c, 1, 52, 100
3, 172992, Note_on_c, 1, 55, 98
3, 173180, Note_off_c, 1, 55, 100
3, 173184, Note_on_c, 1, 67, 98
3, 173372, Note_off_c, 1, 67, 100
3, 173376, Note_on_c, 1, 55, 99
3, 173564, Note_off_c, 1, 55, 100
3, 173568, Note_on_c, 1, 50, 99
3, 173756, Note_off_c, 1, 50, 100
3, 173760, Note_on_c, 1, 52, 100
3, 173948, Note_off_c, 1, 52, 100
3, 173952, Note_on_c, 1, 54, 101
3, 174140, Note_off_c, 1, 54, 100
3, 174144, Note_on_c, 1, 55, 101
3, 174332, Note_off_c, 1, 55, 100
3, 174336, Note_on_c, 1, 57, 102
3, 174524, Note_off_c, 1, 57, 100
3, 174528, Note_on_c, 1, 59, 103
3, 174716, Note_off_c, 1, 59, 100
3, 174720, Note_on_c, 1, 57, 103
3, 174908, Note_off_c, 1, 57, 100
3, 174912, Note_on_c, 1, 55, 104
3, 175100, Note_off_c, 1, 55, 100
3, 175104, Note_on_c, 1, 54, 104
3, 175292, Note_off_c, 1, 54, 100
3, 175296, Note_on_c, 1, 55, 105
3, 175484, Note_off_c, 1, 55, 100
3, 175488, Note_on_c, 1, 54, 106
3, 175676, Note_off_c, 1, 54, 100
3, 175680, Note_on_c, 1, 52, 106
3, 175868, Note_off_c, 1, 52, 100
3, 175872, Note_on_c, 1, 50, 107
3, 176060, Note_off_c, 1, 50, 100
3, 176064, Note_on_c, 1, 48, 108
3, 176252, Note_off_c, 1, 48, 100
3, 176256, Note_on_c, 1, 47, 108
3, 176444, Note_off_c, 1, 47, 100
3, 176448, Note_on_c, 1, 45, 109
3, 176636, Note_off_c, 1, 45, 100
3, 176640, Control_c, 1, 64, 127
3, 176640, Note_on_c, 1, 31, 120
3, 176828, Note_off_c, 1, 31, 100
3, 176832, Note_on_c, 1, 43, 120
3, 177020, Note_off_c, 1, 43, 100
3, 177024, Note_on_c, 1, 31, 120
3, 177212, Note_off_c, 1, 31, 100
3, 177216, Note_on_c, 1, 43, 120
3, 177404, Note_off_c, 1, 43, 100
3, 177408, Note_on_c, 1, 31, 120
3, 177596, Note_off_c, 1, 31, 100
3, 177600, Note_on_c, 1, 43, 120
3, 177788, Note_off_c, 1, 43, 100
3, 177792, Note_on_c, 1, 31, 120
3, 177980, Note_off_c, 1, 31, 100
3, 177984, Note_on_c, 1, 43, 120
3, 178172, Note_off_c, 1, 43, 100
3, 178176, Note_on_c, 1, 31, 120
3, 178364, Note_off_c, 1, 31, 100
3, 178368, Note_on_c, 1, 43, 120
3, 178556, Note_off_c, 1, 43, 100
3, 178560, Note_on_c, 1, 31, 120
3, 178748, Note_off_c, 1, 31, 100
3, 178752, Note_on_c, 1, 43, 120
3, 178940, Note_off_c, 1, 43, 100
3, 178944, Note_on_c, 1, 31, 120
3, 179132, Note_off_c, 1, 31, 100
3, 179136, Note_on_c, 1, 43, 120
3, 179320, Control_c, 1, 64, 0
3, 179324, Note_off_c, 1, 43, 100
3, 179328, Note_on_c, 1, 32, 80
3, 179516, Note_off_c, 1, 32, 100
3, 179520, Note_on_c, 1, 44, 80
3, 179708, Note_off_c, 1, 44, 100
3, 179712, Note_on_c, 1, 33, 80
3, 179900, Note_off_c, 1, 33, 100
3, 179904, Note_on_c, 1, 45, 80
3, 180092, Note_off_c, 1, 45, 100
3, 180096, Note_on_c, 1, 32, 80
3, 180284, Note_off_c, 1, 32, 100
3, 180288, Note_on_c, 1, 44, 80
3, 180476, Note_off_c, 1, 44, 100
3, 180480, Note_on_c, 1, 33, 80
3, 180668, Note_off_c, 1, 33, 100
3, 180672, Note_on_c, 1, 45, 80
3, 180860, Note_off_c, 1, 45, 100
3, 180864, Note_on_c, 1, 36, 80
3, 181052, Note_off_c, 1, 36, 100
3, 181056, Note_on_c, 1, 48, 80
3, 181244, Note_off_c, 1, 48, 100
3, 181248, Note_on_c, 1, 37, 80
3, 181436, Note_off_c, 1, 37, 100
3, 181440, Note_on_c, 1, 49, 80
3, 181628, Note_off_c, 1, 49, 100
3, 181632, Note_on_c, 1, 40, 80
3, 181820, Note_off_c, 1, 40, 100
3, 181824, Note_on_c, 1, 52, 80
3, 182012, Note_off_c, 1, 52, 100
3, 182016, Note_on_c, 1, 38, 80
3, 182204, Note_off_c, 1, 38, 100
3, 182208, Note_on_c, 1, 50, 80
3, 182396, Note_off_c, 1, 50, 100
3, 182400, Note_on_c, 1, 38, 80
3, 182588, Note_off_c, 1, 38, 100
3, 182592, Note_on_c, 1, 50, 80
3, 182780, Note_off_c, 1, 50, 100
3, 182784, Note_on_c, 1, 38, 80
3, 182972, Note_off_c, 1, 38, 100
3, 182976, Note_on_c, 1, 50, 81
3, 183164, Note_off_c, 1, 50, 100
3, 183168, Note_on_c, 1, 43, 83
3, 183356, Note_off_c, 1, 43, 100
3, 183360, Note_on_c, 1, 55, 85
3, 183548, Note_off_c, 1, 55, 100
3, 183552, Note_on_c, 1, 38, 87
3, 183740, Note_off_c, 1, 38, 100
3, 183744, Note_on_c, 1, 50, 89
3, 183932, Note_off_c, 1, 50, 100
3, 183936, Note_on_c, 1, 50, 91
3, 184124, Note_off_c, 1, 50, 100
3, 184128, Note_on_c, 1, 62, 93
3, 184316, Note_off_c, 1, 62, 100
3, 184320, Note_on_c, 1, 38, 95
3, 184508, Note_off_c, 1, 38, 100
3, 184512, Note_on_c, 1, 50, 97
3, 184700, Note_off_c, 1, 50, 100
3, 184704, Note_on_c, 1, 43, 99
3, 184892, Note_off_c, 1, 43, 100
3, 184896, Note_on_c, 1, 55, 101
3, 185084, Note_off_c, 1, 55, 100
3, 185088, Note_on_c, 1, 38, 103
3, 185276, Note_off_c, 1, 38, 100
3, 185280, Note_on_c, 1, 50, 105
3, 185468, Note_off_c, 1, 50, 100
3, 185472, Note_on_c, 1, 50, 107
3, 185660, Note_off_c, 1, 50, 100
3, 185664, Note_on_c, 1, 62, 109
3, 185852, Note_off_c, 1, 62, 100
3, 185856, Note_on_c, 1, 43, 110
3, 186044, Note_off_c, 1, 43, 100
3, 186048, Note_on_c, 1, 55, 110
3, 186236, Note_off_c, 1, 55, 100
3, 186240, Note_on_c, 1, 38, 110
3, 186428, Note_off_c, 1, 38, 100
3, 186432, Note_on_c, 1, 50, 110
3, 186620, Note_off_c, 1, 50, 100
3, 186624, Note_on_c, 1, 42, 110
3, 186812, Note_off_c, 1, 42, 100
3, 186816, Note_on_c, 1, 54, 110
3, 187004, Note_off_c, 1, 54, 100
3, 187008, Note_on_c, 1, 45, 110
3, 187196, Note_off_c, 1, 45, 100
3, 187200, Note_on_c, 1, 57, 110
3, 187388, Note_off_c, 1, 57, 100
3, 187392, Note_on_c, 1, 43, 110
3, 187580, Note_off_c, 1, 43, 100
3, 187584, Note_on_c, 1, 55, 110
3, 187772, Note_off_c, 1, 55, 100
3, 187776, Note_on_c, 1, 38, 110
3, 187964, Note_off_c, 1, 38, 100
3, 187968, Note_on_c, 1, 50, 110
3, 188156, Note_off_c, 1, 50, 100
3, 188160, Note_on_c, 1, 30, 110
3, 188348, Note_off_c, 1, 30, 100
3, 188352, Note_on_c, 1, 42, 110
3, 188540, Note_off_c, 1, 42, 100
3, 188544, Note_on_c, 1, 33, 110
3, 188732, Note_off_c, 1, 33, 100
3, 188736, Note_on_c, 1, 45, 110
3, 188924, Note_off_c, 1, 45, 100
3, 188928, Note_on_c, 1, 43, 120
3, 188928, Note_on_c, 1, 31, 120
3, 189308, Note_off_c, 1, 43, 100
3, 189308, Note_off_c, 1, 31, 100
3, 189696, Note_on_c, 1, 45, 120
3, 189696, Note_on_c, 1, 33, 120
3, 190076, Note_off_c, 1, 45, 100
3, 190076, Note_off_c, 1, 33, 100
3, 190464, Control_c, 1, 64, 127
3, 190464, Note_on_c, 1, 46, 120
3, 190464, Note_on_c, 1, 34, 120
3, 191804, Note_off_c, 1, 46, 100
3, 191804, Note_off_c, 1, 34, 100
3, 191808, Note_on_c, 1, 46, 80
3, 191996, Note_off_c, 1, 46, 100
3, 192000, Note_on_c, 1, 58, 80
3, 192572, Note_off_c, 1, 58, 100
3, 192576, Note_on_c, 1, 58, 80
3, 192764, Note_off_c, 1, 58, 100
3, 192768, Note_on_c, 1, 58, 80
3, 194684, Note_off_c, 1, 58, 64
3, 194880, Note_on_c, 1, 50, 80
3, 195068, Note_off_c, 1, 50, 100
3, 195072, Note_on_c, 1, 62, 80
3, 195644, Note_off_c, 1, 62, 100
3, 195648, Note_on_c, 1, 62, 80
3, 195836, Note_off_c, 1, 62, 100
3, 195840, Note_on_c, 1, 62, 80
3, 197752, Control_c, 1, 64, 0
3, 197760, Control_c, 1, 64, 127
3, 197952, Note_on_c, 1, 34, 80
3, 198140, Note_off_c, 1, 62, 100
3, 198140, Note_off_c, 1, 34, 100
3, 198144, Note_on_c, 1, 62, 120
3, 198144, Note_on_c, 1, 58, 120
3, 198144, Note_on_c, 1, 53, 120
3, 198716, Note_off_c, 1, 62, 100
3, 198716, Note_off_c, 1, 58, 100
3, 198716, Note_off_c, 1, 53, 100
3, 198720, Note_on_c, 1, 62, 120
3, 198720, Note_on_c, 1, 58, 120
3, 198720, Note_on_c, 1, 53, 120
3, 198908, Note_off_c, 1, 62, 100
3, 198908, Note_off_c, 1, 58, 100
3, 198908, Note_off_c, 1, 53, 100
3, 198912, Note_on_c, 1, 62, 120
3, 198912, Note_on_c, 1, 58, 120
3, 198912, Note_on_c, 1, 53, 120
3, 199292, Note_off_c, 1, 62, 100
3, 199292, Note_off_c, 1, 58, 100
3, 199292, Note_off_c, 1, 53, 100
3, 199296, Note_on_c, 1, 62, 120
3, 199296, Note_on_c, 1, 58, 120
3, 199296, Note_on_c, 1, 53, 120
3, 199484, Note_off_c, 1, 62, 100
3, 199484, Note_off_c, 1, 58, 100
3, 199484, Note_off_c, 1, 53, 100
3, 199488, Note_on_c, 1, 62, 120
3, 199488, Note_on_c, 1, 58, 120
3, 199488, Note_on_c, 1, 53, 120
3, 199676, Note_off_c, 1, 62, 100
3, 199676, Note_off_c, 1, 58, 100
3, 199676, Note_off_c, 1, 53, 100
3, 199680, Note_on_c, 1, 58, 120
3, 199680, Note_on_c, 1, 53, 120
3, 199680, Note_on_c, 1, 62, 120
3, 200060, Note_off_c, 1, 58, 100
3, 200060, Note_off_c, 1, 53, 100
3, 200060, Note_off_c, 1, 62, 100
3, 200064, Note_on_c, 1, 58, 120
3, 200064, Note_on_c, 1, 53, 120
3, 200064, Note_on_c, 1, 50, 120
3, 200444, Note_off_c, 1, 58, 100
3, 200444, Note_off_c, 1, 53, 100
3, 200444, Note_off_c, 1, 50, 100
3, 201024, Note_on_c, 1, 34, 120
3, 201212, Note_off_c, 1, 34, 100
3, 201216, Note_on_c, 1, 65, 120
3, 201216, Note_on_c, 1, 62, 120
3, 201216, Note_on_c, 1, 58, 120
3, 201216, Note_on_c, 1, 53, 120
3, 201788, Note_off_c, 1, 65, 100
3, 201788, Note_off_c, 1, 62, 100
3, 201788, Note_off_c, 1, 58, 100
3, 201788, Note_off_c, 1, 53, 100
3, 201792, Note_on_c, 1, 65, 120
3, 201792, Note_on_c, 1, 62, 120
3, 201792, Note_on_c, 1, 58, 120
3, 201792, Note_on_c, 1, 53, 120
3, 201980, Note_off_c, 1, 65, 100
3, 201980, Note_off_c, 1, 62, 100
3, 201980, Note_off_c, 1, 58, 100
3, 201980, Note_off_c, 1, 53, 100
3, 201984, Note_on_c, 1, 65, 120
3, 201984, Note_on_c, 1, 62, 120
3, 201984, Note_on_c, 1, 58, 120
3, 201984, Note_on_c, 1, 53, 120
3, 202364, Note_off_c, 1, 65, 100
3, 202364, Note_off_c, 1, 62, 100
3, 202364, Note_off_c, 1, 58, 100
3, 202364, Note_off_c, 1, 53, 100
3, 202368, Note_on_c, 1, 65, 120
3, 202368, Note_on_c, 1, 62, 120
3, 202368, Note_on_c, 1, 58, 120
3, 202368, Note_on_c, 1, 53, 120
3, 202556, Note_off_c, 1, 65, 100
3, 202556, Note_off_c, 1, 62, 100
3, 202556, Note_off_c, 1, 58, 100
3, 202556, Note_off_c, 1, 53, 100
3, 202560, Note_on_c, 1, 65, 120
3, 202560, Note_on_c, 1, 62, 120
3, 202560, Note_on_c, 1, 58, 120
3, 202560, Note_on_c, 1, 53, 120
3, 202748, Note_off_c, 1, 65, 100
3, 202748, Note_off_c, 1, 62, 100
3, 202748, Note_off_c, 1, 58, 100
3, 202748, Note_off_c, 1, 53, 100
3, 202752, Note_on_c, 1, 65, 120
3, 202752, Note_on_c, 1, 62, 120
3, 202752, Note_on_c, 1, 58, 120
3, 202752, Note_on_c, 1, 53, 120
3, 203132, Note_off_c, 1, 65, 100
3, 203132, Note_off_c, 1, 62, 100
3, 203132, Note_off_c, 1, 58, 100
3, 203132, Note_off_c, 1, 53, 100
3, 203136, Note_on_c, 1, 62, 120
3, 203136, Note_on_c, 1, 58, 120
3, 203136, Note_on_c, 1, 53, 120
3, 204284, Note_off_c, 1, 62, 100
3, 204284, Note_off_c, 1, 58, 100
3, 204284, Note_off_c, 1, 53, 100
3, 205048, Control_c, 1, 64, 0
3, 206208, Note_on_c, 1, 64, 80
3, 206588, Note_off_c, 1, 64, 100
3, 206592, Note_on_c, 1, 65, 80
3, 206972, Note_off_c, 1, 65, 100
3, 206976, Note_on_c, 1, 59, 80
3, 207356, Note_off_c, 1, 59, 100
3, 207360, Note_on_c, 1, 60, 80
3, 207740, Note_off_c, 1, 60, 100
3, 207744, Note_on_c, 1, 54, 80
3, 208124, Note_off_c, 1, 54, 100
3, 208128, Note_on_c, 1, 55, 80
3, 208508, Note_off_c, 1, 55, 100
3, 208512, Note_on_c, 1, 51, 80
3, 208892, Note_off_c, 1, 51, 100
3, 208896, Note_on_c, 1, 50, 80
3, 209276, Note_off_c, 1, 50, 100
3, 209280, Note_on_c, 1, 49, 80
3, 209660, Note_off_c, 1, 49, 100
3, 209664, Note_on_c, 1, 48, 80
3, 210044, Note_off_c, 1, 48, 100
3, 210048, Note_on_c, 1, 41, 80
3, 210428, Note_off_c, 1, 41, 100
3, 210432, Note_on_c, 1, 46, 80
3, 210812, Note_off_c, 1, 46, 100
3, 210816, Note_on_c, 1, 39, 80
3, 211196, Note_off_c, 1, 39, 100
3, 211200, Note_on_c, 1, 41, 80
3, 211964, Note_off_c, 1, 41, 100
3, 213888, Note_on_c, 1, 76, 80
3, 214268, Note_off_c, 1, 76, 100
3, 214272, Note_on_c, 1, 77, 80
3, 214652, Note_off_c, 1, 77, 100
3, 214656, Note_on_c, 1, 71, 80
3, 215036, Note_off_c, 1, 71, 100
3, 215040, Note_on_c, 1, 72, 80
3, 215420, Note_off_c, 1, 72, 100
3, 215424, Note_on_c, 1, 66, 80
3, 215804, Note_off_c, 1, 66, 100
3, 215808, Note_on_c, 1, 67, 80
3, 216188, Note_off_c, 1, 67, 100
3, 216192, Note_on_c, 1, 63, 80
3, 216572, Note_off_c, 1, 63, 100
3, 216576, Note_on_c, 1, 62, 80
3, 216956, Note_off_c, 1, 62, 100
3, 216960, Note_on_c, 1, 61, 81
3, 217340, Note_off_c, 1, 61, 100
3, 217344, Note_on_c, 1, 60, 83
3, 217724, Note_off_c, 1, 60, 100
3, 217728, Note_on_c, 1, 53, 84
3, 218108, Note_off_c, 1, 53, 100
3, 218112, Note_on_c, 1, 58, 86
3, 218492, Note_off_c, 1, 58, 100
3, 218496, Note_on_c, 1, 54, 87
3, 218876, Note_off_c, 1, 54, 100
3, 218880, Note_on_c, 1, 53, 89
3, 219260, Note_off_c, 1, 53, 100
3, 219264, Note_on_c, 1, 51, 90
3, 219644, Note_off_c, 1, 51, 100
3, 219648, Note_on_c, 1, 50, 92
3, 220028, Note_off_c, 1, 50, 100
3, 220032, Note_on_c, 1, 49, 93
3, 220412, Note_off_c, 1, 49, 100
3, 220416, Note_on_c, 1, 48, 95
3, 220796, Note_off_c, 1, 48, 100
3, 220800, Note_on_c, 1, 41, 96
3, 221180, Note_off_c, 1, 41, 100
3, 221184, Note_on_c, 1, 46, 98
3, 221564, Note_off_c, 1, 46, 100
3, 221568, Note_on_c, 1, 42, 99
3, 221948, Note_off_c, 1, 42, 100
3, 221952, Note_on_c, 1, 41, 101
3, 222332, Note_off_c, 1, 41, 100
3, 222336, Note_on_c, 1, 39, 103
3, 222716, Note_off_c, 1, 39, 100
3, 222720, Note_on_c, 1, 38, 104
3, 223100, Note_off_c, 1, 38, 100
3, 223104, Note_on_c, 1, 37, 106
3, 223484, Note_off_c, 1, 37, 100
3, 223488, Note_on_c, 1, 36, 107
3, 223868, Note_off_c, 1, 36, 100
3, 223872, Note_on_c, 1, 30, 109
3, 224252, Note_off_c, 1, 30, 100
3, 224256, Note_on_c, 1, 31, 110
3, 224636, Note_off_c, 1, 31, 100
3, 224640, Note_on_c, 1, 39, 110
3, 225020, Note_off_c, 1, 39, 100
3, 225024, Note_on_c, 1, 41, 110
3, 225404, Note_off_c, 1, 41, 100
3, 225408, Note_on_c, 1, 41, 110
3, 225408, Note_on_c, 1, 29, 110
3, 225788, Note_off_c, 1, 41, 100
3, 225788, Note_off_c, 1, 29, 100
3, 225792, Control_c, 1, 64, 127
3, 225792, Note_on_c, 1, 46, 110
3, 225792, Note_on_c, 1, 34, 110
3, 225980, Note_off_c, 1, 46, 100
3, 225980, Note_off_c, 1, 34, 100
3, 225984, Note_on_c, 1, 62, 110
3, 225984, Note_on_c, 1, 58, 110
3, 225984, Note_on_c, 1, 53, 110
3, 226172, Note_off_c, 1, 62, 100
3, 226172, Note_off_c, 1, 58, 100
3, 226172, Note_off_c, 1, 53, 100
3, 226176, Note_on_c, 1, 62, 110
3, 226176, Note_on_c, 1, 58, 110
3, 226176, Note_on_c, 1, 53, 110
3, 226364, Note_off_c, 1, 62, 100
3, 226364, Note_off_c, 1, 58, 100
3, 226364, Note_off_c, 1, 53, 100
3, 226368, Note_on_c, 1, 62, 110
3, 226368, Note_on_c, 1, 58, 110
3, 226368, Note_on_c, 1, 53, 110
3, 226556, Note_off_c, 1, 62, 100
3, 226556, Note_off_c, 1, 58, 100
3, 226556, Note_off_c, 1, 53, 100
3, 226752, Note_on_c, 1, 58, 110
3, 226752, Note_on_c, 1, 53, 110
3, 226752, Note_on_c, 1, 50, 110
3, 226940, Note_off_c, 1, 58, 100
3, 226940, Note_off_c, 1, 53, 100
3, 226940, Note_off_c, 1, 50, 100
3, 226944, Note_on_c, 1, 58, 110
3, 226944, Note_on_c, 1, 53, 110
3, 226944, Note_on_c, 1, 50, 110
3, 227132, Note_off_c, 1, 58, 100
3, 227132, Note_off_c, 1, 53, 100
3, 227132, Note_off_c, 1, 50, 100
3, 227136, Note_on_c, 1, 58, 110
3, 227136, Note_on_c, 1, 53, 110
3, 227136, Note_on_c, 1, 50, 110
3, 227320, Control_c, 1, 64, 0
3, 227324, Note_off_c, 1, 58, 100
3, 227324, Note_off_c, 1, 53, 100
3, 227324, Note_off_c, 1, 50, 100
3, 227520, Note_on_c, 1, 62, 80
3, 227520, Note_on_c, 1, 58, 80
3, 227520, Note_on_c, 1, 53, 80
3, 227708, Note_off_c, 1, 62, 100
3, 227708, Note_off_c, 1, 58, 100
3, 227708, Note_off_c, 1, 53, 100
3, 227904, Note_on_c, 1, 58, 80
3, 227904, Note_on_c, 1, 50, 80
3, 228092, Note_off_c, 1, 58, 100
3, 228092, Note_off_c, 1, 50, 100
3, 228288, Note_on_c, 1, 62, 80
3, 228288, Note_on_c, 1, 58, 80
3, 228288, Note_on_c, 1, 53, 80
3, 228476, Note_off_c, 1, 62, 100
3, 228476, Note_off_c, 1, 58, 100
3, 228476, Note_off_c, 1, 53, 100
3, 228672, Note_on_c, 1, 60, 80
3, 228672, Note_on_c, 1, 58, 80
3, 228672, Note_on_c, 1, 51, 80
3, 228860, Note_off_c, 1, 60, 100
3, 228860, Note_off_c, 1, 58, 100
3, 228860, Note_off_c, 1, 51, 100
3, 228864, Control_c, 1, 64, 127
3, 228864, Note_on_c, 1, 46, 110
3, 228864, Note_on_c, 1, 34, 110
3, 229052, Note_off_c, 1, 46, 100
3, 229052, Note_off_c, 1, 34, 100
3, 229056, Note_on_c, 1, 63, 110
3, 229056, Note_on_c, 1, 58, 110
3, 229056, Note_on_c, 1, 55, 110
3, 229244, Note_off_c, 1, 63, 100
3, 229244, Note_off_c, 1, 58, 100
3, 229244, Note_off_c, 1, 55, 100
3, 229248, Note_on_c, 1, 63, 110
3, 229248, Note_on_c, 1, 58, 110
3, 229248, Note_on_c, 1, 55, 110
3, 229436, Note_off_c, 1, 63, 100
3, 229436, Note_off_c, 1, 58, 100
3, 229436, Note_off_c, 1, 55, 100
3, 229440, Note_on_c, 1, 63, 110
3, 229440, Note_on_c, 1, 58, 110
3, 229440, Note_on_c, 1, 55, 110
3, 229628, Note_off_c, 1, 63, 100
3, 229628, Note_off_c, 1, 58, 100
3, 229628, Note_off_c, 1, 55, 100
3, 229824, Note_on_c, 1, 60, 110
3, 229824, Note_on_c, 1, 57, 110
3, 229824, Note_on_c, 1, 51, 110
3, 230012, Note_off_c, 1, 60, 100
3, 230012, Note_off_c, 1, 57, 100
3, 230012, Note_off_c, 1, 51, 100
3, 230016, Note_on_c, 1, 60, 110
3, 230016, Note_on_c, 1, 57, 110
3, 230016, Note_on_c, 1, 51, 110
3, 230204, Note_off_c, 1, 60, 100
3, 230204, Note_off_c, 1, 57, 100
3, 230204, Note_off_c, 1, 51, 100
3, 230208, Note_on_c, 1, 60, 110
3, 230208, Note_on_c, 1, 57, 110
3, 230208, Note_on_c, 1, 51, 110
3, 230392, Control_c, 1, 64, 0
3, 230396, Note_off_c, 1, 60, 100
3, 230396, Note_off_c, 1, 57, 100
3, 230396, Note_off_c, 1, 51, 100
3, 230592, Note_on_c, 1, 63, 80
3, 230592, Note_on_c, 1, 58, 80
3, 230592, Note_on_c, 1, 55, 80
3, 230780, Note_off_c, 1, 63, 100
3, 230780, Note_off_c, 1, 58, 100
3, 230780, Note_off_c, 1, 55, 100
3, 230976, Note_on_c, 1, 61, 80
3, 230976, Note_on_c, 1, 58, 80
3, 230976, Note_on_c, 1, 52, 80
3, 231164, Note_off_c, 1, 61, 100
3, 231164, Note_off_c, 1, 58, 100
3, 231164, Note_off_c, 1, 52, 100
3, 231360, Note_on_c, 1, 63, 80
3, 231360, Note_on_c, 1, 58, 80
3, 231360, Note_on_c, 1, 54, 80
3, 231548, Note_off_c, 1, 63, 100
3, 231548, Note_off_c, 1, 58, 100
3, 231548, Note_off_c, 1, 54, 100
3, 231744, Note_on_c, 1, 62, 80
3, 231744, Note_on_c, 1, 58, 80
3, 231744, Note_on_c, 1, 53, 80
3, 231932, Note_off_c, 1, 62, 100
3, 231932, Note_off_c, 1, 58, 100
3, 231932, Note_off_c, 1, 53, 100
3, 231936, Control_c, 1, 64, 127
3, 231936, Note_on_c, 1, 46, 110
3, 231936, Note_on_c, 1, 34, 110
3, 232124, Note_off_c, 1, 46, 100
3, 232124, Note_off_c, 1, 34, 100
3, 232128, Note_on_c, 1, 65, 110
3, 232128, Note_on_c, 1, 58, 110
3, 232128, Note_on_c, 1, 56, 110
3, 232316, Note_off_c, 1, 65, 100
3, 232316, Note_off_c, 1, 58, 100
3, 232316, Note_off_c, 1, 56, 100
3, 232320, Note_on_c, 1, 65, 110
3, 232320, Note_on_c, 1, 58, 110
3, 232320, Note_on_c, 1, 56, 110
3, 232508, Note_off_c, 1, 65, 100
3, 232508, Note_off_c, 1, 58, 100
3, 232508, Note_off_c, 1, 56, 100
3, 232512, Note_on_c, 1, 65, 110
3, 232512, Note_on_c, 1, 58, 110
3, 232512, Note_on_c, 1, 56, 110
3, 232700, Note_off_c, 1, 65, 100
3, 232700, Note_off_c, 1, 58, 100
3, 232700, Note_off_c, 1, 56, 100
3, 232896, Note_on_c, 1, 62, 110
3, 232896, Note_on_c, 1, 58, 110
3, 232896, Note_on_c, 1, 53, 110
3, 233084, Note_off_c, 1, 62, 100
3, 233084, Note_off_c, 1, 58, 100
3, 233084, Note_off_c, 1, 53, 100
3, 233088, Note_on_c, 1, 62, 110
3, 233088, Note_on_c, 1, 58, 110
3, 233088, Note_on_c, 1, 53, 110
3, 233276, Note_off_c, 1, 62, 100
3, 233276, Note_off_c, 1, 58, 100
3, 233276, Note_off_c, 1, 53, 100
3, 233280, Note_on_c, 1, 62, 110
3, 233280, Note_on_c, 1, 58, 110
3, 233280, Note_on_c, 1, 53, 110
3, 233464, Control_c, 1, 64, 0
3, 233468, Note_off_c, 1, 62, 100
3, 233468, Note_off_c, 1, 58, 100
3, 233468, Note_off_c, 1, 53, 100
3, 233664, Note_on_c, 1, 65, 80
3, 233664, Note_on_c, 1, 58, 80
3, 233664, Note_on_c, 1, 56, 80
3, 233852, Note_off_c, 1, 65, 100
3, 233852, Note_off_c, 1, 58, 100
3, 233852, Note_off_c, 1, 56, 100
3, 234048, Note_on_c, 1, 62, 80
3, 234048, Note_on_c, 1, 58, 80
3, 234048, Note_on_c, 1, 54, 80
3, 234236, Note_off_c, 1, 62, 100
3, 234236, Note_off_c, 1, 58, 100
3, 234236, Note_off_c, 1, 54, 100
3, 234432, Note_on_c, 1, 65, 80
3, 234432, Note_on_c, 1, 58, 80
3, 234432, Note_on_c, 1, 56, 80
3, 234620, Note_off_c, 1, 65, 100
3, 234620, Note_off_c, 1, 58, 100
3, 234620, Note_off_c, 1, 56, 100
3, 234816, Note_on_c, 1, 63, 80
3, 234816, Note_on_c, 1, 58, 80
3, 234816, Note_on_c, 1, 55, 80
3, 235004, Note_off_c, 1, 63, 100
3, 235004, Note_off_c, 1, 58, 100
3, 235004, Note_off_c, 1, 55, 100
3, 235008, Control_c, 1, 64, 127
3, 235008, Note_on_c, 1, 46, 110
3, 235008, Note_on_c, 1, 34, 110
3, 235196, Note_off_c, 1, 46, 100
3, 235196, Note_off_c, 1, 34, 100
3, 235200, Note_on_c, 1, 67, 110
3, 235200, Note_on_c, 1, 63, 110
3, 235200, Note_on_c, 1, 58, 110
3, 235388, Note_off_c, 1, 67, 100
3, 235388, Note_off_c, 1, 63, 100
3, 235388, Note_off_c, 1, 58, 100
3, 235392, Note_on_c, 1, 67, 110
3, 235392, Note_on_c, 1, 63, 110
3, 235392, Note_on_c, 1, 58, 110
3, 235580, Note_off_c, 1, 67, 100
3, 235580, Note_off_c, 1, 63, 100
3, 235580, Note_off_c, 1, 58, 100
3, 235584, Note_on_c, 1, 67, 110
3, 235584, Note_on_c, 1, 63, 110
3, 235584, Note_on_c, 1, 58, 110
3, 235772, Note_off_c, 1, 67, 100
3, 235772, Note_off_c, 1, 63, 100
3, 235772, Note_off_c, 1, 58, 100
3, 235968, Note_on_c, 1, 63, 110
3, 235968, Note_on_c, 1, 58, 110
3, 235968, Note_on_c, 1, 55, 110
3, 236156, Note_off_c, 1, 63, 100
3, 236156, Note_off_c, 1, 58, 100
3, 236156, Note_off_c, 1, 55, 100
3, 236160, Note_on_c, 1, 63, 110
3, 236160, Note_on_c, 1, 58, 110
3, 236160, Note_on_c, 1, 55, 110
3, 236348, Note_off_c, 1, 63, 100
3, 236348, Note_off_c, 1, 58, 100
3, 236348, Note_off_c, 1, 55, 100
3, 236352, Note_on_c, 1, 63, 110
3, 236352, Note_on_c, 1, 58, 110
3, 236352, Note_on_c, 1, 55, 110
3, 236536, Control_c, 1, 64, 0
3, 236540, Note_off_c, 1, 63, 100
3, 236540, Note_off_c, 1, 58, 100
3, 236540, Note_off_c, 1, 55, 100
3, 236736, Note_on_c, 1, 67, 81
3, 236736, Note_on_c, 1, 63, 81
3, 236736, Note_on_c, 1, 58, 81
3, 236924, Note_off_c, 1, 67, 100
3, 236924, Note_off_c, 1, 63, 100
3, 236924, Note_off_c, 1, 58, 100
3, 237120, Note_on_c, 1, 64, 83
3, 237120, Note_on_c, 1, 61, 83
3, 237120, Note_on_c, 1, 58, 83
3, 237308, Note_off_c, 1, 64, 100
3, 237308, Note_off_c, 1, 61, 100
3, 237308, Note_off_c, 1, 58, 100
3, 237504, Note_on_c, 1, 66, 86
3, 237504, Note_on_c, 1, 63, 86
3, 237504, Note_on_c, 1, 58, 86
3, 237692, Note_off_c, 1, 66, 100
3, 237692, Note_off_c, 1, 63, 100
3, 237692, Note_off_c, 1, 58, 100
3, 237888, Note_on_c, 1, 65, 89
3, 237888, Note_on_c, 1, 62, 89
3, 237888, Note_on_c, 1, 58, 89
3, 238076, Note_off_c, 1, 65, 100
3, 238076, Note_off_c, 1, 62, 100
3, 238076, Note_off_c, 1, 58, 100
3, 238272, Note_on_c, 1, 68, 91
3, 238272, Note_on_c, 1, 65, 91
3, 238272, Note_on_c, 1, 58, 91
3, 238460, Note_off_c, 1, 68, 100
3, 238460, Note_off_c, 1, 65, 100
3, 238460, Note_off_c, 1, 58, 100
3, 238656, Note_on_c, 1, 66, 94
3, 238656, Note_on_c, 1, 62, 94
3, 238656, Note_on_c, 1, 58, 94
3, 238844, Note_off_c, 1, 66, 100
3, 238844, Note_off_c, 1, 62, 100
3, 238844, Note_off_c, 1, 58, 100
3, 239040, Note_on_c, 1, 68, 96
3, 239040, Note_on_c, 1, 65, 96
3, 239040, Note_on_c, 1, 58, 96
3, 239228, Note_off_c, 1, 68, 100
3, 239228, Note_off_c, 1, 65, 100
3, 239228, Note_off_c, 1, 58, 100
3, 239424, Note_on_c, 1, 67, 99
3, 239424, Note_on_c, 1, 63, 99
3, 239424, Note_on_c, 1, 58, 99
3, 239612, Note_off_c, 1, 67, 100
3, 239612, Note_off_c, 1, 63, 100
3, 239612, Note_off_c, 1, 58, 100
3, 239808, Note_on_c, 1, 67, 102
3, 239808, Note_on_c, 1, 63, 102
3, 239808, Note_on_c, 1, 60, 102
3, 239808, Note_on_c, 1, 58, 102
3, 239996, Note_off_c, 1, 67, 100
3, 239996, Note_off_c, 1, 63, 100
3, 239996, Note_off_c, 1, 60, 100
3, 239996, Note_off_c, 1, 58, 100
3, 240192, Note_on_c, 1, 68, 104
3, 240192, Note_on_c, 1, 63, 104
3, 240192, Note_on_c, 1, 60, 104
3, 240192, Note_on_c, 1, 58, 104
3, 240380, Note_off_c, 1, 68, 100
3, 240380, Note_off_c, 1, 63, 100
3, 240380, Note_off_c, 1, 60, 100
3, 240380, Note_off_c, 1, 58, 100
3, 240576, Note_on_c, 1, 70, 107
3, 240576, Note_on_c, 1, 63, 107
3, 240576, Note_on_c, 1, 60, 107
3, 240576, Note_on_c, 1, 58, 107
3, 240764, Note_off_c, 1, 70, 100
3, 240764, Note_off_c, 1, 63, 100
3, 240764, Note_off_c, 1, 60, 100
3, 240764, Note_off_c, 1, 58, 100
3, 240960, Note_on_c, 1, 69, 109
3, 240960, Note_on_c, 1, 63, 109
3, 240960, Note_on_c, 1, 60, 109
3, 240960, Note_on_c, 1, 58, 109
3, 241148, Note_off_c, 1, 69, 100
3, 241148, Note_off_c, 1, 63, 100
3, 241148, Note_off_c, 1, 60, 100
3, 241148, Note_off_c, 1, 58, 100
3, 241344, Note_on_c, 1, 72, 110
3, 241344, Note_on_c, 1, 60, 110
3, 241532, Note_off_c, 1, 72, 100
3, 241532, Note_off_c, 1, 60, 100
3, 241728, Note_on_c, 1, 70, 110
3, 241728, Note_on_c, 1, 58, 110
3, 241916, Note_off_c, 1, 70, 100
3, 241916, Note_off_c, 1, 58, 100
3, 242112, Note_on_c, 1, 67, 110
3, 242112, Note_on_c, 1, 55, 110
3, 242300, Note_off_c, 1, 67, 100
3, 242300, Note_off_c, 1, 55, 100
3, 242496, Note_on_c, 1, 65, 110
3, 242496, Note_on_c, 1, 53, 110
3, 242684, Note_off_c, 1, 65, 100
3, 242684, Note_off_c, 1, 53, 100
3, 242880, Note_on_c, 1, 63, 110
3, 242880, Note_on_c, 1, 51, 110
3, 243068, Note_off_c, 1, 63, 100
3, 243068, Note_off_c, 1, 51, 100
3, 243264, Note_on_c, 1, 50, 110
3, 243264, Note_on_c, 1, 62, 110
3, 243452, Note_off_c, 1, 50, 100
3, 243452, Note_off_c, 1, 62, 100
3, 243648, Note_on_c, 1, 60, 110
3, 243648, Note_on_c, 1, 48, 110
3, 243836, Note_off_c, 1, 60, 100
3, 243836, Note_off_c, 1, 48, 100
3, 244032, Note_on_c, 1, 58, 110
3, 244032, Note_on_c, 1, 46, 110
3, 244220, Note_off_c, 1, 58, 100
3, 244220, Note_off_c, 1, 46, 100
3, 244416, Note_on_c, 1, 55, 110
3, 244416, Note_on_c, 1, 43, 110
3, 244604, Note_off_c, 1, 55, 100
3, 244604, Note_off_c, 1, 43, 100
3, 244800, Note_on_c, 1, 53, 110
3, 244800, Note_on_c, 1, 41, 110
3, 244988, Note_off_c, 1, 53, 100
3, 244988, Note_off_c, 1, 41, 100
3, 245184, Note_on_c, 1, 51, 110
3, 245184, Note_on_c, 1, 39, 110
3, 245372, Note_off_c, 1, 51, 100
3, 245372, Note_off_c, 1, 39, 100
3, 245568, Note_on_c, 1, 50, 110
3, 245568, Note_on_c, 1, 38, 110
3, 245756, Note_off_c, 1, 50, 100
3, 245756, Note_off_c, 1, 38, 100
3, 245952, Note_on_c, 1, 48, 110
3, 245952, Note_on_c, 1, 36, 110
3, 246140, Note_off_c, 1, 48, 100
3, 246140, Note_off_c, 1, 36, 100
3, 246336, Note_on_c, 1, 46, 110
3, 246336, Note_on_c, 1, 34, 110
3, 246524, Note_off_c, 1, 46, 100
3, 246524, Note_off_c, 1, 34, 100
3, 246720, Note_on_c, 1, 31, 110
3, 246720, Note_on_c, 1, 43, 110
3, 246908, Note_off_c, 1, 31, 100
3, 246908, Note_off_c, 1, 43, 100
3, 247104, Note_on_c, 1, 41, 110
3, 247104, Note_on_c, 1, 29, 110
3, 247292, Note_off_c, 1, 41, 100
3, 247292, Note_off_c, 1, 29, 100
3, 247296, Control_c, 1, 64, 127
3, 247488, Note_on_c, 1, 33, 109
3, 247872, Note_on_c, 1, 29, 106
3, 248252, Note_off_c, 1, 33, 100
3, 248256, Note_on_c, 1, 36, 104
3, 248636, Note_off_c, 1, 29, 100
3, 248640, Note_on_c, 1, 29, 101
3, 249020, Note_off_c, 1, 36, 64
3, 249024, Note_on_c, 1, 41, 98
3, 249404, Note_off_c, 1, 29, 64
3, 249408, Note_on_c, 1, 29, 95
3, 249788, Note_off_c, 1, 41, 100
3, 249792, Note_on_c, 1, 45, 93
3, 250172, Note_off_c, 1, 29, 100
3, 250176, Note_on_c, 1, 29, 90
3, 250556, Note_off_c, 1, 45, 64
3, 250560, Note_on_c, 1, 48, 87
3, 250940, Note_off_c, 1, 29, 64
3, 250944, Note_on_c, 1, 29, 84
3, 251324, Note_off_c, 1, 48, 100
3, 251328, Note_on_c, 1, 53, 82
3, 251708, Note_off_c, 1, 29, 100
3, 251712, Note_on_c, 1, 29, 79
3, 252092, Note_off_c, 1, 53, 64
3, 252096, Note_on_c, 1, 53, 76
3, 252476, Note_off_c, 1, 29, 64
3, 252480, Note_on_c, 1, 29, 73
3, 252860, Note_off_c, 1, 53, 100
3, 252864, Note_on_c, 1, 53, 71
3, 253048, Control_c, 1, 64, 0
3, 253244, Note_off_c, 1, 29, 100
3, 253248, Note_on_c, 1, 29, 110
3, 253436, Note_off_c, 1, 53, 100
3, 253436, Note_off_c, 1, 29, 100
3, 253440, Control_c, 1, 64, 127
3, 253440, Note_on_c, 1, 62, 110
3, 253440, Note_on_c, 1, 58, 110
3, 253440, Note_on_c, 1, 53, 110
3, 254012, Note_off_c, 1, 62, 100
3, 254012, Note_off_c, 1, 58, 100
3, 254012, Note_off_c, 1, 53, 100
3, 254016, Note_on_c, 1, 62, 110
3, 254016, Note_on_c, 1, 58, 110
3, 254016, Note_on_c, 1, 53, 110
3, 254204, Note_off_c, 1, 62, 100
3, 254204, Note_off_c, 1, 58, 100
3, 254204, Note_off_c, 1, 53, 100
3, 254208, Note_on_c, 1, 62, 110
3, 254208, Note_on_c, 1, 58, 110
3, 254208, Note_on_c, 1, 53, 110
3, 254588, Note_off_c, 1, 62, 100
3, 254588, Note_off_c, 1, 58, 100
3, 254588, Note_off_c, 1, 53, 100
3, 254592, Note_on_c, 1, 62, 110
3, 254592, Note_on_c, 1, 58, 110
3, 254592, Note_on_c, 1, 53, 110
3, 254780, Note_off_c, 1, 62, 100
3, 254780, Note_off_c, 1, 58, 100
3, 254780, Note_off_c, 1, 53, 100
3, 254784, Note_on_c, 1, 62, 110
3, 254784, Note_on_c, 1, 58, 110
3, 254784, Note_on_c, 1, 53, 110
3, 254972, Note_off_c, 1, 62, 100
3, 254972, Note_off_c, 1, 58, 100
3, 254972, Note_off_c, 1, 53, 100
3, 254976, Note_on_c, 1, 62, 110
3, 254976, Note_on_c, 1, 58, 110
3, 254976, Note_on_c, 1, 53, 110
3, 255356, Note_off_c, 1, 62, 100
3, 255356, Note_off_c, 1, 58, 100
3, 255356, Note_off_c, 1, 53, 100
3, 255360, Note_on_c, 1, 58, 110
3, 255360, Note_on_c, 1, 53, 110
3, 255360, Note_on_c, 1, 50, 110
3, 255740, Note_off_c, 1, 58, 100
3, 255740, Note_off_c, 1, 53, 100
3, 255740, Note_off_c, 1, 50, 100
3, 256320, Note_on_c, 1, 34, 110
3, 256508, Note_off_c, 1, 34, 100
3, 256512, Note_on_c, 1, 62, 110
3, 256512, Note_on_c, 1, 58, 110
3, 256512, Note_on_c, 1, 53, 110
3, 256512, Note_on_c, 1, 50, 110
3, 257080, Control_c, 1, 64, 0
3, 257084, Note_off_c, 1, 62, 100
3, 257084, Note_off_c, 1, 58, 100
3, 257084, Note_off_c, 1, 53, 100
3, 257084, Note_off_c, 1, 50, 100
3, 257088, Note_on_c, 1, 62, 110
3, 257088, Note_on_c, 1, 58, 110
3, 257088, Note_on_c, 1, 53, 110
3, 257088, Note_on_c, 1, 50, 110
3, 257276, Note_off_c, 1, 62, 100
3, 257276, Note_off_c, 1, 58, 100
3, 257276, Note_off_c, 1, 53, 100
3, 257276, Note_off_c, 1, 50, 100
3, 257280, Control_c, 1, 64, 127
3, 257280, Note_on_c, 1, 62, 110
3, 257280, Note_on_c, 1, 50, 110
3, 257660, Note_off_c, 1, 62, 100
3, 257660, Note_off_c, 1, 50, 100
3, 257664, Note_on_c, 1, 62, 110
3, 257664, Note_on_c, 1, 57, 110
3, 257664, Note_on_c, 1, 54, 110
3, 257664, Note_on_c, 1, 50, 110
3, 257852, Note_off_c, 1, 62, 100
3, 257852, Note_off_c, 1, 57, 100
3, 257852, Note_off_c, 1, 54, 100
3, 257852, Note_off_c, 1, 50, 100
3, 257856, Note_on_c, 1, 62, 110
3, 257856, Note_on_c, 1, 57, 110
3, 257856, Note_on_c, 1, 54, 110
3, 257856, Note_on_c, 1, 50, 110
3, 258044, Note_off_c, 1, 62, 100
3, 258044, Note_off_c, 1, 57, 100
3, 258044, Note_off_c, 1, 54, 100
3, 258044, Note_off_c, 1, 50, 100
3, 258048, Note_on_c, 1, 62, 110
3, 258048, Note_on_c, 1, 57, 110
3, 258048, Note_on_c, 1, 54, 110
3, 258048, Note_on_c, 1, 50, 110
3, 258428, Note_off_c, 1, 62, 100
3, 258428, Note_off_c, 1, 57, 100
3, 258428, Note_off_c, 1, 54, 100
3, 258428, Note_off_c, 1, 50, 100
3, 258432, Note_on_c, 1, 62, 110
3, 258432, Note_on_c, 1, 57, 110
3, 258432, Note_on_c, 1, 54, 110
3, 258432, Note_on_c, 1, 50, 110
3, 260348, Note_off_c, 1, 50, 64
3, 260348, Note_off_c, 1, 54, 64
3, 260348, Note_off_c, 1, 57, 64
3, 260348, Note_off_c, 1, 62, 64
3, 260728, Control_c, 1, 64, 0
3, 260928, Note_on_c, 1, 50, 80
3, 261116, Note_off_c, 1, 50, 100
3, 261120, Note_on_c, 1, 62, 80
3, 261692, Note_off_c, 1, 62, 100
3, 261696, Note_on_c, 1, 50, 80
3, 261884, Note_off_c, 1, 50, 100
3, 261888, Note_on_c, 1, 62, 80
3, 262460, Note_off_c, 1, 62, 100
3, 262464, Note_on_c, 1, 50, 80
3, 262652, Note_off_c, 1, 50, 100
3, 262656, Note_on_c, 1, 62, 80
3, 263228, Note_off_c, 1, 62, 100
3, 263232, Note_on_c, 1, 50, 80
3, 263420, Note_off_c, 1, 50, 100
3, 263424, Note_on_c, 1, 62, 80
3, 263996, Note_off_c, 1, 62, 100
3, 264000, Note_on_c, 1, 50, 80
3, 264188, Note_off_c, 1, 50, 100
3, 264192, Note_on_c, 1, 60, 80
3, 264192, Note_on_c, 1, 57, 80
3, 264764, Note_off_c, 1, 60, 100
3, 264764, Note_off_c, 1, 57, 100
3, 264768, Note_on_c, 1, 50, 83
3, 264956, Note_off_c, 1, 50, 100
3, 264960, Note_on_c, 1, 60, 84
3, 264960, Note_on_c, 1, 57, 84
3, 265532, Note_off_c, 1, 60, 100
3, 265532, Note_off_c, 1, 57, 100
3, 265536, Note_on_c, 1, 50, 87
3, 265724, Note_off_c, 1, 50, 100
3, 265728, Note_on_c, 1, 57, 88
3, 265728, Note_on_c, 1, 54, 88
3, 266300, Note_off_c, 1, 57, 100
3, 266300, Note_off_c, 1, 54, 100
3, 266304, Note_on_c, 1, 50, 91
3, 266492, Note_off_c, 1, 50, 100
3, 266496, Note_on_c, 1, 45, 92
3, 267068, Note_off_c, 1, 45, 100
3, 267072, Note_on_c, 1, 50, 96
3, 267260, Note_off_c, 1, 50, 100
3, 267264, Note_on_c, 1, 45, 97
3, 267836, Note_off_c, 1, 45, 100
3, 267840, Note_on_c, 1, 50, 100
3, 268028, Note_off_c, 1, 50, 100
3, 268032, Note_on_c, 1, 43, 101
3, 268604, Note_off_c, 1, 43, 100
3, 268608, Note_on_c, 1, 50, 104
3, 268796, Note_off_c, 1, 50, 100
3, 268800, Note_on_c, 1, 41, 105
3, 269372, Note_off_c, 1, 41, 100
3, 269376, Note_on_c, 1, 50, 108
3, 269564, Note_off_c, 1, 50, 100
3, 269568, Note_on_c, 1, 39, 109
3, 270140, Note_off_c, 1, 39, 100
3, 270144, Note_on_c, 1, 50, 110
3, 270332, Note_off_c, 1, 50, 100
3, 270336, Note_on_c, 1, 50, 110
3, 270336, Note_on_c, 1, 38, 110
3, 270716, Note_off_c, 1, 50, 100
3, 270716, Note_off_c, 1, 38, 100
3, 270720, Note_on_c, 1, 75, 110
3, 270908, Note_off_c, 1, 75, 100
3, 270912, Note_on_c, 1, 74, 108
3, 271100, Note_off_c, 1, 74, 100
3, 271104, Note_on_c, 1, 75, 106
3, 271484, Note_off_c, 1, 75, 100
3, 271488, Note_on_c, 1, 74, 101
3, 271676, Note_off_c, 1, 74, 100
3, 271680, Note_on_c, 1, 73, 99
3, 271868, Note_off_c, 1, 73, 100
3, 271872, Note_on_c, 1, 74, 97
3, 272252, Note_off_c, 1, 74, 100
3, 272256, Note_on_c, 1, 63, 92
3, 272444, Note_off_c, 1, 63, 100
3, 272448, Note_on_c, 1, 62, 90
3, 272636, Note_off_c, 1, 62, 100
3, 272640, Note_on_c, 1, 63, 87
3, 273020, Note_off_c, 1, 63, 100
3, 273024, Note_on_c, 1, 62, 83
3, 273212, Note_off_c, 1, 62, 100
3, 273216, Note_on_c, 1, 61, 81
3, 273404, Note_off_c, 1, 61, 100
3, 273408, Note_on_c, 1, 62, 80
3, 273788, Note_off_c, 1, 62, 100
3, 273984, Note_on_c, 1, 50, 80
3, 274172, Note_off_c, 1, 50, 100
3, 274176, Note_on_c, 1, 54, 80
3, 274556, Note_off_c, 1, 54, 100
3, 274752, Note_on_c, 1, 57, 80
3, 274940, Note_off_c, 1, 57, 100
3, 274944, Note_on_c, 1, 60, 80
3, 275324, Note_off_c, 1, 60, 100
3, 275520, Note_on_c, 1, 66, 80
3, 275708, Note_off_c, 1, 66, 100
3, 275712, Note_on_c, 1, 69, 80
3, 276092, Note_off_c, 1, 69, 100
3, 276096, Note_on_c, 1, 72, 80
3, 276284, Note_off_c, 1, 72, 100
3, 276288, Note_on_c, 1, 69, 80
3, 276476, Note_off_c, 1, 69, 100
3, 276480, Note_on_c, 1, 81, 80
3, 276668, Note_off_c, 1, 81, 100
3, 276672, Note_on_c, 1, 83, 80
3, 276860, Note_off_c, 1, 83, 100
3, 276864, Note_on_c, 1, 84, 80
3, 277052, Note_off_c, 1, 84, 100
3, 277056, Note_on_c, 1, 81, 80
3, 277244, Note_off_c, 1, 81, 100
3, 277248, Note_on_c, 1, 72, 80
3, 277436, Note_off_c, 1, 72, 100
3, 277440, Note_on_c, 1, 74, 80
3, 277628, Note_off_c, 1, 74, 100
3, 277632, Note_on_c, 1, 76, 80
3, 277820, Note_off_c, 1, 76, 100
3, 277824, Note_on_c, 1, 72, 80
3, 278012, Note_off_c, 1, 72, 100
3, 278016, Note_on_c, 1, 69, 80
3, 278204, Note_off_c, 1, 69, 100
3, 278208, Note_on_c, 1, 71, 80
3, 278396, Note_off_c, 1, 71, 100
3, 278400, Note_on_c, 1, 72, 80
3, 278588, Note_off_c, 1, 72, 100
3, 278592, Note_on_c, 1, 69, 80
3, 278780, Note_off_c, 1, 69, 100
3, 278784, Note_on_c, 1, 66, 80
3, 278972, Note_off_c, 1, 66, 100
3, 278976, Note_on_c, 1, 67, 80
3, 279164, Note_off_c, 1, 67, 100
3, 279168, Note_on_c, 1, 69, 80
3, 279356, Note_off_c, 1, 69, 100
3, 279360, Note_on_c, 1, 66, 80
3, 279548, Note_off_c, 1, 66, 100
3, 279552, Note_on_c, 1, 71, 80
3, 279552, Note_on_c, 1, 67, 80
3, 279552, Note_on_c, 1, 62, 80
3, 279932, Note_off_c, 1, 71, 100
3, 279932, Note_off_c, 1, 67, 100
3, 279932, Note_off_c, 1, 62, 100
3, 280128, Note_on_c, 1, 50, 80
3, 280316, Note_off_c, 1, 50, 100
3, 280320, Note_on_c, 1, 55, 80
3, 280700, Note_off_c, 1, 55, 100
3, 280896, Note_on_c, 1, 59, 80
3, 281084, Note_off_c, 1, 59, 100
3, 281088, Note_on_c, 1, 62, 80
3, 281468, Note_off_c, 1, 62, 100
3, 281664, Note_on_c, 1, 67, 80
3, 281852, Note_off_c, 1, 67, 100
3, 281856, Note_on_c, 1, 71, 80
3, 282236, Note_off_c, 1, 71, 100
3, 282432, Note_on_c, 1, 74, 80
3, 282620, Note_off_c, 1, 74, 100
3, 282624, Note_on_c, 1, 79, 80
3, 282812, Note_off_c, 1, 79, 100
3, 282816, Note_on_c, 1, 81, 80
3, 283004, Note_off_c, 1, 81, 100
3, 283008, Note_on_c, 1, 83, 80
3, 283196, Note_off_c, 1, 83, 100
3, 283200, Note_on_c, 1, 79, 80
3, 283388, Note_off_c, 1, 79, 100
3, 283392, Note_on_c, 1, 71, 80
3, 283580, Note_off_c, 1, 71, 100
3, 283584, Note_on_c, 1, 72, 80
3, 283772, Note_off_c, 1, 72, 100
3, 283776, Note_on_c, 1, 74, 80
3, 283964, Note_off_c, 1, 74, 100
3, 283968, Note_on_c, 1, 71, 80
3, 284156, Note_off_c, 1, 71, 100
3, 284160, Note_on_c, 1, 67, 80
3, 284348, Note_off_c, 1, 67, 100
3, 284352, Note_on_c, 1, 69, 80
3, 284540, Note_off_c, 1, 69, 100
3, 284544, Note_on_c, 1, 71, 80
3, 284732, Note_off_c, 1, 71, 100
3, 284736, Note_on_c, 1, 67, 80
3, 284924, Note_off_c, 1, 67, 100
3, 284928, Note_on_c, 1, 71, 80
3, 285116, Note_off_c, 1, 71, 100
3, 285120, Note_on_c, 1, 72, 80
3, 285308, Note_off_c, 1, 72, 100
3, 285312, Note_on_c, 1, 74, 80
3, 285500, Note_off_c, 1, 74, 100
3, 285504, Note_on_c, 1, 71, 80
3, 285692, Note_off_c, 1, 71, 100
3, 285696, Note_on_c, 1, 72, 80
3, 285884, Note_off_c, 1, 72, 100
3, 285888, Note_on_c, 1, 74, 80
3, 286076, Note_off_c, 1, 74, 100
3, 286080, Note_on_c, 1, 72, 80
3, 286268, Note_off_c, 1, 72, 100
3, 286272, Note_on_c, 1, 71, 80
3, 286460, Note_off_c, 1, 71, 100
3, 286464, Note_on_c, 1, 72, 80
3, 286652, Note_off_c, 1, 72, 100
3, 286656, Note_on_c, 1, 74, 80
3, 286844, Note_off_c, 1, 74, 100
3, 286848, Note_on_c, 1, 76, 80
3, 287036, Note_off_c, 1, 76, 100
3, 287040, Note_on_c, 1, 72, 80
3, 287228, Note_off_c, 1, 72, 100
3, 287232, Note_on_c, 1, 69, 80
3, 287420, Note_off_c, 1, 69, 100
3, 287424, Note_on_c, 1, 71, 80
3, 287612, Note_off_c, 1, 71, 100
3, 287616, Note_on_c, 1, 72, 80
3, 287804, Note_off_c, 1, 72, 100
3, 287808, Note_on_c, 1, 69, 80
3, 287996, Note_off_c, 1, 69, 100
3, 288000, Note_on_c, 1, 66, 80
3, 288188, Note_off_c, 1, 66, 100
3, 288192, Note_on_c, 1, 67, 80
3, 288380, Note_off_c, 1, 67, 100
3, 288384, Note_on_c, 1, 69, 80
3, 288572, Note_off_c, 1, 69, 100
3, 288576, Note_on_c, 1, 66, 80
3, 288764, Note_off_c, 1, 66, 100
3, 288768, Note_on_c, 1, 60, 80
3, 288956, Note_off_c, 1, 60, 100
3, 288960, Note_on_c, 1, 62, 80
3, 289148, Note_off_c, 1, 62, 100
3, 289152, Note_on_c, 1, 64, 80
3, 289340, Note_off_c, 1, 64, 100
3, 289344, Note_on_c, 1, 60, 80
3, 289532, Note_off_c, 1, 60, 100
3, 289536, Note_on_c, 1, 57, 80
3, 289724, Note_off_c, 1, 57, 100
3, 289728, Note_on_c, 1, 59, 80
3, 289916, Note_off_c, 1, 59, 100
3, 289920, Note_on_c, 1, 60, 80
3, 290108, Note_off_c, 1, 60, 100
3, 290112, Note_on_c, 1, 57, 80
3, 290300, Note_off_c, 1, 57, 100
3, 290304, Note_on_c, 1, 54, 80
3, 290492, Note_off_c, 1, 54, 100
3, 290496, Note_on_c, 1, 55, 80
3, 290684, Note_off_c, 1, 55, 100
3, 290688, Note_on_c, 1, 57, 80
3, 290876, Note_off_c, 1, 57, 100
3, 290880, Note_on_c, 1, 54, 80
3, 291068, Note_off_c, 1, 54, 100
3, 291072, Note_on_c, 1, 69, 80
3, 291260, Note_off_c, 1, 69, 100
3, 291264, Note_on_c, 1, 67, 80
3, 291452, Note_off_c, 1, 67, 100
3, 291456, Note_on_c, 1, 66, 80
3, 291644, Note_off_c, 1, 66, 100
3, 291648, Note_on_c, 1, 69, 80
3, 291836, Note_off_c, 1, 69, 100
3, 291840, Note_on_c, 1, 71, 80
3, 292028, Note_off_c, 1, 71, 100
3, 292032, Note_on_c, 1, 72, 80
3, 292220, Note_off_c, 1, 72, 100
3, 292224, Note_on_c, 1, 71, 80
3, 292412, Note_off_c, 1, 71, 100
3, 292416, Note_on_c, 1, 69, 80
3, 292604, Note_off_c, 1, 69, 100
3, 292608, Note_on_c, 1, 71, 80
3, 292796, Note_off_c, 1, 71, 100
3, 292800, Note_on_c, 1, 72, 80
3, 292988, Note_off_c, 1, 72, 100
3, 292992, Note_on_c, 1, 74, 80
3, 293180, Note_off_c, 1, 74, 100
3, 293184, Note_on_c, 1, 71, 80
3, 293372, Note_off_c, 1, 71, 100
3, 293376, Note_on_c, 1, 67, 80
3, 293564, Note_off_c, 1, 67, 100
3, 293568, Note_on_c, 1, 69, 80
3, 293756, Note_off_c, 1, 69, 100
3, 293760, Note_on_c, 1, 71, 80
3, 293948, Note_off_c, 1, 71, 100
3, 293952, Note_on_c, 1, 67, 80
3, 294140, Note_off_c, 1, 67, 100
3, 294144, Note_on_c, 1, 62, 80
3, 294332, Note_off_c, 1, 62, 100
3, 294336, Note_on_c, 1, 66, 80
3, 294524, Note_off_c, 1, 66, 100
3, 294528, Note_on_c, 1, 67, 80
3, 294716, Note_off_c, 1, 67, 100
3, 294720, Note_on_c, 1, 62, 80
3, 294908, Note_off_c, 1, 62, 100
3, 294912, Note_on_c, 1, 59, 80
3, 295100, Note_off_c, 1, 59, 100
3, 295104, Note_on_c, 1, 60, 80
3, 295292, Note_off_c, 1, 60, 100
3, 295296, Note_on_c, 1, 62, 80
3, 295484, Note_off_c, 1, 62, 100
3, 295488, Note_on_c, 1, 59, 80
3, 295676, Note_off_c, 1, 59, 100
3, 295680, Note_on_c, 1, 55, 80
3, 295868, Note_off_c, 1, 55, 100
3, 295872, Note_on_c, 1, 57, 80
3, 296060, Note_off_c, 1, 57, 100
3, 296064, Note_on_c, 1, 59, 80
3, 296252, Note_off_c, 1, 59, 100
3, 296256, Note_on_c, 1, 55, 80
3, 296444, Note_off_c, 1, 55, 100
3, 296448, Note_on_c, 1, 50, 80
3, 296636, Note_off_c, 1, 50, 100
3, 296640, Note_on_c, 1, 54, 80
3, 296828, Note_off_c, 1, 54, 100
3, 296832, Note_on_c, 1, 55, 80
3, 297020, Note_off_c, 1, 55, 100
3, 297024, Note_on_c, 1, 50, 80
3, 297212, Note_off_c, 1, 50, 100
3, 297216, Note_on_c, 1, 48, 80
3, 297404, Note_off_c, 1, 48, 100
3, 297408, Note_on_c, 1, 55, 80
3, 297596, Note_off_c, 1, 55, 100
3, 297600, Note_on_c, 1, 50, 80
3, 297788, Note_off_c, 1, 50, 100
3, 297792, Note_on_c, 1, 48, 80
3, 297980, Note_off_c, 1, 48, 100
3, 297984, Note_on_c, 1, 47, 80
3, 298364, Note_off_c, 1, 47, 100
3, 298368, Note_on_c, 1, 55, 80
3, 298368, Note_on_c, 1, 43, 80
3, 298748, Note_off_c, 1, 55, 100
3, 298748, Note_off_c, 1, 43, 100
3, 298752, Note_on_c, 1, 52, 80
3, 298752, Note_on_c, 1, 48, 80
3, 298940, Note_off_c, 1, 52, 100
3, 298940, Note_off_c, 1, 48, 100
3, 299136, Note_on_c, 1, 60, 80
3, 299324, Note_off_c, 1, 60, 100
3, 299328, Note_on_c, 1, 57, 80
3, 299516, Note_off_c, 1, 57, 100
3, 299520, Note_on_c, 1, 54, 80
3, 299900, Note_off_c, 1, 54, 100
3, 299904, Note_on_c, 1, 62, 80
3, 299904, Note_on_c, 1, 50, 80
3, 300284, Note_off_c, 1, 62, 100
3, 300284, Note_off_c, 1, 50, 100
3, 300288, Note_on_c, 1, 59, 80
3, 300288, Note_on_c, 1, 55, 80
3, 300476, Note_off_c, 1, 59, 100
3, 300476, Note_off_c, 1, 55, 100
3, 300672, Note_on_c, 1, 55, 80
3, 300672, Note_on_c, 1, 64, 80
3, 301436, Note_off_c, 1, 55, 64
3, 301436, Note_off_c, 1, 64, 64
3, 301440, Note_on_c, 1, 64, 80
3, 301440, Note_on_c, 1, 55, 80
3, 301820, Note_off_c, 1, 64, 100
3, 301820, Note_off_c, 1, 55, 100
3, 301824, Note_on_c, 1, 66, 80
3, 301824, Note_on_c, 1, 57, 80
3, 302204, Note_off_c, 1, 66, 100
3, 302204, Note_off_c, 1, 57, 100
3, 302208, Note_on_c, 1, 57, 80
3, 302208, Note_on_c, 1, 67, 80
3, 302396, Note_off_c, 1, 67, 100
3, 302400, Note_on_c, 1, 69, 80
3, 302588, Note_off_c, 1, 57, 100
3, 302588, Note_off_c, 1, 69, 100
3, 302592, Note_on_c, 1, 69, 80
3, 302592, Note_on_c, 1, 62, 80
3, 302972, Note_off_c, 1, 69, 100
3, 302976, Note_on_c, 1, 71, 80
3, 303260, Note_off_c, 1, 71, 100
3, 303264, Note_on_c, 1, 73, 80
3, 303356, Note_off_c, 1, 73, 100
3, 303360, Note_on_c, 1, 74, 80
3, 303740, Note_off_c, 1, 62, 100
3, 303740, Note_off_c, 1, 74, 100
3, 303744, Note_on_c, 1, 76, 80
3, 303932, Note_off_c, 1, 76, 100
3, 303936, Note_on_c, 1, 78, 80
3, 304124, Note_off_c, 1, 78, 100
3, 304128, Note_on_c, 1, 79, 80
3, 304508, Note_off_c, 1, 79, 100
3, 304512, Note_on_c, 1, 74, 80
3, 304512, Note_on_c, 1, 71, 80
3, 304892, Note_off_c, 1, 74, 100
3, 304892, Note_off_c, 1, 71, 100
3, 304896, Note_on_c, 1, 76, 80
3, 304896, Note_on_c, 1, 72, 80
3, 305084, Note_off_c, 1, 76, 100
3, 305084, Note_off_c, 1, 72, 100
3, 305280, Note_on_c, 1, 69, 80
3, 305468, Note_off_c, 1, 69, 100
3, 305472, Note_on_c, 1, 72, 80
3, 305660, Note_off_c, 1, 72, 100
3, 305664, Note_on_c, 1, 74, 80
3, 306044, Note_off_c, 1, 74, 100
3, 306048, Note_on_c, 1, 69, 80
3, 306048, Note_on_c, 1, 66, 80
3, 306428, Note_off_c, 1, 69, 100
3, 306428, Note_off_c, 1, 66, 100
3, 306432, Note_on_c, 1, 71, 80
3, 306432, Note_on_c, 1, 67, 80
3, 306620, Note_off_c, 1, 71, 100
3, 306620, Note_off_c, 1, 67, 100
3, 307200, Note_on_c, 1, 71, 80
3, 307200, Note_on_c, 1, 67, 80
3, 307200, Note_on_c, 1, 64, 80
3, 307580, Note_off_c, 1, 71, 100
3, 307580, Note_off_c, 1, 67, 100
3, 307580, Note_off_c, 1, 64, 100
3, 307584, Note_on_c, 1, 72, 80
3, 307584, Note_on_c, 1, 67, 80
3, 307584, Note_on_c, 1, 64, 80
3, 307964, Note_off_c, 1, 72, 100
3, 307964, Note_off_c, 1, 67, 100
3, 307964, Note_off_c, 1, 64, 100
3, 307968, Note_on_c, 1, 72, 80
3, 307968, Note_on_c, 1, 64, 80
3, 307968, Note_on_c, 1, 67, 80
3, 308156, Note_off_c, 1, 67, 100
3, 308160, Note_on_c, 1, 69, 80
3, 308348, Note_off_c, 1, 72, 100
3, 308348, Note_off_c, 1, 64, 100
3, 308348, Note_off_c, 1, 69, 100
3, 308352, Note_on_c, 1, 71, 80
3, 308352, Note_on_c, 1, 66, 80
3, 308352, Note_on_c, 1, 63, 80
3, 308732, Note_off_c, 1, 71, 100
3, 308732, Note_off_c, 1, 66, 100
3, 308732, Note_off_c, 1, 63, 100
3, 308736, Note_on_c, 1, 71, 80
3, 308736, Note_on_c, 1, 66, 80
3, 308736, Note_on_c, 1, 63, 80
3, 309116, Note_off_c, 1, 71, 100
3, 309116, Note_off_c, 1, 66, 100
3, 309116, Note_off_c, 1, 63, 100
3, 309120, Note_on_c, 1, 63, 80
3, 309120, Note_on_c, 1, 59, 80
3, 309500, Note_off_c, 1, 63, 100
3, 309500, Note_off_c, 1, 59, 100
3, 309504, Note_on_c, 1, 67, 80
3, 309504, Note_on_c, 1, 64, 80
3, 309884, Note_off_c, 1, 67, 100
3, 309884, Note_off_c, 1, 64, 100
3, 309888, Note_on_c, 1, 65, 80
3, 309888, Note_on_c, 1, 62, 80
3, 310076, Note_off_c, 1, 65, 100
3, 310076, Note_off_c, 1, 62, 100
3, 310080, Note_on_c, 1, 64, 80
3, 310080, Note_on_c, 1, 61, 80
3, 310268, Note_off_c, 1, 64, 100
3, 310268, Note_off_c, 1, 61, 100
3, 310272, Note_on_c, 1, 64, 80
3, 310272, Note_on_c, 1, 61, 80
3, 310652, Note_off_c, 1, 64, 100
3, 310652, Note_off_c, 1, 61, 100
3, 310656, Note_on_c, 1, 61, 80
3, 310656, Note_on_c, 1, 57, 80
3, 311036, Note_off_c, 1, 61, 100
3, 311036, Note_off_c, 1, 57, 100
3, 311040, Note_on_c, 1, 65, 80
3, 311040, Note_on_c, 1, 62, 80
3, 311420, Note_off_c, 1, 65, 100
3, 311420, Note_off_c, 1, 62, 100
3, 311424, Note_on_c, 1, 63, 80
3, 311424, Note_on_c, 1, 60, 80
3, 311612, Note_off_c, 1, 63, 100
3, 311612, Note_off_c, 1, 60, 100
3, 311616, Note_on_c, 1, 62, 80
3, 311616, Note_on_c, 1, 59, 80
3, 311804, Note_off_c, 1, 62, 100
3, 311804, Note_off_c, 1, 59, 100
3, 311808, Note_on_c, 1, 62, 80
3, 311808, Note_on_c, 1, 59, 80
3, 312188, Note_off_c, 1, 62, 100
3, 312188, Note_off_c, 1, 59, 100
3, 312192, Note_on_c, 1, 59, 80
3, 312192, Note_on_c, 1, 55, 80
3, 312572, Note_off_c, 1, 59, 100
3, 312572, Note_off_c, 1, 55, 100
3, 312576, Note_on_c, 1, 64, 80
3, 312576, Note_on_c, 1, 60, 80
3, 312956, Note_off_c, 1, 64, 100
3, 312956, Note_off_c, 1, 60, 100
3, 312960, Note_on_c, 1, 62, 80
3, 312960, Note_on_c, 1, 59, 80
3, 313148, Note_off_c, 1, 62, 100
3, 313148, Note_off_c, 1, 59, 100
3, 313152, Note_on_c, 1, 61, 80
3, 313152, Note_on_c, 1, 58, 80
3, 313340, Note_off_c, 1, 61, 100
3, 313340, Note_off_c, 1, 58, 100
3, 313344, Note_on_c, 1, 58, 80
3, 313344, Note_on_c, 1, 61, 80
3, 313724, Note_off_c, 1, 58, 100
3, 313724, Note_off_c, 1, 61, 100
3, 313728, Note_on_c, 1, 58, 80
3, 313728, Note_on_c, 1, 54, 80
3, 314108, Note_off_c, 1, 58, 100
3, 314108, Note_off_c, 1, 54, 100
3, 314112, Note_on_c, 1, 62, 80
3, 314112, Note_on_c, 1, 59, 80
3, 314492, Note_off_c, 1, 62, 100
3, 314492, Note_off_c, 1, 59, 100
3, 314496, Note_on_c, 1, 60, 80
3, 314496, Note_on_c, 1, 57, 80
3, 314684, Note_off_c, 1, 60, 100
3, 314684, Note_off_c, 1, 57, 100
3, 314688, Note_on_c, 1, 59, 80
3, 314688, Note_on_c, 1, 56, 80
3, 315260, Note_off_c, 1, 56, 64
3, 315260, Note_off_c, 1, 59, 64
3, 315264, Note_on_c, 1, 64, 80
3, 315264, Note_on_c, 1, 57, 80
3, 315452, Note_off_c, 1, 57, 100
3, 315456, Note_on_c, 1, 55, 80
3, 315644, Note_off_c, 1, 64, 100
3, 315644, Note_off_c, 1, 55, 100
3, 315648, Note_on_c, 1, 57, 80
3, 315648, Note_on_c, 1, 54, 80
3, 316028, Note_off_c, 1, 57, 100
3, 316028, Note_off_c, 1, 54, 100
3, 316032, Note_on_c, 1, 59, 80
3, 316032, Note_on_c, 1, 55, 80
3, 316220, Note_off_c, 1, 55, 100
3, 316224, Note_on_c, 1, 47, 80
3, 316412, Note_off_c, 1, 59, 100
3, 316412, Note_off_c, 1, 47, 100
3, 316416, Note_on_c, 1, 60, 80
3, 316416, Note_on_c, 1, 45, 80
3, 316416, Note_on_c, 1, 50, 80
3, 318716, Note_off_c, 1, 45, 64
3, 318716, Note_off_c, 1, 50, 64
3, 318716, Note_off_c, 1, 60, 64
3, 318720, Note_on_c, 1, 59, 80
3, 318720, Note_on_c, 1, 50, 80
3, 318720, Note_on_c, 1, 47, 80
3, 319484, Note_off_c, 1, 59, 100
3, 319484, Note_off_c, 1, 50, 100
3, 319484, Note_off_c, 1, 47, 100
3, 319488, Note_on_c, 1, 60, 80
3, 319488, Note_on_c, 1, 45, 80
3, 319488, Note_on_c, 1, 50, 80
3, 321788, Note_off_c, 1, 45, 64
3, 321788, Note_off_c, 1, 50, 64
3, 321788, Note_off_c, 1, 60, 64
3, 321792, Note_on_c, 1, 59, 80
3, 321792, Note_on_c, 1, 50, 80
3, 321792, Note_on_c, 1, 47, 80
3, 322556, Note_off_c, 1, 59, 100
3, 322556, Note_off_c, 1, 50, 100
3, 322556, Note_off_c, 1, 47, 100
3, 322560, Note_on_c, 1, 47, 80
3, 322560, Note_on_c, 1, 35, 80
3, 323324, Note_off_c, 1, 47, 100
3, 323324, Note_off_c, 1, 35, 100
3, 323328, Note_on_c, 1, 52, 80
3, 323328, Note_on_c, 1, 40, 80
3, 324092, Note_off_c, 1, 52, 100
3, 324092, Note_off_c, 1, 40, 100
3, 324096, Note_on_c, 1, 49, 80
3, 324096, Note_on_c, 1, 37, 80
3, 324860, Note_off_c, 1, 49, 100
3, 324860, Note_off_c, 1, 37, 100
3, 324864, Note_on_c, 1, 50, 80
3, 324864, Note_on_c, 1, 38, 80
3, 325244, Note_off_c, 1, 50, 100
3, 325244, Note_off_c, 1, 38, 100
3, 325632, Note_on_c, 1, 72, 80
3, 325632, Note_on_c, 1, 57, 80
3, 325632, Note_on_c, 1, 62, 80
3, 327932, Note_off_c, 1, 57, 64
3, 327932, Note_off_c, 1, 62, 64
3, 327932, Note_off_c, 1, 72, 64
3, 327936, Note_on_c, 1, 71, 80
3, 327936, Note_on_c, 1, 62, 80
3, 327936, Note_on_c, 1, 59, 80
3, 328700, Note_off_c, 1, 71, 100
3, 328700, Note_off_c, 1, 62, 100
3, 328700, Note_off_c, 1, 59, 100
3, 328704, Note_on_c, 1, 60, 80
3, 328704, Note_on_c, 1, 50, 80
3, 328704, Note_on_c, 1, 45, 80
3, 331004, Note_off_c, 1, 45, 64
3, 331004, Note_off_c, 1, 50, 64
3, 331004, Note_off_c, 1, 60, 64
3, 331008, Note_on_c, 1, 59, 80
3, 331008, Note_on_c, 1, 50, 80
3, 331008, Note_on_c, 1, 47, 80
3, 331388, Note_off_c, 1, 59, 100
3, 331388, Note_off_c, 1, 50, 100
3, 331388, Note_off_c, 1, 47, 100
3, 331392, Note_on_c, 1, 59, 80
3, 331772, Note_off_c, 1, 59, 100
3, 331776, Note_on_c, 1, 59, 80
3, 332540, Note_off_c, 1, 59, 100
3, 332544, Note_on_c, 1, 64, 80
3, 333308, Note_off_c, 1, 64, 100
3, 333312, Note_on_c, 1, 61, 80
3, 334076, Note_off_c, 1, 61, 100
3, 334080, Note_on_c, 1, 62, 80
3, 334460, Note_off_c, 1, 62, 100
3, 334464, Note_on_c, 1, 63, 80
3, 334844, Note_off_c, 1, 63, 100
3, 334848, Note_on_c, 1, 65, 80
3, 335612, Note_off_c, 1, 65, 100
3, 335616, Note_on_c, 1, 69, 83
3, 336380, Note_off_c, 1, 69, 100
3, 336384, Note_on_c, 1, 66, 87
3, 337148, Note_off_c, 1, 66, 100
3, 337152, Note_on_c, 1, 67, 91
3, 337532, Note_off_c, 1, 67, 100
3, 337536, Note_on_c, 1, 68, 93
3, 337916, Note_off_c, 1, 68, 100
3, 337920, Note_on_c, 1, 69, 94
3, 338684, Note_off_c, 1, 69, 100
3, 338688, Note_on_c, 1, 73, 98
3, 339452, Note_off_c, 1, 73, 100
3, 339456, Note_on_c, 1, 71, 102
3, 340220, Note_off_c, 1, 71, 100
3, 340224, Note_on_c, 1, 72, 106
3, 340224, Note_on_c, 1, 60, 106
3, 341372, Note_off_c, 1, 60, 64
3, 341372, Note_off_c, 1, 72, 64
3, 341376, Note_on_c, 1, 48, 120
3, 341376, Note_on_c, 1, 36, 120
3, 341756, Note_off_c, 1, 48, 100
3, 341756, Note_off_c, 1, 36, 100
3, 342912, Note_on_c, 1, 64, 120
3, 342912, Note_on_c, 1, 60, 120
3, 343292, Note_off_c, 1, 64, 100
3, 343292, Note_off_c, 1, 60, 100
3, 343296, Note_on_c, 1, 62, 120
3, 343296, Note_on_c, 1, 59, 120
3, 343676, Note_off_c, 1, 62, 100
3, 343676, Note_off_c, 1, 59, 100
3, 343680, Note_on_c, 1, 64, 120
3, 343680, Note_on_c, 1, 60, 120
3, 343868, Note_off_c, 1, 64, 100
3, 343868, Note_off_c, 1, 60, 100
3, 343872, Note_on_c, 1, 65, 120
3, 343872, Note_on_c, 1, 62, 120
3, 344060, Note_off_c, 1, 65, 100
3, 344060, Note_off_c, 1, 62, 100
3, 344064, Note_on_c, 1, 67, 120
3, 344064, Note_on_c, 1, 64, 120
3, 344444, Note_off_c, 1, 67, 100
3, 344444, Note_off_c, 1, 64, 100
3, 344448, Note_on_c, 1, 48, 120
3, 344448, Note_on_c, 1, 36, 120
3, 345596, Note_off_c, 1, 48, 100
3, 345596, Note_off_c, 1, 36, 100
3, 345984, Note_on_c, 1, 49, 120
3, 345984, Note_on_c, 1, 37, 120
3, 346364, Note_off_c, 1, 49, 100
3, 346364, Note_off_c, 1, 37, 100
3, 346752, Note_on_c, 1, 45, 120
3, 346752, Note_on_c, 1, 33, 120
3, 347132, Note_off_c, 1, 45, 100
3, 347132, Note_off_c, 1, 33, 100
3, 347520, Note_on_c, 1, 50, 120
3, 347520, Note_on_c, 1, 38, 120
3, 347900, Note_off_c, 1, 50, 100
3, 347900, Note_off_c, 1, 38, 100
3, 348288, Note_on_c, 1, 52, 120
3, 348288, Note_on_c, 1, 40, 120
3, 348668, Note_off_c, 1, 52, 100
3, 348668, Note_off_c, 1, 40, 100
3, 348672, Note_on_c, 1, 38, 120
3, 348860, Note_off_c, 1, 38, 100
3, 348864, Note_on_c, 1, 42, 119
3, 349052, Note_off_c, 1, 42, 100
3, 349056, Note_on_c, 1, 43, 117
3, 349244, Note_off_c, 1, 43, 100
3, 349248, Note_on_c, 1, 47, 115
3, 349436, Note_off_c, 1, 47, 100
3, 349440, Note_on_c, 1, 50, 113
3, 349628, Note_off_c, 1, 50, 100
3, 349632, Note_on_c, 1, 54, 111
3, 349820, Note_off_c, 1, 54, 100
3, 349824, Note_on_c, 1, 55, 110
3, 350012, Note_off_c, 1, 55, 100
3, 350016, Note_on_c, 1, 59, 108
3, 350204, Note_off_c, 1, 59, 100
3, 350208, Note_on_c, 1, 62, 106
3, 350396, Note_off_c, 1, 62, 100
3, 350400, Note_on_c, 1, 66, 104
3, 350588, Note_off_c, 1, 66, 100
3, 350592, Note_on_c, 1, 67, 102
3, 350780, Note_off_c, 1, 67, 100
3, 350784, Note_on_c, 1, 71, 101
3, 350972, Note_off_c, 1, 71, 100
3, 351360, Note_on_c, 1, 67, 101
3, 351548, Note_off_c, 1, 67, 100
3, 351552, Note_on_c, 1, 71, 101
3, 351740, Note_off_c, 1, 71, 100
3, 351744, Note_on_c, 1, 73, 102
3, 351932, Note_off_c, 1, 73, 100
3, 351936, Note_on_c, 1, 74, 103
3, 352124, Note_off_c, 1, 74, 100
3, 352128, Note_on_c, 1, 76, 103
3, 352316, Note_off_c, 1, 76, 100
3, 352320, Note_on_c, 1, 74, 104
3, 352508, Note_off_c, 1, 74, 100
3, 352512, Note_on_c, 1, 78, 104
3, 352700, Note_off_c, 1, 78, 100
3, 352704, Note_on_c, 1, 79, 105
3, 352892, Note_off_c, 1, 79, 100
3, 352896, Note_on_c, 1, 81, 106
3, 353084, Note_off_c, 1, 81, 100
3, 353088, Note_on_c, 1, 79, 106
3, 353276, Note_off_c, 1, 79, 100
3, 353280, Note_on_c, 1, 82, 107
3, 353468, Note_off_c, 1, 82, 100
3, 353472, Note_on_c, 1, 83, 108
3, 353660, Note_off_c, 1, 83, 100
3, 353664, Note_on_c, 1, 84, 108
3, 353852, Note_off_c, 1, 84, 100
3, 353856, Note_on_c, 1, 83, 109
3, 354044, Note_off_c, 1, 83, 100
3, 354048, Note_on_c, 1, 86, 110
3, 354428, Note_off_c, 1, 86, 100
3, 354432, Note_on_c, 1, 62, 80
3, 354556, Note_off_c, 1, 62, 100
3, 354560, Note_on_c, 1, 64, 80
3, 354684, Note_off_c, 1, 64, 100
3, 354688, Note_on_c, 1, 66, 80
3, 354812, Note_off_c, 1, 66, 100
3, 354816, Note_on_c, 1, 55, 80
3, 355068, Note_off_c, 1, 55, 100
3, 355072, Note_on_c, 1, 71, 80
3, 355324, Note_off_c, 1, 71, 100
3, 355328, Note_on_c, 1, 67, 80
3, 355580, Note_off_c, 1, 67, 100
3, 355584, Note_on_c, 1, 66, 80
3, 355836, Note_off_c, 1, 66, 100
3, 355840, Note_on_c, 1, 71, 80
3, 356092, Note_off_c, 1, 71, 100
3, 356096, Note_on_c, 1, 67, 80
3, 356348, Note_off_c, 1, 67, 100
3, 356352, Note_on_c, 1, 63, 80
3, 356604, Note_off_c, 1, 63, 100
3, 356608, Note_on_c, 1, 72, 80
3, 356860, Note_off_c, 1, 72, 100
3, 356864, Note_on_c, 1, 67, 80
3, 357116, Note_off_c, 1, 67, 100
3, 357120, Note_on_c, 1, 60, 80
3, 357372, Note_off_c, 1, 60, 100
3, 357376, Note_on_c, 1, 72, 80
3, 357628, Note_off_c, 1, 72, 100
3, 357632, Note_on_c, 1, 67, 80
3, 357884, Note_off_c, 1, 67, 100
3, 357888, Note_on_c, 1, 59, 80
3, 358140, Note_off_c, 1, 59, 100
3, 358144, Note_on_c, 1, 71, 80
3, 358396, Note_off_c, 1, 71, 100
3, 358400, Note_on_c, 1, 67, 80
3, 358652, Note_off_c, 1, 67, 100
3, 358656, Note_on_c, 1, 55, 80
3, 358908, Note_off_c, 1, 55, 100
3, 358912, Note_on_c, 1, 71, 80
3, 359164, Note_off_c, 1, 71, 100
3, 359168, Note_on_c, 1, 67, 80
3, 359420, Note_off_c, 1, 67, 100
3, 359424, Note_on_c, 1, 60, 80
3, 359676, Note_off_c, 1, 60, 100
3, 359680, Note_on_c, 1, 72, 80
3, 359932, Note_off_c, 1, 72, 100
3, 359936, Note_on_c, 1, 67, 80
3, 360188, Note_off_c, 1, 67, 100
3, 360192, Note_on_c, 1, 63, 80
3, 360444, Note_off_c, 1, 63, 100
3, 360448, Note_on_c, 1, 72, 80
3, 360700, Note_off_c, 1, 72, 100
3, 360704, Note_on_c, 1, 67, 80
3, 360956, Note_off_c, 1, 67, 100
3, 360960, Note_on_c, 1, 62, 80
3, 361212, Note_off_c, 1, 62, 100
3, 361216, Note_on_c, 1, 70, 80
3, 361468, Note_off_c, 1, 70, 100
3, 361472, Note_on_c, 1, 67, 80
3, 361724, Note_off_c, 1, 67, 100
3, 361728, Note_on_c, 1, 62, 80
3, 361980, Note_off_c, 1, 62, 100
3, 361984, Note_on_c, 1, 71, 80
3, 362236, Note_off_c, 1, 71, 100
3, 362240, Note_on_c, 1, 67, 80
3, 362492, Note_off_c, 1, 67, 100
3, 362496, Note_on_c, 1, 62, 80
3, 362748, Note_off_c, 1, 62, 100
3, 362752, Note_on_c, 1, 72, 80
3, 363004, Note_off_c, 1, 72, 100
3, 363008, Note_on_c, 1, 69, 80
3, 363260, Note_off_c, 1, 69, 100
3, 363264, Note_on_c, 1, 50, 80
3, 363516, Note_off_c, 1, 50, 100
3, 363520, Note_on_c, 1, 62, 80
3, 363772, Note_off_c, 1, 62, 100
3, 363776, Note_on_c, 1, 60, 80
3, 364028, Note_off_c, 1, 60, 100
3, 364032, Note_on_c, 1, 43, 80
3, 364220, Note_off_c, 1, 43, 100
3, 364224, Note_on_c, 1, 55, 80
3, 364412, Note_off_c, 1, 55, 100
3, 364416, Note_on_c, 1, 59, 81
3, 364604, Note_off_c, 1, 59, 100
3, 364608, Note_on_c, 1, 55, 81
3, 364796, Note_off_c, 1, 55, 100
3, 364800, Note_on_c, 1, 54, 82
3, 364988, Note_off_c, 1, 54, 100
3, 364992, Note_on_c, 1, 55, 83
3, 365180, Note_off_c, 1, 55, 100
3, 365184, Note_on_c, 1, 67, 83
3, 365372, Note_off_c, 1, 67, 100
3, 365376, Note_on_c, 1, 55, 84
3, 365564, Note_off_c, 1, 55, 100
3, 365568, Note_on_c, 1, 52, 84
3, 365756, Note_off_c, 1, 52, 100
3, 365760, Note_on_c, 1, 55, 85
3, 365948, Note_off_c, 1, 55, 100
3, 365952, Note_on_c, 1, 67, 86
3, 366140, Note_off_c, 1, 67, 100
3, 366144, Note_on_c, 1, 55, 86
3, 366332, Note_off_c, 1, 55, 100
3, 366336, Note_on_c, 1, 48, 87
3, 366524, Note_off_c, 1, 48, 100
3, 366528, Note_on_c, 1, 55, 88
3, 366716, Note_off_c, 1, 55, 100
3, 366720, Note_on_c, 1, 64, 88
3, 366908, Note_off_c, 1, 64, 100
3, 366912, Note_on_c, 1, 55, 89
3, 367100, Note_off_c, 1, 55, 100
3, 367104, Note_on_c, 1, 47, 89
3, 367292, Note_off_c, 1, 47, 100
3, 367296, Note_on_c, 1, 55, 90
3, 367484, Note_off_c, 1, 55, 100
3, 367488, Note_on_c, 1, 62, 91
3, 367676, Note_off_c, 1, 62, 100
3, 367680, Note_on_c, 1, 55, 91
3, 367868, Note_off_c, 1, 55, 100
3, 367872, Note_on_c, 1, 43, 92
3, 368060, Note_off_c, 1, 43, 100
3, 368064, Note_on_c, 1, 55, 93
3, 368252, Note_off_c, 1, 55, 100
3, 368256, Note_on_c, 1, 59, 93
3, 368444, Note_off_c, 1, 59, 100
3, 368448, Note_on_c, 1, 55, 94
3, 368636, Note_off_c, 1, 55, 100
3, 368640, Note_on_c, 1, 48, 94
3, 368828, Note_off_c, 1, 48, 100
3, 368832, Note_on_c, 1, 55, 95
3, 369020, Note_off_c, 1, 55, 100
3, 369024, Note_on_c, 1, 64, 96
3, 369212, Note_off_c, 1, 64, 100
3, 369216, Note_on_c, 1, 55, 96
3, 369404, Note_off_c, 1, 55, 100
3, 369408, Note_on_c, 1, 52, 97
3, 369596, Note_off_c, 1, 52, 100
3, 369600, Note_on_c, 1, 55, 98
3, 369788, Note_off_c, 1, 55, 100
3, 369792, Note_on_c, 1, 67, 98
3, 369980, Note_off_c, 1, 67, 100
3, 369984, Note_on_c, 1, 55, 99
3, 370172, Note_off_c, 1, 55, 100
3, 370176, Note_on_c, 1, 50, 99
3, 370364, Note_off_c, 1, 50, 100
3, 370368, Note_on_c, 1, 52, 100
3, 370556, Note_off_c, 1, 52, 100
3, 370560, Note_on_c, 1, 54, 101
3, 370748, Note_off_c, 1, 54, 100
3, 370752, Note_on_c, 1, 55, 101
3, 370940, Note_off_c, 1, 55, 100
3, 370944, Note_on_c, 1, 57, 102
3, 371132, Note_off_c, 1, 57, 100
3, 371136, Note_on_c, 1, 59, 103
3, 371324, Note_off_c, 1, 59, 100
3, 371328, Note_on_c, 1, 57, 103
3, 371516, Note_off_c, 1, 57, 100
3, 371520, Note_on_c, 1, 55, 104
3, 371708, Note_off_c, 1, 55, 100
3, 371712, Note_on_c, 1, 54, 104
3, 371900, Note_off_c, 1, 54, 100
3, 371904, Note_on_c, 1, 55, 105
3, 372092, Note_off_c, 1, 55, 100
3, 372096, Note_on_c, 1, 54, 106
3, 372284, Note_off_c, 1, 54, 100
3, 372288, Note_on_c, 1, 52, 106
3, 372476, Note_off_c, 1, 52, 100
3, 372480, Note_on_c, 1, 50, 107
3, 372668, Note_off_c, 1, 50, 100
3, 372672, Note_on_c, 1, 48, 108
3, 372860, Note_off_c, 1, 48, 100
3, 372864, Note_on_c, 1, 47, 108
3, 373052, Note_off_c, 1, 47, 100
3, 373056, Note_on_c, 1, 45, 109
3, 373244, Note_off_c, 1, 45, 100
3, 373248, Control_c, 1, 64, 127
3, 373248, Note_on_c, 1, 31, 120
3, 373436, Note_off_c, 1, 31, 100
3, 373440, Note_on_c, 1, 43, 120
3, 373628, Note_off_c, 1, 43, 100
3, 373632, Note_on_c, 1, 31, 120
3, 373820, Note_off_c, 1, 31, 100
3, 373824, Note_on_c, 1, 43, 120
3, 374012, Note_off_c, 1, 43, 100
3, 374016, Note_on_c, 1, 31, 120
3, 374204, Note_off_c, 1, 31, 100
3, 374208, Note_on_c, 1, 43, 120
3, 374396, Note_off_c, 1, 43, 100
3, 374400, Note_on_c, 1, 31, 120
3, 374588, Note_off_c, 1, 31, 100
3, 374592, Note_on_c, 1, 43, 120
3, 374780, Note_off_c, 1, 43, 100
3, 374784, Note_on_c, 1, 31, 120
3, 374972, Note_off_c, 1, 31, 100
3, 374976, Note_on_c, 1, 43, 120
3, 375164, Note_off_c, 1, 43, 100
3, 375168, Note_on_c, 1, 31, 120
3, 375356, Note_off_c, 1, 31, 100
3, 375360, Note_on_c, 1, 43, 120
3, 375548, Note_off_c, 1, 43, 100
3, 375552, Note_on_c, 1, 31, 120
3, 375740, Note_off_c, 1, 31, 100
3, 375744, Note_on_c, 1, 43, 120
3, 375928, Control_c, 1, 64, 0
3, 375932, Note_off_c, 1, 43, 100
3, 375936, Note_on_c, 1, 32, 80
3, 376124, Note_off_c, 1, 32, 100
3, 376128, Note_on_c, 1, 44, 80
3, 376316, Note_off_c, 1, 44, 100
3, 376320, Note_on_c, 1, 33, 80
3, 376508, Note_off_c, 1, 33, 100
3, 376512, Note_on_c, 1, 45, 80
3, 376700, Note_off_c, 1, 45, 100
3, 376704, Note_on_c, 1, 32, 80
3, 376892, Note_off_c, 1, 32, 100
3, 376896, Note_on_c, 1, 44, 80
3, 377084, Note_off_c, 1, 44, 100
3, 377088, Note_on_c, 1, 33, 80
3, 377276, Note_off_c, 1, 33, 100
3, 377280, Note_on_c, 1, 45, 80
3, 377468, Note_off_c, 1, 45, 100
3, 377472, Note_on_c, 1, 36, 80
3, 377660, Note_off_c, 1, 36, 100
3, 377664, Note_on_c, 1, 48, 80
3, 377852, Note_off_c, 1, 48, 100
3, 377856, Note_on_c, 1, 37, 80
3, 378044, Note_off_c, 1, 37, 100
3, 378048, Note_on_c, 1, 49, 80
3, 378236, Note_off_c, 1, 49, 100
3, 378240, Note_on_c, 1, 40, 80
3, 378428, Note_off_c, 1, 40, 100
3, 378432, Note_on_c, 1, 52, 80
3, 378620, Note_off_c, 1, 52, 100
3, 378624, Note_on_c, 1, 38, 80
3, 378812, Note_off_c, 1, 38, 100
3, 378816, Note_on_c, 1, 50, 80
3, 379004, Note_off_c, 1, 50, 100
3, 379008, Note_on_c, 1, 38, 80
3, 379196, Note_off_c, 1, 38, 100
3, 379200, Note_on_c, 1, 50, 80
3, 379388, Note_off_c, 1, 50, 100
3, 379392, Note_on_c, 1, 38, 80
3, 379580, Note_off_c, 1, 38, 100
3, 379584, Note_on_c, 1, 50, 81
3, 379772, Note_off_c, 1, 50, 100
3, 379776, Note_on_c, 1, 43, 83
3, 379964, Note_off_c, 1, 43, 100
3, 379968, Note_on_c, 1, 55, 85
3, 380156, Note_off_c, 1, 55, 100
3, 380160, Note_on_c, 1, 38, 87
3, 380348, Note_off_c, 1, 38, 100
3, 380352, Note_on_c, 1, 50, 89
3, 380540, Note_off_c, 1, 50, 100
3, 380544, Note_on_c, 1, 50, 91
3, 380732, Note_off_c, 1, 50, 100
3, 380736, Note_on_c, 1, 62, 93
3, 380924, Note_off_c, 1, 62, 100
3, 380928, Note_on_c, 1, 38, 95
3, 381116, Note_off_c, 1, 38, 100
3, 381120, Note_on_c, 1, 50, 97
3, 381308, Note_off_c, 1, 50, 100
3, 381312, Note_on_c, 1, 43, 99
3, 381500, Note_off_c, 1, 43, 100
3, 381504, Note_on_c, 1, 55, 101
3, 381692, Note_off_c, 1, 55, 100
3, 381696, Note_on_c, 1, 38, 103
3, 381884, Note_off_c, 1, 38, 100
3, 381888, Note_on_c, 1, 50, 105
3, 382076, Note_off_c, 1, 50, 100
3, 382080, Note_on_c, 1, 50, 107
3, 382268, Note_off_c, 1, 50, 100
3, 382272, Note_on_c, 1, 62, 109
3, 382460, Note_off_c, 1, 62, 100
3, 382464, Note_on_c, 1, 43, 110
3, 382652, Note_off_c, 1, 43, 100
3, 382656, Note_on_c, 1, 55, 110
3, 382844, Note_off_c, 1, 55, 100
3, 382848, Note_on_c, 1, 38, 110
3, 383036, Note_off_c, 1, 38, 100
3, 383040, Note_on_c, 1, 50, 110
3, 383228, Note_off_c, 1, 50, 100
3, 383232, Note_on_c, 1, 42, 110
3, 383420, Note_off_c, 1, 42, 100
3, 383424, Note_on_c, 1, 54, 110
3, 383612, Note_off_c, 1, 54, 100
3, 383616, Note_on_c, 1, 45, 110
3, 383804, Note_off_c, 1, 45, 100
3, 383808, Note_on_c, 1, 57, 110
3, 383996, Note_off_c, 1, 57, 100
3, 384000, Note_on_c, 1, 43, 110
3, 384188, Note_off_c, 1, 43, 100
3, 384192, Note_on_c, 1, 55, 110
3, 384380, Note_off_c, 1, 55, 100
3, 384384, Note_on_c, 1, 38, 110
3, 384572, Note_off_c, 1, 38, 100
3, 384576, Note_on_c, 1, 50, 110
3, 384764, Note_off_c, 1, 50, 100
3, 384768, Note_on_c, 1, 30, 110
3, 384956, Note_off_c, 1, 30, 100
3, 384960, Note_on_c, 1, 42, 110
3, 385148, Note_off_c, 1, 42, 100
3, 385152, Note_on_c, 1, 33, 110
3, 385340, Note_off_c, 1, 33, 100
3, 385344, Note_on_c, 1, 45, 110
3, 385532, Note_off_c, 1, 45, 100
3, 385536, Note_on_c, 1, 43, 120
3, 385536, Note_on_c, 1, 31, 120
3, 385916, Note_off_c, 1, 43, 100
3, 385916, Note_off_c, 1, 31, 100
3, 386304, Note_on_c, 1, 45, 120
3, 386304, Note_on_c, 1, 33, 120
3, 386684, Note_off_c, 1, 45, 100
3, 386684, Note_off_c, 1, 33, 100
3, 387072, Note_on_c, 1, 35, 120
3, 387072, Note_on_c, 1, 47, 120
3, 390140, Note_off_c, 1, 35, 100
3, 390140, Note_off_c, 1, 47, 100
3, 390144, Note_on_c, 1, 47, 120
3, 390144, Note_on_c, 1, 35, 120
3, 390524, Note_off_c, 1, 47, 100
3, 390524, Note_off_c, 1, 35, 100
3, 390912, Note_on_c, 1, 48, 120
3, 390912, Note_on_c, 1, 36, 120
3, 391292, Note_off_c, 1, 48, 100
3, 391292, Note_off_c, 1, 36, 100
3, 391680, Note_on_c, 1, 50, 120
3, 391680, Note_on_c, 1, 38, 120
3, 393980, Note_off_c, 1, 38, 64
3, 393980, Note_off_c, 1, 50, 64
3, 394752, Note_on_c, 1, 71, 70
3, 394940, Note_off_c, 1, 71, 100
3, 394944, Note_on_c, 1, 67, 70
3, 395132, Note_off_c, 1, 67, 100
3, 395136, Note_on_c, 1, 71, 70
3, 395324, Note_off_c, 1, 71, 100
3, 395328, Note_on_c, 1, 67, 70
3, 395516, Note_off_c, 1, 67, 100
3, 395520, Note_on_c, 1, 71, 70
3, 395708, Note_off_c, 1, 71, 100
3, 395712, Note_on_c, 1, 67, 70
3, 395900, Note_off_c, 1, 67, 100
3, 395904, Note_on_c, 1, 72, 70
3, 396092, Note_off_c, 1, 72, 100
3, 396096, Note_on_c, 1, 67, 70
3, 396284, Note_off_c, 1, 67, 100
3, 396288, Note_on_c, 1, 74, 70
3, 396476, Note_off_c, 1, 74, 100
3, 396480, Note_on_c, 1, 67, 70
3, 396668, Note_off_c, 1, 67, 100
3, 396672, Note_on_c, 1, 72, 70
3, 396860, Note_off_c, 1, 72, 100
3, 396864, Note_on_c, 1, 67, 70
3, 397052, Note_off_c, 1, 67, 100
3, 397056, Note_on_c, 1, 71, 70
3, 397244, Note_off_c, 1, 71, 100
3, 397248, Note_on_c, 1, 67, 70
3, 397436, Note_off_c, 1, 67, 100
3, 397440, Note_on_c, 1, 74, 70
3, 397628, Note_off_c, 1, 74, 100
3, 397632, Note_on_c, 1, 67, 70
3, 397820, Note_off_c, 1, 67, 100
3, 397824, Note_on_c, 1, 72, 70
3, 398012, Note_off_c, 1, 72, 100
3, 398016, Note_on_c, 1, 67, 70
3, 398204, Note_off_c, 1, 67, 100
3, 398208, Note_on_c, 1, 72, 70
3, 398396, Note_off_c, 1, 72, 100
3, 398400, Note_on_c, 1, 67, 70
3, 398588, Note_off_c, 1, 67, 100
3, 398592, Note_on_c, 1, 72, 70
3, 398780, Note_off_c, 1, 72, 100
3, 398784, Note_on_c, 1, 67, 70
3, 398972, Note_off_c, 1, 67, 100
3, 398976, Note_on_c, 1, 71, 70
3, 399164, Note_off_c, 1, 71, 100
3, 399168, Note_on_c, 1, 67, 70
3, 399356, Note_off_c, 1, 67, 100
3, 399360, Note_on_c, 1, 72, 70
3, 399548, Note_off_c, 1, 72, 100
3, 399552, Note_on_c, 1, 67, 70
3, 399740, Note_off_c, 1, 67, 100
3, 399744, Note_on_c, 1, 71, 70
3, 399932, Note_off_c, 1, 71, 100
3, 399936, Note_on_c, 1, 67, 70
3, 400124, Note_off_c, 1, 67, 100
3, 400128, Note_on_c, 1, 72, 70
3, 400316, Note_off_c, 1, 72, 100
3, 400320, Note_on_c, 1, 67, 70
3, 400508, Note_off_c, 1, 67, 100
3, 400512, Note_on_c, 1, 72, 70
3, 400700, Note_off_c, 1, 72, 100
3, 400704, Note_on_c, 1, 60, 70
3, 400892, Note_off_c, 1, 60, 100
3, 400896, Note_on_c, 1, 70, 70
3, 401084, Note_off_c, 1, 70, 100
3, 401088, Note_on_c, 1, 58, 72
3, 401276, Note_off_c, 1, 58, 100
3, 401280, Note_on_c, 1, 70, 75
3, 401280, Note_on_c, 1, 62, 75
3, 401468, Note_off_c, 1, 70, 100
3, 401468, Note_off_c, 1, 62, 100
3, 401472, Note_on_c, 1, 58, 78
3, 401660, Note_off_c, 1, 58, 100
3, 401664, Note_on_c, 1, 70, 80
3, 401664, Note_on_c, 1, 62, 80
3, 401852, Note_off_c, 1, 70, 100
3, 401852, Note_off_c, 1, 62, 100
3, 401856, Note_on_c, 1, 58, 83
3, 402044, Note_off_c, 1, 58, 100
3, 402048, Note_on_c, 1, 70, 86
3, 402048, Note_on_c, 1, 63, 86
3, 402236, Note_off_c, 1, 70, 100
3, 402236, Note_off_c, 1, 63, 100
3, 402240, Note_on_c, 1, 58, 89
3, 402428, Note_off_c, 1, 58, 100
3, 402432, Note_on_c, 1, 70, 91
3, 402432, Note_on_c, 1, 65, 91
3, 402620, Note_off_c, 1, 70, 100
3, 402620, Note_off_c, 1, 65, 100
3, 402624, Note_on_c, 1, 58, 94
3, 402812, Note_off_c, 1, 58, 100
3, 402816, Note_on_c, 1, 70, 97
3, 402816, Note_on_c, 1, 63, 97
3, 403004, Note_off_c, 1, 70, 100
3, 403004, Note_off_c, 1, 63, 100
3, 403008, Note_on_c, 1, 58, 100
3, 403196, Note_off_c, 1, 58, 100
3, 403200, Note_on_c, 1, 70, 102
3, 403200, Note_on_c, 1, 62, 102
3, 403388, Note_off_c, 1, 70, 100
3, 403388, Note_off_c, 1, 62, 100
3, 403392, Note_on_c, 1, 58, 105
3, 403580, Note_off_c, 1, 58, 100
3, 403584, Note_on_c, 1, 44, 108
3, 403772, Note_off_c, 1, 44, 100
3, 403776, Note_on_c, 1, 56, 110
3, 403964, Note_off_c, 1, 56, 100
3, 403968, Key_signature, -3, "major"
3, 403968, Note_on_c, 1, 43, 110
3, 404156, Note_off_c, 1, 43, 100
3, 404160, Note_on_c, 1, 55, 110
3, 404348, Note_off_c, 1, 55, 100
3, 404352, Note_on_c, 1, 55, 110
3, 404540, Note_off_c, 1, 55, 100
3, 404544, Note_on_c, 1, 67, 110
3, 404732, Note_off_c, 1, 67, 100
3, 404736, Note_on_c, 1, 41, 110
3, 404924, Note_off_c, 1, 41, 100
3, 404928, Note_on_c, 1, 53, 110
3, 405116, Note_off_c, 1, 53, 100
3, 405120, Note_on_c, 1, 53, 110
3, 405308, Note_off_c, 1, 53, 100
3, 405312, Note_on_c, 1, 65, 110
3, 405500, Note_off_c, 1, 65, 100
3, 405504, Note_on_c, 1, 39, 110
3, 405692, Note_off_c, 1, 39, 100
3, 405696, Note_on_c, 1, 48, 110
3, 405884, Note_off_c, 1, 48, 100
3, 405888, Note_on_c, 1, 63, 110
3, 405888, Note_on_c, 1, 51, 110
3, 407036, Note_off_c, 1, 63, 100
3, 407036, Note_off_c, 1, 51, 100
3, 408192, Note_on_c, 1, 55, 80
3, 408380, Note_off_c, 1, 55, 100
3, 408384, Note_on_c, 1, 58, 80
3, 408572, Note_off_c, 1, 58, 100
3, 408960, Note_on_c, 1, 53, 80
3, 409148, Note_off_c, 1, 53, 100
3, 409152, Note_on_c, 1, 56, 80
3, 409340, Note_off_c, 1, 56, 100
3, 409728, Note_on_c, 1, 55, 80
3, 409728, Note_on_c, 1, 51, 80
3, 410876, Note_off_c, 1, 51, 100
3, 410876, Note_off_c, 1, 55, 100
3, 411264, Control_c, 1, 64, 127
3, 411456, Note_on_c, 1, 51, 120
3, 411644, Note_off_c, 1, 51, 100
3, 411648, Note_on_c, 1, 63, 120
3, 412220, Note_off_c, 1, 63, 100
3, 412224, Note_on_c, 1, 63, 120
3, 412412, Note_off_c, 1, 63, 100
3, 412416, Note_on_c, 1, 63, 120
3, 414524, Note_off_c, 1, 63, 100
3, 414528, Note_on_c, 1, 55, 120
3, 414716, Note_off_c, 1, 55, 100
3, 414720, Note_on_c, 1, 67, 120
3, 415292, Note_off_c, 1, 67, 100
3, 415296, Note_on_c, 1, 67, 120
3, 415484, Note_off_c, 1, 67, 100
3, 415488, Note_on_c, 1, 67, 120
3, 417400, Control_c, 1, 64, 0
3, 417596, Note_off_c, 1, 67, 100
3, 419136, Note_on_c, 1, 39, 80
3, 419324, Note_off_c, 1, 39, 100
3, 419328, Note_on_c, 1, 44, 80
3, 419900, Note_off_c, 1, 44, 100
3, 419904, Note_on_c, 1, 44, 80
3, 420092, Note_off_c, 1, 44, 100
3, 420096, Note_on_c, 1, 44, 80
3, 420476, Note_off_c, 1, 44, 100
3, 420480, Note_on_c, 1, 46, 80
3, 420668, Note_off_c, 1, 46, 100
3, 420672, Note_on_c, 1, 44, 80
3, 420860, Note_off_c, 1, 44, 100
3, 420864, Note_on_c, 1, 44, 80
3, 421244, Note_off_c, 1, 44, 100
3, 421248, Note_on_c, 1, 41, 80
3, 421628, Note_off_c, 1, 41, 100
3, 421632, Note_on_c, 1, 41, 80
3, 422396, Note_off_c, 1, 41, 100
3, 422400, Note_on_c, 1, 46, 80
3, 422780, Note_off_c, 1, 46, 100
3, 422784, Note_on_c, 1, 46, 80
3, 422972, Note_off_c, 1, 46, 100
3, 422976, Note_on_c, 1, 44, 80
3, 423164, Note_off_c, 1, 44, 100
3, 423168, Note_on_c, 1, 43, 80
3, 423548, Note_off_c, 1, 43, 100
3, 423552, Note_on_c, 1, 43, 80
3, 423740, Note_off_c, 1, 43, 100
3, 423744, Note_on_c, 1, 41, 80
3, 423932, Note_off_c, 1, 41, 100
3, 423936, Note_on_c, 1, 40, 80
3, 424316, Note_off_c, 1, 40, 100
3, 424704, Note_on_c, 1, 39, 80
3, 425468, Note_off_c, 1, 39, 100
3, 425472, Note_on_c, 1, 48, 80
3, 425852, Note_off_c, 1, 48, 100
3, 425856, Note_on_c, 1, 48, 80
3, 426044, Note_off_c, 1, 48, 100
3, 426048, Note_on_c, 1, 46, 80
3, 426236, Note_off_c, 1, 46, 100
3, 426240, Note_on_c, 1, 44, 80
3, 426620, Note_off_c, 1, 44, 100
3, 426624, Note_on_c, 1, 44, 80
3, 426812, Note_off_c, 1, 44, 100
3, 426816, Note_on_c, 1, 43, 80
3, 427004, Note_off_c, 1, 43, 100
3, 427008, Note_on_c, 1, 41, 80
3, 427388, Note_off_c, 1, 41, 100
3, 427584, Note_on_c, 1, 48, 80
3, 427772, Note_off_c, 1, 48, 100
3, 427776, Note_on_c, 1, 53, 81
3, 428156, Note_off_c, 1, 53, 100
3, 428160, Note_on_c, 1, 53, 81
3, 428348, Note_off_c, 1, 53, 100
3, 428352, Note_on_c, 1, 51, 82
3, 428540, Note_off_c, 1, 51, 100
3, 428544, Note_on_c, 1, 50, 82
3, 428924, Note_off_c, 1, 50, 100
3, 428928, Note_on_c, 1, 50, 83
3, 429116, Note_off_c, 1, 50, 100
3, 429120, Note_on_c, 1, 48, 83
3, 429308, Note_off_c, 1, 48, 100
3, 429312, Note_on_c, 1, 46, 83
3, 429692, Note_off_c, 1, 46, 100
3, 429696, Note_on_c, 1, 48, 84
3, 429884, Note_off_c, 1, 48, 100
3, 429888, Note_on_c, 1, 50, 84
3, 430076, Note_off_c, 1, 50, 100
3, 430080, Note_on_c, 1, 51, 85
3, 430460, Note_off_c, 1, 51, 100
3, 430464, Note_on_c, 1, 43, 85
3, 430844, Note_off_c, 1, 43, 100
3, 430848, Note_on_c, 1, 44, 86
3, 431228, Note_off_c, 1, 44, 100
3, 431232, Note_on_c, 1, 48, 87
3, 431232, Note_on_c, 1, 53, 87
3, 431420, Note_off_c, 1, 53, 100
3, 431424, Note_on_c, 1, 51, 87
3, 431612, Note_off_c, 1, 48, 100
3, 431612, Note_off_c, 1, 51, 100
3, 431616, Note_on_c, 1, 50, 87
3, 431616, Note_on_c, 1, 46, 87
3, 431996, Note_off_c, 1, 50, 100
3, 431996, Note_off_c, 1, 46, 100
3, 432000, Note_on_c, 1, 46, 88
3, 432188, Note_off_c, 1, 46, 100
3, 432192, Note_on_c, 1, 48, 88
3, 432380, Note_off_c, 1, 48, 100
3, 432384, Note_on_c, 1, 50, 89
3, 432764, Note_off_c, 1, 50, 100
3, 432768, Note_on_c, 1, 51, 89
3, 432956, Note_off_c, 1, 51, 100
3, 432960, Note_on_c, 1, 53, 90
3, 432960, Note_on_c, 1, 58, 90
3, 433148, Note_off_c, 1, 53, 100
3, 433148, Note_off_c, 1, 58, 100
3, 433152, Note_on_c, 1, 55, 90
3, 433532, Note_off_c, 1, 55, 100
3, 434688, Note_on_c, 1, 48, 93
3, 435068, Note_off_c, 1, 48, 100
3, 435072, Note_on_c, 1, 60, 93
3, 435072, Note_on_c, 1, 48, 93
3, 435260, Note_off_c, 1, 48, 100
3, 435264, Note_on_c, 1, 50, 94
3, 435452, Note_off_c, 1, 60, 100
3, 435452, Note_off_c, 1, 50, 100
3, 435456, Note_on_c, 1, 52, 94
3, 435836, Note_off_c, 1, 52, 100
3, 435840, Note_on_c, 1, 53, 95
3, 436028, Note_off_c, 1, 53, 100
3, 436032, Note_on_c, 1, 55, 95
3, 436220, Note_off_c, 1, 55, 100
3, 436224, Note_on_c, 1, 53, 95
3, 436604, Note_off_c, 1, 53, 100
3, 436992, Note_on_c, 1, 53, 96
3, 437372, Note_off_c, 1, 53, 100
3, 437376, Note_on_c, 1, 53, 97
3, 437564, Note_off_c, 1, 53, 100
3, 437568, Note_on_c, 1, 51, 97
3, 437756, Note_off_c, 1, 51, 100
3, 437760, Note_on_c, 1, 59, 98
3, 437760, Note_on_c, 1, 50, 98
3, 438140, Note_off_c, 1, 59, 100
3, 438140, Note_off_c, 1, 50, 100
3, 438144, Note_on_c, 1, 50, 98
3, 438332, Note_off_c, 1, 50, 100
3, 438336, Note_on_c, 1, 51, 99
3, 438524, Note_off_c, 1, 51, 100
3, 438528, Note_on_c, 1, 53, 99
3, 438528, Note_on_c, 1, 59, 99
3, 438908, Note_off_c, 1, 53, 100
3, 438912, Note_on_c, 1, 55, 100
3, 439100, Note_off_c, 1, 55, 100
3, 439104, Note_on_c, 1, 56, 100
3, 439292, Note_off_c, 1, 59, 100
3, 439292, Note_off_c, 1, 56, 100
3, 439296, Note_on_c, 1, 55, 100
3, 439676, Note_off_c, 1, 55, 100
3, 440064, Note_on_c, 1, 55, 102
3, 440444, Note_off_c, 1, 55, 100
3, 440448, Note_on_c, 1, 55, 102
3, 440636, Note_off_c, 1, 55, 100
3, 440640, Note_on_c, 1, 53, 103
3, 440828, Note_off_c, 1, 53, 100
3, 440832, Note_on_c, 1, 51, 103
3, 440832, Note_on_c, 1, 60, 103
3, 441212, Note_off_c, 1, 51, 100
3, 441212, Note_off_c, 1, 60, 100
3, 441216, Note_on_c, 1, 60, 104
3, 441216, Note_on_c, 1, 51, 104
3, 441404, Note_off_c, 1, 51, 100
3, 441408, Note_on_c, 1, 53, 104
3, 441596, Note_off_c, 1, 53, 100
3, 441600, Note_on_c, 1, 55, 104
3, 441980, Note_off_c, 1, 60, 100
3, 441980, Note_off_c, 1, 55, 100
3, 441984, Note_on_c, 1, 57, 105
3, 442172, Note_off_c, 1, 57, 100
3, 442176, Note_on_c, 1, 59, 105
3, 442364, Note_off_c, 1, 59, 100
3, 442368, Note_on_c, 1, 60, 106
3, 442748, Note_off_c, 1, 60, 100
3, 442752, Note_on_c, 1, 50, 106
3, 442940, Note_off_c, 1, 50, 100
3, 442944, Note_on_c, 1, 52, 107
3, 443132, Note_off_c, 1, 52, 100
3, 443136, Note_on_c, 1, 53, 107
3, 443516, Note_off_c, 1, 53, 100
3, 443520, Note_on_c, 1, 41, 108
3, 443708, Note_off_c, 1, 41, 100
3, 443712, Note_on_c, 1, 43, 108
3, 443900, Note_off_c, 1, 43, 100
3, 443904, Note_on_c, 1, 44, 108
3, 444284, Note_off_c, 1, 44, 100
3, 444288, Note_on_c, 1, 46, 109
3, 444668, Note_off_c, 1, 46, 100
3, 444672, Note_on_c, 1, 47, 110
3, 445052, Note_off_c, 1, 47, 100
3, 445056, Note_on_c, 1, 46, 110
3, 445244, Note_off_c, 1, 46, 100
3, 445248, Note_on_c, 1, 34, 110
3, 445436, Note_off_c, 1, 34, 100
3, 445440, Note_on_c, 1, 39, 110
3, 446012, Note_off_c, 1, 39, 100
3, 446016, Note_on_c, 1, 39, 110
3, 446204, Note_off_c, 1, 39, 100
3, 446208, Note_on_c, 1, 39, 110
3, 446588, Note_off_c, 1, 39, 100
3, 446592, Note_on_c, 1, 41, 110
3, 446780, Note_off_c, 1, 41, 100
3, 446784, Note_on_c, 1, 39, 110
3, 446972, Note_off_c, 1, 39, 100
3, 446976, Note_on_c, 1, 39, 110
3, 446976, Note_on_c, 1, 48, 110
3, 447356, Note_off_c, 1, 39, 100
3, 447360, Note_on_c, 1, 36, 110
3, 447548, Note_off_c, 1, 48, 100
3, 447552, Note_on_c, 1, 48, 110
3, 447740, Note_off_c, 1, 36, 100
3, 447740, Note_off_c, 1, 48, 100
3, 447744, Note_on_c, 1, 48, 110
3, 447744, Note_on_c, 1, 36, 110
3, 448124, Note_off_c, 1, 48, 100
3, 448128, Note_on_c, 1, 50, 110
3, 448316, Note_off_c, 1, 50, 100
3, 448320, Note_on_c, 1, 48, 110
3, 448508, Note_off_c, 1, 36, 100
3, 448508, Note_off_c, 1, 48, 100
3, 448512, Note_on_c, 1, 48, 110
3, 448512, Note_on_c, 1, 44, 110
3, 448892, Note_off_c, 1, 48, 100
3, 448892, Note_off_c, 1, 44, 100
3, 448896, Note_on_c, 1, 44, 110
3, 449088, Note_on_c, 1, 43, 110
3, 449276, Note_off_c, 1, 44, 100
3, 449276, Note_off_c, 1, 43, 100
3, 449280, Note_on_c, 1, 41, 110
3, 449280, Note_on_c, 1, 44, 110
3, 449660, Note_off_c, 1, 41, 100
3, 449664, Note_on_c, 1, 41, 110
3, 449852, Note_off_c, 1, 41, 100
3, 449856, Note_on_c, 1, 39, 110
3, 450044, Note_off_c, 1, 44, 100
3, 450044, Note_off_c, 1, 39, 100
3, 450048, Note_on_c, 1, 53, 110
3, 450048, Note_on_c, 1, 38, 110
3, 450428, Note_off_c, 1, 53, 100
3, 450428, Note_off_c, 1, 38, 100
3, 450432, Note_on_c, 1, 53, 110
3, 450620, Note_off_c, 1, 53, 100
3, 450624, Note_on_c, 1, 51, 110
3, 450812, Note_off_c, 1, 51, 100
3, 450816, Note_on_c, 1, 50, 110
3, 450816, Note_on_c, 1, 38, 110
3, 451196, Note_off_c, 1, 50, 100
3, 451200, Note_on_c, 1, 50, 110
3, 451388, Note_off_c, 1, 50, 100
3, 451392, Note_on_c, 1, 48, 110
3, 451580, Note_off_c, 1, 38, 100
3, 451580, Note_off_c, 1, 48, 100
3, 451584, Note_on_c, 1, 46, 110
3, 451964, Note_off_c, 1, 46, 100
3, 451968, Note_on_c, 1, 46, 110
3, 452156, Note_off_c, 1, 46, 100
3, 452160, Note_on_c, 1, 44, 110
3, 452348, Note_off_c, 1, 44, 100
3, 452352, Note_on_c, 1, 43, 110
3, 452352, Note_on_c, 1, 46, 110
3, 452732, Note_off_c, 1, 43, 100
3, 452736, Note_on_c, 1, 43, 110
3, 452924, Note_off_c, 1, 43, 100
3, 452928, Note_on_c, 1, 41, 110
3, 453116, Note_off_c, 1, 46, 100
3, 453116, Note_off_c, 1, 41, 100
3, 453120, Note_on_c, 1, 55, 110
3, 453120, Note_on_c, 1, 40, 110
3, 453500, Note_off_c, 1, 55, 100
3, 453500, Note_off_c, 1, 40, 100
3, 453504, Note_on_c, 1, 55, 110
3, 453692, Note_off_c, 1, 55, 100
3, 453696, Note_on_c, 1, 53, 110
3, 453884, Note_off_c, 1, 53, 100
3, 453888, Note_on_c, 1, 52, 110
3, 453888, Note_on_c, 1, 40, 110
3, 454268, Note_off_c, 1, 52, 100
3, 454272, Note_on_c, 1, 52, 110
3, 454460, Note_off_c, 1, 52, 100
3, 454464, Note_on_c, 1, 50, 110
3, 454652, Note_off_c, 1, 40, 100
3, 454652, Note_off_c, 1, 50, 100
3, 454656, Note_on_c, 1, 48, 110
3, 455036, Note_off_c, 1, 48, 100
3, 455040, Note_on_c, 1, 48, 110
3, 455228, Note_off_c, 1, 48, 100
3, 455232, Note_on_c, 1, 46, 110
3, 455420, Note_off_c, 1, 46, 100
3, 455424, Note_on_c, 1, 48, 110
3, 455424, Note_on_c, 1, 44, 110
3, 455804, Note_off_c, 1, 48, 100
3, 455804, Note_off_c, 1, 44, 100
3, 455808, Note_on_c, 1, 52, 110
3, 455808, Note_on_c, 1, 43, 110
3, 456188, Note_off_c, 1, 52, 100
3, 456188, Note_off_c, 1, 43, 100
3, 456192, Note_on_c, 1, 53, 80
3, 456192, Note_on_c, 1, 41, 80
3, 456572, Note_off_c, 1, 53, 100
3, 456576, Note_on_c, 1, 48, 80
3, 456956, Note_off_c, 1, 48, 100
3, 456960, Note_on_c, 1, 53, 80
3, 457340, Note_off_c, 1, 41, 100
3, 457340, Note_off_c, 1, 53, 100
3, 457344, Note_on_c, 1, 51, 80
3, 457344, Note_on_c, 1, 42, 80
3, 457724, Note_off_c, 1, 51, 100
3, 457724, Note_off_c, 1, 42, 100
3, 457728, Note_on_c, 1, 50, 80
3, 457728, Note_on_c, 1, 43, 80
3, 458108, Note_off_c, 1, 50, 100
3, 458112, Note_on_c, 1, 50, 82
3, 458492, Note_off_c, 1, 50, 100
3, 458496, Note_on_c, 1, 55, 85
3, 458876, Note_off_c, 1, 43, 100
3, 458876, Note_off_c, 1, 55, 100
3, 458880, Note_on_c, 1, 53, 88
3, 458880, Note_on_c, 1, 43, 88
3, 459260, Note_off_c, 1, 53, 100
3, 459260, Note_off_c, 1, 43, 100
3, 459264, Note_on_c, 1, 51, 90
3, 459264, Note_on_c, 1, 44, 90
3, 459644, Note_off_c, 1, 51, 100
3, 459648, Note_on_c, 1, 56, 93
3, 459836, Note_off_c, 1, 56, 100
3, 459840, Note_on_c, 1, 55, 94
3, 460028, Note_off_c, 1, 55, 100
3, 460032, Note_on_c, 1, 53, 96
3, 460412, Note_off_c, 1, 44, 100
3, 460412, Note_off_c, 1, 53, 100
3, 460416, Note_on_c, 1, 45, 98
3, 460416, Note_on_c, 1, 53, 98
3, 460604, Note_off_c, 1, 53, 100
3, 460608, Note_on_c, 1, 51, 100
3, 460796, Note_off_c, 1, 45, 100
3, 460796, Note_off_c, 1, 51, 100
3, 460800, Note_on_c, 1, 50, 101
3, 460800, Note_on_c, 1, 46, 101
3, 461180, Note_off_c, 1, 50, 100
3, 461180, Note_off_c, 1, 46, 100
3, 461184, Note_on_c, 1, 47, 104
3, 461184, Note_on_c, 1, 58, 104
3, 461372, Note_off_c, 1, 58, 100
3, 461376, Note_on_c, 1, 56, 105
3, 461564, Note_off_c, 1, 47, 100
3, 461564, Note_off_c, 1, 56, 100
3, 461568, Note_on_c, 1, 48, 106
3, 461568, Note_on_c, 1, 55, 106
3, 461948, Note_off_c, 1, 48, 100
3, 461948, Note_off_c, 1, 55, 100
3, 461952, Note_on_c, 1, 50, 109
3, 461952, Note_on_c, 1, 53, 109
3, 462332, Note_off_c, 1, 50, 100
3, 462332, Note_off_c, 1, 53, 100
3, 462336, Note_on_c, 1, 48, 110
3, 462336, Note_on_c, 1, 44, 110
3, 462716, Note_off_c, 1, 48, 100
3, 462716, Note_off_c, 1, 44, 100
3, 463680, Note_on_c, 1, 51, 110
3, 463680, Note_on_c, 1, 48, 110
3, 463868, Note_off_c, 1, 51, 100
3, 463868, Note_off_c, 1, 48, 100
3, 463872, Note_on_c, 1, 56, 110
3, 463872, Note_on_c, 1, 53, 110
3, 464444, Note_off_c, 1, 56, 100
3, 464444, Note_off_c, 1, 53, 100
3, 464448, Note_on_c, 1, 56, 110
3, 464448, Note_on_c, 1, 53, 110
3, 464636, Note_off_c, 1, 56, 100
3, 464636, Note_off_c, 1, 53, 100
3, 464640, Note_on_c, 1, 56, 110
3, 464640, Note_on_c, 1, 53, 110
3, 465020, Note_off_c, 1, 56, 100
3, 465020, Note_off_c, 1, 53, 100
3, 465024, Note_on_c, 1, 58, 110
3, 465024, Note_on_c, 1, 55, 110
3, 465212, Note_off_c, 1, 58, 100
3, 465212, Note_off_c, 1, 55, 100
3, 465216, Note_on_c, 1, 56, 110
3, 465216, Note_on_c, 1, 53, 110
3, 465404, Note_off_c, 1, 56, 100
3, 465404, Note_off_c, 1, 53, 100
3, 465408, Note_on_c, 1, 56, 110
3, 465408, Note_on_c, 1, 53, 110
3, 465788, Note_off_c, 1, 56, 100
3, 465788, Note_off_c, 1, 53, 100
3, 465792, Note_on_c, 1, 53, 110
3, 465792, Note_on_c, 1, 49, 110
3, 466172, Note_off_c, 1, 53, 100
3, 466172, Note_off_c, 1, 49, 100
3, 466176, Note_on_c, 1, 53, 110
3, 466176, Note_on_c, 1, 49, 110
3, 466940, Note_off_c, 1, 53, 100
3, 466940, Note_off_c, 1, 49, 100
3, 466944, Note_on_c, 1, 61, 110
3, 466944, Note_on_c, 1, 58, 110
3, 467324, Note_off_c, 1, 61, 100
3, 467324, Note_off_c, 1, 58, 100
3, 467328, Note_on_c, 1, 61, 110
3, 467328, Note_on_c, 1, 58, 110
3, 467516, Note_off_c, 1, 61, 100
3, 467516, Note_off_c, 1, 58, 100
3, 467520, Note_on_c, 1, 60, 110
3, 467520, Note_on_c, 1, 56, 110
3, 467708, Note_off_c, 1, 60, 100
3, 467708, Note_off_c, 1, 56, 100
3, 467712, Note_on_c, 1, 58, 110
3, 467712, Note_on_c, 1, 55, 110
3, 468092, Note_off_c, 1, 58, 100
3, 468092, Note_off_c, 1, 55, 100
3, 468096, Note_on_c, 1, 58, 110
3, 468096, Note_on_c, 1, 53, 110
3, 468284, Note_off_c, 1, 58, 100
3, 468284, Note_off_c, 1, 53, 100
3, 468288, Note_on_c, 1, 56, 110
3, 468288, Note_on_c, 1, 53, 110
3, 468476, Note_off_c, 1, 56, 100
3, 468476, Note_off_c, 1, 53, 100
3, 468480, Note_on_c, 1, 55, 110
3, 468480, Note_on_c, 1, 52, 110
3, 468860, Note_off_c, 1, 55, 100
3, 468860, Note_off_c, 1, 52, 100
3, 469248, Note_on_c, 1, 55, 110
3, 469248, Note_on_c, 1, 52, 110
3, 470012, Note_off_c, 1, 55, 100
3, 470012, Note_off_c, 1, 52, 100
3, 470016, Note_on_c, 1, 64, 110
3, 470016, Note_on_c, 1, 60, 110
3, 470396, Note_off_c, 1, 64, 100
3, 470396, Note_off_c, 1, 60, 100
3, 470400, Note_on_c, 1, 63, 110
3, 470400, Note_on_c, 1, 60, 110
3, 470588, Note_off_c, 1, 63, 100
3, 470588, Note_off_c, 1, 60, 100
3, 470592, Note_on_c, 1, 61, 110
3, 470592, Note_on_c, 1, 58, 110
3, 470780, Note_off_c, 1, 61, 100
3, 470780, Note_off_c, 1, 58, 100
3, 470784, Note_on_c, 1, 60, 110
3, 470784, Note_on_c, 1, 56, 110
3, 471164, Note_off_c, 1, 60, 100
3, 471164, Note_off_c, 1, 56, 100
3, 471168, Note_on_c, 1, 60, 110
3, 471168, Note_on_c, 1, 56, 110
3, 471356, Note_off_c, 1, 60, 100
3, 471356, Note_off_c, 1, 56, 100
3, 471360, Note_on_c, 1, 58, 110
3, 471360, Note_on_c, 1, 55, 110
3, 471548, Note_off_c, 1, 58, 100
3, 471548, Note_off_c, 1, 55, 100
3, 471552, Note_on_c, 1, 56, 110
3, 471552, Note_on_c, 1, 53, 110
3, 471932, Note_off_c, 1, 56, 100
3, 471932, Note_off_c, 1, 53, 100
3, 471936, Note_on_c, 1, 53, 110
3, 471936, Note_on_c, 1, 50, 110
3, 472124, Note_off_c, 1, 53, 100
3, 472124, Note_off_c, 1, 50, 100
3, 472128, Note_on_c, 1, 55, 110
3, 472128, Note_on_c, 1, 51, 110
3, 472316, Note_off_c, 1, 55, 100
3, 472316, Note_off_c, 1, 51, 100
3, 472320, Note_on_c, 1, 56, 110
3, 472320, Note_on_c, 1, 53, 110
3, 472700, Note_off_c, 1, 56, 100
3, 472700, Note_off_c, 1, 53, 100
3, 472704, Note_on_c, 1, 51, 110
3, 472704, Note_on_c, 1, 48, 110
3, 472892, Note_off_c, 1, 51, 100
3, 472892, Note_off_c, 1, 48, 100
3, 472896, Note_on_c, 1, 53, 110
3, 472896, Note_on_c, 1, 50, 110
3, 473084, Note_off_c, 1, 53, 100
3, 473084, Note_off_c, 1, 50, 100
3, 473088, Note_on_c, 1, 55, 110
3, 473088, Note_on_c, 1, 51, 110
3, 473468, Note_off_c, 1, 55, 100
3, 473468, Note_off_c, 1, 51, 100
3, 473472, Note_on_c, 1, 50, 110
3, 473472, Note_on_c, 1, 47, 110
3, 473660, Note_off_c, 1, 50, 100
3, 473660, Note_off_c, 1, 47, 100
3, 473664, Note_on_c, 1, 51, 110
3, 473664, Note_on_c, 1, 48, 110
3, 473852, Note_off_c, 1, 51, 100
3, 473852, Note_off_c, 1, 48, 100
3, 473856, Note_on_c, 1, 53, 110
3, 473856, Note_on_c, 1, 50, 110
3, 474236, Note_off_c, 1, 53, 100
3, 474236, Note_off_c, 1, 50, 100
3, 474240, Note_on_c, 1, 48, 110
3, 474240, Note_on_c, 1, 45, 110
3, 474428, Note_off_c, 1, 48, 100
3, 474428, Note_off_c, 1, 45, 100
3, 474432, Note_on_c, 1, 50, 110
3, 474432, Note_on_c, 1, 47, 110
3, 474620, Note_off_c, 1, 50, 100
3, 474620, Note_off_c, 1, 47, 100
3, 474624, Note_on_c, 1, 51, 110
3, 474624, Note_on_c, 1, 48, 110
3, 475004, Note_off_c, 1, 51, 100
3, 475004, Note_off_c, 1, 48, 100
3, 475008, Note_on_c, 1, 65, 110
3, 475008, Note_on_c, 1, 61, 110
3, 475196, Note_off_c, 1, 65, 100
3, 475196, Note_off_c, 1, 61, 100
3, 475200, Note_on_c, 1, 63, 110
3, 475200, Note_on_c, 1, 60, 110
3, 475388, Note_off_c, 1, 63, 100
3, 475388, Note_off_c, 1, 60, 100
3, 475392, Note_on_c, 1, 61, 110
3, 475392, Note_on_c, 1, 58, 110
3, 475772, Note_off_c, 1, 61, 100
3, 475772, Note_off_c, 1, 58, 100
3, 475776, Note_on_c, 1, 63, 110
3, 475776, Note_on_c, 1, 60, 110
3, 475964, Note_off_c, 1, 63, 100
3, 475964, Note_off_c, 1, 60, 100
3, 475968, Note_on_c, 1, 61, 110
3, 475968, Note_on_c, 1, 58, 110
3, 476156, Note_off_c, 1, 61, 100
3, 476156, Note_off_c, 1, 58, 100
3, 476160, Note_on_c, 1, 60, 110
3, 476160, Note_on_c, 1, 56, 110
3, 476540, Note_off_c, 1, 60, 100
3, 476540, Note_off_c, 1, 56, 100
3, 476544, Note_on_c, 1, 56, 110
3, 476544, Note_on_c, 1, 60, 110
3, 476924, Note_off_c, 1, 56, 100
3, 476924, Note_off_c, 1, 60, 100
3, 476928, Note_on_c, 1, 62, 110
3, 476928, Note_on_c, 1, 55, 110
3, 477308, Note_off_c, 1, 62, 100
3, 477308, Note_off_c, 1, 55, 100
3, 477312, Control_c, 1, 64, 127
3, 478272, Note_on_c, 1, 67, 120
3, 478272, Note_on_c, 1, 71, 120
3, 478460, Note_off_c, 1, 67, 100
3, 478460, Note_off_c, 1, 71, 100
3, 478464, Note_on_c, 1, 67, 120
3, 478464, Note_on_c, 1, 71, 120
3, 479036, Note_off_c, 1, 67, 100
3, 479036, Note_off_c, 1, 71, 100
3, 479040, Note_on_c, 1, 59, 120
3, 479040, Note_on_c, 1, 55, 120
3, 479228, Note_off_c, 1, 59, 100
3, 479228, Note_off_c, 1, 55, 100
3, 479232, Note_on_c, 1, 59, 120
3, 479232, Note_on_c, 1, 55, 120
3, 479804, Note_off_c, 1, 59, 100
3, 479804, Note_off_c, 1, 55, 100
3, 479808, Note_on_c, 1, 47, 120
3, 479808, Note_on_c, 1, 43, 120
3, 479996, Note_off_c, 1, 47, 100
3, 479996, Note_off_c, 1, 43, 100
3, 480000, Note_on_c, 1, 47, 120
3, 480000, Note_on_c, 1, 43, 120
3, 480376, Control_c, 1, 64, 0
3, 480380, Note_off_c, 1, 47, 100
3, 480380, Note_off_c, 1, 43, 100
3, 481152, Note_on_c, 1, 87, 80
3, 481340, Note_off_c, 1, 87, 100
3, 481344, Note_on_c, 1, 86, 80
3, 481532, Note_off_c, 1, 86, 100
3, 481920, Note_on_c, 1, 75, 80
3, 482108, Note_off_c, 1, 75, 100
3, 482112, Note_on_c, 1, 74, 80
3, 482300, Note_off_c, 1, 74, 100
3, 482688, Note_on_c, 1, 63, 80
3, 482876, Note_off_c, 1, 63, 100
3, 482880, Note_on_c, 1, 62, 80
3, 483068, Note_off_c, 1, 62, 100
3, 483456, Note_on_c, 1, 75, 80
3, 483644, Note_off_c, 1, 75, 100
3, 483648, Note_on_c, 1, 74, 80
3, 483836, Note_off_c, 1, 74, 100
3, 483840, Control_c, 1, 64, 127
3, 483840, Note_on_c, 1, 72, 120
3, 483840, Note_on_c, 1, 60, 120
3, 484412, Note_off_c, 1, 72, 100
3, 484412, Note_off_c, 1, 60, 100
3, 484416, Note_on_c, 1, 75, 120
3, 484416, Note_on_c, 1, 72, 120
3, 484604, Note_off_c, 1, 75, 100
3, 484604, Note_off_c, 1, 72, 100
3, 484608, Note_on_c, 1, 75, 120
3, 484608, Note_on_c, 1, 72, 120
3, 485184, Note_on_c, 1, 63, 120
3, 485184, Note_on_c, 1, 60, 120
3, 485372, Note_off_c, 1, 75, 100
3, 485372, Note_off_c, 1, 72, 100
3, 485372, Note_off_c, 1, 63, 100
3, 485372, Note_off_c, 1, 60, 100
3, 485376, Note_on_c, 1, 63, 120
3, 485376, Note_on_c, 1, 60, 120
3, 485948, Note_off_c, 1, 63, 100
3, 485948, Note_off_c, 1, 60, 100
3, 485952, Note_on_c, 1, 51, 120
3, 485952, Note_on_c, 1, 48, 120
3, 486140, Note_off_c, 1, 51, 100
3, 486140, Note_off_c, 1, 48, 100
3, 486144, Note_on_c, 1, 51, 120
3, 486144, Note_on_c, 1, 48, 120
3, 486520, Control_c, 1, 64, 0
3, 486524, Note_off_c, 1, 51, 100
3, 486524, Note_off_c, 1, 48, 100
3, 487296, Note_on_c, 1, 89, 80
3, 487484, Note_off_c, 1, 89, 100
3, 487488, Note_on_c, 1, 87, 80
3, 487676, Note_off_c, 1, 87, 100
3, 488064, Note_on_c, 1, 77, 80
3, 488252, Note_off_c, 1, 77, 100
3, 488256, Note_on_c, 1, 75, 80
3, 488444, Note_off_c, 1, 75, 100
3, 488832, Note_on_c, 1, 65, 80
3, 489020, Note_off_c, 1, 65, 100
3, 489024, Note_on_c, 1, 63, 80
3, 489212, Note_off_c, 1, 63, 100
3, 489600, Note_on_c, 1, 77, 80
3, 489788, Note_off_c, 1, 77, 100
3, 489792, Note_on_c, 1, 75, 80
3, 489980, Note_off_c, 1, 75, 100
3, 489984, Control_c, 1, 64, 127
3, 489984, Note_on_c, 1, 70, 120
3, 489984, Note_on_c, 1, 58, 120
3, 490560, Note_on_c, 1, 74, 120
3, 490560, Note_on_c, 1, 70, 120
3, 490748, Note_off_c, 1, 70, 100
3, 490748, Note_off_c, 1, 58, 100
3, 490748, Note_off_c, 1, 74, 100
3, 490748, Note_off_c, 1, 70, 100
3, 490752, Note_on_c, 1, 74, 120
3, 490752, Note_on_c, 1, 70, 120
3, 491328, Note_on_c, 1, 62, 120
3, 491328, Note_on_c, 1, 58, 120
3, 491516, Note_off_c, 1, 74, 100
3, 491516, Note_off_c, 1, 70, 100
3, 491516, Note_off_c, 1, 62, 100
3, 491516, Note_off_c, 1, 58, 100
3, 491520, Note_on_c, 1, 62, 120
3, 491520, Note_on_c, 1, 58, 120
3, 492096, Note_on_c, 1, 50, 120
3, 492096, Note_on_c, 1, 46, 120
3, 492284, Note_off_c, 1, 62, 100
3, 492284, Note_off_c, 1, 58, 100
3, 492284, Note_off_c, 1, 50, 100
3, 492284, Note_off_c, 1, 46, 100
3, 492288, Note_on_c, 1, 50, 120
3, 492288, Note_on_c, 1, 46, 120
3, 492664, Control_c, 1, 64, 0
3, 492668, Note_off_c, 1, 50, 100
3, 492668, Note_off_c, 1, 46, 100
3, 493440, Note_on_c, 1, 91, 80
3, 493628, Note_off_c, 1, 91, 100
3, 493632, Note_on_c, 1, 89, 80
3, 493820, Note_off_c, 1, 89, 100
3, 494208, Note_on_c, 1, 79, 85
3, 494396, Note_off_c, 1, 79, 100
3, 494400, Note_on_c, 1, 77, 88
3, 494588, Note_off_c, 1, 77, 100
3, 494976, Note_on_c, 1, 67, 96
3, 495164, Note_off_c, 1, 67, 100
3, 495168, Note_on_c, 1, 65, 99
3, 495356, Note_off_c, 1, 65, 100
3, 495744, Note_on_c, 1, 79, 108
3, 495932, Note_off_c, 1, 79, 100
3, 495936, Note_on_c, 1, 77, 110
3, 496124, Note_off_c, 1, 77, 100
3, 496128, Control_c, 1, 64, 127
3, 496128, Note_on_c, 1, 75, 120
3, 496128, Note_on_c, 1, 63, 120
3, 496704, Note_on_c, 1, 79, 120
3, 496704, Note_on_c, 1, 75, 120
3, 496892, Note_off_c, 1, 75, 100
3, 496892, Note_off_c, 1, 63, 100
3, 496892, Note_off_c, 1, 79, 100
3, 496892, Note_off_c, 1, 75, 100
3, 496896, Note_on_c, 1, 79, 120
3, 496896, Note_on_c, 1, 75, 120
3, 497472, Note_on_c, 1, 67, 120
3, 497472, Note_on_c, 1, 63, 120
3, 497660, Note_off_c, 1, 79, 100
3, 497660, Note_off_c, 1, 75, 100
3, 497660, Note_off_c, 1, 67, 100
3, 497660, Note_off_c, 1, 63, 100
3, 497664, Note_on_c, 1, 67, 120
3, 497664, Note_on_c, 1, 63, 120
3, 498240, Note_on_c, 1, 63, 120
3, 498240, Note_on_c, 1, 51, 120
3, 498428, Note_off_c, 1, 67, 100
3, 498428, Note_off_c, 1, 63, 100
3, 498428, Note_off_c, 1, 63, 100
3, 498428, Note_off_c, 1, 51, 100
3, 498432, Note_on_c, 1, 63, 120
3, 498432, Note_on_c, 1, 51, 120
3, 498808, Control_c, 1, 64, 0
3, 498812, Note_off_c, 1, 63, 100
3, 498812, Note_off_c, 1, 51, 100
3, 499200, Control_c, 1, 64, 127
3, 499776, Note_on_c, 1, 74, 120
3, 499776, Note_on_c, 1, 62, 120
3, 499964, Note_off_c, 1, 74, 100
3, 499964, Note_off_c, 1, 62, 100
3, 499968, Note_on_c, 1, 74, 120
3, 499968, Note_on_c, 1, 62, 120
3, 500544, Note_on_c, 1, 62, 120
3, 500544, Note_on_c, 1, 50, 120
3, 500732, Note_off_c, 1, 74, 100
3, 500732, Note_off_c, 1, 62, 100
3, 500732, Note_off_c, 1, 62, 100
3, 500732, Note_off_c, 1, 50, 100
3, 500736, Note_on_c, 1, 62, 120
3, 500736, Note_on_c, 1, 50, 120
3, 501308, Note_off_c, 1, 62, 100
3, 501308, Note_off_c, 1, 50, 100
3, 501312, Note_on_c, 1, 38, 120
3, 501312, Note_on_c, 1, 50, 120
3, 501500, Note_off_c, 1, 38, 100
3, 501500, Note_off_c, 1, 50, 100
3, 501504, Note_on_c, 1, 50, 120
3, 501504, Note_on_c, 1, 38, 120
3, 501880, Control_c, 1, 64, 0
3, 501884, Note_off_c, 1, 50, 100
3, 501884, Note_off_c, 1, 38, 100
3, 502272, Key_signature, 0, "major"
3, 502272, Control_c, 1, 64, 127
3, 502848, Note_on_c, 1, 74, 120
3, 502848, Note_on_c, 1, 71, 120
3, 502848, Note_on_c, 1, 68, 120
3, 502848, Note_on_c, 1, 65, 120
3, 502848, Note_on_c, 1, 62, 120
3, 503036, Note_off_c, 1, 74, 100
3, 503036, Note_off_c, 1, 71, 100
3, 503036, Note_off_c, 1, 68, 100
3, 503036, Note_off_c, 1, 65, 100
3, 503036, Note_off_c, 1, 62, 100
3, 503040, Note_on_c, 1, 74, 120
3, 503040, Note_on_c, 1, 71, 120
3, 503040, Note_on_c, 1, 68, 120
3, 503040, Note_on_c, 1, 65, 120
3, 503040, Note_on_c, 1, 62, 120
3, 503416, Control_c, 1, 64, 0
3, 503616, Note_on_c, 1, 62, 120
3, 503616, Note_on_c, 1, 59, 120
3, 503616, Note_on_c, 1, 56, 120
3, 503616, Note_on_c, 1, 53, 120
3, 503616, Note_on_c, 1, 50, 120
3, 503804, Note_off_c, 1, 74, 100
3, 503804, Note_off_c, 1, 71, 100
3, 503804, Note_off_c, 1, 68, 100
3, 503804, Note_off_c, 1, 65, 100
3, 503804, Note_off_c, 1, 62, 100
3, 503804, Note_off_c, 1, 62, 100
3, 503804, Note_off_c, 1, 59, 100
3, 503804, Note_off_c, 1, 56, 100
3, 503804, Note_off_c, 1, 53, 100
3, 503804, Note_off_c, 1, 50, 100
3, 503808, Note_on_c, 1, 62, 120
3, 503808, Note_on_c, 1, 59, 120
3, 503808, Note_on_c, 1, 56, 120
3, 503808, Note_on_c, 1, 53, 120
3, 503808, Note_on_c, 1, 50, 120
3, 504384, Note_on_c, 1, 50, 120
3, 504384, Note_on_c, 1, 47, 120
3, 504384, Note_on_c, 1, 44, 120
3, 504384, Note_on_c, 1, 41, 120
3, 504384, Note_on_c, 1, 38, 120
3, 504572, Note_off_c, 1, 62, 100
3, 504572, Note_off_c, 1, 59, 100
3, 504572, Note_off_c, 1, 56, 100
3, 504572, Note_off_c, 1, 53, 100
3, 504572, Note_off_c, 1, 50, 100
3, 504572, Note_off_c, 1, 50, 100
3, 504572, Note_off_c, 1, 47, 100
3, 504572, Note_off_c, 1, 44, 100
3, 504572, Note_off_c, 1, 41, 100
3, 504572, Note_off_c, 1, 38, 100
3, 504576, Note_on_c, 1, 51, 120
3, 504576, Note_on_c, 1, 46, 120
3, 504576, Note_on_c, 1, 44, 120
3, 504576, Note_on_c, 1, 41, 120
3, 504576, Note_on_c, 1, 38, 120
3, 504952, Control_c, 1, 64, 0
3, 504956, Note_off_c, 1, 51, 100
3, 504956, Note_off_c, 1, 46, 100
3, 504956, Note_off_c, 1, 44, 100
3, 504956, Note_off_c, 1, 41, 100
3, 504956, Note_off_c, 1, 38, 100
3, 504960, Control_c, 1, 64, 127
3, 505920, Note_on_c, 1, 76, 120
3, 505920, Note_on_c, 1, 70, 120
3, 505920, Note_on_c, 1, 67, 120
3, 505920, Note_on_c, 1, 62, 120
3, 506108, Note_off_c, 1, 76, 100
3, 506108, Note_off_c, 1, 70, 100
3, 506108, Note_off_c, 1, 67, 100
3, 506108, Note_off_c, 1, 62, 100
3, 506112, Note_on_c, 1, 76, 120
3, 506112, Note_on_c, 1, 70, 120
3, 506112, Note_on_c, 1, 67, 120
3, 506112, Note_on_c, 1, 62, 120
3, 506688, Note_on_c, 1, 64, 120
3, 506688, Note_on_c, 1, 58, 120
3, 506688, Note_on_c, 1, 55, 120
3, 506688, Note_on_c, 1, 50, 120
3, 506876, Note_off_c, 1, 76, 100
3, 506876, Note_off_c, 1, 70, 100
3, 506876, Note_off_c, 1, 67, 100
3, 506876, Note_off_c, 1, 62, 100
3, 506876, Note_off_c, 1, 64, 100
3, 506876, Note_off_c, 1, 58, 100
3, 506876, Note_off_c, 1, 55, 100
3, 506876, Note_off_c, 1, 50, 100
3, 506880, Note_on_c, 1, 64, 120
3, 506880, Note_on_c, 1, 58, 120
3, 506880, Note_on_c, 1, 55, 120
3, 506880, Note_on_c, 1, 50, 120
3, 507452, Note_off_c, 1, 64, 100
3, 507452, Note_off_c, 1, 58, 100
3, 507452, Note_off_c, 1, 55, 100
3, 507452, Note_off_c, 1, 50, 100
3, 507456, Note_on_c, 1, 52, 120
3, 507456, Note_on_c, 1, 46, 120
3, 507456, Note_on_c, 1, 43, 120
3, 507456, Note_on_c, 1, 38, 120
3, 507644, Note_off_c, 1, 52, 100
3, 507644, Note_off_c, 1, 46, 100
3, 507644, Note_off_c, 1, 43, 100
3, 507644, Note_off_c, 1, 38, 100
3, 507648, Note_on_c, 1, 52, 120
3, 507648, Note_on_c, 1, 46, 120
3, 507648, Note_on_c, 1, 43, 120
3, 507648, Note_on_c, 1, 38, 120
3, 508024, Control_c, 1, 64, 0
3, 508028, Note_off_c, 1, 52, 100
3, 508028, Note_off_c, 1, 46, 100
3, 508028, Note_off_c, 1, 43, 100
3, 508028, Note_off_c, 1, 38, 100
3, 508032, Control_c, 1, 64, 127
3, 508992, Note_on_c, 1, 74, 120
3, 508992, Note_on_c, 1, 69, 120
3, 508992, Note_on_c, 1, 66, 120
3, 508992, Note_on_c, 1, 62, 120
3, 509180, Note_off_c, 1, 74, 100
3, 509180, Note_off_c, 1, 69, 100
3, 509180, Note_off_c, 1, 66, 100
3, 509180, Note_off_c, 1, 62, 100
3, 509184, Note_on_c, 1, 74, 120
3, 509184, Note_on_c, 1, 69, 120
3, 509184, Note_on_c, 1, 66, 120
3, 509184, Note_on_c, 1, 62, 120
3, 509752, Control_c, 1, 64, 0
3, 509756, Note_off_c, 1, 74, 100
3, 509756, Note_off_c, 1, 69, 100
3, 509756, Note_off_c, 1, 66, 100
3, 509756, Note_off_c, 1, 62, 100
3, 509760, Note_on_c, 1, 62, 120
3, 509760, Note_on_c, 1, 50, 120
3, 509948, Note_off_c, 1, 62, 100
3, 509948, Note_off_c, 1, 50, 100
3, 509952, Note_on_c, 1, 62, 119
3, 509952, Note_on_c, 1, 50, 119
3, 510524, Note_off_c, 1, 62, 100
3, 510524, Note_off_c, 1, 50, 100
3, 510528, Note_on_c, 1, 50, 114
3, 510528, Note_on_c, 1, 38, 114
3, 510716, Note_off_c, 1, 50, 100
3, 510716, Note_off_c, 1, 38, 100
3, 510720, Note_on_c, 1, 50, 112
3, 510720, Note_on_c, 1, 38, 112
3, 511292, Note_off_c, 1, 50, 100
3, 511292, Note_off_c, 1, 38, 100
3, 511296, Note_on_c, 1, 50, 107
3, 511484, Note_off_c, 1, 50, 100
3, 511488, Note_on_c, 1, 38, 105
3, 512060, Note_off_c, 1, 38, 100
3, 512064, Note_on_c, 1, 62, 100
3, 512252, Note_off_c, 1, 62, 100
3, 512256, Note_on_c, 1, 50, 99
3, 512828, Note_off_c, 1, 50, 100
3, 512832, Note_on_c, 1, 62, 94
3, 513020, Note_off_c, 1, 62, 100
3, 513024, Note_on_c, 1, 50, 92
3, 513596, Note_off_c, 1, 50, 100
3, 513600, Note_on_c, 1, 62, 87
3, 513788, Note_off_c, 1, 62, 100
3, 513792, Note_on_c, 1, 50, 86
3, 514364, Note_off_c, 1, 50, 100
3, 514368, Note_on_c, 1, 71, 81
3, 514556, Note_off_c, 1, 71, 100
3, 514560, Key_signature, 2, "major"
3, 514560, Note_on_c, 1, 59, 80
3, 514812, Note_off_c, 1, 59, 100
3, 514816, Note_on_c, 1, 71, 80
3, 515068, Note_off_c, 1, 71, 100
3, 515072, Note_on_c, 1, 70, 80
3, 515324, Note_off_c, 1, 70, 100
3, 515328, Note_on_c, 1, 71, 80
3, 515580, Note_off_c, 1, 71, 100
3, 515588, Note_on_c, 1, 66, 80
3, 515840, Note_off_c, 1, 66, 100
3, 515840, Note_on_c, 1, 71, 80
3, 516092, Note_off_c, 1, 71, 100
3, 516096, Note_on_c, 1, 67, 80
3, 516348, Note_off_c, 1, 67, 100
3, 516352, Note_on_c, 1, 71, 80
3, 516604, Note_off_c, 1, 71, 100
3, 516608, Note_on_c, 1, 67, 80
3, 516860, Note_off_c, 1, 67, 100
3, 516864, Note_on_c, 1, 71, 80
3, 517116, Note_off_c, 1, 71, 100
3, 517120, Note_on_c, 1, 64, 80
3, 517372, Note_off_c, 1, 64, 100
3, 517376, Note_on_c, 1, 71, 80
3, 517628, Note_off_c, 1, 71, 100
3, 517632, Note_on_c, 1, 63, 80
3, 517884, Note_off_c, 1, 63, 100
3, 517888, Note_on_c, 1, 71, 80
3, 518140, Note_off_c, 1, 71, 100
3, 518144, Note_on_c, 1, 63, 80
3, 518396, Note_off_c, 1, 63, 100
3, 518400, Note_on_c, 1, 71, 80
3, 518652, Note_off_c, 1, 71, 100
3, 518656, Note_on_c, 1, 59, 80
3, 518908, Note_off_c, 1, 59, 100
3, 518912, Note_on_c, 1, 71, 80
3, 519164, Note_off_c, 1, 71, 100
3, 519168, Note_on_c, 1, 59, 80
3, 519420, Note_off_c, 1, 59, 100
3, 519424, Note_on_c, 1, 64, 80
3, 519676, Note_off_c, 1, 64, 100
3, 519680, Note_on_c, 1, 59, 80
3, 519932, Note_off_c, 1, 59, 100
3, 519936, Note_on_c, 1, 67, 80
3, 520188, Note_off_c, 1, 67, 100
3, 520192, Note_on_c, 1, 64, 80
3, 520444, Note_off_c, 1, 64, 100
3, 520448, Note_on_c, 1, 67, 80
3, 520700, Note_off_c, 1, 67, 100
3, 520704, Note_on_c, 1, 66, 80
3, 520956, Note_off_c, 1, 66, 100
3, 520960, Note_on_c, 1, 71, 80
3, 521212, Note_off_c, 1, 71, 100
3, 521216, Note_on_c, 1, 66, 80
3, 521468, Note_off_c, 1, 66, 100
3, 521472, Note_on_c, 1, 71, 80
3, 521724, Note_off_c, 1, 71, 100
3, 521728, Note_on_c, 1, 66, 80
3, 521980, Note_off_c, 1, 66, 100
3, 521984, Note_on_c, 1, 71, 80
3, 522236, Note_off_c, 1, 71, 100
3, 522240, Note_on_c, 1, 66, 80
3, 522492, Note_off_c, 1, 66, 100
3, 522496, Note_on_c, 1, 70, 80
3, 522748, Note_off_c, 1, 70, 100
3, 522752, Note_on_c, 1, 66, 80
3, 523004, Note_off_c, 1, 66, 100
3, 523008, Note_on_c, 1, 70, 80
3, 523260, Note_off_c, 1, 70, 100
3, 523264, Note_on_c, 1, 66, 80
3, 523516, Note_off_c, 1, 66, 100
3, 523520, Note_on_c, 1, 70, 80
3, 523772, Note_off_c, 1, 70, 100
3, 523776, Note_on_c, 1, 66, 80
3, 524028, Note_off_c, 1, 66, 100
3, 524032, Note_on_c, 1, 71, 80
3, 524284, Note_off_c, 1, 71, 100
3, 524288, Note_on_c, 1, 66, 80
3, 524540, Note_off_c, 1, 66, 100
3, 524544, Note_on_c, 1, 71, 80
3, 524796, Note_off_c, 1, 71, 100
3, 524800, Note_on_c, 1, 66, 80
3, 525052, Note_off_c, 1, 66, 100
3, 525056, Note_on_c, 1, 71, 80
3, 525308, Note_off_c, 1, 71, 100
3, 525312, Note_on_c, 1, 70, 80
3, 525564, Note_off_c, 1, 70, 100
3, 525568, Note_on_c, 1, 73, 80
3, 525820, Note_off_c, 1, 73, 100
3, 525824, Note_on_c, 1, 70, 80
3, 526076, Note_off_c, 1, 70, 100
3, 526080, Note_on_c, 1, 73, 80
3, 526332, Note_off_c, 1, 73, 100
3, 526336, Note_on_c, 1, 70, 80
3, 526588, Note_off_c, 1, 70, 100
3, 526592, Note_on_c, 1, 73, 80
3, 526844, Note_off_c, 1, 73, 100
3, 526848, Note_on_c, 1, 66, 80
3, 527100, Note_off_c, 1, 66, 100
3, 527104, Note_on_c, 1, 71, 80
3, 527356, Note_off_c, 1, 71, 100
3, 527360, Note_on_c, 1, 66, 80
3, 527612, Note_off_c, 1, 66, 100
3, 527616, Note_on_c, 1, 71, 80
3, 527868, Note_off_c, 1, 71, 100
3, 527872, Note_on_c, 1, 66, 80
3, 528124, Note_off_c, 1, 66, 100
3, 528128, Note_on_c, 1, 71, 80
3, 528380, Note_off_c, 1, 71, 100
3, 528384, Note_on_c, 1, 66, 80
3, 528636, Note_off_c, 1, 66, 100
3, 528640, Note_on_c, 1, 70, 80
3, 528892, Note_off_c, 1, 70, 100
3, 528896, Note_on_c, 1, 66, 80
3, 529148, Note_off_c, 1, 66, 100
3, 529152, Note_on_c, 1, 70, 80
3, 529404, Note_off_c, 1, 70, 100
3, 529408, Note_on_c, 1, 66, 80
3, 529660, Note_off_c, 1, 66, 100
3, 529664, Note_on_c, 1, 70, 80
3, 529916, Note_off_c, 1, 70, 100
3, 529920, Note_on_c, 1, 66, 80
3, 530172, Note_off_c, 1, 66, 100
3, 530176, Note_on_c, 1, 71, 80
3, 530428, Note_off_c, 1, 71, 100
3, 530432, Note_on_c, 1, 66, 80
3, 530684, Note_off_c, 1, 66, 100
3, 530688, Note_on_c, 1, 71, 80
3, 530940, Note_off_c, 1, 71, 100
3, 530944, Note_on_c, 1, 66, 80
3, 531196, Note_off_c, 1, 66, 100
3, 531200, Note_on_c, 1, 71, 80
3, 531452, Note_off_c, 1, 71, 100
3, 531456, Note_on_c, 1, 70, 80
3, 531708, Note_off_c, 1, 70, 100
3, 531712, Note_on_c, 1, 73, 80
3, 531964, Note_off_c, 1, 73, 100
3, 531968, Note_on_c, 1, 70, 80
3, 532220, Note_off_c, 1, 70, 100
3, 532224, Note_on_c, 1, 73, 80
3, 532604, Note_off_c, 1, 73, 100
3, 532800, Note_on_c, 1, 30, 110
3, 532988, Note_off_c, 1, 30, 100
3, 532992, Note_on_c, 1, 34, 110
3, 533564, Note_off_c, 1, 34, 100
3, 533568, Note_on_c, 1, 34, 110
3, 533756, Note_off_c, 1, 34, 100
3, 533760, Note_on_c, 1, 34, 110
3, 534140, Note_off_c, 1, 34, 100
3, 534144, Note_on_c, 1, 35, 110
3, 534332, Note_off_c, 1, 35, 100
3, 534336, Note_on_c, 1, 34, 110
3, 534524, Note_off_c, 1, 34, 100
3, 534528, Key_signature, 5, "major"
3, 534528, Note_on_c, 1, 34, 110
3, 534908, Note_off_c, 1, 34, 100
3, 534912, Note_on_c, 1, 30, 110
3, 535292, Note_off_c, 1, 30, 100
3, 536064, Note_on_c, 1, 58, 80
3, 536444, Note_off_c, 1, 58, 100
3, 536448, Note_on_c, 1, 54, 80
3, 536828, Note_off_c, 1, 54, 100
3, 538944, Note_on_c, 1, 30, 110
3, 539132, Note_off_c, 1, 30, 100
3, 539136, Note_on_c, 1, 40, 110
3, 539708, Note_off_c, 1, 40, 100
3, 539712, Note_on_c, 1, 42, 110
3, 539712, Note_on_c, 1, 40, 110
3, 539900, Note_off_c, 1, 42, 100
3, 539900, Note_off_c, 1, 40, 100
3, 539904, Note_on_c, 1, 52, 110
3, 539904, Note_on_c, 1, 40, 110
3, 540284, Note_off_c, 1, 40, 100
3, 540476, Note_off_c, 1, 52, 100
3, 540480, Note_on_c, 1, 52, 80
3, 540668, Note_off_c, 1, 52, 100
3, 540672, Note_on_c, 1, 52, 80
3, 541052, Note_off_c, 1, 52, 100
3, 542016, Note_on_c, 1, 37, 80
3, 542204, Note_off_c, 1, 37, 100
3, 542208, Note_on_c, 1, 46, 80
3, 542780, Note_off_c, 1, 46, 100
3, 542784, Note_on_c, 1, 46, 80
3, 542784, Note_on_c, 1, 49, 80
3, 542972, Note_off_c, 1, 46, 100
3, 542972, Note_off_c, 1, 49, 100
3, 542976, Note_on_c, 1, 46, 80
3, 543008, Note_on_c, 1, 58, 80
3, 543356, Note_off_c, 1, 46, 100
3, 543552, Note_on_c, 1, 58, 80
3, 543580, Note_off_c, 1, 58, 100
3, 543740, Note_off_c, 1, 58, 100
3, 543744, Note_on_c, 1, 58, 80
3, 544124, Note_off_c, 1, 58, 100
3, 544320, Note_on_c, 1, 61, 80
3, 544508, Note_off_c, 1, 61, 100
3, 544512, Note_on_c, 1, 70, 80
3, 545084, Note_off_c, 1, 70, 100
3, 545088, Note_on_c, 1, 37, 80
3, 545276, Note_off_c, 1, 37, 100
3, 545280, Note_on_c, 1, 49, 80
3, 546620, Note_off_c, 1, 49, 100
3, 546624, Note_on_c, 1, 43, 80
3, 546812, Note_off_c, 1, 43, 100
3, 546816, Note_on_c, 1, 52, 80
3, 548156, Note_off_c, 1, 52, 100
3, 548160, Note_on_c, 1, 43, 80
3, 548348, Note_off_c, 1, 43, 100
3, 548352, Note_on_c, 1, 52, 80
3, 548924, Note_off_c, 1, 52, 100
3, 548928, Note_on_c, 1, 67, 82
3, 549116, Note_off_c, 1, 67, 100
3, 549120, Note_on_c, 1, 76, 83
3, 549692, Note_off_c, 1, 76, 100
3, 549696, Note_on_c, 1, 44, 86
3, 549884, Note_off_c, 1, 44, 100
3, 549888, Note_on_c, 1, 52, 87
3, 550460, Note_off_c, 1, 52, 100
3, 550464, Note_on_c, 1, 68, 90
3, 550652, Note_off_c, 1, 68, 100
3, 550688, Note_on_c, 1, 76, 91
3, 551232, Note_on_c, 1, 45, 94
3, 551260, Note_off_c, 1, 76, 100
3, 551420, Note_off_c, 1, 45, 100
3, 551424, Note_on_c, 1, 52, 95
3, 551996, Note_off_c, 1, 52, 100
3, 552000, Note_on_c, 1, 69, 98
3, 552188, Note_off_c, 1, 69, 100
3, 552192, Note_on_c, 1, 76, 99
3, 552764, Note_off_c, 1, 76, 100
3, 552768, Note_on_c, 1, 45, 102
3, 552956, Note_off_c, 1, 45, 100
3, 552960, Note_on_c, 1, 53, 103
3, 553532, Note_off_c, 1, 53, 100
3, 553536, Note_on_c, 1, 69, 106
3, 553724, Note_off_c, 1, 69, 100
3, 553728, Note_on_c, 1, 77, 107
3, 554300, Note_off_c, 1, 77, 100
3, 554304, Control_c, 1, 64, 127
3, 554304, Note_on_c, 1, 46, 110
3, 554304, Note_on_c, 1, 34, 110
3, 554492, Note_off_c, 1, 46, 100
3, 554492, Note_off_c, 1, 34, 100
3, 554496, Key_signature, -2, "major"
3, 554496, Note_on_c, 1, 58, 120
3, 554496, Note_on_c, 1, 46, 120
3, 554876, Note_off_c, 1, 58, 100
3, 554876, Note_off_c, 1, 46, 100
3, 554880, Note_on_c, 1, 60, 120
3, 555068, Note_off_c, 1, 60, 100
3, 555072, Note_on_c, 1, 58, 120
3, 555256, Control_c, 1, 64, 0
3, 555260, Note_off_c, 1, 58, 100
3, 555264, Note_on_c, 1, 53, 120
3, 555644, Note_off_c, 1, 53, 100
3, 555648, Note_on_c, 1, 55, 120
3, 555836, Note_off_c, 1, 55, 100
3, 555840, Note_on_c, 1, 53, 120
3, 556028, Note_off_c, 1, 53, 100
3, 556032, Note_on_c, 1, 50, 120
3, 556412, Note_off_c, 1, 50, 100
3, 556416, Note_on_c, 1, 51, 120
3, 556604, Note_off_c, 1, 51, 100
3, 556608, Note_on_c, 1, 50, 120
3, 556796, Note_off_c, 1, 50, 100
3, 556800, Note_on_c, 1, 46, 120
3, 557180, Note_off_c, 1, 46, 100
3, 557184, Note_on_c, 1, 48, 120
3, 557372, Note_off_c, 1, 48, 100
3, 557376, Note_on_c, 1, 46, 120
3, 557564, Note_off_c, 1, 46, 100
3, 557568, Control_c, 1, 64, 127
3, 557568, Note_on_c, 1, 38, 120
3, 557616, Note_on_c, 1, 50, 120
3, 557664, Note_on_c, 1, 62, 120
3, 557948, Note_off_c, 1, 38, 100
3, 557948, Note_off_c, 1, 50, 100
3, 557948, Note_off_c, 1, 62, 100
3, 557952, Note_on_c, 1, 63, 120
3, 558140, Note_off_c, 1, 63, 100
3, 558144, Note_on_c, 1, 62, 120
3, 558328, Control_c, 1, 64, 0
3, 558332, Note_off_c, 1, 62, 100
3, 558336, Note_on_c, 1, 58, 120
3, 558716, Note_off_c, 1, 58, 100
3, 558720, Note_on_c, 1, 62, 120
3, 558908, Note_off_c, 1, 62, 100
3, 558912, Note_on_c, 1, 58, 120
3, 559100, Note_off_c, 1, 58, 100
3, 559104, Note_on_c, 1, 53, 120
3, 559484, Note_off_c, 1, 53, 100
3, 559488, Note_on_c, 1, 58, 120
3, 559676, Note_off_c, 1, 58, 100
3, 559680, Note_on_c, 1, 53, 120
3, 559868, Note_off_c, 1, 53, 100
3, 559872, Note_on_c, 1, 50, 120
3, 560060, Note_off_c, 1, 50, 100
3, 560064, Note_on_c, 1, 46, 120
3, 560252, Note_off_c, 1, 46, 100
3, 560256, Note_on_c, 1, 51, 80
3, 560444, Note_off_c, 1, 51, 100
3, 560448, Note_on_c, 1, 48, 80
3, 560636, Note_off_c, 1, 48, 100
3, 560640, Note_on_c, 1, 46, 80
3, 561020, Note_off_c, 1, 46, 100
3, 561024, Note_on_c, 1, 48, 80
3, 561212, Note_off_c, 1, 48, 100
3, 561216, Note_on_c, 1, 46, 80
3, 561404, Note_off_c, 1, 46, 100
3, 561408, Note_on_c, 1, 53, 80
3, 561408, Note_on_c, 1, 41, 80
3, 561788, Note_off_c, 1, 53, 100
3, 561788, Note_off_c, 1, 41, 100
3, 561792, Note_on_c, 1, 51, 80
3, 561980, Note_off_c, 1, 51, 100
3, 561984, Note_on_c, 1, 50, 80
3, 562172, Note_off_c, 1, 50, 100
3, 562176, Note_on_c, 1, 48, 80
3, 562556, Note_off_c, 1, 48, 100
3, 562560, Note_on_c, 1, 50, 80
3, 562748, Note_off_c, 1, 50, 100
3, 562752, Note_on_c, 1, 48, 80
3, 562940, Note_off_c, 1, 48, 100
3, 562944, Note_on_c, 1, 55, 80
3, 562944, Note_on_c, 1, 43, 80
3, 563324, Note_off_c, 1, 55, 100
3, 563324, Note_off_c, 1, 43, 100
3, 563328, Note_on_c, 1, 56, 80
3, 563328, Note_on_c, 1, 53, 80
3, 563516, Note_off_c, 1, 56, 100
3, 563516, Note_off_c, 1, 53, 100
3, 563520, Note_on_c, 1, 55, 80
3, 563520, Note_on_c, 1, 51, 80
3, 563708, Note_off_c, 1, 55, 100
3, 563708, Note_off_c, 1, 51, 100
3, 563712, Note_on_c, 1, 53, 80
3, 563712, Note_on_c, 1, 50, 80
3, 564092, Note_off_c, 1, 53, 100
3, 564092, Note_off_c, 1, 50, 100
3, 564096, Note_on_c, 1, 52, 80
3, 564096, Note_on_c, 1, 49, 80
3, 564476, Note_off_c, 1, 52, 100
3, 564476, Note_off_c, 1, 49, 100
3, 564480, Note_on_c, 1, 51, 80
3, 564480, Note_on_c, 1, 48, 80
3, 564860, Note_off_c, 1, 51, 100
3, 564860, Note_off_c, 1, 48, 100
3, 564864, Note_on_c, 1, 48, 80
3, 564864, Note_on_c, 1, 41, 80
3, 565244, Note_off_c, 1, 48, 100
3, 565244, Note_off_c, 1, 41, 100
3, 565248, Note_on_c, 1, 46, 80
3, 565248, Note_on_c, 1, 43, 80
3, 565628, Note_off_c, 1, 46, 100
3, 565628, Note_off_c, 1, 43, 100
3, 565632, Note_on_c, 1, 47, 80
3, 565632, Note_on_c, 1, 38, 80
3, 565820, Note_off_c, 1, 47, 100
3, 565820, Note_off_c, 1, 38, 100
3, 565824, Note_on_c, 1, 48, 80
3, 565824, Note_on_c, 1, 39, 80
3, 566012, Note_off_c, 1, 48, 100
3, 566012, Note_off_c, 1, 39, 100
3, 566016, Note_on_c, 1, 48, 80
3, 566016, Note_on_c, 1, 41, 80
3, 567932, Note_off_c, 1, 41, 100
3, 567932, Note_off_c, 1, 48, 100
3, 567936, Note_on_c, 1, 58, 80
3, 567936, Note_on_c, 1, 53, 80
3, 568124, Note_off_c, 1, 58, 100
3, 568128, Note_on_c, 1, 60, 80
3, 568316, Note_off_c, 1, 53, 100
3, 568316, Note_off_c, 1, 60, 100
3, 568320, Note_on_c, 1, 62, 80
3, 568320, Note_on_c, 1, 53, 80
3, 568892, Note_off_c, 1, 62, 100
3, 568896, Note_on_c, 1, 63, 80
3, 569084, Note_off_c, 1, 63, 100
3, 569088, Note_on_c, 1, 60, 80
3, 569660, Note_off_c, 1, 60, 100
3, 569664, Note_on_c, 1, 62, 80
3, 569852, Note_off_c, 1, 62, 100
3, 569856, Note_on_c, 1, 60, 80
3, 570044, Note_off_c, 1, 60, 100
3, 570048, Note_on_c, 1, 58, 80
3, 570236, Note_off_c, 1, 58, 100
3, 570240, Note_on_c, 1, 62, 80
3, 570428, Note_off_c, 1, 62, 100
3, 570432, Note_on_c, 1, 60, 80
3, 570620, Note_off_c, 1, 60, 100
3, 570624, Note_on_c, 1, 57, 80
3, 571004, Note_off_c, 1, 53, 100
3, 571004, Note_off_c, 1, 57, 100
3, 571008, Note_on_c, 1, 58, 80
3, 571008, Note_on_c, 1, 60, 80
3, 571196, Note_off_c, 1, 60, 100
3, 571200, Note_on_c, 1, 62, 80
3, 571388, Note_off_c, 1, 58, 100
3, 571388, Note_off_c, 1, 62, 100
3, 571392, Note_on_c, 1, 58, 80
3, 571392, Note_on_c, 1, 63, 80
3, 571964, Note_off_c, 1, 63, 100
3, 571968, Note_on_c, 1, 65, 80
3, 572156, Note_off_c, 1, 65, 100
3, 572160, Note_on_c, 1, 62, 80
3, 572732, Note_off_c, 1, 62, 100
3, 572736, Note_on_c, 1, 63, 80
3, 572924, Note_off_c, 1, 63, 100
3, 572928, Note_on_c, 1, 62, 80
3, 573116, Note_off_c, 1, 62, 100
3, 573120, Note_on_c, 1, 60, 80
3, 573308, Note_off_c, 1, 58, 100
3, 573308, Note_off_c, 1, 60, 100
3, 573312, Note_on_c, 1, 63, 80
3, 573312, Note_on_c, 1, 58, 80
3, 573500, Note_off_c, 1, 63, 100
3, 573504, Note_on_c, 1, 62, 80
3, 573692, Note_off_c, 1, 58, 100
3, 573692, Note_off_c, 1, 62, 100
3, 573696, Note_on_c, 1, 58, 80
3, 574076, Note_off_c, 1, 58, 100
3, 574080, Note_on_c, 1, 62, 80
3, 574080, Note_on_c, 1, 58, 80
3, 574268, Note_off_c, 1, 62, 100
3, 574272, Note_on_c, 1, 63, 80
3, 574460, Note_off_c, 1, 58, 100
3, 574460, Note_off_c, 1, 63, 100
3, 574464, Note_on_c, 1, 65, 80
3, 574464, Note_on_c, 1, 58, 80
3, 575036, Note_off_c, 1, 65, 100
3, 575040, Note_on_c, 1, 66, 80
3, 575228, Note_off_c, 1, 58, 100
3, 575228, Note_off_c, 1, 66, 100
3, 575232, Note_on_c, 1, 63, 80
3, 575612, Note_off_c, 1, 63, 100
3, 575616, Note_on_c, 1, 63, 80
3, 575616, Note_on_c, 1, 61, 80
3, 575804, Note_off_c, 1, 63, 100
3, 575808, Note_on_c, 1, 65, 80
3, 575996, Note_off_c, 1, 61, 100
3, 575996, Note_off_c, 1, 65, 100
3, 576000, Note_on_c, 1, 61, 80
3, 576000, Note_on_c, 1, 67, 80
3, 576572, Note_off_c, 1, 67, 100
3, 576576, Note_on_c, 1, 68, 80
3, 576764, Note_off_c, 1, 68, 100
3, 576768, Note_on_c, 1, 65, 80
3, 576956, Note_off_c, 1, 65, 100
3, 576960, Note_on_c, 1, 71, 80
3, 577148, Note_off_c, 1, 71, 100
3, 577152, Note_on_c, 1, 70, 80
3, 577340, Note_off_c, 1, 70, 100
3, 577344, Note_on_c, 1, 68, 80
3, 577532, Note_off_c, 1, 61, 100
3, 577532, Note_off_c, 1, 68, 100
3, 577536, Note_on_c, 1, 61, 80
3, 577536, Note_on_c, 1, 66, 80
3, 577916, Note_off_c, 1, 66, 100
3, 577920, Note_on_c, 1, 70, 81
3, 578684, Note_off_c, 1, 70, 100
3, 578688, Note_on_c, 1, 68, 83
3, 579068, Note_off_c, 1, 61, 100
3, 579072, Note_on_c, 1, 61, 84
3, 579452, Note_off_c, 1, 68, 100
3, 579456, Note_on_c, 1, 66, 85
3, 579836, Note_off_c, 1, 66, 100
3, 579840, Note_on_c, 1, 73, 86
3, 580220, Note_off_c, 1, 73, 100
3, 580224, Note_on_c, 1, 71, 87
3, 580604, Note_off_c, 1, 61, 100
3, 580604, Note_off_c, 1, 71, 100
3, 580608, Note_on_c, 1, 61, 89
3, 580608, Note_on_c, 1, 71, 89
3, 580796, Note_off_c, 1, 71, 100
3, 580800, Note_on_c, 1, 70, 89
3, 580988, Note_off_c, 1, 70, 100
3, 580992, Note_on_c, 1, 71, 90
3, 581180, Note_off_c, 1, 71, 100
3, 581184, Note_on_c, 1, 70, 90
3, 581372, Note_off_c, 1, 70, 100
3, 581376, Note_on_c, 1, 70, 91
3, 581564, Note_off_c, 1, 70, 100
3, 581568, Note_on_c, 1, 68, 91
3, 581756, Note_off_c, 1, 68, 100
3, 581760, Note_on_c, 1, 70, 92
3, 581948, Note_off_c, 1, 70, 100
3, 581952, Note_on_c, 1, 68, 92
3, 582140, Note_off_c, 1, 61, 100
3, 582140, Note_off_c, 1, 68, 100
3, 582144, Note_on_c, 1, 61, 93
3, 582144, Note_on_c, 1, 68, 93
3, 582332, Note_off_c, 1, 68, 100
3, 582336, Note_on_c, 1, 66, 94
3, 582524, Note_off_c, 1, 66, 100
3, 582528, Note_on_c, 1, 75, 94
3, 582716, Note_off_c, 1, 75, 100
3, 582720, Note_on_c, 1, 73, 95
3, 582908, Note_off_c, 1, 73, 100
3, 582912, Note_on_c, 1, 73, 95
3, 583292, Note_off_c, 1, 73, 100
3, 583296, Note_on_c, 1, 71, 96
3, 583676, Note_off_c, 1, 61, 100
3, 583676, Note_off_c, 1, 71, 100
3, 583680, Note_on_c, 1, 61, 98
3, 583680, Note_on_c, 1, 69, 98
3, 583868, Note_off_c, 1, 69, 100
3, 583872, Note_on_c, 1, 70, 98
3, 584060, Note_off_c, 1, 70, 100
3, 584064, Note_on_c, 1, 71, 99
3, 584252, Note_off_c, 1, 71, 100
3, 584256, Note_on_c, 1, 70, 99
3, 584444, Note_off_c, 1, 61, 100
3, 584444, Note_off_c, 1, 70, 100
3, 584448, Note_on_c, 1, 61, 100
3, 584448, Note_on_c, 1, 67, 100
3, 584636, Note_off_c, 1, 67, 100
3, 584640, Note_on_c, 1, 68, 100
3, 584828, Note_off_c, 1, 68, 100
3, 584832, Note_on_c, 1, 70, 101
3, 585020, Note_off_c, 1, 70, 100
3, 585024, Note_on_c, 1, 68, 101
3, 585212, Note_off_c, 1, 61, 100
3, 585212, Note_off_c, 1, 68, 100
3, 585216, Note_on_c, 1, 61, 102
3, 585216, Note_on_c, 1, 65, 102
3, 585404, Note_off_c, 1, 65, 100
3, 585408, Note_on_c, 1, 66, 103
3, 585596, Note_off_c, 1, 66, 100
3, 585600, Note_on_c, 1, 68, 103
3, 585788, Note_off_c, 1, 68, 100
3, 585792, Note_on_c, 1, 66, 104
3, 585980, Note_off_c, 1, 61, 100
3, 585980, Note_off_c, 1, 66, 100
3, 585984, Note_on_c, 1, 61, 104
3, 585984, Note_on_c, 1, 66, 104
3, 586172, Note_off_c, 1, 66, 100
3, 586176, Note_on_c, 1, 65, 105
3, 586364, Note_off_c, 1, 61, 100
3, 586364, Note_off_c, 1, 65, 100
3, 586368, Note_on_c, 1, 60, 105
3, 586368, Note_on_c, 1, 66, 105
3, 586556, Note_off_c, 1, 66, 100
3, 586560, Note_on_c, 1, 68, 106
3, 586748, Note_off_c, 1, 60, 100
3, 586748, Note_off_c, 1, 68, 100
3, 586752, Note_on_c, 1, 70, 107
3, 586752, Note_on_c, 1, 58, 107
3, 587132, Note_off_c, 1, 70, 100
3, 587132, Note_off_c, 1, 58, 100
3, 587136, Note_on_c, 1, 68, 108
3, 587136, Note_on_c, 1, 56, 108
3, 587516, Note_off_c, 1, 68, 100
3, 587516, Note_off_c, 1, 56, 100
3, 587520, Note_on_c, 1, 63, 109
3, 587520, Note_on_c, 1, 51, 109
3, 587900, Note_off_c, 1, 63, 100
3, 587900, Note_off_c, 1, 51, 100
3, 587904, Note_on_c, 1, 62, 110
3, 587904, Note_on_c, 1, 50, 110
3, 588284, Note_off_c, 1, 62, 100
3, 588284, Note_off_c, 1, 50, 100
3, 588288, Note_on_c, 1, 61, 110
3, 588288, Note_on_c, 1, 49, 110
3, 588668, Note_off_c, 1, 61, 100
3, 588668, Note_off_c, 1, 49, 100
3, 588672, Note_on_c, 1, 49, 110
3, 588672, Note_on_c, 1, 37, 110
3, 589244, Note_off_c, 1, 49, 100
3, 589248, Note_on_c, 1, 47, 110
3, 589436, Note_off_c, 1, 37, 100
3, 589436, Note_off_c, 1, 47, 100
3, 589440, Note_on_c, 1, 46, 110
3, 589440, Note_on_c, 1, 37, 110
3, 589628, Note_off_c, 1, 46, 100
3, 589632, Note_on_c, 1, 44, 110
3, 589820, Note_off_c, 1, 37, 100
3, 589820, Note_off_c, 1, 44, 100
3, 589824, Control_c, 1, 64, 127
3, 589824, Note_on_c, 1, 42, 110
3, 589824, Note_on_c, 1, 30, 110
3, 590012, Note_off_c, 1, 42, 100
3, 590012, Note_off_c, 1, 30, 100
3, 590016, Note_on_c, 1, 58, 110
3, 590016, Note_on_c, 1, 54, 110
3, 590016, Note_on_c, 1, 49, 110
3, 590204, Note_off_c, 1, 58, 100
3, 590204, Note_off_c, 1, 54, 100
3, 590204, Note_off_c, 1, 49, 100
3, 590208, Note_on_c, 1, 58, 110
3, 590208, Note_on_c, 1, 54, 110
3, 590208, Note_on_c, 1, 49, 110
3, 590396, Note_off_c, 1, 58, 100
3, 590396, Note_off_c, 1, 54, 100
3, 590396, Note_off_c, 1, 49, 100
3, 590400, Note_on_c, 1, 58, 110
3, 590400, Note_on_c, 1, 54, 110
3, 590400, Note_on_c, 1, 49, 110
3, 590588, Note_off_c, 1, 58, 100
3, 590588, Note_off_c, 1, 54, 100
3, 590588, Note_off_c, 1, 49, 100
3, 590784, Note_on_c, 1, 54, 110
3, 590784, Note_on_c, 1, 49, 110
3, 590784, Note_on_c, 1, 46, 110
3, 590972, Note_off_c, 1, 54, 100
3, 590972, Note_off_c, 1, 49, 100
3, 590972, Note_off_c, 1, 46, 100
3, 590976, Note_on_c, 1, 54, 110
3, 590976, Note_on_c, 1, 49, 110
3, 590976, Note_on_c, 1, 46, 110
3, 591164, Note_off_c, 1, 54, 100
3, 591164, Note_off_c, 1, 49, 100
3, 591164, Note_off_c, 1, 46, 100
3, 591168, Note_on_c, 1, 54, 110
3, 591168, Note_on_c, 1, 49, 110
3, 591168, Note_on_c, 1, 46, 110
3, 591352, Control_c, 1, 64, 0
3, 591356, Note_off_c, 1, 54, 100
3, 591356, Note_off_c, 1, 49, 100
3, 591356, Note_off_c, 1, 46, 100
3, 591552, Note_on_c, 1, 58, 80
3, 591552, Note_on_c, 1, 54, 80
3, 591552, Note_on_c, 1, 49, 80
3, 591740, Note_off_c, 1, 58, 100
3, 591740, Note_off_c, 1, 54, 100
3, 591740, Note_off_c, 1, 49, 100
3, 591936, Note_on_c, 1, 54, 80
3, 591936, Note_on_c, 1, 49, 80
3, 591936, Note_on_c, 1, 46, 80
3, 592124, Note_off_c, 1, 54, 100
3, 592124, Note_off_c, 1, 49, 100
3, 592124, Note_off_c, 1, 46, 100
3, 592320, Note_on_c, 1, 58, 80
3, 592320, Note_on_c, 1, 54, 80
3, 592320, Note_on_c, 1, 49, 80
3, 592508, Note_off_c, 1, 58, 100
3, 592508, Note_off_c, 1, 54, 100
3, 592508, Note_off_c, 1, 49, 100
3, 592704, Note_on_c, 1, 56, 80
3, 592704, Note_on_c, 1, 53, 80
3, 592704, Note_on_c, 1, 50, 80
3, 592704, Note_on_c, 1, 47, 80
3, 592892, Note_off_c, 1, 56, 100
3, 592892, Note_off_c, 1, 53, 100
3, 592892, Note_off_c, 1, 50, 100
3, 592892, Note_off_c, 1, 47, 100
3, 592896, Control_c, 1, 64, 127
3, 592896, Note_on_c, 1, 42, 110
3, 592896, Note_on_c, 1, 30, 110
3, 593084, Note_off_c, 1, 42, 100
3, 593084, Note_off_c, 1, 30, 100
3, 593088, Note_on_c, 1, 59, 110
3, 593088, Note_on_c, 1, 56, 110
3, 593088, Note_on_c, 1, 53, 110
3, 593088, Note_on_c, 1, 50, 110
3, 593276, Note_off_c, 1, 59, 100
3, 593276, Note_off_c, 1, 56, 100
3, 593276, Note_off_c, 1, 53, 100
3, 593276, Note_off_c, 1, 50, 100
3, 593280, Note_on_c, 1, 59, 110
3, 593280, Note_on_c, 1, 56, 110
3, 593280, Note_on_c, 1, 53, 110
3, 593280, Note_on_c, 1, 50, 110
3, 593468, Note_off_c, 1, 59, 100
3, 593468, Note_off_c, 1, 56, 100
3, 593468, Note_off_c, 1, 53, 100
3, 593468, Note_off_c, 1, 50, 100
3, 593472, Note_on_c, 1, 59, 110
3, 593472, Note_on_c, 1, 56, 110
3, 593472, Note_on_c, 1, 53, 110
3, 593472, Note_on_c, 1, 50, 110
3, 593660, Note_off_c, 1, 59, 100
3, 593660, Note_off_c, 1, 56, 100
3, 593660, Note_off_c, 1, 53, 100
3, 593660, Note_off_c, 1, 50, 100
3, 593856, Note_on_c, 1, 56, 110
3, 593856, Note_on_c, 1, 53, 110
3, 593856, Note_on_c, 1, 50, 110
3, 593856, Note_on_c, 1, 47, 110
3, 594044, Note_off_c, 1, 56, 100
3, 594044, Note_off_c, 1, 53, 100
3, 594044, Note_off_c, 1, 50, 100
3, 594044, Note_off_c, 1, 47, 100
3, 594048, Note_on_c, 1, 56, 110
3, 594048, Note_on_c, 1, 53, 110
3, 594048, Note_on_c, 1, 50, 110
3, 594048, Note_on_c, 1, 47, 110
3, 594236, Note_off_c, 1, 56, 100
3, 594236, Note_off_c, 1, 53, 100
3, 594236, Note_off_c, 1, 50, 100
3, 594236, Note_off_c, 1, 47, 100
3, 594240, Note_on_c, 1, 56, 110
3, 594240, Note_on_c, 1, 53, 110
3, 594240, Note_on_c, 1, 50, 110
3, 594240, Note_on_c, 1, 47, 110
3, 594424, Control_c, 1, 64, 0
3, 594428, Note_off_c, 1, 56, 100
3, 594428, Note_off_c, 1, 53, 100
3, 594428, Note_off_c, 1, 50, 100
3, 594428, Note_off_c, 1, 47, 100
3, 594624, Note_on_c, 1, 59, 80
3, 594624, Note_on_c, 1, 56, 80
3, 594624, Note_on_c, 1, 53, 80
3, 594624, Note_on_c, 1, 50, 80
3, 594812, Note_off_c, 1, 59, 100
3, 594812, Note_off_c, 1, 56, 100
3, 594812, Note_off_c, 1, 53, 100
3, 594812, Note_off_c, 1, 50, 100
3, 595008, Note_on_c, 1, 56, 80
3, 595008, Note_on_c, 1, 53, 80
3, 595008, Note_on_c, 1, 50, 80
3, 595008, Note_on_c, 1, 47, 80
3, 595196, Note_off_c, 1, 56, 100
3, 595196, Note_off_c, 1, 53, 100
3, 595196, Note_off_c, 1, 50, 100
3, 595196, Note_off_c, 1, 47, 100
3, 595392, Note_on_c, 1, 59, 80
3, 595392, Note_on_c, 1, 56, 80
3, 595392, Note_on_c, 1, 53, 80
3, 595392, Note_on_c, 1, 50, 80
3, 595580, Note_off_c, 1, 59, 100
3, 595580, Note_off_c, 1, 56, 100
3, 595580, Note_off_c, 1, 53, 100
3, 595580, Note_off_c, 1, 50, 100
3, 595776, Note_on_c, 1, 58, 80
3, 595776, Note_on_c, 1, 55, 80
3, 595776, Note_on_c, 1, 52, 80
3, 595776, Note_on_c, 1, 49, 80
3, 595964, Note_off_c, 1, 58, 100
3, 595964, Note_off_c, 1, 55, 100
3, 595964, Note_off_c, 1, 52, 100
3, 595964, Note_off_c, 1, 49, 100
3, 595968, Control_c, 1, 64, 127
3, 595968, Note_on_c, 1, 42, 110
3, 595968, Note_on_c, 1, 30, 110
3, 596156, Note_off_c, 1, 42, 100
3, 596156, Note_off_c, 1, 30, 100
3, 596160, Note_on_c, 1, 61, 110
3, 596160, Note_on_c, 1, 58, 110
3, 596160, Note_on_c, 1, 52, 110
3, 596348, Note_off_c, 1, 61, 100
3, 596348, Note_off_c, 1, 58, 100
3, 596348, Note_off_c, 1, 52, 100
3, 596352, Note_on_c, 1, 61, 110
3, 596352, Note_on_c, 1, 58, 110
3, 596352, Note_on_c, 1, 52, 110
3, 596540, Note_off_c, 1, 61, 100
3, 596540, Note_off_c, 1, 58, 100
3, 596540, Note_off_c, 1, 52, 100
3, 596544, Note_on_c, 1, 61, 110
3, 596544, Note_on_c, 1, 58, 110
3, 596544, Note_on_c, 1, 52, 110
3, 596732, Note_off_c, 1, 61, 100
3, 596732, Note_off_c, 1, 58, 100
3, 596732, Note_off_c, 1, 52, 100
3, 596928, Note_on_c, 1, 58, 110
3, 596928, Note_on_c, 1, 55, 110
3, 596928, Note_on_c, 1, 52, 110
3, 596928, Note_on_c, 1, 49, 110
3, 597116, Note_off_c, 1, 58, 100
3, 597116, Note_off_c, 1, 55, 100
3, 597116, Note_off_c, 1, 52, 100
3, 597116, Note_off_c, 1, 49, 100
3, 597120, Note_on_c, 1, 58, 110
3, 597120, Note_on_c, 1, 55, 110
3, 597120, Note_on_c, 1, 52, 110
3, 597120, Note_on_c, 1, 49, 110
3, 597308, Note_off_c, 1, 58, 100
3, 597308, Note_off_c, 1, 55, 100
3, 597308, Note_off_c, 1, 52, 100
3, 597308, Note_off_c, 1, 49, 100
3, 597312, Note_on_c, 1, 58, 110
3, 597312, Note_on_c, 1, 55, 110
3, 597312, Note_on_c, 1, 52, 110
3, 597312, Note_on_c, 1, 49, 110
3, 597496, Control_c, 1, 64, 0
3, 597500, Note_off_c, 1, 58, 100
3, 597500, Note_off_c, 1, 55, 100
3, 597500, Note_off_c, 1, 52, 100
3, 597500, Note_off_c, 1, 49, 100
3, 597696, Note_on_c, 1, 61, 80
3, 597696, Note_on_c, 1, 58, 80
3, 597696, Note_on_c, 1, 55, 80
3, 597696, Note_on_c, 1, 52, 80
3, 597884, Note_off_c, 1, 61, 100
3, 597884, Note_off_c, 1, 58, 100
3, 597884, Note_off_c, 1, 55, 100
3, 597884, Note_off_c, 1, 52, 100
3, 598080, Note_on_c, 1, 58, 80
3, 598080, Note_on_c, 1, 55, 80
3, 598080, Note_on_c, 1, 52, 80
3, 598080, Note_on_c, 1, 49, 80
3, 598268, Note_off_c, 1, 58, 100
3, 598268, Note_off_c, 1, 55, 100
3, 598268, Note_off_c, 1, 52, 100
3, 598268, Note_off_c, 1, 49, 100
3, 598464, Note_on_c, 1, 61, 80
3, 598464, Note_on_c, 1, 58, 80
3, 598464, Note_on_c, 1, 55, 80
3, 598464, Note_on_c, 1, 52, 80
3, 598652, Note_off_c, 1, 61, 100
3, 598652, Note_off_c, 1, 58, 100
3, 598652, Note_off_c, 1, 55, 100
3, 598652, Note_off_c, 1, 52, 100
3, 598848, Note_on_c, 1, 59, 80
3, 598848, Note_on_c, 1, 54, 80
3, 598848, Note_on_c, 1, 50, 80
3, 599036, Note_off_c, 1, 59, 100
3, 599036, Note_off_c, 1, 54, 100
3, 599036, Note_off_c, 1, 50, 100
3, 599040, Control_c, 1, 64, 127
3, 599040, Note_on_c, 1, 42, 110
3, 599040, Note_on_c, 1, 30, 110
3, 599228, Note_off_c, 1, 42, 100
3, 599228, Note_off_c, 1, 30, 100
3, 599232, Note_on_c, 1, 62, 110
3, 599232, Note_on_c, 1, 59, 110
3, 599232, Note_on_c, 1, 54, 110
3, 599420, Note_off_c, 1, 62, 100
3, 599420, Note_off_c, 1, 59, 100
3, 599420, Note_off_c, 1, 54, 100
3, 599424, Note_on_c, 1, 62, 110
3, 599424, Note_on_c, 1, 59, 110
3, 599424, Note_on_c, 1, 54, 110
3, 599612, Note_off_c, 1, 62, 100
3, 599612, Note_off_c, 1, 59, 100
3, 599612, Note_off_c, 1, 54, 100
3, 599616, Note_on_c, 1, 62, 110
3, 599616, Note_on_c, 1, 59, 110
3, 599616, Note_on_c, 1, 54, 110
3, 599804, Note_off_c, 1, 62, 100
3, 599804, Note_off_c, 1, 59, 100
3, 599804, Note_off_c, 1, 54, 100
3, 600000, Note_on_c, 1, 59, 110
3, 600000, Note_on_c, 1, 54, 110
3, 600000, Note_on_c, 1, 50, 110
3, 600188, Note_off_c, 1, 59, 100
3, 600188, Note_off_c, 1, 54, 100
3, 600188, Note_off_c, 1, 50, 100
3, 600192, Note_on_c, 1, 59, 110
3, 600192, Note_on_c, 1, 54, 110
3, 600192, Note_on_c, 1, 50, 110
3, 600380, Note_off_c, 1, 59, 100
3, 600380, Note_off_c, 1, 54, 100
3, 600380, Note_off_c, 1, 50, 100
3, 600384, Note_on_c, 1, 59, 110
3, 600384, Note_on_c, 1, 54, 110
3, 600384, Note_on_c, 1, 50, 110
3, 600568, Control_c, 1, 64, 0
3, 600572, Note_off_c, 1, 59, 100
3, 600572, Note_off_c, 1, 54, 100
3, 600572, Note_off_c, 1, 50, 100
3, 600768, Note_on_c, 1, 62, 80
3, 600768, Note_on_c, 1, 59, 80
3, 600768, Note_on_c, 1, 57, 80
3, 600768, Note_on_c, 1, 52, 80
3, 600956, Note_off_c, 1, 62, 100
3, 600956, Note_off_c, 1, 59, 100
3, 600956, Note_off_c, 1, 57, 100
3, 600956, Note_off_c, 1, 52, 100
3, 601152, Note_on_c, 1, 59, 80
3, 601152, Note_on_c, 1, 57, 80
3, 601152, Note_on_c, 1, 52, 80
3, 601152, Note_on_c, 1, 50, 80
3, 601340, Note_off_c, 1, 59, 100
3, 601340, Note_off_c, 1, 57, 100
3, 601340, Note_off_c, 1, 52, 100
3, 601340, Note_off_c, 1, 50, 100
3, 601536, Note_on_c, 1, 59, 81
3, 601536, Note_on_c, 1, 62, 81
3, 601536, Note_on_c, 1, 57, 81
3, 601536, Note_on_c, 1, 52, 81
3, 601724, Note_off_c, 1, 59, 100
3, 601724, Note_off_c, 1, 62, 100
3, 601724, Note_off_c, 1, 57, 100
3, 601724, Note_off_c, 1, 52, 100
3, 601920, Note_on_c, 1, 61, 84
3, 601920, Note_on_c, 1, 58, 84
3, 601920, Note_on_c, 1, 55, 84
3, 601920, Note_on_c, 1, 52, 84
3, 602108, Note_off_c, 1, 61, 100
3, 602108, Note_off_c, 1, 58, 100
3, 602108, Note_off_c, 1, 55, 100
3, 602108, Note_off_c, 1, 52, 100
3, 602304, Note_on_c, 1, 64, 88
3, 602304, Note_on_c, 1, 61, 88
3, 602304, Note_on_c, 1, 58, 88
3, 602304, Note_on_c, 1, 55, 88
3, 602492, Note_off_c, 1, 64, 100
3, 602492, Note_off_c, 1, 61, 100
3, 602492, Note_off_c, 1, 58, 100
3, 602492, Note_off_c, 1, 55, 100
3, 602688, Note_on_c, 1, 61, 91
3, 602688, Note_on_c, 1, 58, 91
3, 602688, Note_on_c, 1, 55, 91
3, 602688, Note_on_c, 1, 52, 91
3, 602876, Note_off_c, 1, 61, 100
3, 602876, Note_off_c, 1, 58, 100
3, 602876, Note_off_c, 1, 55, 100
3, 602876, Note_off_c, 1, 52, 100
3, 603072, Note_on_c, 1, 64, 94
3, 603072, Note_on_c, 1, 61, 94
3, 603072, Note_on_c, 1, 58, 94
3, 603072, Note_on_c, 1, 55, 94
3, 603260, Note_off_c, 1, 64, 100
3, 603260, Note_off_c, 1, 61, 100
3, 603260, Note_off_c, 1, 58, 100
3, 603260, Note_off_c, 1, 55, 100
3, 603456, Note_on_c, 1, 62, 97
3, 603456, Note_on_c, 1, 59, 97
3, 603456, Note_on_c, 1, 54, 97
3, 603644, Note_off_c, 1, 62, 100
3, 603644, Note_off_c, 1, 59, 100
3, 603644, Note_off_c, 1, 54, 100
3, 603840, Note_on_c, 1, 62, 101
3, 603840, Note_on_c, 1, 59, 101
3, 603840, Note_on_c, 1, 54, 101
3, 604028, Note_off_c, 1, 62, 100
3, 604028, Note_off_c, 1, 59, 100
3, 604028, Note_off_c, 1, 54, 100
3, 604224, Note_on_c, 1, 62, 104
3, 604224, Note_on_c, 1, 59, 104
3, 604224, Note_on_c, 1, 54, 104
3, 604412, Note_off_c, 1, 62, 100
3, 604412, Note_off_c, 1, 59, 100
3, 604412, Note_off_c, 1, 54, 100
3, 604608, Note_on_c, 1, 62, 107
3, 604608, Note_on_c, 1, 59, 107
3, 604608, Note_on_c, 1, 54, 107
3, 604796, Note_off_c, 1, 62, 100
3, 604796, Note_off_c, 1, 59, 100
3, 604796, Note_off_c, 1, 54, 100
3, 604992, Note_on_c, 1, 65, 110
3, 604992, Note_on_c, 1, 61, 110
3, 604992, Note_on_c, 1, 59, 110
3, 604992, Note_on_c, 1, 56, 110
3, 605180, Note_off_c, 1, 65, 100
3, 605180, Note_off_c, 1, 61, 100
3, 605180, Note_off_c, 1, 59, 100
3, 605180, Note_off_c, 1, 56, 100
3, 605376, Note_on_c, 1, 68, 110
3, 605376, Note_on_c, 1, 56, 110
3, 605564, Note_off_c, 1, 68, 100
3, 605564, Note_off_c, 1, 56, 100
3, 605760, Note_on_c, 1, 66, 110
3, 605760, Note_on_c, 1, 54, 110
3, 605948, Note_off_c, 1, 66, 100
3, 605948, Note_off_c, 1, 54, 100
3, 606144, Note_on_c, 1, 63, 110
3, 606144, Note_on_c, 1, 51, 110
3, 606332, Note_off_c, 1, 63, 100
3, 606332, Note_off_c, 1, 51, 100
3, 606528, Note_on_c, 1, 61, 110
3, 606528, Note_on_c, 1, 49, 110
3, 606716, Note_off_c, 1, 61, 100
3, 606716, Note_off_c, 1, 49, 100
3, 606912, Note_on_c, 1, 59, 110
3, 606912, Note_on_c, 1, 47, 110
3, 607100, Note_off_c, 1, 59, 100
3, 607100, Note_off_c, 1, 47, 100
3, 607296, Note_on_c, 1, 58, 110
3, 607296, Note_on_c, 1, 46, 110
3, 607484, Note_off_c, 1, 58, 100
3, 607484, Note_off_c, 1, 46, 100
3, 607680, Note_on_c, 1, 44, 110
3, 607680, Note_on_c, 1, 56, 110
3, 607868, Note_off_c, 1, 44, 100
3, 607868, Note_off_c, 1, 56, 100
3, 608064, Note_on_c, 1, 54, 110
3, 608064, Note_on_c, 1, 42, 110
3, 608252, Note_off_c, 1, 54, 100
3, 608252, Note_off_c, 1, 42, 100
3, 608448, Note_on_c, 1, 51, 110
3, 608448, Note_on_c, 1, 39, 110
3, 608636, Note_off_c, 1, 51, 100
3, 608636, Note_off_c, 1, 39, 100
3, 608832, Note_on_c, 1, 49, 110
3, 608832, Note_on_c, 1, 37, 110
3, 609020, Note_off_c, 1, 49, 100
3, 609020, Note_off_c, 1, 37, 100
3, 609216, Note_on_c, 1, 47, 110
3, 609216, Note_on_c, 1, 35, 110
3, 609404, Note_off_c, 1, 47, 100
3, 609404, Note_off_c, 1, 35, 100
3, 609600, Note_on_c, 1, 46, 110
3, 609600, Note_on_c, 1, 34, 110
3, 609788, Note_off_c, 1, 46, 100
3, 609788, Note_off_c, 1, 34, 100
3, 609984, Note_on_c, 1, 44, 110
3, 609984, Note_on_c, 1, 32, 110
3, 610172, Note_off_c, 1, 44, 100
3, 610172, Note_off_c, 1, 32, 100
3, 610368, Note_on_c, 1, 42, 110
3, 610368, Note_on_c, 1, 30, 110
3, 610556, Note_off_c, 1, 42, 100
3, 610556, Note_off_c, 1, 30, 100
3, 610752, Note_on_c, 1, 39, 110
3, 610940, Note_off_c, 1, 39, 100
3, 611136, Note_on_c, 1, 37, 110
3, 611324, Note_off_c, 1, 37, 100
3, 611328, Control_c, 1, 64, 127
3, 611520, Note_on_c, 1, 41, 109
3, 611904, Note_on_c, 1, 37, 107
3, 612284, Note_off_c, 1, 41, 100
3, 612288, Note_on_c, 1, 44, 104
3, 612668, Note_off_c, 1, 37, 100
3, 612672, Note_on_c, 1, 37, 102
3, 612860, Note_off_c, 1, 44, 100
3, 613056, Note_on_c, 1, 49, 99
3, 613244, Note_off_c, 1, 37, 100
3, 613440, Note_on_c, 1, 37, 97
3, 613628, Note_off_c, 1, 49, 100
3, 613824, Note_on_c, 1, 53, 94
3, 614012, Note_off_c, 1, 37, 100
3, 614208, Note_on_c, 1, 37, 92
3, 614396, Note_off_c, 1, 53, 100
3, 614592, Note_on_c, 1, 56, 89
3, 614780, Note_off_c, 1, 37, 100
3, 614976, Note_on_c, 1, 37, 87
3, 615164, Note_off_c, 1, 56, 100
3, 615360, Note_on_c, 1, 61, 84
3, 615548, Note_off_c, 1, 37, 100
3, 615744, Note_on_c, 1, 37, 82
3, 615932, Note_off_c, 1, 61, 100
3, 616128, Note_on_c, 1, 61, 79
3, 616316, Note_off_c, 1, 37, 100
3, 616512, Note_on_c, 1, 37, 77
3, 616700, Note_off_c, 1, 61, 100
3, 617084, Note_off_c, 1, 37, 100
3, 617088, Note_on_c, 1, 61, 73
3, 617088, Note_on_c, 1, 54, 73
3, 618808, Control_c, 1, 64, 0
3, 618816, Control_c, 1, 64, 127
3, 618816, Note_on_c, 1, 35, 120
3, 619004, Note_off_c, 1, 54, 100
3, 619004, Note_off_c, 1, 61, 100
3, 619004, Note_off_c, 1, 35, 100
3, 619008, Key_signature, 2, "major"
3, 619008, Note_on_c, 1, 62, 120
3, 619008, Note_on_c, 1, 59, 120
3, 619008, Note_on_c, 1, 54, 120
3, 619580, Note_off_c, 1, 62, 100
3, 619580, Note_off_c, 1, 59, 100
3, 619580, Note_off_c, 1, 54, 100
3, 619584, Note_on_c, 1, 62, 120
3, 619584, Note_on_c, 1, 59, 120
3, 619584, Note_on_c, 1, 54, 120
3, 619772, Note_off_c, 1, 62, 100
3, 619772, Note_off_c, 1, 59, 100
3, 619772, Note_off_c, 1, 54, 100
3, 619776, Note_on_c, 1, 62, 120
3, 619776, Note_on_c, 1, 59, 120
3, 619776, Note_on_c, 1, 54, 120
3, 620156, Note_off_c, 1, 62, 100
3, 620156, Note_off_c, 1, 59, 100
3, 620156, Note_off_c, 1, 54, 100
3, 620160, Note_on_c, 1, 62, 120
3, 620160, Note_on_c, 1, 59, 120
3, 620160, Note_on_c, 1, 54, 120
3, 620348, Note_off_c, 1, 62, 100
3, 620348, Note_off_c, 1, 59, 100
3, 620348, Note_off_c, 1, 54, 100
3, 620352, Note_on_c, 1, 62, 120
3, 620352, Note_on_c, 1, 59, 120
3, 620352, Note_on_c, 1, 54, 120
3, 620540, Note_off_c, 1, 62, 100
3, 620540, Note_off_c, 1, 59, 100
3, 620540, Note_off_c, 1, 54, 100
3, 620544, Note_on_c, 1, 62, 120
3, 620544, Note_on_c, 1, 59, 120
3, 620544, Note_on_c, 1, 54, 120
3, 620924, Note_off_c, 1, 62, 100
3, 620924, Note_off_c, 1, 59, 100
3, 620924, Note_off_c, 1, 54, 100
3, 620928, Note_on_c, 1, 59, 120
3, 620928, Note_on_c, 1, 54, 120
3, 620928, Note_on_c, 1, 50, 120
3, 622844, Note_off_c, 1, 50, 100
3, 622844, Note_off_c, 1, 54, 100
3, 622844, Note_off_c, 1, 59, 100
3, 623224, Control_c, 1, 64, 0
3, 623424, Note_on_c, 1, 47, 80
3, 623612, Note_off_c, 1, 47, 100
3, 623616, Note_on_c, 1, 62, 80
3, 624188, Note_off_c, 1, 62, 100
3, 624192, Note_on_c, 1, 47, 80
3, 624380, Note_off_c, 1, 47, 100
3, 624384, Note_on_c, 1, 62, 80
3, 624956, Note_off_c, 1, 62, 100
3, 624960, Note_on_c, 1, 47, 80
3, 625148, Note_off_c, 1, 47, 100
3, 625152, Note_on_c, 1, 62, 80
3, 625724, Note_off_c, 1, 62, 100
3, 625728, Note_on_c, 1, 43, 80
3, 625916, Note_off_c, 1, 43, 100
3, 625920, Note_on_c, 1, 59, 80
3, 626492, Note_off_c, 1, 59, 100
3, 626496, Note_on_c, 1, 43, 80
3, 626684, Note_off_c, 1, 43, 100
3, 626688, Note_on_c, 1, 59, 80
3, 627260, Note_off_c, 1, 59, 100
3, 627264, Note_on_c, 1, 43, 80
3, 627452, Note_off_c, 1, 43, 100
3, 627456, Note_on_c, 1, 59, 80
3, 628028, Note_off_c, 1, 59, 100
3, 628032, Note_on_c, 1, 43, 80
3, 628220, Note_off_c, 1, 43, 100
3, 628224, Note_on_c, 1, 59, 80
3, 628796, Note_off_c, 1, 59, 100
3, 628800, Note_on_c, 1, 36, 82
3, 628988, Note_off_c, 1, 36, 100
3, 628992, Note_on_c, 1, 51, 83
3, 629564, Note_off_c, 1, 51, 100
3, 629568, Note_on_c, 1, 36, 86
3, 629756, Note_off_c, 1, 36, 100
3, 629760, Key_signature, -2, "major"
3, 629760, Note_on_c, 1, 51, 86
3, 630332, Note_off_c, 1, 51, 100
3, 630336, Note_on_c, 1, 36, 89
3, 630524, Note_off_c, 1, 36, 100
3, 630528, Note_on_c, 1, 51, 90
3, 631100, Note_off_c, 1, 51, 100
3, 631104, Note_on_c, 1, 36, 92
3, 631292, Note_off_c, 1, 36, 100
3, 631296, Note_on_c, 1, 51, 93
3, 631868, Note_off_c, 1, 51, 100
3, 631872, Note_on_c, 1, 29, 96
3, 632060, Note_off_c, 1, 29, 100
3, 632064, Note_on_c, 1, 45, 97
3, 632636, Note_off_c, 1, 45, 100
3, 632640, Note_on_c, 1, 29, 99
3, 632828, Note_off_c, 1, 29, 100
3, 632832, Note_on_c, 1, 45, 100
3, 633404, Note_off_c, 1, 45, 100
3, 633408, Note_on_c, 1, 41, 103
3, 633596, Note_off_c, 1, 41, 100
3, 633600, Note_on_c, 1, 36, 104
3, 634172, Note_off_c, 1, 36, 100
3, 634176, Note_on_c, 1, 41, 106
3, 634364, Note_off_c, 1, 41, 100
3, 634368, Note_on_c, 1, 33, 107
3, 634940, Note_off_c, 1, 33, 100
3, 634944, Note_on_c, 1, 41, 110
3, 635132, Note_off_c, 1, 41, 100
3, 635136, Note_on_c, 1, 30, 110
3, 635708, Note_off_c, 1, 30, 100
3, 635712, Note_on_c, 1, 41, 110
3, 635900, Note_off_c, 1, 41, 100
3, 635904, Note_on_c, 1, 41, 110
3, 635904, Note_on_c, 1, 29, 110
3, 636284, Note_off_c, 1, 41, 100
3, 636284, Note_off_c, 1, 29, 100
3, 636288, Note_on_c, 1, 78, 80
3, 636476, Note_off_c, 1, 78, 100
3, 636480, Note_on_c, 1, 77, 80
3, 636668, Note_off_c, 1, 77, 100
3, 636672, Note_on_c, 1, 78, 80
3, 637052, Note_off_c, 1, 78, 100
3, 637056, Note_on_c, 1, 77, 80
3, 637244, Note_off_c, 1, 77, 100
3, 637248, Note_on_c, 1, 76, 80
3, 637436, Note_off_c, 1, 76, 100
3, 637440, Note_on_c, 1, 77, 80
3, 637820, Note_off_c, 1, 77, 100
3, 637824, Note_on_c, 1, 66, 80
3, 638012, Note_off_c, 1, 66, 100
3, 638016, Note_on_c, 1, 65, 80
3, 638204, Note_off_c, 1, 65, 100
3, 638208, Note_on_c, 1, 66, 80
3, 638588, Note_off_c, 1, 66, 100
3, 638592, Note_on_c, 1, 65, 80
3, 638780, Note_off_c, 1, 65, 100
3, 638784, Note_on_c, 1, 64, 80
3, 638972, Note_off_c, 1, 64, 100
3, 638976, Note_on_c, 1, 63, 80
3, 638976, Note_on_c, 1, 60, 80
3, 638976, Note_on_c, 1, 57, 80
3, 638976, Note_on_c, 1, 53, 80
3, 639356, Note_off_c, 1, 63, 100
3, 639356, Note_off_c, 1, 60, 100
3, 639356, Note_off_c, 1, 57, 100
3, 639356, Note_off_c, 1, 53, 100
3, 639552, Note_on_c, 1, 53, 80
3, 639740, Note_off_c, 1, 53, 100
3, 639744, Note_on_c, 1, 57, 80
3, 640124, Note_off_c, 1, 57, 100
3, 640320, Note_on_c, 1, 60, 80
3, 640508, Note_off_c, 1, 60, 100
3, 640512, Note_on_c, 1, 65, 80
3, 640892, Note_off_c, 1, 65, 100
3, 641088, Note_on_c, 1, 69, 80
3, 641276, Note_off_c, 1, 69, 100
3, 641280, Note_on_c, 1, 72, 80
3, 641660, Note_off_c, 1, 72, 100
3, 641664, Note_on_c, 1, 75, 80
3, 641852, Note_off_c, 1, 75, 100
3, 641856, Note_on_c, 1, 72, 80
3, 642044, Note_off_c, 1, 72, 100
3, 642048, Note_on_c, 1, 67, 80
3, 642236, Note_off_c, 1, 67, 100
3, 642240, Note_on_c, 1, 69, 80
3, 642428, Note_off_c, 1, 69, 100
3, 642432, Note_on_c, 1, 70, 80
3, 642620, Note_off_c, 1, 70, 100
3, 642624, Note_on_c, 1, 67, 80
3, 642812, Note_off_c, 1, 67, 100
3, 642816, Note_on_c, 1, 63, 80
3, 643004, Note_off_c, 1, 63, 100
3, 643008, Note_on_c, 1, 65, 80
3, 643196, Note_off_c, 1, 65, 100
3, 643200, Note_on_c, 1, 67, 80
3, 643388, Note_off_c, 1, 67, 100
3, 643392, Note_on_c, 1, 63, 80
3, 643580, Note_off_c, 1, 63, 100
3, 643584, Note_on_c, 1, 60, 80
3, 643772, Note_off_c, 1, 60, 100
3, 643776, Note_on_c, 1, 62, 80
3, 643964, Note_off_c, 1, 62, 100
3, 643968, Note_on_c, 1, 63, 80
3, 644156, Note_off_c, 1, 63, 100
3, 644160, Note_on_c, 1, 60, 80
3, 644348, Note_off_c, 1, 60, 100
3, 644352, Note_on_c, 1, 57, 80
3, 644540, Note_off_c, 1, 57, 100
3, 644544, Note_on_c, 1, 58, 80
3, 644732, Note_off_c, 1, 58, 100
3, 644736, Note_on_c, 1, 60, 80
3, 644924, Note_off_c, 1, 60, 100
3, 644928, Note_on_c, 1, 57, 80
3, 645116, Note_off_c, 1, 57, 100
3, 645120, Note_on_c, 1, 62, 80
3, 645120, Note_on_c, 1, 58, 80
3, 645120, Note_on_c, 1, 53, 80
3, 645500, Note_off_c, 1, 62, 100
3, 645500, Note_off_c, 1, 58, 100
3, 645500, Note_off_c, 1, 53, 100
3, 645696, Note_on_c, 1, 53, 80
3, 645884, Note_off_c, 1, 53, 100
3, 645888, Note_on_c, 1, 58, 80
3, 646268, Note_off_c, 1, 58, 100
3, 646464, Note_on_c, 1, 62, 80
3, 646652, Note_off_c, 1, 62, 100
3, 646656, Note_on_c, 1, 65, 80
3, 647036, Note_off_c, 1, 65, 100
3, 647232, Note_on_c, 1, 70, 80
3, 647420, Note_off_c, 1, 70, 100
3, 647424, Note_on_c, 1, 74, 80
3, 647804, Note_off_c, 1, 74, 100
3, 647808, Note_on_c, 1, 62, 80
3, 647996, Note_off_c, 1, 62, 100
3, 648000, Note_on_c, 1, 58, 80
3, 648188, Note_off_c, 1, 58, 100
3, 648192, Note_on_c, 1, 70, 80
3, 648380, Note_off_c, 1, 70, 100
3, 648384, Note_on_c, 1, 72, 80
3, 648572, Note_off_c, 1, 72, 100
3, 648576, Note_on_c, 1, 74, 80
3, 648764, Note_off_c, 1, 74, 100
3, 648768, Note_on_c, 1, 70, 80
3, 648956, Note_off_c, 1, 70, 100
3, 648960, Note_on_c, 1, 62, 80
3, 649148, Note_off_c, 1, 62, 100
3, 649152, Note_on_c, 1, 63, 80
3, 649340, Note_off_c, 1, 63, 100
3, 649344, Note_on_c, 1, 65, 80
3, 649532, Note_off_c, 1, 65, 100
3, 649536, Note_on_c, 1, 62, 80
3, 649724, Note_off_c, 1, 62, 100
3, 649728, Note_on_c, 1, 58, 80
3, 649916, Note_off_c, 1, 58, 100
3, 649920, Note_on_c, 1, 60, 80
3, 650108, Note_off_c, 1, 60, 100
3, 650112, Note_on_c, 1, 62, 80
3, 650300, Note_off_c, 1, 62, 100
3, 650304, Note_on_c, 1, 58, 80
3, 650492, Note_off_c, 1, 58, 100
3, 650496, Note_on_c, 1, 74, 80
3, 650684, Note_off_c, 1, 74, 100
3, 650688, Note_on_c, 1, 75, 80
3, 650876, Note_off_c, 1, 75, 100
3, 650880, Note_on_c, 1, 77, 80
3, 651068, Note_off_c, 1, 77, 100
3, 651072, Note_on_c, 1, 74, 80
3, 651260, Note_off_c, 1, 74, 100
3, 651264, Note_on_c, 1, 75, 80
3, 651452, Note_off_c, 1, 75, 100
3, 651456, Note_on_c, 1, 77, 80
3, 651644, Note_off_c, 1, 77, 100
3, 651648, Note_on_c, 1, 75, 80
3, 651836, Note_off_c, 1, 75, 100
3, 651840, Note_on_c, 1, 74, 80
3, 652028, Note_off_c, 1, 74, 100
3, 652032, Note_on_c, 1, 75, 80
3, 652220, Note_off_c, 1, 75, 100
3, 652224, Note_on_c, 1, 77, 80
3, 652412, Note_off_c, 1, 77, 100
3, 652416, Note_on_c, 1, 79, 80
3, 652604, Note_off_c, 1, 79, 100
3, 652608, Note_on_c, 1, 75, 80
3, 652796, Note_off_c, 1, 75, 100
3, 652800, Note_on_c, 1, 72, 80
3, 652988, Note_off_c, 1, 72, 100
3, 652992, Note_on_c, 1, 74, 80
3, 653180, Note_off_c, 1, 74, 100
3, 653184, Note_on_c, 1, 75, 80
3, 653372, Note_off_c, 1, 75, 100
3, 653376, Note_on_c, 1, 72, 80
3, 653564, Note_off_c, 1, 72, 100
3, 653568, Note_on_c, 1, 69, 80
3, 653756, Note_off_c, 1, 69, 100
3, 653760, Note_on_c, 1, 70, 80
3, 653948, Note_off_c, 1, 70, 100
3, 653952, Note_on_c, 1, 72, 80
3, 654140, Note_off_c, 1, 72, 100
3, 654144, Note_on_c, 1, 69, 80
3, 654332, Note_off_c, 1, 69, 100
3, 654336, Note_on_c, 1, 63, 80
3, 654524, Note_off_c, 1, 63, 100
3, 654528, Note_on_c, 1, 65, 80
3, 654716, Note_off_c, 1, 65, 100
3, 654720, Note_on_c, 1, 66, 80
3, 654908, Note_off_c, 1, 66, 100
3, 654912, Note_on_c, 1, 63, 80
3, 655100, Note_off_c, 1, 63, 100
3, 655104, Note_on_c, 1, 60, 80
3, 655292, Note_off_c, 1, 60, 100
3, 655296, Note_on_c, 1, 62, 80
3, 655484, Note_off_c, 1, 62, 100
3, 655488, Note_on_c, 1, 63, 80
3, 655676, Note_off_c, 1, 63, 100
3, 655680, Note_on_c, 1, 60, 80
3, 655868, Note_off_c, 1, 60, 100
3, 655872, Note_on_c, 1, 57, 80
3, 656060, Note_off_c, 1, 57, 100
3, 656064, Note_on_c, 1, 58, 80
3, 656252, Note_off_c, 1, 58, 100
3, 656256, Note_on_c, 1, 60, 80
3, 656444, Note_off_c, 1, 60, 100
3, 656448, Note_on_c, 1, 57, 80
3, 656636, Note_off_c, 1, 57, 100
3, 656640, Note_on_c, 1, 72, 80
3, 656828, Note_off_c, 1, 72, 100
3, 656832, Note_on_c, 1, 74, 80
3, 657020, Note_off_c, 1, 74, 100
3, 657024, Note_on_c, 1, 75, 80
3, 657212, Note_off_c, 1, 75, 100
3, 657216, Note_on_c, 1, 72, 80
3, 657404, Note_off_c, 1, 72, 100
3, 657408, Note_on_c, 1, 74, 80
3, 657596, Note_off_c, 1, 74, 100
3, 657600, Note_on_c, 1, 75, 80
3, 657788, Note_off_c, 1, 75, 100
3, 657792, Note_on_c, 1, 74, 80
3, 657980, Note_off_c, 1, 74, 100
3, 657984, Note_on_c, 1, 72, 80
3, 658172, Note_off_c, 1, 72, 100
3, 658176, Note_on_c, 1, 74, 80
3, 658364, Note_off_c, 1, 74, 100
3, 658368, Note_on_c, 1, 75, 80
3, 658556, Note_off_c, 1, 75, 100
3, 658560, Note_on_c, 1, 77, 80
3, 658748, Note_off_c, 1, 77, 100
3, 658752, Note_on_c, 1, 74, 80
3, 658940, Note_off_c, 1, 74, 100
3, 658944, Note_on_c, 1, 70, 80
3, 659132, Note_off_c, 1, 70, 100
3, 659136, Note_on_c, 1, 72, 80
3, 659324, Note_off_c, 1, 72, 100
3, 659328, Note_on_c, 1, 74, 80
3, 659516, Note_off_c, 1, 74, 100
3, 659520, Note_on_c, 1, 70, 80
3, 659708, Note_off_c, 1, 70, 100
3, 659712, Note_on_c, 1, 65, 80
3, 659900, Note_off_c, 1, 65, 100
3, 659904, Note_on_c, 1, 69, 80
3, 660092, Note_off_c, 1, 69, 100
3, 660096, Note_on_c, 1, 70, 80
3, 660284, Note_off_c, 1, 70, 100
3, 660288, Note_on_c, 1, 65, 80
3, 660476, Note_off_c, 1, 65, 100
3, 660480, Note_on_c, 1, 62, 80
3, 660668, Note_off_c, 1, 62, 100
3, 660672, Note_on_c, 1, 63, 80
3, 660860, Note_off_c, 1, 63, 100
3, 660864, Note_on_c, 1, 65, 80
3, 661052, Note_off_c, 1, 65, 100
3, 661056, Note_on_c, 1, 62, 80
3, 661244, Note_off_c, 1, 62, 100
3, 661248, Note_on_c, 1, 58, 80
3, 661436, Note_off_c, 1, 58, 100
3, 661440, Note_on_c, 1, 60, 80
3, 661628, Note_off_c, 1, 60, 100
3, 661632, Note_on_c, 1, 62, 80
3, 661820, Note_off_c, 1, 62, 100
3, 661824, Note_on_c, 1, 58, 80
3, 662012, Note_off_c, 1, 58, 100
3, 662016, Note_on_c, 1, 53, 80
3, 662204, Note_off_c, 1, 53, 100
3, 662208, Note_on_c, 1, 57, 80
3, 662396, Note_off_c, 1, 57, 100
3, 662400, Note_on_c, 1, 58, 80
3, 662588, Note_off_c, 1, 58, 100
3, 662592, Note_on_c, 1, 53, 80
3, 662780, Note_off_c, 1, 53, 100
3, 662784, Note_on_c, 1, 51, 80
3, 662972, Note_off_c, 1, 51, 100
3, 662976, Note_on_c, 1, 58, 80
3, 663164, Note_off_c, 1, 58, 100
3, 663168, Note_on_c, 1, 53, 80
3, 663356, Note_off_c, 1, 53, 100
3, 663360, Note_on_c, 1, 51, 80
3, 663548, Note_off_c, 1, 51, 100
3, 663552, Note_on_c, 1, 50, 80
3, 663932, Note_off_c, 1, 50, 100
3, 663936, Note_on_c, 1, 58, 80
3, 663936, Note_on_c, 1, 46, 80
3, 664316, Note_off_c, 1, 58, 100
3, 664316, Note_off_c, 1, 46, 100
3, 664320, Note_on_c, 1, 55, 80
3, 664320, Note_on_c, 1, 51, 80
3, 664508, Note_off_c, 1, 55, 100
3, 664508, Note_off_c, 1, 51, 100
3, 664704, Note_on_c, 1, 63, 80
3, 664892, Note_off_c, 1, 63, 100
3, 664896, Note_on_c, 1, 60, 80
3, 665084, Note_off_c, 1, 60, 100
3, 665088, Note_on_c, 1, 57, 80
3, 665468, Note_off_c, 1, 57, 100
3, 665472, Note_on_c, 1, 65, 80
3, 665472, Note_on_c, 1, 53, 80
3, 665852, Note_off_c, 1, 65, 100
3, 665852, Note_off_c, 1, 53, 100
3, 665856, Note_on_c, 1, 62, 80
3, 665856, Note_on_c, 1, 58, 80
3, 666236, Note_off_c, 1, 62, 100
3, 666236, Note_off_c, 1, 58, 100
3, 667008, Note_on_c, 1, 67, 80
3, 667008, Note_on_c, 1, 64, 80
3, 667008, Note_on_c, 1, 61, 80
3, 667008, Note_on_c, 1, 58, 80
3, 667388, Note_off_c, 1, 67, 100
3, 667388, Note_off_c, 1, 64, 100
3, 667388, Note_off_c, 1, 61, 100
3, 667388, Note_off_c, 1, 58, 100
3, 667392, Note_on_c, 1, 69, 80
3, 667392, Note_on_c, 1, 65, 80
3, 667392, Note_on_c, 1, 60, 80
3, 667772, Note_off_c, 1, 69, 100
3, 667772, Note_off_c, 1, 65, 100
3, 667772, Note_off_c, 1, 60, 100
3, 667776, Note_on_c, 1, 67, 80
3, 667776, Note_on_c, 1, 60, 80
3, 667776, Note_on_c, 1, 70, 80
3, 667964, Note_off_c, 1, 70, 100
3, 667968, Note_on_c, 1, 72, 80
3, 668156, Note_off_c, 1, 67, 100
3, 668156, Note_off_c, 1, 60, 100
3, 668156, Note_off_c, 1, 72, 100
3, 668160, Note_on_c, 1, 72, 80
3, 668160, Note_on_c, 1, 65, 80
3, 668540, Note_off_c, 1, 72, 100
3, 668540, Note_off_c, 1, 65, 100
3, 668544, Note_on_c, 1, 65, 80
3, 668544, Note_on_c, 1, 74, 80
3, 668828, Note_off_c, 1, 74, 100
3, 668832, Note_on_c, 1, 76, 80
3, 668924, Note_off_c, 1, 65, 100
3, 668924, Note_off_c, 1, 76, 100
3, 668928, Note_on_c, 1, 65, 80
3, 668928, Note_on_c, 1, 77, 80
3, 669308, Note_off_c, 1, 65, 100
3, 669308, Note_off_c, 1, 77, 100
3, 669312, Note_on_c, 1, 67, 80
3, 669500, Note_off_c, 1, 67, 100
3, 669504, Note_on_c, 1, 69, 80
3, 669692, Note_off_c, 1, 69, 100
3, 669696, Note_on_c, 1, 70, 80
3, 670076, Note_off_c, 1, 70, 100
3, 670080, Note_on_c, 1, 65, 80
3, 670080, Note_on_c, 1, 62, 80
3, 670460, Note_off_c, 1, 65, 100
3, 670460, Note_off_c, 1, 62, 100
3, 670464, Note_on_c, 1, 67, 80
3, 670464, Note_on_c, 1, 63, 80
3, 670652, Note_off_c, 1, 67, 100
3, 670652, Note_off_c, 1, 63, 100
3, 670848, Note_on_c, 1, 72, 80
3, 671036, Note_off_c, 1, 72, 100
3, 671040, Note_on_c, 1, 75, 80
3, 671228, Note_off_c, 1, 75, 100
3, 671232, Note_on_c, 1, 77, 80
3, 671612, Note_off_c, 1, 77, 100
3, 671616, Note_on_c, 1, 72, 80
3, 671616, Note_on_c, 1, 69, 80
3, 671996, Note_off_c, 1, 72, 100
3, 671996, Note_off_c, 1, 69, 100
3, 672000, Note_on_c, 1, 74, 80
3, 672000, Note_on_c, 1, 70, 80
3, 672188, Note_off_c, 1, 74, 100
3, 672188, Note_off_c, 1, 70, 100
3, 672384, Note_on_c, 1, 67, 80
3, 672572, Note_off_c, 1, 67, 100
3, 672576, Note_on_c, 1, 66, 80
3, 672764, Note_off_c, 1, 66, 100
3, 672768, Note_on_c, 1, 67, 80
3, 673148, Note_off_c, 1, 67, 100
3, 673152, Note_on_c, 1, 75, 80
3, 673152, Note_on_c, 1, 70, 80
3, 673152, Note_on_c, 1, 67, 80
3, 673532, Note_off_c, 1, 75, 100
3, 673532, Note_off_c, 1, 70, 100
3, 673532, Note_off_c, 1, 67, 100
3, 673536, Note_on_c, 1, 72, 80
3, 673536, Note_on_c, 1, 67, 80
3, 673916, Note_off_c, 1, 72, 100
3, 673916, Note_off_c, 1, 67, 100
3, 673920, Note_on_c, 1, 69, 80
3, 673920, Note_on_c, 1, 66, 80
3, 674300, Note_off_c, 1, 69, 100
3, 674300, Note_off_c, 1, 66, 100
3, 674304, Note_on_c, 1, 69, 80
3, 674304, Note_on_c, 1, 66, 80
3, 674684, Note_off_c, 1, 69, 100
3, 674684, Note_off_c, 1, 66, 100
3, 674688, Note_on_c, 1, 66, 80
3, 674688, Note_on_c, 1, 62, 80
3, 675068, Note_off_c, 1, 66, 100
3, 675068, Note_off_c, 1, 62, 100
3, 675072, Note_on_c, 1, 70, 80
3, 675072, Note_on_c, 1, 67, 80
3, 675452, Note_off_c, 1, 70, 100
3, 675452, Note_off_c, 1, 67, 100
3, 675456, Note_on_c, 1, 68, 80
3, 675456, Note_on_c, 1, 65, 80
3, 675644, Note_off_c, 1, 68, 100
3, 675644, Note_off_c, 1, 65, 100
3, 675648, Note_on_c, 1, 67, 80
3, 675648, Note_on_c, 1, 64, 80
3, 675836, Note_off_c, 1, 67, 100
3, 675836, Note_off_c, 1, 64, 100
3, 675840, Note_on_c, 1, 67, 80
3, 675840, Note_on_c, 1, 64, 80
3, 676220, Note_off_c, 1, 67, 100
3, 676220, Note_off_c, 1, 64, 100
3, 676224, Note_on_c, 1, 64, 80
3, 676224, Note_on_c, 1, 60, 80
3, 676604, Note_off_c, 1, 64, 100
3, 676604, Note_off_c, 1, 60, 100
3, 676608, Note_on_c, 1, 68, 80
3, 676608, Note_on_c, 1, 65, 80
3, 676988, Note_off_c, 1, 68, 100
3, 676988, Note_off_c, 1, 65, 100
3, 676992, Note_on_c, 1, 66, 80
3, 676992, Note_on_c, 1, 63, 80
3, 677180, Note_off_c, 1, 66, 100
3, 677180, Note_off_c, 1, 63, 100
3, 677184, Note_on_c, 1, 65, 80
3, 677184, Note_on_c, 1, 62, 80
3, 677372, Note_off_c, 1, 65, 100
3, 677372, Note_off_c, 1, 62, 100
3, 677376, Note_on_c, 1, 65, 80
3, 677376, Note_on_c, 1, 62, 80
3, 677756, Note_off_c, 1, 65, 100
3, 677756, Note_off_c, 1, 62, 100
3, 677760, Note_on_c, 1, 62, 80
3, 677760, Note_on_c, 1, 58, 80
3, 678140, Note_off_c, 1, 62, 100
3, 678140, Note_off_c, 1, 58, 100
3, 678144, Note_on_c, 1, 67, 80
3, 678144, Note_on_c, 1, 63, 80
3, 678524, Note_off_c, 1, 67, 100
3, 678524, Note_off_c, 1, 63, 100
3, 678528, Note_on_c, 1, 65, 80
3, 678528, Note_on_c, 1, 62, 80
3, 678716, Note_off_c, 1, 65, 100
3, 678716, Note_off_c, 1, 62, 100
3, 678720, Note_on_c, 1, 64, 80
3, 678720, Note_on_c, 1, 61, 80
3, 678908, Note_off_c, 1, 64, 100
3, 678908, Note_off_c, 1, 61, 100
3, 678912, Note_on_c, 1, 64, 80
3, 678912, Note_on_c, 1, 61, 80
3, 679292, Note_off_c, 1, 64, 100
3, 679292, Note_off_c, 1, 61, 100
3, 679296, Note_on_c, 1, 61, 80
3, 679296, Note_on_c, 1, 57, 80
3, 679676, Note_off_c, 1, 61, 100
3, 679676, Note_off_c, 1, 57, 100
3, 679680, Note_on_c, 1, 65, 80
3, 679680, Note_on_c, 1, 62, 80
3, 680060, Note_off_c, 1, 65, 100
3, 680060, Note_off_c, 1, 62, 100
3, 680064, Note_on_c, 1, 63, 80
3, 680064, Note_on_c, 1, 60, 80
3, 680252, Note_off_c, 1, 63, 100
3, 680252, Note_off_c, 1, 60, 100
3, 680256, Note_on_c, 1, 62, 80
3, 680256, Note_on_c, 1, 59, 80
3, 680444, Note_off_c, 1, 62, 100
3, 680444, Note_off_c, 1, 59, 100
3, 680448, Note_on_c, 1, 62, 80
3, 680448, Note_on_c, 1, 59, 80
3, 680828, Note_off_c, 1, 62, 100
3, 680828, Note_off_c, 1, 59, 100
3, 680832, Note_on_c, 1, 63, 80
3, 680832, Note_on_c, 1, 60, 80
3, 681020, Note_off_c, 1, 60, 100
3, 681024, Note_on_c, 1, 58, 80
3, 681212, Note_off_c, 1, 63, 100
3, 681212, Note_off_c, 1, 58, 100
3, 681216, Note_on_c, 1, 60, 80
3, 681216, Note_on_c, 1, 57, 80
3, 681596, Note_off_c, 1, 60, 100
3, 681596, Note_off_c, 1, 57, 100
3, 681600, Note_on_c, 1, 62, 80
3, 681600, Note_on_c, 1, 58, 80
3, 681788, Note_off_c, 1, 58, 100
3, 681792, Note_on_c, 1, 50, 80
3, 681980, Note_off_c, 1, 62, 100
3, 681980, Note_off_c, 1, 50, 100
3, 681984, Note_on_c, 1, 63, 80
3, 681984, Note_on_c, 1, 53, 80
3, 681984, Note_on_c, 1, 48, 80
3, 684284, Note_off_c, 1, 48, 100
3, 684284, Note_off_c, 1, 53, 100
3, 684284, Note_off_c, 1, 63, 100
3, 684288, Note_on_c, 1, 62, 80
3, 684288, Note_on_c, 1, 53, 80
3, 684288, Note_on_c, 1, 50, 80
3, 685052, Note_off_c, 1, 62, 100
3, 685052, Note_off_c, 1, 53, 100
3, 685052, Note_off_c, 1, 50, 100
3, 685056, Note_on_c, 1, 51, 80
3, 685056, Note_on_c, 1, 41, 80
3, 685056, Note_on_c, 1, 36, 80
3, 687356, Note_off_c, 1, 36, 100
3, 687356, Note_off_c, 1, 41, 100
3, 687356, Note_off_c, 1, 51, 100
3, 687360, Note_on_c, 1, 50, 80
3, 687360, Note_on_c, 1, 41, 80
3, 687360, Note_on_c, 1, 38, 80
3, 688124, Note_off_c, 1, 50, 100
3, 688124, Note_off_c, 1, 41, 100
3, 688124, Note_off_c, 1, 38, 100
3, 688128, Note_on_c, 1, 50, 80
3, 688128, Note_on_c, 1, 38, 80
3, 688892, Note_off_c, 1, 50, 100
3, 688892, Note_off_c, 1, 38, 100
3, 688896, Note_on_c, 1, 55, 80
3, 688896, Note_on_c, 1, 43, 80
3, 689660, Note_off_c, 1, 55, 100
3, 689660, Note_off_c, 1, 43, 100
3, 689664, Note_on_c, 1, 52, 80
3, 689664, Note_on_c, 1, 40, 80
3, 690428, Note_off_c, 1, 52, 100
3, 690428, Note_off_c, 1, 40, 100
3, 690432, Note_on_c, 1, 53, 80
3, 690432, Note_on_c, 1, 41, 80
3, 690812, Note_off_c, 1, 53, 100
3, 690812, Note_off_c, 1, 41, 100
3, 691200, Note_on_c, 1, 75, 80
3, 691200, Note_on_c, 1, 65, 80
3, 691200, Note_on_c, 1, 60, 80
3, 693500, Note_off_c, 1, 60, 100
3, 693500, Note_off_c, 1, 65, 100
3, 693500, Note_off_c, 1, 75, 100
3, 693504, Note_on_c, 1, 74, 80
3, 693504, Note_on_c, 1, 65, 80
3, 693504, Note_on_c, 1, 62, 80
3, 694268, Note_off_c, 1, 74, 100
3, 694268, Note_off_c, 1, 65, 100
3, 694268, Note_off_c, 1, 62, 100
3, 694272, Note_on_c, 1, 63, 80
3, 694272, Note_on_c, 1, 53, 80
3, 694272, Note_on_c, 1, 48, 80
3, 696572, Note_off_c, 1, 48, 100
3, 696572, Note_off_c, 1, 53, 100
3, 696572, Note_off_c, 1, 63, 100
3, 696576, Note_on_c, 1, 62, 80
3, 696576, Note_on_c, 1, 53, 80
3, 696576, Note_on_c, 1, 50, 80
3, 697340, Note_off_c, 1, 62, 100
3, 697340, Note_off_c, 1, 53, 100
3, 697340, Note_off_c, 1, 50, 100
3, 697344, Note_on_c, 1, 62, 80
3, 697344, Note_on_c, 1, 50, 80
3, 698108, Note_off_c, 1, 62, 100
3, 698108, Note_off_c, 1, 50, 100
3, 698112, Note_on_c, 1, 67, 80
3, 698112, Note_on_c, 1, 55, 80
3, 698876, Note_off_c, 1, 67, 100
3, 698876, Note_off_c, 1, 55, 100
3, 698880, Note_on_c, 1, 52, 80
3, 698880, Note_on_c, 1, 64, 80
3, 699644, Note_off_c, 1, 52, 100
3, 699644, Note_off_c, 1, 64, 100
3, 699648, Note_on_c, 1, 65, 80
3, 699648, Note_on_c, 1, 53, 80
3, 700028, Note_off_c, 1, 65, 100
3, 700028, Note_off_c, 1, 53, 100
3, 700032, Note_on_c, 1, 66, 80
3, 700032, Note_on_c, 1, 54, 80
3, 700412, Note_off_c, 1, 66, 100
3, 700412, Note_off_c, 1, 54, 100
3, 700416, Note_on_c, 1, 67, 80
3, 700416, Note_on_c, 1, 55, 80
3, 701180, Note_off_c, 1, 67, 100
3, 701180, Note_off_c, 1, 55, 100
3, 701184, Note_on_c, 1, 72, 83
3, 701184, Note_on_c, 1, 60, 83
3, 701948, Note_off_c, 1, 72, 100
3, 701948, Note_off_c, 1, 60, 100
3, 701952, Note_on_c, 1, 69, 87
3, 701952, Note_on_c, 1, 57, 87
3, 702716, Note_off_c, 1, 69, 100
3, 702716, Note_off_c, 1, 57, 100
3, 702720, Note_on_c, 1, 70, 91
3, 702720, Note_on_c, 1, 58, 91
3, 703100, Note_off_c, 1, 70, 100
3, 703100, Note_off_c, 1, 58, 100
3, 703104, Note_on_c, 1, 71, 93
3, 703104, Note_on_c, 1, 59, 93
3, 703484, Note_off_c, 1, 71, 100
3, 703484, Note_off_c, 1, 59, 100
3, 703488, Note_on_c, 1, 72, 95
3, 703488, Note_on_c, 1, 60, 95
3, 704252, Note_off_c, 1, 72, 100
3, 704252, Note_off_c, 1, 60, 100
3, 704256, Note_on_c, 1, 76, 99
3, 704256, Note_on_c, 1, 64, 99
3, 705020, Note_off_c, 1, 76, 100
3, 705020, Note_off_c, 1, 64, 100
3, 705024, Note_on_c, 1, 74, 103
3, 705024, Note_on_c, 1, 62, 103
3, 705788, Note_off_c, 1, 74, 100
3, 705788, Note_off_c, 1, 62, 100
3, 705792, Note_on_c, 1, 75, 107
3, 705792, Note_on_c, 1, 63, 107
3, 706940, Note_off_c, 1, 63, 100
3, 706940, Note_off_c, 1, 75, 100
3, 706944, Note_on_c, 1, 51, 120
3, 706944, Note_on_c, 1, 39, 120
3, 707324, Note_off_c, 1, 51, 100
3, 707324, Note_off_c, 1, 39, 100
3, 708480, Note_on_c, 1, 67, 120
3, 708480, Note_on_c, 1, 63, 120
3, 708860, Note_off_c, 1, 67, 100
3, 708860, Note_off_c, 1, 63, 100
3, 708864, Note_on_c, 1, 65, 120
3, 708864, Note_on_c, 1, 62, 120
3, 709244, Note_off_c, 1, 65, 100
3, 709244, Note_off_c, 1, 62, 100
3, 709248, Note_on_c, 1, 67, 120
3, 709248, Note_on_c, 1, 63, 120
3, 709436, Note_off_c, 1, 67, 100
3, 709436, Note_off_c, 1, 63, 100
3, 709440, Note_on_c, 1, 68, 120
3, 709440, Note_on_c, 1, 65, 120
3, 709628, Note_off_c, 1, 68, 100
3, 709628, Note_off_c, 1, 65, 100
3, 709632, Note_on_c, 1, 70, 120
3, 709632, Note_on_c, 1, 67, 120
3, 710012, Note_off_c, 1, 70, 100
3, 710012, Note_off_c, 1, 67, 100
3, 710016, Note_on_c, 1, 51, 120
3, 710016, Note_on_c, 1, 39, 120
3, 710396, Note_off_c, 1, 51, 100
3, 710396, Note_off_c, 1, 39, 100
3, 711552, Note_on_c, 1, 52, 120
3, 711552, Note_on_c, 1, 40, 120
3, 711932, Note_off_c, 1, 52, 100
3, 711932, Note_off_c, 1, 40, 100
3, 712320, Note_on_c, 1, 48, 120
3, 712320, Note_on_c, 1, 36, 120
3, 712700, Note_off_c, 1, 48, 100
3, 712700, Note_off_c, 1, 36, 100
3, 713088, Note_on_c, 1, 53, 120
3, 713088, Note_on_c, 1, 41, 120
3, 713468, Note_off_c, 1, 53, 100
3, 713468, Note_off_c, 1, 41, 100
3, 713856, Note_on_c, 1, 55, 120
3, 713856, Note_on_c, 1, 43, 120
3, 714236, Note_off_c, 1, 55, 100
3, 714236, Note_off_c, 1, 43, 100
3, 714240, Note_on_c, 1, 41, 120
3, 714428, Note_off_c, 1, 41, 100
3, 714432, Note_on_c, 1, 45, 119
3, 714620, Note_off_c, 1, 45, 100
3, 714624, Note_on_c, 1, 46, 117
3, 714812, Note_off_c, 1, 46, 100
3, 714816, Note_on_c, 1, 50, 115
3, 715004, Note_off_c, 1, 50, 100
3, 715008, Note_on_c, 1, 53, 113
3, 715196, Note_off_c, 1, 53, 100
3, 715200, Note_on_c, 1, 57, 111
3, 715388, Note_off_c, 1, 57, 100
3, 715392, Note_on_c, 1, 58, 110
3, 715580, Note_off_c, 1, 58, 100
3, 715584, Note_on_c, 1, 62, 108
3, 715772, Note_off_c, 1, 62, 100
3, 715776, Note_on_c, 1, 65, 106
3, 715964, Note_off_c, 1, 65, 100
3, 715968, Note_on_c, 1, 69, 104
3, 716156, Note_off_c, 1, 69, 100
3, 716160, Note_on_c, 1, 70, 102
3, 716348, Note_off_c, 1, 70, 100
3, 716352, Note_on_c, 1, 74, 101
3, 716540, Note_off_c, 1, 74, 100
3, 716928, Note_on_c, 1, 70, 101
3, 717116, Note_off_c, 1, 70, 100
3, 717120, Note_on_c, 1, 74, 102
3, 717308, Note_off_c, 1, 74, 100
3, 717312, Note_on_c, 1, 76, 102
3, 717500, Note_off_c, 1, 76, 100
3, 717504, Note_on_c, 1, 77, 103
3, 717692, Note_off_c, 1, 77, 100
3, 717696, Note_on_c, 1, 79, 104
3, 717884, Note_off_c, 1, 79, 100
3, 717888, Note_on_c, 1, 77, 104
3, 718076, Note_off_c, 1, 77, 100
3, 718080, Note_on_c, 1, 81, 105
3, 718268, Note_off_c, 1, 81, 100
3, 718272, Note_on_c, 1, 82, 106
3, 718460, Note_off_c, 1, 82, 100
3, 718464, Note_on_c, 1, 84, 106
3, 718652, Note_off_c, 1, 84, 100
3, 718656, Note_on_c, 1, 82, 107
3, 718844, Note_off_c, 1, 82, 100
3, 718848, Note_on_c, 1, 85, 108
3, 719036, Note_off_c, 1, 85, 100
3, 719040, Note_on_c, 1, 86, 108
3, 719228, Note_off_c, 1, 86, 100
3, 719232, Note_on_c, 1, 87, 109
3, 719420, Note_off_c, 1, 87, 100
3, 719424, Note_on_c, 1, 86, 110
3, 719612, Note_off_c, 1, 86, 100
3, 719616, Note_on_c, 1, 89, 110
3, 719996, Note_off_c, 1, 89, 100
3, 720000, Note_on_c, 1, 65, 80
3, 720124, Note_off_c, 1, 65, 100
3, 720128, Note_on_c, 1, 67, 80
3, 720252, Note_off_c, 1, 67, 100
3, 720256, Note_on_c, 1, 69, 80
3, 720380, Note_off_c, 1, 69, 100
3, 720384, Note_on_c, 1, 58, 80
3, 720636, Note_off_c, 1, 58, 100
3, 720640, Note_on_c, 1, 70, 80
3, 720892, Note_off_c, 1, 70, 100
3, 720896, Note_on_c, 1, 69, 80
3, 721148, Note_off_c, 1, 69, 100
3, 721152, Note_on_c, 1, 70, 80
3, 721404, Note_off_c, 1, 70, 100
3, 721408, Note_on_c, 1, 69, 80
3, 721660, Note_off_c, 1, 69, 100
3, 721664, Note_on_c, 1, 70, 80
3, 721916, Note_off_c, 1, 70, 100
3, 721920, Note_on_c, 1, 66, 80
3, 722172, Note_off_c, 1, 66, 100
3, 722176, Note_on_c, 1, 70, 80
3, 722428, Note_off_c, 1, 70, 100
3, 722432, Note_on_c, 1, 66, 80
3, 722684, Note_off_c, 1, 66, 100
3, 722688, Note_on_c, 1, 70, 80
3, 722940, Note_off_c, 1, 70, 100
3, 722944, Note_on_c, 1, 63, 80
3, 723196, Note_off_c, 1, 63, 100
3, 723200, Note_on_c, 1, 70, 80
3, 723452, Note_off_c, 1, 70, 100
3, 723456, Note_on_c, 1, 62, 80
3, 723708, Note_off_c, 1, 62, 100
3, 723712, Note_on_c, 1, 70, 80
3, 723964, Note_off_c, 1, 70, 100
3, 723968, Note_on_c, 1, 65, 80
3, 724220, Note_off_c, 1, 65, 100
3, 724224, Note_on_c, 1, 58, 80
3, 724476, Note_off_c, 1, 58, 100
3, 724480, Note_on_c, 1, 70, 80
3, 724732, Note_off_c, 1, 70, 100
3, 724736, Note_on_c, 1, 65, 80
3, 724988, Note_off_c, 1, 65, 100
3, 724992, Note_on_c, 1, 63, 80
3, 725244, Note_off_c, 1, 63, 100
3, 725248, Note_on_c, 1, 70, 80
3, 725500, Note_off_c, 1, 70, 100
3, 725504, Note_on_c, 1, 63, 80
3, 725756, Note_off_c, 1, 63, 100
3, 725760, Note_on_c, 1, 66, 80
3, 726012, Note_off_c, 1, 66, 100
3, 726016, Note_on_c, 1, 70, 80
3, 726268, Note_off_c, 1, 70, 100
3, 726272, Note_on_c, 1, 66, 80
3, 726524, Note_off_c, 1, 66, 100
3, 726528, Note_on_c, 1, 65, 80
3, 726780, Note_off_c, 1, 65, 100
3, 726784, Note_on_c, 1, 70, 80
3, 727036, Note_off_c, 1, 70, 100
3, 727040, Note_on_c, 1, 65, 80
3, 727292, Note_off_c, 1, 65, 100
3, 727296, Note_on_c, 1, 71, 80
3, 727548, Note_off_c, 1, 71, 100
3, 727552, Note_on_c, 1, 65, 80
3, 727804, Note_off_c, 1, 65, 100
3, 727808, Note_on_c, 1, 71, 80
3, 728060, Note_off_c, 1, 71, 100
3, 728064, Note_on_c, 1, 65, 80
3, 728316, Note_off_c, 1, 65, 100
3, 728320, Note_on_c, 1, 72, 80
3, 728572, Note_off_c, 1, 72, 100
3, 728576, Note_on_c, 1, 69, 80
3, 728828, Note_off_c, 1, 69, 100
3, 728832, Note_on_c, 1, 53, 80
3, 729084, Note_off_c, 1, 53, 100
3, 729088, Note_on_c, 1, 60, 80
3, 729340, Note_off_c, 1, 60, 100
3, 729344, Note_on_c, 1, 57, 80
3, 729596, Note_off_c, 1, 57, 100
3, 729600, Note_on_c, 1, 46, 80
3, 729788, Note_off_c, 1, 46, 100
3, 729792, Note_on_c, 1, 58, 80
3, 729980, Note_off_c, 1, 58, 100
3, 729984, Note_on_c, 1, 62, 81
3, 730172, Note_off_c, 1, 62, 100
3, 730176, Note_on_c, 1, 58, 81
3, 730364, Note_off_c, 1, 58, 100
3, 730368, Note_on_c, 1, 53, 82
3, 730556, Note_off_c, 1, 53, 100
3, 730560, Note_on_c, 1, 58, 83
3, 730748, Note_off_c, 1, 58, 100
3, 730752, Note_on_c, 1, 68, 83
3, 730940, Note_off_c, 1, 68, 100
3, 730944, Note_on_c, 1, 58, 84
3, 731132, Note_off_c, 1, 58, 100
3, 731136, Note_on_c, 1, 55, 85
3, 731324, Note_off_c, 1, 55, 100
3, 731328, Note_on_c, 1, 58, 85
3, 731516, Note_off_c, 1, 58, 100
3, 731520, Note_on_c, 1, 70, 86
3, 731708, Note_off_c, 1, 70, 100
3, 731712, Note_on_c, 1, 58, 87
3, 731900, Note_off_c, 1, 58, 100
3, 731904, Note_on_c, 1, 51, 87
3, 732092, Note_off_c, 1, 51, 100
3, 732096, Note_on_c, 1, 58, 88
3, 732284, Note_off_c, 1, 58, 100
3, 732288, Note_on_c, 1, 67, 89
3, 732476, Note_off_c, 1, 67, 100
3, 732480, Note_on_c, 1, 58, 89
3, 732668, Note_off_c, 1, 58, 100
3, 732672, Note_on_c, 1, 50, 90
3, 732860, Note_off_c, 1, 50, 100
3, 732864, Note_on_c, 1, 58, 91
3, 733052, Note_off_c, 1, 58, 100
3, 733056, Note_on_c, 1, 65, 91
3, 733244, Note_off_c, 1, 65, 100
3, 733248, Note_on_c, 1, 58, 92
3, 733436, Note_off_c, 1, 58, 100
3, 733440, Note_on_c, 1, 50, 93
3, 733628, Note_off_c, 1, 50, 100
3, 733632, Note_on_c, 1, 58, 93
3, 733820, Note_off_c, 1, 58, 100
3, 733824, Note_on_c, 1, 62, 94
3, 734012, Note_off_c, 1, 62, 100
3, 734016, Note_on_c, 1, 58, 95
3, 734204, Note_off_c, 1, 58, 100
3, 734208, Note_on_c, 1, 51, 95
3, 734396, Note_off_c, 1, 51, 100
3, 734400, Note_on_c, 1, 58, 96
3, 734588, Note_off_c, 1, 58, 100
3, 734592, Note_on_c, 1, 67, 96
3, 734780, Note_off_c, 1, 67, 100
3, 734784, Note_on_c, 1, 58, 97
3, 734972, Note_off_c, 1, 58, 100
3, 734976, Note_on_c, 1, 55, 98
3, 735164, Note_off_c, 1, 55, 100
3, 735168, Note_on_c, 1, 58, 98
3, 735356, Note_off_c, 1, 58, 100
3, 735360, Note_on_c, 1, 70, 99
3, 735548, Note_off_c, 1, 70, 100
3, 735552, Note_on_c, 1, 58, 100
3, 735740, Note_off_c, 1, 58, 100
3, 735744, Note_on_c, 1, 53, 100
3, 735932, Note_off_c, 1, 53, 100
3, 735936, Note_on_c, 1, 58, 101
3, 736124, Note_off_c, 1, 58, 100
3, 736128, Note_on_c, 1, 57, 102
3, 736316, Note_off_c, 1, 57, 100
3, 736320, Note_on_c, 1, 58, 102
3, 736508, Note_off_c, 1, 58, 100
3, 736512, Note_on_c, 1, 53, 103
3, 736700, Note_off_c, 1, 53, 100
3, 736704, Note_on_c, 1, 50, 104
3, 736892, Note_off_c, 1, 50, 100
3, 736896, Note_on_c, 1, 48, 104
3, 737084, Note_off_c, 1, 48, 100
3, 737088, Note_on_c, 1, 46, 105
3, 737276, Note_off_c, 1, 46, 100
3, 737280, Note_on_c, 1, 41, 106
3, 737468, Note_off_c, 1, 41, 100
3, 737472, Note_on_c, 1, 43, 106
3, 737660, Note_off_c, 1, 43, 100
3, 737664, Note_on_c, 1, 45, 107
3, 737852, Note_off_c, 1, 45, 100
3, 737856, Note_on_c, 1, 46, 108
3, 738044, Note_off_c, 1, 46, 100
3, 738048, Note_on_c, 1, 48, 108
3, 738236, Note_off_c, 1, 48, 100
3, 738240, Note_on_c, 1, 50, 109
3, 738428, Note_off_c, 1, 50, 100
3, 738432, Note_on_c, 1, 51, 110
3, 738620, Note_off_c, 1, 51, 100
3, 738624, Note_on_c, 1, 53, 110
3, 738812, Note_off_c, 1, 53, 100
3, 738816, Control_c, 1, 64, 127
3, 738816, Note_on_c, 1, 34, 120
3, 739004, Note_off_c, 1, 34, 100
3, 739008, Note_on_c, 1, 46, 120
3, 739196, Note_off_c, 1, 46, 100
3, 739200, Note_on_c, 1, 34, 120
3, 739388, Note_off_c, 1, 34, 100
3, 739392, Note_on_c, 1, 46, 120
3, 739580, Note_off_c, 1, 46, 100
3, 739584, Note_on_c, 1, 34, 120
3, 739772, Note_off_c, 1, 34, 100
3, 739776, Note_on_c, 1, 46, 120
3, 739964, Note_off_c, 1, 46, 100
3, 739968, Note_on_c, 1, 34, 120
3, 740156, Note_off_c, 1, 34, 100
3, 740160, Note_on_c, 1, 46, 120
3, 740348, Note_off_c, 1, 46, 100
3, 740352, Note_on_c, 1, 34, 120
3, 740540, Note_off_c, 1, 34, 100
3, 740544, Note_on_c, 1, 46, 120
3, 740732, Note_off_c, 1, 46, 100
3, 740736, Note_on_c, 1, 34, 120
3, 740924, Note_off_c, 1, 34, 100
3, 740928, Note_on_c, 1, 46, 120
3, 741112, Control_c, 1, 64, 0
3, 741116, Note_off_c, 1, 46, 100
3, 741120, Note_on_c, 1, 34, 120
3, 741308, Note_off_c, 1, 34, 100
3, 741312, Note_on_c, 1, 46, 120
3, 741500, Note_off_c, 1, 46, 100
3, 741504, Note_on_c, 1, 35, 80
3, 741692, Note_off_c, 1, 35, 100
3, 741696, Note_on_c, 1, 47, 80
3, 741884, Note_off_c, 1, 47, 100
3, 741888, Note_on_c, 1, 36, 80
3, 742076, Note_off_c, 1, 36, 100
3, 742080, Note_on_c, 1, 48, 80
3, 742268, Note_off_c, 1, 48, 100
3, 742272, Note_on_c, 1, 35, 80
3, 742460, Note_off_c, 1, 35, 100
3, 742464, Note_on_c, 1, 47, 80
3, 742652, Note_off_c, 1, 47, 100
3, 742656, Note_on_c, 1, 36, 80
3, 742844, Note_off_c, 1, 36, 100
3, 742848, Note_on_c, 1, 48, 80
3, 743036, Note_off_c, 1, 48, 100
3, 743040, Note_on_c, 1, 39, 80
3, 743228, Note_off_c, 1, 39, 100
3, 743232, Note_on_c, 1, 51, 80
3, 743420, Note_off_c, 1, 51, 100
3, 743424, Note_on_c, 1, 40, 80
3, 743612, Note_off_c, 1, 40, 100
3, 743616, Note_on_c, 1, 52, 80
3, 743804, Note_off_c, 1, 52, 100
3, 743808, Note_on_c, 1, 43, 80
3, 743996, Note_off_c, 1, 43, 100
3, 744000, Note_on_c, 1, 55, 80
3, 744188, Note_off_c, 1, 55, 100
3, 744192, Note_on_c, 1, 41, 80
3, 744380, Note_off_c, 1, 41, 100
3, 744384, Note_on_c, 1, 53, 80
3, 744572, Note_off_c, 1, 53, 100
3, 744576, Note_on_c, 1, 41, 80
3, 744764, Note_off_c, 1, 41, 100
3, 744768, Note_on_c, 1, 53, 80
3, 744956, Note_off_c, 1, 53, 100
3, 744960, Note_on_c, 1, 41, 80
3, 745148, Note_off_c, 1, 41, 100
3, 745152, Note_on_c, 1, 53, 82
3, 745340, Note_off_c, 1, 53, 100
3, 745344, Note_on_c, 1, 46, 84
3, 745532, Note_off_c, 1, 46, 100
3, 745536, Note_on_c, 1, 58, 86
3, 745724, Note_off_c, 1, 58, 100
3, 745728, Note_on_c, 1, 41, 88
3, 745916, Note_off_c, 1, 41, 100
3, 745920, Note_on_c, 1, 53, 90
3, 746108, Note_off_c, 1, 53, 100
3, 746112, Note_on_c, 1, 53, 92
3, 746300, Note_off_c, 1, 53, 100
3, 746304, Note_on_c, 1, 65, 94
3, 746492, Note_off_c, 1, 65, 100
3, 746496, Note_on_c, 1, 41, 96
3, 746684, Note_off_c, 1, 41, 100
3, 746688, Note_on_c, 1, 53, 98
3, 746876, Note_off_c, 1, 53, 100
3, 746880, Note_on_c, 1, 46, 100
3, 747068, Note_off_c, 1, 46, 100
3, 747072, Note_on_c, 1, 58, 102
3, 747260, Note_off_c, 1, 58, 100
3, 747264, Note_on_c, 1, 41, 104
3, 747452, Note_off_c, 1, 41, 100
3, 747456, Note_on_c, 1, 53, 106
3, 747644, Note_off_c, 1, 53, 100
3, 747648, Note_on_c, 1, 53, 108
3, 747836, Note_off_c, 1, 53, 100
3, 747840, Note_on_c, 1, 65, 110
3, 748028, Note_off_c, 1, 65, 100
3, 748032, Note_on_c, 1, 46, 110
3, 748220, Note_off_c, 1, 46, 100
3, 748224, Note_on_c, 1, 58, 110
3, 748412, Note_off_c, 1, 58, 100
3, 748416, Note_on_c, 1, 41, 110
3, 748604, Note_off_c, 1, 41, 100
3, 748608, Note_on_c, 1, 53, 110
3, 748796, Note_off_c, 1, 53, 100
3, 748800, Note_on_c, 1, 45, 110
3, 748988, Note_off_c, 1, 45, 100
3, 748992, Note_on_c, 1, 57, 110
3, 749180, Note_off_c, 1, 57, 100
3, 749184, Note_on_c, 1, 48, 110
3, 749372, Note_off_c, 1, 48, 100
3, 749376, Note_on_c, 1, 60, 110
3, 749564, Note_off_c, 1, 60, 100
3, 749568, Note_on_c, 1, 46, 110
3, 749756, Note_off_c, 1, 46, 100
3, 749760, Note_on_c, 1, 58, 110
3, 749948, Note_off_c, 1, 58, 100
3, 749952, Note_on_c, 1, 41, 110
3, 750140, Note_off_c, 1, 41, 100
3, 750144, Note_on_c, 1, 53, 110
3, 750332, Note_off_c, 1, 53, 100
3, 750336, Note_on_c, 1, 33, 110
3, 750524, Note_off_c, 1, 33, 100
3, 750528, Note_on_c, 1, 45, 110
3, 750716, Note_off_c, 1, 45, 100
3, 750720, Note_on_c, 1, 36, 110
3, 750908, Note_off_c, 1, 36, 100
3, 750912, Note_on_c, 1, 48, 110
3, 751100, Note_off_c, 1, 48, 100
3, 751104, Note_on_c, 1, 34, 110
3, 751292, Note_off_c, 1, 34, 100
3, 751296, Note_on_c, 1, 46, 110
3, 751484, Note_off_c, 1, 46, 100
3, 751488, Note_on_c, 1, 29, 110
3, 751676, Note_off_c, 1, 29, 100
3, 751680, Note_on_c, 1, 41, 110
3, 751868, Note_off_c, 1, 41, 100
3, 751872, Note_on_c, 1, 35, 110
3, 752060, Note_off_c, 1, 35, 100
3, 752064, Note_on_c, 1, 47, 110
3, 752252, Note_off_c, 1, 47, 100
3, 752256, Note_on_c, 1, 38, 110
3, 752444, Note_off_c, 1, 38, 100
3, 752448, Note_on_c, 1, 50, 110
3, 752636, Note_off_c, 1, 50, 100
3, 752640, Note_on_c, 1, 36, 110
3, 752828, Note_off_c, 1, 36, 100
3, 752832, Note_on_c, 1, 48, 110
3, 753020, Note_off_c, 1, 48, 100
3, 753024, Note_on_c, 1, 31, 110
3, 753212, Note_off_c, 1, 31, 100
3, 753216, Note_on_c, 1, 43, 110
3, 753404, Note_off_c, 1, 43, 100
3, 753408, Note_on_c, 1, 35, 110
3, 753596, Note_off_c, 1, 35, 100
3, 753600, Note_on_c, 1, 47, 110
3, 753788, Note_off_c, 1, 47, 100
3, 753792, Note_on_c, 1, 38, 110
3, 753980, Note_off_c, 1, 38, 100
3, 753984, Note_on_c, 1, 50, 110
3, 754172, Note_off_c, 1, 50, 100
3, 754176, Note_on_c, 1, 36, 110
3, 754364, Note_off_c, 1, 36, 100
3, 754368, Note_on_c, 1, 48, 110
3, 754556, Note_off_c, 1, 48, 100
3, 754560, Note_on_c, 1, 31, 110
3, 754748, Note_off_c, 1, 31, 100
3, 754752, Note_on_c, 1, 43, 110
3, 754940, Note_off_c, 1, 43, 100
3, 754944, Note_on_c, 1, 36, 110
3, 755132, Note_off_c, 1, 36, 100
3, 755136, Note_on_c, 1, 48, 110
3, 755324, Note_off_c, 1, 48, 100
3, 755328, Note_on_c, 1, 39, 110
3, 755516, Note_off_c, 1, 39, 100
3, 755520, Note_on_c, 1, 51, 110
3, 755708, Note_off_c, 1, 51, 100
3, 755712, Note_on_c, 1, 38, 110
3, 755900, Note_off_c, 1, 38, 100
3, 755904, Note_on_c, 1, 50, 110
3, 756092, Note_off_c, 1, 50, 100
3, 756096, Note_on_c, 1, 33, 110
3, 756284, Note_off_c, 1, 33, 100
3, 756288, Note_on_c, 1, 45, 110
3, 756476, Note_off_c, 1, 45, 100
3, 756480, Note_on_c, 1, 37, 110
3, 756668, Note_off_c, 1, 37, 100
3, 756672, Note_on_c, 1, 49, 110
3, 756860, Note_off_c, 1, 49, 100
3, 756864, Note_on_c, 1, 40, 110
3, 757052, Note_off_c, 1, 40, 100
3, 757056, Note_on_c, 1, 52, 110
3, 757244, Note_off_c, 1, 52, 100
3, 757248, Note_on_c, 1, 38, 110
3, 757436, Note_off_c, 1, 38, 100
3, 757440, Note_on_c, 1, 50, 110
3, 757628, Note_off_c, 1, 50, 100
3, 757632, Note_on_c, 1, 33, 110
3, 757820, Note_off_c, 1, 33, 100
3, 757824, Note_on_c, 1, 45, 110
3, 758012, Note_off_c, 1, 45, 100
3, 758016, Note_on_c, 1, 38, 110
3, 758204, Note_off_c, 1, 38, 100
3, 758208, Note_on_c, 1, 50, 110
3, 758396, Note_off_c, 1, 50, 100
3, 758400, Note_on_c, 1, 41, 110
3, 758588, Note_off_c, 1, 41, 100
3, 758592, Note_on_c, 1, 53, 110
3, 758780, Note_off_c, 1, 53, 100
3, 758784, Note_on_c, 1, 39, 110
3, 758972, Note_off_c, 1, 39, 100
3, 758976, Note_on_c, 1, 51, 110
3, 759164, Note_off_c, 1, 51, 100
3, 759168, Note_on_c, 1, 34, 110
3, 759356, Note_off_c, 1, 34, 100
3, 759360, Note_on_c, 1, 46, 110
3, 759548, Note_off_c, 1, 46, 100
3, 759552, Note_on_c, 1, 38, 110
3, 759740, Note_off_c, 1, 38, 100
3, 759744, Note_on_c, 1, 50, 110
3, 759932, Note_off_c, 1, 50, 100
3, 759936, Note_on_c, 1, 41, 110
3, 760124, Note_off_c, 1, 41, 100
3, 760128, Note_on_c, 1, 53, 110
3, 760316, Note_off_c, 1, 53, 100
3, 760320, Note_on_c, 1, 39, 110
3, 760508, Note_off_c, 1, 39, 100
3, 760512, Note_on_c, 1, 51, 110
3, 760700, Note_off_c, 1, 51, 100
3, 760704, Note_on_c, 1, 34, 110
3, 760892, Note_off_c, 1, 34, 100
3, 760896, Note_on_c, 1, 46, 110
3, 761084, Note_off_c, 1, 46, 100
3, 761088, Note_on_c, 1, 39, 110
3, 761276, Note_off_c, 1, 39, 100
3, 761280, Note_on_c, 1, 51, 110
3, 761468, Note_off_c, 1, 51, 100
3, 761472, Note_on_c, 1, 42, 110
3, 761660, Note_off_c, 1, 42, 100
3, 761664, Note_on_c, 1, 54, 110
3, 761852, Note_off_c, 1, 54, 100
3, 761856, Note_on_c, 1, 41, 110
3, 762044, Note_off_c, 1, 41, 100
3, 762048, Note_on_c, 1, 53, 110
3, 762236, Note_off_c, 1, 53, 100
3, 762240, Note_on_c, 1, 36, 110
3, 762428, Note_off_c, 1, 36, 100
3, 762432, Note_on_c, 1, 48, 110
3, 762620, Note_off_c, 1, 48, 100
3, 762624, Note_on_c, 1, 39, 110
3, 762812, Note_off_c, 1, 39, 100
3, 762816, Note_on_c, 1, 51, 110
3, 763004, Note_off_c, 1, 51, 100
3, 763008, Note_on_c, 1, 42, 110
3, 763196, Note_off_c, 1, 42, 100
3, 763200, Note_on_c, 1, 54, 110
3, 763388, Note_off_c, 1, 54, 100
3, 763392, Note_on_c, 1, 37, 110
3, 763580, Note_off_c, 1, 37, 100
3, 763584, Note_on_c, 1, 49, 110
3, 763772, Note_off_c, 1, 49, 100
3, 763776, Note_on_c, 1, 33, 110
3, 763964, Note_off_c, 1, 33, 100
3, 763968, Note_on_c, 1, 45, 110
3, 764156, Note_off_c, 1, 45, 100
3, 764160, Note_on_c, 1, 36, 110
3, 764348, Note_off_c, 1, 36, 100
3, 764352, Note_on_c, 1, 48, 110
3, 764540, Note_off_c, 1, 48, 100
3, 764544, Note_on_c, 1, 39, 110
3, 764732, Note_off_c, 1, 39, 100
3, 764736, Note_on_c, 1, 51, 110
3, 764924, Note_off_c, 1, 51, 100
3, 764928, Note_on_c, 1, 30, 110
3, 765116, Note_off_c, 1, 30, 100
3, 765120, Note_on_c, 1, 42, 110
3, 765308, Note_off_c, 1, 42, 100
3, 765312, Note_on_c, 1, 29, 110
3, 765500, Note_off_c, 1, 29, 100
3, 765504, Note_on_c, 1, 41, 110
3, 765692, Note_off_c, 1, 41, 100
3, 765696, Note_on_c, 1, 33, 110
3, 765884, Note_off_c, 1, 33, 100
3, 765888, Note_on_c, 1, 45, 110
3, 766076, Note_off_c, 1, 45, 100
3, 766080, Note_on_c, 1, 39, 110
3, 766268, Note_off_c, 1, 39, 100
3, 766272, Note_on_c, 1, 51, 110
3, 766460, Note_off_c, 1, 51, 100
3, 766464, Note_on_c, 1, 34, 80
3, 766464, Note_on_c, 1, 46, 80
3, 767228, Note_off_c, 1, 34, 100
3, 767228, Note_off_c, 1, 46, 100
3, 767232, Note_on_c, 1, 44, 80
3, 767232, Note_on_c, 1, 56, 80
3, 767996, Note_off_c, 1, 44, 100
3, 767996, Note_off_c, 1, 56, 100
3, 768000, Note_on_c, 1, 42, 80
3, 768000, Note_on_c, 1, 54, 80
3, 768764, Note_off_c, 1, 42, 100
3, 768764, Note_off_c, 1, 54, 100
3, 768768, Note_on_c, 1, 39, 80
3, 768768, Note_on_c, 1, 51, 80
3, 769532, Note_off_c, 1, 39, 100
3, 769532, Note_off_c, 1, 51, 100
3, 769536, Note_on_c, 1, 50, 80
3, 769536, Note_on_c, 1, 38, 80
3, 770300, Note_off_c, 1, 50, 100
3, 770300, Note_off_c, 1, 38, 100
3, 770304, Note_on_c, 1, 46, 80
3, 770304, Note_on_c, 1, 34, 80
3, 771068, Note_off_c, 1, 46, 100
3, 771068, Note_off_c, 1, 34, 100
3, 771072, Note_on_c, 1, 51, 80
3, 771072, Note_on_c, 1, 39, 80
3, 771836, Note_off_c, 1, 51, 100
3, 771836, Note_off_c, 1, 39, 100
3, 771840, Note_on_c, 1, 58, 80
3, 771840, Note_on_c, 1, 54, 80
3, 772220, Note_off_c, 1, 58, 100
3, 772220, Note_off_c, 1, 54, 100
3, 772224, Note_on_c, 1, 58, 80
3, 772224, Note_on_c, 1, 55, 80
3, 772320, Note_on_c, 1, 60, 80
3, 772412, Note_off_c, 1, 58, 100
3, 772416, Note_on_c, 1, 58, 80
3, 772508, Note_off_c, 1, 60, 100
3, 772512, Note_on_c, 1, 60, 80
3, 772604, Note_off_c, 1, 55, 100
3, 772604, Note_off_c, 1, 58, 100
3, 772608, Note_on_c, 1, 58, 80
3, 772608, Note_on_c, 1, 53, 80
3, 772700, Note_off_c, 1, 60, 100
3, 772704, Note_on_c, 1, 60, 80
3, 772796, Note_off_c, 1, 58, 100
3, 772800, Note_on_c, 1, 58, 80
3, 772892, Note_off_c, 1, 60, 100
3, 772896, Note_on_c, 1, 60, 80
3, 772988, Note_off_c, 1, 53, 100
3, 772988, Note_off_c, 1, 58, 100
3, 772992, Note_on_c, 1, 58, 80
3, 772992, Note_on_c, 1, 55, 80
3, 773084, Note_off_c, 1, 60, 100
3, 773088, Note_on_c, 1, 60, 80
3, 773180, Note_off_c, 1, 58, 100
3, 773184, Note_on_c, 1, 58, 80
3, 773276, Note_off_c, 1, 60, 100
3, 773280, Note_on_c, 1, 60, 80
3, 773372, Note_off_c, 1, 55, 100
3, 773372, Note_off_c, 1, 58, 100
3, 773376, Note_on_c, 1, 58, 80
3, 773376, Note_on_c, 1, 56, 80
3, 773468, Note_off_c, 1, 60, 100
3, 773472, Note_on_c, 1, 60, 80
3, 773564, Note_off_c, 1, 58, 100
3, 773568, Note_on_c, 1, 58, 80
3, 773660, Note_off_c, 1, 60, 100
3, 773664, Note_on_c, 1, 60, 80
3, 773756, Note_off_c, 1, 56, 100
3, 773756, Note_off_c, 1, 58, 100
3, 773760, Note_on_c, 1, 58, 80
3, 773760, Note_on_c, 1, 53, 80
3, 773852, Note_off_c, 1, 60, 100
3, 773856, Note_on_c, 1, 60, 80
3, 773948, Note_off_c, 1, 58, 100
3, 773952, Note_on_c, 1, 58, 80
3, 774044, Note_off_c, 1, 60, 100
3, 774048, Note_on_c, 1, 60, 80
3, 774140, Note_off_c, 1, 53, 100
3, 774140, Note_off_c, 1, 58, 100
3, 774144, Note_on_c, 1, 58, 80
3, 774144, Note_on_c, 1, 55, 80
3, 774236, Note_off_c, 1, 60, 100
3, 774240, Note_on_c, 1, 60, 80
3, 774332, Note_off_c, 1, 58, 100
3, 774336, Note_on_c, 1, 58, 80
3, 774428, Note_off_c, 1, 60, 100
3, 774432, Note_on_c, 1, 60, 80
3, 774524, Note_off_c, 1, 55, 100
3, 774524, Note_off_c, 1, 58, 100
3, 774528, Note_on_c, 1, 58, 80
3, 774528, Note_on_c, 1, 56, 80
3, 774620, Note_off_c, 1, 60, 100
3, 774624, Note_on_c, 1, 60, 80
3, 774716, Note_off_c, 1, 58, 100
3, 774720, Note_on_c, 1, 58, 80
3, 774812, Note_off_c, 1, 60, 100
3, 774816, Note_on_c, 1, 60, 80
3, 774908, Note_off_c, 1, 56, 100
3, 774908, Note_off_c, 1, 58, 100
3, 774912, Note_on_c, 1, 58, 80
3, 774912, Note_on_c, 1, 55, 80
3, 775004, Note_off_c, 1, 60, 100
3, 775008, Note_on_c, 1, 60, 80
3, 775100, Note_off_c, 1, 58, 100
3, 775104, Note_on_c, 1, 58, 80
3, 775196, Note_off_c, 1, 60, 100
3, 775200, Note_on_c, 1, 60, 80
3, 775292, Note_off_c, 1, 55, 100
3, 775292, Note_off_c, 1, 58, 100
3, 775296, Note_on_c, 1, 58, 80
3, 775296, Note_on_c, 1, 51, 80
3, 775388, Note_off_c, 1, 60, 100
3, 775392, Note_on_c, 1, 60, 80
3, 775484, Note_off_c, 1, 58, 100
3, 775488, Note_on_c, 1, 58, 80
3, 775580, Note_off_c, 1, 60, 100
3, 775584, Note_on_c, 1, 60, 80
3, 775676, Note_off_c, 1, 51, 100
3, 775676, Note_off_c, 1, 58, 100
3, 775680, Note_on_c, 1, 58, 80
3, 775680, Note_on_c, 1, 50, 80
3, 775772, Note_off_c, 1, 60, 100
3, 775776, Note_on_c, 1, 60, 80
3, 775868, Note_off_c, 1, 58, 100
3, 775872, Note_on_c, 1, 58, 80
3, 775964, Note_off_c, 1, 60, 100
3, 775968, Note_on_c, 1, 60, 80
3, 776060, Note_off_c, 1, 50, 100
3, 776060, Note_off_c, 1, 58, 100
3, 776064, Note_on_c, 1, 58, 80
3, 776064, Note_on_c, 1, 51, 80
3, 776156, Note_off_c, 1, 60, 100
3, 776160, Note_on_c, 1, 60, 80
3, 776252, Note_off_c, 1, 58, 100
3, 776256, Note_on_c, 1, 58, 80
3, 776348, Note_off_c, 1, 60, 100
3, 776352, Note_on_c, 1, 60, 80
3, 776444, Note_off_c, 1, 51, 100
3, 776444, Note_off_c, 1, 58, 100
3, 776448, Note_on_c, 1, 58, 80
3, 776448, Note_on_c, 1, 53, 80
3, 776540, Note_off_c, 1, 60, 100
3, 776544, Note_on_c, 1, 60, 80
3, 776636, Note_off_c, 1, 58, 100
3, 776640, Note_on_c, 1, 58, 80
3, 776732, Note_off_c, 1, 60, 100
3, 776736, Note_on_c, 1, 60, 80
3, 776828, Note_off_c, 1, 53, 100
3, 776828, Note_off_c, 1, 58, 100
3, 776832, Note_on_c, 1, 58, 80
3, 776832, Note_on_c, 1, 50, 80
3, 776924, Note_off_c, 1, 60, 100
3, 776928, Note_on_c, 1, 60, 80
3, 777020, Note_off_c, 1, 58, 100
3, 777024, Note_on_c, 1, 58, 80
3, 777116, Note_off_c, 1, 60, 100
3, 777120, Note_on_c, 1, 60, 80
3, 777212, Note_off_c, 1, 50, 100
3, 777212, Note_off_c, 1, 58, 100
3, 777216, Note_on_c, 1, 58, 80
3, 777216, Note_on_c, 1, 51, 80
3, 777308, Note_off_c, 1, 60, 100
3, 777312, Note_on_c, 1, 60, 80
3, 777404, Note_off_c, 1, 58, 100
3, 777408, Note_on_c, 1, 58, 80
3, 777500, Note_off_c, 1, 60, 100
3, 777504, Note_on_c, 1, 60, 80
3, 777596, Note_off_c, 1, 51, 100
3, 777596, Note_off_c, 1, 58, 100
3, 777600, Note_on_c, 1, 58, 80
3, 777600, Note_on_c, 1, 53, 80
3, 777692, Note_off_c, 1, 60, 100
3, 777696, Note_on_c, 1, 60, 80
3, 777788, Note_off_c, 1, 58, 100
3, 777792, Note_on_c, 1, 58, 80
3, 777884, Note_off_c, 1, 60, 100
3, 777888, Note_on_c, 1, 60, 80
3, 777980, Note_off_c, 1, 53, 100
3, 777980, Note_off_c, 1, 58, 100
3, 777984, Note_on_c, 1, 58, 80
3, 777984, Note_on_c, 1, 55, 80
3, 778076, Note_off_c, 1, 60, 100
3, 778080, Note_on_c, 1, 60, 80
3, 778172, Note_off_c, 1, 58, 100
3, 778176, Note_on_c, 1, 58, 80
3, 778268, Note_off_c, 1, 60, 100
3, 778272, Note_on_c, 1, 60, 80
3, 778364, Note_off_c, 1, 55, 100
3, 778364, Note_off_c, 1, 58, 100
3, 778368, Note_on_c, 1, 58, 80
3, 778368, Note_on_c, 1, 56, 80
3, 778460, Note_off_c, 1, 60, 100
3, 778464, Note_on_c, 1, 60, 80
3, 778556, Note_off_c, 1, 58, 100
3, 778560, Note_on_c, 1, 58, 80
3, 778652, Note_off_c, 1, 60, 100
3, 778656, Note_on_c, 1, 60, 80
3, 778748, Note_off_c, 1, 56, 100
3, 778748, Note_off_c, 1, 58, 100
3, 778752, Note_on_c, 1, 58, 80
3, 778752, Note_on_c, 1, 55, 80
3, 778844, Note_off_c, 1, 60, 100
3, 778848, Note_on_c, 1, 60, 80
3, 778940, Note_off_c, 1, 58, 100
3, 778944, Note_on_c, 1, 58, 80
3, 779036, Note_off_c, 1, 60, 100
3, 779040, Note_on_c, 1, 60, 80
3, 779132, Note_off_c, 1, 58, 100
3, 779136, Note_on_c, 1, 58, 80
3, 779228, Note_off_c, 1, 60, 100
3, 779232, Note_on_c, 1, 60, 80
3, 779324, Note_off_c, 1, 58, 100
3, 779328, Note_on_c, 1, 58, 80
3, 779420, Note_off_c, 1, 60, 100
3, 779424, Note_on_c, 1, 60, 80
3, 779516, Note_off_c, 1, 58, 100
3, 779520, Note_on_c, 1, 58, 80
3, 779612, Note_off_c, 1, 60, 100
3, 779616, Note_on_c, 1, 60, 80
3, 779708, Note_off_c, 1, 58, 100
3, 779712, Note_on_c, 1, 58, 80
3, 779804, Note_off_c, 1, 60, 100
3, 779808, Note_on_c, 1, 60, 80
3, 779900, Note_off_c, 1, 55, 100
3, 779900, Note_off_c, 1, 58, 100
3, 779904, Note_on_c, 1, 58, 80
3, 779996, Note_off_c, 1, 60, 100
3, 780000, Note_on_c, 1, 60, 80
3, 780092, Note_off_c, 1, 58, 100
3, 780096, Note_on_c, 1, 58, 80
3, 780188, Note_off_c, 1, 60, 100
3, 780192, Note_on_c, 1, 60, 80
3, 780284, Note_off_c, 1, 58, 100
3, 780288, Note_on_c, 1, 58, 80
3, 780288, Note_on_c, 1, 55, 80
3, 780380, Note_off_c, 1, 60, 100
3, 780384, Note_on_c, 1, 60, 80
3, 780476, Note_off_c, 1, 58, 100
3, 780480, Note_on_c, 1, 58, 80
3, 780572, Note_off_c, 1, 60, 100
3, 780576, Note_on_c, 1, 60, 80
3, 780668, Note_off_c, 1, 58, 100
3, 780672, Note_on_c, 1, 58, 80
3, 780764, Note_off_c, 1, 60, 100
3, 780768, Note_on_c, 1, 60, 80
3, 780860, Note_off_c, 1, 58, 100
3, 780864, Note_on_c, 1, 58, 80
3, 780956, Note_off_c, 1, 60, 100
3, 780960, Note_on_c, 1, 60, 80
3, 781052, Note_off_c, 1, 58, 100
3, 781056, Note_on_c, 1, 58, 80
3, 781148, Note_off_c, 1, 60, 100
3, 781152, Note_on_c, 1, 60, 80
3, 781244, Note_off_c, 1, 58, 100
3, 781248, Note_on_c, 1, 58, 80
3, 781340, Note_off_c, 1, 60, 100
3, 781344, Note_on_c, 1, 60, 80
3, 781436, Note_off_c, 1, 55, 100
3, 781436, Note_off_c, 1, 58, 100
3, 781440, Note_on_c, 1, 58, 80
3, 781440, Note_on_c, 1, 53, 80
3, 781532, Note_off_c, 1, 60, 100
3, 781536, Note_on_c, 1, 60, 80
3, 781628, Note_off_c, 1, 58, 100
3, 781632, Note_on_c, 1, 58, 80
3, 781724, Note_off_c, 1, 60, 100
3, 781728, Note_on_c, 1, 60, 80
3, 781820, Note_off_c, 1, 53, 100
3, 781820, Note_off_c, 1, 58, 100
3, 781820, Note_off_c, 1, 60, 100
3, 781824, Note_on_c, 1, 62, 80
3, 781824, Note_on_c, 1, 58, 80
3, 781824, Note_on_c, 1, 53, 80
3, 784892, Note_off_c, 1, 53, 100
3, 784892, Note_off_c, 1, 58, 100
3, 784892, Note_off_c, 1, 62, 100
3, 785280, Note_on_c, 1, 70, 80
3, 785468, Note_off_c, 1, 70, 100
3, 785472, Note_on_c, 1, 69, 80
3, 785660, Note_off_c, 1, 69, 100
3, 785664, Note_on_c, 1, 67, 80
3, 785852, Note_off_c, 1, 67, 100
3, 785856, Note_on_c, 1, 65, 80
3, 786044, Note_off_c, 1, 65, 100
3, 786048, Note_on_c, 1, 67, 80
3, 786236, Note_off_c, 1, 67, 100
3, 786240, Note_on_c, 1, 69, 80
3, 786428, Note_off_c, 1, 69, 100
3, 786432, Note_on_c, 1, 70, 80
3, 786620, Note_off_c, 1, 70, 100
3, 786624, Note_on_c, 1, 72, 80
3, 786812, Note_off_c, 1, 72, 100
3, 786816, Note_on_c, 1, 74, 80
3, 787004, Note_off_c, 1, 74, 100
3, 787008, Note_on_c, 1, 75, 80
3, 787196, Note_off_c, 1, 75, 100
3, 787200, Note_on_c, 1, 77, 80
3, 787388, Note_off_c, 1, 77, 100
3, 787392, Note_on_c, 1, 79, 80
3, 787580, Note_off_c, 1, 79, 100
3, 787584, Note_on_c, 1, 81, 80
3, 787772, Note_off_c, 1, 81, 100
3, 787776, Note_on_c, 1, 82, 80
3, 787964, Note_off_c, 1, 82, 100
3, 788160, Note_on_c, 1, 41, 80
3, 788348, Note_off_c, 1, 41, 100
3, 788352, Note_on_c, 1, 43, 80
3, 788540, Note_off_c, 1, 43, 100
3, 788544, Note_on_c, 1, 45, 80
3, 788732, Note_off_c, 1, 45, 100
3, 788736, Note_on_c, 1, 46, 80
3, 788924, Note_off_c, 1, 46, 100
3, 788928, Note_on_c, 1, 48, 80
3, 789116, Note_off_c, 1, 48, 100
3, 789120, Note_on_c, 1, 50, 80
3, 789308, Note_off_c, 1, 50, 100
3, 789312, Note_on_c, 1, 51, 80
3, 789500, Note_off_c, 1, 51, 100
3, 789504, Note_on_c, 1, 53, 80
3, 789692, Note_off_c, 1, 53, 100
3, 789696, Note_on_c, 1, 55, 80
3, 789884, Note_off_c, 1, 55, 100
3, 789888, Note_on_c, 1, 57, 80
3, 790076, Note_off_c, 1, 57, 100
3, 790080, Note_on_c, 1, 58, 80
3, 790268, Note_off_c, 1, 58, 100
3, 790272, Note_on_c, 1, 60, 80
3, 790460, Note_off_c, 1, 60, 100
3, 790464, Note_on_c, 1, 62, 80
3, 790652, Note_off_c, 1, 62, 100
3, 790656, Note_on_c, 1, 63, 80
3, 790844, Note_off_c, 1, 63, 100
3, 790848, Note_on_c, 1, 62, 80
3, 791036, Note_off_c, 1, 62, 100
3, 791040, Note_on_c, 1, 62, 70
3, 791040, Note_on_c, 1, 58, 70
3, 791612, Note_off_c, 1, 62, 100
3, 791612, Note_off_c, 1, 58, 100
3, 791616, Note_on_c, 1, 62, 70
3, 791616, Note_on_c, 1, 58, 70
3, 791804, Note_off_c, 1, 62, 100
3, 791804, Note_off_c, 1, 58, 100
3, 791808, Note_on_c, 1, 62, 70
3, 791808, Note_on_c, 1, 58, 70
3, 792188, Note_off_c, 1, 62, 100
3, 792188, Note_off_c, 1, 58, 100
3, 792384, Note_on_c, 1, 47, 110
3, 792384, Note_on_c, 1, 35, 110
3, 792572, Note_off_c, 1, 47, 100
3, 792572, Note_off_c, 1, 35, 100
3, 792576, Note_on_c, 1, 48, 110
3, 792576, Note_on_c, 1, 36, 110
3, 793148, Note_off_c, 1, 48, 100
3, 793148, Note_off_c, 1, 36, 100
3, 793152, Note_on_c, 1, 48, 110
3, 793152, Note_on_c, 1, 36, 110
3, 793340, Note_off_c, 1, 48, 100
3, 793340, Note_off_c, 1, 36, 100
3, 793344, Note_on_c, 1, 48, 110
3, 793344, Note_on_c, 1, 36, 110
3, 793724, Note_off_c, 1, 48, 100
3, 793724, Note_off_c, 1, 36, 100
3, 793920, Note_on_c, 1, 62, 70
3, 793920, Note_on_c, 1, 59, 70
3, 794108, Note_off_c, 1, 62, 100
3, 794108, Note_off_c, 1, 59, 100
3, 794112, Note_on_c, 1, 63, 70
3, 794112, Note_on_c, 1, 60, 70
3, 794684, Note_off_c, 1, 63, 100
3, 794684, Note_off_c, 1, 60, 100
3, 794688, Note_on_c, 1, 63, 70
3, 794688, Note_on_c, 1, 60, 70
3, 794876, Note_off_c, 1, 63, 100
3, 794876, Note_off_c, 1, 60, 100
3, 794880, Note_on_c, 1, 63, 70
3, 794880, Note_on_c, 1, 60, 70
3, 795260, Note_off_c, 1, 63, 100
3, 795260, Note_off_c, 1, 60, 100
3, 795456, Note_on_c, 1, 49, 110
3, 795456, Note_on_c, 1, 37, 110
3, 795644, Note_off_c, 1, 49, 100
3, 795644, Note_off_c, 1, 37, 100
3, 795648, Note_on_c, 1, 50, 110
3, 795648, Note_on_c, 1, 38, 110
3, 796220, Note_off_c, 1, 50, 100
3, 796220, Note_off_c, 1, 38, 100
3, 796224, Note_on_c, 1, 50, 110
3, 796224, Note_on_c, 1, 38, 110
3, 796412, Note_off_c, 1, 50, 100
3, 796412, Note_off_c, 1, 38, 100
3, 796416, Note_on_c, 1, 50, 110
3, 796416, Note_on_c, 1, 38, 110
3, 796796, Note_off_c, 1, 50, 100
3, 796796, Note_off_c, 1, 38, 100
3, 796992, Note_on_c, 1, 64, 70
3, 796992, Note_on_c, 1, 61, 70
3, 797180, Note_off_c, 1, 64, 100
3, 797180, Note_off_c, 1, 61, 100
3, 797184, Note_on_c, 1, 65, 70
3, 797184, Note_on_c, 1, 62, 70
3, 797756, Note_off_c, 1, 65, 100
3, 797756, Note_off_c, 1, 62, 100
3, 797760, Note_on_c, 1, 65, 70
3, 797760, Note_on_c, 1, 62, 70
3, 797948, Note_off_c, 1, 65, 100
3, 797948, Note_off_c, 1, 62, 100
3, 797952, Note_on_c, 1, 65, 70
3, 797952, Note_on_c, 1, 62, 70
3, 798332, Note_off_c, 1, 65, 100
3, 798332, Note_off_c, 1, 62, 100
3, 798528, Note_on_c, 1, 50, 110
3, 798528, Note_on_c, 1, 38, 110
3, 798716, Note_off_c, 1, 50, 100
3, 798716, Note_off_c, 1, 38, 100
3, 798720, Note_on_c, 1, 51, 110
3, 798720, Note_on_c, 1, 39, 110
3, 799292, Note_off_c, 1, 51, 100
3, 799292, Note_off_c, 1, 39, 100
3, 799296, Note_on_c, 1, 51, 110
3, 799296, Note_on_c, 1, 39, 110
3, 799484, Note_off_c, 1, 51, 100
3, 799484, Note_off_c, 1, 39, 100
3, 799488, Note_on_c, 1, 51, 110
3, 799488, Note_on_c, 1, 39, 110
3, 799868, Note_off_c, 1, 51, 100
3, 799868, Note_off_c, 1, 39, 100
3, 801600, Note_on_c, 1, 51, 120
3, 801600, Note_on_c, 1, 39, 120
3, 801788, Note_off_c, 1, 51, 100
3, 801788, Note_off_c, 1, 39, 100
3, 801792, Note_on_c, 1, 41, 120
3, 801792, Note_on_c, 1, 29, 120
3, 802364, Note_off_c, 1, 41, 100
3, 802364, Note_off_c, 1, 29, 100
3, 802368, Note_on_c, 1, 41, 120
3, 802368, Note_on_c, 1, 29, 120
3, 802556, Note_off_c, 1, 41, 100
3, 802556, Note_off_c, 1, 29, 100
3, 802560, Note_on_c, 1, 41, 120
3, 802560, Note_on_c, 1, 29, 120
3, 802940, Note_off_c, 1, 41, 100
3, 802940, Note_off_c, 1, 29, 100
3, 804480, Note_on_c, 1, 30, 80
3, 804668, Note_off_c, 1, 30, 100
3, 804672, Note_on_c, 1, 29, 80
3, 804860, Note_off_c, 1, 29, 100
3, 804864, Note_on_c, 1, 30, 80
3, 805052, Note_off_c, 1, 30, 100
3, 805056, Note_on_c, 1, 29, 80
3, 805244, Note_off_c, 1, 29, 100
3, 805248, Note_on_c, 1, 30, 80
3, 805436, Note_off_c, 1, 30, 100
3, 805440, Note_on_c, 1, 29, 80
3, 805628, Note_off_c, 1, 29, 100
3, 805632, Note_on_c, 1, 33, 80
3, 805820, Note_off_c, 1, 33, 100
3, 805824, Note_on_c, 1, 34, 80
3, 806012, Note_off_c, 1, 34, 100
3, 806016, Note_on_c, 1, 33, 80
3, 806204, Note_off_c, 1, 33, 100
3, 806208, Note_on_c, 1, 34, 80
3, 806396, Note_off_c, 1, 34, 100
3, 806400, Note_on_c, 1, 30, 80
3, 806588, Note_off_c, 1, 30, 100
3, 806592, Note_on_c, 1, 29, 80
3, 806780, Note_off_c, 1, 29, 100
3, 806784, Note_on_c, 1, 30, 80
3, 806972, Note_off_c, 1, 30, 100
3, 806976, Note_on_c, 1, 29, 80
3, 807164, Note_off_c, 1, 29, 100
3, 807168, Note_on_c, 1, 42, 110
3, 807168, Note_on_c, 1, 34, 110
3, 807356, Note_off_c, 1, 42, 100
3, 807360, Note_on_c, 1, 41, 110
3, 807548, Note_off_c, 1, 41, 100
3, 807552, Note_on_c, 1, 42, 110
3, 807740, Note_off_c, 1, 42, 100
3, 807744, Note_on_c, 1, 41, 110
3, 807932, Note_off_c, 1, 34, 100
3, 807932, Note_off_c, 1, 41, 100
3, 807936, Note_on_c, 1, 30, 80
3, 808124, Note_off_c, 1, 30, 100
3, 808128, Note_on_c, 1, 29, 80
3, 808316, Note_off_c, 1, 29, 100
3, 808320, Note_on_c, 1, 30, 80
3, 808508, Note_off_c, 1, 30, 100
3, 808512, Note_on_c, 1, 29, 80
3, 808700, Note_off_c, 1, 29, 100
3, 808704, Note_on_c, 1, 33, 80
3, 808892, Note_off_c, 1, 33, 100
3, 808896, Note_on_c, 1, 34, 80
3, 809084, Note_off_c, 1, 34, 100
3, 809088, Note_on_c, 1, 33, 80
3, 809276, Note_off_c, 1, 33, 100
3, 809280, Note_on_c, 1, 34, 80
3, 809468, Note_off_c, 1, 34, 100
3, 809472, Note_on_c, 1, 30, 80
3, 809660, Note_off_c, 1, 30, 100
3, 809664, Note_on_c, 1, 29, 80
3, 809852, Note_off_c, 1, 29, 100
3, 809856, Note_on_c, 1, 30, 80
3, 810044, Note_off_c, 1, 30, 100
3, 810048, Note_on_c, 1, 29, 80
3, 810236, Note_off_c, 1, 29, 100
3, 810240, Note_on_c, 1, 42, 110
3, 810240, Note_on_c, 1, 34, 110
3, 810428, Note_off_c, 1, 42, 100
3, 810432, Note_on_c, 1, 41, 110
3, 810620, Note_off_c, 1, 41, 100
3, 810624, Note_on_c, 1, 42, 110
3, 810812, Note_off_c, 1, 42, 100
3, 810816, Note_on_c, 1, 41, 110
3, 811004, Note_off_c, 1, 34, 100
3, 811004, Note_off_c, 1, 41, 100
3, 811008, Note_on_c, 1, 30, 80
3, 811196, Note_off_c, 1, 30, 100
3, 811200, Note_on_c, 1, 29, 80
3, 811388, Note_off_c, 1, 29, 100
3, 811392, Note_on_c, 1, 30, 80
3, 811580, Note_off_c, 1, 30, 100
3, 811584, Note_on_c, 1, 29, 80
3, 811772, Note_off_c, 1, 29, 100
3, 811776, Note_on_c, 1, 42, 110
3, 811776, Note_on_c, 1, 34, 110
3, 811964, Note_off_c, 1, 42, 100
3, 811968, Note_on_c, 1, 41, 110
3, 812156, Note_off_c, 1, 41, 100
3, 812160, Note_on_c, 1, 42, 110
3, 812348, Note_off_c, 1, 42, 100
3, 812352, Note_on_c, 1, 41, 110
3, 812540, Note_off_c, 1, 34, 100
3, 812540, Note_off_c, 1, 41, 100
3, 812544, Note_on_c, 1, 30, 80
3, 812732, Note_off_c, 1, 30, 100
3, 812736, Note_on_c, 1, 29, 80
3, 812924, Note_off_c, 1, 29, 100
3, 812928, Note_on_c, 1, 30, 80
3, 813116, Note_off_c, 1, 30, 100
3, 813120, Note_on_c, 1, 29, 80
3, 813308, Note_off_c, 1, 29, 100
3, 813312, Note_on_c, 1, 42, 110
3, 813312, Note_on_c, 1, 34, 110
3, 813500, Note_off_c, 1, 42, 100
3, 813504, Note_on_c, 1, 41, 110
3, 813692, Note_off_c, 1, 41, 100
3, 813696, Note_on_c, 1, 42, 110
3, 813884, Note_off_c, 1, 42, 100
3, 813888, Note_on_c, 1, 41, 110
3, 814076, Note_off_c, 1, 34, 100
3, 814076, Note_off_c, 1, 41, 100
3, 814080, Note_on_c, 1, 30, 80
3, 814268, Note_off_c, 1, 30, 100
3, 814272, Note_on_c, 1, 29, 80
3, 814460, Note_off_c, 1, 29, 100
3, 814464, Note_on_c, 1, 30, 80
3, 814652, Note_off_c, 1, 30, 100
3, 814656, Note_on_c, 1, 29, 80
3, 814844, Note_off_c, 1, 29, 100
3, 814848, Note_on_c, 1, 42, 110
3, 814848, Note_on_c, 1, 34, 110
3, 815036, Note_off_c, 1, 42, 100
3, 815040, Note_on_c, 1, 41, 110
3, 815228, Note_off_c, 1, 41, 100
3, 815232, Note_on_c, 1, 42, 110
3, 815420, Note_off_c, 1, 42, 100
3, 815424, Note_on_c, 1, 41, 110
3, 815612, Note_off_c, 1, 34, 100
3, 815612, Note_off_c, 1, 41, 100
3, 815616, Note_on_c, 1, 46, 80
3, 815616, Note_on_c, 1, 54, 80
3, 815804, Note_off_c, 1, 54, 100
3, 815808, Note_on_c, 1, 53, 80
3, 815996, Note_off_c, 1, 53, 100
3, 816000, Note_on_c, 1, 54, 80
3, 816188, Note_off_c, 1, 54, 100
3, 816192, Note_on_c, 1, 53, 80
3, 816380, Note_off_c, 1, 53, 100
3, 816384, Note_on_c, 1, 54, 80
3, 816572, Note_off_c, 1, 54, 100
3, 816576, Note_on_c, 1, 53, 80
3, 816764, Note_off_c, 1, 53, 100
3, 816768, Note_on_c, 1, 54, 80
3, 816956, Note_off_c, 1, 54, 100
3, 816960, Note_on_c, 1, 53, 80
3, 817148, Note_off_c, 1, 46, 100
3, 817148, Note_off_c, 1, 53, 100
3, 817536, Note_on_c, 1, 30, 80
3, 817724, Note_off_c, 1, 30, 100
3, 817728, Note_on_c, 1, 29, 80
3, 817916, Note_off_c, 1, 29, 100
3, 817920, Note_on_c, 1, 42, 110
3, 817920, Note_on_c, 1, 34, 110
3, 818108, Note_off_c, 1, 42, 100
3, 818112, Note_on_c, 1, 41, 110
3, 818300, Note_off_c, 1, 41, 100
3, 818304, Note_on_c, 1, 42, 110
3, 818492, Note_off_c, 1, 42, 100
3, 818496, Note_on_c, 1, 41, 110
3, 818684, Note_off_c, 1, 34, 100
3, 818684, Note_off_c, 1, 41, 100
3, 818688, Note_on_c, 1, 30, 80
3, 818876, Note_off_c, 1, 30, 100
3, 818880, Note_on_c, 1, 29, 80
3, 819068, Note_off_c, 1, 29, 100
3, 819072, Note_on_c, 1, 30, 80
3, 819260, Note_off_c, 1, 30, 100
3, 819264, Note_on_c, 1, 29, 80
3, 819452, Note_off_c, 1, 29, 100
3, 819456, Note_on_c, 1, 42, 110
3, 819456, Note_on_c, 1, 34, 110
3, 819644, Note_off_c, 1, 42, 100
3, 819648, Note_on_c, 1, 41, 110
3, 819836, Note_off_c, 1, 41, 100
3, 819840, Note_on_c, 1, 42, 110
3, 820028, Note_off_c, 1, 42, 100
3, 820032, Note_on_c, 1, 41, 110
3, 820220, Note_off_c, 1, 34, 100
3, 820220, Note_off_c, 1, 41, 100
3, 820224, Note_on_c, 1, 30, 80
3, 820412, Note_off_c, 1, 30, 100
3, 820416, Note_on_c, 1, 29, 80
3, 820604, Note_off_c, 1, 29, 100
3, 820608, Note_on_c, 1, 30, 80
3, 820796, Note_off_c, 1, 30, 100
3, 820800, Note_on_c, 1, 29, 80
3, 820988, Note_off_c, 1, 29, 100
3, 820992, Note_on_c, 1, 42, 110
3, 820992, Note_on_c, 1, 34, 110
3, 821180, Note_off_c, 1, 42, 100
3, 821184, Note_on_c, 1, 41, 110
3, 821372, Note_off_c, 1, 41, 100
3, 821376, Note_on_c, 1, 42, 110
3, 821564, Note_off_c, 1, 42, 100
3, 821568, Note_on_c, 1, 41, 110
3, 821756, Note_off_c, 1, 34, 100
3, 821756, Note_off_c, 1, 41, 100
3, 821760, Note_on_c, 1, 34, 80
3, 821760, Note_on_c, 1, 42, 80
3, 821948, Note_off_c, 1, 42, 100
3, 821952, Note_on_c, 1, 41, 80
3, 822140, Note_off_c, 1, 41, 100
3, 822144, Note_on_c, 1, 42, 80
3, 822332, Note_off_c, 1, 42, 100
3, 822336, Note_on_c, 1, 41, 80
3, 822524, Note_off_c, 1, 41, 100
3, 822528, Note_on_c, 1, 42, 80
3, 822716, Note_off_c, 1, 42, 100
3, 822720, Note_on_c, 1, 41, 80
3, 822908, Note_off_c, 1, 41, 100
3, 822912, Note_on_c, 1, 42, 80
3, 823100, Note_off_c, 1, 42, 100
3, 823104, Note_on_c, 1, 41, 80
3, 823292, Note_off_c, 1, 34, 100
3, 823292, Note_off_c, 1, 41, 100
3, 823296, Note_on_c, 1, 45, 80
3, 823484, Note_off_c, 1, 45, 100
3, 823488, Note_on_c, 1, 46, 80
3, 823676, Note_off_c, 1, 46, 100
3, 823680, Note_on_c, 1, 45, 80
3, 823868, Note_off_c, 1, 45, 100
3, 823872, Note_on_c, 1, 46, 80
3, 824060, Note_off_c, 1, 46, 100
3, 824064, Note_on_c, 1, 45, 79
3, 824252, Note_off_c, 1, 45, 100
3, 824256, Note_on_c, 1, 46, 79
3, 824444, Note_off_c, 1, 46, 100
3, 824448, Note_on_c, 1, 45, 79
3, 824636, Note_off_c, 1, 45, 100
3, 824640, Note_on_c, 1, 46, 79
3, 824828, Note_off_c, 1, 46, 100
3, 824832, Note_on_c, 1, 34, 78
3, 824832, Note_on_c, 1, 42, 78
3, 825020, Note_off_c, 1, 42, 100
3, 825024, Note_on_c, 1, 41, 78
3, 825212, Note_off_c, 1, 41, 100
3, 825216, Note_on_c, 1, 42, 78
3, 825404, Note_off_c, 1, 42, 100
3, 825408, Note_on_c, 1, 41, 78
3, 825596, Note_off_c, 1, 41, 100
3, 825600, Note_on_c, 1, 42, 77
3, 825788, Note_off_c, 1, 42, 100
3, 825792, Note_on_c, 1, 41, 77
3, 825980, Note_off_c, 1, 41, 100
3, 825984, Note_on_c, 1, 42, 77
3, 826172, Note_off_c, 1, 42, 100
3, 826176, Note_on_c, 1, 41, 77
3, 826364, Note_off_c, 1, 34, 100
3, 826364, Note_off_c, 1, 41, 100
3, 826368, Note_on_c, 1, 33, 76
3, 826556, Note_off_c, 1, 33, 100
3, 826560, Note_on_c, 1, 34, 76
3, 826748, Note_off_c, 1, 34, 100
3, 826752, Note_on_c, 1, 33, 76
3, 826940, Note_off_c, 1, 33, 100
3, 826944, Note_on_c, 1, 34, 76
3, 827132, Note_off_c, 1, 34, 100
3, 827136, Note_on_c, 1, 33, 75
3, 827324, Note_off_c, 1, 33, 100
3, 827328, Note_on_c, 1, 34, 75
3, 827516, Note_off_c, 1, 34, 100
3, 827520, Note_on_c, 1, 33, 75
3, 827708, Note_off_c, 1, 33, 100
3, 827712, Note_on_c, 1, 34, 75
3, 827900, Note_off_c, 1, 34, 100
3, 827904, Note_on_c, 1, 30, 74
3, 828092, Note_off_c, 1, 30, 100
3, 828096, Note_on_c, 1, 29, 74
3, 828284, Note_off_c, 1, 29, 100
3, 828288, Note_on_c, 1, 30, 74
3, 828476, Note_off_c, 1, 30, 100
3, 828480, Note_on_c, 1, 29, 74
3, 828668, Note_off_c, 1, 29, 100
3, 828672, Note_on_c, 1, 30, 73
3, 828860, Note_off_c, 1, 30, 100
3, 828864, Note_on_c, 1, 29, 73
3, 829052, Note_off_c, 1, 29, 100
3, 829056, Note_on_c, 1, 34, 73
3, 829056, Note_on_c, 1, 41, 73
3, 829244, Note_off_c, 1, 34, 100
3, 829244, Note_off_c, 1, 41, 100
3, 829248, Note_on_c, 1, 29, 73
3, 829436, Note_off_c, 1, 29, 100
3, 829440, Control_c, 1, 64, 127
3, 829440, Note_on_c, 1, 41, 70
3, 829440, Note_on_c, 1, 34, 70
3, 829628, Note_off_c, 1, 41, 100
3, 829628, Note_off_c, 1, 34, 100
3, 829632, Note_on_c, 1, 29, 69
3, 829820, Note_off_c, 1, 29, 100
3, 829824, Note_on_c, 1, 41, 68
3, 829824, Note_on_c, 1, 34, 68
3, 830012, Note_off_c, 1, 41, 100
3, 830012, Note_off_c, 1, 34, 100
3, 830016, Note_on_c, 1, 29, 66
3, 830204, Note_off_c, 1, 29, 100
3, 830208, Note_on_c, 1, 41, 65
3, 830208, Note_on_c, 1, 34, 65
3, 830396, Note_off_c, 1, 41, 100
3, 830396, Note_off_c, 1, 34, 100
3, 830400, Note_on_c, 1, 29, 63
3, 830588, Note_off_c, 1, 29, 100
3, 830592, Note_on_c, 1, 41, 62
3, 830592, Note_on_c, 1, 34, 62
3, 830780, Note_off_c, 1, 41, 100
3, 830780, Note_off_c, 1, 34, 100
3, 830784, Note_on_c, 1, 29, 61
3, 830968, Control_c, 1, 64, 0
3, 830972, Note_off_c, 1, 29, 100
3, 830976, Control_c, 1, 64, 127
3, 830976, Note_on_c, 1, 41, 60
3, 831164, Note_off_c, 1, 41, 100
3, 831168, Note_on_c, 1, 34, 60
3, 831356, Note_off_c, 1, 34, 100
3, 831360, Note_on_c, 1, 41, 60
3, 831548, Note_off_c, 1, 41, 100
3, 831552, Note_on_c, 1, 34, 60
3, 831740, Note_off_c, 1, 34, 100
3, 831744, Note_on_c, 1, 41, 60
3, 831932, Note_off_c, 1, 41, 100
3, 831936, Note_on_c, 1, 34, 60
3, 832124, Note_off_c, 1, 34, 100
3, 832128, Note_on_c, 1, 41, 60
3, 832128, Note_on_c, 1, 46, 60
3, 832316, Note_off_c, 1, 41, 100
3, 832316, Note_off_c, 1, 46, 100
3, 832320, Note_on_c, 1, 34, 67
3, 832508, Note_off_c, 1, 34, 100
3, 832512, Note_on_c, 1, 41, 75
3, 832512, Note_on_c, 1, 46, 75
3, 832700, Note_off_c, 1, 41, 100
3, 832700, Note_off_c, 1, 46, 100
3, 832704, Note_on_c, 1, 34, 83
3, 832892, Note_off_c, 1, 34, 100
3, 832896, Note_on_c, 1, 41, 91
3, 832896, Note_on_c, 1, 46, 91
3, 833084, Note_off_c, 1, 41, 100
3, 833084, Note_off_c, 1, 46, 100
3, 833088, Note_on_c, 1, 34, 99
3, 833276, Note_off_c, 1, 34, 100
3, 833280, Note_on_c, 1, 58, 120
3, 833280, Note_on_c, 1, 53, 120
3, 833280, Note_on_c, 1, 50, 120
3, 833280, Note_on_c, 1, 46, 120
3, 834044, Note_off_c, 1, 58, 100
3, 834044, Note_off_c, 1, 53, 100
3, 834044, Note_off_c, 1, 50, 100
3, 834044, Note_off_c, 1, 46, 100
3, 834048, Note_on_c, 1, 46, 120
3, 834048, Note_on_c, 1, 34, 120
3, 835576, Control_c, 1, 64, 0
3, 835580, Note_off_c, 1, 46, 100
3, 835580, Note_off_c, 1, 34, 100
3, 835580, End_track
0, 0, End_of_file
