0, 0, Header, 1, 3, 384
1, 0, Start_track
1, 0, Title_t, "L.v.Beethoven 2mov - Piano Sonata No.30 in E Major Op.109\000"
1, 0, Copyright_t, "Copyright(C) 1995-2009, Suzuki Software\000"
1, 0, Sequencer_specific, 9, 67, 123, 0, 88, 70, 48, 50, 0, 1
1, 0, Text_t, "XFhd:2000/10/14:JP:Classical::::L.v.Beethoven:::Kaoru Suzuki\000"
1, 0, Text_t, "XFln:JP:\203s\203A\203m\203\\\203i\203^\221æ30\224Ô\203z\222·\222²\215ì\225i109\201`\221æ2\212y\217Í:L.v.\203x\201[\203g\201[\203\224\203F\203\223:::\227é\202¿\202á\202ñ:\227é\202¿\202á\202ñ\000"
1, 0, Time_signature, 3, 2, 96, 8
1, 0, Sequencer_specific, 3, 0, 0, 65
1, 0, Sequencer_specific, 5, 0, 0, 119, 14, 0
1, 0, Tempo, 240000
1, 768, Tempo, 222222
1, 25728, Tempo, 230769
1, 26112, Tempo, 240000
1, 26496, Tempo, 250000
1, 26880, Tempo, 285714
1, 27648, Tempo, 279069
1, 34560, Tempo, 260869
1, 35712, Tempo, 250000
1, 36864, Tempo, 222222
1, 104832, Tempo, 235294
1, 105984, Tempo, 250000
1, 108288, Tempo, 272727
1, 108864, Tempo, 300000
1, 109440, Tempo, 500000
1, 110592, Tempo, 250000
1, 117504, Tempo, 260869
1, 118656, Tempo, 285714
1, 119808, Tempo, 240000
1, 120576, Tempo, 222222
1, 135936, Tempo, 230769
1, 136512, Tempo, 260869
1, 137088, Tempo, 250000
1, 139392, Tempo, 272727
1, 141120, Tempo, 300000
1, 141696, Tempo, 240000
1, 142080, Tempo, 222222
1, 163584, Tempo, 230769
1, 163968, Tempo, 240000
1, 164352, Tempo, 250000
1, 164736, Tempo, 240000
1, 165120, Tempo, 230769
1, 165504, Tempo, 222222
1, 192384, Tempo, 230769
1, 192960, Tempo, 250000
1, 194688, Tempo, 240000
1, 195264, Tempo, 222222
1, 201600, Tempo, 240000
1, 202176, Tempo, 260869
1, 202176, End_track
2, 0, Start_track
2, 0, Title_t, "Right"
2, 0, Control_c, 0, 0, 0
2, 0, Program_c, 0, 0
2, 0, Control_c, 0, 7, 100
2, 0, Control_c, 0, 10, 82
2, 0, Control_c, 0, 91, 127
2, 0, Key_signature, 1, "minor"
2, 0, Note_on_c, 0, 67, 120
2, 764, Note_off_c, 0, 67, 100
2, 768, Note_on_c, 0, 64, 120
2, 956, Note_off_c, 0, 64, 100
2, 960, Note_on_c, 0, 71, 120
2, 1148, Note_off_c, 0, 71, 100
2, 1152, Note_on_c, 0, 71, 120
2, 1916, Note_off_c, 0, 71, 100
2, 1920, Note_on_c, 0, 67, 120
2, 2108, Note_off_c, 0, 67, 100
2, 2112, Note_on_c, 0, 76, 120
2, 2300, Note_off_c, 0, 76, 100
2, 2304, Note_on_c, 0, 76, 120
2, 2684, Note_off_c, 0, 76, 100
2, 2688, Note_on_c, 0, 78, 120
2, 2876, Note_off_c, 0, 78, 100
2, 2880, Note_on_c, 0, 72, 120
2, 2880, Note_on_c, 0, 79, 120
2, 3260, Note_off_c, 0, 79, 100
2, 3264, Note_on_c, 0, 78, 120
2, 3452, Note_off_c, 0, 72, 100
2, 3452, Note_off_c, 0, 78, 100
2, 3456, Note_on_c, 0, 76, 120
2, 4028, Note_off_c, 0, 76, 100
2, 4032, Note_on_c, 0, 75, 120
2, 4604, Note_off_c, 0, 75, 100
2, 4608, Note_on_c, 0, 72, 120
2, 5372, Note_off_c, 0, 72, 100
2, 5376, Note_on_c, 0, 69, 120
2, 5564, Note_off_c, 0, 69, 100
2, 5568, Note_on_c, 0, 76, 120
2, 5756, Note_off_c, 0, 76, 100
2, 5760, Note_on_c, 0, 76, 120
2, 6524, Note_off_c, 0, 76, 100
2, 6528, Note_on_c, 0, 71, 120
2, 6716, Note_off_c, 0, 71, 100
2, 6720, Note_on_c, 0, 83, 120
2, 6908, Note_off_c, 0, 83, 100
2, 6912, Note_on_c, 0, 83, 120
2, 6912, Note_on_c, 0, 76, 120
2, 7100, Note_off_c, 0, 83, 100
2, 7104, Note_on_c, 0, 84, 120
2, 7292, Note_off_c, 0, 84, 100
2, 7296, Note_on_c, 0, 81, 120
2, 7484, Note_off_c, 0, 76, 100
2, 7484, Note_off_c, 0, 81, 100
2, 7488, Note_on_c, 0, 79, 120
2, 7488, Note_on_c, 0, 75, 120
2, 7676, Note_off_c, 0, 79, 100
2, 7680, Note_on_c, 0, 78, 120
2, 7868, Note_off_c, 0, 78, 100
2, 7872, Note_on_c, 0, 83, 120
2, 8060, Note_off_c, 0, 75, 100
2, 8060, Note_off_c, 0, 83, 100
2, 8064, Note_on_c, 0, 76, 120
2, 8444, Note_off_c, 0, 76, 100
2, 9216, Note_on_c, 0, 69, 80
2, 9980, Note_off_c, 0, 69, 100
2, 9984, Note_on_c, 0, 67, 80
2, 10172, Note_off_c, 0, 67, 100
2, 10176, Note_on_c, 0, 66, 80
2, 10364, Note_off_c, 0, 66, 100
2, 10368, Note_on_c, 0, 71, 80
2, 11132, Note_off_c, 0, 71, 100
2, 11136, Note_on_c, 0, 69, 80
2, 11324, Note_off_c, 0, 69, 100
2, 11328, Note_on_c, 0, 67, 80
2, 11516, Note_off_c, 0, 67, 100
2, 11520, Note_on_c, 0, 72, 80
2, 11520, Note_on_c, 0, 66, 80
2, 11900, Note_off_c, 0, 72, 100
2, 11904, Note_on_c, 0, 78, 87
2, 12092, Note_off_c, 0, 66, 100
2, 12096, Note_on_c, 0, 67, 91
2, 12476, Note_off_c, 0, 78, 100
2, 12480, Note_on_c, 0, 76, 99
2, 12668, Note_off_c, 0, 67, 100
2, 12668, Note_off_c, 0, 76, 100
2, 12672, Note_on_c, 0, 75, 100
2, 12672, Note_on_c, 0, 66, 100
2, 13052, Note_off_c, 0, 75, 100
2, 13056, Note_on_c, 0, 78, 93
2, 13244, Note_off_c, 0, 66, 100
2, 13244, Note_off_c, 0, 78, 100
2, 13248, Note_on_c, 0, 79, 89
2, 13248, Note_on_c, 0, 67, 89
2, 13628, Note_off_c, 0, 79, 100
2, 13632, Note_on_c, 0, 76, 81
2, 13820, Note_off_c, 0, 67, 100
2, 13820, Note_off_c, 0, 76, 100
2, 13824, Note_on_c, 0, 69, 80
2, 14588, Note_off_c, 0, 69, 100
2, 14592, Note_on_c, 0, 67, 80
2, 14780, Note_off_c, 0, 67, 100
2, 14784, Note_on_c, 0, 66, 80
2, 14972, Note_off_c, 0, 66, 100
2, 14976, Note_on_c, 0, 71, 80
2, 15740, Note_off_c, 0, 71, 100
2, 15744, Note_on_c, 0, 69, 80
2, 15932, Note_off_c, 0, 69, 100
2, 15936, Note_on_c, 0, 67, 80
2, 16124, Note_off_c, 0, 67, 100
2, 16128, Note_on_c, 0, 72, 80
2, 16128, Note_on_c, 0, 66, 80
2, 16508, Note_off_c, 0, 72, 100
2, 16512, Note_on_c, 0, 78, 87
2, 16700, Note_off_c, 0, 66, 100
2, 16704, Note_on_c, 0, 67, 91
2, 17084, Note_off_c, 0, 78, 100
2, 17088, Note_on_c, 0, 76, 99
2, 17276, Note_off_c, 0, 67, 100
2, 17276, Note_off_c, 0, 76, 100
2, 17280, Note_on_c, 0, 75, 100
2, 17280, Note_on_c, 0, 66, 100
2, 17660, Note_off_c, 0, 75, 100
2, 17664, Note_on_c, 0, 78, 93
2, 17852, Note_off_c, 0, 66, 100
2, 17852, Note_off_c, 0, 78, 100
2, 17856, Note_on_c, 0, 76, 89
2, 17856, Note_on_c, 0, 67, 89
2, 18044, Note_off_c, 0, 76, 100
2, 18044, Note_off_c, 0, 67, 100
2, 18048, Note_on_c, 0, 66, 85
2, 18236, Note_off_c, 0, 66, 100
2, 18240, Note_on_c, 0, 67, 81
2, 18428, Note_off_c, 0, 67, 100
2, 18432, Note_on_c, 0, 69, 80
2, 18624, Note_on_c, 0, 66, 80
2, 18812, Note_off_c, 0, 66, 100
2, 18816, Note_on_c, 0, 64, 80
2, 19004, Note_off_c, 0, 64, 100
2, 19008, Note_on_c, 0, 63, 80
2, 19196, Note_off_c, 0, 69, 100
2, 19200, Note_on_c, 0, 67, 80
2, 19388, Note_off_c, 0, 63, 100
2, 19388, Note_off_c, 0, 67, 100
2, 19392, Note_on_c, 0, 66, 80
2, 19580, Note_off_c, 0, 66, 100
2, 19584, Note_on_c, 0, 71, 80
2, 19776, Note_on_c, 0, 67, 80
2, 19964, Note_off_c, 0, 67, 100
2, 19968, Note_on_c, 0, 66, 80
2, 20156, Note_off_c, 0, 66, 100
2, 20160, Note_on_c, 0, 64, 80
2, 20348, Note_off_c, 0, 71, 100
2, 20352, Note_on_c, 0, 69, 80
2, 20540, Note_off_c, 0, 64, 100
2, 20540, Note_off_c, 0, 69, 100
2, 20544, Note_on_c, 0, 67, 80
2, 20732, Note_off_c, 0, 67, 100
2, 20736, Note_on_c, 0, 72, 80
2, 20736, Note_on_c, 0, 66, 80
2, 21116, Note_off_c, 0, 72, 100
2, 21120, Note_on_c, 0, 78, 87
2, 21308, Note_off_c, 0, 66, 100
2, 21312, Note_on_c, 0, 67, 91
2, 21692, Note_off_c, 0, 78, 100
2, 21696, Note_on_c, 0, 76, 99
2, 21884, Note_off_c, 0, 67, 100
2, 21884, Note_off_c, 0, 76, 100
2, 21888, Note_on_c, 0, 75, 100
2, 21888, Note_on_c, 0, 66, 100
2, 22268, Note_off_c, 0, 75, 100
2, 22272, Note_on_c, 0, 78, 93
2, 22460, Note_off_c, 0, 66, 100
2, 22460, Note_off_c, 0, 78, 100
2, 22464, Note_on_c, 0, 79, 89
2, 22464, Note_on_c, 0, 67, 89
2, 22844, Note_off_c, 0, 79, 100
2, 22848, Note_on_c, 0, 76, 81
2, 23036, Note_off_c, 0, 67, 100
2, 23036, Note_off_c, 0, 76, 100
2, 23040, Note_on_c, 0, 69, 80
2, 23232, Note_on_c, 0, 66, 80
2, 23420, Note_off_c, 0, 66, 100
2, 23424, Note_on_c, 0, 64, 80
2, 23612, Note_off_c, 0, 64, 100
2, 23616, Note_on_c, 0, 63, 80
2, 23804, Note_off_c, 0, 69, 100
2, 23808, Note_on_c, 0, 67, 80
2, 23996, Note_off_c, 0, 63, 100
2, 23996, Note_off_c, 0, 67, 100
2, 24000, Note_on_c, 0, 66, 80
2, 24188, Note_off_c, 0, 66, 100
2, 24192, Note_on_c, 0, 71, 80
2, 24384, Note_on_c, 0, 67, 80
2, 24572, Note_off_c, 0, 67, 100
2, 24576, Note_on_c, 0, 66, 80
2, 24764, Note_off_c, 0, 66, 100
2, 24768, Note_on_c, 0, 64, 80
2, 24956, Note_off_c, 0, 71, 100
2, 24960, Note_on_c, 0, 69, 80
2, 25148, Note_off_c, 0, 64, 100
2, 25148, Note_off_c, 0, 69, 100
2, 25152, Note_on_c, 0, 67, 80
2, 25340, Note_off_c, 0, 67, 100
2, 25344, Note_on_c, 0, 72, 80
2, 25344, Note_on_c, 0, 66, 80
2, 25724, Note_off_c, 0, 72, 100
2, 25728, Note_on_c, 0, 78, 87
2, 25916, Note_off_c, 0, 66, 100
2, 25920, Note_on_c, 0, 67, 91
2, 26300, Note_off_c, 0, 78, 100
2, 26304, Note_on_c, 0, 76, 99
2, 26492, Note_off_c, 0, 67, 100
2, 26492, Note_off_c, 0, 76, 100
2, 26496, Note_on_c, 0, 75, 80
2, 26496, Note_on_c, 0, 66, 80
2, 26876, Note_off_c, 0, 75, 100
2, 26880, Note_on_c, 0, 78, 100
2, 27068, Note_off_c, 0, 66, 100
2, 27068, Note_off_c, 0, 78, 100
2, 27072, Note_on_c, 0, 76, 81
2, 27072, Note_on_c, 0, 67, 81
2, 27452, Note_off_c, 0, 76, 100
2, 27452, Note_off_c, 0, 67, 100
2, 27648, Note_on_c, 0, 55, 80
2, 28028, Note_off_c, 0, 55, 100
2, 28032, Note_on_c, 0, 54, 80
2, 28220, Note_off_c, 0, 54, 100
2, 28224, Note_on_c, 0, 51, 80
2, 28604, Note_off_c, 0, 51, 100
2, 28608, Note_on_c, 0, 52, 80
2, 28796, Note_off_c, 0, 52, 100
2, 28800, Note_on_c, 0, 47, 80
2, 29372, Note_off_c, 0, 47, 100
2, 29376, Note_on_c, 0, 47, 80
2, 29756, Note_off_c, 0, 47, 100
2, 29760, Note_on_c, 0, 47, 80
2, 29948, Note_off_c, 0, 47, 100
2, 29952, Note_on_c, 0, 47, 80
2, 30524, Note_off_c, 0, 47, 100
2, 30528, Note_on_c, 0, 45, 80
2, 30908, Note_off_c, 0, 45, 100
2, 30912, Note_on_c, 0, 47, 80
2, 31100, Note_off_c, 0, 47, 100
2, 31104, Note_on_c, 0, 48, 80
2, 31676, Note_off_c, 0, 48, 100
2, 31680, Note_on_c, 0, 47, 80
2, 32252, Note_off_c, 0, 47, 100
2, 32256, Note_on_c, 0, 79, 80
2, 32636, Note_off_c, 0, 79, 100
2, 32640, Note_on_c, 0, 78, 80
2, 32828, Note_off_c, 0, 78, 100
2, 32832, Note_on_c, 0, 75, 80
2, 33212, Note_off_c, 0, 75, 100
2, 33216, Note_on_c, 0, 76, 80
2, 33404, Note_off_c, 0, 76, 100
2, 33408, Note_on_c, 0, 71, 80
2, 33792, Note_on_c, 0, 69, 80
2, 33980, Note_off_c, 0, 71, 100
2, 33980, Note_off_c, 0, 69, 100
2, 33984, Note_on_c, 0, 71, 80
2, 33984, Note_on_c, 0, 67, 80
2, 34364, Note_off_c, 0, 71, 100
2, 34364, Note_off_c, 0, 67, 100
2, 34368, Note_on_c, 0, 71, 80
2, 34368, Note_on_c, 0, 66, 80
2, 34556, Note_off_c, 0, 71, 100
2, 34556, Note_off_c, 0, 66, 100
2, 34560, Note_on_c, 0, 71, 80
2, 34560, Note_on_c, 0, 67, 80
2, 34940, Note_off_c, 0, 67, 100
2, 34944, Note_on_c, 0, 66, 80
2, 35132, Note_off_c, 0, 71, 100
2, 35132, Note_off_c, 0, 66, 100
2, 35136, Note_on_c, 0, 70, 80
2, 35136, Note_on_c, 0, 64, 80
2, 35516, Note_off_c, 0, 70, 100
2, 35516, Note_off_c, 0, 64, 100
2, 35520, Note_on_c, 0, 71, 80
2, 35520, Note_on_c, 0, 62, 80
2, 35708, Note_off_c, 0, 71, 100
2, 35708, Note_off_c, 0, 62, 100
2, 35712, Note_on_c, 0, 73, 80
2, 35712, Note_on_c, 0, 61, 80
2, 36284, Note_off_c, 0, 73, 100
2, 36284, Note_off_c, 0, 61, 100
2, 36288, Note_on_c, 0, 74, 80
2, 36288, Note_on_c, 0, 71, 80
2, 36860, Note_off_c, 0, 74, 100
2, 36864, Note_on_c, 0, 73, 80
2, 37052, Note_off_c, 0, 71, 100
2, 37056, Note_on_c, 0, 66, 80
2, 37244, Note_off_c, 0, 66, 100
2, 37248, Note_on_c, 0, 70, 80
2, 37436, Note_off_c, 0, 70, 100
2, 37440, Note_on_c, 0, 66, 80
2, 37628, Note_off_c, 0, 73, 100
2, 37632, Note_on_c, 0, 74, 80
2, 37820, Note_off_c, 0, 74, 100
2, 37824, Note_on_c, 0, 76, 80
2, 38012, Note_off_c, 0, 76, 100
2, 38016, Note_on_c, 0, 74, 80
2, 38204, Note_off_c, 0, 66, 100
2, 38208, Note_on_c, 0, 66, 80
2, 38396, Note_off_c, 0, 66, 100
2, 38400, Note_on_c, 0, 71, 80
2, 38588, Note_off_c, 0, 71, 100
2, 38592, Note_on_c, 0, 66, 80
2, 38780, Note_off_c, 0, 74, 100
2, 38784, Note_on_c, 0, 76, 80
2, 38972, Note_off_c, 0, 76, 100
2, 38976, Note_on_c, 0, 78, 80
2, 39164, Note_off_c, 0, 78, 100
2, 39168, Note_on_c, 0, 76, 80
2, 39548, Note_off_c, 0, 76, 100
2, 39552, Note_on_c, 0, 78, 81
2, 39740, Note_off_c, 0, 66, 100
2, 39740, Note_off_c, 0, 78, 100
2, 39744, Note_on_c, 0, 79, 82
2, 39744, Note_on_c, 0, 70, 82
2, 40124, Note_off_c, 0, 79, 100
2, 40124, Note_off_c, 0, 70, 100
2, 40128, Note_on_c, 0, 78, 84
2, 40128, Note_on_c, 0, 71, 84
2, 40316, Note_off_c, 0, 78, 100
2, 40316, Note_off_c, 0, 71, 100
2, 40320, Note_on_c, 0, 76, 85
2, 40320, Note_on_c, 0, 73, 85
2, 40508, Note_off_c, 0, 73, 100
2, 40512, Note_on_c, 0, 66, 85
2, 40700, Note_off_c, 0, 76, 100
2, 40704, Note_on_c, 0, 74, 86
2, 40892, Note_off_c, 0, 74, 100
2, 40896, Note_on_c, 0, 73, 87
2, 41276, Note_off_c, 0, 73, 100
2, 41280, Note_on_c, 0, 74, 89
2, 41468, Note_off_c, 0, 66, 100
2, 41468, Note_off_c, 0, 74, 100
2, 41472, Note_on_c, 0, 73, 90
2, 41664, Note_on_c, 0, 70, 91
2, 41852, Note_off_c, 0, 70, 100
2, 41856, Note_on_c, 0, 66, 91
2, 42044, Note_off_c, 0, 73, 100
2, 42048, Note_on_c, 0, 73, 92
2, 42236, Note_off_c, 0, 73, 100
2, 42240, Note_on_c, 0, 74, 93
2, 42428, Note_off_c, 0, 74, 100
2, 42432, Note_on_c, 0, 76, 94
2, 42620, Note_off_c, 0, 66, 100
2, 42620, Note_off_c, 0, 76, 100
2, 42624, Note_on_c, 0, 74, 95
2, 42816, Note_on_c, 0, 71, 96
2, 43004, Note_off_c, 0, 71, 100
2, 43008, Note_on_c, 0, 66, 97
2, 43196, Note_off_c, 0, 74, 100
2, 43200, Note_on_c, 0, 74, 97
2, 43388, Note_off_c, 0, 74, 100
2, 43392, Note_on_c, 0, 76, 98
2, 43580, Note_off_c, 0, 76, 100
2, 43584, Note_on_c, 0, 78, 99
2, 43772, Note_off_c, 0, 78, 100
2, 43776, Note_on_c, 0, 76, 100
2, 44156, Note_off_c, 0, 66, 100
2, 44156, Note_off_c, 0, 76, 100
2, 44160, Note_on_c, 0, 78, 102
2, 44160, Note_on_c, 0, 66, 102
2, 44348, Note_off_c, 0, 78, 100
2, 44348, Note_off_c, 0, 66, 100
2, 44352, Note_on_c, 0, 67, 102
2, 44352, Note_on_c, 0, 79, 102
2, 44732, Note_off_c, 0, 67, 100
2, 44732, Note_off_c, 0, 79, 100
2, 44736, Note_on_c, 0, 78, 104
2, 44736, Note_on_c, 0, 66, 104
2, 44924, Note_off_c, 0, 78, 100
2, 44924, Note_off_c, 0, 66, 100
2, 44928, Note_on_c, 0, 79, 105
2, 44928, Note_on_c, 0, 67, 105
2, 45308, Note_off_c, 0, 79, 100
2, 45308, Note_off_c, 0, 67, 100
2, 45312, Note_on_c, 0, 82, 107
2, 45312, Note_on_c, 0, 70, 107
2, 45500, Note_off_c, 0, 82, 100
2, 45500, Note_off_c, 0, 70, 100
2, 45504, Note_on_c, 0, 83, 108
2, 45504, Note_on_c, 0, 71, 108
2, 45884, Note_off_c, 0, 83, 100
2, 45884, Note_off_c, 0, 71, 100
2, 45888, Note_on_c, 0, 82, 109
2, 45888, Note_on_c, 0, 70, 109
2, 46076, Note_off_c, 0, 82, 100
2, 46076, Note_off_c, 0, 70, 100
2, 46080, Note_on_c, 0, 83, 110
2, 46080, Note_on_c, 0, 71, 110
2, 46460, Note_off_c, 0, 83, 100
2, 46460, Note_off_c, 0, 71, 100
2, 46464, Note_on_c, 0, 85, 112
2, 46464, Note_on_c, 0, 73, 112
2, 46652, Note_off_c, 0, 85, 100
2, 46652, Note_off_c, 0, 73, 100
2, 46656, Note_on_c, 0, 86, 113
2, 46656, Note_on_c, 0, 74, 113
2, 47036, Note_off_c, 0, 86, 100
2, 47036, Note_off_c, 0, 74, 100
2, 47040, Note_on_c, 0, 85, 114
2, 47040, Note_on_c, 0, 73, 114
2, 47228, Note_off_c, 0, 85, 100
2, 47228, Note_off_c, 0, 73, 100
2, 47232, Note_on_c, 0, 86, 115
2, 47232, Note_on_c, 0, 74, 115
2, 47612, Note_off_c, 0, 86, 100
2, 47612, Note_off_c, 0, 74, 100
2, 47616, Note_on_c, 0, 85, 117
2, 47616, Note_on_c, 0, 73, 117
2, 47804, Note_off_c, 0, 85, 100
2, 47804, Note_off_c, 0, 73, 100
2, 47808, Note_on_c, 0, 86, 118
2, 47808, Note_on_c, 0, 74, 118
2, 48188, Note_off_c, 0, 86, 100
2, 48188, Note_off_c, 0, 74, 100
2, 48192, Note_on_c, 0, 86, 119
2, 48192, Note_on_c, 0, 78, 119
2, 48380, Note_off_c, 0, 78, 100
2, 48384, Note_on_c, 0, 77, 80
2, 48764, Note_off_c, 0, 86, 100
2, 48764, Note_off_c, 0, 77, 100
2, 48768, Note_on_c, 0, 74, 80
2, 49148, Note_off_c, 0, 74, 100
2, 49152, Note_on_c, 0, 73, 80
2, 49340, Note_off_c, 0, 73, 100
2, 49344, Note_on_c, 0, 71, 80
2, 49532, Note_off_c, 0, 71, 100
2, 49536, Note_on_c, 0, 71, 80
2, 49916, Note_off_c, 0, 71, 100
2, 49920, Note_on_c, 0, 68, 80
2, 50108, Note_off_c, 0, 68, 100
2, 50112, Note_on_c, 0, 69, 80
2, 50492, Note_off_c, 0, 69, 100
2, 50496, Note_on_c, 0, 78, 80
2, 51068, Note_off_c, 0, 78, 100
2, 51072, Note_on_c, 0, 72, 80
2, 51260, Note_off_c, 0, 72, 100
2, 51264, Note_on_c, 0, 71, 80
2, 51644, Note_off_c, 0, 71, 100
2, 51648, Note_on_c, 0, 69, 80
2, 51836, Note_off_c, 0, 69, 100
2, 51840, Note_on_c, 0, 69, 80
2, 52220, Note_off_c, 0, 69, 100
2, 52224, Note_on_c, 0, 66, 80
2, 52412, Note_off_c, 0, 66, 100
2, 52416, Note_on_c, 0, 67, 80
2, 52796, Note_off_c, 0, 67, 100
2, 52800, Note_on_c, 0, 76, 80
2, 53372, Note_off_c, 0, 76, 100
2, 53376, Note_on_c, 0, 70, 80
2, 53756, Note_off_c, 0, 70, 100
2, 53760, Note_on_c, 0, 69, 80
2, 53948, Note_off_c, 0, 69, 100
2, 53952, Note_on_c, 0, 67, 80
2, 54140, Note_off_c, 0, 67, 100
2, 54144, Note_on_c, 0, 67, 80
2, 54524, Note_off_c, 0, 67, 100
2, 54528, Note_on_c, 0, 64, 80
2, 54716, Note_off_c, 0, 64, 100
2, 54720, Note_on_c, 0, 65, 80
2, 55100, Note_off_c, 0, 65, 100
2, 55104, Note_on_c, 0, 77, 80
2, 56828, Note_off_c, 0, 77, 100
2, 56832, Note_on_c, 0, 76, 80
2, 57020, Note_off_c, 0, 76, 100
2, 57024, Note_on_c, 0, 74, 80
2, 57404, Note_off_c, 0, 74, 100
2, 57408, Note_on_c, 0, 79, 80
2, 57596, Note_off_c, 0, 79, 100
2, 58176, Note_on_c, 0, 79, 80
2, 58556, Note_off_c, 0, 79, 100
2, 58560, Note_on_c, 0, 74, 80
2, 58748, Note_off_c, 0, 74, 100
2, 58752, Note_on_c, 0, 79, 80
2, 59132, Note_off_c, 0, 79, 100
2, 59328, Note_on_c, 0, 79, 80
2, 59708, Note_off_c, 0, 79, 100
2, 60480, Note_on_c, 0, 91, 70
2, 60860, Note_off_c, 0, 91, 100
2, 60864, Note_on_c, 0, 86, 70
2, 61052, Note_off_c, 0, 86, 100
2, 61056, Note_on_c, 0, 91, 70
2, 61436, Note_off_c, 0, 91, 100
2, 61632, Note_on_c, 0, 91, 70
2, 62012, Note_off_c, 0, 91, 100
2, 62208, Note_on_c, 0, 59, 70
2, 62396, Note_off_c, 0, 59, 100
2, 62400, Note_on_c, 0, 62, 73
2, 62588, Note_off_c, 0, 62, 100
2, 62592, Note_on_c, 0, 60, 77
2, 62780, Note_off_c, 0, 60, 100
2, 62784, Note_on_c, 0, 59, 80
2, 62784, Note_on_c, 0, 67, 80
2, 62972, Note_off_c, 0, 59, 100
2, 62976, Note_on_c, 0, 58, 84
2, 63164, Note_off_c, 0, 67, 100
2, 63164, Note_off_c, 0, 58, 100
2, 63168, Note_on_c, 0, 59, 88
2, 63168, Note_on_c, 0, 62, 88
2, 63356, Note_off_c, 0, 59, 100
2, 63356, Note_off_c, 0, 62, 100
2, 63360, Note_on_c, 0, 66, 91
2, 63360, Note_on_c, 0, 62, 91
2, 63548, Note_off_c, 0, 62, 100
2, 63552, Note_on_c, 0, 59, 95
2, 63740, Note_off_c, 0, 66, 100
2, 63740, Note_off_c, 0, 59, 100
2, 63744, Note_on_c, 0, 54, 99
2, 63932, Note_off_c, 0, 54, 100
2, 63936, Note_on_c, 0, 66, 102
2, 63936, Note_on_c, 0, 61, 102
2, 64124, Note_off_c, 0, 61, 100
2, 64128, Note_on_c, 0, 58, 106
2, 64316, Note_off_c, 0, 66, 100
2, 64316, Note_off_c, 0, 58, 100
2, 64320, Note_on_c, 0, 54, 109
2, 64508, Note_off_c, 0, 54, 100
2, 64512, Note_on_c, 0, 54, 110
2, 64700, Note_off_c, 0, 54, 100
2, 64704, Note_on_c, 0, 56, 110
2, 64892, Note_off_c, 0, 56, 100
2, 64896, Note_on_c, 0, 58, 110
2, 65084, Note_off_c, 0, 58, 100
2, 65088, Note_on_c, 0, 59, 110
2, 65276, Note_off_c, 0, 59, 100
2, 65280, Note_on_c, 0, 61, 110
2, 65468, Note_off_c, 0, 61, 100
2, 65472, Note_on_c, 0, 62, 110
2, 65660, Note_off_c, 0, 62, 100
2, 65664, Note_on_c, 0, 64, 110
2, 65852, Note_off_c, 0, 64, 100
2, 65856, Note_on_c, 0, 66, 110
2, 66044, Note_off_c, 0, 66, 100
2, 66048, Note_on_c, 0, 68, 110
2, 66236, Note_off_c, 0, 68, 100
2, 66240, Note_on_c, 0, 70, 110
2, 66428, Note_off_c, 0, 70, 100
2, 66432, Note_on_c, 0, 71, 110
2, 66620, Note_off_c, 0, 71, 100
2, 66624, Note_on_c, 0, 73, 110
2, 66812, Note_off_c, 0, 73, 100
2, 66816, Note_on_c, 0, 74, 110
2, 67004, Note_off_c, 0, 74, 100
2, 67008, Note_on_c, 0, 76, 110
2, 67196, Note_off_c, 0, 76, 100
2, 67200, Note_on_c, 0, 78, 110
2, 67388, Note_off_c, 0, 78, 100
2, 67392, Note_on_c, 0, 80, 110
2, 67580, Note_off_c, 0, 80, 100
2, 67584, Note_on_c, 0, 81, 110
2, 67772, Note_off_c, 0, 81, 100
2, 67776, Note_on_c, 0, 82, 110
2, 67964, Note_off_c, 0, 82, 100
2, 67968, Note_on_c, 0, 83, 110
2, 68156, Note_off_c, 0, 83, 100
2, 68160, Note_on_c, 0, 82, 110
2, 68348, Note_off_c, 0, 82, 100
2, 68352, Note_on_c, 0, 83, 110
2, 68540, Note_off_c, 0, 83, 100
2, 68544, Note_on_c, 0, 85, 110
2, 68732, Note_off_c, 0, 85, 100
2, 68736, Note_on_c, 0, 86, 110
2, 68924, Note_off_c, 0, 86, 100
2, 68928, Note_on_c, 0, 88, 110
2, 69116, Note_off_c, 0, 88, 100
2, 69120, Note_on_c, 0, 90, 110
2, 69120, Note_on_c, 0, 78, 110
2, 69500, Note_off_c, 0, 90, 100
2, 69500, Note_off_c, 0, 78, 100
2, 69696, Note_on_c, 0, 90, 110
2, 69696, Note_on_c, 0, 78, 110
2, 70076, Note_off_c, 0, 90, 100
2, 70076, Note_off_c, 0, 78, 100
2, 70272, Note_on_c, 0, 90, 110
2, 70272, Note_on_c, 0, 78, 110
2, 70652, Note_off_c, 0, 90, 100
2, 70652, Note_off_c, 0, 78, 100
2, 70848, Note_on_c, 0, 90, 110
2, 70848, Note_on_c, 0, 78, 110
2, 71228, Note_off_c, 0, 90, 100
2, 71228, Note_off_c, 0, 78, 100
2, 71424, Note_on_c, 0, 86, 110
2, 71424, Note_on_c, 0, 74, 110
2, 71996, Note_off_c, 0, 86, 100
2, 71996, Note_off_c, 0, 74, 100
2, 72000, Note_on_c, 0, 85, 110
2, 72096, Note_on_c, 0, 86, 110
2, 72188, Note_off_c, 0, 85, 100
2, 72192, Note_on_c, 0, 85, 110
2, 72284, Note_off_c, 0, 86, 100
2, 72288, Note_on_c, 0, 86, 110
2, 72380, Note_off_c, 0, 85, 100
2, 72384, Note_on_c, 0, 83, 110
2, 72476, Note_off_c, 0, 86, 100
2, 72480, Note_on_c, 0, 85, 110
2, 72572, Note_off_c, 0, 83, 100
2, 72572, Note_off_c, 0, 85, 100
2, 72576, Note_on_c, 0, 83, 110
2, 73148, Note_off_c, 0, 83, 100
2, 73152, Note_on_c, 0, 81, 110
2, 73532, Note_off_c, 0, 81, 100
2, 73536, Note_on_c, 0, 79, 110
2, 73724, Note_off_c, 0, 79, 100
2, 73728, Note_on_c, 0, 78, 110
2, 74108, Note_off_c, 0, 78, 100
2, 74304, Note_on_c, 0, 78, 110
2, 74304, Note_on_c, 0, 66, 110
2, 74684, Note_off_c, 0, 78, 100
2, 74684, Note_off_c, 0, 66, 100
2, 74880, Note_on_c, 0, 83, 110
2, 74880, Note_on_c, 0, 71, 110
2, 75260, Note_off_c, 0, 83, 100
2, 75644, Note_off_c, 0, 71, 100
2, 75648, Note_on_c, 0, 66, 110
2, 75836, Note_off_c, 0, 66, 100
2, 75840, Note_on_c, 0, 74, 110
2, 76028, Note_off_c, 0, 74, 100
2, 76032, Note_on_c, 0, 74, 110
2, 76220, Note_off_c, 0, 74, 100
2, 76224, Note_on_c, 0, 71, 110
2, 76412, Note_off_c, 0, 71, 100
2, 76416, Note_on_c, 0, 78, 110
2, 76604, Note_off_c, 0, 78, 100
2, 76608, Note_on_c, 0, 78, 110
2, 76796, Note_off_c, 0, 78, 100
2, 76800, Note_on_c, 0, 74, 110
2, 76988, Note_off_c, 0, 74, 100
2, 76992, Note_on_c, 0, 83, 110
2, 77180, Note_off_c, 0, 83, 100
2, 77184, Note_on_c, 0, 83, 110
2, 77372, Note_off_c, 0, 83, 100
2, 77376, Note_on_c, 0, 88, 108
2, 77564, Note_off_c, 0, 88, 100
2, 77568, Note_on_c, 0, 86, 105
2, 77756, Note_off_c, 0, 86, 100
2, 77760, Note_on_c, 0, 85, 102
2, 77948, Note_off_c, 0, 85, 100
2, 77952, Note_on_c, 0, 86, 100
2, 78140, Note_off_c, 0, 86, 100
2, 78144, Note_on_c, 0, 83, 97
2, 78332, Note_off_c, 0, 83, 100
2, 78336, Note_on_c, 0, 82, 94
2, 78524, Note_off_c, 0, 82, 100
2, 78528, Note_on_c, 0, 79, 91
2, 78716, Note_off_c, 0, 79, 100
2, 78720, Note_on_c, 0, 78, 89
2, 78908, Note_off_c, 0, 78, 100
2, 78912, Note_on_c, 0, 76, 86
2, 79100, Note_off_c, 0, 76, 100
2, 79104, Note_on_c, 0, 74, 83
2, 79292, Note_off_c, 0, 74, 100
2, 79296, Note_on_c, 0, 73, 81
2, 79484, Note_off_c, 0, 73, 100
2, 79488, Note_on_c, 0, 71, 80
2, 80636, Note_off_c, 0, 71, 100
2, 80640, Note_on_c, 0, 69, 80
2, 81788, Note_off_c, 0, 69, 100
2, 81792, Note_on_c, 0, 76, 80
2, 81792, Note_on_c, 0, 67, 80
2, 82364, Note_off_c, 0, 67, 100
2, 82368, Note_on_c, 0, 64, 80
2, 82940, Note_off_c, 0, 76, 100
2, 82940, Note_off_c, 0, 64, 100
2, 82944, Note_on_c, 0, 74, 80
2, 82944, Note_on_c, 0, 66, 80
2, 84092, Note_off_c, 0, 74, 100
2, 84092, Note_off_c, 0, 66, 100
2, 84096, Note_on_c, 0, 73, 80
2, 84096, Note_on_c, 0, 64, 80
2, 84668, Note_off_c, 0, 73, 100
2, 84672, Note_on_c, 0, 70, 80
2, 85244, Note_off_c, 0, 64, 100
2, 85244, Note_off_c, 0, 70, 100
2, 85248, Note_on_c, 0, 71, 80
2, 85248, Note_on_c, 0, 62, 80
2, 86396, Note_off_c, 0, 71, 100
2, 86396, Note_off_c, 0, 62, 100
2, 86400, Note_on_c, 0, 69, 80
2, 86400, Note_on_c, 0, 60, 80
2, 86972, Note_off_c, 0, 60, 100
2, 86976, Note_on_c, 0, 57, 80
2, 87548, Note_off_c, 0, 69, 100
2, 87548, Note_off_c, 0, 57, 100
2, 87552, Note_on_c, 0, 67, 80
2, 87552, Note_on_c, 0, 59, 80
2, 88700, Note_off_c, 0, 67, 100
2, 88700, Note_off_c, 0, 59, 100
2, 88704, Note_on_c, 0, 66, 80
2, 88704, Note_on_c, 0, 57, 80
2, 89276, Note_off_c, 0, 66, 100
2, 89280, Note_on_c, 0, 63, 80
2, 89852, Note_off_c, 0, 57, 100
2, 89852, Note_off_c, 0, 63, 100
2, 89856, Note_on_c, 0, 64, 80
2, 89856, Note_on_c, 0, 55, 80
2, 91004, Note_off_c, 0, 64, 100
2, 91004, Note_off_c, 0, 55, 100
2, 91008, Note_on_c, 0, 53, 80
2, 91008, Note_on_c, 0, 57, 80
2, 91580, Note_off_c, 0, 53, 100
2, 91584, Note_on_c, 0, 50, 80
2, 92156, Note_off_c, 0, 57, 100
2, 92156, Note_off_c, 0, 50, 100
2, 92160, Note_on_c, 0, 64, 80
2, 92160, Note_on_c, 0, 67, 80
2, 93308, Note_off_c, 0, 64, 100
2, 93308, Note_off_c, 0, 67, 100
2, 93312, Note_on_c, 0, 65, 80
2, 93312, Note_on_c, 0, 56, 80
2, 93884, Note_off_c, 0, 65, 100
2, 93888, Note_on_c, 0, 62, 80
2, 94460, Note_off_c, 0, 56, 100
2, 94460, Note_off_c, 0, 62, 100
2, 94464, Note_on_c, 0, 64, 80
2, 94464, Note_on_c, 0, 55, 80
2, 95036, Note_off_c, 0, 64, 100
2, 95036, Note_off_c, 0, 55, 100
2, 95040, Note_on_c, 0, 64, 80
2, 95040, Note_on_c, 0, 72, 80
2, 95612, Note_off_c, 0, 64, 100
2, 95616, Note_on_c, 0, 68, 80
2, 96188, Note_off_c, 0, 72, 100
2, 96188, Note_off_c, 0, 68, 100
2, 96192, Note_on_c, 0, 71, 80
2, 96192, Note_on_c, 0, 65, 80
2, 96764, Note_off_c, 0, 71, 100
2, 96764, Note_off_c, 0, 65, 100
2, 97344, Note_on_c, 0, 72, 80
2, 97920, Note_on_c, 0, 76, 80
2, 98492, Note_off_c, 0, 72, 100
2, 98492, Note_off_c, 0, 76, 100
2, 98496, Note_on_c, 0, 75, 80
2, 98496, Note_on_c, 0, 71, 80
2, 99068, Note_off_c, 0, 75, 100
2, 99068, Note_off_c, 0, 71, 100
2, 99072, Note_on_c, 0, 64, 80
2, 99072, Note_on_c, 0, 59, 80
2, 99644, Note_off_c, 0, 59, 100
2, 99648, Note_on_c, 0, 62, 80
2, 100220, Note_off_c, 0, 64, 100
2, 100224, Note_on_c, 0, 65, 80
2, 100796, Note_off_c, 0, 62, 100
2, 100800, Note_on_c, 0, 60, 80
2, 101372, Note_off_c, 0, 65, 100
2, 101372, Note_off_c, 0, 60, 100
2, 101376, Note_on_c, 0, 74, 80
2, 101952, Note_on_c, 0, 65, 80
2, 102524, Note_off_c, 0, 74, 100
2, 102524, Note_off_c, 0, 65, 100
2, 102528, Note_on_c, 0, 72, 80
2, 102528, Note_on_c, 0, 64, 80
2, 103100, Note_off_c, 0, 64, 100
2, 103104, Note_on_c, 0, 69, 80
2, 103676, Note_off_c, 0, 72, 100
2, 103676, Note_off_c, 0, 69, 100
2, 103680, Note_on_c, 0, 71, 80
2, 103680, Note_on_c, 0, 65, 80
2, 103680, Note_on_c, 0, 62, 80
2, 104252, Note_off_c, 0, 71, 100
2, 104252, Note_off_c, 0, 65, 100
2, 104252, Note_off_c, 0, 62, 100
2, 104256, Note_on_c, 0, 68, 80
2, 104256, Note_on_c, 0, 62, 80
2, 104256, Note_on_c, 0, 59, 80
2, 104828, Note_off_c, 0, 68, 100
2, 104828, Note_off_c, 0, 62, 100
2, 104828, Note_off_c, 0, 59, 100
2, 104832, Note_on_c, 0, 69, 80
2, 104832, Note_on_c, 0, 60, 80
2, 105408, Note_on_c, 0, 66, 80
2, 105980, Note_off_c, 0, 69, 100
2, 105980, Note_off_c, 0, 60, 100
2, 105984, Note_on_c, 0, 67, 80
2, 105984, Note_on_c, 0, 59, 80
2, 106556, Note_off_c, 0, 66, 100
2, 106560, Note_on_c, 0, 64, 80
2, 107132, Note_off_c, 0, 67, 100
2, 107132, Note_off_c, 0, 59, 100
2, 107136, Note_on_c, 0, 66, 80
2, 107136, Note_on_c, 0, 57, 80
2, 107708, Note_off_c, 0, 64, 100
2, 107712, Note_on_c, 0, 63, 80
2, 108284, Note_off_c, 0, 66, 100
2, 108284, Note_off_c, 0, 57, 100
2, 108284, Note_off_c, 0, 63, 100
2, 108288, Note_on_c, 0, 64, 80
2, 108288, Note_on_c, 0, 59, 80
2, 108860, Note_off_c, 0, 64, 100
2, 108860, Note_off_c, 0, 59, 100
2, 108864, Note_on_c, 0, 67, 80
2, 108864, Note_on_c, 0, 59, 80
2, 109436, Note_off_c, 0, 67, 100
2, 109436, Note_off_c, 0, 59, 100
2, 109440, Note_on_c, 0, 66, 80
2, 109440, Note_on_c, 0, 58, 80
2, 110588, Note_off_c, 0, 66, 100
2, 110588, Note_off_c, 0, 58, 100
2, 110592, Note_on_c, 0, 76, 80
2, 110592, Note_on_c, 0, 71, 80
2, 111740, Note_off_c, 0, 76, 100
2, 111740, Note_off_c, 0, 71, 100
2, 111744, Note_on_c, 0, 78, 80
2, 111744, Note_on_c, 0, 75, 80
2, 111744, Note_on_c, 0, 69, 80
2, 112892, Note_off_c, 0, 78, 100
2, 112892, Note_off_c, 0, 75, 100
2, 112892, Note_off_c, 0, 69, 100
2, 112896, Note_on_c, 0, 79, 80
2, 112896, Note_on_c, 0, 71, 80
2, 113468, Note_off_c, 0, 79, 100
2, 113468, Note_off_c, 0, 71, 100
2, 113472, Note_on_c, 0, 76, 80
2, 113472, Note_on_c, 0, 71, 80
2, 114044, Note_off_c, 0, 76, 100
2, 114044, Note_off_c, 0, 71, 100
2, 114048, Note_on_c, 0, 78, 80
2, 114048, Note_on_c, 0, 70, 80
2, 115196, Note_off_c, 0, 78, 100
2, 115196, Note_off_c, 0, 70, 100
2, 115200, Note_on_c, 0, 76, 80
2, 115200, Note_on_c, 0, 71, 80
2, 115772, Note_off_c, 0, 76, 100
2, 115772, Note_off_c, 0, 71, 100
2, 115776, Note_on_c, 0, 79, 80
2, 115776, Note_on_c, 0, 71, 80
2, 116348, Note_off_c, 0, 79, 100
2, 116348, Note_off_c, 0, 71, 100
2, 116352, Note_on_c, 0, 78, 80
2, 116352, Note_on_c, 0, 73, 80
2, 116352, Note_on_c, 0, 70, 80
2, 116732, Note_off_c, 0, 78, 100
2, 116732, Note_off_c, 0, 73, 100
2, 116732, Note_off_c, 0, 70, 100
2, 117504, Note_on_c, 0, 78, 80
2, 117504, Note_on_c, 0, 74, 80
2, 117504, Note_on_c, 0, 71, 80
2, 117884, Note_off_c, 0, 78, 100
2, 117884, Note_off_c, 0, 74, 100
2, 117884, Note_off_c, 0, 71, 100
2, 118656, Note_on_c, 0, 78, 80
2, 118656, Note_on_c, 0, 73, 80
2, 118656, Note_on_c, 0, 70, 80
2, 119036, Note_off_c, 0, 78, 100
2, 119036, Note_off_c, 0, 73, 100
2, 119036, Note_off_c, 0, 70, 100
2, 119808, Note_on_c, 0, 67, 120
2, 120572, Note_off_c, 0, 67, 100
2, 120576, Note_on_c, 0, 64, 120
2, 120764, Note_off_c, 0, 64, 100
2, 120768, Note_on_c, 0, 71, 120
2, 120956, Note_off_c, 0, 71, 100
2, 120960, Note_on_c, 0, 71, 120
2, 121724, Note_off_c, 0, 71, 100
2, 121728, Note_on_c, 0, 67, 120
2, 121916, Note_off_c, 0, 67, 100
2, 121920, Note_on_c, 0, 76, 120
2, 122108, Note_off_c, 0, 76, 100
2, 122112, Note_on_c, 0, 76, 120
2, 122492, Note_off_c, 0, 76, 100
2, 122496, Note_on_c, 0, 78, 120
2, 122684, Note_off_c, 0, 78, 100
2, 122688, Note_on_c, 0, 72, 120
2, 122688, Note_on_c, 0, 79, 120
2, 123068, Note_off_c, 0, 79, 100
2, 123072, Note_on_c, 0, 78, 120
2, 123260, Note_off_c, 0, 72, 100
2, 123260, Note_off_c, 0, 78, 100
2, 123264, Note_on_c, 0, 76, 120
2, 123836, Note_off_c, 0, 76, 100
2, 123840, Note_on_c, 0, 75, 120
2, 124412, Note_off_c, 0, 75, 100
2, 124416, Note_on_c, 0, 72, 120
2, 125180, Note_off_c, 0, 72, 100
2, 125184, Note_on_c, 0, 69, 120
2, 125372, Note_off_c, 0, 69, 100
2, 125376, Note_on_c, 0, 76, 120
2, 125564, Note_off_c, 0, 76, 100
2, 125568, Note_on_c, 0, 76, 120
2, 126332, Note_off_c, 0, 76, 100
2, 126336, Note_on_c, 0, 71, 120
2, 126524, Note_off_c, 0, 71, 100
2, 126528, Note_on_c, 0, 83, 120
2, 126716, Note_off_c, 0, 83, 100
2, 126720, Note_on_c, 0, 83, 120
2, 126720, Note_on_c, 0, 76, 120
2, 126908, Note_off_c, 0, 83, 100
2, 126912, Note_on_c, 0, 84, 120
2, 127100, Note_off_c, 0, 84, 100
2, 127104, Note_on_c, 0, 81, 120
2, 127292, Note_off_c, 0, 76, 100
2, 127292, Note_off_c, 0, 81, 100
2, 127296, Note_on_c, 0, 79, 120
2, 127296, Note_on_c, 0, 75, 120
2, 127484, Note_off_c, 0, 79, 100
2, 127488, Note_on_c, 0, 78, 120
2, 127676, Note_off_c, 0, 78, 100
2, 127680, Note_on_c, 0, 83, 120
2, 127868, Note_off_c, 0, 75, 100
2, 127868, Note_off_c, 0, 83, 100
2, 127872, Note_on_c, 0, 76, 120
2, 127872, Note_on_c, 0, 64, 120
2, 128444, Note_off_c, 0, 76, 100
2, 128444, Note_off_c, 0, 64, 100
2, 128448, Note_on_c, 0, 88, 120
2, 128448, Note_on_c, 0, 76, 120
2, 129596, Note_off_c, 0, 76, 100
2, 129596, Note_off_c, 0, 88, 100
2, 129600, Note_on_c, 0, 86, 120
2, 129600, Note_on_c, 0, 74, 120
2, 129980, Note_off_c, 0, 86, 100
2, 129980, Note_off_c, 0, 74, 100
2, 130176, Note_on_c, 0, 84, 120
2, 130176, Note_on_c, 0, 72, 120
2, 130556, Note_off_c, 0, 84, 100
2, 130556, Note_off_c, 0, 72, 100
2, 130752, Note_on_c, 0, 81, 120
2, 130752, Note_on_c, 0, 69, 120
2, 131132, Note_off_c, 0, 81, 100
2, 131132, Note_off_c, 0, 69, 100
2, 131328, Note_on_c, 0, 83, 120
2, 131328, Note_on_c, 0, 71, 120
2, 132476, Note_off_c, 0, 83, 100
2, 132476, Note_off_c, 0, 71, 100
2, 132480, Note_on_c, 0, 81, 120
2, 132480, Note_on_c, 0, 69, 120
2, 133052, Note_off_c, 0, 81, 100
2, 133052, Note_off_c, 0, 69, 100
2, 133056, Note_on_c, 0, 93, 120
2, 133056, Note_on_c, 0, 81, 120
2, 134204, Note_off_c, 0, 81, 100
2, 134204, Note_off_c, 0, 93, 100
2, 134208, Note_on_c, 0, 91, 120
2, 134208, Note_on_c, 0, 79, 120
2, 134588, Note_off_c, 0, 91, 100
2, 134588, Note_off_c, 0, 79, 100
2, 134784, Note_on_c, 0, 90, 120
2, 134784, Note_on_c, 0, 78, 120
2, 135164, Note_off_c, 0, 90, 100
2, 135164, Note_off_c, 0, 78, 100
2, 135360, Note_on_c, 0, 87, 120
2, 135360, Note_on_c, 0, 75, 120
2, 135740, Note_off_c, 0, 87, 100
2, 135740, Note_off_c, 0, 75, 100
2, 135936, Note_on_c, 0, 88, 120
2, 135936, Note_on_c, 0, 76, 120
2, 136316, Note_off_c, 0, 88, 100
2, 136316, Note_off_c, 0, 76, 100
2, 136512, Note_on_c, 0, 83, 109
2, 136512, Note_on_c, 0, 71, 109
2, 136892, Note_off_c, 0, 83, 100
2, 136892, Note_off_c, 0, 71, 100
2, 137088, Note_on_c, 0, 76, 80
2, 137468, Note_off_c, 0, 76, 100
2, 137472, Note_on_c, 0, 74, 80
2, 137660, Note_off_c, 0, 74, 100
2, 137664, Note_on_c, 0, 71, 80
2, 138044, Note_off_c, 0, 71, 100
2, 138048, Note_on_c, 0, 72, 80
2, 138236, Note_off_c, 0, 72, 100
2, 138240, Note_on_c, 0, 67, 80
2, 138624, Note_on_c, 0, 65, 80
2, 138812, Note_off_c, 0, 67, 100
2, 138812, Note_off_c, 0, 65, 100
2, 138816, Note_on_c, 0, 67, 80
2, 138816, Note_on_c, 0, 64, 80
2, 139196, Note_off_c, 0, 67, 100
2, 139196, Note_off_c, 0, 64, 100
2, 139200, Note_on_c, 0, 67, 80
2, 139200, Note_on_c, 0, 62, 80
2, 139388, Note_off_c, 0, 67, 100
2, 139388, Note_off_c, 0, 62, 100
2, 139392, Note_on_c, 0, 67, 80
2, 139392, Note_on_c, 0, 64, 80
2, 139772, Note_off_c, 0, 64, 100
2, 139776, Note_on_c, 0, 62, 80
2, 139964, Note_off_c, 0, 67, 100
2, 139964, Note_off_c, 0, 62, 100
2, 139968, Note_on_c, 0, 66, 80
2, 139968, Note_on_c, 0, 60, 80
2, 140348, Note_off_c, 0, 66, 100
2, 140348, Note_off_c, 0, 60, 100
2, 140352, Note_on_c, 0, 67, 80
2, 140352, Note_on_c, 0, 62, 80
2, 140540, Note_off_c, 0, 67, 100
2, 140540, Note_off_c, 0, 62, 100
2, 140544, Note_on_c, 0, 69, 80
2, 140544, Note_on_c, 0, 63, 80
2, 141116, Note_off_c, 0, 69, 100
2, 141116, Note_off_c, 0, 63, 100
2, 141120, Note_on_c, 0, 67, 80
2, 141120, Note_on_c, 0, 62, 80
2, 141692, Note_off_c, 0, 67, 100
2, 141692, Note_off_c, 0, 62, 100
2, 141696, Note_on_c, 0, 52, 80
2, 142076, Note_off_c, 0, 52, 100
2, 142080, Note_on_c, 0, 50, 80
2, 142268, Note_off_c, 0, 50, 100
2, 142272, Note_on_c, 0, 47, 80
2, 142652, Note_off_c, 0, 47, 100
2, 142656, Note_on_c, 0, 48, 80
2, 142844, Note_off_c, 0, 48, 100
2, 142848, Note_on_c, 0, 43, 80
2, 143420, Note_off_c, 0, 43, 100
2, 144000, Note_on_c, 0, 64, 80
2, 144380, Note_off_c, 0, 64, 100
2, 144384, Note_on_c, 0, 62, 80
2, 144572, Note_off_c, 0, 62, 100
2, 144576, Note_on_c, 0, 59, 80
2, 144956, Note_off_c, 0, 59, 100
2, 144960, Note_on_c, 0, 61, 80
2, 145148, Note_off_c, 0, 61, 100
2, 145152, Note_on_c, 0, 58, 80
2, 145724, Note_off_c, 0, 58, 100
2, 145728, Note_on_c, 0, 58, 80
2, 146108, Note_off_c, 0, 58, 100
2, 146112, Note_on_c, 0, 58, 80
2, 146300, Note_off_c, 0, 58, 100
2, 146304, Note_on_c, 0, 72, 80
2, 146684, Note_off_c, 0, 72, 100
2, 146688, Note_on_c, 0, 71, 81
2, 146876, Note_off_c, 0, 71, 100
2, 146880, Note_on_c, 0, 68, 82
2, 147260, Note_off_c, 0, 68, 100
2, 147264, Note_on_c, 0, 69, 84
2, 147452, Note_off_c, 0, 69, 100
2, 147456, Note_on_c, 0, 69, 85
2, 148028, Note_off_c, 0, 69, 100
2, 148032, Note_on_c, 0, 69, 87
2, 148412, Note_off_c, 0, 69, 100
2, 148416, Note_on_c, 0, 69, 89
2, 148604, Note_off_c, 0, 69, 100
2, 148608, Note_on_c, 0, 81, 90
2, 148608, Note_on_c, 0, 69, 90
2, 148988, Note_off_c, 0, 81, 100
2, 148992, Note_on_c, 0, 79, 92
2, 149180, Note_off_c, 0, 79, 100
2, 149184, Note_on_c, 0, 76, 93
2, 149564, Note_off_c, 0, 76, 100
2, 149568, Note_on_c, 0, 78, 94
2, 149756, Note_off_c, 0, 78, 100
2, 149760, Note_on_c, 0, 78, 95
2, 150332, Note_off_c, 0, 78, 100
2, 150336, Note_on_c, 0, 78, 98
2, 150716, Note_off_c, 0, 78, 100
2, 150720, Note_on_c, 0, 78, 99
2, 150908, Note_off_c, 0, 69, 100
2, 150908, Note_off_c, 0, 78, 100
2, 150912, Note_on_c, 0, 78, 80
2, 151104, Note_on_c, 0, 71, 80
2, 151292, Note_off_c, 0, 71, 100
2, 151296, Note_on_c, 0, 75, 80
2, 151484, Note_off_c, 0, 75, 100
2, 151488, Note_on_c, 0, 71, 80
2, 151676, Note_off_c, 0, 78, 100
2, 151680, Note_on_c, 0, 79, 80
2, 151868, Note_off_c, 0, 79, 100
2, 151872, Note_on_c, 0, 81, 80
2, 152060, Note_off_c, 0, 81, 100
2, 152064, Note_on_c, 0, 79, 80
2, 152252, Note_off_c, 0, 71, 100
2, 152256, Note_on_c, 0, 71, 80
2, 152444, Note_off_c, 0, 71, 100
2, 152448, Note_on_c, 0, 76, 80
2, 152636, Note_off_c, 0, 76, 100
2, 152640, Note_on_c, 0, 71, 80
2, 152828, Note_off_c, 0, 79, 100
2, 152832, Note_on_c, 0, 79, 80
2, 153020, Note_off_c, 0, 79, 100
2, 153024, Note_on_c, 0, 83, 80
2, 153212, Note_off_c, 0, 83, 100
2, 153216, Note_on_c, 0, 81, 80
2, 153596, Note_off_c, 0, 81, 100
2, 153600, Note_on_c, 0, 83, 81
2, 153788, Note_off_c, 0, 71, 100
2, 153788, Note_off_c, 0, 83, 100
2, 153792, Note_on_c, 0, 84, 81
2, 153792, Note_on_c, 0, 75, 81
2, 154172, Note_off_c, 0, 84, 100
2, 154172, Note_off_c, 0, 75, 100
2, 154176, Note_on_c, 0, 83, 82
2, 154176, Note_on_c, 0, 76, 82
2, 154364, Note_off_c, 0, 83, 100
2, 154364, Note_off_c, 0, 76, 100
2, 154368, Note_on_c, 0, 81, 83
2, 154368, Note_on_c, 0, 78, 83
2, 154556, Note_off_c, 0, 78, 100
2, 154560, Note_on_c, 0, 71, 84
2, 154748, Note_off_c, 0, 81, 100
2, 154752, Note_on_c, 0, 79, 84
2, 154940, Note_off_c, 0, 79, 100
2, 154944, Note_on_c, 0, 78, 85
2, 155324, Note_off_c, 0, 78, 100
2, 155328, Note_on_c, 0, 79, 86
2, 155516, Note_off_c, 0, 71, 100
2, 155516, Note_off_c, 0, 79, 100
2, 155520, Note_on_c, 0, 78, 86
2, 155712, Note_on_c, 0, 71, 87
2, 155900, Note_off_c, 0, 71, 100
2, 155904, Note_on_c, 0, 75, 88
2, 156092, Note_off_c, 0, 75, 100
2, 156096, Note_on_c, 0, 71, 88
2, 156284, Note_off_c, 0, 78, 100
2, 156288, Note_on_c, 0, 79, 89
2, 156476, Note_off_c, 0, 79, 100
2, 156480, Note_on_c, 0, 81, 89
2, 156668, Note_off_c, 0, 81, 100
2, 156672, Note_on_c, 0, 79, 90
2, 156860, Note_off_c, 0, 71, 100
2, 156864, Note_on_c, 0, 71, 91
2, 157052, Note_off_c, 0, 71, 100
2, 157056, Note_on_c, 0, 76, 91
2, 157244, Note_off_c, 0, 76, 100
2, 157248, Note_on_c, 0, 71, 92
2, 157436, Note_off_c, 0, 79, 100
2, 157440, Note_on_c, 0, 79, 92
2, 157628, Note_off_c, 0, 79, 100
2, 157632, Note_on_c, 0, 83, 93
2, 157820, Note_off_c, 0, 83, 100
2, 157824, Note_on_c, 0, 81, 93
2, 158204, Note_off_c, 0, 81, 100
2, 158208, Note_on_c, 0, 83, 95
2, 158396, Note_off_c, 0, 71, 100
2, 158396, Note_off_c, 0, 83, 100
2, 158400, Note_on_c, 0, 84, 95
2, 158400, Note_on_c, 0, 75, 95
2, 158780, Note_off_c, 0, 84, 100
2, 158780, Note_off_c, 0, 75, 100
2, 158784, Note_on_c, 0, 83, 96
2, 158784, Note_on_c, 0, 76, 96
2, 158972, Note_off_c, 0, 83, 100
2, 158972, Note_off_c, 0, 76, 100
2, 158976, Note_on_c, 0, 81, 97
2, 158976, Note_on_c, 0, 78, 97
2, 159164, Note_off_c, 0, 78, 100
2, 159168, Note_on_c, 0, 71, 98
2, 159356, Note_off_c, 0, 81, 100
2, 159360, Note_on_c, 0, 79, 98
2, 159548, Note_off_c, 0, 79, 100
2, 159552, Note_on_c, 0, 78, 99
2, 159932, Note_off_c, 0, 78, 100
2, 159936, Note_on_c, 0, 79, 100
2, 160124, Note_off_c, 0, 79, 100
2, 160128, Note_on_c, 0, 81, 100
2, 160508, Note_off_c, 0, 71, 100
2, 160508, Note_off_c, 0, 81, 100
2, 160512, Note_on_c, 0, 83, 102
2, 160512, Note_on_c, 0, 71, 102
2, 160700, Note_off_c, 0, 83, 100
2, 160700, Note_off_c, 0, 71, 100
2, 160704, Note_on_c, 0, 84, 102
2, 160704, Note_on_c, 0, 72, 102
2, 161084, Note_off_c, 0, 84, 100
2, 161084, Note_off_c, 0, 72, 100
2, 161088, Note_on_c, 0, 83, 103
2, 161088, Note_on_c, 0, 71, 103
2, 161276, Note_off_c, 0, 83, 100
2, 161276, Note_off_c, 0, 71, 100
2, 161280, Note_on_c, 0, 84, 104
2, 161280, Note_on_c, 0, 72, 104
2, 161660, Note_off_c, 0, 84, 100
2, 161660, Note_off_c, 0, 72, 100
2, 161664, Note_on_c, 0, 87, 105
2, 161664, Note_on_c, 0, 75, 105
2, 161852, Note_off_c, 0, 87, 100
2, 161852, Note_off_c, 0, 75, 100
2, 161856, Note_on_c, 0, 88, 106
2, 161856, Note_on_c, 0, 76, 106
2, 162236, Note_off_c, 0, 88, 100
2, 162236, Note_off_c, 0, 76, 100
2, 162240, Note_on_c, 0, 87, 107
2, 162240, Note_on_c, 0, 75, 107
2, 162428, Note_off_c, 0, 87, 100
2, 162428, Note_off_c, 0, 75, 100
2, 162432, Note_on_c, 0, 88, 107
2, 162432, Note_on_c, 0, 76, 107
2, 162812, Note_off_c, 0, 88, 100
2, 162812, Note_off_c, 0, 76, 100
2, 162816, Note_on_c, 0, 90, 109
2, 162816, Note_on_c, 0, 78, 109
2, 163004, Note_off_c, 0, 90, 100
2, 163004, Note_off_c, 0, 78, 100
2, 163008, Note_on_c, 0, 91, 109
2, 163008, Note_on_c, 0, 79, 109
2, 163388, Note_off_c, 0, 91, 100
2, 163388, Note_off_c, 0, 79, 100
2, 163392, Note_on_c, 0, 90, 110
2, 163392, Note_on_c, 0, 78, 110
2, 163580, Note_off_c, 0, 90, 100
2, 163580, Note_off_c, 0, 78, 100
2, 163584, Note_on_c, 0, 91, 111
2, 163584, Note_on_c, 0, 79, 111
2, 163964, Note_off_c, 0, 91, 100
2, 163964, Note_off_c, 0, 79, 100
2, 163968, Note_on_c, 0, 90, 112
2, 163968, Note_on_c, 0, 78, 112
2, 164156, Note_off_c, 0, 90, 100
2, 164156, Note_off_c, 0, 78, 100
2, 164160, Note_on_c, 0, 79, 113
2, 164160, Note_on_c, 0, 91, 113
2, 164540, Note_off_c, 0, 79, 100
2, 164540, Note_off_c, 0, 91, 100
2, 164544, Note_on_c, 0, 83, 114
2, 164544, Note_on_c, 0, 91, 114
2, 164732, Note_off_c, 0, 83, 100
2, 164736, Note_on_c, 0, 82, 114
2, 165116, Note_off_c, 0, 91, 100
2, 165116, Note_off_c, 0, 82, 100
2, 165120, Note_on_c, 0, 79, 80
2, 165500, Note_off_c, 0, 79, 100
2, 165504, Note_on_c, 0, 78, 80
2, 165692, Note_off_c, 0, 78, 100
2, 165696, Note_on_c, 0, 76, 80
2, 165884, Note_off_c, 0, 76, 100
2, 165888, Note_on_c, 0, 76, 80
2, 166268, Note_off_c, 0, 76, 100
2, 166272, Note_on_c, 0, 73, 80
2, 166460, Note_off_c, 0, 73, 100
2, 166464, Note_on_c, 0, 74, 80
2, 166844, Note_off_c, 0, 74, 100
2, 166848, Note_on_c, 0, 89, 80
2, 167420, Note_off_c, 0, 89, 100
2, 167424, Note_on_c, 0, 77, 80
2, 167804, Note_off_c, 0, 77, 100
2, 167808, Note_on_c, 0, 76, 80
2, 167996, Note_off_c, 0, 76, 100
2, 168000, Note_on_c, 0, 74, 80
2, 168188, Note_off_c, 0, 74, 100
2, 168192, Note_on_c, 0, 74, 80
2, 168572, Note_off_c, 0, 74, 100
2, 168576, Note_on_c, 0, 71, 80
2, 168764, Note_off_c, 0, 71, 100
2, 168768, Note_on_c, 0, 72, 80
2, 169148, Note_off_c, 0, 72, 100
2, 169152, Note_on_c, 0, 87, 80
2, 169724, Note_off_c, 0, 87, 100
2, 169728, Note_on_c, 0, 75, 80
2, 170108, Note_off_c, 0, 75, 100
2, 170112, Note_on_c, 0, 74, 80
2, 170300, Note_off_c, 0, 74, 100
2, 170304, Note_on_c, 0, 72, 80
2, 170492, Note_off_c, 0, 72, 100
2, 170496, Note_on_c, 0, 72, 80
2, 170876, Note_off_c, 0, 72, 100
2, 170880, Note_on_c, 0, 69, 80
2, 171068, Note_off_c, 0, 69, 100
2, 171072, Note_on_c, 0, 70, 80
2, 171452, Note_off_c, 0, 70, 100
2, 171456, Note_on_c, 0, 82, 80
2, 173180, Note_off_c, 0, 82, 100
2, 173184, Note_on_c, 0, 81, 80
2, 173372, Note_off_c, 0, 81, 100
2, 173376, Note_on_c, 0, 79, 80
2, 173756, Note_off_c, 0, 79, 100
2, 173760, Note_on_c, 0, 84, 80
2, 173948, Note_off_c, 0, 84, 100
2, 174528, Note_on_c, 0, 84, 80
2, 174908, Note_off_c, 0, 84, 100
2, 174912, Note_on_c, 0, 79, 80
2, 175100, Note_off_c, 0, 79, 100
2, 175104, Note_on_c, 0, 84, 80
2, 175484, Note_off_c, 0, 84, 100
2, 175680, Note_on_c, 0, 84, 80
2, 176060, Note_off_c, 0, 84, 100
2, 176832, Note_on_c, 0, 72, 70
2, 177212, Note_off_c, 0, 72, 100
2, 177216, Note_on_c, 0, 67, 70
2, 177404, Note_off_c, 0, 67, 100
2, 177408, Note_on_c, 0, 72, 70
2, 177788, Note_off_c, 0, 72, 100
2, 177984, Note_on_c, 0, 72, 70
2, 178364, Note_off_c, 0, 72, 100
2, 178560, Note_on_c, 0, 52, 70
2, 178748, Note_off_c, 0, 52, 100
2, 178752, Note_on_c, 0, 55, 73
2, 178940, Note_off_c, 0, 55, 100
2, 178944, Note_on_c, 0, 53, 77
2, 179132, Note_off_c, 0, 53, 100
2, 179136, Note_on_c, 0, 60, 80
2, 179136, Note_on_c, 0, 52, 80
2, 179324, Note_off_c, 0, 52, 100
2, 179328, Note_on_c, 0, 51, 84
2, 179516, Note_off_c, 0, 60, 100
2, 179516, Note_off_c, 0, 51, 100
2, 179520, Note_on_c, 0, 55, 88
2, 179520, Note_on_c, 0, 52, 88
2, 179708, Note_off_c, 0, 55, 100
2, 179708, Note_off_c, 0, 52, 100
2, 179712, Note_on_c, 0, 59, 91
2, 179712, Note_on_c, 0, 55, 91
2, 179900, Note_off_c, 0, 55, 100
2, 179904, Note_on_c, 0, 54, 95
2, 180092, Note_off_c, 0, 59, 100
2, 180092, Note_off_c, 0, 54, 100
2, 180096, Note_on_c, 0, 52, 99
2, 180284, Note_off_c, 0, 52, 100
2, 180288, Note_on_c, 0, 59, 102
2, 180288, Note_on_c, 0, 51, 102
2, 180476, Note_off_c, 0, 51, 100
2, 180480, Note_on_c, 0, 52, 106
2, 180668, Note_off_c, 0, 59, 100
2, 180668, Note_off_c, 0, 52, 100
2, 180672, Note_on_c, 0, 54, 109
2, 180860, Note_off_c, 0, 54, 100
2, 180864, Note_on_c, 0, 59, 110
2, 181052, Note_off_c, 0, 59, 100
2, 181056, Note_on_c, 0, 61, 110
2, 181244, Note_off_c, 0, 61, 100
2, 181248, Note_on_c, 0, 63, 110
2, 181436, Note_off_c, 0, 63, 100
2, 181440, Note_on_c, 0, 64, 110
2, 181628, Note_off_c, 0, 64, 100
2, 181632, Note_on_c, 0, 66, 110
2, 181820, Note_off_c, 0, 66, 100
2, 181824, Note_on_c, 0, 67, 110
2, 182012, Note_off_c, 0, 67, 100
2, 182016, Note_on_c, 0, 69, 110
2, 182204, Note_off_c, 0, 69, 100
2, 182208, Note_on_c, 0, 71, 110
2, 182396, Note_off_c, 0, 71, 100
2, 182400, Note_on_c, 0, 73, 110
2, 182588, Note_off_c, 0, 73, 100
2, 182592, Note_on_c, 0, 75, 110
2, 182780, Note_off_c, 0, 75, 100
2, 182784, Note_on_c, 0, 76, 110
2, 182972, Note_off_c, 0, 76, 100
2, 182976, Note_on_c, 0, 78, 110
2, 183164, Note_off_c, 0, 78, 100
2, 183168, Note_on_c, 0, 79, 110
2, 183356, Note_off_c, 0, 79, 100
2, 183360, Note_on_c, 0, 81, 110
2, 183548, Note_off_c, 0, 81, 100
2, 183552, Note_on_c, 0, 83, 110
2, 183740, Note_off_c, 0, 83, 100
2, 183744, Note_on_c, 0, 85, 110
2, 183932, Note_off_c, 0, 85, 100
2, 183936, Note_on_c, 0, 86, 110
2, 184124, Note_off_c, 0, 86, 100
2, 184128, Note_on_c, 0, 87, 110
2, 184316, Note_off_c, 0, 87, 100
2, 184320, Note_on_c, 0, 88, 110
2, 184508, Note_off_c, 0, 88, 100
2, 184512, Note_on_c, 0, 87, 110
2, 184700, Note_off_c, 0, 87, 100
2, 184704, Note_on_c, 0, 88, 110
2, 184892, Note_off_c, 0, 88, 100
2, 184896, Note_on_c, 0, 90, 110
2, 185084, Note_off_c, 0, 90, 100
2, 185088, Note_on_c, 0, 91, 110
2, 185276, Note_off_c, 0, 91, 100
2, 185280, Note_on_c, 0, 93, 110
2, 185468, Note_off_c, 0, 93, 100
2, 185472, Note_on_c, 0, 95, 120
2, 185472, Note_on_c, 0, 83, 120
2, 185852, Note_off_c, 0, 95, 100
2, 185852, Note_off_c, 0, 83, 100
2, 186048, Note_on_c, 0, 95, 120
2, 186048, Note_on_c, 0, 83, 120
2, 186428, Note_off_c, 0, 95, 100
2, 186428, Note_off_c, 0, 83, 100
2, 186624, Note_on_c, 0, 95, 120
2, 186624, Note_on_c, 0, 83, 120
2, 187004, Note_off_c, 0, 95, 100
2, 187004, Note_off_c, 0, 83, 100
2, 187200, Note_on_c, 0, 95, 120
2, 187200, Note_on_c, 0, 83, 120
2, 187580, Note_off_c, 0, 95, 100
2, 187580, Note_off_c, 0, 83, 100
2, 187776, Note_on_c, 0, 91, 120
2, 187776, Note_on_c, 0, 79, 120
2, 188348, Note_off_c, 0, 91, 100
2, 188348, Note_off_c, 0, 79, 100
2, 188352, Note_on_c, 0, 90, 120
2, 188448, Note_on_c, 0, 91, 120
2, 188540, Note_off_c, 0, 90, 100
2, 188544, Note_on_c, 0, 90, 120
2, 188636, Note_off_c, 0, 91, 100
2, 188640, Note_on_c, 0, 91, 120
2, 188732, Note_off_c, 0, 90, 100
2, 188736, Note_on_c, 0, 88, 120
2, 188828, Note_off_c, 0, 91, 100
2, 188832, Note_on_c, 0, 90, 120
2, 188924, Note_off_c, 0, 88, 100
2, 188924, Note_off_c, 0, 90, 100
2, 188928, Note_on_c, 0, 88, 120
2, 189500, Note_off_c, 0, 88, 100
2, 189504, Note_on_c, 0, 86, 120
2, 189884, Note_off_c, 0, 86, 100
2, 189888, Note_on_c, 0, 84, 120
2, 190076, Note_off_c, 0, 84, 100
2, 190080, Note_on_c, 0, 83, 120
2, 190080, Note_on_c, 0, 71, 120
2, 190460, Note_off_c, 0, 83, 100
2, 190460, Note_off_c, 0, 71, 100
2, 190656, Note_on_c, 0, 83, 120
2, 190656, Note_on_c, 0, 71, 120
2, 191036, Note_off_c, 0, 83, 100
2, 191036, Note_off_c, 0, 71, 100
2, 191232, Note_on_c, 0, 88, 120
2, 191232, Note_on_c, 0, 76, 120
2, 191612, Note_off_c, 0, 88, 100
2, 191612, Note_off_c, 0, 76, 100
2, 192384, Note_on_c, 0, 66, 80
2, 192384, Note_on_c, 0, 63, 80
2, 192384, Note_on_c, 0, 57, 80
2, 192764, Note_off_c, 0, 66, 100
2, 192764, Note_off_c, 0, 63, 100
2, 192764, Note_off_c, 0, 57, 100
2, 192960, Note_on_c, 0, 66, 80
2, 192960, Note_on_c, 0, 63, 80
2, 192960, Note_on_c, 0, 57, 80
2, 193340, Note_off_c, 0, 66, 100
2, 193340, Note_off_c, 0, 63, 100
2, 193340, Note_off_c, 0, 57, 100
2, 193536, Note_on_c, 0, 59, 80
2, 193536, Note_on_c, 0, 55, 80
2, 193916, Note_off_c, 0, 59, 100
2, 193916, Note_off_c, 0, 55, 100
2, 195840, Note_on_c, 0, 71, 80
2, 196412, Note_off_c, 0, 71, 100
2, 196416, Note_on_c, 0, 71, 80
2, 196988, Note_off_c, 0, 71, 100
2, 196992, Note_on_c, 0, 76, 80
2, 196992, Note_on_c, 0, 71, 80
2, 197564, Note_off_c, 0, 76, 100
2, 197564, Note_off_c, 0, 71, 100
2, 197568, Note_on_c, 0, 76, 80
2, 197568, Note_on_c, 0, 69, 80
2, 198140, Note_off_c, 0, 76, 100
2, 198140, Note_off_c, 0, 69, 100
2, 198144, Note_on_c, 0, 79, 80
2, 198144, Note_on_c, 0, 76, 80
2, 198144, Note_on_c, 0, 67, 80
2, 198716, Note_off_c, 0, 79, 100
2, 198716, Note_off_c, 0, 76, 100
2, 198716, Note_off_c, 0, 67, 100
2, 198720, Note_on_c, 0, 79, 85
2, 198720, Note_on_c, 0, 76, 85
2, 198720, Note_on_c, 0, 67, 85
2, 199292, Note_off_c, 0, 79, 100
2, 199292, Note_off_c, 0, 76, 100
2, 199292, Note_off_c, 0, 67, 100
2, 199296, Note_on_c, 0, 84, 91
2, 199296, Note_on_c, 0, 79, 91
2, 199296, Note_on_c, 0, 76, 91
2, 199868, Note_off_c, 0, 84, 100
2, 199868, Note_off_c, 0, 79, 100
2, 199868, Note_off_c, 0, 76, 100
2, 199872, Note_on_c, 0, 84, 97
2, 199872, Note_on_c, 0, 79, 97
2, 199872, Note_on_c, 0, 76, 97
2, 200444, Note_off_c, 0, 84, 100
2, 200444, Note_off_c, 0, 79, 100
2, 200444, Note_off_c, 0, 76, 100
2, 200448, Note_on_c, 0, 88, 103
2, 200448, Note_on_c, 0, 84, 103
2, 200448, Note_on_c, 0, 76, 103
2, 201020, Note_off_c, 0, 88, 100
2, 201020, Note_off_c, 0, 84, 100
2, 201020, Note_off_c, 0, 76, 100
2, 201024, Note_on_c, 0, 88, 109
2, 201024, Note_on_c, 0, 83, 109
2, 201024, Note_on_c, 0, 76, 109
2, 201596, Note_off_c, 0, 88, 100
2, 201596, Note_off_c, 0, 83, 100
2, 201596, Note_off_c, 0, 76, 100
2, 201600, Note_on_c, 0, 88, 120
2, 201600, Note_on_c, 0, 81, 120
2, 201600, Note_on_c, 0, 76, 120
2, 201980, Note_off_c, 0, 88, 100
2, 201980, Note_off_c, 0, 81, 100
2, 201980, Note_off_c, 0, 76, 100
2, 202176, Note_on_c, 0, 87, 120
2, 202176, Note_on_c, 0, 78, 120
2, 202176, Note_on_c, 0, 75, 120
2, 202556, Note_off_c, 0, 87, 100
2, 202556, Note_off_c, 0, 78, 100
2, 202556, Note_off_c, 0, 75, 100
2, 202752, Note_on_c, 0, 79, 120
2, 202752, Note_on_c, 0, 88, 120
2, 202752, Note_on_c, 0, 76, 120
2, 203900, Note_off_c, 0, 79, 100
2, 203900, Note_off_c, 0, 88, 100
2, 203900, Note_off_c, 0, 76, 100
2, 206208, Control_c, 0, 7, 0
2, 207360, Note_on_c, 0, 76, 1
2, 207740, Note_off_c, 0, 76, 100
2, 207740, End_track
3, 0, Start_track
3, 0, Title_t, "Left"
3, 0, Control_c, 1, 0, 0
3, 0, Program_c, 1, 0
3, 0, Control_c, 1, 7, 100
3, 0, Control_c, 1, 10, 58
3, 0, Control_c, 1, 91, 127
3, 0, Key_signature, 1, "minor"
3, 0, Note_on_c, 1, 52, 120
3, 0, Note_on_c, 1, 40, 120
3, 1148, Note_off_c, 1, 52, 100
3, 1148, Note_off_c, 1, 40, 100
3, 1152, Note_on_c, 1, 50, 120
3, 1152, Note_on_c, 1, 38, 120
3, 2300, Note_off_c, 1, 50, 100
3, 2300, Note_off_c, 1, 38, 100
3, 2304, Note_on_c, 1, 48, 120
3, 2304, Note_on_c, 1, 36, 120
3, 2876, Note_off_c, 1, 48, 100
3, 2876, Note_off_c, 1, 36, 100
3, 2880, Note_on_c, 1, 45, 120
3, 2880, Note_on_c, 1, 33, 120
3, 3452, Note_off_c, 1, 45, 100
3, 3452, Note_off_c, 1, 33, 100
3, 3456, Note_on_c, 1, 47, 120
3, 3456, Note_on_c, 1, 35, 120
3, 4604, Note_off_c, 1, 47, 100
3, 4604, Note_off_c, 1, 35, 100
3, 4608, Note_on_c, 1, 45, 120
3, 4608, Note_on_c, 1, 33, 120
3, 5756, Note_off_c, 1, 45, 100
3, 5756, Note_off_c, 1, 33, 100
3, 5760, Note_on_c, 1, 43, 120
3, 5760, Note_on_c, 1, 31, 120
3, 6908, Note_off_c, 1, 43, 100
3, 6908, Note_off_c, 1, 31, 100
3, 6912, Note_on_c, 1, 42, 120
3, 6912, Note_on_c, 1, 30, 120
3, 7484, Note_off_c, 1, 42, 100
3, 7484, Note_off_c, 1, 30, 100
3, 7488, Note_on_c, 1, 47, 120
3, 7488, Note_on_c, 1, 35, 120
3, 8060, Note_off_c, 1, 47, 100
3, 8060, Note_off_c, 1, 35, 100
3, 8064, Note_on_c, 1, 52, 120
3, 8064, Note_on_c, 1, 40, 120
3, 8444, Note_off_c, 1, 52, 100
3, 8444, Note_off_c, 1, 40, 100
3, 9216, Note_on_c, 1, 47, 80
3, 9408, Note_on_c, 1, 54, 80
3, 9596, Note_off_c, 1, 54, 100
3, 9600, Note_on_c, 1, 55, 80
3, 9788, Note_off_c, 1, 55, 100
3, 9792, Note_on_c, 1, 57, 80
3, 10076, Note_off_c, 1, 57, 100
3, 10364, Note_off_c, 1, 47, 100
3, 10368, Note_on_c, 1, 47, 80
3, 10560, Note_on_c, 1, 55, 80
3, 10748, Note_off_c, 1, 55, 100
3, 10752, Note_on_c, 1, 57, 80
3, 10940, Note_off_c, 1, 57, 100
3, 10944, Note_on_c, 1, 59, 80
3, 11228, Note_off_c, 1, 59, 100
3, 11516, Note_off_c, 1, 47, 100
3, 11520, Note_on_c, 1, 47, 80
3, 11520, Note_on_c, 1, 57, 80
3, 12092, Note_off_c, 1, 57, 100
3, 12096, Note_on_c, 1, 58, 91
3, 12668, Note_off_c, 1, 58, 100
3, 12672, Note_on_c, 1, 59, 100
3, 13244, Note_off_c, 1, 59, 100
3, 13248, Note_on_c, 1, 52, 89
3, 13820, Note_off_c, 1, 47, 100
3, 13820, Note_off_c, 1, 52, 100
3, 13824, Note_on_c, 1, 47, 80
3, 14016, Note_on_c, 1, 54, 80
3, 14204, Note_off_c, 1, 54, 100
3, 14208, Note_on_c, 1, 55, 80
3, 14396, Note_off_c, 1, 55, 100
3, 14400, Note_on_c, 1, 57, 80
3, 14684, Note_off_c, 1, 57, 100
3, 14972, Note_off_c, 1, 47, 100
3, 14976, Note_on_c, 1, 47, 80
3, 15168, Note_on_c, 1, 55, 80
3, 15356, Note_off_c, 1, 55, 100
3, 15360, Note_on_c, 1, 57, 80
3, 15548, Note_off_c, 1, 57, 100
3, 15552, Note_on_c, 1, 59, 80
3, 15836, Note_off_c, 1, 59, 100
3, 16124, Note_off_c, 1, 47, 100
3, 16128, Note_on_c, 1, 47, 80
3, 16128, Note_on_c, 1, 57, 80
3, 16700, Note_off_c, 1, 57, 100
3, 16704, Note_on_c, 1, 58, 91
3, 17276, Note_off_c, 1, 58, 100
3, 17280, Note_on_c, 1, 59, 100
3, 17852, Note_off_c, 1, 59, 100
3, 17856, Note_on_c, 1, 52, 89
3, 18428, Note_off_c, 1, 47, 100
3, 18428, Note_off_c, 1, 52, 100
3, 18432, Note_on_c, 1, 47, 80
3, 18624, Note_on_c, 1, 54, 80
3, 18812, Note_off_c, 1, 54, 100
3, 18816, Note_on_c, 1, 55, 80
3, 19004, Note_off_c, 1, 55, 100
3, 19008, Note_on_c, 1, 57, 80
3, 19292, Note_off_c, 1, 57, 100
3, 19580, Note_off_c, 1, 47, 100
3, 19584, Note_on_c, 1, 47, 80
3, 19776, Note_on_c, 1, 55, 80
3, 19964, Note_off_c, 1, 55, 100
3, 19968, Note_on_c, 1, 57, 80
3, 20156, Note_off_c, 1, 57, 100
3, 20160, Note_on_c, 1, 59, 80
3, 20444, Note_off_c, 1, 59, 100
3, 20732, Note_off_c, 1, 47, 100
3, 20736, Note_on_c, 1, 47, 80
3, 20736, Note_on_c, 1, 57, 80
3, 21308, Note_off_c, 1, 57, 100
3, 21312, Note_on_c, 1, 58, 91
3, 21884, Note_off_c, 1, 58, 100
3, 21888, Note_on_c, 1, 59, 100
3, 22460, Note_off_c, 1, 59, 100
3, 22464, Note_on_c, 1, 52, 89
3, 23036, Note_off_c, 1, 47, 100
3, 23036, Note_off_c, 1, 52, 100
3, 23040, Note_on_c, 1, 47, 80
3, 23232, Note_on_c, 1, 54, 80
3, 23420, Note_off_c, 1, 54, 100
3, 23424, Note_on_c, 1, 55, 80
3, 23612, Note_off_c, 1, 55, 100
3, 23616, Note_on_c, 1, 57, 80
3, 23900, Note_off_c, 1, 57, 100
3, 24188, Note_off_c, 1, 47, 100
3, 24192, Note_on_c, 1, 47, 80
3, 24384, Note_on_c, 1, 55, 80
3, 24572, Note_off_c, 1, 55, 100
3, 24576, Note_on_c, 1, 57, 80
3, 24764, Note_off_c, 1, 57, 100
3, 24768, Note_on_c, 1, 59, 80
3, 25052, Note_off_c, 1, 59, 100
3, 25340, Note_off_c, 1, 47, 100
3, 25344, Note_on_c, 1, 47, 80
3, 25344, Note_on_c, 1, 57, 80
3, 25916, Note_off_c, 1, 57, 100
3, 25920, Note_on_c, 1, 58, 91
3, 26492, Note_off_c, 1, 58, 100
3, 26496, Note_on_c, 1, 59, 80
3, 27068, Note_off_c, 1, 59, 100
3, 27072, Note_on_c, 1, 52, 81
3, 27072, Note_on_c, 1, 40, 81
3, 27452, Note_off_c, 1, 52, 100
3, 27452, Note_off_c, 1, 40, 100
3, 27644, Note_off_c, 1, 47, 100
3, 27648, Note_on_c, 1, 43, 80
3, 28028, Note_off_c, 1, 43, 100
3, 28032, Note_on_c, 1, 42, 80
3, 28220, Note_off_c, 1, 42, 100
3, 28224, Note_on_c, 1, 39, 80
3, 28604, Note_off_c, 1, 39, 100
3, 28608, Note_on_c, 1, 40, 80
3, 28796, Note_off_c, 1, 40, 100
3, 28800, Note_on_c, 1, 35, 80
3, 29372, Note_off_c, 1, 35, 100
3, 29376, Note_on_c, 1, 35, 80
3, 29756, Note_off_c, 1, 35, 100
3, 29760, Note_on_c, 1, 35, 80
3, 29948, Note_off_c, 1, 35, 100
3, 29952, Note_on_c, 1, 35, 80
3, 30524, Note_off_c, 1, 35, 100
3, 30528, Note_on_c, 1, 33, 80
3, 30908, Note_off_c, 1, 33, 100
3, 30912, Note_on_c, 1, 35, 80
3, 31100, Note_off_c, 1, 35, 100
3, 31104, Note_on_c, 1, 36, 80
3, 31676, Note_off_c, 1, 36, 100
3, 31680, Note_on_c, 1, 35, 80
3, 32252, Note_off_c, 1, 35, 100
3, 32256, Note_on_c, 1, 40, 80
3, 32636, Note_off_c, 1, 40, 100
3, 33792, Note_on_c, 1, 66, 80
3, 33980, Note_off_c, 1, 66, 100
3, 33984, Note_on_c, 1, 64, 80
3, 34364, Note_off_c, 1, 64, 100
3, 34368, Note_on_c, 1, 63, 80
3, 34556, Note_off_c, 1, 63, 100
3, 34560, Note_on_c, 1, 64, 80
3, 34940, Note_off_c, 1, 64, 100
3, 34944, Note_on_c, 1, 62, 80
3, 35132, Note_off_c, 1, 62, 100
3, 35136, Note_on_c, 1, 61, 80
3, 35516, Note_off_c, 1, 61, 100
3, 35520, Note_on_c, 1, 59, 80
3, 35708, Note_off_c, 1, 59, 100
3, 35712, Note_on_c, 1, 58, 80
3, 36092, Note_off_c, 1, 58, 100
3, 36096, Note_on_c, 1, 55, 80
3, 36284, Note_off_c, 1, 55, 100
3, 36288, Note_on_c, 1, 54, 80
3, 36668, Note_off_c, 1, 54, 100
3, 36672, Note_on_c, 1, 53, 80
3, 36860, Note_off_c, 1, 53, 100
3, 36864, Note_on_c, 1, 54, 80
3, 37440, Note_on_c, 1, 58, 80
3, 37628, Note_off_c, 1, 58, 100
3, 37632, Note_on_c, 1, 59, 80
3, 37820, Note_off_c, 1, 59, 100
3, 37824, Note_on_c, 1, 61, 80
3, 38012, Note_off_c, 1, 54, 100
3, 38012, Note_off_c, 1, 61, 100
3, 38016, Note_on_c, 1, 54, 80
3, 38016, Note_on_c, 1, 59, 80
3, 38780, Note_off_c, 1, 59, 100
3, 38784, Note_on_c, 1, 61, 80
3, 38972, Note_off_c, 1, 61, 100
3, 38976, Note_on_c, 1, 62, 80
3, 39164, Note_off_c, 1, 54, 100
3, 39164, Note_off_c, 1, 62, 100
3, 39168, Note_on_c, 1, 54, 80
3, 39356, Note_off_c, 1, 54, 100
3, 39360, Note_on_c, 1, 61, 80
3, 39548, Note_off_c, 1, 61, 100
3, 39552, Note_on_c, 1, 62, 81
3, 39740, Note_off_c, 1, 62, 100
3, 39744, Note_on_c, 1, 54, 82
3, 39932, Note_off_c, 1, 54, 100
3, 39936, Note_on_c, 1, 64, 83
3, 40124, Note_off_c, 1, 64, 100
3, 40128, Note_on_c, 1, 62, 84
3, 40316, Note_off_c, 1, 62, 100
3, 40320, Note_on_c, 1, 54, 85
3, 40508, Note_off_c, 1, 54, 100
3, 40512, Note_on_c, 1, 61, 85
3, 40700, Note_off_c, 1, 61, 100
3, 40704, Note_on_c, 1, 59, 86
3, 40892, Note_off_c, 1, 59, 100
3, 40896, Note_on_c, 1, 54, 87
3, 41084, Note_off_c, 1, 54, 100
3, 41088, Note_on_c, 1, 58, 88
3, 41276, Note_off_c, 1, 58, 100
3, 41280, Note_on_c, 1, 59, 89
3, 41468, Note_off_c, 1, 59, 100
3, 41472, Note_on_c, 1, 54, 90
3, 41664, Note_on_c, 1, 58, 91
3, 41852, Note_off_c, 1, 58, 100
3, 41856, Note_on_c, 1, 61, 91
3, 42044, Note_off_c, 1, 61, 100
3, 42048, Note_on_c, 1, 58, 92
3, 42236, Note_off_c, 1, 58, 100
3, 42240, Note_on_c, 1, 59, 93
3, 42428, Note_off_c, 1, 59, 100
3, 42432, Note_on_c, 1, 61, 94
3, 42620, Note_off_c, 1, 54, 100
3, 42620, Note_off_c, 1, 61, 100
3, 42624, Note_on_c, 1, 54, 95
3, 42816, Note_on_c, 1, 59, 96
3, 43004, Note_off_c, 1, 59, 100
3, 43008, Note_on_c, 1, 62, 97
3, 43196, Note_off_c, 1, 62, 100
3, 43200, Note_on_c, 1, 59, 97
3, 43388, Note_off_c, 1, 59, 100
3, 43392, Note_on_c, 1, 61, 98
3, 43580, Note_off_c, 1, 61, 100
3, 43584, Note_on_c, 1, 62, 99
3, 43772, Note_off_c, 1, 54, 100
3, 43772, Note_off_c, 1, 62, 100
3, 43776, Note_on_c, 1, 54, 100
3, 43964, Note_off_c, 1, 54, 100
3, 43968, Note_on_c, 1, 61, 101
3, 44156, Note_off_c, 1, 61, 100
3, 44160, Note_on_c, 1, 62, 102
3, 44348, Note_off_c, 1, 62, 100
3, 44352, Note_on_c, 1, 54, 102
3, 44540, Note_off_c, 1, 54, 100
3, 44544, Note_on_c, 1, 64, 103
3, 44732, Note_off_c, 1, 64, 100
3, 44736, Note_on_c, 1, 62, 104
3, 44924, Note_off_c, 1, 62, 100
3, 44928, Note_on_c, 1, 54, 105
3, 45116, Note_off_c, 1, 54, 100
3, 45120, Note_on_c, 1, 64, 106
3, 45308, Note_off_c, 1, 64, 100
3, 45312, Note_on_c, 1, 66, 107
3, 45500, Note_off_c, 1, 66, 100
3, 45504, Note_on_c, 1, 54, 108
3, 45692, Note_off_c, 1, 54, 100
3, 45696, Note_on_c, 1, 67, 108
3, 45884, Note_off_c, 1, 67, 100
3, 45888, Note_on_c, 1, 66, 109
3, 46076, Note_off_c, 1, 66, 100
3, 46080, Note_on_c, 1, 54, 110
3, 46268, Note_off_c, 1, 54, 100
3, 46272, Note_on_c, 1, 67, 111
3, 46460, Note_off_c, 1, 67, 100
3, 46464, Note_on_c, 1, 70, 112
3, 46652, Note_off_c, 1, 70, 100
3, 46656, Note_on_c, 1, 71, 113
3, 46844, Note_off_c, 1, 71, 100
3, 46848, Note_on_c, 1, 59, 114
3, 47036, Note_off_c, 1, 59, 100
3, 47040, Note_on_c, 1, 70, 114
3, 47228, Note_off_c, 1, 70, 100
3, 47232, Note_on_c, 1, 71, 115
3, 47420, Note_off_c, 1, 71, 100
3, 47424, Note_on_c, 1, 59, 116
3, 47612, Note_off_c, 1, 59, 100
3, 47616, Note_on_c, 1, 70, 117
3, 47804, Note_off_c, 1, 70, 100
3, 47808, Note_on_c, 1, 71, 118
3, 48188, Note_off_c, 1, 71, 100
3, 48192, Note_on_c, 1, 47, 119
3, 48380, Note_off_c, 1, 47, 100
3, 48384, Note_on_c, 1, 49, 80
3, 48572, Note_off_c, 1, 49, 100
3, 48576, Note_on_c, 1, 53, 80
3, 48764, Note_off_c, 1, 53, 100
3, 48768, Note_on_c, 1, 56, 80
3, 48956, Note_off_c, 1, 56, 100
3, 48960, Note_on_c, 1, 49, 80
3, 49148, Note_off_c, 1, 49, 100
3, 49152, Note_on_c, 1, 51, 80
3, 49340, Note_off_c, 1, 51, 100
3, 49344, Note_on_c, 1, 53, 80
3, 49532, Note_off_c, 1, 53, 100
3, 49536, Note_on_c, 1, 49, 80
3, 49724, Note_off_c, 1, 49, 100
3, 49728, Note_on_c, 1, 57, 80
3, 49916, Note_off_c, 1, 57, 100
3, 49920, Note_on_c, 1, 54, 80
3, 50108, Note_off_c, 1, 54, 100
3, 50112, Note_on_c, 1, 48, 80
3, 50300, Note_off_c, 1, 48, 100
3, 50304, Note_on_c, 1, 54, 80
3, 50492, Note_off_c, 1, 54, 100
3, 50496, Note_on_c, 1, 51, 80
3, 50684, Note_off_c, 1, 51, 100
3, 50688, Note_on_c, 1, 47, 80
3, 50876, Note_off_c, 1, 47, 100
3, 50880, Note_on_c, 1, 51, 80
3, 51068, Note_off_c, 1, 51, 100
3, 51072, Note_on_c, 1, 54, 80
3, 51260, Note_off_c, 1, 54, 100
3, 51264, Note_on_c, 1, 47, 80
3, 51452, Note_off_c, 1, 47, 100
3, 51456, Note_on_c, 1, 49, 80
3, 51644, Note_off_c, 1, 49, 100
3, 51648, Note_on_c, 1, 51, 80
3, 51836, Note_off_c, 1, 51, 100
3, 51840, Note_on_c, 1, 47, 80
3, 52028, Note_off_c, 1, 47, 100
3, 52032, Note_on_c, 1, 55, 80
3, 52220, Note_off_c, 1, 55, 100
3, 52224, Note_on_c, 1, 52, 80
3, 52412, Note_off_c, 1, 52, 100
3, 52416, Note_on_c, 1, 46, 80
3, 52604, Note_off_c, 1, 46, 100
3, 52608, Note_on_c, 1, 52, 80
3, 52796, Note_off_c, 1, 52, 100
3, 52800, Note_on_c, 1, 49, 80
3, 52988, Note_off_c, 1, 49, 100
3, 52992, Note_on_c, 1, 45, 80
3, 53180, Note_off_c, 1, 45, 100
3, 53184, Note_on_c, 1, 49, 80
3, 53372, Note_off_c, 1, 49, 100
3, 53376, Note_on_c, 1, 52, 80
3, 53564, Note_off_c, 1, 52, 100
3, 53568, Note_on_c, 1, 45, 80
3, 53756, Note_off_c, 1, 45, 100
3, 53760, Note_on_c, 1, 47, 80
3, 53948, Note_off_c, 1, 47, 100
3, 53952, Note_on_c, 1, 49, 80
3, 54140, Note_off_c, 1, 49, 100
3, 54144, Note_on_c, 1, 45, 80
3, 54332, Note_off_c, 1, 45, 100
3, 54336, Note_on_c, 1, 53, 80
3, 54524, Note_off_c, 1, 53, 100
3, 54528, Note_on_c, 1, 50, 80
3, 54716, Note_off_c, 1, 50, 100
3, 54720, Note_on_c, 1, 44, 80
3, 54908, Note_off_c, 1, 44, 100
3, 54912, Note_on_c, 1, 50, 80
3, 55100, Note_off_c, 1, 50, 100
3, 55104, Note_on_c, 1, 47, 80
3, 55292, Note_off_c, 1, 47, 100
3, 55296, Note_on_c, 1, 43, 80
3, 55488, Note_on_c, 1, 45, 80
3, 55676, Note_off_c, 1, 45, 100
3, 55680, Note_on_c, 1, 47, 80
3, 55868, Note_off_c, 1, 47, 100
3, 55872, Note_on_c, 1, 48, 80
3, 56060, Note_off_c, 1, 48, 100
3, 56064, Note_on_c, 1, 50, 80
3, 56252, Note_off_c, 1, 50, 100
3, 56256, Note_on_c, 1, 47, 80
3, 56444, Note_off_c, 1, 43, 100
3, 56444, Note_off_c, 1, 47, 100
3, 56448, Note_on_c, 1, 43, 80
3, 56640, Note_on_c, 1, 48, 80
3, 56828, Note_off_c, 1, 48, 100
3, 56832, Note_on_c, 1, 52, 80
3, 57020, Note_off_c, 1, 43, 100
3, 57020, Note_off_c, 1, 52, 100
3, 57024, Note_on_c, 1, 41, 80
3, 57024, Note_on_c, 1, 43, 80
3, 57212, Note_off_c, 1, 43, 100
3, 57216, Note_on_c, 1, 47, 80
3, 57404, Note_off_c, 1, 47, 100
3, 57408, Note_on_c, 1, 50, 80
3, 57596, Note_off_c, 1, 41, 100
3, 57596, Note_off_c, 1, 50, 100
3, 57600, Note_on_c, 1, 42, 80
3, 57792, Note_on_c, 1, 43, 80
3, 57980, Note_off_c, 1, 43, 100
3, 57984, Note_on_c, 1, 47, 80
3, 58172, Note_off_c, 1, 47, 100
3, 58176, Note_on_c, 1, 50, 80
3, 58364, Note_off_c, 1, 50, 100
3, 58368, Note_on_c, 1, 47, 80
3, 58556, Note_off_c, 1, 47, 100
3, 58560, Note_on_c, 1, 43, 80
3, 58748, Note_off_c, 1, 42, 100
3, 58748, Note_off_c, 1, 43, 100
3, 58752, Note_on_c, 1, 40, 80
3, 58944, Note_on_c, 1, 43, 80
3, 59132, Note_off_c, 1, 43, 100
3, 59136, Note_on_c, 1, 48, 80
3, 59324, Note_off_c, 1, 48, 100
3, 59328, Note_on_c, 1, 52, 80
3, 59516, Note_off_c, 1, 52, 100
3, 59520, Note_on_c, 1, 48, 80
3, 59708, Note_off_c, 1, 48, 100
3, 59712, Note_on_c, 1, 43, 80
3, 59900, Note_off_c, 1, 40, 100
3, 59900, Note_off_c, 1, 43, 100
3, 59904, Note_on_c, 1, 42, 70
3, 60096, Note_on_c, 1, 43, 70
3, 60284, Note_off_c, 1, 43, 100
3, 60288, Note_on_c, 1, 47, 70
3, 60476, Note_off_c, 1, 47, 100
3, 60480, Note_on_c, 1, 50, 70
3, 60668, Note_off_c, 1, 50, 100
3, 60672, Note_on_c, 1, 47, 70
3, 60860, Note_off_c, 1, 47, 100
3, 60864, Note_on_c, 1, 43, 70
3, 61052, Note_off_c, 1, 42, 100
3, 61052, Note_off_c, 1, 43, 100
3, 61056, Note_on_c, 1, 40, 70
3, 61248, Note_on_c, 1, 43, 70
3, 61436, Note_off_c, 1, 43, 100
3, 61440, Note_on_c, 1, 48, 70
3, 61628, Note_off_c, 1, 48, 100
3, 61632, Note_on_c, 1, 52, 70
3, 61820, Note_off_c, 1, 52, 100
3, 61824, Note_on_c, 1, 48, 70
3, 62012, Note_off_c, 1, 48, 100
3, 62016, Note_on_c, 1, 43, 70
3, 62204, Note_off_c, 1, 40, 100
3, 62204, Note_off_c, 1, 43, 100
3, 62208, Note_on_c, 1, 41, 70
3, 62208, Note_on_c, 1, 29, 70
3, 63356, Note_off_c, 1, 41, 100
3, 63356, Note_off_c, 1, 29, 100
3, 63360, Note_on_c, 1, 42, 91
3, 63360, Note_on_c, 1, 30, 91
3, 64508, Note_off_c, 1, 42, 100
3, 64508, Note_off_c, 1, 30, 100
3, 64512, Note_on_c, 1, 42, 110
3, 64892, Note_off_c, 1, 42, 100
3, 65088, Note_on_c, 1, 42, 110
3, 65088, Note_on_c, 1, 54, 110
3, 65468, Note_off_c, 1, 42, 100
3, 65468, Note_off_c, 1, 54, 100
3, 65664, Note_on_c, 1, 54, 110
3, 65664, Note_on_c, 1, 42, 110
3, 66044, Note_off_c, 1, 54, 100
3, 66044, Note_off_c, 1, 42, 100
3, 66240, Note_on_c, 1, 54, 110
3, 66240, Note_on_c, 1, 42, 110
3, 66620, Note_off_c, 1, 54, 100
3, 66620, Note_off_c, 1, 42, 100
3, 66816, Note_on_c, 1, 50, 110
3, 66816, Note_on_c, 1, 38, 110
3, 67388, Note_off_c, 1, 50, 100
3, 67388, Note_off_c, 1, 38, 100
3, 67392, Note_on_c, 1, 49, 110
3, 67392, Note_on_c, 1, 37, 110
3, 67964, Note_off_c, 1, 49, 100
3, 67964, Note_off_c, 1, 37, 100
3, 67968, Note_on_c, 1, 47, 110
3, 67968, Note_on_c, 1, 35, 110
3, 68540, Note_off_c, 1, 47, 100
3, 68540, Note_off_c, 1, 35, 100
3, 68544, Note_on_c, 1, 45, 110
3, 68544, Note_on_c, 1, 33, 110
3, 68924, Note_off_c, 1, 45, 100
3, 68924, Note_off_c, 1, 33, 100
3, 68928, Note_on_c, 1, 43, 110
3, 68928, Note_on_c, 1, 31, 110
3, 69116, Note_off_c, 1, 43, 100
3, 69116, Note_off_c, 1, 31, 100
3, 69120, Note_on_c, 1, 42, 110
3, 69120, Note_on_c, 1, 30, 110
3, 69308, Note_off_c, 1, 42, 100
3, 69308, Note_off_c, 1, 30, 100
3, 69312, Note_on_c, 1, 44, 110
3, 69500, Note_off_c, 1, 44, 100
3, 69504, Note_on_c, 1, 46, 110
3, 69692, Note_off_c, 1, 46, 100
3, 69696, Note_on_c, 1, 47, 110
3, 69884, Note_off_c, 1, 47, 100
3, 69888, Note_on_c, 1, 49, 110
3, 70076, Note_off_c, 1, 49, 100
3, 70080, Note_on_c, 1, 50, 110
3, 70268, Note_off_c, 1, 50, 100
3, 70272, Note_on_c, 1, 52, 110
3, 70460, Note_off_c, 1, 52, 100
3, 70464, Note_on_c, 1, 54, 110
3, 70652, Note_off_c, 1, 54, 100
3, 70656, Note_on_c, 1, 56, 110
3, 70844, Note_off_c, 1, 56, 100
3, 70848, Note_on_c, 1, 58, 110
3, 71036, Note_off_c, 1, 58, 100
3, 71040, Note_on_c, 1, 59, 110
3, 71228, Note_off_c, 1, 59, 100
3, 71232, Note_on_c, 1, 61, 110
3, 71420, Note_off_c, 1, 61, 100
3, 71424, Note_on_c, 1, 62, 110
3, 71612, Note_off_c, 1, 62, 100
3, 71616, Note_on_c, 1, 64, 110
3, 71804, Note_off_c, 1, 64, 100
3, 71808, Note_on_c, 1, 66, 110
3, 71996, Note_off_c, 1, 66, 100
3, 72000, Note_on_c, 1, 68, 110
3, 72188, Note_off_c, 1, 68, 100
3, 72192, Note_on_c, 1, 69, 110
3, 72380, Note_off_c, 1, 69, 100
3, 72384, Note_on_c, 1, 70, 110
3, 72572, Note_off_c, 1, 70, 100
3, 72576, Note_on_c, 1, 71, 110
3, 72764, Note_off_c, 1, 71, 100
3, 72768, Note_on_c, 1, 70, 110
3, 72956, Note_off_c, 1, 70, 100
3, 72960, Note_on_c, 1, 71, 110
3, 73148, Note_off_c, 1, 71, 100
3, 73152, Note_on_c, 1, 73, 110
3, 73340, Note_off_c, 1, 73, 100
3, 73344, Note_on_c, 1, 74, 110
3, 73532, Note_off_c, 1, 74, 100
3, 73536, Note_on_c, 1, 76, 110
3, 73724, Note_off_c, 1, 76, 100
3, 73728, Note_on_c, 1, 66, 110
3, 74108, Note_off_c, 1, 66, 100
3, 74304, Note_on_c, 1, 54, 110
3, 74304, Note_on_c, 1, 42, 110
3, 74684, Note_off_c, 1, 54, 100
3, 74684, Note_off_c, 1, 42, 100
3, 74880, Note_on_c, 1, 47, 110
3, 74880, Note_on_c, 1, 35, 110
3, 76028, Note_off_c, 1, 47, 100
3, 76028, Note_off_c, 1, 35, 100
3, 76032, Note_on_c, 1, 45, 110
3, 76032, Note_on_c, 1, 33, 110
3, 77180, Note_off_c, 1, 45, 100
3, 77180, Note_off_c, 1, 33, 100
3, 77184, Note_on_c, 1, 43, 110
3, 77184, Note_on_c, 1, 31, 110
3, 77756, Note_off_c, 1, 43, 100
3, 77756, Note_off_c, 1, 31, 100
3, 77760, Note_on_c, 1, 40, 102
3, 78332, Note_off_c, 1, 40, 100
3, 78336, Note_on_c, 1, 42, 94
3, 78908, Note_off_c, 1, 42, 100
3, 78912, Note_on_c, 1, 44, 86
3, 79292, Note_off_c, 1, 44, 100
3, 79296, Note_on_c, 1, 46, 81
3, 79484, Note_off_c, 1, 46, 100
3, 79488, Note_on_c, 1, 35, 80
3, 79676, Note_off_c, 1, 35, 100
3, 79680, Note_on_c, 1, 47, 80
3, 79868, Note_off_c, 1, 47, 100
3, 79872, Note_on_c, 1, 35, 80
3, 80060, Note_off_c, 1, 35, 100
3, 80064, Note_on_c, 1, 47, 80
3, 80252, Note_off_c, 1, 47, 100
3, 80256, Note_on_c, 1, 35, 80
3, 80444, Note_off_c, 1, 35, 100
3, 80448, Note_on_c, 1, 47, 80
3, 80636, Note_off_c, 1, 47, 100
3, 80640, Note_on_c, 1, 35, 80
3, 80828, Note_off_c, 1, 35, 100
3, 80832, Note_on_c, 1, 47, 80
3, 81020, Note_off_c, 1, 47, 100
3, 81024, Note_on_c, 1, 35, 80
3, 81212, Note_off_c, 1, 35, 100
3, 81216, Note_on_c, 1, 47, 80
3, 81404, Note_off_c, 1, 47, 100
3, 81408, Note_on_c, 1, 35, 80
3, 81596, Note_off_c, 1, 35, 100
3, 81600, Note_on_c, 1, 47, 80
3, 81788, Note_off_c, 1, 47, 100
3, 81792, Note_on_c, 1, 35, 80
3, 81980, Note_off_c, 1, 35, 100
3, 81984, Note_on_c, 1, 47, 80
3, 82172, Note_off_c, 1, 47, 100
3, 82176, Note_on_c, 1, 35, 80
3, 82364, Note_off_c, 1, 35, 100
3, 82368, Note_on_c, 1, 47, 80
3, 82556, Note_off_c, 1, 47, 100
3, 82560, Note_on_c, 1, 35, 80
3, 82748, Note_off_c, 1, 35, 100
3, 82752, Note_on_c, 1, 47, 80
3, 82940, Note_off_c, 1, 47, 100
3, 82944, Note_on_c, 1, 35, 80
3, 83132, Note_off_c, 1, 35, 100
3, 83136, Note_on_c, 1, 47, 80
3, 83324, Note_off_c, 1, 47, 100
3, 83328, Note_on_c, 1, 35, 80
3, 83516, Note_off_c, 1, 35, 100
3, 83520, Note_on_c, 1, 47, 80
3, 83708, Note_off_c, 1, 47, 100
3, 83712, Note_on_c, 1, 35, 80
3, 83900, Note_off_c, 1, 35, 100
3, 83904, Note_on_c, 1, 47, 80
3, 84092, Note_off_c, 1, 47, 100
3, 84096, Note_on_c, 1, 35, 80
3, 84284, Note_off_c, 1, 35, 100
3, 84288, Note_on_c, 1, 47, 80
3, 84476, Note_off_c, 1, 47, 100
3, 84480, Note_on_c, 1, 35, 80
3, 84668, Note_off_c, 1, 35, 100
3, 84672, Note_on_c, 1, 47, 80
3, 84860, Note_off_c, 1, 47, 100
3, 84864, Note_on_c, 1, 35, 80
3, 85052, Note_off_c, 1, 35, 100
3, 85056, Note_on_c, 1, 47, 80
3, 85244, Note_off_c, 1, 47, 100
3, 85248, Note_on_c, 1, 35, 80
3, 85436, Note_off_c, 1, 35, 100
3, 85440, Note_on_c, 1, 47, 80
3, 85628, Note_off_c, 1, 47, 100
3, 85632, Note_on_c, 1, 35, 80
3, 85820, Note_off_c, 1, 35, 100
3, 85824, Note_on_c, 1, 47, 80
3, 86012, Note_off_c, 1, 47, 100
3, 86016, Note_on_c, 1, 35, 80
3, 86204, Note_off_c, 1, 35, 100
3, 86208, Note_on_c, 1, 47, 80
3, 86396, Note_off_c, 1, 47, 100
3, 86400, Note_on_c, 1, 35, 80
3, 86588, Note_off_c, 1, 35, 100
3, 86592, Note_on_c, 1, 47, 80
3, 86780, Note_off_c, 1, 47, 100
3, 86784, Note_on_c, 1, 35, 80
3, 86972, Note_off_c, 1, 35, 100
3, 86976, Note_on_c, 1, 47, 80
3, 87164, Note_off_c, 1, 47, 100
3, 87168, Note_on_c, 1, 35, 80
3, 87356, Note_off_c, 1, 35, 100
3, 87360, Note_on_c, 1, 47, 80
3, 87548, Note_off_c, 1, 47, 100
3, 87552, Note_on_c, 1, 35, 80
3, 87740, Note_off_c, 1, 35, 100
3, 87744, Note_on_c, 1, 47, 80
3, 87932, Note_off_c, 1, 47, 100
3, 87936, Note_on_c, 1, 35, 80
3, 88124, Note_off_c, 1, 35, 100
3, 88128, Note_on_c, 1, 47, 80
3, 88316, Note_off_c, 1, 47, 100
3, 88320, Note_on_c, 1, 35, 80
3, 88508, Note_off_c, 1, 35, 100
3, 88512, Note_on_c, 1, 47, 80
3, 88700, Note_off_c, 1, 47, 100
3, 88704, Note_on_c, 1, 35, 80
3, 88892, Note_off_c, 1, 35, 100
3, 88896, Note_on_c, 1, 47, 80
3, 89084, Note_off_c, 1, 47, 100
3, 89088, Note_on_c, 1, 35, 80
3, 89276, Note_off_c, 1, 35, 100
3, 89280, Note_on_c, 1, 47, 80
3, 89468, Note_off_c, 1, 47, 100
3, 89472, Note_on_c, 1, 35, 80
3, 89660, Note_off_c, 1, 35, 100
3, 89664, Note_on_c, 1, 47, 80
3, 89852, Note_off_c, 1, 47, 100
3, 89856, Note_on_c, 1, 36, 80
3, 90044, Note_off_c, 1, 36, 100
3, 90048, Note_on_c, 1, 48, 80
3, 90236, Note_off_c, 1, 48, 100
3, 90240, Note_on_c, 1, 36, 80
3, 90428, Note_off_c, 1, 36, 100
3, 90432, Note_on_c, 1, 48, 80
3, 90620, Note_off_c, 1, 48, 100
3, 90624, Note_on_c, 1, 36, 80
3, 90812, Note_off_c, 1, 36, 100
3, 90816, Note_on_c, 1, 48, 80
3, 91004, Note_off_c, 1, 48, 100
3, 91008, Note_on_c, 1, 36, 80
3, 91196, Note_off_c, 1, 36, 100
3, 91200, Note_on_c, 1, 48, 80
3, 91388, Note_off_c, 1, 48, 100
3, 91392, Note_on_c, 1, 36, 80
3, 91580, Note_off_c, 1, 36, 100
3, 91584, Note_on_c, 1, 48, 80
3, 91772, Note_off_c, 1, 48, 100
3, 91776, Note_on_c, 1, 36, 80
3, 91964, Note_off_c, 1, 36, 100
3, 91968, Note_on_c, 1, 48, 80
3, 92156, Note_off_c, 1, 48, 100
3, 92160, Note_on_c, 1, 36, 80
3, 92348, Note_off_c, 1, 36, 100
3, 92352, Note_on_c, 1, 48, 80
3, 92540, Note_off_c, 1, 48, 100
3, 92544, Note_on_c, 1, 36, 80
3, 92732, Note_off_c, 1, 36, 100
3, 92736, Note_on_c, 1, 48, 80
3, 92924, Note_off_c, 1, 48, 100
3, 92928, Note_on_c, 1, 36, 80
3, 93116, Note_off_c, 1, 36, 100
3, 93120, Note_on_c, 1, 48, 80
3, 93308, Note_off_c, 1, 48, 100
3, 93312, Note_on_c, 1, 36, 80
3, 93500, Note_off_c, 1, 36, 100
3, 93504, Note_on_c, 1, 48, 80
3, 93692, Note_off_c, 1, 48, 100
3, 93696, Note_on_c, 1, 36, 80
3, 93884, Note_off_c, 1, 36, 100
3, 93888, Note_on_c, 1, 48, 80
3, 94076, Note_off_c, 1, 48, 100
3, 94080, Note_on_c, 1, 36, 80
3, 94268, Note_off_c, 1, 36, 100
3, 94272, Note_on_c, 1, 48, 80
3, 94460, Note_off_c, 1, 48, 100
3, 94464, Note_on_c, 1, 36, 80
3, 94652, Note_off_c, 1, 36, 100
3, 94656, Note_on_c, 1, 48, 80
3, 95612, Note_off_c, 1, 48, 100
3, 95616, Note_on_c, 1, 50, 80
3, 96764, Note_off_c, 1, 50, 100
3, 96768, Note_on_c, 1, 55, 80
3, 96768, Note_on_c, 1, 52, 80
3, 97916, Note_off_c, 1, 55, 100
3, 97916, Note_off_c, 1, 52, 100
3, 97920, Note_on_c, 1, 57, 80
3, 97920, Note_on_c, 1, 54, 80
3, 99068, Note_off_c, 1, 57, 100
3, 99068, Note_off_c, 1, 54, 100
3, 99072, Note_on_c, 1, 56, 80
3, 99648, Note_on_c, 1, 47, 80
3, 100220, Note_off_c, 1, 56, 100
3, 100220, Note_off_c, 1, 47, 100
3, 100224, Note_on_c, 1, 57, 80
3, 100224, Note_on_c, 1, 45, 80
3, 100796, Note_off_c, 1, 45, 100
3, 100800, Note_on_c, 1, 48, 80
3, 101372, Note_off_c, 1, 57, 100
3, 101372, Note_off_c, 1, 48, 100
3, 101376, Note_on_c, 1, 47, 80
3, 101952, Note_on_c, 1, 56, 80
3, 102524, Note_off_c, 1, 47, 100
3, 102524, Note_off_c, 1, 56, 100
3, 102528, Note_on_c, 1, 57, 80
3, 102528, Note_on_c, 1, 48, 80
3, 103100, Note_off_c, 1, 57, 100
3, 103104, Note_on_c, 1, 52, 80
3, 103676, Note_off_c, 1, 48, 100
3, 103676, Note_off_c, 1, 52, 100
3, 103680, Note_on_c, 1, 50, 80
3, 104252, Note_off_c, 1, 50, 100
3, 104256, Note_on_c, 1, 53, 80
3, 104828, Note_off_c, 1, 53, 100
3, 104832, Note_on_c, 1, 51, 80
3, 105980, Note_off_c, 1, 51, 100
3, 105984, Note_on_c, 1, 40, 80
3, 107132, Note_off_c, 1, 40, 100
3, 107136, Note_on_c, 1, 42, 80
3, 108284, Note_off_c, 1, 42, 100
3, 108288, Note_on_c, 1, 43, 80
3, 108860, Note_off_c, 1, 43, 100
3, 108864, Note_on_c, 1, 40, 80
3, 109436, Note_off_c, 1, 40, 100
3, 109440, Note_on_c, 1, 42, 80
3, 110588, Note_off_c, 1, 42, 100
3, 110592, Note_on_c, 1, 67, 80
3, 111740, Note_off_c, 1, 67, 100
3, 111744, Note_on_c, 1, 66, 80
3, 112892, Note_off_c, 1, 66, 100
3, 112896, Note_on_c, 1, 64, 80
3, 113468, Note_off_c, 1, 64, 100
3, 113472, Note_on_c, 1, 67, 80
3, 114044, Note_off_c, 1, 67, 100
3, 114048, Note_on_c, 1, 66, 80
3, 115196, Note_off_c, 1, 66, 100
3, 115200, Note_on_c, 1, 67, 80
3, 115772, Note_off_c, 1, 67, 100
3, 115776, Note_on_c, 1, 64, 80
3, 116348, Note_off_c, 1, 64, 100
3, 116352, Note_on_c, 1, 66, 80
3, 116732, Note_off_c, 1, 66, 100
3, 117504, Note_on_c, 1, 66, 80
3, 117884, Note_off_c, 1, 66, 100
3, 118656, Note_on_c, 1, 66, 80
3, 119036, Note_off_c, 1, 66, 100
3, 119808, Note_on_c, 1, 52, 120
3, 119808, Note_on_c, 1, 40, 120
3, 120956, Note_off_c, 1, 52, 100
3, 120956, Note_off_c, 1, 40, 100
3, 120960, Note_on_c, 1, 50, 120
3, 120960, Note_on_c, 1, 38, 120
3, 122108, Note_off_c, 1, 50, 100
3, 122108, Note_off_c, 1, 38, 100
3, 122112, Note_on_c, 1, 48, 120
3, 122112, Note_on_c, 1, 36, 120
3, 122684, Note_off_c, 1, 48, 100
3, 122684, Note_off_c, 1, 36, 100
3, 122688, Note_on_c, 1, 45, 120
3, 122688, Note_on_c, 1, 33, 120
3, 123260, Note_off_c, 1, 45, 100
3, 123260, Note_off_c, 1, 33, 100
3, 123264, Note_on_c, 1, 47, 120
3, 123264, Note_on_c, 1, 35, 120
3, 124412, Note_off_c, 1, 47, 100
3, 124412, Note_off_c, 1, 35, 100
3, 124416, Note_on_c, 1, 45, 120
3, 124416, Note_on_c, 1, 33, 120
3, 125564, Note_off_c, 1, 45, 100
3, 125564, Note_off_c, 1, 33, 100
3, 125568, Note_on_c, 1, 43, 120
3, 125568, Note_on_c, 1, 31, 120
3, 126716, Note_off_c, 1, 43, 100
3, 126716, Note_off_c, 1, 31, 100
3, 126720, Note_on_c, 1, 42, 120
3, 126720, Note_on_c, 1, 30, 120
3, 127292, Note_off_c, 1, 42, 100
3, 127292, Note_off_c, 1, 30, 100
3, 127296, Note_on_c, 1, 47, 120
3, 127296, Note_on_c, 1, 35, 120
3, 127868, Note_off_c, 1, 47, 100
3, 127868, Note_off_c, 1, 35, 100
3, 127872, Note_on_c, 1, 43, 120
3, 128636, Note_off_c, 1, 43, 100
3, 128640, Note_on_c, 1, 40, 120
3, 128828, Note_off_c, 1, 40, 100
3, 128832, Note_on_c, 1, 47, 120
3, 129020, Note_off_c, 1, 47, 100
3, 129024, Note_on_c, 1, 47, 120
3, 129788, Note_off_c, 1, 47, 100
3, 129792, Note_on_c, 1, 43, 120
3, 129980, Note_off_c, 1, 43, 100
3, 129984, Note_on_c, 1, 52, 120
3, 130172, Note_off_c, 1, 52, 100
3, 130176, Note_on_c, 1, 52, 120
3, 130556, Note_off_c, 1, 52, 100
3, 130560, Note_on_c, 1, 54, 120
3, 130748, Note_off_c, 1, 54, 100
3, 130752, Note_on_c, 1, 55, 120
3, 130752, Note_on_c, 1, 48, 120
3, 131132, Note_off_c, 1, 55, 100
3, 131136, Note_on_c, 1, 54, 120
3, 131324, Note_off_c, 1, 48, 100
3, 131324, Note_off_c, 1, 54, 100
3, 131328, Note_on_c, 1, 47, 120
3, 131328, Note_on_c, 1, 52, 120
3, 131900, Note_off_c, 1, 52, 100
3, 131904, Note_on_c, 1, 51, 120
3, 132476, Note_off_c, 1, 47, 100
3, 132476, Note_off_c, 1, 51, 100
3, 132480, Note_on_c, 1, 48, 120
3, 133244, Note_off_c, 1, 48, 100
3, 133248, Note_on_c, 1, 45, 120
3, 133436, Note_off_c, 1, 45, 100
3, 133440, Note_on_c, 1, 52, 120
3, 133628, Note_off_c, 1, 52, 100
3, 133632, Note_on_c, 1, 52, 120
3, 134396, Note_off_c, 1, 52, 100
3, 134400, Note_on_c, 1, 47, 120
3, 134588, Note_off_c, 1, 47, 100
3, 134592, Note_on_c, 1, 59, 120
3, 134780, Note_off_c, 1, 59, 100
3, 134784, Note_on_c, 1, 59, 120
3, 134972, Note_off_c, 1, 59, 100
3, 134976, Note_on_c, 1, 60, 120
3, 135164, Note_off_c, 1, 60, 100
3, 135168, Note_on_c, 1, 59, 120
3, 135356, Note_off_c, 1, 59, 100
3, 135360, Note_on_c, 1, 57, 120
3, 135360, Note_on_c, 1, 47, 120
3, 135548, Note_off_c, 1, 57, 100
3, 135552, Note_on_c, 1, 55, 120
3, 135740, Note_off_c, 1, 47, 100
3, 135740, Note_off_c, 1, 55, 100
3, 135744, Note_on_c, 1, 54, 120
3, 135932, Note_off_c, 1, 54, 100
3, 135936, Note_on_c, 1, 55, 120
3, 135936, Note_on_c, 1, 52, 120
3, 136124, Note_off_c, 1, 55, 100
3, 136128, Note_on_c, 1, 57, 117
3, 136316, Note_off_c, 1, 52, 100
3, 136316, Note_off_c, 1, 57, 100
3, 136320, Note_on_c, 1, 55, 113
3, 136508, Note_off_c, 1, 55, 100
3, 136512, Note_on_c, 1, 53, 109
3, 136512, Note_on_c, 1, 43, 109
3, 136700, Note_off_c, 1, 53, 100
3, 136704, Note_on_c, 1, 52, 105
3, 136892, Note_off_c, 1, 43, 100
3, 136892, Note_off_c, 1, 52, 100
3, 136896, Note_on_c, 1, 50, 101
3, 137084, Note_off_c, 1, 50, 100
3, 137088, Note_on_c, 1, 48, 80
3, 137468, Note_off_c, 1, 48, 100
3, 138624, Note_on_c, 1, 62, 80
3, 138812, Note_off_c, 1, 62, 100
3, 138816, Note_on_c, 1, 60, 80
3, 139196, Note_off_c, 1, 60, 100
3, 139200, Note_on_c, 1, 59, 80
3, 139388, Note_off_c, 1, 59, 100
3, 139392, Note_on_c, 1, 60, 80
3, 139772, Note_off_c, 1, 60, 100
3, 139776, Note_on_c, 1, 59, 80
3, 139964, Note_off_c, 1, 59, 100
3, 139968, Note_on_c, 1, 57, 80
3, 140348, Note_off_c, 1, 57, 100
3, 140352, Note_on_c, 1, 59, 80
3, 140352, Note_on_c, 1, 55, 80
3, 140540, Note_off_c, 1, 59, 100
3, 140540, Note_off_c, 1, 55, 100
3, 140544, Note_on_c, 1, 60, 80
3, 140544, Note_on_c, 1, 54, 80
3, 141116, Note_off_c, 1, 60, 100
3, 141116, Note_off_c, 1, 54, 100
3, 141120, Note_on_c, 1, 59, 80
3, 141120, Note_on_c, 1, 55, 80
3, 141692, Note_off_c, 1, 59, 100
3, 141692, Note_off_c, 1, 55, 100
3, 141696, Note_on_c, 1, 40, 80
3, 142076, Note_off_c, 1, 40, 100
3, 142080, Note_on_c, 1, 38, 80
3, 142268, Note_off_c, 1, 38, 100
3, 142272, Note_on_c, 1, 35, 80
3, 142652, Note_off_c, 1, 35, 100
3, 142656, Note_on_c, 1, 36, 80
3, 142844, Note_off_c, 1, 36, 100
3, 142848, Note_on_c, 1, 31, 80
3, 143420, Note_off_c, 1, 31, 100
3, 143424, Note_on_c, 1, 43, 80
3, 143424, Note_on_c, 1, 31, 80
3, 143804, Note_off_c, 1, 43, 100
3, 143804, Note_off_c, 1, 31, 100
3, 143808, Note_on_c, 1, 43, 80
3, 143808, Note_on_c, 1, 31, 80
3, 143996, Note_off_c, 1, 43, 100
3, 143996, Note_off_c, 1, 31, 100
3, 144000, Note_on_c, 1, 43, 80
3, 144000, Note_on_c, 1, 31, 80
3, 145148, Note_off_c, 1, 43, 100
3, 145148, Note_off_c, 1, 31, 100
3, 145152, Note_on_c, 1, 42, 80
3, 145152, Note_on_c, 1, 30, 80
3, 146300, Note_off_c, 1, 42, 100
3, 146300, Note_off_c, 1, 30, 100
3, 146304, Note_on_c, 1, 57, 80
3, 146304, Note_on_c, 1, 53, 80
3, 147452, Note_off_c, 1, 57, 100
3, 147452, Note_off_c, 1, 53, 100
3, 147456, Note_on_c, 1, 60, 85
3, 147456, Note_on_c, 1, 57, 85
3, 147456, Note_on_c, 1, 52, 85
3, 148604, Note_off_c, 1, 60, 100
3, 148604, Note_off_c, 1, 57, 100
3, 148604, Note_off_c, 1, 52, 100
3, 148608, Note_on_c, 1, 59, 90
3, 148608, Note_on_c, 1, 54, 90
3, 148608, Note_on_c, 1, 51, 90
3, 149756, Note_off_c, 1, 59, 100
3, 149756, Note_off_c, 1, 54, 100
3, 149756, Note_off_c, 1, 51, 100
3, 149760, Note_on_c, 1, 57, 95
3, 149760, Note_on_c, 1, 52, 95
3, 149760, Note_on_c, 1, 48, 95
3, 150908, Note_off_c, 1, 57, 100
3, 150908, Note_off_c, 1, 52, 100
3, 150908, Note_off_c, 1, 48, 100
3, 150912, Note_on_c, 1, 59, 80
3, 150912, Note_on_c, 1, 54, 80
3, 150912, Note_on_c, 1, 51, 80
3, 150912, Note_on_c, 1, 47, 80
3, 151292, Note_off_c, 1, 59, 100
3, 151292, Note_off_c, 1, 54, 100
3, 151292, Note_off_c, 1, 51, 100
3, 151292, Note_off_c, 1, 47, 100
3, 151488, Note_on_c, 1, 59, 80
3, 151488, Note_on_c, 1, 63, 80
3, 151676, Note_off_c, 1, 63, 100
3, 151680, Note_on_c, 1, 64, 80
3, 151868, Note_off_c, 1, 64, 100
3, 151872, Note_on_c, 1, 66, 80
3, 152060, Note_off_c, 1, 66, 100
3, 152064, Note_on_c, 1, 64, 80
3, 152828, Note_off_c, 1, 64, 100
3, 152832, Note_on_c, 1, 66, 80
3, 153020, Note_off_c, 1, 66, 100
3, 153024, Note_on_c, 1, 67, 80
3, 153212, Note_off_c, 1, 59, 100
3, 153212, Note_off_c, 1, 67, 100
3, 153216, Note_on_c, 1, 59, 80
3, 153404, Note_off_c, 1, 59, 100
3, 153408, Note_on_c, 1, 66, 80
3, 153596, Note_off_c, 1, 66, 100
3, 153600, Note_on_c, 1, 67, 81
3, 153788, Note_off_c, 1, 67, 100
3, 153792, Note_on_c, 1, 59, 81
3, 153980, Note_off_c, 1, 59, 100
3, 153984, Note_on_c, 1, 69, 82
3, 154172, Note_off_c, 1, 69, 100
3, 154176, Note_on_c, 1, 67, 82
3, 154364, Note_off_c, 1, 67, 100
3, 154368, Note_on_c, 1, 59, 83
3, 154556, Note_off_c, 1, 59, 100
3, 154560, Note_on_c, 1, 66, 84
3, 154748, Note_off_c, 1, 66, 100
3, 154752, Note_on_c, 1, 64, 84
3, 154940, Note_off_c, 1, 64, 100
3, 154944, Note_on_c, 1, 59, 85
3, 155132, Note_off_c, 1, 59, 100
3, 155136, Note_on_c, 1, 63, 85
3, 155324, Note_off_c, 1, 63, 100
3, 155328, Note_on_c, 1, 64, 86
3, 155516, Note_off_c, 1, 64, 100
3, 155520, Note_on_c, 1, 59, 86
3, 155712, Note_on_c, 1, 63, 87
3, 155900, Note_off_c, 1, 63, 100
3, 155904, Note_on_c, 1, 66, 88
3, 156092, Note_off_c, 1, 66, 100
3, 156096, Note_on_c, 1, 63, 88
3, 156284, Note_off_c, 1, 63, 100
3, 156288, Note_on_c, 1, 64, 89
3, 156476, Note_off_c, 1, 64, 100
3, 156480, Note_on_c, 1, 66, 89
3, 156668, Note_off_c, 1, 59, 100
3, 156668, Note_off_c, 1, 66, 100
3, 156672, Note_on_c, 1, 59, 90
3, 156864, Note_on_c, 1, 64, 91
3, 157052, Note_off_c, 1, 64, 100
3, 157056, Note_on_c, 1, 67, 91
3, 157244, Note_off_c, 1, 67, 100
3, 157248, Note_on_c, 1, 64, 92
3, 157436, Note_off_c, 1, 64, 100
3, 157440, Note_on_c, 1, 66, 92
3, 157628, Note_off_c, 1, 66, 100
3, 157632, Note_on_c, 1, 67, 93
3, 157820, Note_off_c, 1, 59, 100
3, 157820, Note_off_c, 1, 67, 100
3, 157824, Note_on_c, 1, 59, 93
3, 158012, Note_off_c, 1, 59, 100
3, 158016, Note_on_c, 1, 66, 94
3, 158204, Note_off_c, 1, 66, 100
3, 158208, Note_on_c, 1, 67, 95
3, 158396, Note_off_c, 1, 67, 100
3, 158400, Note_on_c, 1, 59, 95
3, 158588, Note_off_c, 1, 59, 100
3, 158592, Note_on_c, 1, 69, 96
3, 158780, Note_off_c, 1, 69, 100
3, 158784, Note_on_c, 1, 67, 96
3, 158972, Note_off_c, 1, 67, 100
3, 158976, Note_on_c, 1, 59, 97
3, 159164, Note_off_c, 1, 59, 100
3, 159168, Note_on_c, 1, 66, 98
3, 159356, Note_off_c, 1, 66, 100
3, 159360, Note_on_c, 1, 64, 98
3, 159548, Note_off_c, 1, 64, 100
3, 159552, Note_on_c, 1, 59, 99
3, 159740, Note_off_c, 1, 59, 100
3, 159744, Note_on_c, 1, 63, 99
3, 159932, Note_off_c, 1, 63, 100
3, 159936, Note_on_c, 1, 64, 100
3, 160124, Note_off_c, 1, 64, 100
3, 160128, Note_on_c, 1, 59, 100
3, 160316, Note_off_c, 1, 59, 100
3, 160320, Note_on_c, 1, 66, 101
3, 160508, Note_off_c, 1, 66, 100
3, 160512, Note_on_c, 1, 67, 102
3, 160700, Note_off_c, 1, 67, 100
3, 160704, Note_on_c, 1, 59, 102
3, 160892, Note_off_c, 1, 59, 100
3, 160896, Note_on_c, 1, 69, 103
3, 161084, Note_off_c, 1, 69, 100
3, 161088, Note_on_c, 1, 67, 103
3, 161276, Note_off_c, 1, 67, 100
3, 161280, Note_on_c, 1, 59, 104
3, 161468, Note_off_c, 1, 59, 100
3, 161472, Note_on_c, 1, 69, 105
3, 161660, Note_off_c, 1, 69, 100
3, 161664, Note_on_c, 1, 71, 105
3, 161852, Note_off_c, 1, 71, 100
3, 161856, Note_on_c, 1, 59, 106
3, 162044, Note_off_c, 1, 59, 100
3, 162048, Note_on_c, 1, 72, 106
3, 162236, Note_off_c, 1, 72, 100
3, 162240, Note_on_c, 1, 71, 107
3, 162428, Note_off_c, 1, 71, 100
3, 162432, Note_on_c, 1, 59, 107
3, 162620, Note_off_c, 1, 59, 100
3, 162624, Note_on_c, 1, 72, 108
3, 162812, Note_off_c, 1, 72, 100
3, 162816, Note_on_c, 1, 75, 109
3, 163004, Note_off_c, 1, 75, 100
3, 163008, Note_on_c, 1, 76, 109
3, 163196, Note_off_c, 1, 76, 100
3, 163200, Note_on_c, 1, 64, 110
3, 163388, Note_off_c, 1, 64, 100
3, 163392, Note_on_c, 1, 75, 110
3, 163580, Note_off_c, 1, 75, 100
3, 163584, Note_on_c, 1, 76, 111
3, 163772, Note_off_c, 1, 76, 100
3, 163776, Note_on_c, 1, 64, 112
3, 163964, Note_off_c, 1, 64, 100
3, 163968, Note_on_c, 1, 74, 112
3, 164156, Note_off_c, 1, 74, 100
3, 164160, Note_on_c, 1, 76, 113
3, 164540, Note_off_c, 1, 76, 100
3, 164544, Note_on_c, 1, 52, 114
3, 164732, Note_off_c, 1, 52, 100
3, 164736, Note_on_c, 1, 54, 114
3, 164924, Note_off_c, 1, 54, 100
3, 164928, Note_on_c, 1, 58, 80
3, 165116, Note_off_c, 1, 58, 100
3, 165120, Note_on_c, 1, 61, 80
3, 165308, Note_off_c, 1, 61, 100
3, 165312, Note_on_c, 1, 54, 80
3, 165500, Note_off_c, 1, 54, 100
3, 165504, Note_on_c, 1, 56, 80
3, 165692, Note_off_c, 1, 56, 100
3, 165696, Note_on_c, 1, 58, 80
3, 165884, Note_off_c, 1, 58, 100
3, 165888, Note_on_c, 1, 54, 80
3, 166076, Note_off_c, 1, 54, 100
3, 166080, Note_on_c, 1, 62, 80
3, 166268, Note_off_c, 1, 62, 100
3, 166272, Note_on_c, 1, 59, 80
3, 166460, Note_off_c, 1, 59, 100
3, 166464, Note_on_c, 1, 53, 80
3, 166652, Note_off_c, 1, 53, 100
3, 166656, Note_on_c, 1, 59, 80
3, 166844, Note_off_c, 1, 59, 100
3, 166848, Note_on_c, 1, 56, 80
3, 167036, Note_off_c, 1, 56, 100
3, 167040, Note_on_c, 1, 52, 80
3, 167228, Note_off_c, 1, 52, 100
3, 167232, Note_on_c, 1, 59, 80
3, 167420, Note_off_c, 1, 59, 100
3, 167424, Note_on_c, 1, 56, 80
3, 167612, Note_off_c, 1, 56, 100
3, 167616, Note_on_c, 1, 52, 80
3, 167804, Note_off_c, 1, 52, 100
3, 167808, Note_on_c, 1, 54, 80
3, 167996, Note_off_c, 1, 54, 100
3, 168000, Note_on_c, 1, 56, 80
3, 168188, Note_off_c, 1, 56, 100
3, 168192, Note_on_c, 1, 52, 80
3, 168380, Note_off_c, 1, 52, 100
3, 168384, Note_on_c, 1, 60, 80
3, 168572, Note_off_c, 1, 60, 100
3, 168576, Note_on_c, 1, 57, 80
3, 168764, Note_off_c, 1, 57, 100
3, 168768, Note_on_c, 1, 51, 80
3, 168956, Note_off_c, 1, 51, 100
3, 168960, Note_on_c, 1, 57, 80
3, 169148, Note_off_c, 1, 57, 100
3, 169152, Note_on_c, 1, 54, 80
3, 169340, Note_off_c, 1, 54, 100
3, 169344, Note_on_c, 1, 50, 80
3, 169532, Note_off_c, 1, 50, 100
3, 169536, Note_on_c, 1, 54, 80
3, 169724, Note_off_c, 1, 54, 100
3, 169728, Note_on_c, 1, 57, 80
3, 169916, Note_off_c, 1, 57, 100
3, 169920, Note_on_c, 1, 50, 80
3, 170108, Note_off_c, 1, 50, 100
3, 170112, Note_on_c, 1, 52, 80
3, 170300, Note_off_c, 1, 52, 100
3, 170304, Note_on_c, 1, 54, 80
3, 170492, Note_off_c, 1, 54, 100
3, 170496, Note_on_c, 1, 50, 80
3, 170684, Note_off_c, 1, 50, 100
3, 170688, Note_on_c, 1, 58, 80
3, 170876, Note_off_c, 1, 58, 100
3, 170880, Note_on_c, 1, 55, 80
3, 171068, Note_off_c, 1, 55, 100
3, 171072, Note_on_c, 1, 49, 80
3, 171260, Note_off_c, 1, 49, 100
3, 171264, Note_on_c, 1, 55, 80
3, 171452, Note_off_c, 1, 55, 100
3, 171456, Note_on_c, 1, 52, 80
3, 171644, Note_off_c, 1, 52, 100
3, 171648, Note_on_c, 1, 48, 80
3, 171840, Note_on_c, 1, 50, 80
3, 172028, Note_off_c, 1, 50, 100
3, 172032, Note_on_c, 1, 52, 80
3, 172220, Note_off_c, 1, 52, 100
3, 172224, Note_on_c, 1, 53, 80
3, 172412, Note_off_c, 1, 53, 100
3, 172416, Note_on_c, 1, 55, 80
3, 172604, Note_off_c, 1, 55, 100
3, 172608, Note_on_c, 1, 52, 80
3, 172796, Note_off_c, 1, 48, 100
3, 172796, Note_off_c, 1, 52, 100
3, 172800, Note_on_c, 1, 48, 80
3, 172992, Note_on_c, 1, 53, 80
3, 173180, Note_off_c, 1, 53, 100
3, 173184, Note_on_c, 1, 57, 80
3, 173372, Note_off_c, 1, 48, 100
3, 173372, Note_off_c, 1, 57, 100
3, 173376, Note_on_c, 1, 46, 80
3, 173376, Note_on_c, 1, 48, 80
3, 173564, Note_off_c, 1, 48, 100
3, 173568, Note_on_c, 1, 52, 80
3, 173756, Note_off_c, 1, 52, 100
3, 173760, Note_on_c, 1, 55, 80
3, 173948, Note_off_c, 1, 46, 100
3, 173948, Note_off_c, 1, 55, 100
3, 173952, Note_on_c, 1, 46, 80
3, 174144, Note_on_c, 1, 48, 80
3, 174332, Note_off_c, 1, 48, 100
3, 174336, Note_on_c, 1, 52, 80
3, 174524, Note_off_c, 1, 52, 100
3, 174528, Note_on_c, 1, 55, 80
3, 174716, Note_off_c, 1, 55, 100
3, 174720, Note_on_c, 1, 52, 80
3, 174908, Note_off_c, 1, 52, 100
3, 174912, Note_on_c, 1, 48, 80
3, 175100, Note_off_c, 1, 46, 100
3, 175100, Note_off_c, 1, 48, 100
3, 175104, Note_on_c, 1, 45, 80
3, 175296, Note_on_c, 1, 48, 80
3, 175484, Note_off_c, 1, 48, 100
3, 175488, Note_on_c, 1, 53, 80
3, 175676, Note_off_c, 1, 53, 100
3, 175680, Note_on_c, 1, 57, 80
3, 175868, Note_off_c, 1, 57, 100
3, 175872, Note_on_c, 1, 53, 80
3, 176060, Note_off_c, 1, 53, 100
3, 176064, Note_on_c, 1, 48, 80
3, 176252, Note_off_c, 1, 45, 100
3, 176252, Note_off_c, 1, 48, 100
3, 176256, Note_on_c, 1, 46, 70
3, 176448, Note_on_c, 1, 48, 70
3, 176636, Note_off_c, 1, 48, 100
3, 176640, Note_on_c, 1, 52, 70
3, 176828, Note_off_c, 1, 52, 100
3, 176832, Note_on_c, 1, 55, 70
3, 177020, Note_off_c, 1, 55, 100
3, 177024, Note_on_c, 1, 52, 70
3, 177212, Note_off_c, 1, 52, 100
3, 177216, Note_on_c, 1, 48, 70
3, 177404, Note_off_c, 1, 46, 100
3, 177404, Note_off_c, 1, 48, 100
3, 177408, Note_on_c, 1, 45, 70
3, 177600, Note_on_c, 1, 48, 70
3, 177788, Note_off_c, 1, 48, 100
3, 177792, Note_on_c, 1, 53, 70
3, 177980, Note_off_c, 1, 53, 100
3, 177984, Note_on_c, 1, 57, 70
3, 178172, Note_off_c, 1, 57, 100
3, 178176, Note_on_c, 1, 53, 70
3, 178364, Note_off_c, 1, 53, 100
3, 178368, Note_on_c, 1, 48, 70
3, 178556, Note_off_c, 1, 45, 100
3, 178556, Note_off_c, 1, 48, 100
3, 178560, Note_on_c, 1, 46, 70
3, 178560, Note_on_c, 1, 34, 70
3, 179708, Note_off_c, 1, 46, 100
3, 179708, Note_off_c, 1, 34, 100
3, 179712, Note_on_c, 1, 35, 91
3, 179712, Note_on_c, 1, 47, 91
3, 179900, Note_off_c, 1, 47, 100
3, 179904, Note_on_c, 1, 45, 95
3, 180092, Note_off_c, 1, 45, 100
3, 180096, Note_on_c, 1, 43, 99
3, 180284, Note_off_c, 1, 43, 100
3, 180288, Note_on_c, 1, 42, 102
3, 180476, Note_off_c, 1, 42, 100
3, 180480, Note_on_c, 1, 40, 106
3, 180668, Note_off_c, 1, 40, 100
3, 180672, Note_on_c, 1, 39, 109
3, 180860, Note_off_c, 1, 35, 100
3, 180860, Note_off_c, 1, 39, 100
3, 180864, Note_on_c, 1, 47, 110
3, 180864, Note_on_c, 1, 35, 110
3, 181244, Note_off_c, 1, 47, 100
3, 181244, Note_off_c, 1, 35, 100
3, 181440, Note_on_c, 1, 47, 110
3, 181440, Note_on_c, 1, 35, 110
3, 181820, Note_off_c, 1, 47, 100
3, 181820, Note_off_c, 1, 35, 100
3, 182016, Note_on_c, 1, 47, 110
3, 182016, Note_on_c, 1, 35, 110
3, 182396, Note_off_c, 1, 47, 100
3, 182396, Note_off_c, 1, 35, 100
3, 182592, Note_on_c, 1, 47, 110
3, 182592, Note_on_c, 1, 35, 110
3, 182972, Note_off_c, 1, 47, 100
3, 182972, Note_off_c, 1, 35, 100
3, 183168, Note_on_c, 1, 43, 110
3, 183168, Note_on_c, 1, 31, 110
3, 183740, Note_off_c, 1, 43, 100
3, 183740, Note_off_c, 1, 31, 100
3, 183744, Note_on_c, 1, 42, 110
3, 183744, Note_on_c, 1, 30, 110
3, 184316, Note_off_c, 1, 42, 100
3, 184316, Note_off_c, 1, 30, 100
3, 184320, Note_on_c, 1, 40, 110
3, 184320, Note_on_c, 1, 28, 110
3, 184892, Note_off_c, 1, 40, 100
3, 184892, Note_off_c, 1, 28, 100
3, 184896, Note_on_c, 1, 38, 110
3, 185276, Note_off_c, 1, 38, 100
3, 185280, Note_on_c, 1, 36, 110
3, 185468, Note_off_c, 1, 36, 100
3, 185472, Note_on_c, 1, 35, 120
3, 185660, Note_off_c, 1, 35, 100
3, 185664, Note_on_c, 1, 37, 120
3, 185852, Note_off_c, 1, 37, 100
3, 185856, Note_on_c, 1, 39, 120
3, 186044, Note_off_c, 1, 39, 100
3, 186048, Note_on_c, 1, 40, 120
3, 186236, Note_off_c, 1, 40, 100
3, 186240, Note_on_c, 1, 42, 120
3, 186428, Note_off_c, 1, 42, 100
3, 186432, Note_on_c, 1, 43, 120
3, 186620, Note_off_c, 1, 43, 100
3, 186624, Note_on_c, 1, 45, 120
3, 186812, Note_off_c, 1, 45, 100
3, 186816, Note_on_c, 1, 47, 120
3, 187004, Note_off_c, 1, 47, 100
3, 187008, Note_on_c, 1, 49, 120
3, 187196, Note_off_c, 1, 49, 100
3, 187200, Note_on_c, 1, 51, 120
3, 187388, Note_off_c, 1, 51, 100
3, 187392, Note_on_c, 1, 52, 120
3, 187580, Note_off_c, 1, 52, 100
3, 187584, Note_on_c, 1, 54, 120
3, 187772, Note_off_c, 1, 54, 100
3, 187776, Note_on_c, 1, 55, 120
3, 187964, Note_off_c, 1, 55, 100
3, 187968, Note_on_c, 1, 57, 120
3, 188156, Note_off_c, 1, 57, 100
3, 188160, Note_on_c, 1, 59, 120
3, 188348, Note_off_c, 1, 59, 100
3, 188352, Note_on_c, 1, 61, 120
3, 188540, Note_off_c, 1, 61, 100
3, 188544, Note_on_c, 1, 62, 120
3, 188732, Note_off_c, 1, 62, 100
3, 188736, Note_on_c, 1, 63, 120
3, 188924, Note_off_c, 1, 63, 100
3, 188928, Note_on_c, 1, 64, 120
3, 189116, Note_off_c, 1, 64, 100
3, 189120, Note_on_c, 1, 63, 120
3, 189308, Note_off_c, 1, 63, 100
3, 189312, Note_on_c, 1, 64, 120
3, 189500, Note_off_c, 1, 64, 100
3, 189504, Note_on_c, 1, 66, 120
3, 189692, Note_off_c, 1, 66, 100
3, 189696, Note_on_c, 1, 67, 120
3, 189884, Note_off_c, 1, 67, 100
3, 189888, Note_on_c, 1, 69, 120
3, 190076, Note_off_c, 1, 69, 100
3, 190080, Note_on_c, 1, 59, 120
3, 190080, Note_on_c, 1, 47, 120
3, 190460, Note_off_c, 1, 59, 100
3, 190460, Note_off_c, 1, 47, 100
3, 190656, Note_on_c, 1, 59, 120
3, 190656, Note_on_c, 1, 47, 120
3, 191036, Note_off_c, 1, 59, 100
3, 191036, Note_off_c, 1, 47, 100
3, 191232, Note_on_c, 1, 64, 120
3, 191232, Note_on_c, 1, 52, 120
3, 191612, Note_off_c, 1, 64, 100
3, 191612, Note_off_c, 1, 52, 100
3, 192384, Note_on_c, 1, 47, 80
3, 192764, Note_off_c, 1, 47, 100
3, 192960, Note_on_c, 1, 47, 80
3, 193340, Note_off_c, 1, 47, 100
3, 193536, Note_on_c, 1, 52, 80
3, 193916, Note_off_c, 1, 52, 100
3, 194688, Note_on_c, 1, 47, 80
3, 195260, Note_off_c, 1, 47, 100
3, 195264, Note_on_c, 1, 47, 80
3, 195836, Note_off_c, 1, 47, 100
3, 195840, Note_on_c, 1, 47, 80
3, 196412, Note_off_c, 1, 47, 100
3, 196416, Note_on_c, 1, 47, 80
3, 196988, Note_off_c, 1, 47, 100
3, 196992, Note_on_c, 1, 43, 80
3, 197564, Note_off_c, 1, 43, 100
3, 197568, Note_on_c, 1, 42, 80
3, 198140, Note_off_c, 1, 42, 100
3, 198144, Note_on_c, 1, 40, 80
3, 198716, Note_off_c, 1, 40, 100
3, 198720, Note_on_c, 1, 38, 85
3, 199292, Note_off_c, 1, 38, 100
3, 199296, Note_on_c, 1, 36, 91
3, 199868, Note_off_c, 1, 36, 100
3, 199872, Note_on_c, 1, 35, 97
3, 200444, Note_off_c, 1, 35, 100
3, 200448, Note_on_c, 1, 33, 103
3, 201020, Note_off_c, 1, 33, 100
3, 201024, Note_on_c, 1, 31, 109
3, 201596, Note_off_c, 1, 31, 100
3, 201600, Note_on_c, 1, 42, 120
3, 201600, Note_on_c, 1, 30, 120
3, 201980, Note_off_c, 1, 42, 100
3, 201980, Note_off_c, 1, 30, 100
3, 202176, Note_on_c, 1, 47, 120
3, 202176, Note_on_c, 1, 35, 120
3, 202556, Note_off_c, 1, 47, 100
3, 202556, Note_off_c, 1, 35, 100
3, 202752, Note_on_c, 1, 52, 120
3, 202752, Note_on_c, 1, 40, 120
3, 203900, Note_off_c, 1, 52, 100
3, 203900, Note_off_c, 1, 40, 100
3, 203900, End_track
0, 0, End_of_file
