0, 0, Header, 1, 3, 384
1, 0, Start_track
1, 0, Title_t, "L.v.Beethoven 3mov - Piano Sonata No.30 in E Major Op.109\000"
1, 0, Copyright_t, "Copyright(C) 1995-2009, Suzuki Software\000"
1, 0, Sequencer_specific, 9, 67, 123, 0, 88, 70, 48, 50, 0, 1
1, 0, Text_t, "XFhd:2000/10/15:JP:Classical::::L.v.Beethoven:::Kaoru Suzuki\000"
1, 0, Text_t, "XFln:JP:\203s\203A\203m\203\\\203i\203^\221æ30\224Ô\203z\222·\222²\215ì\225i109\201`\221æ3\212y\217Í:L.v.\203x\201[\203g\201[\203\224\203F\203\223:::\227é\202¿\202á\202ñ:\227é\202¿\202á\202ñ\000"
1, 0, Time_signature, 3, 2, 96, 8
1, 0, Sequencer_specific, 3, 0, 0, 65
1, 0, Sequencer_specific, 5, 0, 0, 119, 14, 0
1, 0, Tempo, 1333333
1, 8832, Tempo, 1500000
1, 9216, Tempo, 1333333
1, 18048, Tempo, 1500000
1, 18624, Tempo, 1333333
1, 22656, Tempo, 1500000
1, 23040, Tempo, 1333333
1, 26496, Tempo, 1395348
1, 27264, Tempo, 1500000
1, 27840, Tempo, 1333333
1, 31488, Tempo, 1395348
1, 31872, Tempo, 1538461
1, 32448, Tempo, 1333333
1, 35712, Tempo, 1395348
1, 36096, Tempo, 1500000
1, 36480, Tempo, 1666666
1, 36864, Tempo, 1333333
1, 43776, Tempo, 1276595
1, 45504, Tempo, 1333333
1, 45696, Tempo, 1428571
1, 46272, Tempo, 1333333
1, 52992, Tempo, 1276595
1, 54528, Tempo, 1333333
1, 54720, Tempo, 1395348
1, 54912, Tempo, 1500000
1, 55488, Tempo, 1333333
1, 72960, Tempo, 1500000
1, 73152, Tempo, 1714285
1, 73728, Tempo, 750000
1, 81792, Tempo, 789473
1, 82176, Tempo, 833333
1, 82560, Tempo, 882352
1, 82752, Tempo, 1000000
1, 82944, Tempo, 857142
1, 83136, Tempo, 800000
1, 83328, Tempo, 750000
1, 86784, Tempo, 779220
1, 87168, Tempo, 821917
1, 87360, Tempo, 857142
1, 87744, Tempo, 800000
1, 87936, Tempo, 750000
1, 91392, Tempo, 789473
1, 91776, Tempo, 821917
1, 91968, Tempo, 882352
1, 92160, Tempo, 833333
1, 92352, Tempo, 789473
1, 92544, Tempo, 750000
1, 96000, Tempo, 789473
1, 96384, Tempo, 821917
1, 96576, Tempo, 857142
1, 96768, Tempo, 800000
1, 96960, Tempo, 750000
1, 100608, Tempo, 779220
1, 100992, Tempo, 821917
1, 101184, Tempo, 882352
1, 101376, Tempo, 833333
1, 101568, Tempo, 789473
1, 101760, Tempo, 750000
1, 105216, Tempo, 789473
1, 105600, Tempo, 833333
1, 105792, Tempo, 882352
1, 105984, Tempo, 833333
1, 106176, Tempo, 789473
1, 106368, Tempo, 750000
1, 109440, Tempo, 857142
1, 110208, Tempo, 923076
1, 110400, Tempo, 1000000
1, 110496, Tempo, 1500000
1, 110592, Time_signature, 2, 2, 96, 8
1, 110592, Tempo, 400000
1, 129788, Tempo, 400000
1, 135168, Time_signature, 3, 3, 96, 8
1, 135168, Tempo, 789473
1, 146880, Tempo, 810810
1, 147072, Tempo, 857142
1, 147264, Tempo, 810810
1, 148992, Tempo, 789473
1, 160704, Tempo, 821917
1, 160896, Tempo, 857142
1, 161088, Tempo, 821917
1, 162048, Tempo, 833333
1, 162240, Tempo, 857142
1, 162432, Tempo, 869565
1, 162624, Tempo, 923076
1, 162816, Tempo, 857142
1, 162912, Tempo, 821917
1, 163008, Tempo, 789473
1, 174336, Tempo, 810810
1, 174528, Tempo, 833333
1, 174720, Tempo, 857142
1, 174912, Tempo, 821917
1, 176064, Tempo, 857142
1, 176160, Tempo, 895522
1, 176256, Tempo, 923076
1, 176448, Tempo, 833333
1, 176640, Tempo, 789473
1, 188352, Tempo, 821917
1, 188544, Tempo, 857142
1, 188640, Tempo, 895522
1, 188832, Tempo, 857142
1, 188928, Tempo, 833333
1, 189792, Tempo, 923076
1, 189888, Tempo, 1000000
1, 189984, Tempo, 1090909
1, 190080, Tempo, 1333333
1, 190464, Time_signature, 4, 2, 96, 8
1, 190464, Tempo, 300000
1, 244220, Tempo, 300000
1, 245760, Tempo, 303030
1, 247584, Tempo, 307692
1, 250368, Tempo, 342857
1, 251136, Tempo, 500000
1, 251520, Tempo, 600000
1, 251712, Tempo, 1000000
1, 251904, Time_signature, 3, 2, 96, 8
1, 251904, Tempo, 857142
1, 256512, Time_signature, 3, 3, 96, 8
1, 256512, Tempo, 631578
1, 262848, Time_signature, 1, 2, 96, 8
1, 262848, Tempo, 800000
1, 271680, Tempo, 833333
1, 271872, Tempo, 857142
1, 272064, Tempo, 882352
1, 272256, Tempo, 923076
1, 272352, Tempo, 1000000
1, 272448, Tempo, 923076
1, 272544, Tempo, 857142
1, 272640, Tempo, 800000
1, 285884, Tempo, 800000
1, 293184, Tempo, 857142
1, 293568, Tempo, 1000000
1, 293952, Tempo, 1200000
1, 294144, Tempo, 1500000
1, 294240, Tempo, 2000000
1, 294336, Time_signature, 3, 2, 96, 8
1, 294336, Tempo, 1333333
1, 302784, Tempo, 1395348
1, 303168, Tempo, 1500000
1, 303552, Tempo, 1428571
1, 303936, Tempo, 1333333
1, 306816, Tempo, 1395348
1, 307392, Tempo, 1500000
1, 307776, Tempo, 1578947
1, 308352, Tempo, 1395348
1, 308544, Tempo, 1333333
1, 311232, Tempo, 1428571
1, 311616, Tempo, 1500000
1, 312000, Tempo, 1714285
1, 312000, End_track
2, 0, Start_track
2, 0, Title_t, "Right"
2, 0, Control_c, 0, 0, 0
2, 0, Program_c, 0, 0
2, 0, Control_c, 0, 7, 100
2, 0, Control_c, 0, 10, 73
2, 0, Control_c, 0, 91, 127
2, 0, Key_signature, 4, "major"
2, 0, Note_on_c, 0, 59, 80
2, 0, Note_on_c, 0, 68, 80
2, 380, Note_off_c, 0, 59, 100
2, 380, Note_off_c, 0, 68, 100
2, 384, Note_on_c, 0, 64, 80
2, 384, Note_on_c, 0, 59, 80
2, 764, Note_off_c, 0, 59, 100
2, 768, Note_on_c, 0, 61, 80
2, 956, Note_off_c, 0, 64, 100
2, 960, Note_on_c, 0, 66, 80
2, 1148, Note_off_c, 0, 61, 100
2, 1148, Note_off_c, 0, 66, 100
2, 1152, Note_on_c, 0, 54, 80
2, 1152, Note_on_c, 0, 63, 80
2, 1532, Note_off_c, 0, 54, 100
2, 1532, Note_off_c, 0, 63, 100
2, 1536, Note_on_c, 0, 54, 80
2, 1536, Note_on_c, 0, 57, 80
2, 1536, Note_on_c, 0, 59, 80
2, 2300, Note_off_c, 0, 54, 100
2, 2300, Note_off_c, 0, 57, 100
2, 2300, Note_off_c, 0, 59, 100
2, 2304, Note_on_c, 0, 56, 80
2, 2304, Note_on_c, 0, 59, 80
2, 2304, Note_on_c, 0, 68, 80
2, 2684, Note_off_c, 0, 56, 100
2, 2684, Note_off_c, 0, 59, 100
2, 2684, Note_off_c, 0, 68, 100
2, 2688, Note_on_c, 0, 59, 80
2, 2688, Note_on_c, 0, 64, 80
2, 3068, Note_off_c, 0, 59, 100
2, 3072, Note_on_c, 0, 61, 80
2, 3260, Note_off_c, 0, 64, 100
2, 3264, Note_on_c, 0, 66, 80
2, 3452, Note_off_c, 0, 61, 100
2, 3452, Note_off_c, 0, 66, 100
2, 3456, Note_on_c, 0, 63, 80
2, 3456, Note_on_c, 0, 66, 80
2, 3836, Note_off_c, 0, 63, 100
2, 3836, Note_off_c, 0, 66, 100
2, 3840, Note_on_c, 0, 70, 80
2, 3840, Note_on_c, 0, 61, 80
2, 3840, Note_on_c, 0, 64, 80
2, 4220, Note_off_c, 0, 70, 100
2, 4220, Note_off_c, 0, 61, 100
2, 4220, Note_off_c, 0, 64, 100
2, 4224, Note_on_c, 0, 63, 80
2, 4224, Note_on_c, 0, 66, 80
2, 4224, Note_on_c, 0, 71, 80
2, 4604, Note_off_c, 0, 63, 100
2, 4604, Note_off_c, 0, 66, 100
2, 4604, Note_off_c, 0, 71, 100
2, 4608, Note_on_c, 0, 59, 80
2, 4628, Note_off_c, 0, 59, 100
2, 4632, Note_on_c, 0, 64, 80
2, 4652, Note_off_c, 0, 64, 100
2, 4656, Note_on_c, 0, 68, 80
2, 4676, Note_off_c, 0, 68, 100
2, 4680, Note_on_c, 0, 71, 80
2, 4988, Note_off_c, 0, 71, 100
2, 4992, Note_on_c, 0, 59, 80
2, 4992, Note_on_c, 0, 64, 80
2, 5372, Note_off_c, 0, 59, 100
2, 5376, Note_on_c, 0, 61, 80
2, 5564, Note_off_c, 0, 64, 100
2, 5568, Note_on_c, 0, 68, 80
2, 5660, Note_off_c, 0, 68, 100
2, 5664, Note_on_c, 0, 66, 80
2, 5756, Note_off_c, 0, 61, 100
2, 5756, Note_off_c, 0, 66, 100
2, 5760, Note_on_c, 0, 63, 80
2, 6140, Note_off_c, 0, 63, 100
2, 6144, Note_on_c, 0, 59, 80
2, 6384, Note_on_c, 0, 57, 80
2, 6428, Note_off_c, 0, 57, 100
2, 6432, Note_on_c, 0, 59, 80
2, 6476, Note_off_c, 0, 59, 100
2, 6480, Note_on_c, 0, 57, 80
2, 6500, Note_off_c, 0, 57, 100
2, 6504, Note_on_c, 0, 56, 80
2, 6524, Note_off_c, 0, 59, 100
2, 6524, Note_off_c, 0, 56, 100
2, 6528, Note_on_c, 0, 57, 80
2, 6908, Note_off_c, 0, 57, 100
2, 6912, Note_on_c, 0, 56, 80
2, 7292, Note_off_c, 0, 56, 100
2, 7296, Note_on_c, 0, 64, 83
2, 7296, Note_on_c, 0, 52, 83
2, 7868, Note_off_c, 0, 64, 100
2, 7872, Note_on_c, 0, 58, 89
2, 8060, Note_off_c, 0, 52, 100
2, 8060, Note_off_c, 0, 58, 100
2, 8064, Note_on_c, 0, 55, 80
2, 8064, Note_on_c, 0, 58, 80
2, 8444, Note_off_c, 0, 55, 100
2, 8448, Note_on_c, 0, 52, 80
2, 8828, Note_off_c, 0, 58, 100
2, 8828, Note_off_c, 0, 52, 100
2, 8832, Note_on_c, 0, 59, 80
2, 8832, Note_on_c, 0, 51, 80
2, 9212, Note_off_c, 0, 59, 100
2, 9212, Note_off_c, 0, 51, 100
2, 9216, Note_on_c, 0, 59, 80
2, 9216, Note_on_c, 0, 68, 80
2, 9596, Note_off_c, 0, 59, 100
2, 9596, Note_off_c, 0, 68, 100
2, 9600, Note_on_c, 0, 64, 80
2, 9600, Note_on_c, 0, 59, 80
2, 9980, Note_off_c, 0, 59, 100
2, 9984, Note_on_c, 0, 61, 80
2, 10172, Note_off_c, 0, 64, 100
2, 10176, Note_on_c, 0, 66, 80
2, 10364, Note_off_c, 0, 61, 100
2, 10364, Note_off_c, 0, 66, 100
2, 10368, Note_on_c, 0, 54, 80
2, 10368, Note_on_c, 0, 63, 80
2, 10748, Note_off_c, 0, 54, 100
2, 10748, Note_off_c, 0, 63, 100
2, 10752, Note_on_c, 0, 54, 80
2, 10752, Note_on_c, 0, 57, 80
2, 10752, Note_on_c, 0, 59, 80
2, 11516, Note_off_c, 0, 54, 100
2, 11516, Note_off_c, 0, 57, 100
2, 11516, Note_off_c, 0, 59, 100
2, 11520, Note_on_c, 0, 56, 80
2, 11520, Note_on_c, 0, 59, 80
2, 11520, Note_on_c, 0, 68, 80
2, 11900, Note_off_c, 0, 56, 100
2, 11900, Note_off_c, 0, 59, 100
2, 11900, Note_off_c, 0, 68, 100
2, 11904, Note_on_c, 0, 59, 80
2, 11904, Note_on_c, 0, 64, 80
2, 12284, Note_off_c, 0, 59, 100
2, 12288, Note_on_c, 0, 61, 80
2, 12476, Note_off_c, 0, 64, 100
2, 12480, Note_on_c, 0, 66, 80
2, 12668, Note_off_c, 0, 61, 100
2, 12668, Note_off_c, 0, 66, 100
2, 12672, Note_on_c, 0, 63, 80
2, 12672, Note_on_c, 0, 66, 80
2, 13052, Note_off_c, 0, 63, 100
2, 13052, Note_off_c, 0, 66, 100
2, 13056, Note_on_c, 0, 70, 80
2, 13056, Note_on_c, 0, 61, 80
2, 13056, Note_on_c, 0, 64, 80
2, 13436, Note_off_c, 0, 70, 100
2, 13436, Note_off_c, 0, 61, 100
2, 13436, Note_off_c, 0, 64, 100
2, 13440, Note_on_c, 0, 63, 80
2, 13440, Note_on_c, 0, 66, 80
2, 13440, Note_on_c, 0, 71, 80
2, 13820, Note_off_c, 0, 63, 100
2, 13820, Note_off_c, 0, 66, 100
2, 13820, Note_off_c, 0, 71, 100
2, 13824, Note_on_c, 0, 59, 80
2, 13844, Note_off_c, 0, 59, 100
2, 13848, Note_on_c, 0, 64, 80
2, 13868, Note_off_c, 0, 64, 100
2, 13872, Note_on_c, 0, 68, 80
2, 13892, Note_off_c, 0, 68, 100
2, 13896, Note_on_c, 0, 71, 80
2, 14204, Note_off_c, 0, 71, 100
2, 14208, Note_on_c, 0, 59, 80
2, 14208, Note_on_c, 0, 64, 80
2, 14588, Note_off_c, 0, 59, 100
2, 14592, Note_on_c, 0, 61, 80
2, 14780, Note_off_c, 0, 64, 100
2, 14784, Note_on_c, 0, 68, 80
2, 14876, Note_off_c, 0, 68, 100
2, 14880, Note_on_c, 0, 66, 80
2, 14972, Note_off_c, 0, 61, 100
2, 14972, Note_off_c, 0, 66, 100
2, 14976, Note_on_c, 0, 63, 80
2, 15356, Note_off_c, 0, 63, 100
2, 15360, Note_on_c, 0, 59, 80
2, 15600, Note_on_c, 0, 57, 80
2, 15644, Note_off_c, 0, 57, 100
2, 15648, Note_on_c, 0, 59, 80
2, 15692, Note_off_c, 0, 59, 100
2, 15696, Note_on_c, 0, 57, 80
2, 15716, Note_off_c, 0, 57, 100
2, 15720, Note_on_c, 0, 56, 80
2, 15740, Note_off_c, 0, 59, 100
2, 15740, Note_off_c, 0, 56, 100
2, 15744, Note_on_c, 0, 57, 80
2, 16124, Note_off_c, 0, 57, 100
2, 16128, Note_on_c, 0, 56, 80
2, 16508, Note_off_c, 0, 56, 100
2, 16512, Note_on_c, 0, 64, 83
2, 16512, Note_on_c, 0, 52, 83
2, 17084, Note_off_c, 0, 64, 100
2, 17088, Note_on_c, 0, 58, 89
2, 17276, Note_off_c, 0, 52, 100
2, 17276, Note_off_c, 0, 58, 100
2, 17280, Note_on_c, 0, 55, 80
2, 17280, Note_on_c, 0, 58, 80
2, 17660, Note_off_c, 0, 55, 100
2, 17664, Note_on_c, 0, 52, 80
2, 18044, Note_off_c, 0, 58, 100
2, 18044, Note_off_c, 0, 52, 100
2, 18048, Note_on_c, 0, 59, 80
2, 18048, Note_on_c, 0, 51, 80
2, 18428, Note_off_c, 0, 59, 100
2, 18428, Note_off_c, 0, 51, 100
2, 18432, Note_on_c, 0, 71, 80
2, 18812, Note_off_c, 0, 71, 100
2, 18816, Note_on_c, 0, 66, 80
2, 18816, Note_on_c, 0, 71, 80
2, 19196, Note_off_c, 0, 66, 100
2, 19200, Note_on_c, 0, 68, 80
2, 19388, Note_off_c, 0, 71, 100
2, 19392, Note_on_c, 0, 73, 80
2, 19580, Note_off_c, 0, 68, 100
2, 19580, Note_off_c, 0, 73, 100
2, 19584, Note_on_c, 0, 71, 80
2, 19964, Note_off_c, 0, 71, 100
2, 19968, Note_on_c, 0, 69, 80
2, 19968, Note_on_c, 0, 64, 80
2, 20348, Note_off_c, 0, 64, 100
2, 20352, Note_on_c, 0, 66, 80
2, 20540, Note_off_c, 0, 69, 100
2, 20544, Note_on_c, 0, 71, 80
2, 20732, Note_off_c, 0, 66, 100
2, 20732, Note_off_c, 0, 71, 100
2, 20736, Note_on_c, 0, 69, 80
2, 21116, Note_off_c, 0, 69, 100
2, 21120, Note_on_c, 0, 68, 80
2, 21120, Note_on_c, 0, 64, 80
2, 21500, Note_off_c, 0, 64, 100
2, 21504, Note_on_c, 0, 64, 80
2, 21692, Note_off_c, 0, 68, 100
2, 21696, Note_on_c, 0, 76, 80
2, 21884, Note_off_c, 0, 64, 100
2, 21884, Note_off_c, 0, 76, 100
2, 21888, Note_on_c, 0, 63, 80
2, 21888, Note_on_c, 0, 68, 80
2, 22268, Note_off_c, 0, 63, 100
2, 22268, Note_off_c, 0, 68, 100
2, 22272, Note_on_c, 0, 61, 80
2, 22272, Note_on_c, 0, 67, 80
2, 22652, Note_off_c, 0, 61, 100
2, 22652, Note_off_c, 0, 67, 100
2, 22656, Note_on_c, 0, 59, 80
2, 22656, Note_on_c, 0, 68, 80
2, 23036, Note_off_c, 0, 59, 100
2, 23036, Note_off_c, 0, 68, 100
2, 23040, Note_on_c, 0, 57, 80
2, 23068, Note_off_c, 0, 57, 100
2, 23072, Note_on_c, 0, 61, 80
2, 23100, Note_off_c, 0, 61, 100
2, 23104, Note_on_c, 0, 66, 81
2, 23132, Note_off_c, 0, 66, 100
2, 23136, Note_on_c, 0, 69, 82
2, 23420, Note_off_c, 0, 69, 100
2, 23424, Note_on_c, 0, 69, 88
2, 23996, Note_off_c, 0, 69, 100
2, 24000, Note_on_c, 0, 73, 101
2, 24188, Note_off_c, 0, 73, 100
2, 24288, Note_on_c, 0, 63, 107
2, 24316, Note_off_c, 0, 63, 100
2, 24320, Note_on_c, 0, 66, 108
2, 24348, Note_off_c, 0, 66, 100
2, 24352, Note_on_c, 0, 69, 109
2, 24380, Note_off_c, 0, 69, 100
2, 24384, Note_on_c, 0, 73, 109
2, 24764, Note_off_c, 0, 73, 100
2, 24768, Note_on_c, 0, 71, 100
2, 24956, Note_off_c, 0, 71, 100
2, 24960, Note_on_c, 0, 66, 96
2, 24960, Note_on_c, 0, 69, 96
2, 25148, Note_off_c, 0, 66, 100
2, 25148, Note_off_c, 0, 69, 100
2, 25152, Note_on_c, 0, 64, 91
2, 25152, Note_on_c, 0, 68, 91
2, 25340, Note_off_c, 0, 64, 100
2, 25340, Note_off_c, 0, 68, 100
2, 25344, Note_on_c, 0, 64, 80
2, 25344, Note_on_c, 0, 68, 80
2, 25628, Note_off_c, 0, 68, 100
2, 25632, Note_on_c, 0, 69, 80
2, 25724, Note_off_c, 0, 64, 100
2, 25724, Note_off_c, 0, 69, 100
2, 25728, Note_on_c, 0, 64, 80
2, 25728, Note_on_c, 0, 71, 80
2, 26108, Note_off_c, 0, 64, 100
2, 26112, Note_on_c, 0, 63, 80
2, 26300, Note_off_c, 0, 71, 100
2, 26304, Note_on_c, 0, 69, 80
2, 26492, Note_off_c, 0, 63, 100
2, 26492, Note_off_c, 0, 69, 100
2, 26496, Note_on_c, 0, 59, 80
2, 26496, Note_on_c, 0, 63, 80
2, 26496, Note_on_c, 0, 66, 80
2, 26496, Note_on_c, 0, 69, 80
2, 27260, Note_off_c, 0, 59, 100
2, 27260, Note_off_c, 0, 63, 100
2, 27260, Note_off_c, 0, 66, 100
2, 27260, Note_off_c, 0, 69, 100
2, 27264, Note_on_c, 0, 59, 80
2, 27264, Note_on_c, 0, 64, 80
2, 27264, Note_on_c, 0, 68, 80
2, 27644, Note_off_c, 0, 59, 100
2, 27644, Note_off_c, 0, 64, 100
2, 27644, Note_off_c, 0, 68, 100
2, 27648, Note_on_c, 0, 71, 80
2, 28028, Note_off_c, 0, 71, 100
2, 28032, Note_on_c, 0, 66, 80
2, 28032, Note_on_c, 0, 71, 80
2, 28412, Note_off_c, 0, 66, 100
2, 28416, Note_on_c, 0, 68, 80
2, 28604, Note_off_c, 0, 71, 100
2, 28608, Note_on_c, 0, 73, 80
2, 28796, Note_off_c, 0, 68, 100
2, 28796, Note_off_c, 0, 73, 100
2, 28800, Note_on_c, 0, 71, 80
2, 29180, Note_off_c, 0, 71, 100
2, 29184, Note_on_c, 0, 69, 80
2, 29184, Note_on_c, 0, 64, 80
2, 29564, Note_off_c, 0, 64, 100
2, 29568, Note_on_c, 0, 66, 80
2, 29756, Note_off_c, 0, 69, 100
2, 29760, Note_on_c, 0, 71, 80
2, 29948, Note_off_c, 0, 66, 100
2, 29948, Note_off_c, 0, 71, 100
2, 29952, Note_on_c, 0, 69, 80
2, 30332, Note_off_c, 0, 69, 100
2, 30336, Note_on_c, 0, 68, 80
2, 30336, Note_on_c, 0, 64, 80
2, 30716, Note_off_c, 0, 64, 100
2, 30720, Note_on_c, 0, 64, 80
2, 30908, Note_off_c, 0, 68, 100
2, 30912, Note_on_c, 0, 76, 80
2, 31100, Note_off_c, 0, 64, 100
2, 31100, Note_off_c, 0, 76, 100
2, 31104, Note_on_c, 0, 63, 80
2, 31104, Note_on_c, 0, 68, 80
2, 31484, Note_off_c, 0, 63, 100
2, 31484, Note_off_c, 0, 68, 100
2, 31488, Note_on_c, 0, 61, 80
2, 31488, Note_on_c, 0, 67, 80
2, 31868, Note_off_c, 0, 61, 100
2, 31868, Note_off_c, 0, 67, 100
2, 31872, Note_on_c, 0, 59, 80
2, 31872, Note_on_c, 0, 68, 80
2, 32252, Note_off_c, 0, 59, 100
2, 32252, Note_off_c, 0, 68, 100
2, 32256, Note_on_c, 0, 57, 80
2, 32284, Note_off_c, 0, 57, 100
2, 32288, Note_on_c, 0, 61, 80
2, 32316, Note_off_c, 0, 61, 100
2, 32320, Note_on_c, 0, 66, 81
2, 32348, Note_off_c, 0, 66, 100
2, 32352, Note_on_c, 0, 69, 82
2, 32636, Note_off_c, 0, 69, 100
2, 32640, Note_on_c, 0, 69, 88
2, 33212, Note_off_c, 0, 69, 100
2, 33216, Note_on_c, 0, 73, 101
2, 33404, Note_off_c, 0, 73, 100
2, 33504, Note_on_c, 0, 63, 107
2, 33532, Note_off_c, 0, 63, 100
2, 33536, Note_on_c, 0, 66, 108
2, 33564, Note_off_c, 0, 66, 100
2, 33568, Note_on_c, 0, 69, 109
2, 33596, Note_off_c, 0, 69, 100
2, 33600, Note_on_c, 0, 73, 109
2, 33980, Note_off_c, 0, 73, 100
2, 33984, Note_on_c, 0, 71, 100
2, 34172, Note_off_c, 0, 71, 100
2, 34176, Note_on_c, 0, 66, 91
2, 34176, Note_on_c, 0, 69, 91
2, 34364, Note_off_c, 0, 66, 100
2, 34364, Note_off_c, 0, 69, 100
2, 34368, Note_on_c, 0, 64, 81
2, 34368, Note_on_c, 0, 68, 81
2, 34556, Note_off_c, 0, 64, 100
2, 34556, Note_off_c, 0, 68, 100
2, 34560, Note_on_c, 0, 64, 80
2, 34560, Note_on_c, 0, 68, 80
2, 34844, Note_off_c, 0, 68, 100
2, 34848, Note_on_c, 0, 69, 80
2, 34940, Note_off_c, 0, 64, 100
2, 34940, Note_off_c, 0, 69, 100
2, 34944, Note_on_c, 0, 64, 80
2, 34944, Note_on_c, 0, 71, 80
2, 35324, Note_off_c, 0, 64, 100
2, 35328, Note_on_c, 0, 63, 80
2, 35516, Note_off_c, 0, 71, 100
2, 35520, Note_on_c, 0, 69, 80
2, 35708, Note_off_c, 0, 63, 100
2, 35708, Note_off_c, 0, 69, 100
2, 35712, Note_on_c, 0, 59, 80
2, 35712, Note_on_c, 0, 63, 80
2, 35712, Note_on_c, 0, 66, 80
2, 35712, Note_on_c, 0, 69, 80
2, 36476, Note_off_c, 0, 59, 100
2, 36476, Note_off_c, 0, 63, 100
2, 36476, Note_off_c, 0, 66, 100
2, 36476, Note_off_c, 0, 69, 100
2, 36480, Note_on_c, 0, 59, 80
2, 36480, Note_on_c, 0, 64, 80
2, 36480, Note_on_c, 0, 68, 80
2, 36860, Note_off_c, 0, 59, 100
2, 36860, Note_off_c, 0, 64, 100
2, 36860, Note_off_c, 0, 68, 100
2, 36864, Note_on_c, 0, 71, 80
2, 36956, Note_off_c, 0, 71, 100
2, 36960, Note_on_c, 0, 83, 80
2, 37628, Note_off_c, 0, 83, 100
2, 37632, Note_on_c, 0, 76, 80
2, 37916, Note_off_c, 0, 76, 100
2, 37920, Note_on_c, 0, 78, 80
2, 38012, Note_off_c, 0, 78, 100
2, 38016, Note_on_c, 0, 76, 80
2, 38396, Note_off_c, 0, 76, 100
2, 38400, Note_on_c, 0, 75, 80
2, 39116, Note_off_c, 0, 75, 100
2, 39120, Note_on_c, 0, 71, 80
2, 39164, Note_off_c, 0, 71, 100
2, 39168, Note_on_c, 0, 71, 80
2, 39260, Note_off_c, 0, 71, 100
2, 39264, Note_on_c, 0, 83, 80
2, 39740, Note_off_c, 0, 83, 100
2, 39744, Note_on_c, 0, 75, 80
2, 39932, Note_off_c, 0, 75, 100
2, 39936, Note_on_c, 0, 76, 80
2, 39968, Note_off_c, 0, 76, 100
2, 39972, Note_on_c, 0, 78, 80
2, 40004, Note_off_c, 0, 78, 100
2, 40008, Note_on_c, 0, 76, 80
2, 40040, Note_off_c, 0, 76, 100
2, 40044, Note_on_c, 0, 75, 80
2, 40080, Note_off_c, 0, 75, 100
2, 40084, Note_on_c, 0, 76, 80
2, 40124, Note_off_c, 0, 76, 100
2, 40128, Note_on_c, 0, 78, 80
2, 40220, Note_off_c, 0, 78, 100
2, 40224, Note_on_c, 0, 80, 80
2, 40316, Note_off_c, 0, 80, 100
2, 40320, Note_on_c, 0, 80, 80
2, 40700, Note_off_c, 0, 80, 100
2, 40704, Note_on_c, 0, 78, 80
2, 41276, Note_off_c, 0, 78, 100
2, 41280, Note_on_c, 0, 75, 80
2, 41468, Note_off_c, 0, 75, 100
2, 41472, Note_on_c, 0, 71, 80
2, 41564, Note_off_c, 0, 71, 100
2, 41568, Note_on_c, 0, 83, 80
2, 42044, Note_off_c, 0, 83, 100
2, 42048, Note_on_c, 0, 80, 80
2, 42236, Note_off_c, 0, 80, 100
2, 42240, Note_on_c, 0, 78, 80
2, 42524, Note_off_c, 0, 78, 100
2, 42528, Note_on_c, 0, 76, 80
2, 42620, Note_off_c, 0, 76, 100
2, 42624, Note_on_c, 0, 76, 80
2, 42812, Note_off_c, 0, 76, 100
2, 42816, Note_on_c, 0, 75, 80
2, 43196, Note_off_c, 0, 75, 100
2, 43200, Note_on_c, 0, 73, 80
2, 43388, Note_off_c, 0, 73, 100
2, 43392, Note_on_c, 0, 71, 80
2, 43580, Note_off_c, 0, 71, 100
2, 43584, Note_on_c, 0, 69, 80
2, 43772, Note_off_c, 0, 69, 100
2, 43776, Note_on_c, 0, 69, 80
2, 43964, Note_off_c, 0, 69, 100
2, 43968, Note_on_c, 0, 68, 80
2, 44156, Note_off_c, 0, 68, 100
2, 44160, Note_on_c, 0, 66, 80
2, 44348, Note_off_c, 0, 66, 100
2, 44352, Note_on_c, 0, 71, 80
2, 44540, Note_off_c, 0, 71, 100
2, 44544, Note_on_c, 0, 70, 80
2, 44736, Note_on_c, 0, 76, 80
2, 44924, Note_off_c, 0, 70, 100
2, 44924, Note_off_c, 0, 76, 100
2, 44928, Note_on_c, 0, 70, 80
2, 44928, Note_on_c, 0, 78, 80
2, 45116, Note_off_c, 0, 78, 100
2, 45120, Note_on_c, 0, 76, 80
2, 45308, Note_off_c, 0, 76, 100
2, 45312, Note_on_c, 0, 78, 80
2, 45500, Note_off_c, 0, 78, 100
2, 45504, Note_on_c, 0, 79, 80
2, 45692, Note_off_c, 0, 70, 100
2, 45692, Note_off_c, 0, 79, 100
2, 45696, Note_on_c, 0, 71, 80
2, 45696, Note_on_c, 0, 75, 80
2, 45980, Note_off_c, 0, 71, 100
2, 45980, Note_off_c, 0, 75, 100
2, 45984, Note_on_c, 0, 71, 80
2, 46076, Note_off_c, 0, 71, 100
2, 46080, Note_on_c, 0, 71, 80
2, 46172, Note_off_c, 0, 71, 100
2, 46176, Note_on_c, 0, 83, 80
2, 46844, Note_off_c, 0, 83, 100
2, 46848, Note_on_c, 0, 76, 80
2, 47132, Note_off_c, 0, 76, 100
2, 47136, Note_on_c, 0, 78, 80
2, 47228, Note_off_c, 0, 78, 100
2, 47232, Note_on_c, 0, 76, 80
2, 47612, Note_off_c, 0, 76, 100
2, 47616, Note_on_c, 0, 75, 80
2, 48332, Note_off_c, 0, 75, 100
2, 48336, Note_on_c, 0, 71, 80
2, 48380, Note_off_c, 0, 71, 100
2, 48384, Note_on_c, 0, 71, 80
2, 48476, Note_off_c, 0, 71, 100
2, 48480, Note_on_c, 0, 83, 80
2, 48956, Note_off_c, 0, 83, 100
2, 48960, Note_on_c, 0, 75, 80
2, 49148, Note_off_c, 0, 75, 100
2, 49152, Note_on_c, 0, 76, 80
2, 49184, Note_off_c, 0, 76, 100
2, 49188, Note_on_c, 0, 78, 80
2, 49220, Note_off_c, 0, 78, 100
2, 49224, Note_on_c, 0, 76, 80
2, 49256, Note_off_c, 0, 76, 100
2, 49260, Note_on_c, 0, 75, 80
2, 49296, Note_off_c, 0, 75, 100
2, 49300, Note_on_c, 0, 76, 80
2, 49340, Note_off_c, 0, 76, 100
2, 49344, Note_on_c, 0, 78, 80
2, 49436, Note_off_c, 0, 78, 100
2, 49440, Note_on_c, 0, 80, 80
2, 49532, Note_off_c, 0, 80, 100
2, 49536, Note_on_c, 0, 80, 80
2, 49916, Note_off_c, 0, 80, 100
2, 49920, Note_on_c, 0, 78, 80
2, 50492, Note_off_c, 0, 78, 100
2, 50496, Note_on_c, 0, 75, 80
2, 50684, Note_off_c, 0, 75, 100
2, 50688, Note_on_c, 0, 71, 80
2, 50780, Note_off_c, 0, 71, 100
2, 50784, Note_on_c, 0, 83, 80
2, 51260, Note_off_c, 0, 83, 100
2, 51264, Note_on_c, 0, 80, 80
2, 51452, Note_off_c, 0, 80, 100
2, 51456, Note_on_c, 0, 78, 80
2, 51740, Note_off_c, 0, 78, 100
2, 51744, Note_on_c, 0, 76, 80
2, 51836, Note_off_c, 0, 76, 100
2, 51840, Note_on_c, 0, 76, 80
2, 52028, Note_off_c, 0, 76, 100
2, 52032, Note_on_c, 0, 75, 80
2, 52412, Note_off_c, 0, 75, 100
2, 52416, Note_on_c, 0, 73, 80
2, 52604, Note_off_c, 0, 73, 100
2, 52608, Note_on_c, 0, 71, 80
2, 52796, Note_off_c, 0, 71, 100
2, 52800, Note_on_c, 0, 69, 80
2, 52988, Note_off_c, 0, 69, 100
2, 52992, Note_on_c, 0, 69, 80
2, 53180, Note_off_c, 0, 69, 100
2, 53184, Note_on_c, 0, 68, 80
2, 53372, Note_off_c, 0, 68, 100
2, 53376, Note_on_c, 0, 66, 80
2, 53564, Note_off_c, 0, 66, 100
2, 53568, Note_on_c, 0, 71, 80
2, 53756, Note_off_c, 0, 71, 100
2, 53760, Note_on_c, 0, 70, 80
2, 53952, Note_on_c, 0, 76, 80
2, 54140, Note_off_c, 0, 70, 100
2, 54140, Note_off_c, 0, 76, 100
2, 54144, Note_on_c, 0, 70, 80
2, 54144, Note_on_c, 0, 78, 80
2, 54332, Note_off_c, 0, 78, 100
2, 54336, Note_on_c, 0, 76, 80
2, 54524, Note_off_c, 0, 76, 100
2, 54528, Note_on_c, 0, 78, 80
2, 54716, Note_off_c, 0, 78, 100
2, 54720, Note_on_c, 0, 79, 80
2, 54908, Note_off_c, 0, 70, 100
2, 54908, Note_off_c, 0, 79, 100
2, 54912, Note_on_c, 0, 71, 80
2, 54912, Note_on_c, 0, 75, 80
2, 55196, Note_off_c, 0, 71, 100
2, 55196, Note_off_c, 0, 75, 100
2, 55200, Note_on_c, 0, 71, 80
2, 55292, Note_off_c, 0, 71, 100
2, 55296, Note_on_c, 0, 71, 80
2, 55388, Note_off_c, 0, 71, 100
2, 55392, Note_on_c, 0, 83, 80
2, 55868, Note_off_c, 0, 83, 100
2, 55872, Note_on_c, 0, 71, 80
2, 56060, Note_off_c, 0, 71, 100
2, 56064, Note_on_c, 0, 72, 80
2, 56348, Note_off_c, 0, 72, 100
2, 56352, Note_on_c, 0, 73, 80
2, 56444, Note_off_c, 0, 73, 100
2, 56448, Note_on_c, 0, 73, 80
2, 56540, Note_off_c, 0, 73, 100
2, 56544, Note_on_c, 0, 81, 80
2, 57020, Note_off_c, 0, 81, 100
2, 57024, Note_on_c, 0, 69, 80
2, 57212, Note_off_c, 0, 69, 100
2, 57216, Note_on_c, 0, 70, 80
2, 57500, Note_off_c, 0, 70, 100
2, 57504, Note_on_c, 0, 71, 80
2, 57596, Note_off_c, 0, 71, 100
2, 57600, Note_on_c, 0, 71, 80
2, 57692, Note_off_c, 0, 71, 100
2, 57696, Note_on_c, 0, 80, 80
2, 58172, Note_off_c, 0, 80, 100
2, 58176, Note_on_c, 0, 68, 80
2, 58364, Note_off_c, 0, 68, 100
2, 58368, Note_on_c, 0, 64, 80
2, 58368, Note_on_c, 0, 69, 80
2, 58652, Note_off_c, 0, 69, 100
2, 58656, Note_on_c, 0, 76, 80
2, 58748, Note_off_c, 0, 76, 100
2, 58752, Note_on_c, 0, 76, 80
2, 58940, Note_off_c, 0, 64, 64
2, 58940, Note_off_c, 0, 76, 100
2, 58944, Note_on_c, 0, 63, 85
2, 58944, Note_on_c, 0, 75, 85
2, 59324, Note_off_c, 0, 63, 100
2, 59324, Note_off_c, 0, 75, 100
2, 59328, Note_on_c, 0, 61, 97
2, 59328, Note_on_c, 0, 67, 97
2, 59516, Note_off_c, 0, 61, 100
2, 59516, Note_off_c, 0, 67, 100
2, 59520, Note_on_c, 0, 59, 103
2, 59520, Note_on_c, 0, 68, 103
2, 59708, Note_off_c, 0, 59, 100
2, 59708, Note_off_c, 0, 68, 100
2, 59712, Note_on_c, 0, 57, 109
2, 59712, Note_on_c, 0, 69, 109
2, 59900, Note_off_c, 0, 57, 100
2, 59900, Note_off_c, 0, 69, 100
2, 59904, Note_on_c, 0, 81, 110
2, 59996, Note_off_c, 0, 81, 100
2, 60000, Note_on_c, 0, 93, 110
2, 60476, Note_off_c, 0, 93, 100
2, 60480, Note_on_c, 0, 80, 80
2, 60668, Note_off_c, 0, 80, 100
2, 60672, Note_on_c, 0, 81, 80
2, 60956, Note_off_c, 0, 81, 100
2, 60960, Note_on_c, 0, 85, 80
2, 61052, Note_off_c, 0, 85, 100
2, 61056, Note_on_c, 0, 82, 80
2, 61340, Note_off_c, 0, 82, 100
2, 61344, Note_on_c, 0, 85, 80
2, 61436, Note_off_c, 0, 85, 100
2, 61440, Note_on_c, 0, 82, 80
2, 61724, Note_off_c, 0, 82, 100
2, 61728, Note_on_c, 0, 83, 80
2, 61820, Note_off_c, 0, 83, 100
2, 61824, Note_on_c, 0, 81, 80
2, 62108, Note_off_c, 0, 81, 100
2, 62112, Note_on_c, 0, 80, 80
2, 62204, Note_off_c, 0, 80, 100
2, 62208, Note_on_c, 0, 80, 80
2, 62252, Note_off_c, 0, 80, 100
2, 62256, Note_on_c, 0, 92, 80
2, 62396, Note_off_c, 0, 92, 100
2, 62400, Note_on_c, 0, 80, 80
2, 62444, Note_off_c, 0, 80, 100
2, 62448, Note_on_c, 0, 88, 80
2, 62684, Note_off_c, 0, 88, 100
2, 62688, Note_on_c, 0, 87, 80
2, 62780, Note_off_c, 0, 87, 100
2, 62784, Note_on_c, 0, 85, 80
2, 63068, Note_off_c, 0, 85, 100
2, 63072, Note_on_c, 0, 83, 80
2, 63164, Note_off_c, 0, 83, 100
2, 63168, Note_on_c, 0, 81, 80
2, 63548, Note_off_c, 0, 81, 64
2, 63552, Note_on_c, 0, 82, 80
2, 63836, Note_off_c, 0, 82, 100
2, 63840, Note_on_c, 0, 83, 80
2, 63932, Note_off_c, 0, 83, 100
2, 63936, Note_on_c, 0, 78, 80
2, 64124, Note_off_c, 0, 78, 100
2, 64128, Note_on_c, 0, 80, 80
2, 64412, Note_off_c, 0, 80, 100
2, 64416, Note_on_c, 0, 78, 80
2, 64508, Note_off_c, 0, 78, 100
2, 64512, Note_on_c, 0, 78, 80
2, 64604, Note_off_c, 0, 78, 100
2, 64608, Note_on_c, 0, 83, 80
2, 65084, Note_off_c, 0, 83, 100
2, 65088, Note_on_c, 0, 71, 80
2, 65276, Note_off_c, 0, 71, 100
2, 65280, Note_on_c, 0, 72, 80
2, 65564, Note_off_c, 0, 72, 100
2, 65568, Note_on_c, 0, 73, 80
2, 65660, Note_off_c, 0, 73, 100
2, 65664, Note_on_c, 0, 73, 80
2, 65756, Note_off_c, 0, 73, 100
2, 65760, Note_on_c, 0, 81, 80
2, 66236, Note_off_c, 0, 81, 100
2, 66240, Note_on_c, 0, 69, 80
2, 66428, Note_off_c, 0, 69, 100
2, 66432, Note_on_c, 0, 70, 80
2, 66716, Note_off_c, 0, 70, 100
2, 66720, Note_on_c, 0, 71, 80
2, 66812, Note_off_c, 0, 71, 100
2, 66816, Note_on_c, 0, 71, 80
2, 66908, Note_off_c, 0, 71, 100
2, 66912, Note_on_c, 0, 80, 80
2, 67388, Note_off_c, 0, 80, 100
2, 67392, Note_on_c, 0, 68, 80
2, 67580, Note_off_c, 0, 68, 100
2, 67584, Note_on_c, 0, 64, 80
2, 67584, Note_on_c, 0, 69, 80
2, 67868, Note_off_c, 0, 69, 100
2, 67872, Note_on_c, 0, 76, 80
2, 67964, Note_off_c, 0, 76, 100
2, 67968, Note_on_c, 0, 76, 80
2, 68156, Note_off_c, 0, 64, 64
2, 68156, Note_off_c, 0, 76, 100
2, 68160, Note_on_c, 0, 63, 85
2, 68160, Note_on_c, 0, 75, 85
2, 68540, Note_off_c, 0, 63, 100
2, 68540, Note_off_c, 0, 75, 100
2, 68544, Note_on_c, 0, 61, 97
2, 68544, Note_on_c, 0, 67, 97
2, 68732, Note_off_c, 0, 61, 100
2, 68732, Note_off_c, 0, 67, 100
2, 68736, Note_on_c, 0, 59, 103
2, 68736, Note_on_c, 0, 68, 103
2, 68924, Note_off_c, 0, 59, 100
2, 68924, Note_off_c, 0, 68, 100
2, 68928, Note_on_c, 0, 57, 109
2, 68928, Note_on_c, 0, 69, 109
2, 69116, Note_off_c, 0, 57, 100
2, 69116, Note_off_c, 0, 69, 100
2, 69120, Note_on_c, 0, 81, 110
2, 69212, Note_off_c, 0, 81, 100
2, 69216, Note_on_c, 0, 93, 110
2, 69692, Note_off_c, 0, 93, 100
2, 69696, Note_on_c, 0, 80, 80
2, 69884, Note_off_c, 0, 80, 100
2, 69888, Note_on_c, 0, 81, 80
2, 70172, Note_off_c, 0, 81, 100
2, 70176, Note_on_c, 0, 85, 80
2, 70268, Note_off_c, 0, 85, 100
2, 70272, Note_on_c, 0, 82, 80
2, 70556, Note_off_c, 0, 82, 100
2, 70560, Note_on_c, 0, 85, 80
2, 70652, Note_off_c, 0, 85, 100
2, 70656, Note_on_c, 0, 82, 80
2, 70940, Note_off_c, 0, 82, 100
2, 70944, Note_on_c, 0, 83, 80
2, 71036, Note_off_c, 0, 83, 100
2, 71040, Note_on_c, 0, 81, 80
2, 71324, Note_off_c, 0, 81, 100
2, 71328, Note_on_c, 0, 80, 80
2, 71420, Note_off_c, 0, 80, 100
2, 71424, Note_on_c, 0, 80, 80
2, 71468, Note_off_c, 0, 80, 100
2, 71472, Note_on_c, 0, 92, 80
2, 71612, Note_off_c, 0, 92, 100
2, 71616, Note_on_c, 0, 80, 80
2, 71660, Note_off_c, 0, 80, 100
2, 71664, Note_on_c, 0, 88, 80
2, 71900, Note_off_c, 0, 88, 100
2, 71904, Note_on_c, 0, 87, 80
2, 71996, Note_off_c, 0, 87, 100
2, 72000, Note_on_c, 0, 85, 80
2, 72284, Note_off_c, 0, 85, 100
2, 72288, Note_on_c, 0, 83, 80
2, 72380, Note_off_c, 0, 83, 100
2, 72384, Note_on_c, 0, 81, 80
2, 72764, Note_off_c, 0, 81, 64
2, 72768, Note_on_c, 0, 82, 80
2, 73052, Note_off_c, 0, 82, 100
2, 73056, Note_on_c, 0, 83, 80
2, 73148, Note_off_c, 0, 83, 100
2, 73152, Note_on_c, 0, 78, 80
2, 73340, Note_off_c, 0, 78, 100
2, 73344, Note_on_c, 0, 80, 80
2, 73724, Note_off_c, 0, 80, 100
2, 73824, Note_on_c, 0, 59, 80
2, 73916, Note_off_c, 0, 59, 100
2, 73920, Note_on_c, 0, 68, 80
2, 74012, Note_off_c, 0, 68, 100
2, 74208, Note_on_c, 0, 64, 80
2, 74300, Note_off_c, 0, 64, 100
2, 74304, Note_on_c, 0, 59, 80
2, 74396, Note_off_c, 0, 59, 100
2, 74592, Note_on_c, 0, 61, 80
2, 74684, Note_off_c, 0, 61, 100
2, 74688, Note_on_c, 0, 66, 80
2, 74780, Note_off_c, 0, 66, 100
2, 74976, Note_on_c, 0, 63, 80
2, 75068, Note_off_c, 0, 63, 100
2, 75072, Note_on_c, 0, 54, 80
2, 75164, Note_off_c, 0, 54, 100
2, 75360, Note_on_c, 0, 52, 80
2, 75452, Note_off_c, 0, 52, 100
2, 75456, Note_on_c, 0, 59, 80
2, 75548, Note_off_c, 0, 59, 100
2, 75744, Note_on_c, 0, 59, 80
2, 75836, Note_off_c, 0, 59, 100
2, 75840, Note_on_c, 0, 54, 80
2, 75932, Note_off_c, 0, 54, 100
2, 76128, Note_on_c, 0, 68, 80
2, 76220, Note_off_c, 0, 68, 100
2, 76224, Note_on_c, 0, 80, 80
2, 76316, Note_off_c, 0, 80, 100
2, 76512, Note_on_c, 0, 76, 80
2, 76604, Note_off_c, 0, 76, 100
2, 76608, Note_on_c, 0, 71, 80
2, 76700, Note_off_c, 0, 71, 100
2, 76896, Note_on_c, 0, 73, 80
2, 76988, Note_off_c, 0, 73, 100
2, 76992, Note_on_c, 0, 78, 80
2, 77084, Note_off_c, 0, 78, 100
2, 77280, Note_on_c, 0, 75, 81
2, 77372, Note_off_c, 0, 75, 100
2, 77376, Note_on_c, 0, 78, 82
2, 77468, Note_off_c, 0, 78, 100
2, 77664, Note_on_c, 0, 82, 85
2, 77756, Note_off_c, 0, 82, 100
2, 77760, Note_on_c, 0, 76, 86
2, 77852, Note_off_c, 0, 76, 100
2, 78048, Note_on_c, 0, 75, 89
2, 78048, Note_on_c, 0, 78, 89
2, 78140, Note_off_c, 0, 75, 100
2, 78140, Note_off_c, 0, 78, 100
2, 78144, Note_on_c, 0, 83, 91
2, 78236, Note_off_c, 0, 83, 100
2, 78432, Note_on_c, 0, 83, 94
2, 78524, Note_off_c, 0, 83, 100
2, 78528, Note_on_c, 0, 76, 95
2, 78620, Note_off_c, 0, 76, 100
2, 78816, Note_on_c, 0, 80, 98
2, 78908, Note_off_c, 0, 80, 100
2, 78912, Note_on_c, 0, 88, 99
2, 79004, Note_off_c, 0, 88, 100
2, 79200, Note_on_c, 0, 88, 98
2, 79292, Note_off_c, 0, 88, 100
2, 79296, Note_on_c, 0, 90, 97
2, 79388, Note_off_c, 0, 90, 100
2, 79584, Note_on_c, 0, 88, 93
2, 79676, Note_off_c, 0, 88, 100
2, 79680, Note_on_c, 0, 87, 92
2, 79772, Note_off_c, 0, 87, 100
2, 79968, Note_on_c, 0, 87, 88
2, 80060, Note_off_c, 0, 87, 100
2, 80064, Note_on_c, 0, 85, 87
2, 80156, Note_off_c, 0, 85, 100
2, 80352, Note_on_c, 0, 83, 83
2, 80444, Note_off_c, 0, 83, 100
2, 80448, Note_on_c, 0, 81, 82
2, 80540, Note_off_c, 0, 81, 100
2, 80736, Note_on_c, 0, 81, 81
2, 80828, Note_off_c, 0, 81, 100
2, 80832, Note_on_c, 0, 80, 83
2, 80924, Note_off_c, 0, 80, 100
2, 81120, Note_on_c, 0, 80, 89
2, 81212, Note_off_c, 0, 80, 100
2, 81216, Note_on_c, 0, 81, 90
2, 81308, Note_off_c, 0, 81, 100
2, 81504, Note_on_c, 0, 82, 96
2, 81596, Note_off_c, 0, 82, 100
2, 81600, Note_on_c, 0, 88, 98
2, 81692, Note_off_c, 0, 88, 100
2, 81888, Note_on_c, 0, 82, 99
2, 81888, Note_on_c, 0, 88, 99
2, 81980, Note_off_c, 0, 82, 100
2, 81980, Note_off_c, 0, 88, 100
2, 81984, Note_on_c, 0, 81, 97
2, 81984, Note_on_c, 0, 89, 97
2, 82076, Note_off_c, 0, 81, 100
2, 82076, Note_off_c, 0, 89, 100
2, 82272, Note_on_c, 0, 82, 91
2, 82272, Note_on_c, 0, 91, 91
2, 82364, Note_off_c, 0, 82, 100
2, 82364, Note_off_c, 0, 91, 100
2, 82368, Note_on_c, 0, 88, 90
2, 82368, Note_on_c, 0, 82, 90
2, 82460, Note_off_c, 0, 88, 100
2, 82460, Note_off_c, 0, 82, 100
2, 82656, Note_on_c, 0, 95, 84
2, 82748, Note_off_c, 0, 95, 100
2, 82752, Note_on_c, 0, 83, 82
2, 82844, Note_off_c, 0, 83, 100
2, 82944, Note_on_c, 0, 68, 80
2, 83132, Note_off_c, 0, 68, 100
2, 83136, Note_on_c, 0, 64, 80
2, 83324, Note_off_c, 0, 64, 100
2, 83328, Note_on_c, 0, 64, 80
2, 83516, Note_off_c, 0, 64, 100
2, 83520, Note_on_c, 0, 64, 80
2, 83708, Note_off_c, 0, 64, 100
2, 83712, Note_on_c, 0, 64, 80
2, 83756, Note_off_c, 0, 64, 100
2, 83760, Note_on_c, 0, 66, 80
2, 83804, Note_off_c, 0, 66, 100
2, 83808, Note_on_c, 0, 64, 80
2, 83852, Note_off_c, 0, 64, 100
2, 83856, Note_on_c, 0, 66, 80
2, 83900, Note_off_c, 0, 66, 100
2, 83904, Note_on_c, 0, 64, 80
2, 83948, Note_off_c, 0, 64, 100
2, 83952, Note_on_c, 0, 66, 80
2, 83996, Note_off_c, 0, 66, 100
2, 84000, Note_on_c, 0, 63, 80
2, 84044, Note_off_c, 0, 63, 100
2, 84048, Note_on_c, 0, 64, 80
2, 84092, Note_off_c, 0, 64, 100
2, 84096, Note_on_c, 0, 69, 80
2, 84096, Note_on_c, 0, 64, 80
2, 84284, Note_off_c, 0, 69, 100
2, 84288, Note_on_c, 0, 66, 80
2, 84476, Note_off_c, 0, 66, 100
2, 84480, Note_on_c, 0, 66, 80
2, 84668, Note_off_c, 0, 66, 100
2, 84672, Note_on_c, 0, 66, 80
2, 84860, Note_off_c, 0, 64, 100
2, 84860, Note_off_c, 0, 66, 100
2, 84864, Note_on_c, 0, 66, 80
2, 84864, Note_on_c, 0, 63, 80
2, 84908, Note_off_c, 0, 66, 100
2, 84912, Note_on_c, 0, 68, 80
2, 84956, Note_off_c, 0, 68, 100
2, 84960, Note_on_c, 0, 66, 80
2, 85004, Note_off_c, 0, 66, 100
2, 85008, Note_on_c, 0, 68, 80
2, 85052, Note_off_c, 0, 68, 100
2, 85056, Note_on_c, 0, 66, 80
2, 85100, Note_off_c, 0, 66, 100
2, 85104, Note_on_c, 0, 68, 80
2, 85148, Note_off_c, 0, 68, 100
2, 85152, Note_on_c, 0, 65, 80
2, 85196, Note_off_c, 0, 65, 100
2, 85200, Note_on_c, 0, 66, 80
2, 85244, Note_off_c, 0, 63, 100
2, 85244, Note_off_c, 0, 66, 100
2, 85248, Note_on_c, 0, 71, 80
2, 85248, Note_on_c, 0, 66, 80
2, 85436, Note_off_c, 0, 71, 100
2, 85440, Note_on_c, 0, 68, 80
2, 85628, Note_off_c, 0, 68, 100
2, 85632, Note_on_c, 0, 68, 80
2, 85820, Note_off_c, 0, 68, 100
2, 85824, Note_on_c, 0, 68, 80
2, 86012, Note_off_c, 0, 66, 100
2, 86012, Note_off_c, 0, 68, 100
2, 86016, Note_on_c, 0, 64, 80
2, 86016, Note_on_c, 0, 68, 80
2, 86060, Note_off_c, 0, 68, 100
2, 86064, Note_on_c, 0, 69, 80
2, 86108, Note_off_c, 0, 69, 100
2, 86112, Note_on_c, 0, 68, 80
2, 86156, Note_off_c, 0, 68, 100
2, 86160, Note_on_c, 0, 69, 80
2, 86204, Note_off_c, 0, 69, 100
2, 86208, Note_on_c, 0, 68, 80
2, 86252, Note_off_c, 0, 68, 100
2, 86256, Note_on_c, 0, 69, 80
2, 86300, Note_off_c, 0, 69, 100
2, 86304, Note_on_c, 0, 66, 80
2, 86348, Note_off_c, 0, 66, 100
2, 86352, Note_on_c, 0, 68, 80
2, 86396, Note_off_c, 0, 64, 100
2, 86396, Note_off_c, 0, 68, 100
2, 86400, Note_on_c, 0, 73, 80
2, 86400, Note_on_c, 0, 68, 80
2, 86588, Note_off_c, 0, 73, 100
2, 86592, Note_on_c, 0, 69, 80
2, 86780, Note_off_c, 0, 69, 100
2, 86784, Note_on_c, 0, 69, 80
2, 86972, Note_off_c, 0, 69, 100
2, 86976, Note_on_c, 0, 69, 80
2, 87164, Note_off_c, 0, 68, 100
2, 87164, Note_off_c, 0, 69, 100
2, 87168, Note_on_c, 0, 69, 80
2, 87168, Note_on_c, 0, 66, 80
2, 87212, Note_off_c, 0, 69, 100
2, 87216, Note_on_c, 0, 71, 80
2, 87260, Note_off_c, 0, 71, 100
2, 87264, Note_on_c, 0, 69, 80
2, 87308, Note_off_c, 0, 69, 100
2, 87312, Note_on_c, 0, 71, 80
2, 87356, Note_off_c, 0, 71, 100
2, 87360, Note_on_c, 0, 69, 80
2, 87404, Note_off_c, 0, 69, 100
2, 87408, Note_on_c, 0, 71, 80
2, 87452, Note_off_c, 0, 71, 100
2, 87456, Note_on_c, 0, 68, 80
2, 87500, Note_off_c, 0, 68, 100
2, 87504, Note_on_c, 0, 69, 80
2, 87548, Note_off_c, 0, 66, 100
2, 87548, Note_off_c, 0, 69, 100
2, 87648, Note_on_c, 0, 68, 80
2, 87648, Note_on_c, 0, 71, 80
2, 87648, Note_on_c, 0, 80, 80
2, 87740, Note_off_c, 0, 68, 100
2, 87740, Note_off_c, 0, 71, 100
2, 87740, Note_off_c, 0, 80, 100
2, 87840, Note_on_c, 0, 68, 80
2, 87840, Note_on_c, 0, 71, 80
2, 87840, Note_on_c, 0, 76, 80
2, 87932, Note_off_c, 0, 68, 100
2, 87932, Note_off_c, 0, 71, 100
2, 87932, Note_off_c, 0, 76, 100
2, 88032, Note_on_c, 0, 68, 80
2, 88032, Note_on_c, 0, 71, 80
2, 88032, Note_on_c, 0, 75, 80
2, 88124, Note_off_c, 0, 68, 100
2, 88124, Note_off_c, 0, 71, 100
2, 88124, Note_off_c, 0, 75, 100
2, 88224, Note_on_c, 0, 68, 80
2, 88224, Note_on_c, 0, 71, 80
2, 88224, Note_on_c, 0, 76, 80
2, 88316, Note_off_c, 0, 68, 100
2, 88316, Note_off_c, 0, 71, 100
2, 88316, Note_off_c, 0, 76, 100
2, 88416, Note_on_c, 0, 68, 80
2, 88416, Note_on_c, 0, 71, 80
2, 88416, Note_on_c, 0, 75, 80
2, 88508, Note_off_c, 0, 68, 100
2, 88508, Note_off_c, 0, 71, 100
2, 88508, Note_off_c, 0, 75, 100
2, 88608, Note_on_c, 0, 68, 80
2, 88608, Note_on_c, 0, 71, 80
2, 88608, Note_on_c, 0, 76, 80
2, 88700, Note_off_c, 0, 68, 100
2, 88700, Note_off_c, 0, 71, 100
2, 88700, Note_off_c, 0, 76, 100
2, 88800, Note_on_c, 0, 69, 80
2, 88800, Note_on_c, 0, 75, 80
2, 88800, Note_on_c, 0, 78, 80
2, 88800, Note_on_c, 0, 81, 80
2, 88892, Note_off_c, 0, 69, 100
2, 88892, Note_off_c, 0, 75, 100
2, 88892, Note_off_c, 0, 78, 100
2, 88892, Note_off_c, 0, 81, 100
2, 88992, Note_on_c, 0, 69, 80
2, 88992, Note_on_c, 0, 75, 80
2, 88992, Note_on_c, 0, 78, 80
2, 89084, Note_off_c, 0, 69, 100
2, 89084, Note_off_c, 0, 75, 100
2, 89084, Note_off_c, 0, 78, 100
2, 89184, Note_on_c, 0, 69, 80
2, 89184, Note_on_c, 0, 75, 80
2, 89184, Note_on_c, 0, 77, 80
2, 89276, Note_off_c, 0, 69, 100
2, 89276, Note_off_c, 0, 75, 100
2, 89276, Note_off_c, 0, 77, 100
2, 89376, Note_on_c, 0, 69, 80
2, 89376, Note_on_c, 0, 75, 80
2, 89376, Note_on_c, 0, 78, 80
2, 89468, Note_off_c, 0, 69, 100
2, 89468, Note_off_c, 0, 75, 100
2, 89468, Note_off_c, 0, 78, 100
2, 89568, Note_on_c, 0, 69, 80
2, 89568, Note_on_c, 0, 75, 80
2, 89568, Note_on_c, 0, 77, 80
2, 89660, Note_off_c, 0, 69, 100
2, 89660, Note_off_c, 0, 75, 100
2, 89660, Note_off_c, 0, 77, 100
2, 89760, Note_on_c, 0, 69, 80
2, 89760, Note_on_c, 0, 75, 80
2, 89760, Note_on_c, 0, 78, 80
2, 89852, Note_off_c, 0, 69, 100
2, 89852, Note_off_c, 0, 75, 100
2, 89852, Note_off_c, 0, 78, 100
2, 89952, Note_on_c, 0, 71, 81
2, 89952, Note_on_c, 0, 76, 81
2, 89952, Note_on_c, 0, 80, 81
2, 89952, Note_on_c, 0, 83, 81
2, 90044, Note_off_c, 0, 71, 100
2, 90044, Note_off_c, 0, 76, 100
2, 90044, Note_off_c, 0, 80, 100
2, 90044, Note_off_c, 0, 83, 100
2, 90144, Note_on_c, 0, 71, 85
2, 90144, Note_on_c, 0, 76, 85
2, 90144, Note_on_c, 0, 80, 85
2, 90236, Note_off_c, 0, 71, 100
2, 90236, Note_off_c, 0, 76, 100
2, 90236, Note_off_c, 0, 80, 100
2, 90336, Note_on_c, 0, 71, 89
2, 90336, Note_on_c, 0, 76, 89
2, 90336, Note_on_c, 0, 80, 89
2, 90428, Note_off_c, 0, 71, 100
2, 90428, Note_off_c, 0, 76, 100
2, 90428, Note_off_c, 0, 80, 100
2, 90528, Note_on_c, 0, 71, 92
2, 90528, Note_on_c, 0, 76, 92
2, 90528, Note_on_c, 0, 83, 92
2, 90620, Note_off_c, 0, 71, 100
2, 90620, Note_off_c, 0, 76, 100
2, 90620, Note_off_c, 0, 83, 100
2, 90720, Note_on_c, 0, 70, 96
2, 90720, Note_on_c, 0, 76, 96
2, 90720, Note_on_c, 0, 79, 96
2, 90720, Note_on_c, 0, 82, 96
2, 90812, Note_off_c, 0, 70, 100
2, 90812, Note_off_c, 0, 76, 100
2, 90812, Note_off_c, 0, 79, 100
2, 90812, Note_off_c, 0, 82, 100
2, 90912, Note_on_c, 0, 76, 99
2, 90912, Note_on_c, 0, 82, 99
2, 90912, Note_on_c, 0, 88, 99
2, 91004, Note_off_c, 0, 76, 100
2, 91004, Note_off_c, 0, 82, 100
2, 91004, Note_off_c, 0, 88, 100
2, 91104, Note_on_c, 0, 76, 99
2, 91104, Note_on_c, 0, 82, 99
2, 91104, Note_on_c, 0, 88, 99
2, 91196, Note_off_c, 0, 76, 100
2, 91196, Note_off_c, 0, 82, 100
2, 91196, Note_off_c, 0, 88, 100
2, 91296, Note_on_c, 0, 78, 95
2, 91296, Note_on_c, 0, 82, 95
2, 91296, Note_on_c, 0, 90, 95
2, 91388, Note_off_c, 0, 78, 100
2, 91388, Note_off_c, 0, 82, 100
2, 91388, Note_off_c, 0, 90, 100
2, 91488, Note_on_c, 0, 79, 91
2, 91488, Note_on_c, 0, 82, 91
2, 91488, Note_on_c, 0, 91, 91
2, 91580, Note_off_c, 0, 79, 100
2, 91580, Note_off_c, 0, 82, 100
2, 91580, Note_off_c, 0, 91, 100
2, 91680, Note_on_c, 0, 76, 88
2, 91680, Note_on_c, 0, 82, 88
2, 91680, Note_on_c, 0, 88, 88
2, 91772, Note_off_c, 0, 76, 100
2, 91772, Note_off_c, 0, 82, 100
2, 91772, Note_off_c, 0, 88, 100
2, 91872, Note_on_c, 0, 76, 84
2, 91872, Note_on_c, 0, 82, 84
2, 91872, Note_on_c, 0, 88, 84
2, 91964, Note_off_c, 0, 76, 100
2, 91964, Note_off_c, 0, 82, 100
2, 91964, Note_off_c, 0, 88, 100
2, 92064, Note_on_c, 0, 75, 81
2, 92064, Note_on_c, 0, 83, 81
2, 92064, Note_on_c, 0, 87, 81
2, 92156, Note_off_c, 0, 75, 100
2, 92156, Note_off_c, 0, 83, 100
2, 92156, Note_off_c, 0, 87, 100
2, 92256, Note_on_c, 0, 78, 70
2, 92348, Note_off_c, 0, 78, 100
2, 92352, Note_on_c, 0, 83, 70
2, 92444, Note_off_c, 0, 83, 100
2, 92640, Note_on_c, 0, 83, 70
2, 92732, Note_off_c, 0, 83, 100
2, 92736, Note_on_c, 0, 78, 70
2, 92828, Note_off_c, 0, 78, 100
2, 93024, Note_on_c, 0, 83, 70
2, 93116, Note_off_c, 0, 83, 100
2, 93120, Note_on_c, 0, 85, 70
2, 93212, Note_off_c, 0, 85, 100
2, 93408, Note_on_c, 0, 81, 70
2, 93500, Note_off_c, 0, 81, 100
2, 93504, Note_on_c, 0, 85, 70
2, 93596, Note_off_c, 0, 85, 100
2, 93792, Note_on_c, 0, 85, 70
2, 93884, Note_off_c, 0, 85, 100
2, 93888, Note_on_c, 0, 82, 70
2, 93980, Note_off_c, 0, 82, 100
2, 94176, Note_on_c, 0, 81, 70
2, 94268, Note_off_c, 0, 81, 100
2, 94272, Note_on_c, 0, 83, 70
2, 94364, Note_off_c, 0, 83, 100
2, 94560, Note_on_c, 0, 80, 70
2, 94652, Note_off_c, 0, 80, 100
2, 94656, Note_on_c, 0, 83, 70
2, 94748, Note_off_c, 0, 83, 100
2, 94944, Note_on_c, 0, 92, 72
2, 95036, Note_off_c, 0, 92, 100
2, 95040, Note_on_c, 0, 83, 74
2, 95132, Note_off_c, 0, 83, 100
2, 95328, Note_on_c, 0, 83, 82
2, 95420, Note_off_c, 0, 83, 100
2, 95424, Note_on_c, 0, 92, 84
2, 95516, Note_off_c, 0, 92, 100
2, 95712, Note_on_c, 0, 83, 92
2, 95804, Note_off_c, 0, 83, 100
2, 95808, Note_on_c, 0, 87, 94
2, 95900, Note_off_c, 0, 87, 100
2, 96096, Note_on_c, 0, 80, 100
2, 96188, Note_off_c, 0, 80, 100
2, 96192, Note_on_c, 0, 70, 97
2, 96192, Note_on_c, 0, 79, 97
2, 96284, Note_off_c, 0, 70, 100
2, 96284, Note_off_c, 0, 79, 100
2, 96480, Note_on_c, 0, 70, 87
2, 96480, Note_on_c, 0, 79, 87
2, 96572, Note_off_c, 0, 70, 100
2, 96572, Note_off_c, 0, 79, 100
2, 96576, Note_on_c, 0, 71, 84
2, 96576, Note_on_c, 0, 80, 84
2, 96668, Note_off_c, 0, 71, 100
2, 96668, Note_off_c, 0, 80, 100
2, 96864, Note_on_c, 0, 80, 81
2, 96956, Note_off_c, 0, 80, 100
2, 96960, Note_on_c, 0, 81, 82
2, 97052, Note_off_c, 0, 81, 100
2, 97248, Note_on_c, 0, 93, 85
2, 97340, Note_off_c, 0, 93, 100
2, 97344, Note_on_c, 0, 81, 86
2, 97436, Note_off_c, 0, 81, 100
2, 97632, Note_on_c, 0, 81, 89
2, 97724, Note_off_c, 0, 81, 100
2, 97728, Note_on_c, 0, 85, 90
2, 97820, Note_off_c, 0, 85, 100
2, 98016, Note_on_c, 0, 82, 93
2, 98108, Note_off_c, 0, 82, 100
2, 98112, Note_on_c, 0, 83, 94
2, 98204, Note_off_c, 0, 83, 100
2, 98400, Note_on_c, 0, 95, 97
2, 98492, Note_off_c, 0, 95, 100
2, 98496, Note_on_c, 0, 83, 98
2, 98588, Note_off_c, 0, 83, 100
2, 98784, Note_on_c, 0, 93, 99
2, 98876, Note_off_c, 0, 93, 100
2, 98880, Note_on_c, 0, 92, 98
2, 98972, Note_off_c, 0, 92, 100
2, 99168, Note_on_c, 0, 80, 94
2, 99168, Note_on_c, 0, 88, 94
2, 99260, Note_off_c, 0, 80, 100
2, 99260, Note_off_c, 0, 88, 100
2, 99264, Note_on_c, 0, 88, 93
2, 99264, Note_on_c, 0, 92, 93
2, 99356, Note_off_c, 0, 88, 100
2, 99356, Note_off_c, 0, 92, 100
2, 99552, Note_on_c, 0, 80, 89
2, 99552, Note_on_c, 0, 88, 89
2, 99644, Note_off_c, 0, 80, 100
2, 99644, Note_off_c, 0, 88, 100
2, 99648, Note_on_c, 0, 76, 87
2, 99648, Note_on_c, 0, 80, 87
2, 99740, Note_off_c, 0, 76, 100
2, 99740, Note_off_c, 0, 80, 100
2, 99936, Note_on_c, 0, 80, 83
2, 99936, Note_on_c, 0, 83, 83
2, 100028, Note_off_c, 0, 80, 100
2, 100028, Note_off_c, 0, 83, 100
2, 100032, Note_on_c, 0, 78, 82
2, 100032, Note_on_c, 0, 81, 82
2, 100124, Note_off_c, 0, 78, 100
2, 100124, Note_off_c, 0, 81, 100
2, 100320, Note_on_c, 0, 78, 80
2, 100320, Note_on_c, 0, 81, 80
2, 100412, Note_off_c, 0, 78, 100
2, 100412, Note_off_c, 0, 81, 100
2, 100416, Note_on_c, 0, 81, 80
2, 100416, Note_on_c, 0, 90, 80
2, 100508, Note_off_c, 0, 81, 100
2, 100508, Note_off_c, 0, 90, 100
2, 100704, Note_on_c, 0, 81, 80
2, 100704, Note_on_c, 0, 90, 80
2, 100796, Note_off_c, 0, 81, 100
2, 100796, Note_off_c, 0, 90, 100
2, 100800, Note_on_c, 0, 78, 80
2, 100800, Note_on_c, 0, 81, 80
2, 100892, Note_off_c, 0, 78, 100
2, 100892, Note_off_c, 0, 81, 100
2, 101088, Note_on_c, 0, 78, 80
2, 101088, Note_on_c, 0, 81, 80
2, 101180, Note_off_c, 0, 78, 100
2, 101180, Note_off_c, 0, 81, 100
2, 101184, Note_on_c, 0, 71, 80
2, 101184, Note_on_c, 0, 80, 80
2, 101276, Note_off_c, 0, 71, 100
2, 101276, Note_off_c, 0, 80, 100
2, 101376, Note_on_c, 0, 74, 80
2, 101564, Note_off_c, 0, 74, 100
2, 101568, Note_on_c, 0, 62, 80
2, 101756, Note_off_c, 0, 62, 100
2, 101760, Note_on_c, 0, 62, 80
2, 101948, Note_off_c, 0, 62, 100
2, 101952, Note_on_c, 0, 62, 80
2, 102140, Note_off_c, 0, 62, 100
2, 102144, Note_on_c, 0, 62, 80
2, 102188, Note_off_c, 0, 62, 100
2, 102192, Note_on_c, 0, 64, 80
2, 102236, Note_off_c, 0, 64, 100
2, 102240, Note_on_c, 0, 62, 80
2, 102284, Note_off_c, 0, 62, 100
2, 102288, Note_on_c, 0, 64, 80
2, 102332, Note_off_c, 0, 64, 100
2, 102336, Note_on_c, 0, 62, 80
2, 102380, Note_off_c, 0, 62, 100
2, 102384, Note_on_c, 0, 64, 80
2, 102428, Note_off_c, 0, 64, 100
2, 102432, Note_on_c, 0, 61, 80
2, 102476, Note_off_c, 0, 61, 100
2, 102480, Note_on_c, 0, 62, 80
2, 102524, Note_off_c, 0, 62, 100
2, 102528, Note_on_c, 0, 71, 80
2, 102528, Note_on_c, 0, 62, 80
2, 102716, Note_off_c, 0, 71, 100
2, 102720, Note_on_c, 0, 68, 80
2, 102908, Note_off_c, 0, 62, 100
2, 102908, Note_off_c, 0, 68, 100
2, 102912, Note_on_c, 0, 68, 80
2, 102912, Note_on_c, 0, 61, 80
2, 103100, Note_off_c, 0, 68, 100
2, 103104, Note_on_c, 0, 68, 80
2, 103292, Note_off_c, 0, 61, 100
2, 103292, Note_off_c, 0, 68, 100
2, 103296, Note_on_c, 0, 68, 80
2, 103296, Note_on_c, 0, 59, 80
2, 103340, Note_off_c, 0, 68, 100
2, 103344, Note_on_c, 0, 69, 80
2, 103388, Note_off_c, 0, 69, 100
2, 103392, Note_on_c, 0, 68, 80
2, 103436, Note_off_c, 0, 68, 100
2, 103440, Note_on_c, 0, 69, 80
2, 103484, Note_off_c, 0, 69, 100
2, 103488, Note_on_c, 0, 68, 80
2, 103532, Note_off_c, 0, 68, 100
2, 103536, Note_on_c, 0, 69, 80
2, 103580, Note_off_c, 0, 69, 100
2, 103584, Note_on_c, 0, 66, 80
2, 103628, Note_off_c, 0, 66, 100
2, 103632, Note_on_c, 0, 68, 80
2, 103676, Note_off_c, 0, 59, 100
2, 103676, Note_off_c, 0, 68, 100
2, 103680, Note_on_c, 0, 73, 80
2, 103680, Note_on_c, 0, 68, 80
2, 103868, Note_off_c, 0, 73, 100
2, 103872, Note_on_c, 0, 69, 80
2, 104060, Note_off_c, 0, 68, 100
2, 104060, Note_off_c, 0, 69, 100
2, 104064, Note_on_c, 0, 69, 80
2, 104064, Note_on_c, 0, 66, 80
2, 104252, Note_off_c, 0, 69, 100
2, 104256, Note_on_c, 0, 69, 80
2, 104444, Note_off_c, 0, 66, 100
2, 104444, Note_off_c, 0, 69, 100
2, 104448, Note_on_c, 0, 69, 80
2, 104448, Note_on_c, 0, 64, 80
2, 104492, Note_off_c, 0, 69, 100
2, 104496, Note_on_c, 0, 71, 80
2, 104540, Note_off_c, 0, 71, 100
2, 104544, Note_on_c, 0, 69, 80
2, 104588, Note_off_c, 0, 69, 100
2, 104592, Note_on_c, 0, 71, 80
2, 104636, Note_off_c, 0, 71, 100
2, 104640, Note_on_c, 0, 69, 80
2, 104684, Note_off_c, 0, 69, 100
2, 104688, Note_on_c, 0, 71, 80
2, 104732, Note_off_c, 0, 71, 100
2, 104736, Note_on_c, 0, 68, 80
2, 104780, Note_off_c, 0, 68, 100
2, 104784, Note_on_c, 0, 69, 80
2, 104828, Note_off_c, 0, 64, 100
2, 104828, Note_off_c, 0, 69, 100
2, 104832, Note_on_c, 0, 68, 80
2, 104832, Note_on_c, 0, 80, 80
2, 105020, Note_off_c, 0, 68, 100
2, 105020, Note_off_c, 0, 80, 100
2, 105024, Note_on_c, 0, 68, 80
2, 105024, Note_on_c, 0, 76, 80
2, 105212, Note_off_c, 0, 68, 100
2, 105212, Note_off_c, 0, 76, 100
2, 105216, Note_on_c, 0, 67, 80
2, 105216, Note_on_c, 0, 76, 80
2, 105404, Note_off_c, 0, 67, 100
2, 105404, Note_off_c, 0, 76, 100
2, 105408, Note_on_c, 0, 67, 80
2, 105408, Note_on_c, 0, 75, 80
2, 105596, Note_off_c, 0, 67, 100
2, 105596, Note_off_c, 0, 75, 100
2, 105600, Note_on_c, 0, 71, 80
2, 105600, Note_on_c, 0, 75, 80
2, 105624, Note_on_c, 0, 76, 80
2, 105644, Note_off_c, 0, 75, 100
2, 105648, Note_on_c, 0, 75, 80
2, 105668, Note_off_c, 0, 76, 100
2, 105672, Note_on_c, 0, 76, 80
2, 105692, Note_off_c, 0, 75, 100
2, 105696, Note_on_c, 0, 75, 80
2, 105716, Note_off_c, 0, 76, 100
2, 105720, Note_on_c, 0, 76, 80
2, 105740, Note_off_c, 0, 75, 100
2, 105744, Note_on_c, 0, 73, 80
2, 105764, Note_off_c, 0, 76, 100
2, 105768, Note_on_c, 0, 75, 80
2, 105788, Note_off_c, 0, 71, 100
2, 105788, Note_off_c, 0, 73, 100
2, 105792, Note_on_c, 0, 71, 80
2, 105792, Note_on_c, 0, 76, 80
2, 105812, Note_off_c, 0, 75, 100
2, 105816, Note_on_c, 0, 78, 80
2, 105836, Note_off_c, 0, 76, 100
2, 105840, Note_on_c, 0, 76, 80
2, 105860, Note_off_c, 0, 78, 100
2, 105864, Note_on_c, 0, 78, 80
2, 105884, Note_off_c, 0, 76, 100
2, 105888, Note_on_c, 0, 76, 80
2, 105908, Note_off_c, 0, 78, 100
2, 105912, Note_on_c, 0, 78, 80
2, 105932, Note_off_c, 0, 76, 100
2, 105936, Note_on_c, 0, 75, 80
2, 105956, Note_off_c, 0, 78, 100
2, 105960, Note_on_c, 0, 76, 80
2, 105980, Note_off_c, 0, 71, 100
2, 105980, Note_off_c, 0, 75, 100
2, 105980, Note_off_c, 0, 76, 100
2, 106080, Note_on_c, 0, 69, 81
2, 106080, Note_on_c, 0, 73, 81
2, 106080, Note_on_c, 0, 76, 81
2, 106172, Note_off_c, 0, 69, 100
2, 106172, Note_off_c, 0, 73, 100
2, 106172, Note_off_c, 0, 76, 100
2, 106272, Note_on_c, 0, 69, 84
2, 106272, Note_on_c, 0, 81, 84
2, 106364, Note_off_c, 0, 69, 100
2, 106364, Note_off_c, 0, 81, 100
2, 106464, Note_on_c, 0, 68, 87
2, 106464, Note_on_c, 0, 80, 87
2, 106556, Note_off_c, 0, 68, 100
2, 106556, Note_off_c, 0, 80, 100
2, 106656, Note_on_c, 0, 69, 91
2, 106656, Note_on_c, 0, 81, 91
2, 106748, Note_off_c, 0, 69, 100
2, 106748, Note_off_c, 0, 81, 100
2, 106848, Note_on_c, 0, 72, 94
2, 106848, Note_on_c, 0, 84, 94
2, 106940, Note_off_c, 0, 72, 100
2, 106940, Note_off_c, 0, 84, 100
2, 107040, Note_on_c, 0, 73, 97
2, 107040, Note_on_c, 0, 85, 97
2, 107132, Note_off_c, 0, 73, 100
2, 107132, Note_off_c, 0, 85, 100
2, 107232, Note_on_c, 0, 73, 100
2, 107232, Note_on_c, 0, 85, 100
2, 107324, Note_off_c, 0, 73, 100
2, 107324, Note_off_c, 0, 85, 100
2, 107424, Note_on_c, 0, 71, 103
2, 107424, Note_on_c, 0, 83, 103
2, 107516, Note_off_c, 0, 71, 100
2, 107516, Note_off_c, 0, 83, 100
2, 107616, Note_on_c, 0, 73, 106
2, 107616, Note_on_c, 0, 85, 106
2, 107708, Note_off_c, 0, 73, 100
2, 107708, Note_off_c, 0, 85, 100
2, 107808, Note_on_c, 0, 71, 109
2, 107808, Note_on_c, 0, 83, 109
2, 107900, Note_off_c, 0, 71, 100
2, 107900, Note_off_c, 0, 83, 100
2, 108000, Note_on_c, 0, 69, 97
2, 108000, Note_on_c, 0, 81, 97
2, 108092, Note_off_c, 0, 69, 100
2, 108092, Note_off_c, 0, 81, 100
2, 108192, Note_on_c, 0, 68, 91
2, 108192, Note_on_c, 0, 80, 91
2, 108284, Note_off_c, 0, 68, 100
2, 108284, Note_off_c, 0, 80, 100
2, 108384, Note_on_c, 0, 78, 80
2, 108384, Note_on_c, 0, 90, 80
2, 108476, Note_off_c, 0, 78, 100
2, 108476, Note_off_c, 0, 90, 100
2, 108576, Note_on_c, 0, 76, 80
2, 108576, Note_on_c, 0, 88, 80
2, 108668, Note_off_c, 0, 76, 100
2, 108668, Note_off_c, 0, 88, 100
2, 108768, Note_on_c, 0, 80, 80
2, 108768, Note_on_c, 0, 92, 80
2, 108860, Note_off_c, 0, 80, 100
2, 108860, Note_off_c, 0, 92, 100
2, 108960, Note_on_c, 0, 80, 80
2, 108960, Note_on_c, 0, 68, 80
2, 109052, Note_off_c, 0, 80, 100
2, 109052, Note_off_c, 0, 68, 100
2, 109152, Note_on_c, 0, 75, 80
2, 109152, Note_on_c, 0, 77, 80
2, 109152, Note_on_c, 0, 80, 80
2, 109152, Note_on_c, 0, 83, 80
2, 109244, Note_off_c, 0, 75, 100
2, 109244, Note_off_c, 0, 77, 100
2, 109244, Note_off_c, 0, 80, 100
2, 109244, Note_off_c, 0, 83, 100
2, 109344, Note_on_c, 0, 72, 80
2, 109344, Note_on_c, 0, 75, 80
2, 109344, Note_on_c, 0, 78, 80
2, 109344, Note_on_c, 0, 81, 80
2, 109436, Note_off_c, 0, 72, 100
2, 109436, Note_off_c, 0, 75, 100
2, 109436, Note_off_c, 0, 78, 100
2, 109436, Note_off_c, 0, 81, 100
2, 109536, Note_on_c, 0, 71, 80
2, 109536, Note_on_c, 0, 75, 80
2, 109536, Note_on_c, 0, 78, 80
2, 109536, Note_on_c, 0, 81, 80
2, 109628, Note_off_c, 0, 71, 100
2, 109628, Note_off_c, 0, 75, 100
2, 109628, Note_off_c, 0, 78, 100
2, 109628, Note_off_c, 0, 81, 100
2, 109728, Note_on_c, 0, 72, 80
2, 109728, Note_on_c, 0, 75, 80
2, 109728, Note_on_c, 0, 78, 80
2, 109728, Note_on_c, 0, 81, 80
2, 109820, Note_off_c, 0, 72, 100
2, 109820, Note_off_c, 0, 75, 100
2, 109820, Note_off_c, 0, 78, 100
2, 109820, Note_off_c, 0, 81, 100
2, 109920, Note_on_c, 0, 71, 80
2, 109920, Note_on_c, 0, 75, 80
2, 109920, Note_on_c, 0, 78, 80
2, 109920, Note_on_c, 0, 81, 80
2, 110012, Note_off_c, 0, 71, 100
2, 110012, Note_off_c, 0, 75, 100
2, 110012, Note_off_c, 0, 78, 100
2, 110012, Note_off_c, 0, 81, 100
2, 110112, Note_on_c, 0, 63, 80
2, 110112, Note_on_c, 0, 66, 80
2, 110112, Note_on_c, 0, 69, 80
2, 110204, Note_off_c, 0, 63, 100
2, 110204, Note_off_c, 0, 66, 100
2, 110204, Note_off_c, 0, 69, 100
2, 110304, Note_on_c, 0, 63, 80
2, 110304, Note_on_c, 0, 66, 80
2, 110304, Note_on_c, 0, 69, 80
2, 110396, Note_off_c, 0, 63, 100
2, 110396, Note_off_c, 0, 66, 100
2, 110396, Note_off_c, 0, 69, 100
2, 110496, Note_on_c, 0, 59, 80
2, 110496, Note_on_c, 0, 64, 80
2, 110496, Note_on_c, 0, 68, 80
2, 110588, Note_off_c, 0, 59, 100
2, 110588, Note_off_c, 0, 64, 100
2, 110588, Note_off_c, 0, 68, 100
2, 110592, Note_on_c, 0, 64, 110
2, 110780, Note_off_c, 0, 64, 100
2, 110976, Note_on_c, 0, 68, 110
2, 111164, Note_off_c, 0, 68, 100
2, 111360, Note_on_c, 0, 71, 110
2, 111548, Note_off_c, 0, 71, 100
2, 111744, Note_on_c, 0, 75, 110
2, 111932, Note_off_c, 0, 75, 100
2, 112128, Note_on_c, 0, 76, 110
2, 112316, Note_off_c, 0, 76, 100
2, 112512, Note_on_c, 0, 80, 110
2, 112700, Note_off_c, 0, 80, 100
2, 112896, Note_on_c, 0, 82, 124
2, 113084, Note_off_c, 0, 82, 100
2, 113088, Note_on_c, 0, 82, 110
2, 113276, Note_off_c, 0, 82, 100
2, 113280, Note_on_c, 0, 83, 110
2, 113468, Note_off_c, 0, 83, 100
2, 113664, Note_on_c, 0, 80, 110
2, 113756, Note_off_c, 0, 80, 100
2, 113760, Note_on_c, 0, 83, 110
2, 113852, Note_off_c, 0, 83, 100
2, 113856, Note_on_c, 0, 81, 110
2, 113948, Note_off_c, 0, 81, 100
2, 113952, Note_on_c, 0, 80, 110
2, 114044, Note_off_c, 0, 80, 100
2, 114048, Note_on_c, 0, 76, 110
2, 114140, Note_off_c, 0, 76, 100
2, 114144, Note_on_c, 0, 80, 110
2, 114236, Note_off_c, 0, 80, 100
2, 114240, Note_on_c, 0, 78, 110
2, 114332, Note_off_c, 0, 78, 100
2, 114336, Note_on_c, 0, 76, 110
2, 114428, Note_off_c, 0, 76, 100
2, 114432, Note_on_c, 0, 75, 110
2, 114524, Note_off_c, 0, 75, 100
2, 114528, Note_on_c, 0, 78, 110
2, 114620, Note_off_c, 0, 78, 100
2, 114624, Note_on_c, 0, 76, 110
2, 114716, Note_off_c, 0, 76, 100
2, 114720, Note_on_c, 0, 75, 110
2, 114812, Note_off_c, 0, 75, 100
2, 114816, Note_on_c, 0, 71, 110
2, 114908, Note_off_c, 0, 71, 100
2, 114912, Note_on_c, 0, 75, 110
2, 115004, Note_off_c, 0, 75, 100
2, 115008, Note_on_c, 0, 73, 110
2, 115100, Note_off_c, 0, 73, 100
2, 115104, Note_on_c, 0, 71, 110
2, 115196, Note_off_c, 0, 71, 100
2, 115200, Note_on_c, 0, 68, 110
2, 115292, Note_off_c, 0, 68, 100
2, 115296, Note_on_c, 0, 71, 110
2, 115388, Note_off_c, 0, 71, 100
2, 115392, Note_on_c, 0, 69, 110
2, 115484, Note_off_c, 0, 69, 100
2, 115488, Note_on_c, 0, 68, 110
2, 115580, Note_off_c, 0, 68, 100
2, 115584, Note_on_c, 0, 64, 110
2, 115676, Note_off_c, 0, 64, 100
2, 115680, Note_on_c, 0, 68, 110
2, 115772, Note_off_c, 0, 68, 100
2, 115776, Note_on_c, 0, 66, 110
2, 115868, Note_off_c, 0, 66, 100
2, 115872, Note_on_c, 0, 64, 110
2, 115964, Note_off_c, 0, 64, 100
2, 115968, Note_on_c, 0, 67, 110
2, 116060, Note_off_c, 0, 67, 100
2, 116064, Note_on_c, 0, 64, 110
2, 116156, Note_off_c, 0, 64, 100
2, 116160, Note_on_c, 0, 63, 110
2, 116252, Note_off_c, 0, 63, 100
2, 116256, Note_on_c, 0, 64, 110
2, 116348, Note_off_c, 0, 64, 100
2, 116352, Note_on_c, 0, 63, 110
2, 116444, Note_off_c, 0, 63, 100
2, 116448, Note_on_c, 0, 66, 110
2, 116540, Note_off_c, 0, 66, 100
2, 116544, Note_on_c, 0, 71, 110
2, 116636, Note_off_c, 0, 71, 100
2, 116640, Note_on_c, 0, 63, 110
2, 116732, Note_off_c, 0, 63, 100
2, 116736, Note_on_c, 0, 64, 80
2, 116924, Note_off_c, 0, 64, 100
2, 116928, Note_on_c, 0, 66, 82
2, 117116, Note_off_c, 0, 66, 100
2, 117120, Note_on_c, 0, 68, 85
2, 117308, Note_off_c, 0, 68, 100
2, 117312, Note_on_c, 0, 69, 87
2, 117500, Note_off_c, 0, 69, 100
2, 117504, Note_on_c, 0, 71, 90
2, 117692, Note_off_c, 0, 71, 100
2, 117696, Note_on_c, 0, 73, 93
2, 117884, Note_off_c, 0, 73, 100
2, 117888, Note_on_c, 0, 74, 95
2, 118076, Note_off_c, 0, 74, 100
2, 118080, Note_on_c, 0, 75, 98
2, 118268, Note_off_c, 0, 75, 100
2, 118272, Note_on_c, 0, 76, 100
2, 118460, Note_off_c, 0, 76, 100
2, 118464, Note_on_c, 0, 78, 103
2, 118652, Note_off_c, 0, 78, 100
2, 118656, Note_on_c, 0, 79, 106
2, 118844, Note_off_c, 0, 79, 100
2, 118848, Note_on_c, 0, 80, 108
2, 119036, Note_off_c, 0, 80, 100
2, 119040, Note_on_c, 0, 81, 110
2, 119228, Note_off_c, 0, 81, 100
2, 119232, Note_on_c, 0, 82, 110
2, 119420, Note_off_c, 0, 82, 100
2, 119424, Note_on_c, 0, 83, 110
2, 119612, Note_off_c, 0, 83, 100
2, 119616, Note_on_c, 0, 81, 110
2, 119804, Note_off_c, 0, 81, 100
2, 119808, Note_on_c, 0, 80, 80
2, 119900, Note_off_c, 0, 80, 100
2, 119904, Note_on_c, 0, 83, 81
2, 119996, Note_off_c, 0, 83, 100
2, 120000, Note_on_c, 0, 81, 82
2, 120092, Note_off_c, 0, 81, 100
2, 120096, Note_on_c, 0, 80, 83
2, 120188, Note_off_c, 0, 80, 100
2, 120192, Note_on_c, 0, 78, 85
2, 120284, Note_off_c, 0, 78, 100
2, 120288, Note_on_c, 0, 76, 86
2, 120380, Note_off_c, 0, 76, 100
2, 120384, Note_on_c, 0, 75, 87
2, 120476, Note_off_c, 0, 75, 100
2, 120480, Note_on_c, 0, 76, 89
2, 120572, Note_off_c, 0, 76, 100
2, 120576, Note_on_c, 0, 75, 90
2, 120668, Note_off_c, 0, 75, 100
2, 120672, Note_on_c, 0, 78, 91
2, 120764, Note_off_c, 0, 78, 100
2, 120768, Note_on_c, 0, 76, 93
2, 120860, Note_off_c, 0, 76, 100
2, 120864, Note_on_c, 0, 75, 94
2, 120956, Note_off_c, 0, 75, 100
2, 120960, Note_on_c, 0, 73, 95
2, 121052, Note_off_c, 0, 73, 100
2, 121056, Note_on_c, 0, 71, 96
2, 121148, Note_off_c, 0, 71, 100
2, 121152, Note_on_c, 0, 70, 98
2, 121244, Note_off_c, 0, 70, 100
2, 121248, Note_on_c, 0, 69, 99
2, 121340, Note_off_c, 0, 69, 100
2, 121344, Note_on_c, 0, 68, 100
2, 121436, Note_off_c, 0, 68, 100
2, 121440, Note_on_c, 0, 71, 102
2, 121532, Note_off_c, 0, 71, 100
2, 121536, Note_on_c, 0, 69, 103
2, 121628, Note_off_c, 0, 69, 100
2, 121632, Note_on_c, 0, 68, 104
2, 121724, Note_off_c, 0, 68, 100
2, 121728, Note_on_c, 0, 66, 106
2, 121820, Note_off_c, 0, 66, 100
2, 121824, Note_on_c, 0, 64, 107
2, 121916, Note_off_c, 0, 64, 100
2, 121920, Note_on_c, 0, 63, 108
2, 122012, Note_off_c, 0, 63, 100
2, 122016, Note_on_c, 0, 64, 109
2, 122108, Note_off_c, 0, 64, 100
2, 122112, Note_on_c, 0, 67, 110
2, 122204, Note_off_c, 0, 67, 100
2, 122208, Note_on_c, 0, 64, 110
2, 122300, Note_off_c, 0, 64, 100
2, 122304, Note_on_c, 0, 67, 110
2, 122396, Note_off_c, 0, 67, 100
2, 122400, Note_on_c, 0, 64, 110
2, 122492, Note_off_c, 0, 64, 100
2, 122496, Note_on_c, 0, 70, 110
2, 122588, Note_off_c, 0, 70, 100
2, 122592, Note_on_c, 0, 64, 110
2, 122684, Note_off_c, 0, 64, 100
2, 122688, Note_on_c, 0, 71, 110
2, 122780, Note_off_c, 0, 71, 100
2, 122784, Note_on_c, 0, 63, 110
2, 122876, Note_off_c, 0, 63, 100
2, 122880, Note_on_c, 0, 71, 80
2, 123068, Note_off_c, 0, 71, 100
2, 123072, Note_on_c, 0, 71, 80
2, 123260, Note_off_c, 0, 71, 100
2, 123264, Note_on_c, 0, 71, 80
2, 123452, Note_off_c, 0, 71, 100
2, 123456, Note_on_c, 0, 73, 80
2, 123644, Note_off_c, 0, 73, 100
2, 123648, Note_on_c, 0, 71, 80
2, 123836, Note_off_c, 0, 71, 100
2, 123840, Note_on_c, 0, 69, 80
2, 124028, Note_off_c, 0, 69, 100
2, 124032, Note_on_c, 0, 69, 80
2, 124220, Note_off_c, 0, 69, 100
2, 124224, Note_on_c, 0, 71, 80
2, 124412, Note_off_c, 0, 71, 100
2, 124416, Note_on_c, 0, 69, 80
2, 124604, Note_off_c, 0, 69, 100
2, 124608, Note_on_c, 0, 68, 80
2, 124796, Note_off_c, 0, 68, 100
2, 124800, Note_on_c, 0, 68, 80
2, 124988, Note_off_c, 0, 68, 100
2, 124992, Note_on_c, 0, 70, 80
2, 125180, Note_off_c, 0, 70, 100
2, 125184, Note_on_c, 0, 68, 80
2, 125372, Note_off_c, 0, 68, 100
2, 125376, Note_on_c, 0, 67, 87
2, 125564, Note_off_c, 0, 67, 100
2, 125568, Note_on_c, 0, 68, 94
2, 125756, Note_off_c, 0, 68, 100
2, 125760, Note_on_c, 0, 59, 102
2, 125760, Note_on_c, 0, 68, 102
2, 125760, Note_on_c, 0, 71, 102
2, 126044, Note_off_c, 0, 59, 64
2, 126044, Note_off_c, 0, 68, 64
2, 126044, Note_off_c, 0, 71, 64
2, 126048, Note_on_c, 0, 69, 110
2, 126140, Note_off_c, 0, 69, 100
2, 126144, Note_on_c, 0, 73, 110
2, 126236, Note_off_c, 0, 73, 100
2, 126240, Note_on_c, 0, 71, 110
2, 126332, Note_off_c, 0, 71, 100
2, 126336, Note_on_c, 0, 69, 110
2, 126428, Note_off_c, 0, 69, 100
2, 126432, Note_on_c, 0, 68, 110
2, 126524, Note_off_c, 0, 68, 100
2, 126528, Note_on_c, 0, 66, 110
2, 126620, Note_off_c, 0, 66, 100
2, 126624, Note_on_c, 0, 64, 110
2, 126716, Note_off_c, 0, 64, 100
2, 126720, Note_on_c, 0, 63, 110
2, 126812, Note_off_c, 0, 63, 100
2, 126816, Note_on_c, 0, 59, 110
2, 126908, Note_off_c, 0, 59, 100
2, 126912, Note_on_c, 0, 61, 110
2, 127004, Note_off_c, 0, 61, 100
2, 127008, Note_on_c, 0, 63, 110
2, 127100, Note_off_c, 0, 63, 100
2, 127104, Note_on_c, 0, 64, 110
2, 127196, Note_off_c, 0, 64, 100
2, 127200, Note_on_c, 0, 66, 110
2, 127292, Note_off_c, 0, 66, 100
2, 127296, Note_on_c, 0, 68, 110
2, 127388, Note_off_c, 0, 68, 100
2, 127392, Note_on_c, 0, 69, 110
2, 127484, Note_off_c, 0, 69, 100
2, 127488, Note_on_c, 0, 71, 110
2, 127580, Note_off_c, 0, 71, 100
2, 127584, Note_on_c, 0, 70, 110
2, 127676, Note_off_c, 0, 70, 100
2, 127680, Note_on_c, 0, 71, 110
2, 127772, Note_off_c, 0, 71, 100
2, 127776, Note_on_c, 0, 73, 110
2, 127868, Note_off_c, 0, 73, 100
2, 127872, Note_on_c, 0, 75, 110
2, 127964, Note_off_c, 0, 75, 100
2, 127968, Note_on_c, 0, 76, 110
2, 128060, Note_off_c, 0, 76, 100
2, 128064, Note_on_c, 0, 78, 110
2, 128156, Note_off_c, 0, 78, 100
2, 128160, Note_on_c, 0, 76, 110
2, 128252, Note_off_c, 0, 76, 100
2, 128256, Note_on_c, 0, 75, 110
2, 128348, Note_off_c, 0, 75, 100
2, 128352, Note_on_c, 0, 71, 110
2, 128444, Note_off_c, 0, 71, 100
2, 128448, Note_on_c, 0, 73, 110
2, 128540, Note_off_c, 0, 73, 100
2, 128544, Note_on_c, 0, 75, 110
2, 128636, Note_off_c, 0, 75, 100
2, 128640, Note_on_c, 0, 76, 110
2, 128732, Note_off_c, 0, 76, 100
2, 128736, Note_on_c, 0, 75, 110
2, 128828, Note_off_c, 0, 75, 100
2, 128832, Note_on_c, 0, 76, 110
2, 128924, Note_off_c, 0, 76, 100
2, 128928, Note_on_c, 0, 78, 110
2, 129020, Note_off_c, 0, 78, 100
2, 129024, Note_on_c, 0, 80, 80
2, 129116, Note_off_c, 0, 80, 100
2, 129120, Note_on_c, 0, 83, 80
2, 129212, Note_off_c, 0, 83, 100
2, 129216, Note_on_c, 0, 81, 80
2, 129308, Note_off_c, 0, 81, 100
2, 129312, Note_on_c, 0, 80, 80
2, 129404, Note_off_c, 0, 80, 100
2, 129408, Note_on_c, 0, 78, 80
2, 129500, Note_off_c, 0, 78, 100
2, 129504, Note_on_c, 0, 77, 80
2, 129596, Note_off_c, 0, 77, 100
2, 129600, Note_on_c, 0, 75, 80
2, 129692, Note_off_c, 0, 75, 100
2, 129696, Note_on_c, 0, 77, 80
2, 129788, Note_off_c, 0, 77, 100
2, 129792, Note_on_c, 0, 78, 80
2, 129884, Note_off_c, 0, 78, 100
2, 129888, Note_on_c, 0, 81, 80
2, 129980, Note_off_c, 0, 81, 100
2, 129984, Note_on_c, 0, 80, 80
2, 130076, Note_off_c, 0, 80, 100
2, 130080, Note_on_c, 0, 78, 80
2, 130172, Note_off_c, 0, 78, 100
2, 130176, Note_on_c, 0, 76, 80
2, 130268, Note_off_c, 0, 76, 100
2, 130272, Note_on_c, 0, 75, 80
2, 130364, Note_off_c, 0, 75, 100
2, 130368, Note_on_c, 0, 73, 80
2, 130460, Note_off_c, 0, 73, 100
2, 130464, Note_on_c, 0, 75, 80
2, 130556, Note_off_c, 0, 75, 100
2, 130560, Note_on_c, 0, 76, 80
2, 130652, Note_off_c, 0, 76, 100
2, 130656, Note_on_c, 0, 80, 80
2, 130748, Note_off_c, 0, 80, 100
2, 130752, Note_on_c, 0, 78, 80
2, 130844, Note_off_c, 0, 78, 100
2, 130848, Note_on_c, 0, 76, 80
2, 130940, Note_off_c, 0, 76, 100
2, 130944, Note_on_c, 0, 75, 80
2, 131036, Note_off_c, 0, 75, 100
2, 131040, Note_on_c, 0, 73, 80
2, 131132, Note_off_c, 0, 73, 100
2, 131136, Note_on_c, 0, 72, 80
2, 131228, Note_off_c, 0, 72, 100
2, 131232, Note_on_c, 0, 73, 80
2, 131324, Note_off_c, 0, 73, 100
2, 131328, Note_on_c, 0, 75, 80
2, 131420, Note_off_c, 0, 75, 100
2, 131424, Note_on_c, 0, 70, 83
2, 131516, Note_off_c, 0, 70, 100
2, 131520, Note_on_c, 0, 75, 87
2, 131612, Note_off_c, 0, 75, 100
2, 131616, Note_on_c, 0, 73, 91
2, 131708, Note_off_c, 0, 73, 100
2, 131712, Note_on_c, 0, 71, 94
2, 131804, Note_off_c, 0, 71, 100
2, 131808, Note_on_c, 0, 75, 98
2, 131900, Note_off_c, 0, 75, 100
2, 131904, Note_on_c, 0, 76, 102
2, 131996, Note_off_c, 0, 76, 100
2, 132000, Note_on_c, 0, 74, 106
2, 132092, Note_off_c, 0, 74, 100
2, 132096, Note_on_c, 0, 73, 110
2, 132284, Note_off_c, 0, 73, 100
2, 132288, Note_on_c, 0, 69, 110
2, 132288, Note_on_c, 0, 81, 110
2, 132476, Note_off_c, 0, 69, 100
2, 132476, Note_off_c, 0, 81, 100
2, 132480, Note_on_c, 0, 69, 110
2, 132480, Note_on_c, 0, 81, 110
2, 132668, Note_off_c, 0, 69, 100
2, 132668, Note_off_c, 0, 81, 100
2, 132672, Note_on_c, 0, 73, 110
2, 132672, Note_on_c, 0, 85, 110
2, 132860, Note_off_c, 0, 73, 100
2, 132860, Note_off_c, 0, 85, 100
2, 132864, Note_on_c, 0, 73, 110
2, 132864, Note_on_c, 0, 85, 110
2, 133052, Note_off_c, 0, 73, 100
2, 133052, Note_off_c, 0, 85, 100
2, 133056, Note_on_c, 0, 71, 110
2, 133056, Note_on_c, 0, 83, 110
2, 133244, Note_off_c, 0, 71, 100
2, 133244, Note_off_c, 0, 83, 100
2, 133248, Note_on_c, 0, 69, 110
2, 133248, Note_on_c, 0, 81, 110
2, 133436, Note_off_c, 0, 69, 100
2, 133436, Note_off_c, 0, 81, 100
2, 133440, Note_on_c, 0, 68, 110
2, 133440, Note_on_c, 0, 80, 110
2, 133628, Note_off_c, 0, 68, 100
2, 133628, Note_off_c, 0, 80, 100
2, 133632, Note_on_c, 0, 68, 110
2, 133632, Note_on_c, 0, 80, 110
2, 133820, Note_off_c, 0, 68, 100
2, 133820, Note_off_c, 0, 80, 100
2, 133824, Note_on_c, 0, 66, 110
2, 133824, Note_on_c, 0, 78, 110
2, 134012, Note_off_c, 0, 66, 100
2, 134012, Note_off_c, 0, 78, 100
2, 134016, Note_on_c, 0, 66, 110
2, 134016, Note_on_c, 0, 78, 110
2, 134204, Note_off_c, 0, 66, 100
2, 134204, Note_off_c, 0, 78, 100
2, 134208, Note_on_c, 0, 68, 110
2, 134208, Note_on_c, 0, 80, 110
2, 134396, Note_off_c, 0, 68, 100
2, 134396, Note_off_c, 0, 80, 100
2, 134400, Note_on_c, 0, 69, 110
2, 134400, Note_on_c, 0, 81, 110
2, 134588, Note_off_c, 0, 69, 100
2, 134588, Note_off_c, 0, 81, 100
2, 134592, Note_on_c, 0, 71, 110
2, 134592, Note_on_c, 0, 83, 110
2, 134780, Note_off_c, 0, 71, 100
2, 134780, Note_off_c, 0, 83, 100
2, 134784, Note_on_c, 0, 68, 110
2, 134784, Note_on_c, 0, 80, 110
2, 134972, Note_off_c, 0, 68, 100
2, 134972, Note_off_c, 0, 80, 100
2, 134976, Note_on_c, 0, 71, 110
2, 135236, Note_off_c, 0, 71, 64
2, 135264, Note_on_c, 0, 75, 80
2, 135356, Note_off_c, 0, 75, 100
2, 135360, Note_on_c, 0, 76, 80
2, 135452, Note_off_c, 0, 76, 100
2, 135456, Note_on_c, 0, 68, 80
2, 135548, Note_off_c, 0, 68, 100
2, 135552, Note_on_c, 0, 69, 80
2, 135644, Note_off_c, 0, 69, 100
2, 135648, Note_on_c, 0, 71, 80
2, 135740, Note_off_c, 0, 71, 100
2, 135744, Note_on_c, 0, 64, 80
2, 136508, Note_off_c, 0, 64, 64
2, 136512, Note_on_c, 0, 68, 80
2, 136700, Note_off_c, 0, 68, 100
2, 136704, Note_on_c, 0, 66, 80
2, 136892, Note_off_c, 0, 66, 100
2, 136896, Note_on_c, 0, 64, 80
2, 137468, Note_off_c, 0, 64, 100
2, 137472, Note_on_c, 0, 69, 80
2, 137472, Note_on_c, 0, 63, 80
2, 138044, Note_off_c, 0, 63, 100
2, 138048, Note_on_c, 0, 66, 80
2, 138140, Note_off_c, 0, 66, 100
2, 138144, Note_on_c, 0, 68, 80
2, 138236, Note_off_c, 0, 69, 64
2, 138236, Note_off_c, 0, 68, 100
2, 138240, Note_on_c, 0, 69, 80
2, 138240, Note_on_c, 0, 73, 80
2, 138332, Note_off_c, 0, 69, 100
2, 138336, Note_on_c, 0, 63, 80
2, 138428, Note_off_c, 0, 73, 100
2, 138428, Note_off_c, 0, 63, 100
2, 138432, Note_on_c, 0, 64, 80
2, 138432, Note_on_c, 0, 71, 80
2, 138524, Note_off_c, 0, 64, 100
2, 138528, Note_on_c, 0, 66, 80
2, 138620, Note_off_c, 0, 71, 100
2, 138620, Note_off_c, 0, 66, 100
2, 138624, Note_on_c, 0, 64, 80
2, 138624, Note_on_c, 0, 69, 80
2, 138812, Note_off_c, 0, 64, 100
2, 139004, Note_off_c, 0, 69, 100
2, 139008, Note_on_c, 0, 68, 80
2, 139196, Note_off_c, 0, 68, 100
2, 139200, Note_on_c, 0, 68, 80
2, 139200, Note_on_c, 0, 76, 80
2, 139292, Note_off_c, 0, 68, 100
2, 139296, Note_on_c, 0, 69, 80
2, 139388, Note_off_c, 0, 69, 100
2, 139392, Note_on_c, 0, 71, 80
2, 139484, Note_off_c, 0, 71, 100
2, 139488, Note_on_c, 0, 64, 80
2, 139580, Note_off_c, 0, 64, 100
2, 139584, Note_on_c, 0, 66, 80
2, 139676, Note_off_c, 0, 66, 100
2, 139680, Note_on_c, 0, 68, 80
2, 139772, Note_off_c, 0, 68, 100
2, 139964, Note_off_c, 0, 76, 64
2, 139968, Note_on_c, 0, 80, 80
2, 140156, Note_off_c, 0, 80, 100
2, 140160, Note_on_c, 0, 78, 80
2, 140348, Note_off_c, 0, 78, 100
2, 140352, Note_on_c, 0, 66, 80
2, 140352, Note_on_c, 0, 76, 80
2, 140444, Note_off_c, 0, 66, 100
2, 140448, Note_on_c, 0, 68, 80
2, 140540, Note_off_c, 0, 68, 100
2, 140544, Note_on_c, 0, 69, 80
2, 140636, Note_off_c, 0, 69, 100
2, 140640, Note_on_c, 0, 66, 80
2, 140732, Note_off_c, 0, 66, 100
2, 140736, Note_on_c, 0, 68, 80
2, 140828, Note_off_c, 0, 68, 100
2, 140832, Note_on_c, 0, 69, 80
2, 140924, Note_off_c, 0, 76, 100
2, 140924, Note_off_c, 0, 69, 100
2, 140928, Note_on_c, 0, 81, 80
2, 140928, Note_on_c, 0, 75, 80
2, 141500, Note_off_c, 0, 75, 100
2, 141504, Note_on_c, 0, 78, 80
2, 141692, Note_off_c, 0, 81, 64
2, 141696, Note_on_c, 0, 85, 80
2, 141884, Note_off_c, 0, 85, 100
2, 141888, Note_on_c, 0, 83, 80
2, 142076, Note_off_c, 0, 78, 100
2, 142076, Note_off_c, 0, 83, 100
2, 142080, Note_on_c, 0, 78, 80
2, 142080, Note_on_c, 0, 81, 80
2, 142460, Note_off_c, 0, 78, 100
2, 142460, Note_off_c, 0, 81, 100
2, 142464, Note_on_c, 0, 76, 80
2, 142464, Note_on_c, 0, 80, 80
2, 142652, Note_off_c, 0, 76, 100
2, 142652, Note_off_c, 0, 80, 100
2, 142656, Note_on_c, 0, 80, 80
2, 142748, Note_off_c, 0, 80, 100
2, 142752, Note_on_c, 0, 81, 80
2, 142844, Note_off_c, 0, 81, 100
2, 142848, Note_on_c, 0, 83, 81
2, 142940, Note_off_c, 0, 83, 100
2, 142944, Note_on_c, 0, 76, 82
2, 143036, Note_off_c, 0, 76, 100
2, 143040, Note_on_c, 0, 78, 82
2, 143132, Note_off_c, 0, 78, 100
2, 143136, Note_on_c, 0, 80, 83
2, 143228, Note_off_c, 0, 80, 100
2, 143232, Note_on_c, 0, 68, 84
2, 143232, Note_on_c, 0, 71, 84
2, 143324, Note_off_c, 0, 68, 100
2, 143328, Note_on_c, 0, 69, 84
2, 143420, Note_off_c, 0, 71, 100
2, 143420, Note_off_c, 0, 69, 100
2, 143424, Note_on_c, 0, 71, 85
2, 143516, Note_off_c, 0, 71, 100
2, 143520, Note_on_c, 0, 64, 86
2, 143612, Note_off_c, 0, 64, 100
2, 143616, Note_on_c, 0, 66, 86
2, 143708, Note_off_c, 0, 66, 100
2, 143712, Note_on_c, 0, 68, 87
2, 143804, Note_off_c, 0, 68, 100
2, 143808, Note_on_c, 0, 69, 88
2, 143808, Note_on_c, 0, 59, 88
2, 143900, Note_off_c, 0, 69, 100
2, 143904, Note_on_c, 0, 71, 88
2, 143996, Note_off_c, 0, 71, 100
2, 144000, Note_on_c, 0, 73, 89
2, 144092, Note_off_c, 0, 73, 100
2, 144096, Note_on_c, 0, 66, 90
2, 144188, Note_off_c, 0, 59, 100
2, 144188, Note_off_c, 0, 66, 100
2, 144192, Note_on_c, 0, 68, 91
2, 144284, Note_off_c, 0, 68, 100
2, 144288, Note_on_c, 0, 69, 91
2, 144380, Note_off_c, 0, 69, 100
2, 144384, Note_on_c, 0, 78, 92
2, 144476, Note_off_c, 0, 78, 100
2, 144480, Note_on_c, 0, 80, 93
2, 144572, Note_off_c, 0, 80, 100
2, 144576, Note_on_c, 0, 81, 93
2, 144668, Note_off_c, 0, 81, 100
2, 144672, Note_on_c, 0, 78, 94
2, 144764, Note_off_c, 0, 78, 100
2, 144768, Note_on_c, 0, 80, 95
2, 144860, Note_off_c, 0, 80, 100
2, 144864, Note_on_c, 0, 81, 95
2, 144956, Note_off_c, 0, 81, 100
2, 144960, Note_on_c, 0, 83, 96
2, 145052, Note_off_c, 0, 83, 100
2, 145056, Note_on_c, 0, 85, 97
2, 145148, Note_off_c, 0, 85, 100
2, 145152, Note_on_c, 0, 87, 97
2, 145244, Note_off_c, 0, 87, 100
2, 145248, Note_on_c, 0, 83, 98
2, 145340, Note_off_c, 0, 83, 100
2, 145344, Note_on_c, 0, 85, 99
2, 145436, Note_off_c, 0, 85, 100
2, 145440, Note_on_c, 0, 87, 99
2, 145532, Note_off_c, 0, 87, 100
2, 145536, Note_on_c, 0, 88, 100
2, 145628, Note_off_c, 0, 88, 100
2, 145632, Note_on_c, 0, 90, 99
2, 145724, Note_off_c, 0, 90, 100
2, 145728, Note_on_c, 0, 92, 98
2, 145820, Note_off_c, 0, 92, 100
2, 145824, Note_on_c, 0, 88, 97
2, 145916, Note_off_c, 0, 88, 100
2, 145920, Note_on_c, 0, 90, 96
2, 146012, Note_off_c, 0, 90, 100
2, 146016, Note_on_c, 0, 92, 95
2, 146108, Note_off_c, 0, 92, 100
2, 146112, Note_on_c, 0, 80, 93
2, 146204, Note_off_c, 0, 80, 100
2, 146208, Note_on_c, 0, 81, 92
2, 146300, Note_off_c, 0, 81, 100
2, 146304, Note_on_c, 0, 83, 91
2, 146396, Note_off_c, 0, 83, 100
2, 146400, Note_on_c, 0, 80, 90
2, 146492, Note_off_c, 0, 80, 100
2, 146496, Note_on_c, 0, 81, 89
2, 146588, Note_off_c, 0, 81, 100
2, 146592, Note_on_c, 0, 83, 88
2, 146684, Note_off_c, 0, 83, 100
2, 146688, Note_on_c, 0, 71, 86
2, 146688, Note_on_c, 0, 83, 86
2, 147068, Note_off_c, 0, 71, 100
2, 147068, Note_off_c, 0, 83, 100
2, 147072, Note_on_c, 0, 70, 82
2, 147072, Note_on_c, 0, 82, 82
2, 147260, Note_off_c, 0, 70, 100
2, 147260, Note_off_c, 0, 82, 100
2, 147264, Note_on_c, 0, 82, 80
2, 147356, Note_off_c, 0, 82, 100
2, 147360, Note_on_c, 0, 79, 80
2, 147452, Note_off_c, 0, 79, 100
2, 147456, Note_on_c, 0, 76, 80
2, 147548, Note_off_c, 0, 76, 100
2, 147552, Note_on_c, 0, 70, 80
2, 147644, Note_off_c, 0, 70, 100
2, 147648, Note_on_c, 0, 76, 80
2, 147740, Note_off_c, 0, 76, 100
2, 147744, Note_on_c, 0, 79, 80
2, 147836, Note_off_c, 0, 79, 100
2, 147840, Note_on_c, 0, 82, 80
2, 147932, Note_off_c, 0, 82, 100
2, 147936, Note_on_c, 0, 79, 80
2, 148028, Note_off_c, 0, 79, 100
2, 148032, Note_on_c, 0, 81, 80
2, 148124, Note_off_c, 0, 81, 100
2, 148128, Note_on_c, 0, 77, 80
2, 148220, Note_off_c, 0, 77, 100
2, 148224, Note_on_c, 0, 79, 80
2, 148316, Note_off_c, 0, 79, 100
2, 148320, Note_on_c, 0, 76, 80
2, 148412, Note_off_c, 0, 76, 100
2, 148416, Note_on_c, 0, 76, 80
2, 148416, Note_on_c, 0, 82, 80
2, 148604, Note_off_c, 0, 76, 100
2, 148604, Note_off_c, 0, 82, 100
2, 148608, Note_on_c, 0, 75, 80
2, 148608, Note_on_c, 0, 83, 80
2, 148796, Note_off_c, 0, 75, 100
2, 148796, Note_off_c, 0, 83, 100
2, 148800, Note_on_c, 0, 71, 80
2, 149084, Note_off_c, 0, 71, 64
2, 149088, Note_on_c, 0, 75, 80
2, 149180, Note_off_c, 0, 75, 100
2, 149184, Note_on_c, 0, 76, 80
2, 149276, Note_off_c, 0, 76, 100
2, 149280, Note_on_c, 0, 68, 80
2, 149372, Note_off_c, 0, 68, 100
2, 149376, Note_on_c, 0, 69, 80
2, 149468, Note_off_c, 0, 69, 100
2, 149472, Note_on_c, 0, 71, 80
2, 149564, Note_off_c, 0, 71, 100
2, 149568, Note_on_c, 0, 64, 80
2, 150332, Note_off_c, 0, 64, 64
2, 150336, Note_on_c, 0, 68, 80
2, 150524, Note_off_c, 0, 68, 100
2, 150528, Note_on_c, 0, 66, 80
2, 150716, Note_off_c, 0, 66, 100
2, 150720, Note_on_c, 0, 64, 80
2, 151292, Note_off_c, 0, 64, 100
2, 151296, Note_on_c, 0, 69, 80
2, 151296, Note_on_c, 0, 63, 80
2, 151868, Note_off_c, 0, 63, 100
2, 151872, Note_on_c, 0, 66, 80
2, 151964, Note_off_c, 0, 66, 100
2, 151968, Note_on_c, 0, 68, 80
2, 152060, Note_off_c, 0, 69, 64
2, 152060, Note_off_c, 0, 68, 100
2, 152064, Note_on_c, 0, 69, 80
2, 152064, Note_on_c, 0, 73, 80
2, 152156, Note_off_c, 0, 69, 100
2, 152160, Note_on_c, 0, 63, 80
2, 152252, Note_off_c, 0, 73, 100
2, 152252, Note_off_c, 0, 63, 100
2, 152256, Note_on_c, 0, 64, 80
2, 152256, Note_on_c, 0, 71, 80
2, 152348, Note_off_c, 0, 64, 100
2, 152352, Note_on_c, 0, 66, 80
2, 152444, Note_off_c, 0, 71, 100
2, 152444, Note_off_c, 0, 66, 100
2, 152448, Note_on_c, 0, 64, 80
2, 152448, Note_on_c, 0, 69, 80
2, 152636, Note_off_c, 0, 64, 100
2, 152828, Note_off_c, 0, 69, 100
2, 152832, Note_on_c, 0, 68, 80
2, 153020, Note_off_c, 0, 68, 100
2, 153024, Note_on_c, 0, 68, 80
2, 153024, Note_on_c, 0, 76, 80
2, 153116, Note_off_c, 0, 68, 100
2, 153120, Note_on_c, 0, 69, 80
2, 153212, Note_off_c, 0, 69, 100
2, 153216, Note_on_c, 0, 71, 80
2, 153308, Note_off_c, 0, 71, 100
2, 153312, Note_on_c, 0, 64, 80
2, 153404, Note_off_c, 0, 64, 100
2, 153408, Note_on_c, 0, 66, 80
2, 153500, Note_off_c, 0, 66, 100
2, 153504, Note_on_c, 0, 68, 80
2, 153596, Note_off_c, 0, 68, 100
2, 153788, Note_off_c, 0, 76, 64
2, 153792, Note_on_c, 0, 80, 80
2, 153980, Note_off_c, 0, 80, 100
2, 153984, Note_on_c, 0, 78, 80
2, 154172, Note_off_c, 0, 78, 100
2, 154176, Note_on_c, 0, 66, 80
2, 154176, Note_on_c, 0, 76, 80
2, 154268, Note_off_c, 0, 66, 100
2, 154272, Note_on_c, 0, 68, 80
2, 154364, Note_off_c, 0, 68, 100
2, 154368, Note_on_c, 0, 69, 80
2, 154460, Note_off_c, 0, 69, 100
2, 154464, Note_on_c, 0, 66, 80
2, 154556, Note_off_c, 0, 66, 100
2, 154560, Note_on_c, 0, 68, 80
2, 154652, Note_off_c, 0, 68, 100
2, 154656, Note_on_c, 0, 69, 80
2, 154748, Note_off_c, 0, 76, 100
2, 154748, Note_off_c, 0, 69, 100
2, 154752, Note_on_c, 0, 81, 80
2, 154752, Note_on_c, 0, 75, 80
2, 155324, Note_off_c, 0, 75, 100
2, 155328, Note_on_c, 0, 78, 80
2, 155516, Note_off_c, 0, 81, 64
2, 155520, Note_on_c, 0, 85, 80
2, 155708, Note_off_c, 0, 85, 100
2, 155712, Note_on_c, 0, 83, 80
2, 155900, Note_off_c, 0, 78, 100
2, 155900, Note_off_c, 0, 83, 100
2, 155904, Note_on_c, 0, 78, 80
2, 155904, Note_on_c, 0, 81, 80
2, 156284, Note_off_c, 0, 78, 100
2, 156284, Note_off_c, 0, 81, 100
2, 156288, Note_on_c, 0, 76, 80
2, 156288, Note_on_c, 0, 80, 80
2, 156476, Note_off_c, 0, 76, 100
2, 156476, Note_off_c, 0, 80, 100
2, 156480, Note_on_c, 0, 80, 80
2, 156572, Note_off_c, 0, 80, 100
2, 156576, Note_on_c, 0, 81, 80
2, 156668, Note_off_c, 0, 81, 100
2, 156672, Note_on_c, 0, 83, 81
2, 156764, Note_off_c, 0, 83, 100
2, 156768, Note_on_c, 0, 76, 82
2, 156860, Note_off_c, 0, 76, 100
2, 156864, Note_on_c, 0, 78, 82
2, 156956, Note_off_c, 0, 78, 100
2, 156960, Note_on_c, 0, 80, 83
2, 157052, Note_off_c, 0, 80, 100
2, 157056, Note_on_c, 0, 68, 84
2, 157056, Note_on_c, 0, 71, 84
2, 157148, Note_off_c, 0, 68, 100
2, 157152, Note_on_c, 0, 69, 84
2, 157244, Note_off_c, 0, 71, 100
2, 157244, Note_off_c, 0, 69, 100
2, 157248, Note_on_c, 0, 71, 85
2, 157340, Note_off_c, 0, 71, 100
2, 157344, Note_on_c, 0, 64, 86
2, 157436, Note_off_c, 0, 64, 100
2, 157440, Note_on_c, 0, 66, 86
2, 157532, Note_off_c, 0, 66, 100
2, 157536, Note_on_c, 0, 68, 87
2, 157628, Note_off_c, 0, 68, 100
2, 157632, Note_on_c, 0, 69, 88
2, 157632, Note_on_c, 0, 59, 88
2, 157724, Note_off_c, 0, 69, 100
2, 157728, Note_on_c, 0, 71, 88
2, 157820, Note_off_c, 0, 71, 100
2, 157824, Note_on_c, 0, 73, 89
2, 157916, Note_off_c, 0, 73, 100
2, 157920, Note_on_c, 0, 66, 90
2, 158012, Note_off_c, 0, 59, 100
2, 158012, Note_off_c, 0, 66, 100
2, 158016, Note_on_c, 0, 68, 91
2, 158108, Note_off_c, 0, 68, 100
2, 158112, Note_on_c, 0, 69, 91
2, 158204, Note_off_c, 0, 69, 100
2, 158208, Note_on_c, 0, 78, 92
2, 158300, Note_off_c, 0, 78, 100
2, 158304, Note_on_c, 0, 80, 93
2, 158396, Note_off_c, 0, 80, 100
2, 158400, Note_on_c, 0, 81, 93
2, 158492, Note_off_c, 0, 81, 100
2, 158496, Note_on_c, 0, 78, 94
2, 158588, Note_off_c, 0, 78, 100
2, 158592, Note_on_c, 0, 80, 95
2, 158684, Note_off_c, 0, 80, 100
2, 158688, Note_on_c, 0, 81, 95
2, 158780, Note_off_c, 0, 81, 100
2, 158784, Note_on_c, 0, 83, 96
2, 158876, Note_off_c, 0, 83, 100
2, 158880, Note_on_c, 0, 85, 97
2, 158972, Note_off_c, 0, 85, 100
2, 158976, Note_on_c, 0, 87, 97
2, 159068, Note_off_c, 0, 87, 100
2, 159072, Note_on_c, 0, 83, 98
2, 159164, Note_off_c, 0, 83, 100
2, 159168, Note_on_c, 0, 85, 99
2, 159260, Note_off_c, 0, 85, 100
2, 159264, Note_on_c, 0, 87, 99
2, 159356, Note_off_c, 0, 87, 100
2, 159360, Note_on_c, 0, 88, 100
2, 159452, Note_off_c, 0, 88, 100
2, 159456, Note_on_c, 0, 90, 99
2, 159548, Note_off_c, 0, 90, 100
2, 159552, Note_on_c, 0, 92, 98
2, 159644, Note_off_c, 0, 92, 100
2, 159648, Note_on_c, 0, 88, 97
2, 159740, Note_off_c, 0, 88, 100
2, 159744, Note_on_c, 0, 90, 96
2, 159836, Note_off_c, 0, 90, 100
2, 159840, Note_on_c, 0, 92, 95
2, 159932, Note_off_c, 0, 92, 100
2, 159936, Note_on_c, 0, 80, 93
2, 160028, Note_off_c, 0, 80, 100
2, 160032, Note_on_c, 0, 81, 92
2, 160124, Note_off_c, 0, 81, 100
2, 160128, Note_on_c, 0, 83, 91
2, 160220, Note_off_c, 0, 83, 100
2, 160224, Note_on_c, 0, 80, 90
2, 160316, Note_off_c, 0, 80, 100
2, 160320, Note_on_c, 0, 81, 89
2, 160412, Note_off_c, 0, 81, 100
2, 160416, Note_on_c, 0, 83, 88
2, 160508, Note_off_c, 0, 83, 100
2, 160512, Note_on_c, 0, 71, 86
2, 160512, Note_on_c, 0, 83, 86
2, 160892, Note_off_c, 0, 71, 100
2, 160892, Note_off_c, 0, 83, 100
2, 160896, Note_on_c, 0, 70, 82
2, 160896, Note_on_c, 0, 82, 82
2, 161084, Note_off_c, 0, 70, 100
2, 161084, Note_off_c, 0, 82, 100
2, 161088, Note_on_c, 0, 82, 80
2, 161180, Note_off_c, 0, 82, 100
2, 161184, Note_on_c, 0, 79, 80
2, 161276, Note_off_c, 0, 79, 100
2, 161280, Note_on_c, 0, 76, 80
2, 161372, Note_off_c, 0, 76, 100
2, 161376, Note_on_c, 0, 70, 80
2, 161468, Note_off_c, 0, 70, 100
2, 161472, Note_on_c, 0, 76, 80
2, 161564, Note_off_c, 0, 76, 100
2, 161568, Note_on_c, 0, 79, 80
2, 161660, Note_off_c, 0, 79, 100
2, 161664, Note_on_c, 0, 82, 80
2, 161756, Note_off_c, 0, 82, 100
2, 161760, Note_on_c, 0, 79, 80
2, 161852, Note_off_c, 0, 79, 100
2, 161856, Note_on_c, 0, 81, 80
2, 161948, Note_off_c, 0, 81, 100
2, 161952, Note_on_c, 0, 77, 80
2, 162044, Note_off_c, 0, 77, 100
2, 162048, Note_on_c, 0, 79, 80
2, 162140, Note_off_c, 0, 79, 100
2, 162144, Note_on_c, 0, 76, 80
2, 162236, Note_off_c, 0, 76, 100
2, 162240, Note_on_c, 0, 76, 80
2, 162240, Note_on_c, 0, 82, 80
2, 162428, Note_off_c, 0, 76, 100
2, 162428, Note_off_c, 0, 82, 100
2, 162432, Note_on_c, 0, 75, 80
2, 162432, Note_on_c, 0, 83, 80
2, 162620, Note_off_c, 0, 75, 100
2, 162620, Note_off_c, 0, 83, 100
2, 162624, Note_on_c, 0, 74, 80
2, 162812, Note_off_c, 0, 74, 100
2, 162816, Control_c, 0, 64, 127
2, 162816, Note_on_c, 0, 74, 70
2, 162908, Note_off_c, 0, 74, 100
2, 162912, Note_on_c, 0, 68, 70
2, 162912, Note_on_c, 0, 61, 70
2, 162912, Note_on_c, 0, 65, 70
2, 163004, Note_off_c, 0, 68, 100
2, 163004, Note_off_c, 0, 61, 100
2, 163004, Note_off_c, 0, 65, 100
2, 163008, Note_on_c, 0, 74, 70
2, 163100, Note_off_c, 0, 74, 100
2, 163104, Note_on_c, 0, 68, 70
2, 163104, Note_on_c, 0, 61, 70
2, 163104, Note_on_c, 0, 65, 70
2, 163196, Note_off_c, 0, 68, 100
2, 163196, Note_off_c, 0, 61, 100
2, 163196, Note_off_c, 0, 65, 100
2, 163200, Note_on_c, 0, 74, 70
2, 163292, Note_off_c, 0, 74, 100
2, 163296, Note_on_c, 0, 68, 70
2, 163296, Note_on_c, 0, 61, 70
2, 163296, Note_on_c, 0, 65, 70
2, 163388, Note_off_c, 0, 68, 100
2, 163388, Note_off_c, 0, 61, 100
2, 163388, Note_off_c, 0, 65, 100
2, 163392, Note_on_c, 0, 84, 70
2, 163484, Note_off_c, 0, 84, 100
2, 163488, Note_on_c, 0, 85, 70
2, 163580, Note_off_c, 0, 85, 100
2, 163584, Note_on_c, 0, 86, 70
2, 163676, Note_off_c, 0, 86, 100
2, 163680, Note_on_c, 0, 85, 70
2, 163772, Note_off_c, 0, 85, 100
2, 163776, Note_on_c, 0, 86, 70
2, 163964, Note_off_c, 0, 86, 100
2, 163964, Control_c, 0, 64, 0
2, 163968, Control_c, 0, 64, 127
2, 163968, Note_on_c, 0, 73, 70
2, 164060, Note_off_c, 0, 73, 100
2, 164064, Note_on_c, 0, 66, 70
2, 164064, Note_on_c, 0, 69, 70
2, 164156, Note_off_c, 0, 66, 100
2, 164156, Note_off_c, 0, 69, 100
2, 164160, Note_on_c, 0, 73, 70
2, 164252, Note_off_c, 0, 73, 100
2, 164256, Note_on_c, 0, 66, 70
2, 164256, Note_on_c, 0, 69, 70
2, 164348, Note_off_c, 0, 66, 100
2, 164348, Note_off_c, 0, 69, 100
2, 164352, Note_on_c, 0, 73, 70
2, 164444, Note_off_c, 0, 73, 100
2, 164448, Note_on_c, 0, 66, 70
2, 164448, Note_on_c, 0, 69, 70
2, 164540, Note_off_c, 0, 66, 100
2, 164540, Note_off_c, 0, 69, 100
2, 164540, Control_c, 0, 64, 0
2, 164544, Control_c, 0, 64, 127
2, 164544, Note_on_c, 0, 73, 70
2, 164636, Note_off_c, 0, 73, 100
2, 164640, Note_on_c, 0, 63, 70
2, 164640, Note_on_c, 0, 66, 70
2, 164640, Note_on_c, 0, 69, 70
2, 164732, Note_off_c, 0, 63, 100
2, 164732, Note_off_c, 0, 66, 100
2, 164732, Note_off_c, 0, 69, 100
2, 164736, Note_on_c, 0, 73, 70
2, 164828, Note_off_c, 0, 73, 100
2, 164832, Note_on_c, 0, 63, 70
2, 164832, Note_on_c, 0, 66, 70
2, 164832, Note_on_c, 0, 69, 70
2, 164924, Note_off_c, 0, 63, 100
2, 164924, Note_off_c, 0, 66, 100
2, 164924, Note_off_c, 0, 69, 100
2, 164928, Note_on_c, 0, 73, 70
2, 165020, Note_off_c, 0, 73, 100
2, 165024, Note_on_c, 0, 63, 70
2, 165024, Note_on_c, 0, 66, 70
2, 165024, Note_on_c, 0, 69, 70
2, 165116, Note_off_c, 0, 63, 100
2, 165116, Note_off_c, 0, 66, 100
2, 165116, Note_off_c, 0, 69, 100
2, 165120, Note_on_c, 0, 83, 70
2, 165212, Note_off_c, 0, 83, 100
2, 165216, Note_on_c, 0, 84, 70
2, 165308, Note_off_c, 0, 84, 100
2, 165312, Note_on_c, 0, 85, 70
2, 165404, Note_off_c, 0, 85, 100
2, 165408, Note_on_c, 0, 84, 70
2, 165500, Note_off_c, 0, 84, 100
2, 165504, Note_on_c, 0, 85, 70
2, 165692, Note_off_c, 0, 85, 100
2, 165692, Control_c, 0, 64, 0
2, 165696, Control_c, 0, 64, 127
2, 165696, Note_on_c, 0, 71, 70
2, 165788, Note_off_c, 0, 71, 100
2, 165792, Note_on_c, 0, 64, 70
2, 165792, Note_on_c, 0, 68, 70
2, 165884, Note_off_c, 0, 64, 100
2, 165884, Note_off_c, 0, 68, 100
2, 165888, Note_on_c, 0, 71, 70
2, 165980, Note_off_c, 0, 71, 100
2, 165984, Note_on_c, 0, 64, 70
2, 165984, Note_on_c, 0, 68, 70
2, 166076, Note_off_c, 0, 64, 100
2, 166076, Note_off_c, 0, 68, 100
2, 166080, Note_on_c, 0, 71, 70
2, 166172, Note_off_c, 0, 71, 100
2, 166176, Note_on_c, 0, 64, 70
2, 166176, Note_on_c, 0, 68, 70
2, 166268, Note_off_c, 0, 64, 100
2, 166268, Note_off_c, 0, 68, 100
2, 166268, Control_c, 0, 64, 0
2, 166272, Control_c, 0, 64, 127
2, 166272, Note_on_c, 0, 76, 80
2, 166364, Note_off_c, 0, 76, 100
2, 166368, Note_on_c, 0, 64, 81
2, 166368, Note_on_c, 0, 67, 81
2, 166368, Note_on_c, 0, 73, 81
2, 166460, Note_off_c, 0, 64, 100
2, 166460, Note_off_c, 0, 67, 100
2, 166460, Note_off_c, 0, 73, 100
2, 166464, Note_on_c, 0, 76, 83
2, 166556, Note_off_c, 0, 76, 100
2, 166560, Note_on_c, 0, 64, 85
2, 166560, Note_on_c, 0, 67, 85
2, 166560, Note_on_c, 0, 73, 85
2, 166652, Note_off_c, 0, 64, 100
2, 166652, Note_off_c, 0, 67, 100
2, 166652, Note_off_c, 0, 73, 100
2, 166656, Note_on_c, 0, 76, 87
2, 166748, Note_off_c, 0, 76, 100
2, 166752, Note_on_c, 0, 64, 88
2, 166752, Note_on_c, 0, 67, 88
2, 166752, Note_on_c, 0, 73, 88
2, 166844, Note_off_c, 0, 64, 100
2, 166844, Note_off_c, 0, 67, 100
2, 166844, Note_off_c, 0, 73, 100
2, 166848, Note_on_c, 0, 76, 90
2, 166940, Note_off_c, 0, 76, 100
2, 166944, Note_on_c, 0, 64, 92
2, 166944, Note_on_c, 0, 67, 92
2, 166944, Note_on_c, 0, 73, 92
2, 167036, Note_off_c, 0, 64, 100
2, 167036, Note_off_c, 0, 67, 100
2, 167036, Note_off_c, 0, 73, 100
2, 167040, Note_on_c, 0, 76, 94
2, 167132, Note_off_c, 0, 76, 100
2, 167136, Note_on_c, 0, 64, 95
2, 167136, Note_on_c, 0, 67, 95
2, 167136, Note_on_c, 0, 73, 95
2, 167228, Note_off_c, 0, 64, 100
2, 167228, Note_off_c, 0, 67, 100
2, 167228, Note_off_c, 0, 73, 100
2, 167232, Note_on_c, 0, 76, 97
2, 167324, Note_off_c, 0, 76, 100
2, 167328, Note_on_c, 0, 64, 99
2, 167328, Note_on_c, 0, 67, 99
2, 167328, Note_on_c, 0, 73, 99
2, 167420, Note_off_c, 0, 64, 100
2, 167420, Note_off_c, 0, 67, 100
2, 167420, Note_off_c, 0, 73, 100
2, 167424, Note_on_c, 0, 76, 101
2, 167516, Note_off_c, 0, 76, 100
2, 167520, Note_on_c, 0, 64, 102
2, 167520, Note_on_c, 0, 67, 102
2, 167520, Note_on_c, 0, 73, 102
2, 167612, Note_off_c, 0, 64, 100
2, 167612, Note_off_c, 0, 67, 100
2, 167612, Note_off_c, 0, 73, 100
2, 167616, Note_on_c, 0, 76, 104
2, 167708, Note_off_c, 0, 76, 100
2, 167712, Note_on_c, 0, 64, 106
2, 167712, Note_on_c, 0, 67, 106
2, 167712, Note_on_c, 0, 73, 106
2, 167804, Note_off_c, 0, 64, 100
2, 167804, Note_off_c, 0, 67, 100
2, 167804, Note_off_c, 0, 73, 100
2, 167808, Note_on_c, 0, 75, 108
2, 167900, Note_off_c, 0, 75, 100
2, 167904, Note_on_c, 0, 63, 109
2, 167904, Note_on_c, 0, 67, 109
2, 167904, Note_on_c, 0, 73, 109
2, 167996, Note_off_c, 0, 63, 100
2, 167996, Note_off_c, 0, 67, 100
2, 167996, Note_off_c, 0, 73, 100
2, 167996, Control_c, 0, 64, 0
2, 168000, Note_on_c, 0, 75, 110
2, 168092, Note_off_c, 0, 75, 100
2, 168096, Note_on_c, 0, 63, 110
2, 168096, Note_on_c, 0, 68, 110
2, 168096, Note_on_c, 0, 71, 110
2, 168188, Note_off_c, 0, 63, 100
2, 168188, Note_off_c, 0, 68, 100
2, 168188, Note_off_c, 0, 71, 100
2, 168192, Note_on_c, 0, 75, 110
2, 168284, Note_off_c, 0, 75, 100
2, 168288, Note_on_c, 0, 63, 110
2, 168288, Note_on_c, 0, 68, 110
2, 168288, Note_on_c, 0, 71, 110
2, 168380, Note_off_c, 0, 63, 100
2, 168380, Note_off_c, 0, 68, 100
2, 168380, Note_off_c, 0, 71, 100
2, 168384, Note_on_c, 0, 75, 110
2, 168476, Note_off_c, 0, 75, 100
2, 168480, Note_on_c, 0, 63, 110
2, 168480, Note_on_c, 0, 68, 110
2, 168480, Note_on_c, 0, 71, 110
2, 168572, Note_off_c, 0, 63, 100
2, 168572, Note_off_c, 0, 68, 100
2, 168572, Note_off_c, 0, 71, 100
2, 168576, Note_on_c, 0, 75, 110
2, 168668, Note_off_c, 0, 75, 100
2, 168672, Note_on_c, 0, 63, 110
2, 168672, Note_on_c, 0, 67, 110
2, 168672, Note_on_c, 0, 70, 110
2, 168764, Note_off_c, 0, 63, 100
2, 168764, Note_off_c, 0, 67, 100
2, 168764, Note_off_c, 0, 70, 100
2, 168768, Note_on_c, 0, 75, 110
2, 168860, Note_off_c, 0, 75, 100
2, 168864, Note_on_c, 0, 63, 110
2, 168864, Note_on_c, 0, 67, 110
2, 168864, Note_on_c, 0, 70, 110
2, 168956, Note_off_c, 0, 63, 100
2, 168956, Note_off_c, 0, 67, 100
2, 168956, Note_off_c, 0, 70, 100
2, 168960, Note_on_c, 0, 75, 110
2, 169052, Note_off_c, 0, 75, 100
2, 169056, Note_on_c, 0, 63, 110
2, 169056, Note_on_c, 0, 67, 110
2, 169056, Note_on_c, 0, 70, 110
2, 169148, Note_off_c, 0, 63, 100
2, 169148, Note_off_c, 0, 67, 100
2, 169148, Note_off_c, 0, 70, 100
2, 169152, Note_on_c, 0, 75, 110
2, 169244, Note_off_c, 0, 75, 100
2, 169248, Note_on_c, 0, 63, 110
2, 169248, Note_on_c, 0, 68, 110
2, 169248, Note_on_c, 0, 71, 110
2, 169340, Note_off_c, 0, 63, 100
2, 169340, Note_off_c, 0, 68, 100
2, 169340, Note_off_c, 0, 71, 100
2, 169344, Note_on_c, 0, 75, 110
2, 169436, Note_off_c, 0, 75, 100
2, 169440, Note_on_c, 0, 63, 110
2, 169440, Note_on_c, 0, 68, 110
2, 169440, Note_on_c, 0, 71, 110
2, 169532, Note_off_c, 0, 63, 100
2, 169532, Note_off_c, 0, 68, 100
2, 169532, Note_off_c, 0, 71, 100
2, 169536, Note_on_c, 0, 76, 110
2, 169628, Note_off_c, 0, 76, 100
2, 169632, Note_on_c, 0, 64, 110
2, 169632, Note_on_c, 0, 68, 110
2, 169632, Note_on_c, 0, 71, 110
2, 169724, Note_off_c, 0, 64, 100
2, 169724, Note_off_c, 0, 68, 100
2, 169724, Note_off_c, 0, 71, 100
2, 169728, Note_on_c, 0, 81, 120
2, 169820, Note_off_c, 0, 81, 100
2, 169824, Note_on_c, 0, 83, 120
2, 169916, Note_off_c, 0, 83, 100
2, 169920, Note_on_c, 0, 85, 120
2, 170012, Note_off_c, 0, 85, 100
2, 170016, Note_on_c, 0, 78, 120
2, 170108, Note_off_c, 0, 78, 100
2, 170112, Note_on_c, 0, 80, 120
2, 170204, Note_off_c, 0, 80, 100
2, 170208, Note_on_c, 0, 81, 120
2, 170300, Note_off_c, 0, 81, 100
2, 170304, Note_on_c, 0, 69, 120
2, 170304, Note_on_c, 0, 73, 120
2, 170396, Note_off_c, 0, 69, 100
2, 170400, Note_on_c, 0, 71, 120
2, 170492, Note_off_c, 0, 73, 100
2, 170492, Note_off_c, 0, 71, 100
2, 170496, Note_on_c, 0, 73, 120
2, 170588, Note_off_c, 0, 73, 100
2, 170592, Note_on_c, 0, 69, 120
2, 170684, Note_off_c, 0, 69, 100
2, 170688, Note_on_c, 0, 71, 120
2, 170780, Note_off_c, 0, 71, 100
2, 170784, Note_on_c, 0, 73, 120
2, 170876, Note_off_c, 0, 73, 100
2, 170880, Note_on_c, 0, 69, 110
2, 170880, Note_on_c, 0, 61, 110
2, 170972, Note_off_c, 0, 69, 100
2, 170976, Note_on_c, 0, 71, 107
2, 171068, Note_off_c, 0, 71, 100
2, 171072, Note_on_c, 0, 73, 103
2, 171164, Note_off_c, 0, 73, 100
2, 171168, Note_on_c, 0, 69, 99
2, 171260, Note_off_c, 0, 69, 100
2, 171264, Note_on_c, 0, 71, 95
2, 171356, Note_off_c, 0, 71, 100
2, 171360, Note_on_c, 0, 73, 91
2, 171452, Note_off_c, 0, 61, 100
2, 171452, Note_off_c, 0, 73, 100
2, 171456, Note_on_c, 0, 66, 90
2, 171456, Note_on_c, 0, 73, 90
2, 171548, Note_off_c, 0, 66, 100
2, 171552, Note_on_c, 0, 68, 90
2, 171644, Note_off_c, 0, 68, 100
2, 171648, Note_on_c, 0, 69, 90
2, 171740, Note_off_c, 0, 69, 100
2, 171744, Note_on_c, 0, 66, 90
2, 171836, Note_off_c, 0, 73, 100
2, 171836, Note_off_c, 0, 66, 100
2, 171840, Note_on_c, 0, 68, 90
2, 171840, Note_on_c, 0, 71, 90
2, 171932, Note_off_c, 0, 68, 100
2, 171936, Note_on_c, 0, 69, 90
2, 172028, Note_off_c, 0, 71, 100
2, 172028, Note_off_c, 0, 69, 100
2, 172032, Note_on_c, 0, 78, 90
2, 172032, Note_on_c, 0, 71, 90
2, 172124, Note_off_c, 0, 78, 100
2, 172128, Note_on_c, 0, 80, 90
2, 172220, Note_off_c, 0, 80, 100
2, 172224, Note_on_c, 0, 81, 90
2, 172316, Note_off_c, 0, 81, 100
2, 172320, Note_on_c, 0, 78, 90
2, 172412, Note_off_c, 0, 78, 100
2, 172416, Note_on_c, 0, 80, 90
2, 172508, Note_off_c, 0, 80, 100
2, 172512, Note_on_c, 0, 81, 90
2, 172604, Note_off_c, 0, 71, 100
2, 172604, Note_off_c, 0, 81, 100
2, 172608, Note_on_c, 0, 80, 90
2, 172608, Note_on_c, 0, 71, 90
2, 172700, Note_off_c, 0, 80, 100
2, 172704, Note_on_c, 0, 81, 90
2, 172796, Note_off_c, 0, 71, 100
2, 172796, Note_off_c, 0, 81, 100
2, 172800, Note_on_c, 0, 83, 90
2, 172892, Note_off_c, 0, 83, 100
2, 172896, Note_on_c, 0, 85, 90
2, 172988, Note_off_c, 0, 85, 100
2, 172992, Note_on_c, 0, 87, 90
2, 173084, Note_off_c, 0, 87, 100
2, 173088, Note_on_c, 0, 88, 90
2, 173276, Note_off_c, 0, 88, 64
2, 173280, Note_on_c, 0, 87, 90
2, 173372, Note_off_c, 0, 87, 100
2, 173376, Note_on_c, 0, 85, 90
2, 173468, Note_off_c, 0, 85, 100
2, 173472, Note_on_c, 0, 83, 90
2, 173564, Note_off_c, 0, 83, 100
2, 173568, Note_on_c, 0, 81, 90
2, 173660, Note_off_c, 0, 81, 100
2, 173664, Note_on_c, 0, 80, 90
2, 173756, Note_off_c, 0, 80, 100
2, 173760, Note_on_c, 0, 80, 90
2, 173760, Note_on_c, 0, 83, 90
2, 173852, Note_off_c, 0, 80, 100
2, 173856, Note_on_c, 0, 78, 90
2, 173948, Note_off_c, 0, 78, 100
2, 173952, Note_on_c, 0, 76, 90
2, 174044, Note_off_c, 0, 76, 100
2, 174048, Note_on_c, 0, 80, 90
2, 174140, Note_off_c, 0, 80, 100
2, 174144, Note_on_c, 0, 78, 90
2, 174236, Note_off_c, 0, 78, 100
2, 174240, Note_on_c, 0, 76, 90
2, 174332, Note_off_c, 0, 83, 100
2, 174332, Note_off_c, 0, 76, 100
2, 174336, Note_on_c, 0, 78, 90
2, 174336, Note_on_c, 0, 81, 90
2, 174428, Note_off_c, 0, 78, 100
2, 174432, Note_on_c, 0, 76, 90
2, 174524, Note_off_c, 0, 76, 100
2, 174528, Note_on_c, 0, 75, 90
2, 174620, Note_off_c, 0, 75, 100
2, 174624, Note_on_c, 0, 78, 90
2, 174716, Note_off_c, 0, 78, 100
2, 174720, Note_on_c, 0, 76, 90
2, 174812, Note_off_c, 0, 76, 100
2, 174816, Note_on_c, 0, 75, 90
2, 174908, Note_off_c, 0, 81, 100
2, 174908, Note_off_c, 0, 75, 100
2, 174912, Control_c, 0, 64, 127
2, 174912, Note_on_c, 0, 81, 90
2, 175008, Note_on_c, 0, 78, 90
2, 175104, Note_on_c, 0, 75, 91
2, 175196, Note_off_c, 0, 81, 100
2, 175200, Note_on_c, 0, 71, 92
2, 175292, Note_off_c, 0, 78, 100
2, 175296, Note_on_c, 0, 69, 93
2, 175388, Note_off_c, 0, 75, 100
2, 175392, Note_on_c, 0, 66, 94
2, 175484, Note_off_c, 0, 71, 100
2, 175488, Note_on_c, 0, 63, 94
2, 175580, Note_off_c, 0, 69, 64
2, 175584, Note_on_c, 0, 59, 95
2, 175676, Note_off_c, 0, 66, 64
2, 175680, Note_on_c, 0, 63, 96
2, 175772, Note_off_c, 0, 63, 100
2, 175776, Note_on_c, 0, 66, 97
2, 175868, Note_off_c, 0, 59, 100
2, 175872, Note_on_c, 0, 69, 98
2, 175964, Note_off_c, 0, 63, 100
2, 175968, Note_on_c, 0, 71, 99
2, 176060, Note_off_c, 0, 66, 100
2, 176064, Note_on_c, 0, 75, 99
2, 176156, Note_off_c, 0, 69, 64
2, 176160, Note_on_c, 0, 83, 80
2, 176252, Note_off_c, 0, 71, 64
2, 176252, Note_off_c, 0, 75, 100
2, 176252, Note_off_c, 0, 83, 100
2, 176256, Note_on_c, 0, 80, 80
2, 176444, Note_off_c, 0, 80, 100
2, 176444, Control_c, 0, 64, 0
2, 176448, Note_on_c, 0, 74, 70
2, 176540, Note_off_c, 0, 74, 100
2, 176544, Note_on_c, 0, 65, 70
2, 176544, Note_on_c, 0, 68, 70
2, 176544, Note_on_c, 0, 71, 70
2, 176636, Note_off_c, 0, 65, 100
2, 176636, Note_off_c, 0, 68, 100
2, 176636, Note_off_c, 0, 71, 100
2, 176640, Control_c, 0, 64, 127
2, 176640, Note_on_c, 0, 74, 70
2, 176732, Note_off_c, 0, 74, 100
2, 176736, Note_on_c, 0, 68, 70
2, 176736, Note_on_c, 0, 61, 70
2, 176736, Note_on_c, 0, 65, 70
2, 176828, Note_off_c, 0, 68, 100
2, 176828, Note_off_c, 0, 61, 100
2, 176828, Note_off_c, 0, 65, 100
2, 176832, Note_on_c, 0, 74, 70
2, 176924, Note_off_c, 0, 74, 100
2, 176928, Note_on_c, 0, 68, 70
2, 176928, Note_on_c, 0, 61, 70
2, 176928, Note_on_c, 0, 65, 70
2, 177020, Note_off_c, 0, 68, 100
2, 177020, Note_off_c, 0, 61, 100
2, 177020, Note_off_c, 0, 65, 100
2, 177024, Note_on_c, 0, 74, 70
2, 177116, Note_off_c, 0, 74, 100
2, 177120, Note_on_c, 0, 68, 70
2, 177120, Note_on_c, 0, 61, 70
2, 177120, Note_on_c, 0, 65, 70
2, 177212, Note_off_c, 0, 68, 100
2, 177212, Note_off_c, 0, 61, 100
2, 177212, Note_off_c, 0, 65, 100
2, 177216, Note_on_c, 0, 84, 70
2, 177308, Note_off_c, 0, 84, 100
2, 177312, Note_on_c, 0, 85, 70
2, 177404, Note_off_c, 0, 85, 100
2, 177408, Note_on_c, 0, 86, 70
2, 177500, Note_off_c, 0, 86, 100
2, 177504, Note_on_c, 0, 85, 70
2, 177596, Note_off_c, 0, 85, 100
2, 177600, Note_on_c, 0, 86, 70
2, 177788, Note_off_c, 0, 86, 100
2, 177788, Control_c, 0, 64, 0
2, 177792, Control_c, 0, 64, 127
2, 177792, Note_on_c, 0, 73, 70
2, 177884, Note_off_c, 0, 73, 100
2, 177888, Note_on_c, 0, 66, 70
2, 177888, Note_on_c, 0, 69, 70
2, 177980, Note_off_c, 0, 66, 100
2, 177980, Note_off_c, 0, 69, 100
2, 177984, Note_on_c, 0, 73, 70
2, 178076, Note_off_c, 0, 73, 100
2, 178080, Note_on_c, 0, 66, 70
2, 178080, Note_on_c, 0, 69, 70
2, 178172, Note_off_c, 0, 66, 100
2, 178172, Note_off_c, 0, 69, 100
2, 178176, Note_on_c, 0, 73, 70
2, 178268, Note_off_c, 0, 73, 100
2, 178272, Note_on_c, 0, 66, 70
2, 178272, Note_on_c, 0, 69, 70
2, 178364, Note_off_c, 0, 66, 100
2, 178364, Note_off_c, 0, 69, 100
2, 178364, Control_c, 0, 64, 0
2, 178368, Control_c, 0, 64, 127
2, 178368, Note_on_c, 0, 73, 70
2, 178460, Note_off_c, 0, 73, 100
2, 178464, Note_on_c, 0, 63, 70
2, 178464, Note_on_c, 0, 66, 70
2, 178464, Note_on_c, 0, 69, 70
2, 178556, Note_off_c, 0, 63, 100
2, 178556, Note_off_c, 0, 66, 100
2, 178556, Note_off_c, 0, 69, 100
2, 178560, Note_on_c, 0, 73, 70
2, 178652, Note_off_c, 0, 73, 100
2, 178656, Note_on_c, 0, 63, 70
2, 178656, Note_on_c, 0, 66, 70
2, 178656, Note_on_c, 0, 69, 70
2, 178748, Note_off_c, 0, 63, 100
2, 178748, Note_off_c, 0, 66, 100
2, 178748, Note_off_c, 0, 69, 100
2, 178752, Note_on_c, 0, 73, 70
2, 178844, Note_off_c, 0, 73, 100
2, 178848, Note_on_c, 0, 63, 70
2, 178848, Note_on_c, 0, 66, 70
2, 178848, Note_on_c, 0, 69, 70
2, 178940, Note_off_c, 0, 63, 100
2, 178940, Note_off_c, 0, 66, 100
2, 178940, Note_off_c, 0, 69, 100
2, 178944, Note_on_c, 0, 83, 70
2, 179036, Note_off_c, 0, 83, 100
2, 179040, Note_on_c, 0, 84, 70
2, 179132, Note_off_c, 0, 84, 100
2, 179136, Note_on_c, 0, 85, 70
2, 179228, Note_off_c, 0, 85, 100
2, 179232, Note_on_c, 0, 84, 70
2, 179324, Note_off_c, 0, 84, 100
2, 179328, Note_on_c, 0, 85, 70
2, 179516, Note_off_c, 0, 85, 100
2, 179516, Control_c, 0, 64, 0
2, 179520, Control_c, 0, 64, 127
2, 179520, Note_on_c, 0, 71, 70
2, 179612, Note_off_c, 0, 71, 100
2, 179616, Note_on_c, 0, 64, 70
2, 179616, Note_on_c, 0, 68, 70
2, 179708, Note_off_c, 0, 64, 100
2, 179708, Note_off_c, 0, 68, 100
2, 179712, Note_on_c, 0, 71, 70
2, 179804, Note_off_c, 0, 71, 100
2, 179808, Note_on_c, 0, 64, 70
2, 179808, Note_on_c, 0, 68, 70
2, 179900, Note_off_c, 0, 64, 100
2, 179900, Note_off_c, 0, 68, 100
2, 179904, Note_on_c, 0, 71, 70
2, 179996, Note_off_c, 0, 71, 100
2, 180000, Note_on_c, 0, 64, 70
2, 180000, Note_on_c, 0, 68, 70
2, 180092, Note_off_c, 0, 64, 100
2, 180092, Note_off_c, 0, 68, 100
2, 180092, Control_c, 0, 64, 0
2, 180096, Control_c, 0, 64, 127
2, 180096, Note_on_c, 0, 76, 80
2, 180188, Note_off_c, 0, 76, 100
2, 180192, Note_on_c, 0, 64, 81
2, 180192, Note_on_c, 0, 67, 81
2, 180192, Note_on_c, 0, 73, 81
2, 180284, Note_off_c, 0, 64, 100
2, 180284, Note_off_c, 0, 67, 100
2, 180284, Note_off_c, 0, 73, 100
2, 180288, Note_on_c, 0, 76, 83
2, 180380, Note_off_c, 0, 76, 100
2, 180384, Note_on_c, 0, 64, 85
2, 180384, Note_on_c, 0, 67, 85
2, 180384, Note_on_c, 0, 73, 85
2, 180476, Note_off_c, 0, 64, 100
2, 180476, Note_off_c, 0, 67, 100
2, 180476, Note_off_c, 0, 73, 100
2, 180480, Note_on_c, 0, 76, 87
2, 180572, Note_off_c, 0, 76, 100
2, 180576, Note_on_c, 0, 64, 88
2, 180576, Note_on_c, 0, 67, 88
2, 180576, Note_on_c, 0, 73, 88
2, 180668, Note_off_c, 0, 64, 100
2, 180668, Note_off_c, 0, 67, 100
2, 180668, Note_off_c, 0, 73, 100
2, 180672, Note_on_c, 0, 76, 90
2, 180764, Note_off_c, 0, 76, 100
2, 180768, Note_on_c, 0, 64, 92
2, 180768, Note_on_c, 0, 67, 92
2, 180768, Note_on_c, 0, 73, 92
2, 180860, Note_off_c, 0, 64, 100
2, 180860, Note_off_c, 0, 67, 100
2, 180860, Note_off_c, 0, 73, 100
2, 180864, Note_on_c, 0, 76, 94
2, 180956, Note_off_c, 0, 76, 100
2, 180960, Note_on_c, 0, 64, 95
2, 180960, Note_on_c, 0, 67, 95
2, 180960, Note_on_c, 0, 73, 95
2, 181052, Note_off_c, 0, 64, 100
2, 181052, Note_off_c, 0, 67, 100
2, 181052, Note_off_c, 0, 73, 100
2, 181056, Note_on_c, 0, 76, 97
2, 181148, Note_off_c, 0, 76, 100
2, 181152, Note_on_c, 0, 64, 99
2, 181152, Note_on_c, 0, 67, 99
2, 181152, Note_on_c, 0, 73, 99
2, 181244, Note_off_c, 0, 64, 100
2, 181244, Note_off_c, 0, 67, 100
2, 181244, Note_off_c, 0, 73, 100
2, 181248, Note_on_c, 0, 76, 101
2, 181340, Note_off_c, 0, 76, 100
2, 181344, Note_on_c, 0, 64, 102
2, 181344, Note_on_c, 0, 67, 102
2, 181344, Note_on_c, 0, 73, 102
2, 181436, Note_off_c, 0, 64, 100
2, 181436, Note_off_c, 0, 67, 100
2, 181436, Note_off_c, 0, 73, 100
2, 181440, Note_on_c, 0, 76, 104
2, 181532, Note_off_c, 0, 76, 100
2, 181536, Note_on_c, 0, 64, 106
2, 181536, Note_on_c, 0, 67, 106
2, 181536, Note_on_c, 0, 73, 106
2, 181628, Note_off_c, 0, 64, 100
2, 181628, Note_off_c, 0, 67, 100
2, 181628, Note_off_c, 0, 73, 100
2, 181632, Note_on_c, 0, 75, 108
2, 181724, Note_off_c, 0, 75, 100
2, 181728, Note_on_c, 0, 63, 109
2, 181728, Note_on_c, 0, 67, 109
2, 181728, Note_on_c, 0, 73, 109
2, 181820, Note_off_c, 0, 63, 100
2, 181820, Note_off_c, 0, 67, 100
2, 181820, Note_off_c, 0, 73, 100
2, 181820, Control_c, 0, 64, 0
2, 181824, Note_on_c, 0, 75, 110
2, 181916, Note_off_c, 0, 75, 100
2, 181920, Note_on_c, 0, 63, 110
2, 181920, Note_on_c, 0, 68, 110
2, 181920, Note_on_c, 0, 71, 110
2, 182012, Note_off_c, 0, 63, 100
2, 182012, Note_off_c, 0, 68, 100
2, 182012, Note_off_c, 0, 71, 100
2, 182016, Note_on_c, 0, 75, 110
2, 182108, Note_off_c, 0, 75, 100
2, 182112, Note_on_c, 0, 63, 110
2, 182112, Note_on_c, 0, 68, 110
2, 182112, Note_on_c, 0, 71, 110
2, 182204, Note_off_c, 0, 63, 100
2, 182204, Note_off_c, 0, 68, 100
2, 182204, Note_off_c, 0, 71, 100
2, 182208, Note_on_c, 0, 75, 110
2, 182300, Note_off_c, 0, 75, 100
2, 182304, Note_on_c, 0, 63, 110
2, 182304, Note_on_c, 0, 68, 110
2, 182304, Note_on_c, 0, 71, 110
2, 182396, Note_off_c, 0, 63, 100
2, 182396, Note_off_c, 0, 68, 100
2, 182396, Note_off_c, 0, 71, 100
2, 182400, Note_on_c, 0, 75, 110
2, 182492, Note_off_c, 0, 75, 100
2, 182496, Note_on_c, 0, 63, 110
2, 182496, Note_on_c, 0, 67, 110
2, 182496, Note_on_c, 0, 70, 110
2, 182588, Note_off_c, 0, 63, 100
2, 182588, Note_off_c, 0, 67, 100
2, 182588, Note_off_c, 0, 70, 100
2, 182592, Note_on_c, 0, 75, 110
2, 182684, Note_off_c, 0, 75, 100
2, 182688, Note_on_c, 0, 63, 110
2, 182688, Note_on_c, 0, 67, 110
2, 182688, Note_on_c, 0, 70, 110
2, 182780, Note_off_c, 0, 63, 100
2, 182780, Note_off_c, 0, 67, 100
2, 182780, Note_off_c, 0, 70, 100
2, 182784, Note_on_c, 0, 75, 110
2, 182876, Note_off_c, 0, 75, 100
2, 182880, Note_on_c, 0, 63, 110
2, 182880, Note_on_c, 0, 67, 110
2, 182880, Note_on_c, 0, 70, 110
2, 182972, Note_off_c, 0, 63, 100
2, 182972, Note_off_c, 0, 67, 100
2, 182972, Note_off_c, 0, 70, 100
2, 182976, Note_on_c, 0, 75, 110
2, 183068, Note_off_c, 0, 75, 100
2, 183072, Note_on_c, 0, 63, 110
2, 183072, Note_on_c, 0, 68, 110
2, 183072, Note_on_c, 0, 71, 110
2, 183164, Note_off_c, 0, 63, 100
2, 183164, Note_off_c, 0, 68, 100
2, 183164, Note_off_c, 0, 71, 100
2, 183168, Note_on_c, 0, 75, 110
2, 183260, Note_off_c, 0, 75, 100
2, 183264, Note_on_c, 0, 63, 110
2, 183264, Note_on_c, 0, 68, 110
2, 183264, Note_on_c, 0, 71, 110
2, 183356, Note_off_c, 0, 63, 100
2, 183356, Note_off_c, 0, 68, 100
2, 183356, Note_off_c, 0, 71, 100
2, 183360, Note_on_c, 0, 76, 110
2, 183452, Note_off_c, 0, 76, 100
2, 183456, Note_on_c, 0, 64, 110
2, 183456, Note_on_c, 0, 68, 110
2, 183456, Note_on_c, 0, 71, 110
2, 183548, Note_off_c, 0, 64, 100
2, 183548, Note_off_c, 0, 68, 100
2, 183548, Note_off_c, 0, 71, 100
2, 183552, Note_on_c, 0, 81, 120
2, 183644, Note_off_c, 0, 81, 100
2, 183648, Note_on_c, 0, 83, 120
2, 183740, Note_off_c, 0, 83, 100
2, 183744, Note_on_c, 0, 85, 120
2, 183836, Note_off_c, 0, 85, 100
2, 183840, Note_on_c, 0, 78, 120
2, 183932, Note_off_c, 0, 78, 100
2, 183936, Note_on_c, 0, 80, 120
2, 184028, Note_off_c, 0, 80, 100
2, 184032, Note_on_c, 0, 81, 120
2, 184124, Note_off_c, 0, 81, 100
2, 184128, Note_on_c, 0, 69, 120
2, 184128, Note_on_c, 0, 73, 120
2, 184220, Note_off_c, 0, 69, 100
2, 184224, Note_on_c, 0, 71, 120
2, 184316, Note_off_c, 0, 73, 100
2, 184316, Note_off_c, 0, 71, 100
2, 184320, Note_on_c, 0, 73, 120
2, 184412, Note_off_c, 0, 73, 100
2, 184416, Note_on_c, 0, 69, 120
2, 184508, Note_off_c, 0, 69, 100
2, 184512, Note_on_c, 0, 71, 120
2, 184604, Note_off_c, 0, 71, 100
2, 184608, Note_on_c, 0, 73, 120
2, 184700, Note_off_c, 0, 73, 100
2, 184704, Note_on_c, 0, 69, 110
2, 184704, Note_on_c, 0, 61, 110
2, 184796, Note_off_c, 0, 69, 100
2, 184800, Note_on_c, 0, 71, 107
2, 184892, Note_off_c, 0, 71, 100
2, 184896, Note_on_c, 0, 73, 103
2, 184988, Note_off_c, 0, 73, 100
2, 184992, Note_on_c, 0, 69, 99
2, 185084, Note_off_c, 0, 69, 100
2, 185088, Note_on_c, 0, 71, 95
2, 185180, Note_off_c, 0, 71, 100
2, 185184, Note_on_c, 0, 73, 91
2, 185276, Note_off_c, 0, 61, 100
2, 185276, Note_off_c, 0, 73, 100
2, 185280, Note_on_c, 0, 66, 90
2, 185280, Note_on_c, 0, 73, 90
2, 185372, Note_off_c, 0, 66, 100
2, 185376, Note_on_c, 0, 68, 90
2, 185468, Note_off_c, 0, 68, 100
2, 185472, Note_on_c, 0, 69, 90
2, 185564, Note_off_c, 0, 69, 100
2, 185568, Note_on_c, 0, 66, 90
2, 185660, Note_off_c, 0, 73, 100
2, 185660, Note_off_c, 0, 66, 100
2, 185664, Note_on_c, 0, 68, 90
2, 185664, Note_on_c, 0, 71, 90
2, 185756, Note_off_c, 0, 68, 100
2, 185760, Note_on_c, 0, 69, 90
2, 185852, Note_off_c, 0, 71, 100
2, 185852, Note_off_c, 0, 69, 100
2, 185856, Note_on_c, 0, 78, 90
2, 185856, Note_on_c, 0, 71, 90
2, 185948, Note_off_c, 0, 78, 100
2, 185952, Note_on_c, 0, 80, 90
2, 186044, Note_off_c, 0, 80, 100
2, 186048, Note_on_c, 0, 81, 90
2, 186140, Note_off_c, 0, 81, 100
2, 186144, Note_on_c, 0, 78, 90
2, 186236, Note_off_c, 0, 78, 100
2, 186240, Note_on_c, 0, 80, 90
2, 186332, Note_off_c, 0, 80, 100
2, 186336, Note_on_c, 0, 81, 90
2, 186428, Note_off_c, 0, 71, 100
2, 186428, Note_off_c, 0, 81, 100
2, 186432, Note_on_c, 0, 80, 90
2, 186432, Note_on_c, 0, 71, 90
2, 186524, Note_off_c, 0, 80, 100
2, 186528, Note_on_c, 0, 81, 90
2, 186620, Note_off_c, 0, 71, 100
2, 186620, Note_off_c, 0, 81, 100
2, 186624, Note_on_c, 0, 83, 90
2, 186716, Note_off_c, 0, 83, 100
2, 186720, Note_on_c, 0, 85, 90
2, 186812, Note_off_c, 0, 85, 100
2, 186816, Note_on_c, 0, 87, 90
2, 186908, Note_off_c, 0, 87, 100
2, 186912, Note_on_c, 0, 88, 90
2, 187100, Note_off_c, 0, 88, 64
2, 187104, Note_on_c, 0, 87, 90
2, 187196, Note_off_c, 0, 87, 100
2, 187200, Note_on_c, 0, 85, 90
2, 187292, Note_off_c, 0, 85, 100
2, 187296, Note_on_c, 0, 83, 90
2, 187388, Note_off_c, 0, 83, 100
2, 187392, Note_on_c, 0, 81, 90
2, 187484, Note_off_c, 0, 81, 100
2, 187488, Note_on_c, 0, 80, 90
2, 187580, Note_off_c, 0, 80, 100
2, 187584, Note_on_c, 0, 80, 90
2, 187584, Note_on_c, 0, 83, 90
2, 187676, Note_off_c, 0, 80, 100
2, 187680, Note_on_c, 0, 78, 90
2, 187772, Note_off_c, 0, 78, 100
2, 187776, Note_on_c, 0, 76, 90
2, 187868, Note_off_c, 0, 76, 100
2, 187872, Note_on_c, 0, 80, 90
2, 187964, Note_off_c, 0, 80, 100
2, 187968, Note_on_c, 0, 78, 90
2, 188060, Note_off_c, 0, 78, 100
2, 188064, Note_on_c, 0, 76, 90
2, 188156, Note_off_c, 0, 83, 100
2, 188156, Note_off_c, 0, 76, 100
2, 188160, Note_on_c, 0, 78, 90
2, 188160, Note_on_c, 0, 81, 90
2, 188252, Note_off_c, 0, 78, 100
2, 188256, Note_on_c, 0, 76, 90
2, 188348, Note_off_c, 0, 76, 100
2, 188352, Note_on_c, 0, 75, 90
2, 188444, Note_off_c, 0, 75, 100
2, 188448, Note_on_c, 0, 78, 90
2, 188540, Note_off_c, 0, 78, 100
2, 188544, Note_on_c, 0, 76, 90
2, 188636, Note_off_c, 0, 76, 100
2, 188640, Note_on_c, 0, 75, 90
2, 188732, Note_off_c, 0, 81, 100
2, 188732, Note_off_c, 0, 75, 100
2, 188736, Control_c, 0, 64, 127
2, 188736, Note_on_c, 0, 81, 90
2, 188832, Note_on_c, 0, 78, 90
2, 188928, Note_on_c, 0, 75, 91
2, 189020, Note_off_c, 0, 81, 100
2, 189024, Note_on_c, 0, 71, 92
2, 189116, Note_off_c, 0, 78, 100
2, 189120, Note_on_c, 0, 69, 93
2, 189212, Note_off_c, 0, 75, 100
2, 189216, Note_on_c, 0, 66, 94
2, 189308, Note_off_c, 0, 71, 100
2, 189312, Note_on_c, 0, 63, 94
2, 189404, Note_off_c, 0, 69, 64
2, 189408, Note_on_c, 0, 59, 95
2, 189500, Note_off_c, 0, 66, 64
2, 189504, Note_on_c, 0, 63, 96
2, 189596, Note_off_c, 0, 63, 100
2, 189600, Note_on_c, 0, 66, 97
2, 189692, Note_off_c, 0, 59, 100
2, 189696, Note_on_c, 0, 69, 98
2, 189788, Note_off_c, 0, 63, 100
2, 189792, Note_on_c, 0, 71, 99
2, 189884, Note_off_c, 0, 66, 100
2, 189888, Note_on_c, 0, 75, 99
2, 189980, Note_off_c, 0, 69, 64
2, 189984, Note_on_c, 0, 83, 80
2, 190076, Note_off_c, 0, 71, 64
2, 190076, Note_off_c, 0, 75, 100
2, 190076, Note_off_c, 0, 83, 100
2, 190080, Note_on_c, 0, 80, 80
2, 190268, Note_off_c, 0, 80, 100
2, 190268, Control_c, 0, 64, 0
2, 190464, Note_on_c, 0, 56, 110
2, 191228, Note_off_c, 0, 56, 100
2, 191232, Note_on_c, 0, 52, 110
2, 192000, Note_on_c, 0, 57, 110
2, 192380, Note_off_c, 0, 52, 64
2, 192384, Note_on_c, 0, 54, 110
2, 192572, Note_off_c, 0, 54, 100
2, 192576, Note_on_c, 0, 49, 110
2, 192764, Note_off_c, 0, 57, 100
2, 192764, Note_off_c, 0, 49, 100
2, 192768, Note_on_c, 0, 54, 110
2, 192768, Note_on_c, 0, 51, 110
2, 193148, Note_off_c, 0, 51, 100
2, 193152, Note_on_c, 0, 47, 110
2, 193532, Note_off_c, 0, 47, 100
2, 193536, Note_on_c, 0, 59, 110
2, 193916, Note_off_c, 0, 54, 64
2, 193920, Note_on_c, 0, 56, 110
2, 194108, Note_off_c, 0, 56, 100
2, 194112, Note_on_c, 0, 51, 110
2, 194300, Note_off_c, 0, 59, 100
2, 194300, Note_off_c, 0, 51, 100
2, 194304, Note_on_c, 0, 56, 110
2, 194304, Note_on_c, 0, 52, 110
2, 194684, Note_off_c, 0, 52, 100
2, 194688, Note_on_c, 0, 50, 110
2, 195068, Note_off_c, 0, 50, 100
2, 195072, Note_on_c, 0, 61, 110
2, 195072, Note_on_c, 0, 49, 110
2, 195452, Note_off_c, 0, 56, 64
2, 195452, Note_off_c, 0, 49, 100
2, 195456, Note_on_c, 0, 57, 110
2, 195644, Note_off_c, 0, 57, 100
2, 195648, Note_on_c, 0, 52, 110
2, 195836, Note_off_c, 0, 61, 100
2, 195836, Note_off_c, 0, 52, 100
2, 195840, Note_on_c, 0, 57, 110
2, 195840, Note_on_c, 0, 54, 110
2, 196220, Note_off_c, 0, 54, 100
2, 196224, Note_on_c, 0, 48, 110
2, 196604, Note_off_c, 0, 48, 100
2, 196988, Note_off_c, 0, 57, 64
2, 196992, Note_on_c, 0, 58, 110
2, 197372, Note_off_c, 0, 58, 100
2, 197376, Note_on_c, 0, 59, 110
2, 197756, Note_off_c, 0, 59, 100
2, 197760, Note_on_c, 0, 57, 110
2, 198140, Note_off_c, 0, 57, 100
2, 198144, Note_on_c, 0, 56, 110
2, 198524, Note_off_c, 0, 56, 100
2, 198528, Note_on_c, 0, 59, 110
2, 198528, Note_on_c, 0, 52, 110
2, 198908, Note_off_c, 0, 59, 100
2, 198908, Note_off_c, 0, 52, 100
2, 198912, Note_on_c, 0, 56, 110
2, 198912, Note_on_c, 0, 59, 110
2, 199292, Note_off_c, 0, 59, 100
2, 199296, Note_on_c, 0, 64, 110
2, 199676, Note_off_c, 0, 64, 100
2, 199680, Note_on_c, 0, 64, 110
2, 200060, Note_off_c, 0, 56, 64
2, 200064, Note_on_c, 0, 57, 110
2, 200444, Note_off_c, 0, 57, 100
2, 200448, Note_on_c, 0, 58, 110
2, 200828, Note_off_c, 0, 64, 100
2, 200828, Note_off_c, 0, 58, 100
2, 200832, Note_on_c, 0, 57, 110
2, 200832, Note_on_c, 0, 65, 110
2, 201212, Note_off_c, 0, 57, 100
2, 201212, Note_off_c, 0, 65, 100
2, 201216, Note_on_c, 0, 64, 110
2, 201216, Note_on_c, 0, 67, 110
2, 201596, Note_off_c, 0, 64, 100
2, 201596, Note_off_c, 0, 67, 100
2, 201600, Note_on_c, 0, 65, 110
2, 201600, Note_on_c, 0, 69, 110
2, 201980, Note_off_c, 0, 65, 100
2, 201980, Note_off_c, 0, 69, 100
2, 201984, Note_on_c, 0, 67, 110
2, 201984, Note_on_c, 0, 70, 110
2, 202364, Note_off_c, 0, 67, 100
2, 202364, Note_off_c, 0, 70, 100
2, 202368, Note_on_c, 0, 63, 110
2, 202368, Note_on_c, 0, 71, 110
2, 202748, Note_off_c, 0, 63, 100
2, 202748, Note_off_c, 0, 71, 100
2, 202752, Note_on_c, 0, 56, 110
2, 203516, Note_off_c, 0, 56, 100
2, 203520, Note_on_c, 0, 52, 110
2, 204288, Note_on_c, 0, 57, 110
2, 204668, Note_off_c, 0, 52, 64
2, 204672, Note_on_c, 0, 54, 110
2, 204860, Note_off_c, 0, 54, 100
2, 204864, Note_on_c, 0, 49, 110
2, 205052, Note_off_c, 0, 57, 100
2, 205052, Note_off_c, 0, 49, 100
2, 205056, Note_on_c, 0, 51, 110
2, 205056, Note_on_c, 0, 54, 110
2, 205436, Note_off_c, 0, 51, 100
2, 205440, Note_on_c, 0, 47, 110
2, 205820, Note_off_c, 0, 54, 100
2, 205820, Note_off_c, 0, 47, 100
2, 205824, Note_on_c, 0, 68, 110
2, 206016, Note_on_c, 0, 71, 110
2, 206204, Note_off_c, 0, 71, 100
2, 206208, Note_on_c, 0, 73, 110
2, 206396, Note_off_c, 0, 73, 100
2, 206400, Note_on_c, 0, 75, 110
2, 206588, Note_off_c, 0, 68, 100
2, 206588, Note_off_c, 0, 75, 100
2, 206592, Note_on_c, 0, 76, 110
2, 206780, Note_off_c, 0, 76, 100
2, 206784, Note_on_c, 0, 78, 110
2, 206972, Note_off_c, 0, 78, 100
2, 206976, Note_on_c, 0, 80, 110
2, 207164, Note_off_c, 0, 80, 100
2, 207168, Note_on_c, 0, 76, 110
2, 207356, Note_off_c, 0, 76, 100
2, 207360, Note_on_c, 0, 81, 110
2, 207548, Note_off_c, 0, 81, 100
2, 207552, Note_on_c, 0, 73, 110
2, 207740, Note_off_c, 0, 73, 100
2, 207744, Note_on_c, 0, 75, 110
2, 207932, Note_off_c, 0, 75, 100
2, 207936, Note_on_c, 0, 76, 110
2, 208124, Note_off_c, 0, 76, 100
2, 208128, Note_on_c, 0, 78, 110
2, 208316, Note_off_c, 0, 78, 100
2, 208320, Note_on_c, 0, 80, 110
2, 208508, Note_off_c, 0, 80, 100
2, 208512, Note_on_c, 0, 81, 110
2, 208700, Note_off_c, 0, 81, 100
2, 208704, Note_on_c, 0, 78, 110
2, 208892, Note_off_c, 0, 78, 100
2, 208896, Note_on_c, 0, 83, 110
2, 209084, Note_off_c, 0, 83, 100
2, 209088, Note_on_c, 0, 75, 110
2, 209276, Note_off_c, 0, 75, 100
2, 209280, Note_on_c, 0, 76, 110
2, 209468, Note_off_c, 0, 76, 100
2, 209472, Note_on_c, 0, 78, 110
2, 209660, Note_off_c, 0, 78, 100
2, 209664, Note_on_c, 0, 80, 110
2, 209852, Note_off_c, 0, 80, 100
2, 209856, Note_on_c, 0, 81, 110
2, 210044, Note_off_c, 0, 81, 100
2, 210048, Note_on_c, 0, 83, 110
2, 210236, Note_off_c, 0, 83, 100
2, 210240, Note_on_c, 0, 80, 110
2, 210428, Note_off_c, 0, 80, 100
2, 210432, Note_on_c, 0, 84, 110
2, 210620, Note_off_c, 0, 84, 100
2, 210624, Note_on_c, 0, 76, 110
2, 210812, Note_off_c, 0, 76, 100
2, 210816, Note_on_c, 0, 78, 110
2, 211004, Note_off_c, 0, 78, 100
2, 211008, Note_on_c, 0, 80, 110
2, 211196, Note_off_c, 0, 80, 100
2, 211200, Note_on_c, 0, 81, 110
2, 211388, Note_off_c, 0, 81, 100
2, 211392, Note_on_c, 0, 83, 110
2, 211580, Note_off_c, 0, 83, 100
2, 211584, Note_on_c, 0, 84, 110
2, 211772, Note_off_c, 0, 84, 100
2, 211776, Note_on_c, 0, 81, 110
2, 211964, Note_off_c, 0, 81, 100
2, 211968, Note_on_c, 0, 86, 110
2, 212156, Note_off_c, 0, 86, 100
2, 212160, Note_on_c, 0, 78, 110
2, 212348, Note_off_c, 0, 78, 100
2, 212352, Note_on_c, 0, 79, 110
2, 212540, Note_off_c, 0, 79, 100
2, 212544, Note_on_c, 0, 81, 110
2, 212732, Note_off_c, 0, 81, 100
2, 212736, Note_on_c, 0, 83, 110
2, 212924, Note_off_c, 0, 83, 100
2, 212928, Note_on_c, 0, 84, 110
2, 213116, Note_off_c, 0, 84, 100
2, 213120, Note_on_c, 0, 86, 110
2, 213308, Note_off_c, 0, 86, 100
2, 213312, Note_on_c, 0, 83, 110
2, 213500, Note_off_c, 0, 83, 100
2, 213504, Note_on_c, 0, 88, 110
2, 213692, Note_off_c, 0, 88, 100
2, 213696, Note_on_c, 0, 86, 110
2, 213884, Note_off_c, 0, 86, 100
2, 213888, Note_on_c, 0, 88, 110
2, 214076, Note_off_c, 0, 88, 100
2, 214080, Note_on_c, 0, 89, 110
2, 214268, Note_off_c, 0, 89, 100
2, 214272, Note_on_c, 0, 88, 110
2, 214272, Note_on_c, 0, 91, 110
2, 214460, Note_off_c, 0, 91, 100
2, 214464, Note_on_c, 0, 94, 110
2, 214652, Note_off_c, 0, 88, 100
2, 214652, Note_off_c, 0, 94, 100
2, 214656, Note_on_c, 0, 87, 110
2, 214656, Note_on_c, 0, 95, 110
2, 214844, Note_off_c, 0, 87, 100
2, 214844, Note_off_c, 0, 95, 100
2, 214848, Note_on_c, 0, 87, 110
2, 215036, Note_off_c, 0, 87, 100
2, 215040, Note_on_c, 0, 86, 110
2, 215228, Note_off_c, 0, 86, 100
2, 215232, Note_on_c, 0, 78, 110
2, 215420, Note_off_c, 0, 78, 100
2, 215424, Note_on_c, 0, 80, 110
2, 215612, Note_off_c, 0, 80, 100
2, 215616, Note_on_c, 0, 82, 110
2, 215804, Note_off_c, 0, 82, 100
2, 215808, Note_on_c, 0, 83, 110
2, 215996, Note_off_c, 0, 83, 100
2, 216000, Note_on_c, 0, 85, 110
2, 216188, Note_off_c, 0, 85, 100
2, 216192, Note_on_c, 0, 86, 110
2, 216380, Note_off_c, 0, 86, 100
2, 216384, Note_on_c, 0, 78, 110
2, 216572, Note_off_c, 0, 78, 100
2, 216576, Note_on_c, 0, 77, 110
2, 216764, Note_off_c, 0, 77, 100
2, 216768, Note_on_c, 0, 61, 110
2, 216956, Note_off_c, 0, 61, 100
2, 216960, Note_on_c, 0, 63, 110
2, 217148, Note_off_c, 0, 63, 100
2, 217152, Note_on_c, 0, 65, 110
2, 217340, Note_off_c, 0, 65, 100
2, 217344, Note_on_c, 0, 66, 110
2, 217532, Note_off_c, 0, 66, 100
2, 217536, Note_on_c, 0, 68, 110
2, 217724, Note_off_c, 0, 68, 100
2, 217728, Note_on_c, 0, 69, 110
2, 217916, Note_off_c, 0, 69, 100
2, 217920, Note_on_c, 0, 61, 110
2, 218108, Note_off_c, 0, 61, 100
2, 218112, Note_on_c, 0, 60, 110
2, 218112, Note_on_c, 0, 68, 110
2, 218492, Note_off_c, 0, 60, 100
2, 218496, Note_on_c, 0, 64, 110
2, 218876, Note_off_c, 0, 68, 100
2, 218880, Note_on_c, 0, 56, 110
2, 219260, Note_off_c, 0, 64, 100
2, 219264, Note_on_c, 0, 61, 110
2, 219452, Note_off_c, 0, 61, 100
2, 219456, Note_on_c, 0, 64, 110
2, 219644, Note_off_c, 0, 64, 100
2, 219836, Note_off_c, 0, 56, 64
2, 219840, Note_on_c, 0, 63, 110
2, 219840, Note_on_c, 0, 55, 110
2, 220028, Note_off_c, 0, 63, 100
2, 220028, Note_off_c, 0, 55, 100
2, 220032, Note_on_c, 0, 65, 110
2, 220220, Note_off_c, 0, 65, 100
2, 220224, Note_on_c, 0, 67, 110
2, 220412, Note_off_c, 0, 67, 100
2, 220416, Note_on_c, 0, 68, 110
2, 220604, Note_off_c, 0, 68, 100
2, 220608, Note_on_c, 0, 70, 110
2, 220796, Note_off_c, 0, 70, 100
2, 220800, Note_on_c, 0, 71, 110
2, 220988, Note_off_c, 0, 71, 100
2, 220992, Note_on_c, 0, 68, 110
2, 221180, Note_off_c, 0, 68, 100
2, 221184, Note_on_c, 0, 81, 110
2, 221376, Note_on_c, 0, 69, 110
2, 221564, Note_off_c, 0, 69, 100
2, 221568, Note_on_c, 0, 73, 110
2, 221756, Note_off_c, 0, 73, 100
2, 221760, Note_on_c, 0, 71, 110
2, 221948, Note_off_c, 0, 81, 100
2, 221948, Note_off_c, 0, 71, 100
2, 221952, Note_on_c, 0, 69, 110
2, 221952, Note_on_c, 0, 73, 110
2, 222140, Note_off_c, 0, 69, 100
2, 222144, Note_on_c, 0, 61, 110
2, 222332, Note_off_c, 0, 61, 100
2, 222336, Note_on_c, 0, 63, 110
2, 222524, Note_off_c, 0, 63, 100
2, 222528, Note_on_c, 0, 64, 110
2, 222716, Note_off_c, 0, 64, 100
2, 222720, Note_on_c, 0, 66, 110
2, 222908, Note_off_c, 0, 66, 100
2, 222912, Note_on_c, 0, 63, 110
2, 223100, Note_off_c, 0, 73, 64
2, 223100, Note_off_c, 0, 63, 100
2, 223104, Note_on_c, 0, 68, 110
2, 223104, Note_on_c, 0, 71, 110
2, 223104, Note_on_c, 0, 64, 110
2, 223292, Note_off_c, 0, 64, 100
2, 223296, Note_on_c, 0, 66, 110
2, 223484, Note_off_c, 0, 68, 100
2, 223484, Note_off_c, 0, 71, 100
2, 223484, Note_off_c, 0, 66, 100
2, 223488, Note_on_c, 0, 66, 110
2, 223488, Note_on_c, 0, 69, 110
2, 223488, Note_on_c, 0, 59, 110
2, 223676, Note_off_c, 0, 59, 100
2, 223680, Note_on_c, 0, 63, 110
2, 223868, Note_off_c, 0, 66, 100
2, 223868, Note_off_c, 0, 69, 100
2, 223868, Note_off_c, 0, 63, 100
2, 223872, Note_on_c, 0, 68, 110
2, 223872, Note_on_c, 0, 64, 110
2, 224064, Note_on_c, 0, 61, 110
2, 224252, Note_off_c, 0, 61, 100
2, 224256, Note_on_c, 0, 59, 110
2, 224444, Note_off_c, 0, 64, 64
2, 224444, Note_off_c, 0, 68, 64
2, 224444, Note_off_c, 0, 59, 100
2, 224448, Note_on_c, 0, 68, 110
2, 224448, Note_on_c, 0, 76, 110
2, 224636, Note_off_c, 0, 68, 100
2, 224636, Note_off_c, 0, 76, 100
2, 224640, Note_on_c, 0, 69, 110
2, 224640, Note_on_c, 0, 78, 110
2, 224828, Note_off_c, 0, 69, 100
2, 224828, Note_off_c, 0, 78, 100
2, 224832, Note_on_c, 0, 71, 110
2, 224832, Note_on_c, 0, 80, 110
2, 225020, Note_off_c, 0, 71, 100
2, 225020, Note_off_c, 0, 80, 100
2, 225024, Note_on_c, 0, 73, 110
2, 225024, Note_on_c, 0, 81, 110
2, 225212, Note_off_c, 0, 73, 100
2, 225212, Note_off_c, 0, 81, 100
2, 225216, Note_on_c, 0, 75, 110
2, 225216, Note_on_c, 0, 83, 110
2, 225404, Note_off_c, 0, 75, 100
2, 225404, Note_off_c, 0, 83, 100
2, 225408, Note_on_c, 0, 76, 110
2, 225408, Note_on_c, 0, 85, 110
2, 225596, Note_off_c, 0, 76, 100
2, 225596, Note_off_c, 0, 85, 100
2, 225600, Note_on_c, 0, 78, 110
2, 225600, Note_on_c, 0, 87, 110
2, 225788, Note_off_c, 0, 78, 100
2, 225788, Note_off_c, 0, 87, 100
2, 225792, Note_on_c, 0, 85, 110
2, 225792, Note_on_c, 0, 88, 110
2, 225980, Note_off_c, 0, 85, 100
2, 225980, Note_off_c, 0, 88, 100
2, 225984, Note_on_c, 0, 83, 110
2, 225984, Note_on_c, 0, 87, 110
2, 226172, Note_off_c, 0, 83, 100
2, 226172, Note_off_c, 0, 87, 100
2, 226176, Note_on_c, 0, 85, 110
2, 226176, Note_on_c, 0, 88, 110
2, 226364, Note_off_c, 0, 85, 100
2, 226364, Note_off_c, 0, 88, 100
2, 226368, Note_on_c, 0, 87, 110
2, 226368, Note_on_c, 0, 90, 110
2, 226556, Note_off_c, 0, 87, 100
2, 226556, Note_off_c, 0, 90, 100
2, 226560, Note_on_c, 0, 88, 110
2, 226560, Note_on_c, 0, 92, 110
2, 226748, Note_off_c, 0, 88, 100
2, 226748, Note_off_c, 0, 92, 100
2, 226752, Note_on_c, 0, 90, 110
2, 226752, Note_on_c, 0, 93, 110
2, 226940, Note_off_c, 0, 90, 100
2, 226940, Note_off_c, 0, 93, 100
2, 226944, Note_on_c, 0, 92, 110
2, 226944, Note_on_c, 0, 95, 110
2, 227132, Note_off_c, 0, 92, 100
2, 227132, Note_off_c, 0, 95, 100
2, 227136, Note_on_c, 0, 83, 110
2, 227324, Note_off_c, 0, 83, 100
2, 227328, Note_on_c, 0, 83, 110
2, 228092, Note_off_c, 0, 83, 100
2, 228096, Note_on_c, 0, 74, 110
2, 228864, Note_on_c, 0, 68, 110
2, 229244, Note_off_c, 0, 74, 64
2, 229248, Note_on_c, 0, 73, 110
2, 229436, Note_off_c, 0, 73, 100
2, 229440, Note_on_c, 0, 71, 110
2, 229628, Note_off_c, 0, 68, 100
2, 229628, Note_off_c, 0, 71, 100
2, 229632, Note_on_c, 0, 61, 110
2, 229632, Note_on_c, 0, 69, 110
2, 230012, Note_off_c, 0, 61, 100
2, 230012, Note_off_c, 0, 69, 100
2, 230016, Note_on_c, 0, 69, 110
2, 230400, Note_on_c, 0, 75, 110
2, 230780, Note_off_c, 0, 69, 64
2, 230784, Note_on_c, 0, 68, 110
2, 230972, Note_off_c, 0, 68, 100
2, 230976, Note_on_c, 0, 66, 110
2, 231164, Note_off_c, 0, 75, 100
2, 231164, Note_off_c, 0, 66, 100
2, 231168, Note_on_c, 0, 64, 110
2, 231168, Note_on_c, 0, 68, 110
2, 231548, Note_off_c, 0, 64, 100
2, 231548, Note_off_c, 0, 68, 100
2, 231552, Note_on_c, 0, 73, 110
2, 231552, Note_on_c, 0, 76, 110
2, 231936, Note_on_c, 0, 70, 110
2, 232316, Note_off_c, 0, 73, 64
2, 232316, Note_off_c, 0, 76, 64
2, 232320, Note_on_c, 0, 71, 110
2, 232320, Note_on_c, 0, 75, 110
2, 232508, Note_off_c, 0, 70, 100
2, 232508, Note_off_c, 0, 71, 100
2, 232508, Note_off_c, 0, 75, 100
2, 232512, Note_on_c, 0, 70, 110
2, 232512, Note_on_c, 0, 73, 110
2, 232700, Note_off_c, 0, 70, 100
2, 232700, Note_off_c, 0, 73, 100
2, 232704, Note_on_c, 0, 63, 110
2, 232704, Note_on_c, 0, 68, 110
2, 232704, Note_on_c, 0, 71, 110
2, 233084, Note_off_c, 0, 63, 100
2, 233084, Note_off_c, 0, 68, 100
2, 233084, Note_off_c, 0, 71, 100
2, 233088, Note_on_c, 0, 71, 110
2, 233088, Note_on_c, 0, 75, 110
2, 233088, Note_on_c, 0, 80, 110
2, 233468, Note_off_c, 0, 71, 100
2, 233468, Note_off_c, 0, 75, 100
2, 233468, Note_off_c, 0, 80, 100
2, 233472, Note_on_c, 0, 73, 110
2, 233472, Note_on_c, 0, 76, 110
2, 233472, Note_on_c, 0, 81, 110
2, 234236, Note_off_c, 0, 73, 100
2, 234236, Note_off_c, 0, 76, 100
2, 234236, Note_off_c, 0, 81, 100
2, 234240, Note_on_c, 0, 60, 110
2, 234240, Note_on_c, 0, 66, 110
2, 234240, Note_on_c, 0, 69, 110
2, 234428, Note_off_c, 0, 60, 100
2, 234432, Note_on_c, 0, 57, 110
2, 234620, Note_off_c, 0, 57, 100
2, 234624, Note_on_c, 0, 63, 110
2, 234812, Note_off_c, 0, 63, 100
2, 234816, Note_on_c, 0, 63, 110
2, 235004, Note_off_c, 0, 66, 100
2, 235004, Note_off_c, 0, 69, 100
2, 235004, Note_off_c, 0, 63, 100
2, 235008, Note_on_c, 0, 76, 110
2, 235008, Note_on_c, 0, 80, 110
2, 235008, Note_on_c, 0, 83, 110
2, 235772, Note_off_c, 0, 76, 100
2, 235772, Note_off_c, 0, 80, 100
2, 235772, Note_off_c, 0, 83, 100
2, 235776, Note_on_c, 0, 68, 110
2, 235776, Note_on_c, 0, 71, 110
2, 235776, Note_on_c, 0, 76, 110
2, 235964, Note_off_c, 0, 68, 100
2, 235968, Note_on_c, 0, 64, 110
2, 236156, Note_off_c, 0, 64, 100
2, 236540, Note_off_c, 0, 71, 100
2, 236540, Note_off_c, 0, 76, 100
2, 236544, Note_on_c, 0, 81, 110
2, 236544, Note_on_c, 0, 85, 110
2, 236544, Note_on_c, 0, 93, 110
2, 237308, Note_off_c, 0, 81, 100
2, 237308, Note_off_c, 0, 85, 100
2, 237308, Note_off_c, 0, 93, 100
2, 237312, Note_on_c, 0, 81, 110
2, 237312, Note_on_c, 0, 85, 110
2, 237500, Note_off_c, 0, 81, 100
2, 237500, Note_off_c, 0, 85, 100
2, 237504, Note_on_c, 0, 78, 110
2, 237504, Note_on_c, 0, 81, 110
2, 237692, Note_off_c, 0, 78, 100
2, 237692, Note_off_c, 0, 81, 100
2, 237696, Note_on_c, 0, 81, 110
2, 237696, Note_on_c, 0, 85, 110
2, 237884, Note_off_c, 0, 81, 100
2, 237884, Note_off_c, 0, 85, 100
2, 237888, Note_on_c, 0, 81, 110
2, 237888, Note_on_c, 0, 85, 110
2, 238076, Note_off_c, 0, 81, 100
2, 238076, Note_off_c, 0, 85, 100
2, 238080, Note_on_c, 0, 81, 110
2, 238080, Note_on_c, 0, 85, 110
2, 238460, Note_off_c, 0, 81, 100
2, 238460, Note_off_c, 0, 85, 100
2, 238464, Note_on_c, 0, 80, 110
2, 238464, Note_on_c, 0, 83, 110
2, 238652, Note_off_c, 0, 80, 100
2, 238652, Note_off_c, 0, 83, 100
2, 238656, Note_on_c, 0, 78, 110
2, 238656, Note_on_c, 0, 81, 110
2, 238844, Note_off_c, 0, 78, 100
2, 238844, Note_off_c, 0, 81, 100
2, 238848, Note_on_c, 0, 71, 110
2, 238848, Note_on_c, 0, 80, 110
2, 239228, Note_off_c, 0, 71, 100
2, 239228, Note_off_c, 0, 80, 100
2, 239232, Note_on_c, 0, 73, 110
2, 239232, Note_on_c, 0, 78, 110
2, 239232, Note_on_c, 0, 82, 110
2, 239612, Note_off_c, 0, 73, 100
2, 239612, Note_off_c, 0, 78, 100
2, 239612, Note_off_c, 0, 82, 100
2, 239616, Note_on_c, 0, 83, 80
2, 240380, Note_off_c, 0, 83, 100
2, 240384, Note_on_c, 0, 74, 80
2, 241152, Note_on_c, 0, 68, 80
2, 241532, Note_off_c, 0, 74, 64
2, 241536, Note_on_c, 0, 73, 80
2, 241724, Note_off_c, 0, 73, 100
2, 241728, Note_on_c, 0, 71, 80
2, 241916, Note_off_c, 0, 68, 100
2, 241916, Note_off_c, 0, 71, 100
2, 241920, Note_on_c, 0, 61, 80
2, 241920, Note_on_c, 0, 69, 80
2, 242300, Note_off_c, 0, 61, 100
2, 242300, Note_off_c, 0, 69, 100
2, 242304, Note_on_c, 0, 69, 80
2, 242688, Note_on_c, 0, 75, 80
2, 243068, Note_off_c, 0, 69, 64
2, 243072, Note_on_c, 0, 68, 80
2, 243260, Note_off_c, 0, 68, 100
2, 243264, Note_on_c, 0, 66, 80
2, 243452, Note_off_c, 0, 75, 100
2, 243452, Note_off_c, 0, 66, 100
2, 243456, Note_on_c, 0, 64, 80
2, 243456, Note_on_c, 0, 68, 80
2, 243836, Note_off_c, 0, 64, 100
2, 243836, Note_off_c, 0, 68, 100
2, 243840, Note_on_c, 0, 73, 80
2, 243840, Note_on_c, 0, 76, 80
2, 244224, Note_on_c, 0, 70, 80
2, 244604, Note_off_c, 0, 73, 64
2, 244604, Note_off_c, 0, 76, 64
2, 244608, Note_on_c, 0, 71, 80
2, 244608, Note_on_c, 0, 75, 80
2, 244796, Note_off_c, 0, 70, 100
2, 244796, Note_off_c, 0, 71, 100
2, 244796, Note_off_c, 0, 75, 100
2, 244800, Note_on_c, 0, 70, 80
2, 244800, Note_on_c, 0, 73, 80
2, 244988, Note_off_c, 0, 70, 100
2, 244988, Note_off_c, 0, 73, 100
2, 244992, Note_on_c, 0, 63, 80
2, 244992, Note_on_c, 0, 68, 80
2, 244992, Note_on_c, 0, 71, 80
2, 245372, Note_off_c, 0, 63, 100
2, 245372, Note_off_c, 0, 68, 100
2, 245372, Note_off_c, 0, 71, 100
2, 245376, Note_on_c, 0, 71, 80
2, 245376, Note_on_c, 0, 75, 80
2, 245376, Note_on_c, 0, 80, 80
2, 245756, Note_off_c, 0, 71, 100
2, 245756, Note_off_c, 0, 75, 100
2, 245756, Note_off_c, 0, 80, 100
2, 245760, Note_on_c, 0, 73, 80
2, 245760, Note_on_c, 0, 76, 80
2, 245760, Note_on_c, 0, 81, 80
2, 246524, Note_off_c, 0, 73, 100
2, 246524, Note_off_c, 0, 76, 100
2, 246524, Note_off_c, 0, 81, 100
2, 246528, Note_on_c, 0, 60, 80
2, 246528, Note_on_c, 0, 66, 80
2, 246528, Note_on_c, 0, 69, 80
2, 246716, Note_off_c, 0, 60, 100
2, 246720, Note_on_c, 0, 57, 80
2, 246908, Note_off_c, 0, 57, 100
2, 246912, Note_on_c, 0, 63, 80
2, 247100, Note_off_c, 0, 63, 100
2, 247104, Note_on_c, 0, 63, 80
2, 247292, Note_off_c, 0, 66, 100
2, 247292, Note_off_c, 0, 69, 100
2, 247292, Note_off_c, 0, 63, 100
2, 247296, Note_on_c, 0, 76, 80
2, 247296, Note_on_c, 0, 80, 80
2, 247296, Note_on_c, 0, 83, 80
2, 248060, Note_off_c, 0, 76, 100
2, 248060, Note_off_c, 0, 80, 100
2, 248060, Note_off_c, 0, 83, 100
2, 248064, Note_on_c, 0, 68, 80
2, 248064, Note_on_c, 0, 71, 80
2, 248064, Note_on_c, 0, 76, 80
2, 248252, Note_off_c, 0, 68, 100
2, 248256, Note_on_c, 0, 64, 80
2, 248444, Note_off_c, 0, 64, 100
2, 248828, Note_off_c, 0, 71, 100
2, 248828, Note_off_c, 0, 76, 100
2, 248832, Note_on_c, 0, 81, 80
2, 248832, Note_on_c, 0, 85, 80
2, 248832, Note_on_c, 0, 93, 80
2, 249596, Note_off_c, 0, 81, 100
2, 249596, Note_off_c, 0, 85, 100
2, 249596, Note_off_c, 0, 93, 100
2, 249600, Note_on_c, 0, 81, 80
2, 249600, Note_on_c, 0, 85, 80
2, 249788, Note_off_c, 0, 81, 100
2, 249788, Note_off_c, 0, 85, 100
2, 249792, Note_on_c, 0, 78, 80
2, 249792, Note_on_c, 0, 81, 80
2, 249980, Note_off_c, 0, 78, 100
2, 249980, Note_off_c, 0, 81, 100
2, 249984, Note_on_c, 0, 81, 80
2, 249984, Note_on_c, 0, 85, 80
2, 250172, Note_off_c, 0, 81, 100
2, 250172, Note_off_c, 0, 85, 100
2, 250176, Note_on_c, 0, 81, 80
2, 250176, Note_on_c, 0, 85, 80
2, 250364, Note_off_c, 0, 81, 100
2, 250364, Note_off_c, 0, 85, 100
2, 250368, Note_on_c, 0, 81, 80
2, 250368, Note_on_c, 0, 85, 80
2, 250748, Note_off_c, 0, 81, 100
2, 250748, Note_off_c, 0, 85, 100
2, 250752, Note_on_c, 0, 80, 80
2, 250752, Note_on_c, 0, 83, 80
2, 250940, Note_off_c, 0, 80, 100
2, 250940, Note_off_c, 0, 83, 100
2, 250944, Note_on_c, 0, 78, 80
2, 250944, Note_on_c, 0, 81, 80
2, 251132, Note_off_c, 0, 78, 100
2, 251132, Note_off_c, 0, 81, 100
2, 251136, Note_on_c, 0, 76, 80
2, 251136, Note_on_c, 0, 80, 80
2, 251324, Note_off_c, 0, 76, 100
2, 251324, Note_off_c, 0, 80, 100
2, 251328, Note_on_c, 0, 64, 80
2, 251328, Note_on_c, 0, 71, 80
2, 251520, Note_on_c, 0, 66, 80
2, 251708, Note_off_c, 0, 64, 100
2, 251708, Note_off_c, 0, 71, 100
2, 251708, Note_off_c, 0, 66, 100
2, 251712, Note_on_c, 0, 63, 80
2, 251712, Note_on_c, 0, 71, 80
2, 251712, Note_on_c, 0, 66, 80
2, 251900, Note_off_c, 0, 63, 100
2, 251900, Note_off_c, 0, 71, 100
2, 251900, Note_off_c, 0, 66, 100
2, 251904, Note_on_c, 0, 68, 80
2, 251904, Note_on_c, 0, 71, 80
2, 252284, Note_off_c, 0, 68, 100
2, 252284, Note_off_c, 0, 71, 100
2, 252288, Note_on_c, 0, 64, 80
2, 252288, Note_on_c, 0, 71, 80
2, 252668, Note_off_c, 0, 64, 100
2, 252668, Note_off_c, 0, 71, 100
2, 252672, Note_on_c, 0, 66, 80
2, 252672, Note_on_c, 0, 71, 80
2, 253052, Note_off_c, 0, 66, 100
2, 253052, Note_off_c, 0, 71, 100
2, 253056, Note_on_c, 0, 63, 80
2, 253056, Note_on_c, 0, 71, 80
2, 253436, Note_off_c, 0, 63, 100
2, 253436, Note_off_c, 0, 71, 100
2, 253440, Note_on_c, 0, 59, 80
2, 253440, Note_on_c, 0, 71, 80
2, 253820, Note_off_c, 0, 71, 100
2, 253824, Note_on_c, 0, 71, 80
2, 254204, Note_off_c, 0, 59, 100
2, 254204, Note_off_c, 0, 71, 100
2, 254208, Note_on_c, 0, 68, 80
2, 254208, Note_on_c, 0, 71, 80
2, 254396, Note_off_c, 0, 71, 100
2, 254400, Note_on_c, 0, 71, 80
2, 254588, Note_off_c, 0, 68, 100
2, 254588, Note_off_c, 0, 71, 100
2, 254592, Note_on_c, 0, 64, 80
2, 254592, Note_on_c, 0, 71, 80
2, 254780, Note_off_c, 0, 71, 100
2, 254784, Note_on_c, 0, 71, 80
2, 254972, Note_off_c, 0, 64, 100
2, 254972, Note_off_c, 0, 71, 100
2, 254976, Note_on_c, 0, 66, 80
2, 254976, Note_on_c, 0, 71, 80
2, 255164, Note_off_c, 0, 71, 100
2, 255168, Note_on_c, 0, 71, 80
2, 255356, Note_off_c, 0, 66, 100
2, 255356, Note_off_c, 0, 71, 100
2, 255360, Note_on_c, 0, 66, 80
2, 255360, Note_on_c, 0, 71, 80
2, 255548, Note_off_c, 0, 71, 100
2, 255552, Note_on_c, 0, 71, 80
2, 255740, Note_off_c, 0, 66, 100
2, 255740, Note_off_c, 0, 71, 100
2, 255744, Note_on_c, 0, 70, 80
2, 255744, Note_on_c, 0, 71, 80
2, 255932, Note_off_c, 0, 71, 100
2, 255936, Note_on_c, 0, 71, 80
2, 256124, Note_off_c, 0, 70, 100
2, 256124, Note_off_c, 0, 71, 100
2, 256128, Note_on_c, 0, 71, 80
2, 256316, Note_off_c, 0, 71, 100
2, 256320, Note_on_c, 0, 71, 80
2, 256320, Note_on_c, 0, 75, 80
2, 256320, Note_on_c, 0, 78, 80
2, 256320, Note_on_c, 0, 83, 80
2, 256508, Note_off_c, 0, 71, 100
2, 256508, Note_off_c, 0, 75, 100
2, 256508, Note_off_c, 0, 78, 100
2, 256508, Note_off_c, 0, 83, 100
2, 256512, Note_on_c, 0, 71, 80
2, 256512, Note_on_c, 0, 76, 80
2, 256512, Note_on_c, 0, 83, 80
2, 256700, Note_off_c, 0, 71, 100
2, 256704, Note_on_c, 0, 71, 80
2, 256892, Note_off_c, 0, 71, 100
2, 256896, Note_on_c, 0, 71, 80
2, 257084, Note_off_c, 0, 76, 100
2, 257084, Note_off_c, 0, 83, 100
2, 257084, Note_off_c, 0, 71, 100
2, 257088, Note_on_c, 0, 71, 80
2, 257088, Note_on_c, 0, 76, 80
2, 257276, Note_off_c, 0, 71, 100
2, 257280, Note_on_c, 0, 70, 80
2, 257468, Note_off_c, 0, 70, 100
2, 257472, Note_on_c, 0, 71, 80
2, 257660, Note_off_c, 0, 76, 100
2, 257660, Note_off_c, 0, 71, 100
2, 257664, Note_on_c, 0, 71, 80
2, 257664, Note_on_c, 0, 80, 80
2, 257852, Note_off_c, 0, 71, 100
2, 257856, Note_on_c, 0, 71, 80
2, 258044, Note_off_c, 0, 80, 100
2, 258044, Note_off_c, 0, 71, 100
2, 258048, Note_on_c, 0, 71, 80
2, 258048, Note_on_c, 0, 78, 80
2, 258236, Note_off_c, 0, 71, 100
2, 258236, Note_off_c, 0, 78, 100
2, 258240, Note_on_c, 0, 71, 80
2, 258240, Note_on_c, 0, 75, 80
2, 258332, Note_off_c, 0, 71, 100
2, 258336, Note_on_c, 0, 73, 80
2, 258428, Note_off_c, 0, 73, 100
2, 258432, Note_on_c, 0, 71, 80
2, 258524, Note_off_c, 0, 71, 100
2, 258528, Note_on_c, 0, 73, 80
2, 258620, Note_off_c, 0, 73, 100
2, 258624, Note_on_c, 0, 71, 80
2, 258716, Note_off_c, 0, 71, 100
2, 258720, Note_on_c, 0, 73, 80
2, 258812, Note_off_c, 0, 75, 100
2, 258812, Note_off_c, 0, 73, 100
2, 258816, Note_on_c, 0, 71, 80
2, 258816, Note_on_c, 0, 83, 80
2, 258908, Note_off_c, 0, 71, 100
2, 258912, Note_on_c, 0, 73, 80
2, 259004, Note_off_c, 0, 73, 100
2, 259008, Note_on_c, 0, 71, 80
2, 259100, Note_off_c, 0, 71, 100
2, 259104, Note_on_c, 0, 73, 80
2, 259196, Note_off_c, 0, 73, 100
2, 259200, Note_on_c, 0, 71, 80
2, 259292, Note_off_c, 0, 71, 100
2, 259296, Note_on_c, 0, 73, 80
2, 259388, Note_off_c, 0, 83, 100
2, 259388, Note_off_c, 0, 73, 100
2, 259392, Note_on_c, 0, 71, 80
2, 259392, Note_on_c, 0, 81, 80
2, 259484, Note_off_c, 0, 71, 100
2, 259488, Note_on_c, 0, 73, 80
2, 259580, Note_off_c, 0, 73, 100
2, 259584, Note_on_c, 0, 71, 80
2, 259676, Note_off_c, 0, 71, 100
2, 259680, Note_on_c, 0, 73, 80
2, 259772, Note_off_c, 0, 73, 100
2, 259776, Note_on_c, 0, 71, 80
2, 259868, Note_off_c, 0, 71, 100
2, 259872, Note_on_c, 0, 73, 80
2, 259964, Note_off_c, 0, 81, 100
2, 259964, Note_off_c, 0, 73, 100
2, 259968, Note_on_c, 0, 71, 80
2, 259968, Note_on_c, 0, 80, 80
2, 260060, Note_off_c, 0, 71, 100
2, 260064, Note_on_c, 0, 78, 80
2, 260156, Note_off_c, 0, 78, 100
2, 260160, Note_on_c, 0, 76, 80
2, 260252, Note_off_c, 0, 76, 100
2, 260256, Note_on_c, 0, 78, 80
2, 260348, Note_off_c, 0, 78, 100
2, 260352, Note_on_c, 0, 76, 80
2, 260444, Note_off_c, 0, 76, 100
2, 260448, Note_on_c, 0, 78, 80
2, 260540, Note_off_c, 0, 80, 100
2, 260540, Note_off_c, 0, 78, 100
2, 260544, Note_on_c, 0, 76, 80
2, 260544, Note_on_c, 0, 88, 80
2, 260636, Note_off_c, 0, 76, 100
2, 260640, Note_on_c, 0, 78, 80
2, 260732, Note_off_c, 0, 78, 100
2, 260736, Note_on_c, 0, 76, 80
2, 260828, Note_off_c, 0, 76, 100
2, 260832, Note_on_c, 0, 78, 80
2, 260924, Note_off_c, 0, 78, 100
2, 260928, Note_on_c, 0, 76, 80
2, 261020, Note_off_c, 0, 76, 100
2, 261024, Note_on_c, 0, 78, 80
2, 261116, Note_off_c, 0, 78, 100
2, 261120, Note_on_c, 0, 76, 80
2, 261212, Note_off_c, 0, 76, 100
2, 261216, Note_on_c, 0, 78, 80
2, 261308, Note_off_c, 0, 78, 100
2, 261312, Note_on_c, 0, 76, 80
2, 261404, Note_off_c, 0, 76, 100
2, 261408, Note_on_c, 0, 78, 80
2, 261500, Note_off_c, 0, 88, 64
2, 261500, Note_off_c, 0, 78, 100
2, 261504, Note_on_c, 0, 76, 80
2, 261504, Note_on_c, 0, 88, 80
2, 261596, Note_off_c, 0, 76, 100
2, 261600, Note_on_c, 0, 78, 80
2, 261692, Note_off_c, 0, 88, 100
2, 261692, Note_off_c, 0, 78, 100
2, 261696, Note_on_c, 0, 76, 80
2, 261696, Note_on_c, 0, 88, 80
2, 261788, Note_off_c, 0, 76, 100
2, 261792, Note_on_c, 0, 79, 80
2, 261884, Note_off_c, 0, 79, 100
2, 261888, Note_on_c, 0, 76, 80
2, 261980, Note_off_c, 0, 76, 100
2, 261984, Note_on_c, 0, 79, 80
2, 262076, Note_off_c, 0, 79, 100
2, 262080, Note_on_c, 0, 76, 80
2, 262172, Note_off_c, 0, 76, 100
2, 262176, Note_on_c, 0, 79, 80
2, 262268, Note_off_c, 0, 88, 100
2, 262268, Note_off_c, 0, 79, 100
2, 262272, Note_on_c, 0, 76, 80
2, 262272, Note_on_c, 0, 82, 80
2, 262364, Note_off_c, 0, 76, 100
2, 262368, Note_on_c, 0, 79, 80
2, 262460, Note_off_c, 0, 79, 100
2, 262464, Note_on_c, 0, 76, 80
2, 262556, Note_off_c, 0, 76, 100
2, 262560, Note_on_c, 0, 79, 80
2, 262652, Note_off_c, 0, 79, 100
2, 262656, Note_on_c, 0, 76, 80
2, 262748, Note_off_c, 0, 76, 100
2, 262752, Note_on_c, 0, 79, 80
2, 262844, Note_off_c, 0, 82, 100
2, 262844, Note_off_c, 0, 79, 100
2, 262848, Note_on_c, 0, 75, 70
2, 262848, Note_on_c, 0, 83, 81
2, 262892, Note_off_c, 0, 75, 100
2, 262896, Note_on_c, 0, 73, 70
2, 262940, Note_off_c, 0, 73, 100
2, 262944, Note_on_c, 0, 71, 70
2, 262988, Note_off_c, 0, 71, 100
2, 262992, Note_on_c, 0, 73, 70
2, 263036, Note_off_c, 0, 73, 100
2, 263040, Note_on_c, 0, 71, 70
2, 263084, Note_off_c, 0, 71, 100
2, 263088, Note_on_c, 0, 73, 70
2, 263132, Note_off_c, 0, 73, 100
2, 263136, Note_on_c, 0, 71, 70
2, 263180, Note_off_c, 0, 71, 100
2, 263184, Note_on_c, 0, 73, 71
2, 263228, Note_off_c, 0, 83, 100
2, 263228, Note_off_c, 0, 73, 100
2, 263232, Note_on_c, 0, 68, 86
2, 263232, Note_on_c, 0, 71, 71
2, 263276, Note_off_c, 0, 71, 100
2, 263280, Note_on_c, 0, 73, 71
2, 263324, Note_off_c, 0, 73, 100
2, 263328, Note_on_c, 0, 71, 71
2, 263372, Note_off_c, 0, 71, 100
2, 263376, Note_on_c, 0, 73, 71
2, 263420, Note_off_c, 0, 68, 100
2, 263420, Note_off_c, 0, 73, 100
2, 263424, Note_on_c, 0, 64, 83
2, 263424, Note_on_c, 0, 71, 71
2, 263468, Note_off_c, 0, 71, 100
2, 263472, Note_on_c, 0, 73, 71
2, 263516, Note_off_c, 0, 73, 100
2, 263520, Note_on_c, 0, 71, 72
2, 263564, Note_off_c, 0, 71, 100
2, 263568, Note_on_c, 0, 73, 72
2, 263612, Note_off_c, 0, 64, 100
2, 263612, Note_off_c, 0, 73, 100
2, 263616, Note_on_c, 0, 64, 90
2, 263616, Note_on_c, 0, 71, 72
2, 263660, Note_off_c, 0, 71, 100
2, 263664, Note_on_c, 0, 73, 72
2, 263708, Note_off_c, 0, 73, 100
2, 263712, Note_on_c, 0, 71, 72
2, 263756, Note_off_c, 0, 71, 100
2, 263760, Note_on_c, 0, 73, 72
2, 263804, Note_off_c, 0, 64, 100
2, 263804, Note_off_c, 0, 73, 100
2, 263808, Note_on_c, 0, 68, 83
2, 263808, Note_on_c, 0, 71, 73
2, 263852, Note_off_c, 0, 71, 100
2, 263856, Note_on_c, 0, 73, 73
2, 263900, Note_off_c, 0, 73, 100
2, 263904, Note_on_c, 0, 71, 73
2, 263948, Note_off_c, 0, 71, 100
2, 263952, Note_on_c, 0, 73, 73
2, 263996, Note_off_c, 0, 68, 100
2, 263996, Note_off_c, 0, 73, 100
2, 264000, Note_on_c, 0, 68, 86
2, 264000, Note_on_c, 0, 71, 73
2, 264044, Note_off_c, 0, 71, 100
2, 264048, Note_on_c, 0, 73, 73
2, 264092, Note_off_c, 0, 73, 100
2, 264096, Note_on_c, 0, 71, 73
2, 264140, Note_off_c, 0, 71, 100
2, 264144, Note_on_c, 0, 73, 74
2, 264188, Note_off_c, 0, 68, 100
2, 264188, Note_off_c, 0, 73, 100
2, 264192, Note_on_c, 0, 66, 87
2, 264192, Note_on_c, 0, 71, 74
2, 264236, Note_off_c, 0, 71, 100
2, 264240, Note_on_c, 0, 73, 74
2, 264284, Note_off_c, 0, 73, 100
2, 264288, Note_on_c, 0, 71, 74
2, 264332, Note_off_c, 0, 71, 100
2, 264336, Note_on_c, 0, 73, 74
2, 264380, Note_off_c, 0, 66, 100
2, 264380, Note_off_c, 0, 73, 100
2, 264384, Note_on_c, 0, 66, 85
2, 264384, Note_on_c, 0, 71, 74
2, 264428, Note_off_c, 0, 71, 100
2, 264432, Note_on_c, 0, 73, 74
2, 264476, Note_off_c, 0, 73, 100
2, 264480, Note_on_c, 0, 71, 75
2, 264524, Note_off_c, 0, 71, 100
2, 264528, Note_on_c, 0, 73, 75
2, 264572, Note_off_c, 0, 66, 100
2, 264572, Note_off_c, 0, 73, 100
2, 264576, Note_on_c, 0, 63, 87
2, 264576, Note_on_c, 0, 71, 75
2, 264620, Note_off_c, 0, 71, 100
2, 264624, Note_on_c, 0, 73, 75
2, 264668, Note_off_c, 0, 73, 100
2, 264672, Note_on_c, 0, 71, 75
2, 264716, Note_off_c, 0, 71, 100
2, 264720, Note_on_c, 0, 73, 75
2, 264764, Note_off_c, 0, 63, 100
2, 264764, Note_off_c, 0, 73, 100
2, 264768, Note_on_c, 0, 63, 87
2, 264768, Note_on_c, 0, 71, 76
2, 264812, Note_off_c, 0, 71, 100
2, 264816, Note_on_c, 0, 73, 76
2, 264860, Note_off_c, 0, 73, 100
2, 264864, Note_on_c, 0, 71, 76
2, 264908, Note_off_c, 0, 71, 100
2, 264912, Note_on_c, 0, 73, 76
2, 264956, Note_off_c, 0, 63, 100
2, 264956, Note_off_c, 0, 73, 100
2, 264960, Note_on_c, 0, 64, 91
2, 264960, Note_on_c, 0, 71, 76
2, 265004, Note_off_c, 0, 71, 100
2, 265008, Note_on_c, 0, 73, 76
2, 265052, Note_off_c, 0, 73, 100
2, 265056, Note_on_c, 0, 71, 76
2, 265100, Note_off_c, 0, 71, 100
2, 265104, Note_on_c, 0, 73, 77
2, 265148, Note_off_c, 0, 64, 100
2, 265148, Note_off_c, 0, 73, 100
2, 265152, Note_on_c, 0, 64, 90
2, 265152, Note_on_c, 0, 71, 77
2, 265196, Note_off_c, 0, 71, 100
2, 265200, Note_on_c, 0, 73, 77
2, 265244, Note_off_c, 0, 73, 100
2, 265248, Note_on_c, 0, 71, 77
2, 265292, Note_off_c, 0, 71, 100
2, 265296, Note_on_c, 0, 73, 77
2, 265340, Note_off_c, 0, 64, 100
2, 265340, Note_off_c, 0, 73, 100
2, 265344, Note_on_c, 0, 63, 90
2, 265344, Note_on_c, 0, 71, 77
2, 265388, Note_off_c, 0, 71, 100
2, 265392, Note_on_c, 0, 73, 77
2, 265436, Note_off_c, 0, 73, 100
2, 265440, Note_on_c, 0, 71, 78
2, 265484, Note_off_c, 0, 71, 100
2, 265488, Note_on_c, 0, 73, 78
2, 265532, Note_off_c, 0, 63, 100
2, 265532, Note_off_c, 0, 73, 100
2, 265536, Note_on_c, 0, 68, 90
2, 265536, Note_on_c, 0, 71, 78
2, 265580, Note_off_c, 0, 71, 100
2, 265584, Note_on_c, 0, 73, 78
2, 265628, Note_off_c, 0, 73, 100
2, 265632, Note_on_c, 0, 71, 78
2, 265676, Note_off_c, 0, 71, 100
2, 265680, Note_on_c, 0, 73, 78
2, 265724, Note_off_c, 0, 68, 100
2, 265724, Note_off_c, 0, 73, 100
2, 265728, Note_on_c, 0, 64, 91
2, 265728, Note_on_c, 0, 71, 79
2, 265772, Note_off_c, 0, 71, 100
2, 265776, Note_on_c, 0, 73, 79
2, 265820, Note_off_c, 0, 73, 100
2, 265824, Note_on_c, 0, 71, 79
2, 265868, Note_off_c, 0, 71, 100
2, 265872, Note_on_c, 0, 73, 79
2, 265916, Note_off_c, 0, 64, 100
2, 265916, Note_off_c, 0, 73, 100
2, 265920, Note_on_c, 0, 64, 92
2, 265920, Note_on_c, 0, 71, 79
2, 265964, Note_off_c, 0, 71, 100
2, 265968, Note_on_c, 0, 73, 79
2, 266012, Note_off_c, 0, 73, 100
2, 266016, Note_on_c, 0, 71, 79
2, 266060, Note_off_c, 0, 71, 100
2, 266064, Note_on_c, 0, 73, 80
2, 266108, Note_off_c, 0, 64, 100
2, 266108, Note_off_c, 0, 73, 100
2, 266112, Note_on_c, 0, 68, 94
2, 266112, Note_on_c, 0, 71, 80
2, 266156, Note_off_c, 0, 71, 100
2, 266160, Note_on_c, 0, 73, 80
2, 266204, Note_off_c, 0, 73, 100
2, 266208, Note_on_c, 0, 71, 80
2, 266252, Note_off_c, 0, 71, 100
2, 266256, Note_on_c, 0, 73, 80
2, 266300, Note_off_c, 0, 68, 100
2, 266300, Note_off_c, 0, 73, 100
2, 266304, Note_on_c, 0, 68, 94
2, 266304, Note_on_c, 0, 71, 80
2, 266348, Note_off_c, 0, 71, 100
2, 266352, Note_on_c, 0, 73, 80
2, 266396, Note_off_c, 0, 73, 100
2, 266400, Note_on_c, 0, 71, 81
2, 266444, Note_off_c, 0, 71, 100
2, 266448, Note_on_c, 0, 73, 81
2, 266492, Note_off_c, 0, 68, 100
2, 266492, Note_off_c, 0, 73, 100
2, 266496, Note_on_c, 0, 66, 92
2, 266496, Note_on_c, 0, 71, 81
2, 266540, Note_off_c, 0, 71, 100
2, 266544, Note_on_c, 0, 73, 81
2, 266588, Note_off_c, 0, 73, 100
2, 266592, Note_on_c, 0, 71, 81
2, 266636, Note_off_c, 0, 71, 100
2, 266640, Note_on_c, 0, 73, 81
2, 266684, Note_off_c, 0, 66, 100
2, 266684, Note_off_c, 0, 73, 100
2, 266688, Note_on_c, 0, 66, 98
2, 266688, Note_on_c, 0, 71, 82
2, 266732, Note_off_c, 0, 71, 100
2, 266736, Note_on_c, 0, 73, 82
2, 266780, Note_off_c, 0, 73, 100
2, 266784, Note_on_c, 0, 71, 82
2, 266828, Note_off_c, 0, 71, 100
2, 266832, Note_on_c, 0, 73, 82
2, 266876, Note_off_c, 0, 66, 100
2, 266876, Note_off_c, 0, 73, 100
2, 266880, Note_on_c, 0, 66, 94
2, 266880, Note_on_c, 0, 71, 82
2, 266924, Note_off_c, 0, 71, 100
2, 266928, Note_on_c, 0, 73, 82
2, 266972, Note_off_c, 0, 73, 100
2, 266976, Note_on_c, 0, 71, 82
2, 267020, Note_off_c, 0, 71, 100
2, 267024, Note_on_c, 0, 73, 83
2, 267068, Note_off_c, 0, 66, 100
2, 267068, Note_off_c, 0, 73, 100
2, 267072, Note_on_c, 0, 70, 98
2, 267072, Note_on_c, 0, 71, 83
2, 267116, Note_off_c, 0, 71, 100
2, 267120, Note_on_c, 0, 73, 83
2, 267164, Note_off_c, 0, 73, 100
2, 267168, Note_on_c, 0, 71, 83
2, 267212, Note_off_c, 0, 71, 100
2, 267216, Note_on_c, 0, 73, 83
2, 267260, Note_off_c, 0, 70, 100
2, 267260, Note_off_c, 0, 73, 100
2, 267264, Note_on_c, 0, 70, 100
2, 267264, Note_on_c, 0, 71, 83
2, 267308, Note_off_c, 0, 71, 100
2, 267312, Note_on_c, 0, 73, 83
2, 267356, Note_off_c, 0, 73, 100
2, 267360, Note_on_c, 0, 71, 84
2, 267404, Note_off_c, 0, 71, 100
2, 267408, Note_on_c, 0, 73, 84
2, 267452, Note_off_c, 0, 70, 100
2, 267452, Note_off_c, 0, 73, 100
2, 267456, Note_on_c, 0, 71, 75
2, 267488, Note_on_c, 0, 73, 75
2, 267516, Note_off_c, 0, 71, 100
2, 267520, Note_on_c, 0, 71, 75
2, 267548, Note_off_c, 0, 73, 100
2, 267552, Note_on_c, 0, 73, 75
2, 267580, Note_off_c, 0, 71, 100
2, 267584, Note_on_c, 0, 71, 75
2, 267584, Note_on_c, 0, 83, 90
2, 267612, Note_off_c, 0, 73, 100
2, 267616, Note_on_c, 0, 73, 76
2, 267644, Note_off_c, 0, 71, 100
2, 267648, Note_on_c, 0, 71, 76
2, 267676, Note_off_c, 0, 73, 100
2, 267680, Note_on_c, 0, 73, 76
2, 267708, Note_off_c, 0, 83, 100
2, 267708, Note_off_c, 0, 71, 100
2, 267712, Note_on_c, 0, 71, 76
2, 267712, Note_on_c, 0, 83, 91
2, 267740, Note_off_c, 0, 73, 100
2, 267744, Note_on_c, 0, 73, 76
2, 267772, Note_off_c, 0, 71, 100
2, 267776, Note_on_c, 0, 71, 77
2, 267804, Note_off_c, 0, 73, 100
2, 267808, Note_on_c, 0, 73, 77
2, 267836, Note_off_c, 0, 83, 100
2, 267836, Note_off_c, 0, 71, 100
2, 267840, Note_on_c, 0, 71, 77
2, 267840, Note_on_c, 0, 83, 92
2, 267868, Note_off_c, 0, 73, 100
2, 267872, Note_on_c, 0, 73, 77
2, 267900, Note_off_c, 0, 71, 100
2, 267904, Note_on_c, 0, 71, 77
2, 267932, Note_off_c, 0, 73, 100
2, 267936, Note_on_c, 0, 73, 78
2, 267964, Note_off_c, 0, 83, 100
2, 267964, Note_off_c, 0, 71, 100
2, 267968, Note_on_c, 0, 71, 78
2, 267968, Note_on_c, 0, 82, 93
2, 267996, Note_off_c, 0, 73, 100
2, 268000, Note_on_c, 0, 73, 78
2, 268028, Note_off_c, 0, 71, 100
2, 268032, Note_on_c, 0, 71, 78
2, 268060, Note_off_c, 0, 73, 100
2, 268064, Note_on_c, 0, 73, 78
2, 268092, Note_off_c, 0, 82, 100
2, 268092, Note_off_c, 0, 71, 100
2, 268096, Note_on_c, 0, 71, 79
2, 268096, Note_on_c, 0, 83, 93
2, 268124, Note_off_c, 0, 73, 100
2, 268128, Note_on_c, 0, 73, 79
2, 268156, Note_off_c, 0, 71, 100
2, 268160, Note_on_c, 0, 71, 79
2, 268188, Note_off_c, 0, 73, 100
2, 268192, Note_on_c, 0, 73, 79
2, 268220, Note_off_c, 0, 83, 100
2, 268220, Note_off_c, 0, 71, 100
2, 268224, Note_on_c, 0, 71, 80
2, 268224, Note_on_c, 0, 83, 94
2, 268252, Note_off_c, 0, 73, 100
2, 268256, Note_on_c, 0, 73, 80
2, 268284, Note_off_c, 0, 71, 100
2, 268288, Note_on_c, 0, 71, 80
2, 268316, Note_off_c, 0, 73, 100
2, 268320, Note_on_c, 0, 73, 80
2, 268348, Note_off_c, 0, 83, 100
2, 268348, Note_off_c, 0, 71, 100
2, 268352, Note_on_c, 0, 71, 80
2, 268352, Note_on_c, 0, 76, 95
2, 268380, Note_off_c, 0, 73, 100
2, 268384, Note_on_c, 0, 73, 81
2, 268412, Note_off_c, 0, 71, 100
2, 268416, Note_on_c, 0, 71, 81
2, 268444, Note_off_c, 0, 73, 100
2, 268448, Note_on_c, 0, 73, 81
2, 268476, Note_off_c, 0, 76, 100
2, 268476, Note_off_c, 0, 71, 100
2, 268480, Note_on_c, 0, 71, 81
2, 268480, Note_on_c, 0, 76, 96
2, 268508, Note_off_c, 0, 73, 100
2, 268512, Note_on_c, 0, 73, 81
2, 268540, Note_off_c, 0, 71, 100
2, 268544, Note_on_c, 0, 71, 82
2, 268572, Note_off_c, 0, 73, 100
2, 268576, Note_on_c, 0, 73, 82
2, 268604, Note_off_c, 0, 76, 100
2, 268604, Note_off_c, 0, 71, 100
2, 268608, Note_on_c, 0, 71, 82
2, 268608, Note_on_c, 0, 76, 97
2, 268636, Note_off_c, 0, 73, 100
2, 268640, Note_on_c, 0, 73, 82
2, 268668, Note_off_c, 0, 71, 100
2, 268672, Note_on_c, 0, 71, 82
2, 268700, Note_off_c, 0, 73, 100
2, 268704, Note_on_c, 0, 73, 83
2, 268732, Note_off_c, 0, 76, 100
2, 268732, Note_off_c, 0, 71, 100
2, 268736, Note_on_c, 0, 71, 83
2, 268736, Note_on_c, 0, 80, 97
2, 268764, Note_off_c, 0, 73, 100
2, 268768, Note_on_c, 0, 73, 83
2, 268796, Note_off_c, 0, 71, 100
2, 268800, Note_on_c, 0, 71, 83
2, 268828, Note_off_c, 0, 73, 100
2, 268832, Note_on_c, 0, 73, 84
2, 268860, Note_off_c, 0, 80, 100
2, 268860, Note_off_c, 0, 71, 100
2, 268864, Note_on_c, 0, 71, 84
2, 268864, Note_on_c, 0, 78, 98
2, 268892, Note_off_c, 0, 73, 100
2, 268896, Note_on_c, 0, 73, 84
2, 268924, Note_off_c, 0, 71, 100
2, 268928, Note_on_c, 0, 71, 84
2, 268956, Note_off_c, 0, 73, 100
2, 268960, Note_on_c, 0, 73, 84
2, 268988, Note_off_c, 0, 78, 100
2, 268988, Note_off_c, 0, 71, 100
2, 268992, Note_on_c, 0, 71, 85
2, 268992, Note_on_c, 0, 78, 99
2, 269020, Note_off_c, 0, 73, 100
2, 269024, Note_on_c, 0, 73, 85
2, 269052, Note_off_c, 0, 71, 100
2, 269056, Note_on_c, 0, 71, 85
2, 269084, Note_off_c, 0, 73, 100
2, 269088, Note_on_c, 0, 73, 85
2, 269116, Note_off_c, 0, 78, 100
2, 269116, Note_off_c, 0, 71, 100
2, 269120, Note_on_c, 0, 71, 85
2, 269120, Note_on_c, 0, 75, 100
2, 269148, Note_off_c, 0, 73, 100
2, 269152, Note_on_c, 0, 73, 86
2, 269180, Note_off_c, 0, 71, 100
2, 269184, Note_on_c, 0, 71, 86
2, 269212, Note_off_c, 0, 73, 100
2, 269216, Note_on_c, 0, 73, 86
2, 269244, Note_off_c, 0, 75, 100
2, 269244, Note_off_c, 0, 71, 100
2, 269248, Note_on_c, 0, 71, 86
2, 269248, Note_on_c, 0, 75, 101
2, 269276, Note_off_c, 0, 73, 100
2, 269280, Note_on_c, 0, 73, 86
2, 269308, Note_off_c, 0, 71, 100
2, 269312, Note_on_c, 0, 71, 87
2, 269340, Note_off_c, 0, 73, 100
2, 269344, Note_on_c, 0, 73, 87
2, 269372, Note_off_c, 0, 75, 100
2, 269372, Note_off_c, 0, 71, 100
2, 269376, Note_on_c, 0, 71, 87
2, 269376, Note_on_c, 0, 75, 101
2, 269404, Note_off_c, 0, 73, 100
2, 269408, Note_on_c, 0, 73, 87
2, 269436, Note_off_c, 0, 71, 100
2, 269440, Note_on_c, 0, 71, 88
2, 269468, Note_off_c, 0, 73, 100
2, 269472, Note_on_c, 0, 73, 88
2, 269500, Note_off_c, 0, 75, 100
2, 269500, Note_off_c, 0, 71, 100
2, 269504, Note_on_c, 0, 71, 88
2, 269504, Note_on_c, 0, 83, 102
2, 269532, Note_off_c, 0, 73, 100
2, 269536, Note_on_c, 0, 73, 88
2, 269564, Note_off_c, 0, 71, 100
2, 269568, Note_on_c, 0, 71, 88
2, 269596, Note_off_c, 0, 73, 100
2, 269600, Note_on_c, 0, 73, 89
2, 269628, Note_off_c, 0, 83, 100
2, 269628, Note_off_c, 0, 71, 100
2, 269632, Note_on_c, 0, 71, 89
2, 269632, Note_on_c, 0, 83, 103
2, 269660, Note_off_c, 0, 73, 100
2, 269664, Note_on_c, 0, 73, 89
2, 269692, Note_off_c, 0, 71, 100
2, 269696, Note_on_c, 0, 71, 89
2, 269724, Note_off_c, 0, 73, 100
2, 269728, Note_on_c, 0, 73, 89
2, 269756, Note_off_c, 0, 83, 100
2, 269756, Note_off_c, 0, 71, 100
2, 269760, Note_on_c, 0, 71, 90
2, 269760, Note_on_c, 0, 83, 104
2, 269788, Note_off_c, 0, 73, 100
2, 269792, Note_on_c, 0, 73, 90
2, 269820, Note_off_c, 0, 71, 100
2, 269824, Note_on_c, 0, 71, 90
2, 269852, Note_off_c, 0, 73, 100
2, 269856, Note_on_c, 0, 73, 90
2, 269884, Note_off_c, 0, 83, 100
2, 269884, Note_off_c, 0, 71, 100
2, 269888, Note_on_c, 0, 71, 90
2, 269888, Note_on_c, 0, 82, 104
2, 269916, Note_off_c, 0, 73, 100
2, 269920, Note_on_c, 0, 73, 91
2, 269948, Note_off_c, 0, 71, 100
2, 269952, Note_on_c, 0, 71, 91
2, 269980, Note_off_c, 0, 73, 100
2, 269984, Note_on_c, 0, 73, 91
2, 270012, Note_off_c, 0, 82, 100
2, 270012, Note_off_c, 0, 71, 100
2, 270016, Note_on_c, 0, 71, 91
2, 270016, Note_on_c, 0, 81, 105
2, 270044, Note_off_c, 0, 73, 100
2, 270048, Note_on_c, 0, 73, 92
2, 270076, Note_off_c, 0, 71, 100
2, 270080, Note_on_c, 0, 71, 92
2, 270108, Note_off_c, 0, 73, 100
2, 270112, Note_on_c, 0, 73, 92
2, 270140, Note_off_c, 0, 81, 100
2, 270140, Note_off_c, 0, 71, 100
2, 270144, Note_on_c, 0, 71, 92
2, 270144, Note_on_c, 0, 81, 106
2, 270172, Note_off_c, 0, 73, 100
2, 270176, Note_on_c, 0, 73, 92
2, 270204, Note_off_c, 0, 71, 100
2, 270208, Note_on_c, 0, 71, 93
2, 270236, Note_off_c, 0, 73, 100
2, 270240, Note_on_c, 0, 73, 93
2, 270268, Note_off_c, 0, 81, 100
2, 270268, Note_off_c, 0, 71, 100
2, 270272, Note_on_c, 0, 71, 93
2, 270272, Note_on_c, 0, 80, 107
2, 270300, Note_off_c, 0, 73, 100
2, 270304, Note_on_c, 0, 73, 93
2, 270332, Note_off_c, 0, 71, 100
2, 270336, Note_on_c, 0, 71, 93
2, 270364, Note_off_c, 0, 73, 100
2, 270368, Note_on_c, 0, 73, 94
2, 270396, Note_off_c, 0, 80, 100
2, 270396, Note_off_c, 0, 71, 100
2, 270400, Note_on_c, 0, 71, 94
2, 270400, Note_on_c, 0, 80, 108
2, 270428, Note_off_c, 0, 73, 100
2, 270432, Note_on_c, 0, 73, 94
2, 270460, Note_off_c, 0, 71, 100
2, 270464, Note_on_c, 0, 71, 94
2, 270492, Note_off_c, 0, 73, 100
2, 270496, Note_on_c, 0, 73, 94
2, 270524, Note_off_c, 0, 80, 100
2, 270524, Note_off_c, 0, 71, 100
2, 270524, Note_off_c, 0, 73, 100
2, 270528, Note_on_c, 0, 76, 100
2, 270528, Note_on_c, 0, 80, 108
2, 270560, Note_on_c, 0, 78, 100
2, 270588, Note_off_c, 0, 76, 100
2, 270592, Note_on_c, 0, 76, 100
2, 270620, Note_off_c, 0, 78, 100
2, 270624, Note_on_c, 0, 78, 100
2, 270652, Note_off_c, 0, 80, 100
2, 270652, Note_off_c, 0, 76, 100
2, 270656, Note_on_c, 0, 76, 100
2, 270656, Note_on_c, 0, 88, 109
2, 270684, Note_off_c, 0, 78, 100
2, 270688, Note_on_c, 0, 78, 100
2, 270716, Note_off_c, 0, 76, 100
2, 270720, Note_on_c, 0, 76, 100
2, 270748, Note_off_c, 0, 78, 100
2, 270752, Note_on_c, 0, 78, 100
2, 270780, Note_off_c, 0, 88, 100
2, 270780, Note_off_c, 0, 76, 100
2, 270784, Note_on_c, 0, 76, 100
2, 270784, Note_on_c, 0, 88, 110
2, 270812, Note_off_c, 0, 78, 100
2, 270816, Note_on_c, 0, 78, 100
2, 270844, Note_off_c, 0, 76, 100
2, 270848, Note_on_c, 0, 76, 100
2, 270876, Note_off_c, 0, 78, 100
2, 270880, Note_on_c, 0, 78, 100
2, 270908, Note_off_c, 0, 88, 100
2, 270908, Note_off_c, 0, 76, 100
2, 270912, Note_on_c, 0, 76, 100
2, 270912, Note_on_c, 0, 88, 111
2, 270940, Note_off_c, 0, 78, 100
2, 270944, Note_on_c, 0, 78, 100
2, 270972, Note_off_c, 0, 76, 100
2, 270976, Note_on_c, 0, 76, 100
2, 271004, Note_off_c, 0, 78, 100
2, 271008, Note_on_c, 0, 78, 100
2, 271036, Note_off_c, 0, 88, 100
2, 271036, Note_off_c, 0, 76, 100
2, 271040, Note_on_c, 0, 76, 100
2, 271040, Note_on_c, 0, 87, 112
2, 271068, Note_off_c, 0, 78, 100
2, 271072, Note_on_c, 0, 78, 100
2, 271100, Note_off_c, 0, 76, 100
2, 271104, Note_on_c, 0, 76, 100
2, 271132, Note_off_c, 0, 78, 100
2, 271136, Note_on_c, 0, 78, 100
2, 271164, Note_off_c, 0, 87, 100
2, 271164, Note_off_c, 0, 76, 100
2, 271168, Note_on_c, 0, 76, 100
2, 271168, Note_on_c, 0, 88, 112
2, 271196, Note_off_c, 0, 78, 100
2, 271200, Note_on_c, 0, 78, 100
2, 271228, Note_off_c, 0, 76, 100
2, 271232, Note_on_c, 0, 76, 100
2, 271260, Note_off_c, 0, 78, 100
2, 271264, Note_on_c, 0, 78, 100
2, 271292, Note_off_c, 0, 88, 100
2, 271292, Note_off_c, 0, 76, 100
2, 271296, Note_on_c, 0, 76, 100
2, 271296, Note_on_c, 0, 88, 113
2, 271324, Note_off_c, 0, 78, 100
2, 271328, Note_on_c, 0, 78, 100
2, 271356, Note_off_c, 0, 76, 100
2, 271360, Note_on_c, 0, 76, 100
2, 271388, Note_off_c, 0, 78, 100
2, 271392, Note_on_c, 0, 78, 100
2, 271420, Note_off_c, 0, 88, 100
2, 271420, Note_off_c, 0, 76, 100
2, 271424, Note_on_c, 0, 76, 100
2, 271424, Note_on_c, 0, 87, 114
2, 271452, Note_off_c, 0, 78, 100
2, 271456, Note_on_c, 0, 78, 100
2, 271484, Note_off_c, 0, 76, 100
2, 271488, Note_on_c, 0, 76, 100
2, 271516, Note_off_c, 0, 78, 100
2, 271520, Note_on_c, 0, 78, 100
2, 271548, Note_off_c, 0, 87, 100
2, 271548, Note_off_c, 0, 76, 100
2, 271552, Note_on_c, 0, 76, 100
2, 271552, Note_on_c, 0, 88, 115
2, 271580, Note_off_c, 0, 78, 100
2, 271584, Note_on_c, 0, 78, 100
2, 271612, Note_off_c, 0, 76, 100
2, 271616, Note_on_c, 0, 76, 100
2, 271644, Note_off_c, 0, 78, 100
2, 271648, Note_on_c, 0, 78, 100
2, 271676, Note_off_c, 0, 88, 100
2, 271676, Note_off_c, 0, 76, 100
2, 271680, Note_on_c, 0, 76, 100
2, 271680, Note_on_c, 0, 88, 116
2, 271708, Note_off_c, 0, 78, 100
2, 271712, Note_on_c, 0, 78, 100
2, 271740, Note_off_c, 0, 76, 100
2, 271744, Note_on_c, 0, 76, 100
2, 271772, Note_off_c, 0, 78, 100
2, 271776, Note_on_c, 0, 78, 100
2, 271804, Note_off_c, 0, 88, 100
2, 271804, Note_off_c, 0, 76, 100
2, 271808, Note_on_c, 0, 76, 100
2, 271808, Note_on_c, 0, 82, 116
2, 271836, Note_off_c, 0, 78, 100
2, 271840, Note_on_c, 0, 78, 100
2, 271868, Note_off_c, 0, 76, 100
2, 271872, Note_on_c, 0, 76, 100
2, 271900, Note_off_c, 0, 78, 100
2, 271904, Note_on_c, 0, 78, 100
2, 271932, Note_off_c, 0, 82, 100
2, 271932, Note_off_c, 0, 76, 100
2, 271936, Note_on_c, 0, 76, 100
2, 271936, Note_on_c, 0, 82, 117
2, 271964, Note_off_c, 0, 78, 100
2, 271968, Note_on_c, 0, 78, 100
2, 271996, Note_off_c, 0, 76, 100
2, 272000, Note_on_c, 0, 76, 100
2, 272028, Note_off_c, 0, 78, 100
2, 272032, Note_on_c, 0, 78, 100
2, 272060, Note_off_c, 0, 82, 100
2, 272060, Note_off_c, 0, 76, 100
2, 272064, Note_on_c, 0, 76, 100
2, 272064, Note_on_c, 0, 82, 118
2, 272092, Note_off_c, 0, 78, 100
2, 272096, Note_on_c, 0, 78, 100
2, 272124, Note_off_c, 0, 76, 100
2, 272128, Note_on_c, 0, 76, 100
2, 272156, Note_off_c, 0, 78, 100
2, 272160, Note_on_c, 0, 78, 100
2, 272188, Note_off_c, 0, 82, 100
2, 272188, Note_off_c, 0, 76, 100
2, 272192, Note_on_c, 0, 75, 100
2, 272192, Note_on_c, 0, 83, 119
2, 272220, Note_off_c, 0, 78, 100
2, 272224, Note_on_c, 0, 76, 100
2, 272252, Note_off_c, 0, 75, 100
2, 272256, Note_on_c, 0, 75, 100
2, 272284, Note_off_c, 0, 76, 100
2, 272316, Note_off_c, 0, 83, 100
2, 272320, Note_on_c, 0, 74, 110
2, 272320, Note_on_c, 0, 77, 110
2, 272320, Note_on_c, 0, 80, 110
2, 272320, Note_on_c, 0, 86, 110
2, 272444, Note_off_c, 0, 75, 100
2, 272444, Note_off_c, 0, 74, 100
2, 272444, Note_off_c, 0, 77, 100
2, 272444, Note_off_c, 0, 80, 100
2, 272444, Note_off_c, 0, 86, 100
2, 272448, Note_on_c, 0, 74, 110
2, 272448, Note_on_c, 0, 77, 110
2, 272448, Note_on_c, 0, 80, 110
2, 272448, Note_on_c, 0, 86, 110
2, 272496, Note_on_c, 0, 83, 110
2, 272532, Note_off_c, 0, 74, 100
2, 272532, Note_off_c, 0, 77, 100
2, 272532, Note_off_c, 0, 80, 100
2, 272532, Note_off_c, 0, 86, 100
2, 272544, Note_on_c, 0, 80, 110
2, 272580, Note_off_c, 0, 83, 100
2, 272592, Note_on_c, 0, 77, 110
2, 272628, Note_off_c, 0, 80, 100
2, 272640, Note_on_c, 0, 74, 110
2, 272676, Note_off_c, 0, 77, 100
2, 272688, Note_on_c, 0, 77, 110
2, 272724, Note_off_c, 0, 74, 100
2, 272736, Note_on_c, 0, 80, 110
2, 272772, Note_off_c, 0, 77, 100
2, 272784, Note_on_c, 0, 83, 110
2, 272820, Note_off_c, 0, 80, 100
2, 272832, Note_on_c, 0, 80, 110
2, 272868, Note_off_c, 0, 83, 64
2, 272880, Note_on_c, 0, 77, 110
2, 272916, Note_off_c, 0, 80, 100
2, 272928, Note_on_c, 0, 74, 110
2, 272964, Note_off_c, 0, 77, 100
2, 272976, Note_on_c, 0, 71, 110
2, 273012, Note_off_c, 0, 74, 100
2, 273024, Note_on_c, 0, 68, 110
2, 273060, Note_off_c, 0, 71, 100
2, 273072, Note_on_c, 0, 71, 110
2, 273108, Note_off_c, 0, 68, 100
2, 273120, Note_on_c, 0, 74, 110
2, 273156, Note_off_c, 0, 71, 100
2, 273168, Note_on_c, 0, 77, 110
2, 273204, Note_off_c, 0, 74, 100
2, 273216, Note_on_c, 0, 74, 110
2, 273252, Note_off_c, 0, 77, 64
2, 273264, Note_on_c, 0, 71, 110
2, 273300, Note_off_c, 0, 74, 100
2, 273312, Note_on_c, 0, 68, 110
2, 273348, Note_off_c, 0, 71, 100
2, 273360, Note_on_c, 0, 65, 110
2, 273396, Note_off_c, 0, 68, 100
2, 273408, Note_on_c, 0, 73, 110
2, 273444, Note_off_c, 0, 65, 100
2, 273456, Note_on_c, 0, 71, 110
2, 273492, Note_off_c, 0, 73, 100
2, 273504, Note_on_c, 0, 68, 110
2, 273540, Note_off_c, 0, 71, 100
2, 273552, Note_on_c, 0, 65, 110
2, 273588, Note_off_c, 0, 68, 100
2, 273600, Note_on_c, 0, 85, 110
2, 273636, Note_off_c, 0, 65, 64
2, 273648, Note_on_c, 0, 81, 110
2, 273684, Note_off_c, 0, 85, 100
2, 273696, Note_on_c, 0, 78, 110
2, 273732, Note_off_c, 0, 81, 100
2, 273744, Note_on_c, 0, 73, 110
2, 273780, Note_off_c, 0, 78, 100
2, 273792, Note_on_c, 0, 72, 110
2, 273828, Note_off_c, 0, 73, 100
2, 273840, Note_on_c, 0, 73, 110
2, 273876, Note_off_c, 0, 72, 100
2, 273888, Note_on_c, 0, 78, 110
2, 273924, Note_off_c, 0, 73, 100
2, 273936, Note_on_c, 0, 81, 110
2, 273972, Note_off_c, 0, 78, 100
2, 273984, Note_on_c, 0, 78, 110
2, 274020, Note_off_c, 0, 81, 64
2, 274032, Note_on_c, 0, 73, 110
2, 274068, Note_off_c, 0, 78, 100
2, 274080, Note_on_c, 0, 69, 110
2, 274116, Note_off_c, 0, 73, 100
2, 274128, Note_on_c, 0, 66, 110
2, 274164, Note_off_c, 0, 69, 100
2, 274176, Note_on_c, 0, 65, 110
2, 274212, Note_off_c, 0, 66, 100
2, 274224, Note_on_c, 0, 66, 110
2, 274260, Note_off_c, 0, 65, 100
2, 274272, Note_on_c, 0, 69, 110
2, 274308, Note_off_c, 0, 66, 100
2, 274320, Note_on_c, 0, 73, 110
2, 274356, Note_off_c, 0, 69, 100
2, 274368, Note_on_c, 0, 72, 110
2, 274404, Note_off_c, 0, 73, 64
2, 274416, Note_on_c, 0, 69, 110
2, 274452, Note_off_c, 0, 72, 100
2, 274464, Note_on_c, 0, 66, 110
2, 274500, Note_off_c, 0, 69, 100
2, 274512, Note_on_c, 0, 64, 110
2, 274548, Note_off_c, 0, 66, 100
2, 274560, Note_on_c, 0, 71, 110
2, 274596, Note_off_c, 0, 64, 100
2, 274608, Note_on_c, 0, 69, 110
2, 274644, Note_off_c, 0, 71, 100
2, 274656, Note_on_c, 0, 66, 110
2, 274692, Note_off_c, 0, 69, 100
2, 274704, Note_on_c, 0, 63, 110
2, 274740, Note_off_c, 0, 66, 100
2, 274752, Note_on_c, 0, 80, 110
2, 274788, Note_off_c, 0, 63, 64
2, 274800, Note_on_c, 0, 76, 110
2, 274836, Note_off_c, 0, 80, 100
2, 274848, Note_on_c, 0, 71, 110
2, 274884, Note_off_c, 0, 76, 100
2, 274896, Note_on_c, 0, 68, 110
2, 274932, Note_off_c, 0, 71, 100
2, 274944, Note_on_c, 0, 67, 110
2, 274980, Note_off_c, 0, 68, 100
2, 274992, Note_on_c, 0, 68, 110
2, 275028, Note_off_c, 0, 67, 100
2, 275040, Note_on_c, 0, 71, 110
2, 275076, Note_off_c, 0, 68, 100
2, 275088, Note_on_c, 0, 76, 110
2, 275124, Note_off_c, 0, 71, 100
2, 275136, Note_on_c, 0, 71, 110
2, 275172, Note_off_c, 0, 76, 64
2, 275184, Note_on_c, 0, 68, 110
2, 275220, Note_off_c, 0, 71, 100
2, 275232, Note_on_c, 0, 64, 110
2, 275268, Note_off_c, 0, 68, 100
2, 275280, Note_on_c, 0, 59, 110
2, 275316, Note_off_c, 0, 64, 100
2, 275328, Note_on_c, 0, 58, 110
2, 275364, Note_off_c, 0, 59, 100
2, 275376, Note_on_c, 0, 59, 110
2, 275412, Note_off_c, 0, 58, 100
2, 275424, Note_on_c, 0, 64, 110
2, 275460, Note_off_c, 0, 59, 100
2, 275472, Note_on_c, 0, 68, 110
2, 275508, Note_off_c, 0, 64, 100
2, 275520, Note_on_c, 0, 60, 110
2, 275556, Note_off_c, 0, 68, 64
2, 275568, Note_on_c, 0, 61, 110
2, 275604, Note_off_c, 0, 60, 100
2, 275616, Note_on_c, 0, 64, 110
2, 275652, Note_off_c, 0, 61, 100
2, 275664, Note_on_c, 0, 69, 110
2, 275700, Note_off_c, 0, 64, 100
2, 275712, Note_on_c, 0, 68, 110
2, 275748, Note_off_c, 0, 69, 100
2, 275760, Note_on_c, 0, 69, 110
2, 275796, Note_off_c, 0, 68, 100
2, 275808, Note_on_c, 0, 73, 110
2, 275844, Note_off_c, 0, 69, 100
2, 275856, Note_on_c, 0, 76, 110
2, 275892, Note_off_c, 0, 73, 100
2, 275904, Note_on_c, 0, 68, 110
2, 275940, Note_off_c, 0, 76, 64
2, 275952, Note_on_c, 0, 69, 110
2, 275988, Note_off_c, 0, 68, 100
2, 276000, Note_on_c, 0, 73, 110
2, 276036, Note_off_c, 0, 69, 100
2, 276048, Note_on_c, 0, 76, 110
2, 276084, Note_off_c, 0, 73, 100
2, 276096, Note_on_c, 0, 67, 110
2, 276132, Note_off_c, 0, 76, 100
2, 276144, Note_on_c, 0, 68, 110
2, 276180, Note_off_c, 0, 67, 100
2, 276192, Note_on_c, 0, 71, 110
2, 276228, Note_off_c, 0, 68, 100
2, 276240, Note_on_c, 0, 76, 110
2, 276276, Note_off_c, 0, 71, 100
2, 276288, Note_on_c, 0, 67, 110
2, 276324, Note_off_c, 0, 76, 64
2, 276336, Note_on_c, 0, 68, 110
2, 276372, Note_off_c, 0, 67, 100
2, 276384, Note_on_c, 0, 71, 110
2, 276420, Note_off_c, 0, 68, 100
2, 276432, Note_on_c, 0, 76, 110
2, 276468, Note_off_c, 0, 71, 100
2, 276480, Note_on_c, 0, 66, 110
2, 276516, Note_off_c, 0, 76, 100
2, 276528, Note_on_c, 0, 67, 110
2, 276564, Note_off_c, 0, 66, 100
2, 276576, Note_on_c, 0, 70, 110
2, 276612, Note_off_c, 0, 67, 100
2, 276624, Note_on_c, 0, 76, 110
2, 276660, Note_off_c, 0, 70, 100
2, 276672, Note_on_c, 0, 66, 110
2, 276708, Note_off_c, 0, 76, 64
2, 276720, Note_on_c, 0, 67, 110
2, 276756, Note_off_c, 0, 66, 100
2, 276768, Note_on_c, 0, 70, 110
2, 276804, Note_off_c, 0, 67, 100
2, 276816, Note_on_c, 0, 76, 110
2, 276852, Note_off_c, 0, 70, 100
2, 276864, Note_on_c, 0, 67, 110
2, 276900, Note_off_c, 0, 76, 100
2, 276912, Note_on_c, 0, 68, 110
2, 276948, Note_off_c, 0, 67, 100
2, 276960, Note_on_c, 0, 71, 110
2, 276996, Note_off_c, 0, 68, 100
2, 277008, Note_on_c, 0, 76, 110
2, 277044, Note_off_c, 0, 71, 100
2, 277056, Note_on_c, 0, 57, 110
2, 277092, Note_off_c, 0, 76, 64
2, 277104, Note_on_c, 0, 66, 110
2, 277144, Note_off_c, 0, 57, 100
2, 277152, Note_on_c, 0, 63, 110
2, 277192, Note_off_c, 0, 66, 100
2, 277200, Note_on_c, 0, 69, 110
2, 277240, Note_off_c, 0, 63, 100
2, 277248, Note_on_c, 0, 63, 110
2, 277288, Note_off_c, 0, 69, 100
2, 277296, Note_on_c, 0, 69, 110
2, 277336, Note_off_c, 0, 63, 100
2, 277344, Note_on_c, 0, 66, 110
2, 277384, Note_off_c, 0, 69, 100
2, 277392, Note_on_c, 0, 75, 110
2, 277432, Note_off_c, 0, 66, 100
2, 277440, Note_on_c, 0, 66, 110
2, 277480, Note_off_c, 0, 75, 64
2, 277488, Note_on_c, 0, 75, 110
2, 277528, Note_off_c, 0, 66, 100
2, 277536, Note_on_c, 0, 69, 110
2, 277576, Note_off_c, 0, 75, 100
2, 277584, Note_on_c, 0, 78, 110
2, 277624, Note_off_c, 0, 69, 100
2, 277632, Note_on_c, 0, 69, 110
2, 277672, Note_off_c, 0, 78, 100
2, 277680, Note_on_c, 0, 78, 110
2, 277720, Note_off_c, 0, 69, 100
2, 277728, Note_on_c, 0, 75, 110
2, 277768, Note_off_c, 0, 78, 100
2, 277776, Note_on_c, 0, 81, 110
2, 277816, Note_off_c, 0, 75, 100
2, 277824, Note_on_c, 0, 75, 110
2, 277864, Note_off_c, 0, 81, 64
2, 277872, Note_on_c, 0, 81, 110
2, 277912, Note_off_c, 0, 75, 100
2, 277920, Note_on_c, 0, 78, 110
2, 277960, Note_off_c, 0, 81, 100
2, 277968, Note_on_c, 0, 87, 110
2, 278008, Note_off_c, 0, 78, 100
2, 278016, Note_on_c, 0, 78, 110
2, 278056, Note_off_c, 0, 87, 100
2, 278064, Note_on_c, 0, 87, 110
2, 278104, Note_off_c, 0, 78, 100
2, 278112, Note_on_c, 0, 81, 110
2, 278152, Note_off_c, 0, 87, 100
2, 278160, Note_on_c, 0, 90, 110
2, 278200, Note_off_c, 0, 81, 100
2, 278208, Note_on_c, 0, 81, 110
2, 278248, Note_off_c, 0, 90, 64
2, 278256, Note_on_c, 0, 90, 110
2, 278296, Note_off_c, 0, 81, 100
2, 278304, Note_on_c, 0, 87, 110
2, 278344, Note_off_c, 0, 90, 100
2, 278352, Note_on_c, 0, 93, 110
2, 278392, Note_off_c, 0, 87, 100
2, 278400, Note_on_c, 0, 84, 110
2, 278440, Note_off_c, 0, 93, 100
2, 278448, Note_on_c, 0, 90, 110
2, 278488, Note_off_c, 0, 84, 100
2, 278496, Note_on_c, 0, 87, 110
2, 278536, Note_off_c, 0, 90, 100
2, 278544, Note_on_c, 0, 93, 110
2, 278584, Note_off_c, 0, 87, 100
2, 278592, Note_on_c, 0, 83, 110
2, 278632, Note_off_c, 0, 93, 64
2, 278640, Note_on_c, 0, 90, 110
2, 278680, Note_off_c, 0, 83, 100
2, 278688, Note_on_c, 0, 87, 110
2, 278728, Note_off_c, 0, 90, 100
2, 278736, Note_on_c, 0, 93, 110
2, 278776, Note_off_c, 0, 87, 100
2, 278784, Note_on_c, 0, 82, 110
2, 278824, Note_off_c, 0, 93, 100
2, 278832, Note_on_c, 0, 90, 110
2, 278872, Note_off_c, 0, 82, 100
2, 278880, Note_on_c, 0, 87, 110
2, 278920, Note_off_c, 0, 90, 100
2, 278928, Note_on_c, 0, 93, 110
2, 278968, Note_off_c, 0, 87, 100
2, 278976, Note_on_c, 0, 81, 110
2, 279016, Note_off_c, 0, 93, 64
2, 279024, Note_on_c, 0, 90, 110
2, 279064, Note_off_c, 0, 81, 100
2, 279072, Note_on_c, 0, 87, 110
2, 279112, Note_off_c, 0, 90, 100
2, 279120, Note_on_c, 0, 93, 110
2, 279160, Note_off_c, 0, 87, 100
2, 279168, Note_on_c, 0, 80, 110
2, 279208, Note_off_c, 0, 93, 100
2, 279216, Note_on_c, 0, 88, 110
2, 279256, Note_off_c, 0, 80, 100
2, 279264, Note_on_c, 0, 83, 110
2, 279304, Note_off_c, 0, 88, 100
2, 279312, Note_on_c, 0, 92, 110
2, 279352, Note_off_c, 0, 83, 100
2, 279360, Note_on_c, 0, 80, 110
2, 279400, Note_off_c, 0, 92, 64
2, 279408, Note_on_c, 0, 88, 110
2, 279448, Note_off_c, 0, 80, 100
2, 279456, Note_on_c, 0, 83, 110
2, 279496, Note_off_c, 0, 88, 100
2, 279504, Note_on_c, 0, 92, 110
2, 279544, Note_off_c, 0, 83, 100
2, 279552, Note_on_c, 0, 83, 110
2, 279592, Note_off_c, 0, 92, 100
2, 279600, Note_on_c, 0, 92, 110
2, 279640, Note_off_c, 0, 83, 100
2, 279648, Note_on_c, 0, 88, 110
2, 279688, Note_off_c, 0, 92, 100
2, 279696, Note_on_c, 0, 95, 110
2, 279736, Note_off_c, 0, 88, 100
2, 279744, Note_on_c, 0, 82, 110
2, 279784, Note_off_c, 0, 95, 64
2, 279792, Note_on_c, 0, 91, 110
2, 279832, Note_off_c, 0, 82, 100
2, 279840, Note_on_c, 0, 88, 110
2, 279880, Note_off_c, 0, 91, 100
2, 279888, Note_on_c, 0, 94, 110
2, 279928, Note_off_c, 0, 88, 100
2, 279936, Note_on_c, 0, 81, 110
2, 279976, Note_off_c, 0, 94, 100
2, 279984, Note_on_c, 0, 90, 110
2, 280024, Note_off_c, 0, 81, 100
2, 280032, Note_on_c, 0, 87, 110
2, 280072, Note_off_c, 0, 90, 100
2, 280080, Note_on_c, 0, 93, 110
2, 280120, Note_off_c, 0, 87, 100
2, 280128, Note_on_c, 0, 80, 110
2, 280168, Note_off_c, 0, 93, 64
2, 280176, Note_on_c, 0, 89, 110
2, 280216, Note_off_c, 0, 80, 100
2, 280224, Note_on_c, 0, 86, 110
2, 280264, Note_off_c, 0, 89, 100
2, 280272, Note_on_c, 0, 92, 110
2, 280312, Note_off_c, 0, 86, 100
2, 280320, Note_on_c, 0, 81, 110
2, 280360, Note_off_c, 0, 92, 100
2, 280368, Note_on_c, 0, 90, 110
2, 280408, Note_off_c, 0, 81, 100
2, 280416, Note_on_c, 0, 87, 110
2, 280456, Note_off_c, 0, 90, 100
2, 280464, Note_on_c, 0, 93, 110
2, 280504, Note_off_c, 0, 87, 100
2, 280512, Note_on_c, 0, 81, 110
2, 280552, Note_off_c, 0, 93, 64
2, 280560, Note_on_c, 0, 90, 110
2, 280600, Note_off_c, 0, 81, 100
2, 280608, Note_on_c, 0, 87, 110
2, 280648, Note_off_c, 0, 90, 100
2, 280656, Note_on_c, 0, 93, 110
2, 280696, Note_off_c, 0, 87, 100
2, 280704, Note_on_c, 0, 78, 110
2, 280744, Note_off_c, 0, 93, 100
2, 280752, Note_on_c, 0, 87, 110
2, 280792, Note_off_c, 0, 78, 100
2, 280800, Note_on_c, 0, 81, 110
2, 280840, Note_off_c, 0, 87, 100
2, 280848, Note_on_c, 0, 90, 110
2, 280888, Note_off_c, 0, 81, 100
2, 280896, Note_on_c, 0, 75, 110
2, 280936, Note_off_c, 0, 90, 64
2, 280944, Note_on_c, 0, 81, 110
2, 280984, Note_off_c, 0, 75, 100
2, 280992, Note_on_c, 0, 78, 110
2, 281032, Note_off_c, 0, 81, 100
2, 281040, Note_on_c, 0, 87, 110
2, 281080, Note_off_c, 0, 78, 100
2, 281088, Note_on_c, 0, 69, 110
2, 281128, Note_off_c, 0, 87, 100
2, 281136, Note_on_c, 0, 78, 110
2, 281176, Note_off_c, 0, 69, 100
2, 281184, Note_on_c, 0, 75, 110
2, 281224, Note_off_c, 0, 78, 100
2, 281232, Note_on_c, 0, 81, 110
2, 281272, Note_off_c, 0, 75, 100
2, 281280, Note_on_c, 0, 80, 110
2, 281320, Note_off_c, 0, 81, 64
2, 281328, Note_on_c, 0, 71, 110
2, 281368, Note_off_c, 0, 80, 100
2, 281376, Note_on_c, 0, 73, 110
2, 281416, Note_off_c, 0, 71, 100
2, 281424, Note_on_c, 0, 75, 110
2, 281464, Note_off_c, 0, 73, 100
2, 281472, Note_on_c, 0, 76, 110
2, 281512, Note_off_c, 0, 75, 100
2, 281520, Note_on_c, 0, 78, 110
2, 281560, Note_off_c, 0, 76, 100
2, 281568, Note_on_c, 0, 80, 110
2, 281608, Note_off_c, 0, 78, 100
2, 281616, Note_on_c, 0, 82, 110
2, 281656, Note_off_c, 0, 80, 100
2, 281660, Note_off_c, 0, 82, 100
2, 281664, Note_on_c, 0, 83, 100
2, 281696, Note_on_c, 0, 85, 100
2, 281724, Note_off_c, 0, 83, 100
2, 281728, Note_on_c, 0, 83, 100
2, 281756, Note_off_c, 0, 85, 100
2, 281760, Note_on_c, 0, 85, 100
2, 281788, Note_off_c, 0, 83, 100
2, 281792, Note_on_c, 0, 83, 100
2, 281820, Note_off_c, 0, 85, 100
2, 281824, Note_on_c, 0, 85, 100
2, 281852, Note_off_c, 0, 83, 100
2, 281856, Note_on_c, 0, 83, 100
2, 281856, Note_on_c, 0, 95, 110
2, 281884, Note_off_c, 0, 85, 100
2, 281888, Note_on_c, 0, 85, 100
2, 281916, Note_off_c, 0, 83, 100
2, 281920, Note_on_c, 0, 83, 100
2, 281948, Note_off_c, 0, 85, 100
2, 281952, Note_on_c, 0, 85, 100
2, 281980, Note_off_c, 0, 83, 100
2, 281984, Note_on_c, 0, 83, 100
2, 282012, Note_off_c, 0, 85, 100
2, 282016, Note_on_c, 0, 85, 100
2, 282044, Note_off_c, 0, 95, 100
2, 282044, Note_off_c, 0, 83, 100
2, 282048, Note_on_c, 0, 83, 100
2, 282076, Note_off_c, 0, 85, 100
2, 282080, Note_on_c, 0, 85, 100
2, 282108, Note_off_c, 0, 83, 100
2, 282112, Note_on_c, 0, 83, 100
2, 282140, Note_off_c, 0, 85, 100
2, 282144, Note_on_c, 0, 85, 100
2, 282172, Note_off_c, 0, 83, 100
2, 282176, Note_on_c, 0, 83, 100
2, 282204, Note_off_c, 0, 85, 100
2, 282208, Note_on_c, 0, 85, 100
2, 282236, Note_off_c, 0, 83, 100
2, 282240, Note_on_c, 0, 83, 100
2, 282240, Note_on_c, 0, 95, 110
2, 282268, Note_off_c, 0, 85, 100
2, 282272, Note_on_c, 0, 85, 100
2, 282300, Note_off_c, 0, 83, 100
2, 282304, Note_on_c, 0, 83, 100
2, 282332, Note_off_c, 0, 85, 100
2, 282336, Note_on_c, 0, 85, 100
2, 282364, Note_off_c, 0, 83, 100
2, 282368, Note_on_c, 0, 83, 100
2, 282396, Note_off_c, 0, 85, 100
2, 282400, Note_on_c, 0, 85, 100
2, 282428, Note_off_c, 0, 95, 100
2, 282428, Note_off_c, 0, 83, 100
2, 282432, Note_on_c, 0, 83, 100
2, 282460, Note_off_c, 0, 85, 100
2, 282464, Note_on_c, 0, 85, 100
2, 282492, Note_off_c, 0, 83, 100
2, 282496, Note_on_c, 0, 83, 100
2, 282524, Note_off_c, 0, 85, 100
2, 282528, Note_on_c, 0, 85, 100
2, 282556, Note_off_c, 0, 83, 100
2, 282560, Note_on_c, 0, 83, 100
2, 282588, Note_off_c, 0, 85, 100
2, 282592, Note_on_c, 0, 85, 100
2, 282620, Note_off_c, 0, 83, 100
2, 282624, Note_on_c, 0, 83, 100
2, 282624, Note_on_c, 0, 97, 110
2, 282652, Note_off_c, 0, 85, 100
2, 282656, Note_on_c, 0, 85, 100
2, 282684, Note_off_c, 0, 83, 100
2, 282688, Note_on_c, 0, 83, 100
2, 282716, Note_off_c, 0, 85, 100
2, 282720, Note_on_c, 0, 85, 100
2, 282748, Note_off_c, 0, 83, 100
2, 282752, Note_on_c, 0, 83, 100
2, 282780, Note_off_c, 0, 85, 100
2, 282784, Note_on_c, 0, 85, 100
2, 282812, Note_off_c, 0, 97, 100
2, 282812, Note_off_c, 0, 83, 100
2, 282816, Note_on_c, 0, 83, 100
2, 282844, Note_off_c, 0, 85, 100
2, 282848, Note_on_c, 0, 85, 100
2, 282876, Note_off_c, 0, 83, 100
2, 282880, Note_on_c, 0, 83, 100
2, 282908, Note_off_c, 0, 85, 100
2, 282912, Note_on_c, 0, 85, 100
2, 282940, Note_off_c, 0, 83, 100
2, 282944, Note_on_c, 0, 83, 100
2, 282972, Note_off_c, 0, 85, 100
2, 282976, Note_on_c, 0, 85, 100
2, 283004, Note_off_c, 0, 83, 100
2, 283008, Note_on_c, 0, 83, 100
2, 283008, Note_on_c, 0, 97, 110
2, 283036, Note_off_c, 0, 85, 100
2, 283040, Note_on_c, 0, 85, 100
2, 283068, Note_off_c, 0, 83, 100
2, 283072, Note_on_c, 0, 83, 100
2, 283100, Note_off_c, 0, 85, 100
2, 283104, Note_on_c, 0, 85, 100
2, 283132, Note_off_c, 0, 83, 100
2, 283136, Note_on_c, 0, 83, 100
2, 283164, Note_off_c, 0, 85, 100
2, 283168, Note_on_c, 0, 85, 100
2, 283196, Note_off_c, 0, 97, 100
2, 283196, Note_off_c, 0, 83, 100
2, 283200, Note_on_c, 0, 83, 100
2, 283228, Note_off_c, 0, 85, 100
2, 283232, Note_on_c, 0, 85, 100
2, 283260, Note_off_c, 0, 83, 100
2, 283264, Note_on_c, 0, 83, 100
2, 283292, Note_off_c, 0, 85, 100
2, 283296, Note_on_c, 0, 85, 100
2, 283324, Note_off_c, 0, 83, 100
2, 283328, Note_on_c, 0, 83, 100
2, 283356, Note_off_c, 0, 85, 100
2, 283360, Note_on_c, 0, 85, 100
2, 283388, Note_off_c, 0, 83, 100
2, 283392, Note_on_c, 0, 83, 100
2, 283392, Note_on_c, 0, 93, 110
2, 283420, Note_off_c, 0, 85, 100
2, 283424, Note_on_c, 0, 85, 100
2, 283452, Note_off_c, 0, 83, 100
2, 283456, Note_on_c, 0, 83, 100
2, 283484, Note_off_c, 0, 85, 100
2, 283488, Note_on_c, 0, 85, 100
2, 283516, Note_off_c, 0, 83, 100
2, 283520, Note_on_c, 0, 83, 100
2, 283548, Note_off_c, 0, 85, 100
2, 283552, Note_on_c, 0, 85, 100
2, 283580, Note_off_c, 0, 93, 100
2, 283580, Note_off_c, 0, 83, 100
2, 283584, Note_on_c, 0, 83, 100
2, 283612, Note_off_c, 0, 85, 100
2, 283616, Note_on_c, 0, 85, 100
2, 283644, Note_off_c, 0, 83, 100
2, 283648, Note_on_c, 0, 83, 100
2, 283676, Note_off_c, 0, 85, 100
2, 283680, Note_on_c, 0, 85, 100
2, 283708, Note_off_c, 0, 83, 100
2, 283712, Note_on_c, 0, 83, 100
2, 283740, Note_off_c, 0, 85, 100
2, 283744, Note_on_c, 0, 85, 100
2, 283772, Note_off_c, 0, 83, 100
2, 283776, Note_on_c, 0, 83, 100
2, 283776, Note_on_c, 0, 95, 110
2, 283804, Note_off_c, 0, 85, 100
2, 283808, Note_on_c, 0, 85, 100
2, 283836, Note_off_c, 0, 83, 100
2, 283840, Note_on_c, 0, 83, 100
2, 283868, Note_off_c, 0, 85, 100
2, 283872, Note_on_c, 0, 85, 100
2, 283900, Note_off_c, 0, 83, 100
2, 283904, Note_on_c, 0, 83, 100
2, 283932, Note_off_c, 0, 85, 100
2, 283936, Note_on_c, 0, 85, 100
2, 283964, Note_off_c, 0, 95, 100
2, 283964, Note_off_c, 0, 83, 100
2, 283968, Note_on_c, 0, 83, 100
2, 283996, Note_off_c, 0, 85, 100
2, 284000, Note_on_c, 0, 85, 100
2, 284028, Note_off_c, 0, 83, 100
2, 284032, Note_on_c, 0, 83, 100
2, 284060, Note_off_c, 0, 85, 100
2, 284064, Note_on_c, 0, 85, 100
2, 284092, Note_off_c, 0, 83, 100
2, 284096, Note_on_c, 0, 83, 100
2, 284124, Note_off_c, 0, 85, 100
2, 284128, Note_on_c, 0, 85, 100
2, 284156, Note_off_c, 0, 83, 100
2, 284160, Note_on_c, 0, 83, 100
2, 284160, Note_on_c, 0, 95, 110
2, 284188, Note_off_c, 0, 85, 100
2, 284192, Note_on_c, 0, 85, 100
2, 284220, Note_off_c, 0, 83, 100
2, 284224, Note_on_c, 0, 83, 100
2, 284252, Note_off_c, 0, 85, 100
2, 284256, Note_on_c, 0, 85, 100
2, 284284, Note_off_c, 0, 83, 100
2, 284288, Note_on_c, 0, 83, 100
2, 284316, Note_off_c, 0, 85, 100
2, 284320, Note_on_c, 0, 85, 100
2, 284348, Note_off_c, 0, 95, 100
2, 284348, Note_off_c, 0, 83, 100
2, 284352, Note_on_c, 0, 83, 100
2, 284380, Note_off_c, 0, 85, 100
2, 284384, Note_on_c, 0, 85, 100
2, 284412, Note_off_c, 0, 83, 100
2, 284416, Note_on_c, 0, 83, 100
2, 284444, Note_off_c, 0, 85, 100
2, 284448, Note_on_c, 0, 85, 100
2, 284476, Note_off_c, 0, 83, 100
2, 284480, Note_on_c, 0, 83, 100
2, 284508, Note_off_c, 0, 85, 100
2, 284512, Note_on_c, 0, 85, 100
2, 284540, Note_off_c, 0, 83, 100
2, 284544, Note_on_c, 0, 83, 100
2, 284544, Note_on_c, 0, 92, 110
2, 284572, Note_off_c, 0, 85, 100
2, 284576, Note_on_c, 0, 85, 100
2, 284604, Note_off_c, 0, 83, 100
2, 284608, Note_on_c, 0, 83, 100
2, 284636, Note_off_c, 0, 85, 100
2, 284640, Note_on_c, 0, 85, 100
2, 284668, Note_off_c, 0, 83, 100
2, 284672, Note_on_c, 0, 83, 100
2, 284700, Note_off_c, 0, 85, 100
2, 284704, Note_on_c, 0, 85, 100
2, 284732, Note_off_c, 0, 92, 100
2, 284732, Note_off_c, 0, 83, 100
2, 284736, Note_on_c, 0, 83, 100
2, 284764, Note_off_c, 0, 85, 100
2, 284768, Note_on_c, 0, 85, 100
2, 284796, Note_off_c, 0, 83, 100
2, 284800, Note_on_c, 0, 83, 100
2, 284828, Note_off_c, 0, 85, 100
2, 284832, Note_on_c, 0, 85, 100
2, 284860, Note_off_c, 0, 83, 100
2, 284864, Note_on_c, 0, 83, 100
2, 284892, Note_off_c, 0, 85, 100
2, 284896, Note_on_c, 0, 85, 100
2, 284924, Note_off_c, 0, 83, 100
2, 284928, Note_on_c, 0, 83, 100
2, 284928, Note_on_c, 0, 93, 110
2, 284956, Note_off_c, 0, 85, 100
2, 284960, Note_on_c, 0, 85, 100
2, 284988, Note_off_c, 0, 83, 100
2, 284992, Note_on_c, 0, 83, 100
2, 285020, Note_off_c, 0, 85, 100
2, 285024, Note_on_c, 0, 85, 100
2, 285052, Note_off_c, 0, 83, 100
2, 285056, Note_on_c, 0, 83, 100
2, 285084, Note_off_c, 0, 85, 100
2, 285088, Note_on_c, 0, 85, 100
2, 285116, Note_off_c, 0, 93, 100
2, 285116, Note_off_c, 0, 83, 100
2, 285120, Note_on_c, 0, 83, 100
2, 285148, Note_off_c, 0, 85, 100
2, 285152, Note_on_c, 0, 85, 100
2, 285180, Note_off_c, 0, 83, 100
2, 285184, Note_on_c, 0, 83, 100
2, 285212, Note_off_c, 0, 85, 100
2, 285216, Note_on_c, 0, 85, 100
2, 285244, Note_off_c, 0, 83, 100
2, 285248, Note_on_c, 0, 83, 100
2, 285276, Note_off_c, 0, 85, 100
2, 285280, Note_on_c, 0, 85, 100
2, 285308, Note_off_c, 0, 83, 100
2, 285312, Note_on_c, 0, 83, 100
2, 285312, Note_on_c, 0, 92, 110
2, 285340, Note_off_c, 0, 85, 100
2, 285344, Note_on_c, 0, 85, 100
2, 285372, Note_off_c, 0, 83, 100
2, 285376, Note_on_c, 0, 83, 100
2, 285404, Note_off_c, 0, 85, 100
2, 285408, Note_on_c, 0, 85, 100
2, 285436, Note_off_c, 0, 83, 100
2, 285440, Note_on_c, 0, 83, 100
2, 285468, Note_off_c, 0, 85, 100
2, 285472, Note_on_c, 0, 85, 100
2, 285500, Note_off_c, 0, 92, 100
2, 285500, Note_off_c, 0, 83, 100
2, 285504, Note_on_c, 0, 83, 100
2, 285532, Note_off_c, 0, 85, 100
2, 285536, Note_on_c, 0, 85, 100
2, 285564, Note_off_c, 0, 83, 100
2, 285568, Note_on_c, 0, 83, 100
2, 285596, Note_off_c, 0, 85, 100
2, 285600, Note_on_c, 0, 85, 100
2, 285628, Note_off_c, 0, 83, 100
2, 285632, Note_on_c, 0, 83, 100
2, 285660, Note_off_c, 0, 85, 100
2, 285664, Note_on_c, 0, 85, 100
2, 285692, Note_off_c, 0, 83, 100
2, 285696, Note_on_c, 0, 83, 100
2, 285696, Note_on_c, 0, 91, 110
2, 285724, Note_off_c, 0, 85, 100
2, 285728, Note_on_c, 0, 85, 100
2, 285756, Note_off_c, 0, 83, 100
2, 285760, Note_on_c, 0, 83, 100
2, 285788, Note_off_c, 0, 85, 100
2, 285792, Note_on_c, 0, 85, 100
2, 285820, Note_off_c, 0, 83, 100
2, 285824, Note_on_c, 0, 83, 100
2, 285852, Note_off_c, 0, 85, 100
2, 285856, Note_on_c, 0, 85, 100
2, 285884, Note_off_c, 0, 91, 100
2, 285884, Note_off_c, 0, 83, 100
2, 285888, Note_on_c, 0, 83, 100
2, 285916, Note_off_c, 0, 85, 100
2, 285920, Note_on_c, 0, 85, 100
2, 285948, Note_off_c, 0, 83, 100
2, 285952, Note_on_c, 0, 83, 100
2, 285980, Note_off_c, 0, 85, 100
2, 285984, Note_on_c, 0, 85, 100
2, 286012, Note_off_c, 0, 83, 100
2, 286016, Note_on_c, 0, 83, 100
2, 286044, Note_off_c, 0, 85, 100
2, 286048, Note_on_c, 0, 85, 100
2, 286076, Note_off_c, 0, 83, 100
2, 286080, Note_on_c, 0, 83, 100
2, 286080, Note_on_c, 0, 92, 110
2, 286108, Note_off_c, 0, 85, 100
2, 286112, Note_on_c, 0, 85, 100
2, 286140, Note_off_c, 0, 83, 100
2, 286144, Note_on_c, 0, 83, 100
2, 286172, Note_off_c, 0, 85, 100
2, 286176, Note_on_c, 0, 85, 100
2, 286204, Note_off_c, 0, 83, 100
2, 286208, Note_on_c, 0, 83, 100
2, 286236, Note_off_c, 0, 85, 100
2, 286240, Note_on_c, 0, 85, 100
2, 286268, Note_off_c, 0, 92, 100
2, 286268, Note_off_c, 0, 83, 100
2, 286272, Note_on_c, 0, 83, 100
2, 286300, Note_off_c, 0, 85, 100
2, 286304, Note_on_c, 0, 85, 100
2, 286332, Note_off_c, 0, 83, 100
2, 286336, Note_on_c, 0, 83, 100
2, 286364, Note_off_c, 0, 85, 100
2, 286368, Note_on_c, 0, 85, 100
2, 286396, Note_off_c, 0, 83, 100
2, 286400, Note_on_c, 0, 83, 100
2, 286428, Note_off_c, 0, 85, 100
2, 286432, Note_on_c, 0, 85, 100
2, 286460, Note_off_c, 0, 83, 100
2, 286464, Note_on_c, 0, 83, 100
2, 286464, Note_on_c, 0, 93, 110
2, 286492, Note_off_c, 0, 85, 100
2, 286496, Note_on_c, 0, 85, 100
2, 286524, Note_off_c, 0, 83, 100
2, 286528, Note_on_c, 0, 83, 100
2, 286556, Note_off_c, 0, 85, 100
2, 286560, Note_on_c, 0, 85, 100
2, 286588, Note_off_c, 0, 83, 100
2, 286592, Note_on_c, 0, 83, 100
2, 286620, Note_off_c, 0, 85, 100
2, 286624, Note_on_c, 0, 85, 100
2, 286652, Note_off_c, 0, 93, 100
2, 286652, Note_off_c, 0, 83, 100
2, 286656, Note_on_c, 0, 83, 100
2, 286684, Note_off_c, 0, 85, 100
2, 286688, Note_on_c, 0, 85, 100
2, 286716, Note_off_c, 0, 83, 100
2, 286720, Note_on_c, 0, 83, 100
2, 286748, Note_off_c, 0, 85, 100
2, 286752, Note_on_c, 0, 85, 100
2, 286780, Note_off_c, 0, 83, 100
2, 286784, Note_on_c, 0, 83, 100
2, 286812, Note_off_c, 0, 85, 100
2, 286816, Note_on_c, 0, 85, 100
2, 286844, Note_off_c, 0, 83, 100
2, 286848, Note_on_c, 0, 83, 100
2, 286848, Note_on_c, 0, 93, 110
2, 286876, Note_off_c, 0, 85, 100
2, 286880, Note_on_c, 0, 85, 100
2, 286908, Note_off_c, 0, 83, 100
2, 286912, Note_on_c, 0, 83, 100
2, 286940, Note_off_c, 0, 85, 100
2, 286944, Note_on_c, 0, 85, 100
2, 286972, Note_off_c, 0, 83, 100
2, 286976, Note_on_c, 0, 83, 100
2, 287004, Note_off_c, 0, 85, 100
2, 287008, Note_on_c, 0, 85, 100
2, 287036, Note_off_c, 0, 93, 100
2, 287036, Note_off_c, 0, 83, 100
2, 287040, Note_on_c, 0, 83, 100
2, 287068, Note_off_c, 0, 85, 100
2, 287072, Note_on_c, 0, 85, 100
2, 287100, Note_off_c, 0, 83, 100
2, 287104, Note_on_c, 0, 83, 100
2, 287132, Note_off_c, 0, 85, 100
2, 287136, Note_on_c, 0, 85, 100
2, 287164, Note_off_c, 0, 83, 100
2, 287168, Note_on_c, 0, 83, 100
2, 287196, Note_off_c, 0, 85, 100
2, 287200, Note_on_c, 0, 85, 100
2, 287228, Note_off_c, 0, 83, 100
2, 287232, Note_on_c, 0, 83, 100
2, 287232, Note_on_c, 0, 97, 110
2, 287260, Note_off_c, 0, 85, 100
2, 287264, Note_on_c, 0, 85, 100
2, 287292, Note_off_c, 0, 83, 100
2, 287296, Note_on_c, 0, 83, 100
2, 287324, Note_off_c, 0, 85, 100
2, 287328, Note_on_c, 0, 85, 100
2, 287356, Note_off_c, 0, 83, 100
2, 287360, Note_on_c, 0, 83, 100
2, 287388, Note_off_c, 0, 85, 100
2, 287392, Note_on_c, 0, 85, 100
2, 287420, Note_off_c, 0, 97, 100
2, 287420, Note_off_c, 0, 83, 100
2, 287424, Note_on_c, 0, 83, 100
2, 287452, Note_off_c, 0, 85, 100
2, 287456, Note_on_c, 0, 85, 100
2, 287484, Note_off_c, 0, 83, 100
2, 287488, Note_on_c, 0, 83, 100
2, 287516, Note_off_c, 0, 85, 100
2, 287520, Note_on_c, 0, 85, 100
2, 287548, Note_off_c, 0, 83, 100
2, 287552, Note_on_c, 0, 83, 100
2, 287580, Note_off_c, 0, 85, 100
2, 287584, Note_on_c, 0, 85, 100
2, 287612, Note_off_c, 0, 83, 100
2, 287616, Note_on_c, 0, 83, 100
2, 287616, Note_on_c, 0, 95, 110
2, 287644, Note_off_c, 0, 85, 100
2, 287648, Note_on_c, 0, 85, 100
2, 287676, Note_off_c, 0, 83, 100
2, 287680, Note_on_c, 0, 83, 100
2, 287708, Note_off_c, 0, 85, 100
2, 287712, Note_on_c, 0, 85, 100
2, 287740, Note_off_c, 0, 83, 100
2, 287744, Note_on_c, 0, 83, 100
2, 287772, Note_off_c, 0, 85, 100
2, 287776, Note_on_c, 0, 85, 100
2, 287804, Note_off_c, 0, 95, 100
2, 287804, Note_off_c, 0, 83, 100
2, 287808, Note_on_c, 0, 83, 100
2, 287836, Note_off_c, 0, 85, 100
2, 287840, Note_on_c, 0, 85, 100
2, 287868, Note_off_c, 0, 83, 100
2, 287872, Note_on_c, 0, 83, 100
2, 287900, Note_off_c, 0, 85, 100
2, 287904, Note_on_c, 0, 85, 100
2, 287932, Note_off_c, 0, 83, 100
2, 287936, Note_on_c, 0, 83, 100
2, 287964, Note_off_c, 0, 85, 100
2, 287968, Note_on_c, 0, 85, 100
2, 287996, Note_off_c, 0, 83, 100
2, 288000, Note_on_c, 0, 83, 100
2, 288000, Note_on_c, 0, 93, 110
2, 288028, Note_off_c, 0, 85, 100
2, 288032, Note_on_c, 0, 85, 100
2, 288060, Note_off_c, 0, 83, 100
2, 288064, Note_on_c, 0, 83, 100
2, 288092, Note_off_c, 0, 85, 100
2, 288096, Note_on_c, 0, 85, 100
2, 288124, Note_off_c, 0, 83, 100
2, 288128, Note_on_c, 0, 83, 100
2, 288156, Note_off_c, 0, 85, 100
2, 288160, Note_on_c, 0, 85, 100
2, 288188, Note_off_c, 0, 93, 100
2, 288188, Note_off_c, 0, 83, 100
2, 288192, Note_on_c, 0, 83, 100
2, 288220, Note_off_c, 0, 85, 100
2, 288224, Note_on_c, 0, 85, 100
2, 288252, Note_off_c, 0, 83, 100
2, 288256, Note_on_c, 0, 83, 100
2, 288284, Note_off_c, 0, 85, 100
2, 288288, Note_on_c, 0, 85, 100
2, 288316, Note_off_c, 0, 83, 100
2, 288320, Note_on_c, 0, 83, 100
2, 288348, Note_off_c, 0, 85, 100
2, 288352, Note_on_c, 0, 85, 100
2, 288380, Note_off_c, 0, 83, 100
2, 288384, Note_on_c, 0, 83, 100
2, 288384, Note_on_c, 0, 92, 110
2, 288412, Note_off_c, 0, 85, 100
2, 288416, Note_on_c, 0, 85, 100
2, 288444, Note_off_c, 0, 83, 100
2, 288448, Note_on_c, 0, 83, 100
2, 288476, Note_off_c, 0, 85, 100
2, 288480, Note_on_c, 0, 85, 100
2, 288508, Note_off_c, 0, 83, 100
2, 288512, Note_on_c, 0, 83, 100
2, 288540, Note_off_c, 0, 85, 100
2, 288544, Note_on_c, 0, 85, 100
2, 288572, Note_off_c, 0, 92, 100
2, 288572, Note_off_c, 0, 83, 100
2, 288576, Note_on_c, 0, 83, 100
2, 288604, Note_off_c, 0, 85, 100
2, 288608, Note_on_c, 0, 85, 100
2, 288636, Note_off_c, 0, 83, 100
2, 288640, Note_on_c, 0, 83, 100
2, 288668, Note_off_c, 0, 85, 100
2, 288672, Note_on_c, 0, 85, 100
2, 288700, Note_off_c, 0, 83, 100
2, 288704, Note_on_c, 0, 83, 100
2, 288732, Note_off_c, 0, 85, 100
2, 288736, Note_on_c, 0, 85, 100
2, 288764, Note_off_c, 0, 83, 100
2, 288768, Note_on_c, 0, 83, 100
2, 288768, Note_on_c, 0, 92, 110
2, 288796, Note_off_c, 0, 85, 100
2, 288800, Note_on_c, 0, 85, 100
2, 288828, Note_off_c, 0, 83, 100
2, 288832, Note_on_c, 0, 83, 100
2, 288860, Note_off_c, 0, 85, 100
2, 288864, Note_on_c, 0, 85, 100
2, 288892, Note_off_c, 0, 83, 100
2, 288896, Note_on_c, 0, 83, 100
2, 288924, Note_off_c, 0, 85, 100
2, 288928, Note_on_c, 0, 85, 100
2, 288956, Note_off_c, 0, 92, 100
2, 288956, Note_off_c, 0, 83, 100
2, 288960, Note_on_c, 0, 83, 100
2, 288988, Note_off_c, 0, 85, 100
2, 288992, Note_on_c, 0, 85, 100
2, 289020, Note_off_c, 0, 83, 100
2, 289024, Note_on_c, 0, 83, 100
2, 289052, Note_off_c, 0, 85, 100
2, 289056, Note_on_c, 0, 85, 100
2, 289084, Note_off_c, 0, 83, 100
2, 289088, Note_on_c, 0, 83, 100
2, 289116, Note_off_c, 0, 85, 100
2, 289120, Note_on_c, 0, 85, 100
2, 289148, Note_off_c, 0, 83, 100
2, 289152, Note_on_c, 0, 83, 100
2, 289152, Note_on_c, 0, 95, 110
2, 289180, Note_off_c, 0, 85, 100
2, 289184, Note_on_c, 0, 85, 100
2, 289212, Note_off_c, 0, 83, 100
2, 289216, Note_on_c, 0, 83, 100
2, 289244, Note_off_c, 0, 85, 100
2, 289248, Note_on_c, 0, 85, 100
2, 289276, Note_off_c, 0, 83, 100
2, 289280, Note_on_c, 0, 83, 100
2, 289308, Note_off_c, 0, 85, 100
2, 289312, Note_on_c, 0, 85, 100
2, 289340, Note_off_c, 0, 95, 100
2, 289340, Note_off_c, 0, 83, 100
2, 289344, Note_on_c, 0, 83, 100
2, 289372, Note_off_c, 0, 85, 100
2, 289376, Note_on_c, 0, 85, 100
2, 289404, Note_off_c, 0, 83, 100
2, 289408, Note_on_c, 0, 83, 100
2, 289436, Note_off_c, 0, 85, 100
2, 289440, Note_on_c, 0, 85, 100
2, 289468, Note_off_c, 0, 83, 100
2, 289472, Note_on_c, 0, 83, 100
2, 289500, Note_off_c, 0, 85, 100
2, 289504, Note_on_c, 0, 85, 100
2, 289532, Note_off_c, 0, 83, 100
2, 289536, Note_on_c, 0, 83, 100
2, 289536, Note_on_c, 0, 93, 110
2, 289564, Note_off_c, 0, 85, 100
2, 289568, Note_on_c, 0, 85, 100
2, 289596, Note_off_c, 0, 83, 100
2, 289600, Note_on_c, 0, 83, 100
2, 289628, Note_off_c, 0, 85, 100
2, 289632, Note_on_c, 0, 85, 100
2, 289660, Note_off_c, 0, 83, 100
2, 289664, Note_on_c, 0, 83, 100
2, 289692, Note_off_c, 0, 85, 100
2, 289696, Note_on_c, 0, 85, 100
2, 289724, Note_off_c, 0, 93, 100
2, 289724, Note_off_c, 0, 83, 100
2, 289728, Note_on_c, 0, 83, 100
2, 289756, Note_off_c, 0, 85, 100
2, 289760, Note_on_c, 0, 85, 100
2, 289788, Note_off_c, 0, 83, 100
2, 289792, Note_on_c, 0, 83, 100
2, 289820, Note_off_c, 0, 85, 100
2, 289824, Note_on_c, 0, 85, 100
2, 289852, Note_off_c, 0, 83, 100
2, 289856, Note_on_c, 0, 83, 100
2, 289884, Note_off_c, 0, 85, 100
2, 289888, Note_on_c, 0, 85, 100
2, 289916, Note_off_c, 0, 83, 100
2, 289920, Note_on_c, 0, 83, 100
2, 289920, Note_on_c, 0, 93, 110
2, 289948, Note_off_c, 0, 85, 100
2, 289952, Note_on_c, 0, 85, 100
2, 289980, Note_off_c, 0, 83, 100
2, 289984, Note_on_c, 0, 83, 100
2, 290012, Note_off_c, 0, 85, 100
2, 290016, Note_on_c, 0, 85, 100
2, 290044, Note_off_c, 0, 83, 100
2, 290048, Note_on_c, 0, 83, 100
2, 290076, Note_off_c, 0, 85, 100
2, 290080, Note_on_c, 0, 85, 100
2, 290108, Note_off_c, 0, 93, 100
2, 290108, Note_off_c, 0, 83, 100
2, 290112, Note_on_c, 0, 83, 100
2, 290140, Note_off_c, 0, 85, 100
2, 290144, Note_on_c, 0, 85, 100
2, 290172, Note_off_c, 0, 83, 100
2, 290176, Note_on_c, 0, 83, 100
2, 290204, Note_off_c, 0, 85, 100
2, 290208, Note_on_c, 0, 85, 100
2, 290236, Note_off_c, 0, 83, 100
2, 290240, Note_on_c, 0, 83, 100
2, 290268, Note_off_c, 0, 85, 100
2, 290272, Note_on_c, 0, 85, 100
2, 290300, Note_off_c, 0, 83, 100
2, 290304, Note_on_c, 0, 83, 100
2, 290304, Note_on_c, 0, 90, 110
2, 290332, Note_off_c, 0, 85, 100
2, 290336, Note_on_c, 0, 85, 100
2, 290364, Note_off_c, 0, 83, 100
2, 290368, Note_on_c, 0, 83, 100
2, 290396, Note_off_c, 0, 85, 100
2, 290400, Note_on_c, 0, 85, 100
2, 290428, Note_off_c, 0, 83, 100
2, 290432, Note_on_c, 0, 83, 100
2, 290460, Note_off_c, 0, 85, 100
2, 290464, Note_on_c, 0, 85, 100
2, 290492, Note_off_c, 0, 90, 100
2, 290492, Note_off_c, 0, 83, 100
2, 290496, Note_on_c, 0, 83, 100
2, 290524, Note_off_c, 0, 85, 100
2, 290528, Note_on_c, 0, 85, 100
2, 290556, Note_off_c, 0, 83, 100
2, 290560, Note_on_c, 0, 83, 100
2, 290588, Note_off_c, 0, 85, 100
2, 290592, Note_on_c, 0, 85, 100
2, 290620, Note_off_c, 0, 83, 100
2, 290624, Note_on_c, 0, 83, 100
2, 290652, Note_off_c, 0, 85, 100
2, 290656, Note_on_c, 0, 85, 100
2, 290684, Note_off_c, 0, 83, 100
2, 290688, Note_on_c, 0, 83, 100
2, 290688, Note_on_c, 0, 87, 110
2, 290716, Note_off_c, 0, 85, 100
2, 290720, Note_on_c, 0, 85, 100
2, 290748, Note_off_c, 0, 83, 100
2, 290752, Note_on_c, 0, 83, 100
2, 290780, Note_off_c, 0, 85, 100
2, 290784, Note_on_c, 0, 85, 100
2, 290812, Note_off_c, 0, 83, 100
2, 290816, Note_on_c, 0, 83, 100
2, 290844, Note_off_c, 0, 85, 100
2, 290848, Note_on_c, 0, 85, 100
2, 290876, Note_off_c, 0, 87, 100
2, 290876, Note_off_c, 0, 83, 100
2, 290880, Note_on_c, 0, 83, 100
2, 290908, Note_off_c, 0, 85, 100
2, 290912, Note_on_c, 0, 85, 100
2, 290940, Note_off_c, 0, 83, 100
2, 290944, Note_on_c, 0, 83, 100
2, 290972, Note_off_c, 0, 85, 100
2, 290976, Note_on_c, 0, 85, 99
2, 291004, Note_off_c, 0, 83, 100
2, 291008, Note_on_c, 0, 83, 99
2, 291036, Note_off_c, 0, 85, 100
2, 291040, Note_on_c, 0, 85, 99
2, 291068, Note_off_c, 0, 83, 100
2, 291072, Note_on_c, 0, 83, 98
2, 291072, Note_on_c, 0, 81, 111
2, 291100, Note_off_c, 0, 85, 100
2, 291104, Note_on_c, 0, 85, 98
2, 291132, Note_off_c, 0, 83, 100
2, 291136, Note_on_c, 0, 83, 98
2, 291164, Note_off_c, 0, 85, 100
2, 291168, Note_on_c, 0, 85, 97
2, 291196, Note_off_c, 0, 83, 100
2, 291200, Note_on_c, 0, 83, 97
2, 291228, Note_off_c, 0, 85, 100
2, 291232, Note_on_c, 0, 85, 97
2, 291260, Note_off_c, 0, 81, 100
2, 291260, Note_off_c, 0, 83, 100
2, 291264, Note_on_c, 0, 83, 96
2, 291292, Note_off_c, 0, 85, 100
2, 291296, Note_on_c, 0, 85, 96
2, 291324, Note_off_c, 0, 83, 100
2, 291328, Note_on_c, 0, 83, 96
2, 291356, Note_off_c, 0, 85, 100
2, 291360, Note_on_c, 0, 85, 95
2, 291388, Note_off_c, 0, 83, 100
2, 291392, Note_on_c, 0, 83, 95
2, 291420, Note_off_c, 0, 85, 100
2, 291424, Note_on_c, 0, 85, 95
2, 291452, Note_off_c, 0, 83, 100
2, 291456, Note_on_c, 0, 83, 94
2, 291456, Note_on_c, 0, 78, 103
2, 291484, Note_off_c, 0, 85, 100
2, 291488, Note_on_c, 0, 85, 94
2, 291516, Note_off_c, 0, 83, 100
2, 291520, Note_on_c, 0, 83, 94
2, 291548, Note_off_c, 0, 85, 100
2, 291552, Note_on_c, 0, 85, 93
2, 291580, Note_off_c, 0, 83, 100
2, 291584, Note_on_c, 0, 83, 93
2, 291612, Note_off_c, 0, 85, 100
2, 291616, Note_on_c, 0, 85, 93
2, 291644, Note_off_c, 0, 78, 100
2, 291644, Note_off_c, 0, 83, 100
2, 291648, Note_on_c, 0, 83, 92
2, 291676, Note_off_c, 0, 85, 100
2, 291680, Note_on_c, 0, 85, 92
2, 291708, Note_off_c, 0, 83, 100
2, 291712, Note_on_c, 0, 83, 92
2, 291740, Note_off_c, 0, 85, 100
2, 291744, Note_on_c, 0, 85, 91
2, 291772, Note_off_c, 0, 83, 100
2, 291776, Note_on_c, 0, 83, 91
2, 291804, Note_off_c, 0, 85, 100
2, 291808, Note_on_c, 0, 85, 91
2, 291836, Note_off_c, 0, 83, 100
2, 291840, Note_on_c, 0, 83, 90
2, 291840, Note_on_c, 0, 75, 101
2, 291868, Note_off_c, 0, 85, 100
2, 291872, Note_on_c, 0, 85, 90
2, 291900, Note_off_c, 0, 83, 100
2, 291904, Note_on_c, 0, 83, 90
2, 291932, Note_off_c, 0, 85, 100
2, 291936, Note_on_c, 0, 85, 87
2, 291964, Note_off_c, 0, 83, 100
2, 291968, Note_on_c, 0, 83, 84
2, 291996, Note_off_c, 0, 85, 100
2, 292000, Note_on_c, 0, 85, 80
2, 292028, Note_off_c, 0, 75, 100
2, 292028, Note_off_c, 0, 83, 100
2, 292032, Note_on_c, 0, 71, 89
2, 292060, Note_off_c, 0, 85, 100
2, 292064, Note_on_c, 0, 73, 88
2, 292092, Note_off_c, 0, 71, 100
2, 292096, Note_on_c, 0, 71, 88
2, 292124, Note_off_c, 0, 73, 100
2, 292128, Note_on_c, 0, 73, 88
2, 292156, Note_off_c, 0, 71, 100
2, 292160, Note_on_c, 0, 71, 87
2, 292188, Note_off_c, 0, 73, 100
2, 292192, Note_on_c, 0, 73, 87
2, 292220, Note_off_c, 0, 71, 100
2, 292224, Note_on_c, 0, 71, 87
2, 292224, Note_on_c, 0, 81, 94
2, 292252, Note_off_c, 0, 73, 100
2, 292256, Note_on_c, 0, 73, 86
2, 292284, Note_off_c, 0, 71, 100
2, 292288, Note_on_c, 0, 71, 86
2, 292316, Note_off_c, 0, 73, 100
2, 292320, Note_on_c, 0, 73, 86
2, 292348, Note_off_c, 0, 71, 100
2, 292352, Note_on_c, 0, 71, 85
2, 292380, Note_off_c, 0, 73, 100
2, 292384, Note_on_c, 0, 73, 85
2, 292412, Note_off_c, 0, 81, 100
2, 292412, Note_off_c, 0, 71, 100
2, 292416, Note_on_c, 0, 71, 85
2, 292444, Note_off_c, 0, 73, 100
2, 292448, Note_on_c, 0, 73, 84
2, 292476, Note_off_c, 0, 71, 100
2, 292480, Note_on_c, 0, 71, 84
2, 292508, Note_off_c, 0, 73, 100
2, 292512, Note_on_c, 0, 73, 84
2, 292540, Note_off_c, 0, 71, 100
2, 292544, Note_on_c, 0, 71, 83
2, 292572, Note_off_c, 0, 73, 100
2, 292576, Note_on_c, 0, 73, 83
2, 292604, Note_off_c, 0, 71, 100
2, 292608, Note_on_c, 0, 71, 83
2, 292608, Note_on_c, 0, 78, 90
2, 292636, Note_off_c, 0, 73, 100
2, 292640, Note_on_c, 0, 73, 82
2, 292668, Note_off_c, 0, 71, 100
2, 292672, Note_on_c, 0, 71, 82
2, 292700, Note_off_c, 0, 73, 100
2, 292704, Note_on_c, 0, 73, 82
2, 292732, Note_off_c, 0, 71, 100
2, 292736, Note_on_c, 0, 71, 81
2, 292764, Note_off_c, 0, 73, 100
2, 292768, Note_on_c, 0, 73, 81
2, 292796, Note_off_c, 0, 78, 100
2, 292796, Note_off_c, 0, 71, 100
2, 292800, Note_on_c, 0, 71, 81
2, 292828, Note_off_c, 0, 73, 100
2, 292832, Note_on_c, 0, 73, 80
2, 292860, Note_off_c, 0, 71, 100
2, 292864, Note_on_c, 0, 71, 80
2, 292892, Note_off_c, 0, 73, 100
2, 292896, Note_on_c, 0, 73, 80
2, 292924, Note_off_c, 0, 71, 100
2, 292928, Note_on_c, 0, 71, 79
2, 292956, Note_off_c, 0, 73, 100
2, 292960, Note_on_c, 0, 73, 79
2, 292988, Note_off_c, 0, 71, 100
2, 292992, Note_on_c, 0, 71, 79
2, 292992, Note_on_c, 0, 75, 84
2, 293020, Note_off_c, 0, 73, 100
2, 293024, Note_on_c, 0, 73, 78
2, 293052, Note_off_c, 0, 71, 100
2, 293056, Note_on_c, 0, 71, 78
2, 293084, Note_off_c, 0, 73, 100
2, 293088, Note_on_c, 0, 73, 78
2, 293116, Note_off_c, 0, 71, 100
2, 293120, Note_on_c, 0, 71, 78
2, 293148, Note_off_c, 0, 73, 100
2, 293152, Note_on_c, 0, 73, 77
2, 293180, Note_off_c, 0, 75, 100
2, 293180, Note_off_c, 0, 71, 100
2, 293184, Note_on_c, 0, 71, 77
2, 293212, Note_off_c, 0, 73, 100
2, 293216, Note_on_c, 0, 73, 77
2, 293244, Note_off_c, 0, 71, 100
2, 293248, Note_on_c, 0, 71, 76
2, 293276, Note_off_c, 0, 73, 100
2, 293280, Note_on_c, 0, 73, 76
2, 293308, Note_off_c, 0, 71, 100
2, 293312, Note_on_c, 0, 71, 76
2, 293340, Note_off_c, 0, 73, 100
2, 293344, Note_on_c, 0, 73, 75
2, 293372, Note_off_c, 0, 71, 100
2, 293376, Note_on_c, 0, 71, 75
2, 293376, Note_on_c, 0, 69, 80
2, 293404, Note_off_c, 0, 73, 100
2, 293408, Note_on_c, 0, 73, 75
2, 293436, Note_off_c, 0, 71, 100
2, 293440, Note_on_c, 0, 71, 74
2, 293468, Note_off_c, 0, 73, 100
2, 293472, Note_on_c, 0, 73, 74
2, 293500, Note_off_c, 0, 71, 100
2, 293504, Note_on_c, 0, 71, 74
2, 293532, Note_off_c, 0, 73, 100
2, 293536, Note_on_c, 0, 73, 73
2, 293564, Note_off_c, 0, 69, 100
2, 293564, Note_off_c, 0, 71, 100
2, 293568, Note_on_c, 0, 71, 73
2, 293596, Note_off_c, 0, 73, 100
2, 293600, Note_on_c, 0, 73, 73
2, 293628, Note_off_c, 0, 71, 100
2, 293632, Note_on_c, 0, 71, 72
2, 293660, Note_off_c, 0, 73, 100
2, 293664, Note_on_c, 0, 73, 72
2, 293692, Note_off_c, 0, 71, 100
2, 293696, Note_on_c, 0, 71, 72
2, 293724, Note_off_c, 0, 73, 100
2, 293728, Note_on_c, 0, 73, 71
2, 293756, Note_off_c, 0, 71, 100
2, 293760, Note_on_c, 0, 71, 71
2, 293760, Note_on_c, 0, 66, 77
2, 293788, Note_off_c, 0, 73, 100
2, 293792, Note_on_c, 0, 73, 71
2, 293820, Note_off_c, 0, 71, 100
2, 293824, Note_on_c, 0, 71, 70
2, 293852, Note_off_c, 0, 73, 100
2, 293856, Note_on_c, 0, 73, 70
2, 293884, Note_off_c, 0, 71, 100
2, 293888, Note_on_c, 0, 71, 70
2, 293916, Note_off_c, 0, 73, 100
2, 293920, Note_on_c, 0, 73, 69
2, 293948, Note_off_c, 0, 66, 100
2, 293948, Note_off_c, 0, 71, 100
2, 293952, Note_on_c, 0, 71, 69
2, 293980, Note_off_c, 0, 73, 100
2, 293984, Note_on_c, 0, 73, 69
2, 294012, Note_off_c, 0, 71, 100
2, 294016, Note_on_c, 0, 71, 68
2, 294044, Note_off_c, 0, 73, 100
2, 294048, Note_on_c, 0, 73, 68
2, 294076, Note_off_c, 0, 71, 100
2, 294080, Note_on_c, 0, 71, 68
2, 294108, Note_off_c, 0, 73, 100
2, 294112, Note_on_c, 0, 73, 67
2, 294140, Note_off_c, 0, 71, 100
2, 294144, Note_on_c, 0, 71, 67
2, 294144, Note_on_c, 0, 63, 77
2, 294172, Note_off_c, 0, 73, 100
2, 294176, Note_on_c, 0, 73, 67
2, 294204, Note_off_c, 0, 71, 100
2, 294208, Note_on_c, 0, 71, 67
2, 294236, Note_off_c, 0, 73, 100
2, 294240, Note_on_c, 0, 73, 66
2, 294268, Note_off_c, 0, 71, 100
2, 294272, Note_on_c, 0, 70, 66
2, 294300, Note_off_c, 0, 73, 100
2, 294304, Note_on_c, 0, 71, 66
2, 294332, Note_off_c, 0, 63, 100
2, 294332, Note_off_c, 0, 70, 100
2, 294332, Note_off_c, 0, 71, 100
2, 294336, Note_on_c, 0, 59, 80
2, 294336, Note_on_c, 0, 68, 80
2, 294716, Note_off_c, 0, 59, 100
2, 294716, Note_off_c, 0, 68, 100
2, 294720, Note_on_c, 0, 64, 80
2, 294720, Note_on_c, 0, 59, 80
2, 295100, Note_off_c, 0, 59, 100
2, 295104, Note_on_c, 0, 61, 80
2, 295292, Note_off_c, 0, 64, 100
2, 295296, Note_on_c, 0, 66, 80
2, 295484, Note_off_c, 0, 61, 100
2, 295484, Note_off_c, 0, 66, 100
2, 295488, Note_on_c, 0, 54, 80
2, 295488, Note_on_c, 0, 63, 80
2, 295868, Note_off_c, 0, 54, 100
2, 295868, Note_off_c, 0, 63, 100
2, 295872, Note_on_c, 0, 54, 80
2, 295872, Note_on_c, 0, 57, 80
2, 295872, Note_on_c, 0, 59, 80
2, 296636, Note_off_c, 0, 54, 100
2, 296636, Note_off_c, 0, 57, 100
2, 296636, Note_off_c, 0, 59, 100
2, 296640, Note_on_c, 0, 56, 80
2, 296640, Note_on_c, 0, 59, 80
2, 296640, Note_on_c, 0, 68, 80
2, 297020, Note_off_c, 0, 56, 100
2, 297020, Note_off_c, 0, 59, 100
2, 297020, Note_off_c, 0, 68, 100
2, 297024, Note_on_c, 0, 59, 80
2, 297024, Note_on_c, 0, 64, 80
2, 297404, Note_off_c, 0, 59, 100
2, 297408, Note_on_c, 0, 61, 80
2, 297596, Note_off_c, 0, 64, 100
2, 297600, Note_on_c, 0, 66, 80
2, 297788, Note_off_c, 0, 61, 100
2, 297788, Note_off_c, 0, 66, 100
2, 297792, Note_on_c, 0, 63, 80
2, 297792, Note_on_c, 0, 66, 80
2, 298172, Note_off_c, 0, 63, 100
2, 298172, Note_off_c, 0, 66, 100
2, 298176, Note_on_c, 0, 70, 80
2, 298176, Note_on_c, 0, 61, 80
2, 298176, Note_on_c, 0, 64, 80
2, 298556, Note_off_c, 0, 70, 100
2, 298556, Note_off_c, 0, 61, 100
2, 298556, Note_off_c, 0, 64, 100
2, 298560, Note_on_c, 0, 63, 80
2, 298560, Note_on_c, 0, 66, 80
2, 298560, Note_on_c, 0, 71, 80
2, 298940, Note_off_c, 0, 63, 100
2, 298940, Note_off_c, 0, 66, 100
2, 298940, Note_off_c, 0, 71, 100
2, 298944, Note_on_c, 0, 59, 80
2, 298964, Note_off_c, 0, 59, 100
2, 298968, Note_on_c, 0, 64, 80
2, 298988, Note_off_c, 0, 64, 100
2, 298992, Note_on_c, 0, 68, 80
2, 299012, Note_off_c, 0, 68, 100
2, 299016, Note_on_c, 0, 71, 80
2, 299324, Note_off_c, 0, 71, 100
2, 299328, Note_on_c, 0, 59, 80
2, 299328, Note_on_c, 0, 64, 80
2, 299708, Note_off_c, 0, 59, 100
2, 299712, Note_on_c, 0, 61, 80
2, 299900, Note_off_c, 0, 64, 100
2, 299904, Note_on_c, 0, 68, 80
2, 299996, Note_off_c, 0, 68, 100
2, 300000, Note_on_c, 0, 66, 80
2, 300092, Note_off_c, 0, 61, 100
2, 300092, Note_off_c, 0, 66, 100
2, 300096, Note_on_c, 0, 63, 80
2, 300476, Note_off_c, 0, 63, 100
2, 300480, Note_on_c, 0, 59, 80
2, 300720, Note_on_c, 0, 57, 80
2, 300764, Note_off_c, 0, 57, 100
2, 300768, Note_on_c, 0, 59, 80
2, 300812, Note_off_c, 0, 59, 100
2, 300816, Note_on_c, 0, 57, 80
2, 300836, Note_off_c, 0, 57, 100
2, 300840, Note_on_c, 0, 56, 80
2, 300860, Note_off_c, 0, 59, 100
2, 300860, Note_off_c, 0, 56, 100
2, 300864, Note_on_c, 0, 57, 80
2, 301244, Note_off_c, 0, 57, 100
2, 301248, Note_on_c, 0, 56, 80
2, 301628, Note_off_c, 0, 56, 100
2, 301632, Note_on_c, 0, 64, 80
2, 301632, Note_on_c, 0, 52, 80
2, 302204, Note_off_c, 0, 64, 100
2, 302208, Note_on_c, 0, 58, 80
2, 302396, Note_off_c, 0, 52, 100
2, 302396, Note_off_c, 0, 58, 100
2, 302400, Note_on_c, 0, 55, 80
2, 302400, Note_on_c, 0, 58, 80
2, 302780, Note_off_c, 0, 55, 100
2, 302784, Note_on_c, 0, 52, 80
2, 303164, Note_off_c, 0, 58, 100
2, 303164, Note_off_c, 0, 52, 100
2, 303168, Note_on_c, 0, 59, 80
2, 303168, Note_on_c, 0, 51, 80
2, 303548, Note_off_c, 0, 59, 100
2, 303548, Note_off_c, 0, 51, 100
2, 303552, Note_on_c, 0, 71, 80
2, 303932, Note_off_c, 0, 71, 100
2, 303936, Note_on_c, 0, 66, 80
2, 303936, Note_on_c, 0, 71, 80
2, 304316, Note_off_c, 0, 66, 100
2, 304320, Note_on_c, 0, 68, 80
2, 304508, Note_off_c, 0, 71, 100
2, 304512, Note_on_c, 0, 73, 80
2, 304700, Note_off_c, 0, 68, 100
2, 304700, Note_off_c, 0, 73, 100
2, 304704, Note_on_c, 0, 71, 80
2, 305084, Note_off_c, 0, 71, 100
2, 305088, Note_on_c, 0, 69, 80
2, 305088, Note_on_c, 0, 64, 80
2, 305468, Note_off_c, 0, 64, 100
2, 305472, Note_on_c, 0, 66, 80
2, 305660, Note_off_c, 0, 69, 100
2, 305664, Note_on_c, 0, 71, 80
2, 305852, Note_off_c, 0, 66, 100
2, 305852, Note_off_c, 0, 71, 100
2, 305856, Note_on_c, 0, 69, 80
2, 306236, Note_off_c, 0, 69, 100
2, 306240, Note_on_c, 0, 68, 80
2, 306240, Note_on_c, 0, 64, 80
2, 306620, Note_off_c, 0, 64, 100
2, 306624, Note_on_c, 0, 64, 80
2, 306812, Note_off_c, 0, 68, 100
2, 306816, Note_on_c, 0, 76, 80
2, 307004, Note_off_c, 0, 64, 100
2, 307004, Note_off_c, 0, 76, 100
2, 307008, Note_on_c, 0, 63, 80
2, 307008, Note_on_c, 0, 68, 80
2, 307388, Note_off_c, 0, 63, 100
2, 307388, Note_off_c, 0, 68, 100
2, 307392, Note_on_c, 0, 61, 80
2, 307392, Note_on_c, 0, 67, 80
2, 307772, Note_off_c, 0, 61, 100
2, 307772, Note_off_c, 0, 67, 100
2, 307776, Note_on_c, 0, 59, 80
2, 307776, Note_on_c, 0, 68, 80
2, 308156, Note_off_c, 0, 59, 100
2, 308156, Note_off_c, 0, 68, 100
2, 308160, Note_on_c, 0, 57, 80
2, 308160, Note_on_c, 0, 61, 80
2, 308160, Note_on_c, 0, 66, 80
2, 308160, Note_on_c, 0, 69, 80
2, 308540, Note_off_c, 0, 57, 100
2, 308540, Note_off_c, 0, 61, 100
2, 308540, Note_off_c, 0, 66, 100
2, 308540, Note_off_c, 0, 69, 100
2, 308544, Note_on_c, 0, 69, 85
2, 309116, Note_off_c, 0, 69, 100
2, 309120, Note_on_c, 0, 73, 94
2, 309308, Note_off_c, 0, 73, 100
2, 309408, Note_on_c, 0, 63, 98
2, 309436, Note_off_c, 0, 63, 100
2, 309440, Note_on_c, 0, 66, 98
2, 309468, Note_off_c, 0, 66, 100
2, 309472, Note_on_c, 0, 69, 99
2, 309500, Note_off_c, 0, 69, 100
2, 309504, Note_on_c, 0, 73, 99
2, 309884, Note_off_c, 0, 73, 100
2, 309888, Note_on_c, 0, 71, 95
2, 310076, Note_off_c, 0, 71, 100
2, 310080, Note_on_c, 0, 66, 88
2, 310080, Note_on_c, 0, 69, 88
2, 310268, Note_off_c, 0, 66, 100
2, 310268, Note_off_c, 0, 69, 100
2, 310272, Note_on_c, 0, 64, 81
2, 310272, Note_on_c, 0, 68, 81
2, 310460, Note_off_c, 0, 64, 100
2, 310460, Note_off_c, 0, 68, 100
2, 310464, Note_on_c, 0, 64, 80
2, 310464, Note_on_c, 0, 68, 80
2, 310748, Note_off_c, 0, 68, 100
2, 310752, Note_on_c, 0, 69, 80
2, 310844, Note_off_c, 0, 64, 100
2, 310844, Note_off_c, 0, 69, 100
2, 310848, Note_on_c, 0, 64, 80
2, 310848, Note_on_c, 0, 71, 80
2, 311228, Note_off_c, 0, 64, 100
2, 311232, Note_on_c, 0, 63, 80
2, 311420, Note_off_c, 0, 71, 100
2, 311424, Note_on_c, 0, 69, 80
2, 311612, Note_off_c, 0, 63, 100
2, 311612, Note_off_c, 0, 69, 100
2, 311616, Note_on_c, 0, 59, 80
2, 311616, Note_on_c, 0, 63, 80
2, 311616, Note_on_c, 0, 66, 80
2, 311616, Note_on_c, 0, 69, 80
2, 312380, Note_off_c, 0, 59, 100
2, 312380, Note_off_c, 0, 63, 100
2, 312380, Note_off_c, 0, 66, 100
2, 312380, Note_off_c, 0, 69, 100
2, 312384, Note_on_c, 0, 59, 80
2, 312384, Note_on_c, 0, 64, 80
2, 312384, Note_on_c, 0, 68, 80
2, 313148, Note_off_c, 0, 59, 64
2, 313148, Note_off_c, 0, 64, 64
2, 313148, Note_off_c, 0, 68, 64
2, 313920, Control_c, 0, 7, 0
2, 314304, Note_on_c, 0, 64, 1
2, 314684, Note_off_c, 0, 64, 100
2, 314684, End_track
3, 0, Start_track
3, 0, Title_t, "Left"
3, 0, Control_c, 1, 0, 0
3, 0, Program_c, 1, 0
3, 0, Control_c, 1, 7, 100
3, 0, Control_c, 1, 10, 55
3, 0, Control_c, 1, 91, 127
3, 0, Key_signature, 4, "major"
3, 0, Note_on_c, 1, 40, 80
3, 0, Control_c, 1, 0, 0
3, 380, Note_off_c, 1, 40, 100
3, 384, Note_on_c, 1, 44, 80
3, 764, Note_off_c, 1, 44, 100
3, 768, Note_on_c, 1, 45, 80
3, 1148, Note_off_c, 1, 45, 100
3, 1152, Note_on_c, 1, 47, 80
3, 1532, Note_off_c, 1, 47, 100
3, 1536, Note_on_c, 1, 49, 80
3, 1916, Note_off_c, 1, 49, 100
3, 1920, Note_on_c, 1, 51, 80
3, 2300, Note_off_c, 1, 51, 100
3, 2304, Note_on_c, 1, 52, 80
3, 2684, Note_off_c, 1, 52, 100
3, 2688, Note_on_c, 1, 56, 80
3, 3068, Note_off_c, 1, 56, 100
3, 3072, Note_on_c, 1, 58, 80
3, 3452, Note_off_c, 1, 58, 100
3, 3456, Note_on_c, 1, 59, 80
3, 3836, Note_off_c, 1, 59, 100
3, 3840, Note_on_c, 1, 54, 80
3, 4220, Note_off_c, 1, 54, 100
3, 4224, Note_on_c, 1, 47, 80
3, 4412, Note_off_c, 1, 47, 100
3, 4416, Note_on_c, 1, 45, 80
3, 4604, Note_off_c, 1, 45, 100
3, 4680, Note_on_c, 1, 44, 80
3, 4992, Note_on_c, 1, 56, 80
3, 5372, Note_off_c, 1, 44, 100
3, 5372, Note_off_c, 1, 56, 100
3, 5376, Note_on_c, 1, 45, 80
3, 5756, Note_off_c, 1, 45, 100
3, 5760, Note_on_c, 1, 47, 80
3, 5760, Note_on_c, 1, 54, 80
3, 6140, Note_off_c, 1, 47, 100
3, 6140, Note_off_c, 1, 54, 100
3, 6144, Note_on_c, 1, 49, 80
3, 6144, Note_on_c, 1, 52, 80
3, 6524, Note_off_c, 1, 49, 100
3, 6524, Note_off_c, 1, 52, 100
3, 6528, Note_on_c, 1, 51, 80
3, 6528, Note_on_c, 1, 54, 80
3, 6908, Note_off_c, 1, 51, 100
3, 6908, Note_off_c, 1, 54, 100
3, 6912, Note_on_c, 1, 52, 80
3, 7292, Note_off_c, 1, 52, 100
3, 7296, Note_on_c, 1, 37, 83
3, 7296, Note_on_c, 1, 49, 83
3, 7676, Note_off_c, 1, 37, 100
3, 7676, Note_off_c, 1, 49, 100
3, 7680, Note_on_c, 1, 36, 87
3, 7680, Note_on_c, 1, 48, 87
3, 8060, Note_off_c, 1, 36, 100
3, 8060, Note_off_c, 1, 48, 100
3, 8064, Note_on_c, 1, 36, 80
3, 8064, Note_on_c, 1, 40, 80
3, 8444, Note_off_c, 1, 40, 100
3, 8448, Note_on_c, 1, 43, 80
3, 8828, Note_off_c, 1, 36, 100
3, 8828, Note_off_c, 1, 43, 100
3, 8832, Note_on_c, 1, 35, 80
3, 8832, Note_on_c, 1, 47, 80
3, 9212, Note_off_c, 1, 35, 100
3, 9212, Note_off_c, 1, 47, 100
3, 9216, Note_on_c, 1, 40, 80
3, 9596, Note_off_c, 1, 40, 100
3, 9600, Note_on_c, 1, 44, 80
3, 9980, Note_off_c, 1, 44, 100
3, 9984, Note_on_c, 1, 45, 80
3, 10364, Note_off_c, 1, 45, 100
3, 10368, Note_on_c, 1, 47, 80
3, 10748, Note_off_c, 1, 47, 100
3, 10752, Note_on_c, 1, 49, 80
3, 11132, Note_off_c, 1, 49, 100
3, 11136, Note_on_c, 1, 51, 80
3, 11516, Note_off_c, 1, 51, 100
3, 11520, Note_on_c, 1, 52, 80
3, 11900, Note_off_c, 1, 52, 100
3, 11904, Note_on_c, 1, 56, 80
3, 12284, Note_off_c, 1, 56, 100
3, 12288, Note_on_c, 1, 58, 80
3, 12668, Note_off_c, 1, 58, 100
3, 12672, Note_on_c, 1, 59, 80
3, 13052, Note_off_c, 1, 59, 100
3, 13056, Note_on_c, 1, 54, 80
3, 13436, Note_off_c, 1, 54, 100
3, 13440, Note_on_c, 1, 47, 80
3, 13628, Note_off_c, 1, 47, 100
3, 13632, Note_on_c, 1, 45, 80
3, 13820, Note_off_c, 1, 45, 100
3, 13896, Note_on_c, 1, 44, 80
3, 14208, Note_on_c, 1, 56, 80
3, 14588, Note_off_c, 1, 44, 100
3, 14588, Note_off_c, 1, 56, 100
3, 14592, Note_on_c, 1, 45, 80
3, 14972, Note_off_c, 1, 45, 100
3, 14976, Note_on_c, 1, 47, 80
3, 14976, Note_on_c, 1, 54, 80
3, 15356, Note_off_c, 1, 47, 100
3, 15356, Note_off_c, 1, 54, 100
3, 15360, Note_on_c, 1, 49, 80
3, 15360, Note_on_c, 1, 52, 80
3, 15740, Note_off_c, 1, 49, 100
3, 15740, Note_off_c, 1, 52, 100
3, 15744, Note_on_c, 1, 51, 80
3, 15744, Note_on_c, 1, 54, 80
3, 16124, Note_off_c, 1, 51, 100
3, 16124, Note_off_c, 1, 54, 100
3, 16128, Note_on_c, 1, 52, 80
3, 16508, Note_off_c, 1, 52, 100
3, 16512, Note_on_c, 1, 37, 83
3, 16512, Note_on_c, 1, 49, 83
3, 16892, Note_off_c, 1, 37, 100
3, 16892, Note_off_c, 1, 49, 100
3, 16896, Note_on_c, 1, 36, 87
3, 16896, Note_on_c, 1, 48, 87
3, 17276, Note_off_c, 1, 36, 100
3, 17276, Note_off_c, 1, 48, 100
3, 17280, Note_on_c, 1, 36, 80
3, 17280, Note_on_c, 1, 40, 80
3, 17660, Note_off_c, 1, 40, 100
3, 17664, Note_on_c, 1, 43, 80
3, 18044, Note_off_c, 1, 36, 100
3, 18044, Note_off_c, 1, 43, 100
3, 18048, Note_on_c, 1, 35, 80
3, 18048, Note_on_c, 1, 47, 80
3, 18428, Note_off_c, 1, 35, 100
3, 18428, Note_off_c, 1, 47, 100
3, 18432, Note_on_c, 1, 59, 80
3, 18812, Note_off_c, 1, 59, 100
3, 18816, Note_on_c, 1, 51, 80
3, 18816, Note_on_c, 1, 59, 80
3, 19196, Note_off_c, 1, 51, 100
3, 19196, Note_off_c, 1, 59, 100
3, 19200, Note_on_c, 1, 53, 80
3, 19200, Note_on_c, 1, 59, 80
3, 19580, Note_off_c, 1, 53, 100
3, 19580, Note_off_c, 1, 59, 100
3, 19584, Note_on_c, 1, 54, 80
3, 19584, Note_on_c, 1, 59, 80
3, 19964, Note_off_c, 1, 54, 100
3, 19964, Note_off_c, 1, 59, 100
3, 19968, Note_on_c, 1, 49, 80
3, 19968, Note_on_c, 1, 59, 80
3, 20348, Note_off_c, 1, 49, 100
3, 20348, Note_off_c, 1, 59, 100
3, 20352, Note_on_c, 1, 51, 80
3, 20352, Note_on_c, 1, 59, 80
3, 20732, Note_off_c, 1, 51, 100
3, 20732, Note_off_c, 1, 59, 100
3, 20736, Note_on_c, 1, 52, 80
3, 20736, Note_on_c, 1, 59, 80
3, 21116, Note_off_c, 1, 52, 100
3, 21116, Note_off_c, 1, 59, 100
3, 21120, Note_on_c, 1, 47, 80
3, 21120, Note_on_c, 1, 59, 80
3, 21500, Note_off_c, 1, 47, 100
3, 21500, Note_off_c, 1, 59, 100
3, 21504, Note_on_c, 1, 49, 80
3, 21504, Note_on_c, 1, 61, 80
3, 21884, Note_off_c, 1, 49, 100
3, 21884, Note_off_c, 1, 61, 100
3, 21888, Note_on_c, 1, 51, 80
3, 21888, Note_on_c, 1, 59, 80
3, 22268, Note_off_c, 1, 51, 100
3, 22268, Note_off_c, 1, 59, 100
3, 22272, Note_on_c, 1, 51, 80
3, 22272, Note_on_c, 1, 58, 80
3, 22652, Note_off_c, 1, 51, 100
3, 22652, Note_off_c, 1, 58, 100
3, 22656, Note_on_c, 1, 44, 80
3, 22656, Note_on_c, 1, 56, 80
3, 23036, Note_off_c, 1, 44, 100
3, 23036, Note_off_c, 1, 56, 100
3, 23136, Note_on_c, 1, 54, 82
3, 23136, Note_on_c, 1, 42, 82
3, 23420, Note_off_c, 1, 54, 100
3, 23420, Note_off_c, 1, 42, 100
3, 23424, Note_on_c, 1, 54, 88
3, 23424, Note_on_c, 1, 57, 88
3, 23804, Note_off_c, 1, 54, 100
3, 23804, Note_off_c, 1, 57, 100
3, 23808, Note_on_c, 1, 52, 97
3, 23808, Note_on_c, 1, 54, 97
3, 23808, Note_on_c, 1, 57, 97
3, 24188, Note_off_c, 1, 52, 100
3, 24188, Note_off_c, 1, 54, 100
3, 24188, Note_off_c, 1, 57, 100
3, 24192, Note_on_c, 1, 51, 105
3, 24216, Note_on_c, 1, 54, 106
3, 24240, Note_on_c, 1, 57, 106
3, 24264, Note_on_c, 1, 59, 107
3, 25148, Note_off_c, 1, 51, 100
3, 25148, Note_off_c, 1, 54, 100
3, 25148, Note_off_c, 1, 57, 100
3, 25148, Note_off_c, 1, 59, 100
3, 25152, Note_on_c, 1, 56, 91
3, 25152, Note_on_c, 1, 52, 91
3, 25152, Note_on_c, 1, 59, 91
3, 25340, Note_off_c, 1, 56, 100
3, 25340, Note_off_c, 1, 52, 100
3, 25340, Note_off_c, 1, 59, 100
3, 25344, Note_on_c, 1, 47, 80
3, 25728, Note_on_c, 1, 56, 80
3, 26108, Note_off_c, 1, 47, 100
3, 26108, Note_off_c, 1, 56, 100
3, 26112, Note_on_c, 1, 47, 80
3, 26112, Note_on_c, 1, 54, 80
3, 26492, Note_off_c, 1, 47, 100
3, 26492, Note_off_c, 1, 54, 100
3, 26496, Note_on_c, 1, 40, 80
3, 26876, Note_off_c, 1, 40, 100
3, 26880, Note_on_c, 1, 47, 80
3, 27260, Note_off_c, 1, 47, 100
3, 27264, Note_on_c, 1, 52, 80
3, 27644, Note_off_c, 1, 52, 100
3, 27648, Note_on_c, 1, 59, 80
3, 28028, Note_off_c, 1, 59, 100
3, 28032, Note_on_c, 1, 51, 80
3, 28032, Note_on_c, 1, 59, 80
3, 28412, Note_off_c, 1, 51, 100
3, 28412, Note_off_c, 1, 59, 100
3, 28416, Note_on_c, 1, 53, 80
3, 28416, Note_on_c, 1, 59, 80
3, 28796, Note_off_c, 1, 53, 100
3, 28796, Note_off_c, 1, 59, 100
3, 28800, Note_on_c, 1, 54, 80
3, 28800, Note_on_c, 1, 59, 80
3, 29180, Note_off_c, 1, 54, 100
3, 29180, Note_off_c, 1, 59, 100
3, 29184, Note_on_c, 1, 49, 80
3, 29184, Note_on_c, 1, 59, 80
3, 29564, Note_off_c, 1, 49, 100
3, 29564, Note_off_c, 1, 59, 100
3, 29568, Note_on_c, 1, 51, 80
3, 29568, Note_on_c, 1, 59, 80
3, 29948, Note_off_c, 1, 51, 100
3, 29948, Note_off_c, 1, 59, 100
3, 29952, Note_on_c, 1, 52, 80
3, 29952, Note_on_c, 1, 59, 80
3, 30332, Note_off_c, 1, 52, 100
3, 30332, Note_off_c, 1, 59, 100
3, 30336, Note_on_c, 1, 47, 80
3, 30336, Note_on_c, 1, 59, 80
3, 30716, Note_off_c, 1, 47, 100
3, 30716, Note_off_c, 1, 59, 100
3, 30720, Note_on_c, 1, 49, 80
3, 30720, Note_on_c, 1, 61, 80
3, 31100, Note_off_c, 1, 49, 100
3, 31100, Note_off_c, 1, 61, 100
3, 31104, Note_on_c, 1, 51, 80
3, 31104, Note_on_c, 1, 59, 80
3, 31484, Note_off_c, 1, 51, 100
3, 31484, Note_off_c, 1, 59, 100
3, 31488, Note_on_c, 1, 51, 80
3, 31488, Note_on_c, 1, 58, 80
3, 31868, Note_off_c, 1, 51, 100
3, 31868, Note_off_c, 1, 58, 100
3, 31872, Note_on_c, 1, 44, 80
3, 31872, Note_on_c, 1, 56, 80
3, 32252, Note_off_c, 1, 44, 100
3, 32252, Note_off_c, 1, 56, 100
3, 32352, Note_on_c, 1, 54, 82
3, 32352, Note_on_c, 1, 42, 82
3, 32636, Note_off_c, 1, 54, 100
3, 32636, Note_off_c, 1, 42, 100
3, 32640, Note_on_c, 1, 54, 88
3, 32640, Note_on_c, 1, 57, 88
3, 33020, Note_off_c, 1, 54, 100
3, 33020, Note_off_c, 1, 57, 100
3, 33024, Note_on_c, 1, 52, 97
3, 33024, Note_on_c, 1, 54, 97
3, 33024, Note_on_c, 1, 57, 97
3, 33404, Note_off_c, 1, 52, 100
3, 33404, Note_off_c, 1, 54, 100
3, 33404, Note_off_c, 1, 57, 100
3, 33408, Note_on_c, 1, 51, 105
3, 33432, Note_on_c, 1, 54, 106
3, 33456, Note_on_c, 1, 57, 106
3, 33480, Note_on_c, 1, 59, 107
3, 34364, Note_off_c, 1, 51, 100
3, 34364, Note_off_c, 1, 54, 100
3, 34364, Note_off_c, 1, 57, 100
3, 34364, Note_off_c, 1, 59, 100
3, 34368, Note_on_c, 1, 56, 81
3, 34368, Note_on_c, 1, 52, 81
3, 34368, Note_on_c, 1, 59, 81
3, 34556, Note_off_c, 1, 56, 100
3, 34556, Note_off_c, 1, 52, 100
3, 34556, Note_off_c, 1, 59, 100
3, 34560, Note_on_c, 1, 47, 80
3, 34944, Note_on_c, 1, 56, 80
3, 35324, Note_off_c, 1, 47, 100
3, 35324, Note_off_c, 1, 56, 100
3, 35328, Note_on_c, 1, 47, 80
3, 35328, Note_on_c, 1, 54, 80
3, 35708, Note_off_c, 1, 47, 100
3, 35708, Note_off_c, 1, 54, 100
3, 35712, Note_on_c, 1, 40, 80
3, 36092, Note_off_c, 1, 40, 100
3, 36096, Note_on_c, 1, 47, 80
3, 36476, Note_off_c, 1, 47, 100
3, 36480, Note_on_c, 1, 52, 80
3, 36860, Note_off_c, 1, 52, 100
3, 36960, Note_on_c, 1, 40, 80
3, 37244, Note_off_c, 1, 40, 100
3, 37248, Note_on_c, 1, 47, 80
3, 37248, Note_on_c, 1, 52, 80
3, 37248, Note_on_c, 1, 56, 80
3, 37248, Note_on_c, 1, 59, 80
3, 37628, Note_off_c, 1, 47, 100
3, 37628, Note_off_c, 1, 52, 100
3, 37628, Note_off_c, 1, 56, 100
3, 37628, Note_off_c, 1, 59, 100
3, 37632, Note_on_c, 1, 47, 80
3, 37632, Note_on_c, 1, 52, 80
3, 37632, Note_on_c, 1, 56, 80
3, 37632, Note_on_c, 1, 59, 80
3, 38012, Note_off_c, 1, 47, 100
3, 38012, Note_off_c, 1, 52, 100
3, 38012, Note_off_c, 1, 56, 100
3, 38012, Note_off_c, 1, 59, 100
3, 38016, Note_on_c, 1, 44, 80
3, 38396, Note_off_c, 1, 44, 100
3, 38400, Note_on_c, 1, 47, 80
3, 38400, Note_on_c, 1, 54, 80
3, 38400, Note_on_c, 1, 57, 80
3, 38400, Note_on_c, 1, 59, 80
3, 38780, Note_off_c, 1, 47, 100
3, 38780, Note_off_c, 1, 54, 100
3, 38780, Note_off_c, 1, 57, 100
3, 38780, Note_off_c, 1, 59, 100
3, 38784, Note_on_c, 1, 47, 80
3, 38784, Note_on_c, 1, 54, 80
3, 38784, Note_on_c, 1, 57, 80
3, 38784, Note_on_c, 1, 59, 80
3, 39164, Note_off_c, 1, 47, 100
3, 39164, Note_off_c, 1, 54, 100
3, 39164, Note_off_c, 1, 57, 100
3, 39164, Note_off_c, 1, 59, 100
3, 39168, Note_on_c, 1, 44, 80
3, 39548, Note_off_c, 1, 44, 100
3, 39552, Note_on_c, 1, 47, 80
3, 39552, Note_on_c, 1, 52, 80
3, 39552, Note_on_c, 1, 56, 80
3, 39552, Note_on_c, 1, 59, 80
3, 39932, Note_off_c, 1, 47, 100
3, 39932, Note_off_c, 1, 52, 100
3, 39932, Note_off_c, 1, 56, 100
3, 39932, Note_off_c, 1, 59, 100
3, 39936, Note_on_c, 1, 47, 80
3, 39936, Note_on_c, 1, 52, 80
3, 39936, Note_on_c, 1, 56, 80
3, 39936, Note_on_c, 1, 59, 80
3, 40316, Note_off_c, 1, 47, 100
3, 40316, Note_off_c, 1, 52, 100
3, 40316, Note_off_c, 1, 56, 100
3, 40316, Note_off_c, 1, 59, 100
3, 40320, Note_on_c, 1, 45, 80
3, 40700, Note_off_c, 1, 45, 100
3, 40704, Note_on_c, 1, 47, 80
3, 40704, Note_on_c, 1, 51, 80
3, 40704, Note_on_c, 1, 54, 80
3, 40704, Note_on_c, 1, 59, 80
3, 41084, Note_off_c, 1, 47, 100
3, 41084, Note_off_c, 1, 51, 100
3, 41084, Note_off_c, 1, 54, 100
3, 41084, Note_off_c, 1, 59, 100
3, 41088, Note_on_c, 1, 47, 80
3, 41088, Note_on_c, 1, 51, 80
3, 41088, Note_on_c, 1, 54, 80
3, 41088, Note_on_c, 1, 59, 80
3, 41468, Note_off_c, 1, 47, 100
3, 41468, Note_off_c, 1, 51, 100
3, 41468, Note_off_c, 1, 54, 100
3, 41468, Note_off_c, 1, 59, 100
3, 41472, Note_on_c, 1, 44, 80
3, 41852, Note_off_c, 1, 44, 100
3, 41856, Note_on_c, 1, 47, 80
3, 41856, Note_on_c, 1, 52, 80
3, 41856, Note_on_c, 1, 56, 80
3, 41856, Note_on_c, 1, 59, 80
3, 42236, Note_off_c, 1, 47, 100
3, 42236, Note_off_c, 1, 52, 100
3, 42236, Note_off_c, 1, 56, 100
3, 42236, Note_off_c, 1, 59, 100
3, 42240, Note_on_c, 1, 47, 80
3, 42240, Note_on_c, 1, 52, 80
3, 42240, Note_on_c, 1, 56, 80
3, 42240, Note_on_c, 1, 59, 80
3, 42620, Note_off_c, 1, 47, 100
3, 42620, Note_off_c, 1, 52, 100
3, 42620, Note_off_c, 1, 56, 100
3, 42620, Note_off_c, 1, 59, 100
3, 42624, Note_on_c, 1, 42, 80
3, 43004, Note_off_c, 1, 42, 100
3, 43008, Note_on_c, 1, 47, 80
3, 43008, Note_on_c, 1, 51, 80
3, 43008, Note_on_c, 1, 54, 80
3, 43008, Note_on_c, 1, 57, 80
3, 43388, Note_off_c, 1, 47, 100
3, 43388, Note_off_c, 1, 51, 100
3, 43388, Note_off_c, 1, 54, 100
3, 43388, Note_off_c, 1, 57, 100
3, 43392, Note_on_c, 1, 39, 80
3, 43392, Note_on_c, 1, 47, 80
3, 43772, Note_off_c, 1, 39, 100
3, 43772, Note_off_c, 1, 47, 100
3, 43776, Note_on_c, 1, 40, 80
3, 43776, Note_on_c, 1, 47, 80
3, 44156, Note_off_c, 1, 40, 100
3, 44156, Note_off_c, 1, 47, 100
3, 44160, Note_on_c, 1, 39, 80
3, 44160, Note_on_c, 1, 47, 80
3, 44348, Note_off_c, 1, 39, 100
3, 44352, Note_on_c, 1, 38, 80
3, 44540, Note_off_c, 1, 47, 100
3, 44540, Note_off_c, 1, 38, 100
3, 44544, Note_on_c, 1, 37, 80
3, 44736, Note_on_c, 1, 30, 80
3, 44924, Note_off_c, 1, 37, 100
3, 44924, Note_off_c, 1, 30, 100
3, 44928, Note_on_c, 1, 37, 80
3, 44928, Note_on_c, 1, 30, 80
3, 45116, Note_off_c, 1, 37, 100
3, 45120, Note_on_c, 1, 43, 80
3, 45308, Note_off_c, 1, 43, 100
3, 45312, Note_on_c, 1, 42, 80
3, 45500, Note_off_c, 1, 42, 100
3, 45504, Note_on_c, 1, 40, 80
3, 45692, Note_off_c, 1, 30, 100
3, 45692, Note_off_c, 1, 40, 100
3, 45696, Note_on_c, 1, 42, 80
3, 45696, Note_on_c, 1, 35, 80
3, 45884, Note_off_c, 1, 42, 100
3, 45884, Note_off_c, 1, 35, 100
3, 45888, Note_on_c, 1, 37, 80
3, 45980, Note_off_c, 1, 37, 100
3, 45984, Note_on_c, 1, 39, 80
3, 46076, Note_off_c, 1, 39, 100
3, 46176, Note_on_c, 1, 40, 80
3, 46460, Note_off_c, 1, 40, 100
3, 46464, Note_on_c, 1, 47, 80
3, 46464, Note_on_c, 1, 52, 80
3, 46464, Note_on_c, 1, 56, 80
3, 46464, Note_on_c, 1, 59, 80
3, 46844, Note_off_c, 1, 47, 100
3, 46844, Note_off_c, 1, 52, 100
3, 46844, Note_off_c, 1, 56, 100
3, 46844, Note_off_c, 1, 59, 100
3, 46848, Note_on_c, 1, 47, 80
3, 46848, Note_on_c, 1, 52, 80
3, 46848, Note_on_c, 1, 56, 80
3, 46848, Note_on_c, 1, 59, 80
3, 47228, Note_off_c, 1, 47, 100
3, 47228, Note_off_c, 1, 52, 100
3, 47228, Note_off_c, 1, 56, 100
3, 47228, Note_off_c, 1, 59, 100
3, 47232, Note_on_c, 1, 44, 80
3, 47612, Note_off_c, 1, 44, 100
3, 47616, Note_on_c, 1, 47, 80
3, 47616, Note_on_c, 1, 54, 80
3, 47616, Note_on_c, 1, 57, 80
3, 47616, Note_on_c, 1, 59, 80
3, 47996, Note_off_c, 1, 47, 100
3, 47996, Note_off_c, 1, 54, 100
3, 47996, Note_off_c, 1, 57, 100
3, 47996, Note_off_c, 1, 59, 100
3, 48000, Note_on_c, 1, 47, 80
3, 48000, Note_on_c, 1, 54, 80
3, 48000, Note_on_c, 1, 57, 80
3, 48000, Note_on_c, 1, 59, 80
3, 48380, Note_off_c, 1, 47, 100
3, 48380, Note_off_c, 1, 54, 100
3, 48380, Note_off_c, 1, 57, 100
3, 48380, Note_off_c, 1, 59, 100
3, 48384, Note_on_c, 1, 44, 80
3, 48764, Note_off_c, 1, 44, 100
3, 48768, Note_on_c, 1, 47, 80
3, 48768, Note_on_c, 1, 52, 80
3, 48768, Note_on_c, 1, 56, 80
3, 48768, Note_on_c, 1, 59, 80
3, 49148, Note_off_c, 1, 47, 100
3, 49148, Note_off_c, 1, 52, 100
3, 49148, Note_off_c, 1, 56, 100
3, 49148, Note_off_c, 1, 59, 100
3, 49152, Note_on_c, 1, 47, 80
3, 49152, Note_on_c, 1, 52, 80
3, 49152, Note_on_c, 1, 56, 80
3, 49152, Note_on_c, 1, 59, 80
3, 49532, Note_off_c, 1, 47, 100
3, 49532, Note_off_c, 1, 52, 100
3, 49532, Note_off_c, 1, 56, 100
3, 49532, Note_off_c, 1, 59, 100
3, 49536, Note_on_c, 1, 45, 80
3, 49916, Note_off_c, 1, 45, 100
3, 49920, Note_on_c, 1, 47, 80
3, 49920, Note_on_c, 1, 51, 80
3, 49920, Note_on_c, 1, 54, 80
3, 49920, Note_on_c, 1, 59, 80
3, 50300, Note_off_c, 1, 47, 100
3, 50300, Note_off_c, 1, 51, 100
3, 50300, Note_off_c, 1, 54, 100
3, 50300, Note_off_c, 1, 59, 100
3, 50304, Note_on_c, 1, 47, 80
3, 50304, Note_on_c, 1, 51, 80
3, 50304, Note_on_c, 1, 54, 80
3, 50304, Note_on_c, 1, 59, 80
3, 50684, Note_off_c, 1, 47, 100
3, 50684, Note_off_c, 1, 51, 100
3, 50684, Note_off_c, 1, 54, 100
3, 50684, Note_off_c, 1, 59, 100
3, 50688, Note_on_c, 1, 44, 80
3, 51068, Note_off_c, 1, 44, 100
3, 51072, Note_on_c, 1, 47, 80
3, 51072, Note_on_c, 1, 52, 80
3, 51072, Note_on_c, 1, 56, 80
3, 51072, Note_on_c, 1, 59, 80
3, 51452, Note_off_c, 1, 47, 100
3, 51452, Note_off_c, 1, 52, 100
3, 51452, Note_off_c, 1, 56, 100
3, 51452, Note_off_c, 1, 59, 100
3, 51456, Note_on_c, 1, 47, 80
3, 51456, Note_on_c, 1, 52, 80
3, 51456, Note_on_c, 1, 56, 80
3, 51456, Note_on_c, 1, 59, 80
3, 51836, Note_off_c, 1, 47, 100
3, 51836, Note_off_c, 1, 52, 100
3, 51836, Note_off_c, 1, 56, 100
3, 51836, Note_off_c, 1, 59, 100
3, 51840, Note_on_c, 1, 42, 80
3, 52220, Note_off_c, 1, 42, 100
3, 52224, Note_on_c, 1, 47, 80
3, 52224, Note_on_c, 1, 51, 80
3, 52224, Note_on_c, 1, 54, 80
3, 52224, Note_on_c, 1, 57, 80
3, 52604, Note_off_c, 1, 47, 100
3, 52604, Note_off_c, 1, 51, 100
3, 52604, Note_off_c, 1, 54, 100
3, 52604, Note_off_c, 1, 57, 100
3, 52608, Note_on_c, 1, 39, 80
3, 52608, Note_on_c, 1, 47, 80
3, 52988, Note_off_c, 1, 39, 100
3, 52988, Note_off_c, 1, 47, 100
3, 52992, Note_on_c, 1, 40, 80
3, 52992, Note_on_c, 1, 47, 80
3, 53372, Note_off_c, 1, 40, 100
3, 53372, Note_off_c, 1, 47, 100
3, 53376, Note_on_c, 1, 39, 80
3, 53376, Note_on_c, 1, 47, 80
3, 53564, Note_off_c, 1, 39, 100
3, 53568, Note_on_c, 1, 38, 80
3, 53756, Note_off_c, 1, 47, 100
3, 53756, Note_off_c, 1, 38, 100
3, 53760, Note_on_c, 1, 37, 80
3, 53952, Note_on_c, 1, 30, 80
3, 54140, Note_off_c, 1, 37, 100
3, 54140, Note_off_c, 1, 30, 100
3, 54144, Note_on_c, 1, 37, 80
3, 54144, Note_on_c, 1, 30, 80
3, 54332, Note_off_c, 1, 37, 100
3, 54336, Note_on_c, 1, 43, 80
3, 54524, Note_off_c, 1, 43, 100
3, 54528, Note_on_c, 1, 42, 80
3, 54716, Note_off_c, 1, 42, 100
3, 54720, Note_on_c, 1, 40, 80
3, 54908, Note_off_c, 1, 30, 100
3, 54908, Note_off_c, 1, 40, 100
3, 54912, Note_on_c, 1, 42, 80
3, 54912, Note_on_c, 1, 35, 80
3, 55100, Note_off_c, 1, 42, 100
3, 55100, Note_off_c, 1, 35, 100
3, 55104, Note_on_c, 1, 37, 80
3, 55104, Note_on_c, 1, 40, 80
3, 55292, Note_off_c, 1, 37, 100
3, 55292, Note_off_c, 1, 40, 100
3, 55296, Note_on_c, 1, 39, 80
3, 55296, Note_on_c, 1, 42, 80
3, 55676, Note_off_c, 1, 39, 100
3, 55676, Note_off_c, 1, 42, 100
3, 55680, Note_on_c, 1, 51, 80
3, 55680, Note_on_c, 1, 54, 80
3, 55680, Note_on_c, 1, 59, 80
3, 56060, Note_off_c, 1, 51, 100
3, 56060, Note_off_c, 1, 54, 100
3, 56060, Note_off_c, 1, 59, 100
3, 56064, Note_on_c, 1, 53, 80
3, 56064, Note_on_c, 1, 56, 80
3, 56064, Note_on_c, 1, 61, 80
3, 56444, Note_off_c, 1, 53, 100
3, 56444, Note_off_c, 1, 56, 100
3, 56444, Note_off_c, 1, 61, 100
3, 56544, Note_on_c, 1, 42, 80
3, 56828, Note_off_c, 1, 42, 100
3, 56832, Note_on_c, 1, 54, 80
3, 56832, Note_on_c, 1, 57, 80
3, 57212, Note_off_c, 1, 54, 100
3, 57212, Note_off_c, 1, 57, 100
3, 57216, Note_on_c, 1, 51, 80
3, 57216, Note_on_c, 1, 54, 80
3, 57216, Note_on_c, 1, 59, 80
3, 57596, Note_off_c, 1, 51, 100
3, 57596, Note_off_c, 1, 54, 100
3, 57596, Note_off_c, 1, 59, 100
3, 57600, Note_on_c, 1, 40, 80
3, 57980, Note_off_c, 1, 40, 100
3, 57984, Note_on_c, 1, 52, 80
3, 57984, Note_on_c, 1, 56, 80
3, 57984, Note_on_c, 1, 59, 80
3, 58364, Note_off_c, 1, 52, 100
3, 58364, Note_off_c, 1, 56, 100
3, 58364, Note_off_c, 1, 59, 100
3, 58368, Note_on_c, 1, 49, 80
3, 58368, Note_on_c, 1, 61, 80
3, 58748, Note_off_c, 1, 49, 100
3, 58752, Note_on_c, 1, 51, 80
3, 58940, Note_off_c, 1, 61, 64
3, 58944, Note_on_c, 1, 59, 85
3, 59132, Note_off_c, 1, 51, 100
3, 59136, Note_on_c, 1, 51, 91
3, 59324, Note_off_c, 1, 59, 100
3, 59328, Note_on_c, 1, 58, 97
3, 59516, Note_off_c, 1, 51, 100
3, 59516, Note_off_c, 1, 58, 100
3, 59520, Note_on_c, 1, 44, 103
3, 59520, Note_on_c, 1, 56, 103
3, 59708, Note_off_c, 1, 44, 100
3, 59708, Note_off_c, 1, 56, 100
3, 59712, Note_on_c, 1, 42, 109
3, 59712, Note_on_c, 1, 54, 109
3, 59900, Note_off_c, 1, 54, 100
3, 60284, Note_off_c, 1, 42, 64
3, 60288, Note_on_c, 1, 54, 80
3, 60288, Note_on_c, 1, 57, 80
3, 60668, Note_off_c, 1, 54, 100
3, 60668, Note_off_c, 1, 57, 100
3, 60672, Note_on_c, 1, 49, 80
3, 60672, Note_on_c, 1, 52, 80
3, 60672, Note_on_c, 1, 57, 80
3, 61052, Note_off_c, 1, 49, 100
3, 61052, Note_off_c, 1, 52, 100
3, 61052, Note_off_c, 1, 57, 100
3, 61056, Note_on_c, 1, 39, 80
3, 61436, Note_off_c, 1, 39, 100
3, 61440, Note_on_c, 1, 51, 80
3, 61440, Note_on_c, 1, 54, 80
3, 61440, Note_on_c, 1, 57, 80
3, 61440, Note_on_c, 1, 59, 80
3, 61820, Note_off_c, 1, 51, 100
3, 61820, Note_off_c, 1, 54, 100
3, 61820, Note_off_c, 1, 57, 100
3, 61820, Note_off_c, 1, 59, 100
3, 61824, Note_on_c, 1, 52, 80
3, 61824, Note_on_c, 1, 56, 80
3, 61824, Note_on_c, 1, 59, 80
3, 62204, Note_off_c, 1, 52, 100
3, 62204, Note_off_c, 1, 56, 100
3, 62204, Note_off_c, 1, 59, 100
3, 62208, Note_on_c, 1, 47, 80
3, 62588, Note_off_c, 1, 47, 100
3, 62592, Note_on_c, 1, 56, 80
3, 62592, Note_on_c, 1, 59, 80
3, 62592, Note_on_c, 1, 64, 80
3, 62972, Note_off_c, 1, 56, 100
3, 62972, Note_off_c, 1, 59, 100
3, 62972, Note_off_c, 1, 64, 100
3, 62976, Note_on_c, 1, 54, 80
3, 62976, Note_on_c, 1, 57, 80
3, 62976, Note_on_c, 1, 59, 80
3, 62976, Note_on_c, 1, 63, 80
3, 63356, Note_off_c, 1, 54, 100
3, 63356, Note_off_c, 1, 57, 100
3, 63356, Note_off_c, 1, 59, 100
3, 63356, Note_off_c, 1, 63, 100
3, 63360, Note_on_c, 1, 40, 80
3, 63740, Note_off_c, 1, 40, 100
3, 63744, Note_on_c, 1, 52, 80
3, 63744, Note_on_c, 1, 54, 80
3, 63744, Note_on_c, 1, 57, 80
3, 63744, Note_on_c, 1, 59, 80
3, 63744, Note_on_c, 1, 63, 80
3, 64124, Note_off_c, 1, 52, 100
3, 64124, Note_off_c, 1, 54, 100
3, 64124, Note_off_c, 1, 57, 100
3, 64124, Note_off_c, 1, 59, 100
3, 64124, Note_off_c, 1, 63, 100
3, 64128, Note_on_c, 1, 52, 80
3, 64128, Note_on_c, 1, 56, 80
3, 64128, Note_on_c, 1, 59, 80
3, 64128, Note_on_c, 1, 64, 80
3, 64316, Note_off_c, 1, 52, 100
3, 64316, Note_off_c, 1, 56, 100
3, 64316, Note_off_c, 1, 59, 100
3, 64316, Note_off_c, 1, 64, 100
3, 64320, Note_on_c, 1, 51, 80
3, 64320, Note_on_c, 1, 54, 80
3, 64320, Note_on_c, 1, 59, 80
3, 64320, Note_on_c, 1, 63, 80
3, 64508, Note_off_c, 1, 51, 100
3, 64508, Note_off_c, 1, 54, 100
3, 64508, Note_off_c, 1, 59, 100
3, 64508, Note_off_c, 1, 63, 100
3, 64512, Note_on_c, 1, 39, 80
3, 64892, Note_off_c, 1, 39, 100
3, 64896, Note_on_c, 1, 51, 80
3, 64896, Note_on_c, 1, 54, 80
3, 64896, Note_on_c, 1, 59, 80
3, 65276, Note_off_c, 1, 51, 100
3, 65276, Note_off_c, 1, 54, 100
3, 65276, Note_off_c, 1, 59, 100
3, 65280, Note_on_c, 1, 53, 80
3, 65280, Note_on_c, 1, 56, 80
3, 65280, Note_on_c, 1, 61, 80
3, 65660, Note_off_c, 1, 53, 100
3, 65660, Note_off_c, 1, 56, 100
3, 65660, Note_off_c, 1, 61, 100
3, 65760, Note_on_c, 1, 42, 80
3, 66044, Note_off_c, 1, 42, 100
3, 66048, Note_on_c, 1, 54, 80
3, 66048, Note_on_c, 1, 57, 80
3, 66428, Note_off_c, 1, 54, 100
3, 66428, Note_off_c, 1, 57, 100
3, 66432, Note_on_c, 1, 51, 80
3, 66432, Note_on_c, 1, 54, 80
3, 66432, Note_on_c, 1, 59, 80
3, 66812, Note_off_c, 1, 51, 100
3, 66812, Note_off_c, 1, 54, 100
3, 66812, Note_off_c, 1, 59, 100
3, 66816, Note_on_c, 1, 40, 80
3, 67196, Note_off_c, 1, 40, 100
3, 67200, Note_on_c, 1, 52, 80
3, 67200, Note_on_c, 1, 56, 80
3, 67200, Note_on_c, 1, 59, 80
3, 67580, Note_off_c, 1, 52, 100
3, 67580, Note_off_c, 1, 56, 100
3, 67580, Note_off_c, 1, 59, 100
3, 67584, Note_on_c, 1, 49, 80
3, 67584, Note_on_c, 1, 61, 80
3, 67964, Note_off_c, 1, 49, 100
3, 67968, Note_on_c, 1, 51, 80
3, 68156, Note_off_c, 1, 61, 64
3, 68160, Note_on_c, 1, 59, 85
3, 68348, Note_off_c, 1, 51, 100
3, 68352, Note_on_c, 1, 51, 91
3, 68540, Note_off_c, 1, 59, 100
3, 68544, Note_on_c, 1, 58, 97
3, 68732, Note_off_c, 1, 51, 100
3, 68732, Note_off_c, 1, 58, 100
3, 68736, Note_on_c, 1, 44, 103
3, 68736, Note_on_c, 1, 56, 103
3, 68924, Note_off_c, 1, 44, 100
3, 68924, Note_off_c, 1, 56, 100
3, 68928, Note_on_c, 1, 42, 109
3, 68928, Note_on_c, 1, 54, 109
3, 69116, Note_off_c, 1, 54, 100
3, 69500, Note_off_c, 1, 42, 64
3, 69504, Note_on_c, 1, 54, 80
3, 69504, Note_on_c, 1, 57, 80
3, 69884, Note_off_c, 1, 54, 100
3, 69884, Note_off_c, 1, 57, 100
3, 69888, Note_on_c, 1, 49, 80
3, 69888, Note_on_c, 1, 52, 80
3, 69888, Note_on_c, 1, 57, 80
3, 70268, Note_off_c, 1, 49, 100
3, 70268, Note_off_c, 1, 52, 100
3, 70268, Note_off_c, 1, 57, 100
3, 70272, Note_on_c, 1, 39, 80
3, 70652, Note_off_c, 1, 39, 100
3, 70656, Note_on_c, 1, 51, 80
3, 70656, Note_on_c, 1, 54, 80
3, 70656, Note_on_c, 1, 57, 80
3, 70656, Note_on_c, 1, 59, 80
3, 71036, Note_off_c, 1, 51, 100
3, 71036, Note_off_c, 1, 54, 100
3, 71036, Note_off_c, 1, 57, 100
3, 71036, Note_off_c, 1, 59, 100
3, 71040, Note_on_c, 1, 52, 80
3, 71040, Note_on_c, 1, 56, 80
3, 71040, Note_on_c, 1, 59, 80
3, 71420, Note_off_c, 1, 52, 100
3, 71420, Note_off_c, 1, 56, 100
3, 71420, Note_off_c, 1, 59, 100
3, 71424, Note_on_c, 1, 47, 80
3, 71804, Note_off_c, 1, 47, 100
3, 71808, Note_on_c, 1, 56, 80
3, 71808, Note_on_c, 1, 59, 80
3, 71808, Note_on_c, 1, 64, 80
3, 72188, Note_off_c, 1, 56, 100
3, 72188, Note_off_c, 1, 59, 100
3, 72188, Note_off_c, 1, 64, 100
3, 72192, Note_on_c, 1, 54, 80
3, 72192, Note_on_c, 1, 57, 80
3, 72192, Note_on_c, 1, 59, 80
3, 72192, Note_on_c, 1, 63, 80
3, 72572, Note_off_c, 1, 54, 100
3, 72572, Note_off_c, 1, 57, 100
3, 72572, Note_off_c, 1, 59, 100
3, 72572, Note_off_c, 1, 63, 100
3, 72576, Note_on_c, 1, 40, 80
3, 72956, Note_off_c, 1, 40, 100
3, 72960, Note_on_c, 1, 52, 80
3, 72960, Note_on_c, 1, 54, 80
3, 72960, Note_on_c, 1, 57, 80
3, 72960, Note_on_c, 1, 59, 80
3, 72960, Note_on_c, 1, 63, 80
3, 73340, Note_off_c, 1, 52, 100
3, 73340, Note_off_c, 1, 54, 100
3, 73340, Note_off_c, 1, 57, 100
3, 73340, Note_off_c, 1, 59, 100
3, 73340, Note_off_c, 1, 63, 100
3, 73344, Note_on_c, 1, 52, 80
3, 73344, Note_on_c, 1, 56, 80
3, 73344, Note_on_c, 1, 59, 80
3, 73344, Note_on_c, 1, 64, 80
3, 73724, Note_off_c, 1, 52, 100
3, 73724, Note_off_c, 1, 56, 100
3, 73724, Note_off_c, 1, 59, 100
3, 73724, Note_off_c, 1, 64, 100
3, 73728, Note_on_c, 1, 40, 80
3, 73820, Note_off_c, 1, 40, 100
3, 74016, Note_on_c, 1, 52, 80
3, 74108, Note_off_c, 1, 52, 100
3, 74112, Note_on_c, 1, 56, 80
3, 74204, Note_off_c, 1, 56, 100
3, 74400, Note_on_c, 1, 44, 80
3, 74492, Note_off_c, 1, 44, 100
3, 74496, Note_on_c, 1, 45, 80
3, 74588, Note_off_c, 1, 45, 100
3, 74784, Note_on_c, 1, 57, 80
3, 74876, Note_off_c, 1, 57, 100
3, 74880, Note_on_c, 1, 59, 80
3, 74972, Note_off_c, 1, 59, 100
3, 75168, Note_on_c, 1, 47, 80
3, 75260, Note_off_c, 1, 47, 100
3, 75264, Note_on_c, 1, 49, 80
3, 75356, Note_off_c, 1, 49, 100
3, 75552, Note_on_c, 1, 61, 80
3, 75644, Note_off_c, 1, 61, 100
3, 75648, Note_on_c, 1, 63, 80
3, 75740, Note_off_c, 1, 63, 100
3, 75936, Note_on_c, 1, 51, 80
3, 76028, Note_off_c, 1, 51, 100
3, 76032, Note_on_c, 1, 52, 80
3, 76124, Note_off_c, 1, 52, 100
3, 76320, Note_on_c, 1, 64, 80
3, 76412, Note_off_c, 1, 64, 100
3, 76416, Note_on_c, 1, 68, 80
3, 76508, Note_off_c, 1, 68, 100
3, 76704, Note_on_c, 1, 56, 80
3, 76796, Note_off_c, 1, 56, 100
3, 76800, Note_on_c, 1, 58, 80
3, 76892, Note_off_c, 1, 58, 100
3, 77088, Note_on_c, 1, 70, 80
3, 77180, Note_off_c, 1, 70, 100
3, 77184, Note_on_c, 1, 71, 80
3, 77276, Note_off_c, 1, 71, 100
3, 77472, Note_on_c, 1, 66, 83
3, 77564, Note_off_c, 1, 66, 100
3, 77568, Note_on_c, 1, 66, 84
3, 77660, Note_off_c, 1, 66, 100
3, 77856, Note_on_c, 1, 73, 87
3, 77948, Note_off_c, 1, 73, 100
3, 77952, Note_on_c, 1, 71, 88
3, 78044, Note_off_c, 1, 71, 100
3, 78240, Note_on_c, 1, 69, 92
3, 78332, Note_off_c, 1, 69, 100
3, 78336, Note_on_c, 1, 68, 93
3, 78428, Note_off_c, 1, 68, 100
3, 78624, Note_on_c, 1, 80, 96
3, 78716, Note_off_c, 1, 80, 100
3, 78720, Note_on_c, 1, 76, 97
3, 78812, Note_off_c, 1, 76, 100
3, 79008, Note_on_c, 1, 71, 100
3, 79100, Note_off_c, 1, 71, 100
3, 79104, Note_on_c, 1, 73, 99
3, 79196, Note_off_c, 1, 73, 100
3, 79392, Note_on_c, 1, 70, 96
3, 79484, Note_off_c, 1, 70, 100
3, 79488, Note_on_c, 1, 70, 94
3, 79580, Note_off_c, 1, 70, 100
3, 79776, Note_on_c, 1, 71, 91
3, 79868, Note_off_c, 1, 71, 100
3, 79872, Note_on_c, 1, 73, 89
3, 79964, Note_off_c, 1, 73, 100
3, 80160, Note_on_c, 1, 76, 86
3, 80252, Note_off_c, 1, 76, 100
3, 80256, Note_on_c, 1, 75, 84
3, 80348, Note_off_c, 1, 75, 100
3, 80544, Note_on_c, 1, 78, 81
3, 80636, Note_off_c, 1, 78, 100
3, 80640, Note_on_c, 1, 74, 80
3, 80732, Note_off_c, 1, 74, 100
3, 80928, Note_on_c, 1, 77, 85
3, 81020, Note_off_c, 1, 77, 100
3, 81024, Note_on_c, 1, 73, 87
3, 81116, Note_off_c, 1, 73, 100
3, 81312, Note_on_c, 1, 76, 92
3, 81404, Note_off_c, 1, 76, 100
3, 81408, Note_on_c, 1, 72, 94
3, 81500, Note_off_c, 1, 72, 100
3, 81696, Note_on_c, 1, 79, 99
3, 81788, Note_off_c, 1, 79, 100
3, 81792, Note_on_c, 1, 72, 100
3, 81884, Note_off_c, 1, 72, 100
3, 82080, Note_on_c, 1, 84, 95
3, 82172, Note_off_c, 1, 84, 100
3, 82176, Note_on_c, 1, 72, 93
3, 82268, Note_off_c, 1, 72, 100
3, 82464, Note_on_c, 1, 84, 88
3, 82556, Note_off_c, 1, 84, 100
3, 82560, Note_on_c, 1, 83, 86
3, 82652, Note_off_c, 1, 83, 100
3, 82848, Note_on_c, 1, 71, 81
3, 82940, Note_off_c, 1, 71, 100
3, 83136, Note_on_c, 1, 47, 80
3, 83136, Note_on_c, 1, 52, 80
3, 83136, Note_on_c, 1, 56, 80
3, 83324, Note_off_c, 1, 47, 100
3, 83324, Note_off_c, 1, 52, 100
3, 83324, Note_off_c, 1, 56, 100
3, 83328, Note_on_c, 1, 47, 80
3, 83328, Note_on_c, 1, 52, 80
3, 83328, Note_on_c, 1, 56, 80
3, 83516, Note_off_c, 1, 47, 100
3, 83516, Note_off_c, 1, 52, 100
3, 83516, Note_off_c, 1, 56, 100
3, 83520, Note_on_c, 1, 47, 80
3, 83520, Note_on_c, 1, 52, 80
3, 83520, Note_on_c, 1, 56, 80
3, 83708, Note_off_c, 1, 47, 100
3, 83708, Note_off_c, 1, 52, 100
3, 83708, Note_off_c, 1, 56, 100
3, 83712, Note_on_c, 1, 47, 80
3, 83712, Note_on_c, 1, 52, 80
3, 83712, Note_on_c, 1, 56, 80
3, 83900, Note_off_c, 1, 47, 100
3, 83900, Note_off_c, 1, 52, 100
3, 83900, Note_off_c, 1, 56, 100
3, 83904, Note_on_c, 1, 47, 80
3, 83904, Note_on_c, 1, 52, 80
3, 83904, Note_on_c, 1, 56, 80
3, 84092, Note_off_c, 1, 47, 100
3, 84092, Note_off_c, 1, 52, 100
3, 84092, Note_off_c, 1, 56, 100
3, 84096, Note_on_c, 1, 47, 80
3, 84096, Note_on_c, 1, 54, 80
3, 84096, Note_on_c, 1, 57, 80
3, 84284, Note_off_c, 1, 47, 100
3, 84284, Note_off_c, 1, 54, 100
3, 84284, Note_off_c, 1, 57, 100
3, 84288, Note_on_c, 1, 47, 80
3, 84288, Note_on_c, 1, 54, 80
3, 84288, Note_on_c, 1, 57, 80
3, 84476, Note_off_c, 1, 47, 100
3, 84476, Note_off_c, 1, 54, 100
3, 84476, Note_off_c, 1, 57, 100
3, 84480, Note_on_c, 1, 47, 80
3, 84480, Note_on_c, 1, 54, 80
3, 84480, Note_on_c, 1, 57, 80
3, 84668, Note_off_c, 1, 47, 100
3, 84668, Note_off_c, 1, 54, 100
3, 84668, Note_off_c, 1, 57, 100
3, 84672, Note_on_c, 1, 47, 80
3, 84672, Note_on_c, 1, 54, 80
3, 84672, Note_on_c, 1, 57, 80
3, 84860, Note_off_c, 1, 47, 100
3, 84860, Note_off_c, 1, 54, 100
3, 84860, Note_off_c, 1, 57, 100
3, 84864, Note_on_c, 1, 47, 80
3, 84864, Note_on_c, 1, 54, 80
3, 84864, Note_on_c, 1, 57, 80
3, 85052, Note_off_c, 1, 47, 100
3, 85052, Note_off_c, 1, 54, 100
3, 85052, Note_off_c, 1, 57, 100
3, 85056, Note_on_c, 1, 47, 80
3, 85056, Note_on_c, 1, 54, 80
3, 85056, Note_on_c, 1, 57, 80
3, 85244, Note_off_c, 1, 47, 100
3, 85244, Note_off_c, 1, 54, 100
3, 85244, Note_off_c, 1, 57, 100
3, 85248, Note_on_c, 1, 47, 80
3, 85248, Note_on_c, 1, 56, 80
3, 85248, Note_on_c, 1, 59, 80
3, 85436, Note_off_c, 1, 47, 100
3, 85436, Note_off_c, 1, 56, 100
3, 85436, Note_off_c, 1, 59, 100
3, 85440, Note_on_c, 1, 47, 80
3, 85440, Note_on_c, 1, 56, 80
3, 85440, Note_on_c, 1, 59, 80
3, 85628, Note_off_c, 1, 47, 100
3, 85628, Note_off_c, 1, 56, 100
3, 85628, Note_off_c, 1, 59, 100
3, 85632, Note_on_c, 1, 47, 80
3, 85632, Note_on_c, 1, 56, 80
3, 85632, Note_on_c, 1, 59, 80
3, 85820, Note_off_c, 1, 47, 100
3, 85820, Note_off_c, 1, 56, 100
3, 85820, Note_off_c, 1, 59, 100
3, 85824, Note_on_c, 1, 47, 80
3, 85824, Note_on_c, 1, 56, 80
3, 85824, Note_on_c, 1, 59, 80
3, 86012, Note_off_c, 1, 47, 100
3, 86012, Note_off_c, 1, 56, 100
3, 86012, Note_off_c, 1, 59, 100
3, 86016, Note_on_c, 1, 47, 80
3, 86016, Note_on_c, 1, 56, 80
3, 86016, Note_on_c, 1, 59, 80
3, 86204, Note_off_c, 1, 47, 100
3, 86204, Note_off_c, 1, 56, 100
3, 86204, Note_off_c, 1, 59, 100
3, 86208, Note_on_c, 1, 47, 80
3, 86208, Note_on_c, 1, 56, 80
3, 86208, Note_on_c, 1, 59, 80
3, 86396, Note_off_c, 1, 47, 100
3, 86396, Note_off_c, 1, 56, 100
3, 86396, Note_off_c, 1, 59, 100
3, 86400, Note_on_c, 1, 47, 80
3, 86400, Note_on_c, 1, 57, 80
3, 86400, Note_on_c, 1, 61, 80
3, 86588, Note_off_c, 1, 47, 100
3, 86588, Note_off_c, 1, 57, 100
3, 86588, Note_off_c, 1, 61, 100
3, 86592, Note_on_c, 1, 47, 80
3, 86592, Note_on_c, 1, 57, 80
3, 86592, Note_on_c, 1, 61, 80
3, 86780, Note_off_c, 1, 47, 100
3, 86780, Note_off_c, 1, 57, 100
3, 86780, Note_off_c, 1, 61, 100
3, 86784, Note_on_c, 1, 47, 80
3, 86784, Note_on_c, 1, 57, 80
3, 86784, Note_on_c, 1, 61, 80
3, 86972, Note_off_c, 1, 47, 100
3, 86972, Note_off_c, 1, 57, 100
3, 86972, Note_off_c, 1, 61, 100
3, 86976, Note_on_c, 1, 47, 80
3, 86976, Note_on_c, 1, 57, 80
3, 86976, Note_on_c, 1, 61, 80
3, 87164, Note_off_c, 1, 47, 100
3, 87164, Note_off_c, 1, 57, 100
3, 87164, Note_off_c, 1, 61, 100
3, 87168, Note_on_c, 1, 59, 80
3, 87168, Note_on_c, 1, 63, 80
3, 87356, Note_off_c, 1, 59, 100
3, 87356, Note_off_c, 1, 63, 100
3, 87360, Note_on_c, 1, 59, 80
3, 87360, Note_on_c, 1, 63, 80
3, 87548, Note_off_c, 1, 59, 100
3, 87548, Note_off_c, 1, 63, 100
3, 87552, Note_on_c, 1, 47, 80
3, 87644, Note_off_c, 1, 47, 100
3, 87744, Note_on_c, 1, 56, 80
3, 87744, Note_on_c, 1, 59, 80
3, 87744, Note_on_c, 1, 64, 80
3, 87836, Note_off_c, 1, 56, 100
3, 87836, Note_off_c, 1, 59, 100
3, 87836, Note_off_c, 1, 64, 100
3, 87936, Note_on_c, 1, 56, 80
3, 87936, Note_on_c, 1, 59, 80
3, 87936, Note_on_c, 1, 64, 80
3, 88028, Note_off_c, 1, 56, 100
3, 88028, Note_off_c, 1, 59, 100
3, 88028, Note_off_c, 1, 64, 100
3, 88128, Note_on_c, 1, 56, 80
3, 88128, Note_on_c, 1, 59, 80
3, 88128, Note_on_c, 1, 64, 80
3, 88220, Note_off_c, 1, 56, 100
3, 88220, Note_off_c, 1, 59, 100
3, 88220, Note_off_c, 1, 64, 100
3, 88320, Note_on_c, 1, 56, 80
3, 88320, Note_on_c, 1, 59, 80
3, 88320, Note_on_c, 1, 64, 80
3, 88412, Note_off_c, 1, 56, 100
3, 88412, Note_off_c, 1, 59, 100
3, 88412, Note_off_c, 1, 64, 100
3, 88512, Note_on_c, 1, 56, 80
3, 88512, Note_on_c, 1, 59, 80
3, 88512, Note_on_c, 1, 64, 80
3, 88604, Note_off_c, 1, 56, 100
3, 88604, Note_off_c, 1, 59, 100
3, 88604, Note_off_c, 1, 64, 100
3, 88704, Note_on_c, 1, 47, 80
3, 88796, Note_off_c, 1, 47, 100
3, 88896, Note_on_c, 1, 54, 80
3, 88896, Note_on_c, 1, 57, 80
3, 88896, Note_on_c, 1, 59, 80
3, 88896, Note_on_c, 1, 63, 80
3, 88988, Note_off_c, 1, 54, 100
3, 88988, Note_off_c, 1, 57, 100
3, 88988, Note_off_c, 1, 59, 100
3, 88988, Note_off_c, 1, 63, 100
3, 89088, Note_on_c, 1, 54, 80
3, 89088, Note_on_c, 1, 57, 80
3, 89088, Note_on_c, 1, 59, 80
3, 89088, Note_on_c, 1, 63, 80
3, 89180, Note_off_c, 1, 54, 100
3, 89180, Note_off_c, 1, 57, 100
3, 89180, Note_off_c, 1, 59, 100
3, 89180, Note_off_c, 1, 63, 100
3, 89280, Note_on_c, 1, 54, 80
3, 89280, Note_on_c, 1, 57, 80
3, 89280, Note_on_c, 1, 59, 80
3, 89280, Note_on_c, 1, 63, 80
3, 89372, Note_off_c, 1, 54, 100
3, 89372, Note_off_c, 1, 57, 100
3, 89372, Note_off_c, 1, 59, 100
3, 89372, Note_off_c, 1, 63, 100
3, 89472, Note_on_c, 1, 54, 80
3, 89472, Note_on_c, 1, 57, 80
3, 89472, Note_on_c, 1, 59, 80
3, 89472, Note_on_c, 1, 63, 80
3, 89564, Note_off_c, 1, 54, 100
3, 89564, Note_off_c, 1, 57, 100
3, 89564, Note_off_c, 1, 59, 100
3, 89564, Note_off_c, 1, 63, 100
3, 89664, Note_on_c, 1, 54, 80
3, 89664, Note_on_c, 1, 57, 80
3, 89664, Note_on_c, 1, 59, 80
3, 89664, Note_on_c, 1, 63, 80
3, 89756, Note_off_c, 1, 54, 100
3, 89756, Note_off_c, 1, 57, 100
3, 89756, Note_off_c, 1, 59, 100
3, 89756, Note_off_c, 1, 63, 100
3, 89856, Note_on_c, 1, 47, 80
3, 89948, Note_off_c, 1, 47, 100
3, 90048, Note_on_c, 1, 56, 83
3, 90048, Note_on_c, 1, 59, 83
3, 90048, Note_on_c, 1, 64, 83
3, 90140, Note_off_c, 1, 56, 100
3, 90140, Note_off_c, 1, 59, 100
3, 90140, Note_off_c, 1, 64, 100
3, 90240, Note_on_c, 1, 56, 87
3, 90240, Note_on_c, 1, 59, 87
3, 90240, Note_on_c, 1, 64, 87
3, 90332, Note_off_c, 1, 56, 100
3, 90332, Note_off_c, 1, 59, 100
3, 90332, Note_off_c, 1, 64, 100
3, 90432, Note_on_c, 1, 56, 90
3, 90432, Note_on_c, 1, 59, 90
3, 90432, Note_on_c, 1, 64, 90
3, 90524, Note_off_c, 1, 56, 100
3, 90524, Note_off_c, 1, 59, 100
3, 90524, Note_off_c, 1, 64, 100
3, 90624, Note_on_c, 1, 49, 94
3, 90716, Note_off_c, 1, 49, 100
3, 90816, Note_on_c, 1, 55, 98
3, 90816, Note_on_c, 1, 58, 98
3, 90816, Note_on_c, 1, 64, 98
3, 90908, Note_off_c, 1, 55, 100
3, 90908, Note_off_c, 1, 58, 100
3, 90908, Note_off_c, 1, 64, 100
3, 91008, Note_on_c, 1, 48, 100
3, 91100, Note_off_c, 1, 48, 100
3, 91200, Note_on_c, 1, 55, 97
3, 91200, Note_on_c, 1, 58, 97
3, 91200, Note_on_c, 1, 64, 97
3, 91292, Note_off_c, 1, 55, 100
3, 91292, Note_off_c, 1, 58, 100
3, 91292, Note_off_c, 1, 64, 100
3, 91392, Note_on_c, 1, 55, 93
3, 91392, Note_on_c, 1, 58, 93
3, 91392, Note_on_c, 1, 64, 93
3, 91484, Note_off_c, 1, 55, 100
3, 91484, Note_off_c, 1, 58, 100
3, 91484, Note_off_c, 1, 64, 100
3, 91584, Note_on_c, 1, 55, 90
3, 91584, Note_on_c, 1, 58, 90
3, 91584, Note_on_c, 1, 64, 90
3, 91676, Note_off_c, 1, 55, 100
3, 91676, Note_off_c, 1, 58, 100
3, 91676, Note_off_c, 1, 64, 100
3, 91776, Note_on_c, 1, 48, 86
3, 91776, Note_on_c, 1, 55, 86
3, 91868, Note_off_c, 1, 48, 100
3, 91868, Note_off_c, 1, 55, 100
3, 91968, Note_on_c, 1, 47, 82
3, 91968, Note_on_c, 1, 59, 82
3, 92060, Note_off_c, 1, 47, 100
3, 92060, Note_off_c, 1, 59, 100
3, 92160, Note_on_c, 1, 63, 70
3, 92252, Note_off_c, 1, 63, 100
3, 92448, Note_on_c, 1, 71, 70
3, 92540, Note_off_c, 1, 71, 100
3, 92544, Note_on_c, 1, 63, 70
3, 92636, Note_off_c, 1, 63, 100
3, 92832, Note_on_c, 1, 71, 70
3, 92924, Note_off_c, 1, 71, 100
3, 92928, Note_on_c, 1, 65, 70
3, 93020, Note_off_c, 1, 65, 100
3, 93216, Note_on_c, 1, 68, 70
3, 93308, Note_off_c, 1, 68, 100
3, 93312, Note_on_c, 1, 66, 70
3, 93404, Note_off_c, 1, 66, 100
3, 93600, Note_on_c, 1, 73, 70
3, 93692, Note_off_c, 1, 73, 100
3, 93696, Note_on_c, 1, 64, 70
3, 93788, Note_off_c, 1, 64, 100
3, 93984, Note_on_c, 1, 67, 70
3, 94076, Note_off_c, 1, 67, 100
3, 94080, Note_on_c, 1, 72, 70
3, 94172, Note_off_c, 1, 72, 100
3, 94368, Note_on_c, 1, 63, 70
3, 94460, Note_off_c, 1, 63, 100
3, 94464, Note_on_c, 1, 64, 70
3, 94556, Note_off_c, 1, 64, 100
3, 94752, Note_on_c, 1, 76, 70
3, 94844, Note_off_c, 1, 76, 100
3, 94848, Note_on_c, 1, 75, 70
3, 94940, Note_off_c, 1, 75, 100
3, 95136, Note_on_c, 1, 63, 77
3, 95228, Note_off_c, 1, 63, 100
3, 95232, Note_on_c, 1, 62, 79
3, 95324, Note_off_c, 1, 62, 100
3, 95520, Note_on_c, 1, 74, 87
3, 95612, Note_off_c, 1, 74, 100
3, 95616, Note_on_c, 1, 75, 89
3, 95708, Note_off_c, 1, 75, 100
3, 95904, Note_on_c, 1, 63, 97
3, 95996, Note_off_c, 1, 63, 100
3, 96000, Note_on_c, 1, 64, 99
3, 96092, Note_off_c, 1, 64, 100
3, 96288, Note_on_c, 1, 63, 94
3, 96380, Note_off_c, 1, 63, 100
3, 96384, Note_on_c, 1, 56, 91
3, 96476, Note_off_c, 1, 56, 100
3, 96672, Note_on_c, 1, 54, 81
3, 96764, Note_off_c, 1, 54, 100
3, 96768, Note_on_c, 1, 66, 80
3, 96860, Note_off_c, 1, 66, 100
3, 97056, Note_on_c, 1, 77, 83
3, 97148, Note_off_c, 1, 77, 100
3, 97152, Note_on_c, 1, 78, 84
3, 97244, Note_off_c, 1, 78, 100
3, 97440, Note_on_c, 1, 73, 87
3, 97532, Note_off_c, 1, 73, 100
3, 97536, Note_on_c, 1, 78, 88
3, 97628, Note_off_c, 1, 78, 100
3, 97824, Note_on_c, 1, 73, 91
3, 97916, Note_off_c, 1, 73, 100
3, 97920, Note_on_c, 1, 78, 92
3, 98012, Note_off_c, 1, 78, 100
3, 98208, Note_on_c, 1, 75, 95
3, 98300, Note_off_c, 1, 75, 100
3, 98304, Note_on_c, 1, 81, 96
3, 98396, Note_off_c, 1, 81, 100
3, 98592, Note_on_c, 1, 75, 99
3, 98684, Note_off_c, 1, 75, 100
3, 98688, Note_on_c, 1, 83, 100
3, 98780, Note_off_c, 1, 83, 100
3, 98976, Note_on_c, 1, 76, 97
3, 99068, Note_off_c, 1, 76, 100
3, 99072, Note_on_c, 1, 83, 95
3, 99164, Note_off_c, 1, 83, 100
3, 99360, Note_on_c, 1, 71, 91
3, 99452, Note_off_c, 1, 71, 100
3, 99456, Note_on_c, 1, 72, 90
3, 99548, Note_off_c, 1, 72, 100
3, 99744, Note_on_c, 1, 73, 86
3, 99836, Note_off_c, 1, 73, 100
3, 99840, Note_on_c, 1, 73, 85
3, 99932, Note_off_c, 1, 73, 100
3, 100128, Note_on_c, 1, 75, 81
3, 100220, Note_off_c, 1, 75, 100
3, 100224, Note_on_c, 1, 76, 80
3, 100316, Note_off_c, 1, 76, 100
3, 100512, Note_on_c, 1, 63, 80
3, 100604, Note_off_c, 1, 63, 100
3, 100608, Note_on_c, 1, 64, 80
3, 100700, Note_off_c, 1, 64, 100
3, 100896, Note_on_c, 1, 51, 80
3, 100988, Note_off_c, 1, 51, 100
3, 100992, Note_on_c, 1, 52, 80
3, 101084, Note_off_c, 1, 52, 100
3, 101280, Note_on_c, 1, 50, 80
3, 101372, Note_off_c, 1, 50, 100
3, 101376, Note_on_c, 1, 62, 80
3, 101564, Note_off_c, 1, 62, 100
3, 101568, Note_on_c, 1, 50, 80
3, 101756, Note_off_c, 1, 50, 100
3, 101760, Note_on_c, 1, 50, 80
3, 101948, Note_off_c, 1, 50, 100
3, 101952, Note_on_c, 1, 50, 80
3, 102140, Note_off_c, 1, 50, 100
3, 102144, Note_on_c, 1, 50, 80
3, 102188, Note_off_c, 1, 50, 100
3, 102192, Note_on_c, 1, 52, 80
3, 102236, Note_off_c, 1, 52, 100
3, 102240, Note_on_c, 1, 50, 80
3, 102284, Note_off_c, 1, 50, 100
3, 102288, Note_on_c, 1, 52, 80
3, 102332, Note_off_c, 1, 52, 100
3, 102336, Note_on_c, 1, 50, 80
3, 102380, Note_off_c, 1, 50, 100
3, 102384, Note_on_c, 1, 52, 80
3, 102428, Note_off_c, 1, 52, 100
3, 102432, Note_on_c, 1, 49, 80
3, 102476, Note_off_c, 1, 49, 100
3, 102480, Note_on_c, 1, 50, 80
3, 102524, Note_off_c, 1, 50, 100
3, 102528, Note_on_c, 1, 49, 80
3, 102528, Note_on_c, 1, 53, 80
3, 102528, Note_on_c, 1, 56, 80
3, 102716, Note_off_c, 1, 49, 100
3, 102716, Note_off_c, 1, 53, 100
3, 102716, Note_off_c, 1, 56, 100
3, 102720, Note_on_c, 1, 49, 80
3, 102720, Note_on_c, 1, 53, 80
3, 102720, Note_on_c, 1, 56, 80
3, 102908, Note_off_c, 1, 49, 100
3, 102908, Note_off_c, 1, 53, 100
3, 102908, Note_off_c, 1, 56, 100
3, 102912, Note_on_c, 1, 49, 80
3, 102912, Note_on_c, 1, 53, 80
3, 102912, Note_on_c, 1, 56, 80
3, 103100, Note_off_c, 1, 49, 100
3, 103100, Note_off_c, 1, 53, 100
3, 103100, Note_off_c, 1, 56, 100
3, 103104, Note_on_c, 1, 49, 80
3, 103104, Note_on_c, 1, 53, 80
3, 103104, Note_on_c, 1, 56, 80
3, 103292, Note_off_c, 1, 49, 100
3, 103292, Note_off_c, 1, 53, 100
3, 103292, Note_off_c, 1, 56, 100
3, 103296, Note_on_c, 1, 49, 80
3, 103296, Note_on_c, 1, 53, 80
3, 103296, Note_on_c, 1, 56, 80
3, 103484, Note_off_c, 1, 49, 100
3, 103484, Note_off_c, 1, 53, 100
3, 103484, Note_off_c, 1, 56, 100
3, 103488, Note_on_c, 1, 49, 80
3, 103488, Note_on_c, 1, 53, 80
3, 103488, Note_on_c, 1, 56, 80
3, 103676, Note_off_c, 1, 49, 100
3, 103676, Note_off_c, 1, 53, 100
3, 103676, Note_off_c, 1, 56, 100
3, 103680, Note_on_c, 1, 49, 80
3, 103680, Note_on_c, 1, 54, 80
3, 103680, Note_on_c, 1, 57, 80
3, 103868, Note_off_c, 1, 49, 100
3, 103868, Note_off_c, 1, 54, 100
3, 103868, Note_off_c, 1, 57, 100
3, 103872, Note_on_c, 1, 49, 80
3, 103872, Note_on_c, 1, 54, 80
3, 103872, Note_on_c, 1, 57, 80
3, 104060, Note_off_c, 1, 49, 100
3, 104060, Note_off_c, 1, 54, 100
3, 104060, Note_off_c, 1, 57, 100
3, 104064, Note_on_c, 1, 49, 80
3, 104064, Note_on_c, 1, 54, 80
3, 104064, Note_on_c, 1, 57, 80
3, 104252, Note_off_c, 1, 49, 100
3, 104252, Note_off_c, 1, 54, 100
3, 104252, Note_off_c, 1, 57, 100
3, 104256, Note_on_c, 1, 49, 80
3, 104256, Note_on_c, 1, 54, 80
3, 104256, Note_on_c, 1, 57, 80
3, 104444, Note_off_c, 1, 49, 100
3, 104444, Note_off_c, 1, 54, 100
3, 104444, Note_off_c, 1, 57, 100
3, 104448, Note_on_c, 1, 49, 80
3, 104448, Note_on_c, 1, 52, 80
3, 104448, Note_on_c, 1, 57, 80
3, 104636, Note_off_c, 1, 49, 100
3, 104636, Note_off_c, 1, 52, 100
3, 104636, Note_off_c, 1, 57, 100
3, 104640, Note_on_c, 1, 49, 80
3, 104640, Note_on_c, 1, 52, 80
3, 104640, Note_on_c, 1, 57, 80
3, 104828, Note_off_c, 1, 49, 100
3, 104828, Note_off_c, 1, 52, 100
3, 104828, Note_off_c, 1, 57, 100
3, 104832, Note_on_c, 1, 47, 80
3, 104832, Note_on_c, 1, 52, 80
3, 104832, Note_on_c, 1, 56, 80
3, 105020, Note_off_c, 1, 47, 100
3, 105020, Note_off_c, 1, 52, 100
3, 105020, Note_off_c, 1, 56, 100
3, 105024, Note_on_c, 1, 47, 80
3, 105024, Note_on_c, 1, 52, 80
3, 105024, Note_on_c, 1, 56, 80
3, 105212, Note_off_c, 1, 47, 100
3, 105212, Note_off_c, 1, 52, 100
3, 105212, Note_off_c, 1, 56, 100
3, 105216, Note_on_c, 1, 46, 80
3, 105216, Note_on_c, 1, 52, 80
3, 105216, Note_on_c, 1, 55, 80
3, 105404, Note_off_c, 1, 46, 100
3, 105404, Note_off_c, 1, 52, 100
3, 105404, Note_off_c, 1, 55, 100
3, 105408, Note_on_c, 1, 46, 80
3, 105408, Note_on_c, 1, 51, 80
3, 105408, Note_on_c, 1, 55, 80
3, 105596, Note_off_c, 1, 46, 100
3, 105596, Note_off_c, 1, 51, 100
3, 105596, Note_off_c, 1, 55, 100
3, 105600, Note_on_c, 1, 44, 80
3, 105600, Note_on_c, 1, 51, 80
3, 105600, Note_on_c, 1, 56, 80
3, 105788, Note_off_c, 1, 44, 100
3, 105788, Note_off_c, 1, 51, 100
3, 105788, Note_off_c, 1, 56, 100
3, 105792, Note_on_c, 1, 44, 80
3, 105792, Note_on_c, 1, 47, 80
3, 105792, Note_on_c, 1, 52, 80
3, 105980, Note_off_c, 1, 44, 100
3, 105980, Note_off_c, 1, 47, 100
3, 105980, Note_off_c, 1, 52, 100
3, 105984, Note_on_c, 1, 42, 80
3, 105984, Note_on_c, 1, 54, 80
3, 106076, Note_off_c, 1, 42, 100
3, 106076, Note_off_c, 1, 54, 100
3, 106176, Note_on_c, 1, 54, 83
3, 106176, Note_on_c, 1, 57, 83
3, 106176, Note_on_c, 1, 61, 83
3, 106176, Note_on_c, 1, 64, 83
3, 106268, Note_off_c, 1, 54, 100
3, 106268, Note_off_c, 1, 57, 100
3, 106268, Note_off_c, 1, 61, 100
3, 106268, Note_off_c, 1, 64, 100
3, 106368, Note_on_c, 1, 54, 86
3, 106368, Note_on_c, 1, 57, 86
3, 106368, Note_on_c, 1, 61, 86
3, 106368, Note_on_c, 1, 64, 86
3, 106460, Note_off_c, 1, 54, 100
3, 106460, Note_off_c, 1, 57, 100
3, 106460, Note_off_c, 1, 61, 100
3, 106460, Note_off_c, 1, 64, 100
3, 106560, Note_on_c, 1, 54, 89
3, 106560, Note_on_c, 1, 57, 89
3, 106560, Note_on_c, 1, 61, 89
3, 106560, Note_on_c, 1, 64, 89
3, 106652, Note_off_c, 1, 54, 100
3, 106652, Note_off_c, 1, 57, 100
3, 106652, Note_off_c, 1, 61, 100
3, 106652, Note_off_c, 1, 64, 100
3, 106752, Note_on_c, 1, 54, 92
3, 106752, Note_on_c, 1, 57, 92
3, 106752, Note_on_c, 1, 61, 92
3, 106752, Note_on_c, 1, 64, 92
3, 106844, Note_off_c, 1, 54, 100
3, 106844, Note_off_c, 1, 57, 100
3, 106844, Note_off_c, 1, 61, 100
3, 106844, Note_off_c, 1, 64, 100
3, 106944, Note_on_c, 1, 54, 95
3, 106944, Note_on_c, 1, 57, 95
3, 106944, Note_on_c, 1, 61, 95
3, 106944, Note_on_c, 1, 64, 95
3, 107036, Note_off_c, 1, 54, 100
3, 107036, Note_off_c, 1, 57, 100
3, 107036, Note_off_c, 1, 61, 100
3, 107036, Note_off_c, 1, 64, 100
3, 107136, Note_on_c, 1, 42, 98
3, 107228, Note_off_c, 1, 42, 100
3, 107328, Note_on_c, 1, 54, 102
3, 107328, Note_on_c, 1, 57, 102
3, 107328, Note_on_c, 1, 59, 102
3, 107328, Note_on_c, 1, 63, 102
3, 107420, Note_off_c, 1, 54, 100
3, 107420, Note_off_c, 1, 57, 100
3, 107420, Note_off_c, 1, 59, 100
3, 107420, Note_off_c, 1, 63, 100
3, 107520, Note_on_c, 1, 54, 105
3, 107520, Note_on_c, 1, 57, 105
3, 107520, Note_on_c, 1, 59, 105
3, 107520, Note_on_c, 1, 63, 105
3, 107612, Note_off_c, 1, 54, 100
3, 107612, Note_off_c, 1, 57, 100
3, 107612, Note_off_c, 1, 59, 100
3, 107612, Note_off_c, 1, 63, 100
3, 107712, Note_on_c, 1, 54, 108
3, 107712, Note_on_c, 1, 57, 108
3, 107712, Note_on_c, 1, 59, 108
3, 107712, Note_on_c, 1, 63, 108
3, 107804, Note_off_c, 1, 54, 100
3, 107804, Note_off_c, 1, 57, 100
3, 107804, Note_off_c, 1, 59, 100
3, 107804, Note_off_c, 1, 63, 100
3, 107904, Note_on_c, 1, 54, 100
3, 107904, Note_on_c, 1, 57, 100
3, 107904, Note_on_c, 1, 59, 100
3, 107904, Note_on_c, 1, 63, 100
3, 107996, Note_off_c, 1, 54, 100
3, 107996, Note_off_c, 1, 57, 100
3, 107996, Note_off_c, 1, 59, 100
3, 107996, Note_off_c, 1, 63, 100
3, 108096, Note_on_c, 1, 56, 94
3, 108096, Note_on_c, 1, 64, 94
3, 108096, Note_on_c, 1, 59, 94
3, 108188, Note_off_c, 1, 56, 100
3, 108188, Note_off_c, 1, 64, 100
3, 108188, Note_off_c, 1, 59, 100
3, 108288, Note_on_c, 1, 49, 80
3, 108380, Note_off_c, 1, 49, 100
3, 108480, Note_on_c, 1, 56, 80
3, 108480, Note_on_c, 1, 61, 80
3, 108480, Note_on_c, 1, 64, 80
3, 108572, Note_off_c, 1, 56, 100
3, 108572, Note_off_c, 1, 61, 100
3, 108572, Note_off_c, 1, 64, 100
3, 108672, Note_on_c, 1, 47, 80
3, 108764, Note_off_c, 1, 47, 100
3, 108864, Note_on_c, 1, 56, 80
3, 108864, Note_on_c, 1, 59, 80
3, 108864, Note_on_c, 1, 64, 80
3, 108956, Note_off_c, 1, 56, 100
3, 108956, Note_off_c, 1, 59, 100
3, 108956, Note_off_c, 1, 64, 100
3, 109056, Note_on_c, 1, 47, 80
3, 109148, Note_off_c, 1, 47, 100
3, 109248, Note_on_c, 1, 60, 80
3, 109248, Note_on_c, 1, 63, 80
3, 109248, Note_on_c, 1, 66, 80
3, 109248, Note_on_c, 1, 69, 80
3, 109340, Note_off_c, 1, 60, 100
3, 109340, Note_off_c, 1, 63, 100
3, 109340, Note_off_c, 1, 66, 100
3, 109340, Note_off_c, 1, 69, 100
3, 109440, Note_on_c, 1, 59, 80
3, 109440, Note_on_c, 1, 63, 80
3, 109440, Note_on_c, 1, 66, 80
3, 109440, Note_on_c, 1, 69, 80
3, 109532, Note_off_c, 1, 59, 100
3, 109532, Note_off_c, 1, 63, 100
3, 109532, Note_off_c, 1, 66, 100
3, 109532, Note_off_c, 1, 69, 100
3, 109632, Note_on_c, 1, 60, 80
3, 109632, Note_on_c, 1, 63, 80
3, 109632, Note_on_c, 1, 66, 80
3, 109632, Note_on_c, 1, 69, 80
3, 109724, Note_off_c, 1, 60, 100
3, 109724, Note_off_c, 1, 63, 100
3, 109724, Note_off_c, 1, 66, 100
3, 109724, Note_off_c, 1, 69, 100
3, 109824, Note_on_c, 1, 59, 80
3, 109824, Note_on_c, 1, 63, 80
3, 109824, Note_on_c, 1, 66, 80
3, 109824, Note_on_c, 1, 69, 80
3, 109916, Note_off_c, 1, 59, 100
3, 109916, Note_off_c, 1, 63, 100
3, 109916, Note_off_c, 1, 66, 100
3, 109916, Note_off_c, 1, 69, 100
3, 110016, Note_on_c, 1, 48, 80
3, 110016, Note_on_c, 1, 54, 80
3, 110016, Note_on_c, 1, 57, 80
3, 110108, Note_off_c, 1, 48, 100
3, 110108, Note_off_c, 1, 54, 100
3, 110108, Note_off_c, 1, 57, 100
3, 110208, Note_on_c, 1, 35, 80
3, 110208, Note_on_c, 1, 47, 80
3, 110300, Note_off_c, 1, 35, 100
3, 110300, Note_off_c, 1, 47, 100
3, 110400, Note_on_c, 1, 40, 80
3, 110400, Note_on_c, 1, 52, 80
3, 110492, Note_off_c, 1, 40, 100
3, 110492, Note_off_c, 1, 52, 100
3, 110592, Note_on_c, 1, 56, 110
3, 110684, Note_off_c, 1, 56, 100
3, 110688, Note_on_c, 1, 59, 110
3, 110780, Note_off_c, 1, 59, 100
3, 110784, Note_on_c, 1, 57, 110
3, 110876, Note_off_c, 1, 57, 100
3, 110880, Note_on_c, 1, 56, 110
3, 110972, Note_off_c, 1, 56, 100
3, 110976, Note_on_c, 1, 52, 110
3, 111068, Note_off_c, 1, 52, 100
3, 111072, Note_on_c, 1, 56, 110
3, 111164, Note_off_c, 1, 56, 100
3, 111168, Note_on_c, 1, 54, 110
3, 111260, Note_off_c, 1, 54, 100
3, 111264, Note_on_c, 1, 52, 110
3, 111356, Note_off_c, 1, 52, 100
3, 111360, Note_on_c, 1, 51, 110
3, 111452, Note_off_c, 1, 51, 100
3, 111456, Note_on_c, 1, 54, 110
3, 111548, Note_off_c, 1, 54, 100
3, 111552, Note_on_c, 1, 52, 110
3, 111644, Note_off_c, 1, 52, 100
3, 111648, Note_on_c, 1, 51, 110
3, 111740, Note_off_c, 1, 51, 100
3, 111744, Note_on_c, 1, 47, 110
3, 111836, Note_off_c, 1, 47, 100
3, 111840, Note_on_c, 1, 51, 110
3, 111932, Note_off_c, 1, 51, 100
3, 111936, Note_on_c, 1, 49, 110
3, 112028, Note_off_c, 1, 49, 100
3, 112032, Note_on_c, 1, 47, 110
3, 112124, Note_off_c, 1, 47, 100
3, 112128, Note_on_c, 1, 44, 110
3, 112220, Note_off_c, 1, 44, 100
3, 112224, Note_on_c, 1, 47, 110
3, 112316, Note_off_c, 1, 47, 100
3, 112320, Note_on_c, 1, 45, 110
3, 112412, Note_off_c, 1, 45, 100
3, 112416, Note_on_c, 1, 44, 110
3, 112508, Note_off_c, 1, 44, 100
3, 112512, Note_on_c, 1, 40, 110
3, 112604, Note_off_c, 1, 40, 100
3, 112608, Note_on_c, 1, 44, 110
3, 112700, Note_off_c, 1, 44, 100
3, 112704, Note_on_c, 1, 42, 110
3, 112796, Note_off_c, 1, 42, 100
3, 112800, Note_on_c, 1, 40, 110
3, 112892, Note_off_c, 1, 40, 100
3, 112896, Note_on_c, 1, 37, 110
3, 112988, Note_off_c, 1, 37, 100
3, 112992, Note_on_c, 1, 40, 110
3, 113084, Note_off_c, 1, 40, 100
3, 113088, Note_on_c, 1, 39, 110
3, 113180, Note_off_c, 1, 39, 100
3, 113184, Note_on_c, 1, 37, 110
3, 113276, Note_off_c, 1, 37, 100
3, 113280, Note_on_c, 1, 35, 110
3, 113372, Note_off_c, 1, 35, 100
3, 113376, Note_on_c, 1, 37, 110
3, 113468, Note_off_c, 1, 37, 100
3, 113472, Note_on_c, 1, 38, 110
3, 113564, Note_off_c, 1, 38, 100
3, 113568, Note_on_c, 1, 39, 110
3, 113660, Note_off_c, 1, 39, 100
3, 113664, Note_on_c, 1, 40, 110
3, 113852, Note_off_c, 1, 40, 100
3, 114048, Note_on_c, 1, 44, 110
3, 114236, Note_off_c, 1, 44, 100
3, 114432, Note_on_c, 1, 47, 110
3, 114620, Note_off_c, 1, 47, 100
3, 114816, Note_on_c, 1, 51, 110
3, 115004, Note_off_c, 1, 51, 100
3, 115200, Note_on_c, 1, 52, 110
3, 115388, Note_off_c, 1, 52, 100
3, 115584, Note_on_c, 1, 56, 110
3, 115772, Note_off_c, 1, 56, 100
3, 115968, Note_on_c, 1, 58, 124
3, 116156, Note_off_c, 1, 58, 100
3, 116160, Note_on_c, 1, 58, 110
3, 116348, Note_off_c, 1, 58, 100
3, 116352, Note_on_c, 1, 59, 110
3, 116540, Note_off_c, 1, 59, 100
3, 116736, Note_on_c, 1, 56, 80
3, 116828, Note_off_c, 1, 56, 100
3, 116832, Note_on_c, 1, 59, 81
3, 116924, Note_off_c, 1, 59, 100
3, 116928, Note_on_c, 1, 57, 82
3, 117020, Note_off_c, 1, 57, 100
3, 117024, Note_on_c, 1, 56, 83
3, 117116, Note_off_c, 1, 56, 100
3, 117120, Note_on_c, 1, 54, 85
3, 117212, Note_off_c, 1, 54, 100
3, 117216, Note_on_c, 1, 52, 86
3, 117308, Note_off_c, 1, 52, 100
3, 117312, Note_on_c, 1, 51, 87
3, 117404, Note_off_c, 1, 51, 100
3, 117408, Note_on_c, 1, 52, 89
3, 117500, Note_off_c, 1, 52, 100
3, 117504, Note_on_c, 1, 51, 90
3, 117596, Note_off_c, 1, 51, 100
3, 117600, Note_on_c, 1, 54, 91
3, 117692, Note_off_c, 1, 54, 100
3, 117696, Note_on_c, 1, 52, 93
3, 117788, Note_off_c, 1, 52, 100
3, 117792, Note_on_c, 1, 51, 94
3, 117884, Note_off_c, 1, 51, 100
3, 117888, Note_on_c, 1, 49, 95
3, 117980, Note_off_c, 1, 49, 100
3, 117984, Note_on_c, 1, 47, 96
3, 118076, Note_off_c, 1, 47, 100
3, 118080, Note_on_c, 1, 46, 98
3, 118172, Note_off_c, 1, 46, 100
3, 118176, Note_on_c, 1, 45, 99
3, 118268, Note_off_c, 1, 45, 100
3, 118272, Note_on_c, 1, 44, 100
3, 118364, Note_off_c, 1, 44, 100
3, 118368, Note_on_c, 1, 47, 102
3, 118460, Note_off_c, 1, 47, 100
3, 118464, Note_on_c, 1, 45, 103
3, 118556, Note_off_c, 1, 45, 100
3, 118560, Note_on_c, 1, 44, 104
3, 118652, Note_off_c, 1, 44, 100
3, 118656, Note_on_c, 1, 42, 106
3, 118748, Note_off_c, 1, 42, 100
3, 118752, Note_on_c, 1, 40, 107
3, 118844, Note_off_c, 1, 40, 100
3, 118848, Note_on_c, 1, 39, 108
3, 118940, Note_off_c, 1, 39, 100
3, 118944, Note_on_c, 1, 40, 109
3, 119036, Note_off_c, 1, 40, 100
3, 119040, Note_on_c, 1, 39, 110
3, 119132, Note_off_c, 1, 39, 100
3, 119136, Note_on_c, 1, 37, 110
3, 119228, Note_off_c, 1, 37, 100
3, 119232, Note_on_c, 1, 42, 110
3, 119324, Note_off_c, 1, 42, 100
3, 119328, Note_on_c, 1, 40, 110
3, 119420, Note_off_c, 1, 40, 100
3, 119424, Note_on_c, 1, 39, 110
3, 119516, Note_off_c, 1, 39, 100
3, 119520, Note_on_c, 1, 35, 110
3, 119612, Note_off_c, 1, 35, 100
3, 119616, Note_on_c, 1, 37, 110
3, 119708, Note_off_c, 1, 37, 100
3, 119712, Note_on_c, 1, 39, 110
3, 119804, Note_off_c, 1, 39, 100
3, 119808, Note_on_c, 1, 40, 80
3, 119996, Note_off_c, 1, 40, 100
3, 120000, Note_on_c, 1, 42, 82
3, 120188, Note_off_c, 1, 42, 100
3, 120192, Note_on_c, 1, 44, 85
3, 120380, Note_off_c, 1, 44, 100
3, 120384, Note_on_c, 1, 45, 87
3, 120572, Note_off_c, 1, 45, 100
3, 120576, Note_on_c, 1, 47, 90
3, 120764, Note_off_c, 1, 47, 100
3, 120768, Note_on_c, 1, 49, 93
3, 120956, Note_off_c, 1, 49, 100
3, 120960, Note_on_c, 1, 50, 95
3, 121148, Note_off_c, 1, 50, 100
3, 121152, Note_on_c, 1, 51, 98
3, 121340, Note_off_c, 1, 51, 100
3, 121344, Note_on_c, 1, 52, 100
3, 121532, Note_off_c, 1, 52, 100
3, 121536, Note_on_c, 1, 54, 103
3, 121724, Note_off_c, 1, 54, 100
3, 121728, Note_on_c, 1, 56, 106
3, 121916, Note_off_c, 1, 56, 100
3, 121920, Note_on_c, 1, 57, 108
3, 122108, Note_off_c, 1, 57, 100
3, 122112, Note_on_c, 1, 58, 110
3, 122300, Note_off_c, 1, 58, 100
3, 122304, Note_on_c, 1, 59, 110
3, 122492, Note_off_c, 1, 59, 100
3, 122496, Note_on_c, 1, 60, 110
3, 122684, Note_off_c, 1, 60, 100
3, 122688, Note_on_c, 1, 59, 110
3, 122876, Note_off_c, 1, 59, 100
3, 122880, Note_on_c, 1, 56, 80
3, 122972, Note_off_c, 1, 56, 100
3, 122976, Note_on_c, 1, 59, 80
3, 123068, Note_off_c, 1, 59, 100
3, 123072, Note_on_c, 1, 57, 80
3, 123164, Note_off_c, 1, 57, 100
3, 123168, Note_on_c, 1, 56, 80
3, 123260, Note_off_c, 1, 56, 100
3, 123264, Note_on_c, 1, 54, 80
3, 123356, Note_off_c, 1, 54, 100
3, 123360, Note_on_c, 1, 53, 80
3, 123452, Note_off_c, 1, 53, 100
3, 123456, Note_on_c, 1, 51, 80
3, 123548, Note_off_c, 1, 51, 100
3, 123552, Note_on_c, 1, 53, 80
3, 123644, Note_off_c, 1, 53, 100
3, 123648, Note_on_c, 1, 54, 80
3, 123740, Note_off_c, 1, 54, 100
3, 123744, Note_on_c, 1, 57, 80
3, 123836, Note_off_c, 1, 57, 100
3, 123840, Note_on_c, 1, 56, 80
3, 123932, Note_off_c, 1, 56, 100
3, 123936, Note_on_c, 1, 54, 80
3, 124028, Note_off_c, 1, 54, 100
3, 124032, Note_on_c, 1, 52, 80
3, 124124, Note_off_c, 1, 52, 100
3, 124128, Note_on_c, 1, 51, 80
3, 124220, Note_off_c, 1, 51, 100
3, 124224, Note_on_c, 1, 49, 80
3, 124316, Note_off_c, 1, 49, 100
3, 124320, Note_on_c, 1, 51, 80
3, 124412, Note_off_c, 1, 51, 100
3, 124416, Note_on_c, 1, 52, 80
3, 124508, Note_off_c, 1, 52, 100
3, 124512, Note_on_c, 1, 56, 80
3, 124604, Note_off_c, 1, 56, 100
3, 124608, Note_on_c, 1, 54, 80
3, 124700, Note_off_c, 1, 54, 100
3, 124704, Note_on_c, 1, 52, 80
3, 124796, Note_off_c, 1, 52, 100
3, 124800, Note_on_c, 1, 51, 80
3, 124892, Note_off_c, 1, 51, 100
3, 124896, Note_on_c, 1, 49, 80
3, 124988, Note_off_c, 1, 49, 100
3, 124992, Note_on_c, 1, 48, 80
3, 125084, Note_off_c, 1, 48, 100
3, 125088, Note_on_c, 1, 49, 80
3, 125180, Note_off_c, 1, 49, 100
3, 125184, Note_on_c, 1, 51, 80
3, 125276, Note_off_c, 1, 51, 100
3, 125280, Note_on_c, 1, 49, 83
3, 125372, Note_off_c, 1, 49, 100
3, 125376, Note_on_c, 1, 47, 87
3, 125468, Note_off_c, 1, 47, 100
3, 125472, Note_on_c, 1, 46, 91
3, 125564, Note_off_c, 1, 46, 100
3, 125568, Note_on_c, 1, 44, 94
3, 125660, Note_off_c, 1, 44, 100
3, 125664, Note_on_c, 1, 42, 98
3, 125756, Note_off_c, 1, 42, 100
3, 125760, Note_on_c, 1, 40, 102
3, 125852, Note_off_c, 1, 40, 100
3, 125856, Note_on_c, 1, 38, 106
3, 125948, Note_off_c, 1, 38, 100
3, 125952, Note_on_c, 1, 37, 110
3, 126140, Note_off_c, 1, 37, 100
3, 126144, Note_on_c, 1, 45, 110
3, 126144, Note_on_c, 1, 57, 110
3, 126332, Note_off_c, 1, 45, 100
3, 126332, Note_off_c, 1, 57, 100
3, 126336, Note_on_c, 1, 45, 110
3, 126336, Note_on_c, 1, 57, 110
3, 126524, Note_off_c, 1, 45, 100
3, 126524, Note_off_c, 1, 57, 100
3, 126528, Note_on_c, 1, 49, 110
3, 126528, Note_on_c, 1, 61, 110
3, 126716, Note_off_c, 1, 49, 100
3, 126716, Note_off_c, 1, 61, 100
3, 126720, Note_on_c, 1, 49, 110
3, 126720, Note_on_c, 1, 61, 110
3, 126908, Note_off_c, 1, 49, 100
3, 126908, Note_off_c, 1, 61, 100
3, 126912, Note_on_c, 1, 47, 110
3, 126912, Note_on_c, 1, 59, 110
3, 127100, Note_off_c, 1, 47, 100
3, 127100, Note_off_c, 1, 59, 100
3, 127104, Note_on_c, 1, 45, 110
3, 127104, Note_on_c, 1, 57, 110
3, 127292, Note_off_c, 1, 45, 100
3, 127292, Note_off_c, 1, 57, 100
3, 127296, Note_on_c, 1, 44, 110
3, 127296, Note_on_c, 1, 56, 110
3, 127484, Note_off_c, 1, 44, 100
3, 127484, Note_off_c, 1, 56, 100
3, 127488, Note_on_c, 1, 44, 110
3, 127488, Note_on_c, 1, 56, 110
3, 127676, Note_off_c, 1, 44, 100
3, 127676, Note_off_c, 1, 56, 100
3, 127680, Note_on_c, 1, 42, 110
3, 127680, Note_on_c, 1, 54, 110
3, 127868, Note_off_c, 1, 42, 100
3, 127868, Note_off_c, 1, 54, 100
3, 127872, Note_on_c, 1, 42, 110
3, 127872, Note_on_c, 1, 54, 110
3, 128060, Note_off_c, 1, 42, 100
3, 128060, Note_off_c, 1, 54, 100
3, 128064, Note_on_c, 1, 44, 110
3, 128064, Note_on_c, 1, 56, 110
3, 128252, Note_off_c, 1, 44, 100
3, 128252, Note_off_c, 1, 56, 100
3, 128256, Note_on_c, 1, 45, 110
3, 128256, Note_on_c, 1, 57, 110
3, 128444, Note_off_c, 1, 45, 100
3, 128444, Note_off_c, 1, 57, 100
3, 128448, Note_on_c, 1, 47, 110
3, 128448, Note_on_c, 1, 59, 110
3, 128636, Note_off_c, 1, 47, 100
3, 128636, Note_off_c, 1, 59, 100
3, 128640, Note_on_c, 1, 44, 110
3, 128640, Note_on_c, 1, 56, 110
3, 128828, Note_off_c, 1, 44, 100
3, 128828, Note_off_c, 1, 56, 100
3, 128832, Note_on_c, 1, 59, 110
3, 128832, Note_on_c, 1, 71, 110
3, 129020, Note_off_c, 1, 59, 100
3, 129020, Note_off_c, 1, 71, 100
3, 129024, Note_on_c, 1, 59, 80
3, 129024, Note_on_c, 1, 71, 80
3, 129212, Note_off_c, 1, 59, 100
3, 129212, Note_off_c, 1, 71, 100
3, 129216, Note_on_c, 1, 59, 80
3, 129216, Note_on_c, 1, 71, 80
3, 129404, Note_off_c, 1, 59, 100
3, 129404, Note_off_c, 1, 71, 100
3, 129408, Note_on_c, 1, 59, 80
3, 129408, Note_on_c, 1, 71, 80
3, 129596, Note_off_c, 1, 59, 100
3, 129596, Note_off_c, 1, 71, 100
3, 129600, Note_on_c, 1, 61, 80
3, 129600, Note_on_c, 1, 73, 80
3, 129788, Note_off_c, 1, 61, 100
3, 129788, Note_off_c, 1, 73, 100
3, 129792, Note_on_c, 1, 59, 80
3, 129792, Note_on_c, 1, 71, 80
3, 129980, Note_off_c, 1, 59, 100
3, 129980, Note_off_c, 1, 71, 100
3, 129984, Note_on_c, 1, 57, 80
3, 129984, Note_on_c, 1, 69, 80
3, 130172, Note_off_c, 1, 57, 100
3, 130172, Note_off_c, 1, 69, 100
3, 130176, Note_on_c, 1, 57, 80
3, 130176, Note_on_c, 1, 69, 80
3, 130364, Note_off_c, 1, 57, 100
3, 130364, Note_off_c, 1, 69, 100
3, 130368, Note_on_c, 1, 59, 80
3, 130368, Note_on_c, 1, 71, 80
3, 130556, Note_off_c, 1, 59, 100
3, 130556, Note_off_c, 1, 71, 100
3, 130560, Note_on_c, 1, 57, 80
3, 130560, Note_on_c, 1, 69, 80
3, 130748, Note_off_c, 1, 57, 100
3, 130748, Note_off_c, 1, 69, 100
3, 130752, Note_on_c, 1, 56, 80
3, 130752, Note_on_c, 1, 68, 80
3, 130940, Note_off_c, 1, 56, 100
3, 130940, Note_off_c, 1, 68, 100
3, 130944, Note_on_c, 1, 56, 80
3, 130944, Note_on_c, 1, 68, 80
3, 131132, Note_off_c, 1, 56, 100
3, 131132, Note_off_c, 1, 68, 100
3, 131136, Note_on_c, 1, 57, 80
3, 131136, Note_on_c, 1, 69, 80
3, 131324, Note_off_c, 1, 57, 100
3, 131324, Note_off_c, 1, 69, 100
3, 131328, Note_on_c, 1, 56, 80
3, 131328, Note_on_c, 1, 68, 80
3, 131516, Note_off_c, 1, 56, 100
3, 131516, Note_off_c, 1, 68, 100
3, 131520, Note_on_c, 1, 55, 87
3, 131520, Note_on_c, 1, 67, 87
3, 131708, Note_off_c, 1, 55, 100
3, 131708, Note_off_c, 1, 67, 100
3, 131712, Note_on_c, 1, 56, 94
3, 131712, Note_on_c, 1, 68, 94
3, 131900, Note_off_c, 1, 56, 100
3, 131900, Note_off_c, 1, 68, 100
3, 131904, Note_on_c, 1, 59, 102
3, 132188, Note_off_c, 1, 59, 64
3, 132192, Note_on_c, 1, 57, 110
3, 132284, Note_off_c, 1, 57, 100
3, 132288, Note_on_c, 1, 61, 110
3, 132380, Note_off_c, 1, 61, 100
3, 132384, Note_on_c, 1, 59, 110
3, 132476, Note_off_c, 1, 59, 100
3, 132480, Note_on_c, 1, 57, 110
3, 132572, Note_off_c, 1, 57, 100
3, 132576, Note_on_c, 1, 56, 110
3, 132668, Note_off_c, 1, 56, 100
3, 132672, Note_on_c, 1, 54, 110
3, 132764, Note_off_c, 1, 54, 100
3, 132768, Note_on_c, 1, 52, 110
3, 132860, Note_off_c, 1, 52, 100
3, 132864, Note_on_c, 1, 51, 110
3, 132956, Note_off_c, 1, 51, 100
3, 132960, Note_on_c, 1, 47, 110
3, 133052, Note_off_c, 1, 47, 100
3, 133056, Note_on_c, 1, 49, 110
3, 133148, Note_off_c, 1, 49, 100
3, 133152, Note_on_c, 1, 51, 110
3, 133244, Note_off_c, 1, 51, 100
3, 133248, Note_on_c, 1, 52, 110
3, 133340, Note_off_c, 1, 52, 100
3, 133344, Note_on_c, 1, 54, 110
3, 133436, Note_off_c, 1, 54, 100
3, 133440, Note_on_c, 1, 56, 110
3, 133532, Note_off_c, 1, 56, 100
3, 133536, Note_on_c, 1, 57, 110
3, 133628, Note_off_c, 1, 57, 100
3, 133632, Note_on_c, 1, 59, 110
3, 133724, Note_off_c, 1, 59, 100
3, 133728, Note_on_c, 1, 58, 110
3, 133820, Note_off_c, 1, 58, 100
3, 133824, Note_on_c, 1, 59, 110
3, 133916, Note_off_c, 1, 59, 100
3, 133920, Note_on_c, 1, 61, 110
3, 134012, Note_off_c, 1, 61, 100
3, 134016, Note_on_c, 1, 63, 110
3, 134108, Note_off_c, 1, 63, 100
3, 134112, Note_on_c, 1, 64, 110
3, 134204, Note_off_c, 1, 64, 100
3, 134208, Note_on_c, 1, 66, 110
3, 134300, Note_off_c, 1, 66, 100
3, 134304, Note_on_c, 1, 64, 110
3, 134396, Note_off_c, 1, 64, 100
3, 134400, Note_on_c, 1, 63, 110
3, 134492, Note_off_c, 1, 63, 100
3, 134496, Note_on_c, 1, 59, 110
3, 134588, Note_off_c, 1, 59, 100
3, 134592, Note_on_c, 1, 61, 110
3, 134684, Note_off_c, 1, 61, 100
3, 134688, Note_on_c, 1, 63, 110
3, 134780, Note_off_c, 1, 63, 100
3, 134784, Note_on_c, 1, 64, 110
3, 134876, Note_off_c, 1, 64, 100
3, 134880, Note_on_c, 1, 63, 110
3, 134972, Note_off_c, 1, 63, 100
3, 134976, Note_on_c, 1, 64, 110
3, 135068, Note_off_c, 1, 64, 100
3, 135072, Note_on_c, 1, 66, 110
3, 135164, Note_off_c, 1, 66, 100
3, 135168, Note_on_c, 1, 47, 80
3, 135548, Note_off_c, 1, 47, 100
3, 135744, Note_on_c, 1, 56, 80
3, 135836, Note_off_c, 1, 56, 100
3, 135840, Note_on_c, 1, 57, 80
3, 135932, Note_off_c, 1, 57, 100
3, 135936, Note_on_c, 1, 59, 80
3, 136028, Note_off_c, 1, 59, 100
3, 136032, Note_on_c, 1, 52, 80
3, 136124, Note_off_c, 1, 52, 100
3, 136128, Note_on_c, 1, 54, 80
3, 136220, Note_off_c, 1, 54, 100
3, 136224, Note_on_c, 1, 56, 80
3, 136320, Note_on_c, 1, 47, 80
3, 136700, Note_off_c, 1, 47, 100
3, 136892, Note_off_c, 1, 56, 64
3, 136896, Note_on_c, 1, 57, 80
3, 136988, Note_off_c, 1, 57, 100
3, 136992, Note_on_c, 1, 59, 80
3, 137084, Note_off_c, 1, 59, 100
3, 137088, Note_on_c, 1, 61, 80
3, 137180, Note_off_c, 1, 61, 100
3, 137184, Note_on_c, 1, 54, 80
3, 137276, Note_off_c, 1, 54, 100
3, 137280, Note_on_c, 1, 56, 80
3, 137372, Note_off_c, 1, 56, 100
3, 137376, Note_on_c, 1, 57, 80
3, 137468, Note_off_c, 1, 57, 100
3, 137472, Note_on_c, 1, 47, 80
3, 137472, Note_on_c, 1, 42, 80
3, 137564, Note_off_c, 1, 42, 100
3, 137568, Note_on_c, 1, 44, 80
3, 137660, Note_off_c, 1, 44, 100
3, 137664, Note_on_c, 1, 45, 80
3, 137756, Note_off_c, 1, 45, 100
3, 137760, Note_on_c, 1, 42, 80
3, 137852, Note_off_c, 1, 47, 100
3, 137852, Note_off_c, 1, 42, 100
3, 137856, Note_on_c, 1, 44, 80
3, 137948, Note_off_c, 1, 44, 100
3, 137952, Note_on_c, 1, 45, 80
3, 138044, Note_off_c, 1, 45, 100
3, 138048, Note_on_c, 1, 35, 80
3, 138428, Note_off_c, 1, 35, 100
3, 138624, Note_on_c, 1, 59, 80
3, 138716, Note_off_c, 1, 59, 100
3, 138720, Note_on_c, 1, 63, 80
3, 138812, Note_off_c, 1, 63, 100
3, 138816, Note_on_c, 1, 64, 80
3, 138908, Note_off_c, 1, 64, 100
3, 138912, Note_on_c, 1, 56, 80
3, 139004, Note_off_c, 1, 56, 100
3, 139008, Note_on_c, 1, 57, 80
3, 139100, Note_off_c, 1, 57, 100
3, 139104, Note_on_c, 1, 59, 80
3, 139196, Note_off_c, 1, 59, 100
3, 139200, Note_on_c, 1, 47, 80
3, 139580, Note_off_c, 1, 47, 100
3, 139776, Note_on_c, 1, 56, 80
3, 139776, Note_on_c, 1, 59, 80
3, 139868, Note_off_c, 1, 56, 100
3, 139872, Note_on_c, 1, 57, 80
3, 139964, Note_off_c, 1, 59, 100
3, 139964, Note_off_c, 1, 57, 100
3, 139968, Note_on_c, 1, 59, 80
3, 140060, Note_off_c, 1, 59, 100
3, 140064, Note_on_c, 1, 52, 80
3, 140156, Note_off_c, 1, 52, 100
3, 140160, Note_on_c, 1, 54, 80
3, 140252, Note_off_c, 1, 54, 100
3, 140256, Note_on_c, 1, 56, 80
3, 140348, Note_off_c, 1, 56, 100
3, 140352, Note_on_c, 1, 47, 80
3, 140732, Note_off_c, 1, 47, 100
3, 140928, Note_on_c, 1, 54, 80
3, 140928, Note_on_c, 1, 59, 80
3, 141020, Note_off_c, 1, 54, 100
3, 141024, Note_on_c, 1, 56, 80
3, 141116, Note_off_c, 1, 59, 100
3, 141116, Note_off_c, 1, 56, 100
3, 141120, Note_on_c, 1, 57, 80
3, 141212, Note_off_c, 1, 57, 100
3, 141216, Note_on_c, 1, 54, 80
3, 141308, Note_off_c, 1, 54, 100
3, 141312, Note_on_c, 1, 56, 80
3, 141404, Note_off_c, 1, 56, 100
3, 141408, Note_on_c, 1, 57, 80
3, 141500, Note_off_c, 1, 57, 100
3, 141504, Note_on_c, 1, 47, 80
3, 141596, Note_off_c, 1, 47, 100
3, 141600, Note_on_c, 1, 49, 80
3, 141692, Note_off_c, 1, 49, 100
3, 141696, Note_on_c, 1, 51, 80
3, 141788, Note_off_c, 1, 51, 100
3, 141792, Note_on_c, 1, 47, 80
3, 141884, Note_off_c, 1, 47, 100
3, 141888, Note_on_c, 1, 49, 80
3, 141980, Note_off_c, 1, 49, 100
3, 141984, Note_on_c, 1, 51, 80
3, 142076, Note_off_c, 1, 51, 100
3, 142080, Note_on_c, 1, 47, 80
3, 142172, Note_off_c, 1, 47, 100
3, 142176, Note_on_c, 1, 51, 80
3, 142268, Note_off_c, 1, 51, 100
3, 142272, Note_on_c, 1, 52, 80
3, 142364, Note_off_c, 1, 52, 100
3, 142368, Note_on_c, 1, 44, 80
3, 142460, Note_off_c, 1, 44, 100
3, 142464, Note_on_c, 1, 45, 80
3, 142556, Note_off_c, 1, 45, 100
3, 142560, Note_on_c, 1, 47, 80
3, 142652, Note_off_c, 1, 47, 100
3, 142656, Note_on_c, 1, 40, 80
3, 143420, Note_off_c, 1, 40, 64
3, 143424, Note_on_c, 1, 44, 85
3, 143612, Note_off_c, 1, 44, 100
3, 143616, Note_on_c, 1, 42, 86
3, 143804, Note_off_c, 1, 42, 100
3, 143808, Note_on_c, 1, 40, 88
3, 144188, Note_off_c, 1, 40, 100
3, 144192, Note_on_c, 1, 39, 91
3, 144380, Note_off_c, 1, 39, 100
3, 144384, Note_on_c, 1, 39, 92
3, 144384, Note_on_c, 1, 45, 92
3, 144572, Note_off_c, 1, 39, 100
3, 144576, Note_on_c, 1, 37, 93
3, 144764, Note_off_c, 1, 37, 100
3, 144768, Note_on_c, 1, 35, 95
3, 144956, Note_off_c, 1, 35, 100
3, 144960, Note_on_c, 1, 33, 96
3, 145148, Note_off_c, 1, 45, 64
3, 145148, Note_off_c, 1, 33, 100
3, 145152, Note_on_c, 1, 37, 97
3, 145152, Note_on_c, 1, 49, 97
3, 145340, Note_off_c, 1, 37, 100
3, 145340, Note_off_c, 1, 49, 100
3, 145344, Note_on_c, 1, 35, 99
3, 145344, Note_on_c, 1, 47, 99
3, 145532, Note_off_c, 1, 35, 100
3, 145532, Note_off_c, 1, 47, 100
3, 145536, Note_on_c, 1, 33, 100
3, 145536, Note_on_c, 1, 45, 100
3, 145916, Note_off_c, 1, 33, 100
3, 145916, Note_off_c, 1, 45, 100
3, 145920, Note_on_c, 1, 32, 96
3, 145920, Note_on_c, 1, 44, 96
3, 146108, Note_off_c, 1, 32, 100
3, 146108, Note_off_c, 1, 44, 100
3, 146112, Note_on_c, 1, 42, 93
3, 146112, Note_on_c, 1, 54, 93
3, 146492, Note_off_c, 1, 42, 100
3, 146492, Note_off_c, 1, 54, 100
3, 146496, Note_on_c, 1, 40, 89
3, 146496, Note_on_c, 1, 52, 89
3, 146684, Note_off_c, 1, 40, 100
3, 146684, Note_off_c, 1, 52, 100
3, 146688, Note_on_c, 1, 49, 86
3, 146688, Note_on_c, 1, 52, 86
3, 146780, Note_off_c, 1, 52, 100
3, 146784, Note_on_c, 1, 54, 85
3, 146876, Note_off_c, 1, 54, 100
3, 146880, Note_on_c, 1, 55, 84
3, 146972, Note_off_c, 1, 55, 100
3, 146976, Note_on_c, 1, 52, 83
3, 147068, Note_off_c, 1, 49, 100
3, 147068, Note_off_c, 1, 52, 100
3, 147072, Note_on_c, 1, 48, 82
3, 147072, Note_on_c, 1, 54, 82
3, 147164, Note_off_c, 1, 54, 100
3, 147168, Note_on_c, 1, 55, 81
3, 147260, Note_off_c, 1, 48, 100
3, 147260, Note_off_c, 1, 55, 100
3, 147264, Note_on_c, 1, 48, 80
3, 147360, Note_on_c, 1, 52, 80
3, 147452, Note_off_c, 1, 52, 100
3, 147456, Note_on_c, 1, 55, 80
3, 147548, Note_off_c, 1, 55, 100
3, 147552, Note_on_c, 1, 58, 80
3, 147644, Note_off_c, 1, 58, 100
3, 147648, Note_on_c, 1, 55, 80
3, 147740, Note_off_c, 1, 55, 100
3, 147744, Note_on_c, 1, 52, 80
3, 147836, Note_off_c, 1, 52, 100
3, 147840, Note_on_c, 1, 55, 80
3, 147932, Note_off_c, 1, 55, 100
3, 147936, Note_on_c, 1, 52, 80
3, 148028, Note_off_c, 1, 52, 100
3, 148032, Note_on_c, 1, 53, 80
3, 148124, Note_off_c, 1, 53, 100
3, 148128, Note_on_c, 1, 57, 80
3, 148220, Note_off_c, 1, 57, 100
3, 148224, Note_on_c, 1, 58, 80
3, 148316, Note_off_c, 1, 58, 100
3, 148320, Note_on_c, 1, 55, 80
3, 148412, Note_off_c, 1, 48, 64
3, 148412, Note_off_c, 1, 55, 100
3, 148416, Note_on_c, 1, 48, 80
3, 148604, Note_off_c, 1, 48, 100
3, 148608, Note_on_c, 1, 47, 80
3, 148796, Note_off_c, 1, 47, 100
3, 148800, Note_on_c, 1, 45, 80
3, 148988, Note_off_c, 1, 45, 100
3, 148992, Note_on_c, 1, 44, 80
3, 149564, Note_off_c, 1, 44, 100
3, 149568, Note_on_c, 1, 56, 80
3, 149660, Note_off_c, 1, 56, 100
3, 149664, Note_on_c, 1, 57, 80
3, 149756, Note_off_c, 1, 57, 100
3, 149760, Note_on_c, 1, 59, 80
3, 149852, Note_off_c, 1, 59, 100
3, 149856, Note_on_c, 1, 52, 80
3, 149948, Note_off_c, 1, 52, 100
3, 149952, Note_on_c, 1, 54, 80
3, 150044, Note_off_c, 1, 54, 100
3, 150048, Note_on_c, 1, 56, 80
3, 150144, Note_on_c, 1, 47, 80
3, 150524, Note_off_c, 1, 47, 100
3, 150716, Note_off_c, 1, 56, 64
3, 150720, Note_on_c, 1, 57, 80
3, 150812, Note_off_c, 1, 57, 100
3, 150816, Note_on_c, 1, 59, 80
3, 150908, Note_off_c, 1, 59, 100
3, 150912, Note_on_c, 1, 61, 80
3, 151004, Note_off_c, 1, 61, 100
3, 151008, Note_on_c, 1, 54, 80
3, 151100, Note_off_c, 1, 54, 100
3, 151104, Note_on_c, 1, 56, 80
3, 151196, Note_off_c, 1, 56, 100
3, 151200, Note_on_c, 1, 57, 80
3, 151292, Note_off_c, 1, 57, 100
3, 151296, Note_on_c, 1, 47, 80
3, 151296, Note_on_c, 1, 42, 80
3, 151388, Note_off_c, 1, 42, 100
3, 151392, Note_on_c, 1, 44, 80
3, 151484, Note_off_c, 1, 44, 100
3, 151488, Note_on_c, 1, 45, 80
3, 151580, Note_off_c, 1, 45, 100
3, 151584, Note_on_c, 1, 42, 80
3, 151676, Note_off_c, 1, 47, 100
3, 151676, Note_off_c, 1, 42, 100
3, 151680, Note_on_c, 1, 44, 80
3, 151772, Note_off_c, 1, 44, 100
3, 151776, Note_on_c, 1, 45, 80
3, 151868, Note_off_c, 1, 45, 100
3, 151872, Note_on_c, 1, 35, 80
3, 152252, Note_off_c, 1, 35, 100
3, 152448, Note_on_c, 1, 59, 80
3, 152540, Note_off_c, 1, 59, 100
3, 152544, Note_on_c, 1, 63, 80
3, 152636, Note_off_c, 1, 63, 100
3, 152640, Note_on_c, 1, 64, 80
3, 152732, Note_off_c, 1, 64, 100
3, 152736, Note_on_c, 1, 56, 80
3, 152828, Note_off_c, 1, 56, 100
3, 152832, Note_on_c, 1, 57, 80
3, 152924, Note_off_c, 1, 57, 100
3, 152928, Note_on_c, 1, 59, 80
3, 153020, Note_off_c, 1, 59, 100
3, 153024, Note_on_c, 1, 47, 80
3, 153404, Note_off_c, 1, 47, 100
3, 153600, Note_on_c, 1, 56, 80
3, 153600, Note_on_c, 1, 59, 80
3, 153692, Note_off_c, 1, 56, 100
3, 153696, Note_on_c, 1, 57, 80
3, 153788, Note_off_c, 1, 59, 100
3, 153788, Note_off_c, 1, 57, 100
3, 153792, Note_on_c, 1, 59, 80
3, 153884, Note_off_c, 1, 59, 100
3, 153888, Note_on_c, 1, 52, 80
3, 153980, Note_off_c, 1, 52, 100
3, 153984, Note_on_c, 1, 54, 80
3, 154076, Note_off_c, 1, 54, 100
3, 154080, Note_on_c, 1, 56, 80
3, 154172, Note_off_c, 1, 56, 100
3, 154176, Note_on_c, 1, 47, 80
3, 154556, Note_off_c, 1, 47, 100
3, 154752, Note_on_c, 1, 54, 80
3, 154752, Note_on_c, 1, 59, 80
3, 154844, Note_off_c, 1, 54, 100
3, 154848, Note_on_c, 1, 56, 80
3, 154940, Note_off_c, 1, 59, 100
3, 154940, Note_off_c, 1, 56, 100
3, 154944, Note_on_c, 1, 57, 80
3, 155036, Note_off_c, 1, 57, 100
3, 155040, Note_on_c, 1, 54, 80
3, 155132, Note_off_c, 1, 54, 100
3, 155136, Note_on_c, 1, 56, 80
3, 155228, Note_off_c, 1, 56, 100
3, 155232, Note_on_c, 1, 57, 80
3, 155324, Note_off_c, 1, 57, 100
3, 155328, Note_on_c, 1, 47, 80
3, 155420, Note_off_c, 1, 47, 100
3, 155424, Note_on_c, 1, 49, 80
3, 155516, Note_off_c, 1, 49, 100
3, 155520, Note_on_c, 1, 51, 80
3, 155612, Note_off_c, 1, 51, 100
3, 155616, Note_on_c, 1, 47, 80
3, 155708, Note_off_c, 1, 47, 100
3, 155712, Note_on_c, 1, 49, 80
3, 155804, Note_off_c, 1, 49, 100
3, 155808, Note_on_c, 1, 51, 80
3, 155900, Note_off_c, 1, 51, 100
3, 155904, Note_on_c, 1, 47, 80
3, 155996, Note_off_c, 1, 47, 100
3, 156000, Note_on_c, 1, 51, 80
3, 156092, Note_off_c, 1, 51, 100
3, 156096, Note_on_c, 1, 52, 80
3, 156188, Note_off_c, 1, 52, 100
3, 156192, Note_on_c, 1, 44, 80
3, 156284, Note_off_c, 1, 44, 100
3, 156288, Note_on_c, 1, 45, 80
3, 156380, Note_off_c, 1, 45, 100
3, 156384, Note_on_c, 1, 47, 80
3, 156476, Note_off_c, 1, 47, 100
3, 156480, Note_on_c, 1, 40, 80
3, 157244, Note_off_c, 1, 40, 64
3, 157248, Note_on_c, 1, 44, 85
3, 157436, Note_off_c, 1, 44, 100
3, 157440, Note_on_c, 1, 42, 86
3, 157628, Note_off_c, 1, 42, 100
3, 157632, Note_on_c, 1, 40, 88
3, 158012, Note_off_c, 1, 40, 100
3, 158016, Note_on_c, 1, 39, 91
3, 158204, Note_off_c, 1, 39, 100
3, 158208, Note_on_c, 1, 39, 92
3, 158208, Note_on_c, 1, 45, 92
3, 158396, Note_off_c, 1, 39, 100
3, 158400, Note_on_c, 1, 37, 93
3, 158588, Note_off_c, 1, 37, 100
3, 158592, Note_on_c, 1, 35, 95
3, 158780, Note_off_c, 1, 35, 100
3, 158784, Note_on_c, 1, 33, 96
3, 158972, Note_off_c, 1, 45, 64
3, 158972, Note_off_c, 1, 33, 100
3, 158976, Note_on_c, 1, 37, 97
3, 158976, Note_on_c, 1, 49, 97
3, 159164, Note_off_c, 1, 37, 100
3, 159164, Note_off_c, 1, 49, 100
3, 159168, Note_on_c, 1, 35, 99
3, 159168, Note_on_c, 1, 47, 99
3, 159356, Note_off_c, 1, 35, 100
3, 159356, Note_off_c, 1, 47, 100
3, 159360, Note_on_c, 1, 33, 100
3, 159360, Note_on_c, 1, 45, 100
3, 159740, Note_off_c, 1, 33, 100
3, 159740, Note_off_c, 1, 45, 100
3, 159744, Note_on_c, 1, 32, 96
3, 159744, Note_on_c, 1, 44, 96
3, 159932, Note_off_c, 1, 32, 100
3, 159932, Note_off_c, 1, 44, 100
3, 159936, Note_on_c, 1, 42, 93
3, 159936, Note_on_c, 1, 54, 93
3, 160316, Note_off_c, 1, 42, 100
3, 160316, Note_off_c, 1, 54, 100
3, 160320, Note_on_c, 1, 40, 89
3, 160320, Note_on_c, 1, 52, 89
3, 160508, Note_off_c, 1, 40, 100
3, 160508, Note_off_c, 1, 52, 100
3, 160512, Note_on_c, 1, 49, 86
3, 160512, Note_on_c, 1, 52, 86
3, 160604, Note_off_c, 1, 52, 100
3, 160608, Note_on_c, 1, 54, 85
3, 160700, Note_off_c, 1, 54, 100
3, 160704, Note_on_c, 1, 55, 84
3, 160796, Note_off_c, 1, 55, 100
3, 160800, Note_on_c, 1, 52, 83
3, 160892, Note_off_c, 1, 49, 100
3, 160892, Note_off_c, 1, 52, 100
3, 160896, Note_on_c, 1, 48, 82
3, 160896, Note_on_c, 1, 54, 82
3, 160988, Note_off_c, 1, 54, 100
3, 160992, Note_on_c, 1, 55, 81
3, 161084, Note_off_c, 1, 48, 100
3, 161084, Note_off_c, 1, 55, 100
3, 161088, Note_on_c, 1, 48, 80
3, 161184, Note_on_c, 1, 52, 80
3, 161276, Note_off_c, 1, 52, 100
3, 161280, Note_on_c, 1, 55, 80
3, 161372, Note_off_c, 1, 55, 100
3, 161376, Note_on_c, 1, 58, 80
3, 161468, Note_off_c, 1, 58, 100
3, 161472, Note_on_c, 1, 55, 80
3, 161564, Note_off_c, 1, 55, 100
3, 161568, Note_on_c, 1, 52, 80
3, 161660, Note_off_c, 1, 52, 100
3, 161664, Note_on_c, 1, 55, 80
3, 161756, Note_off_c, 1, 55, 100
3, 161760, Note_on_c, 1, 52, 80
3, 161852, Note_off_c, 1, 52, 100
3, 161856, Note_on_c, 1, 53, 80
3, 161948, Note_off_c, 1, 53, 100
3, 161952, Note_on_c, 1, 57, 80
3, 162044, Note_off_c, 1, 57, 100
3, 162048, Note_on_c, 1, 58, 80
3, 162140, Note_off_c, 1, 58, 100
3, 162144, Note_on_c, 1, 55, 80
3, 162236, Note_off_c, 1, 48, 64
3, 162236, Note_off_c, 1, 55, 100
3, 162240, Note_on_c, 1, 48, 80
3, 162428, Note_off_c, 1, 48, 100
3, 162432, Note_on_c, 1, 47, 80
3, 162620, Note_off_c, 1, 47, 100
3, 162624, Note_on_c, 1, 59, 80
3, 162812, Note_off_c, 1, 59, 100
3, 162816, Control_c, 1, 64, 127
3, 162816, Note_on_c, 1, 49, 70
3, 162908, Note_off_c, 1, 49, 100
3, 162912, Note_on_c, 1, 53, 70
3, 162912, Note_on_c, 1, 56, 70
3, 162912, Note_on_c, 1, 59, 70
3, 163004, Note_off_c, 1, 53, 100
3, 163004, Note_off_c, 1, 56, 100
3, 163004, Note_off_c, 1, 59, 100
3, 163008, Note_on_c, 1, 49, 70
3, 163100, Note_off_c, 1, 49, 100
3, 163104, Note_on_c, 1, 53, 70
3, 163104, Note_on_c, 1, 56, 70
3, 163104, Note_on_c, 1, 59, 70
3, 163196, Note_off_c, 1, 53, 100
3, 163196, Note_off_c, 1, 56, 100
3, 163196, Note_off_c, 1, 59, 100
3, 163200, Note_on_c, 1, 49, 70
3, 163292, Note_off_c, 1, 49, 100
3, 163296, Note_on_c, 1, 53, 70
3, 163296, Note_on_c, 1, 56, 70
3, 163296, Note_on_c, 1, 59, 70
3, 163388, Note_off_c, 1, 53, 100
3, 163388, Note_off_c, 1, 56, 100
3, 163388, Note_off_c, 1, 59, 100
3, 163392, Note_on_c, 1, 49, 70
3, 163484, Note_off_c, 1, 49, 100
3, 163488, Note_on_c, 1, 53, 70
3, 163488, Note_on_c, 1, 56, 70
3, 163488, Note_on_c, 1, 59, 70
3, 163580, Note_off_c, 1, 53, 100
3, 163580, Note_off_c, 1, 56, 100
3, 163580, Note_off_c, 1, 59, 100
3, 163584, Note_on_c, 1, 49, 70
3, 163676, Note_off_c, 1, 49, 100
3, 163680, Note_on_c, 1, 53, 70
3, 163680, Note_on_c, 1, 56, 70
3, 163680, Note_on_c, 1, 59, 70
3, 163772, Note_off_c, 1, 53, 100
3, 163772, Note_off_c, 1, 56, 100
3, 163772, Note_off_c, 1, 59, 100
3, 163776, Note_on_c, 1, 49, 70
3, 163868, Note_off_c, 1, 49, 100
3, 163872, Note_on_c, 1, 53, 70
3, 163872, Note_on_c, 1, 56, 70
3, 163872, Note_on_c, 1, 59, 70
3, 163964, Note_off_c, 1, 53, 100
3, 163964, Note_off_c, 1, 56, 100
3, 163964, Note_off_c, 1, 59, 100
3, 163964, Control_c, 1, 64, 0
3, 163968, Control_c, 1, 64, 127
3, 163968, Note_on_c, 1, 49, 70
3, 164060, Note_off_c, 1, 49, 100
3, 164064, Note_on_c, 1, 54, 70
3, 164064, Note_on_c, 1, 57, 70
3, 164156, Note_off_c, 1, 54, 100
3, 164156, Note_off_c, 1, 57, 100
3, 164160, Note_on_c, 1, 49, 70
3, 164252, Note_off_c, 1, 49, 100
3, 164256, Note_on_c, 1, 54, 70
3, 164256, Note_on_c, 1, 57, 70
3, 164348, Note_off_c, 1, 54, 100
3, 164348, Note_off_c, 1, 57, 100
3, 164352, Note_on_c, 1, 49, 70
3, 164444, Note_off_c, 1, 49, 100
3, 164448, Note_on_c, 1, 54, 70
3, 164448, Note_on_c, 1, 57, 70
3, 164540, Note_off_c, 1, 54, 100
3, 164540, Note_off_c, 1, 57, 100
3, 164540, Control_c, 1, 64, 0
3, 164544, Control_c, 1, 64, 127
3, 164544, Note_on_c, 1, 47, 70
3, 164636, Note_off_c, 1, 47, 100
3, 164640, Note_on_c, 1, 57, 70
3, 164640, Note_on_c, 1, 54, 70
3, 164640, Note_on_c, 1, 51, 70
3, 164732, Note_off_c, 1, 57, 100
3, 164732, Note_off_c, 1, 54, 100
3, 164732, Note_off_c, 1, 51, 100
3, 164736, Note_on_c, 1, 47, 70
3, 164828, Note_off_c, 1, 47, 100
3, 164832, Note_on_c, 1, 57, 70
3, 164832, Note_on_c, 1, 54, 70
3, 164832, Note_on_c, 1, 51, 70
3, 164924, Note_off_c, 1, 57, 100
3, 164924, Note_off_c, 1, 54, 100
3, 164924, Note_off_c, 1, 51, 100
3, 164928, Note_on_c, 1, 47, 70
3, 165020, Note_off_c, 1, 47, 100
3, 165024, Note_on_c, 1, 57, 70
3, 165024, Note_on_c, 1, 54, 70
3, 165024, Note_on_c, 1, 51, 70
3, 165116, Note_off_c, 1, 57, 100
3, 165116, Note_off_c, 1, 54, 100
3, 165116, Note_off_c, 1, 51, 100
3, 165120, Note_on_c, 1, 47, 70
3, 165212, Note_off_c, 1, 47, 100
3, 165216, Note_on_c, 1, 57, 70
3, 165216, Note_on_c, 1, 54, 70
3, 165216, Note_on_c, 1, 51, 70
3, 165308, Note_off_c, 1, 57, 100
3, 165308, Note_off_c, 1, 54, 100
3, 165308, Note_off_c, 1, 51, 100
3, 165312, Note_on_c, 1, 47, 70
3, 165404, Note_off_c, 1, 47, 100
3, 165408, Note_on_c, 1, 57, 70
3, 165408, Note_on_c, 1, 54, 70
3, 165408, Note_on_c, 1, 51, 70
3, 165500, Note_off_c, 1, 57, 100
3, 165500, Note_off_c, 1, 54, 100
3, 165500, Note_off_c, 1, 51, 100
3, 165504, Note_on_c, 1, 47, 70
3, 165596, Note_off_c, 1, 47, 100
3, 165600, Note_on_c, 1, 57, 70
3, 165600, Note_on_c, 1, 54, 70
3, 165600, Note_on_c, 1, 51, 70
3, 165692, Note_off_c, 1, 57, 100
3, 165692, Note_off_c, 1, 54, 100
3, 165692, Note_off_c, 1, 51, 100
3, 165692, Control_c, 1, 64, 0
3, 165696, Control_c, 1, 64, 127
3, 165696, Note_on_c, 1, 47, 70
3, 165788, Note_off_c, 1, 47, 100
3, 165792, Note_on_c, 1, 56, 70
3, 165792, Note_on_c, 1, 52, 70
3, 165884, Note_off_c, 1, 56, 100
3, 165884, Note_off_c, 1, 52, 100
3, 165888, Note_on_c, 1, 47, 70
3, 165980, Note_off_c, 1, 47, 100
3, 165984, Note_on_c, 1, 56, 70
3, 165984, Note_on_c, 1, 52, 70
3, 166076, Note_off_c, 1, 56, 100
3, 166076, Note_off_c, 1, 52, 100
3, 166080, Note_on_c, 1, 47, 70
3, 166172, Note_off_c, 1, 47, 100
3, 166176, Note_on_c, 1, 56, 70
3, 166176, Note_on_c, 1, 52, 70
3, 166268, Note_off_c, 1, 56, 100
3, 166268, Note_off_c, 1, 52, 100
3, 166268, Control_c, 1, 64, 0
3, 166272, Control_c, 1, 64, 127
3, 166272, Note_on_c, 1, 46, 80
3, 166364, Note_off_c, 1, 46, 100
3, 166368, Note_on_c, 1, 55, 81
3, 166368, Note_on_c, 1, 52, 81
3, 166368, Note_on_c, 1, 49, 81
3, 166460, Note_off_c, 1, 55, 100
3, 166460, Note_off_c, 1, 52, 100
3, 166460, Note_off_c, 1, 49, 100
3, 166464, Note_on_c, 1, 46, 83
3, 166556, Note_off_c, 1, 46, 100
3, 166560, Note_on_c, 1, 55, 85
3, 166560, Note_on_c, 1, 52, 85
3, 166560, Note_on_c, 1, 49, 85
3, 166652, Note_off_c, 1, 55, 100
3, 166652, Note_off_c, 1, 52, 100
3, 166652, Note_off_c, 1, 49, 100
3, 166656, Note_on_c, 1, 46, 87
3, 166748, Note_off_c, 1, 46, 100
3, 166752, Note_on_c, 1, 55, 88
3, 166752, Note_on_c, 1, 52, 88
3, 166752, Note_on_c, 1, 49, 88
3, 166844, Note_off_c, 1, 55, 100
3, 166844, Note_off_c, 1, 52, 100
3, 166844, Note_off_c, 1, 49, 100
3, 166848, Note_on_c, 1, 46, 90
3, 166940, Note_off_c, 1, 46, 100
3, 166944, Note_on_c, 1, 55, 92
3, 166944, Note_on_c, 1, 52, 92
3, 166944, Note_on_c, 1, 49, 92
3, 167036, Note_off_c, 1, 55, 100
3, 167036, Note_off_c, 1, 52, 100
3, 167036, Note_off_c, 1, 49, 100
3, 167040, Note_on_c, 1, 46, 94
3, 167132, Note_off_c, 1, 46, 100
3, 167136, Note_on_c, 1, 55, 95
3, 167136, Note_on_c, 1, 52, 95
3, 167136, Note_on_c, 1, 49, 95
3, 167228, Note_off_c, 1, 55, 100
3, 167228, Note_off_c, 1, 52, 100
3, 167228, Note_off_c, 1, 49, 100
3, 167232, Note_on_c, 1, 46, 97
3, 167324, Note_off_c, 1, 46, 100
3, 167328, Note_on_c, 1, 55, 99
3, 167328, Note_on_c, 1, 52, 99
3, 167328, Note_on_c, 1, 49, 99
3, 167420, Note_off_c, 1, 55, 100
3, 167420, Note_off_c, 1, 52, 100
3, 167420, Note_off_c, 1, 49, 100
3, 167424, Note_on_c, 1, 46, 101
3, 167516, Note_off_c, 1, 46, 100
3, 167520, Note_on_c, 1, 55, 102
3, 167520, Note_on_c, 1, 52, 102
3, 167520, Note_on_c, 1, 49, 102
3, 167612, Note_off_c, 1, 55, 100
3, 167612, Note_off_c, 1, 52, 100
3, 167612, Note_off_c, 1, 49, 100
3, 167616, Note_on_c, 1, 46, 104
3, 167708, Note_off_c, 1, 46, 100
3, 167712, Note_on_c, 1, 55, 106
3, 167712, Note_on_c, 1, 52, 106
3, 167712, Note_on_c, 1, 49, 106
3, 167804, Note_off_c, 1, 55, 100
3, 167804, Note_off_c, 1, 52, 100
3, 167804, Note_off_c, 1, 49, 100
3, 167808, Note_on_c, 1, 46, 108
3, 167900, Note_off_c, 1, 46, 100
3, 167904, Note_on_c, 1, 51, 109
3, 167904, Note_on_c, 1, 55, 109
3, 167904, Note_on_c, 1, 49, 109
3, 167996, Note_off_c, 1, 51, 100
3, 167996, Note_off_c, 1, 55, 100
3, 167996, Note_off_c, 1, 49, 100
3, 167996, Control_c, 1, 64, 0
3, 168000, Note_on_c, 1, 44, 110
3, 168092, Note_off_c, 1, 44, 100
3, 168096, Note_on_c, 1, 56, 110
3, 168096, Note_on_c, 1, 51, 110
3, 168096, Note_on_c, 1, 47, 110
3, 168188, Note_off_c, 1, 56, 100
3, 168188, Note_off_c, 1, 51, 100
3, 168188, Note_off_c, 1, 47, 100
3, 168192, Note_on_c, 1, 44, 110
3, 168284, Note_off_c, 1, 44, 100
3, 168288, Note_on_c, 1, 56, 110
3, 168288, Note_on_c, 1, 51, 110
3, 168288, Note_on_c, 1, 47, 110
3, 168380, Note_off_c, 1, 56, 100
3, 168380, Note_off_c, 1, 51, 100
3, 168380, Note_off_c, 1, 47, 100
3, 168384, Note_on_c, 1, 44, 110
3, 168476, Note_off_c, 1, 44, 100
3, 168480, Note_on_c, 1, 56, 110
3, 168480, Note_on_c, 1, 51, 110
3, 168480, Note_on_c, 1, 47, 110
3, 168572, Note_off_c, 1, 56, 100
3, 168572, Note_off_c, 1, 51, 100
3, 168572, Note_off_c, 1, 47, 100
3, 168576, Note_on_c, 1, 44, 110
3, 168668, Note_off_c, 1, 44, 100
3, 168672, Note_on_c, 1, 55, 110
3, 168672, Note_on_c, 1, 51, 110
3, 168672, Note_on_c, 1, 49, 110
3, 168764, Note_off_c, 1, 55, 100
3, 168764, Note_off_c, 1, 51, 100
3, 168764, Note_off_c, 1, 49, 100
3, 168768, Note_on_c, 1, 44, 110
3, 168860, Note_off_c, 1, 44, 100
3, 168864, Note_on_c, 1, 55, 110
3, 168864, Note_on_c, 1, 51, 110
3, 168864, Note_on_c, 1, 49, 110
3, 168956, Note_off_c, 1, 55, 100
3, 168956, Note_off_c, 1, 51, 100
3, 168956, Note_off_c, 1, 49, 100
3, 168960, Note_on_c, 1, 44, 110
3, 169052, Note_off_c, 1, 44, 100
3, 169056, Note_on_c, 1, 55, 110
3, 169056, Note_on_c, 1, 51, 110
3, 169056, Note_on_c, 1, 49, 110
3, 169148, Note_off_c, 1, 55, 100
3, 169148, Note_off_c, 1, 51, 100
3, 169148, Note_off_c, 1, 49, 100
3, 169152, Note_on_c, 1, 44, 110
3, 169244, Note_off_c, 1, 44, 100
3, 169248, Note_on_c, 1, 56, 110
3, 169248, Note_on_c, 1, 51, 110
3, 169248, Note_on_c, 1, 47, 110
3, 169340, Note_off_c, 1, 56, 100
3, 169340, Note_off_c, 1, 51, 100
3, 169340, Note_off_c, 1, 47, 100
3, 169344, Note_on_c, 1, 44, 110
3, 169436, Note_off_c, 1, 44, 100
3, 169440, Note_on_c, 1, 56, 110
3, 169440, Note_on_c, 1, 51, 110
3, 169440, Note_on_c, 1, 47, 110
3, 169532, Note_off_c, 1, 56, 100
3, 169532, Note_off_c, 1, 51, 100
3, 169532, Note_off_c, 1, 47, 100
3, 169536, Note_on_c, 1, 44, 110
3, 169628, Note_off_c, 1, 44, 100
3, 169632, Note_on_c, 1, 52, 110
3, 169632, Note_on_c, 1, 56, 110
3, 169632, Note_on_c, 1, 47, 110
3, 169724, Note_off_c, 1, 52, 100
3, 169724, Note_off_c, 1, 56, 100
3, 169724, Note_off_c, 1, 47, 100
3, 169728, Note_on_c, 1, 42, 120
3, 169820, Note_off_c, 1, 42, 100
3, 169824, Note_on_c, 1, 45, 120
3, 169824, Note_on_c, 1, 49, 120
3, 169824, Note_on_c, 1, 52, 120
3, 169916, Note_off_c, 1, 45, 100
3, 169916, Note_off_c, 1, 49, 100
3, 169916, Note_off_c, 1, 52, 100
3, 169920, Note_on_c, 1, 42, 120
3, 170012, Note_off_c, 1, 42, 100
3, 170016, Note_on_c, 1, 45, 120
3, 170016, Note_on_c, 1, 49, 120
3, 170016, Note_on_c, 1, 52, 120
3, 170108, Note_off_c, 1, 45, 100
3, 170108, Note_off_c, 1, 49, 100
3, 170108, Note_off_c, 1, 52, 100
3, 170112, Note_on_c, 1, 42, 120
3, 170204, Note_off_c, 1, 42, 100
3, 170208, Note_on_c, 1, 45, 120
3, 170208, Note_on_c, 1, 49, 120
3, 170208, Note_on_c, 1, 52, 120
3, 170300, Note_off_c, 1, 45, 100
3, 170300, Note_off_c, 1, 49, 100
3, 170300, Note_off_c, 1, 52, 100
3, 170304, Note_on_c, 1, 42, 120
3, 170396, Note_off_c, 1, 42, 100
3, 170400, Note_on_c, 1, 45, 120
3, 170400, Note_on_c, 1, 49, 120
3, 170400, Note_on_c, 1, 52, 120
3, 170492, Note_off_c, 1, 45, 100
3, 170492, Note_off_c, 1, 49, 100
3, 170492, Note_off_c, 1, 52, 100
3, 170496, Note_on_c, 1, 42, 120
3, 170588, Note_off_c, 1, 42, 100
3, 170592, Note_on_c, 1, 45, 120
3, 170592, Note_on_c, 1, 49, 120
3, 170592, Note_on_c, 1, 52, 120
3, 170684, Note_off_c, 1, 45, 100
3, 170684, Note_off_c, 1, 49, 100
3, 170684, Note_off_c, 1, 52, 100
3, 170688, Note_on_c, 1, 42, 120
3, 170780, Note_off_c, 1, 42, 100
3, 170784, Note_on_c, 1, 45, 120
3, 170784, Note_on_c, 1, 49, 120
3, 170784, Note_on_c, 1, 52, 120
3, 170876, Note_off_c, 1, 45, 100
3, 170876, Note_off_c, 1, 49, 100
3, 170876, Note_off_c, 1, 52, 100
3, 170880, Note_on_c, 1, 54, 110
3, 170880, Note_on_c, 1, 52, 110
3, 170972, Note_off_c, 1, 54, 100
3, 170976, Note_on_c, 1, 56, 107
3, 171068, Note_off_c, 1, 56, 100
3, 171072, Note_on_c, 1, 57, 103
3, 171164, Note_off_c, 1, 57, 100
3, 171168, Note_on_c, 1, 54, 99
3, 171260, Note_off_c, 1, 54, 100
3, 171264, Note_on_c, 1, 56, 95
3, 171356, Note_off_c, 1, 56, 100
3, 171360, Note_on_c, 1, 57, 91
3, 171452, Note_off_c, 1, 52, 100
3, 171452, Note_off_c, 1, 57, 100
3, 171456, Note_on_c, 1, 51, 90
3, 171548, Note_off_c, 1, 51, 100
3, 171552, Note_on_c, 1, 52, 90
3, 171644, Note_off_c, 1, 52, 100
3, 171648, Note_on_c, 1, 54, 90
3, 171740, Note_off_c, 1, 54, 100
3, 171744, Note_on_c, 1, 51, 90
3, 171836, Note_off_c, 1, 51, 100
3, 171840, Note_on_c, 1, 52, 90
3, 171932, Note_off_c, 1, 52, 100
3, 171936, Note_on_c, 1, 54, 90
3, 172028, Note_off_c, 1, 54, 100
3, 172032, Note_on_c, 1, 51, 90
3, 172124, Note_off_c, 1, 51, 100
3, 172128, Note_on_c, 1, 49, 90
3, 172220, Note_off_c, 1, 49, 100
3, 172224, Note_on_c, 1, 47, 90
3, 172316, Note_off_c, 1, 47, 100
3, 172320, Note_on_c, 1, 45, 90
3, 172412, Note_off_c, 1, 45, 100
3, 172416, Note_on_c, 1, 44, 90
3, 172508, Note_off_c, 1, 44, 100
3, 172512, Note_on_c, 1, 42, 90
3, 172604, Note_off_c, 1, 42, 100
3, 172608, Note_on_c, 1, 52, 90
3, 172700, Note_off_c, 1, 52, 100
3, 172704, Note_on_c, 1, 51, 90
3, 172796, Note_off_c, 1, 51, 100
3, 172800, Note_on_c, 1, 49, 90
3, 172892, Note_off_c, 1, 49, 100
3, 172896, Note_on_c, 1, 47, 90
3, 172988, Note_off_c, 1, 47, 100
3, 172992, Note_on_c, 1, 45, 90
3, 173084, Note_off_c, 1, 45, 100
3, 173088, Note_on_c, 1, 44, 90
3, 173180, Note_off_c, 1, 44, 100
3, 173184, Note_on_c, 1, 47, 90
3, 173276, Note_off_c, 1, 47, 100
3, 173280, Note_on_c, 1, 49, 90
3, 173372, Note_off_c, 1, 49, 100
3, 173376, Note_on_c, 1, 51, 90
3, 173468, Note_off_c, 1, 51, 100
3, 173472, Note_on_c, 1, 52, 90
3, 173564, Note_off_c, 1, 52, 100
3, 173568, Note_on_c, 1, 54, 90
3, 173660, Note_off_c, 1, 54, 100
3, 173664, Note_on_c, 1, 56, 90
3, 173756, Note_off_c, 1, 56, 100
3, 173760, Note_on_c, 1, 52, 90
3, 173760, Note_on_c, 1, 47, 90
3, 173852, Note_off_c, 1, 52, 100
3, 173856, Note_on_c, 1, 54, 90
3, 173948, Note_off_c, 1, 54, 100
3, 173952, Note_on_c, 1, 56, 90
3, 174044, Note_off_c, 1, 56, 100
3, 174048, Note_on_c, 1, 52, 90
3, 174140, Note_off_c, 1, 52, 100
3, 174144, Note_on_c, 1, 54, 90
3, 174236, Note_off_c, 1, 54, 100
3, 174240, Note_on_c, 1, 56, 90
3, 174332, Note_off_c, 1, 47, 100
3, 174332, Note_off_c, 1, 56, 100
3, 174336, Note_on_c, 1, 54, 90
3, 174336, Note_on_c, 1, 47, 90
3, 174428, Note_off_c, 1, 54, 100
3, 174432, Note_on_c, 1, 56, 90
3, 174524, Note_off_c, 1, 56, 100
3, 174528, Note_on_c, 1, 57, 90
3, 174620, Note_off_c, 1, 57, 100
3, 174624, Note_on_c, 1, 54, 90
3, 174716, Note_off_c, 1, 54, 100
3, 174720, Note_on_c, 1, 56, 90
3, 174812, Note_off_c, 1, 56, 100
3, 174816, Note_on_c, 1, 57, 90
3, 174908, Note_off_c, 1, 47, 100
3, 174908, Note_off_c, 1, 57, 100
3, 174912, Control_c, 1, 64, 127
3, 174912, Note_on_c, 1, 35, 90
3, 175008, Note_on_c, 1, 39, 90
3, 175104, Note_on_c, 1, 42, 91
3, 175196, Note_off_c, 1, 35, 100
3, 175200, Note_on_c, 1, 45, 92
3, 175292, Note_off_c, 1, 39, 100
3, 175296, Note_on_c, 1, 47, 93
3, 175388, Note_off_c, 1, 42, 100
3, 175392, Note_on_c, 1, 51, 94
3, 175484, Note_off_c, 1, 45, 100
3, 175488, Note_on_c, 1, 54, 94
3, 175580, Note_off_c, 1, 47, 64
3, 175584, Note_on_c, 1, 57, 95
3, 175676, Note_off_c, 1, 51, 64
3, 175680, Note_on_c, 1, 54, 96
3, 175772, Note_off_c, 1, 54, 100
3, 175776, Note_on_c, 1, 51, 97
3, 175868, Note_off_c, 1, 57, 100
3, 175872, Note_on_c, 1, 47, 98
3, 175964, Note_off_c, 1, 54, 100
3, 175968, Note_on_c, 1, 45, 99
3, 176060, Note_off_c, 1, 51, 100
3, 176064, Note_on_c, 1, 42, 99
3, 176156, Note_off_c, 1, 47, 64
3, 176160, Note_on_c, 1, 35, 80
3, 176252, Note_off_c, 1, 45, 64
3, 176252, Note_off_c, 1, 35, 100
3, 176254, Note_off_c, 1, 42, 100
3, 176256, Note_on_c, 1, 40, 80
3, 176444, Note_off_c, 1, 40, 100
3, 176444, Control_c, 1, 64, 0
3, 176448, Note_on_c, 1, 49, 70
3, 176540, Note_off_c, 1, 49, 100
3, 176544, Note_on_c, 1, 53, 70
3, 176544, Note_on_c, 1, 56, 70
3, 176544, Note_on_c, 1, 59, 70
3, 176636, Note_off_c, 1, 53, 100
3, 176636, Note_off_c, 1, 56, 100
3, 176636, Note_off_c, 1, 59, 100
3, 176640, Control_c, 1, 64, 127
3, 176640, Note_on_c, 1, 49, 70
3, 176732, Note_off_c, 1, 49, 100
3, 176736, Note_on_c, 1, 53, 70
3, 176736, Note_on_c, 1, 56, 70
3, 176736, Note_on_c, 1, 59, 70
3, 176828, Note_off_c, 1, 53, 100
3, 176828, Note_off_c, 1, 56, 100
3, 176828, Note_off_c, 1, 59, 100
3, 176832, Note_on_c, 1, 49, 70
3, 176924, Note_off_c, 1, 49, 100
3, 176928, Note_on_c, 1, 53, 70
3, 176928, Note_on_c, 1, 56, 70
3, 176928, Note_on_c, 1, 59, 70
3, 177020, Note_off_c, 1, 53, 100
3, 177020, Note_off_c, 1, 56, 100
3, 177020, Note_off_c, 1, 59, 100
3, 177024, Note_on_c, 1, 49, 70
3, 177116, Note_off_c, 1, 49, 100
3, 177120, Note_on_c, 1, 53, 70
3, 177120, Note_on_c, 1, 56, 70
3, 177120, Note_on_c, 1, 59, 70
3, 177212, Note_off_c, 1, 53, 100
3, 177212, Note_off_c, 1, 56, 100
3, 177212, Note_off_c, 1, 59, 100
3, 177216, Note_on_c, 1, 49, 70
3, 177308, Note_off_c, 1, 49, 100
3, 177312, Note_on_c, 1, 53, 70
3, 177312, Note_on_c, 1, 56, 70
3, 177312, Note_on_c, 1, 59, 70
3, 177404, Note_off_c, 1, 53, 100
3, 177404, Note_off_c, 1, 56, 100
3, 177404, Note_off_c, 1, 59, 100
3, 177408, Note_on_c, 1, 49, 70
3, 177500, Note_off_c, 1, 49, 100
3, 177504, Note_on_c, 1, 53, 70
3, 177504, Note_on_c, 1, 56, 70
3, 177504, Note_on_c, 1, 59, 70
3, 177596, Note_off_c, 1, 53, 100
3, 177596, Note_off_c, 1, 56, 100
3, 177596, Note_off_c, 1, 59, 100
3, 177600, Note_on_c, 1, 49, 70
3, 177692, Note_off_c, 1, 49, 100
3, 177696, Note_on_c, 1, 53, 70
3, 177696, Note_on_c, 1, 56, 70
3, 177696, Note_on_c, 1, 59, 70
3, 177788, Note_off_c, 1, 53, 100
3, 177788, Note_off_c, 1, 56, 100
3, 177788, Note_off_c, 1, 59, 100
3, 177788, Control_c, 1, 64, 0
3, 177792, Control_c, 1, 64, 127
3, 177792, Note_on_c, 1, 49, 70
3, 177884, Note_off_c, 1, 49, 100
3, 177888, Note_on_c, 1, 54, 70
3, 177888, Note_on_c, 1, 57, 70
3, 177980, Note_off_c, 1, 54, 100
3, 177980, Note_off_c, 1, 57, 100
3, 177984, Note_on_c, 1, 49, 70
3, 178076, Note_off_c, 1, 49, 100
3, 178080, Note_on_c, 1, 54, 70
3, 178080, Note_on_c, 1, 57, 70
3, 178172, Note_off_c, 1, 54, 100
3, 178172, Note_off_c, 1, 57, 100
3, 178176, Note_on_c, 1, 49, 70
3, 178268, Note_off_c, 1, 49, 100
3, 178272, Note_on_c, 1, 54, 70
3, 178272, Note_on_c, 1, 57, 70
3, 178364, Note_off_c, 1, 54, 100
3, 178364, Note_off_c, 1, 57, 100
3, 178364, Control_c, 1, 64, 0
3, 178368, Control_c, 1, 64, 127
3, 178368, Note_on_c, 1, 47, 70
3, 178460, Note_off_c, 1, 47, 100
3, 178464, Note_on_c, 1, 57, 70
3, 178464, Note_on_c, 1, 54, 70
3, 178464, Note_on_c, 1, 51, 70
3, 178556, Note_off_c, 1, 57, 100
3, 178556, Note_off_c, 1, 54, 100
3, 178556, Note_off_c, 1, 51, 100
3, 178560, Note_on_c, 1, 47, 70
3, 178652, Note_off_c, 1, 47, 100
3, 178656, Note_on_c, 1, 57, 70
3, 178656, Note_on_c, 1, 54, 70
3, 178656, Note_on_c, 1, 51, 70
3, 178748, Note_off_c, 1, 57, 100
3, 178748, Note_off_c, 1, 54, 100
3, 178748, Note_off_c, 1, 51, 100
3, 178752, Note_on_c, 1, 47, 70
3, 178844, Note_off_c, 1, 47, 100
3, 178848, Note_on_c, 1, 57, 70
3, 178848, Note_on_c, 1, 54, 70
3, 178848, Note_on_c, 1, 51, 70
3, 178940, Note_off_c, 1, 57, 100
3, 178940, Note_off_c, 1, 54, 100
3, 178940, Note_off_c, 1, 51, 100
3, 178944, Note_on_c, 1, 47, 70
3, 179036, Note_off_c, 1, 47, 100
3, 179040, Note_on_c, 1, 57, 70
3, 179040, Note_on_c, 1, 54, 70
3, 179040, Note_on_c, 1, 51, 70
3, 179132, Note_off_c, 1, 57, 100
3, 179132, Note_off_c, 1, 54, 100
3, 179132, Note_off_c, 1, 51, 100
3, 179136, Note_on_c, 1, 47, 70
3, 179228, Note_off_c, 1, 47, 100
3, 179232, Note_on_c, 1, 57, 70
3, 179232, Note_on_c, 1, 54, 70
3, 179232, Note_on_c, 1, 51, 70
3, 179324, Note_off_c, 1, 57, 100
3, 179324, Note_off_c, 1, 54, 100
3, 179324, Note_off_c, 1, 51, 100
3, 179328, Note_on_c, 1, 47, 70
3, 179420, Note_off_c, 1, 47, 100
3, 179424, Note_on_c, 1, 57, 70
3, 179424, Note_on_c, 1, 54, 70
3, 179424, Note_on_c, 1, 51, 70
3, 179516, Note_off_c, 1, 57, 100
3, 179516, Note_off_c, 1, 54, 100
3, 179516, Note_off_c, 1, 51, 100
3, 179516, Control_c, 1, 64, 0
3, 179520, Control_c, 1, 64, 127
3, 179520, Note_on_c, 1, 47, 70
3, 179612, Note_off_c, 1, 47, 100
3, 179616, Note_on_c, 1, 56, 70
3, 179616, Note_on_c, 1, 52, 70
3, 179708, Note_off_c, 1, 56, 100
3, 179708, Note_off_c, 1, 52, 100
3, 179712, Note_on_c, 1, 47, 70
3, 179804, Note_off_c, 1, 47, 100
3, 179808, Note_on_c, 1, 56, 70
3, 179808, Note_on_c, 1, 52, 70
3, 179900, Note_off_c, 1, 56, 100
3, 179900, Note_off_c, 1, 52, 100
3, 179904, Note_on_c, 1, 47, 70
3, 179996, Note_off_c, 1, 47, 100
3, 180000, Note_on_c, 1, 56, 70
3, 180000, Note_on_c, 1, 52, 70
3, 180092, Note_off_c, 1, 56, 100
3, 180092, Note_off_c, 1, 52, 100
3, 180092, Control_c, 1, 64, 0
3, 180096, Control_c, 1, 64, 127
3, 180096, Note_on_c, 1, 46, 80
3, 180188, Note_off_c, 1, 46, 100
3, 180192, Note_on_c, 1, 55, 81
3, 180192, Note_on_c, 1, 52, 81
3, 180192, Note_on_c, 1, 49, 81
3, 180284, Note_off_c, 1, 55, 100
3, 180284, Note_off_c, 1, 52, 100
3, 180284, Note_off_c, 1, 49, 100
3, 180288, Note_on_c, 1, 46, 83
3, 180380, Note_off_c, 1, 46, 100
3, 180384, Note_on_c, 1, 55, 85
3, 180384, Note_on_c, 1, 52, 85
3, 180384, Note_on_c, 1, 49, 85
3, 180476, Note_off_c, 1, 55, 100
3, 180476, Note_off_c, 1, 52, 100
3, 180476, Note_off_c, 1, 49, 100
3, 180480, Note_on_c, 1, 46, 87
3, 180572, Note_off_c, 1, 46, 100
3, 180576, Note_on_c, 1, 55, 88
3, 180576, Note_on_c, 1, 52, 88
3, 180576, Note_on_c, 1, 49, 88
3, 180668, Note_off_c, 1, 55, 100
3, 180668, Note_off_c, 1, 52, 100
3, 180668, Note_off_c, 1, 49, 100
3, 180672, Note_on_c, 1, 46, 90
3, 180764, Note_off_c, 1, 46, 100
3, 180768, Note_on_c, 1, 55, 92
3, 180768, Note_on_c, 1, 52, 92
3, 180768, Note_on_c, 1, 49, 92
3, 180860, Note_off_c, 1, 55, 100
3, 180860, Note_off_c, 1, 52, 100
3, 180860, Note_off_c, 1, 49, 100
3, 180864, Note_on_c, 1, 46, 94
3, 180956, Note_off_c, 1, 46, 100
3, 180960, Note_on_c, 1, 55, 95
3, 180960, Note_on_c, 1, 52, 95
3, 180960, Note_on_c, 1, 49, 95
3, 181052, Note_off_c, 1, 55, 100
3, 181052, Note_off_c, 1, 52, 100
3, 181052, Note_off_c, 1, 49, 100
3, 181056, Note_on_c, 1, 46, 97
3, 181148, Note_off_c, 1, 46, 100
3, 181152, Note_on_c, 1, 55, 99
3, 181152, Note_on_c, 1, 52, 99
3, 181152, Note_on_c, 1, 49, 99
3, 181244, Note_off_c, 1, 55, 100
3, 181244, Note_off_c, 1, 52, 100
3, 181244, Note_off_c, 1, 49, 100
3, 181248, Note_on_c, 1, 46, 101
3, 181340, Note_off_c, 1, 46, 100
3, 181344, Note_on_c, 1, 55, 102
3, 181344, Note_on_c, 1, 52, 102
3, 181344, Note_on_c, 1, 49, 102
3, 181436, Note_off_c, 1, 55, 100
3, 181436, Note_off_c, 1, 52, 100
3, 181436, Note_off_c, 1, 49, 100
3, 181440, Note_on_c, 1, 46, 104
3, 181532, Note_off_c, 1, 46, 100
3, 181536, Note_on_c, 1, 55, 106
3, 181536, Note_on_c, 1, 52, 106
3, 181536, Note_on_c, 1, 49, 106
3, 181628, Note_off_c, 1, 55, 100
3, 181628, Note_off_c, 1, 52, 100
3, 181628, Note_off_c, 1, 49, 100
3, 181632, Note_on_c, 1, 46, 108
3, 181724, Note_off_c, 1, 46, 100
3, 181728, Note_on_c, 1, 51, 109
3, 181728, Note_on_c, 1, 55, 109
3, 181728, Note_on_c, 1, 49, 109
3, 181820, Note_off_c, 1, 51, 100
3, 181820, Note_off_c, 1, 55, 100
3, 181820, Note_off_c, 1, 49, 100
3, 181820, Control_c, 1, 64, 0
3, 181824, Note_on_c, 1, 44, 110
3, 181916, Note_off_c, 1, 44, 100
3, 181920, Note_on_c, 1, 56, 110
3, 181920, Note_on_c, 1, 51, 110
3, 181920, Note_on_c, 1, 47, 110
3, 182012, Note_off_c, 1, 56, 100
3, 182012, Note_off_c, 1, 51, 100
3, 182012, Note_off_c, 1, 47, 100
3, 182016, Note_on_c, 1, 44, 110
3, 182108, Note_off_c, 1, 44, 100
3, 182112, Note_on_c, 1, 56, 110
3, 182112, Note_on_c, 1, 51, 110
3, 182112, Note_on_c, 1, 47, 110
3, 182204, Note_off_c, 1, 56, 100
3, 182204, Note_off_c, 1, 51, 100
3, 182204, Note_off_c, 1, 47, 100
3, 182208, Note_on_c, 1, 44, 110
3, 182300, Note_off_c, 1, 44, 100
3, 182304, Note_on_c, 1, 56, 110
3, 182304, Note_on_c, 1, 51, 110
3, 182304, Note_on_c, 1, 47, 110
3, 182396, Note_off_c, 1, 56, 100
3, 182396, Note_off_c, 1, 51, 100
3, 182396, Note_off_c, 1, 47, 100
3, 182400, Note_on_c, 1, 44, 110
3, 182492, Note_off_c, 1, 44, 100
3, 182496, Note_on_c, 1, 55, 110
3, 182496, Note_on_c, 1, 51, 110
3, 182496, Note_on_c, 1, 49, 110
3, 182588, Note_off_c, 1, 55, 100
3, 182588, Note_off_c, 1, 51, 100
3, 182588, Note_off_c, 1, 49, 100
3, 182592, Note_on_c, 1, 44, 110
3, 182684, Note_off_c, 1, 44, 100
3, 182688, Note_on_c, 1, 55, 110
3, 182688, Note_on_c, 1, 51, 110
3, 182688, Note_on_c, 1, 49, 110
3, 182780, Note_off_c, 1, 55, 100
3, 182780, Note_off_c, 1, 51, 100
3, 182780, Note_off_c, 1, 49, 100
3, 182784, Note_on_c, 1, 44, 110
3, 182876, Note_off_c, 1, 44, 100
3, 182880, Note_on_c, 1, 55, 110
3, 182880, Note_on_c, 1, 51, 110
3, 182880, Note_on_c, 1, 49, 110
3, 182972, Note_off_c, 1, 55, 100
3, 182972, Note_off_c, 1, 51, 100
3, 182972, Note_off_c, 1, 49, 100
3, 182976, Note_on_c, 1, 44, 110
3, 183068, Note_off_c, 1, 44, 100
3, 183072, Note_on_c, 1, 56, 110
3, 183072, Note_on_c, 1, 51, 110
3, 183072, Note_on_c, 1, 47, 110
3, 183164, Note_off_c, 1, 56, 100
3, 183164, Note_off_c, 1, 51, 100
3, 183164, Note_off_c, 1, 47, 100
3, 183168, Note_on_c, 1, 44, 110
3, 183260, Note_off_c, 1, 44, 100
3, 183264, Note_on_c, 1, 56, 110
3, 183264, Note_on_c, 1, 51, 110
3, 183264, Note_on_c, 1, 47, 110
3, 183356, Note_off_c, 1, 56, 100
3, 183356, Note_off_c, 1, 51, 100
3, 183356, Note_off_c, 1, 47, 100
3, 183360, Note_on_c, 1, 44, 110
3, 183452, Note_off_c, 1, 44, 100
3, 183456, Note_on_c, 1, 52, 110
3, 183456, Note_on_c, 1, 56, 110
3, 183456, Note_on_c, 1, 47, 110
3, 183548, Note_off_c, 1, 52, 100
3, 183548, Note_off_c, 1, 56, 100
3, 183548, Note_off_c, 1, 47, 100
3, 183552, Note_on_c, 1, 42, 120
3, 183644, Note_off_c, 1, 42, 100
3, 183648, Note_on_c, 1, 45, 120
3, 183648, Note_on_c, 1, 49, 120
3, 183648, Note_on_c, 1, 52, 120
3, 183740, Note_off_c, 1, 45, 100
3, 183740, Note_off_c, 1, 49, 100
3, 183740, Note_off_c, 1, 52, 100
3, 183744, Note_on_c, 1, 42, 120
3, 183836, Note_off_c, 1, 42, 100
3, 183840, Note_on_c, 1, 45, 120
3, 183840, Note_on_c, 1, 49, 120
3, 183840, Note_on_c, 1, 52, 120
3, 183932, Note_off_c, 1, 45, 100
3, 183932, Note_off_c, 1, 49, 100
3, 183932, Note_off_c, 1, 52, 100
3, 183936, Note_on_c, 1, 42, 120
3, 184028, Note_off_c, 1, 42, 100
3, 184032, Note_on_c, 1, 45, 120
3, 184032, Note_on_c, 1, 49, 120
3, 184032, Note_on_c, 1, 52, 120
3, 184124, Note_off_c, 1, 45, 100
3, 184124, Note_off_c, 1, 49, 100
3, 184124, Note_off_c, 1, 52, 100
3, 184128, Note_on_c, 1, 42, 120
3, 184220, Note_off_c, 1, 42, 100
3, 184224, Note_on_c, 1, 45, 120
3, 184224, Note_on_c, 1, 49, 120
3, 184224, Note_on_c, 1, 52, 120
3, 184316, Note_off_c, 1, 45, 100
3, 184316, Note_off_c, 1, 49, 100
3, 184316, Note_off_c, 1, 52, 100
3, 184320, Note_on_c, 1, 42, 120
3, 184412, Note_off_c, 1, 42, 100
3, 184416, Note_on_c, 1, 45, 120
3, 184416, Note_on_c, 1, 49, 120
3, 184416, Note_on_c, 1, 52, 120
3, 184508, Note_off_c, 1, 45, 100
3, 184508, Note_off_c, 1, 49, 100
3, 184508, Note_off_c, 1, 52, 100
3, 184512, Note_on_c, 1, 42, 120
3, 184604, Note_off_c, 1, 42, 100
3, 184608, Note_on_c, 1, 45, 120
3, 184608, Note_on_c, 1, 49, 120
3, 184608, Note_on_c, 1, 52, 120
3, 184700, Note_off_c, 1, 45, 100
3, 184700, Note_off_c, 1, 49, 100
3, 184700, Note_off_c, 1, 52, 100
3, 184704, Note_on_c, 1, 54, 110
3, 184704, Note_on_c, 1, 52, 110
3, 184796, Note_off_c, 1, 54, 100
3, 184800, Note_on_c, 1, 56, 107
3, 184892, Note_off_c, 1, 56, 100
3, 184896, Note_on_c, 1, 57, 103
3, 184988, Note_off_c, 1, 57, 100
3, 184992, Note_on_c, 1, 54, 99
3, 185084, Note_off_c, 1, 54, 100
3, 185088, Note_on_c, 1, 56, 95
3, 185180, Note_off_c, 1, 56, 100
3, 185184, Note_on_c, 1, 57, 91
3, 185276, Note_off_c, 1, 52, 100
3, 185276, Note_off_c, 1, 57, 100
3, 185280, Note_on_c, 1, 51, 90
3, 185372, Note_off_c, 1, 51, 100
3, 185376, Note_on_c, 1, 52, 90
3, 185468, Note_off_c, 1, 52, 100
3, 185472, Note_on_c, 1, 54, 90
3, 185564, Note_off_c, 1, 54, 100
3, 185568, Note_on_c, 1, 51, 90
3, 185660, Note_off_c, 1, 51, 100
3, 185664, Note_on_c, 1, 52, 90
3, 185756, Note_off_c, 1, 52, 100
3, 185760, Note_on_c, 1, 54, 90
3, 185852, Note_off_c, 1, 54, 100
3, 185856, Note_on_c, 1, 51, 90
3, 185948, Note_off_c, 1, 51, 100
3, 185952, Note_on_c, 1, 49, 90
3, 186044, Note_off_c, 1, 49, 100
3, 186048, Note_on_c, 1, 47, 90
3, 186140, Note_off_c, 1, 47, 100
3, 186144, Note_on_c, 1, 45, 90
3, 186236, Note_off_c, 1, 45, 100
3, 186240, Note_on_c, 1, 44, 90
3, 186332, Note_off_c, 1, 44, 100
3, 186336, Note_on_c, 1, 42, 90
3, 186428, Note_off_c, 1, 42, 100
3, 186432, Note_on_c, 1, 52, 90
3, 186524, Note_off_c, 1, 52, 100
3, 186528, Note_on_c, 1, 51, 90
3, 186620, Note_off_c, 1, 51, 100
3, 186624, Note_on_c, 1, 49, 90
3, 186716, Note_off_c, 1, 49, 100
3, 186720, Note_on_c, 1, 47, 90
3, 186812, Note_off_c, 1, 47, 100
3, 186816, Note_on_c, 1, 45, 90
3, 186908, Note_off_c, 1, 45, 100
3, 186912, Note_on_c, 1, 44, 90
3, 187004, Note_off_c, 1, 44, 100
3, 187008, Note_on_c, 1, 47, 90
3, 187100, Note_off_c, 1, 47, 100
3, 187104, Note_on_c, 1, 49, 90
3, 187196, Note_off_c, 1, 49, 100
3, 187200, Note_on_c, 1, 51, 90
3, 187292, Note_off_c, 1, 51, 100
3, 187296, Note_on_c, 1, 52, 90
3, 187388, Note_off_c, 1, 52, 100
3, 187392, Note_on_c, 1, 54, 90
3, 187484, Note_off_c, 1, 54, 100
3, 187488, Note_on_c, 1, 56, 90
3, 187580, Note_off_c, 1, 56, 100
3, 187584, Note_on_c, 1, 52, 90
3, 187584, Note_on_c, 1, 47, 90
3, 187676, Note_off_c, 1, 52, 100
3, 187680, Note_on_c, 1, 54, 90
3, 187772, Note_off_c, 1, 54, 100
3, 187776, Note_on_c, 1, 56, 90
3, 187868, Note_off_c, 1, 56, 100
3, 187872, Note_on_c, 1, 52, 90
3, 187964, Note_off_c, 1, 52, 100
3, 187968, Note_on_c, 1, 54, 90
3, 188060, Note_off_c, 1, 54, 100
3, 188064, Note_on_c, 1, 56, 90
3, 188156, Note_off_c, 1, 47, 100
3, 188156, Note_off_c, 1, 56, 100
3, 188160, Note_on_c, 1, 54, 90
3, 188160, Note_on_c, 1, 47, 90
3, 188252, Note_off_c, 1, 54, 100
3, 188256, Note_on_c, 1, 56, 90
3, 188348, Note_off_c, 1, 56, 100
3, 188352, Note_on_c, 1, 57, 90
3, 188444, Note_off_c, 1, 57, 100
3, 188448, Note_on_c, 1, 54, 90
3, 188540, Note_off_c, 1, 54, 100
3, 188544, Note_on_c, 1, 56, 90
3, 188636, Note_off_c, 1, 56, 100
3, 188640, Note_on_c, 1, 57, 90
3, 188732, Note_off_c, 1, 47, 100
3, 188732, Note_off_c, 1, 57, 100
3, 188736, Control_c, 1, 64, 127
3, 188736, Note_on_c, 1, 35, 90
3, 188832, Note_on_c, 1, 39, 90
3, 188928, Note_on_c, 1, 42, 91
3, 189020, Note_off_c, 1, 35, 100
3, 189024, Note_on_c, 1, 45, 92
3, 189116, Note_off_c, 1, 39, 100
3, 189120, Note_on_c, 1, 47, 93
3, 189212, Note_off_c, 1, 42, 100
3, 189216, Note_on_c, 1, 51, 94
3, 189308, Note_off_c, 1, 45, 100
3, 189312, Note_on_c, 1, 54, 94
3, 189404, Note_off_c, 1, 47, 64
3, 189408, Note_on_c, 1, 57, 95
3, 189500, Note_off_c, 1, 51, 64
3, 189504, Note_on_c, 1, 54, 96
3, 189596, Note_off_c, 1, 54, 100
3, 189600, Note_on_c, 1, 51, 97
3, 189692, Note_off_c, 1, 57, 100
3, 189696, Note_on_c, 1, 47, 98
3, 189788, Note_off_c, 1, 54, 100
3, 189792, Note_on_c, 1, 45, 99
3, 189884, Note_off_c, 1, 51, 100
3, 189888, Note_on_c, 1, 42, 99
3, 189980, Note_off_c, 1, 47, 64
3, 189984, Note_on_c, 1, 35, 80
3, 190076, Note_off_c, 1, 45, 64
3, 190076, Note_off_c, 1, 35, 100
3, 190078, Note_off_c, 1, 42, 100
3, 190080, Note_on_c, 1, 40, 80
3, 190268, Note_off_c, 1, 40, 100
3, 190268, Control_c, 1, 64, 0
3, 190848, Note_on_c, 1, 40, 110
3, 191228, Note_off_c, 1, 40, 100
3, 191232, Note_on_c, 1, 44, 110
3, 192380, Note_off_c, 1, 44, 64
3, 192384, Note_on_c, 1, 42, 110
3, 192764, Note_off_c, 1, 42, 100
3, 192768, Note_on_c, 1, 45, 110
3, 193916, Note_off_c, 1, 45, 64
3, 193920, Note_on_c, 1, 44, 110
3, 194300, Note_off_c, 1, 44, 100
3, 194304, Note_on_c, 1, 47, 110
3, 195452, Note_off_c, 1, 47, 64
3, 195456, Note_on_c, 1, 45, 110
3, 195836, Note_off_c, 1, 45, 100
3, 195840, Note_on_c, 1, 48, 110
3, 196220, Note_off_c, 1, 48, 100
3, 196224, Note_on_c, 1, 40, 110
3, 196608, Note_on_c, 1, 47, 110
3, 196988, Note_off_c, 1, 40, 64
3, 196992, Note_on_c, 1, 42, 110
3, 197180, Note_off_c, 1, 42, 100
3, 197184, Note_on_c, 1, 37, 110
3, 197372, Note_off_c, 1, 47, 100
3, 197372, Note_off_c, 1, 37, 100
3, 197376, Note_on_c, 1, 39, 110
3, 197376, Note_on_c, 1, 42, 110
3, 197756, Note_off_c, 1, 39, 100
3, 197760, Note_on_c, 1, 35, 110
3, 198524, Note_off_c, 1, 35, 64
3, 198524, Note_off_c, 1, 42, 64
3, 198528, Note_on_c, 1, 44, 110
3, 198720, Note_on_c, 1, 39, 110
3, 198908, Note_off_c, 1, 44, 100
3, 198908, Note_off_c, 1, 39, 100
3, 198912, Note_on_c, 1, 40, 110
3, 199292, Note_off_c, 1, 40, 100
3, 199296, Note_on_c, 1, 35, 110
3, 199676, Note_off_c, 1, 35, 100
3, 199680, Note_on_c, 1, 36, 110
3, 200060, Note_off_c, 1, 36, 100
3, 200064, Note_on_c, 1, 37, 110
3, 200448, Note_on_c, 1, 49, 110
3, 200828, Note_off_c, 1, 37, 100
3, 200828, Note_off_c, 1, 49, 100
3, 200832, Note_on_c, 1, 48, 110
3, 200832, Note_on_c, 1, 36, 110
3, 201212, Note_off_c, 1, 48, 100
3, 201216, Note_on_c, 1, 43, 110
3, 201596, Note_off_c, 1, 43, 100
3, 201600, Note_on_c, 1, 41, 110
3, 201980, Note_off_c, 1, 41, 100
3, 201984, Note_on_c, 1, 40, 110
3, 202364, Note_off_c, 1, 36, 64
3, 202364, Note_off_c, 1, 40, 100
3, 202368, Note_on_c, 1, 35, 110
3, 202368, Note_on_c, 1, 42, 110
3, 202748, Note_off_c, 1, 35, 100
3, 202748, Note_off_c, 1, 42, 100
3, 202944, Note_on_c, 1, 35, 110
3, 203132, Note_off_c, 1, 35, 100
3, 203136, Note_on_c, 1, 37, 110
3, 203324, Note_off_c, 1, 37, 100
3, 203328, Note_on_c, 1, 39, 110
3, 203516, Note_off_c, 1, 39, 100
3, 203520, Note_on_c, 1, 40, 110
3, 203708, Note_off_c, 1, 40, 100
3, 203712, Note_on_c, 1, 42, 110
3, 203900, Note_off_c, 1, 42, 100
3, 203904, Note_on_c, 1, 44, 110
3, 204092, Note_off_c, 1, 44, 100
3, 204096, Note_on_c, 1, 40, 110
3, 204284, Note_off_c, 1, 40, 100
3, 204288, Note_on_c, 1, 42, 110
3, 204476, Note_off_c, 1, 42, 100
3, 204480, Note_on_c, 1, 35, 110
3, 204668, Note_off_c, 1, 35, 100
3, 204672, Note_on_c, 1, 39, 110
3, 204860, Note_off_c, 1, 39, 100
3, 204864, Note_on_c, 1, 40, 110
3, 205052, Note_off_c, 1, 40, 100
3, 205056, Note_on_c, 1, 42, 110
3, 205244, Note_off_c, 1, 42, 100
3, 205248, Note_on_c, 1, 44, 110
3, 205436, Note_off_c, 1, 44, 100
3, 205440, Note_on_c, 1, 45, 110
3, 205628, Note_off_c, 1, 45, 100
3, 205632, Note_on_c, 1, 42, 110
3, 205820, Note_off_c, 1, 42, 100
3, 205824, Note_on_c, 1, 47, 110
3, 206012, Note_off_c, 1, 47, 100
3, 206016, Note_on_c, 1, 51, 110
3, 206204, Note_off_c, 1, 51, 100
3, 206208, Note_on_c, 1, 52, 110
3, 206396, Note_off_c, 1, 52, 100
3, 206400, Note_on_c, 1, 54, 110
3, 206588, Note_off_c, 1, 54, 100
3, 206592, Note_on_c, 1, 64, 110
3, 206592, Note_on_c, 1, 56, 110
3, 207356, Note_off_c, 1, 56, 100
3, 207360, Note_on_c, 1, 54, 110
3, 207740, Note_off_c, 1, 64, 64
3, 207744, Note_on_c, 1, 66, 110
3, 207932, Note_off_c, 1, 66, 100
3, 207936, Note_on_c, 1, 61, 110
3, 208124, Note_off_c, 1, 54, 100
3, 208124, Note_off_c, 1, 61, 100
3, 208128, Note_on_c, 1, 63, 110
3, 208128, Note_on_c, 1, 57, 110
3, 208508, Note_off_c, 1, 63, 100
3, 208512, Note_on_c, 1, 59, 110
3, 208892, Note_off_c, 1, 57, 100
3, 208896, Note_on_c, 1, 56, 110
3, 209276, Note_off_c, 1, 59, 64
3, 209280, Note_on_c, 1, 68, 110
3, 209468, Note_off_c, 1, 68, 100
3, 209472, Note_on_c, 1, 63, 110
3, 209660, Note_off_c, 1, 56, 100
3, 209660, Note_off_c, 1, 63, 100
3, 209664, Note_on_c, 1, 64, 110
3, 209664, Note_on_c, 1, 59, 110
3, 210044, Note_off_c, 1, 64, 100
3, 210048, Note_on_c, 1, 62, 110
3, 210428, Note_off_c, 1, 59, 100
3, 210428, Note_off_c, 1, 62, 100
3, 210432, Note_on_c, 1, 57, 110
3, 210432, Note_on_c, 1, 60, 110
3, 210812, Note_off_c, 1, 60, 100
3, 210816, Note_on_c, 1, 69, 110
3, 211004, Note_off_c, 1, 69, 100
3, 211008, Note_on_c, 1, 64, 110
3, 211196, Note_off_c, 1, 57, 100
3, 211196, Note_off_c, 1, 64, 100
3, 211200, Note_on_c, 1, 65, 110
3, 211200, Note_on_c, 1, 60, 110
3, 211580, Note_off_c, 1, 65, 100
3, 211584, Note_on_c, 1, 64, 110
3, 211964, Note_off_c, 1, 64, 100
3, 211968, Note_on_c, 1, 62, 110
3, 212348, Note_off_c, 1, 60, 64
3, 212348, Note_off_c, 1, 62, 100
3, 212352, Note_on_c, 1, 71, 110
3, 212352, Note_on_c, 1, 59, 110
3, 212540, Note_off_c, 1, 71, 100
3, 212544, Note_on_c, 1, 66, 110
3, 212732, Note_off_c, 1, 66, 100
3, 212736, Note_on_c, 1, 67, 110
3, 213116, Note_off_c, 1, 59, 100
3, 213116, Note_off_c, 1, 67, 100
3, 213120, Note_on_c, 1, 65, 110
3, 213120, Note_on_c, 1, 55, 110
3, 213500, Note_off_c, 1, 65, 100
3, 213500, Note_off_c, 1, 55, 100
3, 213504, Note_on_c, 1, 64, 110
3, 213504, Note_on_c, 1, 60, 110
3, 213692, Note_off_c, 1, 64, 100
3, 213696, Note_on_c, 1, 65, 110
3, 213884, Note_off_c, 1, 65, 100
3, 213888, Note_on_c, 1, 67, 110
3, 214076, Note_off_c, 1, 67, 100
3, 214080, Note_on_c, 1, 65, 110
3, 214268, Note_off_c, 1, 65, 100
3, 214272, Note_on_c, 1, 64, 110
3, 214652, Note_off_c, 1, 60, 100
3, 214652, Note_off_c, 1, 64, 100
3, 214656, Note_on_c, 1, 66, 110
3, 214656, Note_on_c, 1, 59, 110
3, 215036, Note_off_c, 1, 66, 100
3, 215036, Note_off_c, 1, 59, 100
3, 215040, Note_on_c, 1, 59, 110
3, 215804, Note_off_c, 1, 59, 100
3, 215808, Note_on_c, 1, 50, 110
3, 216956, Note_off_c, 1, 50, 64
3, 216960, Note_on_c, 1, 49, 110
3, 217148, Note_off_c, 1, 49, 100
3, 217152, Note_on_c, 1, 47, 110
3, 217340, Note_off_c, 1, 47, 100
3, 217344, Note_on_c, 1, 45, 110
3, 217724, Note_off_c, 1, 45, 100
3, 217728, Note_on_c, 1, 42, 110
3, 218300, Note_off_c, 1, 42, 64
3, 218304, Note_on_c, 1, 32, 110
3, 218492, Note_off_c, 1, 32, 100
3, 218496, Note_on_c, 1, 34, 110
3, 218684, Note_off_c, 1, 34, 100
3, 218688, Note_on_c, 1, 36, 110
3, 218876, Note_off_c, 1, 36, 100
3, 218880, Note_on_c, 1, 37, 110
3, 219068, Note_off_c, 1, 37, 100
3, 219072, Note_on_c, 1, 39, 110
3, 219260, Note_off_c, 1, 39, 100
3, 219264, Note_on_c, 1, 40, 110
3, 219452, Note_off_c, 1, 40, 100
3, 219456, Note_on_c, 1, 37, 110
3, 219644, Note_off_c, 1, 37, 100
3, 219648, Note_on_c, 1, 39, 110
3, 220028, Note_off_c, 1, 39, 100
3, 220032, Note_on_c, 1, 51, 110
3, 220220, Note_off_c, 1, 51, 100
3, 220224, Note_on_c, 1, 49, 110
3, 220412, Note_off_c, 1, 49, 100
3, 220416, Note_on_c, 1, 47, 110
3, 220796, Note_off_c, 1, 47, 100
3, 220800, Note_on_c, 1, 44, 110
3, 221184, Note_on_c, 1, 54, 110
3, 221372, Note_off_c, 1, 44, 64
3, 221376, Note_on_c, 1, 42, 110
3, 221564, Note_off_c, 1, 42, 100
3, 221568, Note_on_c, 1, 51, 110
3, 221756, Note_off_c, 1, 51, 100
3, 221760, Note_on_c, 1, 53, 110
3, 221948, Note_off_c, 1, 54, 100
3, 221948, Note_off_c, 1, 53, 100
3, 221952, Note_on_c, 1, 54, 110
3, 221952, Note_on_c, 1, 57, 110
3, 222140, Note_off_c, 1, 54, 100
3, 222144, Note_on_c, 1, 49, 110
3, 222332, Note_off_c, 1, 49, 100
3, 222336, Note_on_c, 1, 54, 110
3, 222524, Note_off_c, 1, 54, 100
3, 222528, Note_on_c, 1, 52, 110
3, 222716, Note_off_c, 1, 52, 100
3, 222720, Note_on_c, 1, 51, 110
3, 222908, Note_off_c, 1, 51, 100
3, 222912, Note_on_c, 1, 47, 110
3, 223100, Note_off_c, 1, 57, 64
3, 223100, Note_off_c, 1, 47, 100
3, 223104, Note_on_c, 1, 49, 110
3, 223292, Note_off_c, 1, 49, 100
3, 223296, Note_on_c, 1, 51, 110
3, 223484, Note_off_c, 1, 51, 100
3, 223488, Note_on_c, 1, 52, 110
3, 223676, Note_off_c, 1, 52, 100
3, 223680, Note_on_c, 1, 47, 110
3, 223868, Note_off_c, 1, 47, 100
3, 223872, Note_on_c, 1, 49, 110
3, 224060, Note_off_c, 1, 49, 100
3, 224064, Note_on_c, 1, 46, 110
3, 224252, Note_off_c, 1, 46, 100
3, 224256, Note_on_c, 1, 47, 110
3, 225020, Note_off_c, 1, 47, 100
3, 225024, Note_on_c, 1, 35, 110
3, 225404, Note_off_c, 1, 35, 100
3, 225408, Note_on_c, 1, 33, 110
3, 226556, Note_off_c, 1, 33, 64
3, 226560, Note_on_c, 1, 32, 110
3, 226940, Note_off_c, 1, 32, 100
3, 226944, Note_on_c, 1, 52, 110
3, 227708, Note_off_c, 1, 52, 64
3, 227712, Note_on_c, 1, 50, 110
3, 227900, Note_off_c, 1, 50, 100
3, 227904, Note_on_c, 1, 49, 110
3, 228092, Note_off_c, 1, 49, 100
3, 228096, Note_on_c, 1, 47, 110
3, 228284, Note_off_c, 1, 47, 100
3, 228288, Note_on_c, 1, 50, 110
3, 228476, Note_off_c, 1, 50, 100
3, 228480, Note_on_c, 1, 42, 110
3, 228668, Note_off_c, 1, 42, 100
3, 228672, Note_on_c, 1, 42, 110
3, 228860, Note_off_c, 1, 42, 100
3, 228864, Note_on_c, 1, 41, 110
3, 229052, Note_off_c, 1, 41, 100
3, 229056, Note_on_c, 1, 49, 110
3, 229244, Note_off_c, 1, 49, 100
3, 229248, Note_on_c, 1, 41, 110
3, 229436, Note_off_c, 1, 41, 100
3, 229440, Note_on_c, 1, 41, 110
3, 229628, Note_off_c, 1, 41, 100
3, 229632, Note_on_c, 1, 42, 110
3, 229820, Note_off_c, 1, 42, 100
3, 229824, Note_on_c, 1, 54, 110
3, 230012, Note_off_c, 1, 54, 100
3, 230016, Note_on_c, 1, 49, 110
3, 230204, Note_off_c, 1, 49, 100
3, 230208, Note_on_c, 1, 49, 110
3, 230396, Note_off_c, 1, 49, 100
3, 230400, Note_on_c, 1, 48, 110
3, 230588, Note_off_c, 1, 48, 100
3, 230592, Note_on_c, 1, 51, 110
3, 230780, Note_off_c, 1, 51, 100
3, 230784, Note_on_c, 1, 44, 110
3, 230972, Note_off_c, 1, 44, 100
3, 230976, Note_on_c, 1, 44, 110
3, 231164, Note_off_c, 1, 44, 100
3, 231168, Note_on_c, 1, 49, 110
3, 231356, Note_off_c, 1, 49, 100
3, 231360, Note_on_c, 1, 52, 110
3, 231548, Note_off_c, 1, 52, 100
3, 231552, Note_on_c, 1, 44, 110
3, 231740, Note_off_c, 1, 44, 100
3, 231744, Note_on_c, 1, 44, 110
3, 231932, Note_off_c, 1, 44, 100
3, 231936, Note_on_c, 1, 43, 110
3, 232124, Note_off_c, 1, 43, 100
3, 232128, Note_on_c, 1, 55, 110
3, 232316, Note_off_c, 1, 55, 100
3, 232320, Note_on_c, 1, 51, 110
3, 232508, Note_off_c, 1, 51, 100
3, 232512, Note_on_c, 1, 51, 110
3, 232700, Note_off_c, 1, 51, 100
3, 232704, Note_on_c, 1, 44, 110
3, 232892, Note_off_c, 1, 44, 100
3, 232896, Note_on_c, 1, 56, 110
3, 233084, Note_off_c, 1, 56, 100
3, 233088, Note_on_c, 1, 44, 110
3, 233276, Note_off_c, 1, 44, 100
3, 233280, Note_on_c, 1, 44, 110
3, 233852, Note_off_c, 1, 44, 64
3, 233856, Note_on_c, 1, 42, 110
3, 234044, Note_off_c, 1, 42, 100
3, 234048, Note_on_c, 1, 40, 110
3, 234236, Note_off_c, 1, 40, 100
3, 234240, Note_on_c, 1, 39, 110
3, 234620, Note_off_c, 1, 39, 100
3, 234624, Note_on_c, 1, 48, 110
3, 235388, Note_off_c, 1, 48, 64
3, 235392, Note_on_c, 1, 47, 110
3, 235580, Note_off_c, 1, 47, 100
3, 235584, Note_on_c, 1, 45, 110
3, 235772, Note_off_c, 1, 45, 100
3, 235776, Note_on_c, 1, 44, 110
3, 236156, Note_off_c, 1, 44, 100
3, 236160, Note_on_c, 1, 64, 110
3, 236160, Note_on_c, 1, 56, 110
3, 236348, Note_off_c, 1, 64, 100
3, 236352, Note_on_c, 1, 64, 110
3, 236924, Note_off_c, 1, 56, 64
3, 236924, Note_off_c, 1, 64, 64
3, 236928, Note_on_c, 1, 54, 110
3, 236928, Note_on_c, 1, 63, 110
3, 237116, Note_off_c, 1, 54, 100
3, 237116, Note_off_c, 1, 63, 100
3, 237120, Note_on_c, 1, 52, 110
3, 237120, Note_on_c, 1, 61, 110
3, 237308, Note_off_c, 1, 52, 100
3, 237308, Note_off_c, 1, 61, 100
3, 237312, Note_on_c, 1, 51, 110
3, 237312, Note_on_c, 1, 59, 110
3, 237692, Note_off_c, 1, 51, 100
3, 237692, Note_off_c, 1, 59, 100
3, 237696, Note_on_c, 1, 47, 110
3, 237696, Note_on_c, 1, 51, 110
3, 238076, Note_off_c, 1, 47, 100
3, 238076, Note_off_c, 1, 51, 100
3, 238080, Note_on_c, 1, 49, 110
3, 238080, Note_on_c, 1, 52, 110
3, 238268, Note_off_c, 1, 49, 100
3, 238268, Note_off_c, 1, 52, 100
3, 238272, Note_on_c, 1, 47, 110
3, 238272, Note_on_c, 1, 51, 110
3, 238460, Note_off_c, 1, 47, 100
3, 238460, Note_off_c, 1, 51, 100
3, 238464, Note_on_c, 1, 49, 110
3, 238464, Note_on_c, 1, 52, 110
3, 238652, Note_off_c, 1, 49, 100
3, 238652, Note_off_c, 1, 52, 100
3, 238656, Note_on_c, 1, 51, 110
3, 238656, Note_on_c, 1, 54, 110
3, 238844, Note_off_c, 1, 51, 100
3, 238844, Note_off_c, 1, 54, 100
3, 238848, Note_on_c, 1, 52, 110
3, 239036, Note_off_c, 1, 52, 100
3, 239040, Note_on_c, 1, 47, 110
3, 239228, Note_off_c, 1, 47, 100
3, 239232, Note_on_c, 1, 40, 110
3, 239420, Note_off_c, 1, 40, 100
3, 239424, Note_on_c, 1, 52, 110
3, 239996, Note_off_c, 1, 52, 64
3, 240000, Note_on_c, 1, 50, 80
3, 240188, Note_off_c, 1, 50, 100
3, 240192, Note_on_c, 1, 49, 80
3, 240380, Note_off_c, 1, 49, 100
3, 240384, Note_on_c, 1, 47, 80
3, 240572, Note_off_c, 1, 47, 100
3, 240576, Note_on_c, 1, 50, 80
3, 240764, Note_off_c, 1, 50, 100
3, 240768, Note_on_c, 1, 42, 80
3, 240956, Note_off_c, 1, 42, 100
3, 240960, Note_on_c, 1, 42, 80
3, 241148, Note_off_c, 1, 42, 100
3, 241152, Note_on_c, 1, 41, 80
3, 241340, Note_off_c, 1, 41, 100
3, 241344, Note_on_c, 1, 49, 80
3, 241532, Note_off_c, 1, 49, 100
3, 241536, Note_on_c, 1, 41, 80
3, 241724, Note_off_c, 1, 41, 100
3, 241728, Note_on_c, 1, 41, 80
3, 241916, Note_off_c, 1, 41, 100
3, 241920, Note_on_c, 1, 42, 80
3, 242108, Note_off_c, 1, 42, 100
3, 242112, Note_on_c, 1, 54, 80
3, 242300, Note_off_c, 1, 54, 100
3, 242304, Note_on_c, 1, 49, 80
3, 242492, Note_off_c, 1, 49, 100
3, 242496, Note_on_c, 1, 49, 80
3, 242684, Note_off_c, 1, 49, 100
3, 242688, Note_on_c, 1, 48, 80
3, 242876, Note_off_c, 1, 48, 100
3, 242880, Note_on_c, 1, 51, 80
3, 243068, Note_off_c, 1, 51, 100
3, 243072, Note_on_c, 1, 44, 80
3, 243260, Note_off_c, 1, 44, 100
3, 243264, Note_on_c, 1, 44, 80
3, 243452, Note_off_c, 1, 44, 100
3, 243456, Note_on_c, 1, 49, 80
3, 243644, Note_off_c, 1, 49, 100
3, 243648, Note_on_c, 1, 52, 80
3, 243836, Note_off_c, 1, 52, 100
3, 243840, Note_on_c, 1, 44, 80
3, 244028, Note_off_c, 1, 44, 100
3, 244032, Note_on_c, 1, 44, 80
3, 244220, Note_off_c, 1, 44, 100
3, 244224, Note_on_c, 1, 43, 80
3, 244412, Note_off_c, 1, 43, 100
3, 244416, Note_on_c, 1, 55, 80
3, 244604, Note_off_c, 1, 55, 100
3, 244608, Note_on_c, 1, 51, 80
3, 244796, Note_off_c, 1, 51, 100
3, 244800, Note_on_c, 1, 51, 80
3, 244988, Note_off_c, 1, 51, 100
3, 244992, Note_on_c, 1, 44, 80
3, 245180, Note_off_c, 1, 44, 100
3, 245184, Note_on_c, 1, 56, 80
3, 245372, Note_off_c, 1, 56, 100
3, 245376, Note_on_c, 1, 44, 80
3, 245564, Note_off_c, 1, 44, 100
3, 245568, Note_on_c, 1, 44, 80
3, 246140, Note_off_c, 1, 44, 64
3, 246144, Note_on_c, 1, 42, 80
3, 246332, Note_off_c, 1, 42, 100
3, 246336, Note_on_c, 1, 40, 80
3, 246524, Note_off_c, 1, 40, 100
3, 246528, Note_on_c, 1, 39, 80
3, 246908, Note_off_c, 1, 39, 100
3, 246912, Note_on_c, 1, 48, 80
3, 247680, Note_off_c, 1, 48, 64
3, 247680, Note_on_c, 1, 47, 80
3, 247868, Note_off_c, 1, 47, 100
3, 247872, Note_on_c, 1, 45, 80
3, 248060, Note_off_c, 1, 45, 100
3, 248064, Note_on_c, 1, 44, 80
3, 248444, Note_off_c, 1, 44, 100
3, 248448, Note_on_c, 1, 64, 80
3, 248448, Note_on_c, 1, 56, 80
3, 248636, Note_off_c, 1, 64, 100
3, 248640, Note_on_c, 1, 64, 80
3, 249212, Note_off_c, 1, 56, 64
3, 249212, Note_off_c, 1, 64, 64
3, 249216, Note_on_c, 1, 54, 80
3, 249216, Note_on_c, 1, 63, 80
3, 249404, Note_off_c, 1, 54, 100
3, 249404, Note_off_c, 1, 63, 100
3, 249408, Note_on_c, 1, 52, 80
3, 249408, Note_on_c, 1, 61, 80
3, 249596, Note_off_c, 1, 52, 100
3, 249596, Note_off_c, 1, 61, 100
3, 249600, Note_on_c, 1, 51, 80
3, 249600, Note_on_c, 1, 59, 80
3, 249980, Note_off_c, 1, 51, 100
3, 249980, Note_off_c, 1, 59, 100
3, 249984, Note_on_c, 1, 47, 80
3, 249984, Note_on_c, 1, 51, 80
3, 250364, Note_off_c, 1, 47, 100
3, 250364, Note_off_c, 1, 51, 100
3, 250368, Note_on_c, 1, 49, 80
3, 250368, Note_on_c, 1, 52, 80
3, 250556, Note_off_c, 1, 49, 100
3, 250556, Note_off_c, 1, 52, 100
3, 250560, Note_on_c, 1, 47, 80
3, 250560, Note_on_c, 1, 51, 80
3, 250748, Note_off_c, 1, 47, 100
3, 250748, Note_off_c, 1, 51, 100
3, 250752, Note_on_c, 1, 49, 80
3, 250752, Note_on_c, 1, 52, 80
3, 250940, Note_off_c, 1, 49, 100
3, 250940, Note_off_c, 1, 52, 100
3, 250944, Note_on_c, 1, 51, 80
3, 250944, Note_on_c, 1, 54, 80
3, 251132, Note_off_c, 1, 51, 100
3, 251132, Note_off_c, 1, 54, 100
3, 251136, Note_on_c, 1, 52, 80
3, 251136, Note_on_c, 1, 56, 80
3, 251324, Note_off_c, 1, 52, 100
3, 251324, Note_off_c, 1, 56, 100
3, 251328, Note_on_c, 1, 44, 80
3, 251516, Note_off_c, 1, 44, 100
3, 251520, Note_on_c, 1, 45, 80
3, 251708, Note_off_c, 1, 45, 100
3, 251712, Note_on_c, 1, 47, 80
3, 251900, Note_off_c, 1, 47, 100
3, 251904, Note_on_c, 1, 40, 80
3, 251904, Note_on_c, 1, 47, 80
3, 252284, Note_off_c, 1, 40, 100
3, 252284, Note_off_c, 1, 47, 100
3, 252288, Note_on_c, 1, 44, 80
3, 252288, Note_on_c, 1, 47, 80
3, 252668, Note_off_c, 1, 44, 100
3, 252668, Note_off_c, 1, 47, 100
3, 252672, Note_on_c, 1, 42, 80
3, 252672, Note_on_c, 1, 47, 80
3, 253052, Note_off_c, 1, 42, 100
3, 253052, Note_off_c, 1, 47, 100
3, 253056, Note_on_c, 1, 45, 80
3, 253056, Note_on_c, 1, 47, 80
3, 253436, Note_off_c, 1, 45, 100
3, 253436, Note_off_c, 1, 47, 100
3, 253440, Note_on_c, 1, 42, 80
3, 253440, Note_on_c, 1, 47, 80
3, 253820, Note_off_c, 1, 42, 100
3, 253820, Note_off_c, 1, 47, 100
3, 253824, Note_on_c, 1, 44, 80
3, 253824, Note_on_c, 1, 47, 80
3, 254204, Note_off_c, 1, 44, 100
3, 254204, Note_off_c, 1, 47, 100
3, 254208, Note_on_c, 1, 40, 80
3, 254208, Note_on_c, 1, 47, 80
3, 254396, Note_off_c, 1, 47, 100
3, 254400, Note_on_c, 1, 47, 80
3, 254588, Note_off_c, 1, 40, 100
3, 254588, Note_off_c, 1, 47, 100
3, 254592, Note_on_c, 1, 44, 80
3, 254592, Note_on_c, 1, 47, 80
3, 254780, Note_off_c, 1, 47, 100
3, 254784, Note_on_c, 1, 47, 80
3, 254972, Note_off_c, 1, 44, 100
3, 254972, Note_off_c, 1, 47, 100
3, 254976, Note_on_c, 1, 42, 80
3, 254976, Note_on_c, 1, 47, 80
3, 255164, Note_off_c, 1, 42, 100
3, 255164, Note_off_c, 1, 47, 100
3, 255168, Note_on_c, 1, 40, 80
3, 255168, Note_on_c, 1, 47, 80
3, 255356, Note_off_c, 1, 40, 100
3, 255356, Note_off_c, 1, 47, 100
3, 255360, Note_on_c, 1, 39, 80
3, 255360, Note_on_c, 1, 47, 80
3, 255548, Note_off_c, 1, 47, 100
3, 255552, Note_on_c, 1, 47, 80
3, 255740, Note_off_c, 1, 39, 100
3, 255740, Note_off_c, 1, 47, 100
3, 255744, Note_on_c, 1, 37, 80
3, 255744, Note_on_c, 1, 47, 80
3, 255932, Note_off_c, 1, 47, 100
3, 255936, Note_on_c, 1, 47, 80
3, 256124, Note_off_c, 1, 37, 100
3, 256124, Note_off_c, 1, 47, 100
3, 256128, Note_on_c, 1, 35, 80
3, 256128, Note_on_c, 1, 47, 80
3, 256316, Note_off_c, 1, 35, 100
3, 256316, Note_off_c, 1, 47, 100
3, 256320, Note_on_c, 1, 45, 80
3, 256320, Note_on_c, 1, 47, 80
3, 256508, Note_off_c, 1, 45, 100
3, 256508, Note_off_c, 1, 47, 100
3, 256512, Note_on_c, 1, 44, 80
3, 256512, Note_on_c, 1, 47, 80
3, 256700, Note_off_c, 1, 47, 100
3, 256704, Note_on_c, 1, 47, 80
3, 256892, Note_off_c, 1, 47, 100
3, 256896, Note_on_c, 1, 47, 80
3, 257084, Note_off_c, 1, 44, 100
3, 257084, Note_off_c, 1, 47, 100
3, 257088, Note_on_c, 1, 44, 80
3, 257088, Note_on_c, 1, 47, 80
3, 257276, Note_off_c, 1, 47, 100
3, 257280, Note_on_c, 1, 46, 80
3, 257468, Note_off_c, 1, 46, 100
3, 257472, Note_on_c, 1, 47, 80
3, 257660, Note_off_c, 1, 44, 100
3, 257660, Note_off_c, 1, 47, 100
3, 257664, Note_on_c, 1, 45, 80
3, 257664, Note_on_c, 1, 47, 80
3, 257852, Note_off_c, 1, 47, 100
3, 257856, Note_on_c, 1, 47, 80
3, 258044, Note_off_c, 1, 47, 100
3, 258048, Note_on_c, 1, 47, 80
3, 258236, Note_off_c, 1, 45, 100
3, 258236, Note_off_c, 1, 47, 100
3, 258240, Note_on_c, 1, 47, 80
3, 258240, Note_on_c, 1, 42, 80
3, 258332, Note_off_c, 1, 47, 100
3, 258336, Note_on_c, 1, 49, 80
3, 258428, Note_off_c, 1, 49, 100
3, 258432, Note_on_c, 1, 47, 80
3, 258524, Note_off_c, 1, 47, 100
3, 258528, Note_on_c, 1, 49, 80
3, 258620, Note_off_c, 1, 49, 100
3, 258624, Note_on_c, 1, 47, 80
3, 258716, Note_off_c, 1, 47, 100
3, 258720, Note_on_c, 1, 49, 80
3, 258812, Note_off_c, 1, 42, 100
3, 258812, Note_off_c, 1, 49, 100
3, 258816, Note_on_c, 1, 47, 80
3, 258816, Note_on_c, 1, 39, 80
3, 258908, Note_off_c, 1, 47, 100
3, 258912, Note_on_c, 1, 49, 80
3, 259004, Note_off_c, 1, 49, 100
3, 259008, Note_on_c, 1, 47, 80
3, 259100, Note_off_c, 1, 47, 100
3, 259104, Note_on_c, 1, 49, 80
3, 259196, Note_off_c, 1, 49, 100
3, 259200, Note_on_c, 1, 47, 80
3, 259292, Note_off_c, 1, 47, 100
3, 259296, Note_on_c, 1, 49, 80
3, 259388, Note_off_c, 1, 39, 100
3, 259388, Note_off_c, 1, 49, 100
3, 259392, Note_on_c, 1, 47, 80
3, 259392, Note_on_c, 1, 42, 80
3, 259484, Note_off_c, 1, 47, 100
3, 259488, Note_on_c, 1, 49, 80
3, 259580, Note_off_c, 1, 49, 100
3, 259584, Note_on_c, 1, 47, 80
3, 259676, Note_off_c, 1, 47, 100
3, 259680, Note_on_c, 1, 49, 80
3, 259772, Note_off_c, 1, 49, 100
3, 259776, Note_on_c, 1, 47, 80
3, 259868, Note_off_c, 1, 47, 100
3, 259872, Note_on_c, 1, 49, 80
3, 259964, Note_off_c, 1, 42, 100
3, 259964, Note_off_c, 1, 49, 100
3, 259968, Note_on_c, 1, 47, 80
3, 259968, Note_on_c, 1, 40, 80
3, 260060, Note_off_c, 1, 47, 100
3, 260064, Note_on_c, 1, 54, 80
3, 260156, Note_off_c, 1, 40, 100
3, 260156, Note_off_c, 1, 54, 100
3, 260160, Note_on_c, 1, 52, 80
3, 260252, Note_off_c, 1, 52, 100
3, 260256, Note_on_c, 1, 54, 80
3, 260348, Note_off_c, 1, 54, 100
3, 260352, Note_on_c, 1, 52, 80
3, 260444, Note_off_c, 1, 52, 100
3, 260448, Note_on_c, 1, 54, 80
3, 260540, Note_off_c, 1, 54, 100
3, 260544, Note_on_c, 1, 52, 80
3, 260544, Note_on_c, 1, 49, 80
3, 260636, Note_off_c, 1, 52, 100
3, 260640, Note_on_c, 1, 54, 80
3, 260732, Note_off_c, 1, 54, 100
3, 260736, Note_on_c, 1, 52, 80
3, 260828, Note_off_c, 1, 52, 100
3, 260832, Note_on_c, 1, 54, 80
3, 260924, Note_off_c, 1, 54, 100
3, 260928, Note_on_c, 1, 52, 80
3, 261020, Note_off_c, 1, 52, 100
3, 261024, Note_on_c, 1, 54, 80
3, 261116, Note_off_c, 1, 54, 100
3, 261120, Note_on_c, 1, 52, 80
3, 261212, Note_off_c, 1, 52, 100
3, 261216, Note_on_c, 1, 54, 80
3, 261308, Note_off_c, 1, 54, 100
3, 261312, Note_on_c, 1, 52, 80
3, 261404, Note_off_c, 1, 52, 100
3, 261408, Note_on_c, 1, 54, 80
3, 261500, Note_off_c, 1, 49, 64
3, 261500, Note_off_c, 1, 54, 100
3, 261504, Note_on_c, 1, 52, 80
3, 261504, Note_on_c, 1, 48, 80
3, 261596, Note_off_c, 1, 52, 100
3, 261600, Note_on_c, 1, 54, 80
3, 261692, Note_off_c, 1, 48, 100
3, 261692, Note_off_c, 1, 54, 100
3, 261696, Note_on_c, 1, 55, 80
3, 261696, Note_on_c, 1, 48, 80
3, 261788, Note_off_c, 1, 55, 100
3, 261792, Note_on_c, 1, 52, 80
3, 261884, Note_off_c, 1, 52, 100
3, 261888, Note_on_c, 1, 55, 80
3, 261980, Note_off_c, 1, 55, 100
3, 261984, Note_on_c, 1, 52, 80
3, 262076, Note_off_c, 1, 52, 100
3, 262080, Note_on_c, 1, 55, 80
3, 262172, Note_off_c, 1, 55, 100
3, 262176, Note_on_c, 1, 52, 80
3, 262268, Note_off_c, 1, 48, 100
3, 262268, Note_off_c, 1, 52, 100
3, 262272, Note_on_c, 1, 43, 80
3, 262272, Note_on_c, 1, 36, 80
3, 262364, Note_off_c, 1, 43, 100
3, 262368, Note_on_c, 1, 40, 80
3, 262460, Note_off_c, 1, 40, 100
3, 262464, Note_on_c, 1, 43, 80
3, 262556, Note_off_c, 1, 43, 100
3, 262560, Note_on_c, 1, 40, 80
3, 262652, Note_off_c, 1, 40, 100
3, 262656, Note_on_c, 1, 43, 80
3, 262748, Note_off_c, 1, 43, 100
3, 262752, Note_on_c, 1, 40, 80
3, 262844, Note_off_c, 1, 36, 100
3, 262844, Note_off_c, 1, 40, 100
3, 262848, Note_on_c, 1, 35, 70
3, 262892, Note_off_c, 1, 35, 100
3, 262896, Note_on_c, 1, 47, 70
3, 262940, Note_off_c, 1, 47, 100
3, 262944, Note_on_c, 1, 35, 70
3, 262988, Note_off_c, 1, 35, 100
3, 262992, Note_on_c, 1, 47, 70
3, 263036, Note_off_c, 1, 47, 100
3, 263040, Note_on_c, 1, 35, 70
3, 263084, Note_off_c, 1, 35, 100
3, 263088, Note_on_c, 1, 47, 70
3, 263132, Note_off_c, 1, 47, 100
3, 263136, Note_on_c, 1, 35, 70
3, 263180, Note_off_c, 1, 35, 100
3, 263184, Note_on_c, 1, 47, 71
3, 263228, Note_off_c, 1, 47, 100
3, 263232, Note_on_c, 1, 40, 85
3, 263232, Note_on_c, 1, 47, 71
3, 263276, Note_off_c, 1, 47, 100
3, 263280, Note_on_c, 1, 49, 71
3, 263324, Note_off_c, 1, 49, 100
3, 263328, Note_on_c, 1, 47, 71
3, 263372, Note_off_c, 1, 47, 100
3, 263376, Note_on_c, 1, 49, 71
3, 263420, Note_off_c, 1, 40, 100
3, 263420, Note_off_c, 1, 49, 100
3, 263424, Note_on_c, 1, 44, 83
3, 263424, Note_on_c, 1, 47, 71
3, 263468, Note_off_c, 1, 47, 100
3, 263472, Note_on_c, 1, 49, 71
3, 263516, Note_off_c, 1, 49, 100
3, 263520, Note_on_c, 1, 47, 72
3, 263564, Note_off_c, 1, 47, 100
3, 263568, Note_on_c, 1, 49, 72
3, 263612, Note_off_c, 1, 44, 100
3, 263612, Note_off_c, 1, 49, 100
3, 263616, Note_on_c, 1, 44, 88
3, 263616, Note_on_c, 1, 47, 72
3, 263660, Note_off_c, 1, 47, 100
3, 263664, Note_on_c, 1, 49, 72
3, 263708, Note_off_c, 1, 49, 100
3, 263712, Note_on_c, 1, 47, 72
3, 263756, Note_off_c, 1, 47, 100
3, 263760, Note_on_c, 1, 49, 72
3, 263804, Note_off_c, 1, 44, 100
3, 263804, Note_off_c, 1, 49, 100
3, 263808, Note_on_c, 1, 40, 89
3, 263808, Note_on_c, 1, 47, 73
3, 263852, Note_off_c, 1, 47, 100
3, 263856, Note_on_c, 1, 49, 73
3, 263900, Note_off_c, 1, 49, 100
3, 263904, Note_on_c, 1, 47, 73
3, 263948, Note_off_c, 1, 47, 100
3, 263952, Note_on_c, 1, 49, 73
3, 263996, Note_off_c, 1, 40, 100
3, 263996, Note_off_c, 1, 49, 100
3, 264000, Note_on_c, 1, 40, 84
3, 264000, Note_on_c, 1, 47, 73
3, 264044, Note_off_c, 1, 47, 100
3, 264048, Note_on_c, 1, 49, 73
3, 264092, Note_off_c, 1, 49, 100
3, 264096, Note_on_c, 1, 47, 73
3, 264140, Note_off_c, 1, 47, 100
3, 264144, Note_on_c, 1, 49, 74
3, 264188, Note_off_c, 1, 40, 100
3, 264188, Note_off_c, 1, 49, 100
3, 264192, Note_on_c, 1, 39, 87
3, 264192, Note_on_c, 1, 47, 74
3, 264236, Note_off_c, 1, 47, 100
3, 264240, Note_on_c, 1, 49, 74
3, 264284, Note_off_c, 1, 49, 100
3, 264288, Note_on_c, 1, 47, 74
3, 264332, Note_off_c, 1, 47, 100
3, 264336, Note_on_c, 1, 49, 74
3, 264380, Note_off_c, 1, 39, 100
3, 264380, Note_off_c, 1, 49, 100
3, 264384, Note_on_c, 1, 39, 88
3, 264384, Note_on_c, 1, 47, 74
3, 264428, Note_off_c, 1, 47, 100
3, 264432, Note_on_c, 1, 49, 74
3, 264476, Note_off_c, 1, 49, 100
3, 264480, Note_on_c, 1, 47, 75
3, 264524, Note_off_c, 1, 47, 100
3, 264528, Note_on_c, 1, 49, 75
3, 264572, Note_off_c, 1, 39, 100
3, 264572, Note_off_c, 1, 49, 100
3, 264576, Note_on_c, 1, 45, 87
3, 264576, Note_on_c, 1, 47, 75
3, 264620, Note_off_c, 1, 47, 100
3, 264624, Note_on_c, 1, 49, 75
3, 264668, Note_off_c, 1, 49, 100
3, 264672, Note_on_c, 1, 47, 75
3, 264716, Note_off_c, 1, 47, 100
3, 264720, Note_on_c, 1, 49, 75
3, 264764, Note_off_c, 1, 45, 100
3, 264764, Note_off_c, 1, 49, 100
3, 264768, Note_on_c, 1, 45, 94
3, 264768, Note_on_c, 1, 47, 76
3, 264812, Note_off_c, 1, 47, 100
3, 264816, Note_on_c, 1, 49, 76
3, 264860, Note_off_c, 1, 49, 100
3, 264864, Note_on_c, 1, 47, 76
3, 264908, Note_off_c, 1, 47, 100
3, 264912, Note_on_c, 1, 49, 76
3, 264956, Note_off_c, 1, 45, 100
3, 264956, Note_off_c, 1, 49, 100
3, 264960, Note_on_c, 1, 44, 91
3, 264960, Note_on_c, 1, 47, 76
3, 265004, Note_off_c, 1, 47, 100
3, 265008, Note_on_c, 1, 49, 76
3, 265052, Note_off_c, 1, 49, 100
3, 265056, Note_on_c, 1, 47, 76
3, 265100, Note_off_c, 1, 47, 100
3, 265104, Note_on_c, 1, 49, 77
3, 265148, Note_off_c, 1, 44, 100
3, 265148, Note_off_c, 1, 49, 100
3, 265152, Note_on_c, 1, 44, 90
3, 265152, Note_on_c, 1, 47, 77
3, 265196, Note_off_c, 1, 47, 100
3, 265200, Note_on_c, 1, 49, 77
3, 265244, Note_off_c, 1, 49, 100
3, 265248, Note_on_c, 1, 47, 77
3, 265292, Note_off_c, 1, 47, 100
3, 265296, Note_on_c, 1, 49, 77
3, 265340, Note_off_c, 1, 44, 100
3, 265340, Note_off_c, 1, 49, 100
3, 265344, Note_on_c, 1, 42, 89
3, 265344, Note_on_c, 1, 47, 77
3, 265388, Note_off_c, 1, 47, 100
3, 265392, Note_on_c, 1, 49, 77
3, 265436, Note_off_c, 1, 49, 100
3, 265440, Note_on_c, 1, 47, 78
3, 265484, Note_off_c, 1, 47, 100
3, 265488, Note_on_c, 1, 49, 78
3, 265532, Note_off_c, 1, 42, 100
3, 265532, Note_off_c, 1, 49, 100
3, 265536, Note_on_c, 1, 40, 91
3, 265536, Note_on_c, 1, 47, 78
3, 265580, Note_off_c, 1, 47, 100
3, 265584, Note_on_c, 1, 49, 78
3, 265628, Note_off_c, 1, 49, 100
3, 265632, Note_on_c, 1, 47, 78
3, 265676, Note_off_c, 1, 47, 100
3, 265680, Note_on_c, 1, 49, 78
3, 265724, Note_off_c, 1, 40, 100
3, 265724, Note_off_c, 1, 49, 100
3, 265728, Note_on_c, 1, 44, 100
3, 265728, Note_on_c, 1, 47, 79
3, 265772, Note_off_c, 1, 47, 100
3, 265776, Note_on_c, 1, 49, 79
3, 265820, Note_off_c, 1, 49, 100
3, 265824, Note_on_c, 1, 47, 79
3, 265868, Note_off_c, 1, 47, 100
3, 265872, Note_on_c, 1, 49, 79
3, 265916, Note_off_c, 1, 44, 100
3, 265916, Note_off_c, 1, 49, 100
3, 265920, Note_on_c, 1, 44, 96
3, 265920, Note_on_c, 1, 47, 79
3, 265964, Note_off_c, 1, 47, 100
3, 265968, Note_on_c, 1, 49, 79
3, 266012, Note_off_c, 1, 49, 100
3, 266016, Note_on_c, 1, 47, 79
3, 266060, Note_off_c, 1, 47, 100
3, 266064, Note_on_c, 1, 49, 80
3, 266108, Note_off_c, 1, 44, 100
3, 266108, Note_off_c, 1, 49, 100
3, 266112, Note_on_c, 1, 40, 93
3, 266112, Note_on_c, 1, 47, 80
3, 266156, Note_off_c, 1, 47, 100
3, 266160, Note_on_c, 1, 49, 80
3, 266204, Note_off_c, 1, 49, 100
3, 266208, Note_on_c, 1, 47, 80
3, 266252, Note_off_c, 1, 47, 100
3, 266256, Note_on_c, 1, 49, 80
3, 266300, Note_off_c, 1, 40, 100
3, 266300, Note_off_c, 1, 49, 100
3, 266304, Note_on_c, 1, 40, 80
3, 266304, Note_on_c, 1, 47, 80
3, 266348, Note_off_c, 1, 47, 100
3, 266352, Note_on_c, 1, 49, 80
3, 266396, Note_off_c, 1, 49, 100
3, 266400, Note_on_c, 1, 47, 81
3, 266444, Note_off_c, 1, 47, 100
3, 266448, Note_on_c, 1, 49, 81
3, 266492, Note_off_c, 1, 40, 100
3, 266492, Note_off_c, 1, 49, 100
3, 266496, Note_on_c, 1, 39, 81
3, 266496, Note_on_c, 1, 47, 81
3, 266540, Note_off_c, 1, 47, 100
3, 266544, Note_on_c, 1, 49, 81
3, 266588, Note_off_c, 1, 49, 100
3, 266592, Note_on_c, 1, 47, 81
3, 266636, Note_off_c, 1, 47, 100
3, 266640, Note_on_c, 1, 49, 81
3, 266684, Note_off_c, 1, 39, 100
3, 266684, Note_off_c, 1, 49, 100
3, 266688, Note_on_c, 1, 39, 99
3, 266688, Note_on_c, 1, 47, 82
3, 266732, Note_off_c, 1, 47, 100
3, 266736, Note_on_c, 1, 49, 82
3, 266780, Note_off_c, 1, 49, 100
3, 266784, Note_on_c, 1, 47, 82
3, 266828, Note_off_c, 1, 47, 100
3, 266832, Note_on_c, 1, 49, 82
3, 266876, Note_off_c, 1, 39, 100
3, 266876, Note_off_c, 1, 49, 100
3, 266880, Note_on_c, 1, 39, 97
3, 266880, Note_on_c, 1, 47, 82
3, 266924, Note_off_c, 1, 47, 100
3, 266928, Note_on_c, 1, 49, 82
3, 266972, Note_off_c, 1, 49, 100
3, 266976, Note_on_c, 1, 47, 82
3, 267020, Note_off_c, 1, 47, 100
3, 267024, Note_on_c, 1, 49, 83
3, 267068, Note_off_c, 1, 39, 100
3, 267068, Note_off_c, 1, 49, 100
3, 267072, Note_on_c, 1, 37, 97
3, 267072, Note_on_c, 1, 47, 83
3, 267116, Note_off_c, 1, 47, 100
3, 267120, Note_on_c, 1, 49, 83
3, 267164, Note_off_c, 1, 49, 100
3, 267168, Note_on_c, 1, 47, 83
3, 267212, Note_off_c, 1, 47, 100
3, 267216, Note_on_c, 1, 49, 83
3, 267260, Note_off_c, 1, 37, 100
3, 267260, Note_off_c, 1, 49, 100
3, 267264, Note_on_c, 1, 37, 96
3, 267264, Note_on_c, 1, 47, 83
3, 267308, Note_off_c, 1, 47, 100
3, 267312, Note_on_c, 1, 49, 83
3, 267356, Note_off_c, 1, 49, 100
3, 267360, Note_on_c, 1, 47, 84
3, 267404, Note_off_c, 1, 47, 100
3, 267408, Note_on_c, 1, 49, 84
3, 267452, Note_off_c, 1, 37, 100
3, 267452, Note_off_c, 1, 49, 100
3, 267456, Note_on_c, 1, 47, 65
3, 267456, Note_on_c, 1, 35, 90
3, 267488, Note_on_c, 1, 49, 65
3, 267516, Note_off_c, 1, 47, 100
3, 267520, Note_on_c, 1, 47, 65
3, 267548, Note_off_c, 1, 49, 100
3, 267552, Note_on_c, 1, 49, 65
3, 267580, Note_off_c, 1, 35, 100
3, 267580, Note_off_c, 1, 47, 100
3, 267584, Note_on_c, 1, 47, 65
3, 267584, Note_on_c, 1, 45, 90
3, 267612, Note_off_c, 1, 49, 100
3, 267616, Note_on_c, 1, 49, 66
3, 267644, Note_off_c, 1, 47, 100
3, 267648, Note_on_c, 1, 47, 66
3, 267676, Note_off_c, 1, 49, 100
3, 267680, Note_on_c, 1, 49, 66
3, 267708, Note_off_c, 1, 45, 100
3, 267708, Note_off_c, 1, 47, 100
3, 267712, Note_on_c, 1, 47, 66
3, 267712, Note_on_c, 1, 45, 91
3, 267740, Note_off_c, 1, 49, 100
3, 267744, Note_on_c, 1, 49, 66
3, 267772, Note_off_c, 1, 47, 100
3, 267776, Note_on_c, 1, 47, 67
3, 267804, Note_off_c, 1, 49, 100
3, 267808, Note_on_c, 1, 49, 67
3, 267836, Note_off_c, 1, 45, 100
3, 267836, Note_off_c, 1, 47, 100
3, 267840, Note_on_c, 1, 47, 67
3, 267840, Note_on_c, 1, 44, 92
3, 267868, Note_off_c, 1, 49, 100
3, 267872, Note_on_c, 1, 49, 67
3, 267900, Note_off_c, 1, 47, 100
3, 267904, Note_on_c, 1, 47, 67
3, 267932, Note_off_c, 1, 49, 100
3, 267936, Note_on_c, 1, 49, 68
3, 267964, Note_off_c, 1, 44, 100
3, 267964, Note_off_c, 1, 47, 100
3, 267968, Note_on_c, 1, 47, 68
3, 267968, Note_on_c, 1, 44, 93
3, 267996, Note_off_c, 1, 49, 100
3, 268000, Note_on_c, 1, 49, 68
3, 268028, Note_off_c, 1, 47, 100
3, 268032, Note_on_c, 1, 47, 68
3, 268060, Note_off_c, 1, 49, 100
3, 268064, Note_on_c, 1, 49, 68
3, 268092, Note_off_c, 1, 44, 100
3, 268092, Note_off_c, 1, 47, 100
3, 268096, Note_on_c, 1, 47, 69
3, 268096, Note_on_c, 1, 44, 93
3, 268124, Note_off_c, 1, 49, 100
3, 268128, Note_on_c, 1, 49, 69
3, 268156, Note_off_c, 1, 47, 100
3, 268160, Note_on_c, 1, 47, 69
3, 268188, Note_off_c, 1, 49, 100
3, 268192, Note_on_c, 1, 49, 69
3, 268220, Note_off_c, 1, 44, 100
3, 268220, Note_off_c, 1, 47, 100
3, 268224, Note_on_c, 1, 47, 70
3, 268224, Note_on_c, 1, 44, 94
3, 268252, Note_off_c, 1, 49, 100
3, 268256, Note_on_c, 1, 49, 70
3, 268284, Note_off_c, 1, 47, 100
3, 268288, Note_on_c, 1, 47, 70
3, 268316, Note_off_c, 1, 49, 100
3, 268320, Note_on_c, 1, 49, 70
3, 268348, Note_off_c, 1, 44, 100
3, 268348, Note_off_c, 1, 47, 100
3, 268352, Note_on_c, 1, 47, 70
3, 268352, Note_on_c, 1, 44, 95
3, 268380, Note_off_c, 1, 49, 100
3, 268384, Note_on_c, 1, 49, 71
3, 268412, Note_off_c, 1, 47, 100
3, 268416, Note_on_c, 1, 47, 71
3, 268444, Note_off_c, 1, 49, 100
3, 268448, Note_on_c, 1, 49, 71
3, 268476, Note_off_c, 1, 44, 100
3, 268476, Note_off_c, 1, 47, 100
3, 268480, Note_on_c, 1, 47, 71
3, 268480, Note_on_c, 1, 44, 96
3, 268508, Note_off_c, 1, 49, 100
3, 268512, Note_on_c, 1, 49, 71
3, 268540, Note_off_c, 1, 47, 100
3, 268544, Note_on_c, 1, 47, 72
3, 268572, Note_off_c, 1, 49, 100
3, 268576, Note_on_c, 1, 49, 72
3, 268604, Note_off_c, 1, 44, 100
3, 268604, Note_off_c, 1, 47, 100
3, 268608, Note_on_c, 1, 47, 72
3, 268608, Note_on_c, 1, 44, 97
3, 268636, Note_off_c, 1, 49, 100
3, 268640, Note_on_c, 1, 49, 72
3, 268668, Note_off_c, 1, 47, 100
3, 268672, Note_on_c, 1, 47, 72
3, 268700, Note_off_c, 1, 49, 100
3, 268704, Note_on_c, 1, 49, 73
3, 268732, Note_off_c, 1, 44, 100
3, 268732, Note_off_c, 1, 47, 100
3, 268736, Note_on_c, 1, 47, 73
3, 268736, Note_on_c, 1, 45, 97
3, 268764, Note_off_c, 1, 49, 100
3, 268768, Note_on_c, 1, 49, 73
3, 268796, Note_off_c, 1, 47, 100
3, 268800, Note_on_c, 1, 47, 73
3, 268828, Note_off_c, 1, 49, 100
3, 268832, Note_on_c, 1, 49, 74
3, 268860, Note_off_c, 1, 45, 100
3, 268860, Note_off_c, 1, 47, 100
3, 268864, Note_on_c, 1, 47, 74
3, 268864, Note_on_c, 1, 45, 98
3, 268892, Note_off_c, 1, 49, 100
3, 268896, Note_on_c, 1, 49, 74
3, 268924, Note_off_c, 1, 47, 100
3, 268928, Note_on_c, 1, 47, 74
3, 268956, Note_off_c, 1, 49, 100
3, 268960, Note_on_c, 1, 49, 74
3, 268988, Note_off_c, 1, 45, 100
3, 268988, Note_off_c, 1, 47, 100
3, 268992, Note_on_c, 1, 47, 75
3, 268992, Note_on_c, 1, 45, 99
3, 269020, Note_off_c, 1, 49, 100
3, 269024, Note_on_c, 1, 49, 75
3, 269052, Note_off_c, 1, 47, 100
3, 269056, Note_on_c, 1, 47, 75
3, 269084, Note_off_c, 1, 49, 100
3, 269088, Note_on_c, 1, 49, 75
3, 269116, Note_off_c, 1, 45, 100
3, 269116, Note_off_c, 1, 47, 100
3, 269120, Note_on_c, 1, 47, 75
3, 269120, Note_on_c, 1, 42, 100
3, 269148, Note_off_c, 1, 49, 100
3, 269152, Note_on_c, 1, 49, 76
3, 269180, Note_off_c, 1, 47, 100
3, 269184, Note_on_c, 1, 47, 76
3, 269212, Note_off_c, 1, 49, 100
3, 269216, Note_on_c, 1, 49, 76
3, 269244, Note_off_c, 1, 42, 100
3, 269244, Note_off_c, 1, 47, 100
3, 269248, Note_on_c, 1, 47, 76
3, 269248, Note_on_c, 1, 42, 101
3, 269276, Note_off_c, 1, 49, 100
3, 269280, Note_on_c, 1, 49, 76
3, 269308, Note_off_c, 1, 47, 100
3, 269312, Note_on_c, 1, 47, 77
3, 269340, Note_off_c, 1, 49, 100
3, 269344, Note_on_c, 1, 49, 77
3, 269372, Note_off_c, 1, 42, 100
3, 269372, Note_off_c, 1, 47, 100
3, 269376, Note_on_c, 1, 47, 77
3, 269376, Note_on_c, 1, 42, 101
3, 269404, Note_off_c, 1, 49, 100
3, 269408, Note_on_c, 1, 49, 77
3, 269436, Note_off_c, 1, 47, 100
3, 269440, Note_on_c, 1, 47, 78
3, 269468, Note_off_c, 1, 49, 100
3, 269472, Note_on_c, 1, 49, 78
3, 269500, Note_off_c, 1, 42, 100
3, 269500, Note_off_c, 1, 47, 100
3, 269504, Note_on_c, 1, 47, 78
3, 269504, Note_on_c, 1, 39, 102
3, 269532, Note_off_c, 1, 49, 100
3, 269536, Note_on_c, 1, 49, 78
3, 269564, Note_off_c, 1, 47, 100
3, 269568, Note_on_c, 1, 47, 78
3, 269596, Note_off_c, 1, 49, 100
3, 269600, Note_on_c, 1, 49, 79
3, 269628, Note_off_c, 1, 39, 100
3, 269628, Note_off_c, 1, 47, 100
3, 269632, Note_on_c, 1, 47, 79
3, 269632, Note_on_c, 1, 39, 103
3, 269660, Note_off_c, 1, 49, 100
3, 269664, Note_on_c, 1, 49, 79
3, 269692, Note_off_c, 1, 47, 100
3, 269696, Note_on_c, 1, 47, 79
3, 269724, Note_off_c, 1, 49, 100
3, 269728, Note_on_c, 1, 49, 79
3, 269756, Note_off_c, 1, 39, 100
3, 269756, Note_off_c, 1, 47, 100
3, 269760, Note_on_c, 1, 47, 80
3, 269760, Note_on_c, 1, 39, 104
3, 269788, Note_off_c, 1, 49, 100
3, 269792, Note_on_c, 1, 49, 80
3, 269820, Note_off_c, 1, 47, 100
3, 269824, Note_on_c, 1, 47, 80
3, 269852, Note_off_c, 1, 49, 100
3, 269856, Note_on_c, 1, 49, 80
3, 269884, Note_off_c, 1, 39, 100
3, 269884, Note_off_c, 1, 47, 100
3, 269888, Note_on_c, 1, 47, 80
3, 269888, Note_on_c, 1, 37, 104
3, 269916, Note_off_c, 1, 49, 100
3, 269920, Note_on_c, 1, 49, 81
3, 269948, Note_off_c, 1, 47, 100
3, 269952, Note_on_c, 1, 47, 81
3, 269980, Note_off_c, 1, 49, 100
3, 269984, Note_on_c, 1, 49, 81
3, 270012, Note_off_c, 1, 37, 100
3, 270012, Note_off_c, 1, 47, 100
3, 270016, Note_on_c, 1, 47, 81
3, 270016, Note_on_c, 1, 39, 105
3, 270044, Note_off_c, 1, 49, 100
3, 270048, Note_on_c, 1, 49, 82
3, 270076, Note_off_c, 1, 47, 100
3, 270080, Note_on_c, 1, 47, 82
3, 270108, Note_off_c, 1, 49, 100
3, 270112, Note_on_c, 1, 49, 82
3, 270140, Note_off_c, 1, 39, 100
3, 270140, Note_off_c, 1, 47, 100
3, 270144, Note_on_c, 1, 47, 82
3, 270144, Note_on_c, 1, 39, 106
3, 270172, Note_off_c, 1, 49, 100
3, 270176, Note_on_c, 1, 49, 82
3, 270204, Note_off_c, 1, 47, 100
3, 270208, Note_on_c, 1, 47, 83
3, 270236, Note_off_c, 1, 49, 100
3, 270240, Note_on_c, 1, 49, 83
3, 270268, Note_off_c, 1, 39, 100
3, 270268, Note_off_c, 1, 47, 100
3, 270272, Note_on_c, 1, 47, 83
3, 270272, Note_on_c, 1, 40, 107
3, 270300, Note_off_c, 1, 49, 100
3, 270304, Note_on_c, 1, 49, 83
3, 270332, Note_off_c, 1, 47, 100
3, 270336, Note_on_c, 1, 47, 83
3, 270364, Note_off_c, 1, 49, 100
3, 270368, Note_on_c, 1, 49, 84
3, 270396, Note_off_c, 1, 40, 100
3, 270396, Note_off_c, 1, 47, 100
3, 270400, Note_on_c, 1, 47, 84
3, 270400, Note_on_c, 1, 40, 108
3, 270428, Note_off_c, 1, 49, 100
3, 270432, Note_on_c, 1, 49, 84
3, 270460, Note_off_c, 1, 47, 100
3, 270464, Note_on_c, 1, 47, 84
3, 270492, Note_off_c, 1, 49, 100
3, 270496, Note_on_c, 1, 49, 84
3, 270524, Note_off_c, 1, 40, 100
3, 270524, Note_off_c, 1, 47, 100
3, 270524, Note_off_c, 1, 49, 100
3, 270528, Note_on_c, 1, 52, 80
3, 270560, Note_on_c, 1, 54, 80
3, 270588, Note_off_c, 1, 52, 100
3, 270592, Note_on_c, 1, 52, 80
3, 270620, Note_off_c, 1, 54, 100
3, 270624, Note_on_c, 1, 54, 80
3, 270652, Note_off_c, 1, 52, 100
3, 270656, Note_on_c, 1, 52, 80
3, 270656, Note_on_c, 1, 49, 109
3, 270684, Note_off_c, 1, 54, 100
3, 270688, Note_on_c, 1, 54, 80
3, 270716, Note_off_c, 1, 52, 100
3, 270720, Note_on_c, 1, 52, 80
3, 270748, Note_off_c, 1, 54, 100
3, 270752, Note_on_c, 1, 54, 80
3, 270780, Note_off_c, 1, 49, 100
3, 270780, Note_off_c, 1, 52, 100
3, 270784, Note_on_c, 1, 52, 80
3, 270784, Note_on_c, 1, 49, 110
3, 270812, Note_off_c, 1, 54, 100
3, 270816, Note_on_c, 1, 54, 80
3, 270844, Note_off_c, 1, 52, 100
3, 270848, Note_on_c, 1, 52, 80
3, 270876, Note_off_c, 1, 54, 100
3, 270880, Note_on_c, 1, 54, 80
3, 270908, Note_off_c, 1, 49, 100
3, 270908, Note_off_c, 1, 52, 100
3, 270912, Note_on_c, 1, 52, 80
3, 270912, Note_on_c, 1, 49, 111
3, 270940, Note_off_c, 1, 54, 100
3, 270944, Note_on_c, 1, 54, 80
3, 270972, Note_off_c, 1, 52, 100
3, 270976, Note_on_c, 1, 52, 80
3, 271004, Note_off_c, 1, 54, 100
3, 271008, Note_on_c, 1, 54, 80
3, 271036, Note_off_c, 1, 49, 100
3, 271036, Note_off_c, 1, 52, 100
3, 271040, Note_on_c, 1, 52, 80
3, 271040, Note_on_c, 1, 48, 112
3, 271068, Note_off_c, 1, 54, 100
3, 271072, Note_on_c, 1, 54, 80
3, 271100, Note_off_c, 1, 52, 100
3, 271104, Note_on_c, 1, 52, 80
3, 271132, Note_off_c, 1, 54, 100
3, 271136, Note_on_c, 1, 54, 80
3, 271164, Note_off_c, 1, 48, 100
3, 271164, Note_off_c, 1, 52, 100
3, 271168, Note_on_c, 1, 52, 80
3, 271168, Note_on_c, 1, 49, 112
3, 271196, Note_off_c, 1, 54, 100
3, 271200, Note_on_c, 1, 54, 80
3, 271228, Note_off_c, 1, 52, 100
3, 271232, Note_on_c, 1, 52, 80
3, 271260, Note_off_c, 1, 54, 100
3, 271264, Note_on_c, 1, 54, 80
3, 271292, Note_off_c, 1, 49, 100
3, 271292, Note_off_c, 1, 52, 100
3, 271296, Note_on_c, 1, 52, 80
3, 271296, Note_on_c, 1, 49, 113
3, 271324, Note_off_c, 1, 54, 100
3, 271328, Note_on_c, 1, 54, 80
3, 271356, Note_off_c, 1, 52, 100
3, 271360, Note_on_c, 1, 52, 80
3, 271388, Note_off_c, 1, 54, 100
3, 271392, Note_on_c, 1, 54, 80
3, 271420, Note_off_c, 1, 49, 100
3, 271420, Note_off_c, 1, 52, 100
3, 271424, Note_on_c, 1, 52, 80
3, 271424, Note_on_c, 1, 48, 114
3, 271452, Note_off_c, 1, 54, 100
3, 271456, Note_on_c, 1, 54, 80
3, 271484, Note_off_c, 1, 52, 100
3, 271488, Note_on_c, 1, 52, 80
3, 271516, Note_off_c, 1, 54, 100
3, 271520, Note_on_c, 1, 54, 80
3, 271548, Note_off_c, 1, 48, 100
3, 271548, Note_off_c, 1, 52, 100
3, 271552, Note_on_c, 1, 52, 80
3, 271552, Note_on_c, 1, 49, 115
3, 271580, Note_off_c, 1, 54, 100
3, 271584, Note_on_c, 1, 54, 80
3, 271612, Note_off_c, 1, 52, 100
3, 271616, Note_on_c, 1, 52, 80
3, 271644, Note_off_c, 1, 54, 100
3, 271648, Note_on_c, 1, 54, 80
3, 271676, Note_off_c, 1, 49, 100
3, 271676, Note_off_c, 1, 52, 100
3, 271680, Note_on_c, 1, 52, 80
3, 271680, Note_on_c, 1, 49, 116
3, 271708, Note_off_c, 1, 54, 100
3, 271712, Note_on_c, 1, 54, 80
3, 271740, Note_off_c, 1, 52, 100
3, 271744, Note_on_c, 1, 52, 80
3, 271772, Note_off_c, 1, 54, 100
3, 271776, Note_on_c, 1, 54, 80
3, 271804, Note_off_c, 1, 49, 100
3, 271804, Note_off_c, 1, 52, 100
3, 271808, Note_on_c, 1, 52, 80
3, 271808, Note_on_c, 1, 48, 116
3, 271836, Note_off_c, 1, 54, 100
3, 271840, Note_on_c, 1, 54, 80
3, 271868, Note_off_c, 1, 52, 100
3, 271872, Note_on_c, 1, 52, 80
3, 271900, Note_off_c, 1, 54, 100
3, 271904, Note_on_c, 1, 54, 80
3, 271932, Note_off_c, 1, 48, 100
3, 271932, Note_off_c, 1, 52, 100
3, 271936, Note_on_c, 1, 52, 80
3, 271936, Note_on_c, 1, 48, 117
3, 271964, Note_off_c, 1, 54, 100
3, 271968, Note_on_c, 1, 54, 80
3, 271996, Note_off_c, 1, 52, 100
3, 272000, Note_on_c, 1, 52, 80
3, 272028, Note_off_c, 1, 54, 100
3, 272032, Note_on_c, 1, 54, 80
3, 272060, Note_off_c, 1, 48, 100
3, 272060, Note_off_c, 1, 52, 100
3, 272060, Note_off_c, 1, 54, 100
3, 272064, Note_on_c, 1, 35, 100
3, 272096, Note_on_c, 1, 37, 100
3, 272124, Note_off_c, 1, 35, 100
3, 272128, Note_on_c, 1, 35, 100
3, 272156, Note_off_c, 1, 37, 100
3, 272160, Note_on_c, 1, 37, 100
3, 272188, Note_off_c, 1, 35, 100
3, 272192, Note_on_c, 1, 35, 100
3, 272220, Note_off_c, 1, 37, 100
3, 272224, Note_on_c, 1, 37, 100
3, 272252, Note_off_c, 1, 35, 100
3, 272256, Note_on_c, 1, 35, 100
3, 272284, Note_off_c, 1, 37, 100
3, 272288, Note_on_c, 1, 37, 100
3, 272316, Note_off_c, 1, 35, 100
3, 272320, Note_on_c, 1, 35, 100
3, 272348, Note_off_c, 1, 37, 100
3, 272352, Note_on_c, 1, 37, 100
3, 272380, Note_off_c, 1, 35, 100
3, 272384, Note_on_c, 1, 35, 100
3, 272412, Note_off_c, 1, 37, 100
3, 272416, Note_on_c, 1, 37, 100
3, 272444, Note_off_c, 1, 35, 100
3, 272448, Note_on_c, 1, 35, 100
3, 272476, Note_off_c, 1, 37, 100
3, 272480, Note_on_c, 1, 37, 100
3, 272508, Note_off_c, 1, 35, 100
3, 272512, Note_on_c, 1, 35, 100
3, 272540, Note_off_c, 1, 37, 100
3, 272544, Note_on_c, 1, 37, 100
3, 272572, Note_off_c, 1, 35, 100
3, 272576, Note_on_c, 1, 35, 100
3, 272604, Note_off_c, 1, 37, 100
3, 272608, Note_on_c, 1, 37, 100
3, 272636, Note_off_c, 1, 35, 100
3, 272640, Note_on_c, 1, 35, 100
3, 272668, Note_off_c, 1, 37, 100
3, 272672, Note_on_c, 1, 37, 100
3, 272700, Note_off_c, 1, 35, 100
3, 272704, Note_on_c, 1, 35, 100
3, 272732, Note_off_c, 1, 37, 100
3, 272736, Note_on_c, 1, 37, 100
3, 272764, Note_off_c, 1, 35, 100
3, 272768, Note_on_c, 1, 35, 100
3, 272796, Note_off_c, 1, 37, 100
3, 272800, Note_on_c, 1, 37, 100
3, 272828, Note_off_c, 1, 35, 100
3, 272832, Note_on_c, 1, 35, 100
3, 272860, Note_off_c, 1, 37, 100
3, 272864, Note_on_c, 1, 37, 100
3, 272892, Note_off_c, 1, 35, 100
3, 272896, Note_on_c, 1, 35, 100
3, 272924, Note_off_c, 1, 37, 100
3, 272928, Note_on_c, 1, 37, 100
3, 272956, Note_off_c, 1, 35, 100
3, 272960, Note_on_c, 1, 35, 100
3, 272988, Note_off_c, 1, 37, 100
3, 272992, Note_on_c, 1, 37, 100
3, 273020, Note_off_c, 1, 35, 100
3, 273024, Note_on_c, 1, 35, 100
3, 273052, Note_off_c, 1, 37, 100
3, 273056, Note_on_c, 1, 37, 100
3, 273084, Note_off_c, 1, 35, 100
3, 273088, Note_on_c, 1, 35, 100
3, 273116, Note_off_c, 1, 37, 100
3, 273120, Note_on_c, 1, 37, 100
3, 273148, Note_off_c, 1, 35, 100
3, 273152, Note_on_c, 1, 35, 100
3, 273180, Note_off_c, 1, 37, 100
3, 273184, Note_on_c, 1, 37, 100
3, 273212, Note_off_c, 1, 35, 100
3, 273216, Note_on_c, 1, 35, 100
3, 273244, Note_off_c, 1, 37, 100
3, 273248, Note_on_c, 1, 37, 100
3, 273276, Note_off_c, 1, 35, 100
3, 273280, Note_on_c, 1, 35, 100
3, 273308, Note_off_c, 1, 37, 100
3, 273312, Note_on_c, 1, 37, 100
3, 273340, Note_off_c, 1, 35, 100
3, 273344, Note_on_c, 1, 35, 100
3, 273372, Note_off_c, 1, 37, 100
3, 273376, Note_on_c, 1, 37, 100
3, 273404, Note_off_c, 1, 35, 100
3, 273408, Note_on_c, 1, 35, 100
3, 273436, Note_off_c, 1, 37, 100
3, 273440, Note_on_c, 1, 37, 100
3, 273468, Note_off_c, 1, 35, 100
3, 273472, Note_on_c, 1, 35, 100
3, 273500, Note_off_c, 1, 37, 100
3, 273504, Note_on_c, 1, 37, 100
3, 273532, Note_off_c, 1, 35, 100
3, 273536, Note_on_c, 1, 35, 100
3, 273564, Note_off_c, 1, 37, 100
3, 273568, Note_on_c, 1, 37, 100
3, 273596, Note_off_c, 1, 35, 100
3, 273600, Note_on_c, 1, 35, 100
3, 273628, Note_off_c, 1, 37, 100
3, 273632, Note_on_c, 1, 37, 100
3, 273660, Note_off_c, 1, 35, 100
3, 273664, Note_on_c, 1, 35, 100
3, 273692, Note_off_c, 1, 37, 100
3, 273696, Note_on_c, 1, 37, 100
3, 273724, Note_off_c, 1, 35, 100
3, 273728, Note_on_c, 1, 35, 100
3, 273756, Note_off_c, 1, 37, 100
3, 273760, Note_on_c, 1, 37, 100
3, 273788, Note_off_c, 1, 35, 100
3, 273792, Note_on_c, 1, 35, 100
3, 273820, Note_off_c, 1, 37, 100
3, 273824, Note_on_c, 1, 37, 100
3, 273852, Note_off_c, 1, 35, 100
3, 273856, Note_on_c, 1, 35, 100
3, 273884, Note_off_c, 1, 37, 100
3, 273888, Note_on_c, 1, 37, 100
3, 273916, Note_off_c, 1, 35, 100
3, 273920, Note_on_c, 1, 35, 100
3, 273948, Note_off_c, 1, 37, 100
3, 273952, Note_on_c, 1, 37, 100
3, 273980, Note_off_c, 1, 35, 100
3, 273984, Note_on_c, 1, 35, 100
3, 274012, Note_off_c, 1, 37, 100
3, 274016, Note_on_c, 1, 37, 100
3, 274044, Note_off_c, 1, 35, 100
3, 274048, Note_on_c, 1, 35, 100
3, 274076, Note_off_c, 1, 37, 100
3, 274080, Note_on_c, 1, 37, 100
3, 274108, Note_off_c, 1, 35, 100
3, 274112, Note_on_c, 1, 35, 100
3, 274140, Note_off_c, 1, 37, 100
3, 274144, Note_on_c, 1, 37, 100
3, 274172, Note_off_c, 1, 35, 100
3, 274176, Note_on_c, 1, 35, 100
3, 274204, Note_off_c, 1, 37, 100
3, 274208, Note_on_c, 1, 37, 100
3, 274236, Note_off_c, 1, 35, 100
3, 274240, Note_on_c, 1, 35, 100
3, 274268, Note_off_c, 1, 37, 100
3, 274272, Note_on_c, 1, 37, 100
3, 274300, Note_off_c, 1, 35, 100
3, 274304, Note_on_c, 1, 35, 100
3, 274332, Note_off_c, 1, 37, 100
3, 274336, Note_on_c, 1, 37, 100
3, 274364, Note_off_c, 1, 35, 100
3, 274368, Note_on_c, 1, 35, 100
3, 274396, Note_off_c, 1, 37, 100
3, 274400, Note_on_c, 1, 37, 100
3, 274428, Note_off_c, 1, 35, 100
3, 274432, Note_on_c, 1, 35, 100
3, 274460, Note_off_c, 1, 37, 100
3, 274464, Note_on_c, 1, 37, 100
3, 274492, Note_off_c, 1, 35, 100
3, 274496, Note_on_c, 1, 35, 100
3, 274524, Note_off_c, 1, 37, 100
3, 274528, Note_on_c, 1, 37, 100
3, 274556, Note_off_c, 1, 35, 100
3, 274560, Note_on_c, 1, 35, 100
3, 274588, Note_off_c, 1, 37, 100
3, 274592, Note_on_c, 1, 37, 100
3, 274620, Note_off_c, 1, 35, 100
3, 274624, Note_on_c, 1, 35, 100
3, 274652, Note_off_c, 1, 37, 100
3, 274656, Note_on_c, 1, 37, 100
3, 274684, Note_off_c, 1, 35, 100
3, 274688, Note_on_c, 1, 35, 100
3, 274716, Note_off_c, 1, 37, 100
3, 274720, Note_on_c, 1, 37, 100
3, 274748, Note_off_c, 1, 35, 100
3, 274752, Note_on_c, 1, 35, 100
3, 274780, Note_off_c, 1, 37, 100
3, 274784, Note_on_c, 1, 37, 100
3, 274812, Note_off_c, 1, 35, 100
3, 274816, Note_on_c, 1, 35, 100
3, 274844, Note_off_c, 1, 37, 100
3, 274848, Note_on_c, 1, 37, 100
3, 274876, Note_off_c, 1, 35, 100
3, 274880, Note_on_c, 1, 35, 100
3, 274908, Note_off_c, 1, 37, 100
3, 274912, Note_on_c, 1, 37, 100
3, 274940, Note_off_c, 1, 35, 100
3, 274944, Note_on_c, 1, 35, 100
3, 274972, Note_off_c, 1, 37, 100
3, 274976, Note_on_c, 1, 37, 100
3, 275004, Note_off_c, 1, 35, 100
3, 275008, Note_on_c, 1, 35, 100
3, 275036, Note_off_c, 1, 37, 100
3, 275040, Note_on_c, 1, 37, 100
3, 275068, Note_off_c, 1, 35, 100
3, 275072, Note_on_c, 1, 35, 100
3, 275100, Note_off_c, 1, 37, 100
3, 275104, Note_on_c, 1, 37, 100
3, 275132, Note_off_c, 1, 35, 100
3, 275136, Note_on_c, 1, 35, 100
3, 275164, Note_off_c, 1, 37, 100
3, 275168, Note_on_c, 1, 37, 100
3, 275196, Note_off_c, 1, 35, 100
3, 275200, Note_on_c, 1, 35, 100
3, 275228, Note_off_c, 1, 37, 100
3, 275232, Note_on_c, 1, 37, 100
3, 275260, Note_off_c, 1, 35, 100
3, 275264, Note_on_c, 1, 35, 100
3, 275292, Note_off_c, 1, 37, 100
3, 275296, Note_on_c, 1, 37, 100
3, 275324, Note_off_c, 1, 35, 100
3, 275328, Note_on_c, 1, 35, 100
3, 275356, Note_off_c, 1, 37, 100
3, 275360, Note_on_c, 1, 37, 100
3, 275388, Note_off_c, 1, 35, 100
3, 275392, Note_on_c, 1, 35, 100
3, 275420, Note_off_c, 1, 37, 100
3, 275424, Note_on_c, 1, 37, 100
3, 275452, Note_off_c, 1, 35, 100
3, 275456, Note_on_c, 1, 35, 100
3, 275484, Note_off_c, 1, 37, 100
3, 275488, Note_on_c, 1, 37, 100
3, 275516, Note_off_c, 1, 35, 100
3, 275520, Note_on_c, 1, 35, 100
3, 275548, Note_off_c, 1, 37, 100
3, 275552, Note_on_c, 1, 37, 100
3, 275580, Note_off_c, 1, 35, 100
3, 275584, Note_on_c, 1, 35, 100
3, 275612, Note_off_c, 1, 37, 100
3, 275616, Note_on_c, 1, 37, 100
3, 275644, Note_off_c, 1, 35, 100
3, 275648, Note_on_c, 1, 35, 100
3, 275676, Note_off_c, 1, 37, 100
3, 275680, Note_on_c, 1, 37, 100
3, 275708, Note_off_c, 1, 35, 100
3, 275712, Note_on_c, 1, 35, 100
3, 275740, Note_off_c, 1, 37, 100
3, 275744, Note_on_c, 1, 37, 100
3, 275772, Note_off_c, 1, 35, 100
3, 275776, Note_on_c, 1, 35, 100
3, 275804, Note_off_c, 1, 37, 100
3, 275808, Note_on_c, 1, 37, 100
3, 275836, Note_off_c, 1, 35, 100
3, 275840, Note_on_c, 1, 35, 100
3, 275868, Note_off_c, 1, 37, 100
3, 275872, Note_on_c, 1, 37, 100
3, 275900, Note_off_c, 1, 35, 100
3, 275904, Note_on_c, 1, 35, 100
3, 275932, Note_off_c, 1, 37, 100
3, 275936, Note_on_c, 1, 37, 100
3, 275964, Note_off_c, 1, 35, 100
3, 275968, Note_on_c, 1, 35, 100
3, 275996, Note_off_c, 1, 37, 100
3, 276000, Note_on_c, 1, 37, 100
3, 276028, Note_off_c, 1, 35, 100
3, 276032, Note_on_c, 1, 35, 100
3, 276060, Note_off_c, 1, 37, 100
3, 276064, Note_on_c, 1, 37, 100
3, 276092, Note_off_c, 1, 35, 100
3, 276096, Note_on_c, 1, 35, 100
3, 276124, Note_off_c, 1, 37, 100
3, 276128, Note_on_c, 1, 37, 100
3, 276156, Note_off_c, 1, 35, 100
3, 276160, Note_on_c, 1, 35, 100
3, 276188, Note_off_c, 1, 37, 100
3, 276192, Note_on_c, 1, 37, 100
3, 276220, Note_off_c, 1, 35, 100
3, 276224, Note_on_c, 1, 35, 100
3, 276252, Note_off_c, 1, 37, 100
3, 276256, Note_on_c, 1, 37, 100
3, 276284, Note_off_c, 1, 35, 100
3, 276288, Note_on_c, 1, 35, 100
3, 276316, Note_off_c, 1, 37, 100
3, 276320, Note_on_c, 1, 37, 100
3, 276348, Note_off_c, 1, 35, 100
3, 276352, Note_on_c, 1, 35, 100
3, 276380, Note_off_c, 1, 37, 100
3, 276384, Note_on_c, 1, 37, 100
3, 276412, Note_off_c, 1, 35, 100
3, 276416, Note_on_c, 1, 35, 100
3, 276444, Note_off_c, 1, 37, 100
3, 276448, Note_on_c, 1, 37, 100
3, 276476, Note_off_c, 1, 35, 100
3, 276480, Note_on_c, 1, 35, 100
3, 276508, Note_off_c, 1, 37, 100
3, 276512, Note_on_c, 1, 37, 100
3, 276540, Note_off_c, 1, 35, 100
3, 276544, Note_on_c, 1, 35, 100
3, 276572, Note_off_c, 1, 37, 100
3, 276576, Note_on_c, 1, 37, 100
3, 276604, Note_off_c, 1, 35, 100
3, 276608, Note_on_c, 1, 35, 100
3, 276636, Note_off_c, 1, 37, 100
3, 276640, Note_on_c, 1, 37, 100
3, 276668, Note_off_c, 1, 35, 100
3, 276672, Note_on_c, 1, 35, 100
3, 276700, Note_off_c, 1, 37, 100
3, 276704, Note_on_c, 1, 37, 100
3, 276732, Note_off_c, 1, 35, 100
3, 276736, Note_on_c, 1, 35, 100
3, 276764, Note_off_c, 1, 37, 100
3, 276768, Note_on_c, 1, 37, 100
3, 276796, Note_off_c, 1, 35, 100
3, 276800, Note_on_c, 1, 35, 100
3, 276828, Note_off_c, 1, 37, 100
3, 276832, Note_on_c, 1, 37, 100
3, 276860, Note_off_c, 1, 35, 100
3, 276864, Note_on_c, 1, 35, 100
3, 276892, Note_off_c, 1, 37, 100
3, 276896, Note_on_c, 1, 37, 100
3, 276924, Note_off_c, 1, 35, 100
3, 276928, Note_on_c, 1, 35, 100
3, 276956, Note_off_c, 1, 37, 100
3, 276960, Note_on_c, 1, 37, 100
3, 276988, Note_off_c, 1, 35, 100
3, 276992, Note_on_c, 1, 35, 100
3, 277020, Note_off_c, 1, 37, 100
3, 277024, Note_on_c, 1, 37, 100
3, 277052, Note_off_c, 1, 35, 100
3, 277056, Note_on_c, 1, 35, 100
3, 277084, Note_off_c, 1, 37, 100
3, 277088, Note_on_c, 1, 37, 100
3, 277116, Note_off_c, 1, 35, 100
3, 277120, Note_on_c, 1, 35, 100
3, 277148, Note_off_c, 1, 37, 100
3, 277152, Note_on_c, 1, 37, 100
3, 277180, Note_off_c, 1, 35, 100
3, 277184, Note_on_c, 1, 35, 100
3, 277212, Note_off_c, 1, 37, 100
3, 277216, Note_on_c, 1, 37, 100
3, 277244, Note_off_c, 1, 35, 100
3, 277248, Note_on_c, 1, 35, 100
3, 277276, Note_off_c, 1, 37, 100
3, 277280, Note_on_c, 1, 37, 100
3, 277308, Note_off_c, 1, 35, 100
3, 277312, Note_on_c, 1, 35, 100
3, 277340, Note_off_c, 1, 37, 100
3, 277344, Note_on_c, 1, 37, 100
3, 277372, Note_off_c, 1, 35, 100
3, 277376, Note_on_c, 1, 35, 100
3, 277404, Note_off_c, 1, 37, 100
3, 277408, Note_on_c, 1, 37, 100
3, 277436, Note_off_c, 1, 35, 100
3, 277440, Note_on_c, 1, 35, 100
3, 277468, Note_off_c, 1, 37, 100
3, 277472, Note_on_c, 1, 37, 100
3, 277500, Note_off_c, 1, 35, 100
3, 277504, Note_on_c, 1, 35, 100
3, 277532, Note_off_c, 1, 37, 100
3, 277536, Note_on_c, 1, 37, 100
3, 277564, Note_off_c, 1, 35, 100
3, 277568, Note_on_c, 1, 35, 100
3, 277596, Note_off_c, 1, 37, 100
3, 277600, Note_on_c, 1, 37, 100
3, 277628, Note_off_c, 1, 35, 100
3, 277632, Note_on_c, 1, 35, 100
3, 277660, Note_off_c, 1, 37, 100
3, 277664, Note_on_c, 1, 37, 100
3, 277692, Note_off_c, 1, 35, 100
3, 277696, Note_on_c, 1, 35, 100
3, 277724, Note_off_c, 1, 37, 100
3, 277728, Note_on_c, 1, 37, 100
3, 277756, Note_off_c, 1, 35, 100
3, 277760, Note_on_c, 1, 35, 100
3, 277788, Note_off_c, 1, 37, 100
3, 277792, Note_on_c, 1, 37, 100
3, 277820, Note_off_c, 1, 35, 100
3, 277824, Note_on_c, 1, 35, 100
3, 277852, Note_off_c, 1, 37, 100
3, 277856, Note_on_c, 1, 37, 100
3, 277884, Note_off_c, 1, 35, 100
3, 277888, Note_on_c, 1, 35, 100
3, 277916, Note_off_c, 1, 37, 100
3, 277920, Note_on_c, 1, 37, 100
3, 277948, Note_off_c, 1, 35, 100
3, 277952, Note_on_c, 1, 35, 100
3, 277980, Note_off_c, 1, 37, 100
3, 277984, Note_on_c, 1, 37, 100
3, 278012, Note_off_c, 1, 35, 100
3, 278016, Note_on_c, 1, 35, 100
3, 278044, Note_off_c, 1, 37, 100
3, 278048, Note_on_c, 1, 37, 100
3, 278076, Note_off_c, 1, 35, 100
3, 278080, Note_on_c, 1, 35, 100
3, 278108, Note_off_c, 1, 37, 100
3, 278112, Note_on_c, 1, 37, 100
3, 278140, Note_off_c, 1, 35, 100
3, 278144, Note_on_c, 1, 35, 100
3, 278172, Note_off_c, 1, 37, 100
3, 278176, Note_on_c, 1, 37, 100
3, 278204, Note_off_c, 1, 35, 100
3, 278208, Note_on_c, 1, 35, 100
3, 278236, Note_off_c, 1, 37, 100
3, 278240, Note_on_c, 1, 37, 100
3, 278268, Note_off_c, 1, 35, 100
3, 278272, Note_on_c, 1, 35, 100
3, 278300, Note_off_c, 1, 37, 100
3, 278304, Note_on_c, 1, 37, 100
3, 278332, Note_off_c, 1, 35, 100
3, 278336, Note_on_c, 1, 35, 100
3, 278364, Note_off_c, 1, 37, 100
3, 278368, Note_on_c, 1, 37, 100
3, 278396, Note_off_c, 1, 35, 100
3, 278400, Note_on_c, 1, 35, 100
3, 278428, Note_off_c, 1, 37, 100
3, 278432, Note_on_c, 1, 37, 100
3, 278460, Note_off_c, 1, 35, 100
3, 278464, Note_on_c, 1, 35, 100
3, 278492, Note_off_c, 1, 37, 100
3, 278496, Note_on_c, 1, 37, 100
3, 278524, Note_off_c, 1, 35, 100
3, 278528, Note_on_c, 1, 35, 100
3, 278556, Note_off_c, 1, 37, 100
3, 278560, Note_on_c, 1, 37, 100
3, 278588, Note_off_c, 1, 35, 100
3, 278592, Note_on_c, 1, 35, 100
3, 278620, Note_off_c, 1, 37, 100
3, 278624, Note_on_c, 1, 37, 100
3, 278652, Note_off_c, 1, 35, 100
3, 278656, Note_on_c, 1, 35, 100
3, 278684, Note_off_c, 1, 37, 100
3, 278688, Note_on_c, 1, 37, 100
3, 278716, Note_off_c, 1, 35, 100
3, 278720, Note_on_c, 1, 35, 100
3, 278748, Note_off_c, 1, 37, 100
3, 278752, Note_on_c, 1, 37, 100
3, 278780, Note_off_c, 1, 35, 100
3, 278784, Note_on_c, 1, 35, 100
3, 278812, Note_off_c, 1, 37, 100
3, 278816, Note_on_c, 1, 37, 100
3, 278844, Note_off_c, 1, 35, 100
3, 278848, Note_on_c, 1, 35, 100
3, 278876, Note_off_c, 1, 37, 100
3, 278880, Note_on_c, 1, 37, 100
3, 278908, Note_off_c, 1, 35, 100
3, 278912, Note_on_c, 1, 35, 100
3, 278940, Note_off_c, 1, 37, 100
3, 278944, Note_on_c, 1, 37, 100
3, 278972, Note_off_c, 1, 35, 100
3, 278976, Note_on_c, 1, 35, 100
3, 279004, Note_off_c, 1, 37, 100
3, 279008, Note_on_c, 1, 37, 100
3, 279036, Note_off_c, 1, 35, 100
3, 279040, Note_on_c, 1, 35, 100
3, 279068, Note_off_c, 1, 37, 100
3, 279072, Note_on_c, 1, 37, 100
3, 279100, Note_off_c, 1, 35, 100
3, 279104, Note_on_c, 1, 35, 100
3, 279132, Note_off_c, 1, 37, 100
3, 279136, Note_on_c, 1, 37, 100
3, 279164, Note_off_c, 1, 35, 100
3, 279168, Note_on_c, 1, 35, 100
3, 279196, Note_off_c, 1, 37, 100
3, 279200, Note_on_c, 1, 37, 100
3, 279228, Note_off_c, 1, 35, 100
3, 279232, Note_on_c, 1, 35, 100
3, 279260, Note_off_c, 1, 37, 100
3, 279264, Note_on_c, 1, 37, 100
3, 279292, Note_off_c, 1, 35, 100
3, 279296, Note_on_c, 1, 35, 100
3, 279324, Note_off_c, 1, 37, 100
3, 279328, Note_on_c, 1, 37, 100
3, 279356, Note_off_c, 1, 35, 100
3, 279360, Note_on_c, 1, 35, 100
3, 279388, Note_off_c, 1, 37, 100
3, 279392, Note_on_c, 1, 37, 100
3, 279420, Note_off_c, 1, 35, 100
3, 279424, Note_on_c, 1, 35, 100
3, 279452, Note_off_c, 1, 37, 100
3, 279456, Note_on_c, 1, 37, 100
3, 279484, Note_off_c, 1, 35, 100
3, 279488, Note_on_c, 1, 35, 100
3, 279516, Note_off_c, 1, 37, 100
3, 279520, Note_on_c, 1, 37, 100
3, 279548, Note_off_c, 1, 35, 100
3, 279552, Note_on_c, 1, 35, 100
3, 279580, Note_off_c, 1, 37, 100
3, 279584, Note_on_c, 1, 37, 100
3, 279612, Note_off_c, 1, 35, 100
3, 279616, Note_on_c, 1, 35, 100
3, 279644, Note_off_c, 1, 37, 100
3, 279648, Note_on_c, 1, 37, 100
3, 279676, Note_off_c, 1, 35, 100
3, 279680, Note_on_c, 1, 35, 100
3, 279708, Note_off_c, 1, 37, 100
3, 279712, Note_on_c, 1, 37, 100
3, 279740, Note_off_c, 1, 35, 100
3, 279744, Note_on_c, 1, 35, 100
3, 279772, Note_off_c, 1, 37, 100
3, 279776, Note_on_c, 1, 37, 100
3, 279804, Note_off_c, 1, 35, 100
3, 279808, Note_on_c, 1, 35, 100
3, 279836, Note_off_c, 1, 37, 100
3, 279840, Note_on_c, 1, 37, 100
3, 279868, Note_off_c, 1, 35, 100
3, 279872, Note_on_c, 1, 35, 100
3, 279900, Note_off_c, 1, 37, 100
3, 279904, Note_on_c, 1, 37, 100
3, 279932, Note_off_c, 1, 35, 100
3, 279936, Note_on_c, 1, 35, 100
3, 279964, Note_off_c, 1, 37, 100
3, 279968, Note_on_c, 1, 37, 100
3, 279996, Note_off_c, 1, 35, 100
3, 280000, Note_on_c, 1, 35, 100
3, 280028, Note_off_c, 1, 37, 100
3, 280032, Note_on_c, 1, 37, 100
3, 280060, Note_off_c, 1, 35, 100
3, 280064, Note_on_c, 1, 35, 100
3, 280092, Note_off_c, 1, 37, 100
3, 280096, Note_on_c, 1, 37, 100
3, 280124, Note_off_c, 1, 35, 100
3, 280128, Note_on_c, 1, 35, 100
3, 280156, Note_off_c, 1, 37, 100
3, 280160, Note_on_c, 1, 37, 100
3, 280188, Note_off_c, 1, 35, 100
3, 280192, Note_on_c, 1, 35, 100
3, 280220, Note_off_c, 1, 37, 100
3, 280224, Note_on_c, 1, 37, 100
3, 280252, Note_off_c, 1, 35, 100
3, 280256, Note_on_c, 1, 35, 100
3, 280284, Note_off_c, 1, 37, 100
3, 280288, Note_on_c, 1, 37, 100
3, 280316, Note_off_c, 1, 35, 100
3, 280320, Note_on_c, 1, 35, 100
3, 280348, Note_off_c, 1, 37, 100
3, 280352, Note_on_c, 1, 37, 100
3, 280380, Note_off_c, 1, 35, 100
3, 280384, Note_on_c, 1, 35, 100
3, 280412, Note_off_c, 1, 37, 100
3, 280416, Note_on_c, 1, 37, 100
3, 280444, Note_off_c, 1, 35, 100
3, 280448, Note_on_c, 1, 35, 100
3, 280476, Note_off_c, 1, 37, 100
3, 280480, Note_on_c, 1, 37, 100
3, 280508, Note_off_c, 1, 35, 100
3, 280512, Note_on_c, 1, 35, 100
3, 280540, Note_off_c, 1, 37, 100
3, 280544, Note_on_c, 1, 37, 100
3, 280572, Note_off_c, 1, 35, 100
3, 280576, Note_on_c, 1, 35, 100
3, 280604, Note_off_c, 1, 37, 100
3, 280608, Note_on_c, 1, 37, 100
3, 280636, Note_off_c, 1, 35, 100
3, 280640, Note_on_c, 1, 35, 100
3, 280668, Note_off_c, 1, 37, 100
3, 280672, Note_on_c, 1, 37, 100
3, 280700, Note_off_c, 1, 35, 100
3, 280704, Note_on_c, 1, 35, 100
3, 280732, Note_off_c, 1, 37, 100
3, 280736, Note_on_c, 1, 37, 100
3, 280764, Note_off_c, 1, 35, 100
3, 280768, Note_on_c, 1, 35, 100
3, 280796, Note_off_c, 1, 37, 100
3, 280800, Note_on_c, 1, 37, 100
3, 280828, Note_off_c, 1, 35, 100
3, 280832, Note_on_c, 1, 35, 100
3, 280860, Note_off_c, 1, 37, 100
3, 280864, Note_on_c, 1, 37, 100
3, 280892, Note_off_c, 1, 35, 100
3, 280896, Note_on_c, 1, 35, 100
3, 280924, Note_off_c, 1, 37, 100
3, 280928, Note_on_c, 1, 37, 100
3, 280956, Note_off_c, 1, 35, 100
3, 280960, Note_on_c, 1, 35, 100
3, 280988, Note_off_c, 1, 37, 100
3, 280992, Note_on_c, 1, 37, 100
3, 281020, Note_off_c, 1, 35, 100
3, 281024, Note_on_c, 1, 35, 100
3, 281052, Note_off_c, 1, 37, 100
3, 281056, Note_on_c, 1, 37, 100
3, 281084, Note_off_c, 1, 35, 100
3, 281088, Note_on_c, 1, 35, 100
3, 281116, Note_off_c, 1, 37, 100
3, 281120, Note_on_c, 1, 37, 100
3, 281148, Note_off_c, 1, 35, 100
3, 281152, Note_on_c, 1, 35, 100
3, 281180, Note_off_c, 1, 37, 100
3, 281184, Note_on_c, 1, 37, 100
3, 281212, Note_off_c, 1, 35, 100
3, 281216, Note_on_c, 1, 35, 100
3, 281244, Note_off_c, 1, 37, 100
3, 281248, Note_on_c, 1, 39, 100
3, 281276, Note_off_c, 1, 35, 100
3, 281280, Note_on_c, 1, 40, 80
3, 281308, Note_off_c, 1, 39, 100
3, 281324, Note_off_c, 1, 40, 100
3, 281328, Note_on_c, 1, 59, 80
3, 281372, Note_off_c, 1, 59, 100
3, 281376, Note_on_c, 1, 61, 80
3, 281420, Note_off_c, 1, 61, 100
3, 281424, Note_on_c, 1, 63, 80
3, 281468, Note_off_c, 1, 63, 100
3, 281472, Note_on_c, 1, 64, 80
3, 281516, Note_off_c, 1, 64, 100
3, 281520, Note_on_c, 1, 66, 80
3, 281564, Note_off_c, 1, 66, 100
3, 281568, Note_on_c, 1, 68, 80
3, 281612, Note_off_c, 1, 68, 100
3, 281616, Note_on_c, 1, 70, 80
3, 281660, Note_off_c, 1, 70, 100
3, 281664, Note_on_c, 1, 71, 110
3, 281760, Note_on_c, 1, 74, 110
3, 281804, Note_off_c, 1, 71, 100
3, 281808, Note_on_c, 1, 73, 110
3, 281848, Note_off_c, 1, 74, 100
3, 281856, Note_on_c, 1, 71, 110
3, 281896, Note_off_c, 1, 73, 100
3, 281904, Note_on_c, 1, 73, 110
3, 281944, Note_off_c, 1, 71, 100
3, 281952, Note_on_c, 1, 71, 110
3, 281992, Note_off_c, 1, 73, 100
3, 282000, Note_on_c, 1, 69, 110
3, 282040, Note_off_c, 1, 71, 100
3, 282048, Note_on_c, 1, 68, 110
3, 282088, Note_off_c, 1, 69, 64
3, 282096, Note_on_c, 1, 69, 110
3, 282136, Note_off_c, 1, 68, 100
3, 282144, Note_on_c, 1, 68, 110
3, 282184, Note_off_c, 1, 69, 100
3, 282192, Note_on_c, 1, 66, 110
3, 282232, Note_off_c, 1, 68, 100
3, 282240, Note_on_c, 1, 65, 110
3, 282280, Note_off_c, 1, 66, 100
3, 282288, Note_on_c, 1, 66, 110
3, 282328, Note_off_c, 1, 65, 100
3, 282336, Note_on_c, 1, 65, 110
3, 282376, Note_off_c, 1, 66, 100
3, 282384, Note_on_c, 1, 62, 110
3, 282424, Note_off_c, 1, 65, 100
3, 282432, Note_on_c, 1, 61, 110
3, 282472, Note_off_c, 1, 62, 64
3, 282480, Note_on_c, 1, 62, 110
3, 282520, Note_off_c, 1, 61, 100
3, 282528, Note_on_c, 1, 61, 110
3, 282568, Note_off_c, 1, 62, 100
3, 282576, Note_on_c, 1, 59, 110
3, 282616, Note_off_c, 1, 61, 100
3, 282624, Note_on_c, 1, 57, 110
3, 282664, Note_off_c, 1, 59, 100
3, 282672, Note_on_c, 1, 59, 110
3, 282712, Note_off_c, 1, 57, 100
3, 282720, Note_on_c, 1, 57, 110
3, 282760, Note_off_c, 1, 59, 100
3, 282768, Note_on_c, 1, 56, 110
3, 282808, Note_off_c, 1, 57, 100
3, 282816, Note_on_c, 1, 54, 110
3, 282856, Note_off_c, 1, 56, 64
3, 282912, Note_on_c, 1, 73, 110
3, 282956, Note_off_c, 1, 54, 100
3, 282960, Note_on_c, 1, 71, 110
3, 283000, Note_off_c, 1, 73, 100
3, 283008, Note_on_c, 1, 69, 110
3, 283048, Note_off_c, 1, 71, 100
3, 283056, Note_on_c, 1, 71, 110
3, 283096, Note_off_c, 1, 69, 100
3, 283104, Note_on_c, 1, 69, 110
3, 283144, Note_off_c, 1, 71, 100
3, 283152, Note_on_c, 1, 68, 110
3, 283192, Note_off_c, 1, 69, 100
3, 283200, Note_on_c, 1, 66, 110
3, 283240, Note_off_c, 1, 68, 64
3, 283248, Note_on_c, 1, 68, 110
3, 283288, Note_off_c, 1, 66, 100
3, 283296, Note_on_c, 1, 66, 110
3, 283336, Note_off_c, 1, 68, 100
3, 283344, Note_on_c, 1, 65, 110
3, 283384, Note_off_c, 1, 66, 100
3, 283392, Note_on_c, 1, 66, 110
3, 283432, Note_off_c, 1, 65, 100
3, 283440, Note_on_c, 1, 64, 110
3, 283480, Note_off_c, 1, 66, 100
3, 283488, Note_on_c, 1, 63, 110
3, 283528, Note_off_c, 1, 64, 100
3, 283536, Note_on_c, 1, 61, 110
3, 283576, Note_off_c, 1, 63, 100
3, 283584, Note_on_c, 1, 59, 110
3, 283624, Note_off_c, 1, 61, 64
3, 283632, Note_on_c, 1, 61, 110
3, 283672, Note_off_c, 1, 59, 100
3, 283680, Note_on_c, 1, 59, 110
3, 283720, Note_off_c, 1, 61, 100
3, 283728, Note_on_c, 1, 57, 110
3, 283768, Note_off_c, 1, 59, 100
3, 283776, Note_on_c, 1, 56, 110
3, 283816, Note_off_c, 1, 57, 100
3, 283824, Note_on_c, 1, 57, 110
3, 283864, Note_off_c, 1, 56, 100
3, 283872, Note_on_c, 1, 56, 110
3, 283912, Note_off_c, 1, 57, 100
3, 283920, Note_on_c, 1, 54, 110
3, 283960, Note_off_c, 1, 56, 100
3, 283968, Note_on_c, 1, 52, 110
3, 284008, Note_off_c, 1, 54, 64
3, 284064, Note_on_c, 1, 71, 110
3, 284108, Note_off_c, 1, 52, 100
3, 284112, Note_on_c, 1, 69, 110
3, 284152, Note_off_c, 1, 71, 100
3, 284160, Note_on_c, 1, 68, 110
3, 284200, Note_off_c, 1, 69, 100
3, 284208, Note_on_c, 1, 69, 110
3, 284248, Note_off_c, 1, 68, 100
3, 284256, Note_on_c, 1, 68, 110
3, 284296, Note_off_c, 1, 69, 100
3, 284304, Note_on_c, 1, 66, 110
3, 284344, Note_off_c, 1, 68, 100
3, 284352, Note_on_c, 1, 64, 110
3, 284392, Note_off_c, 1, 66, 64
3, 284400, Note_on_c, 1, 66, 110
3, 284440, Note_off_c, 1, 64, 100
3, 284448, Note_on_c, 1, 64, 110
3, 284488, Note_off_c, 1, 66, 100
3, 284496, Note_on_c, 1, 63, 110
3, 284536, Note_off_c, 1, 64, 100
3, 284544, Note_on_c, 1, 64, 110
3, 284584, Note_off_c, 1, 63, 100
3, 284592, Note_on_c, 1, 63, 110
3, 284632, Note_off_c, 1, 64, 100
3, 284640, Note_on_c, 1, 61, 110
3, 284680, Note_off_c, 1, 63, 100
3, 284688, Note_on_c, 1, 59, 110
3, 284728, Note_off_c, 1, 61, 100
3, 284736, Note_on_c, 1, 57, 110
3, 284776, Note_off_c, 1, 59, 64
3, 284784, Note_on_c, 1, 59, 110
3, 284824, Note_off_c, 1, 57, 100
3, 284832, Note_on_c, 1, 57, 110
3, 284872, Note_off_c, 1, 59, 100
3, 284880, Note_on_c, 1, 56, 110
3, 284920, Note_off_c, 1, 57, 100
3, 284928, Note_on_c, 1, 54, 110
3, 284968, Note_off_c, 1, 56, 100
3, 284976, Note_on_c, 1, 52, 110
3, 285016, Note_off_c, 1, 54, 100
3, 285024, Note_on_c, 1, 51, 110
3, 285064, Note_off_c, 1, 52, 100
3, 285072, Note_on_c, 1, 49, 110
3, 285112, Note_off_c, 1, 51, 100
3, 285120, Note_on_c, 1, 51, 110
3, 285160, Note_off_c, 1, 49, 64
3, 285168, Note_on_c, 1, 59, 110
3, 285208, Note_off_c, 1, 51, 100
3, 285216, Note_on_c, 1, 56, 110
3, 285256, Note_off_c, 1, 59, 100
3, 285264, Note_on_c, 1, 59, 110
3, 285304, Note_off_c, 1, 56, 100
3, 285312, Note_on_c, 1, 63, 110
3, 285352, Note_off_c, 1, 59, 100
3, 285360, Note_on_c, 1, 59, 110
3, 285400, Note_off_c, 1, 63, 100
3, 285408, Note_on_c, 1, 56, 110
3, 285448, Note_off_c, 1, 59, 100
3, 285456, Note_on_c, 1, 59, 110
3, 285496, Note_off_c, 1, 56, 100
3, 285504, Note_on_c, 1, 51, 110
3, 285544, Note_off_c, 1, 59, 64
3, 285552, Note_on_c, 1, 59, 110
3, 285592, Note_off_c, 1, 51, 100
3, 285600, Note_on_c, 1, 55, 110
3, 285640, Note_off_c, 1, 59, 100
3, 285648, Note_on_c, 1, 59, 110
3, 285688, Note_off_c, 1, 55, 100
3, 285696, Note_on_c, 1, 63, 110
3, 285736, Note_off_c, 1, 59, 100
3, 285744, Note_on_c, 1, 59, 110
3, 285784, Note_off_c, 1, 63, 100
3, 285792, Note_on_c, 1, 55, 110
3, 285832, Note_off_c, 1, 59, 100
3, 285840, Note_on_c, 1, 59, 110
3, 285880, Note_off_c, 1, 55, 100
3, 285888, Note_on_c, 1, 51, 110
3, 285928, Note_off_c, 1, 59, 64
3, 285936, Note_on_c, 1, 59, 110
3, 285976, Note_off_c, 1, 51, 100
3, 285984, Note_on_c, 1, 56, 110
3, 286024, Note_off_c, 1, 59, 100
3, 286032, Note_on_c, 1, 59, 110
3, 286072, Note_off_c, 1, 56, 100
3, 286080, Note_on_c, 1, 63, 110
3, 286120, Note_off_c, 1, 59, 100
3, 286128, Note_on_c, 1, 59, 110
3, 286168, Note_off_c, 1, 63, 100
3, 286176, Note_on_c, 1, 56, 110
3, 286216, Note_off_c, 1, 59, 100
3, 286224, Note_on_c, 1, 59, 110
3, 286264, Note_off_c, 1, 56, 100
3, 286272, Note_on_c, 1, 51, 110
3, 286312, Note_off_c, 1, 59, 64
3, 286320, Note_on_c, 1, 63, 110
3, 286360, Note_off_c, 1, 51, 100
3, 286368, Note_on_c, 1, 59, 110
3, 286408, Note_off_c, 1, 63, 100
3, 286416, Note_on_c, 1, 63, 110
3, 286456, Note_off_c, 1, 59, 100
3, 286464, Note_on_c, 1, 54, 110
3, 286504, Note_off_c, 1, 63, 100
3, 286512, Note_on_c, 1, 63, 110
3, 286552, Note_off_c, 1, 54, 100
3, 286560, Note_on_c, 1, 59, 110
3, 286600, Note_off_c, 1, 63, 100
3, 286608, Note_on_c, 1, 63, 110
3, 286648, Note_off_c, 1, 59, 100
3, 286656, Note_on_c, 1, 57, 110
3, 286696, Note_off_c, 1, 63, 64
3, 286704, Note_on_c, 1, 63, 110
3, 286744, Note_off_c, 1, 57, 100
3, 286752, Note_on_c, 1, 59, 110
3, 286792, Note_off_c, 1, 63, 100
3, 286800, Note_on_c, 1, 63, 110
3, 286840, Note_off_c, 1, 59, 100
3, 286848, Note_on_c, 1, 59, 110
3, 286888, Note_off_c, 1, 63, 100
3, 286896, Note_on_c, 1, 66, 110
3, 286936, Note_off_c, 1, 59, 100
3, 286944, Note_on_c, 1, 63, 110
3, 286984, Note_off_c, 1, 66, 100
3, 286992, Note_on_c, 1, 66, 110
3, 287032, Note_off_c, 1, 63, 100
3, 287040, Note_on_c, 1, 63, 110
3, 287080, Note_off_c, 1, 66, 64
3, 287088, Note_on_c, 1, 69, 110
3, 287128, Note_off_c, 1, 63, 100
3, 287136, Note_on_c, 1, 66, 110
3, 287176, Note_off_c, 1, 69, 100
3, 287184, Note_on_c, 1, 69, 110
3, 287224, Note_off_c, 1, 66, 100
3, 287232, Note_on_c, 1, 64, 110
3, 287272, Note_off_c, 1, 69, 100
3, 287280, Note_on_c, 1, 69, 110
3, 287320, Note_off_c, 1, 64, 100
3, 287328, Note_on_c, 1, 66, 110
3, 287368, Note_off_c, 1, 69, 100
3, 287376, Note_on_c, 1, 69, 110
3, 287416, Note_off_c, 1, 66, 100
3, 287424, Note_on_c, 1, 63, 110
3, 287464, Note_off_c, 1, 69, 64
3, 287472, Note_on_c, 1, 69, 110
3, 287512, Note_off_c, 1, 63, 100
3, 287520, Note_on_c, 1, 66, 110
3, 287560, Note_off_c, 1, 69, 100
3, 287568, Note_on_c, 1, 69, 110
3, 287608, Note_off_c, 1, 66, 100
3, 287616, Note_on_c, 1, 63, 110
3, 287656, Note_off_c, 1, 69, 100
3, 287664, Note_on_c, 1, 71, 110
3, 287704, Note_off_c, 1, 63, 100
3, 287712, Note_on_c, 1, 66, 110
3, 287752, Note_off_c, 1, 71, 100
3, 287760, Note_on_c, 1, 71, 110
3, 287800, Note_off_c, 1, 66, 100
3, 287808, Note_on_c, 1, 64, 110
3, 287848, Note_off_c, 1, 71, 64
3, 287856, Note_on_c, 1, 73, 110
3, 287896, Note_off_c, 1, 64, 100
3, 287904, Note_on_c, 1, 68, 110
3, 287944, Note_off_c, 1, 73, 100
3, 287952, Note_on_c, 1, 73, 110
3, 287992, Note_off_c, 1, 68, 100
3, 288000, Note_on_c, 1, 66, 110
3, 288040, Note_off_c, 1, 73, 100
3, 288048, Note_on_c, 1, 75, 110
3, 288088, Note_off_c, 1, 66, 100
3, 288096, Note_on_c, 1, 69, 110
3, 288136, Note_off_c, 1, 75, 100
3, 288144, Note_on_c, 1, 75, 110
3, 288184, Note_off_c, 1, 69, 100
3, 288192, Note_on_c, 1, 68, 110
3, 288232, Note_off_c, 1, 75, 64
3, 288240, Note_on_c, 1, 76, 110
3, 288280, Note_off_c, 1, 68, 100
3, 288288, Note_on_c, 1, 75, 110
3, 288328, Note_off_c, 1, 76, 100
3, 288336, Note_on_c, 1, 76, 110
3, 288376, Note_off_c, 1, 75, 100
3, 288384, Note_on_c, 1, 75, 110
3, 288424, Note_off_c, 1, 76, 100
3, 288432, Note_on_c, 1, 76, 110
3, 288472, Note_off_c, 1, 75, 100
3, 288480, Note_on_c, 1, 73, 110
3, 288520, Note_off_c, 1, 76, 100
3, 288528, Note_on_c, 1, 70, 110
3, 288568, Note_off_c, 1, 73, 100
3, 288576, Note_on_c, 1, 71, 110
3, 288616, Note_off_c, 1, 70, 64
3, 288624, Note_on_c, 1, 68, 110
3, 288664, Note_off_c, 1, 71, 100
3, 288672, Note_on_c, 1, 66, 110
3, 288712, Note_off_c, 1, 68, 100
3, 288720, Note_on_c, 1, 64, 110
3, 288760, Note_off_c, 1, 66, 100
3, 288768, Note_on_c, 1, 63, 110
3, 288808, Note_off_c, 1, 64, 100
3, 288816, Note_on_c, 1, 64, 110
3, 288856, Note_off_c, 1, 63, 100
3, 288864, Note_on_c, 1, 63, 110
3, 288904, Note_off_c, 1, 64, 100
3, 288912, Note_on_c, 1, 61, 110
3, 288952, Note_off_c, 1, 63, 100
3, 288960, Note_on_c, 1, 59, 110
3, 289000, Note_off_c, 1, 61, 64
3, 289008, Note_on_c, 1, 57, 110
3, 289048, Note_off_c, 1, 59, 100
3, 289056, Note_on_c, 1, 56, 110
3, 289096, Note_off_c, 1, 57, 100
3, 289104, Note_on_c, 1, 54, 110
3, 289144, Note_off_c, 1, 56, 100
3, 289152, Note_on_c, 1, 52, 110
3, 289192, Note_off_c, 1, 54, 100
3, 289200, Note_on_c, 1, 51, 110
3, 289240, Note_off_c, 1, 52, 100
3, 289248, Note_on_c, 1, 49, 110
3, 289288, Note_off_c, 1, 51, 100
3, 289296, Note_on_c, 1, 47, 110
3, 289336, Note_off_c, 1, 49, 100
3, 289344, Note_on_c, 1, 45, 110
3, 289384, Note_off_c, 1, 47, 64
3, 289392, Note_on_c, 1, 44, 110
3, 289432, Note_off_c, 1, 45, 100
3, 289440, Note_on_c, 1, 42, 110
3, 289480, Note_off_c, 1, 44, 100
3, 289488, Note_on_c, 1, 40, 110
3, 289528, Note_off_c, 1, 42, 100
3, 289536, Note_on_c, 1, 39, 110
3, 289576, Note_off_c, 1, 40, 100
3, 289584, Note_on_c, 1, 35, 110
3, 289624, Note_off_c, 1, 39, 100
3, 289632, Note_on_c, 1, 37, 110
3, 289672, Note_off_c, 1, 35, 100
3, 289680, Note_on_c, 1, 39, 110
3, 289720, Note_off_c, 1, 37, 100
3, 289728, Note_on_c, 1, 40, 110
3, 289768, Note_off_c, 1, 39, 64
3, 289776, Note_on_c, 1, 42, 110
3, 289816, Note_off_c, 1, 40, 100
3, 289824, Note_on_c, 1, 45, 110
3, 289864, Note_off_c, 1, 42, 100
3, 289872, Note_on_c, 1, 47, 110
3, 289912, Note_off_c, 1, 45, 100
3, 289920, Note_on_c, 1, 42, 110
3, 289960, Note_off_c, 1, 47, 100
3, 289968, Note_on_c, 1, 45, 110
3, 290008, Note_off_c, 1, 42, 100
3, 290016, Note_on_c, 1, 47, 110
3, 290056, Note_off_c, 1, 45, 100
3, 290064, Note_on_c, 1, 51, 110
3, 290104, Note_off_c, 1, 47, 100
3, 290112, Note_on_c, 1, 40, 110
3, 290152, Note_off_c, 1, 51, 64
3, 290160, Note_on_c, 1, 42, 110
3, 290200, Note_off_c, 1, 40, 100
3, 290208, Note_on_c, 1, 45, 110
3, 290248, Note_off_c, 1, 42, 100
3, 290256, Note_on_c, 1, 47, 110
3, 290296, Note_off_c, 1, 45, 100
3, 290304, Note_on_c, 1, 42, 110
3, 290344, Note_off_c, 1, 47, 100
3, 290352, Note_on_c, 1, 45, 110
3, 290392, Note_off_c, 1, 42, 100
3, 290400, Note_on_c, 1, 47, 110
3, 290440, Note_off_c, 1, 45, 100
3, 290448, Note_on_c, 1, 51, 110
3, 290488, Note_off_c, 1, 47, 100
3, 290496, Note_on_c, 1, 40, 110
3, 290536, Note_off_c, 1, 51, 64
3, 290544, Note_on_c, 1, 42, 110
3, 290584, Note_off_c, 1, 40, 100
3, 290592, Note_on_c, 1, 45, 110
3, 290632, Note_off_c, 1, 42, 100
3, 290640, Note_on_c, 1, 47, 110
3, 290680, Note_off_c, 1, 45, 100
3, 290688, Note_on_c, 1, 42, 110
3, 290728, Note_off_c, 1, 47, 100
3, 290736, Note_on_c, 1, 45, 110
3, 290776, Note_off_c, 1, 42, 100
3, 290784, Note_on_c, 1, 47, 110
3, 290824, Note_off_c, 1, 45, 100
3, 290832, Note_on_c, 1, 51, 110
3, 290872, Note_off_c, 1, 47, 100
3, 290880, Note_on_c, 1, 40, 110
3, 290920, Note_off_c, 1, 51, 64
3, 290928, Note_on_c, 1, 42, 110
3, 290968, Note_off_c, 1, 40, 100
3, 290976, Note_on_c, 1, 45, 110
3, 291016, Note_off_c, 1, 42, 100
3, 291024, Note_on_c, 1, 47, 109
3, 291064, Note_off_c, 1, 45, 100
3, 291072, Note_on_c, 1, 42, 109
3, 291112, Note_off_c, 1, 47, 100
3, 291120, Note_on_c, 1, 45, 108
3, 291160, Note_off_c, 1, 42, 100
3, 291168, Note_on_c, 1, 47, 108
3, 291208, Note_off_c, 1, 45, 100
3, 291216, Note_on_c, 1, 51, 107
3, 291256, Note_off_c, 1, 47, 100
3, 291264, Note_on_c, 1, 40, 107
3, 291304, Note_off_c, 1, 51, 64
3, 291312, Note_on_c, 1, 42, 106
3, 291352, Note_off_c, 1, 40, 100
3, 291360, Note_on_c, 1, 45, 105
3, 291400, Note_off_c, 1, 42, 100
3, 291408, Note_on_c, 1, 47, 105
3, 291448, Note_off_c, 1, 45, 100
3, 291456, Note_on_c, 1, 42, 104
3, 291496, Note_off_c, 1, 47, 100
3, 291504, Note_on_c, 1, 45, 104
3, 291544, Note_off_c, 1, 42, 100
3, 291552, Note_on_c, 1, 47, 103
3, 291592, Note_off_c, 1, 45, 100
3, 291600, Note_on_c, 1, 51, 103
3, 291640, Note_off_c, 1, 47, 100
3, 291648, Note_on_c, 1, 40, 102
3, 291688, Note_off_c, 1, 51, 64
3, 291696, Note_on_c, 1, 42, 101
3, 291736, Note_off_c, 1, 40, 100
3, 291744, Note_on_c, 1, 45, 101
3, 291784, Note_off_c, 1, 42, 100
3, 291792, Note_on_c, 1, 47, 100
3, 291832, Note_off_c, 1, 45, 100
3, 291840, Note_on_c, 1, 42, 100
3, 291880, Note_off_c, 1, 47, 100
3, 291888, Note_on_c, 1, 45, 99
3, 291928, Note_off_c, 1, 42, 100
3, 291936, Note_on_c, 1, 47, 99
3, 291976, Note_off_c, 1, 45, 100
3, 291984, Note_on_c, 1, 51, 98
3, 292024, Note_off_c, 1, 47, 100
3, 292032, Note_on_c, 1, 40, 97
3, 292072, Note_off_c, 1, 51, 64
3, 292080, Note_on_c, 1, 42, 97
3, 292120, Note_off_c, 1, 40, 100
3, 292128, Note_on_c, 1, 45, 96
3, 292168, Note_off_c, 1, 42, 100
3, 292176, Note_on_c, 1, 47, 96
3, 292216, Note_off_c, 1, 45, 100
3, 292224, Note_on_c, 1, 42, 95
3, 292264, Note_off_c, 1, 47, 100
3, 292272, Note_on_c, 1, 45, 95
3, 292312, Note_off_c, 1, 42, 100
3, 292320, Note_on_c, 1, 47, 94
3, 292360, Note_off_c, 1, 45, 100
3, 292368, Note_on_c, 1, 51, 93
3, 292408, Note_off_c, 1, 47, 100
3, 292416, Note_on_c, 1, 40, 93
3, 292456, Note_off_c, 1, 51, 64
3, 292464, Note_on_c, 1, 42, 92
3, 292504, Note_off_c, 1, 40, 100
3, 292512, Note_on_c, 1, 45, 92
3, 292552, Note_off_c, 1, 42, 100
3, 292560, Note_on_c, 1, 47, 91
3, 292600, Note_off_c, 1, 45, 100
3, 292608, Note_on_c, 1, 42, 91
3, 292648, Note_off_c, 1, 47, 100
3, 292656, Note_on_c, 1, 45, 90
3, 292696, Note_off_c, 1, 42, 100
3, 292704, Note_on_c, 1, 47, 89
3, 292744, Note_off_c, 1, 45, 100
3, 292752, Note_on_c, 1, 51, 89
3, 292792, Note_off_c, 1, 47, 100
3, 292800, Note_on_c, 1, 40, 88
3, 292840, Note_off_c, 1, 51, 64
3, 292848, Note_on_c, 1, 42, 88
3, 292888, Note_off_c, 1, 40, 100
3, 292896, Note_on_c, 1, 45, 87
3, 292936, Note_off_c, 1, 42, 100
3, 292944, Note_on_c, 1, 47, 87
3, 292984, Note_off_c, 1, 45, 100
3, 292992, Note_on_c, 1, 42, 86
3, 293032, Note_off_c, 1, 47, 100
3, 293040, Note_on_c, 1, 45, 86
3, 293080, Note_off_c, 1, 42, 100
3, 293088, Note_on_c, 1, 47, 85
3, 293128, Note_off_c, 1, 45, 100
3, 293136, Note_on_c, 1, 51, 84
3, 293176, Note_off_c, 1, 47, 100
3, 293184, Note_on_c, 1, 40, 84
3, 293224, Note_off_c, 1, 51, 64
3, 293232, Note_on_c, 1, 42, 83
3, 293272, Note_off_c, 1, 40, 100
3, 293280, Note_on_c, 1, 45, 83
3, 293320, Note_off_c, 1, 42, 100
3, 293328, Note_on_c, 1, 47, 82
3, 293368, Note_off_c, 1, 45, 100
3, 293376, Note_on_c, 1, 42, 82
3, 293416, Note_off_c, 1, 47, 100
3, 293424, Note_on_c, 1, 45, 81
3, 293464, Note_off_c, 1, 42, 100
3, 293472, Note_on_c, 1, 47, 80
3, 293512, Note_off_c, 1, 45, 100
3, 293520, Note_on_c, 1, 51, 80
3, 293560, Note_off_c, 1, 47, 100
3, 293568, Note_on_c, 1, 40, 79
3, 293608, Note_off_c, 1, 51, 64
3, 293616, Note_on_c, 1, 42, 79
3, 293656, Note_off_c, 1, 40, 100
3, 293664, Note_on_c, 1, 45, 78
3, 293704, Note_off_c, 1, 42, 100
3, 293712, Note_on_c, 1, 47, 78
3, 293752, Note_off_c, 1, 45, 100
3, 293760, Note_on_c, 1, 42, 77
3, 293800, Note_off_c, 1, 47, 100
3, 293808, Note_on_c, 1, 45, 76
3, 293848, Note_off_c, 1, 42, 100
3, 293856, Note_on_c, 1, 47, 76
3, 293896, Note_off_c, 1, 45, 100
3, 293904, Note_on_c, 1, 51, 75
3, 293944, Note_off_c, 1, 47, 100
3, 293952, Note_on_c, 1, 40, 75
3, 293992, Note_off_c, 1, 51, 64
3, 294000, Note_on_c, 1, 42, 74
3, 294040, Note_off_c, 1, 40, 100
3, 294048, Note_on_c, 1, 45, 74
3, 294088, Note_off_c, 1, 42, 100
3, 294096, Note_on_c, 1, 47, 73
3, 294136, Note_off_c, 1, 45, 100
3, 294144, Note_on_c, 1, 42, 72
3, 294184, Note_off_c, 1, 47, 100
3, 294192, Note_on_c, 1, 45, 72
3, 294232, Note_off_c, 1, 42, 100
3, 294240, Note_on_c, 1, 47, 71
3, 294280, Note_off_c, 1, 45, 100
3, 294288, Note_on_c, 1, 51, 71
3, 294328, Note_off_c, 1, 47, 100
3, 294332, Note_off_c, 1, 51, 100
3, 294336, Note_on_c, 1, 40, 80
3, 294716, Note_off_c, 1, 40, 100
3, 294720, Note_on_c, 1, 44, 80
3, 295100, Note_off_c, 1, 44, 100
3, 295104, Note_on_c, 1, 45, 80
3, 295484, Note_off_c, 1, 45, 100
3, 295488, Note_on_c, 1, 47, 80
3, 295868, Note_off_c, 1, 47, 100
3, 295872, Note_on_c, 1, 49, 80
3, 296252, Note_off_c, 1, 49, 100
3, 296256, Note_on_c, 1, 51, 80
3, 296636, Note_off_c, 1, 51, 100
3, 296640, Note_on_c, 1, 52, 80
3, 297020, Note_off_c, 1, 52, 100
3, 297024, Note_on_c, 1, 56, 80
3, 297404, Note_off_c, 1, 56, 100
3, 297408, Note_on_c, 1, 58, 80
3, 297788, Note_off_c, 1, 58, 100
3, 297792, Note_on_c, 1, 59, 80
3, 298172, Note_off_c, 1, 59, 100
3, 298176, Note_on_c, 1, 54, 80
3, 298556, Note_off_c, 1, 54, 100
3, 298560, Note_on_c, 1, 47, 80
3, 298748, Note_off_c, 1, 47, 100
3, 298752, Note_on_c, 1, 45, 80
3, 298940, Note_off_c, 1, 45, 100
3, 299016, Note_on_c, 1, 44, 80
3, 299328, Note_on_c, 1, 56, 80
3, 299708, Note_off_c, 1, 44, 100
3, 299708, Note_off_c, 1, 56, 100
3, 299712, Note_on_c, 1, 45, 80
3, 300092, Note_off_c, 1, 45, 100
3, 300096, Note_on_c, 1, 47, 80
3, 300096, Note_on_c, 1, 54, 80
3, 300476, Note_off_c, 1, 47, 100
3, 300476, Note_off_c, 1, 54, 100
3, 300480, Note_on_c, 1, 49, 80
3, 300480, Note_on_c, 1, 52, 80
3, 300860, Note_off_c, 1, 49, 100
3, 300860, Note_off_c, 1, 52, 100
3, 300864, Note_on_c, 1, 51, 80
3, 300864, Note_on_c, 1, 54, 80
3, 301244, Note_off_c, 1, 51, 100
3, 301244, Note_off_c, 1, 54, 100
3, 301248, Note_on_c, 1, 52, 80
3, 301628, Note_off_c, 1, 52, 100
3, 301632, Note_on_c, 1, 37, 80
3, 301632, Note_on_c, 1, 49, 80
3, 302012, Note_off_c, 1, 37, 100
3, 302012, Note_off_c, 1, 49, 100
3, 302016, Note_on_c, 1, 36, 80
3, 302016, Note_on_c, 1, 48, 80
3, 302396, Note_off_c, 1, 36, 100
3, 302396, Note_off_c, 1, 48, 100
3, 302400, Note_on_c, 1, 36, 80
3, 302400, Note_on_c, 1, 40, 80
3, 302780, Note_off_c, 1, 40, 100
3, 302784, Note_on_c, 1, 43, 80
3, 303164, Note_off_c, 1, 36, 100
3, 303164, Note_off_c, 1, 43, 100
3, 303168, Note_on_c, 1, 35, 80
3, 303168, Note_on_c, 1, 47, 80
3, 303548, Note_off_c, 1, 35, 100
3, 303548, Note_off_c, 1, 47, 100
3, 303552, Note_on_c, 1, 59, 80
3, 303932, Note_off_c, 1, 59, 100
3, 303936, Note_on_c, 1, 51, 80
3, 303936, Note_on_c, 1, 59, 80
3, 304316, Note_off_c, 1, 51, 100
3, 304316, Note_off_c, 1, 59, 100
3, 304320, Note_on_c, 1, 53, 80
3, 304320, Note_on_c, 1, 59, 80
3, 304700, Note_off_c, 1, 53, 100
3, 304700, Note_off_c, 1, 59, 100
3, 304704, Note_on_c, 1, 54, 80
3, 304704, Note_on_c, 1, 59, 80
3, 305084, Note_off_c, 1, 54, 100
3, 305084, Note_off_c, 1, 59, 100
3, 305088, Note_on_c, 1, 49, 80
3, 305088, Note_on_c, 1, 59, 80
3, 305468, Note_off_c, 1, 49, 100
3, 305468, Note_off_c, 1, 59, 100
3, 305472, Note_on_c, 1, 51, 80
3, 305472, Note_on_c, 1, 59, 80
3, 305852, Note_off_c, 1, 51, 100
3, 305852, Note_off_c, 1, 59, 100
3, 305856, Note_on_c, 1, 52, 80
3, 305856, Note_on_c, 1, 59, 80
3, 306236, Note_off_c, 1, 52, 100
3, 306236, Note_off_c, 1, 59, 100
3, 306240, Note_on_c, 1, 47, 80
3, 306240, Note_on_c, 1, 59, 80
3, 306620, Note_off_c, 1, 47, 100
3, 306620, Note_off_c, 1, 59, 100
3, 306624, Note_on_c, 1, 49, 80
3, 306624, Note_on_c, 1, 61, 80
3, 307004, Note_off_c, 1, 49, 100
3, 307004, Note_off_c, 1, 61, 100
3, 307008, Note_on_c, 1, 51, 80
3, 307008, Note_on_c, 1, 59, 80
3, 307388, Note_off_c, 1, 51, 100
3, 307388, Note_off_c, 1, 59, 100
3, 307392, Note_on_c, 1, 51, 80
3, 307392, Note_on_c, 1, 58, 80
3, 307772, Note_off_c, 1, 51, 100
3, 307772, Note_off_c, 1, 58, 100
3, 307776, Note_on_c, 1, 44, 80
3, 307776, Note_on_c, 1, 56, 80
3, 308156, Note_off_c, 1, 44, 100
3, 308156, Note_off_c, 1, 56, 100
3, 308160, Note_on_c, 1, 42, 80
3, 308160, Note_on_c, 1, 54, 80
3, 308540, Note_off_c, 1, 42, 100
3, 308540, Note_off_c, 1, 54, 100
3, 308544, Note_on_c, 1, 54, 85
3, 308544, Note_on_c, 1, 57, 85
3, 308924, Note_off_c, 1, 54, 100
3, 308924, Note_off_c, 1, 57, 100
3, 308928, Note_on_c, 1, 52, 91
3, 308928, Note_on_c, 1, 54, 91
3, 308928, Note_on_c, 1, 57, 91
3, 309308, Note_off_c, 1, 52, 100
3, 309308, Note_off_c, 1, 54, 100
3, 309308, Note_off_c, 1, 57, 100
3, 309312, Note_on_c, 1, 51, 97
3, 309336, Note_on_c, 1, 54, 97
3, 309360, Note_on_c, 1, 57, 97
3, 309384, Note_on_c, 1, 59, 98
3, 310268, Note_off_c, 1, 51, 100
3, 310268, Note_off_c, 1, 54, 100
3, 310268, Note_off_c, 1, 57, 100
3, 310268, Note_off_c, 1, 59, 100
3, 310272, Note_on_c, 1, 56, 81
3, 310272, Note_on_c, 1, 52, 81
3, 310272, Note_on_c, 1, 59, 81
3, 310460, Note_off_c, 1, 56, 100
3, 310460, Note_off_c, 1, 52, 100
3, 310460, Note_off_c, 1, 59, 100
3, 310464, Note_on_c, 1, 47, 80
3, 310848, Note_on_c, 1, 56, 80
3, 311228, Note_off_c, 1, 47, 100
3, 311228, Note_off_c, 1, 56, 100
3, 311232, Note_on_c, 1, 47, 80
3, 311232, Note_on_c, 1, 54, 80
3, 311612, Note_off_c, 1, 47, 100
3, 311612, Note_off_c, 1, 54, 100
3, 311616, Note_on_c, 1, 40, 80
3, 311996, Note_off_c, 1, 40, 100
3, 312000, Note_on_c, 1, 47, 80
3, 312380, Note_off_c, 1, 47, 100
3, 312384, Note_on_c, 1, 52, 80
3, 313148, Note_off_c, 1, 52, 64
3, 313148, End_track
0, 0, End_of_file
