0, 0, Header, 1, 3, 384
1, 0, Start_track
1, 0, Title_t, "L.v.Beethoven 1mov - Piano Sonata No.30 in E Major Op.109\000"
1, 0, Copyright_t, "Copyright(C) 1995-2009, Suzuki Software\000"
1, 0, Sequencer_specific, 9, 67, 123, 0, 88, 70, 48, 50, 0, 1
1, 0, Text_t, "XFhd:2000/10/14:JP:Classical::::L.v.Beethoven:::Kaoru Suzuki\000"
1, 0, Text_t, "XFln:JP:\203s\203A\203m\203\\\203i\203^\221æ30\224Ô\203z\222·\222²\215ì\225i109\201`\221æ1\212y\217Í:L.v.\203x\201[\203g\201[\203\224\203F\203\223:::\227é\202¿\202á\202ñ:\227é\202¿\202á\202ñ\000"
1, 0, Time_signature, 1, 2, 96, 8
1, 0, Sequencer_specific, 3, 0, 0, 65
1, 0, Sequencer_specific, 5, 0, 0, 119, 14, 0
1, 0, Tempo, 600000
1, 384, Time_signature, 2, 2, 96, 8
1, 384, Tempo, 521739
1, 768, Tempo, 500000
1, 6144, Tempo, 571428
1, 6336, Tempo, 750000
1, 6528, Time_signature, 1, 2, 96, 8
1, 6528, Tempo, 1500000
1, 6616, Tempo, 2000000
1, 6720, Tempo, 1500000
1, 6912, Tempo, 1621621
1, 7008, Tempo, 1714285
1, 7104, Tempo, 1621621
1, 7680, Tempo, 1714285
1, 8064, Tempo, 1818181
1, 8160, Tempo, 2000000
1, 8256, Tempo, 1714285
1, 8352, Tempo, 1578947
1, 8832, Tempo, 1666666
1, 9024, Tempo, 1818181
1, 9216, Tempo, 1714285
1, 9408, Tempo, 2000000
1, 9600, Tempo, 1714285
1, 9696, Tempo, 1621621
1, 9792, Tempo, 1500000
1, 9984, Tempo, 2000000
1, 10032, Tempo, 1714285
1, 10080, Tempo, 1500000
1, 12096, Tempo, 1714285
1, 12192, Tempo, 1875000
1, 12672, Tempo, 2000000
1, 12768, Tempo, 1818181
1, 12864, Tempo, 2000000
1, 12912, Tempo, 1818181
1, 12960, Tempo, 1666666
1, 13056, Tempo, 1500000
1, 13152, Tempo, 1395348
1, 13248, Tempo, 1333333
1, 14280, Tempo, 1578947
1, 14352, Tempo, 1666666
1, 14424, Tempo, 1764705
1, 14496, Tempo, 2000000
1, 14568, Tempo, 2222222
1, 14592, Tempo, 1071428
1, 14976, Tempo, 1200000
1, 15168, Tempo, 1333333
1, 15264, Tempo, 2000000
1, 15360, Tempo, 500000
1, 15744, Time_signature, 2, 2, 96, 8
1, 19200, Tempo, 521739
1, 19584, Tempo, 545454
1, 19776, Tempo, 600000
1, 19968, Tempo, 560747
1, 20160, Tempo, 521739
1, 20352, Tempo, 500000
1, 39552, Tempo, 521739
1, 40320, Tempo, 545454
1, 40512, Tempo, 600000
1, 40704, Tempo, 571428
1, 40896, Tempo, 535714
1, 41088, Tempo, 500000
1, 48000, Time_signature, 1, 2, 96, 8
1, 48000, Tempo, 1500000
1, 48096, Tempo, 2000000
1, 48192, Tempo, 1500000
1, 48384, Tempo, 1621621
1, 48480, Tempo, 1818181
1, 48672, Tempo, 1621621
1, 50496, Tempo, 1714285
1, 50880, Tempo, 1875000
1, 51072, Tempo, 2608695
1, 51120, Tempo, 2307692
1, 51168, Tempo, 2000000
1, 51456, Tempo, 1714285
1, 52416, Tempo, 1818181
1, 52512, Tempo, 2000000
1, 52656, Tempo, 1818181
1, 52704, Tempo, 1714285
1, 52992, Tempo, 1818181
1, 53280, Tempo, 1875000
1, 53760, Tempo, 2400000
1, 53856, Tempo, 2142857
1, 53952, Tempo, 1875000
1, 54096, Tempo, 2000000
1, 54144, Tempo, 2222222
1, 54192, Tempo, 2608695
1, 54384, Tempo, 2000000
1, 54432, Tempo, 1875000
1, 54528, Tempo, 1714285
1, 55776, Tempo, 1818181
1, 55872, Tempo, 2000000
1, 55920, Tempo, 2142857
1, 55968, Tempo, 2307692
1, 56016, Tempo, 2500000
1, 56064, Tempo, 2000000
1, 56256, Tempo, 1875000
1, 58368, Tempo, 500000
1, 58752, Time_signature, 2, 2, 96, 8
1, 65280, Tempo, 545454
1, 65472, Tempo, 600000
1, 65664, Tempo, 545454
1, 67200, Tempo, 521739
1, 72192, Tempo, 535714
1, 72576, Tempo, 545454
1, 73344, Tempo, 571428
1, 73728, Tempo, 666666
1, 74112, Tempo, 545454
1, 74304, Tempo, 521739
1, 74496, Tempo, 500000
1, 82560, Tempo, 571428
1, 82944, Tempo, 666666
1, 83136, Tempo, 750000
1, 83232, Tempo, 857142
1, 83232, End_track
2, 0, Start_track
2, 0, Title_t, "Right"
2, 0, Control_c, 0, 0, 0
2, 0, Program_c, 0, 0
2, 0, Control_c, 0, 7, 100
2, 0, Control_c, 0, 10, 77
2, 0, Control_c, 0, 91, 127
2, 0, Key_signature, 4, "major"
2, 0, Note_on_c, 0, 68, 80
2, 96, Note_on_c, 0, 71, 80
2, 380, Note_off_c, 0, 68, 100
2, 380, Note_off_c, 0, 71, 100
2, 384, Note_on_c, 0, 71, 80
2, 480, Note_on_c, 0, 66, 80
2, 764, Note_off_c, 0, 71, 100
2, 764, Note_off_c, 0, 66, 100
2, 768, Note_on_c, 0, 64, 80
2, 864, Note_on_c, 0, 68, 80
2, 1148, Note_off_c, 0, 64, 100
2, 1148, Note_off_c, 0, 68, 100
2, 1152, Note_on_c, 0, 68, 80
2, 1248, Note_on_c, 0, 63, 80
2, 1532, Note_off_c, 0, 68, 100
2, 1532, Note_off_c, 0, 63, 100
2, 1536, Note_on_c, 0, 61, 80
2, 1632, Note_on_c, 0, 64, 80
2, 1916, Note_off_c, 0, 61, 100
2, 1916, Note_off_c, 0, 64, 100
2, 1920, Note_on_c, 0, 64, 80
2, 2016, Note_on_c, 0, 59, 80
2, 2300, Note_off_c, 0, 64, 100
2, 2300, Note_off_c, 0, 59, 100
2, 2304, Note_on_c, 0, 66, 80
2, 2304, Note_on_c, 0, 63, 80
2, 2304, Note_on_c, 0, 57, 80
2, 2396, Note_off_c, 0, 57, 100
2, 2400, Note_on_c, 0, 59, 80
2, 2684, Note_off_c, 0, 66, 100
2, 2684, Note_off_c, 0, 63, 100
2, 2684, Note_off_c, 0, 59, 100
2, 2688, Note_on_c, 0, 68, 80
2, 2688, Note_on_c, 0, 64, 80
2, 2688, Note_on_c, 0, 56, 80
2, 2780, Note_off_c, 0, 56, 100
2, 2784, Note_on_c, 0, 59, 80
2, 3068, Note_off_c, 0, 68, 100
2, 3068, Note_off_c, 0, 64, 100
2, 3068, Note_off_c, 0, 59, 100
2, 3072, Note_on_c, 0, 68, 80
2, 3168, Note_on_c, 0, 71, 80
2, 3452, Note_off_c, 0, 68, 100
2, 3452, Note_off_c, 0, 71, 100
2, 3456, Note_on_c, 0, 71, 83
2, 3552, Note_on_c, 0, 66, 84
2, 3836, Note_off_c, 0, 71, 100
2, 3836, Note_off_c, 0, 66, 100
2, 3840, Note_on_c, 0, 64, 86
2, 3840, Note_on_c, 0, 70, 86
2, 3932, Note_off_c, 0, 70, 100
2, 3936, Note_on_c, 0, 76, 87
2, 4220, Note_off_c, 0, 64, 100
2, 4220, Note_off_c, 0, 76, 100
2, 4224, Note_on_c, 0, 63, 90
2, 4224, Note_on_c, 0, 75, 90
2, 4316, Note_off_c, 0, 75, 100
2, 4320, Note_on_c, 0, 71, 91
2, 4604, Note_off_c, 0, 63, 100
2, 4604, Note_off_c, 0, 71, 100
2, 4608, Note_on_c, 0, 71, 93
2, 4704, Note_on_c, 0, 75, 94
2, 4988, Note_off_c, 0, 71, 100
2, 4988, Note_off_c, 0, 75, 100
2, 4992, Note_on_c, 0, 76, 97
2, 5088, Note_on_c, 0, 71, 97
2, 5372, Note_off_c, 0, 76, 100
2, 5372, Note_off_c, 0, 71, 100
2, 5376, Note_on_c, 0, 71, 100
2, 5376, Note_on_c, 0, 68, 100
2, 5468, Note_off_c, 0, 68, 100
2, 5472, Note_on_c, 0, 80, 101
2, 5756, Note_off_c, 0, 71, 100
2, 5756, Note_off_c, 0, 80, 100
2, 5760, Note_on_c, 0, 78, 103
2, 5856, Note_on_c, 0, 75, 104
2, 5856, Note_on_c, 0, 71, 104
2, 6140, Note_off_c, 0, 78, 100
2, 6140, Note_off_c, 0, 75, 100
2, 6140, Note_off_c, 0, 71, 100
2, 6144, Note_on_c, 0, 70, 107
2, 6144, Note_on_c, 0, 73, 107
2, 6236, Note_off_c, 0, 73, 100
2, 6240, Note_on_c, 0, 82, 108
2, 6524, Note_off_c, 0, 70, 100
2, 6524, Note_off_c, 0, 82, 100
2, 6528, Note_on_c, 0, 69, 110
2, 6552, Note_on_c, 0, 72, 110
2, 6576, Note_on_c, 0, 75, 110
2, 6600, Note_on_c, 0, 78, 110
2, 6624, Note_on_c, 0, 81, 110
2, 6912, Note_off_c, 0, 69, 100
2, 6912, Note_off_c, 0, 72, 100
2, 7100, Note_off_c, 0, 75, 100
2, 7100, Note_off_c, 0, 78, 100
2, 7100, Note_off_c, 0, 81, 100
2, 7104, Note_on_c, 0, 80, 80
2, 7196, Note_off_c, 0, 80, 100
2, 7200, Note_on_c, 0, 78, 80
2, 7292, Note_off_c, 0, 78, 100
2, 7296, Note_on_c, 0, 76, 80
2, 7296, Note_on_c, 0, 73, 80
2, 7388, Note_off_c, 0, 76, 100
2, 7388, Note_off_c, 0, 73, 100
2, 7392, Note_on_c, 0, 75, 89
2, 7392, Note_on_c, 0, 72, 89
2, 7484, Note_off_c, 0, 75, 100
2, 7484, Note_off_c, 0, 72, 100
2, 7488, Note_on_c, 0, 76, 99
2, 7488, Note_on_c, 0, 73, 99
2, 7580, Note_off_c, 0, 76, 100
2, 7580, Note_off_c, 0, 73, 100
2, 7584, Note_on_c, 0, 78, 109
2, 7584, Note_on_c, 0, 72, 109
2, 7584, Note_on_c, 0, 68, 109
2, 7676, Note_off_c, 0, 78, 100
2, 7676, Note_off_c, 0, 72, 100
2, 7676, Note_off_c, 0, 68, 100
2, 7680, Note_on_c, 0, 79, 110
2, 7868, Note_off_c, 0, 79, 100
2, 7872, Note_on_c, 0, 80, 110
2, 7872, Note_on_c, 0, 76, 110
2, 7872, Note_on_c, 0, 73, 110
2, 7872, Note_on_c, 0, 68, 110
2, 8252, Note_off_c, 0, 68, 100
2, 8252, Note_off_c, 0, 73, 100
2, 8252, Note_off_c, 0, 76, 100
2, 8252, Note_off_c, 0, 80, 100
2, 8256, Note_on_c, 0, 78, 80
2, 8256, Note_on_c, 0, 73, 80
2, 8348, Note_off_c, 0, 78, 100
2, 8352, Note_on_c, 0, 76, 80
2, 8444, Note_off_c, 0, 73, 100
2, 8444, Note_off_c, 0, 76, 100
2, 8448, Note_on_c, 0, 75, 80
2, 8448, Note_on_c, 0, 66, 80
2, 8540, Note_off_c, 0, 75, 100
2, 8540, Note_off_c, 0, 66, 100
2, 8544, Note_on_c, 0, 73, 86
2, 8544, Note_on_c, 0, 66, 86
2, 8544, Note_on_c, 0, 64, 86
2, 8636, Note_off_c, 0, 73, 100
2, 8636, Note_off_c, 0, 66, 100
2, 8636, Note_off_c, 0, 64, 100
2, 8640, Note_on_c, 0, 75, 93
2, 8640, Note_on_c, 0, 66, 93
2, 8640, Note_on_c, 0, 63, 93
2, 8732, Note_off_c, 0, 75, 100
2, 8732, Note_off_c, 0, 66, 100
2, 8732, Note_off_c, 0, 63, 100
2, 8736, Note_on_c, 0, 76, 99
2, 8736, Note_on_c, 0, 64, 99
2, 8828, Note_off_c, 0, 76, 100
2, 8828, Note_off_c, 0, 64, 100
2, 8832, Note_on_c, 0, 78, 80
2, 8924, Note_off_c, 0, 78, 100
2, 8928, Note_on_c, 0, 71, 80
2, 9020, Note_off_c, 0, 71, 100
2, 9024, Note_on_c, 0, 78, 80
2, 9116, Note_off_c, 0, 78, 100
2, 9120, Note_on_c, 0, 76, 80
2, 9212, Note_off_c, 0, 76, 100
2, 9216, Note_on_c, 0, 75, 80
2, 9596, Note_off_c, 0, 75, 100
2, 9600, Note_on_c, 0, 73, 80
2, 9632, Note_off_c, 0, 73, 100
2, 9636, Note_on_c, 0, 75, 83
2, 9668, Note_off_c, 0, 75, 100
2, 9672, Note_on_c, 0, 73, 86
2, 9704, Note_off_c, 0, 73, 100
2, 9712, Note_on_c, 0, 72, 89
2, 9748, Note_off_c, 0, 72, 100
2, 9752, Note_on_c, 0, 73, 92
2, 9788, Note_off_c, 0, 73, 100
2, 9792, Note_on_c, 0, 75, 96
2, 9820, Note_off_c, 0, 75, 100
2, 9824, Note_on_c, 0, 76, 98
2, 9852, Note_off_c, 0, 76, 100
2, 9856, Note_on_c, 0, 77, 101
2, 9884, Note_off_c, 0, 77, 100
2, 9888, Note_on_c, 0, 78, 104
2, 9916, Note_off_c, 0, 78, 100
2, 9920, Note_on_c, 0, 79, 106
2, 9948, Note_off_c, 0, 79, 100
2, 9952, Note_on_c, 0, 80, 109
2, 9980, Note_off_c, 0, 80, 100
2, 9984, Control_c, 0, 64, 127
2, 9984, Note_on_c, 0, 81, 110
2, 10032, Note_on_c, 0, 93, 110
2, 10080, Note_on_c, 0, 87, 110
2, 10116, Note_off_c, 0, 81, 100
2, 10128, Note_on_c, 0, 84, 110
2, 10164, Note_off_c, 0, 93, 100
2, 10176, Note_on_c, 0, 81, 110
2, 10224, Note_on_c, 0, 75, 110
2, 10228, Note_off_c, 0, 87, 100
2, 10272, Note_off_c, 0, 84, 100
2, 10272, Note_on_c, 0, 72, 110
2, 10320, Note_off_c, 0, 81, 100
2, 10320, Note_on_c, 0, 69, 110
2, 10356, Note_off_c, 0, 75, 100
2, 10368, Note_on_c, 0, 63, 110
2, 10416, Note_on_c, 0, 60, 110
2, 10420, Note_off_c, 0, 72, 100
2, 10452, Note_off_c, 0, 69, 100
2, 10464, Note_on_c, 0, 57, 110
2, 10496, Note_off_c, 0, 63, 100
2, 10512, Note_on_c, 0, 51, 110
2, 10536, Note_off_c, 0, 60, 100
2, 10560, Note_on_c, 0, 48, 80
2, 10592, Note_off_c, 0, 57, 100
2, 10592, Note_on_c, 0, 45, 80
2, 10624, Note_on_c, 0, 48, 80
2, 10636, Note_off_c, 0, 51, 100
2, 10640, Note_off_c, 0, 48, 100
2, 10656, Note_on_c, 0, 51, 80
2, 10672, Note_off_c, 0, 45, 100
2, 10688, Note_on_c, 0, 57, 80
2, 10704, Note_off_c, 0, 48, 100
2, 10720, Note_on_c, 0, 60, 80
2, 10752, Note_off_c, 0, 51, 100
2, 10752, Note_on_c, 0, 63, 80
2, 10772, Note_off_c, 0, 57, 100
2, 10776, Note_on_c, 0, 69, 80
2, 10800, Note_on_c, 0, 72, 80
2, 10816, Note_off_c, 0, 60, 100
2, 10820, Note_off_c, 0, 63, 100
2, 10824, Note_on_c, 0, 75, 80
2, 10840, Note_off_c, 0, 69, 100
2, 10848, Note_on_c, 0, 81, 80
2, 10872, Note_off_c, 0, 72, 100
2, 10872, Note_on_c, 0, 84, 80
2, 10892, Note_off_c, 0, 75, 100
2, 10896, Note_on_c, 0, 87, 80
2, 10920, Note_off_c, 0, 81, 100
2, 10920, Note_on_c, 0, 93, 80
2, 10932, Note_off_c, 0, 84, 100
2, 10936, Note_off_c, 0, 87, 100
2, 10936, Control_c, 0, 64, 0
2, 10940, Note_off_c, 0, 93, 100
2, 10944, Note_on_c, 0, 92, 80
2, 10944, Note_on_c, 0, 80, 80
2, 11036, Note_off_c, 0, 92, 100
2, 11036, Note_off_c, 0, 80, 100
2, 11040, Note_on_c, 0, 91, 80
2, 11040, Note_on_c, 0, 79, 80
2, 11132, Note_off_c, 0, 91, 100
2, 11132, Note_off_c, 0, 79, 100
2, 11136, Control_c, 0, 64, 127
2, 11136, Note_on_c, 0, 91, 110
2, 11168, Note_on_c, 0, 87, 110
2, 11196, Note_off_c, 0, 91, 100
2, 11200, Note_on_c, 0, 82, 110
2, 11232, Note_off_c, 0, 87, 100
2, 11232, Note_on_c, 0, 79, 110
2, 11264, Note_on_c, 0, 75, 110
2, 11268, Note_off_c, 0, 82, 100
2, 11296, Note_on_c, 0, 70, 110
2, 11308, Note_off_c, 0, 79, 100
2, 11328, Note_on_c, 0, 67, 110
2, 11340, Note_off_c, 0, 75, 100
2, 11360, Note_on_c, 0, 63, 110
2, 11372, Note_off_c, 0, 70, 100
2, 11392, Note_on_c, 0, 58, 110
2, 11400, Note_off_c, 0, 67, 100
2, 11424, Note_on_c, 0, 55, 110
2, 11428, Note_off_c, 0, 63, 100
2, 11456, Note_on_c, 0, 51, 110
2, 11464, Note_off_c, 0, 58, 100
2, 11488, Note_off_c, 0, 55, 100
2, 11488, Note_on_c, 0, 46, 110
2, 11524, Note_off_c, 0, 51, 100
2, 11560, Note_off_c, 0, 46, 100
2, 11616, Note_on_c, 0, 55, 110
2, 11640, Note_on_c, 0, 58, 110
2, 11664, Note_on_c, 0, 63, 110
2, 11680, Note_off_c, 0, 55, 100
2, 11684, Note_off_c, 0, 58, 100
2, 11688, Note_on_c, 0, 67, 109
2, 11716, Note_off_c, 0, 63, 100
2, 11740, Note_off_c, 0, 67, 100
2, 11808, Note_on_c, 0, 67, 99
2, 11832, Note_on_c, 0, 70, 97
2, 11856, Note_on_c, 0, 75, 95
2, 11860, Note_off_c, 0, 67, 100
2, 11880, Note_on_c, 0, 79, 93
2, 11884, Note_off_c, 0, 70, 100
2, 11908, Note_off_c, 0, 75, 100
2, 11928, Note_off_c, 0, 79, 100
2, 12000, Note_on_c, 0, 79, 83
2, 12024, Note_on_c, 0, 82, 81
2, 12048, Note_on_c, 0, 87, 80
2, 12056, Note_off_c, 0, 79, 100
2, 12072, Note_on_c, 0, 91, 80
2, 12080, Note_off_c, 0, 82, 100
2, 12088, Control_c, 0, 64, 0
2, 12092, Note_off_c, 0, 87, 100
2, 12092, Note_off_c, 0, 91, 100
2, 12096, Note_on_c, 0, 91, 80
2, 12096, Note_on_c, 0, 79, 80
2, 12188, Note_off_c, 0, 91, 100
2, 12188, Note_off_c, 0, 79, 100
2, 12192, Note_on_c, 0, 90, 80
2, 12192, Note_on_c, 0, 78, 80
2, 12284, Note_off_c, 0, 90, 100
2, 12284, Note_off_c, 0, 78, 100
2, 12288, Note_on_c, 0, 90, 80
2, 12288, Note_on_c, 0, 78, 80
2, 12332, Note_off_c, 0, 90, 100
2, 12332, Note_off_c, 0, 78, 100
2, 12336, Note_on_c, 0, 83, 80
2, 12380, Note_off_c, 0, 83, 100
2, 12384, Note_on_c, 0, 82, 80
2, 12428, Note_off_c, 0, 82, 100
2, 12432, Note_on_c, 0, 83, 80
2, 12476, Note_off_c, 0, 83, 100
2, 12480, Note_on_c, 0, 82, 80
2, 12524, Note_off_c, 0, 82, 100
2, 12528, Note_on_c, 0, 83, 80
2, 12572, Note_off_c, 0, 83, 100
2, 12576, Note_on_c, 0, 90, 80
2, 12620, Note_off_c, 0, 90, 100
2, 12624, Note_on_c, 0, 88, 80
2, 12668, Note_off_c, 0, 88, 100
2, 12672, Note_on_c, 0, 75, 80
2, 12716, Note_off_c, 0, 75, 100
2, 12720, Note_on_c, 0, 94, 80
2, 12764, Note_off_c, 0, 94, 100
2, 12768, Note_on_c, 0, 95, 80
2, 12812, Note_off_c, 0, 95, 100
2, 12816, Note_on_c, 0, 94, 80
2, 12860, Note_off_c, 0, 94, 100
2, 12864, Note_on_c, 0, 94, 80
2, 12892, Note_off_c, 0, 94, 100
2, 12896, Note_on_c, 0, 92, 80
2, 12924, Note_off_c, 0, 92, 100
2, 12928, Note_on_c, 0, 90, 80
2, 12956, Note_off_c, 0, 90, 100
2, 12960, Note_on_c, 0, 94, 80
2, 12988, Note_off_c, 0, 94, 100
2, 12992, Note_on_c, 0, 92, 80
2, 13020, Note_off_c, 0, 92, 100
2, 13024, Note_on_c, 0, 88, 80
2, 13052, Note_off_c, 0, 88, 100
2, 13056, Note_on_c, 0, 92, 80
2, 13084, Note_off_c, 0, 92, 100
2, 13088, Note_on_c, 0, 90, 80
2, 13116, Note_off_c, 0, 90, 100
2, 13120, Note_on_c, 0, 87, 81
2, 13148, Note_off_c, 0, 87, 100
2, 13152, Note_on_c, 0, 90, 82
2, 13180, Note_off_c, 0, 90, 100
2, 13184, Note_on_c, 0, 88, 83
2, 13212, Note_off_c, 0, 88, 100
2, 13216, Note_on_c, 0, 85, 84
2, 13244, Note_off_c, 0, 85, 100
2, 13248, Note_on_c, 0, 88, 85
2, 13276, Note_off_c, 0, 88, 100
2, 13280, Note_on_c, 0, 87, 85
2, 13308, Note_off_c, 0, 87, 100
2, 13312, Note_on_c, 0, 83, 86
2, 13340, Note_off_c, 0, 83, 100
2, 13344, Note_on_c, 0, 87, 87
2, 13372, Note_off_c, 0, 87, 100
2, 13376, Note_on_c, 0, 85, 88
2, 13404, Note_off_c, 0, 85, 100
2, 13408, Note_on_c, 0, 82, 89
2, 13436, Note_off_c, 0, 82, 100
2, 13440, Note_on_c, 0, 83, 90
2, 13468, Note_off_c, 0, 83, 100
2, 13472, Note_on_c, 0, 82, 91
2, 13500, Note_off_c, 0, 82, 100
2, 13504, Note_on_c, 0, 80, 91
2, 13532, Note_off_c, 0, 80, 100
2, 13536, Note_on_c, 0, 78, 92
2, 13564, Note_off_c, 0, 78, 100
2, 13568, Note_on_c, 0, 76, 93
2, 13596, Note_off_c, 0, 76, 100
2, 13600, Note_on_c, 0, 75, 94
2, 13628, Note_off_c, 0, 75, 100
2, 13632, Note_on_c, 0, 73, 95
2, 13660, Note_off_c, 0, 73, 100
2, 13664, Note_on_c, 0, 71, 96
2, 13692, Note_off_c, 0, 71, 100
2, 13696, Note_on_c, 0, 70, 97
2, 13724, Note_off_c, 0, 70, 100
2, 13728, Note_on_c, 0, 68, 97
2, 13756, Note_off_c, 0, 68, 100
2, 13760, Note_on_c, 0, 66, 98
2, 13788, Note_off_c, 0, 66, 100
2, 13792, Note_on_c, 0, 64, 99
2, 13820, Note_off_c, 0, 64, 100
2, 13824, Note_on_c, 0, 63, 100
2, 13852, Note_off_c, 0, 63, 100
2, 13856, Note_on_c, 0, 61, 101
2, 13884, Note_off_c, 0, 61, 100
2, 13888, Note_on_c, 0, 59, 102
2, 13916, Note_off_c, 0, 59, 100
2, 13920, Note_on_c, 0, 58, 103
2, 13948, Note_off_c, 0, 58, 100
2, 13952, Note_on_c, 0, 56, 103
2, 13980, Note_off_c, 0, 56, 100
2, 13984, Note_on_c, 0, 54, 104
2, 14012, Note_off_c, 0, 54, 100
2, 14016, Note_on_c, 0, 52, 105
2, 14044, Note_off_c, 0, 52, 100
2, 14048, Note_on_c, 0, 51, 106
2, 14076, Note_off_c, 0, 51, 100
2, 14080, Note_on_c, 0, 49, 107
2, 14108, Note_off_c, 0, 49, 100
2, 14112, Note_on_c, 0, 47, 108
2, 14140, Note_off_c, 0, 47, 100
2, 14144, Note_on_c, 0, 46, 109
2, 14172, Note_off_c, 0, 46, 100
2, 14176, Note_on_c, 0, 47, 109
2, 14204, Note_off_c, 0, 47, 100
2, 14208, Note_on_c, 0, 49, 110
2, 14236, Note_off_c, 0, 49, 100
2, 14240, Note_on_c, 0, 51, 110
2, 14268, Note_off_c, 0, 51, 100
2, 14272, Note_on_c, 0, 52, 109
2, 14300, Note_off_c, 0, 52, 100
2, 14304, Note_on_c, 0, 54, 108
2, 14332, Note_off_c, 0, 54, 100
2, 14336, Note_on_c, 0, 56, 107
2, 14364, Note_off_c, 0, 56, 100
2, 14368, Note_on_c, 0, 58, 106
2, 14396, Note_off_c, 0, 58, 100
2, 14400, Note_on_c, 0, 59, 105
2, 14428, Note_off_c, 0, 59, 100
2, 14432, Note_on_c, 0, 61, 104
2, 14460, Note_off_c, 0, 61, 100
2, 14464, Note_on_c, 0, 63, 103
2, 14492, Note_off_c, 0, 63, 100
2, 14496, Note_on_c, 0, 64, 102
2, 14524, Note_off_c, 0, 64, 100
2, 14528, Note_on_c, 0, 66, 101
2, 14556, Note_off_c, 0, 66, 100
2, 14560, Note_on_c, 0, 68, 101
2, 14588, Note_off_c, 0, 68, 100
2, 14592, Note_on_c, 0, 70, 100
2, 14684, Note_off_c, 0, 70, 100
2, 14688, Note_on_c, 0, 71, 97
2, 14780, Note_off_c, 0, 71, 100
2, 14784, Note_on_c, 0, 73, 94
2, 14876, Note_off_c, 0, 73, 100
2, 14880, Note_on_c, 0, 75, 91
2, 14972, Note_off_c, 0, 75, 100
2, 14976, Note_on_c, 0, 76, 89
2, 15068, Note_off_c, 0, 76, 100
2, 15072, Note_on_c, 0, 78, 86
2, 15164, Note_off_c, 0, 78, 100
2, 15168, Note_on_c, 0, 80, 83
2, 15260, Note_off_c, 0, 80, 100
2, 15264, Note_on_c, 0, 82, 81
2, 15356, Note_off_c, 0, 82, 100
2, 15360, Note_on_c, 0, 83, 80
2, 15548, Note_off_c, 0, 83, 100
2, 15552, Note_on_c, 0, 73, 80
2, 15644, Note_off_c, 0, 73, 100
2, 15648, Note_on_c, 0, 78, 80
2, 15740, Note_off_c, 0, 78, 100
2, 15936, Note_on_c, 0, 71, 80
2, 16028, Note_off_c, 0, 71, 100
2, 16032, Note_on_c, 0, 70, 80
2, 16124, Note_off_c, 0, 70, 100
2, 16320, Note_on_c, 0, 73, 80
2, 16412, Note_off_c, 0, 73, 100
2, 16416, Note_on_c, 0, 80, 80
2, 16508, Note_off_c, 0, 80, 100
2, 16704, Note_on_c, 0, 73, 80
2, 16796, Note_off_c, 0, 73, 100
2, 16800, Note_on_c, 0, 72, 80
2, 16892, Note_off_c, 0, 72, 100
2, 17088, Note_on_c, 0, 75, 80
2, 17088, Note_on_c, 0, 72, 80
2, 17180, Note_off_c, 0, 75, 100
2, 17180, Note_off_c, 0, 72, 100
2, 17184, Note_on_c, 0, 84, 80
2, 17276, Note_off_c, 0, 84, 100
2, 17472, Note_on_c, 0, 76, 80
2, 17472, Note_on_c, 0, 73, 80
2, 17564, Note_off_c, 0, 76, 100
2, 17564, Note_off_c, 0, 73, 100
2, 17568, Note_on_c, 0, 85, 80
2, 17660, Note_off_c, 0, 85, 100
2, 17856, Note_on_c, 0, 84, 80
2, 17948, Note_off_c, 0, 84, 100
2, 17952, Note_on_c, 0, 87, 80
2, 18044, Note_off_c, 0, 87, 100
2, 18240, Note_on_c, 0, 80, 80
2, 18332, Note_off_c, 0, 80, 100
2, 18336, Note_on_c, 0, 88, 80
2, 18428, Note_off_c, 0, 88, 100
2, 18624, Note_on_c, 0, 78, 80
2, 18624, Note_on_c, 0, 87, 80
2, 18716, Note_off_c, 0, 78, 100
2, 18716, Note_off_c, 0, 87, 100
2, 18720, Note_on_c, 0, 80, 80
2, 18812, Note_off_c, 0, 80, 100
2, 19008, Note_on_c, 0, 80, 80
2, 19008, Note_on_c, 0, 76, 80
2, 19100, Note_off_c, 0, 80, 100
2, 19100, Note_off_c, 0, 76, 100
2, 19104, Note_on_c, 0, 88, 80
2, 19196, Note_off_c, 0, 88, 100
2, 19392, Note_on_c, 0, 78, 80
2, 19392, Note_on_c, 0, 85, 80
2, 19484, Note_off_c, 0, 78, 100
2, 19484, Note_off_c, 0, 85, 100
2, 19488, Note_on_c, 0, 90, 80
2, 19580, Note_off_c, 0, 90, 100
2, 19776, Note_on_c, 0, 84, 80
2, 19776, Note_on_c, 0, 80, 80
2, 19868, Note_off_c, 0, 84, 100
2, 19868, Note_off_c, 0, 80, 100
2, 19872, Note_on_c, 0, 92, 80
2, 19964, Note_off_c, 0, 92, 100
2, 19968, Note_on_c, 0, 75, 80
2, 19968, Note_on_c, 0, 70, 80
2, 20064, Note_on_c, 0, 63, 80
2, 20348, Note_off_c, 0, 75, 100
2, 20348, Note_off_c, 0, 70, 100
2, 20348, Note_off_c, 0, 63, 100
2, 20352, Note_on_c, 0, 75, 82
2, 20352, Note_on_c, 0, 71, 82
2, 20448, Note_on_c, 0, 63, 83
2, 20732, Note_off_c, 0, 75, 100
2, 20732, Note_off_c, 0, 71, 100
2, 20732, Note_off_c, 0, 63, 100
2, 20736, Note_on_c, 0, 73, 85
2, 20736, Note_on_c, 0, 67, 85
2, 20832, Note_on_c, 0, 63, 86
2, 21116, Note_off_c, 0, 73, 100
2, 21116, Note_off_c, 0, 67, 100
2, 21116, Note_off_c, 0, 63, 100
2, 21120, Note_on_c, 0, 71, 88
2, 21120, Note_on_c, 0, 68, 88
2, 21216, Note_on_c, 0, 63, 89
2, 21500, Note_off_c, 0, 71, 100
2, 21500, Note_off_c, 0, 68, 100
2, 21500, Note_off_c, 0, 63, 100
2, 21504, Note_on_c, 0, 70, 91
2, 21504, Note_on_c, 0, 67, 91
2, 21504, Note_on_c, 0, 64, 91
2, 21600, Note_on_c, 0, 61, 92
2, 21884, Note_off_c, 0, 70, 100
2, 21884, Note_off_c, 0, 67, 100
2, 21884, Note_off_c, 0, 64, 100
2, 21884, Note_off_c, 0, 61, 100
2, 21888, Note_on_c, 0, 71, 94
2, 21888, Note_on_c, 0, 68, 94
2, 21888, Note_on_c, 0, 65, 94
2, 21984, Note_on_c, 0, 59, 95
2, 22268, Note_off_c, 0, 71, 100
2, 22268, Note_off_c, 0, 68, 100
2, 22268, Note_off_c, 0, 65, 100
2, 22268, Note_off_c, 0, 59, 100
2, 22272, Note_on_c, 0, 68, 97
2, 22272, Note_on_c, 0, 65, 97
2, 22272, Note_on_c, 0, 59, 97
2, 22368, Note_on_c, 0, 56, 98
2, 22652, Note_off_c, 0, 68, 100
2, 22652, Note_off_c, 0, 65, 100
2, 22652, Note_off_c, 0, 59, 100
2, 22652, Note_off_c, 0, 56, 100
2, 22656, Note_on_c, 0, 67, 80
2, 22656, Note_on_c, 0, 63, 80
2, 22656, Note_on_c, 0, 58, 80
2, 22752, Note_on_c, 0, 55, 80
2, 23036, Note_off_c, 0, 67, 100
2, 23036, Note_off_c, 0, 63, 100
2, 23036, Note_off_c, 0, 58, 100
2, 23036, Note_off_c, 0, 55, 100
2, 23040, Note_on_c, 0, 67, 80
2, 23040, Note_on_c, 0, 63, 80
2, 23040, Note_on_c, 0, 58, 80
2, 23136, Note_on_c, 0, 55, 80
2, 23420, Note_off_c, 0, 67, 100
2, 23420, Note_off_c, 0, 63, 100
2, 23420, Note_off_c, 0, 58, 100
2, 23420, Note_off_c, 0, 55, 100
2, 23424, Note_on_c, 0, 68, 80
2, 23424, Note_on_c, 0, 63, 80
2, 23424, Note_on_c, 0, 59, 80
2, 23520, Note_on_c, 0, 56, 80
2, 23804, Note_off_c, 0, 68, 100
2, 23804, Note_off_c, 0, 63, 100
2, 23804, Note_off_c, 0, 59, 100
2, 23804, Note_off_c, 0, 56, 100
2, 23808, Note_on_c, 0, 70, 80
2, 23808, Note_on_c, 0, 67, 80
2, 23808, Note_on_c, 0, 63, 80
2, 23904, Note_on_c, 0, 58, 80
2, 24188, Note_off_c, 0, 70, 100
2, 24188, Note_off_c, 0, 67, 100
2, 24188, Note_off_c, 0, 63, 100
2, 24188, Note_off_c, 0, 58, 100
2, 24192, Note_on_c, 0, 71, 80
2, 24192, Note_on_c, 0, 68, 80
2, 24192, Note_on_c, 0, 63, 80
2, 24288, Note_on_c, 0, 59, 80
2, 24572, Note_off_c, 0, 71, 100
2, 24572, Note_off_c, 0, 68, 100
2, 24572, Note_off_c, 0, 63, 100
2, 24572, Note_off_c, 0, 59, 100
2, 24576, Note_on_c, 0, 70, 81
2, 24576, Note_on_c, 0, 67, 81
2, 24576, Note_on_c, 0, 63, 81
2, 24672, Note_on_c, 0, 58, 81
2, 24956, Note_off_c, 0, 70, 100
2, 24956, Note_off_c, 0, 67, 100
2, 24956, Note_off_c, 0, 63, 100
2, 24956, Note_off_c, 0, 58, 100
2, 24960, Note_on_c, 0, 71, 83
2, 24960, Note_on_c, 0, 68, 83
2, 24960, Note_on_c, 0, 63, 83
2, 25056, Note_on_c, 0, 59, 83
2, 25340, Note_off_c, 0, 71, 100
2, 25340, Note_off_c, 0, 68, 100
2, 25340, Note_off_c, 0, 63, 100
2, 25340, Note_off_c, 0, 59, 100
2, 25344, Note_on_c, 0, 73, 84
2, 25344, Note_on_c, 0, 70, 84
2, 25344, Note_on_c, 0, 66, 84
2, 25440, Note_on_c, 0, 61, 84
2, 25724, Note_off_c, 0, 73, 100
2, 25724, Note_off_c, 0, 70, 100
2, 25724, Note_off_c, 0, 66, 100
2, 25724, Note_off_c, 0, 61, 100
2, 25728, Note_on_c, 0, 75, 86
2, 25728, Note_on_c, 0, 71, 86
2, 25728, Note_on_c, 0, 66, 86
2, 25824, Note_on_c, 0, 63, 86
2, 26108, Note_off_c, 0, 75, 100
2, 26108, Note_off_c, 0, 71, 100
2, 26108, Note_off_c, 0, 66, 100
2, 26108, Note_off_c, 0, 63, 100
2, 26112, Note_on_c, 0, 73, 87
2, 26112, Note_on_c, 0, 70, 87
2, 26112, Note_on_c, 0, 66, 87
2, 26208, Note_on_c, 0, 61, 88
2, 26492, Note_off_c, 0, 73, 100
2, 26492, Note_off_c, 0, 70, 100
2, 26492, Note_off_c, 0, 66, 100
2, 26492, Note_off_c, 0, 61, 100
2, 26496, Note_on_c, 0, 75, 89
2, 26496, Note_on_c, 0, 71, 89
2, 26496, Note_on_c, 0, 66, 89
2, 26592, Note_on_c, 0, 63, 89
2, 26876, Note_off_c, 0, 75, 100
2, 26876, Note_off_c, 0, 71, 100
2, 26876, Note_off_c, 0, 66, 100
2, 26876, Note_off_c, 0, 63, 100
2, 26880, Note_on_c, 0, 77, 90
2, 26880, Note_on_c, 0, 74, 90
2, 26880, Note_on_c, 0, 70, 90
2, 26976, Note_on_c, 0, 65, 91
2, 27260, Note_off_c, 0, 77, 100
2, 27260, Note_off_c, 0, 74, 100
2, 27260, Note_off_c, 0, 70, 100
2, 27260, Note_off_c, 0, 65, 100
2, 27264, Note_on_c, 0, 78, 92
2, 27264, Note_on_c, 0, 75, 92
2, 27264, Note_on_c, 0, 70, 92
2, 27360, Note_on_c, 0, 66, 92
2, 27644, Note_off_c, 0, 78, 100
2, 27644, Note_off_c, 0, 75, 100
2, 27644, Note_off_c, 0, 70, 100
2, 27644, Note_off_c, 0, 66, 100
2, 27648, Note_on_c, 0, 77, 93
2, 27648, Note_on_c, 0, 74, 93
2, 27648, Note_on_c, 0, 70, 93
2, 27744, Note_on_c, 0, 65, 94
2, 28028, Note_off_c, 0, 77, 100
2, 28028, Note_off_c, 0, 74, 100
2, 28028, Note_off_c, 0, 70, 100
2, 28028, Note_off_c, 0, 65, 100
2, 28032, Note_on_c, 0, 78, 95
2, 28032, Note_on_c, 0, 75, 95
2, 28032, Note_on_c, 0, 70, 95
2, 28128, Note_on_c, 0, 66, 95
2, 28412, Note_off_c, 0, 78, 100
2, 28412, Note_off_c, 0, 75, 100
2, 28412, Note_off_c, 0, 70, 100
2, 28412, Note_off_c, 0, 66, 100
2, 28416, Note_on_c, 0, 80, 96
2, 28416, Note_on_c, 0, 77, 96
2, 28416, Note_on_c, 0, 73, 96
2, 28512, Note_on_c, 0, 68, 97
2, 28796, Note_off_c, 0, 80, 100
2, 28796, Note_off_c, 0, 77, 100
2, 28796, Note_off_c, 0, 73, 100
2, 28796, Note_off_c, 0, 68, 100
2, 28800, Note_on_c, 0, 82, 98
2, 28800, Note_on_c, 0, 78, 98
2, 28800, Note_on_c, 0, 73, 98
2, 28896, Note_on_c, 0, 70, 98
2, 29180, Note_off_c, 0, 82, 100
2, 29180, Note_off_c, 0, 78, 100
2, 29180, Note_off_c, 0, 73, 100
2, 29180, Note_off_c, 0, 70, 100
2, 29184, Note_on_c, 0, 83, 99
2, 29184, Note_on_c, 0, 78, 99
2, 29184, Note_on_c, 0, 75, 99
2, 29280, Note_on_c, 0, 71, 80
2, 29564, Note_off_c, 0, 83, 100
2, 29564, Note_off_c, 0, 78, 100
2, 29564, Note_off_c, 0, 75, 100
2, 29564, Note_off_c, 0, 71, 100
2, 29568, Note_on_c, 0, 80, 80
2, 29568, Note_on_c, 0, 78, 80
2, 29568, Note_on_c, 0, 71, 80
2, 29664, Note_on_c, 0, 68, 80
2, 29948, Note_off_c, 0, 80, 100
2, 29948, Note_off_c, 0, 78, 100
2, 29948, Note_off_c, 0, 71, 100
2, 29948, Note_off_c, 0, 68, 100
2, 29952, Note_on_c, 0, 82, 80
2, 29952, Note_on_c, 0, 78, 80
2, 29952, Note_on_c, 0, 73, 80
2, 30048, Note_on_c, 0, 70, 80
2, 30332, Note_off_c, 0, 82, 100
2, 30332, Note_off_c, 0, 78, 100
2, 30332, Note_off_c, 0, 73, 100
2, 30332, Note_off_c, 0, 70, 100
2, 30336, Note_on_c, 0, 83, 80
2, 30336, Note_on_c, 0, 78, 80
2, 30336, Note_on_c, 0, 75, 80
2, 30432, Note_on_c, 0, 71, 80
2, 30716, Note_off_c, 0, 83, 100
2, 30716, Note_off_c, 0, 78, 100
2, 30716, Note_off_c, 0, 75, 100
2, 30716, Note_off_c, 0, 71, 100
2, 30720, Note_on_c, 0, 85, 80
2, 30720, Note_on_c, 0, 82, 80
2, 30720, Note_on_c, 0, 78, 80
2, 30816, Note_on_c, 0, 73, 80
2, 31100, Note_off_c, 0, 85, 100
2, 31100, Note_off_c, 0, 82, 100
2, 31100, Note_off_c, 0, 78, 100
2, 31100, Note_off_c, 0, 73, 100
2, 31104, Note_on_c, 0, 87, 80
2, 31104, Note_on_c, 0, 83, 80
2, 31104, Note_on_c, 0, 78, 80
2, 31200, Note_on_c, 0, 75, 80
2, 31484, Note_off_c, 0, 87, 100
2, 31484, Note_off_c, 0, 83, 100
2, 31484, Note_off_c, 0, 78, 100
2, 31484, Note_off_c, 0, 75, 100
2, 31488, Note_on_c, 0, 88, 80
2, 31488, Note_on_c, 0, 83, 80
2, 31488, Note_on_c, 0, 80, 80
2, 31584, Note_on_c, 0, 76, 80
2, 31868, Note_off_c, 0, 88, 100
2, 31868, Note_off_c, 0, 83, 100
2, 31868, Note_off_c, 0, 80, 100
2, 31868, Note_off_c, 0, 76, 100
2, 31872, Note_on_c, 0, 85, 80
2, 31872, Note_on_c, 0, 83, 80
2, 31872, Note_on_c, 0, 76, 80
2, 31968, Note_on_c, 0, 73, 80
2, 32252, Note_off_c, 0, 85, 100
2, 32252, Note_off_c, 0, 83, 100
2, 32252, Note_off_c, 0, 76, 100
2, 32252, Note_off_c, 0, 73, 100
2, 32256, Note_on_c, 0, 87, 80
2, 32256, Note_on_c, 0, 83, 80
2, 32256, Note_on_c, 0, 78, 80
2, 32352, Note_on_c, 0, 75, 80
2, 32636, Note_off_c, 0, 87, 100
2, 32636, Note_off_c, 0, 83, 100
2, 32636, Note_off_c, 0, 78, 100
2, 32636, Note_off_c, 0, 75, 100
2, 32640, Note_on_c, 0, 88, 80
2, 32640, Note_on_c, 0, 83, 80
2, 32640, Note_on_c, 0, 80, 80
2, 32736, Note_on_c, 0, 76, 80
2, 33020, Note_off_c, 0, 88, 100
2, 33020, Note_off_c, 0, 83, 100
2, 33020, Note_off_c, 0, 80, 100
2, 33020, Note_off_c, 0, 76, 100
2, 33024, Note_on_c, 0, 90, 80
2, 33024, Note_on_c, 0, 87, 80
2, 33024, Note_on_c, 0, 83, 80
2, 33120, Note_on_c, 0, 78, 80
2, 33404, Note_off_c, 0, 90, 100
2, 33404, Note_off_c, 0, 87, 100
2, 33404, Note_off_c, 0, 83, 100
2, 33404, Note_off_c, 0, 78, 100
2, 33408, Note_on_c, 0, 87, 80
2, 33408, Note_on_c, 0, 83, 80
2, 33408, Note_on_c, 0, 78, 80
2, 33504, Note_on_c, 0, 75, 80
2, 33788, Note_off_c, 0, 87, 100
2, 33788, Note_off_c, 0, 83, 100
2, 33788, Note_off_c, 0, 78, 100
2, 33788, Note_off_c, 0, 75, 100
2, 33792, Note_on_c, 0, 88, 80
2, 33792, Note_on_c, 0, 83, 80
2, 33792, Note_on_c, 0, 80, 80
2, 33888, Note_on_c, 0, 76, 80
2, 34172, Note_off_c, 0, 88, 100
2, 34172, Note_off_c, 0, 83, 100
2, 34172, Note_off_c, 0, 80, 100
2, 34172, Note_off_c, 0, 76, 100
2, 34176, Note_on_c, 0, 90, 80
2, 34176, Note_on_c, 0, 87, 80
2, 34176, Note_on_c, 0, 83, 80
2, 34272, Note_on_c, 0, 81, 80
2, 34556, Note_off_c, 0, 90, 100
2, 34556, Note_off_c, 0, 87, 100
2, 34556, Note_off_c, 0, 83, 100
2, 34556, Note_off_c, 0, 81, 100
2, 34560, Note_on_c, 0, 92, 80
2, 34560, Note_on_c, 0, 88, 80
2, 34560, Note_on_c, 0, 83, 80
2, 34656, Note_on_c, 0, 80, 80
2, 34940, Note_off_c, 0, 92, 100
2, 34940, Note_off_c, 0, 88, 100
2, 34940, Note_off_c, 0, 83, 100
2, 34940, Note_off_c, 0, 80, 100
2, 34944, Note_on_c, 0, 93, 80
2, 34944, Note_on_c, 0, 90, 80
2, 34944, Note_on_c, 0, 84, 80
2, 35040, Note_on_c, 0, 81, 80
2, 35324, Note_off_c, 0, 93, 100
2, 35324, Note_off_c, 0, 90, 100
2, 35324, Note_off_c, 0, 84, 100
2, 35324, Note_off_c, 0, 81, 100
2, 35328, Note_on_c, 0, 94, 80
2, 35328, Note_on_c, 0, 91, 80
2, 35328, Note_on_c, 0, 88, 80
2, 35424, Note_on_c, 0, 82, 80
2, 35708, Note_off_c, 0, 94, 100
2, 35708, Note_off_c, 0, 91, 100
2, 35708, Note_off_c, 0, 88, 100
2, 35708, Note_off_c, 0, 82, 100
2, 35712, Note_on_c, 0, 95, 80
2, 35712, Note_on_c, 0, 87, 80
2, 35808, Note_on_c, 0, 83, 80
2, 36092, Note_off_c, 0, 95, 100
2, 36092, Note_off_c, 0, 87, 100
2, 36092, Note_off_c, 0, 83, 100
2, 36096, Note_on_c, 0, 95, 82
2, 36096, Note_on_c, 0, 92, 82
2, 36192, Note_on_c, 0, 83, 82
2, 36476, Note_off_c, 0, 95, 100
2, 36476, Note_off_c, 0, 92, 100
2, 36476, Note_off_c, 0, 83, 100
2, 36480, Note_on_c, 0, 95, 84
2, 36480, Note_on_c, 0, 93, 84
2, 36576, Note_on_c, 0, 83, 85
2, 36860, Note_off_c, 0, 95, 100
2, 36860, Note_off_c, 0, 93, 100
2, 36860, Note_off_c, 0, 83, 100
2, 36864, Note_on_c, 0, 95, 87
2, 36864, Note_on_c, 0, 90, 87
2, 36960, Note_on_c, 0, 83, 87
2, 37244, Note_off_c, 0, 95, 100
2, 37244, Note_off_c, 0, 90, 100
2, 37244, Note_off_c, 0, 83, 100
2, 37248, Note_on_c, 0, 95, 89
2, 37248, Note_on_c, 0, 87, 89
2, 37344, Note_on_c, 0, 83, 89
2, 37628, Note_off_c, 0, 95, 100
2, 37628, Note_off_c, 0, 87, 100
2, 37628, Note_off_c, 0, 83, 100
2, 37632, Note_on_c, 0, 95, 91
2, 37632, Note_on_c, 0, 92, 91
2, 37728, Note_on_c, 0, 83, 92
2, 38012, Note_off_c, 0, 95, 100
2, 38012, Note_off_c, 0, 92, 100
2, 38012, Note_off_c, 0, 83, 100
2, 38016, Note_on_c, 0, 95, 94
2, 38016, Note_on_c, 0, 93, 94
2, 38112, Note_on_c, 0, 83, 94
2, 38396, Note_off_c, 0, 95, 100
2, 38396, Note_off_c, 0, 93, 100
2, 38396, Note_off_c, 0, 83, 100
2, 38400, Note_on_c, 0, 95, 96
2, 38400, Note_on_c, 0, 90, 96
2, 38496, Note_on_c, 0, 83, 97
2, 38780, Note_off_c, 0, 95, 100
2, 38780, Note_off_c, 0, 90, 100
2, 38780, Note_off_c, 0, 83, 100
2, 38784, Note_on_c, 0, 95, 98
2, 38784, Note_on_c, 0, 87, 98
2, 38880, Note_on_c, 0, 83, 99
2, 39164, Note_off_c, 0, 95, 100
2, 39164, Note_off_c, 0, 87, 100
2, 39164, Note_off_c, 0, 83, 100
2, 39168, Note_on_c, 0, 95, 101
2, 39168, Note_on_c, 0, 92, 101
2, 39264, Note_on_c, 0, 83, 101
2, 39548, Note_off_c, 0, 95, 100
2, 39548, Note_off_c, 0, 92, 100
2, 39548, Note_off_c, 0, 83, 100
2, 39552, Note_on_c, 0, 95, 103
2, 39552, Note_on_c, 0, 93, 103
2, 39648, Note_on_c, 0, 83, 104
2, 39932, Note_off_c, 0, 95, 100
2, 39932, Note_off_c, 0, 93, 100
2, 39932, Note_off_c, 0, 83, 100
2, 39936, Note_on_c, 0, 95, 105
2, 39936, Note_on_c, 0, 88, 105
2, 40032, Note_on_c, 0, 83, 106
2, 40316, Note_off_c, 0, 95, 100
2, 40316, Note_off_c, 0, 88, 100
2, 40316, Note_off_c, 0, 83, 100
2, 40320, Note_on_c, 0, 95, 108
2, 40320, Note_on_c, 0, 90, 108
2, 40416, Note_on_c, 0, 83, 108
2, 40700, Note_off_c, 0, 95, 100
2, 40700, Note_off_c, 0, 90, 100
2, 40700, Note_off_c, 0, 83, 100
2, 40704, Note_on_c, 0, 92, 110
2, 40800, Note_on_c, 0, 95, 110
2, 41084, Note_off_c, 0, 92, 100
2, 41084, Note_off_c, 0, 95, 100
2, 41088, Note_on_c, 0, 95, 110
2, 41184, Note_on_c, 0, 90, 110
2, 41468, Note_off_c, 0, 95, 100
2, 41468, Note_off_c, 0, 90, 100
2, 41472, Note_on_c, 0, 88, 110
2, 41568, Note_on_c, 0, 92, 110
2, 41852, Note_off_c, 0, 88, 100
2, 41852, Note_off_c, 0, 92, 100
2, 41856, Note_on_c, 0, 92, 110
2, 41952, Note_on_c, 0, 87, 110
2, 42236, Note_off_c, 0, 92, 100
2, 42236, Note_off_c, 0, 87, 100
2, 42240, Note_on_c, 0, 85, 110
2, 42336, Note_on_c, 0, 88, 110
2, 42620, Note_off_c, 0, 85, 100
2, 42620, Note_off_c, 0, 88, 100
2, 42624, Note_on_c, 0, 88, 110
2, 42720, Note_on_c, 0, 83, 110
2, 43004, Note_off_c, 0, 88, 100
2, 43004, Note_off_c, 0, 83, 100
2, 43008, Note_on_c, 0, 90, 110
2, 43008, Note_on_c, 0, 87, 110
2, 43008, Note_on_c, 0, 83, 110
2, 43104, Note_on_c, 0, 81, 110
2, 43388, Note_off_c, 0, 90, 100
2, 43388, Note_off_c, 0, 87, 100
2, 43388, Note_off_c, 0, 83, 100
2, 43388, Note_off_c, 0, 81, 100
2, 43392, Note_on_c, 0, 92, 110
2, 43392, Note_on_c, 0, 88, 110
2, 43392, Note_on_c, 0, 83, 110
2, 43488, Note_on_c, 0, 80, 110
2, 43772, Note_off_c, 0, 92, 100
2, 43772, Note_off_c, 0, 88, 100
2, 43772, Note_off_c, 0, 83, 100
2, 43772, Note_off_c, 0, 80, 100
2, 43968, Note_on_c, 0, 68, 80
2, 44060, Note_off_c, 0, 68, 100
2, 44064, Note_on_c, 0, 71, 80
2, 44156, Note_off_c, 0, 71, 100
2, 44352, Note_on_c, 0, 71, 80
2, 44444, Note_off_c, 0, 71, 100
2, 44448, Note_on_c, 0, 78, 80
2, 44540, Note_off_c, 0, 78, 100
2, 44736, Note_on_c, 0, 78, 80
2, 44736, Note_on_c, 0, 76, 80
2, 44828, Note_off_c, 0, 78, 100
2, 44828, Note_off_c, 0, 76, 100
2, 44832, Note_on_c, 0, 82, 80
2, 44924, Note_off_c, 0, 82, 100
2, 45120, Note_on_c, 0, 82, 80
2, 45212, Note_off_c, 0, 82, 100
2, 45216, Note_on_c, 0, 83, 80
2, 45308, Note_off_c, 0, 83, 100
2, 45312, Note_on_c, 0, 85, 80
2, 45408, Note_on_c, 0, 88, 81
2, 45692, Note_off_c, 0, 85, 100
2, 45692, Note_off_c, 0, 88, 100
2, 45696, Note_on_c, 0, 88, 84
2, 45792, Note_on_c, 0, 83, 85
2, 46076, Note_off_c, 0, 88, 100
2, 46076, Note_off_c, 0, 83, 100
2, 46080, Note_on_c, 0, 87, 89
2, 46080, Note_on_c, 0, 81, 89
2, 46176, Note_on_c, 0, 93, 90
2, 46460, Note_off_c, 0, 87, 100
2, 46460, Note_off_c, 0, 81, 100
2, 46460, Note_off_c, 0, 93, 100
2, 46464, Note_on_c, 0, 83, 94
2, 46464, Note_on_c, 0, 80, 94
2, 46464, Note_on_c, 0, 92, 94
2, 46556, Note_off_c, 0, 92, 100
2, 46560, Note_on_c, 0, 88, 95
2, 46844, Note_off_c, 0, 83, 100
2, 46844, Note_off_c, 0, 80, 100
2, 46844, Note_off_c, 0, 88, 100
2, 46848, Note_on_c, 0, 85, 99
2, 46848, Note_on_c, 0, 81, 99
2, 46848, Note_on_c, 0, 76, 99
2, 46944, Note_on_c, 0, 88, 100
2, 47228, Note_off_c, 0, 85, 100
2, 47228, Note_off_c, 0, 81, 100
2, 47228, Note_off_c, 0, 76, 100
2, 47228, Note_off_c, 0, 88, 100
2, 47232, Note_on_c, 0, 80, 103
2, 47232, Note_on_c, 0, 76, 103
2, 47328, Note_on_c, 0, 88, 105
2, 47612, Note_off_c, 0, 80, 100
2, 47612, Note_off_c, 0, 76, 100
2, 47612, Note_off_c, 0, 88, 100
2, 47616, Note_on_c, 0, 78, 108
2, 47616, Note_on_c, 0, 75, 108
2, 47712, Note_on_c, 0, 87, 109
2, 47996, Note_off_c, 0, 78, 100
2, 47996, Note_off_c, 0, 75, 100
2, 47996, Note_off_c, 0, 87, 100
2, 48000, Note_on_c, 0, 74, 80
2, 48024, Note_on_c, 0, 77, 90
2, 48048, Note_on_c, 0, 80, 100
2, 48072, Note_on_c, 0, 83, 105
2, 48096, Note_on_c, 0, 86, 110
2, 48140, Note_off_c, 0, 74, 100
2, 48140, Note_off_c, 0, 77, 100
2, 48140, Note_off_c, 0, 80, 100
2, 48380, Note_off_c, 0, 83, 100
2, 48572, Note_off_c, 0, 86, 100
2, 48576, Note_on_c, 0, 85, 80
2, 48668, Note_off_c, 0, 85, 100
2, 48672, Note_on_c, 0, 83, 80
2, 48764, Note_off_c, 0, 83, 100
2, 48768, Note_on_c, 0, 81, 80
2, 48768, Note_on_c, 0, 78, 80
2, 48768, Note_on_c, 0, 73, 80
2, 48860, Note_off_c, 0, 81, 100
2, 48860, Note_off_c, 0, 78, 100
2, 48864, Note_on_c, 0, 80, 89
2, 48864, Note_on_c, 0, 77, 89
2, 48956, Note_off_c, 0, 73, 100
2, 48956, Note_off_c, 0, 80, 100
2, 48956, Note_off_c, 0, 77, 100
2, 48960, Note_on_c, 0, 81, 99
2, 48960, Note_on_c, 0, 78, 99
2, 48960, Note_on_c, 0, 73, 99
2, 49052, Note_off_c, 0, 81, 100
2, 49052, Note_off_c, 0, 78, 100
2, 49052, Note_off_c, 0, 73, 100
2, 49056, Note_on_c, 0, 83, 109
2, 49056, Note_on_c, 0, 80, 109
2, 49056, Note_on_c, 0, 77, 109
2, 49056, Note_on_c, 0, 73, 109
2, 49148, Note_off_c, 0, 83, 100
2, 49148, Note_off_c, 0, 80, 100
2, 49148, Note_off_c, 0, 77, 100
2, 49148, Note_off_c, 0, 73, 100
2, 49152, Note_on_c, 0, 84, 110
2, 49340, Note_off_c, 0, 84, 100
2, 49344, Note_on_c, 0, 85, 110
2, 49724, Note_off_c, 0, 85, 100
2, 49728, Note_on_c, 0, 78, 80
2, 49728, Note_on_c, 0, 83, 80
2, 49820, Note_off_c, 0, 83, 100
2, 49824, Note_on_c, 0, 81, 80
2, 49916, Note_off_c, 0, 78, 100
2, 49916, Note_off_c, 0, 81, 100
2, 49920, Note_on_c, 0, 80, 80
2, 49920, Note_on_c, 0, 71, 80
2, 50012, Note_off_c, 0, 80, 100
2, 50012, Note_off_c, 0, 71, 100
2, 50016, Note_on_c, 0, 78, 80
2, 50016, Note_on_c, 0, 71, 80
2, 50016, Note_on_c, 0, 69, 80
2, 50108, Note_off_c, 0, 78, 100
2, 50108, Note_off_c, 0, 71, 100
2, 50108, Note_off_c, 0, 69, 100
2, 50112, Note_on_c, 0, 80, 80
2, 50112, Note_on_c, 0, 71, 80
2, 50112, Note_on_c, 0, 68, 80
2, 50204, Note_off_c, 0, 80, 100
2, 50204, Note_off_c, 0, 71, 100
2, 50204, Note_off_c, 0, 68, 100
2, 50208, Note_on_c, 0, 76, 80
2, 50208, Note_on_c, 0, 69, 80
2, 50208, Note_on_c, 0, 81, 80
2, 50300, Note_off_c, 0, 76, 100
2, 50300, Note_off_c, 0, 69, 100
2, 50300, Note_off_c, 0, 81, 100
2, 50304, Note_on_c, 0, 83, 80
2, 50396, Note_off_c, 0, 83, 100
2, 50400, Note_on_c, 0, 76, 80
2, 50492, Note_off_c, 0, 76, 100
2, 50496, Note_on_c, 0, 83, 80
2, 50588, Note_off_c, 0, 83, 100
2, 50592, Note_on_c, 0, 81, 80
2, 50684, Note_off_c, 0, 81, 100
2, 50688, Note_on_c, 0, 80, 80
2, 51068, Note_off_c, 0, 80, 100
2, 51072, Note_on_c, 0, 78, 80
2, 51088, Note_off_c, 0, 78, 100
2, 51092, Note_on_c, 0, 80, 82
2, 51108, Note_off_c, 0, 80, 100
2, 51112, Note_on_c, 0, 78, 84
2, 51128, Note_off_c, 0, 78, 100
2, 51132, Note_on_c, 0, 77, 86
2, 51148, Note_off_c, 0, 77, 100
2, 51152, Note_on_c, 0, 78, 88
2, 51164, Note_off_c, 0, 78, 100
2, 51168, Note_on_c, 0, 80, 89
2, 51188, Note_off_c, 0, 80, 100
2, 51192, Note_on_c, 0, 81, 92
2, 51212, Note_off_c, 0, 81, 100
2, 51216, Note_on_c, 0, 83, 94
2, 51236, Note_off_c, 0, 83, 100
2, 51240, Note_on_c, 0, 85, 97
2, 51260, Note_off_c, 0, 85, 100
2, 51264, Note_on_c, 0, 86, 99
2, 51264, Note_on_c, 0, 83, 99
2, 51264, Note_on_c, 0, 77, 99
2, 51264, Note_on_c, 0, 74, 99
2, 51452, Note_off_c, 0, 86, 100
2, 51452, Note_off_c, 0, 83, 100
2, 51452, Note_off_c, 0, 77, 100
2, 51452, Note_off_c, 0, 74, 100
2, 51456, Key_signature, 0, "major"
2, 51456, Control_c, 0, 64, 127
2, 51456, Note_on_c, 0, 86, 110
2, 51456, Note_on_c, 0, 83, 110
2, 51456, Note_on_c, 0, 77, 110
2, 51456, Note_on_c, 0, 74, 110
2, 51504, Note_on_c, 0, 83, 110
2, 51536, Note_off_c, 0, 77, 100
2, 51548, Note_off_c, 0, 83, 100
2, 51548, Note_off_c, 0, 74, 100
2, 51552, Note_on_c, 0, 79, 110
2, 51560, Note_off_c, 0, 86, 100
2, 51600, Note_on_c, 0, 77, 110
2, 51604, Note_off_c, 0, 83, 100
2, 51640, Note_off_c, 0, 79, 100
2, 51648, Note_on_c, 0, 74, 110
2, 51692, Note_off_c, 0, 77, 100
2, 51696, Note_on_c, 0, 71, 110
2, 51740, Note_off_c, 0, 74, 100
2, 51744, Note_on_c, 0, 67, 110
2, 51788, Note_off_c, 0, 71, 100
2, 51792, Note_on_c, 0, 65, 110
2, 51832, Note_off_c, 0, 67, 100
2, 51840, Note_on_c, 0, 62, 110
2, 51872, Note_on_c, 0, 59, 110
2, 51876, Note_off_c, 0, 65, 100
2, 51904, Note_on_c, 0, 55, 110
2, 51912, Note_off_c, 0, 62, 100
2, 51928, Note_off_c, 0, 59, 100
2, 51956, Note_off_c, 0, 55, 100
2, 52128, Note_on_c, 0, 55, 110
2, 52152, Note_on_c, 0, 59, 110
2, 52172, Note_off_c, 0, 55, 100
2, 52176, Note_on_c, 0, 62, 110
2, 52188, Note_off_c, 0, 59, 100
2, 52200, Note_on_c, 0, 65, 110
2, 52220, Note_off_c, 0, 62, 100
2, 52244, Note_off_c, 0, 65, 100
2, 52320, Note_on_c, 0, 74, 110
2, 52344, Note_on_c, 0, 77, 110
2, 52360, Note_off_c, 0, 74, 100
2, 52368, Note_on_c, 0, 79, 110
2, 52388, Note_off_c, 0, 77, 100
2, 52392, Note_on_c, 0, 83, 110
2, 52408, Control_c, 0, 64, 0
2, 52412, Note_off_c, 0, 79, 100
2, 52412, Note_off_c, 0, 83, 100
2, 52416, Note_on_c, 0, 86, 100
2, 52416, Note_on_c, 0, 77, 100
2, 52416, Note_on_c, 0, 74, 100
2, 52508, Note_off_c, 0, 86, 100
2, 52508, Note_off_c, 0, 77, 100
2, 52508, Note_off_c, 0, 74, 100
2, 52512, Note_on_c, 0, 84, 91
2, 52512, Note_on_c, 0, 76, 91
2, 52512, Note_on_c, 0, 72, 91
2, 52604, Note_off_c, 0, 84, 100
2, 52604, Note_off_c, 0, 76, 100
2, 52604, Note_off_c, 0, 72, 100
2, 52608, Control_c, 0, 64, 127
2, 52608, Note_on_c, 0, 84, 120
2, 52640, Note_on_c, 0, 79, 120
2, 52664, Note_off_c, 0, 84, 100
2, 52672, Note_on_c, 0, 76, 120
2, 52692, Note_off_c, 0, 79, 100
2, 52704, Note_on_c, 0, 72, 120
2, 52732, Note_off_c, 0, 76, 100
2, 52736, Note_on_c, 0, 67, 120
2, 52760, Note_off_c, 0, 72, 100
2, 52768, Note_on_c, 0, 64, 120
2, 52792, Note_off_c, 0, 67, 100
2, 52800, Note_on_c, 0, 60, 120
2, 52828, Note_off_c, 0, 64, 100
2, 52832, Note_on_c, 0, 55, 120
2, 52860, Note_off_c, 0, 60, 100
2, 52864, Note_on_c, 0, 52, 120
2, 52884, Note_off_c, 0, 55, 100
2, 52896, Note_on_c, 0, 48, 120
2, 52920, Note_off_c, 0, 52, 100
2, 52928, Note_on_c, 0, 43, 120
2, 52948, Note_off_c, 0, 48, 100
2, 52960, Note_on_c, 0, 40, 120
2, 52980, Note_off_c, 0, 43, 100
2, 53016, Note_off_c, 0, 40, 100
2, 53040, Note_on_c, 0, 48, 120
2, 53056, Note_on_c, 0, 52, 120
2, 53068, Note_off_c, 0, 48, 100
2, 53072, Note_on_c, 0, 55, 120
2, 53084, Note_off_c, 0, 52, 100
2, 53100, Note_off_c, 0, 55, 100
2, 53136, Note_on_c, 0, 72, 120
2, 53152, Note_on_c, 0, 76, 120
2, 53164, Note_off_c, 0, 72, 100
2, 53168, Note_on_c, 0, 79, 120
2, 53176, Control_c, 0, 64, 0
2, 53180, Note_off_c, 0, 76, 100
2, 53180, Note_off_c, 0, 79, 100
2, 53184, Note_on_c, 0, 84, 110
2, 53184, Note_on_c, 0, 76, 110
2, 53184, Note_on_c, 0, 72, 110
2, 53276, Note_off_c, 0, 84, 100
2, 53276, Note_off_c, 0, 76, 100
2, 53276, Note_off_c, 0, 72, 100
2, 53280, Note_on_c, 0, 83, 100
2, 53280, Note_on_c, 0, 76, 100
2, 53280, Note_on_c, 0, 71, 100
2, 53372, Note_off_c, 0, 83, 100
2, 53372, Note_off_c, 0, 76, 100
2, 53372, Note_off_c, 0, 71, 100
2, 53376, Note_on_c, 0, 83, 80
2, 53376, Note_on_c, 0, 76, 80
2, 53376, Note_on_c, 0, 71, 80
2, 53564, Note_off_c, 0, 83, 100
2, 53564, Note_off_c, 0, 76, 100
2, 53564, Note_off_c, 0, 71, 100
2, 53568, Note_on_c, 0, 95, 80
2, 53568, Note_on_c, 0, 88, 80
2, 53568, Note_on_c, 0, 83, 80
2, 53760, Key_signature, 4, "major"
2, 53804, Note_off_c, 0, 83, 100
2, 53804, Note_off_c, 0, 88, 100
2, 53804, Note_off_c, 0, 95, 100
2, 53808, Note_on_c, 0, 88, 80
2, 53852, Note_off_c, 0, 88, 100
2, 53856, Note_on_c, 0, 87, 80
2, 53900, Note_off_c, 0, 87, 100
2, 53904, Note_on_c, 0, 88, 80
2, 53948, Note_off_c, 0, 88, 100
2, 53952, Note_on_c, 0, 87, 80
2, 53996, Note_off_c, 0, 87, 100
2, 54000, Note_on_c, 0, 88, 80
2, 54044, Note_off_c, 0, 88, 100
2, 54048, Note_on_c, 0, 95, 80
2, 54092, Note_off_c, 0, 95, 100
2, 54096, Note_on_c, 0, 93, 80
2, 54140, Note_off_c, 0, 93, 100
2, 54144, Note_on_c, 0, 92, 80
2, 54188, Note_off_c, 0, 92, 100
2, 54192, Note_on_c, 0, 87, 80
2, 54236, Note_off_c, 0, 87, 100
2, 54240, Note_on_c, 0, 88, 80
2, 54284, Note_off_c, 0, 88, 100
2, 54288, Note_on_c, 0, 87, 80
2, 54332, Note_off_c, 0, 87, 100
2, 54336, Note_on_c, 0, 88, 80
2, 54364, Note_off_c, 0, 88, 100
2, 54368, Note_on_c, 0, 85, 80
2, 54396, Note_off_c, 0, 85, 100
2, 54400, Note_on_c, 0, 87, 80
2, 54428, Note_off_c, 0, 87, 100
2, 54432, Note_on_c, 0, 83, 80
2, 54460, Note_off_c, 0, 83, 100
2, 54464, Note_on_c, 0, 85, 80
2, 54492, Note_off_c, 0, 85, 100
2, 54496, Note_on_c, 0, 81, 80
2, 54524, Note_off_c, 0, 81, 100
2, 54528, Note_on_c, 0, 83, 80
2, 54556, Note_off_c, 0, 83, 100
2, 54560, Note_on_c, 0, 80, 80
2, 54588, Note_off_c, 0, 80, 100
2, 54592, Note_on_c, 0, 81, 80
2, 54620, Note_off_c, 0, 81, 100
2, 54624, Note_on_c, 0, 78, 80
2, 54652, Note_off_c, 0, 78, 100
2, 54656, Note_on_c, 0, 80, 80
2, 54684, Note_off_c, 0, 80, 100
2, 54688, Note_on_c, 0, 76, 80
2, 54716, Note_off_c, 0, 76, 100
2, 54720, Note_on_c, 0, 78, 80
2, 54748, Note_off_c, 0, 78, 100
2, 54752, Note_on_c, 0, 75, 80
2, 54780, Note_off_c, 0, 75, 100
2, 54784, Note_on_c, 0, 76, 80
2, 54812, Note_off_c, 0, 76, 100
2, 54816, Note_on_c, 0, 73, 80
2, 54844, Note_off_c, 0, 73, 100
2, 54848, Note_on_c, 0, 75, 80
2, 54876, Note_off_c, 0, 75, 100
2, 54880, Note_on_c, 0, 71, 80
2, 54908, Note_off_c, 0, 71, 100
2, 54912, Note_on_c, 0, 73, 80
2, 54940, Note_off_c, 0, 73, 100
2, 54944, Note_on_c, 0, 69, 80
2, 54972, Note_off_c, 0, 69, 100
2, 54976, Note_on_c, 0, 71, 80
2, 55004, Note_off_c, 0, 71, 100
2, 55008, Note_on_c, 0, 68, 80
2, 55036, Note_off_c, 0, 68, 100
2, 55040, Note_on_c, 0, 69, 80
2, 55068, Note_off_c, 0, 69, 100
2, 55072, Note_on_c, 0, 66, 80
2, 55100, Note_off_c, 0, 66, 100
2, 55104, Note_on_c, 0, 68, 80
2, 55132, Note_off_c, 0, 68, 100
2, 55136, Note_on_c, 0, 64, 80
2, 55164, Note_off_c, 0, 64, 100
2, 55168, Note_on_c, 0, 66, 80
2, 55196, Note_off_c, 0, 66, 100
2, 55200, Note_on_c, 0, 63, 80
2, 55228, Note_off_c, 0, 63, 100
2, 55232, Note_on_c, 0, 64, 80
2, 55260, Note_off_c, 0, 64, 100
2, 55264, Note_on_c, 0, 61, 80
2, 55292, Note_off_c, 0, 61, 100
2, 55296, Note_on_c, 0, 63, 80
2, 55324, Note_off_c, 0, 63, 100
2, 55328, Note_on_c, 0, 59, 80
2, 55356, Note_off_c, 0, 59, 100
2, 55360, Note_on_c, 0, 61, 80
2, 55388, Note_off_c, 0, 61, 100
2, 55392, Note_on_c, 0, 57, 80
2, 55420, Note_off_c, 0, 57, 100
2, 55424, Note_on_c, 0, 59, 80
2, 55452, Note_off_c, 0, 59, 100
2, 55456, Note_on_c, 0, 56, 80
2, 55484, Note_off_c, 0, 56, 100
2, 55488, Note_on_c, 0, 57, 80
2, 55516, Note_off_c, 0, 57, 100
2, 55520, Note_on_c, 0, 54, 80
2, 55548, Note_off_c, 0, 54, 100
2, 55552, Note_on_c, 0, 56, 80
2, 55580, Note_off_c, 0, 56, 100
2, 55584, Note_on_c, 0, 52, 80
2, 55612, Note_off_c, 0, 52, 100
2, 55616, Note_on_c, 0, 54, 80
2, 55644, Note_off_c, 0, 54, 100
2, 55648, Note_on_c, 0, 51, 80
2, 55676, Note_off_c, 0, 51, 100
2, 55680, Note_on_c, 0, 52, 80
2, 55708, Note_off_c, 0, 52, 100
2, 55712, Note_on_c, 0, 49, 80
2, 55740, Note_off_c, 0, 49, 100
2, 55744, Note_on_c, 0, 51, 80
2, 55772, Note_off_c, 0, 51, 100
2, 55776, Note_on_c, 0, 47, 80
2, 55804, Note_off_c, 0, 47, 100
2, 55808, Note_on_c, 0, 49, 80
2, 55836, Note_off_c, 0, 49, 100
2, 55840, Note_on_c, 0, 46, 80
2, 55868, Note_off_c, 0, 46, 100
2, 55872, Note_on_c, 0, 47, 80
2, 55900, Note_off_c, 0, 47, 100
2, 55904, Note_on_c, 0, 45, 80
2, 55932, Note_off_c, 0, 45, 100
2, 55936, Note_on_c, 0, 47, 80
2, 55964, Note_off_c, 0, 47, 100
2, 55968, Note_on_c, 0, 44, 80
2, 55996, Note_off_c, 0, 44, 100
2, 56000, Note_on_c, 0, 47, 80
2, 56028, Note_off_c, 0, 47, 100
2, 56032, Note_on_c, 0, 42, 80
2, 56060, Note_off_c, 0, 42, 100
2, 56064, Control_c, 0, 64, 127
2, 56064, Note_on_c, 0, 40, 80
2, 56128, Note_on_c, 0, 47, 80
2, 56192, Note_on_c, 0, 44, 80
2, 56228, Note_off_c, 0, 40, 100
2, 56256, Note_on_c, 0, 52, 80
2, 56300, Note_off_c, 0, 47, 100
2, 56320, Note_on_c, 0, 47, 80
2, 56376, Note_off_c, 0, 44, 100
2, 56384, Note_on_c, 0, 56, 80
2, 56440, Note_off_c, 0, 52, 100
2, 56448, Note_on_c, 0, 52, 80
2, 56492, Note_off_c, 0, 47, 100
2, 56512, Note_on_c, 0, 59, 80
2, 56560, Note_off_c, 0, 56, 100
2, 56576, Note_on_c, 0, 56, 80
2, 56604, Note_off_c, 0, 52, 100
2, 56640, Note_on_c, 0, 64, 80
2, 56668, Note_off_c, 0, 59, 100
2, 56704, Note_on_c, 0, 59, 80
2, 56752, Note_off_c, 0, 56, 100
2, 56768, Note_on_c, 0, 68, 80
2, 56776, Note_off_c, 0, 64, 100
2, 56832, Note_on_c, 0, 64, 80
2, 56860, Note_off_c, 0, 59, 100
2, 56896, Note_on_c, 0, 71, 80
2, 56960, Note_on_c, 0, 68, 80
2, 56972, Note_off_c, 0, 68, 100
2, 56980, Note_off_c, 0, 64, 100
2, 57024, Note_on_c, 0, 76, 80
2, 57064, Note_off_c, 0, 71, 100
2, 57088, Note_on_c, 0, 71, 80
2, 57108, Note_off_c, 0, 68, 100
2, 57152, Note_on_c, 0, 80, 80
2, 57212, Note_off_c, 0, 76, 100
2, 57216, Note_on_c, 0, 78, 80
2, 57264, Note_on_c, 0, 83, 80
2, 57272, Note_off_c, 0, 71, 100
2, 57312, Note_on_c, 0, 80, 80
2, 57328, Note_off_c, 0, 78, 100
2, 57340, Note_off_c, 0, 80, 100
2, 57360, Note_off_c, 0, 83, 100
2, 57360, Note_on_c, 0, 88, 80
2, 57408, Note_on_c, 0, 83, 80
2, 57424, Note_off_c, 0, 80, 100
2, 57484, Note_off_c, 0, 88, 100
2, 57504, Note_on_c, 0, 92, 80
2, 57508, Note_off_c, 0, 83, 100
2, 57696, Note_on_c, 0, 88, 80
2, 57884, Note_off_c, 0, 92, 100
2, 57888, Note_on_c, 0, 83, 80
2, 58076, Note_off_c, 0, 88, 100
2, 58080, Note_on_c, 0, 84, 80
2, 58268, Note_off_c, 0, 83, 100
2, 58360, Control_c, 0, 64, 0
2, 58364, Note_off_c, 0, 84, 100
2, 58368, Note_on_c, 0, 85, 80
2, 58464, Note_on_c, 0, 88, 80
2, 58748, Note_off_c, 0, 85, 100
2, 58748, Note_off_c, 0, 88, 100
2, 58752, Note_on_c, 0, 88, 80
2, 58848, Note_on_c, 0, 83, 80
2, 59132, Note_off_c, 0, 88, 100
2, 59132, Note_off_c, 0, 83, 100
2, 59136, Note_on_c, 0, 81, 80
2, 59232, Note_on_c, 0, 83, 80
2, 59516, Note_off_c, 0, 81, 100
2, 59516, Note_off_c, 0, 83, 100
2, 59520, Note_on_c, 0, 83, 80
2, 59616, Note_on_c, 0, 80, 80
2, 59900, Note_off_c, 0, 83, 100
2, 59900, Note_off_c, 0, 80, 100
2, 60096, Note_on_c, 0, 85, 80
2, 60188, Note_off_c, 0, 85, 100
2, 60192, Note_on_c, 0, 88, 80
2, 60284, Note_off_c, 0, 88, 100
2, 60480, Note_on_c, 0, 88, 80
2, 60572, Note_off_c, 0, 88, 100
2, 60576, Note_on_c, 0, 83, 80
2, 60668, Note_off_c, 0, 83, 100
2, 60864, Note_on_c, 0, 83, 80
2, 60956, Note_off_c, 0, 83, 100
2, 60960, Note_on_c, 0, 87, 80
2, 60960, Note_on_c, 0, 90, 80
2, 61052, Note_off_c, 0, 87, 100
2, 61052, Note_off_c, 0, 90, 100
2, 61248, Note_on_c, 0, 92, 80
2, 61248, Note_on_c, 0, 88, 80
2, 61340, Note_off_c, 0, 92, 100
2, 61340, Note_off_c, 0, 88, 100
2, 61344, Note_on_c, 0, 83, 80
2, 61436, Note_off_c, 0, 83, 100
2, 61440, Note_on_c, 0, 78, 80
2, 61536, Note_on_c, 0, 83, 80
2, 61820, Note_off_c, 0, 78, 100
2, 61820, Note_off_c, 0, 83, 100
2, 61824, Note_on_c, 0, 80, 80
2, 61920, Note_on_c, 0, 83, 80
2, 62204, Note_off_c, 0, 80, 100
2, 62204, Note_off_c, 0, 83, 100
2, 62208, Note_on_c, 0, 81, 80
2, 62304, Note_on_c, 0, 83, 80
2, 62588, Note_off_c, 0, 81, 100
2, 62588, Note_off_c, 0, 83, 100
2, 62592, Note_on_c, 0, 83, 80
2, 62688, Note_on_c, 0, 88, 80
2, 62972, Note_off_c, 0, 83, 100
2, 62972, Note_off_c, 0, 88, 100
2, 63168, Note_on_c, 0, 83, 80
2, 63260, Note_off_c, 0, 83, 100
2, 63264, Note_on_c, 0, 78, 80
2, 63356, Note_off_c, 0, 78, 100
2, 63552, Note_on_c, 0, 83, 80
2, 63644, Note_off_c, 0, 83, 100
2, 63648, Note_on_c, 0, 80, 80
2, 63740, Note_off_c, 0, 80, 100
2, 63936, Note_on_c, 0, 83, 80
2, 64028, Note_off_c, 0, 83, 100
2, 64032, Note_on_c, 0, 81, 80
2, 64124, Note_off_c, 0, 81, 100
2, 64320, Note_on_c, 0, 83, 80
2, 64412, Note_off_c, 0, 83, 100
2, 64416, Note_on_c, 0, 80, 80
2, 64508, Note_off_c, 0, 80, 100
2, 64512, Note_on_c, 0, 75, 80
2, 64512, Note_on_c, 0, 71, 80
2, 64512, Note_on_c, 0, 78, 80
2, 64604, Note_off_c, 0, 78, 100
2, 64608, Note_on_c, 0, 83, 82
2, 64892, Note_off_c, 0, 75, 100
2, 64892, Note_off_c, 0, 71, 100
2, 64892, Note_off_c, 0, 83, 100
2, 64896, Note_on_c, 0, 76, 91
2, 64896, Note_on_c, 0, 71, 91
2, 64896, Note_on_c, 0, 80, 91
2, 64988, Note_off_c, 0, 80, 100
2, 64992, Note_on_c, 0, 83, 94
2, 65276, Note_off_c, 0, 76, 100
2, 65276, Note_off_c, 0, 71, 100
2, 65276, Note_off_c, 0, 83, 100
2, 65280, Note_on_c, 0, 78, 102
2, 65280, Note_on_c, 0, 71, 102
2, 65280, Note_on_c, 0, 81, 102
2, 65372, Note_off_c, 0, 81, 100
2, 65376, Note_on_c, 0, 83, 105
2, 65660, Note_off_c, 0, 78, 100
2, 65660, Note_off_c, 0, 71, 100
2, 65660, Note_off_c, 0, 83, 100
2, 66048, Note_on_c, 0, 66, 80
2, 66048, Note_on_c, 0, 63, 80
2, 66048, Note_on_c, 0, 59, 80
2, 66428, Note_off_c, 0, 66, 100
2, 66428, Note_off_c, 0, 63, 100
2, 66428, Note_off_c, 0, 59, 100
2, 66816, Note_on_c, 0, 68, 80
2, 66816, Note_on_c, 0, 64, 80
2, 66816, Note_on_c, 0, 59, 80
2, 67196, Note_off_c, 0, 68, 100
2, 67196, Note_off_c, 0, 64, 100
2, 67196, Note_off_c, 0, 59, 100
2, 67584, Note_on_c, 0, 69, 80
2, 67584, Note_on_c, 0, 66, 80
2, 67584, Note_on_c, 0, 63, 80
2, 67584, Note_on_c, 0, 60, 80
2, 67964, Note_off_c, 0, 69, 100
2, 67964, Note_off_c, 0, 66, 100
2, 67964, Note_off_c, 0, 63, 100
2, 67964, Note_off_c, 0, 60, 100
2, 67968, Note_on_c, 0, 68, 80
2, 67968, Note_on_c, 0, 64, 80
2, 67968, Note_on_c, 0, 61, 80
2, 68348, Note_off_c, 0, 68, 100
2, 68348, Note_off_c, 0, 64, 100
2, 68348, Note_off_c, 0, 61, 100
2, 68352, Note_on_c, 0, 73, 80
2, 68352, Note_on_c, 0, 61, 80
2, 68352, Note_on_c, 0, 65, 80
2, 68732, Note_off_c, 0, 65, 100
2, 68736, Note_on_c, 0, 66, 80
2, 69116, Note_off_c, 0, 61, 100
2, 69116, Note_off_c, 0, 73, 100
2, 69116, Note_off_c, 0, 66, 100
2, 69120, Note_on_c, 0, 71, 80
2, 69120, Note_on_c, 0, 68, 80
2, 69120, Note_on_c, 0, 65, 80
2, 69120, Note_on_c, 0, 62, 80
2, 69120, Note_on_c, 0, 59, 80
2, 69500, Note_off_c, 0, 71, 100
2, 69500, Note_off_c, 0, 68, 100
2, 69500, Note_off_c, 0, 65, 100
2, 69500, Note_off_c, 0, 62, 100
2, 69500, Note_off_c, 0, 59, 100
2, 69504, Note_on_c, 0, 69, 80
2, 69504, Note_on_c, 0, 66, 80
2, 69504, Note_on_c, 0, 61, 80
2, 69504, Note_on_c, 0, 57, 80
2, 69884, Note_off_c, 0, 69, 100
2, 69884, Note_off_c, 0, 66, 100
2, 69884, Note_off_c, 0, 61, 100
2, 69884, Note_off_c, 0, 57, 100
2, 69888, Note_on_c, 0, 68, 80
2, 69888, Note_on_c, 0, 65, 80
2, 69888, Note_on_c, 0, 62, 80
2, 69888, Note_on_c, 0, 59, 80
2, 69888, Note_on_c, 0, 56, 80
2, 70268, Note_off_c, 0, 68, 100
2, 70268, Note_off_c, 0, 65, 100
2, 70268, Note_off_c, 0, 62, 100
2, 70268, Note_off_c, 0, 59, 100
2, 70268, Note_off_c, 0, 56, 100
2, 70272, Note_on_c, 0, 69, 80
2, 70272, Note_on_c, 0, 66, 80
2, 70272, Note_on_c, 0, 61, 80
2, 70272, Note_on_c, 0, 57, 80
2, 70652, Note_off_c, 0, 69, 100
2, 70652, Note_off_c, 0, 66, 100
2, 70652, Note_off_c, 0, 61, 100
2, 70652, Note_off_c, 0, 57, 100
2, 70656, Note_on_c, 0, 61, 80
2, 70656, Note_on_c, 0, 54, 80
2, 71036, Note_off_c, 0, 61, 100
2, 71036, Note_off_c, 0, 54, 100
2, 71040, Note_on_c, 0, 64, 80
2, 71040, Note_on_c, 0, 59, 80
2, 71040, Note_on_c, 0, 56, 80
2, 71040, Note_on_c, 0, 52, 80
2, 71420, Note_off_c, 0, 64, 100
2, 71420, Note_off_c, 0, 59, 100
2, 71420, Note_off_c, 0, 56, 100
2, 71420, Note_off_c, 0, 52, 100
2, 71424, Note_on_c, 0, 63, 80
2, 71424, Note_on_c, 0, 57, 80
2, 71424, Note_on_c, 0, 54, 80
2, 71804, Note_off_c, 0, 63, 100
2, 71804, Note_off_c, 0, 57, 100
2, 71804, Note_off_c, 0, 54, 100
2, 71808, Note_on_c, 0, 64, 80
2, 71808, Note_on_c, 0, 59, 80
2, 71808, Note_on_c, 0, 56, 80
2, 72188, Note_off_c, 0, 64, 100
2, 72188, Note_off_c, 0, 59, 100
2, 72188, Note_off_c, 0, 56, 100
2, 72192, Note_on_c, 0, 66, 80
2, 72192, Note_on_c, 0, 63, 80
2, 72192, Note_on_c, 0, 60, 80
2, 72192, Note_on_c, 0, 54, 80
2, 72572, Note_off_c, 0, 66, 100
2, 72572, Note_off_c, 0, 63, 100
2, 72572, Note_off_c, 0, 60, 100
2, 72572, Note_off_c, 0, 54, 100
2, 72576, Note_on_c, 0, 68, 80
2, 72576, Note_on_c, 0, 64, 80
2, 72576, Note_on_c, 0, 59, 80
2, 72956, Note_off_c, 0, 68, 100
2, 72956, Note_off_c, 0, 64, 100
2, 72956, Note_off_c, 0, 59, 100
2, 72960, Note_on_c, 0, 73, 80
2, 72960, Note_on_c, 0, 64, 80
2, 72960, Note_on_c, 0, 58, 80
2, 73340, Note_off_c, 0, 64, 100
2, 73340, Note_off_c, 0, 58, 100
2, 73344, Note_on_c, 0, 66, 80
2, 73344, Note_on_c, 0, 63, 80
2, 73724, Note_off_c, 0, 73, 100
2, 73728, Note_on_c, 0, 71, 80
2, 74108, Note_off_c, 0, 66, 100
2, 74108, Note_off_c, 0, 63, 100
2, 74108, Note_off_c, 0, 71, 100
2, 74112, Note_on_c, 0, 68, 80
2, 74208, Note_on_c, 0, 59, 80
2, 74492, Note_off_c, 0, 68, 100
2, 74492, Note_off_c, 0, 59, 100
2, 74496, Note_on_c, 0, 57, 80
2, 74592, Note_on_c, 0, 69, 80
2, 74876, Note_off_c, 0, 57, 100
2, 74876, Note_off_c, 0, 69, 100
2, 74880, Note_on_c, 0, 66, 85
2, 74976, Note_on_c, 0, 60, 86
2, 74976, Note_on_c, 0, 57, 86
2, 75260, Note_off_c, 0, 66, 100
2, 75260, Note_off_c, 0, 60, 100
2, 75260, Note_off_c, 0, 57, 100
2, 75264, Note_on_c, 0, 56, 92
2, 75264, Note_on_c, 0, 59, 92
2, 75356, Note_off_c, 0, 59, 100
2, 75360, Note_on_c, 0, 64, 93
2, 75644, Note_off_c, 0, 56, 100
2, 75644, Note_off_c, 0, 64, 100
2, 75648, Note_on_c, 0, 63, 98
2, 75744, Note_on_c, 0, 57, 100
2, 75744, Note_on_c, 0, 54, 100
2, 76028, Note_off_c, 0, 63, 100
2, 76028, Note_off_c, 0, 57, 100
2, 76028, Note_off_c, 0, 54, 100
2, 76032, Note_on_c, 0, 52, 105
2, 76032, Note_on_c, 0, 56, 105
2, 76124, Note_off_c, 0, 56, 100
2, 76128, Note_on_c, 0, 64, 107
2, 76412, Note_off_c, 0, 52, 100
2, 76412, Note_off_c, 0, 64, 100
2, 76416, Note_on_c, 0, 60, 100
2, 76416, Note_on_c, 0, 57, 100
2, 76508, Note_off_c, 0, 57, 100
2, 76512, Note_on_c, 0, 52, 99
2, 76796, Note_off_c, 0, 60, 100
2, 76796, Note_off_c, 0, 52, 100
2, 76800, Note_on_c, 0, 59, 95
2, 76800, Note_on_c, 0, 57, 95
2, 76892, Note_off_c, 0, 57, 100
2, 76896, Note_on_c, 0, 54, 94
2, 77180, Note_off_c, 0, 59, 100
2, 77180, Note_off_c, 0, 54, 100
2, 77184, Note_on_c, 0, 61, 90
2, 77280, Note_on_c, 0, 56, 89
2, 77564, Note_off_c, 0, 61, 100
2, 77564, Note_off_c, 0, 56, 100
2, 77568, Note_on_c, 0, 59, 85
2, 77664, Note_on_c, 0, 56, 83
2, 77948, Note_off_c, 0, 59, 100
2, 77948, Note_off_c, 0, 56, 100
2, 77952, Note_on_c, 0, 60, 70
2, 77952, Note_on_c, 0, 57, 70
2, 78044, Note_off_c, 0, 57, 100
2, 78048, Note_on_c, 0, 54, 70
2, 78332, Note_off_c, 0, 60, 100
2, 78332, Note_off_c, 0, 54, 100
2, 78336, Note_on_c, 0, 59, 70
2, 78336, Note_on_c, 0, 57, 70
2, 78428, Note_off_c, 0, 57, 100
2, 78432, Note_on_c, 0, 54, 70
2, 78716, Note_off_c, 0, 59, 100
2, 78716, Note_off_c, 0, 54, 100
2, 78720, Note_on_c, 0, 61, 70
2, 78816, Note_on_c, 0, 56, 71
2, 79100, Note_off_c, 0, 61, 100
2, 79100, Note_off_c, 0, 56, 100
2, 79104, Note_on_c, 0, 59, 74
2, 79200, Note_on_c, 0, 56, 75
2, 79484, Note_off_c, 0, 59, 100
2, 79484, Note_off_c, 0, 56, 100
2, 79488, Note_on_c, 0, 69, 78
2, 79584, Note_on_c, 0, 59, 79
2, 79868, Note_off_c, 0, 69, 100
2, 79868, Note_off_c, 0, 59, 100
2, 79872, Note_on_c, 0, 68, 82
2, 79968, Note_on_c, 0, 59, 83
2, 80252, Note_off_c, 0, 68, 100
2, 80252, Note_off_c, 0, 59, 100
2, 80256, Note_on_c, 0, 73, 86
2, 80352, Note_on_c, 0, 68, 87
2, 80636, Note_off_c, 0, 73, 100
2, 80636, Note_off_c, 0, 68, 100
2, 80640, Note_on_c, 0, 71, 91
2, 80736, Note_on_c, 0, 68, 92
2, 81020, Note_off_c, 0, 71, 100
2, 81020, Note_off_c, 0, 68, 100
2, 81024, Note_on_c, 0, 81, 95
2, 81120, Note_on_c, 0, 71, 96
2, 81404, Note_off_c, 0, 81, 100
2, 81404, Note_off_c, 0, 71, 100
2, 81408, Note_on_c, 0, 80, 99
2, 81504, Note_on_c, 0, 71, 100
2, 81788, Note_off_c, 0, 80, 100
2, 81788, Note_off_c, 0, 71, 100
2, 81792, Note_on_c, 0, 85, 103
2, 81888, Note_on_c, 0, 80, 104
2, 82172, Note_off_c, 0, 85, 100
2, 82172, Note_off_c, 0, 80, 100
2, 82176, Note_on_c, 0, 83, 107
2, 82272, Note_on_c, 0, 80, 108
2, 82556, Note_off_c, 0, 83, 100
2, 82556, Note_off_c, 0, 80, 100
2, 82560, Note_on_c, 0, 85, 121
2, 82656, Note_on_c, 0, 80, 111
2, 82940, Note_off_c, 0, 85, 100
2, 82940, Note_off_c, 0, 80, 100
2, 82944, Note_on_c, 0, 83, 80
2, 83040, Note_on_c, 0, 80, 80
2, 83324, Note_off_c, 0, 83, 100
2, 83324, Note_off_c, 0, 80, 100
2, 83712, Note_on_c, 0, 59, 80
2, 83712, Note_on_c, 0, 56, 80
2, 83712, Note_on_c, 0, 52, 80
2, 84860, Note_off_c, 0, 52, 100
2, 84860, Note_off_c, 0, 56, 100
2, 84860, Note_off_c, 0, 59, 100
2, 85248, Control_c, 0, 7, 0
2, 85632, Note_on_c, 0, 64, 1
2, 86012, Note_off_c, 0, 64, 100
2, 86012, End_track
3, 0, Start_track
3, 0, Title_t, "Left"
3, 0, Control_c, 1, 0, 0
3, 0, Program_c, 1, 0
3, 0, Control_c, 1, 7, 100
3, 0, Control_c, 1, 10, 59
3, 0, Control_c, 1, 91, 127
3, 0, Key_signature, 4, "major"
3, 192, Note_on_c, 1, 52, 80
3, 284, Note_off_c, 1, 52, 100
3, 288, Note_on_c, 1, 59, 80
3, 380, Note_off_c, 1, 59, 100
3, 576, Note_on_c, 1, 63, 80
3, 668, Note_off_c, 1, 63, 100
3, 672, Note_on_c, 1, 51, 80
3, 764, Note_off_c, 1, 51, 100
3, 960, Note_on_c, 1, 49, 80
3, 1052, Note_off_c, 1, 49, 100
3, 1056, Note_on_c, 1, 56, 80
3, 1148, Note_off_c, 1, 56, 100
3, 1344, Note_on_c, 1, 59, 80
3, 1436, Note_off_c, 1, 59, 100
3, 1440, Note_on_c, 1, 47, 80
3, 1532, Note_off_c, 1, 47, 100
3, 1728, Note_on_c, 1, 45, 80
3, 1820, Note_off_c, 1, 45, 100
3, 1824, Note_on_c, 1, 52, 80
3, 1916, Note_off_c, 1, 52, 100
3, 2112, Note_on_c, 1, 56, 80
3, 2204, Note_off_c, 1, 56, 100
3, 2208, Note_on_c, 1, 44, 80
3, 2300, Note_off_c, 1, 44, 100
3, 2496, Note_on_c, 1, 35, 80
3, 2588, Note_off_c, 1, 35, 100
3, 2592, Note_on_c, 1, 47, 80
3, 2684, Note_off_c, 1, 47, 100
3, 2880, Note_on_c, 1, 52, 80
3, 2972, Note_off_c, 1, 52, 100
3, 2976, Note_on_c, 1, 40, 80
3, 3068, Note_off_c, 1, 40, 100
3, 3264, Note_on_c, 1, 52, 81
3, 3356, Note_off_c, 1, 52, 100
3, 3360, Note_on_c, 1, 59, 82
3, 3452, Note_off_c, 1, 59, 100
3, 3648, Note_on_c, 1, 63, 85
3, 3740, Note_off_c, 1, 63, 100
3, 3744, Note_on_c, 1, 51, 85
3, 3836, Note_off_c, 1, 51, 100
3, 4032, Note_on_c, 1, 49, 88
3, 4124, Note_off_c, 1, 49, 100
3, 4128, Note_on_c, 1, 54, 89
3, 4220, Note_off_c, 1, 54, 100
3, 4416, Note_on_c, 1, 59, 91
3, 4508, Note_off_c, 1, 59, 100
3, 4512, Note_on_c, 1, 47, 92
3, 4604, Note_off_c, 1, 47, 100
3, 4800, Note_on_c, 1, 54, 95
3, 4892, Note_off_c, 1, 54, 100
3, 4896, Note_on_c, 1, 66, 96
3, 4988, Note_off_c, 1, 66, 100
3, 5184, Note_on_c, 1, 68, 98
3, 5276, Note_off_c, 1, 68, 100
3, 5280, Note_on_c, 1, 56, 99
3, 5372, Note_off_c, 1, 56, 100
3, 5568, Note_on_c, 1, 52, 102
3, 5660, Note_off_c, 1, 52, 100
3, 5664, Note_on_c, 1, 64, 103
3, 5756, Note_off_c, 1, 64, 100
3, 5952, Note_on_c, 1, 66, 105
3, 6044, Note_off_c, 1, 66, 100
3, 6048, Note_on_c, 1, 54, 106
3, 6140, Note_off_c, 1, 54, 100
3, 6336, Note_on_c, 1, 42, 109
3, 6428, Note_off_c, 1, 42, 100
3, 6432, Note_on_c, 1, 54, 109
3, 6524, Note_off_c, 1, 54, 100
3, 6720, Note_on_c, 1, 63, 110
3, 6720, Note_on_c, 1, 60, 110
3, 6720, Note_on_c, 1, 57, 110
3, 6720, Note_on_c, 1, 54, 110
3, 6812, Note_off_c, 1, 63, 100
3, 6816, Note_on_c, 1, 64, 110
3, 6908, Note_off_c, 1, 60, 100
3, 6908, Note_off_c, 1, 57, 100
3, 6908, Note_off_c, 1, 54, 100
3, 6908, Note_off_c, 1, 64, 100
3, 6912, Note_on_c, 1, 66, 110
3, 7004, Note_off_c, 1, 66, 100
3, 7008, Note_on_c, 1, 68, 110
3, 7100, Note_off_c, 1, 68, 100
3, 7104, Note_on_c, 1, 69, 80
3, 7104, Note_on_c, 1, 63, 80
3, 7104, Note_on_c, 1, 60, 80
3, 7292, Note_off_c, 1, 69, 100
3, 7292, Note_off_c, 1, 63, 100
3, 7292, Note_off_c, 1, 60, 100
3, 7296, Note_on_c, 1, 68, 80
3, 7296, Note_on_c, 1, 64, 80
3, 7296, Note_on_c, 1, 61, 80
3, 7388, Note_off_c, 1, 68, 100
3, 7388, Note_off_c, 1, 64, 100
3, 7388, Note_off_c, 1, 61, 100
3, 7392, Note_on_c, 1, 69, 89
3, 7392, Note_on_c, 1, 66, 89
3, 7484, Note_off_c, 1, 69, 100
3, 7484, Note_off_c, 1, 66, 100
3, 7488, Note_on_c, 1, 68, 99
3, 7488, Note_on_c, 1, 64, 99
3, 7580, Note_off_c, 1, 68, 100
3, 7580, Note_off_c, 1, 64, 100
3, 7584, Note_on_c, 1, 66, 109
3, 7584, Note_on_c, 1, 63, 109
3, 7676, Note_off_c, 1, 66, 100
3, 7676, Note_off_c, 1, 63, 100
3, 7776, Note_on_c, 1, 52, 110
3, 7868, Note_off_c, 1, 52, 100
3, 7872, Note_on_c, 1, 61, 110
3, 7872, Note_on_c, 1, 52, 110
3, 7872, Note_on_c, 1, 49, 110
3, 7964, Note_off_c, 1, 61, 100
3, 7968, Note_on_c, 1, 63, 110
3, 8060, Note_off_c, 1, 52, 100
3, 8060, Note_off_c, 1, 49, 100
3, 8060, Note_off_c, 1, 63, 100
3, 8064, Note_on_c, 1, 64, 110
3, 8156, Note_off_c, 1, 64, 100
3, 8160, Note_on_c, 1, 66, 110
3, 8252, Note_off_c, 1, 66, 100
3, 8256, Note_on_c, 1, 67, 80
3, 8256, Note_on_c, 1, 58, 80
3, 8444, Note_off_c, 1, 67, 100
3, 8444, Note_off_c, 1, 58, 100
3, 8448, Note_on_c, 1, 63, 80
3, 8448, Note_on_c, 1, 59, 80
3, 8540, Note_off_c, 1, 63, 100
3, 8540, Note_off_c, 1, 59, 100
3, 8544, Note_on_c, 1, 61, 86
3, 8544, Note_on_c, 1, 58, 86
3, 8636, Note_off_c, 1, 61, 100
3, 8636, Note_off_c, 1, 58, 100
3, 8640, Note_on_c, 1, 59, 93
3, 8732, Note_off_c, 1, 59, 100
3, 8736, Note_on_c, 1, 59, 99
3, 8736, Note_on_c, 1, 56, 99
3, 8828, Note_off_c, 1, 59, 100
3, 8828, Note_off_c, 1, 56, 100
3, 8832, Note_on_c, 1, 59, 80
3, 8832, Note_on_c, 1, 51, 80
3, 9020, Note_off_c, 1, 59, 100
3, 9020, Note_off_c, 1, 51, 100
3, 9024, Note_on_c, 1, 59, 80
3, 9024, Note_on_c, 1, 56, 80
3, 9212, Note_off_c, 1, 59, 100
3, 9212, Note_off_c, 1, 56, 100
3, 9216, Note_on_c, 1, 59, 80
3, 9216, Note_on_c, 1, 54, 80
3, 9404, Note_off_c, 1, 59, 100
3, 9404, Note_off_c, 1, 54, 100
3, 9408, Note_on_c, 1, 63, 80
3, 9408, Note_on_c, 1, 59, 80
3, 9408, Note_on_c, 1, 54, 80
3, 9596, Note_off_c, 1, 63, 100
3, 9596, Note_off_c, 1, 59, 100
3, 9596, Note_off_c, 1, 54, 100
3, 9600, Note_on_c, 1, 61, 80
3, 9600, Note_on_c, 1, 58, 80
3, 9600, Note_on_c, 1, 54, 80
3, 9788, Note_off_c, 1, 61, 100
3, 9788, Note_off_c, 1, 58, 100
3, 9788, Note_off_c, 1, 54, 100
3, 9792, Note_on_c, 1, 63, 96
3, 9792, Note_on_c, 1, 60, 96
3, 9792, Note_on_c, 1, 57, 96
3, 9792, Note_on_c, 1, 54, 96
3, 9980, Note_off_c, 1, 63, 100
3, 9980, Note_off_c, 1, 60, 100
3, 9980, Note_off_c, 1, 57, 100
3, 9980, Note_off_c, 1, 54, 100
3, 9984, Control_c, 1, 64, 127
3, 9984, Note_on_c, 1, 42, 110
3, 9984, Note_on_c, 1, 30, 110
3, 10936, Control_c, 1, 64, 0
3, 10940, Note_off_c, 1, 30, 100
3, 10940, Note_off_c, 1, 42, 100
3, 10944, Note_on_c, 1, 41, 80
3, 10944, Note_on_c, 1, 29, 80
3, 11036, Note_off_c, 1, 41, 100
3, 11036, Note_off_c, 1, 29, 100
3, 11040, Note_on_c, 1, 39, 80
3, 11040, Note_on_c, 1, 27, 80
3, 11132, Note_off_c, 1, 39, 100
3, 11132, Note_off_c, 1, 27, 100
3, 11136, Control_c, 1, 64, 127
3, 11136, Note_on_c, 1, 39, 110
3, 11136, Note_on_c, 1, 27, 110
3, 11520, Note_on_c, 1, 39, 110
3, 11544, Note_on_c, 1, 43, 110
3, 11564, Note_off_c, 1, 39, 100
3, 11568, Note_on_c, 1, 46, 110
3, 11588, Note_off_c, 1, 43, 100
3, 11592, Note_on_c, 1, 51, 110
3, 11612, Note_off_c, 1, 46, 100
3, 11684, Note_off_c, 1, 51, 100
3, 11712, Note_on_c, 1, 55, 107
3, 11736, Note_on_c, 1, 58, 105
3, 11760, Note_on_c, 1, 63, 103
3, 11764, Note_off_c, 1, 55, 100
3, 11784, Note_on_c, 1, 67, 101
3, 11796, Note_off_c, 1, 58, 100
3, 11820, Note_off_c, 1, 63, 100
3, 11840, Note_off_c, 1, 67, 100
3, 11900, Note_off_c, 1, 27, 100
3, 11900, Note_off_c, 1, 39, 100
3, 11904, Note_on_c, 1, 63, 91
3, 11928, Note_on_c, 1, 67, 89
3, 11952, Note_on_c, 1, 70, 87
3, 11956, Note_off_c, 1, 63, 100
3, 11976, Note_on_c, 1, 75, 85
3, 11980, Note_off_c, 1, 67, 100
3, 11996, Note_off_c, 1, 70, 100
3, 12028, Note_off_c, 1, 75, 100
3, 12088, Control_c, 1, 64, 0
3, 12096, Note_on_c, 1, 51, 80
3, 12096, Note_on_c, 1, 45, 80
3, 12096, Note_on_c, 1, 39, 80
3, 12284, Note_off_c, 1, 51, 100
3, 12284, Note_off_c, 1, 45, 100
3, 12284, Note_off_c, 1, 39, 100
3, 12288, Note_on_c, 1, 54, 80
3, 12288, Note_on_c, 1, 51, 80
3, 12288, Note_on_c, 1, 39, 80
3, 12380, Note_off_c, 1, 54, 100
3, 12380, Note_off_c, 1, 51, 100
3, 12380, Note_off_c, 1, 39, 100
3, 12384, Note_on_c, 1, 59, 80
3, 12384, Note_on_c, 1, 51, 80
3, 12476, Note_off_c, 1, 59, 100
3, 12476, Note_off_c, 1, 51, 100
3, 12576, Note_on_c, 1, 59, 80
3, 12576, Note_on_c, 1, 56, 80
3, 12576, Note_on_c, 1, 64, 80
3, 12668, Note_off_c, 1, 59, 100
3, 12668, Note_off_c, 1, 56, 100
3, 12668, Note_off_c, 1, 64, 100
3, 12768, Note_on_c, 1, 54, 80
3, 12768, Note_on_c, 1, 59, 80
3, 12768, Note_on_c, 1, 63, 80
3, 12860, Note_off_c, 1, 54, 100
3, 12860, Note_off_c, 1, 59, 100
3, 12860, Note_off_c, 1, 63, 100
3, 12864, Note_on_c, 1, 87, 80
3, 12892, Note_off_c, 1, 87, 100
3, 12896, Note_on_c, 1, 85, 80
3, 12924, Note_off_c, 1, 85, 100
3, 12928, Note_on_c, 1, 82, 80
3, 12956, Note_off_c, 1, 82, 100
3, 12960, Note_on_c, 1, 85, 80
3, 12988, Note_off_c, 1, 85, 100
3, 12992, Note_on_c, 1, 83, 80
3, 13020, Note_off_c, 1, 83, 100
3, 13024, Note_on_c, 1, 80, 80
3, 13052, Note_off_c, 1, 80, 100
3, 13056, Note_on_c, 1, 83, 80
3, 13084, Note_off_c, 1, 83, 100
3, 13088, Note_on_c, 1, 81, 80
3, 13116, Note_off_c, 1, 81, 100
3, 13120, Note_on_c, 1, 78, 81
3, 13148, Note_off_c, 1, 78, 100
3, 13152, Note_on_c, 1, 82, 82
3, 13180, Note_off_c, 1, 82, 100
3, 13184, Note_on_c, 1, 80, 83
3, 13212, Note_off_c, 1, 80, 100
3, 13216, Note_on_c, 1, 76, 84
3, 13244, Note_off_c, 1, 76, 100
3, 13248, Note_on_c, 1, 80, 85
3, 13276, Note_off_c, 1, 80, 100
3, 13280, Note_on_c, 1, 78, 85
3, 13308, Note_off_c, 1, 78, 100
3, 13312, Note_on_c, 1, 75, 86
3, 13340, Note_off_c, 1, 75, 100
3, 13344, Note_on_c, 1, 78, 87
3, 13372, Note_off_c, 1, 78, 100
3, 13376, Note_on_c, 1, 76, 88
3, 13404, Note_off_c, 1, 76, 100
3, 13408, Note_on_c, 1, 73, 89
3, 13436, Note_off_c, 1, 73, 100
3, 13440, Note_on_c, 1, 75, 90
3, 13440, Note_on_c, 1, 71, 90
3, 13532, Note_off_c, 1, 75, 100
3, 13532, Note_off_c, 1, 71, 100
3, 13536, Note_on_c, 1, 54, 92
3, 13628, Note_off_c, 1, 54, 100
3, 13632, Note_on_c, 1, 56, 95
3, 13724, Note_off_c, 1, 56, 100
3, 13728, Note_on_c, 1, 58, 97
3, 13820, Note_off_c, 1, 58, 100
3, 13824, Note_on_c, 1, 59, 100
3, 13916, Note_off_c, 1, 59, 100
3, 14016, Note_on_c, 1, 35, 105
3, 14108, Note_off_c, 1, 35, 100
3, 15360, Note_on_c, 1, 63, 80
3, 15456, Note_on_c, 1, 66, 80
3, 15740, Note_off_c, 1, 63, 100
3, 15740, Note_off_c, 1, 66, 100
3, 15744, Note_on_c, 1, 66, 80
3, 15840, Note_on_c, 1, 61, 80
3, 16124, Note_off_c, 1, 66, 100
3, 16124, Note_off_c, 1, 61, 100
3, 16128, Note_on_c, 1, 64, 80
3, 16224, Note_on_c, 1, 68, 80
3, 16508, Note_off_c, 1, 64, 100
3, 16508, Note_off_c, 1, 68, 100
3, 16512, Note_on_c, 1, 68, 80
3, 16608, Note_on_c, 1, 63, 80
3, 16892, Note_off_c, 1, 68, 100
3, 16892, Note_off_c, 1, 63, 100
3, 16896, Note_on_c, 1, 66, 80
3, 16992, Note_on_c, 1, 69, 80
3, 17276, Note_off_c, 1, 66, 100
3, 17276, Note_off_c, 1, 69, 100
3, 17280, Note_on_c, 1, 64, 80
3, 17376, Note_on_c, 1, 68, 80
3, 17660, Note_off_c, 1, 64, 100
3, 17660, Note_off_c, 1, 68, 100
3, 17664, Note_on_c, 1, 63, 80
3, 17664, Note_on_c, 1, 66, 80
3, 17756, Note_off_c, 1, 66, 100
3, 17760, Note_on_c, 1, 68, 80
3, 18044, Note_off_c, 1, 63, 100
3, 18044, Note_off_c, 1, 68, 100
3, 18048, Note_on_c, 1, 61, 80
3, 18048, Note_on_c, 1, 64, 80
3, 18140, Note_off_c, 1, 64, 100
3, 18144, Note_on_c, 1, 68, 80
3, 18428, Note_off_c, 1, 61, 100
3, 18428, Note_off_c, 1, 68, 100
3, 18432, Note_on_c, 1, 60, 80
3, 18432, Note_on_c, 1, 63, 80
3, 18524, Note_off_c, 1, 63, 100
3, 18528, Note_on_c, 1, 68, 80
3, 18812, Note_off_c, 1, 60, 100
3, 18812, Note_off_c, 1, 68, 100
3, 18816, Note_on_c, 1, 61, 80
3, 18816, Note_on_c, 1, 64, 80
3, 18908, Note_off_c, 1, 64, 100
3, 18912, Note_on_c, 1, 68, 80
3, 19196, Note_off_c, 1, 61, 100
3, 19196, Note_off_c, 1, 68, 100
3, 19200, Note_on_c, 1, 57, 80
3, 19200, Note_on_c, 1, 61, 80
3, 19292, Note_off_c, 1, 61, 100
3, 19296, Note_on_c, 1, 66, 80
3, 19580, Note_off_c, 1, 57, 100
3, 19580, Note_off_c, 1, 66, 100
3, 19584, Note_on_c, 1, 56, 80
3, 19584, Note_on_c, 1, 63, 80
3, 19676, Note_off_c, 1, 63, 100
3, 19680, Note_on_c, 1, 68, 80
3, 19964, Note_off_c, 1, 56, 100
3, 19964, Note_off_c, 1, 68, 100
3, 20160, Note_on_c, 1, 55, 81
3, 20252, Note_off_c, 1, 55, 100
3, 20256, Note_on_c, 1, 58, 82
3, 20348, Note_off_c, 1, 58, 100
3, 20544, Note_on_c, 1, 56, 84
3, 20636, Note_off_c, 1, 56, 100
3, 20640, Note_on_c, 1, 59, 85
3, 20732, Note_off_c, 1, 59, 100
3, 20928, Note_on_c, 1, 46, 87
3, 21020, Note_off_c, 1, 46, 100
3, 21024, Note_on_c, 1, 49, 88
3, 21116, Note_off_c, 1, 49, 100
3, 21312, Note_on_c, 1, 47, 90
3, 21404, Note_off_c, 1, 47, 100
3, 21408, Note_on_c, 1, 51, 91
3, 21500, Note_off_c, 1, 51, 100
3, 21696, Note_on_c, 1, 49, 93
3, 21788, Note_off_c, 1, 49, 100
3, 21792, Note_on_c, 1, 52, 94
3, 21884, Note_off_c, 1, 52, 100
3, 22080, Note_on_c, 1, 50, 96
3, 22172, Note_off_c, 1, 50, 100
3, 22176, Note_on_c, 1, 53, 97
3, 22268, Note_off_c, 1, 53, 100
3, 22464, Note_on_c, 1, 38, 99
3, 22556, Note_off_c, 1, 38, 100
3, 22560, Note_on_c, 1, 50, 99
3, 22652, Note_off_c, 1, 50, 100
3, 22848, Note_on_c, 1, 39, 80
3, 22940, Note_off_c, 1, 39, 100
3, 22944, Note_on_c, 1, 51, 80
3, 23036, Note_off_c, 1, 51, 100
3, 23232, Note_on_c, 1, 39, 80
3, 23324, Note_off_c, 1, 39, 100
3, 23328, Note_on_c, 1, 51, 80
3, 23420, Note_off_c, 1, 51, 100
3, 23616, Note_on_c, 1, 44, 80
3, 23708, Note_off_c, 1, 44, 100
3, 23712, Note_on_c, 1, 51, 80
3, 23804, Note_off_c, 1, 51, 100
3, 24000, Note_on_c, 1, 39, 80
3, 24092, Note_off_c, 1, 39, 100
3, 24096, Note_on_c, 1, 51, 80
3, 24188, Note_off_c, 1, 51, 100
3, 24384, Note_on_c, 1, 32, 80
3, 24476, Note_off_c, 1, 32, 100
3, 24480, Note_on_c, 1, 44, 81
3, 24572, Note_off_c, 1, 44, 100
3, 24768, Note_on_c, 1, 39, 82
3, 24860, Note_off_c, 1, 39, 100
3, 24864, Note_on_c, 1, 51, 82
3, 24956, Note_off_c, 1, 51, 100
3, 25152, Note_on_c, 1, 44, 83
3, 25244, Note_off_c, 1, 44, 100
3, 25248, Note_on_c, 1, 56, 84
3, 25340, Note_off_c, 1, 56, 100
3, 25536, Note_on_c, 1, 42, 85
3, 25628, Note_off_c, 1, 42, 100
3, 25632, Note_on_c, 1, 54, 85
3, 25724, Note_off_c, 1, 54, 100
3, 25920, Note_on_c, 1, 35, 86
3, 26012, Note_off_c, 1, 35, 100
3, 26016, Note_on_c, 1, 47, 87
3, 26108, Note_off_c, 1, 47, 100
3, 26304, Note_on_c, 1, 42, 88
3, 26396, Note_off_c, 1, 42, 100
3, 26400, Note_on_c, 1, 54, 88
3, 26492, Note_off_c, 1, 54, 100
3, 26688, Note_on_c, 1, 47, 89
3, 26780, Note_off_c, 1, 47, 100
3, 26784, Note_on_c, 1, 59, 90
3, 26876, Note_off_c, 1, 59, 100
3, 27072, Note_on_c, 1, 46, 91
3, 27164, Note_off_c, 1, 46, 100
3, 27168, Note_on_c, 1, 58, 91
3, 27260, Note_off_c, 1, 58, 100
3, 27456, Note_on_c, 1, 39, 93
3, 27548, Note_off_c, 1, 39, 100
3, 27552, Note_on_c, 1, 51, 93
3, 27644, Note_off_c, 1, 51, 100
3, 27840, Note_on_c, 1, 46, 94
3, 27932, Note_off_c, 1, 46, 100
3, 27936, Note_on_c, 1, 58, 94
3, 28028, Note_off_c, 1, 58, 100
3, 28224, Note_on_c, 1, 51, 96
3, 28316, Note_off_c, 1, 51, 100
3, 28320, Note_on_c, 1, 63, 96
3, 28412, Note_off_c, 1, 63, 100
3, 28608, Note_on_c, 1, 49, 97
3, 28700, Note_off_c, 1, 49, 100
3, 28704, Note_on_c, 1, 61, 98
3, 28796, Note_off_c, 1, 61, 100
3, 28992, Note_on_c, 1, 42, 99
3, 29084, Note_off_c, 1, 42, 100
3, 29088, Note_on_c, 1, 54, 99
3, 29180, Note_off_c, 1, 54, 100
3, 29376, Note_on_c, 1, 66, 80
3, 29468, Note_off_c, 1, 66, 100
3, 29472, Note_on_c, 1, 54, 80
3, 29564, Note_off_c, 1, 54, 100
3, 29760, Note_on_c, 1, 42, 80
3, 29852, Note_off_c, 1, 42, 100
3, 29856, Note_on_c, 1, 54, 80
3, 29948, Note_off_c, 1, 54, 100
3, 30144, Note_on_c, 1, 66, 80
3, 30236, Note_off_c, 1, 66, 100
3, 30240, Note_on_c, 1, 54, 80
3, 30332, Note_off_c, 1, 54, 100
3, 30528, Note_on_c, 1, 42, 80
3, 30620, Note_off_c, 1, 42, 100
3, 30624, Note_on_c, 1, 54, 80
3, 30716, Note_off_c, 1, 54, 100
3, 30912, Note_on_c, 1, 66, 80
3, 31004, Note_off_c, 1, 66, 100
3, 31008, Note_on_c, 1, 54, 80
3, 31100, Note_off_c, 1, 54, 100
3, 31296, Note_on_c, 1, 35, 80
3, 31388, Note_off_c, 1, 35, 100
3, 31392, Note_on_c, 1, 47, 80
3, 31484, Note_off_c, 1, 47, 100
3, 31680, Note_on_c, 1, 59, 80
3, 31772, Note_off_c, 1, 59, 100
3, 31776, Note_on_c, 1, 47, 80
3, 31868, Note_off_c, 1, 47, 100
3, 32064, Note_on_c, 1, 35, 80
3, 32156, Note_off_c, 1, 35, 100
3, 32160, Note_on_c, 1, 47, 80
3, 32252, Note_off_c, 1, 47, 100
3, 32448, Note_on_c, 1, 59, 80
3, 32540, Note_off_c, 1, 59, 100
3, 32544, Note_on_c, 1, 47, 80
3, 32636, Note_off_c, 1, 47, 100
3, 32832, Note_on_c, 1, 35, 80
3, 32924, Note_off_c, 1, 35, 100
3, 32928, Note_on_c, 1, 47, 80
3, 33020, Note_off_c, 1, 47, 100
3, 33216, Note_on_c, 1, 59, 80
3, 33308, Note_off_c, 1, 59, 100
3, 33312, Note_on_c, 1, 47, 80
3, 33404, Note_off_c, 1, 47, 100
3, 33600, Note_on_c, 1, 45, 80
3, 33692, Note_off_c, 1, 45, 100
3, 33696, Note_on_c, 1, 57, 80
3, 33788, Note_off_c, 1, 57, 100
3, 33984, Note_on_c, 1, 56, 80
3, 34076, Note_off_c, 1, 56, 100
3, 34080, Note_on_c, 1, 44, 80
3, 34172, Note_off_c, 1, 44, 100
3, 34368, Note_on_c, 1, 42, 80
3, 34460, Note_off_c, 1, 42, 100
3, 34464, Note_on_c, 1, 54, 80
3, 34556, Note_off_c, 1, 54, 100
3, 34752, Note_on_c, 1, 52, 80
3, 34844, Note_off_c, 1, 52, 100
3, 34848, Note_on_c, 1, 40, 80
3, 34940, Note_off_c, 1, 40, 100
3, 35136, Note_on_c, 1, 39, 80
3, 35228, Note_off_c, 1, 39, 100
3, 35232, Note_on_c, 1, 51, 80
3, 35324, Note_off_c, 1, 51, 100
3, 35520, Note_on_c, 1, 49, 80
3, 35612, Note_off_c, 1, 49, 100
3, 35616, Note_on_c, 1, 37, 80
3, 35708, Note_off_c, 1, 37, 100
3, 35904, Note_on_c, 1, 35, 81
3, 35996, Note_off_c, 1, 35, 100
3, 36000, Note_on_c, 1, 47, 81
3, 36092, Note_off_c, 1, 47, 100
3, 36288, Note_on_c, 1, 53, 83
3, 36380, Note_off_c, 1, 53, 100
3, 36384, Note_on_c, 1, 41, 84
3, 36476, Note_off_c, 1, 41, 100
3, 36672, Note_on_c, 1, 42, 85
3, 36764, Note_off_c, 1, 42, 100
3, 36768, Note_on_c, 1, 54, 86
3, 36860, Note_off_c, 1, 54, 100
3, 37056, Note_on_c, 1, 51, 88
3, 37148, Note_off_c, 1, 51, 100
3, 37152, Note_on_c, 1, 39, 88
3, 37244, Note_off_c, 1, 39, 100
3, 37440, Note_on_c, 1, 35, 90
3, 37532, Note_off_c, 1, 35, 100
3, 37536, Note_on_c, 1, 47, 91
3, 37628, Note_off_c, 1, 47, 100
3, 37824, Note_on_c, 1, 53, 92
3, 37916, Note_off_c, 1, 53, 100
3, 37920, Note_on_c, 1, 41, 93
3, 38012, Note_off_c, 1, 41, 100
3, 38208, Note_on_c, 1, 42, 95
3, 38300, Note_off_c, 1, 42, 100
3, 38304, Note_on_c, 1, 54, 95
3, 38396, Note_off_c, 1, 54, 100
3, 38592, Note_on_c, 1, 51, 97
3, 38684, Note_off_c, 1, 51, 100
3, 38688, Note_on_c, 1, 39, 98
3, 38780, Note_off_c, 1, 39, 100
3, 38976, Note_on_c, 1, 35, 99
3, 39068, Note_off_c, 1, 35, 100
3, 39072, Note_on_c, 1, 47, 100
3, 39164, Note_off_c, 1, 47, 100
3, 39360, Note_on_c, 1, 53, 102
3, 39452, Note_off_c, 1, 53, 100
3, 39456, Note_on_c, 1, 41, 102
3, 39548, Note_off_c, 1, 41, 100
3, 39744, Note_on_c, 1, 42, 104
3, 39836, Note_off_c, 1, 42, 100
3, 39840, Note_on_c, 1, 54, 105
3, 39932, Note_off_c, 1, 54, 100
3, 40128, Note_on_c, 1, 49, 107
3, 40220, Note_off_c, 1, 49, 100
3, 40224, Note_on_c, 1, 37, 107
3, 40316, Note_off_c, 1, 37, 100
3, 40512, Note_on_c, 1, 39, 109
3, 40604, Note_off_c, 1, 39, 100
3, 40608, Note_on_c, 1, 51, 109
3, 40700, Note_off_c, 1, 51, 100
3, 40896, Note_on_c, 1, 40, 110
3, 40988, Note_off_c, 1, 40, 100
3, 40992, Note_on_c, 1, 52, 110
3, 41276, Note_off_c, 1, 52, 100
3, 41280, Note_on_c, 1, 39, 110
3, 41372, Note_off_c, 1, 39, 100
3, 41376, Note_on_c, 1, 51, 110
3, 41660, Note_off_c, 1, 51, 100
3, 41664, Note_on_c, 1, 37, 110
3, 41756, Note_off_c, 1, 37, 100
3, 41760, Note_on_c, 1, 49, 110
3, 42044, Note_off_c, 1, 49, 100
3, 42048, Note_on_c, 1, 35, 110
3, 42140, Note_off_c, 1, 35, 100
3, 42144, Note_on_c, 1, 47, 110
3, 42428, Note_off_c, 1, 47, 100
3, 42432, Note_on_c, 1, 33, 110
3, 42524, Note_off_c, 1, 33, 100
3, 42528, Note_on_c, 1, 45, 110
3, 42812, Note_off_c, 1, 45, 100
3, 42816, Note_on_c, 1, 32, 110
3, 42908, Note_off_c, 1, 32, 100
3, 42912, Note_on_c, 1, 44, 110
3, 43196, Note_off_c, 1, 44, 100
3, 43200, Note_on_c, 1, 30, 110
3, 43292, Note_off_c, 1, 30, 100
3, 43296, Note_on_c, 1, 42, 110
3, 43580, Note_off_c, 1, 42, 100
3, 43584, Note_on_c, 1, 28, 110
3, 43676, Note_off_c, 1, 28, 100
3, 43680, Note_on_c, 1, 40, 110
3, 43772, Note_off_c, 1, 40, 100
3, 43776, Note_on_c, 1, 52, 80
3, 43776, Note_on_c, 1, 56, 80
3, 43868, Note_off_c, 1, 56, 100
3, 43872, Note_on_c, 1, 59, 80
3, 44156, Note_off_c, 1, 52, 100
3, 44156, Note_off_c, 1, 59, 100
3, 44160, Note_on_c, 1, 51, 80
3, 44160, Note_on_c, 1, 59, 80
3, 44252, Note_off_c, 1, 59, 100
3, 44256, Note_on_c, 1, 54, 80
3, 44540, Note_off_c, 1, 51, 100
3, 44540, Note_off_c, 1, 54, 100
3, 44544, Note_on_c, 1, 49, 80
3, 44544, Note_on_c, 1, 58, 80
3, 44636, Note_off_c, 1, 58, 100
3, 44640, Note_on_c, 1, 64, 80
3, 44924, Note_off_c, 1, 49, 100
3, 44924, Note_off_c, 1, 64, 100
3, 44928, Note_on_c, 1, 63, 80
3, 45020, Note_off_c, 1, 63, 100
3, 45024, Note_on_c, 1, 59, 80
3, 45500, Note_off_c, 1, 59, 100
3, 45504, Note_on_c, 1, 45, 82
3, 45596, Note_off_c, 1, 45, 100
3, 45600, Note_on_c, 1, 57, 83
3, 45884, Note_off_c, 1, 57, 100
3, 45888, Note_on_c, 1, 44, 87
3, 45980, Note_off_c, 1, 44, 100
3, 45984, Note_on_c, 1, 56, 88
3, 46268, Note_off_c, 1, 56, 100
3, 46272, Note_on_c, 1, 42, 91
3, 46364, Note_off_c, 1, 42, 100
3, 46368, Note_on_c, 1, 54, 93
3, 46652, Note_off_c, 1, 54, 100
3, 46656, Note_on_c, 1, 40, 96
3, 46748, Note_off_c, 1, 40, 100
3, 46752, Note_on_c, 1, 52, 97
3, 46844, Note_off_c, 1, 52, 100
3, 47040, Note_on_c, 1, 57, 101
3, 47132, Note_off_c, 1, 57, 100
3, 47136, Note_on_c, 1, 45, 102
3, 47228, Note_off_c, 1, 45, 100
3, 47424, Note_on_c, 1, 47, 106
3, 47516, Note_off_c, 1, 47, 100
3, 47520, Note_on_c, 1, 59, 107
3, 47612, Note_off_c, 1, 59, 100
3, 47808, Note_on_c, 1, 47, 80
3, 47900, Note_off_c, 1, 47, 100
3, 47904, Note_on_c, 1, 35, 80
3, 47996, Note_off_c, 1, 35, 100
3, 48192, Note_on_c, 1, 65, 110
3, 48192, Note_on_c, 1, 62, 110
3, 48192, Note_on_c, 1, 59, 110
3, 48192, Note_on_c, 1, 68, 110
3, 48284, Note_off_c, 1, 68, 100
3, 48288, Note_on_c, 1, 69, 106
3, 48380, Note_off_c, 1, 65, 100
3, 48380, Note_off_c, 1, 62, 100
3, 48380, Note_off_c, 1, 59, 100
3, 48380, Note_off_c, 1, 69, 100
3, 48384, Note_on_c, 1, 71, 101
3, 48476, Note_off_c, 1, 71, 100
3, 48480, Note_on_c, 1, 73, 96
3, 48572, Note_off_c, 1, 73, 100
3, 48576, Note_on_c, 1, 74, 80
3, 48576, Note_on_c, 1, 68, 80
3, 48576, Note_on_c, 1, 65, 80
3, 48764, Note_off_c, 1, 74, 100
3, 48764, Note_off_c, 1, 68, 100
3, 48764, Note_off_c, 1, 65, 100
3, 48768, Note_on_c, 1, 69, 80
3, 48768, Note_on_c, 1, 66, 80
3, 48860, Note_off_c, 1, 69, 100
3, 48860, Note_off_c, 1, 66, 100
3, 48864, Note_on_c, 1, 71, 89
3, 48864, Note_on_c, 1, 68, 89
3, 48956, Note_off_c, 1, 71, 100
3, 48956, Note_off_c, 1, 68, 100
3, 48960, Note_on_c, 1, 69, 99
3, 48960, Note_on_c, 1, 66, 99
3, 49052, Note_off_c, 1, 69, 100
3, 49052, Note_off_c, 1, 66, 100
3, 49056, Note_on_c, 1, 68, 109
3, 49056, Note_on_c, 1, 65, 109
3, 49056, Note_on_c, 1, 61, 109
3, 49148, Note_off_c, 1, 68, 100
3, 49148, Note_off_c, 1, 65, 100
3, 49148, Note_off_c, 1, 61, 100
3, 49344, Note_on_c, 1, 66, 103
3, 49344, Note_on_c, 1, 61, 103
3, 49344, Note_on_c, 1, 57, 103
3, 49388, Note_off_c, 1, 66, 100
3, 49392, Note_on_c, 1, 65, 101
3, 49436, Note_off_c, 1, 65, 100
3, 49440, Note_on_c, 1, 66, 99
3, 49484, Note_off_c, 1, 66, 100
3, 49488, Note_on_c, 1, 68, 97
3, 49532, Note_off_c, 1, 61, 100
3, 49532, Note_off_c, 1, 57, 100
3, 49532, Note_off_c, 1, 68, 100
3, 49536, Note_on_c, 1, 69, 95
3, 49580, Note_off_c, 1, 69, 100
3, 49584, Note_on_c, 1, 68, 93
3, 49628, Note_off_c, 1, 68, 100
3, 49632, Note_on_c, 1, 69, 91
3, 49676, Note_off_c, 1, 69, 100
3, 49680, Note_on_c, 1, 71, 80
3, 49724, Note_off_c, 1, 71, 100
3, 49728, Note_on_c, 1, 72, 80
3, 49728, Note_on_c, 1, 66, 80
3, 49728, Note_on_c, 1, 63, 80
3, 49916, Note_off_c, 1, 72, 100
3, 49916, Note_off_c, 1, 66, 100
3, 49916, Note_off_c, 1, 63, 100
3, 49920, Note_on_c, 1, 68, 80
3, 49920, Note_on_c, 1, 64, 80
3, 50012, Note_off_c, 1, 68, 100
3, 50012, Note_off_c, 1, 64, 100
3, 50016, Note_on_c, 1, 66, 80
3, 50016, Note_on_c, 1, 63, 80
3, 50108, Note_off_c, 1, 66, 100
3, 50108, Note_off_c, 1, 63, 100
3, 50112, Note_on_c, 1, 64, 80
3, 50204, Note_off_c, 1, 64, 100
3, 50208, Note_on_c, 1, 64, 80
3, 50208, Note_on_c, 1, 61, 80
3, 50300, Note_off_c, 1, 64, 100
3, 50300, Note_off_c, 1, 61, 100
3, 50304, Note_on_c, 1, 64, 80
3, 50304, Note_on_c, 1, 56, 80
3, 50492, Note_off_c, 1, 64, 100
3, 50492, Note_off_c, 1, 56, 100
3, 50496, Note_on_c, 1, 69, 80
3, 50496, Note_on_c, 1, 64, 80
3, 50496, Note_on_c, 1, 61, 80
3, 50684, Note_off_c, 1, 69, 100
3, 50684, Note_off_c, 1, 64, 100
3, 50684, Note_off_c, 1, 61, 100
3, 50688, Note_on_c, 1, 68, 80
3, 50688, Note_on_c, 1, 64, 80
3, 50688, Note_on_c, 1, 59, 80
3, 50876, Note_off_c, 1, 68, 100
3, 50876, Note_off_c, 1, 64, 100
3, 50876, Note_off_c, 1, 59, 100
3, 50880, Note_on_c, 1, 70, 80
3, 50880, Note_on_c, 1, 64, 80
3, 50880, Note_on_c, 1, 59, 80
3, 51068, Note_off_c, 1, 70, 100
3, 51068, Note_off_c, 1, 64, 100
3, 51068, Note_off_c, 1, 59, 100
3, 51072, Note_on_c, 1, 71, 80
3, 51072, Note_on_c, 1, 63, 80
3, 51072, Note_on_c, 1, 59, 80
3, 51164, Note_off_c, 1, 71, 100
3, 51164, Note_off_c, 1, 63, 100
3, 51164, Note_off_c, 1, 59, 100
3, 51168, Note_on_c, 1, 68, 89
3, 51168, Note_on_c, 1, 65, 89
3, 51168, Note_on_c, 1, 62, 89
3, 51168, Note_on_c, 1, 59, 89
3, 51260, Note_off_c, 1, 68, 100
3, 51260, Note_off_c, 1, 65, 100
3, 51260, Note_off_c, 1, 62, 100
3, 51260, Note_off_c, 1, 59, 100
3, 51264, Note_on_c, 1, 44, 99
3, 51264, Note_on_c, 1, 32, 99
3, 51452, Note_off_c, 1, 44, 100
3, 51452, Note_off_c, 1, 32, 100
3, 51456, Key_signature, 0, "major"
3, 51456, Control_c, 1, 64, 127
3, 51456, Note_on_c, 1, 43, 110
3, 51456, Note_on_c, 1, 42, 110
3, 51456, Note_on_c, 1, 39, 110
3, 51456, Note_on_c, 1, 31, 110
3, 51836, Note_off_c, 1, 43, 100
3, 51836, Note_off_c, 1, 42, 100
3, 51836, Note_off_c, 1, 39, 100
3, 51836, Note_off_c, 1, 31, 100
3, 51936, Note_on_c, 1, 53, 110
3, 51968, Note_on_c, 1, 50, 110
3, 51984, Note_off_c, 1, 53, 100
3, 52000, Note_on_c, 1, 47, 110
3, 52028, Note_off_c, 1, 50, 100
3, 52032, Note_on_c, 1, 43, 110
3, 52044, Note_off_c, 1, 47, 100
3, 52056, Note_on_c, 1, 47, 110
3, 52072, Note_off_c, 1, 43, 100
3, 52080, Note_on_c, 1, 50, 110
3, 52096, Note_off_c, 1, 47, 100
3, 52104, Note_on_c, 1, 53, 110
3, 52120, Note_off_c, 1, 50, 100
3, 52148, Note_off_c, 1, 53, 100
3, 52224, Note_on_c, 1, 67, 110
3, 52248, Note_on_c, 1, 71, 110
3, 52268, Note_off_c, 1, 67, 100
3, 52272, Note_on_c, 1, 74, 110
3, 52288, Note_off_c, 1, 71, 100
3, 52296, Note_on_c, 1, 77, 110
3, 52320, Note_off_c, 1, 74, 100
3, 52340, Note_off_c, 1, 77, 100
3, 52408, Control_c, 1, 64, 0
3, 52416, Note_on_c, 1, 43, 100
3, 52416, Note_on_c, 1, 31, 100
3, 52508, Note_off_c, 1, 43, 100
3, 52508, Note_off_c, 1, 31, 100
3, 52512, Note_on_c, 1, 48, 91
3, 52512, Note_on_c, 1, 36, 91
3, 52604, Note_off_c, 1, 48, 100
3, 52604, Note_off_c, 1, 36, 100
3, 52608, Control_c, 1, 64, 127
3, 52608, Note_on_c, 1, 48, 120
3, 52608, Note_on_c, 1, 43, 120
3, 52608, Note_on_c, 1, 40, 120
3, 52608, Note_on_c, 1, 36, 120
3, 52988, Note_off_c, 1, 48, 100
3, 52988, Note_off_c, 1, 43, 100
3, 52988, Note_off_c, 1, 40, 100
3, 52988, Note_off_c, 1, 36, 100
3, 52992, Note_on_c, 1, 36, 120
3, 53008, Note_on_c, 1, 40, 120
3, 53020, Note_off_c, 1, 36, 100
3, 53024, Note_on_c, 1, 43, 120
3, 53036, Note_off_c, 1, 40, 100
3, 53052, Note_off_c, 1, 43, 100
3, 53088, Note_on_c, 1, 60, 120
3, 53104, Note_on_c, 1, 64, 120
3, 53116, Note_off_c, 1, 60, 100
3, 53120, Note_on_c, 1, 67, 120
3, 53132, Note_off_c, 1, 64, 100
3, 53148, Note_off_c, 1, 67, 100
3, 53176, Control_c, 1, 64, 0
3, 53184, Note_on_c, 1, 43, 110
3, 53184, Note_on_c, 1, 31, 110
3, 53276, Note_off_c, 1, 43, 100
3, 53276, Note_off_c, 1, 31, 100
3, 53280, Note_on_c, 1, 44, 100
3, 53280, Note_on_c, 1, 32, 100
3, 53372, Note_off_c, 1, 44, 100
3, 53372, Note_off_c, 1, 32, 100
3, 53376, Note_on_c, 1, 44, 80
3, 53376, Note_on_c, 1, 40, 80
3, 53376, Note_on_c, 1, 32, 80
3, 53564, Note_off_c, 1, 44, 100
3, 53564, Note_off_c, 1, 40, 100
3, 53564, Note_off_c, 1, 32, 100
3, 53568, Note_on_c, 1, 44, 80
3, 53568, Note_on_c, 1, 40, 80
3, 53568, Note_on_c, 1, 32, 80
3, 53760, Key_signature, 4, "major"
3, 53852, Note_off_c, 1, 32, 100
3, 53852, Note_off_c, 1, 40, 100
3, 53852, Note_off_c, 1, 44, 100
3, 53856, Note_on_c, 1, 52, 80
3, 53856, Note_on_c, 1, 47, 80
3, 53856, Note_on_c, 1, 44, 80
3, 54044, Note_off_c, 1, 52, 100
3, 54044, Note_off_c, 1, 47, 100
3, 54044, Note_off_c, 1, 44, 100
3, 54048, Note_on_c, 1, 57, 80
3, 54048, Note_on_c, 1, 52, 80
3, 54048, Note_on_c, 1, 49, 80
3, 54140, Note_off_c, 1, 57, 100
3, 54140, Note_off_c, 1, 52, 100
3, 54140, Note_off_c, 1, 49, 100
3, 54240, Note_on_c, 1, 56, 80
3, 54240, Note_on_c, 1, 52, 80
3, 54240, Note_on_c, 1, 47, 80
3, 54332, Note_off_c, 1, 56, 100
3, 54332, Note_off_c, 1, 52, 100
3, 54332, Note_off_c, 1, 47, 100
3, 54336, Note_on_c, 1, 80, 80
3, 54364, Note_off_c, 1, 80, 100
3, 54368, Note_on_c, 1, 76, 80
3, 54396, Note_off_c, 1, 76, 100
3, 54400, Note_on_c, 1, 78, 80
3, 54428, Note_off_c, 1, 78, 100
3, 54432, Note_on_c, 1, 75, 80
3, 54460, Note_off_c, 1, 75, 100
3, 54464, Note_on_c, 1, 76, 80
3, 54492, Note_off_c, 1, 76, 100
3, 54496, Note_on_c, 1, 73, 80
3, 54524, Note_off_c, 1, 73, 100
3, 54528, Note_on_c, 1, 75, 80
3, 54556, Note_off_c, 1, 75, 100
3, 54560, Note_on_c, 1, 71, 80
3, 54588, Note_off_c, 1, 71, 100
3, 54592, Note_on_c, 1, 73, 80
3, 54620, Note_off_c, 1, 73, 100
3, 54624, Note_on_c, 1, 69, 80
3, 54652, Note_off_c, 1, 69, 100
3, 54656, Note_on_c, 1, 71, 80
3, 54684, Note_off_c, 1, 71, 100
3, 54688, Note_on_c, 1, 68, 80
3, 54716, Note_off_c, 1, 68, 100
3, 54720, Note_on_c, 1, 69, 80
3, 54748, Note_off_c, 1, 69, 100
3, 54752, Note_on_c, 1, 66, 80
3, 54780, Note_off_c, 1, 66, 100
3, 54784, Note_on_c, 1, 68, 80
3, 54812, Note_off_c, 1, 68, 100
3, 54816, Note_on_c, 1, 64, 80
3, 54844, Note_off_c, 1, 64, 100
3, 54848, Note_on_c, 1, 66, 80
3, 54876, Note_off_c, 1, 66, 100
3, 54880, Note_on_c, 1, 63, 80
3, 54908, Note_off_c, 1, 63, 100
3, 54912, Note_on_c, 1, 64, 80
3, 54940, Note_off_c, 1, 64, 100
3, 54944, Note_on_c, 1, 61, 80
3, 54972, Note_off_c, 1, 61, 100
3, 54976, Note_on_c, 1, 63, 80
3, 55004, Note_off_c, 1, 63, 100
3, 55008, Note_on_c, 1, 59, 80
3, 55036, Note_off_c, 1, 59, 100
3, 55040, Note_on_c, 1, 61, 80
3, 55068, Note_off_c, 1, 61, 100
3, 55072, Note_on_c, 1, 57, 80
3, 55100, Note_off_c, 1, 57, 100
3, 55104, Note_on_c, 1, 59, 80
3, 55132, Note_off_c, 1, 59, 100
3, 55136, Note_on_c, 1, 56, 80
3, 55164, Note_off_c, 1, 56, 100
3, 55168, Note_on_c, 1, 57, 80
3, 55196, Note_off_c, 1, 57, 100
3, 55200, Note_on_c, 1, 54, 80
3, 55228, Note_off_c, 1, 54, 100
3, 55232, Note_on_c, 1, 56, 80
3, 55260, Note_off_c, 1, 56, 100
3, 55264, Note_on_c, 1, 52, 80
3, 55292, Note_off_c, 1, 52, 100
3, 55296, Note_on_c, 1, 54, 80
3, 55324, Note_off_c, 1, 54, 100
3, 55328, Note_on_c, 1, 51, 80
3, 55356, Note_off_c, 1, 51, 100
3, 55360, Note_on_c, 1, 52, 80
3, 55388, Note_off_c, 1, 52, 100
3, 55392, Note_on_c, 1, 49, 80
3, 55420, Note_off_c, 1, 49, 100
3, 55424, Note_on_c, 1, 51, 80
3, 55452, Note_off_c, 1, 51, 100
3, 55456, Note_on_c, 1, 47, 80
3, 55484, Note_off_c, 1, 47, 100
3, 55488, Note_on_c, 1, 49, 80
3, 55516, Note_off_c, 1, 49, 100
3, 55520, Note_on_c, 1, 45, 80
3, 55548, Note_off_c, 1, 45, 100
3, 55552, Note_on_c, 1, 47, 80
3, 55580, Note_off_c, 1, 47, 100
3, 55584, Note_on_c, 1, 44, 80
3, 55612, Note_off_c, 1, 44, 100
3, 55616, Note_on_c, 1, 45, 80
3, 55644, Note_off_c, 1, 45, 100
3, 55648, Note_on_c, 1, 42, 80
3, 55676, Note_off_c, 1, 42, 100
3, 55680, Note_on_c, 1, 44, 80
3, 55708, Note_off_c, 1, 44, 100
3, 55712, Note_on_c, 1, 40, 80
3, 55740, Note_off_c, 1, 40, 100
3, 55744, Note_on_c, 1, 42, 80
3, 55772, Note_off_c, 1, 42, 100
3, 55776, Note_on_c, 1, 39, 80
3, 55804, Note_off_c, 1, 39, 100
3, 55808, Note_on_c, 1, 40, 80
3, 55836, Note_off_c, 1, 40, 100
3, 55840, Note_on_c, 1, 37, 80
3, 55868, Note_off_c, 1, 37, 100
3, 55872, Note_on_c, 1, 35, 80
3, 55932, Note_off_c, 1, 35, 100
3, 55936, Note_on_c, 1, 37, 80
3, 55996, Note_off_c, 1, 37, 100
3, 56000, Note_on_c, 1, 39, 80
3, 56060, Note_off_c, 1, 39, 100
3, 56064, Control_c, 1, 64, 127
3, 56064, Note_on_c, 1, 32, 80
3, 56828, Note_off_c, 1, 32, 100
3, 58360, Control_c, 1, 64, 0
3, 58560, Note_on_c, 1, 69, 80
3, 58652, Note_off_c, 1, 69, 100
3, 58656, Note_on_c, 1, 76, 80
3, 58748, Note_off_c, 1, 76, 100
3, 58944, Note_on_c, 1, 76, 80
3, 59036, Note_off_c, 1, 76, 100
3, 59040, Note_on_c, 1, 68, 80
3, 59132, Note_off_c, 1, 68, 100
3, 59328, Note_on_c, 1, 66, 80
3, 59420, Note_off_c, 1, 66, 100
3, 59424, Note_on_c, 1, 75, 80
3, 59516, Note_off_c, 1, 75, 100
3, 59712, Note_on_c, 1, 76, 80
3, 59804, Note_off_c, 1, 76, 100
3, 59808, Note_on_c, 1, 64, 80
3, 59900, Note_off_c, 1, 64, 100
3, 59904, Note_on_c, 1, 69, 80
3, 59904, Note_on_c, 1, 73, 80
3, 59996, Note_off_c, 1, 73, 100
3, 60000, Note_on_c, 1, 76, 80
3, 60284, Note_off_c, 1, 69, 100
3, 60284, Note_off_c, 1, 76, 100
3, 60288, Note_on_c, 1, 68, 80
3, 60288, Note_on_c, 1, 76, 80
3, 60380, Note_off_c, 1, 76, 100
3, 60384, Note_on_c, 1, 71, 80
3, 60668, Note_off_c, 1, 68, 100
3, 60668, Note_off_c, 1, 71, 100
3, 60672, Note_on_c, 1, 66, 80
3, 60672, Note_on_c, 1, 69, 80
3, 60764, Note_off_c, 1, 69, 100
3, 60768, Note_on_c, 1, 71, 80
3, 61052, Note_off_c, 1, 66, 100
3, 61052, Note_off_c, 1, 71, 100
3, 61056, Note_on_c, 1, 64, 80
3, 61056, Note_on_c, 1, 71, 80
3, 61148, Note_off_c, 1, 71, 100
3, 61152, Note_on_c, 1, 68, 80
3, 61436, Note_off_c, 1, 64, 100
3, 61436, Note_off_c, 1, 68, 100
3, 61632, Note_on_c, 1, 75, 80
3, 61724, Note_off_c, 1, 75, 100
3, 61728, Note_on_c, 1, 71, 80
3, 61820, Note_off_c, 1, 71, 100
3, 62016, Note_on_c, 1, 76, 80
3, 62108, Note_off_c, 1, 76, 100
3, 62112, Note_on_c, 1, 71, 80
3, 62204, Note_off_c, 1, 71, 100
3, 62400, Note_on_c, 1, 78, 80
3, 62492, Note_off_c, 1, 78, 100
3, 62496, Note_on_c, 1, 71, 80
3, 62588, Note_off_c, 1, 71, 100
3, 62784, Note_on_c, 1, 80, 80
3, 62876, Note_off_c, 1, 80, 100
3, 62880, Note_on_c, 1, 71, 80
3, 62972, Note_off_c, 1, 71, 100
3, 62976, Note_on_c, 1, 63, 80
3, 62976, Note_on_c, 1, 66, 80
3, 63068, Note_off_c, 1, 66, 100
3, 63072, Note_on_c, 1, 71, 80
3, 63356, Note_off_c, 1, 63, 100
3, 63356, Note_off_c, 1, 71, 100
3, 63360, Note_on_c, 1, 64, 80
3, 63360, Note_on_c, 1, 68, 80
3, 63452, Note_off_c, 1, 68, 100
3, 63456, Note_on_c, 1, 71, 80
3, 63740, Note_off_c, 1, 64, 100
3, 63740, Note_off_c, 1, 71, 100
3, 63744, Note_on_c, 1, 66, 80
3, 63744, Note_on_c, 1, 69, 80
3, 63836, Note_off_c, 1, 69, 100
3, 63840, Note_on_c, 1, 71, 80
3, 64124, Note_off_c, 1, 66, 100
3, 64124, Note_off_c, 1, 71, 100
3, 64128, Note_on_c, 1, 68, 80
3, 64128, Note_on_c, 1, 71, 80
3, 64220, Note_off_c, 1, 71, 100
3, 64224, Note_on_c, 1, 76, 80
3, 64508, Note_off_c, 1, 68, 100
3, 64508, Note_off_c, 1, 76, 100
3, 64704, Note_on_c, 1, 69, 85
3, 64704, Note_on_c, 1, 66, 85
3, 64796, Note_off_c, 1, 69, 100
3, 64796, Note_off_c, 1, 66, 100
3, 64800, Note_on_c, 1, 59, 88
3, 64892, Note_off_c, 1, 59, 100
3, 65088, Note_on_c, 1, 68, 96
3, 65088, Note_on_c, 1, 64, 96
3, 65180, Note_off_c, 1, 68, 100
3, 65180, Note_off_c, 1, 64, 100
3, 65184, Note_on_c, 1, 61, 99
3, 65276, Note_off_c, 1, 61, 100
3, 65472, Note_on_c, 1, 66, 108
3, 65472, Note_on_c, 1, 63, 108
3, 65564, Note_off_c, 1, 66, 100
3, 65564, Note_off_c, 1, 63, 100
3, 65568, Note_on_c, 1, 59, 110
3, 65660, Note_off_c, 1, 59, 100
3, 66048, Note_on_c, 1, 57, 80
3, 66048, Note_on_c, 1, 54, 80
3, 66048, Note_on_c, 1, 47, 80
3, 66428, Note_off_c, 1, 57, 100
3, 66428, Note_off_c, 1, 54, 100
3, 66428, Note_off_c, 1, 47, 100
3, 66816, Note_on_c, 1, 56, 80
3, 66816, Note_on_c, 1, 52, 80
3, 66816, Note_on_c, 1, 47, 80
3, 67196, Note_off_c, 1, 56, 100
3, 67196, Note_off_c, 1, 52, 100
3, 67196, Note_off_c, 1, 47, 100
3, 67584, Note_on_c, 1, 57, 80
3, 67584, Note_on_c, 1, 54, 80
3, 67584, Note_on_c, 1, 51, 80
3, 67584, Note_on_c, 1, 48, 80
3, 67964, Note_off_c, 1, 57, 100
3, 67964, Note_off_c, 1, 54, 100
3, 67964, Note_off_c, 1, 51, 100
3, 67964, Note_off_c, 1, 48, 100
3, 67968, Note_on_c, 1, 56, 80
3, 67968, Note_on_c, 1, 52, 80
3, 67968, Note_on_c, 1, 49, 80
3, 68348, Note_off_c, 1, 56, 100
3, 68348, Note_off_c, 1, 52, 100
3, 68348, Note_off_c, 1, 49, 100
3, 68352, Note_on_c, 1, 49, 80
3, 68352, Note_on_c, 1, 45, 80
3, 68352, Note_on_c, 1, 53, 80
3, 68732, Note_off_c, 1, 53, 100
3, 68736, Note_on_c, 1, 54, 80
3, 69116, Note_off_c, 1, 49, 100
3, 69116, Note_off_c, 1, 54, 100
3, 69120, Note_on_c, 1, 56, 80
3, 69120, Note_on_c, 1, 53, 80
3, 69120, Note_on_c, 1, 50, 80
3, 69500, Note_off_c, 1, 56, 100
3, 69500, Note_off_c, 1, 53, 100
3, 69500, Note_off_c, 1, 50, 100
3, 69504, Note_on_c, 1, 54, 80
3, 69504, Note_on_c, 1, 49, 80
3, 69884, Note_off_c, 1, 54, 100
3, 69884, Note_off_c, 1, 49, 100
3, 69888, Note_on_c, 1, 53, 80
3, 69888, Note_on_c, 1, 50, 80
3, 69888, Note_on_c, 1, 47, 80
3, 70268, Note_off_c, 1, 53, 100
3, 70268, Note_off_c, 1, 50, 100
3, 70268, Note_off_c, 1, 47, 100
3, 70272, Note_on_c, 1, 54, 80
3, 70272, Note_on_c, 1, 49, 80
3, 70652, Note_off_c, 1, 45, 100
3, 70652, Note_off_c, 1, 54, 100
3, 70652, Note_off_c, 1, 49, 100
3, 70656, Note_on_c, 1, 46, 80
3, 70656, Note_on_c, 1, 34, 80
3, 71036, Note_off_c, 1, 46, 100
3, 71036, Note_off_c, 1, 34, 100
3, 71040, Note_on_c, 1, 47, 80
3, 71040, Note_on_c, 1, 35, 80
3, 71420, Note_off_c, 1, 47, 100
3, 71420, Note_off_c, 1, 35, 100
3, 71424, Note_on_c, 1, 48, 80
3, 71424, Note_on_c, 1, 36, 80
3, 71804, Note_off_c, 1, 48, 100
3, 71804, Note_off_c, 1, 36, 100
3, 71808, Note_on_c, 1, 35, 80
3, 71808, Note_on_c, 1, 47, 80
3, 72188, Note_off_c, 1, 35, 100
3, 72188, Note_off_c, 1, 47, 100
3, 72192, Note_on_c, 1, 45, 80
3, 72192, Note_on_c, 1, 33, 80
3, 72572, Note_off_c, 1, 45, 100
3, 72572, Note_off_c, 1, 33, 100
3, 72576, Note_on_c, 1, 44, 80
3, 72576, Note_on_c, 1, 32, 80
3, 72956, Note_off_c, 1, 44, 100
3, 72956, Note_off_c, 1, 32, 100
3, 72960, Note_on_c, 1, 30, 80
3, 72960, Note_on_c, 1, 42, 80
3, 73244, Note_off_c, 1, 42, 100
3, 73248, Note_on_c, 1, 44, 80
3, 73340, Note_off_c, 1, 30, 100
3, 73340, Note_off_c, 1, 44, 100
3, 73344, Note_on_c, 1, 45, 80
3, 73344, Note_on_c, 1, 35, 80
3, 73724, Note_off_c, 1, 45, 100
3, 73728, Note_on_c, 1, 47, 80
3, 74108, Note_off_c, 1, 35, 100
3, 74108, Note_off_c, 1, 47, 100
3, 74304, Note_on_c, 1, 40, 80
3, 74396, Note_off_c, 1, 40, 100
3, 74400, Note_on_c, 1, 52, 80
3, 74492, Note_off_c, 1, 52, 100
3, 74688, Note_on_c, 1, 48, 81
3, 74780, Note_off_c, 1, 48, 100
3, 74784, Note_on_c, 1, 40, 83
3, 74876, Note_off_c, 1, 40, 100
3, 75072, Note_on_c, 1, 40, 88
3, 75164, Note_off_c, 1, 40, 100
3, 75168, Note_on_c, 1, 51, 90
3, 75260, Note_off_c, 1, 51, 100
3, 75456, Note_on_c, 1, 52, 95
3, 75548, Note_off_c, 1, 52, 100
3, 75552, Note_on_c, 1, 40, 97
3, 75644, Note_off_c, 1, 40, 100
3, 75840, Note_on_c, 1, 40, 102
3, 75932, Note_off_c, 1, 40, 100
3, 75936, Note_on_c, 1, 48, 104
3, 76028, Note_off_c, 1, 48, 100
3, 76224, Note_on_c, 1, 47, 109
3, 76316, Note_off_c, 1, 47, 100
3, 76320, Note_on_c, 1, 40, 110
3, 76412, Note_off_c, 1, 40, 100
3, 76608, Note_on_c, 1, 40, 98
3, 76700, Note_off_c, 1, 40, 100
3, 76704, Note_on_c, 1, 48, 97
3, 76796, Note_off_c, 1, 48, 100
3, 76992, Note_on_c, 1, 51, 93
3, 77084, Note_off_c, 1, 51, 100
3, 77088, Note_on_c, 1, 40, 91
3, 77180, Note_off_c, 1, 40, 100
3, 77376, Note_on_c, 1, 40, 87
3, 77468, Note_off_c, 1, 40, 100
3, 77472, Note_on_c, 1, 52, 86
3, 77564, Note_off_c, 1, 52, 100
3, 77760, Note_on_c, 1, 52, 82
3, 77852, Note_off_c, 1, 52, 100
3, 77856, Note_on_c, 1, 40, 81
3, 77948, Note_off_c, 1, 40, 100
3, 78144, Note_on_c, 1, 40, 70
3, 78236, Note_off_c, 1, 40, 100
3, 78240, Note_on_c, 1, 51, 70
3, 78332, Note_off_c, 1, 51, 100
3, 78528, Note_on_c, 1, 51, 70
3, 78620, Note_off_c, 1, 51, 100
3, 78624, Note_on_c, 1, 40, 70
3, 78716, Note_off_c, 1, 40, 100
3, 78912, Note_on_c, 1, 40, 72
3, 79004, Note_off_c, 1, 40, 100
3, 79008, Note_on_c, 1, 52, 73
3, 79100, Note_off_c, 1, 52, 100
3, 79296, Note_on_c, 1, 51, 76
3, 79388, Note_off_c, 1, 51, 100
3, 79392, Note_on_c, 1, 52, 77
3, 79484, Note_off_c, 1, 52, 100
3, 79680, Note_on_c, 1, 51, 80
3, 79772, Note_off_c, 1, 51, 100
3, 79776, Note_on_c, 1, 52, 81
3, 79868, Note_off_c, 1, 52, 100
3, 80064, Note_on_c, 1, 63, 84
3, 80156, Note_off_c, 1, 63, 100
3, 80160, Note_on_c, 1, 64, 85
3, 80252, Note_off_c, 1, 64, 100
3, 80448, Note_on_c, 1, 52, 88
3, 80540, Note_off_c, 1, 52, 100
3, 80544, Note_on_c, 1, 64, 89
3, 80636, Note_off_c, 1, 64, 100
3, 80832, Note_on_c, 1, 63, 93
3, 80924, Note_off_c, 1, 63, 100
3, 80928, Note_on_c, 1, 64, 94
3, 81020, Note_off_c, 1, 64, 100
3, 81216, Note_on_c, 1, 63, 97
3, 81308, Note_off_c, 1, 63, 100
3, 81312, Note_on_c, 1, 64, 98
3, 81404, Note_off_c, 1, 64, 100
3, 81600, Note_on_c, 1, 75, 101
3, 81692, Note_off_c, 1, 75, 100
3, 81696, Note_on_c, 1, 76, 102
3, 81788, Note_off_c, 1, 76, 100
3, 81984, Note_on_c, 1, 64, 105
3, 82076, Note_off_c, 1, 64, 100
3, 82080, Note_on_c, 1, 76, 106
3, 82172, Note_off_c, 1, 76, 100
3, 82368, Note_on_c, 1, 75, 109
3, 82460, Note_off_c, 1, 75, 100
3, 82464, Note_on_c, 1, 76, 110
3, 82556, Note_off_c, 1, 76, 100
3, 82752, Note_on_c, 1, 87, 100
3, 82844, Note_off_c, 1, 87, 100
3, 82848, Note_on_c, 1, 88, 90
3, 82940, Note_off_c, 1, 88, 100
3, 83136, Note_on_c, 1, 95, 80
3, 83228, Note_off_c, 1, 95, 100
3, 83232, Note_on_c, 1, 99, 80
3, 83324, Note_off_c, 1, 99, 100
3, 83712, Note_on_c, 1, 47, 80
3, 83712, Note_on_c, 1, 44, 80
3, 83712, Note_on_c, 1, 40, 80
3, 84860, Note_off_c, 1, 40, 100
3, 84860, Note_off_c, 1, 44, 100
3, 84860, Note_off_c, 1, 47, 100
3, 84860, End_track
0, 0, End_of_file
